<svg xmlns="http://www.w3.org/2000/svg" version="1.1" xmlns:xlink="http://www.w3.org/1999/xlink" xmlns:svgjs="http://svgjs.com/svgjs" width="512" height="512" x="0" y="0" viewBox="0 0 512 512" style="enable-background:new 0 0 512 512" xml:space="preserve" class=""><g><path d="M147.818 303.972c-23.46-3.582-53.175-25.402-77.593-47.02-4.591-4.061-8.955-8.123-13.092-12.033-13.067-12.411-23.485-23.535-28.883-29.564-16.22-18.086-2.371-26.739-2.371-26.739-2.169-14.53 14.656-13.773 14.656-13.773 8.652-7.795 21.215 3.279 34.18 7.896 5.045 1.791 14.631 5.777 24.494 9.989a3091.137 3091.137 0 0 1 21.366 9.232c6.155 2.699 10.317 4.541 10.317 4.541s58.699 103.853 16.926 97.471z" style="" fill="#fd913e" data-original="#fd913e" class=""></path><path d="M147.818 303.972c-23.46-3.582-53.175-25.402-77.593-47.02-4.591-4.061-8.955-8.123-13.092-12.033-13.067-12.411-23.485-23.535-28.883-29.564-16.22-18.086-2.371-26.739-2.371-26.739-2.169-14.53 14.656-13.773 14.656-13.773 8.652-7.795 21.215 3.279 34.18 7.896 5.045 1.791 14.631 5.777 24.494 9.989a3091.137 3091.137 0 0 1 21.366 9.232c6.155 2.699 10.317 4.541 10.317 4.541s58.699 103.853 16.926 97.471z" style="opacity:0.2;" fill="#af312f" data-original="#af312f"></path><path d="M55.63 188.226c-2.227-.097-4.244.061-5.796.479-8.483 2.283-11.6 12.975-9.733 20.664 1.749 7.202 9.989 13.489 17.121 8.698 1.922-1.291 2.848-3.597 3.47-5.814.179-.638.351-1.301.763-1.824 1.304-1.657 3.894-.971 6.013-.919 3.09.076 6.149-1.739 7.542-4.474 1.835-3.602 1.368-7.304-1.494-10.231-4.416-4.516-11.726-6.311-17.886-6.579zM30.864 184.97c.032 1.269 1.018 2.267 2.004 2.986a15.531 15.531 0 0 0 2.815 1.631c1.048.468 2.172.82 3.306.737 1.134-.082 2.282-.66 2.859-1.698.282-.507.415-1.094.477-1.679.294-2.797-1.611-7.3-4.666-7.493-2.233-.142-6.861 2.887-6.795 5.516zM48.027 180.461c-.063 1.221.528 2.42 1.419 3.258.89.837 2.054 1.341 3.246 1.611.696.158 1.421.241 2.123.114.702-.127 1.383-.483 1.793-1.067.447-.636.527-1.456.527-2.233.001-2.5-1.469-4.281-4.032-4.557-1.763-.19-4.972.838-5.076 2.874zM26.553 199.946c.28.981.983 1.783 1.718 2.491 1.144 1.102 2.667 2.127 4.209 1.751.895-.219 1.631-.897 2.073-1.705.442-.808.617-1.737.677-2.656.184-2.808-1.729-5.057-4.663-5.044-2.366.009-4.666 2.881-4.014 5.163z" style="" fill="#fdbd87" data-original="#fdbd87" class=""></path><path d="M79.078 244.516c-.202 1.614-.908 3.103-1.74 4.49-1.842 3.078-4.288 5.751-7.114 7.946-4.591-4.061-8.955-8.123-13.092-12.033 2.724-1.816 5.499-3.557 8.501-4.742 2.548-1.009 5.575-1.791 8.325-1.463 3.052.379 5.499 2.573 5.12 5.802zM120.574 201.961c-.958 4.213-3.532 8.022-7.139 10.393-4.137 2.724-9.51 3.481-14.227 1.968-1.009-.328-2.018-.782-2.749-1.589-.933-1.034-1.211-2.497-1.337-3.91-.252-3.405.277-6.861 1.589-10.015.706-1.69 1.413-4.086 2.497-6.079a3043.163 3043.163 0 0 1 21.366 9.232z" style="" fill="#af312f" data-original="#af312f"></path><path d="M161.935 359.23s-51.418 35.896-22.798 98.47c0 0-33.955 37.836-24.254 50.933 9.702 13.097 14.7-15.894 27.164-20.858 15.161-6.039 18.433-14.552 15.523-24.739 0 0 52.873 14.552 70.821-22.313 17.947-36.866-66.456-81.493-66.456-81.493z" style="" fill="#fd913e" data-original="#fd913e" class=""></path><path d="M161.935 359.23s-51.418 35.896-22.798 98.47c0 0-33.955 37.836-24.254 50.933 9.702 13.097 14.7-15.894 27.164-20.858 15.161-6.039 18.433-14.552 15.523-24.739 0 0 52.873 14.552 70.821-22.313 17.947-36.866-66.456-81.493-66.456-81.493z" style="opacity:0.2;" fill="#af312f" data-original="#af312f"></path><path d="M128.472 501.854c-.352-1.054-4.217-5.974-1.054-13.354" style="" fill="#af312f" data-original="#af312f"></path><path d="M506.27 273.954c.252 5.549-10.948 8.047-22.804 12.058-10.746 3.658-21.971 8.577-25.579 18.162-.101.252-.202.53-.277.833-1.488 4.515-2.699 12.209-4.364 21.542-3.38 18.742-8.703 43.993-22.198 62.761a50.998 50.998 0 0 1-2.85 3.759c-5.55 6.786-12.588 12.31-21.114 16.144-10.897 4.919-24.191 7.013-39.906 5.323l-12.588-6.533 16.119-16.144s39.806 8.072 49.896-31.229c.984-3.834 1.867-7.719 2.699-11.578 1.337-6.332 2.497-12.663 3.658-18.869 5.398-28.732 10.62-54.562 31.935-64.299a80.378 80.378 0 0 1 5.272-2.169h.025c25.629-9.613 41.597.3 42.076 10.239z" style="" fill="#fd913e" data-original="#fd913e" class=""></path><path d="M506.27 273.954c.252 5.549-10.948 8.047-22.804 12.058-10.746 3.658-21.971 8.577-25.579 18.162-.101.252-.202.53-.277.833-1.488 4.515-2.699 12.209-4.364 21.542-3.38 18.742-8.703 43.993-22.198 62.761a50.998 50.998 0 0 1-2.85 3.759c-5.55 6.786-12.588 12.31-21.114 16.144-10.897 4.919-24.191 7.013-39.906 5.323l-12.588-6.533 16.119-16.144s39.806 8.072 49.896-31.229c.984-3.834 1.867-7.719 2.699-11.578 1.337-6.332 2.497-12.663 3.658-18.869 5.398-28.732 10.62-54.562 31.935-64.299a80.378 80.378 0 0 1 5.272-2.169h.025c25.629-9.613 41.597.3 42.076 10.239z" style="opacity:0.2;" fill="#af312f" data-original="#af312f"></path><path d="M506.27 273.954c.252 5.549-10.948 8.047-22.804 12.058 2.169-4.541 6.407-9.359 14.53-12.613 0 0-20.004-2.75-33.802-9.687 25.629-9.61 41.597.303 42.076 10.242zM457.611 305.007c-1.488 4.515-2.699 12.209-4.364 21.542-3.405-3.582-6.357-8.627-3.607-13.924 1.841-3.507 4.842-5.954 7.971-7.618zM426.962 330.181c3.985 1.337 8.703 3.759 9.182 7.719.58 4.591-7.366 8.804-12.84 11.15l3.658-18.869zM431.048 389.31a50.998 50.998 0 0 1-2.85 3.759c-5.55 6.786-12.588 12.31-21.114 16.144-.025-5.726 1.11-14.126 7.719-18.162 4.541-2.775 10.771-2.675 16.245-1.741zM251.125 81.348l20.936-37.535S175.534-4.143 152.98.289c-19.905 3.912-95.76 89.708-91.732 94.172 4.029 4.464 47.518 21.751 47.518 21.751l112.768-3.805 29.591-31.059z" style="" fill="#af312f" data-original="#af312f"></path><path d="M391.596 311.035a273.046 273.046 0 0 0-1.387-19.121 269.16 269.16 0 0 0-3.128-20.962c-1.337-7.063-2.497-11.528-2.749-12.436a.738.738 0 0 0-.051-.176c.732-4.944.984-9.712.782-14.303-.53-13.268-4.692-25.049-11.175-35.442-3.885-6.281-8.627-12.058-13.899-17.33-6.584-6.584-13.975-12.411-21.618-17.506-7.315-4.894-14.858-9.131-22.123-12.739-12.259-6.097-23.707-10.417-31.979-13.167.409-1.59.755-3.18 1.002-4.765.267-1.518.413-2.976.53-4.481.007-.203.041-.384.048-.587.112-1.277.146-2.571.13-3.862a56.495 56.495 0 0 0-1.422-12.307 58.922 58.922 0 0 0-1.589-5.782c-.066-.172-.107-.345-.169-.466-.42-1.279-.911-2.501-1.405-3.748-.034-.098-.091-.169-.101-.27a58.52 58.52 0 0 0-2.048-4.424 57.533 57.533 0 0 0-2.357-4.193 65.1 65.1 0 0 0-3.106-4.631c-3.291-4.438-7.086-8.298-11.226-11.493-3.177-3.181-7.872-8.859-9.119-15.889-1.879-10.645-6.012-19.337-12.08-21.167l-.336-.07c-3.282-.865-7.914 5.225-12.461 13.433-2.285 4.125-6.387 8.247-6.583 13.373-3.506.167-7.073.491-10.7.998-5.006.657-10.088 1.6-15.201 2.749-1.957.482-3.915.964-5.895 1.473-1.261.342-2.546.687-3.805 1.055a188.23 188.23 0 0 0-15.08 4.916 91.125 91.125 0 0 0-3.652 1.345 102.855 102.855 0 0 0-4.817 1.907c-3.885 1.569-7.68 3.281-11.273 5.001-4.805 2.311-9.298 4.72-13.406 7.17-3.554-1.197-7.404-3.152-10.468-6.217-7.075-7.057-14.792-11.701-20.661-10.787a9.649 9.649 0 0 0-1.706.459c-4.702 1.77-4.631 19.367 4.289 32.514 0 0 .817-.394.794-.367.873 1.238-.91 3.745.131 4.892l.025-.003a31.836 31.836 0 0 0 2.88 2.702c-2.887 4.746-4.965 9.747-6.249 14.853-.781 3.111-1.259 6.219-1.503 9.382a36.082 36.082 0 0 0-.092 2.895 48.04 48.04 0 0 0 .023 2.759 56.41 56.41 0 0 0 .97 8.447c.256 1.421.564 2.862.968 4.244a57.18 57.18 0 0 0 1.961 6.255 71.108 71.108 0 0 0 1.904 4.513c.5 1.044 1.028 2.11 1.578 3.149a67.8 67.8 0 0 0 2.82 4.835c.712 1.151 1.466 2.197 2.215 3.193.429.544.806 1.066 1.228 1.535 2.994 3.679 6.109 6.461 9.187 8.563.437.305.864.54 1.298.817-6.986 22.388 2.536 44.082 2.536 44.082l2.951 8.577 23.308 67.68s-3.38 17.279-.151 39.099c1.059 7.24 2.825 14.959 5.726 22.728.025.076.025.126.051.202 4.717 12.764 12.386 25.629 24.569 36.526 42.101 37.662 87.684 27.243 87.684 27.243 6.217 4.045 14.63 6.803 22.905 7.139 13.049.53 26.588.858 40.638-9.258 5.196-3.708 10.418-8.602 15.665-14.959 5.776-6.962 11.578-15.69 17.355-26.487a100.587 100.587 0 0 0 1.867-3.658c3.027-6.079 5.55-12.31 7.669-18.591 2.85-8.602 4.944-17.304 6.382-25.932a198.23 198.23 0 0 0 2.169-17.658c.759-9.584.86-18.867.532-27.469z" style="" fill="#fd913e" data-original="#fd913e" class=""></path><path d="M228.69 379.674c3.305 8.022 14.681 18.793 23.46 29.034 10.393 12.133 10.569 30.296 25.301 39.629-.353-.151-.681-.277-1.034-.429 0 0-45.582 10.418-87.684-27.243-12.184-10.897-19.852-23.762-24.569-36.526-.025-.076-.025-.126-.051-.202-2.526-7.696-4.576-14.461-5.726-22.728-3.229-21.82.151-39.099.151-39.099l-23.308-67.68c22.93-11.175 110.008-49.114 158.794-7.341 17.431 14.908 27.395 44.8 30.371 78.451-20.609 5.903-45.507 23.056-54.815 69.849 0 0-22.022-32.112-36.703-26.159-5.347 2.17-6.079 5.853-4.187 10.444z" style="" fill="#fdbd87" data-original="#fdbd87" class=""></path><path d="M128.696 354.095c1.377-.918 155.111-27.075 177.139-40.384 0 0-19.274-106.467-22.487-108.302-3.212-1.836-170.714 34.418-178.515 41.301-7.802 6.885 23.863 107.385 23.863 107.385z" style="" fill="#af312f" data-original="#af312f"></path><path d="M118.721 254.319s13.019 79.325 19.68 81.747c6.661 2.422 150.777-29.974 153.2-32.699 2.422-2.725-15.441-80.233-18.166-81.444-2.725-1.211-146.237 29.368-154.714 32.396z" style="" fill="#fdbd87" data-original="#fdbd87" class=""></path><path d="M224.452 88.693c-9.458-20.011 10.392-40.587 16.563-38.993.105.025.224.057.331.093-1.148 1.349-2.558 3.542-3.46 6.866-.896 3.356-3.479 8.101-2.528 14.029 1.762 10.9-1.742 15.751-6.778 17.389-1.513.504-2.965.682-4.128.616zM107.672 120.009s.005.009.019.015c.107.216 1.089 1.954 2.838 3.581.004.01.019.015.023.026.977.912 2.532 1.773 4.342 2.342 3.193 1.014 5.101-.29 8.071-2.391 7.305-5.187-8.202-14.169-14.566-25.775-2.085-3.805-2.966-7.733-1.375-11.659a9.564 9.564 0 0 0-1.721.447c-4.689 1.766-6.515 20.281 2.369 33.414z" style="" fill="#af312f" data-original="#af312f"></path><path d="M114.517 116.607s-1.763 4.95.376 9.366c3.193 1.014 7.162 1.123 10.132-.978 7.305-5.187-10.263-15.582-16.626-27.188.008 3.473.76 8.549 4.275 13.042 0 0-4.624-1.678-5.318-.749-.653.912 4.813 3.681 5.12 3.834-.239-.051-2.995-.647-3.352.555-.372 1.255 5.393 2.118 5.393 2.118zM228.579 88.077c-8.295-10.481 2.274-17.62 2.274-17.62s-2.973-.065-2.811-1.894c.166-1.753 3.087-.739 3.337-.654-.089-.116-1.995-2.476-1.712-3.614.289-1.173 2.747.98 2.747.98.293-4.749 3.665-7.487 5.471-8.616-.896 3.356-1.272 7.853-.321 13.78 1.762 10.901-3.949 16-8.985 17.638z" style="" fill="#ffffff" data-original="#ffffff"></path><path d="M133.973 175.567c-2.049 4.475-6.745 7.057-11.035 9.068-2.356 1.078-4.724 2.134-7.121 3.018a54.93 54.93 0 0 1-2.824-4.817 83.276 83.276 0 0 1-1.577-3.166 76.123 76.123 0 0 1-1.897-4.515 56.953 56.953 0 0 1-1.971-6.238 5.76 5.76 0 0 0 1.32.204c3.309.164 6.78-.563 10.144-1.501 3.083-.849 6.249-1.876 9.274-1.678 3.029.182 5.954 1.929 6.455 5.011.249 1.477-.063 3.134-.768 4.614zM112.224 162.136a19.82 19.82 0 0 1-5.654 2.529 54.544 54.544 0 0 1-.946-8.439 50.19 50.19 0 0 1-.055-2.763c.018-.966.054-1.927.124-2.879l.086.023c3.539.537 7.705-1.014 10.671 1.202.735.543 1.291 1.277 1.457 2.237.644 3.578-2.989 6.295-5.683 8.09zM131.937 195.725a29.678 29.678 0 0 1-3.499 5.244c-3.066-2.115-6.195-4.887-9.195-8.559 2.84-.693 5.667-1.957 8.231-3.75.803-.538 1.605-1.149 2.463-1.343 1.797-.42 3.278 1.108 3.475 2.919.202 1.794-.552 3.738-1.475 5.489zM184.753 103.942s2.885-5.651 5.444-5.306c2.559.345-.211 6.748-4.492 9.068 0 0-8.473-2.109-7.425-5.846 1.047-3.736 6.473 2.084 6.473 2.084z" style="" fill="#af312f" data-original="#af312f"></path><path d="M203.973 136.593c-1.452-2.596-2.963-5.154-4.448-7.728l-4.553-7.663-4.632-7.614c-1.558-2.529-3.076-5.083-4.667-7.592l-.796-1.256-.215 1.457c-.417 2.83-.729 5.652-.988 8.489a126.987 126.987 0 0 0-.436 17.056c.17 2.84.432 5.677.907 8.477-.239-2.83-.391-5.659-.388-8.491.004-2.831.062-5.661.236-8.485.37-5.644.868-11.297 1.755-16.87l-1.011.202c1.537 2.542 3.146 5.04 4.717 7.562l4.752 7.539 4.831 7.491c1.643 2.477 3.26 4.97 4.936 7.426z" style="" fill="#af312f" data-original="#af312f"></path><path d="M194.432 106.289c3.047.196 6.263 1.709 8.624 4.601 3.423 4.193 5.175 9.968 3.052 14.83-1.318 3.019-3.675 4.991-6.169 6.402-4.78 2.706-9.723 4.99-15.374 4.351-2.05-.232-4.148-.812-6.061-2.106-2.931-1.982-5.266-5.656-6.12-9.63-.854-3.974-.209-8.157 1.693-10.964 2.339-3.453 6.576-5.256 10.217-5.941 3.247-.608 6.788-1.758 10.138-1.543z" style="opacity:0.48;" fill="#af312f" data-original="#af312f"></path><path d="M146.523 140.21c4.2 1.465 6.104 6.314 2.745 9.939-4.498 4.853-14.904 7.037-20.896 4.074-5.058-2.501-4.356-9.766-.245-12.153 3.475-2.018 7.543-2.767 11.49-2.747 1.835.01 4.551.067 6.906.887zM249.314 108.286c4.563.248 8.518 4.846 7.031 9.789-1.992 6.619-10.678 12.236-17.58 10.946-5.827-1.089-8.45-9.097-5.706-12.95 2.319-3.258 5.762-5.341 9.439-6.562 1.709-.568 4.259-1.362 6.816-1.223z" style="opacity:0.48;" fill="#fb5555" data-original="#fb5555"></path><path d="M285.802 138.612a91.66 91.66 0 0 1-8.498-.076c-3.089-.161-6.318-.487-9.138-1.803-2.819-1.317-5.045-3.904-4.411-6.154.549-1.997 3.077-3.103 5.463-3.88 5.023-1.67 10.465-2.918 15.333-4.832a56.517 56.517 0 0 1 1.422 12.302 44.293 44.293 0 0 1-.124 3.85l-.047.593zM283.223 151.428a48.092 48.092 0 0 1-.948 2.606c-2.914-1.03-5.601-2.568-7.483-4.588-1.382-1.484-2.321-3.4-1.462-4.839.656-1.09 2.202-1.669 3.814-1.809 1.617-.157 3.302.052 4.953.179 1.094.089 2.15.113 3.181.094a51.584 51.584 0 0 1-2.055 8.357zM282.808 115.598a28.68 28.68 0 0 1-1.861.11c-2.019.087-4.144.017-6.052-.526-1.886-.556-3.488-1.696-3.479-2.902.016-1.37 1.97-2.316 3.743-3.128a97.499 97.499 0 0 0 4.083-1.993 63.75 63.75 0 0 1 2.049 4.427c.033.082.079.186.112.268a73.115 73.115 0 0 1 1.405 3.744zM271.619 113.853c-3.536.032-7.027.403-10.507.855-3.475.486-6.939 1.057-10.356 1.969 3.537-.03 7.027-.4 10.507-.856 3.475-.489 6.938-1.06 10.356-1.968zM270.032 105.231c-3.332.837-6.54 1.99-9.717 3.221-3.165 1.263-6.298 2.605-9.305 4.266 3.333-.834 6.541-1.987 9.717-3.22 3.164-1.265 6.297-2.607 9.305-4.267zM264.097 96.256c-2.658 2.209-5.067 4.65-7.414 7.148-2.323 2.521-4.582 5.1-6.591 7.914 2.66-2.207 5.069-4.649 7.414-7.148 2.321-2.523 4.58-5.103 6.591-7.914zM134.238 147.846c-3.502.685-6.899 1.693-10.268 2.781-3.36 1.12-6.692 2.321-9.918 3.849 3.504-.682 6.9-1.691 10.268-2.781 3.359-1.122 6.691-2.323 9.918-3.849zM111.718 146.122c3.428.173 6.829.006 10.224-.245 3.392-.284 6.778-.654 10.136-1.366-3.429-.175-6.83-.008-10.225.245-3.392.287-6.777.657-10.135 1.366zM113.569 135.408c2.969 1.65 6.063 2.984 9.189 4.24 3.137 1.225 6.307 2.369 9.602 3.195-2.968-1.653-6.063-2.986-9.189-4.24-3.138-1.222-6.307-2.367-9.602-3.195z" style="" fill="#af312f" data-original="#af312f"></path><path d="M147.899 142.776c6.485-1.881 13.148-7.545 15.455-13.593.492-1.292.78-2.626.821-3.99.147-5.931-3.399-12.093-8.089-15.752-.101-.093-.21-.177-.32-.262-4.811-3.607-11.499-4.261-17.412-1.951-6.918 2.706-14.165 9.105-14.302 16.463-.051 2.904.81 5.897 2.341 8.642l-.008.008c4.054 7.33 12.824 12.947 21.514 10.435z" style="" fill="#ffffff" data-original="#ffffff"></path><path d="M141.282 143.239a19.134 19.134 0 0 1-6.17-2.031 23.792 23.792 0 0 1-5.166-3.737 22.964 22.964 0 0 1-3.932-4.935l-.139-.236.218-.224.008-.008-.079.459c-1.042-1.768-1.849-3.687-2.281-5.723-.441-2.02-.501-4.208.074-6.323 1.114-4.254 4.179-7.876 7.761-10.557a28.932 28.932 0 0 1 5.895-3.364c2.104-.925 4.407-1.443 6.69-1.597 4.605-.313 9.135 1.042 12.555 3.873l-.049-.041c2.848 2.383 5.044 5.364 6.432 8.678.689 1.658 1.172 3.403 1.377 5.196.214 1.782.12 3.65-.44 5.416-.552 1.765-1.461 3.413-2.552 4.925a25.053 25.053 0 0 1-3.774 4.164c-2.831 2.478-6.146 4.535-9.811 5.602-2.154.64-4.438.778-6.617.463zm16.316-6.173c2.718-2.546 4.943-5.678 5.837-9.099.444-1.706.439-3.451.144-5.144-.287-1.692-.836-3.327-1.577-4.869-1.487-3.079-3.744-5.8-6.497-7.869l-.049-.042c-.298-.25-.773-.535-1.157-.803-.433-.237-.842-.507-1.297-.708-.878-.451-1.825-.781-2.785-1.057-.963-.273-1.964-.432-2.967-.554a19.315 19.315 0 0 0-3.053-.037c-4.089.286-8.048 2.069-11.455 4.492-3.392 2.406-6.27 5.642-7.494 9.398-.616 1.869-.676 3.849-.366 5.788.301 1.937.969 3.816 1.881 5.574l.135.261-.214.199-.009.008.079-.458a22.223 22.223 0 0 0 3.561 4.997 20.629 20.629 0 0 0 4.917 3.879c1.845 1.042 3.888 1.833 6.062 2.154 2.165.335 4.443.219 6.603-.4 3.641-1.116 6.974-3.152 9.701-5.71z" style="" fill="#af312f" data-original="#af312f"></path><path d="M155.449 132.387c-3.078 3.907-8.41 6.531-13.472 5.931-8.065-.958-13.831-9.007-11.678-16.504 1.156-4.025 4.521-7.883 8.617-9.612 10.947-4.619 21.866 6.578 18.478 16.67-.417 1.243-1.088 2.428-1.945 3.515z" style="" fill="#af312f" data-original="#af312f"></path><path d="M126.393 132.332c8.549-21.801 27.328-22.848 29.693-22.892-.101-.093-.21-.177-.32-.262-4.811-3.607-11.499-4.261-17.412-1.951-6.918 2.706-14.165 9.105-14.302 16.463-.051 2.905.81 5.898 2.341 8.642z" style="opacity:0.21;" fill="#af312f" data-original="#af312f"></path><path d="M219.819 117.417c7.034 1.559 16.148-.021 21.372-4.051 1.115-.862 2.06-1.858 2.789-3.002 3.137-4.985 2.929-11.967.382-17.374a4.532 4.532 0 0 0-.168-.378c-2.687-5.421-8.629-9.24-15.343-10.154-7.857-1.067-17.891.854-21.742 7.061-1.517 2.451-2.224 5.423-2.176 8.509l-.012.003c.093 8.226 5.477 17.291 14.898 19.386z" style="" fill="#ffffff" data-original="#ffffff"></path><path d="M213.378 114.586a20.268 20.268 0 0 1-4.76-4.74 23.325 23.325 0 0 1-2.955-5.706 21.242 21.242 0 0 1-1.191-6.125l-.011-.274.326-.08.012-.003-.314.355c-.083-2.016.13-4.045.756-5.992.608-1.937 1.658-3.832 3.268-5.354 3.197-3.083 7.904-4.676 12.62-5.215a33.425 33.425 0 0 1 7.231.006c2.442.238 4.862.919 7.082 1.901 4.476 1.978 8.04 5.343 9.815 9.423l-.025-.059c1.464 3.421 2.017 7.033 1.643 10.535-.193 1.75-.622 3.473-1.337 5.101-.7 1.624-1.734 3.171-3.152 4.403-1.411 1.236-3.097 2.197-4.886 2.954a27.7 27.7 0 0 1-5.646 1.71c-3.909.733-8.058.869-12.035-.008a17.721 17.721 0 0 1-6.441-2.832zm18.427 2.693c3.838-.845 7.508-2.43 10.078-4.912 1.279-1.237 2.157-2.727 2.737-4.315.587-1.582.899-3.244.984-4.919.163-3.351-.578-6.772-2.112-9.876l-.025-.059c-.155-.361-.455-.834-.68-1.249-.287-.413-.534-.843-.858-1.236-.596-.812-1.316-1.556-2.077-2.259-.766-.703-1.623-1.325-2.503-1.919a21.672 21.672 0 0 0-2.845-1.52c-3.979-1.75-8.594-2.161-13.016-1.756-4.399.397-8.735 1.753-11.782 4.358-1.523 1.292-2.582 2.95-3.272 4.755-.698 1.799-1.021 3.726-1.055 5.67l-.005.293-.31.062-.012.003.314-.354c-.035 1.997.243 4.02.812 5.996a19.945 19.945 0 0 0 2.649 5.704c1.203 1.788 2.72 3.459 4.596 4.793a17.616 17.616 0 0 0 6.395 2.878c3.979.824 8.136.714 11.987-.138z" style="" fill="#af312f" data-original="#af312f"></path><path d="M232.156 112.243c-4.864 1.83-11.192 1.467-15.635-1.514-7.08-4.748-8.415-14.422-2.604-19.764 3.12-2.868 8.228-4.516 12.944-3.992 12.604 1.4 17.18 16.27 8.898 23.221-1.021.857-2.249 1.54-3.603 2.049z" style="" fill="#af312f" data-original="#af312f"></path><path d="M204.932 98.028c19.046-14.417 37.189-6.154 39.429-5.037a4.532 4.532 0 0 0-.168-.378c-2.687-5.421-8.629-9.24-15.343-10.154-7.857-1.067-17.891.854-21.742 7.061-1.517 2.45-2.223 5.422-2.176 8.508z" style="opacity:0.21;" fill="#af312f" data-original="#af312f"></path><path d="M279.502 153.153a30.74 30.74 0 0 1 1.332 3.116c.363 1.055.684 2.165.662 3.23-.009.539-.168 1.008-.529 1.294-.344.298-.842.309-1.329.174-.981-.283-1.913-.973-2.698-1.684l-1.085-.983.403 1.42c.328 1.154.558 2.366.716 3.557.13 1.187.194 2.416-.096 3.502a2.886 2.886 0 0 1-.733 1.376c-.365.379-.799.575-1.263.545-.946-.054-1.948-.885-2.639-1.725l-.532-.645-.406.724c-1.113 1.984-2.452 3.913-3.881 5.729-1.433 1.824-3.024 3.515-4.672 5.145-1.647 1.637-3.462 3.096-5.372 4.419-1.875 1.39-3.968 2.429-6.076 3.455 2.202-.791 4.374-1.743 6.375-2.996a39.352 39.352 0 0 0 5.66-4.247c1.775-1.563 3.382-3.31 4.882-5.137 1.491-1.844 2.865-3.752 4.073-5.835l-.938.079a7.24 7.24 0 0 0 1.484 1.369c.561.378 1.227.706 2.005.737.785.046 1.566-.354 2.04-.877a3.939 3.939 0 0 0 .981-1.862c.324-1.324.217-2.622.066-3.881-.17-1.264-.481-2.478-.877-3.691l-.682.437c.921.755 1.886 1.432 3.105 1.739.588.145 1.365.114 1.885-.372.523-.447.713-1.181.662-1.763-.065-1.207-.482-2.29-.924-3.339a22.85 22.85 0 0 0-1.599-3.01zM191.233 196.771c-1.765.208-3.529.419-5.294.59-1.764.164-3.536.307-5.285.337l-.825.014.603.595c.697.689 1.366 1.553 1.579 2.44.101.442.049.856-.178 1.188-.118.203-.208.253-.313.279-.109.018-.289-.016-.48-.108-.783-.403-1.513-1.208-2.181-1.966a27.362 27.362 0 0 1-1.869-2.477l-.8-1.191-.191 1.432a15.712 15.712 0 0 1-.572 2.611c-.265.814-.642 1.695-1.166 2.075-.137.093-.107.042-.083.066.006-.006-.111-.08-.186-.249-.17-.305-.308-.724-.405-1.147a20.279 20.279 0 0 1-.41-2.643l-.06-.625-.617.076c-2.694.333-5.48.389-8.204.172-2.721-.254-5.437-.787-7.876-1.958l-1.253-.602.683 1.197c.561.983 1.096 2.126 1.113 3.19a1.583 1.583 0 0 1-.048.371c-.015.093-.023.05 0 .051.001-.012.008.003-.037.008-.152.041-.468-.019-.73-.094-.55-.156-1.108-.385-1.655-.622-2.194-.98-4.297-2.199-6.399-3.401 1.976 1.407 4.012 2.726 6.169 3.88.545.281 1.093.557 1.704.752.315.086.605.206 1.054.142a.75.75 0 0 0 .37-.177.792.792 0 0 0 .19-.353 2.38 2.38 0 0 0 .091-.525c.016-1.377-.512-2.525-1.082-3.655l-.569.595c1.268.676 2.612 1.179 3.985 1.562 1.383.338 2.784.567 4.191.715 2.822.26 5.631.245 8.467-.067l-.676-.549c.076.965.194 1.896.44 2.85.121.476.265.953.55 1.455.138.239.338.536.762.733.463.191.981-.017 1.204-.211.959-.785 1.239-1.766 1.556-2.679.279-.935.463-1.858.579-2.825l-.991.24c.62.897 1.268 1.742 1.985 2.56.733.803 1.456 1.621 2.586 2.155.289.119.648.224 1.062.135.421-.092.74-.447.867-.708.355-.56.391-1.284.223-1.859-.353-1.169-1.101-2.002-1.917-2.76l-.222.609c1.802-.086 3.563-.35 5.32-.635 1.755-.288 3.504-.609 5.241-.989z" style="" fill="#c75325" data-original="#c75325"></path><path d="M323.895 220.122s55.249 30.805 56.073 30.805c.824 0-2.748 20.882-2.748 20.882s-16.643 27.239-58.286 3.636c0 0-20.022 16.971-40.08 5.156-20.058-11.814 6.704-67.996 45.041-60.479z" style="" fill="#fd913e" data-original="#fd913e" class=""></path><path d="M334.745 227.172c-4.752-4.928-11.552-7.526-18.237-7.37-6.671.197-13.31 2.381-18.842 6.065-5.541 3.735-10.366 8.552-14.364 13.939-3.976 5.391-7.238 11.392-9.011 17.789-.89 3.182-1.425 6.481-1.209 9.724.242 3.22 1.2 6.398 3.146 8.935 1.953 2.515 4.663 4.457 7.753 5.586l2.298.903c.764.31 1.599.366 2.393.574.805.16 1.603.388 2.417.498l2.47.131c6.645.311 13.203-2.077 19.027-5.41 5.912-3.282 11.18-7.712 15.89-12.629-2.141 2.659-4.539 5.117-7.106 7.384-2.551 2.287-5.28 4.392-8.207 6.213-5.827 3.594-12.538 6.304-19.631 6.21l-2.642-.063c-.874-.089-1.736-.301-2.606-.448-.859-.195-1.756-.27-2.58-.586l-2.476-.939c-3.311-1.178-6.409-3.299-8.66-6.155-2.256-2.878-3.378-6.498-3.673-10.045-.27-3.575.27-7.117 1.188-10.496 1.949-6.75 5.394-12.899 9.552-18.426 4.202-5.486 9.148-10.502 15.087-14.169 5.937-3.679 12.831-5.726 19.799-5.702 6.94.208 13.845 3.19 18.224 8.487z" style="" fill="#c75325" data-original="#c75325"></path><path d="M385.315 256.372c-2.269 6.347-5.754 12.358-10.585 17.273a35.25 35.25 0 0 1-8.186 6.302c-3.045 1.666-6.344 2.858-9.727 3.599-6.801 1.426-13.848.98-20.452-.697-6.613-1.673-12.945-4.36-18.578-8.087 3.042 1.451 6.139 2.743 9.324 3.768 3.154 1.099 6.375 1.984 9.636 2.594 6.502 1.228 13.201 1.567 19.591.177 6.404-1.292 12.341-4.453 17.17-8.92 2.486-2.17 4.561-4.776 6.55-7.449 1.999-2.673 3.672-5.583 5.257-8.56z" style="" fill="#c75325" data-original="#c75325"></path><path d="M272.429 273.857c1.323-4.633 3.859-8.923 7.081-12.527 3.236-3.594 7.085-6.655 11.472-8.677-1.636 1.79-3.348 3.405-4.975 5.097a128.843 128.843 0 0 0-4.782 5.104c-1.571 1.714-3.032 3.519-4.485 5.348-1.458 1.829-2.769 3.771-4.311 5.655zM285.681 281.808c.427-2.14 1.276-4.16 2.301-6.069 1.022-1.918 2.299-3.695 3.716-5.355a25.843 25.843 0 0 1 4.878-4.36c1.777-1.271 3.809-2.189 5.892-2.769-1.65 1.435-3.285 2.702-4.768 4.165-1.484 1.445-2.946 2.892-4.274 4.475-2.743 3.099-5.18 6.434-7.745 9.913zM185.709 81.792c.237 4.284-.425 9.816-5.183 10.147-4.506.308-7.911-2.599-9.898-5.23a187.86 187.86 0 0 1 15.081-4.917z" style="" fill="#af312f" data-original="#af312f"></path><path d="M355.397 323.345c-10.336-1.314-20.898-.285-30.815 2.648-9.905 2.997-19.128 8.148-26.682 15.164-7.573 7.005-13.415 15.701-17.885 24.973-4.381 9.349-7.339 19.329-9.368 29.471l-.493 2.462-1.472-2.059c-3.972-5.556-8.421-10.884-13.313-15.652-2.441-2.392-5.022-4.636-7.801-6.554-2.771-1.895-5.794-3.495-8.964-4.054-1.578-.249-3.17-.194-4.643.267-1.48.451-2.976 1.255-3.946 2.313-2.072 2.145-1.169 5.663.371 8.54 3.205 5.894 8.003 11.022 12.573 16.171l6.931 7.762c2.271 2.588 4.622 5.29 6.424 8.342 3.608 6.083 5.799 12.728 8.691 18.97 2.841 6.231 6.77 12.103 12.564 15.896 5.217 4.254 12.796 6.181 19.923 6.706-6.878-.459-14.303-2.369-20.293-6.134-6.014-3.707-10.333-9.658-13.299-15.942-3.036-6.28-5.345-12.857-8.937-18.668-1.784-2.902-4.051-5.417-6.39-7.995l-7.05-7.633c-4.624-5.169-9.476-10.225-12.966-16.529-.811-1.612-1.557-3.31-1.797-5.248-.269-1.912.275-4.154 1.676-5.653 1.392-1.496 3.075-2.365 4.881-2.949 1.832-.586 3.791-.652 5.633-.368 3.694.637 6.938 2.381 9.879 4.356 2.939 2.007 5.623 4.312 8.14 6.76 5.006 4.942 9.451 10.325 13.507 16.065l-1.964.403c2.115-10.268 5.175-20.395 9.699-29.906 4.567-9.466 10.767-18.249 18.626-25.282 7.86-7.016 17.341-12.197 27.476-14.93 10.126-2.669 20.796-3.464 31.084-1.713z" style="" fill="#c75325" data-original="#c75325"></path><path d="M191.563 253.068c-5.107 6.752.329 15.086 7.942 15.874 6.152.636 13.487-4.365 12.635-11.09-.609-4.809-5.652-8.468-10.347-8.488-3.639-.016-7.883.602-10.23 3.704z" style="" fill="#fd913e" data-original="#fd913e" class=""></path><path d="M176.976 287.652c-.482 0-.933-.306-1.09-.789-.2-.602.128-1.251.731-1.45.298-.098 30.027-9.786 57.007-11.196a1.14 1.14 0 0 1 1.206 1.088 1.147 1.147 0 0 1-1.085 1.206c-26.668 1.394-56.117 10.986-56.411 11.084a1.14 1.14 0 0 1-.358.057zM170.877 301.329a1.148 1.148 0 0 1-.258-2.267 1518.818 1518.818 0 0 1 72.628-14.882 1.148 1.148 0 1 1 .404 2.26 1516.377 1516.377 0 0 0-72.516 14.859 1.1 1.1 0 0 1-.258.03zM163.809 313.589a1.148 1.148 0 0 1-.207-2.278c30.113-5.57 60.598-11.304 90.602-17.04a1.157 1.157 0 0 1 1.343.913 1.148 1.148 0 0 1-.913 1.343 15430.497 15430.497 0 0 1-90.616 17.042c-.068.014-.139.02-.209.02z" style="" fill="#af312f" data-original="#af312f"></path><path d="m344.204 65.643-13.015.414 12.124 2.503.413 12.583c-40.678 3.687-59.009-8.105-67.551-18.195-2.925-.253-5.81-1.786-7.758-3.966-3.513-3.931-2.224-9.933 1.108-13.568 2.002-2.183 5.18-2.755 7.989-2.167 1.373.287 2.773.771 3.836 1.695 1.68 1.461 2.449 3.778 2.594 3.834 15.672 6.077 34.971 4.672 51.011.981.442-.101 7.45-2.164 7.532-2.024l2.985 5.143c-12.859 5.121-25.143 4.799-25.143 4.799l24.555 1.17-.68 6.798zM233.847 53.647c-10.741-1.223-21.549-1.331-32.295-.803-10.739.612-21.47 1.652-32.012 3.79-10.544 2.036-21.041 4.511-31.178 8.119-2.528.91-5.154 1.568-7.627 2.631l-7.51 2.967c-2.54.913-4.929 2.162-7.391 3.258l-7.365 3.359.141-.297 1.217 7.567-1.759-7.459-.046-.195.187-.103c9.476-5.21 19.266-9.971 29.513-13.57 10.197-3.722 20.739-6.492 31.41-8.486 10.679-1.956 21.516-3.116 32.365-3.267 5.423-.099 10.848.043 16.255.376 5.396.477 10.798.999 16.095 2.113z" style="" fill="#fd913e" data-original="#fd913e" class=""></path><path d="M279.519 449.548c-16.8-8.905-16.523-28.151-27.369-40.84-8.778-10.241-20.155-21.013-23.46-29.034 3.431-1.867 8.905-3.204 16.498.732 11.704 6.053 39.729 52.216 34.331 69.142z" style="opacity:0.2;" fill="#af312f" data-original="#af312f"></path><path d="M245.659 382.269s1.868-5.837 11.44-1.401" style="" fill="#af312f" data-original="#af312f"></path><path d="M197.39 354.398c1.713-1.234 3.764-1.939 5.841-2.325a20.183 20.183 0 0 1 6.359-.158c2.098.344 4.192.846 6.087 1.804 1.927.867 3.671 2.092 5.182 3.531-2.013-.624-3.881-1.343-5.808-1.852-1.901-.57-3.835-.927-5.765-1.208-1.934-.301-3.892-.352-5.868-.341-1.979.04-3.968.203-6.028.549z" style="" fill="#c75325" data-original="#c75325"></path><path d="M203.532 359.663c.074-1.812.67-3.571 1.521-5.179.847-1.622 2.043-3.065 3.436-4.285 1.412-1.194 3.035-2.176 4.803-2.704 1.733-.616 3.599-.742 5.374-.554-1.651.761-3.227 1.347-4.664 2.199a21.722 21.722 0 0 0-4.017 2.799c-2.504 2.102-4.511 4.731-6.453 7.724z" style="" fill="#c75325" data-original="#c75325"></path><path d="M338.37 173.759c-1.74 1.11-3.632 1.968-5.499 2.825-4.969 2.321-9.939 4.843-14.252 8.274-3.582 2.876-6.458 5.524-11.301 5.953-2.749.252-5.776-.681-7.29-2.977-4.591-6.912 5.953-17.759 10.393-22.022 1.816-1.74 3.759-3.38 5.827-4.793 7.264 3.608 14.807 7.846 22.122 12.74zM373.887 208.595c-3.178 0-6.483-.303-9.636.025-3.985.429-7.744 1.917-11.604 2.901-3.859.984-8.097 1.413-11.73-.227-1.009-.454-2.018-1.135-2.447-2.144-.479-1.085-.227-2.346.202-3.456 1.614-4.112 5.499-6.912 9.384-9.031 3.405-1.842 7.593-3.859 11.932-5.398 5.272 5.272 10.015 11.049 13.899 17.33zM384.28 258.34s.025.051.051.177c-1.362 2.825-2.85 5.373-4.415 7.618-.126-.101-.227-.227-.328-.328-.404-.454-.807-.908-1.16-1.387-2.195-2.674-4.036-5.676-6.76-7.769-3.33-2.548-8.173-4.087-9.207-8.173-.555-2.144.278-4.339 1.816-5.978a8.594 8.594 0 0 1 4.213-2.548c5.726-1.488 11.503 1.438 16.573 4.086.201 4.59-.051 9.357-.783 14.302zM391.596 311.035c-.605.202-1.236.403-1.842.58-6.306 1.917-13.042 3.355-19.449 1.791-2.169-.53-4.288-1.413-5.878-2.951-1.589-1.564-2.573-3.859-2.169-6.029.605-3.33 3.986-5.323 7.139-6.534 3.078-1.185 6.306-2.043 9.485-2.926 3.759-1.009 7.542-2.018 11.326-3.052a273.063 273.063 0 0 1 1.388 19.121zM391.066 338.506a198.275 198.275 0 0 1-2.169 17.658 154.815 154.815 0 0 1-20.71-3.38c-3.153-.732-6.811-2.069-7.618-5.222-.732-2.926 1.513-5.777 4.061-7.391 7.693-4.869 17.481-2.977 26.436-1.665zM382.515 382.095c-2.119 6.281-4.641 12.512-7.669 18.591-12.537-3.708-31.734-14.883-17.254-22.097 6.785-3.355 17.557 1.009 24.923 3.506zM355.624 430.831c-5.247 6.357-10.469 11.251-15.665 14.959-.05-.025-.126-.076-.177-.101-6.256-3.986-10.897-10.872-11.074-18.289-.05-1.892.227-3.935 1.463-5.398 1.842-2.22 5.222-2.447 8.047-1.816 5.525 1.211 12.033 5.474 17.406 10.645z" style="" fill="#af312f" data-original="#af312f"></path><path d="M56.431 144.734 44.173 89.849 5.726 138.047l66.028-25.631-61.571-15.88z" style="" fill="#589eca" data-original="#5ed6b6" class="" opacity="1"></path><path d="M332.809 151.861a1.149 1.149 0 0 1-1-1.712l10.084-17.86-11.234-8.483a1.149 1.149 0 0 1 .8-2.06l15.566 1.454 5.012-8.877c.215-.383.608-.598 1.079-.582.439.03.825.31.989.721l3.888 9.763 15.715 1.466a1.15 1.15 0 0 1 .473 2.135l-11.963 7.003 5.774 14.497a1.148 1.148 0 0 1-1.76 1.341l-13.568-10.245-19.273 11.282a1.157 1.157 0 0 1-.582.157zm10.933-18.176-7.842 13.888 14.777-8.65-6.935-5.238zm11.066 5.48 9.528 7.195-4.124-10.357-5.404 3.162zm-9.927-7.497 7.942 5.998 6.527-3.821-2.973-7.465-8.086-.755-3.41 6.043zm14.065-5.048 2.411 6.051 8.584-5.024-10.995-1.027zm-23.677-2.211 7.763 5.863 2.756-4.881-10.519-.982zm14.261-.974 5.895.551-2.568-6.446-3.327 5.895zM276.347 63.324c-.657-1.432-.86-3.023-.796-4.599.057-1.585.479-3.168 1.183-4.634.72-1.457 1.788-2.769 3.116-3.695 1.277-.994 2.844-1.513 4.375-1.703-1.163 1.074-2.29 1.943-3.175 3.034-.909 1.044-1.692 2.152-2.263 3.389-1.237 2.433-1.862 5.17-2.44 8.208z" style="" fill="#af312f" data-original="#af312f"></path><path d="M266.432 50.808c1.455 1.692 2.993 3.161 4.72 4.404a24.891 24.891 0 0 0 2.689 1.719c.93.546 1.927.959 2.933 1.47-2.243-.075-4.461-.93-6.3-2.264-.917-.674-1.754-1.462-2.438-2.368-.689-.894-1.286-1.874-1.604-2.961zM268.791 45.968c1.125-.291 2.296-.308 3.456-.205 1.165.097 2.312.409 3.405.867a8.834 8.834 0 0 1 2.902 2.04c.836.853 1.388 1.937 1.713 3.034-.753-.884-1.432-1.741-2.313-2.386-.869-.639-1.765-1.226-2.765-1.639-1.981-.87-4.132-1.344-6.398-1.711zM277.155 59.902c4.311 4.024 9.414 7.063 14.698 9.538 5.314 2.448 10.914 4.231 16.646 5.381 5.748 1.059 11.594 1.635 17.458 1.543 1.467.069 2.93-.028 4.393-.134l4.396-.276c2.922-.279 5.832-.721 8.761-1.075-2.892.538-5.781 1.166-8.697 1.633l-4.41.441c-1.471.159-2.943.309-4.425.293l-4.441.064c-1.481.02-2.956-.177-4.435-.255-2.968-.11-5.885-.689-8.822-1.11-5.797-1.259-11.497-3.058-16.806-5.714-5.291-2.646-10.295-5.998-14.316-10.329zM279.634 53.797c2.481 1.238 5.092 2.175 7.725 3.002 2.619.874 5.294 1.567 7.981 2.185a122.445 122.445 0 0 0 16.333 2.55c5.491.547 11.016.673 16.539.617 5.526-.063 11.046-.431 16.575-.877l-8.242 1.154c-2.767.199-5.531.517-8.308.606a132.15 132.15 0 0 1-16.67-.357c-5.531-.586-11.052-1.419-16.438-2.838-5.367-1.435-10.682-3.263-15.495-6.042z" style="opacity:0.48;" fill="#af312f" data-original="#af312f"></path><path d="m54.304 338.505-6.497-23.492 14.931 16.985 15.689-6.008-7.375 13.34 14.972 12.415-20.07-4.082-10.794 21.129.164-18.987-18.433.399z" style="" fill="#fd913e" data-original="#fd913e" class=""></path><path d="m41.778 283.14-8.374-9.646 10.895 4.665 6.066-6.381-.479 7.974 9.884 2.495-10.415 2.597-.338 12.429-4.207-9.018-8.629 4.348z" style="" fill="#fb5555" data-original="#fb5555"></path></g></svg>