<svg xmlns="http://www.w3.org/2000/svg" version="1.1" xmlns:xlink="http://www.w3.org/1999/xlink" xmlns:svgjs="http://svgjs.com/svgjs" width="512" height="512" x="0" y="0" viewBox="0 0 512 512" style="enable-background:new 0 0 512 512" xml:space="preserve" class=""><g><path d="M478.21 248.762a2.554 2.554 0 0 1-2.405-3.41c.277-.774.543-1.554.795-2.341.434-1.341 1.879-2.084 3.212-1.646a2.552 2.552 0 0 1 1.647 3.211 95.565 95.565 0 0 1-.845 2.488 2.553 2.553 0 0 1-2.404 1.698zm3.364-12.296a2.553 2.553 0 0 1-2.507-3.04c.157-.806.301-1.618.439-2.437a2.552 2.552 0 1 1 5.034.832 83.62 83.62 0 0 1-.463 2.582 2.553 2.553 0 0 1-2.503 2.063zm1.543-12.652a2.553 2.553 0 0 1-2.552-2.687c.045-.82.08-1.647.1-2.482.037-1.41 1.331-2.539 2.619-2.484a2.554 2.554 0 0 1 2.485 2.618c-.025.88-.06 1.752-.105 2.619a2.554 2.554 0 0 1-2.547 2.416zm-.14-12.75a2.55 2.55 0 0 1-2.542-2.371c-.06-.823-.127-1.652-.207-2.486a2.554 2.554 0 0 1 2.305-2.779 2.558 2.558 0 0 1 2.779 2.303c.08.874.152 1.74.212 2.601a2.55 2.55 0 0 1-2.547 2.732zm-1.592-12.654a2.554 2.554 0 0 1-2.51-2.1c-.147-.816-.301-1.637-.463-2.462a2.55 2.55 0 1 1 5.004-.994c.172.855.332 1.706.484 2.552a2.554 2.554 0 0 1-2.515 3.004zm-2.826-12.435a2.555 2.555 0 0 1-2.457-1.87c-.224-.807-.456-1.604-.695-2.391a2.551 2.551 0 0 1 1.702-3.182 2.547 2.547 0 0 1 3.182 1.702c.249.825.496 1.661.73 2.506a2.55 2.55 0 0 1-2.462 3.235zm-4.155-12.046a2.547 2.547 0 0 1-2.352-1.566c-.324-.77-.653-1.53-.992-2.28a2.553 2.553 0 0 1 4.655-2.094c.354.79.703 1.59 1.042 2.4a2.55 2.55 0 0 1-2.353 3.54zm-5.722-11.385c-.87 0-1.715-.444-2.193-1.242a78.19 78.19 0 0 0-1.301-2.101 2.552 2.552 0 0 1 .77-3.525 2.549 2.549 0 0 1 3.526.771c.471.734.932 1.479 1.386 2.236a2.551 2.551 0 0 1-2.188 3.861zm-7.376-10.385c-.73 0-1.453-.31-1.959-.914a83.636 83.636 0 0 0-1.617-1.868 2.549 2.549 0 0 1 .207-3.604 2.548 2.548 0 0 1 3.601.207c.58.652 1.156 1.312 1.722 1.986a2.554 2.554 0 0 1-1.954 4.193zm-8.967-9.059a2.55 2.55 0 0 1-1.662-.614 67.8 67.8 0 0 0-1.901-1.575 2.555 2.555 0 0 1-.399-3.588 2.558 2.558 0 0 1 3.589-.4 77.778 77.778 0 0 1 2.036 1.687 2.554 2.554 0 0 1-1.663 4.49zm-10.308-7.499c-.456 0-.917-.122-1.336-.379-.7-.431-1.408-.851-2.124-1.262a2.553 2.553 0 0 1 2.542-4.426c.76.436 1.513.883 2.258 1.342a2.554 2.554 0 0 1 .835 3.511 2.545 2.545 0 0 1-2.175 1.214zm-11.304-5.871c-.339 0-.683-.069-1.014-.213a105 105 0 0 0-2.288-.96 2.55 2.55 0 1 1 1.914-4.73c.807.326 1.61.663 2.407 1.008a2.55 2.55 0 0 1 1.324 3.358 2.55 2.55 0 0 1-2.343 1.537zm-11.975-4.344a2.55 2.55 0 0 1-.727-.107 113.18 113.18 0 0 0-2.395-.683 2.552 2.552 0 0 1-1.792-3.134 2.56 2.56 0 0 1 3.133-1.791c.842.229 1.68.468 2.51.715a2.554 2.554 0 0 1-.729 5zm-12.395-2.988c-.157 0-.316-.014-.479-.045-.817-.154-1.637-.303-2.462-.442a2.553 2.553 0 0 1 .852-5.032c.855.145 1.71.298 2.562.46a2.552 2.552 0 0 1-.473 5.059zM98.155 368.678a2.552 2.552 0 0 1-.095-5.102c.825-.032 1.655-.074 2.487-.125a2.53 2.53 0 0 1 2.704 2.39 2.551 2.551 0 0 1-2.39 2.704c-.873.054-1.742.097-2.607.13-.032.003-.064.003-.099.003zm-10.195-.081c-.05 0-.097-.001-.147-.004-.872-.05-1.742-.108-2.604-.177a2.553 2.553 0 0 1-2.343-2.748c.112-1.404 1.371-2.436 2.746-2.341.827.066 1.657.122 2.49.17a2.55 2.55 0 0 1 2.402 2.694 2.55 2.55 0 0 1-2.544 2.406zm22.892-1.112a2.552 2.552 0 0 1-.374-5.076c.822-.122 1.645-.253 2.472-.391 1.381-.251 2.704.703 2.941 2.091a2.552 2.552 0 0 1-2.093 2.941c-.857.146-1.715.281-2.567.408a2.705 2.705 0 0 1-.379.027zm-35.555-.397c-.155 0-.314-.014-.471-.044a95.857 95.857 0 0 1-2.572-.516 2.551 2.551 0 0 1-1.956-3.032 2.547 2.547 0 0 1 3.033-1.958c.805.173 1.615.335 2.432.489a2.554 2.554 0 0 1 2.041 2.977 2.554 2.554 0 0 1-2.507 2.084zm-12.336-3.209c-.271 0-.548-.045-.82-.136a82.407 82.407 0 0 1-2.48-.885 2.55 2.55 0 1 1 1.79-4.779c.768.286 1.543.563 2.33.83a2.553 2.553 0 0 1-.82 4.97zm-11.71-5.037c-.404 0-.812-.096-1.196-.299a77.094 77.094 0 0 1-2.308-1.279 2.55 2.55 0 1 1 2.547-4.421c.71.408 1.431.807 2.158 1.193a2.55 2.55 0 0 1 1.054 3.451 2.547 2.547 0 0 1-2.255 1.355zm-10.672-6.95a2.537 2.537 0 0 1-1.577-.547 66.843 66.843 0 0 1-2.051-1.688 2.552 2.552 0 0 1 3.32-3.877c.618.53 1.249 1.048 1.892 1.555a2.554 2.554 0 0 1-1.584 4.557zm-9.156-8.847a2.54 2.54 0 0 1-1.951-.906 60.699 60.699 0 0 1-1.67-2.064 2.55 2.55 0 0 1 .459-3.58 2.55 2.55 0 0 1 3.579.457 58.905 58.905 0 0 0 1.53 1.895 2.55 2.55 0 0 1-1.947 4.198zm-7.122-10.539a2.552 2.552 0 0 1-2.258-1.357 59.622 59.622 0 0 1-1.196-2.385 2.552 2.552 0 0 1 4.61-2.191c.351.738.715 1.467 1.097 2.186a2.551 2.551 0 0 1-2.253 3.747zm-4.71-11.83a2.556 2.556 0 0 1-2.457-1.869 66.355 66.355 0 0 1-.658-2.574 2.55 2.55 0 0 1 1.904-3.066 2.548 2.548 0 0 1 3.065 1.904c.187.797.389 1.586.608 2.367a2.555 2.555 0 0 1-2.462 3.238zm-2.141-12.55a2.55 2.55 0 0 1-2.542-2.371 67.544 67.544 0 0 1-.135-2.645 2.549 2.549 0 0 1 2.467-2.633 2.55 2.55 0 0 1 2.632 2.468c.028.824.068 1.638.125 2.448a2.551 2.551 0 0 1-2.547 2.733zm.276-12.737a2.55 2.55 0 0 1-2.539-2.823c.092-.867.199-1.74.324-2.617a2.53 2.53 0 0 1 2.883-2.172 2.55 2.55 0 0 1 2.171 2.882 76.45 76.45 0 0 0-.304 2.449 2.552 2.552 0 0 1-2.535 2.281zm2.348-12.528a2.552 2.552 0 0 1-2.469-3.203c.219-.837.456-1.681.703-2.528a2.549 2.549 0 0 1 3.168-1.73 2.552 2.552 0 0 1 1.732 3.167c-.237.8-.459 1.596-.668 2.389a2.554 2.554 0 0 1-2.466 1.905zm3.968-12.118a2.552 2.552 0 0 1-2.422-3.358c.259-.779.504-1.56.733-2.343a2.547 2.547 0 0 1 3.163-1.737 2.551 2.551 0 0 1 1.737 3.163 67.48 67.48 0 0 1-.787 2.527 2.56 2.56 0 0 1-2.424 1.748zm2.893-12.408a2.552 2.552 0 0 1-2.53-2.903 81.5 81.5 0 0 0 .299-2.451 2.535 2.535 0 0 1 2.806-2.269 2.552 2.552 0 0 1 2.268 2.807 77.062 77.062 0 0 1-.319 2.615 2.553 2.553 0 0 1-2.524 2.201zm.723-12.726a2.554 2.554 0 0 1-2.552-2.5 93.436 93.436 0 0 0-.085-2.483 2.553 2.553 0 0 1 2.43-2.669c1.423-.041 2.604 1.023 2.669 2.43.04.872.072 1.745.09 2.618a2.554 2.554 0 0 1-2.5 2.604h-.052zm-1.104-12.705a2.554 2.554 0 0 1-2.522-2.178c-.122-.823-.254-1.646-.394-2.467a2.553 2.553 0 0 1 5.034-.852c.145.856.282 1.714.409 2.572a2.55 2.55 0 0 1-2.527 2.925zm-2.51-12.505a2.552 2.552 0 0 1-2.475-1.939 169.07 169.07 0 0 0-.623-2.426 2.552 2.552 0 1 1 4.93-1.316c.224.838.439 1.676.648 2.516a2.552 2.552 0 0 1-2.48 3.165zM20.47 208.11a2.493 2.493 0 0 1-2.347-1.611 201.183 201.183 0 0 0-.84-2.496 2.553 2.553 0 0 1 4.825-1.663c.274.792.538 1.585.8 2.376.434 1.317-.252 2.778-1.56 3.241a2.615 2.615 0 0 1-.878.153zm-4.358-11.943a2.556 2.556 0 0 1-2.373-1.611l-.944-2.36a2.554 2.554 0 0 1 4.735-1.909l.954 2.385a2.553 2.553 0 0 1-2.372 3.495zm-4.763-11.846a2.555 2.555 0 0 1-2.372-1.611l-.94-2.399a2.551 2.551 0 0 1 4.76-1.839l.925 2.354a2.553 2.553 0 0 1-2.373 3.495zM6.965 172.34a2.557 2.557 0 0 1-2.425-1.754 126.11 126.11 0 0 1-.785-2.49 2.554 2.554 0 0 1 4.885-1.483c.239.792.489 1.585.75 2.375a2.552 2.552 0 0 1-2.425 3.352zm-3.232-12.332a2.55 2.55 0 0 1-2.504-2.081 81.805 81.805 0 0 1-.446-2.596 2.552 2.552 0 0 1 2.133-2.911 2.558 2.558 0 0 1 2.911 2.133c.125.812.264 1.622.416 2.431a2.549 2.549 0 0 1-2.51 3.024zm-1.181-12.7h-.02A2.534 2.534 0 0 1 0 144.777c.013-.979.052-1.868.122-2.747.11-1.404 1.363-2.448 2.744-2.345a2.553 2.553 0 0 1 2.345 2.744c-.06.773-.095 1.554-.107 2.344-.02 1.395-1.159 2.535-2.552 2.535zm62.428-11.189a2.54 2.54 0 0 1-1.097-.249 13.71 13.71 0 0 1-2.647-1.666 2.551 2.551 0 1 1 3.185-3.987 8.656 8.656 0 0 0 1.66 1.048 2.55 2.55 0 0 1-1.101 4.854zm9.871-.215a2.55 2.55 0 0 1-1.139-4.837 6.306 6.306 0 0 0 1.498-1.022 2.552 2.552 0 0 1 3.469 3.743 11.43 11.43 0 0 1-2.694 1.849 2.538 2.538 0 0 1-1.134.267zm-69.912-1.033a2.553 2.553 0 0 1-2.376-3.486c.337-.855.708-1.694 1.107-2.517a2.553 2.553 0 0 1 4.591 2.236c-.344.701-.66 1.418-.947 2.148a2.554 2.554 0 0 1-2.375 1.619zm52.452-8.582a2.554 2.554 0 0 1-2.425-1.754 31.674 31.674 0 0 1-.75-2.67 2.553 2.553 0 0 1 4.97-1.167c.182.774.394 1.522.631 2.239a2.552 2.552 0 0 1-2.426 3.352zm135.522-.716a2.555 2.555 0 0 1-2.32-1.487c-.01-.025-.381-.827-1.089-2.235a2.552 2.552 0 1 1 4.556-2.298 81.87 81.87 0 0 1 1.174 2.404 2.553 2.553 0 0 1-2.321 3.616zm-113.511-.528a2.552 2.552 0 0 1-2.492-2.011 12.914 12.914 0 0 0-.625-2.035 2.556 2.556 0 0 1 1.431-3.315 2.558 2.558 0 0 1 3.314 1.431c.371.94.665 1.894.87 2.837a2.553 2.553 0 0 1-2.498 3.093zm-67.629-.849a2.55 2.55 0 0 1-1.844-4.315 37.526 37.526 0 0 1 1.956-1.909 2.552 2.552 0 0 1 3.429 3.781 33.985 33.985 0 0 0-1.697 1.654 2.54 2.54 0 0 1-1.844.789zm10.237-7.516a2.553 2.553 0 0 1-1.193-4.809 107.34 107.34 0 0 1 2.325-1.192 2.548 2.548 0 0 1 3.422 1.15 2.552 2.552 0 0 1-1.149 3.421 99.2 99.2 0 0 0-2.215 1.135c-.38.2-.788.295-1.19.295zm50.573-2.145a2.544 2.544 0 0 1-1.625-.586 22.998 22.998 0 0 0-1.839-1.371 2.552 2.552 0 0 1 2.841-4.239 28.032 28.032 0 0 1 2.253 1.677 2.553 2.553 0 0 1-1.63 4.519zm114.274-.259a2.555 2.555 0 0 1-2.201-1.255c-.411-.699-.845-1.422-1.296-2.163a2.551 2.551 0 1 1 4.356-2.657c.466.764.91 1.507 1.336 2.226a2.552 2.552 0 0 1-2.195 3.849zm-131.028-.582a2.55 2.55 0 0 1-2.552-2.658c.037-.885.1-1.783.189-2.69.134-1.373 1.276-2.391 2.704-2.296a2.55 2.55 0 0 1 2.968-2.638c.925.153 1.819.338 2.686.548a2.553 2.553 0 0 1 1.874 3.084c-.334 1.372-1.725 2.197-3.085 1.875a31.821 31.821 0 0 0-2.059-.43 2.39 2.39 0 0 1-.01.358c-.08.81-.137 1.611-.169 2.401a2.55 2.55 0 0 1-2.546 2.446zm-22.17-2.19a2.55 2.55 0 0 1-2.402-1.696 2.55 2.55 0 0 1 1.545-3.261c.848-.302 1.68-.582 2.505-.842a2.542 2.542 0 0 1 3.202 1.662 2.55 2.55 0 0 1-1.662 3.202c-.765.243-1.543.503-2.33.785-.285.101-.574.15-.858.15zm12.348-3.091a2.553 2.553 0 0 1-.341-5.08 52.222 52.222 0 0 1 2.667-.295 2.552 2.552 0 0 1 .428 5.086c-.787.066-1.59.155-2.407.266a2.549 2.549 0 0 1-.347.023zm133.97-4.91c-.81 0-1.605-.384-2.101-1.098-.471-.682-.955-1.371-1.451-2.063a2.553 2.553 0 0 1 4.157-2.963 245.1 245.1 0 0 1 1.49 2.119 2.551 2.551 0 0 1-2.095 4.005zm-121.911-2.334a2.551 2.551 0 0 1-2.432-3.324c.264-.84.551-1.682.862-2.526a2.557 2.557 0 0 1 3.277-1.514 2.553 2.553 0 0 1 1.513 3.276 55.452 55.452 0 0 0-.787 2.304 2.551 2.551 0 0 1-2.433 1.784zm114.237-7.881c-.74 0-1.473-.319-1.976-.935a165.831 165.831 0 0 0-1.607-1.93 2.55 2.55 0 0 1 .297-3.596 2.55 2.55 0 0 1 3.596.297c.563.664 1.119 1.331 1.662 1.995a2.55 2.55 0 0 1-1.972 4.169zM63.315 89.57a2.55 2.55 0 0 1-2.18-3.871 56.77 56.77 0 0 1 1.435-2.255 2.552 2.552 0 0 1 4.236 2.845c-.456.679-.89 1.363-1.306 2.05a2.545 2.545 0 0 1-2.185 1.231zm100.453-5.783a2.546 2.546 0 0 1-1.809-.752 105.266 105.266 0 0 0-1.78-1.752 2.552 2.552 0 0 1 3.538-3.678c.628.606 1.248 1.216 1.859 1.832.994 1 .989 2.615-.01 3.61a2.544 2.544 0 0 1-1.798.74zm-92.65-4.277a2.552 2.552 0 0 1-1.824-4.335 60.93 60.93 0 0 1 1.899-1.863 2.553 2.553 0 0 1 3.494 3.723 57.556 57.556 0 0 0-1.745 1.706 2.537 2.537 0 0 1-1.824.769zm83.145-4.237a2.531 2.531 0 0 1-1.575-.547 91.76 91.76 0 0 0-1.974-1.509 2.553 2.553 0 0 1 3.05-4.095 94.46 94.46 0 0 1 2.078 1.594 2.553 2.553 0 0 1-1.579 4.557zm-73.311-3.846c-.83 0-1.642-.402-2.133-1.146a2.555 2.555 0 0 1 .725-3.537c.733-.482 1.48-.953 2.245-1.415a2.556 2.556 0 0 1 3.504.867 2.553 2.553 0 0 1-.868 3.504 58.8 58.8 0 0 0-2.071 1.306 2.544 2.544 0 0 1-1.402.421zm62.734-3.275c-.421 0-.85-.105-1.246-.325a67.276 67.276 0 0 0-2.166-1.162 2.551 2.551 0 1 1 2.333-4.54c.782.401 1.56.819 2.33 1.25a2.552 2.552 0 0 1-1.251 4.777zm-51.472-2.664a2.554 2.554 0 0 1-.979-4.911 76.133 76.133 0 0 1 2.457-.968 2.55 2.55 0 1 1 1.789 4.779 68.05 68.05 0 0 0-2.288.904 2.572 2.572 0 0 1-.979.196zm39.824-2.468c-.259 0-.523-.04-.783-.125a55.7 55.7 0 0 0-2.332-.695 2.55 2.55 0 0 1-1.789-3.134c.374-1.362 1.792-2.164 3.135-1.788.857.234 1.71.488 2.552.76a2.552 2.552 0 0 1-.783 4.982zm-27.687-1.397a2.552 2.552 0 0 1-.538-5.047 61.817 61.817 0 0 1 2.619-.505 2.548 2.548 0 0 1 2.943 2.088 2.554 2.554 0 0 1-2.091 2.944c-.793.134-1.588.288-2.39.462a2.592 2.592 0 0 1-.543.058zm15.219-1.078c-.065 0-.13-.003-.194-.008-.8-.06-1.61-.102-2.422-.124a2.552 2.552 0 0 1-2.484-2.618c.037-1.409 1.326-2.552 2.619-2.483.897.024 1.787.069 2.671.136a2.553 2.553 0 0 1-.19 5.097z" style="" fill="#589eca" data-original="#5ed6b6" class="" opacity="1"></path><path d="M381.451 216.677c-.877-6.202-2.464-12.863-4.97-19.984-2.561-7.255-6.102-14.983-10.806-23.164 4.381-4.991 10.866-14.151 13.994-27.319.189-.82.382-1.682.555-2.546.364-1.915.67-3.878.882-5.934l.026-.249c.166-1.62.276-3.309.308-5.049.018-.376.033-.731.03-1.109.016-.355.012-.733.007-1.091a93.725 93.725 0 0 0-.58-9.904 31.427 31.427 0 0 0-.24-1.956c-.211-1.428-.444-2.837-.762-4.235a2.747 2.747 0 0 0-.064-.405c-.598-2.769-1.361-5.556-2.362-8.282-.246-.676-.491-1.352-.757-2.03-3.967-9.622-10.849-18.662-22.363-25.93.075-.118.173-.255.227-.375 3.681-6.214 5.947-17.254 4.993-23.712-.257-1.79-.761-3.227-1.552-4.105a2.782 2.782 0 0 0-1.056-.759c-6.381-2.67-12.751-.111-17.44 4.257-3.203 2.988-5.813 6.94-9.321 9.624-.27.182-2.573 1.961-4.309 3.127l-.404.253-.002.021a147.03 147.03 0 0 0-7.821-1.726 69.014 69.014 0 0 0-3.049-.565l-.887-.154c-9.284-1.582-18.031-2.668-26.214-3.319a233.77 233.77 0 0 0-5.588-.363l-.021-.002c-4.49-.229-8.762-.332-12.884-.251-.438-.024-.881-.006-1.301-.007-3.302.06-6.448.241-9.497.496-.01-.107.003-.231.013-.335.072-6.017-2.053-12.113-4.784-16.801-2.754-4.67-6.093-7.93-8.492-8.281-5.295-.774-9.586 10.164-14.558 18.323-4.897 8.042-17.824 24.58-17.824 24.58a39.52 39.52 0 0 0-6.513 8.862c-.436.774-.812 1.575-1.188 2.376-.188.4-.353.782-.519 1.164-.278.664-.533 1.31-.788 1.955-.163.361-.284.727-.45 1.109a88.115 88.115 0 0 0-2.429 7.194c-4.021 1.026-8.029 2.106-12.002 3.298a313.121 313.121 0 0 0-9.481 3.028 287.096 287.096 0 0 0-24.578 9.522l-2.38 1.065s-5.408 1.984-13.553 6.557a149.994 149.994 0 0 0-26.75 19.128 140.686 140.686 0 0 0-13.072 13.26 133.676 133.676 0 0 0-16.79 24.349c-5.137 9.501-9.418 20.277-12.32 32.409-.25.877-.46 1.775-.647 2.673a141.824 141.824 0 0 0-1.608 8.374c-.981 6.119-1.733 12.175-2.193 18.126-.125 1.253-.209 2.506-.292 3.738-.731 11.109-.606 21.822.418 32.054.626 6.432 1.587 12.655 2.882 18.669 1.691 7.852 3.968 15.328 6.787 22.365a116.659 116.659 0 0 0 8.666 17.332c14.555 23.827 37.212 40.365 67.471 46.212 66.865 12.926 213.563-106.228 213.563-106.228s3.675-3.467 7.643-10.17c2.986-5.033 6.139-11.882 8.04-20.464 1.791-8.064 2.501-17.649.956-28.696z" style="" fill="#fd913e" data-original="#fd913e"></path><path d="M419.514 384.213c-48.301 71.543-137.505 44.107-137.505 44.107l-2.13-8.52c55.296 7.977 136.11-6.912 138.24-92.508.961-39.008-18.146-63.482-38.653-78.391 1.274-4.72 2.317-9.962 2.463-14.597 53.753 32.032 70.412 101.316 37.585 149.909z" style="" fill="#a1312f" data-original="#a1312f"></path><path d="m289.675 412.492.697 26.305 36.159 21.001s-17.579 18.248-46.371 17.722c-12.771-.234-28.65-5.907-44.304-16.836l35.206-20.073.792-30.494 17.821 2.375z" style="" fill="#a1312f" data-original="#a1312f"></path><path d="M148.55 251.145c1.552-.388 57.885-56.848 130.031-44.048 72.145 12.8 22.885 106.667 22.885 106.667l-119.467-8.146-33.449-54.473z" style="" fill="#fdbd87" data-original="#fdbd87"></path><path d="M385.418 320.629c0 24.265-8.29 46.589-22.219 64.296-19.066 24.265-48.677 39.844-81.921 39.844-14.367 0-28.066-2.902-40.511-8.165-14.325-6.056-27.022-15.244-37.233-26.687-16.434-18.397-26.416-42.683-26.416-69.288 0-57.53 46.63-104.14 104.16-104.14 7.768 0 15.327.856 22.615 2.485 0 0 0-.021.021 0 21.529 4.761 40.553 16.184 54.795 32.013 15.87 17.625 25.789 40.679 26.646 66.03a103.6 103.6 0 0 1 .063 3.612z" style="" fill="#589eca" data-original="#5ed6b6" class="" opacity="1"></path><path d="M385.418 320.629c0 24.265-8.29 46.589-22.219 64.296a12.167 12.167 0 0 1-1.566-.626c-3.675-1.754-6.494-5.075-10.316-6.494-5.784-2.151-13.219.209-17.75-3.968-2.109-1.942-3.028-4.907-4.97-6.995-4.427-4.782-12.279-3.571-18.23-.94-2.506 1.107-5.409 2.402-7.852 1.149-3.425-1.775-2.882-6.891-1.211-10.378 5.074-10.566 16.225-17.98 27.961-18.523 4.699-.23 9.418.585 14.137.647 4.719.063 9.69-.689 13.406-3.613 3.884-3.049 5.784-7.935 8.959-11.715 4.845-5.743 12.487-7.872 19.587-6.453.043 1.212.064 2.402.064 3.613zM267.83 376.301c-2.631 7.288-10.378 12.3-11.485 19.984-.543 3.759.626 7.706-.564 11.319-1.044 3.195-3.822 5.575-6.891 6.933-2.569 1.148-5.325 1.65-8.123 2.067-14.325-6.056-27.022-15.244-37.233-26.687a16.23 16.23 0 0 1 1.921-1.692c7.434-5.638 17.082-7.184 26.333-8.332 3.299-.397 6.661-.773 9.689-2.109 2.443-1.086 4.594-2.715 6.87-4.135a39.6 39.6 0 0 1 11.276-4.699c2.861-.689 6.494-.751 8.102 1.712 1.045 1.63.774 3.802.105 5.639zM358.71 250.987c-.501 4.699-1.963 9.314-4.824 13.03-3.299 4.239-8.165 6.996-13.135 9.063-13.323 5.575-28.651 6.995-42.287 2.234-4.845-1.712-9.418-4.155-14.304-5.722-7.142-2.297-14.91-2.631-22.24-1.002-5.492 1.232-10.713 3.529-16.225 4.615-2.777.564-5.701.773-8.395-.063-2.694-.835-5.158-2.882-5.826-5.638-.814-3.258 1.023-6.661 3.383-9.063 6.703-6.85 17.019-8.269 26.52-9.522 9.501-1.253 19.88-3.216 25.936-10.671 2.861-3.529 4.427-7.977 7.121-11.652 2.422-3.299 5.722-5.847 9.46-7.622 0 0 0-.021.021 0 21.529 4.762 40.553 16.184 54.795 32.013z" style="" fill="#95c5e3" data-original="#91e6dd" class="" opacity="1"></path><path d="M261.753 231.26c-1.393-.646-2.509 1.293-1.253 2.175 20.405 14.325 86.397 60.276 89.816 57.844.426-.303 2.898-2.422 1.627-3.723-8.973-9.184-69.171-46.543-90.19-56.296zM241.836 60.545c5.154-2.971 4.37 1.075 9.017.232 4.88-.876 8.452-.947 8.64-.963.119-12.045-8.48-24.391-13.27-25.095l-.013-.003c-1.247 2.534-2.717 5.571-2.204 12.894.056.72.06 1.415.04 2.091-.246 10.019-.96 10.181-2.21 10.844zM343.468 69.178s.841 3.072 6.497 5.722c1.738.804 3.366 1.584 4.618 2.212 3.665-6.214 5.931-17.253 4.986-23.706-.259-1.799-.769-3.228-1.555-4.108 0 0-2.657.681-5.611 6.171-1.075 2.004-2.048 3.931-3.11 5.683-2.518 4.142.55 7.249-5.825 8.026z" style="" fill="#a1312f" data-original="#a1312f"></path><path d="M263.09 165.671c3.4 3.155 3.193 8.585-1.531 10.644-6.327 2.757-17.182.493-21.668-4.842-3.788-4.504-.081-11.152 4.845-11.715 4.163-.476 8.363.509 12.128 2.179 1.749.777 4.32 1.967 6.226 3.734zM337.844 163.013c-4.023 2.523-4.853 8.024-.494 10.998 5.835 3.982 17.186 3.78 22.718-.728 4.67-3.806 2.213-11.2-2.635-12.708-4.096-1.275-8.508-1.087-12.613-.127-1.908.446-4.722 1.152-6.976 2.565z" style="opacity:0.48;" fill="#fb5555" data-original="#fb5555"></path><path d="M287.519 60.061c4.869 5.61 7.988 13.586 10.512 19.62 1.39 3.307 2.607 6.689 3.705 10.102.829 2.561 2.597 5.241 5.361 6.015 3.473.97 6.947-.865 9.127-3.521 2.735-3.314 3.404-7.617 3.338-11.797-.098-5.915-1.949-11.787-4.943-16.96l-.888-.151c-9.291-1.572-18.034-2.671-26.212-3.308zM369.882 133.437c3.706 1.134 7.818.402 11.567-1.005.009-.366.018-.733.017-1.116.006-.353.015-.719.01-1.089-.022-3.277-.193-6.587-.575-9.901-8.207 5.606-17.963 10.973-11.019 13.111zM369.949 143.454c2.296 1.818 6.076 2.544 9.713 2.756.197-.835.382-1.688.557-2.556a64.35 64.35 0 0 0 .882-5.928c.004-.084.019-.152.023-.236-7.679 1.046-15.221 2.758-11.175 5.964zM373.103 116.458c2.143-.015 4.521-.983 6.799-2.328a4.085 4.085 0 0 0-.07-.397 62.727 62.727 0 0 0-2.359-8.279c-5.079 5.423-9.336 11.04-4.37 11.004zM269.013 59.425c1.251 1.733 2.657 3.668 3.658 5.119 3.162 4.6 6.29 10.85 9.064 11.838 5.796 2.072 8.941-3.447 5.81-9.882-1.428-2.933-3.64-5.2-5.627-6.81l-.014-.003a186.13 186.13 0 0 0-12.891-.262zM317.669 64.088c2.591 4.362 5.082 11.451 8.095 12.901 4.54 2.18 8.688-1.052 6.981-3.946-1.653-2.812-3.691-5.098-5.502-6.797a153.252 153.252 0 0 0-9.574-2.158z" style="" fill="#a1312f" data-original="#a1312f"></path><path d="M242.03 154.05c5.694 5.138 15.336 7.893 22.829 6.084a15.302 15.302 0 0 0 4.534-1.886c6.114-3.867 10.308-11.537 11.293-18.647.036-.162.058-.327.079-.493.861-7.194-2.375-14.247-8.171-18.529-6.785-5.008-17.515-7.844-25.074-3.004-2.982 1.914-5.522 4.789-7.418 8.157l-.014-.003c-5.085 8.965-5.679 21.431 1.942 28.321z" style="" fill="#ffffff" data-original="#ffffff" class=""></path><path d="M237.7 147.824c-.946-2.37-1.447-4.914-1.533-7.471-.08-2.559.204-5.129.787-7.633a30.05 30.05 0 0 1 2.726-7.221l.157-.293.35.066.014.003-.508.228c1.19-2.225 2.669-4.318 4.487-6.121 1.795-1.8 3.983-3.337 6.467-4.197 4.97-1.772 10.435-1.191 15.246.536a30.492 30.492 0 0 1 6.853 3.549c2.166 1.454 4.033 3.377 5.52 5.528 3 4.335 4.266 9.726 3.385 15.013l.013-.075a30.005 30.005 0 0 1-5.062 12.222c-1.282 1.802-2.773 3.459-4.474 4.874-1.685 1.417-3.638 2.587-5.757 3.229-2.115.648-4.319.865-6.492.81a27.721 27.721 0 0 1-6.433-.913c-4.171-1.121-8.194-3.007-11.416-5.908-1.905-1.695-3.379-3.859-4.33-6.226zm15.79 11.953c4.174.966 8.653 1.048 12.655-.38 1.994-.714 3.765-1.899 5.315-3.335 1.554-1.427 2.896-3.076 4.032-4.851a28.353 28.353 0 0 0 4.216-11.746l.013-.076c.081-.468.094-1.128.142-1.689-.012-.589.025-1.176-.036-1.762-.054-1.174-.269-2.334-.549-3.471-.284-1.138-.707-2.235-1.168-3.31a20.879 20.879 0 0 0-1.745-3.046c-2.678-3.852-6.802-6.561-11.255-8.29-4.426-1.727-9.398-2.381-13.932-1.047-2.26.656-4.309 1.937-6.099 3.557-1.793 1.609-3.312 3.541-4.568 5.632l-.184.307-.324-.078-.013-.003.507-.227a29.291 29.291 0 0 0-3 6.901c-.708 2.422-1.094 4.949-1.073 7.483.018 2.529.407 5.083 1.348 7.448.923 2.366 2.369 4.54 4.258 6.255 3.256 2.845 7.271 4.762 11.46 5.728z" style="" fill="#a1312f" data-original="#a1312f"></path><path d="M256.992 154.489c-5.766-.401-11.543-3.896-13.885-9.305-3.73-8.619 1.089-19.76 9.964-22.702 4.765-1.58 10.649-.862 14.795 2.017 11.079 7.696 6.066 26.059-6.167 29.535-1.506.428-3.101.566-4.707.455z" style="" fill="#a1312f" data-original="#a1312f"></path><path d="M240.102 125.733c27.144-6.292 39.161 11.56 40.584 13.868.036-.162.058-.327.079-.493.861-7.194-2.375-14.247-8.171-18.529-6.785-5.008-17.515-7.844-25.074-3.004-2.981 1.915-5.521 4.789-7.418 8.158z" style="opacity:0.21;" fill="#a1312f" data-original="#a1312f"></path><path d="M329.251 146.751c1.882 6.376 8.551 10.097 14.685 11.208.847.142 1.696.214 2.535.199 10.15-.153 18.682-11.992 17.098-21.943a13.44 13.44 0 0 0-.803-3.009c-3.382-8.53-15.576-14.137-24.185-10.518-2.079.893-3.688 2.681-4.949 4.503a27.204 27.204 0 0 0-2.375 4.199c-2.238 4.798-3.409 10.621-2.006 15.361z" style="" fill="#ffffff" data-original="#ffffff" class=""></path><path d="M328.754 139.784c.25-2.334.829-4.63 1.653-6.835.828-2.2 1.83-4.357 3.17-6.328 1.314-1.938 3.05-3.878 5.44-4.709 4.597-1.796 9.817-1.223 14.285.678 4.464 1.928 8.507 5.334 10.501 10.063.474 1.167.808 2.43.935 3.674.051.624.128 1.247.15 1.871l-.055 1.875c-.233 2.487-.98 4.875-2.04 7.078-2.17 4.364-5.684 8.124-10.155 10.085-2.219.991-4.67 1.408-7.071 1.274-1.203-.091-2.371-.371-3.502-.707a25.269 25.269 0 0 1-3.319-1.234c-2.156-.953-4.153-2.267-5.84-3.899-1.694-1.627-2.99-3.667-3.656-5.918-.673-2.25-.753-4.642-.496-6.968zm4.215 12.82c1.708 1.595 3.754 2.796 5.907 3.663 1.073.449 2.192.779 3.322 1.034 1.131.261 2.27.459 3.409.473 2.278-.019 4.527-.55 6.531-1.597 4.042-2.064 7.058-5.796 8.821-9.872a19.46 19.46 0 0 0 1.619-6.408l.026-1.637c-.028-.544-.106-1.084-.153-1.626a11.194 11.194 0 0 0-.828-3.099c-.798-1.985-2.109-3.794-3.701-5.317a20.843 20.843 0 0 0-5.464-3.781c-3.99-1.94-8.737-2.803-13.033-1.414-2.143.583-3.841 2.226-5.242 4.033-1.405 1.828-2.558 3.87-3.467 6.014-1.78 4.262-2.722 9.121-1.464 13.68.694 2.243 2.012 4.258 3.717 5.854z" style="" fill="#a1312f" data-original="#a1312f"></path><path d="M351.169 150.752c-.459.254-5.025 4.067-12.679-.005s-4.738-14.381-2.841-17.57c1.897-3.19 7.53-9.435 16.331-5.113 8.801 4.321 7.084 18.313-.811 22.688z" style="" fill="#a1312f" data-original="#a1312f"></path><path d="M331.255 131.391c12.18-4.2 25.576 1.287 32.313 4.824a13.44 13.44 0 0 0-.803-3.009c-3.382-8.53-15.576-14.137-24.185-10.518-2.079.893-3.688 2.681-4.949 4.503a27.253 27.253 0 0 0-2.376 4.2z" style="opacity:0.21;" fill="#a1312f" data-original="#a1312f"></path><path d="M206.055 86.279c19.438 16.032 29.342 2.678 20.688-1.701-4.838-2.45-9.128-5.979-12.357-8.891a34.413 34.413 0 0 0-1.799 1.733 39.401 39.401 0 0 0-6.532 8.859zM198.831 107.858l-.021.094c-.044.458-.111.897-.165 1.339 7.752 4.992 17.665 8.911 26.439 7.07 3.311-.694 6.519-3.126 6.081-6.381-.183-1.301-.96-2.547-2.002-3.553-3.073-2.994-7.852-4.405-11.991-5.761-4.705-1.551-9.994-4.843-14.057-7.784-1.931 5.033-3.379 10.045-4.284 14.976zM375.848 176.723c-3.303-2.046-6.756-3.769-10.246-5.413-3.505-1.611-7.048-3.141-10.742-4.345 3.302 2.049 6.755 3.771 10.246 5.412 3.506 1.61 7.049 3.139 10.742 4.346zM379.525 169.079c-3.566-1.17-7.201-1.99-10.853-2.724-3.659-.699-7.334-1.311-11.079-1.569 3.566 1.172 7.201 1.992 10.853 2.724 3.659.697 7.335 1.308 11.079 1.569zM379.593 157.186c-3.718.518-7.343 1.38-10.945 2.326-3.594.981-7.164 2.048-10.641 3.462 3.718-.515 7.343-1.377 10.945-2.326 3.593-.982 7.163-2.05 10.641-3.462z" style="" fill="#a1312f" data-original="#a1312f"></path><path d="M248.293 56.988s2.663.396 3.498-.059c.85-.452-3.174-1.429-3.174-1.429 2.204-.427 4.37-2.433 3.689-2.624-.692-.208-3.428 1.037-3.428 1.037 3.229-3.05 2.665-8.84-.131-9.082-1.195-.105-3.017 2.204-4.703 4.868-.245 10.02-7.562 15.834-8.812 16.496 5.154-2.971 10.973-4.577 15.62-5.42-.251-2.093-2.559-3.787-2.559-3.787zM349.964 74.901c.097-2.26-1.531-5.774-1.678-6.076.161.106 1.854 1.311 2.825 1.013 1.018-.316-1.824-2.226-1.824-2.226s2.353.711 2.698.036c.356-.659-2.12-1.001-2.12-1.001 1.945-.667 6.073-4.654 4.205-6.351-1.219-1.102-3.394-.032-4.777.857-2.518 4.14-5.567 7.272-11.942 8.049 0 .001 6.958 3.048 12.613 5.699z" style="" fill="#ffffff" data-original="#ffffff" class=""></path><path d="M307.588 148.677s3.921-4.208 5.718-3.261c1.797.947-4.103 7.321-6.225 7.808-2.121.486-6.193-7.01-4.977-8.312 1.216-1.303 5.484 3.765 5.484 3.765z" style="" fill="#a1312f" data-original="#a1312f"></path><path d="M298.826 177.601c.842-2.037 1.602-4.103 2.395-6.159l2.229-6.218c.743-2.074 1.417-4.17 2.1-6.267.653-2.111 1.31-4.203 1.816-6.4l-1.152-.008c.802 4.176 1.5 8.387 2.165 12.595.325 2.106.629 4.216.866 6.333.274 2.115.465 4.237.598 6.373.13-2.137.053-4.281-.031-6.422-.117-2.139-.328-4.27-.545-6.4-.454-4.261-1.121-8.486-1.9-12.704l-.52-2.812-.632 2.804c-.472 2.095-1.113 4.212-1.735 6.311l-1.897 6.314-1.915 6.316c-.604 2.118-1.255 4.22-1.842 6.344z" style="" fill="#a1312f" data-original="#a1312f"></path><path d="M316.255 154.511c3.417 1.042 6.603 3.418 8.365 6.902 2.555 5.051 2.692 11.179-1.304 15.335-2.48 2.58-5.809 3.848-9.114 4.53-6.334 1.308-12.718 2.158-18.966-.044-2.266-.799-4.476-1.951-6.243-3.748-2.708-2.754-4.188-6.993-3.88-11.113.308-4.12 2.397-8.025 5.476-10.235 3.788-2.719 9.209-3.297 13.59-2.949 3.903.311 8.319.176 12.076 1.322z" style="opacity:0.48;" fill="#a1312f" data-original="#a1312f"></path><path d="M248.782 167.08c-3.86-.441-7.718-.526-11.575-.523-3.857.039-7.714.167-11.569.654 3.86.444 7.718.528 11.576.523 3.856-.041 7.713-.169 11.568-.654zM225.572 157.561c3.513 1.322 7.109 2.297 10.726 3.187 3.625.855 7.272 1.624 11.002 2.043-3.512-1.325-7.109-2.299-10.727-3.187-3.624-.853-7.271-1.621-11.001-2.043zM231.052 148.367c2.574 2.732 5.375 5.189 8.232 7.579 2.88 2.363 5.816 4.657 8.983 6.673-2.572-2.734-5.373-5.191-8.232-7.579-2.882-2.361-5.819-4.655-8.983-6.673z" style="" fill="#a1312f" data-original="#a1312f"></path><path d="M243.896 181.952c-1.855-.732-3.694-1.489-5.469-2.368-1.774-.869-3.531-1.794-5.067-2.968l-1.586-1.212.871 1.842c.199.423.368.986.312 1.308-.046.161-.044.129-.124.17-.057.04-.392.039-.459.013-.199-.038-.561-.462-.796-.884a9.722 9.722 0 0 1-.655-1.429 25.131 25.131 0 0 1-.949-3.123c-.249-1.056-.476-2.168-.564-3.184l-.197-2.251-1.068 1.982c-.428.793-.95 1.601-1.532 2.272-.578.671-1.318 1.225-1.77 1.007-.55-.166-1.041-1.014-1.322-1.849a14.314 14.314 0 0 1-.605-2.698l-.056-.428-.403-.052c-1.052-.139-2.178-.485-3.218-.914a17.987 17.987 0 0 1-3.02-1.604c-.952-.634-1.893-1.311-2.726-2.115-.855-.781-1.625-1.652-2.381-2.544.635.978 1.319 1.938 2.125 2.798.774.891 1.671 1.667 2.598 2.408a18.436 18.436 0 0 0 3.056 1.841c1.091.513 2.189.933 3.441 1.167l-.459-.48c.063 1.024.217 2.002.527 2.993.157.493.351.986.646 1.464.291.468.718.964 1.376 1.212.315.118.69.162 1.045.095.345-.066.635-.203.889-.355.504-.311.886-.689 1.239-1.077.693-.789 1.238-1.614 1.74-2.52l-1.265-.269c.106 1.214.356 2.296.625 3.413.28 1.106.603 2.202 1.037 3.281.224.538.468 1.071.79 1.594.351.494.657 1.102 1.558 1.397.264.055.405.05.595.039.182-.01.384-.044.597-.134.46-.151.799-.731.786-1.127.015-.805-.262-1.324-.558-1.889l-.715.63c1.708 1.143 3.533 2.005 5.398 2.74 1.876.704 3.771 1.343 5.713 1.808zM357.754 181.335c-1.897 1.333-3.791 2.662-5.741 3.892a49.97 49.97 0 0 1-2.944 1.782c-.992.541-2.04 1.06-3.042 1.293l-.279.064-.118.291c-.365.898-.797 1.818-1.327 2.614-.496.783-1.273 1.529-1.761 1.408-.232-.051-.317-.106-.391-.503-.049-.372.008-.84.1-1.298.192-.923.553-1.876.932-2.759l1.088-2.539-2.124 1.745a25.851 25.851 0 0 1-2.618 1.892c-.907.566-1.858 1.092-2.81 1.374-.471.147-.955.203-1.29.092-.377-.126-.629-.324-.621-.618-.018-.723.714-1.735 1.394-2.447l1.002-1.05-1.397.237c-1.8.305-3.649.465-5.488.577-1.843.105-3.693.071-5.538-.188 1.793.523 3.675.692 5.543.776 1.876.063 3.739-.035 5.622-.228l-.394-.813a8.684 8.684 0 0 0-1.177 1.327c-.331.497-.679 1.049-.707 1.837 0 .388.155.845.445 1.129.138.158.288.282.445.363.152.102.314.185.499.23.726.239 1.396.125 1.98-.026 1.19-.31 2.206-.865 3.179-1.461a27.638 27.638 0 0 0 2.786-1.973l-1.036-.795c-.446.99-.789 1.976-1.015 3.06-.099.546-.184 1.107-.096 1.755.04.17.075.337.132.506.093.175.163.357.303.513a1.69 1.69 0 0 0 1.076.568c.798.108 1.461-.314 1.891-.705.444-.41.764-.867 1.061-1.328a14.246 14.246 0 0 0 1.35-2.907l-.397.355c1.24-.369 2.247-.973 3.25-1.59a48.935 48.935 0 0 0 2.887-1.985c1.849-1.419 3.649-2.885 5.346-4.467z" style="" fill="#c75325" data-original="#c75325" class=""></path><path d="M239.598 457.45c-7.413 11.506-21.864-2.59-31.135-8.896-2.151-1.462-5.054-3.195-8.77-4.928h-.021c-6.996-3.257-16.852-6.578-29.82-8.206-8.875-1.149-19.191-1.483-31.052-.501h-.021c-1.107.084-2.214.167-3.362.292-24.453 2.464-45.899-11.214-50.264-31.741-1.838-8.645-.668-18.481 4.573-28.859 2.924-5.763 7.079-11.673 12.676-17.645l17.061 8.541s-20.235 17.666-15.244 38.339c0 .084.021.146.042.23 2.109 8.416 8.896 12.132 18.627 13.406 14.284 1.9 34.894-1.483 56.278-3.028 3.968-.292 7.872-.125 11.694.396 10.044 1.378 19.42 5.304 27.272 10.337 6.453 4.093 11.861 8.958 15.745 13.74 5.951 7.267 8.394 14.367 5.721 18.523z" style="" fill="#fd913e" data-original="#fd913e"></path><path d="M239.598 457.45c-7.413 11.506-21.864-2.59-31.135-8.896-2.151-1.462-5.054-3.195-8.77-4.928h-.021c-6.996-3.257-16.852-6.578-29.82-8.206-8.875-1.149-19.191-1.483-31.052-.501h-.021c-1.107.084-2.214.167-3.362.292-24.453 2.464-45.899-11.214-50.264-31.741-1.838-8.645-.668-18.481 4.573-28.859 2.924-5.763 7.079-11.673 12.676-17.645l17.061 8.541s-20.235 17.666-15.244 38.339c0 .084.021.146.042.23 2.109 8.416 8.896 12.132 18.627 13.406 14.284 1.9 34.894-1.483 56.278-3.028 3.968-.292 7.872-.125 11.694.396 10.044 1.378 19.42 5.304 27.272 10.337 6.453 4.093 11.861 8.958 15.745 13.74 5.951 7.267 8.394 14.367 5.721 18.523z" style="opacity:0.2;" fill="#a1312f" data-original="#a1312f"></path><path d="M239.598 457.45c-7.413 11.506-21.864-2.59-31.135-8.896-2.151-1.462-5.054-3.195-8.77-4.928 6.056-2.172 20.339-6.494 34.184-4.698 5.951 7.266 8.394 14.366 5.721 18.522zM218.131 425.187c-3.111 2.506-7.288 4.114-12.592 2.735-8.77-2.297-12.885-8.77-14.68-13.072 10.044 1.378 19.42 5.304 27.272 10.337zM169.851 435.419c-8.875-1.149-19.191-1.483-31.052-.501 2.944-4.615 7.288-9.355 12.863-9.961 7.748-.814 14.66 6.077 18.189 10.462zM122.887 417.481c-5.638 2.819-13.887 5.659-18.293 1.274-3.988-3.988-2.464-10.211-.376-14.91 0 .084.021.146.042.23 2.109 8.415 8.896 12.132 18.627 13.406zM85.654 403.052c-.167.146-.334.292-.501.418-1.838-8.645-.668-18.481 4.573-28.859 4.239 7.704 6.891 19.065-4.072 28.441z" style="" fill="#a1312f" data-original="#a1312f"></path><path d="M210.216 267.463a28.12 28.12 0 0 1-1.9-.084l-.793-.063a22.287 22.287 0 0 1-1.754-.209c-.063 0-.125-.021-.188-.021a20.663 20.663 0 0 1-1.692-.313c-.146-.021-.271-.063-.417-.084a26.777 26.777 0 0 1-3.466-1.044 21.523 21.523 0 0 1-1.587-.668.772.772 0 0 1-.188-.083c-.501-.23-1.002-.48-1.483-.752a25.269 25.269 0 0 1-3.153-2.004c-.439-.334-.877-.689-1.316-1.044a35.88 35.88 0 0 1-1.337-1.148c-.522-.46-1.002-.94-1.483-1.441a37.496 37.496 0 0 1-.898-.919 65.808 65.808 0 0 1-3.801-4.427l-1.19-1.503c-.794-1.002-1.587-2.046-2.402-3.091-.793-1.002-1.587-2.046-2.422-3.07-.585-.731-1.19-1.483-1.817-2.235a79.827 79.827 0 0 0-3.362-3.801 65.496 65.496 0 0 0-1.692-1.754 71.984 71.984 0 0 0-3.675-3.383 31.75 31.75 0 0 0-1.566-1.274 51.749 51.749 0 0 0-6.077-4.198c-.125-.063-.23-.146-.355-.209a38.158 38.158 0 0 1-1.545-.961c-3.362-2.235-6.16-5.074-8.478-8.29-4.343-5.993-7.079-13.26-8.75-20.319-.71-2.902-1.232-5.784-1.629-8.499 5.116-.501 35.625-3.341 40.135-2.548 4.469.793 27.273 24.432 31.512 28.859.125.146.23.271.355.397 17.188 20.551 21.176 50.538-1.586 50.183z" style="" fill="#fd913e" data-original="#fd913e"></path><path d="m205.81 211.039 3.092 3.03c1.02 1.011 2.098 2.026 3.066 3.049l.009.01.006.006c3.705 4.288 6.928 9.018 9.493 14.111 2.53 5.101 4.425 10.578 5.146 16.315.339 2.863.39 5.809-.207 8.712-.557 2.891-1.814 5.774-3.986 7.974-2.138 2.234-5.111 3.484-8.034 4.017-2.981.493-5.873.353-8.792-.028l.166.012-.188-.02-.162-.012-1.788-.324.095.018-.417-.082-.106-.02c-.891-.222-1.782-.445-2.664-.76-.89-.261-1.757-.651-2.628-1.013l.136.055a3.203 3.203 0 0 1-.467-.219l.161.09c-1.134-.521-2.195-1.146-3.218-1.824l-1.558-.985-1.491-1.163.069.057c-3.115-2.507-5.528-5.519-8.021-8.436l-7.036-8.907c-2.453-2.868-4.8-5.715-7.648-8.155-2.65-2.646-5.867-4.511-8.871-6.702l.073.04-.354-.21-.078-.043c-5.375-3.213-10.15-7.499-13.853-12.558-3.678-5.073-6.374-10.845-7.829-16.919l.017.059c-.911-3.652-1.253-7.208-1.241-10.851.01-3.62.453-7.22 1.189-10.74 1.483-7.041 4.059-13.808 7.504-20.061-3.04 6.453-5.359 13.252-6.512 20.246a59.292 59.292 0 0 0-.791 10.546c.064 3.489.537 7.079 1.433 10.333l.018.06c3.138 11.624 10.905 21.875 21.252 27.906l-.077-.043.355.207.074.041c3.139 2.229 6.546 4.197 9.308 6.903 2.943 2.479 5.476 5.478 7.964 8.345 2.444 2.934 4.744 5.975 7.055 8.94 2.399 2.859 4.743 5.811 7.537 8.095l.07.058 1.292 1.021 1.428.914c.94.638 1.905 1.218 2.915 1.693l.162.091a.14.14 0 0 0-.092-.052l.137.055c.773.323 1.528.677 2.349.924.794.294 1.629.511 2.465.727l-.105-.02.417.085.096.018 1.594.302-.161-.011.188.022.167.012c2.665.377 5.484.527 8.088.107 2.606-.453 5.08-1.519 6.931-3.325 1.87-1.795 3.053-4.257 3.63-6.884.615-2.624.648-5.404.393-8.145-.531-5.506-2.281-10.889-4.567-15.984-2.305-5.103-5.288-9.91-8.785-14.32l.014.015c-.976-1.108-1.943-2.131-2.913-3.208l-2.914-3.197z" style="" fill="#c75325" data-original="#c75325" class=""></path><path d="M202.552 266.02c.195-2.222.182-4.342.021-6.436-.191-2.085-.471-4.14-1.02-6.138-.54-1.993-1.164-3.982-2.029-5.906-.803-1.959-1.826-3.828-2.77-5.872 1.762 1.365 3.325 3.02 4.526 4.934 1.296 1.866 2.11 4.027 2.744 6.215.555 2.217.752 4.528.533 6.792-.212 2.252-.798 4.505-2.005 6.411zM218.207 264.57c-.473-4.483-.625-8.792-1.229-13.028-.286-2.108-.626-4.211-1.21-6.236-.591-2.029-1.341-3.992-2.49-5.959 1.926 1.224 3.359 3.178 4.353 5.254 1.04 2.087 1.526 4.354 1.875 6.601.292 2.26.338 4.531.122 6.775-.209 2.241-.607 4.47-1.421 6.593z" style="" fill="#a1312f" data-original="#a1312f"></path><path d="M100.525 263.551c.726 0 13.719-12.759 35.423-15.206 32.833-3.702 80.556 11.202 95.932 90.006 0 0 14.139-12.771 33.751-15.051 19.612-2.281 18.7 10.034 15.507 14.595-3.193 4.561-31.927 11.402-43.329 28.278-11.402 16.876-24.173-3.649-24.173-3.649s-31.014 37.856-90.307 10.946c-59.292-26.91-22.804-109.919-22.804-109.919z" style="" fill="#fd913e" data-original="#fd913e"></path><path d="M271.005 343.098c-1.979-2.143-3.606-4.151-5.461-5.92-.896-.915-1.892-1.674-2.914-2.453-1.041-.778-2.189-1.366-3.475-2.13a7.836 7.836 0 0 1 4.386.359c1.409.519 2.699 1.359 3.772 2.387 1.047 1.056 1.942 2.242 2.574 3.559.636 1.305 1.091 2.712 1.118 4.198z" style="" fill="#a1312f" data-original="#a1312f"></path><path d="M231.88 338.351c-1.26-6.858-3.098-13.583-5.363-20.144-2.24-6.568-4.922-12.979-8.12-19.111-6.372-12.229-14.615-23.642-25.373-32.239a82.537 82.537 0 0 0-17.376-10.932c-6.223-2.95-12.906-4.732-19.628-6.207-13.576-2.51-27.63-2.174-41.413-.151 3.422-.638 6.845-1.362 10.302-1.864l5.212-.581c1.739-.212 3.48-.399 5.233-.418l5.257-.149c1.754-.071 3.505.128 5.26.179 3.52.055 6.998.605 10.493 1.052 6.934 1.197 13.793 3.103 20.241 6.023 6.436 2.924 12.518 6.637 18.032 11.075 10.942 9.019 19.406 20.715 25.507 33.338 6.05 12.668 10.174 26.253 11.736 40.129z" style="" fill="#c75325" data-original="#c75325" class=""></path><path d="M337.9 229.547s-33.44 26.363-27.049 44.166c6.391 17.803 48.047 12.439 61.742-9.016 13.695-21.456-34.693-35.15-34.693-35.15z" style="" fill="#fd913e" data-original="#fd913e"></path><path d="M327.97 282.957c.178-.995-.187-2.068-.203-3.137a19.747 19.747 0 0 1 .048-3.251c.204-2.18.828-4.343 1.808-6.331 1.029-1.953 2.272-3.824 3.913-5.286 1.559-1.532 3.418-2.712 5.39-3.565-1.343 1.71-2.724 3.224-3.897 4.883-1.226 1.609-2.23 3.333-3.118 5.095-.92 1.755-1.572 3.633-2.146 5.57-.263.976-.533 1.965-.755 2.985-.326.978-.306 2.137-1.04 3.037zM311.643 274.703c-.105-2.353.426-4.709 1.293-6.911.849-2.221 2.124-4.283 3.677-6.107 1.579-1.796 3.402-3.411 5.507-4.541 2.041-1.225 4.342-1.945 6.642-2.299-1.932 1.353-3.833 2.511-5.523 3.946a32.907 32.907 0 0 0-4.689 4.553c-2.872 3.281-5.04 7.106-6.907 11.359z" style="" fill="#a1312f" data-original="#a1312f"></path><path d="M335.775 232.083s6.314-6.665 7.367-18.943" style="" fill="#c75325" data-original="#c75325" class=""></path><path d="M168.431 203.605c-.042 3.634-4.072 5.617-7.246 7.392-4.03 2.255-7.476 5.408-11.005 8.395-.084.083-.188.146-.271.23-.125.104-.271.23-.397.334-5.116-5.638-8.896-12.55-10.775-20.005a68.636 68.636 0 0 1 2.694-.877 100.11 100.11 0 0 1 9.481-2.401c5.68-1.169 12.55-1.253 16.121 3.299.813 1.044 1.419 2.318 1.398 3.633zM176.93 243.26a79.827 79.827 0 0 0-3.362-3.801 33.348 33.348 0 0 0-1.692-1.754 71.984 71.984 0 0 0-3.675-3.383 31.75 31.75 0 0 0-1.566-1.274 51.749 51.749 0 0 0-6.077-4.198c1.399-.731 2.861-1.336 4.323-1.858 2.923-1.023 7.768-2.506 11.84-2.297 11.36.565 6.056 12.844.209 18.565zM380.49 245.37c-1.9 8.583-5.053 15.432-8.04 20.464-.104-.125-.23-.251-.355-.376-.042-.063-.104-.125-.167-.188-3.278-3.278-7.831-4.928-11.569-7.706-3.717-2.756-6.724-7.706-4.803-11.924 1.316-2.882 4.448-4.344 7.685-4.782a15.764 15.764 0 0 1 2.423-.146c5.429.085 10.211 2.11 14.826 4.658zM381.451 216.677c-2.276 0-4.573.167-6.849.48-2.735.397-5.659.982-8.206-.104-3.529-1.545-5.054-6.119-3.968-9.835 1.086-3.696 4.198-6.515 7.643-8.27 1.671-.835 3.884-1.629 6.411-2.255 2.505 7.121 4.092 13.782 4.969 19.984zM188.687 103.371c-1.65 3.571-5.095 5.931-7.789 8.749a26.833 26.833 0 0 0-5.763 9.355c-1.42 3.863-2.276 8.499-5.513 10.629-2.485 1.65-5.513 1.044-7.789-.397-4.761-3.028-7.225-9.355-7.205-15.787a287.224 287.224 0 0 1 24.578-9.522 311.185 311.185 0 0 1 9.481-3.027zM138.695 123.543c-1.107 2.986-2.965 5.931-4.03 8.959-1.692 4.824-1.337 10.107-2.401 15.119-1.044 4.991-4.364 10.232-9.46 10.733-4.74.459-9-3.654-10.274-8.248-.564-2.088-.752-4.657-.585-7.434a149.832 149.832 0 0 1 26.75-19.129zM98.768 186.962c-2.506 3.007-7.413 2.735-10.692.606-2.694-1.733-4.573-4.365-5.993-7.288 4.97-9.272 10.734-17.353 16.79-24.349-.125 1.253-.397 2.464-.606 3.696a36.244 36.244 0 0 0 .564 14.68c1.064 4.26 2.756 9.272-.063 12.655zM80.809 241.694c-1.692 1.107-3.801 1.316-5.826 1.358-3.195.063-6.557-.272-9.668-1.19.459-5.951 1.211-12.007 2.193-18.126.46-2.861 1.003-5.659 1.608-8.374.188-.898.396-1.796.647-2.673 4.406 3.717 7.998 9.376 10.441 13.072 1.649 2.485 3.195 5.116 3.612 8.061.439 2.944-.522 6.264-3.007 7.872zM82.292 294.631c-2.903 1.775-6.453 2.026-9.857 1.963a38.573 38.573 0 0 1-4.114-.271c-1.295-6.014-2.255-12.237-2.882-18.669 6.202-.271 12.634.751 17.52 4.51 1.316 1.023 2.527 2.276 3.07 3.842 1.149 3.196-.835 6.871-3.737 8.625zM99.603 323.365c0 2.339-1.65 4.364-3.404 5.931-3.592 3.237-7.873 5.346-12.425 6.724a116.756 116.756 0 0 1-8.666-17.332c3.634-.898 7.288-1.65 10.943-1.942 4.573-.377 13.531.145 13.552 6.619zM280.075 216.632s6.537 3.813 11.985.272c0 0-1.634-18.794-5.175-19.339-3.542-.544-6.81 19.067-6.81 19.067z" style="" fill="#a1312f" data-original="#a1312f"></path><path d="m462.817 254.785-44.752 58.487 79.432-21.565z" style="" fill="#589eca" data-original="#5ed6b6" class="" opacity="1"></path><path d="m451.74 252.126 7.78 9.855-41.455 51.291z" style="" fill="#589eca" data-original="#5ed6b6" class="" opacity="1"></path><path d="m418.065 313.272 10.191-65.134 23.484 3.988zM462.817 254.785 512 266.305l-93.935 46.967z" style="" fill="#95c5e3" data-original="#91e6dd" class="" opacity="1"></path></g></svg>