<svg xmlns="http://www.w3.org/2000/svg" version="1.1" xmlns:xlink="http://www.w3.org/1999/xlink" xmlns:svgjs="http://svgjs.com/svgjs" width="512" height="512" x="0" y="0" viewBox="0 0 512 512" style="enable-background:new 0 0 512 512" xml:space="preserve" class=""><g><circle cx="149.427" cy="81.845" r="38.51" style="" transform="rotate(-80.914 149.432 81.85)" fill="#ff9d3d" data-original="#ff9d3d"></circle><path d="M90.794 239.615s5.559 22.943 22.96 27.308c17.401 4.365-1.765-24.254-1.765-24.254l-21.195-3.054z" style="" fill="#ff9d3d" data-original="#ff9d3d"></path><path d="M429.117 361.77c0 44.262-92.737 80.131-207.126 80.131-86.259 0-160.194-20.39-191.354-49.399 7.221-2.704 11.705-6.489 11.705-10.68 0-6.669-11.333-12.302-26.936-14.183a31.087 31.087 0 0 1-.552-5.869c0-44.25 92.737-80.131 207.137-80.131 114.389 0 207.126 35.881 207.126 80.131z" style="" fill="#ffc893" data-original="#ffc893" class=""></path><ellipse cx="122.343" cy="314.17" rx="94.076" ry="36.394" style="" fill="#ffc893" data-original="#ffc893" class=""></ellipse><path d="M220.835 457.172c0 6.347-13.3 11.492-29.707 11.492s-29.707-5.145-29.707-11.492c0-6.347 13.3-11.492 29.707-11.492s29.707 5.146 29.707 11.492z" style="" fill="#ffc893" data-original="#ffc893" class=""></path><ellipse cx="14.854" cy="383.971" rx="14.854" ry="5.746" style="" fill="#ffc893" data-original="#ffc893" class=""></ellipse><ellipse cx="416.503" cy="407.681" rx="14.854" ry="5.746" style="" fill="#ffc893" data-original="#ffc893" class=""></ellipse><path d="M433.067 396.876c0 1.248-2.614 2.259-5.839 2.259-3.225 0-5.839-1.011-5.839-2.259 0-1.247 2.614-2.259 5.839-2.259 3.225.001 5.839 1.012 5.839 2.259z" style="" fill="#ffc893" data-original="#ffc893" class=""></path><path d="M320.418 412.198c0 3.174-6.65 5.746-14.854 5.746-8.203 0-14.853-2.573-14.853-5.746 0-3.173 6.65-5.746 14.853-5.746 8.204 0 14.854 2.573 14.854 5.746z" style="opacity:0.2;" fill="#ae312f" data-original="#ae312f" class=""></path><ellipse cx="72.825" cy="368.101" rx="14.854" ry="5.746" style="opacity:0.2;" fill="#ae312f" data-original="#ae312f" class=""></ellipse><path d="M322.129 401.394c0 1.247-2.614 2.259-5.839 2.259-3.225 0-5.839-1.011-5.839-2.259s2.614-2.259 5.839-2.259c3.225 0 5.839 1.011 5.839 2.259zM393.56 347.542c0 1.247-2.614 2.259-5.839 2.259-3.225 0-5.839-1.011-5.839-2.259s2.614-2.259 5.839-2.259c3.225 0 5.839 1.011 5.839 2.259zM89.093 382.433c0 1.247-2.614 2.259-5.839 2.259-3.225 0-5.839-1.011-5.839-2.259s2.614-2.259 5.839-2.259c3.224 0 5.839 1.012 5.839 2.259z" style="opacity:0.2;" fill="#ae312f" data-original="#ae312f" class=""></path><path d="M257.216 104.129s-6.05-34.745-45.565-34.944c-39.515-.198-47.73 37.283-47.73 37.283s-3.47-10.997-12.261-10.89c-8.79.107-12.384 17.034-12.384 17.034s-9.755-10.252-31.32-5.118c-21.565 5.135-61.099 13.533-61.099 13.533h254.718l-44.359-16.898zM301.64 215.579s6.05-34.745 45.565-34.943c39.515-.198 47.73 37.283 47.73 37.283s3.47-10.997 12.261-10.89c8.79.107 12.384 17.034 12.384 17.034s9.755-10.252 31.32-5.118c21.565 5.135 61.1 13.533 61.1 13.533H257.282l44.358-16.899z" style="" fill="#95c5e3" data-original="#9cf0e7" class="" opacity="1"></path><path d="M268.733 81.236c-.013 0-5.574 5.444-12.919 10.061-8.587 5.406-19.605 9.673-27.028 2.793-12.945-12.001-12.311-36.766-4.397-41.344a5.336 5.336 0 0 1 1.578-.608c5.612-1.203 10.85.44 14.962 4.384 4.694 4.526 6.996 10.669 11.121 15.622 2.224 2.69 5.354 4.63 8.484 6.104.763.362 7.462 3.712 8.199 2.988z" style="" fill="#ff9d3d" data-original="#ff9d3d"></path><path d="M228.786 94.09c-12.945-12.001-12.311-36.766-4.397-41.344 2.315 2.276 5.238 6.751 7.32 15.454.116.504 1.327 10.093 1.327 10.093s4.968 15.047-4.25 15.797z" style="" fill="#ae312f" data-original="#ae312f" class=""></path><path d="M396.828 136.135c-.824-.252-52.897-18.126-51.048-35.02a29.41 29.41 0 0 1 .947-4.786c4.171-14.967 19.251-27.18 25.44-26.335l.018.001c6.826.941 8.211 16.047 11.459 27.932 3.187 11.719 12.842 37.433 13.184 38.208z" style="" fill="#ff9d3d" data-original="#ff9d3d"></path><path d="M366.641 107.52c-5.32-5.528-4.099-4.19-9.554-6.9-5.733-2.836-10.133-4.204-10.36-4.291 4.171-14.967 19.251-27.18 25.44-26.335l.018.001c.636 3.586 1.369 7.876-1.893 16.766a25.413 25.413 0 0 0-.799 2.577c-4.598 5.205-4.163 16.913-2.852 18.182z" style="" fill="#ae312f" data-original="#ae312f" class=""></path><path d="M361.617 96.844s-3.44-.463-4.313-1.327c-.891-.865 4.444-.632 4.444-.632-2.578-1.318-4.542-4.581-3.63-4.574.931-.009 3.875 2.515 3.875 2.515-2.908-4.937-.132-11.909 3.418-11.205 1.519.299 2.947 3.812 4.081 7.718-3.29 12.502 3.693 22.329 5.003 23.598-5.32-5.528-11.954-9.605-17.409-12.315 1.063-2.508 4.531-3.778 4.531-3.778z" style="" fill="#ffffff" data-original="#ffffff" class=""></path><path d="M214.421 203.805s-65.507 5.835-73.611 9.539c-8.104 3.704 0 36.682 0 36.682l57.689-7.355 31.711-30.798-15.789-8.068z" style="" fill="#ff9d3d" data-original="#ff9d3d"></path><path d="M214.421 203.805s-65.507 5.835-73.611 9.539c-8.104 3.704 0 36.682 0 36.682l57.689-7.355 31.711-30.798-15.789-8.068z" style="opacity:0.2;" fill="#ae312f" data-original="#ae312f" class=""></path><path d="M104.353 278.524s-6.468-3.363-9.565-1.78c-3.097 1.583 3.827 4.748 3.827 4.748s-6.33-.198-7.913 1.385c-1.583 1.583 2.572 2.176 2.572 2.176l-20.97 11.474s-8.309-7.518-18.794-5.935c-10.485 1.583-12.859 26.509-7.32 42.138 5.539 15.629 21.343 20.438 26.474 20.02 11.599-.945 47.537-17.25 47.537-17.25l-15.848-56.976z" style="" fill="#ff9d3d" data-original="#ff9d3d"></path><path d="M120.196 335.505s-30.817 13.967-44.59 16.786c-1.099.233-2.095.388-2.949.452-5.121.427-20.924-4.384-26.472-20.019-3.737-10.553-3.867-25.334-.336-34.322 1.707-4.319 4.255-7.294 7.656-7.811 10.488-1.578 18.803 5.936 18.803 5.936l20.963-11.471s-4.151-.595-2.574-2.186c1.591-1.578 7.914-1.384 7.914-1.384s-6.919-3.168-3.828-4.746c3.104-1.578 9.57 1.785 9.57 1.785l15.843 56.98z" style="opacity:0.2;" fill="#ae312f" data-original="#ae312f" class=""></path><path d="M402.593 181.265c-3.402 26.287-25.671 50.778-39.611 58.129-6.763 3.233-145.679-30.105-145.679-30.105-8.031-6.258-21.536-22.247-23.73-43.788-.282-2.063-.417-4.099-.517-6.285v-.039c-.32-6.958.449-15.314 2.315-23.627 0-.026 0-.065.013-.09 9.162-44.406 61.481-59.325 99.667-54.664.078.013.142.013.22.026 37.859 4.567 81.828 12.442 100.585 53.086 6.507 14.073 9.325 32.376 6.737 47.357z" style="" fill="#ff9d3d" data-original="#ff9d3d"></path><path d="M218.221 131.14c-6.505 1.41-14.135-2.198-19.721-5.781a60.716 60.716 0 0 1 7.94-14.174c.194-.259.388-.504.595-.763 7.578 9.48 20.161 18.766 11.186 20.718zM193.055 159.177c-.272-6.66.298-14.07 2.018-22.204 5.923 4.772 14.51 10.501 24.545 13.54 15.182 4.616-7.798 12.906-26.563 8.664zM196.456 178.64a69.243 69.243 0 0 1-2.884-13.139c4.539.673 9.828 1.41 15.105 2.043 9.363 1.099 6.091 12.699-12.221 11.096zM276.87 158.655s-1.611-7.435-4.337-7.311c-2.726.124-.867 9.293 3.222 12.762 0 0 9.763-4.127 9.779-7.447.019-4.076-8.664 1.996-8.664 1.996z" style="" fill="#ae312f" data-original="#ae312f" class=""></path><path d="M278.391 202.493c-1.681-13.147-3.624-26.376-2.879-39.664l1.012.369c-4.558 7.507-8.072 15.689-10.905 24.002-.983 2.776-1.776 5.613-2.594 8.449 2.509-12.374 7.095-24.363 13.81-35.082-.876 7.304-.266 14.779.153 22.125.339 5.752.992 13.976 1.403 19.801z" style="" fill="#ae312f" data-original="#ae312f" class=""></path><path d="M265.389 163.127c-3.728.564-7.418 2.557-9.792 5.926-3.442 4.883-4.523 11.261-.988 16.213 2.195 3.074 5.477 4.909 8.824 6.127 6.414 2.336 12.95 4.203 19.811 2.86 2.489-.487 4.973-1.352 7.094-2.958 3.249-2.461 5.444-6.661 5.754-11.01.31-4.349-1.273-8.747-4.15-11.526-3.538-3.42-9.112-4.854-13.74-5.161-4.123-.274-8.715-1.091-12.813-.471z" style="opacity:0.48;" fill="#ae312f" data-original="#ae312f" class=""></path><path d="M250.9 90.443c-4.642 1.423-16.716 3.217-18.824.113-2.548-3.737.784-7.381.784-7.381s-5.263-.854-4.927-2.354c.323-1.409 3.75-.142 4.099-.013-4.694-2.69-9.686-10.54-5.121-12.751 1.552-.75 3.246-.505 4.798.142.116.504.233 1.035.349 1.578 2.793 13.127 9.712 18.507 18.842 20.666z" style="" fill="#ffffff" data-original="#ffffff" class=""></path><path d="M321.379 194.896c-4.424 1.56-6.415 6.681-2.859 10.492 4.761 5.102 15.744 7.367 22.052 4.221 5.325-2.656 4.559-10.315.215-12.818-3.672-2.116-7.964-2.891-12.128-2.855-1.936.016-4.8.086-7.28.96zM236.203 170.529c3.646 2.952 3.806 8.444-.821 10.843-6.196 3.212-17.303 1.667-22.192-3.411-4.128-4.287-.84-11.246 4.092-12.149 4.169-.763 8.473-.056 12.384 1.373 1.818.665 4.493 1.69 6.537 3.344z" style="opacity:0.48;" fill="#eb4949" data-original="#eb4949"></path><path d="M323.151 85.05c-7.087 3.595-12.337 13.333-15.997 19.282-4.694 7.643-9.893 21.312-21.312 18.26-7.746-2.056-6.737-11.354-4.875-17.316 4.345-13.928 10.397-21.144 14.083-24.48.078.013.142.013.22.026 7.966 1.034 17.639 2.198 27.881 4.228zM343.649 90.417c-6.738 7.423-12.945 20.433-19.695 19.67-4.513-.53-7.475-7.475 0-17.238 2.082-2.716 4.293-4.72 6.414-6.208 4.396 1.048 8.858 2.289 13.281 3.776zM289.709 80.266c-4.371 4.384-8.794 10.669-12.945 15.751-5.975 7.307-18.26 7.889-12.247-3.686 2.961-5.69 6.156-9.57 8.625-12.014 5.95-.413 11.575-.387 16.567-.051z" style="" fill="#ae312f" data-original="#ae312f" class=""></path><path d="M249.416 132.999s-4.109-25.844-8.543-26.984c-4.434-1.14-19.703 18.523-19.703 18.523s-26.341-1.248-28.658 1.096c-2.317 2.344 14.329 19.88 14.329 19.88s-15.935 24.094-13.635 26.726c3.32 3.8 33.105-4.385 33.105-4.385s21.418 20.056 26.665 18.527c5.748-1.675.079-28.234.079-28.234s19.502-12.929 20.65-15.965c1.148-3.037-24.289-9.184-24.289-9.184z" style="" fill="#ff5555" data-original="#ff5555" class=""></path><path d="M260.551 143.513c-.776 2.054-13.96 10.8-13.96 10.8s3.835 17.952-.057 19.087c-3.547 1.034-18.024-12.523-18.024-12.523s-6.247 1.709-12.165 2.786c-4.711.862-9.235 1.307-10.226.172-1.565-1.781 9.22-18.067 9.22-18.067s-.718-.761-1.767-1.91c-3.102-3.418-9.105-10.355-7.928-11.533 1.565-1.594 19.389-.747 19.389-.747s10.312-13.299 13.313-12.524c1.537.402 3.016 5.17 4.093 9.737 1.034 4.352 1.695 8.516 1.695 8.516s3.332.804 7.008 1.881c4.656 1.367 9.84 3.176 9.409 4.325z" style="" fill="#ae312f" data-original="#ae312f" class=""></path><path d="M251.144 139.19a13697.523 13697.523 0 0 0-34.799 24.473c-4.711.862-9.235 1.307-10.226.172-1.565-1.781 9.22-18.067 9.22-18.067s-.718-.761-1.767-1.91l28.867-15.066c1.034 4.352 1.695 8.516 1.695 8.516s3.334.805 7.01 1.882z" style="opacity:0.2;" fill="#ffffff" data-original="#ffffff" class=""></path><path d="M240.873 106.015c-1.143-.089-2.155.729-3.07 1.322-6.407 4.901-11.352 11.438-16.438 17.634-8.993-.241-18.279-1.135-27.15.55-.509.142-1.027.325-1.373.57-1.98 3.32 11.87 16.577 14.596 19.365-4.934 7.421-10.087 14.87-13.547 23.12-.407 1.171-.888 2.403-.685 3.665-.265-1.255.156-2.529.512-3.725 3.085-8.319 8.018-15.796 12.742-23.258l.064.59c-4.895-4.759-9.806-9.572-13.604-15.298-.597-.996-1.2-2.006-1.441-3.295a2.62 2.62 0 0 1 .024-1.065c.222-1.088 1.548-1.504 2.418-1.743 9.011-1.64 18.195-.776 27.274-.33l-.357.156c2.942-3.512 5.899-7.02 9.106-10.297 2.412-2.441 4.898-4.869 7.766-6.776.95-.552 2.015-1.33 3.163-1.185z" style="" fill="#ffffff" data-original="#ffffff" class=""></path><path d="M401.649 151.65c-.466.207-.944.414-1.41.608-8.354 3.414-17.768 4.151-26.562 2.108-2.108-.491-4.241-1.164-5.91-2.548-1.655-1.397-2.755-3.634-2.263-5.742.724-3.091 4.242-4.513 7.307-5.276 6.427-1.629 13.061-2.586 19.256-5.031 1.358-.53 2.599-1.203 3.789-1.862 1.862 4.074 3.44 8.471 4.707 13.229.4 1.527.763 3.027 1.086 4.514zM399.024 195.193c-1.901 5.25-4.268 10.048-6.88 14.406a10.701 10.701 0 0 1-.685-.104c-7.578-1.254-16.191-3.66-21.545-9.531-1.332-1.461-2.302-3.621-1.41-5.393 1.177-2.341 4.035-2.186 6.375-1.759.466.09.905.181 1.319.272 3.944.892 7.954 1.5 12.001 1.772 3.764.259 6.854.505 10.825.337zM402.593 181.265c-10.385 2.574-21.997 3.104-30.998-1.552-3.905-2.005-7.074-6.156-5.405-10.074.672-1.565 2.082-2.858 3.724-3.75 4.888-2.69 11.341-2.806 16.993-3.078 5.005-.246 10.824-1.694 16.036-3.388.956 7.811.736 15.104-.35 21.842z" style="" fill="#ae312f" data-original="#ae312f" class=""></path><path d="M352.674 158.119s-3.962-25.867-8.389-27.033c-4.428-1.165-19.808 18.41-19.808 18.41s-26.333-1.398-28.664.932c-2.33 2.331 14.215 19.962 14.215 19.962s-16.072 24.002-13.787 26.648c3.298 3.819 33.129-4.197 33.129-4.197s21.303 20.178 26.559 18.679c5.757-1.642.24-28.233.24-28.233s19.575-12.817 20.741-15.847c1.165-3.029-24.236-9.321-24.236-9.321z" style="" fill="#ff5555" data-original="#ff5555" class=""></path><path d="M363.748 168.7c-.79 2.039-14.017 10.714-14.017 10.714s3.734 17.981-.172 19.087c-3.547 1.02-17.952-12.624-17.952-12.624s-3.059.818-6.922 1.666c-6.061 1.336-14.118 2.743-15.482 1.163-.776-.89 1.566-5.414 4.093-9.708 2.528-4.266 5.228-8.301 5.228-8.301s-11.188-11.935-9.608-13.5c1.565-1.58 19.374-.632 19.374-.632s10.412-13.242 13.4-12.452c1.91.503 3.691 7.813 4.739 13.026.589 2.973.934 5.256.934 5.256s5.185 1.278 9.723 2.786h.015c3.717 1.221 7.006 2.6 6.647 3.519z" style="" fill="#ae312f" data-original="#ae312f" class=""></path><path d="m357.084 165.182-32.4 22.361c-6.061 1.336-14.118 2.743-15.482 1.163-.776-.89 1.566-5.414 4.093-9.708l33.133-21.859c.589 2.973.934 5.256.934 5.256s5.184 1.279 9.722 2.787z" style="opacity:0.2;" fill="#ffffff" data-original="#ffffff" class=""></path><path d="M344.284 131.086c-1.145-.157-2.197.615-3.129 1.184-3.767 2.602-6.819 6.096-9.835 9.509a81.577 81.577 0 0 0-2.219 2.619c-1.521 1.806-2.959 3.682-4.427 5.532-6.788-.291-13.596-.581-20.387-.359-2.646.201-5.581.057-7.955 1.15-.148.111-.14.115-.175.304-.018.169.015.402.075.635 1.068 3.051 3.359 5.687 5.316 8.273 2.869 3.59 5.943 7.037 9.067 10.414-2.929 4.258-5.763 8.595-8.429 13.027-2.209 3.798-4.649 7.573-5.918 11.81-.134.603-.278 1.26-.027 1.854-.281-.583-.169-1.26-.063-1.874 2.78-9.098 8.514-17.003 13.469-25.033l.048.576c-4.624-4.945-9.232-9.931-12.985-15.6-.598-.98-1.201-1.954-1.554-3.163-.078-.309-.145-.638-.113-1.03.012-.192.073-.412.181-.62.492-.789 1.509-.971 2.223-1.16 8.978-1.323 18.046-.511 27.057-.063l-.36.161c1.466-1.77 2.906-3.561 4.426-5.287 3.071-3.398 11.161-12.978 15.714-12.859z" style="" fill="#ffffff" data-original="#ffffff" class=""></path><path d="M378.888 323.556c-9.366 48.949-34.758 45.01-95.387 62.268-26.336 6.722-53.225 13.302-79.855 18.881-38.6 7.647-102.084 25.019-106.534-25.645-2.106-13.99-7.709-35.734 12.608-39.597-13.494-71.691 24.941-120.142 107.4-134.933l139.964 28.386c5.44 22.596 16.375 68.056 21.804 90.64z" style="" fill="#ff9d3d" data-original="#ff9d3d"></path><path d="M225.114 315.616c-38.628 27.002-96.618 31.377-96.618 31.377s-7.116-6.841-18.916-7.815c-1.772-3.724-20.278-44.24-.905-79.971 12.738-23.511 52.116-39.029 79.739-47.331 13.579-.104 31.683 2.522 46.077 14.471 26.6 22.087 29.251 62.267-9.377 89.269z" style="" fill="#ffc893" data-original="#ffc893" class=""></path><path d="M109.579 339.178c11.076-.131 21.538 6.976 26.479 16.728-6.252-8.77-15.695-15.261-26.479-16.728z" style="" fill="#ae312f" data-original="#ae312f" class=""></path><path d="M134.486 405.933c-.478 3.569-2.405 5.897-5.134 7.138-26.705-4.604-30.339-21.312-32.24-34.011-1.164-7.708-3.375-17.73-1.746-25.851 1.604-.802 3.427-1.203 5.25-1.345 20.446-1.616 29.537 25.269 32.498 39.882.945 4.63 2.006 9.467 1.372 14.187z" style="opacity:0.2;" fill="#ae312f" data-original="#ae312f" class=""></path><path d="M122.343 243.178c3.088-1.104 6.505-1.222 9.753-.613.817.143 1.611.387 2.408.614.769.313 1.567.547 2.29.96 1.507.69 2.826 1.728 4.016 2.831-1.455-.754-2.865-1.497-4.367-2.025-1.482-.559-3.004-1-4.56-1.274a32.275 32.275 0 0 0-4.718-.562c-1.591-.06-3.196-.063-4.822.069z" style="" fill="#ae312f" data-original="#ae312f" class=""></path><path d="M124.904 250.025c.356-1.305.959-2.531 1.669-3.683a17.588 17.588 0 0 1 2.541-3.186 14.13 14.13 0 0 1 3.314-2.412c1.213-.644 2.564-1.011 3.901-1.129-1.227.576-2.389 1.141-3.453 1.886-1.051.749-2.065 1.542-2.976 2.461-1.849 1.809-3.446 3.87-4.996 6.063zM101.832 351.805c1.116-7.844 9.623-12.485 16.999-10.249-7.45-.443-14.28 3.198-16.999 10.249zM120.201 361.198c-.071-5.781 4.318-12.156 10.535-12.13-5.652 1.622-8.945 6.742-10.535 12.13z" style="" fill="#ae312f" data-original="#ae312f" class=""></path><path d="M213.014 205.404c.104 1.847 2.086 5.853 3.237 2.233.371-1.202.416-2.834.54-4.089 1.037 2.311 3.725 8.608 5.278 2.957 3.893 2.981 8.279 5.498 13.036 6.838-4.759-.548-9.219-2.698-13.087-5.497l.871-.288c-1.967 4.972-5.085 1.232-6.216-1.964l.929-.149c-.48 5.558-4.597 5.74-4.588-.041zM216.813 226.237c-1.675-1.478-7.251-7.094-9.269-5.155.328 3.147 3.521 5.982 5.293 8.516-1.651-1.038-3.906-2.751-5.783-3.279-5.934-1.472-2.095 4.485.041 6.417-4.918-.417-10.614-1.53-15.099 1.055 3.868-2.94 9.329-2.322 13.929-2.175l-.406.818c-5.904-5.901-1.195-10.063 5.128-5.566l-.73.79c-1.549-1.802-6.16-8.717-.606-7.639 3.168 1.208 5.367 3.751 7.502 6.218z" style="opacity:0.48;" fill="#ae312f" data-original="#ae312f" class=""></path><path d="M190.271 335.561s-5.763-10.082-10.191-8.438c-3.17 1.177-.734 9.747-.734 9.747s-6.363-3.37-9.3-1.864c-1.906.977 1.756 4.172 1.756 4.172s-34.533 5.674-42.516 7.652l38.614 8.303 22.371-19.572z" style="" fill="#ff9d3d" data-original="#ff9d3d"></path><path d="M76.127 349.123a24.532 24.532 0 0 1-.517 3.168c-1.099.233-2.095.388-2.949.452-5.121.427-20.924-4.384-26.472-20.019-3.738-10.553-3.867-25.334-.336-34.322 1.255-.673 2.548-1.164 3.233-1.345 13.049-3.466 20.976 14.22 24.17 23.117 3.014 8.408 3.79 19.948 2.871 28.949z" style="opacity:0.2;" fill="#ae312f" data-original="#ae312f" class=""></path><path d="M52.705 290.77c10.745-2.357 22.47 3.591 24.71 14.803-3.617-10.249-14.237-15.528-24.71-14.803z" style="" fill="#ae312f" data-original="#ae312f" class=""></path><path d="M70.08 294.81c-3.678 1.099-6.543 3.485-9.155 6.216 1.26-3.68 5.166-6.73 9.155-6.216zM57.971 290.639c-2.879 1.369-5.045 3.477-6.858 6.068.298-3.288 3.49-6.288 6.858-6.068z" style="" fill="#ae312f" data-original="#ae312f" class=""></path><path d="M99.924 293.672s-5.909 3.395-5.136 4.246c.773.85 5.115-1.212 5.115-1.212s-2.627 4.031-2.582 5.671c.045 1.641 2.603-1.352 2.603-1.352l4.168 1.843-2.26-12.231-1.908 3.035z" style="" fill="#ffc893" data-original="#ffc893" class=""></path><path d="M164.889 214.552c0 18.868-15.286 34.167-34.154 34.167-18.868 0-34.153-15.298-34.153-34.167 0-2.439.029-5.014.651-7.424 1.317-5.11 6.387-8.081 10.842-10.156 5.707-2.659 11.749-4.997 17.835-6.685 6.887-1.91 14.278-3.293 21.447-3.253 1.296.007 2.61.082 3.84.491 1.635.544 2.605 1.779 3.769 2.95a34.239 34.239 0 0 1 5.156 6.657 34.193 34.193 0 0 1 4.767 17.42z" style="" fill="#ae312f" data-original="#ae312f" class=""></path><path d="M148.31 192.348a7.888 7.888 0 0 1-.672.582c-3.324 2.651-20.764 7.928-21.087 8.031-.233.077-19.028 6.401-23.282 6.13a8.11 8.11 0 0 1-.828-.077c-1.138-.168-1.836-.504-2.004-1.048-.789-2.431 9.544-7.901 23.058-12.233.776-.246 1.552-.492 2.315-.712.595-.181 1.177-.362 1.746-.517 11.704-3.362 21.118-4.384 21.829-2.198.18.542-.208 1.24-1.075 2.042z" style="" fill="#ff5555" data-original="#ff5555" class=""></path><path d="M147.638 192.93c-3.324 2.651-11.031 6.233-20.368 9.298-.323.103-.634.207-.957.31-.233.077-.479.155-.711.22-9.57 3.013-18.079 4.604-22.334 4.332 2.457-2.651 10.85-6.66 21.209-9.996.75-.233 1.487-.465 2.211-.673a73.818 73.818 0 0 1 1.655-.504c8.794-2.522 16.217-3.66 19.295-2.987z" style="" fill="#589eca" data-original="#6ce1c1" class="" opacity="1"></path><path d="m128.877 143.157-1.32 45.036-.412 14.074-1.341.431c-.339.113-.756.242-1.095.336.056-3.81.17-8.656.302-14.088.49-19.765 1.282-45.791 1.282-45.791h2.584z" style="" fill="#95c5e3" data-original="#9cf0e7" class="" opacity="1"></path><path d="M174.216 155.133c-14.465-5.488-26.403 5.073-26.403 5.073-10.467-9.713-20.142 1.641-20.99 2.678v.019a3.337 3.337 0 0 1-.057.056c-9.675-15.276-27.497-5.149-27.497-5.149-4.696-10.617-18.388-8.996-18.388-8.996 26.478-13.032 46.96-19.124 46.96-19.124.302.113.584.208.886.34h.019c21.499 7.941 45.47 25.103 45.47 25.103z" style="" fill="#ff5555" data-original="#ff5555" class=""></path><path d="M332.664 207.306c3.851 1.393 7.552 3.091 11.217 4.865 3.649 1.805 7.261 3.686 10.722 5.877-3.852-1.39-7.553-3.089-11.217-4.865-3.649-1.807-7.261-3.688-10.722-5.877zM358.8 208.8c-3.936-.4-7.8-1.133-11.645-1.947-3.839-.848-7.659-1.78-11.407-3.048 3.937.397 7.8 1.131 11.646 1.948 3.837.85 7.658 1.782 11.406 3.047zM358.629 196.192c-3.711 1.372-7.503 2.412-11.315 3.372-3.821.926-7.662 1.769-11.585 2.278 3.71-1.374 7.502-2.415 11.316-3.372 3.82-.924 7.661-1.766 11.584-2.278zM225.936 180.452c-3.691 1.775-7.495 3.228-11.327 4.603-3.843 1.342-7.716 2.604-11.703 3.541 3.69-1.777 7.494-3.23 11.327-4.602 3.845-1.341 7.717-2.602 11.703-3.542zM199.801 178.925c3.869-.825 7.771-1.311 11.682-1.714 3.914-.368 7.836-.652 11.792-.593-3.869.828-7.771 1.314-11.682 1.714-3.913.366-7.836.65-11.792.593zM201.424 166.42c3.838.96 7.556 2.24 11.246 3.598 3.677 1.39 7.325 2.86 10.852 4.653-3.839-.958-7.557-2.238-11.245-3.598-3.678-1.392-7.325-2.863-10.853-4.653z" style="" fill="#ae312f" data-original="#ae312f" class=""></path><path d="m127.84 129.692-1.018 33.193v.019a3.337 3.337 0 0 1-.057.056c-9.675-15.276-27.497-5.149-27.497-5.149s22.763-23.819 28.572-28.119zM174.216 155.133c-14.465-5.488-26.403 5.073-26.403 5.073l-.41-.901a117.023 117.023 0 0 0-13.557-22.607l-5.1-6.667c21.499 7.94 45.47 25.102 45.47 25.102zM97.714 216.615s-11.488 8.202-6.147 26.054c5.342 17.853 27.34 14.96 34.035 13.179 6.695-1.781 16.265-14.245 9.366-28.934-6.9-14.688-22.739-14.3-37.254-10.299z" style="" fill="#ff9d3d" data-original="#ff9d3d"></path><path d="M115.762 245.29c2.023-.311 4.006-.741 5.968-1.205 1.954-.494 3.893-1.032 5.756-1.762 1.865-.719 3.665-1.583 5.357-2.64 1.654-1.109 3.181-2.403 4.515-3.971-.963 1.809-2.36 3.409-4.008 4.689-1.666 1.259-3.535 2.21-5.462 2.974-1.94.735-3.953 1.242-5.985 1.568-2.032.327-4.094.471-6.141.347zM109.858 229.604c1.894-.428 3.736-.976 5.553-1.563 1.81-.609 3.585-1.295 5.294-2.114 1.716-.808 3.328-1.798 4.871-2.893 1.527-1.126 2.892-2.445 4.185-3.904-.925 1.701-2.134 3.299-3.632 4.588a22.706 22.706 0 0 1-4.937 3.224c-3.561 1.656-7.439 2.645-11.334 2.662zM190.43 407.394c-6.207 1.216-12.143 2.315-17.678 3.246.465-3.142.491-6.401.233-9.557a56.645 56.645 0 0 0-.763-5.703c-.931-4.914-2.69-9.324-4.707-13.863-1.862-4.177-4.177-10.773.336-14.109 7.578-5.6 16.592 7.371 19.282 12.816 4.241 8.639 4.668 17.924 3.297 27.17zM152.151 355.912c-4.345-5.483-11.044-8.988-15.389-10.824 5.483-1.047 15.182-2.651 22.373-3.828 11.354 12.596-.466 22.864-6.984 14.652zM204.05 349.504c-1.358-8.483-6.945-14.393-10.695-17.484 4.94-1.798 9.88-3.841 14.173-6.052 16.967 25.139-1.435 36.144-3.478 23.536zM233.248 398.148a2498.922 2498.922 0 0 1-13.01 2.974c-1.513-8.923-1.526-16.281 3.582-16.281 3.802 0 7.281 5.638 9.428 13.307zM253.228 393.389c.349-3.944.297-8.497-.582-13.32-2.703-14.794-13.333-26.679-6.246-30.429 7.087-3.751 19.372 14.794 23.342 37.826.104.608.194 1.19.285 1.772a2137.986 2137.986 0 0 1-16.799 4.151z" style="" fill="#ae312f" data-original="#ae312f" class=""></path><path d="M378.888 323.556s-5.612 35.874-29.446 43.943c-8.742 2.961-34.774 10.307-65.94 18.325-5.328-4.552-5.108-19.786-5.108-19.786s-1.371 4.643-4.112 3.647c-2.755-.996-8.82-22.139-1.345-50.073 7.811-29.149 49.555-40.18 49.555-40.18s-.375-9.208 2.069-10.54c2.431-1.319 9.078 3.556 9.078 3.556s.077-14.833 2.884-14.833c2.793 0 4.604 14.833 4.604 14.833l26.912 5.988 10.849 45.12z" style="opacity:0.2;" fill="#ae312f" data-original="#ae312f" class=""></path><path d="M269.341 241.053c-1.199 1.863-2.776 4.134-2.552 6.377 1.195 3.573 4.714.681 6.281-1.033-.647 2.46-1.335 5.257-.389 7.723 1.435 3.54 5.957 3.491 7.762.202-1.074 3.016-4.79 4.224-7.302 2.038-2.401-2.027-2.296-5.624-1.592-8.424l.925.546c-1.853 2.102-6.047 2.487-6.493-.944-.057-2.658 1.706-4.68 3.36-6.485z" style="opacity:0.48;" fill="#ae312f" data-original="#ae312f" class=""></path><circle cx="340.929" cy="358.858" r="32.224" style="" fill="#ae312f" data-original="#ae312f" class=""></circle><path d="M390.489 296.658c-.026 7.63-.893 14.238-2.444 19.01-.905 2.819-2.056 4.992-3.401 6.376-2.806 2.871-8.82 6.376-16.204 9.906-6.078 2.897-13.074 5.819-19.993 8.432-13.411 5.069-26.498 9.001-31.761 9.337-11.277.724-16.799-6.194-16.799-6.194-11.341-2.186-11.225-12.014-11.225-12.014-7.643-3.272-12.156-14.535 1.319-26.924 13.475-12.376 46.542-17.497 46.542-17.497s.129-.931.388-2.56a327.204 327.204 0 0 1 2.224-12.079c4.746-23.407 15.855-64.427 32.149-41.421 5.651 7.979 9.919 17.161 12.971 26.588 1.41 4.332 2.547 8.716 3.466 13.048 1.927 9.154 2.793 18.116 2.768 25.992z" style="" fill="#ff9d3d" data-original="#ff9d3d"></path><path d="M299.89 343.524c-.378-2.936.353-6.033 1.962-8.603.39-.653.892-1.228 1.374-1.814.564-.51 1.068-1.084 1.717-1.485 1.196-.933 2.637-1.467 4.048-1.85-1.253.791-2.469 1.549-3.495 2.533a14.17 14.17 0 0 0-2.692 3.217c-.758 1.178-1.354 2.465-1.833 3.806-.457 1.349-.844 2.742-1.081 4.196zM288.659 331.509c-1.007-2.733-1.034-5.81-.287-8.664.175-.72.458-1.407.718-2.099.349-.654.623-1.345 1.068-1.941.763-1.266 1.848-2.301 2.974-3.196-.816 1.205-1.615 2.363-2.211 3.632a18.685 18.685 0 0 0-1.46 3.892c-.368 1.337-.594 2.716-.724 4.113-.109 1.4-.162 2.818-.078 4.263zM348.446 340.381c1.293-4.371 1.953-10.165-.621-15.764-5.095-11.07-16.605-20.2-9.001-23.019 6.712-2.496 26.756 12.583 29.614 30.352-6.077 2.896-13.073 5.818-19.992 8.431zM390.489 296.658c-.026 7.63-.893 14.238-2.444 19.01-.659-.685-1.255-1.435-1.849-2.159a119.34 119.34 0 0 0-17.368-17.394c-1.461-1.19-3.078-2.586-3.13-4.474-.039-1.591 1.164-3.039 2.625-3.66 1.474-.634 3.143-.569 4.72-.285 2.457.453 4.785 1.436 7.022 2.548 3.492 1.732 7.242 3.814 10.424 6.414zM387.721 270.664h-.026c-4.448-.259-8.91-.246-13.359.039-1.578.104-3.22.233-4.72-.297-1.5-.543-2.806-1.966-2.664-3.556.129-1.28 1.125-2.276 2.121-3.091 4.138-3.375 9.815-5.548 15.182-6.143 1.41 4.332 2.548 8.716 3.466 13.048zM348.566 278.139c-3.815 3.013-7.992 5.173-12.298 6.389a327.204 327.204 0 0 1 2.224-12.079c2.664-.724 5.354-1.177 7.915-1.513.918-.116 1.849-.207 2.729.168.879.375 1.681 1.306 1.836 2.548.233 1.952-1.151 3.504-2.406 4.487z" style="" fill="#ae312f" data-original="#ae312f" class=""></path><path d="M303.344 296.451c10.411-4.743 21.358-9.623 32.969-9.963l-.529.449c1.207-7.669 2.478-15.415 5.144-22.73-2.036 7.641-3.027 15.52-4.178 23.328-11.58.34-22.574 5.136-33.406 8.916zM322.495 235.734c5.037.074 10.086-.056 15.092-.589-8.105 11.844 5.037.89 8.009-2.319-3.408 9.595 2.841 6.708 6.301 1.032 7.093.418 14.313-.163 21.255-1.761-6.772 2.128-13.942 2.99-21.04 2.748l.443-.222c-1.645 2.25-3.376 4.96-6.329 5.578-3.161.233-3.078-3.711-2.273-5.727l.902.58c-2.918 2.427-5.6 5.483-9.408 6.461-3.483-.246.146-4.813 1.05-6.134l.339.61a89.298 89.298 0 0 1-14.341-.257z" style="opacity:0.48;" fill="#ae312f" data-original="#ae312f" class=""></path><path d="M103.167 383.883c.747 2.63 2.612 4.761 4.749 5.011 1.408.165 2.841-.449 4.227-.09.695.18 1.352.601 2.059.681 1.918.22 3.535-2.254 3.712-4.76.176-2.506-.711-4.925-1.727-7.062-1.062-2.232-2.332-4.375-4.042-5.759-2.372-1.921-4.914-2.023-6.749.712-2.083 3.102-3.398 7.149-2.229 11.267zM115.967 364.476c-.752.763-.972 1.941-.765 2.992.207 1.051.788 1.993 1.458 2.829 1.003 1.253 2.385 2.392 3.99 2.392.319 0 .649-.049.921-.217.348-.214.56-.591.715-.969 1.3-3.163-2.759-10.637-6.319-7.027zM104.891 358.88c-.594 1.76-.046 3.809 1.228 5.16.384.407.833.761 1.348.98 1.704.727 3.872-.333 4.523-2.068.433-1.152.279-2.44.004-3.64-.167-.726-.381-1.457-.797-2.075-1.795-2.674-5.447-.901-6.306 1.643zM96.405 365.217c.2 1.041.85 2.563 1.772 3.131.842.518 2.083.501 2.944.025.894-.493 1.118-1.505 1.291-2.45.999-5.476-6.902-5.355-6.007-.706zM49.734 328.571c.747 2.63 2.612 4.761 4.749 5.011 1.408.165 2.841-.449 4.227-.09.696.18 1.352.6 2.059.681 1.917.22 3.536-2.254 3.712-4.759.176-2.506-.711-4.925-1.727-7.062-1.062-2.232-2.332-4.375-4.042-5.759-2.373-1.921-4.914-2.023-6.75.712-2.082 3.102-3.397 7.149-2.228 11.266zM60.731 309.405c-.752.763-.972 1.941-.765 2.992.207 1.051.788 1.993 1.458 2.829 1.003 1.253 2.385 2.392 3.99 2.392.319 0 .649-.05.921-.217.348-.214.56-.591.715-.969 1.299-3.163-2.759-10.637-6.319-7.027zM51.353 304.461c-.594 1.76-.046 3.809 1.228 5.16.384.407.833.76 1.348.98 1.704.726 3.871-.333 4.523-2.068.433-1.153.279-2.44.004-3.64-.167-.726-.381-1.456-.797-2.075-1.795-2.674-5.447-.901-6.306 1.643zM43.95 311.889c.2 1.041.85 2.562 1.772 3.131.842.518 2.083.501 2.944.025.894-.494 1.118-1.505 1.291-2.45 1-5.476-6.901-5.355-6.007-.706z" style="" fill="#ffc893" data-original="#ffc893" class=""></path></g></svg>