<svg xmlns="http://www.w3.org/2000/svg" version="1.1" xmlns:xlink="http://www.w3.org/1999/xlink" xmlns:svgjs="http://svgjs.com/svgjs" width="512" height="512" x="0" y="0" viewBox="0 0 512 512" style="enable-background:new 0 0 512 512" xml:space="preserve" class=""><g><path fill="#fd913e" d="m507 5-16.7 10.1C425.6 54.3 351.4 75 275.8 75h-39.6C160.6 75 86.4 54.3 21.7 15.1L5 5c0 52.7 15.2 104.2 43.8 148.4l4.4 6.8C22.1 197.5 5 244.5 5 293.2c0 86.5 53.7 163.9 134.7 194.3 34.6 12.9 71.2 19.6 108.1 19.6h16.3c36.9 0 73.6-6.6 108.1-19.6 81-30.3 134.7-107.7 134.7-194.3 0-48.6-17.1-95.7-48.2-132.9l4.4-6.8C491.8 109.2 507 57.7 507 5z" data-original="#ffc970" opacity="1"></path><path fill="#d87b33" d="M372.3 445.4c-34.6 12.9-71.2 19.6-108.1 19.6h-16.3c-36.9 0-73.6-6.6-108.1-19.6C65.3 417.6 14 350 6.1 272.2c-.7 7-1.1 13.9-1.1 21 0 86.5 53.7 163.9 134.7 194.3 34.6 12.9 71.2 19.6 108.1 19.6h16.3c36.9 0 73.6-6.6 108.1-19.6 81-30.3 134.7-107.7 134.7-194.3 0-7-.4-14-1.1-20.9-7.8 77.7-59.1 145.3-133.5 173.1z" data-original="#ffb233" class="" opacity="1"></path><path fill="#ebeae0" d="M256 240c-12.4 0-23.9 6.5-30.2 17.2l-8.4 14.1c-6.5 11-18.4 17.7-31.1 17.7-20 0-36.2 16.2-36.2 36.2V491c31.5 10.5 64.6 15.9 97.8 15.9h16.3c33.3 0 66.3-5.4 97.8-15.9V325.2c0-20-16.2-36.2-36.2-36.2-12.8 0-24.6-6.7-31.1-17.7l-8.4-14.1c-6.4-10.7-17.9-17.2-30.3-17.2z" data-original="#ebeae0" class=""></path><g fill="#e36414"><path d="M9.2 334.5c2.1 10.6 5.1 20.9 8.8 30.9 25.8-10.5 43.6-24.2 40.8-31.9-2.8-7.6-24.1-6.9-49.6 1zM58.7 280.6c3.1-8.4-18.5-24-48.2-34.8-2.5 10.7-4.2 21.6-5 32.7 27.2 8.8 50.4 9.9 53.2 2.1zM501.5 245.7c-29.7 10.8-51.3 26.4-48.2 34.8 2.9 7.8 26.1 6.7 53.2-2.2-.8-11-2.5-21.9-5-32.6zM453.3 333.4c-2.8 7.7 15 21.4 40.8 31.9 3.7-10 6.7-20.3 8.8-30.9-25.6-7.8-46.9-8.5-49.6-1z" fill="#a1312f" data-original="#e36414" class="" opacity="1"></path></g><path fill="#d7d5c1" d="M264.2 465h-16.3c-33.3 0-66.3-5.4-97.8-15.9v42c31.5 10.5 64.6 15.9 97.8 15.9h16.3c33.3 0 66.3-5.4 97.8-15.9v-42c-31.5 10.5-64.6 15.9-97.8 15.9z" data-original="#d7d5c1" class=""></path><path fill="#a1312f" d="M172.7 80.6c10.8 29.7 26.4 51.2 34.8 48.2 8-2.9 6.7-27.1-2.8-54.9-12-.9-23.9-2.3-35.7-4.3 1.2 3.5 2.4 7.2 3.7 11zM275.8 75H231c0 38.7 11.2 70 25 70s25-31.3 25-70h-5.2zM307.2 73.8c-9.4 27.9-10.8 52-2.8 54.9 8.4 3.1 24-18.5 34.8-48.2 1.4-3.7 2.6-7.4 3.7-11-11.8 2-23.7 3.4-35.7 4.3z" data-original="#e36414" class="" opacity="1"></path><path fill="#ebeae0" d="M53.2 160.2c1.1-1.3 2.2-2.7 3.4-4 15.9-18.1 34.2-33.5 54.3-45.8C68.7 83.2 32.6 47.3 5 5c0 52.7 15.2 104.2 43.8 148.4zM507 5a359.78 359.78 0 0 1-105.9 105.5c20.1 12.4 38.4 27.7 54.3 45.8 1.1 1.3 2.3 2.6 3.4 4l4.4-6.8C491.8 109.2 507 57.7 507 5z" data-original="#ebeae0" class=""></path><path fill="#b24e10" d="m174.168 175.395 39.962 19.981-4.47 8.94-39.962-19.98zM337.788 175.34l4.47 8.94-39.962 19.98-4.47-8.94z" data-original="#b24e10"></path><path fill="#d7d5c1" d="m217 299-76.6 49.2c-5.9-2.7-12.5-4.2-19.4-4.2-20.1 0-37.2 12.6-43.9 30.3-7.3-4.6-15.9-7.3-25.1-7.3-26 0-47 21-47 47 0 8.4 2.2 16.2 6 23-3.8 6.8-6 14.6-6 23 0 26 21 47 47 47 8.4 0 16.2-2.2 23-6 6.8 3.8 14.6 6 23 6 26 0 47-21 47-47 0-9.2-2.7-17.8-7.3-25.1C155.4 428.2 168 411 168 391c0-8.8-2.4-17-6.6-24z" data-original="#d7d5c1" class=""></path><path fill="#ebeae0" d="M52 466c-18.8 0-36.1-10.2-45.4-26.5l8.7-4.9C22.8 447.8 36.8 456 52 456zM121 443v-10c5.2 0 10.2-.9 15-2.7l3.6 9.3c-6 2.3-12.2 3.4-18.6 3.4zM79 391H69c0-6 1.1-12.6 3.4-18.5l9.3 3.6C79.9 380.8 79 386 79 391z" data-original="#ebeae0" class=""></path><path fill="#d7d5c1" d="m295 299 76.6 49.2c5.9-2.7 12.5-4.2 19.4-4.2 20.1 0 37.2 12.6 43.9 30.3 7.3-4.6 15.9-7.3 25.1-7.3 26 0 47 21 47 47 0 8.4-2.2 16.2-6 23 3.8 6.8 6 14.6 6 23 0 26-21 47-47 47-8.4 0-16.2-2.2-23-6-6.8 3.8-14.6 6-23 6-26 0-47-21-47-47 0-9.2 2.7-17.8 7.3-25.1C356.6 428.2 344 411 344 391c0-8.8 2.4-17 6.6-24z" data-original="#d7d5c1" class=""></path><path fill="#ebeae0" d="M496.6 439.4c-1.9-3.3-4.2-6.4-6.9-9.1l7.1-7.1c3.4 3.4 6.3 7.2 8.6 11.3zM434.5 505.4c-4.1-2.3-7.9-5.2-11.3-8.6l7.1-7.1c2.7 2.7 5.8 5.1 9.1 6.9zM391 443c-6.4 0-12.6-1.1-18.5-3.4l3.6-9.3c4.8 1.8 9.8 2.7 15 2.7v10zM443 391h-10c0-5-.9-10.2-2.7-15l9.3-3.6c2.3 6 3.4 12.6 3.4 18.6z" data-original="#ebeae0" class=""></path><path fill="#b24e10" d="M361 174.8h-10c0-8.3-6.7-15-15-15v-10c13.8 0 25 11.3 25 25zM381 174.8h-10c0-13.8 11.2-25 25-25v10c-8.3 0-15 6.8-15 15zM396 139.8c-13.8 0-25-11.2-25-25h10c0 8.3 6.7 15 15 15zM336 139.8v-10c8.3 0 15-6.7 15-15h10c0 13.8-11.2 25-25 25zM251 260h10v60h-10zM126.855 314.266l2.43 9.7-39.964 10.012-2.43-9.7zM89.081 284.152l39.964 10.012-2.43 9.7-39.964-10.012zM422.975 284.214l2.43 9.7-39.964 10.012-2.43-9.7zM385.025 314.285l39.964 10.012-2.43 9.7-39.964-10.012z" data-original="#b24e10"></path><path fill="#a1312f" d="M261.9 240h-11.7c-7.8 0-14.1 6.3-14.1 14.1 0 3.8 1.5 7.3 4.1 10L256 280l15.9-15.9c2.7-2.7 4.1-6.2 4.1-10 0-7.8-6.3-14.1-14.1-14.1z" data-original="#e36414" class="" opacity="1"></path><path fill="#b24e10" d="m321 374-65-47.8-65 47.8-6-8 68-50c1.8-1.3 4.2-1.3 5.9 0l68 50zM320 265c-13.8 0-25-11.2-25-25v-20h10v20c0 8.3 6.7 15 15 15s15-6.7 15-15v-20h10v20c0 13.8-11.2 25-25 25zM192 265c-13.8 0-25-11.2-25-25v-20h10v20c0 8.3 6.7 15 15 15s15-6.7 15-15v-20h10v20c0 13.8-11.2 25-25 25z" data-original="#b24e10"></path><path fill="#d7d5c1" d="M70.1 79.8 39.5 138c2.9 5.2 6 10.4 9.3 15.5l4.4 6.8c1.1-1.3 2.2-2.7 3.4-4 15.9-18.1 34.2-33.5 54.3-45.8-14.3-9.3-27.9-19.6-40.8-30.7zM441.9 79.8l30.6 58.2c-2.9 5.2-6 10.4-9.3 15.5l-4.4 6.8c-1.1-1.3-2.2-2.7-3.4-4-15.9-18.1-34.2-33.5-54.3-45.8 14.3-9.3 27.9-19.6 40.8-30.7z" data-original="#d7d5c1" class=""></path></g></svg>