<svg xmlns="http://www.w3.org/2000/svg" version="1.1" xmlns:xlink="http://www.w3.org/1999/xlink" xmlns:svgjs="http://svgjs.com/svgjs" width="512" height="512" x="0" y="0" viewBox="0 0 512 512" style="enable-background:new 0 0 512 512" xml:space="preserve" class=""><g><path fill="#fd913e" d="M299 163h158c30.5-47.2 31.1-107.8 1.5-155.6L457 5h-1.5C392.1 5 336 46.1 316.9 106.6z" data-original="#ffc970" opacity="1" class=""></path><path fill="#d87b33" d="M339.3 62.9c-9.7 12.9-17.4 27.6-22.5 43.6L299 163h158c4.5-7 8.4-14.4 11.6-21.9-34.6-38.7-79.8-65.6-129.3-78.2z" data-original="#ffb233" class="" opacity="1"></path><path fill="#d7d5c1" d="M299 163h158c30.5-47.2 31.1-107.8 1.5-155.6L457 5z" data-original="#d7d5c1" class=""></path><path fill="#fd913e" d="M213 163H55C24.5 115.8 23.9 55.2 53.5 7.4L55 5h1.5C119.9 5 176 46.1 195.1 106.6z" data-original="#ffc970" opacity="1" class=""></path><path fill="#d87b33" d="M195.1 106.6c-5.1-16-12.8-30.7-22.5-43.6-49.4 12.5-94.6 39.4-129.2 78.1 3.2 7.5 7.1 14.9 11.6 21.9h158z" data-original="#ffb233" class="" opacity="1"></path><path fill="#d7d5c1" d="M213 163H55C24.5 115.8 23.9 55.2 53.5 7.4L55 5z" data-original="#d7d5c1" class=""></path><path fill="#fd913e" d="M372.3 487.4c-34.6 12.9-71.2 19.6-108.1 19.6h-16.3c-36.9 0-73.6-6.6-108.1-19.6C58.7 457.1 5 379.7 5 293.2c0-50.4 18.3-99 51.6-136.9C102 104.6 167.4 75 236.2 75h39.6c68.8 0 134.2 29.6 179.6 81.3 33.3 37.9 51.6 86.5 51.6 136.9 0 86.5-53.7 163.9-134.7 194.2z" data-original="#ffc970" opacity="1" class=""></path><path fill="#d87b33" d="M372.3 445.4c-34.6 12.9-71.2 19.6-108.1 19.6h-16.3c-36.9 0-73.6-6.6-108.1-19.6C65.3 417.6 14 350 6.1 272.2c-.7 7-1.1 13.9-1.1 21 0 86.5 53.7 163.9 134.7 194.3 34.6 12.9 71.2 19.6 108.1 19.6h16.3c36.9 0 73.6-6.6 108.1-19.6 81-30.3 134.7-107.7 134.7-194.3 0-7-.4-14-1.1-20.9-7.8 77.7-59.1 145.3-133.5 173.1z" data-original="#ffb233" class="" opacity="1"></path><path fill="#ebeae0" d="M256 240c-12.4 0-23.9 6.5-30.2 17.2l-8.4 14.1c-6.5 11-18.4 17.7-31.1 17.7-20 0-36.2 16.2-36.2 36.2V491c31.5 10.5 64.6 15.9 97.8 15.9h16.3c33.3 0 66.3-5.4 97.8-15.9V325.2c0-20-16.2-36.2-36.2-36.2-12.8 0-24.6-6.7-31.1-17.7l-8.4-14.1c-6.4-10.7-17.9-17.2-30.3-17.2z" data-original="#ebeae0" class=""></path><path fill="#db3429" d="M256 414c-26.5 0-48-21.5-48-48v-46h96v46c0 26.5-21.5 48-48 48z" data-original="#db3429" class="" opacity="1"></path><path fill="#b3271e" d="M297.6 390c-8.3-14.3-23.8-24-41.6-24s-33.3 9.7-41.6 24c8.3 14.3 23.8 24 41.6 24s33.3-9.7 41.6-24z" data-original="#b3271e" class="" opacity="1"></path><path fill="#a1312f" d="M231 75.1c0 38.6 11.2 69.9 25 69.9s25-31.3 25-69.9c-1.7 0-3.5-.1-5.2-.1h-39.6c-1.7 0-3.5 0-5.2.1zM207.6 128.7c7.7-2.8 6.8-25.3-1.7-51.8-10.9 1.4-21.6 3.5-32.1 6.4 10.7 28.2 25.6 48.4 33.8 45.4zM306.2 77c-8.5 26.5-9.4 49-1.7 51.8 8.2 3 23.1-17.2 33.8-45.4-10.5-2.9-21.3-5.1-32.1-6.4z" data-original="#e36414" class="" opacity="1"></path><path fill="#b24e10" d="M251 260h10v60h-10z" data-original="#b24e10" class=""></path><path fill="#a1312f" d="M261.9 240h-11.7c-7.8 0-14.1 6.3-14.1 14.1 0 3.8 1.5 7.3 4.1 10L256 280l15.9-15.9c2.7-2.7 4.1-6.2 4.1-10 0-7.8-6.3-14.1-14.1-14.1z" data-original="#e36414" class="" opacity="1"></path><path fill="#b24e10" d="M304 325h-96c-13.8 0-25-11.2-25-25h10c0 8.3 6.7 15 15 15h96c8.3 0 15-6.7 15-15h10c0 13.8-11.2 25-25 25z" data-original="#b24e10" class=""></path><g fill="#e36414"><path d="M9.2 334.5c2.1 10.6 5.1 20.9 8.8 30.9 25.8-10.5 43.6-24.2 40.8-31.9-2.8-7.6-24.1-6.9-49.6 1zM58.7 280.6c3.1-8.4-18.5-24-48.2-34.8-2.5 10.7-4.2 21.6-5 32.7 27.2 8.8 50.4 9.9 53.2 2.1zM501.5 245.7c-29.7 10.8-51.3 26.4-48.2 34.8 2.9 7.8 26.1 6.7 53.2-2.2-.8-11-2.5-21.9-5-32.6zM453.3 333.4c-2.8 7.7 15 21.4 40.8 31.9 3.7-10 6.7-20.3 8.8-30.9-25.6-7.8-46.9-8.5-49.6-1z" fill="#a1312f" data-original="#e36414" class="" opacity="1"></path></g><path fill="#ebeae0" d="m48.7 152.2 20.2-21.9c21.8-23.7 25.5-58.9 9.1-86.5L55 5l-1.5 2.4c-27.4 44.2-28.9 99.4-4.8 144.8zM463.3 152.2l-20.2-21.9c-21.8-23.7-25.5-58.9-9.1-86.5L457 5l1.5 2.4c27.4 44.2 28.9 99.4 4.8 144.8z" data-original="#ebeae0" class=""></path><path fill="#d7d5c1" d="M264.2 465h-16.3c-33.3 0-66.3-5.4-97.8-15.9v42c31.5 10.5 64.6 15.9 97.8 15.9h16.3c33.3 0 66.3-5.4 97.8-15.9v-42c-31.5 10.5-64.6 15.9-97.8 15.9z" data-original="#d7d5c1" class=""></path><path fill="#b24e10" d="m66.83 314.273 2.43 9.7-39.964 10.012-2.43-9.7zM29.09 284.124l39.964 10.012-2.43 9.7-39.964-10.012zM483 284.206l2.43 9.7-39.964 10.012-2.43-9.7zM445.016 314.313l39.964 10.012-2.43 9.7-39.964-10.012zM337.8 264.5l-40-20c-1.7-.8-2.8-2.6-2.8-4.5s1.1-3.6 2.8-4.5l40-20 4.5 8.9-31.1 15.6 31.1 15.5zM174.2 264.5l-4.5-8.9 31.1-15.5-31.1-15.5 4.5-8.9 40 20c1.7.8 2.8 2.6 2.8 4.5s-1.1 3.6-2.8 4.5z" data-original="#b24e10" class=""></path><path fill="#6abdfb" d="M130 320c16.6 0 30-13.4 30-30v-30h-30c-16.6 0-30 13.4-30 30s13.4 30 30 30zM382 320c-16.6 0-30-13.4-30-30v-30h30c16.6 0 30 13.4 30 30s-13.4 30-30 30z" data-original="#6abdfb" class=""></path><circle cx="120" cy="280" r="15" fill="#9cd3fc" data-original="#9cd3fc" class=""></circle><circle cx="392" cy="280" r="15" fill="#9cd3fc" data-original="#9cd3fc" class=""></circle></g></svg>