<svg xmlns="http://www.w3.org/2000/svg" version="1.1" xmlns:xlink="http://www.w3.org/1999/xlink" xmlns:svgjs="http://svgjs.com/svgjs" width="512" height="512" x="0" y="0" viewBox="0 0 512 512" style="enable-background:new 0 0 512 512" xml:space="preserve" class=""><g><path fill="#fd913e" d="M507 95c-56.8-13.3-115-20-173.3-20H178.3C120 75 61.8 81.7 5 95l48.1 65.4C22.1 197.6 5 244.6 5 293.2c0 86.5 53.7 163.9 134.7 194.3 34.6 12.9 71.2 19.6 108.1 19.6h16.3c36.9 0 73.6-6.6 108.1-19.6 81-30.3 134.7-107.7 134.7-194.3 0-48.6-17.1-95.6-48.1-132.8z" data-original="#ffc970" opacity="1"></path><path fill="#d87b33" d="M372.3 445.4c-34.6 12.9-71.2 19.6-108.1 19.6h-16.3c-36.9 0-73.6-6.6-108.1-19.6C65.3 417.6 14 350 6.1 272.2c-.7 7-1.1 13.9-1.1 21 0 86.5 53.7 163.9 134.7 194.3 34.6 12.9 71.2 19.6 108.1 19.6h16.3c36.9 0 73.6-6.6 108.1-19.6 81-30.3 134.7-107.7 134.7-194.3 0-7-.4-14-1.1-20.9-7.8 77.7-59.1 145.3-133.5 173.1z" data-original="#ffb233" class="" opacity="1"></path><path fill="#ebeae0" d="M256 260c-12.4 0-23.9 6.5-30.2 17.2l-8.4 14.1c-6.5 11-18.4 17.7-31.1 17.7-20 0-36.2 16.2-36.2 36.2V491c31.5 10.5 64.6 15.9 97.8 15.9h16.3c33.3 0 66.3-5.4 97.8-15.9V345.2c0-20-16.2-36.2-36.2-36.2-12.8 0-24.6-6.7-31.1-17.7l-8.4-14.1c-6.4-10.7-17.9-17.2-30.3-17.2z" data-original="#ebeae0"></path><path fill="#a1312f" d="M9.2 334.5c2.1 10.6 5.1 20.9 8.8 30.9 25.8-10.5 43.6-24.2 40.8-31.9-2.8-7.6-24.1-6.9-49.6 1zM58.7 280.6c3.1-8.4-18.5-24-48.2-34.8-2.5 10.7-4.2 21.6-5 32.7 27.2 8.8 50.4 9.9 53.2 2.1zM501.5 245.7c-29.7 10.8-51.3 26.4-48.2 34.8 2.9 7.8 26.1 6.7 53.2-2.2-.8-11-2.5-21.9-5-32.6zM453.3 333.4c-2.8 7.7 15 21.4 40.8 31.9 3.7-10 6.7-20.3 8.8-30.9-25.6-7.8-46.9-8.5-49.6-1z" data-original="#e36414" class="" opacity="1"></path><path fill="#d7d5c1" d="M264.2 465h-16.3c-33.3 0-66.3-5.4-97.8-15.9v42c31.5 10.5 64.6 15.9 97.8 15.9h16.3c33.3 0 66.3-5.4 97.8-15.9v-42c-31.5 10.5-64.6 15.9-97.8 15.9z" data-original="#d7d5c1"></path><path fill="#a1312f" d="M170.8 75.1c.6 1.8 1.2 3.7 1.9 5.5 10.8 29.7 26.4 51.2 34.8 48.2 7.9-2.9 6.7-26.4-2.4-53.7h-26.9c-2.4-.1-4.9-.1-7.4 0zM256 145c13.8 0 25-31.3 25-70h-50c0 38.7 11.2 70 25 70zM333.7 75h-26.9c-9.1 27.4-10.3 50.9-2.4 53.7 8.4 3.1 24-18.5 34.8-48.2.7-1.8 1.3-3.7 1.9-5.5h-7.4z" data-original="#e36414" class="" opacity="1"></path><path fill="#ebeae0" d="M56.6 156.3c10.7-12.2 22.6-23.2 35.4-32.8L5 95l48.1 65.4c1.1-1.4 2.3-2.8 3.5-4.1zM420 123.4c12.8 9.7 24.6 20.6 35.4 32.8 1.2 1.4 2.4 2.7 3.5 4.1L507 95z" data-original="#ebeae0"></path><path fill="#1f3e75" d="M182 220h20v40h-20zM310 220h20v40h-20z" data-original="#1f3e75"></path><g fill="#ebeae0"><path d="M171.8 302.9 13.3 235.1c-.9 3.2-1.8 6.5-2.6 9.8l157.1 67.2zM498.7 235.1l-164.9 70.5 3.9 9.2 163.6-69.9c-.8-3.3-1.6-6.5-2.6-9.8zM172.3 397.8l-3.2-9.5-115.2 38.6c2.3 2.8 4.7 5.5 7.2 8.1zM458.1 426.9l-120.9-40.5-3.2 9.5L450.9 435c2.5-2.6 4.9-5.3 7.2-8.1z" fill="#ebeae0" data-original="#ebeae0"></path></g><path fill="#b24e10" d="m66.83 314.273 2.43 9.7-39.964 10.012-2.43-9.7zM29.09 284.124l39.964 10.012-2.43 9.7-39.964-10.012zM483 284.206l2.43 9.7-39.964 10.012-2.43-9.7zM445.016 314.313l39.964 10.012-2.43 9.7-39.964-10.012z" data-original="#b24e10"></path><path fill="#e25d55" d="M362 299h-11c-28.1 0-53.7-15.9-66.1-41.1-5.4-11-16.6-17.9-28.9-17.9-12.2 0-23.4 7-28.9 17.9-12.4 25.1-38 41.1-66.1 41.1h-11v101h212z" data-original="#e25d55" class=""></path><path fill="#db3429" d="M362 400V299h-11c-28.1 0-54-15.9-66-41.1-6-10.9-16.6-17.9-28.8-17.9l11.2 41.7c1.9 7.2-1.5 14.7-8.1 18L192.1 333l38.9 8.4c7.8 1.7 8.8 12.3 1.5 15.4l-21.6 9.2 49.6 16.8c6.3 2.1 10.6 8.1 10.6 14.7v2.4H362z" data-original="#db3429" class=""></path><path fill="#b3271e" d="M192 328h128v10H192zM192 361h128v10H192z" data-original="#b3271e" class=""></path></g></svg>