<svg xmlns="http://www.w3.org/2000/svg" version="1.1" xmlns:xlink="http://www.w3.org/1999/xlink" xmlns:svgjs="http://svgjs.com/svgjs" width="512" height="512" x="0" y="0" viewBox="0 0 512 512" style="enable-background:new 0 0 512 512" xml:space="preserve" class=""><g><path fill="#fd913e" d="M299.7 163h158c30.5-47.2 31.1-107.8 1.5-155.6L457.7 5h-1.5c-63.4 0-119.5 41.1-138.7 101.6z" data-original="#ffc970" opacity="1" class=""></path><path fill="#d87b33" d="M340 62.9c-9.7 12.9-17.4 27.6-22.5 43.6L299.7 163h158c4.5-7 8.4-14.4 11.6-21.9-34.7-38.7-79.8-65.6-129.3-78.2z" data-original="#ffb233" class="" opacity="1"></path><path fill="#d7d5c1" d="M299.7 163h158c30.5-47.2 31.1-107.8 1.5-155.6L457.7 5z" data-original="#d7d5c1"></path><path fill="#fd913e" d="M213.7 163h-158C25.1 115.8 24.5 55.2 54.2 7.4L55.7 5h1.5c63.4 0 119.5 41.1 138.7 101.6z" data-original="#ffc970" opacity="1" class=""></path><path fill="#d87b33" d="M195.8 106.6c-5.1-16-12.8-30.7-22.5-43.6-49.5 12.5-94.6 39.4-129.3 78.1 3.2 7.5 7.1 14.9 11.6 21.9h158z" data-original="#ffb233" class="" opacity="1"></path><path fill="#d7d5c1" d="M213.7 163h-158C25.1 115.8 24.5 55.2 54.2 7.4L55.7 5z" data-original="#d7d5c1"></path><path fill="#fd913e" d="M373 487.4c-34.6 12.9-71.2 19.6-108.1 19.6h-16.3c-36.9 0-73.6-6.6-108.1-19.6C59.3 457.1 5.7 379.7 5.7 293.2c0-50.4 18.3-99 51.6-136.9C102.6 104.6 168.1 75 236.8 75h39.6c68.8 0 134.2 29.6 179.6 81.3 33.3 37.9 51.6 86.5 51.6 136.9.1 86.5-53.6 163.9-134.6 194.2z" data-original="#ffc970" opacity="1" class=""></path><path fill="#d87b33" d="M373 445.4c-34.6 12.9-71.2 19.6-108.1 19.6h-16.3c-36.9 0-73.6-6.6-108.1-19.6C66 417.6 14.6 350 6.7 272.2c-.7 6.9-1.1 13.9-1.1 20.9 0 86.5 53.7 163.9 134.7 194.3 34.6 12.9 71.2 19.6 108.1 19.6h16.3c36.9 0 73.6-6.6 108.1-19.6 81-30.3 134.7-107.7 134.7-194.3 0-7-.4-14-1.1-20.9-7.7 77.8-59.1 145.4-133.4 173.2z" data-original="#ffb233" class="" opacity="1"></path><path fill="#ebeae0" d="M256.7 240c-12.4 0-23.9 6.5-30.2 17.2l-8.4 14.1c-6.5 11-18.4 17.7-31.1 17.7-20 0-36.2 16.2-36.2 36.2V491c31.5 10.5 64.6 15.9 97.8 15.9h16.3c33.3 0 66.3-5.4 97.8-15.9V325.2c0-20-16.2-36.2-36.2-36.2-12.8 0-24.6-6.7-31.1-17.7l-8.4-14.1c-6.5-10.7-17.9-17.2-30.3-17.2z" data-original="#ebeae0" class=""></path><path fill="#a1312f" d="M231.7 75.1c0 38.6 11.2 69.9 25 69.9s25-31.3 25-69.9c-1.7 0-3.5-.1-5.2-.1h-39.6c-1.8 0-3.5 0-5.2.1zM208.2 128.7c7.7-2.8 6.8-25.3-1.7-51.8-10.9 1.4-21.6 3.5-32.1 6.4 10.8 28.2 25.6 48.4 33.8 45.4zM306.8 77c-8.5 26.5-9.4 49-1.7 51.8 8.2 3 23.1-17.2 33.8-45.4-10.5-2.9-21.2-5.1-32.1-6.4z" data-original="#e36414" class="" opacity="1"></path><path fill="#b24e10" d="M252 260h10v60h-10zM127.52 314.31l2.43 9.7-39.964 10.012-2.43-9.7zM89.683 284.139l39.964 10.012-2.43 9.7-39.964-10.012zM423.64 284.258l2.43 9.7-39.964 10.012-2.43-9.7zM385.627 314.273l39.964 10.012-2.43 9.7-39.964-10.012z" data-original="#b24e10"></path><path fill="#a1312f" d="M262.5 240h-11.7c-7.8 0-14.1 6.3-14.1 14.1 0 3.8 1.5 7.3 4.1 10l15.9 15.9 15.9-15.9c2.7-2.7 4.1-6.2 4.1-10 0-7.8-6.4-14.1-14.2-14.1z" data-original="#e36414" class="" opacity="1"></path><path fill="#b24e10" d="M217.7 260h-10v-20c0-8.3-6.7-15-15-15s-15 6.7-15 15v20h-10v-20c0-13.8 11.2-25 25-25s25 11.2 25 25zM345.7 260h-10v-20c0-8.3-6.7-15-15-15s-15 6.7-15 15v20h-10v-20c0-13.8 11.2-25 25-25s25 11.2 25 25z" data-original="#b24e10"></path><g fill="#e36414"><path d="M9.8 334.5c2.1 10.6 5.1 20.9 8.8 30.9 25.8-10.5 43.6-24.2 40.8-31.9-2.7-7.6-24-6.9-49.6 1zM59.4 280.6c3.1-8.4-18.5-24-48.2-34.8-2.5 10.7-4.2 21.6-5 32.7 27.1 8.8 50.3 9.9 53.2 2.1zM502.1 245.7c-29.7 10.8-51.3 26.4-48.2 34.8 2.9 7.8 26.1 6.7 53.2-2.2-.8-11-2.4-21.9-5-32.6zM453.9 333.4c-2.8 7.7 15 21.4 40.8 31.9 3.7-10 6.7-20.3 8.8-30.9-25.6-7.8-46.8-8.5-49.6-1z" fill="#a1312f" data-original="#e36414" class="" opacity="1"></path></g><path fill="#ebeae0" d="m49.3 152.2 20.2-21.9c21.8-23.7 25.5-58.9 9.1-86.5L55.7 5l-1.5 2.4c-27.4 44.2-29 99.4-4.9 144.8zM464 152.2l-20.2-21.9c-21.8-23.7-25.5-58.9-9.1-86.5l23-38.7 1.5 2.4c27.3 44.1 28.9 99.3 4.8 144.7z" data-original="#ebeae0" class=""></path><path fill="#d7d5c1" d="M264.8 465h-16.3c-33.3 0-66.5-5.4-97.5-15.9v42c31 10.5 64.2 15.9 97.5 15.9h16.3c33.3 0 66.2-5.4 98.2-15.9v-42c-32 10.5-64.9 15.9-98.2 15.9z" data-original="#d7d5c1"></path><path fill="#1f3e75" d="m281.7 75-100-70-25 116.7c-2.6 12 6.6 23.3 18.8 23.3 46.2 0 88-27.5 106.2-70z" data-original="#1f3e75"></path><path fill="#2a539d" d="m281.7 75-100-70L171 54.6c-6.2 29.1 14.3 57.1 44 60 28.4 2.7 55.4-13.3 66.7-39.6z" data-original="#2a539d" class=""></path><path fill="#e25d55" d="m221.7 33-46.2.8-2.2 10 62.3-1zM248.6 51.9 162 96.7l-2.7 12.6 98.6-50.9z" data-original="#e25d55" class=""></path><path fill="#1f3e75" d="M232.7 320h214v26h-214z" data-original="#1f3e75"></path><path fill="#db3429" d="M446.7 346h-113c-7.2 0-13-5.8-13-13s5.8-13 13-13h113z" data-original="#db3429" class=""></path><path fill="#b3271e" d="M446.7 346h-82c-7.2 0-13-5.8-13-13s5.8-13 13-13h82z" data-original="#b3271e" class=""></path><path fill="#e25d55" d="M487.2 220h-100c-11 0-20 28.2-20 63s9 63 20 63h100c11 0 20-28.2 20-63s-9-63-20-63z" data-original="#e25d55" class=""></path><ellipse cx="387.2" cy="283" fill="#db3429" rx="20" ry="63" data-original="#db3429" class=""></ellipse><path fill="#b3271e" d="M383 260h10v46h-10z" data-original="#b3271e" class=""></path><path fill="#e25d55" d="M60.3 69h-28c0 17.9-7.1 35.1-19.8 47.8L4.3 125h28l8.2-8.2C53.2 104.1 60.3 86.9 60.3 69z" data-original="#e25d55" class=""></path><path fill="#db3429" d="M423.2 409h-28c0 17.9-7.1 35.1-19.8 47.8l-8.2 8.2h28l8.2-8.2c12.6-12.7 19.8-29.9 19.8-47.8z" data-original="#db3429" class=""></path><path fill="#2a539d" d="M4.3 220h28c0 17.9 7.1 35.1 19.8 47.8l8.2 8.2h-28l-8.2-8.2C11.5 255.1 4.3 237.9 4.3 220zM351.7 125h28c0 17.9 7.1 35.1 19.8 47.8l8.2 8.2h-28l-8.2-8.2a67.594 67.594 0 0 1-19.8-47.8z" data-original="#2a539d" class=""></path><path fill="#ebeae0" d="M208.7 381c26.5 0 48-21.5 48-48s-21.5-48-48-48" data-original="#ebeae0" class=""></path><path fill="#b24e10" d="M209 386v-10c23 0 43-19.3 43-43s-20-43-43-43v-10c29 0 53 23.8 53 53s-24 53-53 53z" data-original="#b24e10"></path></g></svg>