<svg xmlns="http://www.w3.org/2000/svg" version="1.1" xmlns:xlink="http://www.w3.org/1999/xlink" xmlns:svgjs="http://svgjs.com/svgjs" width="512" height="512" x="0" y="0" viewBox="0 0 512 512" style="enable-background:new 0 0 512 512" xml:space="preserve" class=""><g><path fill="#fd913e" d="M507 95c-56.8-13.3-115-20-173.3-20H178.3C120 75 61.8 81.7 5 95l48.1 65.4C22.1 197.6 5 244.6 5 293.2c0 86.5 53.7 163.9 134.7 194.3 34.6 12.9 71.2 19.6 108.1 19.6h16.3c36.9 0 73.6-6.6 108.1-19.6 81-30.3 134.7-107.7 134.7-194.3 0-48.6-17.1-95.6-48.1-132.8z" data-original="#ffc970" opacity="1" class=""></path><path fill="#d87b33" d="M372.3 445.4c-34.6 12.9-71.2 19.6-108.1 19.6h-16.3c-36.9 0-73.6-6.6-108.1-19.6C65.3 417.6 14 350 6.1 272.2c-.7 7-1.1 13.9-1.1 21 0 86.5 53.7 163.9 134.7 194.3 34.6 12.9 71.2 19.6 108.1 19.6h16.3c36.9 0 73.6-6.6 108.1-19.6 81-30.3 134.7-107.7 134.7-194.3 0-7-.4-14-1.1-20.9-7.8 77.7-59.1 145.3-133.5 173.1z" data-original="#ffb233" class="" opacity="1"></path><path fill="#ebeae0" d="M256 240c-12.4 0-23.9 6.5-30.2 17.2l-8.4 14.1c-6.5 11-18.4 17.7-31.1 17.7-20 0-36.2 16.2-36.2 36.2V491c31.5 10.5 64.6 15.9 97.8 15.9h16.3c33.3 0 66.3-5.4 97.8-15.9V325.2c0-20-16.2-36.2-36.2-36.2-12.8 0-24.6-6.7-31.1-17.7l-8.4-14.1c-6.4-10.7-17.9-17.2-30.3-17.2z" data-original="#ebeae0" class=""></path><g fill="#e36414"><path d="M9.2 334.5c2.1 10.6 5.1 20.9 8.8 30.9 25.8-10.5 43.6-24.2 40.8-31.9-2.8-7.6-24.1-6.9-49.6 1zM58.7 280.6c3.1-8.4-18.5-24-48.2-34.8-2.5 10.7-4.2 21.6-5 32.7 27.2 8.8 50.4 9.9 53.2 2.1zM501.5 245.7c-29.7 10.8-51.3 26.4-48.2 34.8 2.9 7.8 26.1 6.7 53.2-2.2-.8-11-2.5-21.9-5-32.6zM453.3 333.4c-2.8 7.7 15 21.4 40.8 31.9 3.7-10 6.7-20.3 8.8-30.9-25.6-7.8-46.9-8.5-49.6-1z" fill="#a1312f" data-original="#e36414" class="" opacity="1"></path></g><path fill="#d7d5c1" d="M264.2 465h-16.3c-33.3 0-66.3-5.4-97.8-15.9v42c31.5 10.5 64.6 15.9 97.8 15.9h16.3c33.3 0 66.3-5.4 97.8-15.9v-42c-31.5 10.5-64.6 15.9-97.8 15.9z" data-original="#d7d5c1" class=""></path><path fill="#a1312f" d="M170.8 75.1c.6 1.8 1.2 3.7 1.9 5.5 10.8 29.7 26.4 51.2 34.8 48.2 7.9-2.9 6.7-26.4-2.4-53.7h-26.9c-2.4-.1-4.9-.1-7.4 0zM256 145c13.8 0 25-31.3 25-70h-50c0 38.7 11.2 70 25 70zM333.7 75h-26.9c-9.1 27.4-10.3 50.9-2.4 53.7 8.4 3.1 24-18.5 34.8-48.2.7-1.8 1.3-3.7 1.9-5.5h-7.4z" data-original="#e36414" class="" opacity="1"></path><path fill="#ebeae0" d="M56.6 156.3c10.7-12.2 22.6-23.2 35.4-32.8L5 95l48.1 65.4c1.1-1.4 2.3-2.8 3.5-4.1zM420 123.4c12.8 9.7 24.6 20.6 35.4 32.8 1.2 1.4 2.4 2.7 3.5 4.1L507 95z" data-original="#ebeae0" class=""></path><path fill="#b24e10" d="M251 260h10v60h-10zM126.855 314.265l2.43 9.7-39.964 10.012-2.43-9.7zM89.081 284.152l39.964 10.012-2.43 9.7-39.964-10.012zM422.975 284.214l2.43 9.7-39.964 10.012-2.43-9.7zM385.025 314.285l39.964 10.012-2.43 9.7-39.964-10.012z" data-original="#b24e10" class=""></path><path fill="#a1312f" d="M261.9 240h-11.7c-7.8 0-14.1 6.3-14.1 14.1 0 3.8 1.5 7.3 4.1 10L256 280l15.9-15.9c2.7-2.7 4.1-6.2 4.1-10 0-7.8-6.3-14.1-14.1-14.1z" data-original="#e36414" class="" opacity="1"></path><path fill="#b24e10" d="M320 265c-13.8 0-25-11.2-25-25v-20h10v20c0 8.3 6.7 15 15 15s15-6.7 15-15v-20h10v20c0 13.8-11.2 25-25 25zM192 265c-13.8 0-25-11.2-25-25v-20h10v20c0 8.3 6.7 15 15 15s15-6.7 15-15v-20h10v20c0 13.8-11.2 25-25 25z" data-original="#b24e10" class=""></path><circle cx="256" cy="345" r="25" fill="#db3429" data-original="#db3429"></circle><path fill="#ffffff" d="M454 70h-60c-2 0-3.8-1.2-4.6-3.1s-.3-4 1.1-5.4L441.9 10H394V0h60c2 0 3.8 1.2 4.6 3.1s.3 4-1.1 5.4L406.1 60H454zM410 160h-60c-2 0-3.8-1.2-4.6-3.1s-.3-4 1.1-5.4L398 100h-48V90h60c2 0 3.8 1.2 4.6 3.1s.3 4-1.1 5.4L362.1 150H410zM430 220h-40c-2 0-3.8-1.2-4.6-3.1s-.3-4 1.1-5.4L418 180h-28v-10h40c2 0 3.8 1.2 4.6 3.1s.3 4-1.1 5.4L402.1 210H430z" data-original="#1f3e75" class="" opacity="1"></path></g></svg>