<svg id="Capa_1" enable-background="new 0 0 512 512" height="512" viewBox="0 0 512 512" width="512" xmlns="http://www.w3.org/2000/svg"><g><path d="m256 16c-141.385 0-256 93.125-256 208 0 103.526 93.087 189.386 214.963 205.342 4.226.553 5.968 5.727 2.954 8.741l-44.727 44.727c-4.867 4.867-1.42 13.19 5.463 13.19h61.347c150.221 0 272-121.778 272-272 0-114.875-114.615-208-256-208z" fill="#80d261"/><g fill="#68ca44"><path d="m232.274 303.453c0 4.267 3.459 7.726 7.726 7.726s7.726-3.459 7.726-7.726v-48c0-13.083-10.643-23.726-23.726-23.726s-23.726 10.643-23.726 23.726v48c0 4.267 3.459 7.726 7.726 7.726s7.726-3.459 7.726-7.726v-24.274h16.547v24.274zm-16.548-39.727v-8.274c0-4.562 3.712-8.274 8.274-8.274s8.274 3.712 8.274 8.274v8.274z"/><path d="m368 295.726h-24.274v-16.547h8.274c4.267 0 7.726-3.459 7.726-7.726s-3.459-7.726-7.726-7.726h-8.274v-16.547h24.274c4.267 0 7.726-3.459 7.726-7.726s-3.459-7.726-7.726-7.726h-32c-4.267 0-7.726 3.459-7.726 7.726v64c0 4.267 3.459 7.726 7.726 7.726h32c4.267 0 7.726-3.459 7.726-7.726 0-4.268-3.459-7.728-7.726-7.728z"/><path d="m208 327.726h-32c-4.267 0-7.726 3.459-7.726 7.726v64c0 4.267 3.459 7.726 7.726 7.726s7.726-3.459 7.726-7.726v-24.274h8.274c4.267 0 7.726-3.459 7.726-7.726s-3.459-7.726-7.726-7.726h-8.274v-16.547h24.274c4.267 0 7.726-3.459 7.726-7.726s-3.459-7.727-7.726-7.727z"/><path d="m272 327.726c-4.267 0-7.726 3.459-7.726 7.726v48c0 4.562-3.712 8.274-8.274 8.274s-8.274-3.712-8.274-8.274v-48c0-4.267-3.459-7.726-7.726-7.726s-7.726 3.459-7.726 7.726v48c0 13.083 10.643 23.726 23.726 23.726s23.726-10.643 23.726-23.726v-48c0-4.266-3.459-7.726-7.726-7.726z"/><path d="m168.274 303.453c0 4.267 3.459 7.726 7.726 7.726s7.726-3.459 7.726-7.726v-64c0-4.267-3.459-7.726-7.726-7.726s-7.726 3.459-7.726 7.726v24.274h-16.547v-24.274c0-4.267-3.459-7.726-7.726-7.726s-7.726 3.459-7.726 7.726v64c0 4.267 3.459 7.726 7.726 7.726s7.726-3.459 7.726-7.726v-24.274h16.547z"/><path d="m336 327.726c-4.267 0-7.726 3.459-7.726 7.726v31.271l-17.363-34.726c-1.603-3.205-5.2-4.889-8.686-4.064-3.487.823-5.951 3.936-5.951 7.52v64c0 4.267 3.459 7.726 7.726 7.726s7.726-3.459 7.726-7.726v-31.271l17.363 34.726c1.33 2.66 4.034 4.272 6.908 4.272.589-.001 1.185-.068 1.777-.208 3.487-.823 5.951-3.936 5.951-7.52v-64c.001-4.266-3.458-7.726-7.725-7.726z"/><path d="m305.874 231.957c-4.134-1.033-8.335 1.482-9.369 5.622l-8.505 34.017-8.505-34.017c-1.035-4.14-5.233-6.659-9.369-5.622-4.14 1.035-6.657 5.23-5.622 9.369l16 64c.86 3.44 3.95 5.853 7.495 5.853s6.636-2.413 7.495-5.853l16-64c1.037-4.139-1.48-8.334-5.62-9.369z"/><path d="m317.311 198.059-56.656-119.626c-1.86-3.928-7.45-3.928-9.31 0l-56.656 119.626c-1.391 2.938.253 6.414 3.406 7.202l1.687.422c36.91 9.228 75.525 9.228 112.435 0l1.687-.422c3.154-.788 4.798-4.264 3.407-7.202z"/><path d="m368.791 37.225c61.953 37.962 102.002 98.267 102.002 166.172 0 150.221-121.778 272-272 272h-18.189l-7.414 7.414c-4.867 4.867-1.42 13.19 5.463 13.19h61.347c150.221 0 272-121.778 272-272 0-81.988-58.382-152.895-143.209-186.776z"/></g><path d="m317.39 177.622-12.283-25.936-12.872-3.16 6.447-10.406-6.173-13.035-12.475-2.32 6.05-11.246-6.173-13.035-12.324-2.003 5.899-11.563-12.966-27.377c-1.806-3.813-7.232-3.813-9.038 0l-21.871 46.18.766 7.797-10.463 12.678-9.318 19.674 3.147 5.233-12.844 15.242-6.287 13.275c-.795 1.678-.569 3.537.375 4.939.66.98 12.745-.837 14.004-.522h5.228c6.117 1.529-2.154 5.846 4.041 6.868 31.187 5.147 63.166 3.871 93.96-3.827l1.866-.466c3.058-.764 4.654-4.139 3.304-6.99z" fill="#fe9738"/><path d="m251.481 57.541-7.275 15.36 42.084 88.859c1.731 3.655-.935 7.866-4.978 7.866-27.957 6.989-56.892 8.685-85.324 5.086l-1.378 2.909c-1.35 2.851.245 6.226 3.306 6.991l1.866.466c36.91 9.228 75.525 9.228 112.435 0l1.866-.466c3.061-.765 4.657-4.139 3.306-6.991l-12.283-25.936-10.486-.773 4.061-12.793-6.173-13.035-10.228-.23 3.803-13.336-6.173-13.035-9.938.383 3.513-13.949-12.966-27.377c-1.806-3.812-7.232-3.812-9.038.001z" fill="#fe860a"/><g fill="#fff"><path d="m232.5 288c0 4.142 3.358 7.5 7.5 7.5s7.5-3.358 7.5-7.5v-48c0-12.958-10.542-23.5-23.5-23.5s-23.5 10.542-23.5 23.5v48c0 4.142 3.358 7.5 7.5 7.5s7.5-3.358 7.5-7.5v-24.5h17zm-17-39.5v-8.5c0-4.687 3.813-8.5 8.5-8.5s8.5 3.813 8.5 8.5v8.5z"/><path d="m368 280.5h-24.5v-17h8.5c4.142 0 7.5-3.358 7.5-7.5s-3.358-7.5-7.5-7.5h-8.5v-17h24.5c4.142 0 7.5-3.358 7.5-7.5s-3.358-7.5-7.5-7.5h-32c-4.142 0-7.5 3.358-7.5 7.5v64c0 4.142 3.358 7.5 7.5 7.5h32c4.142 0 7.5-3.358 7.5-7.5s-3.358-7.5-7.5-7.5z"/><path d="m208 312.5h-32c-4.142 0-7.5 3.358-7.5 7.5v64c0 4.142 3.358 7.5 7.5 7.5s7.5-3.358 7.5-7.5v-24.5h8.5c4.142 0 7.5-3.358 7.5-7.5s-3.358-7.5-7.5-7.5h-8.5v-17h24.5c4.142 0 7.5-3.358 7.5-7.5s-3.358-7.5-7.5-7.5z"/><path d="m272 312.5c-4.142 0-7.5 3.358-7.5 7.5v48c0 4.687-3.813 8.5-8.5 8.5s-8.5-3.813-8.5-8.5v-48c0-4.142-3.358-7.5-7.5-7.5s-7.5 3.358-7.5 7.5v48c0 12.958 10.542 23.5 23.5 23.5s23.5-10.542 23.5-23.5v-48c0-4.142-3.358-7.5-7.5-7.5z"/><path d="m168.5 288c0 4.142 3.358 7.5 7.5 7.5s7.5-3.358 7.5-7.5v-64c0-4.142-3.358-7.5-7.5-7.5s-7.5 3.358-7.5 7.5v24.5h-17v-24.5c0-4.142-3.358-7.5-7.5-7.5s-7.5 3.358-7.5 7.5v64c0 4.142 3.358 7.5 7.5 7.5s7.5-3.358 7.5-7.5v-24.5h17z"/><path d="m336 312.5c-4.142 0-7.5 3.358-7.5 7.5v32.229l-17.792-35.583c-1.555-3.111-5.046-4.744-8.431-3.945s-5.777 3.821-5.777 7.299v64c0 4.142 3.358 7.5 7.5 7.5s7.5-3.358 7.5-7.5v-32.229l17.792 35.583c1.291 2.583 3.916 4.147 6.706 4.147.571 0 1.15-.066 1.725-.202 3.385-.799 5.777-3.821 5.777-7.299v-64c0-4.142-3.358-7.5-7.5-7.5z"/><path d="m305.819 216.724c-4.013-1.005-8.09 1.438-9.095 5.457l-8.724 34.896-8.724-34.896c-1.004-4.019-5.08-6.465-9.095-5.457-4.019 1.004-6.462 5.077-5.457 9.095l16 64c.834 3.339 3.834 5.681 7.276 5.681s6.441-2.342 7.276-5.681l16-64c1.005-4.018-1.439-8.09-5.457-9.095z"/></g><g><g><g><path d="m273.485 84.918-43.875 18.803-9.697 20.476 59.997-25.713z" fill="#0067c5"/></g><g><path d="m298.681 138.12-103.696 44.441c.66.98 1.671 1.737 2.931 2.052l1.866.466c6.117 1.529 12.281 2.805 18.476 3.827l86.848-37.221z" fill="#0067c5"/></g><g><path d="m292.508 125.085-6.425-13.566-75.488 32.352-9.697 20.476z" fill="#0067c5"/></g></g></g><g><g><g><path d="m210.145 176.064-15.159 6.497c.66.98 1.671 1.737 2.931 2.052l1.866.466c6.117 1.529 12.281 2.805 18.476 3.827l32.049-13.735c-13.343 1.46-26.781 1.758-40.163.893z" fill="#0055a3"/></g><g><path d="m298.681 138.12-19.607 8.403 6.425 13.566 19.607-8.403z" fill="#0055a3"/></g><g><path d="m273.485 84.918-19.608 8.403 6.425 13.566 19.608-8.403z" fill="#0055a3"/></g><g><path d="m292.508 125.085-6.425-13.566-19.607 8.403 6.425 13.566z" fill="#0055a3"/></g></g></g><path d="m327.434 103.502c-2.592 0-5.113-1.345-6.502-3.751-2.071-3.587-.842-8.174 2.745-10.245l13.856-8c3.587-2.071 8.174-.843 10.245 2.745 2.071 3.587.842 8.174-2.745 10.245l-13.856 8c-1.181.681-2.471 1.006-3.743 1.006z" fill="#fee903"/><path d="m352.001 135.5h-16c-4.142 0-7.5-3.358-7.5-7.5s3.358-7.5 7.5-7.5h16c4.142 0 7.5 3.358 7.5 7.5s-3.358 7.5-7.5 7.5z" fill="#fee903"/><path d="m303.993 80.075c-1.272 0-2.562-.324-3.743-1.006-3.587-2.071-4.816-6.658-2.745-10.245l8-13.856c2.071-3.587 6.657-4.818 10.245-2.745 3.587 2.071 4.816 6.658 2.745 10.245l-8 13.856c-1.389 2.405-3.91 3.751-6.502 3.751z" fill="#fee903"/><path d="m184.566 103.502c-1.272 0-2.562-.324-3.743-1.006l-13.856-8c-3.587-2.071-4.816-6.658-2.745-10.245s6.658-4.816 10.245-2.745l13.856 8c3.587 2.071 4.816 6.658 2.745 10.245-1.389 2.405-3.91 3.751-6.502 3.751z" fill="#fee903"/><path d="m175.999 135.5h-16c-4.142 0-7.5-3.358-7.5-7.5s3.358-7.5 7.5-7.5h16c4.142 0 7.5 3.358 7.5 7.5s-3.358 7.5-7.5 7.5z" fill="#fee903"/><path d="m208.007 80.075c-2.592 0-5.113-1.345-6.502-3.751l-8-13.856c-2.071-3.587-.842-8.174 2.745-10.245 3.586-2.072 8.173-.843 10.245 2.745l8 13.856c2.071 3.587.842 8.174-2.745 10.245-1.181.682-2.471 1.006-3.743 1.006z" fill="#fee903"/></g></svg>