<svg viewBox="0 0 512 512" xmlns="http://www.w3.org/2000/svg"><g><path d="M184 280a32 32 0 0 0-32-32h-24l-8-16H88l8.706 26.119A32 32 0 0 0 127.064 280H136l48 128h48z" fill="#f7cca9"></path><path d="M448 200v-80a96 96 0 0 0-96-96 96 96 0 0 0-96 96v80a32 32 0 0 0-32 32v16a32 32 0 0 0 32 32h192a32 32 0 0 0 32-32v-16a32 32 0 0 0-32-32z" fill="#ad6643"></path><path d="M440 264H276.38a32 32 0 0 0-29 18.468L200 376l40 32 40-48v128h192V296a32 32 0 0 0-32-32z" fill="#f7b030"></path><path d="M280 368a8 8 0 0 1-8-8v-32a8 8 0 0 1 16 0v32a8 8 0 0 1-8 8zM408 488V328a8 8 0 0 1 16 0v160z" fill="#eba72e"></path><path d="M424 392h48v96h-48z" fill="#f7cca9"></path><g fill="#edc4a2"><path d="M288 184a32 32 0 0 1-32-32 32 32 0 0 1 32-32h8v64zM416 120a32 32 0 0 1 32 32 32 32 0 0 1-32 32h-8v-64zM328 216h48v48a16 16 0 0 1-16 16h-16a16 16 0 0 1-16-16v-48z" fill="#edc4a2"></path></g><path d="m384 88-96 32v48a64 64 0 0 0 64 64 64 64 0 0 0 64-64v-48z" fill="#f7cca9"></path><circle cx="320" cy="152" fill="#4f5659" r="8"></circle><circle cx="384" cy="152" fill="#4f5659" r="8"></circle><path d="M232 328H88L72 488h176z" fill="#c7312e"></path><path d="M192 328H48L32 488h176z" fill="#eb423f"></path><path d="M97.7 260.73a23.171 23.171 0 0 0-2.67 2.3A23.851 23.851 0 0 0 88 280v64a8 8 0 0 1-16 0v-64a39.766 39.766 0 0 1 11.71-28.29 40.876 40.876 0 0 1 7.01-5.59 7.476 7.476 0 0 1 1.72-.81l4.27 12.81q.45 1.335.99 2.61zM160 352a8 8 0 0 1-8-8v-64a23.992 23.992 0 0 0-24-24 8 8 0 0 1 0-16 39.991 39.991 0 0 1 40 40v64a8 8 0 0 1-8 8z" fill="#4f5659"></path></g></svg>