<svg viewBox="0 0 64 64" xmlns="http://www.w3.org/2000/svg"><g><path d="M6 52h52a2 2 0 0 0 2-2V14a2 2 0 0 0-2-2H6a2 2 0 0 0-2 2v36a2 2 0 0 0 2 2z" fill="#0a5078"></path><path d="M32 33c-5.523 0-10 4.477-10 10a10 10 0 0 0 5.637 9h8.727A10.002 10.002 0 0 0 42 43c0-5.523-4.477-10-10-10z" fill="#00325a"></path><path d="M9 48h46a1 1 0 0 0 1-1V17a1 1 0 0 0-1-1H9a1 1 0 0 0-1 1v30a1 1 0 0 0 1 1z" fill="#00a0c8"></path><path d="M34 16h1v8h-1z" fill="#0082aa"></path><path d="m35.707 7.293-3-3a.999.999 0 0 0-1.414 0l-3 3A1 1 0 0 0 29 9h1v15h4V9h1a1.002 1.002 0 0 0 .707-1.707z" fill="#c80a50"></path><path d="M36 56h-8v-4h8zM20 58h24a2 2 0 0 0-2-2H22a2 2 0 0 0-2 2z" fill="#0a5078"></path><path d="M36 53h-8v-1h8z" fill="#00325a"></path><path d="M13 20h15a4 4 0 0 1 4 4v24H12V21a1 1 0 0 1 1-1z" fill="#f0f0f0"></path><path d="M32 33c-5.523 0-10 4.477-10 10a10 10 0 0 0 5.637 9h8.727A10.002 10.002 0 0 0 42 43c0-5.523-4.477-10-10-10z" fill="#00325a"></path><path d="M13 20h15a4 4 0 0 1 4 4v24H12V21a1 1 0 0 1 1-1z" fill="#f0f0f0"></path><path d="M22 43c0 1.822.487 3.529 1.338 5H32V33c-5.523 0-10 4.477-10 10zM36 20h10l6 6v22H32V24a4 4 0 0 1 4-4z" fill="#d2d2d2"></path><path d="M46 20v5a1 1 0 0 0 1 1h5z" fill="#f0f0f0"></path><path d="M27 26H17a1 1 0 0 1 0-2h10a1 1 0 0 1 0 2zM27 30H17a1 1 0 0 1 0-2h10a1 1 0 0 1 0 2zM27 34H17a1 1 0 0 1 0-2h10a1 1 0 0 1 0 2zM27 38H17a1 1 0 0 1 0-2h10a1 1 0 0 1 0 2zM27 42H17a1 1 0 0 1 0-2h10a1 1 0 0 1 0 2zM27 46H17a1 1 0 0 1 0-2h10a1 1 0 0 1 0 2z" fill="#d2d2d2"></path><circle cx="32" cy="42" fill="#00a0c8" r="9"></circle><path d="M32 32c-5.523 0-10 4.477-10 10s4.477 10 10 10 10-4.477 10-10-4.477-10-10-10zm7.938 9H35.98c-.104-2.613-.61-4.931-1.362-6.559A8.022 8.022 0 0 1 39.938 41zM32 49.95c-.607-.478-1.806-2.866-1.979-6.95h3.958c-.173 4.084-1.372 6.472-1.979 6.95zM30.021 41c.173-4.084 1.372-6.472 1.979-6.95.607.478 1.806 2.866 1.979 6.95zm-.64-6.559c-.751 1.628-1.257 3.946-1.361 6.559h-3.957a8.02 8.02 0 0 1 5.318-6.559zM24.062 43h3.957c.104 2.613.61 4.931 1.362 6.559A8.023 8.023 0 0 1 24.062 43zm10.557 6.559c.752-1.629 1.258-3.946 1.362-6.559h3.957a8.023 8.023 0 0 1-5.319 6.559z" fill="#0a5078"></path><path d="M34 12h1v4h-1z" fill="#00325a"></path></g></svg>