<svg viewBox="0 0 512 512" xmlns="http://www.w3.org/2000/svg"><g><path d="M28.793 32.43a7.498 7.498 0 1 0-14.652 3.195l24.18 110.86a7.503 7.503 0 0 0 7.32 5.906 7.54 7.54 0 0 0 1.605-.176 7.5 7.5 0 0 0 5.73-8.926zM149.984 122.129l-24.18-110.86a7.5 7.5 0 0 0-14.656 3.195l24.184 110.864a7.503 7.503 0 0 0 7.32 5.902c.528 0 1.067-.054 1.602-.175a7.5 7.5 0 0 0 5.73-8.926zm0 0" fill="#594f69"></path><path d="M52.965 143.234c3.156 14.47-6.914 24.637-21.383 27.793-14.473 3.157-27.86-1.894-31.016-16.363s7.301-23.922 21.77-27.078c14.469-3.152 27.473 1.18 30.629 15.648zM149.973 122.074c3.156 14.469-6.914 24.64-21.383 27.793-14.473 3.156-27.86-1.894-31.016-16.363s7.301-23.922 21.77-27.078 27.472 1.18 30.629 15.648zM130.094 30.93 18.43 55.285l-5.563-25.504a6.893 6.893 0 0 1 5.266-8.203L116.324.16a6.897 6.897 0 0 1 8.207 5.266zm0 0" fill="#685c79"></path><path d="M327.41 250.148 154.77 422.79c-18.098 18.11-47.458 18.11-65.56 0a46.337 46.337 0 0 1-8.94-12.527.118.118 0 0 0-.02-.063c-8.36-17.27-5.371-38.648 8.96-52.969l172.642-172.64zm0 0" fill="#ff2c5c"></path><path d="M327.41 250.148 154.77 422.79c-18.098 18.11-47.458 18.11-65.56 0a46.337 46.337 0 0 1-8.94-12.527.118.118 0 0 0-.02-.063c0-.031-.02-.05-.027-.078 17.207 8.16 38.398 5.117 52.636-9.11L305.5 228.372l.012-.121zm0 0" fill="#e62753"></path><path d="m199.934 328.094-16.028-16.028a4.121 4.121 0 0 1 0-5.828l37.88-37.879a4.121 4.121 0 0 1 5.827 0l16.028 16.028a4.121 4.121 0 0 1 0 5.828l-37.88 37.879a4.121 4.121 0 0 1-5.827 0zm0 0" fill="#685c79"></path><path d="m224.7 309.152-21.852-21.851 18.941-18.942a4.121 4.121 0 0 1 5.828 0l16.024 16.028a4.121 4.121 0 0 1 0 5.828zm0 0" fill="#ffd659"></path><path d="M398.07 237.766c-38.218 38.218-69.492 68.914-131.12 7.285-61.63-61.633-30.934-92.903 7.284-131.121 38.22-38.223 79.086-59.32 131.121-7.285 52.036 52.035 30.934 92.902-7.285 131.12zm0 0" fill="#685c79"></path><path d="M405.355 106.645c-3.902-3.903-7.738-7.383-11.52-10.485 38.282 46.625 17.587 84.246-17.769 119.602-35.793 35.797-65.496 64.984-119.75 17.918 3.188 3.675 6.723 7.46 10.633 11.37 61.63 61.63 92.903 30.934 131.121-7.284s59.32-79.086 7.285-131.121zm0 0" fill="#594f69"></path><g fill="#50475e"><path d="M315.785 143.188a7.497 7.497 0 0 0-10.605 0 7.497 7.497 0 0 0 0 10.605 7.497 7.497 0 0 0 10.605 0 7.497 7.497 0 0 0 0-10.606zM342.297 169.7a7.497 7.497 0 0 0-10.606 0 7.497 7.497 0 0 0 0 10.605 7.497 7.497 0 0 0 10.606 0 7.497 7.497 0 0 0 0-10.606zM368.813 196.215a7.497 7.497 0 0 0-10.606 0 7.497 7.497 0 0 0 0 10.605 7.497 7.497 0 0 0 10.606 0 7.497 7.497 0 0 0 0-10.605zM399.613 138.543c-2.93-2.926-7.68-2.926-10.605 0a7.502 7.502 0 0 0 0 10.61c2.926 2.925 7.676 2.925 10.605 0a7.502 7.502 0 0 0 0-10.61zM373.484 112.414a7.497 7.497 0 0 0-10.605 0 7.502 7.502 0 0 0 0 10.61 7.504 7.504 0 0 0 10.605 0 7.502 7.502 0 0 0 0-10.61zM311.14 227.012c-2.925-2.926-7.675-2.926-10.605 0a7.502 7.502 0 0 0 0 10.61c2.93 2.925 7.68 2.925 10.606 0a7.502 7.502 0 0 0 0-10.61zM285.012 200.883c-2.926-2.926-7.676-2.926-10.606 0a7.502 7.502 0 0 0 0 10.61 7.497 7.497 0 0 0 10.606 0 7.502 7.502 0 0 0 0-10.61zM348.012 110.96a7.497 7.497 0 0 0-10.606 0 7.497 7.497 0 0 0 0 10.606 7.497 7.497 0 0 0 10.606 0 7.497 7.497 0 0 0 0-10.605zM374.523 137.473c-2.925-2.926-7.675-2.926-10.605 0a7.502 7.502 0 0 0 0 10.609c2.93 2.926 7.68 2.926 10.605 0a7.502 7.502 0 0 0 0-10.61zM401.04 163.988a7.497 7.497 0 0 0-10.606 0 7.497 7.497 0 0 0 0 10.606 7.497 7.497 0 0 0 10.605 0 7.497 7.497 0 0 0 0-10.606zM283.559 175.41a7.497 7.497 0 0 0-10.606 0 7.497 7.497 0 0 0 0 10.606 7.497 7.497 0 0 0 10.606 0 7.497 7.497 0 0 0 0-10.606zM310.074 201.926a7.502 7.502 0 0 0-10.61 0 7.497 7.497 0 0 0 0 10.605 7.502 7.502 0 0 0 10.61 0 7.504 7.504 0 0 0 0-10.605zM336.586 228.441a7.497 7.497 0 0 0-10.606 0 7.497 7.497 0 0 0 0 10.606 7.497 7.497 0 0 0 10.606 0 7.497 7.497 0 0 0 0-10.606zM371.21 166.945a7.497 7.497 0 0 0-10.605 0 7.497 7.497 0 0 0 0 10.606 7.497 7.497 0 0 0 10.606 0 7.497 7.497 0 0 0 0-10.606zM398.086 193.816a7.502 7.502 0 0 0-10.61 0 7.497 7.497 0 0 0 0 10.606 7.502 7.502 0 0 0 10.61 0c2.926-2.926 2.926-7.676 0-10.606zM318.184 113.914a7.502 7.502 0 0 0-10.61 0 7.504 7.504 0 0 0 0 10.606 7.502 7.502 0 0 0 10.61 0 7.504 7.504 0 0 0 0-10.606zM345.082 140.816a7.497 7.497 0 0 0-10.605 0 7.497 7.497 0 0 0 0 10.606 7.497 7.497 0 0 0 10.605 0 7.497 7.497 0 0 0 0-10.606zM339.543 198.613a7.497 7.497 0 0 0-10.605 0c-2.93 2.93-2.93 7.676 0 10.606s7.675 2.93 10.605 0a7.497 7.497 0 0 0 0-10.606zM366.414 225.484a7.504 7.504 0 0 0-10.605 0 7.502 7.502 0 0 0 0 10.61 7.504 7.504 0 0 0 10.605 0 7.502 7.502 0 0 0 0-10.61zM286.512 145.582a7.497 7.497 0 0 0-10.606 0 7.497 7.497 0 0 0 0 10.606 7.497 7.497 0 0 0 10.606 0 7.497 7.497 0 0 0 0-10.606zM313.414 172.484a7.497 7.497 0 0 0-10.605 0 7.497 7.497 0 0 0 0 10.606 7.497 7.497 0 0 0 10.605 0 7.497 7.497 0 0 0 0-10.606zm0 0" fill="#50475e"></path></g><path d="m232.957 192.117-9.328 30.27 65.773 65.773 30.48-9.117zm0 0" fill="#ffd659"></path><path d="m267.555 266.313 31.015-8.583 21.313 21.313-30.48 9.117zm0 0" fill="#ffbd54"></path><path d="M412.012 346.75a7.501 7.501 0 0 0-9.707 4.273L361.21 456.79a7.499 7.499 0 0 0 4.277 9.707c.89.348 1.809.512 2.715.512a7.5 7.5 0 0 0 6.992-4.785l41.09-105.766a7.501 7.501 0 0 0-4.273-9.707zM504.563 382.707a7.501 7.501 0 0 0-9.708 4.273l-41.093 105.766a7.499 7.499 0 0 0 4.277 9.707c.89.348 1.809.512 2.711.512a7.509 7.509 0 0 0 6.996-4.785l41.09-105.766a7.501 7.501 0 0 0-4.274-9.707zm0 0" fill="#e62753"></path><path d="m502.078 409.813-106.531-41.391L405 344.09a6.894 6.894 0 0 1 8.922-3.93l93.68 36.399a6.894 6.894 0 0 1 3.93 8.921zM375.14 462.145c-5.355 13.78-19.347 16.687-33.132 11.335-13.781-5.355-22.14-16.945-16.785-30.73s19.273-15.883 33.054-10.523c13.786 5.351 22.215 16.132 16.864 29.918zM467.754 498.125c-5.36 13.8-19.371 16.715-33.172 11.352-13.8-5.364-22.172-16.97-16.809-30.77 5.364-13.805 19.297-15.902 33.098-10.539 13.805 5.363 22.246 16.156 16.883 29.957zm0 0" fill="#ff2c5c"></path></g></svg>