<svg viewBox="0 0 64 64" xmlns="http://www.w3.org/2000/svg"><g><g fill="#7a8899"><path d="M4 17h4v2H4zM1 23h4v2H1zM4 29h4v2H4zM1 50h62v2H1z" fill="#7a8899"></path></g><path d="m19.214 34.936-3.037-3.012.078-.129-.881-.472-2.667 4.445-7.238.452a.5.5 0 0 0-.469.5V40a.5.5 0 0 0 .5.5h8.513a2.384 2.384 0 0 0 1.8-.831l3.787-4.406z" fill="#2462b3"></path><path d="M35.5 28.25h-5.286l-.869-2.171A9.9 9.9 0 0 0 26.5 22.16l-1.351-1.126a11.739 11.739 0 0 0-5.861-2.605l-2.517-.36a2.376 2.376 0 0 0-1.952.611L8.91 24.165a.5.5 0 0 0-.051.679l1.875 2.344a.5.5 0 0 0 .341.184.5.5 0 0 0 .37-.113l5.411-4.509 1.977.659-3.224 5.8a3.3 3.3 0 0 0 .863 4.227l6.29 4.892-1.815 9.072a.5.5 0 0 0 .49.6h3.282a.5.5 0 0 0 .476-.349l2.9-9.109A2.358 2.358 0 0 0 27.354 36l-4.34-3.616 1.879-3.372 2.051 2.873a2.363 2.363 0 0 0 2.228.975l6.39-.8a.5.5 0 0 0 .438-.5v-2.81a.5.5 0 0 0-.5-.5z" fill="#2970cc"></path><circle cx="27.396" cy="17.989" fill="#e69e45" r="3.781"></circle><path d="M63 29 49 16v5H38v16h11v5z" fill="#d9575d"></path></g></svg>