<svg viewBox="0 0 512 512" xmlns="http://www.w3.org/2000/svg"><g><ellipse cx="381.952" cy="69.345" fill="#ffd15c" rx="11.733" ry="5.333" transform="rotate(-76.32 381.964 69.347)"></ellipse><ellipse cx="318.314" cy="70.239" fill="#ffd15c" rx="11.733" ry="5.333" transform="rotate(76.32 318.323 70.242)"></ellipse><path d="M381.867 53.333 380.8 64s-1.067 24.533-5.333 34.133v35.2h-48l-1.067-32s-6.4-20.267-6.4-35.2c0 0-4.267-16-3.2-25.6s17.067-21.333 30.933-23.467c12.8-3.199 38.4-3.199 34.134 36.267z" fill="#ffd15c"></path><path d="M320 65.067s-1.067-10.667 0-16 3.2-14.933 8.533-19.2c5.333-4.267 13.867-8.533 25.6-6.4 10.667 2.133 14.933 3.2 19.2 8.533s1.067 5.333 4.267 8.533c3.2 3.2 1.067 20.267 2.133 22.4h1.067s2.133-5.333 4.267-16c2.133-10.667 0-25.6-7.467-36.267S320 2.133 315.733 25.6c-3.2 16 2.133 27.733 3.2 32S320 65.067 320 65.067z" fill="#415a6b"></path><path d="M344.533 112c-14.933-4.267-19.2-12.8-19.2-12.8v1.067l1.067 28.8c10.667-1.067 22.4-3.2 29.867-7.467 16-8.533 19.2-23.467 19.2-23.467-2.134 4.267-16 17.067-30.934 13.867z" fill="#f7b64c"></path><path d="m368 230.4 16-98.133h-33.067l-39.466 5.333 18.133 92.8z" fill="#ced6e0"></path><path d="M361.6 230.4v-14.933c0-10.667 0-36.267-1.067-42.667-1.067-6.4-6.4-14.933-6.4-17.067v-6.4l-7.467-1.067-1.066 8.534s-4.267 8.533-6.4 17.067c-1.067 9.6-1.067 39.467-1.067 39.467l8.533 18.133H361.6V230.4z" fill="#f05540"></path><path d="M339.2 138.667s7.467 13.867 7.467 17.067c0 0 5.333-1.067 8.533 0 0 0 7.467-12.8 11.733-14.933v-3.2c0-3.201-23.466-10.668-27.733 1.066z" fill="#f3705a"></path><path d="M375.467 113.067s-1.067 4.267-4.267 7.467c-3.2 3.2-20.267 11.733-20.267 11.733l22.4 21.333 9.6-26.667s-4.266-11.733-7.466-13.866z" fill="#f3f3f3"></path><path d="M467.2 230.4c-3.2-20.267-7.467-39.467-8.533-42.667-3.2-5.333-5.333-21.333-9.6-32C444.8 145.067 438.4 144 438.4 144L416 154.667c-7.467 20.267 7.467 65.067 10.667 75.733H467.2z" fill="#415a6b"></path><path d="M283.733 230.4h64c-3.2-7.467-7.467-17.067-11.733-23.467-9.6-16-18.133-69.333-18.133-69.333l-3.2-9.6S291.2 139.733 281.6 144c-9.6 4.267-17.067 7.467-17.067 7.467s12.8 38.4 16 57.6c3.2 3.2 3.2 11.733 3.2 21.333zM429.867 230.4c-10.667-36.267 8.533-85.333 8.533-85.333-18.133-4.267-49.067-19.2-49.067-19.2-1.067 20.267-11.733 67.2-11.733 67.2S368 208 359.467 230.4h70.4z" fill="#344a5e"></path><path d="M372.267 182.4c-2.133 10.667-8.533 32-13.867 48h7.467c5.333-12.8 12.8-26.667 17.067-33.067 7.467-12.8 12.8-33.067 14.933-41.6 3.2-9.6 3.2-12.8 3.2-12.8l-9.6-7.467h5.333s-5.333-6.4-7.467-8.533c-2.133-2.133-7.467-5.333-8.533-7.467s-1.067-2.133-3.2-3.2c0 0 1.067 7.467 1.067 11.733-1.067 4.268-2.134 38.401-6.4 54.401zM310.4 168.533c4.267 9.6 23.467 45.867 33.067 61.867h7.467c0-1.067-1.067-2.133-1.067-3.2-5.333-9.6-21.333-65.067-22.4-74.667-1.067-9.6-2.133-35.2-2.133-35.2-5.333 8.533-16 11.733-18.133 19.2h4.267l-9.6 6.4c-.001 1.067 4.265 14.934 8.532 25.6zM286.933 230.4c-1.067-7.467-3.2-14.933-4.267-22.4-4.267-19.2-16-57.6-16-57.6s-3.2-1.067-6.4 8.533-10.667 43.733-11.733 55.467c0 2.133-1.067 8.533-1.067 17.067h39.467V230.4z" fill="#415a6b"></path><path d="M326.4 115.2s17.067 13.867 24.533 17.067c0 0-13.867 11.733-19.2 21.333 0 0-4.267-11.733-6.4-14.933-2.133-3.2-3.2-5.333-3.2-6.4s1.067-12.8 4.267-17.067z" fill="#f3f3f3"></path><path d="M372.267 182.4c-2.133 10.667-8.533 32-13.867 48h7.467c5.333-12.8 12.8-26.667 17.067-33.067 7.467-12.8 12.8-33.067 14.933-41.6 3.2-9.6 3.2-12.8 3.2-12.8l-9.6-7.467h5.333s-5.333-6.4-7.467-8.533c-2.133-2.133-7.467-5.333-8.533-7.467s-1.067-2.133-3.2-3.2c0 0 1.067 7.467 1.067 11.733-1.067 4.268-2.134 38.401-6.4 54.401zM310.4 168.533c4.267 9.6 23.467 45.867 33.067 61.867h7.467c0-1.067-1.067-2.133-1.067-3.2-5.333-9.6-21.333-65.067-22.4-74.667-1.067-9.6-2.133-35.2-2.133-35.2-5.333 8.533-16 11.733-18.133 19.2h4.267l-9.6 6.4c-.001 1.067 4.265 14.934 8.532 25.6zM286.933 230.4c-1.067-7.467-3.2-14.933-4.267-22.4-4.267-19.2-16-57.6-16-57.6s-3.2-1.067-6.4 8.533-10.667 43.733-11.733 55.467c0 2.133-1.067 8.533-1.067 17.067h39.467V230.4z" fill="#415a6b"></path><path d="M494.933 245.333h-278.4l-17.066-41.6H512z" fill="#e8eae9"></path><path d="M241.067 245.333h228.267v256H241.067z" fill="#ced6e0"></path><path d="M427.733 314.667v132.267c-13.867 0-25.6 11.733-25.6 25.6H310.4c0-13.867-11.733-25.6-25.6-25.6V314.667c13.867 0 25.6-11.733 25.6-25.6h91.733c-1.066 13.866 10.667 25.6 25.6 25.6z" fill="#e8eae9"></path><path d="M71.467 397.867s0 17.067-1.067 23.467l-1.067 6.4 62.933-6.4s-3.2-8.533-3.2-18.133v-9.6l-57.599 4.266z" fill="#ffd15c"></path><ellipse cx="137.653" cy="376.578" fill="#ffd15c" rx="14.933" ry="6.4" transform="rotate(-83.875 137.654 376.576)"></ellipse><ellipse cx="64.103" cy="377.391" fill="#ffd15c" rx="14.933" ry="6.4" transform="rotate(83.875 64.101 377.39)"></ellipse><path d="m203.733 512-10.667-30.933c-5.333-14.933-18.133-26.667-33.067-32-8.533-3.2-17.067-6.4-19.2-9.6-2.133-2.133-3.2-5.333-5.333-7.467h-67.2c-2.133 3.2-3.2 5.333-5.333 7.467-3.2 3.2-10.667 7.467-19.2 9.6-14.933 5.333-27.733 17.066-33.066 32L0 512h203.733z" fill="#4abaa5"></path><path d="M133.333 421.333S135.466 428.8 137.6 432c2.133 3.2 3.2 6.4 3.2 6.4s-2.133-3.2-8.533-4.267c-6.4-1.067-29.867 0-29.867 0s-23.467-1.067-29.867 0C66.133 435.2 64 438.4 64 438.4s1.067-3.2 3.2-6.4 4.267-10.667 4.267-10.667c-1.067-8.533 61.866-8.533 61.866 0z" fill="#66c6b9"></path><path d="M68.267 397.867c0 19.2 65.067 19.2 65.067 0 1.067-8.533 2.133-21.333 5.333-26.667 4.267-7.467 7.467-56.533-38.4-56.533S57.6 363.733 61.867 371.2c3.2 4.267 5.333 18.133 6.4 26.667z" fill="#415a6b"></path><path d="M226.133 397.867s0 17.067-1.067 23.467l-1.067 6.4 62.933-6.4s-3.2-8.533-3.2-18.133v-9.6l-57.599 4.266z" fill="#ffd15c"></path><ellipse cx="291.252" cy="376.509" fill="#ffd15c" rx="14.933" ry="6.4" transform="rotate(-83.875 291.253 376.506)"></ellipse><ellipse cx="217.796" cy="377.478" fill="#ffd15c" rx="14.933" ry="6.4" transform="rotate(83.875 217.793 377.477)"></ellipse><path d="m357.333 512-10.667-30.933c-5.333-14.933-18.133-26.667-33.067-32-8.533-3.2-17.067-6.4-19.2-9.6-2.133-2.133-3.2-5.333-5.333-7.467h-67.2c-2.133 3.2-3.2 5.333-5.333 7.467-3.2 3.2-10.667 7.467-19.2 9.6-14.933 5.333-27.733 17.067-33.067 32L153.6 512h203.733z" fill="#f05540"></path><path d="M286.933 421.333S289.066 428.8 291.2 432c2.133 3.2 3.2 6.4 3.2 6.4s-2.133-3.2-8.533-4.267c-6.4-1.067-29.867 0-29.867 0s-23.467-1.067-29.867 0c-6.4 1.067-8.533 4.267-8.533 4.267s1.067-3.2 3.2-6.4 4.267-10.667 4.267-10.667c0-8.533 61.866-8.533 61.866 0z" fill="#f3705a"></path><path d="M221.867 397.867c0 19.2 65.067 19.2 65.067 0 1.067-8.533 2.133-21.333 5.333-26.667 4.267-7.467 7.467-56.533-38.4-56.533s-42.667 49.067-38.4 56.533c4.266 4.267 6.4 18.133 6.4 26.667z" fill="#415a6b"></path><path d="M379.733 397.867s0 17.067-1.067 23.467l-1.067 6.4 62.933-6.4s-3.2-8.533-3.2-18.133v-9.6l-57.599 4.266z" fill="#ffd15c"></path><ellipse cx="445.922" cy="376.564" fill="#ffd15c" rx="14.933" ry="6.4" transform="rotate(-83.875 445.922 376.56)"></ellipse><ellipse cx="372.506" cy="377.376" fill="#ffd15c" rx="14.933" ry="6.4" transform="rotate(83.875 372.502 377.377)"></ellipse><path d="m512 512-10.667-30.933c-5.333-14.933-18.133-26.667-33.067-32-8.533-3.2-17.067-6.4-19.2-9.6-2.133-2.133-3.2-5.333-5.333-7.467h-67.2c-2.133 3.2-3.2 5.333-5.333 7.467-3.2 3.2-10.667 7.467-19.2 9.6-14.933 5.333-27.733 17.067-33.067 32L308.267 512H512z" fill="#344a5e"></path><path d="M441.6 421.333s2.133 7.467 4.267 10.667c2.133 3.2 3.2 6.4 3.2 6.4s-2.133-3.2-8.533-4.267c-6.4-1.067-29.867 0-29.867 0s-23.467-1.067-29.867 0c-6.4 1.067-8.533 4.267-8.533 4.267s1.067-3.2 3.2-6.4 4.267-10.667 4.267-10.667c-1.067-8.533 61.866-8.533 61.866 0z" fill="#415a6b"></path><path d="M376.533 397.867c0 19.2 65.067 19.2 65.067 0 1.067-8.533 2.133-21.333 5.333-26.667 4.267-7.467 7.467-56.533-38.4-56.533s-42.667 49.067-38.4 56.533c4.267 4.267 5.334 18.133 6.4 26.667z" fill="#415a6b"></path><path d="M199.467 21.333v101.333c0 11.733-9.6 21.333-21.333 21.333H172.8v39.467L100.267 144H21.333C9.6 144 0 134.4 0 122.667V21.333C0 9.6 9.6 0 21.333 0h156.8c11.734 0 21.334 9.6 21.334 21.333z" fill="#f3705a"></path><circle cx="44.8" cy="71.467" fill="#ffffff" r="17.067"></circle><circle cx="100.267" cy="71.467" fill="#ffffff" r="17.067"></circle><circle cx="154.667" cy="71.467" fill="#ffffff" r="17.067"></circle></g></svg>