<svg clip-rule="evenodd" fill-rule="evenodd" height="512" stroke-linejoin="round" stroke-miterlimit="2" viewBox="0 0 267 267" width="512" xmlns="http://www.w3.org/2000/svg"><path d="m155.137 28.992c-.994.068-1.895.606-2.428 1.449-.532.842-.63 1.888-.265 2.815.833 2.112 1.288 4.409 1.287 6.803v.001c0 12.148 0 27.831-.047 39.976v.012c0 8.105-5.231 15.095-12.647 17.569-1.279.427-2.14 1.626-2.135 2.975.004 1.349.873 2.542 2.156 2.96 1.36.444 2.785.754 4.26.913.009.001.018.002.027.003 2.74.272 5.48.508 8.22.707h.001c3.017.219 5.874 1.437 8.121 3.463l7.817 7.046c3.784 3.412 9.534 3.412 13.318 0 0 0 7.844-7.073 7.844-7.073 2.242-2.021 5.093-3.238 8.102-3.46h.002c2.738-.204 5.477-.444 8.215-.721.007-.001.014-.002.021-.003 10.638-1.15 18.701-10.132 18.701-20.833.038-9.997.038-22.923.038-32.936.001-10.727-8.085-19.729-18.751-20.875-.009-.001-.018-.002-.027-.003-17.278-1.703-34.553-1.975-51.83-.788z" fill="#33dfb1"/><path d="m162.75 28.564c-2.537.111-5.075.254-7.613.428-.994.068-1.895.606-2.428 1.449-.532.842-.63 1.888-.265 2.815.833 2.112 1.288 4.409 1.287 6.803v.001c0 12.148 0 27.831-.047 39.976v.012c0 8.105-5.231 15.095-12.647 17.569-1.279.427-2.14 1.626-2.135 2.975.004 1.349.873 2.542 2.156 2.96 1.36.444 2.785.754 4.26.913.009.001.018.002.027.003 2.74.272 5.48.508 8.22.707h.001c.837.061 1.663.199 2.466.409 7.368-4.327 12.236-12.329 12.236-21.369.047-12.14.047-27.833.047-39.989 0-5.907-2.074-11.372-5.565-15.662z" fill="#27cd9f"/><path d="m135.368 195.43-.088-.149-.055-.095c.018.031.037.063.055.095.041.069.069.118.088.149 1.087 1.835 2.387 3.501 3.857 4.973.55.55 1.283.874 2.056.912l.335-.002c8.747-.502 17.269-3.044 24.878-7.437 0 0 15.178-8.763 15.178-8.763 1.357-.783 1.924-2.451 1.326-3.899-.225-.545-.487-1.077-.785-1.593-1.79-3.1-4.737-5.361-8.194-6.288-3.457-.926-7.14-.441-10.239 1.348 0 0-27.589 15.929-27.589 15.929-1.224.707-1.822 2.148-1.456 3.515.064.238.816 1.608.633 1.305z" fill="#ff9898"/><path d="m141.257 195.074c-1.229.07-2.302.856-2.74 2.006-.439 1.15-.161 2.451.708 3.322 4.731 4.736 11.23 7.467 18.103 7.399 1.43-.015 2.892-.029 4.334-.044 9.675-.096 19.162-2.689 27.542-7.527 0 0 38.603-22.287 38.603-22.287 1.367-.789 1.931-2.474 1.314-3.926-.287-.679-.618-1.343-.99-1.988-2.407-4.168-6.371-7.21-11.02-8.456s-9.603-.593-13.771 1.813c0 0-24.597 14.201-39.971 23.077-6.763 3.905-14.337 6.164-22.112 6.611z" fill="#ffb4b4"/><path d="m88.267 230.68-.639-.066s32.251 6.736 55.516 11.596c15.815 3.303 32.294.663 46.286-7.415 16.933-9.776 40.36-23.302 54.768-31.62 4.169-2.407 7.21-6.371 8.456-11.02 1.246-4.65.594-9.603-1.813-13.772-2.407-4.168-6.371-7.21-11.02-8.456-4.649-1.245-9.603-.593-13.771 1.814 0 0-24.597 14.2-39.971 23.077-7.448 4.3-15.88 6.604-24.48 6.69l-4.333.043c-6.849.068-13.204-3.559-16.628-9.49-.787-1.363-1.605-2.78-2.432-4.212-1.708-2.959-1.766-6.59-.152-9.602 1.614-3.011 4.67-4.975 8.08-5.191 0 0 29.347-1.859 29.347-1.859 9.677-.056 17.504-7.917 17.504-17.607v-.003c0-9.724-7.883-17.607-17.608-17.607-16.294 0-42.791.09-60.519.156-12.552.045-24.878 3.346-35.773 9.58-12.776 7.309-28.605 16.365-28.605 16.365-.721.412-1.248 1.095-1.465 1.898-.217.802-.105 1.657.311 2.377l36.235 62.761 2.706 1.563z" fill="#ffd1d1"/><path d="m156.814 58.641h42.714c1.724 0 3.125-1.401 3.125-3.125 0-1.725-1.401-3.125-3.125-3.125h-42.714c-1.725 0-3.125 1.4-3.125 3.125 0 1.724 1.4 3.125 3.125 3.125z" fill="#e9ecfd"/><path d="m156.814 81.869h34.7c1.725 0 3.125-1.4 3.125-3.125 0-1.724-1.4-3.125-3.125-3.125h-34.7c-1.725 0-3.125 1.401-3.125 3.125 0 1.725 1.4 3.125 3.125 3.125z" fill="#e9ecfd"/><path d="m168.293 75.619h-11.479c-1.725 0-2.647 1.401-2.647 3.125 0 1.725.922 3.125 2.647 3.125h11.462c.007-2.013.012-4.107.017-6.25z" fill="#ced5f9"/><path d="m168.314 52.391h-11.5c-1.725 0-2.647 1.4-2.647 3.125 0 1.724.922 3.125 2.647 3.125h11.498c.001-2.115.002-4.206.002-6.25z" fill="#ced5f9"/><path d="m54.097 162.121c-1.366-2.366-3.616-4.093-6.255-4.8s-5.451-.337-7.817 1.029l-15.81 9.128c-10.066 5.811-13.515 18.683-7.703 28.75 7.781 13.477 18.991 32.893 26.772 46.371 5.812 10.066 18.684 13.515 28.75 7.703 5.553-3.206 11.498-6.638 15.81-9.127 2.366-1.366 4.092-3.616 4.8-6.256.707-2.639.337-5.451-1.03-7.817z" fill="#eaeefe"/><path d="m30.174 164.037-5.959 3.441c-10.066 5.811-13.515 18.683-7.703 28.75l26.772 46.371c5.812 10.066 18.684 13.515 28.75 7.703l5.959-3.44-8.888-15.394-4.269-1.144c-2.629 1.518-5.996.616-7.514-2.013s-.616-5.996 2.014-7.514c1.494-.863 2.006-2.774 1.143-4.269z" fill="#00a1ff"/><path d="m73.063 105.583h.001c3.811.276 7.422 1.815 10.26 4.374l9.49 8.556c4.34 3.913 10.935 3.913 15.274 0 0 0 9.524-8.588 9.524-8.588 2.832-2.553 6.433-4.091 10.236-4.371 0-.001.001-.001.002-.001 3.318-.247 6.637-.538 9.955-.874.007-.001.014-.001.021-.002 12.577-1.361 22.108-11.979 22.108-24.629.047-12.14.047-27.832.047-39.988.002-12.682-9.559-23.326-22.169-24.68-.009-.001-.018-.002-.027-.003-24.893-2.454-49.781-2.456-74.67.048-.007.001-.014.001-.021.002-12.585 1.352-22.126 11.974-22.126 24.631-.047 12.143-.047 27.835-.047 39.987-.001 12.676 9.55 23.316 22.152 24.678.01.001.019.002.028.003 3.32.329 6.641.615 9.962.857z" fill="#00d5f6"/><path d="m72.084 49.082h56.735c1.725 0 3.125-1.4 3.125-3.125s-1.4-3.125-3.125-3.125h-56.735c-1.725 0-3.125 1.4-3.125 3.125s1.4 3.125 3.125 3.125z" fill="#e9ecfd"/><path d="m72.084 77.285h46.091c1.725 0 3.125-1.401 3.125-3.125 0-1.725-1.4-3.125-3.125-3.125h-46.091c-1.725 0-3.125 1.4-3.125 3.125 0 1.724 1.4 3.125 3.125 3.125z" fill="#e9ecfd"/><path d="m56.211 215.384c-5.617 3.243-7.544 10.436-4.301 16.052 3.242 5.616 10.435 7.544 16.051 4.301 5.617-3.243 7.544-10.435 4.301-16.052-3.242-5.616-10.435-7.543-16.051-4.301z" fill="#556388"/></svg>