<svg viewBox="0 0 512 512" xmlns="http://www.w3.org/2000/svg"><g><path d="M150 480c-10.5 5.2-19.5 9.8-30 15-10.5-5.2-19.5-9.8-30-15v-30c0-12.4 7.6-23.2 18.5-27.7 19.6-8.1 41.5 6.3 41.5 27.7 0 8.6 15 15 15 15s-15 6.5-15 15z" fill="#00ddc1"></path><path d="M322.5 390c-20.7 0-37.5 16.8-37.5 37.5 0 8.7-15 26.3-15 26.3s15 17.5 15 26.3c13.1 5.2 24.4 9.8 37.5 15 13.1-5.2 24.4-9.8 37.5-15v-52.5c0-20.8-16.8-37.6-37.5-37.6z" fill="#009884"></path><path d="M225 427.5c0-20.7-16.8-37.5-37.5-37.5-20.8 0-37.5 16.9-37.5 37.5V480c13.1 5.2 24.4 9.8 37.5 15 13.1-5.2 24.4-9.8 37.5-15 0-8.7 15-26.3 15-26.3s-15-17.5-15-26.2z" fill="#00b9a0"></path><path d="M225 120v360l15 15 15-15 15-180-15-180-15-15z" fill="#0a617d"></path><path d="m285 120-15-15-15 15v360l15 15 15-15V120z" fill="#08475e"></path><path d="M130 0c-21.7 16.3-67.2 50.4-80 60 21.7 16.3 67.2 50.4 80 60h125l15-60-15-60H130z" fill="#b0866b"></path><path d="m360.8 60 20-60H255v120h125.8l-20-60z" fill="#9d6b5d"></path><path d="m99.2 180 20 60-20 60H255l15-60-15-60H99.2z" fill="#ff6b6b"></path><path d="M430 240c-21.7-16.3-67.2-50.4-80-60h-95v120h95c21.7-16.3 67.2-50.4 80-60z" fill="#c44e46"></path><path d="M45 480v30h210l15-15-15-15H45z" fill="#d8bb85"></path><path d="M255 480v30h210v-30H255z" fill="#c4a178"></path></g></svg>