<svg id="Layer_2" height="512" viewBox="0 0 512 512" width="512" xmlns="http://www.w3.org/2000/svg" data-name="Layer 2"><g id="Icon"><g id="SUN"><g id="Calendar"><path d="m0 37h512v475h-512z" fill="#ffe3ee"/><path d="m0 37h512v110h-512z" fill="#f45c5c"/><circle cx="379.43" cy="92.08" fill="#bd2727" r="35"/><circle cx="132.57" cy="92.08" fill="#bd2727" r="35"/><g fill="#ffe3ee"><rect height="110" rx="27.5" width="55" x="351.93"/><rect height="110" rx="27.5" width="55" x="105.07"/></g></g><path id="SUN-2" d="m149.78 367.78v-20.02c0-3.22-1.83-4.84-5.5-4.84h-21.12c-10.86 0-18.52-2.38-22.99-7.15-4.48-4.76-6.71-11.62-6.71-20.57v-29.04c0-18.18 10.7-27.28 32.12-27.28h30.14c21.41 0 32.12 9.1 32.12 27.28v16.94h-38.5v-11.88c0-3.22-1.84-4.84-5.5-4.84h-6.38c-3.67 0-5.5 1.62-5.5 4.84v20.9c0 3.23 1.83 4.84 5.5 4.84h20.68c10.85 0 18.59 2.28 23.21 6.82 4.62 4.55 6.93 11.22 6.93 20.02v29.04c0 18.19-10.71 27.28-32.12 27.28h-29.92c-21.56 0-32.34-9.09-32.34-27.28v-16.94h38.5v11.88c0 3.23 1.83 4.84 5.5 4.84h6.38c3.67 0 5.5-1.61 5.5-4.84zm112.64-108.9h38.5v113.96c0 18.19-10.78 27.28-32.34 27.28h-32.56c-21.56 0-32.34-9.09-32.34-27.28v-113.96h38.5v108.9c0 3.23 1.83 4.84 5.5 4.84h9.24c3.67 0 5.5-1.61 5.5-4.84zm120.56 0h35.2v141.24h-33l-31.46-74.14v74.14h-35.2v-141.24h33l31.46 75.46z" fill="#f45c5c" data-name="SUN"/></g></g></svg>