<svg viewBox="0 0 512 512" xmlns="http://www.w3.org/2000/svg"><g><path d="m114.718 347.487 232.714-232.714 49.74 49.74-232.714 232.713z" fill="#88c3e0"></path><path d="M142.312 375.083 375.026 142.37l22.145 22.146-232.714 232.714z" fill="#6eabc9"></path><path d="M484.184 161.073c-37.506 37.506-98.511 37.108-135.155-1.305-34.896-36.582-34.294-95.142 1.317-131.364 25.366-25.801 61.741-34.034 94.02-24.658 3.692 1.073 4.906 5.681 2.177 8.41L405.93 52.769l-.067 28.495 24.874 24.874 28.495-.067 40.614-40.614c2.732-2.732 7.338-1.51 8.411 2.186 9.302 32.03 1.263 68.093-24.073 93.43z" fill="#a9dbf5"></path><path d="M484.184 161.072c25.336-25.336 33.375-61.399 24.074-93.43-1.073-3.696-5.679-4.918-8.411-2.186l-12.822 12.822c-1.979 21.233-11.106 41.954-27.394 58.242-32.737 32.737-83.376 36.59-120.092 11.496a92.798 92.798 0 0 0 9.49 11.751c36.643 38.414 97.649 38.811 135.155 1.305z" fill="#88c3e0"></path><path d="M27.816 350.927c37.506-37.506 98.511-37.108 135.155 1.305 34.896 36.582 34.294 95.142-1.317 131.364-25.366 25.801-61.741 34.034-94.02 24.658-3.692-1.073-4.906-5.681-2.177-8.41l40.613-40.613.067-28.495-24.874-24.874-28.495.067-40.614 40.614c-2.732 2.732-7.338 1.51-8.411-2.186-9.302-32.03-1.263-68.093 24.073-93.43z" fill="#a9dbf5"></path><path d="M127.195 352.233c34.896 36.582 34.294 95.142-1.317 131.364-14.059 14.3-31.501 23.193-49.752 26.693 30.022 5.77 62.364-3.133 85.528-26.693 35.611-36.222 36.213-94.782 1.317-131.364-23.013-24.125-55.634-33.246-86.009-27.41 18.528 3.553 36.175 12.672 50.233 27.41z" fill="#88c3e0"></path><path d="m232.261 209.844-22.418 22.418L1.548 23.965a5.285 5.285 0 0 1 0-7.473L16.493 1.548a5.285 5.285 0 0 1 7.473 0z" fill="#a9dbf5"></path><path d="m375.957 291.763 125.769 125.769c13.699 13.699 13.699 35.91 0 49.61l-34.584 34.584c-13.699 13.699-35.91 13.699-49.61 0L291.763 375.957a124.466 124.466 0 0 1-20.201-26.513l-8.013-14.099a124.49 124.49 0 0 0-20.201-26.513l-42.463-42.463 65.484-65.484 42.463 42.463a124.466 124.466 0 0 0 26.513 20.201l14.099 8.013a124.49 124.49 0 0 1 26.513 20.201z" fill="#f75632"></path><path d="m349.444 271.562-14.099-8.013a124.458 124.458 0 0 1-26.513-20.201l-42.463-42.463-21.887 21.887 42.463 42.463a124.433 124.433 0 0 0 26.513 20.201l14.099 8.013a124.458 124.458 0 0 1 26.513 20.201l125.769 125.769c13.699 13.699 13.699 35.91 0 49.61l21.887-21.887c13.699-13.699 13.699-35.91 0-49.61L375.957 291.763a124.49 124.49 0 0 0-26.513-20.201z" fill="#e33629"></path><path d="M420.329 482.636c-6.044 6.044-15.843 6.044-21.887 0l-91.924-91.924c-6.044-6.044-6.044-15.843 0-21.887 6.044-6.044 15.843-6.044 21.887 0l91.924 91.924c6.044 6.044 6.044 15.843 0 21.887z" fill="#f3f3f3"></path><path d="M482.636 420.329c-6.044 6.044-15.843 6.044-21.887 0l-91.924-91.924c-6.044-6.044-6.044-15.843 0-21.887 6.044-6.044 15.843-6.044 21.887 0l91.924 91.924c6.044 6.044 6.044 15.843 0 21.887z" fill="#e4e4e4"></path><path d="m272.381 206.996-65.385 65.385c-7.706 7.706-20.315 7.706-28.021 0l-.001-.001c-7.706-7.706-7.706-20.315 0-28.021l65.385-65.385c7.706-7.706 20.315-7.706 28.021 0l.001.001c7.706 7.705 7.706 20.315 0 28.021z" fill="#f3f3f3"></path><path d="M272.381 178.974c-7.706-7.706-20.316-7.706-28.022-.001l-20.066 20.065c7.706-7.706 20.315-7.706 28.021 0l.001.001c7.706 7.706 7.706 20.315 0 28.021l20.066-20.065c7.706-7.705 7.706-20.315 0-28.021z" fill="#e4e4e4"></path></g></svg>