<svg viewBox="0 0 512 512" xmlns="http://www.w3.org/2000/svg"><g><circle cx="256" cy="256" fill="#7583f1" r="256"></circle><path d="M512 256c0-8.76-.44-17.417-1.299-25.95L392.034 111.283l-41.816 39.05 40.317 40.28-73.313 29.784 51.337 51.337-44.093 16.452-114.928-114.927-40.666 40.258 35.245 35.246-10.98 4.155-59.313-59.807-41.027 39.92 39.842 42.779L60 303.296l60.861 60.861-39.558 14.76 129.019 129.019A257.49 257.49 0 0 0 256 512c141.385 0 256-114.615 256-256z" fill="#4253cd"></path><circle cx="188.929" cy="193.111" fill="#ffcdbe" r="28.623"></circle><path d="M188.929 164.488c-.079 0-.156.005-.234.006v57.234c.079 0 .156.006.234.006 15.808 0 28.623-12.815 28.623-28.623s-12.815-28.623-28.623-28.623z" fill="#ffbeaa"></path><path d="M135.678 283.397c0-29.41 23.842-53.252 53.252-53.252s53.252 23.842 53.252 53.252z" fill="#ff9500"></path><path d="M188.929 230.146c-.079 0-.156.005-.234.006v53.246h53.486c0-29.411-23.842-53.252-53.252-53.252z" fill="#fe6a16"></path><circle cx="370.474" cy="130.11" fill="#ffcdbe" r="28.623"></circle><path d="M370.474 101.487c-.142 0-.282.009-.423.011v57.225c.141.002.281.011.423.011 15.808 0 28.623-12.815 28.623-28.623s-12.815-28.624-28.623-28.624z" fill="#ffbeaa"></path><path d="M317.222 220.397c0-29.41 23.842-53.252 53.252-53.252s53.252 23.842 53.252 53.252z" fill="#c2e435"></path><path d="M370.474 167.146c-.142 0-.281.01-.423.011v53.241h53.675c0-29.411-23.842-53.252-53.252-53.252z" fill="#a0d216"></path><circle cx="113.252" cy="213.01" fill="#ffcdbe" r="28.623"></circle><path d="M141.875 213.009c0-15.801-12.804-28.612-28.604-28.622v57.245c15.799-.01 28.604-12.821 28.604-28.623z" fill="#ffbeaa"></path><path d="M60 303.297c0-29.41 23.842-53.252 53.252-53.252s53.252 23.842 53.252 53.252z" fill="#ffcd00"></path><path d="M113.271 250.045v53.251h53.232c0-29.403-23.831-53.24-53.232-53.251z" fill="#fdba12"></path><path d="M302.462 420.33h-92.924l30.003-121.685h32.918z" fill="#dce1eb"></path><path d="M272.459 298.645h-16.815V420.33h46.818z" fill="#bec3d2"></path><path d="m71.677 350.579 359.145-122.117 9.66 28.41L81.337 378.989z" fill="#ffffff"></path><path d="m430.697 228.417-175.053 59.528v31.687l184.711-62.813z" fill="#e9edf5"></path></g></svg>