<svg viewBox="0 0 512 512" xmlns="http://www.w3.org/2000/svg"><g><path d="M473.209 372.363c0 77.582-93.088 77.582-155.143 77.582l-54.142-4.925-31.198-2.833c-93.088 0-179.51-28.9-196.015-91.007-16.495-62.117 45.158-132.404 137.731-156.997 24.583-6.532 50.722-9.18 76.17-8.397 70.328 2.194 135.31 30.713 147.426 76.325a79.174 79.174 0 0 1 2.576 16.773c48.341 18.71 72.595 46.93 72.595 93.479z" fill="#c76d33"></path><path d="m263.923 445.02-31.198-2.833c-93.088 0-179.51-28.9-196.015-91.007-16.495-62.117 45.158-132.404 137.731-156.997 24.583-6.532 50.722-9.18 76.17-8.397-31.97 29.044-103.679 116.105 2.411 244.718 4.225 5.119 7.841 9.951 10.901 14.516z" fill="#af602d"></path><path d="M167.764 298.313c4.963-12.366-7.076-24.753-19.616-20.249-37.556 13.489-104.729 46.323-101.489 107.876 4.485 85.215 164.723 30.171 154.529-15.902-4.211-19.032-18.37-25.61-33.54-26.776-12.234-.94-18.613-14.788-11.357-24.683 4.464-6.089 8.511-12.888 11.473-20.266z" fill="#a05423"></path><path d="M434.942 160.266c13.042-8.497 30.08-6.237 40.278 5.522a31.718 31.718 0 0 1 7.759 22.345c-.318 6.592 3.552 12.546 9.645 15.082a31.655 31.655 0 0 1 15.989 14.756c7.04 13.661 2.787 30.736-9.807 39.542-11.659 8.152-26.756 7.162-37.169-1.142-5.064-4.039-12.198-4.242-17.666-.771l-28.481 18.078-24.946-39.3 26.786-17.002c6.359-4.036 8.898-12.076 5.967-19.013-5.623-13.312-1.407-29.594 11.645-38.097z" fill="#fbf198"></path><path d="M265.92 258.386c8.991-6.015 18.846-9.667 28.847-11.11 23.186-3.346 45.666-10.472 66.985-20.182l4.836-2.203c20.234-9.216 44.167-2.103 56.082 16.669 11.916 18.772 8.167 43.456-8.785 57.844l-5.895 5.003c-17.539 14.886-32.584 32.382-45.552 51.383-5.191 7.606-11.979 14.303-20.244 19.549-32.856 20.855-76.505 10.838-96.937-22.46-19.48-31.75-10.296-73.781 20.663-94.493z" fill="#af602d"></path><path d="M336.714 421.292c-7.964 21.503-24.305 36.349-40.532 38.812l-23.058 1.597-54.338 3.75c-16.402-.206-34.639-12.673-45.477-32.867-10.169-18.916-11.117-39.481-3.895-53.359l41.398-16.217a15.246 15.246 0 0 0 9.695-11.828c2.864-17.185 12.364-32.022 26.984-33.031 14.805-1.02 26.17 12.477 31.311 29.075 2.566 8.284 11.601 12.456 19.823 9.705 6.924-2.318 14.012-2.483 20.606-.041 20.09 7.459 27.91 36.287 17.483 64.404z" fill="#00c755"></path><path d="m273.124 461.7-54.338 3.75c-16.402-.206-34.639-12.673-45.477-32.867-14.198-26.417-10.416-56.049 8.459-66.197 6.295-3.38 13.466-4.162 20.761-2.73 2.895.567 5.739.289 8.284-.649 8.84 20.987 22.429 43.52 42.211 67.495 9.786 11.859 16.349 22.204 20.1 31.198zM124.102 395.798c-2.854 16.11-12.439 28.626-23.516 32.423l-53.673 13.62c-11.547 1.944-25.94-4.487-36.13-17.287-13.338-16.744-14.455-38.037-2.495-47.566 3.988-3.175 8.927-4.64 14.234-4.562 6.173.091 11.122-4.88 11.033-11.053-.179-12.438 4.606-24.065 14.745-26.638 10.262-2.604 19.963 5.428 25.692 16.426 2.86 5.491 9.733 7.273 15.159 4.291 4.567-2.51 9.527-3.529 14.466-2.654 15.055 2.673 24.226 21.923 20.485 43z" fill="#00b730"></path><circle cx="302.545" cy="380.121" fill="#f85647" r="38.788"></circle><circle cx="147.394" cy="411.152" fill="#e83826" r="38.788"></circle><path d="M436.548 406.33c-7.422 14.581-20.237 23.762-31.939 24.169l-55.313-2.602c-11.613-1.503-23.509-11.847-29.53-27.06-7.883-19.902-2.75-40.598 11.465-46.231 4.74-1.876 9.892-1.839 14.946-.219 5.879 1.885 12.061-1.429 13.773-7.361 3.451-11.951 11.415-21.681 21.864-21.189 10.576.497 17.517 11.006 19.794 23.196 1.137 6.086 7.193 9.792 13.252 8.52 5.1-1.071 10.141-.602 14.612 1.674 13.626 6.942 16.793 28.029 7.076 47.103z" fill="#00c755"></path><path d="m488.725 434.428-15.485 38.709C463.853 496.607 441.125 512 415.841 512H96.159c-25.283 0-48.012-15.393-57.398-38.863l-15.485-38.709z" fill="#daf2fd"></path><path d="M235.785 512H96.159c-25.283 0-48.012-15.393-57.398-38.863l-15.485-38.709h200.796c-6.781 17.866-9.47 44.952 11.713 77.572z" fill="#c2eafb"></path><path d="M511.999 434.428c0 6.429-2.607 12.24-6.81 16.454a23.244 23.244 0 0 1-16.464 6.81H23.275C10.417 457.692 0 447.276 0 434.428a23.23 23.23 0 0 1 6.481-16.124l118.454 8.685 113.21-15.836h250.58c12.858 0 23.274 10.417 23.274 23.275z" fill="#c2eafb"></path><path d="M238.145 411.153s-17.597 17.629-18.906 46.539H23.275C10.417 457.692 0 447.276 0 434.428a23.248 23.248 0 0 1 23.274-23.274h214.871z" fill="#a8e1f6"></path><path d="M252.757 0c-5.242 0-8.993 5.119-7.347 10.096a41.958 41.958 0 0 1-4.926 36.449 41.956 41.956 0 0 0 0 46.545 41.96 41.96 0 0 1 2.837 41.592c-1.113 2.292.596 4.953 3.144 4.953 23.679 0 38.225-26.263 25.328-46.121a38.674 38.674 0 0 0-.279-.424 41.956 41.956 0 0 1 0-46.545 41.892 41.892 0 0 0 6.746-18.26C280.076 13.188 267.964 0 252.757 0z" fill="#daf2fd"></path><path d="M176.012 0c-5.242 0-8.993 5.119-7.347 10.096a41.958 41.958 0 0 1-4.926 36.449 41.956 41.956 0 0 0 0 46.545 41.96 41.96 0 0 1 2.837 41.592c-1.113 2.292.596 4.953 3.144 4.953 23.679 0 38.225-26.263 25.328-46.121a38.674 38.674 0 0 0-.279-.424 41.956 41.956 0 0 1 0-46.545 41.892 41.892 0 0 0 6.746-18.26C203.331 13.188 191.219 0 176.012 0z" fill="#c2eafb"></path><path d="M329.622 0c-5.242 0-8.993 5.119-7.347 10.096a41.958 41.958 0 0 1-4.926 36.449 41.956 41.956 0 0 0 0 46.545 41.96 41.96 0 0 1 2.837 41.592c-1.113 2.292.596 4.953 3.144 4.953 23.679 0 38.225-26.263 25.328-46.121a38.674 38.674 0 0 0-.279-.424 41.956 41.956 0 0 1 0-46.545 41.892 41.892 0 0 0 6.746-18.26C356.94 13.188 344.829 0 329.622 0z" fill="#daf2fd"></path></g></svg>