<svg viewBox="0 0 512 512" xmlns="http://www.w3.org/2000/svg"><g><path d="M389.495 485.323c-12.127-1.651-20.62-12.82-18.97-24.948l14.531-106.748c.237-1.739.68-3.444 1.318-5.079l32.799-83.909c4.456-11.4 17.311-17.026 28.709-12.573 11.399 4.456 17.028 17.309 12.572 28.708l-31.837 81.448-14.175 104.13c-1.644 12.086-12.78 20.628-24.947 18.971z" fill="#55696e"></path><path d="M22.161 485.529C9.922 485.529 0 475.607 0 463.368V282.679c0-12.239 9.922-20.42 22.161-20.42s22.161 8.18 22.161 20.42v180.689c0 12.239-9.922 22.161-22.161 22.161z" fill="#5f6e9b"></path><path d="m99.307 466.338-14.175-104.13-31.837-81.449c-4.456-11.399 1.173-24.252 12.573-28.709s24.252 1.173 28.708 12.573l32.799 83.91a22.116 22.116 0 0 1 1.318 5.079l14.531 106.748c1.651 12.127-6.842 23.297-18.969 24.948-12.208 1.659-23.308-6.917-24.948-18.97z" fill="#414b82"></path><path d="M488.522 485.529h-.017c-12.239-.009-22.154-9.938-22.145-22.178l.138-171.98c.009-12.233 9.93-22.144 22.16-22.144 12.239.009 21.902 9.938 21.893 22.178v171.98c-.008 12.233-9.798 22.144-22.029 22.144z" fill="#748488"></path><path d="M408.723 291.405h101.829V153.583c0-14.836-12.227-26.862-27.063-26.862h-47.904c-14.836 0-26.862 12.027-26.862 26.862z" fill="#e64937"></path><path d="m410.351 122.073-134.401 2.665c-5.726.114-10.276 4.848-10.163 10.574l1.093 55.146 5.793-.115c3.833-6.171 10.611-10.341 18.415-10.496 12.25-.243 22.378 9.491 22.621 21.741s-9.491 22.378-21.741 22.621c-7.804.155-14.742-3.743-18.816-9.757l-5.793.115 1.093 55.146c.114 5.726 4.848 10.276 10.574 10.163l134.401-2.665c5.726-.114 10.276-4.848 10.163-10.574l-2.665-134.401c-.114-5.727-4.848-10.277-10.574-10.163z" fill="#ffc305"></path><path d="M101.628 282.678H0V144.856c0-14.836 12.027-26.862 26.862-26.862h47.904c14.836 0 26.862 12.027 26.862 26.862z" fill="#64afff"></path><path d="M256.755 148.666c-7.695 2.246-13.222 8.333-15.108 15.564l-5.19 1.515-14.431-49.446c-1.498-5.134-6.875-8.082-12.01-6.584l-49.446 14.431-1.515-5.19c5.081-5.479 7.24-13.412 4.995-21.107-3.399-11.647-15.596-18.333-27.242-14.934-11.647 3.399-18.333 15.596-14.934 27.242 2.246 7.695 8.333 13.222 15.564 15.108l1.515 5.19-49.446 14.431c-5.134 1.498-8.082 6.875-6.584 12.01l14.431 49.446 5.194-1.516c1.951-6.498 7.044-11.909 14.042-13.951 10.984-3.206 22.487 3.1 25.693 14.084s-3.1 22.487-14.084 25.693c-6.997 2.042-14.202.22-19.341-4.209l-5.194 1.516 14.431 49.446c1.498 5.135 6.875 8.082 12.01 6.584l49.723-14.511-1.579-5.412c-6.498-1.951-11.909-7.044-13.951-14.042-3.206-10.984 3.1-22.488 14.084-25.693 10.984-3.206 22.487 3.1 25.693 14.084 2.042 6.997.22 14.202-4.209 19.341l1.579 5.412 49.169-14.35c5.134-1.498 8.082-6.875 6.584-12.01l-14.431-49.446 5.19-1.515c5.479 5.081 13.413 7.24 21.107 4.995 11.647-3.399 18.333-15.596 14.934-27.242-3.4-11.647-15.597-18.333-27.243-14.934z" fill="#e64937"></path><circle cx="57.225" cy="64.787" fill="#ffb69e" r="39.765"></circle><path d="m151.663 217.586-60.896-2.52a16.625 16.625 0 0 1-12.046-5.921l-20.076-23.909 3.087-22.529 22.481 1.266 15.258 18.172 53.567 2.217c9.175.379 16.305 8.125 15.925 17.3-.379 9.164-8.118 16.306-17.3 15.924z" fill="#ffb69e"></path><circle cx="453.138" cy="73.514" fill="#80391b" r="39.765"></circle><path d="M341.4 210.388c-.38-9.175 6.75-16.92 15.925-17.3l53.567-2.217 16.555-19.717 23.275-2.7 2.914 23.224-21.994 26.193a16.625 16.625 0 0 1-12.046 5.921l-60.896 2.521c-9.165.381-16.92-6.743-17.3-15.925z" fill="#80391b"></path><path d="m84.213 163.973-25.52-30.394c-5.905-7.033-16.392-7.947-23.425-2.042s-7.947 16.393-2.042 23.425l25.419 30.274z" fill="#4699f2"></path><path d="M476.006 139.178c-7.033-5.905-17.521-4.991-23.425 2.042l-25.134 29.934 26.188 20.524 24.412-29.074c5.906-7.033 4.992-17.521-2.041-23.426z" fill="#c73f30"></path></g></svg>