<svg height="512" viewBox="0 0 32 32" width="512" xmlns="http://www.w3.org/2000/svg"><g id="Desicion"><g fill="#2d4a60"><path d="m16 27a1 1 0 0 1 -1-1v-21a1 1 0 0 1 2 0v21a1 1 0 0 1 -1 1z"/><path d="m29.9 15.553-4-8a.993.993 0 0 0 -1-.547l-7.01.78a1 1 0 1 0 .21 1.987l5.183-.573-3.178 6.356a1 1 0 0 0 1.79.894l3.105-6.213 3.105 6.21a1 1 0 1 0 1.79-.894z"/><path d="m13.9 8.227-7.01.779a1 1 0 0 0 -.785.547l-4 8a1 1 0 0 0 1.79.894l3.105-6.211 3.105 6.211a1 1 0 1 0 1.79-.894l-3.359-6.718 5.584-.621a1 1 0 1 0 -.22-1.987z"/></g><circle cx="16" cy="9" fill="#eaeff0" r="3"/><circle cx="16" cy="9" fill="#2d4a60" r="1"/><path d="m7.272 28a1 1 0 0 1 -.9-1.451 3 3 0 0 1 2.628-1.549h14a3 3 0 0 1 2.625 1.549 1 1 0 0 1 -.9 1.451z" fill="#009ae0"/><path d="m23 19a3 3 0 0 1 -3-3h10a3 3 0 0 1 -3 3z" fill="#009ae0"/><path d="m5 21a3 3 0 0 1 -3-3h10a3 3 0 0 1 -3 3z" fill="#009ae0"/></g></svg>