<svg viewBox="0 0 48 48" xmlns="http://www.w3.org/2000/svg"><g><g stroke-linecap="round" stroke-linejoin="round" stroke-miterlimit="3.3"><path d="M10.998 4a1 1 0 0 0-.857.485l-6 10A1 1 0 0 0 4.998 16h32a1 1 0 0 0 .858-.486l6-10a1 1 0 0 0-.858-1.514z" fill="#f6716e"></path><g fill="#454d60"><path d="M10.998 32a1 1 0 0 0-.857.485l-6 10A1 1 0 0 0 4.998 44h32a1 1 0 0 0 .858-.486l6-10a1 1 0 0 0-.858-1.514zM13.998 19a1 1 0 0 0-1 1v9a1 1 0 0 0 1 1 1 1 0 0 0 1-1v-9a1 1 0 0 0-1-1z" fill="#454d60"></path><path d="M13.998 18a1 1 0 0 0-.8.4l-3 4a1 1 0 0 0 .2 1.4 1 1 0 0 0 1.401-.201l2.2-2.932 2.199 2.932a1 1 0 0 0 1.4.2 1 1 0 0 0 .201-1.4l-3-4a1 1 0 0 0-.8-.4z" fill="#454d60"></path></g></g></g></svg>