<svg viewBox="0 0 64 64" xmlns="http://www.w3.org/2000/svg"><g><g><path d="M22.403 46.602 26 49l4-2-2.772-2.218" fill="#69737a"></path><path d="M32 15H19a4 4 0 0 1-.93-7.89 6 6 0 0 1 11.91.42c.092.052.182.107.269.166" fill="#307abe"></path><path d="m32 15-1.751-7.3a3.882 3.882 0 0 0-.269-.166 5.976 5.976 0 0 0-.207-1.157A5.992 5.992 0 0 0 19.07 9.11a3.951 3.951 0 0 0-3 4.6A3.976 3.976 0 0 0 19 15z" fill="#419bd7"></path><path d="M47 14a4 4 0 0 1-4 4H28a3 3 0 0 1 0-6 2.835 2.835 0 0 1 1.16.24A4.635 4.635 0 0 1 29 11a5 5 0 0 1 8.9-3.13A2.955 2.955 0 0 1 40 7a3 3 0 0 1 3 3 4 4 0 0 1 4 4z" fill="#4aaee3"></path><path d="M43 18a4 4 0 0 0 0-8 3 3 0 0 0-3-3 2.955 2.955 0 0 0-2.1.87 5.13 5.13 0 0 0-.7-.7A4.873 4.873 0 0 0 36 7a5 5 0 0 0-5 5 4.635 4.635 0 0 0 .16 1.24A2.835 2.835 0 0 0 30 13a2.989 2.989 0 0 0-2.244 4.976c.082.006.161.024.244.024z" fill="#7fcdf2"></path><path d="M45 59a3 3 0 0 1-3 3H31a4 4 0 0 1 0-8 4.171 4.171 0 0 1 1.01.13A.57.57 0 0 1 32 54a5 5 0 0 1 10 0 5.1 5.1 0 0 1-.43 2.04A2.024 2.024 0 0 1 42 56a3 3 0 0 1 3 3z" fill="#4aaee3"></path><path d="M42 56a2.024 2.024 0 0 0-.43.04A5.1 5.1 0 0 0 42 54a4.978 4.978 0 0 0-2.025-4A5 5 0 0 0 35 55a.57.57 0 0 0 .01.13A4.171 4.171 0 0 0 34 55a3.985 3.985 0 0 0-2.621 7H42a3 3 0 0 0 0-6z" fill="#7fcdf2"></path><g fill="#307abe"><path d="m14.536 53.085 5.996-2.998.894 1.788-5.996 2.998zM.542 56.083l13.993-6.996.894 1.788L1.436 57.87zM38.488 52.125l6.998-3.998.992 1.736-6.998 3.998z" fill="#307abe"></path></g><path d="M21.243 34.121a40.994 40.994 0 0 0-9.531 6.279l-2.65 3.18a2.818 2.818 0 0 0-.062.592A2.828 2.828 0 0 0 11.828 47H19a14.741 14.741 0 0 0 5.762-1.172l22.966-9.743a40.621 40.621 0 0 0 12.858-8.671A4.828 4.828 0 0 0 62 24a4.828 4.828 0 0 0-1.414-3.414A5.414 5.414 0 0 0 56.757 19a12.562 12.562 0 0 0-5.257 1.155L29.563 30.278z" fill="#69737a"></path><path d="M37.981 34.228 29.6 37.907l-4.45 1.953A33.2 33.2 0 0 0 14.809 47H19a14.741 14.741 0 0 0 5.762-1.172l22.966-9.743a40.621 40.621 0 0 0 12.858-8.671 4.823 4.823 0 0 0 1.275-2.314 23.825 23.825 0 0 0-7.439 1.913z" fill="#cacbcd"></path><path d="m35.904 41.101 14.095 6.898L54 47l-10.516-9.114" fill="#aab1b7"></path><path d="m37.534 40.41 14.48 7.086L54 47l-10.516-9.114z" fill="#91989d"></path><path d="M27.41 37.205 3 25l4-2 29.565 9.537A2.071 2.071 0 0 1 38 34.508a2.07 2.07 0 0 1-1.416 1.964l-3.425 1.142a7.529 7.529 0 0 1-2.381.386 7.531 7.531 0 0 1-3.368-.795z" fill="#aab1b7"></path><path d="M36.565 32.537 7 23l-2.5 1.25 23.91 11.955a7.531 7.531 0 0 0 3.368.8 7.529 7.529 0 0 0 2.381-.386l3.425-1.142a2.07 2.07 0 0 0 .2-.106 2.027 2.027 0 0 0 .216-.863 2.071 2.071 0 0 0-1.435-1.971zM2 41l2-2 8.808 1.6A1.742 1.742 0 0 1 14 42.257 1.744 1.744 0 0 1 12.257 44a12.442 12.442 0 0 1-4.37-.792z" fill="#91989d"></path><path d="M61.567 22.03a4.817 4.817 0 0 0-.981-1.444 5.346 5.346 0 0 0-.555-.455 17.836 17.836 0 0 0-6.056 1.763l-2.422 1.211.894 1.789 2.423-1.211a15.824 15.824 0 0 1 6.109-1.653z" fill="#7fcdf2"></path></g></g></svg>