<svg viewBox="0 0 64 64" xmlns="http://www.w3.org/2000/svg"><g><circle cx="53" cy="53" fill="#e65c62" r="9"></circle><g fill="#2970cc"><path d="M3 23h12v12H3zM59.5 35.5h-13l6.5-13zM15.5 59.5h-13l6.5-13zM47 2h12v12H47zM12.54 2H5.61L2.14 8l3.47 6h6.93L16 8z" fill="#2970cc"></path></g><path d="M54 55.5h-2V53a1 1 0 0 1 1-1 1.5 1.5 0 1 0-1.5-1.5h-2a3.5 3.5 0 1 1 4.5 3.35zM52 57h2v2h-2z" fill="#f2f2f2"></path><path d="M37 28H21v2h16v3l5.33-4L37 25zM33.5 52H21v2h12.5v3l5.33-4-5.33-4zM37 12l5.33-4L37 4v3H21v2h16z" fill="#8e9fb3"></path></g></svg>