<svg viewBox="0 0 512 512" xmlns="http://www.w3.org/2000/svg"><g><path d="M330.132 0H143.091c-7.944 0-14.077 7.308-13.05 15.55l9.039 118.616 17.928 20.604h156.529l20.606-20.604 9.039-118.616C344.208 7.308 338.075 0 330.132 0z" fill="#365e7d"></path><path d="M330.132 0h-20.98c7.944 0 14.077 7.308 13.05 15.55l-6.087 79.881c-1.006 13.203-12.012 23.402-25.253 23.402h-152.95l1.168 15.333 13.663 20.604h160.42l20.98-20.604 9.039-118.616C344.208 7.308 338.075 0 330.132 0z" fill="#2b4d66"></path><path d="M135.783 90.904h201.656l2.247-29.487h-206.15z" fill="#dd636e"></path><path d="M316.459 90.904h20.98l2.247-29.487h-20.98z" fill="#c63d4f"></path><path d="M387.506 504.441a7.559 7.559 0 0 1-7.559 7.559H93.276a7.559 7.559 0 0 1-7.559-7.559V400.794c0-55.325 44.85-100.175 100.175-100.175h101.44c55.325 0 100.175 44.85 100.175 100.175v103.647z" fill="#78c2a4"></path><path d="M387.506 400.794c0-55.325-44.85-100.175-100.175-100.175h-28.357c55.325 0 100.175 44.85 100.175 100.175V512h20.797a7.559 7.559 0 0 0 7.559-7.559V400.794z" fill="#66b394"></path><path d="M415.931 512h-68.598c-5.717 0-10.352-4.635-10.352-10.352v-8.686c0-5.717 4.635-10.352 10.352-10.352h68.598c5.717 0 10.352 4.635 10.352 10.352v8.686c.001 5.717-4.634 10.352-10.352 10.352z" fill="#eab14d"></path><path d="M415.256 482.609h-18.997c6.091 0 11.028 4.351 11.028 9.718v9.955c0 5.367-4.937 9.718-11.028 9.718h18.997c6.091 0 11.028-4.351 11.028-9.718v-9.955c0-5.367-4.938-9.718-11.028-9.718z" fill="#e49542"></path><path d="M415.931 482.609h-68.598c-5.717 0-10.352-4.635-10.352-10.352v-8.686c0-5.717 4.635-10.352 10.352-10.352h68.598c5.717 0 10.352 4.635 10.352 10.352v8.686c.001 5.717-4.634 10.352-10.352 10.352z" fill="#f6e266"></path><path d="M415.256 453.218h-18.997c6.091 0 11.028 4.351 11.028 9.718v9.955c0 5.367-4.937 9.718-11.028 9.718h18.997c6.091 0 11.028-4.351 11.028-9.718v-9.955c0-5.367-4.938-9.718-11.028-9.718z" fill="#ecbe6b"></path><path d="M415.931 453.218h-68.598c-5.717 0-10.352-4.635-10.352-10.352v-8.686c0-5.717 4.635-10.352 10.352-10.352h68.598c5.717 0 10.352 4.635 10.352 10.352v8.686c.001 5.718-4.634 10.352-10.352 10.352z" fill="#eab14d"></path><path d="M415.256 423.828h-18.997c6.091 0 11.028 4.351 11.028 9.718v9.955c0 5.367-4.937 9.718-11.028 9.718h18.997c6.091 0 11.028-4.351 11.028-9.718v-9.955c0-5.368-4.938-9.718-11.028-9.718z" fill="#e49542"></path><path d="M395.328 423.828H326.73c-5.717 0-10.352-4.635-10.352-10.352v-8.686c0-5.717 4.635-10.352 10.352-10.352h68.598c5.717 0 10.352 4.635 10.352 10.352v8.686c0 5.717-4.635 10.352-10.352 10.352z" fill="#f6e266"></path><path d="M394.652 394.437h-18.997c6.091 0 11.028 4.351 11.028 9.718v9.955c0 5.367-4.937 9.718-11.028 9.718h18.997c6.091 0 11.028-4.351 11.028-9.718v-9.955c0-5.367-4.937-9.718-11.028-9.718z" fill="#ecbe6b"></path><circle cx="333.06" cy="470.903" fill="#f6e266" r="41.097"></circle><path d="M333.06 429.805c-3.358 0-6.619.412-9.744 1.172 17.992 4.376 31.354 20.586 31.354 39.925s-13.361 35.549-31.354 39.925a41.172 41.172 0 0 0 9.744 1.172c22.697 0 41.097-18.4 41.097-41.097.001-22.697-18.399-41.097-41.097-41.097z" fill="#ecbe6b"></path><path d="M268.368 512h-63.513l16.284-112.11h30.945z" fill="#dd636e"></path><path d="M233.312 427.747a4.078 4.078 0 0 0 6.598 0l37.299-51.348h-81.197z" fill="#365e7d"></path><path d="m236.611 385.539-30.052 21.932c-2.806 2.048-6.793.807-7.942-2.471l-36.573-104.38 21.917-21.447 14.833 40.866zM236.611 385.539l30.052 21.932c2.806 2.048 6.793.807 7.942-2.471l36.573-104.38-21.917-21.447-14.833 40.866z" fill="#ecf4ff"></path><path d="m236.611 385.539 37.817-65.5h-75.634z" fill="#e2a770"></path><path d="M139.079 164.833v72.927c0 53.865 43.666 97.532 97.531 97.532 53.865 0 97.532-43.666 97.532-97.532v-72.927l-21.988-10.302H157.539z" fill="#f1d0a5"></path><path d="M311.178 164.833H139.079v15.333h149.582c12.436 0 22.517 10.081 22.517 22.517v35.077c0 49.98-37.596 91.172-86.049 96.855 3.767.442 7.597.676 11.482.676 53.865 0 97.532-43.666 97.532-97.532v-72.927h-22.965z" fill="#f1b986"></path><path d="M191.878 233.069a7.725 7.725 0 0 1-7.726-7.726v-6.199a7.725 7.725 0 0 1 7.726-7.726 7.725 7.725 0 0 1 7.726 7.726v6.199a7.726 7.726 0 0 1-7.726 7.726zM281.345 233.069a7.725 7.725 0 0 1-7.726-7.726v-6.199a7.726 7.726 0 1 1 15.452 0v6.199a7.726 7.726 0 0 1-7.726 7.726z" fill="#2b4d66"></path><path d="M236.611 289.874c-7.098 0-14.191-2.135-21.091-6.405a7.725 7.725 0 0 1-2.503-10.636 7.725 7.725 0 0 1 10.636-2.503c8.839 5.471 17.074 5.473 25.915 0a7.724 7.724 0 0 1 10.636 2.503 7.725 7.725 0 0 1-2.503 10.636c-6.898 4.269-13.995 6.405-21.09 6.405z" fill="#dd636e"></path><path d="M139.079 228.66h-15.638c-10.849 0-19.644-8.795-19.644-19.644 0-10.849 8.795-19.644 19.644-19.644h15.638z" fill="#e2a770"></path><path d="M352.855 164.833H120.367a7.585 7.585 0 0 1-7.585-7.585v-15.497a7.585 7.585 0 0 1 7.585-7.585h232.488a7.585 7.585 0 0 1 7.585 7.585v15.497a7.585 7.585 0 0 1-7.585 7.585z" fill="#365e7d"></path><path d="M352.855 134.166h-17.024a7.585 7.585 0 0 1 7.585 7.585v15.496a7.585 7.585 0 0 1-7.585 7.585h17.024a7.585 7.585 0 0 0 7.585-7.585v-15.496a7.585 7.585 0 0 0-7.585-7.585z" fill="#2b4d66"></path><path d="M316.415 293.651c-9.399 0-18.522-3.268-26.066-9.407-9.349-7.61-15.437-19.132-16.701-31.613l-1.447-13.067a7.725 7.725 0 0 1 6.829-8.529c4.239-.475 8.059 2.588 8.529 6.829l1.455 13.139c.862 8.498 4.901 16.219 11.09 21.257 5.459 4.443 12.175 6.5 18.927 5.804 14.914-1.548 26.105-16.235 24.944-32.739l-2.585-35.751a7.726 7.726 0 0 1 7.149-8.264c4.253-.314 7.956 2.893 8.264 7.149l2.586 35.766c.841 11.961-2.641 23.613-9.803 32.825-7.297 9.384-17.581 15.203-28.959 16.384a41.104 41.104 0 0 1-4.212.217z" fill="#365e7d"></path><circle cx="281.345" cy="222.243" fill="#e4f6ff" r="28.603"></circle><path d="M281.345 193.64c-3.181 0-6.237.527-9.096 1.486 11.336 3.801 19.507 14.501 19.507 27.117s-8.171 23.316-19.507 27.117a28.539 28.539 0 0 0 9.096 1.486c15.797 0 28.602-12.806 28.602-28.603s-12.806-28.603-28.602-28.603z" fill="#d3effb"></path><path d="M334.143 228.66h15.638c10.849 0 19.644-8.795 19.644-19.644 0-10.849-8.795-19.644-19.644-19.644h-15.638z" fill="#e2a770"></path></g></svg>