<svg viewBox="0 0 512 512" xmlns="http://www.w3.org/2000/svg"><g><path d="M190.281 113.751a16.253 16.253 0 0 1-3.341-9.871V56.889c0-8.977-7.277-16.254-16.254-16.254s-16.254 7.277-16.254 16.254v49.159a48.766 48.766 0 0 0 9.326 28.681l24.293 33.403 19.833-5.754 4.989-19.069zM349.48 40.635c-8.977 0-16.254 7.277-16.254 16.254v46.991c0 3.568-1.174 7.036-3.341 9.871l-22.594 29.558 6.048 22.463 18.774 2.36 24.293-33.403a48.766 48.766 0 0 0 9.326-28.681V56.889c.002-8.977-7.276-16.254-16.252-16.254z" fill="#f4aa73"></path><path d="M227.575 487.619h65.016l8.127-203.175-40.402-13.643-40.868 13.643z" fill="#615260"></path><circle cx="260.083" cy="113.778" fill="#f4aa73" r="24.381"></circle><path d="M121.925 65.016a8.125 8.125 0 0 1-8.127-8.127C113.798 25.52 139.321 0 170.687 0c4.492 0 8.127 3.639 8.127 8.127s-3.635 8.127-8.127 8.127c-22.405 0-40.635 18.23-40.635 40.635a8.125 8.125 0 0 1-8.127 8.127zM398.242 65.016a8.125 8.125 0 0 1-8.127-8.127c0-22.405-18.23-40.635-40.635-40.635-4.492 0-8.127-3.639-8.127-8.127S344.988 0 349.48 0c31.365 0 56.889 25.52 56.889 56.889a8.125 8.125 0 0 1-8.127 8.127z" fill="#fff4d6"></path><path d="M186.94 243.81h-8.127v-8.127c0-4.488-3.635-8.127-8.127-8.127s-8.127 3.639-8.127 8.127v8.127h-8.127c-4.492 0-8.127 3.639-8.127 8.127s3.635 8.127 8.127 8.127h8.127v8.127c0 4.488 3.635 8.127 8.127 8.127s8.127-3.639 8.127-8.127v-8.127h8.127a8.125 8.125 0 0 0 8.127-8.127 8.124 8.124 0 0 0-8.127-8.127zM382.972 208.921l8.127-8.127c3.175-3.175 3.175-8.317 0-11.492s-8.317-3.175-11.492 0l-8.127 8.127-8.127-8.127c-3.175-3.175-8.317-3.175-11.492 0s-3.175 8.317 0 11.492l8.127 8.127-8.127 8.127a8.123 8.123 0 0 0 0 11.492c1.587 1.587 3.667 2.381 5.746 2.381s4.159-.794 5.746-2.381l8.127-8.127 8.127 8.127c1.587 1.587 3.667 2.381 5.746 2.381s4.159-.794 5.746-2.381a8.123 8.123 0 0 0 0-11.492zM235.702 48.762a8.102 8.102 0 0 1-5.746-2.381l-8.127-8.127c-3.175-3.175-3.175-8.317 0-11.492s8.317-3.175 11.492 0l8.127 8.127a8.123 8.123 0 0 1 0 11.492 8.1 8.1 0 0 1-5.746 2.381z" fill="#ffe077"></path><path d="M300.718 32.508a8.102 8.102 0 0 1-5.746-2.381 8.123 8.123 0 0 1 0-11.492l8.127-8.127c3.175-3.175 8.317-3.175 11.492 0s3.175 8.317 0 11.492l-8.127 8.127a8.1 8.1 0 0 1-5.746 2.381z" fill="#c9c5c9"></path><path d="M390.115 154.413a8.102 8.102 0 0 1-5.746-2.381 8.123 8.123 0 0 1 0-11.492l8.127-8.127c3.175-3.175 8.317-3.175 11.492 0s3.175 8.317 0 11.492l-8.127 8.127a8.102 8.102 0 0 1-5.746 2.381z" fill="#eceaec"></path><path d="M146.306 203.175a8.102 8.102 0 0 1-5.746-2.381l-8.127-8.127c-3.175-3.175-3.175-8.317 0-11.492s8.317-3.175 11.492 0l8.127 8.127a8.123 8.123 0 0 1 0 11.492 8.104 8.104 0 0 1-5.746 2.381z" fill="#c9c5c9"></path><g fill="#fff4d6"><path d="M178.813 325.079a8.125 8.125 0 0 1-8.127-8.127v-8.127c0-4.488 3.635-8.127 8.127-8.127s8.127 3.639 8.127 8.127v8.127a8.124 8.124 0 0 1-8.127 8.127zM341.433 268.19c-4.492 0-8.167-3.639-8.167-8.127s3.595-8.127 8.087-8.127h.079a8.125 8.125 0 0 1 8.127 8.127 8.123 8.123 0 0 1-8.126 8.127zM284.464 65.016c-4.492 0-8.167-3.639-8.167-8.127s3.595-8.127 8.087-8.127h.079c4.492 0 8.127 3.639 8.127 8.127s-3.634 8.127-8.126 8.127z" fill="#fff4d6"></path></g><path d="M113.798 105.651c-4.492 0-8.167-3.639-8.167-8.127s3.595-8.127 8.087-8.127h.079a8.125 8.125 0 0 1 8.127 8.127 8.123 8.123 0 0 1-8.126 8.127z" fill="#eceaec"></path><path d="M284.464 479.492H268.21V325.079c0-4.488-3.635-8.127-8.127-8.127s-8.127 3.639-8.127 8.127v154.413h-16.254c-8.977 0-16.254 7.277-16.254 16.254v8.127a8.127 8.127 0 0 0 8.127 8.127h24.381a8.127 8.127 0 0 0 8.127-8.127A8.127 8.127 0 0 0 268.21 512h24.381a8.127 8.127 0 0 0 8.127-8.127v-8.127c0-8.977-7.277-16.254-16.254-16.254z" fill="#4e3d4d"></path><path d="m310.045 198.478 22.07-30.346-24.823-24.823-7.381 9.656a24.383 24.383 0 0 1-19.37 9.574h-40.914a24.383 24.383 0 0 1-19.37-9.574l-7.381-9.656-24.823 24.823 22.07 30.346a48.757 48.757 0 0 1 9.326 28.681v57.286h81.27v-57.286a48.75 48.75 0 0 1 9.326-28.681z" fill="#736572"></path></g></svg>