<svg viewBox="0 0 64 64" xmlns="http://www.w3.org/2000/svg"><g><g><path d="M53 10H32.898a12 12 0 1 0 0 10H41l3-3 3 3 3-3 3 3 5-5Z" fill="#ffb74d"></path><circle cx="18" cy="15" fill="#eeeeee" r="4"></circle><path d="M23.586 53.586 10.414 40.414a2 2 0 0 0-2.828 0L3 45l16 16 4.586-4.586a2 2 0 0 0 0-2.828Z" fill="#ef5350"></path><path d="M23.59 56.41 19 61 3 45l3.41-3.41a1.992 1.992 0 0 0 0 2.82l8.18 8.18a1.992 1.992 0 0 0 2.82 0L20 50l3.59 3.59a1.992 1.992 0 0 1 0 2.82Z" fill="#e53935"></path><path d="M59.89 29.11a3.802 3.802 0 0 0-5.37 0l-9.64 8.94-.005.002A3.993 3.993 0 0 0 41 35H21.142a10 10 0 0 0-7.07 2.929L11 41l12 12 .83-.83A4.004 4.004 0 0 1 26.66 51h16.23a9.993 9.993 0 0 0 8.1-4.14l9.26-12.8a3.8 3.8 0 0 0-.36-4.95Z" fill="#ffccbc"></path><path d="M61 31.79a3.813 3.813 0 0 1-.75 2.27l-9.26 12.8a9.992 9.992 0 0 1-8.1 4.14H26.66a4.004 4.004 0 0 0-2.83 1.17L23 53l-3-3 .83-.83A4.004 4.004 0 0 1 23.66 48h16.23a9.992 9.992 0 0 0 8.1-4.14l9.26-12.8a3.813 3.813 0 0 0 .75-2.27 3.515 3.515 0 0 0-.07-.72A3.787 3.787 0 0 1 61 31.79Z" fill="#ffab91"></path><path d="M41.9 35.1a4.431 4.431 0 0 1 .1.9 3.999 3.999 0 0 1-4 4h-6.5a1.5 1.5 0 0 0 0 3H41a4.001 4.001 0 0 0 .9-7.9Z" fill="#ffab91"></path><path d="M10.629 18.897a12.321 12.321 0 0 1-.369-6.397A11.996 11.996 0 0 0 32.9 15h18.443a4 4 0 0 0 2.829-1.172L55.5 12.5 58 15l-5 5-3-3-3 3-3-3-3 3h-8.1a12.01 12.01 0 0 1-22.271-1.103Z" fill="#ffa726"></path></g></g></svg>