<svg viewBox="0 0 512 512" xmlns="http://www.w3.org/2000/svg"><g><path d="M355.491 237.807v131.22c0 5.32-.38 10.64-1.13 15.89-.76 5.26-1.88 10.46-3.37 15.57-2.13 7.26-3.73 14.65-4.79 22.12-1.07 7.46-1.61 15-1.61 22.57h-154.45v-23.76c0-3.84-1.1-7.5-3.09-10.61a19.763 19.763 0 0 0-8.29-7.31c-3.35-1.58-7.71-4.28-11.78-6.98a49.692 49.692 0 0 1-17.47-20.29l-25.94-55.34a26.625 26.625 0 0 1 3.86-28.6l8.85-10.37a27.773 27.773 0 0 0 6.4-21.77c-.13-.93-.2-1.86-.2-2.77 0-10.99 8.93-20.2 20.25-20.2 1.01 0 2.01.04 3 .14 3.78.32 7.39 1.28 10.71 2.76v-134.44c0-6.4 2.59-12.18 6.79-16.38a23.12 23.12 0 0 1 16.38-6.77c12.78 0 23.15 10.36 23.15 23.15v105.77c0-6.4 2.59-12.18 6.78-16.38 4.2-4.19 9.98-6.78 16.38-6.78 12.79 0 23.15 10.37 23.15 23.16v15.97c0-6.39 2.59-12.18 6.78-16.37s9.99-6.78 16.38-6.78c12.79 0 23.16 10.36 23.16 23.15v10.88c0-11.02 8.71-20.32 19.73-20.5 5.67-.09 10.8 2.18 14.5 5.87a20.04 20.04 0 0 1 5.87 14.18z" fill="#fcd09f"></path><path d="M193.108 0h13v48.847h-13z" fill="#1ea6c6"></path><path d="M253.005 25.272h13v48.847h-13z" fill="#1ea6c6" transform="rotate(-134.999 259.506 49.696)"></path><path d="M259.567 103.423h48.847v13h-48.847zM89.686 102.305h48.846v13H89.686z" fill="#1ea6c6"></path><path d="M114.958 42.406h48.847v13h-48.847z" fill="#1ea6c6" transform="rotate(-134.999 139.381 48.907)"></path><path d="M176.441 240.077v72.41c-2.96 0-5.64-1.2-7.57-3.13a10.686 10.686 0 0 1-3.14-7.58v-64.46c3.78.32 7.39 1.28 10.71 2.76z" fill="#e2b991"></path></g></svg>