<svg viewBox="0 0 60 60" xmlns="http://www.w3.org/2000/svg"><g><path d="m53 23 5.69-8.129a1.732 1.732 0 0 0-.85-2.62L38.23 5.43a1.731 1.731 0 0 0-1.98.64L35 7.86H25l-1.25-1.79a1.731 1.731 0 0 0-1.98-.64L2.16 12.25a1.732 1.732 0 0 0-.85 2.62L7 23Z" fill="#fde05e"></path><path d="M53 34v15.7a1.993 1.993 0 0 1-1.34 1.88l-21 7.31a2 2 0 0 1-1.32 0l-21-7.31A1.993 1.993 0 0 1 7 49.7V34l23-4Z" fill="#e3c84c"></path><path d="m53 23 5.687 8.129a1.726 1.726 0 0 1-.847 2.621l-19.608 6.82a1.724 1.724 0 0 1-1.981-.64L30 31l-6.251 8.93a1.724 1.724 0 0 1-1.981.64L2.16 33.749a1.726 1.726 0 0 1-.847-2.621L7 23Z" fill="#fde05e"></path><path d="M37.95 17.759 53 23l-22.67 7.89a1.063 1.063 0 0 1-.66 0L7 23l15.05-5.24Z" fill="#e3c84c"></path><path d="m40.59 14.719-9.26 10.689a1.791 1.791 0 0 1-2.66 0l-9.26-10.689A1.649 1.649 0 0 1 20.73 12H25V3a2.006 2.006 0 0 1 2-2h6a2.006 2.006 0 0 1 2 2v9h4.27a1.649 1.649 0 0 1 1.32 2.719Z" fill="#cd4c60"></path><path d="M30 56a1 1 0 0 1-1-1V38a1 1 0 0 1 2 0v17a1 1 0 0 1-1 1Z" fill="#c7af3e"></path></g></svg>