<svg viewBox="0 0 64 64" xmlns="http://www.w3.org/2000/svg"><g><circle cx="9" cy="24.5" fill="#ffc780" r="3.5"></circle><path d="m18 33-3.828-3.828A4 4 0 0 0 11.343 28H5a4 4 0 0 0-4 4v12h2L2 60h3.5L8 45l2.5 15H14l-1-16V33l4 4 5 2 2-2z" fill="#5993de"></path><path d="M4.5 44H3v-1h1V32h1v11.5a.5.5 0 0 1-.5.5z" fill="#3670bb"></path><path d="M42 47H16l4-5h18z" fill="#5f6f8c"></path><path d="m35 43 2 3H21l2-3z" fill="#3c4c69"></path><path d="m28.853 45 3.353-4.698-8.139-5.809L20 40.19 26.738 45z" fill="#c0c7cc"></path><circle cx="50" cy="14" fill="#90aacc" r="13"></circle><path d="M16 47h26v16H16z" fill="#7083a6"></path><path d="M42 7h16v14H42z" fill="#e6eef3"></path><path d="M58 21H42V7h16zm-14-2h12V9H44z" fill="#c0c7cc"></path><path d="M22 52h14v6H22z" fill="#d9e1e6"></path><path d="m29.919 35.394-1.838-.788c.129-.3 3.241-7.4 10.525-10.525l.788 1.838c-6.556 2.81-9.447 9.409-9.475 9.475z" fill="#90aacc"></path><path d="m24.3 35.891 6.512 4.648-2.905 4.07-6.512-4.648z" fill="#e6eef3"></path><path d="m54.6 11.8-1.2-1.6-3.4 2.55-3.4-2.55-1.2 1.6 2.934 2.2-2.934 2.2 1.2 1.6 3.4-2.55 3.4 2.55 1.2-1.6-2.934-2.2z" fill="#d9777b"></path></g></svg>