<svg viewBox="0 0 512 512" xmlns="http://www.w3.org/2000/svg"><g><g><path d="M219 142h74v285h-74z" fill="#999993"></path><path d="M256 406a50 50 0 1 0 50 50 50.005 50.005 0 0 0-50-50zm10.536 74.25h-21.072a6 6 0 0 1-5.2-3L229.732 459a6 6 0 0 1 0-6l10.536-18.25a6 6 0 0 1 5.2-3h21.072a6 6 0 0 1 5.2 3L282.268 453a6 6 0 0 1 0 6l-10.536 18.25a6 6 0 0 1-5.196 3z" fill="#acacac"></path><path d="M229.544 10.06v69.976a6.23 6.23 0 0 0 3.574 5.636l20.231 9.528a6.227 6.227 0 0 0 5.3 0l20.231-9.526a6.23 6.23 0 0 0 3.574-5.636V10.064a4.052 4.052 0 0 1 5.619-3.734A83.073 83.073 0 0 1 339 82.85c.053 44.86-36.138 82.048-80.957 83.125a83.07 83.07 0 0 1-34.08-159.661 4.041 4.041 0 0 1 5.581 3.746z" fill="#bcbcbc"></path></g></g></svg>