<svg viewBox="0 0 512 512" xmlns="http://www.w3.org/2000/svg"><g><path d="M13.629 443.412 206.175.329l217.011 487.458-240.313 23.884" fill="#4c5e66"></path><path d="M218.103 154.775h27.133l-2.087 114.791 31.306-18.784 39.196 125.676 43.026-38.069L206.175.329z" fill="#829399"></path><path d="m256.626 401.773 107.596-236.567 144.221 278.366" fill="#4c5e66"></path><path d="m364.222 165.211 1.023 135.662h27.132L417.85 472.82l90.591-29.251z" fill="#829399"></path><path d="M0 511.671h512v-50.226c0-25.275-20.266-46.115-45.551-46.313-.157 0-.313-.01-.47-.01-16.019 0-30.441 6.658-40.793 17.292-9.601-29.658-37.871-50.915-70.972-49.83-38.038 1.252-68.854 32.507-69.605 70.555-.01.49.01.97.01 1.451-.72-.397-50.237-27.091-86.156 8.818-8.422 8.296-11.97 17.5-12.502 26.715-8.421-15.925-25.254-26.715-44.466-26.715-7.368 0-14.338 1.586-20.652 4.477-6.71-27.237-31.317-47.231-60.526-47.231-.699 0-1.398.01-2.087.031C26.162 421.739.887 448.475.438 480.554L0 511.671z" fill="#8bc923"></path><path d="M198.464 490.017c-6.877 6.762-10.509 14.151-11.886 21.654H512v-23.616c0-25.285-20.266-46.115-45.551-46.313-.157-.01-.313-.01-.47-.01-16.019 0-30.441 6.647-40.793 17.281-9.601-29.658-37.871-50.915-70.972-49.819-38.038 1.252-68.854 32.507-69.605 70.555-.01.49.01.96.01 1.451-.72-.397-50.236-27.102-86.155 8.817zM.376 511.671h182.497a50.275 50.275 0 0 0-41.377-21.654c-7.368 0-14.338 1.586-20.652 4.477-6.71-27.237-31.317-47.231-60.526-47.231-.699 0-1.398.01-2.087.031C26.163 448.348.888 475.084.439 507.163l-.063 4.508z" fill="#7eb515"></path><path d="m133.93 166.578 11.062 74.019 46.96-59.483 52.125 37.548 41.607-39.729L206.175.329zM281.781 346.455l65.128-26.036 52.095 25.212 19.911-23.647 34.594 15.57h.01l-89.297-172.343z" fill="#bfc5d2"></path><path d="M218.103 154.775h27.133l-1.159 63.887 41.607-39.729L206.175.329zM364.222 165.211l1.023 135.662h27.132l6.627 44.758 19.911-23.647 34.594 15.57z" fill="#f1f5fe"></path></g></svg>