<svg viewBox="0 0 512 512" xmlns="http://www.w3.org/2000/svg"><g><path d="M120.5 368.467c0 8.284 6.716 15 15 15h241c8.284 0 15-6.716 15-15V304.2c0-8.284-6.716-15-15-15h-241c-8.284 0-15 6.716-15 15z" fill="#ffe181"></path><path d="M135.5 383.467h241c8.284 0 15-6.716 15-15v-32.134h-271v32.134c0 8.284 6.716 15 15 15z" fill="#ffbd65"></path><path d="M71.233 351.333H15c-8.284 0-15-6.716-15-15s6.716-15 15-15h56.233c8.284 0 15 6.716 15 15s-6.715 15-15 15zM497 351.333h-56.233c-8.284 0-15-6.716-15-15s6.716-15 15-15H497c8.284 0 15 6.716 15 15s-6.716 15-15 15z" fill="#212d49"></path><g fill="#00b4f4"><path d="M75.25 158.533c-8.284 0-15-6.716-15-15V111.4c0-8.284 6.716-15 15-15s15 6.716 15 15v32.133c0 8.284-6.716 15-15 15zM316.25 158.533c-8.284 0-15-6.716-15-15V111.4c0-8.284 6.716-15 15-15s15 6.716 15 15v32.133c0 8.284-6.716 15-15 15zM195.75 158.533c-8.284 0-15-6.716-15-15V111.4c0-8.284 6.716-15 15-15s15 6.716 15 15v32.133c0 8.284-6.716 15-15 15zM436.75 158.533c-8.284 0-15-6.716-15-15V111.4c0-8.284 6.716-15 15-15s15 6.716 15 15v32.133c0 8.284-6.716 15-15 15zM135.5 190.667c-8.284 0-15-6.716-15-15V111.4c0-8.284 6.716-15 15-15s15 6.716 15 15v64.267c0 8.284-6.716 15-15 15zM376.5 190.667c-8.284 0-15-6.716-15-15V111.4c0-8.284 6.716-15 15-15s15 6.716 15 15v64.267c0 8.284-6.716 15-15 15zM256 190.667c-8.284 0-15-6.716-15-15V111.4c0-8.284 6.716-15 15-15s15 6.716 15 15v64.267c0 8.284-6.716 15-15 15zM497 190.667c-8.284 0-15-6.716-15-15V111.4c0-8.284 6.716-15 15-15s15 6.716 15 15v64.267c0 8.284-6.716 15-15 15zM15 190.667c-8.284 0-15-6.716-15-15V111.4c0-8.284 6.716-15 15-15s15 6.716 15 15v64.267c0 8.284-6.716 15-15 15z" fill="#00b4f4"></path></g><path d="M135.5 415.6H71.233c-8.284 0-15-6.716-15-15v-96.4c0-3.979 1.58-7.794 4.394-10.606l64.267-64.267a15 15 0 0 1 25.607 10.606V400.6c-.001 8.284-6.717 15-15.001 15z" fill="#47587a"></path><path d="M71.233 415.6H135.5c8.284 0 15-6.716 15-15v-64.267H56.233V400.6c0 8.284 6.716 15 15 15z" fill="#2d3c5a"></path><path d="M440.767 415.6H376.5c-8.284 0-15-6.716-15-15V239.934a14.999 14.999 0 0 1 25.607-10.606l64.267 64.267a14.998 14.998 0 0 1 4.394 10.606V400.6c-.001 8.284-6.717 15-15.001 15z" fill="#47587a"></path><path d="M376.5 415.6h64.267c8.284 0 15-6.716 15-15v-64.267H361.5V400.6c0 8.284 6.716 15 15 15z" fill="#2d3c5a"></path></g></svg>