<svg viewBox="0 0 512 512" xmlns="http://www.w3.org/2000/svg"><g><path d="M325.715 306.275c-10.798-2.17-18.567-14.696-18.567-25.711v-49.082H204.852v49.082c0 11.014-7.769 23.54-18.567 25.711l-12.463 3.518v82.689H338.177v-82.689l-12.462-3.518z" fill="#ffc084"></path><path d="M271.198 231.482v73.576c0 10.383 7.242 22.141 17.08 25.269.598.19.868.317 1.487.441l48.413 15.112v-36.088l-12.463-3.519c-10.798-2.17-18.567-14.696-18.567-25.711V231.48h-35.95v.002z" fill="#f7b076"></path><path d="M488.153 426.338c0-43.522-28.665-81.844-70.414-94.136l-94.166-29.361a8.457 8.457 0 0 0-8.333 1.935L256 360.916l-59.239-56.139a8.457 8.457 0 0 0-8.333-1.935l-94.166 29.361c-41.749 12.292-70.415 50.615-70.415 94.136v66.243c0 10.725 8.694 19.419 19.419 19.419h425.47c10.725 0 19.419-8.694 19.419-19.419v-66.244h-.002z" fill="#f9c861"></path><path d="M481.698 391.314a98.384 98.384 0 0 0-15.478-26.813 98.186 98.186 0 0 0-19.865-18.525 97.865 97.865 0 0 0-20.944-11.17 98.356 98.356 0 0 0-7.671-2.605l-94.166-29.36a8.455 8.455 0 0 0-8.333 1.935l-26.962 25.551 83.799 26.128c41.749 12.292 70.414 36.635 70.414 80.156V512h26.244c10.725 0 19.419-8.694 19.419-19.419v-66.243a97.981 97.981 0 0 0-6.457-35.024z" fill="#f3a656"></path><path d="M358.627 124.338h-6.55V98.259c0-25.962-10.658-51.118-30.331-68.058C306.321 16.92 284.64 5.328 256 5.008c-28.64.32-50.321 11.912-65.745 25.193-19.673 16.94-30.331 42.096-30.331 68.058v26.079h-6.55c-9.603 0-17.389 7.785-17.389 17.389v19.269c0 9.603 7.785 17.389 17.389 17.389h6.577c.542 25.236 11.147 49.527 30.305 66.023 15.424 13.281 37.105 24.873 65.745 25.193 28.64-.32 50.321-11.912 65.745-25.193 19.159-16.497 29.764-40.787 30.305-66.023h6.577c9.603 0 17.389-7.785 17.389-17.389v-19.269c-.001-9.604-7.786-17.389-17.39-17.389z" fill="#ffc084"></path><path d="M358.627 124.338h-6.55V98.259c0-25.962-10.658-51.118-30.332-68.058C306.321 16.92 284.64 5.328 256 5.008a102.87 102.87 0 0 0-17.803 1.728c20.023 3.744 35.892 13.089 47.942 23.465 19.673 16.94 30.332 42.096 30.332 68.058v18.387l-.026 61.739c-.542 25.236-11.147 49.527-30.305 66.023-12.05 10.376-27.919 19.721-47.942 23.465a102.872 102.872 0 0 0 17.803 1.727c28.64-.319 50.321-11.912 65.745-25.193 19.159-16.497 29.764-40.787 30.305-66.023h6.577c9.603 0 17.389-7.785 17.389-17.389v-19.269c-.001-9.603-7.786-17.388-17.39-17.388z" fill="#f7b076"></path><path d="M330.388 15.616 270.153 1.802a71.227 71.227 0 0 0-32.416.134l-56.505 13.45c-21.311 5.073-36.351 24.113-36.351 46.02v63.82h222.238V61.725c0-22.053-15.237-41.18-36.731-46.109z" fill="#ff4f6d"></path><path d="M330.388 15.616 270.153 1.802a71.227 71.227 0 0 0-32.416.134l-1.448.345 58.148 13.335c21.494 4.929 36.732 24.056 36.732 46.109v63.502h35.95V61.725c0-22.053-15.237-41.18-36.731-46.109z" fill="#f93a5a"></path><path d="M340.67 152.052c-56.067-17.223-113.275-17.222-169.341 0-9.721 2.986-19.973-2.748-22.614-12.568a75229.6 75229.6 0 0 0-3.835-14.256c73.267-27.458 148.967-27.461 222.238 0a75229.6 75229.6 0 0 1-3.835 14.256c-2.64 9.819-12.892 15.554-22.613 12.568z" fill="#2c5871"></path><path d="M422.163 422.403a7.74 7.74 0 0 0-7.74 7.741V512h15.481v-81.856a7.741 7.741 0 0 0-7.741-7.741zM89.837 422.403a7.74 7.74 0 0 0-7.74 7.741V512h15.481v-81.856a7.74 7.74 0 0 0-7.741-7.741z" fill="#ed864a"></path><path d="M255.389 421.047a7.74 7.74 0 0 1-7.081-4.614l-23.135-52.39a7.742 7.742 0 0 1 14.163-6.253l16.053 36.355 16.055-36.355a7.74 7.74 0 0 1 10.207-3.954 7.738 7.738 0 0 1 3.954 10.207l-23.136 52.39a7.74 7.74 0 0 1-7.08 4.614z" fill="#2c5871"></path><path d="M196.761 304.776 256 360.916l-36.534 12.446a23.35 23.35 0 0 1-25.09-6.714l-45.188-51.571 39.24-12.235a8.454 8.454 0 0 1 8.333 1.934zM315.239 304.776 256 360.916l36.534 12.446a23.35 23.35 0 0 0 25.09-6.714l45.188-51.571-39.24-12.235a8.454 8.454 0 0 0-8.333 1.934z" fill="#ed864a"></path><path d="M280.603 435.876c0-13.429-10.759-24.345-24.127-24.599-13.791-.262-25.079 11.359-25.079 25.153v47.267a3.533 3.533 0 0 0 3.533 3.533h19.393a3.533 3.533 0 0 0 3.533-3.533v-23.295c12.72-.95 22.747-11.563 22.747-24.526z" fill="#ff4f6d"></path></g></svg>