<svg viewBox="0 0 64 64" xmlns="http://www.w3.org/2000/svg"><g><path d="M33.436 39H19.564a8.003 8.003 0 0 0-4.65 1.49A11.734 11.734 0 0 0 10 50.039V54a7 7 0 0 0 7 7h20a6 6 0 0 0 6-6v-4.961c0-3.79-1.83-7.346-4.914-9.548A7.994 7.994 0 0 0 33.436 39z" fill="#769fb6"></path><path d="M39 41.23c-.293-.258-.593-.51-.914-.739a8.003 8.003 0 0 0-4.65-1.49H19.564A7.985 7.985 0 0 0 15 40.438V55l3 6h19l2-6z" fill="#608ea9"></path><path d="M33.185 39H32v-9H22v9h-1.185c-.581 0-1.156.052-1.726.13C19.639 43.012 22.966 46 27 46s7.361-2.988 7.911-6.87a12.72 12.72 0 0 0-1.726-.13z" fill="#f29654"></path><path d="m15.846 20-1.643-2.957a8.104 8.104 0 0 1 .986-9.274A8.103 8.103 0 0 1 21.289 5h4.206c2.339 0 4.625.692 6.571 1.989l1.243.828a2.21 2.21 0 0 0 2.215.138 3.295 3.295 0 0 1 4.046.889 5.696 5.696 0 0 1 1.008 5.193L38.788 20 38 23H18z" fill="#7b828e"></path><path d="M39.783 14a3.565 3.565 0 0 1-2.853-1.427 3.566 3.566 0 0 0-4.688-.918 5.682 5.682 0 0 1-4.722.518l-4.207-1.402a5.89 5.89 0 0 1-3.404-2.952l-.012-.024a5.872 5.872 0 0 1-.612-2.533 8.095 8.095 0 0 0-4.097 2.506 8.106 8.106 0 0 0-.986 9.274L15.846 20 18 23h20l.788-3 1.789-5.963c.004-.012.005-.025.009-.037z" fill="#656b76"></path><path d="M27 37c-5.523 0-10-4.477-10-10v-7.106a6.024 6.024 0 0 1 8.258-5.591l2.803 1.121A6.433 6.433 0 0 0 35 14l.801 1.201A7.14 7.14 0 0 1 37 19.162V27c0 5.523-4.477 10-10 10z" fill="#f6b98d"></path><g fill="#f3a268"><path d="M34.07 31.469c-.419-2.327-3.415-3.541-5.517-1.229-.988 1.087-1.346 2.612-1.086 4.057l.245 1.364c.092.51.378.928.76 1.218a9.99 9.99 0 0 0 7.152-4.834 1.635 1.635 0 0 0-1.554-.576zM24.918 34.298c.26-1.446-.098-2.97-1.086-4.057-2.102-2.312-5.099-1.098-5.517 1.229-.088-.016-.173-.015-.259-.017a10.013 10.013 0 0 0 6.168 5.149 1.96 1.96 0 0 0 .449-.94zM17 25.5h-.5A4.5 4.5 0 0 1 12 21a2.5 2.5 0 1 1 5 0zM37 26h.5a4.5 4.5 0 0 0 4.5-4.5 2.5 2.5 0 1 0-5 0z" fill="#f3a268"></path><path d="M35.801 15.201 35 14a6.433 6.433 0 0 1-6.939 1.424l-2.803-1.121A6.022 6.022 0 0 0 17 19.894V27c0 5.523 4.477 10 10 10 3.53 0 6.627-1.834 8.406-4.596A9.924 9.924 0 0 1 30 34c-5.523 0-10-4.477-10-10v-6.309a6.015 6.015 0 0 1 5.258-.388l2.803 1.121A6.433 6.433 0 0 0 35 17l.801 1.201A7.14 7.14 0 0 1 37 22.162v-3a7.14 7.14 0 0 0-1.199-3.961z" fill="#f3a268"></path></g><path d="M39 22v-2.95a2.5 2.5 0 0 0-2 2.45V26h.5a4.485 4.485 0 0 0 3.182-1.318A2.99 2.99 0 0 1 39 22zM15 21.5v-2.95A2.5 2.5 0 0 1 17 21v4.5h-.5a4.485 4.485 0 0 1-3.182-1.318A2.99 2.99 0 0 0 15 21.5z" fill="#f29654"></path><path d="M29.553 31.241c2.102-2.312 5.099-1.098 5.517 1.229A1.64 1.64 0 0 1 37 34.115l-.041 2.111a2.02 2.02 0 0 1-.81 1.579 2.021 2.021 0 0 0-.779 1.976l.31 1.724-4.921.885-.757-4.21a1.993 1.993 0 0 1-1.289-1.518l-.245-1.363c-.262-1.447.096-2.972 1.085-4.058zM24.447 31.241c-2.102-2.312-5.099-1.098-5.517 1.229A1.64 1.64 0 0 0 17 34.115l.041 2.111a2.02 2.02 0 0 0 .81 1.579c.613.458.914 1.223.779 1.976l-.31 1.724 4.921.885.757-4.21a1.993 1.993 0 0 0 1.289-1.518l.245-1.363c.262-1.447-.096-2.972-1.085-4.058z" fill="#f9cdae"></path><path d="m31.643 35.425-.224-2.242c-.123-1.231.366-2.359 1.193-3.138-.991-.166-2.114.157-3.059 1.195-.988 1.087-1.346 2.612-1.086 4.057l.245 1.364a1.99 1.99 0 0 0 1.289 1.518l.757 4.21 4.921-.885-.31-1.724a1.982 1.982 0 0 1 .036-.798 3.96 3.96 0 0 1-3.762-3.557zM21.388 30.045c.828.779 1.317 1.906 1.193 3.138l-.224 2.242a3.96 3.96 0 0 1-3.763 3.557c.059.259.085.527.036.798l-.31 1.724 4.921.885.757-4.21a1.992 1.992 0 0 0 1.289-1.518l.245-1.364c.26-1.446-.098-2.97-1.086-4.057-.943-1.038-2.067-1.361-3.058-1.195z" fill="#f6b98d"></path><path d="m39 55-2-1V41h-7v13a7 7 0 0 0 7 7zM15 55l2-1V41h7v13a7 7 0 0 1-7 7z" fill="#769fb6"></path><circle cx="22" cy="23" fill="#656b76" r="1"></circle><path d="M21.721 21.592a4.845 4.845 0 0 1-2.168-.511 1 1 0 0 1 .895-1.789c.914.458 2.01.388 2.858-.178l1.14-.76a1 1 0 1 1 1.11 1.664l-1.14.76a4.86 4.86 0 0 1-2.695.814z" fill="#656b76"></path><circle cx="32" cy="23" fill="#656b76" r="1"></circle><path d="M32.279 21.592a4.86 4.86 0 0 1-2.694-.813l-1.14-.76a1 1 0 1 1 1.11-1.664l1.14.76a2.857 2.857 0 0 0 2.858.178 1 1 0 1 1 .895 1.789 4.858 4.858 0 0 1-2.169.51z" fill="#656b76"></path><path d="M27 29a.997.997 0 0 1-.707-.293l-1-1a1 1 0 0 1-.188-1.154l1-2a1 1 0 0 1 1.789.895l-.678 1.355.49.49A.999.999 0 0 1 27 29zM32 26.827c-.98 0-1.961-.373-2.707-1.12a.999.999 0 1 1 1.414-1.414 1.83 1.83 0 0 0 2.586 0 .999.999 0 1 1 1.414 1.414A3.814 3.814 0 0 1 32 26.827zM22 26.827c-.98 0-1.961-.373-2.707-1.12a.999.999 0 1 1 1.414-1.414 1.83 1.83 0 0 0 2.586 0 .999.999 0 1 1 1.414 1.414A3.814 3.814 0 0 1 22 26.827z" fill="#f3a268"></path><path d="M19 12a1 1 0 0 1-1-1V9a1 1 0 1 1 2 0v2a1 1 0 0 1-1 1zM23 17a1 1 0 0 1-1-1V9a1 1 0 1 1 2 0v7a1 1 0 0 1-1 1zM27 18a1 1 0 0 1-1-1V9a1 1 0 1 1 2 0v8a1 1 0 0 1-1 1zM31 13a1 1 0 0 1-1-1V7a1 1 0 1 1 2 0v5a1 1 0 0 1-1 1z" fill="#545a63"></path><path d="M5.001 52a1 1 0 0 1-.896-.553l-1-2a1 1 0 0 1 .188-1.154l1.562-1.563-.804-2.414a1 1 0 0 1 .632-1.265L7 42.279V39a1 1 0 0 1 1-1h2.279l.772-2.316a.998.998 0 0 1 1.395-.578l2 1a1 1 0 0 1-.895 1.789l-.969-.484-.636 1.906A.994.994 0 0 1 11 40H9v3a1 1 0 0 1-.684.949l-2.052.684.684 2.051a1 1 0 0 1-.241 1.023l-1.49 1.49.678 1.355A1 1 0 0 1 5.001 52zM48.999 52a1 1 0 0 1-.893-1.447l.678-1.355-1.49-1.49a.999.999 0 0 1-.241-1.023l.684-2.051-2.052-.684A1.002 1.002 0 0 1 45 43v-3h-2a.997.997 0 0 1-.948-.684l-.636-1.906-.969.484a1 1 0 0 1-.895-1.789l2-1a.991.991 0 0 1 .83-.029.995.995 0 0 1 .565.607L43.721 38H46a1 1 0 0 1 1 1v3.279l2.316.772a1 1 0 0 1 .632 1.265l-.804 2.414 1.562 1.563a1 1 0 0 1 .188 1.154l-1 2a.998.998 0 0 1-.895.553zM46 61a1 1 0 0 1-1-1v-2c0-.334.167-.646.445-.832l1.985-1.323-1.138-1.138a.999.999 0 1 1 1.414-1.414l2 2a1.001 1.001 0 0 1-.152 1.539L47 58.535V60a1 1 0 0 1-1 1zM7 61a1 1 0 0 1-1-1v-1.465l-2.555-1.703a1 1 0 0 1-.152-1.539l2-2a.999.999 0 1 1 1.414 1.414l-1.138 1.138 1.985 1.323A1 1 0 0 1 8 58v2a1 1 0 0 1-1 1z" fill="#656b76"></path><path d="M52.599 3.019a9.34 9.34 0 0 0-.783-.018c-6.325.126-9.839 7.465-6.329 12.729l1.786 2.678a8.197 8.197 0 0 1-1.024 10.343L43 32l1.535-.256C54.036 30.161 61 21.94 61 12.308c0-4.793-3.617-8.979-8.401-9.289z" fill="#e9f1f2"></path><path d="M52.792 21.416a5.777 5.777 0 0 0-1.81-7.286 5.78 5.78 0 0 1-2.327-5.736l.381-2.096a9.721 9.721 0 0 1 1.135-3.071c-5.253 1.238-7.875 7.719-4.685 12.503l1.786 2.678a8.197 8.197 0 0 1-1.024 10.343L43 32l1.535-.256a19.63 19.63 0 0 0 8.924-3.953 5.963 5.963 0 0 1-.667-6.375z" fill="#d0d8da"></path><g fill="#656b76"><circle cx="49" cy="11" fill="#656b76" r="1"></circle><circle cx="55" cy="10" fill="#656b76" r="1"></circle><path d="M50 18a1 1 0 0 1-1-1v-2a1.001 1.001 0 0 1 1.448-.895l1.105.553.553-1.105a1 1 0 0 1 1.342-.447l1.105.553.553-1.105a1 1 0 0 1 1.601-.26l1 1a.999.999 0 1 1-1.414 1.414l-.019-.019-.38.759a1 1 0 0 1-1.342.447l-1.105-.553-.553 1.105a1 1 0 0 1-1.342.447L51 16.618V17a1 1 0 0 1-1 1z" fill="#656b76"></path></g><path d="M7.89 15.1c.418-.075.83-.106 1.232-.098 4.217.084 6.559 4.977 4.22 8.486a6.484 6.484 0 0 0 1.497 9.406L15 33l-2.335-.389A11.567 11.567 0 0 1 3 21.202c0-2.928 2.008-5.586 4.89-6.102z" fill="#e9f1f2"></path><path d="M7.528 26.565a10.204 10.204 0 0 1-.301-7.245l.437-1.311a10.189 10.189 0 0 1 1.607-2.994c-.05-.002-.097-.013-.148-.014a6.27 6.27 0 0 0-1.233.099C5.008 15.616 3 18.274 3 21.202c0 5.654 4.088 10.48 9.665 11.409L15 33l-2.657-1.329a10.196 10.196 0 0 1-4.815-5.106z" fill="#d0d8da"></path><circle cx="9" cy="21" fill="#7b828e" r="1"></circle><circle cx="5" cy="21" fill="#656b76" r="1"></circle></g></svg>