<svg id="Layer_2" height="512" viewBox="0 0 512 512" width="512" xmlns="http://www.w3.org/2000/svg" data-name="Layer 2"><g id="Icon"><g id="FRI"><g id="Calendar"><path d="m0 37h512v475h-512z" fill="#ffe3ee"/><path d="m0 37h512v110h-512z" fill="#f45c5c"/><circle cx="379.43" cy="92.08" fill="#bd2727" r="35"/><circle cx="132.57" cy="92.08" fill="#bd2727" r="35"/><g fill="#ffe3ee"><rect height="110" rx="27.5" width="55" x="351.93"/><rect height="110" rx="27.5" width="55" x="105.07"/></g></g><path id="FRI-2" d="m216.33 286.38h-46.2v34.32h40.04v25.3h-40.04v54.12h-38.5v-141.24h84.7zm50.6 63.58v50.16h-38.5v-141.24h65.34c21.56 0 32.34 9.1 32.34 27.28v36.52c0 13.94-6.31 22.52-18.92 25.74l25.96 51.7h-41.36l-22.44-50.16zm15.18-63.58h-15.18v37.4h15.18c3.67 0 5.5-1.61 5.5-4.84v-27.72c0-3.22-1.83-4.84-5.5-4.84zm59.4-27.5h38.5v141.24h-38.5z" fill="#f45c5c" data-name="FRI"/></g></g></svg>