<svg height="512" viewBox="0 0 64 64" width="512" xmlns="http://www.w3.org/2000/svg"><g id="Icons"><g><g><g><path d="m40 30h-16v-7c0-1.657 1.343-3 3-3h10c1.657 0 3 1.343 3 3z" fill="#00a0c8"/></g><g><path d="m32 22c-1.105 0-2-.895-2-2v-3h4v3c0 1.105-.895 2-2 2z" fill="#d2aa82"/></g><g><path d="m33 18h-2c-1.657 0-3-1.343-3-3v-3c0-1.105.895-2 2-2h4c1.105 0 2 .895 2 2v3c0 1.657-1.343 3-3 3z" fill="#f0c8a0"/></g><g><path d="m34 10h-4c-1.105 0-2 .895-2 2v-2c0-1.105.895-2 2-2h4c1.105 0 2 .895 2 2v2c0-1.105-.895-2-2-2z" fill="#0a5078"/></g></g><g><path d="m39 23.829v2.171h-3c-1.657 0-3 1.343-3 3v1h7v-7c0-1.657-1.343-3-3-3v1c0 1.306.835 2.417 2 2.829z" fill="#0082aa"/></g><g><g><path d="m30 36h-16v-7c0-1.657 1.343-3 3-3h10c1.657 0 3 1.343 3 3z" fill="#fab400"/></g><g><path d="m22 28c-1.105 0-2-.895-2-2v-3h4v3c0 1.105-.895 2-2 2z" fill="#d2aa82"/></g><g><path d="m23 24h-2c-1.657 0-3-1.343-3-3v-3c0-1.105.895-2 2-2h4c1.105 0 2 .895 2 2v3c0 1.657-1.343 3-3 3z" fill="#f0c8a0"/></g><g><path d="m24 16h-4c-1.105 0-2 .895-2 2v-2c0-1.105.895-2 2-2h4c1.105 0 2 .895 2 2v2c0-1.105-.895-2-2-2z" fill="#0a5078"/></g></g><g><path d="m29 31.829v2.171h-3c-1.306 0-2.417.835-2.829 2h6.829v-7c0-1.657-1.343-3-3-3v3c0 1.306.835 2.417 2 2.829z" fill="#dc9600"/></g><g><g><path d="m50 36h-16v-7c0-1.657 1.343-3 3-3h10c1.657 0 3 1.343 3 3z" fill="#c80a50"/></g><g><path d="m42 28c-1.105 0-2-.895-2-2v-3h4v3c0 1.105-.895 2-2 2z" fill="#d2aa82"/></g><g><path d="m43 24h-2c-1.657 0-3-1.343-3-3v-3c0-1.105.895-2 2-2h4c1.105 0 2 .895 2 2v3c0 1.657-1.343 3-3 3z" fill="#f0c8a0"/></g><g><path d="m44 16h-4c-1.105 0-2 .895-2 2v-2c0-1.105.895-2 2-2h4c1.105 0 2 .895 2 2v2c0-1.105-.895-2-2-2z" fill="#0a5078"/></g></g><g><path d="m49 31.829v2.171h-3c-1.306 0-2.417.835-2.829 2h6.829v-7c0-1.657-1.343-3-3-3v3c0 1.306.835 2.417 2 2.829z" fill="#a00028"/></g><g><g><path d="m40 44h-16v-7c0-1.657 1.343-3 3-3h10c1.657 0 3 1.343 3 3z" fill="#00a0c8"/></g><g><path d="m32 36c-1.105 0-2-.895-2-2v-3h4v3c0 1.105-.895 2-2 2z" fill="#d2aa82"/></g><g><path d="m33 32h-2c-1.657 0-3-1.343-3-3v-3c0-1.105.895-2 2-2h4c1.105 0 2 .895 2 2v3c0 1.657-1.343 3-3 3z" fill="#f0c8a0"/></g><g><path d="m34 24h-4c-1.105 0-2 .895-2 2v-2c0-1.105.895-2 2-2h4c1.105 0 2 .895 2 2v2c0-1.105-.895-2-2-2z" fill="#0a5078"/></g></g><g><path d="m39 37.829v2.171h-3c-1.657 0-3 1.343-3 3v1h7v-7c0-1.657-1.343-3-3-3v1c0 1.306.835 2.417 2 2.829z" fill="#0082aa"/></g><g><g><path d="m20 44h-16v-7c0-1.657 1.343-3 3-3h10c1.657 0 3 1.343 3 3z" fill="#0a5078"/></g><g><path d="m12 36c-1.105 0-2-.895-2-2v-3h4v3c0 1.105-.895 2-2 2z" fill="#d2aa82"/></g><g><path d="m13 32h-2c-1.657 0-3-1.343-3-3v-3c0-1.105.895-2 2-2h4c1.105 0 2 .895 2 2v3c0 1.657-1.343 3-3 3z" fill="#f0c8a0"/></g><g><path d="m14 24h-4c-1.105 0-2 .895-2 2v-2c0-1.105.895-2 2-2h4c1.105 0 2 .895 2 2v2c0-1.105-.895-2-2-2z" fill="#0a5078"/></g></g><g><path d="m19 37.829v2.171h-3c-1.657 0-3 1.343-3 3v1h7v-7c0-1.657-1.343-3-3-3v1c0 1.306.835 2.417 2 2.829z" fill="#00325a"/></g><g><g><path d="m60 44h-16v-7c0-1.657 1.343-3 3-3h10c1.657 0 3 1.343 3 3z" fill="#0a5078"/></g><g><path d="m52 36c-1.105 0-2-.895-2-2v-3h4v3c0 1.105-.895 2-2 2z" fill="#d2aa82"/></g><g><path d="m53 32h-2c-1.657 0-3-1.343-3-3v-3c0-1.105.895-2 2-2h4c1.105 0 2 .895 2 2v3c0 1.657-1.343 3-3 3z" fill="#f0c8a0"/></g><g><path d="m54 24h-4c-1.105 0-2 .895-2 2v-2c0-1.105.895-2 2-2h4c1.105 0 2 .895 2 2v2c0-1.105-.895-2-2-2z" fill="#0a5078"/></g></g><g><g><path d="m30 50h-16v-7c0-1.657 1.343-3 3-3h10c1.657 0 3 1.343 3 3z" fill="#c80a50"/></g><g><path d="m22 42c-1.105 0-2-.895-2-2v-3h4v3c0 1.105-.895 2-2 2z" fill="#d2aa82"/></g><g><path d="m23 38h-2c-1.657 0-3-1.343-3-3v-3c0-1.105.895-2 2-2h4c1.105 0 2 .895 2 2v3c0 1.657-1.343 3-3 3z" fill="#f0c8a0"/></g><g><path d="m24 30h-4c-1.105 0-2 .895-2 2v-2c0-1.105.895-2 2-2h4c1.105 0 2 .895 2 2v2c0-1.105-.895-2-2-2z" fill="#0a5078"/></g></g><g><path d="m29 43.816v2.184h-3c-1.657 0-3 1.343-3 3v1h7v-7c0-1.657-1.343-3-3-3v1c0 1.304.837 2.403 2 2.816z" fill="#a00028"/></g><g><g><path d="m50 50h-16v-7c0-1.657 1.343-3 3-3h10c1.657 0 3 1.343 3 3z" fill="#fab400"/></g><g><path d="m42 42c-1.105 0-2-.895-2-2v-3h4v3c0 1.105-.895 2-2 2z" fill="#d2aa82"/></g><g><path d="m43 38h-2c-1.657 0-3-1.343-3-3v-3c0-1.105.895-2 2-2h4c1.105 0 2 .895 2 2v3c0 1.657-1.343 3-3 3z" fill="#f0c8a0"/></g><g><path d="m44 30h-4c-1.105 0-2 .895-2 2v-2c0-1.105.895-2 2-2h4c1.105 0 2 .895 2 2v2c0-1.105-.895-2-2-2z" fill="#0a5078"/></g></g><g><g><path d="m40 56h-16v-7c0-1.657 1.343-3 3-3h10c1.657 0 3 1.343 3 3z" fill="#00a0c8"/></g><g><path d="m32 48c-1.105 0-2-.895-2-2v-3h4v3c0 1.105-.895 2-2 2z" fill="#d2aa82"/></g><g><path d="m33 44h-2c-1.657 0-3-1.343-3-3v-3c0-1.105.895-2 2-2h4c1.105 0 2 .895 2 2v3c0 1.657-1.343 3-3 3z" fill="#f0c8a0"/></g><g><path d="m34 36h-4c-1.105 0-2 .895-2 2v-2c0-1.105.895-2 2-2h4c1.105 0 2 .895 2 2v2c0-1.105-.895-2-2-2z" fill="#0a5078"/></g></g></g></g></svg>