<svg viewBox="0 0 512 512" xmlns="http://www.w3.org/2000/svg"><g><path d="M457.066 407C484.75 367.314 501 319.058 501 267c0-135.31-109.69-245-245-245S11 131.69 11 267c0 52.058 16.25 100.314 43.934 140z" fill="#cecefe"></path><path d="M289 25v41h31.045c7.72 0 14 6.28 14 14v32.871H346c1.39 0 2.731.21 4 .59V60c0-27.614-22.386-50-50-50h-16.285A23.877 23.877 0 0 1 289 25z" fill="#444474"></path><path d="M166 112.871h11.955V80c0-7.72 6.28-14 14-14H290V25c0-13.807-11.193-25-25-25h-53c-27.614 0-50 22.386-50 50v63.461c1.269-.379 2.61-.59 4-.59z" fill="#5a5a8a"></path><path d="M166 111.871h10.955V80c0-8.284 6.716-15 15-15H192V50c0-27.614 22.386-50 50-50h-30c-27.614 0-50 22.386-50 50v62.427a14.999 14.999 0 0 1 4-.556z" fill="#444474"></path><path d="M378 228.78H192V363c0 2.206-1.794 4-4 4h-79v40h294V253.78c0-13.807-11.193-25-25-25z" fill="#5a5a8a"></path><path d="M109 368h30v39h-30zM340.404 266.568l-33.464-52.324a48.683 48.683 0 0 1-21.895 5.183h-58.09c-7.867 0-15.3-1.874-21.895-5.183L192 234.665V363a3.997 3.997 0 0 1-3.876 3.987L204.484 407h57.327v-49.291l-.387-.3c-3.446-2.68-5.424-6.707-5.424-11.048V309.84c0-2.206 1.794-4 4-4h50.5v-1.549c0-16.175 12.745-29.43 28.719-30.25l1.313-2.298a5 5 0 0 0-.128-5.175z" fill="#444474"></path><path d="M260 305.84h41v-1h-9.193L256 277.786l-44 33.245-1-2.63V407h50.811v-49.291l-.387-.3c-3.446-2.68-5.424-6.707-5.424-11.048V309.84c0-2.205 1.794-4 4-4z" fill="#ffffff"></path><path d="M239.543 407h22.268v-49.291l-.387-.3c-3.446-2.68-5.424-6.707-5.424-11.048V309.84c0-2.206 1.794-4 4-4h11.356l7.164-11.039L256 277.786l-22.52 17.015 15.05 23.191z" fill="#0182fc"></path><path d="M291.472 305.84H301v-73.703a10 10 0 0 0-3.125-7.262l-6.237-5.905a49.113 49.113 0 0 1-6.593.456h-58.09c-2.237 0-4.435-.164-6.593-.456l-6.237 5.905a10 10 0 0 0-3.125 7.262v80.903l41.986-31.723a4.998 4.998 0 0 1 6.028 0z" fill="#eaf6ff"></path><path d="M226.77 247.251a14.997 14.997 0 0 1-5.076-11.248V220.15c-.762-.08-1.52-.175-2.272-.289l-5.296 5.014a10 10 0 0 0-3.125 7.262v80.903l21-15.867v-45.307z" fill="#d8ecfe"></path><path d="M346 111.871h-11.955v58.556c0 .541-.023 1.076-.041 1.613H346c8.284 0 15-6.716 15-15v-30.168c0-8.285-6.716-15.001-15-15.001z" fill="#ffbd86"></path><path d="M177.955 170.427v-58.556H166c-8.284 0-15 6.716-15 15v30.168c0 8.284 6.716 15 15 15h11.996c-.017-.536-.041-1.071-.041-1.612z" fill="#fed2a4"></path><path d="M285.045 219.427h-58.09c-1.778 0-3.532-.101-5.261-.286v16.863a15 15 0 0 0 5.076 11.248l25.922 22.87a5 5 0 0 0 6.616 0l25.923-22.87a14.997 14.997 0 0 0 5.076-11.248V219.14c-1.73.186-3.484.287-5.262.287z" fill="#ffbd86"></path><path d="M249 236.003v-15.577h-22.045c-1.777 0-3.532-.096-5.261-.277v15.854a15 15 0 0 0 5.076 11.248l25.922 22.87a5 5 0 0 0 6.616 0l10.345-9.127-15.577-13.743A15 15 0 0 1 249 236.003z" fill="#f6a96c"></path><path d="M285.045 220.427h-58.09c-27.614 0-50-22.386-50-50V80c0-8.284 6.716-15 15-15h128.09c8.284 0 15 6.716 15 15v90.427c0 27.614-22.386 50-50 50z" fill="#fed2a4"></path><path d="M208 170.427V80c0-8.284 6.716-15 15-15h-31.045c-8.284 0-15 6.716-15 15v90.427c0 27.614 22.386 50 50 50H258c-27.614 0-50-22.386-50-50z" fill="#ffbd86"></path><path d="M262 167.54h-12a7.5 7.5 0 0 1-7.5-7.5v-22c0-4.142 3.357-7.5 7.5-7.5s7.5 3.358 7.5 7.5v14.5h4.5c4.143 0 7.5 3.358 7.5 7.5s-3.357 7.5-7.5 7.5z" fill="#a44f3e"></path><circle cx="213.57" cy="132.54" fill="#a44f3e" r="12.5"></circle><path d="M230.54 114.575a7.476 7.476 0 0 1-5.304-2.197 16.393 16.393 0 0 0-11.666-4.838 16.393 16.393 0 0 0-11.667 4.838 7.498 7.498 0 0 1-10.606 0 7.498 7.498 0 0 1-.001-10.606c5.953-5.953 13.863-9.232 22.274-9.232 8.41 0 16.32 3.279 22.273 9.232a7.498 7.498 0 0 1-.001 10.606 7.474 7.474 0 0 1-5.302 2.197z" fill="#a44f3e"></path><circle cx="298.43" cy="132.54" fill="#a44f3e" r="12.5"></circle><path d="M315.4 114.575a7.476 7.476 0 0 1-5.304-2.197 16.393 16.393 0 0 0-11.667-4.838 16.393 16.393 0 0 0-11.666 4.838 7.498 7.498 0 0 1-10.606 0 7.498 7.498 0 0 1-.001-10.606c5.953-5.953 13.863-9.232 22.273-9.232 8.411 0 16.321 3.279 22.274 9.232a7.498 7.498 0 0 1-.001 10.606 7.474 7.474 0 0 1-5.302 2.197zM282 195.5h-52c-4.143 0-7.5-3.358-7.5-7.5s3.357-7.5 7.5-7.5h52c4.143 0 7.5 3.358 7.5 7.5s-3.357 7.5-7.5 7.5zM324.5 305.84v-1.549c0-8.983 7.309-16.291 16.291-16.291h43.418c8.982 0 16.291 7.308 16.291 16.291v1.549h15v-1.549c0-17.254-14.037-31.291-31.291-31.291h-43.418c-17.254 0-31.291 14.037-31.291 31.291v1.549z" fill="#a44f3e"></path><path d="M49 352v11a5 5 0 0 0 5 5h134a5 5 0 0 0 5-5v-11z" fill="#ffffff"></path><path d="M49 353v10a5 5 0 0 0 5 5h15v-15zM49 339h144v14H49z" fill="#eaf6ff"></path><path d="M49 340h20v13H49z" fill="#d8ecfe"></path><path d="M192.889 340h-144V153a5 5 0 0 1 5-5h134a5 5 0 0 1 5 5z" fill="#ffffff"></path><path d="M74 148H53.889a5 5 0 0 0-5 5v187H69V153a5 5 0 0 1 5-5z" fill="#eaf6ff"></path><path d="M158.139 196.5H120c-4.143 0-7.5-3.358-7.5-7.5s3.357-7.5 7.5-7.5h38.139a7.5 7.5 0 0 1 0 15zM158.139 225.5h-74.5c-4.143 0-7.5-3.358-7.5-7.5s3.357-7.5 7.5-7.5h74.5a7.5 7.5 0 0 1 0 15zM158.139 251.5h-74.5c-4.143 0-7.5-3.358-7.5-7.5s3.357-7.5 7.5-7.5h74.5a7.5 7.5 0 0 1 0 15zM158.139 288.5h-74.5c-4.143 0-7.5-3.358-7.5-7.5s3.357-7.5 7.5-7.5h74.5a7.5 7.5 0 0 1 0 15zM158.139 314.5h-74.5c-4.143 0-7.5-3.358-7.5-7.5s3.357-7.5 7.5-7.5h74.5a7.5 7.5 0 0 1 0 15z" fill="#a44f3e"></path><path d="M36.794 210h27.413a8.794 8.794 0 0 1 8.794 8.794v1.071a8.794 8.794 0 0 1-8.794 8.794 8.794 8.794 0 0 1 8.794 8.794v1.071a8.794 8.794 0 0 1-8.794 8.794 8.794 8.794 0 0 1 8.794 8.794v1.071a8.794 8.794 0 0 1-8.794 8.794 8.794 8.794 0 0 1 8.794 8.794v1.071a8.794 8.794 0 0 1-8.794 8.794H36.794A8.794 8.794 0 0 1 28 275.842v-57.047A8.794 8.794 0 0 1 36.794 210z" fill="#fed2a4"></path><path d="M48 275.84v-57.047a8.794 8.794 0 0 1 8.794-8.794h-20A8.794 8.794 0 0 0 28 218.793v57.047a8.794 8.794 0 0 0 8.794 8.794h20A8.794 8.794 0 0 1 48 275.84z" fill="#ffbd86"></path><path d="M158.889 163h-76a5 5 0 0 1-5-5v-14a5 5 0 0 1 5-5h76a5 5 0 0 1 5 5v14a5 5 0 0 1-5 5z" fill="#fed402"></path><path d="M108 158v-14a5 5 0 0 1 5-5H82.889a5 5 0 0 0-5 5v14a5 5 0 0 0 5 5H113a5 5 0 0 1-5-5z" fill="#fac600"></path><circle cx="90.5" cy="187.5" fill="#a44f3e" r="13.5"></circle><path d="M455 360.361H270c-3.518 0-6.727-1.314-9.189-3.464V407h203.378v-50.103c-2.462 2.15-5.671 3.464-9.189 3.464z" fill="#d88a55"></path><path d="M304.622 406v-25.799h-1.4a5 5 0 0 1-5-5v-13.84H270a14.914 14.914 0 0 1-9.189-3.162V406z" fill="#c57a44"></path><path d="M455 361.361H270c-8.284 0-15-6.716-15-15V309.84a5 5 0 0 1 5-5h205a5 5 0 0 1 5 5v36.521c0 8.284-6.716 15-15 15z" fill="#ea9b58"></path><path d="M298.222 357.72c-3.193-2.751-5.222-6.815-5.222-11.359V309.84a5 5 0 0 1 5-5h-38a5 5 0 0 0-5 5v36.521c0 8.284 6.716 15 15 15h28.222z" fill="#d88a55"></path><path d="M322.036 380.201h-18.814a5 5 0 0 1-5-5v-22.139a5 5 0 0 1 5-5h18.814a5 5 0 0 1 5 5v22.139a5 5 0 0 1-5 5z" fill="#fed402"></path><path d="M309 375.201v-22.139a5 5 0 0 1 5-5h-10.778a5 5 0 0 0-5 5v22.139a5 5 0 0 0 5 5H314a5 5 0 0 1-5-5z" fill="#fac600"></path><path d="M421.778 380.201h-18.814a5 5 0 0 1-5-5v-22.139a5 5 0 0 1 5-5h18.814a5 5 0 0 1 5 5v22.139a5 5 0 0 1-5 5z" fill="#fed402"></path><path d="M408 375.201v-22.139a5 5 0 0 1 5-5h-10.036a5 5 0 0 0-5 5v22.139a5 5 0 0 0 5 5H413a5 5 0 0 1-5-5z" fill="#fac600"></path><path d="M84.918 442.348C129.073 485.438 189.43 512 256 512s126.927-26.562 171.082-69.652z" fill="#fe9901"></path><path d="M496 443.348H16a5 5 0 0 1-5-5V411a5 5 0 0 1 5-5h480a5 5 0 0 1 5 5v27.348a5 5 0 0 1-5 5z" fill="#fe9901"></path><path d="M57 428a5 5 0 0 1-5-5v-17H16a5 5 0 0 0-5 5v27.348a5 5 0 0 0 5 5h480a5 5 0 0 0 5-5V428z" fill="#fb8801"></path></g></svg>