<svg viewBox="0 0 512 512" xmlns="http://www.w3.org/2000/svg"><g><path d="M255.103 0c-52.526 0-95.104 42.578-95.104 95.104v37.635c6.356-5.892 15.398-9.094 24.226-7.915v-4.739c0-3.767 3.217-6.743 6.946-6.461 36.77 2.641 74.191-9.043 102.485-27.526a6.478 6.478 0 0 1 8.286 1.01c24.189 26.001 24.043 24.995 24.043 28.389v9.306c9.675-1.45 18.258 1.54 24.221 7.084V95.104C350.206 42.578 307.629 0 255.103 0z" fill="#576574"></path><path d="M185.526 95.104c0-48.194 35.854-87.988 82.34-94.227A95.772 95.772 0 0 0 255.103 0C202.577 0 160 42.578 160 95.104v37.635c6.356-5.892 15.398-9.094 24.225-7.915v-4.739c0-1.463.49-2.803 1.301-3.883V95.104z" fill="#3e4b5a"></path><path d="M324.725 121.024v52.098c0 .565-.03 1.123-.043 1.685 18.436 2.792 32.876-10.529 32.876-26.889 0-16.392-14.452-29.649-32.833-26.894zM185.485 173.122v-52.078c-16.05-2.143-32.833 10.175-32.833 26.873 0 16.339 14.407 29.684 32.874 26.889-.014-.561-.041-1.121-.041-1.684z" fill="#f2bb88"></path><path d="M347.79 127.094c-5.892-4.888-13.998-7.429-23.065-6.07v52.098c0 .565-.029 1.122-.043 1.685 9.094 1.377 17.211-1.171 23.107-6.067v-41.646h.001zM185.485 168.744a26.968 26.968 0 0 1-9.768-20.826c0-8.061 3.917-15.095 9.768-19.98v-6.894c-16.05-2.143-32.833 10.175-32.833 26.873 0 16.338 14.407 29.683 32.874 26.889-.014-.562-.041-1.122-.041-1.684v-4.378z" fill="#e3a76f"></path><path d="M256.116 241.73c-15.365 0-28.867-4.218-39.911-11.274v37.324l39.74 49.053 39.739-49.053v-38.377c-11.257 7.765-24.887 12.327-39.568 12.327z" fill="#f2bb88"></path><path d="M241.656 240.415c-9.474-1.758-18.021-5.213-25.451-9.96v37.325l25.451 31.415v-58.78z" fill="#e3a76f"></path><path d="m400.814 305.974-105.13-40.714-39.739 49.053-39.74-49.053-105.019 40.714s-38.883 15.985-38.883 60.312v92.194a9.045 9.045 0 0 0 9.045 9.045h349.383a8.967 8.967 0 0 0 8.967-8.967v-92.272c-.001-44.326-38.884-60.312-38.884-60.312z" fill="#e4eaf8"></path><path d="M97.753 458.48V354.833c0-30.412 18.301-47.48 29.792-55.201l-16.359 6.342s-38.884 15.985-38.884 60.312v92.194a9.046 9.046 0 0 0 9.045 9.045h25.451a9.046 9.046 0 0 1-9.045-9.045z" fill="#d8dce5"></path><path d="M301.942 84.589a6.478 6.478 0 0 0-8.286-1.01c-28.294 18.483-65.714 30.167-102.485 27.526-3.73-.283-6.947 2.693-6.947 6.461v56.816c0 36.516 28.612 69.868 71.891 69.868 38.526 0 69.869-31.343 69.869-69.868v-61.403c.001-3.395.147-2.389-24.042-28.39z" fill="#f2d1a5"></path><path d="M209.675 174.382v-63.13c-6.156.327-12.339.296-18.504-.147-3.729-.283-6.947 2.693-6.947 6.46v56.816c0 36.516 28.612 69.868 71.892 69.868 3.993 0 7.902-.355 11.714-1.001-32.966-5.59-58.155-34.334-58.155-68.866z" fill="#f2bb88"></path><path d="m303.928 339.518 29.717-59.556-37.96-14.701-39.739 49.053 38.745 27.517c3.135 2.226 7.519 1.129 9.237-2.313z" fill="#d8dce5"></path><path d="M208.017 339.518 178.3 279.962l37.96-14.701L256 314.313l-38.745 27.517c-3.136 2.227-7.519 1.13-9.238-2.312z" fill="#d8dce5"></path><path d="M255.996 314.347v-.034l-.024.017-.024-.017v.034l-28.18 20.014 13.32 20.048h29.767l13.32-20.048-28.179-20.014z" fill="#ee5253"></path><path d="M220.897 467.525h70.151l-20.192-113.116h-29.767l-20.192 113.116z" fill="#ff6b6b"></path><path d="m270.074 324.345-14.078-9.998v-.034l-.024.017-.024-.017v.034l-28.18 20.014 13.321 20.048h28.204l-10.937-16.461a4.443 4.443 0 0 1 1.128-6.081l10.59-7.522z" fill="#d83941"></path><path d="m241.089 354.408-20.192 113.116h28.204l20.191-113.116h-28.203z" fill="#ee5253"></path><path d="M146.208 467.525v-86.003a7.727 7.727 0 0 0-15.454 0v86.003h15.454zM381.248 467.525v-86.003c0-4.268-3.459-7.727-7.727-7.727s-7.727 3.459-7.727 7.727v86.003h15.454z" fill="#d8dce5"></path><path d="M310.508 450.629c3.007-2.931 1.348-8.037-2.807-8.641l-29.949-4.352a5.065 5.065 0 0 1-3.814-2.771l-13.394-27.139c-1.858-3.765-7.228-3.765-9.086 0l-13.394 27.139a5.064 5.064 0 0 1-3.814 2.771l-29.95 4.352c-4.155.604-5.814 5.71-2.807 8.641l21.671 21.124a5.066 5.066 0 0 1 1.457 4.484l-5.116 29.828c-.71 4.138 3.634 7.294 7.35 5.34l26.787-14.083a5.066 5.066 0 0 1 4.715 0l26.787 14.083c3.717 1.954 8.06-1.202 7.35-5.34l-5.116-29.828a5.066 5.066 0 0 1 1.457-4.484l21.673-21.124zM449.251 450.629c3.007-2.931 1.348-8.037-2.807-8.641l-29.949-4.352a5.065 5.065 0 0 1-3.814-2.771l-13.394-27.139c-1.858-3.765-7.228-3.765-9.086 0l-13.394 27.139a5.064 5.064 0 0 1-3.814 2.771l-29.95 4.352c-4.155.604-5.814 5.71-2.807 8.641l21.671 21.124a5.066 5.066 0 0 1 1.457 4.484l-5.116 29.828c-.71 4.138 3.634 7.294 7.35 5.34l26.787-14.083a5.066 5.066 0 0 1 4.715 0l26.787 14.083c3.717 1.954 8.06-1.202 7.35-5.34l-5.116-29.828a5.066 5.066 0 0 1 1.457-4.484l21.673-21.124zM171.765 450.629c3.007-2.931 1.348-8.037-2.807-8.641l-29.949-4.352a5.065 5.065 0 0 1-3.814-2.771L121.8 407.727c-1.858-3.765-7.228-3.765-9.086 0L99.32 434.865a5.064 5.064 0 0 1-3.814 2.771l-29.95 4.352c-4.155.604-5.814 5.71-2.808 8.641l21.671 21.124a5.066 5.066 0 0 1 1.457 4.484l-5.116 29.828c-.71 4.138 3.634 7.294 7.35 5.34l26.787-14.083a5.066 5.066 0 0 1 4.715 0l26.787 14.083c3.717 1.954 8.06-1.202 7.35-5.34l-5.116-29.828a5.066 5.066 0 0 1 1.457-4.484l21.675-21.124z" fill="#fbc856"></path><path d="M245.226 476.238a5.066 5.066 0 0 0-1.457-4.484l-21.671-21.124c-3.007-2.931-1.348-8.037 2.808-8.641l29.95-4.352a5.066 5.066 0 0 0 3.814-2.771l7.634-15.469-5.76-11.67c-1.859-3.765-7.228-3.765-9.086 0l-13.394 27.139a5.064 5.064 0 0 1-3.814 2.771l-29.95 4.352c-4.155.604-5.814 5.71-2.808 8.641l21.671 21.124a5.066 5.066 0 0 1 1.457 4.484l-5.116 29.828c-.71 4.138 3.634 7.294 7.351 5.341l13.561-7.13 4.81-28.039zM383.969 476.238a5.066 5.066 0 0 0-1.457-4.484L360.84 450.63c-3.007-2.931-1.348-8.037 2.808-8.641l29.95-4.352a5.066 5.066 0 0 0 3.814-2.771l7.634-15.469-5.76-11.67c-1.858-3.765-7.228-3.765-9.086 0l-13.394 27.139a5.064 5.064 0 0 1-3.814 2.771l-29.95 4.352c-4.155.604-5.814 5.71-2.808 8.641l21.671 21.124a5.066 5.066 0 0 1 1.457 4.484l-5.116 29.828c-.71 4.138 3.634 7.294 7.35 5.341l13.561-7.13 4.812-28.039zM106.482 476.238a5.066 5.066 0 0 0-1.457-4.484L83.354 450.63c-3.007-2.931-1.348-8.037 2.808-8.641l29.95-4.352a5.066 5.066 0 0 0 3.814-2.771l7.634-15.469-5.76-11.67c-1.859-3.765-7.228-3.765-9.086 0L99.32 434.865a5.064 5.064 0 0 1-3.814 2.771l-29.95 4.352c-4.155.604-5.814 5.71-2.808 8.641l21.671 21.124a5.066 5.066 0 0 1 1.457 4.484l-5.116 29.828c-.71 4.138 3.634 7.294 7.351 5.341l13.561-7.13 4.81-28.038z" fill="#f4b537"></path></g></svg>