<svg viewBox="0 0 512 512" xmlns="http://www.w3.org/2000/svg"><g><path d="m255 219.156-15 2.5v62.729l15 10 9.75-37.614z" fill="#cde8ff"></path><path d="M270 284.385v-62.729l-15-2.5v75.229z" fill="#a3dbff"></path><path d="M150 479.385H90l-15-15 15-15h30v-75l15-15 15 15z" fill="#cde8ff"></path><path d="M420 479.385h-60v-105l15-15 15 15v75h30l15 15zM330 344.385h-30l-15-15 15-15h30l15 15z" fill="#a3dbff"></path><path d="M210 344.385h-30l-15-15 15-15h30l15 15z" fill="#cde8ff"></path><path d="M270 56.052 255 .615l-105 52.5 40.333 41.937L255 117.385z" fill="#ffbb00"></path><path d="M360 53.115 255 .615v116.77l60-26.333z" fill="#ffa000"></path><path d="M150 53.115v123.541l105 52.5 16.667-63.104L255 107.385z" fill="#ffd400"></path><path d="m255.021 107.374-.02.011H255v121.771l105-52.5V53.115z" fill="#ffbb00"></path><path d="M90 284.385h90v90H90z" fill="#4d5086"></path><path d="M330 284.385h90v90h-90z" fill="#59abff"></path><path d="M0 509.385h90v-90H0z" fill="#66ccff"></path><path d="M420 419.385v90h90v-90z" fill="#59c36a"></path><path d="M240 374.385v45l15 10 11.375-32.5-11.375-32.5z" fill="#cde8ff"></path><path d="M255 364.385v65l15-10v-45z" fill="#a3dbff"></path><path d="M255 284.385h-45v90h45l15-45z" fill="#ff9000"></path><path d="M255 284.385h45v90h-45z" fill="#ff4a4a"></path><path d="M210 419.385v90h45l15-45-15-45z" fill="#ffd400"></path><path d="M255 509.385h45v-90h-45z" fill="#ffbb00"></path></g></svg>