<svg id="Layer_1" height="512" viewBox="0 0 512 512" width="512" xmlns="http://www.w3.org/2000/svg" data-name="Layer 1"><g><circle cx="396.179" cy="137.304" fill="#f9ac00" r="105"/><path d="m392.899 242.248c-56.471-1.734-101.72-48.052-101.72-104.944s45.248-103.21 101.72-104.944c56.472 1.733 101.72 48.052 101.72 104.944s-45.249 103.211-101.72 104.944z" fill="#fdc72e" fill-rule="evenodd"/><circle cx="396.179" cy="137.303" fill="#f19a00" r="83.775" transform="matrix(.987 -.162 .162 .987 -17.031 66.119)"/><path d="m401.567 53.706c43.755 2.779 78.386 39.141 78.386 83.597s-34.631 80.819-78.386 83.597c-43.756-2.778-78.386-39.14-78.386-83.597s34.631-80.819 78.386-83.597z" fill="#f9ac00" fill-rule="evenodd"/></g><g><g fill-rule="evenodd"><path d="m150.87 145.126c-61.3 24.171-113.507 110.362-132.426 183.744-31.737 123.096 38.699 148.63 154.179 150.645 115.48-2.015 185.916-27.549 154.179-150.645-18.919-73.382-71.126-159.574-132.426-183.744z" fill="#dea368"/><path d="m191.406 478.945c104.188-4.583 165.372-33.807 135.395-150.075-18.92-73.382-71.126-159.574-132.426-183.745h-5.938c-61.301 24.171-113.507 110.363-132.427 183.745-29.976 116.267 31.208 145.492 135.396 150.075z" fill="#e6b17c"/><path d="m190.019 159.97 31.423.092c71.086-97.359 54.333-132.026 21.316-121.754-9.76 3.036-15.848 8.213-20.988 12.444-9.204 7.58-16.54 11.111-24.396-.039-17.096-24.263-32.408-24.263-49.504 0-7.856 11.15-15.192 7.618-24.396.039-5.139-4.231-11.227-9.408-20.987-12.444-33.018-10.271-49.771 24.396 21.315 121.754l31.423-.092c6.564.04 11.98.059 17.397.059s10.833-.019 17.397-.059z" fill="#dea368"/><path d="m190.019 159.97 1.387.004 1.387-.004 3.006.017 14.392.042c3.648 0 7.296-.008 11.295-.027 71.035-97.313 54.283-131.964 21.272-121.694-9.76 3.036-15.848 8.212-20.988 12.444-9.203 7.58-16.54 11.111-24.395-.039-17.096-24.264-32.408-24.264-49.504 0-7.856 11.15-15.192 7.619-24.396.039-2.543-2.094-5.32-4.42-8.658-6.603-8.999 14.759-.337 51.677 46.51 115.853 3.999.018 7.647.027 11.295.027l14.392-.042 3.006-.017z" fill="#e6b17c"/></g><rect fill="#96602a" height="36.082" rx="18.041" width="162.515" x="91.365" y="141.987"/><path d="m139.926 141.987h95.914c9.923 0 18.041 8.118 18.041 18.041s-8.118 18.042-18.041 18.042h-95.914c-9.923 0-18.041-8.118-18.041-18.04s8.117-18.042 18.041-18.042z" fill="#ab733a" fill-rule="evenodd"/></g><path d="m425.26 112.025c.496 2.707-1.297 5.304-4.004 5.801-2.707.496-5.304-1.297-5.8-4.004-.68-3.674-2.644-6.558-5.32-8.648-2.418-1.889-5.44-3.173-8.675-3.85-.164-.034-.329-.067-.494-.098v32.85c.965.297 1.908.6 2.817.918 7.24 2.529 13.753 6.353 17.726 12.001 3.559 5.059 5.032 11.318 3.2 19.025-1.644 6.913-6.556 11.883-12.935 14.8-3.295 1.507-6.993 2.453-10.807 2.817v10.847c0 2.761-2.239 5-5 5s-5-2.239-5-5v-11.22c-3.694-.629-7.295-1.81-10.548-3.561-6.86-3.692-12.214-9.841-13.879-18.618-.507-2.707 1.277-5.313 3.984-5.82s5.313 1.277 5.82 3.984c1.035 5.454 4.433 9.314 8.801 11.665 1.809.974 3.779 1.701 5.821 2.186v-31.595c-5.711-1.75-11.424-3.919-15.778-8.071-4.704-4.486-7.16-10.077-7.601-15.729-.463-5.931 1.33-11.919 5.098-16.744 4.021-5.147 10.17-8.337 16.858-9.574.472-.087.946-.165 1.423-.233v-11.034c0-2.761 2.239-5 5-5s5 2.239 5 5v11.002c.848.115 1.691.259 2.525.433 4.662.974 9.103 2.894 12.777 5.763 4.512 3.525 7.83 8.423 8.992 14.703zm-34.294-10.759c-4.264.857-8.067 2.805-10.429 5.83-2.212 2.831-3.263 6.361-2.989 9.869.257 3.291 1.715 6.574 4.514 9.244 2.218 2.114 5.42 3.596 8.904 4.816zm10 72.345c2.38-.31 4.649-.931 6.667-1.854 3.683-1.685 6.483-4.4 7.349-8.042 1.095-4.606.32-8.196-1.637-10.979-2.553-3.629-7.126-6.272-12.379-8.164v29.04z" fill="#fcdb35" fill-rule="evenodd"/><path d="m212.268 293.94c.496 2.707-1.296 5.304-4.004 5.8-2.707.496-5.304-1.297-5.8-4.004-1.07-5.786-4.155-10.321-8.357-13.603-3.711-2.899-8.316-4.863-13.227-5.89-1.075-.225-2.162-.404-3.256-.538v50.827c1.873.56 3.699 1.13 5.439 1.738 9.932 3.47 18.838 8.675 24.211 16.315 4.729 6.723 6.68 15.071 4.226 25.392-2.176 9.154-8.725 15.753-17.24 19.647-5.029 2.3-10.757 3.639-16.636 3.978v17.408c0 2.761-2.239 5-5 5s-5-2.239-5-5v-17.795c-5.654-.764-11.195-2.46-16.143-5.123-9.243-4.975-16.453-13.247-18.691-25.044-.507-2.707 1.277-5.313 3.984-5.82s5.313 1.277 5.82 3.984c1.607 8.474 6.863 14.458 13.613 18.091 3.505 1.886 7.403 3.158 11.416 3.836v-49.157c-8.391-2.507-16.891-5.506-23.137-11.462-6.297-6.004-9.582-13.479-10.172-21.028-.619-7.934 1.777-15.942 6.814-22.39 5.39-6.899 13.684-11.185 22.726-12.858 1.242-.23 2.5-.41 3.768-.542v-17.586c0-2.761 2.239-5 5-5s5 2.239 5 5v17.556c1.779.173 3.547.441 5.287.805 6.337 1.325 12.362 3.924 17.328 7.804 6.037 4.716 10.476 11.266 12.028 19.658zm-44.644-18.2c-.662.087-1.319.19-1.971.311-6.771 1.253-12.871 4.321-16.672 9.186-3.481 4.456-5.135 10.005-4.705 15.516.405 5.189 2.693 10.355 7.085 14.543 4.04 3.853 10.014 6.271 16.263 8.262v-47.817zm10 107.877c4.463-.317 8.756-1.344 12.496-3.055 5.819-2.661 10.255-7.007 11.654-12.889 1.717-7.219.464-12.899-2.664-17.345-4.028-5.727-11.191-9.8-19.329-12.643-.706-.247-1.426-.486-2.157-.722z" fill="#96602a" fill-rule="evenodd"/><path d="m305.448 361.977h181.039c7.875 0 14.269 6.394 14.269 14.269v30.322c0 7.875-6.394 14.269-14.269 14.269h-181.039c-7.875 0-14.268-6.393-14.268-14.268v-30.323c0-7.875 6.394-14.269 14.269-14.269z" fill="#f19a00"/><path d="m305.447 420.837h181.039c7.875 0 14.269 6.394 14.269 14.269v30.322c0 7.875-6.394 14.269-14.269 14.269h-181.039c-7.875 0-14.268-6.393-14.268-14.268v-30.323c0-7.875 6.393-14.268 14.268-14.268z" fill="#fdc72e"/><path d="m305.447 303.118h181.039c7.875 0 14.269 6.394 14.269 14.269v30.322c0 7.875-6.394 14.268-14.268 14.268h-181.039c-7.875 0-14.268-6.393-14.268-14.268v-30.323c0-7.875 6.393-14.268 14.268-14.268z" fill="#fdc72e"/><path d="m305.447 244.259h181.039c7.875 0 14.269 6.394 14.269 14.269v30.322c0 7.875-6.394 14.269-14.269 14.269h-181.039c-7.875 0-14.268-6.393-14.268-14.268v-30.323c0-7.875 6.393-14.268 14.268-14.268z" fill="#f19a00"/><g fill-rule="evenodd"><path d="m305.448 244.259h160.554c2.205 0 4.003 1.798 4.003 4.003v30.088c0 7.847-6.421 14.269-14.269 14.269h-160.554c-2.204 0-4.003-1.798-4.003-4.003v-30.088c0-7.848 6.421-14.268 14.268-14.268z" fill="#f9ac00"/><path d="m305.448 303.118h160.554c2.205 0 4.003 1.798 4.003 4.003v30.088c0 7.847-6.421 14.269-14.269 14.269h-160.554c-2.204 0-4.003-1.798-4.003-4.003v-30.088c0-7.848 6.421-14.268 14.268-14.268z" fill="#fcdb35"/><path d="m305.448 361.977h160.554c2.205 0 4.003 1.798 4.003 4.003v30.088c0 7.847-6.421 14.269-14.269 14.269h-160.554c-2.204 0-4.003-1.798-4.003-4.003v-30.088c0-7.848 6.421-14.268 14.268-14.268z" fill="#f9ac00"/><path d="m305.448 420.837h160.554c2.205 0 4.003 1.798 4.003 4.003v30.088c0 7.847-6.421 14.269-14.269 14.269h-160.554c-2.204 0-4.003-1.798-4.003-4.003v-30.088c0-7.848 6.421-14.268 14.268-14.268z" fill="#fcdb35"/></g></svg>