<svg viewBox="0 0 512 512" xmlns="http://www.w3.org/2000/svg"><g><circle cx="256" cy="267" fill="#85addf" r="245"></circle><path d="M433.204 0h-288.51c-5.523 0-10 4.477-10 10v216.388l23.022-10.226c1.932-.858 3.983-1.293 6.097-1.293s4.165.435 6.097 1.293l87 38.645a15.03 15.03 0 0 1 8.922 13.726V331.9c0 13.347-1.583 25.576-4.746 36.823a39.768 39.768 0 0 1 6.001 4.93l8.216 8.217 8.216-8.217c7.463-7.462 17.428-11.571 28.057-11.571 10.63 0 20.594 4.109 28.058 11.571 8.498 8.498 12.317 19.923 11.479 31.06h82.089c5.523 0 10-4.477 10-10V10c.002-5.523-4.475-10-9.998-10z" fill="#eaf6ff"></path><path d="M157.717 216.162c1.932-.858 3.983-1.293 6.097-1.293s4.165.435 6.097 1.293l4.783 2.125V10c0-5.523 4.477-10 10-10h-40c-5.523 0-10 4.477-10 10v216.388z" fill="#d8ecfe"></path><path d="M381.482 152.593H196.416c-4.142 0-7.5-3.357-7.5-7.5s3.358-7.5 7.5-7.5h185.066c4.142 0 7.5 3.357 7.5 7.5s-3.357 7.5-7.5 7.5zM381.482 182.721H196.416c-4.142 0-7.5-3.357-7.5-7.5s3.358-7.5 7.5-7.5h185.066c4.142 0 7.5 3.357 7.5 7.5s-3.357 7.5-7.5 7.5zM381.482 212.849H196.416c-4.142 0-7.5-3.357-7.5-7.5s3.358-7.5 7.5-7.5h185.066c4.142 0 7.5 3.357 7.5 7.5s-3.357 7.5-7.5 7.5z" fill="#017b4e"></path><path d="M381.482 268.8H290.67c-4.142 0-7.5-3.357-7.5-7.5s3.358-7.5 7.5-7.5h90.812c4.142 0 7.5 3.357 7.5 7.5s-3.357 7.5-7.5 7.5zM381.482 85.125H290.67c-4.142 0-7.5-3.357-7.5-7.5s3.358-7.5 7.5-7.5h90.812c4.142 0 7.5 3.357 7.5 7.5s-3.357 7.5-7.5 7.5zM381.482 298.928H290.67c-4.142 0-7.5-3.357-7.5-7.5s3.358-7.5 7.5-7.5h90.812c4.142 0 7.5 3.357 7.5 7.5s-3.357 7.5-7.5 7.5zM381.482 329.056H290.67c-4.142 0-7.5-3.357-7.5-7.5s3.358-7.5 7.5-7.5h90.812c4.142 0 7.5 3.357 7.5 7.5s-3.357 7.5-7.5 7.5zM220.074 63.574h-12.762a3.4 3.4 0 0 1-3.396-3.396v-3.729a3.4 3.4 0 0 1 3.396-3.396h21.2c4.142 0 7.5-3.357 7.5-7.5s-3.358-7.5-7.5-7.5h-7.319V37.3c0-4.143-3.358-7.5-7.5-7.5s-7.5 3.357-7.5 7.5v.81c-9.622.583-17.277 8.573-17.277 18.339v3.729c0 10.144 8.252 18.396 18.396 18.396h12.762a3.4 3.4 0 0 1 3.396 3.396v3.73a3.4 3.4 0 0 1-3.396 3.396h-21.69c-4.142 0-7.5 3.357-7.5 7.5s3.358 7.5 7.5 7.5h7.809v1.848c0 4.143 3.358 7.5 7.5 7.5s7.5-3.357 7.5-7.5v-1.904c9.622-.583 17.277-8.573 17.277-18.339v-3.729c0-10.145-8.252-18.398-18.396-18.398zM210.09 428.837h-31.357c-3.584 0-6.5-2.916-6.5-6.5s2.916-6.5 6.5-6.5h23.233c-5.373-14.16-2.378-30.798 9.008-42.185 7.463-7.462 17.428-11.571 28.058-11.571 8.365 0 16.311 2.555 22.958 7.275 3.163-11.148 4.844-23.548 4.844-37.457v-63.367c0-6.332-3.73-12.07-9.517-14.64l-87-38.644a16.02 16.02 0 0 0-13.006 0l-87 38.644a16.019 16.019 0 0 0-9.517 14.64v63.367c0 67.467 39.455 99.487 96.548 124.822a15.972 15.972 0 0 0 12.945 0c16.193-7.186 30.965-14.911 43.822-23.828l-3.135-3.127c-.304-.303-.591-.618-.884-.929z" fill="#09a76d"></path><path d="M189.557 446.864c-59.603-26.45-100.793-59.877-100.793-130.311V250.4c0-1.746.279-3.446.79-5.056l-19.243 8.548a16.019 16.019 0 0 0-9.517 14.64v63.367c0 67.467 39.455 99.487 96.548 124.822a15.972 15.972 0 0 0 12.945 0c6.937-3.078 13.611-6.257 19.988-9.584-.239-.092-.483-.169-.718-.273z" fill="#02905d"></path><path d="M213.048 311.038h-28.061v-28.061a5 5 0 0 0-5-5H147.64a5 5 0 0 0-5 5v28.061h-28.061a5 5 0 0 0-5 5v32.347a5 5 0 0 0 5 5h28.061v28.061a5 5 0 0 0 5 5h32.347a5 5 0 0 0 5-5v-28.061h28.061a5 5 0 0 0 5-5v-32.347a5 5 0 0 0-5-5z" fill="#ffffff"></path><path d="M160.307 373.78a5 5 0 0 1-5-5v-23.061a5 5 0 0 0-5-5h-23.061a5 5 0 0 1-5-5v-24.681h-7.667a5 5 0 0 0-5 5v32.347a5 5 0 0 0 5 5h28.061v28.061a5 5 0 0 0 5 5h32.347a5 5 0 0 0 5-5v-7.667h-24.68z" fill="#eaf6ff"></path><g fill="#fb2b3a"><path d="M303.68 438.015a6.519 6.519 0 0 1-5.625-3.243l-9.634-16.64-15.049 33.334a6.472 6.472 0 0 1-5.925 3.825 6.515 6.515 0 0 1-5.625-3.246l-13.418-23.208h-39.679a40.263 40.263 0 0 0 1.546 1.638c22.64 22.585 50.119 49.952 60.479 60.179 1.264 1.248 2.911 1.871 4.559 1.871s3.295-.624 4.559-1.871c9.232-9.114 32.043-31.823 52.919-52.64H303.68z" fill="#fb2b3a"></path><path d="M252.151 415.837a6.518 6.518 0 0 1 5.627 3.247l8.956 15.489 15.045-33.325a6.473 6.473 0 0 1 5.596-3.816 6.495 6.495 0 0 1 5.953 3.234l14.098 24.349h37.484c11.098-15.858 9.583-37.918-4.567-52.069-7.652-7.651-17.867-11.865-28.764-11.865-10.898 0-21.112 4.214-28.765 11.865l-7.509 7.509-7.509-7.509c-7.652-7.651-17.867-11.865-28.764-11.865-10.898 0-21.112 4.214-28.765 11.865-11.578 11.578-14.695 28.451-9.37 42.891z" fill="#fb2b3a"></path></g><g fill="#e41f2d"><path d="M231.389 428.837h-22.667a40.263 40.263 0 0 0 1.546 1.638c22.64 22.585 50.119 49.952 60.479 60.179 1.264 1.248 2.911 1.871 4.559 1.871s3.295-.624 4.559-1.871c1.785-1.762 4.087-4.042 6.775-6.708-12.918-12.815-34.965-34.776-53.704-53.471a39.605 39.605 0 0 1-1.547-1.638zM223.565 415.837c-5.325-14.44-2.208-31.313 9.37-42.891a40.254 40.254 0 0 1 17.431-10.276 41.11 41.11 0 0 0-11.333-1.589c-10.898 0-21.112 4.214-28.765 11.865-11.578 11.578-14.695 28.451-9.37 42.891z" fill="#e41f2d"></path></g><path d="M267.445 456.291a7.5 7.5 0 0 1-6.491-3.746l-13.13-22.708h-69.091c-4.142 0-7.5-3.357-7.5-7.5s3.358-7.5 7.5-7.5h73.418a7.501 7.501 0 0 1 6.493 3.746l7.98 13.803 14.244-31.549a7.498 7.498 0 0 1 6.458-4.404 7.475 7.475 0 0 1 6.869 3.732l13.809 23.85h46.628c4.142 0 7.5 3.357 7.5 7.5s-3.358 7.5-7.5 7.5H303.68a7.502 7.502 0 0 1-6.491-3.742l-8.659-14.954-14.248 31.559a7.498 7.498 0 0 1-6.837 4.413z" fill="#ffffff"></path></g></svg>