<svg viewBox="0 0 512 512" xmlns="http://www.w3.org/2000/svg"><g><path d="M501.383 399.98 323.69 490.078c-23.875 15.192-54.246 14.926-77.742-.207-11.027-7.11-14.492-7.797-72.484-36.469-25.77-12.609-49.246-16.625-87.516-21.34V320.759h126.903a29.702 29.702 0 0 1 21.007 8.707c1.743 1.746-11.578-11.574 57.082 57.07a25.945 25.945 0 0 1 7.606 19.067l1.223-.836 186.253-46.891c24.68-3.121 35.735 29.172 15.36 42.105zm0 0" fill="#f2bb88"></path><path d="M291.652 422.21c-9.797 10.13-25.91 10.286-35.902.317l-47.46-47.472a13.496 13.496 0 0 0-9.552-3.957H85.95v-50.34h126.906a29.695 29.695 0 0 1 21.004 8.699c1.743 1.746-11.578-11.57 57.082 57.07 9.684 9.688 10.375 25.68.711 35.684zm0 0" fill="#f2d1a5"></path><g fill="#ffd993"><path d="M275.398 210.875c-1.636-3.96-6.171-5.848-10.128-4.21-3.961 1.632-5.844 6.167-4.211 10.128l14.82 35.914c3.644 8.832 3.047 18.672-1.649 26.996-4.69 8.324-12.8 13.93-22.242 15.383a7.754 7.754 0 0 0-6.488 8.844 7.754 7.754 0 0 0 8.844 6.488c14.18-2.18 26.355-10.598 33.402-23.094 7.043-12.5 7.95-27.273 2.473-40.535zM348.438 277.512a7.756 7.756 0 1 0-14.336 5.918c3.644 8.836 3.043 18.675-1.653 26.996-4.691 8.324-12.8 13.93-22.242 15.383a7.759 7.759 0 0 0-6.488 8.847 7.754 7.754 0 0 0 8.844 6.485c14.183-2.18 26.355-10.598 33.402-23.094 7.047-12.5 7.945-27.274 2.472-40.535zM126.129 108.258l52.91 25.515 5.02-52.71-56.778 15.066c-6.87 1.824-7.558 9.039-1.152 12.129zm0 0" fill="#ffd993"></path></g><path d="M242.477 122.758c3.664-12.54 18.035-23.215 20.52-24.727l155.05-94.183c6.648-4.04 14.32-4.457 18.953-1.07 41.441 30.285 12.098 101.745-56.34 138.554l20.996 6.633c5.813 1.836 10.02 6.144 10.414 10.625 3.29 37.379-46.675 57.406-100.863 41.586-46.484-13.574-77.254-48.23-68.73-77.418zm0 0" fill="#a6e0ec"></path><path d="M443.223 318.477c.23 9.378-8.657 16.296-17.696 13.824 0 0-155.804-46.516-169.125-54.344a209.517 209.517 0 0 1-11.21-7.074c-49.497-33.422-75.981-82.215-76.778-127.11-.031-1.714-.02-3.402.02-5.109.652-24.59.828-31.57.878-33.238v-.215l.012-.094c.012-.05 0-.105 0-.156v-.02c.672-24.687 12.442-46.144 30.2-60.086 15.386-12.097 35.285-18.542 56.359-16.535 31.097 2.957 57.531 23.95 67.48 53.559C370.348 221.78 376.2 239.227 376.77 240.965l.007.043v.02c.032.03.032.07.055.093 18.281 20.402 31.531 34.684 41.137 44.902 6.824 7.27 11.812 12.493 15.441 16.403 8.758 9.43 9.711 11.312 9.813 16.05zm0 0" fill="#c2eaf2"></path><path d="M417.969 286.023c-46.559-14.136-126.356-38.761-135.715-44.261a211.9 211.9 0 0 1-11.207-7.075c-49.496-33.425-75.98-82.214-76.777-127.109-.032-1.719-.024-3.402.02-5.11.651-24.593.827-31.573.878-33.238v-.214l.012-.094c.007-.055 0-.106 0-.156v-.02c.226-8.398 1.734-16.414 4.343-23.89 15.387-12.098 35.286-18.544 56.36-16.536 31.097 2.957 57.531 23.95 67.48 53.559C370.348 221.78 376.2 239.227 376.77 240.965l.007.043v.02c.032.03.032.07.055.093 18.281 20.402 31.531 34.684 41.137 44.902zm0 0" fill="#def4f8"></path><path d="m404.969 190 17.953 12.762c4.965 3.527 7.644 8.914 6.652 13.3-8.418 36.672-62.199 40.227-108.765 8.637-49.043-33.277-63.848-87.234-28.614-106.437 10.743-5.871 32.223-9.899 190.543-47.633 7.57-1.813 15.008.152 18.38 4.797 30.25 41.672-20.11 100.715-96.15 114.574zm0 0" fill="#c2eaf2"></path><path d="m404.969 190 17.953 12.762c4.965 3.527 7.644 8.914 6.652 13.3-5.828 25.383-32.437 33.149-58.773 29.102a139.058 139.058 0 0 1-9.66-5.988c-49.043-33.274-63.844-87.23-28.614-106.438 10.73-5.867 33.016-10.086 175.32-44.004 12.958 39.457-33.96 88.707-102.878 101.266zm0 0" fill="#def4f8"></path><path d="M92.3 317.668v137.605c0 1.957-.187 3.88-.527 5.743h-.011c-2.711 14.558-15.555 25.675-30.88 25.675H31.419C14.137 486.691 0 472.555 0 455.273V317.668c0-15.398 11.223-28.293 25.895-30.922 1.8-.332 3.64-.496 5.523-.496h29.465c17.281 0 31.418 14.137 31.418 31.418zm0 0" fill="#958fca"></path><path d="M92.3 317.668v137.605c0 1.957-.187 3.88-.527 5.743h-.011c-1.801.328-3.64.496-5.532.496H56.777c-17.28 0-31.418-14.137-31.418-31.418v-137.61c0-1.953.184-3.875.536-5.738 1.8-.332 3.64-.496 5.523-.496h29.465c17.281 0 31.418 14.137 31.418 31.418zm0 0" fill="#aba6d5"></path><path d="M64.73 437.2c0 10.26-8.316 18.581-18.582 18.581-10.261 0-18.582-8.32-18.582-18.582s8.32-18.582 18.582-18.582c10.266 0 18.582 8.32 18.582 18.582zm0 0" fill="#5f55af"></path><path d="M241.738 87.313c0 7.425-6.02 13.445-13.445 13.445-7.422 0-13.441-6.02-13.441-13.445s6.02-13.442 13.441-13.442c7.426 0 13.445 6.016 13.445 13.442zm0 0" fill="#269ab1"></path></g></svg>