<svg id="Capa_1" enable-background="new 0 0 512 512" viewBox="0 0 512 512" xmlns="http://www.w3.org/2000/svg"><g><path d="m180.147 203.332h-20.491c-39.764 0-72-32.235-72-72v-48c0-39.764 32.235-72 72-72 39.764 0 72 32.235 72 72v68.491c0 28.448-23.062 51.509-51.509 51.509z" fill="#bd80e1"/><path d="m159.656 11.332c-2.787 0-5.537.158-8.241.467 35.883 4.089 63.759 34.556 63.759 71.533v68.491c0 28.448-23.061 51.509-51.509 51.509h16.483c28.448 0 51.509-23.061 51.509-51.509v-68.491c-.001-39.765-32.237-72-72.001-72z" fill="#af66da"/><path d="m357.607 0c-38.83.041-71.003 31.473-71.902 70.293-.307 13.255 2.969 25.72 8.927 36.496 1.396 2.526 1.61 5.539.698 8.277l-6.387 19.162c-1.342 4.027 2.489 7.858 6.515 6.515l19.161-6.387c2.738-.913 5.751-.699 8.277.698 10.776 5.958 23.242 9.234 36.497 8.927 38.82-.9 70.251-33.075 70.291-71.905.042-39.826-32.252-72.118-72.077-72.076z" fill="#9be69d"/><path d="m396.841 11.568c7.711 11.457 12.225 25.203 12.24 39.903.041 39.825-32.253 72.117-72.078 72.075-15.26-.016-29.492-4.881-41.201-13.137.192 1.55.032 3.145-.472 4.655l-6.387 19.162c-1.342 4.027 2.489 7.858 6.515 6.515l19.161-6.387c2.738-.913 5.752-.699 8.277.698 10.776 5.958 23.242 9.235 36.497 8.927 38.82-.9 70.251-33.075 70.291-71.905.027-25.355-13.055-47.658-32.843-60.506z" fill="#6fd7a3"/><path d="m352.885 94.126c-1.977 0-3.955-.755-5.463-2.263l-19.2-19.2c-3.018-3.017-3.018-7.909 0-10.927 3.017-3.017 7.909-3.017 10.927 0l13.737 13.737 23.337-23.337c3.017-3.017 7.909-3.017 10.927 0s3.018 7.909 0 10.927l-28.8 28.8c-1.51 1.509-3.487 2.263-5.465 2.263z" fill="#fff"/><path d="m441.832 415.453c0-8.534-6.918-15.453-15.453-15.453h-51.293l17.373-17.373c6.035-6.035 6.035-15.819 0-21.853l-4.416-4.416c-4.023-4.023-10.546-4.023-14.569 0l-30.388 30.387c-2.913 2.913-5.389 6.183-7.383 9.707-.994 1.756-2.875 2.817-4.887 2.673l-192.984-13.785v64h201.723c1.335 0 2.63.505 3.575 1.447 8.186 8.164 19.482 13.213 31.957 13.213h35.84c17.069 0 30.905-13.837 30.905-30.905z" fill="#9857bd"/><path d="m416.827 221.696-12.475-12.475c-6.035-6.035-15.819-6.035-21.854 0l-36.269 36.269v-24.569c0-8.534-6.918-15.453-15.453-15.453h-6.245c-5.69 0-10.302 4.612-10.302 10.302v42.974c0 3.105.319 6.177.939 9.172.757 3.655-.512 7.431-3.333 9.875l-65.669 56.913-5.387-6.122c0-2.908 5.26-11.163 5.011-14.006-4.369-50.009-46.349-89.238-97.492-89.238h-15.292c-34.706 0-62.841 28.135-62.841 62.841v213.517c0 5.69 4.612 10.302 10.302 10.302h155.396c5.69 0 10.302-4.612 10.302-10.302v-85.889l108.866-108.866c1.764-1.764 4.105-2.877 6.596-2.994 10.857-.512 21.564-4.912 29.855-13.203l25.342-25.342c12.073-12.068 12.073-31.636.003-43.706z" fill="#bd80e1"/><path d="m246.168 418.483-2.98 4.127c-5.002 5.002-11.143 11.935-17.624 13.38v45.105c0 5.69-4.612 10.302-10.302 10.302h-145.094v10.302c0 5.69 4.612 10.302 10.302 10.302h155.396c5.69 0 10.302-4.612 10.302-10.302z" fill="#af66da"/><path d="m225.517 344.318 20.604-9.612-3.183-9.605c0-2.906 3.057-7.677 2.809-10.519-2.508-28.724-17.424-53.891-39.358-70.112 12.022 16.255 19.13 36.365 19.13 58.134v41.714z" fill="#af66da"/><path d="m207.249 347.946-7.055 6.114c-3.224 2.795-3.573 7.674-.778 10.899 1.528 1.763 3.679 2.666 5.842 2.666 1.793 0 3.595-.621 5.057-1.888l35.806-31.032v-11.498c0-2.906-.127-5.783-.375-8.625l-26.79 23.218-68.55-68.55c-3.017-3.017-7.909-3.017-10.927 0s-3.018 7.909 0 10.927z" fill="#9857bd"/><g><g><path d="m246.168 415.809c-14.305 14.561-37.216 16.186-53.433 3.791l-77.342-59.113c-3.39-2.591-8.238-1.943-10.83 1.447-2.591 3.39-1.943 8.239 1.447 10.83l80.404 61.453c9.022 6.895 19.824 10.54 31.241 10.54 13.811 0 26.76-5.342 36.46-15.043l2.751-2.751c2.991-2.991.395-10.985.395-10.985z" fill="#9857bd"/></g></g><g fill="#9857bd"><path d="m175.703 171.332c-13.255 0-24-10.745-24-24v-2.849c0-2.845 2.306-5.151 5.151-5.151h37.698c2.845 0 5.151 2.306 5.151 5.151v2.849c0 13.255-10.745 24-24 24z"/><path d="m193.522 122.27h-10.849c-4.267 0-7.726-3.459-7.726-7.726s3.459-7.726 7.726-7.726h8.274v-13.426c0-4.267 3.459-7.726 7.726-7.726s7.726 3.459 7.726 7.726v16c0 7.101-5.777 12.878-12.877 12.878z"/></g></g><g/><g/><g/><g/><g/><g/><g/><g/><g/><g/><g/><g/><g/><g/><g/></svg>