<svg viewBox="0 0 512 512" xmlns="http://www.w3.org/2000/svg"><g><path d="m375.175 258.65-112.467-56.234a15.002 15.002 0 0 0-13.416 0L136.825 258.65a15 15 0 0 0 0 26.834l80.333 40.167a14.99 14.99 0 0 0 6.708 1.583h64.267c2.329 0 4.625-.542 6.708-1.583l80.333-40.167a15 15 0 0 0 .001-26.834z" fill="#ff508c"></path><path d="M288.133 327.233c2.329 0 4.625-.542 6.708-1.583l80.333-40.167a15 15 0 0 0 0-26.834l-112.467-56.234a14.99 14.99 0 0 0-6.708-1.584v126.4h32.134z" fill="#e60073"></path><circle cx="256" cy="143.533" fill="#ffd2c8" r="111.4"></circle><path d="M256 32.133c61.524 0 111.4 49.875 111.4 111.4s-49.875 111.4-111.4 111.4z" fill="#ffb4b4"></path><path d="M256 0c-61.524 0-111.4 49.875-111.4 111.4v32.133c61.524 0 111.4-49.875 111.4-111.4 0 61.524 49.875 111.4 111.4 111.4V111.4C367.4 49.875 317.524 0 256 0z" fill="#4b0a37"></path><path d="M256 32.133c0 61.524 49.875 111.4 111.4 111.4V111.4C367.4 49.875 317.524 0 256 0z" fill="#230519"></path><path d="M230.575 298.817 102.042 234.55a15 15 0 0 0-21.708 13.417v184.766c0 5.682 3.21 10.875 8.292 13.417l128.533 64.267A15 15 0 0 0 238.867 497V312.233a15 15 0 0 0-8.292-13.416z" fill="#41d7ff"></path><path d="M95.333 407.567H63.2c-8.284 0-15-6.716-15-15v-80.333c0-8.284 6.716-15 15-15h32.133c30.419 0 55.167 24.748 55.167 55.167s-24.748 55.166-55.167 55.166z" fill="#ffd2c8"></path><path d="m281.425 298.817 128.533-64.267a15 15 0 0 1 21.708 13.417v184.766c0 5.682-3.21 10.875-8.292 13.417l-128.533 64.267A15 15 0 0 1 273.133 497V312.233a15 15 0 0 1 8.292-13.416z" fill="#00b9e1"></path><path d="M416.667 407.567H448.8c8.284 0 15-6.716 15-15v-80.333c0-8.284-6.716-15-15-15h-32.133c-30.419 0-55.167 24.748-55.167 55.167s24.748 55.166 55.167 55.166z" fill="#ffb4b4"></path><path d="M223.867 295.463h64.267V512h-64.267z" fill="#00b9e1"></path><path d="M256 295.463h32.133V512H256z" fill="#0097cd"></path></g></svg>