<svg id="Flat" height="512" viewBox="0 0 64 64" width="512" xmlns="http://www.w3.org/2000/svg"><path d="m3 21h58a0 0 0 0 1 0 0v38a2 2 0 0 1 -2 2h-54a2 2 0 0 1 -2-2v-38a0 0 0 0 1 0 0z" fill="#fafaff"/><path d="m6 21h55a0 0 0 0 1 0 0v38a2 2 0 0 1 -2 2h-51a2 2 0 0 1 -2-2v-38a0 0 0 0 1 0 0z" fill="#f3f3ff"/><path d="m3 21h58v2.5h-58z" fill="#f3f3ff"/><path d="m6 21h55v2.5h-55z" fill="#e6e6ff"/><rect fill="#fb7d8c" height="12" rx="2" width="62" x="1" y="9"/><path d="m6 11.5a2 2 0 0 0 -2 2v7.5h57a2 2 0 0 0 2-2v-7.5z" fill="#fa5a69"/><g fill="#5a5a63"><path d="m32 2.25a2.752 2.752 0 0 0 -2.75 2.75v4h1.5v-4a1.25 1.25 0 0 1 2.5 0v8a1.252 1.252 0 0 1 -1.25 1.25.75.75 0 0 0 0 1.5 2.752 2.752 0 0 0 2.75-2.75v-8a2.752 2.752 0 0 0 -2.75-2.75z"/><path d="m56 2.25a2.752 2.752 0 0 0 -2.75 2.75v4h1.5v-4a1.25 1.25 0 0 1 2.5 0v8a1.252 1.252 0 0 1 -1.25 1.25.75.75 0 0 0 0 1.5 2.752 2.752 0 0 0 2.75-2.75v-8a2.752 2.752 0 0 0 -2.75-2.75z"/><path d="m44 2.25a2.752 2.752 0 0 0 -2.75 2.75v4h1.5v-4a1.25 1.25 0 0 1 2.5 0v8a1.252 1.252 0 0 1 -1.25 1.25.75.75 0 0 0 0 1.5 2.752 2.752 0 0 0 2.75-2.75v-8a2.752 2.752 0 0 0 -2.75-2.75z"/><path d="m8 2.25a2.752 2.752 0 0 0 -2.75 2.75v4h1.5v-4a1.25 1.25 0 0 1 2.5 0v8a1.252 1.252 0 0 1 -1.25 1.25.75.75 0 0 0 0 1.5 2.752 2.752 0 0 0 2.75-2.75v-8a2.752 2.752 0 0 0 -2.75-2.75z"/><path d="m20 2.25a2.752 2.752 0 0 0 -2.75 2.75v4h1.5v-4a1.25 1.25 0 0 1 2.5 0v8a1.252 1.252 0 0 1 -1.25 1.25.75.75 0 0 0 0 1.5 2.752 2.752 0 0 0 2.75-2.75v-8a2.752 2.752 0 0 0 -2.75-2.75z"/></g><path d="m49.563 41.771a5.5 5.5 0 0 0 -1.563-10.771h-4a1.5 1.5 0 0 0 -1.5 1.5v16a1.5 1.5 0 0 0 3 0v-6.5h.669l4.559 7.3a1.5 1.5 0 0 0 2.544-1.59zm-4.063-7.771h2.5a2.5 2.5 0 0 1 0 5h-2.5z" fill="#6b6b73"/><path d="m45.5 48.5v-6.5h.669l4.559 7.3a1.5 1.5 0 0 0 2.544-1.59l-3.709-5.934a5.5 5.5 0 0 0 3-8.337 5.47 5.47 0 0 0 -3.063-.939h-4a1.5 1.5 0 0 0 -1.5 1.5v16a1.5 1.5 0 0 0 1.5-1.5zm0-14.5h2.5a2.5 2.5 0 0 1 0 5h-2.5z" fill="#5a5a63"/><path d="m33 31a5.506 5.506 0 0 0 -5.5 5.5v12a1.5 1.5 0 0 0 3 0v-4.5h5v4.5a1.5 1.5 0 0 0 3 0v-12a5.506 5.506 0 0 0 -5.5-5.5zm-2.5 10v-4.5a2.5 2.5 0 0 1 5 0v4.5z" fill="#6b6b73"/><path d="m36.747 32.485a5.491 5.491 0 0 0 -7.747 5.015v12a1.483 1.483 0 0 0 .089.491 1.5 1.5 0 0 0 1.411-1.491v-4.5h5v4.5a1.5 1.5 0 0 0 3 0v-12a5.481 5.481 0 0 0 -1.753-4.015zm-1.247 8.515h-5v-4.5a2.5 2.5 0 0 1 5 0z" fill="#5a5a63"/><path d="m22 50a1.5 1.5 0 0 1 -1.5-1.5v-10.768l-2.228 3.568a1.5 1.5 0 0 1 -2.544 0l-2.228-3.568v10.768a1.5 1.5 0 0 1 -1.5 1.5 1.5 1.5 0 0 1 -1.5-1.5v-16a1.5 1.5 0 0 1 2.772-.8l3.728 5.972 3.728-5.964a1.5 1.5 0 0 1 2.772.8v16a1.5 1.5 0 0 1 -1.5 1.492z" fill="#6b6b73"/><path d="m20.728 34.208-3.728 5.964-4.076-6.521a.5.5 0 0 0 -.924.265v16.084a1.5 1.5 0 0 0 1.5-1.5v-10.768l2.228 3.568a1.5 1.5 0 0 0 2.544 0l2.228-3.568v10.768a1.5 1.5 0 1 0 3 0v-14.669c-1.213-.496-2.247-.463-2.772.377z" fill="#5a5a63"/></svg>