<svg viewBox="0 0 512 512" xmlns="http://www.w3.org/2000/svg"><g><path d="M512 45c0-24.853-20.147-45-45-45H45C20.147 0 0 20.147 0 45v190c0 8.284 6.716 15 15 15h482c8.284 0 15-6.716 15-15z" fill="#ff405c"></path><path d="M467 0H256v250h241c8.284 0 15-6.716 15-15V45c0-24.853-20.147-45-45-45z" fill="#e20059"></path><path d="M0 235v232c0 24.813 20.187 45 45 45h422c24.813 0 45-20.187 45-45V235z" fill="#f6f6f6"></path><path d="M256 512h211c24.813 0 45-20.187 45-45V235H256z" fill="#e2dff4"></path><path d="M90.41 182.5c-8.284 0-15-6.716-15-15V67.687a15 15 0 0 1 27.343-8.524l42.309 61.266-.511-52.784c-.08-8.284 6.57-15.064 14.854-15.145h.148c8.217 0 14.917 6.62 14.997 14.855l.935 96.629v.145c0 7.855-4.52 14.343-11.516 16.527-6.872 2.146-14.102-.489-18.411-6.714l-40.148-58.138V167.5c0 8.284-6.716 15-15 15z" fill="#f6f6f6"></path><path d="M386.802 182.502a17.27 17.27 0 0 1-16.261-11.481l-.036-.101-34.191-98.499c-2.716-7.826 1.426-16.373 9.252-19.089 7.824-2.717 16.372 1.425 19.09 9.251l21.882 63.039 20.817-62.665c2.612-7.861 11.097-12.119 18.965-9.506 7.861 2.611 12.117 11.102 9.506 18.964l-32.651 98.286-.033.098a17.269 17.269 0 0 1-16.221 11.703h-.119z" fill="#e2dff4"></path><path d="M260.485 182.5c-35.841 0-65-29.159-65-65s29.159-65 65-65 64.999 29.159 64.999 65-29.158 65-64.999 65zm0-100c-19.299 0-35 15.701-35 35s15.701 35 35 35 34.999-15.701 34.999-35-15.7-35-34.999-35z" fill="#f6f6f6"></path><path d="M325.484 117.5c0-35.841-29.158-65-64.999-65-1.509 0-3.002.07-4.485.172v30.125a35.13 35.13 0 0 1 4.485-.297c19.299 0 34.999 15.701 34.999 35s-15.7 35-34.999 35c-1.521 0-3.015-.108-4.485-.297v30.125c1.484.102 2.976.172 4.485.172 35.841 0 64.999-29.159 64.999-65z" fill="#e2dff4"></path><path d="M216 281h-29.925c-8.284 0-15 6.716-15 15s6.716 15 15 15H201v125c0 8.284 6.716 15 15 15s15-6.716 15-15V296c0-8.284-6.716-15-15-15z" fill="#00429b"></path><path d="M305.925 281H276c-8.284 0-15 6.716-15 15s6.716 15 15 15h14.925v125c0 8.284 6.716 15 15 15s15-6.716 15-15V296c0-8.284-6.716-15-15-15z" fill="#38336b"></path></g></svg>