<svg viewBox="0 0 512 512" xmlns="http://www.w3.org/2000/svg"><g><path d="m217.843 438.084-3.923 4.155v10.999c0 11.572 9.468 21.04 21.04 21.04S256 464.81 256 453.238c0 11.572 9.468 21.04 21.04 21.04s21.04-9.468 21.04-21.04v-10.999l-3.489-4.155z" fill="#dbedff"></path><path d="M229.372 473.497v-35.413h-11.529l-3.923 4.155v10.999c-.001 9.637 6.573 17.793 15.452 20.259zM256 453.241c.001 9.635 6.574 17.79 15.453 20.256v-35.412H256z" fill="#b5dcff"></path><path d="M379.7 258.833v26.656l3.229 4.507 4.129 3.211c5.157-2.669 8.689-8.042 8.689-14.25v-17.27l-1.205-2.855H379.7z" fill="#ffcebe"></path><path d="M380.824 278.957v-17.27l5.388-2.855h-17.17l-5.388 2.855v17.27c0 8.862 7.184 16.046 16.046 16.046 3.161 0 6.1-.927 8.585-2.506-4.48-2.845-7.461-7.839-7.461-13.54z" fill="#ffb1a0"></path><g fill="#ffcebe"><path d="M506.808 256.257h-22.336l-4.565 5.43v17.27c0 8.862 7.184 16.046 16.046 16.046 8.862 0 16.046-7.184 16.046-16.046v-17.27z" fill="#ffcebe"></path><path d="M495.36 294.974v-38.716h-10.887l-4.565 5.43v17.27c-.001 8.661 6.867 15.701 15.452 16.016zM116.254 421.635l-5.721-2.867H36.359l-4.267 2.867v31.603c0 11.572 9.468 21.04 21.04 21.04s21.04-9.468 21.04-21.04c0 11.572 9.468 21.04 21.04 21.04s21.04-9.468 21.04-21.04v-31.603z" fill="#ffcebe"></path></g><path d="M32.093 421.635v31.604c.001 9.636 6.574 17.791 15.453 20.258v-54.729H36.359zM74.144 453.807c.005-.191.029-.377.029-.569 0 9.626 6.56 17.775 15.424 20.251v-54.721H74.144z" fill="#ffb1a0"></path><path d="M112.249 370.693H35.943l-3.85 3.262v47.68h84.161v-47.68z" fill="#8479c2"></path><path d="M32.093 373.955v47.68h15.452v-50.942H35.943zM89.597 421.635v-17.513a7.726 7.726 0 1 0-15.452 0v17.513z" fill="#6e60b8"></path><path d="M122.64 273.203H99.665l-8.148 4.173H52.37l-3.689-4.173H31.34l-9.901 6.104-5.392 15.066v42.495h12.415l3.631-3.4 4.438 3.4h74.688l5.035-3.4 3.414 4.43h24.688l3.989-4.43V298.91c.001-14.198-11.508-25.707-25.705-25.707z" fill="#ff5595"></path><path d="M17.17 298.91c0-14.197 11.509-25.706 25.707-25.706h-17.17C11.509 273.203 0 284.712 0 298.91v34.559l2.707 3.4h17.17l-2.707-3.4zM39.819 304.367a7.726 7.726 0 0 0-7.726 7.726v21.376l4.438 3.4h11.014v-24.776a7.726 7.726 0 0 0-7.726-7.726zM116.254 333.469l3.414 4.43h12.038v-25.806a7.726 7.726 0 1 0-15.452 0z" fill="#ff3581"></path><path d="m16.046 376.66 4.388 7.082 2.996 1.744c5.143-2.673 8.662-8.04 8.662-14.237v-37.781H16.046z" fill="#ffcebe"></path><path d="M17.17 371.25v-37.781H0v37.781c0 8.862 7.184 16.046 16.046 16.046 3.161 0 6.1-.927 8.585-2.505-4.48-2.847-7.461-7.841-7.461-13.541z" fill="#ffb1a0"></path><path d="M116.254 333.469v37.781c0 8.862 7.184 16.046 16.046 16.046 8.862 0 16.046-7.184 16.046-16.046v-37.781z" fill="#ffcebe"></path><path d="M291.501 324.679h-72.456l-5.126 3.343v114.217h84.162V328.022z" fill="#8479c2"></path><path d="M229.372 324.679h-10.327l-5.126 3.343v114.217h15.453zM271.453 442.239v-84.05c0-4.267-3.459-7.726-7.726-7.726S256 353.921 256 358.189v84.05z" fill="#6e60b8"></path><path d="m479.908 434.861-3.232-5.276h-75.203l-5.726 5.276v18.377c0 11.572 9.468 21.04 21.04 21.04s21.04-9.468 21.04-21.04c0 11.572 9.468 21.04 21.04 21.04s21.04-9.468 21.04-21.04v-18.377z" fill="#938493"></path><path d="M411.199 473.497v-43.912h-9.727l-5.726 5.276v18.377c0 9.637 6.574 17.793 15.453 20.259zM453.28 473.497v-43.911h-15.453v23.653c0 9.636 6.574 17.792 15.453 20.258z" fill="#7b6c79"></path><path d="M475.903 279.308h-74.139l-6.018 2.355v153.198h84.162V281.663z" fill="#8479c2"></path><path d="M411.199 279.308h-9.435l-6.018 2.355v153.198h15.453zM453.28 434.861V311.83a7.726 7.726 0 1 0-15.452 0v123.031z" fill="#6e60b8"></path><path d="M48.573 275.511c0 14.139 11.462 25.601 25.601 25.601s25.601-11.462 25.601-25.601c0-.778-.041-1.547-.109-2.307H48.681a25.85 25.85 0 0 0-.108 2.307z" fill="#ffcebe"></path><path d="M32.093 333.469h84.161v40.486H32.093z" fill="#ff76aa"></path><path d="M32.093 333.469h15.453v40.486H32.093z" fill="#ff5595"></path><path d="M131.706 387.266v-53.797h-15.453v37.781c0 8.661 6.868 15.701 15.453 16.016z" fill="#ffb1a0"></path><path d="M486.293 134.574h-5.22l-2.982 1.41-22.535 24.853-17.725-14.086v-.008h-.01l-18.965 14.094-21.634-25.111-1.416-.617-7.522 5.038-8.584 11.633v109.908h16.046v19.975h84.161v-19.975H512V160.281c0-14.198-11.509-25.707-25.707-25.707z" fill="#60b9fe"></path><path d="m397.604 136.168-.381-.442-2.643-1.152h-5.219c-14.197 0-25.707 11.509-25.707 25.707v101.407h17.17V160.281c0-11.059 6.983-20.484 16.78-24.113zM411.199 281.663v-98.891a7.726 7.726 0 1 0-15.452 0V281.663zM495.36 182.772a7.726 7.726 0 1 0-15.452 0v98.891-19.975h15.452z" fill="#1ca8ff"></path><path d="m479.131 130.751-12.16-10.639a5.801 5.801 0 0 0-8.186.546l-19.524 22.314a5.801 5.801 0 0 0 .546 8.186l12.16 10.639a5.801 5.801 0 0 0 8.186-.546l19.524-22.314a5.801 5.801 0 0 0-.546-8.186z" fill="#8bcaff"></path><path d="m396.523 130.751 12.16-10.639a5.801 5.801 0 0 1 8.186.546l19.524 22.314a5.801 5.801 0 0 1-.546 8.186l-12.16 10.639a5.801 5.801 0 0 1-8.186-.546l-19.524-22.314a5.8 5.8 0 0 1 .546-8.186z" fill="#8bcaff"></path><path d="M304.466 207.93h-22.975l-5.959 3.428h-40.005l-5.019-3.428h-14.842l-9.208 4.029-8.585 16.395v50.953h13.016v45.371l3.03 3.343h84.161l2.434-3.343v-43.015h25.239l4.419-5.107v-42.919c.001-14.198-11.508-25.707-25.706-25.707z" fill="#ffe559"></path><path d="M198.997 233.637c0-14.197 11.509-25.706 25.707-25.706h-17.17c-14.197 0-25.707 11.509-25.707 25.706v42.919l5.11 2.752h17.17l-5.11-2.752zM229.372 246.819a7.726 7.726 0 1 0-15.452 0v81.202h15.453v-81.202zM313.533 246.819a7.726 7.726 0 1 0-15.452 0v81.202l2.434-3.343v-43.015h13.018z" fill="#fbc700"></path><path d="m197.873 333.469 6.898 6.318c5.405-2.582 9.148-8.082 9.148-14.471v-48.76h-16.046z" fill="#ffcebe"></path><path d="M198.997 325.316v-48.76h-17.17v48.76c0 8.862 7.184 16.046 16.046 16.046 3.161 0 6.1-.927 8.585-2.506-4.48-2.846-7.461-7.839-7.461-13.54z" fill="#ffb1a0"></path><path d="M298.08 276.556v48.76c0 8.862 7.184 16.046 16.046 16.046 8.862 0 16.046-7.184 16.046-16.046v-48.76z" fill="#ffcebe"></path><path d="M313.533 341.332v-64.776H298.08v48.76c0 8.662 6.868 15.702 15.453 16.016z" fill="#ffb1a0"></path><path d="M230.399 210.237c0 14.139 11.462 25.601 25.601 25.601s25.601-11.462 25.601-25.601c0-.778-.041-1.547-.109-2.307h-50.984a25.884 25.884 0 0 0-.109 2.307zM87.909 171.832h-6.393l-14.594 16.863-4.062 15.624s1.143 12.362 1.658 13.049 9.655 18.371 9.655 18.371l11.008 4.424c14.7-4.665 25.354-18.417 25.354-34.661 0-15.221-9.355-28.25-22.626-33.67z" fill="#ffcebe"></path><path d="M65.282 205.502c0-15.221 9.355-28.25 22.627-33.67a36.247 36.247 0 0 0-13.736-2.693c-20.082 0-36.362 16.28-36.362 36.362s16.28 36.362 36.362 36.362c4.862 0 9.497-.961 13.736-2.693-13.271-5.419-22.627-18.448-22.627-33.668z" fill="#ffb1a0"></path><path d="M269.736 105.981h-6.393l-14.594 16.863-4.062 15.624s1.143 12.362 1.658 13.049S256 169.888 256 169.888l11.008 4.424c14.7-4.665 25.354-18.417 25.354-34.661 0-15.221-9.355-28.25-22.626-33.67z" fill="#ffcebe"></path><path d="M247.109 139.651c0-15.221 9.355-28.25 22.626-33.67a36.247 36.247 0 0 0-13.736-2.693c-20.082 0-36.362 16.28-36.362 36.362s16.28 36.362 36.362 36.362c4.862 0 9.497-.961 13.736-2.693-13.27-5.418-22.626-18.447-22.626-33.668z" fill="#ffb1a0"></path><path d="M451.563 40.414h-6.393l-14.594 16.863-4.062 15.624s1.143 12.362 1.658 13.049 9.655 18.371 9.655 18.371l11.008 4.424c14.7-4.665 25.354-18.417 25.354-34.661 0-15.221-9.355-28.25-22.626-33.67z" fill="#ffcebe"></path><path d="M428.936 74.084c0-15.221 9.355-28.25 22.626-33.67a36.247 36.247 0 0 0-13.736-2.693c-20.082 0-36.362 16.28-36.362 36.362s16.28 36.362 36.362 36.362c4.862 0 9.497-.961 13.736-2.693-13.271-5.418-22.626-18.448-22.626-33.668z" fill="#ffb1a0"></path></g></svg>