<svg id="Flat" height="512" viewBox="0 0 64 64" width="512" xmlns="http://www.w3.org/2000/svg"><rect fill="#85dffa" height="53" rx="16" transform="matrix(.707 -.707 .707 .707 -15.564 37.575)" width="32" x="21.575" y="11.075"/><path d="m30.187 18.619c-2.479 14.873-.334 28.658 8.049 40.864a15.991 15.991 0 0 0 18.078-25.8l-14.85-14.846a15.919 15.919 0 0 0 -10.538-4.649z" fill="#96e6fa"/><circle cx="29.92" cy="7.5" fill="#f0c19f" r="4.5"/><circle cx="8.707" cy="28.713" fill="#f5d2b0" r="4.5"/><circle cx="19.314" cy="18.107" fill="#f5ddc2" r="15"/><path d="m29.92 7.5a14.914 14.914 0 0 0 -5.92-3.632 14.986 14.986 0 0 0 -5.829 29.184 14.99 14.99 0 0 0 11.749-25.552z" fill="#f5d2b0"/><path d="m23.908 13.508a4.524 4.524 0 0 1 -3.206 1.33 1 1 0 0 1 0-2 2.539 2.539 0 0 0 2.536-2.538 1 1 0 1 1 2 0 4.52 4.52 0 0 1 -1.33 3.208z" fill="#4b5073"/><path d="m14.715 22.7a4.511 4.511 0 0 1 -3.2 1.33 1 1 0 1 1 0-2 2.539 2.539 0 0 0 2.53-2.53 1 1 0 0 1 2 0 4.511 4.511 0 0 1 -1.33 3.2z" fill="#4b5073"/><path d="m25.675 24.468a5.221 5.221 0 0 1 -3.705 1.537 1 1 0 1 1 0-2 3.248 3.248 0 0 0 3.243-3.243 1 1 0 1 1 2 0 5.223 5.223 0 0 1 -1.538 3.706z" fill="#ed507e"/><path d="m12.242 12.45a6 6 0 1 1 -5.431-10.125 1 1 0 0 1 .4 1.961 4 4 0 1 0 3.622 6.749 1 1 0 1 1 1.414 1.415z" fill="#4b5073"/></svg>