<svg viewBox="0 0 512 512" xmlns="http://www.w3.org/2000/svg"><g><path clip-rule="evenodd" d="M5.942 184.855c-10.659 58.1-8.147 118.822 17.171 173.862 42.431 92.249 135.878 140.995 230.522 141.054H258.336c94.674-.058 188.091-48.805 230.551-141.054 25.318-55.04 27.83-115.762 17.171-173.862C485.85 74.57 410.801-17.62 256 21.308 101.199-17.62 26.149 74.57 5.942 184.855z" fill="#f47c7c" fill-rule="evenodd"></path><path clip-rule="evenodd" d="M449.26 192.46c9.724 24.359 15.068 53.758 16.032 88.81-.321 11.859-.964 20.454-3.913 27.972-2.57 6.527-6.863 12.238-14.221 18.56-3.709 17.482-8.936 34.673-15.915 51.398-18.135 43.473-45.526 78.175-78.379 103.7 57.996-21.532 108.048-63.432 136.024-124.183 25.318-55.04 27.83-115.762 17.171-173.862-16.149-88.111-67.312-164.684-166.19-172.056 61.763 29.953 95.9 98.309 108.545 174.532.291 1.691.554 3.41.846 5.129z" fill="#ee6161" fill-rule="evenodd"></path><path clip-rule="evenodd" d="M358.295 171.86H72.727c-16.09 27.768-24.793 63.811-26.019 109.411.321 11.859.964 20.454 3.913 27.972h410.758c2.949-7.517 3.592-16.113 3.913-27.972-1.227-45.6-9.929-81.643-26.019-109.411z" fill="#685e68" fill-rule="evenodd"></path><path clip-rule="evenodd" d="M461.377 309.24c-4.203 10.724-13.135 19.264-32.585 31.936-23.983 15.473-46.698 27.393-70.495 36.046v-12.733c0-11.95-11.157-21.706-24.827-21.706H178.5c-13.64 0-24.797 9.756-24.797 21.706v12.733c-23.797-8.653-46.513-20.573-70.495-36.046-19.45-12.671-28.382-21.211-32.585-31.936 14-75.543 139.744-83.146 197.651-35.006a93.061 93.061 0 0 1 7.726 7.18 93.05 93.05 0 0 1 7.726-7.18c57.907-48.14 183.651-40.537 197.651 35.006z" fill="#ee6161" fill-rule="evenodd"></path><path clip-rule="evenodd" d="M256 342.782v51.952a370.723 370.723 0 0 1-7.726-.216c-35.768-1.288-65.942-6.912-94.571-17.297v-12.733c0-11.95 11.157-21.706 24.797-21.706zM358.297 364.488v12.733c-28.629 10.384-58.803 16.009-94.571 17.297-2.544.103-5.12.165-7.726.216v-51.952h77.47c13.67 0 24.827 9.756 24.827 21.706z" fill="#f8f7f7" fill-rule="evenodd"></path><path clip-rule="evenodd" d="M461.379 309.242c-14.075-75.932-141.105-83.216-198.604-34.207 64.157-21.562 160.057-.408 178.25 57.663 11.214-8.392 17.142-15.297 20.354-23.456z" fill="#e94444" fill-rule="evenodd"></path><path clip-rule="evenodd" d="M461.379 309.242c2.949-7.517 3.592-16.113 3.913-27.972-1.227-45.6-9.929-81.643-26.019-109.411h-45.497c10.746 22.523 17.288 49.854 19.565 82.546 24.559 10.315 43.132 28.41 48.038 54.837z" fill="#554e56" fill-rule="evenodd"></path><path d="M263.726 342.782v51.736c-2.544.103-5.12.165-7.726.216a370.723 370.723 0 0 1-7.726-.216v-51.736z" fill="#e1e1e1"></path><path d="M263.726 274.234v28.773c0 4.265-3.461 7.726-7.726 7.726s-7.726-3.461-7.726-7.726v-28.773a93.061 93.061 0 0 1 7.726 7.18 93.392 93.392 0 0 1 7.726-7.18z" fill="#e94444"></path><path clip-rule="evenodd" d="M153.703 108.252v63.603H72.731c16.596-28.66 41.042-48.48 73.246-60.822a169.338 169.338 0 0 1 7.726-2.781zM256 94.818v77.037H153.703v-63.603a191.532 191.532 0 0 1 7.366-2.318c.124-.031.237-.072.361-.103 24.93-7.283 53.899-10.786 86.844-11.023 2.554-.011 5.13-.011 7.726.01zM358.297 108.252v63.603H256V94.818c2.596-.021 5.172-.021 7.726-.01 32.945.237 61.904 3.739 86.844 11.023.123.031.237.072.36.103a210.3 210.3 0 0 1 7.367 2.318zM439.269 171.855h-80.972v-63.603c2.627.876 5.202 1.803 7.726 2.781 32.204 12.341 56.65 32.162 73.246 60.822z" fill="#f8f7f7" fill-rule="evenodd"></path><path d="M161.429 105.83v66.024h-15.453v-60.822a169.338 169.338 0 0 1 7.726-2.781 191.532 191.532 0 0 1 7.366-2.318c.124-.03.238-.072.361-.103zM263.726 94.808v77.047h-15.453V94.808c2.555-.01 5.13-.01 7.726.01 2.597-.021 5.173-.021 7.727-.01zM366.023 111.033v60.822H350.57V105.83c.123.031.237.072.36.103 2.493.742 4.955 1.504 7.366 2.318 2.628.876 5.204 1.803 7.727 2.782z" fill="#e1e1e1"></path></g></svg>