<svg viewBox="0 0 72 72" xmlns="http://www.w3.org/2000/svg"><g><path d="m50.826 29.44-4.334 2.599-3.198-.876 1.241-5.05 4.224-1.612s.67.776.776.809c.105.028 1.291 4.13 1.291 4.13z" fill="#f9c4c0"></path><path d="m46.44 32.025-6.336 7.156-4.324 4.494a5.055 5.055 0 0 1-4.068 1.968c-.187 0-.38-.013-.567-.047a4.966 4.966 0 0 1-2.621-1.134l-.154-.126-7.156-6.003 5.315-13.078 1.067.073A7.148 7.148 0 0 1 33.9 30.19l.674 2.014 9.258-6.897z" fill="#f1f7ff"></path><path d="m41.196 37.947-5.416 5.728a5.055 5.055 0 0 1-4.068 1.968c-.187 0-.38-.013-.567-.047a4.966 4.966 0 0 1-2.621-1.134l-.154-.126c-.513-1.36-.647-2.861-.613-4.322.06-2.128.46-4.242 1.187-6.236.6-1.647 1.554-3.335 3.188-3.955l-.5.613c.38.914.76 1.828 1.187 2.715.467.96 1.013 1.914 1.834 2.595.773.646 1.747 1 2.728 1.253 1.047.267 2.728.935 3.815.948z" fill="#c7dafa"></path><path d="m20.379 67.034-.276-12.947 10.533.968v11.98z" fill="#363383"></path><path d="M8.205 67.034v-13.57L23.16 52.46l-1.177 14.574z" fill="#5150ac"></path><path d="M30.459 31.179V51.7h-20.17V29.253a4.286 4.286 0 0 1 4.286-4.286h9.65c3.442 0 6.234 2.776 6.234 6.212z" fill="#79affe"></path><path d="M30.459 53.452H10.288v-2.059h20.171z" fill="#000000"></path><path d="M31.147 32.616v10.68a3.936 3.936 0 0 1-.688-.502V32.616c0-.225.15-.412.344-.412.187 0 .344.187.344.412z" fill="#f2cf77"></path><path d="M21.743 53.435v-1.951c0-.36.293-.652.653-.652h4.011c.36 0 .652.292.652.652v1.95c0 .36-.292.654-.652.654h-4.011a.654.654 0 0 1-.653-.653zm.624-1.951v1.95c0 .017.013.03.029.03l4.04-.03-.029-1.979z" fill="#ffffff"></path><path d="M29.708 10.433c0 2.194-1.386 3.972-3.095 3.972s-3.364-1.352-3.364-3.546 1.655-4.397 3.364-4.397 3.095 1.778 3.095 3.971zM12.234 12.478c0 2.585 1.954 6.094 4.307 6.327.083.008.166.008.25.008 2.02 0 3.658-2.46 4.182-4.822.016-.075.033-.142.041-.216a6.42 6.42 0 0 0 .133-1.297c0-.632-.108-1.24-.316-1.788-.449-1.255-1.372-2.253-2.527-2.735a4.057 4.057 0 0 0-1.613-.333c-.042 0-.075 0-.117.008-.98.017-1.879.391-2.602 1.006-.05.034-.1.084-.15.133-.2.175-.39.383-.565.6a5.163 5.163 0 0 0-1.023 3.109z" fill="#333077"></path><path d="M18.428 16.668c.774-.964 1.555-1.945 2.545-2.677.083-.067.158-.125.24-.183-.066-.008-.132-.017-.199-.033a9.589 9.589 0 0 1-1.455-.291c-.898 1.23-2.12 2.261-3.126 2.261-1.837 0-3.725-2.61-3.725-4.448 0-.648.225-1.305.599-1.879l-.05-.05a5.163 5.163 0 0 0-1.023 3.11c0 2.585 1.954 6.094 4.307 6.327" fill="#000000" opacity=".15"></path><path d="M16.785 17.467h6.176v7.498h-6.176z" fill="#f9c4c0"></path><path d="M22.96 16.194v5.758s-2.73 1.412-6.175.883v-6.64z" fill="#fd9997"></path><path d="M27.592 13.334v3.717c0 2.989-2.42 5.402-5.401 5.402s-5.402-2.413-5.402-5.402v-3.717a5.404 5.404 0 0 1 5.402-5.402c1.49 0 2.845.606 3.817 1.585a5.365 5.365 0 0 1 1.584 3.817z" fill="#f9c4c0"></path><path d="M12.708 11.297c0 1.837 1.888 4.448 3.725 4.448 1.006 0 2.228-1.03 3.126-2.261.765-1.023 1.297-2.195 1.297-3.027 0-1.837-2.71-2.835-4.54-2.835-1.18 0-2.336.765-3.01 1.796-.373.574-.598 1.23-.598 1.879z" fill="#333077"></path><path d="M29.34 8.883c.485 4.05-14.665 4.464-15.03.567-.468-4.969 5.145-4.969 8.856-4.969s5.89 2.029 6.174 4.402z" fill="#333077"></path><path d="M22.436 15.144c0 .383-.228.693-.505.693s-.505-.31-.505-.693c0-.383.228-.684.505-.684s.505.301.505.684zM26.02 15.144c0 .383-.228.693-.505.693s-.505-.31-.505-.693c0-.383.228-.684.505-.684s.506.301.506.684z" fill="#373754"></path><path d="M21.792 18.172c-.001.03-.009.057-.009.088a2.049 2.049 0 1 0 4.098 0c0-.03-.007-.058-.009-.088z" fill="#ffffff"></path><path d="M12.708 11.297c0 1.837 1.888 4.448 3.725 4.448 1.006 0 2.228-1.03 3.126-2.261-2.128-.582-4.065-1.78-5.604-3.376-.2-.2-.415-.449-.648-.69-.374.574-.599 1.23-.599 1.879z" fill="#000000" opacity=".15"></path><path d="m26.594 47.415-2.455 2.928-3.117-2.928-.185-22.163h1.404z" fill="#353e57"></path><path d="m26.591 47.416-2.448 2.924-.382-.36 2.37-2.83-4.293-21.894h.403z" fill="#000000" opacity=".08"></path><path d="m23.716 24.966-2.089 3.87-3.201-3.87z" fill="#353e57"></path><path d="m15.582 24.965 1.203-1.206 4.028 1.206-1.123 2.514zM23.306 27.244l-2.493-2.279 2.147-.915.739.915z" fill="#5592ff"></path><path d="M24.075 60.576a4.662 4.662 0 0 1-4.662 4.735H7.895l-.013-1.494-.22-30.826-.007-1.1-.007-1.254c-.026-3.128 2.508-5.67 5.636-5.67h2.294l7.583 8.811.2 5.856.267 7.843.434 12.739v.02z" fill="#f1f7ff"></path><path d="M31.147 64.922V31.514a6.55 6.55 0 0 0-6.549-6.549h-.899l-.54 8.81.904 26.44a5.058 5.058 0 0 0 4.583 4.863z" fill="#f1f7ff"></path><path d="M31.145 42.94c-.44.433-2.468 1.99-3.048 2.136-.787.207-1.554.507-2.268.894-.78.427-1.507.947-2.2 1.507-.401.32-.794.654-1.188.987-2.134 1.814-4.282 3.642-6.116 5.763-2.154 2.5-3.841 5.368-5.349 8.303-.353.674-.773 1.427-1.514 1.614-.507.133-1.054-.047-1.52-.294-.02-.013-.04-.02-.06-.033l-.22-30.826c.6-.6 1.26-1.134 1.987-1.58.467-.28.974-.534 1.52-.567.848-.06 1.635.393 2.348.853 2.475 1.588 4.302 4.242 6.456 6.242.94.874 2.361.941 3.388 1.695.394.3.807.573 1.24.807 1.121.607 2.355.967 3.522 1.48.74.327 4.202-.135 3.022 1.019z" fill="#c7dafa"></path><path d="m22.947 33.77.394-.013.9 26.428-.395.014z" fill="#c7dafa"></path><path d="M68 61.162v5.45c0 .5-.407.907-.907.907H4.907A.908.908 0 0 1 4 66.612v-5.45c0-.5.407-.907.907-.907h62.186c.5 0 .907.407.907.907z" fill="#387094"></path><path d="M68 61.163v5.449c0 .5-.407.907-.907.907H4.907A.908.908 0 0 1 4 66.612v-.814h61.659c.5 0 .907-.407.907-.907v-4.635h.527c.5 0 .907.407.907.907z" fill="#315a79"></path><path d="M31.712 36.733v8.91c-.187 0-.38-.013-.567-.047v-8.863z" fill="#c7dafa"></path><path d="m14.775 27.879 6.038 9.982 16.585-5.195 2.137 6.593-19.03 8.349a4.638 4.638 0 0 1-5.826-1.837L7.343 33.715a4.758 4.758 0 0 1 7.431-5.836z" fill="#f1f7ff"></path><path d="M51.259 42.884v11.845a1.41 1.41 0 0 0 2.816 0V42.884zm2.32 11.845a.913.913 0 0 1-1.822 0V43.381h1.821z" fill="#c7dafa"></path><path d="M51.756 47.93v6.8a.912.912 0 0 0 1.822 0v-6.8z" fill="#79affe"></path><path d="M54.59 43.381h-3.845a.224.224 0 0 1-.225-.224v-.311c0-.124.1-.224.225-.224h3.845c.124 0 .224.1.224.224v.31c0 .125-.1.225-.224.225z" fill="#edf5fc"></path><path d="M55.79 42.884v11.845a1.41 1.41 0 0 0 2.816 0V42.884zm2.319 11.845c0 .502-.41.912-.911.912a.913.913 0 0 1-.912-.912V43.381h1.823z" fill="#c7dafa"></path><path d="M56.286 47.93v6.8a.912.912 0 0 0 1.823 0v-6.8z" fill="#65f0ac"></path><path d="M59.12 43.381h-3.845a.224.224 0 0 1-.224-.224v-.311c0-.124.1-.224.224-.224h3.845c.124 0 .224.1.224.224v.31c0 .125-.1.225-.224.225z" fill="#edf5fc"></path><path d="M60.32 42.884v11.845a1.41 1.41 0 0 0 2.816 0V42.884zm2.32 11.845a.913.913 0 0 1-1.822 0V43.381h1.821z" fill="#c7dafa"></path><path d="M60.817 47.93v6.8a.912.912 0 0 0 1.822 0v-6.8z" fill="#fcba97"></path><path d="M63.65 43.381h-3.845a.224.224 0 0 1-.224-.224v-.311c0-.124.1-.224.224-.224h3.846c.123 0 .224.1.224.224v.31c0 .125-.1.225-.224.225z" fill="#edf5fc"></path><path d="M47.507 59.137h19.382v1.152H47.507z" fill="#daeaf9"></path><path d="M47.507 57.931h19.382v1.206H47.507zM47.507 46.15h19.382v1.206H47.507z" fill="#edf5fc"></path><path d="M64.054 47.356h1.327v11.781h-1.327zM49.015 47.356h1.327v11.781h-1.327z" fill="#edf5fc"></path><path d="M42.784 45.096v5.295a5.008 5.008 0 0 0-3.02 0v-5.295z" fill="#5150ac" opacity=".7"></path><path d="M46.255 55.14a4.982 4.982 0 1 1-9.964 0 4.982 4.982 0 0 1 9.964 0z" fill="#5150ac" opacity=".7"></path><path d="M45.263 55.135c-.338-.195-.762-.19-1.133-.074-.372.116-.703.335-1.024.556-.32.222-.64.451-1.003.595-.604.24-1.306.221-1.895-.053-.037.247-.073.498-.048.747.025.249.118.5.303.668.231.21.563.258.873.285.844.074 1.713.061 2.513-.22a3.298 3.298 0 0 0 1.207-.736c.174-.17.326-.361.447-.572.096-.166.248-.355.223-.557-.033-.264-.239-.51-.463-.64z" fill="#f99072"></path><path d="M45.73 55.836a4.518 4.518 0 0 1-4.459 3.814 4.514 4.514 0 0 1-4.508-4.51c0-.536.094-1.05.268-1.527.163-.053.344-.053.516-.04 1.14.076 2.245.58 3.05 1.389.31.312.578.668.914.952.337.282.769.493 1.206.44.336-.042.63-.231.943-.362.607-.25 1.29-.276 1.939-.178.044.006.086.014.13.022z" fill="#fcba97"></path><path d="M43.55 45.096h-4.557a.192.192 0 0 1-.192-.192v-.773c0-.106.086-.192.192-.192h4.558c.106 0 .191.086.191.192v.773a.192.192 0 0 1-.191.192z" fill="#363383" opacity=".7"></path><path d="M42.357 54.156a.316.316 0 1 1-.557-.3.315.315 0 1 1 .557.3zM43.535 52.695a.316.316 0 1 1-.557-.3.315.315 0 1 1 .557.3zM41.921 52.129a.39.39 0 1 1-.688-.37.39.39 0 1 1 .688.37zM40.903 49.659a.39.39 0 1 1-.689-.371.39.39 0 1 1 .689.37z" fill="#fcba97"></path><path d="M50.986 21.623v9.893c0 1.12-.905 2.024-2.024 2.024a2.02 2.02 0 0 1-2.013-2.024v-9.893z" fill="#f1f7ff"></path><path d="M47.302 23.525v7.99c0 .923.745 1.672 1.66 1.672.92 0 1.67-.75 1.67-1.671v-7.99z" fill="#fcba97"></path><path d="M51.51 20.801v1.346c0 .19-.155.333-.345.333H46.77a.335.335 0 0 1-.345-.333v-1.346c0-.19.155-.333.345-.333h4.395c.19 0 .345.143.345.333z" fill="#48609d"></path><path d="m43.831 25.307 1.962-1.563a1.35 1.35 0 1 1 1.673 2.117l-.454.356a1.35 1.35 0 0 1-.131.09l-2.14 1.302zM40.949 34.092l.528 3.685a1.179 1.179 0 0 1-.982 1.332l-.96.151-2.134-6.596s.325-.66.632-1.25a.72.72 0 0 1 1.213-.101.717.717 0 0 1 .077.776l-.295.575 4.268-1.75a.877.877 0 0 1 .734 1.591z" fill="#f9c4c0"></path></g></svg>