<svg viewBox="0 0 512 512" xmlns="http://www.w3.org/2000/svg"><g><path d="M481.901 339.399C420.099 468.999 325 497 256 497c-77.701 0-150.901-38.8-195.901-102.1-45.298-63.9-56.1-144.9-30-222.301L34.9 162.7C71.499 75.399 160.3 15 256 15c77.701 0 150.901 38.8 195.901 102.1 45.298 63.9 56.1 144.9 30 222.299z" fill="#65b1fc"></path><path d="M481.901 339.399C420.099 468.999 325 497 256 497V15c77.701 0 150.901 38.8 195.901 102.1 45.298 63.9 56.1 144.9 30 222.299z" fill="#1689fc"></path><path d="M464.2 108.399C416.201 41.199 338.5 0 256 0 153.1 0 58.9 64.6 20.2 159.699L15.099 170.2C-12.446 254.076-1.721 333.523 47.8 403.599 95.799 470.799 173.5 512 256 512c101.7 0 194.7-63.1 234.6-156.101l4.499-9c29.986-85.319 19.482-167.281-30.899-238.5zm-391.8 277.8c-42.599-60-52.5-135.899-27.9-208.799l3.9-8.101C72.7 111.099 121 66 178.599 44.399c-36.299 47.401-58.2 139.6-55.499 169.6-.3.901-.601 1.8-.601 3.001-7.8 100.499 15 197.5 57.9 251.8C137.5 453.199 99.401 424.3 72.4 386.199zm168.6 93.1c-10.499-3.6-21-11.499-30.901-22C168.1 412 145 316.3 152.5 219.399V216.7c0-.901.3-2.1.3-3.001 8.699-93.3 45.3-166.899 88.2-181v446.6zm30-.3v-446.3c46.199 15.3 84.901 100.3 89.399 201.7 4.2 93.6-19.199 181.5-59.7 224.101-9.6 9.899-19.498 17.199-29.699 20.499zM467.5 334.6c-33.6 70.8-81 114.399-135.899 133.9 40.199-50.7 62.999-141.1 58.798-235.3-3.6-79.801-26.1-148.599-58.799-190 42.9 15.599 80.999 44.5 107.999 82.599 42.6 60 52.501 135.901 27.901 208.801z" fill="#96ebe6"></path><path d="M464.2 108.399C416.201 41.199 338.5 0 256 0v512c101.7 0 194.7-63.1 234.6-156.101l4.499-9c29.986-85.319 19.482-167.281-30.899-238.5zM271 478.999v-446.3c46.199 15.3 84.901 100.3 89.399 201.7 4.2 93.6-19.199 181.5-59.7 224.101-9.6 9.899-19.498 17.199-29.699 20.499zM467.5 334.6c-33.6 70.8-81 114.399-135.899 133.9 40.199-50.7 62.999-141.1 58.798-235.3-3.6-79.801-26.1-148.599-58.799-190 42.9 15.599 80.999 44.5 107.999 82.599 42.6 60 52.501 135.901 27.901 208.801z" fill="#00c8c8"></path><path d="M466 151H46c-24.901 0-46 20.099-46 45v120c0 24.899 21.099 45 46 45h420c24.901 0 46-20.101 46-45V196c0-24.901-21.099-45-46-45z" fill="#0053bf"></path><path d="M512 196v120c0 24.899-21.099 45-46 45H256V151h210c24.901 0 46 20.099 46 45z" fill="#05377f"></path><path d="m329.5 232.599-30 60C296.8 297.7 291.7 301 286 301s-10.8-3.3-13.5-8.401L256 259.6l-16.5 32.999c-5.099 10.201-21.901 10.201-27.001 0l-30-60c-3.6-7.2-.599-16.199 6.901-20.099 7.2-3.6 16.199-.601 20.099 6.899L226 252.4l16.5-33.001c2.701-5.099 8.101-7.8 13.5-7.8 5.399 0 10.8 2.701 13.5 7.8L286 252.4l16.5-33.001c3.9-7.5 12.9-10.499 20.099-6.899 7.5 3.9 10.501 12.899 6.901 20.099z" fill="#e1f1fa"></path><path d="M436 301a15.006 15.006 0 0 1-13.418-8.291L406 259.545l-16.582 33.164c-5.098 10.166-21.738 10.166-26.836 0l-28.74-57.495c-1.86-2.285-3.062-5.112-3.267-8.218-.527-8.262 5.288-15.366 13.549-15.908 6.27-.146 12.598 2.813 15.293 8.203L376 252.455l16.582-33.164c5.098-10.166 21.738-10.166 26.836 0L436 252.455l16.582-33.164c3.721-7.427 12.729-10.371 20.127-6.709 7.412 3.706 10.415 12.715 6.709 20.127l-30 60A15.006 15.006 0 0 1 436 301z" fill="#bfe1ff"></path><path d="M166.967 211.029c-5.903-.059-11.689 2.871-14.385 8.262L136 252.455l-16.582-33.164c-5.403-10.769-21.492-10.688-26.836 0L76 252.455l-16.582-33.164c-3.721-7.427-12.744-10.371-20.127-6.709-7.412 3.706-10.415 12.715-6.709 20.127l30 60C65.131 297.792 70.316 301 76 301s10.869-3.208 13.418-8.291L106 259.545l16.582 33.164C125.131 297.792 130.316 301 136 301s10.869-3.208 13.418-8.291l28.257-56.514c2.139-2.432 3.516-5.64 3.75-9.199.527-8.262-6.196-15.425-14.458-15.967z" fill="#e1f1fa"></path><path d="m329.5 232.599-30 60C296.8 297.7 291.7 301 286 301s-10.8-3.3-13.5-8.401L256 259.6v-48.001c5.4 0 10.8 2.701 13.5 7.8L286 252.4l16.5-33.001c3.9-7.5 12.9-10.499 20.099-6.899 7.5 3.9 10.501 12.899 6.901 20.099z" fill="#bfe1ff"></path></g></svg>