<svg viewBox="0 0 512 512" xmlns="http://www.w3.org/2000/svg"><g><path d="M423.762 239.1v-25.752a15.521 15.521 0 0 0-15.5-15.5h-14.173c1.325-16.812 13.306-40.422 42.527-40.422a8 8 0 0 0 0-16c-23.682 0-37.7 11.572-45.3 21.28a64.639 64.639 0 0 0-13.256 35.142h-13.935L304.309 94.219a80.933 80.933 0 0 0-140.2 0L24 336.868a80.93 80.93 0 0 0 70.116 121.4H374.3c1.9 0 3.736-.059 5.613-.175 2.065.113 4.143.175 6.236.175A112.812 112.812 0 0 0 423.762 239.1z" fill="#ffe177"></path><path d="M386.148 232.641a112.33 112.33 0 0 1 37.614 6.454v-25.747a15.521 15.521 0 0 0-15.5-15.5h-44.197a15.521 15.521 0 0 0-15.5 15.5v25.74a112.3 112.3 0 0 1 37.583-6.447z" fill="#685e68"></path><g fill="#fe646f"><path d="M411.7 134.6a7.975 7.975 0 0 1-5.65-2.336l-11.339-11.311a8 8 0 0 1 11.3-11.328l11.339 11.311a8 8 0 0 1-5.65 13.664zM434.486 125.165a8 8 0 0 1-8-8v-16.017a8 8 0 0 1 16 0v16.017a8 8 0 0 1-8 8zM457.305 134.6a8 8 0 0 1-5.657-13.657l11.31-11.31a8 8 0 0 1 11.314 11.313l-11.311 11.311a7.974 7.974 0 0 1-5.656 2.343zM482.76 157.423h-16.016a8 8 0 0 1 0-16h16.016a8 8 0 0 1 0 16zM468.615 191.552a7.976 7.976 0 0 1-5.664-2.35l-11.311-11.339a8 8 0 0 1 11.329-11.3l11.31 11.339a8 8 0 0 1-5.664 13.65zM434.486 205.668a8 8 0 0 1-8-8v-16.015a8 8 0 0 1 16 0v16.015a8 8 0 0 1-8 8z" fill="#fe646f"></path></g><path d="M386.148 232.641a112.814 112.814 0 1 0 112.828 112.8 112.928 112.928 0 0 0-112.828-112.8z" fill="#837683"></path><path d="M234.192 186.768c12.714 0 23.64 10.378 23.092 23.063l-3.546 80.778c-.519 10.724-8.793 19.545-19.546 19.545s-19.056-8.821-19.546-19.545l-3.517-80.778c-.576-12.685 10.379-23.063 23.063-23.063zm0 145.267a19.59 19.59 0 1 0 19.575 19.6 19.581 19.581 0 0 0-19.575-19.6z" fill="#fe646f"></path><path d="M234.192 332.035a19.574 19.574 0 0 0-4.5.541 19.572 19.572 0 0 1 0 38.1 19.58 19.58 0 1 0 4.5-38.638zM234.192 186.768a23.259 23.259 0 0 0-4.5.442c10.677 2.1 19.07 11.466 18.588 22.621l-3.546 80.778c-.444 9.168-6.564 16.926-15.047 18.99a19.007 19.007 0 0 0 4.5.555c10.753 0 19.027-8.821 19.546-19.545l3.546-80.778c.553-12.685-10.373-23.063-23.087-23.063z" fill="#fd4755"></path><path d="M311.056 429.555H94.114a52.23 52.23 0 0 1-45.237-78.33l70.053-121.34 70.055-121.312a52.226 52.226 0 0 1 90.444 0l69.133 119.717v-14.942a15.521 15.521 0 0 1 15.5-15.5h.06L304.309 94.219a80.933 80.933 0 0 0-140.2 0L24 336.868a80.93 80.93 0 0 0 70.116 121.4H374.3c1.905 0 3.75-.059 5.634-.176a112.337 112.337 0 0 1-68.878-28.537z" fill="#fe646f"></path><path d="m265.4 108.573 70.054 121.312 6.754 11.7c2.09-.888 4.2-1.732 6.354-2.5v-10.8l-69.133-119.71a51.029 51.029 0 0 0-45.237-26.1 55.815 55.815 0 0 0-7 .437c16.142 2.033 29.824 11.133 38.208 25.661z" fill="#efce67"></path><path d="m290.279 94.218 62.6 108.422a15.446 15.446 0 0 1 11.183-4.795h.06L304.309 94.219a80.1 80.1 0 0 0-70.117-40.488c-2.355 0-4.688.109-7 .3a79.957 79.957 0 0 1 63.087 40.187zM360.27 458.269h14.03c1.905 0 3.75-.059 5.634-.176-2.568-.14-5.107-.393-7.627-.7a83.249 83.249 0 0 1-12.037.876z" fill="#fd4755"></path><path d="M386.148 232.641c-2.351 0-4.683.081-7 .224a112.806 112.806 0 0 1 0 225.18c2.316.143 4.648.224 7 .224a112.814 112.814 0 1 0 0-225.628z" fill="#685e68"></path><path d="M309.492 353.441a8 8 0 0 1-8-8A85.173 85.173 0 0 1 349.31 269.2a8 8 0 1 1 6.967 14.4 69.084 69.084 0 0 0-38.785 61.843 8 8 0 0 1-8 7.998z" fill="#a79ba7"></path><path d="M409.762 213.348v21.786a111.851 111.851 0 0 1 14 3.961v-25.747a15.521 15.521 0 0 0-15.5-15.5h-14a15.521 15.521 0 0 1 15.5 15.5z" fill="#544854"></path><path d="M436.616 141.423c-23.682 0-37.7 11.572-45.3 21.28a64.639 64.639 0 0 0-13.256 35.142h16.028c1.325-16.812 13.306-40.422 42.527-40.422a8 8 0 0 0 0-16z" fill="#a79ba7"></path></g></svg>