<svg viewBox="0 0 512 512" xmlns="http://www.w3.org/2000/svg"><g><g clip-rule="evenodd" fill-rule="evenodd"><path d="M255.709 93.877c85.385 0 154.601 69.218 154.601 154.599 0 56.511-30.317 105.941-75.574 132.906-9.757 5.814-15.305 15.574-15.305 26.932v27.696c0 11.705-9.547 21.252-21.252 21.252H213.24c-11.706 0-21.252-9.546-21.252-21.252v-27.696c0-11.361-5.549-21.118-15.306-26.932-45.257-26.965-75.573-76.395-75.573-132.906h54.276c-6.668-6.185-10.842-15.021-10.842-24.833 0-18.704 15.163-33.867 33.867-33.867s33.867 15.162 33.867 33.867c0 9.812-4.174 18.648-10.842 24.833h54.275v-54.275c6.185 6.668 15.021 10.842 24.833 10.842 18.704 0 33.867-15.162 33.867-33.867s-15.163-33.867-33.867-33.867c-9.812 0-18.648 4.174-24.833 10.842zM61.552 239.251a8 8 0 0 1 0 16H21.458a8 8 0 0 1 0-16zM359.695 83.105a7.981 7.981 0 0 1-13.812-8l20.047-34.722a7.981 7.981 0 0 1 13.812 8zm-95.986-30.012a8 8 0 0 1-16 0V13a8 8 0 0 1 16 0zm156.146 298.144a7.981 7.981 0 0 1 8-13.812l34.722 20.047a7.981 7.981 0 0 1-8 13.812zm30.625-95.852a7.97 7.97 0 0 1 0-15.938h40.093a7.97 7.97 0 0 1 0 15.938zm-22.625-98.306a7.981 7.981 0 0 1-8-13.812l34.722-20.047a7.981 7.981 0 0 1 8 13.812zM83.564 337.424a7.981 7.981 0 0 1 8 13.812l-34.722 20.047a7.981 7.981 0 0 1-8-13.812z" fill="#ffda2d"></path><path d="M255.71 248.476h-54.275c6.668-6.185 10.842-15.021 10.842-24.833 0-18.704-15.163-33.867-33.867-33.867s-33.867 15.162-33.867 33.867c0 9.812 4.174 18.648 10.842 24.833h-54.276c0 56.511 30.316 105.941 75.573 132.906 9.757 5.814 15.306 15.571 15.306 26.932l-.001 32.169h63.723v-91.682c-6.185 6.668-15.021 10.842-24.833 10.842-18.704 0-33.867-15.163-33.867-33.867s15.163-33.867 33.867-33.867c9.812 0 18.648 4.174 24.833 10.842z" fill="#64b5f6"></path><path d="M255.71 248.476v54.275c-6.185-6.668-15.021-10.842-24.833-10.842-18.704 0-33.867 15.163-33.867 33.867s15.163 33.867 33.867 33.867c9.812 0 18.648-4.174 24.833-10.842v91.682h63.721v-32.169c0-11.358 5.549-21.118 15.305-26.932 45.257-26.965 75.574-76.395 75.574-132.906h-54.275c6.668 6.185 10.843 15.021 10.843 24.833 0 18.704-15.163 33.867-33.867 33.867s-33.867-15.163-33.867-33.867c0-9.812 4.174-18.649 10.842-24.833z" fill="#72d561"></path><path d="M298.179 439.651v35.995c0 17.259-14.094 31.353-31.352 31.353h-22.235c-17.259 0-31.352-14.085-31.352-31.353v-24.961z" fill="#8d9ca8"></path><path d="M319.431 446.01v-15.527H191.988v15.527c0 11.705 9.546 21.252 21.252 21.252h84.939c11.705 0 21.252-9.546 21.252-21.252z" fill="#b4d2d7"></path><path d="M176.059 167.599v-54.275c6.185 6.668 15.021 10.842 24.833 10.842 18.704 0 33.867-15.162 33.867-33.867s-15.163-33.867-33.867-33.867c-9.812 0-18.648 4.174-24.833 10.842L176.058 13c-85.384 0-154.6 69.218-154.6 154.599h54.276c-6.668-6.185-10.842-15.021-10.842-24.833 0-18.704 15.163-33.867 33.867-33.867s33.867 15.162 33.867 33.867c0 9.812-4.174 18.648-10.842 24.833z" fill="#fc685b"></path></g></g></svg>