<svg enable-background="new 0 0 32 32" height="512" viewBox="0 0 32 32" width="512" xmlns="http://www.w3.org/2000/svg"><g id="Layer_1"><g><g><path d="m16 30.9932c-3.585 0-7.1699-1.3647-9.8994-4.0938-5.459-5.4585-5.459-14.3403 0-19.7988.7813-.7813 2.0469-.7813 2.8281 0 .7813.7808.7813 2.0474 0 2.8281-3.8984 3.8994-3.8984 10.2432 0 14.1426 3.8994 3.8979 10.2432 3.8979 14.1426 0 3.8984-3.8994 3.8984-10.2432 0-14.1426-.7813-.7808-.7813-2.0474 0-2.8281.7813-.7813 2.0469-.7813 2.8281 0 5.459 5.4585 5.459 14.3403 0 19.7988-2.7295 2.729-6.3144 4.0938-9.8994 4.0938z" fill="#ffb743"/></g></g><path d="m16 16c-1.3807 0-2.5-1.1193-2.5-2.5v-9c0-1.3807 1.1193-2.5 2.5-2.5 1.3807 0 2.5 1.1193 2.5 2.5v9c0 1.3807-1.1193 2.5-2.5 2.5z" fill="#ffb743"/></g></svg>