<svg viewBox="0 0 512 512" xmlns="http://www.w3.org/2000/svg"><g><path d="m301.963 186.523-.053.046a41.3 41.3 0 0 1-31.067 53.758h-.013v.013a41.3 41.3 0 0 1-53.759 31.067l-.046.053a41.3 41.3 0 0 1-62.046 0l-.046-.053a41.3 41.3 0 0 1-53.758-31.067v-.013h-.013a41.3 41.3 0 0 1-31.072-53.758l-.053-.046a41.3 41.3 0 0 1 0-62.046l.053-.046a41.3 41.3 0 0 1 31.067-53.758h.013v-.013a41.3 41.3 0 0 1 53.761-31.07l.046-.053a41.3 41.3 0 0 1 62.046 0l.046.053a41.3 41.3 0 0 1 53.758 31.067v.013h.013a41.3 41.3 0 0 1 31.067 53.759l.053.046a41.3 41.3 0 0 1 .003 62.048z" fill="#575759"></path><path d="M87.89 111.16a41.387 41.387 0 0 0 2.2 13.27l-.05.05a41.288 41.288 0 0 0 0 62.04l.05.05a41.3 41.3 0 0 0 31.07 53.76h.01v.01a41.245 41.245 0 0 0 30.51 32.02 41.209 41.209 0 0 1-50.51-32.02v-.01h-.01a41.3 41.3 0 0 1-31.07-53.76l-.05-.05a41.288 41.288 0 0 1 0-62.04l.05-.05a41.248 41.248 0 0 1 31.07-53.76h.01v-.01a41.3 41.3 0 0 1 50.51-32.02 41.245 41.245 0 0 0-30.51 32.02v.01h-.01a41.325 41.325 0 0 0-33.27 40.49z" fill="#505054"></path><path d="M141 319h90v80h-90z" fill="#f19b40"></path><path d="M141 319v60h20v-9.018a20.05 20.05 0 0 1 20.973-19.97 100 100 0 0 0 32.757-4.132L231 341v-22z" fill="#d88646"></path><path d="M86 255.5H76a20 20 0 0 1-20-20 20 20 0 0 1 20-20h10v40z" fill="#f19b40"></path><path d="M69 235.5a20.024 20.024 0 0 0 17 19.78v.22H76a20 20 0 0 1 0-40h10v.22a20 20 0 0 0-17 19.78z" fill="#d88646"></path><path d="m250.367 325.19-35.632 10.69a100 100 0 0 1-57.47 0l-35.632-10.69A50 50 0 0 1 86 277.3v-61.8s8.333-32.577 12.5-33.523a390.607 390.607 0 0 1 177.242.515C279.161 183.289 286 215.5 286 215.5v61.8a50 50 0 0 1-35.633 47.89z" fill="#f19b40"></path><path d="M106 215.017V317.3a49.99 49.99 0 0 1-20-40v-62.283z" fill="#d88646"></path><path d="M286 215.5h10a20 20 0 0 1 20 20 20 20 0 0 1-20 20h-10v-40z" fill="#f19b40"></path><path d="M286 215.5 269.123 229a5 5 0 0 1-8.123-3.9v-60.08h25zM86 215.5l16.877 13.5a5 5 0 0 0 8.123-3.9v-60.08H86z" fill="#575759"></path><path d="M286 215.5h10v40h-10z" fill="#d88646"></path><path d="M201.002 242.798v-20a10 10 0 0 1 10-10h40a10 10 0 0 1 10 10v20a20 20 0 0 1-20 20h-20a20 20 0 0 1-20-20zM111.002 242.798v-20a10 10 0 0 1 10-10h40a10 10 0 0 1 10 10v20a20 20 0 0 1-20 20h-20a20 20 0 0 1-20-20z" fill="#e6f0f6"></path><g fill="#707077"><path d="M241 270.3h-20a27.531 27.531 0 0 1-27.5-27.5v-20a17.521 17.521 0 0 1 17.5-17.5h40a17.521 17.521 0 0 1 17.5 17.5v20a27.531 27.531 0 0 1-27.5 27.5zm-30-50a2.5 2.5 0 0 0-2.5 2.5v20a12.514 12.514 0 0 0 12.5 12.5h20a12.514 12.514 0 0 0 12.5-12.5v-20a2.5 2.5 0 0 0-2.5-2.5zM151 270.3h-20a27.531 27.531 0 0 1-27.5-27.5v-20a17.521 17.521 0 0 1 17.5-17.5h40a17.521 17.521 0 0 1 17.5 17.5v20a27.531 27.531 0 0 1-27.5 27.5zm-30-50a2.5 2.5 0 0 0-2.5 2.5v20a12.514 12.514 0 0 0 12.5 12.5h20a12.514 12.514 0 0 0 12.5-12.5v-20a2.5 2.5 0 0 0-2.5-2.5z" fill="#707077"></path><path d="M211 220.3h-50a7.5 7.5 0 0 1 0-15h50a7.5 7.5 0 0 1 0 15z" fill="#707077"></path></g><circle cx="226" cy="237.798" fill="#575759" r="7.5"></circle><circle cx="146" cy="237.798" fill="#575759" r="7.5"></circle><path d="M336 457.52v18.98a10 10 0 0 1-10 10H46a10 10 0 0 1-10-10v-18.98a89.992 89.992 0 0 1 57.96-84.1l36.89-14.05c9.18 12.47 30.41 21.2 55.15 21.2s45.97-8.73 55.15-21.2l36.89 14.05a89.992 89.992 0 0 1 57.96 84.1z" fill="#f1e8dc"></path><path d="M236 364.92v60.79l-35 60.79h-30l-35-60.79v-60.79c10.74 9.43 29.13 15.65 50 15.65s39.26-6.22 50-15.65z" fill="#5bd6fd"></path><path d="M336 471.5v5a10 10 0 0 1-10 10H46a10 10 0 0 1-10-10v-18.98a89.976 89.976 0 0 1 30-67.08v71.06a10 10 0 0 0 10 10z" fill="#efdbc6"></path><path d="M93.5 456.5v30h-15v-30a7.5 7.5 0 0 1 15 0zM293.5 456.5v30h-15v-30a7.5 7.5 0 0 1 15 0z" fill="#e2cdba"></path><path d="m206 471.5-5 15h-30l-5-15z" fill="#28c8f9"></path><path d="m232 471.5-19 15h-12l3.19-15zM140 471.5l19 15h12l-3.19-15z" fill="#e2cdba"></path><path d="m241.66 427.34 13.9 17.75L201 486.5l30-141.16 10 13.81 25 56.19zM130.34 427.34l-13.9 17.75L171 486.5l-30-141.16-10 13.81-25 56.19z" fill="#efdbc6"></path><circle cx="408.069" cy="171.87" fill="#8bc932" r="20"></circle><circle cx="376.854" cy="221.504" fill="#8bc932" r="15"></circle><circle cx="409" cy="259.004" fill="#8bc932" r="7.5"></circle><path d="M474.031 457.9 430.1 365.642a9.994 9.994 0 0 1-.972-4.3v-67.967H358.9v67.968a9.994 9.994 0 0 1-.972 4.3L313.994 457.9a20 20 0 0 0 18.058 28.6h123.922a20 20 0 0 0 18.057-28.6z" fill="#e6f0f6"></path><path d="M378.9 293.37v65.71a19.986 19.986 0 0 1-1.94 8.6l-55.23 115.97a20 20 0 0 1-7.75-25.73c0-.01.01-.01.01-.02l43.94-92.26a9.752 9.752 0 0 0 .72-2.09 10.328 10.328 0 0 0 .25-2.21v-67.97z" fill="#aacfe2"></path><path d="M358.899 314.784h70.227v10.778h-70.227z" fill="#aacfe2"></path><path d="M455.973 486.5h-123.92a20 20 0 0 1-18.06-28.6l36.55-76.74h86.94l36.55 76.74a20 20 0 0 1-18.06 28.6z" fill="#8bc932"></path><circle cx="390.01" cy="429.685" fill="#e6f0f6" r="11"></circle><path d="M352.053 486.5h-20a20 20 0 0 1-18.06-28.6l36.55-76.74h20l-36.55 76.74a20 20 0 0 0 18.06 28.6z" fill="#80b524"></path><rect fill="#e6f0f6" rx="10"></rect><path d="M380.123 316.5h-20a10 10 0 0 1-10-10v-10a10 10 0 0 1 10-10h10v20a9.991 9.991 0 0 0 10 10z" fill="#aacfe2"></path><circle cx="407.569" cy="401.866" fill="#e6f0f6" r="7.5"></circle></g></svg>