<svg viewBox="0 0 24 24" xmlns="http://www.w3.org/2000/svg"><g><path d="m13.566 16.22-.218-.122a2.832 2.832 0 0 0-2.696 0l-.218.122-.244-.437.218-.122a3.336 3.336 0 0 1 3.184 0l.218.122z" fill="#f29e6d"></path><g fill="#403d37"><circle cx="8" cy="17.5" fill="#403d37" r="3.25"></circle><circle cx="16" cy="17.5" fill="#403d37" r="3.25"></circle><path d="M17.651 4.883A2.254 2.254 0 0 0 15.47 3.25a2.22 2.22 0 0 0-1 .236l-1.16.58a1.724 1.724 0 0 1-.78.184h-1.06a1.724 1.724 0 0 1-.778-.184l-1.16-.58A2.265 2.265 0 0 0 6.35 4.881L4.977 9.66h14.045z" fill="#403d37"></path></g><path d="M8.51 3.25a2.186 2.186 0 0 1 .99.23 2.192 2.192 0 0 0-1.17 1.4L6.96 9.66H4.98l1.37-4.78a2.25 2.25 0 0 1 2.16-1.63z" fill="#231f20"></path><path d="M22.087 10.348a25.299 25.299 0 0 0-20.175 0 1.254 1.254 0 0 0 .503 2.402h19.17a1.254 1.254 0 0 0 .502-2.402z" fill="#f29e6d"></path><circle cx="8" cy="17.5" fill="#edf2ff" r="1.25"></circle><circle cx="16" cy="17.5" fill="#edf2ff" r="1.25"></circle><path d="M4.58 12.75H2.42a1.254 1.254 0 0 1-.51-2.4A25.095 25.095 0 0 1 12 8.25c.36 0 .72.01 1.08.02a24.905 24.905 0 0 0-9 2.08 1.251 1.251 0 0 0 .5 2.4z" fill="#d88d62"></path><path d="M8.88 20.62a2.885 2.885 0 0 1-.88.13 3.25 3.25 0 0 1 0-6.5 2.885 2.885 0 0 1 .88.13 3.235 3.235 0 0 0 0 6.24zM16.87 20.62a2.822 2.822 0 0 1-.87.13 3.236 3.236 0 0 1-3.12-2.37v-.01a2.976 2.976 0 0 1 0-1.74v-.01A3.236 3.236 0 0 1 16 14.25a2.822 2.822 0 0 1 .87.13 3.239 3.239 0 0 0 0 6.24z" fill="#231f20"></path><path d="M8.38 18.68a.986.986 0 0 1-.38.07 1.25 1.25 0 0 1 0-2.5.986.986 0 0 1 .38.07 1.231 1.231 0 0 0 0 2.36zM16.38 18.68a.986.986 0 0 1-.38.07 1.25 1.25 0 0 1 0-2.5.986.986 0 0 1 .38.07 1.231 1.231 0 0 0 0 2.36z" fill="#bed2e8"></path></g></svg>