<svg viewBox="0 0 512 512" xmlns="http://www.w3.org/2000/svg"><g><path d="M491 286.12c0 4.08-1.8 7.94-4.93 10.56-1.06.89-26.39 21.96-67.3 43.15-37.89 19.63-96.88 43.02-162.77 43.02l-60.333-96.73L256 189.39c65.89 0 124.88 23.4 162.77 43.03 40.91 21.19 66.24 42.26 67.3 43.15 3.13 2.61 4.93 6.48 4.93 10.55z" fill="#dedef4"></path><path d="M93.23 232.42c-40.91 21.19-66.24 42.26-67.3 43.15A13.735 13.735 0 0 0 21 286.12c0 4.08 1.8 7.94 4.93 10.56 1.06.89 26.39 21.96 67.3 43.15 37.89 19.63 96.88 43.02 162.77 43.02V189.39c-65.89 0-124.88 23.4-162.77 43.03z" fill="#f5f5fc"></path><path d="M356.29 286.21c0 55.3-44.99 100.29-100.29 100.29l-50.145-105.625L256 185.92c55.3 0 100.29 44.99 100.29 100.29z" fill="#4aca7b"></path><path d="M256 185.92V386.5c-55.3 0-100.29-44.99-100.29-100.29S200.7 185.92 256 185.92z" fill="#9fe066"></path><path d="M512 286.12c0 4.44-1.97 8.65-5.37 11.5-1.15.97-28.75 23.92-73.32 47.01C392.04 366.01 327.78 391.5 256 391.5l-11-14 11-16c65.45 0 124.67-23.47 162.82-43.15 22.98-11.86 41.32-23.82 53.23-32.23-11.91-8.41-30.25-20.37-53.23-32.22-38.15-19.69-97.37-43.15-162.82-43.15L245 198l11-17.25c71.78 0 136.04 25.48 177.31 46.87 44.57 23.08 72.17 46.04 73.32 47a15.01 15.01 0 0 1 5.37 11.5z" fill="#ff946e"></path><path d="M256 210.75v-30c-71.78 0-136.04 25.48-177.31 46.87-44.57 23.08-72.17 46.04-73.32 47-3.4 2.85-5.37 7.06-5.37 11.5s1.97 8.65 5.37 11.5c1.15.97 28.75 23.92 73.32 47.01C119.96 366.01 184.22 391.5 256 391.5v-30c-65.45 0-124.67-23.47-162.82-43.15-22.98-11.86-41.33-23.82-53.23-32.23 11.91-8.41 30.25-20.37 53.23-32.22 38.15-19.69 97.37-43.15 162.82-43.15z" fill="#ffb499"></path><path d="M450.72 180.54a14.99 14.99 0 0 1-13.38 8.22c-2.29 0-4.61-.53-6.78-1.63-47.88-24.3-106.61-36.63-174.56-36.63l-11-15 11-15c72.71 0 136.01 13.42 188.14 39.88 7.38 3.75 10.33 12.78 6.58 20.16z" fill="#23272b"></path><path d="M256 120.5v30c-67.95 0-126.68 12.33-174.56 36.63-7.39 3.75-16.41.8-20.16-6.59-3.75-7.38-.8-16.41 6.58-20.16C119.99 133.92 183.29 120.5 256 120.5z" fill="#414952"></path><path d="M293.25 279.34 256 309.13l-11-13.875 11-24.535 18.51-14.81c6.46-5.18 15.9-4.13 21.08 2.34 5.17 6.47 4.13 15.91-2.34 21.09z" fill="#23272b"></path><path d="M256 270.72v38.41l-9.21 7.37a15.008 15.008 0 0 1-12.59 2.94c-4.43-.97-8.18-3.89-10.2-7.94l-9.29-18.58c-3.71-7.41-.71-16.42 6.71-20.13 7.41-3.7 16.41-.7 20.12 6.71l.99 1.99z" fill="#414952"></path></g></svg>