<svg viewBox="0 0 64 64" xmlns="http://www.w3.org/2000/svg"><g><path d="M46 17H29v12.19c0 1.781.791 3.469 2.159 4.609l4.703 2.577a5.06 5.06 0 0 0 2.436.624h3.405c.851 0 1.689-.214 2.436-.624l4.703-2.577A6.003 6.003 0 0 0 51 29.19V21zM51 21v5h1.5a2.5 2.5 0 1 0 0-5z" fill="#fce0b9"></path><path d="M46 17H29v3h17l5 4v-3z" fill="#fad3ac"></path><ellipse cx="42.75" cy="24.5" fill="#91672c" rx="1" ry="1.5"></ellipse><path d="M37.75 34A3.754 3.754 0 0 1 34 30.25h1.5c0 1.241 1.009 2.25 2.25 2.25S40 31.491 40 30.25h1.5A3.754 3.754 0 0 1 37.75 34z" fill="#c47c66"></path><circle cx="43.25" cy="24.5" fill="#ffffff" r=".5"></circle><path d="M24 43.354c-2.783 1.127-5 2.412-5 3.646l1 15h40l1-15c0-3.314-16-7-16-7H35z" fill="#eaca65"></path><path d="M24 46.354 35 43h10s14.12 3.254 15.829 6.395L61 47c0-3.314-16-7-16-7H35l-11 3.354c-2.783 1.127-5 2.412-5 3.646l.173 2.419c.55-1.05 2.478-2.114 4.827-3.065z" fill="#cfb259"></path><path d="M44.138 36.376a5.06 5.06 0 0 1-2.436.624h-3.405a5.063 5.063 0 0 1-2.436-.624L35 35.904V42a7.072 7.072 0 0 0 10 0v-6.096z" fill="#fce0b9"></path><path d="m45 35.904-.862.472a5.06 5.06 0 0 1-2.436.624h-3.405a5.063 5.063 0 0 1-2.436-.624L35 35.904V42c.158.158.323.304.491.444L45 36.286z" fill="#fad3ac"></path><path d="M46 12v5l5 4h1.5c.345 0 .674.07.973.196C53.85 19.929 54 18.39 54 17c0-7.732-6.268-14-14-14-3.81 0-7.257 1.53-9.782 4H41a5 5 0 0 1 5 5z" fill="#1a326e"></path><path d="M46 17v-5a5 5 0 0 0-5-5H27a5 5 0 0 0 0 10h.438z" fill="#1a326e"></path><path d="M27 15a5 5 0 0 1-4.899-4A5 5 0 0 0 27 17h19v-2H27.438z" fill="#172c61"></path><path d="m46 17 4 3.2v-5.605a9.262 9.262 0 0 0-9.262-9.262h-8.463c-.041.027-.078.059-.118.087A14.23 14.23 0 0 0 30.218 7H41a5 5 0 0 1 5 5z" fill="#13244f"></path><path d="M38 37H13a1 1 0 0 1-1-1V22a1 1 0 0 1 1-1h25a1 1 0 0 1 1 1v14a1 1 0 0 1-1 1zM29.379 18.515A2.001 2.001 0 0 0 27.438 17H22.562a2 2 0 0 0-1.94 1.515L20 21h10z" fill="#606060"></path><path d="m35.818 54.313-3.335-12.62a2.992 2.992 0 0 1 .761-2.938 2.99 2.99 0 0 0 .861-1.818l.603-6.025A2.647 2.647 0 0 0 32.074 28H32l-14 1h-.734a2 2 0 0 0-1.985 2.248l.586 4.69a2 2 0 0 0 1.09 1.541l3.206 1.603a8.697 8.697 0 0 1 3.068 2.561 12.352 12.352 0 0 1 2.28 5.259L28 62h23v-6z" fill="#fce0b9"></path><path d="M25 36a7 7 0 1 0 0-14 7 7 0 0 0 0 14zm0-10a3 3 0 1 1 0 6 3 3 0 0 1 0-6z" fill="#606060"></path><circle cx="25" cy="29" fill="#71caf0" r="3"></circle><circle cx="26" cy="29" fill="#ffffff" r="1"></circle><path d="M16 37a4 4 0 0 1-4-4c1.381 0 1-1.119 1-2.5V21h2v-1.265a2 2 0 0 0-1.717-1.98l-3.856-.551a2 2 0 0 0-2.072 1.085l-2.144 4.288a2.003 2.003 0 0 0-.211.895v12.457c0 1.326.527 2.598 1.464 3.536l3.071 3.071A4.997 4.997 0 0 1 11 46.071V62h11z" fill="#fce0b9"></path><path d="M25 20a9 9 0 0 0-9 9c0 .149.015.293.022.44a1.98 1.98 0 0 1 1.243-.44H18a7 7 0 0 1 7-7c3.527 0 6.437 2.612 6.921 6.006L32 28h.074c.761 0 1.437.323 1.918.83C33.9 23.939 29.913 20 25 20z" fill="#454545"></path><path d="M23 13a5 5 0 0 1 5-5h14a4.96 4.96 0 0 1 2.988 1.012C44.075 7.797 42.636 7 41 7H27a5 5 0 0 0-5 5c0 1.636.797 3.075 2.012 3.988A4.96 4.96 0 0 1 23 13z" fill="#21408c"></path><path d="M50 52h2v10h-2z" fill="#cfb259"></path><g fill="#fad3ac"><path d="M10 21h3v2h-3zM10 25h3v2h-3zM10 29h3v2h-3z" fill="#fad3ac"></path></g></g></svg>