<svg id="Flat" height="512" viewBox="0 0 64 64" width="512" xmlns="http://www.w3.org/2000/svg"><path d="m3 21h58a0 0 0 0 1 0 0v38a2 2 0 0 1 -2 2h-54a2 2 0 0 1 -2-2v-38a0 0 0 0 1 0 0z" fill="#fafaff"/><path d="m6 21h55a0 0 0 0 1 0 0v38a2 2 0 0 1 -2 2h-51a2 2 0 0 1 -2-2v-38a0 0 0 0 1 0 0z" fill="#f3f3ff"/><path d="m3 21h58v2.5h-58z" fill="#f3f3ff"/><path d="m6 21h55v2.5h-55z" fill="#e6e6ff"/><rect fill="#fb7d8c" height="12" rx="2" width="62" x="1" y="9"/><path d="m6 11.5a2 2 0 0 0 -2 2v7.5h57a2 2 0 0 0 2-2v-7.5z" fill="#fa5a69"/><g fill="#5a5a63"><path d="m32 2.25a2.752 2.752 0 0 0 -2.75 2.75v4h1.5v-4a1.25 1.25 0 0 1 2.5 0v8a1.252 1.252 0 0 1 -1.25 1.25.75.75 0 0 0 0 1.5 2.752 2.752 0 0 0 2.75-2.75v-8a2.752 2.752 0 0 0 -2.75-2.75z"/><path d="m56 2.25a2.752 2.752 0 0 0 -2.75 2.75v4h1.5v-4a1.25 1.25 0 0 1 2.5 0v8a1.252 1.252 0 0 1 -1.25 1.25.75.75 0 0 0 0 1.5 2.752 2.752 0 0 0 2.75-2.75v-8a2.752 2.752 0 0 0 -2.75-2.75z"/><path d="m44 2.25a2.752 2.752 0 0 0 -2.75 2.75v4h1.5v-4a1.25 1.25 0 0 1 2.5 0v8a1.252 1.252 0 0 1 -1.25 1.25.75.75 0 0 0 0 1.5 2.752 2.752 0 0 0 2.75-2.75v-8a2.752 2.752 0 0 0 -2.75-2.75z"/><path d="m8 2.25a2.752 2.752 0 0 0 -2.75 2.75v4h1.5v-4a1.25 1.25 0 0 1 2.5 0v8a1.252 1.252 0 0 1 -1.25 1.25.75.75 0 0 0 0 1.5 2.752 2.752 0 0 0 2.75-2.75v-8a2.752 2.752 0 0 0 -2.75-2.75z"/><path d="m20 2.25a2.752 2.752 0 0 0 -2.75 2.75v4h1.5v-4a1.25 1.25 0 0 1 2.5 0v8a1.252 1.252 0 0 1 -1.25 1.25.75.75 0 0 0 0 1.5 2.752 2.752 0 0 0 2.75-2.75v-8a2.752 2.752 0 0 0 -2.75-2.75z"/></g><path d="m51 50.005h-8a1.5 1.5 0 0 1 -1.5-1.5v-16a1.5 1.5 0 1 1 3 0v14.5h6.5a1.5 1.5 0 0 1 0 3z" fill="#6b6b73"/><path d="m51 47.005h-6.5v-14.5a1.484 1.484 0 0 0 -.091-.5 1.5 1.5 0 0 0 -1.409 1.495v16a1.488 1.488 0 0 0 .093.505h7.907a1.5 1.5 0 0 0 0-3z" fill="#5a5a63"/><path d="m17 50a5.506 5.506 0 0 1 -5.5-5.5 1.5 1.5 0 0 1 3 0 2.5 2.5 0 0 0 5 0v-12a1.5 1.5 0 0 1 3 0v12a5.506 5.506 0 0 1 -5.5 5.5z" fill="#6b6b73"/><path d="m14.5 44.5a1.493 1.493 0 0 0 -.75-1.292 1.493 1.493 0 0 0 -.75 1.292 5.5 5.5 0 0 0 4.75 5.443 5.5 5.5 0 0 0 4.75-5.443v-12a1.493 1.493 0 0 0 -.75-1.292 1.493 1.493 0 0 0 -.75 1.292v12c.033 2.423-2.275 2.753-4 2.5a2.5 2.5 0 0 1 -2.5-2.5z" fill="#5a5a63"/><path d="m29.5 32.5a1.5 1.5 0 0 0 -3 0v12a5.5 5.5 0 0 0 11 0v-12a1.5 1.5 0 0 0 -3 0v12a2.5 2.5 0 0 1 -5 0z" fill="#6b6b73"/><path d="m29.5 44.5v-12a1.483 1.483 0 0 0 -.089-.491 1.5 1.5 0 0 0 -1.411 1.491v11a5.5 5.5 0 0 0 4.75 5.443 5.5 5.5 0 0 0 4.75-5.443v-12a1.483 1.483 0 0 0 -.089-.491 1.5 1.5 0 0 0 -1.411 1.491v11c.033 1.9-1.418 2.736-4 2.5a2.5 2.5 0 0 1 -2.5-2.5z" fill="#5a5a63"/></svg>