<svg viewBox="0 0 512 512" xmlns="http://www.w3.org/2000/svg"><g><path d="m117.43 512 15.053-101.071 46.343-26.126 26.773 26.126L155.063 512z" fill="#575c62"></path><path d="M170.116 410.929 138.935 512h16.128l50.536-101.071zM394.571 512l-15.053-101.071-46.634-34.358-26.481 34.358L356.938 512z" fill="#2a292f"></path><path d="M341.885 410.929 373.066 512h-16.128l-50.535-101.071z" fill="#575c62"></path><path d="M274.273 119.368a7.72 7.72 0 0 1-6.307-12.161L341.082 3.278a7.72 7.72 0 0 1 12.627 8.883L280.593 116.09a7.714 7.714 0 0 1-6.32 3.278zM239.879 119.368a7.71 7.71 0 0 1-6.32-3.278L160.444 12.161a7.72 7.72 0 0 1 12.627-8.883l73.116 103.929a7.72 7.72 0 0 1-6.308 12.161z" fill="#777e84"></path><path d="M479.002 410.929H32.998c-9.857 0-17.848-7.991-17.848-17.848V119.112c0-9.857 7.991-17.848 17.848-17.848h446.004c9.857 0 17.848 7.991 17.848 17.848V393.08c.001 9.858-7.99 17.849-17.848 17.849z" fill="#aa5d29"></path><path d="M101.937 384.803c-35.789 0-64.907-29.117-64.907-64.907V192.395c0-35.789 29.117-64.907 64.907-64.907h230.947c35.79 0 64.907 29.118 64.907 64.907v127.503c0 35.789-29.117 64.907-64.907 64.907H101.937v-.002z" fill="#874c23"></path><path d="M332.884 135.721H101.938c-31.3 0-56.674 25.374-56.674 56.674v127.503c0 31.3 25.374 56.674 56.674 56.674h230.946c31.3 0 56.674-25.374 56.674-56.674V192.395c0-31.301-25.373-56.674-56.674-56.674z" fill="#3da1b8"></path><path d="M372.312 192.406v127.479c0 21.762-17.633 39.482-39.397 39.482H101.957c-21.763 0-39.482-17.72-39.482-39.482V192.406c0-21.763 17.72-39.482 39.482-39.482h230.958c21.764 0 39.397 17.72 39.397 39.482z" fill="#75d4fe"></path><path d="M463.89 318.799h-40.137a7.72 7.72 0 0 1 0-15.438h40.137a7.72 7.72 0 0 1 0 15.438zM463.89 286.381h-40.137a7.72 7.72 0 0 1 0-15.438h40.137a7.72 7.72 0 0 1 0 15.438zM463.89 351.217h-40.137a7.72 7.72 0 0 1 0-15.438h40.137a7.72 7.72 0 0 1 0 15.438z" fill="#2a292f"></path><path d="M88.717 319.885V192.406c0-21.762 17.72-39.483 39.482-39.483h-26.241c-21.763 0-39.482 17.72-39.482 39.483v127.479c0 21.762 17.72 39.482 39.482 39.482H128.2c-21.763 0-39.483-17.72-39.483-39.482z" fill="#55c0e5"></path><path d="M346.07 319.885V192.406c0-21.762-17.72-39.483-39.482-39.483h26.242c21.763 0 39.482 17.72 39.482 39.483v127.479c0 21.762-17.72 39.482-39.482 39.482h-26.242c21.762 0 39.482-17.72 39.482-39.482z" fill="#9de3fc"></path><path d="M475.727 202.505c0 17.619-14.285 31.903-31.903 31.903-17.619 0-31.903-14.285-31.903-31.903s14.285-31.903 31.903-31.903c6.01 0 11.629 1.657 16.425 4.559a31.856 31.856 0 0 1 10.919 10.919c2.902 4.796 4.559 10.415 4.559 16.425z" fill="#e8e8ea"></path><path d="m471.167 186.08-12.422 12.422a7.698 7.698 0 0 1-5.465 2.264 7.655 7.655 0 0 1-5.454-2.264 7.721 7.721 0 0 1 0-10.919l12.422-12.422a31.856 31.856 0 0 1 10.919 10.919z" fill="#b9b9ba"></path></g></svg>