<svg viewBox="0 0 464 464" xmlns="http://www.w3.org/2000/svg"><g><path d="M220.258 268.273a112.2 112.2 0 0 0 2.277-10.992c.2-1.25.41-2.488.57-3.746.16-1.254.301-2.71.415-4.07.28-3.121.48-6.266.48-9.465 0-2.207-.207-4.367-.328-6.543-3.3-56.637-48.492-101.828-105.129-105.129-2.176-.121-4.336-.328-6.543-.328a111.794 111.794 0 0 0-28.273 3.742 111.686 111.686 0 0 0-46.832 25.336c-.454.418-.91.8-1.368 1.25a107.997 107.997 0 0 0-5.101 5.086c-.61.656-1.203 1.32-1.801 1.984-1.504 1.692-2.992 3.387-4.395 5.16-.644.801-1.246 1.665-1.87 2.505-1.305 1.738-2.618 3.464-3.817 5.28-.559.84-1.04 1.735-1.598 2.595a105.805 105.805 0 0 0-5.16 9.23c-.8 1.664-1.68 3.32-2.402 5.039-.59 1.36-1.11 2.754-1.656 4.145-.704 1.816-1.391 3.632-2.008 5.488a106.167 106.167 0 0 0-1.262 4.152c-.578 1.977-1.09 4-1.555 6.008-.3 1.336-.605 2.664-.863 4-.43 2.273-.758 4.574-1.047 6.895-.152 1.16-.336 2.296-.449 3.464C.207 232.871 0 236.406 0 240c.031 55.64 40.926 102.809 96 110.727V384H72c-8.836 0-16 7.164-16 16s7.164 16 16 16h24v32c0 8.836 7.164 16 16 16s16-7.164 16-16v-32h24c8.836 0 16-7.164 16-16s-7.164-16-16-16h-24v-33.223c1.672-.242 3.344-.496 4.992-.8 1.344-.258 2.672-.563 4-.864 2.024-.465 4-.976 6.008-1.554 1.398-.399 2.777-.797 4.152-1.262 1.856-.617 3.672-1.305 5.489-2.008 1.39-.547 2.785-1.066 4.144-1.656 1.719-.754 3.375-1.602 5.04-2.403 3.198-1.597 6.304-3.335 9.32-5.214.8-.512 1.687-.977 2.503-1.52 1.817-1.2 3.543-2.512 5.29-3.816.796-.625 1.68-1.223 2.496-1.871 1.773-1.403 3.468-2.887 5.16-4.395.664-.598 1.328-1.191 1.98-1.797a116.176 116.176 0 0 0 5.09-5.105c.426-.457.8-.91 1.246-1.367a111.654 111.654 0 0 0 25.348-46.872zM32 240c0-2.48.152-4.93.367-7.36.074-.718.16-1.433.25-2.144.207-1.785.473-3.55.797-5.297.129-.687.25-1.383.395-2.07.496-2.305 1.062-4.594 1.75-6.816.074-.235.168-.458.242-.688a72.654 72.654 0 0 1 3.094-8.04 82.323 82.323 0 0 1 2.09-4.347c.359-.687.71-1.39 1.085-2.062a80.557 80.557 0 0 1 3.434-5.664c.328-.489.695-.946 1.031-1.414.977-1.399 2-2.75 3.067-4.051a84.86 84.86 0 0 1 4.597-5.223c.64-.672 1.274-1.36 1.946-2.008a64.73 64.73 0 0 1 4.44-4c.743-.625 1.513-1.199 2.278-1.793a87.463 87.463 0 0 1 3.32-2.488 103.22 103.22 0 0 1 2.641-1.758c1.067-.672 2.133-1.32 3.2-1.945.906-.527 1.8-1.062 2.73-1.55 1.82-.962 3.68-1.868 5.598-2.688a79.992 79.992 0 0 1 79.003 9.004 79.99 79.99 0 0 1 32.211 72.699c0 .328-.109.64-.14.96-.281 2.4-.633 4.798-1.121 7.141 0 .122-.067.235-.09.356a79.896 79.896 0 0 1-4.8 14.933c-.798 1.907-1.727 3.762-2.688 5.602-.489.926-1.024 1.816-1.543 2.719a156.077 156.077 0 0 1-1.954 3.199c-.574.89-1.16 1.777-1.757 2.64a59.252 59.252 0 0 1-2.489 3.321c-.593.762-1.168 1.535-1.793 2.273a101.61 101.61 0 0 1-4 4.454c-.648.664-1.328 1.289-2 1.93a88.338 88.338 0 0 1-3.093 2.823c-.707.598-1.41 1.2-2.13 1.778a68.057 68.057 0 0 1-4.073 3.039c-.47.336-.918.695-1.399 1.015a68.139 68.139 0 0 1-5.664 3.442c-.672.383-1.375.726-2.062 1.086a87.011 87.011 0 0 1-4.344 2.09c-.715.316-1.426.636-2.153.933-1.93.801-3.89 1.52-5.89 2.16-.23.075-.453.168-.688.243-2.23.687-4.511 1.254-6.816 1.75-.688.144-1.383.265-2.07.39a76.202 76.202 0 0 1-5.297.801c-.711.09-1.422.176-2.145.25-2.398.215-4.879.367-7.36.367C67.825 319.996 32.005 284.184 32 240zm0 0" fill="#eb3936"></path><path d="M336 0h-64c-8.836 0-16 7.164-16 16s7.164 16 16 16h25.375l-38.977 37.93c-38.453-28.422-90.714-29.274-130.078-2.121C88.96 94.96 71.195 144.12 84.105 190.16c12.91 46.043 53.645 78.797 101.383 81.528A79.622 79.622 0 0 0 192 240c-41.035.008-75.426-31.031-79.602-71.855-4.18-40.825 23.211-78.188 63.399-86.489 40.183-8.304 80.137 15.145 92.48 54.281s-6.925 81.262-44.605 97.52c.121 2.176.328 4.336.328 6.543a111.794 111.794 0 0 1-3.742 28.273 111.727 111.727 0 0 0 77.336-70.882A111.71 111.71 0 0 0 282.07 93.64L320 54.625V80c0 8.836 7.164 16 16 16s16-7.164 16-16V16c0-8.836-7.164-16-16-16zm0 0" fill="#eca518"></path></g></svg>