<svg viewBox="0 0 512 512" xmlns="http://www.w3.org/2000/svg"><g><path d="M256 152a8.002 8.002 0 0 1-6.074-2.793l-96-112a8.001 8.001 0 0 1 12.148-10.413l89.783 104.748 65.951-80.607a8 8 0 1 1 12.383 10.132l-72 88a8.003 8.003 0 0 1-6.1 2.934L256 152z" fill="#645ba5"></path><path d="M464 104h-64a8 8 0 0 0-8 8v32a8 8 0 0 0 8 8h64a8 8 0 0 0 8-8v-32a8 8 0 0 0-8-8z" fill="#b6b3c6"></path><path d="M408 144v-32a8 8 0 0 1 8-8h-16a8 8 0 0 0-8 8v32a8 8 0 0 0 8 8h16a8 8 0 0 1-8-8z" fill="#a4a0b8"></path><path d="M96 440H48a8 8 0 0 0-8 8v32a8 8 0 0 0 8 8h48a8 8 0 0 0 8-8v-32a8 8 0 0 0-8-8z" fill="#645ba5"></path><path d="M56 480v-32a8 8 0 0 1 8-8H48a8 8 0 0 0-8 8v32a8 8 0 0 0 8 8h16a8 8 0 0 1-8-8z" fill="#494170"></path><path d="M464 440h-48a8 8 0 0 0-8 8v32a8 8 0 0 0 8 8h48a8 8 0 0 0 8-8v-32a8 8 0 0 0-8-8z" fill="#645ba5"></path><path d="M424 480v-32a8 8 0 0 1 8-8h-16a8 8 0 0 0-8 8v32a8 8 0 0 0 8 8h16a8 8 0 0 1-8-8z" fill="#494170"></path><path d="M504 136H8a8 8 0 0 0-8 8v304a8 8 0 0 0 8 8h496a8 8 0 0 0 8-8V144a8 8 0 0 0-8-8z" fill="#e26161"></path><path d="M24 440a8 8 0 0 1-8-8V136H8a8 8 0 0 0-8 8v304a8 8 0 0 0 8 8h496a8 8 0 0 0 8-8v-8H24z" fill="#d65151"></path><path d="M264 176h208v56H264z" fill="#c8c6d4"></path><path d="M280 192h176v24H280z" fill="#edecf1"></path><path d="M416 216a8 8 0 0 1-8-8v-32a8 8 0 0 1 16 0v32a8 8 0 0 1-8 8z" fill="#645ba5"></path><path d="M472 240H264a8 8 0 0 1-8-8v-56a8 8 0 0 1 8-8h208a8 8 0 0 1 8 8v56a8 8 0 0 1-8 8zm-200-16h192v-40H272v40z" fill="#d65151"></path><path d="M232 328H40a8 8 0 0 1 0-16h192a8 8 0 0 1 0 16zM224 352H48a8 8 0 0 1 0-16h176a8 8 0 0 1 0 16zM216 376H56a8 8 0 0 1 0-16h160a8 8 0 0 1 0 16zM192 400H80a8 8 0 0 1 0-16h112a8 8 0 0 1 0 16zM152 424h-32a8 8 0 0 1 0-16h32a8 8 0 0 1 0 16zM224 304H48a8 8 0 0 1 0-16h176a8 8 0 0 1 0 16zM216 280H56a8 8 0 0 1 0-16h160a8 8 0 0 1 0 16zM192 256H80a8 8 0 0 1 0-16h112a8 8 0 0 1 0 16zM152 232h-32a8 8 0 0 1 0-16h32a8 8 0 0 1 0 16z" fill="#645ba5"></path><path d="M232 168H40a8 8 0 0 0-8 8v24a8 8 0 0 0 8 8h192a8 8 0 0 0 8-8v-24a8 8 0 0 0-8-8z" fill="#d65151"></path><path d="M48 184h176v8H48z" fill="#edecf1"></path><path d="M328 328a8 8 0 0 1-8-8v-56a8 8 0 0 1 16 0v56a8 8 0 0 1-8 8z" fill="#645ba5"></path><path d="M336 296h-16a8 8 0 0 1 0-16h16a8 8 0 0 1 0 16zM376 328a8 8 0 0 1-8-8v-56a8 8 0 0 1 16 0v56a8 8 0 0 1-8 8z" fill="#645ba5"></path><path d="M384 312h-16a8 8 0 0 1 0-16h16a8 8 0 0 1 0 16zM424 328a8 8 0 0 1-8-8v-56a8 8 0 0 1 16 0v56a8 8 0 0 1-8 8z" fill="#645ba5"></path><path d="M432 288h-16a8 8 0 0 1 0-16h16a8 8 0 0 1 0 16z" fill="#645ba5"></path><path d="M424 344c-22.056 0-40 17.944-40 40s17.944 40 40 40 40-17.944 40-40-17.944-40-40-40z" fill="#d65151"></path><path d="M424 352c-17.645 0-32 14.355-32 32s14.355 32 32 32 32-14.355 32-32-14.355-32-32-32z" fill="#9be8e8"></path><path d="m440.242 356.444-21.899 21.899c-2.888 2.888-3.104 7.636-.491 10.775 2.969 3.567 8.524 3.819 11.805.539l21.898-21.899a32.228 32.228 0 0 0-11.313-11.314z" fill="#73bfbf"></path><path d="M328 344c-22.056 0-40 17.944-40 40s17.944 40 40 40 40-17.944 40-40-17.944-40-40-40z" fill="#d65151"></path><path d="M328 352c-17.645 0-32 14.355-32 32s14.355 32 32 32 32-14.355 32-32-14.355-32-32-32z" fill="#9be8e8"></path><path d="M328 376h-30.987c-.661 2.558-1.013 5.239-1.013 8s.352 5.442 1.013 8H328a8 8 0 0 0 0-16z" fill="#73bfbf"></path></g></svg>