<svg viewBox="0 0 512 512" xmlns="http://www.w3.org/2000/svg"><g><path d="M256 512c-1.341 0-2.682-.18-3.986-.539-67.727-18.668-121.026-46.903-158.418-83.921C52.061 386.42 31 335.435 31 276V80a15 15 0 0 1 10.565-14.329l210-65a14.99 14.99 0 0 1 8.871 0l210 65A15 15 0 0 1 481 80v196c0 59.435-21.061 110.42-62.597 151.54-37.392 37.018-90.691 65.253-158.417 83.921A15.018 15.018 0 0 1 256 512z" fill="#fff5f5"></path><path d="M418.403 427.54C459.939 386.42 481 335.435 481 276V80a15 15 0 0 0-10.564-14.329l-210-65A15.017 15.017 0 0 0 256 0v512c1.341 0 2.682-.18 3.986-.539 67.726-18.668 121.026-46.903 158.417-83.921z" fill="#beebfa"></path><path d="M61 91.059V276c0 123.546 105.073 179.865 195 205.424C345.927 455.865 451 399.545 451 276V91.059L256 30.702z" fill="#9ee2f8"></path><path d="M451 276V91.059L256 30.702v450.722C345.927 455.865 451 399.545 451 276z" fill="#6aa9ff"></path><path d="M365.186 364.949H146.815c-16.086 0-30.572-8.27-38.75-22.123-8.178-13.852-8.421-30.531-.651-44.616l109.185-197.898C224.636 85.746 239.365 77.05 256 77.05c16.636 0 31.365 8.696 39.401 23.262L404.586 298.21c7.771 14.083 7.528 30.763-.649 44.615s-22.665 22.124-38.751 22.124z" fill="#8989a5"></path><path d="M365.186 364.949c16.087 0 30.573-8.271 38.751-22.123s8.421-30.532.649-44.615L295.401 100.313C287.365 85.747 272.636 77.051 256 77.051v287.898z" fill="#616173"></path><path d="M256 107.051c-2.663 0-9.272.755-13.134 7.754L133.681 312.703c-3.733 6.767-1.092 12.655.217 14.872s5.188 7.374 12.917 7.374h218.371c7.729 0 11.608-5.157 12.917-7.375 1.309-2.217 3.95-8.104.216-14.871L269.134 114.805c-3.862-6.999-10.471-7.754-13.134-7.754z" fill="#fff36c"></path><path d="M365.186 334.949c7.729 0 11.608-5.157 12.917-7.375 1.309-2.217 3.95-8.104.216-14.871L269.134 114.805c-3.861-6.999-10.471-7.754-13.134-7.754v227.898z" fill="#ffda44"></path><path d="M256 254.949c-8.284 0-15-6.716-15-15v-65c0-8.284 6.716-15 15-15s15 6.716 15 15v65c0 8.284-6.716 15-15 15z" fill="#8989a5"></path><path d="M271 239.949v-65c0-8.284-6.716-15-15-15v95c8.284 0 15-6.716 15-15z" fill="#616173"></path><path d="M271 289.949c0 8.284-6.716 15-15 15s-15-6.716-15-15 6.716-15 15-15 15 6.716 15 15z" fill="#8989a5"></path><path d="M256 274.949v30c8.284 0 15-6.716 15-15s-6.716-15-15-15z" fill="#616173"></path></g></svg>