<svg viewBox="0 0 504.5 504.5" xmlns="http://www.w3.org/2000/svg"><g><path d="M368.884 125.18c.078-5.46.046-11.054-.115-16.757-.067-2.363-10.155-4.745-10.268-7.145-.124-2.668 9.722-5.357 9.538-8.065-.401-5.91-.947-11.91-1.655-17.977-.294-2.521-10.617-5.053-10.968-7.595-.352-2.542 9.267-5.094 8.856-7.654a340.39 340.39 0 0 0-3.208-17.164c-.62-2.897-11.281-5.8-11.986-8.705-.552-2.275 8.87-4.551 8.264-6.828a302.313 302.313 0 0 0-7.544-24.258A4.598 4.598 0 0 0 345.466 0h-110.52c-1.786 0-3.45.899-4.426 2.394a311.08 311.08 0 0 0-2.797 4.34c-30.999 49.404-36.842 110.409-17.537 165.446 5.978 17.044 13.945 34.621 24.556 50.877C274.604 284.121 344.998 497 344.998 497c14.109-86.602 8.451-157.605-2.46-214.741l8.134 9.523s-5.862-45.207 5.41-77.614c3.279-9.428 6.784-24.062 9.302-42.237.26-1.879-9.49-3.795-9.252-5.747.364-2.991 10.701-6.066 11.005-9.219.518-5.378.941-10.983 1.246-16.781.114-2.17-9.789-4.367-9.71-6.589.099-2.767 10.17-5.573 10.211-8.415z" fill="#e4fbff"></path><path d="m344.998 497-29.921-132.853a432.6 432.6 0 0 0-66.23-151.022l-46.031-67.926s6.482 54.958-7.088 93.972a364.473 364.473 0 0 1-2.123 5.91c-.871 2.369 8.17 4.934 7.139 7.681-1.014 2.702-12.098 5.58-13.236 8.623-2.35 6.285-4.93 13.272-7.6 20.854-.738 2.096 8.516 4.238 7.767 6.423-.927 2.702-11.86 5.471-12.794 8.301a639.048 639.048 0 0 0-6.937 22.352c-.714 2.462 8.581 4.957 7.887 7.481-.767 2.79-11.521 5.617-12.258 8.477a483.58 483.58 0 0 0-5.459 23.556c-.542 2.644 8.937 5.308 8.439 7.99-.445 2.397-10.872 4.81-11.278 7.234-1.688 10.075-3.024 20.376-3.883 30.805-.17 2.066 9.68 4.133 9.549 6.205-.185 2.932-10.33 5.87-10.434 8.823a284.561 284.561 0 0 0 .236 25.788c.146 2.624 4.32 5.248 4.546 7.871.211 2.446-3.529 4.889-3.245 7.332 1.416 12.15 3.748 24.242 7.214 36.124" fill="#e4fbff"></path><path d="M315.077 364.147a432.6 432.6 0 0 0-66.23-151.022l-46.031-67.926s4.137 36.888-1.549 71.47a432.623 432.623 0 0 1 63.81 147.478L294.998 497h50z" fill="#c1eff8"></path><path d="M273.949 279.268a7.5 7.5 0 0 0-7.405-13.045c-23.025 13.072-65.815 15.6-86.636 16.016a776.322 776.322 0 0 0-5.026 14.724c5.551-.166 12.538-.361 16.749-.361 19.602-1.043 58.063-3.565 82.318-17.334zM187.509 261.385c15.837-2.666 53.734-9.559 71.704-16.537 3.454-1.342 5.342-4.96 4.63-8.473a442.093 442.093 0 0 0-2.66-4.368 7.487 7.487 0 0 0-7.4-1.142c-13.951 5.418-42.58 11.055-60.176 14.216-1.728 4.697-3.805 10.171-6.098 16.304zM306.404 359.798a7.501 7.501 0 0 0-6.195-13.661c-40.387 18.315-117.018 14.535-142.093 12.692a427.142 427.142 0 0 0-2.835 15.225c9.264 1.252 25.756 3.203 39.512 3.203 26.354 0 81.68-3.886 111.611-17.459zM189.735 337.459c23.165 0 71.946-6.545 98.297-20.263a7.5 7.5 0 0 0 3.189-10.116 7.498 7.498 0 0 0-10.116-3.189c-31.687 16.496-87.651 16.453-113.162 15.423a551.42 551.42 0 0 0-4.37 15.958c7.168 1.068 16.847 2.187 26.162 2.187zM332.611 442l-3.307-14.682c-28.099 9.024-78.268 19.945-118.715 20.726-20.809.4-45.165-1.191-59.845-2.37.281 5.071.712 10.142 1.301 15.202 13.004 1.067 31.678 2.335 47.248 2.335 33.346-.001 93.653-8.744 133.318-21.211zM323.116 399.839l-3.31-14.698c-27.445 9.15-72.14 21.161-113.342 21.956-21.449.412-43.003-1.147-55.07-2.239-.41 4.983-.707 9.996-.885 15.027 10.562 1.015 27.736 2.378 44.66 2.378 33.78 0 88.708-9.655 127.947-22.424z" fill="#c1eff8"></path><path d="M300.209 346.137c-10.417 4.724-23.249 7.975-36.982 10.172a441.58 441.58 0 0 1 1.85 7.838l1.538 6.83c14.866-2.647 28.984-6.279 39.789-11.179a7.501 7.501 0 0 0-6.195-13.661zM319.805 385.141c-12.68 4.228-29.046 9.064-47.044 13.124l3.14 13.941c16.631-3.504 32.959-7.728 47.215-12.367zM224.092 254.402c13.202-2.858 26.47-6.196 35.12-9.555 3.454-1.342 5.342-4.96 4.63-8.473a449.692 449.692 0 0 0-2.653-4.357l-.007-.012a7.487 7.487 0 0 0-7.4-1.142c-8.784 3.411-23.385 6.909-37.388 9.821a434.246 434.246 0 0 1 7.698 13.718zM273.949 279.268a7.5 7.5 0 0 0-7.405-13.045c-8.445 4.794-19.551 8.166-31.254 10.54a434.374 434.374 0 0 1 6.198 13.963c11.668-2.524 23.119-6.154 32.461-11.458zM330.528 432.751l-1.224-5.434c-12.385 3.977-29.059 8.322-47.296 12.006l3.203 14.22c16.971-3.244 33.461-7.162 47.4-11.544zM291.221 307.081a7.498 7.498 0 0 0-10.116-3.189c-8.719 4.539-19.28 7.82-30.534 10.178a433.342 433.342 0 0 1 4.909 14.598c12.176-3.022 23.646-6.836 32.552-11.472a7.499 7.499 0 0 0 3.189-10.115z" fill="#9ae0ef"></path><path d="M349.799 3.033A4.602 4.602 0 0 0 345.466 0h-30a4.601 4.601 0 0 1 4.332 3.033c31.164 86.983 17.426 179.1 6.284 211.134-4.463 12.832-6.239 27.67-6.757 40.915l31.347 36.7s-5.862-45.207 5.41-77.614c3.279-9.428 6.784-24.062 9.302-42.237.325-2.344-9.367-4.746-9.078-7.204.298-2.53 10.576-5.119 10.83-7.762.518-5.378.941-10.983 1.246-16.781.127-2.419-9.767-4.872-9.683-7.357.085-2.517 10.147-5.067 10.184-7.646.078-5.46.046-11.054-.115-16.757-.067-2.363-10.155-4.745-10.268-7.145-.124-2.668 9.722-5.357 9.538-8.065-.401-5.91-.947-11.91-1.655-17.977-.294-2.515-10.615-5.041-10.966-7.577-.352-2.548 9.266-5.106 8.854-7.672a340.39 340.39 0 0 0-3.208-17.164c-.552-2.583-11.138-5.17-11.758-7.759s8.726-5.181 8.036-7.774a302.293 302.293 0 0 0-7.542-24.258z" fill="#c1eff8"></path><path d="M305.417 139.047c16.544-.521 47.198-.139 62.963 1.137.256-4.871.428-9.878.501-15.003-16.728-1.278-47.083-1.657-63.937-1.126a7.499 7.499 0 0 0-7.26 7.732c.132 4.14 3.634 7.41 7.733 7.26zM361.059 42.825a322.144 322.144 0 0 0-3.718-15.533c-44.077-4.808-111.009.189-113.326.446a7.5 7.5 0 0 0-6.625 8.282c.456 4.116 4.164 7.088 8.281 6.626.571-.064 73.973-5.504 115.388.179zM284.211 91.707a7.5 7.5 0 0 0 .823 14.977c17.967-.987 60.845-1.433 83.731 1.739a385.511 385.511 0 0 0-.73-15.209c-24.712-2.944-65.884-2.492-83.824-1.507zM271.692 74.09c15.763-1.007 65.629-2.008 94.688 1.148a357.559 357.559 0 0 0-2.109-15.25c-29.552-2.719-74.602-2.078-93.535-.868a7.5 7.5 0 1 0 .956 14.97zM367.134 156.964c-16.475-.31-40.974-.359-49.896-.142a7.499 7.499 0 0 0-7.316 7.679c.1 4.141 3.56 7.403 7.68 7.316 8.392-.204 31.664-.165 47.781.113a362.114 362.114 0 0 0 1.751-14.966z" fill="#9ae0ef"></path><path d="M344.998 497s-70.394-212.879-110.256-273.944c-10.611-16.255-18.578-33.833-24.556-50.877-17.225-49.107-14.429-102.967 8.394-149.097 2.756-5.57 9.536-11.345 13.087-6.162 1.616 2.359 65.14 94.917 83.799 160.223S369.594 346.034 344.998 497" fill="#9ae0ef"></path><path d="M328.884 170.473c-10.745-37.608-41.179-88.435-65.061-124.784-17.589-26.771-36.1-38.955-36.1-38.955-3.4 5.285-6.37 10.787-9.126 16.357 23.939 34.671 67.049 101.052 80.286 147.382 15.914 55.7 34.29 144.107 24.092 262.576C336.16 470.274 344.998 497 344.998 497c24.596-150.966 2.545-261.222-16.114-326.527z" fill="#80d8e9"></path><path d="M407.944 504.5H96.556a7.5 7.5 0 0 1 0-15h311.389a7.5 7.5 0 1 1-.001 15z" fill="#5aa0b8"></path><g fill="#80d8e9"><path d="M337.161 156.691a362.518 362.518 0 0 1-1.745 14.997c9.65.005 20.931.086 29.966.242v-.003c.324-2.342.632-4.744.921-7.201l.036-.312c.13-1.116.257-2.243.379-3.381l.04-.376c.129-1.216.255-2.443.374-3.684l.001-.01c-8.89-.166-20.116-.257-29.972-.272zM326.828 25.412a319.979 319.979 0 0 1 3.731 15.113c10.961.353 21.487 1.063 30.499 2.299a327.452 327.452 0 0 0-1.75-7.735l-.018-.074a310.62 310.62 0 0 0-1.95-7.724c-9.412-1.026-19.867-1.605-30.512-1.879zM337.898 91.254c.371 5.076.634 10.086.8 15.019 11.206.351 21.908 1.02 30.066 2.151a385.462 385.462 0 0 0-.73-15.208v-.001c-8.606-1.026-19.212-1.639-30.136-1.961zM334 58.357a356.716 356.716 0 0 1 2.162 15.054c10.954.311 21.52.881 30.218 1.826a366.77 366.77 0 0 0-.965-7.577l-.008-.059a347.501 347.501 0 0 0-1.136-7.613c-9.037-.832-19.525-1.348-30.271-1.631zM368.381 140.183c.256-4.871.428-9.878.501-15.003-7.906-.604-18.857-1.007-29.987-1.208a393.694 393.694 0 0 1-.453 14.991c11.274.199 22.337.605 29.939 1.22zM323.845 155.454a282.873 282.873 0 0 0-5.761-14.008c-27.907 16.726-76.658 35.212-103.506 42.402a251.532 251.532 0 0 0 6.056 13.867c27.816-7.744 74.183-25.333 103.211-42.261zM354.338 414.866c.34-5.354.622-10.644.848-15.868-12.097 3.617-27.844 8.08-40.258 11.547 1.745 4.83 3.44 9.554 5.079 14.148 10.56-2.957 23.317-6.579 34.331-9.827zM203.694 65.282a190.45 190.45 0 0 0-2.951 16.552c25.498-7.626 55.113-17.116 71.407-23.278a1107.326 1107.326 0 0 0-8.328-12.868c-14.474 5.316-38.189 12.94-60.128 19.594zM332.243 182.622c-25.616 14.626-73.679 30.503-99.637 37.083a197.322 197.322 0 0 0 2.136 3.352c1.965 3.01 4.005 6.394 6.106 10.097 27.86-7.298 69.574-21.74 95.232-35.522a697.709 697.709 0 0 0-3.837-15.01zM282.215 74.681c-22.791 12.166-59.664 26.273-83.135 33.622.03 5.155.272 10.315.713 15.468 24.21-7.289 64.954-22.683 90.134-36.216a852.29 852.29 0 0 0-7.712-12.874zM300.767 106.673c-27.251 17.05-73.386 34.948-97.173 42.171a197.592 197.592 0 0 0 3.75 14.531c24.395-7.356 71.236-25.428 100.453-43.43a568.602 568.602 0 0 0-7.03-13.272zM354.866 325.931a724.315 724.315 0 0 0-1.017-15.812c-19.124 7.906-47.253 18.727-67.262 25.033 1.83 4.649 3.651 9.322 5.456 13.999 18.974-6.026 43.971-15.535 62.823-23.22zM355.915 365.069a746.816 746.816 0 0 0-.175-15.891c-15.074 5.586-38.78 13.398-56.557 18.685 1.782 4.723 3.54 9.423 5.27 14.08 16.101-4.811 36.415-11.467 51.462-16.874zM344.974 239.768a683.75 683.75 0 0 0-2.87-15.1c-25.34 11.315-65.839 23.602-90.321 29.445a663.791 663.791 0 0 1 6.541 13.843c24.391-6.016 61.147-17.24 86.65-28.188zM351.003 280.566a701.37 701.37 0 0 0-1.975-15.322c-23.126 9.244-60.004 19.891-80.883 24.882a1322.94 1322.94 0 0 1 5.91 13.999c20.734-5.082 53.756-14.656 76.948-23.559z" fill="#80d8e9"></path></g><path d="m289.923 87.556-.004-.007a862.68 862.68 0 0 0-7.698-12.851l-.01-.017c-6.77 3.614-14.786 7.398-23.321 11.127a758.353 758.353 0 0 1 7.54 13.062c8.556-3.775 16.609-7.614 23.493-11.314zM307.793 119.945a526.723 526.723 0 0 0-3.411-6.545l-.067-.127a606.862 606.862 0 0 0-3.55-6.596l-.002-.004c-6.792 4.25-14.757 8.551-23.257 12.728a453.46 453.46 0 0 1 6.635 13.426c8.533-4.198 16.607-8.541 23.652-12.882zM323.841 155.454l-.001-.004a263.874 263.874 0 0 0-2.73-6.903l-.011-.026a284.708 284.708 0 0 0-1.486-3.544 326.397 326.397 0 0 0-1.52-3.502l-.012-.028c-7.106 4.259-15.566 8.631-24.669 12.903 1.885 4.905 3.533 9.67 4.905 14.253 9.257-4.305 17.979-8.749 25.524-13.149zM324.734 407.792a804.557 804.557 0 0 1-1.017 15.86c9.751-2.743 20.864-5.91 30.617-8.786.162-2.56.31-5.103.446-7.634l.037-.692c.134-2.528.257-5.043.365-7.541-9.077 2.714-20.211 5.905-30.448 8.793zM247.554 67.136c9.566-3.167 18.129-6.136 24.592-8.58a1092.754 1092.754 0 0 0-2.117-3.308l-.001-.001c-.698-1.086-1.392-2.162-2.082-3.228l-.019-.03a1141.155 1141.155 0 0 0-4.11-6.302c-6.6 2.424-15.133 5.33-24.532 8.403 2.713 4.211 5.481 8.575 8.269 13.046zM305.509 195.346a693.121 693.121 0 0 1 3.501 14.838c9.947-4.099 19.253-8.356 27.067-12.553l-.001-.004a705.723 705.723 0 0 0-3.835-15l-.001-.006c-7.396 4.223-16.667 8.548-26.731 12.725zM325.831 375.272c10.563-3.414 21.231-7.024 30.079-10.203v-.017a758.666 758.666 0 0 0-.175-15.874c-8.182 3.032-18.91 6.719-29.851 10.303.042 5.183.015 10.46-.053 15.791zM354.862 325.931v-.003a716.753 716.753 0 0 0-1.017-15.806v-.002a1134.925 1134.925 0 0 1-29.223 11.574c.306 5.163.549 10.43.75 15.766a1141.458 1141.458 0 0 0 29.49-11.529zM350.999 280.566l-.001-.007a700.737 700.737 0 0 0-1.974-15.315c-8.255 3.3-18.264 6.777-28.669 10.113a704.327 704.327 0 0 1 1.731 15.185c10.24-3.24 20.26-6.654 28.913-9.976zM344.97 239.768l-.003-.014a687.5 687.5 0 0 0-2.866-15.077l-.002-.009c-8.093 3.614-17.734 7.326-27.904 10.896a689.58 689.58 0 0 1 2.596 14.969c10.054-3.486 19.735-7.14 28.179-10.765z" fill="#70c5de"></path></g></svg>