<svg viewBox="0 0 512 512" xmlns="http://www.w3.org/2000/svg"><g><path d="M256 95.816a7.725 7.725 0 0 1-7.726-7.726V49.944l15.453-10.302V88.09A7.727 7.727 0 0 1 256 95.816z" fill="#e1dee2"></path><path d="M279.867 82.045A89.732 89.732 0 0 0 256 78.818c-33.818 0-63.256 18.72-78.54 46.358l148.366 10.302c-4.674-20.4-22.776-43.326-45.959-53.433z" fill="#faf8f8"></path><path d="M279.867 82.045c10.965 8.469 19.921 19.414 26.017 32.002 2.491 5.145-1.228 11.128-6.944 11.128H177.459a89.201 89.201 0 0 0-6.739 15.453L256 171.536l85.279-30.907c-9.292-28.432-32.414-50.597-61.412-58.584z" fill="#e1dee2"></path><path d="M69.537 253.951h372.926V418.78H69.537z" fill="#a29aa5"></path><path d="m457.915 274.554-25.754 10.302v103.018l25.754 10.302z" fill="#e1dee2"></path><path d="M432.161 253.951v30.905h15.453v95.292a7.726 7.726 0 0 1-7.726 7.726h-7.726v30.905h30.905V253.951z" fill="#c5bec6"></path><path d="m381.27 274.554-25.754 10.302v103.018l25.754 10.302z" fill="#e1dee2"></path><path d="M355.516 253.951v30.905h15.453v95.292a7.726 7.726 0 0 1-7.726 7.726h-7.726v30.905h30.905V253.951z" fill="#c5bec6"></path><path d="m304.625 274.554-25.755 10.302v103.018l25.755 10.302z" fill="#e1dee2"></path><path d="M309.775 253.951H278.87v30.905h15.453v95.292a7.726 7.726 0 0 1-7.726 7.726h-7.726v30.905h30.905M309.775 418.78V253.951" fill="#c5bec6"></path><path d="m227.979 274.554-25.754 10.302v103.018l25.754 10.302z" fill="#e1dee2"></path><path d="M233.13 253.951h-30.905v30.905h15.453v95.292a7.726 7.726 0 0 1-7.726 7.726h-7.726v30.905h30.905M233.13 418.78V253.951" fill="#c5bec6"></path><path d="m151.334 274.554-25.755 10.302v103.018l25.755 10.302z" fill="#e1dee2"></path><path d="M156.485 253.951H125.58v30.905h15.453v95.292a7.726 7.726 0 0 1-7.726 7.726h-7.726v30.905h30.905M156.485 418.78V253.951" fill="#c5bec6"></path><path d="m74.688 274.554-25.754 10.302v103.018l25.754 10.302z" fill="#e1dee2"></path><path d="M79.839 253.951H48.934v30.905h15.453v95.292a7.726 7.726 0 0 1-7.726 7.726h-7.726v30.905H79.84M79.839 418.78V253.951" fill="#c5bec6"></path><path d="M349.746 140.629H141.65a7.726 7.726 0 0 0-7.726 7.726v7.726l233.851 10.302z" fill="#faf8f8"></path><g fill="#e1dee2"><path d="M370.35 140.629h-20.604v7.726a7.726 7.726 0 0 1-7.726 7.726H133.924v25.755h244.153v-33.481a7.727 7.727 0 0 0-7.727-7.726zM70.558 179.263a7.725 7.725 0 0 1-7.726-7.726v-30.905a7.726 7.726 0 1 1 15.452 0v30.905a7.727 7.727 0 0 1-7.726 7.726zM441.442 179.263a7.725 7.725 0 0 1-7.726-7.726v-30.905a7.726 7.726 0 1 1 15.452 0v30.905a7.725 7.725 0 0 1-7.726 7.726z" fill="#e1dee2"></path></g><path d="M428.565 171.536H62.831a7.726 7.726 0 0 0-7.726 7.726v7.726l391.488 10.302z" fill="#faf8f8"></path><path d="M449.169 171.536h-20.604v7.726a7.726 7.726 0 0 1-7.726 7.726H55.105v25.755h401.79v-33.481a7.727 7.727 0 0 0-7.726-7.726z" fill="#e1dee2"></path><path d="M375.12 238.498 256 207.593l-119.12 30.905L28.811 248.8v7.726a7.726 7.726 0 0 0 7.726 7.726h426.529l10.302-15.453z" fill="#e1dee2"></path><path d="M483.67 223.045 256 202.442 28.811 223.045V248.8h107.082c.655 0 1.307-.083 1.94-.248L256 217.894l118.166 30.658a7.749 7.749 0 0 0 1.94.248h86.96v15.453h12.877a7.726 7.726 0 0 0 7.726-7.726v-33.482z" fill="#c5bec6"></path><path d="m256 194.2 119.12 30.905h106.133l-10.302-22.664H375.12L256 171.536l-119.12 30.905H28.172a7.726 7.726 0 0 0-7.725 7.886v7.566l116.433 7.211z" fill="#faf8f8"></path><path d="M483.828 202.442h-12.877v7.726a7.726 7.726 0 0 1-7.726 7.726h-87.119a7.691 7.691 0 0 1-1.94-.248L257.94 187.492a7.73 7.73 0 0 0-3.881 0l-116.226 30.154a7.749 7.749 0 0 1-1.94.248H20.447v7.886a7.726 7.726 0 0 0 7.725 7.566h107.722c.655 0 1.307-.083 1.94-.248L256 202.442 374.166 233.1a7.749 7.749 0 0 0 1.94.248h107.722a7.727 7.727 0 0 0 7.725-7.566v-15.453a7.726 7.726 0 0 0-7.725-7.887z" fill="#e1dee2"></path><path d="M463.066 408.478H28.33a7.726 7.726 0 0 0-7.726 7.726v7.726l460.491 10.302z" fill="#faf8f8"></path><path d="M483.67 408.478h-20.604v7.726a7.726 7.726 0 0 1-7.726 7.726H20.604v25.755h470.793v-33.481a7.727 7.727 0 0 0-7.727-7.726z" fill="#e1dee2"></path><path d="M473.368 439.383H18.028a7.726 7.726 0 0 0-7.726 7.726v7.726l481.095 10.302z" fill="#faf8f8"></path><path d="M493.972 439.383h-20.604v7.726a7.726 7.726 0 0 1-7.726 7.726H10.302v25.755h491.396v-33.48a7.727 7.727 0 0 0-7.726-7.727z" fill="#e1dee2"></path><path d="M483.67 470.289H7.726A7.726 7.726 0 0 0 0 478.015v7.726l501.698 10.302z" fill="#faf8f8"></path><path d="M504.274 470.289H483.67v7.726a7.726 7.726 0 0 1-7.726 7.726H0v7.726a7.726 7.726 0 0 0 7.726 7.726h496.547a7.726 7.726 0 0 0 7.726-7.726v-15.453a7.724 7.724 0 0 0-7.725-7.725z" fill="#e1dee2"></path><path d="m308.539 43.145-11.59-29.36c-15.123-.703-25.68-4.887-45.593-1.939a3.618 3.618 0 0 0-3.083 3.572v15.983c21.982 0 26.767 11.744 60.266 11.744z" fill="#b3e59f"></path><path d="M296.95 13.785v10.494c0 4.707-4.695 8.314-9.937 7.648-11.266-1.431-21.627-3.552-38.739-.527v18.543c29.13-5.15 38.695 4.613 66.465.5a3.61 3.61 0 0 0 3.073-3.57v-30.31c0-2.175-1.915-3.873-4.07-3.575-6.413.887-11.845 1.027-16.792.797z" fill="#95d6a4"></path></g></svg>