<svg viewBox="0 0 512 512" xmlns="http://www.w3.org/2000/svg"><g><circle cx="95.2" cy="146.1" fill="#ffeae6" r="65.4"></circle><path d="M283 123.4c-9.7 9.7-9.7 25.4 0 35.1l-19.1-19.1c-9.7-9.7-25.4-9.7-35.1 0-9.7 9.7-9.7 25.4 0 35.1l-17.2-17.2c-9.7-9.7-25.4-9.7-35.1 0-9.7 9.7-9.7 25.4 0 35.1l-65.7-65.7c-9.7-9.7-25.4-9.7-35.1 0-9.7 9.7-9.7 25.4 0 35.1l116.4 116.4 9.7 9.7h-39.2c-13.7 0-24.8 11.1-24.8 24.8 0 13.7 11.1 24.8 24.8 24.8l107.6 6.7c13.2.8 25.6 6.4 34.9 15.8l11 11 105.3-105.3-18.4-18.4c-4.7-4.7-8.5-10.2-11.2-16.3L369 179.4c-2.7-6.1-6.5-11.6-11.2-16.3l-25.4-25.4-14.4-14.4c-9.6-9.6-25.3-9.6-35 .1z" fill="#ffccbc"></path><g fill="#fcb39f"><path d="m201.8 287.9 9 9h-67.4c4.6-5.5 11.4-9 19.1-9zM110.7 126.6l106.9 106.9c1.8 1.8 1.8 4.6 0 6.4-1.8 1.8-4.6 1.8-6.4 0L90.8 119.4c.8-.1 1.6-.1 2.4-.1 6.3 0 12.7 2.4 17.5 7.3zM211.5 157.2l47.5 47.5c1.8 1.8 1.8 4.6 0 6.4-1.8 1.8-4.6 1.8-6.4 0l-61-61.1c.8-.1 1.6-.1 2.4-.1 6.3 0 12.7 2.4 17.5 7.3zM263.8 139.3l36.7 36.7c1.8 1.8 1.8 4.6 0 6.4-1.8 1.8-4.6 1.8-6.4 0l-50.2-50.2c.8-.1 1.6-.1 2.4-.1 6.4 0 12.7 2.4 17.5 7.2zM318.1 123.4l23.9 23.9c1.8 1.8 1.8 4.6 0 6.4-1.8 1.8-4.6 1.8-6.4 0l-37.5-37.5c.8-.1 1.6-.1 2.4-.1 6.4 0 12.7 2.4 17.6 7.3z" fill="#fcb39f"></path></g><path d="m308.4 365.9 108.5-108.5c10.6-10.6 27.7-10.6 38.3 0l19.1 19.1c10.6 10.6 10.6 27.7 0 38.3L365.8 423.4c-10.6 10.6-27.7 10.6-38.3 0l-19.1-19.1c-10.6-10.6-10.6-27.8 0-38.4z" fill="#6192ff"></path><path d="M318 413.8 464.7 267l9.6 9.6c10.6 10.6 10.6 27.7 0 38.3L365.8 423.4c-10.6 10.6-27.7 10.6-38.3 0z" fill="#4678fd"></path></g></svg>