<svg viewBox="0 0 512.067 512.067" xmlns="http://www.w3.org/2000/svg"><g><path d="M511.2 194.084c-1.8-6-6.899-9.901-13.2-10.501l-166.7-10.8-61.8-155.4c-2.1-5.4-7.8-8.101-13.5-8.401-6 0-12.001 2.701-14.399 8.401l-61.8 155.4-165.616 10.8c-6.301.601-11.4 4.501-13.5 10.501-1.8 5.7 0 12.299 4.799 16.199l127.517 106.8-41.4 162.001c-1.501 5.7.899 11.999 5.7 15.599 5.099 3.6 11.699 3.9 16.8.601L256 406.183l140.7 89.101c5.4 3.3 12.001 2.999 17.1-.601 4.799-3.6 7.2-9.6 5.7-15.599l-41.4-162.001 128.599-106.8c4.801-3.9 6.601-10.499 4.501-16.199z" fill="#ffda2d"></path><path d="M506.699 210.284 378.1 317.083l41.4 162.001c1.5 5.999-.901 11.999-5.7 15.599-5.099 3.6-11.7 3.9-17.1.601L256 406.183V8.983c5.7.3 11.4 3.001 13.5 8.401l61.8 155.4 166.7 10.8c6.301.601 11.4 4.501 13.2 10.501 2.1 5.699.3 12.298-4.501 16.199z" fill="#fdbf00"></path><path d="M271 488.084c0 8.399-6.599 15-15 15s-15-6.601-15-15c0-8.401 6.599-15 15-15s15 6.599 15 15z" fill="#979fef"></path><circle cx="455.722" cy="342.977" fill="#737ee6" r="15" transform="rotate(-72.002 455.691 342.965)"></circle><circle cx="379.435" cy="108.19" fill="#737ee6" r="15" transform="rotate(-53.999 379.445 108.19)"></circle><circle cx="132.565" cy="108.19" fill="#979fef" r="15" transform="rotate(-36.002 132.559 108.19)"></circle><circle cx="56.278" cy="342.977" fill="#979fef" r="15" transform="rotate(-17.998 56.286 342.996)"></circle><path d="M271 488.084c0 8.399-6.599 15-15 15v-30c8.401 0 15 6.599 15 15z" fill="#737ee6"></path><path d="M357.1 244.184c-1.8-6-7.2-9.901-13.2-10.501l-54.3-3.3-20.099-50.7c-2.1-5.4-7.8-8.099-13.5-8.399-6-.3-12.001 2.399-14.399 8.399l-20.101 50.7-54.3 3.3c-5.999.601-11.4 4.501-13.2 10.501-2.098 5.7 0 12.299 4.501 16.199l42.001 34.801-13.5 52.5c-1.5 5.999.899 12.299 5.7 15.899 5.099 3.6 11.7 3.9 16.8.601l46.5-29.101 45.601 29.101c5.099 3.3 11.699 2.999 16.8-.601 4.799-3.6 7.2-9.901 5.7-15.899l-13.5-52.5 41.7-34.801c4.796-3.9 6.596-10.499 4.796-16.199z" fill="#fdbf00"></path><path d="m352.301 260.383-41.7 34.801 13.5 52.5c1.5 5.999-.901 12.299-5.7 15.899-5.101 3.6-11.7 3.9-16.8.601L256 335.083V171.284c5.7.3 11.4 2.999 13.5 8.399l20.099 50.7 54.3 3.3c6 .601 11.4 4.501 13.2 10.501 1.801 5.7.001 12.299-4.798 16.199z" fill="#ff9100"></path></g></svg>