<svg viewBox="0 0 512 512" xmlns="http://www.w3.org/2000/svg"><g><path d="M12 26h490v271.41H12z" fill="#671c80"></path><path d="M256 26h246v271.41H256z" fill="#471a52"></path><path d="M436.81 317.41H75.19l-14.304-30h390.228z" fill="#471a52"></path><path d="m451.11 287.41-14.3 30H256v-30z" fill="#26072d"></path><path d="M134.95 90.59C88.06 90.59 51.54 48.132 60.98 0h147.95c9.421 48.266-27.188 90.59-73.98 90.59z" fill="#d9215e"></path><path d="M374.75 90.59c-46.736 0-83.499-42.532-74.01-90.59h148.02c9.451 47.803-27.018 90.59-74.01 90.59z" fill="#f23866"></path><path d="M254.85 90.59c-46.919 0-83.405-42.48-73.97-90.59h147.95c9.406 48.19-27.1 90.59-73.98 90.59z" fill="#f23866"></path><path d="M254.85 90.59V0h73.98c9.41 48.19-27.1 90.59-73.98 90.59zM75.19 26v291.41H15c-8.284 0-15-6.716-15-15V26z" fill="#d9215e"></path><path d="M0 89.12V15C0 6.72 6.72 0 15 0h74.11C99.56 53.19 53.35 99.51 0 89.12zM436.81 26v291.41H497c8.284 0 15-6.716 15-15V26z" fill="#f23866"></path><path d="M512 89.12V15c0-8.28-6.72-15-15-15h-74.11C412.44 53.19 458.65 99.51 512 89.12z" fill="#d9215e"></path><circle cx="449.52" cy="391.019" fill="#fdbbab" r="45"></circle><circle cx="322.551" cy="391.019" fill="#a14e3d" r="45"></circle><circle cx="193.52" cy="391.019" fill="#c56d59" r="45"></circle><circle cx="64.489" cy="391.019" fill="#fbcdbe" r="45"></circle><path d="m312.397 161.004-27.277-7.549-15.608-23.609c-5.917-8.952-19.095-8.972-25.025 0l-15.608 23.609-27.277 7.549c-10.345 2.863-14.43 15.391-7.733 23.801l17.63 22.139-1.25 28.274c-.475 10.722 10.174 18.479 20.246 14.71L257 240.002l26.504 9.926c10.031 3.757 20.723-3.945 20.246-14.71l-1.25-28.274 17.63-22.139c6.686-8.395 2.631-20.932-7.733-23.801z" fill="#e7f4fd"></path><path d="m320.13 184.81-17.63 22.13 1.25 28.28c.48 10.76-10.21 18.47-20.25 14.71L257 240V123.12c4.78 0 9.55 2.25 12.51 6.73l15.61 23.61L312.4 161c10.36 2.87 14.42 15.41 7.73 23.81z" fill="#d0e9fb"></path><path d="M2.56 512A2.56 2.56 0 0 1 0 509.44v-23.598c0-35.389 28.102-64.92 63.487-65.46 36.016-.549 65.491 28.589 65.491 64.481V512z" fill="#0bbfb0"></path><path d="M258.009 512H129.031v-26.158c0-35.389 28.102-64.92 63.487-65.46 36.016-.549 65.491 28.589 65.491 64.481z" fill="#fcd65e"></path><path d="M387.04 512H258.062v-26.158c0-35.389 28.102-64.92 63.487-65.46 36.016-.549 65.491 28.589 65.491 64.481z" fill="#f8c14c"></path><path d="M509.52 512H387.04v-25.343c0-34.287 27.227-62.898 61.51-63.421 34.894-.532 63.45 27.698 63.45 62.473v23.811a2.48 2.48 0 0 1-2.48 2.48z" fill="#0bbfb0"></path></g></svg>