<svg viewBox="0 0 512 512" xmlns="http://www.w3.org/2000/svg"><g><path d="M512 256C512 114.615 397.385 0 256 0S0 114.615 0 256c0 3.079.074 6.14.182 9.193l510.983 11.504c.546-6.828.835-13.728.835-20.697z" fill="#7584f2"></path><path d="M512 256c0-8.862-.45-17.618-1.329-26.248L332.416 51.497l-14.247 14.394-16.044 116.053-33.556-32.823-28.498 121.472 271.094 6.103c.546-6.827.835-13.727.835-20.696z" fill="#4253ce"></path><path d="M112.427 467.981C153.371 495.766 202.79 512 256 512c4.214 0 8.404-.102 12.568-.303V149.121H112.427z" fill="#555a66"></path><path d="M196.482 149.121v355.914C215.582 509.583 235.508 512 256 512c4.214 0 8.404-.102 12.568-.303V149.121z" fill="#333940"></path><path d="M382.182 270.316v208.477c73.62-41.786 124.486-119.01 129.418-208.477z" fill="#414952"></path><path d="M451.301 270.316V421.51c34.975-41.232 57.128-93.682 60.299-151.194z" fill="#333940"></path><path d="M250 511.931c1.994.046 3.994.069 6 .069 52.913 0 102.076-16.053 142.885-43.554V236.242H250z" fill="#414952"></path><path d="M398.885 236.242h-73.487v266.229a254.791 254.791 0 0 0 73.487-34.025z" fill="#23272b"></path><path d="M.063 261.731c2.142 97.54 58.845 181.624 140.795 222.965V187.187z" fill="#414952"></path><path d="M62.747 228.543v195.338c21.74 25.001 48.246 45.749 78.111 60.815V187.187z" fill="#23272b"></path><path d="M409.179 168.066c-46.141 0-83.545-37.404-83.545-83.545 0-11.729 2.417-22.894 6.781-33.024-29.717 12.801-50.521 42.353-50.521 76.764 0 46.14 37.404 83.545 83.545 83.545 34.411 0 63.963-20.804 76.764-50.521-10.129 4.363-21.294 6.781-33.024 6.781z" fill="#ffce00"></path><path d="M409.179 168.065c-24.603 0-46.719-10.639-62.007-27.563l-43.74 43.74c15.289 16.924 37.404 27.563 62.007 27.563 34.411 0 63.963-20.804 76.764-50.521-10.129 4.364-21.294 6.781-33.024 6.781zM333.567 270.316h39.736v44.308h-39.736zM333.567 333.882h39.736v44.308h-39.736z" fill="#fdba12"></path><path d="M275.581 270.316h39.736v44.308h-39.736zM275.581 333.882h39.736v44.308h-39.736z" fill="#ffce00"></path><path d="M72.691 282.004h39.736v44.308H72.691zM72.691 345.57h39.736v44.308H72.691zM72.691 434.689a257.805 257.805 0 0 0 20.819 19.13h18.917v-44.308H72.691z" fill="#fdba12"></path><path d="M14.705 282.004h39.736v44.308H14.705zM37.759 389.878h16.682V345.57H16.109a254.975 254.975 0 0 0 21.65 44.308z" fill="#ffce00"></path><path d="M333.567 399.184h39.736v44.308h-39.736zM333.567 500.037a254.44 254.44 0 0 0 39.736-16.435V462.75h-39.736z" fill="#fdba12"></path><path d="M275.581 399.184h39.736v44.308h-39.736zM275.581 507.058h30.726a252.927 252.927 0 0 0 9.01-1.966V462.75h-39.736z" fill="#ffce00"></path><path d="M205.849 176.234h30v318.871h-30z" fill="#fdba12"></path><path d="M160.498 176.234h30v318.871h-30z" fill="#ffce00"></path></g></svg>