<svg viewBox="0 0 512 512" xmlns="http://www.w3.org/2000/svg"><g><path d="M257.418 240.742c-15.089 0-27.322-12.233-27.322-27.322v-11.589c0-26.968 16.982-51.091 42.258-60.028 19.012-6.723 31.264-25.524 29.791-45.722-1.612-22.117-19.519-39.888-41.653-41.337-23.411-1.547-44.269 15.361-47.492 38.461a45.692 45.692 0 0 0-.434 6.29c0 15.089-12.233 27.322-27.322 27.322s-27.322-12.233-27.322-27.322c0-4.626.323-9.283.959-13.841C166.04 34.352 212.241-3.184 264.062.217c49.196 3.222 88.998 42.726 92.582 91.892 3.257 44.685-23.914 86.306-66.075 101.214-3.487 1.233-5.83 4.652-5.83 8.509v11.589c.001 15.089-12.231 27.321-27.321 27.321zM257.418 322.038c-15.089 0-27.322-12.233-27.322-27.322v-.226c0-15.089 12.233-27.322 27.322-27.322s27.322 12.233 27.322 27.322v.226c0 15.09-12.232 27.322-27.322 27.322z" fill="#ffd15b"></path><g fill="#ffc344"><path d="M183.033 85.657a99.683 99.683 0 0 0-.955 13.838c0 10.754 6.209 20.061 15.244 24.51a27.163 27.163 0 0 1-12.078 2.811c-15.08 0-27.321-12.228-27.321-27.321 0-4.626.328-9.28.969-13.838 7.151-51.313 53.36-88.842 105.177-85.444 1.856.123 3.698.3 5.527.532-43.875 5.405-80.272 39.85-86.563 84.912zM296.508 141.801c-25.274 8.939-42.265 33.067-42.265 60.033v11.586c0 10.754 6.223 20.061 15.257 24.51a27.163 27.163 0 0 1-12.078 2.811c-15.094 0-27.321-12.228-27.321-27.321v-11.586c0-26.966 16.977-51.094 42.265-60.033 19.01-6.728 31.252-25.52 29.778-45.717-1.378-18.997-14.78-34.786-32.562-39.767a44.623 44.623 0 0 1 15.066-1.569c22.135 1.447 40.04 19.215 41.651 41.337 1.474 20.196-10.781 38.988-29.791 45.716zM269.5 319.225a27.163 27.163 0 0 1-12.078 2.811c-15.094 0-27.321-12.228-27.321-27.321v-.232c0-15.08 12.228-27.321 27.321-27.321 4.34 0 8.434 1.01 12.078 2.811-9.034 4.463-15.257 13.77-15.257 24.51v.232c0 10.754 6.223 20.061 15.257 24.51z" fill="#ffc344"></path></g><path d="M434.63 512H269.247l-13.569-11.752L242.743 512H77.37l26.96-169.193c5.746-36.091 32.509-64.283 66.603-72.908 1.315 41.848 32.83 76.076 73.477 81.605a85.61 85.61 0 0 0 23.181 0c40.574-5.529 72.038-39.632 73.467-81.366.01-.083.01-.155.01-.238 34.093 8.624 60.846 36.816 66.603 72.908z" fill="#d8ecfe"></path><path d="M173.169 286.827c-16.948 13.552-28.958 33.193-32.582 55.98L113.637 512H77.37l26.96-169.193c5.746-36.091 32.509-64.283 66.603-72.908a84.258 84.258 0 0 0 2.236 16.928z" fill="#c4e2ff"></path><path d="M287.458 493.778 269.247 512h-26.504l-18.211-18.222c-4.752-4.752-6.088-11.948-3.334-18.077l34.797-77.815 34.797 77.815c2.754 6.13 1.419 13.325-3.334 18.077z" fill="#fe9738"></path><path d="m282.613 391.923-13.873 13.873c-7.04 7.04-18.45 7.04-25.49 0l-13.873-13.873c-7.04-7.04-7.04-18.45 0-25.49l13.873-13.873c.373-.373 1.414 1.511 1.808 1.18 3.789.518 7.003-1.449 10.937-1.449s6.285 1.967 10.074 1.449c.393.331 2.298-1.553 2.671-1.18l13.873 13.873c7.04 7.04 7.04 18.449 0 25.49z" fill="#fe9738"></path><g fill="#c4e2ff"><path d="m255.995 352.29-54.903 24.951c-14.122 6.419-30.159-3.903-30.159-19.423v-87.92c1.438 45.752 38.969 82.392 85.062 82.392zM341.057 270.137v87.682c0 15.52-16.037 25.842-30.159 19.423l-54.903-24.951c46.02-.001 83.499-36.517 85.062-82.154z" fill="#c4e2ff"></path></g></g></svg>