<svg viewBox="0 0 512 512" xmlns="http://www.w3.org/2000/svg"><g><path d="m0 63.664 21.213 21.213 27.452-27.452V182.99h15l9.994-91.495L63.665 0z" fill="#e9e2ef"></path><path d="M63.665 0v182.99h15V57.425l27.452 27.452 21.213-21.213z" fill="#c9c8e1"></path><path d="M126.664 388.764 319.332 512l58.706-123.236-58.706-123.235z" fill="#45e6d1"></path><path d="M319.332 265.529V512L512 388.764z" fill="#29cccc"></path><path d="M126.664 300.255 319.332 423.49l47.882-113.938-47.882-132.533z" fill="#feed96"></path><path d="M319.332 177.019V423.49L512 300.255z" fill="#fdda45"></path><path d="m126.664 211.745 192.668 123.236 66.218-123.236L319.332 88.51z" fill="#394072"></path><path d="M319.332 88.51v246.471L512 211.745z" fill="#252c59"></path><path d="m126.664 123.236 192.668 123.235 58.706-123.235L319.332 0z" fill="#b38efa"></path><path d="M319.332 0v246.471L512 123.236z" fill="#a074fa"></path></g></svg>