<svg viewBox="0 0 512 512" xmlns="http://www.w3.org/2000/svg"><g><path d="M170.411 98.304a33.829 33.829 0 0 0-16.811-4.437c0-28.277-22.923-51.2-51.2-51.2s-51.2 22.923-51.2 51.2c-18.851 0-34.133 15.282-34.133 34.133 0 18.851 15.282 34.133 34.133 34.133h53.419L139.802 128l30.609-29.696z" fill="#b0d3f0"></path><path d="M238.933 8.533v35.072c-25.6 17.152-59.733 0-59.733 0V8.533s34.133 17.152 59.733 0z" fill="#2980ba"></path><path d="M179.2 102.4a8.53 8.53 0 0 1-8.534-8.534V8.533a8.533 8.533 0 0 1 17.066 0v85.333a8.53 8.53 0 0 1-8.532 8.534z" fill="#a5a5a4"></path><path d="M409.6 8.533v35.072c-25.6 17.152-59.733 0-59.733 0V8.533s34.133 17.152 59.733 0z" fill="#2980ba"></path><path d="M349.867 102.4a8.53 8.53 0 0 1-8.534-8.534V8.533a8.533 8.533 0 0 1 17.066 0v85.333a8.53 8.53 0 0 1-8.532 8.534z" fill="#a5a5a4"></path><path d="M486.4 469.333h-8.533v-230.4h25.6L354.133 93.867H166.4L17.067 238.933h25.6v230.4h-8.533a8.558 8.558 0 0 0-8.533 8.533v25.6h469.333v-25.6a8.56 8.56 0 0 0-8.534-8.533z" fill="#fdd7ad"></path><path d="M290.133 281.6h187.733v187.733H290.133z" fill="#cbb292"></path><path d="M290.133 238.933h187.733V281.6H290.133z" fill="#7f6e5d"></path><path d="M503.467 238.933H315.733L166.4 93.867h187.733z" fill="#f0785a"></path><path d="M315.733 238.933H17.067L166.4 93.867z" fill="#f09372"></path><path d="M42.667 238.933h247.467V281.6H42.667z" fill="#cbb292"></path><path d="M85.333 315.733h34.133V435.2H85.333zM213.333 315.733h34.133V435.2h-34.133z" fill="#a5a5a4"></path><circle cx="162.133" cy="179.2" fill="#ffffff" r="25.6"></circle><path d="M341.333 332.8c9.426 0 17.067 7.641 17.067 17.067v51.2h-34.133v-51.2c0-9.426 7.641-17.067 17.066-17.067zM426.667 332.8c9.426 0 17.067 7.641 17.067 17.067v51.2H409.6v-51.2c0-9.426 7.641-17.067 17.067-17.067z" fill="#b0d3f0"></path><path d="M307.2 477.867v25.6H25.6v-25.6a8.558 8.558 0 0 1 8.533-8.533h264.533a8.558 8.558 0 0 1 8.534 8.533z" fill="#a5a5a4"></path><path d="M494.933 477.867v25.6H307.2v-25.6a8.558 8.558 0 0 0-8.533-8.533H486.4a8.557 8.557 0 0 1 8.533 8.533z" fill="#5e5f62"></path><path d="M503.467 512H8.533a8.533 8.533 0 0 1 0-17.066h494.933a8.533 8.533 0 0 1 8.533 8.533 8.531 8.531 0 0 1-8.532 8.533z" fill="#bdc3c7"></path><path d="M76.8 281.6H128v25.6a8.533 8.533 0 0 1-8.533 8.533H85.333A8.533 8.533 0 0 1 76.8 307.2v-25.6zM85.333 435.2h34.133a8.533 8.533 0 0 1 8.533 8.533v25.6H76.8v-25.6a8.534 8.534 0 0 1 8.533-8.533zM204.8 281.6H256v25.6a8.533 8.533 0 0 1-8.533 8.533h-34.133a8.533 8.533 0 0 1-8.533-8.533v-25.6zM213.333 435.2h34.133a8.533 8.533 0 0 1 8.533 8.533v25.6h-51.2v-25.6a8.535 8.535 0 0 1 8.534-8.533z" fill="#5e5f62"></path></g></svg>