<svg viewBox="0 0 480 480" xmlns="http://www.w3.org/2000/svg"><g><path d="M80 0C57.84 0 51.547 28 40 48h400c-14.049-24.334-17.84-48-40-48z" fill="#ffb43f"></path><path d="M211 372v88c0 11.08 8.92 20 20 20h18c11.08 0 20-8.92 20-20v-88z" fill="#59586e"></path><path d="M160 425.595c-22.16 0-28.453-28-40-48h240c-14.049 24.334-17.84 48-40 48z" fill="#ffb43f"></path><path d="M40 388h400c22.16 0 40-17.84 40-40V80c0-22.16-17.84-40-40-40H40C17.84 40 0 57.84 0 80v268c0 22.16 17.84 40 40 40z" fill="#59586e"></path><path d="M60 90.008h136c11.08 0 20 8.92 20 20v160c0 11.08-8.92 20-20 20H60c-11.08 0-20-8.92-20-20v-160c0-11.08 8.92-20 20-20zM284 90.008h136c11.08 0 20 8.92 20 20v160c0 11.08-8.92 20-20 20H284c-11.08 0-20-8.92-20-20v-160c0-11.08 8.92-20 20-20z" fill="#ffffff"></path><g fill="#00a1ff"><path d="M128.008 119.063c-31.573 0-41.765 36.625-19.992 36.625L108 220.953h-2.938c-11.049-.01-20.017 8.944-20.008 20.008.006 11.05 8.97 19.999 20.016 19.992h45.883c11.038-.006 19.987-8.955 19.992-19.992-.005-11.038-8.953-19.978-19.992-19.984H148v-81.922c-.006-11.038-8.955-19.987-19.992-19.992zM351.985 119.511c-29.986 0-54.744 24.788-54.744 54.774v31.477c0 29.986 24.759 54.744 54.744 54.744 29.986 0 54.774-24.759 54.774-54.744v-31.477c0-29.986-24.788-54.774-54.774-54.774zm0 40.009c8.517 0 14.764 6.246 14.764 14.764v31.477c0 8.517-6.246 14.734-14.764 14.734s-14.734-6.217-14.734-14.734v-31.477c0-8.517 6.217-14.764 14.734-14.764z" fill="#00a1ff"></path></g></g></svg>