<svg viewBox="0 0 504.054 504.054" xmlns="http://www.w3.org/2000/svg"><g><path d="M466.104 503.444c11.555-.037 17.316-14.009 9.145-22.18L341.406 347.421a85.352 85.352 0 0 1-19.583-30.433l-2.354-6.289a85.352 85.352 0 0 0-19.583-30.433l-80.432-80.432-75.486-75.486c-8.39-8.39-21.992-8.39-30.382 0l-1.953 1.953c-8.39 8.39-8.39 21.992 0 30.382L95.86 140.91c-8.39-8.39-21.992-8.39-30.382 0l-1.953 1.953c-8.39 8.39-8.39 21.992 0 30.382l-1.511-1.51c-8.39-8.388-21.991-8.388-30.38.002l-1.953 1.953c-8.39 8.39-8.39 21.992 0 30.381l9.274 9.274c-8.39-8.39-21.992-8.39-30.382 0l-1.953 1.953c-8.39 8.39-8.39 21.992 0 30.382l83.494 83.494 2.453 2.454a29.498 29.498 0 0 0-30.94-6.86c-7.91 2.88-12.42 10.23-12.42 17.78 0 4.3 1.47 8.66 4.61 12.29l.38.44 40.41 46.64a55.11 55.11 0 0 0 28.09 17.33l62.35 15.82a55.057 55.057 0 0 1 25.4 14.44l18.42 18.42.001-.001 27.079 27.079a30.893 30.893 0 0 0 21.943 9.048z" fill="#ffcebf"></path><circle cx="394.282" cy="109.444" fill="#fe646f" r="101.944"></circle><path d="M394.282 7.5c-32.718 0-61.832 15.415-80.486 39.376 17.272-13.447 38.984-21.459 62.568-21.459 56.302 0 101.944 45.642 101.944 101.944 0 23.585-8.013 45.296-21.459 62.568 23.961-18.654 39.376-47.768 39.376-80.485C496.226 53.142 450.584 7.5 394.282 7.5z" fill="#fd4755"></path><path d="m301.552 328.616 2.354 6.289a85.356 85.356 0 0 0 19.583 30.434l123.08 123.08c4.615 4.615 3.184 12.42-2.768 15.098l22.303-.072c11.555-.037 17.316-14.009 9.145-22.18L341.406 347.421a85.347 85.347 0 0 1-19.583-30.434l-2.354-6.289a85.356 85.356 0 0 0-19.583-30.434l-80.432-80.432-17.917 17.917 80.431 80.432a85.393 85.393 0 0 1 19.584 30.435z" fill="#ffb09e"></path><path d="m126.051 142.265 75.486 75.486 17.917-17.917-75.486-75.486c-8.39-8.39-21.992-8.39-30.382 0l-1.953 1.953a21.348 21.348 0 0 0-5.698 10.266c6.999-1.643 14.658.241 20.116 5.698z" fill="#ffb09e"></path><path d="m187.119 232.169 7.209-7.209z" fill="#ffcebf"></path><g fill="#ffb09e"><path d="M179.331 239.953c-5.514 5.515-14.453 5.522-19.977.016l-81.409-81.142c-5.466-5.456-13.119-7.344-20.124-5.695.889-3.767 2.768-7.334 5.705-10.272l1.948-1.948c8.391-8.391 21.995-8.391 30.385 0l83.47 83.47c4.302 4.299 4.302 11.271.002 15.571zM62.016 171.736c-8.39-8.39-21.992-8.39-30.382 0l-1.953 1.953a21.348 21.348 0 0 0-5.698 10.266c6.999-1.643 14.658.241 20.116 5.698l82.772 82.772c5.521 5.521 14.472 5.521 19.993 0 4.375-4.375 4.375-11.467 0-15.842zM115.164 304.12c-5.487 5.487-14.372 5.526-19.906.086l-74.216-72.948c-5.466-5.456-13.119-7.334-20.124-5.695.889-3.757 2.768-7.334 5.705-10.262l1.948-1.958c8.393-8.383 21.992-8.383 30.385 0l76.207 76.207c4.025 4.023 4.025 10.546.001 14.57z" fill="#ffb09e"></path></g><circle cx="368.829" cy="69.838" fill="#ffeee6" r="24.735"></circle><path d="M368.829 45.103c-11.117 0-20.52 7.334-23.637 17.428a24.647 24.647 0 0 1 9.187-1.77c13.661 0 24.735 11.074 24.735 24.735 0 2.544-.385 4.997-1.098 7.307 9.11-3.648 15.548-12.552 15.548-22.965-.001-13.661-11.075-24.735-24.735-24.735z" fill="#ffdfcf"></path><circle cx="426.873" cy="136.354" fill="#ffeee6" r="30.293"></circle><path d="M426.873 106.061c-13.037 0-24.149 8.237-28.42 19.79a30.22 30.22 0 0 1 10.503-1.873c16.73 0 30.293 13.563 30.293 30.293a30.22 30.22 0 0 1-1.873 10.503c11.553-4.271 19.79-15.383 19.79-28.42 0-16.73-13.563-30.293-30.293-30.293z" fill="#ffdfcf"></path><path d="M123.968 373.628a7.502 7.502 0 0 1-10.61 0l-31.39-31.39c-6.02-6.02-15.08-8.03-23.08-5.12-3.57 1.3-6.16 4.15-7.11 7.82-.95 3.68-.08 7.43 2.41 10.3l.01.04-.38-.44c-3.14-3.63-4.61-7.99-4.61-12.29 0-7.55 4.51-14.9 12.42-17.78a29.498 29.498 0 0 1 30.94 6.86l31.4 31.4c2.93 2.92 2.93 7.67 0 10.6z" fill="#ffb09e"></path><path d="M252.939 276.426a7.474 7.474 0 0 1-5.303-2.197 7.5 7.5 0 0 1 0-10.606l78.9-78.9a7.5 7.5 0 0 1 10.607 10.606l-78.9 78.9a7.478 7.478 0 0 1-5.304 2.197z" fill="#b3dafe"></path><g fill="#fe99a0"><circle cx="252.939" cy="377.281" fill="#fe99a0" r="7.69"></circle><circle cx="289.151" cy="377.281" fill="#fe99a0" r="7.69"></circle><circle cx="182.515" cy="341.087" fill="#fe99a0" r="7.69"></circle><circle cx="216.728" cy="341.087" fill="#fe99a0" r="7.69"></circle><circle cx="252.939" cy="341.087" fill="#fe99a0" r="7.69"></circle><circle cx="289.151" cy="341.087" fill="#fe99a0" r="7.69"></circle><circle cx="182.515" cy="304.894" fill="#fe99a0" r="7.69"></circle><circle cx="216.728" cy="304.894" fill="#fe99a0" r="7.69"></circle><circle cx="252.939" cy="304.894" fill="#fe99a0" r="7.69"></circle></g><circle cx="216.728" cy="268.701" fill="#fe99a0" r="7.69"></circle><circle cx="346.688" cy="144.045" fill="#ffeee6" r="7.69"></circle><circle cx="434.563" cy="66.014" fill="#ffeee6" r="7.69"></circle><path d="M394.282 218.889c-60.348 0-109.444-49.097-109.444-109.444S333.934 0 394.282 0s109.444 49.097 109.444 109.444-49.096 109.445-109.444 109.445zm0-203.889c-52.077 0-94.444 42.368-94.444 94.444s42.367 94.444 94.444 94.444 94.444-42.368 94.444-94.444S446.359 15 394.282 15z" fill="#8ac9fe"></path></g></svg>