<svg height="512" viewBox="0 0 64 64" width="512" xmlns="http://www.w3.org/2000/svg"><g id="Layer_3" data-name="Layer 3"><path d="m60.52356 53.89336a1 1 0 0 1 -1.29607.92051l-14.82756-4.60617a1 1 0 0 1 .02146-1.91637l4.33916-1.24211a1 1 0 0 0 .54009-1.54043l-11.65307-16.40734a1 1 0 0 0 -1.39434-.23624l-13.86 9.84386a1 1 0 0 1 -1.39434-.23624l-17.95054-25.274a1 1 0 0 1 .23624-1.39435l4.07647-2.89526a1 1 0 0 1 1.39435.23624l13.89719 19.567a1 1 0 0 0 1.39434.23624l13.86-9.84386a1 1 0 0 1 1.39435.23624l15.70642 22.11435a1 1 0 0 0 1.63237-.00253l2.60215-3.688a1 1 0 0 1 1.81649.611z" fill="#6d6e71"/></g><g id="Icon"><path d="m60.69727 36.44629a1.98358 1.98358 0 0 0 -2.27247.74219l-2.60156 3.68752-15.70703-22.1133a2.00007 2.00007 0 0 0 -2.78809-.47364l-13.85986 9.84473-13.89746-19.56738a2.005 2.005 0 0 0 -2.78906-.47266l-4.07569 2.89551a2.00968 2.00968 0 0 0 -.47314 2.78906l17.95068 25.27344a2.00067 2.00067 0 0 0 2.78858.47265l13.85983-9.84375 11.65335 16.40723-4.33887 1.24121a2.00056 2.00056 0 0 0 -.043 3.834l14.82617 4.60546a1.999 1.999 0 0 0 2.59277-1.84082l.53516-15.51757a1.98541 1.98541 0 0 0 -1.36031-1.96388z" fill="#e53935"/></g></svg>