<svg viewBox="0 0 58 48" xmlns="http://www.w3.org/2000/svg"><g><g fill="none" fill-rule="nonzero"><path d="M26 31h6v9h-6z" fill="#285680"></path><path d="M58 2v27H0V2a2.006 2.006 0 0 1 2-2h54a2.006 2.006 0 0 1 2 2z" fill="#b0d3f0"></path><path d="M43.68 47.55c-.27.178-.587.271-.91.27a1.7 1.7 0 0 1-.54-.09L29 43l-13.23 4.73a1.653 1.653 0 0 1-1.45-.18 1.616 1.616 0 0 1-.72-1.35 1.6 1.6 0 0 1 .9-1.45L26 39h6l11.5 5.75a1.622 1.622 0 0 1 .18 2.8z" fill="#4482c3"></path><path d="M4 12a1 1 0 0 1-.659-1.752l8-7a1 1 0 1 1 1.318 1.5l-8 7A1 1 0 0 1 4 12zM4 7a1 1 0 0 1-.659-1.752l2-1.75A1 1 0 1 1 6.659 5l-2 1.75A1 1 0 0 1 4 7z" fill="#ffffff"></path><path d="M29 17h11v3a1 1 0 0 0 1.65.76l6.96-5.971a1 1 0 0 0 0-1.58l-6.96-5.971A1 1 0 0 0 40 8v3H18V8a1 1 0 0 0-1.65-.76l-6.96 5.97a1 1 0 0 0 0 1.58l6.96 5.971A1 1 0 0 0 18 20v-3z" fill="#ff5364"></path><path d="M58 28v2a2.006 2.006 0 0 1-2 2H2a2.006 2.006 0 0 1-2-2v-2z" fill="#4482c3"></path></g></g></svg>