<svg viewBox="0 0 468 468" xmlns="http://www.w3.org/2000/svg"><g><path d="M203.143 97.069a5.999 5.999 0 0 0-8.357 1.469c-.531.758-13.137 19.085-24.123 64.542-9.418 38.972-19.365 106.15-15.198 208.67-37.728-52.221-56.507-115.292-65.724-160.855-11.013-54.44-11.158-96.407-11.158-96.825a6 6 0 0 0-12 .002c0 1.745.129 43.371 11.342 98.935 10.377 51.421 32.651 124.615 79.834 181.295 3.604 4.319 10.916 1.5 10.602-4.172-6.168-111.044 4.032-182.569 13.674-223.018 10.433-43.766 22.468-61.531 22.576-61.688a5.996 5.996 0 0 0-1.468-8.355c-2.714-1.903 2.713 1.902 0 0z" fill="#cacaca"></path><path d="M230.333 101.982c12.964-8.925 20.122-20.406 16.28-27.051-3.841-6.645-17.376-6.195-31.597.555-1.257-15.675-7.634-27.606-15.317-27.606s-14.06 11.931-15.317 27.606c-14.221-6.75-27.756-7.2-31.597-.555-3.842 6.645 3.316 18.126 16.28 27.051-12.964 8.925-20.122 20.406-16.28 27.051s17.376 6.195 31.597-.555c1.257 15.675 7.634 27.606 15.317 27.606s14.06-11.931 15.317-27.606c14.221 6.75 27.756 7.201 31.597.555 3.842-6.645-3.316-18.126-16.28-27.051z" fill="#e91e63"></path><path d="M230.333 101.982c12.964-8.925 20.122-20.406 16.28-27.051-3.841-6.645-17.376-6.195-31.597.555-1.257-15.675-7.634-27.606-15.317-27.606s-14.06 11.931-15.317 27.606c-14.221-6.75-27.756-7.2-31.597-.555-3.842 6.645 3.316 18.126 16.28 27.051-12.964 8.925-20.122 20.406-16.28 27.051s17.376 6.195 31.597-.555c1.257 15.675 7.634 27.606 15.317 27.606s14.06-11.931 15.317-27.606c14.221 6.75 27.756 7.201 31.597.555 3.842-6.645-3.316-18.126-16.28-27.051zm-26.379 25.609c-.638 7.953-2.687 13.174-4.255 15.817-1.568-2.643-3.617-7.864-4.255-15.817-.609-7.599-8.908-12.421-15.821-9.138-7.206 3.42-12.766 4.256-15.84 4.231 1.518-2.68 5.022-7.05 11.575-11.561 6.298-4.334 6.298-13.947 0-18.281-6.553-4.511-10.057-8.881-11.575-11.561 3.045-.024 8.635.812 15.841 4.232 6.91 3.28 15.211-1.537 15.82-9.138.638-7.953 2.687-13.174 4.255-15.817 1.568 2.643 3.617 7.864 4.255 15.817.61 7.602 8.91 12.417 15.82 9.138 7.206-3.421 12.784-4.256 15.841-4.232-1.518 2.68-5.022 7.05-11.575 11.561-6.298 4.334-6.298 13.947 0 18.281 6.553 4.511 10.057 8.881 11.575 11.561-3.086.024-8.636-.811-15.84-4.231-6.91-3.281-15.211 1.536-15.821 9.138zm32.599-2.586h.01z" fill="#c8255c"></path><ellipse cx="199.699" cy="101.982" fill="#ffffff" rx="12.103" ry="12.09"></ellipse><path d="M109.322 91.907c15.547-10.703 24.131-24.471 19.524-32.441-4.607-7.969-20.838-7.429-37.893.666-1.507-18.798-9.155-33.107-18.369-33.107S55.722 41.334 54.215 60.132c-17.055-8.095-33.286-8.635-37.893-.666s3.977 21.738 19.524 32.441c-15.547 10.703-24.131 24.471-19.524 32.441s20.838 7.429 37.893-.666c1.507 18.798 9.155 33.107 18.369 33.107s16.862-14.308 18.369-33.107c17.055 8.095 33.286 8.635 37.893.666 4.607-7.97-3.977-21.739-19.524-32.441z" fill="#e91e63"></path><path d="M109.322 91.907c15.547-10.703 24.131-24.471 19.524-32.441-4.607-7.969-20.838-7.429-37.893.666-1.507-18.798-9.155-33.107-18.369-33.107S55.722 41.334 54.215 60.132c-17.055-8.095-33.286-8.635-37.893-.666s3.977 21.738 19.524 32.441c-15.547 10.703-24.131 24.471-19.524 32.441 4.607 7.969 20.838 7.429 37.893-.666 1.507 18.798 9.155 33.107 18.369 33.107s16.862-14.308 18.369-33.107c17.055 8.095 33.286 8.635 37.893.666 4.607-7.97-3.977-21.739-19.524-32.441zM77.88 122.633c-.791 9.859-3.377 16.224-5.296 19.33-1.919-3.105-4.505-9.471-5.296-19.33-.721-8.983-10.525-14.677-18.697-10.8-8.932 4.24-15.742 5.186-19.406 5.089 1.746-3.216 5.974-8.62 14.098-14.213 7.443-5.123 7.443-16.482 0-21.606C35.159 75.51 30.93 70.107 29.184 66.89c3.675-.097 10.474.849 19.407 5.089 8.165 3.877 17.976-1.815 18.697-10.8.791-9.858 3.377-16.224 5.296-19.329 1.919 3.105 4.505 9.471 5.296 19.329.721 8.988 10.531 14.673 18.697 10.8 8.934-4.241 15.746-5.186 19.407-5.089-1.746 3.217-5.974 8.62-14.099 14.213-7.443 5.123-7.443 16.482 0 21.606 8.124 5.593 12.353 10.996 14.098 14.213-3.665.094-10.475-.849-19.406-5.089-8.165-3.876-17.976 1.815-18.697 10.8zm39.094-3.131h.01z" fill="#c8255c"></path><ellipse cx="72.584" cy="91.907" fill="#ffffff" rx="12.285" ry="12.273"></ellipse><path d="M435.114 355.5c-33.827 29.256-48.518 62.334-54.833 87.339-6.321-72.482 18.948-135.465 18.948-135.465-31.598 25.397-48.761 59.604-58.032 91.018 5.676-133.331 37.072-234.547 37.072-234.547-43.983 68.801-73.428 126.054-88.006 230.777 2.651-69.738-11.998-118.837-11.998-118.837-17.086 64.059-32.726 112.387-44.738 146.122-5.34-151.043 19.587-258.062 19.587-258.062-34.914 50.034-54.082 104.911-64.301 154.794-10.219-49.883-29.387-104.76-64.301-154.794 0 0 17.736 76.138 20.085 190.609-30.191-78.493-79.924-114.484-79.924-114.484 31.2 83.473 38.815 147.127 39.187 188.172-7.98-22.468-22.836-48.823-50.377-72.642 0 0 29.742 56.224 23.236 106.5h335.159c-7.006-36.704 23.236-106.5 23.236-106.5z" fill="#6db33f"></path><path d="M402.478 421.982c-28.615 15.968-24.549 28.248-33.06 29.443-5.347-39.561.512-76.186.512-76.186-16.163 16.846-35.046 68.265-41.645 72.104-.798-34.776 5.13-148.195 5.13-148.195-29.669 51.809-30.301 129.224-53.26 146.137 2.242-38.064-7.123-85.039-7.123-85.039-14.453 34.964-27.935 80.528-41.88 79.755-21.7-3.473-11.678-161.029-11.678-161.029-13.217 13.164-24.563 77.438-33.208 104.665-2.876-28.742-5.135-49.575-27.155-104.665 0 0 8.305 88.702-12.267 124.213-11.375-36.184-35.327-72.574-35.327-72.574 10.501 47.993 11.509 105.665-1.152 124.9-4.489-11.332-7.348-17.554-21.43-28.551 0 0 6.516 18.06 3.514 34.925h303.697c-5.926-20.035 6.332-39.903 6.332-39.903z" fill="#649c40"></path><path d="M462 468H6a6 6 0 0 1 0-12h456a6 6 0 0 1 0 12z" fill="#cacaca"></path><g fill="#25c5df"><ellipse cx="127.134" cy="242.397" fill="#25c5df" rx="14.124" ry="14.067"></ellipse><ellipse cx="225.552" cy="184.121" fill="#25c5df" rx="16.142" ry="16.076"></ellipse><ellipse cx="284.955" cy="273.431" fill="#25c5df" rx="18.159" ry="18.086"></ellipse></g><ellipse cx="59.912" cy="421.683" fill="#25c5df" rx="19.168" ry="19.09"></ellipse><path d="M67.475 404.141a18.96 18.96 0 0 1 1.517 7.453c0 10.543-8.582 19.09-19.168 19.09-2.687 0-5.242-.555-7.563-1.549a19.173 19.173 0 0 0 17.651 11.637c10.586 0 19.168-8.547 19.168-19.09 0-7.867-4.781-14.618-11.605-17.541z" fill="#2babc0"></path><ellipse cx="390.108" cy="302.7" fill="#25c5df" rx="20.177" ry="20.095"></ellipse><path d="M398.425 284.406a19.922 19.922 0 0 1 1.771 8.205c0 11.098-9.034 20.095-20.177 20.095-2.969 0-5.779-.655-8.318-1.802 3.153 7.004 10.2 11.89 18.406 11.89 11.143 0 20.177-8.997 20.177-20.095.001-8.141-4.87-15.135-11.859-18.293z" fill="#2babc0"></path><ellipse cx="356.481" cy="76.548" fill="#ffc107" rx="31.899" ry="31.855"></ellipse><path d="M341.733 76.548c0-14.625 9.873-26.939 23.324-30.681a31.959 31.959 0 0 0-8.575-1.174c-17.617 0-31.899 14.262-31.899 31.854 0 17.593 14.282 31.855 31.899 31.855 2.972 0 5.846-.415 8.575-1.174-13.451-3.741-23.324-16.055-23.324-30.68z" fill="#d9a813"></path><g fill="#ffcd39"><path d="M356.481 27.297a6 6 0 0 1-6-6V6a6 6 0 0 1 12 0v15.297a6 6 0 0 1-6 6zM317.358 43.48a5.982 5.982 0 0 1-4.24-1.754l-10.832-10.817a6 6 0 0 1 8.479-8.491l10.832 10.817c3.699 3.692 1.011 10.245-4.239 10.245zM301.153 82.548h-15.319a6 6 0 0 1 0-12h15.319a6 6 0 0 1 0 12zM306.526 132.433c-5.25 0-7.938-6.553-4.24-10.246l10.832-10.817a6 6 0 0 1 8.479 8.491l-10.832 10.817a5.975 5.975 0 0 1-4.239 1.755zM356.481 153.096a6 6 0 0 1-6-6v-15.297a6 6 0 0 1 12 0v15.297a6 6 0 0 1-6 6zM406.436 132.433a5.982 5.982 0 0 1-4.24-1.754l-10.832-10.817a6 6 0 0 1 8.479-8.491l10.832 10.817c3.699 3.692 1.011 10.245-4.239 10.245zM427.128 82.548h-15.319a6 6 0 0 1 0-12h15.319a6 6 0 0 1 0 12zM395.604 43.48c-5.25 0-7.938-6.553-4.24-10.246l10.832-10.817a6 6 0 0 1 8.479 8.491l-10.832 10.817a5.979 5.979 0 0 1-4.239 1.755z" fill="#ffcd39"></path></g></g></svg>