<svg viewBox="0 0 512 512" xmlns="http://www.w3.org/2000/svg"><g><path d="M353.5 0H256l-10 132.426 10 128.787L307.213 210H353.5c33.084 0 60-26.916 60-60V60c0-33.084-26.916-60-60-60z" fill="#ffb655"></path><path d="M158.5 0c-33.084 0-60 26.916-60 60v90c0 33.084 26.916 60 60 60h46.287L256 261.213V0z" fill="#ffda44"></path><path d="M353.5 30H256l-10 102.426 10 86.361L294.787 180H353.5c16.542 0 30-13.458 30-30V60c0-16.542-13.458-30-30-30z" fill="#ffda44"></path><path d="M158.5 30c-16.542 0-30 13.458-30 30v90c0 16.542 13.458 30 30 30h58.713L256 218.787V30z" fill="#fff79f"></path><path d="M298.427 62.574 256 105l-10 27.426 10 15 63.64-63.639z" fill="#283366"></path><path d="m245.394 115.606-31.821-31.819L192.36 105l53.034 53.032L256 147.426V105z" fill="#404a80"></path><path d="M499.296 460.112c0-44.79-36.309-81.099-81.099-81.099l-10 66.493 10 66.493h81.099z" fill="#6a4dff"></path><path d="m337.099 460.112-10 15 10 36.888h81.099V379.014c-44.79 0-81.099 36.309-81.099 81.098z" fill="#6680ff"></path><path d="M464.704 332.507c0-25.685-20.822-46.507-46.507-46.507l-10 46.507 10 46.507c25.685 0 46.507-20.822 46.507-46.507z" fill="#8c574d"></path><path d="M371.69 332.507c0 25.685 20.822 46.507 46.507 46.507V286c-25.685 0-46.507 20.822-46.507 46.507z" fill="#a6756b"></path><path d="M337.099 460.112c0-44.79-36.309-81.099-81.099-81.099l-10 66.493L256 512h81.099z" fill="#e62e6b"></path><path d="m174.901 460.112-10 15 10 36.888H256V379.014c-44.79 0-81.099 36.309-81.099 81.098z" fill="#ff6666"></path><path d="M302.507 332.507C302.507 306.822 281.685 286 256 286l-10 46.507 10 46.507c25.685 0 46.507-20.822 46.507-46.507z" fill="#dbad5c"></path><path d="M209.493 332.507c0 25.685 20.822 46.507 46.507 46.507V286c-25.685 0-46.507 20.822-46.507 46.507z" fill="#e7c994"></path><path d="M174.901 460.112c0-44.79-36.309-81.099-81.099-81.099l-10 66.493 10 66.493h81.099z" fill="#404a80"></path><path d="M12.704 460.112V512h81.099V379.014c-44.79 0-81.099 36.309-81.099 81.098z" fill="#5c6699"></path><path d="M140.31 332.507c0-25.685-20.822-46.507-46.507-46.507l-10 46.507 10 46.507c25.685 0 46.507-20.822 46.507-46.507z" fill="#ffcdbe"></path><path d="M47.296 332.507c0 25.685 20.822 46.507 46.507 46.507V286c-25.685 0-46.507 20.822-46.507 46.507z" fill="#ffdecf"></path></g></svg>