<svg viewBox="0 0 512 512" xmlns="http://www.w3.org/2000/svg"><g><path d="M76 60c-8.291 0-15-6.709-15-15V15c0-8.291 6.709-15 15-15s15 6.709 15 15v30c0 8.291-6.709 15-15 15zM166 60c-8.291 0-15-6.709-15-15V15c0-8.291 6.709-15 15-15s15 6.709 15 15v30c0 8.291-6.709 15-15 15zM256 60c-8.291 0-15-6.709-15-15V15c0-8.291 6.709-15 15-15s15 6.709 15 15v30c0 8.291-6.709 15-15 15z" fill="#4d4d80"></path><path d="M346 60c-8.291 0-15-6.709-15-15V15c0-8.291 6.709-15 15-15s15 6.709 15 15v30c0 8.291-6.709 15-15 15z" fill="#443d66"></path><image overflow="visible" transform="matrix(.24 0 0 .24 420.92 .52)"/><path d="M271 45V15c0-8.291-6.709-15-15-15v60c8.291 0 15-6.709 15-15z" fill="#443d66"></path><path d="M482 120H30c-16.569 0-30-13.431-30-30V75c0-24.853 20.147-45 45-45h422c24.853 0 45 20.147 45 45v15c0 16.569-13.431 30-30 30z" fill="#59abff"></path><path d="M467 30H256v90h226c16.569 0 30-13.433 30-30V75c0-24.853-20.147-45-45-45z" fill="#4d87ff"></path><path d="M467 512H45c-24.853 0-45-20.147-45-45V90h512v377c0 24.853-20.147 45-45 45z" fill="#f3f5f9"></path><path d="M256 512h211c24.853 0 45-20.147 45-45V90H256z" fill="#e1e6f0"></path><path d="M98.5 181H136c8.291 0 15-6.709 15-15s-6.709-15-15-15H98.5C77.816 151 61 167.816 61 188.5S77.816 226 98.5 226h15c4.131 0 7.5 3.369 7.5 7.5s-3.369 7.5-7.5 7.5H76c-8.291 0-15 6.709-15 15s6.709 15 15 15h37.5c20.684 0 37.5-16.816 37.5-37.5S134.184 196 113.5 196h-15c-4.131 0-7.5-3.369-7.5-7.5s3.369-7.5 7.5-7.5zM196 256v-30h30v30c0 8.291 6.709 15 15 15s15-6.709 15-15v-60c0-24.814-20.186-45-45-45s-45 20.186-45 45v60c0 8.291 6.709 15 15 15s15-6.709 15-15zm15-75c8.276 0 15 6.724 15 15h-30c0-8.276 6.724-15 15-15z" fill="#4d4d80"></path><g fill="#46406a"><path d="M293.5 361H331c8.291 0 15-6.709 15-15s-6.709-15-15-15h-37.5c-20.684 0-37.5 16.816-37.5 37.5s16.816 37.5 37.5 37.5h15c4.131 0 7.5 3.369 7.5 7.5s-3.369 7.5-7.5 7.5H271c-8.291 0-15 6.709-15 15s6.709 15 15 15h37.5c20.684 0 37.5-16.816 37.5-37.5S329.184 376 308.5 376h-15c-4.131 0-7.5-3.369-7.5-7.5s3.369-7.5 7.5-7.5zM436 331c-8.291 0-15 6.709-15 15v60c0 8.276-6.724 15-15 15s-15-6.724-15-15v-60c0-8.291-6.709-15-15-15s-15 6.709-15 15v60c0 24.814 20.186 45 45 45s45-20.186 45-45v-60c0-8.291-6.709-15-15-15z" fill="#46406a"></path></g><path d="M325.375 214.281c-6.474-5.171-15.893-4.087-21.093 2.344l-120 150c-5.171 6.475-4.116 15.908 2.343 21.094 6.451 5.153 15.873 4.137 21.094-2.344l120-150c5.171-6.475 4.116-15.908-2.344-21.094z" fill="#4d4d80"></path><path d="M304.281 216.625 256 276.977v48.047l71.719-89.648c5.171-6.475 4.116-15.908-2.344-21.094-6.475-5.172-15.894-4.088-21.094 2.343z" fill="#46406a"></path></g></svg>