<svg viewBox="0 0 512 512" xmlns="http://www.w3.org/2000/svg"><g><path d="M512 174.176 256 468.757 0 174.176l256-35.197z" fill="#ce0045"></path><path d="M512 174.176 256 468.757V138.979z" fill="#a00031"></path><path d="m384.502 108.71-30.308 65.466L256 115.617l-98.194 58.559L128 108.71V43.245h256z" fill="#ce0045"></path><path d="m384.502 108.71-30.308 65.466L256 115.617V43.245h128z" fill="#a00031"></path><path d="M354.194 174.176H157.806L256 43.245z" fill="#fe7e52"></path><path d="M354.194 174.176H256V43.245z" fill="#f53241"></path><path d="M128 43.243 0 174.172h157.804z" fill="#fe7e52"></path><path d="M354.196 174.172H512L384 43.243zM354.194 174.176 256 468.757l-98.194-294.581z" fill="#f53241"></path><path d="M354.194 174.176 256 468.757V174.176z" fill="#ce0045"></path></g></svg>