<svg viewBox="0 0 24 24" xmlns="http://www.w3.org/2000/svg"><g><path d="M21 1H3C1.346 1 0 2.346 0 4v16c0 1.654 1.346 3 3 3h18c1.654 0 3-1.346 3-3V4c0-1.654-1.346-3-3-3z" fill="#607d8b"></path><path d="M21 21H3c-.551 0-1-.448-1-1V6h20v14c0 .552-.449 1-1 1z" fill="#ffffff"></path><path d="M12 1H3C1.346 1 0 2.346 0 4v16c0 1.654 1.346 3 3 3h9v-2H3c-.551 0-1-.448-1-1V6h10z" fill="#546d79"></path><path d="M12 6H2v14c0 .552.449 1 1 1h9z" fill="#dedede"></path><path d="M12 9H5a1 1 0 0 0-1 1v1.5a1 1 0 0 0 2 0V11h1.5v6H7a1 1 0 1 0 0 2h3a1 1 0 1 0 0-2h-.5v-6H11v.5a1 1 0 0 0 2 0V10a1 1 0 0 0-1-1z" fill="#2196f3"></path><path d="M8.5 9H5a1 1 0 0 0-1 1v1.5a1 1 0 0 0 2 0V11h1.5v6H7a1 1 0 1 0 0 2h1.5z" fill="#1d83d4"></path><g fill="#90a4ae"><path d="M19 11h-3a1 1 0 0 1 0-2h3a1 1 0 0 1 0 2zM19 15h-3a1 1 0 1 1 0-2h3a1 1 0 1 1 0 2zM19 19h-3a1 1 0 1 1 0-2h3a1 1 0 1 1 0 2z" fill="#90a4ae"></path></g><path d="M17.5 9H16a1 1 0 0 0 0 2h1.5zM17.5 13H16a1 1 0 1 0 0 2h1.5zM17.5 17H16a1 1 0 1 0 0 2h1.5z" fill="#7d8f97"></path></g></svg>