<svg id="Layer_1" height="512" viewBox="0 0 64 64" width="512" xmlns="http://www.w3.org/2000/svg" data-name="Layer 1"><circle cx="8" cy="22.5" fill="#e6a85c" r="3.5"/><path d="m11.6 38 2.4-1.2v-7.37a3.44 3.44 0 0 0 -3.43-3.43h-5.14a3.44 3.44 0 0 0 -3.43 3.43v7.37l2.4 1.2 1.2 11h4.8z" fill="#2970cc"/><path d="m2 51h22v12h-22z" fill="#e65c62"/><path d="m40 9h22v12h-22z" fill="#49b34f"/><path d="m50.09 18.33a1 1 0 0 1 -.71-.29l-2.12-2.13 1.41-1.41 1.42 1.41 4.24-4.24 1.41 1.42-5 4.95a1 1 0 0 1 -.65.29z" fill="#f2f2f2"/><path d="m17 37h22v12h-22z" fill="#e65c62"/><path d="m29 23h22v12h-22z" fill="#e65c62"/><g fill="#f2f2f2"><path d="m15.12 53.46-2.12 2.13-2.12-2.13-1.42 1.42 2.13 2.12-2.13 2.12 1.42 1.42 2.12-2.13 2.12 2.13 1.42-1.42-2.13-2.12 2.13-2.12z"/><path d="m30.12 39.46-2.12 2.13-2.12-2.13-1.42 1.42 2.13 2.12-2.13 2.12 1.42 1.42 2.12-2.13 2.12 2.13 1.42-1.42-2.13-2.12 2.13-2.12z"/><path d="m43.54 26.88-1.42-1.42-2.12 2.13-2.12-2.13-1.42 1.42 2.13 2.12-2.13 2.12 1.42 1.42 2.12-2.13 2.12 2.13 1.42-1.42-2.13-2.12z"/></g><path d="m50 1h2v4h-2z" fill="#8e9fb3"/><path d="m54 3h4v2h-4z" fill="#8e9fb3" transform="matrix(.6 -.8 .8 .6 19.19 46.39)"/><path d="m45 2h2v4h-2z" fill="#8e9fb3" transform="matrix(.8 -.6 .6 .8 6.8 28.4)"/></svg>