<svg viewBox="0 0 96 96" xmlns="http://www.w3.org/2000/svg"><g><path d="M37 65.52V12c0-5.514-4.486-10-10-10S17 6.486 17 12v53.52A16.016 16.016 0 0 0 11 78c0 8.822 7.178 16 16 16s16-7.178 16-16c0-4.862-2.225-9.452-6-12.48z" fill="#9fa8da"></path><path d="M27 87c-4.962 0-9-4.037-9-9a9.015 9.015 0 0 1 3.862-7.38L24 69.126V12c0-1.654 1.346-3 3-3s3 1.346 3 3v57.127l2.138 1.492A9.015 9.015 0 0 1 36 78c0 4.963-4.038 9-9 9zM12 18H4a2 2 0 0 1 0-4h8a2 2 0 0 1 0 4zM12 26H4a2 2 0 0 1 0-4h8a2 2 0 0 1 0 4zM12 34H4a2 2 0 0 1 0-4h8a2 2 0 0 1 0 4zM12 42H4a2 2 0 0 1 0-4h8a2 2 0 0 1 0 4zM12 50H4a2 2 0 0 1 0-4h8a2 2 0 0 1 0 4zM12 58H4a2 2 0 0 1 0-4h8a2 2 0 0 1 0 4zM12 66H4a2 2 0 0 1 0-4h8a2 2 0 0 1 0 4z" fill="#d32f2f"></path><path d="M27 9c-1.654 0-3 1.346-3 3v6h6v-6c0-1.654-1.346-3-3-3z" fill="#5c6bc0"></path><circle cx="66" cy="30" fill="#f4511e" r="13"></circle><path d="M66 14a2 2 0 0 1-2-2V4a2 2 0 0 1 4 0v8a2 2 0 0 1-2 2zM66 58a2 2 0 0 1-2-2v-8a2 2 0 0 1 4 0v8a2 2 0 0 1-2 2zM78.728 19.272a2 2 0 0 1-1.414-3.414l5.657-5.657a2 2 0 1 1 2.828 2.828l-5.657 5.658c-.39.39-.902.585-1.414.585zM47.615 50.385a2 2 0 0 1-1.414-3.414l5.657-5.658a2 2 0 1 1 2.828 2.829l-5.657 5.657c-.39.39-.902.586-1.414.586zM84.385 50.385a1.993 1.993 0 0 1-1.414-.586l-5.657-5.657a2 2 0 1 1 2.828-2.829l5.657 5.658a2 2 0 0 1-1.414 3.414zM53.272 19.272a1.993 1.993 0 0 1-1.414-.585L46.2 13.029a2 2 0 1 1 2.828-2.828l5.657 5.657a2 2 0 0 1-1.414 3.414zM92 32h-8a2 2 0 0 1 0-4h8a2 2 0 0 1 0 4zM48 32h-8a2 2 0 0 1 0-4h8a2 2 0 0 1 0 4zM51.84 94a2 2 0 0 1-2-2c0-.26-.018-.295-.372-.718-.49-.583-1.308-1.558-1.308-3.287 0-1.73.819-2.705 1.308-3.288.354-.423.372-.456.372-.717 0-.259-.018-.292-.372-.714-.489-.582-1.308-1.557-1.308-3.285 0-1.728.82-2.703 1.309-3.285.353-.422.37-.455.37-.713 0-.25-.008-.28-.37-.71-.49-.584-1.309-1.558-1.309-3.287s.82-2.703 1.309-3.285c.353-.422.37-.455.37-.713s-.017-.291-.37-.713c-.49-.582-1.309-1.556-1.309-3.285a2 2 0 0 1 4 0c0 .258.018.291.371.713.49.582 1.309 1.557 1.309 3.285s-.82 2.703-1.309 3.285c-.353.422-.37.455-.37.713s.017.291.37.712c.49.583 1.309 1.558 1.309 3.285 0 1.729-.82 2.703-1.309 3.285-.353.422-.37.455-.37.713s.017.291.37.713c.49.582 1.309 1.558 1.309 3.286s-.819 2.704-1.308 3.287c-.354.423-.372.457-.372.718s.018.294.372.717c.489.583 1.308 1.559 1.308 3.288a2 2 0 0 1-2 2zM62.84 94a2 2 0 0 1-2-2c0-.26-.018-.295-.372-.718-.49-.583-1.308-1.558-1.308-3.287 0-1.73.819-2.705 1.308-3.288.354-.423.372-.456.372-.717 0-.259-.018-.292-.372-.714-.489-.582-1.308-1.557-1.308-3.285 0-1.728.82-2.703 1.309-3.285.353-.422.37-.455.37-.713 0-.25-.008-.28-.37-.71-.49-.584-1.309-1.558-1.309-3.287s.82-2.703 1.309-3.285c.353-.422.37-.455.37-.713s-.017-.291-.37-.713c-.49-.582-1.309-1.556-1.309-3.285a2 2 0 0 1 4 0c0 .258.018.291.371.713.49.582 1.309 1.557 1.309 3.285s-.82 2.703-1.309 3.285c-.353.422-.37.455-.37.713s.017.291.37.712c.49.583 1.309 1.558 1.309 3.285 0 1.729-.82 2.703-1.309 3.285-.353.422-.37.455-.37.713s.017.291.37.713c.49.582 1.309 1.558 1.309 3.286s-.819 2.704-1.308 3.287c-.354.423-.372.457-.372.718s.018.294.372.717c.489.583 1.308 1.559 1.308 3.288a2 2 0 0 1-2 2zM73.84 94a2 2 0 0 1-2-2c0-.26-.018-.295-.372-.718-.49-.583-1.308-1.558-1.308-3.287 0-1.73.819-2.705 1.308-3.288.354-.423.372-.456.372-.717 0-.259-.018-.292-.372-.714-.489-.582-1.308-1.557-1.308-3.285 0-1.728.82-2.703 1.309-3.285.353-.422.37-.455.37-.713 0-.25-.008-.28-.37-.71-.49-.584-1.309-1.558-1.309-3.287s.82-2.703 1.309-3.285c.353-.422.37-.455.37-.713s-.017-.291-.37-.713c-.49-.582-1.309-1.556-1.309-3.285a2 2 0 0 1 4 0c0 .258.018.291.371.713.49.582 1.309 1.557 1.309 3.285s-.82 2.703-1.309 3.285c-.353.422-.37.455-.37.713s.017.291.37.712c.49.583 1.309 1.558 1.309 3.285 0 1.729-.82 2.703-1.309 3.285-.353.422-.37.455-.37.713s.017.291.37.713c.49.582 1.309 1.558 1.309 3.286s-.819 2.704-1.308 3.287c-.354.423-.372.457-.372.718s.018.294.372.717c.489.583 1.308 1.559 1.308 3.288a2 2 0 0 1-2 2zM84.84 94a2 2 0 0 1-2-2c0-.26-.018-.295-.372-.718-.49-.583-1.308-1.558-1.308-3.287 0-1.73.819-2.705 1.308-3.288.354-.423.372-.456.372-.717 0-.259-.018-.292-.372-.714-.489-.582-1.308-1.557-1.308-3.285 0-1.728.82-2.703 1.309-3.285.353-.422.37-.455.37-.713 0-.25-.008-.28-.37-.71-.49-.584-1.309-1.558-1.309-3.287s.82-2.703 1.309-3.285c.353-.422.37-.455.37-.713s-.017-.291-.37-.713c-.49-.582-1.309-1.556-1.309-3.285a2 2 0 0 1 4 0c0 .258.018.291.371.713.49.582 1.309 1.557 1.309 3.285s-.82 2.703-1.309 3.285c-.353.422-.37.455-.37.713s.017.291.37.712c.49.583 1.309 1.558 1.309 3.285 0 1.729-.82 2.703-1.309 3.285-.353.422-.37.455-.37.713s.017.291.37.713c.49.582 1.309 1.558 1.309 3.286s-.819 2.704-1.308 3.287c-.354.423-.372.457-.372.718s.018.294.372.717c.489.583 1.308 1.559 1.308 3.288a2 2 0 0 1-2 2z" fill="#f4511e"></path></g></svg>