<svg viewBox="0 0 512 512" xmlns="http://www.w3.org/2000/svg"><g><path d="M256 0C168.516 0 91.45 44.566 46.246 112.234c-13.598 20.356-5.07 48.102 17.445 57.715l52.883 22.586c21.102 9.012 45.367 3.434 60.992-13.37 19.555-21.024 47.457-34.18 78.434-34.18 30.98 0 58.883 13.156 78.434 34.18 15.625 16.804 39.894 22.386 60.996 13.37l52.882-22.586c22.512-9.613 31.043-37.36 17.446-57.715C420.55 44.566 343.484 0 256 0zm0 0" fill="#ffbe73"></path><path d="M423.93 64.082a253.534 253.534 0 0 1 41.824 48.152c13.598 20.356 5.07 48.102-17.445 57.715l-52.883 22.586c-21.102 9.012-45.367 3.434-60.992-13.37a108.045 108.045 0 0 0-13.41-12.18zm0 0" fill="#f9ee80"></path><path d="M46.246 112.234c-13.598 20.356-5.07 48.102 17.445 57.715l52.88 22.586c21.105 9.012 45.37 3.434 60.995-13.37 19.555-21.024 47.454-34.18 78.434-34.18V0C168.516 0 91.45 44.566 46.246 112.234zm0 0" fill="#ff8f71"></path><path d="M88.07 64.082a253.534 253.534 0 0 0-41.824 48.152c-13.598 20.356-5.07 48.102 17.445 57.715l52.883 22.586c21.102 9.012 45.367 3.434 60.992-13.37a108.29 108.29 0 0 1 13.407-12.18zm0 0" fill="#fd5c6f"></path><path d="M243.164 64.906c-23.898 70.68-10.855 156.418-10.855 156.418h47.382s13.043-85.738-10.855-156.418c-4.578-13.539-21.094-13.539-25.672 0zm0 0" fill="#6a829a"></path><path d="M301.246 229.625c0 24.988-20.258 45.246-45.246 45.246s-45.246-20.258-45.246-45.246c0-24.992 20.258-45.25 45.246-45.25s45.246 20.258 45.246 45.25zm0 0" fill="#a7b6c5"></path><path d="M160.707 289.996c0 44.375-35.977 80.352-80.355 80.352C35.977 370.348 0 334.37 0 289.996c0-44.379 35.977-80.355 80.352-80.355 44.378 0 80.355 35.976 80.355 80.355zm0 0" fill="#b18cd9"></path><path d="M48.836 289.996c0-35.863 23.52-66.234 55.953-76.57a80.425 80.425 0 0 0-24.437-3.781C35.977 209.64 0 245.617 0 289.996s35.977 80.352 80.352 80.352a80.425 80.425 0 0 0 24.437-3.782c-32.434-10.34-55.953-40.71-55.953-76.57zm0 0" fill="#996acc"></path><g fill="#454545"><path d="M129.191 302.707a7.726 7.726 0 0 1-7.726-7.727v-12.828a7.726 7.726 0 1 1 15.453 0v12.828a7.729 7.729 0 0 1-7.727 7.727zM31.516 302.707a7.729 7.729 0 0 1-7.727-7.727v-12.828a7.726 7.726 0 1 1 15.453 0v12.828a7.729 7.729 0 0 1-7.726 7.727zM85.629 302.078a6.365 6.365 0 0 0-5.277-2.848c-1.024 0-3.59.278-5.278 2.848-2.344 3.567-7.133 4.559-10.699 2.215s-4.559-7.133-2.215-10.7a21.693 21.693 0 0 1 18.192-9.816 21.705 21.705 0 0 1 18.195 9.817 7.73 7.73 0 0 1-2.219 10.699c-1.305.86-7.086 3.082-10.7-2.215zm0 0" fill="#454545"></path></g><path d="M512 289.996c0 44.375-35.977 80.352-80.352 80.352-44.378 0-80.355-35.977-80.355-80.352 0-44.379 35.977-80.355 80.355-80.355 44.375 0 80.352 35.976 80.352 80.355zm0 0" fill="#76e7e7"></path><path d="M400.133 289.996c0-35.863 23.515-66.234 55.953-76.57a80.446 80.446 0 0 0-24.438-3.785c-44.378 0-80.355 35.976-80.355 80.355s35.977 80.352 80.355 80.352a80.326 80.326 0 0 0 24.438-3.785c-32.434-10.336-55.953-40.708-55.953-76.567zm0 0" fill="#2eddda"></path><path d="M480.484 302.707a7.726 7.726 0 0 1-7.726-7.727v-12.828a7.726 7.726 0 0 1 15.453 0v12.828a7.726 7.726 0 0 1-7.727 7.727zM382.809 302.707a7.729 7.729 0 0 1-7.727-7.727v-12.828a7.726 7.726 0 1 1 15.453 0v12.828a7.726 7.726 0 0 1-7.726 7.727zM436.926 287.262a6.37 6.37 0 0 1-5.278 2.847c-1.027 0-3.59-.277-5.277-2.847a7.73 7.73 0 0 0-10.703-2.215 7.724 7.724 0 0 0-2.215 10.7 21.714 21.714 0 0 0 18.195 9.815 21.713 21.713 0 0 0 18.192-9.816 7.724 7.724 0 0 0-2.215-10.7c-1.309-.858-7.09-3.085-10.7 2.216zm0 0" fill="#454545"></path><path d="M153.55 129.691c-6.179 6.176-6.179 16.196 0 22.371l25.52 25.52a107.498 107.498 0 0 1 25.36-19.383l-28.508-28.508c-6.18-6.18-16.195-6.18-22.371 0zM358.45 129.691c-6.177-6.18-16.192-6.18-22.372 0L307.57 158.2a107.498 107.498 0 0 1 25.36 19.383l25.52-25.52c6.179-6.175 6.179-16.195 0-22.37zm0 0" fill="#516980"></path></g></svg>