<svg viewBox="0 0 496.998 496.998" xmlns="http://www.w3.org/2000/svg"><g><path d="M323.798 175.828v280.81h-193.74v-59.62c0-12.44-2.67-24.74-7.82-36.06l-5.67-12.45a87.097 87.097 0 0 1-7.82-36.06v-83.97c0-12.01 1.73-23.97 5.13-35.49l.29-.97 7.97-26.98 40.73 2.18z" fill="#ffcebf"></path><path d="M323.802 291.975v164.656h-24.898V290.645zM315.813 4.243l.305.114c13.821 5.171 20.833 20.566 15.662 34.387l-61.884 165.411-37.523 14.301c-11.922-6.095-17.636-20.297-12.832-33.139l61.884-165.411c5.171-13.821 20.567-20.834 34.388-15.663z" fill="#ffb09e"></path><path d="m316.118 4.357-.305-.114c-7.41-2.772-15.27-2.039-21.766 1.364 11.926 6.093 17.647 20.293 12.842 33.137l-61.884 165.411a26.613 26.613 0 0 1-12.621 14.298l37.513-14.298 61.884-165.411c5.17-13.821-1.842-29.216-15.663-34.387z" fill="#f99e8a"></path><path d="m247.416 1.214.313-.093c14.141-4.216 29.023 3.83 33.239 17.971l49.392 165.674-51.522 15.36-49.393-165.673c-4.216-14.142 3.83-29.023 17.971-33.239z" fill="#ffcebf"></path><path d="M280.967 19.092C276.752 4.951 261.87-3.095 247.729 1.121l-.313.093a26.788 26.788 0 0 0-4.57 1.84c6.169 3.226 11.082 8.84 13.229 16.039l49.392 165.674-28.662 8.545 2.032 6.815 51.522-15.36z" fill="#ffb09e"></path><path d="M124.84 496.998h205.536c7.042 0 12.751-5.709 12.751-12.751v-40.08c0-7.042-5.709-12.751-12.751-12.751H124.84c-7.042 0-12.751 5.709-12.751 12.751v40.08c0 7.042 5.708 12.751 12.751 12.751z" fill="#cde2ff"></path><path d="M330.375 431.416h-24.893c7.042 0 12.751 5.709 12.751 12.751v40.08c0 7.042-5.709 12.751-12.751 12.751h24.893c7.042 0 12.751-5.709 12.751-12.751v-40.08c0-7.042-5.709-12.751-12.751-12.751z" fill="#b3dafe"></path><path d="M323.801 373.881v32.651h-55.37V280.186l55.37-33.308 22.059-73.03a22.261 22.261 0 0 1 22.962 14.716l17.279 48.601a37.18 37.18 0 0 1-4.037 32.989l-49.546 74.786a52.402 52.402 0 0 0-8.717 28.941z" fill="#ffcebf"></path><path d="m386.101 237.164-17.279-48.601a22.263 22.263 0 0 0-22.962-14.716l-3.438 11.381a22.29 22.29 0 0 1 1.507 3.335l17.279 48.601a37.18 37.18 0 0 1-4.037 32.989l-49.546 74.786a52.407 52.407 0 0 0-8.717 28.942v32.651h24.893v-32.651a52.407 52.407 0 0 1 8.717-28.942l49.546-74.786a37.176 37.176 0 0 0 4.037-32.989z" fill="#ffb09e"></path><path d="m345.858 173.848-14.47 47.91-7.59 25.12-31.42-2.57-24.85-2.03c-.29-.02-.58-.05-.87-.09a25.079 25.079 0 0 1-20.16-15.07l-1.3-3.05c-4.23-9.92.83-21.34 11.01-24.86l3.73-1.29 50.67-17.53c8.76-3.03 17.86-4.98 27.09-5.81z" fill="#ffcebf"></path><path d="m342.423 185.228 3.438-11.381-8.159.731c-2.178.195-4.348.458-6.508.778a22.256 22.256 0 0 1 11.229 9.872z" fill="#ffb09e"></path><path d="m167.978 234.738-.31.09c-11.41 3.4-23.3-1.18-29.67-10.5a26.566 26.566 0 0 1-3.57-7.47l-11.7-39.25c-3.74-12.53 2.16-25.66 13.4-31.4.01 0 .01 0 .01-.01 1.43-.74 2.96-1.35 4.56-1.83l.31-.09c14.15-4.22 29.03 3.83 33.24 17.97l11.71 39.25c4.21 14.14-3.83 29.03-17.98 33.24z" fill="#ffcebf"></path><path d="m167.978 234.738-.31.09c-11.41 3.4-23.3-1.18-29.67-10.5 7.61 5.77 20.33 2.6 23.26-8.27 1.25-4.62 1.27-9.63-.2-14.56l-11.7-39.25a26.627 26.627 0 0 0-13.23-16.04c.01 0 .01 0 .01-.01 1.43-.74 2.96-1.35 4.56-1.83l.31-.09c14.15-4.22 29.03 3.83 33.24 17.97l11.71 39.25c4.21 14.14-3.83 29.03-17.98 33.24z" fill="#ffb09e"></path><path d="m224.918 237.528-.31.09c-11.41 3.4-23.29-1.17-29.66-10.48a26.436 26.436 0 0 1-3.58-7.49l-20.57-68.97c-3.73-12.54 2.16-25.66 13.41-31.4l.01-.01a26.8 26.8 0 0 1 4.56-1.83l.31-.09c14.14-4.22 29.02 3.83 33.24 17.97l20.56 68.97c4.22 14.14-3.83 29.02-17.97 33.24z" fill="#ffcebf"></path><path d="m224.918 237.528-.31.09c-11.41 3.4-23.29-1.17-29.66-10.48 7.6 5.75 20.31 2.58 23.25-8.29 1.24-4.62 1.27-9.63-.2-14.56l-20.57-68.97c-2.14-7.2-7.06-12.82-13.22-16.04l.01-.01a26.8 26.8 0 0 1 4.56-1.83l.31-.09c14.14-4.22 29.02 3.83 33.24 17.97l20.56 68.97c4.22 14.14-3.83 29.02-17.97 33.24z" fill="#ffb09e"></path><path d="M331.908 224.498v14.93c.035 2.512-1.775 5.966-4.68 6.92l-55.37 22.47c-.08.04-.17.07-.26.1-.21.08-23.64 8.94-27.53 28.2a7.507 7.507 0 0 1-7.34 6.02c-.5 0-.99-.05-1.5-.15-4.06-.82-6.68-4.78-5.86-8.84 5.43-26.87 34.3-38.27 36.96-39.27l26.05-10.57-24.85-2.03c-.29-.02-.58-.05-.87-.09a25.079 25.079 0 0 1-20.16-15.07l-1.3-3.05c-4.23-9.92.83-21.34 11.01-24.86l3.73-1.29c-2.94 1.02-5.91 4.04-7.17 6.89a10.969 10.969 0 0 0-.06 8.84l1.3 3.05c2.57 6.03 8.22 10.1 14.75 10.63l48.15 3.94v-6.77c0-4.14 3.36-7.5 7.5-7.5 3.18 0 5.89 1.97 6.98 4.76.34.85.52 1.77.52 2.74z" fill="#ffb09e"></path><circle cx="156.61" cy="464.386" fill="#26a6fe" r="7.396"></circle></g></svg>