<svg viewBox="0 0 497 497" xmlns="http://www.w3.org/2000/svg"><g><path d="M323.479 174.205v282.606H130.571v-62.369a86.639 86.639 0 0 0-7.788-35.899l-5.645-12.398a86.639 86.639 0 0 1-7.788-35.899v-83.609c0-11.965 1.721-23.869 5.111-35.344l8.218-27.825z" fill="#ffcebf"></path><path d="M298.343 358.183h25.136v98.628h-25.136zM296.713 0c14.782 0 26.766 11.983 26.766 26.766v168.132h-53.532V26.766C269.947 11.983 281.93 0 296.713 0z" fill="#ffb09e"></path><path d="M296.713 0c-4.543 0-8.82 1.136-12.568 3.133 8.446 4.501 14.198 13.394 14.198 23.633v168.132h25.136V26.766C323.479 11.983 311.495 0 296.713 0z" fill="#f99e8a"></path><path d="M124.478 497h204.435c7.071 0 12.804-5.732 12.804-12.804v-39.692c0-7.071-5.732-12.804-12.804-12.804H124.478c-7.071 0-12.804 5.732-12.804 12.804v39.692c0 7.072 5.733 12.804 12.804 12.804z" fill="#cde2ff"></path><path d="M328.913 431.701h-25.136c7.071 0 12.804 5.732 12.804 12.804v39.692c0 7.071-5.732 12.804-12.804 12.804h25.136c7.071 0 12.803-5.732 12.803-12.804v-39.692c0-7.072-5.732-12.804-12.803-12.804z" fill="#b3dafe"></path><path d="M168.18 232.91c-2.55.76-5.13 1.13-7.67 1.13-10.62 0-20.48-6.37-24.67-16.45-.37-.87-.69-1.76-.96-2.68l-11.56-38.78c-3.7-12.42 2.04-25.42 13.07-31.27 0 0 .01 0 .01-.01 1.54-.81 3.18-1.49 4.92-2.01 14.17-4.23 29.08 3.83 33.3 18l11.56 38.78c4.22 14.16-3.84 29.07-18 33.29z" fill="#ffcebf"></path><path d="M168.18 232.91c-2.55.76-5.13 1.13-7.67 1.13-10.62 0-20.48-6.37-24.67-16.45 8.78 9.33 27.21 3.13 26.27-11.97-.12-2-.47-4.01-1.07-6l-11.56-38.78a26.632 26.632 0 0 0-13.09-15.98s.01 0 .01-.01c1.54-.81 3.18-1.49 4.92-2.01 14.17-4.23 29.08 3.83 33.3 18l11.56 38.78c4.22 14.16-3.84 29.07-18 33.29z" fill="#ffb09e"></path><path d="M224.86 235.69c-2.55.76-5.12 1.12-7.65 1.12-10.59 0-20.43-6.33-24.64-16.35-.38-.89-.72-1.82-1-2.77l-20.38-68.37c-3.71-12.43 2.04-25.42 13.07-31.28 1.54-.82 3.19-1.5 4.93-2.02 14.16-4.22 29.07 3.84 33.3 18.01l20.38 68.36c4.22 14.17-3.84 29.08-18.01 33.3z" fill="#ffcebf"></path><path d="M224.86 235.69c-2.55.76-5.12 1.12-7.65 1.12-10.59 0-20.43-6.33-24.64-16.35 8.76 9.27 27.13 3.11 26.23-11.99-.11-2.02-.47-4.06-1.07-6.08l-20.38-68.36c-2.13-7.15-6.99-12.74-13.09-15.99 1.54-.82 3.19-1.5 4.93-2.02 14.16-4.22 29.07 3.84 33.3 18.01l20.38 68.36c4.22 14.17-3.84 29.08-18.01 33.3z" fill="#ffb09e"></path><path d="M273.03 209.9c-2.55.76-5.12 1.12-7.65 1.12-10.48 0-20.23-6.2-24.51-16.05-.44-.99-.81-2.02-1.13-3.08l-20.38-68.36c-3.71-12.43 2.04-25.43 13.07-31.28 0 0 .01 0 .01-.01a26.71 26.71 0 0 1 4.92-2.01c14.16-4.22 29.07 3.84 33.3 18l20.38 68.37c4.22 14.16-3.84 29.07-18.01 33.3z" fill="#ffcebf"></path><path d="M273.03 209.9c-2.55.76-5.12 1.12-7.65 1.12-10.48 0-20.23-6.2-24.51-16.05 8.76 9.26 26.79 2.97 26.12-11.94-.09-2.13-.45-4.29-1.09-6.43l-20.38-68.37c-2.13-7.15-6.99-12.74-13.09-15.98 0 0 .01 0 .01-.01a26.71 26.71 0 0 1 4.92-2.01c14.16-4.22 29.07 3.84 33.3 18l20.38 68.37c4.22 14.16-3.84 29.07-18.01 33.3z" fill="#ffb09e"></path><path d="M323.479 371.408v32.51h-55.132V278.117l55.132-33.165 16.605-62.527 16.28 3.105a21.838 21.838 0 0 1 16.486 14.136l12.662 35.615a37.02 37.02 0 0 1-4.019 32.847l-49.333 74.464a52.166 52.166 0 0 0-8.681 28.816z" fill="#ffcebf"></path><path d="m385.51 235.281-12.662-35.615a21.838 21.838 0 0 0-16.486-14.136l-14.558-2.777a21.8 21.8 0 0 1 4.904 7.877l13.666 44.651a37.02 37.02 0 0 1-4.019 32.847l-49.333 74.464a52.176 52.176 0 0 0-8.68 28.817v32.51h25.136v-32.51a52.176 52.176 0 0 1 8.68-28.817l49.333-74.464a37.02 37.02 0 0 0 4.019-32.847z" fill="#ffb09e"></path><path d="m340.08 182.42-12.75 48.03-3.85 14.5-13.63-6.37-25.18-11.77c-14.34-6.7-20.64-23.68-14.14-38.12 4.63-10.29 15.57-16.17 26.65-14.43.28.04.55.09.83.14z" fill="#ffcebf"></path><path d="M332.38 237.56v.12l-.14 11.82a7.503 7.503 0 0 1-7.5 7.41h-.09a7.49 7.49 0 0 1-7.27-6.06l-43.76 26.33c-4.18 2.48-15.71 10.43-19.34 17.67a7.51 7.51 0 0 1-6.71 4.14c-1.13 0-2.28-.26-3.36-.8-3.7-1.86-5.19-6.37-3.34-10.07 6.26-12.46 23.16-22.7 25.07-23.83l43.91-25.71-25.18-11.77c-14.34-6.7-20.64-23.68-14.14-38.12 4.63-10.29 15.57-16.17 26.65-14.43a17.453 17.453 0 0 0-18.41 10.15c-4.79 10.63-.09 23.3 10.48 28.24l38.08 17.8c1.595.613 4.696 2.742 4.98 6.13.061.371.003.005.07.98z" fill="#ffb09e"></path><circle cx="153.524" cy="464.505" fill="#26a6fe" r="7.427"></circle></g></svg>