<svg viewBox="0 0 512 512" xmlns="http://www.w3.org/2000/svg"><g><path d="M238.435 445.595v7.479c0 17.935-14.536 32.471-32.471 32.471h-48.377l-37.004-27.578-39.734 27.578H32.471C14.536 485.545 0 471.009 0 453.074v-7.479c0-49.953 36.139-91.47 83.692-99.814a100.878 100.878 0 0 1 17.668-1.545h35.716c6.026 0 11.929.525 17.667 1.545 47.554 8.344 83.692 49.86 83.692 99.814z" fill="#f5f8f9"></path><path d="M79.736 485.543H32.461C14.536 485.543 0 471.008 0 453.072v-7.479c0-55.98 45.38-101.36 101.36-101.36h35.706c1.947 0 3.873.052 5.79.175-53.291 2.987-95.58 47.141-95.58 101.184v7.479c-.001 17.937 14.535 32.472 32.46 32.472z" fill="#d9e7ec"></path><path d="m154.743 345.78-14.67 43.35-22.324 19.501-19.387-19.501-14.67-43.35a100.878 100.878 0 0 1 17.668-1.545h35.716c6.026 0 11.929.525 17.667 1.545z" fill="#26a6fe"></path><path d="M98.365 389.126h41.705l17.516 96.42H80.849z" fill="#60b7ff"></path><path d="M148.886 127.723H90.919c-42.759 0-77.422 34.663-77.422 77.422s34.663 77.422 77.422 77.422h57.967c42.759 0 77.422-34.663 77.422-77.422s-34.663-77.422-77.422-77.422z" fill="#7a6d79"></path><path d="M87.556 259.9c14.021 14.01 33.368 22.674 54.754 22.674H90.914c-21.376 0-40.733-8.664-54.744-22.674s-22.674-33.378-22.674-54.754c0-42.753 34.665-77.418 77.418-77.418h51.396c-42.763 0-77.428 34.666-77.428 77.418 0 21.376 8.664 40.743 22.674 54.754z" fill="#685e68"></path><path d="M232.943 268.189c-.365 10.398-9.224 18.491-19.628 18.491h-10.121c-8.993 38.055-43.165 66.395-83.98 66.395-40.806 0-74.977-28.34-83.98-66.395H25.121c-10.404 0-19.263-8.093-19.628-18.491-.383-10.916 8.35-19.884 19.17-19.884h.003c6.113-.092 12.134 1.607 17.265 4.932 10.968 7.111 24.052 11.241 38.094 11.241 33.625 0 61.708-23.674 68.517-55.259 7.922 22.757 29.546 39.085 55.001 39.085h10.23c10.82.001 19.553 8.969 19.17 19.885z" fill="#ffdfcf"></path><path d="M119.853 353.065c-.216.01-.422.01-.639.01-40.805 0-74.976-28.34-83.98-66.395H25.118c-10.405 0-19.254-8.097-19.625-18.492-.381-10.91 8.355-19.883 19.172-19.883h.474c5.954 0 11.796 1.689 16.792 4.935 10.796 6.995 23.643 11.105 37.437 11.239a94.356 94.356 0 0 0-.639 10.982c-.001 32.277 16.307 60.74 41.124 77.604z" fill="#ffcebf"></path><path d="m508.693 99.905-50.591-67.003c-6.495-8.602-19.414-8.602-25.909 0l-50.591 67.003c-8.075 10.694-.446 26.013 12.954 26.013h17.703v341.527c0 9.996 8.103 18.1 18.1 18.1h29.576c9.996 0 18.1-8.103 18.1-18.1V125.919h17.703c13.4 0 21.029-15.32 12.955-26.014z" fill="#9be69d"></path><path d="m379.994 303.145-50.591-67.003c-6.495-8.602-19.414-8.602-25.909 0l-50.591 67.003c-8.075 10.694-.446 26.013 12.954 26.013h17.703v138.287c0 9.996 8.103 18.1 18.1 18.1h29.576c9.996 0 18.1-8.103 18.1-18.1V329.159h17.703c13.401 0 21.03-15.319 12.955-26.014z" fill="#60b7ff"></path><path d="M404.897 99.911c-8.076 10.693-.443 26.012 12.949 26.012h17.709v341.526c0 9.993 8.097 18.1 18.1 18.1h-23.292c-10.003 0-18.1-8.108-18.1-18.1V125.923h-17.709c-13.403 0-21.026-15.319-12.949-26.012l50.592-67.003c6.078-8.056 17.812-8.571 24.601-1.525-.464.464-.896.979-1.308 1.525z" fill="#6fd7a3"></path><path d="M276.196 303.145c-8.077 10.693-.443 26.012 12.96 26.012h17.698v138.291c0 9.993 8.108 18.1 18.1 18.1h-23.293c-10.003 0-18.1-8.108-18.1-18.1V329.157h-17.709c-13.392 0-21.026-15.319-12.949-26.012l50.592-67.003c6.078-8.056 17.791-8.571 24.601-1.535-.464.474-.896.989-1.308 1.535z" fill="#26a6fe"></path></g></svg>