<svg viewBox="0 0 511.335 511.335" xmlns="http://www.w3.org/2000/svg"><g><circle cx="264.466" cy="264.466" fill="#ff6c6c" r="246.869" transform="rotate(-45 264.438 264.534)"></circle><path d="M264.465 17.598v493.737c136.124 0 246.869-110.745 246.869-246.869S400.589 17.598 264.465 17.598z" fill="#e63950"></path><ellipse cx="264.466" cy="264.466" fill="#f0f7ff" rx="164.058" ry="164.059" transform="rotate(-9.5 264.93 264.869)"></ellipse><path d="M264.465 100.407v328.117c90.462 0 164.059-73.597 164.059-164.059 0-90.461-73.597-164.058-164.059-164.058z" fill="#dfe7f4"></path><circle cx="264.466" cy="264.466" fill="#ff6c6c" r="81.248" transform="rotate(-63 264.552 264.487)"></circle><path d="M264.465 183.218v162.496c44.801 0 81.249-36.447 81.249-81.248s-36.448-81.248-81.249-81.248z" fill="#e63950"></path><path d="M182.857 76.933 110.318 4.394a14.997 14.997 0 0 0-24.662 5.368L70.809 49.597l4.241 25.454-25.454-4.241L9.762 85.656a15.002 15.002 0 0 0-5.368 24.662l72.539 72.539a14.996 14.996 0 0 0 13.282 4.154l71.711-13a15.004 15.004 0 0 0 12.084-12.084l13-71.711a15.003 15.003 0 0 0-4.153-13.283z" fill="#29376d"></path><path d="M275.072 253.859 70.809 49.597 65.05 65.051 49.596 70.81l204.263 204.263a14.953 14.953 0 0 0 10.606 4.393c3.839 0 7.678-1.465 10.606-4.393 5.859-5.858 5.859-15.356.001-21.214z" fill="#47568c"></path></g></svg>