<svg viewBox="0 0 512 512" xmlns="http://www.w3.org/2000/svg"><g><path d="M67.435 342.489c0-2.206 1.794-4 4-4h75.056c2.206 0 4 1.794 4 4v78.956h68.849l1.096.04V222c0-2.206 1.794-4 4-4h75.056c2.206 0 4 1.794 4 4v149.445h71.394V253.966a4.296 4.296 0 0 1 4.291-4.291h79.419a4.296 4.296 0 0 1 4.29 4.291v144.315C487.015 360.333 501 315.302 501 267c0-135.31-109.69-245-245-245S11 131.69 11 267c0 59.47 21.195 113.986 56.435 156.42z" fill="#c8effe"></path><path d="M305.011 27.546c-6.448.303-11.408 5.858-11.408 12.313V76.55a2.086 2.086 0 0 1-4.172 0V17.332c0-6.455-4.961-12.009-11.408-12.313-6.884-.324-12.567 5.161-12.567 11.974V76.43c0 1.091-.785 2.085-1.871 2.194a2.086 2.086 0 0 1-2.301-2.075V11.988C261.284 5.367 255.917 0 249.296 0c-6.621 0-11.988 5.367-11.988 11.988v64.443c0 1.091-.785 2.085-1.871 2.194a2.086 2.086 0 0 1-2.301-2.075V33.601c0-6.455-4.961-12.009-11.409-12.313-6.884-.324-12.567 5.161-12.567 11.974v84.451l-13.015-13.015c-5.524-5.524-14.479-5.524-20.003 0-5.524 5.524-5.524 14.479 0 20.003l46.302 48.33c3.182 2.623 4.928 6.606 4.928 10.73v1.248c.031-.001.06-.009.091-.009h69c.049 0 .095.011.143.014.264-4.203 2.404-8.066 5.845-10.554 9.164-6.625 15.128-17.399 15.128-29.571V39.52c0-6.813-5.683-12.298-12.568-11.974z" fill="#ffcebf"></path><path d="M227.372 185.009c.031-.001.06-.009.091-.009h25.331v-1.238c0-4.124-1.745-8.107-4.928-10.73l-46.302-48.33c-4.583-4.583-5.351-11.524-2.328-16.912l-3.091-3.091c-5.524-5.524-14.479-5.524-20.003 0-5.524 5.524-5.524 14.479 0 20.003l46.302 48.33c3.182 2.623 4.928 6.606 4.928 10.73z" fill="#ffb09e"></path><path d="M299.463 218v-31a3 3 0 0 0-3-3h-69a3 3 0 0 0-3 3v31z" fill="#ffc344"></path><path d="M252 184h-24.537a3 3 0 0 0-3 3v31H249v-31a3 3 0 0 1 3-3z" fill="#feb137"></path><path d="M219.435 509.281A246.832 246.832 0 0 0 256 512c16.602 0 32.815-1.661 48.49-4.808V222a5 5 0 0 0-5-5h-75.056a5 5 0 0 0-5 5v287.281z" fill="#ffe177"></path><path d="M249 222a5 5 0 0 1 5-5h-29.565a5 5 0 0 0-5 5v287.281A246.77 246.77 0 0 0 249 511.89z" fill="#ffd15b"></path><path d="M461.933 90.182c-6.448.303-11.409 5.858-11.409 12.313v36.692a2.086 2.086 0 0 1-4.172 0V79.969c0-6.455-4.961-12.009-11.409-12.313-6.884-.324-12.567 5.162-12.567 11.974v59.437c0 1.091-.785 2.085-1.871 2.194a2.086 2.086 0 0 1-2.301-2.075V74.624c0-6.621-5.367-11.988-11.988-11.988s-11.988 5.367-11.988 11.988v64.443c0 1.091-.785 2.085-1.871 2.194a2.087 2.087 0 0 1-2.301-2.075V96.238c0-6.455-4.961-12.009-11.409-12.313-6.884-.324-12.567 5.161-12.567 11.974v84.451l-13.015-13.015c-5.523-5.524-14.479-5.524-20.003 0-5.524 5.523-5.524 14.479 0 20.003l46.302 48.33c3.182 2.623 4.928 6.606 4.928 10.73v3.277h69.181v-1.156c0-4.538 2.22-8.763 5.898-11.421 9.164-6.625 15.128-17.4 15.128-29.572V102.157c.001-6.813-5.682-12.299-12.566-11.975z" fill="#ffb09e"></path><path d="M384.294 246.398v3.277h25.079v-3.277c0-4.124-1.746-8.107-4.928-10.73l-46.302-48.33c-4.645-4.645-5.368-11.71-2.2-17.127l-2.876-2.876c-5.523-5.524-14.479-5.524-20.003 0-5.524 5.523-5.524 14.479 0 20.003l46.302 48.33c3.182 2.623 4.928 6.606 4.928 10.73z" fill="#f89580"></path><path d="M463.884 396.679V253.966a5.291 5.291 0 0 0-5.291-5.291h-79.419a5.291 5.291 0 0 0-5.291 5.291v227.848c36.788-20.231 67.81-49.637 90.001-85.135z" fill="#05e39c"></path><path d="M373.884 253.966v227.848a245.237 245.237 0 0 0 27.076-17.299V253.966a5.291 5.291 0 0 1 5.291-5.291h-27.076a5.29 5.29 0 0 0-5.291 5.291z" fill="#0ed290"></path><path d="M152.011 172.451c-6.448.303-11.408 5.858-11.408 12.313v36.692a2.086 2.086 0 0 1-4.172 0v-59.218c0-6.455-4.961-12.009-11.408-12.313-6.884-.324-12.567 5.161-12.567 11.974v59.437c0 1.091-.785 2.085-1.871 2.194a2.086 2.086 0 0 1-2.301-2.075v-64.562c0-6.621-5.367-11.988-11.988-11.988-6.621 0-11.988 5.367-11.988 11.988v64.443c0 1.091-.785 2.085-1.871 2.194a2.086 2.086 0 0 1-2.301-2.075v-42.949c0-6.455-4.961-12.009-11.409-12.313-6.884-.324-12.567 5.161-12.567 11.974v84.451l-13.015-13.015c-5.524-5.524-14.479-5.524-20.003 0-5.524 5.524-5.524 14.479 0 20.003l46.302 48.33c3.182 2.623 4.928 6.606 4.928 10.73v9.822h69.181v-7.702c0-4.538 2.22-8.763 5.898-11.422 9.164-6.625 15.128-17.399 15.128-29.571V184.426c0-6.813-5.683-12.299-12.568-11.975z" fill="#ec806b"></path><path d="M74.372 328.667v9.822h21.421v-9.822c0-4.124-1.745-8.107-4.928-10.73l-46.302-48.33c-5.284-5.284-5.5-13.701-.673-19.258l-.745-.745c-5.524-5.524-14.479-5.524-20.003 0-5.524 5.524-5.524 14.479 0 20.003l46.302 48.33c3.183 2.623 4.928 6.606 4.928 10.73z" fill="#c5715a"></path><path d="M66.435 422.208c22.946 27.992 51.97 50.802 85.056 66.43V342.49a5 5 0 0 0-5-5H71.435a5 5 0 0 0-5 5z" fill="#fd6930"></path><path d="M100 342.49a5 5 0 0 1 5-5H71.435a5 5 0 0 0-5 5v79.718A246.352 246.352 0 0 0 100 455.907z" fill="#fd5426"></path><path d="M228.143 260.388c-6.596.31-11.671 5.993-11.671 12.596v37.537a2.134 2.134 0 0 1-4.268 0v-60.582c0-6.604-5.075-12.286-11.671-12.596-7.043-.332-12.857 5.28-12.857 12.25v60.806c0 1.116-.803 2.133-1.914 2.245a2.135 2.135 0 0 1-2.354-2.123v-66.049c0-6.773-5.491-12.264-12.264-12.264s-12.264 5.491-12.264 12.264v65.927c0 1.116-.803 2.133-1.914 2.244a2.135 2.135 0 0 1-2.354-2.123v-43.938c0-6.604-5.075-12.286-11.671-12.596-7.043-.332-12.857 5.28-12.857 12.25v86.396l-13.315-13.315c-5.651-5.651-14.813-5.651-20.463 0-5.651 5.651-5.651 14.812 0 20.463l47.368 49.443c3.256 2.683 5.041 6.758 5.041 10.977v1.253c.031-.001.061-.009.093-.009h70.589c.051 0 .098.011.148.015.277-4.291 2.464-8.234 5.978-10.774 9.375-6.777 15.477-17.8 15.477-30.253V272.638c0-6.97-5.814-12.582-12.857-12.25z" fill="#ffb09e"></path><path d="M148.716 421.455c.031-.001.061-.009.093-.009h25.839v-1.244c0-4.219-1.786-8.294-5.041-10.977l-47.368-49.443c-4.703-4.702-5.477-11.83-2.353-17.349l-3.115-3.115c-5.651-5.651-14.813-5.651-20.463 0-5.651 5.651-5.651 14.812 0 20.463l47.368 49.443c3.256 2.683 5.041 6.758 5.041 10.977v1.254z" fill="#f89580"></path><path d="M222.467 455.206v-31.691a3.069 3.069 0 0 0-3.069-3.069h-70.589a3.069 3.069 0 0 0-3.069 3.069v31.691z" fill="#feb137"></path><path d="M174.069 420.445h-25.261a3.069 3.069 0 0 0-3.069 3.069v31.691H171v-31.691a3.069 3.069 0 0 1 3.069-3.069z" fill="#f6ab31"></path><path d="M222.495 454.205h-76.784a5.115 5.115 0 0 0-5.115 5.115v23.836a243.353 243.353 0 0 0 87.015 27.197V459.32a5.116 5.116 0 0 0-5.116-5.115z" fill="#ffc344"></path><path d="M165.985 459.321a5.115 5.115 0 0 1 5.115-5.115h-25.39a5.115 5.115 0 0 0-5.115 5.115v23.836a243.476 243.476 0 0 0 25.39 11.759z" fill="#feb137"></path><path d="M383.143 210.388c-6.596.31-11.671 5.993-11.671 12.596v37.537a2.134 2.134 0 0 1-4.268 0v-60.582c0-6.604-5.075-12.286-11.671-12.596-7.043-.332-12.857 5.28-12.857 12.25v60.806c0 1.116-.803 2.133-1.914 2.245a2.135 2.135 0 0 1-2.354-2.123v-66.049c0-6.773-5.491-12.264-12.264-12.264s-12.264 5.491-12.264 12.264v65.927c0 1.116-.803 2.133-1.914 2.244a2.135 2.135 0 0 1-2.354-2.123v-43.938c0-6.604-5.075-12.286-11.671-12.596-7.043-.332-12.857 5.28-12.857 12.25v86.396l-13.315-13.315c-5.651-5.651-14.813-5.651-20.463 0-5.651 5.651-5.651 14.812 0 20.463l47.368 49.443c3.256 2.683 5.041 6.758 5.041 10.977v1.253c.031-.001.061-.009.093-.009h70.589c.051 0 .098.011.148.015.277-4.291 2.464-8.234 5.978-10.774 9.375-6.777 15.477-17.8 15.477-30.253V222.638c0-6.97-5.814-12.582-12.857-12.25z" fill="#ec806b"></path><path d="M303.716 371.455c.031-.001.061-.009.093-.009h25.839v-1.244c0-4.219-1.786-8.294-5.041-10.977l-47.368-49.443c-4.703-4.702-5.477-11.83-2.353-17.349l-3.115-3.115c-5.651-5.651-14.813-5.651-20.463 0-5.651 5.651-5.651 14.812 0 20.463l47.368 49.443c3.256 2.683 5.041 6.758 5.041 10.977v1.254z" fill="#c5715a"></path><path d="M377.467 405.206v-31.691a3.069 3.069 0 0 0-3.069-3.069h-70.589a3.069 3.069 0 0 0-3.069 3.069v31.691z" fill="#01c0fa"></path><path d="M334.273 405.206v-31.691a3.069 3.069 0 0 1 3.069-3.069h-33.533a3.069 3.069 0 0 0-3.069 3.069v31.691z" fill="#08a9f1"></path><path d="M377.495 404.205h-76.784a5.115 5.115 0 0 0-5.115 5.115v99.478a243.414 243.414 0 0 0 87.015-32.013V409.32a5.116 5.116 0 0 0-5.116-5.115z" fill="#08a9f1"></path><path d="M329 409.321a5.115 5.115 0 0 1 5.115-5.115H300.71a5.115 5.115 0 0 0-5.115 5.115v99.478A243.713 243.713 0 0 0 329 500.915z" fill="#0290cf"></path></g></svg>