<svg viewBox="0 0 64 64" xmlns="http://www.w3.org/2000/svg"><g><path d="M17 11h30v50H17z" fill="#e9f1f2"></path><path d="M47 55v6H17V11h10v33a10.994 10.994 0 0 0 11 11z" fill="#d0d8da"></path><path d="M26 47h6v14h-6zM32 47h6v14h-6z" fill="#84d2f4"></path><path d="M32 53.22V61h-6V47h1.42A10.977 10.977 0 0 0 32 53.22zM38 55v6h-6v-7.78A10.88 10.88 0 0 0 38 55zM21 37h4v4h-4z" fill="#57b7eb"></path><path d="M30.148 37h4v4h-4zM39 37h4v4h-4z" fill="#84d2f4"></path><path d="M21 29h4v4h-4z" fill="#57b7eb"></path><path d="M30.148 29h4v4h-4zM39 29h4v4h-4zM30.148 21h4v4h-4z" fill="#84d2f4"></path><path d="M21 21h4v4h-4z" fill="#57b7eb"></path><path d="M39 21h4v4h-4z" fill="#84d2f4"></path><path d="M43 25h-4v-4zM34 25h-4v-4z" fill="#57b7eb"></path><path d="M25 25h-4v-4z" fill="#4891d3"></path><path d="M43 33h-4v-4zM34 33h-4v-4z" fill="#57b7eb"></path><path d="M25 33h-4v-4z" fill="#4891d3"></path><path d="M43 41h-4v-4zM34 41h-4v-4zM32 47v14h6z" fill="#57b7eb"></path><path d="M26 47v14h6zM38 61h-6v-7.78a10.852 10.852 0 0 0 3.28 1.44z" fill="#4891d3"></path><path d="M31.5 47h1v14h-1z" fill="#e9f1f2"></path><path d="m32 3 1.854 3.757L38 7.359l-3 2.925.708 4.129L32 12.463l-3.708 1.95.708-4.129-3-2.925 4.146-.602zM45 7l1.545 3.131 3.455.502-2.5 2.437.59 3.441L45 14.886l-3.09 1.625.59-3.441-2.5-2.437 3.455-.502zM56 14l1.236 2.505 2.764.401-2 1.95.472 2.752L56 20.309l-2.472 1.299.472-2.752-2-1.95 2.764-.401zM8 14l1.236 2.505 2.764.401-2 1.95.472 2.752L8 20.309l-2.472 1.299L6 18.856l-2-1.95 2.764-.401zM19 7l1.545 3.131 3.455.502-2.5 2.437.59 3.441L19 14.886l-3.09 1.625.59-3.441-2.5-2.437 3.455-.502z" fill="#f9e109"></path><path d="m32 3-.081 3.762a2 2 0 0 0 2.726 1.906L38 7.359l-3 2.925.708 4.129L32 12.463l-3.708 1.95.708-4.129-3-2.925 4.146-.6zM45 7l-.2 2.263a2 2 0 0 0 2.522 2.105L50 10.633l-2.5 2.437.59 3.441L45 14.886l-3.09 1.625.59-3.441-2.5-2.437 3.455-.5zM56 14l-.218 1.573A2 2 0 0 0 58.72 17.6l1.28-.7-2 1.95.472 2.752L56 20.309l-2.472 1.3.472-2.753-2-1.95 2.764-.4z" fill="#fcbc04"></path><path d="m8 14 1.236 2.505 2.764.401-2 1.95.472 2.752L8 20.309l-2.472 1.299L6 18.856l-2-1.95 2.764-.401zM19 7l1.545 3.131 3.455.502-2.5 2.437.59 3.441L19 14.886l-3.09 1.625.59-3.441-2.5-2.437 3.455-.502z" fill="#f9e109"></path><path d="m19 7-.2 2.263a2 2 0 0 0 2.522 2.105L24 10.633l-2.5 2.437.59 3.441L19 14.886l-3.09 1.625.59-3.441-2.5-2.437 3.455-.5zM8 14l-.218 1.573A2 2 0 0 0 10.72 17.6l1.28-.7-2 1.95.472 2.752L8 20.309l-2.472 1.3L6 18.856l-2-1.95 2.764-.4z" fill="#fcbc04"></path><path d="M3 27h14v34H3z" fill="#d0d8da"></path><path d="M17 27v34H3v-5.2a10.017 10.017 0 0 0 8-9.8V27z" fill="#93999a"></path><path d="M13 31h4v4h-4z" fill="#57b7eb"></path><path d="M3 31h4v4H3z" fill="#84d2f4"></path><path d="M13 39h4v4h-4z" fill="#57b7eb"></path><path d="M3 39h4v4H3z" fill="#84d2f4"></path><path d="M13 47h4v4h-4z" fill="#57b7eb"></path><path d="M3 47h4v4H3z" fill="#84d2f4"></path><path d="M17 51h-4v-4z" fill="#4891d3"></path><path d="M7 51H3v-4zM7 43H3v-4zM7 35H3v-4z" fill="#57b7eb"></path><path d="M17 43h-4v-4zM17 35h-4v-4z" fill="#4891d3"></path><path d="M47 27h14v34H47z" fill="#e9f1f2"></path><path d="M47 27v34h14v-5.2a10.017 10.017 0 0 1-8-9.8V27z" fill="#d0d8da"></path><path d="M51 31h6v4h-6zM51 39h6v4h-6zM51 47h6v4h-6z" fill="#84d2f4"></path><g fill="#57b7eb"><path d="M57 51h-6v-4zM57 43h-6v-4zM57 35h-6v-4z" fill="#57b7eb"></path><path d="M51 31h2v4h-2zM51 39h2v4h-2zM54.34 51H51v-4h2.05a9.921 9.921 0 0 0 1.29 4z" fill="#57b7eb"></path><path d="M51 31h2v4h-2zM51 39h2v4h-2zM54.34 51H51v-4h2.05a9.921 9.921 0 0 0 1.29 4z" fill="#57b7eb"></path></g><path d="M53 35h-2v-4l2 1.33zM53 43h-2v-4l2 1.33zM54.34 51H51v-4l2.33 1.56A10.051 10.051 0 0 0 54.34 51z" fill="#4891d3"></path><path d="M32.5 53.53V61h-1v-8.12a11.432 11.432 0 0 0 1 .65z" fill="#d0d8da"></path></g></svg>