<svg viewBox="0 0 682.667 682.667" xmlns="http://www.w3.org/2000/svg"><g><defs><clippath clippathunits="userSpaceOnUse" id="a"><path d="M0 512h512V0H0Z" fill="#000000"></path></clippath></defs><g clip-path="url(#a)" transform="matrix(1.33333 0 0 -1.33333 0 682.667)"><path d="M0 0c-3.77 2.835-5.24 7.743-3.601 12.166a35.637 35.637 0 0 1 2.216 12.411c0 8.301-2.833 15.94-7.584 22.004a10.551 10.551 0 0 0 0 13.062 35.555 35.555 0 0 1 7.584 22.004c0 11.853-5.776 22.353-14.666 28.847-6.874 5.022-14.318 12.837-19.869 22.115-14.358 23.996-42.014 49.805-91.028 30.901a20.368 20.368 0 0 0-14.646 0c-.123.047-.243.09-.366.136h-6.513l-29.403-23.482-19.831-26.012-18.028-21.892 15.321-45.679V8.042l-27.426-18.543-5.409-31.163 4.636-20.089 16.548-8.833c6.065 5.229 10.886 11.926 13.669 19.338l127.75 1.384c5.877-17.441 23.051-31.272 41.528-31.984 25.947-.999 47.296 19.74 47.296 45.464C18.178-21.508 11.039-8.301 0 0" fill="#ccc6ce" transform="translate(427.717 341.962)"></path><path d="m0 0-61.931 23.984-13.453-4.393-43.828-28.69h-63.357l-41.609 33.269h-13.496l-9.659-3.772-12.414-6.73-17.342-24.54-1.717-8.426v-70.225s-.531-.033-1.431-.078l4.08-30.499 48.174-75.874h204.578l6.954 10.3v122.077l35.049 39.792V-12.3C13.017-6.971 6.686-2.751 0 0" fill="#7b6c79" transform="translate(442.712 195.974)"></path><path d="m0 0-52.229-20.398c-5.874-2.417-12.424-6.616-18.507-12.405v-9.211l34.284-41.465 2.884-21.558c2.386.702 3.812 1.126 3.812 1.126v57.304C-29.756-26.57-13.211-10.022 0 0" fill="#665e68" transform="translate(195.379 216.372)"></path><path d="M0 0c0 14.875 7.139 28.083 18.178 36.384 3.77 2.835 5.24 7.742 3.6 12.165a35.67 35.67 0 0 0-2.216 12.412 35.56 35.56 0 0 0 7.584 22.004 10.547 10.547 0 0 1 0 13.061 35.564 35.564 0 0 0-7.584 22.005c0 11.853 5.777 22.352 14.667 28.846 6.874 5.022 14.317 12.838 19.869 22.116 7.014 11.722 17.203 23.874 31.503 31.037-48.786 18.634-76.341-7.101-90.663-31.037-5.501-9.196-12.927-17.044-19.869-22.116-8.89-6.494-14.666-16.993-14.666-28.846 0-8.302 2.833-15.94 7.584-22.005a10.55 10.55 0 0 0 0-13.061 35.555 35.555 0 0 1-7.584-22.004c0-4.373.786-8.561 2.223-12.433 1.641-4.417.158-9.312-3.608-12.144a45.594 45.594 0 0 1-15.561-21.186l4.239-4.51h22.407v-47.647l6.536-7.498c3.686-.8 7.537-1.16 11.497-1.007 10.041.386 19.694 4.651 27.36 11.261C5.997-25.864 0-13.633 0 0" fill="#b7aeb8" transform="translate(200.157 305.579)"></path><path d="M0 0a7.438 7.438 0 0 0-4.753 6.916l-.02 30.467c-11.52-7.54-25.27-11.941-40.038-11.941-1.339 0-2.66.041-3.973.102v-60.016h30.305L.065-12.495.936-.362 0 0" fill="#ffcebe" transform="translate(338.802 236.215)"></path><path d="M0 0c-15.81.206-29.71 4.671-41.09 12.031V-18.5c0-3.064-1.472-4.869-3.168-6.02l-2.616-1.021v-6.749l16.821-27.644H0Z" fill="#ffb1a0" transform="translate(292.858 261.677)"></path><path d="m0 0-26.37 26.954a71.776 71.776 0 0 1-4.209-4.357l-3.573-3.527v-48.469l-13.927-14.568v-36.784l6.372-5.137H4.137l11.405 5.137v42.639A54.5 54.5 0 0 1 0 0" fill="#544e55" transform="translate(151.013 156.625)"></path><path d="M0 0c7.401 0 13.402 6 13.402 13.401v120.193c0 19.806-8.833 37.87-21.618 50.079l-26.461-27.048a54.493 54.493 0 0 1-15.542-38.111V0Z" fill="#665e68" transform="translate(469.526)"></path><path d="M0 0v127.387h-35V0c0-9.665 7.835-17.5 17.5-17.5S0-9.665 0 0" fill="#bd7b62" transform="translate(120.434 130.158)"></path><path d="M0 0h-58.123l-4.393-1.016-8.382-6.61-4.036-10.56v-28.599h96.286v25.433C21.352-9.559 11.792 0 0 0" fill="#bd7b62" transform="translate(187.159 75.874)"></path><path d="M0 0h-64.199c-11.793 0-21.352-9.559-21.352-21.352v-25.433h64.199v25.433C-21.352-9.559-11.792 0 0 0" fill="#ad6a50" transform="translate(134.895 75.874)"></path><path d="m0 0-37.518 123.068-23.088 2.326-17.8-142.313a178.144 178.144 0 0 1 20.531-1.205A150.943 150.943 0 0 1-3.907-8.245C-.618-6.993 1.084-3.349 0 0" fill="#dbedff" transform="translate(352.82 46.605)"></path><path d="m0 0-37.47-122.927c-1.108-3.421.714-7.076 4.09-8.311 8.824-3.228 18.127-5.734 27.867-7.429l15.266 13.256L23.098-4.457l-4.549 6.743z" fill="#b5dcff" transform="translate(270.564 169.707)"></path><path d="M0 0c-.525 4.235-4.386 7.245-8.618 6.717A7.725 7.725 0 0 1-15.335-1.9l5.072-40.941c5.187.357 10.303.986 15.341 1.856z" fill="#8bcaff" transform="translate(315.829 71.681)"></path><path d="M0 0a171.702 171.702 0 0 1 15.329-1.951l5.042 40.692a7.726 7.726 0 0 1-6.718 8.617 7.726 7.726 0 0 1-8.618-6.717Z" fill="#8bcaff" transform="translate(265.052 31.04)"></path><path d="m0 0-12.208 6.755A71.829 71.829 0 0 0-41.586.524c-.348 0-.686.022-1.032.026l-1.38-1.838v-33.996l1.38-1.195c.268-.004.534-.014.804-.014 19.606-.022 36.931 10.337 46.948 25.808z" fill="#b5dcff" transform="translate(335.476 201.743)"></path><path d="M0 0c-11.043.144-21.163 2.348-30.134 6.184l-11.337-5.017-6.281-12.574C-38.155-26.292-21.352-36.748 0-37.03Z" fill="#8bcaff" transform="translate(292.858 202.293)"></path><path d="m0 0 27.707-27.707c3.969-3.969 10.405-3.969 14.374 0l14.094 14.094c3.97 3.97 3.97 10.406 0 14.375l-15.229 15.23z" fill="#938493" transform="translate(205.038 220.144)"></path><path d="M0 0c3.97-3.969 10.406-3.969 14.375 0l27.521 27.521L.853 43.416l-14.947-14.947c-3.97-3.969-3.97-10.405 0-14.375z" fill="#938493" transform="translate(338.885 192.437)"></path><path d="M0 0h-178.578c-5.834 0-10.563-4.729-10.563-10.563v-13.873c0-5.834 4.729-10.564 10.563-10.564H0c5.834 0 10.564 4.73 10.564 10.564v13.873C10.564-4.729 5.834 0 0 0" fill="#ffe559" transform="translate(218.213 35)"></path><path d="m0 0 4.636-2.962h32.58v33.61l-6.002 4.768v.001H8.254c-5.796 0-10.494-4.699-10.494-10.495V4.983Z" fill="#fbc700" transform="translate(31.312 285.36)"></path><path d="M0 0c-5.796 0-10.494 4.698-10.494 10.494v-37.316c0-5.796 4.698-10.494 10.494-10.494h22.96l6.002 2.902V2.901L22.96 0Z" fill="#eab900" transform="translate(39.566 283.46)"></path><path d="M0 0h28.287l4.893 3.391 2.158 4.189v20.304c0 5.796-4.698 10.494-10.494 10.494H1.884L0 36.615Z" fill="#fbc700" transform="translate(141.457 282.398)"></path><path d="M0 0h-22.96l-1.884 2.644v-37.316l1.884-2.644H0c5.795 0 10.494 4.698 10.494 10.494v37.316C10.494 4.698 5.795 0 0 0" fill="#eab900" transform="translate(166.301 283.46)"></path><path d="M143.341 320.776H62.526v-38.378h80.815z" fill="#ffe559"></path><path d="M62.526 246.145h80.815v37.316H62.526Z" fill="#ffd500"></path><path d="M0 0c-22.557-.481-41.799 7.319-54.564 14.455-9.907 5.539-21.964 5.578-31.869.034a123.582 123.582 0 0 0-9.117-4.608L-98.423 4.3v-97.353l17.771-28.588 26.72-14.615 3.864-1.136 4.134-.293c28.617 10.153 49.287 37.788 49.287 69.724v64.734C3.351-1.41 1.817.038 0 0" fill="#ffdecf" transform="translate(363.975 397.472)"></path><path d="M0 0v78.387c-12.326-5.616-28.358-10.434-46.503-9.853-1.829.058-3.384-1.394-3.388-3.224V0c0-38.299 29.987-73.282 75.356-73.335a71.83 71.83 0 0 1 24.151 4.156C19-58.831 0-30.476 0 0" fill="#ffcebe" transform="translate(268.425 328.966)"></path><path d="M0 0h-117.445l-2.558-.555-4.25-3.992-1.84-3.992v-18.544l3.193-5.344 3.637-1.964 2.743-.609H0c5.834 0 10.564 4.729 10.564 10.564v13.872C10.564-4.73 5.834 0 0 0" fill="#ffe559" transform="translate(218.213 35)"></path><path d="M0 0v13.872c0 5.834 4.729 10.564 10.563 10.564h-64.199c-5.833 0-10.563-4.73-10.563-10.564V0c0-5.834 4.73-10.564 10.563-10.564h64.199C4.729-10.564 0-5.834 0 0" fill="#ffd500" transform="translate(93.272 10.564)"></path></g></g></svg>