<svg viewBox="0 0 64 64" xmlns="http://www.w3.org/2000/svg"><g><path d="M32 32h30v30H32z" fill="#d4483d"></path><path d="M62 59.926V32H34.074A29.993 29.993 0 0 0 62 59.926z" fill="#dd5e56"></path><path d="M2 32h30v30H2z" fill="#6ecbf9"></path><path d="M32 59.926V32H4.074A29.993 29.993 0 0 0 32 59.926z" fill="#86dafc"></path><path d="M2 2h30v30H2z" fill="#0f8446"></path><path d="M32 29.926V2H4.074A29.993 29.993 0 0 0 32 29.926z" fill="#079b46"></path><path d="M32 2h30v30H32z" fill="#f8cd8b"></path><path d="M62 29.926V2H34.074A29.993 29.993 0 0 0 62 29.926z" fill="#fadfb8"></path><path d="M62 12v-2h-7V2h-2v8h-5V2h-2v8h-5V2h-2v8h-7v2h7v4h-7v2h7v4h-7v2h7v8h2v-8h5v8h2v-8h5v8h2v-8h7v-2h-7v-4h7v-2h-7v-4zm-21 0h5v4h-5zm0 10v-4h5v4zm12 0h-5v-4h5zm0-6h-5v-4h5z" fill="#f3a947"></path><path d="M55 2h-2v8h-5V2h-2v8h-5V2h-2v8h-3.283c.24.679.509 1.344.8 2H39v4h-.371A29.958 29.958 0 0 0 41 19.251V18h5v4h-2.381A30.045 30.045 0 0 0 48 25.371V24h5v3.905c.656.258 1.322.5 2 .708V24h7v-2h-7v-4h7v-2h-7v-4h7v-2h-7zm-9 14h-5v-4h5zm7 6h-5v-4h5zm0-6h-5v-4h5z" fill="#f4b860"></path><path d="m17 18.414 6.086 6.086-6.793 6.793L17 32h1.414L32 18.414V17l-.707-.707-6.793 6.793L18.414 17 32 3.414V2h-1.414L21.5 11.086 15.414 5l3-3h-2.828L9.5 8.086 3.414 2H2v1.414L8.086 9.5 2 15.586v2.828l3-3 6.086 6.086L2 30.586V32h1.414zM6.414 14 14 6.414l6.086 6.086-7.586 7.586z" fill="#006837"></path><path d="M32 2h-1.414L21.5 11.086 15.414 5l3-3h-2.828L9.5 8.086 4.138 2.724a29.953 29.953 0 0 0 .479 3.307L8.086 9.5l-1.854 1.854c.271.661.57 1.307.885 1.943L14 6.414l6.086 6.086-7.586 7.586-3.453-3.453a30.174 30.174 0 0 0 4.467 5.267L17 18.414l6.086 6.086-2.386 2.383c.636.315 1.282.614 1.943.885L32 18.414V17l-.707-.707-6.793 6.793L18.414 17 32 3.414z" fill="#06723c"></path><g fill="#47a7ed"><path d="M32.707 60.293 32 59.586V61zM32.707 52.293 32 51.586V53zM32.707 44.293 32 43.586V45zM19 33.414l12.293 12.293L32 45v-1.414L20.414 32h-2.828L2 47.586v2.828l13-13L17.586 40 2 55.586v2.828l13-13L17.586 48l-14 14h2.828L15 53.414 17.586 56l-6 6h2.828l.586-.586.586.586h2.828l-2-2L19 57.414 23.586 62h2.828l-10-10L19 49.414l12.293 12.293L32 61v-1.414L16.414 44 19 41.414l12.293 12.293L32 53v-1.414L16.414 36zM10.999 32H9.585L2 39.586v2.828l9.706-9.707zM32.707 35.293 32 34.586V36zM28.707 31.293 28 32h1.414z" fill="#47a7ed"></path></g><path d="M31.293 36.707 32 36v-1.414L29.414 32H28l-.707.707zM5.393 39.02l6.313-6.313L11 32H9.585l-4.8 4.8c.179.748.379 1.491.608 2.22zM17.586 32 6.845 42.741q.449.953.961 1.867L15 37.414 17.586 40l-7.753 7.753c.4.542.81 1.072 1.243 1.585L15 45.414 17.586 48 13.6 51.984a30.015 30.015 0 0 0 8.223 5.427L16.414 52 19 49.414l10.194 10.194q1.383.224 2.806.318v-.34L16.414 44 19 41.414l12.293 12.293L32 53v-1.414L16.414 36 19 33.414l12.293 12.293L32 45v-1.414L20.414 32z" fill="#55b4f0"></path><path d="M53.293 35.293a1 1 0 0 0 0 1.414L56.586 40l-3.293 3.293a1 1 0 0 0 0 1.414L56.586 48l-3.293 3.293a1 1 0 0 0 0 1.414L56.586 56l-3.293 3.293a1 1 0 0 0 0 1.414L54.586 62h2.828l-2-2 3.293-3.293a1 1 0 0 0 0-1.414L55.414 52l3.293-3.293a1 1 0 0 0 0-1.414L55.414 44l3.293-3.293a1 1 0 0 0 0-1.414L55.414 36l3.293-3.293L58 32h-1.414z" fill="#a82e25"></path><path d="M47.293 35.293a1 1 0 0 0 0 1.414L50.586 40l-3.293 3.293a1 1 0 0 0 0 1.414L50.586 48l-3.293 3.293a1 1 0 0 0 0 1.414L50.586 56l-3.293 3.293a1 1 0 0 0 0 1.414L48.586 62h2.828l-2-2 3.293-3.293a1 1 0 0 0 0-1.414L49.414 52l3.293-3.293a1 1 0 0 0 0-1.414L49.414 44l3.293-3.293a1 1 0 0 0 0-1.414L49.414 36l3.293-3.293L52 32h-1.414z" fill="#a82e25"></path><path d="M41.293 35.293a1 1 0 0 0 0 1.414L44.586 40l-3.293 3.293a1 1 0 0 0 0 1.414L44.586 48l-3.293 3.293a1 1 0 0 0 0 1.414L44.586 56l-3.293 3.293a1 1 0 0 0 0 1.414L42.586 62h2.828l-2-2 3.293-3.293a1 1 0 0 0 0-1.414L43.414 52l3.293-3.293a1 1 0 0 0 0-1.414L43.414 44l3.293-3.293a1 1 0 0 0 0-1.414L43.414 36l3.293-3.293L46 32h-1.414z" fill="#a82e25"></path><path d="M35.293 35.293a1 1 0 0 0 0 1.414L38.586 40l-3.293 3.293a1 1 0 0 0 0 1.414L38.586 48l-3.293 3.293a1 1 0 0 0 0 1.414L38.586 56l-3.293 3.293a1 1 0 0 0 0 1.414L36.586 62h2.828l-2-2 3.293-3.293a1 1 0 0 0 0-1.414L37.414 52l3.293-3.293a1 1 0 0 0 0-1.414L37.414 44l3.293-3.293a1 1 0 0 0 0-1.414L37.414 36l3.293-3.293L40 32h-1.414z" fill="#a82e25"></path><path d="M35.293 36.707 38.586 40l-2.051 2.051q.428.974.918 1.91l3.254-3.254a1 1 0 0 0 0-1.414L37.414 36l3.293-3.293L40 32h-1.414l-3.293 3.293a1 1 0 0 0 0 1.414zM40.707 47.293l-3.16-3.16a29.964 29.964 0 0 0 3.081 4.653l.079-.079a1 1 0 0 0 0-1.414z" fill="#c33e37"></path><path d="M41.293 35.293a1 1 0 0 0 0 1.414L44.586 40l-3.293 3.293a1 1 0 0 0 0 1.414L44.586 48l-3.293 3.293a1 1 0 0 0 0 1.414L44.586 56l-3.293 3.293a1 1 0 0 0 0 1.414L42.586 62h2.828l-2-2 3.293-3.293a1 1 0 0 0 0-1.414L43.414 52l3.293-3.293a1 1 0 0 0 0-1.414L43.414 44l3.293-3.293a1 1 0 0 0 0-1.414L43.414 36l3.293-3.293L46 32h-1.414z" fill="#a82e25"></path><path d="M41.293 36.707 44.586 40l-3.293 3.293a1 1 0 0 0 0 1.414L44.586 48 42.1 50.486q.684.729 1.414 1.414l3.193-3.193a1 1 0 0 0 0-1.414L43.414 44l3.293-3.293a1 1 0 0 0 0-1.414L43.414 36l3.293-3.293L46 32h-1.414l-3.293 3.293a1 1 0 0 0 0 1.414z" fill="#c33e37"></path><path d="M47.293 36.707 50.586 40l-3.293 3.293a1 1 0 0 0 0 1.414L50.586 48l-3.293 3.293a1 1 0 0 0 0 1.414L50.586 56l-.547.547q.936.492 1.91.918l.758-.758a1 1 0 0 0 0-1.414L49.414 52l3.293-3.293a1 1 0 0 0 0-1.414L49.414 44l3.293-3.293a1 1 0 0 0 0-1.414L49.414 36l3.293-3.293L52 32h-1.414l-3.293 3.293a1 1 0 0 0 0 1.414z" fill="#c33e37"></path><path d="M53.293 36.707 56.586 40l-3.293 3.293a1 1 0 0 0 0 1.414L56.586 48l-3.293 3.293a1 1 0 0 0 0 1.414L56.586 56l-2.358 2.358q1.066.369 2.169.659l2.31-2.31a1 1 0 0 0 0-1.414L55.414 52l3.293-3.293a1 1 0 0 0 0-1.414L55.414 44l3.293-3.293a1 1 0 0 0 0-1.414L55.414 36l3.293-3.293L58 32h-1.414l-3.293 3.293a1 1 0 0 0 0 1.414z" fill="#c33e37"></path><path d="M62 31H33V2h-2v29H2v2h29v29h2V33h29z" fill="#747574"></path></g></svg>