<svg viewBox="0 0 512 512" xmlns="http://www.w3.org/2000/svg"><g><g clip-rule="evenodd" fill-rule="evenodd"><path d="M296.031 396.577c3.901-2.003 7.736-4.161 11.493-6.406 11.9-7.11 23.466-15.363 33.869-24.526 16.161-14.234 37.984-38.352 31.385-61.96-.094-.335-.205-.672-.309-1.004-.732-2.338-1.729-4.594-3.025-6.675-3.072-4.933-7.581-8.367-13.156-10.053-7.757-2.346-16.445-1.125-24.037 1.254-7.373 2.31-14.45 5.902-20.995 9.977a12.25 12.25 0 0 1-3.746 1.545v-27.885c5.583-2.9 11.389-5.385 17.37-7.259 12.417-3.89 25.973-5.153 38.574-1.342 11.404 3.449 20.717 10.598 27.001 20.689 2.406 3.864 4.277 8.037 5.637 12.379.183.583.346 1.176.511 1.764 2.031 7.266 2.617 14.716 1.783 22.212-2.862 25.729-21.879 48.426-40.63 64.943-11.734 10.335-24.837 19.601-38.291 27.563-5.378 3.182-10.891 6.204-16.519 8.923-3.849 1.859-8.013 3.754-12.095 5.034-.401.126-.811.237-1.215.349-3.706 1.026-7.493.241-10.417-1.817a134.715 134.715 0 0 0 10.472-15.437c2.297-3.95 4.42-8.051 6.34-12.268z" fill="#e68f21"></path><path d="M311.639 260.567H44.134v85.902c0 56.929 46.578 121.112 103.506 121.112h60.492c28.464 0 54.341-16.046 73.101-39.207a138.451 138.451 0 0 0 12.025-17.454c11.58-19.886 18.38-42.697 18.38-64.45V260.567z" fill="#ecbd2c"></path><path d="M311.639 260.567H177.887V467.58h30.246c28.464 0 54.341-16.046 73.101-39.207a138.451 138.451 0 0 0 12.025-17.454c11.58-19.886 18.38-42.697 18.38-64.45v-63.052z" fill="#e68f21"></path><path d="M0 467.58h355.772v.236c0 23.785-22.027 43.184-49.034 43.184H49.034C22.027 511 0 491.602 0 467.816z" fill="#c4cccf"></path><path d="M177.887 467.58h177.886v.236c0 23.785-22.027 43.184-49.034 43.184H177.887z" fill="#90a4ae"></path><g fill="#c4cccf"><path d="M118.048 218.668a8.243 8.243 0 0 1-12.903 10.259c-17.373-21.909-9.98-36.888-2.035-52.989 5.452-11.047 11.259-22.814 3.835-38.581a8.24 8.24 0 1 1 14.904-7.032c10.812 22.961 3.191 38.405-3.964 52.903-5.553 11.251-10.718 21.717.163 35.44zM181.824 218.668a8.242 8.242 0 0 1-12.902 10.259c-17.373-21.909-9.981-36.888-2.035-52.989 5.452-11.047 11.259-22.814 3.835-38.581a8.24 8.24 0 1 1 14.904-7.032c10.812 22.961 3.191 38.405-3.964 52.903-5.554 11.251-10.72 21.717.162 35.44zM245.599 218.668a8.242 8.242 0 0 1-12.902 10.259c-17.373-21.909-9.981-36.888-2.035-52.988 5.452-11.047 11.26-22.815 3.835-38.581a8.24 8.24 0 1 1 14.904-7.032c10.812 22.962 3.191 38.405-3.965 52.903-5.553 11.25-10.718 21.717.163 35.439z" fill="#c4cccf"></path></g></g><circle clip-rule="evenodd" cx="393.29" cy="118.71" fill="#76e2f8" fill-rule="evenodd" r="118.71" transform="rotate(-45 393.299 118.791)"></circle><path clip-rule="evenodd" d="M393.29 0C458.852 0 512 53.148 512 118.71s-53.148 118.71-118.71 118.71z" fill="#3aaaff" fill-rule="evenodd"></path><ellipse clip-rule="evenodd" cx="393.29" cy="118.71" fill="#ffffff" fill-rule="evenodd" rx="96.212" ry="96.213" transform="rotate(-8.5 392.623 118.113)"></ellipse><path d="M341.94 37.414a96.356 96.356 0 0 1 6.613-3.835l5.296 9.172a3.822 3.822 0 1 1-6.629 3.809zm51.35-.376a3.84 3.84 0 0 0 3.839-3.839V22.581c-1.274-.05-2.553-.084-3.839-.084s-2.565.033-3.839.084v10.618a3.84 3.84 0 0 0 3.839 3.839zm96.129 77.833h-10.618a3.84 3.84 0 0 0 0 7.678h10.618c.05-1.274.084-2.553.084-3.839s-.034-2.565-.084-3.839zm-25.388-37.012a3.824 3.824 0 0 0 5.219 1.41l9.172-5.296a96.356 96.356 0 0 0-3.835-6.613l-9.146 5.281a3.82 3.82 0 0 0-1.41 5.218zM348.56 203.845l5.289-9.161a3.83 3.83 0 0 0-6.628-3.839l-5.287 9.157a96.501 96.501 0 0 0 6.626 3.843zm120.704-45.694a3.829 3.829 0 1 0-3.838 6.628l9.157 5.287a96.08 96.08 0 0 0 3.842-6.626zM317.316 79.269a3.83 3.83 0 0 0 3.839-6.628l-9.157-5.287a96.08 96.08 0 0 0-3.842 6.626zm-20.155 43.28h10.618a3.84 3.84 0 0 0 0-7.678h-10.618a97.819 97.819 0 0 0-.084 3.839c.001 1.286.034 2.565.084 3.839zm23.979 42.231a3.824 3.824 0 0 0-3.809-6.629l-9.172 5.295a96.356 96.356 0 0 0 3.835 6.613zM438.02 33.575l-5.289 9.161a3.83 3.83 0 0 0 6.629 3.839l5.287-9.157a96.762 96.762 0 0 0-6.627-3.843zm-40.891 181.264v-10.618a3.84 3.84 0 0 0-7.678 0v10.618c1.274.05 2.553.084 3.839.084a99.804 99.804 0 0 0 3.839-.084zm42.231-23.979a3.824 3.824 0 0 0-6.629 3.809l5.296 9.172a96.356 96.356 0 0 0 6.613-3.835z" fill="#697c86"></path><path d="m465.44 72.64 9.146-5.281a96.356 96.356 0 0 1 3.835 6.613l-9.172 5.296a3.822 3.822 0 1 1-3.809-6.628zm3.824 85.511a3.829 3.829 0 1 0-3.838 6.628l9.157 5.287a96.08 96.08 0 0 0 3.842-6.626zM438.02 33.575l-5.289 9.161a3.83 3.83 0 0 0 6.629 3.839l5.287-9.157a96.762 96.762 0 0 0-6.627-3.843zm51.399 81.296h-10.618a3.84 3.84 0 0 0 0 7.678h10.618c.05-1.274.084-2.553.084-3.839s-.034-2.565-.084-3.839zm-92.29-81.672V22.581a97.819 97.819 0 0 0-3.839-.084v14.54a3.838 3.838 0 0 0 3.839-3.838zM439.36 190.86a3.824 3.824 0 0 0-6.629 3.809l5.296 9.172a96.356 96.356 0 0 0 6.613-3.835zm-46.07 24.062a95.91 95.91 0 0 0 3.839-.084V204.22a3.84 3.84 0 0 0-3.839-3.839z" fill="#3b4a51"></path><g clip-rule="evenodd" fill-rule="evenodd"><path d="M397.119 118.71a3.83 3.83 0 0 1-7.658 0V54.062a3.83 3.83 0 0 1 7.658 0z" fill="#697c86"></path><path d="M397.119 118.71a3.83 3.83 0 0 1-3.829 3.829V50.233a3.829 3.829 0 0 1 3.829 3.829z" fill="#3b4a51"></path><path d="M391.39 122.016a3.813 3.813 0 0 1 3.8-6.612l42.848 24.738a3.813 3.813 0 0 1-3.8 6.612z" fill="#3b4a51"></path><path d="M393.29 131.425c7.003 0 12.715-5.712 12.715-12.715 0-7.004-5.712-12.715-12.715-12.715-7.004 0-12.716 5.712-12.716 12.715.001 7.003 5.713 12.715 12.716 12.715z" fill="#697c86"></path><path d="M393.29 105.995c7.022 0 12.715 5.693 12.715 12.715s-5.693 12.715-12.715 12.715z" fill="#3b4a51"></path></g></g></svg>