<svg height="512" viewBox="0 0 48 48" width="512" xmlns="http://www.w3.org/2000/svg"><g id="Icons"><path d="m8 22h4v16h-4z" fill="#6cc48f"/><path d="m22 22h4v16h-4z" fill="#6cc48f"/><path d="m36 22h4v16h-4z" fill="#6cc48f"/><g fill="#45a186"><path d="m14 18v4a1 1 0 0 1 -1 1h-6a1 1 0 0 1 -1-1v-4z"/><path d="m14 42v-4a1 1 0 0 0 -1-1h-6a1 1 0 0 0 -1 1v4z"/><path d="m28 18v4a1 1 0 0 1 -1 1h-6a1 1 0 0 1 -1-1v-4z"/><path d="m28 42v-4a1 1 0 0 0 -1-1h-6a1 1 0 0 0 -1 1v4z"/><path d="m42 18v4a1 1 0 0 1 -1 1h-6a1 1 0 0 1 -1-1v-4z"/><path d="m42 42v-4a1 1 0 0 0 -1-1h-6a1 1 0 0 0 -1 1v4z"/></g><rect fill="#6cc48f" height="4" rx="1" width="42" x="3" y="41"/><path d="m24 3-21 16h42z" fill="#6cc48f"/><circle cx="24" cy="12" fill="#fcd770" r="3"/></g></svg>