<svg viewBox="0 0 512 512" xmlns="http://www.w3.org/2000/svg"><g><path d="M358.081 242.447v65.062h-69.557v176.803h-65.051V307.509h-69.557v-65.062h69.557V174.91h65.051v67.537z" fill="#fcc447"></path><path d="M358.081 242.447v65.062h-69.557v176.803h-65.051l65.051-309.402v67.537z" fill="#ffcf83"></path><path d="M297.234 233.735v-67.536h-82.472v67.536h-69.557v82.484h69.557v176.802h82.472V316.219h69.557v-82.484h-69.557zm52.136 65.063h-69.557V475.6h-47.63V298.798h-69.557v-47.641h69.557V183.62h47.63v67.536h69.557v47.642z" fill="#f2b844"></path><path d="M257.224 122.599a6.97 6.97 0 0 1-6.969-6.968V25.947a6.969 6.969 0 0 1 13.938 0v89.683a6.971 6.971 0 0 1-6.969 6.969zM505.031 283.171h-89.683a6.97 6.97 0 0 1 0-13.937h89.683a6.97 6.97 0 0 1 0 13.937zM369.542 170.136a6.967 6.967 0 0 1-4.927-11.896l63.416-63.416a6.967 6.967 0 0 1 9.853 0 6.967 6.967 0 0 1 0 9.855l-63.416 63.416a6.946 6.946 0 0 1-4.926 2.041zM144.189 168.405a6.95 6.95 0 0 1-4.928-2.041l-63.415-63.416a6.97 6.97 0 0 1 9.855-9.855l63.416 63.416a6.97 6.97 0 0 1-4.928 11.896zM96.652 280.724H6.968a6.969 6.969 0 0 1 0-13.938h89.683a6.969 6.969 0 0 1 6.968 6.969 6.967 6.967 0 0 1-6.967 6.969zM79.044 457.174a6.97 6.97 0 0 1-4.928-11.896l63.416-63.416a6.97 6.97 0 0 1 9.855 9.855L83.97 455.134a6.946 6.946 0 0 1-4.926 2.04zM431.227 458.904a6.946 6.946 0 0 1-4.927-2.041l-63.416-63.416a6.967 6.967 0 0 1 0-9.855 6.966 6.966 0 0 1 9.853 0l63.416 63.416a6.967 6.967 0 0 1 0 9.855 6.944 6.944 0 0 1-4.926 2.041z" fill="#fcc447"></path><path d="M196.157 134.268a6.968 6.968 0 0 1-6.44-4.303l-21.168-51.081a6.968 6.968 0 1 1 12.875-5.335l21.168 51.081a6.968 6.968 0 0 1-6.435 9.638zM403.692 222.101a6.97 6.97 0 0 1-6.44-4.304 6.967 6.967 0 0 1 3.771-9.104l51.08-21.155a6.968 6.968 0 0 1 9.104 3.772 6.967 6.967 0 0 1-3.771 9.104l-51.08 21.155a6.965 6.965 0 0 1-2.664.532zM318.106 135.203a6.968 6.968 0 0 1-6.435-9.638l21.168-51.093a6.968 6.968 0 1 1 12.875 5.335L324.546 130.9a6.972 6.972 0 0 1-6.44 4.303zM109.242 219.838a6.948 6.948 0 0 1-2.663-.532L55.498 198.15a6.968 6.968 0 1 1 5.332-12.876l51.081 21.156a6.968 6.968 0 0 1-2.669 13.408zM57.244 362.958a6.97 6.97 0 0 1-2.669-13.408l51.069-21.155a6.967 6.967 0 0 1 9.104 3.771 6.967 6.967 0 0 1-3.771 9.105l-51.069 21.155a6.953 6.953 0 0 1-2.664.532zM453.834 365.221a6.95 6.95 0 0 1-2.665-.532l-51.08-21.168a6.968 6.968 0 1 1 5.335-12.875l51.08 21.168a6.967 6.967 0 0 1-2.67 13.407z" fill="#f2b844"></path><path d="M279.813 216.36v-32.74h-47.63v67.536h-69.557v47.642h69.557v144.073l-10.545 50.15h-6.876V316.219h-69.557v-82.484h69.557v-67.536h75.597z" fill="#ffcf83"></path></g></svg>