<svg viewBox="0 0 512 512" xmlns="http://www.w3.org/2000/svg"><g><path d="M214.624 0c-56.772 0-102.792 46.02-102.792 102.792v40.677c6.87-6.368 16.643-9.829 26.184-8.555v-5.122c0-4.072 3.477-7.288 7.508-6.983 39.742 2.855 80.188-9.774 110.769-29.751a7 7 0 0 1 8.955 1.092c26.145 28.103 25.987 27.016 25.987 30.684v10.058c10.458-1.567 19.734 1.664 26.179 7.656v-39.757C317.415 46.021 271.396 0 214.624 0z" fill="#576574"></path><path d="M132.437 102.792c0-53.294 40.555-97.112 92.489-102.28A104.077 104.077 0 0 0 214.624 0c-56.772 0-102.792 46.02-102.792 102.792v40.677c5.532-5.127 12.946-8.365 20.605-8.768v-31.909z" fill="#3e4b5a"></path><path d="M289.874 130.808v56.309c0 .61-.032 1.213-.047 1.821 19.927 3.017 35.533-11.381 35.533-29.063.001-17.717-15.619-32.045-35.486-29.067zM139.378 187.117V130.83c-17.348-2.317-35.487 10.997-35.487 29.046 0 17.659 15.572 32.083 35.532 29.062-.015-.608-.045-1.213-.045-1.821z" fill="#f2bb88"></path><path d="M310.479 134.392c-5.778-3.269-12.866-4.744-20.605-3.584v56.309c0 .61-.032 1.213-.047 1.821 7.764 1.176 14.867-.301 20.651-3.578v-50.968h.001zM139.378 185.364c-9.068-5.135-14.882-14.704-14.882-25.489 0-10.577 6.233-19.522 14.882-24.654v-4.392c-17.348-2.317-35.487 10.997-35.487 29.046 0 17.659 15.572 32.083 35.532 29.062-.015-.607-.044-1.213-.044-1.821l-.001-1.752z" fill="#e3a76f"></path><path d="M215.719 261.271c-16.607 0-31.201-4.559-43.137-12.186v40.342l42.952 53.018 42.952-53.018v-41.479c-12.168 8.393-26.9 13.323-42.767 13.323z" fill="#f2bb88"></path><path d="M193.187 258.251c-7.52-2.097-14.422-5.215-20.605-9.166v40.342l20.605 25.433v-56.609z" fill="#e3a76f"></path><path d="m372.114 330.709-113.628-44.005-42.951 53.018-42.953-53.018-113.509 44.005s-42.026 17.278-42.026 65.187v106.328c0 5.399 4.377 9.776 9.776 9.776h377.626c5.352 0 9.691-4.339 9.691-9.691V395.896c.001-47.91-42.026-65.187-42.026-65.187z" fill="#e4eaf8"></path><path d="M37.651 502.224v-116.63c0-31.192 17.812-49.396 30.244-58.305l-8.823 3.42s-42.027 17.277-42.027 65.187v106.328c0 5.399 4.377 9.776 9.776 9.776h20.605c-5.398 0-9.775-4.377-9.775-9.776z" fill="#d8dce5"></path><path d="M265.249 91.427a7.002 7.002 0 0 0-8.956-1.092c-30.581 19.977-71.027 32.606-110.769 29.751-4.031-.305-7.508 2.911-7.508 6.983v61.409c0 39.468 30.925 75.516 77.703 75.516 41.64 0 75.517-33.877 75.517-75.516v-66.367c0-3.668.158-2.581-25.987-30.684z" fill="#f2d1a5"></path><path d="M158.621 188.479v-68.011c-4.365.049-8.735-.067-13.097-.381-4.031-.306-7.508 2.911-7.508 6.983v61.409c0 39.468 30.925 75.516 77.703 75.516 3.119 0 6.188-.213 9.21-.582-37.31-4.56-66.308-36.415-66.308-74.934z" fill="#f2bb88"></path><path d="m267.396 366.964 32.119-64.371-41.028-15.89-42.952 53.018 41.877 29.741c3.388 2.408 8.127 1.222 9.984-2.498z" fill="#d8dce5"></path><path d="m163.732 366.964-32.119-64.371 41.028-15.89 42.952 53.018-41.877 29.741c-3.389 2.408-8.127 1.222-9.984-2.498z" fill="#d8dce5"></path><path d="M215.59 339.758v-.037l-.026.018-.026-.018v.037L185.08 361.39l14.397 21.668h32.174l14.397-21.668-30.458-21.632z" fill="#ee5253"></path><path d="M177.653 512h75.822l-21.824-128.942h-32.174L177.653 512z" fill="#ff6b6b"></path><path d="m225.866 347.056-10.277-7.298v-.037l-.026.018-.026-.018v.037l-30.458 21.632 14.397 21.668h20.605l-11.209-16.87a5.942 5.942 0 0 1 1.509-8.134l15.485-10.998z" fill="#d83941"></path><path d="M199.477 383.058 177.653 512h20.605l21.824-128.942h-20.605z" fill="#ee5253"></path><path d="M96.361 512v-99.637a7.727 7.727 0 0 0-15.454 0V512h15.454zM350.401 512v-68.735a7.727 7.727 0 0 0-15.454 0V512h15.454z" fill="#d8dce5"></path><path d="M395.226 470.445c-54.991 0-99.729-44.739-99.729-99.729s44.739-99.729 99.729-99.729 99.729 44.739 99.729 99.729-44.738 99.729-99.729 99.729z" fill="#15ba8b"></path><path d="M316.102 370.715c0-51.512 39.259-94.027 89.427-99.199-59.14-6.099-110.032 40.489-110.032 99.199 0 54.991 44.738 99.729 99.729 99.729 3.478 0 6.915-.181 10.302-.53-50.167-5.172-89.426-47.686-89.426-99.199z" fill="#11aa7b"></path><path d="M395.226 298.166c-40.004 0-72.55 32.546-72.55 72.55s32.546 72.55 72.55 72.55 72.55-32.546 72.55-72.55-32.546-72.55-72.55-72.55z" fill="#3fefbc"></path><path d="M343.282 370.715c0-36.506 27.107-66.786 62.247-71.805-44-6.287-82.852 28.014-82.852 71.805 0 40.004 32.546 72.55 72.55 72.55 3.498 0 6.935-.263 10.302-.744-35.14-5.02-62.247-35.3-62.247-71.806z" fill="#1dd1a1"></path><path d="m385.07 393.674-18.119-17.759a7.728 7.728 0 0 1 10.817-11.037l12.726 12.473 30.378-29.609a7.727 7.727 0 0 1 10.787 11.066l-35.786 34.881a7.728 7.728 0 0 1-10.803-.015z" fill="#e4eaf8"></path></g></svg>