<svg viewBox="0 0 512 512" xmlns="http://www.w3.org/2000/svg"><g><path d="M491.355 447.409H152.807c-11.402 0-20.645-9.243-20.645-20.645V20.645C132.162 9.243 141.405 0 152.807 0h338.548C502.757 0 512 9.243 512 20.645v406.118c0 11.403-9.243 20.646-20.645 20.646z" fill="#e8834d"></path><path d="M491.355 438.119H152.807c-11.402 0-20.645-9.243-20.645-20.645v18.581c0 11.402 9.243 20.645 20.645 20.645h338.548c11.402 0 20.645-9.243 20.645-20.645v-18.581c0 11.402-9.243 20.645-20.645 20.645z" fill="#d66e41"></path><path d="M470.616 415.41h-297.07c-5.701 0-10.323-4.621-10.323-10.322V42.322c0-5.701 4.622-10.323 10.323-10.323h231.957l75.436 52.831V405.086c0 5.702-4.622 10.324-10.323 10.324z" fill="#8bcaff"></path><path d="M470.616 406.119h-297.07c-5.701 0-10.323-4.622-10.323-10.323v18.581c0 5.701 4.622 10.323 10.323 10.323h297.07c5.701 0 10.323-4.622 10.323-10.323v-18.581c0 5.702-4.622 10.323-10.323 10.323z" fill="#60b8ff"></path><path d="M163.223 402.546 480.939 84.831V42.322c0-2.418-.838-4.637-2.23-6.397L416.06 79.993l-15.158 33.739L163.223 351.41z" fill="#cceaff"></path><path d="M163.223 351.413 478.71 35.927A10.298 10.298 0 0 0 470.616 32h-65.113l-242.28 242.28z" fill="#9fddff"></path><path d="M322.347 389.177c50.371 0 80.705-12.858 98.645-31.703l.546-15.783 12.065-1.85c15.519-29.506 12.244-66.401 9.317-93.477-5.538-51.236-15.364-166.37-120.574-166.37S207.31 195.128 201.772 246.364c-5.702 52.762-12.728 142.813 120.575 142.813z" fill="#7b7179"></path><path d="M356.809 302.126h-72.466c-29.997 0-56.813 13.614-74.612 34.997 14.092 29.316 45.636 52.054 112.616 52.054 64.898 0 96.528-21.346 111.251-49.339-17.748-22.939-45.541-37.712-76.789-37.712z" fill="#726a71"></path><path d="M430.089 415.41H211.064l-9.083-9.291c3.192-47.705 42.899-85.412 91.413-85.412h54.367c48.514 0 88.221 37.707 91.413 85.412z" fill="#ff94d4"></path><path d="M201.987 406.119a93.111 93.111 0 0 0-.214 6.207V424.7h237.606v-12.373c0-2.087-.077-4.155-.214-6.207H201.987z" fill="#ff78cf"></path><path d="M347.76 320.707s3.484 46.032-27.183 46.032-27.183-46.032-27.183-46.032z" fill="#f4b184"></path><path d="M234.901 512H7.618a5.16 5.16 0 0 1-5.161-5.161v-94.512c0-14.686 3.455-28.565 9.597-40.868l11.955-.968-1.522-15.346c16.789-20.992 42.619-34.438 71.59-34.438h54.366c29.986 0 56.607 14.405 73.321 36.672l-1.943 13.082 11.863 3.536c5.378 11.661 8.378 24.644 8.378 38.329v94.512a5.161 5.161 0 0 1-5.161 5.162z" fill="#ff94d4"></path><path d="M148.442 320.707H94.076c-35.914 0-66.996 20.668-82.017 50.755 18.69 21.316 52.216 36.296 110.971 36.296 56.395 0 89.548-13.799 108.649-33.757-14.509-31.458-46.321-53.294-83.237-53.294z" fill="#ff78cf"></path><path d="M123.03 379.886c112.176 0 124.979-54.478 122.821-106.133-.406-9.729-1.344-19.028-2.247-27.39-5.538-51.236-15.365-166.37-120.574-166.37S7.994 195.127 2.456 246.364c-.904 8.362-1.841 17.661-2.247 27.39-2.158 51.654 10.645 106.132 122.821 106.132z" fill="#9c8f9a"></path><path d="M123.03 370.596c-99.001 0-120.594-49.668-122.819-96.843-2.158 51.655 10.642 115.423 122.819 115.423s124.978-63.768 122.819-115.423c-2.224 47.176-23.818 96.843-122.819 96.843z" fill="#8c808a"></path><path d="M339.858 164.052c-24.568 29.472-74.601 40.54-89.418 43.249a5.152 5.152 0 0 0-4.225 5.075v24.68s-6.154 83.651 74.361 83.651c79.245 0 74.361-83.651 74.361-83.651v-25.502a5.168 5.168 0 0 0-3.206-4.767c-22.048-9.148-36.926-30.793-43.449-42.023-1.803-3.104-6.125-3.469-8.424-.712z" fill="#ffc89f"></path><path d="M320.576 311.416c-41.068 0-74.361-33.292-74.361-74.361v18.581c0 41.068 33.292 74.361 74.361 74.361 41.068 0 74.361-33.292 74.361-74.361v-18.581c0 41.069-33.293 74.361-74.361 74.361z" fill="#f7bc94"></path><path d="M284.632 217.868a7.756 7.756 0 0 0-7.756 7.757v16.704a7.756 7.756 0 1 0 15.512 0v-16.704a7.756 7.756 0 0 0-7.756-7.757zM356.828 217.868a7.756 7.756 0 0 0-7.756 7.757v16.704a7.756 7.756 0 1 0 15.512 0v-16.704a7.756 7.756 0 0 0-7.756-7.757z" fill="#726a71"></path><path d="M344.805 260.865a7.755 7.755 0 0 0-7.177 4.822c-.345.731-3.699 7.146-15.079 7.146s-14.733-6.414-15.079-7.146h-.001a7.756 7.756 0 0 0-14.933 2.935c0 1.116.24 2.175.665 3.134l-.004.002c.28.677 7.085 16.588 29.352 16.588s29.072-15.911 29.352-16.588l-.004-.002a7.73 7.73 0 0 0 .665-3.134 7.758 7.758 0 0 0-7.757-7.757z" fill="#ff646f"></path></g></svg>