<svg viewBox="0 0 512 512" xmlns="http://www.w3.org/2000/svg"><g><path d="M125.409 402.165h-12.227c-5.785 0-11.009-2.449-14.69-6.365v81.95h38.988l2.618-1.026V395.8c-3.68 3.916-8.904 6.365-14.689 6.365z" fill="#e1d3ce"></path><path d="M125.409 402.165h-6.845v74.559l-2.618 1.026h21.535l2.618-1.026V395.8c-3.681 3.916-8.905 6.365-14.69 6.365z" fill="#cdbfba"></path><path d="M91.991 287.13V382c0 11.703 9.487 21.191 21.191 21.191h12.227c11.703 0 21.191-9.487 21.191-21.191v-94.87z" fill="#766e6e"></path><path d="M125.743 287.13V382c0 10.225-7.242 18.758-16.876 20.751 1.393.288 2.836.44 4.315.44h12.227c11.703 0 21.191-9.487 21.191-21.191v-94.87z" fill="#5b5555"></path><path d="M180.017 402.165H167.79c-5.785 0-11.009-2.449-14.69-6.365v80.924l2.618 1.026h38.988V395.8c-3.68 3.916-8.903 6.365-14.689 6.365z" fill="#e1d3ce"></path><path d="M180.017 402.165h-6.514v75.585h21.203V395.8c-3.68 3.916-8.903 6.365-14.689 6.365z" fill="#cdbfba"></path><path d="M79.31 512h55.661a5.128 5.128 0 0 0 5.128-5.128v-30.148H98.492l-24.629 12.48A12.049 12.049 0 0 0 79.31 512z" fill="#766e6e"></path><path d="M140.099 506.872V493.43h-70.92a12.04 12.04 0 0 0-1.918 6.521c0 6.654 5.394 12.049 12.049 12.049h55.661a5.128 5.128 0 0 0 5.128-5.128z" fill="#5b5555"></path><path d="M213.89 512h-55.661a5.128 5.128 0 0 1-5.128-5.128v-30.148h41.606l24.629 12.48a12.049 12.049 0 0 1 6.603 10.748c-.001 6.654-5.395 12.048-12.049 12.048z" fill="#766e6e"></path><path d="m219.336 489.204-13.61-6.897c-.473 6.222-5.671 11.123-12.014 11.123h-40.611v13.442a5.128 5.128 0 0 0 5.128 5.128h55.661c6.654 0 12.049-5.394 12.049-12.049a12.05 12.05 0 0 0-6.603-10.747z" fill="#5b5555"></path><path d="M146.6 287.13V382c0 11.703 9.487 21.191 21.191 21.191h12.227c11.703 0 21.191-9.487 21.191-21.191v-94.87z" fill="#766e6e"></path><path d="M146.6 287.13V382c0 11.703 9.487 21.191 21.191 21.191h12.227c11.703 0 21.191-9.487 21.191-21.191v-94.87z" fill="#766e6e"></path><path d="M180.102 287.13V382c0 10.181-7.179 18.684-16.751 20.725 1.432.305 2.917.466 4.439.466h12.227c11.703 0 21.191-9.487 21.191-21.191v-94.87z" fill="#5b5555"></path><path d="M87.882 251.854H52.703v13.716c0 12.474 10.112 22.586 22.586 22.586h12.593zM205.318 251.854v36.302h12.593c12.474 0 22.586-10.112 22.586-22.586v-13.716z" fill="#ffcebf"></path><path d="M217.533 106.902h-12.215v145.977h35.179V129.866c-.001-12.682-10.282-22.964-22.964-22.964zM87.882 106.902H75.667c-12.683 0-22.964 10.281-22.964 22.964v123.013h35.179z" fill="#00c27a"></path><path d="M191.331 106.902a5.128 5.128 0 0 1-4.927-3.707l-7.847-27.204c-6.895 10.314-18.646 17.119-31.956 17.119s-25.061-6.805-31.957-17.119l-7.847 27.203a5.128 5.128 0 0 1-4.927 3.707H86.856v181.253h119.487V106.902z" fill="#fd6930"></path><path d="M148.375 132.5a1.955 1.955 0 0 1-1.817 1.164 1.956 1.956 0 0 1-1.806-1.143l-5.652-11.918v167.552h15V120.06z" fill="#fe7d43"></path><path d="M191.331 106.902a5.128 5.128 0 0 1-4.927-3.707l-7.847-27.204a38.742 38.742 0 0 1-6.511 7.459h.001l-9.582 20.824 2.827 9.8a5.128 5.128 0 0 0 4.927 3.707c8.291 0 15.012 6.721 15.012 15.012v155.361h21.113V106.902z" fill="#fd5426"></path><path d="M146.6 93.111c-10.437 0-19.915-4.184-26.846-10.963l24.094 50.801c1.091 2.301 4.372 2.282 5.436-.032l22.762-49.466c-6.781 6.008-15.695 9.66-25.446 9.66z" fill="#f9f3f1"></path><path d="m152.797 92.611-13.828 30.051 4.879 10.287c1.091 2.301 4.372 2.282 5.436-.031l22.762-49.466a38.319 38.319 0 0 1-19.249 9.159z" fill="#efe2dd"></path><path d="M107.171 53.83c-.006.289-.01.578-.01.868 0 21.782 17.658 39.439 39.439 39.439 21.782 0 39.439-17.658 39.439-39.439 0-.29-.004-.579-.01-.868z" fill="#ffcebf"></path><path d="M163.476 53.83c-4.243 17.206-19.778 29.965-38.293 29.965-1.914 0-3.796-.137-5.637-.4 7.062 6.66 16.581 10.743 27.054 10.743 21.782 0 39.439-17.658 39.439-39.439 0-.29-.004-.579-.01-.868h-22.553z" fill="#ffb09e"></path><path d="m187.445 40.83-8.679-32.814A10.772 10.772 0 0 0 168.353 0h-43.508a10.77 10.77 0 0 0-10.412 8.016l-8.679 32.814z" fill="#766e6e"></path><path d="m155.075 8.016 8.679 32.814h23.69l-8.679-32.814A10.77 10.77 0 0 0 168.353 0h-23.69c4.888 0 9.163 3.291 10.412 8.016z" fill="#5b5555"></path><path d="M346.62 107.928a4.108 4.108 0 0 0 4.103-4.103V90.213l-.617-.268a38.423 38.423 0 0 1-22.462-28.16c-14.578.799-26.152 12.872-26.152 27.65 0 7.108 2.678 13.59 7.08 18.493z" fill="#a44f3e"></path><path d="M350.106 89.945a38.4 38.4 0 0 1-11.053-7.284c-.111.98-.273 1.944-.484 2.89C336.944 92.851 330.398 98 322.92 98h-20.078a27.65 27.65 0 0 0 5.73 9.928h38.048a4.103 4.103 0 0 0 4.103-4.103V90.213z" fill="#883f2e"></path><path d="m380.647 89.966-.618.267v13.592a4.108 4.108 0 0 0 4.103 4.103h38.486a27.588 27.588 0 0 0 7.08-18.493c0-14.907-11.778-27.062-26.536-27.668a38.417 38.417 0 0 1-22.515 28.199z" fill="#a44f3e"></path><path d="M403.161 61.767a38.302 38.302 0 0 1-2.403 7.957C405.846 74.746 409 81.722 409 89.436c0 7.108-2.678 13.59-7.08 18.493h20.697a27.588 27.588 0 0 0 7.08-18.493c0-14.907-11.778-27.063-26.536-27.669z" fill="#883f2e"></path><path d="M317.293 417.128v60.622h38.988l2.618-1.026v-59.596z" fill="#e1d3ce"></path><path d="M337.606 417.128v60.622h18.675l2.618-1.026v-59.596z" fill="#cdbfba"></path><path d="M371.901 417.128v59.596l2.619 1.026h38.988v-60.622z" fill="#e1d3ce"></path><path d="M392.41 417.128h21.097v60.622H392.41z" fill="#cdbfba"></path><path d="M298.11 512h55.661a5.128 5.128 0 0 0 5.128-5.128v-30.148h-41.606l-24.629 12.48a12.049 12.049 0 0 0-6.603 10.748c.001 6.654 5.395 12.048 12.049 12.048z" fill="#fd6930"></path><path d="M337.606 512h16.165a5.128 5.128 0 0 0 5.128-5.128v-30.148h-21.293z" fill="#fd5426"></path><path d="M432.69 512h-55.661a5.128 5.128 0 0 1-5.128-5.128v-30.148h41.606l24.629 12.48a12.049 12.049 0 0 1 6.603 10.748c0 6.654-5.395 12.048-12.049 12.048z" fill="#fd6930"></path><path d="m438.136 489.204-24.629-12.48H392.41v1.521a14.902 14.902 0 0 0 8.287 13.354l16.905 8.375a12.049 12.049 0 0 1 6.535 12.027h8.553c6.654 0 12.049-5.394 12.049-12.049 0-4.541-2.553-8.696-6.603-10.748z" fill="#fd5426"></path><path d="M294.089 288.155h3.855l8.739-35.151v-1.151h-35.179v13.716c0 12.474 10.112 22.586 22.585 22.586zM424.118 251.854v1.152l8.821 35.15h3.772c12.474 0 22.586-10.112 22.586-22.586v-13.716z" fill="#ffcebf"></path><g fill="#f9f3f1"><path d="M306.657 106.902h-3.749c-17.344 0-31.404 14.06-31.404 31.404v114.573h35.153zM427.893 106.902h-3.749v145.977h35.153V138.306c0-17.344-14.06-31.404-31.404-31.404z" fill="#f9f3f1"></path></g><path d="m454.268 368.932-29.124-116.053-5.344-1H311.295l-5.638 1-29.198 117.447a137.923 137.923 0 0 0-4.073 33.269v4.303c0 5.664 4.592 10.256 10.256 10.256h165.517c5.664 0 10.256-4.592 10.256-10.256v-5.401a137.92 137.92 0 0 0-4.147-33.565z" fill="#6ed5a1"></path><path d="m454.268 368.932-29.124-116.053-1.208-1h-29.203l-.44.252.231.978c8.132 34.454 16.141 66.826 23.806 96.215a4.126 4.126 0 0 1-.376 3.051l4.155 16.558a137.911 137.911 0 0 1 4.147 33.564v15.657h21.902c5.664 0 10.256-4.592 10.256-10.256v-5.401a137.863 137.863 0 0 0-4.146-33.565z" fill="#46cc8d"></path><path d="M395.256 251.854h-59.121c-8.186 34.458-16.4 67.44-24.231 97.211a5.134 5.134 0 0 0 3.221 6.137 149.063 149.063 0 0 0 100.949-.003 5.133 5.133 0 0 0 3.224-6.127c-7.77-29.794-15.919-62.769-24.042-97.218z" fill="#ffffff"></path><path d="M419.298 349.071c-7.77-29.794-15.919-62.769-24.042-97.218h-27.05c5.222 21.721 18.648 76.76 26.784 109.225a149.062 149.062 0 0 0 21.084-5.881 5.132 5.132 0 0 0 3.224-6.126z" fill="#f9f3f1"></path><path d="M339.003 159.569c0 9.116 7.417 16.533 16.533 16.533h19.679c9.116 0 16.533-7.417 16.533-16.533v-52.667h-7.617a3.077 3.077 0 0 1-3.077-3.077v-14.05a38.196 38.196 0 0 1-15.654 3.336 38.19 38.19 0 0 1-15.703-3.358v14.073a3.077 3.077 0 0 1-3.077 3.077h-7.617z" fill="#ffcebf"></path><path d="M339.003 159.569c0 9.116 7.417 16.533 16.533 16.533h19.679c9.116 0 16.533-7.417 16.533-16.533v-25.747c-7.826 4.273-16.803 6.702-26.348 6.702-9.565 0-18.559-2.44-26.397-6.729z" fill="#f9f3f1"></path><path d="M370.283 176.102h4.932c9.116 0 16.533-7.417 16.533-16.533v-25.747a54.724 54.724 0 0 1-21.465 6.489z" fill="#efe2dd"></path><path d="M425.144 210.948V106.902h-34.421v52.667c0 8.565-6.943 15.507-15.507 15.507h-19.679c-8.565 0-15.507-6.943-15.507-15.507v-52.667h-34.372v104.046z" fill="#fd6930"></path><path d="M403.692 106.902h21.451v104.046h-21.451z" fill="#fd5426"></path><path d="M305.657 209.948h119.487v42.931H305.657z" fill="#00c27a"></path><path d="M403.692 209.948h21.451v42.931h-21.451z" fill="#08b865"></path><path d="m385.775 20.922-.044.509c-1.687 19.69-18.509 35.113-38.297 35.113a38.296 38.296 0 0 1-20.786-6.1l-.158-.102-.184-.038-.101-.021a39.912 39.912 0 0 0-.245 4.412c0 21.782 17.658 39.439 39.439 39.439 21.782 0 39.439-17.658 39.439-39.439.002-14.323-7.637-26.865-19.063-33.773z" fill="#ffcebf"></path><path d="M390.252 24.072a48.647 48.647 0 0 1 3.312 17.704c0 25.644-19.787 46.665-44.926 48.631a39.287 39.287 0 0 0 16.762 3.73c21.782 0 39.439-17.658 39.439-39.439.001-12.362-5.687-23.395-14.587-30.626z" fill="#ffb09e"></path><path d="M326.107 51.286a39.252 39.252 0 0 0 21.328 6.259c20.632 0 37.564-15.843 39.293-36.028a39.252 39.252 0 0 0-21.328-6.259c-20.632 0-37.564 15.843-39.293 36.028z" fill="#a44f3e"></path><path d="M215.077 54.83H78.123a7.5 7.5 0 0 1 0-15h136.954a7.5 7.5 0 0 1 0 15z" fill="#9e9797"></path><path d="M124.072 154.551h-5.784a7.5 7.5 0 0 1 0-15h5.784a7.5 7.5 0 0 1 0 15zM174.912 154.551h-5.785a7.5 7.5 0 0 1 0-15h5.785a7.5 7.5 0 0 1 0 15zM124.072 183.861h-5.784a7.5 7.5 0 0 1 0-15h5.784a7.5 7.5 0 0 1 0 15zM174.912 183.861h-5.785a7.5 7.5 0 0 1 0-15h5.785a7.5 7.5 0 0 1 0 15zM124.072 213.171h-5.784a7.5 7.5 0 0 1 0-15h5.784a7.5 7.5 0 0 1 0 15zM174.912 213.171h-5.785a7.5 7.5 0 0 1 0-15h5.785a7.5 7.5 0 0 1 0 15zM124.072 242.482h-5.784a7.5 7.5 0 0 1 0-15h5.784a7.5 7.5 0 0 1 0 15zM174.912 242.482h-5.785a7.5 7.5 0 0 1 0-15h5.785a7.5 7.5 0 0 1 0 15zM124.072 271.792h-5.784a7.5 7.5 0 0 1 0-15h5.784a7.5 7.5 0 0 1 0 15zM174.912 271.792h-5.785a7.5 7.5 0 0 1 0-15h5.785a7.5 7.5 0 0 1 0 15z" fill="#ffa78f"></path><path d="M334.317 238.914h-1.025a7.5 7.5 0 0 1 0-15h1.025a7.5 7.5 0 0 1 0 15zM366.112 238.914h-1.025a7.5 7.5 0 0 1 0-15h1.025a7.5 7.5 0 0 1 0 15zM397.907 238.914h-1.025a7.5 7.5 0 0 1 0-15h1.025a7.5 7.5 0 0 1 0 15z" fill="#f9f3f1"></path></g></svg>