<svg id="Icons" height="512" viewBox="0 0 60 60" width="512" xmlns="http://www.w3.org/2000/svg"><path d="m3 38h54a0 0 0 0 1 0 0v20a1 1 0 0 1 -1 1h-52a1 1 0 0 1 -1-1v-20a0 0 0 0 1 0 0z" fill="#bc834b"/><rect fill="#d69956" height="6" rx="2" width="58" x="1" y="33"/><rect fill="#d69956" height="46" rx="1" transform="matrix(0 1 -1 0 79 19)" width="12" x="24" y="26"/><circle cx="30" cy="49" fill="#fccb55" r="2"/><path d="m41.333 7.661-2.905 2.911-3.629-3.635 2.905-2.911z" fill="#b9bfcc"/><path d="m31.49 10.976 1.492-1.494-.982-1.482-1.923-1.429-1.492 1.5a2.006 2.006 0 0 0 0 2.832l.079.078a2 2 0 0 0 2.826-.005z" fill="#2d9687"/><path d="m49.74 8.809 8.66 8.676a2.067 2.067 0 0 1 0 2.911l-7.989 8a2.058 2.058 0 0 1 -2.905 0l-7.385-7.396a2.064 2.064 0 0 1 -.6-1.458v-4.115a2.061 2.061 0 0 0 -.6-1.455l-.851-.852a2.067 2.067 0 0 1 0-2.911l2.9-2.91a2.056 2.056 0 0 1 2.905 0l.676.677a2.052 2.052 0 0 0 1.853.564l1.48-.295a2.052 2.052 0 0 1 1.856.564z" fill="#d6dbe3"/><path d="m53.32 19.67-3.63 3.64a1.038 1.038 0 0 1 -1.46 0l-4.26-4.28a1.006 1.006 0 0 1 -.3-.82l.17-1.81a1.012 1.012 0 0 1 .3-.63l2.64-2.65a1.026 1.026 0 0 1 1.45 0l5.09 5.09a1.038 1.038 0 0 1 0 1.46z" fill="#41d8ca"/><path d="m39.388 3.063-6.4 6.416-2.91-2.912 4.355-4.367a4.113 4.113 0 0 1 4.679-.8 1.037 1.037 0 0 1 .276 1.663z" fill="#34b2a3"/><path d="m28 50h-3a1 1 0 0 1 0-2h3a1 1 0 0 1 0 2z" fill="#fccb55"/><path d="m35 50h-3a1 1 0 0 1 0-2h3a1 1 0 0 1 0 2z" fill="#fccb55"/><path d="m41.424 7.555h1.998v8.22h-1.998z" fill="#b9bfcc" transform="matrix(.707 -.707 .707 .707 4.176 33.413)"/><path d="m46.76 16.01a1 1 0 0 1 -1.41 0l-.73-.73 1.41-1.41.73.73a1 1 0 0 1 0 1.41z" fill="#34b2a3"/><path d="m30 52a3 3 0 1 1 3-3 3 3 0 0 1 -3 3zm0-4a1 1 0 1 0 1 1 1 1 0 0 0 -1-1z" fill="#fccb55"/><g fill="#41d8ca"><path d="m7 28a1 1 0 0 1 -.658-1.752l3.429-3a1 1 0 1 1 1.316 1.5l-3.429 3a1 1 0 0 1 -.658.252z"/><path d="m13.857 22a1 1 0 0 1 -.658-1.752l4.143-3.625a1 1 0 1 1 1.316 1.5l-4.142 3.625a1 1 0 0 1 -.659.252z"/><path d="m21 15.75a1 1 0 0 1 -.658-1.75l2-1.75a1 1 0 1 1 1.316 1.5l-2 1.75a1 1 0 0 1 -.658.25z"/><path d="m14 30a1 1 0 0 1 -.763-1.646l1-1.182a1 1 0 0 1 1.528 1.292l-1 1.182a1 1 0 0 1 -.765.354z"/><path d="m18 25.273a1 1 0 0 1 -.763-1.646l3-3.546a1 1 0 1 1 1.528 1.292l-3 3.546a1 1 0 0 1 -.765.354z"/><path d="m24 18.182a1 1 0 0 1 -.763-1.646l1-1.182a1 1 0 0 1 1.528 1.292l-1 1.182a1 1 0 0 1 -.765.354z"/><path d="m23.119 30a1 1 0 0 1 -.91-1.413l.309-.681a1 1 0 0 1 1.822.825l-.309.682a1 1 0 0 1 -.912.587z"/><path d="m25.142 25.529a1 1 0 0 1 -.911-1.413l1.715-3.79a1 1 0 0 1 1.823.824l-1.715 3.79a1 1 0 0 1 -.912.589z"/><path d="m28.57 17.948a1 1 0 0 1 -.91-1.412l.429-.948a1 1 0 1 1 1.822.824l-.429.948a1 1 0 0 1 -.912.588z"/></g></svg>