<?xml version="1.0" encoding="iso-8859-1"?>
<!-- Generator: Adobe Illustrator 19.0.0, SVG Export Plug-In . SVG Version: 6.00 Build 0)  -->
<svg version="1.1" id="Capa_1" xmlns="http://www.w3.org/2000/svg" xmlns:xlink="http://www.w3.org/1999/xlink" x="0px" y="0px"
	 viewBox="0 0 512.002 512.002" style="enable-background:new 0 0 512.002 512.002;" xml:space="preserve">
<path style="fill:#F07C3C;" d="M450.058,97.182c31.45,31.264,38.778,74.666,16.367,96.944
	c-22.411,22.279-66.071,14.992-97.522-16.27c-31.45-31.264-38.779-74.667-16.366-96.945
	C374.945,58.633,418.609,65.918,450.058,97.182z"/>
<g style="opacity:0.1;">
	<path style="fill:#1B003F;" d="M390.631,177.855c-31.45-31.264-38.78-74.667-16.367-96.945
		c6.378-6.341,14.481-10.279,23.532-11.959c-17.606-2.91-34.079,0.843-45.26,11.959c-22.413,22.278-15.084,65.681,16.366,96.945
		c22.5,22.365,51.244,32.451,73.99,28.229C425.213,203.162,406.39,193.519,390.631,177.855z"/>
</g>
<path style="fill:#A53C29;" d="M489.442,206.433l-36.743-36.525v-44.847c0-4.142-3.357-7.5-7.5-7.5s-7.5,3.358-7.5,7.5v29.935
	l-28.561-28.391v-23.322c0-4.142-3.357-7.5-7.5-7.5s-7.5,3.358-7.5,7.5v8.411l-17.221-17.119c-2.936-2.92-7.686-2.906-10.607,0.031
	c-2.92,2.938-2.906,7.687,0.032,10.606l17.11,17.01h-8.415c-4.142,0-7.499,3.358-7.499,7.501c0,4.142,3.358,7.5,7.501,7.499
	l23.502-0.001l17.902,17.796h-31.431c-4.143,0-7.5,3.358-7.5,7.5s3.357,7.5,7.5,7.5h46.52l47.334,47.053
	c1.463,1.455,3.375,2.181,5.287,2.181c1.927,0,3.853-0.738,5.319-2.212C492.395,214.102,492.381,209.353,489.442,206.433z"/>
<path style="fill:#D16605;" d="M164.787,384.241c31.265,31.452,38.548,75.116,16.27,97.526
	c-22.277,22.412-65.678,15.083-96.942-16.369c-31.262-31.451-38.547-75.113-16.27-97.525
	C90.121,345.461,133.526,352.79,164.787,384.241z"/>
<g style="opacity:0.1;">
	<path style="fill:#1B003F;" d="M105.718,454.546c-31.263-31.451-38.548-75.113-16.271-97.525c0.362-0.364,0.745-0.699,1.118-1.047
		c-8.727,1.759-16.539,5.679-22.721,11.899c-22.277,22.412-14.992,66.074,16.27,97.525c30.757,30.941,73.242,38.515,95.825,17.417
		C157.225,487.393,128.306,477.27,105.718,454.546z"/>
</g>
<path style="fill:#A53C29;" d="M204.002,494.212l-36.545-36.766v-45.158c0-4.142-3.357-7.5-7.5-7.5s-7.5,3.358-7.5,7.5v30.068
	l-28.301-28.472v-23.505c0-4.142-3.357-7.5-7.5-7.5s-7.5,3.358-7.5,7.5v8.414l-17.009-17.111c-2.92-2.938-7.669-2.951-10.607-0.032
	c-2.938,2.92-2.952,7.669-0.032,10.607l17.117,17.221l-8.41,0.001c-4.143,0-7.5,3.357-7.5,7.5c0,4.142,3.358,7.5,7.5,7.5
	l23.319-0.001l17.885,17.993h-31.286c-4.143,0-7.5,3.358-7.5,7.5s3.357,7.5,7.5,7.5h46.196l47.033,47.318
	c1.466,1.475,3.393,2.213,5.319,2.213c1.912,0,3.824-0.727,5.287-2.181C206.907,501.898,206.922,497.15,204.002,494.212z"/>
<path style="fill:#F7931E;" d="M157.77,325.507c-0.907,0-1.813-0.239-2.617-0.711c-14.658-8.602-28.758-26.651-38.682-49.522
	c-9.438-21.746-12.217-41.047-8.262-57.367c-4.811,1.152-9.946,1.737-15.268,1.737c-12.771,0-27.05-3.347-42.439-9.947
	c-22.959-9.844-41.1-23.83-49.771-38.373c-0.85-1.425-0.965-3.171-0.311-4.696c0.655-1.524,2-2.642,3.618-3.006
	c4.328-0.975,9.121-1.468,14.244-1.468c11.699,0,25.139,2.599,38.865,7.516c-2.969-3.588-5.792-7.227-8.393-10.816
	c-19.67-27.142-28.849-52.799-27.282-76.26c0.103-1.537,0.886-2.95,2.135-3.852c0.891-0.642,1.951-0.979,3.027-0.979
	c0.434,0,0.871,0.055,1.3,0.165c22.707,5.897,44.14,22.475,63.703,49.275c-0.083-2.733-0.124-5.197-0.124-7.53
	c0-45.575,11.133-90.837,27.703-112.632C120.196,5.756,121.72,5,123.335,5c1.616,0,3.139,0.755,4.118,2.042
	c16.57,21.792,27.704,67.054,27.704,112.632l-0.006,1.105c3.805-4.322,7.857-8.61,12.046-12.774
	c34.749-34.541,73.089-56.003,105.189-58.883c0.153-0.013,0.309-0.02,0.462-0.02c1.367,0,2.686,0.542,3.661,1.518
	c1.084,1.086,1.63,2.599,1.491,4.128c-2.912,31.902-24.501,69.998-59.23,104.523c-3.656,3.633-7.42,7.177-11.189,10.532
	c22.937,0.17,47.26,3.172,68.491,8.449c19.594,4.872,35.363,11.447,45.604,19.014c1.317,0.974,2.096,2.515,2.1,4.155
	c0.003,1.639-0.771,3.183-2.086,4.162c-24.226,18.034-76.754,27.47-116.12,27.47c-2.507,0-5.11-0.046-8.195-0.146l0.733,0.508
	c0.244,0.168,0.488,0.336,0.731,0.511c27.3,19.55,44.181,40.988,50.171,63.718c0.395,1.495,0.1,3.087-0.803,4.342
	c-0.902,1.254-2.316,2.04-3.858,2.143c-1.73,0.114-3.485,0.172-5.221,0.172c-22.164-0.001-46.224-9.182-71.512-27.289
	c-3.629-2.6-7.289-5.407-10.88-8.344c7.168,19.775,9.326,38.531,6.077,52.812c-0.366,1.609-1.477,2.947-2.989,3.602
	C159.166,325.366,158.467,325.507,157.77,325.507z"/>
<g style="opacity:0.1;">
	<path style="fill:#1B003F;" d="M137.597,254.055c-9.439-21.746-12.218-41.047-8.262-57.367c-4.811,1.152-9.946,1.737-15.268,1.737
		c-12.771,0-27.05-3.347-42.439-9.948c-15.88-6.809-29.449-15.6-39.18-25.185c-4.923-0.75-9.673-1.137-14.165-1.137
		c-5.123,0-9.916,0.494-14.244,1.468c-1.618,0.364-2.963,1.482-3.618,3.006c-0.654,1.525-0.539,3.27,0.311,4.696
		c8.671,14.542,26.811,28.529,49.771,38.373c15.39,6.601,29.669,9.947,42.439,9.947c5.321,0,10.457-0.584,15.268-1.737
		c-3.955,16.32-1.177,35.621,8.262,57.367c9.924,22.87,24.023,40.919,38.682,49.522c0.805,0.472,1.71,0.711,2.617,0.711
		c0.697,0,1.396-0.141,2.055-0.426c1.513-0.655,2.623-1.993,2.989-3.602c1.859-8.173,1.939-17.815,0.331-28.272
		C153.421,283.521,144.498,269.959,137.597,254.055z"/>
</g>
<path style="fill:#A53C29;" d="M230.313,200.466c-0.284-4.133-3.86-7.252-7.995-6.97l-84.756,5.809l83.56-83.063
	c2.938-2.92,2.952-7.668,0.032-10.606s-7.669-2.951-10.606-0.032l-84.434,83.932l2.926-91.568c0.133-4.14-3.116-7.603-7.257-7.735
	c-4.143-0.121-7.603,3.116-7.735,7.256l-3.02,94.522L82.646,147.27c-2.219-3.498-6.852-4.534-10.351-2.315
	c-3.498,2.219-4.534,6.853-2.315,10.351l35.025,55.215l-48.16,47.876c-2.938,2.92-2.952,7.669-0.032,10.606
	c1.466,1.475,3.393,2.212,5.319,2.212c1.912,0,3.824-0.727,5.287-2.181l48.184-47.898l61.836,39.293
	c1.247,0.793,2.64,1.171,4.016,1.171c2.48,0,4.908-1.23,6.337-3.478c2.222-3.496,1.189-8.131-2.308-10.353l-52.15-33.138
	l90.01-6.169C227.476,208.178,230.596,204.598,230.313,200.466z"/>
<path style="fill:#FFC554;" d="M472.538,443.567c-44.285,44.285-108.253,52.376-142.593,18.034
	c-17.645-17.644-24.839-44.207-19.738-72.878c0.146-0.8,13.952-77.046-10.991-112.463c-1.094-1.552-1.034-3.644,0.146-5.143
	c0.109-0.14,0.225-0.268,0.346-0.388c1.204-1.206,3.019-1.604,4.625-0.976c0.35,0.135,36.677,13.737,121.185,8.161
	c1.644-0.244,11.885-1.62,24.647-0.06c18.376,2.24,33.2,9.572,42.876,21.195c15.256,18.33,21.627,43.196,17.941,70.023
	C507.276,396.024,493.623,422.478,472.538,443.567z"/>
<g style="opacity:0.1;">
	<path style="fill:#1B003F;" d="M362.537,461.602c-17.645-17.644-24.838-44.207-19.738-72.878
		c0.146-0.8,13.952-77.046-10.991-112.463c-0.124-0.178-0.23-0.362-0.324-0.552c-18.392-2.673-26.981-5.89-27.151-5.955
		c-1.606-0.629-3.421-0.23-4.625,0.976c-0.121,0.12-0.236,0.248-0.346,0.388c-1.18,1.5-1.239,3.592-0.146,5.143
		c24.943,35.417,11.137,111.663,10.991,112.463c-5.101,28.671,2.094,55.234,19.738,72.878
		c18.054,18.055,44.297,24.374,71.563,19.878C386.654,478.8,373.173,472.238,362.537,461.602z"/>
</g>
<path style="fill:#F07C3C;" d="M496.776,454.851l-61.487-61.49c13.604-23.531,10.3-44.752,10.141-45.709
	c-0.677-4.07-4.508-6.806-8.585-6.154c-4.073,0.655-6.851,4.498-6.219,8.575c0.107,0.692,2.185,15.097-6.398,32.225l-25.07-25.071
	c11.213-19.816,3.941-41.542,3.626-42.459c-1.346-3.905-5.584-5.973-9.498-4.645c-3.91,1.328-6.006,5.582-4.695,9.498
	c0.05,0.147,4.417,13.555-0.657,26.381l-27.725-27.726c-2.929-2.929-7.678-2.93-10.606,0c-2.93,2.929-2.93,7.677-0.001,10.606
	l46.375,46.377c-15.874,4.502-31.047-0.439-31.318-0.53c-3.909-1.333-8.166,0.748-9.513,4.657c-1.349,3.917,0.733,8.185,4.65,9.533
	c0.65,0.224,9.714,3.262,21.962,3.262c7.8,0,16.892-1.244,25.922-5.219l25.184,25.185c-28.619,14.672-55.359,9.202-55.813,9.104
	c-4.033-0.891-8.034,1.65-8.938,5.685c-0.905,4.042,1.638,8.052,5.68,8.958c0.624,0.14,6.966,1.499,16.743,1.499
	c13.345,0,33.087-2.543,53.396-14.177l42.238,42.24c1.465,1.465,3.384,2.197,5.304,2.197c1.919,0,3.839-0.732,5.303-2.197
	C499.705,462.528,499.705,457.78,496.776,454.851z"/>
<g>
</g>
<g>
</g>
<g>
</g>
<g>
</g>
<g>
</g>
<g>
</g>
<g>
</g>
<g>
</g>
<g>
</g>
<g>
</g>
<g>
</g>
<g>
</g>
<g>
</g>
<g>
</g>
<g>
</g>
</svg>
