<svg viewBox="0 0 512 512" xmlns="http://www.w3.org/2000/svg"><g><path d="M341.207 261.575v50.384l-45.205 34.037-45.205-34.037v-50.384z" fill="#fed2a4"></path><path d="M270.797 311.958v-50.383h-20v50.383l45.205 34.038 10-7.53z" fill="#ffbd86"></path><path d="M120.549 256H55.455c-8.534 0-15.453-6.918-15.453-15.453v-97.825c0-8.534 6.918-15.453 15.453-15.453h65.094c8.534 0 15.453 6.918 15.453 15.453v46.036c0 1.843.727 3.611 2.022 4.922l18.191 18.398c4.371 4.421 1.239 11.922-4.978 11.922h-8.235a7 7 0 0 0-7 7v9.547c0 8.535-6.918 15.453-15.453 15.453z" fill="#75cc77"></path><path d="m104.002 416 58.61-76.083a30.897 30.897 0 0 1 13.662-10.088l74.554-27.87 40.961 30.863a7 7 0 0 0 8.425 0l40.961-30.863 100.979 31.812c17.791 5.8 29.845 22.386 29.845 41.125v137.066H168.002V432l-54.825 66.238A30.908 30.908 0 0 1 87.462 512h-.554c-17.069 0-30.906-13.837-30.906-30.906V448z" fill="#42a5f5"></path><path d="M76.002 481.094V448l48-32 58.61-76.083a30.907 30.907 0 0 1 13.662-10.089l61.186-22.873-6.632-4.997-74.554 27.87a30.91 30.91 0 0 0-13.662 10.089L104.002 416l-48 32v33.094c0 17.069 13.837 30.906 30.906 30.906h.554c3.346 0 6.618-.55 9.711-1.574-12.297-4.08-21.171-15.666-21.171-29.332zM311.79 332.822a7 7 0 0 0 8.425 0l35.065-26.42-14.103-4.443-35.174 26.503z" fill="#0593fc"></path><path d="M168.002 415.697h240V480h-240z" fill="#ffca28"></path><path d="M228.48 128.001h-25.515c-11.89 0-21.528 9.639-21.528 21.528v16.131c0 11.89 9.639 21.528 21.528 21.528h25.515zM363.521 128.001h25.516c11.89 0 21.528 9.639 21.528 21.528v16.131c0 11.89-9.639 21.528-21.528 21.528h-25.516z" fill="#fed2a4"></path><path d="M218.48 84.638V201.71c0 39.549 32.059 71.608 71.608 71.608h11.827c39.549 0 71.608-32.059 71.608-71.608V85.37z" fill="#fff3de"></path><path d="M238.48 201.711V84.733l-20-.094v117.073c0 39.549 32.06 71.608 71.608 71.608h11.827c1.372 0 2.733-.039 4.087-.115-37.646-2.12-67.522-33.318-67.522-71.494z" fill="#ffe5c2"></path><path d="M196.542 128.001H226c16.569 0 30-13.431 30-30V31.998h-21.458c-24.853 0-45 20.147-45 45v44.003a7 7 0 0 0 7 7z" fill="#546e7a"></path><path d="M209.542 121.001V76.998c0-24.853 20.147-45 45-45h-20c-24.853 0-45 20.147-45 45v44.003a7 7 0 0 0 7 7h20a7 7 0 0 1-7-7z" fill="#435860"></path><path d="M339.352 0c35.036 0 63.439 28.403 63.439 63.439v57.562a7 7 0 0 1-7 7H286.906c-17.069 0-30.906-13.837-30.906-30.906v-66.19C256.001 13.837 269.838 0 286.906 0z" fill="#546e7a"></path><path d="M276.001 97.095V30.906C276.001 13.837 289.838 0 306.906 0h-20C269.837 0 256 13.837 256 30.906v66.189c0 17.069 13.837 30.906 30.906 30.906h20c-17.068 0-30.905-13.837-30.905-30.906zM329.362 174.04a7.725 7.725 0 0 1-7.726-7.726v-10.141a7.726 7.726 0 1 1 15.452 0v10.141a7.725 7.725 0 0 1-7.726 7.726zM262.794 174.04a7.725 7.725 0 0 1-7.726-7.726v-10.141a7.726 7.726 0 1 1 15.452 0v10.141a7.726 7.726 0 0 1-7.726 7.726z" fill="#435860"></path><path d="M296.002 235.431c-14.945 0-27.103-12.159-27.103-27.104a7.726 7.726 0 1 1 15.452 0c0 6.425 5.226 11.651 11.65 11.651s11.65-5.226 11.65-11.651a7.726 7.726 0 1 1 15.452 0c.002 14.945-12.156 27.104-27.101 27.104z" fill="#ffbd86"></path><path d="M400.279 511.961V401.72a7.722 7.722 0 0 1 7.726-7.726 7.729 7.729 0 0 1 7.726 7.726v110.24h-15.452zM168.002 511.961V401.72a7.722 7.722 0 0 1 7.726-7.726 7.729 7.729 0 0 1 7.726 7.726v110.24h-15.452zM96.274 467.097a7.725 7.725 0 0 1-7.726-7.726v-27.915a7.726 7.726 0 1 1 15.452 0v27.915a7.724 7.724 0 0 1-7.726 7.726z" fill="#0593fc"></path><path d="M80.002 215.361a7.73 7.73 0 0 1-5.464-2.263l-16-16a7.729 7.729 0 0 1 0-10.928 7.73 7.73 0 0 1 10.928 0l10.536 10.537 26.535-26.537a7.728 7.728 0 0 1 10.928 10.928l-31.999 32a7.726 7.726 0 0 1-5.464 2.263z" fill="#ebf6ff"></path><path d="M64.001 362h32v-44.51c0-8.578-6.954-15.531-15.531-15.531h-.938c-8.578 0-15.531 6.953-15.531 15.531z" fill="#fed2a4"></path><path d="M87.501 303.654a15.443 15.443 0 0 0-7.031-1.695h-.938c-8.578 0-15.531 6.954-15.531 15.531V362h15v-44.51c0-6.044 3.46-11.269 8.5-13.836z" fill="#ffbd86"></path><path d="M104.001 367v66c0 8.28-6.71 15-15 15h-34c-8.28 0-15-6.72-15-15v-66c0-8.28 6.72-15 15-15h34c8.29 0 15 6.72 15 15z" fill="#fff3de"></path><path d="M55.001 433v-66c0-8.28 6.72-15 15-15h-15c-8.28 0-15 6.72-15 15v66c0 8.28 6.72 15 15 15h15c-8.28 0-15-6.72-15-15z" fill="#ffe5c2"></path><path d="M104.001 376.27v15.46h-32c-4.27 0-7.72-3.46-7.72-7.73s3.45-7.73 7.72-7.73zM104.001 408.27v15.46h-32c-4.27 0-7.72-3.46-7.72-7.73s3.45-7.73 7.72-7.73z" fill="#fed2a4"></path></g></svg>