<svg viewBox="0 0 512 512" xmlns="http://www.w3.org/2000/svg"><g><path d="M450.6 127.9c0 4.6-3.7 8.3-8.3 8.3-3.3 0-6.1-1.9-7.5-4.7-.1-.2-.1-.5-.2-.7l-.3-.6c-.2-.8-.3-1.5-.3-2.3 0-1 .2-2 .5-2.9 1.2-3.2 4.2-5.4 7.8-5.4 4.5 0 8.3 3.7 8.3 8.3zM434 381c0-4.6 3.7-8.3 8.3-8.3 4.5 0 8.3 3.7 8.3 8.3s-3.7 8.3-8.3 8.3c-3.5 0-6.6-2.2-7.8-5.3-.3-.9-.5-2-.5-3z" fill="#7b7b7b"></path><path d="M437.4 145.3v218.3c-7.6 2.1-13.2 9.1-13.2 17.4 0 .6 0 1.1.1 1.7l-153.8 59.4c-2.4-3.1-5.7-5.5-9.6-6.6V217.2c7.6-2.1 13.2-9.1 13.2-17.4 0-.6 0-1.2-.1-1.8l153.7-59.3c2.4 3.2 5.8 5.5 9.7 6.6z" fill="#484848"></path><g fill="#7b7b7b"><path d="M256 50.8c4.6 0 8.3 3.7 8.3 8.3 0 1-.2 2-.5 2.9-1.2 3.2-4.2 5.4-7.8 5.4s-6.6-2.3-7.8-5.4c-.3-.9-.5-1.8-.5-2.9 0-4.6 3.7-8.3 8.3-8.3zM263.9 197.2c.3.8.4 1.7.4 2.6 0 4.6-3.7 8.3-8.3 8.3s-8.3-3.7-8.3-8.3c0-1.1.2-2.1.6-3.1 1.2-3.1 4.2-5.2 7.7-5.2 3.4 0 6.2 2 7.5 4.8 0 .2.1.3.2.5.1.1.1.3.2.4zM256 444.6c3.4 0 6.2 2 7.5 4.8 0 .2.1.3.2.5.1.1.1.3.2.4.3.8.4 1.7.4 2.6 0 4.6-3.7 8.3-8.3 8.3s-8.3-3.7-8.3-8.3c0-1.1.2-2.1.6-3.1 1.2-3 4.2-5.2 7.7-5.2z" fill="#7b7b7b"></path></g><path d="M251.1 217.2v218.3c-3.9 1.1-7.2 3.4-9.6 6.5L87.7 382.6c0-.5.1-1.1.1-1.6 0-8.3-5.6-15.3-13.2-17.4V145.3c3.9-1.1 7.3-3.5 9.7-6.7L238 198.1c-.1.6-.1 1.1-.1 1.7 0 8.3 5.6 15.3 13.2 17.4z" fill="#484848"></path><g fill="#7b7b7b"><path d="M77.7 125.7c.2.7.3 1.5.3 2.2 0 .8-.1 1.6-.3 2.3l-.3.6c-.1.2-.2.5-.2.7-1.3 2.8-4.2 4.7-7.5 4.7-4.6 0-8.3-3.7-8.3-8.3s3.7-8.3 8.3-8.3c3.3 0 6.2 1.9 7.5 4.8 0 .2.1.4.2.6s.2.4.3.7zM69.7 372.7c4.6 0 8.3 3.7 8.3 8.3 0 .8-.1 1.6-.3 2.4-.1.2-.2.4-.3.5-.1.2-.2.5-.2.7-1.3 2.8-4.2 4.7-7.5 4.7-4.6 0-8.3-3.7-8.3-8.3s3.7-8.3 8.3-8.3zM424.3 129.6 270.5 189c-3.3-4.4-8.6-7.3-14.5-7.3s-11.2 2.8-14.5 7.2L87.7 129.6c0-.5.1-1.1.1-1.7 0-.5 0-1-.1-1.5l153.6-56.7c3.3 4.5 8.6 7.5 14.7 7.5 6 0 11.4-2.9 14.6-7.4l153.6 56.7c0 .5-.1 1-.1 1.5.1.5.1 1 .2 1.6z" fill="#7b7b7b"></path></g></g></svg>