<svg viewBox="0 0 512 512" xmlns="http://www.w3.org/2000/svg"><g><path d="M272 160h-32c-13.255 0-24-10.745-24-24V88c0-13.255 10.745-24 24-24h32c13.255 0 24 10.745 24 24v48c0 13.255-10.745 24-24 24z" fill="#fab991"></path><path d="M328 336H184V208c0-17.673 14.327-32 32-32h80c17.673 0 32 14.327 32 32z" fill="#555a6e"></path><path d="M204 224a4 4 0 0 1 4 4v60h-8v-60a4 4 0 0 1 4-4zM308 224a4 4 0 0 1 4 4v60h-8v-60a4 4 0 0 1 4-4z" fill="#463c4b"></path><path d="M272 64h-32c-13.255 0-24 10.745-24 24v24a8 8 0 0 0 8-8v-8a8 8 0 0 1 8-8h48a8 8 0 0 1 8 8v8a8 8 0 0 0 8 8V88c0-13.255-10.745-24-24-24z" fill="#d7e6f0"></path><path d="M296 128v-24a8 8 0 0 1 8 8v8a8 8 0 0 1-8 8zM216 128v-24a8 8 0 0 0-8 8v8a8 8 0 0 0 8 8z" fill="#f0915a"></path><path d="M256 224c-8.837 0-16-7.163-16-16v-32h32v32c0 8.837-7.163 16-16 16z" fill="#d7e6f0"></path><path d="M264 176h-16v45.842a15.907 15.907 0 0 0 16 0z" fill="#4182c3"></path><path d="M240 160v16c0 8.836 7.163 16 16 16s16-7.164 16-16v-16z" fill="#f0915a"></path><path d="M104 160H72c-13.255 0-24-10.745-24-24V88c0-13.255 10.745-24 24-24h32c13.255 0 24 10.745 24 24v48c0 13.255-10.745 24-24 24z" fill="#fab991"></path><path d="M160 336H16V208c0-17.673 14.327-32 32-32h80c17.673 0 32 14.327 32 32z" fill="#555a6e"></path><path d="M36 224a4 4 0 0 1 4 4v60h-8v-60a4 4 0 0 1 4-4zM140 224a4 4 0 0 1 4 4v60h-8v-60a4 4 0 0 1 4-4zM104 64H72c-13.255 0-24 10.745-24 24v24a8 8 0 0 0 8-8v-8a8 8 0 0 1 8-8h48a8 8 0 0 1 8 8v8a8 8 0 0 0 8 8V88c0-13.255-10.745-24-24-24z" fill="#463c4b"></path><path d="M128 128v-24a8 8 0 0 1 8 8v8a8 8 0 0 1-8 8zM48 128v-24a8 8 0 0 0-8 8v8a8 8 0 0 0 8 8z" fill="#f0915a"></path><path d="M88 224c-8.837 0-16-7.163-16-16v-32h32v32c0 8.837-7.163 16-16 16z" fill="#d7e6f0"></path><path d="M96 176H80v45.842a15.907 15.907 0 0 0 16 0z" fill="#4182c3"></path><path d="M72 160v16c0 8.836 7.163 16 16 16s16-7.164 16-16v-16z" fill="#f0915a"></path><path d="M440 160h-32c-13.255 0-24-10.745-24-24V88c0-13.255 10.745-24 24-24h32c13.255 0 24 10.745 24 24v48c0 13.255-10.745 24-24 24z" fill="#fab991"></path><path d="M496 336H352V208c0-17.673 14.327-32 32-32h80c17.673 0 32 14.327 32 32z" fill="#555a6e"></path><path d="M372 224a4 4 0 0 1 4 4v60h-8v-60a4 4 0 0 1 4-4zM476 224a4 4 0 0 1 4 4v60h-8v-60a4 4 0 0 1 4-4zM440 64h-32c-13.255 0-24 10.745-24 24v24a8 8 0 0 0 8-8v-8a8 8 0 0 1 8-8h48a8 8 0 0 1 8 8v8a8 8 0 0 0 8 8V88c0-13.255-10.745-24-24-24z" fill="#463c4b"></path><path d="M464 128v-24a8 8 0 0 1 8 8v8a8 8 0 0 1-8 8zM384 128v-24a8 8 0 0 0-8 8v8a8 8 0 0 0 8 8z" fill="#f0915a"></path><path d="M424 224c-8.837 0-16-7.163-16-16v-32h32v32c0 8.837-7.163 16-16 16z" fill="#d7e6f0"></path><path d="M432 176h-16v45.842a15.907 15.907 0 0 0 16 0z" fill="#4182c3"></path><path d="M408 160v16c0 8.836 7.163 16 16 16s16-7.164 16-16v-16z" fill="#f0915a"></path><path d="M464 448H48c-17.673 0-32-14.327-32-32V288c0-17.673 14.327-32 32-32h416c17.673 0 32 14.327 32 32v128c0 17.673-14.327 32-32 32z" fill="#8c3c14"></path><path d="M464 416H48c-17.673 0-32-14.327-32-32v-96c0-17.673 14.327-32 32-32h416c17.673 0 32 14.327 32 32v96c0 17.673-14.327 32-32 32z" fill="#a55023"></path><path d="M96 368H64a8 8 0 0 1-8-8v-80a8 8 0 0 1 8-8h48a8 8 0 0 1 8 8v64l-24 24z" fill="#d7e6f0"></path><path d="M96 368v-16a8 8 0 0 1 8-8h16z" fill="#a5c3dc"></path><path d="M264 368h-32a8 8 0 0 1-8-8v-80a8 8 0 0 1 8-8h48a8 8 0 0 1 8 8v64l-24 24z" fill="#d7e6f0"></path><path d="M264 368v-16a8 8 0 0 1 8-8h16z" fill="#a5c3dc"></path><path d="M432 368h-32a8 8 0 0 1-8-8v-80a8 8 0 0 1 8-8h48a8 8 0 0 1 8 8v64l-24 24z" fill="#d7e6f0"></path><path d="M432 368v-16a8 8 0 0 1 8-8h16z" fill="#a5c3dc"></path></g></svg>