<svg viewBox="0 0 512 512" xmlns="http://www.w3.org/2000/svg"><g><g clip-rule="evenodd" fill-rule="evenodd"><path d="M49.705 475.295h112.032v-342.29H59.705c-5.507 0-10 4.493-10 10zm300.558 0h112.032v-332.29c0-5.508-4.493-10-10-10H350.263z" fill="#8d9ca8"></path><path d="M250 19a6 6 0 1 1 12 0v99.454a6 6 0 1 1-12 0z" fill="#7a8c98"></path><path d="M202.259 49.681H309.74c5.508 0 10 4.492 10 10v60.335H192.26V59.681c0-5.507 4.492-10 9.999-10z" fill="#8d9ca8"></path><path d="M161.737 83.386h188.527c5.508 0 10 4.492 10 10v388.761H151.737V93.386c0-5.508 4.492-10 10-10z" fill="#9facba"></path><path d="M191.437 270.581h129.127c2.754 0 5 2.246 5 5v23.705c0 2.754-2.246 5-5 5H191.437a5.01 5.01 0 0 1-5-5V275.58a5.009 5.009 0 0 1 5-4.999zM88.371 167.706h24.701c2.754 0 5 2.246 5 5v24.701c0 2.754-2.246 5-5 5H88.371a5.01 5.01 0 0 1-5-5v-24.701c0-2.755 2.246-5 5-5zm0 152.126h24.701c2.754 0 5 2.246 5 5v24.701c0 2.754-2.246 5-5 5H88.371a5.01 5.01 0 0 1-5-5v-24.701c0-2.754 2.246-5 5-5zm0-76.063h24.701c2.754 0 5 2.246 5 5v24.701c0 2.754-2.246 5-5 5H88.371a5.01 5.01 0 0 1-5-5v-24.701c0-2.754 2.246-5 5-5zm0 152.126h24.701c2.754 0 5 2.246 5 5v24.701c0 2.754-2.246 5-5 5H88.371a5.01 5.01 0 0 1-5-5v-24.701c0-2.754 2.246-5 5-5zm310.558-228.189h24.701c2.754 0 5 2.246 5 5v24.701c0 2.754-2.246 5-5 5h-24.701a5.01 5.01 0 0 1-5-5v-24.701c0-2.755 2.246-5 5-5zm0 152.126h24.701c2.754 0 5 2.246 5 5v24.701c0 2.754-2.246 5-5 5h-24.701a5.01 5.01 0 0 1-5-5v-24.701c0-2.754 2.246-5 5-5zm0-76.063h24.701c2.754 0 5 2.246 5 5v24.701c0 2.754-2.246 5-5 5h-24.701a5.01 5.01 0 0 1-5-5v-24.701c0-2.754 2.246-5 5-5zm0 152.126h24.701c2.754 0 5 2.246 5 5v24.701c0 2.754-2.246 5-5 5h-24.701a5.01 5.01 0 0 1-5-5v-24.701c0-2.754 2.246-5 5-5zM191.437 118.454h129.127c2.754 0 5 2.246 5 5v23.705c0 2.754-2.246 5-5 5H191.437a5.01 5.01 0 0 1-5-5v-23.705c0-2.754 2.246-5 5-5zm0 76.063h129.127c2.754 0 5 2.246 5 5v23.705c0 2.754-2.246 5-5 5H191.437a5.01 5.01 0 0 1-5-5v-23.705c0-2.754 2.246-5 5-5zM191.437 354.532h129.127c2.754 0 5 2.246 5 5v115.763H186.437V359.532c0-2.754 2.246-5 5-5z" fill="#a6e7f0"></path><path d="M250 354.532h12v120.763h-12z" fill="#6bd9e7"></path><path d="M26 465.295h460c5.508 0 10 4.492 10 10V489c0 5.508-4.492 10-10 10H26c-5.508 0-10-4.492-10-10v-13.705c0-5.508 4.492-10 10-10z" fill="#7a8c98"></path></g></g></svg>