<svg viewBox="0 0 512 512" xmlns="http://www.w3.org/2000/svg"><g><circle cx="250.968" cy="180.327" fill="#004cbd" r="156.404"></circle><g fill-rule="evenodd"><path d="M226.377 334.801c-74.695-11.798-131.813-76.462-131.813-154.474S151.681 37.651 226.377 25.853c74.695 11.798 131.813 76.462 131.813 154.474s-57.118 142.676-131.813 154.474z" fill="#0062d9"></path><path d="M318.447 100.15c26.983-18.958-22.125-44.377-5.683-63.544-18.956-8.161-39.849-12.682-61.797-12.682-38.024 0-72.879 13.569-99.987 36.129 8.801 12.361 19.241 21.475 30.323 21.475 12.028 0 32.632-.373 29.872 16.273-2.688 16.213 19.263 10.815 7.122 40.242-4.587 11.118 14.434 25.486-6.907 37.784-5.428 3.128-60.757 33.747-37.372 40.548 22.001 6.398 14.451-22.056 45.84-1.095 13.207 8.82 23.508.428 27.271-12.666 2.626-9.141 7.196-32.859 17.636-32.546 40.76 1.222 11.998-38.198 4.701-52.011-10.751-20.349 21.519-57.073 28.419-23.234 2.807 13.767 9.244 13.28 20.56 5.329z" fill="#29b933"></path><path d="M318.447 100.15c6.2-4.356 8.376-9.054 8.26-13.937-23.872-31.636-59.481-53.912-100.353-60.363-28.388 4.487-54.236 16.611-75.373 34.202 8.801 12.361 19.241 21.475 30.323 21.475 12.028 0 32.632-.373 29.872 16.273-2.688 16.213 19.263 10.815 7.122 40.242-4.587 11.118 14.434 25.486-6.907 37.784-5.428 3.128-60.757 33.747-37.372 40.548 22.001 6.398 14.451-22.056 45.84-1.095 13.207 8.82 23.508.428 27.271-12.666 2.626-9.141 7.196-32.859 17.636-32.546 40.76 1.222 11.998-38.198 4.701-52.011-10.751-20.349 21.519-57.073 28.419-23.234 2.807 13.767 9.244 13.28 20.56 5.329z" fill="#2dd62d"></path><path d="M298.794 277.088c-36.613 33.568-14.154-4.005-42.51-4.005-46.969 0-.443 29.6-42.948 30.718-13.617.358-17.731 12.225-18.891 22.405 17.531 6.797 36.591 10.526 56.523 10.526 40.791 0 77.934-15.615 105.779-41.194-11.868-21.854-28.709-45.262-57.953-18.45z" fill="#29b933"></path><path d="M298.794 277.088c-36.613 33.568-14.154-4.005-42.51-4.005-46.969 0-.443 29.6-42.948 30.718-13.617.358-17.731 12.225-18.891 22.405a155.273 155.273 0 0 0 31.906 8.599c44.032-6.947 81.952-32.267 105.674-67.861-8.932-3.895-19.766-2.202-33.231 10.144zM96.246 157.358c8.611-.075 18.946 10.526 27.937-5.076 2.575-4.468 27.782-50.017 33.38-30.766 5.267 18.112-18.157 11.897-.901 37.737 7.261 10.872.352 19.353-10.428 22.45-7.525 2.162-27.05 5.924-26.793 14.519.591 19.711-10.363 19.671-21.808 15.067a157.124 157.124 0 0 1-3.07-30.962c0-7.804.579-15.471 1.683-22.969z" fill="#2dd62d"></path><path d="M332.99 157.519c-35.467 38.449-7.132 98.16 47.425 95.834 7.06-9.915 9.488-19.24 9.3-27.332-.534-22.889-15.842-29.509-33.543-38.25-11.678-5.767-22.34-12.802-23.182-30.252z" fill="#99d100"></path><path d="M327.026 165.038c-25.515 37.778 1.632 89.264 51.611 88.36 3.832-7.356 5.223-14.279 5.079-20.477-.534-22.889-15.842-29.509-33.543-38.25-11.538-5.698-22.085-12.636-23.147-29.632z" fill="#a8e304"></path><path d="M416.931 259.286a5.98 5.98 0 0 1 1.875 11.813c-12.072 1.933-30.166-4.184-46.558-16.083-13.824-10.034-26.737-24.276-34.05-41.311a5.985 5.985 0 1 1 11.015-4.687c6.377 14.856 17.793 27.388 30.066 36.296 13.93 10.111 28.548 15.431 37.652 13.974z" fill="#74ba02"></path><path d="M457.124 115.586c-15.564-49.94-81.442-55.256-106.707-6.846 5.057 11.072 11.918 17.837 19.02 21.72 20.09 10.982 33.477 1.035 49.897-9.924 10.833-7.23 22.257-12.946 37.789-4.951z" fill="#99d100"></path><path d="M397.414 75.459c-18.345 1.935-36.307 12.797-46.997 33.281 5.057 11.072 11.918 17.837 19.02 21.72 20.09 10.982 33.477 1.035 49.897-9.924 7.481-4.993 15.246-9.264 24.45-8.794-8.316-21.801-26.682-34.192-46.371-36.283z" fill="#a8e304"></path><path d="M327.039 137.388a5.994 5.994 0 0 1-11.203-4.265c4.359-11.413 18.712-24.023 37.232-32.278 15.62-6.963 34.406-11.032 52.774-8.853a5.994 5.994 0 1 1-1.406 11.906c-16.095-1.91-32.661 1.703-46.493 7.869-15.704 7-27.611 17-30.904 25.621z" fill="#74ba02"></path><path d="M431.372 244.055c51.031 11.491 88.575-42.903 59.282-88.988-12.117-1.157-21.407 1.403-28.32 5.612-19.556 11.908-17.635 28.475-16.355 48.174.845 12.997.083 25.749-14.608 35.202z" fill="#99d100"></path><path d="M431.372 244.055a63.629 63.629 0 0 0 8.901 1.355c40.877-3.296 66.192-50.191 40.95-90.493-7.651.538-13.891 2.718-18.889 5.761-19.556 11.908-17.635 28.475-16.355 48.174.845 12.997.083 25.749-14.608 35.202z" fill="#a8e304"></path><path d="M477.541 120.486a5.981 5.981 0 1 1 9.281-7.547c7.71 9.488 11.458 28.215 9.35 48.361-1.78 17.012-7.65 35.32-18.725 50.141a5.996 5.996 0 0 1-9.609-7.172c9.699-12.98 14.852-29.129 16.428-44.188 1.791-17.12-.91-32.44-6.725-39.595z" fill="#74ba02"></path><path d="M312.191 417.773c9.087-15.29-2.424-34.659-20.197-33.987-28.09 0-35.436 1.451-61.461-14.055l-28.315-16.869c-17.303-10.309-33.138-14.599-53.193-12.745l-77.955 7.21V462.52c75.067 0 157.224 37.883 236.776 21.405 27.951-5.79 118.917-57.83 135.829-80.061 15.284-20.094-4.448-39.019-27.763-25.56-31.396 18.126-101.023 49.658-130.217 52.53 12.2-1.507 22.001-5.494 26.497-13.061z" fill="#fdb0a0"></path><path d="M312.191 417.773c9.087-15.29-2.424-34.659-20.197-33.987-28.09 0-35.436 1.451-61.461-14.055l-28.315-16.869c-17.303-10.309-33.138-14.599-53.193-12.745l-77.955 7.21v95.651c74.398.884 158.177 37.664 236.776 21.384 27.951-5.79 118.917-57.83 135.829-80.061a31.383 31.383 0 0 0 2.444-3.714c-5.323-7.222-17.207-9.788-30.207-2.283-31.396 18.126-101.023 49.658-130.217 52.53 12.2-1.507 22.001-5.494 26.497-13.061z" fill="#ffcec0"></path><path d="M196.42 397.45c10.657 6.333 33.976 13.185 56.727 15.594 11.452 1.212 22.546 1.365 31.205-.215 29.175-5.321 27.814-18.035 19.601-26.15 10.291 5.889 15.048 19.637 8.239 31.094-3.698 6.223-10.984 10.024-20.243 12.017-1.88.351-3.954.697-6.255 1.044-10.303 1.649-22.596 1.669-34.411.418-25.254-2.674-51.693-10.609-64.183-18.031-12.211-7.258-2.96-23.074 9.319-15.771z" fill="#fdb0a0"></path><path d="M11.065 328.138h47.337c9.293 0 16.896 7.602 16.896 16.896v119.781c0 9.292-7.603 16.895-16.896 16.895H11.065z" fill="#2a93fc"></path><path d="M11.065 328.138h47.337a16.764 16.764 0 0 1 2.647 9.05v118.14c0 7.22-5.889 13.109-13.109 13.109H11.065z" fill="#4eb1fc"></path><path d="M43.181 460.67c6.968 0 12.651-5.683 12.651-12.651s-5.683-12.651-12.651-12.651-12.651 5.683-12.651 12.651 5.683 12.651 12.651 12.651z" fill="#0062d9"></path></g></g></svg>