<svg viewBox="0 0 512 512" xmlns="http://www.w3.org/2000/svg"><g><circle cx="445.398" cy="224.78" fill="#fd8087" r="66.602"></circle><path d="M488.157 173.729a66.282 66.282 0 0 1 7.398 30.496c0 36.783-29.819 66.602-66.602 66.602-16.28 0-31.189-5.849-42.759-15.55 11.066 21.439 33.415 36.106 59.204 36.106 36.783 0 66.602-29.819 66.602-66.602 0-20.504-9.272-38.835-23.843-51.052z" fill="#fe646f"></path><path d="M316.099 389.591h-112.8c-36.188 23.29-59.112 63.749-59.112 108.319 0 7.782 6.308 14.09 14.09 14.09h81.771l19.651-8.085L279.35 512h81.771c7.782 0 14.09-6.309 14.09-14.09 0-44.571-22.924-85.029-59.112-108.319z" fill="#eaf6ff"></path><path d="m279.35 512-10.406-68.546-9.245-3.454-9.245 3.454L240.048 512z" fill="#fd8087"></path><path d="m268.944 443.454 10.406-23.92-1.817-13.977-17.834-5.677-17.08 6.428-2.571 13.226 10.406 23.92z" fill="#fe646f"></path><path d="M316.099 389.591h-24.976c36.188 23.29 59.112 63.749 59.112 108.319 0 7.782-6.308 14.09-14.09 14.09h24.976c7.782 0 14.09-6.309 14.09-14.09 0-44.571-22.924-85.029-59.112-108.319z" fill="#d8ecfe"></path><path d="M284.675 374.907h-24.976v24.976l19.651 19.651c4.483 4.483 11.63 4.914 16.59.965 9.728-7.746 16.933-18.53 20.158-30.908a128.683 128.683 0 0 0-31.423-14.684zM234.723 374.907h24.976v24.976l-19.651 19.651c-4.483 4.483-11.63 4.914-16.59.965-9.728-7.746-16.933-18.53-20.158-30.908a128.683 128.683 0 0 1 31.423-14.684z" fill="#b3dafe"></path><path d="M259.699 399.883c-13.794 0-24.976-11.182-24.976-24.976v-28.43h49.951v28.43c.001 13.794-11.181 24.976-24.975 24.976z" fill="#f6a96c"></path><path d="M200.382 229.629v31.219l-8.443 20.813 8.443 20.813c0 28.104 19.551 51.625 45.789 57.749h7.711l22.056-8.162 8.529 4.31c20.388-9.385 34.549-29.981 34.549-53.897v-72.845z" fill="#fed2a4"></path><path d="M291.959 229.629v72.846c0 28.103-19.551 51.625-45.789 57.749a59.415 59.415 0 0 0 13.528 1.568c32.76 0 59.317-26.557 59.317-59.317l9.948-20.813-9.948-20.813v-31.22z" fill="#ffbd86"></path><path d="m297.992 162.638-4.58-1.041a50.167 50.167 0 0 0-35.993-15.221c-41.456 0-75.063 33.607-75.063 75.063v49.815l17.848-10.406h36.043a85.775 85.775 0 0 0 43.64-11.932l9.88-5.839a6.244 6.244 0 0 1 6.995.435l15.304 11.827 6.575-3.139.369 8.506.183.142 17.848 10.406v-59.696c.001-23.423-16.208-43.729-39.049-48.92z" fill="#7a6d79"></path><path d="m297.992 162.638-1.944-.442c9.942 9.249 16.018 22.406 16.018 36.738v56.405l7.127 5.508 17.848 10.406v-59.696c.001-23.422-16.208-43.728-39.049-48.919z" fill="#685e68"></path><g fill="#f6a96c"><path d="M329.423 302.474h-10.407v-41.626h10.407c11.495 0 20.813 9.318 20.813 20.813s-9.319 20.813-20.813 20.813zM189.975 302.474h10.407v-41.626h-10.407c-11.495 0-20.813 9.318-20.813 20.813s9.319 20.813 20.813 20.813z" fill="#f6a96c"></path></g><circle cx="66.602" cy="224.78" fill="#60b7ff" r="66.602"></circle><path d="M109.36 173.729a66.282 66.282 0 0 1 7.398 30.496c0 36.783-29.819 66.602-66.602 66.602-16.28 0-31.189-5.849-42.759-15.55 11.066 21.439 33.415 36.106 59.204 36.106 36.783 0 66.602-29.819 66.602-66.602 0-20.504-9.271-38.835-23.843-51.052z" fill="#26a6fe"></path><circle cx="154.593" cy="66.602" fill="#ffe177" r="66.602"></circle><path d="M197.352 15.55a66.282 66.282 0 0 1 7.398 30.496c0 36.783-29.819 66.602-66.602 66.602-16.28 0-31.189-5.849-42.759-15.55 11.066 21.439 33.415 36.106 59.204 36.106 36.783 0 66.602-29.819 66.602-66.602 0-20.503-9.272-38.835-23.843-51.052z" fill="#ffd15b"></path><circle cx="357.407" cy="66.602" fill="#00f2a6" r="66.602"></circle><path d="M400.166 15.55a66.282 66.282 0 0 1 7.398 30.496c0 36.783-29.819 66.602-66.602 66.602-16.28 0-31.189-5.849-42.759-15.55 11.066 21.439 33.415 36.106 59.204 36.106 36.783 0 66.602-29.819 66.602-66.602-.001-20.503-9.272-38.835-23.843-51.052z" fill="#0ed290"></path><path d="M475.577 217.28h-22.679v-22.679c0-4.143-3.357-7.5-7.5-7.5s-7.5 3.357-7.5 7.5v22.679H415.22c-4.143 0-7.5 3.357-7.5 7.5s3.357 7.5 7.5 7.5h22.679v22.679c0 4.143 3.357 7.5 7.5 7.5s7.5-3.357 7.5-7.5V232.28h22.679c4.143 0 7.5-3.357 7.5-7.5s-3.358-7.5-7.501-7.5z" fill="#fd4755"></path><path d="M99.117 217.574c-3.302-14.909-16.627-26.094-32.515-26.094s-29.213 11.185-32.515 26.094c-.821 3.708 2.083 7.207 5.882 7.207h19.134v25.8h-3.231c-4.142 0-7.5 3.357-7.5 7.5s3.358 7.5 7.5 7.5h4.765c7.425 0 13.466-6.041 13.466-13.466v-27.334h19.134c3.797 0 6.701-3.499 5.88-7.207z" fill="#0593fc"></path><path d="M162.453 59.232c-4.665-1.648-9.804-3.625-12.554-5.782-.646-.507-1.195-1.76-.957-2.901.08-.383.324-1.549 2.925-2.221 3.665-.95 9.134.734 10.771 1.401a7.499 7.499 0 0 0 5.768-13.845c-.53-.222-3.103-1.25-6.641-2.004v-.579c0-4.143-3.358-7.5-7.5-7.5s-7.5 3.357-7.5 7.5v.896c-6.651 2.144-11.175 6.923-12.505 13.282-1.372 6.562 1.192 13.704 6.381 17.774 4.444 3.486 10.707 5.964 16.812 8.122 2.834 1.002 4.036 2.91 3.571 5.674-.359 2.134-2.197 5.755-6.81 5.785-4.847.026-5.997-.147-9.536-2.462a7.499 7.499 0 0 0-10.382 2.171 7.5 7.5 0 0 0 2.171 10.382c3.874 2.534 6.951 3.804 10.297 4.41v.568c0 4.143 3.358 7.5 7.5 7.5s7.5-3.357 7.5-7.5v-1.421a21.893 21.893 0 0 0 14.052-16.946c1.669-9.926-3.701-18.889-13.363-22.304z" fill="#feb237"></path><path d="m382.419 48.034-20.037-20.037a7.502 7.502 0 0 0-10.608.001l-20.036 20.037a7.498 7.498 0 0 0 5.304 12.802 7.478 7.478 0 0 0 5.304-2.197l7.232-7.233v48.495c0 4.143 3.357 7.5 7.5 7.5s7.5-3.357 7.5-7.5V51.408l7.233 7.234a7.502 7.502 0 0 0 10.608-10.608z" fill="#00c285"></path></g></svg>