<svg viewBox="0 0 512 512" xmlns="http://www.w3.org/2000/svg"><g><path d="M247.172 366.345v11.123l-41.842 20.921h-.089l-19.862-9.975 52.966-26.483z" fill="#805333"></path><path d="M273.655 8.828v176.551L256 194.207l-17.655-8.828V8.828L256 0z" fill="#af8066"></path><path d="M238.345 35.31v61.793l-105.931 52.966V88.276z" fill="#805333"></path><path d="M414.897 256 256 335.448l-132.414-66.207 8.828-4.413v-26.483l105.931-52.966L256 194.207l17.655-8.828z" fill="#cbb292"></path><path d="M414.897 256v26.483L256 361.931v-26.483z" fill="#805333"></path><path d="M414.897 282.483v150.069l-17.656 8.827-17.655-8.827V300.138zM256 335.448v26.483l-6.621-3.266-11.034-5.562-114.759-57.379v-26.483z" fill="#af8066"></path><path d="M273.655 353.103v150.069L256 512l-17.655-8.828V353.103l11.034 5.562 6.621 3.266zM132.414 79.448v185.38l-8.828 4.413v26.483l8.828 4.414v52.965l-17.655 8.828v26.483l17.655 8.827v35.311l-17.655 8.827-17.656-8.827V79.448l17.656-8.827z" fill="#cb8252"></path><path d="M238.345 423.724v26.483l-123.586-61.793v-26.483l17.655 8.828 31.426 15.713 25.512 12.8zM379.586 353.103v26.483l-79.448-39.724 26.483-13.241z" fill="#af8066"></path><path d="M379.586 335.448v17.655l-52.965-26.482 17.655-8.828zM238.345 406.069v17.655l-48.993-24.452-25.512-12.8-31.426-15.713-17.655-8.828 17.655-8.828 44.138 22.069 19.862 9.976h.088z" fill="#cbb292"></path><path d="M238.345 353.103v11.123l-41.843 20.922h-.088l-19.862-9.976 52.965-26.482z" fill="#cbb292"></path></g></svg>