<svg viewBox="0 0 512 512" xmlns="http://www.w3.org/2000/svg"><g><path d="M315.908 504.51H196.092l19.694-64.254h80.428z" fill="#90abbd"></path><path d="M512 108.16v286.163c0 29.459-23.95 53.426-53.38 53.426H53.38C23.95 447.749 0 423.782 0 394.323V108.16c0-29.459 23.95-53.426 53.38-53.426h405.24c29.43 0 53.38 23.967 53.38 53.426z" fill="#56788b"></path><path d="M512 108.16v286.163c0 29.459-23.95 53.426-53.38 53.426h-20c29.43 0 53.38-23.967 53.38-53.426V108.16c0-29.459-23.95-53.426-53.38-53.426h20c29.43 0 53.38 23.967 53.38 53.426z" fill="#415e6f"></path><path d="M482.08 106.922v257.683c0 13.082-10.64 23.727-23.72 23.727H53.64c-13.08 0-23.72-10.645-23.72-23.727V106.922c0-13.082 10.64-23.727 23.72-23.727h404.72c13.08 0 23.72 10.645 23.72 23.727z" fill="#d9f0f4"></path><path d="M482.08 106.922v257.683c0 13.082-10.64 23.727-23.72 23.727h-20c13.08 0 23.72-10.645 23.72-23.727V106.922c0-13.082-10.64-23.727-23.72-23.727h20c13.08 0 23.72 10.645 23.72 23.727z" fill="#bae1e5"></path><path d="M354.717 497.021H157.283c-4.142 0-7.5 3.353-7.5 7.49s3.358 7.49 7.5 7.49h197.434c4.142 0 7.5-3.353 7.5-7.49s-3.358-7.49-7.5-7.49z" fill="#56788b"></path><g fill="#415e6f"><path d="M94.694 411.077H64.055c-4.142 0-7.5 3.353-7.5 7.49s3.358 7.49 7.5 7.49h30.639c4.142 0 7.5-3.353 7.5-7.49s-3.358-7.49-7.5-7.49zM154.694 411.077h-30.639c-4.142 0-7.5 3.353-7.5 7.49s3.358 7.49 7.5 7.49h30.639c4.142 0 7.5-3.353 7.5-7.49s-3.358-7.49-7.5-7.49z" fill="#415e6f"></path></g><g fill="#90abbd"><path d="M95.017 313.331H62.875a7.5 7.5 0 0 0 0 15h32.143a7.5 7.5 0 1 0-.001-15zM55.375 355.831a7.5 7.5 0 0 0 7.5 7.5h52.113a7.5 7.5 0 0 0 0-15H62.875a7.5 7.5 0 0 0-7.5 7.5z" fill="#90abbd"></path></g><path d="M420.055 172.029c0 76.197-51.964 140.272-122.384 158.706-13.304 3.491-27.268 5.341-41.672 5.341-90.605 0-164.055-73.447-164.055-164.047C91.945 81.419 165.395 7.972 256 7.972c14.404 0 28.368 1.85 41.672 5.341 70.419 18.434 122.383 82.509 122.383 158.716z" fill="#d9f0f4"></path><path d="M420.055 172.029c0 76.197-51.964 140.272-122.384 158.706 61.947-26.046 105.439-87.3 105.439-158.706S359.619 39.359 297.672 13.313c70.419 18.434 122.383 82.509 122.383 158.716z" fill="#bae1e5"></path><path d="M256 0c-4.001 0-7.982.14-11.913.41C154.712 6.542 83.883 81.169 83.883 172.029c0 90.851 70.829 165.478 160.204 171.609 3.931.27 7.912.41 11.913.41 94.906 0 172.117-77.168 172.117-172.019C428.117 77.168 350.906 0 256 0zm100.638 51.532c32.699 27.326 54.155 67.675 56.296 112.996H363.75c-1.04-39.229-10.223-76.137-26.227-105.534a211.169 211.169 0 0 0 17.185-6.611c.649-.281 1.29-.561 1.93-.851zM329.54 298.228a200.673 200.673 0 0 1 13.164 4.691 157.24 157.24 0 0 1-29.588 15.393c5.821-5.781 11.323-12.493 16.424-20.084zm-66.038 30.307v-41.069c17.625.49 34.67 2.691 50.704 6.512-14.594 20.023-32.159 32.006-50.704 34.557zm59.287-47.871c-18.645-4.881-38.611-7.662-59.287-8.202v-30.987h-15.004v30.987c-20.676.54-40.641 3.321-59.286 8.202-15.794-27.646-24.897-63.134-25.957-101.133h85.244v26.936h15.004v-26.936h85.244c-1.062 37.999-10.164 73.487-25.958 101.133zM163.254 164.527c1.06-37.999 10.163-73.497 25.957-101.143 18.645 4.891 38.611 7.672 59.286 8.212v92.931zm100.248 0V71.596c20.676-.54 40.641-3.321 59.287-8.212 15.794 27.646 24.897 63.144 25.957 101.143zm50.704-114.456c-16.034 3.831-33.079 6.031-50.704 6.511V15.514c18.545 2.55 36.11 14.533 50.704 34.557zm-1.09-24.325a156.588 156.588 0 0 1 29.588 15.384 194.82 194.82 0 0 1-13.164 4.691c-5.101-7.592-10.603-14.294-16.424-20.075zm-64.618-10.232v41.069c-17.625-.48-34.67-2.681-50.704-6.511 14.594-20.025 32.159-32.008 50.704-34.558zm-49.614 10.232c-5.822 5.781-11.323 12.483-16.425 20.075a200.673 200.673 0 0 1-13.164-4.691 156.657 156.657 0 0 1 29.589-15.384zm-43.522 25.786a210.002 210.002 0 0 0 19.115 7.462c-16.004 29.397-25.187 66.305-26.227 105.534H99.067c2.14-45.321 23.596-85.67 56.295-112.996zM99.067 179.531h49.184c1.04 39.219 10.223 76.127 26.227 105.524a206.772 206.772 0 0 0-19.115 7.472c-32.7-27.337-54.156-67.686-56.296-112.996zm70.229 123.388c4.281-1.7 8.672-3.261 13.164-4.691 5.101 7.592 10.603 14.303 16.425 20.085a157.28 157.28 0 0 1-29.589-15.394zm28.498-8.942c16.034-3.821 33.079-6.021 50.704-6.512v41.069c-18.545-2.55-36.11-14.533-50.704-34.557zm158.844-1.46a210.662 210.662 0 0 0-19.115-7.461c16.004-29.397 25.187-66.305 26.227-105.524h49.184c-2.141 45.309-23.597 85.658-56.296 112.985z" fill="#4dd4f7"></path><path d="M428.117 172.029c0 94.852-77.211 172.019-172.117 172.019-4.001 0-7.982-.14-11.913-.41 43.332-3.261 82.183-22.555 110.631-51.972.65.28 1.28.56 1.92.85 32.699-27.326 54.155-67.675 56.296-112.986h-9.983c.11-2.481.16-4.991.16-7.502s-.05-5.021-.16-7.502h9.983c-2.141-45.32-23.597-85.669-56.296-112.996-.64.29-1.28.57-1.93.85C326.259 22.965 287.409 3.671 244.087.41 248.018.14 251.999 0 256 0c94.906 0 172.117 77.168 172.117 172.029z" fill="#00c2f3"></path><g fill="#ff6b81"><ellipse cx="114.87" cy="87.459" fill="#ff6b81" rx="25.016" ry="25.006"></ellipse><path d="M256 198.961c-13.793 0-25.015 11.217-25.015 25.006 0 13.788 11.222 25.006 25.015 25.006 13.794 0 25.016-11.217 25.016-25.006S269.794 198.961 256 198.961z" fill="#ff6b81"></path><ellipse cx="351.244" cy="118.793" fill="#ff6b81" rx="25.016" ry="25.006"></ellipse></g></g></svg>