<svg id="Capa_1" enable-background="new 0 0 504.502 504.502" height="512" viewBox="0 0 504.502 504.502" width="512" xmlns="http://www.w3.org/2000/svg"><g><path d="m421.668.001h-22.552l-29.948 37.833v157.833h60v-188.166c0-4.142-3.358-7.5-7.5-7.5z" fill="#ffb24c"/><path d="m263.502 7.501v150.667c0 4.142 3.358 7.5 7.5 7.5h75l53.167 30v-60l-30-30 30-30v-75.667h-30.333l-22.167 15-22.833-15h-52.833c-4.144 0-7.501 3.358-7.501 7.5z" fill="#fcc95d"/><path d="m497.002 165.667h-22.552l-29.948 37.833v157.833l30-30h22.5c4.142 0 7.5-3.358 7.5-7.5v-150.666c0-4.142-3.358-7.5-7.5-7.5z" fill="#ff9a4c"/><path d="m338.835 173.167v151.333c0 4.142 3.358 7.5 7.5 7.5v29.333h128.167v-60l-30-30 30-30v-75.667h-30l-22.5 15-23.167-15h-52.5c-4.142.001-7.5 3.359-7.5 7.501z" fill="#ffb24c"/><path d="m399.168 105.668-45.052-15 15.052 45h30z" fill="#dbffff"/><path d="m293.501 105.668v30h75.667v-45h-60.667z" fill="#fff"/><path d="m399.168 75.668h-30.052l-22.781 15 22.781 15h30.052z" fill="#e85241"/><path d="m293.501 75.668h75.667v30h-75.667z" fill="#fc6749"/><path d="m323.835.001h45v45.667h-45z" fill="#fbf0a8"/><path d="m474.502 331.334h-30.052l-74.948 82.833 74.948 82.833h22.552c4.142 0 7.5-3.358 7.5-7.5z" fill="#ff824c"/><path d="m308.835 338.834v150.667c0 4.142 3.358 7.5 7.5 7.5h128.167v-30l-30-30 30-30v-75.667h-30l-22.5 15-23.167-15h-52.5c-4.142 0-7.5 3.358-7.5 7.5z" fill="#ff9a4c"/><path d="m444.502 437.001-45.052-15 15 45h30.052z" fill="#dbffff"/><path d="m338.835 437.001v30h75.667v-45h-60.667z" fill="#fff"/><path d="m444.502 407.001h-30.052l-22.782 15 22.782 15h30.052z" fill="#e85241"/><path d="m338.835 407.001h75.667v30h-75.667z" fill="#fc6749"/><path d="m368.835 331.334h45.667v45.667h-45.667z" fill="#fbf0a8"/><path d="m474.502 271.334-45.052-15 15 45h30.052z" fill="#dbffff"/><path d="m368.835 271.334v30h75.667v-45h-60.667z" fill="#fff"/><path d="m474.502 241.334h-30.052l-22.782 15 22.782 15h30.052z" fill="#e85241"/><path d="m368.835 241.334h75.667v30h-75.667z" fill="#fc6749"/><path d="m399.168 165.668h45v45.667h-45z" fill="#fbf0a8"/><g fill="#4c5a80"><path d="m286.335 377.001c0-20.677-16.822-37.5-37.5-37.5s-37.5 16.823-37.5 37.5 16.822 37.5 37.5 37.5 37.5-16.823 37.5-37.5zm-60 0c0-12.406 10.094-22.5 22.5-22.5s22.5 10.094 22.5 22.5-10.094 22.5-22.5 22.5-22.5-10.094-22.5-22.5z"/><path d="m94.021 407.001c0 4.142 3.357 7.5 7.5 7.5s7.5-3.358 7.5-7.5v-52.5h9.135c4.143 0 7.5-3.358 7.5-7.5s-3.357-7.5-7.5-7.5h-33.136c-4.143 0-7.5 3.358-7.5 7.5s3.357 7.5 7.5 7.5h9.001z"/><path d="m163.835 414.501c20.678 0 37.5-16.823 37.5-37.5s-16.822-37.5-37.5-37.5-37.5 16.823-37.5 37.5 16.822 37.5 37.5 37.5zm0-60c12.406 0 22.5 10.094 22.5 22.5s-10.094 22.5-22.5 22.5-22.5-10.094-22.5-22.5 10.093-22.5 22.5-22.5z"/><path d="m278.835 429.501c-4.143 0-7.5 3.358-7.5 7.5v21.471h-26.521v-21.471c0-4.142-3.357-7.5-7.5-7.5s-7.5 3.358-7.5 7.5v60c0 4.142 3.357 7.5 7.5 7.5s7.5-3.358 7.5-7.5v-23.529h26.521v23.529c0 4.142 3.357 7.5 7.5 7.5s7.5-3.358 7.5-7.5v-60c0-4.142-3.358-7.5-7.5-7.5z"/><path d="m66.969 436.589c-.502-2.466-2.009-4.529-4.05-5.782-1.218-.748-2.627-1.208-4.127-1.293-4.012-.227-7.682 2.285-8.923 6.107-.028.086-.054.173-.079.259l-10.644 37.339-10.644-37.339c-.025-.087-.051-.173-.079-.26-1.241-3.822-4.909-6.333-8.922-6.107-4.012.227-7.375 3.135-8.195 7.163l-11.17 58.447c-.777 4.069 1.889 7.997 5.959 8.775 4.068.778 7.997-1.89 8.774-5.959l6.312-33.027 9.466 33.206c.025.087.051.173.079.259 1.185 3.654 4.563 6.115 8.437 6.122 3.842-.008 7.22-2.469 8.405-6.124.027-.086.053-.171.078-.257l9.466-33.206 6.312 33.026c.777 4.069 4.706 6.736 8.774 5.959s6.736-4.706 5.959-8.774z"/><path d="m137.029 429.501c-4.143 0-7.5 3.358-7.5 7.5v41.243c0 2.874-.816 6.585-7.183 9.791-1.958.986-4.085 1.466-6.502 1.466-2.674-.004-4.974-.652-7.057-1.983-4.938-3.155-5.95-5.972-5.95-9.23v-41.287c0-4.142-3.357-7.5-7.5-7.5s-7.5 3.358-7.5 7.5v41.287c0 9.054 4.331 16.413 12.874 21.87 4.499 2.875 9.575 4.336 15.087 4.343 4.794 0 9.253-1.033 13.295-3.069 12.758-6.424 15.436-16.156 15.436-23.188v-41.243c0-4.142-3.358-7.5-7.5-7.5z"/><path d="m216.133 482.514c-3.176-2.662-7.905-2.246-10.566.928-.513.612-1.066 1.183-1.646 1.698-2.967 2.643-6.759 3.983-11.27 3.983-12.199 0-22.124-9.925-22.124-22.123s9.925-22.123 22.124-22.123c4.434 0 8.709 1.305 12.364 3.774 3.432 2.319 8.095 1.416 10.413-2.017s1.416-8.094-2.017-10.413c-6.145-4.15-13.323-6.344-20.761-6.344-20.471 0-37.124 16.654-37.124 37.123s16.653 37.123 37.124 37.123c8.183 0 15.529-2.691 21.245-7.781 1.12-.997 2.185-2.095 3.164-3.263 2.663-3.173 2.248-7.903-.926-10.565z"/></g></g></svg>