<svg id="Flat" height="512" viewBox="0 0 64 64" width="512" xmlns="http://www.w3.org/2000/svg"><path d="m3 21h58a0 0 0 0 1 0 0v38a2 2 0 0 1 -2 2h-54a2 2 0 0 1 -2-2v-38a0 0 0 0 1 0 0z" fill="#fafaff"/><path d="m6 21h55a0 0 0 0 1 0 0v38a2 2 0 0 1 -2 2h-51a2 2 0 0 1 -2-2v-38a0 0 0 0 1 0 0z" fill="#f3f3ff"/><path d="m3 21h58v2.5h-58z" fill="#f3f3ff"/><path d="m6 21h55v2.5h-55z" fill="#e6e6ff"/><rect fill="#fb7d8c" height="12" rx="2" width="62" x="1" y="9"/><path d="m6 11.5a2 2 0 0 0 -2 2v7.5h57a2 2 0 0 0 2-2v-7.5z" fill="#fa5a69"/><g fill="#5a5a63"><path d="m32 2.25a2.752 2.752 0 0 0 -2.75 2.75v4h1.5v-4a1.25 1.25 0 0 1 2.5 0v8a1.252 1.252 0 0 1 -1.25 1.25.75.75 0 0 0 0 1.5 2.752 2.752 0 0 0 2.75-2.75v-8a2.752 2.752 0 0 0 -2.75-2.75z"/><path d="m56 2.25a2.752 2.752 0 0 0 -2.75 2.75v4h1.5v-4a1.25 1.25 0 0 1 2.5 0v8a1.252 1.252 0 0 1 -1.25 1.25.75.75 0 0 0 0 1.5 2.752 2.752 0 0 0 2.75-2.75v-8a2.752 2.752 0 0 0 -2.75-2.75z"/><path d="m44 2.25a2.752 2.752 0 0 0 -2.75 2.75v4h1.5v-4a1.25 1.25 0 0 1 2.5 0v8a1.252 1.252 0 0 1 -1.25 1.25.75.75 0 0 0 0 1.5 2.752 2.752 0 0 0 2.75-2.75v-8a2.752 2.752 0 0 0 -2.75-2.75z"/><path d="m8 2.25a2.752 2.752 0 0 0 -2.75 2.75v4h1.5v-4a1.25 1.25 0 0 1 2.5 0v8a1.252 1.252 0 0 1 -1.25 1.25.75.75 0 0 0 0 1.5 2.752 2.752 0 0 0 2.75-2.75v-8a2.752 2.752 0 0 0 -2.75-2.75z"/><path d="m20 2.25a2.752 2.752 0 0 0 -2.75 2.75v4h1.5v-4a1.25 1.25 0 0 1 2.5 0v8a1.252 1.252 0 0 1 -1.25 1.25.75.75 0 0 0 0 1.5 2.752 2.752 0 0 0 2.75-2.75v-8a2.752 2.752 0 0 0 -2.75-2.75z"/></g><path d="m17 50a5.5 5.5 0 0 1 -5.5-5.5v-8a5.5 5.5 0 0 1 5.5-5.5 5.5 5.5 0 0 1 5.5 5.5v8a5.5 5.5 0 0 1 -5.5 5.5zm0-3a2.5 2.5 0 0 0 2.5-2.5v-8a2.5 2.5 0 0 0 -2.5-2.5 2.5 2.5 0 0 0 -2.5 2.5v8a2.5 2.5 0 0 0 2.5 2.5z" fill="#6b6b73"/><path d="m17.5 32.5a4.5 4.5 0 0 0 -4.5 4.5v9a5.47 5.47 0 0 0 .934 3.066 5.5 5.5 0 0 0 8.566-4.566v-8a5.484 5.484 0 0 0 -.422-2.113 6.479 6.479 0 0 0 -4.578-1.887zm2 12a2.5 2.5 0 0 1 -5 0v-8a2.5 2.5 0 0 1 5 0z" fill="#5a5a63"/><path d="m32 50a5.506 5.506 0 0 1 -5.5-5.5v-8a5.5 5.5 0 0 1 11 0 1.5 1.5 0 0 1 -3 0 2.5 2.5 0 0 0 -5 0v8a2.5 2.5 0 0 0 5 0 1.5 1.5 0 0 1 3 0 5.506 5.506 0 0 1 -5.5 5.5z" fill="#6b6b73"/><path d="m32 50a5.506 5.506 0 0 0 5.5-5.5 1.5 1.5 0 0 0 -3 0 2.5 2.5 0 0 1 -5 0v-8a2.5 2.5 0 0 1 5 0 1.5 1.5 0 0 0 3 0 5.462 5.462 0 0 0 -.681-2.645 6.3 6.3 0 0 0 -3.819-1.355c-3.033 0-5 2.467-5 5.5v8a5.467 5.467 0 0 0 .935 3.064 5.465 5.465 0 0 0 3.065.936z" fill="#5a5a63"/><path d="m51 31h-8a1.5 1.5 0 0 0 0 3h2.5v14.5a1.5 1.5 0 0 0 3 0v-14.5h2.5a1.5 1.5 0 0 0 0-3z" fill="#6b6b73"/><path d="m48.5 48.5v-14.5h2.5a1.5 1.5 0 0 0 1.5-1.5h-8a1.5 1.5 0 0 0 -1.5 1.5h3a1 1 0 0 1 1 1v15a1.5 1.5 0 0 0 1.5-1.5z" fill="#5a5a63"/></svg>