<svg viewBox="0 0 512 512" xmlns="http://www.w3.org/2000/svg"><g><path d="m464.51 301.176-35.019 35.97-186.996-78.822-97.284-18.782c-2.52-54.999-10.486-179.621 99.885-204.816C330.034 15.333 403.038 68.37 403.038 68.37s183.037-.163 61.472 232.806z" fill="#b16e3d"></path><path d="m236.963 223.571-66.231 92.453-25.519-76.481c-2.52-54.999-10.486-179.621 99.885-204.816 84.936-19.394 157.94 33.643 157.94 33.643-147.556-28.535-181.21 97.348-166.075 155.201z" fill="#985e33"></path><path d="M150.802 312.736c-23.946-4.631-39.604-27.797-34.973-51.743a44.31 44.31 0 0 1 2.919-9.385c10.442-23.823 46.321-12.646 41.383 12.892l277.493 53.663c4.939-25.538 42.398-22.532 43.205 3.466a44.32 44.32 0 0 1-.79 9.796c-4.631 23.946-27.797 39.604-51.743 34.973" fill="#eaac9d"></path><path d="M406.09 512H161.575l5.965-29.05c4.906-23.92 23.544-42.099 46.67-46.995a60.255 60.255 0 0 1 12.561-1.313h114.125c4.285 0 8.489.448 12.55 1.313 23.126 4.896 41.774 23.075 46.68 46.995z" fill="#90dfc3"></path><path d="M249.932 434.641c-2.545 0-5.038.448-7.451 1.313-13.741 4.896-24.806 23.075-27.727 46.995L211.212 512H161.57l5.965-29.05c4.906-23.92 23.544-42.099 46.67-46.995a60.255 60.255 0 0 1 12.561-1.313h23.166z" fill="#66b49d"></path><path d="M317.657 378.149v56.492c0 18.678-15.146 33.824-33.824 33.824-18.688 0-33.834-15.146-33.834-33.824v-56.492z" fill="#ffcbbe"></path><path d="M157.479 285.844a7.613 7.613 0 0 1-6.943-4.486c-.114-.247-5.106-10.797-12.795-9.299a7.612 7.612 0 0 1-2.912-14.942c15.687-3.055 25.987 9.889 29.601 18.021a7.611 7.611 0 0 1-3.863 10.047 7.567 7.567 0 0 1-3.088.659zM434.979 339.481a7.578 7.578 0 0 1-5.488-2.334c-2.897-3.021-2.828-7.799.176-10.715.425-.412 4.316-4.104 10.041-6.726 8.51-3.899 17.085-3.529 24.145 1.041a7.61 7.61 0 0 1 2.253 10.526 7.61 7.61 0 0 1-10.526 2.253c-6.621-4.286-15.257 3.779-15.343 3.861a7.62 7.62 0 0 1-5.258 2.094z" fill="#df9380"></path><path d="M294.879 466.621a33.88 33.88 0 0 1-11.044 1.842c-18.688 0-33.834-15.146-33.834-33.824v-56.492h22.088v56.492c0 14.821 9.527 27.412 22.79 31.982z" fill="#eaac9d"></path><path d="M317.657 378.149v56.492l-67.659-4.448v-52.044z" fill="#eaac9d"></path><path d="m446.111 274.25-13.677 70.725c-10.8 55.844-64.827 92.371-120.682 81.569l-75.242-14.551c-55.844-10.8-92.369-64.837-81.569-120.682l13.293-68.736c21.869 1.212 45.282 1.728 68.73.996 56.842-1.759 113.957-10.879 150.13-35.328-.001.001 6.863 67.648 59.017 86.007z" fill="#ffcbbe"></path><path d="m302.947 424.842-66.438-12.848c-55.844-10.8-92.369-64.837-81.569-120.682l13.293-68.736c21.869 1.212 45.282 1.728 68.73.996l-15.585 80.589c-10.799 55.843 25.715 109.879 81.569 120.681z" fill="#eaac9d"></path><g fill="#e490b7"><ellipse cx="374.031" cy="341.137" fill="#e490b7" rx="14.066" ry="23.133" transform="rotate(-79.05 374.072 341.054)"></ellipse><ellipse cx="210.573" cy="309.527" fill="#e490b7" rx="14.066" ry="23.133" transform="rotate(-79.05 210.617 309.474)"></ellipse></g><path d="M310.261 312.601a7.67 7.67 0 0 1-1.453-.14l-27.022-5.226a7.612 7.612 0 0 1 2.89-14.946l27.022 5.226a7.612 7.612 0 0 1-1.437 15.086z" fill="#eaac9d"></path><path d="M234.168 317.036c-6.15 31.8 14.644 62.565 46.445 68.715s62.565-14.644 68.715-46.445z" fill="#454045"></path><path d="M321.471 378.724c-11.875 6.993-26.258 9.851-40.859 7.028s-26.881-10.838-35.293-21.754c11.885-6.991 26.268-9.849 40.869-7.026s26.871 10.836 35.283 21.752z" fill="#dd636e"></path><g fill="#df9380"><path d="M253.839 288.298a7.612 7.612 0 0 1-7.481-9.058c2.02-10.448-4.835-20.591-15.282-22.611a19.172 19.172 0 0 0-14.471 2.959 19.167 19.167 0 0 0-8.14 12.324 7.612 7.612 0 0 1-14.946-2.89c1.751-9.053 6.922-16.883 14.562-22.047 7.64-5.163 16.832-7.043 25.886-5.292 18.689 3.614 30.953 21.759 27.339 40.447a7.619 7.619 0 0 1-7.467 6.168zM397.484 316.077a7.612 7.612 0 0 1-7.482-9.058 19.174 19.174 0 0 0-2.958-14.471 19.175 19.175 0 0 0-12.324-8.141c-10.45-2.019-20.591 4.836-22.611 15.283a7.612 7.612 0 0 1-14.946-2.89c3.614-18.689 21.762-30.952 40.448-27.339 9.053 1.751 16.883 6.922 22.047 14.562s7.043 16.833 5.292 25.886a7.615 7.615 0 0 1-7.466 6.168z" fill="#df9380"></path></g><g fill="#dd636e"><path d="M166.208 49.731 106.876 2.018a9.216 9.216 0 0 0-10.464-.725 9.215 9.215 0 0 0-4.446 9.295c.009.06.018.121.029.181l12.803 75.139a7.613 7.613 0 1 0 15.007-2.557l-2.307-13.542 28.497-16.8 10.675 8.584a7.612 7.612 0 1 0 9.538-11.862zm-51.448 4.02-5.106-29.964 23.659 19.026zM97.047 101.748a7.611 7.611 0 0 0 2.692-10.422l-36.69-62.238a7.612 7.612 0 0 0-13.114 7.73l13.85 23.495-29.955 17.66-13.851-23.495a7.611 7.611 0 0 0-13.114 7.73l36.69 62.238a7.608 7.608 0 0 0 10.422 2.691 7.611 7.611 0 0 0 2.692-10.422L41.56 91.086l29.955-17.659 15.109 25.63a7.608 7.608 0 0 0 10.423 2.691zM120.957 140.018l-.122-.188a9.217 9.217 0 0 0-9.538-3.899 9.215 9.215 0 0 0-7.258 7.526l-12.317 75.22a7.611 7.611 0 1 0 15.022 2.459l2.22-13.557 32.411-6.624 7.305 11.588a7.612 7.612 0 0 0 12.878-8.118zm-9.36 51.486 4.912-29.996 16.19 25.683zM70.711 151.372a7.612 7.612 0 0 0-14.915 3.048l5.461 26.721-34.069 6.963-5.461-26.721a7.609 7.609 0 0 0-8.982-5.933 7.612 7.612 0 0 0-5.933 8.981l14.467 70.784a7.613 7.613 0 0 0 8.981 5.933 7.612 7.612 0 0 0 5.933-8.981l-5.957-29.149 34.069-6.963 5.957 29.149a7.613 7.613 0 0 0 8.981 5.933 7.612 7.612 0 0 0 5.933-8.981z" fill="#dd636e"></path></g><g fill="#f4dd45"><path d="M111.027 425.266a7.611 7.611 0 0 1-4.067-14.05l25.767-16.252a7.61 7.61 0 0 1 10.498 2.378 7.611 7.611 0 0 1-2.378 10.498l-25.767 16.252a7.574 7.574 0 0 1-4.053 1.174zM104.45 387.73a7.612 7.612 0 0 1-7.523-6.522 7.611 7.611 0 0 1 6.442-8.624l22.835-3.306a7.609 7.609 0 0 1 8.623 6.442 7.611 7.611 0 0 1-6.442 8.624l-22.835 3.306a7.62 7.62 0 0 1-1.1.08zM142.061 447.357a7.612 7.612 0 0 1-6.321-11.842l12.822-19.183a7.61 7.61 0 0 1 10.557-2.098 7.612 7.612 0 0 1 2.099 10.558l-12.822 19.183a7.606 7.606 0 0 1-6.335 3.382z" fill="#f4dd45"></path></g></g></svg>