<svg viewBox="0 0 64 64" xmlns="http://www.w3.org/2000/svg"><g><g><path d="M61 58c0 1.657-3.582 3-8 3s-8-1.343-8-3V34h16z" fill="#ffd54f"></path><path d="M56 34v26.78c2.93-.445 5-1.521 5-2.78V34z" fill="#ffca28"></path><path d="M19 58c0 1.657-3.582 3-8 3s-8-1.343-8-3V46h16z" fill="#ffd54f"></path><path d="M19 46v12c0 1.26-2.07 2.34-5 2.78V46z" fill="#ffca28"></path><path d="M40 58c0 1.657-3.582 3-8 3s-8-1.343-8-3V40h16z" fill="#ffd54f"></path><path d="M40 58c0 1.657-3.582 3-8 3s-8-1.343-8-3V40h16z" fill="#ffd54f"></path><path d="M40 40v18c0 1.26-2.07 2.34-5 2.78V40z" fill="#ffca28"></path><path d="M19 52v6c0 1.66-3.58 3-8 3s-8-1.34-8-3v-6c0 1.66 3.58 3 8 3s8-1.34 8-3z" fill="#ffb74d"></path><path d="M19 52v6c0 1.66-3.58 3-8 3s-8-1.34-8-3v-3c0 1.66 3.58 3 8 3h.076A2.978 2.978 0 0 0 14 55v-.22c2.93-.44 5-1.52 5-2.78z" fill="#ffa726"></path><path d="M40 52v6c0 1.66-3.58 3-8 3s-8-1.34-8-3v-3c0 1.66 3.58 3 8 3h.076A2.978 2.978 0 0 0 35 55v-.22c2.93-.44 5-1.52 5-2.78z" fill="#ffca28"></path><path d="M40 46v6c0 1.66-3.58 3-8 3s-8-1.34-8-3v-6c0 1.66 3.58 3 8 3s8-1.34 8-3z" fill="#ffb74d"></path><path d="M40 46v6c0 1.26-2.07 2.34-5 2.78v-6c2.93-.44 5-1.52 5-2.78z" fill="#ffa726"></path><path d="M61 40v6c0 1.66-3.58 3-8 3s-8-1.34-8-3v-6c0 1.66 3.58 3 8 3s8-1.34 8-3z" fill="#ffb74d"></path><path d="M61 40v6c0 1.26-2.07 2.34-5 2.78v-6c2.93-.44 5-1.52 5-2.78z" fill="#ffa726"></path><g fill="#ffb74d"><path d="M61 52v6c0 1.66-3.58 3-8 3s-8-1.34-8-3v-6c0 1.66 3.58 3 8 3s8-1.34 8-3z" fill="#ffb74d"></path><ellipse cx="11" cy="46" fill="#ffb74d" rx="8" ry="3"></ellipse><ellipse cx="32" cy="40" fill="#ffb74d" rx="8" ry="3"></ellipse><ellipse cx="53" cy="34" fill="#ffb74d" rx="8" ry="3"></ellipse></g><path d="M56 3H45a1 1 0 0 0-1 1v2a1 1 0 0 0 1 1h6L36 22l-7.172-7.172a4 4 0 0 0-5.656 0L6 32l3 3 17-17 7.172 7.172a4 4 0 0 0 5.656 0L54 10v6a1 1 0 0 0 1 1h2a1 1 0 0 0 1-1V5a2 2 0 0 0-2-2z" fill="#64b5f6"></path><path d="M54.77 8.15a1.986 1.986 0 0 0-2.18.44L37.41 23.76a2.048 2.048 0 0 1-2.82 0l-7.18-7.17a1.974 1.974 0 0 0-2.82 0l-17 17L9 35l17-17 7.17 7.17a4.008 4.008 0 0 0 5.66 0L54 10v6a1.003 1.003 0 0 0 1 1h1v-7a2.01 2.01 0 0 0-1.23-1.85z" fill="#42a5f5"></path><path d="M61 52v6c0 1.66-3.58 3-8 3s-8-1.34-8-3v-3c0 1.66 3.58 3 8 3h.076A2.978 2.978 0 0 0 56 55v-.22c2.93-.44 5-1.52 5-2.78z" fill="#ffa726"></path></g></g></svg>