<svg viewBox="0 0 512 512" xmlns="http://www.w3.org/2000/svg"><g><path d="M235.681 40.636h16.254v365.713h-16.254z" fill="#eac89f"></path><path d="M276.316 16.255h-24.381a8.128 8.128 0 0 0-8.127 8.127v16.254a8.128 8.128 0 0 0 8.127 8.127h24.381a8.128 8.128 0 0 0 8.127-8.127V24.382a8.127 8.127 0 0 0-8.127-8.127z" fill="#ff8086"></path><path d="M251.935 48.763V16.255h-8.127a8.126 8.126 0 0 0-8.127 8.127v16.254a8.127 8.127 0 0 0 8.127 8.127z" fill="#e5646e"></path><path d="M377.903 113.778h16.254v251.935h-16.254z" fill="#eac89f"></path><path d="M418.538 89.398h-24.381a8.128 8.128 0 0 0-8.127 8.127v16.254a8.128 8.128 0 0 0 8.127 8.127h24.381a8.128 8.128 0 0 0 8.127-8.127V97.525a8.127 8.127 0 0 0-8.127-8.127z" fill="#ff8086"></path><path d="M394.157 121.905V89.398h-8.127a8.126 8.126 0 0 0-8.127 8.127v16.254a8.127 8.127 0 0 0 8.127 8.127h8.127z" fill="#e5646e"></path><path d="M97.523 89.398h16.254v251.935H97.523z" fill="#eac89f"></path><path d="M376.541 360.446a40.63 40.63 0 0 0-25.457 11.769L336.98 386.32a40.636 40.636 0 0 1-28.733 11.902H154.412c-12.033 0-22.539-6.538-28.159-16.255L89.396 373h-41.73l-11.632 8.968 10.582 48.762 34.652 54.349 40.635-13.714 48.762 16.254 56.889-16.254 48.762 16.254 48.762-16.254 89.405-40.635c15.304-20.374 24.372-45.699 24.372-73.142l65.016-7.441z" fill="#c38c66"></path><path d="M121.904 365.714 89.396 349.46H32.508v16.254l3.527 16.254h90.215c-2.793-4.798-4.346-10.302-4.346-16.254z" fill="#b57f5f"></path><path d="m46.617 430.729 11.795 54.349h22.857l40.635-13.714 48.762 16.254 56.889-16.254 48.762 16.254 48.762-16.254 26.985 2.994c25.208-7.569 46.986-23.085 62.419-43.629z" fill="#9f6e50"></path><path d="m233.65 145.778 42.715.508c4.588 0 8.258-3.778 8.048-8.362-.509-11.107-3.043-31.745-13.894-52.437-1.372-2.616-4.171-4.217-7.125-4.217h-37.403c-5.915 0-6.504 5.655-3.888 10.96 4.644 9.419 8.775 24.35 3.705 43.707-1.31 5 2.674 9.841 7.842 9.841zM380.357 219.429h42.207c4.588 0 8.258-3.778 8.048-8.362-.509-11.107-3.043-31.745-13.894-52.437-1.372-2.616-4.171-4.217-7.125-4.217H372.23c-5.915 0-6.036 6.162-3.42 11.468 4.644 9.419 8.775 24.35 3.705 43.707-1.309 4.999 2.674 9.841 7.842 9.841zM380.443 316.952h58.376c4.588 0 8.258-3.778 8.048-8.362-.509-11.107-3.043-31.745-13.894-52.437-1.372-2.616-4.171-4.217-7.125-4.217h-45.49c-5.472 0-8.295 5.301-6.723 10.542 2.78 9.262 4.833 24.335-.849 44.056-1.497 5.195 2.251 10.418 7.657 10.418z" fill="#ff8086"></path><path d="M385.982 495.745c-15.516 0-23.579-4.96-30.69-9.333-6.294-3.865-11.262-6.921-22.182-6.921-10.905 0-15.873 3.056-22.151 6.921-7.111 4.373-15.175 9.333-30.682 9.333-15.5 0-23.555-4.96-30.659-9.333-6.278-3.865-11.238-6.921-22.135-6.921-10.905 0-15.865 3.056-22.143 6.921-7.111 4.373-15.167 9.333-30.674 9.333s-23.555-4.96-30.667-9.333c-6.278-3.865-11.238-6.921-22.135-6.921-10.905 0-15.865 3.056-22.143 6.921-7.111 4.373-15.167 9.333-30.667 9.333s-23.555-4.96-30.659-9.333c-6.278-3.865-11.238-6.921-22.143-6.921-4.492 0-8.127-3.635-8.127-8.127s3.635-8.127 8.127-8.127c15.508 0 23.555 4.96 30.667 9.333 6.278 3.865 11.238 6.921 22.135 6.921 10.905 0 15.865-3.056 22.143-6.921 7.111-4.373 15.167-9.333 30.667-9.333s23.555 4.96 30.659 9.333c6.278 3.865 11.238 6.921 22.143 6.921s15.873-3.056 22.151-6.921c7.111-4.373 15.167-9.333 30.667-9.333s23.555 4.96 30.659 9.333c6.278 3.865 11.238 6.921 22.135 6.921 10.913 0 15.873-3.056 22.159-6.921 7.111-4.373 15.167-9.333 30.674-9.333 15.516 0 23.579 4.96 30.69 9.333 6.294 3.865 11.262 6.921 22.182 6.921 10.921 0 15.889-3.056 22.182-6.921 7.111-4.373 15.175-9.333 30.69-9.333 4.492 0 8.127 3.635 8.127 8.127s-3.635 8.127-8.127 8.127c-10.921 0-15.889 3.056-22.182 6.921-7.111 4.373-15.175 9.333-30.691 9.333z" fill="#c3ddff"></path><path d="M0 341.333v16.254a8.128 8.128 0 0 0 8.127 8.127h113.777V349.46c0-8.977-7.277-16.254-16.254-16.254H8.127A8.128 8.128 0 0 0 0 341.333z" fill="#d19a6e"></path><path d="M503.212 342.039 404.809 350a94.334 94.334 0 0 0-51.541 20.539l151.261-12.294c4.468-.365 7.802-4.286 7.444-8.762-.364-4.468-4.221-7.745-8.761-7.444z" fill="#b57f5f"></path><path d="M75.667 139.623c4.889 23.978 14.721 89.034-6.392 150.595-1.766 5.149 2.214 10.48 7.658 10.48h93.64a8.037 8.037 0 0 0 8.043-7.792c.833-25.64.266-108.661-38.263-159.714-1.522-2.017-3.954-3.16-6.48-3.16H83.56c-5.08 0-8.908 4.614-7.893 9.591zM204.914 188.363c4.838 25.263 15.104 96.43-6.425 163.584-1.689 5.27 2.062 10.685 7.596 10.685h102.346c4.343 0 7.904-3.394 8.042-7.735.859-26.83.596-117.271-38.162-172.708-1.507-2.156-4.022-3.394-6.652-3.394h-58.876c-5.05-.001-8.819 4.607-7.869 9.568z" fill="#ff8086"></path><g fill="#e5646e"><path d="M85.061 130.032H74.817c-5.079 0-8.907 4.614-7.892 9.591 4.889 23.978 14.72 89.034-6.392 150.596-1.766 5.149 2.214 10.48 7.658 10.48h8.743c32.507-80.13 8.127-170.667 8.127-170.667zM224.555 178.794h-11.771c-5.051 0-8.82 4.608-7.87 9.569 4.838 25.263 15.104 96.43-6.425 163.584-1.689 5.27 2.062 10.684 7.596 10.684h10.395a.024.024 0 0 1-.022-.033c32.415-86.305 8.097-183.804 8.097-183.804zM372.23 154.413h-7.916c-5.915 0-9.873 6.162-7.257 11.468 4.644 9.419 8.775 24.35 3.705 43.707-1.31 4.999 2.674 9.841 7.842 9.841h11.754c16.253-40.635-8.128-65.016-8.128-65.016zM380.357 251.937H369.67c-5.472 0-9.22 5.301-7.647 10.542 2.78 9.261 4.833 24.335-.849 44.055-1.497 5.195 2.251 10.418 7.657 10.418h11.612c16.254-40.635-.086-65.015-.086-65.015zM233.65 145.778c14.968-37.42-4.481-61.002-7.659-64.508h-7.876c-5.916 0-9.874 6.162-7.258 11.468 4.644 9.419 8.775 24.35 3.705 43.707-1.31 4.999 2.958 9.367 8.126 9.367z" fill="#e5646e"></path></g><path d="M138.158 65.017h-24.381a8.128 8.128 0 0 0-8.127 8.127v16.254a8.128 8.128 0 0 0 8.127 8.127h24.381a8.128 8.128 0 0 0 8.127-8.127V73.144a8.127 8.127 0 0 0-8.127-8.127z" fill="#ff8086"></path><path d="M113.777 97.525V65.017h-8.127a8.126 8.126 0 0 0-8.127 8.127v16.254a8.127 8.127 0 0 0 8.127 8.127z" fill="#e5646e"></path></g></svg>