<svg viewBox="0 0 512 512" xmlns="http://www.w3.org/2000/svg"><g><g clip-rule="evenodd" fill-rule="evenodd"><g fill="#a79ba7"><path d="M369.459 480.068a7.988 7.988 0 1 1-3.875 15.499l-41.613-10.434a7.988 7.988 0 0 1-4.943-11.81l19.922-37.558a7.981 7.981 0 1 1 14.125 7.437l-10.294 19.407a223.43 223.43 0 0 0 47.261-27.325c17.275-13.044 32.943-28.831 46.333-47.254 36.469-50.179 49.15-110.37 40.171-167.121-8.98-56.756-39.618-110.091-89.784-146.551-19.725-14.336-40.958-24.985-62.888-32.079a224.017 224.017 0 0 0-69.785-10.854 7.97 7.97 0 0 1 0-15.938c25.088-.092 50.299 3.724 74.66 11.604 23.572 7.625 46.328 19.022 67.388 34.329 53.724 39.046 86.538 96.18 96.159 156.988 9.622 60.813-3.946 125.283-42.984 178.996-14.344 19.735-31.131 36.65-49.645 50.629a239.096 239.096 0 0 1-47.212 27.77zM255.373 480.576a7.97 7.97 0 0 1 0 15.938c-25.09.09-50.301-3.727-74.663-11.608-23.57-7.624-46.325-19.02-67.384-34.326-53.724-39.046-86.538-96.181-96.159-156.989-9.622-60.813 3.946-125.284 42.983-178.996 14.486-19.932 31.503-37.004 50.304-51.1a239.748 239.748 0 0 1 46.534-27.305l-16.987-4.259a7.988 7.988 0 1 1 3.875-15.499l41.613 10.434a7.988 7.988 0 0 1 4.943 11.81L170.51 76.234a7.983 7.983 0 0 1-14.125-7.437l10.28-19.381a223.091 223.091 0 0 0-46.65 26.83c-17.485 13.108-33.357 29.051-46.929 47.725-36.469 50.178-49.15 110.37-40.171 167.121 8.98 56.756 39.617 110.091 89.784 146.551 19.724 14.335 40.956 24.983 62.884 32.076a224.149 224.149 0 0 0 69.79 10.857z" fill="#a79ba7"></path></g><path d="M288.497 114.522a144.75 144.75 0 0 1 42.379 17.569l27.537-12.23 32.457 32.455-12.226 27.53a144.755 144.755 0 0 1 17.572 42.39l28.095 10.814v45.899l-28.102 10.817a144.732 144.732 0 0 1-17.569 42.378l12.23 27.538-32.455 32.457-27.529-12.226a144.755 144.755 0 0 1-42.39 17.572l-10.814 28.096h-45.9l-10.817-28.102a144.776 144.776 0 0 1-42.379-17.569l-27.537 12.23-32.457-32.455 12.226-27.53a144.755 144.755 0 0 1-17.572-42.39L85.151 278.95v-45.899l28.1-10.816a144.704 144.704 0 0 1 17.57-42.382l-12.229-27.535 32.455-32.457 27.538 12.231a144.75 144.75 0 0 1 42.379-17.569l10.817-28.102h45.899z" fill="#fe646f"></path><path d="m178.586 379.909-27.537 12.23-4.262-4.262 25.808-11.462a145.13 145.13 0 0 0 5.991 3.494zm109.911-265.387a144.734 144.734 0 0 1 41.847 17.243c.172.116.349.225.531.326l-7.867 3.494c-13.105-8.069-33.397-17.5-48.37-21.063L263.822 86.42h13.858zm-141.712 9.6 4.262-4.262 27.538 12.231a145.794 145.794 0 0 0-5.991 3.494zm202.032.001 9.596-4.262 32.457 32.455-12.226 27.53a144.755 144.755 0 0 1 17.572 42.39l28.095 10.814v45.899l-28.102 10.817a144.732 144.732 0 0 1-17.569 42.378l12.23 27.538-32.455 32.457-9.596-4.262 28.193-28.195-12.23-27.538a144.743 144.743 0 0 0 17.569-42.378l28.102-10.817V233.05l-28.095-10.814a144.755 144.755 0 0 0-17.572-42.39l12.226-27.53zM330.35 380.241a144.761 144.761 0 0 1-41.854 17.244l-10.814 28.096h-13.858l10.814-28.096c14.976-3.564 35.272-12.994 48.38-21.066l7.868 3.494c-.182.1-.361.21-.536.328z" fill="#fd4755"></path><circle cx="254.731" cy="256" fill="#eceff1" r="87.048"></circle><path d="M254.731 168.952c2.057 0 4.096.077 6.118.217-45.219 3.14-80.93 40.814-80.93 86.831s35.711 83.69 80.93 86.831c-2.022.14-4.061.217-6.118.217-48.074 0-87.048-38.974-87.048-87.048 0-48.075 38.973-87.048 87.048-87.048z" fill="#d1d1d6"></path><circle cx="254.731" cy="256" fill="#fe646f" r="36.338" transform="rotate(-2.56 256.63 257.68)"></circle><path d="M254.731 219.662c20.069 0 36.338 16.269 36.338 36.338s-16.269 36.338-36.338 36.338c-1.27 0-2.524-.066-3.76-.193 18.302-1.882 32.578-17.346 32.578-36.145s-14.276-34.264-32.578-36.145a36.771 36.771 0 0 1 3.76-.193z" fill="#fd4755"></path><path d="m495.643 180.696-71.222 36.84c-3.108 1.607-6.532 1.534-9.568-.206l-34.898-19.996c-3.488-1.999-5.368-5.634-4.984-9.635l3.846-40.037c.335-3.483 2.253-6.32 5.361-7.928l71.222-36.84c1.336-.691 2.835-.603 4.081.24s1.886 2.201 1.742 3.698l-4.282 44.573 38.853 22.261c1.305.748 2.044 2.055 2.012 3.559-.033 1.506-.827 2.78-2.163 3.471z" fill="#e3a76f"></path><path d="m495.643 180.696-71.222 36.84c-3.108 1.607-6.532 1.534-9.568-.206l-34.898-19.996c-3.488-1.999-5.368-5.634-4.984-9.635l.993-10.335c-.377 3.995 1.502 7.622 4.986 9.618l34.898 19.996c3.036 1.74 6.46 1.813 9.568.206l67.729-35.034 2.649 1.518c1.305.748 2.044 2.055 2.012 3.559-.033 1.504-.827 2.778-2.163 3.469z" fill="#c48958"></path><path d="M491.628 133.464c2.744 5.306.649 11.892-4.656 14.636L269.367 260.657c-5.306 2.745-11.891.649-14.636-4.656-2.745-5.306-.649-11.891 4.657-14.636l217.605-112.558c5.305-2.744 11.891-.649 14.635 4.657z" fill="#837683"></path></g></g></svg>