<svg viewBox="0 0 512 512" xmlns="http://www.w3.org/2000/svg"><g><path d="M482.091 61.41H29.937c-16.509 0-29.94 13.418-29.94 29.912v367.086c0 16.509 13.431 29.94 29.94 29.94h452.154c16.493 0 29.912-13.431 29.912-29.94V91.322c0-16.494-13.419-29.913-29.912-29.913z" fill="#edebeb"></path><path d="M482.091 61.41H29.937c-16.509 0-29.94 13.418-29.94 29.912v55.53h512.006v-55.53c0-16.494-13.418-29.913-29.912-29.913z" fill="#fdca03"></path><path d="m508.084 374.637-75.316 44.674c-19.008 11.265-38.13 16.511-60.18 16.511H29.938c-16.509 0-29.94-13.431-29.94-29.94v26.277c0 16.494 13.431 29.912 29.94 29.912h452.154c16.493 0 29.912-13.418 29.912-29.912v-64.403c0 2.825-1.49 5.44-3.919 6.88z" fill="#ced4df"></path><path d="m432.768 419.31 75.316-44.674a7.998 7.998 0 0 0 3.918-6.865v-.014l-76.288-27.377a8 8 0 0 0-6.988 1.332c-1.994 1.513-2.99 3.877-3.164 6.373-5.926 84.978-47.166 87.737-70.094 87.737h17.12c22.05 0 41.172-5.246 60.18-16.511z" fill="#dbdcdd"></path><path d="M482.091 462.071H29.937c-16.509 0-29.94-13.418-29.94-29.912v26.249c0 16.509 13.431 29.94 29.94 29.94h452.154c16.493 0 29.912-13.431 29.912-29.94v-26.25c0 16.495-13.419 29.913-29.912 29.913z" fill="#c5cbd3"></path><path d="M-.003 134.683h512.006v12.169H-.003z" fill="#f4bb06"></path><path d="M409.468 92.647c-5.018 0-8.136-1.94-8.782-2.885V42.537c.647-.944 3.764-2.885 8.782-2.885 5.026 0 8.14 1.939 8.781 2.879v18.878h16V42.254c0-10.431-10.885-18.602-24.781-18.602s-24.782 8.171-24.782 18.602v47.792c0 10.43 10.886 18.601 24.782 18.601 4.418 0 8-3.581 8-8s-3.582-8-8-8zM307.166 92.647c-5.027 0-8.142-1.938-8.782-2.879V42.531c.64-.94 3.755-2.879 8.782-2.879 5.017 0 8.134 1.941 8.78 2.885v18.872h16V42.254c0-10.431-10.885-18.602-24.78-18.602s-24.782 8.171-24.782 18.602v47.792c0 10.43 10.886 18.601 24.782 18.601 4.418 0 8-3.581 8-8s-3.582-8-8-8zM204.863 92.647c-5.027 0-8.141-1.938-8.781-2.879V42.531c.64-.94 3.754-2.879 8.78-2.879 5.018 0 8.136 1.941 8.782 2.885v18.872h16V42.254c0-10.431-10.885-18.602-24.781-18.602s-24.781 8.171-24.781 18.602v47.792c0 10.43 10.885 18.601 24.78 18.601 4.42 0 8-3.581 8-8s-3.58-8-8-8zM102.532 92.647c-5.017 0-8.135-1.94-8.781-2.885V42.537c.646-.944 3.764-2.885 8.781-2.885 5.027 0 8.141 1.939 8.782 2.879v18.878h16V42.254c0-10.431-10.886-18.602-24.782-18.602s-24.781 8.171-24.781 18.602v47.792c0 10.43 10.885 18.601 24.781 18.601 4.419 0 8-3.581 8-8s-3.581-8-8-8z" fill="#666666"></path><g fill="#f4bb06"><path d="M409.468 85.412a15.156 15.156 0 0 0-8.782 2.797v1.553c.647.944 3.764 2.885 8.782 2.885a8 8 0 0 1 0 16c-5.482 0-10.492-1.276-14.553-3.456 1.932 6.2 7.717 10.702 14.553 10.702 8.417 0 15.24-6.824 15.24-15.24s-6.823-15.241-15.24-15.241zM307.165 85.412a15.156 15.156 0 0 0-8.78 2.797v1.56c.64.94 3.754 2.878 8.78 2.878a8 8 0 0 1 0 16c-5.482 0-10.491-1.276-14.552-3.456 1.931 6.2 7.716 10.702 14.552 10.702 8.417 0 15.24-6.824 15.24-15.241s-6.823-15.24-15.24-15.24zM204.863 85.412a15.156 15.156 0 0 0-8.781 2.797v1.56c.64.94 3.754 2.878 8.78 2.878a8 8 0 0 1 0 16c-5.481 0-10.49-1.276-14.552-3.456 1.932 6.2 7.717 10.701 14.553 10.701 8.417 0 15.24-6.823 15.24-15.24s-6.823-15.24-15.24-15.24zM102.532 85.407a15.156 15.156 0 0 0-8.781 2.797v1.558c.646.944 3.764 2.885 8.781 2.885a8 8 0 0 1 0 16c-5.48 0-10.49-1.275-14.55-3.455 1.933 6.197 7.716 10.696 14.55 10.696 8.417 0 15.24-6.824 15.24-15.24s-6.823-15.241-15.24-15.241z" fill="#f4bb06"></path></g><path d="m128.474 284.45 86.655-83.254a4 4 0 0 1 6.771 2.885v34.75h82.74c44.174 0 80.111 35.95 80.111 80.139v51.619a4 4 0 0 1-7.864 1.035c-6.354-23.727-26.026-35.757-58.47-35.757h-96.516v34.722a4 4 0 0 1-6.771 2.886l-43.344-41.615-43.313-41.641a4.004 4.004 0 0 1 0-5.769z" fill="#f15d5b"></path><path d="M221.9 317.952h96.517c32.444 0 52.116 29.946 58.47 53.672-6.354-23.727-26.026-35.757-58.47-35.757H221.9zM134.792 278.38l36.994 35.564 43.344 41.615a4 4 0 0 0 6.77-2.886v17.916a4 4 0 0 1-6.77 2.886l-43.344-41.616-43.313-41.64a4.004 4.004 0 0 1 0-5.769z" fill="#e55a5a"></path></g></svg>