<svg id="Layer_1" height="512" viewBox="0 0 64 64" width="512" xmlns="http://www.w3.org/2000/svg" data-name="Layer 1"><rect fill="#00d2f1" height="26" rx="1" width="30" x="32" y="36"/><path d="m25.19 29h-20.38c-1.55 0-2.81 1.26-2.81 2.81v14.38c0 1.55 1.26 2.81 2.81 2.81h7.86l7.73 5.8c.18.13.39.2.6.2s.41-.06.58-.19c.35-.26.5-.71.36-1.13l-1.56-4.68h4.8c1.55 0 2.81-1.26 2.81-2.81v-14.38c0-1.55-1.26-2.81-2.81-2.81z" fill="#ff7c5e"/><path d="m62 55v6c0 .55-.45 1-1 1h-28c-.55 0-1-.45-1-1v-6l9.34-7.75c.37-.33.95-.33 1.32 0l7.24 6.44 4.39-4.4c.38-.37 1.04-.37 1.42 0z" fill="#00b796"/><circle cx="50" cy="44" fill="#f6ae2d" r="4"/><path d="m6.79 2h26.41c1.54 0 2.79 1.25 2.79 2.79v19.42c0 1.54-1.25 2.79-2.79 2.79h-26.41c-1.54 0-2.79-1.25-2.79-2.79v-19.42c0-1.54 1.25-2.79 2.79-2.79z" fill="#717a84"/><path d="m24.53 11.15-8-5c-.31-.19-.7-.2-1.01-.03-.32.18-.52.51-.52.87v10c0 .36.2.7.52.87.15.08.32.13.48.13.18 0 .37-.05.53-.15l8-5c.29-.18.47-.5.47-.85s-.18-.67-.47-.85z" fill="#e7475e"/><path d="m31 22h-5v-2h5c.55 0 1 .45 1 1 0 .55-.45 1-1 1z" fill="#a3daff"/><path d="m22 22h-13c-.55 0-1-.45-1-1 0-.55.45-1 1-1h13z" fill="#a3daff"/><circle cx="24" cy="21" fill="#125488" r="3"/><rect fill="#eecd86" height="32" rx="1" width="22" x="40" y="2"/><g fill="#125488"><path d="m45 9h12c.55 0 1-.45 1-1s-.45-1-1-1h-12c-.55 0-1 .45-1 1s.45 1 1 1z"/><path d="m45 17h12c.55 0 1-.45 1-1s-.45-1-1-1h-12c-.55 0-1 .45-1 1s.45 1 1 1z"/><path d="m45 25h12c.55 0 1-.45 1-1s-.45-1-1-1h-12c-.55 0-1 .45-1 1s.45 1 1 1z"/><path d="m45 13h2c.55 0 1-.45 1-1s-.45-1-1-1h-2c-.55 0-1 .45-1 1s.45 1 1 1z"/><circle cx="57" cy="20" r="1"/><path d="m57 11h-5c-.55 0-1 .45-1 1s.45 1 1 1h5c.55 0 1-.45 1-1s-.45-1-1-1z"/><path d="m45 29h5c.55 0 1-.45 1-1s-.45-1-1-1h-5c-.55 0-1 .45-1 1s.45 1 1 1z"/><path d="m45 21h7c.55 0 1-.45 1-1s-.45-1-1-1h-7c-.55 0-1 .45-1 1s.45 1 1 1z"/></g><path d="m7 36h16c.55 0 1-.45 1-1s-.45-1-1-1h-16c-.55 0-1 .45-1 1s.45 1 1 1z" fill="#fff591"/><path d="m21 38h-12c-.55 0-1 .45-1 1s.45 1 1 1h12c.55 0 1-.45 1-1s-.45-1-1-1z" fill="#fff591"/><path d="m19 42h-8c-.55 0-1 .45-1 1s.45 1 1 1h8c.55 0 1-.45 1-1s-.45-1-1-1z" fill="#fff591"/></svg>