<svg height="512" viewBox="0 0 512 512" width="512" xmlns="http://www.w3.org/2000/svg"><g id="Flat"><path d="m288 72a48 48 0 0 1 48 48v120a0 0 0 0 1 0 0 48 48 0 0 1 -48-48v-120a0 0 0 0 1 0 0z" fill="#6e3c26"/><path d="m344 320v48h-240v-48a40 40 0 0 1 40-40h32a16 16 0 0 0 16-16v-48h64v48a16 16 0 0 0 16 16h32a40 40 0 0 1 40 40z" fill="#fec9a3"/><path d="m256 216v32.51a72.1 72.1 0 0 1 -64 0v-32.51z" fill="#fec093"/><path d="m304 280h-16c-21.735 59.77-106.265 59.77-128 0h-17.815a48 48 0 0 0 -46.771 37.207l-39.414 170.793h64l24-80 16 24v56h184v-168a40 40 0 0 0 -40-40z" fill="#7eb457"/><path d="m167.338 488h-16v-53.177c-20.555-26.521-20.5-63.065.483-87.977l12.236 10.308c-16.582 19.683-15.991 49 1.406 69.7a8 8 0 0 1 1.875 5.146z" fill="#74a650"/><path d="m144 136h16a0 0 0 0 1 0 0v48a0 0 0 0 1 0 0h-16a24 24 0 0 1 -24-24 24 24 0 0 1 24-24z" fill="#fec093"/><path d="m301.187 488h133.626a24 24 0 0 0 23.815-21.023l13.372-106.977h-208l13.372 106.977a24 24 0 0 0 23.815 21.023z" fill="#d75246"/><g fill="#c24135"><path d="m360 432h16v32h-16z"/><path d="m328 432h16v32h-16z"/><path d="m296 432h16v32h-16z"/><path d="m392 432h16v32h-16z"/><path d="m424 432h16v32h-16z"/><path d="m360 384h16v32h-16z"/><path d="m328 384h16v32h-16z"/><path d="m296 384h16v32h-16z"/><path d="m392 384h16v32h-16z"/><path d="m424 384h16v32h-16z"/></g><path d="m432 328-35.145-86.524a14.838 14.838 0 0 0 -22.172-6.886 15.611 15.611 0 0 0 -5.608 18.522l29.202 74.888z" fill="#4c5985"/><path d="m304 328 35.145-86.524a14.838 14.838 0 0 1 22.172-6.886 15.611 15.611 0 0 1 5.608 18.522l-29.202 74.888z" fill="#4c5985"/><rect fill="#e06257" height="32" rx="16" transform="matrix(-1 0 0 -1 736 688)" width="240" x="248" y="328"/><path d="m88 488h-64v-112h40z" fill="#fec093"/><path d="m99.9 316.866a16.97 16.97 0 0 1 -.1 24.1l-43.8 43.034-24-24 44-43.239a16.97 16.97 0 0 1 23.9.105z" fill="#fec093"/><rect fill="#d75246" height="128" rx="16" transform="matrix(-1 0 0 -1 120 512)" width="88" x="16" y="192"/><path d="m64 192h16v128h-16z" fill="#34507b" transform="matrix(-1 0 0 -1 144 512)"/><rect fill="#fec9a3" height="80" rx="16" transform="matrix(-1 0 0 -1 96 704)" width="64" x="16" y="312"/><path d="m24 440v48h64l-10.286-48z" fill="#88c25e"/><path d="m312 128h16a0 0 0 0 1 0 0v48a0 0 0 0 1 0 0h-16a24 24 0 0 1 -24-24 24 24 0 0 1 24-24z" fill="#fec093" transform="matrix(-1 0 0 -1 616 304)"/><path d="m224 240a72 72 0 0 1 -72-72v-72c24-32 112-40 144 0v72a72 72 0 0 1 -72 72z" fill="#fec9a3"/><path d="m188 152a12 12 0 1 1 12-12 12.013 12.013 0 0 1 -12 12z" fill="#7a432a"/><path d="m260 152a12 12 0 1 1 12-12 12.013 12.013 0 0 1 -12 12z" fill="#7a432a"/><path d="m224 200a24.027 24.027 0 0 1 -24-24h16a8 8 0 0 0 16 0h16a24.027 24.027 0 0 1 -24 24z" fill="#feb784"/><path d="m304 128a23.949 23.949 0 0 1 8 1.371v-25.371a80 80 0 0 0 -80-80h-16a80 80 0 0 0 -80 80v40c44.888-10.493 85.768-14.174 118.779-41.182l18.11-14.818 23.111 40z" fill="#7a432a"/></g></svg>