<svg viewBox="0 0 60 60" xmlns="http://www.w3.org/2000/svg"><g><path d="M14.1 34.059A15.775 15.775 0 0 1 21 44.718s.785-.4 1.312-2.268a.371.371 0 0 1 .672-.1A13.037 13.037 0 0 1 25 49.2 9.9 9.9 0 0 1 15 59a9.9 9.9 0 0 1-10-9.8 14.031 14.031 0 0 1 .571-3.986.408.408 0 0 1 .776-.033A3.225 3.225 0 0 0 8 47.135a7.1 7.1 0 0 1 2-5.675c2.338-2.413 3.364-3.922 3.487-7.063a.4.4 0 0 1 .613-.338z" fill="#d84452"></path><path d="M14.334 46.032a7.729 7.729 0 0 1 3.577 6.368.218.218 0 0 0 .378.14 2.622 2.622 0 0 0 .579-1.156.211.211 0 0 1 .38-.07A4.654 4.654 0 0 1 20 53.885a5.144 5.144 0 0 1-5.2 5.087 4.567 4.567 0 0 1-4.8-4.459 5.879 5.879 0 0 1 2.2-4.644 4.863 4.863 0 0 0 1.813-3.661.211.211 0 0 1 .321-.176z" fill="#fdce1b"></path><path d="M54 50.918a8.04 8.04 0 0 1-8.635 8.058 8.2 8.2 0 0 1-7.289-9.336c.728-5.38 5.9-8.648 7.677-15.45a.249.249 0 0 1 .484 0C48.154 41.514 54 44.741 54 50.918z" fill="#4252e8"></path><path d="M24.952 1.836C22.281 7.579 23.893 15.894 17.182 21c-3 2.271-8.7 3.067-12.233-.076-4.58-4.076-3.625-11.513 1.481-15.5C13.031.265 22.06.917 24.565 1.171a.467.467 0 0 1 .387.665z" fill="#83d34f"></path><path d="M45.662 56h-.075A4.967 4.967 0 0 1 41 50.974.97.97 0 0 1 42.027 50 1 1 0 0 1 43 51.026a2.854 2.854 0 0 0 .651 1.875A2.936 2.936 0 0 0 45.735 54a1 1 0 0 1-.073 2z" fill="#5c72f7"></path><path d="M59 29H31V1a1 1 0 0 0-2 0v28H1a1 1 0 0 0 0 2h28v28a1 1 0 0 0 2 0V31h28a1 1 0 0 0 0-2z" fill="#e4e1e5"></path><path d="M1 26a1 1 0 0 1-.894-1.447c3.688-7.376 10.972-13.1 11.281-13.342a1 1 0 0 1 1.228 1.578c-.071.056-7.238 5.694-10.719 12.658A1 1 0 0 1 1 26z" fill="#72b746"></path><g fill="#4252e8"><path d="M46 10H35a1 1 0 0 1 0-2h11a3 3 0 1 0-3-3 1 1 0 0 1-2 0 5 5 0 1 1 5 5zM43 26a5.006 5.006 0 0 1-5-5 1 1 0 0 1 2 0 3 3 0 1 0 3-3h-8a1 1 0 0 1 0-2h8a5 5 0 0 1 0 10z" fill="#4252e8"></path><path d="M55 22a5.006 5.006 0 0 1-5-5 1 1 0 0 1 2 0 3 3 0 1 0 3-3H35a1 1 0 0 1 0-2h20a5 5 0 0 1 0 10z" fill="#4252e8"></path></g></g></svg>