<svg viewBox="0 0 512 512" xmlns="http://www.w3.org/2000/svg"><g><path d="M256 512C115.404 512 0 396.61 0 256S115.404 0 256 0s256 115.39 256 256-115.404 256-256 256z" fill="#ffdf40"></path><path d="M512 256C512 115.39 396.596 0 256 0v512c140.596 0 256-115.39 256-256z" fill="#ffbe40"></path><path d="M256 301c-24.814 0-45-20.186-45-45s20.186-45 45-45 45 20.186 45 45-20.186 45-45 45zM293.471 191.049c-22.676-13.154-52.266-13.154-74.941 0-7.478 4.309-16.581 1.407-20.508-5.479l-44.971-77.93c-4.16-7.163-1.699-16.333 5.449-20.479 59.062-34.219 135.938-34.219 195 0 7.148 4.146 9.609 13.315 5.449 20.479l-44.971 77.93c-4.036 7.079-13.223 9.674-20.507 5.479zM158.5 424.838C98.354 389.989 61 325.287 61 256c0-8.291 6.709-15 15-15h90c8.291 0 15 6.709 15 15 0 26.631 14.385 51.519 37.529 64.951 7.148 4.16 9.609 13.315 5.449 20.479l-44.971 77.93c-4.038 7.083-13.223 9.673-20.507 5.478z" fill="#4d5e80"></path><path d="m332.992 419.359-44.971-77.93c-4.16-7.163-1.699-16.318 5.449-20.479C316.615 307.519 331 282.631 331 256c0-8.291 6.709-15 15-15h90c8.291 0 15 6.709 15 15 0 69.287-37.354 133.989-97.5 168.838-7.266 4.185-16.459 1.621-20.508-5.479z" fill="#3d4566"></path><g fill="#3d4566"><path d="M301 256c0-24.814-20.186-45-45-45v90c24.814 0 45-20.186 45-45zM293.471 191.049c7.294 4.201 16.477 1.591 20.508-5.479l44.971-77.93c4.16-7.163 1.699-16.333-5.449-20.479-29.531-17.109-63.516-25.664-97.5-25.664v119.685c13.065.001 26.132 3.29 37.47 9.867z" fill="#3d4566"></path></g></g></svg>