<svg viewBox="0 0 512.467 512.467" xmlns="http://www.w3.org/2000/svg"><g><path d="M266.878 0H21.545C9.811 0 .211 9.6.211 21.333v469.333C.211 502.4 9.811 512 21.545 512h342.4c11.733 0 21.333-9.6 21.333-21.333V117.333L266.878 0z" fill="#f2f2f2"></path><path d="M266.878 96c0 11.733 9.6 21.333 21.333 21.333h96L266.878 0v96zM45.011 243.2h295.467v26.667H45.011zM45.011 323.2h295.467v26.667H45.011zM45.011 404.267h142.933v26.667H45.011zM45.011 162.133h295.467V188.8H45.011z" fill="#cdd6e0"></path><path d="M45.011 81.067h169.6v26.667h-169.6z" fill="#ffd15c"></path><path d="M363.805 371.606h49.066v34.133h-49.066z" fill="#40596b" transform="rotate(134.999 388.34 388.673)"></path><circle cx="288.212" cy="288" fill="#40596b" r="145.067"></circle><circle cx="288.212" cy="288" fill="#84dbff" r="110.933"></circle><path d="m495.145 432-70.4-54.4-45.867 45.867 54.4 70.4 1.067 1.067 60.8-62.934c0 1.067 0 1.067 0 0z" fill="#ffd15c"></path><path d="M496.212 433.067 433.278 496c17.067 20.267 46.933 22.4 66.133 3.2 18.134-19.2 17.067-49.067-3.199-66.133z" fill="#ff7058"></path></g></svg>