<svg viewBox="0 0 340 340" xmlns="http://www.w3.org/2000/svg"><g><path d="M111.028 127.171v53.622l36.544 5.843v-51.872z" fill="#ffc7b3"></path><path d="m102.357 172.876-1.63 135.935S88.992 330 108.551 330h91.429c2.778-6.392 1.859-12.273-4.6-17.388l-12.039-130.227z" fill="#bdd8ff"></path><path d="m139.126 177.193-9.826 59.312 32.401 34.997h28.298l1.368-2.264-8.026-86.853z" fill="#88aad3"></path><path d="M284.582 169.1h-137.01v92.215c13.248 14.707 34.379 34.551 61.117 47.494h75.893z" fill="#efc095"></path><path d="M197.448 169.102h37.259v35.068h-37.259z" fill="#ffe2ca"></path><path d="M188.46 71.087h96.122v98.015H188.46z" fill="#efc095"></path><path d="M223.451 71.087h26.14v24.602h-26.14z" fill="#ffe2ca"></path><path d="m101.935 208.078-.595 49.594c2.1 2.828 5.088 6.066 7.306 8.768a2.989 2.989 0 0 1-.139 3.963 5.271 5.271 0 0 0-.421 6.8c3.862 5.162 11.631 14.814 20.755 22.138a6.233 6.233 0 0 0 7.842-.048 2.973 2.973 0 0 1 3.759-.012c6.392 5.185 28.371 22.161 52.116 30.721h7.422c2.778-6.392 1.859-12.273-4.6-17.388l-1.437-15.548c-59.705-21.872-83.292-65.257-92.008-88.988z" fill="#88aad3"></path><path d="M234.294 279.176c-21.765-4.756-44.748-19.314-50.024-22.789a1.683 1.683 0 0 1-.645-2.006 6.494 6.494 0 0 0-1.96-7.336l-14.856-11.2-18.338 26.908c13.888 14.866 34.683 33.551 60.517 46.056h44.965c.092-.461.174-.918.246-1.368 2.089-13.15-6.899-25.422-19.905-28.265z" fill="#e2a471"></path><path d="M160.549 244.4c-19.636-22.206-31.394-47.83-37.611-64.585a21.057 21.057 0 0 0-39.7 14.024c11.238 33.617 26.6 58.8 43.4 77.666z" fill="#bdd8ff"></path><path d="M220.185 325.186a20.091 20.091 0 0 0 23.958-20.333 19.958 19.958 0 0 0-15.518-18.9c-25.044-5.533-44.928-18.286-60.542-33.61L135.844 281.1a166.9 166.9 0 0 0 84.341 44.086z" fill="#ffc7b3"></path><path d="m111.028 159.113 36.544-6.913v-17.436l-36.544-7.593z" fill="#f29a86"></path><path d="M138.722 57.151s11.24-7.846 11.654-20.631a7.4 7.4 0 0 0-9.919-7.123l-4.669 1.676a32.8 32.8 0 0 0-2.672-15.706 9.3 9.3 0 0 0-14.163-3.4c-7.836 6.062-20.882 15.154-33.692 19.6 0 0-54.766 18.744-24.775 56.884 0 0-15.414 37.162 31.248 37.162L134.81 102.9z" fill="#f77661"></path><path d="M111 85.647c1.36 6.877 1.355 16.07-5.2 23.336 0 0-10.106-8.476-18.256 0 0 0-9.453 8.149 0 19.885 0 0 9.231 13.365 24.175 2.934l8.918 8.689a28.529 28.529 0 0 0 34.4 4.226c.2-.117.4-.236.6-.355a38.005 38.005 0 0 0 14.44-49.59 109.893 109.893 0 0 0-31.347-37.621l-20.597 12.354A15.33 15.33 0 0 0 111 85.647z" fill="#ffc7b3"></path><path d="M132.91 102.32a4.121 4.121 0 0 1-.78-.08 4.047 4.047 0 0 1-1.441-.6 4.137 4.137 0 0 1-.609-.49 4.746 4.746 0 0 1-.5-.61 4.352 4.352 0 0 1-.36-.69 3.982 3.982 0 0 1 .86-4.36 4.984 4.984 0 0 1 .609-.5 4.638 4.638 0 0 1 .691-.37 3.809 3.809 0 0 1 .75-.22 4.037 4.037 0 0 1 3.61 1.09 3.584 3.584 0 0 1 .489.61 3.471 3.471 0 0 1 .371.69 3.832 3.832 0 0 1 .23.75 3.992 3.992 0 0 1-3.92 4.78zM146.67 90.93a4.121 4.121 0 0 1-.78-.08 4.053 4.053 0 0 1-.75-.23 3.8 3.8 0 0 1-.69-.37 4.043 4.043 0 0 1-.61-.49 4.093 4.093 0 0 1-.49-.61 3.9 3.9 0 0 1-.371-.69 4.045 4.045 0 0 1-.309-1.53 4.029 4.029 0 0 1 1.17-2.83 4.847 4.847 0 0 1 .61-.5 4.532 4.532 0 0 1 .69-.37 4.951 4.951 0 0 1 .75-.22 3.728 3.728 0 0 1 1.56 0 4.635 4.635 0 0 1 .75.22 4.183 4.183 0 0 1 .69.37 4.393 4.393 0 0 1 .61.5 4 4 0 0 1 1.17 2.83 3.5 3.5 0 0 1-.08.78 4.019 4.019 0 0 1-.22.75 4.579 4.579 0 0 1-.37.69 4.226 4.226 0 0 1-.5.61 3.722 3.722 0 0 1-.61.49 3.548 3.548 0 0 1-.69.37 3.832 3.832 0 0 1-.75.23 4.047 4.047 0 0 1-.78.08z" fill="#2b313f"></path><path d="M105.975 118.956c-2.151-2.313-5.742-5.329-10.067-5.669a1.141 1.141 0 0 0-.537 2.194 12.594 12.594 0 0 1 5.57 4.574s-.056.01-.155.035a3.46 3.46 0 0 0 .328 6.755 7 7 0 0 0 3.341-.379s.052-.021.143-.065a4.716 4.716 0 0 0 1.377-7.445z" fill="#f29a86"></path><path d="M188.46 156.904h96.122v12.199H188.46z" fill="#e2a471"></path><path d="M168.083 252.343 135.844 281.1a170.651 170.651 0 0 0 15.635 13.382c13.249-9.09 25.52-25.542 29.394-31a140.355 140.355 0 0 1-12.79-11.139z" fill="#f29a86"></path><path d="m122.2 264.615 33.674-29.069a8.114 8.114 0 0 1 12.037 1.616l7.373 10.97a8.867 8.867 0 0 1-1.177 11.3l-28.568 27.79a8.851 8.851 0 0 1-11.75.546 115.421 115.421 0 0 1-12.332-11.6 8.091 8.091 0 0 1 .743-11.553z" fill="#d9eaff"></path></g></svg>