<svg viewBox="0 0 512 512" xmlns="http://www.w3.org/2000/svg"><g><path d="M146 315V15L131 0h-30L85.044 14.9 71 0H41L26 15v300c0 100.355 81.645 182 182 182l10.393-77.841L208 377c-34.187 0-62-27.813-62-62z" fill="#707789"></path><path d="M486 122H385.539C321.831 122 270 173.83 270 237.539V315c0 34.187-27.813 62-62 62v120c100.355 0 182-81.645 182-182v-73h96l15-15v-30l-10.921-10.62L501 167v-30z" fill="#555a66"></path><path d="M41 315V0H11v315c0 108.626 88.374 197 197 197l9.069-15.224L208 482c-92.084 0-167-74.916-167-167z" fill="#fd6c6e"></path><path d="M405 315v-58h96v-30H397c-12.15 0-22 9.85-22 22v66c0 92.084-74.916 167-167 167v30c108.626 0 197-88.374 197-197z" fill="#f20051"></path><path d="M161 315V0h-30v315c0 42.458 34.542 77 77 77l5.031-15.205L208 362c-25.916 0-47-21.084-47-47z" fill="#fd6c6e"></path><path d="M285 315v-77.461C285 182.102 330.102 137 385.539 137H501v-30H385.539C313.56 107 255 165.56 255 237.539V315c0 25.916-21.084 47-47 47v30c42.458 0 77-34.542 77-77z" fill="#f20051"></path><path d="M71 0h30v30H71z" fill="#f6f6f6"></path><path d="M471 167h30v30h-30z" fill="#e2e0f4"></path><g fill="#f6f6f6"><path d="M71 213.686h30v61.229H71zM73.027 338.598c3.927 22.603 13.613 44.046 28.009 62.012l23.411-18.76c-11.24-14.026-18.8-30.759-21.863-48.387zM71 91.229h30v61.229H71zM166.895 413.824l-11.535 27.693C172.059 448.474 189.77 452 208 452l9.069-10.828L208 422c-14.25 0-28.08-2.751-41.105-8.176z" fill="#f6f6f6"></path></g><path d="M385.539 167c-15.843 0-31.394 5.41-43.789 15.234l18.635 23.511c7.218-5.721 15.917-8.745 25.154-8.745h24.025v-30zM208 422v30c4.897 0 9.832-.262 14.667-.777l-3.18-29.83c-3.783.403-7.648.607-11.487.607zM315 248.695h30v61.229h-30zM269.208 402.777l17.185 24.59c18.838-13.164 34.186-30.979 44.382-51.519l-26.87-13.34c-7.969 16.051-19.967 29.975-34.697 40.269z" fill="#e2e0f4"></path></g></svg>