<svg viewBox="0 0 64 64" xmlns="http://www.w3.org/2000/svg"><g><path d="M48.57 47.13c-.57-2.11-1.6-4.06-2.62-5.99-.37-.68-.81-1.43-1.56-1.62-.84-.22-1.68.38-2.24 1.04-.39.44-.9 1.11-1.33 1.8-.21.33-.4.66-.55.97-.19.4-.57.67-1.01.68-1.4.05-3.23.28-5.26.99-1.68.59-3.01 1.34-4 2 .2-1.11.39-2.88 0-5-.29-1.56-.8-2.83-1.31-3.8 1.06-3.28-.79-6.32-1.98-7.74l.45-.25c1-.57 1.39-1.96.84-3.07l-3.56-7.25c-.23-.46-.63-.78-1.08-.86l-2.26-2.72c.46-.45.71-1.09.87-1.74.14-.58.22-1.19.23-1.8.14-.01.27-.05.39-.13.88-.57 1.53-1.18 2-1.79a5.19 5.19 0 0 0 1.13-2.93c1.33.14 3.14.78 4.28 3.08 3.22 6.45 9 6 9 6s-4-4-6-9c-1.44-3.61-5.49-3.05-7.63-2.45C24.87 4.04 24 3 24 3c-4-4-9 0-9 0l-3.09-.77c-.53-.13-1.09.12-1.33.61-.5.56-.05 1.18.56 1.7.58.5 2.04 1.63 3.71 2.94-.06.6-.04 1.22-.08 1.82-.06.95-.28 1.9-.65 2.77-.1.25-.2.56-.02.75.14.15.36.12.55.18.48.14.63.75.8 1.24.51 1.53 1.96 2.64 3.5 2.75-.02.25-.05.49-.09.74-.29 1.86-1.6 3.34-2.32 5.06-.44 1.04-.91 2.41-.34 3.5.69 1.31 2.54 2.64 3.8 4.17l-2 .97h-1l-1.19.45c-.86.32-1.41 1.23-1.41 2.2 0 .19.02.37.06.56.29 1.32 1.51 2.07 2.65 1.64l.43-.16c.3-.11.58-.31.8-.56l.42-.48c.16-.17.34-.32.54-.43l1.88-1.06-6.11 12.27c-.05.09-.08.19-.09.29l-1.76 11.61c-.2-.08-.32-.14-.32-.14-.49.11-.89.5-1.3.82-1.31 1.01-3 1.38-4.56 1.03-.5-.12-.98.31-1.03.88-.07.71.19 1.51.67 1.95.75.68 1.81.77 2.78.66.96-.11 1.92-.4 2.89-.35.95.05 1.88.41 2.83.29 1.26-.17 2.37-1.31 2.63-2.71.15-.82-.01-1.76-.6-2.28l1.67-9.19c.08-.47.32-.89.67-1.19l4.15-3.56 2.82 6.57a3.354 3.354 0 0 0 4.75 1.59L42 46a.5.5 0 0 0 .02.27c.1.27.42.35.69.46 1.01.41 1.5 1.52 2.04 2.46.54.95 1.45 1.92 2.53 1.74.74-.14 1.29-.83 1.46-1.56.17-.74.03-1.51-.17-2.24z" fill="#eda992"></path><path d="M48.57 47.13c.2.73.34 1.5.17 2.24-.17.73-.72 1.42-1.46 1.56-1.08.18-1.99-.79-2.53-1.74-.54-.94-1.03-2.05-2.04-2.46-.27-.11-.59-.19-.69-.46A.5.5 0 0 1 42 46c.02-.18.11-.35.19-.51.55-1.17-.18-2.71-1.37-3.13.43-.69.94-1.36 1.33-1.8.56-.66 1.4-1.26 2.24-1.04.75.19 1.19.94 1.56 1.62 1.02 1.93 2.05 3.88 2.62 5.99z" fill="#c95f5f"></path><path d="M48.74 49.37c-.17.73-.72 1.42-1.46 1.56-.78.13-1.47-.34-2-.97.58-.25 1-.84 1.14-1.46.17-.74.03-1.51-.17-2.24-.57-2.11-1.6-4.06-2.62-5.99-.11-.21-.23-.42-.36-.62.35-.16.74-.23 1.12-.13.75.19 1.19.94 1.56 1.62 1.02 1.93 2.05 3.88 2.62 5.99.2.73.34 1.5.17 2.24z" fill="#c44747"></path><path d="M40.82 42.36c1.19.42 1.92 1.96 1.37 3.13-.08.16-.17.33-.19.51l-10.73 6.13c-1.74 1-3.96.25-4.75-1.59l-2.82-6.57L26 42c1.46-1.25 2.29-2.54 2.69-3.8.51.97 1.02 2.24 1.31 3.8.39 2.12.2 3.89 0 5 .99-.66 2.32-1.41 4-2 2.03-.71 3.86-.94 5.26-.99.44-.01.82-.28 1.01-.68.15-.31.34-.64.55-.97z" fill="#aa9f9f"></path><path d="M39 17s-5.78.45-9-6c-1.14-2.3-2.95-2.94-4.28-3.08.05-.85-.11-1.66-.35-2.37C27.51 4.95 31.56 4.39 33 8c2 5 6 9 6 9z" fill="#7c4d4d"></path><path d="M30.702 12.232C33.992 17.383 39 17 39 17s-1.601-1.604-3.284-4.046c-1.758-.069-3.457-.253-5.014-.722z" fill="#724242"></path><path d="M26.71 30.46c1.19 1.42 3.04 4.46 1.98 7.74-.4 1.26-1.23 2.55-2.69 3.8l-2.3 1.97-4.15 3.56c-.35.3-.59.72-.67 1.19l-1.67 9.19c-1.52.65-3.28.12-3.99-.15l1.76-11.61c.01-.1.04-.2.09-.29l6.11-12.27z" fill="#aa9f9f"></path><path d="M28.69 38.2c-.4 1.26-1.23 2.55-2.69 3.8l-2.3 1.97-4.15 3.56c-.35.3-.59.72-.67 1.19l-1.67 9.19c-.9.39-1.89.36-2.69.21.23-.05.46-.12.69-.22l1.67-9.6c.08-.49.32-.93.67-1.24l4.15-3.72 2.3-2.06c1.46-1.3 2.29-2.65 2.69-3.96.75-2.42.05-4.71-.85-6.37l.87-.49c1.19 1.42 3.04 4.46 1.98 7.74z" fill="#7c6d6d"></path><path d="M29.68 40.67c-.46.74-1.09 1.48-1.94 2.2l-2.3 1.97-1 .86-.74-1.73L26 42c1.46-1.25 2.29-2.54 2.69-3.8.36.68.71 1.5.99 2.47z" fill="#7c6d6d"></path><path d="M28 27.14c.55 1.11.16 2.5-.84 3.07l-.45.25-5.53 3.13-1.88 1.06c-.2.11-.38.26-.54.43l-.42.48c-.22.25-.5.45-.8.56l-.43.16c-1.14.43-2.36-.32-2.65-1.64-.04-.19-.06-.37-.06-.56 0-.97.55-1.88 1.41-2.2l1.19-.45h1l2-.97 3.79-1.84c.61-.29.8-1.16.39-1.74l-1.89-2.67c-.81-1.14-1.04-2.65-.64-4.03.21-.7.79-1.18 1.45-1.18.09 0 .17.01.26.03.45.08.85.4 1.08.86z" fill="#ffd5c2"></path><path d="M25.37 5.55c.24.71.4 1.52.35 2.37a5.19 5.19 0 0 1-1.13 2.93L15 3s5-4 9 0c0 0 .87 1.04 1.37 2.55z" fill="#c95f5f"></path><path d="m15 3 9.59 7.85c-.47.61-1.12 1.22-2 1.79-.12.08-.25.12-.39.13-.26.05-.52-.03-.74-.19-1.49-1.16-4.27-3.3-6.61-5.1-1.67-1.31-3.13-2.44-3.71-2.94-.61-.52-1.06-1.14-.56-1.7.24-.49.8-.74 1.33-.61z" fill="#aa9f9f"></path><path d="M25.37 5.55C24.87 4.04 24 3 24 3a6.232 6.232 0 0 0-1.671-1.207c.938 2.529 1.288 5.33.554 7.66l1.707 1.397a5.19 5.19 0 0 0 1.13-2.93c.05-.85-.11-1.66-.35-2.37z" fill="#c44747"></path><path d="M22.883 9.453c-.341 1.081-.905 2.063-1.766 2.861l.343.266c.22.16.48.24.74.19.14-.01.27-.05.39-.13.88-.57 1.53-1.18 2-1.79z" fill="#7c6d6d"></path><path d="M24.18 26.88c.41.58.22 1.45-.39 1.74L20 30.46c-1.26-1.53-3.11-2.86-3.8-4.17-.57-1.09-.1-2.46.34-3.5.72-1.72 2.03-3.2 2.32-5.06.04-.25.07-.49.09-.74.12.01.25.02.38.01.63-.03 1.27-.22 1.74-.66l.03-.03 2.26 2.72c-.09-.02-.17-.03-.26-.03-.66 0-1.24.48-1.45 1.18-.4 1.38-.17 2.89.64 4.03z" fill="#c95f5f"></path><path d="M21.46 12.58c.22.16.48.24.74.19-.01.61-.09 1.22-.23 1.8-.16.65-.41 1.29-.87 1.74l-.03.03c-.47.44-1.11.63-1.74.66-.13.01-.26 0-.38-.01-1.54-.11-2.99-1.22-3.5-2.75-.17-.49-.32-1.1-.8-1.24-.19-.06-.41-.03-.55-.18-.18-.19-.08-.5.02-.75.37-.87.59-1.82.65-2.77.04-.6.02-1.22.08-1.82 2.34 1.8 5.12 3.94 6.61 5.1z" fill="#ffd5c2"></path><path d="M17.21 57.91c.59.52.75 1.46.6 2.28-.26 1.4-1.37 2.54-2.63 2.71-.95.12-1.88-.24-2.83-.29-.97-.05-1.93.24-2.89.35-.97.11-2.03.02-2.78-.66-.48-.44-.74-1.24-.67-1.95.05-.57.53-1 1.03-.88 1.56.35 3.25-.02 4.56-1.03.41-.32.81-.71 1.3-.82 0 0 .12.06.32.14.71.27 2.47.8 3.99.15z" fill="#c95f5f"></path><path d="M17.81 60.19c-.26 1.4-1.37 2.54-2.63 2.71-.95.12-1.88-.24-2.83-.29-.97-.05-1.93.24-2.89.35-.97.11-2.03.02-2.78-.66-.44-.4-.7-1.11-.68-1.78.05.06.1.12.16.17.75.68 1.81.77 2.78.66.96-.11 1.92-.4 2.89-.35.95.05 1.88.41 2.83.29 1.26-.17 2.37-1.31 2.63-2.71.03-.18.05-.36.05-.54.48.54.61 1.39.47 2.15z" fill="#c44747"></path><path d="M59 17c-2.206 0-4-1.794-4-4a1 1 0 1 1 2 0c0 1.103.897 2 2 2s2-.897 2-2-.897-2-2-2H43a1 1 0 1 1 0-2h16c2.206 0 4 1.794 4 4s-1.794 4-4 4zM49 28H33a1 1 0 1 1 0-2h16c1.103 0 2-.897 2-2s-.897-2-2-2-2 .897-2 2a1 1 0 1 1-2 0c0-2.206 1.794-4 4-4s4 1.794 4 4-1.794 4-4 4zM37 22h-7a1 1 0 1 1 0-2h7a1 1 0 1 1 0 2zM49 16h-7a1 1 0 1 1 0-2h7a1 1 0 1 1 0 2z" fill="#f4eade"></path><path d="M16.809 10a.188.188 0 0 0-.106.032c-.462.308-.93.003-.934 0-.087-.058-.206-.035-.265.053s-.035.206.053.265c.028.018.687.447 1.358 0a.19.19 0 0 0-.106-.35z" fill="#7c4d4d"></path><path d="M17.834 14.657a.194.194 0 0 0-.085.071c-.303.466-.853.37-.858.369a.19.19 0 1 0-.069.375c.033.006.808.139 1.247-.537a.192.192 0 0 0-.056-.264.193.193 0 0 0-.179-.014z" fill="#c95f5f"></path></g></svg>