<svg viewBox="0 0 60 60" xmlns="http://www.w3.org/2000/svg"><g><path d="m58.64 43.26-2.14 1.02a.648.648 0 0 1-.51.02l-8.75-3.52.39 12.22-5.32 1.53.6-17.38a2.712 2.712 0 0 1-.47-.59l-10.82 6.62a.341.341 0 0 1-.5-.33l.16-2.36a.68.68 0 0 1 .23-.45l5.7-4.58 1.26-1.01.72-.58a.645.645 0 0 1 .75-.03l2.07 1.36A1.34 1.34 0 0 1 42 35a3 3 0 0 1 3-3V19.32a.345.345 0 0 1 .54-.26l1.93 1.37a.63.63 0 0 1 .27.44l1.25 9.77a.633.633 0 0 1-.36.65l-2.24 1.05a3.012 3.012 0 0 1 1.23 4.13l11.06 6.2a.336.336 0 0 1-.04.59z" fill="#ecf0f1"></path><path d="M22 56.25A2.614 2.614 0 0 1 19.55 59H7.68a4.152 4.152 0 0 1 0-8.25 3.436 3.436 0 0 1 2.06.7 1.927 1.927 0 0 1-.01-.24A3.052 3.052 0 0 1 12.59 48a2.98 2.98 0 0 1 2.81 2.59 2.32 2.32 0 0 1 1.69-.76 2.22 2.22 0 0 1 1.39.49 2.815 2.815 0 0 1 1.07 2.26 3.123 3.123 0 0 1-.15.93c.05 0 .1-.01.15-.01A2.614 2.614 0 0 1 22 56.25z" fill="#bdc3c7"></path><path d="m38.28 35.14-2.87.86a.864.864 0 0 1-.65-.07l-10.37-6L26 59h-6.45a2.768 2.768 0 0 0 0-5.5c-.05 0-.1.01-.15.01a3.123 3.123 0 0 0 .15-.93 2.815 2.815 0 0 0-1.07-2.26l1.39-24.94a3.952 3.952 0 0 1-1.72-2.29L2.2 27.63a.419.419 0 0 1-.5-.56l1.05-2.81a.831.831 0 0 1 .45-.47l11.77-4.98a.815.815 0 0 1 .94.21l2.14 2.37A4 4 0 0 1 22 18V1.42a.428.428 0 0 1 .68-.34l2.41 1.78a.861.861 0 0 1 .33.56l1.57 12.69a.827.827 0 0 1-.46.85l-2.87 1.41a3.987 3.987 0 0 1 1.53 6.04l13.24 10a.415.415 0 0 1-.15.73z" fill="#ecf0f1"></path><path d="M26 59H7.68a4.152 4.152 0 0 1 0-8.25 3.436 3.436 0 0 1 2.06.7 1.927 1.927 0 0 1-.01-.24A3.052 3.052 0 0 1 12.59 48a2.98 2.98 0 0 1 2.81 2.59 2.32 2.32 0 0 1 1.69-.76 2.22 2.22 0 0 1 1.39.49l1.39-24.94a3.983 3.983 0 0 0 4.03.14l-.61 3.14a.806.806 0 0 0 .4.87l.7.4z" fill="#bdc3c7"></path><path d="M26 22a3.974 3.974 0 0 1-.81 2.41l-.01.01a3.885 3.885 0 0 1-1.28 1.1 3.983 3.983 0 0 1-4.03-.14A4 4 0 1 1 26 22zM48 35a3 3 0 0 1-.38 1.47l-.01.01a2.875 2.875 0 0 1-.96 1.03l-.01.01A3.034 3.034 0 0 1 45 38a3 3 0 0 1-2.09-.85 2.712 2.712 0 0 1-.47-.59 2.985 2.985 0 0 1-.43-1.35v-.01A1.34 1.34 0 0 1 42 35a3 3 0 0 1 6 0z" fill="#3b97d3"></path><g fill="#547580"><path d="M22 18V1.42a.428.428 0 0 1 .68-.34l2.41 1.78a.861.861 0 0 1 .33.56l1.57 12.69a.827.827 0 0 1-.46.85l-2.87 1.41zM38.28 35.14l-2.87.86a.864.864 0 0 1-.65-.07l-10.37-6-.7-.4a.806.806 0 0 1-.4-.87l.61-3.14 1.28-1.1.01-.01 13.24 10a.415.415 0 0 1-.15.73zM18.05 21.39l-2.14-2.37a.815.815 0 0 0-.94-.21L3.2 23.79a.831.831 0 0 0-.45.47L1.7 27.07a.419.419 0 0 0 .5.56l15.96-4.54zM46.39 32.34l2.24-1.05a.633.633 0 0 0 .36-.65l-1.25-9.77a.63.63 0 0 0-.27-.44l-1.93-1.37a.345.345 0 0 0-.54.26V32zM58.64 43.26l-2.14 1.02a.648.648 0 0 1-.51.02l-8.75-3.52-.39-.16a.63.63 0 0 1-.38-.64l.17-2.46.01-.01.96-1.03.01-.01 11.06 6.2a.336.336 0 0 1-.04.59z" fill="#547580"></path><path d="m38.47 34.45.72-.58a.645.645 0 0 1 .75-.03l2.07 1.36.43 1.36-10.82 6.62a.341.341 0 0 1-.5-.33l.16-2.36a.68.68 0 0 1 .23-.45l5.7-4.58z" fill="#547580"></path></g><path d="M22 56.25A2.614 2.614 0 0 1 19.55 59H7.68a4.152 4.152 0 0 1 0-8.25 3.436 3.436 0 0 1 2.06.7 1.927 1.927 0 0 1-.01-.24A3.052 3.052 0 0 1 12.59 48a2.98 2.98 0 0 1 2.81 2.59 2.32 2.32 0 0 1 1.69-.76 2.22 2.22 0 0 1 1.39.49 2.815 2.815 0 0 1 1.07 2.26 3.123 3.123 0 0 1-.15.93c.05 0 .1-.01.15-.01A2.614 2.614 0 0 1 22 56.25z" fill="#71c285"></path><path d="M22 56.25a2.614 2.614 0 0 0-2.45-2.75c-.05 0-.1.01-.15.01a3.123 3.123 0 0 0 .15-.93 2.815 2.815 0 0 0-1.07-2.26l1.39-24.94a3.983 3.983 0 0 0 4.03.14l-.61 3.14a.806.806 0 0 0 .4.87l.7.4L26 59h-6.45A2.614 2.614 0 0 0 22 56.25zM47.63 53l-5.32 1.53.6-17.38A3 3 0 0 0 45 38a3.034 3.034 0 0 0 1.64-.48l-.17 2.46a.63.63 0 0 0 .38.64l.39.16z" fill="#bdc3c7"></path><path d="M58 8H48a4 4 0 0 1 0-8 1 1 0 0 1 0 2 2 2 0 0 0 0 4h10a1 1 0 0 1 0 2z" fill="#b0d3f0"></path><path d="M50 13H40a4 4 0 0 1 0-8 1 1 0 0 1 0 2 2 2 0 0 0 0 4h10a1 1 0 0 1 0 2z" fill="#9fc9d3"></path><path d="M50.932 59a3.39 3.39 0 0 0 0-6.75 2.862 2.862 0 0 0-1.714.575c0-.066.009-.132.009-.2A2.514 2.514 0 0 0 46.841 50a2.458 2.458 0 0 0-2.341 2.121 1.945 1.945 0 0 0-1.409-.621 2.155 2.155 0 0 0-2.046 2.25 2.445 2.445 0 0 0 .122.757c-.041 0-.081-.007-.122-.007a2.26 2.26 0 0 0 0 4.5z" fill="#71c285"></path><path d="M59 60H1a1 1 0 0 1 0-2h58a1 1 0 0 1 0 2z" fill="#4c8056"></path></g></svg>