<svg viewBox="0 0 512 512" xmlns="http://www.w3.org/2000/svg"><g><path d="M316.989 278.804c-10.775-10.776-16.746-24.582-16.812-38.874l-15-10-15 10c-.065 14.292-6.036 28.098-16.812 38.874-8.5 8.5-13.181 19.8-13.181 31.819 0 24.802 20.182 44.986 44.997 44.994 24.806-.007 44.987-20.191 44.987-44.994.002-12.019-4.679-23.319-13.179-31.819z" fill="#4dc3ff"></path><g fill="#ffda44"><path d="M150.186 187.5h60v30h-60zM165.794 129.245l15-25.98 51.96 30-15 25.98zM223.44 60.61l25.98-15 30 51.96-25.98 15z" fill="#ffda44"></path></g><path d="M240.186 202.5V240h90v-30h60v-90h-67.5c-45.491 0-82.5 37.009-82.5 82.5z" fill="#e6ecf2"></path><path d="M422 120h90v90h-90z" fill="#b9c9d9"></path><path d="M391.093 0h15v105h-15z" fill="#8f9fbf"></path><path d="M406.093 0h15v105h-15z" fill="#6b75a6"></path><path d="M330.186 30h75.907v30h-75.907z" fill="#b9c9d9"></path><path d="M406.093 30H482v30h-75.907zM406.093 90H452v150h-45.907z" fill="#8f9fbf"></path><path d="M360.186 90h45.907v150h-45.907z" fill="#b9c9d9"></path><path d="M357.418 483.787c0-7.791-3.158-14.844-8.263-19.95a28.126 28.126 0 0 0-19.95-8.263H221.204c-15.547 0-30.164-6.054-41.157-17.048l-32.332-32.331-30.002 15.859-24.085 38.227L166.222 512h162.984c15.581 0 28.212-12.631 28.212-28.213z" fill="#ffcdbe"></path><path d="M201.26 417.313c10.997 10.997 28.891 10.997 39.888 0 10.997-10.998 10.996-28.892 0-39.889l-32.331-32.331-27.015 12.873-12.873 27.015z" fill="#ffcdbe"></path><path d="m126.502 384.981 21.213-21.213 21.213 21.213 39.888-39.888-52.124-52.124a75.001 75.001 0 0 0-53.033-21.967H0V418.69h35.251l58.377 41.591 54.086-54.086z" fill="#ffdecf"></path></g></svg>