<svg viewBox="0 0 512 512" xmlns="http://www.w3.org/2000/svg"><g><path d="M142.063 368.565s52.167.49 52.167-44.013-3.753-55.391-3.753-55.391h-78.393l-7.985 49.702 37.964 49.702z" fill="#ef5350"></path><path d="M162.531 431.028c-7.827 0-14.308-6.075-14.799-13.886-1.436-22.839-5.945-68.43-19.683-94.912-18.869-36.373-59.518-34.922-59.518-34.922l-13.043 25.328c30.988 29.457 39.155 79.344 41.307 118.669 1.128 20.605 18.132 36.742 38.767 36.742h26.968c10.223 0 18.509-8.287 18.509-18.509.002-10.223-8.285-18.51-18.508-18.51z" fill="#409fff"></path><path d="M346.751 92.51s-63.584 69.394-184.772 69.394c-1.21 0-2.407 0-3.596.011l-79.192 80.472 79.192 80.472c1.187.011 2.386.011 3.596.011 121.187 0 184.772 69.393 184.772 69.393l25.2-149.875-25.2-149.878z" fill="#f5f5f5"></path><path d="M371.949 67.309c-13.916 0-25.196 11.281-25.196 25.196v299.761c0 13.916 11.28 25.196 25.196 25.196 13.916 0 25.196-11.28 25.196-25.196V92.506c.001-13.916-11.281-25.197-25.196-25.197z" fill="#ef5350"></path><path d="M371.949 387.016c-13.916 0-25.196-11.28-25.196-25.196v30.446c0 13.916 11.28 25.196 25.196 25.196 13.916 0 25.196-11.28 25.196-25.196V361.82c.001 13.916-11.281 25.196-25.196 25.196z" fill="#d44a47"></path><path d="M161.98 292.422c-1.21 0-2.407 0-3.596-.011-10.85-.037-21.03-.248-30.592-.64l30.592 31.086c1.187.011 2.386.011 3.596.011 121.187 0 184.773 69.393 184.773 69.393v-30.446c-.002.001-63.586-69.393-184.773-69.393z" fill="#e0e0e0"></path><path d="M128.05 322.229c-18.869-36.373-59.518-34.922-59.518-34.922l-13.043 25.328c10.553 10.032 18.454 22.436 24.378 35.983 16.905 2.406 36.393 3.848 58.945 4.414-2.739-11.34-6.25-22.105-10.762-30.803z" fill="#3a8fe6"></path><path d="M158.384 161.915v160.943C39.993 322.457 0 301.684 0 242.386c0-59.298 39.993-80.071 158.384-80.471z" fill="#ef5350"></path><path d="M1.025 227.163a92.2 92.2 0 0 0-.424 3.418l-.04.37a102.943 102.943 0 0 0-.306 3.585l-.001.023a110.393 110.393 0 0 0-.196 4.245A117.27 117.27 0 0 0 0 242.386c0 59.298 39.993 80.072 158.384 80.471v-30.446C50.752 292.048 7.922 274.842 1.025 227.163z" fill="#d44a47"></path><path d="M504.389 249.998h-70.892a7.61 7.61 0 1 1 0-15.222h70.892a7.61 7.61 0 1 1 0 15.222zM437.065 109.305a7.588 7.588 0 0 1-5.383-2.23 7.611 7.611 0 0 1 0-10.765l50.128-50.128a7.611 7.611 0 0 1 10.765 0 7.611 7.611 0 0 1 0 10.765l-50.128 50.128a7.592 7.592 0 0 1-5.382 2.23zM487.193 440.819a7.587 7.587 0 0 1-5.383-2.23l-50.128-50.128a7.612 7.612 0 0 1 10.765-10.765l50.128 50.128a7.611 7.611 0 0 1-5.382 12.995z" fill="#36474f"></path></g></svg>