<svg viewBox="0 0 512 512" xmlns="http://www.w3.org/2000/svg"><g><g clip-rule="evenodd" fill-rule="evenodd"><path d="M406.505 44.611c0-13.529-11.043-24.566-24.571-24.566-79.196-.005-307.864 0-307.864 0-18.816 0-34.071 15.255-34.071 34.071v403.77c0 18.816 15.255 34.071 34.071 34.071 0 0 228.669.005 307.864 0 13.528 0 24.571-11.033 24.571-24.566V44.611z" fill="#66d4f1"></path><path d="M364.822 51.728c-94.38-.004-188.759.001-283.139.001-5.508 0-10 4.493-10 10v388.544c0 5.505 4.488 9.996 9.993 10 44.517.001 213.607.003 283.146.001 5.507 0 9.999-4.492 9.999-10V61.729c0-5.509-4.492-10.001-9.999-10.001z" fill="#4fc0e8"></path><path d="M120.473 51.728h-38.79c-5.508 0-10 4.492-10 10v388.543c0 5.507 4.492 10 10 10h38.79z" fill="#38a8d2"></path><path d="M185.756 110.664h123.782c5.508 0 10 4.492 10 10v44.888c0 5.508-4.492 10-10 10H185.756c-5.508 0-10-4.492-10-10v-44.888c0-5.508 4.492-10 10-10z" fill="#f4f6f8"></path><path d="M26.562 97.887H85.12c5.817 0 10.561 4.744 10.561 10.561v19.448c0 5.817-4.744 10.561-10.561 10.561H26.562c-5.817 0-10.561-4.744-10.561-10.561v-19.448c-.001-5.817 4.744-10.561 10.561-10.561zm0 275.656H85.12c5.817 0 10.561 4.744 10.561 10.561v19.448c0 5.817-4.744 10.561-10.561 10.561H26.562c-5.817 0-10.561-4.744-10.561-10.561v-19.448c-.001-5.817 4.744-10.561 10.561-10.561zm0-91.885H85.12c5.817 0 10.561 4.744 10.561 10.561v19.447c0 5.817-4.744 10.561-10.561 10.561H26.562c-5.817 0-10.561-4.744-10.561-10.561v-19.447c-.001-5.817 4.744-10.561 10.561-10.561zm0-91.886H85.12c5.817 0 10.561 4.744 10.561 10.561v19.447c0 5.817-4.744 10.561-10.561 10.561H26.562c-5.817 0-10.561-4.744-10.561-10.561v-19.447c-.001-5.816 4.744-10.561 10.561-10.561zM442.681 156.607c12.155-12.156 32.047-12.156 44.203 0 12.155 12.156 12.155 32.047-.001 44.203L314.047 373.645l-50.87 18.077c-3.777 1.342-7.747.412-10.534-2.469-2.788-2.88-3.587-6.878-2.122-10.609l19.324-49.201z" fill="#636c77"></path><path d="m269.845 329.443-19.324 49.201c-1.465 3.731-.666 7.729 2.122 10.609 2.788 2.881 6.757 3.811 10.534 2.469l50.87-18.077s.124-.124.367-.362l-44.205-44.205-.364.365z" fill="#f4f6f8"></path><path d="m424.995 174.293 44.202 44.202 17.686-17.686c12.156-12.156 12.156-32.047.001-44.203-12.156-12.156-32.047-12.155-44.203 0l-17.686 17.687z" fill="#fdcd56"></path></g></g></svg>