<svg viewBox="0 0 512 512" xmlns="http://www.w3.org/2000/svg"><g><path d="M256 150c-41.367 0-75-33.647-75-75s33.633-75 75-75 75 33.647 75 75-33.633 75-75 75zm0-120c-24.814 0-45 20.186-45 45s20.186 45 45 45 45-20.186 45-45-20.186-45-45-45z" fill="#80664d"></path><path d="M301 75c0 24.814-20.186 45-45 45v30c41.367 0 75-33.647 75-75S297.367 0 256 0v30c24.814 0 45 20.186 45 45z" fill="#594135"></path><path d="M467 512H45c-24.814 0-45-20.186-45-45 0-4.409.645-8.774 1.904-12.949l90-301.985C97.588 133.184 115.312 120 135 120h242c19.688 0 37.412 13.184 43.096 32.051l90 302.015A44.652 44.652 0 0 1 512 467.001C512 491.814 491.814 512 467 512z" fill="#80664d"></path><path d="M420.096 152.051C414.412 133.184 396.688 120 377 120H256v392h211c24.814 0 45-20.186 45-45 0-4.409-.645-8.774-1.904-12.935z" fill="#594135"></path><path d="M376 300h-30c-8.291 0-15 6.709-15 15s6.709 15 15 15h15c0 16.538-13.447 30-30 30s-30-13.462-30-30v-30c0-16.538 13.447-30 30-30 7.998 0 15.527 3.12 21.211 8.789 5.859 5.859 15.352 5.859 21.211 0s5.859-15.352 0-21.211C362.084 246.24 347.025 240 331 240c-32.93 0-59.766 26.689-60 59.575V330c0 33.091 26.924 60 60 60s60-26.909 60-60v-15c0-8.291-6.709-15-15-15z" fill="#f0dbd8"></path><path d="M231.947 240.938c-7.383-3.618-16.406-.703-20.127 6.709l-25.84 51.709h-5.742v-45c0-8.291-6.709-15-15-15s-15 6.709-15 15v120c0 8.291 6.709 15 15 15s15-6.709 15-15v-45h5.742l25.84 51.709a15.011 15.011 0 0 0 20.127 6.709c7.412-3.706 10.4-12.715 6.709-20.127l-26.646-53.291 26.646-53.291c3.692-7.413.703-16.421-6.709-20.127z" fill="#f9f5f3"></path></g></svg>