<svg viewBox="0 0 512 512" xmlns="http://www.w3.org/2000/svg"><g><path d="M241.176 439.895H102.424c-14.044 0-25.428-11.385-25.428-25.428V275.714c0-14.044 11.385-25.428 25.428-25.428h138.752c14.044 0 25.428 11.385 25.428 25.428v138.752c0 14.044-11.385 25.429-25.428 25.429z" fill="#d7effa"></path><path d="M431.241 250.286H292.49c-14.044 0-25.428 11.385-25.428 25.428l-10 75.369 10 63.383c0 14.044 11.385 25.428 25.428 25.428h138.752c14.044 0 25.428-11.384 25.428-25.428V275.714c0-14.044-11.385-25.428-25.429-25.428z" fill="#d7effa"></path><path d="M241.176 250.286h-30c14.044 0 25.428 11.385 25.428 25.428v138.752c0 14.044-11.385 25.428-25.428 25.428h30c14.044 0 25.429-11.384 25.429-25.428V275.714c-.001-14.044-11.386-25.428-25.429-25.428zM431.241 250.286h-30c14.044 0 25.428 11.385 25.428 25.428v138.752c0 14.044-11.385 25.428-25.428 25.428h30c14.044 0 25.428-11.384 25.428-25.428V275.714c.001-14.044-11.384-25.428-25.428-25.428z" fill="#c1e8fa"></path><path d="M410.998 421.47h-42.09c-4.143 0-7.5-3.358-7.5-7.5s3.357-7.5 7.5-7.5h42.09c4.084 0 7.406-3.322 7.406-7.405v-49.232a7.5 7.5 0 0 1 15 0v49.232c.001 12.354-10.051 22.405-22.406 22.405zM171.393 419.297H122.16c-12.354 0-22.405-10.051-22.405-22.405v-42.09a7.5 7.5 0 0 1 15 0v42.09c0 4.083 3.322 7.405 7.405 7.405h49.232a7.5 7.5 0 0 1 .001 15z" fill="#b4e4fa"></path><path d="M504.5 448.324H7.5a7.5 7.5 0 0 1 0-15h497c4.143 0 7.5 3.358 7.5 7.5s-3.357 7.5-7.5 7.5z" fill="#eef0f0"></path><path d="M338.105 63.677H195.104c-12.87 0-23.304 10.434-23.304 23.304v143.001c0 12.87 10.434 23.304 23.304 23.304h4.077v26.084c0 8.213 6.658 14.872 14.871 14.872s14.872-6.658 14.872-14.872v-26.084h21.997v58.571c0 8.213 6.658 14.871 14.872 14.871 8.213 0 14.871-6.658 14.871-14.871v-58.571h57.441c12.87 0 23.304-10.434 23.304-23.304V86.981c0-12.871-10.434-23.304-23.304-23.304z" fill="#9adbf9"></path><path d="M338.105 63.677h-30c12.87 0 23.304 10.434 23.304 23.304v143.001c0 12.871-10.434 23.304-23.304 23.304h30c12.87 0 23.304-10.434 23.304-23.304V86.981c0-12.87-10.434-23.304-23.304-23.304z" fill="#86d5f9"></path><path d="M201.556 167.281a7.5 7.5 0 0 1-7.5-7.5v-49.232c0-12.354 10.051-22.406 22.405-22.406h42.09a7.5 7.5 0 0 1 0 15h-42.09c-4.083 0-7.405 3.322-7.405 7.406v49.232a7.5 7.5 0 0 1-7.5 7.5z" fill="#b4e4fa"></path></g></svg>