<svg viewBox="0 0 64 64" xmlns="http://www.w3.org/2000/svg"><g><path d="M63 11v42H32v-3h28V14H32v-3z" fill="#545c66"></path><path d="M38 38a2 2 0 1 0-2-2 2.006 2.006 0 0 0 2 2zm0-16a2 2 0 1 0-2-2 2.006 2.006 0 0 0 2 2zm8 17a3 3 0 1 0-3-3 2.996 2.996 0 0 0 3 3zm0 3a2 2 0 1 0 2 2 2.006 2.006 0 0 0-2-2zm0-16a2 2 0 1 0 2 2 2.006 2.006 0 0 0-2-2zm0-3a3 3 0 1 0-3-3 2.996 2.996 0 0 0 3 3zm8 11a2 2 0 1 0 2 2 2 2 0 0 0-2-2zm0-12a2 2 0 1 0-2-2 2.006 2.006 0 0 0 2 2zM38 41a3 3 0 1 0 3 3 2.996 2.996 0 0 0-3-3zm0-16a3 3 0 1 0 3 3 2.996 2.996 0 0 0-3-3zm19 19a3 3 0 1 0-3 3 2.996 2.996 0 0 0 3-3zm0-16a3 3 0 1 0-3 3 2.996 2.996 0 0 0 3-3zm3-14v36H32V14z" fill="#e6e9ed"></path><path d="M18 38a2 2 0 1 0-2-2 2.006 2.006 0 0 0 2 2zm0-7a3 3 0 1 0-3-3 2.996 2.996 0 0 0 3 3zm0-9a2 2 0 1 0-2-2 2.006 2.006 0 0 0 2 2zm8 20a2 2 0 1 0 2 2 2.006 2.006 0 0 0-2-2zm0-12a2 2 0 1 0-2-2 2.006 2.006 0 0 0 2 2zm3 6a3 3 0 1 0-3 3 2.996 2.996 0 0 0 3-3zm0-16a3 3 0 1 0-3 3 2.996 2.996 0 0 0 3-3zM10 39a3 3 0 1 0-3-3 2.996 2.996 0 0 0 3 3zm0 3a2 2 0 1 0 2 2 2.006 2.006 0 0 0-2-2zm0-16a2 2 0 1 0 2 2 2.006 2.006 0 0 0-2-2zm0-3a3 3 0 1 0-3-3 2.996 2.996 0 0 0 3 3zm-6-9h28v36H4zm14 27a3 3 0 1 0 3 3 2.996 2.996 0 0 0-3-3z" fill="#f5f7fa"></path><g fill="#f6bb42"><circle cx="38" cy="44" fill="#f6bb42" r="3"></circle><circle cx="54" cy="36" fill="#f6bb42" r="2"></circle><circle cx="54" cy="44" fill="#f6bb42" r="3"></circle><circle cx="54" cy="28" fill="#f6bb42" r="3"></circle><circle cx="54" cy="20" fill="#f6bb42" r="2"></circle><circle cx="46" cy="20" fill="#f6bb42" r="3"></circle><circle cx="46" cy="44" fill="#f6bb42" r="2"></circle><circle cx="46" cy="36" fill="#f6bb42" r="3"></circle><circle cx="46" cy="28" fill="#f6bb42" r="2"></circle><circle cx="38" cy="28" fill="#f6bb42" r="3"></circle><circle cx="26" cy="36" fill="#f6bb42" r="3"></circle><circle cx="26" cy="20" fill="#f6bb42" r="3"></circle><circle cx="38" cy="20" fill="#f6bb42" r="2"></circle><circle cx="38" cy="36" fill="#f6bb42" r="2"></circle><circle cx="10" cy="36" fill="#f6bb42" r="3"></circle><circle cx="10" cy="28" fill="#f6bb42" r="2"></circle><circle cx="18" cy="36" fill="#f6bb42" r="2"></circle><circle cx="26" cy="28" fill="#f6bb42" r="2"></circle><circle cx="26" cy="44" fill="#f6bb42" r="2"></circle><circle cx="18" cy="44" fill="#f6bb42" r="3"></circle><circle cx="10" cy="44" fill="#f6bb42" r="2"></circle><circle cx="18" cy="28" fill="#f6bb42" r="3"></circle><circle cx="18" cy="20" fill="#f6bb42" r="2"></circle><circle cx="10" cy="20" fill="#f6bb42" r="3"></circle></g><path d="M4 50h28v3H1V11h31v3H4z" fill="#656d78"></path></g></svg>