<svg viewBox="0 0 124.002 123.93" xmlns="http://www.w3.org/2000/svg"><g><g fill="#fec4b9"><path d="M115.083 105.09c-.43-.9-1.26-1.56-2.26-1.85a3.86 3.86 0 0 1-2.31-1.82c-.85-1.49-2.18-2.18-2.36-2.28a5.475 5.475 0 0 0-3.09-.53c-1.09.13-2.17-.21-3.02-.91-.23-.19-.51-.38-.83-.54-.4-.2-.8-.32-1.19-.38-1.28-.22-2.43-.99-2.91-2.21-.49-1.28-1.6-2.22-2.84-2.37-.96-.11-1.97.25-2.75.96-.93.86-2.14 1.33-3.39 1.13-1.31-.21-2.67.09-3.76.89a4.992 4.992 0 0 0-1.98 3.25c-.17.98-.77 1.86-1.61 2.4a5.126 5.126 0 0 0-1.81 2.01c-.54 1.09-1.63 1.74-2.82 2.01-.23.05-.46.13-.7.24-1.14.54-1.89 1.68-1.98 2.98h-7.93l2.31 8.92 1.8 6.94H118.903l1.8-6.94 2.31-8.92h-7.93c.099-.24.659-1.6 0-2.98zM98.143 87.71c-.15 1.36.47 2.54 1.38 2.64.9.1 1.76-.92 1.91-2.28.14-1.36-.47-2.55-1.38-2.65-.9-.1-1.761.93-1.91 2.29zM99.333 79.8c.33 1.32 1.31 2.23 2.2 2.01s1.34-1.47 1.01-2.8c-.32-1.33-1.31-2.23-2.19-2.02-.89.22-1.341 1.48-1.02 2.81zM101.502 71.51c.9.1 1.76-.92 1.91-2.28s-.47-2.54-1.38-2.64c-.9-.1-1.76.92-1.91 2.28-.14 1.36.471 2.55 1.38 2.64zM112.432 67.93c.89-.22 1.34-1.47 1.01-2.8-.32-1.33-1.31-2.23-2.19-2.02-.89.22-1.34 1.48-1.02 2.81.33 1.32 1.31 2.23 2.2 2.01zM87.752 58.71c.78.48 1.99-.08 2.71-1.25.71-1.16.66-2.49-.11-2.97-.78-.48-1.99.08-2.71 1.24-.71 1.17-.67 2.5.11 2.98zM103.192 0c-3.2.84-5.47 2.05-6.93 2.97-4.56 2.89-4.63 4.44-7.93 5.95-5.7 2.6-9.92-.58-11.85 1.99-1.74 2.33.36 6.75.95 7.93 1.49 2.95 2.98 3.65 4.95 5.95 5.39 6.26 1.85 9.87 6.94 15.86 2.78 3.27 5.86 4.58 5.95 7.93.04 1.8-.8 3.18 0 3.97 1.13 1.13 3.47-1.06 5.94 0 2.38 1.01 2.54 4.03 3.96 3.96 1.41-.06 1.89-3.05 2.98-2.97 1.35.09 1.53 4.8 2.97 4.95 1.19.13 1.45-3.02 3.96-3.96 1.7-.64 2.6.42 4.96 0 1.76-.31 3.09-1.23 3.96-1.98V0zM75.452 88.24c1.08-2.71 2.78-6.97.99-8.93-1.03-1.13-2.47-.65-3.96-.99-6.8-1.53-5.37-17.77-13.88-28.75-1.92-2.49-5.43-6.08-11.89-8.92-.93-1.78-3-5.14-6.93-7.93-4-2.84-7.92-3.68-9.91-3.97-.17 1.92-.21 5.03.89 8.59h-.01c-4.25-1.3-8.84-2.53-13.76-3.63-5.98-1.34-11.63-2.3-16.85-2.98v65.44a68.427 68.427 0 0 0 3.97 27.76h17.83c-.88-2.61-1.83-6.34-1.98-10.91-.13-4.02.4-7.42.99-9.91 2.42.12 6.48-.03 10.9-1.98 2.05-.91 3.7-2 4.96-2.98 4.98.47 10.27.82 15.85.99 5.56.18 10.86.16 15.85 0 3.831-4.17 5.84-8.15 6.94-10.9z" fill="#fec4b9"></path></g><path d="M112.112 119.96a1.985 1.985 0 0 1 0 3.97 1.985 1.985 0 0 1 0-3.97zM94.272 119.96c1.1 0 1.99.89 1.99 1.98 0 1.1-.89 1.99-1.99 1.99a1.985 1.985 0 0 1 0-3.97zM76.442 119.96a1.985 1.985 0 0 1 0 3.97c-1.1 0-1.98-.89-1.98-1.99 0-1.09.88-1.98 1.98-1.98z" fill="#ad6a6a"></path><path d="M94.272 123.93h-17.83a1.985 1.985 0 0 0 0-3.97c-1.1 0-1.98.89-1.98 1.98 0 1.1.88 1.99 1.98 1.99h-6.79l-1.8-6.94h52.85l-1.8 6.94h-6.79a1.985 1.985 0 0 0 0-3.97 1.985 1.985 0 0 0 0 3.97h-17.84c1.1 0 1.99-.89 1.99-1.99a1.985 1.985 0 1 0-1.99 1.99z" fill="#1ea6bc"></path><path d="m123.012 108.07-2.31 8.92h-52.85l-2.31-8.92h49.54z" fill="#604533"></path><g fill="#ffc05a"><path d="M115.082 108.07h-41.61c.09-1.3.84-2.44 1.98-2.98.24-.11.47-.19.7-.24 1.19-.27 2.28-.92 2.82-2.01a5.126 5.126 0 0 1 1.81-2.01c.84-.54 1.44-1.42 1.61-2.4.21-1.3.91-2.47 1.98-3.25 1.09-.8 2.45-1.1 3.76-.89 1.25.2 2.46-.27 3.39-1.13.78-.71 1.79-1.07 2.75-.96 1.24.15 2.35 1.09 2.84 2.37.48 1.22 1.63 1.99 2.91 2.21.39.06.79.18 1.19.38.32.16.6.35.83.54.85.7 1.93 1.04 3.02.91.87-.1 1.96-.03 3.09.53.18.1 1.51.79 2.36 2.28.5.89 1.33 1.54 2.31 1.82 1 .29 1.83.95 2.26 1.85.66 1.38.1 2.74 0 2.98zM100.052 85.42c.91.1 1.52 1.29 1.38 2.65-.15 1.36-1.01 2.38-1.91 2.28-.91-.1-1.53-1.28-1.38-2.64s1.01-2.39 1.91-2.29zM102.542 79.01c.33 1.33-.12 2.58-1.01 2.8s-1.87-.69-2.2-2.01c-.32-1.33.13-2.59 1.02-2.81.88-.21 1.87.69 2.19 2.02zM102.032 66.59c.91.1 1.53 1.28 1.38 2.64s-1.01 2.38-1.91 2.28c-.91-.09-1.52-1.28-1.38-2.64.15-1.36 1.01-2.38 1.91-2.28zM113.442 65.13c.33 1.33-.12 2.58-1.01 2.8s-1.87-.69-2.2-2.01c-.32-1.33.13-2.59 1.02-2.81.88-.21 1.87.69 2.19 2.02zM90.352 54.49c.77.48.82 1.81.11 2.97-.72 1.17-1.93 1.73-2.71 1.25s-.82-1.81-.11-2.98c.72-1.16 1.93-1.72 2.71-1.24z" fill="#ffc05a"></path></g><path d="M103.192 0c-3.2.84-5.47 2.05-6.93 2.97-4.56 2.89-4.63 4.44-7.93 5.95-5.7 2.6-9.92-.58-11.85 1.99-1.74 2.33.36 6.75.95 7.93 1.49 2.95 2.98 3.65 4.95 5.95 5.39 6.26 1.85 9.87 6.94 15.86 2.78 3.27 5.86 4.58 5.95 7.93.04 1.8-.8 3.18 0 3.97 1.13 1.13 3.47-1.06 5.94 0 2.38 1.01 2.54 4.03 3.96 3.96 1.41-.06 1.89-3.05 2.98-2.97 1.35.09 1.53 4.8 2.97 4.95 1.19.13 1.45-3.02 3.96-3.96 1.7-.64 2.6.42 4.96 0 1.76-.31 3.09-1.23 3.96-1.98V0z" fill="#d6b85a"></path><path d="M100.352 100.35c.89.2 1.35 1.45 1.04 2.79-.31 1.33-1.28 2.24-2.17 2.03s-1.36-1.46-1.04-2.79c.31-1.33 1.28-2.24 2.17-2.03zM87.472 99.35c.89.21 1.35 1.46 1.04 2.79-.31 1.34-1.28 2.25-2.17 2.04s-1.36-1.46-1.04-2.79c.31-1.33 1.28-2.24 2.17-2.04z" fill="#ef9d26"></path><path d="m97.042 17.03-5.1-.31c-.51-.28-1.27-.79-1.95-1.65a6.727 6.727 0 0 1-1.35-3.16c.38-.14 2.71-.95 5.11.31 2.81 1.48 3.25 4.53 3.29 4.81z" fill="#4aaf8f"></path><path d="m91.942 16.72 5.1.31c-.04.26-.36 2.35-2.26 3.45-1.56.9-3.56.78-5.1-.31a6.474 6.474 0 0 1 2.26-3.45z" fill="#6fceae"></path><path d="M52.662 70.39c1.64 0 2.97 1.33 2.97 2.98a2.97 2.97 0 0 1-5.94 0c0-1.65 1.33-2.98 2.97-2.98zM123.012 108.07l-2.31 8.92h-22.17c10.51-1.94 19.76-4.81 19.78-8.92z" fill="#543927"></path><path d="M98.533 116.99c-7.75 1.42-16.19 2.34-22.1 2.88-4.61.41-7.68.59-7.68.59l.9 3.47h6.79c-1.1 0-1.98-.89-1.98-1.99 0-1.09.88-1.98 1.98-1.98a1.985 1.985 0 0 1 0 3.97h17.83a1.985 1.985 0 1 1 .009-3.971 1.985 1.985 0 0 1-.009 3.971h17.84a1.985 1.985 0 0 1 0-3.97 1.985 1.985 0 0 1 0 3.97h6.79l1.8-6.94z" fill="#1498b7"></path><g fill="#f7b6ad"><path d="M2.002 116.99c.63 2.56 1.36 4.87 2.11 6.94h17.83c-.88-2.61-1.83-6.34-1.98-10.91-.13-4.02.4-7.42.99-9.91-12.989 20.19-18.95 13.88-18.95 13.88zM31.852 101.13c2.05-.91 3.7-2 4.96-2.98-.97-1.34-2.01-2.99-2.98-4.96-.88-1.8-1.52-3.48-1.98-4.95-6.82 2.91-9.91.99-9.91.99-.43 2-.8 4.33-.99 6.94-.18 2.58-.14 4.92 0 6.94 2.42.12 6.48-.03 10.9-1.98z" fill="#f7b6ad"></path></g><g fill="#f7b6ad"><path d="M32.216 38.242a1.001 1.001 0 0 0-1.903.617c.895 2.758 1.731 3.952 2.7 5.334a.996.996 0 0 0 1.393.245 1 1 0 0 0 .245-1.393c-.912-1.301-1.632-2.33-2.435-4.803zM40.737 42.334a14.458 14.458 0 0 0-2.126-4.252 14.614 14.614 0 0 0-3.198-3.199 1 1 0 1 0-1.18 1.614 12.475 12.475 0 0 1 4.595 6.429 1.001 1.001 0 0 0 1.251.66 1 1 0 0 0 .658-1.252z" fill="#f7b6ad"></path></g><path d="M96.835 55.69a1.002 1.002 0 0 0-1.393.247 57.64 57.64 0 0 0-6.055 11.104 57.965 57.965 0 0 0-4.03 16.139 1 1 0 0 0 1.99.202 55.95 55.95 0 0 1 3.89-15.581 55.605 55.605 0 0 1 5.845-10.717 1.002 1.002 0 0 0-.247-1.394z" fill="#e7f2f1"></path><path d="M99.546 57.541a1 1 0 0 0-1.263.636 99.916 99.916 0 0 0-4 17.028 98.958 98.958 0 0 0-1.01 12.021.999.999 0 0 0 .975 1.024h.025a1 1 0 0 0 .999-.976c.102-4.071.425-7.924.99-11.782a97.85 97.85 0 0 1 3.92-16.688 1 1 0 0 0-.636-1.263z" fill="#d6eae8"></path><path d="M108.155 60.604a1 1 0 1 0-1.985-.249c-.501 3.988-.84 8.017-1.007 11.975a148.627 148.627 0 0 0 0 11.98 1 1 0 0 0 .999.959l.042-.001a.999.999 0 0 0 .958-1.04 146.404 146.404 0 0 1 0-11.816c.164-3.901.498-7.874.993-11.808z" fill="#c3ddda"></path><g fill="#604533"><path d="M122.983 43.3c-1.075-2.54-4.535-3.578-8.229-2.468a1 1 0 0 0-.633 1.349l1.72 4.04a1 1 0 1 0 1.84-.784l-1.253-2.946c2.216-.364 4.146.248 4.715 1.592.318.74.139 1.506-.066 2.019-.576 1.436-2.04 2.769-3.917 3.567-1.507.644-3.074.861-4.411.61-1.188-.222-2.033-.788-2.377-1.595-.373-.871-.126-1.994.676-3.083a1 1 0 1 0-1.61-1.186c-1.234 1.674-1.564 3.518-.905 5.056.615 1.44 1.981 2.425 3.849 2.774.48.09.98.134 1.492.134 1.323 0 2.726-.296 4.071-.871 2.354-1.001 4.22-2.745 4.989-4.663.497-1.236.513-2.465.049-3.545zM112.022 35.198a.999.999 0 1 0-1.499 1.323 6.031 6.031 0 0 0 1.963 1.472l-1.306.557a1 1 0 0 0 .785 1.84l7.36-3.14a1 1 0 0 0-.782-1.841l-1.945.822a3.995 3.995 0 0 1-4.576-1.033zM110.848 33.637c.627 0 1.271-.126 1.891-.384 1.593-.663 2.693-2.042 2.875-3.604.006-.03.01-.06.013-.091.169-1.726-.488-3.076-1.112-3.949l.011-.007a1 1 0 1 0-1.046-1.704l-1.01.62-.001.001h-.001l-5.53 3.41a1.015 1.015 0 0 0-.475.821c-.029.75.082 2.636 1.655 3.91a.919.919 0 0 0 .103.094c.736.583 1.661.883 2.627.883zm1.964-6.981c.437.572.934 1.5.828 2.677a1.032 1.032 0 0 0-.01.075c-.114 1.012-.931 1.695-1.659 1.998-.707.295-1.737.392-2.434-.155a.968.968 0 0 0-.094-.087c-.679-.552-.898-1.295-.961-1.837zM113.572 21.208a1 1 0 0 0-1.313-.527l-7.36 3.14a1 1 0 0 0 .785 1.84l7.36-3.14a1 1 0 0 0 .528-1.313zM99.457 23.807l-.009.004a2.802 2.802 0 0 0-1.475 3.672 2.8 2.8 0 0 0 3.665 1.469 2.745 2.745 0 0 0 1.495-1.514 2.775 2.775 0 0 0-.021-2.152 2.81 2.81 0 0 0-3.655-1.479zm1.822 2.881a.764.764 0 0 1-.417.422.791.791 0 0 1-1.05-.414.8.8 0 0 1 .42-1.045.806.806 0 0 1 1.042.423.793.793 0 0 1 .005.614zM111.704 19.36a1 1 0 1 0-.784-1.84l-4.823 2.058c-.463-.277-1.203-.857-1.477-1.849l-.009-.035c-.199-.785.271-1.643 1.092-1.994l3.76-1.6a1 1 0 0 0-.783-1.841l-3.761 1.601c-1.72.735-2.686 2.595-2.246 4.326a.737.737 0 0 0 .014.056c.265.974.792 1.693 1.332 2.222l-.461.197a1 1 0 1 0 .788 1.837zM99.565 12.58a3.17 3.17 0 0 0 1.77.539c.598 0 1.202-.167 1.745-.505.14-.096.348-.249.551-.468.934-1.021.746-2.341.608-3.304-.058-.404-.154-1.08-.03-1.195.191-.176.924-.161 1.351.172.488.369.632 1.314.013 2.199a1 1 0 0 0 1.639 1.147c1.182-1.688.986-3.859-.434-4.931-1.041-.813-2.865-1.03-3.925-.056-.896.83-.729 2.004-.594 2.948.116.814.172 1.37-.101 1.667a1.13 1.13 0 0 1-.174.15 1.213 1.213 0 0 1-1.291-.012 1.15 1.15 0 0 1-.336-.351c-.242-.417-.18-.979.157-1.432a1 1 0 0 0-1.605-1.193c-.814 1.095-.925 2.519-.275 3.641.235.389.535.709.931.984z" fill="#604533"></path></g></g></svg>