<svg viewBox="0 0 512 512" xmlns="http://www.w3.org/2000/svg"><g><path d="M347.117 512V407.863c.004-54.554-42.105-99.863-96.515-103.855H131.21c-54.402 4-96.5 49.305-96.5 103.855V512zm0 0" fill="#a09f73"></path><path d="M295.05 451.254h52.067v34.71h-52.066zm0 0" fill="#cecca3"></path><path d="M295.05 512v-17.355c23.141-24.297 23.141-62.48 0-86.782v-90.12a103.442 103.442 0 0 0-44.448-13.735h-24.973v25.754c0 19.172-15.543 34.715-34.715 34.715-19.168 0-34.71-15.543-34.71-34.715v-25.754H131.21a103.236 103.236 0 0 0-44.43 13.746v90.11c-23.14 24.3-23.14 62.484 0 86.78V512zm0 0" fill="#59593d"></path><path d="M112.813 347.117h17.355v34.715h-17.356zm0 0" fill="#a09f73"></path><path d="M17.355 399.188h17.356v86.777H0v-69.422c0-9.586 7.77-17.356 17.355-17.356zm0 0" fill="#7c7b62"></path><path d="M34.71 399.188H17.356C7.77 399.188 0 406.957 0 416.543v17.355h34.71zm0 0" fill="#59593d"></path><path d="M381.832 485.965h-34.715v-86.777h17.356c9.586 0 17.359 7.769 17.359 17.355zm0 0" fill="#7c7b62"></path><path d="M347.117 399.188h17.36c9.582 0 17.355 7.769 17.355 17.355v17.355h-34.715zm0 0" fill="#59593d"></path><path d="M121.492 442.578h69.422v34.711h-69.422zm0 0" fill="#cecca3"></path><path d="M121.492 477.29h69.422V512h-69.422zm0 0" fill="#7c7b62"></path><path d="M190.914 442.578h69.426v34.711h-69.426zm0 0" fill="#cecca3"></path><path d="M190.914 477.29h69.426V512h-69.426zm0 0" fill="#7c7b62"></path><path d="M182.238 442.578h17.356V512h-17.356zM301.68 416.543a63.184 63.184 0 0 0-6.63-8.68v-8.675h-95.456V363.25a31.358 31.358 0 0 1-17.356 0v35.938H86.781v8.675a63.285 63.285 0 0 0-6.633 8.68zm0 0" fill="#40402c"></path><path d="M312.406 416.543h-34.71l-8.68-52.066h52.07zm0 0" fill="#333333"></path><path d="M60.746 138.848h260.34v52.066H60.746zm0 0" fill="#3d3430"></path><path d="M303.73 164.883h8.676c14.38 0 26.035 11.656 26.035 26.031 0 14.379-11.656 26.035-26.035 26.035h-8.676zM78.102 216.95h-8.68c-14.375 0-26.031-11.657-26.031-26.036 0-14.375 11.656-26.031 26.03-26.031h8.68zm0 0" fill="#cc9c72"></path><path d="M303.73 156.203v52.067c0 62.308-50.507 112.816-112.816 112.816-62.305 0-112.812-50.508-112.812-112.816v-52.067zm0 0" fill="#f2c09a"></path><g fill="#a67c52"><path d="M190.914 260.34h-8.676a8.68 8.68 0 0 1-8.68-8.68c0-4.793 3.887-8.676 8.68-8.676h8.676V225.63a8.68 8.68 0 0 1 17.36 0v17.355c-.004 9.586-7.774 17.356-17.36 17.356zM164.883 208.27h-34.715c-4.79 0-8.676-3.883-8.676-8.676s3.883-8.68 8.676-8.68h34.715c4.793 0 8.676 3.887 8.676 8.68s-3.883 8.676-8.676 8.676zM251.66 208.27h-34.71c-4.794 0-8.68-3.883-8.68-8.676s3.886-8.68 8.68-8.68h34.71c4.793 0 8.68 3.887 8.68 8.68s-3.887 8.676-8.68 8.676zM156.203 225.629a8.679 8.679 0 0 1-17.355 0 8.68 8.68 0 0 1 8.68-8.68c4.788 0 8.675 3.887 8.675 8.68zM242.984 225.629c0 4.789-3.886 8.676-8.68 8.676a8.676 8.676 0 0 1-8.675-8.676c0-4.793 3.883-8.68 8.676-8.68a8.68 8.68 0 0 1 8.68 8.68zM199.594 295.05h-17.356a8.68 8.68 0 0 1-8.68-8.679c0-4.793 3.887-8.676 8.68-8.676h17.356a8.674 8.674 0 0 1 8.676 8.676c0 4.793-3.883 8.68-8.676 8.68zm0 0" fill="#a67c52"></path></g><path d="M215.023 155.484a86.78 86.78 0 0 0 62.672 26.754h26.035v-26.754zM208.27 154.164v28.074h-4.583a62.783 62.783 0 0 1-52.316-28.074zM144.254 153.29a62.791 62.791 0 0 1-52.89 28.948H78.101V153.29zm0 0" fill="#534741"></path><path d="M298.227 242.984H260.34l-8.68 26.032h34.219a112.141 112.141 0 0 0 12.348-26.032zM83.605 242.984h37.887l8.676 26.032H95.953a112.141 112.141 0 0 1-12.348-26.032zm0 0" fill="#59593d"></path><path d="m328.46 120.426 1.302 9.742 12.508 31.242a16.097 16.097 0 0 1-6.016 19.371c-7.406 4.926-17.402 2.922-22.332-4.484-.367-.55-.7-1.121-.996-1.715l-9.196-18.379H78.102l-9.2 18.406c-3.98 7.953-13.66 11.172-21.613 7.192-.59-.297-1.16-.63-1.71-.996a16.085 16.085 0 0 1-6.017-19.368l12.504-31.269 1.305-9.742C62.56 51.484 121.367 0 190.914 0c69.55 0 128.356 51.484 137.547 120.426zm0 0" fill="#a09f73"></path><path d="M130.168 52.066h34.715L182.098.406A138.67 138.67 0 0 0 70.387 70.145l33.75 25.312zM208.27 60.746l-17.356 26.035h-34.71l-17.356 34.711h78.101l26.035-17.355h34.711l25.383-46.864a139.144 139.144 0 0 0-43.27-38.859l-16.824 33.652zm0 0" fill="#59593d"></path></g></svg>