<svg viewBox="0 0 512 512" xmlns="http://www.w3.org/2000/svg"><g><path d="M251.539 161a7.612 7.612 0 0 1-1.691-.19c-17.71-4.018-33.784-14.051-45.261-28.25-11.651-14.414-18.068-32.578-18.068-51.146C186.518 36.522 223.041 0 267.932 0c44.892 0 81.414 36.522 81.414 81.414 0 18.568-6.417 36.732-18.068 51.146-11.477 14.199-27.551 24.232-45.261 28.25a7.607 7.607 0 0 1-9.107-5.738 7.611 7.611 0 0 1 5.738-9.107c30.308-6.878 51.475-33.422 51.475-64.551 0-36.498-29.693-66.191-66.191-66.191s-66.191 29.693-66.191 66.191c0 31.129 21.167 57.674 51.475 64.551A7.612 7.612 0 0 1 251.539 161z" fill="#d3e1f5"></path><path d="m283.694 102.184-15.762-15.762-15.762 15.762v63.049h31.524zM126.353 166.865h-22.291v22.291l35.697 35.697 22.291-22.291z" fill="#82aee3"></path><circle cx="267.932" cy="330.735" fill="#b2caec" r="181.265"></circle><circle cx="267.932" cy="330.735" fill="#ffffff" r="149.74"></circle><path d="M157.597 338.347h-7.881c-4.204 0-7.611-3.408-7.611-7.612s3.408-7.612 7.611-7.612h7.881c4.204 0 7.611 3.408 7.611 7.612s-3.407 7.612-7.611 7.612z" fill="#0055a3"></path><path d="M313.756 188.137c38.312 27.121 63.322 71.79 63.322 122.301 0 82.699-67.041 149.74-149.74 149.74-15.983 0-31.381-2.505-45.824-7.142 24.414 17.283 54.23 27.44 86.419 27.44 82.699 0 149.74-67.041 149.74-149.74 0-66.717-43.632-123.241-103.917-142.599z" fill="#eaf9fa"></path><path d="M363.044 512H172.82c-8.407 0-15.223-6.816-15.223-15.223V306.553c0-8.407 6.816-15.223 15.223-15.223h63.588l31.524 15.762 31.524-15.762h63.588c8.407 0 15.223 6.816 15.223 15.223v190.224c0 8.407-6.815 15.223-15.223 15.223z" fill="#fea95c"></path><path d="M291.169 102.184h-46.474a8.288 8.288 0 0 1-8.288-8.288V63.185a8.288 8.288 0 0 1 8.288-8.288h46.474a8.288 8.288 0 0 1 8.288 8.288v30.711a8.288 8.288 0 0 1-8.288 8.288z" fill="#c0d6f2"></path><path d="M131.825 161.393 98.59 194.628a8.024 8.024 0 0 1-11.347 0l-22.09-22.09a8.024 8.024 0 0 1 0-11.347l33.236-33.236a8.024 8.024 0 0 1 11.347 0l22.09 22.09a8.026 8.026 0 0 1-.001 11.348z" fill="#0055a3"></path><path d="M260.321 54.898h15.223v47.286h-15.223z" fill="#b2caec"></path><path d="m120.59 172.628-33.437-33.436-10.764 10.764 33.437 33.436z" fill="#004281"></path><g fill="#0055a3"><path d="M267.932 235.893a7.612 7.612 0 0 1-7.612-7.611V212.52c0-4.204 3.408-7.611 7.612-7.611s7.611 3.408 7.611 7.611v15.762a7.61 7.61 0 0 1-7.611 7.611zM195.486 265.901a7.587 7.587 0 0 1-5.382-2.229l-11.145-11.145a7.612 7.612 0 0 1 10.764-10.764l11.145 11.145a7.61 7.61 0 0 1-5.382 12.993zM340.378 265.901a7.61 7.61 0 0 1-5.382-12.993l11.145-11.145a7.612 7.612 0 0 1 10.764 10.764l-11.145 11.145a7.587 7.587 0 0 1-5.382 2.229z" fill="#0055a3"></path></g><path d="M386.148 338.347h-7.881a7.612 7.612 0 1 1 0-15.224h7.881c4.204 0 7.611 3.408 7.611 7.612s-3.407 7.612-7.611 7.612z" fill="#004281"></path><path d="M267.932 312.512a7.612 7.612 0 0 1-7.612-7.612v-45.095a7.612 7.612 0 1 1 15.223 0V304.9a7.61 7.61 0 0 1-7.611 7.612z" fill="#fd4755"></path><path d="M363.044 291.33h-25.372v149.629c0 28.025-22.719 50.743-50.743 50.743H157.597v5.074c0 8.407 6.816 15.223 15.223 15.223h190.224c8.407 0 15.223-6.816 15.223-15.223V306.553c0-8.407-6.815-15.223-15.223-15.223z" fill="#fe9738"></path><path d="M294.382 338.616h-52.9a5.074 5.074 0 0 1-5.074-5.074V291.33h63.049v42.212a5.075 5.075 0 0 1-5.075 5.074z" fill="#fedbbd"></path><path d="M341.669 480.476h-37.138a5.074 5.074 0 0 1-5.074-5.074v-21.376a5.074 5.074 0 0 1 5.074-5.074h37.138a5.074 5.074 0 0 1 5.074 5.074v21.376a5.074 5.074 0 0 1-5.074 5.074z" fill="#ffffff"></path><path d="M318.765 480.476h22.904a5.074 5.074 0 0 0 5.074-5.074v-21.376a5.074 5.074 0 0 0-5.074-5.074h-4.623c-2.007 12.685-8.714 23.806-18.281 31.524z" fill="#eaf9fa"></path></g></svg>