<svg viewBox="0 0 50 50" xmlns="http://www.w3.org/2000/svg"><g><path d="M29 38.5c2.7 0 5-2.1 5-4.7 0-4.9-4-5.7-8.9-5.7s-8.9.8-8.9 5.7c0 2.6 2.3 4.7 5 4.7z" fill="#e5e5e5"></path><path d="M33.9 33.7c0 2.7-2.3 4.8-5 4.8H21c-2.7 0-4.9-2.1-5-4.7 0-4.9 4-5.7 8.9-5.7.7 0 1.5 0 2.1.1.8.1 1.5.1 2.1.3 2.9.4 4.8 1.9 4.8 5.2z" fill="#616b77"></path><path d="M23.4 23.2s-.4 4.9-.4 5.4c0 1.1.9 2 2.1 2s2.1-.9 2.1-2c0-.5-.4-5.4-.4-5.4z" fill="#d9baa8"></path><path d="M31.8 21.1c-.3.9-.9 1.4-2 1.1-1-.3-2.1-1.3-1.8-2.3.3-.9 2.1-1.3 3.2-1s.9 1.2.6 2.2zM18.2 21.1c.3.9.9 1.4 2 1.1 1-.3 2.1-1.3 1.8-2.3-.3-.9-2.1-1.3-3.2-1s-.9 1.2-.6 2.2z" fill="#c9a28f"></path><path d="M30.2 18.3c0 3.7-1.5 8.4-5.2 8.4s-5.2-4.7-5.2-8.4 1.5-5.1 5.2-5.1 5.2 1.3 5.2 5.1z" fill="#e8cec1"></path><path d="M17 16.9c3.4-1 2.8-7.3 6.1-4.5 2.1 1.8-2.4 7.5-6.1 4.5z" fill="#894d47"></path><path d="M30.4 18.6c-2.5-3.8-9.4-.4-7.6-5.7 1.2-3.4 9.5-.2 7.6 5.7z" fill="#894d47"></path><path d="m24.3 30.6-1 5.2 1.6 1.1 1.6-1.1-.9-5.2z" fill="#fa4968"></path><path d="m29.3 28.4-2.2 3.9-2.1-1.7 2.1-2.5c.8.1 1.5.1 2.2.3zM20.7 28.4l2.2 3.9 2.1-1.6-2.1-2.5c-.8 0-1.5 0-2.2.2z" fill="#ddedeb"></path><path d="M44.1 25c0-2.3 1.6-4.3 4.2-5.5-.6-2.6-1.6-5-3-7.2-2.7.9-5.2.7-6.8-.9s-1.8-4.2-.9-6.8c-2.2-1.4-4.6-2.4-7.2-3-1.2 2.5-3.2 4.2-5.5 4.2s-4.2-1.7-5.5-4.2c-2.6.6-5 1.6-7.2 3 .9 2.7.7 5.3-.9 6.9s-4.2 1.9-6.8.9c-1.4 2.2-2.4 4.6-2.9 7.2 2.5 1.2 4.2 3.3 4.2 5.5 0 2.3-1.6 4.3-4.2 5.5.6 2.6 1.6 5 3 7.2 2.7-.9 5.2-.7 6.8.9s1.8 4.2.9 6.9c2.2 1.4 4.6 2.4 7.2 3 1.2-2.5 3.2-4.2 5.5-4.2s4.2 1.7 5.5 4.2c2.6-.6 5-1.6 7.2-3-.9-2.6-.7-5.2.9-6.8s4.1-1.8 6.8-.9c1.3-2.2 2.4-4.6 3-7.2-2.6-1.4-4.3-3.4-4.3-5.7zM25 39.6c-8.1 0-14.6-6.6-14.6-14.6 0-8.1 6.6-14.6 14.6-14.6S39.7 16.9 39.7 25 33.1 39.6 25 39.6z" fill="#559aff"></path></g></svg>