<svg id="Capa_1" enable-background="new 0 0 512 512" height="512" viewBox="0 0 512 512" width="512" xmlns="http://www.w3.org/2000/svg"><g><path d="m255.96 76.079s-46.761-60.771-112.065-60.771c-31.334 0-63.114 8.873-88.02 27.877-36.805 28.082-59.238 77.088-48.241 142.498 5.748 34.213 29.82 67.756 59.727 101.032l2.577 3.141 197.523 186.9c10.945 10.955 22.543 10.035 39.329 3.79.392-.352.776-.716 1.153-1.093 5.666-5.666 8.489-13.083 8.489-20.501s-2.823-14.835-8.489-20.501l14.431 11.035c12.516 12.516 26.918 11.788 44.633 3.175.2-.19.398-.384.595-.58 6.356-6.356 9.529-14.68 9.529-23.015s-3.173-16.658-9.529-23.015l6.757 3.875c16.157 6.814 28.015 11.157 44.699 2.706.198-.189.395-.38.589-.575 6.356-6.356 9.529-14.691 9.529-23.015s-3.173-16.658-9.529-23.015l-5.841-5.831c14.665 7.397 24.982 7.334 45.275.4.198-.189.395-.38.59-.575 6.346-6.356 9.529-14.68 9.529-23.015s-3.183-16.658-9.529-23.015c0 0-6.902-6.902-17.132-17.132z" fill="#ffdcd0"/><g fill="#ffc7b6"><path d="m306.79 480.544c-11.394 10.23-28.918 9.859-39.858-1.092l-.34-.34-14.371-14.361-45.916-33.373-142.642-139.875c-4.645-5.727-8.865-10.022-15.113-17.75-23.622-28.938-41.012-59.133-45.926-88.381-11.116-66.118 14.299-114.331 53.251-142.188-26.198 28.722-40.765 70.219-31.854 123.233 5.066 30.143 23.378 61.294 48.129 91.033.927 1.114 2.395 1.638 3.816 1.35 3.427-.694 6.949-1.046 10.527-1.046 14.145 0 27.434 5.501 37.437 15.505 3.64 3.649 6.687 7.727 9.09 12.131.868 1.591 2.673 2.402 4.436 1.982 3.994-.951 8.129-1.442 12.342-1.442 14.145 0 27.434 5.512 37.437 15.515 8.156 8.147 13.314 18.491 14.946 29.702.239 1.645 1.469 2.961 3.093 3.312 9.831 2.128 18.859 7.016 26.136 14.293 10.003 10.003 15.515 23.303 15.515 37.437 0 3.376-.319 6.704-.933 9.952-.33 1.745.518 3.487 2.099 4.295 4.881 2.494 9.391 5.756 13.38 9.736 11.048 11.048 16.182 25.804 15.403 40.289-.064 1.195.372 2.363 1.245 3.182z"/><path d="m350.857 344.448 68.193 68.176c-12.754 12.146-32.925 11.95-45.432-.567l-6.016-6.006-39.173-39.173c-6.194-6.194-6.194-16.235 0-22.429 6.194-6.193 16.234-6.193 22.428-.001z"/><path d="m459.074 360.588c-12.661 12.053-32.657 11.95-45.184-.309l-39.43-39.43c-6.194-6.194-6.194-16.235 0-22.429 6.193-6.193 16.233-6.194 22.427-.002z"/><path d="m304.828 390.48 62.177 62.177c-12.754 12.136-32.915 11.94-45.432-.577l-13.496-13.485c.051.041.093.083.124.134l-25.811-25.811c-6.194-6.194-6.194-16.235 0-22.429l.009-.009c6.194-6.193 16.236-6.193 22.429 0z"/></g><g><path d="m184.426 441.48 6.171-11.411 10.565-5.324c12.632-12.632 33.112-12.632 45.743 0 1.323 1.323 2.497 2.74 3.543 4.218 5.542 15.416 3.879 26.331-7.429 37.64l-16.735 16.735c-12.632 12.632-25.285 12.837-37.917.205-10.337-10.337-16.15-22.245-9.569-34.491 1.461-2.72 3.333-5.277 5.628-7.572z" fill="#d5877a"/><path d="m256.372 447.619c0 8.283-3.152 16.555-9.468 22.87l-16.73 16.73c-12.64 12.63-33.121 12.63-45.751 0-6.315-6.315-9.478-14.587-9.478-22.87 0-5.275 1.277-10.539 3.853-15.298.824 1.071 1.741 2.112 2.72 3.091 12.63 12.63 33.111 12.63 45.741 0l23.19-23.179c3.955 5.573 5.923 12.115 5.923 18.656z" fill="#c86f5c"/></g><g><path d="m47.201 304.255 16.735-16.735c12.632-12.632 33.112-12.632 45.743 0 1.323 1.323 2.497 2.74 3.543 4.218 5.542 15.416 3.879 26.331-7.429 37.64l-16.735 16.735c-12.632 12.632-25.285 12.837-37.917.205-10.337-10.337-16.15-22.245-9.569-34.491 1.462-2.72 3.334-5.277 5.629-7.572z" fill="#d5877a"/><path d="m119.147 310.394c0 8.283-3.152 16.555-9.468 22.87l-1.401 14.777-15.33 1.953c-12.64 12.63-33.121 12.63-45.751 0-6.315-6.315-9.478-14.587-9.478-22.87 0-5.275 1.277-10.539 3.853-15.298.824 1.071 1.741 2.112 2.72 3.091 12.63 12.63 33.111 12.63 45.741 0l23.19-23.179c3.956 5.572 5.924 12.114 5.924 18.656z" fill="#c86f5c"/></g><path d="m502.71 186.458c-5.759 34.264-27.023 62.469-57.012 95.796-1.597 1.772-26.924-9.142-26.924-9.142-27.666-27.634-59.562-59.449-61.679-61.378-4.461-4.389-10.446-7.057-16.514-8.571-17.575-4.368-38.2-14.145-61.699-36.634-.682-.653-1.423-1.206-2.204-1.66-4.653-2.707-13.121-5.414-16.852-1.197l-35.274 41.249c-.927 1.041-1.442 2.4-1.442 3.801l-.031 2.266c-.041 14.443-6.036 25.351-15.514 34.808-9.478 9.468-15.808 15.095-30.251 15.126-6.377.01-11.559-5.161-11.559-11.538l-3.11-10.319v-38.272c0-14.062 5.233-27.63 14.691-38.055l78.625-86.66s42.784-60.771 112.075-60.771c33.633 0 66.959 10.492 93.068 30.659 30.353 35.201 52.363 76.517 41.606 140.492z" fill="#d5877a"/><path d="m276.677 164.871c-4.646-2.71-10.735-1.896-14.464 2.318l-34.151 38.663c-.927 1.041-1.442 2.4-1.442 3.801l-.031 2.266c-.041 14.443-5.913 27.517-15.391 36.974-9.478 9.468-22.551 15.329-36.994 15.36-6.377.01-11.559-5.161-11.559-11.538v-13.65c9.55-2.287 18.09-7.191 24.817-13.908 9.478-9.457 15.35-22.531 15.391-36.974l.031-2.266c0-1.401.515-2.761 1.442-3.801l34.151-38.663c4.358-4.924 11.919-5.203 16.669-.659 8.582 8.201 15.432 15.68 21.531 22.077z" fill="#c86f5c"/><path d="m509.296 185.372c-5.759 34.264-28.629 69.837-58.618 103.164-1.597 1.772-5.007 5.233-8.138 8.324-6.799-6.799-15.072-15.061-23.767-23.746 4.316-4.358 7.644-7.726 8.169-8.314 29.989-33.327 52.859-68.9 58.618-103.164 8.159-48.522-2.751-87.402-24.457-115.671 36.552 28.218 58.948 75.432 48.193 139.407z" fill="#c86f5c"/><g><path d="m138.688 395.742 12.932-19.63 20.244-13.546c12.632-12.632 33.112-12.632 45.743 0 1.323 1.323 2.497 2.74 3.543 4.218 5.542 15.416 3.879 26.331-7.429 37.64l-33.176 33.176c-12.632 12.632-25.285 12.837-37.917.205-10.337-10.337-16.15-22.245-9.569-34.491 1.462-2.72 3.334-5.278 5.629-7.572z" fill="#d5877a"/><path d="m227.074 385.44c0 8.283-3.152 16.555-9.468 22.87l-33.171 33.171c-12.64 12.63-33.121 12.63-45.751 0-6.315-6.315-9.478-14.587-9.478-22.87 0-5.275 1.277-10.539 3.853-15.298.824 1.071 1.741 2.112 2.72 3.091 12.63 12.63 33.111 12.63 45.741 0l39.63-39.62c3.956 5.572 5.924 12.114 5.924 18.656z" fill="#c86f5c"/></g><g><path d="m92.944 349.998 33.176-33.176c12.632-12.632 33.112-12.632 45.743 0 1.323 1.323 2.497 2.74 3.543 4.218 5.542 15.416 3.879 26.331-7.429 37.64l-33.176 33.176c-12.632 12.632-25.285 12.837-37.917.205-10.337-10.337-16.15-22.245-9.569-34.491 1.462-2.72 3.334-5.277 5.629-7.572z" fill="#d5877a"/><path d="m181.331 339.697c0 8.283-3.152 16.555-9.468 22.87l-33.171 33.171c-12.64 12.63-33.121 12.63-45.751 0-6.315-6.315-9.478-14.587-9.478-22.87 0-5.275 1.277-10.539 3.853-15.298.824 1.071 1.741 2.112 2.72 3.091 12.63 12.63 33.111 12.63 45.741 0l39.63-39.62c3.956 5.572 5.924 12.114 5.924 18.656z" fill="#c86f5c"/></g></g></svg>