<svg viewBox="0 0 56 56" xmlns="http://www.w3.org/2000/svg"><g><path d="M43.98 42.27v8.46c0 .7-.57 1.27-1.27 1.27H6.39c-.7 0-1.27-.57-1.27-1.27v-8.46c0-3.47 2.35-6.51 5.71-7.38l6.94-1.81a2.846 2.846 0 0 0 2.13-2.76v-5.1h9.31v5.1c0 1.3.88 2.43 2.13 2.76l6.94 1.81c3.36.87 5.7 3.91 5.7 7.38z" fill="#ffcc99"></path><path d="M33.77 42.83c-1.63-2.23-1.42-5.17.48-6.56s4.77-.71 6.4 1.51c1.64 2.24 1.43 5.19-.47 6.58-1.9 1.4-4.77.71-6.41-1.53zm.57-.42c1.39 1.9 3.81 2.5 5.39 1.34s1.73-3.65.34-5.55c-1.39-1.89-3.8-2.49-5.38-1.33-1.58 1.17-1.73 3.65-.35 5.54z" fill="#f92626"></path><g fill="#f92626"><path d="M35.07 41.88c1.03 1.4 2.82 1.84 4.01.98 1.18-.87 1.3-2.71.27-4.11s-2.82-1.83-4-.96c-1.18.85-1.31 2.69-.28 4.09z" fill="#f92626" opacity=".5"></path><path d="M36.01 41.2c.58.79 1.59 1.04 2.26.55s.73-1.53.15-2.32-1.59-1.03-2.25-.54-.74 1.52-.16 2.31z" fill="#f92626" opacity=".5"></path></g><g fill="#eaaf7f"><path d="M36.19 48.26c-1.27 1.51-2.95 2.74-4.87 3.35-1.92.62-4.09.51-5.87-.37.96.24 1.93.38 2.89.36s1.92-.17 2.83-.47c1.84-.57 3.48-1.65 5.02-2.87zM12.91 48.26c1.27 1.51 2.95 2.74 4.87 3.35 1.92.62 4.09.51 5.87-.37-.96.24-1.93.38-2.89.36s-1.92-.17-2.83-.47c-1.83-.57-3.47-1.65-5.02-2.87z" fill="#eaaf7f"></path></g><g fill="#eaaf7f"><path d="M35.57 45.89h1.24V52h-1.24zM12.29 45.89h1.24V52h-1.24z" fill="#eaaf7f"></path></g><path d="M18.23 32.91c-.15.07-.3.12-.47.17l-6.94 1.81a7.637 7.637 0 0 0-5.71 7.38v8.46c0 .7.57 1.27 1.27 1.27h11.84V32.91z" fill="#ffffff" opacity=".15"></path><path d="M43.99 42.27v8.46c0 .69-.57 1.26-1.27 1.26h-3.36v-9.72c0-3.47-2.34-6.51-5.7-7.38l-6.94-1.81a2.867 2.867 0 0 1-2.14-2.77v-5.1h4.64v5.1c0 1.3.87 2.44 2.14 2.77l6.93 1.81c3.34.88 5.7 3.91 5.7 7.38z" fill="#000000" opacity=".05"></path><path d="M14.56 21.32v-7.33c0-5.52 4.47-9.99 9.99-9.99 5.52 0 9.99 4.47 9.99 9.99v7.33z" fill="#333333"></path><path d="M19.01 5.68a9.975 9.975 0 0 0-4.45 8.31v7.33h4.45z" fill="#ffffff" opacity=".1"></path><g fill="#fc9"><path d="M35.74 20.63c0 1.43-1.14 2.57-2.55 2.57s-2.57-1.14-2.57-2.57c0-1.41 1.16-2.55 2.57-2.55s2.55 1.14 2.55 2.55zM18.48 20.63c0 1.43-1.14 2.57-2.55 2.57s-2.57-1.14-2.57-2.57c0-1.41 1.16-2.55 2.57-2.55s2.55 1.14 2.55 2.55z" fill="#ffcc99"></path></g><path d="M33.34 13.04v9.61c0 4.85-3.94 8.79-8.79 8.79s-8.79-3.94-8.79-8.79v-9.61z" fill="#ffd9b6"></path><path d="M33.34 13.04v9.61c0 4.85-3.94 8.79-8.79 8.79s-8.79-3.94-8.79-8.79v-9.61z" fill="#ffd9b6"></path><path d="M33.34 13.04v9.62c0 4.86-3.93 8.79-8.78 8.79-.62 0-1.23-.07-1.82-.19a8.788 8.788 0 0 0 6.96-8.6v-9.62z" fill="#000000" opacity=".05"></path><path d="M19.18 13.04h-3.42v9.61c0 2.83 1.34 5.34 3.42 6.95z" fill="#ffffff" opacity=".15"></path><path d="M33.87 12.83H15.24c0 2.08 1.69 3.77 3.77 3.77h11.1a3.777 3.777 0 0 0 3.76-3.77z" fill="#333333"></path><path d="M19.01 12.83h-3.77c0 2.08 1.69 3.77 3.77 3.77z" fill="#ffffff" opacity=".1"></path><g fill="#fc0"><path d="M40.06 29.97c.54-1.01 1.03-1.91 1.57-2.91-.2 1.73-.39 3.45-.59 5.18-.37-.46-.76-.9-1.13-1.36-.45 1.02-.93 2.01-1.38 3.03-.05-1.78.01-3.57.19-5.35.35.53.93.93 1.34 1.41zM45.45 32.2c.98-.59 1.85-1.12 2.83-1.71-1.04 1.39-2.08 2.78-3.13 4.17-.09-.58-.2-1.16-.29-1.74-.9.65-1.82 1.26-2.72 1.92.86-1.57 1.82-3.08 2.87-4.52.03.62.33 1.26.44 1.88zM47.57 36.83c1.14.02 2.17.04 3.31.05-1.62.62-3.24 1.25-4.86 1.87.23-.54.45-1.09.68-1.63-1.11.07-2.22.1-3.33.17 1.56-.87 3.17-1.64 4.83-2.3-.3.56-.39 1.25-.63 1.84z" fill="#ffcc00"></path></g></g></svg>