<svg viewBox="0 0 512 512" xmlns="http://www.w3.org/2000/svg"><g><circle cx="256" cy="256" fill="#14c4a2" r="256"></circle><path d="M512 256c0-31.19-5.585-61.074-15.798-88.715l-62.674-62.639-39.529-1.301L341.69 51.03 272 126.041l-36.901-15.112-12.393-12.692s-15.787-2.741-18.193-.999L193.65 86.335l-12.544-4.179-17.049-17.124-18.19 24.279c-.523-.371-11.283-11.847-11.855-12.147l-22.346 106.675-52.062 3.844 63.827 63.813-1.797 35.963h-2.524c-8.083 0-20.092 15.272-17.4 17.923l7.502 7.218s-21.252 19.893-19.099 22.44l12.164 11.918-29.731 19.603 12.257 7.291 1.307 1.256c-3.033 2.626-4.295 18.044-4.295 18.044l111.651 111.142A256.564 256.564 0 0 0 256 512c141.385 0 256-114.615 256-256z" fill="#02a082"></path><path d="M359.444 310.577c8.083 0 14.636 6.553 14.636 14.636v100.913c0 8.083-6.553 14.636-14.636 14.636-8.083 0-14.636-6.553-14.636-14.636V325.213c.001-8.083 6.553-14.636 14.636-14.636z" fill="#b2540f"></path><path d="M359.443 440.761h-.309c-7.908 0-14.323-6.415-14.323-14.329V324.905c0-7.914 6.415-14.329 14.323-14.329h.309z" fill="#994405"></path><path d="M330.173 328.447c8.083 0 14.636 6.553 14.636 14.636v62.158c0 8.083-6.553 14.636-14.636 14.636-8.083 0-14.636-6.553-14.636-14.636v-62.158c0-8.083 6.553-14.636 14.636-14.636z" fill="#b2540f"></path><path d="M300.983 316.364c8.083 0 14.636 6.553 14.636 14.636v62.158c0 8.083-6.553 14.636-14.636 14.636-8.083 0-14.636-6.552-14.636-14.636V331c0-8.083 6.553-14.636 14.636-14.636z" fill="#994405"></path><path d="M403.351 413.207v-78.253c0-6.396 7.126-10.214 12.451-6.67l9.603 6.39c7.731 5.514 19.55 4.531 26.264-2.183 6.715-6.715 5.883-16.72-1.848-22.234l-30.804-21.97a37.16 37.16 0 0 1-13.931-19.301l-7.594-24.62V107.99h-96.439v139.783l-14.705 61.551v34.34h87.733v69.543c0 7.912 6.414 14.327 14.327 14.327h.618c7.911 0 14.325-6.414 14.325-14.327z" fill="#c16629"></path><path d="M359.443 343.666h-73.097v-34.344l14.708-61.549V107.989h58.389z" fill="#b2540f"></path><path d="M319.776 143.255c0-8.083 6.553-14.636 14.636-14.636h100.912c8.083 0 14.636 6.553 14.636 14.636 0 8.083-6.553 14.636-14.636 14.636H334.412c-8.083 0-14.636-6.553-14.636-14.636z" fill="#773600"></path><path d="M449.96 143.257v.309c0 7.908-6.415 14.323-14.329 14.323H334.104c-7.914 0-14.329-6.415-14.329-14.323v-.309z" fill="#5e2d00"></path><path d="M337.646 172.527c0-8.083 6.553-14.636 14.636-14.636h62.158c8.083 0 14.636 6.552 14.636 14.636 0 8.083-6.553 14.636-14.636 14.636h-62.158c-8.084-.001-14.636-6.553-14.636-14.636z" fill="#773600"></path><path d="M325.563 201.717c0-8.083 6.553-14.636 14.636-14.636h62.158c8.083 0 14.636 6.553 14.636 14.636 0 8.083-6.553 14.636-14.636 14.636h-62.158c-8.083-.001-14.636-6.553-14.636-14.636z" fill="#5e2d00"></path><path d="M422.406 99.348h-78.253c-6.396 0-10.214-7.126-6.67-12.451l6.39-9.603c5.514-7.731 4.532-19.55-2.183-26.264-6.715-6.715-16.72-5.883-22.234 1.848l-21.97 30.804a37.16 37.16 0 0 1-19.301 13.931l-24.621 7.594H117.188v96.439h139.783l61.552 14.705h34.34V128.62h69.543c7.913 0 14.327-6.414 14.327-14.327v-.618c0-7.912-6.414-14.327-14.327-14.327z" fill="#91410a"></path><path d="M352.865 143.257v73.097h-34.344l-61.549-14.709H117.188v-58.388z" fill="#773600"></path><path d="M152.556 189.625c-8.083 0-14.636-6.553-14.636-14.636V74.077c0-8.083 6.553-14.636 14.636-14.636 8.083 0 14.636 6.553 14.636 14.636V174.99c-.001 8.083-6.553 14.635-14.636 14.635z" fill="#ffd097"></path><path d="M152.557 59.442h.309c7.908 0 14.323 6.415 14.323 14.329v101.527c0 7.914-6.415 14.329-14.323 14.329h-.309z" fill="#ffc473"></path><path d="M181.827 171.755c-8.083 0-14.636-6.553-14.636-14.636V94.962c0-8.083 6.553-14.636 14.636-14.636 8.083 0 14.636 6.553 14.636 14.636v62.158c0 8.083-6.553 14.635-14.636 14.635z" fill="#ffd097"></path><path d="M211.017 183.838c-8.083 0-14.636-6.553-14.636-14.636v-62.158c0-8.083 6.553-14.636 14.636-14.636 8.083 0 14.636 6.553 14.636 14.636v62.158c0 8.084-6.553 14.636-14.636 14.636z" fill="#ffc473"></path><path d="M108.649 86.995v78.253c0 6.396-7.126 10.214-12.451 6.67l-9.603-6.39c-7.731-5.514-19.55-4.532-26.264 2.183-6.715 6.715-5.883 16.72 1.848 22.234l30.804 21.97a37.16 37.16 0 0 1 13.931 19.3l7.594 24.621v136.376h96.439V252.43l14.705-61.551v-34.34H137.92V86.995c0-7.912-6.414-14.327-14.327-14.327h-.618c-7.912.001-14.326 6.415-14.326 14.327z" fill="#ffdba9"></path><path d="M152.557 156.536h73.097v34.344l-14.708 61.55v139.784h-58.389z" fill="#ffd097"></path><path d="M194.564 353.43c0 8.083-6.553 14.636-14.636 14.636H79.016c-8.083 0-14.636-6.553-14.636-14.636 0-8.083 6.552-14.636 14.636-14.636h100.912c8.084 0 14.636 6.553 14.636 14.636z" fill="#ef9543"></path><path d="M64.381 353.428v-.309c0-7.908 6.415-14.323 14.329-14.323h101.527c7.914 0 14.329 6.415 14.329 14.323v.309z" fill="#e88623"></path><path d="M176.694 324.158c0 8.083-6.553 14.636-14.636 14.636H99.901c-8.083 0-14.636-6.553-14.636-14.636 0-8.083 6.553-14.636 14.636-14.636h62.158c8.083.001 14.635 6.553 14.635 14.636z" fill="#ef9543"></path><path d="M188.778 294.968c0 8.083-6.553 14.636-14.636 14.636h-62.158c-8.083 0-14.636-6.553-14.636-14.636 0-8.083 6.553-14.636 14.636-14.636h62.158c8.083.001 14.636 6.553 14.636 14.636z" fill="#e88623"></path><path d="m289.76 295.038-3.41 14.28v82.16h-25.57l-24.62 7.59a37.27 37.27 0 0 0-19.31 13.93l-21.97 30.81c-3.01 4.22-7.36 6.39-11.78 6.39-3.68 0-7.4-1.5-10.45-4.54-6.71-6.72-7.7-18.54-2.18-26.27l6.39-9.6c3.54-5.33-.28-12.45-6.67-12.45H91.93c-7.91 0-14.32-6.42-14.32-14.33v-.62c0-7.91 6.41-14.32 14.32-14.32h69.55v-87.74h34.34l61.55 14.71z" fill="#f4a360"></path><path d="m289.76 295.038-3.41 14.28v44.11H161.48v-73.1h34.34l61.55 14.71z" fill="#ef9543"></path></g></svg>