<svg viewBox="0 0 512 512" xmlns="http://www.w3.org/2000/svg"><g><path d="M272 48h-32C116.288 48 16 148.288 16 272s100.288 224 224 224h32c123.712 0 224-100.288 224-224S395.712 48 272 48zM112 272c0-82.965 63.147-151.178 144-159.206 80.853 8.028 144 76.241 144 159.206s-63.147 151.178-144 159.206C175.147 423.178 112 354.965 112 272z" fill="#4182c3"></path><path d="M240 48C116.288 48 16 148.288 16 272s100.288 224 224 224 224-100.288 224-224S363.712 48 240 48zm0 384c-88.366 0-160-71.634-160-160s71.634-160 160-160 160 71.634 160 160-71.634 160-160 160z" fill="#64afe1"></path><circle cx="240" cy="272" fill="#d7e6f0" r="160"></circle><path d="M240 280a7.976 7.976 0 0 1-5.657-2.343l-67.882-67.882a7.998 7.998 0 0 1 0-11.313 8 8 0 0 1 11.313 0L240 260.687l84.853-84.853a8 8 0 0 1 11.313 0 7.998 7.998 0 0 1 0 11.313l-90.51 90.51A7.972 7.972 0 0 1 240 280z" fill="#f04b37"></path><circle cx="240" cy="272" fill="#faa019" r="32"></circle><circle cx="240" cy="272" fill="#f06423" r="16"></circle><path d="M240 152a8 8 0 0 1-8-8v-8a8 8 0 0 1 16 0v8a8 8 0 0 1-8 8zM240 416a8 8 0 0 1-8-8v-8a8 8 0 0 1 16 0v8a8 8 0 0 1-8 8zM120 272a8 8 0 0 1-8 8h-8a8 8 0 0 1 0-16h8a8 8 0 0 1 8 8zM384 272a8 8 0 0 1-8 8h-8a8 8 0 0 1 0-16h8a8 8 0 0 1 8 8z" fill="#a5c3dc"></path><path d="M300.686 96H288V32c0-8.836-7.163-16-16-16h-64c-8.837 0-16 7.164-16 16v64h-12.686C173.065 96 168 101.065 168 107.313c0 3.001 1.192 5.878 3.314 8l39.03 39.03A19.31 19.31 0 0 0 224 160h32a19.315 19.315 0 0 0 13.657-5.657l39.03-39.03a11.313 11.313 0 0 0 3.314-8C312 101.065 306.935 96 300.686 96z" fill="#463c4b"></path><path d="M268.686 96H256V32c0-8.836-7.163-16-16-16h-32c-8.837 0-16 7.164-16 16v64h-12.686C173.065 96 168 101.065 168 107.313c0 3.001 1.192 5.878 3.314 8l39.029 39.03a19.315 19.315 0 0 0 27.314 0l39.029-39.03a11.313 11.313 0 0 0 3.314-8C280 101.065 274.935 96 268.686 96z" fill="#555a6e"></path></g></svg>