<svg viewBox="0 0 512 512" xmlns="http://www.w3.org/2000/svg"><g><path d="M268.617 59.878c-101.687 0-184.12 82.433-184.12 184.12 0 62.491 31.14 118.732 78.741 152.017h210.757c47.602-33.285 78.742-89.526 78.742-152.017 0-101.686-82.433-184.12-184.12-184.12z" fill="#60b8ff"></path><path d="M268.617 59.878c-101.687 0-184.12 82.433-184.12 184.12 0 62.491 31.14 118.732 78.741 152.017h210.757c47.602-33.285 78.742-89.526 78.742-152.017 0-101.686-82.433-184.12-184.12-184.12z" fill="#60b8ff"></path><path d="M159.974 244.364c0-90.557 50.821-166.175 118.543-184.22a186.721 186.721 0 0 0-9.9-.267c-101.686 0-184.12 82.433-184.12 184.12 0 62.491 31.14 118.732 78.741 152.017h56.582c-36.335-34.43-59.846-90.068-59.846-151.65z" fill="#22a7ff"></path><path d="M416.281 251.061a7.726 7.726 0 0 1-7.726-7.726c0-49.316-25.197-94.063-67.403-119.696a7.727 7.727 0 0 1 8.022-13.208c45.306 27.516 74.834 77.139 74.834 132.904a7.727 7.727 0 0 1-7.727 7.726z" fill="#8bcaff"></path><path d="M400.04 17.881a35.56 35.56 0 0 1-15.48-15.514C383.823.92 382.346 0 380.721 0s-3.102.92-3.838 2.368a35.566 35.566 0 0 1-15.48 15.514 4.309 4.309 0 0 0-2.358 3.833v.106c0 1.603.887 3.083 2.315 3.811a35.552 35.552 0 0 1 15.455 15.417 4.27 4.27 0 0 0 3.806 2.305h.2a4.27 4.27 0 0 0 3.806-2.305 35.552 35.552 0 0 1 15.455-15.417 4.271 4.271 0 0 0 2.315-3.811v-.106a4.306 4.306 0 0 0-2.357-3.834zM87.282 386.655a35.56 35.56 0 0 1-15.48-15.514c-.736-1.448-2.214-2.368-3.838-2.368s-3.102.92-3.838 2.368a35.566 35.566 0 0 1-15.48 15.514 4.309 4.309 0 0 0-2.358 3.833v.106c0 1.603.887 3.083 2.315 3.811a35.552 35.552 0 0 1 15.455 15.417 4.27 4.27 0 0 0 3.806 2.305h.2a4.27 4.27 0 0 0 3.806-2.305 35.552 35.552 0 0 1 15.455-15.417 4.271 4.271 0 0 0 2.315-3.811v-.106c0-1.62-.915-3.095-2.358-3.833z" fill="#ffea7e"></path><g fill="#ffe02f"><path d="M490.303 83.177a46.342 46.342 0 0 1-20.171-20.214 5.618 5.618 0 0 0-5.001-3.085 5.613 5.613 0 0 0-5.001 3.085 46.337 46.337 0 0 1-20.171 20.214 5.614 5.614 0 0 0-3.072 4.995v.138c0 2.089 1.156 4.017 3.016 4.966a46.324 46.324 0 0 1 20.138 20.088c.951 1.854 2.876 3.003 4.959 3.003h.261c2.083 0 4.008-1.149 4.959-3.003a46.324 46.324 0 0 1 20.138-20.088c1.861-.949 3.016-2.877 3.016-4.966v-.138a5.61 5.61 0 0 0-3.071-4.995zM383.036 25.631a4.271 4.271 0 0 1-2.315-3.811v-.106c0-1.62.915-3.095 2.358-3.833a35.494 35.494 0 0 0 8.48-6.086 35.485 35.485 0 0 1-7-9.428C383.823.92 382.346 0 380.721 0s-3.102.92-3.838 2.367a35.566 35.566 0 0 1-15.48 15.514 4.309 4.309 0 0 0-2.358 3.833v.106c0 1.603.887 3.083 2.315 3.811a35.552 35.552 0 0 1 15.455 15.417 4.27 4.27 0 0 0 3.806 2.305h.2a4.27 4.27 0 0 0 3.806-2.305 35.504 35.504 0 0 1 6.932-9.309 35.458 35.458 0 0 0-8.523-6.108zM70.279 394.406a4.271 4.271 0 0 1-2.315-3.811v-.106c0-1.62.915-3.095 2.358-3.833a35.492 35.492 0 0 0 8.481-6.086 35.485 35.485 0 0 1-7-9.428c-.736-1.448-2.214-2.367-3.838-2.367s-3.102.92-3.838 2.367a35.563 35.563 0 0 1-15.481 15.514 4.31 4.31 0 0 0-2.358 3.833v.106c0 1.603.887 3.083 2.315 3.811a35.552 35.552 0 0 1 15.455 15.417 4.27 4.27 0 0 0 3.806 2.305h.2a4.27 4.27 0 0 0 3.806-2.305 35.504 35.504 0 0 1 6.932-9.309 35.47 35.47 0 0 0-8.523-6.108z" fill="#ffe02f"></path></g><path d="M461.58 93.275c-1.861-.949-3.017-2.877-3.017-4.966v-.138a5.615 5.615 0 0 1 3.072-4.995 46.33 46.33 0 0 0 14.334-11.415 46.187 46.187 0 0 1-5.837-8.799c-.96-1.886-2.885-3.085-5.001-3.085s-4.042 1.198-5.001 3.085a46.337 46.337 0 0 1-20.171 20.214 5.614 5.614 0 0 0-3.072 4.995v.138c0 2.089 1.155 4.017 3.016 4.966a46.324 46.324 0 0 1 20.138 20.088c.951 1.854 2.876 3.003 4.959 3.003h.261c2.084 0 4.008-1.149 4.959-3.003a46.183 46.183 0 0 1 5.749-8.634 46.3 46.3 0 0 0-14.389-11.454z" fill="#fbc700"></path><path d="M50.284 304.364h-4.24v-4.24a7.726 7.726 0 1 0-15.452 0v4.24h-4.24a7.726 7.726 0 1 0 0 15.452h4.24v4.24a7.726 7.726 0 1 0 15.452 0v-4.24h4.24a7.726 7.726 0 1 0 0-15.452z" fill="#ffe02f"></path><path d="M382.487 394.985H154.748c-5.651 0-10.233 4.581-10.233 10.233v22.533H392.72v-22.533c0-5.651-4.582-10.233-10.233-10.233z" fill="#d9edff"></path><path d="M219.134 394.985h-64.387c-5.651 0-10.233 4.582-10.233 10.233v22.533h64.387v-22.533c.001-5.651 4.582-10.233 10.233-10.233z" fill="#b4dbff"></path><path d="M408.124 485.416v-49.627c0-6.121-5.008-11.128-11.128-11.128H140.238c-6.12 0-11.128 5.008-11.128 11.128v49.627z" fill="#df7f66"></path><path d="M204.625 424.66h-64.387c-6.121 0-11.128 5.007-11.128 11.128v49.628h64.387v-49.628c0-6.12 5.008-11.128 11.128-11.128z" fill="#d8694b"></path><path d="M414.328 482.325H122.907c-5.651 0-10.233 4.581-10.233 10.233v9.209c0 5.652 4.581 10.233 10.233 10.233h291.421c5.651 0 10.233-4.581 10.233-10.233v-9.209c-.001-5.652-4.582-10.233-10.233-10.233z" fill="#d8694b"></path><path d="M177.061 501.767v-9.209c0-5.651 4.582-10.233 10.233-10.233h-64.387c-5.651 0-10.233 4.581-10.233 10.233v9.209c0 5.652 4.582 10.233 10.233 10.233h64.387c-5.651 0-10.233-4.581-10.233-10.233z" fill="#c5573a"></path></g></svg>