<svg viewBox="0 0 512.001 512.001" xmlns="http://www.w3.org/2000/svg"><g><path d="M338.44 360.331H173.56a4.313 4.313 0 0 1-4.313-4.313v-114.48a4.313 4.313 0 0 1 4.313-4.313h169.194v118.793a4.313 4.313 0 0 1-4.314 4.313z" fill="#a68472"></path><path d="M169.246 241.54v114.478a4.313 4.313 0 0 0 4.311 4.314h17.246V237.226h-17.246a4.313 4.313 0 0 0-4.311 4.314z" fill="#8a6d5e"></path><path d="M224.269 326.856h-20.136a2.157 2.157 0 0 1-2.157-2.157v-20.151c0-1.191.965-2.157 2.157-2.157h20.136c1.191 0 2.157.965 2.157 2.157v20.151a2.157 2.157 0 0 1-2.157 2.157z" fill="#ff5948"></path><path d="M126.472 470.205H4.313A4.313 4.313 0 0 1 0 465.892V281.528c0-20.661 16.749-37.409 37.409-37.409h55.966c20.661 0 37.409 16.749 37.409 37.409v184.364a4.31 4.31 0 0 1-4.312 4.313z" fill="#ffd359"></path><path d="M58.956 244.118H37.399C16.743 244.118 0 260.872 0 281.539V465.89a4.313 4.313 0 0 0 4.311 4.314h17.246V281.539c.001-20.667 16.745-37.421 37.399-37.421z" fill="#db9840"></path><path d="M427.415 170.162H465.8v60.329h-38.385z" fill="#cca38d"></path><path d="M385.528 470.205h122.16a4.313 4.313 0 0 0 4.313-4.313V281.528c0-20.661-16.749-37.409-37.409-37.409h-55.966c-20.661 0-37.409 16.749-37.409 37.409v184.364a4.309 4.309 0 0 0 4.311 4.313z" fill="#ff5948"></path><path d="M440.345 244.118h-21.733c-20.654 0-37.399 16.754-37.399 37.421V465.89a4.313 4.313 0 0 0 4.311 4.314h17.421V281.539c.002-20.667 16.746-37.421 37.4-37.421z" fill="#d44a3c"></path><path d="M46.205 170.162H84.59v60.329H46.205z" fill="#cca38d"></path><path d="M16.711 151.651V119.76c0-26.586 21.553-48.139 48.139-48.139h1.084c26.586 0 48.139 21.553 48.139 48.139v31.891c0 26.886-21.796 48.682-48.682 48.682-26.884 0-48.68-21.796-48.68-48.682z" fill="#cca38d"></path><path d="M38.363 151.621v-31.833c0-23.069 16.212-42.34 37.856-47.055a48.257 48.257 0 0 0-10.284-1.113h-1.084c-26.586 0-48.139 21.566-48.139 48.169v31.833c0 26.902 21.796 48.711 48.682 48.711 3.723 0 7.342-.433 10.826-1.224-21.673-4.928-37.857-24.311-37.857-47.488z" fill="#a68472"></path><path d="M19.845 138.727h24.87c6.94 0 12.566-5.63 12.566-12.573v-5.403c0-8.822 7.147-15.973 15.963-15.973h35.709c8.282 0 14.996-6.718 14.996-15.005v-4.677c0-14.13-11.448-25.584-25.57-25.584h-47.28c-24.201 0-43.819 19.63-43.819 43.845v22.799c-.001 6.942 5.626 12.571 12.565 12.571z" fill="#7d7072"></path><path d="M28.837 126.153v-22.798c0-24.216 19.619-43.845 43.819-43.845H51.099c-24.201 0-43.819 19.63-43.819 43.845v22.799c0 6.944 5.626 12.573 12.566 12.573h21.558c-6.941 0-12.567-5.629-12.567-12.574z" fill="#5e5456"></path><path d="M91.099 252.658H39.685a4.313 4.313 0 0 1-4.313-4.313v-20.027a4.313 4.313 0 0 1 4.313-4.313h51.414a4.313 4.313 0 0 1 4.313 4.313v20.027a4.312 4.312 0 0 1-4.313 4.313z" fill="#b57e35"></path><path d="M347.116 274.579H164.884a4.313 4.313 0 0 1-4.313-4.313v-37.144a4.313 4.313 0 0 1 4.313-4.313h182.231a4.313 4.313 0 0 1 4.313 4.313v37.144a4.313 4.313 0 0 1-4.312 4.313z" fill="#cca38d"></path><path d="M160.572 233.122v37.142a4.313 4.313 0 0 0 4.311 4.314h17.246v-45.77h-17.246a4.312 4.312 0 0 0-4.311 4.314z" fill="#a68472"></path><path d="M495.289 151.651v-34.222c0-6.773-5.491-12.264-12.264-12.264H410.19c-6.773 0-12.264 5.491-12.264 12.264v34.222c0 26.886 21.796 48.682 48.682 48.682 26.885 0 48.681-21.796 48.681-48.682z" fill="#cca38d"></path><path d="M419.484 151.621v-34.186c0-6.777 5.491-12.271 12.264-12.271H410.19c-6.773 0-12.264 5.494-12.264 12.271v34.186c0 26.902 21.796 48.711 48.682 48.711 3.706 0 7.31-.428 10.779-1.213-21.697-4.91-37.903-24.303-37.903-47.498z" fill="#a68472"></path><path d="M502.797 91.828V81.616c0-21.992-17.817-39.819-39.795-39.819h-26.036c-21.978 0-39.795 17.828-39.795 39.819v10.212h105.626z" fill="#ff5948"></path><path d="M459.279 41.796h-22.313c-21.978 0-39.795 17.828-39.795 39.819v10.212h22.313V81.615c0-21.991 17.816-39.819 39.795-39.819z" fill="#d44a3c"></path><path d="M363.951 116.094h140.001a2.157 2.157 0 0 0 2.157-2.157V93.984a2.157 2.157 0 0 0-2.157-2.157H349.659a2.381 2.381 0 0 0-2.381 2.381v5.212c0 9.209 7.464 16.674 16.673 16.674z" fill="#d44a3c"></path><path d="M368.764 99.416V94.21a2.381 2.381 0 0 1 2.381-2.382h-21.487a2.381 2.381 0 0 0-2.381 2.382v5.206c0 9.211 7.462 16.678 16.667 16.678h21.487c-9.204 0-16.667-7.467-16.667-16.678zM420.901 252.658h51.414a4.313 4.313 0 0 0 4.313-4.313v-20.027a4.313 4.313 0 0 0-4.313-4.313h-51.414a4.313 4.313 0 0 0-4.313 4.313v20.027a4.312 4.312 0 0 0 4.313 4.313z" fill="#bf4436"></path><path d="M465.802 335.647v58.576c0 13.158-10.66 23.825-23.811 23.825H304.118a7.14 7.14 0 0 1-7.146-7.14v-6.817a7.15 7.15 0 0 1 7.146-7.15H332.1a2.383 2.383 0 0 0 2.382-2.383v-.701c0-5.263 4.258-9.523 9.518-9.523h85.714a2.383 2.383 0 0 0 2.382-2.383v-46.302h33.705v-.002z" fill="#cca38d"></path><path d="M416.587 358.588h64.143v-76.933c0-16.982-13.767-30.748-30.748-30.748h-10.519c-12.634 0-22.875 10.241-22.875 22.875v84.806h-.001z" fill="#d44a3c"></path><path d="M215.03 404.092v6.817a7.142 7.142 0 0 1-7.146 7.14H70.009c-13.15 0-23.811-10.666-23.811-23.825v-58.576h33.705v46.302a2.383 2.383 0 0 0 2.382 2.383H168c5.26 0 9.518 4.26 9.518 9.523v.701a2.383 2.383 0 0 0 2.382 2.383h27.982a7.153 7.153 0 0 1 7.148 7.152z" fill="#cca38d"></path><path d="M95.413 358.588H31.27v-76.933c0-16.982 13.767-30.748 30.748-30.748h10.519c12.634 0 22.875 10.241 22.875 22.875v84.806h.001z" fill="#db9840"></path><path d="M309.276 322.713h-58.038c-4.465 0-8.084-3.622-8.084-8.09 0-4.467 3.62-8.089 8.084-8.089h58.038c4.465 0 8.084 3.622 8.084 8.089 0 4.468-3.619 8.09-8.084 8.09z" fill="#5e5456"></path></g></svg>