<svg id="Capa_1" enable-background="new 0 0 512 512" height="512" viewBox="0 0 512 512" width="512" xmlns="http://www.w3.org/2000/svg"><g><path d="m512 256c0 101.45-59.02 189.13-144.6 230.55-33.68 16.31-83.02-23.705-122.95-23.705-18.46 0-30.266 7.955-47.626 4.235-20.18-4.32-34.134 28.23-52.234 19.46-85.57-41.42-144.59-129.09-144.59-230.54 0-141.38 114.62-256 256-256s256 114.62 256 256z" fill="#ffe252"/><g><path d="m367.4 478.25v8.3c-33.68 16.31-71.47 25.45-111.4 25.45s-77.73-9.14-111.41-25.46v-8.29c0-61.52 49.88-111.4 111.41-111.4 30.76 0 58.61 12.47 78.76 32.63 20.17 20.16 32.64 48.01 32.64 78.77z" fill="#6ec487"/><path d="m284.79 370.61c-47.58 12.68-82.63 56.06-82.63 107.64v28.08c-20.18-4.32-39.47-11.02-57.57-19.79v-8.29c0-61.53 49.88-111.4 111.41-111.4 9.95 0 19.6 1.31 28.79 3.76z" fill="#5aaf70"/><path d="m294.363 322.22v68.761c0 21.185-17.187 38.372-38.358 38.372-5.205 0-10.164-1.032-14.686-2.908-13.9-5.773-23.686-19.47-23.686-35.464v-68.761z" fill="#ffc3ab"/><path d="m241.318 366.622v59.817c-13.898-5.767-23.679-19.47-23.679-35.452v-42.757z" fill="#f4b098"/><path d="m282.584.003h-52.668c-61.143 0-110.71 49.567-110.71 110.71v129.826h274.088v-129.826c0-61.144-49.567-110.71-110.71-110.71z" fill="#5b565f"/><path d="m296.464.862c-54.595 6.826-96.837 53.402-96.837 109.851v129.82h-80.422v-129.82c.001-61.149 49.565-110.713 110.702-110.713h52.67c4.7 0 9.341.295 13.887.862z" fill="#433d46"/><path d="m355.432 295.046h-198.864c-31.733 0-57.458-25.725-57.458-57.458 0-19.844 16.087-35.93 35.93-35.93h241.919c19.844 0 35.93 16.087 35.93 35.93.001 31.733-25.724 57.458-57.457 57.458z" fill="#ffc3ab"/><path d="m156.568 275.675c-21.001 0-38.087-17.086-38.087-38.087 0-9.131 7.429-16.56 16.56-16.56h241.919c9.131 0 16.56 7.429 16.56 16.56 0 21.001-17.086 38.087-38.087 38.087z" fill="#f4b098"/><path d="m367.399 201.586v62.798c0 30.761-12.472 58.615-32.635 78.767-20.152 20.163-48.005 32.636-78.767 32.636-61.523 0-111.402-49.879-111.402-111.402v-63.038c12.048-1.917 21.252-12.364 21.252-24.945v-19.52c12.298 3.464 25.642 3.845 38.899.425 16.296-4.194 29.945-13.453 39.705-25.653 4.858-6.067 8.758-12.865 11.547-20.13 2.789 7.266 6.688 14.063 11.547 20.13 9.771 12.2 23.42 21.459 39.716 25.653 12.494 3.224 25.065 3.093 36.764.163v18.932c-.002 13.311 10.303 24.226 23.374 25.184z" fill="#ffc3ab"/><path d="m284.787 372.029c-9.183 2.451-18.834 3.758-28.79 3.758-61.523 0-111.402-49.868-111.402-111.402v-63.038c12.048-1.917 21.252-12.364 21.252-24.945v-19.52c12.298 3.464 25.642 3.845 38.899.425.098-.022.196-.055.294-.076-1.884 8.104-2.876 16.546-2.876 25.217v81.937c0 51.577 35.042 94.964 82.623 107.644z" fill="#f4b098"/><path d="m241.528 200.691c0 7.545-2.524 14.487-6.791 20.043h-52.407c-4.267-5.556-6.791-12.498-6.791-20.043 0-18.233 14.775-33.008 32.994-33.008 18.233 0 32.995 14.776 32.995 33.008z" fill="#f8f6f7"/><path d="m192.085 200.691c0 7.545 2.538 14.487 6.805 20.043h-16.559c-4.267-5.556-6.791-12.498-6.791-20.043 0-18.233 14.762-33.008 32.994-33.008 2.867 0 5.625.37 8.286 1.056-14.226 3.664-24.735 16.573-24.735 31.952z" fill="#dedaed"/><path d="m336.463 200.691c0 7.545-2.524 14.487-6.791 20.043h-52.406c-4.28-5.556-6.805-12.498-6.805-20.043 0-18.233 14.775-33.008 33.008-33.008 18.219 0 32.994 14.776 32.994 33.008z" fill="#f8f6f7"/><path d="m287.02 200.691c0 7.545 2.524 14.487 6.791 20.043h-16.545c-4.28-5.556-6.805-12.498-6.805-20.043 0-18.233 14.775-33.008 32.994-33.008 2.867 0 5.638.37 8.286 1.056-14.226 3.664-24.721 16.573-24.721 31.952z" fill="#dedaed"/><path d="m267.543 131.653v117.633c0 6.372-5.163 11.546-11.547 11.546-6.372 0-11.547-5.174-11.547-11.546v-117.633c4.858-6.067 8.758-12.865 11.547-20.13 2.789 7.266 6.689 14.063 11.547 20.13z" fill="#f4b098"/><circle cx="210" cy="200.685" fill="#413d44" r="13.176"/><circle cx="302" cy="200.685" fill="#413d44" r="13.176"/><g fill="#ff5a76"><path d="m300.914 340.423-8.759 8.759c-3.079 3.079-8.071 3.079-11.15 0l-69.926-69.927c-3.079-3.079-3.079-8.071 0-11.15l8.759-8.759c3.079-3.079 8.071-3.079 11.15 0l69.926 69.927c3.079 3.079 3.079 8.071 0 11.15z"/><path d="m292.156 259.347 8.759 8.759c3.079 3.079 3.079 8.071 0 11.15l-69.926 69.927c-3.079 3.079-8.071 3.079-11.15 0l-8.759-8.759c-3.079-3.079-3.079-8.071 0-11.15l69.926-69.927c3.078-3.079 8.071-3.079 11.15 0z"/></g></g></g></svg>