<svg viewBox="0 0 512 512" xmlns="http://www.w3.org/2000/svg"><g><g clip-rule="evenodd" fill-rule="evenodd"><path d="M57.297 46.543h397.406c19.089 0 34.711 15.621 34.711 34.71V477.29c0 19.089-15.621 34.71-34.711 34.71H57.297c-19.089 0-34.71-15.621-34.71-34.71V81.253c0-19.089 15.621-34.71 34.71-34.71z" fill="#97b3c4"></path><path d="M57.297 46.543h397.406c19.089 0 34.711 15.621 34.711 34.71v306.39C447.883 456.597 372.809 504.801 285.435 512H57.297c-19.089 0-34.71-15.621-34.71-34.71V81.253c0-19.089 15.621-34.71 34.71-34.71z" fill="#e1efff"></path><path d="M285.435 512c60.648-25.239 109.29-71.781 135.577-129.719 10.492 8.51 23.723 13.581 38.091 13.581 11.017 0 21.333-2.973 30.31-8.219C447.883 456.597 372.809 504.801 285.435 512zM54.965 493.902V104.335c0-18.769 15.359-34.157 34.157-34.157h390.907c2.71 0 5.333.321 7.869.933-4.372-14.193-17.632-24.568-33.195-24.568H57.297c-19.089 0-34.71 15.621-34.71 34.71V477.29c0 19.089 15.621 34.71 34.71 34.71h2.914a33.723 33.723 0 0 1-5.246-18.098z" fill="#b0ccdd"></path><path d="M57.297 46.543h397.406c19.089 0 34.711 15.621 34.711 34.71v75.25H22.587v-75.25c0-19.089 15.621-34.71 34.71-34.71z" fill="#d10028"></path><path d="M54.965 104.335c0-18.769 15.359-34.157 34.157-34.157H480.028c2.71 0 5.333.321 7.869.933-4.372-14.193-17.632-24.568-33.195-24.568H57.297c-19.089 0-34.71 15.621-34.71 34.71v75.25h32.379v-52.168z" fill="#b8000f"></path><path d="M166.091 0c10.346 0 18.798 8.452 18.798 18.769v55.548c0 10.317-8.452 18.769-18.798 18.769-10.317 0-18.769-8.452-18.769-18.769V18.769C147.322 8.452 155.774 0 166.091 0zM345.88 0h.029c10.317 0 18.769 8.452 18.769 18.769v55.548c0 10.317-8.452 18.769-18.769 18.769h-.029c-10.317 0-18.769-8.452-18.769-18.769V18.769C327.111 8.452 335.563 0 345.88 0z" fill="#113255"></path><path d="M166.091 0c-10.317 0-18.769 8.452-18.769 18.769V74.317c0 10.317 8.452 18.769 18.769 18.769V46.543zM345.88 0c-10.317 0-18.769 8.452-18.769 18.769V74.317c0 10.317 8.452 18.769 18.798 18.769V46.543z" fill="#00193c"></path></g><path d="M389.334 259.235a7.199 7.199 0 0 1-7.199 7.198h-24.451v98.128c0 3.975-3.223 7.198-7.199 7.198s-7.199-3.223-7.199-7.198v-98.128h-24.422a7.199 7.199 0 1 1 0-14.396h63.271a7.199 7.199 0 0 1 7.199 7.198zm-196.198-7.198h-43.22c-15.025 0-27.25 12.224-27.25 27.25v12.561c0 15.025 12.224 27.25 27.25 27.25h23.169c7.086 0 12.852 5.766 12.852 12.853v12.561c0 7.087-5.766 12.853-12.852 12.853h-36.022v-10.201a7.198 7.198 0 0 0-14.396 0v17.399a7.198 7.198 0 0 0 7.198 7.198h43.221c15.025 0 27.249-12.224 27.249-27.25V331.95c0-15.025-12.224-27.25-27.249-27.25h-23.169c-7.087 0-12.853-5.766-12.853-12.853v-12.561c0-7.087 5.766-12.853 12.853-12.853h36.022v10.201a7.198 7.198 0 0 0 14.396 0v-17.399a7.199 7.199 0 0 0-7.199-7.198zm101.713 38.848v73.676c0 3.975-3.223 7.198-7.199 7.198s-7.199-3.223-7.199-7.198v-33.516h-48.903v33.516a7.199 7.199 0 0 1-14.397 0v-73.676c0-21.421 17.428-38.849 38.849-38.849s38.849 17.428 38.849 38.849zm-14.398 0c0-13.483-10.969-24.452-24.451-24.452s-24.451 10.969-24.451 24.452v25.764h48.903v-25.764z" fill="#113255"></path></g></svg>