<svg viewBox="0 0 512 512" xmlns="http://www.w3.org/2000/svg"><g><path d="M88 144h336a32 32 0 0 1 32 32v256H56V176a32 32 0 0 1 32-32z" fill="#dadcde"></path><path d="M104 176h304a16 16 0 0 1 16 16v224H88V192a16 16 0 0 1 16-16z" fill="#2978b8"></path><path d="M200 32h208a16 16 0 0 1 16 16v16H200V32z" fill="#dadcde"></path><path d="M408 32H136a16 16 0 0 0-16 16v336h272V48a16 16 0 0 1 16-16z" fill="#e9eef2"></path><path d="M168 80h80v64h-80z" fill="#c3c6c7"></path><g fill="#dadcde"><path d="M200 184h-16a8 8 0 0 1 0-16h16a8 8 0 0 1 0 16zM344 184H232a8 8 0 0 1 0-16h112a8 8 0 0 1 0 16zM232 216h-64a8 8 0 0 1 0-16h64a8 8 0 0 1 0 16zM232 248h-64a8 8 0 0 1 0-16h64a8 8 0 0 1 0 16zM344 280H168a8 8 0 0 1 0-16h176a8 8 0 0 1 0 16zM184 312h-16a8 8 0 0 1 0-16h16a8 8 0 0 1 0 16zM344 312H216a8 8 0 0 1 0-16h128a8 8 0 0 1 0 16zM264 344h-96a8 8 0 0 1 0-16h96a8 8 0 0 1 0 16z" fill="#dadcde"></path></g><path d="M24 416h464a64 64 0 0 1-64 64H88a64 64 0 0 1-64-64z" fill="#c3c6c7"></path><path d="M294.111 448h-76.222a16 16 0 0 1-14.311-8.845L192 416h128l-11.578 23.155A16 16 0 0 1 294.111 448z" fill="#e9eef2"></path><path d="M264 208h80v32h-80z" fill="#c3c6c7"></path><path d="M344 88h-48a8 8 0 0 1 0-16h48a8 8 0 0 1 0 16zM344 120h-64a8 8 0 0 1 0-16h64a8 8 0 0 1 0 16zM344 152h-64a8 8 0 0 1 0-16h64a8 8 0 0 1 0 16z" fill="#dadcde"></path><path d="m479.515 143.515-23.03-23.03A28.969 28.969 0 0 0 436 112a28.969 28.969 0 0 0-20.485 8.485l-115.5 115.5a64.007 64.007 0 0 0-16.49 28.415L264 336l71.6-19.528a64 64 0 0 0 28.415-16.49l115.5-115.5a28.971 28.971 0 0 0 0-40.97z" fill="#fbe9d8"></path><path d="M314.28 322.28 264 336l13.72-50.28z" fill="#6a7073"></path><path d="m456 208-91.98 91.98-.02.02-64-64 .02-.02L392 144z" fill="#3397e8"></path><path d="m319.945 256.011 95.986-95.986 23.996 23.997-95.986 95.985z" fill="#2978b8"></path><path d="m456.485 120.485 23.03 23.03A28.971 28.971 0 0 1 488 164a28.971 28.971 0 0 1-8.485 20.485L456 208l-64-64 23.515-23.515A28.969 28.969 0 0 1 436 112a28.969 28.969 0 0 1 20.485 8.485z" fill="#eb423f"></path><path d="m391.942 144.032 15.997-15.998 63.99 63.991-15.997 15.997z" fill="#ffd33a"></path></g></svg>