<svg viewBox="0 0 512 512" xmlns="http://www.w3.org/2000/svg"><g><path d="M114.045 210.054a7.726 7.726 0 0 1-7.726-7.726V159.04a7.726 7.726 0 1 1 15.452 0v43.288a7.725 7.725 0 0 1-7.726 7.726z" fill="#78c2a4"></path><path d="M184.769 315.8a81.081 81.081 0 0 0 10.768-40.466c0-41.227-30.614-75.303-70.348-80.736-3.643-.498-7.363 1.322-11.143 1.322-45.007 0-59.205 34.408-59.205 79.414 0 14.733 1.536 28.54 5.162 40.466z" fill="#e5646e"></path><path d="M68.537 315.8a81.086 81.086 0 0 1-10.764-40.466c0-21.041 7.974-40.217 21.066-54.675l-10.648-5.312-1.02 2.353-14.968 4.563c-12.247 14.259-19.649 32.801-19.649 53.071 0 14.733 3.93 28.54 10.768 40.466z" fill="#db4655"></path><path d="M111.96 195.8c-22.67 9.721-26.575 3.481-41.52 20.88l7.835 4.014 5.208-.317a24.724 24.724 0 0 1 23.811 14.024l3.964 8.3c1.12 2.345 4.458 2.345 5.578 0l3.964-8.3a24.724 24.724 0 0 1 23.811-14.024l31.263 1.9c-12.661-14.74-30.489-24.913-50.683-27.678-3.645-.499-9.757-.289-13.231 1.201z" fill="#b3e59f"></path><path d="M126.361 194.776a81.972 81.972 0 0 0-12.315-.933c-24.736 0-46.881 11.036-61.826 28.435l26.055-1.584c12.297-13.598 29.115-23.029 48.086-25.918z" fill="#95d6a4"></path><path d="M261.969 16.543a3.191 3.191 0 0 1-1.793-1.166C254.655 8.132 246.658 2.876 237.444.881c-2.666-.577-5.39.774-8.23.774-12.651 0-20.916 7.263-28.035 16.605a3.183 3.183 0 0 1-1.793 1.166c-14.518 3.522-18.517 14.435-16.867 30.373 1.408 13.603 2.75 21.685 16.23 23.991 3.56.609 7.692 2.792 10.98 2.25 1.881-.31 11.07 11.053 11.07 12.96l8.005 40.494h17.273V79.978a3.081 3.081 0 0 1 3.588-3.041 31.02 31.02 0 0 0 10.306-.043c13.479-2.303 23.955-13.486 25.366-27.088 1.654-15.941-8.848-29.74-23.368-33.263z" fill="#b3e59f"></path><path d="M225.217 76.937c-3.288.542-6.75.565-10.31-.043-13.48-2.305-23.955-13.491-25.363-27.094-1.649-15.938 8.852-29.734 23.37-33.256a3.188 3.188 0 0 0 1.793-1.166c5.52-7.244 13.522-12.485 22.735-14.48A39.002 39.002 0 0 0 229.171 0c-12.651 0-23.887 6.035-31.006 15.377a3.183 3.183 0 0 1-1.793 1.166c-14.518 3.522-25.019 17.318-23.37 33.256 1.408 13.603 11.883 24.789 25.363 27.094 3.56.609 7.022.586 10.31.043a3.082 3.082 0 0 1 3.588 3.041v49.516h16.542V79.978a3.082 3.082 0 0 0-3.588-3.041z" fill="#95d6a4"></path><path d="M250.537 312.488a46.352 46.352 0 0 0 1.035 5.472h171.976c.447-1.787.801-3.61 1.035-5.472 23.309-2.523 41.456-22.258 41.456-46.237 0-25.69-20.826-46.516-46.516-46.516a46.302 46.302 0 0 0-22.389 5.739c0-.058.005-.115.005-.173 0-28.88-20.549-52.961-47.824-58.419-3.8-.76-7.73 1.318-11.754 1.318-32.904 0-55.117 26.72-55.117 59.624 0 .058-4.457-2.409-4.457-2.351a46.302 46.302 0 0 0-22.389-5.739c-25.69 0-46.516 20.826-46.516 46.516-.001 23.98 18.146 43.715 41.455 46.238z" fill="#b3e59f"></path><path d="M275.261 312.488c-23.309-2.523-41.456-22.258-41.456-46.237 0-21.404 14.462-39.42 34.143-44.839a46.467 46.467 0 0 0-12.352-1.677c-25.69 0-46.516 20.826-46.516 46.516 0 23.979 18.147 43.714 41.455 46.237 2.876 22.93 22.428 40.673 46.138 40.673h24.724c-23.708 0-43.26-17.743-46.136-40.673zM280.321 219.735a46.302 46.302 0 0 1 22.389 5.739c0-.058-.005-.115-.005-.173 0-28.664 20.246-52.593 47.216-58.285a59.79 59.79 0 0 0-12.362-1.292c-31.044 0-56.53 23.747-59.314 54.064.689-.031 1.38-.053 2.076-.053z" fill="#95d6a4"></path><path d="M212.661 315.8h55.005l11.584-56.071-21.85-9.209 25.043-6.243 6.411-31.029-10.608-7.726 13.768-7.568 3.547-17.167a68.339 68.339 0 0 0 1.414-14.081c-.009-2.563-14.078-6.282-14.374-8.826-.297-2.553 13.176-3.932 12.592-6.442a68.45 68.45 0 0 0-2.933-9.441l-6.277-16.015a27.44 27.44 0 0 0-25.548-17.427H215.88c-11.29 0-21.502 7.438-25.622 17.949l-6.277 16.015c-4.835 12.337-4.142 25.29-1.461 38.267z" fill="#ffc269"></path><path d="m166.328 197.953 17.752 7.568-14.592 7.726 6.411 31.029 16.248 7.726-13.056 7.726 11.584 56.071H215.4l-27.894-135.013a68.384 68.384 0 0 1 3.301-38.789l6.277-16.015a27.44 27.44 0 0 1 25.548-17.427h-24.724a27.44 27.44 0 0 0-25.548 17.427l-6.277 16.015a68.403 68.403 0 0 0-2.903 9.315c-.593 2.525 11.764 5.157 11.461 7.727-.302 2.57-13.264 5.078-13.273 7.667a68.353 68.353 0 0 0 1.414 14.081z" fill="#ffa95f"></path><path d="m494.519 90.692.257-.085c1.855-.612 1.855-3.237 0-3.849l-.259-.085a36.485 36.485 0 0 1-23.295-23.47c-.612-1.855-3.236-1.853-3.848.002l-.085.259a36.479 36.479 0 0 1-23.209 23.209l-.259.085c-1.855.612-1.855 3.237 0 3.849l.259.085a36.485 36.485 0 0 1 23.295 23.47c.612 1.855 3.236 1.853 3.848-.002l.085-.257a36.48 36.48 0 0 1 23.211-23.211z" fill="#ffc269"></path><path d="M481.273 512H54.84l-17.64-3.6c-5.523 0-6.48-.877-6.48-6.4l8.262-144.8 28.458-22.486h289.819l134.013 18.447V502c.001 5.523-4.476 10-9.999 10z" fill="#f4dbb3"></path><path d="M46.935 501.698V334.714H20.727v166.984c0 5.69 4.612 10.302 10.302 10.302h26.208c-5.69 0-10.302-4.612-10.302-10.302z" fill="#eac89f"></path><path d="M502 353.161H37.02c-5.523 0-24.12-2.858-24.12-8.381l5.76-28.98c0-5.523 13.557-16.332 19.08-16.332H502c5.523 0 10 4.477 10 10v33.693c0 5.523-4.477 10-10 10z" fill="#d2af8c"></path><path d="M31.153 342.859v-33.09c0-5.69 4.612-10.302 10.302-10.302H10.302C4.612 299.468 0 304.08 0 309.77v33.09c0 5.69 4.612 10.302 10.302 10.302h31.153c-5.69-.001-10.302-4.613-10.302-10.303z" fill="#c69b75"></path><path d="M287.375 438.027h-62.75c-11.922 0-21.587-9.665-21.587-21.587v-1.303c0-11.922 9.665-21.587 21.587-21.587h62.75c11.922 0 21.587 9.665 21.587 21.587v1.303c0 11.922-9.665 21.587-21.587 21.587z" fill="#d2af8c"></path><path d="m110.416 53.081.257-.085c1.855-.612 1.855-3.237 0-3.849l-.259-.085a36.481 36.481 0 0 1-23.294-23.47c-.612-1.855-3.236-1.853-3.848.002l-.085.259a36.48 36.48 0 0 1-23.21 23.209l-.259.085c-1.855.612-1.855 3.237 0 3.849l.259.085a36.485 36.485 0 0 1 23.295 23.47c.612 1.855 3.236 1.853 3.848-.002l.085-.257a36.483 36.483 0 0 1 23.211-23.211zM413.107 41.885l.373-.123c2.691-.888 2.691-4.694 0-5.582l-.375-.124a52.914 52.914 0 0 1-33.662-33.665l-.123-.374c-.888-2.691-4.694-2.688-5.582.003l-.124.375a52.906 52.906 0 0 1-33.661 33.661l-.375.124c-2.691.888-2.691 4.694 0 5.582l.375.124a52.914 52.914 0 0 1 33.662 33.665l.123.374c.888 2.691 4.694 2.688 5.582-.003l.123-.373a52.91 52.91 0 0 1 33.664-33.664z" fill="#ffc269"></path><path d="M353.043 227.824a7.725 7.725 0 0 1-7.726-7.726 5.007 5.007 0 0 0-5-5.001 5.006 5.006 0 0 0-5.001 5.001 7.726 7.726 0 1 1-15.452 0c0-11.278 9.175-20.453 20.454-20.453 11.278 0 20.453 9.175 20.453 20.453a7.728 7.728 0 0 1-7.728 7.726zM423.229 276.453a7.725 7.725 0 0 1-7.726-7.726c0-2.757-2.243-5.001-5.001-5.001s-5.001 2.243-5.001 5.001a7.726 7.726 0 1 1-15.452 0c0-11.278 9.175-20.453 20.454-20.453s20.454 9.175 20.454 20.453a7.728 7.728 0 0 1-7.728 7.726zM334.417 276.453a7.725 7.725 0 0 1-7.726-7.726 5.007 5.007 0 0 0-5.001-5.001c-2.757 0-5 2.243-5 5.001a7.726 7.726 0 1 1-15.452 0c0-11.278 9.175-20.453 20.453-20.453 11.279 0 20.454 9.175 20.454 20.453a7.729 7.729 0 0 1-7.728 7.726z" fill="#78c2a4"></path><g fill="#f49751"><path d="M205.136 151.313h-17.232s-23.606 5.229-23.625 10.407c.302.036 21.82 5.046 21.82 5.046h19.037a7.727 7.727 0 0 0 0-15.453zM205.136 197.795h-14.118l-15.12 4.239c-.536 0-.753.863-1.258.967l10.752 5.06 8.819 5.187h10.925a7.726 7.726 0 0 0 7.726-7.726 7.726 7.726 0 0 0-7.726-7.727zM212.863 252.003a7.726 7.726 0 0 0-7.726-7.726h-4.514l-8.982 6.003-6.247 5.72 18.422 3.729h1.322a7.726 7.726 0 0 0 7.725-7.726z" fill="#f49751"></path></g><path d="M187.905 151.313h-24.724a68.365 68.365 0 0 0-1.805 15.393c.302.036.607.06.919.06H186.1a68.367 68.367 0 0 1 1.805-15.453zM167.891 197.795c-.536 0-1.058.055-1.563.159l3.16 15.294h24.724l-3.193-15.453zM175.898 244.277l3.193 15.452h24.724l-3.193-15.452z" fill="#f27144"></path><path d="M253.205 151.313a7.726 7.726 0 1 0 0 15.452h42.842c.312 0 .617-.024.919-.06a68.423 68.423 0 0 0-1.805-15.393h-41.956zM292.013 197.953a7.747 7.747 0 0 0-1.564-.159h-37.245a7.726 7.726 0 1 0 0 15.452h35.649zM282.443 244.277h-29.238a7.726 7.726 0 1 0 0 15.452h26.045z" fill="#f49751"></path></g></svg>