<svg viewBox="0 0 512 512" xmlns="http://www.w3.org/2000/svg"><g><path d="M458.761 261.15c8.811 23.575-19.16 52.093-42.645 40.333-21.744-10.888-15.045-37.163-8.808-55.6 9.19-27.166 21.892-51.5 8.824-79.531-11.273-24.177-29.67-32.111-52.548-42.687 6.474 15.8 12.761 32.016 13.932 49.049s-3.5 35.271-16.062 46.837a40.356 40.356 0 0 1-29.885 10.75c-10.859-.825-21.336-6.862-26.965-16.184-9.053-14.994-4.492-34.428 2.745-50.379 14.318-31.559 29.158-61.607 4.862-92.851-9.874-12.7-23.109-22.839-36.6-30.851 9.421 23.172 24.618 72.909-16.99 78.892-8.931 1.284-18.323-.318-25.882-5.244-29.612-19.3-11.164-64.972.993-89.686 0 0-74.418-1.018-63.475 77.353 4.467 31.989 37.893 64.827 14.542 97.051-8.878 12.251-24.819 19.653-39.826 15.876-41.954-10.558-13.453-55.6-31.081-81.118-6.6-9.554-17.353-19.775-28.748-23.221a54.927 54.927 0 0 1 3.084 9.8c7.9 39.6-3.937 65.832-26.394 96.794-19.954 27.512-38.32 56.112-37.82 91.434.5 35.36 13.108 60.141 25.5 76.031L64 400l24 24h352l1.124-.941c44.7-37.445 56.35-102.556 25.047-151.758a89.012 89.012 0 0 0-7.41-10.151z" fill="#f35244"></path><path d="M337.159 350.841c-6.9-27.589 18.093-52.579 45.682-45.682 6.9 27.589-18.093 52.579-45.682 45.682z" fill="#f98500"></path><path d="M488 472v16H24v-16a40.015 40.015 0 0 1 40-40c.51-26.15 21.87-48.08 48.01-47.08A48.006 48.006 0 0 1 160 336a48 48 0 0 1 48-48h96a48 48 0 0 1 48 48 47.95 47.95 0 0 1 47.99 48.92c26.14-1 47.5 20.93 48.01 47.08a40 40 0 0 1 40 40z" fill="#95573a"></path><path d="m221.656 434.344-64-64-11.312 11.312L164.688 400H144v16h36.688l29.656 29.656z" fill="#7a3b1d"></path><path d="M488 472v16H129.99c104.84-24.39 181.67-70.91 237.07-149.59a48.035 48.035 0 0 1 32.93 46.51c26.14-1 47.5 20.93 48.01 47.08a40 40 0 0 1 40 40z" fill="#8f4d2e"></path><path d="M280 320h16v16h-16zM208 336h16v16h-16zM112 432h16v16h-16zM384 440h16v16h-16z" fill="#7a3b1d"></path><g fill="#ffb531"><path d="M64 272h16v32H64zM216 216h16v32h-16zM432 336h16v32h-16zM320 376h16v32h-16zM456 160h16v32h-16zM32 160h16v32H32z" fill="#ffb531"></path></g><path d="M286.841 438.841c-27.589 6.9-52.579-18.093-45.682-45.682 27.589-6.9 52.579 18.093 45.682 45.682z" fill="#f98500"></path></g></svg>