<svg fill-rule="evenodd" viewBox="0 0 7111 7111" xmlns="http://www.w3.org/2000/svg"><g><path d="M5177 6925H893c-272 0-494-221-494-494V495C399 222 621 0 893 0h3484c22 0 43 9 59 25l1211 1211c15 16 24 37 24 59v2945c0 45-36 82-80 83l-383 2441c84 34 60 161-31 161z" fill="#d6e3ff"></path><g fill="#c2c2ef"><path d="M4293 0h84c22 0 43 9 59 25l1211 1211c15 16 24 37 24 59v83h-883c-273 0-495-222-495-494z" fill="#c2c2ef" stroke="#c2c2ef" stroke-width="3"></path><path d="M5177 2019H3383c-46 0-83-38-83-84s37-83 83-83h1795c46 0 83 37 83 83s-37 84-84 84zM5177 2756H3383c-46 0-83-38-83-84s37-83 83-83h1795c46 0 83 37 83 83s-37 84-84 84zM5177 3492H3383c-46 0-83-37-83-83s37-84 83-84h1795c46 0 83 38 83 84s-37 83-84 83zM5177 4229H894c-46 0-83-38-83-84 0-45 37-83 83-83h4284c46 0 83 38 83 83 0 46-37 84-84 84zM4525 4965H894c-46 0-83-37-83-83s37-83 83-83h3631c46 0 83 37 83 83s-37 83-83 83zM4525 5702H894c-46 0-83-37-83-83s37-84 83-84h3631c46 0 83 38 83 84s-37 83-83 83zM4699 6439H894c-46 0-83-38-83-84s37-83 83-83h3805c46 0 84 37 84 83s-38 84-84 84z" fill="#c2c2ef"></path></g><path d="M1958 3492c-533 0-1030-306-1030-869 0-542 597-805 781-1198 14-30 43-48 76-48h346c32 0 62 19 75 48 186 393 781 657 781 1198 0 563-497 869-1029 869zM2142 1284h-362c-28 0-54-13-69-36-20-28-48-57-77-88-99-103-236-246-111-480 106-199 290-219 406-93 43 48 82 74 108 72 57-4 129-147 182-204 51-55 120-69 186-37 126 60 208 277 178 472-26 175-316 275-372 358-15 23-41 36-69 36z" fill="#b05f3b"></path><path d="M2307 1543h-699c-117 0-213-95-213-212 0-118 96-213 213-213h699c118 0 213 95 213 213 0 117-95 212-213 212z" fill="#d48859"></path><path d="M1958 3043c-46 0-84-37-84-83v-126c0-46 38-83 84-83s83 37 83 83v126c0 46-37 83-83 83zm0-768c-46 0-84-37-84-83v-126c0-46 38-83 84-83s83 37 83 83v126c0 46-37 83-83 83z" fill="#ffd08c"></path><path d="M1953 2917c-116 0-225-43-269-145-19-43 1-92 43-110s91 1 110 43c25 58 167 54 208 24 33-24 40-76-5-97-36-18-176-58-237-87-156-74-168-284-30-383 111-81 347-72 434 49 10 13 18 27 25 43 18 42-1 91-44 110-42 18-91-1-109-43-25-59-167-54-209-24-33 24-40 76 5 97 54 26 191 65 237 87 205 98 167 436-159 436z" fill="#ffd08c"></path><path d="M5577 7108c-8 0-16-1-23-3-300-89-578-272-784-515-210-248-325-538-325-817v-914c0-32 19-60 48-73 332-141 776-377 1030-615 30-29 78-29 108 0 253 238 698 474 1030 615 29 13 48 41 48 73v914c0 605-531 1167-1110 1332-7 2-15 3-22 3z" fill="#335f8c"></path><path d="M5577 6747c-9 0-17-1-25-4-423-138-808-548-808-991v-680c0-31 18-60 46-72 172-77 496-235 736-432 30-24 72-24 101 0 240 197 564 355 736 432 28 12 46 41 46 72v680c0 444-383 850-808 991-8 3-16 4-24 4z" fill="#5684b9"></path><path d="M5302 6032c-34 0-65-23-75-55l-103-325c-14-42 10-87 51-100 42-13 86 10 100 52l68 215 584-463c34-27 84-22 111 13 28 34 22 84-12 111l-674 535c-15 11-32 17-50 17z" fill="#ffffff"></path></g></svg>