<svg viewBox="0 0 512 512" xmlns="http://www.w3.org/2000/svg"><g><path d="M504.048 391.299 308.2 61.6c-10.8-19.201-30.301-30.601-52.2-30.601s-41.4 11.4-52.2 30.3L7.692 391.6c-10.501 18.9-10.201 41.1.601 59.7 10.8 18.6 30.298 29.7 51.599 29.7h392.257c21.301 0 40.8-11.1 51.599-29.7 10.801-18.601 11.101-40.8.3-60.001z" fill="#ffd400"></path><path d="M503.747 451.299c-10.8 18.6-30.298 29.7-51.599 29.7H256v-450c21.899 0 41.4 11.4 52.2 30.601l195.848 329.7c10.801 19.2 10.501 41.399-.301 59.999z" fill="#fdbf00"></path><path d="M226 345.999h60v60h-60zM226 165.999h60v150h-60z" fill="#4a696f"></path><path d="M256 165.999h30v150h-30zM256 345.999h30v60h-30z" fill="#3e5959"></path></g></svg>