<svg viewBox="0 0 512 512" xmlns="http://www.w3.org/2000/svg"><g><path d="M357.951 298.999c0-3.754-2.275-7.118-5.796-8.572-20.54-8.472-38.066-22.689-50.685-41.113-12.928-18.877-19.761-40.917-19.761-63.737V142.97c-16.54-7.096-34.757-11.031-53.896-11.031-75.568 0-136.828 61.26-136.828 136.828s61.26 136.828 136.828 136.828c60.785 0 112.303-39.641 130.137-94.479v-12.117z" fill="#fee45a"></path><path d="M151.954 268.767c0-65.089 45.45-119.559 106.344-133.415a137.235 137.235 0 0 0-30.484-3.413c-75.568 0-136.828 61.26-136.828 136.828s61.26 136.828 136.828 136.828c10.479 0 20.68-1.182 30.484-3.413-60.894-13.856-106.344-68.326-106.344-133.415zM227.814 87.945a7.499 7.499 0 0 1-7.5-7.5V51.02c0-4.143 3.357-7.5 7.5-7.5s7.5 3.357 7.5 7.5v29.426a7.499 7.499 0 0 1-7.5 7.499zM227.814 494.014a7.499 7.499 0 0 1-7.5-7.5v-29.425c0-4.143 3.357-7.5 7.5-7.5s7.5 3.357 7.5 7.5v29.425a7.5 7.5 0 0 1-7.5 7.5zM39.492 276.267H10.067c-4.143 0-7.5-3.357-7.5-7.5s3.357-7.5 7.5-7.5h29.425c4.143 0 7.5 3.357 7.5 7.5s-3.357 7.5-7.5 7.5zM133.66 113.177a7.497 7.497 0 0 1-6.502-3.751l-14.713-25.483a7.5 7.5 0 0 1 12.99-7.5l14.713 25.483a7.5 7.5 0 0 1-6.488 11.251zM336.694 464.843a7.497 7.497 0 0 1-6.502-3.751l-14.712-25.483a7.5 7.5 0 0 1 12.99-7.5l14.712 25.483a7.5 7.5 0 0 1-6.488 11.251zM39.247 385.142a7.5 7.5 0 0 1-3.757-13.996l25.482-14.713a7.5 7.5 0 0 1 7.5 12.99L42.99 384.136a7.476 7.476 0 0 1-3.743 1.006zM64.716 182.107a7.465 7.465 0 0 1-3.743-1.006L35.49 166.389a7.5 7.5 0 0 1 7.5-12.99l25.482 14.713a7.5 7.5 0 0 1-3.756 13.995zM118.934 464.843a7.5 7.5 0 0 1-6.488-11.251l14.713-25.483a7.498 7.498 0 0 1 10.245-2.745 7.5 7.5 0 0 1 2.745 10.245l-14.713 25.483a7.498 7.498 0 0 1-6.502 3.751z" fill="#fed402"></path><path d="M274.989 253.902h-40.42a1.756 1.756 0 0 1-1.734-2.033l12.78-79.838c.308-1.927-2.285-2.844-3.257-1.152l-63.242 110.122c-.672 1.171.173 2.63 1.523 2.63h40.42c1.081 0 1.905.967 1.734 2.033l-12.78 79.838c-.308 1.927 2.285 2.844 3.257 1.152l63.242-110.122c.672-1.17-.173-2.63-1.523-2.63z" fill="#fe9738"></path><path d="m201.266 281.001 37.305-64.958 7.045-44.012c.308-1.927-2.285-2.844-3.257-1.152l-63.242 110.122c-.672 1.171.173 2.63 1.523 2.63h22.149c-1.351.001-2.196-1.459-1.523-2.63zM244.942 285.665a1.755 1.755 0 0 0-1.734-2.033h-22.149c1.081 0 1.905.967 1.734 2.033l-12.78 79.838c-.308 1.927 2.285 2.844 3.257 1.152l25.937-45.164z" fill="#fe860a"></path><path d="M371.74 345.345v161.504a5.15 5.15 0 0 0 5.151 5.151h36.361a5.15 5.15 0 0 0 5.151-5.151V345.345z" fill="#cbe5e8"></path><path d="M393.673 506.849V345.345H371.74v161.504a5.15 5.15 0 0 0 5.151 5.151h21.933a5.15 5.15 0 0 1-5.151-5.151z" fill="#a8d3d8"></path><path d="M344.724 105.362V19.774C344.724 8.853 335.871 0 324.95 0c-10.921 0-19.773 8.853-19.773 19.774v85.589h39.547z" fill="#cbe5e8"></path><path d="M324.651 105.362V19.774c0-7.377 4.048-13.799 10.036-17.198A19.664 19.664 0 0 0 324.95 0c-10.921 0-19.774 8.853-19.774 19.774v85.589h19.475z" fill="#a8d3d8"></path><path d="M484.966 105.362V19.774C484.966 8.853 476.113 0 465.192 0c-10.92 0-19.773 8.853-19.773 19.774v85.589h39.547z" fill="#cbe5e8"></path><path d="M464.894 105.362V19.774c0-7.377 4.048-13.799 10.036-17.198A19.665 19.665 0 0 0 465.192 0c-10.92 0-19.773 8.853-19.773 19.774v85.589h19.475z" fill="#a8d3d8"></path><path d="M288.951 104.363a8.24 8.24 0 0 0-8.241 8.241v72.972c0 47.594 29.474 88.62 71.064 105.776 3.114 1.284 5.177 4.279 5.177 7.647v39.104a8.24 8.24 0 0 0 8.241 8.241h59.758a8.24 8.24 0 0 0 8.241-8.241v-39.104c0-3.368 2.064-6.362 5.177-7.647 41.59-17.156 71.064-58.182 71.064-105.776v-72.972a8.24 8.24 0 0 0-8.241-8.241z" fill="#7ca1b1"></path><path d="M392.651 281.686c0-3.368-2.064-6.362-5.177-7.647-41.59-17.156-71.064-58.182-71.064-105.776v-63.901h-27.458a8.24 8.24 0 0 0-8.241 8.241v72.972c0 47.593 29.474 88.62 71.064 105.776 3.114 1.284 5.177 4.279 5.177 7.647v39.104a8.24 8.24 0 0 0 8.241 8.241h27.458z" fill="#678d98"></path></g></svg>