<svg viewBox="0 0 72 72" xmlns="http://www.w3.org/2000/svg"><g><path d="M52.028 25.269h-3.055L45.755 8.71l3.263-.928a3.392 3.392 0 0 1 4.281 2.731l1.76 11.211a3.068 3.068 0 0 1-3.03 3.544z" fill="#333077"></path><path d="M70.096 68H41.533l-1.216-18.573c-.207-1.938-.737-5.75-.408-9.69.372-4.47 2.99-8.346 6.794-10.456.944-.529 1.953-.943 3.025-1.23l4.334-1.158c.007-.007.014-.007.014-.007l1.717-.458c3.504-.78 8.317-1.595 10.134 1.495 1.022 1.738 1.766 7.116 2.352 13.595.809 8.968 1.31 20.046 1.817 26.482z" fill="#78d7a6"></path><path d="M47.11 30.145s-2.673 5.694-3.046 7.74c-1.35 7.407.43 30.115.43 30.115h-2.961l-1.216-18.573c-.207-1.938-.737-5.75-.408-9.69.372-4.47 2.99-8.346 6.794-10.456zM70.096 68H51.842c-1.487-9.59-4.045-35.693-3.944-37.074.114-1.637 5.807-3.897 6.164-4.033.007-.007.014-.007.014-.007l1.717-.458c3.504-.78 8.317-1.595 10.134 1.495 1.022 1.738 1.766 7.116 2.352 13.595.809 8.968 1.31 20.046 1.817 26.482z" fill="#edf5fc"></path><path d="M70.096 68h-3.511a10.55 10.55 0 0 1-.258-1.616c-.2-2.21-.129-4.442-.465-6.637-.336-2.195-1.137-4.412-2.775-5.907-2.295-2.103-5.678-2.367-8.789-2.525-3.354 0-6.558-.279-9.869.487 4.277-2.089 8.389-4.613 12.551-6.916 2.482-1.366 5.02-2.753 7.81-3.275a10.782 10.782 0 0 1 3.49-.093c.808 8.968 1.308 20.046 1.816 26.482z" fill="#c7dafa"></path><path d="M47.948 56.82H2.967a1.063 1.063 0 0 1-1.063-1.063v-4.074c0-.587.476-1.063 1.063-1.063h44.981c.587 0 1.063.476 1.063 1.063v4.074c0 .587-.476 1.063-1.063 1.063zM3.78 56.822h43.36V68H3.78z" fill="#387094"></path><path d="M3.781 56.819h43.357v1.044H3.781z" fill="#315a79"></path><path d="m32.772 22.075 1.774 1.29-6.387 8.787-1.774-1.289z" fill="#424357"></path><path d="m30.153 24.399 2.99 2.172-6.28 8.64-2.989-2.173z" fill="#e6ecec"></path><path d="m24.483 33.48 1.774 1.29-1.611 2.216-1.775-1.29z" fill="#dce0e3"></path><path d="m32.98 20.735 2.778 2.019-.905 1.244-2.777-2.019z" fill="#e6ecec"></path><path d="m28.012 44.965-10.888-8.23a.839.839 0 0 1 1.012-1.338l10.872 8.219a3.31 3.31 0 0 0 4.282-.359 3.332 3.332 0 0 0 0-4.706l-5.176-5.176a.838.838 0 1 1 1.186-1.186l5.176 5.176a5.011 5.011 0 0 1 0 7.078 4.986 4.986 0 0 1-6.464.522z" fill="#424357"></path><circle cx="22.749" cy="42.915" fill="#424357" r="3.075"></circle><path d="M22.068 45.07h1.747v2.702h-1.747zM29.301 50.62H12.214v-1.205l9.854-1.642h1.747l5.486 1.642z" fill="#424357"></path><circle cx="28.218" cy="32.712" fill="#424357" r="2.567"></circle><path d="m54.076 26.886-5.347 3.743a1.643 1.643 0 0 1-2.519-.884l-.372-1.272-2.224-7.552 6.765-2.631.658-.258z" fill="#f9c4c0"></path><path d="M51.051 21.45a7.35 7.35 0 0 1-4.898 6.93c-.108.036-.208.072-.315.093l-2.224-7.552 6.765-2.631.25.7c.287.816.422 1.645.422 2.46z" fill="#fd9997"></path><path d="M51.28 19.899a7.35 7.35 0 0 1-4.899 6.93 7.353 7.353 0 0 1-9.39-4.477l-1.537-4.334c-1.352-3.833.65-8.038 4.484-9.39 3.833-1.359 8.031.65 9.39 4.484l1.53 4.327c.286.815.422 1.644.422 2.46z" fill="#f9c4c0"></path><path d="M38.78 23.136c.439 1.203 1.55 1.954 2.64 1.706s1.767-1.405 1.64-2.68z" fill="#ffffff"></path><path d="M42.474 17.258c.181.547-.002 1.098-.414 1.234-.406.134-.882-.198-1.063-.745-.18-.542.004-1.092.41-1.227.412-.136.888.196 1.067.738zM37.893 18.633c.16.484-.002.97-.366 1.091-.36.119-.78-.175-.94-.659-.158-.478.004-.965.363-1.084.364-.12.785.174.943.652z" fill="#424357"></path><path d="m49.085 7.36 1.65 3.996-14.905 5.4a5.644 5.644 0 0 1-7.37-3.063 3.665 3.665 0 0 1 1.989-4.787l13.14-4.672c1.984-.82 4.445.58 5.496 3.126z" fill="#333077"></path><path d="M51.859 14.464a2.018 2.018 0 0 1-1.224 2.588l-1.35-3.816a2.014 2.014 0 0 1 2.574 1.228z" fill="#f9c4c0"></path><path d="m48.805 11.593 1.647 4.804-.098.034a1.327 1.327 0 0 1-1.687-.821l-1.218-3.552z" fill="#333077"></path><path d="M57.54 30.526a3.991 3.991 0 0 1 3.393-4.794 5.653 5.653 0 0 1 6.359 5.18l2.247 13.557a5.287 5.287 0 0 1-5.215 6.151H36.518l.68-7.144 22.698-1.936z" fill="#edf5fc"></path><path d="M39.814 43.252c1.665-.24 3.331-.47 5.002-.652 1.669-.19 3.337-.391 5.01-.536l5.018-.464 5.025-.38-.287.387c-.284-1.427-.533-2.861-.8-4.292a150.147 150.147 0 0 1-.712-4.31 150.9 150.9 0 0 1 1.115 4.224c.341 1.415.7 2.825 1.026 4.243l.08.353-.368.035-5.016.476-5.024.392c-1.673.141-3.352.224-5.03.32-1.676.104-3.357.16-5.039.204z" fill="#c7dafa"></path><path d="m37.199 43.477-.68 7.145h-7.337a2.739 2.739 0 0 1-.358-5.457l5.908-.78-1.016-.665a1.057 1.057 0 0 1-.4-1.251 1.051 1.051 0 0 1 1.566-.515z" fill="#f9c4c0"></path></g></svg>