<svg id="Layer_1" enable-background="new 0 0 512 512" height="512" viewBox="0 0 512 512" width="512" xmlns="http://www.w3.org/2000/svg"><g><g><path d="m83.896 291.941c-9.883.001-18.214-7.66-18.9-17.667l-5.916-86.255c-.493-7.178 3.121-14.018 9.328-17.657l21.961-13.014 21.524 11.201-2.445 21.717-11.725 6.875 5.112 74.538c.717 10.449-7.173 19.501-17.622 20.217-.442.03-.881.045-1.317.045z" fill="#ffb69e"/></g><g><path d="m164.419 136.051c-5.298-9.035-16.917-12.065-25.951-6.768l-48.1 28.064 19.079 32.918 48.205-28.263c9.035-5.297 12.065-16.915 6.767-25.951z" fill="#4699f2"/></g><path d="m492.742 24.862h-165.711c-10.636 0-19.258 8.622-19.258 19.258v423.76c0 10.636 8.622 19.258 19.258 19.258h165.711c10.636 0 19.258-8.622 19.258-19.258v-423.76c0-10.636-8.622-19.258-19.258-19.258z" fill="#46738c"/><g id="XMLID_1364_"><path d="m22.734 410.126c-10.871 0-20.488-7.815-22.399-18.892-2.136-12.386 6.172-24.158 18.557-26.295l82.02-14.15 3.43-55.962 23.004-9.301 22.468 16.766-4.701 69.419c-.709 10.474-8.491 19.103-18.836 20.888l-99.647 17.192c-1.309.226-2.612.335-3.896.335z" fill="#5f6e9b"/></g><g id="XMLID_1363_"><path d="m236.488 487.138c-11.495 0-21.368-8.681-22.603-20.367l-11.071-104.734-33.609-71.297c-5.359-11.369-.487-24.929 10.881-30.288 11.37-5.357 24.93-.487 30.288 10.881l35.25 74.779c1.086 2.305 1.778 4.777 2.046 7.311l11.476 108.562c1.321 12.499-7.74 23.702-20.239 25.023-.811.088-1.62.13-2.419.13z" fill="#414b82"/></g><path d="m209.534 134.851-56.276-7.927c-13.683-1.927-26.338 7.603-28.265 21.286l-20.651 146.618 62.953 10.336c23.515 3.861 45.591-12.415 48.857-36.02l14.669-106.027c1.926-13.684-7.604-26.339-21.287-28.266z" fill="#64afff"/><ellipse cx="203.865" cy="77.013" fill="#ffb69e" rx="41.817" ry="41.817" transform="matrix(.707 -.707 .707 .707 5.254 166.711)"/><g><path d="m254.683 203.896c-2.047 0-4.117-.332-6.132-1.021l-27.42-9.509-2.52-21.635 15.305-14.027 13.807 4.803 37.393-50.319c6.246-8.407 18.127-10.157 26.532-3.91 8.407 6.247 10.157 18.126 3.91 26.532l-45.65 61.431c-3.649 4.911-9.343 7.655-15.225 7.655z" fill="#ffb69e"/></g><g><path d="m233.917 157.704-44.114-15.347c-9.91-3.39-20.691 1.898-24.079 11.808-3.389 9.91 1.898 20.691 11.808 24.08l43.6 15.121z" fill="#4699f2"/></g><path d="m434.357 255.073-52.875-41.186c-5.543-4.318-13.627-.368-13.627 6.659v13.31h-71.489c-4.967 0-8.993 4.026-8.993 8.993v37.765c0 4.967 4.026 8.993 8.993 8.993h71.489v13.31c0 7.026 8.083 10.976 13.627 6.659l52.875-41.186c4.338-3.379 4.338-9.938 0-13.317z" fill="#e64937"/></g></svg>