<svg viewBox="0 0 64 64" xmlns="http://www.w3.org/2000/svg"><g><path d="M54 31v2H43v9c0 .55.45 1 1 1h6v2h-6c-1.65 0-3-1.35-3-3v-9h-8v6h3c1.65 0 3 1.35 3 3v6h-2v-6c0-.55-.45-1-1-1h-8c-.55 0-1 .45-1 1v12h-2v-9h-7v-2h7v-1c0-1.65 1.35-3 3-3h3v-6H10v-2h11v-9c0-.55-.45-1-1-1h-6v-2h6c1.65 0 3 1.35 3 3v9h8v-6h-3c-1.65 0-3-1.35-3-3v-6h2v6c0 .55.45 1 1 1h8c.55 0 1-.45 1-1V10h2v9h7v2h-7v1c0 1.65-1.35 3-3 3h-3v6z" fill="#fab400"></path><g fill="#dc9600"><path d="M21 44c0 .34-.03.68-.1 1H18v-2h2.9c.07.32.1.66.1 1zM37 32c0 .34-.03.68-.1 1H33v3.9c-.32.07-.66.1-1 .1s-.68-.03-1-.1V33h-3.9c-.07-.32-.1-.66-.1-1s.03-.68.1-1H31v-3.9c.32-.07.66-.1 1-.1s.68.03 1 .1V31h3.9c.07.32.1.66.1 1zM50 43v2h-2.9c-.07-.32-.1-.66-.1-1s.03-.68.1-1zM17 20c0 .34-.03.68-.1 1H14v-2h2.9c.07.32.1.66.1 1zM13 32c0 .34-.03.68-.1 1H10v-2h2.9c.07.32.1.66.1 1zM54 31v2h-2.9c-.07-.32-.1-.66-.1-1s.03-.68.1-1zM27 51.1V54h-2v-2.9c.32-.07.66-.1 1-.1s.68.03 1 .1zM39 45.1V48h-2v-2.9c.32-.07.66-.1 1-.1s.68.03 1 .1zM39 10v2.9c-.32.07-.66.1-1 .1s-.68-.03-1-.1V10zM27 16v2.9c-.32.07-.66.1-1 .1s-.68-.03-1-.1V16zM46 19v2h-2.9c-.07-.32-.1-.66-.1-1s.03-.68.1-1z" fill="#dc9600"></path></g><circle cx="16" cy="44" fill="#01a0c8" r="4"></circle><circle cx="16" cy="44" fill="#f0f0f0" r="2"></circle><circle cx="32" cy="32" fill="#0a5078" r="4"></circle><circle cx="32" cy="32" fill="#f0f0f0" r="2"></circle><circle cx="52" cy="44" fill="#0a5078" r="4"></circle><circle cx="52" cy="44" fill="#f0f0f0" r="2"></circle><circle cx="12" cy="20" fill="#0a5078" r="4"></circle><circle cx="12" cy="20" fill="#f0f0f0" r="2"></circle><circle cx="8" cy="32" fill="#c80a50" r="4"></circle><circle cx="8" cy="32" fill="#f0f0f0" r="2"></circle><circle cx="56" cy="32" fill="#c80a50" r="4"></circle><circle cx="56" cy="32" fill="#f0f0f0" r="2"></circle><circle cx="26" cy="56" fill="#c80a50" r="4"></circle><circle cx="26" cy="56" fill="#f0f0f0" r="2"></circle><circle cx="38" cy="50" fill="#01a0c8" r="4"></circle><circle cx="38" cy="50" fill="#f0f0f0" r="2"></circle><circle cx="38" cy="8" fill="#c80a50" r="4"></circle><circle cx="38" cy="8" fill="#f0f0f0" r="2"></circle><circle cx="26" cy="14" fill="#01a0c8" r="4"></circle><circle cx="26" cy="14" fill="#f0f0f0" r="2"></circle><circle cx="48" cy="20" fill="#01a0c8" r="4"></circle><circle cx="48" cy="20" fill="#f0f0f0" r="2"></circle></g></svg>