<svg viewBox="0 0 64 64" xmlns="http://www.w3.org/2000/svg"><g><path d="M40 60v-4.185a4 4 0 0 1 1.366-3.01l13.951-12.207c.434-.38.683-.929.683-1.506v-.685c0-1.718-2.024-2.637-3.317-1.505L41.131 47.01a4 4 0 0 1-2.634.99H36l-4 4-4-4h-2.497a4 4 0 0 1-2.634-.99L11.317 36.902C10.024 35.771 8 36.689 8 38.408v.685a2 2 0 0 0 .683 1.505l13.951 12.207A4.001 4.001 0 0 1 24 55.815V60z" fill="#505050"></path><path d="M28 48v-4.343h8V48l-4 4.343z" fill="#d2aa82"></path><path d="M42 34h-2v-6a2 2 0 0 0-2-2H26a2 2 0 0 0-2 2v6h-2a2 2 0 0 0-2 2v.764a2 2 0 0 0 1.106 1.789L24 40v.343c0 1.061.421 2.078 1.172 2.828l1.657 1.657A4.001 4.001 0 0 0 29.657 46h4.686a3.995 3.995 0 0 0 2.828-1.172l1.657-1.657A4.001 4.001 0 0 0 40 40.343V40l2.894-1.447A2 2 0 0 0 44 36.764V36a2 2 0 0 0-2-2z" fill="#f0c8a0"></path><path d="M42 36a4 4 0 0 1-4-4v-6h2a2 2 0 0 1 2 2z" fill="#dc9600"></path><path d="M36 22h-8a6 6 0 0 0-6 6v4a2 2 0 0 0 2 2h5.029c3.183 0 6.235-1.264 8.485-3.515l1.314-1.314A4.001 4.001 0 0 0 40 26.343V26a4 4 0 0 0-4-4z" fill="#fab400"></path><path d="M30 36.5h-4a.5.5 0 0 1 0-1h4a.5.5 0 0 1 0 1zM32 42.5c-.668 0-1.296-.26-1.768-.732l-.586-.585a.5.5 0 0 1 .707-.707l.586.585c.566.566 1.555.566 2.121 0l.586-.585a.5.5 0 0 1 .707.707l-.586.585A2.48 2.48 0 0 1 32 42.5z" fill="#be7800"></path><circle cx="29" cy="37" fill="#be7800" r="1"></circle><path d="M38 36.5h-4a.5.5 0 0 1 0-1h4a.5.5 0 0 1 0 1z" fill="#be7800"></path><circle cx="35" cy="37" fill="#be7800" r="1"></circle><path d="m16 41-4.683-4.098C10.024 35.771 8 36.689 8 38.408v.685a2 2 0 0 0 .683 1.505L16 47z" fill="#f0c8a0"></path><path d="M14 40h-2v-3a1 1 0 0 1 2 0z" fill="#f0c8a0"></path><path d="M14 45.25 16 47v-6l-2-1.75z" fill="#f0f0f0"></path><path d="m48 41 4.683-4.098C53.976 35.771 56 36.689 56 38.408v.685a2 2 0 0 1-.683 1.505L48 47z" fill="#f0c8a0"></path><path d="M50 40h2v-3a1 1 0 0 0-2 0z" fill="#f0c8a0"></path><path d="M50 45.25 48 47v-6l2-1.75zM28 48v6l4 4 4-4v-6l-4 4z" fill="#f0f0f0"></path><path d="m34 54-2-2-2 2 1 1-1 1 2 2 2-2-1-1zM50 32V16h2l-4-4-4 4h2v16zM18 32V16h2l-4-4-4 4h2v16z" fill="#fa6450"></path><path d="M32 16a4 4 0 1 1 0-8 4 4 0 0 1 0 8z" fill="#fab400"></path><path d="M30 12a3.991 3.991 0 0 1 3-3.859A3.977 3.977 0 0 0 32 8a4 4 0 0 0 0 8c.347 0 .679-.058 1-.141-1.722-.447-3-1.997-3-3.859z" fill="#dc9600"></path><path d="M31.5 4h1v2h-1zM31.5 18h1v2h-1zM35.885 7.406l1.414-1.414.707.707-1.414 1.414zM25.985 17.305 27.4 15.89l.707.707-1.414 1.414zM38 11.5h2v1h-2zM24 11.5h2v1h-2zM35.884 16.598l.707-.707 1.414 1.414-.707.707zM25.986 6.698l.707-.707 1.414 1.414-.707.707z" fill="#fab400"></path></g></svg>