<svg viewBox="0 0 512.001 512.001" xmlns="http://www.w3.org/2000/svg"><g><path d="m256.568 411.654-27.596-74.255a21.11 21.11 0 0 1 6.406-23.681l58.306-47.787c9.018-7.389 22.319-6.071 29.709 2.946 7.391 9.018 6.071 22.318-2.945 29.709l-46.649 38.233 22.346 60.127c4.061 10.929-1.505 23.081-12.434 27.142-10.929 4.062-23.081-1.503-27.143-12.434zM383.902 408.648c-10.541-4.981-15.048-17.565-10.066-28.106l34.131-71.013h-48.603c-11.63-.816-20.398-10.904-19.582-22.535.815-11.63 10.902-20.408 22.535-19.582l78.048 2.984c14.789 1.036 23.749 17.933 17.401 31.363l-45.757 96.822c-4.99 10.558-17.582 15.042-28.107 10.067z" fill="#464d7f"></path><path d="M507.02 117.623c-4.935-8.369-15.722-11.156-24.089-6.218l-53.229 31.746H291.095l-38.19-22.909 20.171-59.079c3.14-9.194-1.77-19.194-10.964-22.332-9.193-3.136-19.193 1.77-22.332 10.964l-24.765 72.535a17.592 17.592 0 0 0 7.599 20.77l66.022 39.605V309.53h93.17V178.04h52.592c3.143 0 6.228-.842 8.935-2.438l57.471-33.889c8.367-4.936 11.15-15.721 6.216-24.09z" fill="#a66749"></path><path d="M507.02 117.623c-4.935-8.369-15.722-11.156-24.089-6.218l-53.229 31.746H291.095l-38.19-22.909 20.171-59.079c3.14-9.194-1.77-19.194-10.964-22.332-9.193-3.136-19.193 1.77-22.332 10.964l-24.765 72.535a17.592 17.592 0 0 0 7.599 20.77l66.022 39.605V309.53h93.17V178.04h52.592c3.143 0 6.228-.842 8.935-2.438l57.471-33.889c8.367-4.936 11.15-15.721 6.216-24.09z" fill="#a66749"></path><path d="M353.51 143.151c.002.042.009.082.011.125.432 9.667-8.537 17.901-17.901 17.901-10.036 0-17.467-8.203-17.901-17.901-.002-.042.003-.082.002-.125h-26.625l-33.086-19.846-17.758 30.376 48.383 29.023v126.825h93.17v-131.49h37.501v-34.888H353.51z" fill="#7eadfc"></path><circle cx="337.56" cy="92.145" fill="#a66749" r="36.46"></circle><path d="m439.445 26.825 59.553 89.997c3.351 5.065 1.962 11.887-3.102 15.239-5.064 3.352-11.887 1.962-15.239-3.102-.206-.31-.399-.642-.569-.964L429.99 32.412a5.498 5.498 0 0 1 2.317-7.422c2.515-1.319 5.597-.475 7.138 1.835zM356.085 10.301 261.843 62.88c-5.303 2.958-12.002 1.058-14.961-4.246-2.958-5.303-1.058-12.002 4.246-14.961.325-.181.669-.349 1.004-.495L351.228.45a5.5 5.5 0 0 1 7.227 2.872c1.124 2.607.05 5.618-2.37 6.979z" fill="#5a2d19"></path><path d="M290.264 338.096c6.066 0 10.982-4.916 10.982-10.982 0-6.066-4.917-10.982-10.982-10.982V259.95c6.066 0 10.982-4.917 10.982-10.982 0-6.066-4.917-10.982-10.982-10.982H173.051c-6.066 0-10.982 4.916-10.982 10.982 0 6.066 4.916 10.982 10.982 10.982v56.182c-6.066 0-10.982 4.916-10.982 10.982 0 6.066 4.916 10.982 10.982 10.982h47.624v81.907l-54.816 54.7c-4.289 4.289-4.288 11.243 0 15.532 4.289 4.289 11.243 4.288 15.532 0l50.276-50.281 50.267 50.28a10.948 10.948 0 0 0 7.767 3.217c2.809 0 5.62-1.072 7.765-3.216 4.289-4.288 4.29-11.242.001-15.532l-54.826-54.701v-81.907h47.624v.001z" fill="#738c96"></path><path d="m297.467 474.704-54.826-54.701h-21.964l-54.816 54.7c-4.289 4.289-4.288 11.243 0 15.532 4.289 4.289 11.243 4.288 15.532 0l50.276-50.281 50.267 50.28a10.948 10.948 0 0 0 7.767 3.217c2.809 0 5.62-1.072 7.765-3.216 4.287-4.287 4.287-11.241-.001-15.531z" fill="#c8e6eb"></path><path d="M290.264 316.132V259.95c6.066 0 10.982-4.917 10.982-10.982 0-6.066-4.917-10.982-10.982-10.982H173.051c-6.066 0-10.982 4.916-10.982 10.982s4.916 10.982 10.982 10.982v56.182c-6.066 0-10.982 4.916-10.982 10.982 0 6.066 4.916 10.982 10.982 10.982h117.212c6.066 0 10.982-4.916 10.982-10.982.001-6.066-4.917-10.982-10.981-10.982z" fill="#dd3e3e"></path><path d="M290.264 338.096H173.051c-6.066 0-10.982-4.916-10.982-10.982 0-6.066 4.916-10.982 10.982-10.982h117.212c6.066 0 10.982 4.916 10.982 10.982.001 6.066-4.917 10.982-10.981 10.982zM290.264 259.95H173.051c-6.066 0-10.982-4.917-10.982-10.982 0-6.066 4.916-10.982 10.982-10.982h117.212c6.066 0 10.982 4.916 10.982 10.982.001 6.065-4.917 10.982-10.981 10.982z" fill="#c8e6eb"></path><path d="M407.25 460.596c-6.065 0-10.982-4.917-10.982-10.982V207.909c0-6.066 4.917-10.982 10.982-10.982s10.982 4.917 10.982 10.982v241.704c0 6.066-4.917 10.983-10.982 10.983z" fill="#738c96"></path><path d="m487.867 474.702-69.551-69.551h-22.134l-69.559 69.551c-4.289 4.288-4.289 11.242 0 15.532a10.946 10.946 0 0 0 7.766 3.216 10.95 10.95 0 0 0 7.766-3.216l54.112-54.107 21.964.001 54.104 54.105c4.29 4.29 11.243 4.289 15.532 0 4.29-4.287 4.29-11.242 0-15.531z" fill="#c8e6eb"></path><path d="M504.471 210.214a2.95 2.95 0 0 1 .545 5.809l-189.811 46.833a2.95 2.95 0 0 1-2.219-5.394l30.293-18.094a178.758 178.758 0 0 1 48.842-20.087l24.538-6.055a178.695 178.695 0 0 1 52.578-4.937l35.234 1.925z" fill="#ffd23c"></path><path d="M275.747 183.39c-4.784-9.408-16.289-13.157-25.696-8.374l-49.54 25.187a3092.7 3092.7 0 0 0-4.794-22.749c-5.39-24.939-22.972-41.055-44.791-41.055H48.133c-24.811 0-45.097 20.186-45.223 44.938l-.368 45.851a19.109 19.109 0 0 0 8.087 15.764l38.082 26.891v49.689h101.22V174.619h.995c4.934 0 7.193 9.791 7.434 10.909 3.617 16.736 9.695 46.577 9.756 46.876 2.527 12.419 16.191 18.914 27.387 13.222l71.871-36.541c9.406-4.784 13.156-16.287 8.373-25.695zM48.711 223.057l-7.87-5.558.288-35.912c.019-3.842 3.161-6.969 7.004-6.969h.579v48.438h-.001z" fill="#edb59e"></path><path d="M275.747 183.39c-4.784-9.408-16.289-13.157-25.696-8.374l-49.54 25.187a3092.7 3092.7 0 0 0-4.794-22.749c-5.39-24.939-22.972-41.055-44.791-41.055H48.133c-24.811 0-45.097 20.186-45.223 44.938l-.368 45.851a19.109 19.109 0 0 0 8.087 15.764l65.644 46.354c8.621 6.088 20.546 4.034 26.633-4.587 6.087-8.621 4.034-20.546-4.587-26.633l-57.478-40.587.288-35.912c.019-3.842 3.161-6.969 7.004-6.969h102.793c4.934 0 7.193 9.791 7.434 10.909 3.617 16.736 9.695 46.577 9.756 46.876 2.527 12.419 16.191 18.914 27.387 13.222l71.871-36.541c9.406-4.783 13.156-16.286 8.373-25.694z" fill="#edb59e"></path><path d="M117.333 280.816a12.664 12.664 0 0 1-9.996-4.864c-4.321-5.516-3.352-13.49 2.164-17.812L264.01 137.09c5.514-4.32 13.49-3.353 17.812 2.164 4.322 5.516 3.353 13.49-2.164 17.812l-154.509 121.05a12.633 12.633 0 0 1-7.816 2.7z" fill="#783c28"></path><path d="M118.739 136.399c.305 10.574-9.522 19.531-19.79 19.531-11.006 0-19.167-8.923-19.77-19.531H48.711v183.133h101.22V136.399h-31.192z" fill="#55879b"></path><path d="M48.74 319.139c-.002.132-.02.26-.02.392v169.536c0 12.664 10.267 22.932 22.932 22.932s22.932-10.267 22.932-22.932V319.532c0-.132-.018-.26-.02-.392l-45.824-.001z" fill="#283162"></path><path d="m178.725 371.702-28.794-52.562H97.495l38.478 69.997 4.752 101.01c.591 12.564 11.242 22.425 23.984 21.829 12.651-.595 22.424-11.334 21.829-23.984l-5.002-106.32a22.939 22.939 0 0 0-2.811-9.97z" fill="#23274a"></path><path d="M139.447 317.524c.978-12.848 10.64-23.373 23.362-25.411 5.45-.873 10.561-2.993 14.97-6.448 17.209-13.483 17.242-42.18.071-64.095-17.17-21.917-45.041-28.753-62.251-15.27-4.41 3.455-7.691 7.909-9.844 12.992-5.033 11.887-17.532 18.73-30.264 16.602-13.712-2.292-27.137.348-37.636 8.573-23.321 18.27-23.363 57.157-.096 86.856 23.267 29.699 61.035 38.963 84.354 20.692 10.502-8.225 16.278-20.629 17.334-34.491z" fill="#b48255"></path><circle cx="99.527" cy="84.173" fill="#edb59e" r="39.605"></circle><circle cx="125.777" cy="261.514" fill="#501e0f" r="16.564"></circle><path d="m81.4 328.078-30.881-39.417c-3.458-4.413-2.683-10.793 1.73-14.25 4.413-3.457 10.792-2.683 14.25 1.731L97.38 315.56c3.457 4.413 2.683 10.792-1.73 14.25-4.423 3.464-10.8 2.671-14.25-1.732zM273.563 179.727a10.134 10.134 0 0 1-7.997-3.891l-23.153-29.552c-3.457-4.413-2.683-10.793 1.731-14.25 4.412-3.457 10.791-2.683 14.25 1.73l23.153 29.552c3.457 4.413 2.683 10.792-1.73 14.25a10.118 10.118 0 0 1-6.254 2.161zM254.385 194.749a10.13 10.13 0 0 1-7.997-3.891l-23.152-29.551c-3.457-4.413-2.683-10.792 1.731-14.25 4.414-3.457 10.792-2.683 14.25 1.731l23.152 29.551c3.457 4.413 2.683 10.792-1.73 14.25a10.115 10.115 0 0 1-6.254 2.16z" fill="#501e0f"></path><path d="M98.318 258.086 40.84 217.499l.288-35.912c.019-3.842 3.161-6.969 7.004-6.969h.536v-38.22h-.536c-24.811 0-45.097 20.186-45.223 44.938l-.368 45.851a19.109 19.109 0 0 0 8.087 15.764l65.644 46.354c8.621 6.088 20.546 4.034 26.633-4.587 6.088-8.621 4.035-20.545-4.587-26.632z" fill="#edb59e"></path></g></svg>