<svg viewBox="0 0 64 64" xmlns="http://www.w3.org/2000/svg"><g><path d="m44.086 15.606 5.037 12.475L61 21.762z" fill="#a0e6fc"></path><path d="m59.891 16.037-11.276-4.104-4.529 3.673L61 21.762z" fill="#b4f1ff"></path><path d="m52.373 13.301 3.759 1.368-.3 5.212-6.578-2.394z" fill="#ccf6ff"></path><path d="m55.832 19.881-6.578-2.394-.131 10.594z" fill="#b4f1ff"></path><path d="m3 21.762 11.877 6.319 5.037-12.475z" fill="#a0e6fc"></path><path d="M15.385 11.933 4.109 16.037 3 21.762l16.914-6.156z" fill="#b4f1ff"></path><path d="m46.746 22.96 7.52 2.736a2 2 0 0 1 1.196 2.564l-1.539 4.23-11.28-4.104 1.54-4.23a2 2 0 0 1 2.563-1.196z" fill="#ffe671"></path><path d="M26.052 38.839a18 18 0 1 0 23.071-10.758 18 18 0 0 0-23.071 10.758zm3.759 1.368a14 14 0 1 1 8.367 17.944 14 14 0 0 1-8.367-17.944z" fill="#fff698"></path><path d="m11.627 13.301-3.759 1.368.3 5.212 6.578-2.394z" fill="#ccf6ff"></path><path d="m8.168 19.881 6.578-2.394.131 10.594z" fill="#b4f1ff"></path><path d="m21.368 28.37-11.28 4.104-1.539-4.23a2 2 0 0 1 1.196-2.564l7.52-2.736a2 2 0 0 1 2.564 1.196l1.54 4.23z" fill="#f7d955"></path><path d="M14.877 28.081a18 18 0 1 0 23.071 10.758 18 18 0 0 0-23.071-10.758zm10.945 30.07a14 14 0 1 1 8.367-17.944 14 14 0 0 1-8.367 17.944z" fill="#ffe671"></path><path d="M29.811 40.207a14 14 0 0 0 8.367 17.944L36.81 61.91a18 18 0 0 1-10.758-23.071z" fill="#fff698"></path><path d="M27.909 1A4.9 4.9 0 0 1 32 3.2a4.908 4.908 0 0 1 9 2.711C41 12.455 32 17 32 17s-9-4.545-9-11.091A4.909 4.909 0 0 1 27.909 1z" fill="#ff6291"></path><path d="M36.091 1A4.9 4.9 0 0 0 32 3.2a4.908 4.908 0 0 0-1.391-1.35c-2.43.325-4.5 2.311-4.609 4.059-.294 4.862 4.83 8.626 7.472 10.236C36.023 14.537 41 10.778 41 5.909A4.909 4.909 0 0 0 36.091 1z" fill="#f64b78"></path></g></svg>