<svg viewBox="0 0 512 512" xmlns="http://www.w3.org/2000/svg"><g><path d="m503.74 225.084 2.568 7.055a84.13 84.13 0 0 1-.989 60.154l-13.277 33.115 19.342 53.141c1.91 5.247-.796 11.05-6.043 12.96l-129.936 47.293c-5.247 1.91-11.05-.796-12.96-6.043l-19.342-53.141-26.907-29.395a130.02 130.02 0 0 1-26.232-43.269l-73.894-202.99a23.303 23.303 0 0 1 .783-17.879 23.297 23.297 0 0 1 13.53-12.2c12.144-4.211 25.396 2.508 29.792 14.587l37.849 103.991 15.558 11.677 122.654-41.888 28.09 77.177z" fill="#d68a5a"></path><path d="m288.072 165.129-24.864 68.31-39.28-107.903 15.354-42.197a36.847 36.847 0 0 1 5.364-9.781c6.864 2.031 12.708 7.177 15.343 14.416z" fill="#c47a4a"></path><path d="m436.237 162.252 14.26 39.179-36.349 13.23a37.022 37.022 0 0 1-1.864 5.474c-.201.507-.384.899-.485 1.117-4.318 9.26-11.947 16.242-21.513 19.724a37.84 37.84 0 0 1-24.702.435c-4.352 6.947-10.941 12.55-19.209 15.559-19.739 7.184-41.64-3.028-48.824-22.767L282.54 192.96c-4.175-11.471-2.481-23.668 3.55-33.286l18.393 50.533z" fill="#c47a4a"></path><path d="m437.558 165.858-13.537-37.192c-4.414-12.128-17.825-18.381-29.953-13.967s-18.381 17.825-13.967 29.953l13.537 37.192z" fill="#d68a5a"></path><path d="m437.557 165.858-43.922 15.987-13.536-37.188a23.03 23.03 0 0 1-1.215-5.041 44.089 44.089 0 0 1 12.182-6.765l29.337-10.678a23.406 23.406 0 0 1 3.618 6.497z" fill="#c47a4a"></path><path d="M385.253 227.146c-12.123 4.412-25.538-1.833-29.954-13.968l-13.605-17.677-1.403-23.556a23.319 23.319 0 0 1 .781-17.879 23.296 23.296 0 0 1 13.187-12.075c6.876-2.503 14.15-1.58 19.968 1.893a23.309 23.309 0 0 1 9.986 12.074l15.008 41.233a23.24 23.24 0 0 1-.563 17.369c-.059.17-.143.348-.218.511a23.282 23.282 0 0 1-13.187 12.075z" fill="#d68a5a"></path><path d="M398.658 214.56c-14.799-2.239-27.958-12.296-33.431-27.333-.173-.476-.346-.952-.496-1.436-4.899-15.125-.807-30.976 9.496-41.907a23.309 23.309 0 0 1 9.986 12.074l15.008 41.233a23.24 23.24 0 0 1-.563 17.369z" fill="#c47a4a"></path><path d="m355.305 213.182-15.011-41.242c-4.414-12.128-17.825-18.381-29.953-13.967s-18.381 17.825-13.967 29.953l15.011 41.242c4.414 12.128 17.825 18.381 29.953 13.967 12.129-4.414 18.382-17.825 13.967-29.953z" fill="#d68a5a"></path><path d="m340.292 171.939 15.012 41.246a23.258 23.258 0 0 1-.783 17.865 23.235 23.235 0 0 1-13.182 12.083 23.172 23.172 0 0 1-9.992 1.329 23.354 23.354 0 0 0 4.684-6.683 23.258 23.258 0 0 0 .783-17.865l-15.012-41.246c-3.211-8.823-11.186-14.535-19.967-15.29a23.171 23.171 0 0 1 8.508-5.404c12.132-4.415 25.534 1.835 29.949 13.965z" fill="#c47a4a"></path><path d="m475.204 146.685 31.104 85.457a84.176 84.176 0 0 1-.985 60.165L492.044 325.4l19.344 53.146c1.91 5.247-.796 11.05-6.043 12.96l-58.075 21.138-43.934-120.707c-9.591-26.35 3.996-55.486 30.346-65.076l13.933-5.071-11.917-32.743-21.935 7.984c-13.677 4.978-28.847-2.344-33.378-16.317-4.315-13.315 3.157-27.609 16.312-32.397l46.057-16.763c13.139-4.783 27.668 1.992 32.45 15.131z" fill="#e89a5e"></path><path d="m475.204 146.685 31.104 85.457a84.176 84.176 0 0 1-.985 60.165L492.044 325.4l19.344 53.146c1.91 5.247-.796 11.05-6.043 12.96l-13.063 4.755-22.802-62.647 13.279-33.093a84.177 84.177 0 0 0 .985-60.165l-31.104-85.457c-4.784-13.144-19.318-19.912-32.451-15.132l22.565-8.213c13.139-4.783 27.668 1.992 32.45 15.131z" fill="#d68a5a"></path><path d="m8.26 225.084-2.568 7.055a84.13 84.13 0 0 0 .989 60.154l13.277 33.115L.617 378.549c-1.91 5.247.796 11.05 6.043 12.96l129.936 47.293c5.247 1.91 11.05-.796 12.96-6.043l19.342-53.141 26.907-29.395a130.02 130.02 0 0 0 26.232-43.269l73.894-202.99a23.303 23.303 0 0 0-.783-17.879 23.297 23.297 0 0 0-13.53-12.2c-12.144-4.211-25.396 2.508-29.792 14.587l-37.169 102.121-16.239 13.547-122.655-41.888-28.09 77.177z" fill="#fdd1a7"></path><path d="m295.925 103.962-73.894 202.99a130.036 130.036 0 0 1-26.232 43.269l-26.907 29.395-19.342 53.141c-1.91 5.247-7.712 7.953-12.96 6.043l-11.418-4.156 22.8-62.642 26.907-29.395a130.02 130.02 0 0 0 26.232-43.269l73.894-202.99a23.303 23.303 0 0 0-.783-17.879 23.632 23.632 0 0 0-3.686-5.632 23.327 23.327 0 0 1 11.42 1.168 23.298 23.298 0 0 1 13.186 12.078 23.303 23.303 0 0 1 .783 17.879z" fill="#ffbc8a"></path><path d="m75.763 162.252-14.26 39.179 36.349 13.23a37.022 37.022 0 0 0 1.864 5.474c.201.507.384.899.485 1.117 4.318 9.26 11.947 16.242 21.513 19.724a37.84 37.84 0 0 0 24.702.435c4.352 6.947 10.941 12.55 19.209 15.559 19.739 7.184 41.64-3.028 48.824-22.767l15.011-41.243c4.175-11.471 2.481-23.668-3.55-33.286l-18.393 50.533z" fill="#ffbc8a"></path><path d="m74.442 165.858 13.537-37.192c4.414-12.128 17.825-18.381 29.953-13.967s18.381 17.825 13.967 29.953l-13.537 37.192z" fill="#ffe5c4"></path><path d="m74.443 165.858 43.922 15.987 13.536-37.188a23.03 23.03 0 0 0 1.215-5.041 44.089 44.089 0 0 0-12.182-6.765l-29.337-10.678a23.406 23.406 0 0 0-3.618 6.497z" fill="#fdd1a7"></path><path d="m200.615 229.168 15.011-41.243c4.414-12.128-1.839-25.539-13.968-29.953-12.128-4.414-25.539 1.839-29.953 13.968l-13.34 16.949-1.671 24.293c-4.414 12.128 1.839 25.539 13.968 29.953 12.129 4.415 25.539-1.839 29.953-13.967z" fill="#ffe5c4"></path><path d="m215.625 187.924-15.012 41.246a23.262 23.262 0 0 1-12.083 13.182 23.237 23.237 0 0 1-17.865.783 23.184 23.184 0 0 1-8.508-5.404 23.37 23.37 0 0 0 7.884-2.108 23.256 23.256 0 0 0 12.083-13.182l15.012-41.246c3.211-8.823.774-18.325-5.467-24.547a23.176 23.176 0 0 1 9.992 1.329c12.129 4.414 18.379 17.816 13.964 29.947z" fill="#fdd1a7"></path><path d="M126.747 227.146c12.123 4.412 25.538-1.833 29.954-13.968l15.008-41.233a23.319 23.319 0 0 0-.781-17.879 23.296 23.296 0 0 0-13.187-12.075c-6.876-2.503-14.15-1.58-19.968 1.893a23.309 23.309 0 0 0-9.986 12.074l-15.008 41.233a23.24 23.24 0 0 0 .563 17.369c.059.17.143.348.218.511a23.285 23.285 0 0 0 13.187 12.075z" fill="#ffe5c4"></path><path d="m171.713 171.943-15.015 41.233c-4.419 12.133-17.826 18.382-29.949 13.974a23.237 23.237 0 0 1-6.936-3.984c10.071.627 19.777-5.359 23.407-15.329l15.005-41.233a23.305 23.305 0 0 0-.779-17.887 23.406 23.406 0 0 0-6.249-8.099c2.184.131 4.388.586 6.542 1.375 6.057 2.204 10.657 6.653 13.185 12.073s2.994 11.81.789 17.877z" fill="#fdd1a7"></path><path d="M113.342 214.56c14.799-2.239 27.958-12.296 33.431-27.333.173-.476.346-.952.496-1.436 4.899-15.125.807-30.976-9.496-41.907a23.309 23.309 0 0 0-9.986 12.074l-15.008 41.233a23.24 23.24 0 0 0 .563 17.369z" fill="#fdd1a7"></path><path d="M36.796 146.685 5.692 232.142a84.182 84.182 0 0 0 .985 60.165L19.956 325.4.613 378.547c-1.91 5.247.796 11.05 6.043 12.96l58.075 21.138 43.934-120.707c9.591-26.35-3.996-55.486-30.346-65.076l-13.933-5.071 11.917-32.743 21.935 7.984c13.677 4.978 28.847-2.344 33.378-16.317 4.315-13.315-3.157-27.609-16.312-32.397l-46.057-16.763c-13.14-4.784-27.669 1.991-32.451 15.13z" fill="#ffe5c4"></path></g></svg>