<svg viewBox="0 0 512 512.001" xmlns="http://www.w3.org/2000/svg"><g><path d="M6.652 389.395c-3.656 0-6.652 2.968-6.652 6.593V505.41c0 3.625 2.996 6.59 6.652 6.59h110.434c3.66 0 6.652-2.965 6.652-6.59V389.395zm0 0" fill="#fb8276"></path><path d="M222.375 344.598c0-17.707 5.156-33.82 14.82-47.102-16.273 7.637-34.46 9.996-51.925 7.09v44.46a133.933 133.933 0 0 0 37.105-1.132zm0 0" fill="#a2f9f9"></path><path d="M373.55 276.594a104.21 104.21 0 0 1-44.777 10.101h-30.988c-15.46 0-30.086-2.699-43.18-7.789-20.316 14.59-33.23 37.262-33.23 65.692v14.07l4.129.414-.52-1.504-.765-2.027a7.45 7.45 0 0 1 .18-5.742 7.475 7.475 0 0 1 4.19-3.938l2.169-.816a7.468 7.468 0 0 1 2.652-.489 7.55 7.55 0 0 1 7.027 4.86l8.27 21.62.074.102a27.83 27.83 0 0 1 2.38 4.098l.202.43.457.113a82.876 82.876 0 0 0 20.309 2.523c31.586 0 60.96-18.14 74.84-46.214 3.386-6.856 10.27-11.11 17.96-11.11 3.028 0 5.95.668 8.692 1.992 4.777 2.313 8.352 6.332 10.066 11.325 1.708 4.972 1.36 10.316-.976 15.047-10.328 20.898-26.356 38.34-46.348 50.437a124.516 124.516 0 0 1-64.465 18.004h-.003c-8.575 0-17.09-.914-25.43-2.68v40.457h17.664l.101-.886c1.2-10.473 10.137-18.368 20.782-18.368 7.836 0 14.957 4.286 18.578 11.184l.883 1.688.886-1.688c3.621-6.898 10.739-11.184 18.578-11.184 10.645 0 19.579 7.899 20.782 18.368l.105.886h64.723V343.566c0-29.703-14.09-52.78-35.996-66.972zm0 0" fill="#48e5e1"></path><path d="m225.504 359.082-.52-1.504-.765-2.027a7.45 7.45 0 0 1 .18-5.742 7.475 7.475 0 0 1 4.19-3.938l2.169-.816a7.468 7.468 0 0 1 2.652-.489 7.55 7.55 0 0 1 7.028 4.86l8.269 21.62.074.102a27.83 27.83 0 0 1 2.38 4.098l.202.43.457.113c.403.106.813.191 1.215.29v-31.481c0-24.606 9.68-44.899 25.453-59.371-8.379-1.282-16.383-3.407-23.883-6.32-20.316 14.59-33.23 37.265-33.23 65.69v14.071zm0 0" fill="#41ceca"></path><path d="M303.008 457.043c0-3.168.742-6.16 2.031-8.848a21.936 21.936 0 0 0-20.027-12.879c-11.266 0-20.532 8.422-21.774 19.25h-16.773v50.84c0 3.63-2.996 6.594-6.652 6.594h46.695v-.074a21.913 21.913 0 0 0 18.523-12.84 20.352 20.352 0 0 1-2.023-8.813zm0 0" fill="#a2f9f9"></path><path d="M322.441 511.926V512h88.88c16.003 0 28.98-12.855 28.98-28.719 0-15.855-12.977-28.715-28.98-28.715h-65.606c-1.246-10.828-10.512-19.25-21.778-19.25-12.109 0-21.93 9.727-21.93 21.727v33.23c0 11.5 9.024 20.887 20.434 21.653zm0 0" fill="#a2f9f9"></path><path d="M333.39 490.273v-33.23c0-5.895 2.383-11.238 6.231-15.152a21.928 21.928 0 0 0-15.683-6.575c-12.11 0-21.93 9.73-21.93 21.727v33.23c0 11.5 9.023 20.891 20.433 21.653V512h31.387v-.074c-11.41-.766-20.437-10.153-20.437-21.653zm0 0" fill="#91e0e0"></path><path d="M328.773 286.695h-30.988c-4.836 0-9.578-.285-14.23-.8v.875c0 13.714 11.222 24.835 25.062 24.835 13.844 0 25.067-11.12 25.067-24.835v-.2a102.59 102.59 0 0 1-4.91.125zm0 0" fill="#ffc987"></path><path d="M434.328 127.047c-.14 0-.281.012-.422.012v-14.653c0-1.117-.023-2.23-.058-3.34a26.263 26.263 0 0 1-7.602 4.188c-6.262 2.215-12.379 3.336-18.176 3.336h-.004c-31.484 0-45.73-33.13-45.87-33.465l-.946-2.258-.906 2.274c-.172.43-17.442 42.957-46.282 42.957-3.164 0-6.406-.52-9.628-1.535-13.676-4.31-18.196-14.711-13.438-30.915l-1.82-.796c-8.864 14.793-22.461 32.43-36.895 32.43-1.687 0-3.37-.243-5.011-.723-5.372-1.57-9.22-4.704-11.43-9.313-3.606-7.512-2.735-18.941 2.39-31.355l-1.824-.813c-11.945 25.05-24.66 37.227-38.867 37.227-1.602 0-3.234-.164-4.883-.489v63.13c0 68.023 47.067 104.75 105.125 104.75h30.989c48.753 0 89.734-33.063 101.636-77.903a26.08 26.08 0 0 0 3.922.309c18.004 0 32.598-18.594 32.598-41.528 0-22.933-14.594-41.527-32.598-41.527zm0 0" fill="#ffd5b3"></path><path d="M224.191 182.945v-70.539c0-3.066.141-6.101.399-9.101-8.48 11.398-17.422 17-27.05 17-1.602 0-3.235-.164-4.884-.489v63.13c0 68.023 47.067 104.75 105.13 104.75h30.987c.059 0 .114-.005.172-.005-57.886-.156-104.754-36.867-104.754-104.746zm0 0" fill="#e5bfa1"></path><g fill="#775436"><path d="M352.504 181.496a7.497 7.497 0 0 1-7.5-7.5V161.32a7.5 7.5 0 1 1 15 0v12.676a7.5 7.5 0 0 1-7.5 7.5zM238.34 181.496a7.5 7.5 0 0 1-7.5-7.5V161.32a7.5 7.5 0 1 1 15 0v12.676c0 4.145-3.356 7.5-7.5 7.5zM300.43 192.617h-5.012c-6.895 0-12.508-5.676-12.508-12.648v-9.742c0-4.145 3.356-7.5 7.5-7.5 4.145 0 7.5 3.355 7.5 7.5v7.39h2.52a7.5 7.5 0 1 1 0 15zm0 0" fill="#775436"></path></g><path d="M297.164 254.45c-19.508 0-35.379-15.727-35.379-35.055 0-3.641 2.98-6.594 6.653-6.594h57.453c3.675 0 6.652 2.953 6.652 6.594 0 19.332-15.871 35.054-35.379 35.054zm0 0" fill="#fb8276"></path><path d="M293.54 219.395c0-3.641 2.976-6.59 6.651-6.59h-31.753c-3.676 0-6.653 2.949-6.653 6.59 0 19.332 15.871 35.054 35.38 35.054a35.425 35.425 0 0 0 15.874-3.738c-11.55-5.777-19.5-17.64-19.5-31.316zm0 0" fill="#e1756a"></path><path d="M326.723 0h-33.52C230.395 0 179.48 50.73 179.48 113.309v1.695c2.094 1.605 4.555 3.012 7.454 4.156 24.097 9.555 40.382-14.691 50.375-35.648-7.442 18.02-7.196 37.078 9.683 42.008 16.281 4.753 31.914-13.582 43.043-32.153-3.812 12.985-2.972 26.77 14.098 32.153 35.918 11.324 57.144-42.008 57.144-42.008s19.59 46.86 65.305 30.683c5.918-2.097 10.293-5.691 13.445-10.347C435.195 45.699 386.332 0 326.723 0zm0 0" fill="#f7931e"></path><path d="M210.89 115.004v-1.695C210.89 50.73 261.806 0 324.614 0h-31.41C230.395 0 179.48 50.73 179.48 113.309v1.695c2.094 1.605 4.555 3.012 7.454 4.156 9.921 3.934 18.515 2.13 25.894-2.808a28.773 28.773 0 0 1-1.937-1.348zm0 0" fill="#de841b"></path><path d="M160.328 267.79v-8.524c0-8.008-6.555-14.5-14.637-14.5h-42.574c-8.086 0-14.637 6.492-14.637 14.5v8.523zm0 0" fill="#89c947"></path><path d="M120.41 267.79v-8.524c0-8.008 6.55-14.5 14.633-14.5h-31.93c-8.082 0-14.636 6.492-14.636 14.5v8.523zm0 0" fill="#7bb540"></path><path d="M186.273 382.805c0 3.625-2.996 6.59-6.652 6.59H69.187c-3.66 0-6.652-2.965-6.652-6.59V273.383c0-3.625 2.992-6.594 6.653-6.594H179.62c3.656 0 6.652 2.969 6.652 6.594zm0 0" fill="#d5e962"></path><path d="M141.86 358.305c-.602 0-1.208-.14-1.762-.434l-15.696-8.129-15.695 8.13a3.806 3.806 0 0 1-3.988-.281 3.697 3.697 0 0 1-1.504-3.654l2.996-17.222-12.7-12.2a3.694 3.694 0 0 1-.956-3.824 3.781 3.781 0 0 1 3.054-2.546l17.551-2.508 7.848-15.672a3.793 3.793 0 0 1 3.394-2.078c1.442 0 2.758.804 3.399 2.078l7.847 15.672 17.547 2.508a3.781 3.781 0 0 1 3.055 2.546 3.676 3.676 0 0 1-.957 3.825l-12.695 12.199 2.996 17.222a3.704 3.704 0 0 1-1.504 3.653 3.809 3.809 0 0 1-2.23.715zm0 0" fill="#89c947"></path><path d="M24.465 505.406V395.984c0-3.625 2.992-6.59 6.652-6.59H6.652c-3.656 0-6.652 2.965-6.652 6.59v109.422C0 509.036 2.996 512 6.652 512h24.465c-3.66 0-6.652-2.965-6.652-6.594zm0 0" fill="#e1756a"></path><path d="M61.867 479.016a3.15 3.15 0 0 1-2.207-.895l-27.656-27.047a16.566 16.566 0 0 1 0-23.773c3.246-3.172 7.562-4.922 12.152-4.922s8.907 1.75 12.153 4.926l5.558 5.437 5.563-5.437c3.246-3.176 7.562-4.926 12.152-4.926 4.59 0 8.906 1.75 12.152 4.922a16.566 16.566 0 0 1 0 23.773l-27.656 27.043a3.156 3.156 0 0 1-2.21.899zm0 0" fill="#ef5050"></path><path d="m235.605 412.309-.308-.098-.309.105a28.267 28.267 0 0 1-9.031 1.477c-.957 0-1.926-.047-2.879-.145l-25.601-2.574c-3.778-.383-6.543-3.765-6.165-7.543l.215-2.136a6.86 6.86 0 0 1 7.543-6.165l19.489 1.961.34-3.367-23.567-2.37a6.829 6.829 0 0 1-4.25-2.06h-67.344v116.012c0 3.63 2.992 6.594 6.653 6.594h110.433c3.656 0 6.649-2.965 6.649-6.594v-90.082a122.476 122.476 0 0 1-11.868-3.015zm0 0" fill="#ffc502"></path><path d="M151.238 505.406V389.395h-27.5V505.41c0 3.625 2.992 6.59 6.653 6.59h27.5c-3.66 0-6.653-2.965-6.653-6.594zm0 0" fill="#e5b102"></path><path d="M175.965 478.66c-3.66 0-8.149-2.566-9.977-5.707l-9.644-16.547c-1.828-3.14-1.828-8.277 0-11.418l9.644-16.547c1.828-3.14 6.317-5.707 9.977-5.707h19.281c3.66 0 8.152 2.567 9.98 5.707l9.641 16.547c1.832 3.14 1.832 8.278 0 11.418l-9.64 16.547c-1.829 3.14-6.32 5.707-9.98 5.707zm0 0" fill="#fcdb67"></path><path d="M88.957 382.805V273.383c0-3.625 2.992-6.594 6.652-6.594H69.188c-3.66 0-6.653 2.969-6.653 6.594v109.422c0 3.625 2.992 6.59 6.653 6.59h26.421c-3.66 0-6.652-2.965-6.652-6.59zm0 0" fill="#bfd158"></path><path d="M433.672 192.555a7.496 7.496 0 0 1-6.606-3.938 7.5 7.5 0 0 1 3.032-10.164c8.492-4.59 3.55-16.293 3.336-16.789a7.5 7.5 0 0 1 13.765-5.953c.266.605 2.574 6.129 2.774 12.973.304 10.207-4.223 18.363-12.746 22.968a7.43 7.43 0 0 1-3.555.903zm0 0" fill="#ffb98a"></path><path d="M374.055 322.078c-10.368-5.008-22.895-.723-27.985 9.574-17.61 35.625-58.12 52.887-95.304 42.848 2.316 4.57 3.324 9.703 2.812 14.813-1.144 11.363-9.219 20.449-19.918 23.433 57.746 18.777 122.399-7.223 149.945-62.953 5.09-10.297.813-22.703-9.55-27.715zm0 0" fill="#a2f9f9"></path><path d="m190.316 403.434.22-2.141c.433-4.332 4.3-7.492 8.636-7.059l18.492 1.86.14-1.375-22.574-2.274a7.88 7.88 0 0 1-7.054-8.632l.215-2.141c.433-4.332 4.3-7.492 8.636-7.059l22.57 2.274.141-1.38-18.496-1.859a7.882 7.882 0 0 1-7.058-8.636l.214-2.14a7.892 7.892 0 0 1 8.637-7.06l20.961 2.114.05.004-.765-2.028a8.512 8.512 0 0 1 4.953-10.968l2.172-.82c4.399-1.66 9.305.558 10.969 4.956l8.223 21.5c3.746 5.332 5.668 11.922 4.976 18.84-1.566 15.535-15.71 26.832-31.597 25.23l-25.602-2.574a7.887 7.887 0 0 1-7.059-8.632zm0 0" fill="#ffd5b3"></path></g></svg>