<svg viewBox="0 0 512 512" xmlns="http://www.w3.org/2000/svg"><g><path d="M56 168h400v320H56z" fill="#ea9d2d"></path><path d="M488 168H24l20.785-76.21A16 16 0 0 1 60.221 80h391.558a16 16 0 0 1 15.436 11.79z" fill="#ebebeb"></path><g fill="#c7463b"><path d="m184 80-16 88h56l8-88zM72 168l16-88h48l-16 88zM344 168l-16-88h-48l8 88zM424 80l16 88h-48l-16-88z" fill="#c7463b"></path></g><path d="M166 24h180a6 6 0 0 1 6 6v50H160V30a6 6 0 0 1 6-6z" fill="#dc4d41"></path><path d="M88 216h208v184H88z" fill="#c3c3c3"></path><path d="M88 216h200v176H88z" fill="#d9d9d9"></path><path d="M155 400h74a11 11 0 0 1 11 11v45h-96v-45a11 11 0 0 1 11-11z" fill="#dc4d41"></path><path d="M176 456h32v32h-32z" fill="#bd9070"></path><path d="M176 456h32v16h-32z" fill="#b08668"></path><path d="M232 456h16v32h-16z" fill="#744630"></path><path d="M272 376a8 8 0 0 0-8 8v56h-24v16h24v32h16V384a8 8 0 0 0-8-8zM120 384a8 8 0 0 0-16 0v104h16v-32h24v-16h-24z" fill="#744630"></path><path d="M136 456h16v32h-16z" fill="#744630"></path><path d="M168 432h16v24h-16zM200 432h16v24h-16z" fill="#c7463b"></path><path d="M328 440h96v48h-96z" fill="#ebebeb"></path><path d="M328 280h96v160h-96z" fill="#b94137"></path><path d="M328 288h88v152h-88z" fill="#c7463b"></path><path d="M328 464h96v24h-96z" fill="#dbdbdb"></path><path d="M328 200h96v48h-96z" fill="#ebebeb"></path><path d="M170 248h44a26 26 0 0 1 26 26v6h-96v-6a26 26 0 0 1 26-26zM214 368h-44a26 26 0 0 1-26-26v-6h96v6a26 26 0 0 1-26 26z" fill="#70400e"></path><path d="M239.994 320a7.973 7.973 0 0 1-3.572-.847L224 312.944l-12.422 6.211a8 8 0 0 1-7.156 0L192 312.944l-12.422 6.211a8 8 0 0 1-7.156 0L160 312.944l-12.422 6.211a8 8 0 0 1-7.156-14.31l16-8a8 8 0 0 1 7.156 0L176 303.056l12.422-6.211a8 8 0 0 1 7.156 0L208 303.056l12.422-6.211a8 8 0 0 1 7.156 0l16 8A8 8 0 0 1 239.994 320z" fill="#ea9d2d"></path><path d="M360 376a8 8 0 0 1-8-8v-16a8 8 0 0 1 8-8h16a8 8 0 0 1 0 16h-8v8a8 8 0 0 1-8 8z" fill="#bd9070"></path><path d="M136 456h16v16h-16zM104 456h16v16h-16zM264 456h16v16h-16zM232 456h16v16h-16z" fill="#5b3726"></path><path d="M160 64h192v16H160z" fill="#b94137"></path><path d="M56 168h400v16H56z" fill="#c38325"></path><path d="M144 336h96v8h-96zM144 272h96v8h-96z" fill="#5b3726"></path><path d="M328 248h96v8h-96z" fill="#c38325"></path></g></svg>