<svg viewBox="0 0 512 512" xmlns="http://www.w3.org/2000/svg"><g><path d="M271 45v60c0 8.399-6.599 15-15 15s-15-6.601-15-15V45c0-8.401 6.599-15 15-15s15 6.599 15 15z" fill="#896748"></path><path d="M271 45v60c0 8.399-6.599 15-15 15V30c8.401 0 15 6.599 15 15z" fill="#73553a"></path><path d="M390.099 224.2c.901 8.099-4.799 15.599-13.198 16.8H135.099c-8.399-1.201-14.099-8.701-13.198-16.8C130.3 156.7 187.899 105 256 105s125.7 51.7 134.099 119.2z" fill="#e5e5e5"></path><path d="M390.099 224.2c.901 8.099-4.799 15.599-13.198 16.8H256V105c68.101 0 125.7 51.7 134.099 119.2z" fill="#d9d9d9"></path><path d="M406 211H106c-8.401 0-15 6.599-15 15v120c0 8.399 6.599 15 15 15h300c8.401 0 15-6.601 15-15V226c0-8.401-6.599-15-15-15z" fill="#d9d9d9"></path><path d="M421 226v120c0 8.399-6.599 15-15 15H256V211h150c8.401 0 15 6.599 15 15z" fill="#c8c6cd"></path><path d="m415.3 237.7-150 120c-.601.599-1.199.899-2.1 1.199-.3.3-.899.601-1.5.899-1.8.601-3.6 1.201-5.7 1.201s-3.9-.601-5.7-1.201c-.601-.298-1.199-.599-1.5-.899-.901-.3-1.5-.601-2.1-1.199l-150-120h318.6z" fill="#e5e5e5"></path><path d="m415.3 237.7-150 120c-.601.599-1.199.899-2.1 1.199-.3.3-.899.601-1.5.899-1.8.601-3.6 1.201-5.7 1.201V237.7h159.3z" fill="#d9d9d9"></path><path d="M466 331H46c-8.401 0-15 6.599-15 15v151c0 8.399 6.599 15 15 15h420c8.401 0 15-6.601 15-15V346c0-8.401-6.599-15-15-15z" fill="#e5e5e5"></path><path d="M481 346v151c0 8.399-6.599 15-15 15H256V331h210c8.401 0 15 6.599 15 15z" fill="#d9d9d9"></path><path d="M451 226c0 8.399-6.599 15-15 15H76c-8.401 0-15-6.601-15-15 0-8.401 6.599-15 15-15h360c8.401 0 15 6.599 15 15zM512 346c0 8.399-6.599 15-15 15H15c-8.401 0-15-6.601-15-15 0-8.401 6.599-15 15-15h482c8.401 0 15 6.599 15 15z" fill="#c8c6cd"></path><path d="M346 0h-90c-8.284 0-15 6.716-15 15v75h45c41.275 0 74.797-33.397 74.998-74.625C361.039 6.99 354.385 0 346 0z" fill="#ff2121"></path><path d="M481 452v45c0 8.399-6.599 15-15 15H361v-60c0-33.001 27.001-60 60-60 16.5 0 31.5 6.599 42.299 17.699C474.401 420.5 481 435.5 481 452z" fill="#8b8892"></path><path d="M481 452v45c0 8.399-6.599 15-15 15h-45V392c16.5 0 31.5 6.599 42.299 17.699C474.401 420.5 481 435.5 481 452z" fill="#787780"></path><path d="M331 467v45H181v-45c0-41.4 33.6-75 75-75 20.7 0 39.6 8.399 53.101 21.899C322.599 427.4 331 446.3 331 467z" fill="#8b8892"></path><path d="M331 467v45h-75V392c20.7 0 39.6 8.399 53.101 21.899C322.599 427.4 331 446.3 331 467z" fill="#787780"></path><path d="M436 241H256v-30h180c8.401 0 15 6.599 15 15 0 8.399-6.599 15-15 15zM512 346c0 8.399-6.599 15-15 15H256v-30h241c8.401 0 15 6.599 15 15z" fill="#aeadb4"></path><path d="M286 90h-30V0h90c8.401 0 15 6.599 15 15 0 41.4-33.6 75-75 75z" fill="#cf0404"></path><path d="M151 452v60H46c-8.401 0-15-6.601-15-15v-45c0-33.001 27.001-60 60-60 16.5 0 31.5 6.599 42.299 17.699C144.401 420.5 151 435.5 151 452z" fill="#8b8892"></path><path d="M151 452v60H91V392c16.5 0 31.5 6.599 42.299 17.699C144.401 420.5 151 435.5 151 452z" fill="#787780"></path></g></svg>