<?xml version="1.0" encoding="iso-8859-1"?>
<!-- Generator: Adobe Illustrator 19.0.0, SVG Export Plug-In . SVG Version: 6.00 Build 0)  -->
<svg version="1.1" id="Layer_1" xmlns="http://www.w3.org/2000/svg" xmlns:xlink="http://www.w3.org/1999/xlink" x="0px" y="0px"
	 viewBox="0 0 504.537 504.537" style="enable-background:new 0 0 504.537 504.537;" xml:space="preserve">
<path style="fill:#FDC794;" d="M380.995,201.481l3.793-3.793c13.274-13.274,12.326-34.133,0-47.407
	c-13.274-13.274-34.133-13.274-46.459,0l-56.889,56.889L430.298,57.363c13.274-13.274,13.274-34.133,0-47.407
	s-34.133-13.274-46.459,0L192.313,201.481l16.119,1.896l-16.119-1.896c-30.341-5.689-44.563,4.741-67.319,26.548l0,0
	c-31.289,31.289-26.548,80.593-26.548,80.593l0,0L71.898,335.17c-11.378,11.378-11.378,29.393,0,39.822l121.363,121.363
	c11.378,11.378,28.444,10.43,39.822,0l26.548-26.548l0,0c45.511-6.637,53.096-12.326,100.504-60.681
	c27.496-27.496,52.148-70.163,52.148-70.163h0.948c16.119-7.585,23.704-28.444,15.17-44.563
	c-7.585-16.119-27.496-23.704-44.563-15.17l18.015-8.533c16.119-7.585,22.756-27.496,15.17-43.615l-0.948-1.896
	c-7.585-16.119-27.496-22.756-43.615-15.17l-9.481,4.741L380.995,201.481z"/>
<g>
	<path style="fill:#F9A671;" d="M305.143,397.748c-4.741,0-9.481-0.948-14.222-1.896c-10.43-3.793-19.911-11.378-24.652-21.807
		c-10.43-20.859-1.896-46.459,19.911-56.889l93.867-45.511c20.859-10.43,46.459-1.896,56.889,19.911
		c4.741,10.43,5.689,21.807,1.896,32.237c-3.793,10.43-11.378,19.911-21.807,24.652l-93.867,45.511
		C317.469,395.852,310.832,397.748,305.143,397.748z M398.061,285.867c-3.793,0-6.637,0.948-10.43,2.844l-93.867,45.511
		c-11.378,5.689-17.067,19.911-11.378,31.289l0,0c2.844,5.689,7.585,9.481,13.274,12.326c5.689,1.896,12.326,1.896,18.015-0.948
		l93.867-45.511c5.689-2.844,9.482-7.585,12.326-13.274c2.844-5.689,1.896-12.326-0.948-18.015
		C415.128,290.607,406.595,285.867,398.061,285.867z"/>
	<path style="fill:#F9A671;" d="M209.38,299.141c-20.859,0-38.874-1.896-47.407-5.689c-4.741-1.896-7.585-7.585-5.689-12.326
		c1.896-4.741,7.585-7.585,12.326-5.689c20.859,8.533,113.778,3.793,145.067-10.43c8.533-3.793,14.222-12.326,13.274-19.911
		c-0.948-9.481-11.378-16.119-29.393-19.911c-18.015-3.793-66.37-10.43-106.193-15.17c-4.741-0.948-8.533-5.689-8.533-10.43
		s5.689-8.533,10.43-8.533c36.978,4.741,88.178,11.378,107.141,15.17c36.978,7.585,43.615,27.496,44.563,36.03
		c1.896,16.119-8.533,32.237-24.652,39.822C298.506,293.452,248.254,299.141,209.38,299.141z"/>
	<path style="fill:#F9A671;" d="M283.336,334.222c-4.741,0-9.482-0.948-13.274-1.896c-10.43-3.793-18.963-11.378-23.704-20.859
		l-0.948-1.896c-2.844-6.637-4.741-14.222-3.793-21.807c0-4.741,3.793-8.533,8.533-8.533c27.496-2.844,51.2-6.637,63.526-12.326
		c10.43-4.741,18.963-22.756,14.222-34.133c-1.896-4.741,0-9.481,4.741-12.326l36.03-17.067
		c20.859-10.43,45.511-1.896,55.941,18.963l0.948,1.896l0,0c4.741,10.43,5.689,21.807,1.896,32.237
		c-3.793,10.43-11.378,18.963-20.859,23.704L303.247,330.43C296.61,332.326,289.973,334.222,283.336,334.222z M260.58,296.296
		c0,1.896,0.948,2.844,1.896,4.741l0.948,1.896c2.844,5.689,7.585,9.481,13.274,11.378s12.326,1.896,17.067-0.948l103.348-50.252
		c5.689-2.844,9.481-7.585,11.378-13.274c1.896-5.689,1.896-12.326-0.948-17.067v-2.844c-5.689-11.378-18.963-16.119-30.341-10.43
		l-29.393,14.222c2.844,18.963-9.481,42.667-26.548,50.252C307.987,288.711,287.128,293.452,260.58,296.296z"/>
	<path style="fill:#F9A671;" d="M279.543,217.6c-2.844,0-4.741-0.948-6.637-2.844c-3.793-3.793-3.793-9.481,0-13.274l67.319-67.319
		c3.793-3.793,9.481-3.793,13.274,0c3.793,3.793,3.793,9.481,0,13.274l-67.319,67.319C284.284,216.652,282.387,217.6,279.543,217.6z
		"/>
</g>
<g>
</g>
<g>
</g>
<g>
</g>
<g>
</g>
<g>
</g>
<g>
</g>
<g>
</g>
<g>
</g>
<g>
</g>
<g>
</g>
<g>
</g>
<g>
</g>
<g>
</g>
<g>
</g>
<g>
</g>
</svg>
