<svg viewBox="0 0 512 512" xmlns="http://www.w3.org/2000/svg"><g><path d="M434.667 282.667h-18.133V227.2h18.133c6.4 0 11.733 5.333 11.733 11.733V272c0 6.4-5.333 10.667-11.733 10.667z" fill="#acb3ba"></path><path d="M366.4 163.2H127.467l12.8-73.6L157.333 0h179.2l16 89.6zM366.4 348.8l-13.867 73.6-16 89.6h-179.2l-17.066-89.6-12.8-73.6z" fill="#40596b"></path><path d="M127.467 348.8H366.4l-13.867 73.6c-30.933 19.2-67.2 30.933-105.6 30.933-39.467 0-75.733-11.733-106.667-30.933l-12.799-73.6zM366.4 163.2H127.467l13.867-73.6c30.933-20.267 67.2-30.933 106.667-30.933 38.4 0 75.733 11.733 105.6 30.933l12.799 73.6z" fill="#334a5e"></path><circle cx="246.933" cy="256" fill="#cdd6e0" r="181.333"></circle><path d="M246.933 396.8c-77.867 0-140.8-62.933-140.8-140.8s62.933-140.8 140.8-140.8 140.8 62.933 140.8 140.8-62.933 140.8-140.8 140.8z" fill="#f2f2f2"></path><circle cx="246.933" cy="145.067" fill="#54c0eb" r="14.933"></circle><circle cx="246.933" cy="366.933" fill="#54c0eb" r="14.933"></circle><circle cx="357.867" cy="256" fill="#54c0eb" r="14.933"></circle><circle cx="136" cy="256" fill="#54c0eb" r="14.933"></circle><path d="M246.933 169.6C238.4 169.6 232 176 232 184.533v56.533h-46.933c-8.533 0-14.933 6.4-14.933 14.933s6.4 14.933 14.933 14.933h61.867c8.533 0 14.933-6.4 14.933-14.933v-71.467c0-8.532-7.467-14.932-14.934-14.932z" fill="#ff7058"></path></g></svg>