<svg viewBox="0 0 512 512" xmlns="http://www.w3.org/2000/svg"><g><path d="m240 352-5.716 57.164a32 32 0 0 1-24.646 28L128 456l-16-32 72-24-16-56-104 80-24-32 120-120z" fill="#4d5e78"></path><path d="m128 456-6.026 24.105A10.423 10.423 0 0 1 111.862 488a10.423 10.423 0 0 1-10.022-7.56L88 432l24-8zM40 392l-16 16v54.111A9.888 9.888 0 0 0 33.889 472a9.888 9.888 0 0 0 8.844-5.466L64 424z" fill="#6e3d26"></path><path d="m335.947 208.018 87.987-87.987 23.997 23.996-87.987 87.987z" fill="#404f66"></path><path d="m448 144 33.289-26.632A17.878 17.878 0 0 0 488 103.406a17.88 17.88 0 0 0-5.237-12.643l-6.12-6.12a17.881 17.881 0 0 0-25.286 0L440 96l-8-8-8 8v24z" fill="#fec9a3"></path><path d="M426.288 93.695 437.6 82.383l23.996 23.996-11.312 11.312z" fill="#f7ad7c"></path><path d="M391.03 167.03a24 24 0 0 1 0 33.94L360 232l-80-80 40-40 80 16-24 24 13.72 13.72z" fill="#fec9a3"></path><path d="m389.72 165.72-6.41 6.42a32.771 32.771 0 0 1-37.89 6.14l7.16-14.31a16.774 16.774 0 0 0 19.41-3.15l6.42-6.41z" fill="#f7ad7c"></path><path d="m392 88-24-24-88 88-120 120 80 80 48-48 24-24 48-48-56-56z" fill="#4d5e78"></path><path d="m368 64 26.632-33.289A17.878 17.878 0 0 1 408.594 24a17.88 17.88 0 0 1 12.643 5.237l6.12 6.12a17.881 17.881 0 0 1 0 25.286L416 72l8 8-8 8h-24z" fill="#fec9a3"></path><path d="m394.295 61.695 11.312-11.312 23.996 23.996L418.29 85.69z" fill="#f7ad7c"></path><path d="M273.14 112.01A113.106 113.106 0 0 1 240 192l-80 80-64-64 45.52-42.48 24.83-23.17 17.05-15.92A113.106 113.106 0 0 1 260.59 96H272a113.63 113.63 0 0 1 1.14 16.01z" fill="#f35244"></path><path d="M263.43 157.86A113.212 113.212 0 0 1 240 192l-80 80-49.81-49.81a464.142 464.142 0 0 0 153.24-64.33z" fill="#e64c3f"></path><path d="m112 224-32 16 40 40 16-32z" fill="#348fd9"></path><path d="M251.667 179.667a7.975 7.975 0 0 1-5.657-2.344l-35.667-35.666a8 8 0 0 1 11.314-11.314l35.666 35.667a8 8 0 0 1-5.656 13.657z" fill="#de4132"></path><path d="m312 280-24 24-42.5-40.18-103.98-98.3 24.83-23.17 109.71 103.69z" fill="#ffb531"></path><path d="m312 280-24 24-42.5-40.18q15.465-8.265 30.56-17.78z" fill="#fcac1f"></path><path d="m8 384 72-72h8a32 32 0 0 0 32-32l-40-40a32 32 0 0 0-32 32v8L8 320z" fill="#ffb531"></path><path d="m360 232-55.02 18.34L288 256l2.83-14.15L304 176l26.34 26.34 11.32 11.32z" fill="#e0e0de"></path><path d="m341.66 213.66-36.68 36.68L288 256l2.83-14.15 39.51-39.51zM96 208l-32-32 24-16 53.52 5.52zM160 272l32 32 24-24-16-48z" fill="#348fd9"></path><g fill="#a0dde5"><path d="m274.287 354.34 142.979-142.979 11.312 11.312-142.979 142.979zM289.806 82.868 338.3 34.376l11.312 11.312-48.493 48.492zM108.323 132.344l82.988-82.988 11.312 11.312-82.988 82.988zM11.82 234.321l38.493-38.494 11.312 11.312-38.494 38.494zM168.274 490.31l29.996-29.995 11.312 11.312-29.996 29.996zM266.279 402.333 370.263 298.35l11.312 11.312-103.984 103.984z" fill="#a0dde5"></path></g></g></svg>