<svg viewBox="0 0 24 24" xmlns="http://www.w3.org/2000/svg"><g><g><circle cx="15" cy="12" fill="#0db561" r="7.75"></circle><path d="M17 14.75a.74.74 0 0 1-.53-.22l-2-2a.75.75 0 0 1-.22-.53V8a.75.75 0 0 1 1.5 0v3.69l1.78 1.78a.75.75 0 0 1 0 1.06.74.74 0 0 1-.53.22z" fill="#ffffff"></path><g fill="#1c5e3f"><path d="M8 6.75H5a.75.75 0 0 1 0-1.5h3a.75.75 0 0 1 0 1.5zM6 9.75H3a.75.75 0 0 1 0-1.5h3a.75.75 0 0 1 0 1.5zM6 15.75H3a.75.75 0 0 1 0-1.5h3a.75.75 0 0 1 0 1.5zM6 12.75H2a.75.75 0 0 1 0-1.5h4a.75.75 0 0 1 0 1.5zM8 18.75H5a.75.75 0 0 1 0-1.5h3a.75.75 0 0 1 0 1.5z" fill="#1c5e3f"></path></g></g></g></svg>