<svg viewBox="0 0 496.738 496.738" xmlns="http://www.w3.org/2000/svg"><g><path d="M433.474 496.738H63.264c-7.767 0-14.063-6.296-14.063-14.063V14.063C49.201 6.296 55.497 0 63.264 0h370.21c7.767 0 14.063 6.296 14.063 14.063v468.612c0 7.767-6.296 14.063-14.063 14.063z" fill="#fee97d"></path><g fill="#fed402"><path d="m317.452 200.533 30.584-51.072v-17.127H149.701v17.127l29.551 49.346zM428.236 149.462 326.551 264.321l-54.903 65.654v30.97l22.447-7.661 153.442-119.061v-84.761zM333.372 396.749l114.165 13.239v-85.52l-129.322 50.125-14.21 5.732v15.007zM68.437 149.462H49.201v84.812l153.376 119.01 22.448 7.661v-30.97l-54.903-65.654zM49.201 324.493v85.487l114.1-13.231 29.367-1.417v-15.007l-14.21-5.732z" fill="#fed402"></path></g><path d="M393.134 496.738v-44.839c0-6.91-3.125-13.449-8.501-17.79l-51.262-41.39H164.366l-51.262 41.39a22.866 22.866 0 0 0-8.501 17.79v44.839z" fill="#7ca1b1"></path><path d="M447.43 93.945 353.485 0H63.264c-7.767 0-14.063 6.296-14.063 14.063v135.398h398.336V93.945z" fill="#62dbfb"></path><path d="M447.537 93.838h-63.426c-16.914 0-30.626-13.712-30.626-30.626V0z" fill="#01d0fb"></path><g fill="#fff9e2"><path d="M231.423 43.085a8.899 8.899 0 0 0-8.339-5.736h-.009a8.896 8.896 0 0 0-8.255 5.548c-.023.057-.046.113-.067.17l-23.679 62.172a7.5 7.5 0 0 0 14.017 5.338l4.057-10.652h27.691l4.012 10.632a7.504 7.504 0 0 0 7.019 4.854 7.5 7.5 0 0 0 7.015-10.15zm-16.562 41.838 8.197-21.521 8.121 21.521zM169.721 44.49a8.924 8.924 0 0 0-17.313-.713l-11.657 40.892L128.664 43.7a5.915 5.915 0 0 0-.084-.267c-1.291-3.84-5.016-6.341-9.057-6.062-4.042.271-7.4 3.238-8.183 7.303l-11.083 61.408a7.5 7.5 0 1 0 14.762 2.664l6.527-36.165 10.762 36.477a8.907 8.907 0 0 0 8.542 6.349h.045a8.91 8.91 0 0 0 8.523-6.429l10.39-36.447 6.936 36.292c.777 4.068 4.706 6.746 8.774 5.958a7.5 7.5 0 0 0 5.959-8.774zM326.551 68.878h-18.864c-4.142 0-7.5 3.357-7.5 7.5s3.358 7.5 7.5 7.5h10.553c-1.947 8.697-7.586 16.529-18.907 16.529-13.25 0-24.03-10.779-24.03-24.029s10.78-24.03 24.03-24.03a23.9 23.9 0 0 1 13.43 4.1 7.5 7.5 0 0 0 8.396-12.43 38.85 38.85 0 0 0-21.827-6.67c-21.521 0-39.03 17.509-39.03 39.03s17.509 39.029 39.03 39.029c20.441 0 34.718-16.05 34.718-39.029a7.498 7.498 0 0 0-7.499-7.5z" fill="#fff9e2"></path></g><path d="m180.303 257.346-2.277-48.333a31.053 31.053 0 0 1 11.003-25.204l1.962-1.655c33.119-27.925 81.565-27.841 114.587.199l1.717 1.458a31.055 31.055 0 0 1 10.92 25.134l-2.28 48.4v13.175H179.523z" fill="#918291"></path><path d="M291.12 382.805h-85.977l43.726 113.933z" fill="#fff9e2"></path><path d="m206.617 383.205 3.821-35.925 30.981-13.973 45.148 13.75.747 40.417-12.735 9.274-.954.709c-15.05 11.196-35.739 10.905-50.468-.709z" fill="#ffcebf"></path><path d="M246.821 396.749a39.333 39.333 0 0 1-3.96-3.728c-4.293-4.643-.954-12.086 5.369-12.075h.139a78.96 78.96 0 0 0 38.639-10.066l-.44-23.821-45.148-13.75-30.981 13.973-2.408 22.638-1.413 13.287 16.541 13.543c10.824 8.535 24.864 10.946 37.522 7.187a41.446 41.446 0 0 1-13.86-7.188z" fill="#ffb09e"></path><path d="M313.589 256.845h-1c-2.236 0-4.395-1.047-5.613-2.923a5.356 5.356 0 0 0-.288-.402l-13.774-17.47c0-10.657-8.639-19.297-19.297-19.297h-5.852a19.294 19.294 0 0 0-11.713 3.962l-5.957 4.55a2.845 2.845 0 0 1-3.452 0l-5.957-4.55a19.294 19.294 0 0 0-11.713-3.962h-5.852c-10.657 0-19.297 8.64-19.297 19.297l-13.774 17.47c-.102.13-.199.264-.288.402-1.217 1.876-3.376 2.923-5.613 2.923-8.272 0-14.978 6.706-14.978 14.978 0 8.272 6.706 14.978 14.978 14.978H188.897v14.671c0 32.846 26.627 59.472 59.472 59.472 32.846 0 59.472-26.627 59.472-59.472v-14.671H313.589c8.272 0 14.978-6.706 14.978-14.978 0-8.272-6.706-14.978-14.978-14.978z" fill="#ffdfcf"></path><path d="M219.922 301.473v-14.671l-.035-16.477a45.56 45.56 0 0 1 11.42-30.265l3.543-4.009c0-5.861 2.622-11.101 6.747-14.64l-.91-.695a19.291 19.291 0 0 0-11.712-3.962h-5.853c-10.657 0-19.297 8.64-19.297 19.297l-13.774 17.47a5.642 5.642 0 0 0-.339.481c-1.11 1.774-2.974 2.919-5.065 2.852-8.744-.283-15.877 6.932-15.457 15.705.385 8.046 7.298 14.243 15.353 14.243H188.898v14.671c0 32.846 26.627 59.472 59.472 59.472 5.368 0 10.566-.723 15.513-2.057-25.322-6.825-43.961-29.938-43.961-57.415z" fill="#ffcebf"></path><path d="M248.869 496.738 210.438 347.28l-42.523 37.567a10.503 10.503 0 0 0-3.549 7.872v18.596a5.354 5.354 0 0 0 5.354 5.354h10.954a7.555 7.555 0 0 1 5.881 2.812zM130.288 420.234l-17.184 13.875a22.866 22.866 0 0 0-8.501 17.79v44.839h49.623v-35.696a40.034 40.034 0 0 0-11.402-27.98zM248.869 496.738l37.699-149.68 43.255 37.79a10.503 10.503 0 0 1 3.549 7.872v18.596a5.354 5.354 0 0 1-5.354 5.354h-10.954a7.555 7.555 0 0 0-5.881 2.812zM393.134 451.899c0-6.91-3.125-13.449-8.501-17.79l-17.184-13.875-12.536 12.827a40.03 40.03 0 0 0-11.402 27.98v35.696h49.623z" fill="#678d98"></path></g></svg>