<svg viewBox="0 0 512 512" xmlns="http://www.w3.org/2000/svg"><g><path d="M269.676 27.55a47.741 47.741 0 0 0-26.863 8.222c2.773 7.613 4.213 16.379 4.213 26.214v14.09c41.375 9.204 70.475 33.612 70.475 79.918V75.188c0-26.31-21.412-47.638-47.825-47.638z" fill="#3d5959"></path><path d="M203.246 71.689c15.894 0 31.028 1.455 44.78 4.611V61.987C248.026 22.681 225.421 0 185.96 0h-25.518c-39.461 0-71.45 31.864-71.45 71.17v84.825c0-61.398 51.152-84.306 114.254-84.306z" fill="#537982"></path><path d="M121.046 91.759V71.17c0-38.309 30.391-69.535 68.468-71.095A92.202 92.202 0 0 0 185.96 0h-25.518c-39.461 0-71.45 31.864-71.45 71.17v84.825c0-29.993 12.211-50.797 32.054-64.236z" fill="#3d5959"></path><path d="M279.008 414.928c0-24.781 9.47-47.4 24.993-64.458h-48.243v1c-3.412 25.824-25.788 45.162-52.511 45.162s-49.1-19.338-52.513-45.162v-1H72.876c-27.887 0-50.577 22.135-50.577 49.34v72.939c0 3.619 2.979 6.554 6.654 6.554h274.973c-15.478-17.048-24.918-39.634-24.918-64.375z" fill="#0592fb"></path><path d="M65.416 472.749V399.81c0-27.205 22.69-49.34 50.577-49.34H72.876c-27.887 0-50.577 22.135-50.577 49.34v72.939c0 3.619 2.979 6.554 6.654 6.554H72.07c-3.675 0-6.654-2.936-6.654-6.554z" fill="#0181fb"></path><path d="M235.168 316.234a102.425 102.425 0 0 1-18.612 1.704h-26.621c-6.359 0-12.578-.59-18.61-1.704v34.235h-21.72c2.924 26.517 25.819 47.162 53.641 47.162 27.821 0 50.717-20.645 53.64-47.162h-21.718z" fill="#ffaf9d"></path><path d="M189.935 317.939c-6.359 0-12.578-.59-18.61-1.704v34.235h-21.72c1.346 12.207 6.932 23.162 15.274 31.439h22.847c5.689 0 10.302-4.612 10.302-10.302v-53.668z" fill="#f69380"></path><path d="M89.992 220.331v-50.708H73.419c-11.594 0-20.998 9.088-20.998 20.299v24.574c0 11.211 9.404 20.299 20.998 20.299H91.09a95.888 95.888 0 0 1-1.098-14.464z" fill="#ffcdbe"></path><path d="M333.076 169.623h-16.575v50.708c0 4.913-.378 9.742-1.099 14.463h17.674c11.598 0 20.994-9.088 20.994-20.299v-24.574c0-11.21-9.396-20.298-20.994-20.298z" fill="#ffaf9d"></path><path d="M203.246 70.628c-63.103 0-114.254 22.907-114.254 84.306v65.398c0 54.458 45.194 98.607 100.943 98.607h26.621c55.751 0 100.945-44.15 100.945-98.607v-65.398c0-61.399-51.153-84.306-114.255-84.306z" fill="#ffcdbe"></path><path d="M203.246 70.628c-63.103 0-114.254 22.907-114.254 84.306v65.398c0 54.458 45.194 98.607 100.943 98.607h26.621c55.751 0 100.945-44.15 100.945-98.607v-65.398c0-61.399-51.153-84.306-114.255-84.306z" fill="#ffcdbe"></path><path d="M121.046 220.331v-65.398c0-56.104 42.714-80.065 98.227-83.781a240.506 240.506 0 0 0-16.027-.525c-63.103 0-114.254 22.907-114.254 84.306v65.398c0 54.458 45.194 98.607 100.943 98.607h26.621c.909 0 1.814-.013 2.717-.036-54.493-1.407-98.227-45.001-98.227-98.571z" fill="#ffaf9d"></path><g fill="#ab5e2e"><path d="M213.744 224.455h-13.805c-7.684 0-13.935-6.181-13.935-13.778v-31.966a7.5 7.5 0 0 1 15 0v30.744h12.74a7.5 7.5 0 0 1 0 15zM142.041 194.748a7.5 7.5 0 0 1-7.5-7.5v-22.695a7.5 7.5 0 0 1 15 0v22.695a7.5 7.5 0 0 1-7.5 7.5zM264.451 194.748a7.5 7.5 0 0 1-7.5-7.5v-22.695c0-4.142 3.357-7.5 7.5-7.5s7.5 3.358 7.5 7.5v22.695a7.5 7.5 0 0 1-7.5 7.5z" fill="#ab5e2e"></path></g><ellipse cx="375.461" cy="414.928" fill="#00c184" rx="97.453" ry="97.072"></ellipse><path d="M310.398 414.928c0-48.114 35.146-88.045 81.258-95.729a98.453 98.453 0 0 0-16.195-1.342c-53.821 0-97.453 43.461-97.453 97.072 0 53.61 43.632 97.072 97.453 97.072 5.518 0 10.928-.464 16.195-1.342-46.112-7.685-81.258-47.618-81.258-95.731z" fill="#07b17b"></path><path d="M203.246 280.702c-19.852 0-37.999-11.647-46.233-29.672a7.501 7.501 0 0 1 13.644-6.233c5.801 12.699 18.593 20.905 32.589 20.905 13.997 0 26.788-8.205 32.587-20.904a7.5 7.5 0 0 1 13.645 6.231c-8.232 18.026-26.379 29.673-46.232 29.673z" fill="#ab5e2e"></path><path d="M375.626 465.84a18.569 18.569 0 0 1-13.686-6.077l-51.082-56.253a3.09 3.09 0 0 1 .211-4.365l22.879-20.776a3.082 3.082 0 0 1 2.077-.802c.841 0 1.68.341 2.29 1.013l35.889 39.522c.389.427.943.674 1.521.675.579 0 1.135-.244 1.523-.67l84.285-92.08a3.087 3.087 0 0 1 2.143-1.001c.047-.003.091-.003.137-.003a3.09 3.09 0 0 1 2.087.811l22.797 20.867a3.089 3.089 0 0 1 .193 4.366l-99.546 108.751a18.583 18.583 0 0 1-13.678 6.023h-.04z" fill="#c7eefd"></path></g></svg>