<svg viewBox="0 0 511 512" xmlns="http://www.w3.org/2000/svg"><g><path d="m206.867 461.805-24.59-24.59c-5.855-5.856-15.355-5.856-21.21 0-5.532 5.531-5.833 14.305-.919 20.195h-27.601c-8.27 0-15-6.726-15-15v-29.492c0-8.285-6.715-15-15-15-8.281 0-14.996 6.715-14.996 15v29.492c0 24.813 20.183 45 44.996 45h27.601c-4.918 5.895-4.613 14.664.918 20.195A14.941 14.941 0 0 0 171.672 512c3.836 0 7.676-1.465 10.605-4.395l24.59-24.59c5.856-5.859 5.856-15.355 0-21.21zm0 0" fill="#91b6e3"></path><path d="M331.684 24.59h-27.598c4.914-5.895 4.61-14.668-.918-20.195-5.86-5.86-15.355-5.86-21.215 0L257.367 28.98a15.012 15.012 0 0 0-4.394 10.61c0 3.976 1.582 7.793 4.394 10.605l24.586 24.586a14.957 14.957 0 0 0 10.61 4.395c3.835 0 7.675-1.465 10.605-4.395 5.531-5.531 5.832-14.3.918-20.195h27.598c8.273 0 15 6.73 15 15v29.492c0 8.285 6.714 15 15 15s15-6.715 15-15V69.586c0-24.813-20.188-44.996-45-44.996zm0 0" fill="#b80f00"></path><path d="M497.48 511.988H256.488c-8.281 0-14.996-6.715-14.996-15V166.246c0-8.285 6.715-15 14.996-15h144.43c3.965 0 7.766 1.57 10.578 4.363l96.563 96.024a15.009 15.009 0 0 1 4.421 10.637v234.718c0 8.285-6.714 15-15 15zm0 0" fill="#ff674f"></path><path d="M411.496 155.61a15.012 15.012 0 0 0-10.578-4.364h-24.727v360.742h121.29c8.285 0 15-6.715 15-15V262.27c0-3.993-1.594-7.82-4.422-10.637zm0 0" fill="#f2472c"></path><path d="M512.48 262.27c0-3.993-1.593-7.82-4.421-10.637l-96.563-96.024a15.012 15.012 0 0 0-10.578-4.363v96.024c0 8.285 6.719 15 15 15zm0 0" fill="#b80f00"></path><path d="M256.488 360.75H15.5c-8.285 0-15-6.715-15-14.996V15.008c0-8.285 6.715-15 15-15h144.43c3.96 0 7.765 1.57 10.574 4.363l96.562 96.024a15 15 0 0 1 4.422 10.636v234.723c0 8.281-6.715 14.996-15 14.996zm0 0" fill="#dfeefa"></path><path d="M170.504 4.371A15.003 15.003 0 0 0 159.93.008h-23.934V360.75h120.492c8.285 0 15-6.715 15-14.996V111.03a15 15 0 0 0-4.422-10.636zm0 0" fill="#c9dff7"></path><path d="M271.488 111.031a15 15 0 0 0-4.422-10.636L170.504 4.37A15.003 15.003 0 0 0 159.93.008V96.03c0 8.285 6.715 15 15 15zm0 0" fill="#91b6e3"></path></g></svg>