<svg fill-rule="evenodd" viewBox="0 0 4335 4335" xmlns="http://www.w3.org/2000/svg"><g><g fill-rule="nonzero"><path d="M3544 3867c0 28-23 51-50 51H72c-28 0-50-23-50-51V1557c0-28 22-51 50-51h3422c27 0 50 23 50 51z" fill="#e9eff4"></path><path d="M3494 780c27 0 50 23 50 51v726c0 28-23 50-50 50H72c-28 0-50-22-50-50V831c0-28 22-51 50-51z" fill="#fc4549"></path><g fill="#587aa1"><path d="M2208 1698h266c28 0 51 23 51 51v266c0 28-23 51-51 51h-266c-28 0-51-23-51-51v-266c0-28 23-51 51-51zM1579 1698h266c28 0 51 23 51 51v266c0 28-23 51-51 51h-266c-28 0-51-23-51-51v-266c0-28 23-51 51-51zM951 1698h266c28 0 51 23 51 51v266c0 28-23 51-51 51H951c-28 0-51-23-51-51v-266c0-28 23-51 51-51zM322 1698h266c28 0 51 23 51 51v266c0 28-23 51-51 51H322c-28 0-51-23-51-51v-266c0-28 23-51 51-51zM2208 2251h266c28 0 51 23 51 51v266c0 28-23 51-51 51h-266c-28 0-51-23-51-51v-266c0-28 23-51 51-51zM1579 2251h266c28 0 51 23 51 51v266c0 28-23 51-51 51h-266c-28 0-51-23-51-51v-266c0-28 23-51 51-51zM951 2251h266c28 0 51 23 51 51v266c0 28-23 51-51 51H951c-28 0-51-23-51-51v-266c0-28 23-51 51-51zM322 2251h266c28 0 51 23 51 51v266c0 28-23 51-51 51H322c-28 0-51-23-51-51v-266c0-28 23-51 51-51zM2208 2804h266c28 0 51 23 51 51v266c0 28-23 51-51 51h-266c-28 0-51-23-51-51v-266c0-28 23-51 51-51zM322 2804h266c28 0 51 23 51 51v266c0 28-23 51-51 51H322c-28 0-51-23-51-51v-266c0-28 23-51 51-51zM2208 3357h266c28 0 51 23 51 51v266c0 28-23 51-51 51h-266c-28 0-51-23-51-51v-266c0-28 23-51 51-51zM1579 3357h266c28 0 51 23 51 51v266c0 28-23 51-51 51h-266c-28 0-51-23-51-51v-266c0-28 23-51 51-51zM951 3357h266c28 0 51 23 51 51v266c0 28-23 51-51 51H951c-28 0-51-23-51-51v-266c0-28 23-51 51-51zM322 3357h266c28 0 51 23 51 51v266c0 28-23 51-51 51H322c-28 0-51-23-51-51v-266c0-28 23-51 51-51z" fill="#587aa1"></path></g><path d="M893 3027c-20-20-20-52 0-72 20-19 52-19 72 0l101 101c20 20 20 52 0 72s-52 20-72 0z" fill="#ff4f75"></path><path d="M1202 2848c20-20 52-20 72 0s20 52 0 72l-208 208c-20 20-52 20-72 0s-20-52 0-72zM1522 3027c-20-20-20-52 0-72 20-19 52-19 72 0l100 101c20 20 20 52 0 72-19 20-52 20-71 0z" fill="#ff4f75"></path><path d="M1831 2848c20-20 52-20 72 0s20 52 0 72l-209 208c-19 20-52 20-71 0-20-20-20-52 0-72z" fill="#ff4f75"></path><path d="m2662 3020 604-1044c23-42 56-74 94-95v-1c41-23 87-35 132-35 46 0 92 12 132 35 38 22 71 54 95 96l603 1044c24 41 35 84 35 127 1 47-12 93-35 133s-56 74-97 98c-37 21-81 34-129 35H2884c-47-2-90-15-126-36-1 0-2-1-3-1-39-24-71-57-93-96-23-40-35-85-35-132 1-43 12-87 35-128h1z" fill="#ffd300"></path><path d="M3389 2137h206c28 0 51 23 51 51v613c0 28-23 51-51 51h-206c-28 0-51-23-51-51v-613c0-28 23-51 51-51zM3595 3226h-206c-28 0-51-23-51-51v-209c0-28 23-50 51-50h206c28 0 51 22 51 50v209c0 28-23 51-51 51z" fill="#fc4549"></path><path d="M1783 1244c-59 0-113-24-153-63v-1c-39-39-63-93-63-152V634c0-60 24-114 63-153s94-64 153-64 113 24 152 64h1c39 39 63 93 63 153v394c0 59-24 113-63 152h-1c-39 40-93 64-152 64zM688 1244c-59 0-113-24-152-63v-1h-1c-39-39-63-93-63-152V634c0-60 24-114 63-153h1c39-39 93-64 152-64s113 24 153 64c39 39 63 93 63 153v394c0 59-24 113-63 152-40 40-94 64-153 64zM2878 1244c-60 0-114-24-153-63v-1c-39-39-64-93-64-152V634c0-60 25-114 64-153s93-64 153-64c59 0 113 24 152 64 40 39 64 93 64 153v394c0 59-24 113-64 152-39 40-93 64-152 64z" fill="#bd081c"></path></g></g></svg>