<svg viewBox="0 0 512.003 512.003" xmlns="http://www.w3.org/2000/svg"><g><path d="M445.023 266.373c12.773 0 25.078-3.691 35.918-10.972 17.9-12.114 30.355-34.102 30.854-56.997.557-11.572 0-23.892-1.699-37.676-.498-3.97-2.52-7.573-5.684-10.02-3.135-2.446-7.119-3.486-11.104-3.032-15.271 1.965-30.919 9.229-43.957 20.599-.615-4.953-1.758-9.998-2.798-14.985 14.648-7.132 26.001-18.675 31.868-33.168 8.35-20.098 5.713-44.883-6.914-64.673-7.061-11.118-14.619-21.284-22.441-30.205-5.479-6.255-14.941-6.826-21.152-1.406-13.535 11.851-22.676 29.048-26.426 49.878-3.135 18.618-1.318 35.874 5.479 51.416 33.484 73.894 4.745 163.906-62.49 205.928-8.438 5.42-13.477 14.634-13.477 25.811 0 8.291 6.475 14.766 14.766 14.766s14.766-6.958 14.766-15.249c1.538-.959 3.003-1.985 4.504-2.988 11.99 10.529 26.58 16.307 42.283 16.318h.498c36.798 0 60.9-30.177 76.289-63.735 3.398-7.368.293-16.084-6.943-19.688-13.696-6.799-29.194-8.782-47.029-6.606a197.253 197.253 0 0 0 6.416-14.028c2.834.357 5.676.712 8.473.712z" fill="#ff9100"></path><path d="M162.543 327.677c-71.04-50.476-86.549-136.985-56.572-203.936l-.156-.075c6.288-15.013 8.007-31.796 4.931-50.096-3.691-20.64-12.803-37.837-26.396-49.731-6.211-5.42-15.674-4.849-21.152 1.406-7.822 8.921-15.381 19.087-22.441 30.19-12.627 19.819-15.264 44.619-6.943 64.526 5.858 14.588 17.208 26.158 31.835 33.303-1.02 5.032-1.967 10.049-2.585 15.15-13.101-11.466-29.056-18.768-44.371-20.739-3.926-.425-7.939.586-11.104 3.032s-5.215 6.064-5.684 10.02C.235 174.35-.322 186.684.176 198.154c.645 23.73 13.539 45.806 31.322 57.363 10.4 7.192 22.705 10.869 35.596 10.869 3.043 0 6.127-.363 9.212-.775 1.882 4.66 3.88 9.25 6.125 13.755-13.524-1.793-30.498-1.368-47.095 6.883-3.604 1.787-6.328 4.966-7.588 8.804s-.879 8.013.967 11.587c5.215 9.917 11.396 21.401 19.014 31.685 12.737 18.57 33.64 31.304 58.271 31.304 14.958 0 29.332-5.75 41.19-16.055 1.796 1.269 3.483 2.468 3.781 2.681l.029.615c0 8.291 6.709 15 15 15s15-6.709 15-15c0-16.127-10.225-23.363-18.457-29.193zM256 371.871c-8.291 0-15-6.709-15-15v-60c0-8.291 6.709-15 15-15s15 6.709 15 15v60c0 8.291-6.709 15-15 15z" fill="#fabe2c"></path><path d="M271 356.871v-60c0-8.291-6.709-15-15-15v90c8.291 0 15-6.709 15-15z" fill="#ff9100"></path><path d="M256.146 311.871c-1.377 0-2.783-.19-4.102-.571C183.725 291.803 136 228.653 136 157.725V71.871a14.965 14.965 0 0 1 7.471-12.949c4.629-2.71 10.371-2.71 14.941-.088.234.132 23.291 13.037 45.088 13.037 15.732 0 35.537-18.442 41.221-24.902 5.742-6.445 16.816-6.445 22.559 0 5.684 6.46 25.488 24.902 41.221 24.902 21.65 0 44.824-12.891 45.059-13.022 4.658-2.637 10.371-2.622 14.971.044a15.013 15.013 0 0 1 7.471 12.979V157.8c0 70.884-47.578 134.004-115.723 153.486a14.813 14.813 0 0 1-4.133.585z" fill="#fed843"></path><path d="M256.146 311.871c1.377 0 2.783-.19 4.131-.586C328.422 291.803 376 228.682 376 157.799V71.871a15.014 15.014 0 0 0-7.471-12.979c-4.6-2.666-10.313-2.681-14.971-.044-.234.132-23.408 13.022-45.059 13.022-15.732 0-35.537-18.442-41.221-24.902-2.871-3.223-7.075-4.834-11.279-4.834V311.85c.05.001.098.021.147.021z" fill="#fabe2c"></path><path d="M256.117 247.52c-2.432 0-4.834-.586-7.061-1.758C216.332 228.345 196 194.61 196 157.725v-11.147c0-7.837 6.035-14.341 13.828-14.956 12.832-.996 25.957-5.083 39.053-12.129a14.967 14.967 0 0 1 14.238 0c13.096 7.046 26.221 11.133 39.053 12.129 7.793.615 13.828 7.119 13.828 14.956v11.221c0 36.797-20.244 70.503-52.793 87.949a15.056 15.056 0 0 1-7.09 1.772z" fill="#fabe2c"></path><path d="M256.117 247.52c2.432 0 4.863-.586 7.09-1.772C295.756 228.302 316 194.595 316 157.799v-11.221c0-7.837-6.035-14.341-13.828-14.956-12.832-.996-25.957-5.083-39.053-12.129a14.986 14.986 0 0 0-7.119-1.802v129.8c.04 0 .077.029.117.029z" fill="#ff9100"></path><path d="M346 341.871H166c-8.401 0-15 6.599-15 15v120h210v-120c0-8.401-6.599-15-15-15z" fill="#646d73"></path><path d="M346 341.871h-90v135h105v-120c0-8.401-6.599-15-15-15z" fill="#474f54"></path><path d="M286 431.871h-60c-8.291 0-15-6.709-15-15s6.709-15 15-15h60c8.291 0 15 6.709 15 15s-6.709 15-15 15z" fill="#fed843"></path><path d="M286 401.871h-30v30h30c8.291 0 15-6.709 15-15s-6.709-15-15-15z" fill="#fabe2c"></path><path d="M376 491.871H136c-8.291 0-15-6.709-15-15s6.709-15 15-15h240c8.291 0 15 6.709 15 15s-6.709 15-15 15z" fill="#474f54"></path><path d="M376 461.871H256v30h120c8.291 0 15-6.709 15-15s-6.709-15-15-15z" fill="#32393f"></path></g></svg>