<svg fill-rule="evenodd" viewBox="0 0 1706.66 1706.66" xmlns="http://www.w3.org/2000/svg"><g><path d="M853.33 1706.66c-8.93 0-13.46-5.2-20-10.59-205.66-169.42-762.7-69.27-768.37-68.22-12.25 2.22-23.57-7.25-23.57-19.69V623.54c0-11.04 8.96-20 20-20h1583.87c11.04 0 20 8.96 20 20v984.63c0 12.49-11.38 21.92-23.59 19.69-3.04-.55-568.84-100.16-770.5 69.98-5.74 4.85-9.83 8.83-17.84 8.83z" fill="#a04b86"></path><path d="M853.33 1557.74c-3.89 0-7.78-1.14-11.15-3.4-221.43-148.78-640.04-122.5-644.2-122.25-11.55.63-21.35-8.31-21.35-19.96V432.45c0-10.85 8.64-19.71 19.47-19.98 104.37-2.72 207.68 4.06 306.89 20.19 25.94 4.22 492.31 33.93 700.67-.04 99.23-16.14 202.37-22.94 306.9-20.2 10.83.3 19.47 9.16 19.47 19.98v979.69c0 11.62-9.82 20.59-21.35 19.96-4.18-.26-422.93-26.42-644.21 122.25a19.752 19.752 0 0 1-11.13 3.43z" fill="#ffd08c"></path><g fill="#ffa871"><path d="M853.33 1449.91c-11.04 0-20-8.97-20-20v-231.36c0-26.33 40-26.32 40 0v231.36c0 11.04-8.96 20-20 20zM1336.12 1041.94h-217.71c-26.33 0-26.32-40 0-40h217.71c26.32 0 26.32 40 0 40zM1336.12 726.33h-174.15c-26.33 0-26.32-40 0-40h174.15c26.33 0 26.33 40 0 40zM588.26 1041.94h-217.7c-26.32 0-26.32-40 0-40h217.7c26.32 0 26.33 40 0 40zM544.71 884.16H370.56c-26.32 0-26.33-40 0-40h174.15c26.33 0 26.34 40 0 40zM544.71 726.33H370.56c-26.33 0-26.33-40 0-40h174.15c26.32 0 26.34 40 0 40zM1336.12 1304.25h-309.54c-26.33 0-26.32-40 0-40h309.54c26.32 0 26.32 40 0 40zM680.1 1175.59H370.56c-26.32 0-26.32-40 0-40H680.1c26.33 0 26.33 40 0 40zM680.1 1304.25H370.56c-26.32 0-26.32-40 0-40H680.1c26.33 0 26.33 40 0 40zM1336.12 884.16h-174.15c-26.33 0-26.33-40 0-40h174.15c26.33 0 26.32 40 0 40zM1336.12 1175.59h-309.54c-26.33 0-26.32-40 0-40h309.54c26.32 0 26.32 40 0 40z" fill="#ffa871"></path></g><path d="M860 1136.67h-13.37c-58.4 0-105.9-47.51-105.9-105.92 0-17.11-4.26-42.39 16.76-42.39h191.65c21.03 0 16.77 25.29 16.77 42.39 0 58.41-47.51 105.92-105.91 105.92z" fill="#c2c2c2"></path><path d="M963.63 1021.89H743c-58.39 0-105.9-47.52-105.9-105.93 0-364.26-162.68-282.93-162.68-537.06C474.42 169.97 644.4-.01 853.33-.01s378.91 169.98 378.91 378.91c0 254.12-162.65 172.77-162.68 537.06-.01 58.41-47.53 105.93-105.92 105.93z" fill="#ffcc00"></path><path d="M963.63 1021.89H743c-58.39 0-105.9-47.52-105.9-105.93 0-4.11-.04-8.09-.09-12.09h432.63c-.04 4-.09 7.98-.09 12.09-.01 58.41-47.53 105.93-105.92 105.93z" fill="#a0a0a0"></path><path d="M637.21 920.65c-2.09-46.83-.45-63.56-5.26-106.76h442.77c-4.76 42.81-3.27 59.8-5.27 106.76z" fill="#c2c2c2"></path><path d="M892.41 646.14c-112.89 0-113 9.32-113-75.65a205.24 205.24 0 0 1-11.51-4.78c-60.01 60.01-54.23 52.79-133.42-26.4-29.72-29.72 9.18-58.46 28.86-78.14-1.71-3.79-3.31-7.63-4.78-11.51-84.96 0-75.64-.11-75.64-113 0-42.02 47.83-34.83 75.64-34.83 1.47-3.89 3.07-7.74 4.78-11.52-60.07-60.07-53.46-53.46 26.42-133.39 29.65-29.67 59.63 10.37 78.14 28.88 3.79-1.71 7.63-3.31 11.51-4.78 0-84.96.1-75.65 113.02-75.66 42.02 0 34.84 47.83 34.84 75.65 3.86 1.47 7.7 3.07 11.5 4.78 60.03-60.06 54.22-52.75 133.41 26.39 29.71 29.69-9.19 58.43-28.88 78.13 1.7 3.79 3.29 7.63 4.78 11.51 85 0 75.67.12 75.67 113 0 42.02-47.85 34.83-75.66 34.83a205.24 205.24 0 0 1-4.78 11.51c59.97 59.97 53.63 53.42-26.41 133.41-29.69 29.67-59.66-10.38-78.13-28.86-3.79 1.7-7.64 3.31-11.51 4.78 0 27.83 7.17 75.66-34.85 75.66z" fill="#4a5254"></path><path d="M853.33 517.69c-78.28 0-141.96-63.68-141.96-141.96s63.68-141.96 141.96-141.96S995.3 297.45 995.3 375.73c0 78.29-63.7 141.96-141.97 141.96z" fill="#d6e3ff"></path></g></svg>