<svg viewBox="0 0 512 511" xmlns="http://www.w3.org/2000/svg"><g><path d="M184.3 407.25h162.618v79.41H184.301zm0 0" fill="#304c56"></path><path d="M437.11 33.371H74.89c-41.359 0-74.886 33.531-74.886 74.89v247.552c0 41.359 33.527 74.886 74.887 74.886h362.218c41.364 0 74.891-33.527 74.891-74.887v-247.55c0-41.36-33.527-74.89-74.89-74.89zm0 0" fill="#4b6570"></path><path d="M100.727 430.703h-25.84C33.53 430.703 0 397.172 0 355.813V108.257C0 66.898 33.531 33.37 74.887 33.37h25.84c-41.356 0-74.887 33.527-74.887 74.887v247.555c0 41.359 33.531 74.89 74.887 74.89zm0 0" fill="#304c56"></path><path d="M360.93 501.89H170.29c-14.712 0-19.7-19.632-6.774-26.656l20.785-11.296h162.617l20.789 11.296c12.922 7.024 7.934 26.657-6.777 26.657zm0 0" fill="#4b6570"></path><path d="M31.34 312.93V105.16c0-22.336 18.105-40.441 40.437-40.441h368.426c22.336 0 40.442 18.11 40.442 40.441v207.77c0 22.332-18.106 40.437-40.442 40.437H71.777c-22.332 0-40.437-18.105-40.437-40.437zm0 0" fill="#efe1f9"></path><path d="M440.203 361.207H71.777c-26.617 0-48.277-21.656-48.277-48.277V105.16c0-26.62 21.66-48.277 48.277-48.277h368.426c26.621 0 48.277 21.656 48.277 48.277v207.766c0 26.62-21.656 48.281-48.277 48.281zM71.777 72.559c-17.976 0-32.601 14.625-32.601 32.601v207.77c0 17.976 14.625 32.601 32.601 32.601h368.426c17.977 0 32.606-14.625 32.606-32.601V105.16c0-17.976-14.63-32.601-32.606-32.601zm0 0" fill="#304c56"></path><path d="M219.86 21.363 89.495 247.156c-16.058 27.813 4.016 62.582 36.133 62.582h260.723c32.12 0 52.195-34.77 36.136-62.582L292.125 21.363c-16.059-27.816-56.207-27.816-72.266 0zm0 0" fill="#e83669"></path><path d="M125.629 278.395c-5.211 0-7.867-3.254-8.984-5.188-1.122-1.937-2.61-5.863 0-10.379L247.008 37.035c2.605-4.515 6.746-5.187 8.984-5.187 2.238 0 6.38.672 8.985 5.187L395.34 262.828c2.605 4.516 1.117 8.442 0 10.379-1.117 1.934-3.774 5.188-8.985 5.188zm0 0" fill="#ff557e"></path><g fill="#ffe76e"><path d="M242.566 193.25c0 6.262 4.977 10 13.317 10 5.062 0 13.094-2.715 13.094-10 0-13.156.789-29.465 1.546-45.234.762-15.778 1.551-32.09 1.551-45.262 0-8.102-6.66-13.758-16.195-13.758-9.817 0-16.41 5.527-16.41 13.758 0 13.172.785 29.484 1.547 45.262.761 15.77 1.55 32.078 1.55 45.234zM256.102 217.992c-9.7 0-17.297 7.602-17.297 17.301 0 9.539 7.761 17.3 17.297 17.3 9.097 0 17.078-8.085 17.078-17.3 0-9.375-7.82-17.3-17.078-17.3zm0 0" fill="#ffe76e"></path></g></g></svg>