<svg viewBox="0 0 64 64" xmlns="http://www.w3.org/2000/svg"><g><path d="m3 8.174 19.32-5.18 4.404 16.422-19.32 5.18z" fill="#5a6d80"></path><path d="m19.698 15.465-3.463-1.999 2-3.464-1.733-1-2 3.463-3.464-2-1 1.733 3.464 2-2 3.464 1.733 1 1.999-3.464 3.464 2z" fill="#dadfe6"></path><path d="m16.104 22.266 1.93-.526 4.359 15.993-1.93.526z" fill="#758da6"></path><path d="M30 18.261v14a2 2 0 0 0 2 2h5l-2 5 7-5h6a2 2 0 0 0 2-2v-14a2 2 0 0 0-2-2H32a2 2 0 0 0-2 2z" fill="#5a6d80"></path><circle cx="30" cy="47" fill="#759acc" r="4"></circle><path d="m44 41-8 10H26a3 3 0 0 0-3 3v8h13v-5l11-14z" fill="#759acc"></path><circle cx="10" cy="45" fill="#759acc" r="4"></circle><path d="M19 36v6.597c0 .908-.309 1.79-.877 2.499L15 49H8a5 5 0 0 0-5 5v8h14v-8l4.654-6.987a8.003 8.003 0 0 0 1.342-4.431L23 36z" fill="#759acc"></path><path d="m58 56 2-7-4 3-2-6-2 6-5-2 3 6-4-1 4 6h8l4-6.75z" fill="#ff8088"></path><path d="M13.5 36.261h-2c0-1 .421-1.561.7-1.933.212-.282.3-.399.3-.731 0-.334-.088-.451-.3-.734-.278-.371-.7-.934-.7-1.934s.421-1.562.7-1.934c.212-.283.3-.4.3-.734h2c0 1-.421 1.562-.7 1.934-.212.283-.3.4-.3.734s.088.451.3.734c.278.371.7.934.7 1.934s-.421 1.561-.7 1.933c-.212.282-.3.399-.3.731zM8.5 36.261h-2c0-1 .421-1.561.7-1.933.212-.282.3-.399.3-.731 0-.334-.088-.451-.3-.734-.278-.371-.7-.934-.7-1.934s.421-1.562.7-1.934c.212-.283.3-.4.3-.734h2c0 1-.421 1.562-.7 1.934-.212.283-.3.4-.3.734s.088.451.3.734c.278.371.7.934.7 1.934s-.421 1.561-.7 1.933c-.212.282-.3.399-.3.731z" fill="#758da6"></path><path d="M44.243 21.019c-1.133-1.134-2.64-1.758-4.243-1.758s-3.109.624-4.243 1.758C34.624 22.152 34 23.659 34 25.261s.624 3.109 1.757 4.242c1.133 1.134 2.64 1.758 4.243 1.758s3.109-.624 4.243-1.758C45.376 28.371 46 26.864 46 25.261s-.624-3.109-1.757-4.242zm-7.072 1.414A3.973 3.973 0 0 1 40 21.261c.725 0 1.413.206 2.022.565l-5.457 5.456A3.962 3.962 0 0 1 36 25.261c0-1.068.416-2.072 1.171-2.828zm5.658 5.656c-1.268 1.268-3.319 1.458-4.841.598l5.448-5.448c.358.609.564 1.297.564 2.022a3.973 3.973 0 0 1-1.171 2.828zM53 58h2v2h-2z" fill="#dadfe6"></path><path d="m58.98 42.458-1.961-.393a13.747 13.747 0 0 1 3.235-6.469l1.491 1.332a11.757 11.757 0 0 0-2.765 5.53zM51.075 37.703l1.788-.894 2 3.998-1.789.894z" fill="#758da6"></path></g></svg>