<svg viewBox="0 0 512.001 512.001" xmlns="http://www.w3.org/2000/svg"><g><path d="m42.51 129.633 50.753 311.8h325.474L88.076 99.7z" fill="#ffe6a1"></path><path d="m469.49 129.633-50.753 311.8H93.263L423.924 99.7z" fill="#ffe6a1"></path><path d="M93.263 441.433h325.474L256 273.246z" fill="#ffd550"></path><ellipse cx="256" cy="441.438" fill="#f7cb52" rx="162.74" ry="39.31"></ellipse><path d="M41.552 126.704 2.858 67.801c-5.275-8.029-3.041-18.814 4.988-24.089l14.615-9.6c8.029-5.275 18.814-3.041 24.089 4.988l38.694 58.903-43.692 28.701z" fill="#1e608b"></path><path d="m23.123 48.945 41.12 62.854 21.001-13.796L46.55 39.099c-5.275-8.029-16.06-10.263-24.089-4.988l-11.027 7.244c4.617.769 8.916 3.369 11.689 7.59z" fill="#135370"></path><path d="M109.658 78.968c-.64-4.166-4.545-7.031-8.704-6.386l-26.609 4.087a7.635 7.635 0 0 0-3.032 1.165l-42.799 28.115a7.622 7.622 0 0 0-2.273 2.32l-14.437 22.988a7.633 7.633 0 0 0 12.928 8.12l3.81-6.067 2.09 8.673c.482 2.001 2.803 2.918 4.523 1.788l68.293-44.862c1.72-1.13 1.799-3.624.155-4.861l-7.097-5.338 6.768-1.039a7.633 7.633 0 0 0 6.384-8.703z" fill="#fec93e"></path><path d="m70.093 120.82 33.355-21.911c1.72-1.13 1.799-3.624.155-4.861l-7.097-5.338 6.768-1.039a7.634 7.634 0 0 0 6.386-8.704c-.64-4.166-4.545-7.031-8.704-6.386l-26.609 4.087a7.635 7.635 0 0 0-3.032 1.165l-20.51 13.472 19.288 29.515z" fill="#efb73a"></path><path d="m470.448 126.704 38.694-58.903c5.275-8.029 3.041-18.814-4.988-24.089l-14.615-9.6c-8.029-5.275-18.814-3.041-24.089 4.988l-38.694 58.903 43.692 28.701z" fill="#135370"></path><path d="m488.877 48.945-41.12 62.854-21.001-13.796L465.45 39.1c5.275-8.029 16.06-10.263 24.089-4.988l11.027 7.244c-4.617.768-8.916 3.368-11.689 7.589z" fill="#1e608b"></path><path d="M402.342 78.968c.64-4.166 4.545-7.031 8.703-6.386l26.609 4.087a7.635 7.635 0 0 1 3.032 1.165l42.799 28.115a7.622 7.622 0 0 1 2.273 2.32l14.437 22.988a7.633 7.633 0 0 1-12.928 8.12l-3.81-6.067-2.09 8.673c-.482 2.001-2.803 2.918-4.523 1.788l-68.293-44.862c-1.72-1.13-1.799-3.624-.155-4.861l7.097-5.338-6.768-1.039a7.633 7.633 0 0 1-6.383-8.703z" fill="#efb73a"></path><path d="m441.907 120.82-33.355-21.911c-1.72-1.13-1.799-3.624-.155-4.861l7.097-5.338-6.768-1.039a7.634 7.634 0 0 1-6.386-8.704c.64-4.166 4.545-7.031 8.703-6.386l26.609 4.087a7.635 7.635 0 0 1 3.032 1.165l20.508 13.472-19.285 29.515z" fill="#fec93e"></path></g></svg>