<svg viewBox="0 0 512 512" xmlns="http://www.w3.org/2000/svg"><g><g clip-rule="evenodd" fill-rule="evenodd"><path d="M70.239 15h116.31c30.385 0 55.13 24.745 55.13 55.13v116.31c0 30.385-24.745 55.13-55.13 55.13H70.239c-30.385 0-55.13-24.745-55.13-55.13V70.13c0-30.385 24.745-55.13 55.13-55.13z" fill="#fd4755"></path><path d="M325.668 270.43h116.31c30.385 0 55.13 24.745 55.13 55.13v116.31c0 30.385-24.745 55.13-55.13 55.13h-116.31c-30.385 0-55.13-24.745-55.13-55.13V325.56c0-30.386 24.745-55.13 55.13-55.13z" fill="#ffb229"></path><path d="M311.671 56.133c39.85-39.851 104.454-39.85 144.304 0s39.85 104.454 0 144.304-104.454 39.851-144.304 0c-39.85-39.85-39.85-104.453 0-144.304z" fill="#00e499"></path><path d="m162.569 299.959 73.9 127.998c15.483 26.773-4.309 59.269-34.175 59.269h-147.8c-30.448 0-49.538-33.295-34.175-59.269l73.9-127.998c15.135-26.177 52.996-26.516 68.35 0z" fill="#60b7ff"></path><path d="M70.239 15h116.31c30.385 0 55.13 24.745 55.13 55.13v116.31c0 23.928-15.346 44.354-36.706 51.957 7.93-9.551 12.706-21.809 12.706-35.157V86.93c0-30.385-24.745-55.13-55.13-55.13H46.239a54.837 54.837 0 0 0-18.424 3.173C37.938 22.781 53.201 15 70.239 15z" fill="#e4404d"></path><path d="M325.668 270.43h116.31c30.385 0 55.13 24.745 55.13 55.13v116.31c0 23.927-15.347 44.353-36.706 51.957 7.93-9.552 12.707-21.81 12.707-35.157V342.36c0-30.385-24.745-55.13-55.13-55.13h-116.31a54.837 54.837 0 0 0-18.424 3.173c10.123-12.192 25.386-19.973 42.423-19.973z" fill="#e6a025"></path><path d="M313.986 53.898c39.999-37.595 102.901-36.853 141.989 2.236 39.85 39.85 39.85 104.454 0 144.304a101.93 101.93 0 0 1-26.313 19.035c.779-.732 1.552-1.474 2.313-2.235 39.85-39.85 39.85-104.453 0-144.304-31.928-31.928-79.744-38.27-117.989-19.036z" fill="#00cd8a"></path><path d="m162.569 299.959 73.9 127.998c13.869 23.981-.567 52.55-25.192 58.248 7.716-11.689 9.34-27.359 1.192-41.448l-73.9-127.998c-9.406-16.244-27.258-22.406-43.158-18.727 15.843-24.245 52.192-23.92 67.158 1.927z" fill="#56a5e6"></path></g></g></svg>