<svg viewBox="0 0 64 64" xmlns="http://www.w3.org/2000/svg"><g><path d="M32 2C15.5 2 2 15.5 2 32s13.5 30 30 30 30-13.5 30-30S48.5 2 32 2z" fill="#ffce00"></path><path d="M48 30H16c-1.1 0-2 .9-2 2 0 9.9 8.1 18 18 18s18-8.1 18-18c0-1.1-.9-2-2-2z" fill="#f9f9f9"></path><g fill="#661800"><path d="M48 30H16c-1.1 0-2 .9-2 2 0 9.9 8.1 18 18 18s18-8.1 18-18c0-1.1-.9-2-2-2zM32 46c-7 0-12.9-5.2-13.9-12h27.7C44.9 40.8 39 46 32 46zM36 24c1.1 0 2-.9 2-2s.9-2 2-2 2 .9 2 2 .9 2 2 2 2-.9 2-2c0-3.3-2.7-6-6-6s-6 2.7-6 6c0 1.1.9 2 2 2zM20 24c1.1 0 2-.9 2-2s.9-2 2-2 2 .9 2 2 .9 2 2 2 2-.9 2-2c0-3.3-2.7-6-6-6s-6 2.7-6 6c0 1.1.9 2 2 2z" fill="#661800"></path></g><path d="M32 2c-4.4 0-8.7 1-12.5 2.7 2.7-.8 5.5-1.2 8.5-1.2 16.5 0 30 13.5 30 30 0 12.1-7.2 22.5-17.5 27.3C52.9 57.1 62 45.6 62 32 62 15.5 48.5 2 32 2z" fill="#edbf00"></path></g></svg>