<svg id="Capa_1" enable-background="new 0 0 512 512" height="512" viewBox="0 0 512 512" width="512" xmlns="http://www.w3.org/2000/svg"><g><path d="m406.475 0h-300.95c-5.156 0-9.466 3.921-9.946 9.054-2.795 29.881-19.286 55.783-43.133 71.366-2.796 1.828-4.446 4.973-4.446 8.313v165.806c0 115.417 75.276 217.338 185.589 251.28l17.866 5.497c2.961.911 6.128.911 9.089 0l17.866-5.497c110.314-33.942 185.59-135.863 185.59-251.28v-165.806c0-3.34-1.65-6.485-4.446-8.312-23.846-15.583-40.337-41.485-43.133-71.366-.48-5.134-4.791-9.055-9.946-9.055z" fill="#314dc9"/><g fill="#2740b0"><path d="m392.274 110.423v16c0 4.268 3.459 7.726 7.726 7.726s7.726-3.459 7.726-7.726v-16c0-6.159-2.359-11.778-6.222-16 3.862-4.222 6.222-9.841 6.222-16 0-13.082-10.643-23.726-23.726-23.726h-16c-4.267 0-7.726 3.459-7.726 7.726v64c0 4.268 3.459 7.726 7.726 7.726s7.726-3.459 7.726-7.726v-24.274h8.274c4.562 0 8.274 3.711 8.274 8.274zm-16.548-23.727v-16.547h8.274c4.562 0 8.274 3.711 8.274 8.274 0 4.562-3.712 8.274-8.274 8.274h-8.274z"/><path d="m215.726 126.423c0-4.268-3.459-7.726-7.726-7.726h-24.274v-16.547h8.274c4.267 0 7.726-3.459 7.726-7.726 0-4.268-3.459-7.726-7.726-7.726h-8.274v-16.549h24.274c4.267 0 7.726-3.459 7.726-7.726s-3.459-7.726-7.726-7.726h-32c-4.267 0-7.726 3.459-7.726 7.726v64c0 4.268 3.459 7.726 7.726 7.726h32c4.267 0 7.726-3.459 7.726-7.726z"/><path d="m343.726 126.423c0-4.268-3.459-7.726-7.726-7.726h-24.274v-16.547h8.274c4.267 0 7.726-3.459 7.726-7.726 0-4.268-3.459-7.726-7.726-7.726h-8.274v-16.549h24.274c4.267 0 7.726-3.459 7.726-7.726s-3.459-7.726-7.726-7.726h-32c-4.267 0-7.726 3.459-7.726 7.726v64c0 4.268 3.459 7.726 7.726 7.726h32c4.267 0 7.726-3.459 7.726-7.726z"/><path d="m120 182.696h-5.698c-4.267 0-7.726 3.459-7.726 7.726 0 3.565 2.415 6.566 5.698 7.458v8.542c0 4.562-3.712 8.274-8.274 8.274s-8.274-3.711-8.274-8.274v-32c0-4.562 3.712-8.274 8.274-8.274 2.21 0 4.288.86 5.851 2.424 3.017 3.016 7.909 3.016 10.927 0 3.018-3.018 3.018-7.909 0-10.928-4.481-4.481-10.44-6.949-16.777-6.949-13.083 0-23.726 10.644-23.726 23.726v32c0 13.083 10.643 23.726 23.726 23.726s23.726-10.644 23.726-23.726v-16c-.001-4.266-3.46-7.725-7.727-7.725z"/><path d="m360 150.696c-4.267 0-7.726 3.459-7.726 7.726v48c0 4.562-3.712 8.274-8.274 8.274s-8.274-3.711-8.274-8.274v-48c0-4.268-3.459-7.726-7.726-7.726s-7.726 3.459-7.726 7.726v48c0 13.083 10.643 23.726 23.726 23.726s23.726-10.644 23.726-23.726v-48c0-4.267-3.459-7.726-7.726-7.726z"/><path d="m152 150.696c-4.267 0-7.726 3.459-7.726 7.726v64c0 4.268 3.459 7.726 7.726 7.726s7.726-3.459 7.726-7.726v-64c0-4.267-3.459-7.726-7.726-7.726z"/><path d="m151.726 126.423v-64c0-4.268-3.459-7.726-7.726-7.726s-7.726 3.459-7.726 7.726v31.271l-17.364-34.727c-1.603-3.204-5.199-4.888-8.686-4.064s-5.951 3.937-5.951 7.52v64c0 4.268 3.459 7.726 7.726 7.726s7.726-3.459 7.726-7.726v-31.271l17.363 34.726c1.33 2.66 4.034 4.272 6.908 4.272.589 0 1.185-.067 1.777-.207 3.49-.824 5.953-3.937 5.953-7.52z"/><path d="m408 150.696h-16c-4.267 0-7.726 3.459-7.726 7.726v64c0 4.268 3.459 7.726 7.726 7.726s7.726-3.459 7.726-7.726v-24.274h8.274c13.083 0 23.726-10.644 23.726-23.726s-10.643-23.726-23.726-23.726zm0 32h-8.274v-16.547h8.274c4.562 0 8.274 3.711 8.274 8.274 0 4.562-3.712 8.273-8.274 8.273z"/><path d="m256 134.149c3.545 0 6.636-2.412 7.495-5.852l16-64c1.035-4.14-1.482-8.335-5.622-9.37-4.133-1.031-8.335 1.483-9.369 5.622l-8.504 34.017-8.505-34.018c-1.035-4.139-5.234-6.658-9.369-5.622-4.14 1.035-6.657 5.23-5.622 9.37l16 64c.86 3.44 3.951 5.853 7.496 5.853z"/><path d="m280 166.149c4.267 0 7.726-3.459 7.726-7.726s-3.459-7.726-7.726-7.726h-32c-4.267 0-7.726 3.459-7.726 7.726v64c0 4.268 3.459 7.726 7.726 7.726h32c4.267 0 7.726-3.459 7.726-7.726s-3.459-7.726-7.726-7.726h-24.274v-16.547h8.274c4.267 0 7.726-3.459 7.726-7.726s-3.459-7.726-7.726-7.726h-8.274v-16.547h24.274z"/><path d="m217.874 150.927c-4.133-1.029-8.334 1.482-9.369 5.622l-8.505 34.017-8.505-34.018c-1.034-4.14-5.233-6.657-9.369-5.622-4.14 1.035-6.657 5.23-5.622 9.37l16 64c.86 3.44 3.95 5.852 7.495 5.852s6.636-2.412 7.495-5.852l16-64c1.037-4.139-1.48-8.334-5.62-9.369z"/><path d="m406.475 0h-29.466c4.061 18.568 13.495 35.126 26.592 47.962 12.186 11.943 19.192 28.193 19.192 45.256v140.717c0 115.417-75.276 217.338-185.589 251.28-14.714 3.678-30.107 3.678-44.821 0-6.555-2.017-12.985-4.274-19.284-6.759 18.618 11.456 38.882 20.714 60.491 27.363l17.866 5.497c2.961.911 6.128.911 9.089 0l17.867-5.498c110.312-33.942 185.588-135.862 185.588-251.279v-165.806c0-3.34-1.65-6.485-4.446-8.312-23.846-15.583-40.337-41.485-43.133-71.366-.48-5.134-4.791-9.055-9.946-9.055z"/></g><path d="m90 240c-5.523 0-10 4.477-10 10v4.539c0 49.736 15.619 97.174 45.168 137.182 24.802 33.58 57.491 59.319 95.464 75.372 7.269 3.073 79.901-3.449 94.316-11.591 27.996-15.812 52.379-37.372 71.885-63.781 29.548-40.008 45.167-87.445 45.167-137.182v-4.539c0-5.523-4.477-10-10-10z" fill="#fe0364"/><path d="m327.14 304.393h-12.596c-6.288 0-11.386 5.098-11.386 11.386v-11.789c0-6.288-5.098-11.386-11.386-11.386h-12.596c-6.288 0-11.386 5.098-11.386 11.386 0-6.288-5.098-11.386-11.386-11.386h-12.596c-6.288 0-11.386 5.098-11.386 11.386 0-6.288-5.098-11.386-11.386-11.386h-12.596c-6.288 0-11.386 5.098-11.386 11.386v35.772l-15.797 15.797c-4.982 4.983-7.782 11.74-7.782 18.786v25.148c0 7.046 2.799 13.804 7.781 18.786l31.595 31.595c4.607 4.607 7.347 10.732 7.734 17.199.016.007.032.013.047.02 7.269 3.073 79.901-3.449 94.316-11.591 1.941-1.096 3.864-2.221 5.769-3.372.624-.786 1.296-1.539 2.012-2.255l4.681-4.681c7.128-7.128 11.116-16.786 11.116-26.838v-102.577c0-6.288-5.098-11.386-11.386-11.386z" fill="#e30256"/><path d="m390.715 240c-1.218 47.523-16.744 92.739-45.089 131.118-19.505 26.409-43.889 47.969-71.885 63.781-.035.02-.07.039-.105.059-14.385 8.115-29.723 14.714-45.842 19.674h-.001c-9.164 2.444-18.846 2.275-27.887-.59-4.283-1.357-8.51-2.831-12.678-4.418 10.586 6.701 21.746 12.542 33.404 17.471 7.269 3.073 79.901-3.449 94.316-11.591 27.996-15.812 52.379-37.372 71.885-63.781 29.548-40.01 45.167-87.447 45.167-137.184v-4.539c0-5.523-4.477-10-10-10z" fill="#e30256"/><path d="m322.729 429.271 4.681-4.681c6.586-6.586 10.502-15.344 11.05-24.59.044-.746-18.46-15.248-18.46-16l18.526-16v-72.824c0-6.288-5.098-11.386-11.386-11.386h-12.596c-6.288 0-11.386 5.098-11.386 11.386v-11.789c0-6.288-5.098-11.386-11.386-11.386h-12.596c-6.288 0-11.386 5.098-11.386 11.386 0-6.288-5.098-11.386-11.386-11.386h-12.596c-6.288 0-11.386 5.098-11.386 11.386 0-6.288-5.098-11.386-11.386-11.386h-12.596c-6.288 0-11.386 5.098-11.386 11.386v31.63c0 2.652-1.054 5.196-2.929 7.071l-12.868 12.868c-4.982 4.982-7.782 11.74-7.782 18.786v25.148c0 7.046 2.799 13.804 7.781 18.786l31.595 31.595c4.982 4.982 7.781 11.74 7.781 18.786v19.036c7.269 3.073 14.731 5.791 22.369 8.141l12.999 4 13.001-4c16.158-4.972 31.531-11.591 45.947-19.733v-7.444c-.001-7.046 2.798-13.803 7.781-18.786z" fill="#ffcebf"/><g fill="#ffb09e"><path d="m267.789 283.386c0-6.289-5.098-11.386-11.386-11.386h-3.614v58.6c0 4.125 3.178 7.739 7.302 7.845 4.233.109 7.698-3.289 7.698-7.497v-47.566c.001.001 0 .003 0 .004z"/><path d="m295.46 338.445c4.233.109 7.698-3.289 7.698-7.497v-47.576c-.008-6.282-5.103-11.372-11.386-11.372h-3.614v58.6c0 4.125 3.178 7.738 7.302 7.845z"/><path d="m224.723 338.445c4.233.109 7.698-3.289 7.698-7.497v-47.571c-.005-6.284-5.101-11.377-11.386-11.377h-3.614v58.6c0 4.125 3.178 7.738 7.302 7.845z"/><path d="m189.355 373.813c4.233.109 7.698-3.289 7.698-7.497v-82.939.01 31.63c0 2.652-1.054 5.196-2.929 7.071l-12.071 12.071v31.81c0 4.124 3.178 7.738 7.302 7.844z"/></g><path d="m390.715 240c-1.218 47.523-16.744 92.739-45.089 131.118-19.505 26.409-43.889 47.969-71.885 63.781-.035.02-.07.039-.105.059-14.385 8.115-29.723 14.714-45.842 19.674h-.001c-9.164 2.444-18.846 2.275-27.887-.59-4.283-1.357-8.51-2.831-12.678-4.418 10.586 6.701 21.746 12.542 33.404 17.471 7.269 3.073 79.901-3.449 94.316-11.591 27.996-15.812 52.379-37.372 71.885-63.781 29.548-40.01 45.167-87.447 45.167-137.184v-4.539c0-5.523-4.477-10-10-10z" fill="#e30256"/><path d="m304 368c-8.837 0-16 7.163-16 16 0 8.837 7.163 16 16 16h34.459c.044-.746.067-1.496.067-2.247v-29.753z" fill="#fea713"/><path d="m328.683 391.537c-16.071 17.272-34.548 31.842-54.943 43.361-.035.02-.07.039-.105.059-14.385 8.115-29.723 14.714-45.842 19.674h-.001c-2.35.723-4.745 1.245-7.161 1.567v10.895c7.269 3.073 14.731 5.791 22.369 8.141l12.999 4 13.001-4c16.158-4.972 31.531-11.591 45.947-19.733v-7.444c0-7.046 2.799-13.804 7.782-18.786l4.681-4.681c6.586-6.586 10.502-15.344 11.05-24.59.023-.388-4.976-4.501-9.777-8.463z" fill="#ffb09e"/><path d="m304 368c-8.837 0-16 7.163-16 16 0 8.837 7.163 16 16 16h34.459c.044-.746.067-1.496.067-2.247v-29.753z" fill="#fea713"/><path d="m320.395 400h18.064c.044-.746.067-1.496.067-2.247v-17.501c-5.693 6.965-11.745 13.555-18.131 19.748z" fill="#fe9901"/><g><g><path d="m279.579 444.553h-23.579c-4.142 0-7.5-3.357-7.5-7.5s3.358-7.5 7.5-7.5h23.579c4.142 0 7.5 3.357 7.5 7.5s-3.358 7.5-7.5 7.5z" fill="#ffb09e"/></g></g><path d="m273.635 434.957c-6.105 3.444-12.381 6.614-18.816 9.503.385.061.779.093 1.181.093h23.579c4.142 0 7.5-3.357 7.5-7.5 0-3.277-2.101-6.061-5.029-7.083-2.733 1.7-5.503 3.343-8.31 4.929-.034.019-.07.039-.105.058z" fill="#ffa78f"/><path d="m392.5 96v16c0 4.143 3.358 7.5 7.5 7.5s7.5-3.357 7.5-7.5v-16c0-6.175-2.394-11.802-6.303-16 3.909-4.198 6.303-9.825 6.303-16 0-12.958-10.542-23.5-23.5-23.5h-16c-4.142 0-7.5 3.357-7.5 7.5v64c0 4.143 3.358 7.5 7.5 7.5s7.5-3.357 7.5-7.5v-24.5h8.5c4.687 0 8.5 3.813 8.5 8.5zm-17-23.5v-17h8.5c4.687 0 8.5 3.813 8.5 8.5s-3.813 8.5-8.5 8.5z" fill="#fff"/><path d="m215.5 112c0-4.143-3.358-7.5-7.5-7.5h-24.5v-17h8.5c4.142 0 7.5-3.357 7.5-7.5s-3.358-7.5-7.5-7.5h-8.5v-17h24.5c4.142 0 7.5-3.357 7.5-7.5s-3.358-7.5-7.5-7.5h-32c-4.142 0-7.5 3.357-7.5 7.5v64c0 4.143 3.358 7.5 7.5 7.5h32c4.142 0 7.5-3.357 7.5-7.5z" fill="#fff"/><path d="m343.5 112c0-4.143-3.358-7.5-7.5-7.5h-24.5v-17h8.5c4.142 0 7.5-3.357 7.5-7.5s-3.358-7.5-7.5-7.5h-8.5v-17h24.5c4.142 0 7.5-3.357 7.5-7.5s-3.358-7.5-7.5-7.5h-32c-4.142 0-7.5 3.357-7.5 7.5v64c0 4.143 3.358 7.5 7.5 7.5h32c4.142 0 7.5-3.357 7.5-7.5z" fill="#fff"/><path d="m120 168.5h-5.698c-4.142 0-7.5 3.357-7.5 7.5 0 3.521 2.426 6.476 5.698 7.282v8.718c0 4.687-3.813 8.5-8.5 8.5s-8.5-3.813-8.5-8.5v-32c0-4.687 3.813-8.5 8.5-8.5 2.271 0 4.405.884 6.011 2.49 2.929 2.928 7.678 2.928 10.606 0 2.929-2.93 2.929-7.678 0-10.607-4.438-4.438-10.34-6.883-16.617-6.883-12.958 0-23.5 10.542-23.5 23.5v32c0 12.958 10.542 23.5 23.5 23.5s23.5-10.542 23.5-23.5v-16c0-4.143-3.358-7.5-7.5-7.5z" fill="#fe0364"/><path d="m360 136.5c-4.142 0-7.5 3.357-7.5 7.5v48c0 4.687-3.813 8.5-8.5 8.5s-8.5-3.813-8.5-8.5v-48c0-4.143-3.358-7.5-7.5-7.5s-7.5 3.357-7.5 7.5v48c0 12.958 10.542 23.5 23.5 23.5s23.5-10.542 23.5-23.5v-48c0-4.143-3.358-7.5-7.5-7.5z" fill="#fe0364"/><path d="m152 136.5c-4.142 0-7.5 3.357-7.5 7.5v64c0 4.143 3.358 7.5 7.5 7.5s7.5-3.357 7.5-7.5v-64c0-4.143-3.358-7.5-7.5-7.5z" fill="#fe0364"/><path d="m151.5 112v-64c0-4.143-3.358-7.5-7.5-7.5s-7.5 3.357-7.5 7.5v32.229l-17.792-35.584c-1.555-3.11-5.046-4.745-8.431-3.945s-5.777 3.821-5.777 7.3v64c0 4.143 3.358 7.5 7.5 7.5s7.5-3.357 7.5-7.5v-32.229l17.792 35.584c1.291 2.582 3.916 4.146 6.706 4.146.571 0 1.15-.065 1.725-.201 3.385-.8 5.777-3.821 5.777-7.3z" fill="#fff"/><path d="m408 136.5h-16c-4.142 0-7.5 3.357-7.5 7.5v64c0 4.143 3.358 7.5 7.5 7.5s7.5-3.357 7.5-7.5v-24.5h8.5c12.958 0 23.5-10.542 23.5-23.5s-10.542-23.5-23.5-23.5zm0 32h-8.5v-17h8.5c4.687 0 8.5 3.813 8.5 8.5s-3.813 8.5-8.5 8.5z" fill="#fe0364"/><path d="m256 119.5c3.441 0 6.441-2.342 7.276-5.681l16-64c1.005-4.019-1.438-8.091-5.457-9.096-4.011-.999-8.09 1.439-9.095 5.457l-8.724 34.896-8.724-34.896c-1.005-4.019-5.078-6.462-9.095-5.457-4.019 1.005-6.462 5.077-5.457 9.096l16 64c.835 3.339 3.835 5.681 7.276 5.681z" fill="#fff"/><path d="m280 151.5c4.142 0 7.5-3.357 7.5-7.5s-3.358-7.5-7.5-7.5h-32c-4.142 0-7.5 3.357-7.5 7.5v64c0 4.143 3.358 7.5 7.5 7.5h32c4.142 0 7.5-3.357 7.5-7.5s-3.358-7.5-7.5-7.5h-24.5v-17h8.5c4.142 0 7.5-3.357 7.5-7.5s-3.358-7.5-7.5-7.5h-8.5v-17z" fill="#fe0364"/><path d="m217.819 136.724c-4.012-1-8.09 1.439-9.095 5.457l-8.724 34.895-8.724-34.896c-1.005-4.019-5.078-6.462-9.095-5.457-4.019 1.005-6.462 5.077-5.457 9.096l16 64c.834 3.339 3.834 5.681 7.276 5.681s6.441-2.342 7.276-5.681l16-64c1.005-4.018-1.439-8.09-5.457-9.095z" fill="#fe0364"/></g></svg>