<svg viewBox="0 0 128 128" xmlns="http://www.w3.org/2000/svg"><g><path d="M86.089 34.39a4 4 0 0 1 4 4v1.23a5 5 0 0 1-3.69 4.825l-4.206 1.142H45.807L41.6 44.445a5 5 0 0 1-3.69-4.825v-1.23a4 4 0 0 1 4-4z" fill="#f9bbaf"></path><path d="M44.593 34.39s-5.245-15.728 2.841-20.009c0 0 1.4-7.381 12.838-7.381 11.681 0 16.638 3.264 25.869.6 0 0-.819 5.066-3.578 8.324 5.119 5.642.844 18.462.844 18.462z" fill="#3f568f"></path><path d="M105 121V87.216a12 12 0 0 0-10.182-11.862L72.254 71.9H55.745l-22.563 3.454A12 12 0 0 0 23 87.216V121z" fill="#f95353"></path><path d="M55.745 61.517V71.9s.94 6.425 8.255 6.425 8.254-6.425 8.254-6.425V61.517z" fill="#f9bbaf"></path><g fill="#ffd3c2"><path d="M83.407 34.39a11.411 11.411 0 0 1-6.619-9.4A99.872 99.872 0 0 1 64 25.828a99.872 99.872 0 0 1-12.788-.837 11.411 11.411 0 0 1-6.619 9.4c0 11.953 3.511 19.43 7.547 24.075a15.808 15.808 0 0 0 23.72 0c4.04-4.646 7.547-12.123 7.547-24.076zM23 107.527h15.66v13.472H23zM89.34 107.527H105v13.472H89.34z" fill="#ffd3c2"></path></g><path d="M89.046 121a25.216 25.216 0 0 0-.35-4.159c-.141-.059-12.463-5.2-24.7-5.2s-24.555 5.14-24.7 5.2a25.216 25.216 0 0 0-.35 4.159z" fill="#063968"></path><path d="M89.046 121a25.046 25.046 0 1 0-50.092 0h-7.566a32.612 32.612 0 0 1 65.224 0z" fill="#3f568f"></path><path d="M41.79 109.42v.01A24.754 24.754 0 0 0 38.95 121h-7.56a32.417 32.417 0 0 1 3.69-15.07zM86.21 109.42v.01A24.754 24.754 0 0 1 89.05 121h7.56a32.417 32.417 0 0 0-3.69-15.07z" fill="#fb931f"></path></g></svg>