<svg viewBox="0 0 512 512" xmlns="http://www.w3.org/2000/svg"><g><path d="M406 332H106c-8.291 0-15-6.709-15-15 0-90.981 74.033-165 165-165s165 74.019 165 165c0 8.291-6.709 15-15 15z" fill="#ffe566"></path><path d="M406 332c8.291 0 15-6.709 15-15 0-90.981-74.033-165-165-165v180z" fill="#ffc24d"></path><path d="M497 512H15c-8.291 0-15-6.709-15-15V317c0-8.291 6.709-15 15-15h482c8.291 0 15 6.709 15 15v180c0 8.291-6.709 15-15 15z" fill="#80bfff"></path><path d="M497 302H256v210h241c8.291 0 15-6.709 15-15V317c0-8.291-6.709-15-15-15z" fill="#6699ff"></path><path d="M376 392H136c-8.291 0-15-6.709-15-15s6.709-15 15-15h240c8.291 0 15 6.709 15 15s-6.709 15-15 15zM346 452H166c-8.291 0-15-6.709-15-15s6.709-15 15-15h180c8.291 0 15 6.709 15 15s-6.709 15-15 15z" fill="#6699ff"></path><path d="M256 122c-8.291 0-15-6.709-15-15V15c0-8.291 6.709-15 15-15s15 6.709 15 15v92c0 8.291-6.709 15-15 15zM96.889 179.114l-63.633-63.647c-5.859-5.859-5.859-15.352 0-21.211s15.352-5.859 21.211 0l63.633 63.647c5.859 5.859 5.859 15.352 0 21.211-5.86 5.859-15.352 5.86-21.211 0z" fill="#ffc24d"></path><path d="M393.9 179.114c-5.859-5.859-5.859-15.352 0-21.211l63.633-63.647c5.859-5.859 15.352-5.859 21.211 0s5.859 15.352 0 21.211l-63.633 63.647c-5.859 5.859-15.351 5.86-21.211 0z" fill="#ff9f40"></path><path d="m161.781 128.724-11.484-27.715c-3.164-7.646.469-16.436 8.115-19.6 7.705-3.149 16.436.483 19.6 8.115l11.484 27.715c3.164 7.646-.469 16.436-8.115 19.6-7.585 3.14-16.386-.396-19.6-8.115zM56.254 250.496l-27.715-11.484c-7.646-3.164-11.279-11.953-8.115-19.6 3.193-7.676 12.012-11.279 19.6-8.115l27.715 11.484c7.646 3.164 11.279 11.953 8.115 19.6-3.207 7.702-11.996 11.264-19.6 8.115z" fill="#ffc24d"></path><path d="M436.146 242.381c-3.164-7.646.469-16.436 8.115-19.6l27.715-11.484c7.705-3.135 16.436.483 19.6 8.115 3.164 7.646-.469 16.436-8.115 19.6l-27.715 11.484c-7.584 3.14-16.386-.395-19.6-8.115zM330.619 136.839c-7.646-3.164-11.279-11.953-8.115-19.6l11.484-27.715c3.193-7.661 11.982-11.235 19.6-8.115 7.646 3.164 11.279 11.953 8.115 19.6l-11.484 27.715c-3.206 7.702-11.996 11.263-19.6 8.115zM271 107V15c0-8.291-6.709-15-15-15v122c8.291 0 15-6.709 15-15z" fill="#ff9f40"></path><g fill="#4d6aff"><path d="M346 422h-90v30h90c8.291 0 15-6.709 15-15s-6.709-15-15-15zM376 362H256v30h120c8.291 0 15-6.709 15-15s-6.709-15-15-15z" fill="#4d6aff"></path></g></g></svg>