<svg viewBox="0 0 512 512" xmlns="http://www.w3.org/2000/svg"><g><path d="M262.639.172C202.375 11.076 156.662 63.792 156.662 127.2c0 40.715 18.864 77.006 48.31 100.668h113.287l7.307 5.456c34.604-22.694 57.464-61.821 57.464-106.294C383.03 59.1 329.71 3.625 262.639.172z" fill="#ffc365"></path><path d="M158.502 127.03c0-65.161 49.065-118.853 112.264-126.17C265.921.298 260.995 0 256 0c-70.157 0-127.03 56.873-127.03 127.03 0 44.473 22.86 83.601 57.464 106.295l4.769-5.456h17.102c-30.272-23.218-49.803-59.741-49.803-100.839z" fill="#ffa90f"></path><path d="M308.629 52.701c-12.645-13.033-31.312-14.306-45.367-3.407l-3.269 2.535c-2.419 1.876-5.568 1.876-7.987 0l-3.269-2.535c-3.018-2.34-6.249-4.115-9.587-5.337-3.286 1.751-6.397 4.064-9.211 6.964-51.172 52.74-21.844 159.791-16.248 189.137.473 2.484.748 4.87.887 7.18l.387.375h106.383l3.774-12.157c6.591-32.246 32.203-132.566-16.493-182.755z" fill="#dd8858"></path><path d="M214.216 238.251c-5.49-28.789-34.262-133.81 15.939-185.55 3.354-3.457 7.134-6.077 11.136-7.872-12.728-5.663-27.406-2.966-37.921 7.872-50.201 51.74-21.43 156.761-15.939 185.55.465 2.437.734 4.778.87 7.044l2.395 2.318h26.785l-2.395-2.318a54.807 54.807 0 0 0-.87-7.044z" fill="#cb6c35"></path><path d="m503.996 401.829-21.259-10.821c-3.165-1.611-3.44-6.027-.5-8.019l7.371-4.993a13.416 13.416 0 0 0 4.989-15.945c-3.092-7.997-12.79-11.081-19.933-6.339l-16.88 11.206a18.806 18.806 0 0 1-15.159 2.525l-2.976 1.19-11.589 35.284 1.204 5.161a65.916 65.916 0 0 1 7.734 5.932c9.005 8.056 24.705 20.601 39.115 24.665 18.462 5.208 28.991-10.345 34.186-22.247 2.885-6.613.128-14.326-6.303-17.599z" fill="#ffdecf"></path><path d="M480.918 417.982c-14.41-4.065-30.109-16.609-39.115-24.665a65.835 65.835 0 0 0-7.672-5.89l-6.074 18.491 1.204 5.161a65.916 65.916 0 0 1 7.734 5.932c9.005 8.056 24.705 20.601 39.115 24.665 18.462 5.208 28.991-10.345 34.186-22.247 1.915-4.388 1.334-9.252-1.144-12.99-6.039 8.484-15.139 15.236-28.234 11.543z" fill="#ffcebe"></path><path d="M69.376 369.444a18.806 18.806 0 0 1-15.159-2.525l-16.88-11.206c-7.143-4.742-16.841-1.658-19.933 6.339a13.417 13.417 0 0 0 4.989 15.945l7.371 4.993c2.94 1.992 2.665 6.408-.5 8.019l-21.26 10.82c-6.431 3.273-9.188 10.986-6.302 17.6 5.195 11.901 15.725 27.454 34.186 22.247 14.41-4.065 30.109-16.609 39.115-24.665a65.823 65.823 0 0 1 7.733-5.932v-7.565l-9.832-29.875z" fill="#ffdecf"></path><path d="M28.031 424.58c-2.887-6.614-.13-14.327 6.302-17.6l21.258-10.821c3.165-1.611 3.441-6.027.5-8.019l-7.371-4.993a13.417 13.417 0 0 1-4.989-15.945 13.33 13.33 0 0 1 3.383-4.998l-9.778-6.491c-7.143-4.742-16.841-1.658-19.933 6.339a13.417 13.417 0 0 0 4.989 15.945l7.371 4.993c2.94 1.992 2.665 6.408-.5 8.019l-21.259 10.82c-6.431 3.273-9.188 10.986-6.302 17.6 5.195 11.901 15.725 27.454 34.186 22.247.927-.261 1.859-.56 2.795-.889-4.816-4.627-8.288-10.792-10.652-16.207z" fill="#ffcebe"></path><path d="M438.576 346.26c-54.273-26.325-78.845-57.505-92.75-74.425-2.856-3.476-5.405-7.202-7.493-11.187a38.633 38.633 0 0 0-6.411-8.877l-3.275 4.255-28.845-10.731-3.979-5.306H216.3c-7.635 4.501-13.604 11.406-16.923 19.603-1.734 4.282-4.045 8.308-6.639 12.13-12.862 18.951-35.467 53.763-89.456 86.362a10.092 10.092 0 0 0-4.779 10.092c1.933 13.31 8.16 43.311 26.47 63.831 12.761-4.803 30.905-14.168 46.426-31.794 1.345-1.527 3.85-.462 3.703 1.568-1.032 14.239-3.8 29.386-7.217 43.751l6.664 2.107 53.285 59.922V512h.003-.003 129.759c3.59 0 6.081-3.582 4.823-6.945-6.475-17.304-22.658-63.791-25.518-103.271-.147-2.032 2.354-3.103 3.7-1.574 21.946 24.923 49.149 33.343 58.943 35.681 2.376.567 4.89.241 6.997-.995 31.277-18.352 36.591-62.712 37.471-79.443a9.65 9.65 0 0 0-5.433-9.193z" fill="#dbedff"></path><path d="M100.097 367.777a9.959 9.959 0 0 1 4.716-9.959c53.272-32.166 75.578-66.516 88.269-85.216 2.56-3.772 4.84-7.744 6.551-11.97a39.872 39.872 0 0 1 19.066-20.644h-10.908c-14.915 0-27.842 8.482-34.24 20.882-2.026 3.926-4.578 7.558-7.383 10.971-13.907 16.922-38.479 48.097-92.744 74.418a9.653 9.653 0 0 0-5.434 9.193c.881 16.732 6.195 61.092 37.472 79.443 2.107 1.236 4.621 1.562 6.996.995 3.177-.759 8.193-2.164 14.26-4.558-18.461-20.257-24.696-50.299-26.621-63.555z" fill="#b5dcff"></path><path d="M331.428 242.798c-.134-1.97-1.098-3.806-2.671-4.999-2.531-1.92-7.063-4.615-13.788-6.047l-3.063 3.327-40.696 118.39-107.134 133.317v16.998l8.31 8.216h55.449c3.459 0 6.787-1.333 9.274-3.737 19.739-19.075 104.8-110.767 94.319-265.465z" fill="#f27182"></path><path d="M171.347 500.314c-.667-7.497 2.609-14.796 8.632-19.311 119.523-89.594 133.384-220.851 134.991-249.252-2.831-.603-6.043-.987-9.672-.987h-4.424a4.231 4.231 0 0 0-4.199 3.655c-3.132 22.897-25.496 148.047-147.202 223.432a20.41 20.41 0 0 0-9.679 17.343v28.363a8.441 8.441 0 0 0 8.44 8.441h24.151z" fill="#ed5469"></path><path d="M276.494 213.531h-18.542l-2.338 2.716v24.929c0 8.692 4.595 16.297 11.477 20.561 7.339-3.954 12.328-11.709 12.328-20.63v-24.134z" fill="#ffcebe"></path><path d="M256 241.108v-24.134l2.963-3.443h-23.419l-2.963 3.443v24.134c0 12.934 10.485 23.419 23.419 23.419 4.267 0 8.264-1.147 11.71-3.141-6.998-4.049-11.71-11.611-11.71-20.278z" fill="#ffb1a0"></path><path d="M314.883 127.965v32.97c8.656-.495 15.59-7.71 15.59-16.485.001-8.775-6.933-15.99-15.59-16.485zM209.416 127.99c-7.434 1.79-13.009 8.497-13.009 16.46 0 7.974 5.588 14.691 13.037 16.471l2.019-1.474v-28.845z" fill="#ffcebe"></path><path d="M315.913 128.047a16.466 16.466 0 0 0-1.973-.13h-11.3l-1.937 2.308v28.063l1.937 2.695h11.3c.668 0 1.324-.052 1.973-.13zM196.737 144.45c0-7.86 5.562-14.473 12.942-16.126l-.319-.407h-11.3c-9.093 0-16.533 7.44-16.533 16.533s7.44 16.533 16.533 16.533h11.3l.496-.362c-7.469-1.585-13.119-8.248-13.119-16.171z" fill="#ffb1a0"></path><path d="M295.536 113.255c-9.715.141-27.029-2.418-36.596-20.619-1.251-2.38-4.63-2.38-5.881 0-4.621 8.792-11.051 13.928-17.558 16.878l-2.921 4.69v59.235l8.072 24.381h38.767l18.408-22.664 4.813-6.586v-48.329c0-3.906-3.197-7.043-7.104-6.986z" fill="#ffdecf"></path><path d="M216.464 113.255c-3.907-.057-7.104 3.08-7.104 6.988v48.329l3.993 6.758 22.741 18.736 3.668-2.156-.727-2.127a65.686 65.686 0 0 1-3.533-21.251v-59.016c-6.964 3.156-14.016 3.812-19.038 3.739z" fill="#ffcebe"></path><path d="M301.645 169.025c-8.759 3.993-16.313 10.105-22.477 17.499-2.271 2.724-5.111 5.124-8.383 5.829-5.875 1.265-9.585.051-11.82-1.462a5.242 5.242 0 0 0-5.931 0c-2.235 1.513-5.945 2.727-11.82 1.462a10.145 10.145 0 0 1-1.453-.444l-1.126 2.307 9.563 18.028L263.617 221l6.3.173c18.961-5.92 32.724-23.616 32.724-44.527v-8.075z" fill="#cb6c35"></path><path d="M239.761 191.909c-2.663-1.007-5.003-3.074-6.93-5.385-6.164-7.394-13.718-13.506-22.477-17.499l-.995-.454v8.075c0 25.759 20.882 46.64 46.64 46.64 4.847 0 9.521-.741 13.917-2.113-14.112-4.406-25.333-15.34-30.155-29.264z" fill="#ae5e2e"></path></g></svg>