<svg id="Capa_1" enable-background="new 0 0 510 510" height="512" viewBox="0 0 510 510" width="512" xmlns="http://www.w3.org/2000/svg" xmlns:xlink="http://www.w3.org/1999/xlink"><linearGradient id="SVGID_1_" gradientUnits="userSpaceOnUse" x1="42.091" x2="292.366" y1="103.631" y2="103.631"><stop offset="0" stop-color="#92f37f"/><stop offset="1" stop-color="#4ab272"/></linearGradient><linearGradient id="SVGID_2_" gradientUnits="userSpaceOnUse" x1="187.587" x2="127.089" y1="97.623" y2="-44.199"><stop offset="0" stop-color="#92f37f" stop-opacity="0"/><stop offset="1" stop-color="#ffee83"/></linearGradient><linearGradient id="lg1"><stop offset="0" stop-color="#ffd945"/><stop offset=".3043" stop-color="#ffcd3e"/><stop offset=".8558" stop-color="#ffad2b"/><stop offset="1" stop-color="#ffa325"/></linearGradient><linearGradient id="SVGID_3_" gradientUnits="userSpaceOnUse" x1="282.807" x2="459.616" xlink:href="#lg1" y1="138.501" y2="315.31"/><linearGradient id="lg2"><stop offset="0" stop-color="#fff" stop-opacity="0"/><stop offset="1" stop-color="#fff"/></linearGradient><linearGradient id="SVGID_5_" gradientUnits="userSpaceOnUse" x1="347.731" x2="275.344" xlink:href="#lg2" y1="187.127" y2="17.431"/><linearGradient id="lg3"><stop offset="0" stop-color="#f82814" stop-opacity="0"/><stop offset="1" stop-color="#c0272d"/></linearGradient><linearGradient id="SVGID_6_" gradientUnits="userSpaceOnUse" x1="323.367" x2="219.711" xlink:href="#lg3" y1="297.59" y2="269.508"/><radialGradient id="SVGID_7_" cx="115.34" cy="321.209" gradientUnits="userSpaceOnUse" r="174.308"><stop offset="0" stop-color="#f8f6fb"/><stop offset=".3915" stop-color="#f6f0fb"/><stop offset=".8982" stop-color="#f0e0fb"/><stop offset="1" stop-color="#efdcfb"/></radialGradient><linearGradient id="SVGID_8_" gradientUnits="userSpaceOnUse" x1="160.978" x2="80.078" xlink:href="#lg2" y1="344.507" y2="154.858"/><linearGradient id="SVGID_9_" gradientUnits="userSpaceOnUse" x1="271.053" x2="102.218" y1="409.617" y2="342.083"><stop offset="0" stop-color="#efdcfb" stop-opacity="0"/><stop offset=".4856" stop-color="#baaad6" stop-opacity=".486"/><stop offset="1" stop-color="#8679b2"/></linearGradient><linearGradient id="SVGID_10_" gradientUnits="userSpaceOnUse" x1="112.289" x2="209.927" y1="292.778" y2="399.804"><stop offset="0" stop-color="#ff819c"/><stop offset=".2594" stop-color="#ff7e9a"/><stop offset=".4757" stop-color="#fe7396"/><stop offset=".6765" stop-color="#fc628e"/><stop offset=".8668" stop-color="#fa4a83"/><stop offset="1" stop-color="#f83479"/></linearGradient><linearGradient id="SVGID_11_" gradientUnits="userSpaceOnUse" x1="252.19" x2="127.698" y1="171.821" y2="47.329"><stop offset="0" stop-color="#005a01" stop-opacity="0"/><stop offset=".2523" stop-color="#005c08" stop-opacity=".252"/><stop offset=".6256" stop-color="#00611c" stop-opacity=".626"/><stop offset="1" stop-color="#006837"/></linearGradient><linearGradient id="SVGID_12_" gradientUnits="userSpaceOnUse" x1="181.959" x2="248.487" xlink:href="#lg1" y1="101.175" y2="174.099"/><linearGradient id="SVGID_13_" gradientUnits="userSpaceOnUse" x1="413.705" x2="170.895" xlink:href="#lg3" y1="269.012" y2="26.202"/><linearGradient id="SVGID_14_" gradientUnits="userSpaceOnUse" x1="322.539" x2="393.748" y1="177.839" y2="249.049"><stop offset="0" stop-color="#9b62cd"/><stop offset=".3003" stop-color="#985dcb"/><stop offset=".6716" stop-color="#8f4ec7"/><stop offset="1" stop-color="#833ac1"/></linearGradient><g><g><path d="m263.37 31.671c-40-41.532-106.873-42.33-147.812-1.723-17.294 17.154-27.277 38.87-29.953 61.294-2.136 17.898-21.68 28.055-37.555 19.518-.146-.079-.292-.158-.437-.237-2.983-1.631-6.433 1.31-5.303 4.517 2.702 7.673 7.115 14.876 13.252 21.013 10.571 10.571 24.303 16.04 38.154 16.43 2.106.059 4.009 1.248 5.064 3.072 4.966 8.58 11.258 16.602 18.888 23.762 40.703 38.2 104.967 37.093 144.394-2.423 39.964-40.054 40.4-104.634 1.308-145.223z" fill="url(#SVGID_1_)"/><circle cx="189.902" cy="103.051" fill="url(#SVGID_2_)" r="93.678"/></g><g><path d="m358.828 92.753c68.982-1.296 126.238 54.609 126.519 123.603.119 29.145-9.809 55.966-26.517 77.202-13.336 16.95-5.394 42.08 15.261 48.289.19.057.38.114.571.169 3.904 1.143 4.334 6.551.666 8.308-8.778 4.206-18.606 6.567-28.99 6.567-17.888 0-34.134-6.992-46.182-18.38-1.832-1.732-4.448-2.336-6.884-1.686-11.461 3.057-23.572 4.521-36.085 4.124-66.758-2.118-120.194-57.427-120.12-124.219.074-67.702 54.345-122.71 121.761-123.977z" fill="url(#SVGID_3_)"/><path d="m358.828 92.753c68.982-1.296 126.238 54.609 126.519 123.603.119 29.145-9.809 55.966-26.517 77.202-13.336 16.95-5.394 42.08 15.261 48.289.19.057.38.114.571.169 3.904 1.143 4.334 6.551.666 8.308-8.778 4.206-18.606 6.567-28.99 6.567-17.888 0-34.134-6.992-46.182-18.38-1.832-1.732-4.448-2.336-6.884-1.686-11.461 3.057-23.572 4.521-36.085 4.124-66.758-2.118-120.194-57.427-120.12-124.219.074-67.702 54.345-122.71 121.761-123.977z" fill="url(#SVGID_3_)"/><circle cx="361.207" cy="218.717" fill="url(#SVGID_5_)" r="112.089"/></g><path d="m346.126 340.094-82.815-82.815c-7.377-7.657-15.63-14.462-24.591-20.267 8.871 53.79 52.632 96.411 107.406 103.082z" fill="url(#SVGID_6_)"/><g><path d="m166.049 214.803c-77.094-1.449-141.082 61.03-141.396 138.137-.132 32.573 10.962 62.547 29.635 86.28 14.904 18.944 6.028 47.028-17.055 53.967-.212.064-.425.127-.638.189-4.363 1.278-4.844 7.321-.744 9.285 9.81 4.701 20.794 7.339 32.399 7.339 19.991 0 38.147-7.814 51.613-20.541 2.048-1.936 4.971-2.61 7.694-1.884 12.808 3.417 26.343 5.053 40.328 4.609 74.608-2.367 134.327-64.18 134.244-138.825-.084-75.663-60.736-137.14-136.08-138.556z" fill="url(#SVGID_7_)"/><circle cx="164.075" cy="351.767" fill="url(#SVGID_8_)" r="125.27"/></g><g><path d="m298.837 383.51-110.127-110.128c-2.8-4.717-9.671-7.536-15.804-7.536-2.726 0-5.205.496-7.187 1.735l-32.711 19.825c-4.956 2.973-7.187 7.93-7.187 13.134 0 5.661 2.694 11.318 6.986 13.905l18.539 19.018v102.134c0 3.682 2.085 6.507 5.284 8.48l43.284 43.284c49.371-13.524 87.78-53.776 98.923-103.851z" fill="url(#SVGID_9_)"/><g><path d="m151.345 309.461-7.187 4.461c-2.23 1.487-4.461 1.982-6.195 1.982-7.187 0-12.143-7.682-12.143-15.364 0-5.204 2.231-10.161 7.187-13.134l32.711-19.825c1.982-1.239 4.461-1.735 7.187-1.735 7.93 0 17.098 4.708 17.098 12.143v157.607c0 7.93-9.665 11.895-19.33 11.895-9.664 0-19.329-3.965-19.329-11.895v-126.135z" fill="url(#SVGID_10_)"/></g></g><g><path d="m262.061 176.893c14.363-14.395 23.62-31.957 27.772-50.435l-70.97-70.97c-6.625-7.892-18.008-10.945-31.45-10.945-29.042 0-38.498 17.054-38.498 30.224 0 4.923.566 7.788 3.731 9.28l50.102 50.601c-.937 8.146-5.297 11.373-15.335 11.373-.509 0-1.016-.009-1.521-.027l-14.257-14.229c-1.391-3.089-4.969-4.317-12.758-4.317-9.287 0-12.495 2.026-12.495 9.624 0 7.501 3.12 15.993 10.353 22.33l46.783 46.783c21.489-3.091 42.161-12.872 58.543-29.292z" fill="url(#SVGID_11_)"/><path d="m202.948 130.825v-3.208c0-11.313-6.923-13.508-16.21-13.508-5.741 0-7.598-5.065-7.598-10.131s1.857-10.131 7.598-10.131c6.416 0 13.17-.844 13.17-14.521 0-9.793-5.572-12.157-12.495-12.157-8.273 0-12.495 2.026-12.495 8.611 0 5.741-2.533 9.625-12.326 9.625-12.157 0-13.677-2.533-13.677-10.638 0-13.17 9.456-30.224 38.498-30.224 21.444 0 37.654 7.767 37.654 30.562 0 12.326-4.559 23.808-13.001 27.691 9.962 3.715 17.223 11.144 17.223 24.821v3.208c0 27.691-19.08 38.16-42.719 38.16-29.042 0-40.186-17.729-40.186-31.913 0-7.598 3.208-9.624 12.495-9.624 10.806 0 13.508 2.364 13.508 8.78 0 7.936 7.429 9.793 15.027 9.793 11.482.001 15.534-4.221 15.534-15.196z" fill="url(#SVGID_12_)"/></g><path d="m484.308 232.978-84.843-84.843c-9.17-10.246-23.491-15.642-37.747-15.642-23.32 0-46.232 14.32-46.232 39.277 0 7.816 2.259 12.242 5.861 14.519l24.636 24.987c-16.35 12.022-32.951 24.792-32.951 41.094v19.844c0 2.786 1.805 5.12 4.312 6.813l60.815 60.815c5.142-.704 10.19-1.703 15.112-3.017 2.436-.65 5.052-.046 6.884 1.686 12.049 11.388 28.295 18.38 46.182 18.38 10.384 0 20.213-2.361 28.99-6.567 3.668-1.758 3.238-7.165-.666-8.309-.19-.056-.381-.112-.571-.169-20.655-6.208-28.596-31.338-15.261-48.289 13.478-17.129 22.539-37.893 25.479-60.579z" fill="url(#SVGID_13_)"/><g><path d="m361.718 132.493c23.73 0 47.664 14.933 47.664 42.345 0 44.392-63.211 58.916-63.211 77.532v1.841h53.597c5.114 0 9.614 6.341 9.614 13.706s-4.5 14.115-9.614 14.115h-72.827c-5.728 0-13.91-3.886-13.91-9.818v-19.844c0-32.117 64.438-50.529 64.438-76.508 0-6.546-4.092-14.525-15.547-14.525-8.183 0-15.343 4.091-15.343 15.342 0 5.933-6.341 11.661-16.774 11.661-8.183 0-14.32-3.682-14.32-16.57.001-24.957 22.913-39.277 46.233-39.277z" fill="url(#SVGID_14_)"/></g></g></svg>