<svg viewBox="0 0 48 48" xmlns="http://www.w3.org/2000/svg"><g><g><path d="M23 1h2v4h-2zM7 19h34v22H7z" fill="#7d7576"></path><path d="M9 41h30v3H9z" fill="#d6bdac"></path><path d="M9 44h30v3H9z" fill="#bda89a"></path><path d="M3 19h4v22H3zM41 19h4v22h-4z" fill="#ecdcc2"></path><path d="M39 41h8v6h-8zM1 41h8v6H1z" fill="#f6e9c5"></path><path d="M3 15h42v4H3z" fill="#ecdcc2"></path><path d="M47 12 24 3 1 12z" fill="#f6e9c5"></path><path d="M1 12h46v3H1z" fill="#d6bdac"></path><path d="M11 22h4v19h-4zM18 22h4v19h-4zM26 22h4v19h-4zM33 22h4v19h-4z" fill="#f6e9c5"></path><path d="M11 19h4v3h-4zM18 19h4v3h-4zM26 19h4v3h-4zM33 19h4v3h-4z" fill="#d6bdac"></path><path d="M3 15h42v2H3z" fill="#d6c9b2"></path><path d="M1 12h46v1H1z" fill="#ead2c1"></path><path d="M3 18h42v1H3z" fill="#f6e9c5"></path><path d="M3 19h2v22H3zM41 19h2v22h-2z" fill="#d6c9b2"></path><path d="M11 19h4v1h-4zM18 19h4v1h-4zM26 19h4v1h-4zM33 19h4v1h-4z" fill="#bda89a"></path><path d="M7 19h4v3H7zM37 19h4v3h-4zM22 19h4v3h-4zM15 19h3v3h-3zM30 19h3v3h-3z" fill="#666263"></path><path d="M39 41h8v3h-8zM1 41h8v3H1z" fill="#fff0d0"></path><path d="M9 43h30v1H9z" fill="#ead2c1"></path><path d="M9 46h30v1H9z" fill="#d6bdac"></path><path d="M35 22h2v19h-2zM28 22h2v19h-2zM20 22h2v19h-2zM13 22h2v19h-2z" fill="#fff0e0"></path><path d="M7 39h4v2H7zM37 39h4v2h-4zM30 39h3v2h-3zM15 39h3v2h-3zM22 39h4v2h-4z" fill="#666263"></path><path d="M33 30.954V22h-3v6.712q1.446 1.188 3 2.242zM26 22h-2.5q1.181 1.533 2.5 2.948zM37 22v11.337a40.464 40.464 0 0 0 4 1.824V22z" fill="#878181"></path><path d="M43 35.888q.989.33 2 .61V19h-2z" fill="#f9fbfa"></path><path d="M20.777 18H45v-1H20.2c.191.336.38.67.577 1z" fill="#f6e9c5"></path><path d="M47 12 24 3l-7.972 3.119A40.719 40.719 0 0 0 17.839 12z" fill="#fff0d0"></path><path d="M19.151 15H47v-2H18.234c.287.677.595 1.342.917 2z" fill="#ead2c1"></path><path d="M28 26.95V22h-2v2.948q.965 1.035 2 2.002zM35 32.223V22h-2v8.954c.653.446 1.321.863 2 1.269z" fill="#fff0d0"></path><path d="M30 22v-2h-4v2h2zM37 22v-2h-4v2h2z" fill="#d6bdac"></path><path d="M20.2 17H45v-2H19.151c.331.678.684 1.344 1.049 2zM18.234 13H47v-1H17.839c.131.334.261.671.395 1z" fill="#ecdcc2"></path><path d="M21.4 19H45v-1H20.777c.202.338.412.669.623 1z" fill="#fff0e0"></path><path d="M41 35.161q.989.389 2 .727V19h-2z" fill="#ecdcc2"></path><path d="M22 20v-.065c-.207-.306-.4-.623-.6-.935" fill="#bda89a"></path><path d="M22 19h-.6c.2.312.393.629.6.935zM26 19h4v1h-4zM33 19h4v1h-4z" fill="#bda89a"></path><path d="M37 22h4v-3h-4v1zM23.5 22H26v-3h-4v.935c.477.707.983 1.391 1.5 2.065zM30 22h3v-3h-3v1z" fill="#7d7576"></path><path d="M35 22v10.223c.654.39 1.323.76 2 1.114V22zM28 26.95c.649.607 1.313 1.2 2 1.762V22h-2z" fill="#f9fbfa"></path><ellipse cx="31.18" cy="8.026" fill="#f6fafd" rx=".825" ry="1.148" transform="rotate(-44.52 31.192 8.03)"></ellipse><ellipse cx="33.913" cy="9.524" fill="#f6fafd" rx=".413" ry=".574" transform="rotate(-44.52 33.926 9.529)"></ellipse><path d="M40 37h6v1a3 3 0 0 1-3 3 3 3 0 0 1-3-3v-1z" fill="#bda89a"></path><path d="M40.778 37A1.725 1.725 0 0 1 39 35.333a1.647 1.647 0 0 1 .912-1.447 1.594 1.594 0 0 1-.023-.219A1.725 1.725 0 0 1 41.667 32a1.814 1.814 0 0 1 1.333.575A1.814 1.814 0 0 1 44.333 32a1.725 1.725 0 0 1 1.778 1.667 1.594 1.594 0 0 1-.023.219A1.647 1.647 0 0 1 47 35.333 1.725 1.725 0 0 1 45.222 37z" fill="#5ec49c"></path><path d="M2 37h6v1a3 3 0 0 1-3 3 3 3 0 0 1-3-3v-1z" fill="#bda89a"></path><path d="M2.778 37A1.725 1.725 0 0 1 1 35.333a1.647 1.647 0 0 1 .912-1.447 1.594 1.594 0 0 1-.023-.219A1.725 1.725 0 0 1 3.667 32 1.814 1.814 0 0 1 5 32.575 1.814 1.814 0 0 1 6.333 32a1.725 1.725 0 0 1 1.778 1.667 1.594 1.594 0 0 1-.023.219A1.647 1.647 0 0 1 9 35.333 1.725 1.725 0 0 1 7.222 37z" fill="#5ec49c"></path><path d="M45.8 39.066A2.972 2.972 0 0 0 46 38h-1.985a9.961 9.961 0 0 0 1.785 1.066z" fill="#d6bdac"></path><path d="M44.015 38H46v-1h-3.139a9.994 9.994 0 0 0 1.154 1z" fill="#ead2c1"></path><path d="M42.861 37H40v1h4.015a9.994 9.994 0 0 1-1.154-1z" fill="#d6bdac"></path><path d="M45.222 37A1.725 1.725 0 0 0 47 35.333a1.647 1.647 0 0 0-.912-1.447 1.594 1.594 0 0 0 .023-.219A1.725 1.725 0 0 0 44.333 32a1.814 1.814 0 0 0-1.333.575 1.835 1.835 0 0 0-2.657-.012A9.969 9.969 0 0 0 42.861 37z" fill="#92e7a4"></path><path d="M7.8 39.066A2.972 2.972 0 0 0 8 38H6.015A9.961 9.961 0 0 0 7.8 39.066z" fill="#d6bdac"></path><path d="M6.015 38H8v-1H4.861a9.994 9.994 0 0 0 1.154 1z" fill="#ead2c1"></path><path d="M4.861 37H2v1h4.015a9.994 9.994 0 0 1-1.154-1z" fill="#d6bdac"></path><path d="M7.222 37A1.725 1.725 0 0 0 9 35.333a1.647 1.647 0 0 0-.912-1.447 1.594 1.594 0 0 0 .023-.219A1.725 1.725 0 0 0 6.333 32 1.814 1.814 0 0 0 5 32.575a1.835 1.835 0 0 0-2.657-.012A9.969 9.969 0 0 0 4.861 37z" fill="#92e7a4"></path><g fill="#d1f4ef"><ellipse cx="44.913" cy="35.524" fill="#d1f4ef" rx=".413" ry=".574" transform="rotate(-44.52 44.93 35.54)"></ellipse><ellipse cx="42.913" cy="34.524" fill="#d1f4ef" rx=".574" ry=".413" transform="rotate(-45.5 42.891 34.527)"></ellipse><ellipse cx="44.913" cy="33.524" fill="#d1f4ef" rx=".413" ry=".574" transform="rotate(-44.52 44.93 33.538)"></ellipse><ellipse cx="6.913" cy="35.524" fill="#d1f4ef" rx=".413" ry=".574" transform="rotate(-44.52 6.915 35.539)"></ellipse><ellipse cx="4.913" cy="34.524" fill="#d1f4ef" rx=".574" ry=".413" transform="rotate(-45.5 4.901 34.517)"></ellipse><ellipse cx="6.913" cy="33.524" fill="#d1f4ef" rx=".413" ry=".574" transform="rotate(-44.52 6.915 33.537)"></ellipse></g></g></g></svg>