<svg viewBox="0 0 512 512" xmlns="http://www.w3.org/2000/svg"><g><path d="m408.445 129.925-168.849 78.543L256 393.939c97.202 0 176-78.798 176-176 0-32.063-8.574-62.123-23.555-88.014z" fill="#80d261"></path><path d="M103.555 129.925C88.575 155.816 80 185.876 80 217.939c0 97.202 78.798 176 176 176V200.837z" fill="#01c0fa"></path><path d="M408.445 129.925C378.012 77.327 321.139 41.939 256 41.939s-122.012 35.387-152.445 87.986L256 217.939z" fill="#ffc344"></path><path d="m408.445 129.925-38.394 17.86c6.756 18.683 10.44 38.837 10.44 59.853 0 79.847-53.172 147.274-126.038 168.807L256 393.939c97.202 0 176-78.798 176-176 0-32.063-8.574-62.123-23.555-88.014z" fill="#68ca44"></path><path d="m371.304 151.369 37.141-21.444c-29.099-50.292-82.368-84.848-143.924-87.783 50.155 18.198 89.693 58.545 106.783 109.227z" fill="#feb237"></path><path d="M326.332 297.442c-9.188-.432-16.773 6.889-16.773 15.982v-31.096c0-8.615-6.621-16.029-15.227-16.434-9.188-.432-16.773 6.889-16.773 15.982v-15.484c0-8.615-6.621-16.029-15.227-16.434-9.188-.432-16.773 6.889-16.773 15.982v15.936c0-9.093-7.585-16.414-16.773-15.982-8.606.405-15.227 7.818-15.227 16.434v92.798l-8.056-8.056c-8.046-8.046-21.092-8.046-29.138 0l-4.416 4.416a5.15 5.15 0 0 0 0 7.284l59.926 59.926a64.318 64.318 0 0 0 6.203 5.553c1.226.962 1.922 2.45 1.922 4.008v17.409l32 24.274 48-24.274v-21.677c0-1.408.607-2.733 1.627-3.702 12.277-11.661 19.932-28.142 19.932-46.412v-80c0-8.615-6.621-16.029-15.227-16.433z" fill="#f1b0a2"></path><path d="M309.56 345.875a7.5 7.5 0 0 1-15 0v-79.969c8.495.524 15 7.882 15 16.421zm-32-79.483c0-8.539-6.505-15.898-15-16.421v95.905a7.5 7.5 0 0 0 15 0zm-32 15.483c0-8.5-6.629-15.453-15-15.969v79.969a7.5 7.5 0 0 0 15 0z" fill="#eb9c8d"></path><path d="M320 465.666h-90.849a5.15 5.15 0 0 0-5.151 5.151v36.032a5.15 5.15 0 0 0 5.151 5.151h85.698a5.15 5.15 0 0 0 5.151-5.151z" fill="#c8effe"></path><path d="M289.685 117.279c4.22 8.173 14.352 11.081 22.227 6.535l-26.93 15.548c-7.461 4.308-10.571 13.748-6.619 21.404 4.22 8.173 14.353 11.082 22.227 6.535l-13.409 7.742c-7.461 4.308-10.571 13.748-6.619 21.404 4.22 8.173 14.353 11.082 22.227 6.535l13.801-7.968c-7.875 4.546-10.423 14.776-5.454 22.517 4.654 7.25 14.384 9.278 21.845 4.97l80.366-46.399-2.949 11.005c-2.945 10.991 3.578 22.289 14.569 25.234l6.033 1.616a5.152 5.152 0 0 0 6.309-3.642l21.934-81.86a64.375 64.375 0 0 0 1.708-8.149c.22-1.543 1.161-2.889 2.51-3.669l15.076-8.704 5.022-39.85-45.022-29.432-18.773 10.838c-1.219.704-2.67.841-4.02.442-16.237-4.802-34.338-3.19-50.16 5.944l-69.282 40c-7.46 4.308-10.57 13.749-6.617 21.404z" fill="#ffcebf"></path><g fill="#ffb09e"><path d="M374.761 152.768a7.5 7.5 0 0 0-10.245-2.745l-83.056 47.952c4.63 6.987 13.958 9.254 21.318 5.012l69.238-39.975a7.499 7.499 0 0 0 2.745-10.244zM342.761 97.343a7.5 7.5 0 0 0-10.245-2.745l-41.934 24.21c4.629 6.986 13.953 9.253 21.312 5.016l28.122-16.236a7.5 7.5 0 0 0 2.745-10.245zM300.59 167.301c-7.362 4.25-16.697 1.985-21.329-5.006l69.255-39.985a7.5 7.5 0 0 1 7.5 12.99z" fill="#ffb09e"></path></g><path d="m438.537 38.651 45.425 78.678a5.15 5.15 0 0 0 7.036 1.885l18.427-10.639a5.15 5.15 0 0 0 2.575-4.461V5.159c0-3.965-4.292-6.443-7.726-4.461z" fill="#d5efc8"></path><path d="M167.984 227.385c4.968-7.741 2.42-17.97-5.454-22.516l26.93 15.548c7.461 4.308 17.192 2.28 21.845-4.97 4.969-7.741 2.421-17.97-5.454-22.517l13.409 7.742c7.461 4.308 17.192 2.28 21.845-4.97 4.969-7.741 2.421-17.97-5.454-22.517l-13.801-7.968c7.875 4.546 18.008 1.638 22.227-6.535 3.952-7.655.843-17.096-6.619-21.404l-80.366-46.399 11.005-2.949c10.991-2.945 17.514-14.243 14.569-25.234l-1.616-6.033a5.15 5.15 0 0 0-6.309-3.642l-81.86 21.934a64.331 64.331 0 0 0-7.911 2.596c-1.446.581-3.083.44-4.432-.34l-15.076-8.704-37.02 15.576-2.978 53.706 18.773 10.838c1.219.704 2.063 1.892 2.392 3.26 3.96 16.463 14.406 31.333 30.228 40.467l69.282 40c7.46 4.309 17.191 2.282 21.845-4.969z" fill="#fff3de"></path><path d="M134.425 188.643a7.5 7.5 0 0 1 7.5-12.99l69.256 39.985c-4.701 7.095-14.326 9.049-21.721 4.78zm84.835 12.029c7.395 4.27 17.02 2.315 21.721-4.779l-83.056-47.953a7.5 7.5 0 0 0-7.5 12.99zm2.591-35.455c7.362 4.25 16.697 1.985 21.329-5.006l-69.255-39.984a7.5 7.5 0 0 0-7.5 12.99z" fill="#ffe5c2"></path><path d="M70.887 59.112 25.462 137.79 2.575 124.575A5.152 5.152 0 0 1 0 120.114V21.158c0-3.965 4.292-6.443 7.726-4.461l61.276 35.377a5.152 5.152 0 0 1 1.885 7.038z" fill="#ffc344"></path></g></svg>