<svg viewBox="0 0 512 512" xmlns="http://www.w3.org/2000/svg"><g><path d="M512 256c0 51.52-15.22 99.48-41.41 139.64-4.208 6.457-30.234-8.819-34.995-2.781-6.667 8.454 7.675 38.012.015 45.561C389.4 483.92 325.98 512 256 512c-94.84 0-177.64-51.58-221.86-128.21-1.722-2.972 6.57-9.517 4.972-12.563-1.687-3.217-13.256-2.94-14.802-6.237-3.88-8.2-7.32-16.64-10.31-25.3-1.36-3.925 5.664-19.435 4.495-23.443s-10.53 3.483-11.505-.607C2.42 296.51 0 276.54 0 256 0 114.62 114.62 0 256 0c95.44 0 178.69 52.23 222.7 129.67 1.38 2.421-8.474 16.061-7.175 18.531 1.847 3.51 14.806-4.125 16.485-.521a251.4 251.4 0 0 1 11.25 28.35c1.032 3.145-4.96 13.281-4.047 16.476 1.264 4.424 9.375 1.931 10.397 6.454C509.8 217.3 512 236.39 512 256z" fill="#545058"></path><path d="m290.988 204.438-5.875 5.875-3.762-3.762c-7.532-7.532-19.744-7.532-27.276 0s-7.532 19.744 0 27.276l3.762 3.762-21.633 21.633c-7.532 7.532-7.532 19.744 0 27.276s19.744 7.532 27.276 0l6.088-6.088v12.529c0 10.652 8.635 19.287 19.287 19.287s19.287-8.635 19.287-19.287v-5.045l16.474 16.474c7.532 7.532 19.744 7.532 27.276 0s7.532-19.744 0-27.276l-39.504-39.504 5.875-5.875c7.532-7.532 7.532-19.744 0-27.276-7.53-7.531-19.742-7.531-27.275.001z" fill="#d56278"></path><path d="m499.26 176.03-83.88 94.12c-4.7 5.28-12.57 6.55-18.69 3.01l-80.95-46.72c-3.92-2.27-8.86-1.61-12.07 1.59l-40.52 40.51a10.02 10.02 0 0 0-2.92 7.28c.1 5.01-2.27 9.71-6.35 12.59l-84.1 59.37a9.98 9.98 0 0 0-4.19 9.11l7.1 74.93c.78 8.23-5.28 15.56-13.52 16.35-4.47.42-8.85-1.16-12.03-4.34-2.49-2.49-3.98-5.67-4.32-9.18l-8.46-89.36c-.51-5.34 1.9-10.57 6.28-13.67l29.33-20.7c8.97-6.33 12.13-17.37 7.87-27.49-3.67-8.72-11.7-13.99-20.77-13.99-1.44 0-2.91.14-4.39.41l-53.03 9.77c-2.48.46-4.7 1.83-6.2 3.85L37.02 359c-3.09 4.13-7.91 6.21-12.71 5.99 3.01 6.42 6.29 12.69 9.83 18.8 7.31-1.97 14.03-6.3 18.9-12.82l54.08-72.39 49.19-9.06c.55-.1 2.22-.41 3.1 1.67.88 2.09-.51 3.07-.97 3.39l-29.33 20.7c-10.22 7.22-15.84 19.44-14.66 31.9l8.46 89.35c.77 8.09 4.35 15.71 10.09 21.44a34.866 34.866 0 0 0 24.73 10.26c1.1 0 2.21-.05 3.33-.15 19.21-1.82 33.36-18.94 31.54-38.15l-6.55-69.16 79.36-56.02a34.94 34.94 0 0 0 14.61-24.79l32.37-32.37 74.3 42.89c14.29 8.25 32.64 5.3 43.63-7.03l75.29-84.49a251.07 251.07 0 0 0-6.35-22.93zm-414.9 76 121.33-23.52c1.75-.34 3.52-.37 5.25-.09 3.17.51 6.4-.52 8.67-2.8l37.88-37.88c3.83-3.82 3.92-9.99.2-13.93l-57.85-61.32a9.986 9.986 0 0 0-8.32-3.08l-90.51 9.54c-4.52.48-8.96-1.1-12.19-4.32-2.45-2.45-3.93-5.57-4.3-9.02-.86-8.23 5.12-15.63 13.35-16.49l102.82-10.84a15.07 15.07 0 0 1 12.48 4.62l64.49 68.36a9.988 9.988 0 0 0 12.61 1.59 9.99 9.99 0 0 0 3.99-12.07c-9.05-23.34-3.47-49.84 14.21-67.52 24.63-24.63 64.7-24.63 89.32 0 11.93 11.92 18.5 27.78 18.5 44.66 0 16.87-6.57 32.73-18.5 44.66-16.17 16.17-39.91 22.33-61.95 16.08a9.98 9.98 0 0 0-9.8 2.55l-1.27 1.26c-2.2 2.2-3.25 5.3-2.84 8.38.4 3.08 2.22 5.8 4.91 7.35l67.22 38.8c4.11 2.38 9.31 1.53 12.47-2l73.7-82.71c2.14-2.4 4.87-3.94 7.78-4.61-2.86-6.14-5.97-12.15-9.31-18.01-4.99 1.94-9.6 5.05-13.4 9.31l-68.29 76.63-27.91-16.11a83.123 83.123 0 0 0 42.84-22.78c32.42-32.43 32.42-85.18 0-117.61-32.43-32.42-85.19-32.42-117.61 0-14.93 14.93-23.31 34.64-24.25 54.96l-42.36-44.89c-7.45-7.9-18.34-11.93-29.13-10.79L95.77 69.23c-19.19 2.02-33.16 19.28-31.14 38.47a35.1 35.1 0 0 0 10.05 21.07c7.51 7.51 17.88 11.18 28.43 10.07l85.58-9.02 47.79 50.65-27.76 27.76c-2.31 0-4.57.21-6.83.65L80.56 232.39a34.956 34.956 0 0 0-21.39 13.41L6.99 315.64A251.7 251.7 0 0 0 14 339.69l61.2-81.92c2.24-2.99 5.49-5.03 9.16-5.74z" fill="#faf7eb"></path><path d="M470.59 395.64a257.392 257.392 0 0 1-34.98 42.78h-98.96L295.3 322.87h149.25z" fill="#eebe61"></path><path d="M444.554 322.866h-149.25l-41.351 139.496h149.25z" fill="#f5dd62"></path><path d="M334.297 440.938c-7.019 0-13.392-2.618-17.943-7.371-4.525-4.724-6.854-11.123-6.557-18.017.055-1.276.202-2.577.437-3.867.742-4.076 4.652-6.774 8.722-6.036a7.5 7.5 0 0 1 6.036 8.722 13.456 13.456 0 0 0-.208 1.827c-.119 2.769.733 5.254 2.402 6.996 1.721 1.797 4.18 2.747 7.111 2.747 7.674 0 15.35-6.53 16.762-14.26.601-3.288-.047-6.271-1.823-8.401-1.7-2.04-4.358-3.163-7.482-3.163-4.143 0-7.5-3.358-7.5-7.5s3.357-7.5 7.5-7.5c7.674 0 15.35-6.53 16.762-14.259.601-3.288-.047-6.271-1.822-8.401-1.701-2.04-4.359-3.163-7.484-3.163-6.624 0-13.511 4.993-16.02 11.613a7.5 7.5 0 0 1-14.027-5.316c4.753-12.54 17.108-21.298 30.047-21.298 7.653 0 14.402 3.039 19.004 8.557 4.608 5.526 6.452 13.072 5.059 20.702-1.473 8.063-6.204 15.179-12.605 20.012l.091.108c4.608 5.526 6.452 13.072 5.059 20.703-2.725 14.897-16.569 26.565-31.521 26.565z" fill="#d56278"></path><path d="M190.601 22.599H41.351L0 138.152h149.25z" fill="#eebe61"></path><path d="M41.351 22.599h149.25l41.351 139.496H82.702z" fill="#f5dd62"></path><path d="M158.954 138.105a7.503 7.503 0 0 1-7.138-5.204c-1.985-6.166-4.241-13.158-6.58-20.385h-37.902a7.5 7.5 0 0 1-7.323-9.119c2.756-12.458 11.978-53.586 14.958-59.735 2.265-4.676 6.388-7.399 11.042-7.249 6.309.186 11.287 5.476 13.423 10.636 1.316 3.182 9.662 28.727 16.712 50.468h5.63a7.5 7.5 0 0 1 0 15h-.775a16094.9 16094.9 0 0 1 5.093 15.79 7.5 7.5 0 0 1-7.14 9.798zm-42.257-40.59h23.678c-5.79-17.827-11.283-34.604-13.67-41.566-2.363 8.646-6.279 25.058-10.008 41.566z" fill="#d56278"></path></g></svg>