<svg viewBox="0 0 512 512" xmlns="http://www.w3.org/2000/svg"><g><path d="M323.303 449.371c-32.413 0-58.782-26.369-58.782-58.782 0-25.497 20.743-46.24 46.24-46.24v30c-8.955 0-16.24 7.285-16.24 16.24 0 15.87 12.912 28.782 28.782 28.782 25.564 0 46.361-20.798 46.361-46.361 0-39.147-31.849-70.997-70.997-70.997l55.465-13.372c27.41 18.08 45.532 49.148 45.532 84.369 0 42.105-34.256 76.361-76.361 76.361z" fill="#12a8ff"></path><path d="M53.334 147.962h128v30h-128z" fill="#86ddff"></path><path d="M53.334 334.038h174.667v30H53.334zM435.639 124.654c-32.413 0-58.782 26.369-58.782 58.782 0 25.497 20.743 46.24 46.24 46.24v-30c-8.955 0-16.24-7.285-16.24-16.24 0-15.87 12.912-28.782 28.782-28.782 25.564 0 46.361 20.798 46.361 46.361 0 39.148-31.849 70.997-70.997 70.997H262.506l-10.001 15 10.001 15h148.497c55.69 0 100.997-45.307 100.997-100.997 0-42.105-34.256-76.361-76.361-76.361z" fill="#6cbeee"></path><path d="M0 272.013h262.505v30H0z" fill="#86ddff"></path><path d="M274.972 92.629c25.563 0 46.361 20.798 46.361 46.361 0 34.997-25.461 64.141-58.827 69.932l-6.001 15.533 6.001 14.797c49.972-6.029 88.827-48.69 88.827-100.262 0-42.105-34.256-76.361-76.361-76.361-4.278 0-8.446.471-12.466 1.343l-6.001 15.694 6.001 15.804a28.617 28.617 0 0 1 12.466-2.841z" fill="#12a8ff"></path><g fill="#6cbeee"><path d="M250.336 209.987H0v30h250.336c4.119 0 8.179-.254 12.17-.735v-30.33a71.072 71.072 0 0 1-12.17 1.065zM216.189 121.411c0 25.497 20.743 46.24 46.239 46.24v-30c-8.954 0-16.239-7.285-16.239-16.24 0-11.407 6.67-21.286 16.316-25.94V63.972c-26.443 5.734-46.316 29.304-46.316 57.439z" fill="#6cbeee"></path></g></g></svg>