<svg viewBox="0 0 489.59 489.59" xmlns="http://www.w3.org/2000/svg"><g><path d="M223.05 118.255h207.768c19.741 0 35.744 16.003 35.744 35.744v3.151c0 19.741-16.003 35.744-35.744 35.744H223.05c-19.741 0-35.744-16.003-35.744-35.744v-3.151c0-19.741 16.003-35.744 35.744-35.744z" fill="#27394c"></path><path d="M489.59 231.545c0 20.455-15.753 37.218-35.784 38.821a37.435 37.435 0 0 1-3.17.133c-2.727 0-5.384-.275-7.952-.815H208.061c-2.568.54-5.225.815-7.952.815h-.027c-21.509-.018-38.927-17.444-38.927-38.953 0-20.278 15.496-36.934 35.296-38.768a35.724 35.724 0 0 1 3.657-.177c1.638 0 3.241.097 4.826.292H445.81a39.42 39.42 0 0 1 11.6.301c18.286 3.196 32.18 19.153 32.18 38.351z" fill="#ffcbb3"></path><path d="M457.411 193.194v49.34c0 9.581-1.248 18.906-3.604 27.832a37.435 37.435 0 0 1-3.17.133c-2.727 0-5.384-.275-7.952-.815H208.061c-2.568.54-5.225.815-7.952.815h-.027a109.133 109.133 0 0 1-3.63-27.964v-49.757a35.724 35.724 0 0 1 3.657-.177c1.638 0 3.241.097 4.826.292h240.876a39.42 39.42 0 0 1 4.826-.292 38.649 38.649 0 0 1 6.774.593z" fill="#e89876"></path><path d="M468.353 240.219a7.502 7.502 0 0 1-6.882-4.511c-3.134-7.208-12.599-4.903-13.666-4.616-3.983 1.131-8.106-1.189-9.238-5.174-1.131-3.985 1.208-8.139 5.192-9.27 7.938-2.254 24.729-2.42 31.467 13.079a7.499 7.499 0 0 1-3.888 9.868 7.465 7.465 0 0 1-2.985.624z" fill="#e89876"></path><path d="M445.809 438.984v50.394h-237.75v-50.394c0-65.652 53.219-118.879 118.871-118.879 9.289 0 18.33 1.071 27.008 3.082 21.987 5.109 41.628 16.32 57.053 31.737 21.509 21.517 34.818 51.234 34.818 84.06z" fill="#27394c"></path><path d="M445.809 438.984v50.394H262.075v-50.394c0-56.363 39.228-103.569 91.863-115.798 21.987 5.109 41.628 16.32 57.053 31.737 21.509 21.518 34.818 51.235 34.818 84.061z" fill="#3e5268"></path><path d="M268.878 360.224 326.93 478.03l58.051-117.806" fill="#ffffff"></path><path d="m275.905 366.283 51.025 65.177 51.025-65.177" fill="#fc74af"></path><path d="m384.782 360.638-26.469 53.711-31.382-34.162h.002l-31.382 34.162-26.469-53.711" fill="#bbb8cc"></path><path d="M326.933 478.03v11.35h-29.2l-30.44-30.44 12.71-26.39h-29.33l-15.03-69.69c6.9-8.29 14.92-15.61 23.82-21.75l67.47 136.92z" fill="#172635"></path><path d="M326.927 478.03v11.35h29.2l30.44-30.44-12.71-26.39h29.33l15.03-69.69c-6.9-8.29-14.92-15.61-23.82-21.75l-67.47 136.92z" fill="#172635"></path><path d="M445.809 175.342v80.953c0 57.93-41.442 106.181-96.299 116.728a119.262 119.262 0 0 1-22.58 2.143c-65.652 0-118.871-53.219-118.871-118.871v-80.953c0-65.651 53.219-118.879 118.871-118.879 7.722 0 15.275.735 22.58 2.143 23.776 4.569 45.028 16.223 61.481 32.675 21.509 21.517 34.818 51.235 34.818 84.061z" fill="#e89876"></path><path d="M445.809 175.342v80.953c0 57.93-41.442 106.181-96.299 116.728-54.857-10.547-96.299-58.798-96.299-116.728v-80.953c0-57.93 41.442-106.19 96.299-116.736 23.776 4.569 45.028 16.223 61.481 32.675 21.509 21.517 34.818 51.235 34.818 84.061z" fill="#ffcbb3"></path><path d="M275.146 247.766a7.5 7.5 0 0 1-7.5-7.5v-29.22a7.5 7.5 0 0 1 15 0v29.22a7.5 7.5 0 0 1-7.5 7.5zM378.722 247.766a7.5 7.5 0 0 1-7.5-7.5v-29.22a7.5 7.5 0 0 1 15 0v29.22a7.5 7.5 0 0 1-7.5 7.5z" fill="#172635"></path><path d="m438.742.551-53.33 53.33c-4.517-11.093-15.392-18.921-28.108-18.921-10.435 0-19.636 5.269-25.099 13.289-13.938-17.17-35.205-28.145-59.046-28.145-42.002 0-76.052 34.05-76.052 76.052s34.05 76.052 76.052 76.052c17.546 0 33.692-5.958 46.56-15.939 37.768 21.646 86.764 16.361 119.023-15.897 38.61-38.612 38.61-101.211 0-139.821z" fill="#3e5268"></path><path d="M242.744 96.155c0 34.048 22.377 62.878 53.224 72.566-7.186 2.268-14.857 3.485-22.81 3.485-42.002 0-76.051-34.048-76.051-76.05s34.049-76.05 76.051-76.05a75.784 75.784 0 0 1 22.81 3.485c-30.847 9.686-53.224 38.516-53.224 72.564z" fill="#27394c"></path><path d="m341.01 449.45-14.08 28.58-14.08-28.58 14.08-17.99zM355.218 291.824c0 15.62-12.66 28.28-28.28 28.28s-28.29-12.66-28.29-28.28c0-5.66 1.67-9.67 4.54-12.46 5.04-4.95 13.79-6.18 23.75-6.18 9.95 0 18.71 1.23 23.75 6.18 2.87 2.79 4.53 6.79 4.53 12.46z" fill="#fc74af"></path><path d="M350.688 279.364c-5.04 4.94-13.8 6.17-23.75 6.17-9.96 0-18.71-1.23-23.75-6.17 5.04-4.95 13.79-6.18 23.75-6.18 9.95 0 18.71 1.23 23.75 6.18z" fill="#ffffff"></path><path d="M147.261 391.83v32.261h-26.72V391.83c0-7.38 5.98-13.36 13.36-13.36 2.06 0 4.02.47 5.76 1.3 4.49 2.15 7.6 6.74 7.6 12.06z" fill="#e89876"></path><path d="M147.261 391.83v17.26h-15.2v-17.26c0-5.32 3.1-9.91 7.6-12.06 4.49 2.15 7.6 6.74 7.6 12.06z" fill="#ffcbb3"></path><path d="m107.258 452.93 35.905 36.146h89.581l-80.685-79.987-26.883 25.922z" fill="#3e5268"></path><path d="m152.06 409.096-21.98 21.5-22.82 22.33-30.27-6.45c-4.36-.93-8.1-3.32-10.75-6.6-.29-.36-.58-.74-.84-1.13-2.13-3.07-3.36-6.8-3.36-10.76 0-10.43 8.46-18.89 18.9-18.89h71.12z" fill="#ffcbb3"></path><path d="m130.08 430.596-22.82 22.33-30.27-6.45c-4.36-.93-8.1-3.32-10.75-6.6-.29-.36-.58-.74-.84-1.13 3.4-4.93 9.09-8.15 15.54-8.15h49.14z" fill="#e89876"></path><path d="m107.258 452.93 35.905 36.146H179l-53.824-54.065z" fill="#27394c"></path><path d="M0 30.076v158.889c0 16.494 13.371 29.866 29.866 29.866h146.061l47.262 48.188c7.025 7.163 19.2 2.189 19.2-7.844V30.076c0-16.494-13.371-29.866-29.866-29.866H29.866C13.371.211 0 13.582 0 30.076z" fill="#96efff"></path><path d="M200.687 58.223H41.701a7.5 7.5 0 0 1 0-15h158.986a7.5 7.5 0 0 1 0 15zM200.687 95.717H41.701a7.5 7.5 0 0 1 0-15h158.986a7.5 7.5 0 0 1 0 15zM200.687 133.211H41.701a7.5 7.5 0 0 1 0-15h158.986a7.5 7.5 0 0 1 0 15zM200.687 170.705H41.701a7.5 7.5 0 0 1 0-15h158.986a7.5 7.5 0 0 1 0 15z" fill="#3e5268"></path></g></svg>