<svg viewBox="0 0 512 512" xmlns="http://www.w3.org/2000/svg"><g><path d="M24 64v152h112a24 24 0 0 0 24-24v-48h32l-32-80z" fill="#fec9a3"></path><path d="M128 120a16 16 0 1 1 16-16 16.019 16.019 0 0 1-16 16z" fill="#4d5e78"></path><path d="M160 176h-6.111a36.744 36.744 0 0 1-33.044-20.422l14.31-7.156A20.833 20.833 0 0 0 153.889 160H160z" fill="#f7ad7c"></path><path d="M184 40a24 24 0 0 1-24 24H80l-8 24h-7.731a20.838 20.838 0 0 0-20.215 15.784 20.836 20.836 0 0 0 10.9 23.691L56 128l-32 32V64a40 40 0 0 1 40-40h120z" fill="#4d5e78"></path><path d="M488 232v256H328V328l-34.46 34.08a74.71 74.71 0 0 1-108.09-3.14L136 304l48-40 49.5 56.57a8 8 0 0 0 12.42-.47L288 264a79.994 79.994 0 0 1 56.16-31.61c2.59-.26 5.21-.39 7.84-.39z" fill="#78462f"></path><path d="m184 264-14.678-24.464A32 32 0 0 0 141.882 224H88v56h24l24 24z" fill="#fec9a3"></path><path d="m440 232-31.06 77.65L392 352l-16.94-42.35-30.9-77.26c2.59-.26 5.21-.39 7.84-.39z" fill="#e0e0de"></path><path d="M408.94 309.65 392 352l-16.94-42.35L384 256l-8-24h32l-8 24z" fill="#693924"></path><path d="M184 488H24V216h120a40 40 0 0 1 40 40z" fill="#4d5e78"></path><path d="M488 64v168H376a24 24 0 0 1-24-24v-64h-32l32-80z" fill="#fec9a3"></path><path d="M384 120a16 16 0 1 1 16-16 16.019 16.019 0 0 1-16 16z" fill="#78462f"></path><path d="M328 44a20 20 0 0 0 20 20h84l8 24h7.731a20.838 20.838 0 0 1 20.215 15.784 20.836 20.836 0 0 1-10.9 23.691L456 128l32 32V64a40 40 0 0 0-40-40H348a20 20 0 0 0-20 20zM352 144h48a24 24 0 0 1 24 24v64h-48a24 24 0 0 1-24-24v-64z" fill="#78462f"></path><path d="M358.111 184H352v-16h6.111a20.833 20.833 0 0 0 18.734-11.578l14.31 7.156A36.744 36.744 0 0 1 358.111 184z" fill="#f7ad7c"></path><path d="M264 192v16h-40a16 16 0 0 0-16 16v48a16 16 0 0 0 16 16h72V168h-8a24 24 0 0 0-24 24z" fill="#fec9a3"></path><path d="m248 304 56-56 112 120 72-72v112l-4.313 4.313A94.53 94.53 0 0 1 416.844 440a94.528 94.528 0 0 1-68.837-29.743z" fill="#92563a"></path><path d="M288 288h16v16h-16zM312 312h16v16h-16z" fill="#6e3d26"></path><path d="m144 216-31.06 77.65L96 336l-16.94-42.35L48 216z" fill="#e0e0de"></path><g fill="#3b495e"><path d="M112.94 293.65 96 336l-16.94-42.35L88 240l-8-24h32l-8 24zM88 368h16v16H88zM88 416h16v16H88zM128 320h56v16h-56z" fill="#3b495e"></path></g></g></svg>