<svg viewBox="0 0 100 100" xmlns="http://www.w3.org/2000/svg"><g><path d="M95.115 32.494v32.708c0 5.305-4.301 9.606-9.606 9.606H48.247L29.234 96.121c-2.937 3.292-8.387 1.215-8.387-3.197V74.808h-6.364c-5.305 0-9.606-4.301-9.606-9.606V32.494c0-5.305 4.301-9.606 9.606-9.606H85.51c5.305 0 9.605 4.301 9.605 9.606z" fill="#e6e8e7"></path><path d="M95.123 32.49v32.707c0 5.312-4.312 9.609-9.609 9.609H48.249L29.232 96.117c-2.941 3.295-8.392 1.217-8.392-3.188V74.806h-6.36a9.598 9.598 0 0 1-9.178-6.791 9.463 9.463 0 0 0 2.818.431h38.327c11.688 0 22.251-4.727 29.904-12.396 7.653-7.653 12.396-18.232 12.396-29.92 0-.986-.154-1.94-.431-2.833 3.943 1.201 6.807 4.866 6.807 9.193z" fill="#000000" opacity=".1"></path><path d="M88.763 14.289c0 6.636-5.358 11.994-11.994 11.994s-11.994-5.358-11.994-11.994S70.133 2.264 76.769 2.264s11.994 5.39 11.994 12.025z" fill="#fd4746"></path><path d="M88.763 14.289a11.98 11.98 0 0 1-11.996 11.996 11.942 11.942 0 0 1-9.901-5.22 11.89 11.89 0 0 0 6.837 2.14c6.637 0 11.98-5.359 11.98-11.98 0-2.541-.785-4.912-2.125-6.868 3.142 2.186 5.205 5.821 5.205 9.932z" fill="#000000" opacity=".1"></path><g fill="#405d6b"><path d="M19.95 37.051h60.113a1.155 1.155 0 1 0 0-2.31H19.95a1.155 1.155 0 1 0 0 2.31zM19.95 50.003h60.113a1.155 1.155 0 1 0 0-2.31H19.95a1.155 1.155 0 1 0 0 2.31zM19.95 62.955h40.785a1.155 1.155 0 1 0 0-2.31H19.95a1.155 1.155 0 1 0 0 2.31z" fill="#405d6b"></path></g><path d="M76.769 18.224c.638 0 1.155-.517 1.155-1.155v-5.591a1.155 1.155 0 1 0-2.31 0v5.591c0 .638.517 1.155 1.155 1.155z" fill="#fefefe"></path></g></svg>