<svg id="Icons" height="512" viewBox="0 0 60 60" width="512" xmlns="http://www.w3.org/2000/svg"><path d="m3 3h54v53h-54z" fill="#f9c795"/><g fill="#e64c3c"><rect height="8" rx="2" width="22" x="1" y="2"/><rect height="8" rx="2" width="16" x="27" y="2"/><rect height="8" rx="2" width="12" x="47" y="2"/><rect height="8" rx="2" width="22" x="1" y="26"/><rect height="8" rx="2" width="16" x="27" y="26"/><rect height="8" rx="2" width="12" x="47" y="26"/><rect height="8" rx="2" width="22" x="1" y="50"/><rect height="8" rx="2" width="16" x="27" y="50"/><rect height="8" rx="2" width="12" x="47" y="50"/><rect height="8" rx="2" transform="matrix(-1 0 0 -1 97 36)" width="21" x="38" y="14"/><rect height="8" rx="2" transform="matrix(-1 0 0 -1 54 36)" width="14" x="20" y="14"/><rect height="8" rx="2" transform="matrix(-1 0 0 -1 17 36)" width="15" x="1" y="14"/><rect height="8" rx="2" transform="matrix(-1 0 0 -1 97 84)" width="21" x="38" y="38"/><rect height="8" rx="2" transform="matrix(-1 0 0 -1 54 84)" width="14" x="20" y="38"/><rect height="8" rx="2" transform="matrix(-1 0 0 -1 17 84)" width="15" x="1" y="38"/></g></svg>