<svg viewBox="0 0 512 512" xmlns="http://www.w3.org/2000/svg"><g><path d="M399.031 32.046A14.998 14.998 0 0 0 386.997 26h-100a14.998 14.998 0 0 0-14.367 19.311l22.749 75.827a14.999 14.999 0 0 0 14.368 10.689l54.504-.002a15 15 0 0 0 14.367-10.689l22.748-75.825a15.005 15.005 0 0 0-2.335-13.265z" fill="#b1705b"></path><path d="M399.031 32.046A14.998 14.998 0 0 0 386.997 26h-50v105.826l27.253-.001a15 15 0 0 0 14.367-10.689l22.748-75.825a15.002 15.002 0 0 0-2.334-13.265z" fill="#875140"></path><path d="M434.233 486H239.762c-40.455 0-74.51-30.323-77.531-69.033-1.306-16.728 2.826-32.937 11.947-46.875 9.096-13.898 14.75-31.273 16.806-51.64l10.045-99.531c3.407-33.761 19.146-64.885 44.317-87.639C270.515 108.53 303.064 96 336.998 96s66.483 12.53 91.651 35.282c25.17 22.754 40.909 53.878 44.317 87.64l10.045 99.53c2.055 20.365 7.709 37.74 16.806 51.641 9.121 13.938 13.252 30.146 11.947 46.874-3.021 38.71-37.076 69.033-77.531 69.033z" fill="#c69687"></path><path d="M499.817 370.093c-9.096-13.9-14.75-31.275-16.806-51.641l-10.045-99.53c-3.408-33.762-19.146-64.886-44.317-87.64C403.481 108.53 370.931 96 336.998 96v390h97.236c40.455 0 74.51-30.323 77.531-69.033 1.304-16.728-2.827-32.937-11.948-46.874z" fill="#b1705b"></path><path d="M357.258 278.319a495.888 495.888 0 0 1-8.747-3.177v-49.783c6.509 1.776 9.824 5.055 10.055 5.292 4.543 5.156 12.403 5.683 17.59 1.161 5.206-4.535 5.749-12.431 1.214-17.636-4.731-5.43-14.691-12.276-28.859-14.34V191c0-6.903-5.597-12.5-12.5-12.5s-12.5 5.597-12.5 12.5v10.287a79.733 79.733 0 0 0-3.936 1.064c-16.292 4.907-28.463 18.834-31.763 36.345-3.018 16.014 2.145 31.481 13.474 40.368 5.695 4.467 12.707 8.559 22.225 12.851v63.488c-7.747-.769-13.05-2.953-21.772-8.659-5.776-3.78-13.524-2.16-17.303 3.618-3.779 5.777-2.16 13.524 3.618 17.304 13.85 9.06 23.451 11.983 35.458 12.816V391c0 6.903 5.597 12.5 12.5 12.5s12.5-5.597 12.5-12.5v-11.63c9.319-2.089 17.782-6.49 24.904-13.034 9.172-8.428 15.363-19.847 17.432-32.152 4.24-25.226-8.945-47.154-33.59-55.865zm-40.543-18.926c-3.897-3.056-5.599-9.363-4.335-16.066 1.062-5.638 4.534-12.309 11.131-15.708v36.288c-2.516-1.46-4.818-2.963-6.796-4.514zm49.478 70.646c-1.521 9.049-7.524 18.629-17.682 23.12v-51.417l.415.148c19.268 6.81 18.088 23.267 17.267 28.149z" fill="#faf16c"></path><path d="M357.258 278.319a495.888 495.888 0 0 1-8.747-3.177v-49.783c6.509 1.776 9.824 5.055 10.055 5.292 4.543 5.156 12.403 5.683 17.59 1.161 5.206-4.535 5.749-12.431 1.214-17.636-4.731-5.43-14.691-12.276-28.859-14.34V191c0-6.571-5.073-11.946-11.514-12.45v224.9c6.441-.504 11.514-5.88 11.514-12.45v-11.63c9.319-2.089 17.782-6.49 24.904-13.034 9.172-8.428 15.363-19.847 17.432-32.152 4.241-25.226-8.944-47.154-33.589-55.865zm8.935 51.72c-1.521 9.049-7.524 18.629-17.682 23.12v-51.417l.415.148c19.268 6.81 18.088 23.267 17.267 28.149z" fill="#f2d231"></path><path d="M41.835 213.24c-12.067-25.879-11.217-56.014 2.275-80.61 3.984-7.263 13.103-9.923 20.365-5.938 7.263 3.984 9.922 13.102 5.938 20.365-8.781 16.009-9.313 36.51-1.389 53.505z" fill="#fbf3f3"></path><path d="M69.024 200.562c-7.924-16.995-7.393-37.496 1.389-53.505 3.984-7.264 1.326-16.381-5.938-20.365-7.263-3.985-16.381-1.325-20.365 5.938-4.989 9.095-8.244 18.948-9.762 29.062l21.082 45.21z" fill="#dddcf3"></path><path d="m117.486 268.996-54.378 25.357c-7.508 3.501-16.433.253-19.934-7.255l-22.189-47.584c-7.002-15.016-.506-32.866 14.511-39.868l27.189-12.679c15.016-7.002 32.866-.506 39.868 14.511l22.189 47.584c3.501 7.508.252 16.433-7.256 19.934z" fill="#39326c"></path><path d="M117.486 268.996c7.508-3.501 10.756-12.426 7.255-19.934l-22.189-47.584c-7.002-15.016-24.852-21.513-39.868-14.511l-13.594 6.339 41.207 88.368z" fill="#2d2755"></path><path d="M74.448 247.685c62.468-29.129 136.987-2.006 166.116 60.461s2.006 136.987-60.461 166.116-136.987 2.006-166.116-60.461-2.007-136.987 60.461-166.116z" fill="#514898"></path><path d="M240.563 308.146c-29.129-62.467-103.648-89.59-166.116-60.461l105.655 226.577c62.468-29.129 89.59-103.649 60.461-166.116z" fill="#39326c"></path><path d="M18.314 91.805 1.409 55.554c-3.501-7.508-.253-16.433 7.255-19.934 7.508-3.501 16.433-.253 19.934 7.255l16.905 36.251c3.501 7.508.253 16.433-7.255 19.934-7.508 3.501-16.433.253-19.934-7.255zM72.653 97.558c-7.785-2.833-11.799-11.441-8.965-19.226l13.68-37.587c2.833-7.785 11.441-11.799 19.226-8.965 7.785 2.833 11.798 11.441 8.965 19.226l-13.68 37.587c-2.834 7.785-11.441 11.799-19.226 8.965zM98.046 120.826c-3.501-7.508-.253-16.433 7.256-19.934l36.252-16.904c7.508-3.501 16.433-.253 19.934 7.256 3.501 7.508.253 16.433-7.256 19.934l-36.252 16.904c-7.509 3.501-16.433.252-19.934-7.256z" fill="#f2d231"></path></g></svg>