<svg viewBox="0 0 53 53" xmlns="http://www.w3.org/2000/svg"><g><path d="M40.764 42.1v8.392H5.377V42.1c0-4.926 4.01-8.936 8.952-8.936h17.484c4.942 0 8.951 4.01 8.951 8.936z" fill="#65b9ff"></path><path d="M17.523 33.161A8.94 8.94 0 0 0 8.584 42.1v8.388H5.382V42.1a8.94 8.94 0 0 1 8.939-8.939z" fill="#3e7fff"></path><path d="M27.855 29.407v3.919a4.901 4.901 0 0 1-4.889 4.899c-2.635 0-4.899-2.114-4.899-4.9v-3.918z" fill="#ffaf93"></path><path d="M31.93 11.513v11.929a8.967 8.967 0 1 1-17.935 0v-11.93z" fill="#ffaf93"></path><path d="M31.926 9.09v14.347c0 4.92-3.973 8.97-8.96 8.97a8.966 8.966 0 0 1-8.97-8.97V9.091z" fill="#ffaf93"></path><path d="M12.023 13.779h1.982v7.736h-1.982zM31.919 13.779h1.934v7.736h-1.934z" fill="#ab604b"></path><path d="M13.997 16.973v4.555h-1.97V17.65a3.183 3.183 0 0 1 1.97-.677z" fill="#ab604b"></path><path d="M12.03 13.78v7.743H14v-6.057c0-.61.152-1.182.415-1.687z" fill="#8b4f4f"></path><path d="M35.083 21.136a3.157 3.157 0 0 1-3.167 3.168v-6.318a3.153 3.153 0 0 1 3.167 3.15z" fill="#ffaf93"></path><path d="M32.76 18.113a3.169 3.169 0 0 0-.844-.127v6.318c.295 0 .574-.053.845-.127zM21.025 36.757l.038.038c.715.715 1.634 1.213 2.681 1.353-.255.051-.51.077-.779.077a4.898 4.898 0 0 1-4.902-4.903v-2.375a8.924 8.924 0 0 1-4.06-7.507v.868a3.171 3.171 0 0 1-3.18-3.179c0-.996.473-1.89 1.2-2.464a3.146 3.146 0 0 1 1.98-.676v-2.516a3.697 3.697 0 0 1 2.604-3.536V23.44c0 4.54 3.35 8.24 7.61 8.86a8.757 8.757 0 0 0 3.638-1.34v1.545c-1.812.961-3.853 1.318-5.388 1.2-1.621-.076-2.579 1.902-1.442 3.052z" fill="#ee8778"></path><path d="M23.671 22.234v1.28a.786.786 0 1 1-1.573 0v-1.28a.786.786 0 1 1 1.573 0zM20.153 26.32a2.87 2.87 0 0 0 5.605 0c-1.86.828-3.728.828-5.605 0z" fill="#ee8778"></path><path d="M12.026 13.455v1.837s8.802-.612 11.892-1.763c.057-.021.102-.051.159-.074z" fill="#ab604b"></path><path d="M12.026 13.455v1.837s2.148-.15 4.693-.44v-1.397z" fill="#8b4f4f"></path><path d="M20.531 20.538a1.85 1.85 0 0 0-3.615 0zM29.223 20.538a1.85 1.85 0 0 0-3.615 0z" fill="#312e4b"></path><path d="M33.678 40.406v10.07h-21.23v-10.07c0-.637.529-1.15 1.166-1.15h1.492v-6.092h1.632v6.092h12.65v-6.092h1.648v6.092h1.492c.637 0 1.15.513 1.15 1.15z" fill="#5b5e8b"></path><path d="M35.249 17.798H10.673a.71.71 0 0 1-.71-.71v-1.37a.71.71 0 0 1 .71-.71H35.25a.71.71 0 0 1 .71.71v1.37a.71.71 0 0 1-.71.71z" fill="#fcb73e"></path><path d="M14.745 17.8h-3.41a1.37 1.37 0 0 1-1.365-1.363v-.057c0-.758.606-1.364 1.364-1.364h3.411c-.758 0-1.383.606-1.383 1.364v.057c0 .739.625 1.364 1.383 1.364z" fill="#fd982e"></path><path d="M34.256 15.01H11.653c.018-.614.09-1.228.217-1.806a11.267 11.267 0 0 1 7.317-8.51 10.914 10.914 0 0 1 3.777-.65c1.373 0 2.692.234 3.902.686a11.287 11.287 0 0 1 7.173 8.474c.127.578.2 1.192.217 1.807z" fill="#fcb73e"></path><path d="M34.256 15.01H11.653c.018-.614.09-1.228.217-1.806a11.267 11.267 0 0 1 7.317-8.51 9.508 9.508 0 0 1 2.169-.524 4.118 4.118 0 0 0-.617.282c-4.734 2.631-2.463 9.999 2.953 9.999H34.22c.018.18.036.38.036.56z" fill="#fd982e"></path><path d="m26.866 4.73-.614 3.198h-6.45l-.615-3.234a10.914 10.914 0 0 1 3.777-.65c1.373 0 2.692.234 3.902.686z" fill="#fd982e"></path><path d="M25.505 7.29h-4.953l-.706-3.695a.915.915 0 0 1 .9-1.087h4.566a.915.915 0 0 1 .9 1.087z" fill="#fcb73e"></path><path d="M29.063 43.257H17.079a.699.699 0 0 1-.699-.699v-.08c0-.385.313-.698.7-.698h11.983c.386 0 .698.313.698.699v.079a.699.699 0 0 1-.698.699zM29.063 46.069H17.079a.699.699 0 0 1-.699-.7v-.079c0-.386.313-.698.7-.698h11.983c.386 0 .698.312.698.698v.08a.699.699 0 0 1-.698.699zM29.063 48.88H17.079a.699.699 0 0 1-.699-.698v-.08c0-.386.313-.699.7-.699h11.983c.386 0 .698.313.698.7v.079a.699.699 0 0 1-.698.698z" fill="#deddff"></path><path d="M47.623 42.904a7.578 7.578 0 0 1-7.597 7.588 7.59 7.59 0 0 1 0-15.177c2.173 0 4.133.907 5.514 2.37a7.56 7.56 0 0 1 2.083 5.219z" fill="#fcb73e"></path><path d="M41.186 50.402a7.59 7.59 0 1 1-1.16-15.087c.392 0 .784.033 1.16.09a7.582 7.582 0 0 0-6.429 7.499 7.582 7.582 0 0 0 6.429 7.498z" fill="#fd982e"></path><path d="M47.623 42.904a7.59 7.59 0 0 1-2.337 5.48 17.701 17.701 0 0 0-.8-.563c-.94-.629-1.928-1.225-2.68-2.066-.75-.85-1.249-2.01-1.012-3.113.437-2.036 2.833-2.82 4.15-4.198.22-.229.424-.49.596-.76a7.56 7.56 0 0 1 2.083 5.22z" fill="#ffffff" opacity=".3"></path><path d="M40.431 42.446v-2.384c.512.027.998.12 1.442.277.403.162.709-.147.709-.48a.496.496 0 0 0-.35-.502c-.526-.2-1.131-.32-1.8-.353v-.657a.399.399 0 0 0-.12-.292.411.411 0 0 0-.58.002.408.408 0 0 0-.113.29v.67c-1.38.141-2.375.991-2.375 2.247 0 1.336 1.092 1.804 2.375 2.15v2.3a4.912 4.912 0 0 1-1.695-.414.53.53 0 0 0-.61.11.55.55 0 0 0 .204.88c.65.277 1.356.446 2.1.501v.68c0 .253.18.401.401.401.254 0 .412-.18.412-.4v-.68c1.623-.12 2.46-1.079 2.46-2.142 0-1.426-1.078-1.871-2.46-2.204zm1.338 2.14c0 .673-.438 1.041-1.338 1.125v-2.093c.437.124.773.257 1 .394.228.138.338.326.338.574zm-2.15-4.483v2.14c-.63-.176-1.242-.405-1.242-1.053 0-.658.596-.981 1.242-1.087z" fill="#ffffff"></path></g></svg>