<svg viewBox="0 0 512 512" xmlns="http://www.w3.org/2000/svg"><g><path clip-rule="evenodd" d="M.5 320.081c0-18.233 14.931-33.135 33.135-33.135 18.233 0 33.164 14.902 33.164 33.135v126.65l-33.164 55.591L.5 446.73V320.081z" fill="#ffb123" fill-rule="evenodd"></path><path clip-rule="evenodd" d="M26.377 287.749c2.35-.506 4.759-.803 7.257-.803 18.233 0 33.164 14.902 33.164 33.135v126.65l-33.164 55.591-7.257-12.225 25.847-43.367V320.08c.001-15.734-11.094-28.97-25.847-32.331z" fill="#ff901d" fill-rule="evenodd"></path><path clip-rule="evenodd" d="m66.799 446.73-33.164 55.591L.5 446.73z" fill="#fed9a8" fill-rule="evenodd"></path><path clip-rule="evenodd" d="m66.799 446.73-23.617 39.589-9.547 16.002-7.258-12.224 25.848-43.367z" fill="#f4c892" fill-rule="evenodd"></path><path clip-rule="evenodd" d="m47.138 479.657-13.503 22.664-13.504-22.664z" fill="#505778" fill-rule="evenodd"></path><path clip-rule="evenodd" d="m47.138 479.657-13.503 22.664-7.258-12.224 6.217-10.44z" fill="#464e6e" fill-rule="evenodd"></path><path clip-rule="evenodd" d="M.5 327.07h66.299v16.002H.5z" fill="#01d0fb" fill-rule="evenodd"></path><path clip-rule="evenodd" d="M52.225 327.07H66.8v16.002H52.225z" fill="#01bbe2" fill-rule="evenodd"></path><path clip-rule="evenodd" d="M21.559 289.236C9.274 294.085.5 306.131.5 320.081v10.262H66.799v-10.262c0-18.233-14.931-33.135-33.164-33.135-4.254 0-8.329.803-12.076 2.29z" fill="#ef5350" fill-rule="evenodd"></path><path clip-rule="evenodd" d="M52.225 330.342H66.8V320.08c0-.268 0-.565-.03-.833 0-.297 0-.565-.03-.863 0-.268-.03-.565-.06-.833 0-.268-.03-.565-.059-.833-.03-.297-.06-.565-.089-.833-.03-.268-.089-.565-.119-.833-.059-.268-.089-.535-.149-.803a7.543 7.543 0 0 0-.149-.803v-.03l-.178-.803c-.059-.238-.119-.506-.208-.773a7.903 7.903 0 0 0-.208-.803c-.059-.268-.149-.506-.238-.773-.059-.268-.149-.506-.238-.773-.089-.268-.179-.506-.268-.773-.089-.238-.208-.506-.298-.744-.089-.268-.208-.506-.297-.744-.119-.268-.208-.506-.327-.744s-.238-.506-.357-.744l-.357-.714-.357-.714a7.888 7.888 0 0 1-.387-.684 21.243 21.243 0 0 1-.416-.684 21.243 21.243 0 0 1-.416-.684c-.149-.238-.297-.446-.446-.684-.149-.208-.297-.416-.476-.654l-.446-.625c-.179-.208-.327-.446-.506-.654a4.891 4.891 0 0 0-.506-.595 9.502 9.502 0 0 0-.506-.625c-.357-.387-.714-.803-1.071-1.16-.178-.208-.357-.387-.565-.595-.178-.178-.357-.357-.565-.535l-.565-.565c-.208-.178-.416-.357-.595-.506l-.625-.535a9.502 9.502 0 0 1-.625-.506c-.208-.149-.416-.297-.625-.476-.208-.149-.416-.297-.654-.476a12.354 12.354 0 0 0-.654-.446c-.208-.149-.446-.297-.654-.446-.238-.149-.446-.268-.684-.416-.238-.149-.446-.268-.684-.416-.238-.119-.476-.268-.714-.387-.208-.119-.446-.238-.684-.387-.238-.119-.476-.238-.744-.357-.238-.119-.476-.208-.714-.327a16.068 16.068 0 0 0-1.487-.625c-.238-.119-.506-.208-.744-.297a20.701 20.701 0 0 1-.773-.268c-.268-.089-.506-.178-.773-.268-.268-.059-.535-.149-.773-.208-.268-.089-.535-.149-.803-.238l-.803-.178-.803-.178a7.543 7.543 0 0 0-.803-.149 7.543 7.543 0 0 0-.803-.149c-.297-.03-.565-.089-.833-.119s-.565-.06-.833-.089c-.268-.03-.565-.06-.833-.089-.297 0-.565-.03-.833-.03v-.03c-.297 0-.565 0-.863-.03h-1.786l-.06.03H32.027l-.119.03h-.357c-1.755.119-3.51.387-5.175.744 14.753 3.361 25.847 16.597 25.847 32.332v10.262z" fill="#d90d17" fill-rule="evenodd"></path><path clip-rule="evenodd" d="M23.522 123.057C101.54 85.699 179.558 48.37 257.576 11.012c8.061-3.837 18.411.892 23.022 10.529 53.093 110.915 106.215 221.86 159.338 332.804 4.61 9.637 1.785 20.672-6.246 24.509L199.635 490.9c-8.061 3.867-18.412-.863-23.022-10.5L17.276 147.596c-4.611-9.637-1.785-20.672 6.246-24.539z" fill="#d4c4b0" fill-rule="evenodd"></path><path clip-rule="evenodd" d="M120.041 46.496h207.583l76.144 76.144v302.882c0 9.161-7.525 16.686-16.686 16.686H120.041c-9.191 0-16.686-7.525-16.686-16.686V63.183c-.001-9.161 7.495-16.687 16.686-16.687z" fill="#fdf6ec" fill-rule="evenodd"></path><path clip-rule="evenodd" d="M403.768 122.641h-76.145V46.496z" fill="#d4c4b0" fill-rule="evenodd"></path><path d="M129.782 101.731a7.332 7.332 0 0 1 7.332-7.332h122.604a7.332 7.332 0 1 1 0 14.664H137.114a7.332 7.332 0 0 1-7.332-7.332zm7.332 44.63h61.302a7.332 7.332 0 1 0 0-14.664h-61.302a7.332 7.332 0 1 0 0 14.664zm0 74.628h232.895a7.332 7.332 0 1 0 0-14.664H137.114a7.332 7.332 0 1 0 0 14.664zm232.894 22.635H137.114a7.332 7.332 0 1 0 0 14.664h232.895a7.332 7.332 0 1 0-.001-14.664zm0 37.329H137.114a7.332 7.332 0 1 0 0 14.664h232.895a7.332 7.332 0 1 0-.001-14.664zm0 36.249H137.114a7.332 7.332 0 1 0 0 14.664h232.895a7.332 7.332 0 1 0-.001-14.664zm0 37.329H137.114a7.332 7.332 0 1 0 0 14.664h232.895a7.332 7.332 0 1 0-.001-14.664zm-5.025 40.341c-10.928 10.285-21.344 5.379-37.433-3.483-15.25-8.398-36.138-19.903-52.366 4.796a7.332 7.332 0 1 0 12.255 8.052c8.061-12.266 15.068-9.9 33.037-.003 9.021 4.969 20.058 11.048 31.639 11.047 7.545-.001 15.322-2.581 22.918-9.732a7.332 7.332 0 1 0-10.05-10.677z" fill="#d8aa5e"></path><path clip-rule="evenodd" d="m346.987 208.749-16.865-14.158c-7.614-6.395-16.329-9.31-26.264-8.745l-39.619 2.231-26.978 81.023 12.135 1.041c22.695 21.594 36.823 50.535 71.326 62.016 7.198 2.409 14.456 4.402 19.453-1.309 4.967-5.711 4.372-14.485-1.338-19.453l-7.614-6.663 22.962 20.018c5.711 4.997 14.456 4.402 19.452-1.309 4.967-5.711 4.372-14.456-1.338-19.453l12.879 11.213c5.711 4.997 14.456 4.402 19.452-1.309 4.967-5.711 4.372-14.456-1.339-19.453l14.574 12.701c5.711 4.997 14.099 4.045 19.453-1.338 5.354-5.354 4.372-14.456-1.339-19.453z" fill="#ffcebf" fill-rule="evenodd"></path><path d="m404.035 314.519-56.632-49.524a7.313 7.313 0 0 1-.684-10.351c2.647-3.034 7.287-3.331 10.321-.684l49.077 42.95-2.826-2.469c5.711 4.997 6.306 13.742 1.339 19.453-.208.208-.386.416-.595.625zM373.042 324.066l-45.003-39.321c-3.034-2.647-3.361-7.287-.684-10.321 2.647-3.034 7.287-3.361 10.321-.684l37.715 32.926-3.093-2.677c5.711 4.997 6.306 13.742 1.338 19.453-.207.208-.386.416-.594.624zM339.64 331.383a6.288 6.288 0 0 1-1.041-.773l-38.697-33.908c-3.034-2.647-3.361-7.287-.684-10.321 2.647-3.034 7.287-3.361 10.321-.684l32.064 28.078-10.381-9.042 7.614 6.663c5.711 4.967 6.306 13.742 1.338 19.453l-.534.534z" fill="#ffb09e"></path><path clip-rule="evenodd" d="m330.151 189.029-32.004 36.704c-6.098 6.99-5.384 17.698 1.606 23.795 6.99 6.097 17.698 5.384 23.795-1.606l18.828-21.624c11.838-3.718 22.308-3.242 30.279 4.848l63.325 55.205 34.503-5.265-2.707-62.968-26.204-16.924s-40.928-1.487-56.276-16.805c-8.417-8.447-23.26-8.774-35.871-6.395-7.792 1.458-14.068 5.057-19.274 11.035z" fill="#f5c2b3" fill-rule="evenodd"></path><path clip-rule="evenodd" d="M482.292 176.864 511.5 279.361l-44.051 12.552-29.238-102.497zM232.294 163.806l-29.238 102.498 44.08 12.552 29.209-102.468z" fill="#464e6e" fill-rule="evenodd"></path><path clip-rule="evenodd" d="M120.041 46.496h14.158c-9.161 0-16.686 7.525-16.686 16.686v362.34c0 9.161 7.525 16.686 16.686 16.686h-14.158c-9.191 0-16.686-7.525-16.686-16.686V63.183c-.001-9.161 7.495-16.687 16.686-16.687z" fill="#f5eada" fill-rule="evenodd"></path></g></svg>