<svg enable-background="new 0 0 492 492" viewBox="0 0 492 492" xmlns="http://www.w3.org/2000/svg"><g id="Master_Layer_2"/><g id="Layer_1"><g><path d="m365.018 225.172c.181-3.087-2.174-5.738-5.262-5.92-1.013-.06-1.98.154-2.827.577l-39.276-68.757c1.61-2.581.861-5.986-1.701-7.65-7.464-4.835-16.089-7.53-24.895-7.864-7.467-.283-15.067 1.138-22.2 4.399-6.98-4.393-14.85-6.883-22.85-7.419-11.118-.745-22.49 2.28-32.072 9.213-.617.446-1.219.903-1.805 1.369-8.729-4.61-18.298-7.116-27.952-7.485-14.174-.541-28.523 3.531-40.656 12.309-12.775 9.243-21.324 22.406-24.968 36.814-3.209 12.684-2.601 26.341 2.283 39.139-1.347.772-2.653 1.615-3.911 2.524-7.645 5.531-13.023 13.056-15.936 21.363-2.986 8.516-3.359 17.854-.909 26.701-8.264 16.394 62.823 75.976 73.744 79.677-.999 1.7-1.07 3.877.005 5.694.391.663.767 1.271 1.129 1.823.226.345.542.802.944 1.364.084.141.175.28.273.415l.009-.001c7.448 10.294 18.378 16.597 30.028 18.466 11.639 1.867 23.987-.703 34.286-8.154 3.794-2.745 7.139-6.061 9.935-9.815 1.531-2.055 2.891-4.24 4.062-6.532 3.765 1.593 7.755 2.518 11.785 2.763 8.023.487 16.211-1.723 23.116-6.72 6.063-4.387 10.441-10.444 12.796-17.212 1.708-4.909 2.351-10.184 1.801-15.461l.16-.044c4.038-1.131 7.875-2.969 11.319-5.461 7.988-5.78 12.881-14.266 14.332-23.312 1.164-7.258.105-14.871-3.354-21.728 1.237-.269 2.462-.586 3.673-.95 5.207-1.566 10.169-3.998 14.659-7.247 6.083-4.4 10.861-9.943 14.255-16.126 3.524-6.416 5.547-13.52 5.98-20.752z" fill="#374db3"/><path d="m374.373 225.172c.182-3.087-2.174-5.738-5.262-5.92-1.013-.06-1.98.154-2.827.577l-39.276-68.757c1.609-2.581.861-5.986-1.701-7.65-7.464-4.835-16.09-7.53-24.895-7.864-7.467-.283-15.067 1.138-22.2 4.399-6.98-4.393-14.85-6.883-22.85-7.419-11.118-.745-22.49 2.28-32.072 9.213-.617.446-1.219.903-1.805 1.369-8.729-4.61-18.298-7.116-27.952-7.485-14.174-.541-28.523 3.531-40.656 12.309-12.775 9.243-21.324 22.406-24.968 36.814-3.208 12.684-2.601 26.341 2.283 39.139-1.347.772-2.653 1.615-3.911 2.524-7.645 5.531-13.023 13.056-15.936 21.363-2.986 8.516-3.359 17.854-.909 26.701.823 2.979 3.906 4.726 6.885 3.903.866-.24 1.627-.67 2.252-1.233l64.607 77.008c-.999 1.7-1.069 3.877.005 5.694.391.663.767 1.271 1.128 1.823.226.345.542.802.945 1.364.084.141.175.28.273.415l.009-.001c7.448 10.294 18.378 16.597 30.028 18.466 11.639 1.867 23.987-.703 34.286-8.154 3.794-2.745 7.139-6.061 9.935-9.815 1.531-2.055 2.891-4.24 4.062-6.532 3.765 1.593 7.755 2.518 11.785 2.763 8.023.487 16.211-1.723 23.116-6.72 6.063-4.387 10.441-10.444 12.796-17.212 1.708-4.909 2.351-10.184 1.801-15.461l.16-.044c4.038-1.131 7.875-2.969 11.319-5.461 7.988-5.78 12.881-14.266 14.332-23.312 1.164-7.258.105-14.871-3.354-21.728 1.237-.269 2.462-.586 3.673-.95 5.207-1.566 10.169-3.998 14.659-7.247 6.083-4.4 10.861-9.943 14.255-16.126 3.524-6.417 5.546-13.521 5.98-20.753z" fill="#4c69f6"/><g clip-rule="evenodd" fill="#2d3e91" fill-rule="evenodd"><path d="m61.848 349.98 57.584 10.058 36.611 23.735 14.532-21.022h-.001l-10.759-15.701-23.936-25.378-25.966-55.299-19.863 28.099 17.266 32.08-30.288-11.696z"/><path d="m120.243 288.633 38.448 58.93 11.883 15.187v.001l38.542-28.253-10.724-21.975-18.759 14.821-8.91-15.434 15.088-10.28-8.215-13.143-14.818 10.752-11.401-13.804 22.982-16.719-10.712-12.542z"/><path d="m210.476 337.284-44.564-91.318 27.749-28.573 55.151 32.732 23.048 34.772h.001l-13.459 13.105-13.891-8.298-12.699 9.528 8.053 14.492zm-8.544-79.479 12.195 28.732 18.563-17.307z"/><path d="m215.9 200.473 55.96 84.425 27.517-20.281-18.215-25.57 13.975-10.579 20.382 27.146 28.583-22.78-63.364-82.031-27.254 18.559 33.738 44.85-15.423 10.787-30.66-42.234z"/></g><path clip-rule="evenodd" d="m71.448 349.98 57.584 10.058 36.611 23.735 14.532-21.022h-.001l-10.759-15.701-23.936-25.378-25.966-55.299-19.863 28.099 17.266 32.08-30.288-11.696z" fill="#f7c430" fill-rule="evenodd"/><path clip-rule="evenodd" d="m71.448 349.98 57.584 10.058 33.272 21.571 13.12-18.98-.001.001-10.759-15.701-23.936-25.378-24.035-51.189-17.043 24.11 17.266 32.08-5.914-2.284 1.163 2.163-26.171-10.107z" fill="#f6da35" fill-rule="evenodd"/><path clip-rule="evenodd" d="m129.843 288.633 38.448 58.93 11.882 15.187.001.001 38.542-28.253-10.724-21.975-18.759 14.821-8.91-15.434 15.088-10.28-8.215-13.143-14.818 10.752-11.401-13.804 22.982-16.719-10.712-12.542z" fill="#f7c430" fill-rule="evenodd"/><path clip-rule="evenodd" d="m129.843 288.633 38.448 58.93 8.718 11.143 36.347-26.644-8.374-17.161-15.749 12.443-2.645-4.582-2.715 2.145-8.91-15.433 15.089-10.28-5.496-8.792-12.178 8.837-3.266-3.955-2.093 1.518-11.402-13.803 22.982-16.72-7.353-8.609z" fill="#f6da35" fill-rule="evenodd"/><path clip-rule="evenodd" d="m220.076 337.284-44.563-91.318 27.749-28.573 55.151 32.732 23.048 34.772-13.459 13.105-13.891-8.298-12.699 9.528 8.053 14.492zm-8.545-79.479 12.195 28.732 18.563-17.307z" fill="#f7c430" fill-rule="evenodd"/><path clip-rule="evenodd" d="m218.397 333.845-42.885-87.879 25.044-25.787 51.279 30.434 23.048 34.772h.001l-10.648 10.368-10.124-6.048-3.277 2.459-3.301-1.971-12.699 9.528 8.053 14.492zm-13.443-75.553 12.195 28.732 4.861-4.532 1.717 4.045 18.563-17.307-30.758-11.425 1.477 3.479z" fill="#f6da35" fill-rule="evenodd"/><path clip-rule="evenodd" d="m225.5 200.473 55.96 84.425 27.517-20.281-18.215-25.57 13.975-10.579 20.381 27.146 28.584-22.78-63.365-82.031-27.254 18.559 33.739 44.85-15.423 10.787-30.66-42.234z" fill="#f7c430" fill-rule="evenodd"/><path clip-rule="evenodd" d="m225.501 200.473 51.168 77.197 21.345-15.732-11.951-19.307 13.975-10.579-1.008.736 5.707-4.32 15.019 20.003 22.984-18.316-58.23-75.384-21.427 14.591 33.739 44.85-15.423 10.787-4.982-6.863-5.981 4.183-25.672-35.362z" fill="#f6da35" fill-rule="evenodd"/><path clip-rule="evenodd" d="m312.289 134.067 15.096-24.361 34.812 62.283-12.341 15.003zm52.174 64.736c6.271-7.418 16.92-8.726 23.783-2.923 6.864 5.803 7.344 16.521 1.073 23.938-6.271 7.418-16.92 8.726-23.783 2.924-6.864-5.804-7.344-16.521-1.073-23.939z" fill="#c3006b" fill-rule="evenodd"/><path clip-rule="evenodd" d="m312.289 134.067 12.542-20.239 32.372 57.917-9.753 11.857zm64.179 58.28c2.449.506 4.778 1.594 6.784 3.289 6.864 5.803 7.344 16.521 1.073 23.938-3.217 3.805-7.586 6.002-12.005 6.457-2.449-.506-4.778-1.594-6.784-3.29-6.864-5.803-7.344-16.521-1.073-23.938 3.217-3.805 7.586-6.002 12.005-6.456z" fill="#d90077" fill-rule="evenodd"/><path clip-rule="evenodd" d="m76.593 203.39 13.618 2.917 11.374-8.037 1.434 13.853 11.158 8.334-12.732 5.644-4.477 13.187-9.303-10.364-13.925-.183 6.983-12.051z" fill="#f6da35" fill-rule="evenodd"/><path d="m79.001 251.735c1.386-2.871.181-6.322-2.689-7.708-2.871-1.386-6.322-.181-7.708 2.689-.034.07-11.879 24.281-3.904 42.436 1.273 2.921 4.674 4.257 7.595 2.984s4.257-4.674 2.984-7.595c-5.827-13.262 3.695-32.75 3.722-32.806z" fill="#d90077"/><path d="m94.086 254.331c.774-3.096-1.109-6.233-4.204-7.007-3.096-.774-6.233 1.109-7.007 4.204-.015.062-5.571 21.48-.499 32.058 1.373 2.871 4.814 4.086 7.685 2.712 2.871-1.373 4.085-4.814 2.712-7.685-3.218-6.71 1.3-24.231 1.313-24.282z" fill="#d90077"/><path clip-rule="evenodd" d="m381.13 306.424-10.821-8.767-13.78 2.016 4.994-13.001-6.175-12.482 13.907.732 9.963-9.731 3.601 13.454 12.333 6.469-11.681 7.582z" fill="#f6da35" fill-rule="evenodd"/><path d="m400.869 262.232c-2.534 1.935-3.02 5.558-1.085 8.092s5.558 3.02 8.092 1.085c.061-.047 21.584-16.267 22.695-36.09.175-3.183-2.264-5.906-5.448-6.08-3.183-.175-5.906 2.264-6.081 5.448-.808 14.439-18.123 27.507-18.173 27.545z" fill="#d90077"/><path d="m388.623 253.074c-2.097 2.397-1.854 6.04.543 8.137 2.396 2.097 6.04 1.854 8.137-.542.042-.048 14.72-16.667 14.988-28.392.062-3.183-2.468-5.815-5.651-5.877s-5.815 2.468-5.877 5.651c-.17 7.446-12.106 20.985-12.14 21.023z" fill="#d90077"/><g clip-rule="evenodd" fill-rule="evenodd"><path d="m211.569 359.017c1.879 0 3.41-1.532 3.41-3.411 0-1.878-1.532-3.41-3.41-3.41-1.879 0-3.411 1.532-3.411 3.41s1.532 3.411 3.411 3.411z" fill="#374db3"/><path d="m225.455 349.637c1.879 0 3.41-1.532 3.41-3.411 0-1.878-1.532-3.41-3.41-3.41s-3.411 1.532-3.411 3.41c0 1.879 1.532 3.411 3.411 3.411z" fill="#374db3"/><path d="m228.134 367.056c1.879 0 3.411-1.532 3.411-3.411s-1.532-3.41-3.411-3.41c-1.878 0-3.411 1.532-3.411 3.41s1.533 3.411 3.411 3.411z" fill="#374db3"/><path d="m240.918 339.713c1.878 0 3.411-1.532 3.411-3.411s-1.532-3.41-3.411-3.41-3.411 1.532-3.411 3.41c.001 1.879 1.533 3.411 3.411 3.411z" fill="#374db3"/><path d="m243.794 360.686c1.878 0 3.41-1.532 3.41-3.411s-1.532-3.41-3.41-3.41c-1.879 0-3.411 1.532-3.411 3.41s1.532 3.411 3.411 3.411z" fill="#374db3"/><path d="m254.925 331.672c1.879 0 3.411-1.532 3.411-3.411s-1.532-3.411-3.411-3.411c-1.878 0-3.41 1.532-3.41 3.411s1.531 3.411 3.41 3.411z" fill="#374db3"/><path d="m280.436 350.163c1.878 0 3.411-1.532 3.411-3.411s-1.532-3.41-3.411-3.41-3.41 1.532-3.41 3.41c0 1.879 1.531 3.411 3.41 3.411z" fill="#374db3"/><path d="m279.604 330.355c1.879 0 3.411-1.532 3.411-3.411s-1.532-3.41-3.411-3.41c-1.878 0-3.41 1.532-3.41 3.41 0 1.879 1.532 3.411 3.41 3.411z" fill="#374db3"/><path d="m260.07 348.645c1.879 0 3.411-1.532 3.411-3.411 0-1.878-1.532-3.41-3.411-3.41-1.878 0-3.411 1.532-3.411 3.41 0 1.879 1.532 3.411 3.411 3.411z" fill="#374db3"/><path d="m270.889 312.363c1.879 0 3.411-1.532 3.411-3.411s-1.532-3.41-3.411-3.41c-1.878 0-3.41 1.532-3.41 3.41-.001 1.879 1.531 3.411 3.41 3.411z" fill="#374db3"/><path d="m298.905 331.608c1.878 0 3.411-1.532 3.411-3.411 0-1.878-1.532-3.41-3.411-3.41s-3.411 1.532-3.411 3.41c0 1.879 1.532 3.411 3.411 3.411z" fill="#374db3"/><path d="m290.622 297.989c1.879 0 3.411-1.532 3.411-3.411 0-1.878-1.532-3.41-3.411-3.41s-3.411 1.532-3.411 3.41c0 1.879 1.532 3.411 3.411 3.411z" fill="#374db3"/><path d="m324.728 295.066c1.878 0 3.411-1.532 3.411-3.411 0-1.878-1.532-3.41-3.411-3.41s-3.41 1.532-3.41 3.41c-.001 1.879 1.531 3.411 3.41 3.411z" fill="#374db3"/><path d="m311.085 312.607c1.879 0 3.411-1.532 3.411-3.411 0-1.878-1.532-3.411-3.411-3.411s-3.41 1.532-3.41 3.411c0 1.878 1.531 3.411 3.41 3.411z" fill="#374db3"/><path d="m313.521 277.526c1.879 0 3.411-1.532 3.411-3.411 0-1.878-1.532-3.41-3.411-3.41s-3.41 1.532-3.41 3.41 1.532 3.411 3.41 3.411z" fill="#374db3"/><path d="m345.435 256.331c1.878 0 3.411-1.532 3.411-3.411s-1.532-3.41-3.411-3.41-3.41 1.532-3.41 3.41c0 1.879 1.531 3.411 3.41 3.411z" fill="#374db3"/><path d="m321.682 241.532c1.878 0 3.411-1.532 3.411-3.411s-1.532-3.411-3.411-3.411-3.411 1.532-3.411 3.411c0 1.878 1.533 3.411 3.411 3.411z" fill="#f7c430"/><path d="m327.894 226.305c1.879 0 3.411-1.532 3.411-3.41 0-1.879-1.532-3.411-3.411-3.411s-3.41 1.532-3.41 3.411c0 1.878 1.532 3.41 3.41 3.41z" fill="#f7c430"/><path d="m314.861 226.549c1.879 0 3.411-1.532 3.411-3.41 0-1.879-1.532-3.411-3.411-3.411-1.878 0-3.41 1.532-3.41 3.411-.001 1.878 1.531 3.41 3.41 3.41z" fill="#f7c430"/><path d="m316.2 214.49c1.879 0 3.411-1.532 3.411-3.41 0-1.879-1.532-3.411-3.411-3.411-1.878 0-3.41 1.532-3.41 3.411 0 1.878 1.532 3.41 3.41 3.41z" fill="#f7c430"/><path d="m279.048 268.816c1.879 0 3.411-1.532 3.411-3.411s-1.532-3.411-3.411-3.411-3.41 1.532-3.41 3.411 1.532 3.411 3.41 3.411z" fill="#f7c430"/><path d="m286.6 261.995c1.879 0 3.411-1.532 3.411-3.411 0-1.878-1.532-3.41-3.411-3.41s-3.411 1.532-3.411 3.41c.001 1.879 1.533 3.411 3.411 3.411z" fill="#f7c430"/><path d="m271.983 254.686c1.879 0 3.411-1.532 3.411-3.411s-1.532-3.41-3.411-3.41-3.41 1.532-3.41 3.41 1.532 3.411 3.41 3.411z" fill="#f7c430"/><path d="m262.97 286.6c1.879 0 3.411-1.532 3.411-3.411s-1.532-3.41-3.411-3.41-3.411 1.532-3.411 3.41 1.532 3.411 3.411 3.411z" fill="#f7c430"/><path d="m256.879 273.932c1.879 0 3.411-1.532 3.411-3.411 0-1.878-1.532-3.411-3.411-3.411-1.878 0-3.411 1.532-3.411 3.411.001 1.879 1.533 3.411 3.411 3.411z" fill="#f7c430"/><path d="m246.647 284.651c1.878 0 3.411-1.532 3.411-3.411s-1.532-3.41-3.411-3.41c-1.878 0-3.41 1.532-3.41 3.41 0 1.879 1.532 3.411 3.41 3.411z" fill="#f7c430"/><path d="m233.491 317.052c1.879 0 3.41-1.532 3.41-3.411s-1.532-3.41-3.41-3.41c-1.879 0-3.411 1.532-3.411 3.41s1.532 3.411 3.411 3.411z" fill="#f7c430"/><path d="m219.605 311.692c1.878 0 3.41-1.532 3.41-3.411s-1.532-3.41-3.41-3.41c-1.879 0-3.411 1.532-3.411 3.41 0 1.879 1.532 3.411 3.411 3.411z" fill="#f7c430"/><path d="m220.579 325.335c1.879 0 3.41-1.532 3.41-3.411s-1.532-3.411-3.41-3.411c-1.879 0-3.411 1.532-3.411 3.411.001 1.879 1.533 3.411 3.411 3.411z" fill="#f7c430"/><path d="m204.014 335.81c1.878 0 3.41-1.532 3.41-3.411s-1.532-3.41-3.41-3.41c-1.879 0-3.411 1.532-3.411 3.41 0 1.879 1.532 3.411 3.411 3.411z" fill="#f7c430"/><path d="m189.335 335.628c1.879 0 3.41-1.532 3.41-3.411s-1.532-3.41-3.41-3.41-3.411 1.532-3.411 3.41 1.532 3.411 3.411 3.411z" fill="#f7c430"/><path d="m182.088 349.453c1.878 0 3.41-1.532 3.41-3.411s-1.532-3.41-3.41-3.41c-1.879 0-3.411 1.532-3.411 3.41.001 1.879 1.533 3.411 3.411 3.411z" fill="#f7c430"/><path d="m168.201 365.227c1.879 0 3.411-1.532 3.411-3.411s-1.532-3.41-3.411-3.41c-1.878 0-3.411 1.532-3.411 3.41 0 1.879 1.532 3.411 3.411 3.411z" fill="#f7c430"/><path d="m152.731 354.63c1.879 0 3.41-1.532 3.41-3.411s-1.532-3.411-3.41-3.411-3.411 1.532-3.411 3.411 1.533 3.411 3.411 3.411z" fill="#f7c430"/><path d="m159.674 372.292c1.879 0 3.41-1.532 3.41-3.411s-1.532-3.411-3.41-3.411-3.411 1.532-3.411 3.411 1.533 3.411 3.411 3.411z" fill="#f7c430"/></g></g></g></svg>