<svg viewBox="0 0 64 64" xmlns="http://www.w3.org/2000/svg"><g><g><path d="M55.859 59.957h-1.12l-45.323.011a5.36 5.36 0 0 1-5.387-4.726 5.201 5.201 0 0 1 6.574-5.555c.063 0 .67.245.728.27l.011.01a5.317 5.317 0 0 1 1.378.93.1.1 0 0 0 .168-.09c-.536-3.303 2.453-5.409 3.707-5.409a4.649 4.649 0 0 1 2.643.269 4.476 4.476 0 0 1 .57.28c.057.022.135 0 .146-.056a8.28 8.28 0 0 1 7.157-5.768 6.07 6.07 0 0 1 .75-.045 8.313 8.313 0 0 1 8.142 6.888 6.083 6.083 0 0 1 .1.627.097.097 0 0 0 .169.056 4.117 4.117 0 0 1 6.562.806 3.293 3.293 0 0 1 .359.75.1.1 0 0 0 .179.034 6.198 6.198 0 0 1 4.58-2.844h.023a6.224 6.224 0 0 1 6.753 5.185c0 .022.011.034.011.056a.092.092 0 0 0 .112.079c.146-.034.302-.068.46-.09a4.387 4.387 0 0 1 1.209.022 4.185 4.185 0 0 1-.661 8.31z" fill="#00c4d4"></path><path d="M12.72 50.897a.1.1 0 0 0 .168-.09 4.677 4.677 0 0 1 6.92-4.86c.057.022.135 0 .146-.056a7.74 7.74 0 0 1 7.157-5.768.142.142 0 0 1 .067-.011 7.67 7.67 0 0 1 7.806 7.47c.065.972 1.232.123 1.288.067a4.05 4.05 0 0 1 2.441-1.243 4.205 4.205 0 0 1 3.36 2.8c.256.695 1.114.31 1.299.033a6.198 6.198 0 0 1 4.58-2.844h.023a6.122 6.122 0 0 1 5.566 4.804.55.55 0 0 0 .638.426 4.035 4.035 0 0 1 4.67 3.64c.031 2.243-1.657 3.572-4.11 3.572l-45.323.011c-2.71 0-5.13-.884-5.387-3.606a5.185 5.185 0 0 1 8.69-4.345z" fill="#a1e2de"></path><path d="M22.23 44.434a5.7 5.7 0 0 1 2.808-2.362 1 1 0 0 1 .697 1.875 3.685 3.685 0 0 0-1.766 1.477 1 1 0 0 1-1.739-.99zM29.19 42a1 1 0 1 1-1-1 1 1 0 0 1 1 1z" fill="#ffffff"></path><g fill="#ffb433"><path d="M31 8.58V5.022a1 1 0 0 1 2 0V8.58a1 1 0 0 1-2 0zM25.04 10.738l-1.16-2.052a1 1 0 0 1 1.74-.985l1.16 2.053a1 1 0 0 1-1.74.984zM19.82 22.023H17.5a1 1 0 0 1 0-2h2.32a1 1 0 0 1 0 2zM23.88 33.361l1.16-2.052a1 1 0 0 1 1.74.984l-1.16 2.053a1 1 0 0 1-1.74-.985zM38.38 34.346l-1.16-2.053a1 1 0 0 1 1.74-.984l1.16 2.052a1 1 0 0 1-1.74.985zM46.5 22.023h-2.32a1 1 0 0 1 0-2h2.32a1 1 0 0 1 0 2zM37.22 9.754 38.38 7.7a1 1 0 0 1 1.74.985l-1.16 2.052a1 1 0 0 1-1.74-.984zM20.944 15.662l-3.013-1.777a1 1 0 0 1 1.015-1.723l3.014 1.777a1 1 0 0 1-1.016 1.723zM17.93 28.162l3.014-1.777a1 1 0 0 1 1.016 1.722l-3.014 1.778a1 1 0 0 1-1.015-1.723zM31 37.023v-3.555a1 1 0 0 1 2 0v3.555a1 1 0 0 1-2 0zM45.054 29.885l-3.014-1.778a1 1 0 0 1 1.016-1.722l3.013 1.777a1 1 0 0 1-1.015 1.723zM42.04 13.94l3.014-1.778a1 1 0 0 1 1.015 1.723l-3.013 1.777a1 1 0 0 1-1.016-1.723zM38.745 14.333a.053.053 0 0 0-.027-.027 9.47 9.47 0 1 0 .027.027z" fill="#ffb433"></path></g><path d="M38.718 14.306a9.5 9.5 0 0 0-13.782 13.069c4.956 4.244 15.377.838 15.377-7.709 0-2.908-1.176-5.15-1.595-5.36z" fill="#fddb3a"></path></g></g></svg>