<svg viewBox="0 0 682.667 682.667" xmlns="http://www.w3.org/2000/svg"><g><defs><clippath clippathunits="userSpaceOnUse" id="a"><path d="M0 512h512V0H0Z" fill="#000000"></path></clippath></defs><g clip-path="url(#a)" transform="matrix(1.33333 0 0 -1.33333 0 682.667)"><path d="M0 0c-221.19 75.589-72.046 166.142 3.02 201.853 1.025.488.676 2.023-.459 2.023h-53.55c-8.47 0-16.838-1.959-24.582-5.745-85.039-41.565-256.503-142.695-117.98-227.509 158.851-97.262-11.45-224.268-100.576-278.746H55.351C102.087-241.415 198.924-67.98 0 0" fill="#665e68" transform="translate(347.287 308.123)"></path><path d="M0 0h76.776c91.569 63.118 231.714 188.068 82.87 285.188-124.239 81.065.873 176.114 89.349 226.812h-5.857c-8.47 0-16.838-1.96-24.582-5.745-85.039-41.566-256.503-142.695-117.98-227.509C259.427 181.484 89.125 54.478 0 0" fill="#554e56" transform="translate(53.16)"></path><path d="M0 0a7.733 7.733 0 0 0-4.247 14.199c3.418 2.242 5.57 3.471 5.659 3.522A7.732 7.732 0 0 0 9.071 4.287c-.051-.03-1.892-1.088-4.838-3.019A7.69 7.69 0 0 0 0 0" fill="#dfebfa" transform="translate(217.804 440.661)"></path><path d="M0 0a7.732 7.732 0 0 0-5.667 12.991 290.311 290.311 0 0 1 8.161 9.173 7.73 7.73 0 0 0 10.9.872 7.732 7.732 0 0 0 .873-10.9A308.257 308.257 0 0 0 5.67 2.473 7.709 7.709 0 0 0 0 0" fill="#dfebfa" transform="translate(291.42 70.065)"></path><path d="M0 0a7.732 7.732 0 0 0-6.696 11.587 160.632 160.632 0 0 1 5.603 10.631 7.732 7.732 0 1 0 13.95-6.675A175.308 175.308 0 0 0 6.71 3.88 7.73 7.73 0 0 0 0 0" fill="#dfebfa" transform="translate(324.19 113.61)"></path><path d="M0 0a7.733 7.733 0 0 0-7.717 8.344c.166 2.084.249 4.178.249 6.224a74.21 74.21 0 0 1-.18 5.204 7.732 7.732 0 1 0 15.426 1.082c.146-2.074.22-4.189.219-6.288 0-2.45-.1-4.955-.298-7.444A7.733 7.733 0 0 0 0 0" fill="#dfebfa" transform="translate(341.594 164.887)"></path><path d="M0 0a7.726 7.726 0 0 0-6.457 3.468 93.563 93.563 0 0 1-7.016 9.258A7.733 7.733 0 0 0-1.735 22.795a108.924 108.924 0 0 0 8.177-10.796A7.732 7.732 0 0 0 4.258 1.284 7.692 7.692 0 0 0 0 0" fill="#dfebfa" transform="translate(328.086 216.674)"></path><path d="M0 0a7.691 7.691 0 0 0-4.183 1.235 210.504 210.504 0 0 1-10.396 6.272 7.733 7.733 0 0 0 7.611 13.462 225.62 225.62 0 0 0 11.166-6.738A7.732 7.732 0 0 0 0 0" fill="#dfebfa" transform="translate(288.564 253.738)"></path><path d="M0 0a7.694 7.694 0 0 0-3.489.837 334.942 334.942 0 0 0-11.386 6.041 7.732 7.732 0 0 0-2.999 10.516 7.73 7.73 0 0 0 10.516 2.999 320.317 320.317 0 0 1 10.86-5.762A7.732 7.732 0 0 0 0 0" fill="#dfebfa" transform="translate(240.155 278.82)"></path><path d="M0 0a7.7 7.7 0 0 0-5.012 1.848 140.262 140.262 0 0 0-9.733 9.097 7.731 7.731 0 0 0 .174 10.933 7.732 7.732 0 0 0 10.933-.173 124.964 124.964 0 0 1 8.657-8.088A7.73 7.73 0 0 0 0 0" fill="#dfebfa" transform="translate(194.336 308.216)"></path><path d="M0 0a7.735 7.735 0 0 0-7.558 6.138 61.494 61.494 0 0 0-1.304 14.315c.116 4.269 3.683 7.617 7.94 7.518a7.732 7.732 0 0 0 7.518-7.941 46.018 46.018 0 0 1 .977-10.7A7.732 7.732 0 0 0 0 0" fill="#dfebfa" transform="translate(164.402 352.644)"></path><path d="M0 0a7.732 7.732 0 0 0-6.256 12.268 125.634 125.634 0 0 0 8.464 10.417 7.733 7.733 0 0 0 11.48-10.362 110.09 110.09 0 0 1-7.419-9.125A7.72 7.72 0 0 0 0 0" fill="#dfebfa" transform="translate(177.874 403.838)"></path><path d="M0 0a7.732 7.732 0 0 0-4.68 13.893c.014.01 1.714 1.304 4.57 3.666A7.732 7.732 0 0 0 9.746 5.642C6.612 3.051 4.747 1.633 4.669 1.573A7.704 7.704 0 0 0 0 0" fill="#dfebfa" transform="translate(256.005 37.213)"></path><path d="M0 0c-210.789 65.146-89.169 139.331-11.125 177.542 3.646 1.786 2.485 7.795-1.503 7.795h-2.901c-73.415-34.202-232.815-126.815-7.318-203.876 198.924-67.98 102.088-241.415 55.351-308.124h39.609c9.916 0 19.026 6.014 23.711 15.66C140.728-218.547 182.635-56.445 0 0" fill="#ffd301" transform="translate(364.982 326.663)"></path><path d="M0 0c-102.413 62.705-37.443 134.329 38.827 184.208-85.326-47.85-183.182-126.492-68.475-196.725 134.351-82.26-6.581-185.796-109.257-248.736-7.629-4.676-4.608-17.493 4.118-17.493h34.212C-11.45-224.268 158.851-97.262 0 0" fill="#ffc20c" transform="translate(155.795 278.746)"></path></g></g></svg>