<svg viewBox="0 0 512 512" xmlns="http://www.w3.org/2000/svg"><g><path d="M41.29 79.828 9.312 69.169C4.731 67.641 0 71.051 0 75.881a33.032 33.032 0 0 0 21.843 31.079l19.447 7.001 8.258-14.864zM470.71 79.828l31.978-10.659c4.581-1.527 9.312 1.883 9.312 6.712a33.032 33.032 0 0 1-21.843 31.079l-19.447 7.001-8.258-14.864z" fill="#ffdd99"></path><path d="M305.548 90.839V57.806c0-27.365-22.183-49.548-49.548-49.548l-21.311 20.149-13.466 85.554h100.842v-6.606c-9.122 0-16.517-7.395-16.517-16.516z" fill="#df976c"></path><path d="M206.452 57.806v33.032c0 9.121-7.395 16.516-16.516 16.516v6.606H256V8.258c-27.365 0-49.548 22.184-49.548 49.548z" fill="#d18964"></path><path d="M243.613 74.323h24.774v41.29h-24.774z" fill="#ffce8a"></path><path d="m470.71 79.828-73.683 24.561a57.787 57.787 0 0 1-18.278 2.966h-56.684l-29.385 28.564-28.421-28.564H133.252a57.82 57.82 0 0 1-18.278-2.966L41.29 79.828v34.801l9.808 14.661 144.061 61.705v205.392h96.434l30.471-187.46a16.517 16.517 0 0 1 9.808-15.093l129.029-57.346a16.517 16.517 0 0 0 9.808-15.093V79.828z" fill="#f8f1d8"></path><path d="M186.839 178.734 41.29 114.629v6.767a16.515 16.515 0 0 0 9.808 15.092l129.028 57.346a16.516 16.516 0 0 1 9.808 15.093v187.46h16.516v-187.46c.002-13.032-7.692-24.879-19.611-30.193z" fill="#f5e8c9"></path><path d="M256 86.71c-11.402 0-20.645-9.243-20.645-20.645v-8.258c0-11.402 9.243-20.645 20.645-20.645s20.645 9.243 20.645 20.645v8.258c0 11.402-9.243 20.645-20.645 20.645z" fill="#ffdd99"></path><path d="m264.258 107.355-57.806 297.29 115.613-24.774V107.355z" fill="#ff7e8f"></path><path d="M251.444 353.444a8.37 8.37 0 0 1-1.605-.153 8.266 8.266 0 0 1-6.508-9.702l33.903-171.766c.887-4.476 5.234-7.387 9.702-6.508a8.266 8.266 0 0 1 6.508 9.702L259.54 346.782a8.27 8.27 0 0 1-8.096 6.662z" fill="#fc5f7a"></path><path d="M375.822 388.342c-8.04-19.505-27.221-33.245-49.628-33.245a53.432 53.432 0 0 0-21.513 4.517c-16.512-22.719-43.221-37.549-73.455-37.549-35.318 0-65.856 20.198-80.884 49.634-.57-.015-1.124-.086-1.697-.086a65.921 65.921 0 0 0-23.239 4.203c-25.021 9.404-33.632 45.496-33.632 61.862 0 36.486 20.384 58.566 56.87 58.566h222.968l40.455-9.017c10.708-10.492 17.351-25.116 17.351-41.291.001-30.506-23.643-55.431-53.596-57.594z" fill="#e0f2ff"></path><path d="M173.419 487.226c-36.486 0-66.065-29.578-66.065-66.065 0-17.539 6.895-33.528 18.052-45.345-24.991 9.42-42.826 33.576-42.826 61.862 0 36.486 29.578 66.065 66.065 66.065h222.968c15.74 0 30.03-6.31 40.454-16.516l-238.648-.001z" fill="#ceeaff"></path></g></svg>