<svg viewBox="0 0 512 512" xmlns="http://www.w3.org/2000/svg"><g><path d="M0 217.487c0 113.151 92.055 205.206 205.206 205.206l31.393-203.882-31.393-206.53C92.055 12.281 0 104.336 0 217.487z" fill="#fff161"></path><path d="M205.206 12.281v410.412c113.151 0 205.206-92.055 205.206-205.206S318.357 12.281 205.206 12.281z" fill="#fadf00"></path><path d="M102.789 221.846v15.019c0 55.668 45.29 100.958 100.959 100.958.488 0 .973-.011 1.458-.019l21.05-56.38-21.05-59.579H102.789z" fill="#fd5e81"></path><path d="M304.706 236.865v-15.019h-99.5v115.958c54.998-.784 99.5-45.759 99.5-100.939z" fill="#e4336d"></path><path d="M290.415 388.926c0 61.091 49.701 110.792 110.792 110.792l16.949-110.078-16.949-111.507c-61.091.001-110.792 49.702-110.792 110.793z" fill="#aae392"></path><path d="M401.208 278.134v221.585c61.091 0 110.792-49.701 110.792-110.792 0-61.092-49.701-110.793-110.792-110.793z" fill="#71c6a1"></path><path d="m388.969 389.23-18.049-18.049-21.213 21.213 39.262 39.263 12.239-12.239 6.014-27.348-6.014-15.079z" fill="#edf6ff"></path><path d="m436.913 341.286-35.705 35.705v42.427l56.918-56.919z" fill="#d7e9fe"></path><path d="M144.74 123.709h30.038v60.62H144.74z" fill="#445f80"></path><path d="M232.717 123.709h30.038v60.62h-30.038z" fill="#2a2b4c"></path></g></svg>