<svg viewBox="0 0 511.992 511.992" xmlns="http://www.w3.org/2000/svg"><g><path d="M362.65 511.992c-5.89 0-10.655-4.781-10.655-10.656v-21.344a10.649 10.649 0 0 1 10.655-10.656c5.891 0 10.672 4.766 10.672 10.656v21.344c0 5.875-4.781 10.656-10.672 10.656zM501.32 511.992c-5.891 0-10.672-4.781-10.672-10.656v-21.344c0-5.891 4.781-10.656 10.672-10.656s10.671 4.766 10.671 10.656v21.344c0 5.875-4.78 10.656-10.671 10.656z" fill="#434a54"></path><path d="M490.648 426.65H373.322c-5.891 0-10.672-4.766-10.672-10.656s4.781-10.656 10.672-10.656h117.326c5.891 0 10.672 4.766 10.672 10.656s-4.781 10.656-10.672 10.656zM490.648 341.34H373.322c-5.891 0-10.672-4.781-10.672-10.688 0-5.875 4.781-10.656 10.672-10.656h117.326c5.891 0 10.672 4.781 10.672 10.656 0 5.906-4.781 10.688-10.672 10.688zM490.648 255.996H373.322c-5.891 0-10.672-4.773-10.672-10.664s4.781-10.672 10.672-10.672h117.326c5.891 0 10.672 4.781 10.672 10.672s-4.781 10.664-10.672 10.664zM490.648 170.662H373.322c-5.891 0-10.672-4.773-10.672-10.664s4.781-10.664 10.672-10.664h117.326c5.891 0 10.672 4.773 10.672 10.664s-4.781 10.664-10.672 10.664zM490.648 85.335H373.322c-5.891 0-10.672-4.781-10.672-10.672s4.781-10.664 10.672-10.664h117.326c5.891 0 10.672 4.773 10.672 10.664s-4.781 10.672-10.672 10.672zM32 511.992c-5.891 0-10.672-4.781-10.672-10.656v-21.344c0-5.891 4.781-10.656 10.672-10.656s10.656 4.766 10.656 10.656v21.344c0 5.875-4.765 10.656-10.656 10.656zM309.324 511.992c-5.891 0-10.672-4.781-10.672-10.656v-21.344c0-5.891 4.781-10.656 10.672-10.656s10.672 4.765 10.672 10.656v21.344c0 5.875-4.781 10.656-10.672 10.656z" fill="#7f4545"></path><path d="M12.657 10.664h319.99v469.33H12.657z" fill="#7f4545"></path><path d="M127.996 266.656h85.33v42.68h-85.33z" fill="#48cfad"></path><path d="M127.996 31.996h42.655v85.33h-42.655z" fill="#ffce54"></path><path d="M330.651 0H10.657C4.766 0 .001 4.773.001 10.664v469.328a10.65 10.65 0 0 0 10.656 10.656h319.994c5.891 0 10.672-4.766 10.672-10.656V10.664c0-5.89-4.781-10.664-10.672-10.664zM21.328 138.662h298.668v95.999H21.328v-95.999zm0 117.334h298.668v95.998H21.328v-95.998zm298.668-234.66v95.998H21.328V21.336h298.668zm-298.668 448v-95.998h298.668v95.998H21.328z" fill="#965353"></path><path d="M255.996 266.656h42.656v85.33h-42.656z" fill="#48cfad"></path><path d="M213.326 266.656h42.671v85.33h-42.671zM85.326 149.336h42.671v85.33H85.326z" fill="#ed5564"></path><path d="M127.996 149.336h42.655v85.33h-42.655z" fill="#5d9cec"></path><path d="M170.656 149.336h42.671v85.33h-42.671z" fill="#a0d468"></path><path d="M255.996 31.996h42.656v85.33h-42.656z" fill="#ac92eb"></path><path d="M42.656 74.666h85.34v42.671h-85.34z" fill="#a0d468"></path><path d="M42.656 32.735h85.34v42.663h-85.34z" fill="#ed5564"></path><path d="M94.656 149.336h24v85.33h-24zM265.326 31.996h24v85.33h-24zM137.326 31.996h24v85.33h-24z" fill="#e6e9ed"></path><path d="M42.656 426.646h85.34v42.686h-85.34z" fill="#ed5564"></path><path d="M42.656 435.996h85.34v23.998h-85.34zM127.996 275.996h85.33v24h-85.33zM42.656 83.996h85.34v24h-85.34z" fill="#e6e9ed"></path><path d="M213.326 31.996h42.671v85.33h-42.671z" fill="#5d9cec"></path><path d="M170.656 31.996h42.671v85.33h-42.671z" fill="#ed5564"></path><path d="M42.656 149.336h42.672v85.33H42.656z" fill="#48cfad"></path><path d="M213.326 191.996h85.33v42.663h-85.33z" fill="#ffce54"></path><path d="M213.326 149.336h85.33V192h-85.33z" fill="#ed5564"></path><path d="M42.656 266.656h42.672v85.33H42.656z" fill="#ffce54"></path><path d="M85.326 266.656h42.671v85.33H85.326z" fill="#ac92eb"></path><path d="M127.996 309.336h85.33v42.654h-85.33z" fill="#a0d468"></path><path d="M255.996 383.996h42.656v85.34h-42.656z" fill="#ffce54"></path><path d="M127.996 383.996h42.655v85.34h-42.655z" fill="#5d9cec"></path><path d="M170.656 383.996h42.671v85.34h-42.671z" fill="#ac92eb"></path><path d="M213.326 383.996h42.671v85.34h-42.671z" fill="#48cfad"></path><path d="M42.656 383.996h85.34v42.656h-85.34z" fill="#a0d468"></path><path d="M373.322 511.992c-5.891 0-10.672-4.781-10.672-10.656V10.664C362.65 4.773 367.431 0 373.322 0c5.89 0 10.671 4.773 10.671 10.664v490.672c0 5.875-4.781 10.656-10.671 10.656zM490.648 511.992c-5.891 0-10.656-4.781-10.656-10.656V10.664C479.992 4.773 484.758 0 490.648 0s10.672 4.773 10.672 10.664v490.672c0 5.875-4.781 10.656-10.672 10.656z" fill="#965353"></path><path d="M213.326 158.666h85.33v24h-85.33zM127.996 318.656h85.33v23.998h-85.33zM51.996 266.656h24v85.33h-24zM179.996 383.996h23.999v85.34h-23.999zM222.656 383.996h23.999v85.34h-23.999zM265.326 383.996h24v85.34h-24z" fill="#e6e9ed"></path></g></svg>