<svg height="512" viewBox="0 0 512 512" width="512" xmlns="http://www.w3.org/2000/svg"><g id="Flat"><path d="m336 272 104 176-56-8-32 48-104-176z" fill="#de5540"/><path d="m176 272-104 176 56-8 32 48 104-176z" fill="#de5540"/><path d="m286.426 65.406a53.913 53.913 0 0 0 34.521 9.25 53.913 53.913 0 0 1 52.7 30.426 53.908 53.908 0 0 0 25.271 25.271 53.913 53.913 0 0 1 30.426 52.7 53.913 53.913 0 0 0 9.25 34.521 53.914 53.914 0 0 1 0 60.852 53.913 53.913 0 0 0 -9.25 34.521 53.913 53.913 0 0 1 -30.426 52.7 53.908 53.908 0 0 0 -25.271 25.271 53.913 53.913 0 0 1 -52.7 30.426 53.913 53.913 0 0 0 -34.521 9.25 53.914 53.914 0 0 1 -60.852 0 53.913 53.913 0 0 0 -34.521-9.25 53.913 53.913 0 0 1 -52.7-30.426 53.908 53.908 0 0 0 -25.271-25.271 53.913 53.913 0 0 1 -30.426-52.7 53.913 53.913 0 0 0 -9.25-34.521 53.914 53.914 0 0 1 0-60.852 53.913 53.913 0 0 0 9.25-34.521 53.913 53.913 0 0 1 30.426-52.7 53.908 53.908 0 0 0 25.271-25.271 53.913 53.913 0 0 1 52.7-30.426 53.913 53.913 0 0 0 34.521-9.25 53.914 53.914 0 0 1 60.852 0z" fill="#ffb431"/><circle cx="256" cy="248" fill="#f99e0c" r="144"/><path d="m160 199.677h72.259v112.323h-72.259z" fill="#426887"/><path d="m288.533 200.242 9.717-30.308a17.642 17.642 0 0 0 -12.521-22.5 17.642 17.642 0 0 0 -20.058 9.226l-9.671 19.34-23.741 24v112h87.741a24 24 0 0 0 24-24v-48l5.956-11.913a19.354 19.354 0 0 0 2.044-8.656 19.356 19.356 0 0 0 -19.43-19.357z" fill="#fdc8a2"/><path d="m196 264a12 12 0 1 0 12 12 12.013 12.013 0 0 0 -12-12z" fill="#2d475c"/><g fill="#fade8d"><path d="m16 248h24v16h-24z"/><path d="m66 31.574h16v84.853h-16z" transform="matrix(.707 -.707 .707 .707 -30.652 74)"/><path d="m16 12.686h16v22.627h-16z" transform="matrix(.707 -.707 .707 .707 -9.941 24)"/><path d="m32 136.243h16v52.313h-16z" transform="matrix(.398 -.918 .918 .398 -124.915 134.531)"/><path d="m13.515 340.8h52.969v16h-52.969z" transform="matrix(.906 -.423 .423 .906 -143.74 49.633)"/><path d="m7.716 468h56.569v16h-56.569z" transform="matrix(.707 -.707 .707 .707 -326.052 164.889)"/><path d="m248 464h16v32h-16z"/><path d="m248 16h16v16h-16z"/><path d="m152 14.341h16.001v40.24h-16.001z" transform="matrix(.918 -.398 .398 .918 -.511 66.459)"/><path d="m472 248h24v16h-24z"/><path d="m395.574 66h84.853v16h-84.853z" transform="matrix(.707 -.707 .707 .707 75.961 331.387)"/><path d="m476.686 16h22.627v16h-22.627z" transform="matrix(.707 -.707 .707 .707 125.975 352.113)"/><path d="m445.844 154.4h52.313v16h-52.313z" transform="matrix(.918 -.398 .398 .918 -25.658 201.058)"/><path d="m464 322.315h16v52.969h-16z" transform="matrix(.423 -.906 .906 .423 -43.678 629.017)"/><path d="m468 447.716h16v56.569h-16z" transform="matrix(.707 -.707 .707 .707 -197.166 476)"/><path d="m331.88 26.461h40.24v16.001h-40.24z" transform="matrix(.398 -.918 .918 .398 180.435 343.746)"/></g></g></svg>