<svg viewBox="0 0 497 497" xmlns="http://www.w3.org/2000/svg"><g><path d="M435.996 31.022h21.953v436.622h-21.953z" fill="#b3adb5"></path><path d="M470.949 31.02V199.8l-10 44.048 10 53.352v170.44h-17V31.02z" fill="#a59ba6"></path><path d="M355.463 467.644h-21.954v-168.8l10-50.344-10-50.187V31.022h21.954z" fill="#b3adb5"></path><path d="M351.462 31.02h17v436.62h-17z" fill="#a59ba6"></path><path d="M231.023 31.022h21.953v436.622h-21.953z" fill="#b3adb5"></path><path d="M248.976 31.02h17v436.62h-17z" fill="#a59ba6"></path><path d="M128.536 31.022h21.953v436.622h-21.953z" fill="#b3adb5"></path><path d="M146.489 31.02h17v436.62h-17z" fill="#a59ba6"></path><path d="M48.003 467.644H26.049V265.977l10-14.833-10-20.121V31.022h21.954z" fill="#b3adb5"></path><path d="M44.002 31.02h17v436.62h-17z" fill="#a59ba6"></path><path d="M26.049 265.977v-34.954h277.46l37.44 10v14.954l-37.44 10z" fill="#f7f7f7"></path><path d="M466.667 47.62H10.331c-5.523 0-10-4.477-10-10V10c0-5.523 4.477-10 10-10h456.336c5.523 0 10 4.477 10 10v27.62c0 5.523-4.477 10-10 10z" fill="#6f6571"></path><path d="M496.669 10v27.62c0 5.52-4.48 10-10 10h-30c5.52 0 10-4.48 10-10V10c0-5.52-4.48-10-10-10h30c5.52 0 10 4.48 10 10z" fill="#5d5360"></path><path d="M466.667 497H10.331c-5.523 0-10-4.477-10-10v-27.62c0-5.523 4.477-10 10-10h456.336c5.523 0 10 4.477 10 10V487c0 5.523-4.477 10-10 10z" fill="#6f6571"></path><path d="M496.669 459.38V487c0 5.52-4.48 10-10 10h-30c5.52 0 10-4.48 10-10v-27.62c0-5.52-4.48-10-10-10h30c5.52 0 10 4.48 10 10z" fill="#5d5360"></path><path d="M343.509 265.977h-40v-34.954h30z" fill="#e9e9e9"></path><path d="M440.949 307.196h-97.44c-5.523 0-10-4.477-10-10v-97.392c0-5.523 4.477-10 10-10h97.44c5.523 0 10 4.477 10 10v97.392c0 5.523-4.477 10-10 10z" fill="#ffe187"></path><path d="M470.949 199.8v97.4c0 5.52-4.48 10-10 10h-30c5.52 0 10-4.48 10-10v-97.4c0-5.52-4.48-10-10-10h30c5.52 0 10 4.48 10 10z" fill="#ffd26f"></path><path d="M414.787 237.442c0-12.933-.885-22.324-13.993-21.513-2.502.155-4.901-.271-7.125.652-7.762 3.22-13.407 10.687-13.951 19.418a22.488 22.488 0 0 0 5.855 16.649 5.027 5.027 0 0 1 1.334 3.389v16.079c0 4.412 2.857 8.156 6.822 9.484.998.334 2.067-.484 3.178-.484h10.646c5.523 0 0-3.477 0-9v-16.077a5.05 5.05 0 0 1 1.341-3.399 22.472 22.472 0 0 0 5.893-15.198z" fill="#6f6571"></path><path d="M424.789 237.44c0 5.86-2.24 11.19-5.9 15.2-.85.93-1.34 2.14-1.34 3.4v16.08c0 5.52-4.47 10-10 10h-10.64a9.86 9.86 0 0 1-3.18-.52 9.984 9.984 0 0 0 6.82-9.48v-16.08c0-1.26.49-2.47 1.34-3.4a22.47 22.47 0 0 0 5.9-15.2c0-9.45-5.81-17.53-14.06-20.88a21.99 21.99 0 0 1 7.06-1.63c13.11-.81 24 9.58 24 22.51z" fill="#5d5360"></path></g></svg>