<svg viewBox="0 0 60 60" xmlns="http://www.w3.org/2000/svg"><g><path d="M15.42 7.88C9.39 9.31 8 12 8 12v40s2.58-5 16-5c8.44 0 12.68 1.96 19.32 2.78l7.03.33c1.74-.03 3.64-.15 5.78-.38 1.62-.17 2.87-1.5 2.87-3.1V13.12c0-1.84-1.64-3.26-3.52-3.07C39.81 11.58 36.54 7 24 7h-.56z" fill="#f9eab0"></path><circle cx="32" cy="28" fill="#24ae5f" r="13"></circle><path d="M29 34a.997.997 0 0 1-.707-.293l-2-2a.999.999 0 1 1 1.414-1.414l1.21 1.21 7.302-9.127a1 1 0 1 1 1.562 1.249l-8 10a1.003 1.003 0 0 1-.726.374l-.056.001z" fill="#ecf0f1"></path><path d="M8 7.64V58a1 1 0 0 1-1 1H3a1 1 0 0 1-1-1V7.64" fill="#a65a47"></path><circle cx="5" cy="5" fill="#9fc9d3" r="4"></circle><g fill="#f0c419"><path d="m47.806 44.522 1.058 2.233 2.365.358c.737.112 1.032 1.056.498 1.598l-1.712 1.738.404 2.454c.126.765-.645 1.349-1.304.987l-2.116-1.159-2.116 1.159c-.66.361-1.43-.222-1.304-.987l.404-2.454-1.712-1.738c-.534-.542-.239-1.486.498-1.598l2.365-.358 1.058-2.233a.883.883 0 0 1 1.612 0zM19.806 2.522l1.058 2.233 2.365.358c.737.112 1.032 1.056.498 1.598l-1.712 1.738.404 2.454c.126.765-.645 1.349-1.304.987l-2.116-1.159-2.116 1.159c-.66.361-1.43-.222-1.304-.987l.404-2.454-1.712-1.738c-.534-.542-.239-1.486.498-1.598l2.365-.358 1.058-2.233a.883.883 0 0 1 1.612 0z" fill="#f0c419"></path></g></g></svg>