<svg viewBox="0 0 682.667 682.665" xmlns="http://www.w3.org/2000/svg"><g><defs><clippath clippathunits="userSpaceOnUse" id="a"><path d="M0 511.999h512V0H0Z" fill="#000000"></path></clippath></defs><g clip-path="url(#a)" transform="matrix(1.33333 0 0 -1.33333 0 682.665)"><path d="M0 0c-2.073 19.629-20.835 18.622-20.835 18.622a8.216 8.216 0 0 0-7.226 9.104l11.102 96.199c.261 1.67 4.01 20.011-10.353 27.226l-9.261-4.522-10.169-35.223-25.701-119.95 5.15-68.141-23.683-29.861 10.812-55.697 13.318-10.792v-.001c13.91 8.38 29.327 20.238 43.941 37.755C-9.041-118.664-6.777-111.82 4.124-73.597l-.002.002C7.411-61.163 5.752-54.402 0 0" fill="#ffcebe" transform="translate(257.938 266.724)"></path><path d="M0 0a13.13 13.13 0 0 0 1.35 9.567c-.001.007-.004.013-.006.02 16.879 9.591 22.12 28.396 19.029 47.165l-5.262 40.019c-1.487 11.311-.013 20.073 4.776 28.802 4.398 8.016 7.163 16.819 8.578 25.852l14.821 94.572c.555 2.568 3.293 12.285 10.894 17.433-1.508.757-3.213 1.394-5.145 1.874-18.961 4.068-25.686-15.108-26.729-18.862L2.03 152.889c-1.936-8.937-5.207-17.564-10.061-25.312-5.287-8.437-7.266-17.098-6.437-28.476l2.934-40.258c1.998-18.916-4.324-37.387-21.73-45.984l.004-.019-2.825-4.361 14.931-82.718 5.358-1.528c8.173 3.401 18.778 7.984 30.442 15.011z" fill="#ffb1a0" transform="translate(176.446 154.444)"></path><path d="m0 0-2.987 4.554-36.821-5.291 13.567-69.276 4-2.409 26.35 4.403c4.928.824 8.203 5.556 7.237 10.458z" fill="#ecf4ff" transform="translate(150.643 129.453)"></path><path d="m0 0 29.88 4.138a9.708 9.708 0 0 0 8.281-2.835l-7.456 37.831a8.863 8.863 0 0 1-9.913 7.066l-27.25-3.773-2.559-4.221L-1.16-1.915Z" fill="#cbe2ff" transform="translate(112.481 128.15)"></path><path d="m0 0-15.72 79.754-3.51.702-105.887-16.303-3.413-2.273v-77.931c0-5.575 5.009-9.814 10.509-8.89L-4.031-5.796A4.91 4.91 0 0 1 0 0" fill="#bd7b62" transform="translate(128.53 56.382)"></path><path d="m0 0 105.251 16.354a5.596 5.596 0 0 0 2.332-.191l-7.688 39.012a4.91 4.91 0 0 1-5.47 3.918L2.921 44.875a9.966 9.966 0 0 1-8.437-9.849V-2.468A11.416 11.416 0 0 0 0 0" fill="#ad6a50" transform="translate(5.516 118.51)"></path><path d="m0 0 .384.033C-.268.055-.653.036-.653.036A8.216 8.216 0 0 0-7.879 9.14l.609 5.278c-8.194-2.357-16.878-9.096-17.333-22.34-.53-15.483-1.937-52.366-1.952-52.737a7.722 7.722 0 0 1 7.723-8.018 7.724 7.724 0 0 1 7.712 7.429c.014.371 1.423 37.283 1.954 52.798.242 7.054 5.543 8.305 8.592 8.422.191.002.384.012.574.028" fill="#ffb1a0" transform="translate(237.756 285.31)"></path><path d="M0 0a7.721 7.721 0 0 0-2.827 10.549l16.315 28.26a7.721 7.721 0 0 0 10.549 2.826 7.721 7.721 0 0 0 2.827-10.549L10.549 2.827A7.722 7.722 0 0 0 0 0" fill="#95d6a4" transform="translate(481.208 417.229)"></path><path d="M0 0a7.723 7.723 0 0 0-7.723 7.723v32.631a7.723 7.723 0 0 0 15.446 0V7.723A7.723 7.723 0 0 0 0 0" fill="#95d6a4" transform="translate(423.809 432.61)"></path><path d="m0 0-16.315 28.259a7.723 7.723 0 1 0 13.376 7.723L13.376 7.723A7.723 7.723 0 1 0 0 0" fill="#95d6a4" transform="translate(355.86 420.056)"></path><path d="M0 0h-124.61l-8.51-7.497v-307.362l5.471-13.286H0c6.62 0 11.986 5.368 11.986 11.988v304.171C11.986-5.367 6.62 0 0 0" fill="#95d6a4" transform="translate(500.014 390.111)"></path><path d="M0 0v304.171c0 6.62 5.366 11.986 11.985 11.986h-35.523c-6.62 0-11.986-5.366-11.986-11.986V0c0-6.62 5.366-11.987 11.986-11.987h35.523C5.366-11.987 0-6.62 0 0" fill="#78c2a4" transform="translate(371.385 73.954)"></path><path d="M0 0c-37.923-10.582-65.757-45.352-65.757-86.65 0-41.299 27.834-76.069 65.757-86.651 41.154 7.401 72.391 43.365 72.391 86.651C72.391-43.365 41.154-7.399 0 0" fill="#ccf49f" transform="translate(439.61 312.69)"></path><path d="M0 0c0 41.85 29.199 76.856 68.33 85.821a88.255 88.255 0 0 1-19.74 2.249C-.05 88.07-39.479 48.64-39.479 0c0-48.64 39.429-88.069 88.069-88.069 6.79 0 13.39.794 19.74 2.248C29.199-76.855 0-41.85 0 0" fill="#b3e59f" transform="translate(375.34 226.04)"></path><path d="M0 0c7.223 0 13.437-4.861 16.141-11.788h-32.282C-13.437-4.861-7.223 0 0 0m-50.641-39.043c-7.221 0-13.435 4.861-16.139 11.788h32.281c-2.704-6.927-8.919-11.788-16.142-11.788m0 39.043a7.734 7.734 0 1 1 0 15.467c-15.714 0-28.893-11.673-32.228-27.255h-1.471a7.734 7.734 0 0 1 0-15.467h1.471c3.335-15.582 16.514-27.255 32.228-27.255 15.716 0 28.895 11.673 32.231 27.255h34.551C13.437-34.182 7.223-39.043 0-39.043A7.734 7.734 0 0 1 0-54.51c15.715 0 28.895 11.673 32.229 27.255H33.7a7.734 7.734 0 1 1 0 15.467h-1.471C28.894 3.794 15.715 15.467 0 15.467S-28.895 3.794-32.229-11.788H-66.78C-64.076-4.861-57.862 0-50.641 0" fill="#66b394" transform="translate(449.25 245.56)"></path><path d="M0 0v-8.249a7.733 7.733 0 0 1 15.467 0V0A7.733 7.733 0 0 1 0 0" fill="#ecf4ff" transform="translate(416.196 356.733)"></path><path d="M0 0v-8.249a7.733 7.733 0 0 1 7.733-7.733 7.732 7.732 0 0 1 7.734 7.733V0A7.733 7.733 0 0 1 0 0" fill="#ecf4ff" transform="translate(416.196 103.595)"></path></g></g></svg>