<svg viewBox="0 0 468 468" xmlns="http://www.w3.org/2000/svg"><g><path d="M468 371.789H0l.118-41.56c.058-20.402 15.947-37.648 36.333-38.461a40.826 40.826 0 0 1 1.607-.032c18.698-31.095 54.252-47.981 90.23-42.853l12.627 1.8c55.899-47.47 137.829-47.894 194.217-1.007l1.211 1.007 4.195-.694c34.679-5.733 69.207 11.003 86.127 41.746a43.09 43.09 0 0 1 26.644 9.208c9.067 7.12 14.204 18.139 14.31 29.666z" fill="#eeeeee"></path><path d="M118.278 279.559a5.997 5.997 0 0 1-5.128-2.876l-37.34-61.209a6 6 0 0 1 10.244-6.249l37.34 61.209a6 6 0 0 1-5.116 9.125z" fill="#75af23"></path><path d="m117.446 275.369-6.909-15.514c-20.223-45.407 34.915-86.879 72.931-54.855-33.403 7.696-59.118 34.379-65.576 68.043z" fill="#8ecc3e"></path><path d="M177.145 206.712a86.624 86.624 0 0 1 6.323-1.713c-38.017-32.024-93.155 9.449-72.932 54.856l6.909 15.514.447-2.326a86.6 86.6 0 0 1 1.81-7.528c-11.458-36.474 24.14-68.447 57.443-58.803z" fill="#75af23"></path><path d="M55.17 173.323c20.602 12.332 32.673 30.645 26.961 40.902s-27.044 8.575-47.646-3.757-32.673-30.645-26.961-40.902 27.044-8.575 47.646 3.757z" fill="#e0b500"></path><ellipse cx="82.407" cy="169.401" fill="#e0b500" rx="20.685" ry="44.659"></ellipse><path d="M79.362 166.029c11.895 21.36 13.517 43.477 3.624 49.399-9.894 5.922-27.556-6.593-39.451-27.953s-13.517-43.477-3.624-49.399 27.556 6.593 39.451 27.953z" fill="#f4c500"></path><path d="M251.699 238.506a5.997 5.997 0 0 1-5.128-2.876l-37.34-61.209a6 6 0 0 1 10.244-6.249l37.34 61.209a6 6 0 0 1-5.116 9.125z" fill="#75af23"></path><path d="m250.867 234.316-8.092-18.169c-20.603-46.26 37.497-87.182 74.114-52.2-33.403 7.696-59.118 34.379-65.576 68.043z" fill="#8ecc3e"></path><path d="M312.509 165.092a86.838 86.838 0 0 1 4.381-1.145c-36.617-34.981-94.717 5.94-74.114 52.201l8.092 18.169.447-2.326a86.762 86.762 0 0 1 1.693-7.124c-15.009-39.002 25.123-73.221 59.501-59.775z" fill="#75af23"></path><path d="M188.591 132.27c20.602 12.332 32.673 30.645 26.961 40.902s-27.044 8.575-47.646-3.757-32.673-30.645-26.961-40.902 27.044-8.575 47.646 3.757z" fill="#cc2929"></path><ellipse cx="215.828" cy="128.349" fill="#cc2929" rx="20.685" ry="44.659"></ellipse><path d="M212.783 124.977c11.895 21.36 13.517 43.477 3.624 49.399s-27.556-6.593-39.451-27.953-13.517-43.477-3.624-49.399 27.556 6.593 39.451 27.953z" fill="#ea2f2f"></path><path d="M303.049 260.99a93.164 93.164 0 0 1-.512-93.598L310.219 154l28.664 16.161 6.803-26.663c.674-2.64 3.685-3.903 6.04-2.535l30.313 17.615c2.34 1.36 2.747 4.573.819 6.473l-19.571 19.291 28.237 16.904-7.68 13.389c-16.638 29.003-47.522 46.722-80.795 46.355z" fill="#4c62bf"></path><path d="m311.613 195.118 8.869-15.46 14.657 8.263c7.062 3.982 15.978.172 17.982-7.683l8.547-33.498-9.942-5.777c-2.356-1.369-5.367-.105-6.04 2.535l-6.803 26.663-28.663-16.16-7.682 13.392c-16.308 28.43-16.445 63.283-.503 91.805a89.052 89.052 0 0 1 9.578-64.08z" fill="#4057a0"></path><path d="M462.892 20.327c4.881 2.837 6.555 9.083 3.746 13.98l-12.559 21.894c-5.1 8.891-14.138 14.059-23.615 14.579l-49.879 86.953-27.455-15.954 49.879-86.953c-4.292-8.521-4.364-18.983.736-27.873l12.502-21.794c2.832-4.936 9.139-6.626 14.059-3.767z" fill="#eeeeee"></path><path d="m367.389 150.065 56.145-95.239c-4.292-8.521-4.364-18.983.736-27.873l12.502-21.794.004-.007-6.472-3.76c-4.92-2.859-11.227-1.169-14.059 3.767l-12.502 21.794c-5.1 8.891-5.028 19.353-.736 27.873l-49.879 86.953z" fill="#e0e0e0"></path><path d="M466.638 34.307c2.809-4.897 1.135-11.144-3.746-13.981L430.305 1.391c-4.92-2.859-11.227-1.169-14.059 3.767l-7.193 12.54 50.334 29.249z" fill="#f78131"></path><path d="m436.663 5.086-6.358-3.694c-4.92-2.859-11.227-1.169-14.059 3.767l-7.193 12.54 50.334 29.249 6.271-10.932-24.527-14.253c-5.822-3.385-7.819-10.836-4.468-16.677z" fill="#e0752d"></path><path d="M468 381.789H0l.118-41.56c.058-20.402 15.947-37.648 36.333-38.461a40.826 40.826 0 0 1 1.607-.032c18.698-31.095 54.252-47.981 90.23-42.853l12.627 1.8c55.899-47.47 137.829-47.894 194.217-1.007l1.211 1.007 4.195-.694c34.679-5.733 69.207 11.003 86.127 41.746a43.09 43.09 0 0 1 26.644 9.208c9.067 7.12 14.204 18.139 14.31 29.666z" fill="#ffbd66"></path><path d="M.118 360.756c.058-20.402 15.947-37.648 36.333-38.461a40.814 40.814 0 0 1 1.606-.032c18.698-31.095 54.252-47.981 90.23-42.853l12.627 1.8c55.899-47.469 137.829-47.894 194.217-1.007l1.212 1.007 4.195-.694c34.679-5.733 69.206 11.003 86.127 41.746a43.09 43.09 0 0 1 26.644 9.208c9.067 7.12 14.204 18.138 14.31 29.666l.19 20.652H468l-.38-41.178c-.106-11.528-5.243-22.546-14.31-29.666a43.095 43.095 0 0 0-26.644-9.208c-16.92-30.744-51.448-47.479-86.127-41.746l-4.195.694-1.212-1.007c-56.388-46.887-138.318-46.462-194.217 1.007l-12.627-1.8c-35.978-5.128-71.532 11.757-90.23 42.853-.537 0-1.073.011-1.606.032C16.066 302.582.177 319.828.119 340.23L0 381.789h.058z" fill="#f4a64a"></path><path d="M90.316 468H39V297.987l25.658-41.052 25.658 41.052z" fill="#99695c"></path><path d="m57.474 301.066 17.383-27.813-10.199-16.318L39 297.987V468h18.474z" fill="#895b52"></path><path d="M203.211 468h-51.316V297.987l25.658-41.052 25.658 41.052z" fill="#99695c"></path><path d="m170.368 301.066 17.384-27.813-10.199-16.318-25.658 41.052V468h18.473z" fill="#895b52"></path><path d="M316.105 468h-51.316V297.987l25.658-41.052 25.658 41.052z" fill="#99695c"></path><path d="m283.263 301.066 17.383-27.813-10.199-16.318-25.658 41.052V468h18.474z" fill="#895b52"></path><path d="M429 468h-51.316V297.987l25.658-41.052L429 297.987z" fill="#99695c"></path><path d="m396.158 301.066 17.383-27.813-10.199-16.318-25.658 41.052V468h18.474z" fill="#895b52"></path><path d="M0 351.178h468v45.158H0z" fill="#99695c"></path><path d="M37.974 368.625H468v-17.447H0v45.158h17.447v-7.184c0-11.337 9.19-20.527 20.527-20.527z" fill="#895b52"></path><circle cx="64.658" cy="373.757" fill="#704542" r="7.697"></circle><circle cx="177.553" cy="373.757" fill="#704542" r="7.697"></circle><circle cx="294.1" cy="373.757" fill="#704542" r="7.697"></circle><circle cx="403.342" cy="373.757" fill="#704542" r="7.697"></circle><path d="M85.056 27.796h-33.74a6 6 0 0 1 0-12h33.74a6 6 0 0 1 0 12z" fill="#e0e0e0"></path><path d="M54.267 75.007H10.263a6 6 0 0 1 0-12h44.004a6 6 0 0 1 0 12zM293.526 27.796h-33.74a6 6 0 0 1 0-12h33.74a6 6 0 0 1 0 12z" fill="#4c62bf"></path><path d="M334.579 75.007h-44.004a6 6 0 0 1 0-12h44.004a6 6 0 0 1 0 12z" fill="#e0e0e0"></path><path d="M218.527 310.65c-.306 6.317 2.9 11.279 7.16 11.084 4.261-.195 7.963-5.474 8.269-11.79.306-6.317-2.9-11.279-7.16-11.084-4.26.194-7.963 5.473-8.269 11.79z" fill="#ffffff"></path><ellipse cx="250.747" cy="269.533" fill="#ffffff" rx="11.162" ry="17.472"></ellipse></g></svg>