<svg viewBox="0 0 512 512" xmlns="http://www.w3.org/2000/svg"><g><path d="M308.834 279.521v23.31l-112.335 19.17-9.116 49.714 154.519-19.405v-72.789z" fill="#ffbba9"></path><path d="M341.902 384.594h136.977v119.4H341.902z" fill="#495670"></path><path d="M389.571 442.383a6 6 0 0 0-6 6v55.611h12v-55.611a6 6 0 0 0-6-6z" fill="#414f65"></path><path d="m203.169 405.334.013-114.259h-37.318V454.58h27.244a10.062 10.062 0 0 0 10.061-10.061v-3.147l9.158-2.844a4.056 4.056 0 0 0 2.854-3.874V420a4.059 4.059 0 0 0-1.068-2.744z" fill="#ffbba9"></path><path d="m184.277 188.636-42.8-15.683-49.71 2.777-52.03 11A39.823 39.823 0 0 0 8 225.961l.017 181.468H170.11V296.053h33.068v-80.4a28.757 28.757 0 0 0-18.901-27.017z" fill="#71ae60"></path><path d="M8.012 399.972H170.11v104.022H8.012z" fill="#495670"></path><path d="m141.462 206.446 24.555 22.004 4.371-44.903-28.907-10.594-49.71 2.777-26.058 5.508 67.346 65.993z" fill="#64a053"></path><path d="M117.99 442.383a6 6 0 0 0-6 6v55.611h12v-55.611a6 6 0 0 0-6-6z" fill="#414f65"></path><path d="M165.864 256.706a4 4 0 0 0-4 4v58.612h8v-58.612a4 4 0 0 0-4-4zM68.732 256.706a4 4 0 0 0-4 4v58.612h8v-58.612a4 4 0 0 0-4-4z" fill="#64a053"></path><path d="M64.769 317.267v-26.192H8.029l.011 39.8a40.838 40.838 0 0 0 40.838 40.839h138.505a36.855 36.855 0 0 0 36.855-36.855v-17.592zM208.181 118.363l-14.252-27.482V40.437H163.58l-16.457 37.468-1.3-2.4a24.054 24.054 0 0 0-21.176-12.62l-.693.006a28.811 28.811 0 0 0-28 23l-4.184 19.854v69.985l49.71 30.716v-49.8l43.362 4.553a9.411 9.411 0 0 0 10.393-9.373L195.2 131l9.695-3.847a6.324 6.324 0 0 0 3.286-8.79z" fill="#fcd3c4"></path><path d="m195.2 131 9.695-3.847a6.324 6.324 0 0 0 3.282-8.789l-14.248-27.483V40.437H163.58l-16.457 37.468-1.3-2.4a24.043 24.043 0 0 0-18.786-12.488 28.856 28.856 0 0 0-12.278 18.18l-4.185 19.853v42.227a49.794 49.794 0 0 0 23.62 42.359l7.288 4.5v-33.489l43.362 4.553a9.411 9.411 0 0 0 10.393-9.373z" fill="#fcded5"></path><path d="M168.8 48.437 147.869 96.1l-9.083-16.79a16.078 16.078 0 0 0-14.338-8.426h-.4a20.974 20.974 0 0 0-20.267 16.648l-12.012 57L71.4 122.92a32.084 32.084 0 0 1-8.74-22.011V60.746a52.74 52.74 0 0 1 52.74-52.74h94.035a8.092 8.092 0 0 1 8.092 8.092v15.987a16.351 16.351 0 0 1-16.351 16.352z" fill="#56585e"></path><path d="m477.582 187.585-55.424-11.855-49.974 2.031-39.862 12.394a33.408 33.408 0 0 0-23.488 31.9v57.466H341.9v109.733h136.979v-88.611H504v-80.391a33.406 33.406 0 0 0-26.418-32.667z" fill="#f7685f"></path><g fill="#f0534a"><path d="M449.745 256.706a4 4 0 0 0-4 4v128.548h8V260.706a4 4 0 0 0-4-4zM337.9 256.706a4 4 0 0 0-4 4v18.815h8v-18.815a4 4 0 0 0-4-4zM373.036 206.446l8.403 40.785 67.189-65.839-26.47-5.662-49.974 2.031-27.797 8.643 4.094 42.046z" fill="#f0534a"></path></g><path d="M453.757 298.381v100.756l-10.416 11.35a6.06 6.06 0 0 0-1.6 4.1v12.952a5.3 5.3 0 0 0 3.731 5.066l8.281 2.571v3.147a10.062 10.062 0 0 0 10.062 10.061h20.855A19.327 19.327 0 0 0 504 429.056V298.381zM306.337 118.363l14.251-27.482V40.437h30.349L367.4 77.905l1.3-2.4a24.054 24.054 0 0 1 21.176-12.62l.694.006a28.811 28.811 0 0 1 28 23l4.184 19.854v69.985l-49.711 30.716v-49.8l-43.368 4.554a9.411 9.411 0 0 1-10.393-9.373l.032-20.827-9.7-3.847a6.323 6.323 0 0 1-3.277-8.79z" fill="#fcd3c4"></path><path d="m319.314 131-9.7-3.847a6.323 6.323 0 0 1-3.281-8.789l14.251-27.482V40.437h30.349L367.4 77.905l1.3-2.4a24.043 24.043 0 0 1 18.786-12.488 28.858 28.858 0 0 1 12.279 18.18l4.184 19.853v42.227a49.793 49.793 0 0 1-23.619 42.359l-7.289 4.5v-33.489l-43.366 4.553a9.411 9.411 0 0 1-10.393-9.373z" fill="#fcded5"></path><path d="M345.713 48.437 366.648 96.1l9.083-16.79a16.08 16.08 0 0 1 14.338-8.426h.4a20.974 20.974 0 0 1 20.267 16.648l12.012 57 20.374-21.612a32.089 32.089 0 0 0 8.74-22.011V60.746a52.74 52.74 0 0 0-52.742-52.74h-94.035a8.092 8.092 0 0 0-8.093 8.092v15.987a16.352 16.352 0 0 0 16.351 16.352z" fill="#56585e"></path></g></svg>