<svg id="Layer_1" enable-background="new 0 0 512 512" height="512" viewBox="0 0 512 512" width="512" xmlns="http://www.w3.org/2000/svg"><g><path d="m393.493 273.971c-14.042-4.9-14.042-6.243-14.042-10.692 0-5.266 4.082-9.55 9.1-9.55 2.406 0 4.661.942 6.347 2.653 5.815 5.902 15.312 5.97 21.213.155s5.97-15.312.155-21.212c-7.37-7.479-17.212-11.597-27.715-11.597-21.56 0-39.1 17.742-39.1 39.55 0 27.097 21.382 34.559 34.157 39.018 14.042 4.9 14.042 6.243 14.042 10.692 0 5.266-4.083 9.55-9.1 9.55-2.354 0-4.58-.942-6.266-2.653-5.816-5.903-15.313-5.971-21.213-.155-5.9 5.814-5.97 15.312-.155 21.212 7.37 7.479 17.184 11.597 27.634 11.597 21.56 0 39.1-17.742 39.1-39.55 0-27.097-21.382-34.559-34.157-39.018z" fill="#73f0b4"/><path d="m229.169 321.333h-6.369v-81.399c0-8.284-6.716-15-15-15s-15 6.716-15 15v96.399c0 8.284 6.716 15 15 15h21.369c8.284 0 15-6.716 15-15s-6.716-15-15-15z" fill="#73f0b4"/><path d="m497 224.934h-48.2c-8.284 0-15 6.716-15 15s6.716 15 15 15h9.1v81.399c0 8.284 6.716 15 15 15s15-6.716 15-15v-81.399h9.1c8.284 0 15-6.716 15-15s-6.716-15-15-15z" fill="#73f0b4"/><path d="m296.167 223.729c-21.56 0-39.1 17.54-39.1 39.1v73.505c0 8.284 6.716 15 15 15s15-6.716 15-15v-20.084c0-5.018 4.082-9.1 9.1-9.1s9.1 4.082 9.1 9.1v20.083c0 8.284 6.716 15 15 15s15-6.716 15-15v-73.505c0-21.559-17.54-39.099-39.1-39.099zm0 53.421c-3.133 0-6.178.381-9.1 1.08v-15.403c0-5.018 4.082-9.1 9.1-9.1s9.1 4.082 9.1 9.1v15.403c-2.923-.699-5.967-1.08-9.1-1.08z" fill="#73f0b4"/><g fill="#27325d"><path d="m219.85 383.19c-21.56 0-39.1 17.54-39.1 39.1v73.505c0 8.284 6.716 15 15 15s15-6.716 15-15v-20.083c0-5.019 4.083-9.101 9.1-9.101s9.1 4.082 9.1 9.101v20.083c0 8.284 6.716 15 15 15s15-6.716 15-15v-73.505c0-21.56-17.54-39.1-39.1-39.1zm0 53.421c-3.133 0-6.178.381-9.1 1.08v-15.401c0-5.018 4.083-9.1 9.1-9.1s9.1 4.082 9.1 9.1v15.402c-2.922-.7-5.966-1.081-9.1-1.081z"/><path d="m497 480.795h-9.1v-18.2h3.075c8.284 0 15-6.716 15-15s-6.716-15-15-15h-3.075v-18.199h9.1c8.284 0 15-6.716 15-15s-6.716-15-15-15h-24.1c-8.284 0-15 6.716-15 15v96.399c0 8.284 6.716 15 15 15h24.1c8.284 0 15-6.716 15-15s-6.716-15-15-15z"/><path d="m39.1 413.19c5.018 0 9.1 4.082 9.1 9.1 0 8.284 6.716 15 15 15s15-6.716 15-15c0-21.56-17.54-39.1-39.1-39.1s-39.1 17.54-39.1 39.1v50.61c0 21.56 17.54 39.1 39.1 39.1s39.1-17.54 39.1-39.1c0-8.284-6.716-15-15-15s-15 6.716-15 15c0 5.018-4.083 9.1-9.1 9.1s-9.1-4.082-9.1-9.1v-50.61c0-5.018 4.083-9.1 9.1-9.1z"/><path d="m404.617 413.19c5.018 0 9.1 4.082 9.1 9.1 0 8.284 6.716 15 15 15s15-6.716 15-15c0-21.56-17.54-39.1-39.1-39.1s-39.1 17.54-39.1 39.1v50.61c0 21.56 17.54 39.1 39.1 39.1s39.1-17.54 39.1-39.1c0-8.284-6.716-15-15-15s-15 6.716-15 15c0 5.018-4.083 9.1-9.1 9.1s-9.1-4.082-9.1-9.1v-50.61c0-5.018 4.082-9.1 9.1-9.1z"/><path d="m151.567 384.396c-8.284 0-15 6.716-15 15v33.199h-18.2v-33.199c0-8.284-6.716-15-15-15s-15 6.716-15 15v96.399c0 8.284 6.716 15 15 15s15-6.716 15-15v-33.2h18.2v33.2c0 8.284 6.716 15 15 15s15-6.716 15-15v-96.399c0-8.285-6.716-15-15-15z"/><path d="m336.333 384.396c-8.284 0-15 6.716-15 15v32.859l-19.784-39.567c-3.112-6.223-10.094-9.488-16.863-7.891-6.771 1.599-11.554 7.642-11.554 14.599v96.399c0 8.284 6.716 15 15 15s15-6.716 15-15v-32.859l19.784 39.567c3.112 6.223 10.094 9.488 16.863 7.891 6.771-1.599 11.554-7.642 11.554-14.599v-96.399c0-8.285-6.715-15-15-15z"/></g><path d="m100.793 234.476-48.2-48.199c-4.337-4.337-5.597-10.878-3.181-16.516l48.2-112.467c1.96-4.574 6.063-7.879 10.951-8.82 4.886-.939 9.923.604 13.443 4.123l112.467 112.467c3.52 3.52 5.064 8.556 4.123 13.443-.941 4.888-4.246 8.989-8.821 10.95l-112.467 48.199c-6.082 2.608-12.534.801-16.515-3.18z" fill="#f5ebf5"/><path d="m92.683 249.294 24.1 48.2c3.705 7.409.701 16.42-6.708 20.124-7.408 3.708-16.42.702-20.125-6.708l-24.1-48.2c-3.705-7.409-.701-16.42 6.708-20.124 7.361-3.683 16.397-.748 20.125 6.708z" fill="#a5148c"/><path d="m266.607 41.676c5.857-5.857 5.857-15.355 0-21.213-5.857-5.857-15.355-5.857-21.213 0l-24.1 24.101c-5.857 5.857-5.857 15.355 0 21.213 5.85 5.85 15.346 5.866 21.213 0z" fill="#0f2341"/><path d="m182.375 1.587c-7.409-3.706-16.42-.701-20.125 6.708l-8.033 16.066c-3.705 7.409-.701 16.42 6.708 20.124 7.375 3.689 16.404.733 20.125-6.708l8.033-16.066c3.705-7.409.701-16.42-6.708-20.124z" fill="#0f2341"/><path d="m285.483 104.696c-3.705-7.41-12.713-10.415-20.125-6.708l-16.067 8.033c-7.41 3.704-10.413 12.714-6.708 20.124 3.722 7.444 12.749 10.398 20.125 6.708l16.067-8.033c7.41-3.704 10.413-12.714 6.708-20.124z" fill="#0f2341"/><path d="m117.309 237.657 112.467-48.199c4.575-1.961 7.879-6.062 8.821-10.95.941-4.888-.604-9.924-4.123-13.443l-56.233-56.233-101.547 101.545 24.1 24.099c3.98 3.981 10.432 5.788 16.515 3.181z" fill="#ebd6eb"/><path d="m50.551 167.107-46.157 46.156c-5.853 5.852-5.859 15.355 0 21.213l48.2 48.2c5.852 5.853 15.356 5.858 21.213 0l46.156-46.157z" fill="#ff646e"/><path d="m73.807 282.676 46.156-46.157-34.706-34.706-56.763 56.763 24.1 24.1c5.852 5.853 15.355 5.859 21.213 0z" fill="#eb2d8c"/><path d="m195.75 510.795c8.284 0 15-6.716 15-15v-20.083c0-5.019 4.083-9.101 9.1-9.101s9.1 4.082 9.1 9.101v20.083c0 8.284 6.716 15 15 15s15-6.716 15-15v-48.2h-78.2v48.2c0 8.284 6.716 15 15 15z" fill="#0f2341"/><path d="m472.9 510.795h24.1c8.284 0 15-6.716 15-15s-6.716-15-15-15h-9.1v-18.2h3.075c8.284 0 15-6.716 15-15h-48.075v48.2c0 8.284 6.716 15 15 15z" fill="#0f2341"/><path d="m39.1 512c21.56 0 39.1-17.54 39.1-39.1 0-8.284-6.716-15-15-15s-15 6.716-15 15c0 5.018-4.083 9.1-9.1 9.1s-9.1-4.082-9.1-9.1v-25.306h-30v25.306c0 21.56 17.54 39.1 39.1 39.1z" fill="#0f2341"/><path d="m404.617 512c21.56 0 39.1-17.54 39.1-39.1 0-8.284-6.716-15-15-15s-15 6.716-15 15c0 5.018-4.083 9.1-9.1 9.1s-9.1-4.082-9.1-9.1v-25.306h-30v25.306c0 21.56 17.54 39.1 39.1 39.1z" fill="#0f2341"/><path d="m103.367 510.795c8.284 0 15-6.716 15-15v-33.2h18.2v33.2c0 8.284 6.716 15 15 15s15-6.716 15-15v-48.2h-78.2v48.2c0 8.284 6.716 15 15 15z" fill="#0f2341"/><path d="m288.133 510.795c8.284 0 15-6.716 15-15v-32.859l19.784 39.567c3.112 6.223 10.094 9.488 16.863 7.891 6.771-1.599 11.554-7.642 11.554-14.599v-48.2h-78.2v48.2c-.001 8.284 6.715 15 14.999 15z" fill="#0f2341"/><path d="m383.607 302.296c14.042 4.9 14.042 6.243 14.042 10.692 0 5.266-4.083 9.55-9.1 9.55-2.354 0-4.58-.942-6.266-2.653-5.816-5.903-15.313-5.971-21.213-.155-5.9 5.814-5.97 15.312-.155 21.212 7.37 7.479 17.184 11.597 27.634 11.597 21.56 0 39.1-17.742 39.1-39.55 0-11.301-3.725-19.178-8.988-24.855h-60.225c7.358 7.934 17.724 11.563 25.171 14.162z" fill="#12bbb2"/><path d="m207.8 351.333h21.369c8.284 0 15-6.716 15-15s-6.716-15-15-15h-6.369v-33.2h-30v48.2c0 8.284 6.716 15 15 15z" fill="#12bbb2"/><path d="m457.9 336.333c0 8.284 6.716 15 15 15s15-6.716 15-15v-48.2h-30z" fill="#12bbb2"/><path d="m272.067 351.333c8.284 0 15-6.716 15-15v-20.083c0-5.018 4.082-9.1 9.1-9.1s9.1 4.082 9.1 9.1v20.083c0 8.284 6.716 15 15 15s15-6.716 15-15v-48.2h-78.2v48.2c0 8.284 6.716 15 15 15z" fill="#12bbb2"/></g></svg>