<svg viewBox="0 0 512 512" xmlns="http://www.w3.org/2000/svg"><g><path d="M332 407V120H90v251H50c-33.08 0-50 47.92-50 81s26.92 60 60 60h347v-30c-41.36 0-75-33.64-75-75z" fill="#e9dfda"></path><path d="M407 482v30H256V120h76v287c0 41.36 33.64 75 75 75z" fill="#c6bcb7"></path><path d="M407 0c-57.9 0-105 47.1-105 105v302h30c0-41.36 33.64-75 75-75s75 33.64 75 75h30V105C512 47.1 464.9 0 407 0z" fill="#f3eee9"></path><path d="M512 105v302h-30c0-41.36-33.64-75-75-75V0c57.9 0 105 47.1 105 105z" fill="#e9dfda"></path><path d="M60 60C26.92 60 0 86.92 0 120v332c0-33.08 26.92-60 60-60h60V60z" fill="#f3eee9"></path><path d="M407 302c-57.9 0-105 47.1-105 105s47.1 105 105 105 105-47.1 105-105-47.1-105-105-105z" fill="#e9dfda"></path><path d="M512 407c0 57.9-47.1 105-105 105V302c57.9 0 105 47.1 105 105z" fill="#c6bcb7"></path><path d="M407 362c-24.81 0-45 20.19-45 45s20.19 45 45 45 45-20.19 45-45-20.19-45-45-45z" fill="#596c76"></path><path d="M452 407c0 24.81-20.19 45-45 45v-90c24.81 0 45 20.19 45 45z" fill="#465a61"></path></g></svg>