<svg viewBox="0 0 512 511" xmlns="http://www.w3.org/2000/svg"><g><path d="M512 30.5v392H0v-392h76l30 62h300l30-62zm0 0" fill="#c6715a"></path><path d="M512 30.5v392H256v-330h150l30-62zm0 0" fill="#b35f49"></path><path d="M451 .5v362H341.5c-62.398 0-74.102 44.398-85.5 60-12-16.2-23.102-60-85.5-60H61V.5h109.5c34.5 0 66 16.5 85.5 44.098 11.398-16.2 27.3-27.899 45-35.399l45 27.602L391 .5zm0 0" fill="#fff5f5"></path><path d="M451 .5v362H341.5c-62.398 0-74.102 44.398-85.5 60V44.598c11.398-16.2 27.3-27.899 45-35.399l45 27.602L391 .5zm0 0" fill="#efe2dd"></path><path d="M121 62.5h90v30h-90zM121 122.5h90v30h-90zm0 0" fill="#e1d3ce"></path><path d="M301 182.5h90v30h-90zm0 0" fill="#cdbfba"></path><path d="M121 182.5h90v30h-90zM121 242.5h90v30h-90zm0 0" fill="#e1d3ce"></path><path d="M425.633 404.918 512 491.281l-21.21 21.211-86.368-86.363zm0 0" fill="#53433f"></path><path d="m346 98.71 45 45V.5h-49.5c-14.324 0-27.855 3.45-40.5 8.75v134.46zm0 0" fill="#e63950"></path><path d="M346 452.5c-57.89 0-105-47.11-105-105s47.11-105 105-105 105 47.11 105 105-47.11 105-105 105zm0 0" fill="#53433f"></path><path d="M346 272.5c-41.352 0-75 33.648-75 75s33.648 75 75 75 75-33.648 75-75-33.648-75-75-75zm0 0" fill="#efe2dd"></path></g></svg>