<svg viewBox="0 0 512 512" xmlns="http://www.w3.org/2000/svg"><g><path d="M218.759 113.435v180.457H0V123.988c0-.366.194-.705.51-.889l55.305-32.327a10.291 10.291 0 0 1 9.529-.453l24.075 11.177.01-.01 12.702-10.858 17.843-15.247a10.306 10.306 0 0 1 10.93-1.566z" fill="#685e67"></path><path d="M155.969 134.43c-.979 3.379-4.069 5.563-7.417 5.563a7.53 7.53 0 0 1-2.163-.309l-27.238-7.932a7.736 7.736 0 0 1-5.563-7.201l-.319-10.858-23.839-12.208 12.702-10.858 22.252 11.394a7.72 7.72 0 0 1 4.203 6.655l.278 9.807 21.85 6.366a7.722 7.722 0 0 1 5.254 9.581z" fill="#554e55"></path><path d="M218.76 113.438v28.814L109.12 91.331a10.3 10.3 0 0 0-7.304-.433l18.162-15.524a10.326 10.326 0 0 1 10.93-1.556z" fill="#554e55"></path><path d="M511.969 174.911v118.981H36.736v-75.203l23.602-34.46a10.108 10.108 0 0 1 7.149-4.317l54.919-6.49 26.599-38.436a10.1 10.1 0 0 1 9.962-4.224l27.918 4.656.01-.01 13.289-12.249 75.152-69.269a10.11 10.11 0 0 1 11.899-1.319l59.472 34.346 20.954-9.622a10.102 10.102 0 0 1 11.497 2.194l70.433 73.359 61.681 21.086c.417.145.697.537.697.977z" fill="#b5adb6"></path><path d="M511.974 174.913v31.229l-86.976-31.791-70.432-73.368a10.099 10.099 0 0 0-11.496-2.184l-20.954 9.622-59.471-34.346a10.072 10.072 0 0 0-8.334-.804l21.026-19.377a10.09 10.09 0 0 1 11.898-1.319l59.471 34.346 20.953-9.622a10.1 10.1 0 0 1 11.497 2.184l70.432 73.368 61.69 21.086c.416.144.696.536.696.976z" fill="#a69ca7"></path><path d="M440.889 278.035h-42.526c-3.785 0-6.048-4.199-3.974-7.366 9.745-14.881 17.741-37.696 22.898-65.381.484-2.599 4.194-2.599 4.678 0 5.157 27.685 13.154 50.499 22.898 65.381 2.074 3.167-.189 7.366-3.974 7.366z" fill="#138b80"></path><path d="M440.889 278.036h-13.748c3.788 0 6.049-4.199 3.976-7.364-7.235-11.046-13.507-26.468-18.364-45.013 1.691-6.43 3.206-13.243 4.534-20.372.482-2.596 4.193-2.596 4.68 0 5.156 27.689 13.149 50.504 22.897 65.385 2.074 3.165-.193 7.364-3.975 7.364z" fill="#127e73"></path><path d="M478.807 286.855h-42.526c-3.785 0-6.048-4.199-3.974-7.366 9.745-14.881 17.741-37.696 22.898-65.381.484-2.599 4.194-2.599 4.678 0 5.157 27.685 13.154 50.499 22.898 65.381 2.074 3.167-.189 7.366-3.974 7.366z" fill="#1ec186"></path><path d="M478.804 286.855H463.4c3.788 0 6.049-4.199 3.976-7.364-6.83-10.43-12.802-24.765-17.536-41.936 2.026-7.323 3.817-15.169 5.362-23.443.487-2.602 4.199-2.602 4.68 0 5.156 27.683 13.155 50.498 22.897 65.379 2.074 3.165-.187 7.364-3.975 7.364z" fill="#1eb07c"></path><path d="M395.794 280.674h-42.526c-3.785 0-6.048-4.199-3.974-7.366 9.745-14.881 17.741-37.696 22.898-65.381.484-2.599 4.194-2.599 4.678 0 5.157 27.685 13.154 50.499 22.898 65.381 2.074 3.167-.189 7.366-3.974 7.366z" fill="#1ec186"></path><path d="M395.791 280.674h-15.404c3.788 0 6.049-4.199 3.976-7.364-6.83-10.43-12.802-24.765-17.536-41.936 2.026-7.323 3.817-15.169 5.362-23.443.487-2.602 4.199-2.602 4.68 0 5.156 27.683 13.155 50.498 22.897 65.379 2.074 3.165-.187 7.364-3.975 7.364z" fill="#1eb07c"></path><path d="M91.115 278.439H55.099c-3.205 0-5.122-3.556-3.366-6.238 8.253-12.603 15.025-31.925 19.393-55.371.41-2.201 3.552-2.201 3.962 0 4.368 23.446 11.14 42.768 19.393 55.371 1.756 2.682-.161 6.238-3.366 6.238z" fill="#138b80"></path><path d="M91.115 278.44H79.472c3.208 0 5.123-3.556 3.367-6.237-6.127-9.355-11.439-22.416-15.552-38.122 1.432-5.446 2.716-11.215 3.84-17.253.408-2.198 3.551-2.198 3.964 0 4.367 23.45 11.136 42.772 19.392 55.375 1.755 2.68-.165 6.237-3.368 6.237z" fill="#127e73"></path><path d="M123.228 280.674H87.212c-3.205 0-5.122-3.556-3.366-6.238 8.253-12.603 15.025-31.925 19.393-55.371.41-2.201 3.552-2.201 3.962 0 4.368 23.446 11.14 42.768 19.393 55.371 1.755 2.681-.161 6.238-3.366 6.238z" fill="#1ec186"></path><path d="M123.225 280.674H110.18c3.208 0 5.123-3.556 3.367-6.237-5.784-8.833-10.842-20.973-14.851-35.516 1.716-6.202 3.233-12.847 4.541-19.854.413-2.203 3.556-2.203 3.964 0 4.367 23.445 11.141 42.767 19.392 55.37 1.755 2.681-.16 6.237-3.368 6.237z" fill="#1eb07c"></path><path d="M52.923 283.764H16.908c-3.205 0-5.122-3.556-3.366-6.238 8.253-12.603 15.025-31.925 19.393-55.371.41-2.201 3.552-2.201 3.962 0 4.368 23.446 11.14 42.768 19.393 55.371 1.755 2.682-.161 6.238-3.367 6.238z" fill="#1ec186"></path><path d="M52.921 283.764H39.876c3.208 0 5.123-3.556 3.367-6.237-5.784-8.833-10.842-20.973-14.851-35.516 1.716-6.202 3.233-12.847 4.541-19.854.413-2.203 3.556-2.203 3.964 0 4.367 23.445 11.141 42.767 19.392 55.37 1.755 2.681-.16 6.237-3.368 6.237z" fill="#1eb07c"></path><path d="M361.123 280.674h-36.016c-3.205 0-5.122-3.556-3.366-6.238 8.253-12.603 15.025-31.925 19.393-55.371.41-2.201 3.552-2.201 3.962 0 4.368 23.446 11.14 42.768 19.393 55.371 1.756 2.681-.161 6.238-3.366 6.238z" fill="#1ec186"></path><path d="M361.121 280.674h-13.046c3.208 0 5.123-3.556 3.367-6.237-5.784-8.833-10.842-20.973-14.851-35.516 1.716-6.202 3.233-12.847 4.541-19.854.413-2.203 3.556-2.203 3.964 0 4.367 23.445 11.141 42.767 19.392 55.37 1.755 2.681-.159 6.237-3.367 6.237z" fill="#1eb07c"></path><path d="M209.982 278.035h-47.35c-4.214 0-6.734-4.676-4.425-8.201 10.85-16.569 19.754-41.972 25.496-72.797.539-2.894 4.67-2.894 5.209 0 5.742 30.825 14.646 56.228 25.496 72.797 2.308 3.526-.211 8.201-4.426 8.201z" fill="#138b80"></path><path d="M209.983 278.036h-15.307c4.217 0 6.735-4.675 4.427-8.199-8.056-12.299-15.039-29.47-20.447-50.119 1.883-7.16 3.57-14.745 5.048-22.683.536-2.89 4.669-2.89 5.211 0 5.741 30.83 14.64 56.233 25.495 72.802 2.307 3.523-.216 8.199-4.427 8.199z" fill="#127e73"></path><path d="M248.441 280.674h-42.526c-3.785 0-6.048-4.199-3.974-7.366 9.745-14.881 17.741-37.696 22.898-65.381.484-2.599 4.194-2.599 4.678 0 5.157 27.685 13.154 50.499 22.898 65.381 2.073 3.167-.19 7.366-3.974 7.366z" fill="#1ec186"></path><path d="M248.438 280.674h-15.404c3.788 0 6.049-4.199 3.976-7.364-6.83-10.43-12.802-24.765-17.536-41.936 2.026-7.323 3.817-15.169 5.362-23.443.487-2.602 4.199-2.602 4.68 0 5.156 27.683 13.155 50.498 22.897 65.379 2.074 3.165-.187 7.364-3.975 7.364z" fill="#1eb07c"></path><path d="M165.427 280.674h-42.526c-3.785 0-6.048-4.199-3.974-7.366 9.745-14.881 17.741-37.696 22.898-65.381.484-2.599 4.194-2.599 4.678 0 5.157 27.685 13.154 50.499 22.898 65.381 2.074 3.167-.189 7.366-3.974 7.366z" fill="#1ec186"></path><path d="M165.425 280.674h-15.404c3.788 0 6.049-4.199 3.976-7.364-6.83-10.43-12.802-24.765-17.536-41.936 2.026-7.323 3.817-15.169 5.362-23.443.487-2.602 4.199-2.602 4.68 0 5.156 27.683 13.155 50.498 22.897 65.379 2.073 3.165-.187 7.364-3.975 7.364z" fill="#1eb07c"></path><path d="M285.664 275.349h-36.016c-3.205 0-5.122-3.556-3.366-6.238 8.253-12.603 15.025-31.925 19.393-55.371.41-2.201 3.552-2.201 3.962 0 4.368 23.446 11.14 42.768 19.393 55.371 1.756 2.681-.16 6.238-3.366 6.238z" fill="#138b80"></path><path d="M285.664 275.349h-11.643c3.208 0 5.123-3.556 3.367-6.237-6.127-9.355-11.439-22.416-15.552-38.122 1.432-5.446 2.716-11.215 3.84-17.253.408-2.198 3.551-2.198 3.964 0 4.367 23.45 11.136 42.772 19.392 55.375 1.755 2.681-.165 6.237-3.368 6.237z" fill="#127e73"></path><path d="M512 320.026v-39.121s-86.224-11.94-255.995-11.94S.01 280.905.01 280.905v39.121z" fill="#bcea73"></path><path d="M501.607 460.78 10.24 457.796C4.574 457.762 0 453.16 0 447.495v-142.36l511.971.019V450.48c0 5.713-4.65 10.335-10.364 10.3z" fill="#8dcafc"></path><path d="M0 305.153h511.971v29.994H0zM299.619 415.792c-8.738 0-13.582-3.1-17.121-5.364-2.852-1.825-4.573-2.927-8.791-2.927-4.216 0-5.938 1.102-8.79 2.927-3.537 2.264-8.382 5.364-17.121 5.364-8.737 0-13.581-3.101-17.118-5.364-2.851-1.825-4.572-2.927-8.788-2.927s-5.938 1.102-8.789 2.927c-3.537 2.264-8.381 5.364-17.119 5.364s-13.583-3.1-17.12-5.364c-2.852-1.825-4.573-2.927-8.791-2.927-4.216 0-5.938 1.102-8.79 2.927-3.537 2.264-8.382 5.364-17.121 5.364-8.737 0-13.581-3.101-17.118-5.364-2.851-1.825-4.572-2.927-8.788-2.927s-5.938 1.102-8.789 2.927c-3.537 2.264-8.381 5.364-17.119 5.364s-13.584-3.1-17.121-5.364c-2.852-1.825-4.573-2.927-8.79-2.927s-5.939 1.102-8.791 2.927c-3.537 2.264-8.382 5.364-17.12 5.364a7.726 7.726 0 1 1 0-15.452c4.216 0 5.938-1.102 8.79-2.927 3.537-2.264 8.382-5.364 17.121-5.364 8.737 0 13.582 3.1 17.12 5.364 2.852 1.825 4.573 2.927 8.791 2.927 4.216 0 5.938-1.102 8.789-2.927 3.537-2.264 8.381-5.364 17.119-5.364s13.581 3.101 17.118 5.364c2.851 1.825 4.572 2.927 8.788 2.927 4.217 0 5.939-1.102 8.791-2.927 3.537-2.264 8.382-5.364 17.12-5.364s13.584 3.1 17.121 5.364c2.852 1.825 4.573 2.927 8.79 2.927 4.216 0 5.938-1.102 8.789-2.927 3.537-2.264 8.381-5.364 17.119-5.364s13.581 3.101 17.118 5.364c2.851 1.825 4.572 2.927 8.788 2.927 4.217 0 5.939-1.102 8.791-2.927 3.537-2.264 8.382-5.364 17.12-5.364s13.583 3.1 17.121 5.364c2.852 1.825 4.573 2.927 8.791 2.927a7.727 7.727 0 0 1 0 15.452z" fill="#64b9fc"></path><path d="M456.405 378.919c-8.698 0-13.52-3.086-17.04-5.34-2.827-1.81-4.533-2.902-8.71-2.902s-5.883 1.093-8.711 2.902c-3.52 2.254-8.342 5.34-17.04 5.34-8.7 0-13.522-3.086-17.043-5.34-2.828-1.809-4.534-2.902-8.712-2.902s-5.884 1.093-8.712 2.902c-3.521 2.254-8.343 5.34-17.043 5.34a7.726 7.726 0 1 1 0-15.452c4.179 0 5.885-1.093 8.713-2.902 3.521-2.253 8.343-5.339 17.042-5.339s13.521 3.086 17.042 5.339c2.828 1.81 4.534 2.902 8.713 2.902 4.176 0 5.883-1.092 8.71-2.902 3.52-2.254 8.342-5.34 17.041-5.34 8.698 0 13.52 3.086 17.04 5.34 2.827 1.81 4.533 2.902 8.71 2.902a7.725 7.725 0 0 1 7.726 7.726 7.725 7.725 0 0 1-7.726 7.726zM227.961 355.225c-8.698 0-13.52-3.086-17.04-5.34-2.827-1.809-4.533-2.901-8.71-2.901s-5.883 1.092-8.71 2.901c-3.52 2.254-8.342 5.34-17.041 5.34s-13.521-3.086-17.042-5.339c-2.828-1.81-4.534-2.902-8.712-2.902-4.179 0-5.885 1.093-8.713 2.902-3.521 2.254-8.343 5.339-17.042 5.339a7.726 7.726 0 1 1 0-15.452c4.178 0 5.884-1.092 8.712-2.902 3.521-2.253 8.343-5.339 17.043-5.339 8.699 0 13.521 3.086 17.042 5.339 2.828 1.81 4.534 2.902 8.712 2.902 4.177 0 5.884-1.092 8.711-2.902 3.52-2.253 8.342-5.339 17.04-5.339s13.52 3.086 17.04 5.34c2.827 1.809 4.533 2.901 8.71 2.901a7.726 7.726 0 1 1 0 15.452z" fill="#b5dbfd"></path><path d="M339.723 189.957a7.711 7.711 0 0 1-6.233 3.152 7.64 7.64 0 0 1-4.564-1.504l-27.094-19.903a7.731 7.731 0 0 1-2.369-9.601l12.898-26.496-42.866-76.336 5.841-5.378a10.004 10.004 0 0 1 7.376-2.648l45.101 80.323a7.74 7.74 0 0 1 .206 7.17l-11.837 24.333 21.891 16.091a7.711 7.711 0 0 1 1.65 10.797z" fill="#918291"></path><path d="M255.516 182.252c-.196.01-.391.021-.577.021-4.007 0-7.397-3.101-7.706-7.16l-1.679-22.705-58.659-16.998 13.289-12.249 54.826 15.896a7.738 7.738 0 0 1 5.563 6.851l2.071 28.062c.32 4.253-2.874 7.962-7.128 8.282z" fill="#a69ca7"></path><g fill="#918291"><path d="M381.55 139.358a7.721 7.721 0 0 1-6.508-3.552l-7.012-10.917a7.727 7.727 0 0 1 13.002-8.352l7.012 10.917a7.727 7.727 0 0 1-2.326 10.677 7.686 7.686 0 0 1-4.168 1.227zM163.503 183.164a7.726 7.726 0 0 1-6.537-11.836l6.563-10.454a7.727 7.727 0 1 1 13.087 8.216l-6.563 10.454a7.719 7.719 0 0 1-6.55 3.62zM81.213 142.68a7.697 7.697 0 0 1-5.01-1.848l-10.298-8.782a7.726 7.726 0 0 1 10.028-11.757l10.298 8.782a7.726 7.726 0 0 1-5.018 13.605z" fill="#918291"></path></g></g></svg>