<svg viewBox="0 0 58 58" xmlns="http://www.w3.org/2000/svg"><g><g fill="none"><path d="M41.76 40.13 56.4 50.92A3.922 3.922 0 0 1 54.059 58a3.962 3.962 0 0 1-2.79-1.15L37.92 43.54z" fill="#82624b"></path><circle cx="24" cy="24" fill="#ced2dc" r="24"></circle><circle cx="24" cy="24" fill="#2885ee" r="20"></circle><path d="M9 37a19.983 19.983 0 0 0 30 0l-.02.02L39 37V10.78a19.983 19.983 0 0 0-30 0V37l.02.02z" fill="#f2f4f7"></path><path d="M24 45c-10.369.002-19.187-7.564-20.76-17.813C1.665 16.937 7.807 7.075 17.7 3.966a1 1 0 1 1 .6 1.907C8.821 8.85 3.234 18.625 5.481 28.303c2.247 9.678 11.57 15.992 21.39 14.488 9.821-1.504 16.826-10.319 16.073-20.226C42.192 12.658 33.935 5.003 24 5a1 1 0 0 1 0-2c11.598 0 21 9.402 21 21s-9.402 21-21 21z" fill="#439cf8"></path><path d="M16 13h-3a1 1 0 0 1 0-2h3a1 1 0 0 1 0 2z" fill="#ffc306"></path><path d="M24 13h-4a1 1 0 0 1 0-2h4a1 1 0 0 1 0 2z" fill="#7dbf29"></path><path d="M31 13h-3a1 1 0 0 1 0-2h3a1 1 0 0 1 0 2z" fill="#886ade"></path><path d="M16 33h-3a1 1 0 0 1 0-2h3a1 1 0 0 1 0 2z" fill="#ffc306"></path><path d="M34 33H20a1 1 0 0 1 0-2h14a1 1 0 0 1 0 2z" fill="#7dbf29"></path><path d="M16 29h-3a1 1 0 0 1 0-2h3a1 1 0 0 1 0 2z" fill="#ffc306"></path><path d="M23 29h-3a1 1 0 0 1 0-2h3a1 1 0 0 1 0 2z" fill="#7dbf29"></path><path d="M31 29h-4a1 1 0 0 1 0-2h4a1 1 0 0 1 0 2z" fill="#886ade"></path><path d="M16 17h-3a1 1 0 0 1 0-2h3a1 1 0 0 1 0 2z" fill="#21b8ea"></path><path d="M35 17h-4a1 1 0 0 1 0-2h4a1 1 0 0 1 0 2zM31 25h-5a1 1 0 0 1 0-2h5a1 1 0 0 1 0 2z" fill="#886ade"></path><path d="M22 17h-2a1 1 0 0 1 0-2h2a1 1 0 0 1 0 2z" fill="#ffc306"></path><path d="M27 17h-1a1 1 0 0 1 0-2h1a1 1 0 0 1 0 2z" fill="#7dbf29"></path><path d="M16 37h-3a1 1 0 0 1 0-2h3a1 1 0 0 1 0 2z" fill="#21b8ea"></path><path d="M26 37h-1a1 1 0 0 1 0-2h1a1 1 0 0 1 0 2z" fill="#7dbf29"></path><path d="M31 37h-1a1 1 0 0 1 0-2h1a1 1 0 0 1 0 2z" fill="#886ade"></path><path d="M21 37h-1a1 1 0 0 1 0-2h1a1 1 0 0 1 0 2z" fill="#ffc306"></path><path d="M16 21h-3a1 1 0 0 1 0-2h3a1 1 0 0 1 0 2z" fill="#21b8ea"></path><path d="M22 21h-2a1 1 0 0 1 0-2h2a1 1 0 0 1 0 2zM16 25h-3a1 1 0 0 1 0-2h3a1 1 0 0 1 0 2z" fill="#ffc306"></path><path d="M22 25h-2a1 1 0 0 1 0-2h2a1 1 0 0 1 0 2zM27 21h-1a1 1 0 0 1 0-2h1a1 1 0 0 1 0 2z" fill="#7dbf29"></path><path d="M33 21h-2a1 1 0 0 1 0-2h2a1 1 0 0 1 0 2z" fill="#886ade"></path></g></g></svg>