<svg viewBox="0 0 512 512" xmlns="http://www.w3.org/2000/svg"><g><g clip-rule="evenodd" fill-rule="evenodd"><path d="M245.053 56.761h151.649c27.964 0 50.84 22.876 50.84 50.84V429.56c0 27.954-22.877 50.831-50.84 50.831H245.053c-27.964 0-50.84-22.876-50.84-50.831V107.601c0-27.964 22.877-50.84 50.84-50.84z" fill="#eceff1"></path><path d="M245.053 62.445c-24.906 0-45.155 20.26-45.155 45.156v283.998h241.959V107.601c0-24.896-20.25-45.156-45.155-45.156zm151.649 423.63H245.053c-31.169 0-56.525-25.346-56.525-56.515V107.601c0-31.169 25.356-56.525 56.525-56.525h151.649c31.168 0 56.525 25.356 56.525 56.525V429.56c0 31.169-25.357 56.515-56.525 56.515z" fill="#3f323e"></path><path d="M245.053 62.445c-12.141 0-23.173 4.816-31.295 12.634-10.835 8.257-17.839 21.291-17.839 35.932v283.998h245.938V107.601c0-24.896-20.25-45.156-45.155-45.156zm-38.679 3.977c9.585-7.476 21.631-11.936 34.701-11.936h151.649c31.169 0 56.525 25.357 56.525 56.525V432.97c0 16.218-6.867 30.856-17.843 41.171-9.585 7.475-21.632 11.934-34.703 11.934h-151.65c-31.169 0-56.525-25.346-56.525-56.515V107.601c0-16.219 6.868-30.862 17.846-41.179z" fill="#4e3d4d"></path><path d="M341.147 96.476h-40.539c-3.147 0-5.685-2.548-5.685-5.685s2.538-5.685 5.685-5.685h40.539c3.147 0 5.685 2.548 5.685 5.685s-2.539 5.685-5.685 5.685z" fill="#3f323e"></path><path d="M341.147 96.476h-40.539a5.682 5.682 0 0 1-5.685-5.685c0-.767.152-1.498.427-2.166a5.661 5.661 0 0 1 3.553-1.246h40.539a5.683 5.683 0 0 1 5.685 5.685c0 .767-.152 1.498-.427 2.166a5.663 5.663 0 0 1-3.553 1.246z" fill="#4e3d4d"></path><path d="M341.147 443.351h-40.539c-3.147 0-5.685-2.529-5.685-5.675s2.538-5.685 5.685-5.685h40.539a5.676 5.676 0 0 1 5.685 5.685 5.668 5.668 0 0 1-5.685 5.675z" fill="#d4d7d9"></path><path d="M341.147 443.351h-40.539a5.668 5.668 0 0 1-5.685-5.675c0-.511.068-1.007.193-1.478a5.669 5.669 0 0 1 4.213-1.863h40.539a5.676 5.676 0 0 1 5.685 5.685c0 .51-.067 1.003-.192 1.472a5.673 5.673 0 0 1-4.214 1.859z" fill="#eceff1"></path><path d="M371.318 348.668H339.76c-8.622 0-15.606-7.01-15.606-15.606v-31.54c0-8.596 6.984-15.607 15.606-15.607h31.558c8.622 0 15.607 7.01 15.607 15.607v31.54c0 8.597-6.984 15.606-15.607 15.606z" fill="#00cd8a"></path><path d="M355.54 276.379c-15.606 0-28.281-12.718-28.281-28.333 0-15.624 12.675-28.333 28.281-28.333 15.607 0 28.367 12.709 28.367 28.333 0 15.615-12.761 28.333-28.367 28.333z" fill="#e4404d"></path><path d="M306.306 346.022h-40.008c-4.139 0-7.846-2.13-9.916-5.682a11.632 11.632 0 0 1 0-11.382l20.09-34.705c2.069-3.561 5.691-5.691 9.829-5.691 4.139 0 7.76 2.13 9.829 5.691l20.09 34.705a11.632 11.632 0 0 1 0 11.382c-2.068 3.552-5.775 5.682-9.914 5.682z" fill="#e6bd5c"></path><path d="M302.081 279.414h-31.558c-8.622 0-15.606-7.001-15.606-15.598v-31.541c0-8.614 6.984-15.606 15.606-15.606h31.558c8.622 0 15.606 6.993 15.606 15.606v31.541c0 8.597-6.984 15.598-15.606 15.598z" fill="#56a5e6"></path><path d="M327.706 291.618a15.51 15.51 0 0 1 7.554-1.952h31.558c8.622 0 15.607 7.01 15.607 15.606v31.54c0 3.755-1.332 7.206-3.552 9.904a15.513 15.513 0 0 1-7.555 1.952H339.76c-8.622 0-15.606-7.01-15.606-15.606v-31.54c0-3.755 1.333-7.207 3.552-9.904z" fill="#00e499"></path><path d="M335.326 228.247a28.088 28.088 0 0 1 15.714-4.784c15.607 0 28.367 12.709 28.367 28.333 0 7.68-3.088 14.657-8.082 19.767a28.21 28.21 0 0 1-15.786 4.816c-15.606 0-28.281-12.718-28.281-28.333 0-7.698 3.079-14.688 8.068-19.799z" fill="#fd4755"></path><path d="M277.068 293.327a11.334 11.334 0 0 1 4.734-1.015c4.139 0 7.76 2.13 9.829 5.691l20.09 34.705a11.632 11.632 0 0 1 0 11.382 11.87 11.87 0 0 1-.566.879 11.545 11.545 0 0 1-4.85 1.053h-40.008c-4.139 0-7.846-2.13-9.916-5.682a11.632 11.632 0 0 1 0-11.382l20.09-34.705c.188-.321.387-.629.597-.926z" fill="#ffd266"></path><path d="M302.081 279.414h-31.558c-8.622 0-15.606-7.001-15.606-15.598v-31.541c0-3.759 1.33-7.209 3.546-9.904a15.533 15.533 0 0 1 7.561-1.952h31.558c8.622 0 15.606 6.993 15.606 15.606v31.54c0 3.752-1.331 7.2-3.547 9.895a15.523 15.523 0 0 1-7.56 1.954z" fill="#60b7ff"></path><path d="M177.279 207.601H108.11c-10.932 0-19.832-8.9-19.832-19.822 0-8.552-2.709-15.826-8.416-22.221-13.64-15.362-21.089-35.126-21.089-55.683 0-46.29 37.632-83.951 83.97-83.951 46.242 0 83.873 37.66 83.873 83.951 0 20.557-7.449 40.321-21.089 55.683-5.708 6.395-8.417 13.669-8.417 22.221 0 10.922-8.9 19.822-19.831 19.822z" fill="#e6bd5c"></path><path d="M177.279 207.601H108.11c-10.932 0-19.832-8.9-19.832-19.822 0-8.552-2.709-15.826-8.416-22.221-13.64-15.362-21.089-35.126-21.089-55.683 0-29.565 15.352-55.607 38.517-70.568 11.176-5.511 23.747-8.614 37.037-8.614 46.242 0 83.873 37.66 83.873 83.95 0 20.557-7.449 40.321-21.089 55.683-5.708 6.394-8.417 13.669-8.417 22.221 0 5.635-2.369 10.732-6.164 14.346a19.731 19.731 0 0 1-5.251.708z" fill="#ffd266"></path><path d="M177.376 226.765h-69.363c-3.096 0-5.611-2.515-5.611-5.611s2.515-5.611 5.611-5.611h69.363a5.615 5.615 0 0 1 5.611 5.611 5.615 5.615 0 0 1-5.611 5.611zm-13.544 38.319h-42.275a5.607 5.607 0 0 1-5.611-5.601 5.609 5.609 0 0 1 5.611-5.611h42.275a5.607 5.607 0 1 1 0 11.212zm13.544-19.154h-69.363a5.615 5.615 0 0 1-5.611-5.611 5.615 5.615 0 0 1 5.611-5.611h69.363a5.615 5.615 0 0 1 5.611 5.611 5.615 5.615 0 0 1-5.611 5.611z" fill="#3f323e"></path><path d="M177.376 226.765h-69.363a5.615 5.615 0 0 1-5.29-7.483 5.587 5.587 0 0 1 2.344-.513h69.362a5.615 5.615 0 0 1 5.29 7.483 5.58 5.58 0 0 1-2.343.513zm-61.11 30.844a5.606 5.606 0 0 1 2.345-.512h42.275a5.609 5.609 0 0 1 5.293 7.474 5.597 5.597 0 0 1-2.347.513h-42.275a5.607 5.607 0 0 1-5.291-7.475zm-13.542-19.162a5.584 5.584 0 0 1 2.344-.513h69.362a5.615 5.615 0 0 1 5.29 7.483 5.584 5.584 0 0 1-2.344.513h-69.363a5.615 5.615 0 0 1-5.289-7.483z" fill="#4e3d4d"></path><path d="M94.083 109.469c-.29 0-.484-.01-.774-.029-2.999-.377-5.224-3.183-4.836-6.259 2.708-21.621 17.896-39.576 38.792-45.71a5.582 5.582 0 0 1 6.965 3.792c.87 2.97-.774 6.095-3.773 6.965a43.383 43.383 0 0 0-30.86 36.326c-.387 2.844-2.709 4.915-5.514 4.915z" fill="#e6bd5c"></path><path d="M236.58 130.19c-8.416 0-15.285 6.849-15.285 15.285 0 8.426 6.868 15.285 15.285 15.285 8.416 0 15.285-6.859 15.285-15.285 0-8.435-6.868-15.285-15.285-15.285zm0 82.297c-3.289 0-6.481-.232-9.674-.697-6.578-.938-11.319-6.462-11.319-13.108 0-3.483-1.838-6.723-4.837-8.465-2.999-1.722-6.772-1.722-9.771.019-5.804 3.328-12.963 1.964-17.026-3.26-4.063-5.069-7.255-10.69-9.674-16.678-2.418-6.172-.097-13.06 5.708-16.387 2.999-1.722 4.934-4.963 4.934-8.436s-1.935-6.723-4.934-8.445c-5.805-3.318-8.126-10.216-5.708-16.378 2.419-5.998 5.611-11.618 9.674-16.687 4.063-5.214 11.222-6.588 17.026-3.251 2.999 1.732 6.772 1.742 9.771.01 2.999-1.741 4.837-4.982 4.837-8.465 0-6.646 4.74-12.17 11.319-13.108a67.555 67.555 0 0 1 19.251 0c6.578.939 11.415 6.462 11.318 13.108 0 3.483 1.935 6.724 4.934 8.465 2.999 1.722 6.675 1.722 9.771-.01 5.708-3.337 12.866-1.964 17.026 3.251 3.966 5.069 7.255 10.689 9.577 16.687 2.516 6.162.097 13.06-5.708 16.378-2.999 1.741-4.837 4.972-4.837 8.445s1.838 6.714 4.837 8.436c5.805 3.328 8.223 10.215 5.708 16.387-2.322 5.988-5.611 11.609-9.577 16.688-4.16 5.214-11.319 6.569-17.026 3.25-3.096-1.741-6.771-1.741-9.771-.019-2.999 1.741-4.934 4.982-4.934 8.465.097 6.646-4.74 12.17-11.318 13.108a66.348 66.348 0 0 1-9.577.697z" fill="#e4404d"></path><path d="M236.58 130.19c-4.167 0-7.955 1.68-10.717 4.4-5.027 2.504-8.495 7.696-8.495 13.69 0 8.426 6.868 15.285 15.285 15.285 4.166 0 7.952-1.681 10.714-4.4 5.028-2.506 8.497-7.701 8.497-13.689.001-8.436-6.867-15.286-15.284-15.286zm-51.709-27.283c3.772-1.746 8.283-1.631 12.182.612 2.999 1.732 6.772 1.742 9.771.01a9.644 9.644 0 0 0 2.551-2.151c.473-.18.933-.398 1.376-.654 2.999-1.741 4.837-4.982 4.837-8.465 0-3.57 1.369-6.816 3.655-9.202a13.38 13.38 0 0 1 3.737-1.102 67.555 67.555 0 0 1 19.251 0c6.578.939 11.415 6.462 11.319 13.108 0 3.483 1.935 6.724 4.934 8.465 2.999 1.722 6.675 1.722 9.77-.01 5.708-3.338 12.867-1.964 17.026 3.251 3.966 5.069 7.256 10.689 9.577 16.687 2.515 6.162.097 13.06-5.708 16.378-2.999 1.741-4.837 4.972-4.837 8.445s1.838 6.714 4.837 8.436c5.804 3.328 8.223 10.216 5.708 16.388-2.322 5.988-5.611 11.609-9.577 16.688-.283.355-.581.691-.891 1.011-3.814 1.786-8.344 1.682-12.208-.565-3.096-1.741-6.771-1.741-9.771-.019a9.95 9.95 0 0 0-2.587 2.167 9.695 9.695 0 0 0-1.339.638c-2.999 1.741-4.934 4.982-4.934 8.465a12.916 12.916 0 0 1-3.602 9.182c-1.172.546-2.445.93-3.79 1.122a66.706 66.706 0 0 1-19.251 0c-6.578-.938-11.319-6.462-11.319-13.108 0-3.483-1.838-6.723-4.837-8.465-2.999-1.722-6.772-1.722-9.771.019-5.804 3.328-12.963 1.964-17.026-3.26-4.063-5.069-7.255-10.69-9.674-16.678-2.418-6.172-.097-13.06 5.708-16.387 2.999-1.722 4.934-4.963 4.934-8.436s-1.935-6.723-4.934-8.445c-5.805-3.318-8.126-10.216-5.708-16.378 2.419-5.998 5.611-11.618 9.674-16.687.29-.375.597-.727.917-1.06z" fill="#fd4755"></path></g></g></svg>