<svg viewBox="0 0 512 512" xmlns="http://www.w3.org/2000/svg"><g><path d="M354.986 395.6a7.629 7.629 0 0 1-.27-15.252c101.628-3.667 127.602-68.493 133.26-89.472.276-1.02.52-1.923.74-2.694l.524-2.593c5.214-24.328-9.571-48.029-33.64-54.045-10.463-2.617-27.775 1.636-36.977 8.022-6.784 4.708-15.272 13.861-17.184 30.736a7.627 7.627 0 1 1-15.159-1.717c2.554-22.557 14.268-35.048 23.645-41.554 12.902-8.952 34.55-13.992 49.373-10.289 15.459 3.864 28.605 13.442 37.018 26.97 8.393 13.496 11.184 29.472 7.859 44.987l-.567 2.807a8.22 8.22 0 0 1-.153.619c-.221.758-.466 1.672-.75 2.723-2.79 10.345-9.325 34.569-29.39 56.436-24.795 27.023-70.322 42.586-118.051 44.308a4.28 4.28 0 0 1-.278.008z" fill="#b39a7c"></path><path d="M454.146 458.603c0 2.166-.539 4.302-1.597 6.397-13.242 26.475-107.689 47-222.243 47-123.626 0-223.85-23.901-223.85-53.397 0-10.303 12.246-19.935 33.472-28.102 39.473-15.175 109.977-25.285 190.377-25.285 123.628.001 223.841 23.902 223.841 53.387z" fill="#a78966"></path><path d="M454.146 458.603c0 2.166-.539 4.302-1.597 6.397-39.463 15.185-109.967 25.305-190.377 25.305-123.626 0-223.839-23.912-223.839-53.397 0-2.166.539-4.302 1.597-6.408 39.473-15.175 109.977-25.285 190.377-25.285 123.626.002 223.839 23.903 223.839 53.388z" fill="#b39a7c"></path><path d="M406.872 199.664v25.864c0 43.348-7.984 84.906-22.335 120.656-14.361 35.74-35.089 65.683-60.577 85.801-22.152 17.484-46.796 26.617-71.806 26.617h-47.437c-12.51 0-24.919-2.288-36.971-6.753-12.063-4.465-23.759-11.117-34.835-19.864-50.977-40.235-82.913-119.76-82.913-206.456v-25.864h356.874z" fill="#c0ab91"></path><path d="M406.872 199.664v25.864c0 43.348-7.984 84.906-22.335 120.656-14.361 35.74-35.089 65.683-60.577 85.801-22.152 17.484-46.796 26.617-71.806 26.617h-12.856c-12.51 0-24.919-2.288-36.971-6.753-12.063-4.465-23.759-11.117-34.835-19.864-50.976-40.236-82.913-119.761-82.913-206.457v-25.864h322.293z" fill="#d9ccbc"></path><path d="M406.872 199.664c0 6.967-5.045 13.588-14.158 19.609-2.553 1.688-5.421 3.316-8.584 4.902-20.057 10.049-52.054 17.941-90.581 22.193-14.829 1.637-30.614 2.716-47.05 3.183-5.94.163-11.961.254-18.063.254-4.526 0-9.011-.041-13.456-.142-18.104-.376-35.455-1.505-51.647-3.306-35.872-3.946-66.08-11.066-86.259-20.138-4.933-2.207-9.255-4.536-12.927-6.957-9.113-6.011-14.148-12.642-14.148-19.599 0-13.039 17.707-24.908 46.735-33.828 13.283-4.078 28.946-7.547 46.348-10.222 21.369-3.265 45.403-5.36 70.941-5.93 4.75-.112 9.561-.163 14.412-.163 6.397 0 12.703.092 18.918.285 23.861.702 46.318 2.726 66.436 5.808 19.945 3.061 37.591 7.15 52.003 12.032 25.661 8.698 41.08 19.855 41.08 32.019z" fill="#ebe5dd"></path><path d="M392.714 219.274c-2.553 1.688-5.421 3.316-8.584 4.902-20.057 10.049-52.054 17.941-90.581 22.193-13.863 1.536-28.56 2.573-43.846 3.082-1.068.041-2.136.071-3.204.102-5.94.163-11.961.254-18.063.254-4.526 0-9.011-.041-13.456-.142-18.104-.376-35.455-1.505-51.647-3.306-35.872-3.946-66.08-11.066-86.259-20.138-4.933-2.207-9.255-4.536-12.927-6.957 7.964-5.258 19.04-10.049 32.587-14.219 13.283-4.078 28.946-7.547 46.348-10.212 21.369-3.275 45.403-5.36 70.941-5.94 4.75-.112 9.561-.163 14.412-.163 6.397 0 12.703.102 18.918.285.814.02 1.638.051 2.451.081 22.945.763 44.558 2.746 63.985 5.736 19.945 3.051 37.591 7.15 52.003 12.032 10.984 3.724 20.087 7.894 26.922 12.41z" fill="#554431"></path><path d="M392.714 219.274c-2.553 1.688-5.421 3.316-8.584 4.902-20.057 10.049-52.054 17.941-90.581 22.193-13.863 1.536-28.56 2.573-43.846 3.082-15.185-.519-29.78-1.566-43.531-3.092-35.872-3.946-66.08-11.066-86.259-20.138l-.147-.066c-5.948-2.671-5.876-11.141.072-13.812 5.786-2.599 12.398-5.039 19.735-7.298 13.283-4.078 28.946-7.547 46.348-10.212 19.386-2.97 40.968-4.963 63.883-5.736 22.945.763 44.558 2.746 63.985 5.736 19.945 3.051 37.591 7.15 52.003 12.032 10.984 3.723 20.087 7.893 26.922 12.409z" fill="#6a563d"></path><path d="M198.232 36.162c0-4.214-3.415-7.628-7.628-7.628s-7.628 3.414-7.628 7.628c0 4.758-1.364 6.712-3.624 9.948-2.689 3.851-6.371 9.125-6.371 18.682s3.683 14.831 6.371 18.683c2.26 3.236 3.624 5.19 3.624 9.947 0 4.757-1.364 6.711-3.624 9.946-2.689 3.851-6.371 9.125-6.371 18.681a7.627 7.627 0 0 0 7.628 7.628 7.627 7.627 0 0 0 7.628-7.628c0-4.757 1.364-6.711 3.624-9.946 2.688-3.851 6.371-9.125 6.371-18.681 0-9.557-3.682-14.83-6.371-18.681-2.26-3.237-3.624-5.191-3.624-9.949s1.364-6.713 3.624-9.949c2.688-3.851 6.371-9.124 6.371-18.681zM273.897 64.792c0-4.759 1.364-6.713 3.624-9.949 2.689-3.851 6.371-9.124 6.371-18.681 0-4.214-3.414-7.628-7.628-7.628s-7.628 3.414-7.628 7.628c0 4.758-1.364 6.712-3.624 9.948-2.689 3.851-6.371 9.125-6.371 18.682s3.682 14.831 6.371 18.682c2.26 3.237 3.624 5.191 3.624 9.948 0 4.757-1.364 6.711-3.624 9.946-2.689 3.851-6.371 9.125-6.371 18.681 0 4.214 3.414 7.628 7.628 7.628s7.628-3.414 7.628-7.628c0-4.758 1.364-6.711 3.624-9.946 2.689-3.851 6.371-9.125 6.371-18.681 0-9.557-3.682-14.83-6.371-18.681-2.26-3.236-3.624-5.19-3.624-9.949zM241.061 7.628c0-4.214-3.415-7.628-7.628-7.628s-7.628 3.414-7.628 7.628c0 7.556-1.814 10.987-4.112 15.329-2.621 4.955-5.883 11.122-5.883 22.462s3.262 17.508 5.883 22.463c2.298 4.344 4.112 7.775 4.112 15.329s-1.814 10.983-4.112 15.326c-2.621 4.954-5.883 11.121-5.883 22.461 0 4.214 3.415 7.628 7.628 7.628s7.628-3.414 7.628-7.628c0-7.554 1.814-10.984 4.112-15.327 2.621-4.954 5.883-11.121 5.883-22.46 0-11.34-3.262-17.508-5.883-22.463-2.298-4.344-4.112-7.775-4.112-15.329s1.814-10.986 4.112-15.328c2.621-4.955 5.883-11.121 5.883-22.463z" fill="#ebe5dd"></path></g></svg>