<svg viewBox="0 0 70 70" xmlns="http://www.w3.org/2000/svg"><g><path d="M47.539 12.19 50.6 58.603c.195 2.968-1.684 5.411-4.202 5.411H8.242c-2.518 0-4.397-2.443-4.201-5.411l3.062-46.411c.144-2.196 1.984-3.96 4.11-3.96h32.215c2.126 0 3.966 1.764 4.11 3.96z" fill="#bf7d5a"></path><path d="M36.233 64.013H8.243c-2.519 0-4.398-2.443-4.202-5.411l2.717-41.186c-.102 10.373 2.831 35.17 29.475 46.597z" fill="#aa6256"></path><path d="M43.056 15.2c.991 11.981 1.665 24.926 1.98 38.957.057 2.514-1.621 4.532-3.78 4.532H13.264c-2.181 0-3.864-2.06-3.778-4.6.476-13.984 1.146-26.889 1.988-38.834.14-1.979 1.77-3.543 3.66-3.543h24.269c1.87 0 3.492 1.533 3.654 3.489z" fill="#ffffff"></path><path d="m37.392 8.81.124 3.748c.035 1.038-.755 1.885-1.764 1.885H18.887c-1.009 0-1.799-.847-1.764-1.885l.124-3.741c.034-1.013.86-1.826 1.844-1.826h2.134c.67 0 1.24-.464 1.435-1.113C23.155 4.232 24.67 3 26.498 3h1.643c1.801 0 3.337 1.211 3.838 2.878.195.649.766 1.113 1.435 1.113h2.134c.985 0 1.81.812 1.844 1.818z" fill="#423d9b"></path><g fill="#fff"><path d="M28.414 6.36a1.095 1.095 0 1 1-2.19 0c.003-.605.494-1.099 1.1-1.099a1.1 1.1 0 0 1 1.09 1.1zM8.203 25.706c.655-3.524.904-8.717.686-11.492-.55 2.783-.92 7.974-.686 11.492zM29.564 12.878c1.823.431 4.688.41 6.312 0-1.639-.407-4.484-.434-6.312 0z" fill="#ffffff"></path></g><path d="m23.793 25.832.053-5.432v-.008c.013-1.367-5.256-1.65-7.638-.888-.683.219-1.135.528-1.15.92l-.205 5.44c-.07 1.866 8.923 1.834 8.94-.032z" fill="#78e75a"></path><path d="M14.853 25.864c-.07 1.866 8.923 1.834 8.94-.032l.053-5.432c-.002.234-.164 6.661-8.993 5.464z" fill="#72d561"></path><path d="m18.109 24.748-.868-1.53a.614.614 0 0 1 .191-.803.517.517 0 0 1 .746.177l.52.911 2.025-2.102a.52.52 0 0 1 .767 0 .603.603 0 0 1-.015.816l-2.52 2.63a.522.522 0 0 1-.846-.1z" fill="#ffffff"></path><g fill="#cccff2"><path d="M38.712 21.078c.017.484-.328.865-.785.865H28.2c-.447 0-.817-.381-.817-.865 0-.472.367-.85.812-.85h9.675c.454 0 .825.378.842.85zM35.537 25.167c.013.497-.341.888-.804.888h-6.522c-.453 0-.827-.391-.827-.888 0-.484.372-.873.822-.873h6.487c.46 0 .831.389.844.873z" fill="#cccff2"></path></g><path d="m23.663 37.575.058-5.834v-.008c.013-1.467-5.444-1.771-7.912-.954-.708.235-1.177.567-1.193.987l-.22 5.843c-.075 2.006 9.25 1.972 9.267-.034z" fill="#b28afd"></path><path d="M14.395 37.61c-.074 2.005 9.25 1.97 9.268-.035l.058-5.834c-.002.251-.173 7.155-9.326 5.868z" fill="#986ff9"></path><path d="m17.772 36.41-.897-1.644a.675.675 0 0 1 .199-.861.525.525 0 0 1 .772.19l.539.978 2.1-2.258a.526.526 0 0 1 .794 0 .665.665 0 0 1-.016.876l-2.614 2.826a.53.53 0 0 1-.877-.107z" fill="#ffffff"></path><g fill="#cccff2"><path d="M39.124 32.469c.018.519-.34.929-.812.929h-10.08c-.464 0-.846-.41-.846-.93 0-.506.38-.912.84-.912H38.25c.47 0 .855.406.874.913zM35.838 36.86c.013.534-.353.955-.833.955h-6.761c-.47 0-.857-.42-.857-.954 0-.52.385-.938.851-.938h6.724c.476 0 .862.417.876.938z" fill="#cccff2"></path></g><path d="m23.524 50.213.062-6.283v-.009c.015-1.579-5.645-1.906-8.206-1.026-.735.253-1.222.61-1.239 1.062l-.238 6.292c-.08 2.163 9.601 2.125 9.621-.036z" fill="#fa5f7f"></path><path d="M13.903 50.25c-.08 2.162 9.601 2.124 9.621-.037l.062-6.283c-.002.27-.182 7.707-9.683 6.32z" fill="#f34b58"></path><path d="M37.06 43.094c-2.105 0-2.105 16.413 0 16.413l14.265 7.356V35.739z" fill="#febc1f"></path><path d="M37.056 43.094c-1.39 5.472-1.39 10.943 0 16.413l-4.457-.999c-2.646-.585-4.585-3.64-4.585-7.208 0-1.784.482-3.44 1.296-4.724.814-1.284 1.971-2.184 3.289-2.483z" fill="#57b3fe"></path><path d="m37.056 59.507-1.06-.243c-1.308-5.309-1.308-10.618 0-15.928l1.06-.242c-1.393 5.466-1.393 10.947 0 16.413z" fill="#497bfe"></path><path d="M58.304 51.3c0 8.678-2.755 15.7-6.166 15.7-3.397 0-6.151-7.022-6.151-15.7 0-8.677 2.754-15.7 6.151-15.7 3.411 0 6.166 7.023 6.166 15.7z" fill="#ffde9b"></path><path d="M56.563 51.3c0 7.05-1.97 12.76-4.425 12.76-2.07 0-3.796-4.082-4.267-9.62a34.464 34.464 0 0 1 0-6.28c.47-5.537 2.198-9.62 4.267-9.62 2.455 0 4.425 5.71 4.425 12.76z" fill="#febc1f"></path><path d="M53.55 51.299c0-2.47-3.079-4.253-5.448-5.127a35.415 35.415 0 0 0 0 10.254c2.37-.873 5.449-2.668 5.449-5.127z" fill="#ffffff"></path><g fill="#febc1f"><path d="m62.858 60.046-2.974-2.974a.865.865 0 0 1 0-1.215.86.86 0 0 1 1.214 0l2.975 2.974a.86.86 0 0 1-1.215 1.215zM62.858 42.557l-2.975 2.974a.865.865 0 0 0 0 1.214.86.86 0 0 0 1.215 0l2.975-2.974a.86.86 0 0 0-1.215-1.215zM65.115 52.16h-4.207c-.47 0-.86-.39-.86-.859a.86.86 0 0 1 .86-.859h4.207a.86.86 0 0 1 0 1.718z" fill="#febc1f"></path></g><path d="M29.536 48.27c1.146-1.393 2.32-2.554 3.936-3.388-1.822.176-3.396 1.682-3.936 3.389z" fill="#ffffff"></path><path d="M50.682 47.41c.809 1.771 2.052 5.993-2.58 9.016 5.632-2.074 7.562-5.907 2.58-9.015z" fill="#f3f1fc"></path></g></svg>