<svg viewBox="0 0 512 512" xmlns="http://www.w3.org/2000/svg"><g><g fill="#454045"><path d="M101.993 170.862c-17.459 0-31.663 14.204-31.663 31.663s14.204 31.663 31.663 31.663 31.663-14.204 31.663-31.663-14.204-31.663-31.663-31.663zM23.537 178.988C10.559 178.988 0 189.546 0 202.524c0 12.979 10.559 23.537 23.537 23.537s23.537-10.559 23.537-23.537-10.558-23.536-23.537-23.536zM309.476 154.167c-26.665 0-48.358 21.693-48.358 48.358s21.693 48.358 48.358 48.358c26.664 0 48.357-21.693 48.357-48.358s-21.693-48.358-48.357-48.358z" fill="#454045"></path><circle cx="202.525" cy="202.525" fill="#454045" r="48.358" transform="rotate(-13.34 202.096 202.477)"></circle><path d="M309.476 261.117c-26.665 0-48.358 21.693-48.358 48.358s21.693 48.358 48.358 48.358c26.664 0 48.357-21.693 48.357-48.358 0-26.664-21.693-48.358-48.357-48.358zM410.007 170.862c-17.459 0-31.663 14.204-31.663 31.663s14.204 31.663 31.663 31.663 31.663-14.204 31.663-31.663-14.204-31.663-31.663-31.663zM488.463 226.062c12.979 0 23.537-10.559 23.537-23.537s-10.559-23.537-23.537-23.537-23.537 10.559-23.537 23.537 10.558 23.537 23.537 23.537z" fill="#454045"></path><circle cx="202.525" cy="309.475" fill="#454045" r="48.358" transform="rotate(-45 202.484 309.536)"></circle><path d="M101.993 277.813c-17.459 0-31.663 14.204-31.663 31.663s14.204 31.663 31.663 31.663 31.663-14.204 31.663-31.663-14.204-31.663-31.663-31.663zM23.537 285.938C10.559 285.938 0 296.497 0 309.476c0 12.978 10.559 23.537 23.537 23.537s23.537-10.559 23.537-23.537c0-12.979-10.558-23.538-23.537-23.538zM410.007 277.813c-17.459 0-31.663 14.204-31.663 31.663s14.204 31.663 31.663 31.663 31.663-14.204 31.663-31.663-14.204-31.663-31.663-31.663zM488.463 285.938c-12.979 0-23.537 10.559-23.537 23.537s10.559 23.537 23.537 23.537S512 322.454 512 309.476c0-12.979-10.559-23.538-23.537-23.538zM309.476 133.656c17.459 0 31.662-14.204 31.662-31.663S326.935 70.33 309.476 70.33s-31.663 14.204-31.663 31.663 14.204 31.663 31.663 31.663z" fill="#454045"></path><circle cx="410.007" cy="101.993" fill="#454045" r="31.663"></circle><path d="M101.993 378.344c-17.459 0-31.663 14.204-31.663 31.663s14.204 31.663 31.663 31.663 31.663-14.204 31.663-31.663-14.204-31.663-31.663-31.663zM410.007 378.344c-17.459 0-31.663 14.204-31.663 31.663s14.204 31.663 31.663 31.663 31.663-14.204 31.663-31.663-14.204-31.663-31.663-31.663zM101.993 70.331c-17.459 0-31.663 14.204-31.663 31.663s14.204 31.663 31.663 31.663 31.663-14.204 31.663-31.663-14.204-31.663-31.663-31.663z" fill="#454045"></path><circle cx="309.476" cy="23.537" fill="#454045" r="23.537"></circle><path d="M309.476 378.344c-17.459 0-31.663 14.204-31.663 31.663s14.204 31.663 31.663 31.663 31.662-14.204 31.662-31.663-14.203-31.663-31.662-31.663z" fill="#454045"></path><circle cx="309.476" cy="488.463" fill="#454045" r="23.537"></circle><path d="M202.524 133.656c17.459 0 31.663-14.204 31.663-31.663S219.983 70.33 202.524 70.33s-31.663 14.204-31.663 31.663 14.204 31.663 31.663 31.663zM202.524 47.074c12.979 0 23.537-10.559 23.537-23.537C226.062 10.559 215.503 0 202.524 0c-12.978 0-23.537 10.559-23.537 23.537.001 12.978 10.559 23.537 23.537 23.537zM202.524 378.344c-17.459 0-31.663 14.204-31.663 31.663s14.204 31.663 31.663 31.663 31.663-14.204 31.663-31.663-14.204-31.663-31.663-31.663zM202.524 464.926c-12.978 0-23.537 10.559-23.537 23.537S189.546 512 202.524 512c12.979 0 23.537-10.559 23.537-23.537s-10.558-23.537-23.537-23.537z" fill="#454045"></path></g></g></svg>