<svg viewBox="0 0 512 512" xmlns="http://www.w3.org/2000/svg"><g><path d="M461.867 408.253C494.411 364.444 512 311.574 512 256c0-68.38-26.628-132.667-74.98-181.02C388.667 26.629 324.38 0 256 0v30c60.367 0 117.121 23.508 159.806 66.194C458.492 138.88 482 195.633 482 256c0 48.763-15.347 95.163-43.742 133.7l-3.439-39.309-29.886 2.614 7.844 89.657 89.658-7.844-2.614-29.886z" fill="#24b3b3"></path><path d="M30 256c0-48.763 15.347-95.163 43.742-133.7l3.439 39.309 29.886-2.614-7.844-89.657-89.658 7.843 2.614 29.886 37.953-3.32C17.589 147.556 0 200.426 0 256c0 68.38 26.628 132.667 74.98 181.02C123.333 485.371 187.62 512 256 512v-30c-60.367 0-117.121-23.508-159.806-66.194C53.508 373.12 30 316.367 30 256z" fill="#2ee6a8"></path><path d="M377 256c0-7.806-.752-15.439-2.171-22.838l29.416-9.558-9.271-28.531-29.434 9.564a121.622 121.622 0 0 0-26.869-36.904l18.22-25.078-24.271-17.634-18.198 25.048A120.081 120.081 0 0 0 271 135.929V105h-15l-20 151 20 151h15v-30.929a120.1 120.1 0 0 0 43.422-14.14l18.198 25.048 24.271-17.634-18.22-25.078a121.593 121.593 0 0 0 26.869-36.904l29.434 9.564 9.271-28.531-29.416-9.558A121.153 121.153 0 0 0 377 256z" fill="#283366"></path><path d="M241 105v30.929a120.1 120.1 0 0 0-43.422 14.14l-18.198-25.048-24.271 17.634 18.22 25.078a121.593 121.593 0 0 0-26.869 36.904l-29.434-9.564-9.271 28.531 29.416 9.558a121.153 121.153 0 0 0 0 45.676l-29.416 9.558 9.271 28.531 29.434-9.564a121.622 121.622 0 0 0 26.869 36.904l-18.22 25.078 24.271 17.634 18.198-25.048A120.081 120.081 0 0 0 241 376.071V407h15V105z" fill="#404a80"></path><path d="m256 165-20 91 20 91c50.178 0 91-40.822 91-91s-40.822-91-91-91z" fill="#101040"></path><path d="M165 256c0 50.178 40.822 91 91 91V165c-50.178 0-91 40.822-91 91z" fill="#283366"></path><path d="m256 210-20 46 20 46c25.405 0 46-20.595 46-46s-20.595-46-46-46z" fill="#cfcfe6"></path><path d="M210 256c0 25.405 20.595 46 46 46v-92c-25.405 0-46 20.595-46 46z" fill="#ece6f2"></path></g></svg>