<svg viewBox="0 0 512 512" xmlns="http://www.w3.org/2000/svg"><g><path d="M235.926 226.016a7.724 7.724 0 0 1-7.724-7.724v-27.805a7.724 7.724 0 1 1 15.448 0v27.805a7.725 7.725 0 0 1-7.724 7.724zM212.536 234.424a7.695 7.695 0 0 1-5.461-2.263L187.414 212.5a7.723 7.723 0 0 1 10.922-10.922l19.661 19.661a7.723 7.723 0 0 1 0 10.922 7.689 7.689 0 0 1-5.461 2.263zM258.411 236.609a7.695 7.695 0 0 1-5.461-2.263 7.723 7.723 0 0 1 0-10.922l19.66-19.661a7.724 7.724 0 0 1 10.923 10.922l-19.661 19.661a7.695 7.695 0 0 1-5.461 2.263z" fill="#ffd15c"></path><path d="m138.63 50.944 24.334 75.486H138.63v13.784c0 26.825-21.746 48.572-48.572 48.572H88.44c-27.719 0-50.189-22.47-50.189-50.189V50.944l58.672-28.021 41.707 28.021z" fill="#ffdc8d"></path><path d="M100.495 187.658a48.357 48.357 0 0 1-10.432 1.133h-1.617c-27.723 0-50.194-22.471-50.194-50.194v-87.65l22.656-10.824v98.473c0 24.089 16.961 44.201 39.587 49.062z" fill="#e8c57e"></path><path d="M84.982 0C56.847 0 34.038 22.808 34.038 50.944v39.869c22.019 0 39.869-17.85 39.869-39.869h64.6c28.135 0 50.944-22.808 50.944-50.944H84.982z" fill="#f4a14e"></path><path d="M62.874 50.944C62.874 22.808 85.682 0 113.818 0H84.982C56.847 0 34.038 22.808 34.038 50.944v39.869c11.345 0 21.575-4.747 28.835-12.353V50.944z" fill="#e28d40"></path><path d="M49.467 95.824c-6.986-6.986-18.314-6.986-25.3 0s-6.986 18.314 0 25.3c6.986 6.986 18.314 6.986 25.3 0" fill="#e8c57e"></path><path d="M114.552 156.718c-16.421 0-29.78-13.359-29.78-29.78a7.724 7.724 0 1 1 15.448 0c0 7.903 6.429 14.332 14.332 14.332a7.724 7.724 0 1 1 0 15.448z" fill="#ffffff"></path><path d="M121.553 101.72a7.724 7.724 0 0 1-7.724-7.724V83.845a7.724 7.724 0 1 1 15.448 0v10.151a7.724 7.724 0 0 1-7.724 7.724z" fill="#494b5b"></path><path d="M152.172 262.959v7.302l-4.665 47.074-.288 2.956c-.546 4.377-1.133 8.888-1.761 13.501-9.907 72.882-29.742 170.48-52.625 170.48-22.852 0-42.687-97.423-52.594-170.284a1206.518 1206.518 0 0 1-2.214-17.188c-2.914-24.026-4.521-43.758-4.521-53.84 0-40.967 26.56-74.169 59.329-74.169 32.779-.001 59.339 33.201 59.339 74.168z" fill="#5c5e70"></path><path d="M152.178 262.959v7.302l-4.954 50.03c-.216 1.73-.443 3.491-.669 5.262l-.968.247c-32.327 8.239-59.411 7.961-78.041 5.767-17.425-2.049-27.456-5.767-27.456-5.767l-.999-.443c-3.584-27.857-5.592-51.142-5.592-62.398 0-40.318 25.725-73.108 57.774-74.148.536-.01 1.05-.021 1.565-.021 32.77 0 59.34 33.202 59.34 74.169z" fill="#4bc999"></path><path d="M92.833 504.271c-22.852 0-42.687-97.423-52.594-170.284a1206.518 1206.518 0 0 1-2.214-17.188c-2.914-24.026-4.521-43.758-4.521-53.84 0-40.967 26.56-74.169 59.329-74.169-16.107 0-29.165 33.202-29.165 74.169 0 10.082.783 29.814 2.214 53.84.33 5.52.7 11.277 1.092 17.188 4.871 72.861 14.623 170.284 25.859 170.284z" fill="#494b5b"></path><path d="M64.487 262.959c0 12.08 1.102 38.022 3.059 68.608-17.425-2.049-27.456-5.767-27.456-5.767l-.999-.443c-3.584-27.857-5.592-51.142-5.592-62.398 0-40.318 25.725-73.108 57.774-74.148.536-.01 1.05-.021 1.565-.021-15.653 0-28.351 33.202-28.351 74.169z" fill="#41b787"></path><path d="M95.249 496.57c10.865-50.861 9.349-104.076 8.242-124.075-.24-4.333 3.441-7.858 7.76-7.445a7.095 7.095 0 0 1 6.386 7.738l-.06.627c-.864 9.029-1.689 18.505-2.562 28.538-2.167 24.895-4.407 50.639-7.384 70.444-1.709 11.364-3.536 20.558-6.056 27.215-3.026 7.989-6.326-3.042-6.326-3.042z" fill="#494b5b"></path><path d="M237 279.117c-3.563 2.348-8.352 1.359-10.7-2.194l-5.952-9.011a2.94 2.94 0 0 0-3.862-.978l-12.379 6.684-59.133 31.935a7.728 7.728 0 0 1-9.443-1.658l-65.096-73.119c-2.832-3.193-2.544-8.074.639-10.906 3.182-2.842 8.064-2.554 10.906.628l61.028 68.556 54.53-29.433 11.617-6.272c8.445-4.562 18.805-1.967 24.088 6.045l5.952 9.021c2.346 3.555 1.358 8.344-2.195 10.702z" fill="#41b787"></path><path d="M357.347 230.612 288.142 312.7a7.752 7.752 0 0 1-5.911 2.75c-.072 0-.154 0-.237-.01a7.724 7.724 0 0 1-5.963-3.11l-27.363-36.827-4.037-5.438a2.956 2.956 0 0 0-4.078-.649l-13.1 9.361a7.729 7.729 0 0 1-10.782-1.792c-2.472-3.471-1.668-8.301 1.802-10.772l13.1-9.361c8.105-5.788 19.526-3.996 25.458 3.996l1.277 1.72 24.304 32.718 62.923-74.622a7.722 7.722 0 0 1 10.885-.927c3.254 2.749 3.676 7.621.927 10.875z" fill="#ff525d"></path><path d="m147.507 317.335-.288 2.956c-.546 4.377-1.133 8.888-1.761 13.501-20.792 5.118-39.443 6.848-55.138 6.848-25.622 0-43.428-4.603-50.081-6.653a1206.518 1206.518 0 0 1-2.214-17.188l4.737 1.761c.721.257 41.956 14.778 100.914-.247l3.831-.978z" fill="#797b89"></path><path d="M123.978 511.997H78.142a7.724 7.724 0 1 1 0-15.448h45.836a7.724 7.724 0 1 1 0 15.448z" fill="#494b5b"></path><path d="M466.297 410.092a7.755 7.755 0 0 0 2.863.546 7.71 7.71 0 0 0 7.168-4.851c4.408-11.019 7.765-21.575 10.278-31.616 8.589-34.355 7.219-62.594 3.903-81.841-4.706-27.322-14.201-43.047-14.603-43.696a7.707 7.707 0 0 0-10.618-2.554 7.725 7.725 0 0 0-2.564 10.607c.175.299 8.599 14.541 12.698 39.072 2.904 17.373 4.037 42.8-3.615 73.881-2.358 9.619-5.561 19.783-9.814 30.411-1.587 3.955.339 8.455 4.304 10.041z" fill="#ef4152"></path><path d="M455.634 50.946v87.65c0 27.723-22.471 50.194-50.194 50.194h-1.617c-20.525 0-38.073-12.729-45.179-30.72a47.96 47.96 0 0 1-3.347-16.127 32.215 32.215 0 0 1-.041-1.73v-13.779H330.92l24.335-75.487 41.698-28.022 58.681 28.021z" fill="#c19157"></path><path d="M393.386 187.662a48.357 48.357 0 0 0 10.432 1.133h1.617c27.723 0 50.194-22.471 50.194-50.194v-87.65l-22.656-10.824V138.6c0 24.089-16.961 44.202-39.587 49.062z" fill="#a5733c"></path><path d="M444.415 95.828c6.986-6.986 18.314-6.986 25.3 0 6.986 6.986 6.986 18.314 0 25.3-6.986 6.986-18.314 6.986-25.3 0" fill="#a5733c"></path><path d="M386.315 141.685c-5.386 10.721-16.405 16.776-27.672 16.385a47.96 47.96 0 0 1-3.347-16.127c6.601 2.152 13.996-.793 17.219-7.188 1.915-3.81 6.56-5.355 10.37-3.44a7.723 7.723 0 0 1 3.43 10.37z" fill="#ffffff"></path><path d="M377.478 101.724A7.724 7.724 0 0 0 385.202 94V83.85a7.724 7.724 0 1 0-15.448 0v10.151a7.724 7.724 0 0 0 7.724 7.723z" fill="#494b5b"></path><path d="M331.259 262.962c0 9.433 1.761 27.311 4.974 49.237.371 2.523.752 5.098 1.164 7.724.391 2.533.803 5.108 1.226 7.724 10.937 66.909 33.006 158.554 59.092 174.28 2.533 1.534 5.118 2.348 7.724 2.348 2.605 0 5.19-.814 7.724-2.348 26.086-15.726 48.155-107.371 59.092-174.28.422-2.616.834-5.19 1.226-7.724.412-2.626.793-5.201 1.164-7.724 3.213-21.925 4.974-39.803 4.974-49.237 0-40.967-33.212-74.169-74.179-74.169-40.969 0-74.181 33.202-74.181 74.169z" fill="#5c5e70"></path><path d="M405.439 504.276c30.452 0 56.621-110.697 68.041-184.352 3.955-25.427 6.138-46.446 6.138-56.96 0-40.967-33.212-74.169-74.179-74.169 22.1 0 40.02 33.202 40.02 74.169 0 10.515-1.174 31.534-3.306 56.96-6.169 73.655-20.288 184.352-36.714 184.352z" fill="#494b5b"></path><path d="M331.26 262.964c0 10.515 2.183 31.534 6.138 56.96h136.083c3.955-25.427 6.138-46.446 6.138-56.96 0-40.967-33.212-74.169-74.179-74.169-40.968 0-74.18 33.202-74.18 74.169z" fill="#ff525d"></path><path d="M445.459 262.964c0 10.515-1.174 31.534-3.306 56.96h31.328c3.955-25.427 6.138-46.446 6.138-56.96 0-40.967-33.212-74.169-74.179-74.169 22.1 0 40.019 33.202 40.019 74.169z" fill="#ef4152"></path><path d="M450.002 203.666c-12.41-9.341-27.837-14.871-44.561-14.871l23.048 45.189 21.513-30.318z" fill="#ff6e7c"></path><path d="M360.87 203.666v.01l21.524 30.308 23.048-45.189c-16.725 0-32.163 5.531-44.572 14.871z" fill="#ff6e7c"></path><path d="M397.714 361.981v139.945c2.533 1.534 5.118 2.348 7.724 2.348 2.605 0 5.19-.814 7.724-2.348V361.981a7.72 7.72 0 0 0-7.724-7.724 7.728 7.728 0 0 0-7.724 7.724z" fill="#494b5b"></path><path d="M336.233 312.199c.371 2.523.752 5.098 1.164 7.724.391 2.533.803 5.108 1.226 7.724h133.632c.422-2.616.834-5.19 1.226-7.724.412-2.626.793-5.201 1.164-7.724H336.233z" fill="#797b89"></path><path d="M406.128 238.524c7.094 0 10.396-9.166 4.904-13.692-2.548-2.1-6.277-2.309-9.06-.539-2.816 1.792-4.179 5.35-3.283 8.561.921 3.299 4.004 5.67 7.439 5.67z" fill="#ffffff"></path><path d="M367.844 512h75.194a7.724 7.724 0 1 0 0-15.448h-75.194a7.724 7.724 0 1 0 0 15.448z" fill="#3a3c49"></path><path d="M466.297 410.092a7.755 7.755 0 0 0 2.863.546 7.71 7.71 0 0 0 7.168-4.851c4.408-11.019 7.765-21.575 10.278-31.616l-14.799-4.531c-2.358 9.619-5.561 19.783-9.814 30.411-1.587 3.955.339 8.455 4.304 10.041z" fill="#c19157"></path><path d="M329.903 0H408.9c28.135 0 50.944 22.808 50.944 50.944v39.869c-22.019 0-39.869-17.85-39.869-39.869h-90.072c-14.068 0-25.472-11.404-25.472-25.472C304.431 11.404 315.835 0 329.903 0z" fill="#5c5e70"></path><path d="M408.9 0h-22.656c28.135 0 50.944 22.808 50.944 50.944v32.8a39.676 39.676 0 0 0 22.656 7.069V50.944C459.844 22.809 437.035 0 408.9 0z" fill="#494b5b"></path><path d="m258.307 262.568-9.639 12.935-4.037-5.438a2.956 2.956 0 0 0-4.078-.649l-13.1 9.361a7.729 7.729 0 0 1-10.782-1.792c-2.472-3.471-1.668-8.301 1.802-10.772l13.1-9.361c8.105-5.788 19.526-3.996 25.458 3.996l1.276 1.72z" fill="#c19157"></path><path d="M237 279.117c-3.563 2.348-8.352 1.359-10.7-2.194l-5.952-9.011a2.94 2.94 0 0 0-3.862-.978l-12.379 6.684-6.57-13.996 11.617-6.272c8.445-4.562 18.805-1.967 24.088 6.045l5.952 9.021c2.347 3.554 1.359 8.343-2.194 10.701z" fill="#ffdc8d"></path></g></svg>