<svg viewBox="0 0 512 512" xmlns="http://www.w3.org/2000/svg"><g><path d="M256 22C121.383 22 12.141 130.575 11.026 264.929l2.823 1.211c155.091 66.519 330.208 68.937 487.076 6.724.046-1.95.074-3.904.074-5.864C501 131.69 391.31 22 256 22z" fill="#fef0ae"></path><path d="M410.557 242.137C451.469 254.998 474 271.948 474 289.864v17.805c0 2.359-.416 4.768-1.237 7.158l-.456 1.325h23.758a245.786 245.786 0 0 0 4.861-43.288c-7.921-9.158-19.432-15.125-32.348-15.706a45.368 45.368 0 0 0 2.922-16.052c0-25.129-20.371-45.5-45.5-45.5a45.307 45.307 0 0 0-28.726 10.22 45.283 45.283 0 0 0-26.774-8.72c-19.206 0-35.62 11.906-42.297 28.734 30.647 3.36 58.734 8.871 82.354 16.297zM39.693 316.152l-.456-1.325c-.82-2.389-1.237-4.797-1.237-7.158v-17.805c0-17.916 22.531-34.866 63.443-47.727 26.092-8.202 57.632-14.071 92.057-17.281-6.543-17.101-23.098-29.25-42.5-29.25a45.307 45.307 0 0 0-28.726 10.22 45.28 45.28 0 0 0-26.774-8.72c-25.129 0-45.5 20.371-45.5 45.5 0 2.304.175 4.568.505 6.78a45.955 45.955 0 0 0-5.005-.28c-13.786 0-26.13 6.139-34.474 15.823-.006.691-.026 1.379-.026 2.071 0 16.836 1.709 33.271 4.944 49.152z" fill="#4fc123"></path><path d="M472.662 315.152c-5.37 15.113-26.94 29.189-62.105 40.244-41.27 12.973-96.159 20.118-154.557 20.118s-113.287-7.145-154.557-20.118c-35.165-11.055-56.735-25.131-62.105-40.244H15.743C38.116 427.402 137.173 512 256 512s217.884-84.598 240.257-196.848z" fill="#80d261"></path><path d="M146.5 427h-23a7.5 7.5 0 0 1 0-15h23a7.5 7.5 0 0 1 0 15z" fill="#68ca44"></path><path d="M256.5 473h-23a7.5 7.5 0 0 1 0-15h23a7.5 7.5 0 0 1 0 15z" fill="#4fc123"></path><path d="M280.5 420h-23a7.5 7.5 0 0 1 0-15h23a7.5 7.5 0 0 1 0 15z" fill="#68ca44"></path><path d="M392.5 433h-23a7.5 7.5 0 0 1 0-15h23a7.5 7.5 0 0 1 0 15z" fill="#4fc123"></path><path d="M62 401.02h22.203c.263 0 .519.029.768.078v-51.493c-9.209-3.62-17.151-7.482-23.74-11.536v63.029a3.98 3.98 0 0 1 .769-.078z" fill="#acacac"></path><path d="M71.26 343.571c-3.623-1.79-6.978-3.624-10.029-5.502v63.029c.249-.049.505-.078.769-.078h9.26z" fill="#9c9c9c"></path><path d="M84.202 400.02H62a5 5 0 0 0-5 5v4.903a246.253 246.253 0 0 0 18.603 22.837h8.599a5 5 0 0 0 5-5v-22.74a5 5 0 0 0-5-5z" fill="#5a5a5a"></path><path d="M67.798 405.02a5 5 0 0 1 5-5H62a5 5 0 0 0-5 5v4.903c3.429 4.766 7.044 9.385 10.798 13.886z" fill="#444444"></path><path d="M427.798 401.02H450c.263 0 .52.029.769.078v-63.029c-6.589 4.054-14.531 7.916-23.74 11.536v51.493c.249-.049.505-.078.769-.078z" fill="#acacac"></path><path d="M437.26 345.239a187.47 187.47 0 0 1-10.231 4.366v51.493a3.98 3.98 0 0 1 .769-.078h9.462z" fill="#9c9c9c"></path><path d="M455 409.923v-4.903a5 5 0 0 0-5-5h-22.202a5 5 0 0 0-5 5v22.74a5 5 0 0 0 5 5h8.599A246.253 246.253 0 0 0 455 409.923z" fill="#5a5a5a"></path><path d="M433 427.76v-22.74a5 5 0 0 1 5-5h-10.202a5 5 0 0 0-5 5v22.74a5 5 0 0 0 5 5h8.599c.068-.074.132-.15.2-.224-2.074-.61-3.597-2.505-3.597-4.776z" fill="#444444"></path><path d="M177.797 432.26H200c.263 0 .52.029.769.078v-59.027a602.474 602.474 0 0 1-23.74-2.396v61.423c.249-.049.505-.078.768-.078z" fill="#acacac"></path><path d="M187.26 372.058a579.14 579.14 0 0 1-10.231-1.144v61.423c.249-.049.505-.078.768-.078h9.463z" fill="#9c9c9c"></path><path d="M200 464h-22.202a5 5 0 0 1-5-5v-22.74a5 5 0 0 1 5-5H200a5 5 0 0 1 5 5V459a5 5 0 0 1-5 5z" fill="#5a5a5a"></path><path d="M183 459v-22.74a5 5 0 0 1 5-5h-10.202a5 5 0 0 0-5 5V459a5 5 0 0 0 5 5H188a5 5 0 0 1-5-5z" fill="#444444"></path><path d="M312 432.26h22.202c.263 0 .52.029.769.078v-61.423a602.474 602.474 0 0 1-23.74 2.396v59.027a3.98 3.98 0 0 1 .769-.078z" fill="#acacac"></path><path d="M321.26 372.407c-3.318.324-6.658.629-10.029.903v59.027c.249-.049.505-.078.769-.078h9.26z" fill="#9c9c9c"></path><path d="M334.202 464H312a5 5 0 0 1-5-5v-22.74a5 5 0 0 1 5-5h22.202a5 5 0 0 1 5 5V459a5 5 0 0 1-5 5z" fill="#5a5a5a"></path><path d="M317.798 459v-22.74a5 5 0 0 1 5-5H312a5 5 0 0 0-5 5V459a5 5 0 0 0 5 5h10.798a5 5 0 0 1-5-5z" fill="#444444"></path><path d="M474 289.864c0 17.916-22.531 34.866-63.443 47.727-41.27 12.973-96.158 20.118-154.557 20.118-58.398 0-113.287-7.145-154.557-20.118C60.531 324.73 38 307.78 38 289.864h-1v17.805c0 38.022 98.05 68.846 219 68.846s219-30.823 219-68.846v-17.805z" fill="#fac600"></path><ellipse cx="256" cy="289.864" fill="#fedf30" rx="219" ry="68.846"></ellipse><ellipse cx="256" cy="292.488" fill="#5a5a5a" rx="170.813" ry="44.512"></ellipse><path d="M127 292.488c0-22.739 65.432-41.493 149.906-44.18a657.76 657.76 0 0 0-20.906-.332c-94.337 0-170.813 19.929-170.813 44.512S161.663 337 256 337c7.078 0 14.054-.114 20.906-.332C192.432 333.981 127 315.227 127 292.488z" fill="#444444"></path><path d="M246.6 275.893a10.793 10.793 0 0 0-5.103-2.86l-35.084-43.311a2.612 2.612 0 0 1 .27-3.57l6.771-6.174-17.579-19.278-6.771 6.174c-11.215 10.227-12.516 27.476-2.963 39.269l33.494 41.349-1.814 1.814c-4.243 4.243-4.243 11.122 0 15.365s11.122 4.243 15.365 0l13.414-13.414c4.243-4.242 4.243-11.121 0-15.364z" fill="#ffbd86"></path><path d="M228.034 303.637c-3.407-4.368-2.744-10.673 1.173-14.591a2.441 2.441 0 0 0 .171-3.262l-36.573-45.15c-7.061-8.717-6.102-21.426 2.187-28.985l5.934-5.411-5.051-5.54-6.771 6.174c-11.23 10.24-12.53 27.46-2.963 39.27l33.494 41.349-1.583 1.583c-4.05 4.05-4.541 10.619-.812 14.967 3.559 4.149 9.413 4.897 13.817 2.272a10.923 10.923 0 0 1-3.023-2.676z" fill="#f6a96c"></path><path d="M331.129 263.017a10.824 10.824 0 0 0-3.693-2.421c-.177-.174-.346-.353-.535-.518l-40.756-35.707h-30.006a28.693 28.693 0 0 0 9.338 16.579l38.566 33.788-1.693 1.693c-4.243 4.243-4.243 11.122 0 15.365s11.122 4.243 15.365 0l13.414-13.414c4.243-4.243 4.243-11.122 0-15.365z" fill="#ffbd86"></path><path d="M310.741 288.913c-3.307-4.358-2.659-10.557 1.209-14.425.804-.804.76-2.12-.095-2.869l-36.987-32.404a28.7 28.7 0 0 1-8.706-13.801h-9.827a28.697 28.697 0 0 0 9.14 15.535l38.566 33.788-1.431 1.431c-4.174 4.174-4.566 11-.552 15.327 3.84 4.139 10.069 4.576 14.43 1.34a10.843 10.843 0 0 1-5.747-3.922z" fill="#f6a96c"></path><path d="M221.984 45.874h2.877V40.7a4.223 4.223 0 0 1 4.218-4.218h52.178a4.223 4.223 0 0 1 4.218 4.218v5.174h2.878c1.382 0 2.687.318 3.862.87v-9.697C292.216 16.586 275.629 0 255.169 0s-37.047 16.586-37.047 37.047v9.697a9.041 9.041 0 0 1 3.862-.87z" fill="#5a5a5a"></path><path d="M221.985 44.874h1.877V40.7a5.218 5.218 0 0 1 5.218-5.218h9.947c.671-16.145 11.68-29.614 26.578-33.981A37.029 37.029 0 0 0 255.169 0c-20.46 0-37.047 16.586-37.047 37.047v8.594a10.072 10.072 0 0 1 3.863-.767z" fill="#444444"></path><path d="M224.905 54.278v-9.405h-2.921c-5.591 0-10.124 4.533-10.124 10.124s4.533 10.124 10.124 10.124h4.883a30.999 30.999 0 0 1-1.962-10.843z" fill="#ffbd86"></path><path d="M288.353 44.874h-2.921V54.93c0 3.528-.6 6.964-1.751 10.192h4.672c5.591 0 10.124-4.533 10.124-10.124 0-5.592-4.533-10.124-10.124-10.124z" fill="#f6a96c"></path><path d="M220.687 92.436c0-1.871.554-3.612 1.498-5.081l-47.979-47.979a5.217 5.217 0 0 1-1.528-3.69V20.849a4.401 4.401 0 0 0-5.283-4.31c-2.088.408-3.51 2.372-3.51 4.499 0 .78-.943 1.17-1.494.619l-4.945-4.945a8.489 8.489 0 0 0-12.005 0l-8.657 8.657a8.489 8.489 0 0 0 0 12.005l11.737 11.737a11.396 11.396 0 0 0 7.485 3.334c1.234.065 2.387.635 3.26 1.508l61.423 61.423v-22.94z" fill="#ffbd86"></path><path d="M219.687 104.003 163.13 47.446c-.874-.874-2.026-1.444-3.26-1.508a11.396 11.396 0 0 1-7.485-3.334l-11.737-11.737a8.466 8.466 0 0 1-2.43-6.934l-1.435 1.435a8.489 8.489 0 0 0 0 12.005L148.52 49.11a11.396 11.396 0 0 0 7.485 3.334c1.234.065 2.387.635 3.26 1.508l60.423 60.423v-10.372z" fill="#f6a96c"></path><path d="m375.217 25.368-8.657-8.657a8.489 8.489 0 0 0-12.005 0l-4.946 4.945c-.551.551-1.494.161-1.494-.619 0-2.127-1.422-4.091-3.51-4.499a4.401 4.401 0 0 0-5.283 4.31v14.837c0 1.384-.55 2.711-1.528 3.69L289.43 87.739a9.368 9.368 0 0 1 1.264 4.696v23.556l62.041-62.041c.874-.874 2.026-1.444 3.26-1.508a11.396 11.396 0 0 0 7.485-3.334l11.737-11.737a8.487 8.487 0 0 0 0-12.003z" fill="#ffbd86"></path><path d="M344.606 16.538a4.401 4.401 0 0 0-5.283 4.31v14.837c0 1.384-.55 2.711-1.528 3.69L290.16 87.01a10.37 10.37 0 0 1 1.534 5.426v1.389l52.362-52.362a5.217 5.217 0 0 0 1.528-3.69V22.936c0-1.601.859-2.996 2.137-3.765-.555-1.314-1.669-2.35-3.115-2.633z" fill="#f6a96c"></path><path d="M286.476 172.834h-61.57a4.2 4.2 0 0 1-3.031-1.297l-27.173 24.778a3.13 3.13 0 0 0-.204 4.423l20.356 22.323a3.13 3.13 0 0 0 4.461.168l24.9-23.475c1.83-1.725 4.844-.698 5.239 1.786l3.377 21.234a3.131 3.131 0 0 0 3.092 2.639h30.722a3.131 3.131 0 0 0 3.131-3.131v-51.071c-.773.981-1.958 1.623-3.3 1.623z" fill="#5a5a5a"></path><path d="m216.013 196.316 24.654-22.481h-15.762a5.194 5.194 0 0 1-3.769-1.624l-26.435 24.105a3.13 3.13 0 0 0-.204 4.423l20.356 22.323a3.13 3.13 0 0 0 4.461.168l9.143-8.62-12.649-13.871a3.132 3.132 0 0 1 .205-4.423z" fill="#444444"></path><path d="M281.258 82h-12.447a30.163 30.163 0 0 1-13.642 3.237h-.001a29.245 29.245 0 0 1-13.404-3.238h-11.641c-5.763 0-10.436 4.672-10.436 10.436v76.181a5.218 5.218 0 0 0 5.218 5.218h61.571a5.218 5.218 0 0 0 5.218-5.218v-76.18c0-5.764-4.672-10.436-10.436-10.436z" fill="#fe646f"></path><path d="M241.081 168.616v-76.18c0-2.81 1.12-5.351 2.928-7.226-.002-.078-.011-.155-.011-.234v-.842A30.828 30.828 0 0 1 239.605 82h-9.481c-5.763 0-10.436 4.672-10.436 10.436v76.181a5.218 5.218 0 0 0 5.218 5.218h21.393a5.22 5.22 0 0 1-5.218-5.219z" fill="#fd4755"></path><path d="M255.169 85.237a29.187 29.187 0 0 1-11.173-2.209v1.947c0 6.088 4.773 11.233 10.858 11.4 6.314.173 11.486-4.893 11.486-11.168v-2.096a30.229 30.229 0 0 1-11.171 2.126z" fill="#f6a96c"></path><path d="M254.746 86.226c-.153-.002-.304.003-.457-.001-3.629-.1-7.09-.836-10.292-2.091v.842c0 6.088 4.773 11.233 10.858 11.4a11.124 11.124 0 0 0 5.668-1.37c-3.165-1.754-5.367-5.023-5.777-8.78z" fill="#ea9b58"></path><path d="M223.862 40.699v13.579c0 17.059 13.375 31.479 30.427 31.946 17.692.485 32.187-13.712 32.187-31.295v-14.23a5.218 5.218 0 0 0-5.218-5.218H229.08a5.218 5.218 0 0 0-5.218 5.218z" fill="#ffbd86"></path><path d="M234.819 54.279v-13.58a5.218 5.218 0 0 1 5.218-5.218H229.08a5.218 5.218 0 0 0-5.218 5.218v13.579c0 17.059 13.375 31.479 30.427 31.946 2.183.06 4.317-.106 6.382-.472-14.809-2.655-25.852-15.974-25.852-31.473z" fill="#f6a96c"></path><g fill="#5a5a5a"><circle cx="239.515" cy="55.831" fill="#5a5a5a" r="7.827"></circle><circle cx="270.822" cy="55.831" fill="#5a5a5a" r="7.827"></circle></g></g></svg>