<svg viewBox="0 0 490 490" xmlns="http://www.w3.org/2000/svg"><g><path d="M245 42.664a7.5 7.5 0 0 1-7.5-7.5c0-13.264-23.423-19.747-23.659-19.809-4.002-1.044-6.411-5.133-5.375-9.137 1.035-4.004 5.115-6.416 9.115-5.389 1.426.365 34.919 9.241 34.919 34.334a7.5 7.5 0 0 1-7.5 7.501z" fill="#51b1ce"></path><path d="M245 42.664a7.5 7.5 0 0 1-7.5-7.5c0-25.093 33.493-33.969 34.919-34.334a7.5 7.5 0 0 1 3.725 14.53c-.221.057-23.644 6.54-23.644 19.804a7.5 7.5 0 0 1-7.5 7.5z" fill="#51b1ce"></path><path d="M209.507 440.906v-49.428c0-4.142-3.357-7.5-7.5-7.5s-7.5 3.358-7.5 7.5v49.428l-26.369 26.37a7.5 7.5 0 0 0 10.607 10.606l15.762-15.762v19.788c0 4.142 3.357 7.5 7.5 7.5s7.5-3.358 7.5-7.5V462.12l15.762 15.762a7.476 7.476 0 0 0 5.304 2.197 7.5 7.5 0 0 0 5.304-12.803l-26.37-26.37zM321.863 467.276l-26.37-26.37v-49.428c0-4.142-3.357-7.5-7.5-7.5s-7.5 3.358-7.5 7.5v49.428l-26.369 26.37a7.5 7.5 0 0 0 10.607 10.606l15.762-15.762v19.788c0 4.142 3.357 7.5 7.5 7.5s7.5-3.358 7.5-7.5V462.12l15.763 15.763a7.478 7.478 0 0 0 5.304 2.197c1.92 0 3.839-.732 5.304-2.197a7.503 7.503 0 0 0-.001-10.607z" fill="#ffa943"></path><path d="M68.146 210.963S2.008 187.539 2.008 171.707s26.023-10.425 26.023-10.425-36.904-25.509-26.023-36.489 28.606 0 28.606 0S.603 99.724 11.921 88.304s49.688-6.516 76.354 49.306h313.45c26.666-55.822 65.036-60.727 76.354-49.306s-18.692 36.489-18.692 36.489 17.724-10.98 28.606 0-26.023 36.489-26.023 36.489 26.023-5.407 26.023 10.425-66.138 39.256-66.138 39.256" fill="#51b1ce"></path><path d="M423.63 241.457c0-119.456-79.975-216.294-178.63-216.294S66.37 122.001 66.37 241.457 146.345 399.171 245 399.171s178.63-38.258 178.63-157.714z" fill="#6ec7ea"></path><path d="M243.7 399.167c-98.06-.33-177.33-38.78-177.33-157.71 0-119.45 79.97-216.29 178.63-216.29-55.62 0-100.71 96.84-100.71 216.29 0 118.53 44.39 157.12 99.41 157.71z" fill="#51b1ce"></path><path d="M383.75 354.321c-32.75 32.52-82.74 44.85-138.75 44.85-56.01 0-106-12.33-138.75-44.85 32.75-48.85 82.74-80.06 138.75-80.06 56.01 0 105.99 31.21 138.75 80.06z" fill="#e6e6e6"></path><path d="M106.25 354.321c32.432 32.205 81.776 44.601 137.126 44.839-43.042-.579-79.524-24.507-93.254-91.895-16.678 12.685-31.506 28.611-43.872 47.056z" fill="#cccccc"></path><path d="M293.533 201.94c-.36 5.48-3.03 10.81-7.88 14.37l-29.21 21.42c-3.4 2.49-7.42 3.74-11.44 3.74-4.01 0-8.01-1.23-11.41-3.72-.01-.01-.03-.01-.04-.02l-29.21-21.42c-.05-.04-.1-.07-.14-.1l-.15-.12c-4.67-3.55-7.24-8.77-7.59-14.15a19.274 19.274 0 0 1 4.92-14.17c.04-.05.09-.11.14-.16.03-.03.06-.07.09-.1l29.21-31.43c.01-.01.03-.02.04-.04 3.83-4.09 8.98-6.14 14.14-6.14s10.31 2.05 14.14 6.14c.01.02.03.03.04.04l29.22 31.43c.02.03.04.04.05.07.05.06.11.12.16.18 3.64 4.05 5.24 9.18 4.92 14.18z" fill="#ff4370"></path><path d="M245.004 149.903v91.571a19.278 19.278 0 0 1-11.409-3.722c-.013-.014-.027-.014-.041-.027l-29.215-21.419c-.041-.041-.095-.068-.136-.095-9.182-6.859-10.431-20.156-2.676-28.604.027-.027.054-.068.082-.095l29.215-31.429.041-.041a19.3 19.3 0 0 1 14.139-6.139z" fill="#e52e62"></path><path d="M293.533 201.94c-15.6 5.6-31.92 8.43-48.53 8.43h-.01c-16.61 0-32.92-2.84-48.53-8.43a19.274 19.274 0 0 1 4.92-14.17c14.02 5.05 28.69 7.6 43.61 7.6h.01c14.92 0 29.59-2.56 43.61-7.61 3.64 4.05 5.24 9.18 4.92 14.18z" fill="#cc1f59"></path><path d="M191.474 165.268a7.476 7.476 0 0 1-5.304-2.197c-5.137-5.137-11.966-7.966-19.23-7.966s-14.094 2.829-19.23 7.966a7.5 7.5 0 0 1-10.607-10.607c7.971-7.97 18.566-12.359 29.838-12.359s21.867 4.389 29.838 12.359a7.5 7.5 0 0 1-5.305 12.804zM347.595 165.268a7.476 7.476 0 0 1-5.304-2.197c-5.137-5.137-11.966-7.966-19.23-7.966s-14.094 2.829-19.23 7.966a7.5 7.5 0 0 1-10.607-10.607c7.971-7.97 18.566-12.359 29.838-12.359s21.867 4.389 29.838 12.359a7.5 7.5 0 0 1-5.305 12.804z" fill="#3e475b"></path><ellipse cx="335.933" cy="203.682" fill="#51b1ce" rx="22.48" ry="15.638"></ellipse><ellipse cx="148.277" cy="203.682" fill="#51b1ce" rx="22.48" ry="15.638"></ellipse></g></svg>