<svg viewBox="0 0 48 48" xmlns="http://www.w3.org/2000/svg"><g><g><circle cx="24" cy="24" fill="#ffce52" r="23"></circle><ellipse cx="33" cy="18" fill="#273941" rx="3" ry="4"></ellipse><ellipse cx="15" cy="18" fill="#273941" rx="3" ry="4"></ellipse><ellipse cx="33" cy="18" fill="#141e21" rx="2" ry="3"></ellipse><ellipse cx="15" cy="18" fill="#141e21" rx="2" ry="3"></ellipse><circle cx="34" cy="17" fill="#f6fafd" r="1"></circle><circle cx="16" cy="17" fill="#f6fafd" r="1"></circle><path d="M37 10h-2a2 2 0 0 0-4 0h-2a4 4 0 0 1 8 0zM19 10h-2a2 2 0 0 0-4 0h-2a4 4 0 0 1 8 0z" fill="#273941"></path><path d="M24 4c12.15 0 22 8.507 22 19h.975a23 23 0 0 0-45.95 0H2C2 12.507 11.85 4 24 4z" fill="#ffe369"></path><path d="M46 23c0 10.493-9.85 19-22 19S2 33.493 2 23h-.975c-.014.332-.025.665-.025 1a23 23 0 0 0 46 0c0-.335-.011-.668-.025-1z" fill="#ffb32b"></path><g fill="#f6fafd"><ellipse cx="34" cy="5" fill="#f6fafd" rx=".825" ry="1.148" transform="rotate(-45 34.017 5.003)"></ellipse><ellipse cx="26.746" cy="3.5" fill="#f6fafd" rx=".413" ry=".574" transform="rotate(-45 26.76 3.503)"></ellipse><ellipse cx="30" cy="4" fill="#f6fafd" rx="1.65" ry="2.297" transform="rotate(-45 30.015 4.002)"></ellipse></g><ellipse cx="24" cy="34" fill="#273941" rx="6" ry="9"></ellipse><path d="M24 43c2.542 0 4.71-2.375 5.584-5.723a7.985 7.985 0 0 0-11.168 0C19.29 40.625 21.458 43 24 43z" fill="#ae2d4c"></path><path d="M24 43c-3.088 0-5.629-3.5-5.961-8-.024.329-.039.662-.039 1 0 4.971 2.686 9 6 9s6-4.029 6-9c0-.338-.015-.671-.039-1-.332 4.5-2.873 8-5.961 8z" fill="#ffb32b"></path><path d="M24 27c3.088 0 5.629 3.5 5.961 8 .024-.329.039-.662.039-1 0-4.971-2.686-9-6-9s-6 4.029-6 9c0 .338.015.671.039 1 .332-4.5 2.873-8 5.961-8z" fill="#141e21"></path><path d="M24 41c-2.132 0-3.989-1.682-5.052-4.2a7.95 7.95 0 0 0-.532.473C19.29 40.625 21.458 43 24 43s4.71-2.375 5.584-5.723a7.95 7.95 0 0 0-.532-.473C27.989 39.318 26.132 41 24 41z" fill="#8a293d"></path></g></g></svg>