<svg viewBox="0 0 497 497" xmlns="http://www.w3.org/2000/svg"><g><path d="M154.606 283.053 82.833 171.819 11.06 283.053 0 272.511 76.531 153.92a7.498 7.498 0 0 1 12.604 0l76.532 118.591zM341.735 283.053l71.773-111.233 71.773 111.233 11.06-10.542-76.53-118.591a7.498 7.498 0 0 0-12.604 0l-76.532 118.591z" fill="#ffe7ba"></path><path d="m355 448.835-6.416-8.391a7.5 7.5 0 0 0-5.958-2.944h-26.294v44h74.414v-15A45 45 0 0 1 355 448.835z" fill="#ff9a42"></path><path d="m325 448.835-8.668-11.335H154.307a7.5 7.5 0 0 0-5.893 2.86l-7.068 8.978A44.998 44.998 0 0 1 105.99 466.5v15h254.757v-15A45 45 0 0 1 325 448.835zM413.838 466.5h-30v30h30c8.284 0 15-6.716 15-15s-6.716-15-15-15z" fill="#ffb940"></path><path d="M398.838 481.5c0-8.284-6.716-15-15-15H83.162c-8.284 0-15 6.716-15 15s6.716 15 15 15h300.676c8.284 0 15-6.716 15-15z" fill="#ffd17e"></path><path d="M422.686 120.5H271.333v30h151.353c8.284 0 15-6.716 15-15s-6.716-15-15-15z" fill="#1b74d6"></path><path d="M225.667 120.5H73.656c-8.284 0-15 6.716-15 15s6.716 15 15 15h152.011z" fill="#54a5ff"></path><path d="M301.333 150.5c0-16.5-13.5-30-30-30h-45.667c-16.5 0-30 13.5-30 30v268.083c0 10.447 8.469 18.916 18.917 18.916 10.447 0 18.917-8.469 18.917-18.916V272.511h30v146.073c0 10.447 8.469 18.916 18.917 18.916 10.447 0 18.916-8.469 18.916-18.916z" fill="#1e8aff"></path><path d="M248.171.5v90c24.853 0 45-20.147 45-45s-20.147-45-45-45z" fill="#1b74d6"></path><path d="M263.171 45.5c0-24.853-6.716-45-15-45-24.853 0-45 20.147-45 45s20.147 45 45 45c8.284 0 15-20.147 15-45z" fill="#1e8aff"></path><path d="m135.666 272.511-52.833 82.833c45.748 0 82.833-37.086 82.833-82.833z" fill="#ffb940"></path><path d="M135.666 272.511H0c0 45.747 37.086 82.833 82.833 82.833 29.179 0 52.833-37.086 52.833-82.833z" fill="#ffd17e"></path><path d="m467 272.511-52.833 82.833c45.748 0 82.833-37.086 82.833-82.833z" fill="#ffb940"></path><path d="M467 272.511H331.333c0 45.747 37.086 82.833 82.833 82.833 29.179 0 52.834-37.086 52.834-82.833z" fill="#ffd17e"></path></g></svg>