<svg viewBox="0 0 512 512" xmlns="http://www.w3.org/2000/svg"><g><path d="m235.37 171.041-110.921 37.643v112.12l110.921 37.643c3.697 1.255 7.533-1.494 7.533-5.399V176.44c0-3.905-3.836-6.654-7.533-5.399z" fill="#b3dafe"></path><path d="M56.06 320.803c-.342 0-.68-.02-1.02-.026v86.919c0 11.195 9.068 20.276 20.263 20.29l.587.001c11.216.016 20.317-9.074 20.317-20.29v-86.893z" fill="#0593fc"></path><path d="M258.234 231.829h-15.331v65.867h15.331c7.73 0 13.997-6.267 13.997-13.997v-37.874c0-7.729-6.266-13.996-13.997-13.996z" fill="#60b7ff"></path><path d="M56.06 208.683c-30.961 0-56.06 25.099-56.06 56.06 0 30.961 25.099 56.06 56.06 56.06h68.389v-112.12H56.06z" fill="#fe646f"></path><path d="m235.37 171.041-15.797 5.361v148.65c0 3.904-3.836 6.653-7.533 5.398l-87.591-29.725v20.079l110.921 37.643c3.697 1.255 7.533-1.495 7.533-5.399V176.44c0-3.905-3.836-6.654-7.533-5.399z" fill="#8ac9fe"></path><path d="M.913 254.712A56.295 56.295 0 0 0 0 264.743c0 30.961 25.099 56.06 56.06 56.06h68.39v-20.061H56.06c-27.535 0-50.417-19.858-55.147-46.03z" fill="#fd4755"></path><g fill="#0182fc"><path d="M56.06 320.803c-.342 0-.68-.02-1.02-.026v.026zM96.206 320.803H75.209v86.893c0 7.484-4.055 14.017-10.084 17.534a20.185 20.185 0 0 0 10.178 2.755l.587.001c11.216.016 20.317-9.074 20.317-20.29z" fill="#0182fc"></path></g><path d="M430.831 174.831c-37.706 0-69.4 25.713-78.521 60.558l-28.812 15.101c-4.444 2.329-4.444 8.69 0 11.019l28.812 15.101c9.122 34.845 40.815 60.558 78.521 60.558 44.828 0 81.169-36.34 81.169-81.169 0-44.827-36.341-81.168-81.169-81.168z" fill="#01998d"></path><path d="M408.139 25.827c-31.698-31.698-83.092-31.698-114.79 0-26.662 26.662-30.891 67.255-12.701 98.344l-9.696 31.051c-1.495 4.789 3.003 9.287 7.792 7.792l31.051-9.696c31.089 18.19 71.682 13.961 98.344-12.701 31.698-31.698 31.698-83.091 0-114.79z" fill="#fd4755"></path><path d="M315.956 125.616a7.777 7.777 0 0 1-5.498-13.274l68.908-68.909a7.78 7.78 0 0 1 10.997 0 7.777 7.777 0 0 1 0 10.997l-68.908 68.909a7.755 7.755 0 0 1-5.499 2.277zM324.02 76.568c-12.004 0-21.771-9.767-21.771-21.771s9.767-21.771 21.771-21.771 21.771 9.767 21.771 21.771-9.766 21.771-21.771 21.771zm0-27.992c-3.43 0-6.22 2.79-6.22 6.22s2.79 6.22 6.22 6.22 6.22-2.79 6.22-6.22a6.226 6.226 0 0 0-6.22-6.22zM377.534 133.014c-12.004 0-21.771-9.767-21.771-21.771s9.767-21.771 21.771-21.771 21.771 9.767 21.771 21.771-9.767 21.771-21.771 21.771zm0-27.991c-3.43 0-6.22 2.79-6.22 6.22s2.79 6.22 6.22 6.22 6.22-2.79 6.22-6.22-2.79-6.22-6.22-6.22z" fill="#c6f2e7"></path><path d="M411.077 371.383c-26.662-26.662-67.255-30.891-98.344-12.701l-31.051-9.696c-4.789-1.495-9.287 3.002-7.792 7.792l9.696 31.051c-18.19 31.09-13.961 71.682 12.701 98.344 31.698 31.698 83.092 31.698 114.79 0 31.699-31.699 31.699-83.092 0-114.79z" fill="#ffc344"></path><g fill="#c6f2e7"><path d="M442.652 249.352c-1.261-.465-2.51-.935-3.738-1.405V223.64c6.401 1.866 10.854 5.423 11.012 5.551a7.775 7.775 0 0 0 10.926-.973 7.775 7.775 0 0 0-.949-10.955c-.505-.424-8.908-7.354-20.989-9.607v-7.657a7.774 7.774 0 0 0-7.775-7.775 7.774 7.774 0 0 0-7.775 7.775v7.829a38.58 38.58 0 0 0-2.978.756c-10.436 3.144-17.814 11.33-19.254 21.363-1.342 9.354 2.708 18.35 10.573 23.478.344.225.705.421 1.079.588.286.128 4.498 2.002 10.58 4.497v29.599c-5.301-1.574-10.065-4.439-13.566-8.303a7.776 7.776 0 0 0-11.524 10.442c6.372 7.032 15.348 11.904 25.09 13.845v7.908a7.774 7.774 0 0 0 7.775 7.775 7.774 7.774 0 0 0 7.775-7.775v-7.49c13.212-2.273 23.958-11.733 26.107-23.77 1.874-10.494-3.019-24.251-22.369-31.389zm-22.892-9.258c-5.23-3.877-4.501-12.67 3.603-16.075v17.632c-1.65-.704-2.905-1.25-3.603-1.557zm29.952 37.914c-.768 4.304-4.8 8.712-10.798 10.565V264.59c7.825 3.294 11.743 8.127 10.798 13.418zM397.772 421.894a11.352 11.352 0 0 0-8.537-3.869h-6.416v-9.911c0-16.004-13.021-29.025-29.025-29.025s-29.025 13.021-29.025 29.025v9.911h-6.64a11.354 11.354 0 0 0-11.254 12.84v-.001l5.016 37.962c.743 5.625 5.581 9.866 11.255 9.866h61.073c5.674 0 10.512-4.241 11.255-9.865l5.016-37.962a11.354 11.354 0 0 0-2.718-8.971zm-57.452-13.78c0-7.43 6.044-13.474 13.474-13.474s13.474 6.044 13.474 13.474v9.911H340.32zm-18.028 20.713v-.001l.001.006zm58.247 34.314h-53.713l-3.907-29.566h61.527z" fill="#c6f2e7"></path></g></g></svg>