<svg viewBox="0 0 497 497" xmlns="http://www.w3.org/2000/svg"><g><path d="m194.127 281.625 31.816 31.815-42.42 42.42-31.816-31.815z" fill="#ffbb6e"></path><path d="m183.52 271.02 21.21 21.211-42.42 42.42-21.21-21.21z" fill="#ffd478"></path><path d="m194.114 345.312-21.213-21.213-42.426 21.213 42.426 21.213c5.858 5.858 15.355 5.858 21.213 0 5.858-5.857 5.858-15.355 0-21.213z" fill="#ffd478"></path><path d="M172.901 345.312c5.858-5.858 5.858-15.355 0-21.213l-21.213-21.213c-5.858-5.858-15.355-5.858-21.213 0s-5.858 15.355 0 21.213v21.213h21.213c5.858 5.858 15.355 5.858 21.213 0z" fill="#ffe7ad"></path><path d="m236.541 302.886-21.213-21.213-21.213 21.213 21.213 21.213c5.858 5.858 15.355 5.858 21.213 0 5.857-5.858 5.857-15.355 0-21.213z" fill="#ffd478"></path><path d="M215.327 302.886c5.858-5.858 5.858-15.355 0-21.213l-21.213-21.213c-5.858-5.858-15.355-5.858-21.213 0s-5.858 15.355 0 21.213l21.213 21.213c5.858 5.858 15.356 5.858 21.213 0z" fill="#ffe7ad"></path><path d="m172.901 366.525-21.213-21.213L13.18 483.82c17.574 17.574 46.066 17.574 63.64 0l96.081-96.081c5.858-5.858 5.858-15.356 0-21.214z" fill="#2d5093"></path><path d="m55.607 462.607 96.081-96.081c5.858-5.858 5.858-15.355 0-21.213L130.475 324.1c-5.858-5.858-15.355-5.858-21.213 0L13.18 420.18c-17.574 17.574-17.574 46.066 0 63.64 5.858 5.858 24.853-3.64 42.427-21.213z" fill="#4367b1"></path><circle cx="332" cy="165" fill="#ffbb6e" r="165"></circle><path d="M332 30v270c74.558 0 135-60.442 135-135S406.558 30 332 30z" fill="#e5f2ff"></path><path d="M437 165c0-74.558-47.01-135-105-135-74.558 0-135 60.442-135 135s60.442 135 135 135c57.99 0 105-60.442 105-135z" fill="#ffffff"></path><g fill="#4367b1"><circle cx="392" cy="165" fill="#4367b1" r="15"></circle><circle cx="332" cy="165" fill="#4367b1" r="15"></circle><circle cx="272" cy="165" fill="#4367b1" r="15"></circle></g></g></svg>