<svg viewBox="0 0 512 512" xmlns="http://www.w3.org/2000/svg"><g><g fill-rule="evenodd"><path d="M406.321 0h-300.64A59.992 59.992 0 0 0 45.75 59.93v392.14A59.991 59.991 0 0 0 105.68 512h300.641a59.991 59.991 0 0 0 59.929-59.93V59.93A59.992 59.992 0 0 0 406.321 0z" fill="#eeeff3"></path><g fill="#5b5c6e"><path d="M195.582 101.649c.418-7.6.168-18.669-3.432-28.219-7.65-20.291-28.39-31.04-50.45-26.17-21.718 4.8-35.83 22.45-34.3 42.9 1.521 20.33 13.85 33.99 32.97 36.52a53.275 53.275 0 0 0 28.67-4.55c-2.168 8.559-6.18 13.9-14.35 17.22-2.558 1.04-11.76 3.8-22.64-4.43a12 12 0 0 0-14.47 19.15 50.2 50.2 0 0 0 30.14 10.61 42.355 42.355 0 0 0 16.01-3.1c29.19-11.871 30.73-39.65 31.852-59.931zm-52.061 1.24C135.871 101.87 132 97.26 131.34 88.37c-.828-11.06 9.38-16.31 15.54-17.68a25.874 25.874 0 0 1 5.33-.55c5.6 0 13.75 1.86 17.48 11.76a28.966 28.966 0 0 1 1.42 5.67 18.387 18.387 0 0 1-.78 2.61c-2.459 6.99-15.31 14.23-26.809 12.709zM280.011 177.55a12.012 12.012 0 0 0-16.971 0l-82.1 82.109a62.975 62.975 0 0 0 0 88.871c13.4 13.4 28.46 19.8 44.36 18.98l-11.37 38.82a11.992 11.992 0 0 0 11.51 15.37h92.17a12 12 0 0 0 11.52-15.37l-11.38-38.821c15.912.8 30.96-5.579 44.37-18.979a63 63 0 0 0 0-88.87z" fill="#5b5c6e"></path></g></g></g></svg>