<svg id="Layer_3" height="512" viewBox="0 0 64 64" width="512" xmlns="http://www.w3.org/2000/svg" data-name="Layer 3"><path d="m54 46h2.879a5.122 5.122 0 0 1 3.621 1.5 5.122 5.122 0 0 1 1.5 3.621v10.879h-28v-9a10 10 0 0 1 -10-10v-7h6v6a4 4 0 0 0 4 4h4l4 3 4-4 4 4z" fill="#78a0d4"/><path d="m43 43-5 3 4 3 4-4z" fill="#5e87ca"/><path d="m49 43 5 3-4 3-4-4z" fill="#5e87ca"/><path d="m49 39.418v3.582l-3 2-3-2v-3.582a7.976 7.976 0 0 0 3 .582 7.976 7.976 0 0 0 3-.582z" fill="#fbe1ca"/><path d="m54 32v-4.183a6 6 0 0 0 -1.008-3.329l-.992-1.488-1.333 1a10 10 0 0 1 -6 2h-2.667a4 4 0 0 0 -4 4v2l-1.249-1.665a8.755 8.755 0 0 1 -1.751-5.254 8.756 8.756 0 0 1 4.412-7.6 11.225 11.225 0 0 1 5.569-1.481h2.038a11.225 11.225 0 0 1 5.569 1.479 8.756 8.756 0 0 1 4.412 7.602 8.755 8.755 0 0 1 -1.751 5.254z" fill="#976947"/><path d="m54 32v-4.183a6 6 0 0 0 -1.008-3.329l-.992-1.488-1.333 1a10 10 0 0 1 -6 2h-2.667a4 4 0 0 0 -4 4v2a8 8 0 0 0 8 8 8 8 0 0 0 8-8z" fill="#fbe1ca"/><path d="m55 54h2v8h-2z" fill="#5e87ca"/><path d="m11 26 8 6v-6h7a4 4 0 0 0 4-4v-16a4 4 0 0 0 -4-4h-20a4 4 0 0 0 -4 4v16a4 4 0 0 0 4 4z" fill="#f0ae42"/><path d="m25 36v-4a2 2 0 0 1 2-2 2 2 0 0 1 2 2v4" fill="#fbe1ca"/><path d="m17 20h-2v-.866a9.944 9.944 0 0 1 3.116-7.007 3 3 0 1 0 -5.116-2.127h-2a5 5 0 1 1 8.527 3.545 7.965 7.965 0 0 0 -2.527 5.589z" fill="#e2e7f6"/><circle cx="16" cy="23" fill="#e2e7f6" r="2"/><path d="m15 46h5a2 2 0 0 1 2 2v12a2 2 0 0 1 -2 2h-16a2 2 0 0 1 -2-2v-12a2 2 0 0 1 2-2h5l3-6z" fill="#f0ae42"/><g fill="#f9d266"><path d="m7 49h12v2h-12z"/><path d="m5 53h14v2h-14z"/><path d="m5 57h14v2h-14z"/></g></svg>