<svg viewBox="0 0 511.998 511" xmlns="http://www.w3.org/2000/svg"><g><path d="M474.395 122.031C475.937 56.637 424.004 1.22 358.594.508 314.8.03 276.492 23.605 255.996 58.824 235.496 23.605 197.191.027 153.398.508c-65.41.71-117.343 56.129-115.8 121.523 3.453 146.13 178.226 273.23 212.574 296.82a10.273 10.273 0 0 0 11.648 0c34.348-23.59 209.121-150.69 212.575-296.82zm0 0" fill="#ff5555"></path><path d="M474.453 117.66c0 147.942-177.898 277.332-212.629 301.184a10.298 10.298 0 0 1-11.664.011c-8.555-5.875-25.824-18.171-46.984-35.582C238.055 359.305 415.71 229.988 415.71 82.137c0-30.032-11.285-57.43-29.863-78.137 50.906 12.746 88.605 58.781 88.605 113.66zm0 0" fill="#f72b2b"></path><path d="M254.547 332.152a13.218 13.218 0 0 1-12.988-10.77L209.285 149.95l-34.34 81.61a13.211 13.211 0 0 1-11.73 8.082 13.207 13.207 0 0 1-12.254-7.27l-9.18-18.246H13.215C5.918 214.125 0 208.207 0 200.91c0-7.3 5.918-13.215 13.215-13.215h136.71c4.97 0 9.516 2.785 11.77 7.207l40.27-95.691a13.209 13.209 0 0 1 13.578-8.016c5.8.618 10.508 4.961 11.59 10.696l26.61 141.363 11.01-66.145a13.209 13.209 0 0 1 13.032-11.047h43.13c4.468 0 8.636 2.258 11.073 6l20.25 31.083 8.735-10.625a13.22 13.22 0 0 1 10.21-4.825h127.602c7.297 0 13.211 5.918 13.211 13.215s-5.914 13.215-13.21 13.215H377.43l-16.211 19.723a13.229 13.229 0 0 1-10.938 4.804 13.203 13.203 0 0 1-10.344-5.98l-26.18-40.18h-24.773l-21.402 128.613a13.212 13.212 0 0 1-12.895 11.043c-.046 0-.097.004-.14.004zm0 0" fill="#60daff"></path></g></svg>