<svg height="512" viewBox="0 0 512 512" width="512" xmlns="http://www.w3.org/2000/svg"><g id="FLAT"><path d="m231.44043 203.03247-22.00024-82.042a15.99929 15.99929 0 0 0 -11.73731-11.41821l-88.49365-21.13426a16.00016 16.00016 0 0 0 -14.721 3.94751l-66.04639 62.575a15.99954 15.99954 0 0 0 -4.4497 15.759l22 82.04224a16.00043 16.00043 0 0 0 11.7373 11.41821l88.49365 21.13428a16.00064 16.00064 0 0 0 14.7212-3.94751l66.04638-62.5752a16.00063 16.00063 0 0 0 4.44976-15.75906z" fill="#57b584"/><path d="m231.44043 203.03247-22.00024-82.042a15.983 15.983 0 0 0 -4.70313-7.69409l-70.70435 67.55346a15.98426 15.98426 0 0 1 -7.18652 3.94019l26.9585 100.48144a15.98172 15.98172 0 0 0 7.13965-3.90478l66.04638-62.5752a16.00063 16.00063 0 0 0 4.44971-15.75902z" fill="#4aa071"/><path d="m197.70288 109.57227-88.49365-21.13427a16.00016 16.00016 0 0 0 -14.721 3.94751l-66.04639 62.575a15.97686 15.97686 0 0 0 -4.26977 6.87793l95.06006 22.98047a16.00046 16.00046 0 0 0 14.80053-3.969l70.70435-67.55346a15.97328 15.97328 0 0 0 -7.03413-3.72418z" fill="#5dc691"/><path d="m481.22314 106.50464-65.12646-76.88355a15.99941 15.99941 0 0 0 -14.59106-5.48l-99.63648 15.00344a15.99979 15.99979 0 0 0 -12.59614 10.19629l-34.17676 90.99976a15.99947 15.99947 0 0 0 2.76978 15.967l65.12646 76.88379a16.0006 16.0006 0 0 0 14.59107 5.48l99.63645-15.00337a15.99946 15.99946 0 0 0 12.596-10.19629l34.177-90.99976a16 16 0 0 0 -2.76986-15.96731z" fill="#1f3f66"/><path d="m364.48022 122.7251-68.82275-81.2471a15.99064 15.99064 0 0 0 -6.38452 7.86279l-34.17676 90.99976a15.99947 15.99947 0 0 0 2.76978 15.967l65.12646 76.88379a15.98686 15.98686 0 0 0 6.79492 4.70874l41.43189-110.48508a15.987 15.987 0 0 1 -6.73902-4.6899z" fill="#234575"/><path d="m481.22314 106.50464-65.12646-76.88355a15.99941 15.99941 0 0 0 -14.59106-5.48l-99.63648 15.00344a15.97678 15.97678 0 0 0 -6.21167 2.3335l68.82275 81.24707a15.999 15.999 0 0 0 14.59107 5.48l105.2915-15.85474a15.97582 15.97582 0 0 0 -3.13965-5.84572z" fill="#27498c"/><rect fill="#234575" height="136" rx="16" width="88" x="400" y="352"/><path d="m432 352h16v72h-16z" fill="#1c3b54"/><path d="m432 440h16v24h-16z" fill="#1c3b54"/><path d="m16 392h16v56h-16z" fill="#e5e1dc"/><path d="m48 432h16v40h-16z" fill="#e5e1dc"/><path d="m80 464h16v32h-16z" fill="#e5e1dc"/><path d="m219.34375 332.419a31.99954 31.99954 0 0 0 -34.24854-15.8379l-17.10913 3.00123a31.93 31.93 0 0 1 11.22339 11.10034l33.88135 56.46875 33.55322-5.592z" fill="#b59191"/><path d="m179.20947 330.68262a32.00011 32.00011 0 0 0 -32.70047-15.10083l-24.82348 4.13745a31.95052 31.95052 0 0 1 10.3042 9.40869l44.73754 64.084 36.36353-6.06054z" fill="#c69e9e"/><path d="m124.32788 384.43726a32.00011 32.00011 0 0 0 30.86084 12.3645l21.53857-3.58985-.72729-1.21191-44.01025-62.87207a32.00032 32.00032 0 0 0 -32.49121-13.02759l-23.00269 4.60059c.10474.13354.22021.2539.32251.39038z" fill="#e2b5b3"/><path d="m400 376-64-24-24.74512-55.67627a27.48691 27.48691 0 0 0 -25.11816-16.32373 27.48747 27.48747 0 0 0 -26.07691 36.17969l19.94019 59.82031-124.81128 20.80176a32.00011 32.00011 0 0 1 -30.86084-12.3645l-47.50952-63.34595a23.68808 23.68808 0 0 0 -31.13794-6.09961 23.74719 23.74719 0 0 0 -7.28687 33.91821c17.37256 24.99561 45.23975 65.231 54.50171 78.606a15.99921 15.99921 0 0 0 8.30323 6.13818l167.45288 53.28052a15.99719 15.99719 0 0 0 6.83569.62939l124.51294-15.564z" fill="#f2c1bd"/><path d="m390.263 46.941h16v16h-16z" fill="#336baf" transform="matrix(.352 -.936 .936 .352 206.813 408.465)"/><path d="m373.386 91.876h16v16h-16z" fill="#336baf" transform="matrix(.352 -.936 .936 .352 153.785 421.79)"/><path d="m301.273 124.612h16v16h-16z" fill="#2b6299" transform="matrix(.352 -.936 .936 .352 76.383 375.506)"/><path d="m369.59 192.998h16v16h-16z" fill="#205682" transform="matrix(.352 -.936 .936 .352 56.675 483.82)"/><path d="m395.819 168.667h16v16h-16z" fill="#205682" transform="matrix(.352 -.936 .936 .352 96.461 492.598)"/><path d="m429.538 147.148h16v16h-16z" fill="#205682" transform="matrix(.352 -.936 .936 .352 138.451 510.193)"/><path d="m103.138 117.055h16v15.999h-16z" fill="#66d9a3" transform="matrix(.966 -.259 .259 .966 -28.601 33.059)"/><path d="m111.426 147.963h16v15.999h-16z" fill="#66d9a3" transform="matrix(.966 -.259 .259 .966 -36.325 36.261)"/><path d="m351.867 58.158h16v16h-16z" fill="#336baf" transform="matrix(.352 -.936 .936 .352 171.398 379.783)"/><path d="m411.781 80.66h16v16h-16z" fill="#336baf" transform="matrix(.352 -.936 .936 .352 189.18 450.461)"/><path d="m381.824 69.409h16v16h-16z" fill="#336baf" transform="matrix(.352 -.936 .936 .352 180.289 415.122)"/><g fill="#5dc691"><path d="m79.569 214.483h16v16.001h-16z" transform="matrix(.966 -.259 .259 .966 -54.638 30.274)"/><path d="m156.839 193.764h16v15.999h-16z" transform="matrix(.966 -.259 .259 .966 -46.639 49.588)"/><path d="m181.531 162.294h16v16.001h-16z" transform="matrix(.966 -.259 .259 .966 -37.641 54.903)"/><path d="m165.127 224.672h16v15.999h-16z" transform="matrix(.966 -.259 .259 .966 -54.363 52.79)"/><path d="m189.819 193.202h16v16.001h-16z" transform="matrix(.966 -.259 .259 .966 -45.364 58.104)"/></g></g></svg>