<svg viewBox="0 0 512 512" xmlns="http://www.w3.org/2000/svg"><g><path d="M94.409 446.158 501.42 316.845A246.026 246.026 0 0 0 506.5 267c0-135.31-109.69-245-245-245s-245 109.69-245 245c0 70.725 29.979 134.437 77.909 179.158z" fill="#009cf2"></path><path d="M93.535 223.865c12.593-8.55 27.681-13.447 43.526-13.447 9.92 0 19.598 1.859 28.763 5.526l1.501.601.722-1.446c8.522-17.051 24.793-28.941 43.528-31.806 3.455-.528 6.335-2.856 7.516-6.073 6.736-18.352 19.088-33.602 34.66-44.115-9.767-42.716-47.972-74.595-93.648-74.595-53.07 0-96.092 43.022-96.092 96.092-.001 27.221 11.336 51.779 29.524 69.263z" fill="#ffe400"></path><path d="M105.954 145.332c0-36.13 18.472-67.941 46.483-86.518-49.487 3.906-88.428 45.298-88.428 95.788 0 27.221 11.337 51.779 29.525 69.263 10.511-7.136 22.763-11.715 35.739-13.038-14.569-17.859-23.319-40.649-23.319-65.495z" fill="#fdca00"></path><path d="M209.881 261.339c1.294 3.538 5.016 5.704 8.861 5.155a50.192 50.192 0 0 1 7.095-.505c20.16 0 38.192 12.034 45.938 30.659.131.313.279.614.442.905l1.317 2.35 1.619-2.153c25.359-33.737 64.043-53.086 106.133-53.086 41.197 0 79.295 19.2 104.054 50.338 10.837-7.07 18.109-19.107 18.17-32.901.087-19.748-14.23-36.16-33.048-39.354-2.605-.442-4.745-2.236-5.76-4.676-9.092-21.858-30.638-37.232-55.788-37.232-2.925 0-5.801.21-8.615.613-3.506.503-6.951-1.389-8.167-4.715-13.025-35.636-47.208-61.082-87.355-61.082-40.104 0-74.279 25.383-87.337 60.959-.976 2.658-3.334 4.514-6.133 4.942-20.32 3.108-37.299 16.337-45.645 34.379 20.117 8.034 36.514 24.321 44.219 45.404z" fill="#8adaf9"></path><path d="M218.742 266.494a50.192 50.192 0 0 1 7.095-.505c1.393 0 2.775.063 4.145.176 5.787-22.164 23.978-40.055 48.015-44.274a60.61 60.61 0 0 1 8.591-.885c3.54-.111 6.606-2.57 7.229-6.056 6.567-36.785 35.063-67.366 73.696-74.915-16.535-15.135-38.547-24.379-62.733-24.379-40.104 0-74.279 25.383-87.337 60.959-.976 2.658-3.334 4.514-6.133 4.942-20.32 3.108-37.299 16.337-45.645 34.379 20.116 8.033 36.512 24.321 44.218 45.403 1.292 3.538 5.014 5.704 8.859 5.155z" fill="#5ccbf7"></path><path d="M501.421 316.845c-22.171-43.857-67.633-73.936-120.133-73.936-44.66 0-84.2 21.782-108.662 55.282 1.259 1.849 3.173 3.124 5.388 3.5 15.547 2.638 26.781 16.016 26.712 31.81-.077 17.636-14.812 31.984-32.847 31.984h-105.57a87.502 87.502 0 0 0-16.747 26.501c-1.22 3.031-3.9 5.211-7.13 5.71-24.829 3.841-44.401 23.563-48.022 48.462C138.178 486.997 196.915 512 261.5 512c118.23 0 216.894-83.747 239.921-195.155z" fill="#b8e9fa"></path><path d="M160.102 34.966a8.118 8.118 0 0 1-8.118-8.118V8.118a8.119 8.119 0 0 1 16.236 0v18.731a8.118 8.118 0 0 1-8.118 8.117z" fill="#ffe400"></path><path d="M96.233 52.083a8.115 8.115 0 0 1-7.038-4.06L79.83 31.802a8.118 8.118 0 0 1 14.06-8.118l9.366 16.221a8.118 8.118 0 0 1-7.023 12.178zM49.457 98.844a8.08 8.08 0 0 1-4.051-1.089L29.184 88.39a8.118 8.118 0 0 1 8.118-14.06l16.221 9.365a8.117 8.117 0 0 1-4.066 15.149zM32.348 162.72h-18.73a8.119 8.119 0 0 1 0-16.236h18.731a8.118 8.118 0 1 1-.001 16.236zM33.251 235.963a8.118 8.118 0 0 1-4.067-15.149l16.222-9.365a8.118 8.118 0 0 1 8.118 14.06l-16.221 9.365a8.086 8.086 0 0 1-4.052 1.089z" fill="#fdca00"></path><path d="M270.747 98.844a8.118 8.118 0 0 1-4.067-15.149l16.221-9.365a8.118 8.118 0 1 1 8.118 14.06l-16.221 9.366a8.089 8.089 0 0 1-4.051 1.088zM223.971 52.083a8.117 8.117 0 0 1-7.022-12.178l9.365-16.221c2.241-3.883 7.206-5.213 11.089-2.971s5.213 7.206 2.971 11.089l-9.366 16.221a8.114 8.114 0 0 1-7.037 4.06z" fill="#ffe400"></path><path d="M201.528 463.43c3.966-1.473 6.797-4.933 7.665-9.073 7.781-37.096 37.09-67.708 76.652-75.21a97.123 97.123 0 0 1 13.735-1.605c5.664-.255 10.52-4.258 11.44-9.853 9.25-56.245 50.48-103.931 107.701-119.495a134.535 134.535 0 0 0-37.434-5.285c-44.66 0-84.2 21.782-108.662 55.282 1.259 1.849 3.173 3.124 5.387 3.5 15.547 2.638 26.781 16.016 26.712 31.81-.077 17.636-14.812 31.984-32.847 31.984H166.308a87.502 87.502 0 0 0-16.747 26.501c-1.22 3.031-3.9 5.211-7.13 5.71-24.828 3.841-44.4 23.563-48.022 48.462a245.302 245.302 0 0 0 73.108 47.141c7.155-13.492 19.08-24.326 34.011-29.869z" fill="#8adaf9"></path><path d="M57.377 264.844c2.386-.365 4.396-1.947 5.228-4.214 11.133-30.329 40.267-51.967 74.455-51.967 34.225 0 63.366 21.693 74.47 52.073 1.036 2.836 3.973 4.448 6.962 4.02a51.718 51.718 0 0 1 7.344-.523c21.44 0 39.809 13.106 47.56 31.74.865 2.08 2.689 3.609 4.91 3.986 16.042 2.722 28.247 16.715 28.174 33.549-.083 18.773-15.83 33.732-34.603 33.732H66.17c-28.418 0-52.192-22.618-52.445-51.035-.231-25.984 18.785-47.558 43.652-51.361z" fill="#e6f8fc"></path><path d="M51.722 341.621c-.231-25.984 18.785-47.557 43.652-51.361 2.386-.365 4.396-1.947 5.228-4.214 11.132-30.329 40.267-51.967 74.455-51.967a79.207 79.207 0 0 1 23.179 3.459c-14.536-17.632-36.538-28.875-61.176-28.875-34.188 0-63.323 21.639-74.455 51.967-.832 2.266-2.842 3.849-5.228 4.214-24.867 3.803-43.883 25.377-43.652 51.361.23 25.873 19.96 46.932 44.939 50.496-4.329-7.386-6.86-15.929-6.942-25.08z" fill="#b8e9fa"></path><g fill="#fff442"><circle cx="165.086" cy="127.849" fill="#fff442" r="24.544" transform="rotate(-22.48 165.025 127.679)"></circle><circle cx="201.901" cy="101.306" fill="#fff442" r="9.484"></circle></g></g></svg>