<svg viewBox="0 0 519 519.55" xmlns="http://www.w3.org/2000/svg"><g><path d="M178.871 487.078h32.473v32.473H178.87zM178.871 422.133h32.473v32.472H178.87zm0 0" fill="#1e88e5"></path><path d="M6.023 28.91 27.855 4.875l145.106 131.793-21.832 24.035zm0 0" fill="#4dd0e1"></path><path d="M16.512 113.652c-8.965 0-16.239-7.273-16.239-16.238V0h97.418c8.961 0 16.235 7.273 16.235 16.234 0 8.965-7.274 16.239-16.235 16.239H32.746v64.941c0 8.965-7.273 16.238-16.234 16.238zm0 0" fill="#80deea"></path><path d="M211.344 389.664H178.87V187.137L360.582 5.407l22.957 22.972-172.195 172.2zm0 0" fill="#1e88e5"></path><path d="M373.703 113.652c-8.965 0-16.238-7.273-16.238-16.238V32.473h-64.942c-8.964 0-16.238-7.274-16.238-16.239C276.285 7.274 283.56 0 292.523 0h97.414v97.414c0 8.965-7.273 16.238-16.234 16.238zm0 0" fill="#42a5f5"></path></g></svg>