<svg viewBox="0 0 512 512" xmlns="http://www.w3.org/2000/svg"><g><path d="M451.851 383.495c-18.626 0-33.779-15.129-33.779-33.726V227.201a167.6 167.6 0 0 0-.086-5.117c44.583-4.009 79.642-41.535 79.642-87.093 0-48.238-39.277-87.482-87.556-87.482-30.192 0-56.863 15.349-72.609 38.646-13.119-7.807-27.138-13.716-41.717-17.586v-26.61C295.745 18.823 276.916 0 253.771 0s-41.974 18.823-41.974 41.959v26.574c-27.708 7.321-53.167 21.884-74.067 42.759-31.12 31.081-48.259 72.244-48.259 115.909v122.568c0 18.597-15.153 33.726-33.778 33.726-22.784 0-41.32 18.518-41.32 41.278 0 22.761 18.536 41.278 41.32 41.278h144.641C204.217 492.018 226.699 512 253.771 512c27.073 0 49.555-19.982 53.439-45.948h144.64c22.784 0 41.321-18.518 41.321-41.278 0-22.761-18.537-41.279-41.32-41.279z" fill="#ffd26f"></path><path d="M451.85 383.495H55.693c-22.784 0-41.32 18.518-41.32 41.278 0 22.761 18.536 41.278 41.32 41.278H451.85c22.784 0 41.321-18.518 41.321-41.278s-18.537-41.278-41.321-41.278z" fill="#ffe187"></path><path d="M253.771 63.098c14.277 0 28.365 1.857 41.974 5.47v-26.61C295.745 18.823 276.916 0 253.771 0s-41.974 18.823-41.974 41.959v26.574a164.189 164.189 0 0 1 41.974-5.435zM200.334 466.052C204.217 492.018 226.699 512 253.771 512c27.073 0 49.555-19.982 53.439-45.948z" fill="#f9c969"></path><path d="M451.85 383.495h-33.974c22.784 0 41.321 18.518 41.321 41.278 0 22.761-18.537 41.278-41.321 41.278h33.974c22.784 0 41.321-18.518 41.321-41.278s-18.537-41.278-41.321-41.278z" fill="#ffd26f"></path><path d="M255.138.022a41.756 41.756 0 0 0-18.354 3.581c14.703 6.533 24.987 21.262 24.987 38.355v.501c0 4.361-3.558 7.841-7.919 7.838h-.08c-14.352 0-28.43 1.857-41.974 5.435v12.8a164.177 164.177 0 0 1 41.974-5.435c14.277 0 28.365 1.857 41.974 5.47V42.736c-.001-22.78-17.84-41.981-40.608-42.714zM200.334 466.052a53.42 53.42 0 0 0 3.089 11.573h46.284c9.936 0 14.914 12.094 7.795 19.026a54.154 54.154 0 0 1-20.73 12.615 53.89 53.89 0 0 0 16.999 2.735c27.073 0 49.555-19.982 53.439-45.948H200.334z" fill="#f4bf62"></path><path d="M410.071 47.508c-48.278 0-87.555 39.245-87.555 87.482 0 48.223 39.276 87.454 87.555 87.454s87.556-39.231 87.556-87.454c0-48.237-39.277-87.482-87.556-87.482z" fill="#fe646f"></path><path d="M410.071 47.508c-3.519 0-6.988.215-10.4.62 43.394 5.155 77.156 42.141 77.156 86.863 0 44.708-33.762 81.681-77.156 86.835 3.412.405 6.881.62 10.4.62 48.278 0 87.556-39.231 87.556-87.454 0-48.239-39.277-87.484-87.556-87.484z" fill="#fd4755"></path><g fill="#f9c969"><path d="M418.071 349.769V227.201a167.6 167.6 0 0 0-.086-5.117 88.505 88.505 0 0 1-7.914.361 87.338 87.338 0 0 1-26.21-4.004c.154 2.908.237 5.828.237 8.76v122.568c0 18.597 15.153 33.726 33.778 33.726h33.974c-18.625 0-33.779-15.129-33.779-33.726zM337.462 86.155c-25.365-15.094-54.119-23.056-83.691-23.056-5.711 0-11.378.299-16.987.877 33.879 3.487 65.582 17.372 91.378 40.114a87.322 87.322 0 0 1 9.3-17.935z" fill="#f9c969"></path></g><g fill="#f9f6f9"><path d="M410.071 88.723a8 8 0 0 0-8 8v54.028a8 8 0 0 0 16 0V96.723a8 8 0 0 0-8-8z" fill="#f9f6f9"></path><circle cx="410.071" cy="173.23" fill="#f9f6f9" r="8"></circle></g></g></svg>