<svg viewBox="0 0 64 64" xmlns="http://www.w3.org/2000/svg"><g><path d="M33 28h-2c-2.21 0-4 1.79-4 4v5l2 1v8h6v-8l2-1v-5c0-2.21-1.79-4-4-4z" fill="#adc4e6"></path><path d="m32 43-6 6h3v7h6v-7h3z" fill="#ff8088"></path><path d="M49 58h12v4H49zM3 58h12v4H3z" fill="#526273"></path><circle cx="55" cy="37" fill="#759acc" r="3"></circle><path d="M56 40h-2a4 4 0 0 0-4 4v5l2 1v8h6v-8l2-1v-5a4 4 0 0 0-4-4z" fill="#759acc"></path><circle cx="9" cy="37" fill="#759acc" r="3"></circle><path d="M10 40H8a4 4 0 0 0-4 4v5l2 1v8h6v-8l2-1v-5a4 4 0 0 0-4-4z" fill="#759acc"></path><circle cx="32" cy="25" fill="#adc4e6" r="3"></circle><path d="M35 58h2v3h-2zM31 59h2v3h-2zM27 58h2v3h-2z" fill="#526273"></path><path d="m32 7 1.237 2.633 2.763.423-2 2.05.473 2.894L32 13.633 29.528 15 30 12.106l-2-2.05 2.764-.423z" fill="#ff8088"></path><path d="M32 20c-.357 0-.709-.021-1.055-.062l.233-1.986c.552.065 1.13.063 1.679-.004l.242 1.985A8.837 8.837 0 0 1 32 20zm-3.172-.575a8.977 8.977 0 0 1-1.913-.998l1.131-1.649a6.97 6.97 0 0 0 1.487.776zm6.388-.017-.715-1.868a6.983 6.983 0 0 0 1.482-.783l1.139 1.644a9.028 9.028 0 0 1-1.906 1.007zm-9.935-2.42a9.053 9.053 0 0 1-1.232-1.769l1.766-.939c.264.495.586.958.96 1.377zm13.468-.032-1.499-1.324c.372-.421.692-.886.953-1.382l1.771.93a9.042 9.042 0 0 1-1.225 1.776zm-15.481-3.772A9.121 9.121 0 0 1 23 11.045l2-.012c.003.565.073 1.126.208 1.667zm17.476-.043-1.943-.474A7.014 7.014 0 0 0 39 11l1.444-.045.556.022c0 .746-.086 1.466-.256 2.164zM25.195 9.352l-1.944-.469a8.928 8.928 0 0 1 .756-2.022l1.775.92a7.015 7.015 0 0 0-.587 1.571zm13.59-.086a6.939 6.939 0 0 0-.607-1.562l1.764-.943c.341.637.604 1.314.782 2.013zM26.738 6.384l-1.502-1.32a9.059 9.059 0 0 1 1.605-1.438l1.148 1.638c-.459.32-.88.698-1.251 1.12zm10.467-.067a7.035 7.035 0 0 0-1.265-1.105l1.127-1.652c.594.405 1.14.882 1.624 1.418zm-7.723-1.851L28.763 2.6a8.993 8.993 0 0 1 2.092-.528l.252 1.984a7.018 7.018 0 0 0-1.625.41zm4.952-.031a6.93 6.93 0 0 0-1.631-.39l.228-1.987a8.99 8.99 0 0 1 2.101.502z" fill="#526273"></path></g></svg>