<svg viewBox="0 0 512 512" xmlns="http://www.w3.org/2000/svg"><g><g clip-rule="evenodd" fill-rule="evenodd"><path d="M495.712 272.5C487.233 397.35 383.288 496 256.288 496c-132.548 0-240-107.452-240-240 0-69.249 29.339-131.638 76.255-175.442L248.501 272.5z" fill="#60b7ff"></path><path d="M107.74 99.262 248.501 272.5h223.118c-8.429 111.559-101.615 199.453-215.331 199.453-119.268 0-215.954-96.685-215.954-215.953 0-61.717 25.894-117.383 67.406-156.738z" fill="#8ac9fe"></path><path d="M256.288 16c127.001 0 230.945 98.65 239.425 223.5H264.074L118.057 59.792C157.136 32.209 204.817 16 256.288 16z" fill="#ffd064"></path><path d="M471.619 239.5H264.074L133.265 78.509c34.909-24.242 77.302-38.463 123.023-38.463 113.716 0 206.902 87.895 215.331 199.454z" fill="#ffe177"></path><path d="M16.288 256c0 63.256 24.472 120.796 64.464 163.669L248.501 272.5 92.542 80.558C45.627 124.361 16.288 186.75 16.288 256z" fill="#00e499"></path><path d="M98.847 403.794 248.501 272.5 107.74 99.262C66.228 138.617 40.334 194.283 40.334 256c0 57.18 22.233 109.16 58.513 147.794z" fill="#6cf5c2"></path><circle cx="110.156" cy="255.473" fill="#ffc338" r="63.666"></circle><path d="M110.156 191.807c35.161 0 63.666 28.504 63.666 63.666s-28.504 63.665-63.666 63.665c-1.986 0-3.949-.096-5.888-.274 32.401-2.972 57.778-30.216 57.778-63.392s-25.377-60.42-57.778-63.392a64.735 64.735 0 0 1 5.888-.273z" fill="#f5b829"></path><path d="M136.274 233.038a7.998 7.998 0 0 1-14.75 6.188c-1.546-3.682-4.478-5.807-7.697-6.623a14.557 14.557 0 0 0-6.406-.161c-1.961.395-3.754 1.183-5.139 2.309-1.571 1.277-2.568 3.11-2.458 5.372.094 1.952 1.142 3.309 2.604 4.264 2.39 1.56 5.797 2.445 9.067 2.982 5.224.857 10.945 2.3 15.79 5.225 5.778 3.488 10.137 8.746 11.12 16.845.072.591.118 1.331.139 2.212.178 7.487-3.223 13.055-8.337 16.935-3.49 2.648-7.752 4.392-12.052 5.328v1.846a8 8 0 0 1-16 0v-2.01c-3.381-.834-6.595-2.197-9.437-4.089-5.136-3.42-9.071-8.471-10.737-15.156a7.981 7.981 0 0 1 15.5-3.812c.616 2.471 2.102 4.358 4.05 5.656 2.562 1.706 5.881 2.519 9.269 2.438a23.044 23.044 0 0 0 2.103-.176c2.892-.351 5.734-1.235 7.68-2.712 1.238-.939 2.063-2.224 2.024-3.873a12.682 12.682 0 0 0-.076-.712c-.283-2.336-1.659-3.924-3.495-5.032-2.768-1.671-6.542-2.578-10.103-3.163-5.077-.834-10.61-2.366-15.192-5.357-5.51-3.597-9.468-8.928-9.854-16.889-.382-7.861 3-14.161 8.333-18.497 2.851-2.318 6.27-4.025 9.936-5.046v-2.145a8 8 0 0 1 16 0v2.037c7.6 2.054 14.475 7.139 18.118 15.816z" fill="#ffe177"></path><circle cx="322.948" cy="139.768" fill="#fe646f" r="75.746" transform="rotate(-9.25 323.215 140.124)"></circle><path d="M322.948 64.022c41.833 0 75.746 33.913 75.746 75.746s-33.913 75.746-75.746 75.746c-2.223 0-4.422-.102-6.596-.289 38.744-3.343 69.15-35.846 69.15-75.457s-30.406-72.114-69.15-75.457a76.523 76.523 0 0 1 6.596-.289z" fill="#fd4755"></path><path d="M298.485 104.068c-1.768 0-3.369.716-4.526 1.873s-1.873 2.758-1.873 4.526.716 3.369 1.873 4.526 2.758 1.873 4.526 1.873 3.369-.716 4.526-1.873 1.873-2.758 1.873-4.526c0-.893-.157-1.724-.455-2.454l-.011.005a6.44 6.44 0 0 0-1.408-2.076c-.638-.638-1.333-1.113-2.045-1.408-.736-.306-1.576-.466-2.48-.466zm48.926 58.601c-1.768 0-3.369.716-4.526 1.873s-1.873 2.758-1.873 4.526.716 3.369 1.873 4.526 2.758 1.873 4.526 1.873c1.769 0 3.369-.716 4.526-1.873s1.873-2.758 1.873-4.526c0-.904-.161-1.744-.466-2.481-.295-.712-.77-1.407-1.408-2.045s-1.332-1.113-2.044-1.408c-.736-.304-1.576-.465-2.481-.465zm-15.838-9.439a22.307 22.307 0 0 1 24.383-4.845 22.432 22.432 0 0 1 7.295 4.845 22.416 22.416 0 0 1 4.845 7.295 22.302 22.302 0 0 1 1.716 8.543 22.332 22.332 0 0 1-6.561 15.839c-4.053 4.053-9.654 6.561-15.839 6.561s-11.785-2.507-15.839-6.561c-4.053-4.053-6.561-9.654-6.561-15.839s2.508-11.785 6.561-15.838zm15.338-60.116a7.97 7.97 0 1 1 12.937 9.313l-60.335 83.965a7.97 7.97 0 1 1-12.937-9.313zm-64.264 1.515a22.332 22.332 0 0 1 15.839-6.561c2.934 0 5.828.592 8.543 1.716a22.432 22.432 0 0 1 7.295 4.845 22.36 22.36 0 0 1 4.845 7.263l-.011.005.011.027a22.32 22.32 0 0 1 1.716 8.543 22.326 22.326 0 0 1-6.561 15.838 22.33 22.33 0 0 1-15.839 6.561c-6.185 0-11.785-2.507-15.839-6.56s-6.561-9.653-6.561-15.839a22.33 22.33 0 0 1 6.562-15.838zM250.474 461.466a7.994 7.994 0 0 1-15.099-.804l-4.352-15.255a7.993 7.993 0 0 1 7.972-10.177l15.288-.549a7.974 7.974 0 0 1 5.718 13.802 77.167 77.167 0 0 0 9.834 4.368c8.26 2.998 17.22 4.633 26.61 4.633 21.536 0 41.034-8.729 55.147-22.842 14.112-14.112 22.842-33.61 22.842-55.147 0-7.064-.929-13.886-2.669-20.35a77.501 77.501 0 0 0-7.877-18.877 7.981 7.981 0 0 1 13.812-8 93.462 93.462 0 0 1 9.502 22.752 94.04 94.04 0 0 1 3.232 24.475c0 25.953-10.521 49.451-27.529 66.459s-40.506 27.529-66.459 27.529a93.757 93.757 0 0 1-32.048-5.634 93.645 93.645 0 0 1-13.924-6.383zM332.897 310.5a7.974 7.974 0 0 0 5.709 13.81l15.288-.549a7.994 7.994 0 0 0 7.972-10.177l-4.352-15.255a7.994 7.994 0 0 0-15.101-.798 93.576 93.576 0 0 0-13.156-6.102 93.776 93.776 0 0 0-32.812-5.921c-25.953 0-49.451 10.52-66.459 27.529-17.009 17.009-27.529 40.506-27.529 66.459a94.053 94.053 0 0 0 3.408 25.064 93.463 93.463 0 0 0 9.953 23.205 7.976 7.976 0 0 0 13.688-8.188 77.6 77.6 0 0 1-8.265-19.267c-1.814-6.566-2.783-13.543-2.783-20.814 0-21.536 8.729-41.034 22.842-55.147s33.61-22.842 55.147-22.842c9.643 0 18.822 1.717 27.249 4.858a77.768 77.768 0 0 1 9.201 4.135z" fill="#ffe177"></path><path d="M307.863 331.654a48.946 48.946 0 0 1 14.331 5.941l9.312-4.136 10.975 10.975-4.135 9.309a48.922 48.922 0 0 1 5.942 14.335l9.501 3.657v15.521l-9.503 3.658a48.946 48.946 0 0 1-5.941 14.331l4.136 9.312-10.975 10.975-9.309-4.135a48.922 48.922 0 0 1-14.335 5.942l-3.657 9.501h-15.522l-3.658-9.503a48.946 48.946 0 0 1-14.331-5.941l-9.312 4.136-10.975-10.975 4.135-9.309a48.922 48.922 0 0 1-5.942-14.335l-9.501-3.657v-15.522l9.502-3.658a48.94 48.94 0 0 1 5.941-14.332l-4.135-9.311 10.975-10.976 9.312 4.136a48.946 48.946 0 0 1 14.331-5.941l3.658-9.503h15.521z" fill="#ffe177"></path><path d="m270.696 421.397-9.312 4.136-1.434-1.434 8.731-3.878c.662.408 1.334.8 2.015 1.176zm37.167-89.743a48.946 48.946 0 0 1 14.331 5.941l-2.647 1.176c-4.432-2.729-11.283-5.912-16.346-7.117l-3.658-9.503h4.663zm14.334 89.744a48.922 48.922 0 0 1-14.335 5.942l-3.657 9.501h-4.663l3.657-9.501c5.064-1.205 11.917-4.388 16.349-7.118zm-62.248-86.505 1.434-1.434 9.312 4.136c-.68.376-1.352.767-2.015 1.176zm68.329 0 3.229-1.434 10.975 10.975-4.135 9.309a48.922 48.922 0 0 1 5.942 14.335l9.501 3.657v15.521l-9.503 3.658a48.946 48.946 0 0 1-5.941 14.331l4.136 9.312-10.975 10.975-3.228-1.434 9.542-9.542-4.136-9.312a48.935 48.935 0 0 0 5.941-14.331l9.503-3.658v-15.521l-9.501-3.657a48.971 48.971 0 0 0-5.942-14.335l4.135-9.309z" fill="#ffd064"></path><ellipse cx="296.445" cy="379.496" fill="#eceff1" rx="27.068" ry="27.067" transform="rotate(-87.14 296.43 379.41)"></ellipse><path d="M296.444 352.428c-14.95 0-27.067 12.117-27.067 27.068 0 14.95 12.117 27.067 27.067 27.067.725 0 1.443-.029 2.153-.085-13.943-1.097-24.915-12.757-24.915-26.982 0-14.226 10.971-25.886 24.915-26.983a27.377 27.377 0 0 0-2.153-.085z" fill="#d1d1d6"></path></g></g></svg>