<svg viewBox="0 0 472.002 472.002" xmlns="http://www.w3.org/2000/svg"><g><path d="m206.681 405.058-2.68 58.944h256l-5.736-108.976c-1.382-26.23-17.877-49.267-42.264-59.024l-104-24a150.351 150.351 0 0 0-17.656 7.2 73.866 73.866 0 0 0-32.256 31.52l-51.408 94.336z" fill="#f6f6e7"></path><path d="M454.265 355.026a67.208 67.208 0 0 0-3.8-19.024H244.297l-26.144 48h237.64l-1.528-28.976zM260.001 432.002h-54.544l-1.456 32h256l-1.688-32H260.001z" fill="#394d5d"></path><path d="M300.001 168.002v82.336a47.12 47.12 0 0 0 17.88 35.648c30.149 23.147 71.825 24.077 102.976 2.296l2.4-1.824a48.118 48.118 0 0 0 20.744-37.952v-80.504" fill="#f4d8c3"></path><path d="m300.001 232.002 17.688 8.848a67.816 67.816 0 0 0 30.312 7.152 14.95 14.95 0 0 0 12.44-6.656l7.12-10.688a14.95 14.95 0 0 1 24.88 0l7.12 10.688a14.95 14.95 0 0 0 12.44 6.656 38.627 38.627 0 0 0 27.312-11.312l4.688-4.688v-72h-144v72z" fill="#394d5d"></path><path d="M332.001 192.002h16v16h-16v-16zM404.001 192.002h16v16h-16v-16z" fill="#ffffff"></path><path d="m276.001 328.002-30.92-111.312a113.414 113.414 0 0 0-34.616-55.032l-6.4-5.6a113.473 113.473 0 0 0-74.704-28.056h-2.568a113.494 113.494 0 0 0-50.752 12l-9.312 4.648a113.502 113.502 0 0 0-47.776 45.2 113.504 113.504 0 0 0-14.952 56.296v5.392a329.437 329.437 0 0 0 14.056 86.64 113.53 113.53 0 0 0 33.808 50.28 114.404 114.404 0 0 0 74.456 27.544h37.68c8 0 96-24 96-24l24-8-8-56z" fill="#bca996"></path><path d="M108.001 200.002h16v144h-16v-144z" fill="#826346"></path><path d="M130.057 328.002h-19.104a32.09 32.09 0 0 1-7.744-.952l-29.152-7.288 3.888-15.52 29.128 7.28c1.269.318 2.572.48 3.88.48h19.104c8.837 0 16-7.163 16-16s-7.163-16-16-16h-28.112c-17.673 0-32-14.327-32-32s14.327-32 32-32h19.104a32.09 32.09 0 0 1 7.744.952l29.152 7.288-3.888 15.52-29.128-7.28a15.963 15.963 0 0 0-3.88-.48h-19.104c-8.837 0-16 7.163-16 16s7.163 16 16 16h28.112c17.673 0 32 14.327 32 32s-14.327 32-32 32z" fill="#826346"></path><path d="m452.001 128.002-9-34.192a70.033 70.033 0 0 0-47-49.56v-9.512a35.198 35.198 0 0 0-17.688-31.072 29.77 29.77 0 0 0-28.624 0 35.198 35.198 0 0 0-17.688 31.072v18.736a71.279 71.279 0 0 0-31.592 42.568l-8.408 31.96h-16v40h192v-40h-16z" fill="#2b472f"></path><path d="M308.001 128.002h16v40h-16v-40zM348.001 128.002h16v40h-16v-40zM388.001 128.002h16v40h-16v-40zM428.001 128.002h16v40h-16v-40zM364.001.002a30.003 30.003 0 0 1 14.312 3.664 35.198 35.198 0 0 1 17.688 31.072v13.264h-24a147.741 147.741 0 0 0-7.592-46.768l-.408-1.232z" fill="#1b381f"></path><path d="M372.001 40.69a71.209 71.209 0 0 1 36.072 8.608 71.278 71.278 0 0 1 34.928 44.512l9 34.192h-40v-18.656a70.504 70.504 0 0 0-21.376-50.568L372.001 40.69z" fill="#1b381f"></path><path d="M324.001 472.002V357.258a32 32 0 0 0-9.376-22.632c-12.496-12.492-32.752-12.492-45.248 0a32 32 0 0 0-9.376 22.632v114.744" fill="#f4d8c3"></path><path d="m270.297 333.874 3.512 5.264-3.512-5.264zM284.457 326.266l2.664 3.992-2.664-3.992zM287.121 330.258l-2.664-4a31.673 31.673 0 0 0-14.16 7.608l3.512 5.264a60.473 60.473 0 0 1 10.192 33.672v11.2a8 8 0 0 0 16 0v-11.2a76.51 76.51 0 0 0-12.88-42.544z" fill="#bca996"></path></g></svg>