<svg viewBox="0 0 96 96" xmlns="http://www.w3.org/2000/svg"><g><path d="M75.25 24h-36v11H30.5v12H13v25h70V24z" fill="#cccccc"></path><g fill="#f33e3f"><path d="M13 48h70v12H13zM13 60h70v12H13zM30.5 36H48v12H30.5zM65.5 36H83v12H65.5zM48 36h17.5v12H48zM56.75 24h17.5v12h-17.5zM74.25 24H83v12h-8.75zM39.25 24h17.5v12h-17.5z" fill="#f33e3f"></path></g><path d="M75.25 35V24h-2v11h-15.5V24h-2v11H30.5v2H47v10H13v2h7.75v10H13v2h16.5v11h2V61H47v11h2V61h15.5v11h2V61H83v-2h-7.75V49H83v-2H66.5V37H83v-2zm-2 24h-15.5V49h15.5zm-17.5 0h-15.5V49h15.5zM49 37h15.5v10H49zM38.25 59h-15.5V49h15.5z" fill="#cccccc"></path></g></svg>