<svg viewBox="0 0 512 512" xmlns="http://www.w3.org/2000/svg"><g><path d="M512 256c0 69.449-27.655 132.439-72.553 178.559-2.219 2.279-8.284.159-10.586 2.355-19.94 19.019-42.946 34.852-68.201 46.682-2.235 1.047-.683 6.421-2.953 7.404-31.175 13.511-65.566 21-101.707 21s-70.532-7.489-101.707-21c-3.907-1.693.808-11.073-2.995-12.952-34.468-17.034-64.549-41.6-88.093-71.548-2.273-2.891-13.056 1.76-15.205-1.229C17.791 363.25 0 311.703 0 256s17.791-107.25 48-149.271c1.739-2.419 9.673-1.226 11.493-3.581a257.5 257.5 0 0 1 55.039-52.744c2.627-1.858-.862-7.247 1.837-9.007C156.526 15.215 204.486 0 256 0c141.385 0 256 114.615 256 256z" fill="#4bcd5c"></path><path d="m406.692 145.187 18.467 11.526v291.44c-19.966 17.59-42.694 32.117-67.452 42.847H154.293c-4.285-1.685-7.392-3.473-11.566-5.361-37.795-18.678-70.316-46.412-94.727-80.368V106.729a257.474 257.474 0 0 1 52.99-54.481h217.38l9.98 16.302z" fill="#00c53b"></path><path d="M133.447 32.352h218.995l9.345 15.605 73.362 73.362 17.293 11.033v305c0 8.284-6.716 15-15 15H133.447c-8.284 0-15-6.716-15-15v-390c0-8.284 6.716-15 15-15z" fill="#ececf1"></path><path d="M143.877 452.352H114.26c-8.284 0-15-6.716-15-15v-390c0-8.284 6.716-15 15-15h29.617c-8.284 0-15 6.716-15 15v390c0 8.284 6.716 15 15 15z" fill="#d4d4da"></path><path d="M416 232.333a7.5 7.5 0 0 1-7.5 7.5h-257a7.5 7.5 0 0 1 0-15h257a7.5 7.5 0 0 1 7.5 7.5zm-7.5-40.833h-257a7.5 7.5 0 0 0 0 15h257a7.5 7.5 0 0 0 0-15zm0-33.333h-257a7.5 7.5 0 0 0 0 15h257a7.5 7.5 0 0 0 0-15zM258.521 324.833H151.5a7.5 7.5 0 0 0 0 15h107.021a7.5 7.5 0 0 0 0-15zM258.5 291.5h-107a7.5 7.5 0 0 0 0 15h107a7.5 7.5 0 0 0 0-15zm150-33.333h-257a7.5 7.5 0 0 0 0 15h257a7.5 7.5 0 0 0 0-15zM258.521 391.5H151.5a7.5 7.5 0 0 0 0 15h107.021a7.5 7.5 0 0 0 0-15zm0-33.333H151.5a7.5 7.5 0 0 0 0 15h107.021a7.5 7.5 0 0 0 0-15z" fill="#babac0"></path><path d="M452.442 132.352h-85c-8.284 0-15-6.716-15-15v-85z" fill="#fff5f5"></path><path d="M301.474 87.333a7.5 7.5 0 0 1-7.5 7.5H151.5a7.5 7.5 0 0 1 0-15h142.474a7.5 7.5 0 0 1 7.5 7.5zm-41.474 30a7.5 7.5 0 0 1-7.5 7.5h-101a7.5 7.5 0 0 1 0-15h101a7.5 7.5 0 0 1 7.5 7.5zM416 301.333v95c0 5.523-4.477 10-10 10H299c-5.523 0-10-4.477-10-10v-95c0-5.523 4.477-10 10-10h107c5.523 0 10 4.477 10 10z" fill="#0571b5"></path><path d="M319.766 406.333H299c-5.523 0-10-4.477-10-10v-95c0-5.523 4.477-10 10-10h20.766c-5.523 0-10 4.477-10 10v95c0 5.523 4.477 10 10 10z" fill="#05609b"></path><path d="M463.804 461.804c-1.465 1.464-3.385 2.196-5.304 2.196s-3.839-.732-5.304-2.196l-108-108a7.5 7.5 0 0 1 .523-11.083c.149-.18.308-.355.477-.524l105-105a7.5 7.5 0 0 1 10.607 10.607L361.107 348.5l102.696 102.696a7.502 7.502 0 0 1 .001 10.608z" fill="#013f69"></path><path d="M382.499 348.613a29.879 29.879 0 0 1-7.332 19.872 2.952 2.952 0 0 1-1.344.883 29.989 29.989 0 0 1-9.173 1.379c-16.352-.082-29.728-13.427-29.846-29.779a29.885 29.885 0 0 1 7.189-19.707 3.632 3.632 0 0 1 1.695-1.113 29.985 29.985 0 0 1 8.964-1.314c16.353.082 29.73 13.427 29.847 29.779zm129.5-112.576a40.1 40.1 0 0 1-9.836 26.662 3.958 3.958 0 0 1-1.803 1.184 40.225 40.225 0 0 1-12.306 1.85c-21.939-.11-39.885-18.015-40.043-39.953a40.098 40.098 0 0 1 9.645-26.441 4.88 4.88 0 0 1 2.274-1.493 40.248 40.248 0 0 1 12.027-1.763c21.938.111 39.884 18.016 40.042 39.954zm0 225.595c.091 12.671-4.532 24.261-12.219 33.121a4.917 4.917 0 0 1-2.24 1.471 49.98 49.98 0 0 1-15.288 2.298c-27.253-.136-49.547-22.379-49.743-49.631a49.81 49.81 0 0 1 11.982-32.846 6.05 6.05 0 0 1 2.824-1.854A50.018 50.018 0 0 1 462.256 412c27.253.137 49.547 22.38 49.743 49.632z" fill="#75a7d5"></path><path d="M375.409 368.204c-5.503 6.502-13.724 10.63-22.909 10.63-16.569 0-30-13.431-30-30 0-13.575 9.017-25.044 21.388-28.745a29.877 29.877 0 0 0-7.091 19.37c0 16.569 13.431 30 30 30a30.043 30.043 0 0 0 8.612-1.255zm127.077-105.882c-7.383 8.723-18.413 14.261-30.736 14.261-22.229 0-40.25-18.021-40.25-40.25 0-18.213 12.097-33.601 28.695-38.567a40.089 40.089 0 0 0-9.514 25.989c0 22.229 18.021 40.25 40.25 40.25a40.25 40.25 0 0 0 11.555-1.683zm-2.304 231.962C491.01 505.12 477.308 512 462 512c-27.614 0-50-22.386-50-50 0-22.625 15.028-41.741 35.646-47.909a49.799 49.799 0 0 0-11.818 32.284c0 27.614 22.386 50 50 50 4.989 0 9.807-.731 14.354-2.091z" fill="#5594cc"></path></g></svg>