<svg viewBox="0 0 512 512" xmlns="http://www.w3.org/2000/svg"><g><g clip-rule="evenodd" fill-rule="evenodd"><path d="m337.853 187.328-54.668 45.335 29.318 68.07c.942 2.187 3.948 2.41 5.203.387l18.925-30.497 35.162 7.201c2.335.477 4.236-1.858 3.293-4.047z" fill="#fe646f"></path><path d="m337.853 187.328-7.228 5.994 34.652 80.455a2.902 2.902 0 0 1-.174 2.677l6.691 1.37c2.335.477 4.236-1.858 3.293-4.047zm-27.138 109.251 17.214-27.739 8.704 1.783-18.925 30.497c-1.255 2.022-4.262 1.799-5.203-.387z" fill="#fd4755"></path><path d="m257.202 229.146-39.306 84.425c-1.005 2.159-4.016 2.295-5.213.237l-18.033-31.033-35.357 6.178c-2.349.41-4.181-1.98-3.174-4.141l38.876-83.501z" fill="#fe646f"></path><path d="m257.202 229.146-39.306 84.425c-1.005 2.159-4.016 2.295-5.212.236l-18.033-31.033-35.357 6.178c-2.349.41-4.181-1.98-3.174-4.141l2.39-5.134 31.176-5.447 18.033 31.033c1.196 2.058 4.208 1.922 5.212-.236l36.87-79.192z" fill="#fd4755"></path><path d="M280.524 21.061c23.503 17.593 18.173 15.653 47.486 17.283 11.259.626 20.404 8.299 22.975 19.278 2.429 10.369 3.618 23.445 11.535 30.875l13.732 12.888c8.222 7.717 10.295 19.473 5.208 29.536-13.244 26.201-12.259 20.615-8.775 49.766 1.338 11.197-4.63 21.534-14.996 25.974-26.987 11.558-22.642 7.912-38.711 32.482-6.172 9.437-17.389 13.52-28.183 10.258-28.103-8.493-22.431-8.493-50.534 0-10.794 3.262-22.011-.82-28.183-10.258-16.069-24.57-11.724-20.924-38.711-32.482-10.366-4.439-16.334-14.777-14.996-25.974 3.484-29.151 4.469-23.565-8.775-49.766-5.087-10.064-3.014-21.819 5.208-29.536 21.407-20.091 18.571-15.179 25.267-43.763 2.572-10.979 11.716-18.652 22.975-19.278 29.312-1.631 23.982.309 47.486-17.283 9.027-6.758 20.964-6.758 29.992 0z" fill="#ffe177"></path><path d="M280.524 21.061c23.503 17.593 18.173 15.653 47.486 17.283 11.259.626 20.404 8.299 22.976 19.278 2.429 10.369 3.617 23.445 11.535 30.875l13.732 12.888c8.222 7.717 10.295 19.473 5.208 29.537-13.244 26.201-12.259 20.615-8.775 49.766 1.338 11.197-4.63 21.535-14.996 25.974-26.987 11.558-22.642 7.911-38.711 32.482-5.99 9.159-16.733 13.274-27.229 10.526 5.75-1.544 10.874-5.173 14.375-10.526 16.069-24.571 11.724-20.924 38.711-32.482 10.366-4.439 16.334-14.777 14.996-25.974-3.484-29.151-4.469-23.565 8.775-49.766 5.087-10.064 3.014-21.819-5.208-29.537l-13.732-12.888c-7.918-7.431-9.106-20.506-11.535-30.875-2.572-10.979-11.716-18.652-22.976-19.278-29.313-1.631-23.983.309-47.486-17.283a25.411 25.411 0 0 0-8.569-4.207c7.226-1.966 15.05-.564 21.423 4.207zm-21.423 222.792c-4.293.977-9.829 2.826-18.84 5.549-4.671 1.412-9.421 1.447-13.808.268.319-.083.637-.173.955-.268 19.091-5.771 22.598-7.619 31.693-5.549z" fill="#ffd064"></path><circle cx="265.528" cy="133.252" fill="#eceff1" r="70.039"></circle><path d="M265.528 63.213c1.884 0 3.75.076 5.597.222-36.064 2.852-64.442 33.019-64.442 69.816s28.378 66.965 64.442 69.816a71.002 71.002 0 0 1-5.597.223c-38.681 0-70.039-31.357-70.039-70.039 0-38.68 31.358-70.038 70.039-70.038z" fill="#d1d1d6"></path><path d="M223.762 144.052c-4.881-4.881-4.881-12.795 0-17.676s12.795-4.881 17.676 0l10.801 10.801 37.818-34.32c5.097-4.638 12.989-4.267 17.627.83s4.267 12.989-.83 17.627l-46.141 41.873-.069.071c-4.881 4.881-12.795 4.881-17.676 0z" fill="#8ac9fe"></path><path d="m60.57 391.508 72.088-41.765c13.529-7.838 27.286-13.396 42.157-8.572 16.579 5.376 43.653 16.922 71.262 21.901 10.248 3.323 16.637 13.584 13.849 23.989-2.788 10.407-11.581 15.772-23.989 13.853l9.651 1.545c11.06 1.769 21.217.255 30.897-5.382l69.309-40.368c53.875-31.378 61.789 16.895 43.876 27.923l-125.778 77.449c-11.568 7.121-24.226 8.783-37.349 5.266l-91.23-24.445-33.786 19.506c-6.496 3.75-14.853 1.511-18.604-4.985l-27.321-47.321c-3.747-6.49-1.516-14.837 4.968-18.594z" fill="#f6dccd"></path><path d="M258.282 391.378c-3.852 7.529-11.79 11.168-22.345 9.536-14.944-3.952-29.871-8.003-44.803-12.004a7.497 7.497 0 0 1 3.881-14.483zM60.57 391.508l72.088-41.765c13.529-7.838 27.286-13.396 42.157-8.572 8.87 2.876 20.744 7.518 34.097 11.976L69.267 433.771l-13.665-23.669c-3.747-6.49-1.517-14.837 4.968-18.594z" fill="#f1cbbc"></path><path d="m67.758 368.761 57.171 101.018c2.764 4.884 1.03 11.142-3.855 13.907l-19.447 11.006c-4.884 2.765-11.142 1.03-13.907-3.854L30.55 389.819c-2.764-4.884-1.029-11.143 3.855-13.907l19.446-11.005c4.884-2.765 11.142-1.03 13.907 3.854z" fill="#d1d1d6"></path><path d="m97.826 438.167 10.119 17.88 10.007 17.681c2.759 4.875 1.037 11.117-3.825 13.89l6.947-3.932c4.884-2.764 6.619-9.022 3.855-13.907l-10.04-17.741-20.16-35.622-20.183-35.662-6.787-11.993c-2.394-4.231-7.411-6.098-11.885-4.725l11.75 20.764 20.16 35.622 10.04 17.741z" fill="#b1b1b5"></path><path d="M54.689 383.857a6.943 6.943 0 1 0 2.01 13.74 6.943 6.943 0 0 0-2.01-13.74z" fill="#685e68"></path><path d="M437.985 17.009 398.291 63.76c-1.593 1.876-.261 4.749 2.198 4.749h18.487v99.632c0 3.169 2.597 5.766 5.767 5.766h30.88c3.169 0 5.766-2.591 5.766-5.766V68.509h18.488c2.459 0 3.79-2.873 2.197-4.749L442.38 17.009a2.884 2.884 0 0 0-4.395 0z" fill="#8ac9fe"></path><path d="m437.985 17.009-4.259 5.016 35.435 41.735c1.593 1.876.262 4.749-2.197 4.749h12.913c2.459 0 3.79-2.873 2.197-4.749L442.38 17.009a2.884 2.884 0 0 0-4.395 0zm4.725 156.898c3.169 0 5.766-2.591 5.766-5.766V68.509h12.913v99.632c0 3.175-2.597 5.766-5.766 5.766z" fill="#60b7ff"></path><path d="m88.676 17.009-39.693 46.75c-1.593 1.876-.261 4.749 2.198 4.749h18.487v99.632c0 3.169 2.597 5.766 5.767 5.766h30.88c3.169 0 5.766-2.591 5.766-5.766V68.509h18.488c2.459 0 3.79-2.873 2.197-4.749L93.071 17.009a2.884 2.884 0 0 0-4.395 0z" fill="#8ac9fe"></path><path d="m88.676 17.009-4.259 5.016 35.435 41.735c1.593 1.876.262 4.749-2.197 4.749h12.913c2.459 0 3.79-2.873 2.197-4.749L93.071 17.009a2.884 2.884 0 0 0-4.395 0zm4.725 156.898c3.169 0 5.766-2.591 5.766-5.766V68.509h12.913v99.632c0 3.175-2.597 5.766-5.766 5.766z" fill="#60b7ff"></path></g></g></svg>