<svg viewBox="0 0 496.878 496.878" xmlns="http://www.w3.org/2000/svg"><g><path d="M15 104.641h57.434v132.707H15c-8.284 0-15-6.716-15-15V119.641c0-8.284 6.716-15 15-15z" fill="#fd4755"></path><path d="M471.878 237.34h-47.434V104.633h47.434c8.284 0 15 6.716 15 15V222.34c0 8.284-6.716 15-15 15z" fill="#fe646f"></path><path d="M481.878 104.633h-20c8.284 0 15 6.716 15 15V222.34c0 8.284-6.716 15-15 15h20c8.284 0 15-6.716 15-15V119.633c0-8.284-6.716-15-15-15z" fill="#fd4755"></path><path d="m181.173 156.78 8.905 50.192-24.797 4.989 27.042 33.738a10 10 0 0 1 2.197 6.254v170.515c0 8.284 6.716 15 15 15h81.971c8.284 0 15-6.716 15-15V254.936a9.998 9.998 0 0 1 4.278-8.201l14.478-10.101a25.001 25.001 0 0 0 10.695-20.503V156.78z" fill="#fed2a4"></path><path d="M315.941 156.78v59.351a25 25 0 0 1-10.695 20.503l-14.478 10.102a9.998 9.998 0 0 0-4.278 8.201v167.531c0 8.284-6.716 15-15 15h20c8.284 0 15-6.716 15-15V254.936a9.998 9.998 0 0 1 4.278-8.201l14.478-10.102a25.001 25.001 0 0 0 10.695-20.503v-59.35z" fill="#ffbd86"></path><path d="m368.5 205.471-9.646-5.408-10.728 5.408H118.377v-68.962h229.749l10.29 5.344 10.084-5.344z" fill="#efedef"></path><path d="M348.125 136.51h30v68.96h-30z" fill="#d7d0d6"></path><path d="M219.867 118.347h38.69l38.69 10 .004 35.466h-77.384l-7.728-16.048z" fill="#ffbd86"></path><path d="M200.52 182.16c-2.096 0-4.114.667-6.004.05-7.746-2.526-13.343-9.808-13.343-18.397v-45.466c0-8.589 5.597-15.871 13.344-18.397 1.89-.616 3.908.05 6.003.05 10.685 0 18.347 7.662 18.347 18.347v45.466c0 10.685-7.662 18.347-18.347 18.347z" fill="#ffbd86"></path><path d="M200.52 99c-2.096 0-4.11.344-6 .96 7.745 2.526 13.347 9.798 13.347 18.387v45.466c0 8.589-5.602 15.86-13.347 18.387 1.89.617 3.904.96 6 .96 10.685 0 19.347-8.662 19.347-19.347v-45.466c0-10.685-8.662-19.347-19.347-19.347z" fill="#f6a96c"></path><path d="M316.594 182.16c-2.096 0-4.114.667-6.003.05-7.746-2.526-13.344-9.808-13.344-18.397v-35.466c0-8.589 5.597-15.871 13.344-18.397 1.89-.616 3.908.05 6.003.05 10.685 0 18.347 7.662 18.347 18.347v35.466c0 10.685-7.662 18.347-18.347 18.347z" fill="#ffbd86"></path><path d="M316.594 109c-2.096 0-4.11.344-6 .96 7.746 2.526 13.347 9.798 13.347 18.387v35.466c0 8.589-5.602 15.86-13.347 18.387 1.89.617 3.904.96 6 .96 10.685 0 19.347-8.662 19.347-19.347v-35.466c0-10.685-8.662-19.347-19.347-19.347z" fill="#f6a96c"></path><path d="M239.214 182.16c-2.096 0-4.114.667-6.003.05-7.746-2.526-13.344-9.808-13.344-18.397v-53.466c0-8.589 5.597-15.871 13.344-18.397 1.89-.616 3.908.05 6.003.05 10.685 0 18.347 7.662 18.347 18.347v53.466c0 10.685-7.662 18.347-18.347 18.347z" fill="#ffbd86"></path><path d="M239.214 91c-2.096 0-4.11.344-6 .96 7.745 2.526 13.347 9.798 13.347 18.387v53.466c0 8.589-5.602 15.86-13.347 18.387 1.89.617 3.904.96 6 .96 10.685 0 19.347-8.662 19.347-19.347v-53.466c0-10.685-8.662-19.347-19.347-19.347z" fill="#f6a96c"></path><path d="M277.904 182.16c-2.096 0-4.114.667-6.004.05-7.746-2.526-13.344-9.808-13.344-18.397v-45.466c0-8.589 5.597-15.871 13.344-18.397 1.89-.616 3.908.05 6.004.05 10.685 0 18.347 7.662 18.347 18.347v45.466c0 10.685-7.662 18.347-18.347 18.347z" fill="#ffbd86"></path><path d="M277.904 99c-2.096 0-4.11.344-6 .96 7.745 2.526 13.347 9.798 13.347 18.387v45.466c0 8.589-5.602 15.86-13.347 18.387 1.89.617 3.904.96 6 .96 10.685 0 19.347-8.662 19.347-19.347v-45.466c0-10.685-8.662-19.347-19.347-19.347z" fill="#f6a96c"></path><path d="M235.996 218.44c0-37.969-36.521-44.614-44.511-45.613a1.743 1.743 0 0 1-1.532-1.728v-.026c0-.961.779-1.74 1.74-1.74h17.326c14.898 0 26.976-12.078 26.976-26.976v-3c0-3.64-2.951-3.591-6.591-3.591h-46.797c-12.037 0-21.795 9.758-21.795 21.795v41.63a20.49 20.49 0 0 0 4.467 12.771z" fill="#fed2a4"></path><path d="M425.704 282.571H383.5c-8.284 0-15-6.716-15-15V74.41c0-8.284 6.716-15 15-15h42.203c8.284 0 15 6.716 15 15v193.161c.001 8.285-6.715 15-14.999 15z" fill="#fe646f"></path><path d="M435.704 59.41h-20c8.284 0 15 6.716 15 15v193.162c0 8.284-6.716 15-15 15h20c8.284 0 15-6.716 15-15V74.41c0-8.284-6.716-15-15-15z" fill="#fd4755"></path><path d="M101.377 282.571H61.174c-8.284 0-15-6.716-15-15V74.41c0-8.284 6.716-15 15-15h40.203c8.284 0 15 6.716 15 15v193.161c0 8.285-6.716 15-15 15z" fill="#fe646f"></path><path d="M113.377 59.41h-20c8.284 0 15 6.716 15 15v193.162c0 8.284-6.716 15-15 15h20c8.284 0 15-6.716 15-15V74.41c0-8.284-6.716-15-15-15z" fill="#fd4755"></path></g></svg>