<svg viewBox="0 0 512 512" xmlns="http://www.w3.org/2000/svg"><g><path d="M490.396 382.637H27.314a3.624 3.624 0 0 1-3.624-3.624v-39.084H512v21.104c0 11.932-9.673 21.604-21.604 21.604z" fill="#2d5871"></path><path d="M511.985 358.181H326.826V181.215h126.695a22.275 22.275 0 0 1 18.269 9.53l36.188 51.87a22.276 22.276 0 0 1 4.007 12.746v102.82z" fill="#ff4c4c"></path><path d="m507.978 242.615-36.188-51.87a22.277 22.277 0 0 0-18.269-9.53h-46.033a22.275 22.275 0 0 1 18.269 9.53l36.188 51.87a22.276 22.276 0 0 1 4.007 12.745v73.8a8 8 0 0 1-8 8H326.826v21.021h185.159v-102.82c0-4.559-1.399-9.008-4.007-12.746z" fill="#f33939"></path><path d="M378.87 280.231v-64.593a3.393 3.393 0 0 1 3.393-3.393h64.921c1.109 0 2.148.542 2.783 1.451l30.378 43.541c.397.569.61 1.247.61 1.941v21.052a3.393 3.393 0 0 1-3.393 3.393h-95.299a3.391 3.391 0 0 1-3.393-3.392z" fill="#21d8de"></path><circle cx="432.39" cy="374.141" fill="#1d4859" r="44.588"></circle><path d="M432.393 390.703c-9.132 0-16.561-7.429-16.561-16.561 0-9.131 7.429-16.561 16.561-16.561s16.561 7.429 16.561 16.561-7.429 16.561-16.561 16.561z" fill="#e1effb"></path><path d="M352.89 358.181H6.757A6.757 6.757 0 0 1 0 351.424V100.028a6.757 6.757 0 0 1 6.757-6.757h339.376a6.757 6.757 0 0 1 6.757 6.757v258.153z" fill="#ffb125"></path><path d="M346.133 93.271h-39.276v224.428c0 10.748-8.713 19.461-19.461 19.461H0v14.264a6.757 6.757 0 0 0 6.757 6.757H352.89V100.028a6.757 6.757 0 0 0-6.757-6.757z" fill="#ff901d"></path><path d="M170.89 215.973a8.737 8.737 0 0 1-5.708-2.114L108.1 164.913l-57.082 48.946a8.775 8.775 0 0 1-12.374-.95 8.775 8.775 0 0 1 .95-12.374l62.794-53.845a8.773 8.773 0 0 1 11.424 0l62.794 53.845a8.776 8.776 0 0 1-5.716 15.438z" fill="#ffffff"></path><path d="m157.269 223.47-45.563-39.069a5.54 5.54 0 0 0-7.212 0l-45.563 39.07a5.54 5.54 0 0 0-1.934 4.205v56.005a5.54 5.54 0 0 0 5.54 5.54h30.216v-48.72a4.175 4.175 0 0 1 4.175-4.175h22.344a4.175 4.175 0 0 1 4.175 4.175v48.72h30.216a5.54 5.54 0 0 0 5.539-5.54v-56.005a5.539 5.539 0 0 0-1.933-4.206z" fill="#ffffff"></path><circle cx="101.47" cy="374.141" fill="#1d4859" r="44.588"></circle><path d="M101.469 390.703c-9.132 0-16.561-7.429-16.561-16.561 0-9.131 7.429-16.561 16.561-16.561s16.561 7.429 16.561 16.561-7.429 16.561-16.561 16.561z" fill="#e1effb"></path><path d="M261.485 260.045 312.3 222.31a2.48 2.48 0 0 0 0-3.982l-50.815-37.735c-1.636-1.215-3.958-.047-3.958 1.991v19.966h-39.782a2.48 2.48 0 0 0-2.48 2.48v30.579a2.48 2.48 0 0 0 2.48 2.48h39.782v19.966c0 2.037 2.322 3.205 3.958 1.99z" fill="#ffffff"></path></g></svg>