<svg height="512" viewBox="0 0 512 512" width="512" xmlns="http://www.w3.org/2000/svg"><g id="Layer_26" data-name="Layer 26"><rect fill="#94c1fa" height="416" rx="24" width="480" x="16" y="80"/><path d="m472 80h-432a24 24 0 0 0 -24 24v320a40 40 0 0 0 40 40h384l56-56v-304a24 24 0 0 0 -24-24z" fill="#c4dcfc"/><path d="m472 80h-432a23.98 23.98 0 0 0 -23.966 23.661c.733 191.068 140.107 360.339 311.966 360.339h112l56-56v-304a24 24 0 0 0 -24-24z" fill="#e7eefd"/><path d="m136 102.154c0 188.79 135.524 356.578 304.239 361.607l55.761-55.761v-304a24 24 0 0 0 -24-24h-312c-13.255 0-24 9.918-24 22.154z" fill="#f8f7fe"/><path d="m472 80h-432a24 24 0 0 0 -24 24v88h480v-88a24 24 0 0 0 -24-24z" fill="#eb445c"/><path d="m472 80h-408a24 24 0 0 0 -24 24v88h456v-88a24 24 0 0 0 -24-24z" fill="#ee6a79"/><path d="m174.75 68.108c-4.848-25.417-24.956-45.9-49.91-50.836-40.573-8.028-76.134 23.017-76.83 62.728h32.011c.7-19.934 18.979-35.307 39.519-30.53a32.082 32.082 0 0 1 23.6 24.036c3.885 17.337-5.809 33.088-20.38 38.385-6.26 2.276-10.76 7.876-10.76 14.649v1.86c0 10.341 9.843 18.038 19.513 14.889 29.598-9.643 49.829-40.627 43.237-75.181z" fill="#c4dcfc"/><path d="m174.75 68.108c-4.848-25.417-24.956-45.9-49.91-50.836-1.665-.329-3.3-.489-4.95-.689-31.133 4.017-55.307 30.757-55.88 63.417h16.011c.7-19.934 18.979-35.307 39.519-30.53.176.041.339.116.514.16a31.772 31.772 0 0 1 39.085 23.876c3.885 17.337-5.809 33.088-20.38 38.385-6.259 2.276-10.759 7.876-10.759 14.649v1.86a15.622 15.622 0 0 0 7.554 13.362c27.357-11.049 45.482-40.705 39.196-73.654z" fill="#e7eefd"/><path d="m462.751 68.108c-4.848-25.417-24.957-45.9-49.911-50.836-40.573-8.028-76.134 23.017-76.83 62.728h32.011c.7-19.934 18.975-35.307 39.519-30.53a32.082 32.082 0 0 1 23.6 24.036c3.886 17.337-5.809 33.088-20.38 38.385-6.26 2.276-10.76 7.876-10.76 14.649v1.86c0 10.341 9.843 18.038 19.513 14.889 29.599-9.643 49.829-40.627 43.238-75.181z" fill="#c4dcfc"/><path d="m462.751 68.108c-4.848-25.417-24.957-45.9-49.911-50.836-1.665-.329-3.3-.489-4.95-.689-31.132 4.017-55.307 30.757-55.88 63.417h16.011c.7-19.934 18.975-35.307 39.519-30.53.176.041.34.116.514.16a31.772 31.772 0 0 1 39.085 23.876c3.886 17.337-5.809 33.088-20.38 38.385-6.259 2.276-10.759 7.876-10.759 14.649v1.86a15.622 15.622 0 0 0 7.554 13.362c27.357-11.049 45.482-40.705 39.197-73.654z" fill="#e7eefd"/><path d="m440 408v56l56-56z" fill="#c4dcfc"/><g fill="#f5b953"><path d="m168 272a24.027 24.027 0 0 0 -24 24v8a8 8 0 0 0 16 0v-8a8 8 0 0 1 16 0v48a8 8 0 0 1 -16 0v-8a8 8 0 0 0 -16 0v8a24 24 0 0 0 48 0v-48a24.027 24.027 0 0 0 -24-24z"/><path d="m248 272a8 8 0 0 0 -8 8v38.461l-16.57-41.43a8 8 0 0 0 -15.43 2.969v80a8 8 0 0 0 16 0v-38.461l16.57 41.43a8 8 0 0 0 7.422 5.031 8.359 8.359 0 0 0 1.524-.141 8 8 0 0 0 6.484-7.859v-80a8 8 0 0 0 -8-8z"/><path d="m121.281 272.1a8.03 8.03 0 0 0 -8.867 5.367l-8.414 25.233-8.414-25.234a8 8 0 0 0 -15.586 2.534v80a8 8 0 0 0 16 0v-30.7l.414 1.234a8 8 0 0 0 15.172 0l.414-1.234v30.7a8 8 0 0 0 16 0v-80a8 8 0 0 0 -6.719-7.9z"/><path d="m360 272a24.027 24.027 0 0 0 -24 24v64a8 8 0 0 0 16 0v-16h16v16a8 8 0 0 0 16 0v-64a24.027 24.027 0 0 0 -24-24zm-8 56v-32a8 8 0 0 1 16 0v32z"/><path d="m432 272a8 8 0 0 0 -8 8v24a8 8 0 0 1 -16 0v-24a8 8 0 0 0 -16 0v24a23.959 23.959 0 0 0 16 22.525v33.475a8 8 0 0 0 16 0v-33.474a23.96 23.96 0 0 0 16-22.526v-24a8 8 0 0 0 -8-8z"/><path d="m288 272h-8a8 8 0 0 0 -8 8v24a8 8 0 0 0 16 0v-16a16.021 16.021 0 0 1 16 16v32a16.021 16.021 0 0 1 -16 16v-16a8 8 0 0 0 -16 0v24a8 8 0 0 0 8 8h8a32.032 32.032 0 0 0 32-32v-32a32.032 32.032 0 0 0 -32-32z"/></g></g></svg>