<svg viewBox="0 0 512 512" xmlns="http://www.w3.org/2000/svg"><g><path d="M33.301 478.699V8.325A8.325 8.325 0 0 0 24.976 0H8.325A8.325 8.325 0 0 0 0 8.325V495.35C0 504.545 7.455 512 16.65 512h487.024a8.325 8.325 0 0 0 8.325-8.325v-16.65a8.325 8.325 0 0 0-8.325-8.325H33.301z" fill="#9c9c9c"></path><path d="M503.675 478.699H243.713A606.103 606.103 0 0 1 216.694 512h286.98a8.325 8.325 0 0 0 8.325-8.325v-16.65a8.324 8.324 0 0 0-8.324-8.326z" fill="#838383"></path><path d="M506.229 244.573 466.256 204.6a8.076 8.076 0 0 0-11.421 0l-11.421 11.421a8.076 8.076 0 0 0 0 11.421l11.906 11.905-54.016.003L280.319 55.372a16.651 16.651 0 0 0-27.824 0L131.509 239.35H65.262a8.24 8.24 0 0 0-8.241 8.241v16.818a8.24 8.24 0 0 0 8.241 8.241h75.226a16.651 16.651 0 0 0 13.912-7.502L266.406 94.824l112.007 170.324a16.651 16.651 0 0 0 13.912 7.502l62.995.003-11.906 11.905a8.076 8.076 0 0 0 0 11.421l11.421 11.421a8.076 8.076 0 0 0 11.421 0l39.973-39.973a16.099 16.099 0 0 0 4.73-11.427 16.102 16.102 0 0 0-4.73-11.427z" fill="#d9b1ee"></path><path d="M506.229 244.573 466.256 204.6a8.076 8.076 0 0 0-11.421 0l-11.421 11.421a8.076 8.076 0 0 0 0 11.421l11.906 11.905-54.016.003-76.933-116.99c-3.593 12.274-8.631 24.946-15.038 37.74l69.08 105.048a16.651 16.651 0 0 0 13.912 7.502l62.995.003-11.906 11.905a8.076 8.076 0 0 0 0 11.421l11.421 11.421a8.076 8.076 0 0 0 11.421 0l39.973-39.973a16.099 16.099 0 0 0 4.73-11.427 16.102 16.102 0 0 0-4.73-11.427z" fill="#cb97e7"></path><path d="M70.521 321.776h-6c-4.142 0-7.5-3.357-7.5-7.5s3.358-7.5 7.5-7.5h6c4.142 0 7.5 3.357 7.5 7.5s-3.358 7.5-7.5 7.5zM342.902 321.776h-12.381c-4.142 0-7.5-3.357-7.5-7.5s3.358-7.5 7.5-7.5h12.381c4.142 0 7.5 3.357 7.5 7.5s-3.358 7.5-7.5 7.5zm-45.397 0h-12.381c-4.142 0-7.5-3.357-7.5-7.5s3.358-7.5 7.5-7.5h12.381c4.142 0 7.5 3.357 7.5 7.5s-3.358 7.5-7.5 7.5zm-45.397 0h-12.381c-4.142 0-7.5-3.357-7.5-7.5s3.358-7.5 7.5-7.5h12.381c4.142 0 7.5 3.357 7.5 7.5s-3.358 7.5-7.5 7.5zm-45.397 0H194.33c-4.142 0-7.5-3.357-7.5-7.5s3.358-7.5 7.5-7.5h12.381c4.142 0 7.5 3.357 7.5 7.5s-3.357 7.5-7.5 7.5zm-45.397 0h-12.381c-4.142 0-7.5-3.357-7.5-7.5s3.358-7.5 7.5-7.5h12.381c4.142 0 7.5 3.357 7.5 7.5s-3.358 7.5-7.5 7.5zm-45.397 0h-12.381c-4.142 0-7.5-3.357-7.5-7.5s3.358-7.5 7.5-7.5h12.381c4.142 0 7.5 3.357 7.5 7.5s-3.358 7.5-7.5 7.5zM381.918 321.776h-6c-4.142 0-7.5-3.357-7.5-7.5s3.358-7.5 7.5-7.5h6c4.142 0 7.5 3.357 7.5 7.5s-3.357 7.5-7.5 7.5z" fill="#fe99a0"></path></g></svg>