<svg id="icons" height="512" viewBox="0 0 64 64" width="512" xmlns="http://www.w3.org/2000/svg"><g><path d="m48 32 3-2v-3h3v-3h4l2-4h2l1 3-1 3v3l-4 1v2l-1 9-5 5v2l3 8h-4l-2-6h-7l-1 2h-6l-4 2v3h-2l-3-6h-2l-1 1h-1l-3-5h-2l-1 1-11-4-4-9.12v-8.88l2-4v-4l2 1 1-1 13 1.59h.02c.41 10.76 11.98 20.41 11.98 20.41s8.57-7.15 11.22-16h1.78l3 3v5z" fill="#a0d468"/><circle cx="31" cy="19" fill="#da4453" r="6"/><path d="m43 19a17.28656 17.28656 0 0 1 -.78 5c-2.65 8.85-11.22 16-11.22 16s-11.57-9.65-11.98-20.41a5.81541 5.81541 0 0 1 -.02-.59 12 12 0 0 1 24 0zm-6 0a6 6 0 1 0 -6 6 5.99835 5.99835 0 0 0 6-6z" fill="#ed5565"/></g></svg>