<svg viewBox="0 0 512 512" xmlns="http://www.w3.org/2000/svg"><g><path d="M325.519 489.233c-7.216 0-13.724-4.987-15.366-12.323l-75.08-332.32c-1.901-8.494 3.444-16.922 11.939-18.823a15.78 15.78 0 0 1 3.457-.384c7.216 0 13.724 4.987 15.366 12.323l75.08 332.32c1.901 8.494-3.444 16.922-11.939 18.823-1.158.26-2.317.384-3.457.384z" fill="#c5d3dd"></path><path d="M220.538 7.135c111.995-25.053 223.359 17.602 291.297 100.829L0 222.461C25.982 118.225 108.543 32.188 220.538 7.135z" fill="#fe646f"></path><path d="m470.59 117.19 41.245-9.226C443.897 24.737 332.533-17.919 220.538 7.135c0 0 132.299-32.89 250.052 110.055z" fill="#fd4755"></path><path d="M220.538 7.135C294.411-9.391 372.771 40.648 424.724 127.45L87.111 202.975C97.108 102.314 146.664 23.66 220.538 7.135z" fill="#f5f8f9"></path><path d="M220.538 7.135c25.936-5.802 62.793 53.521 94.646 144.82L196.651 178.47c-10.103-96.163-2.049-165.533 23.887-171.335z" fill="#fe646f"></path><path d="M0 222.461c14.418 43.743 91.308 30.868 87.111-19.487L0 222.461z" fill="#e8edf2"></path><path d="M424.724 127.436c14.418 43.743 91.308 30.868 87.111-19.487l-87.111 19.487z" fill="#f5f8f9"></path><path d="m511.835 107.949-87.111 19.487.007.021 45.896-10.267c1.324 15.888-5.428 28.039-15.739 35.864 26.703 5.268 59.736-11.634 56.947-45.105z" fill="#e8edf2"></path><path d="M87.111 202.975c25.149 44.739 110.373 30.499 109.54-24.504l-109.54 24.504zM315.14 151.966c25.149 44.739 110.373 30.499 109.54-24.504l-109.54 24.504z" fill="#fe646f"></path><path d="M196.651 178.47s19.06 39.841 69.05 28.249c49.99-11.591 49.483-54.765 49.483-54.765z" fill="#e8edf2"></path><path d="M447.192 456.212a103.018 103.018 0 0 0-98.732-20.001l-71.188 22.883-94.989-46.036c-43.153-20.914-95.029-9.286-125.127 28.047L0 512h512z" fill="#fdd79b"></path><g fill="#fccd7f"><path d="M447.192 456.212c-24.306-20.923-56.776-29.183-87.789-22.854a102.945 102.945 0 0 1 46.582 22.854L470.793 512H512zM141.075 413.058l110.718 53.528 25.479-7.491-94.989-46.036c-20.937-10.147-43.923-12.612-65.483-8.22a102.956 102.956 0 0 1 24.275 8.219z" fill="#fccd7f"></path></g><path d="M124.137 451.714c-4.202 0-7.724-3.529-7.726-7.726-.003-4.214 3.52-7.719 7.725-7.729 4.206-.01 7.73 3.529 7.728 7.729-.004 4.195-3.525 7.726-7.727 7.726zM87.143 485.092c-4.209 0-7.73-3.514-7.726-7.726.004-4.113 3.36-7.579 7.472-7.718 4.118-.139 7.714 3.143 7.966 7.25.269 4.372-3.335 8.194-7.712 8.194zM398.165 485.092c-4.299 0-7.851-3.664-7.719-7.96.126-4.096 3.602-7.507 7.719-7.493 4.026.013 7.464 3.237 7.712 7.259.269 4.378-3.329 8.194-7.712 8.194z" fill="#e9b665"></path></g></svg>