<svg viewBox="0 0 52 52" xmlns="http://www.w3.org/2000/svg"><g><path d="M36.094 5.65v40.56c0 2.06-1.66 3.72-3.72 3.72H6.384c-2.06 0-3.72-1.66-3.72-3.72V5.65a3.72 3.72 0 0 1 3.72-3.72h25.99a3.72 3.72 0 0 1 3.72 3.72z" fill="#5b5e8b"></path><path d="M9.964 49.93h-3.58c-2.06 0-3.72-1.66-3.72-3.72V5.65a3.72 3.72 0 0 1 3.72-3.72h3.58c-2.05 0-3.72 1.67-3.72 3.72v40.56a3.72 3.72 0 0 0 3.72 3.72z" fill="#312e4b"></path><path d="M34.094 5.65v37.9c0 .95-.77 1.72-1.72 1.72H6.384c-.95 0-1.72-.77-1.72-1.72V5.65c0-.95.77-1.72 1.72-1.72h25.99c.95 0 1.72.77 1.72 1.72z" fill="#deddff"></path><path d="M24.638 47.711c0 .48-.39.87-.87.87h-8.79c-.47 0-.86-.39-.86-.87s.39-.86.86-.86h8.79c.48 0 .87.38.87.86z" fill="#312e4b"></path><circle cx="12.313" cy="37.49" fill="#e83d62" r="5.348"></circle><path d="M12.995 42.786a5.342 5.342 0 0 1-6.035-5.295 5.352 5.352 0 0 1 5.354-5.354c.235 0 .458.011.681.046a5.353 5.353 0 0 0-4.673 5.308 5.341 5.341 0 0 0 4.673 5.295z" fill="#ce2955"></path><g fill="#ce2955"><circle cx="9.99" cy="36.091" fill="#ce2955" r=".848"></circle><circle cx="14.636" cy="36.091" fill="#ce2955" r=".848"></circle></g><path d="M9.577 39.774c.487-1.024 1.523-1.73 2.728-1.73s2.241.706 2.734 1.73a.577.577 0 0 1 .057.244c0 .312-.269.599-.618.599a.594.594 0 0 1-.537-.337c-.3-.606-.918-1.024-1.636-1.024s-1.336.418-1.636 1.024a.594.594 0 0 1-.537.337c-.437 0-.742-.45-.555-.843z" fill="#ce2955"></path><path d="M31.277 7.46v6.975c0 .635-.508 1.143-1.143 1.143H22.84a1.143 1.143 0 0 1-1.143-1.143V7.46c0-.635.516-1.143 1.143-1.143h7.293c.635 0 1.143.508 1.143 1.143z" fill="#c6c6f7"></path><path d="M24.43 15.578h-1.587a1.143 1.143 0 0 1-1.143-1.143V7.46c0-.635.516-1.143 1.143-1.143h1.587c-.627 0-1.143.508-1.143 1.143v6.975c0 .635.516 1.143 1.143 1.143z" fill="#b5b5ea"></path><path d="M31.277 21.084v6.976c0 .634-.508 1.142-1.143 1.142H22.84a1.143 1.143 0 0 1-1.143-1.142v-6.976c0-.635.516-1.143 1.143-1.143h7.293c.635 0 1.143.508 1.143 1.143z" fill="#c6c6f7"></path><path d="M24.43 29.202h-1.587A1.143 1.143 0 0 1 21.7 28.06v-6.976c0-.635.516-1.143 1.143-1.143h1.587c-.627 0-1.143.508-1.143 1.143v6.976c0 .634.516 1.142 1.143 1.142z" fill="#b5b5ea"></path><path d="M31.277 34v6.975c0 .635-.508 1.143-1.143 1.143H22.84a1.143 1.143 0 0 1-1.143-1.143V34c0-.634.516-1.142 1.143-1.142h7.293c.635 0 1.143.508 1.143 1.142z" fill="#c6c6f7"></path><path d="M24.43 42.118h-1.587a1.143 1.143 0 0 1-1.143-1.143V34c0-.634.516-1.142 1.143-1.142h1.587c-.627 0-1.143.508-1.143 1.142v6.976c0 .635.516 1.143 1.143 1.143z" fill="#b5b5ea"></path><circle cx="12.313" cy="11.659" fill="#fcb73e" r="5.348"></circle><path d="M12.995 16.955A5.342 5.342 0 0 1 6.96 11.66a5.352 5.352 0 0 1 5.354-5.354c.235 0 .458.011.681.046-2.63.33-4.673 2.584-4.673 5.308s2.043 4.966 4.673 5.295z" fill="#fd982e"></path><g fill="#fd982e"><circle cx="9.99" cy="10.259" fill="#fd982e" r=".848"></circle><circle cx="14.636" cy="10.259" fill="#fd982e" r=".848"></circle></g><path d="M15.04 13.527c-.487 1.024-1.524 1.73-2.729 1.73s-2.24-.706-2.734-1.73a.577.577 0 0 1-.056-.244c0-.312.268-.599.618-.599.23 0 .437.131.537.337.3.606.917 1.024 1.635 1.024s1.336-.418 1.636-1.024a.594.594 0 0 1 .537-.337c.437 0 .743.45.555.843z" fill="#fd982e"></path><circle cx="12.313" cy="24.575" fill="#46cc6b" r="5.348"></circle><path d="M12.995 29.87a5.342 5.342 0 0 1-6.035-5.295 5.352 5.352 0 0 1 5.354-5.354c.235 0 .458.012.681.047-2.63.329-4.673 2.583-4.673 5.307s2.043 4.967 4.673 5.295z" fill="#179c5f"></path><g fill="#179c5f"><circle cx="9.99" cy="23.175" fill="#179c5f" r=".848"></circle><circle cx="14.636" cy="23.175" fill="#179c5f" r=".848"></circle></g><path d="M15.04 26.442c-.487 1.024-1.524 1.73-2.729 1.73s-2.24-.706-2.734-1.73a.577.577 0 0 1-.056-.243c0-.312.268-.6.618-.6.23 0 .437.132.537.338.3.605.917 1.023 1.635 1.023s1.336-.418 1.636-1.023a.594.594 0 0 1 .537-.337c.437 0 .743.449.555.842z" fill="#179c5f"></path><path d="M25.74 12.458a.711.711 0 0 0 1.01 0l2.215-2.216a.713.713 0 1 0-1.008-1.009l-1.712 1.711-.422-.423a.714.714 0 1 0-1.01 1.009zM25.74 26.27a.711.711 0 0 0 1.01 0l2.215-2.215a.713.713 0 1 0-1.008-1.01l-1.712 1.711-.422-.423a.714.714 0 1 0-1.01 1.01z" fill="#5b5e8b"></path><path d="m43.448 27.707 3.223 7.154a6.28 6.28 0 0 1 .421 3.865l-.53 2.539-9.311 4.195-2.473-1.004a6.277 6.277 0 0 1-3.365-3.238l-1.623-3.602a3.438 3.438 0 0 1-.203-2.244l.526-1.304.242-.601.003-.007-2.338-5.272c-.427-.948-.02-2.115.95-2.49a1.747 1.747 0 0 1 1.272-.003c.431.163.794.486.998.938l2.334 5.264a1.787 1.787 0 0 1 3.259-1.468l-.153-.34c-.427-.947-.02-2.115.95-2.49a1.747 1.747 0 0 1 1.272-.003c.43.159.792.482.996.934l.291.646a1.788 1.788 0 0 1 3.26-1.469z" fill="#ffaf93"></path><g fill="#ee8778"><path d="m38.051 45.098-.797.36-2.473-.997a6.276 6.276 0 0 1-3.365-3.246l-1.631-3.598a3.482 3.482 0 0 1-.198-2.248l.527-1.306.247-.596-.01-.005-2.333-5.277c-.426-.947-.023-2.109.95-2.483.19-.072.38-.118.571-.112-.71.493-.959 1.475-.595 2.288l2.344 5.281-.248.597-.526 1.306a3.477 3.477 0 0 0 .207 2.253l1.621 3.593a6.275 6.275 0 0 0 3.365 3.246zM37.76 27.556a1.778 1.778 0 0 0-.691 2.248c.41.909.763 1.842 1.061 2.79l-1.491-2.596a1.714 1.714 0 0 1-.15-.595 1.783 1.783 0 0 1 1.049-1.767c.073-.033.148-.062.223-.08zM34.695 29.455a1.784 1.784 0 0 0-.69 2.248l.081.181c.423.939.792 1.907 1.096 2.893l-1.608-2.88a1.753 1.753 0 0 1-.064-1.292c.15-.46.489-.857.962-1.07.074-.033.144-.06.223-.08z" fill="#ee8778"></path><path d="M30.355 33.467c.379.875.713 1.776.99 2.692l.601 1.977-1.833-4.068zM41.402 31.458a10.368 10.368 0 0 0-.766-2.444l-.015-.034a1.784 1.784 0 0 1 .69-2.248 1.783 1.783 0 0 0-1.27 1.847c.013.2.062.401.15.595l1.281 2.675z" fill="#ee8778"></path></g><path d="m48.108 41.819 1.127 2.502a1.14 1.14 0 0 1-.571 1.508l-9.189 4.14a1.14 1.14 0 0 1-1.507-.571l-1.127-2.503a1.14 1.14 0 0 1 .57-1.507l9.189-4.14a1.14 1.14 0 0 1 1.508.57z" fill="#65b9ff"></path><path d="m41.343 49.13-1.863.842a1.147 1.147 0 0 1-1.512-.579l-1.128-2.496a1.147 1.147 0 0 1 .578-1.512l9.178-4.133.093-.03-7.382 3.322c-.566.257-.83.935-.562 1.507l1.123 2.507c.251.55.914.819 1.475.573z" fill="#3e7fff"></path></g></svg>