<svg viewBox="0 0 512 512" xmlns="http://www.w3.org/2000/svg"><g><path d="M289.983 184.583c-12.662-11.987-32.751-11.232-45.081 1.097l-54.157 54.157H148a8 8 0 0 0-8 8v48a8 8 0 0 0 8 8h56a31.996 31.996 0 0 0 22.627-9.373l64-64c12.708-12.707 12.493-33.444-.644-45.881zM380 432h64v-72c0-17.673-14.327-32-32-32H252a32.011 32.011 0 0 0-14.311 3.378l-144 72c-15.808 7.904-22.215 27.125-14.312 42.933 5.607 11.214 16.908 17.696 28.646 17.696 4.809 0 9.693-1.088 14.286-3.385L259.555 392H380z" fill="#5f7dbe"></path><path d="M380 432v32c0 8.837 7.163 16 16 16h64c8.837 0 16-7.163 16-16 0-17.673-14.327-32-32-32z" fill="#464646"></path><path d="M60 464c0 8.837 7.163 16 16 16h48c8.837 0 16-7.163 16-16 0-17.673-14.327-32-32-32H92c-17.673 0-32 14.327-32 32z" fill="#323232"></path><path d="M356 312H244a8 8 0 0 1-8-8v-88c0-17.673 14.327-32 32-32h96v120a8 8 0 0 1-8 8zM244 328c-8.837 0-16 7.163-16 16v64a8 8 0 0 0 8 8h104a8 8 0 0 0 8-8v-48c0-17.673 14.327-32 32-32z" fill="#5055a5"></path><path d="M244 312h112v16H244z" fill="#faa51e"></path><path d="M364 56v16h-12a4 4 0 0 0-4 4c0 6.627 5.373 12 12 12h4c0 8.836 7.164 16 16 16v16h32V56z" fill="#f0915a"></path><path d="M396 40h-32a8 8 0 0 0 0 16h32v32c0 8.837 7.164 16 16 16V56c0-8.837-7.164-16-16-16z" fill="#fab991"></path><path d="M420 120h-48a8 8 0 0 0-8 8v56c-17.673 0-32 14.327-32 32s14.327 32 32 32h32c17.673 0 32-14.327 32-32v-88a8 8 0 0 0-8-8z" fill="#5f7dbe"></path><path d="M244 200h56c8.837 0 16-7.163 16-16v-72c0-13.255-10.745-24-24-24h-40c-13.255 0-24 10.745-24 24v72c0 8.837 7.163 16 16 16z" fill="#f0915a"></path><path d="M276 200h-32c-8.837 0-16-7.163-16-16v-72c0-13.255 10.745-24 24-24h16c13.255 0 24 10.745 24 24v72c0 8.837-7.163 16-16 16z" fill="#fab991"></path><path d="M124.004 248h-28.69l-5.656-5.657a8 8 0 0 0-11.314 11.313l8 8A7.995 7.995 0 0 0 92 264h32v16h16v-32z" fill="#f0915a"></path><path d="M116 256H92a8 8 0 0 0-8 8H71.314l-13.656-13.657a8 8 0 0 0-11.314 11.313l16 16A7.995 7.995 0 0 0 68 280h56v-16a8 8 0 0 0-8-8z" fill="#fab991"></path><path d="M324 88c0-8.836-7.164-16-16-16s-16 7.164-16 16h-40c-13.255 0-24 10.745-24 24v8h40a8 8 0 0 1 8 8v32h-49.675a6.325 6.325 0 0 0-6.325 6.324V240c0 26.51 21.49 48 48 48h24c8.836 0 16-7.164 16-16v-14.667a4 4 0 0 0-8 0V260a4 4 0 0 1-8 0v-76h16c8.836 0 16-7.164 16-16v-48a31.85 31.85 0 0 0-6.411-19.214C321.475 97.867 324 93.234 324 88z" fill="#d7e6f0"></path><path d="M292 168a8 8 0 0 1-8-8v-16a8 8 0 0 1 8-8c8.837 0 16 7.163 16 16s-7.163 16-16 16z" fill="#f0915a"></path><path d="M256 184h-16a4 4 0 0 1 0-8h16a4 4 0 0 1 0 8z" fill="#aac3d7"></path><path d="m124 77.333 7.515 7.515A28.97 28.97 0 0 1 140 105.333c0 6.627-5.373 12-12 12h-1.333c-5.891 0-10.667-4.776-10.667-10.667 0-30.928-25.072-56-56-56L71.124 61.79a25.752 25.752 0 0 1 .001 36.419l-12.497 12.497A77.25 77.25 0 0 0 36 165.333c0 35.346 28.654 64 64 64s64-28.654 64-64v-48c0-22.091-17.909-40-40-40zM116 32v25.333c0 6.627 5.373 12 12 12s12-5.373 12-12V56c0-13.255-10.745-24-24-24z" fill="#faa51e"></path><path d="M100 133.333a6.946 6.946 0 0 0-4.367 1.548c-6.372 5.149-25.42 23.224-25.735 55.536-.164 16.84 13.544 31.069 30.384 30.914 16.497-.152 29.823-13.571 29.823-30.103 0-32.828-19.322-51.164-25.743-56.35a6.934 6.934 0 0 0-4.362-1.545z" fill="#fad241"></path><circle cx="100" cy="205.333" fill="#ffffff" r="16"></circle></g></svg>