<svg viewBox="0 0 511 512" xmlns="http://www.w3.org/2000/svg"><g><path d="M66.688 237.398a43.374 43.374 0 0 0-23.551-7 42.673 42.673 0 0 0-39.633 26.946A42.672 42.672 0 0 0 13.91 304.12a42.67 42.67 0 0 0 47.317 7.602zM434.648 311.723a42.67 42.67 0 0 0 57.75-54.383 42.673 42.673 0 0 0-39.66-26.942 43.396 43.396 0 0 0-23.554 7zm0 0" fill="#f09372"></path><path d="M85.184 410.934C120.293 470.754 180.117 512 247.938 512s127.644-41.246 162.753-101.066l26.223-65.418a242.383 242.383 0 0 0 5.512-33.246 235.227 235.227 0 0 0 1.066-22.489 220.928 220.928 0 0 0-6.754-54.933C416.11 147.246 337.934 85.34 247.938 85.34c-90 0-168.176 61.906-188.801 149.508a220.745 220.745 0 0 0-6.754 54.933c0 7.555.355 15.114 1.066 22.489a242.383 242.383 0 0 0 5.512 33.246zm0 0" fill="#fdd7ad"></path><path d="M247.938 102.398a8.53 8.53 0 0 1-8.54-8.523 8.534 8.534 0 0 1 8.528-8.543c2.09-.008 51.21-.55 51.21-34.133s-49.12-34.125-51.21-34.133a8.533 8.533 0 0 1-8.528-8.539A8.53 8.53 0 0 1 247.938 0c23.613 0 68.265 10.7 68.265 51.2s-44.652 51.198-68.265 51.198zm0 0" fill="#af8066"></path><path d="M247.938 324.266c-18.844-.02-34.114-15.29-34.133-34.133a8.533 8.533 0 0 1 17.066 0c0 9.426 7.64 17.066 17.066 17.066s17.067-7.64 17.067-17.066c0-4.711 3.82-8.531 8.535-8.531 4.711 0 8.531 3.82 8.531 8.53-.02 18.845-15.289 34.114-34.132 34.134zm0 0" fill="#f09372"></path><path d="M128.469 282.55a8.532 8.532 0 0 1-7.88-5.269 8.528 8.528 0 0 1 1.849-9.297 78.574 78.574 0 0 1 51.69-23.734 96.1 96.1 0 0 0-44.253-4.484c-4.637.754-9.012-2.383-9.781-7.016-.774-4.637 2.344-9.023 6.972-9.816 2.313-.391 56.645-8.961 85.028 28.898a8.526 8.526 0 0 1-.055 10.309 8.527 8.527 0 0 1-9.937 2.734 65.02 65.02 0 0 0-67.598 15.176 8.523 8.523 0 0 1-6.035 2.5zM367.402 282.55a8.52 8.52 0 0 1-6.03-2.5c-17.75-17.64-44.044-23.538-67.626-15.167a8.531 8.531 0 0 1-9.918-2.754 8.532 8.532 0 0 1-.05-10.297c28.386-37.848 82.73-29.289 85.03-28.898 4.57.847 7.626 5.199 6.864 9.785a8.531 8.531 0 0 1-9.656 7.047 97.359 97.359 0 0 0-44.16 4.492 78.523 78.523 0 0 1 51.578 23.722 8.536 8.536 0 0 1 1.855 9.301 8.539 8.539 0 0 1-7.887 5.27zm0 0" fill="#35495e"></path><path d="M314.328 457.387c-15.703 8.789-39.598 11.945-66.39 11.945s-50.688-3.156-66.391-11.945c7.168-22.528 34.133-39.254 66.39-39.254s59.223 16.726 66.391 39.254zm0 0" fill="#fb7b76"></path><path d="M333.27 426.668a33.474 33.474 0 0 1-18.942 30.719 56.21 56.21 0 0 0-34.562-33.282 87.779 87.779 0 0 0-63.657 0 56.21 56.21 0 0 0-34.562 33.282 33.467 33.467 0 0 1-18.942-30.719c0-20.652 14.934-45.484 37.63-61.184 28.394-20.824 67.011-20.824 95.406 0 22.695 15.7 37.629 40.532 37.629 61.184zm0 0" fill="#d75e72"></path><g fill="#2fa8cc"><path d="M103.434 397.39a34.139 34.139 0 0 1-32.067 11.696 34.138 34.138 0 0 1-26.164-21.926 34.14 34.14 0 0 1 5.906-33.617c12.106-14.45 64.528-23.863 64.528-23.863s-.094 53.257-12.203 67.71zM392.441 397.39c12.106 14.446 33.637 16.344 48.086 4.239 14.45-12.11 16.348-33.637 4.239-48.086-12.106-14.45-64.528-23.863-64.528-23.863s.094 53.257 12.203 67.71zM23.656 110.594c-8.84-10.016-7.941-25.285 2.012-34.196 8.906-9.953 24.18-10.855 34.195-2.015 8.883 8.887 14.078 50.289 14.078 50.289s-41.398-5.195-50.285-14.078zM472.219 110.594c8.84-10.016 7.941-25.285-2.012-34.196-8.906-9.953-24.176-10.851-34.191-2.011-8.887 8.886-14.082 50.285-14.082 50.285s41.398-5.195 50.285-14.078zm0 0" fill="#2fa8cc"></path></g><path d="M299.137 384a51.243 51.243 0 0 1-19.371 40.105 87.779 87.779 0 0 0-63.657 0A51.231 51.231 0 0 1 196.74 384a49.325 49.325 0 0 1 3.495-18.516c28.395-20.824 67.012-20.824 95.407 0A49.325 49.325 0 0 1 299.137 384zm0 0" fill="#802d40"></path></g></svg>