<svg viewBox="0 0 512 512" xmlns="http://www.w3.org/2000/svg"><g><path d="M101.306 0h309.388C466.644 0 512 45.356 512 101.306v309.388C512 466.644 466.644 512 410.694 512H101.306C45.356 512 0 466.644 0 410.694V101.306C0 45.356 45.356 0 101.306 0z" fill="#a0cafe"></path><g fill="#e6f1ff"><path d="M401.517 216.143c-31.479-8.12-64.337 9.373-75.216 40.008-4.233 11.92-4.685 24.202-2.013 35.584 9.52 40.557 8.088 82.913-4.427 122.648-7.046 22.371 5.377 46.219 27.748 53.265 22.371 7.046 46.219-5.377 53.265-27.748l45.218-143.565c10.825-34.367-9.231-71.074-44.575-80.192zM110.483 216.143c31.479-8.12 64.337 9.373 75.216 40.008 4.233 11.92 4.685 24.202 2.013 35.584-9.52 40.557-8.088 82.913 4.427 122.648 7.046 22.371-5.377 46.219-27.748 53.265-22.371 7.046-46.219-5.377-53.265-27.748L65.907 296.334c-10.824-34.366 9.232-71.073 44.576-80.191zM396.652 93.389c-13.469 24.511-26.949 49.012-40.418 73.524-4.573 8.313-14.74 11.855-23.428 8.032a190.156 190.156 0 0 0-68.992-16.011 185.905 185.905 0 0 0-15.626 0 190.151 190.151 0 0 0-68.992 16.011c-8.688 3.823-18.855.281-23.428-8.032-13.469-24.511-26.949-49.012-40.418-73.524-5.094-9.261-1.385-20.97 8.177-25.48 83.868-39.502 181.08-39.502 264.948 0 9.562 4.511 13.27 16.219 8.177 25.48z" fill="#e6f1ff"></path></g><path d="M263.813 79.951v78.982a185.905 185.905 0 0 0-15.626 0V79.951c0-4.313 3.5-7.813 7.813-7.813s7.813 3.5 7.813 7.813z" fill="#e7387f"></path><path d="M199.612 167.309a188.253 188.253 0 0 0-20.417 7.636c-8.688 3.823-18.855.281-23.428-8.032-13.469-24.511-26.949-49.012-40.418-73.524-5.094-9.261-1.385-20.97 8.177-25.48a304.97 304.97 0 0 1 20.261-8.677 25.61 25.61 0 0 0 3.198 12.355c17.543 31.907 35.075 63.814 52.627 95.722zM378.599 465.498a42.335 42.335 0 0 1-18.209 4.125 42.36 42.36 0 0 1-12.782-1.979c-18.126-5.709-29.72-22.449-29.72-40.502 0-4.219.635-8.521 1.969-12.761 12.521-39.731 13.948-82.087 4.427-122.651-2.667-11.376-2.219-23.657 2.021-35.574 10.875-30.637 43.731-48.137 75.211-40.012.875.229 1.74.469 2.604.729-18.667 5.657-34.439 19.824-41.356 39.283-4.24 11.917-4.688 24.199-2.021 35.574 9.521 40.564 8.094 82.92-4.427 122.651a42.526 42.526 0 0 0-1.969 12.761c.001 16.168 9.293 31.273 24.252 38.356zM169.861 465.498a41.763 41.763 0 0 1-5.469 2.146 42.325 42.325 0 0 1-12.782 1.979c-18.042 0-34.772-11.605-40.481-29.72l-45.22-143.568c-10.823-34.366 9.23-71.076 44.575-80.191 11.48-2.969 23.147-2.521 33.856.729-33.72 10.209-52.523 45.95-41.97 79.462l45.221 143.568c3.686 11.709 11.988 20.699 22.27 25.595z" fill="#d9e9ff"></path><path d="M497.812 462.415C480.155 492.103 447.747 512 410.694 512H101.306C45.356 512 0 466.644 0 410.694V101.306c0-37.502 20.376-70.232 50.648-87.743C41.637 28.699 36.46 46.387 36.46 65.284v309.388c0 55.95 45.356 101.306 101.306 101.306h309.388c18.459 0 35.762-4.938 50.658-13.563z" fill="#81b8fd"></path></g></svg>