<svg viewBox="0 0 512 512" xmlns="http://www.w3.org/2000/svg"><g><path d="M7.765 312.556a7.762 7.762 0 0 1-5.49-13.253l14.607-14.607a7.762 7.762 0 0 1 10.979 0 7.762 7.762 0 0 1-.001 10.979l-14.607 14.607a7.733 7.733 0 0 1-5.488 2.274zM49.077 353.868a7.763 7.763 0 0 1-5.491-13.253l14.607-14.607a7.764 7.764 0 0 1 10.98 10.979l-14.607 14.607a7.737 7.737 0 0 1-5.489 2.274zM90.39 395.181a7.762 7.762 0 0 1-5.49-13.253l14.607-14.607a7.763 7.763 0 1 1 10.978 10.979l-14.607 14.607a7.735 7.735 0 0 1-5.488 2.274zM173.014 477.805a7.763 7.763 0 0 1-5.491-13.253l14.607-14.607a7.764 7.764 0 0 1 10.98 10.979l-14.607 14.607a7.737 7.737 0 0 1-5.489 2.274zM224.451 506.013a7.765 7.765 0 0 1-6.493-12.011l8.762-13.411a7.763 7.763 0 1 1 12.999 8.492l-8.762 13.411a7.751 7.751 0 0 1-6.506 3.519zM131.702 436.493a7.763 7.763 0 0 1-5.491-13.253l14.605-14.607a7.763 7.763 0 0 1 10.979 0 7.763 7.763 0 0 1 .001 10.98l-14.605 14.607a7.737 7.737 0 0 1-5.489 2.273z" fill="#5a5c60"></path><path d="M311.575 5.987 204.95 260.788l-82.639 39.741-5.279-34.544-8.706-56.956L153.284 5.987z" fill="#f2f2f2"></path><path d="m202.424 49.993-73.902 225.692-11.49-9.7-8.706-56.956 38.219-172.597z" fill="#dbdbdb"></path><path d="m311.575 5.987-26.781 64.006h-.01l-82.36-20 14.41-44.006z" fill="#ffddb0"></path><path d="m216.834 5.987-14.41 44.006-55.879-13.561 6.739-30.445z" fill="#e2be91"></path><path d="m7.125 274.423 165.373 165.373c25.747 25.747 74.727 62.887 102.214 50.764l16.834-16.834s20.556-24.996-43.811-77.48l-42.787-135.459s-35.339 27.831-63.17 0-37.629-63.583-37.629-63.583l-59.416 39.61-37.608 37.609z" fill="#ed3b3b"></path><path d="M104.15 197.203s3.095 11.298 10.75 26.141l-5.929 3.952a537.328 537.328 0 0 0-81.859 67.111l-19.989-19.99L44.73 236.81l59.42-39.607z" fill="#d62727"></path><path d="m291.549 473.726-16.836 16.836c-27.488 12.118-76.468-25.015-102.22-50.767L7.122 274.425l25.727-25.727 19.986 19.986L198.219 414.07c23.929 23.929 67.915 57.687 96.064 52.618h.01c-.834 4.713-2.744 7.038-2.744 7.038z" fill="#f2f2f2"></path><path d="m52.834 268.685-25.721 25.721-19.986-19.985L32.848 248.7l19.986 19.985z" fill="#dbdbdb"></path><path d="M195.019 314.887a7.766 7.766 0 0 1-1.311-15.417l28.717-4.951a7.764 7.764 0 0 1 2.639 15.303l-28.717 4.951c-.445.077-.89.114-1.328.114zM206.902 352.517a7.765 7.765 0 0 1-1.404-15.4l26.736-4.951a7.765 7.765 0 1 1 2.828 15.268l-26.736 4.951c-.479.09-.955.132-1.424.132zM201.456 333.703a7.765 7.765 0 0 1-1.404-15.4l26.736-4.951a7.765 7.765 0 0 1 2.828 15.268l-26.736 4.951a7.887 7.887 0 0 1-1.424.132zM488.615 348.119a129.994 129.994 0 0 1-5.897 7.748c-15.774 19.168-36.164 32.687-58.4 40.069-26.895 8.938-56.494 8.895-83.881-.977-10.556-3.799-20.785-9.063-30.405-15.836a128.135 128.135 0 0 1-25.162-23.291c-18.522-22.453-28.538-50.306-29.188-78.64-.545-23.423 5.309-47.183 18.043-68.492a129.805 129.805 0 0 1 5.304-8.159c16.351-23.221 39.015-39.361 64.031-47.729 24.994-8.364 52.341-8.967 78.083-1.128 12.704 3.865 25.018 9.792 36.469 17.855 11.45 8.063 21.177 17.656 29.097 28.313 16.059 21.589 24.709 47.54 25.263 73.893.554 26.37-7.007 53.152-23.357 76.374z" fill="#f2f2f2"></path><path d="M325.504 384.444a123.143 123.143 0 0 0 6.233 7.012 128.37 128.37 0 0 1-21.706-12.334 128.135 128.135 0 0 1-25.162-23.291c-18.522-22.453-28.538-50.306-29.188-78.64-.545-23.423 5.309-47.183 18.043-68.492a129.805 129.805 0 0 1 5.304-8.159c16.351-23.221 39.015-39.361 64.031-47.729 24.994-8.364 52.341-8.967 78.083-1.128 12.704 3.865 25.018 9.792 36.469 17.855a128.817 128.817 0 0 1 18.932 16.274 126.59 126.59 0 0 0-14.766-5.515c-25.742-7.837-53.09-7.235-78.083 1.128-25.015 8.367-47.68 24.508-64.031 47.729a130.411 130.411 0 0 0-5.304 8.159c-12.734 21.309-18.588 45.07-18.043 68.492.65 28.333 10.667 56.185 29.188 78.639z" fill="#dbdbdb"></path><path d="M486.709 197.85c-15.991 1.447-34.387-.067-46.49-3.613-3.725-5.124-7.506-11.92-10.858-19.38-3.315-7.395-6.214-15.444-8.217-23.176 12.704 3.865 25.018 9.792 36.469 17.855a128.817 128.817 0 0 1 18.932 16.274 127.02 127.02 0 0 1 10.164 12.04z" fill="#5a5c60"></path><path d="M476.543 185.81a127.467 127.467 0 0 0-47.183-10.952c-3.315-7.395-6.214-15.444-8.217-23.176 12.704 3.865 25.018 9.792 36.469 17.855a128.63 128.63 0 0 1 18.931 16.273z" fill="#404347"></path><path d="M417.057 227.126c-18.258-5.341-50.831-6.077-67.859 1.005-11.421 16.219-20.34 45.181-20.013 64.848a105.695 105.695 0 0 0 55.489 39.073c18.626-6.321 44.788-27.18 54.308-40.699.93-18.419-10.743-48.838-21.925-64.227z" fill="#5a5c60"></path><path d="M374.203 322.275h19.536v57.558h-19.536z" fill="#5a5c60" transform="scale(-1) rotate(2.195 18325.104 -20043.361)"></path><path d="m341.885 298.394-44.89 18.05-8.504 3.424-7.293-18.127 15.289-6.147 38.118-15.315zM362.956 229.307 348.019 241.9l-19.847-23.559-15.12-17.945 14.938-12.593 14.182 16.839z" fill="#5a5c60"></path><path d="M428.122 287.642h54.274v19.534h-54.274z" fill="#5a5c60" transform="rotate(-159.57 455.263 297.413)"></path><path d="M418.844 180.823h19.535v59.759h-19.535z" fill="#5a5c60" transform="rotate(-144.845 428.61 210.701)"></path><path d="M284.87 355.832c-18.522-22.453-28.538-50.306-29.188-78.64 14.589 7.739 29.848 19.853 38.222 29.966.456 13.372-3.055 33.05-9.034 48.674z" fill="#404347"></path><path d="M424.317 395.935c-26.895 8.938-56.494 8.895-83.881-.977 12.695-10.895 30.038-20.833 42.781-24.912 12.345 4.476 28.896 14.762 41.1 25.889z" fill="#5a5c60"></path><path d="M326.809 201.566c-13.54 5.2-35.592 8.413-53.084 7.132a129.805 129.805 0 0 1 5.304-8.159c16.351-23.221 39.015-39.361 64.031-47.729-2.203 16.984-9.028 36.882-16.251 48.756z" fill="#404347"></path><path d="M488.615 348.119a129.994 129.994 0 0 1-5.897 7.748c-7.098-16.041-11.511-37.888-11.179-52.389 8.745-10.803 25.181-23.94 40.433-31.735.554 26.372-7.007 53.154-23.357 76.376z" fill="#5a5c60"></path><path d="M296.317 305.804c.078 3.555.313 7.097.677 10.64l-8.504 3.425-7.293-18.128 15.289-6.147a127.386 127.386 0 0 0-.169 10.21zM342.172 204.642a125.247 125.247 0 0 0-14 13.7l-15.12-17.946 14.938-12.593 14.182 16.839z" fill="#404347"></path></g></svg>