<svg viewBox="0 0 503.958 503.958" xmlns="http://www.w3.org/2000/svg"><g><path d="M294.249 300.588h-87l-23.958 27.401 18.66 154.543 20.518 21.426h58.02l24.278-10.43 16.799-142.573zM367.599 300.588l-29.287 29.896-29.664 155.876 20.431 17.599h29.4c16.79 0 31.66-10.82 36.85-26.79l42.89-132.14 13.79-44.44h-84.41z" fill="#a6e7f0"></path><g fill="#6bd9e7"><path d="M325.077 401.301c8.104 8.104 18.88 12.568 30.342 12.568 23.666 0 42.92-19.254 42.92-42.92v-70.36h-30.74l-29.287 29.896-13.437 70.605c.069.068.133.141.202.211zM201.727 480.673l.224 1.859 20.518 21.426h58.02l24.278-10.43 1.514-12.855zM393.636 480.673H309.73l-1.082 5.687 20.431 17.599h29.4c15.532 0 29.414-9.263 35.517-23.292-.12 0-.239.006-.36.006z" fill="#6bd9e7"></path></g><path d="m367.599 300.588-17.88 92.56-20.64 110.81h-48.59l11.07-158.93 2.69-44.44z" fill="#f9f7f8"></path><path d="m157.454 311.721-20.605-11.133h-85.9l56.68 176.58c5.19 15.97 20.06 26.79 36.85 26.79h29.41l17.536-45.349z" fill="#a6e7f0"></path><path d="M179.636 480.673c-16.79 0-31.66-10.82-36.85-26.79L93.58 300.588H50.949l56.68 176.58c5.19 15.97 20.06 26.79 36.85 26.79h29.41l9.004-23.285z" fill="#6bd9e7"></path><path d="m211.399 345.028 11.07 158.93h-48.58l-29.62-158.93-7.42-44.44h70.4z" fill="#f9f7f8"></path><path d="m282.111 480.673-1.622 23.285h48.59l4.337-23.285zM179.636 480.673c-3.562 0-7.035-.492-10.35-1.411l4.603 24.696h48.58l-1.622-23.285z" fill="#efedef"></path><path d="M440.172 265.986c16.305 5.23 28.11 20.51 28.11 38.552 0 22.36-18.126 40.486-40.486 40.486H76.162c-22.36 0-40.486-18.126-40.486-40.486 0-17.759 11.439-32.836 27.347-38.294l121.788-22.58h215.628z" fill="#fdd79b"></path><path d="m294.249 300.588-1.921 31.734a108.363 108.363 0 0 0 20.171-10.814v49.441c0 11.462 4.467 22.241 12.578 30.352 5.848 5.848 13.091 9.788 20.975 11.535l3.667-19.688 17.88-92.56z" fill="#efedef"></path><path d="m440.172 265.986-39.734-22.322H184.81l-99.083 18.37-22.705 4.21c-15.908 5.458-27.347 20.535-27.347 38.294 0 22.36 18.126 40.486 40.486 40.486h56.669c-9.309 0-17.867-7.566-24.673-16.51-8.813-11.58-.3-28.199 14.244-27.728l20.759.672a68.014 68.014 0 0 1 21.477 4.214 67.935 67.935 0 0 1 19.042 10.808c19.151 15.411 43.229 23.898 67.798 23.898 21.751 0 43.117-6.651 61.02-18.871v23.516h85.84V300.38c0-.093.074-.17.167-.173l11.739-.38c14.811-.479 29.088-6.146 40.224-15.977a63.744 63.744 0 0 0 6.807-7.055 40.493 40.493 0 0 0-17.102-10.809z" fill="#fccd7f"></path><path d="M434.099 200.688a43.828 43.828 0 0 1 17.38 42.13c-1.62 10.4-6.84 19.48-14.27 26.06a43.788 43.788 0 0 1-27.61 10.96l-11.74.38c-10.88.35-19.52 9.27-19.52 20.16v70.57c0 12.66-10.26 22.92-22.92 22.92-6.32 0-12.06-2.57-16.2-6.71-4.15-4.15-6.72-9.88-6.72-16.21v-58.61c0-3.37-1.1-6.64-3.14-9.32a15.4 15.4 0 0 0-12.28-6.09c-3.32 0-6.66 1.07-9.47 3.27-.29.23-.58.47-.87.7-16.13 12.98-35.7 19.48-55.26 19.48s-39.13-6.5-55.26-19.48a88.182 88.182 0 0 0-52.41-19.43l-50.45-1.63c-21.04-.68-38.63-16.22-41.88-37.02a43.823 43.823 0 0 1 17.38-42.13l35.25-25.85a43.887 43.887 0 0 0 15.25-20.29c5.7-15.59 14.59-29.59 25.92-41.23a116.337 116.337 0 0 1 40.51-27.04l19.7-7.82 40.32-10.55 51.66 10.55 19.7 7.82a116.5 116.5 0 0 1 66.43 68.27c1.48 4.06 3.56 7.85 6.12 11.27 2.58 3.42 5.64 6.46 9.13 9.02z" fill="#ffbee7"></path><path d="M189.537 189.795a7.472 7.472 0 0 1-4.827-1.763l-9.46-7.966a7.5 7.5 0 0 1 9.662-11.474l9.46 7.966a7.5 7.5 0 0 1-4.835 13.237zM245.798 185.814a7.5 7.5 0 0 1-6.51-11.214l5.674-9.958a7.5 7.5 0 0 1 13.033 7.425l-5.674 9.958a7.498 7.498 0 0 1-6.523 3.789zM318.002 154.942a7.5 7.5 0 0 1-7.5-7.5v-8.465a7.5 7.5 0 0 1 15 0v8.465a7.5 7.5 0 0 1-7.5 7.5zM304.063 195.77a7.48 7.48 0 0 1-5.577-2.483l-8.962-9.958c-2.771-3.079-2.521-7.821.558-10.592s7.821-2.522 10.592.558l8.962 9.958a7.5 7.5 0 0 1-5.573 12.517zM297.267 243.664h-14.119a7.5 7.5 0 0 1 0-15h14.119a7.5 7.5 0 0 1 0 15zM216.928 237.595a7.5 7.5 0 0 1-6.019-11.967l5.536-7.469a7.5 7.5 0 1 1 12.051 8.933l-5.536 7.469a7.494 7.494 0 0 1-6.032 3.034zM153.069 232.905a7.47 7.47 0 0 1-3.843-1.064l-8.807-5.268c-3.555-2.126-4.712-6.731-2.586-10.287s6.729-4.713 10.287-2.586l8.807 5.268a7.5 7.5 0 0 1-3.858 13.937zM351.853 222.161a7.5 7.5 0 0 1-6.549-11.143l4.979-8.962a7.498 7.498 0 0 1 10.198-2.914 7.5 7.5 0 0 1 2.914 10.198l-4.979 8.962a7.497 7.497 0 0 1-6.563 3.859z" fill="#fe93d3"></path><path d="M377.69 373.158c-6.32 0-12.06-2.57-16.2-6.71-4.15-4.15-6.72-9.88-6.72-16.21v-58.255c0-3.206-.861-6.388-2.675-9.032a15.407 15.407 0 0 0-12.745-6.733c-3.32 0-6.66 1.07-9.47 3.27-.29.23-.58.47-.87.7a88.264 88.264 0 0 1-6.515 4.769c-15.956 10.59-37.059 9.831-52.02-2.124l-.234-.187a88.182 88.182 0 0 0-52.41-19.43l-50.45-1.63c-21.04-.68-38.63-16.22-41.88-37.02a43.823 43.823 0 0 1 17.38-42.13l35.25-25.85a43.887 43.887 0 0 0 15.25-20.29l.138-.375c3.615-9.773 15.234-13.76 24.16-8.384a65.297 65.297 0 0 0 33.8 9.379c31.279 0 57.511-21.949 64.149-51.249l-18.159-7.208-51.66-10.55-40.32 10.55-19.7 7.82a116.337 116.337 0 0 0-40.51 27.04 116.385 116.385 0 0 0-25.92 41.23 43.887 43.887 0 0 1-15.25 20.29l-35.25 25.85a43.823 43.823 0 0 0-17.38 42.13c3.25 20.8 20.84 36.34 41.88 37.02l50.45 1.63a88.182 88.182 0 0 1 52.41 19.43c16.13 12.98 35.7 19.48 55.26 19.48s39.13-6.5 55.26-19.48c.26-.207.521-.42.781-.629l.089-.071c2.81-2.2 6.15-3.27 9.47-3.27 4.894 0 9.721 2.326 12.745 6.733 1.814 2.643 2.675 5.826 2.675 9.032v58.255c0 6.33 2.57 12.06 6.72 16.21 4.14 4.14 9.88 6.71 16.2 6.71 11.919 0 21.707-9.103 22.813-20.732-.181.003-.36.021-.542.021z" fill="#feaee1"></path><circle cx="251.479" cy="71.128" fill="#ee6161" r="45.788"></circle><path d="M257.498 70.595a7.5 7.5 0 0 1-7.5-7.5v-13.39c0-17.155 6.68-33.283 18.811-45.413l2.096-2.096a7.5 7.5 0 0 1 10.606 0 7.5 7.5 0 0 1 0 10.606l-2.096 2.096c-9.297 9.297-14.417 21.658-14.417 34.806v13.39a7.5 7.5 0 0 1-7.5 7.501z" fill="#d1a08f"></path></g></svg>