<svg id="Layer_1" height="512" viewBox="0 0 64 64" width="512" xmlns="http://www.w3.org/2000/svg"><path d="m60.24 19c-3.76 0-5.18 1.5-6.47 3-1.3 1.5-2.47 3-5.77 3-3.38 0-5.1-2.7-3.76-6-3.76 0-5.18 1.5-6.47 3-1.3 1.5-2.47 3-5.77 3-3.38 0-5.1-2.7-3.76-6-3.76 0-5.18 1.5-6.47 3-1.3 1.5-2.47 3-5.77 3-3.38 0-5.1-2.7-3.76-6-3.76 0-5.18 1.5-6.47 3-1.3 1.5-2.47 3-5.77 3v39h64v-39c-3.38 0-5.1-2.7-3.76-6z" fill="#2b9cd8"/><path d="m64 40v14c-3.38 0-5.1-2.7-3.76-6-3.76 0-5.18 1.5-6.47 3-1.3 1.5-2.47 3-5.77 3-3.38 0-5.1-2.7-3.76-6-3.76 0-5.18 1.5-6.47 3-1.3 1.5-2.47 3-5.77 3-3.38 0-5.1-2.7-3.76-6-3.76 0-5.18 1.5-6.47 3-1.3 1.5-2.47 3-5.77 3-3.38 0-5.1-2.7-3.76-6-3.76 0-5.18 1.5-6.47 3-1.3 1.5-2.47 3-5.77 3v-14c3.38 0 5.1-2.7 3.76-6 3.76 0 5.18 1.5 6.47 3 1.3 1.5 2.47 3 5.77 3 3.38 0 5.1-2.7 3.76-6 3.76 0 5.18 1.5 6.47 3 1.3 1.5 2.47 3 5.77 3 3.38 0 5.1-2.7 3.76-6 3.76 0 5.18 1.5 6.47 3 1.3 1.5 2.47 3 5.77 3 3.38 0 5.1-2.7 3.76-6 3.76 0 5.18 1.5 6.47 3 1.3 1.5 2.47 3 5.77 3z" fill="#4bb9ea"/><path d="m64 25v15c-3.3 0-4.47-1.5-5.77-3-1.29-1.5-2.71-3-6.47-3 1.34 3.3-.38 6-3.76 6-3.3 0-4.47-1.5-5.77-3-1.29-1.5-2.71-3-6.47-3 1.34 3.3-.38 6-3.76 6-3.3 0-4.47-1.5-5.77-3-1.29-1.5-2.71-3-6.47-3 1.34 3.3-.38 6-3.76 6-3.3 0-4.47-1.5-5.77-3-1.29-1.5-2.71-3-6.47-3 1.34 3.3-.38 6-3.76 6v-15c3.3 0 4.47-1.5 5.77-3 1.29-1.5 2.71-3 6.47-3-1.34 3.3.38 6 3.76 6 3.3 0 4.47-1.5 5.77-3 1.29-1.5 2.71-3 6.47-3-1.34 3.3.38 6 3.76 6 3.3 0 4.47-1.5 5.77-3 1.29-1.5 2.71-3 6.47-3-1.34 3.3.38 6 3.76 6 3.3 0 4.47-1.5 5.77-3 1.29-1.5 2.71-3 6.47-3-1.34 3.3.38 6 3.76 6z" fill="#7cd4f2"/><circle cx="48.5" cy="7.5" fill="#7cd4f2" r="2.5"/><circle cx="32" cy="11" fill="#4bb9ea" r="3"/><circle cx="15.5" cy="7.5" fill="#7cd4f2" r="2.5"/></svg>