<?xml version="1.0" encoding="iso-8859-1"?>
<!-- Generator: Adobe Illustrator 19.0.0, SVG Export Plug-In . SVG Version: 6.00 Build 0)  -->
<svg version="1.1" id="Layer_1" xmlns="http://www.w3.org/2000/svg" xmlns:xlink="http://www.w3.org/1999/xlink" x="0px" y="0px"
	 viewBox="0 0 512 512" style="enable-background:new 0 0 512 512;" xml:space="preserve">
<path style="fill:#324A5E;" d="M463.965,512c1.645-0.048,7.236-0.732,7.236-7.885v-62.271c0-21.077-5.308-37.419-12.895-50.018
	c-0.039-0.065-0.073-0.122-0.112-0.187c-0.052-0.088-0.109-0.171-0.161-0.259c-0.875-1.431-1.776-2.817-2.706-4.153
	c-0.254-0.362-0.512-0.718-0.769-1.073c-0.145-0.2-0.288-0.403-0.434-0.601c-13.706-18.446-33.411-27.513-33.411-27.513
	c-2.65-1.247-4.408-1.881-4.789-2.015l-31.782-14.145l-5.148,49.97l-19.592,27.284l10.689,20.018L336.513,512H463.965z"/>
<polygon style="fill:#EF4C35;" points="306.418,418.933 317.374,389.969 289.306,368.962 260.536,390.137 272.6,418.933 
	272.599,418.933 260.451,487.72 267.198,512 311.57,512 318.454,485.879 "/>
<path style="fill:#324A5E;" d="M123.628,427.069l-5.119,78.11c-0.027,2.015,0.598,6.821,7.251,6.821h113.298l-31.287-73.213
	l10.71-19.652l-19.614-25.823l-6.477-51.089l-31.482,13.831c-0.353,0.125-2.882,1.037-6.705,2.987
	c-0.442,0.213-0.902,0.447-1.394,0.728c-0.004,0.002-0.009,0.006-0.013,0.008c-0.857,0.457-1.757,0.955-2.71,1.507l-0.649,0.505
	c-11.317,7.05-18.943,14.772-18.943,14.772h11.613v50.507L123.628,427.069L123.628,427.069z"/>
<g>
	<polygon style="fill:#5288B5;" points="317.374,389.969 306.418,418.933 318.456,485.878 342.225,395.686 	"/>
	<polygon style="fill:#5288B5;" points="234.725,395.123 260.452,487.72 272.598,418.934 260.535,390.135 	"/>
</g>
<g>
	<path style="fill:#536D7F;" d="M217.018,331.398l-24.628,10.828l2.799,42.761v0.004l0.095,1.449
		c0.282,2.527,1.416,7.967,6.003,13.174c0.001,0.001,0.002,0.002,0.003,0.004l13.096,14.865c1.18,1.515,3.43,5.571-0.58,11.12
		l-6.322,8.743c-0.032,0.057-2.921,5.05,0.003,11.205c0,0.001,0.001,0.002,0.001,0.003L239.058,512h28.139L217.018,331.398z"/>
	<path style="fill:#536D7F;" d="M359.402,330.508l25.491,11.716l-2.799,42.761v0.004l-0.095,1.449
		c-0.282,2.527-1.416,7.967-6.003,13.174c-0.001,0.001-0.002,0.002-0.003,0.004l-13.096,14.865c-1.18,1.515-3.43,5.571,0.58,11.12
		l6.322,8.743c0.032,0.057,2.921,5.05-0.003,11.205c0,0.001-0.001,0.002-0.001,0.003L338.224,512h-28.139L359.402,330.508z"/>
</g>
<path style="fill:#FBCB99;" d="M318.074,289.652c-6.516,1.711-13.246,2.578-20.008,2.578h-17.114
	c-6.762,0-13.495-0.867-20.011-2.578l-10.467-2.749v41.416l38.831,40.643l39.238-40.728v-41.331L318.074,289.652z"/>
<path style="opacity:0.1;enable-background:new    ;" d="M269.383,291.369c-2.844-0.421-5.663-0.988-8.442-1.717l-10.467-2.749
	v41.416l18.91,19.792V291.369L269.383,291.369z"/>
<path style="fill:#C3C8D1;" d="M69.296,427.069l5.061,77.231l0,0v0.007l0.023,0.356c0.138,1.518,1.132,7.337,8.203,7.337h27.735
	c7.43,0,8.172-6.616,8.241-7.575l0.007-0.108c0-0.002,0.001-0.018,0.001-0.018l5.061-77.231H69.296V427.069z"/>
<path style="fill:#324A5E;" d="M66.734,376.563h59.457c15.58-9.866,25.935-27.243,25.935-47.049
	c0-30.741-24.923-55.662-55.663-55.662c-30.741,0-55.663,24.921-55.663,55.662C40.799,349.321,51.152,366.697,66.734,376.563z"/>
<path style="fill:#FBCB99;" d="M386.767,154.69l-9.816-1.753v-6.772l-5.625-1.623c-20.945-7.226-32.61-25.845-38.707-40.191
	l-4.008-15.597l-9.711,13.096c-34.193,35.794-87.62,42.715-109.003,44.03l-7.836,0.483v6.575l-9.815,1.753
	c-14.986,2.676-25.862,15.662-25.862,30.877c0,15.213,10.876,28.197,25.862,30.872l9.815,1.753l0,0
	c0,43.499,35.39,74.036,78.89,74.036h17.114c43.497,0,78.885-30.537,78.885-74.036l0,0l9.816-1.753
	c14.985-2.676,25.86-15.659,25.86-30.872C412.629,170.352,401.752,157.367,386.767,154.69z"/>
<g style="opacity:0.1;">
	<path d="M333.574,106.525c-0.331-0.732-0.652-1.46-0.955-2.174l-4.008-15.597l-9.711,13.096
		c-22.653,23.713-53.739,34.748-78.365,39.881C264.489,139.628,304.557,133.179,333.574,106.525z"/>
	<path d="M278.982,291.073c0.092-1.298-0.964-1.68-1.919-1.947c-0.032-0.009-0.053-0.024-0.079-0.038
		c-32.082-8.804-55.444-35.561-55.444-70.894v-65.257v-3.939v-4.173c-4.483,0.53-8.43,0.857-11.642,1.054l-7.836,0.483v6.575
		l-9.815,1.753c-14.986,2.676-25.862,15.662-25.862,30.877c0,15.213,10.876,28.197,25.862,30.872l9.815,1.753
		c0,42.402,33.633,72.475,75.62,73.965C278.184,292.123,278.922,291.927,278.982,291.073z"/>
</g>
<path style="fill:#694B4B;" d="M294.275,0h-9.003c-59.527,0-107.953,48.432-107.953,107.961v53.805
	c4.136-3.551,9.234-6.058,14.928-7.076l9.699-1.733l0.033-1.66l0.041,0.041c0,0-0.02-0.118-0.036-0.304l0.023-1.112
	c0.176-1.478,1.054-3.61,4.644-3.843l3.247-0.2c21.383-1.314,74.81-8.234,109.003-44.03l0.644-0.868c0,0,8.552-5.954,13.055,3.297
	c5.209,12.282,15.487,29.786,33.802,38.276c0.276,0.127,0.552,0.256,0.831,0.378c0.762,0.338,1.538,0.658,2.327,0.962
	c0.387,0.149,0.78,0.29,1.174,0.432c0.302,0.109,0.613,0.207,0.919,0.311l1.853,0.534l0,0c2.944,1.477,3.389,4.094,3.444,5.191
	v2.574l9.816,1.753c5.945,1.062,11.24,3.751,15.468,7.553V107.96C402.236,48.432,353.804,0,294.275,0z"/>
<g style="opacity:0.15;">
	<path d="M195.597,107.961c0-57.975,45.933-105.416,103.315-107.854C297.374,0.041,295.829,0,294.275,0h-9.003
		c-59.527,0-107.953,48.432-107.953,107.961v53.805c4.136-3.551,9.234-6.058,14.928-7.076l3.351-0.599v-46.13H195.597z"/>
</g>
<path style="opacity:0.15;enable-background:new    ;" d="M59.709,329.513c0-27.517,19.972-50.354,46.209-54.845
	c-3.076-0.528-6.231-0.816-9.455-0.816c-30.741,0-55.663,24.921-55.663,55.662c0,19.808,10.354,37.183,25.935,47.049h18.909
	C70.062,366.697,59.709,349.321,59.709,329.513z"/>
<path style="opacity:0.15;enable-background:new    ;" d="M69.296,427.069l4.862,74.198l0.258,3.718
	c0.245,1.88,1.523,7.016,8.168,7.016h11.275l-5.905-84.931H69.296z"/>
<path style="opacity:0.15;enable-background:new    ;" d="M288.334,411.351l-0.001-0.002l-5.662-13.515
	c-2.704-6.452,1.311-10.838,3.426-12.593l1.168-0.859l11.418-8.403l-9.376-7.018l-28.77,21.175l12.064,28.796h-0.001l-12.148,68.788
	L267.198,512h18.91l-4.272-15.374c-0.002-0.006-0.002-0.011-0.004-0.017c-1.933-6.96-1.774-12.03-1.458-14.625l0.346-1.961v-0.002
	l0,0l8.922-50.524c0.002-0.009,0.002-0.017,0.004-0.025c1.695-9.604-0.489-16.072-1.139-17.705L288.334,411.351z"/>
<path style="fill:#6598CB;" d="M328.543,309.323v18.814l-0.011,0.19l-0.378,0.309l-31.397,32.59
	c-0.012,0.013-0.022,0.022-0.033,0.035c-6.629,7.129-12.826,1.944-14.393,0.4l-31.696-33.175l-0.137-0.156l-0.014-0.033
	c-0.002-0.065-0.006-0.129-0.009-0.195v-18.781l-33.457,22.076l18.71,67.334l0.001,0.003l0.164,0.592
	c0.583,1.804,2.906,6.803,9.754,1.769l39.433-29.021c1.842-1.079,5.397-2.234,9.725,1.003l2.174,1.627l35.502,26.571
	c1.987,1.368,7.182,4.164,8.94-2.532l17.982-68.235L328.543,309.323z"/>
<path style="fill:#EF4C35;" d="M145.113,376.563H47.675c-1.977,0.098-6.876,1.011-6.876,7.699v35.695
	c0.066,1.785,0.83,7.112,7.698,7.112h96.65c6.009-0.352,6.884-4.925,6.979-6.831v-35.977
	C152.125,377.499,146.996,376.648,145.113,376.563z"/>
<path style="opacity:0.15;enable-background:new    ;" d="M47.675,376.563c-1.977,0.098-6.876,1.011-6.876,7.699v35.695
	c0.066,1.785,0.83,7.112,7.698,7.112h11.212v-50.507H47.675z"/>
<g>
</g>
<g>
</g>
<g>
</g>
<g>
</g>
<g>
</g>
<g>
</g>
<g>
</g>
<g>
</g>
<g>
</g>
<g>
</g>
<g>
</g>
<g>
</g>
<g>
</g>
<g>
</g>
<g>
</g>
</svg>
