<svg height="512" viewBox="0 0 512 512" width="512" xmlns="http://www.w3.org/2000/svg"><g id="Flat"><path d="m192 112h128a0 0 0 0 1 0 0v112a40 40 0 0 1 -40 40h-48a40 40 0 0 1 -40-40v-112a0 0 0 0 1 0 0z" fill="#fec9a3"/><circle cx="232" cy="184" fill="#693924" r="16"/><circle cx="280" cy="184" fill="#693924" r="16"/><path d="m229.323 216.242 5.354 15.077a63.055 63.055 0 0 1 42.646 0l5.354-15.077a78.86 78.86 0 0 0 -53.354 0z" fill="#f7ad7c"/><path d="m192 112h128v32h-128z" fill="#f35244"/><path d="m344 72h-112a40 40 0 0 0 -40 40h128a24 24 0 0 0 24-24z" fill="#92563a"/><path d="m192 176h-25.373a50.976 50.976 0 0 1 -36.284-15.03 19.408 19.408 0 0 0 -25.245-1.793l-7.498 5.623-19.2-25.6 7.5-5.623a51.567 51.567 0 0 1 67.073 4.766 19.187 19.187 0 0 0 13.654 5.657h25.373z" fill="#de4132"/><path d="m192 144h-8.934a63.68 63.68 0 0 1 -49.966-24.017 32.023 32.023 0 0 0 -30.242-11.571l-20.225 3.37-5.263-31.564 20.23-3.371a64.045 64.045 0 0 1 60.49 23.146 31.833 31.833 0 0 0 24.976 12.007h8.934z" fill="#de4132"/><path d="m184 152h8a0 0 0 0 1 0 0v48a0 0 0 0 1 0 0h-8a24 24 0 0 1 -24-24 24 24 0 0 1 24-24z" fill="#feb784"/><path d="m344 152h8a0 0 0 0 1 0 0v48a0 0 0 0 1 0 0h-8a24 24 0 0 1 -24-24 24 24 0 0 1 24-24z" fill="#feb784" transform="matrix(-1 0 0 -1 672 352)"/><path d="m424 72h64v48h-64z" fill="#f7ad7c"/><path d="m448 120h-40a16 16 0 0 1 -16-16v-40h24v24h8a24 24 0 0 1 24 24z" fill="#fec093"/><rect fill="#fec9a3" height="64" rx="16" width="96" x="392" y="24"/><path d="m416 56h16v32h-16z" fill="#f7ad7c"/><path d="m448 56h16v32h-16z" fill="#f7ad7c"/><path d="m488 120v97.56a31.967 31.967 0 0 1 -10.83 23.99l-125.17 110.45v136h-192v-152l-80 32v56h-56v-80.77a24.007 24.007 0 0 1 13.78-21.72l110.89-52.18a56.008 56.008 0 0 1 23.85-5.33h163.48l80-64v-80z" fill="#e0e0de"/><path d="m352 368v120h-192v-30.34c65.79-14.08 131.78-42.08 192-89.66z" fill="#dbdbd9"/><path d="m24 488h56v-24h16v-24l-16-16h-56z" fill="#fec9a3"/><path d="m224 264 16 24-8 144 24 24 24-24-16-144 16-24z" fill="#348fd9"/><g fill="#92563a"><path d="m248.059 184.855-43.03-17.427 5.942-14.856 43.029 17.428z"/><path d="m262.941 184.855-5.941-14.855 44.029-17.428 5.942 14.856z"/></g></g></svg>