<svg viewBox="0 0 58 57" xmlns="http://www.w3.org/2000/svg"><g><g fill="none" fill-rule="nonzero"><path d="M51 43c-4 2-4 8.32-4 8.32s-12-12-18 4c-6-16-18-4-18-4S11 45 7 43c-5.35-2.67 2.9-23.84 2.9-23.84 3.77-3.38 2.87-10.52 1.11-14.15C11.45 5.44 23.11 16.7 29 1c5.89 15.7 17.55 4.44 17.99 4.01-1.76 3.63-2.66 10.77 1.11 14.15 0 0 8.25 21.17 2.9 23.84z" fill="#f3d55b"></path><path d="m13.67 42.33-4.1 4.1a1.931 1.931 0 0 1-2.74 0L.67 40.27a1.95 1.95 0 0 1 0-2.74l.66-.66 1.41-1.41 2.03-2.02 4.28 4.28 2.74 2.73zM26.45 33.63a6.139 6.139 0 0 1-2 1.26c-2.83 1.14-6.42.33-9.13-1.63-3.41-2.47-5.43-6.76-2.82-11.31.396-.71.869-1.374 1.41-1.98a5.952 5.952 0 0 1 7.07-1.71 13.641 13.641 0 0 1 4.55 3.14 12.61 12.61 0 0 1 2.8 3.93c1.01 2.33 1.24 5.39-1.88 8.3z" fill="#e64c3c"></path><path d="M24.45 34.89c-2.48 2.37-6.51 6.19-10.78 7.44l-1.88-1.88-2.74-2.73-4.28-4.28S3.45 24.2 8.73 18.92c2.92-2.91 4.45-1.23 5.18 1.05a11.089 11.089 0 0 0-1.41 1.98c-2.61 4.55-.59 8.84 2.82 11.31 2.71 1.96 6.3 2.77 9.13 1.63z" fill="#c03a2b"></path><path d="M6.86 40.99a1.014 1.014 0 0 1-1.42 0l-4.1-4.1c-.01-.01-.01-.01-.01-.02l1.41-1.41.02.02 4.1 4.1a1 1 0 0 1 0 1.41z" fill="#f9eab0"></path><path d="m57.44 40.27-6.17 6.16a1.919 1.919 0 0 1-2.73 0l-4.1-4.1 1.88-1.88 2.73-2.73 4.28-4.28.01-.01 4.1 4.1c.75.76.75 1.98 0 2.74zM42.78 33.26c-2.71 1.96-6.3 2.77-9.13 1.63a6.139 6.139 0 0 1-2-1.26c-3.11-2.91-2.88-5.97-1.87-8.3a12.61 12.61 0 0 1 2.8-3.93 13.641 13.641 0 0 1 4.55-3.14 5.957 5.957 0 0 1 7.07 1.71 11.6 11.6 0 0 1 1.4 1.98c2.61 4.55.59 8.84-2.82 11.31z" fill="#3b97d3"></path><path d="m53.33 33.44-4.28 4.28-2.73 2.73-1.88 1.88c-4.28-1.25-8.31-5.07-10.79-7.44 2.83 1.14 6.42.33 9.13-1.63 3.41-2.47 5.43-6.76 2.82-11.31a11.6 11.6 0 0 0-1.4-1.98c.72-2.28 2.26-3.96 5.17-1.05 5.28 5.28 3.96 14.52 3.96 14.52z" fill="#2980ba"></path><path d="m56.78 36.87-.02.02-4.1 4.1a.982.982 0 0 1-.71.29.96.96 0 0 1-.7-.29 1 1 0 0 1 0-1.41l4.1-4.1.02-.02z" fill="#f9eab0"></path><path d="M15.974 24.94a1 1 0 0 1-.867-1.5c1.038-1.808 2.13-2.688 3.339-2.688.499.012.991.116 1.453.306a1 1 0 1 1-.718 1.866 2.114 2.114 0 0 0-.735-.172c-.308 0-.892.443-1.6 1.684a1 1 0 0 1-.872.504z" fill="#ffffff"></path><g fill="#f0c419"><path d="M37.933 10.321a8.375 8.375 0 0 1-1.775-.187C33.225 9.5 30.823 7.285 29 3.542c-1.823 3.743-4.225 5.956-7.158 6.592-5.786 1.251-11.316-4.195-11.549-4.427a1 1 0 0 1 1.413-1.415c.05.05 4.992 4.913 9.719 3.886 2.757-.6 4.99-3.134 6.638-7.529a1 1 0 0 1 1.874 0c1.648 4.395 3.881 6.928 6.638 7.529C41.3 9.2 46.244 4.341 46.294 4.292a1 1 0 0 1 1.413 1.415c-.207.209-4.679 4.614-9.774 4.614zM29 56.32a1 1 0 0 1-.937-.649c-1.648-4.4-3.881-6.928-6.638-7.529-4.728-1.023-9.669 3.836-9.719 3.886a1 1 0 0 1-1.413-1.415c.232-.233 5.763-5.68 11.549-4.427 2.933.636 5.335 2.849 7.158 6.591 1.823-3.742 4.225-5.955 7.158-6.591 5.787-1.251 11.317 4.2 11.549 4.427a1 1 0 0 1-1.413 1.415c-.05-.049-4.993-4.913-9.719-3.886-2.757.6-4.99 3.133-6.638 7.529a1 1 0 0 1-.937.649z" fill="#f0c419"></path></g></g></g></svg>