<svg viewBox="0 0 512 512" xmlns="http://www.w3.org/2000/svg"><g><path d="m91.86 206.239-3.881-14.491-57.964 15.542 3.88 14.48 3.883 14.495 57.964-15.542z" fill="#474f54"></path><path d="m95.742 220.723-3.882-14.484-57.965 15.531 3.883 14.495z" fill="#32393f"></path><path d="m149.808 190.712-11.644-43.466-72.436 19.409 11.643 43.466 11.648 43.473 72.436-19.409z" fill="#fabe2c"></path><path d="m77.417 210.117 72.442-19.423 11.657 43.476-72.442 19.423z" fill="#ff9100"></path><path d="m468.598 105.291-19.499-72.292L376.5 52.5l-23.103 55.576 9.771 25.466 17.466 45.519 34.865 18.039 72.602-19.501z" fill="#474f54"></path><path d="m415.499 197.1 72.602-19.501-19.503-72.308-105.43 28.251 17.466 45.519z" fill="#32393f"></path><path d="M395.986 124.748 376.5 52.5l-260.7 69.6 19.511 72.495 19.488 72.406 260.7-69.901z" fill="#ffe666"></path><path d="m415.499 197.1-19.513-72.352-260.675 69.847 19.488 72.406z" fill="#fabe2c"></path><path d="m48.384 217.888-19.409-72.444L0 153.208l19.409 72.444 19.409 72.444 28.975-7.764z" fill="#575f64"></path><path d="m19.457 225.661 28.977-7.77 19.425 72.45-28.977 7.77z" fill="#474f54"></path><path d="M483.054 101.418 455.874 0l-28.975 7.764 27.181 101.418L483.025 213 512 205.236z" fill="#ffe666"></path><path d="m512 205.236-28.946-103.818-28.974 7.764L483.025 213z" fill="#fabe2c"></path><path d="m385.272 482-107.84-216.68C291.398 257.674 301 243.014 301 226c0-24.814-20.186-45-45-45s-45 20.186-45 45c0 17.014 9.602 31.674 23.568 39.32L126.728 482H91v30h54.272L241 319.545V482h-30v30h90v-30h-30V319.545L366.728 512H421v-30z" fill="#474f54"></path><path d="M301 482h-30V319.545L366.728 512H421v-30h-35.728l-107.84-216.68C291.398 257.674 301 243.014 301 226c0-24.814-20.186-45-45-45v331h45z" fill="#32393f"></path><circle cx="256" cy="226" fill="#fabe2c" r="15"></circle><path d="M271 226c0-8.284-6.716-15-15-15v30c8.284 0 15-6.716 15-15z" fill="#ff9100"></path></g></svg>