<svg height="512" viewBox="0 0 512 512" width="512" xmlns="http://www.w3.org/2000/svg"><g id="_36_100_" data-name="36 100%"><rect fill="#ffebb9" height="220.12" rx="54.86" width="490" x="11" y="145.94"/><path d="m174.13 366.05h-108.28a54.85 54.85 0 0 1 -54.85-54.85v-110.41a54.54 54.54 0 0 1 10-31.62 501.46 501.46 0 0 0 153.13 196.88z" fill="#eddab0"/><g fill="#4a5058"><rect height="174.81" rx="12.54" transform="matrix(.866 .5 -.5 .866 181.5 -165.36)" width="25.07" x="386.78" y="168.6"/><circle cx="358.17" cy="207.13" r="24.05"/><circle cx="440.47" cy="304.87" r="24.05"/><path d="m59.91 186.58h19a13.66 13.66 0 0 1 13.67 13.66v112.06a13.12 13.12 0 0 1 -13.12 13.12 13.12 13.12 0 0 1 -13.18-13.12v-94.52a6.38 6.38 0 0 0 -6.37-6.38 12.41 12.41 0 0 1 -10.57-18.92 12.41 12.41 0 0 1 10.57-5.9z"/><path d="m155.14 183.08q15.2 0 26.19 7.46t17 22.8q6 15.33 6 42.71 0 27.66-6.09 43t-16.39 22.65q-10.29 7.21-25.95 7.22t-26.34-7.27q-10.66-7.27-16.71-22.09t-6-42.19q0-38.24 11.8-55.41 13.09-18.87 36.49-18.88zm.61 25.11a18.05 18.05 0 0 0 -11.87 4.3q-5.17 4.29-7.91 14.77t-2.73 30.68q0 26.32 6.27 36.38t16.24 10.06q9.62 0 15.26-9.54 6.88-11.5 6.88-38.51 0-27.37-6.17-37.76t-15.97-10.38z"/><path d="m265.41 183.08q15.19 0 26.19 7.46t17 22.8q6 15.33 6 42.71 0 27.66-6.09 43t-16.39 22.65q-10.29 7.21-26 7.22t-26.33-7.27q-10.67-7.27-16.71-22.09t-6-42.19q0-38.24 11.8-55.41 13.12-18.87 36.53-18.88zm.61 25.11a18 18 0 0 0 -11.87 4.3q-5.18 4.29-7.91 14.77t-2.73 30.68q0 26.32 6.26 36.38t16.23 10.06q9.6 0 15.26-9.54 6.87-11.5 6.88-38.51 0-27.37-6.17-37.76t-15.97-10.38z"/></g><path d="m92.52 286.52v25.78a13.12 13.12 0 1 1 -26.24 0v-61q12.35 18.22 26.24 35.22z" fill="#3f4449"/></g></svg>