<svg viewBox="0 0 512 512" xmlns="http://www.w3.org/2000/svg"><g><path d="M512 256c0 141.385-114.615 256-256 256S0 397.385 0 256c0-56.192 18.104-108.156 48.799-150.376.824-1.133 3.107.789 3.949-.33a257.37 257.37 0 0 1 13.146-16.08c1.417-1.597 1.404-6.225 2.859-7.786C115.483 31.327 182.083 0 256 0c141.385 0 256 114.615 256 256z" fill="#54469d"></path><path d="M460.701 256c0 113.053-91.648 204.701-204.701 204.701S51.299 369.053 51.299 256 142.947 51.299 256 51.299 460.701 142.947 460.701 256z" fill="#6354b2"></path><path d="M220.299 253.201a7.5 7.5 0 0 1-7.5 7.5h-16c-4.142 0-7.5-3.357-7.5-7.5s3.358-7.5 7.5-7.5h16a7.5 7.5 0 0 1 7.5 7.5zm-99.5-7.5h-16c-4.142 0-7.5 3.357-7.5 7.5s3.358 7.5 7.5 7.5h16c4.142 0 7.5-3.357 7.5-7.5s-3.358-7.5-7.5-7.5zm46 0h-16c-4.142 0-7.5 3.357-7.5 7.5s3.358 7.5 7.5 7.5h16c4.142 0 7.5-3.357 7.5-7.5s-3.358-7.5-7.5-7.5zm-92 0h-16c-4.142 0-7.5 3.357-7.5 7.5s3.358 7.5 7.5 7.5h16c4.142 0 7.5-3.357 7.5-7.5s-3.358-7.5-7.5-7.5zm322 0h-16c-4.142 0-7.5 3.357-7.5 7.5s3.358 7.5 7.5 7.5h16c4.142 0 7.5-3.357 7.5-7.5s-3.358-7.5-7.5-7.5zm38.149 0h-8.149c-4.142 0-7.5 3.357-7.5 7.5s3.358 7.5 7.5 7.5h8.149c4.142 0 7.5-3.357 7.5-7.5s-3.358-7.5-7.5-7.5zm-84.149 0h-16c-4.142 0-7.5 3.357-7.5 7.5s3.358 7.5 7.5 7.5h16c4.142 0 7.5-3.357 7.5-7.5s-3.358-7.5-7.5-7.5zm-92 0h-16c-4.142 0-7.5 3.357-7.5 7.5s3.358 7.5 7.5 7.5h16c4.142 0 7.5-3.357 7.5-7.5s-3.358-7.5-7.5-7.5zm46 0h-16c-4.142 0-7.5 3.357-7.5 7.5s3.358 7.5 7.5 7.5h16c4.142 0 7.5-3.357 7.5-7.5s-3.358-7.5-7.5-7.5z" fill="#988fcc"></path><path d="M224.039 216.13c-4.418 7.257-15.3 6.048-18.017-2.002L168.39 102.604 68.323 415.249c-1.359 4.247-5.29 6.955-9.521 6.955a9.98 9.98 0 0 1-3.051-.479c-5.26-1.684-8.159-7.313-6.476-12.573l109.34-341.616a10 10 0 0 1 18.999-.149l47.358 140.347a9.997 9.997 0 0 1-.933 8.396z" fill="#ada7d7"></path><path d="M363.299 437.201c0 5.522-4.477 10-10 10h-294.5c-5.523 0-10-4.478-10-10V165.223c0-5.522 4.477-10 10-10s10 4.478 10 10v261.978h284.5c5.523 0 10 4.478 10 10z" fill="#8379c2"></path><path d="M454.172 447.201H274.243c-5.51 0-9.977-4.467-9.977-9.977s4.467-9.977 9.977-9.977h179.929c5.51 0 9.977 4.467 9.977 9.977s-4.467 9.977-9.977 9.977zM48.799 105.624v73.566c0 5.51 4.467 9.977 9.977 9.977s9.977-4.467 9.977-9.977V81.429a257.375 257.375 0 0 0-19.954 24.195z" fill="#988fcc"></path><path d="M353.766 204.04a10 10 0 0 1-1.034 4.428l-77.584 157.098c-1.792 3.629-5.6 5.833-9.632 5.55a10 10 0 0 1-8.809-6.78l-59.104-175.158a10.006 10.006 0 0 1 4.02-11.582c5.886-3.863 12.773-1.205 15.024 5.466l51.278 151.964L334.8 199.612c4.684-9.486 18.966-6.151 18.966 4.428z" fill="#c3bde1"></path><path d="m487.039 260.272-35.355 35.355a9.972 9.972 0 0 1-7.071 2.929 9.977 9.977 0 0 1-7.559-3.452c-3.48-3.999-3.044-10.087.705-13.835l18.068-18.068h-34.154a10 10 0 0 1-8.839-5.323l-43.706-82.607-28.565 57.84c-4.684 9.485-18.966 6.151-18.966-4.428a10 10 0 0 1 1.034-4.428l37.224-75.375a10 10 0 0 1 8.827-5.571c3.779-.088 7.223 2.004 8.979 5.322l50.034 94.57h28.132l-18.042-18.042c-3.766-3.766-4.213-9.897-.697-13.898 3.852-4.385 10.537-4.545 14.598-.486l35.355 35.355c3.903 3.905 3.903 10.237-.002 14.142z" fill="#ffffff"></path><path d="M194.996 93.15c-5.533 9.506-16.089 15.728-28.032 15.03-15.19-.888-27.547-13.246-28.435-28.436-.699-11.973 5.556-22.552 15.102-28.073.166-.096.352.087.264.257-2.575 4.937-3.831 10.67-3.299 16.734 1.271 14.484 12.961 26.178 27.445 27.451 6.036.531 11.745-.71 16.666-3.26.192-.1.398.11.289.297z" fill="#ffef31"></path><path d="M199.093 77.925a30.168 30.168 0 0 1-4.099 15.23 30.169 30.169 0 0 1-15.23 4.1c-16.739 0-30.309-13.57-30.309-30.309a30.168 30.168 0 0 1 4.099-15.23 30.168 30.168 0 0 1 15.23-4.099c16.739-.001 30.309 13.569 30.309 30.308z" fill="#fff261"></path><path d="M292.511 374.399c-5.533 9.506-16.089 15.728-28.032 15.03-15.19-.888-27.547-13.246-28.435-28.436-.699-11.973 5.556-22.552 15.102-28.073.166-.096.352.087.264.257-2.575 4.937-3.831 10.67-3.299 16.734 1.271 14.484 12.961 26.178 27.445 27.451 6.036.531 11.745-.71 16.666-3.26.192-.1.398.11.289.297z" fill="#ff2aaa"></path><path d="M296.607 359.173a30.168 30.168 0 0 1-4.099 15.23 30.169 30.169 0 0 1-15.23 4.1c-16.739 0-30.309-13.57-30.309-30.309a30.168 30.168 0 0 1 4.099-15.23 30.168 30.168 0 0 1 15.23-4.099c16.74 0 30.309 13.569 30.309 30.308z" fill="#ff4fb8"></path><path d="M394.383 173.434c-5.533 9.506-16.089 15.728-28.032 15.03-15.19-.888-27.547-13.246-28.435-28.436-.699-11.973 5.556-22.552 15.102-28.073.166-.096.352.087.264.257-2.575 4.937-3.831 10.67-3.299 16.734 1.271 14.484 12.961 26.178 27.445 27.451 6.036.531 11.745-.71 16.666-3.26.192-.1.398.11.289.297z" fill="#00d1fc"></path><path d="M398.48 158.209a30.168 30.168 0 0 1-4.099 15.23 30.169 30.169 0 0 1-15.23 4.1c-16.739 0-30.309-13.57-30.309-30.309a30.168 30.168 0 0 1 4.099-15.23 30.168 30.168 0 0 1 15.23-4.099c16.739-.001 30.309 13.569 30.309 30.308z" fill="#64dcfc"></path></g></svg>