<svg viewBox="0 0 453.54 453.54" xmlns="http://www.w3.org/2000/svg"><g><path d="M292.566 17.706H164.555c-9.021 4.479-71.68 40.61-51.979 171.936l29.289 231.285H315.25l29.289-231.285c19.703-131.326-42.953-167.457-51.973-171.936z" fill="#2a2e6d"></path><path d="M425.373 453.542c1.838-49.627-29.418-68.713-29.418-68.713l-131.68-74.44h-75.018l-131.672 74.44s-31.258 19.086-29.42 68.713z" fill="#f9c5b8"></path><path d="M179.893 320.017h93.754c-20.771-11.217-15.174-54.34-15.174-54.34h-63.406c-.001 0 5.599 43.123-15.174 54.34z" fill="#f9c5b8"></path><path d="M193.768 298.097c22.4-2.558 44.324-10.066 64.029-21.166.076-6.62.676-11.254.676-11.254h-63.406c-.001 0 2.199 16.993-1.299 32.42zM336.125 169.608c-1.973 15.252-10.602 26.579-19.275 25.297-8.674-1.283-14.104-14.687-12.133-29.94 1.973-15.253 10.605-26.58 19.279-25.298 8.672 1.283 14.104 14.687 12.129 29.941z" fill="#f5a997"></path><path d="M316.725 183.581a2.62 2.62 0 0 1-2.539-1.992c-2.162-8.753-3.145-19.125 5.963-29.687a2.618 2.618 0 0 1 3.964 3.42c-7.904 9.168-6.645 17.718-4.846 25.012a2.613 2.613 0 0 1-1.914 3.169 2.59 2.59 0 0 1-.628.078z" fill="#e9837b"></path><path d="M325.525 168.379c-.16 0-.326-.015-.492-.047-4.197-.795-8.531-.005-8.576.001a2.618 2.618 0 0 1-.973-5.146c.215-.042 5.316-.989 10.527 0a2.619 2.619 0 0 1-.486 5.192z" fill="#e9837b"></path><path d="M117.414 169.608c1.975 15.252 10.604 26.579 19.275 25.297 8.674-1.283 14.105-14.687 12.135-29.94-1.975-15.253-10.607-26.58-19.279-25.298-8.674 1.283-14.106 14.687-12.131 29.941z" fill="#f5a997"></path><path d="M136.814 183.581a2.616 2.616 0 0 1-2.543-3.247c1.801-7.294 3.061-15.844-4.844-25.012a2.618 2.618 0 1 1 3.964-3.42c9.105 10.561 8.123 20.933 5.963 29.687a2.619 2.619 0 0 1-2.54 1.992z" fill="#e9837b"></path><path d="M128.014 168.379a2.618 2.618 0 0 1-.486-5.192c5.209-.989 10.314-.042 10.529 0a2.618 2.618 0 0 1 2.082 3.061 2.63 2.63 0 0 1-3.059 2.085c-.072-.013-4.387-.794-8.574-.001-.164.032-.33.047-.492.047z" fill="#e9837b"></path><path d="M314.617 133.061c-1.555-43.515-28.264-97.271-83.023-96.976h-11.192c-54.76-.295-81.465 53.461-83.023 96.976-1.561 43.736 11.848 94.178 39.088 121.004 12.771 12.575 32.143 18.623 49.533 18.926 17.387-.303 36.758-6.351 49.529-18.926 27.241-26.826 40.649-77.268 39.088-121.004z" fill="#f9c5b8"></path><path d="M143.537 126.914c.029 51.453-3.342 52.948-3.342 52.948" fill="#2a2e6d"></path><path d="M310.553 179.712c8.98-6.741 1.855-38.98 14.268-39.882 0 0 31.387-79.974-32.254-122.124C260.855-.001 233.572-.001 233.572-.001c-138.725 1.164-103.588 138.17-103.588 138.17 7.582 8.673 5.182 21.604 10.211 41.693 8.822-12.967 9.035-52.12 9.035-52.12 17.816-25.87 25.906-46.323 25.906-46.323 42.766 4.364 91.682-24.054 91.682-24.054 6.828 32.565 21.025 57.151 37.496 70.377 0 0 .989 33.771 6.239 51.97z" fill="#2a2e6d"></path><path d="m299.572 330.316 62.645 35.415c-7.998 28.338-7.518 58.198-6.424 87.811H97.783c1.098-29.613 1.576-59.472-6.42-87.811l62.646-35.415c.001 0 78.86 43.797 145.563 0z" fill="#b690c2"></path><path d="M283.578 140.487c-2.236-15.498-34.961-16.075-41.35-9.825 0 0-2.465 4.437.592 8.583 18.359-6.756 35.307-.511 40.703 2.401.85.1.055-1.159.055-1.159zM168.418 140.487s-.795 1.259.053 1.159c5.398-2.912 22.346-9.157 40.703-2.401 3.059-4.146.594-8.583.594-8.583-6.389-6.25-39.114-5.673-41.35 9.825z" fill="#2a2e6d"></path><path d="M208.098 185.029c0 5.325-9.506 9.645-21.232 9.645-11.725 0-21.23-4.319-21.23-9.645 0-5.33 9.506-9.649 21.23-9.649 11.726-.001 21.232 4.319 21.232 9.649zM286.363 185.029c0 5.325-9.504 9.645-21.232 9.645-11.725 0-21.229-4.319-21.229-9.645 0-5.33 9.504-9.649 21.229-9.649 11.728-.001 21.232 4.319 21.232 9.649z" fill="#f6afa8"></path><ellipse cx="191.143" cy="160.012" fill="#2a2d6b" rx="6.982" ry="13.151"></ellipse><ellipse cx="260.854" cy="160.012" fill="#2a2d6b" rx="6.98" ry="13.151"></ellipse><path d="M227.801 212.956c-.33 0-.668-.064-.994-.198-5.631-2.316-8.697-4.919-9.646-8.19-1.254-4.316 1.494-8.206 4.406-12.325 1.822-2.578 3.705-5.244 4.623-8.034a2.617 2.617 0 1 1 4.973 1.634c-1.16 3.536-3.369 6.663-5.32 9.422-2.162 3.059-4.203 5.948-3.654 7.841.316 1.083 1.717 2.795 6.611 4.809a2.62 2.62 0 0 1-.999 5.041zM226.572 231.786c-12.395 0-21.51-6.139-21.645-6.232a2.619 2.619 0 0 1 2.967-4.314c.719.492 17.855 11.903 36.264-.038a2.618 2.618 0 0 1 2.85 4.393c-7.156 4.642-14.211 6.191-20.436 6.191z" fill="#e9837b"></path></g></svg>