<svg viewBox="0 0 512 512" xmlns="http://www.w3.org/2000/svg"><g><path d="M201.74 389.071h18.143C252.478 347.272 374.259 372.07 334.59 512H87.032C47.363 372.07 169.144 347.272 201.74 389.071z" fill="#bcd151"></path><path d="M245.219 373.107c39.536 10.129 76.43 52.638 51.977 138.893h37.394c32.406-114.308-42.928-151.787-89.371-138.893z" fill="#8d9f25"></path><path d="M210.811 420.408c20.652 0 37.394-16.742 37.394-37.394v-46.282h-74.788v46.282c0 20.652 16.742 37.394 37.394 37.394z" fill="#f6bb93"></path><path d="M173.417 373.628c23.266 5.311 49.784 6.73 74.788 4.256v-41.151h-74.788v36.895z" fill="#e49775"></path><path d="M82.297 260.108h41.787v-63.193H82.297c-17.45 0-31.596 14.146-31.596 31.596 0 17.451 14.146 31.597 31.596 31.597zM339.325 260.108h-41.787v-63.193h41.787c17.45 0 31.596 14.146 31.596 31.596.001 17.451-14.146 31.597-31.596 31.597z" fill="#f6bb93"></path><path d="M98.356 247.588c-7.792-33.731-19.307-78.69-24.498-100.62-33.375-28.978-40.28-90.227-20.1-133.762 2.909-6.276 10.926-8.149 16.294-3.787 13.263 10.777 39.427 20.997 88.337 3.057 95.249-34.936 175.458 12.1 180.062 36.183 5.15 0 30.163 3.544 30.163 28.141 0 20.922-34.384 132.353-49.209 170.789H98.356z" fill="#52668d"></path><path d="M338.451 48.658C334.833 29.732 284.52-3.37 216.91.279c51.026 3.103 87.437 31.427 90.336 48.38 4.607 0 26.983 3.544 26.983 28.141 0 20.922-30.759 132.353-44.022 170.789h29.197c14.825-38.436 49.209-149.867 49.209-170.789.001-24.598-25.012-28.142-30.162-28.142z" fill="#243b5d"></path><path d="M92.978 290.193c0 83.216 235.667 83.216 235.667 0 0-47.683-6.377-128.417-20.272-159.8-3.299-7.451-10.472-15.096-16.343-18.605-4.966-2.968-10.174-4.646-15.471-4.646-5.926 0-11.708 1.898-17.513 4.646-15.041 7.107-30.214 19.863-48.235 19.863s-33.194-12.757-48.235-19.863c-5.804-2.748-11.587-4.646-17.513-4.646-5.297 0-10.505 1.677-15.471 4.646-5.882 3.509-13.064 11.167-16.376 18.638-13.838 31.211-20.238 111.18-20.238 159.767z" fill="#f6bb93"></path><path d="M308.373 130.393c-3.299-7.451-10.472-15.096-16.343-18.605-4.966-2.968-10.174-4.646-15.471-4.646-4.309 0-8.543 1.012-12.764 2.616a31.382 31.382 0 0 1 3.406 2.029c5.138 3.509 11.417 11.154 14.304 18.605 12.161 31.383 17.743 112.117 17.743 159.8 0 39.762-47.093 60.523-96.275 62.287 61.41 1.928 125.672-18.833 125.672-62.287 0-47.681-6.378-128.415-20.272-159.799z" fill="#e49775"></path><path d="M267.094 231.592a7.725 7.725 0 0 1-7.726-7.726v-12.021a7.726 7.726 0 1 1 15.452 0v12.021a7.726 7.726 0 0 1-7.726 7.726zM154.529 231.592a7.726 7.726 0 0 1-7.726-7.726v-12.021a7.726 7.726 0 1 1 15.452 0v12.021a7.725 7.725 0 0 1-7.726 7.726zM266.451 196.591c-8.576 0-17.152-2.425-23.835-7.275a7.727 7.727 0 0 1-1.715-10.792 7.724 7.724 0 0 1 10.791-1.715c8 5.807 21.517 5.807 29.517 0a7.728 7.728 0 0 1 9.077 12.507c-6.683 4.85-15.259 7.275-23.835 7.275zM174.462 196.591a7.699 7.699 0 0 1-4.532-1.474c-8-5.807-21.518-5.806-29.518 0a7.727 7.727 0 0 1-9.076-12.507c13.366-9.698 34.304-9.698 47.671 0a7.728 7.728 0 0 1-4.545 13.981z" fill="#243b5d"></path><path d="M403.787 11.486c-38.51-3.875-73.778 23.514-79.515 61.79-5.9 39.368 20.609 75.6 58.867 82.683a53.756 53.756 0 0 1-13.147 19.084c-2.703 2.518-.761 7.045 2.924 6.786a53.715 53.715 0 0 0 7.165-.99c15.784-3.272 28.474-13.201 35.778-26.241 27.861-7.668 49.669-31.556 53.2-62.024 4.687-40.446-24.615-76.997-65.272-81.088z" fill="#7cccf2"></path><path d="M403.787 11.486a72.327 72.327 0 0 0-14.232-.028c.101.012.202.015.303.028 33.608 4.091 57.829 40.642 53.955 81.088-2.919 30.468-20.946 54.356-43.976 62.024-6.038 13.04-16.527 22.969-29.575 26.241-.064.016-.129.029-.193.044.722.642 1.7 1.027 2.847.946a53.715 53.715 0 0 0 7.165-.99c15.784-3.272 28.474-13.201 35.778-26.241 27.861-7.668 49.669-31.556 53.2-62.024 4.687-40.446-24.615-76.997-65.272-81.088z" fill="#4facdb"></path><path d="M112.119 512v-38.286a7.726 7.726 0 1 1 15.452 0V512h-15.452zm197.386 0v-38.286a7.725 7.725 0 0 0-7.726-7.726 7.725 7.725 0 0 0-7.726 7.726V512h15.452z" fill="#8d9f25"></path><path d="M309.505 473.714a7.722 7.722 0 0 0-4.584-7.054c-.554 13.525-2.98 28.605-7.725 45.34h12.308v-38.286z" fill="#828c1f"></path><path d="M392.642 131.52a7.725 7.725 0 0 1-7.726-7.726v-1.03a7.726 7.726 0 1 1 15.452 0v1.03a7.726 7.726 0 0 1-7.726 7.726zM392.642 109.866a7.725 7.725 0 0 1-7.726-7.726V88.516c0-6.546 5.326-11.872 11.872-11.872h2.88a12.3 12.3 0 0 0 9.05-3.915c2.37-2.522 3.556-5.827 3.34-9.306-.38-6.117-5.468-11.204-11.583-11.585-5.579-.356-10.749 3.093-12.555 8.361a7.727 7.727 0 0 1-14.618-5.012c4.057-11.83 15.633-19.567 28.131-18.772 13.982.868 25.18 12.066 26.048 26.049.484 7.78-2.181 15.183-7.502 20.846a27.988 27.988 0 0 1-19.611 8.777v10.052a7.726 7.726 0 0 1-7.726 7.727zM260.693 294.632a7.704 7.704 0 0 1-5.463-2.263c-8.49-8.49-22.305-8.492-30.796 0a7.727 7.727 0 0 1-10.927-10.928c14.516-14.515 38.135-14.514 52.649 0a7.726 7.726 0 0 1-5.463 13.191z" fill="#243b5d"></path></g></svg>