<svg viewBox="0 0 512 512" xmlns="http://www.w3.org/2000/svg"><g><path d="M400.6 0H15C6.716 0 0 6.716 0 15v482c0 8.284 6.716 15 15 15h321.333c43.777 0 79.266-35.489 79.266-79.266V15c.001-8.284-6.715-15-14.999-15z" fill="#f0f7fb"></path><path d="M400.6 0H207.8v512h128.534c43.777 0 79.266-35.489 79.266-79.266V15c0-8.284-6.716-15-15-15z" fill="#d6ebf5"></path><path d="M336.333 351.333H79.267c-8.284 0-15-6.716-15-15s6.716-15 15-15h257.067c8.284 0 15 6.716 15 15s-6.716 15-15.001 15z" fill="#374969"></path><path d="M336.333 321.333H207.8v30h128.534c8.284 0 15-6.716 15-15s-6.716-15-15.001-15z" fill="#1f2746"></path><path d="M497 160.667H336.333c-8.284 0-15 6.716-15 15v64.269c0 8.284 6.716 15 15 15H497c8.284 0 15-6.716 15-15v-64.269c0-8.285-6.716-15-15-15z" fill="#f0f7fb"></path><path d="M512 239.935v-64.269c0-8.284-6.716-15-15-15h-80.333v94.269H497c8.284 0 15-6.716 15-15z" fill="#d6ebf5"></path><path d="M427.273 325.727c-5.858-5.858-15.355-5.858-21.213 0l-68.977 68.976c-10.156 10.162-15.75 23.667-15.75 38.029V497H512v-64.268c0-14.361-5.593-27.867-15.754-38.033z" fill="#f0f7fb"></path><path d="M512 432.732c0-14.361-5.593-27.867-15.754-38.033l-68.973-68.972a14.953 14.953 0 0 0-10.606-4.393V497H512z" fill="#d6ebf5"></path><path d="m431.667 342.547 64.583-64.583c10.157-10.161 15.75-23.667 15.75-38.029H321.333c0 14.362 5.593 27.868 15.753 38.032l64.58 64.579v74.121L321.333 497c0 8.284 6.716 15 15 15H497c8.284 0 15-6.716 15-15l-80.333-80.333z" fill="#ec9d6b"></path><path d="m512 497-80.333-80.333v-74.12l64.583-64.583c10.157-10.161 15.75-23.667 15.75-38.029h-95.333V512H497c8.284 0 15-6.716 15-15z" fill="#d27555"></path><path d="M150.739 445.595c-16.241.004-27.228-11.67-33.879-18.321-4.143-4.143-8.839-8.839-11.917-9.454-2.262-.456-7.41 1.792-15.071 9.454-5.858 5.858-15.355 5.857-21.213 0-5.858-5.858-5.858-15.355 0-21.213 14.631-14.631 28.423-20.408 42.167-17.658 11.985 2.397 20.447 10.859 27.246 17.658 4.143 4.143 8.838 8.838 11.917 9.454 2.268.456 7.411-1.794 15.07-9.454 5.857-5.858 15.355-5.858 21.213 0 5.858 5.857 5.858 15.355 0 21.213-12.277 12.278-23.968 18.32-35.533 18.321z" fill="#55dff5"></path><path d="M272.067 287.067h-192.8c-8.284 0-15-6.716-15-15s6.716-15 15-15h192.8c8.284 0 15 6.716 15 15s-6.716 15-15 15zM223.867 126.4h-144.6c-8.284 0-15-6.716-15-15s6.716-15 15-15h144.6c8.284 0 15 6.716 15 15s-6.716 15-15 15zM272.067 222.8h-192.8c-8.284 0-15-6.716-15-15s6.716-15 15-15h192.8c8.284 0 15 6.716 15 15s-6.716 15-15 15z" fill="#374969"></path><g fill="#1f2746"><path d="M223.867 96.4H207.8v30h16.067c8.284 0 15-6.716 15-15s-6.716-15-15-15zM272.067 192.8H207.8v30h64.267c8.284 0 15-6.716 15-15s-6.716-15-15-15zM272.067 257.067H207.8v30h64.267c8.284 0 15-6.716 15-15s-6.716-15-15-15z" fill="#1f2746"></path></g></g></svg>