<svg id="flat" height="512" viewBox="0 0 64 64" width="512" xmlns="http://www.w3.org/2000/svg"><path d="m51 11.5a.5.5 0 0 1 -.5-.5v-9a.5.5 0 0 1 1 0v9a.5.5 0 0 1 -.5.5z" fill="#ffc800"/><path d="m51 10a2 2 0 0 0 -2 2h4a2 2 0 0 0 -2-2z" fill="#f9b400"/><path d="m57 15-6 2-6-2v-2a1 1 0 0 1 1-1h10a1 1 0 0 1 1 1z" fill="#ffc800"/><path d="m16 9.5a.5.5 0 0 1 -.5-.5v-7a.5.5 0 0 1 1 0v7a.5.5 0 0 1 -.5.5z" fill="#ffc800"/><path d="m23 13-7 2-7-2v-2a1 1 0 0 1 1-1h12a1 1 0 0 1 1 1z" fill="#ffc800"/><path d="m16 8a2 2 0 0 0 -2 2h4a2 2 0 0 0 -2-2z" fill="#f9b400"/><path d="m23 13h-7v20h7c5.021-1.8 8-5.592 8-10s-2.979-8.2-8-10z" fill="#ff7e8a"/><path d="m16 43.5a.5.5 0 0 1 -.5-.5v-8a.5.5 0 0 1 1 0v8a.5.5 0 0 1 -.5.5z" fill="#ffc800"/><path d="m12 39.5a.5.5 0 0 1 -.5-.5v-4a.5.5 0 0 1 1 0v4a.5.5 0 0 1 -.5.5z" fill="#f9b400"/><path d="m10 39.5a.5.5 0 0 1 -.5-.5v-4a.5.5 0 0 1 1 0v4a.5.5 0 0 1 -.5.5z" fill="#f9b400"/><path d="m14 39.5a.5.5 0 0 1 -.5-.5v-4a.5.5 0 0 1 1 0v4a.5.5 0 0 1 -.5.5z" fill="#ffc800"/><path d="m18 39.5a.5.5 0 0 1 -.5-.5v-4a.5.5 0 0 1 1 0v4a.5.5 0 0 1 -.5.5z" fill="#ffc800"/><path d="m20 39.5a.5.5 0 0 1 -.5-.5v-4a.5.5 0 0 1 1 0v4a.5.5 0 0 1 -.5.5z" fill="#ffc800"/><path d="m22 39.5a.5.5 0 0 1 -.5-.5v-4a.5.5 0 0 1 1 0v4a.5.5 0 0 1 -.5.5z" fill="#ffc800"/><path d="m9 33h14a0 0 0 0 1 0 0v2a1 1 0 0 1 -1 1h-12a1 1 0 0 1 -1-1v-2a0 0 0 0 1 0 0z" fill="#ffc800"/><path d="m9 33h14v1.5h-14z" fill="#f9b400"/><path d="m9 13c-5.021 1.8-8 5.593-8 10s2.979 8.2 8 10h7v-20z" fill="#ff6976"/><path d="m29.5 23c0-4.407-2.979-8.2-8-10h1.5c5.021 1.8 8 5.593 8 10s-2.979 8.2-8 10h-1.5c5.021-1.8 8-5.592 8-10z" fill="#ff6976"/><path d="m19.036 13h-3.036v20h3.036c2.343-1.8 3.964-5.592 3.964-10s-1.621-8.2-3.964-10z" fill="#ff6976"/><path d="m12.964 13c-2.343 1.8-3.964 5.593-3.964 10s1.621 8.2 3.964 10h3.036v-20z" fill="#ff7e8a"/><g fill="#f9b400"><path d="m51 54.5a.5.5 0 0 1 -.5-.5v-7a.5.5 0 0 1 1 0v7a.5.5 0 0 1 -.5.5z"/><path d="m47 51.5a.5.5 0 0 1 -.5-.5v-4a.5.5 0 0 1 1 0v4a.5.5 0 0 1 -.5.5z"/><path d="m49 51.5a.5.5 0 0 1 -.5-.5v-4a.5.5 0 0 1 1 0v4a.5.5 0 0 1 -.5.5z"/><path d="m53 51.5a.5.5 0 0 1 -.5-.5v-4a.5.5 0 0 1 1 0v4a.5.5 0 0 1 -.5.5z"/><path d="m55 51.5a.5.5 0 0 1 -.5-.5v-4a.5.5 0 0 1 1 0v4a.5.5 0 0 1 -.5.5z"/><path d="m27 62.5a.5.5 0 0 1 -.5-.5v-6a.5.5 0 0 1 1 0v6a.5.5 0 0 1 -.5.5z"/><path d="m23 60.5a.5.5 0 0 1 -.5-.5v-4a.5.5 0 0 1 1 0v4a.5.5 0 0 1 -.5.5z"/><path d="m25 60.5a.5.5 0 0 1 -.5-.5v-4a.5.5 0 0 1 1 0v4a.5.5 0 0 1 -.5.5z"/><path d="m29 60.5a.5.5 0 0 1 -.5-.5v-4a.5.5 0 0 1 1 0v4a.5.5 0 0 1 -.5.5z"/><path d="m31 60.5a.5.5 0 0 1 -.5-.5v-4a.5.5 0 0 1 1 0v4a.5.5 0 0 1 -.5.5z"/></g><path d="m45 45h12a0 0 0 0 1 0 0v2a1 1 0 0 1 -1 1h-10a1 1 0 0 1 -1-1v-2a0 0 0 0 1 0 0z" fill="#ffc800"/><rect fill="#ffde66" height="30" rx="6" width="24" x="39" y="15"/><path d="m61.5 19.5v18a6 6 0 0 1 -6 6h-12a5.971 5.971 0 0 1 -3.423-1.076 5.99 5.99 0 0 0 4.923 2.576h12a6 6 0 0 0 6-6v-18a5.991 5.991 0 0 0 -2.577-4.924 5.971 5.971 0 0 1 1.077 3.424z" fill="#ffd846"/><circle cx="51" cy="54.5" fill="#ffc800" r="1.5"/><path d="m20 54h14a0 0 0 0 1 0 0v2a1 1 0 0 1 -1 1h-12a1 1 0 0 1 -1-1v-2a0 0 0 0 1 0 0z" fill="#ffc800"/><path d="m34 31-7 1-7-1v-2a1 1 0 0 1 1-1h12a1 1 0 0 1 1 1z" fill="#ffc800"/><rect fill="#ff1e32" height="23" rx="6" width="30" x="12" y="31"/><path d="m40.5 35.5v11a6 6 0 0 1 -6 6h-18a5.975 5.975 0 0 1 -3.424-1.076 5.99 5.99 0 0 0 4.924 2.576h18a6 6 0 0 0 6-6v-11a5.99 5.99 0 0 0 -2.576-4.924 5.975 5.975 0 0 1 1.076 3.424z" fill="#f0000a"/><path d="m27 27.5a.5.5 0 0 1 -.5-.5v-25a.5.5 0 0 1 1 0v25a.5.5 0 0 1 -.5.5z" fill="#ffc800"/><path d="m55.707 30 .647-.646a1.915 1.915 0 0 0 -2.708-2.708l-.646.647-1.293-1.293.647-.646a1.915 1.915 0 1 0 -2.708 0l.647.646-1.293 1.293-.646-.647a1.915 1.915 0 0 0 -2.708 2.708l.647.646-.647.646a1.915 1.915 0 0 0 2.708 2.708l.646-.647 1.293 1.293-.647.646a1.915 1.915 0 1 0 2.708 0l-.647-.646 1.293-1.293.646.647a1.915 1.915 0 0 0 2.708-2.708zm-1.353-2.646a.914.914 0 0 1 1.292 1.292l-.646.647-1.293-1.293zm-4-4a.914.914 0 0 1 1.292 1.292l-.646.647-.646-.647a.913.913 0 0 1 0-1.292zm.646 3.353 1.293 1.293-1.293 1.293-1.293-1.293zm-4.646.647a.913.913 0 0 1 1.292 0l.647.646-1.293 1.293-.646-.647a.913.913 0 0 1 0-1.292zm1.292 5.292a.914.914 0 0 1 -1.292-1.292l.646-.647 1.293 1.293zm.061-2.646 1.293-1.293 1.293 1.293-1.293 1.293zm3.939 6.646a.914.914 0 0 1 -1.292-1.292l.646-.647.646.647a.913.913 0 0 1 0 1.292zm-.646-3.353-1.293-1.293 1.293-1.293 1.293 1.293zm2-2-1.293-1.293 1.293-1.293 1.293 1.293zm2.646 1.353a.913.913 0 0 1 -1.292 0l-.647-.646 1.293-1.293.646.647a.913.913 0 0 1 0 1.292z" fill="#ff1e32"/><path d="m23.646 36.354a.5.5 0 0 0 .708-.708l-1-1a.5.5 0 0 0 -.708.708z" fill="#ffc800"/><path d="m23.641 41 2.15-2.687a.5.5 0 0 0 -.391-.813h-4.8a.5.5 0 0 0 0 1h3.759l-4.75 5.938a.5.5 0 0 0 .782.625l2.109-2.637v6.574a.5.5 0 0 0 1 0v-6.574l1.509 1.887a.5.5 0 0 0 .782-.625z" fill="#ffc800"/><path d="m29 36.5h4a.5.5 0 0 0 0-1h-4a.5.5 0 0 0 0 1z" fill="#ffc800"/><path d="m29 42h4a.5.5 0 0 0 .5-.5v-3a.5.5 0 0 0 -.5-.5h-4a.5.5 0 0 0 -.5.5v3a.5.5 0 0 0 .5.5zm.5-3h3v2h-3z" fill="#ffc800"/><path d="m34 43.5h-6a.5.5 0 0 0 -.5.5v5a.5.5 0 0 0 .5.5h6a.5.5 0 0 0 .5-.5v-5a.5.5 0 0 0 -.5-.5zm-.5 2.5h-2v-1.5h2zm-3-1.5v1.5h-2v-1.5zm-2 2.5h2v1.5h-2zm3 1.5v-1.5h2v1.5z" fill="#ffc800"/><path d="m27 26a2 2 0 0 0 -2 2h4a2 2 0 0 0 -2-2z" fill="#f9b400"/><path d="m53.848 57.443a3.4 3.4 0 0 0 -2.839-1.443h-.009a2.1 2.1 0 0 0 -2.077 1.745 8.224 8.224 0 0 1 -2.423 4.255h8.25a6.283 6.283 0 0 0 -.902-4.557z" fill="#ffde66"/><path d="m52.142 57.443c-.225-.932-.618-1.443-1.021-1.443-.366 0-.7.754-.747 1.745a15.723 15.723 0 0 1 -.874 4.255h2.966a16.217 16.217 0 0 0 -.324-4.557z" fill="#ffc800"/><path d="m20 54h14v1.5h-14z" fill="#f9b400"/><path d="m45 45h12v1.5h-12z" fill="#f9b400"/><path d="m45 14h12v1h-12z" fill="#f9b400"/><path d="m20 30h14v1h-14z" fill="#f9b400"/><path d="m9 12h14v1h-14z" fill="#f9b400"/></svg>