<svg viewBox="0 0 512 512" xmlns="http://www.w3.org/2000/svg"><g><path d="m77.703 413.082-73.31 73.312c-5.858 5.857-5.858 15.355 0 21.213C7.322 510.535 11.16 512 15 512s7.678-1.465 10.606-4.394l73.311-73.312c5.858-5.857 5.858-15.355 0-21.213-5.858-5.856-15.356-5.856-21.214.001zM507.605 4.394c-5.857-5.858-15.355-5.858-21.213 0L413.08 77.706c-5.858 5.858-5.858 15.355 0 21.213 2.929 2.929 6.768 4.394 10.606 4.394s7.678-1.464 10.606-4.394l73.312-73.312c5.861-5.858 5.861-15.355.001-21.213z" fill="#365e94"></path><path d="M232.19 214.551c-5.533-5.534-14.506-5.534-20.039 0l-41.892 41.893c-5.534 5.533-5.534 14.506 0 20.039a14.124 14.124 0 0 0 10.019 4.15c3.626 0 7.253-1.384 10.019-4.15l41.892-41.893c5.536-5.534 5.536-14.506.001-20.039zM297.448 279.809c-5.533-5.533-14.506-5.533-20.039 0l-41.892 41.892c-5.534 5.533-5.534 14.506 0 20.039a14.124 14.124 0 0 0 10.019 4.15c3.626 0 7.253-1.384 10.019-4.15l41.892-41.892c5.535-5.533 5.535-14.506.001-20.039z" fill="#ffbd52"></path><path d="M154.794 220.94c-5.533-5.534-14.506-5.534-20.039 0l-56.36 56.36c-41.894 41.893-41.894 110.059 0 151.952l4.352 4.352c20.947 20.947 48.461 31.42 75.976 31.42s55.03-10.473 75.976-31.42l56.36-56.36c5.534-5.533 5.534-14.506 0-20.039L154.794 220.94z" fill="#9eacba"></path><path d="M154.794 220.94c-5.533-5.534-14.506-5.534-20.039 0l-56.36 56.36c-41.894 41.893-41.894 110.059 0 151.952l2.176 2.176 142.355-142.355-68.132-68.133z" fill="#bdcfdf"></path><path d="m433.604 82.748-4.352-4.352c-20.293-20.294-47.276-31.471-75.976-31.471S297.594 58.101 277.3 78.396l-56.36 56.36c-5.534 5.534-5.534 14.505 0 20.039L357.206 291.06a14.165 14.165 0 0 0 20.038 0l56.36-56.36c20.294-20.294 31.47-47.276 31.47-75.976.001-28.7-11.176-55.682-31.47-75.976z" fill="#9eacba"></path><path d="m431.428 80.572-2.176-2.176c-20.293-20.294-47.276-31.471-75.976-31.471S297.594 58.101 277.3 78.396l-56.36 56.36c-5.534 5.534-5.534 14.505 0 20.039l68.133 68.132L431.428 80.572z" fill="#bdcfdf"></path><path d="m370.723 200.067-58.791-58.791a9.447 9.447 0 0 0-13.36 13.36l58.791 58.791c1.845 1.845 4.262 2.767 6.68 2.767s4.835-.922 6.68-2.767c3.688-3.689 3.688-9.671 0-13.36zM156.018 297.189a9.447 9.447 0 0 0-13.36 13.36l58.792 58.792c1.845 1.844 4.262 2.767 6.68 2.767s4.835-.922 6.68-2.767a9.447 9.447 0 0 0 0-13.36l-58.792-58.792z" fill="#eff4f4"></path></g></svg>