<svg viewBox="0 0 512 512" xmlns="http://www.w3.org/2000/svg"><g><path d="M260.34 86.78a8.678 8.678 0 0 1-8.678-8.678V8.678A8.678 8.678 0 0 1 260.34 0a8.678 8.678 0 0 1 8.678 8.678v69.424a8.678 8.678 0 0 1-8.678 8.678zM26.035 381.999a8.68 8.68 0 0 1-8.678-8.678V338.61c0-4.793 3.885-8.678 8.678-8.678s8.678 3.885 8.678 8.678v8.521l36.17-48.589a8.678 8.678 0 0 1 13.924 10.364l-51.809 69.597a8.68 8.68 0 0 1-6.963 3.496zM494.645 382.003a8.679 8.679 0 0 1-6.962-3.496l-51.809-69.597a8.678 8.678 0 0 1 1.789-12.132 8.679 8.679 0 0 1 12.135 1.767l36.17 48.589v-8.521c0-4.793 3.885-8.678 8.678-8.678s8.678 3.885 8.678 8.678v34.712a8.682 8.682 0 0 1-8.679 8.678z" fill="#a5a5a4"></path><path d="M216.95 112.814h-5.965c8.717-20.884 4.102-44.957-11.719-61.138s-39.785-21.334-60.859-13.088-35.177 28.294-35.816 50.915a38.935 38.935 0 0 0-67.05-15.481 38.933 38.933 0 0 0-6.874 39.568c-12.838 3.05-21.354 15.233-19.81 28.337 1.545 13.104 12.661 22.973 25.855 22.954H216.95c14.378 0 26.034-11.656 26.034-26.034s-11.656-26.033-26.034-26.033z" fill="#d1d4d1"></path><path d="m460.194 312.233-.26.174v52.068c-.028 9.574-7.782 17.328-17.356 17.356H78.103c-9.574-.028-17.328-7.782-17.356-17.356v-52.068l-.26-.174L260.34 43.39l199.854 268.843z" fill="#71c285"></path><path d="M260.34 173.559a8.678 8.678 0 0 1-8.678-8.678V95.458a8.678 8.678 0 0 1 8.678-8.678 8.678 8.678 0 0 1 8.678 8.678v69.424a8.677 8.677 0 0 1-8.678 8.677z" fill="#4c8056"></path><path d="M498.984 86.78c-.004 43.133-34.969 78.098-78.102 78.102a77.22 77.22 0 0 1-30.373-6.161c28.926-12.204 47.729-40.546 47.729-71.94s-18.803-59.736-47.729-71.94a77.22 77.22 0 0 1 30.373-6.161c43.133.001 78.099 34.967 78.102 78.1z" fill="#8697cb"></path><path d="M407.865 381.831h-295.05l77.667-137.026 24.472-43.216 45.386-80.097 45.386 80.097 24.472 43.216z" fill="#4c8056"></path><path d="m214.954 201.589-24.472 43.216-77.668 137.025v-60.138a43.35 43.35 0 0 1 12.67-30.633l89.47-89.47zM407.865 321.692v60.138l-77.668-137.025-24.472-43.216 89.47 89.47a43.34 43.34 0 0 1 12.67 30.633z" fill="#4fba6f"></path><path d="M320.984 425.012a76.327 76.327 0 0 0-.046-8.676 82.836 82.836 0 0 0-9.247-35.713 154.598 154.598 0 0 0-23.953-29.913c-10.504-11.121-18.382-30.194-4.782-42.192-.119.105-8.35-2.996-8.98-3.159a41.692 41.692 0 0 0-20.408-.636c-22.221 5.628-27.92 28.196-23.201 47.384a30.442 30.442 0 0 0-29.828 6.357 3.175 3.175 0 0 0 1.583 5.356 80.22 80.22 0 0 1 7.697 2.392 16.011 16.011 0 0 1 11.015 15.834 20.708 20.708 0 0 1-6.513 10.115 45.28 45.28 0 0 0-7.759 11.493 47.282 47.282 0 0 0-4.906 20.894c0 29.128 26.765 52.741 59.78 52.741a63.88 63.88 0 0 0 44.168-17.248 50.68 50.68 0 0 0 15.38-35.029z" fill="#cc4b4c"></path><path d="M190.916 477.288h138.847c9.585 0 17.356 7.771 17.356 17.356S339.348 512 329.763 512H190.916c-9.585 0-17.356-7.771-17.356-17.356s7.771-17.356 17.356-17.356z" fill="#cb8252"></path><path d="m105.874 428.691-10.415 13.887v-26.035a8.678 8.678 0 0 0-8.678-8.678 8.678 8.678 0 0 0-8.678 8.678v26.035l-10.415-13.887a8.677 8.677 0 0 0-13.881 10.415l26.034 34.712c.109.146.291.204.409.342a8.505 8.505 0 0 0 1.987 1.659c.289.224.591.428.907.612a8.148 8.148 0 0 0 7.276 0c.315-.184.618-.388.907-.612a8.505 8.505 0 0 0 1.987-1.659c.118-.138.3-.195.409-.342l26.034-34.712a8.677 8.677 0 1 0-13.883-10.415zM465.141 426.958a8.684 8.684 0 0 0-12.148 1.733l-10.415 13.887v-26.035c0-4.793-3.885-8.678-8.678-8.678s-8.678 3.885-8.678 8.678v26.035l-10.415-13.887a8.677 8.677 0 0 0-13.881 10.415l26.034 34.712c.109.146.291.204.409.342a8.505 8.505 0 0 0 1.987 1.659c.288.224.591.428.907.612a8.148 8.148 0 0 0 7.276 0c.315-.184.618-.388.907-.612a8.505 8.505 0 0 0 1.987-1.659c.118-.138.3-.195.409-.342l26.034-34.712a8.674 8.674 0 0 0-1.735-12.148z" fill="#4c8056"></path><path d="M283.163 473.557a.09.09 0 0 1-.025.062.089.089 0 0 1-.062.025 66.825 66.825 0 0 1-21.608 3.645 49.428 49.428 0 0 1-7.203-.434v-.174c-13.624-6.161-28.203-17.182-28.29-31.848a25.507 25.507 0 0 1 9.372-19.352c4.426-3.818 9.806-6.422 14.145-10.24a25.261 25.261 0 0 0 8.765-13.191 82.87 82.87 0 0 0 .781-17.963c0 .434 2.083 1.388 2.43 1.649a36.025 36.025 0 0 1 14.839 21.001 43.82 43.82 0 0 1 .781 4.86v.087a37.366 37.366 0 0 1-8.331 22.649c-.174.347 3.905 1.996 4.253 2.083 1.581.449 3.216.683 4.86.694a19.168 19.168 0 0 0 9.285-2.343 11.326 11.326 0 0 0 3.558-3.471 17.525 17.525 0 0 0 1.822-4.599s1.822 1.996 1.996 2.256a28.652 28.652 0 0 1 1.996 3.558 40.313 40.313 0 0 1 2.43 6.856 31.673 31.673 0 0 1-15.794 34.19z" fill="#f29c1f"></path></g></svg>