<svg viewBox="0 0 512 512" xmlns="http://www.w3.org/2000/svg"><g><path d="m287.359 100.107-80.107 295.562a11.72 11.72 0 0 1-1.382.087H57.815a10.878 10.878 0 0 1-9.784-6.105l-.098-.196L1.005 288.121c0-.011-.011-.022-.011-.033a10.843 10.843 0 0 1-.109-8.826l84.53-197.3c0-.011.011-.022.011-.033a10.771 10.771 0 0 1 2.427-3.493z" fill="#688d97"></path><path d="m294.295 48.246-6.937 51.862-39.948 21.654L87.852 78.436a10.698 10.698 0 0 1 2.786-1.97l.065-.033 76.248-36.687a10.89 10.89 0 0 1 5.528-1.045l118.616 8.815h.033c1.089.088 2.155.338 3.167.73z" fill="#7da2b0"></path><path d="M366.919 354.792c-.011 0-158.655 40.703-158.687 40.714a14 14 0 0 1-.98.163l40.159-273.907 46.885-73.516a10.843 10.843 0 0 1 2.971 1.774l51.891 43.435a10.96 10.96 0 0 1 3.831 7.107c0 .033.011.076.011.109 0 .044.011.076.011.12v.033l21.723 242.542c.467 5.211-2.82 9.967-7.815 11.426z" fill="#557983"></path><path d="M366.919 354.794c-.01 0-15.453 3.966-36.705 9.416a10.825 10.825 0 0 0 2.977-8.478l-21.726-242.536v-.041c0-.041-.01-.072-.01-.113 0-.031-.01-.082-.01-.113a11.01 11.01 0 0 0-3.832-7.108l-32.626-27.31 19.306-30.267a11.045 11.045 0 0 1 2.977 1.772l51.89 43.443a10.954 10.954 0 0 1 3.832 7.098c0 .041.01.082.01.113 0 .041.01.072.01.124v.031l21.716 242.536c.474 5.221-2.812 9.97-7.809 11.433z" fill="#3f5959"></path><path d="M200.696 444.959a10.872 10.872 0 0 1-8.032-6.301l-10.589-23.878 173.194-53.54 5.192 112.08a8.95 8.95 0 0 1-1.437-.131h-.022z" fill="#688d97"></path><path d="m511.04 413.3-17.032 37.83c-.022.033-.033.076-.054.109a10.872 10.872 0 0 1-8.489 6.214l-123.339 15.791c-.033 0-.076.011-.109.011h-.011a9.142 9.142 0 0 1-1.545.065l-17.544-108.262 149.861-48.314a10.597 10.597 0 0 1 1.752 4.081l17.25 85.857a10.81 10.81 0 0 1-.74 6.618z" fill="#557983"></path><path d="m511.78 406.683-17.25-85.857a10.597 10.597 0 0 0-1.752-4.081l-43.328 13.969 10.008 7.651 16.145 76.416-25.634 45.143a5.145 5.145 0 0 1-3.821 2.563l39.318-5.034a10.872 10.872 0 0 0 8.489-6.214c.022-.033.033-.076.054-.109l17.032-37.83a10.815 10.815 0 0 0 .739-6.617z" fill="#3f5959"></path><path d="m492.778 316.745-143.897 93.367-166.806 4.669-10.002-22.539a10.872 10.872 0 0 1 2.231-12.08l53.458-53.806 17.369-17.478.044-.044a10.97 10.97 0 0 1 5.398-2.927c.033-.011.076-.011.109-.022l166.208-33.879c.076-.011.152-.033.228-.043a10.85 10.85 0 0 1 7.651 1.447c.011 0 .033.011.044.022l64.798 40.3a10.57 10.57 0 0 1 3.167 3.013z" fill="#3f5959"></path><path d="m343.579 273.213 3.006 28.917-7.162 31.105a14.77 14.77 0 0 1-4.623-1.4l-25.126-12.57a14.574 14.574 0 0 1-8.05-13.037l2.297-71.838z" fill="#7da2b0"></path><path d="m433.928 230.258 3.767 71.055c0 6.868-4.812 12.818-11.535 14.262l-81.794 17.47c-1.633.35-3.31.423-4.944.19l4.156-60.022z" fill="#557983"></path><path d="m304.575 230.305 12.848-41.412a14.582 14.582 0 0 1 16.25-10.075l79.797 12.871a14.583 14.583 0 0 1 11.521 9.811l8.207 24.775c2.495 7.532-1.49 15.677-8.968 18.329l-80.65 28.606-34.156-27.171a14.585 14.585 0 0 1-4.849-15.734z" fill="#688d97"></path><path d="M127.349 160.183h-7.288a7.725 7.725 0 0 1-7.726-7.726 7.725 7.725 0 0 1 7.726-7.726h7.288c4.268 0 7.726 3.459 7.726 7.726s-3.458 7.726-7.726 7.726zM59.59 291.539h-7.288a7.726 7.726 0 1 1 0-15.452h7.288a7.726 7.726 0 1 1 0 15.452zM138.81 347.501h-7.288a7.725 7.725 0 0 1-7.726-7.726 7.725 7.725 0 0 1 7.726-7.726h7.288a7.726 7.726 0 1 1 0 15.452zM378.421 223.441h-7.288a7.725 7.725 0 0 1-7.726-7.726 7.725 7.725 0 0 1 7.726-7.726h7.288a7.726 7.726 0 1 1 0 15.452zM282.274 362.609h-7.288a7.726 7.726 0 1 1 0-15.452h7.288a7.726 7.726 0 1 1 0 15.452zM317.831 383.129h-7.289a7.726 7.726 0 1 1 0-15.452h7.289c4.268 0 7.726 3.459 7.726 7.726s-3.458 7.726-7.726 7.726zM154.105 280.935h-7.288a7.726 7.726 0 1 1 0-15.452h7.288a7.726 7.726 0 1 1 0 15.452zM174.783 312.709h-7.288a7.725 7.725 0 0 1-7.726-7.726 7.725 7.725 0 0 1 7.726-7.726h7.288a7.726 7.726 0 1 1 0 15.452z" fill="#557983"></path></g></svg>