<svg viewBox="0 0 512 512" xmlns="http://www.w3.org/2000/svg"><g><path d="M411.845 272c41.253.082 75.389-33.334 76.142-74.581a75.806 75.806 0 0 0-25.548-58.249 64 64 0 1 0-89.609-89.609 75.806 75.806 0 0 0-58.249-25.548c-41.247.753-74.663 34.887-74.581 76.142a76.011 76.011 0 0 0 64.825 75.02L24 456l32 32 280.825-280.825A76.011 76.011 0 0 0 411.845 272zM424 112a24 24 0 1 1 24-24 24 24 0 0 1-24 24zm-108 24a36 36 0 1 1 36-36 36 36 0 0 1-36 36zm96 96a36 36 0 1 1 36-36 36 36 0 0 1-36 36z" fill="#fcac1e"></path><rect fill="#ffba40" rx="22.627" transform="rotate(-45 271.976 240.068)"></rect><path d="m176 368 48 48-24 24-24-24-24 24 24 24-24 24-48-48z" fill="#f98500"></path></g></svg>