<svg viewBox="0 0 512 512" xmlns="http://www.w3.org/2000/svg"><g><path d="M373.665 333.938h126.796a3.928 3.928 0 0 0 3.928-3.928v-97.242c0-.895-.306-1.763-.866-2.461l-36.916-45.923a3.93 3.93 0 0 0-3.061-1.467h-85.952a3.928 3.928 0 0 0-3.928 3.928v147.093z" fill="#61a2f9"></path><path d="M463.545 182.917h-21.792l38.962 48.468v102.553h19.747a3.928 3.928 0 0 0 3.928-3.928v-97.242c0-.895-.306-1.763-.866-2.461l-36.916-45.923a3.933 3.933 0 0 0-3.063-1.467z" fill="#5490f9"></path><path d="M7.258 333.938h366.407V306.48H7.258A7.258 7.258 0 0 0 0 313.738v12.942a7.257 7.257 0 0 0 7.258 7.258z" fill="#eaeaea"></path><path d="M352.172 306.48h21.493v27.458h-21.493z" fill="#dfdfdf"></path><path d="M504.388 232.768v1.238h-71.211a6.65 6.65 0 0 1-6.65-6.65v-18.609a6.65 6.65 0 0 1 6.65-6.65h47.667l22.677 28.211c.562.697.867 1.565.867 2.46z" fill="#b1e4f9"></path><path d="M480.845 202.097H457.17l23.544 29.288v2.621h23.674v-1.238c0-.895-.306-1.763-.866-2.461z" fill="#90d8f9"></path><path d="M504.388 306.766H491.64a7.611 7.611 0 1 1 0-15.223h12.748c4.204 0 7.611 3.407 7.611 7.612s-3.407 7.611-7.611 7.611z" fill="#f9ef63"></path><circle cx="439.327" cy="336.068" fill="#595959" r="29.588"></circle><path d="M439.328 344.45a7.611 7.611 0 0 1-7.612-7.611v-1.54c0-4.204 3.407-7.612 7.612-7.612s7.611 3.407 7.611 7.612v1.54a7.61 7.61 0 0 1-7.611 7.611z" fill="#eaeaea"></path><circle cx="155.1" cy="336.068" fill="#595959" r="29.588"></circle><path d="M155.1 344.45a7.61 7.61 0 0 1-7.611-7.611v-1.54a7.611 7.611 0 1 1 15.222 0v1.54a7.61 7.61 0 0 1-7.611 7.611z" fill="#eaeaea"></path><circle cx="313.536" cy="336.068" fill="#595959" r="29.588"></circle><path d="M313.536 344.45a7.611 7.611 0 0 1-7.612-7.611v-1.54c0-4.204 3.407-7.612 7.612-7.612s7.611 3.407 7.611 7.612v1.54a7.61 7.61 0 0 1-7.611 7.611z" fill="#eaeaea"></path><circle cx="69.791" cy="336.068" fill="#595959" r="29.588"></circle><path d="M69.792 344.45a7.61 7.61 0 0 1-7.611-7.611v-1.54a7.611 7.611 0 1 1 15.222 0v1.54a7.61 7.61 0 0 1-7.611 7.611z" fill="#eaeaea"></path><path d="M319.516 280.755H7.894A7.894 7.894 0 0 1 0 272.861V154.237a7.894 7.894 0 0 1 7.894-7.894h311.622a7.894 7.894 0 0 1 7.894 7.894v118.624a7.894 7.894 0 0 1-7.894 7.894z" fill="#d82e3d"></path><path d="M308.601 146.343v134.412h10.916a7.894 7.894 0 0 0 7.894-7.894V154.237a7.894 7.894 0 0 0-7.894-7.894z" fill="#c32430"></path><path d="M55.379 280.755h216.652v25.726H55.379zM373.665 272.538h-13.391a8.102 8.102 0 0 1-8.102-8.102v-43.585a8.102 8.102 0 0 1 8.102-8.102h13.391z" fill="#aaaaaa"></path><g fill="#a71f29"><path d="M284.077 260.802a7.611 7.611 0 0 1-7.612-7.611v-79.283c0-4.204 3.407-7.611 7.612-7.611s7.611 3.407 7.611 7.611v79.283a7.61 7.61 0 0 1-7.611 7.611zM235.928 260.802a7.61 7.61 0 0 1-7.611-7.611v-79.283c0-4.204 3.407-7.611 7.611-7.611s7.611 3.407 7.611 7.611v79.283a7.61 7.61 0 0 1-7.611 7.611zM187.78 260.802a7.61 7.61 0 0 1-7.611-7.611v-79.283c0-4.204 3.407-7.611 7.611-7.611s7.611 3.407 7.611 7.611v79.283a7.61 7.61 0 0 1-7.611 7.611zM139.631 260.802a7.61 7.61 0 0 1-7.611-7.611v-79.283c0-4.204 3.407-7.611 7.611-7.611s7.611 3.407 7.611 7.611v79.283a7.61 7.61 0 0 1-7.611 7.611zM91.482 260.802a7.61 7.61 0 0 1-7.611-7.611v-79.283c0-4.204 3.407-7.611 7.611-7.611s7.612 3.407 7.612 7.611v79.283a7.611 7.611 0 0 1-7.612 7.611zM43.334 260.802a7.61 7.61 0 0 1-7.611-7.611v-79.283c0-4.204 3.407-7.611 7.611-7.611s7.611 3.407 7.611 7.611v79.283a7.61 7.61 0 0 1-7.611 7.611z" fill="#a71f29"></path></g><path d="M252.972 354.938h-39.806a7.17 7.17 0 0 1-7.17-7.17v-13.829h54.147v13.829a7.17 7.17 0 0 1-7.171 7.17z" fill="#aaaaaa"></path></g></svg>