<svg fill-rule="evenodd" viewBox="0 0 96 96" xmlns="http://www.w3.org/2000/svg"><g><circle cx="47.148" cy="48.731" fill="#f3b725" r="29.761"></circle><g fill="#f6c95c"><path d="M45.648 2.628v8.223a1.5 1.5 0 0 0 3 0V2.628a1.501 1.501 0 0 0-3 0zM13.488 17.192l5.814 5.815a1.502 1.502 0 0 0 2.122 0 1.502 1.502 0 0 0 0-2.122l-5.815-5.814a1.5 1.5 0 1 0-2.121 2.121zM78.686 15.071l-5.814 5.814a1.5 1.5 0 0 0 2.121 2.122l5.815-5.815a1.501 1.501 0 0 0-2.122-2.121zM85.027 50.231h8.223a1.501 1.501 0 0 0 0-3h-8.223a1.5 1.5 0 0 0 0 3z" fill="#f6c95c"></path></g><path d="M67.451 40.098a5.912 5.912 0 0 1-2.57-4.879 5.92 5.92 0 0 1 11.018-3.006 3.512 3.512 0 0 1 5.436 2.83 3.512 3.512 0 0 1 4.318 5.055z" fill="#caceec"></path><path d="M53.827 79.764a8.11 8.11 0 0 1-3.522-6.689 8.114 8.114 0 0 1 15.104-4.122 4.815 4.815 0 0 1 7.453 3.88 4.816 4.816 0 0 1 5.92 6.931zM6.012 54.319a10.964 10.964 0 0 1-4.762-9.044c0-6.055 4.916-10.972 10.972-10.972 4.021 0 7.54 2.168 9.45 5.399a6.472 6.472 0 0 1 3.573-1.069 6.512 6.512 0 0 1 6.505 6.316 6.51 6.51 0 0 1 8.004 9.37z" fill="#ebebeb"></path><path d="M35.369 88.068h38.563a1.5 1.5 0 0 0 0-3H35.369a1.5 1.5 0 0 0 0 3zm-15.454 0h9.526a1.5 1.5 0 0 0 0-3h-9.526a1.501 1.501 0 0 0 0 3zM62.754 94.872h23.392a1.5 1.5 0 0 0 0-3H62.754a1.5 1.5 0 0 0 0 3zm-51.321 0h45.336a1.5 1.5 0 0 0 0-3H11.433a1.5 1.5 0 0 0 0 3z" fill="#caceec"></path></g></svg>