<svg clip-rule="evenodd" fill-rule="evenodd" height="512" image-rendering="optimizeQuality" shape-rendering="geometricPrecision" text-rendering="geometricPrecision" viewBox="0 0 173.397 173.397" width="512" xmlns="http://www.w3.org/2000/svg"><g id="Layer_x0020_1"><g id="_356463104"><path id="_356462552" d="m111.714 16.9962c.0001-3.387-2.7623-6.1495-6.1493-6.1493h-86.2089l61.5722 134.339h24.6367c3.3868.0001 6.1493-2.7624 6.1493-6.1493 0-40.6802 0-81.3604 0-122.041z" fill="#ffd180"/><path id="_356462768" d="m70.8691 29.8257-51.5136-18.9788v134.339l45.022 16.587c8.0663 2.9717 16.5502-2.944 16.5502-11.5403v-105.982c0-6.5644-3.8988-12.1559-10.0586-14.4253z" fill="#fb913e"/><path id="_356462720" d="m152.775 75.817-21.4915-12.4082c-1.6987-.9809-3.8097.2382-3.8097 2.1996v2.5423c0 1.3989-1.1411 2.54-2.54 2.54h-30.1137c-1.3989 0-2.54 1.1409-2.54 2.5398v9.5715c.0002 1.3989 1.1411 2.54 2.54 2.54h30.1137c1.3989 0 2.54 1.1409 2.54 2.5398v2.5426c0 1.9614 2.111 3.1805 3.8097 2.1996l21.4915-12.4078c1.6888-.9751 1.6892-3.4243 0-4.3992z" fill="#fd003a"/><path id="_356462480" d="m61.6911 73.3846h.0002c2.6776 0 4.8682 2.1906 4.8682 4.8682v16.9106c0 2.6777-2.1906 4.8683-4.8682 4.8683h-.0002c-2.6775 0-4.8681-2.1906-4.8681-4.8683v-16.9106c0-2.6776 2.1906-4.8682 4.8681-4.8682z" fill="#a65c38"/></g></g></svg>