<svg viewBox="0 0 512 512" xmlns="http://www.w3.org/2000/svg"><g><g clip-rule="evenodd" fill-rule="evenodd"><path d="M80.226 78.212a7.981 7.981 0 0 1-8 13.812L44.154 75.817a7.981 7.981 0 0 1 8-13.812zm359.517 13.813a7.966 7.966 0 0 1-7.937-13.813l28.073-16.208a7.966 7.966 0 0 1 7.937 13.812zm23.842 104.886a8 8 0 0 1 0-16H496a8 8 0 0 1 0 16zm-31.78 102.699a7.967 7.967 0 0 1 7.937-13.813l28.073 16.208a7.967 7.967 0 0 1-7.937 13.813zM72.257 285.796a7.966 7.966 0 0 1 7.937 13.813l-28.073 16.208a7.966 7.966 0 0 1-7.937-13.813zM48.415 180.911a8 8 0 0 1 0 16H16a8 8 0 0 1 0-16z" fill="#ffe177"></path><path d="M219.128 424.288h73.745v37.505c0 12.3-10.063 22.362-22.362 22.362h-29.022c-12.298 0-22.362-10.062-22.362-22.362v-37.505z" fill="#b1b1b5"></path><path d="M196.194 370.283h119.613v46.783c0 12.301-10.062 22.362-22.361 22.362h-74.889c-12.302 0-22.364-10.061-22.364-22.362v-46.783z" fill="#d1d1d6"></path><path d="M289.758 363.495v53.571c0 12.233-9.993 22.362-22.36 22.362h26.048c12.298 0 22.361-10.061 22.361-22.362v-53.584c-8.509.28-17.487.013-26.049.013z" fill="#b1b1b5"></path><path d="M173.831 327.641h164.338v44.7c0 12.3-10.062 22.362-22.36 22.362H196.193c-12.298 0-22.362-10.062-22.362-22.362z" fill="#eceff1"></path><path d="M312.121 349.976v22.365c0 12.3-10.062 22.362-22.36 22.362h26.048c.249 0 .497-.004.745-.012 11.957-.396 21.615-10.299 21.615-22.349l.001-22.365h-26.049z" fill="#d1d1d6"></path><path d="M256 27.845c76.002 0 137.614 61.612 137.614 137.614 0 76.429-48.823 71.861-55.445 184.517H173.831c-6.621-112.656-55.445-108.088-55.445-184.517 0-76.002 61.612-137.614 137.614-137.614z" fill="#ffe177"></path><path d="M242.976 28.453c69.894 6.561 124.59 65.396 124.59 137.006 0 70.991-42.124 72.101-53.423 162.182-.866 6.899-1.55 14.32-2.021 22.335h26.048c6.621-112.656 55.445-108.088 55.445-184.517 0-76.002-61.612-137.614-137.614-137.614-4.393 0-8.738.206-13.025.608z" fill="#ffd064"></path><path d="M240.753 165.459h-67.008c-14.007 0-25.431 11.424-25.431 25.431v.084c0 11.247 7.893 20.739 18.412 23.213.336 12.863 10.965 23.216 23.833 23.216 1.944 0 3.835-.238 5.647-.682 2.369 10.087 11.189 17.76 21.824 18.379 3.065 9.628 12.079 16.602 22.723 16.602 13.113 0 23.842-10.729 23.842-23.842v-58.559c0-13.168-10.674-23.842-23.842-23.842z" fill="#fe646f"></path><g fill="#fd4755"><path d="M240.753 263.701a8.003 8.003 0 0 1 7.886 6.651c-6.364 2.118-12.538 1.735-18.524-1.15-5.908-3.049-9.936-7.75-12.085-14.103-3.201-.221-6.109-.963-8.726-2.226a31.747 31.747 0 0 1 1.664-16.236 31.86 31.86 0 0 1 5.878-9.801 7.993 7.993 0 0 1 12 10.562 15.843 15.843 0 0 0-2.941 4.863c-.643 1.704-.994 3.589-.994 5.597 0 4.375 1.773 8.336 4.639 11.203a15.794 15.794 0 0 0 11.203 4.64zM231.185 200.351a7.98 7.98 0 0 1 11 11.562 32.038 32.038 0 0 1-14.13 7.789 31.627 31.627 0 0 1-16.015-.121 31.708 31.708 0 0 1-15.169-9.174 31.958 31.958 0 0 1-7.909-15.923 7.97 7.97 0 0 1 15.688-2.812c.535 2.947 1.923 5.699 3.971 7.923a15.762 15.762 0 0 0 7.543 4.549 15.862 15.862 0 0 0 15.021-3.793zM170.167 190.413a7.987 7.987 0 0 1 10.25 12.25 16.034 16.034 0 0 0-4.138 5.277 15.645 15.645 0 0 0-1.584 6.434 7.973 7.973 0 0 1-6.424 7.633c-.948-2.469-1.463-5.076-1.545-7.821-2.284-.459-4.86-1.578-7.729-3.359a31.406 31.406 0 0 1 2.907-9.825 32.114 32.114 0 0 1 8.263-10.589zM240.753 173.459c-3.015 0-5.809.817-8.171 2.236a15.92 15.92 0 0 0-5.829 6.174 7.997 7.997 0 0 1-14.124-7.499 31.82 31.82 0 0 1 7.051-8.91h21.073c13.867 1.138 21.814 8.666 23.842 22.586v9.075l.171.179-.171.002a8 8 0 0 1-8-8c0-4.375-1.773-8.336-4.64-11.203a15.79 15.79 0 0 0-11.202-4.64z" fill="#fd4755"></path></g><path d="M240.706 165.579h-67.008c-14.007 0-25.431-11.424-25.431-25.431v-.084c0-11.247 7.893-20.739 18.412-23.213.336-12.863 10.965-23.216 23.833-23.216 1.944 0 3.835.238 5.647.682 2.369-10.087 11.189-17.76 21.824-18.379 3.065-9.628 12.08-16.602 22.722-16.602 13.113 0 23.842 10.729 23.842 23.842v58.559c.001 13.168-10.674 23.842-23.841 23.842z" fill="#fe646f"></path><g fill="#fd4755"><path d="M240.706 67.336a8.002 8.002 0 0 0 7.886-6.651c-6.364-2.118-12.538-1.735-18.524 1.15-5.908 3.049-9.936 7.75-12.085 14.103-3.201.221-6.109.963-8.726 2.226a31.747 31.747 0 0 0 1.664 16.236 31.843 31.843 0 0 0 5.878 9.8 7.993 7.993 0 0 0 12-10.562 15.843 15.843 0 0 1-2.941-4.863c-.643-1.704-.994-3.589-.994-5.597 0-4.375 1.773-8.336 4.639-11.202a15.796 15.796 0 0 1 11.203-4.64zM231.138 130.687a7.98 7.98 0 0 0 11-11.562 32.038 32.038 0 0 0-14.13-7.789 31.642 31.642 0 0 0-16.016.12 31.715 31.715 0 0 0-15.169 9.174 31.958 31.958 0 0 0-7.909 15.923 7.97 7.97 0 0 0 15.688 2.813c.535-2.947 1.923-5.699 3.971-7.923a15.754 15.754 0 0 1 7.543-4.549 15.835 15.835 0 0 1 8.016-.058 15.86 15.86 0 0 1 7.006 3.851zM170.12 140.625a7.986 7.986 0 0 0 10.25-12.25 16.034 16.034 0 0 1-4.138-5.277 15.657 15.657 0 0 1-1.584-6.434 7.973 7.973 0 0 0-6.424-7.633c-.948 2.469-1.463 5.076-1.545 7.821-2.284.459-4.86 1.578-7.73 3.359a31.414 31.414 0 0 0 2.907 9.825 32.117 32.117 0 0 0 8.264 10.589zM240.706 157.579c-3.015 0-5.809-.817-8.171-2.236a15.92 15.92 0 0 1-5.829-6.174 7.996 7.996 0 0 0-14.125 7.5 31.82 31.82 0 0 0 7.051 8.91h21.073c13.867-1.138 21.814-8.666 23.842-22.586v-9.074l.171-.18-.171-.002a8 8 0 0 0-8 8c0 4.375-1.773 8.336-4.639 11.202s-6.827 4.64-11.202 4.64z" fill="#fd4755"></path></g><path d="M293.786 92.643a74.51 74.51 0 0 1 21.811 9.042l14.173-6.295 16.705 16.705-6.293 14.169a74.478 74.478 0 0 1 9.044 21.818l14.46 5.566v23.623l-14.464 5.567a74.504 74.504 0 0 1-9.042 21.812l6.295 14.173-16.705 16.705-14.169-6.293a74.472 74.472 0 0 1-21.817 9.044l-5.565 14.459h-23.624V78.179h23.623z" fill="#a79ba7"></path><path d="M293.786 92.643c6.523 1.231 16.97 5.829 21.811 9.042l-5.621 2.496c-6.745-4.153-18.485-9.705-26.19-11.539l-5.567-14.464h10zm29.059 5.823 6.925-3.076 16.705 16.705-6.293 14.169a74.478 74.478 0 0 1 9.044 21.818l14.46 5.566v23.623l-14.464 5.567a74.504 74.504 0 0 1-9.042 21.812l6.295 14.173-16.705 16.705-6.925-3.076 13.629-13.63-6.295-14.173a74.492 74.492 0 0 0 9.042-21.812l14.464-5.567v-23.623l-14.46-5.566a74.49 74.49 0 0 0-9.044-21.818l6.293-14.169zm-7.243 130.768c-4.814 3.247-15.216 7.864-21.817 9.044l-5.565 14.459h-10l5.566-14.459c7.708-1.834 19.45-7.386 26.196-11.541z" fill="#837683"></path><path d="M276.406 124.26c-4.105 0-8.069.603-11.811 1.721v78.957a41.196 41.196 0 0 0 11.811 1.721c22.756 0 41.2-18.444 41.2-41.199 0-22.757-18.444-41.2-41.2-41.2z" fill="#eceff1"></path><path d="M276.406 124.26c-1.695 0-3.365.103-5.006.302 20.4 2.465 36.206 19.832 36.206 40.897S291.8 203.891 271.4 206.356c1.641.2 3.311.302 5.006.302 22.756 0 41.2-18.444 41.2-41.199 0-22.756-18.444-41.199-41.2-41.199z" fill="#d1d1d6"></path></g></g></svg>