<svg fill-rule="evenodd" viewBox="0 0 1707 1707" xmlns="http://www.w3.org/2000/svg"><g><path d="M853 145c-306 0-556 249-556 556 0 306 250 556 556 556 307 0 556-249 556-556s-249-556-556-556z" fill="#00ccff"></path><path d="M853 244c-251 0-456 205-456 457s205 457 456 457c252 0 457-205 457-457s-205-457-457-457z" fill="#ffffff"></path><g fill="#00a6cf"><path d="M853 987c-10 0-18 9-18 19v376c0 10 8 19 18 19 11 0 19-9 19-19v-376c0-11-8-19-19-19zM1535 682h-377c-10 0-18 8-18 19 0 10 8 19 18 19h377c10 0 18-9 18-19 0-11-8-19-18-19zM853 1c-10 0-18 8-18 19v376c0 10 8 19 18 19 11 0 19-9 19-19V20c0-11-8-19-19-19zM548 682H172c-10 0-19 8-19 19 0 10 9 19 19 19h376c11 0 19-9 19-19 0-11-8-19-19-19z" fill="#00a6cf"></path></g><path d="M1048 524c-3 0-5 1-8 2l-187 79-187-79c-7-4-16-2-21 5-6 6-6 15-2 22l194 316c7 11 25 11 32 0l195-316c4-7 3-16-2-22-4-5-9-7-14-7z" fill="#ff3131"></path><path d="m853 605-187-79c-7-4-16-2-21 5-6 6-6 15-2 22l194 316c4 5 10 8 16 8z" fill="#e62c2c"></path><path d="M1138 1057c-73 59-165 96-266 100v-27h19c91 0 176-26 247-73zM835 1127v30c-237-10-428-200-438-437h40c21 211 187 381 398 407zM606 317c-105 84-172 213-172 357v8h-37c6-153 88-287 209-365z" fill="#e6e6e6"></path><path d="M905 1707h-72c-11 0-20-9-20-20s9-20 20-20h72c18 0 33-19 33-42 0-22-15-41-33-41h-51c-40 0-73-36-73-81s33-82 73-82h72c11 0 20 9 20 20s-9 20-20 20h-72c-18 0-33 19-33 42 0 22 15 41 33 41h51c40 0 73 36 73 81s-33 82-73 82z" fill="#ff3131"></path></g></svg>