<svg viewBox="0 0 512 512" xmlns="http://www.w3.org/2000/svg"><g><path d="M113.687 403.306 75.452 437.48l31.418 13.895 20.074-21.548z" fill="#d83131"></path><g fill="#d83131"><path d="M206.739 220.097a9.243 9.243 0 0 0-8.659-5.957h-.008a9.244 9.244 0 0 0-8.645 5.939l-25.634 67.305a7.726 7.726 0 0 0 4.471 9.97c3.982 1.52 8.451-.482 9.97-4.471l4.489-11.786h30.52l4.44 11.764a7.728 7.728 0 0 0 7.229 5 7.726 7.726 0 0 0 7.227-10.457zm-18.131 45.547 9.445-24.798 9.358 24.798zM282.95 282.35h-.044c-5.592.031-11.599.053-16.135.057v-60.54a7.725 7.725 0 0 0-7.726-7.726 7.725 7.725 0 0 0-7.726 7.726v68.209a7.727 7.727 0 0 0 6.427 7.617c.554.094 1.005.171 8.485.171 3.645 0 8.958-.018 16.763-.061a7.727 7.727 0 0 0-.044-15.453zM340.988 282.35h-.044c-5.592.031-11.599.053-16.135.057v-60.54a7.725 7.725 0 0 0-7.726-7.726 7.725 7.725 0 0 0-7.726 7.726v68.209a7.727 7.727 0 0 0 6.427 7.617c.554.094 1.005.171 8.485.171 3.645 0 8.958-.018 16.763-.061a7.727 7.727 0 0 0-.044-15.453z" fill="#d83131"></path></g><path d="M436.548 74.52C391.045 29.249 328.619.973 259.587.024 117.784-1.923.691 112.916.003 254.731c-.289 59.635 19.823 114.555 53.747 158.21l-12.725 12.725c-2.486 2.486-1.067 6.743 2.414 7.241l64.765 9.252c5.632.805 10.459-4.023 9.654-9.654l-9.252-64.765c-.497-3.481-4.755-4.9-7.241-2.414l-7.497 7.497a4.275 4.275 0 0 1-6.538-.593c-22.245-32.218-35.507-71.115-36.141-113.078-1.693-112.208 88.174-205.563 200.369-207.939 57.046-1.208 108.919 20.919 146.755 57.481z" fill="#fe950d"></path><path d="m424.845 84.979 11.703-10.459C391.045 29.249 328.619.973 259.587.024c-4.808-.066-9.584.014-14.331.213 71.202 3.145 134.886 35.208 179.589 84.742z" fill="#fa6f0c"></path><path d="M436.548 74.52a257.368 257.368 0 0 0-34.051-28.459 32.192 32.192 0 0 0-24.259 11.118 32.205 32.205 0 0 0-7.552 25.668l.542 3.797a205.88 205.88 0 0 1 27.085 22.05z" fill="#fa6f0c"></path><path d="M460.52 102.024c-1.287-1.707-1.141-4.094.371-5.606l10.084-10.084c2.486-2.486 1.067-6.743-2.413-7.241l-64.765-9.252c-5.632-.804-10.459 4.023-9.654 9.655l9.252 64.765c.497 3.481 4.755 4.9 7.241 2.414l7.497-7.497a4.274 4.274 0 0 1 6.538.593c22.244 32.217 35.506 71.112 36.141 113.073 1.697 112.207-88.168 205.565-200.363 207.944-57.048 1.21-108.923-20.918-146.76-57.481l4.171 29.198c.805 5.632-4.023 10.459-9.654 9.655l-32.751-4.679c45.503 45.271 107.928 73.547 176.961 74.496C394.218 513.925 511.312 399.085 512 257.271c.28-58.293-18.93-112.082-51.48-155.247z" fill="#d83131"></path><g fill="#c41926"><path d="M460.52 102.024c-1.287-1.707-1.141-4.094.371-5.606l10.084-10.084c2.486-2.486 1.067-6.743-2.413-7.241l-20.134-2.876c3.063.85 4.198 4.772 1.851 7.119l-13.082 13.082c-1.512 1.512-1.658 3.899-.371 5.606 32.549 43.165 51.759 96.954 51.477 155.246-.663 136.658-109.426 248.249-244.225 254.441 2.768.127 5.544.226 8.335.265 141.802 1.948 258.896-112.892 259.584-254.706.283-58.292-18.927-112.081-51.477-155.246zM117.858 432.504c.805 5.632-4.023 10.459-9.654 9.655l-32.751-4.679a257.36 257.36 0 0 0 34.05 28.459 32.192 32.192 0 0 0 24.259-11.118 32.2 32.2 0 0 0 7.552-25.668l-.542-3.797a205.88 205.88 0 0 1-27.085-22.05z" fill="#c41926"></path></g></g></svg>