<svg viewBox="0 0 340 340" xmlns="http://www.w3.org/2000/svg"><g><path d="M253.723 255.347a40.039 40.039 0 0 0-6.54-6.644 11.56 11.56 0 0 0-13.965-.308c-5.393 3.906-12.339 9.537-17.4 18.764l16.351 12.732s0-13.754 20.516-20.976a2.293 2.293 0 0 0 1.038-3.568zM87.315 258.915a2.3 2.3 0 0 1-1.021-3.589 39.9 39.9 0 0 1 6.6-6.68 11.6 11.6 0 0 1 13.952-.208c5.384 3.905 14.416 11.41 17.142 20.245l-16.153 11.208s0-13.754-20.52-20.976z" fill="#dbdbdb"></path><path d="M113.318 253.689a12.72 12.72 0 0 1-3.734 9.934 3.17 3.17 0 0 1-4.653-.062c-2.759-3.012-8.207-7.7-15.208-7.451a2.328 2.328 0 0 1-2.538-1.88c-.32.383-.624.754-.891 1.1a2.3 2.3 0 0 0 1.021 3.589c20.52 7.222 20.516 20.976 20.516 20.976l16.153-11.208c-1.784-5.787-6.27-10.987-10.666-14.998zM252.815 254.23a2.328 2.328 0 0 1-2.538 1.88c-7-.253-12.449 4.439-15.207 7.451a3.171 3.171 0 0 1-4.654.062 12.708 12.708 0 0 1-3.726-10.023 51.285 51.285 0 0 0-10.872 13.555l16.351 12.732s0-13.754 20.516-20.976a2.293 2.293 0 0 0 1.038-3.568 55.954 55.954 0 0 0-.908-1.113z" fill="#a8a8a8"></path><path d="m217.228 261.432 21.988 17.793a11.776 11.776 0 0 1 4.358 9.646l-.636 15.278a21.549 21.549 0 0 1-11.495 18.172l-8.261 4.347zM122.772 261.432l-21.988 17.793a11.776 11.776 0 0 0-4.358 9.646l.636 15.278a21.549 21.549 0 0 0 11.5 18.172l8.261 4.347z" fill="#683630"></path><path d="M218.197 251.655 170 250.149l-48.197 1.506-5.197 78.204h42.848l2.937-22.215h15.218l2.937 22.215h42.848z" fill="#405d7f"></path><path d="M162.391 307.644c-26.668-7.6-24.088-44.237-22.424-56.556l-18.164.567-5.2 78.2h42.848zM177.609 307.644c26.668-7.6 24.088-44.237 22.424-56.556l18.164.567 5.2 78.2h-42.851z" fill="#748baf"></path><path d="m139.967 251.088-18.164.567-1.072 16.126a86.242 86.242 0 0 0 19.469 11.537c-2.011-11.086-1.022-22.39-.233-28.23zM219.269 267.781l-1.069-16.126-18.164-.567c.789 5.84 1.778 17.144-.235 28.23a86.228 86.228 0 0 0 19.468-11.537z" fill="#405d7f"></path><path d="M170 164.982v-.141h-24.242v91.733l48.484.141v-91.733z" fill="#e2c2b9"></path><path d="M194.242 164.982H170v-.141h-24.242v17.853a82.465 82.465 0 0 0 21.521 9.63 10 10 0 0 0 5.442 0 82.465 82.465 0 0 0 21.521-9.63z" fill="#a07d78"></path><path d="M150.732 250.082v16.936l38.536.141v-16.936z" fill="#373d4c"></path><path d="M217.235 189.275s43.924-24.171 53.4 20.794h24.3l-.992-15.469a50.123 50.123 0 0 0-21.322-37.953c-12.768-8.889-30.809-18.763-51.568-22.357l-16.837 10.074c1.046 18.992 3.465 36.305 13.019 44.911z" fill="#e2c2b9"></path><path d="M227.891 169.14a7.05 7.05 0 0 1-7.114-8.338 41.729 41.729 0 0 1 3.187-9.825 38.968 38.968 0 0 0 3.214-9.977 17.538 17.538 0 0 0 .06-5.427 103.04 103.04 0 0 0-6.184-1.286l-14.541 8.7-2.3 1.374q.1 1.845.223 3.666c.008.128.019.253.027.381q.112 1.653.244 3.284c0 .054.01.108.014.162 1.313 15.961 4.231 29.961 12.51 37.418a56.984 56.984 0 0 1 7.58-3.272c13-4.628 38.821-9.166 45.829 24.071h5.666v-.34c-2.087-36.972-32.996-40.931-48.415-40.591z" fill="#a07d78"></path><path d="M185.04 170v103.207a1.184 1.184 0 0 0 1.53 1.136c5.435-1.675 24.03-8.029 34.325-19.354a9.764 9.764 0 0 0 2.5-6.579v-51.465a14.922 14.922 0 0 0-3.705-9.965c-4.3-4.81-10.5-16.325-7.887-41.636z" fill="#ab766a"></path><path d="M270.64 210.069h-5.881a6.86 6.86 0 0 0-6.86 6.86 6.859 6.859 0 0 0 4.468 6.428l2.888 1.075a9.614 9.614 0 0 1 6.17 7.7l1.7 12.335a8.3 8.3 0 0 0 9.9 7.014l.311-.068a17.321 17.321 0 0 0 13.354-18.286l-1.756-23.053z" fill="#ffd0b0"></path><path d="M122.765 189.134s-43.924-24.171-53.4 20.794h-24.3l.992-15.47a50.122 50.122 0 0 1 21.322-37.952c12.768-8.889 30.809-18.763 51.568-22.357l16.837 10.074c-1.046 18.992-3.465 36.305-13.019 44.911z" fill="#e2c2b9"></path><path d="m132.85 142.468-13.9-8.319c-2.225.385-4.412.856-6.572 1.376a17.55 17.55 0 0 0 .052 5.478 37.055 37.055 0 0 0 2.907 9.2 41.424 41.424 0 0 1 3.247 10.72 7.06 7.06 0 0 1-7.036 8.212c-15.574-.249-45.863 4.015-47.928 40.6v.2h5.74c6.841-32.442 31.61-28.9 44.876-24.4a58.278 58.278 0 0 1 8.529 3.608c7-6.308 10.165-17.3 11.77-30.2l.006-.045q.209-1.68.385-3.4l.021-.2q.163-1.628.3-3.286c.011-.127.023-.253.033-.381q.129-1.57.237-3.166c.012-.181.027-.359.039-.54q.123-1.837.225-3.7z" fill="#a07d78"></path><path d="M154.96 169.859v103.207a1.184 1.184 0 0 1-1.53 1.136c-5.435-1.675-24.03-8.029-34.325-19.354a9.764 9.764 0 0 1-2.5-6.579V196.8a14.922 14.922 0 0 1 3.705-9.965c4.3-4.811 10.5-16.325 7.887-41.636z" fill="#ab766a"></path><path d="M69.36 209.928h5.881a6.86 6.86 0 0 1 6.86 6.859 6.859 6.859 0 0 1-4.468 6.429l-2.888 1.075a9.614 9.614 0 0 0-6.17 7.695l-1.7 12.335a8.3 8.3 0 0 1-9.9 7.014l-.311-.068a17.321 17.321 0 0 1-13.354-18.286l1.756-23.053z" fill="#ffd0b0"></path><path d="M206.45 121.019s3.429-19.36 21.176-21.78c9.958-1.358 15.154-2.589 17.8-3.408a1.435 1.435 0 0 1 1.79 1.811c-2.631 8.288-12.623 31.371-40.766 23.377z" fill="#bc405b"></path><path d="M139.1 155.244 128.2 145.2c.109 1.054 3.3 29.224-7.887 41.636a14.047 14.047 0 0 0-2.377 3.7l.922-.221c7.991-1.941 12.86-8.634 15.826-15.862a88.433 88.433 0 0 0 20.278 13.259v-17.86zM219.689 186.98c-11.256-17.121-8-40.589-7.887-41.636l-10.887 10.03L185.04 170v17.719a88.456 88.456 0 0 0 20.277-13.258c2.966 7.229 7.837 13.921 15.827 15.861.295.072.571.137.856.2a28.29 28.29 0 0 0-2.311-3.542z" fill="#683630"></path><path d="M144.18 117.465h52.652v12.867a26.326 26.326 0 0 1-26.326 26.327 26.326 26.326 0 0 1-26.326-26.327z" fill="#ea8f8b"></path><path d="M218.2 125.572a23.317 23.317 0 0 0-8.419-5.172c-2.953-11.515-15.534-12.7-15.534-12.7C191.7 141.659 170 147.269 170 147.269s-21.7-5.61-24.242-39.565c0 0-12.581 1.181-15.534 12.7a23.317 23.317 0 0 0-8.419 5.172 12.066 12.066 0 0 0-2.18 14.789c6.533 11.442 22.246 33.756 48.96 41.924a4.856 4.856 0 0 0 2.83 0c26.714-8.168 42.427-30.482 48.96-41.924a12.066 12.066 0 0 0-2.175-14.793z" fill="#ea5e78"></path><path d="M153.27 133.194c-3.634-5.872-6.657-14.073-7.512-25.49a20.743 20.743 0 0 0-11.092 5.082c1.416 5.036 5.716 14.296 18.604 20.408zM194.242 107.7c-.855 11.417-3.878 19.618-7.512 25.49 12.888-6.112 17.188-15.372 18.6-20.408a20.743 20.743 0 0 0-11.088-5.082z" fill="#bc405b"></path><path d="M107.527 54.641a38.841 38.841 0 0 0-9.72 1.914 8.406 8.406 0 0 0-3.028 14.063C102.147 77.5 117.155 86.3 145.758 86.3V70.134z" fill="#683630"></path><path d="M140.616 70.379h58.768v31.384A29.384 29.384 0 0 1 170 131.147a29.384 29.384 0 0 1-29.384-29.384V70.379z" fill="#ffd0b0"></path><path d="M199.384 101.763V70.379h-58.768v20.874c6.32 6.393 25.8 22.326 58.2 16.15a29.352 29.352 0 0 0 .568-5.64z" fill="#ea8f8b"></path><path d="M159 98.5a3.392 3.392 0 0 1-1.135-.195l-2.28-.805a3.407 3.407 0 1 1 2.269-6.426l2.28.805A3.408 3.408 0 0 1 159 98.5z" fill="#373d4c"></path><path d="M128.2 54.5s7.075-28.6 27.914-43.816a2.275 2.275 0 0 1 2.409-.152l8.843 4.738a2.276 2.276 0 0 0 2.016.067l11-4.988a2.264 2.264 0 0 1 2.145.14c4.153 2.622 19.364 14 27.186 43.99v3.979S142.6 59.505 128.2 54.5z" fill="#ab766a"></path><path d="M209.708 54.476a107.891 107.891 0 0 0-4.7-14.106c-28.943.477-59.656.134-71.619-.037A90.713 90.713 0 0 0 128.2 54.5c14.4 5.008 81.51 3.958 81.51 3.958z" fill="#683630"></path><path d="M107.527 54.641s72.635-.908 128.628 1.528a8.551 8.551 0 0 1 7.271 12.431c-3.691 7.149-10.839 15.806-24.6 20.822a60.69 60.69 0 0 1-24.937 3.329c-14.287-.98-42.032-5.512-65.653-24.993-.004-.003-10.011-8.63-20.709-13.117z" fill="#ab766a"></path><path d="M159.091 164.388a15.172 15.172 0 0 0 15.638-1.861 58.351 58.351 0 0 0 8.271-7.933 1.7 1.7 0 0 0-2.128-2.582 69.353 69.353 0 0 1-8.565 4.063 14.572 14.572 0 0 1-11.9-.558C136.943 143.705 130.22 120.4 130.22 120.4a21.307 21.307 0 0 0-5.474 2.808c7.511 25.408 24.324 36.61 34.345 41.18zM199.858 141.126a111.9 111.9 0 0 0 18.4-15.486c-.023-.022-.043-.047-.067-.068a23.317 23.317 0 0 0-8.419-5.172s-3.513 6.791-12.466 17.966a1.9 1.9 0 0 0 2.552 2.76z" fill="#bc405b"></path><g fill="#ea8f8b"><path d="m296.692 233.122-.017-.229c-13.467 3.94-19.263-1.175-21.747-5.946a16.392 16.392 0 0 1-.872-12.556 17.842 17.842 0 0 1 2.014-4.322h-11.311a6.859 6.859 0 0 0-6.859 6.86 6.858 6.858 0 0 0 4.467 6.428l2.888 1.075a9.614 9.614 0 0 1 6.17 7.7l1.7 12.335a8.3 8.3 0 0 0 9.9 7.014l.311-.068a17.321 17.321 0 0 0 13.356-18.291zM65.045 227.15c-2.483 4.77-8.278 9.885-21.741 5.947a17.318 17.318 0 0 0 13.358 18.17l.311.068a8.3 8.3 0 0 0 9.9-7.014l1.7-12.335a9.614 9.614 0 0 1 6.17-7.695l2.888-1.075a6.859 6.859 0 0 0-2.392-13.288H63.616a15.938 15.938 0 0 1 2.3 4.666 16.387 16.387 0 0 1-.871 12.556z" fill="#ea8f8b"></path></g></g></svg>