<svg viewBox="0 0 512.01 512.01" xmlns="http://www.w3.org/2000/svg"><g><path d="M320.995 161h-272c-8.721 0-15.608 7.419-14.96 16.12l24 321c.59 7.83 7.11 13.88 14.96 13.88h224c7.85 0 14.37-6.05 14.96-13.88l24-321c.648-8.699-6.236-16.12-14.96-16.12z" fill="#9ddc34"></path><path d="m335.955 177.12-24 321c-.59 7.83-7.11 13.88-14.96 13.88h-112V161h136c8.721 0 15.608 7.419 14.96 16.12z" fill="#6ec265"></path><path d="M199.995 15v33c0 8.28-6.72 15-15 15s-15-6.72-15-15V15c0-8.28 6.72-15 15-15s15 6.72 15 15z" fill="#61729a"></path><path d="M184.995 63V0c8.28 0 15 6.72 15 15v33c0 8.28-6.72 15-15 15z" fill="#47568b"></path><path d="M290.995 33h-212c-24.81 0-45 20.19-45 45v34c0 8.28 6.72 15 15 15h272c8.28 0 15-6.72 15-15V78c0-24.81-20.19-45-45-45z" fill="#9ddc34"></path><g fill="#6ec265"><path d="M335.995 78v34c0 8.28-6.72 15-15 15h-136V33h106c24.81 0 45 20.19 45 45z" fill="#6ec265"></path><path d="m363.605 133.39-27.61-27.6H33.985l-27.6 27.6A15.027 15.027 0 0 0 1.995 144v32c0 8.28 6.72 15 15 15h336c8.28 0 15-6.72 15-15v-32c0-3.98-1.58-7.79-4.39-10.61zM72.995 417c-25.916 0-47 21.084-47 47 0 12.496 4.81 24.396 13.544 33.508 18.535 19.335 48.373 19.339 66.912 0 8.734-9.111 13.544-21.011 13.544-33.508 0-25.916-21.084-47-47-47z" fill="#6ec265"></path></g><path d="M367.995 144v32c0 8.28-6.72 15-15 15h-168v-85.21h151l27.61 27.6c2.81 2.82 4.39 6.63 4.39 10.61z" fill="#5ea56a"></path><path d="m268.075 310.28-23.68 24.31c-6.357 6.517-16.815 5.775-22.43-.91l-23.1-22.5c-5.93-5.78-6.05-15.28-.27-21.21 5.09-5.23 13.07-5.94 18.96-2.08-6.223-18.137-21.144-32.1-39.88-36.84-8.03-2.03-12.89-10.2-10.85-18.23 2.03-8.01 10.16-12.86 18.17-10.85.02 0 .04 0 .06.01 32.91 8.36 56.66 34.56 63.54 65.65 5.8-4.17 13.91-3.72 19.2 1.43 5.94 5.78 6.06 15.28.28 21.22z" fill="#e9f8ff"></path><path d="m268.075 310.28-23.68 24.31c-6.357 6.517-16.815 5.775-22.43-.91l-23.1-22.5c-5.93-5.78-6.05-15.28-.27-21.21 5.09-5.23 13.07-5.94 18.96-2.08-5.25-15.3-16.9-28.12-32.56-34.44 0-32.85-.04-31.52.06-31.47 32.91 8.36 56.66 34.56 63.54 65.65 5.8-4.17 13.91-3.72 19.2 1.43 5.94 5.78 6.06 15.28.28 21.22z" fill="#d4f2ff"></path><path d="M206.125 383.12c-2.013 7.947-10.08 12.888-18.23 10.85-32.854-8.38-56.542-34.434-63.49-65.42a14.983 14.983 0 0 1-19.03-1.57c-5.93-5.78-6.06-15.28-.28-21.21 25.941-26.62 24.351-25.31 26.97-26.85 5.969-3.214 12.265-2.278 16.67 1.17 1.05.825.38.233 25.57 24.77 5.94 5.78 6.06 15.28.28 21.21-5.17 5.31-13.3 5.96-19.21 1.9 6.087 17.84 20.713 32.028 39.91 36.92 8.03 2.04 12.88 10.2 10.84 18.23z" fill="#e9f8ff"></path><path d="M206.125 383.12c-2.013 7.947-10.08 12.888-18.23 10.85-.98-.25-1.94-.51-2.9-.79V361.2c3.24 1.53 6.68 2.77 10.29 3.69 8.03 2.04 12.88 10.2 10.84 18.23z" fill="#d4f2ff"></path><path d="M464.985 512h-159.98c-29.643 0-51.056-28.061-43.5-56.55l18.51-69.71c6.01-22.62 18.93-42 36.13-56.09l33.31-18.66c22.459-7.814 47.621-8.162 71.08 0l33.31 18.66c17.2 14.09 30.12 33.47 36.13 56.09l18.51 69.71c7.573 28.549-13.91 56.55-43.5 56.55z" fill="#e27cb8"></path><path d="M464.985 512h-79.99V305c12.36 0 24.33 2.09 35.54 5.99l33.31 18.66c17.2 14.09 30.12 33.47 36.13 56.09l18.51 69.71c7.573 28.549-13.91 56.55-43.5 56.55z" fill="#de5e96"></path><path d="M458.205 231.81c-42.769-34.53-103.869-34.351-146.42 0-15.799 12.757-15.687 36.846.21 49.45l63.68 50.49a14.988 14.988 0 0 0 18.64 0l63.68-50.49c15.913-12.617 15.992-36.707.21-49.45z" fill="#de5e96"></path><path d="m457.995 281.26-63.68 50.49a14.957 14.957 0 0 1-9.32 3.25V205.96c26.591 0 52.566 9.183 73.21 25.85 15.799 12.757 15.685 36.848-.21 49.45z" fill="#ca4986"></path><path d="M399.995 295v25h-30v-25c0-8.28 6.72-15 15-15 4.14 0 7.89 1.68 10.6 4.4 2.72 2.71 4.4 6.46 4.4 10.6z" fill="#ca4986"></path><path d="M399.995 295v25h-15v-40c4.14 0 7.89 1.68 10.6 4.4 2.72 2.71 4.4 6.46 4.4 10.6z" fill="#b93573"></path><path d="M421.725 341.57c5.94 10.32 10.27 24.37 10.27 43.43 0 8.92-7.78 16.02-16.92 14.88-7.58-.94-13.05-7.65-13.08-15.29-.11-25.71-10.87-35.7-17-39.31-6.16 3.63-17 13.7-17 39.72 0 8.48-7.03 15.31-15.58 14.99-8.17-.31-14.45-7.36-14.42-15.52.08-18.79 4.39-32.68 10.27-42.9-12.84-2.84-23.5-7.21-32.12-11.92 9.86-8.09 21.13-14.44 33.31-18.66 17.541 4.855 52.618 5.112 71.08 0a108.583 108.583 0 0 1 33.31 18.66c-8.62 4.71-19.28 9.08-32.12 11.92z" fill="#61729a"></path><path d="M421.725 341.57c5.94 10.32 10.27 24.37 10.27 43.43 0 8.92-7.78 16.02-16.92 14.88-7.58-.94-13.05-7.65-13.08-15.29-.11-25.71-10.87-35.7-17-39.31v-30.52c8 0 24.02-.58 35.54-3.77a108.583 108.583 0 0 1 33.31 18.66c-8.62 4.71-19.28 9.08-32.12 11.92z" fill="#47568b"></path><circle cx="72.995" cy="464" fill="#5ea56a" r="16"></circle><path d="M367.995 144h-366c0-3.98 1.58-7.79 4.39-10.61l27.6-27.6h302.01l27.61 27.6c2.81 2.82 4.39 6.63 4.39 10.61z" fill="#5ea56a"></path><path d="M367.995 144h-183v-38.21h151l27.61 27.6c2.81 2.82 4.39 6.63 4.39 10.61z" fill="#4d8755"></path></g></svg>