<svg viewBox="0 0 496 496" xmlns="http://www.w3.org/2000/svg"><g><path d="M408 0v136h-24v16l-40-16h-80V32h-32V0zm0 0" fill="#da4453"></path><path d="M264 136v32H152l-40 16v-16H88V32h176zm0 0" fill="#ed5565"></path><path d="M400 400c11.441 0 22.398-2.719 32-7.52V424l-16 8-16-8-16 8-16-8v-31.52c9.602 4.801 20.559 7.52 32 7.52zm0 0" fill="#f5f7fa"></path><path d="M496 488c0 4.398-3.602 8-8 8H312c-4.398 0-8-3.602-8-8v-24c0-22.078 17.922-40 40-40h24l16 8 16-8 16 8 16-8h24c22.078 0 40 17.922 40 40zm0 0" fill="#5d9cec"></path><path d="M456 424h-24l-1.344.672C449.551 427.855 464 444.199 464 464v24c0 4.398-3.602 8-8 8h32c4.398 0 8-3.602 8-8v-24c0-22.078-17.922-40-40-40zm0 0" fill="#4a89dc"></path><path d="M472 304.238V328c0 28.238-16.32 52.719-40 64.48-9.602 4.801-20.559 7.52-32 7.52s-22.398-2.719-32-7.52c-23.602-11.68-39.84-36-40-64.082v-24.16L352 288s24.078 8 52 8 44-8 44-8zm0 0" fill="#eac6bb"></path><path d="M448 288s-2.855 1.367-8 2.96V328c0 28.238-16.32 52.719-40 64.48-5 2.504-10.383 4.407-16 5.688 5.168 1.176 10.52 1.832 16 1.832 11.441 0 22.398-2.719 32-7.52 23.68-11.761 40-36.234 40-64.48v-23.762zm0 0" fill="#d3b1a9"></path><path d="M472 280v24.238L448 288s-16.078 8-44 8-52-8-52-8l-24 16.238V280c0-35.36 28.64-64 64-64h48v32c17.68 0 32 14.32 32 32zm0 0" fill="#965353"></path><path d="M440 248v-32h-32v48c17.68 0 32 6.32 32 24v2.96c5.145-1.593 8-2.96 8-2.96l24 16.238V280c0-17.68-14.32-32-32-32zm0 0" fill="#844646"></path><path d="M264 248h32l-72 72 16-56h-24l32-56h40zm0 0" fill="#ffce54"></path><path d="M96 400c11.441 0 22.398-2.719 32-7.52V424l-16 8-16-8-16 8-16-8v-31.52c9.602 4.801 20.559 7.52 32 7.52zm0 0" fill="#f5f7fa"></path><path d="m112 432 16-8h24c22.078 0 40 17.922 40 40v24c0 4.398-3.602 8-8 8H8c-4.398 0-8-3.602-8-8v-24c0-22.078 17.922-40 40-40h24l16 8 16-8zm0 0" fill="#e6e9ed"></path><path d="M152 424h-24l-1.344.672C145.551 427.855 160 444.199 160 464v24c0 4.398-3.602 8-8 8h32c4.398 0 8-3.602 8-8v-24c0-22.078-17.922-40-40-40zm0 0" fill="#ccd1d9"></path><path d="M168 292v12c-15.52-20.238-26.719-24.96-39.84-23.762L152 245.36c10.078 12.88 16 29.121 16 46.641zm0 0" fill="#f6bb42"></path><path d="m152 245.36-23.84 34.878c-21.281 2-47.281 20-104.16 12.883-2.559-.32-5.281-.723-8-1.121 0-42 34-76 76-76 24.398 0 46.16 11.52 60 29.36zm0 0" fill="#ffce54"></path><path d="M83.566 216.496c-2.605.297-5.168.711-7.695 1.258h-.008c17.832 3.797 33.383 13.758 44.137 27.605 6.215 7.953 10.742 17.227 13.375 27.25L152 245.36C138.16 227.52 116.398 216 92 216c-2.762 0-5.488.16-8.168.457-.09.008-.176.031-.266.04zm0 0" fill="#f6bb42"></path><path d="m152 245.36-18.625 27.25c.664 2.527 1.29 5.077 1.695 7.702 4.785.473 9.473 2.07 14.356 5.239.55.351 1.101.687 1.652 1.09a51.45 51.45 0 0 1 2.434 1.886c.777.625 1.543 1.29 2.336 2 .718.649 1.449 1.32 2.175 2.04.993.976 2.008 2.066 3.032 3.175.593.64 1.175 1.25 1.785 1.946A138.772 138.772 0 0 1 168 304v-12c0-17.52-5.922-33.762-16-46.64zm0 0" fill="#edab37"></path><path d="M168 304v24c0 28.238-16.32 52.719-40 64.48-9.602 4.801-20.559 7.52-32 7.52s-22.398-2.719-32-7.52C40.32 380.72 24 356.238 24 328v-34.879c56.879 7.125 82.879-10.875 104.16-12.875 13.121-1.207 24.32 3.516 39.84 23.754zm0 0" fill="#eac6bb"></path><path d="M136 280.414V328c0 28.238-16.32 52.719-40 64.48-5 2.504-10.383 4.407-16 5.688C85.168 399.344 90.52 400 96 400c11.441 0 22.398-2.719 32-7.52 23.68-11.761 40-36.234 40-64.48v-24c-12.352-16.113-21.977-22.305-32-23.586zm0 0" fill="#d3b1a9"></path><path d="M176 120a7.99 7.99 0 0 1-8-8V64c0-4.426 3.574-8 8-8s8 3.574 8 8v48c0 4.426-3.574 8-8 8zM176.238 144c-4.422 0-8.039-3.574-8.039-8s3.535-8 7.953-8h.086c4.418 0 8 3.574 8 8s-3.582 8-8 8zm0 0" fill="#f5f7fa"></path><g fill="#e6e9ed"><path d="M320 88a7.99 7.99 0 0 1-8-8V32c0-4.426 3.574-8 8-8s8 3.574 8 8v48c0 4.426-3.574 8-8 8zM320.238 112c-4.422 0-8.039-3.574-8.039-8s3.535-8 7.953-8h.086c4.418 0 8 3.574 8 8s-3.582 8-8 8zm0 0" fill="#e6e9ed"></path></g></g></svg>