<svg viewBox="0 0 498 498" xmlns="http://www.w3.org/2000/svg"><g><path d="M443.215 397.5 496 403.41V498H0V364" fill="#4c5770"></path><path d="m355 372-13.762-48.16a169.109 169.109 0 0 1 1.903-99.102A34.153 34.153 0 0 0 344.09 207l-.145-.68c-2.957-13.937 3.309-28.21 15.567-35.476a15.385 15.385 0 0 0 7.422-11.328 91.936 91.936 0 0 1 27.78-55.13 91.905 91.905 0 0 0 25.747-44.238L435 2l-27-1-6.746 34.855a91.912 91.912 0 0 1-24.61 46.887l-9.062 9.242a91.923 91.923 0 0 0-25.527 52.594L342 145l-9.441 11.016c-4.727 5.515-13.028 6.152-18.543 1.425a13.152 13.152 0 0 1-4.532-8.707l-.976-10.043a51.188 51.188 0 0 1 16.656-42.984l.285-.258a51.202 51.202 0 0 0 15.93-47.93L332 0l-23 1 5.313 35.062a51.201 51.201 0 0 1-20.708 49.223 51.21 51.21 0 0 0-20.902 47.809 73.274 73.274 0 0 0 34.223 53.386 10.296 10.296 0 0 1 4.77 7.262 68.443 68.443 0 0 1-21.934 60.774 26.146 26.146 0 0 1-28.371 4.336L170 217l-31-24-8-60-17 3 6 53a74.225 74.225 0 0 1-54.133-39.34L46 111l-16 6 16.262 45.66a74.22 74.22 0 0 0 35.437 40.82L117 222l-81 23-2 12 65-1 69-8c55.832 23.574 95.191 74.723 103.68 134.73L272 385l-82 47 87-13-27 44 73-38 19-21 29-5 45 18-24-35zm0 0" fill="#e86140"></path><g fill="#9b351b"><path d="m34 257 65-1 9.48-1.102L168 238l-35.3-18.52a74.21 74.21 0 0 1-34.134-37.425 74.217 74.217 0 0 1-32.699-32.395L46 111l-16 6 16.262 45.66a74.22 74.22 0 0 0 35.437 40.82L117 222l-81 23zM414.313 416.324 416 417l-.594-.863zM277 419l-7.918 12.898L323 401l-.32-2.27C314.19 338.723 274.832 287.574 219 264l-18.438 2.137A172.464 172.464 0 0 1 271.68 382.73L272 385l-82 47zm0 0" fill="#9b351b"></path></g><path d="M41.102 425.293c-16.008-7.117-29.149-19.66-35.973-35.793C-1.75 373.25-3.5 351 17 327c41-48 8-79 58-109s31-111 34-119 82 66 51 132-6 92-4 92 27-42 49-49c0 0-17 33-4 54s36 38 1 69c-31.898 28.254-101.184 54.848-160.898 28.293zm0 0" fill="#ffa52e"></path><path d="M54 417s-48-41-7-89 8-79 58-109c33.785-20.273 36.066-63.828 34.918-92.414-14.512-19.469-29.637-31-30.918-27.586-3 8 16 89-34 119s-17 61-58 109c-20.5 24-18.75 46.254-11.875 62.5 6.848 16.184 20.047 28.734 36.113 35.852 20.711 9.18 42.57 11.972 63.617 10.527A124.16 124.16 0 0 1 54 417zm0 0" fill="#ff991f"></path><path d="M444 464c.66 13.86-7.39 28.148-25.012 31.39a47.412 47.412 0 0 1-14.238.27l-.059-.012a71.485 71.485 0 0 1-12.3-2.668c-4.711-1.43-9.48-2.64-14.25-3.84a30.613 30.613 0 0 1-3.102-.96C367.09 485.27 356.621 477.7 356 458c-1-32 32-7 30-40s48-5 50-50c0 0 14 30 1 55s19 7 27 6c0 0-21 14-20 35zm0 0" fill="#ffa52e"></path><path d="M375 468c-1-32 32-7 30-40-1.383-22.828 22.117-16.469 37.398-25.277C443.551 384.207 436 368 436 368c-2 45-52 17-50 50s-31 8-30 40c.7 22.398 14.14 29.121 22.14 31.137 1.442.363 2.883.73 4.325 1.097-4.031-4.734-7.137-11.773-7.465-22.234zm0 0" fill="#ff991f"></path><path d="M418.988 495.39c-6.097 1.11-13.36.91-21.808-1.109a79.775 79.775 0 0 1-4.79-1.3c-4.71-1.43-9.48-2.641-14.25-3.84a30.613 30.613 0 0 1-3.1-.961c-3.552-3.621-9.7-11.852.96-17.18 14-7 23-16 23-23 0 0 7 11 5 19a3.8 3.8 0 0 0-.129.941c0 .11.008.22.02.32.011.102.035.208.058.31.02.077.047.156.082.23.02.02.02.039.028.05.027.075.07.145.12.208a.94.94 0 0 0 .16.21c.06.07.126.133.2.18.152.121.316.223.492.301C409.31 471.68 424 465 424 465s8.39 21.969-5.012 30.39zm0 0" fill="#ff661a"></path><path d="M397.18 494.281a79.775 79.775 0 0 1-4.79-1.3c-4.71-1.43-9.48-2.641-14.25-3.84a30.613 30.613 0 0 1-3.1-.961c-3.552-3.621-9.7-11.852.96-17.18 14-7 23-16 23-23 0 0 7 11 5 19a3.8 3.8 0 0 0-.129.941c0 .11.008.22.02.32.011.102.035.208.058.31.02.077.047.156.082.23.02.02.02.039.028.05.035.075.074.145.12.208.051.07.102.14.16.21.06.067.126.13.2.18.152.121.316.223.492.301A81.6 81.6 0 0 1 396 475c-12.031 6.02-1.898 16.469 1.18 19.281zm0 0" fill="#b23b00"></path><path d="M77 402s-28-18-22-41 31-55 24-72 24 27 21 48 7 34 16 34 31-32 46-25c0 0-5-1-10 28s-35 55-75 28zm0 0" fill="#ff661a"></path><path d="M98 395s-28-18-22-41c3.29-12.605 12.277-27.91 18.582-41.969C86.82 293.79 74.282 277.543 79 289c7 17-18 49-24 72s22 41 22 41c22.371 15.102 41.613 13.621 55.102 4.313-10.086.386-21.602-2.88-34.102-11.313zm0 0" fill="#b23b00"></path><path d="M194.918 353.441c-4.742-2.246-11.461 2.004-15.004 9.493-3.547 7.484-2.574 15.375 2.168 17.62 4.742 2.247 11.461-2.003 15.004-9.492 3.547-7.488 2.574-15.378-2.168-17.62zM185.645 325.836c-4.04-1.91-8.872-.172-10.793 3.887-1.918 4.058-.204 8.902 3.835 10.812 4.04 1.914 8.872.172 10.793-3.887 1.922-4.058.204-8.898-3.835-10.812zm0 0" fill="#ffffff"></path></g></svg>