<svg viewBox="0 0 512 512" xmlns="http://www.w3.org/2000/svg"><g><path d="M507.661 503.322V399.907a34.728 34.728 0 0 0-14.805-28.438l-65.25-45.681a26.034 26.034 0 0 0-14.935-4.703h-52.536l.868 148.48c.321 15.473 10.431 29.028 25.166 33.757h121.492z" fill="#fec9a3"></path><path d="M455.593 503.322h-60.746c-19.17 0-34.712-15.542-34.712-34.712v-34.712h60.746l34.712 69.424z" fill="#fabd91"></path><path d="M229.966 60.746a43.283 43.283 0 0 0-17.356 3.662V0H56.407C27.648 0 4.339 23.309 4.339 52.068v156.203h64.408c-9.633-21.938.338-47.538 22.285-57.17 21.938-9.633 47.538.338 57.17 22.285a43.366 43.366 0 0 1 0 34.894h64.408v-64.408c21.938 9.633 47.538-.338 57.17-22.285s-.338-47.538-22.285-57.17a43.187 43.187 0 0 0-17.529-3.671z" fill="#88b337"></path><path d="M420.881 52.068C420.881 23.309 397.572 0 368.814 0H212.61v64.408c21.938-9.633 47.538.338 57.17 22.285 9.633 21.938-.338 47.538-22.285 57.17a43.366 43.366 0 0 1-34.894 0v64.408h64.408c-9.633 21.938.338 47.538 22.285 57.17 21.938 9.633 47.538-.338 57.17-22.285a43.366 43.366 0 0 0 0-34.894h64.417V52.068z" fill="#e8594a"></path><path d="M420.881 57.023C371.278 126.03 281.73 165.228 212.61 186.325v21.947h64.408c-9.633 21.938.338 47.538 22.285 57.17 21.938 9.633 47.538-.338 57.17-22.285a43.366 43.366 0 0 0 0-34.894h64.408V57.023z" fill="#d65245"></path><path d="M195.254 277.695a43.283 43.283 0 0 1 17.356 3.662v-73.086h-64.408c9.633-21.938-.338-47.538-22.285-57.17-21.947-9.633-47.538.338-57.17 22.285a43.366 43.366 0 0 0 0 34.894H4.339v156.203c0 28.759 23.309 52.068 52.068 52.068H212.61v-55.73c-21.938 9.633-47.538-.338-57.17-22.285-9.633-21.938.338-47.538 22.285-57.17a43.187 43.187 0 0 1 17.529-3.671z" fill="#fdb62f"></path><path d="M4.339 364.475c0 28.759 23.309 52.068 52.068 52.068H212.61v-55.73c-21.834 9.615-47.33-.286-56.945-22.12a43.28 43.28 0 0 1-3.645-16.063A379.553 379.553 0 0 1 4.338 355.476v8.999z" fill="#ffa719"></path><path d="m443.574 389.641-54.906-146.658-60.303 22.71c16.809 17.122 16.549 44.631-.573 61.431-17.122 16.801-44.631 16.549-61.431-.573a43.45 43.45 0 0 1-12.375-32.837l-60.295 22.71 25.687 68.634a42.976 42.976 0 0 0-17.529 2.673c-22.407 8.695-33.514 33.905-24.819 56.311 8.548 22.016 33.098 33.202 55.322 25.183a43.053 43.053 0 0 0 14.969-9.563L266.9 512l146.241-55.079c26.953-10.205 40.569-40.301 30.433-67.28z" fill="#4398d1"></path><path d="M415.258 314.012c-59.878 89.557-172.127 120.832-237.872 131.601 9.225 21.947 34.495 32.256 56.441 23.031a43.027 43.027 0 0 0 13.494-8.982L266.9 512l146.241-55.079c26.945-10.205 40.552-40.283 30.434-67.254l-28.317-75.655z" fill="#3e8fc9"></path><path d="M229.966 60.746a43.283 43.283 0 0 0-17.356 3.662V51.816C147.63 111.633 59.592 144.67 4.339 160.768v47.503h64.408c-9.633-21.938.338-47.538 22.285-57.17 21.938-9.633 47.538.338 57.17 22.285a43.366 43.366 0 0 1 0 34.894h64.408v-64.408c21.938 9.633 47.538-.338 57.17-22.285s-.338-47.538-22.285-57.17a43.187 43.187 0 0 0-17.529-3.671z" fill="#80a834"></path><path d="M403.682 390.665c-8.305-8.47-21.903-8.609-30.373-.304-8.47 8.305-8.609 21.903-.304 30.373.104.104.2.208.304.304l30.217 30.217c0 28.759 23.309 52.068 52.068 52.068h52.068v-8.678l-103.98-103.98z" fill="#fec9a3"></path></g></svg>