<svg id="flat" height="512" viewBox="0 0 340 340" width="512" xmlns="http://www.w3.org/2000/svg"><path d="m262.869 150.567h58.437v90.383h-58.437z" fill="#b23232"/><path d="m32.17 153.918h50.437v49.074h-50.437z" fill="#aebfce"/><path d="m283.315 158.949h37.7a8.9 8.9 0 0 0 8.905-8.905v-41.3a49.073 49.073 0 0 0 -49.073-49.073h-225.978a34.574 34.574 0 0 0 -34.045 28.76c-3.213 18.627-5.471 39.418-7.058 59.837a8.7 8.7 0 0 0 8.677 9.359h42.275a12.247 12.247 0 0 1 12.247 12.243v15.009a5.523 5.523 0 0 1 -4.5 5.426l-46.54 8.795a19.017 19.017 0 0 0 -15.485 18.248c-.263 11.583-.347 21.247-.365 27.96a10.241 10.241 0 0 0 10.246 10.271h296.152a13.453 13.453 0 0 0 13.452-13.453v-14.062h-59.493v-56.231a12.884 12.884 0 0 1 12.883-12.884z" fill="#e54c4c"/><path d="m310.62 126.372h-277a2.469 2.469 0 0 0 -2.451 2.131c-.482 3.572-.284 7.156-.765 10.741a2.482 2.482 0 0 0 2.465 2.8h277.751a2.48 2.48 0 0 0 2.48-2.48v-10.712a2.481 2.481 0 0 0 -2.48-2.48z" fill="#2d6faa"/><g fill="#fff"><rect height="25.911" rx="6.504" width="39.614" x="94.96" y="165.224"/><rect height="25.911" rx="6.504" width="39.614" x="154.544" y="165.224"/><rect height="26.891" rx="5.828" width="41.112" x="121.873" y="79.217"/><rect height="26.891" rx="5.828" width="41.112" x="187.216" y="79.217"/><rect height="25.911" rx="6.504" width="39.614" x="214.128" y="165.224"/></g><path d="m291.803 158.949h9.942v69.115h-9.942z" fill="#dae5ed"/><path d="m291.803 184.239 9.942-7.811v-17.479h-9.942z" fill="#8294af"/><path d="m92.956 79.277h-27.533a11.807 11.807 0 0 0 -10.983 7.473l-7.719 19.565h46.235a3.786 3.786 0 0 0 3.786-3.786v-19.466a3.786 3.786 0 0 0 -3.786-3.786z" fill="#fff"/><path d="m257.246 79.277h27.533a11.809 11.809 0 0 1 10.983 7.473l7.719 19.565h-46.235a3.786 3.786 0 0 1 -3.786-3.786v-19.466a3.786 3.786 0 0 1 3.786-3.786z" fill="#fff"/><path d="m10.236 228.064h260.9v-9.418h-260.724c-.073 3.312-.13 6.46-.176 9.418z" fill="#b23232"/><circle cx="60.61" cy="254.198" fill="#343c47" r="26.134"/><circle cx="60.61" cy="254.198" fill="#aebfce" r="9.123"/><circle cx="233.907" cy="254.198" fill="#343c47" r="26.134"/><circle cx="233.907" cy="254.198" fill="#aebfce" r="9.123"/></svg>