<svg viewBox="0 0 512 512" xmlns="http://www.w3.org/2000/svg"><g><path d="M292.246 357.223v-81.196H129.06V81.195h163.187V0L512 178.613zm0 0" fill="#42a5f5"></path><g fill="#1e88e5"><path d="M16.234 276.027C7.274 276.027 0 268.754 0 259.793V97.433c0-8.964 7.273-16.238 16.234-16.238 8.965 0 16.239 7.274 16.239 16.239v162.359c0 8.96-7.274 16.234-16.239 16.234zM81.18 276.027c-8.961 0-16.235-7.273-16.235-16.234V97.433c0-8.964 7.274-16.238 16.235-16.238 8.96 0 16.234 7.274 16.234 16.239v162.359c0 8.96-7.273 16.234-16.234 16.234zM292.246 357.223v-81.196H129.06v-97.414H512zm0 0" fill="#1e88e5"></path></g></g></svg>