<svg viewBox="0 0 16.933 16.933" xmlns="http://www.w3.org/2000/svg"><g><path d="M7.146 16.112a.265.265 0 0 0 .263.292h5.82a.265.265 0 0 0 .266-.263V13.76a.265.265 0 0 0-.266-.264c-1.852 0-3.702 0-5.554-.002-.135 0-.248.101-.264.235z" fill="#ffc6a0"></path><path d="M7.35 14.28c.225.19.468.351.717.5 1.375.817 3.29.956 4.746.276.245-.114.474-.285.682-.484v-.812a.265.265 0 0 0-.266-.264c-1.852 0-3.702 0-5.554-.002-.135 0-.248.101-.264.235z" fill="#ffaf7a"></path><path d="M7.939 4.498a.265.265 0 0 0-.147.045c-.873.582-1.441 1.616-1.441 2.602v4.324c0 .768.198 1.346.521 1.785.323.439.754.734 1.195.996 1.375.818 3.29.957 4.746.277.472-.22.885-.644 1.201-1.09.316-.445.542-.886.541-1.288l-.002-7.387a.265.265 0 0 0-.266-.264z" fill="#ffc6a0"></path><path d="m8.202 7.218-1.775 2.794-.076.044v.904l.076-.044 1.775-2.795zm1.943 3.631c.042.153.08.31.101.473.024-.156.023-.315.006-.473z" fill="#ffaf7a"></path><path d="M7.939 4.498a.265.265 0 0 0-.147.045c-.873.582-1.441 1.616-1.441 2.602v4.324c0 .768.198 1.346.521 1.785.323.439.754.734 1.195.996.86.512 1.932.758 2.97.704-.865-.039-1.726-.278-2.44-.704-.442-.262-.873-.557-1.196-.996-.322-.439-.521-1.017-.521-1.785V7.145c0-.986.568-2.02 1.441-2.602a.265.265 0 0 1 .147-.045z" fill="#ffaf7a"></path><path d="M8.731.53a1.06 1.06 0 0 0-1.056 1.058v10.584a.265.265 0 0 0 .264.263h6.085c.582 0 1.059-.476 1.059-1.058V1.588c0-.582-.477-1.059-1.059-1.059z" fill="#e1f1ff"></path><g fill="#f55"><path d="M5.47.53a.265.265 0 0 0-.246.168l-.45 1.154H.795a.265.265 0 0 0-.248.357l.682 1.852a.265.265 0 0 0 .25.173h2.758c.109 0 .207-.068.246-.17l1.17-3.005h.695c.353 0 .353-.53 0-.53zM3.176 5.292a.53.53 0 0 0 .53.529.53.53 0 0 0 .529-.53.53.53 0 0 0-.53-.528.53.53 0 0 0-.529.529zM1.325 5.292a.53.53 0 0 0 .529.529.53.53 0 0 0 .529-.53.53.53 0 0 0-.53-.528.53.53 0 0 0-.528.529z" fill="#ff5555"></path></g><path d="M11.907 11.644a.265.265 0 0 1-.265.264.265.265 0 0 1-.264-.264.265.265 0 0 1 .264-.265.265.265 0 0 1 .265.265zM8.468 1.327a.265.265 0 0 0-.266.264v8.995c0 .146.12.264.266.263h5.823a.265.265 0 0 0 .264-.263V1.588a.265.265 0 0 0-.264-.263z" fill="#96d0ff"></path><path d="M6.061 3.176c-.353.017-.327.546.026.53h5.027v1.587c0 .353.53.353.53 0V3.44a.265.265 0 0 0-.266-.264H6.06z" fill="#0e4b7f"></path><path d="M8.468 1.327a.265.265 0 0 0-.266.264v.265l5.56-.002c.145 0 .263.118.264.264v8.731h.265a.265.265 0 0 0 .264-.263V1.589a.265.265 0 0 0-.264-.264z" fill="#7cc3ff"></path><path d="m6.429 2.46-.795.792a.265.265 0 0 0 0 .375l.795.793c.248.29.663-.125.373-.373l-.606-.607.606-.608a.265.265 0 0 0-.191-.453.265.265 0 0 0-.182.08zM2.908 8.995a.265.265 0 0 1-.26-.267V7.405a.265.265 0 1 1 .53 0v1.323a.265.265 0 0 1-.27.267z" fill="#0e4b7f"></path><path d="m1.931 8.389.793.795a.265.265 0 0 0 .375 0l.793-.795c.29-.248-.125-.664-.373-.373l-.607.605-.606-.605a.265.265 0 1 0-.375.373z" fill="#0e4b7f"></path><path d="M1.044 10.318a.518.518 0 0 0-.513.512v3.211c0 .28.235.512.513.512H4.78a.517.517 0 0 0 .513-.512v-3.21a.518.518 0 0 0-.513-.513z" fill="#ff9955"></path><path d="M2.119 11.91c0 .197.207.325.383.237l.41-.207.41.207a.265.265 0 0 0 .385-.237v-1.592H2.119z" fill="#ff5555"></path><path d="m14.825 8.993-.935.935a.93.93 0 0 0 0 1.309.93.93 0 0 0 1.31.002l.935-.936a.931.931 0 0 0-.001-1.31.922.922 0 0 0-.654-.27.923.923 0 0 0-.655.27z" fill="#ffc6a0"></path><path d="M16.362 9.385a.908.908 0 0 1-.227.39l-.934.934a.93.93 0 0 1-1.31-.001.91.91 0 0 1-.228-.39.925.925 0 0 0 .227.919.93.93 0 0 0 1.31.002l.935-.936a.925.925 0 0 0 .227-.918z" fill="#ffaf7a"></path><path d="m14.825 7.123-.935.934a.93.93 0 0 0 0 1.31.93.93 0 0 0 1.31.001l.935-.935a.931.931 0 0 0-.001-1.31.922.922 0 0 0-.654-.27.923.923 0 0 0-.655.27z" fill="#ffc6a0"></path><path d="M16.362 7.515a.908.908 0 0 1-.227.389l-.934.935a.93.93 0 0 1-1.31-.001.91.91 0 0 1-.228-.39.925.925 0 0 0 .227.919.93.93 0 0 0 1.31.001l.935-.935a.925.925 0 0 0 .227-.918z" fill="#ffaf7a"></path><path d="m14.825 5.253-.935.935a.93.93 0 0 0 0 1.31.93.93 0 0 0 1.31 0l.935-.935a.931.931 0 0 0-.001-1.31.922.922 0 0 0-.654-.27.923.923 0 0 0-.655.27z" fill="#ffc6a0"></path><path d="M16.362 5.645a.908.908 0 0 1-.227.39l-.934.935a.93.93 0 0 1-1.31-.002.91.91 0 0 1-.228-.39.925.925 0 0 0 .227.92.93.93 0 0 0 1.31 0l.935-.935a.925.925 0 0 0 .227-.918z" fill="#ffaf7a"></path><path d="m14.825 3.38-.935.935a.93.93 0 0 0 0 1.31.93.93 0 0 0 1.31.001l.935-.935a.931.931 0 0 0-.001-1.31.922.922 0 0 0-.654-.27.923.923 0 0 0-.655.27z" fill="#ffc6a0"></path><path d="M16.362 3.772a.908.908 0 0 1-.227.39l-.934.935a.93.93 0 0 1-1.31-.002.91.91 0 0 1-.228-.39.925.925 0 0 0 .227.92.93.93 0 0 0 1.31.001l.935-.935a.925.925 0 0 0 .227-.919z" fill="#ffaf7a"></path><path d="M12.172 5.558a.794.794 0 0 1-.794.794.794.794 0 0 1-.794-.794.794.794 0 0 1 .794-.793.794.794 0 0 1 .794.793z" fill="#0e4b7f"></path><path d="M10.966 4.88a.794.794 0 0 0-.382.678.794.794 0 0 0 .794.794.794.794 0 0 0 .677-.38.794.794 0 0 1-.413.115.794.794 0 0 1-.793-.793.794.794 0 0 1 .117-.414z" fill="#0d3f6c"></path><path d="M9.679 6.649a1.181 1.181 0 0 0-.885.541l-2.367 3.726-.076.044v.509c0 .768.199 1.346.521 1.785.297.404.686.683 1.09.93 1.477-.561 2.125-1.871 2.133-1.887.293-.515.153-1.127.003-1.623-.075-.25-.158-.474-.212-.639a1.72 1.72 0 0 1-.053-.19l.879-1.53a1.121 1.121 0 0 0-.406-1.524 1.069 1.069 0 0 0-.627-.142z" fill="#ffc6a0"></path><path d="m10.183 7.786-.88 1.53c.008.039.026.107.053.19.054.165.138.39.213.639.15.496.29 1.108-.003 1.623-.008.015-.656 1.326-2.133 1.887a5.42 5.42 0 0 1-.536-.37c.293.387.672.659 1.065.9 1.477-.562 2.125-1.872 2.133-1.888.293-.515.153-1.127.003-1.623-.075-.25-.158-.474-.212-.639a1.72 1.72 0 0 1-.053-.19l.879-1.53a1.121 1.121 0 0 0-.406-1.524c-.028-.016-.056-.029-.085-.042.152.32.15.708-.038 1.037z" fill="#ffaf7a"></path><path d="M.794 1.852a.265.265 0 0 0-.248.357l.682 1.852a.265.265 0 0 0 .25.173h2.758c.109 0 .207-.068.246-.17l.14-.359H2.007a.265.265 0 0 1-.25-.173l-.619-1.68zM1.324 5.292a.53.53 0 0 0 1.01.22.53.53 0 0 1-.696-.703.53.53 0 0 0-.314.483zM3.176 5.292a.53.53 0 0 0 1.01.22.53.53 0 0 1-.696-.703.53.53 0 0 0-.314.483z" fill="#ff3c3c"></path><path d="M1.044 10.318a.518.518 0 0 0-.513.512v3.211c0 .28.235.512.513.512H4.78a.517.517 0 0 0 .513-.512v-.018H1.574a.517.517 0 0 1-.514-.511v-3.194z" fill="#ff8a3c"></path><path d="M2.119 11.91c0 .197.207.325.383.237l.41-.207.41.207a.265.265 0 0 0 .385-.237v-.365l-.266-.134-.41.207a.265.265 0 0 1-.383-.237v-1.063l-.53.002z" fill="#ff3c3c"></path></g></svg>