<svg viewBox="0 0 960 960" xmlns="http://www.w3.org/2000/svg"><g><path d="M867.4 431c-34.7-.2-185.2 3.2-225.3 1.3-51.3-2.3-107.8 0-167.8 0 0 36.8-.6 84.8-.2 129.3-107.3 1.1-214.6 2.3-321.7 3.4-19.3 53.1-51 79.6-65.7 125.8 0 0-13.5 118.8 81.8 114.4l625.3-6.6c81-1.3 73.7-112.4 73.7-112.4-3.1-62-33-91.4-33-128.3-4.1-44.1 9.7-86.1 32.9-126.9zM111.8 306.7c8.2 39.6 12.4 80 20.5 119.6 112.8-21.8 207.4-37.9 319.7-59.8-6-34-13.8-77.6-21.4-119-103.1 19.8-215.1 42.2-318.8 59.2" fill="#fd876b"></path><path d="M288 286.3c-2.7-6.1-3.4-14.4-.4-20.3 4-7.8 20.7-9.9 29.4 3.5l42.3-8.2c-21.9-47.8-65.6-54.6-83.7-76.3-11.3-13.5-21.5-33.5-30.2-51.2-49.7-2.8-95.5 9.7-137.5 38 27.3 81.5 43 143 79.5 205.1 17.5 29.8 30.6 24.9 35.2 20 9.8-10.4-1.1-48.7-14.9-73 46.2 71.8 61.6 69.1 70.4 60 17.1-17.8-19.2-60.1-28-77.3 0 0 18.9 29.5 51.8 53 19.9 14.2 37.3-9.9 15.9-32.8-13.1-14.1-27.1-34.5-29.8-40.5z" fill="#fed3a6"></path><path d="M867.4 678.7c-72.8 2.1-145.6 1.4-218.4.8-1-13.5-1.3-27-1.5-40.6-.3-23.9-.1-47.7.6-71.6 62.1-.7 124.2-1.3 186.3-2 9.6-.1 9.7-15.1 0-15-12.4.1-24.7.3-37.1.4-.3-30.9-.2-61.8-.4-92.7 1.6-14.6-6.8-20.5 12.3-18.9 19.4-.3 38.8-.6 58.2-.6 9.5.2 9.9-15.1 0-15-126.1 2.9-252.2-.3-378.4 1.3-7.5.8-21.4-3.5-22.3 7.5 0 40.6.1 81.2.7 121.8-55.2.6-110.5 1.2-165.7 1.7-49.8.5-99.6 1-149.4 1.6-9.6.1-9.7 15.1 0 15 50.7-.5 101.4-1.1 152-1.6.7 31.2-.3 62.4-.2 93.6 0 6.5.1 13 .2 19.5-63.9-.1-127.8-2.1-191.8-1.3-8.7.1-17.4.3-26.1.5-9.6.2-9.7 15.2 0 15 24.3-.6 48.6-.7 73-.6-.4 26.5-1 53.1-.6 79.6.1 9.6.4 19.2.7 28.8.4 9.7 14.7 9.9 15 0-.5-16.2-.8-32.3-.8-48.5 0-19.9.5-39.8.7-59.7 82.6 1.2 165.3 1.9 248-.1 15.6-.3 31.1-.5 46.7-.8.6 26.1.4 52.3.7 78.4 1.7 8.9-4.6 33.8 8 34 4-.2 7.6-3.3 7.5-7.5-.4-14.8-.5-29.6-.6-44.4-.1-20.3-.1-40.5-.5-60.8 70.7-1.5 141.4-2.8 212.1-1.8 29.7.3 59.5.4 89.2.2.6 12.8.9 25.7.9 38.5-.1 21.4-.1 42.8 1.1 64.2-.2 9.6 15.2 9.8 15 0-2.1-34.2-.2-68.6-2-102.8 22.3-.2 44.6-.7 66.8-1.2 9.7-.2 9.7-15.2.1-14.9zM481.7 459.1v-19.3c36.7-.1 73.3-1.1 110-1 47.5.9 95 2.3 142.6 1.2 57.2 2.9 46.8-17.4 47.7 40.3.1 23.5.1 47 .3 70.6-71.4.8-142.8 1.5-214.2 2.3-118.4-.3-79.5 20.6-86.4-94.1zm92.7 220.7c-85 1.4-170 3.7-255 4.2-.6-31.2.3-62.4.2-93.5 0-6.6-.1-13.2-.2-19.7 33.1-.3 66.1-.7 99.2-1 71.5-.8 143-1.5 214.5-2.3-.4 14.1-.6 28.1-.7 42.2-.1 17.1 0 34.2.7 51.3.2 6.2.5 12.4 1 18.5-20-.1-39.8 0-59.7.3z" fill="#9b5044"></path></g></svg>