<svg viewBox="0 0 512 512" xmlns="http://www.w3.org/2000/svg"><g><path d="M7.495 511.745a7.493 7.493 0 0 1-7.493-7.493V7.748a7.493 7.493 0 0 1 14.986 0v496.505a7.493 7.493 0 0 1-7.493 7.492z" fill="#c8cbda"></path><path d="M377.762 150.632a7.47 7.47 0 0 1-2.573-.458L4.921 14.785A7.493 7.493 0 0 1 10.067.711l370.268 135.39a7.493 7.493 0 0 1-2.573 14.531zM377.772 193.265c-.359 0-.722-.025-1.088-.079L6.416 139.288a7.491 7.491 0 0 1-6.335-8.493c.596-4.096 4.394-6.942 8.494-6.335l370.268 53.897a7.492 7.492 0 0 1-1.071 14.908zM7.487 263.493a7.493 7.493 0 0 1-.55-14.964l370.268-27.596c4.134-.294 7.721 2.788 8.029 6.915a7.493 7.493 0 0 1-6.915 8.029L8.052 263.472a7.68 7.68 0 0 1-.565.021zM7.491 387.621a7.492 7.492 0 0 1-2.114-14.681l370.268-109.09a7.492 7.492 0 1 1 4.235 14.374L9.612 387.313a7.502 7.502 0 0 1-2.121.308z" fill="#c8cbda"></path><g fill="#ffde1d"><path d="M7.501 511.747a7.493 7.493 0 0 1-3.435-14.156l370.268-190.582a7.493 7.493 0 0 1 6.858 13.324L10.923 510.915a7.463 7.463 0 0 1-3.422.832zM256.001 511.745a7.493 7.493 0 0 1-5.374-12.713L435.761 308.45a7.493 7.493 0 0 1 10.749 10.441L261.375 509.473a7.47 7.47 0 0 1-5.374 2.272zM504.507 511.745a7.493 7.493 0 0 1-7.493-7.493V313.67a7.493 7.493 0 0 1 14.986 0v190.582a7.493 7.493 0 0 1-7.493 7.493z" fill="#ffde1d"></path><path d="M504.507 511.745H7.495a7.493 7.493 0 1 1 0-14.986h497.013a7.493 7.493 0 1 1-.001 14.986zM504.507 464.099H100.22a7.493 7.493 0 1 1 0-14.986h404.288a7.493 7.493 0 1 1-.001 14.986zM504.507 416.453H192.945a7.493 7.493 0 1 1 0-14.986h311.562a7.493 7.493 0 1 1 0 14.986zM504.507 368.807H285.671a7.493 7.493 0 1 1 0-14.986h218.837a7.493 7.493 0 1 1-.001 14.986zM504.507 321.163H378.396a7.493 7.493 0 1 1 0-14.986h126.111a7.493 7.493 0 1 1 0 14.986z" fill="#ffde1d"></path></g><path d="M100.22 464.099a7.493 7.493 0 0 1-7.493-7.493V41.653a7.493 7.493 0 0 1 14.986 0v414.953a7.493 7.493 0 0 1-7.493 7.493zM192.628 416.453a7.493 7.493 0 0 1-7.493-7.493V75.443a7.493 7.493 0 0 1 14.986 0v333.518a7.492 7.492 0 0 1-7.493 7.492zM285.671 368.807a7.493 7.493 0 0 1-7.493-7.493V110.5a7.493 7.493 0 0 1 14.986 0v250.815a7.493 7.493 0 0 1-7.493 7.492zM377.762 321.163a7.493 7.493 0 0 1-7.493-7.493V143.138a7.493 7.493 0 0 1 14.986 0V313.67a7.493 7.493 0 0 1-7.493 7.493z" fill="#c8cbda"></path><path d="m395.089 361.315-92.725 95.292V204.184l92.725 14.156z" fill="#4972ff"></path><path d="M100.22 204.184h202.144v252.423H100.22z" fill="#7092ff"></path><path d="M503.999 35.879v47.577a4.14 4.14 0 0 1-2.074 3.59l-41.657 24.025a4.138 4.138 0 0 1-2.07.557V59.692l45.194-26.065h.002c.389.673.605 1.447.605 2.252z" fill="#4972ff"></path><path d="m503.392 33.627-45.194 26.065-45.24-26.091a4.134 4.134 0 0 1 1.511-1.509l.015-.008 41.659-23.79a4.142 4.142 0 0 1 4.111 0l41.487 23.692.028.017s.002 0 .002.002a4.447 4.447 0 0 1 1.621 1.622z" fill="#bfd1ff"></path><path d="M458.198 59.692v51.936a4.135 4.135 0 0 1-2.072-.557l-41.657-24.025a4.143 4.143 0 0 1-2.074-3.59V35.684l.563-2.083z" fill="#7092ff"></path><path d="M377.762 67.184h-39.291a7.493 7.493 0 1 1 0-14.986h39.291a7.493 7.493 0 1 1 0 14.986z" fill="#c8cbda"></path><path d="M458.175 189.921a7.493 7.493 0 0 1-7.493-7.493v-39.291a7.493 7.493 0 0 1 14.986 0v39.291a7.493 7.493 0 0 1-7.493 7.493z" fill="#ffde1d"></path></g></svg>