<svg viewBox="0 0 464 464" xmlns="http://www.w3.org/2000/svg"><g><path d="M440 48.238V320H248v16a16.192 16.192 0 0 1-1.922 7.602L248 344h216V48.238zm0 0" fill="#00ccb3"></path><path d="M299.602 32H248v288h192V32zm0 0" fill="#e6e7e8"></path><path d="M456 72v32l-18.8 3.762a66.874 66.874 0 0 1-6.321 15.199l10.64 15.918-22.64 22.64-15.918-10.64a66.874 66.874 0 0 1-15.2 6.32L384 176h-32l-3.762-18.8a66.874 66.874 0 0 1-15.199-6.321l-15.918 10.64-22.64-22.64 10.64-15.918a66.874 66.874 0 0 1-6.32-15.2L280 104V72l18.8-3.762a66.874 66.874 0 0 1 6.321-15.199l-10.64-15.918 22.64-22.64 15.918 10.64a66.874 66.874 0 0 1 15.2-6.32L352 0h32l3.762 18.8a66.874 66.874 0 0 1 15.199 6.321l15.918-10.64 22.64 22.64-10.64 15.918a66.874 66.874 0 0 1 6.32 15.2zm0 0" fill="#ffa733"></path><path d="M216 336v-16H24V48.238H0V344h216l1.922-.398A16.192 16.192 0 0 1 216 336zm0 0" fill="#00ccb3"></path><path d="M24 32h192v288H24zm0 0" fill="#e6e7e8"></path><path d="M208 384h176v32H208zm0 0" fill="#5aaae7"></path><path d="M400 384c8.824.027 15.973 7.176 16 16-.066 8.809-7.191 15.934-16 16h-16v-32zm0 0" fill="#3d9ae2"></path><path d="M208 384v32h-8l-40-16 40-16zm0 0" fill="#1e81ce"></path><path d="M40 408h48c0 13.254-10.746 24-24 24s-24-10.746-24-24zm0 0" fill="#898890"></path><path d="M93.2 376.879A16.107 16.107 0 0 1 104 392c-.066 8.809-7.191 15.934-16 16H40c-8.824-.027-15.973-7.176-16-16a15.637 15.637 0 0 1 4.719-11.281 15.256 15.256 0 0 1 6.082-3.84A15.815 15.815 0 0 1 40 376h48c1.77 0 3.527.297 5.2.879zm0 0" fill="#acabb1"></path><path d="M56 144h128v64H56zm0 0" fill="#78b9eb"></path><path d="M408 88c0 22.09-17.91 40-40 40s-40-17.91-40-40 17.91-40 40-40 40 17.91 40 40zm0 0" fill="#ff6243"></path><path d="M248 320v16c0 8.836-7.164 16-16 16s-16-7.164-16-16V48h32zm0 0" fill="#ff9811"></path><path d="M64 256c-35.328.043-63.957 28.672-64 64a62.98 62.98 0 0 0 4.719 24A63.89 63.89 0 0 0 34.8 376.879 15.815 15.815 0 0 1 40 376h48c1.77 0 3.527.297 5.2.879A63.89 63.89 0 0 0 123.28 344 62.98 62.98 0 0 0 128 320c0-35.348-28.652-64-64-64zm0 0" fill="#ffd422"></path><path d="M48 72h32v16H48zm0 0" fill="#acabb1"></path><path d="M96 72h96v16H96zM48 104h144v16H48zm0 0" fill="#c6c5ca"></path><g fill="#1e81ce"><path d="M112 168h16v16h-16zM144 168h16v16h-16zM80 168h16v16H80zm0 0" fill="#1e81ce"></path></g><path d="M296 232h112v16H296zM296 264h112v16H296zm0 0" fill="#c6c5ca"></path><path d="M272.8 173.55a129.345 129.345 0 0 1-12.73-16.718l13.489-8.61a112.284 112.284 0 0 0 11.136 14.633zM368 216a127.836 127.836 0 0 1-84.695-32l10.59-12c32.433 28.594 78.41 35.996 118.175 19.023l6.305 14.704A127.102 127.102 0 0 1 368 216zm0 0" fill="#ee8700"></path><path d="M80 344a8.003 8.003 0 0 1-6.656-3.559L64 326.398l-9.344 14.043a8.312 8.312 0 0 1-13.312 0l-16-24 13.312-8.882L48 321.602l9.344-14.016c1.57-2.102 4.035-3.336 6.656-3.336s5.086 1.234 6.656 3.336L80 321.602l9.344-14.016 13.312 8.879-16 24A8.006 8.006 0 0 1 80 344zm0 0" fill="#ddb200"></path></g></svg>