<svg viewBox="0 0 455.111 455.111" xmlns="http://www.w3.org/2000/svg"><g><path d="M227.556 0C102.4 0 0 102.4 0 227.556s102.4 227.556 227.556 227.556 227.556-102.4 227.556-227.556S352.711 0 227.556 0z" fill="#e24c4b"></path><path d="M227.556 412.444c-102.4 0-184.889-82.489-184.889-184.889S125.156 42.667 227.556 42.667s184.889 82.489 184.889 184.889-82.489 184.888-184.889 184.888z" fill="#ffffff"></path><path d="m106.667 267.378 32.711-2.844c4.267 32.711 48.356 34.133 48.356-9.956 0-35.556-31.289-39.822-51.2-18.489l-27.022-4.267 17.067-88.178h86.756v29.867h-61.156l-5.689 28.444c32.711-15.644 73.956 4.267 73.956 51.2 0 31.289-21.333 59.733-58.311 59.733-32.713 1.423-52.624-17.066-55.468-45.51zM292.978 140.8c44.089 0 55.467 42.667 55.467 86.756s-9.956 86.756-55.467 86.756c-46.933 0-55.467-42.667-55.467-86.756 0-45.512 11.378-86.756 55.467-86.756zm0 27.022c-21.333 0-21.333 36.978-21.333 59.733 0 19.911 1.422 34.133 2.844 41.244 7.111 25.6 29.867 24.178 35.556 1.422 2.844-8.533 2.844-22.756 2.844-42.667 1.422-25.598 1.422-59.732-19.911-59.732z" fill="#3f4448"></path></g></svg>