<svg viewBox="0 0 60 60" xmlns="http://www.w3.org/2000/svg"><g><path d="M41 53V9a3 3 0 0 0-3-3H4a3 3 0 0 0-3 3v44a3 3 0 0 0 3 3h34a3 3 0 0 0 3-3z" fill="#703d36"></path><path d="M37 52V11c0-.55-.45-1-1-1H6c-.55 0-1 .45-1 1v40c0 .55.45 1 1 1z" fill="#ffffff"></path><path d="M28 6v4a1 1 0 0 1-1 1H15a1 1 0 0 1-1-1V6a1 1 0 0 1 1-1h2c0-2.21 1.79-4 4-4s4 1.79 4 4h2a1 1 0 0 1 1 1z" fill="#dce4ea"></path><circle cx="41" cy="41" fill="#2aa869" r="18"></circle><path d="m31.384 45.339 5.936 4.433a1.146 1.146 0 0 0 1.545-.161L50.763 36.07a.951.951 0 0 0-.123-1.374l-3.121-2.487a.962.962 0 0 0-1.406.229l-7.946 12.309-3.039-3.782a.96.96 0 0 0-1.497 0l-2.421 3.013a.952.952 0 0 0 .173 1.36z" fill="#ffffff"></path><path d="M21 6.016c-.553 0-1-.432-1-.984v-.031a1 1 0 1 1 2 0c0 .553-.447 1.016-1 1.016zM24 21H10a1 1 0 1 1 0-2h14a1 1 0 1 1 0 2z" fill="#bcc7ce"></path><path d="M30 22a.995.995 0 0 1-.707-.293l-1-1a.999.999 0 1 1 1.414-1.414l.185.185 2.309-3.077A1 1 0 0 1 33.8 17.6l-3 4a.996.996 0 0 1-.8.4z" fill="#2aa869"></path><g fill="#bcc7ce"><path d="M21 32H10a1 1 0 1 1 0-2h11a1 1 0 1 1 0 2zM18 43h-8a1 1 0 1 1 0-2h8a1 1 0 1 1 0 2z" fill="#bcc7ce"></path></g></g></svg>