<svg viewBox="0 0 512 512" xmlns="http://www.w3.org/2000/svg"><g><path d="M221 136h30v60h-30z" fill="#7a7a93"></path><path d="M236 136h15v60h-15z" fill="#616173"></path><path d="M276 151h-80c-8.284 0-15-6.716-15-15s6.716-15 15-15h80c8.284 0 15 6.716 15 15s-6.716 15-15 15z" fill="#ff6378"></path><path d="M276 121h-40v30h40c8.284 0 15-6.716 15-15s-6.716-15-15-15z" fill="#ff1f3d"></path><path d="m161.754 232.967-21.213-21.213c-5.858-5.858-5.858-15.355 0-21.213 5.858-5.858 15.355-5.858 21.213 0l21.213 21.213z" fill="#7a7a93"></path><path d="m289.033 211.754 21.213-21.213c5.858-5.858 15.355-5.858 21.213 0 5.858 5.858 5.858 15.355 0 21.213l-21.213 21.213z" fill="#616173"></path><path d="m114.088 351.811-1.121-115.956c-.08-8.284-6.885-14.968-15.144-14.854-8.284.08-14.935 6.86-14.854 15.144l.707 73.129L27.343 227.7A15.001 15.001 0 0 0 0 236.224V356c0 8.284 6.716 15 15 15s15-6.716 15-15v-71.658l53.647 77.685c4.409 6.367 11.76 9.074 18.731 6.897 7.113-2.223 11.71-8.883 11.71-16.968a3.505 3.505 0 0 0 0-.145z" fill="#7a7a93"></path><path d="M499.925 221.509c-8.128-1.619-16.021 3.659-17.64 11.783l-13.905 69.869-22.051-71.577c-2.438-7.917-10.836-12.357-18.751-9.919-5.377 1.656-9.144 6.063-10.247 11.2l-21.763 70.309-13.862-70.084c-1.607-8.127-9.507-13.412-17.625-11.804-8.127 1.607-13.412 9.499-11.805 17.625l23.38 118.198c.142.718.337 1.425.582 2.115a17.724 17.724 0 0 0 16.685 11.777h.122a17.723 17.723 0 0 0 16.773-12.4l22.177-71.65 22.078 71.665c.062.203.129.404.2.604a17.721 17.721 0 0 0 16.687 11.781h.122a17.723 17.723 0 0 0 16.645-12.01 15.18 15.18 0 0 0 .51-1.898l23.474-117.943c1.614-8.127-3.661-16.024-11.786-17.641z" fill="#616173"></path><circle cx="236" cy="286" fill="#fff5f5" r="90"></circle><path d="M236 196v180c49.706 0 90-40.294 90-90s-40.294-90-90-90z" fill="#e2dff4"></path><path d="M236 391c-57.897 0-105-47.103-105-105s47.103-105 105-105 105 47.103 105 105-47.103 105-105 105zm0-180c-41.355 0-75 33.645-75 75s33.645 75 75 75 75-33.645 75-75-33.645-75-75-75z" fill="#ff6378"></path><path d="M236 181v30c41.355 0 75 33.645 75 75s-33.645 75-75 75v30c57.897 0 105-47.103 105-105s-47.103-105-105-105z" fill="#ff1f3d"></path><path d="M225.393 296.607c-5.858-5.858-5.858-15.355 0-21.213l21.213-21.213c5.858-5.858 15.355-5.858 21.213 0 5.858 5.858 5.858 15.355 0 21.213l-21.213 21.213c-5.857 5.857-15.355 5.857-21.213 0z" fill="#7a7a93"></path><path d="M267.82 254.18c-5.858-5.858-15.355-5.858-21.213 0L236 264.787V301c3.839 0 7.677-1.465 10.606-4.394l21.213-21.213c5.858-5.858 5.858-15.355.001-21.213z" fill="#616173"></path></g></svg>