<svg id="Capa_1" enable-background="new 0 0 497 497" height="512" viewBox="0 0 497 497" width="512" xmlns="http://www.w3.org/2000/svg"><g><path d="m225.918 141.947 18.439 57.9-206.906 58.069c-15.081 4.232-30.838-4.069-35.876-18.9-5.405-15.913 3.567-33.117 19.709-37.792z" fill="#ffb09e"/><path d="m244.36 199.85-118.95 69.37-13.62 7.94-64.86 37.83c-14.68 8.56-33.52 3.23-41.55-11.74-2.42-4.51-3.57-9.36-3.57-14.16 0-10.36 5.39-20.43 14.97-25.98l209.14-121.16 6.15 19.31 4.63 14.54z" fill="#ffcebf"/><path d="m253.69 166.66-40.37 93.11-.87 2-.63 1.46-1.4.68-12.59 6.18c-.72.35-1.43.74-2.11 1.15-4.62 2.76-8.32 6.7-10.77 11.33-.03.04-.05.09-.06.13-2.24 4.23-3.42 9.03-3.34 14.01l.56 51c.08 5.05 1.52 9.98 4.16 14.28 2.82 4.58 4.17 9.68 4.17 14.73 0 3.86-.79 7.68-2.32 11.23-.01.02-.02.04-.03.06-1.89 4.33-4.89 8.24-8.92 11.26-1.47 1.1-3.01 2.04-4.6 2.81-3.9 1.91-8.1 2.83-12.26 2.83-9.81 0-19.43-5.11-24.64-14.44l-4.04-7.22c-5.64-10.1-8.6-21.47-8.6-33.04v-73.93c0-23.87 12.57-45.98 33.09-58.19l7.11-3.83 73.77-39.7z" fill="#ffcebf"/><g><path d="m197.83 270.095 5.369-2.632-28.912 2.632c-10.127 4.965-16.472 15.335-16.283 26.611l.563 51.003c.085 5.048 1.523 9.98 4.164 14.282 7.611 12.395 4.534 28.547-7.1 37.276-1.635 1.226-3.356 2.241-5.13 3.061 9.024 4.132 20.03 3.424 28.673-3.061 11.635-8.729 14.711-24.881 7.1-37.276-2.642-4.302-4.08-9.234-4.164-14.282l-.564-51.003c-.188-11.277 6.157-21.647 16.284-26.611z" fill="#ffb09e"/></g><path d="m472.87 83.91v187.78h-62.91c-2.39 0-4.7.42-6.85 1.22-5.96 2.17-10.69 7.11-12.43 13.5l-4.09 14.96-110.42 22.39 4.08-4.71c4.49-5.2 7-11.83 7.06-18.7l.16-18.91v-.24c0-5.04-1.52-9.95-4.35-14.11-1.8-2.66-3.89-5.07-6.2-7.21-9.84-9.12-24.11-11.63-36.7-7.03l-28.4 10.38 14.1-121.28 148.66-51.75c9.23-3.21 18.82-5.21 28.53-5.95 2.89-.23 5.79-.34 8.69-.34z" fill="#ffcebf"/><path d="m472.87 83.91v187.78h-62.91c-2.39 0-4.7.42-6.85 1.22v-188.66c2.89-.23 5.79-.34 8.69-.34z" fill="#ffb09e"/><path d="m497 77.385v203.926c0 7.043-5.709 12.752-12.752 12.752h-44.841c-7.043 0-12.752-5.709-12.752-12.752v-203.926c0-7.043 5.709-12.752 12.752-12.752h44.841c7.043 0 12.752 5.709 12.752 12.752z" fill="#cde2ff"/><path d="m484.248 64.633h-23.543c7.043 0 12.752 5.709 12.752 12.752v203.926c0 7.043-5.709 12.752-12.752 12.752h23.543c7.043 0 12.752-5.709 12.752-12.752v-203.926c0-7.043-5.709-12.752-12.752-12.752z" fill="#b3dafe"/><path d="m250.135 432.367c4.199 0 8.418-1.757 11.401-5.322l28.379-33.824c2.595-3.095 5.588-5.833 8.908-8.142l62.8-43.809c11.219-7.826 19.339-19.337 22.947-32.532l4.961-18.141-65.435-40.325-35.735 59.394-55.011 63.634c-11.472 16.447-9.48 38.748 4.709 52.907 2.963 4.086 7.509 6.16 12.076 6.16z" fill="#ffcebf"/><g><path d="m362.274 302.475-1.247 6.263c-3.608 13.194-11.728 24.706-22.947 32.532l-62.8 43.809c-3.32 2.309-6.313 5.047-8.908 8.142l-27.997 33.369c2.964 3.821 7.346 5.778 11.76 5.778 4.199 0 8.418-1.757 11.401-5.322l28.379-33.824c2.595-3.095 5.588-5.833 8.908-8.142l62.8-43.809c11.218-7.826 19.338-19.337 22.947-32.531l4.962-18.142c-10.743-6.621-24.794-.498-27.258 11.877z" fill="#ffb09e"/></g><path d="m239 174.56-2.3 1.24-71.35 38.39c-.04.02-.08.05-.12.07l-7.11 3.83c-18.48 11-30.51 30.02-32.71 51.13l-13.62 7.94v-6.3c0-26.38 14.08-51.15 36.75-64.64.09-.06.18-.11.28-.16l83.07-44.71c.06-.03.12-.06.18-.09 3.62-1.83 8.05-.45 9.98 3.14 1.96 3.65.6 8.2-3.05 10.16z" fill="#ffb09e"/><circle cx="461.828" cy="258.6" fill="#26a6fe" r="7.397"/></g></svg>