<svg viewBox="0 0 512 512" xmlns="http://www.w3.org/2000/svg"><g><g fill="#f24d6e"><path d="M97.4 148.6v211.1H44V209.6c-5.9 1.2-11.8 2.5-17.8 3.8s-11.9 2.6-17.8 3.8v-49.4c14.7-3.2 29.5-6.4 44.5-9.6s29.8-6.3 44.5-9.6zM215.7 364c-25.5.4-49.7-11-65.7-30.8-8.3-10.2-14.6-21.9-18.6-34.5-4.5-13.9-6.7-28.4-6.6-43-.1-14.5 2.1-29 6.6-42.9 4-12.5 10.3-24 18.6-34.2 7.9-9.5 17.7-17.2 28.8-22.6 11.5-5.5 24.2-8.2 36.9-8.1 12.7-.2 25.3 2.6 36.8 8.1 11.1 5.4 20.9 13.1 28.9 22.6 8.4 10.1 14.7 21.7 18.8 34.2 4.5 13.8 6.7 28.3 6.6 42.9.1 14.6-2.1 29.1-6.6 43-4 12.6-10.4 24.3-18.8 34.5-7.9 9.6-17.7 17.3-28.8 22.7-11.6 5.5-24.1 8.2-36.9 8.1zm0-50.4c8.1 0 15-2.4 20.6-7.2s9.9-11.5 13-20.3c3.1-8.7 4.6-18.9 4.6-30.5s-1.5-21.7-4.6-30.3c-3-8.7-7.4-15.3-13-20s-12.5-7-20.6-7c-7.4-.2-14.7 2.3-20.4 7s-10.1 11.3-13.1 19.8c-3.1 8.5-4.6 18.7-4.6 30.5 0 11.6 1.5 21.8 4.6 30.5s7.4 15.5 13.1 20.3c5.7 4.9 13 7.4 20.4 7.2zM412.8 364c-25.5.4-49.7-11-65.7-30.8-8.3-10.2-14.6-21.9-18.6-34.5-4.5-13.9-6.7-28.4-6.5-43-.1-14.5 2.1-29 6.5-42.9 4-12.5 10.3-24 18.6-34.2 7.9-9.5 17.7-17.2 28.8-22.6 11.5-5.5 24.2-8.2 36.9-8.1 12.7-.2 25.3 2.6 36.8 8.1a86.87 86.87 0 0 1 28.8 22.6c8.4 10.1 14.7 21.7 18.8 34.2 4.5 13.8 6.7 28.3 6.6 42.9.1 14.6-2.1 29.1-6.6 43-4 12.6-10.4 24.3-18.8 34.5-7.9 9.6-17.7 17.3-28.8 22.7-11.5 5.5-24.1 8.2-36.8 8.1zm0-50.4c8.1 0 15-2.4 20.6-7.2s9.9-11.5 13-20.3c3-8.7 4.6-18.9 4.6-30.5s-1.5-21.7-4.6-30.3c-3.1-8.7-7.4-15.3-13-20s-12.5-7-20.6-7c-7.4-.2-14.7 2.3-20.4 7s-10.1 11.3-13.1 19.8c-3.1 8.5-4.6 18.7-4.6 30.5 0 11.6 1.5 21.8 4.6 30.5s7.4 15.5 13.1 20.3c5.7 4.9 12.9 7.4 20.4 7.2z" fill="#f24d6e"></path></g></g></svg>