<svg viewBox="0 0 256 256" xmlns="http://www.w3.org/2000/svg"><g><path d="M57.255 70.814h-12.92c-11.972 0-21.677 9.705-21.677 21.677v13.638a2.296 2.296 0 0 0 2.297 2.297h51.68a2.296 2.296 0 0 0 2.297-2.297V92.491c.001-11.972-9.705-21.677-21.677-21.677z" fill="#478cf7"></path><path d="M66.842 73.044a21.581 21.581 0 0 1 2.23 9.586v13.638a2.296 2.296 0 0 1-2.297 2.297H22.658v7.564a2.296 2.296 0 0 0 2.297 2.297h51.68a2.296 2.296 0 0 0 2.297-2.297V92.491c0-8.53-4.927-15.909-12.09-19.447z" fill="#377de2"></path><circle cx="50.795" cy="61.052" fill="#fcc4ae" r="18.088" transform="rotate(-76.7 50.812 61.068)"></circle><path d="M28.66 105.7c-1.11 0-2-.89-2-2V92.49c0-3.33.93-6.58 2.71-9.4 1.459-2.152 4.742-.119 3.38 2.14a13.598 13.598 0 0 0-2.09 7.26v11.21a2 2 0 0 1-2 2zm8.16-24.96c-2.028.034-2.757-2.821-.96-3.76 3.05-1.339 4.282 3.501.96 3.76z" fill="#5e9cf7"></path><path d="M57.67 44.316a18.03 18.03 0 0 1 1.352 6.875c0 9.99-8.098 18.088-18.088 18.088-2.434 0-4.755-.481-6.875-1.352 2.706 6.58 9.18 11.213 16.736 11.213 9.99 0 18.088-8.098 18.088-18.088.001-7.556-4.632-14.03-11.213-16.736z" fill="#f2ad97"></path><path d="M134.46 70.814h-12.92c-11.972 0-21.677 9.705-21.677 21.677v13.638a2.296 2.296 0 0 0 2.297 2.297h51.68a2.296 2.296 0 0 0 2.297-2.297V92.491c0-11.972-9.705-21.677-21.677-21.677z" fill="#f79219"></path><path d="M144.046 73.044a21.581 21.581 0 0 1 2.23 9.586v13.638a2.296 2.296 0 0 1-2.297 2.297H99.863v7.564a2.296 2.296 0 0 0 2.297 2.297h51.68a2.296 2.296 0 0 0 2.297-2.297V92.491c0-8.53-4.927-15.909-12.091-19.447z" fill="#ef7816"></path><circle cx="128" cy="61.052" fill="#fcc4ae" r="18.088" transform="rotate(-76.7 128.038 61.065)"></circle><path d="M134.875 44.316a18.03 18.03 0 0 1 1.352 6.875c0 9.99-8.098 18.088-18.088 18.088-2.434 0-4.755-.481-6.875-1.352 2.706 6.58 9.18 11.213 16.736 11.213 9.99 0 18.088-8.098 18.088-18.088 0-7.556-4.633-14.03-11.213-16.736z" fill="#f2ad97"></path><path d="M211.665 70.814h-12.92c-11.972 0-21.677 9.705-21.677 21.677v13.638a2.296 2.296 0 0 0 2.297 2.297h51.68a2.296 2.296 0 0 0 2.297-2.297V92.491c0-11.972-9.705-21.677-21.677-21.677z" fill="#8c3f0a"></path><path d="M221.251 73.044a21.581 21.581 0 0 1 2.23 9.586v13.638a2.296 2.296 0 0 1-2.297 2.297h-44.117v7.564a2.296 2.296 0 0 0 2.297 2.297h51.68a2.296 2.296 0 0 0 2.297-2.297V92.491c.001-8.53-4.927-15.909-12.09-19.447z" fill="#7c3108"></path><circle cx="205.205" cy="61.052" fill="#fcc4ae" r="18.088" transform="rotate(-76.7 205.264 61.062)"></circle><path d="M212.08 44.316a18.03 18.03 0 0 1 1.352 6.875c0 9.99-8.098 18.088-18.088 18.088-2.434 0-4.755-.481-6.875-1.352 2.706 6.58 9.18 11.213 16.736 11.213 9.99 0 18.088-8.098 18.088-18.088 0-7.556-4.633-14.03-11.213-16.736z" fill="#f2ad97"></path><path d="M95.858 98.664h-12.92c-11.972 0-21.677 9.705-21.677 21.677v13.638a2.296 2.296 0 0 0 2.297 2.297h51.68a2.296 2.296 0 0 0 2.297-2.297v-13.638c0-11.972-9.706-21.677-21.677-21.677z" fill="#e63950"></path><path d="M105.444 100.894a21.581 21.581 0 0 1 2.23 9.586v13.638a2.296 2.296 0 0 1-2.297 2.297H61.26v7.564a2.296 2.296 0 0 0 2.297 2.297h51.68a2.296 2.296 0 0 0 2.297-2.297v-13.638c.001-8.53-4.927-15.909-12.09-19.447z" fill="#d10028"></path><circle cx="89.397" cy="88.902" fill="#fcc4ae" r="18.088" transform="rotate(-76.7 89.426 88.925)"></circle><path d="M96.273 72.166a18.03 18.03 0 0 1 1.352 6.875c0 9.99-8.098 18.088-18.088 18.088-2.434 0-4.755-.481-6.875-1.352 2.706 6.58 9.18 11.213 16.736 11.213 9.99 0 18.088-8.098 18.088-18.088 0-7.556-4.633-14.029-11.213-16.736z" fill="#f2ad97"></path><path d="M173.062 98.664h-12.92c-11.972 0-21.677 9.705-21.677 21.677v13.638a2.296 2.296 0 0 0 2.297 2.297h51.68a2.296 2.296 0 0 0 2.297-2.297v-13.638c0-11.972-9.705-21.677-21.677-21.677z" fill="#58595b"></path><path d="M182.554 100.85a21.582 21.582 0 0 1 2.186 9.491v13.638a2.296 2.296 0 0 1-2.297 2.296h-43.977v7.704a2.296 2.296 0 0 0 2.297 2.296h51.68a2.296 2.296 0 0 0 2.297-2.296v-13.638c-.001-8.567-4.972-15.972-12.186-19.491z" fill="#414042"></path><circle cx="166.602" cy="88.902" fill="#fcc4ae" r="18.088" transform="rotate(-76.7 166.652 88.922)"></circle><path d="M173.477 72.166a18.03 18.03 0 0 1 1.352 6.875c0 9.99-8.098 18.088-18.088 18.088-2.434 0-4.755-.481-6.875-1.352 2.706 6.58 9.18 11.213 16.736 11.213 9.99 0 18.088-8.098 18.088-18.088 0-7.556-4.633-14.029-11.213-16.736z" fill="#f2ad97"></path><path d="M57.255 147.574h-12.92c-11.972 0-21.677 9.705-21.677 21.677v13.638a2.296 2.296 0 0 0 2.297 2.297h51.68a2.296 2.296 0 0 0 2.297-2.297v-13.638c.001-11.972-9.705-21.677-21.677-21.677z" fill="#8c3f0a"></path><path d="M66.842 149.804a21.581 21.581 0 0 1 2.23 9.586v13.638a2.296 2.296 0 0 1-2.297 2.297H22.658v7.564a2.296 2.296 0 0 0 2.297 2.297h51.68a2.296 2.296 0 0 0 2.297-2.297v-13.638c0-8.53-4.927-15.909-12.09-19.447z" fill="#7c3108"></path><circle cx="50.795" cy="137.812" fill="#fcc4ae" r="18.088" transform="rotate(-76.7 50.814 137.85)"></circle><path d="M57.67 121.077a18.03 18.03 0 0 1 1.352 6.875c0 9.99-8.098 18.088-18.088 18.088-2.434 0-4.755-.481-6.875-1.352 2.706 6.58 9.18 11.213 16.736 11.213 9.99 0 18.088-8.098 18.088-18.088.001-7.557-4.632-14.03-11.213-16.736z" fill="#f2ad97"></path><path d="M134.46 147.574h-12.92c-11.972 0-21.677 9.705-21.677 21.677v13.638a2.296 2.296 0 0 0 2.297 2.297h51.68a2.296 2.296 0 0 0 2.297-2.297v-13.638c0-11.972-9.705-21.677-21.677-21.677z" fill="#76a34f"></path><path d="M144.046 149.804a21.581 21.581 0 0 1 2.23 9.586v13.638a2.296 2.296 0 0 1-2.297 2.297H99.863v7.564a2.296 2.296 0 0 0 2.297 2.297h51.68a2.296 2.296 0 0 0 2.297-2.297v-13.638c0-8.53-4.927-15.909-12.091-19.447z" fill="#648940"></path><circle cx="128" cy="137.812" fill="#fcc4ae" r="18.088" transform="rotate(-76.7 128.04 137.847)"></circle><path d="M134.875 121.077a18.03 18.03 0 0 1 1.352 6.875c0 9.99-8.098 18.088-18.088 18.088-2.434 0-4.755-.481-6.875-1.352 2.706 6.58 9.18 11.213 16.736 11.213 9.99 0 18.088-8.098 18.088-18.088 0-7.557-4.633-14.03-11.213-16.736z" fill="#f2ad97"></path><path d="M211.665 147.574h-12.92c-11.972 0-21.677 9.705-21.677 21.677v13.638a2.296 2.296 0 0 0 2.297 2.297h51.68a2.296 2.296 0 0 0 2.297-2.297v-13.638c0-11.972-9.705-21.677-21.677-21.677z" fill="#478cf7"></path><path d="M221.251 149.804a21.581 21.581 0 0 1 2.23 9.586v13.638a2.296 2.296 0 0 1-2.297 2.297h-44.117v7.564a2.296 2.296 0 0 0 2.297 2.297h51.68a2.296 2.296 0 0 0 2.297-2.297v-13.638c.001-8.53-4.927-15.909-12.09-19.447z" fill="#377de2"></path><circle cx="205.205" cy="137.812" fill="#fcc4ae" r="18.088" transform="rotate(-76.7 205.267 137.844)"></circle><path d="M212.08 121.077a18.03 18.03 0 0 1 1.352 6.875c0 9.99-8.098 18.088-18.088 18.088-2.434 0-4.755-.481-6.875-1.352 2.706 6.58 9.18 11.213 16.736 11.213 9.99 0 18.088-8.098 18.088-18.088 0-7.557-4.633-14.03-11.213-16.736z" fill="#f2ad97"></path><path d="M95.858 175.424h-12.92c-11.972 0-21.677 9.705-21.677 21.677v13.638a2.296 2.296 0 0 0 2.297 2.297h51.68a2.296 2.296 0 0 0 2.297-2.297v-13.638c0-11.971-9.706-21.677-21.677-21.677z" fill="#58595b"></path><path d="M105.444 177.654a21.581 21.581 0 0 1 2.23 9.586v13.638a2.296 2.296 0 0 1-2.297 2.297H61.26v7.564a2.296 2.296 0 0 0 2.297 2.297h51.68a2.296 2.296 0 0 0 2.297-2.297v-13.638c.001-8.53-4.927-15.909-12.09-19.447z" fill="#414042"></path><circle cx="89.397" cy="165.662" fill="#fcc4ae" r="18.088" transform="rotate(-76.7 89.428 165.706)"></circle><path d="M96.273 148.927a18.03 18.03 0 0 1 1.352 6.875c0 9.99-8.098 18.088-18.088 18.088-2.434 0-4.755-.481-6.875-1.352 2.706 6.58 9.18 11.213 16.736 11.213 9.99 0 18.088-8.098 18.088-18.088 0-7.557-4.633-14.03-11.213-16.736z" fill="#f2ad97"></path><path d="M173.062 175.424h-12.92c-11.972 0-21.677 9.705-21.677 21.677v13.638a2.296 2.296 0 0 0 2.297 2.297h51.68a2.296 2.296 0 0 0 2.297-2.297v-13.638c0-11.971-9.705-21.677-21.677-21.677z" fill="#e63950"></path><path d="M182.554 177.61a21.582 21.582 0 0 1 2.186 9.491v13.638a2.296 2.296 0 0 1-2.297 2.296h-43.977v7.704a2.296 2.296 0 0 0 2.297 2.296h51.68a2.296 2.296 0 0 0 2.297-2.296v-13.638c-.001-8.567-4.972-15.971-12.186-19.491z" fill="#d10028"></path><path d="M185.682 179.482a21.57 21.57 0 0 1 4.057 12.62v13.638a2.296 2.296 0 0 1-2.297 2.296h-48.977v2.704a2.296 2.296 0 0 0 2.297 2.296h51.68a2.296 2.296 0 0 0 2.297-2.296v-13.638c0-7.263-3.575-13.687-9.057-17.62z" fill="#b7022d"></path><circle cx="166.602" cy="165.662" fill="#fcc4ae" r="18.088" transform="rotate(-76.7 166.655 165.704)"></circle><path d="M173.477 148.927a18.03 18.03 0 0 1 1.352 6.875c0 9.99-8.098 18.088-18.088 18.088-2.434 0-4.755-.481-6.875-1.352 2.706 6.58 9.18 11.213 16.736 11.213 9.99 0 18.088-8.098 18.088-18.088 0-7.557-4.633-14.03-11.213-16.736z" fill="#f2ad97"></path></g></svg>