<svg viewBox="0 0 501 501" xmlns="http://www.w3.org/2000/svg"><g><path d="M5.5 256c0-135.134 109.405-244.715 244.472-244.999 135.72-.286 245.187 108.652 245.527 244.372.187 74.493-32.873 141.268-85.175 186.324a7.105 7.105 0 0 1-9.013.207C359.731 409.383 307.379 390 250.5 390c-56.977 0-109.41 19.449-151.025 52.071a6.775 6.775 0 0 1-8.592-.195C38.608 396.944 5.5 330.339 5.5 256z" fill="#05a2f9"></path><path d="M443.5 161.667c14.824 13.384 29.412 21.831 42.928 27.775 5.858 20.954 9.013 43.062 9.071 65.931.187 74.493-32.873 141.268-85.175 186.324a7.105 7.105 0 0 1-9.013.207C359.731 409.383 307.379 390 250.5 390c-56.977 0-109.41 19.449-151.025 52.071a6.775 6.775 0 0 1-8.592-.195C38.608 396.943 5.5 330.338 5.5 256c0-1.972.024-3.938.07-5.899 16.603-28.568 37.887-51.374 55.263-48.435 8.62 1.458 13.859 8.843 16.667 12.667C102.121 247.876 167.079 317.385 204.833 323c74.491 11.08 150.152-210.645 206-195.333 11.534 3.162 9.281 12.885 32.667 34z" fill="#0280e3"></path><path d="M355 380H146c-33.137 0-60-26.863-60-60s26.863-60 60-60h209c33.137 0 60 26.863 60 60s-26.863 60-60 60z" fill="#004b92"></path><path d="M146 380c-33.137 0-60-26.863-60-60s26.863-60 60-60 60 26.863 60 60-26.863 60-60 60z" fill="#002c5d"></path><path d="M175 320c0 16.569-13.431 30-30 30s-30-13.431-30-30 13.431-30 30-30 30 13.431 30 30z" fill="#004b92"></path><path d="M160 320c0 8.284-6.716 15-15 15s-15-6.716-15-15 6.716-15 15-15 15 6.716 15 15z" fill="#002c5d"></path><path d="M199.5 310h102c8.284 0 15 6.716 15 15 0 8.284-6.716 15-15 15h-102c-8.284 0-15-6.716-15-15 0-8.284 6.716-15 15-15z" fill="#e55920"></path><path d="M159.819 130.251a44.969 44.969 0 0 1-12.061 8.623c.353 16.619-8.553 32.795-24.312 40.953a5 5 0 0 1-6.739-2.142c-6.064-11.714-6.478-24.859-2.232-36.326a44.81 44.81 0 0 1-18.296-11.108 5 5 0 0 1 0-7.071c17.574-17.574 46.066-17.574 63.64 0a5.001 5.001 0 0 1 0 7.071z" fill="#fc9302"></path><path d="M121.075 464.063A245.814 245.814 0 0 1 90.5 441.545V400c0-38.66 31.34-70 70-70 0 0 12.801 5.911.74 15.766C145.529 358.602 135.5 378.13 135.5 400v56.091c0 7.404-8.142 11.889-14.425 7.972z" fill="#e1a595"></path><path d="M410.5 400v41.545C367.574 478.594 311.653 501 250.5 501c-47.757 0-92.322-13.664-130-37.296V400c0-38.66 31.34-67.125 70-67.125h150c38.66 0 70 28.465 70 67.125z" fill="#eac0b5"></path><path d="M205.5 347v8c0 24.853 20.147 45 45 45s45-20.147 45-45v-8h16.833v111.805c-19.752 5.136-40.473 7.87-61.833 7.87s-42.081-2.734-61.833-7.87V347z" fill="#fff5f5"></path><path d="M140.5 240c-13.807 0-25-11.193-25-25v-10c0-13.807 11.193-25 25-25s25 11.193 25 25v10c0 13.807-11.193 25-25 25z" fill="#f4e0d8"></path><path d="M130.5 200v20c0 8.178 3.927 15.439 9.998 20-13.806-.001-24.998-11.193-24.998-25v-10c0-13.807 11.192-24.999 24.998-25-6.071 4.561-9.998 11.822-9.998 20zm230-20v-20c0-60.751-49.249-110-110-110s-110 49.249-110 110v40c0 50.351 33.83 92.8 80 105.859V340c0 16.568 13.431 30 30 30 16.569 0 30-13.432 30-30v-34.141c33.586-9.499 60.641-34.551 72.895-66.883A24.984 24.984 0 0 0 360.5 240c13.807 0 25-11.193 25-25v-10c0-13.807-11.193-25-25-25z" fill="#eac0b5"></path><path d="M360.5 160v40c0 50.792-34.425 93.543-81.216 106.195a52.827 52.827 0 0 1-27.568 0C204.925 293.543 170.5 250.792 170.5 200v-40c0-55.663 41.345-101.669 95-108.985 53.655 7.316 95 53.322 95 108.985z" fill="#f4e0d8"></path><path d="M218 167.5c0 8.284-6.716 15-15 15s-15-6.716-15-15 6.716-15 15-15 15 6.716 15 15zm80-15c-8.284 0-15 6.716-15 15s6.716 15 15 15 15-6.716 15-15-6.716-15-15-15z" fill="#533022"></path><path d="M220.5 160a7.5 7.5 0 1 1-15 0 7.5 7.5 0 0 1 15 0zm87.5-7.5a7.5 7.5 0 1 0 0 15 7.5 7.5 0 0 0 0-15z" fill="#fff5f5"></path><path d="M236 206.731a7.5 7.5 0 0 1 10.606-10.607c1.042 1.042 2.424 1.616 3.893 1.616s2.851-.574 3.893-1.616a7.501 7.501 0 0 1 10.606 10.607c-3.875 3.875-9.024 6.009-14.5 6.009s-10.623-2.134-14.498-6.009zm44.803 27.601a7.501 7.501 0 0 0-10.606 0c-10.861 10.861-28.532 10.861-39.394 0a7.501 7.501 0 0 0-10.606 10.607c8.354 8.354 19.329 12.531 30.303 12.531s21.949-4.177 30.303-12.531a7.5 7.5 0 0 0 0-10.607z" fill="#dd9683"></path><path d="M205.5 210c0 5.523-4.477 10-10 10h-30c-5.523 0-10-4.477-10-10s4.477-10 10-10h30c5.523 0 10 4.477 10 10zm130-10h-30c-5.523 0-10 4.477-10 10s4.477 10 10 10h30c5.523 0 10-4.477 10-10s-4.477-10-10-10z" fill="#e55920"></path><path d="M363.464 106.37h-29.78C310.082 133.877 281.413 150 250.5 150s-59.582-16.123-83.184-43.63h-29.78c-3.624-34.712 10.289-64.639 37.454-76.25 8.149-1.013 16.555-.537 24.955 1.262C212.832 14.255 230.577 2.699 250.5 0c19.923 2.699 37.667 14.255 50.556 31.382 8.4-1.799 16.806-2.275 24.955-1.262 27.165 11.611 41.078 41.538 37.453 76.25z" fill="#c92222"></path><path d="M350.614 50c10.489 14.672 15.126 34.578 12.85 56.37h-29.78C310.082 133.877 281.413 150 250.5 150c-26.114 0-50.627-11.506-71.837-31.661C195.083 78.244 234.493 50 280.5 50z" fill="#d63d24"></path><path d="M364.5 136h-230c-5.523 0-10-4.477-10-10V86c0-5.523 4.477-10 10-10h230c5.523 0 10 4.477 10 10v40c0 5.523-4.477 10-10 10z" fill="#fc9302"></path><path d="M365.5 136h-201c-5.523 0-10-4.477-10-10V86c0-5.523 4.477-10 10-10h201c5.523 0 10 4.477 10 10v40c0 5.523-4.477 10-10 10z" fill="#fcb30b"></path><path d="M183.211 107.683c.891 4.19-3.977 7.615-5.752 8.864-5.289 3.722-12.076 3.811-12.555 2.548-.3-.792 2.11-1.498 3.415-4.644.88-2.123.25-2.927.883-5.484.336-1.358 1.296-5.232 4.021-6.472 3.389-1.542 9.132 1.161 9.988 5.188zm42.9-14.987c-.455-.714-2.462.796-5.764-.039-2.228-.563-2.496-1.55-4.924-2.571-1.289-.542-4.969-2.089-7.592-.646-3.262 1.795-4.529 8.014-1.812 11.108 2.827 3.219 8.482 1.365 10.545.689 6.144-2.014 10.273-7.402 9.547-8.541zm94.937 14.987c.891 4.19-3.977 7.615-5.752 8.864-5.289 3.722-12.076 3.811-12.555 2.548-.3-.792 2.11-1.498 3.415-4.644.88-2.123.25-2.927.883-5.484.336-1.358 1.296-5.232 4.021-6.472 3.389-1.542 9.132 1.161 9.988 5.188zm42.9-14.987c-.455-.714-2.462.796-5.764-.039-2.228-.563-2.496-1.55-4.924-2.571-1.289-.542-4.969-2.089-7.592-.646-3.262 1.795-4.529 8.014-1.812 11.108 2.827 3.219 8.482 1.365 10.545.689 6.145-2.014 10.273-7.402 9.547-8.541zm-88.623 8.289c-.891-4.19 3.977-7.615 5.752-8.864 5.289-3.722 12.076-3.811 12.555-2.548.3.792-2.11 1.498-3.415 4.644-.88 2.123-.25 2.927-.883 5.484-.336 1.358-1.296 5.232-4.021 6.472-3.389 1.542-9.132-1.16-9.988-5.188zm-42.9 14.988c.455.714 2.462-.796 5.764.039 2.228.563 2.496 1.55 4.924 2.571 1.289.542 4.969 2.089 7.592.646 3.262-1.795 4.529-8.014 1.812-11.108-2.827-3.219-8.482-1.365-10.545-.689-6.144 2.014-10.273 7.401-9.547 8.541z" fill="#fc9302"></path><path d="m320.5 350-70 100-70-100h20l50 80 50-80z" fill="#002c5d"></path><path d="M340.5 330c5.149 0 10.168.556 15 1.611v117.265c0 18.144-11.542 34.399-28.787 40.038a243.454 243.454 0 0 1-41.544 9.652c-2.461.349-4.668-1.549-4.668-4.035V330zm-195 1.611a70.259 70.259 0 0 1 15-1.611h60v164.43c0 2.539-2.254 4.478-4.767 4.121a243.508 243.508 0 0 1-41.826-9.762c-17.009-5.593-28.407-21.608-28.407-39.513z" fill="#e55920"></path><path d="M345.5 355v27.5a7.5 7.5 0 0 1-7.5 7.5h-35a7.5 7.5 0 0 1-7.5-7.5V355a7.5 7.5 0 0 1 7.5-7.5h35a7.5 7.5 0 0 1 7.5 7.5zM198 347.5h-35a7.5 7.5 0 0 0-7.5 7.5v27.5a7.5 7.5 0 0 0 7.5 7.5h35a7.5 7.5 0 0 0 7.5-7.5V355a7.5 7.5 0 0 0-7.5-7.5z" fill="#d63d24"></path><path d="M295.5 470.858a44.805 44.805 0 0 1-9.441 27.58C274.45 500.126 262.577 501 250.5 501s-23.95-.874-35.559-2.562a44.807 44.807 0 0 1-9.441-27.58c0-23.163 17.5-42.237 40-44.725v-5.275a5 5 0 0 1 10 0v5.275c22.5 2.488 40 21.562 40 44.725z" fill="#0ab59e"></path><path d="M263 500.687a245.931 245.931 0 0 1-23.059-2.249 44.807 44.807 0 0 1-9.441-27.58c0-20.516 13.729-37.824 32.5-43.24 18.771 5.417 32.5 22.725 32.5 43.24a44.805 44.805 0 0 1-9.441 27.58A246.268 246.268 0 0 1 263 500.687z" fill="#0ed1b2"></path><path d="M285.5 470.858c0 12.339-6.385 23.186-16.031 29.418a248.597 248.597 0 0 1-37.938 0c-9.646-6.232-16.031-17.08-16.031-29.418 0-19.33 15.67-35 35-35s35 15.67 35 35z" fill="#003c79"></path><path d="m232.216 470.858 16.605-25.686a2 2 0 0 1 3.359 0l16.605 25.686z" fill="#f52c2c"></path><path d="m268.784 470.858-16.605 25.686a2 2 0 0 1-3.359 0l-16.605-25.686z" fill="#fde5bd"></path><path d="M175.5 330.403v158.903a243.57 243.57 0 0 1-40-16.919V333.543c0-2.155 1.373-4.087 3.423-4.751a69.945 69.945 0 0 1 21.577-3.389h10a5 5 0 0 1 5 5zm186.577-1.611a69.945 69.945 0 0 0-21.577-3.389h-10a5 5 0 0 0-5 5v158.903a243.57 243.57 0 0 0 40-16.919V333.543c0-2.154-1.373-4.087-3.423-4.751z" fill="#002c5d"></path><path d="M175.5 330.403v76.548c0 8.284-6.716 15-15 15a70.42 70.42 0 0 1-12.97-1.199c-7.018-1.315-12.03-7.565-12.03-14.705v-72.504c0-2.155 1.373-4.087 3.423-4.751a69.945 69.945 0 0 1 21.577-3.389h10a5 5 0 0 1 5 5zm186.577-1.611a69.945 69.945 0 0 0-21.577-3.389h-10a5 5 0 0 0-5 5v76.548c0 8.284 6.716 15 15 15a70.42 70.42 0 0 0 12.97-1.199c7.018-1.315 12.03-7.565 12.03-14.705v-72.504c0-2.154-1.373-4.087-3.423-4.751z" fill="#003c79"></path></g></svg>