<svg viewBox="0 0 682.667 682.667" xmlns="http://www.w3.org/2000/svg"><g><defs><clippath clippathunits="userSpaceOnUse" id="a"><path d="M0 512h512V0H0Z" fill="#000000"></path></clippath></defs><g clip-path="url(#a)" transform="matrix(1.33333 0 0 -1.33333 0 682.667)"><path d="M0 0h36.548v70.445a2.578 2.578 0 0 1-2.575 2.576H2.576A2.579 2.579 0 0 1 0 70.445Zm44.275-15.453H-7.726a7.727 7.727 0 0 0-7.727 7.726v78.172c0 9.941 8.088 18.029 18.029 18.029h31.397c9.941 0 18.028-8.088 18.028-18.029V-7.727a7.726 7.726 0 0 0-7.726-7.726" fill="#554e56" transform="translate(343.32 143.71)"></path><path d="M0 0h-65.506c-12.635 0-22.877 10.242-22.877 22.876V128.56c0 12.634 10.242 22.877 22.877 22.877H0c12.634 0 22.876-10.243 22.876-22.877V22.876C22.876 10.242 12.634 0 0 0" fill="#c59191" transform="translate(394.348)"></path><path d="M0 0h-30.905C-18.271 0-8.029-10.242-8.029-22.876V-128.56c0-12.634-10.242-22.877-22.876-22.877H0c12.634 0 22.876 10.243 22.876 22.877v105.684C22.876-10.242 12.634 0 0 0" fill="#b98080" transform="translate(394.348 151.436)"></path><path d="M0 0a7.726 7.726 0 0 0-7.727 7.727v78.325a7.727 7.727 0 0 0 15.453 0V7.727A7.726 7.726 0 0 0 0 0" fill="#d7b2b2" transform="translate(346.142 32.033)"></path><path d="M0 0a7.727 7.727 0 0 0-7.727 7.727v78.325a7.728 7.728 0 0 0 15.453 0V7.727A7.726 7.726 0 0 0 0 0" fill="#d7b2b2" transform="translate(377.047 32.033)"></path><path d="m0 0-96.939 33.387-1.178-13.946C-99.046 8.449-108.239 0-119.27 0c-12.096 0-21.747 10.093-21.207 22.177l6.119 136.707a41.206 41.206 0 0 0 25.862 36.418l39.638 15.855a20.604 20.604 0 0 1 12.952 19.13v16.956h54.415v-16.055a20.603 20.603 0 0 1 14.089-19.546l17.229-5.743a41.209 41.209 0 0 0 22.842-18.816l66.207-117.131c7.716-13.649-2.145-30.55-17.824-30.55a20.473 20.473 0 0 0-17.37 9.636l-46.541 74.584V62.946Z" fill="#b0e6a0" transform="translate(235.274 165.046)"></path><path d="m0 0-66.208 117.132a41.204 41.204 0 0 1-22.842 18.815l-17.229 5.743a20.604 20.604 0 0 0-14.088 19.546v16.056h-24.403v-31.508a20.606 20.606 0 0 1 14.088-19.547l17.229-5.742a41.208 41.208 0 0 0 22.843-18.816l66.207-117.132c2.69-4.757 3.238-9.909 2.154-14.604a20.482 20.482 0 0 1 4.425-.493C-2.146-30.55 7.715-13.649 0 0" fill="#8ddaa7" transform="translate(354.15 234.998)"></path><path d="M0 0c-7.325 3.3-27.593 10.609-27.593 18.771l15.453 16.056h-54.416V17.871c0-7.99-4.617-15.209-11.765-18.603C-70.997-14.793-56.299-24.4-39.348-24.4-22.104-24.4-7.189-14.459 0 0" fill="#ffcebf" transform="translate(245.923 377.463)"></path><path d="m0 0 5.693-1.897C12.862 2.416 18.712 8.7 22.455 16.228a20.536 20.536 0 0 0-7.001 5.174c-2.871 3.464-5.163 7.844-5.139 13.597v16.055h-24.403V19.546A20.603 20.603 0 0 1 0 0" fill="#ffb09e" transform="translate(223.468 361.235)"></path><path d="m0 0 8.703-13.947a20.475 20.475 0 0 1 12.943-9.152c1.438-.318 4.427 14.969 4.427 14.969 15.679 0 10.087 1.448 2.372 15.097l6.881 15.164z" fill="#ffcebf" transform="translate(310.253 228.031)"></path><path d="m0 0-8.571 15.165L-33.043-.167l8.64-15.286c2.69-4.757 3.238-9.909 2.154-14.604h.004a20.792 20.792 0 0 1 4.421-.493C-2.146-30.55 7.715-13.649 0 0" fill="#ffb09e" transform="translate(354.15 234.998)"></path><path d="M0 0h-43.119l-.588-13.147c-.541-12.084 9.11-22.177 21.207-22.177 11.031 0 20.224 8.449 21.152 19.441L-.169-1.937l.566-.195z" fill="#ffcebf" transform="translate(138.504 200.37)"></path><path d="m0 0-15.453-195.952h-100.774L-131.679 0Z" fill="#ffcebf" transform="translate(272.415 211.404)"></path><path d="M272.415 226.857H140.736v61.811h131.679z" fill="#b0e6a0"></path><path d="M0 0a7.727 7.727 0 0 0-7.727 7.726v61.811a7.728 7.728 0 0 0 15.453 0V7.726A7.726 7.726 0 0 0 0 0" fill="#8ddaa7" transform="translate(148.462 219.13)"></path><path d="M0 0a7.726 7.726 0 0 0-7.726 7.726v61.811a7.727 7.727 0 1 0 15.453 0V7.726A7.727 7.727 0 0 0 0 0" fill="#8ddaa7" transform="translate(264.688 219.13)"></path><path d="M0 0c-26.042 0-47.152 21.111-47.152 47.152V95.2c0 15.284 12.391 27.675 27.676 27.675h38.953c15.284 0 27.675-12.391 27.675-27.675V47.152C47.152 21.111 26.042 0 0 0" fill="#ffcebf" transform="translate(206.575 389.125)"></path><path d="M0 0v21.501c0 15.285 12.391 27.676 27.676 27.676h38.952c15.285 0 27.676-12.391 27.676-27.676V0Z" fill="#c59191" transform="translate(159.423 462.823)"></path><path d="M0 0v21.5c0 15.286-12.391 27.677-27.676 27.677h-30.906c15.286 0 27.677-12.391 27.677-27.677V0z" fill="#b98080" transform="translate(253.727 462.823)"></path><path d="M0 0v-26.546c.22-2.384 1.277-16.317-8.932-27.61-13.386-14.807-33.506-11.095-34.523-10.889 4.293-2.963 11.039-6.683 19.902-8.085a46.524 46.524 0 0 1 7.306-.569c26.041 0 47.152 21.111 47.152 47.153V0" fill="#ffb09e" transform="translate(222.822 462.823)"></path><path d="M0 0h-136.631a7.726 7.726 0 0 0-7.726 7.727 7.726 7.726 0 0 0 7.726 7.726H0A7.727 7.727 0 1 0 0 0" fill="#685e68" transform="translate(274.89 456.117)"></path><path d="M0 0h-30.905a7.727 7.727 0 0 0 0-15.453H0A7.728 7.728 0 0 1 0 0" fill="#554e56" transform="translate(274.89 471.57)"></path><path d="M0 0h131.679l7.072-83.721c.508-6.01-4.234-11.169-10.265-11.169H3.193c-6.031 0-10.773 5.159-10.265 11.169z" fill="#ffe180" transform="translate(140.736 226.857)"></path><path d="m0 0-7.072 83.721h-30.905L-30.905 0c.507-6.01-4.234-11.169-10.266-11.169h30.906C-4.233-11.169.508-6.01 0 0" fill="#fbd270" transform="translate(279.487 143.136)"></path><path d="M0 0v166.527a7.726 7.726 0 0 0 7.727 7.726 7.726 7.726 0 0 0 7.726-7.726V0Z" fill="#fbd270" transform="translate(198.85 8.271)"></path><path d="M198.849 132.106h15.453V8.271h-15.453z" fill="#ffb09e"></path><path d="M0 0h-49.297a8.27 8.27 0 0 0-8.271 8.271c0 12.501 10.133 22.634 22.633 22.634h20.573c12.5 0 22.633-10.133 22.633-22.634A8.27 8.27 0 0 0 0 0" fill="#554e56" transform="translate(264.144)"></path><path d="M0 0h-20.572c-1.779 0-3.507-.211-5.167-.6 10.01-2.338 17.468-11.312 17.468-22.034a8.272 8.272 0 0 0-8.272-8.271h30.905a8.271 8.271 0 0 1 8.272 8.271C22.634-10.133 12.5 0 0 0" fill="#433f43" transform="translate(249.781 30.905)"></path><path d="M0 0h-49.296a8.271 8.271 0 0 0-8.272 8.271c0 12.501 10.133 22.634 22.634 22.634h20.572c12.5 0 22.633-10.133 22.633-22.634A8.27 8.27 0 0 0 0 0" fill="#554e56" transform="translate(198.304)"></path><path d="M0 0h-20.572c-1.778 0-3.506-.211-5.166-.6C-15.729-2.938-8.271-11.912-8.271-22.634a8.272 8.272 0 0 0-8.272-8.271h30.905a8.271 8.271 0 0 1 8.272 8.271C22.634-10.133 12.5 0 0 0" fill="#433f43" transform="translate(183.941 30.905)"></path></g></g></svg>