<svg viewBox="0 0 512 512" xmlns="http://www.w3.org/2000/svg"><g><path d="m468.603 358.474-19.978-94.306a7.724 7.724 0 0 0-9.16-5.957 7.68 7.68 0 0 0-3.659 1.91 7.682 7.682 0 0 0-3.961-4.124 7.676 7.676 0 0 0 3.961-4.119 7.714 7.714 0 0 0 5.268 2.08 7.73 7.73 0 0 0 7.551-6.127l18.73-88.415a7.726 7.726 0 0 0-5.957-9.16 7.725 7.725 0 0 0-9.16 5.957l-18.435 87.021a7.806 7.806 0 0 0-.818-.65l-86.928-58.977a7.686 7.686 0 0 0-2.998-1.211 7.694 7.694 0 0 0 1.185-2.844l25.176-129.31 79.801 93.143a7.707 7.707 0 0 0 5.871 2.699 7.726 7.726 0 0 0 5.864-12.753L375.45 33.529a7.727 7.727 0 0 0-13.3 2.924 7.74 7.74 0 0 0-5.544 3.006 7.685 7.685 0 0 0 .679-4.91 7.724 7.724 0 0 0-9.052-6.121L239.686 49.4a7.728 7.728 0 0 0 2.932 15.173L351.163 43.6a7.688 7.688 0 0 0 4.661-2.893 7.707 7.707 0 0 0-.674 1.965L330.125 171.21l-83.999-70.667c-3.265-2.748-8.139-2.327-10.886.939s-2.327 8.139.939 10.886l86.597 72.853-86.251 64.517a7.706 7.706 0 0 0-3.09 6.261 7.708 7.708 0 0 0 3.09 6.261l86.251 64.517-89.687 75.453a7.726 7.726 0 0 0 4.978 13.639 7.7 7.7 0 0 0 4.97-1.814l87.089-73.267 24.994 128.375-112.501-21.738c-4.187-.814-8.243 1.931-9.052 6.121s1.931 8.243 6.12 9.052l117.218 22.649a7.729 7.729 0 0 0 9.052-6.121c.034-.178.053-.355.075-.532a7.712 7.712 0 0 0 1.366-.648 7.688 7.688 0 0 0 3.987 1.115 7.707 7.707 0 0 0 5.871-2.699l82.745-96.58a7.725 7.725 0 0 0-.841-10.894 7.725 7.725 0 0 0-10.894.84l-78.847 92.03-24.297-124.794c-.815-4.189-4.869-6.928-9.06-6.107-.026.005-.051.014-.077.019a7.678 7.678 0 0 0-1.699-3.687 7.424 7.424 0 0 0-.418-.448c.244-.248.478-.51.692-.796.103-.138.193-.282.285-.425.143.278.298.552.478.817a7.72 7.72 0 0 0 10.732 2.055l86.928-58.977c.293-.199.561-.42.818-.65l19.682 92.911a7.729 7.729 0 0 0 7.551 6.127c.53 0 1.069-.055 1.609-.17a7.725 7.725 0 0 0 5.96-9.159zM337.38 315.606a7.685 7.685 0 0 0-2.141 2.182 7.687 7.687 0 0 0-2.237-2.658L253.953 256l79.049-59.13a7.687 7.687 0 0 0 2.237-2.658 7.712 7.712 0 0 0 2.141 2.182l86.928 58.977c.365.248.744.452 1.132.63a7.68 7.68 0 0 0-1.132.628z" fill="#4d66d2"></path><path d="M225.145 6.367h-7.917L190.443 29.1l-21.95 44.556L120.39 83.96l-42.238 37.342-9.958 67.392 28.158 88.342-24.038 28.069-4.121 45.672 15.796 48.991 59.932 34.111 23.492 8.585 22.342 43.268 28.888 19.96 6.563-.095c16.367-8.93 27.472-26.292 27.472-46.25V52.653c.001-19.984-11.132-37.367-27.533-46.286z" fill="#ff4fb9"></path><path d="M173.178 435.724c-.025-4.153-3.257-7.543-7.408-7.686-58.537-2.008-89.66-33.874-89.66-92.991 0-28.482 7.63-36.157 25.479-55.611a7.64 7.64 0 0 0 0-10.351C83.74 249.633 76.11 205.434 76.11 176.952c0-59.058 35.837-93.852 94.442-95.868 4.15-.143 7.381-3.532 7.406-7.685.15-25.052 22.036-54.364 47.186-67.032C217.68 2.307 209.123 0 200.027 0c-33.41 0-60.305 27.037-60.504 60.037-.025 4.153-3.256 7.543-7.406 7.685-58.606 2.016-105.456 50.172-105.456 109.23 0 28.482 10.894 54.419 28.743 73.872a7.64 7.64 0 0 1 0 10.351c-17.848 19.454-28.743 45.39-28.743 73.873 0 59.116 46.918 107.223 105.455 109.231 4.151.142 7.383 3.532 7.408 7.685.197 33.013 27.108 60.036 60.503 60.036 9.121 0 17.7-2.321 25.18-6.402-26.76-13.254-51.878-44.573-52.029-69.874z" fill="#ff29ab"></path><g fill="#f3239b"><path d="M157.194 433.767c-3.845-9.844-2.96-21.029 2.833-30.351a7.728 7.728 0 0 1 13.125 8.157c-4.071 6.551-3.734 14.789.859 20.988 4.197 5.665 11.131 8.465 18.092 7.309a7.726 7.726 0 1 1 2.533 15.243 34.49 34.49 0 0 1-5.67.469 33.927 33.927 0 0 1-23.078-9.044 95.087 95.087 0 0 1-25.926 12.24 60.385 60.385 0 0 1-.438-6.816c-.021-3.596-2.448-6.615-5.792-7.454 6.547-1.771 14.856-4.965 23.462-10.741zM139.524 60.037c.014-2.283.168-4.533.43-6.752 10.542 2.136 24.847 6.775 37.674 16.879a7.726 7.726 0 1 1-9.562 12.139c-12.338-9.718-26.753-13.297-35.522-14.616 3.942-.354 6.956-3.642 6.98-7.65zM55.404 261.175a7.633 7.633 0 0 0 .994-8.984c7.618 4.969 22.724 13.551 41.04 17.3 2.702-13.478 11.98-24.806 25.156-30.025a7.727 7.727 0 0 1 5.69 14.368c-9.847 3.9-16.21 13.266-16.21 23.859 0 9.682 5.359 18.438 13.987 22.853a7.727 7.727 0 0 1-7.039 13.756c-11.543-5.907-19.412-16.677-21.696-29.104-20.172-3.556-36.987-12.323-46.752-18.388a109.88 109.88 0 0 1 4.83-5.635zM180.496 165.604c2.724 9.355 1.707 19.579-3.287 28.499a7.724 7.724 0 0 1-10.516 2.968 7.727 7.727 0 0 1-2.968-10.516c4.384-7.831 3.555-17.388-2.112-24.349-5.179-6.361-13.385-9.248-21.415-7.534a7.728 7.728 0 0 1-3.225-15.113c13.475-2.875 27.23 1.842 36.111 12.304 8.542-2.824 15.238-9.585 17.925-18.378a7.726 7.726 0 0 1 14.777 4.517c-3.901 12.765-13.245 22.774-25.29 27.602zM182.433 356.093c-14.638 0-28.333-7.485-36.244-20.29a7.726 7.726 0 0 1 13.146-8.122c5.921 9.583 16.915 14.498 28.008 12.522 10.137-1.806 18.308-9.051 21.321-18.909a7.727 7.727 0 0 1 14.778 4.518c-4.718 15.432-17.511 26.775-33.388 29.604-2.553.455-5.1.677-7.621.677z" fill="#f3239b"></path></g><circle cx="364.889" cy="33.079" fill="#60b9fe" r="23.171"></circle><circle cx="462.167" cy="146.621" fill="#60b9fe" r="23.171"></circle><circle cx="335.199" cy="185.577" fill="#60b9fe" r="23.171"></circle><circle cx="364.889" cy="478.921" fill="#60b9fe" r="23.171"></circle><circle cx="462.167" cy="365.378" fill="#60b9fe" r="23.171"></circle><circle cx="438.996" cy="256" fill="#60b9fe" r="23.171"></circle><circle cx="335.199" cy="326.422" fill="#60b9fe" r="23.171"></circle></g></svg>