<svg viewBox="0 0 514.427 514.427" xmlns="http://www.w3.org/2000/svg"><g><path d="M16.074 514.426c-8.87 0-16.074-7.2-16.074-16.074V48.227C0 21.59 21.59 0 48.227 0h450.125c8.875 0 16.074 7.203 16.074 16.074 0 8.875-7.2 16.078-16.074 16.078H48.227c-8.872 0-16.075 7.203-16.075 16.075v450.125c0 8.875-7.203 16.074-16.078 16.074zm0 0" fill="#57565c"></path><g fill="#d7dee2"><path d="M80.379 482.277h32.152v32.149H80.38zM160.758 482.277h32.152v32.149h-32.152zM241.137 482.277h32.152v32.149h-32.152zM321.516 482.277h32.152v32.149h-32.152zM401.895 482.277h32.152v32.149h-32.152zM482.277 401.895h32.149v32.152h-32.149zM482.277 321.516h32.149v32.152h-32.149zM482.277 241.137h32.149v32.152h-32.149zM482.277 160.758h32.149v32.152h-32.149zM482.277 80.379h32.149v32.152h-32.149zM482.277 482.277h32.149v32.149h-32.149zm0 0" fill="#d7dee2"></path></g></g></svg>