<svg viewBox="0 0 512 512" xmlns="http://www.w3.org/2000/svg"><g><path d="M383.5 373.44S376 448 424 464v48h80V296l-56-112zM87.5 512v-48c48-16 40.741-89.073 40.741-89.073L64 184 7.5 296v216z" fill="#f4a56e"></path><path d="m424 104 24-8v278.927l-34.655.572s-66.189-14.8-121.6 29.4a10 10 0 0 0-3.745 7.816V424h-48v-10.2a10.007 10.007 0 0 0-5.239-8.8c-16.821-9.14-70.075-35.858-136.572-29.208L64 374.927V96l24 8 176 68.858z" fill="#087182"></path><path d="M88 229.655V80c20.411-.729 64.19.377 96 8a297.851 297.851 0 0 1 80 32v264a297.843 297.843 0 0 0-80-32c-31.81-7.623-75.589-8.729-96-8v-54.91" fill="#90e3f5"></path><path d="M424 289.557V344a214.375 214.375 0 0 0-64 0 218.3 218.3 0 0 0-96 40V120a218.3 218.3 0 0 1 96-40 214.359 214.359 0 0 1 64 0v150.067" fill="#77d8e8"></path><path d="M120 32h16v16h-16z" fill="#f69038"></path><path d="M376 168h16v16h-16z" fill="#0f8ca8"></path><path d="M424 32h16v16h-16zM0 189.694h16v16H0z" fill="#90e3f5"></path><path d="M232 464h16v16h-16z" fill="#f69038"></path><circle cx="180" cy="436" fill="#f69038" r="20"></circle><circle cx="52" cy="44" fill="#90e3f5" r="20"></circle><path d="M278.142 33.858 304 48l-25.858 14.142L264 88l-14.142-25.858L224 48l25.858-14.142L264 8z" fill="#f69038"></path><path d="M358.142 449.858 384 464l-25.858 14.142L344 504l-14.142-25.858L304 464l25.858-14.142L344 424z" fill="#90e3f5"></path><g fill="#0f8ca8"><path d="M228.031 174.946c-53-30.289-106.37-23.1-106.9-23.026l-2.264-15.84c2.4-.341 59.382-8.009 117.1 24.974zM228.031 214.946c-53-30.289-106.37-23.1-106.9-23.026l-2.264-15.84c2.4-.341 59.382-8.009 117.1 24.974zM291.969 334.946l-7.937-13.893c57.718-32.982 114.7-25.314 117.1-24.974l-2.252 15.841c-.534-.071-54.129-7.133-106.911 23.026zM291.969 167.835l-7.937-13.893c57.718-32.982 114.7-25.315 117.1-24.974l-2.252 15.842c-.534-.072-54.129-7.135-106.911 23.025z" fill="#0f8ca8"></path></g><path d="M120.142 109.555c20.411-.729 64.19.377 96 8A297.1 297.1 0 0 1 264 133.432V120a297.851 297.851 0 0 0-80-32c-31.81-7.623-75.589-8.729-96-8v264c7.9-.282 19.3-.287 32.142.251z" fill="#fafcfc" opacity=".3"></path><path d="M396.365 208s-25.834 45.1-1.834 69.1l61.39 61.879L466.667 296zM115.955 208s25.834 45.1 1.834 69.1L56.4 338.979 45.654 296z" fill="#232626" opacity=".2"></path><path d="M504 512V296l-106.776-88a63.547 63.547 0 0 0 8 64L448 312v24s-48 0-32 80l8 48v48s82.014-2.014 80 0zM7.5 512V296l106.776-88a63.547 63.547 0 0 1-8 64L63.5 312v24s48 0 32 80l-8 48v48z" fill="#ffbe92"></path></g></svg>