<svg viewBox="0 0 512.001 512.001" xmlns="http://www.w3.org/2000/svg"><g><path d="M138.002 511.999H.003v-33.084a7 7 0 0 1 7-7h130.999z" fill="#fe646f"></path><path d="M20.604 471.914v40.087H.001v-33.087a7 7 0 0 1 7-7zM438.001 45.726h25a7 7 0 0 1 7 7v18a7 7 0 0 1-7 7h-18a7 7 0 0 1-7-7z" fill="#fd4755"></path><path d="M448.001 55.726h-47.833v-32h40.833a7 7 0 0 1 7 7z" fill="#fe646f"></path><path d="M400.168 95.452a7.726 7.726 0 0 1-7.726-7.726v-80a7.726 7.726 0 1 1 15.452 0v79.999a7.726 7.726 0 0 1-7.726 7.727z" fill="#68748f"></path><path d="M320.001 140.705c-13.255 0-24-10.745-24-24v-16c0-13.255 10.745-24 24-24s24 10.745 24 24v16c0 13.255-10.745 24-24 24z" fill="#ffcebf"></path><path d="M330.298 138.385a23.943 23.943 0 0 1-10.302 2.318c-13.248 0-23.993-10.745-23.993-23.993v-16.009c0-13.248 10.745-23.993 23.993-23.993 3.688 0 7.18.834 10.302 2.318-8.097 3.853-13.691 12.115-13.691 21.675v16.009c0 9.56 5.594 17.822 13.691 21.675z" fill="#ffb09e"></path><path d="M96.002 204.705c-13.255 0-24-10.745-24-24v-16c0-13.255 10.745-24 24-24s24 10.745 24 24v16c0 13.255-10.745 24-24 24z" fill="#ffcebf"></path><path d="M106.305 202.39a23.943 23.943 0 0 1-10.302 2.318C82.745 204.708 72 193.964 72 180.705v-15.999c0-13.259 10.745-24.003 24.003-24.003 3.688 0 7.18.835 10.302 2.318-8.108 3.853-13.701 12.115-13.701 21.685v15.999c0 9.57 5.594 17.832 13.701 21.685z" fill="#ffb09e"></path><path d="M205.543 182.906v36.056l-22.334 11.167a16.2 16.2 0 0 1-7.211 1.7h-47.996v79.87l-7.999 10H74.006v22.018l-20.395-.01c-11.94-.01-21.613-9.694-21.613-21.634v-90.862c0-17.4 14.114-31.503 31.513-31.503l108.685-.124z" fill="#aee69c"></path><path d="M205.543 182.906v7.726l-17.894 8.952-108.685.124c-17.4 0-31.513 14.103-31.513 31.503v90.862c0 10.199 7.057 18.749 16.555 21.026v.618l-10.395-.01c-11.94-.01-21.613-9.694-21.613-21.634v-90.862c0-17.4 14.114-31.503 31.513-31.503l108.685-.124z" fill="#89daa4"></path><path d="M416.123 103.685v42.382c0 11.95-9.684 21.634-21.634 21.634h-42.485v80.004l-8.003 10h-47.998l-8.005-10v-79.881h-9.323l-27.269 27.279a16.166 16.166 0 0 1-4.193 3.019l-41.671 20.841v-36.056l24.91-12.455 30.143-30.143a16.126 16.126 0 0 1 11.404-4.729l112.208.124v-32.018c0-8.818 7.149-15.958 15.958-15.958 8.819-.001 15.958 7.138 15.958 15.957z" fill="#8ac9fe"></path><g fill="#60b7ff"><path d="m272 135.579 14.66.021a16.119 16.119 0 0 0-10.611 4.708l-30.143 30.143-24.91 12.455v28.33l-15.453 7.726v-36.056l24.91-12.455 30.143-30.143A16.126 16.126 0 0 1 272 135.579zM303.452 167.824v89.881h-7.448l-8.005-10v-79.881zM407.892 89.726c-4.904 2.72-8.231 7.943-8.231 13.959v32.018l-15.453-.021v-31.998c0-8.818 7.149-15.958 15.958-15.958 2.802.001 5.439.722 7.726 2zM287.453 135.579l96.755.103v.021l-97.383-.103c.206-.021.422-.021.628-.021z" fill="#60b7ff"></path></g><path d="M71.729 319.431a7.726 7.726 0 0 1-7.726-7.726v-64.299a7.726 7.726 0 1 1 15.452 0v64.299a7.726 7.726 0 0 1-7.726 7.726z" fill="#89daa4"></path><path d="m182.911 345.138-54.909-33.433h-64v160.21h32V339.601l63.877 30.3v79.803h32.246v-90a16.123 16.123 0 0 0-9.214-14.566z" fill="#68748f"></path><path d="M64.006 311.7h15.453v160.215H64.006zM175.328 369.905V449.7h-15.453v-79.795l-48.419-22.973v-7.335z" fill="#5d6980"></path><path d="m406.91 281.138-54.909-33.433h-64v169.999h32V275.601l64.207 30.299v69.804l10 10h21.915v-90a16.12 16.12 0 0 0-9.213-14.566z" fill="#68748f"></path><path d="M287.999 247.705h15.453v169.998h-15.453zM399.331 305.9v79.805h-5.123l-10-10.001V305.9l-48.759-22.973v-7.325z" fill="#5d6980"></path><path d="M266.002 511.999h-138v-65.295a7 7 0 0 1 7-7h131z" fill="#ffe177"></path><path d="M148.605 439.7v72.301h-20.604V446.7a7 7 0 0 1 7-7z" fill="#ffd15b"></path><path d="M256.002 511.999h138.21V407.704h-131.21a7 7 0 0 0-7 7z" fill="#8ac9fe"></path><path d="M276.605 407.703v104.298h-20.604v-97.298a7 7 0 0 1 7-7z" fill="#60b7ff"></path><path d="M384.212 511.999H512V382.704a7 7 0 0 0-7-7H384.212z" fill="#aee69c"></path><path d="M384.208 375.705h20.604v136.296h-20.604z" fill="#89daa4"></path></g></svg>