<svg viewBox="0 0 96 96" xmlns="http://www.w3.org/2000/svg"><g><path d="M10.56 84.44h-1.1a3.84 3.84 0 1 1 0-7.67h1.1a1 1 0 0 1 1 1v5.67a1 1 0 0 1-1 1zm-1.1-5.67a1.84 1.84 0 1 0 .1 3.67v-3.67z" fill="#5d78a1"></path><path d="M66.23 11H29.76a13.82 13.82 0 0 0-13.58 16.33A164.19 164.19 0 0 1 17 82.26l-1.1 7.11h64.16L79 82.26a163.93 163.93 0 0 1 .85-54.93A13.81 13.81 0 0 0 66.23 11z" fill="#bd7b7e"></path><path d="M22.93 83.37a169.89 169.89 0 0 0-.85-57.13A7.81 7.81 0 0 1 29.76 17h36.47a7.81 7.81 0 0 1 7.68 9.24A169.56 169.56 0 0 0 73 83.18c.08.3 3.91.19-50.07.19z" fill="#ae536a"></path><path d="M33.12 74.37A178.3 178.3 0 0 0 31.19 26H64.8a178.72 178.72 0 0 0-1.94 48.37z" fill="#903551"></path><path d="m41 62.34-5.41 1.05-.54 8.93 4.68-.02-4.29 5.28 12.55 8.59z" fill="#5d78a1"></path><path d="m54.99 62.34 5.41 1.05.54 8.93-4.68-.02 4.29 5.28-12.56 8.59z" fill="#5d78a1"></path><path d="M81.29 89.37H14.71l6-18.24a9.24 9.24 0 0 1 7-6.2L41 62.33h14l13.29 2.6a9.24 9.24 0 0 1 7 6.2z" fill="#8aafdd"></path><path d="M79.45 89.37h-62.9l4.14-12.64a9.27 9.27 0 0 1 7-6.21L41 67.93h14l13.29 2.59a9.27 9.27 0 0 1 7 6.21z" fill="#5d78a1"></path><path d="m41 62.34-5.41 1.05-.54 8.93 4.68-.02-4.29 5.28 12.55 8.59z" fill="#5d91bf"></path><path d="M42.16 66.31 41 62.34l-5.41 1.05-.18 2.92z" fill="#ffffff"></path><path d="m54.99 62.34 5.41 1.05.54 8.93-4.68-.02 4.29 5.28-12.56 8.59z" fill="#5d91bf"></path><path d="m60.58 66.31-.18-2.92-5.41-1.05-1.17 3.97z" fill="#ffffff"></path><path d="M55 62.33c-.39 4.82-.5 8-1.9 12.75A46 46 0 0 1 48 86.17a46.93 46.93 0 0 1-5.1-11.09c-1.39-4.71-1.49-7.73-1.9-12.75z" fill="#e6ecf2"></path><path d="m49.27 75.9 1.52 5.19C50 82.67 49.46 83.6 48 86.17c-1.48-2.62-2-3.51-2.78-5.09l1.52-5.19-3.64-3.62 4.9-4.91 4.91 4.91z" fill="#ff526e"></path><path d="M48 70.22c-5.44 5.23-5 4.86-5.1 4.86-1.39-4.71-1.49-7.73-1.9-12.75zM55 62.33c-.39 4.82-.5 8-1.9 12.75L48 70.22z" fill="#e6ecf2"></path><path d="M1 89.37h94V95H1z" fill="#ff896a"></path><path d="M27.24 89.37h41.52V95H27.24z" fill="#ffc088"></path><path d="M1 89.37h94v2.44H1z" fill="#ffffff"></path><path d="M9.56 76.77h10.5v8.17a4.44 4.44 0 0 1-4.44 4.44H14a4.44 4.44 0 0 1-4.44-4.44v-8.17z" fill="#e6ecf2"></path><path d="M68.76 79h20.75l-3.89 10.37H64.87z" fill="#ff8350"></path><path d="M89.51 79H68.76l3.89 10.37H93.4z" fill="#ffca6e"></path><path d="M90.47 81.56 89.51 79H68.76l.96 2.56z" fill="#fff2c8"></path><path d="M85.8 85.19h-8.92a1 1 0 0 1 0-2h8.92a1 1 0 1 1 0 2z" fill="#ffffff"></path><path d="M55 62.33V52.22H41v10.11l7 7.89z" fill="#f88a7f"></path><path d="M44 60.91v-1.58a.76.76 0 0 1 .75-.75h6.5a.76.76 0 0 1 .75.75c0 1.64.06 1.79-.19 2.07l-3.25 3.66a.74.74 0 0 1-1.12 0C44 61.15 44 61.3 44 60.91z" fill="#f8ad9d"></path><path d="M26.92 1a9.12 9.12 0 0 0 8.71 6.43h.78a9.49 9.49 0 0 0-9.49 9.49v14.87h42.16V17.57A16.57 16.57 0 0 0 52.51 1z" fill="#3f3c6a"></path><path d="M58.32 11.94a2.54 2.54 0 0 0 1.43-4.63A12.51 12.51 0 0 0 52.51 5h-8.63A2.88 2.88 0 0 0 41 7.88v1.18a2.88 2.88 0 0 0 2.88 2.88z" fill="#6273a1"></path><path d="M69.14 39.76H26.86a4 4 0 0 1 0-8h42.28a4 4 0 0 1 0 8z" fill="#f88a7f"></path><path d="M66.54 31.79v6a18.54 18.54 0 0 1-37.08 0v-6l3.43-4.37a6.89 6.89 0 0 0 1.47-4l.2-5.43a2.33 2.33 0 0 1 2.32-2.24 85.86 85.86 0 0 0 21.95 0A2.33 2.33 0 0 1 61.44 18l.2 5.43a6.89 6.89 0 0 0 1.47 4z" fill="#f8ad9d"></path><path d="M48 53.35a15.55 15.55 0 0 1-15.54-15.53v-5l2.79-3.55a9.82 9.82 0 0 0 2.1-5.76l.18-4.69a87.77 87.77 0 0 0 20.94 0l.18 4.69a9.79 9.79 0 0 0 2.09 5.73l2.8 3.57v5A15.55 15.55 0 0 1 48 53.35z" fill="#fbc4ab"></path><g fill="#302d3d"><path d="M55.4 33.67a1 1 0 0 1-1-1v-.83a1 1 0 1 1 2 0v.83a1 1 0 0 1-1 1zM57.29 29.2h-3.78a1 1 0 0 1 0-2h3.78a1 1 0 0 1 0 2zM40.6 33.67a1 1 0 0 1-1-1v-.83a1 1 0 1 1 2 0v.83a1 1 0 0 1-1 1zM42.49 29.2h-3.78a1 1 0 0 1 0-2h3.78a1 1 0 0 1 0 2zM43.43 46a1 1 0 0 1 1.66-1.12 3.5 3.5 0 0 0 5.84 0 1 1 0 1 1 1.67 1.11 5.51 5.51 0 0 1-9.17.01z" fill="#302d3d"></path></g></g></svg>