<svg viewBox="0 0 512 512" xmlns="http://www.w3.org/2000/svg"><g><path d="M308.471 326.664c-5.449-1.362-9.697-5.684-10.986-11.162-11.543-49.775-51.182-89.414-100.986-101.001a15.026 15.026 0 0 1-11.162-10.972C182.465 191.986 181 179.359 181 166 181 75.019 255.033 0 346 0s166 75.019 166 166-75.033 165-166 165c-13.33 0-25.957-1.465-37.529-4.336zM199.604 199.896h.293z" fill="#99eeff"></path><path d="M512 166C512 75.019 436.967 0 346 0v331c90.967 0 166-74.019 166-165z" fill="#80bfff"></path><path d="M401.547 235.976c-28.301-31.729-82.793-31.729-111.094 0-5.508 6.152-15 6.709-21.182 1.23-6.182-5.522-6.709-15-1.201-21.182C287.874 193.759 316.293 181 346 181s58.124 12.759 77.93 35.024c5.508 6.182 4.98 15.659-1.201 21.182-6.222 5.492-15.666 4.968-21.182-1.23z" fill="#47568c"></path><path d="M401.547 235.976c5.515 6.198 14.96 6.722 21.182 1.23 6.182-5.522 6.709-15 1.201-21.182C404.125 193.759 375.707 181 346 181v31.179c20.698 0 41.396 7.932 55.547 23.797z" fill="#29376d"></path><path d="M286 166c-24.814 0-45-20.186-45-45 0-8.291 6.709-15 15-15s15 6.709 15 15c0 8.276 6.738 15 15 15s15-6.724 15-15c0-8.291 6.709-15 15-15s15 6.709 15 15c0 24.814-20.186 45-45 45z" fill="#47568c"></path><path d="M406 166c-24.814 0-45-20.186-45-45 0-8.291 6.709-15 15-15s15 6.709 15 15c0 8.276 6.738 15 15 15s15-6.724 15-15c0-8.291 6.709-15 15-15s15 6.709 15 15c0 24.814-20.186 45-45 45z" fill="#29376d"></path><path d="M165 512C74.033 512 0 436.981 0 346c0-13.359 1.465-25.986 4.336-37.529 14.092-60.601 62.52-109.043 123.369-123.179C139.043 182.465 151.67 181 165 181c90.967 0 166 74.019 166 165s-75.033 166-166 166z" fill="#ffe666"></path><path d="M331 346c0-90.981-75.033-165-166-165v331c90.967 0 166-75.019 166-166z" fill="#fabe2c"></path><path d="M66.387 381.024a14.982 14.982 0 0 1 1.875-13.682 15.027 15.027 0 0 1 12.246-6.343h168.984c4.863 0 9.434 2.373 12.246 6.343a14.981 14.981 0 0 1 1.875 13.682C248.76 422.875 209.121 451 165 451s-83.76-28.125-98.613-69.976z" fill="#ff99bb"></path><path d="M248.492 361H164v90c44.121 0 83.76-28.125 98.613-69.976 1.641-4.6.938-9.697-1.875-13.682A15.028 15.028 0 0 0 248.492 361z" fill="#ff6699"></path><path d="M135 331c-8.291 0-15-6.709-15-15 0-8.276-6.738-15-15-15s-15 6.724-15 15c0 8.291-6.709 15-15 15s-15-6.709-15-15c0-24.814 20.186-45 45-45s45 20.186 45 45c0 8.291-6.709 15-15 15z" fill="#704c55"></path><path d="M255 331c-8.291 0-15-6.709-15-15 0-8.276-6.738-15-15-15s-15 6.724-15 15c0 8.291-6.709 15-15 15s-15-6.709-15-15c0-24.814 20.186-45 45-45s45 20.186 45 45c0 8.291-6.709 15-15 15z" fill="#5b362a"></path></g></svg>