<svg viewBox="0 0 58 58" xmlns="http://www.w3.org/2000/svg"><g><g fill="none" fill-rule="nonzero"><path d="M28 54v2a2.006 2.006 0 0 1-2 2H2a2.006 2.006 0 0 1-2-2v-2a10.007 10.007 0 0 1 9.89-10h8.22A10.007 10.007 0 0 1 28 54z" fill="#3b97d3"></path><path d="M7 53v5H5v-5a1 1 0 0 1 2 0zM23 53v5h-2v-5a1 1 0 0 1 2 0z" fill="#2980ba"></path><path d="M23 37a8.992 8.992 0 0 1-15.87 5.8A9 9 0 1 1 23 37z" fill="#fdd7ad"></path><path d="M58 15.5C58 24.06 48.37 31 36.5 31c-3.28.015-6.54-.54-9.63-1.64l-7.6 4.34a1 1 0 0 1-1.44-1.18l2.32-6.96A13.231 13.231 0 0 1 15 15.5C15 6.94 24.63 0 36.5 0S58 6.94 58 15.5z" fill="#ff5364"></path><path d="m39.939 15.5 5.738 5.746a1.107 1.107 0 0 1 0 1.564l-1.867 1.866a1.107 1.107 0 0 1-1.564 0L36.5 18.939l-5.746 5.738a1.107 1.107 0 0 1-1.564 0l-1.866-1.867a1.107 1.107 0 0 1 0-1.564l5.737-5.746-5.738-5.746a1.107 1.107 0 0 1 0-1.564l1.867-1.866a1.107 1.107 0 0 1 1.564 0l5.746 5.737 5.746-5.738a1.107 1.107 0 0 1 1.564 0l1.866 1.867a1.107 1.107 0 0 1 0 1.564z" fill="#ffffff"></path></g></g></svg>