<?xml version="1.0" encoding="UTF-8" standalone="no"?>
<!-- Created with Inkscape (http://www.inkscape.org/) -->

<svg
   version="1.1"
   id="svg141"
   xml:space="preserve"
   width="682.66669"
   height="682.66669"
   viewBox="0 0 682.66669 682.66669"
   xmlns="http://www.w3.org/2000/svg"
   xmlns:svg="http://www.w3.org/2000/svg"><defs
     id="defs145"><clipPath
       clipPathUnits="userSpaceOnUse"
       id="clipPath155"><path
         d="M 0,512 H 512 V 0 H 0 Z"
         id="path153" /></clipPath></defs><g
     id="g147"
     transform="matrix(1.3333333,0,0,-1.3333333,0,682.66667)"><g
       id="g149"><g
         id="g151"
         clip-path="url(#clipPath155)"><g
           id="g157"
           transform="translate(294.9795,364.8364)"><path
             d="M 0,0 38.776,-106.272 211.324,-278.82 c 4.077,-4.077 4.102,-10.688 0.046,-14.787 -22.556,-22.799 -45.301,-45.411 -67.928,-68.14 -4.09,-4.109 -10.736,-4.122 -14.836,-0.022 L -45.309,-187.853 H -67.717 V 0.221 l -25.455,25.36 c -10.682,10.641 -10.699,27.933 -0.036,38.594 10.647,10.648 27.91,10.648 38.558,0 L -16.761,26.287 C -9.325,18.851 -3.604,9.879 0,0"
             style="fill:#ca6f59;fill-opacity:1;fill-rule:nonzero;stroke:none"
             id="path159" /></g><g
           id="g161"
           transform="translate(506.2593,86.0566)"><path
             d="m 0,0 -172.502,172.502 -38.784,106.279 c -3.602,9.883 -9.313,18.852 -16.755,26.282 l -37.883,37.895 c -5.332,5.321 -12.3,7.975 -19.279,7.975 -6.98,0 -13.959,-2.654 -19.279,-7.975 -4.966,-4.965 -7.608,-11.364 -7.94,-17.857 0.474,0.036 0.948,0.047 1.422,0.047 6.979,0 13.959,-2.654 19.279,-7.986 l 37.895,-37.884 c 7.43,-7.441 13.154,-16.411 16.756,-26.282 l 38.783,-106.279 26.77,-26.77 c -18.988,-19.037 -37.987,-38.064 -57.01,-57.078 l 106.848,-106.848 c 10.878,8.544 17.869,21.804 17.869,36.663 v 28.073 c 0,11.618 14.047,17.437 22.262,9.222 L -18.374,-33.196 0,-14.822 C 4.093,-10.729 4.093,-4.093 0,0"
             style="fill:#bc5d4c;fill-opacity:1;fill-rule:nonzero;stroke:none"
             id="path163" /></g><g
           id="g165"
           transform="translate(455.3418,213.9995)"><path
             d="m 0,0 -45.581,45.581 c -7.436,7.436 -16.407,13.156 -26.286,16.761 l -105.113,38.353 c -0.763,0.279 -1.451,0.73 -2.009,1.32 l -182.486,192.706 c -4.06,4.287 -10.862,4.374 -15.038,0.199 -25.11,-25.111 -48.008,-48.008 -73.131,-73.131 -4.092,-4.093 -4.102,-10.731 -0.009,-14.824 L -261.25,18.562 c 0.983,-0.983 1.529,-2.31 1.529,-3.7 v -100.43 c 0,-12.412 9.652,-22.984 22.056,-23.425 13.023,-0.463 23.725,9.957 23.725,22.876 v -24.603 c 0,-12.642 10.249,-22.891 22.891,-22.891 12.642,0 22.89,10.249 22.89,22.891 v -11.737 c 0,-12.412 9.652,-22.983 22.056,-23.424 13.023,-0.463 23.726,9.956 23.726,22.875 v -12.253 c 0,-12.642 10.248,-22.89 22.89,-22.89 12.642,0 22.89,10.248 22.89,22.89 v 122.166 c 0,4.671 5.65,7.008 8.95,3.702 l 29.075,-29.129 c 10.53,-10.557 27.588,-10.694 38.285,-0.308 h 0.001 C 10.626,-28.232 10.755,-10.755 0,0"
             style="fill:#ffcebf;fill-opacity:1;fill-rule:nonzero;stroke:none"
             id="path167" /></g><g
           id="g169"
           transform="translate(463.3228,194.7261)"><path
             d="m 0,0 c 0,-7.11 -2.759,-14.21 -8.266,-19.56 -4.183,-4.06 -9.342,-6.516 -14.703,-7.357 0.224,1.413 0.337,2.849 0.337,4.284 0,6.965 -2.659,13.941 -7.986,19.268 l -45.575,45.587 c -7.436,7.436 -16.408,13.155 -26.289,16.756 l -105.117,38.359 c -0.762,0.278 -1.45,0.73 -2.008,1.32 l -189.891,200.53 15.017,15.017 c 4.172,4.172 10.965,4.08 15.022,-0.204 l 182.484,-192.711 c 0.558,-0.589 1.246,-1.041 2.009,-1.319 L -79.85,81.61 c 9.881,-3.6 18.853,-9.32 26.289,-16.756 L -7.985,19.279 C -2.658,13.952 0,6.976 0,0"
             style="fill:#ffb09e;fill-opacity:1;fill-rule:nonzero;stroke:none"
             id="path171" /></g><g
           id="g173"
           transform="translate(141.7339,217.5562)"><path
             d="m 0,0 v 0 c 0,-12.642 10.248,-22.891 22.89,-22.891 h 27.946 c 12.642,0 22.891,10.249 22.891,22.891 0,12.642 -10.249,22.891 -22.891,22.891 H 22.89 C 10.248,22.891 0,12.642 0,0"
             style="fill:#f89580;fill-opacity:1;fill-rule:nonzero;stroke:none"
             id="path175" /></g><g
           id="g177"
           transform="translate(215.4658,217.5615)"><path
             d="m 0,0 c 0,-12.644 -10.25,-22.894 -22.894,-22.894 h -26.33 c 12.644,0 22.894,10.25 22.894,22.894 0,6.316 -2.56,12.04 -6.707,16.175 -4.135,4.147 -9.871,6.707 -16.187,6.707 h 26.33 c 6.316,0 12.051,-2.56 16.187,-6.707 C -2.56,12.04 0,6.316 0,0"
             style="fill:#ec806c;fill-opacity:1;fill-rule:nonzero;stroke:none"
             id="path179" /></g><g
           id="g181"
           transform="translate(104.8608,263.3374)"><path
             d="m 0,0 v 0 c 0,-12.642 10.249,-22.891 22.891,-22.891 h 46.675 c 12.642,0 22.891,10.249 22.891,22.891 0,12.642 -10.249,22.891 -22.891,22.891 H 22.891 C 10.249,22.891 0,12.642 0,0"
             style="fill:#ffb09e;fill-opacity:1;fill-rule:nonzero;stroke:none"
             id="path183" /></g><g
           id="g185"
           transform="translate(197.312,263.3364)"><path
             d="m 0,0 c 0,-12.644 -10.238,-22.893 -22.881,-22.893 h -26.33 c 12.643,0 22.893,10.249 22.893,22.893 0,6.316 -2.559,12.051 -6.707,16.187 -4.147,4.147 -9.859,6.707 -16.186,6.707 h 26.33 c 6.327,0 12.039,-2.56 16.186,-6.707 C -2.56,12.051 0,6.316 0,0"
             style="fill:#fba08d;fill-opacity:1;fill-rule:nonzero;stroke:none"
             id="path187" /></g><g
           id="g189"
           transform="translate(77.6157,309.1182)"><path
             d="m 0,0 v 0 c 0,-12.642 10.249,-22.89 22.891,-22.89 h 47.214 c 12.642,0 22.891,10.248 22.891,22.89 0,12.642 -10.249,22.891 -22.891,22.891 H 22.891 C 10.249,22.891 0,12.642 0,0"
             style="fill:#f89580;fill-opacity:1;fill-rule:nonzero;stroke:none"
             id="path191" /></g><g
           id="g193"
           transform="translate(170.6147,309.1235)"><path
             d="m 0,0 c 0,-12.644 -10.25,-22.894 -22.894,-22.894 h -26.329 c 12.643,0 22.893,10.25 22.893,22.894 0,6.316 -2.559,12.039 -6.707,16.174 -4.147,4.148 -9.859,6.708 -16.186,6.708 h 26.329 c 6.329,0 12.04,-2.56 16.187,-6.708 C -2.56,12.039 0,6.316 0,0"
             style="fill:#ec806c;fill-opacity:1;fill-rule:nonzero;stroke:none"
             id="path195" /></g><g
           id="g197"
           transform="translate(46.9185,354.8994)"><path
             d="m 0,0 v 0 c 0,-12.642 10.248,-22.891 22.89,-22.891 h 35.974 c 12.642,0 22.891,10.249 22.891,22.891 0,12.642 -10.249,22.891 -22.891,22.891 H 22.89 C 10.248,22.891 0,12.642 0,0"
             style="fill:#ffb09e;fill-opacity:1;fill-rule:nonzero;stroke:none"
             id="path199" /></g><g
           id="g201"
           transform="translate(128.6792,354.8984)"><path
             d="m 0,0 c 0,-12.644 -10.25,-22.893 -22.894,-22.893 h -26.329 c 12.643,0 22.893,10.249 22.893,22.893 0,6.328 -2.56,12.039 -6.707,16.187 -4.135,4.147 -9.87,6.707 -16.186,6.707 h 26.329 c 6.316,0 12.052,-2.56 16.187,-6.707 C -2.56,12.039 0,6.328 0,0"
             style="fill:#fba08d;fill-opacity:1;fill-rule:nonzero;stroke:none"
             id="path203" /></g><g
           id="g205"
           transform="translate(241.3984,153.2734)"><path
             d="M 0,0 V -25.396 C 0,-35.53 -6.593,-44.125 -15.722,-47.123 V 0 c 0,4.339 3.522,7.861 7.861,7.861 C -3.511,7.861 0,4.339 0,0"
             style="fill:#ffb09e;fill-opacity:1;fill-rule:nonzero;stroke:none"
             id="path207" /></g><g
           id="g209"
           transform="translate(287.1797,141.9019)"><path
             d="m 0,0 v -38.623 c 0,-6.32 -2.558,-12.043 -6.697,-16.183 -2.506,-2.505 -5.587,-4.433 -9.025,-5.554 V 0 c 0,4.339 3.522,7.861 7.861,7.861 C -3.511,7.861 0,4.339 0,0"
             style="fill:#ffb09e;fill-opacity:1;fill-rule:nonzero;stroke:none"
             id="path211" /></g><g
           id="g213"
           transform="translate(387.6924,204.6099)"><path
             d="m 0,0 c -3.301,3.301 -8.951,0.964 -8.951,-3.7 v -122.167 c 0,-6.32 -2.557,-12.043 -6.697,-16.183 -2.505,-2.505 -5.586,-4.423 -9.024,-5.554 V -10.649 C -24.672,2.29 -9.272,8.818 0,0"
             style="fill:#ffb09e;fill-opacity:1;fill-rule:nonzero;stroke:none"
             id="path215" /></g><g
           id="g217"
           transform="translate(332.9609,126.1802)"><path
             d="m 0,0 v -35.185 c 0,-10.146 -6.593,-18.74 -15.722,-21.737 V 0 c 0,4.35 3.522,7.861 7.861,7.861 C -3.511,7.861 0,4.35 0,0"
             style="fill:#ffb09e;fill-opacity:1;fill-rule:nonzero;stroke:none"
             id="path219" /></g></g></g></g></svg>
