<svg viewBox="0 0 512 512" xmlns="http://www.w3.org/2000/svg"><g><path d="M202.997 398.171h47.053v52.67h-47.053z" fill="#ede7e9"></path><path d="M202.997 398.171h47.053v22.431h-47.053z" fill="#c7b9bf"></path><path d="M258.326 450.842h-63.605l-67.993 13.956a3.92 3.92 0 0 0-3.133 3.841v11.121a3.921 3.921 0 0 0 3.921 3.921H325.53a3.921 3.921 0 0 0 3.921-3.921v-11.121a3.92 3.92 0 0 0-3.133-3.841l-67.992-13.956z" fill="#6e82a6"></path><path d="m326.319 464.798-67.993-13.956h-17.487l59.168 13.956c1.587.374 2.726 1.979 2.726 3.841v11.121c0 2.166-1.528 3.921-3.412 3.921h26.21a3.921 3.921 0 0 0 3.921-3.921v-11.121a3.92 3.92 0 0 0-3.133-3.841z" fill="#3f5173"></path><path d="M0 101.456v270.248c0 14.617 11.85 26.467 26.467 26.467H426.58c14.617 0 26.467-11.85 26.467-26.467V101.456c0-14.617-11.85-26.467-26.467-26.467H26.467C11.85 74.989 0 86.839 0 101.456z" fill="#6e82a6"></path><path d="M41.603 368.764c-6.724 0-12.195-5.471-12.195-12.195V116.591c0-6.725 5.471-12.195 12.195-12.195h369.842c6.724 0 12.195 5.471 12.195 12.195v239.977c0 6.725-5.471 12.195-12.195 12.195H41.603z" fill="#ff5579"></path><path d="M63.901 44.666v268.408c0 9.028 7.319 16.347 16.347 16.347h233.648c9.028 0 16.347-7.319 16.347-16.347V44.666c0-9.028-7.319-16.347-16.347-16.347H80.248c-9.028 0-16.347 7.319-16.347 16.347z" fill="#e3e7eb"></path><path d="M313.896 28.319h-21.824c9.028 0 16.347 7.319 16.347 16.347v268.408c0 9.028-7.319 16.347-16.347 16.347h21.824c9.028 0 16.347-7.319 16.347-16.347V44.666c0-9.028-7.319-16.347-16.347-16.347z" fill="#c1c8cf"></path><path d="M313.896 28.319H80.248c-9.028 0-16.347 7.319-16.347 16.347v51.201h266.342V44.666c0-9.028-7.319-16.347-16.347-16.347z" fill="#30c1ff"></path><path d="M326.459 34.212c-2.999-3.6-7.512-5.893-12.564-5.893h-21.823c9.027.001 16.345 7.319 16.345 16.347v51.201h21.825V44.666c0-3.186-.926-6.149-2.502-8.663-.284-.453-.588-.89-.913-1.311-.123-.159-.239-.325-.368-.48z" fill="#1591cf"></path><circle cx="292.214" cy="62.51" fill="#ff5579" r="11.728"></circle><circle cx="246.126" cy="62.51" fill="#fdcb70" r="11.728"></circle><circle cx="200.037" cy="62.51" fill="#adda4b" r="11.728"></circle><path d="M156.027 223.775c-.562 1.364-2.327 1.846-4.093 1.846-2.006 0-3.771-.642-4.253-1.846l-6.179-17.494-6.099 17.414c-.481 1.284-2.408 1.926-4.414 1.926-1.685 0-3.45-.481-4.012-1.926l-12.358-31.697c-.321-.642-.401-1.124-.401-1.525 0-2.487 4.013-4.253 6.741-4.253 1.364 0 2.567.562 2.969 1.685l8.024 22.79 6.019-19.821c.562-1.846 1.926-2.086 3.531-2.086 1.524 0 2.969.241 3.53 2.086l5.938 19.901 8.104-22.87c.401-1.043 1.525-1.685 2.97-1.685 2.567 0 6.66 1.766 6.66 4.333 0 .481-.08 1.043-.321 1.444l-12.356 31.778zM211.638 223.775c-.562 1.364-2.327 1.846-4.093 1.846-2.006 0-3.771-.642-4.253-1.846l-6.179-17.494-6.099 17.414c-.481 1.284-2.408 1.926-4.414 1.926-1.685 0-3.45-.481-4.012-1.926l-12.358-31.697c-.321-.642-.401-1.124-.401-1.525 0-2.487 4.013-4.253 6.741-4.253 1.364 0 2.567.562 2.969 1.685l8.024 22.79 6.019-19.821c.562-1.846 1.926-2.086 3.531-2.086 1.524 0 2.969.241 3.53 2.086l5.938 19.901 8.104-22.87c.401-1.043 1.525-1.685 2.97-1.685 2.567 0 6.66 1.766 6.66 4.333 0 .481-.08 1.043-.321 1.444l-12.356 31.778zM267.248 223.775c-.562 1.364-2.327 1.846-4.093 1.846-2.006 0-3.771-.642-4.253-1.846l-6.179-17.494-6.099 17.414c-.481 1.284-2.408 1.926-4.414 1.926-1.685 0-3.45-.481-4.012-1.926l-12.358-31.697c-.321-.642-.401-1.124-.401-1.525 0-2.487 4.013-4.253 6.741-4.253 1.364 0 2.567.562 2.969 1.685l8.024 22.79 6.019-19.821c.562-1.846 1.926-2.086 3.531-2.086 1.524 0 2.969.241 3.53 2.086l5.938 19.901 8.104-22.87c.401-1.043 1.525-1.685 2.97-1.685 2.567 0 6.66 1.766 6.66 4.333 0 .481-.08 1.043-.321 1.444l-12.356 31.778z" fill="#1a1a3a"></path><path d="m218.081 257.437 102.509 52.93-66.959 34.732z" fill="#75e1ff"></path><path d="m320.59 310.367 3.369 39.507 28.188-58.097-134.066-34.34z" fill="#45b5d9"></path><path d="m323.959 349.874-33.456-23.9 30.087-15.607z" fill="#2487a8"></path><path d="m218.081 257.437 175.129 15.634-41.063 18.706z" fill="#75e1ff"></path><path d="M462.141 432.252a7.631 7.631 0 0 1-1.638-15.083 43.26 43.26 0 0 0 12.056-4.655 7.634 7.634 0 0 1 10.405 2.863 7.632 7.632 0 0 1-2.863 10.405 58.51 58.51 0 0 1-16.308 6.29 7.68 7.68 0 0 1-1.652.18zm-30.142-1.573c-.699 0-1.41-.097-2.115-.3-5.009-1.442-10.184-3.413-15.383-5.858a7.631 7.631 0 0 1 6.496-13.81c4.467 2.101 8.878 3.784 13.11 5.003a7.63 7.63 0 0 1 5.221 9.444 7.634 7.634 0 0 1-7.329 5.521zm-40.19-21.451a7.596 7.596 0 0 1-4.609-1.554 210.007 210.007 0 0 1-12.236-10.065 7.63 7.63 0 1 1 10.122-11.42 195.01 195.01 0 0 0 11.343 9.331 7.63 7.63 0 0 1-4.62 13.708zm105.815-3.791a7.589 7.589 0 0 1-3.768-1.001A7.63 7.63 0 0 1 491 394.03a52.726 52.726 0 0 0 5.044-12.298 7.63 7.63 0 0 1 14.73 3.99 68.007 68.007 0 0 1-6.513 15.858 7.623 7.623 0 0 1-6.637 3.857zm-139.029-27.641a7.615 7.615 0 0 1-5.781-2.646c-3.614-4.189-6.949-8.358-9.913-12.39a7.63 7.63 0 1 1 12.298-9.037c2.728 3.714 5.814 7.569 9.17 11.458a7.631 7.631 0 0 1-5.774 12.615zm145.765-16.678a7.631 7.631 0 0 1-7.482-6.178 64.548 64.548 0 0 0-4.004-13.016 7.63 7.63 0 0 1 14.035-5.993 79.755 79.755 0 0 1 4.95 16.1 7.628 7.628 0 0 1-6.036 8.944 7.554 7.554 0 0 1-1.463.143zm-21.73-39.484a7.604 7.604 0 0 1-5.31-2.151 77.625 77.625 0 0 0-10.798-8.705 7.63 7.63 0 0 1 8.493-12.679 92.843 92.843 0 0 1 12.926 10.425 7.63 7.63 0 0 1-5.311 13.11z" fill="#1a1a3a"></path></g></svg>