<svg viewBox="0 0 64 64" xmlns="http://www.w3.org/2000/svg"><g><path d="M32 0C14.3 0 0 14.4 0 32s14.3 32 32 32c17.6 0 32-14.4 32-32S49.6 0 32 0zM16.3 14.9c0-.6.5-1 1-1h8.9c.6 0 1 .5 1 1 0 .6-.5 1-1 1h-8.9c-.5 0-1-.5-1-1zm5.5 4.7c1.4 0 2.6 1.2 2.6 2.6s-1.1 2.6-2.6 2.6c-1.4 0-2.6-1.2-2.6-2.6s1.2-2.6 2.6-2.6zm21.4 26.1H20.8c-.6 0-1-.5-1-1 0-.6.5-1 1-1h22.4c.6 0 1 .5 1 1s-.4 1-1 1zm-1-21c-1.4 0-2.6-1.2-2.6-2.6s1.2-2.6 2.6-2.6 2.6 1.2 2.6 2.6-1.2 2.6-2.6 2.6zm4.4-8.8h-8.9c-.6 0-1-.5-1-1 0-.6.5-1 1-1h8.9c.6 0 1 .5 1 1 .1.5-.4 1-1 1z" fill="#f9d500"></path><path d="M64 32c0 17.6-14.4 32-32 32-10.4 0-19.6-5-25.4-12.6C12 55.5 18.7 58 26 58c17.6 0 32-14.4 32-32 0-7.3-2.5-14-6.6-19.4C59.1 12.4 64 21.6 64 32z" fill="#eabe03"></path><path d="M44.2 44.7c0 .6-.5 1-1 1H20.8c-.6 0-1-.5-1-1 0-.6.5-1 1-1h22.4c.6-.1 1 .4 1 1zM44.8 22.2c0 1.4-1.2 2.6-2.6 2.6s-2.6-1.2-2.6-2.6 1.2-2.6 2.6-2.6 2.6 1.1 2.6 2.6zM47.7 14.9c0 .6-.5 1-1 1h-8.9c-.6 0-1-.5-1-1 0-.6.5-1 1-1h8.9c.5-.1 1 .4 1 1zM24.4 22.2c0 1.4-1.1 2.6-2.6 2.6-1.4 0-2.6-1.2-2.6-2.6s1.2-2.6 2.6-2.6 2.6 1.1 2.6 2.6zM27.3 14.9c0 .6-.5 1-1 1h-8.9c-.6 0-1-.5-1-1 0-.6.5-1 1-1h8.9c.5-.1 1 .4 1 1z" fill="#322e63"></path></g></svg>