<svg viewBox="0 0 60 60" xmlns="http://www.w3.org/2000/svg"><g><circle cx="27" cy="27" fill="#ffffff" r="26"></circle><g fill="#c6d9db"><path d="M27 9a1 1 0 0 1-1-1V6a1 1 0 0 1 2 0v2a1 1 0 0 1-1 1zM8 28H6a1 1 0 0 1 0-2h2a1 1 0 0 1 0 2zM27 49a1 1 0 0 1-1-1v-2a1 1 0 0 1 2 0v2a1 1 0 0 1-1 1zM48 28h-2a1 1 0 0 1 0-2h2a1 1 0 0 1 0 2z" fill="#c6d9db"></path></g><path d="M31 30a1 1 0 0 1-.446-.105l-4-2A1 1 0 0 1 26 27V14a1 1 0 0 1 2 0v12.382l3.447 1.723A1 1 0 0 1 31 30z" fill="#f74850"></path><path d="M27 54a27 27 0 1 1 27-27 27.03 27.03 0 0 1-27 27zm0-52a25 25 0 1 0 25 25A25.028 25.028 0 0 0 27 2z" fill="#334973"></path><circle cx="46" cy="46" fill="#5edd60" r="13"></circle><path d="M44 52a1 1 0 0 1-.707-.293l-3-3a1 1 0 0 1 1.414-1.414l2.157 2.157 6.317-9.023a1 1 0 1 1 1.638 1.146l-7 10a1 1 0 0 1-.732.423A.844.844 0 0 1 44 52z" fill="#ffffff"></path></g></svg>