<svg viewBox="0 0 512 512" xmlns="http://www.w3.org/2000/svg"><g><path d="M474.397 298.292 426 201.498V195C426 87.477 338.523 0 231 0S36 87.477 36 195v302c0 8.284 6.716 15 15 15h220c8.284 0 15-6.716 15-15v-62h75c30.327 0 55-24.673 55-55v-60h44.98c11.151 0 18.404-11.735 13.417-21.708z" fill="#ffe2c1"></path><path d="M271 512c8.284 0 15-6.716 15-15v-62h75c30.327 0 55-24.673 55-55v-60h44.98c11.151 0 18.403-11.735 13.417-21.708L426 201.498V195C426 87.477 338.523 0 231 0v512z" fill="#f1b986"></path><path d="M321.05 182.5c-8.284 0-15 6.716-15 15 0 41.355-33.645 75-75 75s-75-33.645-75-75 33.645-75 75-75c9.745 0 19.2 1.86 27.979 5.387l-16.032 4.296c-8.002 2.144-12.751 10.369-10.607 18.371 2.144 8.002 10.369 12.75 18.371 10.606l47.811-12.811c8.002-2.144 12.751-10.369 10.607-18.371l-12.811-47.81c-2.144-8.002-10.369-12.751-18.371-10.607-8.002 2.144-12.75 10.369-10.606 18.371l2.69 10.039c-12.248-4.899-25.44-7.471-39.029-7.471-57.897 0-105 47.103-105 105s47.103 105 105 105 105-47.103 105-105c-.002-8.284-6.718-15-15.002-15z" fill="#0a789b"></path><g fill="#38336b"><path d="M321.05 182.5c-8.284 0-15 6.716-15 15 0 41.355-33.645 75-75 75l-.05-.001V302.5l.05.001c57.897 0 105-47.103 105-105 0-8.285-6.716-15.001-15-15.001zM231.05 92.5l-.05.001v30.001l.05-.001c9.745 0 19.2 1.86 27.979 5.387l-16.032 4.296c-8.002 2.144-12.751 10.369-10.607 18.371 2.144 8.002 10.369 12.75 18.371 10.606l47.811-12.811c8.002-2.144 12.751-10.369 10.607-18.371l-12.811-47.81c-2.144-8.002-10.369-12.751-18.371-10.607-8.002 2.144-12.75 10.369-10.606 18.371l2.69 10.039c-12.25-4.901-25.442-7.472-39.031-7.472z" fill="#38336b"></path></g></g></svg>