<svg viewBox="0 0 512 512" xmlns="http://www.w3.org/2000/svg"><g><path d="M337.906 109.293c11.516 10.085 39.531 20.623 60.63 16.608-69.557 206.974-18.634 55.444-94.954 282.536-14.423-15.976-43.139-24.456-58.355-23.38l92.679-275.764z" fill="#676872"></path><path d="m275.304 390.649 89.95-267.651c-14.793-4.578-22.466-9.43-27.347-13.705l-92.678 275.763c9.978-.705 20.555 2.149 30.075 5.593z" fill="#464856"></path><path d="M318.125 41.272C325.412 19.595 344.182 4.43 366.626.096c3.815-.733 6.996 2.925 5.764 6.591l-18.149 54 23.976 27.171 35.519-7.177 16.604-49.409a5.067 5.067 0 0 1 8.999-1.226c11.165 16.496 14.057 36.408 7.934 54.63-5.162 15.359-16.257 27.919-31.242 35.367-53.206 26.438-116.279-24.093-97.906-78.771z" fill="#d2d6ce"></path><path d="M344.104 41.272c4.775-14.205 14.637-26.008 27.951-33.59l.335-.996c1.232-3.667-1.95-7.324-5.764-6.591-22.441 4.333-41.213 19.495-48.501 41.176-15.599 46.424 28.776 94.154 80.196 84.628-40.993-7.544-66.574-47.852-54.217-84.627z" fill="#bcc1b8"></path><path d="M188.381 427.327c11.413-33.961 49.919-50.403 84.861-38.663 64.553 21.695 62.649 110.33-4.211 123.242-3.81.734-6.999-2.916-5.764-6.59l18.147-54.001-23.974-27.172-35.519 7.178-16.606 49.408c-1.333 3.966-6.652 4.699-8.998 1.228-11.167-16.498-14.059-36.408-7.936-54.63z" fill="#d2d6ce"></path><path d="M263.312 386.103c-32.729-6.023-64.784 11.03-74.931 41.224-6.123 18.222-3.232 38.132 7.935 54.63 2.344 3.468 7.663 2.744 8.998-1.228l7.238-21.535c-7.131-33.675 14.746-66.421 50.76-73.091z" fill="#bcc1b8"></path><path d="M428.67 218.031c0-11.259-9.131-20.395-20.396-20.395h-99.976l11.471-36.257c-75.556.658-90.562 19.849-116.935 36.257-26.834 16.699-57.296 17.391-57.296 17.391v127.644c22.481 0 41.339 6.527 41.339 6.527 38.439 15.229 83.642 11.604 83.642 11.604h94.326c11.267 0 20.396-9.132 20.396-20.397 0-11.261-9.129-20.394-20.396-20.394h14.477c11.264 0 20.395-9.132 20.395-20.397 0-11.261-9.13-20.395-20.395-20.395h14.477c11.264 0 20.394-9.129 20.394-20.396 0-11.261-9.129-20.396-20.394-20.396h14.475c11.265.001 20.396-9.129 20.396-20.396z" fill="#fcca7a"></path><path d="M170.574 211.101c-14.32 3.682-25.036 3.926-25.036 3.926v127.644c9.336 0 18.041 1.126 25.036 2.443V211.101z" fill="#f2a830"></path><path d="M61.579 348.126c0 7.209 5.846 13.055 13.055 13.055h57.85c7.209 0 13.054-5.845 13.054-13.055V210.693c0-7.209-5.845-13.057-13.054-13.057h-57.85c-7.209 0-13.055 5.847-13.055 13.057v137.433z" fill="#676872"></path><path d="M86.616 348.126V210.693c0-7.209 5.845-13.057 13.055-13.057H74.634c-7.209 0-13.055 5.847-13.055 13.057v137.433c0 7.209 5.846 13.055 13.055 13.055h25.037c-7.21 0-13.055-5.846-13.055-13.055z" fill="#464856"></path></g></svg>