<svg viewBox="0 0 512 512" xmlns="http://www.w3.org/2000/svg"><g><path clip-rule="evenodd" d="M387.231 271.581c17.379 0 31.599-14.22 31.599-31.598 0-17.379-14.22-31.594-31.599-31.594h-14.478c17.379 0 31.598-14.22 31.598-31.598 0-17.379-14.22-31.594-31.598-31.594h-17.581c17.379 0 31.598-14.22 31.598-31.598C386.77 96.22 372.55 82 355.172 82h-16.03c17.379 0 31.598-14.215 31.598-31.593 0-17.379-14.22-31.598-31.598-31.598h-147.34c-24.951 0-52.061.028-69.463 19.108a40.389 40.389 0 0 1 1.674 11.545v191.856c0 7.78-2.2 15.057-6.012 21.247 13.073 18.338 26.489 27.053 40.3 40.248 17.111 16.358 36.28 56 37.249 82.268.884 24.101 10.083 35.481 21.473 38.17 21.981 5.19 39.783-20.298 42.688-44.051 5.002-40.737-21.788-50.528.522-97.621-8.541 0-14.511 4.663-18.648 11.841a4.99 4.99 0 0 1-6.802 1.838c-2.379-1.373-3.21-4.414-1.838-6.798 5.956-10.318 15.108-16.88 27.288-16.88h126.998zm-273.222-30.264V49.461c0-16.89-13.778-30.673-30.668-30.673H44.683c-16.899 0-30.682 13.783-30.673 30.673v191.856c0 16.895 13.773 30.673 30.673 30.673h38.659c16.889 0 30.667-13.778 30.667-30.673zm278.162 145.634c12.809 0 24.261 8.099 28.529 20.18a5 5 0 0 1-3.051 6.369 5 5 0 0 1-6.369-3.051c-2.858-8.109-10.52-13.501-19.109-13.501-8.602 0-16.26 5.392-19.118 13.501a5.002 5.002 0 0 1-6.369 3.051 5.003 5.003 0 0 1-3.055-6.369c4.272-12.081 15.723-20.18 28.542-20.18zm-17.2-18.573c3.657 0 6.628 2.971 6.628 6.633s-2.971 6.628-6.628 6.628c-3.662 0-6.628-2.966-6.628-6.628s2.966-6.633 6.628-6.633zm34.391 0c3.657 0 6.628 2.971 6.628 6.633s-2.971 6.628-6.628 6.628a6.63 6.63 0 1 1 0-13.261zm-17.191-23.249c23.819 0 43.129 19.311 43.129 43.143 0 23.819-19.311 43.129-43.129 43.129-23.828 0-43.143-19.311-43.143-43.129 0-23.833 19.315-43.143 43.143-43.143zm-78.399-24.158h156.789c15.108 0 27.429 12.32 27.429 27.429v79.729c0 15.108-12.321 27.434-27.429 27.434h-81.032l-44.38 36.497c-3.258 2.689-8.179.371-8.179-3.859v-32.637h-23.198c-15.113 0-27.429-12.325-27.429-27.434V348.4c0-15.108 12.316-27.429 27.429-27.429z" fill="#f2626b" fill-rule="evenodd"></path></g></svg>