<svg viewBox="0 0 512.009 512" xmlns="http://www.w3.org/2000/svg"><g><g fill="#e3ded9"><path d="M302.332 107.629c-1.941 0-3.89-.711-5.414-2.149a7.897 7.897 0 0 1-.34-11.168l51.473-52.12a7.897 7.897 0 0 1 11.168-.34c3.176 2.992 3.328 7.992.336 11.168l-51.47 52.125a7.875 7.875 0 0 1-5.753 2.484zM374.906 193.395a7.87 7.87 0 0 1-4.168-1.196l-66.062-46.14a7.896 7.896 0 0 1-2.535-10.88 7.896 7.896 0 0 1 10.882-2.534l66.067 46.14a7.899 7.899 0 0 1 2.531 10.883 7.894 7.894 0 0 1-6.715 3.727zM310.844 127.375c-4.153 0-7.637-3.242-7.88-7.441a7.898 7.898 0 0 1 7.427-8.348l148.171-14.781c4.368-.262 8.094 3.074 8.348 7.43s-3.07 8.093-7.426 8.347L311.31 127.359a6.159 6.159 0 0 1-.465.016zM460.277 85.418c-1.57 0-3.16-.469-4.543-1.441l-54.296-38.254c-3.567-2.516-4.422-7.446-1.91-11.012 2.515-3.566-.13-9.934 3.44-7.422l65.434 46.281c3.567 2.512.856 4.93-1.66 8.496a7.885 7.885 0 0 1-6.465 3.352zM40.36 460.168a7.897 7.897 0 0 1-7.871-8.676l10.093-97.668c.426-4.344 4.285-7.511 8.637-7.09a7.906 7.906 0 0 1 7.09 8.641l-10.094 97.668a7.903 7.903 0 0 1-7.856 7.125zM67.945 313.61A7.904 7.904 0 0 1 63.757 299l83.782-54.195c3.707-2.305 8.578-1.176 10.887 2.527a7.904 7.904 0 0 1-2.531 10.887l-83.782 54.195a7.87 7.87 0 0 1-4.168 1.195zM175.227 429.133a7.9 7.9 0 0 1-7.899-7.832l-1.234-154.914a7.904 7.904 0 0 1 7.836-7.969h.066a7.901 7.901 0 0 1 7.899 7.836l1.234 154.914c.039 4.363-3.469-2.605-7.832-2.566-.024 0-.047 10.53-.07 10.53zM159.805 439.207a7.878 7.878 0 0 1-5.676-2.406l-83.297-84.774a7.9 7.9 0 0 1 .18-11.172 7.903 7.903 0 0 1 11.172.176l83.296 84.774a7.899 7.899 0 0 1-.18 11.172 7.864 7.864 0 0 1-5.495 2.23zM69.098 481.535a7.908 7.908 0 0 1-7.7-6.152 7.906 7.906 0 0 1 5.954-9.457l81.445-18.508c4.258-.965 8.488 1.7 9.457 5.953s-1.7 8.488-5.953 9.457l-81.446 18.508c-.59.133-1.18.2-1.757.2zM417.242 181.016a7.901 7.901 0 0 1-4.895-14.105l55.473-53.157a7.898 7.898 0 0 1 11.094 1.32 7.898 7.898 0 0 1-1.316 11.094l-55.47 53.156a7.877 7.877 0 0 1-4.886 1.692zM388.945 466.727c-.078 0-.156 0-.234-.004l-177.93-4.938a7.9 7.9 0 1 1 .465-15.793l167.828 4.938a7.9 7.9 0 0 1 7.664 8.129c-.125 4.28 6.465 7.668 2.207 7.668zM413.914 417.04a7.905 7.905 0 0 1-7.832-6.935L393.211 221.63a7.9 7.9 0 0 1 6.871-8.809c4.328-.539 8.277 2.54 8.813 6.871l12.87 188.477a7.902 7.902 0 0 1-6.874 8.809 7.495 7.495 0 0 1-.977.062zM261.227 123.566c-.602 0-1.211-.066-1.825-.21L63.7 77.862a7.898 7.898 0 0 1-5.875-9.504 7.902 7.902 0 0 1 9.504-5.879l195.703 45.493a7.9 7.9 0 0 1 5.875 9.507c-.855 3.633-4.101 6.086-7.68 6.086zM37.457 317.531a7.9 7.9 0 0 1-7.89-7.574L23.765 99.465a7.9 7.9 0 0 1 7.566-8.223c4.352-.195 8.043 3.207 8.223 7.567l5.8 210.492a7.9 7.9 0 0 1-7.898 8.23zm0 0" fill="#e3ded9"></path><path d="M193.582 239.938a7.899 7.899 0 0 1-7.844-7.043 7.9 7.9 0 0 1 6.992-8.715l184.93-31.59c4.344-.473 8.242 2.656 8.715 6.992a7.9 7.9 0 0 1-6.992 8.715l-184.934 31.59a7.22 7.22 0 0 1-.867.05zm0 0" fill="#e3ded9"></path><path d="M200.074 432.508a7.883 7.883 0 0 1-5.101-1.871 7.907 7.907 0 0 1-.926-11.137l183.262-215.29c2.816-3.327 7.804-3.745 11.132-.925a7.9 7.9 0 0 1 .926 11.137L206.11 429.71a7.89 7.89 0 0 1-6.035 2.797zM182.637 223.25a7.875 7.875 0 0 1-6.254-3.07 7.896 7.896 0 0 1 1.418-11.082l94.086-82.95a7.9 7.9 0 0 1 11.086 1.418 7.905 7.905 0 0 1-1.422 11.086l-94.086 82.95a7.883 7.883 0 0 1-4.828 1.648zm0 0" fill="#e3ded9"></path></g><path d="M68.906 479.59c0 17.363-14.078 31.437-31.441 31.437S6.023 496.953 6.023 479.59c0-17.367 14.079-31.442 31.442-31.442s31.441 14.075 31.441 31.442zm0 0" fill="#9ddbdf"></path><path d="M37.465 448.145a31.4 31.4 0 0 0-12.113 2.421c11.347 4.746 19.324 15.95 19.324 29.02s-7.977 24.277-19.324 29.02a31.328 31.328 0 0 0 12.113 2.421c17.363 0 31.441-14.074 31.441-31.441 0-17.363-14.078-31.441-31.441-31.441zm0 0" fill="#7cd6e6"></path><path d="M83.86 324.86c0 17.363-14.075 31.44-31.438 31.44-17.367 0-31.442-14.077-31.442-31.44s14.075-31.442 31.442-31.442c17.363 0 31.437 14.078 31.437 31.441zm0 0" fill="#fc9086"></path><path d="M52.422 293.418c-4.297 0-8.387.863-12.117 2.422 11.351 4.742 19.328 15.95 19.328 29.02s-7.977 24.273-19.328 29.019a31.347 31.347 0 0 0 12.117 2.422c17.363 0 31.437-14.078 31.437-31.442s-14.074-31.441-31.437-31.441zm0 0" fill="#f57a73"></path><path d="M431.117 188.305c-.125-17.364-14.308-31.336-31.672-31.207-17.363.125-31.336 14.308-31.207 31.672.13 17.363 14.309 31.335 31.672 31.207 17.363-.13 31.336-14.309 31.207-31.672zm0 0" fill="#fc9086"></path><path d="M399.441 157.074c-4.21.031-8.218.895-11.875 2.426 11.266 4.71 19.223 15.797 19.32 28.781.098 13.156-7.902 24.477-19.331 29.25a31.355 31.355 0 0 0 12.351 2.426c17.367-.133 31.336-14.312 31.207-31.676-.129-17.363-14.308-31.336-31.672-31.207zm0 0" fill="#f57a73"></path><path d="M512.008 100.996c-.13-17.363-14.309-31.336-31.672-31.207-17.367.129-31.336 14.309-31.211 31.676.129 17.363 14.312 31.336 31.676 31.207s31.336-14.309 31.207-31.676zm0 0" fill="#9ddbdf"></path><path d="M480.324 69.766c-4.21.03-8.219.898-11.875 2.425 11.266 4.711 19.223 15.797 19.32 28.782.098 13.156-7.902 24.476-19.331 29.25a31.36 31.36 0 0 0 12.355 2.425c17.363-.128 31.332-14.312 31.203-31.675-.129-17.364-14.309-31.336-31.672-31.207zm0 0" fill="#7cd6e6"></path><path d="M405.273 31.23C405.145 13.863 390.965-.11 373.602.02c-17.368.128-31.336 14.308-31.211 31.675.129 17.364 14.312 31.336 31.675 31.207 17.364-.129 31.336-14.308 31.207-31.672zm0 0" fill="#ffe056"></path><path d="M373.59.004c-4.211.031-8.215.898-11.875 2.426 11.265 4.71 19.223 15.797 19.32 28.78.098 13.157-7.902 24.477-19.332 29.25a31.36 31.36 0 0 0 12.356 2.427c17.363-.13 31.332-14.313 31.203-31.676C405.137 13.848 390.953-.125 373.59.004zm0 0" fill="#f9cd45"></path><path d="M320.203 120.488c-.129-17.363-14.312-31.336-31.676-31.207-17.363.13-31.336 14.309-31.207 31.672.13 17.367 14.309 31.336 31.672 31.211 17.363-.129 31.336-14.312 31.211-31.676zm0 0" fill="#9ddbdf"></path><path d="M288.523 89.266c-4.21.03-8.214.898-11.875 2.425 11.266 4.711 19.223 15.797 19.32 28.782.098 13.152-7.902 24.476-19.331 29.25a31.36 31.36 0 0 0 12.355 2.425c17.363-.132 31.332-14.312 31.203-31.675-.125-17.364-14.308-31.336-31.672-31.207zm0 0" fill="#7cd6e6"></path><path d="M199.86 237.938c0 15.648-12.688 28.332-28.333 28.332-15.648 0-28.332-12.684-28.332-28.332s12.684-28.333 28.332-28.333c15.645 0 28.332 12.684 28.332 28.333zm0 0" fill="#ffe056"></path><path d="M74.04 78.75c0 20.445-16.575 37.02-37.02 37.02C16.574 115.77 0 99.195 0 78.75s16.574-37.02 37.02-37.02c20.445 0 37.02 16.575 37.02 37.02zm0 0" fill="#5e8ee1"></path><path d="M171.527 209.605a28.21 28.21 0 0 0-12.117 2.72c9.586 4.542 16.219 14.3 16.219 25.613 0 11.308-6.633 21.07-16.219 25.613a28.264 28.264 0 0 0 12.117 2.715c15.645 0 28.332-12.684 28.332-28.332 0-15.645-12.687-28.329-28.332-28.329zm0 0" fill="#f9cd45"></path><path d="M37.02 41.73c-4.243 0-8.317.723-12.114 2.04C39.398 48.79 49.81 62.547 49.81 78.75s-10.41 29.96-24.903 34.984a37.009 37.009 0 0 0 12.114 2.036c20.445 0 37.02-16.575 37.02-37.02S57.464 41.73 37.02 41.73zm0 0" fill="#2970d6"></path><path d="M212.637 444.555c0 17.363-14.075 31.437-31.442 31.437-17.363 0-31.441-14.074-31.441-31.437 0-17.368 14.078-31.442 31.441-31.442 17.368 0 31.442 14.074 31.442 31.442zm0 0" fill="#ffe056"></path><path d="M181.195 413.113a31.309 31.309 0 0 0-13.695 3.133c10.504 5.09 17.746 15.852 17.746 28.309 0 12.453-7.242 23.215-17.746 28.308a31.364 31.364 0 0 0 13.695 3.133c17.368 0 31.442-14.078 31.442-31.441 0-17.368-14.075-31.442-31.442-31.442zm0 0" fill="#f9cd45"></path><path d="M452.879 447.719c0 20.445-16.574 37.02-37.02 37.02s-37.02-16.575-37.02-37.02 16.575-37.02 37.02-37.02 37.02 16.574 37.02 37.02zm0 0" fill="#9ddbdf"></path><path d="M415.86 410.7c-4.243 0-8.317.722-12.114 2.038 14.492 5.02 24.906 18.782 24.906 34.98 0 16.204-10.414 29.962-24.906 34.981a36.908 36.908 0 0 0 12.113 2.04c20.446 0 37.02-16.575 37.02-37.02.004-20.446-16.574-37.02-37.02-37.02zm0 0" fill="#7cd6e6"></path></g></svg>