<svg viewBox="0 0 128 128" xmlns="http://www.w3.org/2000/svg"><g><path d="M85 25c0 16.36 18 36 18 36s18-19.64 18-36a18 18 0 0 0-36 0zM7 85c0 16.36 18 36 18 36s18-19.64 18-36a18 18 0 0 0-36 0z" fill="#f95353"></path><g fill="#e6f8fc"><circle cx="103" cy="25" fill="#e6f8fc" r="9"></circle><circle cx="25" cy="85" fill="#e6f8fc" r="9"></circle></g><g fill="#5abffe"><path d="M94 62.75h-2a1.75 1.75 0 0 1 0-3.5h2a1.75 1.75 0 0 1 0 3.5zM48.375 122.75h-3.8a1.75 1.75 0 0 1 0-3.5h3.8a1.75 1.75 0 0 1 0 3.5zm8.513-.425a1.75 1.75 0 0 1-.5-3.426 8.162 8.162 0 0 0 2.757-1.448 1.751 1.751 0 0 1 2.184 2.737 11.7 11.7 0 0 1-3.934 2.063 1.733 1.733 0 0 1-.507.074zm7.105-9.149h-.074a1.749 1.749 0 0 1-1.676-1.821c0-.117.007-.235.007-.353v-3.376a1.75 1.75 0 0 1 3.5 0V111c0 .167 0 .332-.011.5a1.748 1.748 0 0 1-1.746 1.676zM64 100.819a1.75 1.75 0 0 1-1.75-1.75v-3.8a1.75 1.75 0 0 1 3.5 0v3.8a1.75 1.75 0 0 1-1.75 1.75zm0-12.356a1.75 1.75 0 0 1-1.75-1.75v-3.8a1.75 1.75 0 0 1 3.5 0v3.8a1.75 1.75 0 0 1-1.75 1.75zm0-12.357a1.75 1.75 0 0 1-1.75-1.75V71c0-.175 0-.349.011-.521a1.75 1.75 0 0 1 3.5.151c0 .123-.008.246-.008.37v3.356A1.75 1.75 0 0 1 64 76.106zm3.784-11.188a1.75 1.75 0 0 1-1.09-3.12 11.7 11.7 0 0 1 3.935-2.057 1.751 1.751 0 1 1 1 3.354 8.2 8.2 0 0 0-2.761 1.443 1.742 1.742 0 0 1-1.084.38zm15.661-2.168h-3.8a1.75 1.75 0 0 1 0-3.5h3.8a1.75 1.75 0 0 1 0 3.5zM36 122.75h-2a1.75 1.75 0 0 1 0-3.5h2a1.75 1.75 0 0 1 0 3.5z" fill="#5abffe"></path></g></g></svg>