<svg height="512" viewBox="0 0 64 64" width="512" xmlns="http://www.w3.org/2000/svg"><g id="Flat"><g id="Stroke_copy_2" data-name="Stroke copy 2"><g><g><circle cx="31" cy="37" fill="#57b7eb" r="20"/><path d="m39 48a19.979 19.979 0 0 1 -18.253-28.149 19.988 19.988 0 1 0 28.506 25.3 19.879 19.879 0 0 1 -10.253 2.849z" fill="#4891d3"/><path d="m44.49 22.265-10.49 15.735 10 3-4 3v5l-4 4 .495 3.217a19.963 19.963 0 0 0 8-33.952z" fill="#c4f236"/><path d="m11 37a20 20 0 0 0 15.739 19.534l-1.739-7.534 8-5-7-5 4-5-5-5-1.4-10.567a19.993 19.993 0 0 0 -12.6 18.567z" fill="#c4f236"/><g fill="#a1d51c"><path d="m49.26 45.16a20.044 20.044 0 0 1 -12.77 11.06l-.49-3.22 4-4v-1.03a19.667 19.667 0 0 0 9.26-2.81z"/><path d="m25 49 1.74 7.53a19.979 19.979 0 0 1 -6-36.68 19.988 19.988 0 0 0 9.28 26.02z"/></g></g><g><path d="m51 3 2.274 3.515 3.906-1.507-.225 4.18 4.045 1.077-2.64 3.25 2.64 3.249-4.045 1.077.225 4.18-3.906-1.506-2.274 3.514-2.274-3.514-3.906 1.506.225-4.18-4.045-1.077 2.64-3.249-2.64-3.25 4.045-1.077-.225-4.18 3.906 1.507z" fill="#f9e109"/><path d="m49.521 18.064-2.538.979.148-2.717-2.63-.7 1.716-2.111-1.716-2.112 2.63-.7-.148-2.717 2.538.979 1.479-2.284 1.479 2.284 2.538-.979-.148 2.717 2.63.7-1.716 2.112 1.716 2.111-2.63.7.148 2.717-2.538-.979-1.479 2.284z" fill="#fcbc04"/><circle cx="51" cy="14" fill="#f8664f" r="4"/><path d="m33 15a6.041 6.041 0 0 1 1.022.093 7.995 7.995 0 0 1 13.956 0 5.949 5.949 0 0 1 6.231 2.936c.1-.006.191-.029.291-.029a4.5 4.5 0 1 1 -2.538 8.214 5.974 5.974 0 0 1 -6.646-.485 7.964 7.964 0 0 1 -8.632 0 6 6 0 1 1 -3.684-10.729z" fill="#d0d8da"/><path d="m57.5 23a4.484 4.484 0 0 1 -2.538-.786 5.974 5.974 0 0 1 -6.646-.485 7.964 7.964 0 0 1 -8.632 0 5.993 5.993 0 0 1 -9.545-6 6 6 0 1 0 6.545 10 7.964 7.964 0 0 0 8.632 0 5.974 5.974 0 0 0 6.646.485 4.484 4.484 0 0 0 7.015-3.482 4.47 4.47 0 0 1 -1.477.268z" fill="#93999a"/><path d="m42 30 2-8-9 11 5 1-2 8 9-11z" fill="#f9e109"/><path d="m43 32h-4l5-10-9 11 5 1-2 8z" fill="#fcbc04"/></g><g><g fill="#d0d8da"><rect height="4" rx="2" width="16" x="5" y="45"/><rect height="4" rx="2" width="20" x="3" y="41"/><rect height="4" rx="2" width="12" x="7" y="49"/><rect height="4" rx="2" width="8" x="8" y="53"/><rect height="4" rx="2" width="6" x="7" y="57"/></g><g fill="#93999a"><path d="m7 45a2 2 0 0 0 0 4h12a2 2 0 0 0 2-2h-12a2 2 0 0 1 -2-2z"/><path d="m5 41a2 2 0 0 0 0 4h16a2 2 0 0 0 2-2h-16a2 2 0 0 1 -2-2z"/><path d="m9 49a2 2 0 0 0 0 4h8a2 2 0 0 0 2-2h-8a2 2 0 0 1 -2-2z"/><path d="m10 53a2 2 0 0 0 0 4h4a2 2 0 0 0 2-2h-4a2 2 0 0 1 -2-2z"/><path d="m9 57a2 2 0 0 0 0 4h2a2 2 0 0 0 2-2h-2a2 2 0 0 1 -2-2z"/></g></g><g><path d="m20 14a3.035 3.035 0 0 0 -.526.053 3.916 3.916 0 0 0 -4.4-1.935 4.991 4.991 0 0 0 -8.974 1.892c-.034 0-.066-.01-.1-.01a3 3 0 1 0 2.143 5.1 4.94 4.94 0 0 0 5.508.129 3.95 3.95 0 0 0 4.513.132 2.964 2.964 0 0 0 1.836.639 3 3 0 0 0 0-6z" fill="#d0d8da"/><path d="m22 17a2.964 2.964 0 0 1 -1.836-.644 3.95 3.95 0 0 1 -4.513-.132 4.94 4.94 0 0 1 -5.508-.129 2.988 2.988 0 0 1 -5.125-1.917 2.994 2.994 0 1 0 3.125 4.922 4.94 4.94 0 0 0 5.508.129 3.95 3.95 0 0 0 4.513.132 2.964 2.964 0 0 0 1.836.639 3 3 0 0 0 3-3c0-.061-.014-.118-.018-.178a2.962 2.962 0 0 1 -.982.178z" fill="#93999a"/><g fill="#84d2f4"><g><path d="m57 51h-15a1 1 0 0 1 0-2h15a2 2 0 0 0 0-4 1 1 0 0 1 0-2 4 4 0 0 1 0 8z"/><path d="m46 59h-7a1 1 0 0 1 0-2h7a1 1 0 0 1 0 2z"/><path d="m50 47h-7a1 1 0 0 1 0-2h7a1 1 0 0 1 0 2z"/><path d="m52 61a1 1 0 0 1 0-2 2 2 0 0 0 0-4h-6a1 1 0 0 1 0-2h6a4 4 0 0 1 0 8z"/><path d="m32 51h-2a1 1 0 0 1 0-2h2a1 1 0 0 1 0 2z"/><path d="m36 47h-2a1 1 0 0 1 0-2h2a1 1 0 0 1 0 2z"/></g><path d="m8 26a1 1 0 0 1 -.9-.553l-1-2a1 1 0 0 1 1.79-.894l1 2a1 1 0 0 1 -.89 1.447z"/><path d="m12 26a1 1 0 0 1 -.9-.553l-1-2a1 1 0 0 1 1.79-.894l1 2a1 1 0 0 1 -.89 1.447z"/><path d="m16 26a1 1 0 0 1 -.9-.553l-1-2a1 1 0 0 1 1.79-.894l1 2a1 1 0 0 1 -.89 1.447z"/><path d="m20 26a1 1 0 0 1 -.9-.553l-1-2a1 1 0 0 1 1.79-.894l1 2a1 1 0 0 1 -.89 1.447z"/><path d="m10 31a1 1 0 0 1 -.9-.553l-1-2a1 1 0 0 1 1.79-.894l1 2a1 1 0 0 1 -.89 1.447z"/><path d="m14 31a1 1 0 0 1 -.9-.553l-1-2a1 1 0 0 1 1.79-.894l1 2a1 1 0 0 1 -.89 1.447z"/><path d="m18 31a1 1 0 0 1 -.9-.553l-1-2a1 1 0 0 1 1.79-.894l1 2a1 1 0 0 1 -.89 1.447z"/><path d="m22 31a1 1 0 0 1 -.9-.553l-1-2a1 1 0 0 1 1.79-.894l1 2a1 1 0 0 1 -.89 1.447z"/><path d="m12 37a1 1 0 0 1 -.9-.553l-1-2a1 1 0 1 1 1.79-.894l1 2a1 1 0 0 1 -.89 1.447z"/><path d="m16 37a1 1 0 0 1 -.9-.553l-1-2a1 1 0 1 1 1.79-.894l1 2a1 1 0 0 1 -.89 1.447z"/><path d="m20 37a1 1 0 0 1 -.9-.553l-1-2a1 1 0 1 1 1.79-.894l1 2a1 1 0 0 1 -.89 1.447z"/><path d="m23 36a1 1 0 0 1 -.9-.553l-1-2a1 1 0 1 1 1.79-.894l1 2a1 1 0 0 1 -.89 1.447z"/></g></g></g></g></g></svg>