<svg viewBox="0 0 128 128" xmlns="http://www.w3.org/2000/svg"><g><path d="M33.999 64a1.001 1.001 0 0 1-.775-1.632l4.05-4.97a1.001 1.001 0 0 1 1.551 1.263l-4.05 4.97a.996.996 0 0 1-.776.369zM46.839 48.24a.999.999 0 0 1-.773-1.633l1.93-2.36a.999.999 0 1 1 1.548 1.266l-1.93 2.36a.998.998 0 0 1-.775.367zM51.269 42.8a1 1 0 0 1-.774-1.632l4.73-5.8a1 1 0 0 1 1.55 1.264l-4.73 5.8a1 1 0 0 1-.776.368zM41.229 55.12a.999.999 0 0 1-.775-1.632l2-2.45a1 1 0 0 1 1.55 1.264l-2 2.45a.994.994 0 0 1-.775.368zM56.97 89.66c-.1 0-.208-.015-.303-.044l-3.88-1.19a1 1 0 1 1 .586-1.912l3.855 1.182c.423.117.737.504.737.964 0 .552-.443 1-.995 1zM74.63 95.05a1.02 1.02 0 0 1-.291-.043l-2.83-.86a1.001 1.001 0 0 1 .582-1.914l2.83.86a1.001 1.001 0 0 1-.291 1.957zM67.62 92.911a1.03 1.03 0 0 1-.293-.044l-7.29-2.23a1 1 0 1 1 .585-1.912l7.29 2.23a1 1 0 0 1-.292 1.956zM90.35 62.55a1 1 0 0 1-.935-.646l-1.529-4.03a1 1 0 1 1 1.869-.71l1.529 4.03a1 1 0 0 1-.934 1.356zM94.35 73.03c-.402 0-.782-.245-.935-.644l-1.51-3.95a1.001 1.001 0 0 1 1.869-.714l1.51 3.95a1.001 1.001 0 0 1-.934 1.358zM83.79 45.331c-.403 0-.782-.246-.935-.645l-2.79-7.33a1 1 0 0 1 1.869-.712l2.79 7.33a1 1 0 0 1-.934 1.357zM87.32 54.581c-.402 0-.782-.245-.935-.644l-2.301-6.03a1.001 1.001 0 0 1 1.869-.713l2.301 6.03a1.001 1.001 0 0 1-.934 1.357z" fill="#5989ad"></path><path d="M53 80c0 3.39-.8 6.6-2.24 9.43-.24.47-.49.93-.77 1.38-.89 1.5-1.97 2.86-3.2 4.08A20.864 20.864 0 0 1 40 99.41a20.724 20.724 0 0 1-8 1.59c-.33 0-.66-.01-.98-.03-2.47-.11-4.84-.65-7.02-1.56-.69-.28-1.36-.6-2-.96a20.817 20.817 0 0 1-5.78-4.6C12.97 90.15 11 85.3 11 80c0-6.83 3.28-12.91 8.34-16.74.6-.46 1.23-.89 1.89-1.28 2.18-1.31 4.63-2.24 7.23-2.68 1.15-.2 2.33-.3 3.54-.3 3.54 0 6.88.88 9.8 2.44C48.46 64.96 53 71.96 53 80z" fill="#e1e0f0"></path><path d="M35.85 79.88c0 2.75-2.17 4.99-4.89 5.11-.08.01-.16.01-.24.01h-1.44a5.12 5.12 0 0 1-3.63-1.5c-.93-.92-1.5-2.2-1.5-3.62 0-2.7 2.19-4.88 4.88-4.88h1.94c.23 0 .45.02.66.05.87.11 1.66.45 2.32.97.17.12.32.26.47.41.88.88 1.43 2.1 1.43 3.45zM38 91.08v8.33a20.48 20.48 0 0 1-6.59 1.54c-.13.01-.26.02-.39.02-2.47-.11-4.84-.65-7.02-1.56-.69-.28-1.36-.6-2-.96v-7.37c0-2.8 2.28-5.08 5.08-5.08h5.84c.94 0 1.82.26 2.57.7 1.5.89 2.51 2.52 2.51 4.38z" fill="#9597c8"></path><path d="M88 30c0 3.69-1.06 7.14-2.9 10.06-.34.54-.7 1.07-1.09 1.57-.8 1.03-1.71 1.98-2.7 2.82-1.3 1.11-2.75 2.04-4.31 2.77A18.637 18.637 0 0 1 69 49c-.31 0-.61-.01-.92-.03-.05 0-.1.01-.15 0-2.46-.14-4.8-.74-6.93-1.75-.69-.32-1.36-.68-2-1.08-1.29-.8-2.48-1.75-3.54-2.82A18.969 18.969 0 0 1 50 30c0-6.63 3.41-12.48 8.57-15.88.6-.39 1.23-.75 1.88-1.08 1.9-.97 3.98-1.62 6.18-1.89.78-.1 1.57-.15 2.37-.15 2.74 0 5.36.58 7.71 1.65C83.36 15.6 88 22.26 88 30z" fill="#ffcd5f"></path><path d="M72.85 27.88c0 2.83-2.3 5.12-5.13 5.12h-1.44a5.12 5.12 0 0 1-3.63-1.5c-.93-.92-1.5-2.2-1.5-3.62 0-2.7 2.19-4.88 4.88-4.88h1.94c.23 0 .45.02.66.05.76.1 1.45.37 2.05.78.27.17.52.37.74.6.88.88 1.43 2.1 1.43 3.45zM75 39.08v8.14c-2.12 1-4.46 1.61-6.92 1.75-.05 0-.1.01-.15 0-2.46-.14-4.8-.74-6.93-1.75-.69-.32-1.36-.68-2-1.08v-7.06c0-2.8 2.28-5.08 5.08-5.08h5.84c.83 0 1.61.2 2.3.55 1.65.84 2.78 2.56 2.78 4.53z" fill="#ffa015"></path><path d="M118 95c0 3.39-.8 6.6-2.24 9.43-.27.53-.55 1.04-.86 1.54-.82 1.34-1.79 2.58-2.89 3.69a20.73 20.73 0 0 1-7.01 4.75 20.724 20.724 0 0 1-8 1.59c-.31 0-.61-.01-.92-.03h-.13c-2.45-.12-4.79-.66-6.95-1.56-.69-.28-1.36-.6-2-.96a20.817 20.817 0 0 1-5.78-4.6C77.97 105.15 76 100.3 76 95c0-6.83 3.28-12.91 8.34-16.74.54-.41 1.1-.79 1.68-1.15 2.38-1.47 5.08-2.48 7.97-2.89.98-.15 1.99-.22 3.01-.22 3.54 0 6.88.88 9.8 2.44C113.46 79.96 118 86.96 118 95z" fill="#48c7ff"></path><path d="M100.85 94.88c0 2.83-2.3 5.12-5.13 5.12h-1.44a5.12 5.12 0 0 1-3.63-1.5c-.93-.92-1.5-2.2-1.5-3.62 0-2.7 2.19-4.88 4.88-4.88h1.94c.23 0 .45.02.66.05.76.1 1.45.37 2.05.78.27.17.52.37.74.6.88.88 1.43 2.1 1.43 3.45zM103 106.08v8.33c-2.15.9-4.48 1.44-6.92 1.56h-.13c-2.45-.12-4.79-.66-6.95-1.56-.69-.28-1.36-.6-2-.96v-7.37c0-2.8 2.28-5.08 5.08-5.08h5.84c.83 0 1.61.2 2.3.55 1.65.84 2.78 2.56 2.78 4.53z" fill="#2671f7"></path><path d="M40 91.08v8.33a20.48 20.48 0 0 1-6.59 1.54 20.892 20.892 0 0 1-5.91-.44 19.78 19.78 0 0 1-3.5-1.1v-8.33c0-2.8 2.28-5.08 5.08-5.08h5.84c.94 0 1.82.26 2.57.7 1.5.89 2.51 2.52 2.51 4.38z" fill="#ff85dd"></path><path d="M37.85 79.88c0 2.75-2.17 4.99-4.89 5.11-.08.01-.16.01-.24.01h-1.44a5.12 5.12 0 0 1-3.63-1.5c-.93-.92-1.5-2.2-1.5-3.62 0-2.7 2.19-4.88 4.88-4.88h1.94c.23 0 .45.02.66.05.87.11 1.66.45 2.32.97.17.12.32.26.47.41.88.88 1.43 2.1 1.43 3.45z" fill="#ffcdbe"></path><path d="M77 39.08v8.14A18.687 18.687 0 0 1 69 49c-1.55 0-3.05-.18-4.49-.54-1.22-.3-2.4-.71-3.51-1.24v-8.14c0-2.8 2.28-5.08 5.08-5.08h5.84c.83 0 1.61.2 2.3.55 1.65.84 2.78 2.56 2.78 4.53z" fill="#05983d"></path><path d="m17.015 93.167-.795.683C12.97 90.15 11 85.3 11 80c0-6.83 3.28-12.91 8.34-16.74l.783 1.103c1.291 1.818 1.219 4.313-.266 5.976-2.706 3.032-5.868 8.798-1.713 16.921 1.025 2.002.576 4.442-1.129 5.907z" fill="#9597c8"></path><path d="m56.151 42.728-.691.592A18.969 18.969 0 0 1 50 30c0-6.63 3.41-12.48 8.57-15.88l.586.823c1.099 1.542.976 3.65-.328 5.023-2.833 2.985-6.562 9.101-1.74 17.89.893 1.627.471 3.665-.937 4.872z" fill="#ffa015"></path><path d="m27.61 64.73-1.85.71c-1.03.4-2.2.03-2.81-.89l-1.72-2.57c2.18-1.31 4.63-2.24 7.23-2.68l.6 2.72c.25 1.14-.36 2.29-1.45 2.71z" fill="#9597c8"></path><path d="M74.85 27.88c0 2.83-2.3 5.12-5.13 5.12h-1.44a5.12 5.12 0 0 1-3.63-1.5c-.93-.92-1.5-2.2-1.5-3.62 0-2.7 2.19-4.88 4.88-4.88h1.94c.23 0 .45.02.66.05.76.1 1.45.37 2.05.78.27.17.52.37.74.6.88.88 1.43 2.1 1.43 3.45z" fill="#ffcdbe"></path><path d="M105 106.08v8.33c-2.15.9-4.48 1.44-6.92 1.56a20.892 20.892 0 0 1-5.58-.46 19.78 19.78 0 0 1-3.5-1.1v-8.33c0-2.8 2.28-5.08 5.08-5.08h5.84c.83 0 1.61.2 2.3.55 1.65.84 2.78 2.56 2.78 4.53z" fill="#f73323"></path><path d="M102.85 94.88c0 2.83-2.3 5.12-5.13 5.12h-1.44a5.12 5.12 0 0 1-3.63-1.5c-.93-.92-1.5-2.2-1.5-3.62 0-2.7 2.19-4.88 4.88-4.88h1.94c.23 0 .45.02.66.05.76.1 1.45.37 2.05.78.27.17.52.37.74.6.88.88 1.43 2.1 1.43 3.45z" fill="#ffcdbe"></path><path d="M37 25a1 1 0 0 1-1-1v-6a1 1 0 0 1 2 0v6a1 1 0 0 1-1 1z" fill="#5989ad"></path><path d="M40 22h-6a1 1 0 0 1 0-2h6a1 1 0 0 1 0 2zM16 116a1 1 0 0 1-1-1v-6a1 1 0 0 1 2 0v6a1 1 0 0 1-1 1z" fill="#5989ad"></path><path d="M19 113h-6a1 1 0 0 1 0-2h6a1 1 0 0 1 0 2z" fill="#5989ad"></path><path d="M66.87 13.85c.07.89-.47 1.72-1.32 2l-1.37.44a1.92 1.92 0 0 1-2.22-.82l-1.51-2.43c1.9-.97 3.98-1.62 6.18-1.89z" fill="#ffa015"></path><path d="M36.279 104.95a1 1 0 0 1-.06-1.998c5.536-.34 10.632-3.093 13.982-7.553A1 1 0 0 1 51.8 96.6a20.925 20.925 0 0 1-15.458 8.348c-.022.002-.043.002-.063.002zM11.239 67.82a1.002 1.002 0 0 1-.889-1.457 20.885 20.885 0 0 1 11.216-10.008 1 1 0 0 1 .707 1.871 18.888 18.888 0 0 0-10.143 9.051 1 1 0 0 1-.891.543z" fill="#5989ad"></path><path d="m82.052 108.135-.832.715C77.97 105.15 76 100.3 76 95c0-6.83 3.28-12.91 8.34-16.74l.783 1.103c1.291 1.818 1.219 4.313-.266 5.976-2.711 3.037-5.879 8.819-1.69 16.965 1.015 1.974.569 4.385-1.115 5.831zM92.111 79.526c-.354.12-.697.252-1.022.389-1.544.649-3.329.099-4.19-1.338l-.879-1.467c2.38-1.47 5.08-2.48 7.97-2.89l.285 1.533c.302 1.618-.605 3.245-2.164 3.773z" fill="#2671f7"></path><path d="M87.999 44a1 1 0 0 1-.77-1.637C89.802 39.252 91 35.959 91 32c0-.696-.043-1.385-.132-2.108a.998.998 0 1 1 1.984-.244c.1.804.148 1.574.148 2.352 0 4.389-1.384 8.196-4.23 11.637a.997.997 0 0 1-.771.363zM52.319 15.32a1 1 0 0 1-.763-1.645 18.748 18.748 0 0 1 7.027-5.167 1.001 1.001 0 0 1 .776 1.844 16.73 16.73 0 0 0-6.274 4.613 1.003 1.003 0 0 1-.766.355zM76.989 81.49a.998.998 0 0 1-.85-1.524 20.865 20.865 0 0 1 8.318-7.667 1 1 0 1 1 .907 1.783 18.861 18.861 0 0 0-7.521 6.933 1.005 1.005 0 0 1-.854.475zM107.92 118.771a1.001 1.001 0 0 1-.345-1.938c4.786-1.766 8.716-5.446 10.781-10.098a1 1 0 1 1 1.828.812c-2.283 5.143-6.627 9.211-11.918 11.162a1 1 0 0 1-.346.062zM35.999 49c-.233 0-.468-.082-.658-.247l-11.93-10.43a1 1 0 0 1 1.316-1.506l11.93 10.43A1 1 0 0 1 35.999 49zM22.109 36.85a.999.999 0 0 1-.659-.248l-2.11-1.85a1 1 0 0 1 1.318-1.504l2.11 1.85a1 1 0 0 1-.659 1.752zM39 45c-.383 0-.748-.222-.914-.594l-4-9a1 1 0 1 1 1.827-.813l4 9A1 1 0 0 1 39 45zM32.001 53c-.06 0-.12-.005-.181-.016l-3.56-.65a1 1 0 0 1 .359-1.968l3.56.65A1 1 0 0 1 32.001 53zM25.871 51.89c-.06 0-.12-.005-.181-.016l-4.87-.89a1.002 1.002 0 0 1-.804-1.164c.1-.543.624-.899 1.164-.804l4.87.89a1 1 0 0 1-.179 1.984zM96.15 22.59a1 1 0 0 1-.314-1.95l6.31-2.09a1 1 0 1 1 .629 1.899l-6.31 2.09a.989.989 0 0 1-.315.051zM105.57 19.471a1.001 1.001 0 0 1-.315-1.949l4.43-1.47a1 1 0 1 1 .631 1.898l-4.43 1.47a1.024 1.024 0 0 1-.316.051zM92.329 17.45a1 1 0 0 1-.783-1.62l1.85-2.34a1 1 0 1 1 1.568 1.24l-1.85 2.34a.996.996 0 0 1-.785.38zM96.059 12.73a1 1 0 0 1-.784-1.619l2.94-3.73a1 1 0 1 1 1.57 1.238l-2.94 3.73c-.198.25-.491.381-.786.381zM109.87 32.184a.985.985 0 0 1-.256-.034l-13.538-3.565a1 1 0 0 1 .51-1.934l13.538 3.565a1 1 0 0 1-.254 1.968z" fill="#5989ad"></path><path d="M68.349 108.625a1 1 0 0 1-.68.95c-1.08.37-1.94.88-2.62 1.47-.43.36-.8.76-1.09 1.16-1.57 2.07-1.61 4.41-1.61 4.57 0 .55-.45.99-1 .99s-.99-.43-1-.98v-.02c0-.21-.1-5.42-5.32-7.19a1 1 0 0 1-.68-.95 1 1 0 0 1 .68-.95c1.12-.38 2.01-.92 2.7-1.53.51-.45.92-.93 1.24-1.41 1.34-1.99 1.38-4.11 1.38-4.26 0-.55.45-.99 1-.99s.99.43 1 .98v.02c0 .21.1 5.42 5.32 7.19a1 1 0 0 1 .68.95zM112 52.625a1 1 0 0 1-.68.95c-1.08.37-1.94.88-2.62 1.47-.43.36-.8.76-1.09 1.16-1.57 2.07-1.61 4.41-1.61 4.57 0 .55-.45.99-1 .99s-.99-.43-1-.98v-.02c0-.21-.1-5.42-5.32-7.19a1 1 0 0 1-.68-.95 1 1 0 0 1 .68-.95c1.12-.38 2.01-.92 2.7-1.53.51-.45.92-.93 1.24-1.41 1.34-1.99 1.38-4.11 1.38-4.26 0-.55.45-.99 1-.99s.99.43 1 .98v.02c0 .21.1 5.42 5.32 7.19a1 1 0 0 1 .68.95z" fill="#38f9e2"></path><path d="M23 17c0 .95-.26 1.83-.72 2.58-.41.68-.97 1.25-1.65 1.66-.66.42-1.43.68-2.25.74-.12.02-.25.02-.38.02-2.76 0-5-2.24-5-5 0-.9.24-1.75.66-2.48A4.994 4.994 0 0 1 18 12c.13 0 .26 0 .38.02C20.96 12.21 23 14.37 23 17zM32.26 86l-4.789 14.51c-1.2-.26-2.36-.63-3.47-1.1v-8.33c0-2.8 2.261-5.08 5.037-5.08z" fill="#e237c2"></path><path d="m33.549 75.05-3.332 9.85a5.062 5.062 0 0 1-2.598-1.4 5.089 5.089 0 0 1-1.487-3.62c0-2.7 2.172-4.88 4.839-4.88h1.924c.227 0 .445.02.654.05z" fill="#faa68e"></path><path d="m68.947 34-4.779 14.46c-1.21-.3-2.38-.71-3.48-1.24v-8.14c0-2.8 2.261-5.08 5.037-5.08z" fill="#046e18"></path><path d="m70.236 23.05-3.332 9.85a5.066 5.066 0 0 1-2.598-1.4 5.089 5.089 0 0 1-1.487-3.62c0-2.7 2.172-4.88 4.839-4.88h1.924c.228 0 .446.02.654.05z" fill="#faa68e"></path><path d="m96.711 101-4.789 14.51c-1.2-.26-2.36-.63-3.47-1.1v-8.33c0-2.8 2.261-5.08 5.037-5.08z" fill="#be1204"></path><path d="m98 90.05-3.332 9.85a5.062 5.062 0 0 1-2.598-1.4 5.089 5.089 0 0 1-1.487-3.62c0-2.7 2.172-4.88 4.839-4.88h1.924c.228 0 .446.02.654.05z" fill="#faa68e"></path></g></svg>