<svg viewBox="0 0 512 512" xmlns="http://www.w3.org/2000/svg"><g><path d="m113.236 190.109-48.66-95.433a26.47 26.47 0 0 0-23.583-14.447H17.759a5.294 5.294 0 0 0-5.294 5.294v104.585h100.771z" fill="#01d0fb"></path><path d="M64.576 94.676a26.47 26.47 0 0 0-23.583-14.447H17.759a5.24 5.24 0 0 0-2.435.619 26.469 26.469 0 0 1 17.915 13.828l48.66 95.433h31.336z" fill="#01c0fa"></path><path d="M464.632 215.822c-12.896 0-23.387-10.492-23.387-23.387v-3.356H5.294A5.294 5.294 0 0 0 0 194.373v20.797a5.295 5.295 0 0 0 3.562 5.003l112.968 39.109a52.934 52.934 0 0 0 17.32 2.913h69.189l19.799-16.398a15.103 15.103 0 0 1 9.612-3.463h109.042c1.237 0 1.912.834 2.131 1.616.219.781.077 1.845-.98 2.488l-25.854 15.758H462.02a51.592 51.592 0 0 0 30.062-9.664l10.53-7.55c9.776-7.009 11.802-19.687 6.612-29.159h-44.592z" fill="#f3eae6"></path><g fill="#e1d3ce"><path d="M133.85 262.195h67.622l20.729-17.168a16.07 16.07 0 0 1 7.663-3.477h-103.74a52.96 52.96 0 0 1-17.32-2.913L0 200.97v14.2a5.295 5.295 0 0 0 3.562 5.003l112.968 39.109a52.934 52.934 0 0 0 17.32 2.913zM501.525 216.822a22.315 22.315 0 0 1-6.639 7.514l-10.53 7.55a51.592 51.592 0 0 1-30.062 9.664H342.677c2.31.882 2.891 4.277.488 5.742l-24.452 14.903H462.02a51.59 51.59 0 0 0 30.062-9.664l10.53-7.55c9.436-6.766 11.651-18.812 7.126-28.159z" fill="#e1d3ce"></path></g><path d="m500.395 206.996-18.128-10.031a63.071 63.071 0 0 0-30.539-7.886h-11.484v3.356c0 13.469 10.919 24.387 24.387 24.387h45.107c-1.917-3.962-5.036-7.443-9.343-9.826z" fill="#a79ba7"></path><path d="M312.09 276.961h-19.607l-54.441 33.181h26.91c2.007 0 3.684 1.384 4.163 3.243h42.974a5.357 5.357 0 0 0 5.357-5.357v-25.711a5.355 5.355 0 0 0-5.356-5.356z" fill="#f3eae6"></path><path d="M312.09 276.961h-19.607l-17.859 10.885h16.009a5.357 5.357 0 0 1 5.357 5.357v20.183h16.1a5.357 5.357 0 0 0 5.357-5.357v-25.711a5.356 5.356 0 0 0-5.357-5.357z" fill="#e1d3ce"></path><path d="M264.953 309.1h-25.2l-52.218 31.827c3.215 2.852 7.432 4.598 12.068 4.598h65.35a5.357 5.357 0 0 0 5.357-5.357v-25.711a5.358 5.358 0 0 0-5.357-5.357z" fill="#f3eae6"></path><path d="M264.953 309.1h-23.197l-18.142 11.057h20.116a5.357 5.357 0 0 1 5.357 5.357v20.01h15.867a5.357 5.357 0 0 0 5.357-5.357v-25.711a5.359 5.359 0 0 0-5.358-5.356z" fill="#e1d3ce"></path><path d="m222.201 245.027-118.049 97.771c-2.858 2.367-1.184 7.011 2.527 7.011h57.999a36.64 36.64 0 0 0 19.069-5.353l159.419-97.165c2.773-1.69 1.575-5.958-1.673-5.958H232.451a16.07 16.07 0 0 0-10.25 3.694z" fill="#01d0fb"></path><path d="M341.493 241.333h-32.899c3.248 0 4.446 4.268 1.673 5.958l-159.419 97.165a36.64 36.64 0 0 1-19.069 5.353h32.899a36.64 36.64 0 0 0 19.069-5.353l159.419-97.165c2.773-1.69 1.575-5.958-1.673-5.958z" fill="#01c0fa"></path><path d="M368.772 90.818H352.36c0-15.789-12.8-28.589-28.589-28.589a28.464 28.464 0 0 0-17.212 5.763c-5.396-14.495-19.356-24.823-35.731-24.823s-30.335 10.327-35.731 24.823a28.462 28.462 0 0 0-17.212-5.763c-15.789 0-28.589 12.8-28.589 28.589h-16.412c-7.862 0-14.295 6.433-14.295 14.295s6.433 14.295 14.295 14.295h195.889c7.862 0 14.294-6.433 14.294-14.295s-6.433-14.295-14.295-14.295z" fill="#dff6fd"></path><path d="M368.38 90.818h-16.021c0-15.789-12.8-28.589-28.589-28.589a28.464 28.464 0 0 0-17.212 5.763c-5.396-14.495-19.356-24.823-35.731-24.823-13.447 0-25.261 6.967-32.046 17.485a37.922 37.922 0 0 1 21.394-6.576c14.456 0 27.029 8.048 33.491 19.907 1.299 2.385 4.274 3.361 6.704 2.147a28.461 28.461 0 0 1 12.748-2.995c14.309 0 26.163 10.512 28.26 24.235.387 2.53 2.641 4.354 5.2 4.354h11.065c6.262 0 12.016 3.854 14.02 9.786.886 2.621.932 5.151.433 7.485 6.765-1.63 11.702-8.088 10.881-15.494-.81-7.301-7.25-12.685-14.597-12.685z" fill="#c8effe"></path><path d="M229.002 440.242H212.59c0-15.789-12.8-28.589-28.589-28.589a28.464 28.464 0 0 0-17.212 5.763c-5.396-14.495-19.356-24.823-35.731-24.823s-30.335 10.327-35.731 24.823a28.462 28.462 0 0 0-17.212-5.763c-15.789 0-28.589 12.8-28.589 28.589H33.113c-7.862 0-14.295 6.433-14.295 14.295s6.433 14.295 14.295 14.295h195.889c7.862 0 14.294-6.433 14.294-14.295.001-7.863-6.432-14.295-14.294-14.295z" fill="#dff6fd"></path><path d="M228.595 440.242H212.59c0-15.789-12.8-28.589-28.589-28.589a28.464 28.464 0 0 0-17.212 5.763c-5.396-14.495-19.356-24.823-35.731-24.823-13.13 0-24.703 6.644-31.558 16.749a37.922 37.922 0 0 1 20.57-6.028c14.456 0 27.029 8.048 33.491 19.907 1.299 2.385 4.274 3.361 6.704 2.147a28.461 28.461 0 0 1 12.748-2.995c14.309 0 26.163 10.512 28.26 24.235.387 2.53 2.641 4.354 5.2 4.354h10.612c5.853 0 11.333 3.225 13.867 8.501 1.557 3.242 1.62 6.288.962 9.065 6.932-1.449 12.063-7.958 11.31-15.45-.741-7.369-7.222-12.836-14.629-12.836z" fill="#c8effe"></path><path d="M457.186 358.709a28.462 28.462 0 0 0-17.212 5.763c-5.396-14.495-19.356-24.823-35.731-24.823s-30.335 10.327-35.731 24.823a28.462 28.462 0 0 0-17.212-5.763c-15.789 0-28.589 12.8-28.589 28.589h-7.941c-7.862 0-14.295 6.433-14.295 14.295s6.433 14.295 14.295 14.295h142.417c15.789 0 28.589-12.8 28.589-28.589-.001-15.79-12.8-28.59-28.59-28.59z" fill="#dff6fd"></path><path d="M460.388 358.884c-7.688-.836-14.844 1.382-20.414 5.589-5.396-14.495-19.356-24.823-35.731-24.823-13.772 0-25.834 7.306-32.532 18.253a37.927 37.927 0 0 1 22.19-7.128c14.455 0 27.028 8.048 33.49 19.906 1.297 2.379 4.267 3.368 6.69 2.156a28.471 28.471 0 0 1 13.074-3.001c14.958.159 27.487 12.174 28.241 27.114a28.497 28.497 0 0 1-3.197 14.679c8.963-5.543 14.638-15.896 13.409-27.46-1.402-13.201-12.023-23.85-25.22-25.285z" fill="#c8effe"></path><g fill="#cdbfba"><path d="M139.528 205.087a7.5 7.5 0 0 0-7.5 7.5v4.235a7.5 7.5 0 0 0 15 0v-4.235a7.499 7.499 0 0 0-7.5-7.5zM172.353 205.087a7.5 7.5 0 0 0-7.5 7.5v4.235a7.5 7.5 0 0 0 15 0v-4.235a7.5 7.5 0 0 0-7.5-7.5zM205.178 205.087a7.5 7.5 0 0 0-7.5 7.5v4.235a7.5 7.5 0 0 0 15 0v-4.235a7.5 7.5 0 0 0-7.5-7.5zM238.002 205.087a7.5 7.5 0 0 0-7.5 7.5v4.235a7.5 7.5 0 0 0 15 0v-4.235a7.5 7.5 0 0 0-7.5-7.5zM270.827 205.087a7.5 7.5 0 0 0-7.5 7.5v4.235a7.5 7.5 0 0 0 15 0v-4.235a7.5 7.5 0 0 0-7.5-7.5zM303.651 205.087a7.5 7.5 0 0 0-7.5 7.5v4.235a7.5 7.5 0 0 0 15 0v-4.235a7.5 7.5 0 0 0-7.5-7.5zM336.476 205.087a7.5 7.5 0 0 0-7.5 7.5v4.235a7.5 7.5 0 0 0 15 0v-4.235a7.499 7.499 0 0 0-7.5-7.5zM369.301 205.087a7.5 7.5 0 0 0-7.5 7.5v4.235a7.5 7.5 0 0 0 15 0v-4.235a7.5 7.5 0 0 0-7.5-7.5zM402.126 205.087a7.5 7.5 0 0 0-7.5 7.5v4.235a7.5 7.5 0 0 0 15 0v-4.235a7.5 7.5 0 0 0-7.5-7.5z" fill="#cdbfba"></path></g><path d="M461.422 116.319h-11.648a7.5 7.5 0 0 1 0-15h11.648a7.5 7.5 0 0 1 0 15zM75.997 302.678H64.349a7.5 7.5 0 0 1 0-15h11.648a7.5 7.5 0 0 1 0 15zM400.008 307.972H388.36a7.5 7.5 0 0 1 0-15h11.648a7.5 7.5 0 0 1 0 15zM122.586 62.317h-11.647a7.5 7.5 0 0 1 0-15h11.647a7.5 7.5 0 0 1 0 15z" fill="#c8effe"></path></g></svg>