<svg viewBox="0 0 64 64" xmlns="http://www.w3.org/2000/svg"><g><path d="M22 47.96s3.27-1.79 5-9.58c5.02-.95 15.76-2.65 27.96-2.53.74 1.65 1.42 3.37 2.04 5.15l-29.12 7.28z" fill="#34b8d6"></path><path d="M54.96 35.85c-12.2-.12-22.94 1.58-27.96 2.53.5-2.25.87-5.01 1-8.38.7-18.25-6-29-6-29s22.2 10.75 32.96 34.85z" fill="#72d4e7"></path><path d="M44.771 28.05a.996.996 0 0 1-.818-.424c-2.717-3.854-5.942-7.537-9.586-10.945a1.001 1.001 0 0 1 1.367-1.461c3.744 3.502 7.059 7.288 9.854 11.254a1.001 1.001 0 0 1-.817 1.576z" fill="#abedef"></path><circle cx="32.353" cy="13.408" fill="#abedef" r="1"></circle><path d="M59.08 54.85c-.795 2.243-2.254 4.811-4.95 6.626C52.571 62.526 50.694 63 48.815 63H17.93a9.955 9.955 0 0 1-4.389-1.004C8.444 59.49 6.066 55.382 4.96 52.1z" fill="#ea4e56"></path><path d="M57.05 57.476C55.491 58.526 53.614 59 51.735 59H14.97a9.955 9.955 0 0 1-4.389-1.004 16.713 16.713 0 0 1-4.437-3.146c1.384 2.605 3.656 5.307 7.397 7.146A9.948 9.948 0 0 0 17.93 63h30.885c1.879 0 3.756-.474 5.315-1.524 2.109-1.419 3.453-3.299 4.323-5.124-.43.396-.887.777-1.403 1.124z" fill="#d83049"></path><path d="M23 48.014V1a1 1 0 0 0-2 0v46.907l1 .053z" fill="#adadad"></path><path d="M27.88 48.28 23 48.014l-1-.054-1-.053L4 47s0 2.23.96 5.1l54.12 2.75C60 52.2 60 50 60 50z" fill="#f99430"></path></g></svg>