<svg viewBox="0 0 512 512" xmlns="http://www.w3.org/2000/svg"><g><path d="M0 64v384l260.248 20L512 448V64L252.05 44z" fill="#ddebfd"></path><path d="M481.095 64H512v384h-30.905z" fill="#bed9fd"></path><path d="M0 64V25.043c0-5.69 4.612-10.302 10.302-10.302h491.396c5.69 0 10.302 4.612 10.302 10.302V64zM0 486.957V448h512v38.957c0 5.69-4.612 10.302-10.302 10.302H10.302C4.612 497.259 0 492.647 0 486.957z" fill="#655e67"></path><path d="M501.698 14.741h-30.905c5.69 0 10.302 4.612 10.302 10.302V64H512V25.043c0-5.69-4.612-10.302-10.302-10.302zM481.095 448v38.957c0 5.69-4.612 10.302-10.302 10.302h30.905c5.69 0 10.302-4.612 10.302-10.302V448z" fill="#544f56"></path><g fill="#655e67"><path d="M194.688 327.991h-.068a7.726 7.726 0 0 1-7.659-7.793c.08-9.284.161-19.589.235-30.142h-56.5a7.727 7.727 0 0 1-6.765-11.459c4.408-7.991 43.28-78.326 50.561-87.261 7.097-8.707 14.434-7.61 17.26-6.735 6.032 1.868 10.332 7.913 10.956 15.4.39 4.675.245 42.424.044 74.602h8.656a7.726 7.726 0 1 1 0 15.452h-8.759c-.106 14.957-.206 26.774-.236 30.275a7.728 7.728 0 0 1-7.725 7.661zm-50.879-53.387h43.489c.22-35.498.322-69.576.01-73.318a6.093 6.093 0 0 0-.155-.958c-.204.209-.432.464-.683.772-4.237 5.199-26.264 44.014-42.661 73.504zM372.205 256c10.184-7.387 16.826-19.373 16.826-32.888 0-22.395-18.22-40.615-40.615-40.615-19.365 0-36.125 13.774-39.852 32.752a7.726 7.726 0 0 0 15.163 2.977c2.308-11.749 12.691-20.277 24.689-20.277 13.874 0 25.162 11.288 25.162 25.162s-11.288 25.162-25.162 25.162a7.726 7.726 0 1 0 0 15.452c13.874 0 25.162 11.288 25.162 25.162s-11.288 25.162-25.162 25.162c-12.484 0-23.197-9.304-24.919-21.643a25.6 25.6 0 0 1-.243-3.519 7.726 7.726 0 1 0-15.452 0c0 1.891.132 3.795.391 5.656 2.782 19.93 20.074 34.959 40.223 34.959 22.395 0 40.615-18.219 40.615-40.615-.001-13.514-6.642-25.5-16.826-32.887zM260.72 236.825h-.944a7.726 7.726 0 1 1 0-15.452h.944a7.726 7.726 0 1 1 0 15.452zM260.72 290.628h-.944a7.726 7.726 0 1 1 0-15.452h.944a7.726 7.726 0 1 1 0 15.452zM59.731 410.927a7.726 7.726 0 0 1-4.642-13.908l50.969-38.221a7.726 7.726 0 1 1 9.271 12.362L64.36 409.381a7.685 7.685 0 0 1-4.629 1.546zM401.312 154.747a7.726 7.726 0 0 1-4.642-13.908l50.969-38.221a7.727 7.727 0 0 1 9.271 12.362l-50.969 38.221a7.685 7.685 0 0 1-4.629 1.546z" fill="#655e67"></path></g></g></svg>