<svg viewBox="0 0 512 512" xmlns="http://www.w3.org/2000/svg"><g><path d="M448.4 0H63.6c-8.267 0-14.969 6.702-14.969 14.969v480.999a14.973 14.973 0 0 0 7.099 12.734 14.973 14.973 0 0 0 14.564.655L256 416.505l185.706 92.852a14.97 14.97 0 0 0 21.663-13.388v-481C463.369 6.702 456.668 0 448.4 0z" fill="#ff6c6c"></path><path d="M448.4 1.063H256v416.505l185.706 92.852a14.97 14.97 0 0 0 21.663-13.388v-481c0-8.267-6.701-14.969-14.969-14.969z" fill="#ff3980"></path><path d="M366.437 176.439a14.968 14.968 0 0 0-12.083-10.187l-58.685-8.528-26.245-53.179a14.97 14.97 0 0 0-26.846.001l-26.242 53.178-58.687 8.528a14.967 14.967 0 0 0-8.295 25.533l42.467 41.391-10.027 58.444a14.97 14.97 0 0 0 21.72 15.781l52.49-27.591 52.494 27.591c2.204 1.159 4.616 1.71 7.012 1.719 8.254-.016 14.94-6.712 14.94-14.969 0-1.15-.129-2.268-.374-3.345l-9.885-57.631 42.463-41.392a14.974 14.974 0 0 0 3.783-15.344z" fill="#ffda2d"></path><path d="M366.437 176.439a14.968 14.968 0 0 0-12.083-10.187l-58.685-8.528-26.245-53.179a14.97 14.97 0 0 0-13.423-8.344V279.81l52.494 27.591c2.204 1.159 4.616 1.71 7.012 1.719 8.254-.016 14.94-6.712 14.94-14.969 0-1.15-.129-2.268-.374-3.345l-9.885-57.631 42.463-41.392a14.969 14.969 0 0 0 3.786-15.344z" fill="#ff9f00"></path></g></svg>