<svg viewBox="0 0 511 512" xmlns="http://www.w3.org/2000/svg"><g><path d="M243.484 355.797h26.032v26.035h-26.032zm0 0" fill="#ea6b65"></path><path d="M252.152 60.234 321.97 8.695l36.074 48.871-69.813 51.54zm0 0" fill="#dc4d41"></path><path d="M165.383 147.523h34.71v52.07h-34.71zM139.348 173.559l-34.711-34.711L90.87 90.684a17.355 17.355 0 0 0-16.68-12.582c-9.582.007-17.347 7.785-17.34 17.37 0 1.258.137 2.512.41 3.743l12.665 56.988 69.422 60.746h8.68v-43.39zM226.129 173.723l50.469-8.32 39.05-31.4a17.364 17.364 0 0 1 20.891-.66c7.824 5.536 9.68 16.368 4.145 24.196a17.486 17.486 0 0 1-2.496 2.82l-43.254 39.235-68.805 9.543-8.68-1.082V173.34zm0 0" fill="#f9d7c0"></path><path d="M355.254 208.523a8.676 8.676 0 0 1-6.992-3.523L245.219 65.371c-2.844-3.86-2.024-9.293 1.836-12.137a8.68 8.68 0 0 1 12.136 1.836L362.277 194.7c2.84 3.859 2.016 9.292-1.843 12.132a8.686 8.686 0 0 1-5.102 1.691zm0 0" fill="#d9d9d9"></path><g fill="#fbd699"><path d="M391.008 373.152h17.355v17.356h-17.355zM391.008 338.441h17.355v17.356h-17.355zM35.21 468.61h17.356v17.355H35.211zM35.21 433.898h17.356v17.356H35.211zM391.008 286.371h17.355v17.36h-17.355zM364.977 260.34h17.355v17.355h-17.355zM391.008 234.305h17.355v17.355h-17.355zM417.043 260.34h17.355v17.355h-17.355zm0 0" fill="#fbd699"></path></g><path d="M35.21 381.832h17.356v17.355H35.211zm0 0" fill="#f27e55"></path><path d="M35.21 347.117h17.356v17.36H35.211zm0 0" fill="#fbb540"></path><path d="M.5 347.117h17.355v17.36H.5zM35.21 312.406h17.356v17.356H35.211zM69.926 347.117H87.28v17.36H69.926zm0 0" fill="#f27e55"></path><path d="M460.434 69.422h17.355v17.36h-17.355zM434.398 95.457h17.356v17.356h-17.356zM486.465 95.457h17.355v17.356h-17.355zM460.434 121.492h17.355v17.356h-17.355zm0 0" fill="#99d8aa"></path><path d="M87.281 0h17.356v17.355H87.28zM69.926 17.355H87.28v17.356H69.926zM104.637 17.355h17.355v17.356h-17.355zM87.281 34.71h17.356v17.356H87.28zm0 0" fill="#f27e55"></path><path d="m253.082 169.473-26.953 4.441v-.355h-86.781l-16.395-16.391-21.379 26.727 37.774 33.054v60.746h86.78v-68.34l33.981-4.718zm0 0" fill="#fbb540"></path><path d="M139.348 269.016v130.171h34.71V303.73h43.391v34.711h34.711v-43.39c0-14.38-11.656-26.035-26.031-26.035zm0 0" fill="#277baa"></path><path d="M191.414 433.898h-52.066v-43.39h34.71c9.587 0 17.356 7.77 17.356 17.355zM217.45 329.762h34.71c9.586 0 17.356 7.77 17.356 17.355v17.36h-52.067zm0 0" fill="#ea6b65"></path><path d="M148.027 86.781h69.422v34.711c0 19.172-15.539 34.711-34.71 34.711s-34.716-15.539-34.716-34.71V86.78zm0 0" fill="#f9d7c0"></path><path d="M217.45 104.137 165.382 86.78l-17.356 17.356V86.78c0-19.172 15.54-34.715 34.711-34.715S217.45 67.61 217.45 86.781zm0 0" fill="#834b10"></path><path d="M495.145 512H364.977l-52.07-95.457h86.78l27.614 43.39h41.808zm0 0" fill="#428dc5"></path><path d="m61.246 512 52.066-86.781h86.782l43.39-60.742h86.778L364.977 512zm0 0" fill="#4799cf"></path></g></svg>