<svg viewBox="0 0 58 57" xmlns="http://www.w3.org/2000/svg"><g><g fill="none" fill-rule="evenodd"><path d="M47 20.5a8.511 8.511 0 0 1-8 8.49L36 20l3-7.99a8.511 8.511 0 0 1 8 8.49z" fill="#f3d55b"></path><path d="M33.59 50H56a2.006 2.006 0 0 1 2 2 2.015 2.015 0 0 1-2 2H2a2.006 2.006 0 0 1-2-2c-.003-.53.21-1.04.59-1.41.37-.38.88-.593 1.41-.59z" fill="#3b97d3"></path><circle cx="29" cy="52" fill="#9fc9d3" r="5"></circle><path d="M16 12v17H5a2.006 2.006 0 0 1-2-2V14a2.006 2.006 0 0 1 2-2z" fill="#bdc3c7"></path><path d="M39 2v37a2 2 0 0 1-2.92 1.77L14 29V12L36.08.23A2 2 0 0 1 39 2z" fill="#e64c3c"></path><g fill="#f29c1f"><path d="M46.9 35.71a1 1 0 0 1-.511-1.859 15.505 15.505 0 0 0-.261-26.841 1 1 0 0 1 .984-1.74 17.5 17.5 0 0 1 .3 30.3.987.987 0 0 1-.512.14z" fill="#f29c1f"></path><path d="M45.6 31.79a1 1 0 0 1-.57-1.823 11.5 11.5 0 0 0-.256-19.1 1 1 0 1 1 1.09-1.677 13.5 13.5 0 0 1 .3 22.422 1 1 0 0 1-.564.178z" fill="#f29c1f"></path></g></g></g></svg>