<svg clip-rule="evenodd" fill-rule="evenodd" height="512" image-rendering="optimizeQuality" shape-rendering="geometricPrecision" text-rendering="geometricPrecision" viewBox="0 0 1707 1707" width="512" xmlns="http://www.w3.org/2000/svg"><g id="Layer_x0020_1"><path d="m452 1545c-6-2-11-7-14-13l-75-130c-2-3-3-6-4-9-170 32-278 81-278 136 0 88 279 161 646 175z" fill="#a8eefc"/><path d="m487 1494 321 185c10 6 16 17 15 28h32c404 0 735-71 771-162h-521c-7 0-15-2-21-7-12-12-14-31-2-44l109-125c-59-7-123-11-189-14-46 58-95 117-147 176-52-59-101-118-147-176-104 4-201 14-286 27z" fill="#4ce166"/><path d="m1174 1483h429c-52-44-177-82-344-105 0 5-3 11-7 16z" fill="#4ce166"/><path d="m708 1355c46 58 95 117 147 176 52-59 101-118 147-176 206-263 343-521 343-865 0-270-219-490-490-490s-490 220-490 490c0 344 137 602 343 865z" fill="#ff4a4a"/><path d="m855 871c191 0 347-155 347-347 0-191-156-347-347-347-192 0-347 156-347 347 0 192 155 347 347 347z" fill="#fff"/><path d="m855 657c17 0 31-14 31-31v-109c24-6 45-18 62-35 23-24 38-56 38-93 0-36-15-68-38-92-24-24-57-38-93-38s-69 14-93 38c-23 24-38 56-38 92 0 18 14 32 31 32s31-14 31-32c0-19 8-36 20-48 13-13 30-20 49-20s36 7 49 20c12 12 20 29 20 48s-8 37-20 49c-13 13-30 20-49 20-17 0-31 14-31 31v137c0 17 14 31 31 31z" fill="#a6a6a6"/><path d="m884 730c0-16-13-29-29-29s-29 13-29 29 13 28 29 28 29-12 29-28z" fill="#a6a6a6"/><g fill="#ffbb24"><path d="m1603 1483h-429l78-89c4-5 7-11 7-16l-68-9-109 125c-12 13-10 32 2 44 6 5 14 7 21 7h521z"/><path d="m808 1679-321-185-65-112-63 11c1 3 2 6 4 9l75 130c3 6 8 11 14 13l275 159 96 3c1-11-5-22-15-28z"/></g></g></svg>