<svg viewBox="0 0 512 512" xmlns="http://www.w3.org/2000/svg"><g><g clip-rule="evenodd" fill-rule="evenodd"><path d="M56.03 0h399.94c17.8 0 32.37 14.54 32.37 32.34v369.78c0 17.8-14.57 32.34-32.37 32.34H56.03c-17.8 0-32.37-14.54-32.37-32.34V32.35C23.66 14.54 38.23 0 56.03 0z" fill="#ebf5fc"></path><path d="M56.03 0h399.94c17.8 0 32.37 14.54 32.37 32.34v46.43H23.66V32.35C23.66 14.54 38.23 0 56.03 0z" fill="#0593fc"></path><path d="M56.03 0h18.74C56.97 0 42.4 14.54 42.4 32.35v46.43H23.66V32.35C23.66 14.54 38.23 0 56.03 0z" fill="#0584e3"></path><path d="M42.4 78.78v323.35c0 17.8 14.57 32.34 32.37 32.34H56.03c-17.8 0-32.37-14.54-32.37-32.34V78.78z" fill="#d4dde3"></path><path d="M84.15 51.4c6.69 0 12.13-5.47 12.13-12.13 0-6.69-5.44-12.13-12.13-12.13s-12.13 5.44-12.13 12.13c0 6.65 5.44 12.13 12.13 12.13zM131.15 51.4c6.69 0 12.13-5.47 12.13-12.13 0-6.69-5.44-12.13-12.13-12.13-6.66 0-12.13 5.44-12.13 12.13 0 6.65 5.47 12.13 12.13 12.13zM178.17 51.4c6.66 0 12.13-5.47 12.13-12.13 0-6.69-5.47-12.13-12.13-12.13-6.69 0-12.13 5.44-12.13 12.13 0 6.65 5.45 12.13 12.13 12.13z" fill="#056bb8"></path></g><path d="M230.22 47.51c-4.56 0-8.25-3.69-8.25-8.25s3.68-8.28 8.25-8.28h209.76c4.56 0 8.25 3.71 8.25 8.28 0 4.56-3.69 8.25-8.25 8.25z" fill="#056bb8"></path><path clip-rule="evenodd" d="M255.99 115.43c78.01 0 141.25 63.21 141.25 141.22S334 397.9 255.99 397.9c-77.98 0-141.22-63.24-141.22-141.25S178 115.43 255.99 115.43z" fill="#00ccff" fill-rule="evenodd"></path><path clip-rule="evenodd" d="M255.99 115.43c9.07 0 17.91.85 26.5 2.49 9.35 8.02 17.6 20.24 24.24 35.6 4.56 10.54 8.42 22.65 11.42 35.89.68-.14 1.36-.28 2.01-.45 19.28-4.39 35.69-10.72 47.85-18.34 3.34 4.37 6.46 8.9 9.3 13.66h-.03c-13.72 8.7-32.06 15.87-53.43 20.75-.85.2-1.7.4-2.55.57 2.18 13.46 3.54 27.84 3.91 42.8h71.77c.17 2.72.26 5.47.26 8.25s-.09 5.53-.26 8.28h-71.77c-.37 14.94-1.73 29.31-3.91 42.77.85.2 1.7.4 2.55.57 21.37 4.9 39.71 12.05 53.43 20.78h.03c-2.83 4.73-5.95 9.3-9.3 13.66-12.16-7.63-28.57-13.95-47.85-18.37-.65-.14-1.33-.28-2.01-.45-3 13.27-6.86 25.37-11.42 35.91-6.63 15.36-14.88 27.58-24.24 35.6a141.06 141.06 0 0 1-26.5 2.49c-9.04 0-17.92-.85-26.48-2.49-9.35-8.02-17.6-20.24-24.24-35.6-4.56-10.54-8.42-22.65-11.42-35.91-.68.17-1.36.31-2.01.45-19.28 4.42-35.72 10.74-47.85 18.37-3.34-4.37-6.46-8.93-9.3-13.66h.03c13.69-8.73 32.06-15.87 53.43-20.78.85-.17 1.7-.37 2.55-.57-2.18-13.46-3.54-27.84-3.91-42.77h-71.8c-.14-2.75-.23-5.5-.23-8.28s.08-5.53.23-8.25h71.8c.37-14.97 1.73-29.34 3.91-42.8-.85-.17-1.7-.37-2.55-.57-21.37-4.88-39.74-12.05-53.43-20.75h-.03c2.83-4.76 5.95-9.3 9.3-13.66 12.13 7.63 28.57 13.95 47.85 18.34.65.17 1.33.31 2.01.45 3-13.24 6.86-25.34 11.42-35.89 6.63-15.36 14.88-27.58 24.24-35.6 8.59-1.64 17.43-2.49 26.48-2.49zM206.92 304.7c12.9-2.01 26.59-3.26 40.82-3.6v-36.17h-44.42c.34 13.95 1.59 27.3 3.6 39.77zm-3.6-56.3h44.42v-36.17c-14.23-.34-27.92-1.59-40.82-3.6-2.01 12.48-3.26 25.83-3.6 39.77zm6.72-55.98c11.88 1.81 24.52 2.95 37.7 3.29v-70.24c-10.18 4.45-19.7 16.84-27.35 34.58-4.12 9.46-7.6 20.38-10.35 32.37zm54.22-66.96v70.24c13.18-.34 25.82-1.47 37.7-3.29-2.75-11.99-6.24-22.9-10.35-32.37-7.67-17.74-17.17-30.13-27.35-34.58zm40.82 83.17c-12.9 2.01-26.59 3.26-40.82 3.6v36.17h44.42c-.34-13.94-1.59-27.29-3.6-39.77zm3.6 56.3h-44.42v36.17c14.23.34 27.92 1.59 40.82 3.6 2.01-12.47 3.26-25.82 3.6-39.77zm-6.72 55.96c-11.88-1.81-24.52-2.92-37.7-3.26v70.21c10.18-4.42 19.67-16.81 27.35-34.55 4.12-9.5 7.6-20.39 10.35-32.4zm-54.22 66.95v-70.21c-13.18.34-25.82 1.45-37.7 3.26 2.75 12.02 6.24 22.9 10.35 32.4 7.65 17.74 17.17 30.13 27.35 34.55z" fill="#ffffff" fill-rule="evenodd"></path><path clip-rule="evenodd" d="M333.34 434.64c0 42.72-34.64 77.36-77.36 77.36s-77.33-34.64-77.33-77.36 34.61-77.36 77.33-77.36 77.36 34.64 77.36 77.36z" fill="#70da40" fill-rule="evenodd"></path><path d="M284.76 408.76c3.2-3.23 8.45-3.23 11.68 0 3.2 3.2 3.2 8.45 0 11.68l-40.11 40.11c-3.23 3.2-8.48 3.2-11.68 0l-29.08-29.08c-3.2-3.23-3.2-8.45 0-11.68 3.23-3.23 8.48-3.23 11.68 0L250.49 443z" fill="#ffffff"></path><path clip-rule="evenodd" d="M260.63 511.85c-1.53.09-3.06.14-4.65.14-42.72 0-77.33-34.64-77.33-77.36s34.61-77.36 77.33-77.36c1.59 0 3.12.06 4.65.14-40.54 2.41-72.68 36.06-72.68 77.22 0 41.17 32.15 74.82 72.68 77.22z" fill="#65c43a" fill-rule="evenodd"></path></g></svg>