<svg viewBox="0 0 512 512" xmlns="http://www.w3.org/2000/svg"><g><path d="M436.985 110.324C388.608 61.951 324.333 35.311 256 35.311s-132.608 26.64-180.985 75.014c-5.859 5.859-5.852 15.36 0 21.213l45.434 45.437c5.859 5.859 15.362 5.853 21.215-.001C172.22 146.41 212.826 129.577 256 129.577s83.78 16.833 114.337 47.396a15.003 15.003 0 0 0 10.607 4.395c6.482 0 10.295-4.081 10.607-4.394l45.434-45.437c5.859-5.858 5.853-15.36 0-21.213z" fill="#ffe600"></path><path d="M436.985 110.324C388.608 61.951 324.333 35.311 256 35.311v94.267c43.174 0 83.78 16.833 114.337 47.396a15.003 15.003 0 0 0 10.607 4.395c6.482 0 10.295-4.081 10.607-4.394l45.434-45.437c5.859-5.859 5.853-15.361 0-21.214z" fill="#ffaa32"></path><path d="M141.662 405.646c-12.906-12.905-47.17-51.068-47.395-114.367.008-43.157 16.839-83.75 47.395-114.303l-66.647-66.651C26.641 158.695 0 222.971 0 291.311s26.641 132.616 75.015 180.986c2.929 2.929 6.767 4.393 10.606 4.393s7.678-1.465 10.607-4.394l45.434-45.437c5.858-5.858 5.858-15.355 0-21.213z" fill="#9bff00"></path><path d="M370.338 405.646c12.906-12.905 47.17-51.068 47.395-114.367-.008-43.157-16.839-83.75-47.395-114.303l66.647-66.651C485.359 158.695 512 222.971 512 291.311s-26.641 132.616-75.015 180.986c-2.929 2.929-6.767 4.393-10.606 4.393s-7.678-1.465-10.607-4.394l-45.434-45.437c-5.858-5.858-5.858-15.355 0-21.213z" fill="#ff1e5a"></path><path d="M94.267 291.279c.008-43.157 16.839-83.75 47.395-114.303l-66.647-66.651C26.641 158.695 0 222.971 0 291.311z" fill="#00d200"></path><path d="M370.338 405.646c12.906-12.905 47.17-51.068 47.395-114.367l94.267.032c0 68.34-26.641 132.616-75.015 180.986-2.929 2.929-6.767 4.393-10.606 4.393s-7.678-1.465-10.607-4.394l-45.434-45.437c-5.858-5.858-5.858-15.355 0-21.213z" fill="#c40050"></path><path d="M222.673 257.977c-18.377 18.377-18.377 48.279 0 66.657C245.889 347.85 359.984 420.7 372.918 428.93a15 15 0 0 0 20.708-20.708c-8.23-12.933-81.08-127.029-104.296-150.245-18.377-18.377-48.279-18.377-66.657 0z" fill="#003c50"></path><path d="m222.673 257.977 168.904 168.904a15 15 0 0 0 2.048-18.66c-8.23-12.933-81.08-127.029-104.296-150.245-18.376-18.376-48.278-18.376-66.656.001z" fill="#001428"></path></g></svg>