<svg viewBox="0 0 512 512" xmlns="http://www.w3.org/2000/svg"><g><path d="M297.394 269.678a7.308 7.308 0 0 1-1.603-4.525l-.02-24.104-4.737-3.334h-38.423v61.296h19.96l26.184-25.368zM352.539 147.573l11.332-7.984 2.253-8.16c-3.901-6.795-10.703-11.713-18.725-13.056h-6.449l-17.513 10.264v18.936z" fill="#ffb1a0"></path><path d="M342.971 144.856h-14.362l-5.173-7.54v26.482l5.173 7.54h14.362c14.735 0 26.681-11.946 26.681-26.681 0-4.82-1.291-9.33-3.529-13.228-4.601 8.021-13.242 13.427-23.152 13.427z" fill="#ffa68e"></path><path d="m144.359 135.984 12.445 11.59h29.618v-19.419l-23.179-7.572h-7.175a26.84 26.84 0 0 0-11.708 10.85v4.551z" fill="#ffb1a0"></path><path d="M167.51 144.856c-9.908 0-18.549-5.405-23.15-13.424a26.448 26.448 0 0 0-3.53 13.225c0 14.735 11.945 26.681 26.681 26.681h14.363l4.55-6.767v-26.482l-4.55 6.767zM254.328 237.714h-34.881l-4.8 3.226v24.167c0 2.117-.72 3.615-1.722 4.718l2.214 7.035 26.913 22.149h12.276z" fill="#ffa68e"></path><path d="m321.033 118.374-11.675-20.678H299.11l-24.779 25.068h-76.689l23.634 22.093v56.888l19.831 32.622 22.235 13.564 10.714 2.679c31.314-7.941 54.553-36.358 54.553-70.106v-52.44z" fill="#ffcebe"></path><path d="M224.819 180.504v-51.866l6.954-5.874h-42.947l-6.954 5.874v51.866c0 37.798 29.616 72.321 74.415 72.321 7.225 0 14.2-1.078 20.789-3.059-32.138-9.219-52.257-38.119-52.257-69.262z" fill="#ffb1a0"></path><path d="m302.06 506.076 27.386-216.424h-7.383L256 323.992l-64.77-32.279h-12.019L215.01 512h83.001z" fill="#dbedff"></path><g fill="#ffe559"><path d="M401.853 206.687a7.725 7.725 0 0 1-5.463-13.19c26.821-26.821 26.821-70.462 0-97.283a7.727 7.727 0 0 1 10.927-10.927c32.846 32.846 32.846 86.29 0 119.136a7.699 7.699 0 0 1-5.464 2.264z" fill="#ffe559"></path><path d="M430.956 230.238a7.725 7.725 0 0 1-5.463-13.19c39.807-39.807 39.807-104.578 0-144.385a7.727 7.727 0 0 1 10.927-10.927c45.832 45.832 45.832 120.406 0 166.238a7.7 7.7 0 0 1-5.464 2.264z" fill="#ffe559"></path><path d="M460.059 253.79a7.725 7.725 0 0 1-5.463-13.19c52.793-52.793 52.793-138.695 0-191.488-3.018-3.017-3.018-7.909 0-10.927s7.91-3.018 10.927 0c58.818 58.818 58.818 154.523 0 213.341a7.706 7.706 0 0 1-5.464 2.264zM110.147 206.687a7.7 7.7 0 0 1-5.463-2.263c-32.846-32.846-32.846-86.29 0-119.136a7.727 7.727 0 0 1 10.927 10.927c-26.82 26.821-26.82 70.462 0 97.283a7.725 7.725 0 0 1-5.464 13.189z" fill="#ffe559"></path><path d="M81.044 230.238a7.704 7.704 0 0 1-5.463-2.263c-45.832-45.832-45.832-120.406 0-166.238a7.727 7.727 0 0 1 10.927 10.927c-39.807 39.807-39.807 104.578 0 144.385a7.725 7.725 0 0 1-5.464 13.189z" fill="#ffe559"></path><path d="M51.942 253.79a7.704 7.704 0 0 1-5.463-2.263c-58.818-58.818-58.818-154.523 0-213.341a7.727 7.727 0 0 1 10.927 10.927c-52.793 52.793-52.793 138.695 0 191.488a7.725 7.725 0 0 1-5.464 13.189z" fill="#ffe559"></path></g><path d="m273.086 298.511-3.655-2.833H241.05l-2.99 2.173-9.667 16.998v2.719l10.959 23.912 1.755 1.957h27.101l2.921-1.957 10.959-23.911v-3.878z" fill="#ff5595"></path><path d="m328.135 282.527-27.657-10.555a7.298 7.298 0 0 1-3.084-2.295l-25.413 21.309a7.206 7.206 0 0 0-1.372 9.581l12.016 17.796c2.384 3.531 7.295 4.234 10.574 1.514l33.455-27.799 1.481-1.182.709-6.889zM238.5 290.986l-25.575-21.161a7.866 7.866 0 0 1-1.403 1.218l-27.757 10.841-1.077 2.703 1.077 7.147 1.807 1.802 31.71 26.342c3.279 2.72 8.19 2.017 10.574-1.514l12.016-17.796a7.207 7.207 0 0 0-1.372-9.582z" fill="#b5dcff"></path><path d="m265.847 361.569-16.241 145.28 7.153 5.151h34.275l-17.138-146.813z" fill="#ff5595"></path><path d="M271.13 341.48h-31.778L219.447 512h37.312l17.138-146.813z" fill="#ff3581"></path><path d="m102.978 319.557-4.016 23.879v156.201L106.068 512h113.379l-35.682-230.115-67.943 26.535z" fill="#8479c2"></path><path d="M103.422 498.783V347.291c0-15.531 5.164-28.64 12.4-38.871l-8.291 3.238c-16.956 6.979-39.661 28.936-39.661 61.517v125.608c0 7.299 5.918 13.217 13.216 13.217h35.553c-7.299 0-13.217-5.918-13.217-13.217z" fill="#6e60b8"></path><path d="M444.13 498.783V373.175c0-32.582-22.705-54.539-39.661-61.517l-76.333-29.131L292.553 512h138.361c7.298 0 13.216-5.918 13.216-13.217z" fill="#8479c2"></path><path d="M390.688 512V365.392a7.726 7.726 0 1 0-15.452 0V512zM136.764 512V365.392a7.726 7.726 0 1 0-15.452 0V512z" fill="#6e60b8"></path><path d="M323.911 33.438c-6.91.531-13.251-3.813-14.581-10.615C307.09 11.367 301.419 0 279.266 0H229.161L212.52 6.009l-19.573 21.634v90.731l10.979 10.264h56.142c19.512 0 36.458-10.946 45.056-27.029.666-1.246 2.559-.76 2.559.654 0 14.507 11.869 26.375 26.375 26.375 7.604 0 13.825-6.221 13.825-13.825V56.316c.001-13.781-12.022-23.797-23.972-22.878z" fill="#7b6c79"></path><path d="M194.275 107.132V51.076C194.275 22.868 217.143 0 245.352 0h-42.947c-28.209 0-51.076 22.868-51.076 51.076v56.055c0 11.878 9.628 21.506 21.506 21.506h42.947c-11.878 0-21.507-9.628-21.507-21.505z" fill="#665e68"></path></g></svg>