<svg viewBox="0 0 512 512" xmlns="http://www.w3.org/2000/svg"><g><path d="M0 151v240c0 24.813 20.187 45 45 45h422c24.813 0 45-20.187 45-45V151l-260.154-10z" fill="#e6e7f5"></path><path d="M512 151v240c0 24.81-20.19 45-45 45H256V141.16z" fill="#cfd1f4"></path><path d="M512 121c0-24.813-20.187-45-45-45H45C20.187 76 0 96.187 0 121v30h512z" fill="#ffca0f"></path><path d="M512 121v30H256V76h211c24.81 0 45 20.19 45 45z" fill="#ffb301"></path><path d="M71 376c-5.514 0-10-4.486-10-10v-30c0-38.598 31.402-70 70-70s70 31.402 70 70v30c0 5.514-4.486 10-10 10z" fill="#30c4ff"></path><path d="M201 336v30c0 5.51-4.49 10-10 10h-59.5V266.01c38.718.255 69.5 31.91 69.5 69.99z" fill="#1b9cf7"></path><g fill="#2f4247"><path d="M324 331h-53c-8.284 0-15 6.716-15 15s6.716 15 15 15h53c8.284 0 15-6.716 15-15s-6.716-15-15-15zM437 332h-53c-8.284 0-15 6.716-15 15s6.716 15 15 15h53c8.284 0 15-6.716 15-15s-6.716-15-15-15zM437 271H271c-8.284 0-15 6.716-15 15s6.716 15 15 15h166c8.284 0 15-6.716 15-15s-6.716-15-15-15zM271 240h166c8.284 0 15-6.716 15-15s-6.716-15-15-15H271c-8.284 0-15 6.716-15 15s6.716 15 15 15z" fill="#2f4247"></path></g><circle cx="131.5" cy="235.5" fill="#c56d59" r="40.5"></circle><path d="M172 235.5c0 22.41-18.244 40.5-40.5 40.5v-81c22.33 0 40.5 18.17 40.5 40.5z" fill="#b65d49"></path></g></svg>