<svg id="Layer_1" height="512" viewBox="0 0 64 64" width="512" xmlns="http://www.w3.org/2000/svg" data-name="Layer 1"><path d="m37 1a18 18 0 0 0 -14.944 28.035 2.833 2.833 0 1 0 3.838 4.112 17.994 17.994 0 1 0 11.106-32.147z" fill="#d9e1e6"/><path d="m45.448 3.109a17.987 17.987 0 0 1 -19.448 29.991v.118a17.989 17.989 0 1 0 19.448-30.109z" fill="#c0c8cc"/><path d="m47.31 16.26-2.11 7.74-.348 1.265a1 1 0 0 1 -.964.735h-11.238l-2.14-11h15.84a1 1 0 0 1 .96 1.26z" fill="#90aacc"/><circle cx="17" cy="37" fill="#d9e1e6" r="2"/><path d="m1 63v-12a3 3 0 0 1 3-3h10a3 3 0 0 1 3 3v12z" fill="#5993de"/><circle cx="9" cy="44" fill="#e6b374" r="4"/><rect fill="#7e95b3" height="3" rx="1.5" width="3" x="40.5" y="27"/><rect fill="#7e95b3" height="3" rx="1.5" width="3" x="33.5" y="27"/><path d="m42 51h6v12h-6z" fill="#cc7a7d"/><path d="m30 57h6v6h-6z" fill="#bf7375"/><path d="m57 38-6 8h3v17h6v-17h3z" fill="#d98285"/><path d="m45.2 24-.348 1.265a1 1 0 0 1 -.964.735h-11.238a.994.994 0 0 1 -.97-.79l-2.83-13.21h-3.2v-2h4a1 1 0 0 1 .977.79l.9 4.21 1.93 9z" fill="#7e95b3"/></svg>