<svg id="Layer_1" enable-background="new 0 0 512 512" height="512" viewBox="0 0 512 512" width="512" xmlns="http://www.w3.org/2000/svg"><g clip-rule="evenodd" fill-rule="evenodd"><path d="m263.1 368.4c20.7-1.8 36.8-4.3 41.8-7.5l95.8-59.6c34.4-21.4 71.9-1 41.1 25.3-20.9 17.9-62.6 55.4-102 88.3l-70.2 8.4z" fill="#fad1a2"/><path d="m287.6 421.2c19.8-14.8 43.4-34.4 66.3-54.1.7-.6 1.3-1.1 2-1.7 24.9-21.4 118.9-66.3 86-38.8-21.2 17.7-63 55.4-102.3 88.4z" fill="#e2bb92"/><path d="m389.5 372.8c0 10.4-24.9 18.9-55.7 18.9s-55.7-8.4-55.7-18.9v-251h111.4z" fill="#fdb614"/><path d="m389.5 372.8c0 8.1-15.3 15.1-36.7 17.7v-268.6h36.7z" fill="#cd962b"/><path d="m333.9 140.7c30.6 0 55.7-8.5 55.7-18.9s-25-18.9-55.7-18.9-55.7 8.5-55.7 18.9c-.1 10.4 25 18.9 55.7 18.9z" fill="#fedc97"/><path d="m287.1 349.4c0 10.4-24.9 18.9-55.7 18.9s-55.7-8.4-55.7-18.9v-179.3h111.3v179.3z" fill="#e6a624"/><path d="m287.1 349.4c0 8.6-16.8 15.8-39.8 18.1v-197.4h39.8z" fill="#cd962b"/><path d="m231.5 188.9c30.7 0 55.7-8.5 55.7-18.9s-25-18.9-55.7-18.9-55.7 8.5-55.7 18.9c0 10.5 25 18.9 55.7 18.9z" fill="#fedc97"/><path d="m347.7 384.1c0 10.4-24.9 18.9-55.7 18.9s-55.7-8.4-55.7-18.9v-118.9h111.4z" fill="#fdb614"/><path d="m347.7 384.1c0 8.9-18.1 16.3-42.6 18.3v-137.2h42.6z" fill="#cd962b"/><path d="m292.1 284c30.7 0 55.7-8.5 55.7-18.9s-25-18.9-55.7-18.9-55.7 8.5-55.7 18.9 25 18.9 55.7 18.9z" fill="#fedc97"/><path d="m76 341.5c6.9-5.9 13.8-11.9 20-17.6 20.6-19 35.2-28.9 50.6-33.5 18.6-5.6 34.6-23.8 61-36.4 66.2-31.6 86.2 30.6 35.4 53.7-37.1 19.5-67.7 37.4-67.6 43.7.1 4.8 162.2 21.9 181.9 12.7l102.2-47.8c36.7-17.1 71.5 7.6 37.8 30-42.1 27.9-161.4 113.5-198.2 123.6-52.2 4.9-178.6-3.6-225.7 1.8.3-.9.4-1.9.4-2.9z" fill="#fad1a2"/><path d="m15.2 316.6 49.5.4c6.4 0 11.6 5.8 11.5 12.2l-2.4 139.5c0 6.5-5.4 11.3-11.8 11.3l-49.5-.4c-6.4-.1-11.6-5.8-11.5-12.2l2.4-139.5c.1-6.6 5.4-11.4 11.8-11.3z" fill="#808080"/><path d="m75.4 381c-9.4 38.1-29.3 54.8-74 65.5l.1 22.3c0 1 .2 2 .4 2.9 1.4 4.9 6 8.3 11.5 8.3l49.5-.4c5.3 0 9.7-3.9 11.1-8.9.5-36.8 1.4-58.4 1.4-89.7z" fill="#5e5f5f"/><path d="m75.4 381.6c29.7 42 172.5 53.8 222.5 49.2 20.6-5.7 63-25.3 107.3-54.9.7-.5 1.4-1 2.2-1.4 27.3-18.3 126-51.7 90-28.2-42.4 27.5-161.5 113.4-198.2 123.5-52.2 4.9-178.6-3.6-225.7 1.8.3-.9.4-1.9.4-2.9l.1-6.9z" fill="#ccaa84"/><g fill="#fcb13b"><path d="m107.2 159 9.7 31.6 31.6 9.7-31.6 9.8-9.7 31.6-9.7-31.6-31.6-9.8 31.6-9.7z"/><path d="m453.2 173.3 9.7 31.6 31.6 9.8-31.6 9.7-9.7 31.6-9.7-31.6-31.6-9.7 31.6-9.8z"/><path d="m201.2 32 9.8 31.7 31.6 9.6-31.6 9.8-9.8 31.6-9.6-31.6-31.7-9.8 31.7-9.6z"/></g></g></svg>