<svg viewBox="0 0 512 512" xmlns="http://www.w3.org/2000/svg"><g><g fill="#8db9c4"><path d="M480.934 16.066c-8.284 0-15 6.716-15 15v48.2c0 8.284 6.716 15 15 15s15-6.716 15-15v-48.2c0-8.284-6.716-15-15-15zM416.666 16.066c-8.284 0-15 6.716-15 15v48.2c0 8.284 6.716 15 15 15s15-6.716 15-15v-48.2c0-8.284-6.716-15-15-15z" fill="#8db9c4"></path></g><path d="M497 64.267h-96.4c-8.284 0-15 6.716-15 15v48.2c0 29.68 20.57 54.633 48.201 61.386V400.6c0 9.447-7.687 17.134-17.135 17.134-9.447 0-17.133-7.687-17.133-17.134V256c0-43.708-35.561-79.267-79.268-79.267-8.284 0-15 6.716-15 15s6.716 15 15 15c27.166 0 49.268 22.101 49.268 49.267v144.6c0 25.989 21.143 47.134 47.133 47.134s47.135-21.145 47.135-47.134V188.853C491.43 182.1 512 157.146 512 127.467v-48.2c0-8.285-6.715-15-15-15z" fill="#00884a"></path><path d="M280.1 0H71.232C40.813 0 16.066 24.747 16.066 55.166V497c0 8.284 6.716 15 15 15h289.199c8.284 0 15-6.716 15-15V55.166C335.266 24.747 310.519 0 280.1 0z" fill="#54e360"></path><path d="M280.1 0H175.664v512h144.602c8.284 0 15-6.716 15-15V55.166C335.266 24.747 310.519 0 280.1 0z" fill="#00b44b"></path><path d="M256 64.267H95.334c-8.284 0-15 6.716-15 15V207.8c0 8.284 6.716 15 15 15H256c8.284 0 15-6.716 15-15V79.267c0-8.285-6.716-15-15-15z" fill="#a8ebfa"></path><path d="M175.654 435.687c-2.254 0-4.543-.51-6.696-1.587-7.41-3.704-10.413-12.715-6.708-20.124l23.288-46.575h-44.013a15 15 0 0 1-13.416-21.708l34.141-68.283c3.705-7.408 12.717-10.413 20.124-6.708 7.41 3.704 10.413 12.714 6.708 20.124L165.796 337.4h44.013a15 15 0 0 1 13.416 21.708l-34.143 68.283c-2.628 5.257-7.926 8.296-13.428 8.296z" fill="#fedb41"></path><path d="M336.334 512H15c-8.284 0-15-6.716-15-15s6.716-15 15-15h321.334c8.284 0 15 6.716 15 15s-6.716 15-15 15z" fill="#00ab5e"></path><path d="M336.334 482h-160.67v30h160.67c8.284 0 15-6.716 15-15s-6.716-15-15-15z" fill="#00884a"></path><path d="M256 64.267h-80.336V222.8H256c8.284 0 15-6.716 15-15V79.267c0-8.285-6.716-15-15-15z" fill="#76e2f8"></path><path d="M222.568 344.515a15 15 0 0 0-12.76-7.114h-34.145v30h9.874l-23.288 46.575c-3.705 7.409-.702 16.42 6.708 20.124a14.932 14.932 0 0 0 6.696 1.587c5.502 0 10.8-3.038 13.428-8.295l34.143-68.283a14.994 14.994 0 0 0-.656-14.594z" fill="#ffb64c"></path></g></svg>