<svg fill-rule="evenodd" viewBox="0 0 1707 1707" xmlns="http://www.w3.org/2000/svg"><g><path d="M1181 638c-38 0-34-31-17-39l7-135c-16-8-13-38 10-38 58 0 106 47 106 106s-48 106-106 106zM526 638c-59 0-106-47-106-106 0-97 126-133 126-86 0 7-3 13-9 16l6 138c17 8 20 38-17 38z" fill="#fec093"></path><path d="m853 1144 188-153V854c0-23-32-26-39-7l-297 2c-5-21-39-19-39 5v137z" fill="#fead84"></path><path d="M853 928c-188 0-343-178-347-396 0-25-7-60 19-60 8 0 13 3 17 9l311-45 313 44c3-5 8-8 16-8 26 0 19 34 19 60-4 218-160 396-348 396z" fill="#fec093"></path><path d="M853 572c-97 0-193-26-267-78-16-11-8-31 6-36l30-66 500 35-4 33c11 6 17 24 3 34-74 52-171 78-268 78z" fill="#243242"></path><path d="M1476 1707H230c-11 0-20-9-20-20l1-137c0-12 9-19 18-20v-81c-10-1-18-9-18-20l1-145c1-119 139-215 272-262l218 324 18 12c6 0 12-3 16-8l117-148 118 148c4 5 9 8 16 8l18-12 217-323-5-2c129 47 260 143 277 260l1 148c0 10-7 19-17 20v81c9 2 18 8 18 20v137c0 11-9 20-20 20zm-623-563c262-214 239-195 0 0z" fill="#4472b2" fill-rule="nonzero"></path><g fill="#f5b953"><path d="M1328 1075c85 51 154 123 166 206v19c-144 92-304-97-166-225zM212 1300v-16c0-86 73-160 163-212 135 115 2 303-141 240-6-2-14-7-22-12z" fill="#f5b953" fill-rule="nonzero"></path><path d="M1505 1570h-178c-11 0-20-9-20-20v-120c0-12 9-20 20-20h178c22 0 41 18 41 40v79c0 23-19 41-41 41zM380 1570H202c-23 0-41-18-41-41v-79c0-22 18-40 41-40h178c11 0 20 9 20 20v120c0 11-9 20-20 20z" fill="#f5b953"></path></g><path d="M400 1707h-40v-338c0-26 40-26 40 0zM1347 1707h-40v-338c0-26 40-26 40 0z" fill="#2d4d83" fill-rule="nonzero"></path><path d="m746 1707 47-330c3-22 32-21 38-5h53c4-18 35-20 39 3l48 332z" fill="#45546e"></path><path d="M876 1402h-45c-86 0-135-105-91-113l17-138 229 47-14 93c8 3 13 11 11 21-9 52-54 90-107 90z" fill="#5f6d87"></path><path d="M484 1022c57-19 113-30 157-30 8 0 16-1 25-1l187 153 188-153c8 0 17 1 25 1 46 0 101 11 156 31l-217 323-18 12c-7 0-12-3-16-8l-118-148-117 148c-4 5-10 8-16 8l-18-12z" fill="#2d4d83" fill-rule="nonzero"></path><path d="M501 512c-11 0-22-9-20-20l24-133c2-12 9-19 18-20l23-76 618 85c9-15 33-11 37 11l25 133c2 12-12 22-24 19-113-24-225-35-337-35-104 1-257 13-360 35-1 1-3 1-4 1z" fill="#4d5d7a"></path><path d="M501 374 389 240c-6-8-6-19 0-26C525 54 830 0 853 0s329 54 465 214c6 7 6 18 0 26l-113 134c-234-47-469-46-704 0z" fill="#4472b2"></path><path d="m906 267-53-15c-10 0-72 36-73-5 0-61 7-39-29-89-23-33 49-40 57-46s38-71 61-40c37 50 18 36 76 56 39 12-15 61-18 70-5 14 12 69-21 69z" fill="#f5b953"></path></g></svg>