<svg viewBox="0 0 64 64" xmlns="http://www.w3.org/2000/svg"><g><path d="m36.53 29.94 1.904-.613 2.523 7.85-1.904.612zM19 18h2v20h-2z" fill="#758da6"></path><path d="M10 2h20v17H10z" fill="#5a6d80"></path><circle cx="29" cy="45" fill="#759acc" r="4"></circle><circle cx="9" cy="45" fill="#759acc" r="4"></circle><path d="M38 36v6.597c0 .908-.309 1.79-.877 2.499L34 49h-7a5 5 0 0 0-5 5v8h14v-8l4.654-6.987a8.003 8.003 0 0 0 1.342-4.431L42 36z" fill="#759acc"></path><circle cx="49" cy="45" fill="#759acc" r="4"></circle><path d="M58 36v6.597c0 .908-.309 1.79-.877 2.499L54 49h-7a5 5 0 0 0-5 5v8h14v-8l4.654-6.987a8.003 8.003 0 0 0 1.342-4.431L62 36zM18 36v6.597c0 .908-.309 1.79-.877 2.499L14 49H7a5 5 0 0 0-5 5v8h14v-8l4.654-6.987a8.003 8.003 0 0 0 1.342-4.431L22 36z" fill="#759acc"></path><path d="m24.243 7.707-1.414-1.414L20 9.122l-2.829-2.829-1.414 1.414 2.829 2.829-2.829 2.828 1.414 1.414L20 11.95l2.829 2.828 1.414-1.414-2.829-2.828z" fill="#dadfe6"></path><path d="m54.66 21.761 4.83-1.295.519 1.932-4.83 1.295zM51.524 18.494l4.33-2.5 1 1.732-4.33 2.5zM54.097 26.094h5v2h-5zM12.5 39h-2c0-1 .421-1.561.7-1.933.212-.282.3-.399.3-.731 0-.334-.088-.452-.3-.735-.279-.372-.7-.934-.7-1.934s.421-1.562.7-1.934c.212-.283.3-.4.3-.734h2c0 1-.421 1.562-.7 1.934-.212.283-.3.4-.3.734s.088.451.3.734c.278.372.7.934.7 1.934s-.421 1.561-.7 1.932c-.212.284-.3.4-.3.733zM7.5 39h-2c0-1 .421-1.561.7-1.933.212-.282.3-.399.3-.731 0-.334-.088-.452-.3-.735-.279-.372-.7-.934-.7-1.934s.421-1.562.7-1.934c.212-.283.3-.4.3-.734h2c0 1-.421 1.562-.7 1.934-.212.283-.3.4-.3.734s.088.451.3.734c.278.372.7.934.7 1.934s-.421 1.561-.7 1.932c-.212.284-.3.4-.3.733z" fill="#758da6"></path><path d="m37.639 22.97-2.898.776a1 1 0 0 0-.707 1.225l1.553 5.796a1 1 0 0 0 1.225.707l2.898-.776z" fill="#5a6d80"></path><path d="M42.469 21.675c-.674.262-4.223 1.2-4.83 1.294l2.085 7.78c.572-.221 4.115-1.184 4.83-1.294 3.645-.56 6.637 1.253 7.797 2.052L48.195 16c-.604 1.272-2.29 4.338-5.726 5.675z" fill="#dadfe6"></path></g></svg>