<svg viewBox="0 0 512 512" xmlns="http://www.w3.org/2000/svg"><g><path d="M244.425.003h-84.168c-11.317 0-20.492 9.174-20.492 20.492v69.724h125.152V20.495C264.916 9.177 255.742.003 244.425.003z" fill="#deecf1"></path><path d="M196.786 0c-11.312 0-20.495 9.172-20.495 20.495v69.72h-36.527v-69.72C139.764 9.172 148.936 0 160.259 0z" fill="#cbe5e8"></path><path d="M289.201 60.758H115.48c-17.979 0-32.554 14.575-32.554 32.554v386.133C82.925 497.425 97.5 512 115.48 512h173.722c17.979 0 32.554-14.575 32.554-32.554V93.312c0-17.979-14.575-32.554-32.555-32.554z" fill="#f9f7f8"></path><path d="M168.118 511.999h-52.634c-17.978 0-32.559-14.57-32.559-32.559V93.312c0-17.978 14.581-32.559 32.559-32.559h52.634c-17.989 0-32.559 14.581-32.559 32.559V479.44c0 17.99 14.57 32.559 32.559 32.559z" fill="#deecf1"></path><path d="M120.024 460.895V114.526c0-7.735 6.271-14.006 14.006-14.006h136.622c7.735 0 14.006 6.271 14.006 14.006v346.369c0 7.735-6.271 14.006-14.006 14.006H134.03c-7.735 0-14.006-6.271-14.006-14.006z" fill="#fe5694"></path><path d="M164.271 474.901h-30.237c-7.742 0-14.011-6.269-14.011-14.011V114.526c0-7.742 6.269-14.011 14.011-14.011h30.237c-7.742 0-14.011 6.269-14.011 14.011V460.89c.001 7.742 6.269 14.011 14.011 14.011z" fill="#fd3581"></path><path d="M176.995 299.543h-24.493c-5.229 0-7.962-6.216-4.427-10.069l81.725-89.088c4.185-4.562 11.7-.579 10.274 5.445l-15.017 63.443c-.893 3.773 1.969 7.392 5.846 7.392h21.278c5.181 0 7.933 6.119 4.495 9.995l-78.322 88.295c-4.144 4.671-11.779.705-10.341-5.371l14.83-62.65c.891-3.773-1.971-7.392-5.848-7.392z" fill="#fee45a"></path><path d="m311.212 450.082-44.389-68.001c-3.516-5.386-2-12.601 3.386-16.117l24.393-15.923c5.386-3.516 12.601-2 16.117 3.386l25.061 38.392 45.27-89.393c2.906-5.738 9.912-8.033 15.65-5.128l25.988 13.161c5.738 2.906 8.033 9.912 5.128 15.65l-61.245 120.938a17.398 17.398 0 0 1-14.567 9.511l-25.272 1.386a17.398 17.398 0 0 1-15.52-7.862z" fill="#6fd7a3"></path></g></svg>