<svg viewBox="0 0 512 512" xmlns="http://www.w3.org/2000/svg"><g><g clip-rule="evenodd" fill-rule="evenodd"><path d="M57.297 46.543h397.406c19.089 0 34.71 15.621 34.71 34.71V477.29c0 19.089-15.621 34.71-34.71 34.71H57.297c-19.089 0-34.71-15.621-34.71-34.71V81.253c0-19.089 15.621-34.71 34.71-34.71z" fill="#97b3c4"></path><path d="M57.297 46.543h397.406c19.089 0 34.71 15.621 34.71 34.71v306.39C447.854 456.597 372.809 504.772 285.435 512H57.297c-19.089 0-34.71-15.621-34.71-34.71V81.253c0-19.089 15.621-34.71 34.71-34.71z" fill="#e1efff"></path><path d="M285.435 512c60.619-25.239 109.26-71.811 135.548-129.719 10.521 8.51 23.752 13.581 38.12 13.581 10.987 0 21.333-2.973 30.31-8.219C447.854 456.597 372.809 504.772 285.435 512zM54.965 493.902V104.335c0-18.798 15.359-34.157 34.128-34.157h390.936c2.681 0 5.333.321 7.84.933-4.342-14.193-17.603-24.568-33.166-24.568H57.297c-19.089 0-34.71 15.621-34.71 34.71V477.29c0 19.089 15.621 34.71 34.71 34.71h2.885a33.954 33.954 0 0 1-5.217-18.098z" fill="#b0ccdd"></path><path d="M57.297 46.543h397.406c19.089 0 34.71 15.621 34.71 34.71v75.25H22.587v-75.25c0-19.089 15.621-34.71 34.71-34.71z" fill="#d10028"></path><path d="M54.965 104.335c0-18.798 15.359-34.157 34.128-34.157h390.935c2.681 0 5.333.321 7.84.933-4.342-14.193-17.603-24.568-33.166-24.568H57.297c-19.089 0-34.71 15.621-34.71 34.71v75.25h32.379v-52.168z" fill="#b8000f"></path><path d="M166.091 0c10.346 0 18.798 8.452 18.798 18.769v55.548c0 10.317-8.452 18.769-18.798 18.769-10.317 0-18.769-8.452-18.769-18.769V18.769C147.322 8.452 155.774 0 166.091 0zM345.88 0c10.346 0 18.798 8.452 18.798 18.769v55.548c0 10.317-8.452 18.769-18.798 18.769-10.317 0-18.769-8.452-18.769-18.769V18.769C327.111 8.452 335.563 0 345.88 0z" fill="#113255"></path><path d="M166.091 0c-10.317 0-18.769 8.452-18.769 18.769V74.317c0 10.317 8.452 18.769 18.769 18.769V46.543zM345.88 0c-10.317 0-18.769 8.452-18.769 18.769V74.317c0 10.317 8.452 18.769 18.769 18.769V46.543z" fill="#00193c"></path></g><path d="M381.493 361.268a7.198 7.198 0 0 1-7.198 7.198h-59.366a7.198 7.198 0 0 1-7.198-7.198v-98.769a7.198 7.198 0 0 1 7.198-7.198h59.366a7.198 7.198 0 0 1 0 14.396h-52.168v29.552h48.059a7.198 7.198 0 0 1 0 14.396h-48.059v40.423h52.168a7.2 7.2 0 0 1 7.198 7.2zM197.042 255.301h-59.337a7.198 7.198 0 0 0 0 14.396h22.47v91.57a7.198 7.198 0 0 0 14.396 0v-91.57h22.47a7.198 7.198 0 0 0 .001-14.396zm88.627 0a7.198 7.198 0 0 0-7.198 7.198v69.1c0 12.39-10.08 22.47-22.47 22.47s-22.47-10.08-22.47-22.47v-69.1a7.198 7.198 0 0 0-14.396 0v69.1c0 20.329 16.538 36.867 36.867 36.867s36.867-16.538 36.867-36.867v-69.1a7.2 7.2 0 0 0-7.2-7.198z" fill="#113255"></path></g></svg>