<svg viewBox="0 0 512 512" xmlns="http://www.w3.org/2000/svg"><g><g clip-rule="evenodd" fill-rule="evenodd"><path d="M350.47 90.472H461c2.754 0 5 2.246 5 5V486H350.47l-10-225.544z" fill="#e4e8eb"></path><g fill="#a4d4ff"><path d="M393.829 128.903h28.811c2.754 0 5 2.246 5 5v28.811c0 2.754-2.246 5-5 5h-28.811a5.01 5.01 0 0 1-5-5v-28.811a5.01 5.01 0 0 1 5-5zM393.829 202.822h28.811c2.754 0 5 2.246 5 5v28.811c0 2.754-2.246 5-5 5h-28.811a5.01 5.01 0 0 1-5-5v-28.811a5.01 5.01 0 0 1 5-5zM393.829 276.742h28.811c2.754 0 5 2.246 5 5v28.811c0 2.754-2.246 5-5 5h-28.811a5.01 5.01 0 0 1-5-5v-28.811a5.01 5.01 0 0 1 5-5zM393.829 350.661h28.811c2.754 0 5 2.246 5 5v28.811c0 2.754-2.246 5-5 5h-28.811a5.01 5.01 0 0 1-5-5v-28.811a5.01 5.01 0 0 1 5-5z" fill="#a4d4ff"></path></g><path d="M51 90.472h110.53l10 171.269-10 224.259H46V95.472c0-2.754 2.246-5 5-5z" fill="#e4e8eb"></path><path d="M89.36 128.903h28.811c2.754 0 5 2.246 5 5v28.811c0 2.754-2.246 5-5 5H89.36a5.01 5.01 0 0 1-5-5v-28.811c0-2.754 2.246-5 5-5zM89.36 202.822h28.811c2.754 0 5 2.246 5 5v28.811c0 2.754-2.246 5-5 5H89.36a5.01 5.01 0 0 1-5-5v-28.811c0-2.754 2.246-5 5-5zM89.36 276.742h28.811c2.754 0 5 2.246 5 5v28.811c0 2.754-2.246 5-5 5H89.36a5.01 5.01 0 0 1-5-5v-28.811c0-2.755 2.246-5 5-5zM89.36 350.661h28.811c2.754 0 5 2.246 5 5v28.811c0 2.754-2.246 5-5 5H89.36a5.01 5.01 0 0 1-5-5v-28.811c0-2.754 2.246-5 5-5z" fill="#a4d4ff"></path><path d="M166.53 16h178.94c2.754 0 5 2.246 5 5v465H161.53V21c0-2.754 2.246-5 5-5z" fill="#f4f6f8"></path><path d="M199.473 202.285h113.053c2.754 0 5 2.246 5 5v29.348c0 2.754-2.246 5-5 5H199.473a5.01 5.01 0 0 1-5-5v-29.348a5.01 5.01 0 0 1 5-5z" fill="#a4d4ff"></path><path d="M199.473 350.661h113.053c2.754 0 5 2.246 5 5V471c0 2.754-2.246 5-5 5H199.473a5.01 5.01 0 0 1-5-5V355.661a5.01 5.01 0 0 1 5-5z" fill="#d5a889"></path><path d="M249 350.661h14v125.338h-14z" fill="#937661"></path><path d="M199.473 276.204h113.053c2.754 0 5 2.246 5 5v29.348c0 2.754-2.246 5-5 5H199.473a5.01 5.01 0 0 1-5-5v-29.348a5.01 5.01 0 0 1 5-5z" fill="#a4d4ff"></path><path d="M21 467.601h470c2.754 0 5 2.246 5 5V491c0 2.754-2.246 5-5 5H21a5.01 5.01 0 0 1-5-5v-18.399c0-2.754 2.246-5 5-5z" fill="#cad0d7"></path><circle cx="256" cy="104.382" fill="#f76c82" r="64.055" transform="rotate(-22.48 255.86 104.19)"></circle><path d="M241.807 67.707h28.387v22.482h22.482v28.387h-22.482v22.482h-28.387v-22.482h-22.482V90.189h22.482z" fill="#f4f6f8"></path></g></g></svg>