<svg viewBox="0 0 135 135" xmlns="http://www.w3.org/2000/svg"><g><path d="M120.88 92.081h4.512v36.263h-4.512zM105.949 92.081h4.512v36.263h-4.512z" fill="#ab5033"></path><path d="M118.322 51.795V86.11c0 5.584-4.524 10.118-10.117 10.118-5.594 0-10.119-4.534-10.119-10.118V51.795c0-5.594 4.525-10.128 10.119-10.128 2.796 0 5.326 1.136 7.159 2.969a10.125 10.125 0 0 1 2.958 7.159z" fill="#8eae1f"></path><path d="M101.305 51.137c0-.613.49-1.089 1.09-1.089a1.07 1.07 0 0 1 1.073 1.09c0 .598-.475 1.073-1.074 1.073a1.08 1.08 0 0 1-1.09-1.074zM105.662 44.82c0-.613.491-1.09 1.09-1.09a1.07 1.07 0 0 1 1.074 1.09c0 .599-.476 1.073-1.075 1.073a1.08 1.08 0 0 1-1.089-1.073zM112.86 45.898a.627.627 0 1 1 1.251 0c0 .346-.275.62-.62.62a.625.625 0 0 1-.63-.62zM110.697 50.682c0-.614.491-1.09 1.09-1.09a1.07 1.07 0 0 1 1.073 1.09c0 .598-.475 1.073-1.074 1.073a1.08 1.08 0 0 1-1.089-1.073zM113.486 73.35c0-.613.49-1.089 1.089-1.089a1.07 1.07 0 0 1 1.074 1.09c0 .598-.476 1.073-1.074 1.073a1.08 1.08 0 0 1-1.09-1.073zM106.232 62.743a.573.573 0 1 1 1.142 0 .564.564 0 0 1-.567.567.57.57 0 0 1-.575-.567zM101.61 78.929a.573.573 0 1 1 1.144 0 .564.564 0 0 1-.568.567.57.57 0 0 1-.575-.567zM101.61 66.904a.573.573 0 1 1 1.144 0 .564.564 0 0 1-.568.568.57.57 0 0 1-.575-.568zM107.035 75a.573.573 0 1 1 1.143 0 .564.564 0 0 1-.568.566.57.57 0 0 1-.575-.567zM115.247 78.929a.573.573 0 1 1 1.143 0 .564.564 0 0 1-.567.567.57.57 0 0 1-.576-.567zM113.544 85.853a.573.573 0 1 1 1.143 0 .564.564 0 0 1-.568.567.57.57 0 0 1-.575-.567zM108.116 85.853a.573.573 0 1 1 1.143 0 .564.564 0 0 1-.567.567.57.57 0 0 1-.576-.567zM102.897 91.984a.573.573 0 1 1 1.143 0 .564.564 0 0 1-.568.567.57.57 0 0 1-.575-.567zM104.486 69.883a.573.573 0 1 1 1.143 0 .564.564 0 0 1-.568.567.57.57 0 0 1-.575-.567zM107.37 57.48c0-.613.49-1.088 1.089-1.088a1.07 1.07 0 0 1 1.074 1.089c0 .598-.476 1.073-1.074 1.073a1.08 1.08 0 0 1-1.09-1.073zM113.03 61.666c0-.614.49-1.09 1.089-1.09a1.07 1.07 0 0 1 1.074 1.09c0 .598-.476 1.073-1.074 1.073a1.08 1.08 0 0 1-1.09-1.073zM100.122 61.662a.627.627 0 1 1 1.251 0c0 .346-.275.621-.621.621a.625.625 0 0 1-.63-.62zM103.21 57.478a.627.627 0 1 1 1.25 0c0 .346-.274.62-.62.62a.625.625 0 0 1-.63-.62zM113.316 68.23a.627.627 0 1 1 1.251 0c0 .347-.275.622-.62.622a.625.625 0 0 1-.63-.621zM106.858 51.76a.627.627 0 1 1 1.25 0c0 .346-.274.62-.62.62a.625.625 0 0 1-.63-.62zM114.567 55.138a.627.627 0 1 1 1.252 0c0 .346-.276.62-.622.62a.625.625 0 0 1-.63-.62zM100.019 73.35c0-.613.49-1.089 1.089-1.089a1.07 1.07 0 0 1 1.074 1.09c0 .598-.475 1.073-1.074 1.073a1.08 1.08 0 0 1-1.09-1.073zM111.38 92.804c0-.613.491-1.089 1.09-1.089a1.07 1.07 0 0 1 1.074 1.09c0 .598-.476 1.073-1.074 1.073a1.08 1.08 0 0 1-1.09-1.074zM108.451 68.86c0-.614.491-1.09 1.09-1.09a1.07 1.07 0 0 1 1.073 1.09c0 .598-.475 1.073-1.074 1.073a1.08 1.08 0 0 1-1.089-1.074zM108.178 79.504c0-.613.49-1.09 1.089-1.09a1.07 1.07 0 0 1 1.074 1.09c0 .599-.476 1.073-1.074 1.073a1.08 1.08 0 0 1-1.09-1.073zM102.387 84.775c0-.613.49-1.089 1.089-1.089a1.07 1.07 0 0 1 1.074 1.09c0 .598-.476 1.073-1.074 1.073a1.08 1.08 0 0 1-1.09-1.074z" fill="#86a018"></path><path d="M131.442 68.02v28.17a8.305 8.305 0 0 1-8.306 8.306 8.305 8.305 0 0 1-8.306-8.306V68.02c0-4.592 3.714-8.314 8.306-8.314 2.296 0 4.372.933 5.877 2.437a8.312 8.312 0 0 1 2.429 5.877z" fill="#86a018"></path><path d="M129.275 96.766a.858.858 0 0 1-.863.863.848.848 0 0 1-.85-.863c0-.474.376-.85.85-.85s.863.376.863.85zM125.823 101.77a.858.858 0 0 1-.862.862.848.848 0 0 1-.851-.862c0-.474.377-.85.85-.85.475 0 .863.376.863.85zM120.123 100.916a.496.496 0 1 1-.993.005.496.496 0 0 1 .993-.005zM121.836 97.127a.858.858 0 0 1-.863.863.848.848 0 0 1-.85-.863c0-.474.376-.85.85-.85s.863.376.863.85zM119.627 79.173a.858.858 0 0 1-.863.863.848.848 0 0 1-.85-.863c0-.474.376-.85.85-.85s.863.376.863.85zM125.373 87.574a.453.453 0 1 1-.907.005.453.453 0 0 1 .907-.005zM129.032 74.755a.453.453 0 1 1-.907.005.453.453 0 0 1 .907-.005zM129.032 84.279a.453.453 0 1 1-.907.004.453.453 0 0 1 .907-.004zM124.736 77.867a.453.453 0 1 1-.906.005.453.453 0 0 1 .906-.005zM118.232 74.755a.453.453 0 1 1-.907.005.453.453 0 0 1 .907-.005zM119.581 69.271a.453.453 0 1 1-.907.005.453.453 0 0 1 .907-.005zM123.88 69.271a.453.453 0 1 1-.907.005.453.453 0 0 1 .907-.005zM128.014 64.416a.453.453 0 1 1-.907.004.453.453 0 0 1 .907-.004zM126.755 81.92a.453.453 0 1 1-.907.004.453.453 0 0 1 .907-.004zM124.471 91.742a.858.858 0 0 1-.862.863.848.848 0 0 1-.851-.863c0-.474.377-.85.85-.85.474 0 .863.376.863.85zM119.988 88.428a.858.858 0 0 1-.862.862.848.848 0 0 1-.851-.862c0-.474.377-.85.85-.85.474 0 .863.376.863.85zM130.211 88.43a.496.496 0 1 1-.992.005.496.496 0 0 1 .992-.005zM127.766 91.745a.496.496 0 1 1-.993.005.496.496 0 0 1 .993-.005zM119.761 83.228a.496.496 0 1 1-.992.005.496.496 0 0 1 .992-.005zM124.877 96.274a.496.496 0 1 1-.993.005.496.496 0 0 1 .993-.005zM118.77 93.598a.496.496 0 1 1-.992.005.496.496 0 0 1 .992-.005zM130.293 79.173a.858.858 0 0 1-.863.863.848.848 0 0 1-.85-.863c0-.474.376-.85.85-.85s.863.376.863.85zM121.295 63.765a.858.858 0 0 1-.863.863.848.848 0 0 1-.85-.863c0-.474.376-.85.85-.85s.863.376.863.85zM123.615 82.73a.858.858 0 0 1-.863.863.848.848 0 0 1-.85-.863c0-.474.376-.85.85-.85s.863.376.863.85zM123.831 74.3a.858.858 0 0 1-.862.862.848.848 0 0 1-.851-.862c0-.474.377-.85.85-.85.474 0 .863.376.863.85zM128.418 70.125a.858.858 0 0 1-.863.862.848.848 0 0 1-.85-.862c0-.474.376-.85.85-.85s.863.376.863.85z" fill="#7e9112"></path><path d="M20.823 47.38h1.97v72.317h-1.97z" fill="#86531c"></path><path d="m40.107 119.697-6.076-73.526-1.963.162 6.062 73.364zM5.477 119.697l6.063-73.364-1.963-.162L3.5 119.697z" fill="#c98841"></path><path d="m38.61 118.528-33.224-12.02a.985.985 0 0 1-.36-1.624l29.25-29.25-24.79-24.79 1.392-1.394 25.487 25.487a.985.985 0 0 1 0 1.393L7.514 105.182l31.767 11.493z" fill="#c98841"></path><path d="m5.271 118.527-.675-1.851 31.571-11.51L7.512 76.328a.985.985 0 0 1 0-1.388l25.17-25.37 1.398 1.388L9.6 75.633l29.05 29.236a.985.985 0 0 1-.36 1.62z" fill="#c98841"></path><path d="m35.913 22.346-1.525 24.18H9.228l-1.525-24.18z" fill="#daa561"></path><path d="M39.221 22.41H4.386L21.81 3.5z" fill="#86531c"></path><path d="M7.948 45.242h27.711v2.379H7.948z" fill="#daa561"></path><path d="M37.305 45.716H6.302L5.07 35.096h33.467zm-30.152-.955h29.301l1.01-8.71H6.144z" fill="#86531c"></path><path d="m31.377 45.202.746-9.665.953.073-.746 9.665zM26.347 45.237l.377-9.662.954.037-.377 9.663zM21.326 35.574h.956v9.665h-.956zM15.936 35.577l.954-.037.377 9.662-.954.037zM10.526 35.61l.953-.074.747 9.665-.953.074z" fill="#86531c"></path><path d="M3.5 128.34h128v3.16H3.5z" fill="#7a8490"></path><path d="M4.833 94.552h101.301v33.778H4.833zM97.24 60.775c-33.767-11.523-49.746-11.523-83.513 0L4.833 94.552h101.3z" fill="#e02d24"></path><path d="M98.208 64.41v63.93h-3.557V59.927c.853.249 1.707.57 2.597.854zM89.1 58.112v70.228h-3.557V57.08c1.174.321 2.348.677 3.558 1.032zM79.993 55.55v72.79h-3.558V54.697c1.175.25 2.349.534 3.558.854zM70.921 53.559v74.78h-3.557V52.99c1.174.178 2.348.356 3.557.57zM61.814 52.42v75.92h-3.558V52.207c1.174 0 2.348.071 3.558.213zM52.706 52.207v76.133H49.15V52.42a30.296 30.296 0 0 1 3.557-.213zM43.634 52.99v75.35h-3.557V53.559c1.21-.214 2.383-.392 3.557-.57zM34.527 54.697v73.643h-3.558V55.55c1.21-.32 2.384-.604 3.558-.853zM25.42 57.08v71.26h-3.558V58.112c1.21-.355 2.383-.711 3.558-1.031zM16.312 59.927v68.413h-3.558V64.41l.961-3.63c.89-.284 1.743-.604 2.597-.853z" fill="#ce1b17"></path><path d="M107.466 128.33h-2.668V95.886H6.168v32.444H3.5V94.55c0-.736.598-1.334 1.334-1.334h101.298c.737 0 1.334.598 1.334 1.334z" fill="#f9f6c9"></path><path d="M104.843 94.892 96.13 61.807c-32.901-11.156-48.379-11.16-81.294 0L6.123 94.892l-2.578-.681 8.894-33.776c.111-.431.434-.779.858-.923 33.905-11.567 50.46-11.57 84.372 0 .424.144.747.492.858.923l8.894 33.776z" fill="#f9f6c9"></path><path d="M46.035 61.992h18.899v25.896H46.035z" fill="#44433f"></path><path d="M46.914 62.883h9.009v24.114h-9.009z" fill="#e02d24"></path><path d="M54.86 63.947v21.989h-6.874V63.947zm1.067-1.067H46.92v24.123h9.008z" fill="#eae5b7"></path><path d="M64.936 88.782H46.03a.89.89 0 0 1-.89-.89V61.99c0-.491.4-.89.89-.89h18.906c.49 0 .89.399.89.89v25.902c0 .492-.4.89-.89.89zM46.92 87.003h17.128V62.88H46.919z" fill="#f9f6c9"></path><path d="M64.047 62.88h9.008v24.123h-9.008z" fill="#44433f"></path><path d="M71.988 63.947v21.989h-6.874V63.947zm1.067-1.067h-9.008v24.123h9.008z" fill="#eae5b7"></path><path d="M40.09 95.88h30.788v32.454H40.09z" fill="#44433f"></path><path d="M40.09 95.892h14.781v32.442H40.09z" fill="#ce1b17"></path><g fill="#eae5b7"><path d="M53.433 97.322v29.573H41.521V97.322zm1.436-1.435H40.085v32.443H54.87z" fill="#eae5b7"></path><path d="M40.085 111.379h14.763v1.46H40.085z" fill="#eae5b7"></path><path d="m40.651 112.986 12.919 15.077 1.032-1.032-12.919-15.077z" fill="#eae5b7"></path><path d="m53.57 111.954-12.919 15.077 1.032 1.032 12.92-15.077z" fill="#eae5b7"></path></g><path d="M58.26 95.892h14.781v32.442H58.26z" fill="#ce1b17"></path><g fill="#eae5b7"><path d="M71.604 97.322v29.573H59.692V97.322zm1.436-1.435H58.256v32.443H73.04z" fill="#eae5b7"></path><path d="M58.256 111.379h14.763v1.46H58.256z" fill="#eae5b7"></path><path d="m58.822 112.986 12.92 15.077 1.031-1.032-12.919-15.077z" fill="#eae5b7"></path><path d="m71.741 111.954-12.919 15.077 1.032 1.032 12.92-15.077z" fill="#eae5b7"></path></g></g></svg>