<svg viewBox="0 0 512 512" xmlns="http://www.w3.org/2000/svg"><g><path d="M481.012 220.908a63.737 63.737 0 0 0-53.325-62.793A72.039 72.039 0 0 0 366.756 69.7 69.122 69.122 0 0 0 298.121 8C276.9 8 263.541 16.943 256 28.954 248.459 16.943 235.1 8 213.879 8a69.123 69.123 0 0 0-68.636 61.705 72.037 72.037 0 0 0-60.93 88.41 63.6 63.6 0 0 0-36.894 105.422 63.595 63.595 0 0 0 30.417 104.01 72.07 72.07 0 0 0-.248 5.689 70.176 70.176 0 0 0 67.781 70.046A69.115 69.115 0 0 0 213.879 504c21.224 0 34.58-8.944 42.121-20.955C263.541 495.056 276.9 504 298.121 504a69.115 69.115 0 0 0 68.509-60.718 70.174 70.174 0 0 0 67.782-70.046c0-1.911-.1-3.805-.248-5.689a63.594 63.594 0 0 0 30.416-104.01 63.388 63.388 0 0 0 16.432-42.629z" fill="#e79098"></path><g fill="#d16676"><path d="M105.259 214.382H95.31a8 8 0 0 0 0 16h9.949a8 8 0 1 0 0-16zM230.957 229a41.459 41.459 0 0 0-24-28.556 41.418 41.418 0 0 0-39.788-52.927 8 8 0 0 0 0 16 25.433 25.433 0 0 1 0 50.866h-25.288a8 8 0 0 0 0 16h25.285a41.356 41.356 0 0 0 32.4-15.666 25.482 25.482 0 0 1 15.825 18A8 8 0 1 0 230.957 229zM127.057 353.77a8 8 0 0 1-8-8 47.312 47.312 0 0 1 47.258-47.259h29.706a8 8 0 1 1 0 16h-29.706a31.294 31.294 0 0 0-31.258 31.259 8 8 0 0 1-8 8zM222.323 419.136a8 8 0 0 1-7.45-10.912 11.8 11.8 0 0 0-15.321-15.324 8 8 0 0 1-5.871-14.885 27.8 27.8 0 0 1 36.1 36.033 8 8 0 0 1-7.458 5.088zM370.118 214.382h-25.284a25.463 25.463 0 0 1-21.8-12.321 7.926 7.926 0 0 0-.558-.97 25.428 25.428 0 0 1 22.358-37.575 8 8 0 0 0 0-16 41.416 41.416 0 0 0-39.812 52.938A41.455 41.455 0 0 0 281.043 229a8 8 0 1 0 15.562 3.717 25.476 25.476 0 0 1 15.808-17.994 41.391 41.391 0 0 0 32.421 15.66h25.284a8 8 0 0 0 0-16zM416.689 214.382h-9.949a8 8 0 0 0 0 16h9.949a8 8 0 0 0 0-16zM384.943 353.77a8 8 0 0 1-8-8 31.293 31.293 0 0 0-31.258-31.259h-29.706a8 8 0 0 1 0-16h29.706a47.312 47.312 0 0 1 47.258 47.259 8 8 0 0 1-8 8zM289.676 419.136a8 8 0 0 1-7.454-5.093 27.8 27.8 0 0 1 36.1-36.032 8 8 0 0 1-5.871 14.885 11.8 11.8 0 0 0-15.322 15.329 8.005 8.005 0 0 1-7.45 10.911zM286.5 263.107a38.448 38.448 0 0 0-30.5 15.046 38.451 38.451 0 0 0-30.5-15.046 8 8 0 0 0 0 16 22.526 22.526 0 0 1 22.5 22.5v23.074a8 8 0 1 0 16 0v-23.074a22.525 22.525 0 0 1 22.5-22.5 8 8 0 0 0 0-16zM51.942 68.219a7.977 7.977 0 0 1-5.654-2.341l-28.431-28.4a8 8 0 0 1 11.308-11.32L57.6 54.559a8 8 0 0 1-5.654 13.66zM31.816 496.488a8 8 0 0 1-5.659-13.654l28.4-28.431a8 8 0 1 1 11.319 11.309l-28.4 28.431a7.977 7.977 0 0 1-5.66 2.345zM488.488 488.183a7.98 7.98 0 0 1-5.654-2.34l-28.431-28.4a8 8 0 1 1 11.309-11.32l28.431 28.4a8 8 0 0 1-5.655 13.661zM451.781 59.941a8 8 0 0 1-5.659-13.654l28.4-28.431a8 8 0 0 1 11.32 11.309L457.441 57.6a7.977 7.977 0 0 1-5.66 2.341zM16.113 264H16a8 8 0 0 1 0-16h.113a8 8 0 0 1 0 16zM496 264h-.113a8 8 0 1 1 0-16H496a8 8 0 0 1 0 16zM168.662 70.605a71.474 71.474 0 0 1 45.655 30.84l.009.013a7.559 7.559 0 0 0 10.587 2.065l.726-.5a7.56 7.56 0 0 0 2.028-10.4 87.368 87.368 0 0 0-55.807-37.7 88.861 88.861 0 0 0-17.734-1.8 84.7 84.7 0 0 0-5.046.157 68.47 68.47 0 0 0-3.837 16.42 72.1 72.1 0 0 1 23.419.905zM94.63 157.267a63.623 63.623 0 0 1 22.2 3.985h.008a7.688 7.688 0 0 0 9.915-4.627l.209-.589a7.687 7.687 0 0 0-4.567-9.788 79.841 79.841 0 0 0-40.079-4.029 71.4 71.4 0 0 0 2 15.893h-.011a63.709 63.709 0 0 1 10.325-.845zM83.7 344.506v-.011a7.624 7.624 0 0 0-3.94-10.124l-.693-.3a7.624 7.624 0 0 0-9.969 3.88 85.264 85.264 0 0 0-6.659 23.058 62.914 62.914 0 0 0 15.317 6.515l.072.015a69.4 69.4 0 0 1 5.872-23.033zM102.63 292.55a8 8 0 0 0-8-8 63.492 63.492 0 0 1-47.225-21.03l.014.017a63.718 63.718 0 0 0-9.3 13.414 79.371 79.371 0 0 0 56.509 23.6 8 8 0 0 0 8.002-8.001zM211.743 430.808a7.817 7.817 0 0 0-.543-11l-.27-.246a7.817 7.817 0 0 0-11.083.547 70.222 70.222 0 0 1-52.153 23.231c-.738 0-1.472-.016-2.2-.039l-.089.163a68.511 68.511 0 0 0 3.922 15.852 86.243 86.243 0 0 0 62.416-28.508zM212.058 8.043A49.9 49.9 0 0 1 248 55.941v70.946a8 8 0 0 0 16 0V55.941a49.9 49.9 0 0 1 35.946-47.895h-.005c-.606-.016-1.21-.043-1.82-.043C276.9 8 263.541 16.943 256 28.954 248.459 16.943 235.1 8 213.879 8c-.61 0-1.214.027-1.821.043zM256 483.045C263.541 495.056 276.9 504 298.121 504c.612 0 1.218-.027 1.826-.043A49.892 49.892 0 0 1 264 456.059v-70.946a8 8 0 0 0-16 0v70.946a49.892 49.892 0 0 1-35.946 47.894c.608.016 1.214.043 1.826.043 21.22.004 34.579-8.94 42.12-20.951zM449.553 361.011a62.9 62.9 0 0 1-15.318 6.515l-.071.015a69.4 69.4 0 0 0-5.867-23.035l-.005-.011a7.624 7.624 0 0 1 3.94-10.124l.693-.3a7.624 7.624 0 0 1 9.969 3.88 85.254 85.254 0 0 1 6.659 23.06zM464.6 263.52a63.492 63.492 0 0 1-47.225 21.03 8 8 0 0 0 0 16 79.37 79.37 0 0 0 56.509-23.6 63.692 63.692 0 0 0-9.3-13.415l.015-.017zm-98 179.946-.089-.162c-.732.023-1.466.039-2.2.039a70.222 70.222 0 0 1-52.153-23.231 7.817 7.817 0 0 0-11.083-.547l-.27.246a7.817 7.817 0 0 0-.543 11 86.243 86.243 0 0 0 62.425 28.511 68.519 68.519 0 0 0 3.913-15.856zM284.333 92.625a7.56 7.56 0 0 0 2.028 10.4l.726.5a7.559 7.559 0 0 0 10.587-2.065l.009-.013A72.058 72.058 0 0 1 366.759 69.7a68.469 68.469 0 0 0-3.836-16.417 84.726 84.726 0 0 0-5.046-.157 88.861 88.861 0 0 0-17.734 1.8 87.368 87.368 0 0 0-55.81 37.699zm133.037 48.642a79.573 79.573 0 0 0-27.763 4.984 7.687 7.687 0 0 0-4.567 9.788l.209.589a7.688 7.688 0 0 0 9.915 4.627h.008a63.607 63.607 0 0 1 32.53-3.134h-.015a71.4 71.4 0 0 0 2-15.893 79.655 79.655 0 0 0-12.317-.961z" fill="#d16676"></path></g><path d="M334.029 56.426a91.078 91.078 0 0 1 6.111-1.5 88.861 88.861 0 0 1 17.734-1.8c1.687 0 3.367.057 5.043.157a69.158 69.158 0 0 0-60.538-45.137c16.181 10.271 27.996 27.725 31.65 48.28zM443.72 296.043a71.187 71.187 0 0 1 .986 11.776 69.885 69.885 0 0 1-5.2 26.524 7.592 7.592 0 0 1 3.391 3.61 85.254 85.254 0 0 1 6.659 23.058 63.494 63.494 0 0 0 24.326-84.059 79.847 79.847 0 0 1-30.162 19.091zM427.7 158.118a63.226 63.226 0 0 0-21.027.059c22.289 9.876 38.031 33.551 38.031 61.132a68.812 68.812 0 0 1-15.8 44.252 66.794 66.794 0 0 1 10.363 17.082A63.88 63.88 0 0 0 464.6 263.52l-.015.017a63.6 63.6 0 0 0-36.893-105.422zM356.2 69.175a68.518 68.518 0 0 1 8.149 5c21.953 15.679 33.3 43.151 30.625 70.317a79.551 79.551 0 0 1 34.714-2.271A71.8 71.8 0 0 0 356.2 69.175zM334.21 453.9c-3.474 21.453-15.81 39.653-32.772 50.025a69.133 69.133 0 0 0 61.24-44.6 86.186 86.186 0 0 1-28.468-5.425zM434.235 367.526l-.071.015a69.694 69.694 0 0 0-3.675-17.528 60.978 60.978 0 0 1-30.827 21.519c.143 1.956.238 3.921.238 5.906 0 29.062-15.871 54.171-38.739 65.819 1.047.047 2.095.084 3.147.084.738 0 1.472-.016 2.2-.039l.089.162c.008-.062.019-.122.026-.184a70.174 70.174 0 0 0 67.782-70.046c0-1.911-.1-3.805-.248-5.689.031-.004.054-.013.078-.019z" fill="#e17983"></path></g></svg>