<svg id="Layer_2" viewBox="0 0 512 512" xmlns="http://www.w3.org/2000/svg" data-name="Layer 2"><g id="Icon"><g id="_14" data-name="14"><rect id="Background" fill="#1273eb" height="512" rx="150" width="512"/><path d="m139.77 236.51c8.58-4.64 15.22-10.96 19.93-18.96 4.7-7.99 7.05-16.93 7.05-26.81v-13.58c0-10.11-2.35-19.16-7.05-27.16-4.7-7.99-11.35-14.31-19.93-18.96-8.58-4.64-18.75-6.97-30.51-6.97-10.82 0-20.22 2.35-28.22 7.05s-14.17 11.05-18.52 19.05-6.53 16.99-6.53 26.98v13.58c0 9.88 2.2 18.81 6.61 26.81s10.61 14.32 18.61 18.96c7.99 4.65 17.46 6.97 28.39 6.97 11.52 0 21.57-2.32 30.16-6.97zm-43.82-31.66c-3.12-3.76-4.67-8.47-4.67-14.11v-13.58c0-5.64 1.47-10.4 4.41-14.28s7.46-5.82 13.58-5.82 10.4 1.94 13.58 5.82 4.76 8.64 4.76 14.28v13.58c0 5.53-1.56 10.2-4.67 14.02-3.12 3.82-7.56 5.73-13.31 5.73s-10.55-1.88-13.67-5.64zm165.16-40.03-125.39 200.69-28.57-14.11 125.39-200.69zm187.85 129.62c-4.7-7.99-11.35-14.31-19.93-18.96-8.58-4.64-18.75-6.97-30.51-6.97-10.82 0-20.22 2.35-28.22 7.05-3.93 2.31-7.42 5.03-10.47 8.14-3.26-3.03-6.98-5.69-11.16-7.97-8.64-4.7-18.78-7.05-30.42-7.05-8.7 0-16.43 1.5-23.19 4.5s-12.32 7.26-16.67 12.79c-4.7-5.52-10.4-9.79-17.11-12.79-6.7-3-14.4-4.5-23.1-4.5-11.52 0-21.6 2.32-30.25 6.97-8.64 4.65-15.34 10.96-20.1 18.96s-7.14 16.99-7.14 26.98v13.4c0 9.99 2.38 18.99 7.14 26.98 4.76 8 11.46 14.32 20.1 18.96s18.84 6.97 30.6 6.97c8.35 0 15.93-1.5 22.75-4.5s12.52-7.26 17.11-12.79c4.35 5.53 9.93 9.79 16.75 12.79s14.64 4.5 23.46 4.5c11.52 0 21.57-2.32 30.16-6.97 4.22-2.28 7.96-4.97 11.24-8.06 3.06 3.09 6.55 5.78 10.48 8.06 7.99 4.65 17.46 6.97 28.39 6.97 11.52 0 21.57-2.32 30.16-6.97 8.58-4.64 15.22-10.96 19.93-18.96 4.7-7.99 7.05-16.93 7.05-26.81v-13.58c0-10.11-2.35-19.16-7.05-27.16zm-192.78 40.56c0 6.47-1.21 11.44-3.61 14.9-2.41 3.47-7.08 5.2-14.02 5.2-5.17 0-9.58-2-13.23-6s-5.47-8.7-5.47-14.11v-13.4c0-5.52 1.53-10.23 4.59-14.11s7.64-5.82 13.76-5.82 10.34 1.94 13.4 5.82 4.59 8.58 4.59 14.11v13.4zm80.24 0c0 6.47-1.21 11.44-3.62 14.9-2.41 3.47-7.14 5.2-14.2 5.2-5.17 0-9.58-2-13.23-6s-5.47-8.7-5.47-14.11v-13.4c0-5.52 1.53-10.23 4.59-14.11s7.64-5.82 13.76-5.82 10.37 1.94 13.49 5.82c3.11 3.88 4.67 8.58 4.67 14.11v13.4zm80.45.18c0 5.53-1.56 10.2-4.67 14.02-3.12 3.82-7.56 5.73-13.31 5.73s-10.55-1.88-13.67-5.64-4.67-8.47-4.67-14.11v-13.58c0-5.64 1.47-10.4 4.41-14.28s7.46-5.82 13.58-5.82 10.4 1.94 13.58 5.82 4.76 8.64 4.76 14.28v13.58z" fill="#fff"/></g></g></svg>