<svg id="Flat" height="512" viewBox="0 0 64 64" width="512" xmlns="http://www.w3.org/2000/svg"><path d="m3 21h58a0 0 0 0 1 0 0v38a2 2 0 0 1 -2 2h-54a2 2 0 0 1 -2-2v-38a0 0 0 0 1 0 0z" fill="#fafaff"/><path d="m6 21h55a0 0 0 0 1 0 0v38a2 2 0 0 1 -2 2h-51a2 2 0 0 1 -2-2v-38a0 0 0 0 1 0 0z" fill="#f3f3ff"/><path d="m3 21h58v2.5h-58z" fill="#f3f3ff"/><path d="m6 21h55v2.5h-55z" fill="#e6e6ff"/><rect fill="#fb7d8c" height="12" rx="2" width="62" x="1" y="9"/><path d="m6 11.5a2 2 0 0 0 -2 2v7.5h57a2 2 0 0 0 2-2v-7.5z" fill="#fa5a69"/><g fill="#5a5a63"><path d="m32 2.25a2.752 2.752 0 0 0 -2.75 2.75v4h1.5v-4a1.25 1.25 0 0 1 2.5 0v8a1.252 1.252 0 0 1 -1.25 1.25.75.75 0 0 0 0 1.5 2.752 2.752 0 0 0 2.75-2.75v-8a2.752 2.752 0 0 0 -2.75-2.75z"/><path d="m56 2.25a2.752 2.752 0 0 0 -2.75 2.75v4h1.5v-4a1.25 1.25 0 0 1 2.5 0v8a1.252 1.252 0 0 1 -1.25 1.25.75.75 0 0 0 0 1.5 2.752 2.752 0 0 0 2.75-2.75v-8a2.752 2.752 0 0 0 -2.75-2.75z"/><path d="m44 2.25a2.752 2.752 0 0 0 -2.75 2.75v4h1.5v-4a1.25 1.25 0 0 1 2.5 0v8a1.252 1.252 0 0 1 -1.25 1.25.75.75 0 0 0 0 1.5 2.752 2.752 0 0 0 2.75-2.75v-8a2.752 2.752 0 0 0 -2.75-2.75z"/><path d="m8 2.25a2.752 2.752 0 0 0 -2.75 2.75v4h1.5v-4a1.25 1.25 0 0 1 2.5 0v8a1.252 1.252 0 0 1 -1.25 1.25.75.75 0 0 0 0 1.5 2.752 2.752 0 0 0 2.75-2.75v-8a2.752 2.752 0 0 0 -2.75-2.75z"/><path d="m20 2.25a2.752 2.752 0 0 0 -2.75 2.75v4h1.5v-4a1.25 1.25 0 0 1 2.5 0v8a1.252 1.252 0 0 1 -1.25 1.25.75.75 0 0 0 0 1.5 2.752 2.752 0 0 0 2.75-2.75v-8a2.752 2.752 0 0 0 -2.75-2.75z"/></g><path d="m49 50h-4a4.505 4.505 0 0 1 -4.5-4.5v-10a4.505 4.505 0 0 1 4.5-4.5h4a4.505 4.505 0 0 1 4.5 4.5v1a1.5 1.5 0 0 1 -3 0v-1a1.5 1.5 0 0 0 -1.5-1.5h-4a1.5 1.5 0 0 0 -1.5 1.5v10a1.5 1.5 0 0 0 1.5 1.5h4a1.5 1.5 0 0 0 1.5-1.5v-1.5h-1.5a1.5 1.5 0 0 1 0-3h3a1.5 1.5 0 0 1 1.5 1.5v3a4.505 4.505 0 0 1 -4.5 4.5z" fill="#6b6b73"/><path d="m46 32.5a4 4 0 0 0 -4 4v11a3.977 3.977 0 0 0 .346 1.615 4.454 4.454 0 0 0 2.654.885h4a4.505 4.505 0 0 0 4.5-4.5v-3a1.5 1.5 0 0 0 -1.5-1.5h-3a1.5 1.5 0 0 0 0 3h1.5v1.5a1.5 1.5 0 0 1 -1.5 1.5h-4a1.5 1.5 0 0 1 -1.5-1.5v-10a1.5 1.5 0 0 1 1.5-1.5h4a1.5 1.5 0 0 1 1.5 1.5v1a1.5 1.5 0 0 0 3 0v-1a4.46 4.46 0 0 0 -.885-2.654 3.977 3.977 0 0 0 -1.615-.346z" fill="#5a5a63"/><path d="m16 31a5.506 5.506 0 0 0 -5.5 5.5v12a1.5 1.5 0 0 0 3 0v-4.5h5v4.5a1.5 1.5 0 0 0 3 0v-12a5.506 5.506 0 0 0 -5.5-5.5zm-2.5 10v-4.5a2.5 2.5 0 0 1 5 0v4.5z" fill="#6b6b73"/><path d="m19.747 32.485a5.491 5.491 0 0 0 -7.747 5.015v12a1.483 1.483 0 0 0 .089.491 1.5 1.5 0 0 0 1.411-1.491v-4.5h5v4.5a1.5 1.5 0 0 0 3 0v-12a5.481 5.481 0 0 0 -1.753-4.015zm-1.247 8.515h-5v-4.5a2.5 2.5 0 0 1 5 0z" fill="#5a5a63"/><path d="m28.5 32.5a1.5 1.5 0 0 0 -3 0v12a5.5 5.5 0 0 0 11 0v-12a1.5 1.5 0 0 0 -3 0v12a2.5 2.5 0 0 1 -5 0z" fill="#6b6b73"/><path d="m28.5 44.5v-12a1.483 1.483 0 0 0 -.089-.491 1.5 1.5 0 0 0 -1.411 1.491v11a5.5 5.5 0 0 0 4.75 5.443 5.5 5.5 0 0 0 4.75-5.443v-12a1.483 1.483 0 0 0 -.089-.491 1.5 1.5 0 0 0 -1.411 1.491v11c.033 1.9-1.418 2.736-4 2.5a2.5 2.5 0 0 1 -2.5-2.5z" fill="#5a5a63"/></svg>