<svg viewBox="0 0 66 66" xmlns="http://www.w3.org/2000/svg"><g><path d="M24.554 27.197c-.088-2.124-.257-5.263-.535-6.693-.44-2.268-2.505-2.911-2.505-2.911l-5.893-2.234H9.934l-5.893 2.234s-2.065.643-2.505 2.911c-.278 1.43-.447 4.569-.535 6.693a2.057 2.057 0 0 0 2.056 2.141h19.44a2.056 2.056 0 0 0 2.057-2.141z" fill="#88c057"></path><path d="M9.934 11.094h5.687v6.635H9.934z" fill="#e7b95d"></path><path d="M17.5 19.278a12.429 12.429 0 0 0-.689-3.468l-.747-.283-.443-.168-2.843 1.078-2.844-1.078-1.444.547c.001.556-.002 1.111-.097 1.661-.098.567-.375 1.091-.403 1.672-.031.616.254 1.099.433 1.666.416 1.316-.159 1.632 1.308 3.172.39.41.623.797.764 1.346.138.539 1.293 2.617 1.611 3.241.406.444.658.663.671.675h.002c.014-.012.27-.235.683-.688a.522.522 0 0 1 .066-.105l.092-.115a.449.449 0 0 1 .098-.232c.195-.246.428-.494.552-.787a.453.453 0 0 1 .324-.273c1.293-1.834 1.469-2.686 1.995-3.797.381-.804.478-.49.31-1.36-.264-1.362.696-.85.601-2.704z" fill="#cccccc"></path><path d="M14.058 27.959c-.753.922-1.26 1.362-1.279 1.379h-.002c-.019-.017-.527-.458-1.28-1.38l.805-9.874-.474-.824.474-.823h.951l.475.823-.475.824.805 9.875z" fill="#9a7baa"></path><path d="m15.621 14.074-2.843 2.363-2.843-2.363-.589 1.508 1.797 2.701a.35.35 0 0 0 .596-.021l1.039-1.826 1.04 1.826a.35.35 0 0 0 .596.021l1.797-2.701z" fill="#e6e6e6"></path><path d="M17.433 22.057c.259.793-2.559 4.902-3.375 5.902-.753.922-1.26 1.362-1.279 1.379h-.002c-.019-.017-.527-.458-1.28-1.38-.816-1-3.637-5.11-3.373-5.901.142-.429.367-.826.061-1.133-.316-.316-.787-.654-.715-1.046l.705-3.851 1.33-.846c-.177 3.53.577 9.82 3.274 14.158 2.426-3.901 3.373-9.428 3.286-13.811-.004-.225-.01-.347-.01-.347l1.308.839.726 3.859a.543.543 0 0 1-.15.481c-.863.86-.832.718-.506 1.697z" fill="#638b3f"></path><path d="M17.638 8.043c-.191-.636-.976.216-.976.216l-.029.188-.196-.301s.305-1.868.362-1.942c.057-.073-.648-1.685-.686-1.74s-1.144-.366-1.144-.366c-2.628.242-1.691.247-4.38 0 0 0-1.106.311-1.144.366s-.743 1.667-.686 1.74c.056.073.361 1.942.361 1.942l-.196.301-.029-.189s-.785-.852-.976-.216c-.191.637.101 1.833.488 2.297a.908.908 0 0 0 .656.349c.293 1.908.06 1.384 1.886 3.644.915 1.132 2.752 1.122 3.659 0l1.275-1.578c.238-.295.393-.644.45-1.013l.161-1.053c.967-.054 1.386-1.84 1.144-2.645z" fill="#ffcc66"></path><path d="M9.533 2.863s-.363.504-.202 1.431c0 0-1.064.621-1.064 1.891s.178 1.818.339 2.684l.143.653a.143.143 0 0 0 .282-.012c.487-3.882.832-4.646 2.014-4.41.705.141 3.286-.443 4.152.947.616.988.935 2.199 1.025 3.338.024.305.446.345.531.061.042-.14.088-.286.137-.436 2.235-6.703-5.374-8.814-7.357-6.147z" fill="#515151"></path><path d="M63.663 27.13c-.086-2.095-.254-5.191-.527-6.601-.434-2.236-2.47-2.871-2.47-2.871l-5.811-2.203h-5.608l-5.811 2.203s-2.036.634-2.47 2.871c-.274 1.41-.441 4.506-.528 6.601a2.03 2.03 0 0 0 2.027 2.112h19.172c1.152 0 2.074-.96 2.026-2.112z" fill="#ed7161"></path><path d="M49.246 11.249h5.608v6.543h-5.608z" fill="#e7b95d"></path><path d="M56.707 19.32c-.029-.571-.278-2.587-.619-3.144a.397.397 0 0 1-.06-.276l-.737-.279-.437-.165-2.804 1.063-2.804-1.063-.434.165-.989.375c.008 3.62-1.038 1.856-.066 4.93.176.556.16 1.15.321 1.708.345 1.197 1.361 1.338 1.722 2.747.136.531 1.276 2.581 1.589 3.196.401.438.649.653.662.665h.002c.013-.012.266-.232.674-.678.035-.073.097-.144.155-.218.019-.165.529-.74.641-1.005a.451.451 0 0 1 .32-.27c1.275-1.809 1.449-2.648 1.967-3.744.376-.793.472-.483.306-1.341-.097-.502-.019-.879.305-1.274.331-.406.312-.884.286-1.392z" fill="#cccccc"></path><path d="M53.313 27.882c-.742.909-1.243 1.344-1.261 1.36h-.002c-.019-.016-.519-.452-1.262-1.361l.794-9.738-.468-.812.468-.812h.938l.469.812-.469.812.793 9.739z" fill="#54bbff"></path><path d="m54.854 14.188-2.804 2.33-2.804-2.33-.581 1.487 1.772 2.664a.346.346 0 0 0 .588-.02l1.025-1.801 1.025 1.801a.346.346 0 0 0 .588.02l1.772-2.664z" fill="#ffffff"></path><path d="M56.581 20.944a.535.535 0 0 0-.129.547c.104.313.293.693.169.962-1.58 3.441-3.525 5.889-4.569 6.79h-.002c-2.29-1.977-4.724-6.776-4.589-7.181.14-.423.362-.815.06-1.118-1-1-.85-.24-.01-4.83l.001-.001 1.31-.834s-.006.12-.01.341c-.087 4.339.847 9.774 3.239 13.621 2.393-3.847 3.327-9.298 3.24-13.62-.004-.222-.01-.342-.01-.342l1.29.827c.869 4.62 1.01 3.838.01 4.838z" fill="#d56455"></path><path d="M56.843 8.241c-.188-.627-.963.213-.963.213l-.028.186-.193-.297s.301-1.843.357-1.915-.639-1.662-.677-1.716-1.128-.361-1.128-.361c-2.592.239-1.667.244-4.32 0 0 0-1.091.307-1.128.361-.038.054-.733 1.644-.677 1.716s.357 1.915.357 1.915l-.193.296-.028-.186s-.775-.84-.963-.213.1 1.807.481 2.264a.893.893 0 0 0 .647.344c.289 1.882.06 1.365 1.86 3.593.9 1.114 2.713 1.108 3.608 0 1.754-2.171 1.561-1.643 1.86-3.593.954-.052 1.366-1.813 1.128-2.607z" fill="#ffcc66"></path><path d="M56.484 5.022s-.029-1.501-1.376-1.755a.182.182 0 0 1-.111-.067c-.192-.255-1.056-1.305-2.366-1.452-1.486-.167-5.124.382-5.122 4.502 0 1.489.357 3.088.567 3.788a.177.177 0 0 0 .171.126h.013a.178.178 0 0 0 .179-.183c-.011-.518.016-1.485.299-2.473.006-.021.008-.042.006-.064-.02-.226-.122-1.617.367-2.62a.175.175 0 0 1 .197-.093c1.122.239 2.725 1.47 5.258.043a.17.17 0 0 1 .235.062c.199.329.623 1.191.515 2.413a.175.175 0 0 0 .004.056c.054.21.397 1.61.321 2.662-.017.233.317.268.355.048a7.334 7.334 0 0 1 .621-1.934l.018-.087z" fill="#515151"></path><path d="m44.946 47.781 2.887-2.887 5.528 5.53-2.886 2.886z" fill="#333333"></path><path d="M16.611 16.538c-8.483 8.483-8.493 22.228-.01 30.711s22.238 8.483 30.721 0c8.473-8.473 8.473-22.228-.01-30.711s-22.228-8.473-30.701 0zm27.966 27.966c-6.967 6.967-18.264 6.966-25.231 0s-6.957-18.254.01-25.221c6.957-6.957 18.244-6.967 25.211 0 6.967 6.966 6.967 18.264.01 25.221z" fill="#515151"></path><path d="m51.976 46.29-5.622 5.622a.972.972 0 0 0 0 1.375l10.002 10.002c1.894 1.894 5.011 2.174 7.002.381a4.948 4.948 0 0 0 .193-7.181l-10.2-10.2a.973.973 0 0 0-1.375.001z" fill="#bf8e5f"></path><path d="M47.535 35.409c-.115-2.783-.337-6.895-.701-8.768-.576-2.971-3.281-3.814-3.281-3.814l-7.72-2.927h-7.45l-7.72 2.927s-2.705.843-3.281 3.814c-.363 1.873-.586 5.985-.701 8.768a2.694 2.694 0 0 0 2.693 2.805h25.467a2.694 2.694 0 0 0 2.694-2.805z" fill="#666666"></path><path d="M28.383 14.314h7.45v8.691h-7.45z" fill="#e7b95d"></path><path d="M38.294 25.035c-.039-.759-.37-3.436-.822-4.176a.527.527 0 0 1-.08-.367l-.979-.371-.581-.22-3.724 1.412-3.725-1.412-.577.219-1.314.498c.002.729-.002 1.456-.127 2.176-.128.743-.491 1.429-.529 2.19-.04.807.333 1.439.568 2.182.545 1.724-.209 2.139 1.713 4.156.511.537.816 1.044 1.001 1.763.208.809.683 1.53 1.075 2.263.351.658.697 1.318 1.036 1.983.532.582.862.868.879.884h.001c.019-.016.355-.308.896-.901.047-.097.128-.191.206-.289a.602.602 0 0 1 .128-.304c.255-.322.561-.648.722-1.032a.597.597 0 0 1 .425-.358c1.694-2.403 1.924-3.518 2.614-4.973.499-1.054.627-.641.406-1.781-.345-1.784.913-1.112.788-3.542z" fill="#cccccc"></path><path d="M33.786 36.408c-.986 1.208-1.651 1.785-1.676 1.807h-.002c-.025-.022-.69-.6-1.677-1.808l.1-1.233.954-11.703-.622-1.079.622-1.078h1.245l.623 1.078-.623 1.079 1.056 12.937z" fill="#ed7161"></path><path d="m35.833 18.218-3.725 3.095-3.725-3.095-.772 1.976 2.354 3.538c.189.285.612.27.781-.027l1.362-2.392 1.362 2.392a.459.459 0 0 0 .781.027l2.354-3.538z" fill="#ffffff"></path><path d="M38.126 27.191c-.661.662.381 1.291.052 2.004-2.098 4.571-4.682 7.822-6.069 9.019h-.002c-.025-.022-.69-.6-1.677-1.808-1.061-1.3-4.753-6.73-4.419-7.731l.252-.758c.19-.574-.451-1.005-.913-1.467-.41-.41-.199-.609.728-5.675l.001-.001 1.741-1.108s-.008.159-.014.453c-.036 1.818.023 8.788 2.725 15.054a22.949 22.949 0 0 0 1.578 3.04c3.178-5.111 4.419-12.351 4.304-18.092-.006-.295-.014-.454-.014-.454l1.713 1.099c1.16 6.158 1.322 5.118.014 6.425z" fill="#515151"></path><path d="M38.475 10.317c-.25-.833-1.279.282-1.279.282l-.038.247-.257-.394s.4-2.448.474-2.544-.849-2.208-.899-2.28-1.499-.48-1.499-.48l-2.869.264-2.868-.264s-1.449.408-1.499.48-.973 2.184-.899 2.28.474 2.544.474 2.544l-.257.394-.038-.247s-1.029-1.116-1.279-.282c-.25.833.132 2.401.639 3.008.298.357.633.445.859.457.383 2.5.078 1.812 2.471 4.773 1.198 1.483 3.606 1.469 4.793 0l1.67-2.067c.312-.386.515-.844.589-1.327l.212-1.379c.226-.013.561-.101.859-.457.509-.607.891-2.175.641-3.008z" fill="#ffcc66"></path><path d="M36.629 4.206s.065-2.439-2.417-2.896c-7.756-1.429-8.666 5.851-7.317 9.06 0 0 .245 1.509.297 2.193.006.078.07.138.148.138a.147.147 0 0 0 .147-.162c-.049-.499-.154-2.044.279-3.127 0 0-1.024-2.7.762-2.896s3.811 1.503 6.991-.414c0 0 1.132.566 1.024 2.592 0 0 .563 2.576.549 3.858a.148.148 0 1 0 .295-.017c-.048-.372-.103-1.335.354-2.535.586-1.547 1.305-4.683-1.112-5.794z" fill="#515151"></path></g></svg>