<svg viewBox="0 0 479.516 479.516" xmlns="http://www.w3.org/2000/svg"><g><path d="M437.996 479.516H124.227l78.769-403.039h156.231z" fill="#f9ebb2"></path><path d="M393.35 251.085 359.227 76.477H202.996l-34.123 174.608z" fill="#fff3c2"></path><path d="M80.904 479.516H41.519V55.847L97.359 0h99.73v39.385H113.68L80.904 72.16z" fill="#797c7f"></path><path d="M113.68 39.385H97.359l-55.84 55.847v384.284h39.385V72.16z" fill="#585b5e"></path><path d="M385.481 64.339c0 13.044-10.579 23.631-23.631 23.631H200.373c-13.052 0-23.631-10.587-23.631-23.631V23.631C176.742 10.587 187.321 0 200.373 0H361.85c13.052 0 23.631 10.587 23.631 23.631v40.708z" fill="#797c7f"></path><path d="M176.742 60.723v3.616c0 13.044 10.579 23.631 23.631 23.631H361.85c13.052 0 23.631-10.587 23.631-23.631v-3.616H176.742z" fill="#efba35"></path><path d="M200.373 87.969H361.85c8.791 0 16.368-4.86 20.441-11.981H179.933c4.064 7.121 11.642 11.981 20.44 11.981z" fill="#edce37"></path></g></svg>