<?xml version="1.0" encoding="UTF-8"?>
<svg xmlns="http://www.w3.org/2000/svg" viewBox="0 0 64 64" width="512" height="512"><g id="_21-Key" data-name="21-Key"><path d="M53,10H32.8985a12,12,0,1,0,0,10H41l3-3,3,3,3-3,3,3,5-5Z" fill="#ffb74d"/><circle cx="18" cy="15" r="4" fill="#eee"/><path d="M23.58582,53.58575,10.41425,40.41418a2,2,0,0,0-2.82843,0L3,45,19.00006,61l4.58576-4.58582A2,2,0,0,0,23.58582,53.58575Z" fill="#ef5350"/><path d="M23.59,56.41,19,61,3,45l3.41-3.41a1.9916,1.9916,0,0,0,0,2.81994L14.59,52.59a1.99178,1.99178,0,0,0,2.82,0L20,50l3.59,3.59A1.99171,1.99171,0,0,1,23.59,56.41Z" fill="#e53935"/><path d="M59.89,29.11a3.8024,3.8024,0,0,0-5.37,0l-9.64,8.94-.00531.00189A3.993,3.993,0,0,0,41,35H21.14215a9.99991,9.99991,0,0,0-7.071,2.92889L11,41,23,53l.83-.83A4.004,4.004,0,0,1,26.66,51H42.89a9.99251,9.99251,0,0,0,8.1-4.14l9.26-12.8a3.7992,3.7992,0,0,0-.36-4.95Z" fill="#ffccbc"/><path d="M61,31.79a3.81341,3.81341,0,0,1-.75,2.27l-9.26,12.8A9.99235,9.99235,0,0,1,42.89,51H26.66a4.004,4.004,0,0,0-2.83,1.17L23,53l-3-3,.83-.83A4.004,4.004,0,0,1,23.66,48H39.89a9.99235,9.99235,0,0,0,8.1-4.14l9.26-12.8A3.81341,3.81341,0,0,0,58,28.79a3.51478,3.51478,0,0,0-.07-.72A3.78722,3.78722,0,0,1,61,31.79Z" fill="#ffab91"/><path d="M41.9,35.1a4.43139,4.43139,0,0,1,.1.9,3.99887,3.99887,0,0,1-4,4H31.5a1.5,1.5,0,0,0,0,3H41a4.00144,4.00144,0,0,0,.9-7.9Z" fill="#ffab91"/><path d="M10.62855,18.89745A12.321,12.321,0,0,1,10.26,12.5,11.99628,11.99628,0,0,0,32.9,15H51.34315a4,4,0,0,0,2.82842-1.17157L55.5,12.5,58,15l-5,5-3-3-3,3-3-3-3,3H32.9a12.00978,12.00978,0,0,1-22.27147-1.10255Z" fill="#ffa726"/></g></svg>
