<svg viewBox="0 0 512.408 512.408" xmlns="http://www.w3.org/2000/svg"><g><path d="m356.515 60.484-8.429-13.05a10.043 10.043 0 0 1-.027-10.855l8.268-12.941c2.506-3.922 3.304-8.789 1.814-13.198A15.007 15.007 0 0 0 343.915.205h-86.791c-8.284 0-15 6.716-15 15v53.418c0 8.284 6.716 15 15 15h86.368c4.666 0 9.208-1.958 12.12-5.604a15.013 15.013 0 0 0 .903-17.535z" fill="#ff303f"></path><path d="M255.274 137.04c-8.284 0-15-6.716-15-15V15.204c0-8.284 6.716-15 15-15h15V122.04c0 8.284-6.716 15-15 15z" fill="#8c4a37"></path><path d="M255.829 137.012c8.025-.295 14.444-6.875 14.444-14.972V.204h-14.444z" fill="#4e2c16"></path><path d="m488.018 188.714-211.224-70.428a64.194 64.194 0 0 0-41.957.022L30.986 188.912z" fill="#f6e5c8"></path><path d="m255.897 188.813 232.121-.1-211.224-70.428a64.198 64.198 0 0 0-20.897-3.512z" fill="#edc88c"></path><path d="M43.811 228.983v272.205c0 6.084 4.932-2.729 11.017-2.729H457.58c6.084 0 11.017 8.814 11.017 2.729V228.983z" fill="#f6e5c8"></path><path d="M255.897 499.143H457.58c6.084 0 11.017 8.129 11.017 2.045V228.983h-212.7z" fill="#edc88c"></path><path d="M139.775 512.204V251.235c0-8.284 6.716-15 15-15s15 6.716 15 15v260.969z" fill="#de9d22"></path><path d="M344.962 512.204V251.235c0-8.284 6.716-15 15-15s15 6.716 15 15v260.969z" fill="#a46f00"></path><path d="M306.216 506.574H206.192V404.896c0-27.621 22.391-50.012 50.012-50.012 27.621 0 50.012 22.391 50.012 50.012z" fill="#004960"></path><g fill="#57a9ff"><circle cx="91.94" cy="306.86" fill="#57a9ff" r="15"></circle><circle cx="91.94" cy="368.351" fill="#57a9ff" r="15"></circle><circle cx="91.94" cy="429.842" fill="#57a9ff" r="15"></circle></g><g fill="#5258e8"><circle cx="420.644" cy="306.86" fill="#5258e8" r="15"></circle><circle cx="420.644" cy="368.351" fill="#5258e8" r="15"></circle><circle cx="420.644" cy="429.842" fill="#5258e8" r="15"></circle></g><path d="M500.423 251.235H11.405c-4.698 0-7.438-5.303-4.719-9.135l5.163-7.276a28.92 28.92 0 0 0 0-33.473l-5.163-7.276c-2.719-3.831.021-9.135 4.719-9.135h489.018c4.806 0 7.517 5.52 4.579 9.323l-4.747 6.146c-8.043 10.413-8.043 24.943 0 35.356l4.747 6.146c2.938 3.804.227 9.324-4.579 9.324z" fill="#e8ba6d"></path><path d="M300.084 322.975h-87.761c-8.284 0-15-6.716-15-15s6.716-15 15-15h87.761c8.284 0 15 6.716 15 15s-6.715 15-15 15z" fill="#9ed0ff"></path><path d="M505.003 194.264c2.938-3.804.227-9.323-4.579-9.323H255.897v66.294h244.526c4.806 0 7.517-5.52 4.579-9.323l-4.747-6.146c-8.043-10.413-8.043-24.943 0-35.356z" fill="#de9d22"></path><path d="M300.084 292.975h-44.187v30h44.187c8.284 0 15-6.716 15-15s-6.715-15-15-15z" fill="#57a9ff"></path><path d="M256.204 354.884c-.117 0-.233.008-.35.009v151.681h50.361V404.896c.001-27.621-22.39-50.012-50.011-50.012z" fill="#00242f"></path><path d="M497.408 512.204H15c-8.284 0-15-6.716-15-15s6.716-15 15-15h482.408c8.284 0 15 6.716 15 15s-6.716 15-15 15z" fill="#7fe881"></path><path d="M497.408 482.204H255.897v30h241.511c8.284 0 15-6.716 15-15s-6.716-15-15-15z" fill="#00d16c"></path></g></svg>