<svg viewBox="0 0 64 64" xmlns="http://www.w3.org/2000/svg"><g><path d="M60.524 53.893a1 1 0 0 1-1.297.92L44.4 50.209a1 1 0 0 1 .021-1.917l4.34-1.242a1 1 0 0 0 .54-1.54L37.648 29.1a1 1 0 0 0-1.395-.236l-13.86 9.844A1 1 0 0 1 21 38.473L3.049 13.199a1 1 0 0 1 .236-1.395L7.36 8.91a1 1 0 0 1 1.394.236l13.898 19.567a1 1 0 0 0 1.394.237l13.86-9.844a1 1 0 0 1 1.394.236l15.707 22.114a1 1 0 0 0 1.632-.002l2.602-3.688a1 1 0 0 1 1.817.61z" fill="#6d6e71"></path><path d="M60.697 36.446a1.984 1.984 0 0 0-2.272.742l-2.602 3.688-15.707-22.113a2 2 0 0 0-2.788-.474l-13.86 9.845L9.571 8.566a2.005 2.005 0 0 0-2.79-.472l-4.075 2.895a2.01 2.01 0 0 0-.473 2.79l17.95 25.273a2 2 0 0 0 2.79.472l13.859-9.843 11.653 16.407-4.339 1.241a2 2 0 0 0-.043 3.834L58.93 55.77a1.999 1.999 0 0 0 2.592-1.841l.536-15.518a1.985 1.985 0 0 0-1.36-1.964z" fill="#e53935"></path></g></svg>