<svg id="Layer_1" height="512" viewBox="0 0 512 512" width="512" xmlns="http://www.w3.org/2000/svg" data-name="Layer 1"><rect fill="#0052b4" height="326.469" rx="5.876" width="480" x="24.429" y="69.214"/><g fill-rule="evenodd"><path d="m280.954 130.73 5.221 16.178a.6.6 0 0 0 .582.422l17-.032a.61.61 0 0 1 .359 1.1l-13.772 9.966a.6.6 0 0 0 -.222.684l5.284 16.158a.61.61 0 0 1 -.939.683l-13.735-10.019a.6.6 0 0 0 -.719 0l-13.734 10.019a.611.611 0 0 1 -.94-.683l5.285-16.158a.6.6 0 0 0 -.222-.684l-13.773-9.964a.61.61 0 0 1 .359-1.1l17 .032a.6.6 0 0 0 .582-.422l5.222-16.178a.611.611 0 0 1 1.162 0z" fill="#ffda44"/><path d="m352.71 160.933-7.747 15.132a.6.6 0 0 0 .112.711l12.044 12a.61.61 0 0 1 -.527 1.035l-16.786-2.691a.6.6 0 0 0 -.64.326l-7.689 15.162a.61.61 0 0 1 -1.147-.182l-2.628-16.8a.6.6 0 0 0 -.508-.509l-16.8-2.627a.61.61 0 0 1 -.182-1.147l15.163-7.689a.6.6 0 0 0 .326-.641l-2.692-16.786a.61.61 0 0 1 1.035-.527l12 12.044a.6.6 0 0 0 .71.113l15.132-7.747a.61.61 0 0 1 .822.821z" fill="#ffda44"/><path d="m382.092 233.03-16.178 5.222a.6.6 0 0 0 -.423.582l.033 17a.61.61 0 0 1 -1.105.358l-9.966-13.772a.6.6 0 0 0 -.684-.222l-16.157 5.284a.61.61 0 0 1 -.683-.939l10.019-13.735a.6.6 0 0 0 0-.719l-10.019-13.734a.61.61 0 0 1 .683-.939l16.157 5.284a.6.6 0 0 0 .684-.222l9.966-13.773a.611.611 0 0 1 1.105.359l-.033 17a.6.6 0 0 0 .423.582l16.178 5.222a.611.611 0 0 1 0 1.162z" fill="#ffda44"/><path d="m351.888 304.786-15.132-7.747a.6.6 0 0 0 -.71.113l-12 12.043a.61.61 0 0 1 -1.035-.527l2.692-16.785a.6.6 0 0 0 -.326-.641l-15.163-7.689a.61.61 0 0 1 .182-1.147l16.8-2.627a.6.6 0 0 0 .508-.509l2.628-16.8a.61.61 0 0 1 1.147-.181l7.689 15.162a.6.6 0 0 0 .64.326l16.786-2.691a.61.61 0 0 1 .527 1.034l-12.044 12a.6.6 0 0 0 -.112.71l7.747 15.132a.611.611 0 0 1 -.822.822z" fill="#ffda44"/><path d="m279.792 334.168-5.222-16.178a.6.6 0 0 0 -.582-.422l-17 .032a.61.61 0 0 1 -.359-1.1l13.773-9.967a.6.6 0 0 0 .222-.684l-5.285-16.157a.611.611 0 0 1 .94-.683l13.734 10.019a.6.6 0 0 0 .719 0l13.735-10.019a.61.61 0 0 1 .939.683l-5.284 16.157a.6.6 0 0 0 .222.684l13.772 9.967a.61.61 0 0 1 -.359 1.1l-17-.032a.6.6 0 0 0 -.582.422l-5.221 16.178a.611.611 0 0 1 -1.162 0z" fill="#ffda44"/><path d="m208.036 303.964 7.746-15.132a.6.6 0 0 0 -.112-.71l-12.044-12a.61.61 0 0 1 .527-1.034l16.786 2.691a.6.6 0 0 0 .641-.326l7.689-15.162a.609.609 0 0 1 1.146.181l2.628 16.8a.6.6 0 0 0 .508.509l16.8 2.627a.61.61 0 0 1 .182 1.147l-15.162 7.689a.6.6 0 0 0 -.327.641l2.692 16.785a.61.61 0 0 1 -1.035.527l-12-12.043a.6.6 0 0 0 -.711-.113l-15.132 7.747a.61.61 0 0 1 -.821-.822z" fill="#ffda44"/><path d="m178.653 231.868 16.179-5.222a.6.6 0 0 0 .422-.582l-.032-17a.61.61 0 0 1 1.1-.359l9.966 13.773a.6.6 0 0 0 .684.222l16.158-5.284a.61.61 0 0 1 .682.939l-10.012 13.734a.6.6 0 0 0 0 .719l10.018 13.735a.61.61 0 0 1 -.682.939l-16.16-5.282a.6.6 0 0 0 -.684.222l-9.966 13.772a.61.61 0 0 1 -1.1-.358l.032-17a.6.6 0 0 0 -.422-.582l-16.179-5.222a.611.611 0 0 1 0-1.162z" fill="#ffda44"/><path d="m208.857 160.112 15.132 7.747a.6.6 0 0 0 .711-.113l12-12.044a.61.61 0 0 1 1.035.527l-2.692 16.786a.6.6 0 0 0 .327.641l15.162 7.689a.61.61 0 0 1 -.182 1.147l-16.8 2.627a.6.6 0 0 0 -.508.509l-2.628 16.8a.609.609 0 0 1 -1.146.182l-7.689-15.162a.6.6 0 0 0 -.641-.326l-16.786 2.691a.61.61 0 0 1 -.527-1.035l12.044-12a.6.6 0 0 0 .112-.711l-7.746-15.132a.61.61 0 0 1 .821-.821z" fill="#ffda44"/><path d="m24.429 512h31.888v-450.528a32.8 32.8 0 1 0 -31.888 0z" fill="#2e3033"/></g></svg>