<svg viewBox="0 0 512 512" xmlns="http://www.w3.org/2000/svg"><g><path d="M503.992 192.25c-11.34-44.242-34.5-84.793-66.972-117.27L356 118.266l-54.977 92.71h207.77zm0 0" fill="#009959"></path><path d="M74.98 437.02C123.332 485.37 187.621 512 256 512s132.668-26.629 181.02-74.98C485.37 388.668 512 324.379 512 255.977v-15H271.023L165 266zm0 0" fill="#e30000"></path><path d="m319.75 8.008-18.727-4.801v207.77L437.02 74.98c-32.473-32.472-73.028-55.632-117.27-66.972zm0 0" fill="#00dd80"></path><path d="M271.023 15 271 0h-15C187.621 0 123.332 26.629 74.98 74.98 26.63 123.332 0 187.621 0 256s26.629 132.668 74.98 181.02l196.043-196.043zm0 0" fill="#ff4c04"></path></g></svg>