<svg viewBox="0 0 512 512" xmlns="http://www.w3.org/2000/svg"><g><g><path d="M72.16 125.173A19.54 19.54 0 0 1 90.4 137.63l41.943 108.43a12.749 12.749 0 0 1-11.959 17.314 12.811 12.811 0 0 1-11.978-8.217l-5.136-13.442a10.616 10.616 0 0 0-9.925-6.808H51.177a10.617 10.617 0 0 0-9.875 6.679l-5.453 13.727a12.813 12.813 0 0 1-11.918 8.06h-.106a12.749 12.749 0 0 1-11.955-17.324l42.056-108.435a19.54 19.54 0 0 1 18.234-12.44zm-3.798 46.74-12.413 31.581a4.228 4.228 0 0 0 3.958 5.764H84.66a4.228 4.228 0 0 0 3.961-5.756l-12.34-31.58a4.258 4.258 0 0 0-7.919-.008z" fill="#e9986b"></path><circle cx="257.448" cy="345.709" fill="#f17b89" r="41.117"></circle><path d="M214.047 251.836V136.71a11.551 11.551 0 0 1 11.565-11.537h10.233q18.966 0 27.742 2.443 12.457 3.29 19.818 12.213a32.055 32.055 0 0 1 7.36 21.045 30.597 30.597 0 0 1-3.346 14.327 32.649 32.649 0 0 1-7.036 8.893 3.41 3.41 0 0 0 .606 5.48q9.258 5.267 14.017 12.497 5.843 8.878 5.843 20.997a39.017 39.017 0 0 1-6.039 21.233 38.505 38.505 0 0 1-15.567 14.327q-9.53 4.745-26.324 4.745h-27.307a11.551 11.551 0 0 1-11.565-11.537zm26.39-96.11v18.19a5.474 5.474 0 0 0 5.48 5.467h.29q9.65 0 14.334-4.04 4.683-4.038 4.683-10.992a12.842 12.842 0 0 0-4.448-10.288q-4.446-3.805-13.527-3.805h-1.331a5.474 5.474 0 0 0-5.482 5.467zm0 52.611v24.484a5.474 5.474 0 0 0 5.48 5.468h1.135q16.443 0 22.161-4.134 5.717-4.133 5.719-12.025a16.829 16.829 0 0 0-6.711-14.093q-6.711-5.165-22.303-5.167a5.474 5.474 0 0 0-5.482 5.467z" fill="#e9986b"></path><circle cx="439.895" cy="345.709" fill="#f7f5fb" r="41.117"></circle><path d="m497.195 160.347-.074.071a12.225 12.225 0 0 1-16.004.778q-14.871-11.782-32.532-11.782-18.874 0-31.8 12.893t-12.926 31.787a46.957 46.957 0 0 0 5.725 23.37 41.012 41.012 0 0 0 16.191 16.027 47.048 47.048 0 0 0 23.258 5.82 47.959 47.959 0 0 0 19.948-4.074 55.188 55.188 0 0 0 11.6-7.382 12.232 12.232 0 0 1 16.462 1.116 12.248 12.248 0 0 1-1.238 18.067 76.653 76.653 0 0 1-17.546 10.832q-12.982 5.501-29.634 5.502-30.71 0-50.272-19.455-19.563-19.455-19.562-49.867 0-19.677 8.908-34.975a66.213 66.213 0 0 1 25.516-24.598 72.007 72.007 0 0 1 35.768-9.303A76.168 76.168 0 0 1 496.488 142a12.223 12.223 0 0 1 .707 18.347z" fill="#e9986b"></path><circle cx="72.105" cy="345.709" fill="#e4e3e8" r="41.117"></circle><path d="M127.834 261.014a12.781 12.781 0 0 1-7.45 2.36 12.921 12.921 0 0 1-7.28-2.25 12.775 12.775 0 0 1-4.7-5.97l-5.13-13.44a10.625 10.625 0 0 0-9.93-6.81h-42.17a10.61 10.61 0 0 0-9.87 6.68l-5.46 13.73a12.806 12.806 0 0 1-11.91 8.06h-.11a12.747 12.747 0 0 1-11.95-17.33l41.21-106.27q7.095 16.35 15.31 32.08l-.03.06-12.42 31.58a4.231 4.231 0 0 0 3.96 5.76h24.76a4.212 4.212 0 0 0 3.82-2.39 499.241 499.241 0 0 0 39.35 54.15z" fill="#d38a66"></path><path d="M276.495 382.154a41.126 41.126 0 0 1-60.16-36.44c0-.49.01-.98.03-1.46a499.47 499.47 0 0 0 60.13 37.9z" fill="#d36e7f"></path></g></g></svg>