<svg viewBox="0 0 512 512" xmlns="http://www.w3.org/2000/svg"><g><g fill="#918291"><path d="M288.249 179.891a7.73 7.73 0 0 0-10.115 4.134l-56.685 135.068a7.726 7.726 0 0 0 7.122 10.718 7.732 7.732 0 0 0 7.128-4.738l56.685-135.068a7.728 7.728 0 0 0-4.135-10.114zM250.495 209.826c0-20.309-14.702-36.832-32.773-36.832s-32.774 16.523-32.774 36.832 14.702 36.831 32.774 36.831c18.071 0 32.773-16.522 32.773-36.831zm-32.773 21.379c-9.55 0-17.321-9.591-17.321-21.379 0-11.789 7.771-21.379 17.321-21.379s17.32 9.591 17.32 21.379-7.769 21.379-17.32 21.379zM294.278 265.343c-18.07 0-32.773 16.523-32.773 36.831 0 20.309 14.702 36.832 32.773 36.832s32.774-16.523 32.774-36.832c-.001-20.309-14.703-36.831-32.774-36.831zm0 58.21c-9.55 0-17.32-9.591-17.32-21.379s7.77-21.379 17.32-21.379 17.321 9.591 17.321 21.379c0 11.789-7.771 21.379-17.321 21.379z" fill="#918291"></path></g><path d="M499.39 231.358h-90.594a10.284 10.284 0 0 1-10.044-8.056c-5.748-25.816-18.389-48.985-35.758-67.631a130.583 130.583 0 0 0-6.851-6.892c-18.728-17.668-41.98-30.442-67.539-36.407a10.29 10.29 0 0 1-7.973-10.024l.01-90.749c0-6.294 5.583-11.085 11.816-10.199a254.41 254.41 0 0 1 51.416 12.918C415.009 40.311 471.38 96.961 496.99 168.28a253.913 253.913 0 0 1 12.599 51.313c.866 6.212-3.925 11.765-10.199 11.765z" fill="#98d5b9"></path><path d="M231.358 11.6v90.666a10.29 10.29 0 0 1-8.005 10.034c-25.178 5.759-47.893 18.038-66.272 34.975a144.678 144.678 0 0 0-9.457 9.519c-16.751 18.492-28.835 41.279-34.397 66.488a10.296 10.296 0 0 1-10.055 8.077H12.61c-6.274 0-11.064-5.553-10.199-11.775a253.818 253.818 0 0 1 12.599-51.303c25.61-71.32 81.981-127.97 153.116-153.962a254.277 254.277 0 0 1 51.416-12.918c6.233-.886 11.816 3.904 11.816 10.199z" fill="#fd9468"></path><path d="M509.59 292.407a253.913 253.913 0 0 1-12.599 51.313c-25.611 71.32-81.982 127.969-153.116 153.961a254.345 254.345 0 0 1-51.416 12.919c-6.233.886-11.816-3.904-11.816-10.199l-.01-90.749c0-4.79 3.307-8.942 7.973-10.024 25.559-5.965 48.81-18.739 67.539-36.407a131.355 131.355 0 0 0 6.851-6.892c17.369-18.646 30.01-41.815 35.758-67.631a10.285 10.285 0 0 1 10.044-8.056h90.594c6.272 0 11.063 5.553 10.198 11.765z" fill="#fe646f"></path><path d="M231.358 409.734V500.4c0 6.294-5.584 11.085-11.816 10.199a254.345 254.345 0 0 1-51.416-12.919C96.991 471.689 40.62 415.039 15.01 343.72a253.848 253.848 0 0 1-12.6-51.313c-.865-6.212 3.925-11.765 10.199-11.765h90.563c4.842 0 9.014 3.358 10.055 8.077 5.563 25.208 17.647 47.996 34.397 66.488 3.008 3.317 6.161 6.5 9.457 9.519 18.378 16.936 41.094 29.216 66.272 34.975a10.289 10.289 0 0 1 8.005 10.033z" fill="#fee45a"></path><path d="M496.99 343.72c-25.611 71.32-81.982 127.969-153.116 153.961a58.944 58.944 0 0 1-1.565-13.506v-83.136c0-14.392 5.212-27.599 13.835-37.818a59.296 59.296 0 0 1 6.851-6.892c10.261-8.736 23.55-14.021 38.045-14.021h83.136c4.397.001 8.683.485 12.814 1.412z" fill="#fd4755"></path><path d="M484.174 512h-83.13c-15.368 0-27.826-12.458-27.826-27.826v-83.13c0-15.368 12.458-27.826 27.826-27.826h83.13c15.368 0 27.826 12.458 27.826 27.826v83.13C512 499.542 499.542 512 484.174 512z" fill="#918291"></path><circle cx="442.609" cy="434.646" fill="#ffcebf" r="33.601"></circle><path d="M401.044 512h83.13c2.647 0 5.204-.377 7.629-1.068-3.408-24.125-24.129-42.685-49.194-42.685s-45.786 18.56-49.194 42.685a27.835 27.835 0 0 0 7.629 1.068z" fill="#8ac9fe"></path><path d="M169.691 401.039v83.136a59 59 0 0 1-1.565 13.506C96.991 471.689 40.62 415.039 15.01 343.72a58.454 58.454 0 0 1 12.815-1.411h83.136c13.856 0 26.61 4.831 36.664 12.898a58.607 58.607 0 0 1 9.457 9.519c7.891 9.992 12.609 22.622 12.609 36.313z" fill="#fedf30"></path><path d="M110.956 512h-83.13C12.458 512 0 499.542 0 484.174v-83.13c0-15.368 12.458-27.826 27.826-27.826h83.13c15.368 0 27.826 12.458 27.826 27.826v83.13c0 15.368-12.458 27.826-27.826 27.826z" fill="#918291"></path><circle cx="69.391" cy="434.646" fill="#ffcebf" r="33.601"></circle><path d="M27.826 512h83.13c2.647 0 5.204-.377 7.629-1.068-3.408-24.125-24.129-42.685-49.194-42.685s-45.786 18.56-49.194 42.685A27.83 27.83 0 0 0 27.826 512z" fill="#8ac9fe"></path><path d="M496.99 168.28a58.454 58.454 0 0 1-12.815 1.411h-83.136c-14.495 0-27.784-5.285-38.045-14.021a59.375 59.375 0 0 1-6.851-6.892c-8.623-10.219-13.835-23.426-13.835-37.818V27.825a59 59 0 0 1 1.565-13.506C415.009 40.311 471.38 96.961 496.99 168.28z" fill="#57be92"></path><path d="M484.174 138.782h-83.13c-15.368 0-27.826-12.458-27.826-27.826v-83.13C373.218 12.458 385.676 0 401.044 0h83.13C499.542 0 512 12.458 512 27.826v83.13c0 15.368-12.458 27.826-27.826 27.826z" fill="#918291"></path><circle cx="442.609" cy="61.427" fill="#ffcebf" r="33.601"></circle><path d="M401.044 138.782h83.13c2.647 0 5.204-.377 7.629-1.068-3.408-24.125-24.129-42.685-49.194-42.685s-45.786 18.56-49.194 42.685a27.835 27.835 0 0 0 7.629 1.068z" fill="#8ac9fe"></path><path d="M169.691 27.825v83.136c0 13.691-4.718 26.321-12.609 36.314a58.607 58.607 0 0 1-9.457 9.519c-10.054 8.066-22.808 12.898-36.664 12.898H27.825c-4.398 0-8.684-.484-12.815-1.411 25.61-71.32 81.981-127.97 153.116-153.962a59.006 59.006 0 0 1 1.565 13.506z" fill="#fe7d43"></path><path d="M110.956 138.782h-83.13C12.458 138.782 0 126.324 0 110.956v-83.13C0 12.458 12.458 0 27.826 0h83.13c15.368 0 27.826 12.458 27.826 27.826v83.13c0 15.368-12.458 27.826-27.826 27.826z" fill="#918291"></path><circle cx="69.391" cy="61.427" fill="#ffcebf" r="33.601"></circle><path d="M27.826 138.782h83.13c2.647 0 5.204-.377 7.629-1.068-3.408-24.125-24.129-42.685-49.194-42.685s-45.786 18.56-49.194 42.685a27.83 27.83 0 0 0 7.629 1.068z" fill="#8ac9fe"></path></g></svg>