<svg viewBox="0 0 64 64" xmlns="http://www.w3.org/2000/svg"><g><g><path d="M3 3v44h14V3z" fill="#ebbf00"></path><path d="M17 47H3v14h58V47z" fill="#ffcd00"></path><path d="m24.438 31.311-1.568 5.331a6.941 6.941 0 0 1 4.488 4.488l5.331-1.568L31.3 32.67z" fill="#d1d3d4"></path><path d="m44.456 11.059-19.92 19.92-.098.332 6.86 1.359.005.027 17.395-17.395z" fill="#ffcd00"></path><path d="m46.456 13.059-2-2-19.92 19.92-.098.332 3.143.623z" fill="#ebbf00"></path><path d="M48.698 15.302 31.303 32.697l1.386 6.865.332-.098 19.92-19.92z" fill="#d80027"></path><path d="M22.87 36.642 21 43l6.358-1.87a6.941 6.941 0 0 0-4.488-4.488z" fill="#754c29"></path><path d="m44.45 11.064 3.534-3.535 8.484 8.484-3.535 3.535z" fill="#2488ff"></path><path d="M59.305 4.7a6 6 0 0 0-8.485 0l-2.829 2.823 8.486 8.486 2.828-2.829a6 6 0 0 0 0-8.485z" fill="#f1f2f2"></path><path d="M50.941 17.544 32.056 36.429l.633 3.133.332-.098 19.92-19.92z" fill="#bd0022"></path><path d="m50.934 17.547 3.535-3.535 2 2-3.536 3.535z" fill="#006df0"></path><path d="M59.305 4.7a5.98 5.98 0 0 0-1.131-.869 5.989 5.989 0 0 1-.869 7.354l-2.828 2.829 2 2 2.828-2.829a6 6 0 0 0 0-8.485z" fill="#d1d3d4"></path><g fill="#cca400"><path d="M13 42h4v2h-4zM13 34h4v2h-4zM11 38h6v2h-6zM13 26h4v2h-4zM11 30h6v2h-6zM13 18h4v2h-4zM11 22h6v2h-6zM11 14h6v2h-6zM13 10h4v2h-4zM11 6h6v2h-6zM28 57h2v4h-2zM24 55h2v6h-2zM36 57h2v4h-2zM32 55h2v6h-2zM12 57h2v4h-2zM8 55h2v6H8zM20 57h2v4h-2zM16 55h2v6h-2zM44 57h2v4h-2zM40 55h2v6h-2zM52 57h2v4h-2zM48 55h2v6h-2zM56 55h2v6h-2z" fill="#cca400"></path></g></g></g></svg>