<svg viewBox="0 0 495.08 495.08" xmlns="http://www.w3.org/2000/svg"><g><path d="M486.82 302.53a245.933 245.933 0 0 1-26.44 68.77c-7.39 13-15.98 25.34-25.68 36.84-27.02 32.06-61.947 21.717-104.288 36.797-25.7 9.16-114.902 48.082-119.992 47.302-35.76-5.52-69.84-18.92-99.69-38.99-41.99-28.22-56.941-69.46-75.211-120.78C17.239 281.14-1.6 227.54 13.1 179.13c21.79-71.8 76.16-132.68 152.26-159.78 19.97-7.11 40.24-11.48 60.41-13.28 84.92-7.65 168.04 29.92 218.54 98.07 14.08 18.99-2.945 73.447 5.395 96.867 15.98 44.88 46.655 58.213 37.115 101.523z" fill="#3c87d0"></path><path d="M443.295 302.529a245.94 245.94 0 0 1-26.442 68.77c-28.01 49.228-73.126 89.023-130.663 109.509-19.956 7.111-70.673 12.212-75.768 11.426-35.766-5.517-69.841-18.916-99.692-38.981-41.989-28.222-56.94-69.458-75.211-120.784-18.282-51.325-37.117-104.931-22.417-153.342C34.891 107.325 89.259 46.45 165.363 19.351c19.967-7.111 40.241-11.478 60.408-13.279 69.046 6.189 133.217 41.65 175.015 98.063 14.074 18.992 25.626 40.346 33.967 63.768 15.971 44.872 18.08 91.313 8.542 134.626z" fill="#5f99d7"></path><path d="m486.821 302.529-47.935 17.073-15.102 5.373c-26.4 9.401-55.417-4.377-64.807-30.755l-6.433-18.048-8.065 2.872c-19.299 6.878-40.516-3.19-47.384-22.489l-19.161-53.795c-6.867-19.299 3.201-40.516 22.5-47.384l108.968-38.81 34.91-12.431c14.074 18.992 25.615 40.346 33.956 63.768 15.982 44.872 18.091 91.313 8.553 134.626z" fill="#0ab69f"></path><path d="M443.295 302.529a239.52 239.52 0 0 1-4.409 17.073l-15.102 5.373c-26.4 9.401-55.417-4.377-64.807-30.755l-6.433-18.048-8.065 2.872c-19.299 6.878-40.516-3.19-47.384-22.489l-19.161-53.795c-6.867-19.299 3.201-40.516 22.5-47.384l108.968-38.81c10.227 15.727 18.78 32.896 25.35 51.337 15.972 44.872 18.081 91.313 8.543 134.626z" fill="#5de1c4"></path><path d="m174.954 430.384-33.596 11.965-30.628 10.905c-41.989-28.222-75.648-69.671-93.919-120.997C-1.46 280.973-1.598 227.623 13.07 179.243l.032-.116 31.095-11.075c19.299-6.878 40.516 3.201 47.384 22.499l4.101 11.488c6.062 17.02-1.06 35.535-16.077 44.374l.223.646c8.521 23.909-3.964 50.203-27.862 58.724l36.16-12.877.191-.064 33.415-11.902c37.135-13.226 77.969 6.147 91.196 43.282l5.331 14.954c13.225 37.147-6.17 77.981-43.305 91.208z" fill="#0ab69f"></path><path d="m141.358 442.349-30.628 10.905c-41.989-28.222-75.648-69.671-93.919-120.997C-1.46 280.973-1.598 227.623 13.07 179.243c18.61-5.235 38.333 4.79 44.914 23.273l4.091 11.488c6.062 17.02-1.06 35.535-16.077 44.384l.233.636c2.558 7.495 10.015 37.686-10.628 52.587l16.362-5.829 36.16-12.877.191-.064c37.093-13.099 77.81 6.274 91.015 43.346l5.32 14.964c13.226 37.137-6.157 77.971-43.293 91.198z" fill="#5de1c4"></path><path d="M287.271 91.916c0 16.437-10.216 31.847-26.59 37.676l-35.864 12.77c-.074.032-.138.064-.212.085l-30.162 10.736c-20.804 7.408-43.664-3.455-51.072-24.259a39.93 39.93 0 0 1-2.332-13.417c0-16.437 10.206-31.836 26.58-37.665l30.151-10.736 36.076-12.855c20.804-7.408 43.674 3.455 51.093 24.259a39.84 39.84 0 0 1 2.332 13.406z" fill="#c8effe"></path><path d="M251.185 104.771c0 16.363-10.121 31.709-26.368 37.591-.074.032-.138.064-.212.085l-30.162 10.736c-20.804 7.408-43.664-3.455-51.072-24.259a39.93 39.93 0 0 1-2.332-13.417c0-16.437 10.206-31.836 26.58-37.665l30.151-10.736c20.804-7.408 43.674 3.444 51.082 24.248a39.882 39.882 0 0 1 2.333 13.417z" fill="#eaf6ff"></path><circle cx="143.78" cy="357.342" fill="#fee903" r="29.408"></circle><circle cx="355.585" cy="207.001" fill="#fee903" r="28.572"></circle><path d="m355.585 81.982 90.041-31.493c5.439-1.902 5.439-9.594 0-11.497L355.585 7.5z" fill="#fd4755"></path><path d="M434.7 408.14c-27.02 32.06-62.64 57.59-104.98 72.67-25.7 9.16-51.91 13.75-77.76 14.23-8.78.16-17.5-.16-26.16-.93-1.44-.13-2.87-.27-4.3-.43-3.71-.39-7.41-.88-11.08-1.44 5-22.83 21.3-42.63 44.95-51.05l52.84-18.82 63.23-22.53c9.71-3.46 19.67-4.64 29.31-3.83a70.325 70.325 0 0 1 33.95 12.13z" fill="#c8effe"></path><path d="M400.75 396.01c-27.93 37.74-67 67.86-114.56 84.8-19.96 7.11-40.23 11.48-60.39 13.3-1.44-.13-2.87-.27-4.3-.43-3.71-.39-7.4-.88-11.08-1.44 5-22.83 21.3-42.63 44.95-51.05l52.84-18.82 63.23-22.53c9.71-3.46 19.67-4.64 29.31-3.83z" fill="#eaf6ff"></path><path d="M355.585 214.501a7.499 7.499 0 0 1-7.5-7.5V7.5c0-4.143 3.357-7.5 7.5-7.5s7.5 3.357 7.5 7.5v199.501c0 4.143-3.357 7.5-7.5 7.5z" fill="#e9b665"></path><path d="M143.788 364.839a7.497 7.497 0 0 1-7.389-8.827c.053-.295 1.346-7.37 4.928-18.362a7.499 7.499 0 0 1 9.455-4.808 7.5 7.5 0 0 1 4.807 9.454c-3.233 9.925-4.417 16.32-4.429 16.384a7.507 7.507 0 0 1-7.372 6.159zM162.273 314.677a7.5 7.5 0 0 1-6.641-10.974c5.79-11.084 12.465-21.555 19.841-31.121a7.5 7.5 0 0 1 11.879 9.159c-6.841 8.873-13.04 18.6-18.425 28.908a7.503 7.503 0 0 1-6.654 4.028zm43.46-55.982a7.5 7.5 0 0 1-4.944-13.143 180.692 180.692 0 0 1 30.272-21.449 7.5 7.5 0 0 1 7.364 13.069 165.68 165.68 0 0 0-27.754 19.666 7.472 7.472 0 0 1-4.938 1.857zm61.585-34.799a7.502 7.502 0 0 1-2.315-14.636c11.381-3.694 23.481-6.447 35.965-8.182 4.111-.569 7.891 2.293 8.461 6.396s-2.294 7.891-6.396 8.461c-11.615 1.613-22.852 4.167-33.396 7.592-.77.25-1.551.369-2.319.369z" fill="#596c76"></path><path d="M320.153 376.808a7.502 7.502 0 0 1-2.517-14.566l33.553-11.955c3.897-1.394 8.191.645 9.582 4.547s-.646 8.192-4.547 9.582l-33.553 11.955a7.501 7.501 0 0 1-2.518.437zM269.226 364.834a7.502 7.502 0 0 1-2.517-14.566l33.553-11.955c3.898-1.394 8.191.645 9.582 4.547s-.646 8.192-4.547 9.582l-33.553 11.955a7.505 7.505 0 0 1-2.518.437z" fill="#eaf6ff"></path></g></svg>