<svg viewBox="0 0 64 64" xmlns="http://www.w3.org/2000/svg"><g><path d="M22.25 17h1.5v6h-1.5zM13.25 20h1.5v6h-1.5z" fill="#8696bf"></path><path d="M26 15.198a2.7 2.7 0 0 1-3 3 2.7 2.7 0 0 1-3-3C20 12.988 21.343 7 23 7s3 5.989 3 8.198z" fill="#53a668"></path><path d="M17 18.198a2.7 2.7 0 0 1-3 3 2.7 2.7 0 0 1-3-3C11 15.988 12.343 10 14 10s3 5.989 3 8.198z" fill="#5ab370"></path><path d="m49 1-7 6h14z" fill="#cc7a7a"></path><path d="M44 7v11a188.113 188.113 0 0 1 10-1.607V7z" fill="#5c89cc"></path><path d="M47 11v6.461q2.033-.348 4-.643V11z" fill="#f2f9ff"></path><path d="M33 19.535a163.344 163.344 0 0 0-24.57 8c-2.23.97-5.502 2.554-7.43 3.504V63h62V14.535a188.21 188.21 0 0 0-30 5z" fill="#68cc98"></path><path d="M12 39v8.72c3.77.41 7.79 1.01 12 1.86V39z" fill="#5c89cc"></path><path d="M16 43v5.21l4 .63V43z" fill="#f2f9ff"></path><path d="m18 31-8 8h16z" fill="#cc7a7a"></path><g fill="#53a668"><path d="M1.018 46.25 1 47.004v.747a130.993 130.993 0 0 1 24.84 2.981 131.006 131.006 0 0 1 24.476 7.956l.601-1.375a132.502 132.502 0 0 0-24.757-8.045A132.46 132.46 0 0 0 1.018 46.25zM1.018 51.25 1 52.003v.748a130.995 130.995 0 0 1 24.84 2.981 131.075 131.075 0 0 1 17.055 4.972l.516-1.408a132.426 132.426 0 0 0-17.25-5.028A132.46 132.46 0 0 0 1.017 51.25zM1.018 56.362 1 57.114v.749a130.994 130.994 0 0 1 24.84 2.982c2.658.582 5.334 1.257 7.954 2.005l.412-1.442c-2.65-.758-5.356-1.44-8.046-2.028a132.461 132.461 0 0 0-25.142-3.018zM63 32.062a189.473 189.473 0 0 0-26.234 4.208l.342 1.46A188.026 188.026 0 0 1 63 33.568zM63 26.336a189.522 189.522 0 0 0-29.246 4.936l-1.003.255.372 1.453.997-.252A188.02 188.02 0 0 1 63 27.842zM63 21.063A189.522 189.522 0 0 0 33.754 26a189.797 189.797 0 0 0-6.024 1.62l.414 1.44a189.046 189.046 0 0 1 5.976-1.605A188.02 188.02 0 0 1 63 22.57z" fill="#53a668"></path></g></g></svg>