<svg id="Capa_1" enable-background="new 0 0 512 512" height="512" viewBox="0 0 512 512" width="512" xmlns="http://www.w3.org/2000/svg"><g><path d="m181 75h30v60h-30z" fill="#808080"/><path d="m301 75h30v60h-30z" fill="#696969"/><path d="m393.745 210h-197.745l60 302h104.437z" fill="#ff5a35"/><path d="m118.255 210 33.308 302h104.437v-302z" fill="#ff7a3c"/><path d="m452 120h-196l-30 61 30 59h196z" fill="#ff7a3c"/><path d="m60 120h196v120h-196z" fill="#ff9a42"/><circle cx="196" cy="45" fill="#4f4f4f" r="45"/><circle cx="316" cy="45" fill="#353535" r="45"/><path d="m256 120-30 60 30 60c33.137 0 60-26.863 60-60s-26.863-60-60-60z" fill="#ffba48"/><path d="m196 180c0 33.137 26.863 60 60 60v-120c-33.137 0-60 26.863-60 60z" fill="#ffd185"/></g></svg>