<svg height="512pt" viewBox="-12 0 511 512" width="512pt" xmlns="http://www.w3.org/2000/svg"><path d="m477.90625 194.53125h-26.070312c-.289063 0-.574219-.019531-.859376-.042969v304.953125c0 6.90625 5.628907 12.558594 12.511719 12.558594h2.765625c6.882813 0 12.511719-5.652344 12.511719-12.558594v-304.953125c-.28125.023438-.570313.042969-.859375.042969zm0 0" fill="#c7d2e5"/><path d="m36.476562 194.53125h-26.070312c-.289062 0-.578125-.019531-.859375-.042969v304.953125c0 6.90625 5.628906 12.558594 12.511719 12.558594h2.765625c6.878906 0 12.511719-5.652344 12.511719-12.558594v-304.953125c-.285157.023438-.570313.042969-.859376.042969zm0 0" fill="#c7d2e5"/><path d="m451.835938 37.542969h26.070312c.289062 0 .578125.019531.859375.046875v-24.71875c0-7.078125-5.628906-12.871094-12.511719-12.871094h-2.765625c-6.882812 0-12.511719 5.792969-12.511719 12.871094v24.71875c.285157-.027344.570313-.046875.859376-.046875zm0 0" fill="#c7d2e5"/><path d="m10.40625 37.542969h26.070312c.289063 0 .574219.019531.859376.046875v-24.71875c0-7.078125-5.632813-12.871094-12.511719-12.871094h-2.765625c-6.882813 0-12.511719 5.792969-12.511719 12.871094v24.71875c.28125-.027344.566406-.046875.859375-.046875zm0 0" fill="#c7d2e5"/><path d="m444.785156 185.785156v-139.382812c0-.851563.121094-1.671875.328125-2.460938-52.644531 10.898438-123.554687 17.582032-201.582031 17.582032-78.03125 0-148.9375-6.683594-201.585938-17.582032.207032.789063.332032 1.609375.332032 2.460938v139.382812c0 .714844-.082032 1.40625-.230469 2.078125 52.636719 10.886719 123.503906 17.5625 201.484375 17.5625 77.976562 0 148.84375-6.675781 201.480469-17.5625-.144531-.671875-.226563-1.363281-.226563-2.078125zm0 0" fill="#ff6b6b"/><path d="m42.046875 187.863281c10.609375 2.195313 21.96875 4.214844 33.964844 6.046875v-143.902344c-12.035157-1.839843-23.429688-3.867187-34.066407-6.066406.207032.789063.328126 1.609375.328126 2.460938v139.382812c.003906.714844-.078126 1.40625-.226563 2.078125zm0 0" fill="#ee5253"/><path d="m477.90625 36.496094h-26.070312c-5.445313 0-9.90625 4.457031-9.90625 9.90625v139.382812c0 5.449219 4.460937 9.90625 9.90625 9.90625h26.070312c5.449219 0 9.90625-4.457031 9.90625-9.90625v-139.382812c0-5.449219-4.457031-9.90625-9.90625-9.90625zm0 0" fill="#ff6b6b"/><path d="m36.476562 36.496094h-26.070312c-5.449219 0-9.90625 4.457031-9.90625 9.90625v139.382812c0 5.449219 4.457031 9.90625 9.90625 9.90625h26.070312c5.445313 0 9.90625-4.457031 9.90625-9.90625v-139.382812c0-5.449219-4.460937-9.90625-9.90625-9.90625zm0 0" fill="#ff6b6b"/><path d="m469.332031 185.785156v-139.382812c0-5.222656 4.101563-9.523438 9.242188-9.871094-.222657-.015625-.441407-.035156-.667969-.035156h-26.066406c-5.449219 0-9.90625 4.457031-9.90625 9.90625v139.382812c0 5.449219 4.457031 9.90625 9.90625 9.90625h26.066406c.226562 0 .445312-.015625.667969-.03125-5.140625-.347656-9.242188-4.648437-9.242188-9.875zm0 0" fill="#ee5253"/><path d="m27.902344 185.785156v-139.382812c0-5.222656 4.097656-9.523438 9.238281-9.871094-.21875-.015625-.441406-.035156-.664063-.035156h-26.070312c-5.449219 0-9.90625 4.457031-9.90625 9.90625v139.382812c0 5.449219 4.457031 9.90625 9.90625 9.90625h26.070312c.222657 0 .445313-.015625.664063-.03125-5.136719-.347656-9.238281-4.648437-9.238281-9.875zm0 0" fill="#ee5253"/><g fill="#e4eaf8"><path d="m135.453125 146.382812c1.460937-13.292968-33.621094-14.816406-30.792969-40.523437 1.8125-16.480469 16.890625-21.164063 30.625-19.652344 5.824219.640625 21.742188 3.503907 20.800782 12.070313-.324219 2.96875-2.96875 8.792968-7.800782 8.261718-3.957031-.433593-5.585937-4.839843-14.59375-5.828124-7.800781-.859376-11.335937 1.976562-11.710937 5.382812-1.210938 10.988281 33.847656 12.726562 30.804687 40.414062-1.738281 15.820313-14.214844 23.125-30.148437 21.371094-14.390625-1.582031-25.703125-9.941406-24.90625-17.191406.410156-3.738281 4.308593-8.867188 8.484375-8.410156 5.164062.570312 7.566406 9.0625 17.785156 10.183594 5.054688.554687 10.871094-.804688 11.453125-6.078126zm0 0"/><path d="m213.550781 92.515625c3.644531.203125 4.96875 4.257813 4.769531 7.898437-.226562 4.195313-2.304687 7.734376-5.613281 7.554688l-15.230469-.835938-3.285156 59.925782c-.191406 3.53125-4.59375 5.0625-8.894531 4.824218-4.304687-.234374-8.515625-2.234374-8.320313-5.769531l3.28125-59.925781-15.226562-.832031c-3.3125-.183594-4.988281-3.925781-4.757812-8.121094.199218-3.640625 1.960937-7.53125 5.601562-7.332031zm0 0"/><path d="m210.894531 166.332031c.003907-.332031.121094-.773437.234375-1.214843l21.316406-67.183594c1.257813-3.855469 6.253907-5.679688 11.335938-5.621094 5.085938.054688 10.035156 1.992188 11.207031 5.871094l19.910157 67.652344c.109374.441406.210937.886718.210937 1.21875-.046875 4.085937-6.382813 7-11.132813 6.949218-2.761718-.03125-4.960937-.941406-5.601562-3.269531l-3.601562-13.855469-23.320313-.265625-3.914063 13.773438c-.6875 2.316406-2.90625 3.175781-5.671874 3.144531-4.753907-.054688-11.019532-3.109375-10.972657-7.199219zm40.378907-22.757812-7.734376-29.710938-8.402343 29.527344zm0 0"/><path d="m280.648438 98.332031c-.105469-2.761719 1.902343-5.269531 5.105468-5.390625l22.863282-.863281c15.136718-.570313 27.386718 4.605469 28.066406 22.609375.464844 12.371094-4.898438 19.65625-12.519532 22.929688l14.398438 23.902343c.464844.644531.605469 1.414063.625 1.964844.164062 4.308594-5.40625 9.164063-10.484375 9.359375-2.210937.082031-4.34375-.722656-5.644531-2.996094l-16.242188-28.8125-7.289062.277344 1.003906 26.617188c.132812 3.535156-4.109375 5.464843-8.414062 5.628906-4.308594.164062-8.683594-1.441406-8.816407-4.976563zm17.601562 9.179688.777344 20.546875 10.933594-.414063c6.1875-.234375 9.847656-2.914062 9.554687-10.648437-.292969-7.730469-4.144531-10.128906-10.328125-9.894532zm0 0"/><path d="m390.023438 86.226562c3.632812-.332031 5.535156 3.492188 5.863281 7.125.382812 4.183594-1.160157 7.984376-4.460938 8.285157l-15.191406 1.378906 5.425781 59.769531c.320313 3.523438-3.8125 5.675782-8.105468 6.0625-4.292969.390625-8.746094-.980468-9.066407-4.503906l-5.425781-59.769531-15.191406 1.378906c-3.300782.300781-5.5-3.164063-5.882813-7.347656-.328125-3.628907.851563-7.734375 4.484375-8.0625zm0 0"/></g></svg>