<svg viewBox="0 0 64 64" xmlns="http://www.w3.org/2000/svg"><g><path d="M36.787 44.422a14.94 14.94 0 0 1-.771 2.884l3.131 2.837a18.877 18.877 0 0 1-1.516 2.646l-4.02-1.296a15.042 15.042 0 0 1-2.119 2.118l1.296 4.02a18.977 18.977 0 0 1-2.646 1.516l-2.837-3.131c-.922.349-1.885.608-2.884.771l-.893 4.136c-.505.04-1.012.077-1.528.077s-1.023-.037-1.529-.077l-.893-4.136a14.94 14.94 0 0 1-2.884-.771l-2.837 3.131a18.877 18.877 0 0 1-2.646-1.516l1.296-4.02a15.088 15.088 0 0 1-2.118-2.118l-4.02 1.296a18.977 18.977 0 0 1-1.516-2.646l3.131-2.837a14.921 14.921 0 0 1-.771-2.884l-4.136-.893C3.037 43.023 3 42.516 3 42s.037-1.023.077-1.529l4.136-.893a14.94 14.94 0 0 1 .771-2.884l-3.131-2.837c.439-.924.939-1.812 1.516-2.646l4.02 1.296a15.042 15.042 0 0 1 2.119-2.118l-1.296-4.02a18.977 18.977 0 0 1 2.646-1.516l2.837 3.131a14.921 14.921 0 0 1 2.884-.771l.893-4.136C20.977 23.037 21.484 23 22 23s1.023.037 1.529.077l.893 4.136a14.94 14.94 0 0 1 2.884.771l2.837-3.131c.924.439 1.812.939 2.646 1.516l-1.296 4.02a15.042 15.042 0 0 1 2.118 2.119l4.02-1.296a18.977 18.977 0 0 1 1.516 2.646l-3.131 2.837c.349.922.608 1.885.771 2.884l4.136.893c.04.505.077 1.012.077 1.528s-.037 1.023-.077 1.529zM22 32c-5.523 0-10 4.477-10 10s4.477 10 10 10 10-4.477 10-10-4.477-10-10-10z" fill="#454a6d"></path><path d="M50.659 16.305a8.015 8.015 0 0 1-.611 1.48l1.579 3.026a11.051 11.051 0 0 1-1.815 1.815l-3.026-1.579a7.88 7.88 0 0 1-1.48.611l-1.024 3.26c-.422.05-.848.082-1.282.082s-.86-.032-1.281-.081l-1.024-3.26a7.946 7.946 0 0 1-1.48-.611l-3.026 1.579a11.051 11.051 0 0 1-1.815-1.815l1.579-3.026a7.88 7.88 0 0 1-.611-1.48l-3.26-1.024C32.032 14.86 32 14.434 32 14s.032-.86.081-1.281l3.26-1.024c.155-.517.36-1.013.611-1.48l-1.579-3.026a11.051 11.051 0 0 1 1.815-1.815l3.026 1.579a7.88 7.88 0 0 1 1.48-.611l1.024-3.26C42.14 3.032 42.566 3 43 3s.86.032 1.281.081l1.024 3.26c.517.155 1.013.36 1.48.611l3.026-1.579a11.051 11.051 0 0 1 1.815 1.815l-1.579 3.026c.252.467.456.963.611 1.48l3.26 1.024c.05.422.082.848.082 1.282s-.032.86-.081 1.281zM43 10a4 4 0 1 0 0 8 4 4 0 0 0 0-8z" fill="#e89d43"></path><path d="M58.739 38.871a6.96 6.96 0 0 1-.649 1.572l.995 2.094a9.07 9.07 0 0 1-1.548 1.548l-2.094-.995a6.941 6.941 0 0 1-1.572.649l-.778 2.188c-.359.044-.722.073-1.093.073s-.734-.029-1.093-.073l-.778-2.188a6.96 6.96 0 0 1-1.572-.649l-2.094.995a9.07 9.07 0 0 1-1.548-1.548l.995-2.094a6.952 6.952 0 0 1-.649-1.571l-2.188-.778C43.029 37.734 43 37.371 43 37s.029-.734.073-1.093l2.188-.778a6.934 6.934 0 0 1 .649-1.571l-.995-2.094a9.07 9.07 0 0 1 1.548-1.548l2.094.995a6.941 6.941 0 0 1 1.572-.649l.778-2.188c.359-.045.722-.074 1.093-.074s.734.029 1.093.073l.778 2.188a6.96 6.96 0 0 1 1.572.649l2.094-.995a9.07 9.07 0 0 1 1.548 1.548l-.995 2.094c.278.49.495 1.017.649 1.572l2.188.778c.044.359.073.722.073 1.093s-.029.734-.073 1.093zM52 34a3 3 0 1 0 0 6 3 3 0 0 0 0-6z" fill="#4ac3ed"></path><g fill="#454a6d"><path d="m61.196 5.02-5.981-1.196-1.196 5.98 1.961.393.539-2.692A15.005 15.005 0 0 1 58 14a14.84 14.84 0 0 1-3.29 9.375l1.561 1.251A17.049 17.049 0 0 0 60 14c0-2.619-.605-5.201-1.756-7.531l2.56.512zM23.707 13.293l-1.414 1.414 1.359 1.359A26.03 26.03 0 0 0 22 16a25.947 25.947 0 0 0-19.978 9.359l1.536 1.281A23.951 23.951 0 0 1 22 18c.509 0 1.017.029 1.525.061l-1.232 1.232 1.414 1.414L27.414 17z" fill="#454a6d"></path></g></g></svg>