<svg viewBox="0 0 512 512" xmlns="http://www.w3.org/2000/svg"><g><path d="M415.44 212.355c-18.376 0-33.273 14.897-33.273 33.273v-32.137c0-18.376-14.897-33.273-33.273-33.273-18.376 0-33.273 14.897-33.273 33.273V33.273C315.62 14.897 300.723 0 282.346 0c-18.376 0-33.273 14.897-33.273 33.273v192.978c0-18.376-14.897-33.273-33.273-33.273-18.376 0-33.273 14.897-33.273 33.273v77.366l-35.493-35.493c-20.194-20.194-52.93-20.214-73.145-.04l-.613.612c-13.307 13.278-13.323 34.829-.031 48.121l54.181 54.181a210.4 210.4 0 0 1 48.794 76.422c14.166 38.672 50.714 64.58 91.899 64.58h82.909c53.95 0 97.686-43.735 97.686-97.686V245.628c-.001-18.376-14.898-33.273-33.274-33.273z" fill="#ffcec0"></path><g fill="#ffbbad"><path d="M315.617 207.148v38.208M249.073 245.356v-38.208M448.715 245.623V414.31c0 53.949-43.737 97.686-97.686 97.686h-21.321c53.949 0 97.686-43.737 97.686-97.686V245.623c0-14.641-9.461-27.079-22.613-31.508a32.805 32.805 0 0 1 10.655-1.759c18.38 0 33.279 14.899 33.279 33.267zM249.073 262.425a7.726 7.726 0 0 1-7.726-7.726v-28.447a7.726 7.726 0 1 1 15.452 0v28.447a7.726 7.726 0 0 1-7.726 7.726zM315.62 262.425a7.725 7.725 0 0 1-7.726-7.726v-41.207a7.726 7.726 0 1 1 15.452 0v41.207a7.726 7.726 0 0 1-7.726 7.726zM382.166 262.425a7.725 7.725 0 0 1-7.726-7.726v-9.069a7.726 7.726 0 1 1 15.452 0v9.069a7.725 7.725 0 0 1-7.726 7.726zM182.526 354.046a7.726 7.726 0 0 1-7.726-7.726v-42.702a7.726 7.726 0 1 1 15.452 0v42.702a7.725 7.725 0 0 1-7.726 7.726z" fill="#ffbbad"></path></g></g></svg>