<svg viewBox="0 0 512 512" xmlns="http://www.w3.org/2000/svg"><g><circle cx="256.25" cy="256" fill="#fec753" r="245"></circle><path d="M256 105.467c-123.226 0-226.406 111.129-253.017 142.421a12.518 12.518 0 0 0 0 16.223C29.594 295.403 132.774 406.533 256 406.533s226.406-111.129 253.017-142.421a12.518 12.518 0 0 0 0-16.223C482.406 216.597 379.226 105.467 256 105.467z" fill="#35528c"></path><path d="M41.966 256c0-24.313 95.826-150.533 214.034-150.533-122.22 0-224.719 109.322-252.349 141.639a13.68 13.68 0 0 0 0 17.788C31.281 297.211 133.78 406.533 256 406.533c-118.208 0-214.034-126.22-214.034-150.533z" fill="#1f3a60"></path><circle cx="256" cy="256" fill="#99d3ff" r="132"></circle><path d="M176 256c0-64.001 45.551-117.357 106-129.434A132.564 132.564 0 0 0 256 124c-72.902 0-132 59.098-132 132s59.098 132 132 132c8.901 0 17.593-.887 26-2.566C221.551 373.357 176 320.001 176 256z" fill="#5bb3ce"></path><circle cx="254.603" cy="256" fill="#1f3a60" r="65.603"></circle><circle cx="308.058" cy="225.628" fill="#dcf3ff" r="27.942"></circle></g></svg>