<svg viewBox="0 0 512 512" xmlns="http://www.w3.org/2000/svg"><g><path d="M222.609 339.478h-66.783c-9.223 0-16.696-7.473-16.696-16.696V256c0-9.223 7.473-16.696 16.696-16.696h50.087v-33.391h-50.087c-9.223 0-16.696-7.473-16.696-16.696s7.473-16.696 16.696-16.696h66.783c9.223 0 16.696 7.473 16.696 16.696V256c0 9.223-7.473 16.696-16.696 16.696h-50.087v33.391h50.087c9.223 0 16.696 7.473 16.696 16.696s-7.474 16.695-16.696 16.695z" fill="#58718c"></path><circle cx="89.043" cy="256" fill="#58718c" r="16.696"></circle><circle cx="422.957" cy="256" fill="#50667f" r="16.696"></circle><circle cx="256" cy="422.957" fill="#58718c" r="16.696"></circle><circle cx="256" cy="89.043" fill="#58718c" r="16.696"></circle><path d="M356.174 172.522c-9.223 0-16.696 7.473-16.696 16.696v50.087h-33.391v-50.087c0-9.223-7.473-16.696-16.696-16.696s-16.696 7.473-16.696 16.696V256c0 9.223 7.473 16.696 16.696 16.696h50.087v50.087c0 9.223 7.473 16.696 16.696 16.696s16.696-7.473 16.696-16.696V189.217c0-9.222-7.473-16.695-16.696-16.695z" fill="#50667f"></path><path d="M512 256c0 141.134-114.866 256-256 256S0 397.134 0 256 114.866 0 256 0c66.894 0 130.671 26.379 178.087 72.125v-55.43C434.087 7.457 441.544 0 450.783 0s16.696 7.457 16.696 16.696V116.87c0 8.904-7.235 16.696-16.696 16.696H350.609c-9.238 0-16.696-7.457-16.696-16.696s7.457-16.696 16.696-16.696h64.223C373.203 57.878 315.993 33.391 256 33.391c-122.769 0-222.609 99.84-222.609 222.609S133.231 478.609 256 478.609 478.609 378.769 478.609 256c0-9.238 7.457-16.696 16.696-16.696S512 246.762 512 256z" fill="#50b9ff"></path><path d="M272.696 422.957c0-9.22-7.475-16.696-16.696-16.696v33.391c9.22 0 16.696-7.475 16.696-16.695zM272.696 89.043c0-9.22-7.475-16.696-16.696-16.696v33.391c9.22.001 16.696-7.474 16.696-16.695z" fill="#50667f"></path><path d="M512 256c0 141.134-114.866 256-256 256v-33.391c122.769 0 222.609-99.84 222.609-222.609 0-9.238 7.457-16.696 16.696-16.696S512 246.762 512 256zM467.478 16.696V116.87c0 8.904-7.235 16.696-16.696 16.696H350.609c-9.238 0-16.696-7.457-16.696-16.696s7.457-16.696 16.696-16.696h64.223C373.203 57.878 315.993 33.391 256 33.391V0c66.894 0 130.671 26.379 178.087 72.125v-55.43C434.087 7.457 441.544 0 450.783 0s16.695 7.457 16.695 16.696z" fill="#48a7e6"></path></g></svg>