<svg viewBox="0 0 512 512" xmlns="http://www.w3.org/2000/svg"><g><path d="M36.913 97.93h438.17v375.04H36.913z" fill="#e9eaeb"></path><path d="M419.46 97.93h55.63v375.04h-55.63z" fill="#b9bbc1"></path><path d="M476.616 97.927H35.384V36.361a8.906 8.906 0 0 1 8.906-8.906h423.42a8.906 8.906 0 0 1 8.906 8.906v61.566z" fill="#fdc74f"></path><path d="M467.71 27.455h-46.724v46.347h55.63V36.361a8.906 8.906 0 0 0-8.906-8.906z" fill="#fca629"></path><path d="M36.913 209.569c-20.166 0-36.515-16.348-36.515-36.514v-29.748h73.029v29.748c.001 20.166-16.348 36.514-36.514 36.514z" fill="#e60d28"></path><path d="M109.942 209.569c-20.166 0-36.515-16.348-36.515-36.514v-29.748h73.029v29.748c.001 20.166-16.348 36.514-36.514 36.514z" fill="#f2f2f2"></path><path d="M182.971 209.569c-20.166 0-36.515-16.348-36.515-36.514v-29.748h73.029v29.748c.001 20.166-16.348 36.514-36.514 36.514z" fill="#e60d28"></path><path d="M256 209.569c-20.166 0-36.515-16.348-36.515-36.514v-29.748h73.029v29.748c0 20.166-16.348 36.514-36.514 36.514z" fill="#f2f2f2"></path><path d="M329.029 209.569c-20.166 0-36.515-16.348-36.515-36.514v-29.748h73.029v29.748c.001 20.166-16.348 36.514-36.514 36.514z" fill="#e60d28"></path><path d="M402.058 209.569c-20.166 0-36.515-16.348-36.515-36.514v-29.748h73.029v29.748c.001 20.166-16.348 36.514-36.514 36.514z" fill="#f2f2f2"></path><path d="M475.087 209.569c-20.166 0-36.515-16.348-36.515-36.514v-29.748h73.029v29.748c.001 20.166-16.348 36.514-36.514 36.514z" fill="#e60d28"></path><path d="M73.427 143.306H.398l34.949-69.504h63.044z" fill="#fc502a"></path><path d="M146.456 143.306H73.427l24.964-69.504h63.043z" fill="#ffffff"></path><path d="M219.485 143.306h-73.029l14.978-69.504h63.044z" fill="#fc502a"></path><path d="M292.514 143.306h-73.029l4.993-69.504h63.044z" fill="#ffffff"></path><path d="M365.543 143.306h-73.029l-4.992-69.504h63.044z" fill="#fc502a"></path><path d="M438.572 143.306h-73.029l-14.977-69.504h63.043z" fill="#ffffff"></path><path d="M511.601 143.306h-73.029l-24.963-69.504h63.044z" fill="#fc502a"></path><path d="M495.323 438.702H16.677C7.467 438.702 0 446.168 0 455.379v24.439a4.727 4.727 0 0 0 4.727 4.727h502.545a4.727 4.727 0 0 0 4.727-4.727v-24.439c.001-9.211-7.466-16.677-16.676-16.677z" fill="#8b8996"></path><path d="M495.323 438.702h-39.124v45.843h51.074a4.727 4.727 0 0 0 4.727-4.727v-24.439c0-9.211-7.467-16.677-16.677-16.677z" fill="#706f7f"></path><path d="M431.928 389.687H207.015a6.645 6.645 0 0 1-6.645-6.645V259.281a6.645 6.645 0 0 1 6.645-6.645h224.913a6.645 6.645 0 0 1 6.645 6.645v123.762a6.645 6.645 0 0 1-6.645 6.644z" fill="#00c6c8"></path><path d="M431.928 252.636h-49.157v137.051h49.157a6.645 6.645 0 0 0 6.645-6.645V259.281a6.645 6.645 0 0 0-6.645-6.645z" fill="#0fb0c0"></path><path d="M168.781 438.702H66.165V259.281a6.645 6.645 0 0 1 6.645-6.645h89.326a6.645 6.645 0 0 1 6.645 6.645v179.421z" fill="#00c6c8"></path><path d="M162.136 252.636h-49.157v186.066h55.801V259.281a6.643 6.643 0 0 0-6.644-6.645z" fill="#0fb0c0"></path><path d="M140.105 357.735a7.726 7.726 0 0 0 7.726-7.726v-13.907a7.726 7.726 0 1 0-15.452 0v13.907a7.725 7.725 0 0 0 7.726 7.726z" fill="#ffffff"></path></g></svg>