<svg viewBox="0 0 68 68" xmlns="http://www.w3.org/2000/svg"><g><path d="M31.474 17.708v42.88H4.517A2.017 2.017 0 0 1 2.5 58.573V17.708z" fill="#e9edf4"></path><path d="M31.474 7.663v10.045H2.5V9.68c0-1.114.903-2.017 2.017-2.017z" fill="#ffc90d"></path><circle cx="9.315" cy="12.685" fill="#ffab02" r="2.061"></circle><circle cx="15.917" cy="12.685" fill="#ffab02" r="2.061"></circle><circle cx="22.518" cy="12.685" fill="#ffab02" r="2.061"></circle><path d="M28.34 46.005H17.71a1 1 0 0 1 0-2h10.63a1 1 0 0 1 0 2zM28.34 51.403H8.09a1 1 0 0 1 0-2h20.25a1 1 0 0 1 0 2zM28.34 56.802H8.09a1 1 0 0 1 0-2h20.25a1 1 0 0 1 0 2z" fill="#d2dbea"></path><path d="M28.338 22.599v15.953c0 1.19-.955 2.146-2.146 2.146H10.24a2.138 2.138 0 0 1-2.146-2.146V22.6c0-1.191.955-2.146 2.146-2.146h15.953c1.191 0 2.146.955 2.146 2.146z" fill="#8cc2fe"></path><path d="m21.145 34.647-.568-1.49H15.75l-.566 1.523c-.222.594-.411.995-.568 1.202-.156.208-.413.312-.769.312-.303 0-.57-.11-.802-.332-.232-.221-.348-.472-.348-.753 0-.162.027-.33.08-.502.055-.173.144-.413.268-.72l3.038-7.711c.085-.222.19-.488.311-.798.122-.31.251-.568.389-.774.137-.205.319-.37.543-.498.224-.126.5-.19.83-.19.334 0 .614.064.838.19.224.127.405.29.543.49s.254.415.348.644c.094.23.215.536.36.92l3.102 7.661c.243.583.365 1.007.365 1.272 0 .275-.115.528-.344.757-.23.23-.507.344-.83.344-.19 0-.351-.033-.487-.1-.134-.068-.248-.16-.34-.276s-.19-.294-.295-.535c-.105-.24-.196-.452-.271-.636zm-4.763-3.296h3.548l-1.79-4.9z" fill="#000000"></path><path d="M65.5 17.708v39.23a3.65 3.65 0 0 1-3.65 3.65H36.515v-42.88z" fill="#e9edf4"></path><path d="M65.5 9.68v8.028H36.516V7.663h26.967c1.114 0 2.017.903 2.017 2.017z" fill="#f14f4a"></path><path d="M59.585 46.005h-20.25a1 1 0 0 1 0-2h20.25a1 1 0 0 1 0 2zM59.585 51.403h-20.25a1 1 0 0 1 0-2h20.25a1 1 0 0 1 0 2zM53.073 56.802H39.335a1 1 0 0 1 0-2h13.738a1 1 0 0 1 0 2z" fill="#d2dbea"></path><path d="M59.583 22.599v15.953c0 1.19-.955 2.146-2.146 2.146H41.484a2.138 2.138 0 0 1-2.146-2.146V22.6c0-1.191.955-2.146 2.146-2.146h15.953c1.19 0 2.146.955 2.146 2.146z" fill="#8cc2fe"></path><path d="M61.083 12.686c0 .796-.642 1.438-1.438 1.438H40.249a1.426 1.426 0 0 1-1.426-1.438c0-.797.63-1.439 1.426-1.439h19.396c.796 0 1.438.642 1.438 1.439z" fill="#e23737"></path><path d="M49.862 35.992h-3.629c-.523 0-.897-.118-1.121-.352s-.336-.61-.336-1.122v-8.926c0-.523.115-.9.344-1.13s.6-.343 1.113-.343h3.848c.566 0 1.058.035 1.474.105.416.07.788.205 1.117.405a2.93 2.93 0 0 1 1.24 1.486c.113.31.17.639.17.984 0 1.188-.594 2.057-1.782 2.608 1.56.497 2.34 1.463 2.34 2.9 0 .663-.17 1.262-.51 1.793-.34.532-.799.925-1.377 1.179a4.874 4.874 0 0 1-1.247.32c-.47.062-1.018.093-1.644.093zm-2.68-10.067v3.07h2.202c.6 0 1.062-.058 1.389-.17.327-.114.577-.33.75-.649.134-.227.202-.48.202-.761 0-.6-.214-.998-.64-1.195-.427-.197-1.077-.295-1.952-.295zm2.502 4.794h-2.503v3.467h2.584c1.625 0 2.438-.586 2.438-1.758 0-.599-.21-1.034-.632-1.304-.421-.27-1.05-.405-1.887-.405z" fill="#000000"></path><path d="M33.97 65.38a1 1 0 0 1-1-1V3.62a1 1 0 0 1 2 0v60.76a1 1 0 0 1-1 1z" fill="#342c37"></path></g></svg>