<svg viewBox="0 0 512 512" xmlns="http://www.w3.org/2000/svg"><g><path d="M70.935 161.032c-.5 0-1.004-.044-1.512-.137-4.488-.835-7.448-5.141-6.617-9.625L82.718 43.915c.831-4.484 5.125-7.435 9.625-6.617 4.488.835 7.448 5.141 6.617 9.625L79.048 154.278a8.263 8.263 0 0 1-8.113 6.754zM44.879 161.032c-3.899 0-7.367-2.77-8.109-6.738L16.657 46.94a8.257 8.257 0 0 1 6.597-9.637c4.484-.847 8.802 2.117 9.637 6.597l20.113 107.355a8.257 8.257 0 0 1-8.125 9.777z" fill="#d2a582"></path><path d="m488.298 453.532-42.362-28.241-323.091-98.078c-14.242-8.704-23.748-24.397-23.748-42.309V177.548c0-22.804-18.486-41.29-41.29-41.29H24.774C11.092 136.258 0 147.35 0 161.032v8.258c0 21.565 13.8 39.859 33.032 46.668v101.977c0 91.216 73.945 165.161 165.161 165.161h281.153c8.913 0 16.138-7.225 16.138-16.138a16.139 16.139 0 0 0-7.186-13.426z" fill="#f5dcb4"></path><circle cx="90.84" cy="45.42" fill="#5d5360" r="16.516"></circle><circle cx="94.28" cy="43.09" fill="#ffffff" r="6.979"></circle><circle cx="24.774" cy="45.42" fill="#5d5360" r="16.516"></circle><circle cx="27.11" cy="43.09" fill="#ffffff" r="6.979"></circle><path d="M462.452 466.581H231.226c-91.216 0-165.161-73.946-165.161-165.161v-80.385c0-6.077-3.471-11.428-8.701-14.525-14.558-8.619-24.332-24.451-24.332-42.598v-27.654h-8.258C11.092 136.258 0 147.35 0 161.032v8.258c0 21.565 13.8 39.859 33.032 46.668v101.977c0 91.216 73.945 165.161 165.161 165.161h264.258a8.258 8.258 0 0 0 .001-16.515z" fill="#ebc9a0"></path><path d="M324.48 112.528c-129.456 0-210.409 105.067-199.654 222.543 2.986 32.612 46.219 102.822 132.299 53.218 20.494 36.819 59.73 61.776 104.859 61.776C444.836 450.065 512 382.9 512 300.048c0-103.565-83.956-187.52-187.52-187.52z" fill="#af6e5a"></path><path d="M174.374 358.801c-10.755-117.476 70.199-222.543 199.654-222.543 19.251 0 37.82 2.911 55.302 8.299-29.929-20.222-66.011-32.03-104.85-32.03-129.456 0-210.409 105.067-199.654 222.543 2.182 23.838 25.899 67.711 72.106 70.249-13.894-14.912-21.379-33.639-22.558-46.518z" fill="#965a50"></path><path d="M421.328 310.851c0-46.907-38.161-85.069-85.069-85.069-35.73 0-71.48 21.323-91.081 54.323-11.921 20.07-26.826 60.565-2.768 115.682a158.284 158.284 0 0 0 14.699-7.49c-15.426-36.133-14.755-71.09 2.271-99.757 16.427-27.657 47.323-46.242 76.879-46.242 37.798 0 68.552 30.754 68.552 68.552 0 29.327-23.859 53.185-53.19 53.185-22.552 0-40.899-18.347-40.899-40.899 0-19.524 14.048-29.435 27.101-30.387 11.383-.806 24.52 4.968 27.258 23.718.653 4.512 4.871 7.633 9.363 6.976a8.254 8.254 0 0 0 6.976-9.363c-4.097-28.06-25.423-39.194-44.794-37.802-21.081 1.532-42.419 18.121-42.419 46.859 0 31.657 25.758 57.415 57.415 57.415 38.436 0 69.706-31.266 69.706-69.701z" fill="#965a50"></path><path d="M49.548 219.459c-5.878 0-11.449-1.276-16.516-3.5v17.582a57.55 57.55 0 0 0 16.516 2.434 8.259 8.259 0 0 0 0-16.516z" fill="#d2a582"></path></g></svg>