<svg viewBox="0 0 53 53" xmlns="http://www.w3.org/2000/svg"><g><path d="M40.235 50.385h-9.13c-.027-.101-1.226-9.874-5.69-14.77-2.02-2.2-2.86-4.61-3.19-6.61-.4-2.5.02-4.36.02-4.36l-16.44-1.55 3.69-20.48 23.1 8.52c1.8.74 3.12 2.32 3.53 4.21 1.19 5.6 2.976 18.205 4.11 35.04z" fill="#ffaf93"></path><path d="M22.245 24.641v.004l-16.44-1.55.49-2.7 13.6 1.283a2.62 2.62 0 0 1 2.35 2.963z" fill="#ee8778"></path><path d="M33.515 50.385h-2.41c-.027-.101-1.226-9.874-5.69-14.77-2.02-2.2-2.86-4.61-3.19-6.61-.4-2.5.02-4.36.02-4.36a2.4 2.4 0 0 1 2.21 2.35c.055 3.189 1.164 6.217 3.37 8.62 4.363 4.786 5.661 14.66 5.69 14.77z" fill="#ee8778"></path><path d="m37.678 40.368-3.647 1.244a1 1 0 0 1-1.27-.624l-3.486-10.223c-1.62.09-3.16-.89-3.71-2.5-.93-2.735 1.474-5.423 4.32-4.81 1.884-2.288 5.459-1.467 6.35 1.17.55 1.61-.07 3.34-1.42 4.25l3.487 10.224a1 1 0 0 1-.624 1.269z" fill="#deddff"></path><path d="m31.085 29.295 4.09 11.93-1.145.389a1 1 0 0 1-1.268-.624l-3.487-10.225c-1.62.09-3.16-.89-3.71-2.5-.65-1.9.33-3.95 2.19-4.65-1.605 2.546.311 5.848 3.33 5.68z" fill="#c6c6f7"></path><path d="M29.015 17.885c.819 2.432-.987 4.92-3.49 4.92a3.706 3.706 0 0 1-3.71-3.51l-10.54-2.34a.996.996 0 0 1-.76-1.19l.83-3.76c.12-.54.66-.88 1.19-.76l10.55 2.34c.816-1.564 2.722-2.47 4.77-1.65 2.268.993 2.977 4.095 1.16 5.95z" fill="#deddff"></path><path d="M23.078 17.337 10.77 14.586l-.26 1.18a1 1 0 0 0 .76 1.192l10.546 2.34a3.699 3.699 0 0 0 2.894 3.413 3.687 3.687 0 0 0 4.38-2.689c-2.354 1.876-5.846.334-6.012-2.685z" fill="#c6c6f7"></path><path d="M34.935 22.855c-.679.849-2.985 2.235-5.58 2.36-.38.02-.77.02-1.1.18-.426.22-.824.792-1.02.87-.49.39-1.12.56-1.74.51-.04 0-.08-.01-.12-.01 0-.02 0-.03.01-.05.129-2.066 2.209-3.753 4.5-3.26 1.213-1.473 3.441-1.815 5.05-.6z" fill="#e83d62"></path><path d="M27.235 26.265c-.49.39-1.12.56-1.74.51-.04 0-.08-.01-.12-.01 0-.02 0-.03.01-.05.074-1.18.942-2.581 2.37-3.1a3.7 3.7 0 0 0-.52 2.65z" fill="#ce2955"></path><path d="M29.015 17.885c.22.67.27 1.4.08 2.14-.334 1.446-1.696 2.522-2.85 2.7-.09-.09-.15-.2-.21-.31-.341-.71-.064-1.625.3-2.32.37-.73.83-1.45.83-2.26 0-.6-.25-1.18-.26-1.77-.05-1.476 1.263-2.568.95-4.13 2.268.993 2.977 4.095 1.16 5.95z" fill="#e83d62"></path><path d="M29.095 20.025c-.334 1.446-1.696 2.522-2.85 2.7-.09-.09-.15-.2-.21-.31-.25-.52-.17-1.11.02-1.66 1.11.24 2.2-.08 3.04-.73z" fill="#ce2955"></path><path d="m36.493 7.364.505-1.405a.354.354 0 0 1 .452-.214l1.618.58L40.2 3.17a.354.354 0 0 1 .666.24l-1.253 3.488a.354.354 0 0 1-.452.213l-1.618-.58-.385 1.072a.354.354 0 0 1-.666-.239zM35.7 9.574l.282-.786a.354.354 0 0 1 .666.24l-.282.785a.354.354 0 0 1-.667-.239zM40.65 16.594a.354.354 0 0 1 .453-.213l1.336.48.58-1.618a.354.354 0 0 1 .453-.213l3.489 1.253a.354.354 0 1 1-.24.666l-3.155-1.133-.58 1.617a.354.354 0 0 1-.453.214l-1.67-.6a.354.354 0 0 1-.213-.453zM38.703 15.895a.354.354 0 0 1 .453-.213l.58.208a.354.354 0 0 1-.24.666l-.58-.208a.354.354 0 0 1-.213-.453zM37.574 13.773a.354.354 0 0 1 .171-.467l.667-.314a.354.354 0 0 1 .47.169l.003.004a.354.354 0 0 1-.171.467l-.667.314a.354.354 0 0 1-.47-.169l-.003-.004zM39.588 12.823a.354.354 0 0 1 .17-.466l1.02-.481-.733-1.554-.002-.005a.354.354 0 0 1 .171-.467l3.475-1.638a.354.354 0 0 1 .302.64l-3.155 1.488.733 1.554.002.005a.354.354 0 0 1-.17.466l-1.34.632a.354.354 0 0 1-.473-.174z" fill="#65b9ff"></path></g></svg>