<svg viewBox="0 0 512 512" xmlns="http://www.w3.org/2000/svg"><g><path d="M374.842 280.578c-10.122 3.973-20.543 5.883-30.802 5.934-3.892.02-7.559 1.784-9.948 4.857-4.661 5.998-13.74 16.769-27.469 29.21-21.078 19.089-53.126 42.114-97.002 57.803-87.761 31.4-171.803 33.223-187.05-26.393-7.211-28.227 2.4-49.727 19.347-64.17 4.481-3.812 9.467-7.139 14.804-9.952h.01c17.08-9.045 37.612-12.949 55.805-11.486 14.299 1.154 33.615 1.319 54.723.278a648.64 648.64 0 0 0 15.484-.948c33.089-2.473 68.559-7.84 95.096-16.885 9.467-3.224 12.733-14.989 6.181-22.54-6.871-7.901-13.918-17.822-14.402-26.826-1.339-24.869 1.195-54.651 45.132-71.907 43.947-17.256 91.161-1.731 108.416 42.217 17.256 43.949-4.378 93.553-48.325 110.808z" fill="#ffdfcf"></path><path d="M213.69 308.166c-23.004-8.396-29.453-28.114-30.947-42.454-5.233.381-10.415.7-15.484.948 2.514 26.836 17.317 47.326 41.135 56.021a7.651 7.651 0 0 0 2.648.474 7.726 7.726 0 0 0 7.253-5.079c1.474-4.007-.597-8.447-4.605-9.91z" fill="#ffcebf"></path><path d="M393.911 150.209a7.692 7.692 0 0 1-3.726-.963c-1.01-.557-24.81-13.89-29.734-33.927-2.127-8.652-.46-17.444 4.821-25.425a7.723 7.723 0 0 1 10.706-2.181 7.726 7.726 0 0 1 2.181 10.706c-2.919 4.412-3.803 8.733-2.702 13.211 2.762 11.234 16.958 21.195 22.195 24.086a7.727 7.727 0 0 1-3.741 14.493z" fill="#678d98"></path><path d="M423.166 169.772c-14.562-37.082-50.459-53.933-87.721-47.92 25.823 4.353 48.053 20.666 58.755 47.92 17.256 43.943-4.379 93.554-48.322 110.81-12.176 4.781-24.787 6.572-37.024 5.734 0 0-40.446 60.674-128.201 92.07-31.912 11.417-63.33 18.918-91.131 20.982 33.79 2.916 76.483-5.378 120.096-20.982 72.454-25.922 112.659-71.802 124.476-87.013 2.389-3.075 6.058-4.84 9.952-4.859 10.257-.05 20.677-1.958 30.797-5.932 43.945-17.256 65.579-66.867 48.323-110.81z" fill="#ffcebf"></path><path d="M150.42 346.535s56.006-36.163 23.171-90.255c-24.033-39.593-78.992-46.337-106.729-47.108-7.377-.205-12.535-7.492-10.159-14.479 4.247-12.489 6.598-29.334-8.192-35.506C23.86 148.899-5.567 224.864.908 239.713s63.726 45.826 92.862 51.132z" fill="#ffdfcf"></path><path d="M158.048 333.053h-7.544c-5.361 0-8.653-5.937-5.741-10.438 10.247-15.836 16.604-38.752-.136-66.331-23.725-39.085-77.573-46.162-105.635-47.079-7.86-.258-13.403-7.932-10.951-15.412 2.864-8.757 4.646-19.429.34-27.052 6.531-6.841 13.495-10.322 20.13-7.551 14.791 6.169 12.441 23.015 8.195 35.504-2.376 6.988 2.783 14.275 10.161 14.48 27.736.771 82.691 7.516 106.729 47.11 18.184 29.948 9.124 54.402-2.585 70.264-3.033 4.108-7.856 6.505-12.963 6.505z" fill="#ffcebf"></path><path d="M293.349 252.395s-19.898-7.513-35.857-9.958c-3.798-.582-6.29-4.279-5.427-8.024 2.767-12.002 8.508-34.963 12.729-38.769 3.938-3.55 5.466-16.221 6.038-23.884a11.681 11.681 0 0 0-4.053-9.76l-3.445-2.941a11.93 11.93 0 0 0-15.54.046c-19.241 16.591-67.24 60.77-68.573 89.668-1.668 36.168 19.137 72.44 80.42 64.478s64.723-27.415 61.143-37.536c-3.003-8.487-11.554-18.021-27.435-23.32z" fill="#ffdfcf"></path><path d="M293.705 306.073c2.03-3.647 1.947-10.178 1.051-21.891-.68-8.983-14.495-26.486-30.37-31.792 0 0-16.703-6.3-31.775-9.24-6.051-1.18-9.912-7.144-8.474-13.139 2.999-12.501 7.945-30.985 11.693-34.363 5.759-5.202 5.378-30.751 5.378-30.751a473.995 473.995 0 0 1 6.583-5.79 11.934 11.934 0 0 1 15.545-.051l3.449 2.949a11.679 11.679 0 0 1 4.047 9.752c-.571 7.661-2.095 20.334-6.033 23.891-4.227 3.804-9.97 26.763-12.737 38.763-.863 3.744 1.628 7.441 5.426 8.024 15.964 2.449 35.858 9.956 35.858 9.956 15.885 5.306 24.436 14.835 27.444 23.323 2.738 7.767 1.358 21.015-27.085 30.359z" fill="#ffcebf"></path><path d="m405.441 310.733-12.176-10.117a85.27 85.27 0 0 0-58.11-13.554l-54.751 7.066a37.571 37.571 0 0 1-12.973-.589l-27.663-6.158a20.055 20.055 0 0 0-22.023 10.083c-5.348 9.953-1.421 22.358 8.68 27.421l36.857 18.473 1.938 8.298-18.099 1.137-31.643 18.469a22.66 22.66 0 0 1-15.664 2.689l-78.324-14.925c-12.486-2.38-24.302 6.531-25.466 19.192a20.952 20.952 0 0 0-.082 1.957c0 9.158 5.8 17.41 14.608 20.398l99.206 33.677a50.045 50.045 0 0 0 25.095 1.844l116.281-16.36a33.758 33.758 0 0 1 11.21.304l82.842 16.282V314.286l-30.224-.097a14.972 14.972 0 0 1-9.519-3.456z" fill="#7ca1b1"></path><path d="M512 325.975v112.792c0 7.498-7.076 12.98-14.336 11.106l-52.484-13.548-10.366-64.426 10.366-57.613 55.397.22c6.316.025 11.423 5.152 11.423 11.469z" fill="#ffa78f"></path><path d="M445.179 314.285v122.039l-28.965-5.693V314.285z" fill="#678d98"></path><path d="M92.479 296.505c-.762 4.203-4.79 6.974-8.983 6.222-10.58-1.926-26.012-7.582-41.578-14.907 4.481-3.812 9.467-7.139 14.804-9.952h.01c10.508 4.564 20.944 8.087 29.535 9.653 4.193.763 6.975 4.791 6.212 8.984z" fill="#ffcebf"></path><path d="M332.394 182.333a7.731 7.731 0 0 1-7.417-5.574c-.076-.245-1.928-5.969-6.434-7.375a7.726 7.726 0 0 1-5.073-9.677c1.272-4.072 5.603-6.348 9.677-5.073 12.432 3.88 16.291 16.462 16.689 17.884a7.725 7.725 0 0 1-7.442 9.815zM349.077 369.101a7.737 7.737 0 0 1-7.613 6.48c-.422 0-.845-.041-1.267-.103l-57.793-9.509a89.358 89.358 0 0 1-25.548-8.293l-9.735-4.883 16.164-9.436h.01c6.676 3.348 14.268 6.15 21.613 7.366l57.803 9.498c4.202.701 7.056 4.667 6.366 8.88z" fill="#678d98"></path><path d="M193.994 151.86c-.134 0-.269-.003-.405-.01l-15.96-.824a7.726 7.726 0 0 1-7.318-8.115c.22-4.261 3.861-7.535 8.115-7.318l15.96.824a7.726 7.726 0 0 1-.392 15.443zM252.669 93.173a7.727 7.727 0 0 1-7.71-7.328l-.824-15.961a7.727 7.727 0 0 1 7.318-8.115c4.245-.234 7.894 3.056 8.114 7.318l.825 15.961a7.727 7.727 0 0 1-7.723 8.125z" fill="#dcf5f8"></path><path d="M219.135 118.32a7.704 7.704 0 0 1-5.463-2.263L198.415 100.8a7.727 7.727 0 1 1 10.927-10.928l15.257 15.257a7.725 7.725 0 0 1 0 10.927 7.703 7.703 0 0 1-5.464 2.264z" fill="#c7f1f2"></path></g></svg>