<svg viewBox="0 0 50 50" xmlns="http://www.w3.org/2000/svg"><g><path d="M45.009 46.79h-33.64V3.21h33.64z" fill="#f4f4f4"></path><path d="M45.009 46.79h-33.64V3.21h33.64z" fill="#f4f4f4"></path><path d="M45.009 46.79h-33.64V3.21h33.64z" fill="#f4f4f4"></path><path d="M8.18 6.39h3.19v37.22H8.18z" fill="#e5e5e5"></path><path d="M4.99 9.04h3.19v31.91H4.99z" fill="#cccaca"></path><ellipse cx="28.03" cy="25" fill="#fa4968" rx="7.22" ry="7.24"></ellipse><path d="m34.95 17.76 2.06 2.05-9.07 9.07-4.3-4.29 2.05-2.05 2.25 2.24z" fill="#ffffff"></path><path d="M15.35 7.07h4.2v4.2h-4.2z" fill="#ffb95c"></path><path d="m16.56 9.35.46.47 1.32-1.31" fill="#ffffff"></path><path d="M17.02 10.32a.47.47 0 0 1-.35-.15l-.47-.46c-.2-.2-.2-.51 0-.71s.51-.2.71 0l.11.11.96-.96c.2-.2.51-.2.71 0s.2.51 0 .71l-1.31 1.31c-.1.1-.23.15-.36.15z" fill="#616b77"></path><path d="M21.57 6.97h5.1v1h-5.1zM21.57 8.67h5.1v1h-5.1zM21.57 10.36h1.54v1h-1.54z" fill="#cccaca"></path><path d="M29.7 7.07h4.2v4.2h-4.2z" fill="#6cd8d5"></path><path d="m30.91 9.35.47.47 1.31-1.31" fill="#ffffff"></path><path d="M31.38 10.32a.47.47 0 0 1-.35-.15l-.47-.47c-.2-.2-.2-.51 0-.71s.51-.2.71 0l.11.11.96-.96c.2-.2.51-.2.71 0s.2.51 0 .71l-1.31 1.31a.48.48 0 0 1-.36.16z" fill="#616b77"></path><path d="M35.92 6.97h5.1v1h-5.1zM35.92 8.67h5.1v1h-5.1zM35.92 10.36h1.54v1h-1.54z" fill="#cccaca"></path><path d="M15.35 38.08h4.2v4.2h-4.2z" fill="#559aff"></path><path d="m16.56 40.37.46.47 1.32-1.31" fill="#ffffff"></path><path d="M17.02 41.34a.47.47 0 0 1-.35-.15l-.47-.47c-.2-.2-.2-.51 0-.71s.51-.2.71 0l.11.11.96-.96c.2-.2.51-.2.71 0s.2.51 0 .71l-1.31 1.31a.48.48 0 0 1-.36.16z" fill="#616b77"></path><path d="M21.57 37.99h5.1v1h-5.1zM21.57 39.68h5.1v1h-5.1zM21.57 41.38h1.54v1h-1.54z" fill="#cccaca"></path><path d="M29.7 38.08h4.2v4.2h-4.2z" fill="#abb734"></path><path d="m30.91 40.37.47.47 1.31-1.31" fill="#ffffff"></path><path d="M31.38 41.34a.47.47 0 0 1-.35-.15l-.47-.47c-.2-.2-.2-.51 0-.71s.51-.2.71 0l.11.11.96-.96c.2-.2.51-.2.71 0s.2.51 0 .71l-1.31 1.31a.48.48 0 0 1-.36.16z" fill="#616b77"></path><path d="M35.92 37.99h5.1v1h-5.1zM35.92 39.68h5.1v1h-5.1zM35.92 41.38h1.54v1h-1.54z" fill="#cccaca"></path></g></svg>