<svg viewBox="0 0 512 512" xmlns="http://www.w3.org/2000/svg"><g><path d="M90 327.2h296.2v39.7H90z" fill="#5b5b5b"></path><path d="M82.4 174.5v19H42.3c-17.1-.2-30.9-9.4-30.9-20.6 0-11.4 14.1-20.6 31.6-20.6 5.9 0 11.3 1 16 2.9 1.5.6 2.5 2.1 2.5 3.7v12c0 2.1 1.7 3.7 3.7 3.7zM498 205c-4.8 9.3-19.3 11.4-33.6 5.5-1-.4-2.2-.9-3.3-1.5l-35.6-18.5 8.7-16.8 15.2 7.9c1.9 1 4.1.3 5.1-1.5l5.5-10.6c.8-1.5 2.4-2.3 4-2.1 5 .5 10.3 2.1 15.5 4.8 1.1.6 2.2 1.1 3.1 1.7 13.5 8.4 20.3 21.8 15.4 31.1z" fill="#ea4e4e"></path><path d="M84.3 314.2v92.7c0 8.7-7 15.7-15.7 15.7H18.5c-8.7 0-15.7-7-15.7-15.7v-92.7zM406.7 328.2l26.6 88.8c2.5 8.3 11.2 13 19.5 10.5l48-14.4c8.3-2.5 13-11.2 10.5-19.5l-26.6-88.8z" fill="#5b5b5b"></path><path d="M504.9 274.1V336c0 29.2-23.5 52.9-52.7 53.3L149 433.7l31.2-18.7c15.3-9.2 32.1-15.5 49.6-18.8l156.4-29.3v-39.7c-104.6-30.3-167.5 41.1-296.2 0v62H52.5c-29-.3-52.5-24-52.5-53.2v-61.8c0-38.7 26.3-71.3 62.2-80.8l26.7-79.5c9.2-20 28.8-33.1 50.7-33.8 75.2-2.5 150.5-2.5 225.7 0 21.9.7 41.6 13.8 50.6 33.8l26.7 79.5c15.1 4 28.6 12 39 22.9 14.5 15 23.3 35.4 23.3 57.8z" fill="#f96464"></path><path d="M504.9 274.1V336c0 29.2-23.5 52.9-52.7 53.3L149 433.8l15.4-9.3 240.3-35.2c29.2-.3 52.7-24.1 52.7-53.3v-61.9c0-22.4-8.9-42.8-23.3-57.8-10.5-10.8-23.9-18.9-39-22.9l-26.7-79.5c-9.1-20-28.7-33.1-50.7-33.8h47.6c21.9.8 41.6 13.8 50.7 33.8l26.6 79.5c15.1 4 28.6 12 39.1 22.9 14.3 15.1 23.2 35.4 23.2 57.8z" fill="#000000" opacity=".08"></path><path d="M127.6 287.9c-21.9 19.3-54.4 24.5-95.3 18.4-3.3-.5-5.6-3.3-5.6-6.6v-30.3c0-3.8 3.2-6.9 7.1-6.7 35.3 2.1 68.2 5.5 91.7 13.8 4.8 1.7 6 8 2.1 11.4z" fill="#ffffff"></path><path d="M71.3 285.7c0 9.2-7.4 16.6-16.6 16.6s-16.6-7.4-16.6-16.6 7.4-16.6 16.6-16.6c9.2.1 16.6 7.5 16.6 16.6z" fill="#f2f0f0"></path><path d="M379.6 301.1c26.3 12.7 59 8.9 96.7-8 3-1.4 4.5-4.7 3.7-7.9l-8.2-29.2c-1-3.7-5-5.8-8.6-4.5-33.4 11.5-64.2 23.7-84.6 38-4.2 3-3.6 9.4 1 11.6z" fill="#5b5b5b"></path><path d="M425.6 190.6c-.3-.1-.5-.1-.8-.1-119.1-4.9-225.6-4.9-344.7 0-.2 0-.5 0-.7.1l23.9-71c6.9-14.4 20.9-23.6 36.9-24.2 66.5-2.3 145.1-2.5 224.7 0 7.6.3 14.8 2.6 20.9 6.3 6.9 4.2 12.5 10.3 16.1 17.9z" fill="#66d5f2"></path><path d="M225.9 110.6c-.3.6-23.4 50.9-21.9 47.7l9.7-40.8c-.5-.1-32.8-3.8-30.7-3.6.3-.5 10.5-21 9.9-19.7 7.1-.2 14.2-.3 21.3-.3l-8.1 10.3c.6.2 21.1 6.8 19.8 6.4zM308.7 145.7c3.6 4.1 6.8 8.7 9.1 14-5.2-2.5-9.8-5.7-13.9-9.1-.5 5.4-1.4 10.9-3.5 16.2-2-5.4-3.1-10.9-3.6-16.2-4.1 3.5-8.7 6.6-13.9 9.1 2.4-5.4 5.5-9.9 9.1-14-5.5-.5-10.9-1.4-16.4-3.5 5.5-2 10.9-3.1 16.4-3.5-3.6-4.1-6.8-8.7-9.1-14 5.2 2.4 9.9 5.7 14 9.3.3-5.5 1.4-11 3.5-16.5 2 5.5 3 10.9 3.5 16.4 4.1-3.6 8.7-6.8 13.9-9.1-2.4 5.4-5.5 9.9-9.1 14 5.5.3 10.9 1.4 16.4 3.5-5.5 2-10.8 2.9-16.4 3.4zM169.5 148.1c4.7 5.3 8.8 11.2 11.8 18.1-6.7-3.3-12.6-7.3-17.9-11.8-.6 6.9-1.8 14.1-4.5 21-2.7-6.9-4.1-14.1-4.7-21-5.3 4.5-11.2 8.6-17.9 11.8 3.1-6.9 7.1-12.8 11.8-18.1-7.1-.6-14.1-1.8-21.2-4.5 7.1-2.7 14.1-4.1 21.2-4.5-4.7-5.3-8.8-11.2-11.8-18.1 6.7 3.1 12.8 7.3 18.1 12 .4-7.1 1.8-14.3 4.5-21.4 2.7 7.1 3.9 14.1 4.5 21.2 5.3-4.7 11.2-8.8 17.9-11.8-3.1 6.9-7.1 12.8-11.8 18.1 7.1.4 14.1 1.8 21.2 4.5-7.2 2.7-14.1 3.9-21.2 4.5z" fill="#4ec5d8"></path><path d="M165.3 279c-2.9-.7-4.7-3.7-3.9-6.6 1.9-7.6-4.2-15.4-10.7-19.5-15.5-9.7-46-10.8-51.3-36.2-.6-2.9 1.3-5.8 4.2-6.4s5.8 1.3 6.4 4.2c3.7 17.7 30.8 19.4 46.4 29.2 10.1 6.3 18.7 18.5 15.5 31.4-.7 2.9-3.7 4.7-6.6 3.9zM258.6 250.1c-2.5 0-4.7-1.7-5.3-4.2-5.3-22 14.9-51.6 62.2-43.7 23.3 3.8 52.3 16.6 74.1 4 2.6-1.5 5.9-.6 7.4 2s.6 5.9-2 7.4c-26.2 15.1-58.3 1.1-81.4-2.7-37.1-6.1-53.7 14.4-49.8 30.4.7 2.9-1.1 5.9-4 6.6-.4.2-.8.2-1.2.2z" fill="#ea4e4e"></path><path d="M196.2 251.2c8.4 6.9 11.7 21 5.3 33-11.7 20.1.2 27.1 2.6 38.1 2.4 9.7-.9 20.3-7.9 26 7.1-19-5-30.4-6.8-33.7-10.6-19.2 3.6-33.5 6.6-39.9 3-6.9 3.4-15.2.2-23.5zM238.1 251.2c7 5.7 10.3 16.2 7.9 25.9-2.6 11.5-14.2 18.1-2.6 38.1 6.4 12 3.2 26.1-5.3 33 9.5-25.4-10.5-26.7-10.6-48.5.1-13.7 7.3-18.5 10.4-25.1 3-6.8 3.3-15.1.2-23.4zM279.9 251.2c8.4 6.9 11.7 21 5.3 33-11.6 20 0 26.4 2.6 38.1 2.4 9.7-.9 20.3-7.9 26 11.7-31.2-27.4-36.8-2.9-68.9 5.9-9.2 6.5-18.7 2.9-28.2z" fill="#f2f0f0"></path><path d="m57.1 225.6-15 16.2c-3.1 3.4-8.3 3.6-11.7.5-3.4-3.1-3.6-8.3-.5-11.7l15-16.2c3.1-3.4 8.3-3.6 11.7-.5 3.4 3.1 3.6 8.3.5 11.7z" fill="#ffffff" opacity=".4"></path></g></svg>