<svg viewBox="0 0 512 512" xmlns="http://www.w3.org/2000/svg"><g><path d="M512 256c0 100.1-57.46 186.79-141.19 228.86C336.28 502.23 297.28 512 256 512c-22.53 0-44.38-2.91-65.19-8.39a253.5 253.5 0 0 1-49.62-18.75C57.46 442.79 0 356.1 0 256 0 114.62 114.62 0 256 0s256 114.62 256 256z" fill="#fea3ce"></path><path d="M370.81 484.86C336.28 502.23 297.28 512 256 512s-80.28-9.77-114.81-27.14c17.65-46.21 62.4-79.03 114.81-79.03s97.16 32.82 114.81 79.03z" fill="#ffc344"></path><path d="M283.55 408.93c-46.55 10.67-83.02 47.78-92.74 94.68a253.5 253.5 0 0 1-49.62-18.75c17.65-46.21 62.39-79.03 114.81-79.03 9.47 0 18.69 1.07 27.55 3.1z" fill="#f6ab31"></path><path d="M103.674 270.051v-81.797c0-84.124 68.187-152.326 152.326-152.326 84.124 0 152.326 68.202 152.326 152.326v81.797z" fill="#4d6177"></path><path d="M296.482 41.373c-64.479 17.729-111.843 76.763-111.843 146.881v81.788h-80.965v-81.788c0-84.134 68.192-152.326 152.325-152.326 14.016.001 27.598 1.899 40.483 5.445z" fill="#3b4e60"></path><path d="M390.756 336.906H121.239c-20.595 0-37.291-16.696-37.291-37.291 0-20.595 16.696-37.291 37.291-37.291h269.517c20.595 0 37.291 16.696 37.291 37.291 0 20.595-16.696 37.291-37.291 37.291z" fill="#f4aeae"></path><path d="M391.634 262.317v41.337c0 74.905-60.729 135.634-135.634 135.634-74.919 0-135.634-60.729-135.634-135.634v-41.337a84.68 84.68 0 0 0 25.595-30.056 84.836 84.836 0 0 0 9.195-38.4v-3.788c0-17.718 11.789-31.647 26.899-36.272a37.308 37.308 0 0 1 18.28-.92 38.39 38.39 0 0 1 7.562 2.347c.11.055.234.096.343.151a118.547 118.547 0 0 0 17.937 6.203 118.548 118.548 0 0 0 29.822 3.802c10.019 0 20.037-1.263 29.822-3.802a118.51 118.51 0 0 0 17.937-6.203c.11-.055.233-.096.343-.151a38.333 38.333 0 0 1 7.548-2.347c2.457-.494 4.9-.727 7.315-.727 3.76 0 7.452.576 10.965 1.647 15.11 4.625 26.899 18.555 26.899 36.272v3.788a84.74 84.74 0 0 0 34.806 68.456z" fill="#ffd2d2"></path><path d="M282.556 436.68A135.55 135.55 0 0 1 256 439.287h-.014c-74.892 0-135.62-60.729-135.62-135.634v-41.337a84.68 84.68 0 0 0 25.595-30.056 84.836 84.836 0 0 0 9.195-38.4v-3.788c0-17.718 11.789-31.647 26.899-36.272a36.984 36.984 0 0 1 13.147-1.578c-13.751 21.204-21.739 46.511-21.739 73.67v77.76c.001 65.821 46.896 120.704 109.093 133.028z" fill="#ffc0c0"></path><path d="M268.549 303.447h-25.103c-6.545 0-11.85 5.306-11.85 11.85 0 6.545 5.306 11.85 11.85 11.85h25.103c6.545 0 11.85-5.306 11.85-11.85 0-6.545-5.305-11.85-11.85-11.85z" fill="#ffc0c0"></path><path d="M312.5 347.88c-2.27 11.09-7.72 21.02-15.36 28.8-10.47 10.66-25.04.02-41.16.02-16.1 0-30.66 10.66-41.12.02-7.59-7.71-13.02-17.53-15.33-28.51-.83-3.91.73-7.68 3.59-9.89 1.64-1.29 6.96 4.054 9.25 4.054l84.77-.404c2.28 0 10.08-4.94 11.74-3.65 2.81 2.16 4.39 5.78 3.62 9.56z" fill="#3b4e60"></path><path d="M297.14 376.68c-10.47 10.66-25.04 17.27-41.16 17.27-16.1 0-30.66-6.59-41.12-17.23 10.47-10.66 25.04-17.27 41.16-17.27 16.1 0 30.66 6.59 41.12 17.23z" fill="#fea3ce"></path><path d="M236.634 245.641v34.173c0 18.881-15.321 34.202-34.202 34.202-18.895 0-34.202-15.321-34.202-34.202v-34.173c0-18.881 15.307-34.202 34.202-34.202 9.448 0 17.987 3.823 24.183 10.019 6.181 6.196 10.019 14.75 10.019 24.183z" fill="#eaf1f4"></path><path d="M211.15 312.889a34.063 34.063 0 0 1-8.721 1.118c-18.896 0-34.199-15.318-34.199-34.199v-34.167c0-18.88 15.302-34.199 34.199-34.199 3.003 0 5.926.383 8.721 1.118-14.679 3.866-25.493 17.219-25.493 33.081v34.167c-.001 15.861 10.813 29.215 25.493 33.081z" fill="#dae4e8"></path><path d="M210.397 297.042c-9.941 0-17.999-8.059-17.999-17.999v-17.984c0-9.941 8.059-17.999 17.999-17.999 9.941 0 17.999 8.059 17.999 17.999v17.984c0 9.941-8.058 17.999-17.999 17.999z" fill="#3b4e60"></path><path d="M340.105 245.641v34.173c0 18.881-15.307 34.202-34.202 34.202-18.881 0-34.188-15.321-34.188-34.202v-34.173c0-9.433 3.823-17.987 10.019-24.183a34.012 34.012 0 0 1 24.169-10.019c18.895 0 34.202 15.321 34.202 34.202z" fill="#eaf1f4"></path><path d="M314.635 312.889a34.063 34.063 0 0 1-8.721 1.118c-18.896 0-34.199-15.318-34.199-34.199v-34.167c0-18.88 15.302-34.199 34.199-34.199 3.003 0 5.926.383 8.721 1.118-14.679 3.866-25.493 17.219-25.493 33.081v34.167c0 15.861 10.814 29.215 25.493 33.081z" fill="#dae4e8"></path><path d="M297.941 297.042c9.941 0 17.999-8.059 17.999-17.999v-17.984c0-9.941-8.059-17.999-17.999-17.999-9.941 0-17.999 8.059-17.999 17.999v17.984c0 9.941 8.058 17.999 17.999 17.999z" fill="#3b4e60"></path><path d="M308.88 338.32c-1.609 3.719-3.217 7.442-4.829 11.166-1.405 3.247-5.103 4.874-8.422 3.648a114.488 114.488 0 0 0-79.254-.001c-3.321 1.225-7.018-.403-8.422-3.653a6689.416 6689.416 0 0 0-4.833-11.16 9.637 9.637 0 0 1 6-2.06h93.73c2.28 0 4.37.77 6.03 2.06z" fill="#eaf1f4"></path><circle cx="423.416" cy="88.584" fill="#bbec6c" r="88.584"></circle><path d="M436.062 176.274c-4.13.59-8.35.9-12.64.9-48.93 0-88.59-39.66-88.59-88.59 0-48.92 39.66-88.58 88.59-88.58 4.29 0 8.51.31 12.64.9-42.94 6.13-75.95 43.05-75.95 87.68 0 44.64 33.01 81.56 75.95 87.69z" fill="#a2e62e"></path><path d="M419.985 147.793a15 15 0 0 1-12.124-6.17l-29.155-40.031c-4.877-6.697-3.403-16.08 3.294-20.958 6.699-4.879 16.081-3.401 20.958 3.294l15.175 20.836 34.497-63.542c3.953-7.281 13.058-9.981 20.342-6.027 7.281 3.953 9.979 13.06 6.026 20.342l-45.827 84.412a15 15 0 0 1-13.186 7.844z" fill="#eaf1f4"></path></g></svg>