<svg viewBox="0 0 64 64" xmlns="http://www.w3.org/2000/svg"><g><path d="m39.538 35.442-5.657 7.825 7.93 2.584L28.536 61l2.138-10.158-6.92-3.208 1.927-13.711z" fill="#ffcb29"></path><path d="m34.91 41.844 4.628-6.402-13.858-1.52-1.017 7.236z" fill="#fcb316"></path><path d="M50.377 14.421C49.87 8.051 42.915 3 34.387 3c-6.718 0-12.464 3.134-14.852 7.577C11.066 8.912 2.907 15.697 3 24.337c0 7.732 6.268 14 14 14h32c6.628 0 12-5.373 12-12 0-6.162-4.645-11.232-10.623-11.916z" fill="#78909c"></path><path d="M8 29.337c-.093-8.64 8.066-15.425 16.535-13.76C26.924 11.134 32.67 8 39.387 8c3.698 0 7.097.952 9.806 2.547C46.798 6.123 41.086 3 34.387 3c-6.718 0-12.463 3.134-14.852 7.577C11.066 8.912 2.907 15.697 3 24.337c0 5.15 2.79 9.638 6.93 12.07A13.915 13.915 0 0 1 8 29.336z" fill="#546f7a"></path><g fill="#455b64"><path d="M22.46 14.87a.985.985 0 0 1-.89 1.09c-.04.01-.07.01-.1.01-.51 0-.95-.39-1-.9-.19-1.97-1.25-3.52-2.54-4.7.53.03 1.07.1 1.61.21.16-.31.34-.61.54-.9 1.23 1.35 2.17 3.06 2.38 5.19zM51.81 14.67c-1.41.8-2.9 2.17-3.51 4.45a1.002 1.002 0 0 1-1.22.71c-.53-.15-.85-.69-.71-1.23.7-2.6 2.27-4.26 3.85-5.29.08.37.13.74.16 1.11.49.06.97.14 1.43.25z" fill="#455b64"></path></g><g fill="#57a0d7"><path d="M56.295 48.418a3 3 0 0 1-6 0c0-1.657 1.343-6.06 3-6.06s3 4.403 3 6.06zM13.313 48.418a3 3 0 0 1-6 0c0-1.657 1.343-6.06 3-6.06s3 4.403 3 6.06zM46.715 58a3 3 0 0 1-6 0c0-1.657 1.343-6.06 3-6.06s3 4.403 3 6.06z" fill="#57a0d7"></path></g></g></svg>