<svg id="Capa_1" enable-background="new 0 0 512 512" height="512" viewBox="0 0 512 512" width="512" xmlns="http://www.w3.org/2000/svg"><g><g><g><path d="m368.978 252.507h16.218c5.69 0 10.302 4.612 10.302 10.302v239.016c0 5.62 4.556 10.176 10.176 10.176h50.298c5.62 0 10.176-4.556 10.176-10.176v-239.017c0-5.69 4.612-10.302 10.302-10.302h16.218c9.268 0 14.255-10.885 8.201-17.904l-61.845-71.702c-4.32-5.009-12.082-5.009-16.402 0l-61.845 71.702c-6.053 7.019-1.067 17.905 8.201 17.905z" fill="#1c96f9"/><path d="m460.489 252.509h-15.693c-5.978 0-10.83 4.841-10.83 10.83v248.661h22.011c5.62 0 10.176-4.556 10.176-10.176v-239.013c0-5.69 4.612-10.302 10.302-10.302h16.21c9.27 0 14.263-10.884 8.209-17.902l-61.851-71.706c-4.321-5.004-12.076-5.004-16.397 0l-7.895 9.151 53.956 62.555c6.054 7.018 1.061 17.902-8.198 17.902z" fill="#1785f8"/></g><g><path d="m19.328 190.696h16.218c5.69 0 10.302 4.612 10.302 10.302v300.826c0 5.62 4.556 10.176 10.176 10.176h50.298c5.62 0 10.176-4.556 10.176-10.176v-300.826c0-5.69 4.612-10.302 10.302-10.302h16.218c9.268 0 14.255-10.885 8.201-17.904l-61.845-71.702c-4.32-5.009-12.082-5.009-16.402 0l-61.845 71.702c-6.054 7.019-1.068 17.904 8.201 17.904z" fill="#1c96f9"/><path d="m110.838 190.698h-15.693c-5.978 0-10.83 4.841-10.83 10.83v310.472h22.011c5.62 0 10.176-4.556 10.176-10.176v-300.824c0-5.69 4.612-10.302 10.302-10.302h16.21c9.27 0 14.263-10.884 8.209-17.902l-61.85-71.706c-4.321-5.004-12.076-5.004-16.397 0l-7.895 9.151 53.956 62.555c6.054 7.018 1.061 17.902-8.199 17.902z" fill="#1785f8"/></g></g><g><g><g><path d="m318.233 273.043v130.499h84.346c6.799 0 12.31-5.511 12.31-12.31v-44.607c0-4.033-1.975-7.809-5.287-10.11z" fill="#fc6d5a"/><path d="m414.887 346.62v44.614c0 6.795-5.515 12.31-12.31 12.31h-28.707c2.991-2.241 4.924-5.823 4.924-9.848v-32.304c0-4.025-1.97-7.805-5.281-10.107l-55.285-38.408v-39.836l91.378 63.471c3.311 2.303 5.281 6.082 5.281 10.108z" fill="#fb5652"/></g><g><path d="m193.767 273.043v130.499h-84.346c-6.799 0-12.31-5.511-12.31-12.31v-44.607c0-4.033 1.975-7.809 5.287-10.11z" fill="#fc6d5a"/><path d="m143.926 307.666v95.876h49.841v-130.499z" fill="#fb5652"/></g></g><g><path d="m310.643 512h-109.286c-7.423 0-12.878-6.964-11.101-14.171l19.373-78.571h92.742l19.373 78.571c1.777 7.207-3.678 14.171-11.101 14.171z" fill="#fb9927"/><path d="m310.618 452.704-8.247-33.446h-92.742l-8.247 33.446z" fill="#f98824"/><path d="m310.642 512h-30.883c7.421 0 12.874-6.963 11.102-14.166l-19.38-78.573h30.894l19.369 78.573c1.773 7.203-3.681 14.166-11.102 14.166z" fill="#f98824"/><g><path d="m248.871 419.253-7.324 92.747h-15.505l7.335-92.747z" fill="#ef7a22"/></g><g><path d="m285.958 512h-15.505l-7.324-92.747h15.494z" fill="#ef7a22"/></g><path d="m180.195 136.31c0-54.654 27.058-103.228 69-134.079 4.039-2.971 9.544-2.973 13.585-.004 41.966 30.831 69.025 79.429 69.025 134.083v10.302h-151.61z" fill="#fc6d5a"/><path d="m331.806 136.314v10.302h-39.104v-10.302c0-48.891-21.644-92.934-56.254-123.748 4.066-3.633 8.32-7.079 12.736-10.329 4.044-2.975 9.553-2.987 13.599-.014 41.965 30.832 69.023 79.43 69.023 134.091z" fill="#fb5652"/><path d="m180.195 136.31v283.208c0 6.315 5.119 11.434 11.434 11.434h128.742c6.315 0 11.434-5.119 11.434-11.434v-283.208z" fill="#f8f3f1"/><path d="m331.806 136.314v283.204c0 6.315-5.119 11.434-11.434 11.434h-27.67v-294.638z" fill="#efe2dd"/></g><circle cx="256" cy="212.632" fill="#a8e7ef" r="37.783"/><path d="m293.777 212.628c0 20.867-16.911 37.789-37.777 37.789-4.848 0-9.479-.915-13.732-2.573 15.904-3.819 27.727-18.134 27.727-35.216 0-17.071-11.823-31.386-27.727-35.204 4.253-1.658 8.884-2.573 13.732-2.573 20.867 0 37.777 16.911 37.777 37.777z" fill="#70d9e6"/><g><path d="m270.209 396.892h-28.419c-4.267 0-7.726-3.459-7.726-7.726s3.459-7.726 7.726-7.726h28.419c4.267 0 7.726 3.459 7.726 7.726s-3.459 7.726-7.726 7.726z" fill="#efe2dd"/></g></g></g></svg>