<svg viewBox="0 0 511.183 511.183" xmlns="http://www.w3.org/2000/svg"><g><path d="M206.71 146.865 122.63 10.692c-3.212-5.203-8.267-8.803-14.234-10.139C102.428-.783 96.32.32 91.198 3.658c-5.123 3.337-8.601 8.478-9.792 14.476-1.191 5.997.059 12.076 3.519 17.117l88.407 128.804a7.494 7.494 0 0 0 10.229 2.071c3.375-2.161 7.697-2.577 11.41-1.12a7.499 7.499 0 0 0 10.154-5.843 12.466 12.466 0 0 1 1.642-4.513 7.497 7.497 0 0 0-.057-7.785zM151.411 191.252 42.434 68.485c-4.059-4.573-9.658-7.251-15.765-7.541-6.111-.286-11.935 1.848-16.409 6.016-4.473 4.168-7.015 9.831-7.156 15.944-.142 6.112 2.135 11.886 6.41 16.257L112.683 204.64a7.498 7.498 0 0 0 11.144-.467 12.6 12.6 0 0 1 9.739-4.605c2.788 0 5.441.904 7.672 2.616a7.499 7.499 0 0 0 10.054-.841 7.503 7.503 0 0 0 .119-10.091z" fill="#6e563d"></path><path d="M476.408 216.684c-1.688-11.382-10.341-20.526-21.472-22.944-3.861-10.757-14.162-18.295-26.017-18.295-1.686 0-3.365.155-5.014.46-4.248-8.514-12.748-14.472-22.521-15.266-3.247-11.656-13.958-20.234-26.636-20.234-4.348 0-8.528.991-12.296 2.868-5.167-6.084-12.857-9.809-21.104-9.809-2.411 0-4.784.309-7.072.913-4.72-8.719-13.985-14.574-24.341-14.574-8.463 0-16.31 3.938-21.463 10.259-4.14-2.402-8.885-3.698-13.848-3.698a27.598 27.598 0 0 0-13.398 3.464 27.598 27.598 0 0 0-13.398-3.464c-7.899 0-15.196 3.289-20.343 8.906a27.525 27.525 0 0 0-9.863-1.807c-10.992 0-20.542 6.299-24.994 15.762a27.664 27.664 0 0 0-2.271-.092 27.597 27.597 0 0 0-25.754 17.567c-11.398.67-20.961 8.278-24.517 18.651a27.63 27.63 0 0 0-29.168 11.001 27.634 27.634 0 0 0-6.448-.764c-13.761 0-25.205 10.106-27.3 23.287-13.351 1.947-23.635 13.472-23.635 27.354 0 2.733.407 5.451 1.209 8.078a7.5 7.5 0 0 0 7.173 5.31h425.444a7.5 7.5 0 0 0 6.755-4.242 27.402 27.402 0 0 0 2.734-11.997c.001-12.754-8.679-23.518-20.442-26.694z" fill="#fff5cf"></path><path d="M476.408 216.684c-1.688-11.382-10.341-20.526-21.472-22.944-3.861-10.757-14.162-18.295-26.017-18.295-1.686 0-3.365.155-5.014.46-4.248-8.514-12.748-14.472-22.521-15.266-3.247-11.656-13.958-20.234-26.636-20.234-4.348 0-8.528.991-12.296 2.868-5.167-6.084-12.857-9.809-21.104-9.809-2.411 0-4.784.309-7.072.913-4.72-8.719-13.985-14.574-24.341-14.574-8.463 0-16.31 3.938-21.463 10.259-4.14-2.402-8.885-3.698-13.848-3.698-.929 0-1.852.06-2.768.152 3.701 2.817 6.812 6.392 9.049 10.525a32.762 32.762 0 0 1 8.365-1.081c9.754 0 18.85 4.406 24.961 11.601 4.457-2.22 9.401-3.392 14.544-3.392 14.994 0 27.664 10.146 31.504 23.932 11.559.94 21.612 7.986 26.637 18.057a32.693 32.693 0 0 1 5.931-.544c14.022 0 26.205 8.915 30.772 21.639 13.165 2.86 23.4 13.675 25.396 27.138 11.91 3.215 21.141 13.009 23.554 25.224h14.791a7.5 7.5 0 0 0 6.755-4.242 27.402 27.402 0 0 0 2.734-11.997c.002-12.752-8.678-23.516-20.441-26.692z" fill="#ffeca1"></path><path d="M369.745 447.963H183.654a7.5 7.5 0 0 0-7.5 7.5v33.22c0 12.407 10.094 22.5 22.5 22.5h156.091c12.406 0 22.5-10.093 22.5-22.5v-33.22a7.5 7.5 0 0 0-7.5-7.5z" fill="#b32425"></path><path d="M369.745 447.963h-34.837a7.5 7.5 0 0 1 7.5 7.5v33.22c0 12.407-10.094 22.5-22.5 22.5h34.837c12.406 0 22.5-10.093 22.5-22.5v-33.22a7.5 7.5 0 0 0-7.5-7.5z" fill="#9e1219"></path><path d="M500.586 244.3H52.813a7.5 7.5 0 0 0-7.5 7.5c0 45.194 13.035 88.981 37.696 126.624 23.142 35.324 55.28 63.528 93.152 81.819h201.076c37.872-18.291 70.009-46.494 93.152-81.819 24.661-37.644 37.696-81.43 37.696-126.624a7.499 7.499 0 0 0-7.499-7.5z" fill="#f2433b"></path><path d="M500.586 244.3h-34.837a7.5 7.5 0 0 1 7.5 7.5c0 45.194-13.035 88.981-37.696 126.624-23.142 35.324-55.28 63.528-93.152 81.819h34.837c37.872-18.291 70.009-46.494 93.152-81.819 24.661-37.644 37.696-81.43 37.696-126.624a7.5 7.5 0 0 0-7.5-7.5z" fill="#d72e2e"></path><path d="M500.586 244.3H52.813a7.5 7.5 0 0 0-7.5 7.5c0 23.631 3.571 46.875 10.497 69.059h441.778c6.926-22.184 10.497-45.428 10.497-69.059a7.499 7.499 0 0 0-7.499-7.5z" fill="#ffa035"></path><path d="M500.586 244.3h-34.837a7.5 7.5 0 0 1 7.5 7.5c0 23.631-3.571 46.875-10.497 69.059h34.837c6.926-22.184 10.497-45.428 10.497-69.059a7.5 7.5 0 0 0-7.5-7.5z" fill="#f78819"></path></g></svg>