<svg viewBox="0 0 421.141 421.141" xmlns="http://www.w3.org/2000/svg"><g><path d="M121.521 176.024c-9.864-2.468-16.326 2.805-16.326 13.161 0 13.709 13.265 47.296 27.21 26.321s-10.884-39.482-10.884-39.482zM297.944 176.024c10.767-2.468 17.821 2.805 17.821 13.161 0 13.709-14.479 47.296-29.701 26.321s11.88-39.482 11.88-39.482z" fill="#ffe1b2"></path><path d="M138.277 294.307c14.716-9.475 13.07-37.675 13.07-44.255h118.446c0 6.58-1.825 34.78 12.89 44.255l-72.113 80.771-72.293-80.771z" fill="#ffd7a3"></path><path d="m256.632 322.436 26.051-28.129c-14.716-9.474-12.89-37.675-12.89-44.255H151.347c8.498 24.433 64.707 66.352 105.285 72.384z" fill="#fdc88e"></path><path d="M302.695 164.508c0 52.696-30.343 118.446-92.124 118.446s-92.124-65.75-92.124-118.446 41.246-72.384 92.124-72.384 92.124 19.688 92.124 72.384z" fill="#ffe1b2"></path><path d="M300.536 145.31c-5.308-6.759-11.001-13.704-11.001-13.704v6.58c1.645 59.634-19.741 85.544-19.741 85.544l-27.249 3.027a289.559 289.559 0 0 1-63.948 0l-27.249-3.027s-21.386-25.91-19.741-85.544v-6.58s-5.694 6.944-11.001 13.704c-1.383 5.869-2.159 12.25-2.159 19.254 0 52.696 30.343 128.671 92.124 128.671s92.124-75.975 92.124-128.671c0-7.004-.776-13.385-2.159-19.254zm-109.707 94.049h39.482c5.413 0 10.054 3.273 12.075 7.944-7.29 3.172-18.479 5.216-31.09 5.216-13.316 0-25.02-2.284-32.245-5.765 2.143-4.364 6.588-7.395 11.778-7.395z" fill="#a7795e"></path><path d="M138.187 147.146c-2.742 7.887-6.58 43.683-6.58 43.683l-13.161-7.281-3.701-48.234 23.442 11.832zM282.954 147.146c2.742 7.887 6.58 43.683 6.58 43.683l13.161-7.281 3.701-48.234-23.442 11.832z" fill="#543d38"></path><path d="M361.918 421.141c10.903 0 19.741-8.838 19.741-19.741v-30.562c0-28.954-22.562-59.864-50.138-68.687l-41.168-13.173c-22.149 16.936-53.802 40.039-79.782 40.039s-57.633-23.103-79.782-40.039L89.62 302.151c-27.576 8.823-50.138 39.733-50.138 68.687V401.4c0 10.903 8.838 19.741 19.741 19.741h302.695z" fill="#e4ebf0"></path><path d="M223.731 348.757c0 3.619-2.961 6.58-6.58 6.58H203.99c-3.619 0-6.58-2.961-6.58-6.58v-13.161c0-3.619 2.961-6.58 6.58-6.58h13.161c3.619 0 6.58 2.961 6.58 6.58v13.161z" fill="#545465"></path><circle cx="210.57" cy="388.239" fill="#d0d7dc" r="6.58"></circle><path d="m210.57 329.016-27.456 27.456c-2.859 2.859-7.596 2.487-9.975-.783l-48.113-66.156 15.326-15.326a6.58 6.58 0 0 1 9.055-.238l61.163 55.047z" fill="#d0d7dc"></path><path d="m210.57 329.016 27.456 27.456c2.859 2.859 7.596 2.487 9.975-.783l48.113-66.156-15.326-15.326a6.58 6.58 0 0 0-9.055-.238l-61.163 55.047z" fill="#d0d7dc"></path><path d="m219.611 351.636-9.041 3.701-9.04-3.701-4.12 69.505H223.731z" fill="#545465"></path><path d="m296.114 289.534 65.804 19.741-6.581 19.741-46.062-13.161z" fill="#393950"></path><path d="m353.825 306.847-6.303-1.891-6.643 19.929 6.33 1.809zM342.653 303.496l-6.304-1.891-6.692 20.074 6.331 1.809z" fill="#ffd267"></path><path d="m124.981 289.534-65.803 19.741 6.58 19.741 46.062-13.161z" fill="#393950"></path><path d="m67.27 306.847 6.303-1.891 6.644 19.929-6.331 1.809zM78.443 303.496l6.303-1.891 6.692 20.074-6.331 1.809z" fill="#ffd267"></path><path d="M342.177 85.544c0 36.342-58.922 46.062-131.606 46.062s-131.606-9.72-131.606-46.062S137.886 0 210.57 0s131.607 49.202 131.607 85.544z" fill="#e4ebf0"></path><ellipse cx="210.57" cy="131.606" fill="#29394a" rx="98.705" ry="26.321"></ellipse><path d="M111.865 108.39v23.216c21.558-3.809 57.709-6.311 98.705-6.311s77.147 2.502 98.705 6.311V108.39c-21.557-10.547-57.708-17.473-98.705-17.473s-77.146 6.926-98.705 17.473z" fill="#474f65"></path><path d="M210.571 115.786c-38.534 0-73.388 3.476-98.705 9.088v6.733c21.558-3.809 57.709-6.311 98.705-6.311 40.996 0 77.147 2.502 98.704 6.311v-6.733c-25.316-5.612-60.171-9.088-98.704-9.088z" fill="#ffd267"></path><path d="M212.627 233.505c0-8.689-8.431-10.656-13.983-8.55-10.179 3.861-21.386 14.632-30.845 7.971 0 0 3.29 13.903 8.841 13.903 11.103-.001 35.987 1.448 35.987-13.324z" fill="#543d38"></path><path d="M209.966 233.505c0-8.689 8.431-10.656 13.983-8.55 10.179 3.861 21.386 14.632 30.845 7.971 0 0-3.29 13.903-8.841 13.903-11.104-.001-35.987 1.448-35.987-13.324z" fill="#543d38"></path><path d="M209.966 71.691c-12.7 0-23.031-10.333-23.031-23.031h6.58c0 9.07 7.38 16.451 16.451 16.451 9.07 0 16.451-7.38 16.451-16.451h6.58c0 12.698-10.331 23.031-23.031 23.031z" fill="#474f65"></path><path d="M206.676 34.677h6.58v39.627h-6.58z" fill="#474f65"></path><path d="M209.966 36.595c-5.367 0-9.734-4.367-9.734-9.732 0-5.369 4.367-9.736 9.734-9.736s9.734 4.367 9.734 9.736c0 5.366-4.366 9.732-9.734 9.732zm0-12.887c-1.738 0-3.154 1.417-3.154 3.155s1.415 3.152 3.154 3.152c1.738 0 3.154-1.414 3.154-3.152s-1.416-3.155-3.154-3.155zM199.217 39.898h21.498v6.58h-21.498z" fill="#474f65"></path></g></svg>