<svg viewBox="0 0 64 64" xmlns="http://www.w3.org/2000/svg"><g><path d="m25 39-11.031 2.068a10.181 10.181 0 0 0-7.23 5.454 10.2 10.2 0 0 0-.973 3.114L4 62h56l-1.766-12.364a10.2 10.2 0 0 0-.973-3.114 10.181 10.181 0 0 0-7.23-5.454L39 39z" fill="#38512d"></path><path d="M57.261 46.522a10.181 10.181 0 0 0-7.23-5.454L39 39h-9l-11.031 2.068a10.184 10.184 0 0 0-8.2 8.568L9 62h51l-1.766-12.364a10.2 10.2 0 0 0-.973-3.114z" fill="#3d5b34"></path><path d="M44 39.938V49H20v-9.062l-6 1.125V62h36V41.063z" fill="#999999"></path><path d="M44 49H20v-9.062l-4 .75V48a11 11 0 0 0 11 11h23V41.062l-6-1.124z" fill="#b3b3b3"></path><path d="M39 32.768V39l-1.317.658A12.682 12.682 0 0 1 32 41a12.682 12.682 0 0 1-5.683-1.341L25 39v-6.233" fill="#d08d78"></path><path d="M27 37.528a2.381 2.381 0 0 0 1.317 2.13A12.665 12.665 0 0 0 33 40.941a12.665 12.665 0 0 0 4.683-1.283L39 39v-6.232H27z" fill="#f2b9a1"></path><path d="M43.212 27.445a12.1 12.1 0 0 1-7.6 7h-7.224a12.1 12.1 0 0 1-7.6-7V16H43z" fill="#d08d78"></path><path d="M43.212 27.445 43 16H23.576v7.8a11.054 11.054 0 0 0 6.76 10.353q.414.163.84.3h4.436a12.1 12.1 0 0 0 7.6-7.008z" fill="#f2b9a1"></path><path d="M18 21.333V16A14 14 0 0 1 32 2a14 14 0 0 1 14 14v5.333L40 17H24z" fill="#4d6939"></path><path d="M40.216 4.681A13.987 13.987 0 0 0 21 17.667v1.5L24 17h16l6 4.333V16a13.968 13.968 0 0 0-5.784-11.319z" fill="#668951"></path><g fill="#4d6939"><path d="M18 62v-8h6l-.001 8M29 62v-8h6l-.001 8M40 62v-8h6l-.001 8" fill="#4d6939"></path></g><path d="M41 9.27A2.73 2.73 0 0 0 43.73 12h1.683a13.983 13.983 0 0 0-3.784-6.145l-.576 2.88A2.749 2.749 0 0 0 41 9.27zM25.5 10A2.5 2.5 0 0 0 28 7.5a9.235 9.235 0 0 0-.474-2.921 9.207 9.207 0 0 1-.391-1.692 14.008 14.008 0 0 0-8.64 9.473l4.127-1.769A7.314 7.314 0 0 1 25.5 10z" fill="#a2a452"></path><path d="M38.109 12.664A6.608 6.608 0 0 1 37 9a2 2 0 0 0-4 0 6.181 6.181 0 0 1-.316 1.949L31.667 14H37a9.134 9.134 0 0 1 1.8.186v-.007a5.28 5.28 0 0 0-.691-1.515z" fill="#73743e"></path><path d="M28 7.5a9.259 9.259 0 0 0-.19-1.828 14.03 14.03 0 0 0-4.785 4.771A7.293 7.293 0 0 1 25.5 10 2.5 2.5 0 0 0 28 7.5z" fill="#cdcb77"></path><path d="m29.516 35.937-1.477-.551a13.014 13.014 0 0 1-8.178-7.566l-.742-1.871 1.859-.738.74 1.865a11.046 11.046 0 0 0 6.969 6.419l1.527.568zM34.465 35.837l-.574-1.916 1.434-.43a11.049 11.049 0 0 0 6.96-6.421l.55-1.2 1.817.837-.532 1.154a13.014 13.014 0 0 1-8.209 7.54z" fill="#785349"></path><path d="M37 18a4.032 4.032 0 0 1 3.862 2.873l1.648 5.493A2.293 2.293 0 0 0 44.706 28 2.294 2.294 0 0 0 47 25.706a5.3 5.3 0 0 0-.186-1.388l-.972-3.565A9.165 9.165 0 0 0 37 14H27a9.165 9.165 0 0 0-8.842 6.753l-.972 3.565A5.3 5.3 0 0 0 17 25.706 2.294 2.294 0 0 0 19.294 28a2.293 2.293 0 0 0 2.2-1.634l1.648-5.493A4.032 4.032 0 0 1 27 18z" fill="#38512d"></path><path d="M47 25.706a5.3 5.3 0 0 0-.186-1.388l-.972-3.565a9.155 9.155 0 0 0-3.781-5.224A9.133 9.133 0 0 0 39 15H29a9.165 9.165 0 0 0-8.842 6.753l-.972 3.565A5.258 5.258 0 0 0 19 26.706a2.289 2.289 0 0 0 .394 1.286 2.289 2.289 0 0 0 2.1-1.627l1.648-5.492A4.032 4.032 0 0 1 27 18h10a4.032 4.032 0 0 1 3.862 2.873l1.648 5.492a2.293 2.293 0 0 0 4.49-.659z" fill="#4d6939"></path><path d="m36 36-.207.1A8.493 8.493 0 0 1 32 37a8.478 8.478 0 0 1-3.789-.894L28 36l1-4 1.105.553A4.241 4.241 0 0 0 32 33a4.241 4.241 0 0 0 1.9-.447L35 32z" fill="#38512d"></path><path d="M35.552 34.207 35 32l-1.1.553a4.24 4.24 0 0 1-3.79 0L29 32l-.552 2.207a8.352 8.352 0 0 0 7.1 0z" fill="#4d6939"></path><path d="M18 54v.313a11.008 11.008 0 0 0 6 4.262V54zM29 54h6v5h-6zM40 54h6v5h-6z" fill="#668951"></path></g></svg>