<svg viewBox="0 0 64 64" xmlns="http://www.w3.org/2000/svg"><g><path d="M50 51V34a10 10 0 0 0-10-10h-4v7h3a4 4 0 0 1 4 4v14z" fill="#3e3d42"></path><path d="M20 45h24a8 8 0 0 1 8 8v8H12v-8a8 8 0 0 1 8-8z" fill="#e4bf93"></path><path d="m23 45 2 8 5-4-1-4zM41 45l-2 8-5-4 1-4z" fill="#ffffff"></path><path d="m38 45-6 6-6-6 1-12h10zM46 28h-2v-7h2a2 2 0 0 1 2 2v3a2 2 0 0 1-2 2z" fill="#ffcbbe"></path><circle cx="45" cy="13" fill="#2d2d30" r="6"></circle><path d="M18 21h2v7h-2a2 2 0 0 1-2-2v-3a2 2 0 0 1 2-2z" fill="#ffcbbe"></path><path d="M32 41a13 13 0 0 1-13-13V9l26 1v18a13 13 0 0 1-13 13z" fill="#ffddce"></path><g fill="#3e3d42"><path d="M48 19v4h-3l-2.51-5.02A2.088 2.088 0 0 0 41 16.9a5 5 0 0 1-4-4.9 6 6 0 0 1-6 6h-6.53a4.02 4.02 0 0 0-3.58 2.21L19 23h-3v-4C16 7.5 23.163 3 32 3a16 16 0 0 1 16 16z" fill="#3e3d42"></path><path d="M27 21a1 1 0 0 0-1 1v2a1 1 0 0 0 2 0v-2a1 1 0 0 0-1-1zM37 25a1 1 0 0 0 1-1v-2a1 1 0 0 0-2 0v2a1 1 0 0 0 1 1z" fill="#3e3d42"></path></g></g></svg>