<svg viewBox="0 0 512 512" xmlns="http://www.w3.org/2000/svg"><g><path d="M352.332 323.59c0 42.917-20.016 77.707-44.71 77.707H44.71V245.884h262.912c15.278 0 28.763 13.31 36.819 33.625 4.976 12.527 7.891 27.712 7.891 44.081z" fill="#c15c08"></path><path d="M130.843 376.026H74.845a7.726 7.726 0 1 1 0-15.452h55.999a7.726 7.726 0 1 1-.001 15.452zM157.607 324.173h-47.893a7.726 7.726 0 1 1 0-15.452h47.893a7.726 7.726 0 1 1 0 15.452zM118.986 279.509v-.01c-18.471-.103-34.645-13.073-45.163-33.615h233.8c15.278 0 28.763 13.31 36.819 33.625H118.986z" fill="#99490d"></path><path d="M352.332 323.59c0 42.917-20.016 77.707-44.71 77.707H173.637c-16.545-15.875-27.362-44.442-27.362-77.707 0-33.254 10.817-61.821 27.362-77.707h133.985c24.694.001 44.71 34.79 44.71 77.707z" fill="#99490d"></path><ellipse cx="44.707" cy="323.59" fill="#ffce94" rx="44.707" ry="77.7"></ellipse><path d="M24.482 331.319a7.726 7.726 0 0 1-7.726-7.726c0-28.701 9.601-57.756 27.951-57.756a7.726 7.726 0 1 1 0 15.452c-3.212 0-12.498 14.545-12.498 42.303a7.727 7.727 0 0 1-7.727 7.727zM44.707 381.348a7.726 7.726 0 1 1 0-15.452c3.212 0 12.498-14.545 12.498-42.303a7.726 7.726 0 1 1 15.452 0c.001 28.701-9.6 57.755-27.95 57.755z" fill="#fcb043"></path><path d="M426.845 188.41c0 .979-.01 1.947-.031 2.915a131.122 131.122 0 0 1-1.236 15.453c-1.298 9.344-3.575 18.028-6.624 25.713-8.056 20.315-21.541 33.625-36.819 33.625H119.223V110.703h262.913c24.693 0 44.709 34.789 44.709 77.707z" fill="#df781b"></path><path d="M214.503 213.165h-54.287a7.726 7.726 0 1 1 0-15.452h54.287a7.726 7.726 0 1 1 0 15.452zM418.954 232.491c-8.056 20.315-21.541 33.625-36.819 33.625H158.978c9.797-19.131 24.508-31.688 41.393-33.409v-.216h218.583z" fill="#c15c08"></path><ellipse cx="119.22" cy="188.41" fill="#ffce94" rx="44.707" ry="77.7"></ellipse><path d="M119.218 246.163c-18.35 0-27.951-29.054-27.951-57.756s9.601-57.756 27.951-57.756a7.726 7.726 0 1 1 0 15.452c-3.212 0-12.498 14.545-12.498 42.303s9.286 42.303 12.498 42.303 12.498-14.545 12.498-42.303a7.726 7.726 0 1 1 15.452 0c.001 28.703-9.6 57.757-27.95 57.757z" fill="#fcb043"></path><path d="M312.948 170.588h-97.93a7.726 7.726 0 1 1 0-15.452h97.93a7.726 7.726 0 1 1 0 15.452zM426.814 191.325a131.122 131.122 0 0 1-1.236 15.453H285.803c-4.265 0-7.726-3.461-7.726-7.726s3.461-7.726 7.726-7.726h141.011v-.001zM384.266 230.196h-78.769a7.726 7.726 0 1 1 0-15.452h78.769a7.726 7.726 0 1 1 0 15.452zM335.301 145.04h-12.773a7.726 7.726 0 1 1 0-15.452h12.773a7.726 7.726 0 1 1 0 15.452z" fill="#c15c08"></path><path d="M512 323.59a133.318 133.318 0 0 1-1.257 18.379c-4.749 34.048-22.406 59.328-43.453 59.328H204.378V245.884H467.29c24.694 0 44.71 34.789 44.71 77.706z" fill="#df781b"></path><path d="M291.127 376.026H236.84a7.726 7.726 0 1 1 0-15.452h54.287a7.726 7.726 0 1 1 0 15.452z" fill="#c15c08"></path><ellipse cx="204.37" cy="323.59" fill="#ffce94" rx="44.707" ry="77.7"></ellipse><path d="M204.374 381.348c-18.35 0-27.951-29.054-27.951-57.756a7.726 7.726 0 1 1 15.452 0c0 27.758 9.286 42.303 12.498 42.303s12.498-14.545 12.498-42.303a7.726 7.726 0 1 1 15.452 0c.002 28.702-9.599 57.756-27.949 57.756z" fill="#fcb043"></path><path d="M398.104 305.772H268.241a7.726 7.726 0 1 1 0-15.452h129.863a7.726 7.726 0 1 1 0 15.452zM511.969 326.516a133.318 133.318 0 0 1-1.226 15.453H365.106a7.729 7.729 0 0 1-7.726-7.726 7.722 7.722 0 0 1 7.726-7.726l146.863-.001zM416.2 372.832h-25.547a7.726 7.726 0 1 1 0-15.452H416.2a7.726 7.726 0 1 1 0 15.452zM459.842 292.999h-12.774a7.726 7.726 0 1 1 0-15.452h12.774a7.726 7.726 0 1 1 0 15.452z" fill="#c15c08"></path><path d="M204.374 309.572a7.726 7.726 0 0 1-7.726-7.726v-14.914a7.726 7.726 0 1 1 15.452 0v14.914a7.725 7.725 0 0 1-7.726 7.726z" fill="#fcb043"></path></g></svg>