<svg viewBox="0 0 58 60" xmlns="http://www.w3.org/2000/svg"><g><g fill="none" fill-rule="nonzero"><path d="m28.64 31 5.41-27.98a2.5 2.5 0 1 1 4.9.95L33.5 32.14z" fill="#a56a43"></path><path d="M31.97 55.47c-3.04 2.57-7.15 3.56-11.39 3.6-1.357.01-2.713-.07-4.06-.24A36.453 36.453 0 0 1 12 58c-.72-.18-1.39-.38-2.03-.59h-.01a24.4 24.4 0 0 1-3.02-1.19 15.773 15.773 0 0 1-3.98-2.67c-.58-.546-1.1-1.152-1.55-1.81a8.776 8.776 0 0 1-1.24-2.67.994.994 0 0 1 .84-1.21c17.22-2.61 22.32-10.21 23.61-12.9l11.75 2.02c.33 1.896.507 3.816.53 5.74z" fill="#f3d55b"></path><path d="M36.37 36.98c-1.63.7-3.386 1.063-5.16 1.07a8.071 8.071 0 0 1-4.66-1.19 6.019 6.019 0 0 1-1.93-1.9c.06-.13.11-.25.16-.36a6.1 6.1 0 0 1 2.8-3.22 4.813 4.813 0 0 1 1.06-.38 5.825 5.825 0 0 1 3.34.3 6.085 6.085 0 0 1 1.52.84 7.346 7.346 0 0 1 2.85 4.71c.01.04.01.09.02.13z" fill="#bdc3c7"></path><path d="M24.62 34.96a.01.01 0 0 1-.01-.01" fill="#a56a43"></path><path d="M15.88 48.52a1.01 1.01 0 0 0-1.36-.4c-3.97 2.17-9.65 3.18-13.11 3.62.45.658.97 1.264 1.55 1.81 3.63-.54 8.75-1.62 12.52-3.67a1 1 0 0 0 .4-1.36zM26.83 46.56c-4.06 5.98-11.37 9.2-16.86 10.85 0 0 0 .01-.01 0a24.4 24.4 0 0 1-3.02-1.19c5.12-1.25 13.8-4.25 18.23-10.78a1.001 1.001 0 0 1 1.66 1.12zM26.85 53.98a22.359 22.359 0 0 1-6.27 5.09c-1.357.01-2.713-.07-4.06-.24a22.881 22.881 0 0 0 8.8-6.13.988.988 0 0 1 1.4-.13 1 1 0 0 1 .13 1.41z" fill="#e4c05c"></path><path d="M58 51.83a5.493 5.493 0 0 1-8.46 4.63 7.457 7.457 0 0 1-11.73-.44 4.857 4.857 0 0 1-2.56.73 4.9 4.9 0 0 1-4.88-4.88 4.887 4.887 0 0 1 3.48-4.68 4.889 4.889 0 0 1 3.05-4.47 4.863 4.863 0 0 1 4.79.64 6.628 6.628 0 0 1 11.58 3.02A5.516 5.516 0 0 1 58 51.83z" fill="#95a5a5"></path><path d="M49.345 48.135a1 1 0 0 1-.982-.811 1.632 1.632 0 0 0-2.851-.743 1 1 0 0 1-1.53-1.29 3.634 3.634 0 0 1 6.346 1.655 1 1 0 0 1-.983 1.189z" fill="#ecf0f1"></path><circle cx="54.5" cy="34.5" fill="#7f8c8d" r="2.5"></circle><circle cx="48" cy="28" fill="#7f8c8d" r="2"></circle><g fill="#ff5364"><path d="M6 23a1 1 0 0 1-1-1v-2a1 1 0 0 1 2 0v2a1 1 0 0 1-1 1zM6 29a1 1 0 0 1-1-1v-2a1 1 0 0 1 2 0v2a1 1 0 0 1-1 1zM4 25H2a1 1 0 0 1 0-2h2a1 1 0 0 1 0 2zM10 25H8a1 1 0 0 1 0-2h2a1 1 0 0 1 0 2z" fill="#ff5364"></path></g><path d="M9 39a1 1 0 0 1-.707-1.707l1.5-1.5a1 1 0 0 1 1.414 1.414l-1.5 1.5A1 1 0 0 1 9 39zM13.5 34.5a1 1 0 0 1-.707-1.707l1.5-1.5a1 1 0 0 1 1.414 1.414l-1.5 1.5a1 1 0 0 1-.707.293zM15 39a1 1 0 0 1-.707-.293l-1.5-1.5a1 1 0 0 1 1.414-1.414l1.5 1.5A1 1 0 0 1 15 39zM10.5 34.5a1 1 0 0 1-.707-.293l-1.5-1.5a1 1 0 0 1 1.414-1.414l1.5 1.5A1 1 0 0 1 10.5 34.5z" fill="#955ba5"></path><path d="M28 13.087a.948.948 0 0 1-.175-.015l-17-3a1.001 1.001 0 1 1 .349-1.972l17 3A1 1 0 0 1 28 13.087zM27 18.087a.948.948 0 0 1-.175-.015l-10.838-1.913a1 1 0 0 1 .348-1.97L27.174 16.1A1 1 0 0 1 27 18.087zM26 23c-.059 0-.117-.005-.175-.015l-13.1-2.313a1 1 0 1 1 .347-1.97l13.106 2.313A1 1 0 0 1 26 23z" fill="#84b5cb"></path></g></g></svg>