<svg viewBox="0 0 512 512" xmlns="http://www.w3.org/2000/svg"><g><path d="M315.117 0H196.883c-19.977 0-62.532 41.984-62.532 59.805v99.57H377.65v-99.57C377.65 41.984 335.094 0 315.117 0z" fill="#d88a55"></path><path d="M315.117 0h-45.058c62.293 24.554 57.445 54.677 46.215 92.597l-14.424 66.778h75.8v-99.57C377.65 41.984 335.094 0 315.117 0z" fill="#c57a44"></path><path d="m443.004 318.953-81.093-27.945H150.089l-81.093 27.945c-12.645 4.352-21.132 16.255-21.132 29.642v152.623c0 5.954 4.827 10.781 10.781 10.781h131.628L256 472l65.727 40h131.628c5.954 0 10.781-4.827 10.781-10.781V348.596c0-13.388-8.487-25.29-21.132-29.643z" fill="#685e68"></path><path d="m443.004 318.953-81.093-27.945-18.343 23.512 72.652 25.036c12.645 4.352 21.132 16.255 21.132 29.643v132.019c0 5.954-4.827 10.781-10.781 10.781h26.785c5.954 0 10.781-4.827 10.781-10.781V348.596c-.001-13.388-8.488-25.29-21.133-29.643z" fill="#554e56"></path><path d="M372.559 331.416a4.542 4.542 0 0 0 .925-4.432l-11.571-35.982-23.246-8.006H173.333l-23.246 8.006-11.571 35.982a4.545 4.545 0 0 0 .925 4.432l15.946 18.128a4.603 4.603 0 0 1 .72 4.969l-15.496 37.437a10.684 10.684 0 0 0 .107 8.423L190.273 512h45.554l18.254-70 22.092 70h45.554l49.555-111.628a10.689 10.689 0 0 0 .107-8.423l-15.496-37.437a4.601 4.601 0 0 1 .72-4.969z" fill="#7a6d79"></path><path d="m361.913 291.001-23.246-8.006-42.674 15.131 76.713 26.436z" fill="#685e68"></path><path d="m316.273 302.309-122.51-9.263-1.351 60.258 26.713 98.441h73.75l26.713-98.441z" fill="#d3dee5"></path><path d="M270.861 297.593h-29.722L219.366 451.68 235.827 512h40.346l16.461-60.32z" fill="#fe646f"></path><path d="m210.709 293.046 17.242 44.52a16.48 16.48 0 0 0 15.368 10.528h25.361c6.805 0 12.91-4.183 15.368-10.528l17.242-44.52z" fill="#e25269"></path><path d="M322.778 277.523a13.604 13.604 0 0 1-6.502-4.765H195.724a13.604 13.604 0 0 1-6.502 4.765l-15.889 5.471 19.08 70.31 55.306-57.791h16.564l55.306 57.791 19.08-70.31z" fill="#e8edf2"></path><path d="M322.778 277.523a13.604 13.604 0 0 1-6.502-4.765l-29.49-4.362v16.823a13.656 13.656 0 0 0 9.207 12.908l35.269 12.154 7.405-27.286z" fill="#d3dee5"></path><path d="m195.726 272.76 40.36 34.482a14.714 14.714 0 0 0 9.539 3.515h20.75a14.71 14.71 0 0 0 9.539-3.515l40.36-34.482a13.58 13.58 0 0 1-2.702-8.145v-66.333H198.429v66.333c0 3.006-.981 5.842-2.703 8.145z" fill="#ffa78f"></path><g fill="#f78d7c"><path d="m290.608 294.687 25.665-21.927a13.58 13.58 0 0 1-2.702-8.145v-66.333h-26.785v86.937c0 3.613 1.427 6.979 3.822 9.468z" fill="#f78d7c"></path><path d="M293.401 275.01c5.183-2.086 12.612-7.367 20.17-14.537v-62.191H198.429v62.191c7.558 7.17 14.987 12.452 20.17 14.537 22.706 9.121 52.096 9.121 74.802 0zM176.964 168.016c-4.806-23.659-33.078-31.011-44.619-13.862-15.744 23.396 13.442 63.792 44.619 42.783zM335.036 168.016c4.806-23.659 33.078-31.011 44.619-13.862 15.744 23.396-13.442 63.792-44.619 42.783z" fill="#f78d7c"></path></g><path d="M343.567 104.406V190c0 28.42-34.867 62.371-50.166 68.527-22.706 9.121-52.096 9.121-74.802 0-15.299-6.156-50.166-40.107-50.166-68.527v-85.594c0-5.024.863-10.027 2.555-14.76l3.073-8.636a22.176 22.176 0 0 1 20.895-14.738h13.996c3.211 0 5.84 2.561 5.903 5.771.255 12.902 4.133 29.297 24.133 28.589 2.814-.097 4.852-2.782 4.173-5.52-1.87-7.468-.702-17.807 4.612-26.108a5.928 5.928 0 0 1 4.99-2.732h64.283c9.38 0 17.746 5.898 20.895 14.738l3.073 8.636a43.91 43.91 0 0 1 2.553 14.76z" fill="#ffa78f"></path><path d="M208.841 164.874a7.726 7.726 0 0 1-7.726-7.726v-9.789a7.726 7.726 0 1 1 15.452 0v9.789a7.727 7.727 0 0 1-7.726 7.726z" fill="#685e68"></path><path d="M221.48 127.904a7.693 7.693 0 0 1-4.948-1.795c-5.536-4.622-9.85-4.621-15.385 0a7.727 7.727 0 0 1-9.904-11.862c11.348-9.472 23.845-9.474 35.192 0a7.726 7.726 0 0 1-4.955 13.657z" fill="#c57a44"></path><path d="M303.16 164.874a7.725 7.725 0 0 1-7.726-7.726v-9.789a7.726 7.726 0 1 1 15.452 0v9.789a7.726 7.726 0 0 1-7.726 7.726z" fill="#685e68"></path><path d="M315.8 127.904a7.7 7.7 0 0 1-4.948-1.795c-5.536-4.622-9.851-4.62-15.385 0a7.727 7.727 0 0 1-9.903-11.862c11.348-9.473 23.848-9.472 35.192 0a7.726 7.726 0 0 1-4.956 13.657z" fill="#c57a44"></path><path d="M256 212.303c-6.828 0-13.654-1.414-20.434-4.245a7.725 7.725 0 0 1-4.153-10.106 7.725 7.725 0 0 1 10.106-4.153c9.744 4.068 19.219 4.069 28.962-.001a7.727 7.727 0 0 1 5.954 14.261c-6.78 2.828-13.609 4.244-20.435 4.244z" fill="#685e68"></path><path d="M356.43 433.708v-53.484h42.439v53.484c0 1.995-.64 3.938-1.827 5.542l-19.393 26.216-19.393-26.216a9.32 9.32 0 0 1-1.826-5.542z" fill="#2abcc8"></path><circle cx="377.65" cy="470.618" fill="#fed402" r="16.24"></circle><path d="M340.377 366.69v22.189a4.43 4.43 0 0 0 4.429 4.429h65.686a4.43 4.43 0 0 0 4.429-4.429V366.69a4.43 4.43 0 0 0-4.429-4.429h-65.686a4.43 4.43 0 0 0-4.429 4.429z" fill="#fed402"></path></g></svg>