<svg viewBox="0 0 512 512" xmlns="http://www.w3.org/2000/svg"><g><path d="M411.61 356.55H506v30.34h-94.39z" fill="#c2684f"></path><path d="M483.65 351.67a12.81 12.81 0 1 1 12.8-12.81 12.81 12.81 0 0 1-12.8 12.81z" fill="#49c160"></path><circle cx="440.95" cy="338.86" fill="#9be147" r="12.81"></circle><path d="M240.82 49.65 169.47 121H70v266.89l342-.89V121h-99.82z" fill="#cae6ee"></path><path d="m383.7 13.15 53.37 109.47H312.18l-71.36-71.35-71.35 71.35H44.58L97.95 13.15z" fill="#e75163"></path><path d="M240.82 130.17a13.88 13.88 0 1 1 13.88-13.88 13.879 13.879 0 0 1-13.88 13.88z" fill="#e75163"></path><g fill="#4689d3"><path d="M334.59 174.92h42.69v42.69h-42.69zM219.48 174.92h42.69v42.69h-42.69zM104.41 174.92h42.69v42.69h-42.69z" fill="#4689d3"></path></g><path d="M108 258h304v129H108z" fill="#5fa8ed"></path><path d="m333 292 3.055 64.235L338.4 356H377v-64zM104 292l3.055 64.235L109.4 356H148v-64z" fill="#adf0e5"></path><path d="M156.07 405H156l-128.925-.283A30.009 30.009 0 0 0 6 433.38V499h172v-65.62c0-13.65-9.45-25.38-21.93-28.38z" fill="#313960"></path><path d="m46.952 404.761-19.877-.044A30.009 30.009 0 0 0 6 433.38V499h20v-65.62a30 30 0 0 1 20.952-28.619z" fill="#252e4c"></path><path d="M131.83 379.6a57.783 57.783 0 0 0-7.12-9.9l-3.18-3.62-.01-.02c-.65-.38-1.31-.675-1.97-1.055H64.165c-.66.38-1.347.723-2 1.1h-.023l-3.187 3.608a57.168 57.168 0 0 0-7.114 9.894c-9.01 16.15-8.351 33.287-1.561 51.957L74.71 499h34.24l24.43-67.44c6.79-18.67 7.45-35.81-1.55-51.96z" fill="#9fe2ff"></path><path d="M337.85 356.331q-.885-3.512-2.1-6.951l-1.16-3.26-10.4-29.17.04-.25c-.36-.15-.7.3-1.04-.7H323l-103-4-12.785 6.019-.082-.09a47.333 47.333 0 0 1-1.737 7.116l-8.778 26.562a92.009 92.009 0 0 0 .529 58.817l137.923-5.759a80.1 80.1 0 0 0 2.78-48.334z" fill="#6b342c"></path><path d="M335.29 404.79a31.3 31.3 0 0 0-7.74-.79H215.91A29.615 29.615 0 0 0 186 433.66V499h172v-65.34a29.991 29.991 0 0 0-22.71-28.87z" fill="#313960"></path><path d="M151.1 285.35v12.57c-5.41.4-6.72 1.15-7.81 2.23h-1.1v-17.21l1.09-.11c1.18.99 2.46 1.84 7.82 2.52z" fill="#2b324f"></path><path d="M324.23 316.87a10.025 10.025 0 0 0 7.87.12 9.5 9.5 0 0 0 2.49-1.45v30.58l-10.4-29.17z" fill="#4c2925"></path><path d="M332.1 316.99a10.025 10.025 0 0 1-7.87-.12 8.479 8.479 0 0 1-1.04-.53h-2.09l.01-15.02c2-.29 1.99-.58 1.98-.87l.1-.01a8.653 8.653 0 0 1 9.26-1.96 7.985 7.985 0 0 1 1.6.86c.19.13.37.26.54.4a10.1 10.1 0 0 1 0 15.8 9.5 9.5 0 0 1-2.49 1.45z" fill="#ef9f7d"></path><path d="M207.18 317.86a47.119 47.119 0 0 0 .64-7.78v-39.7a62.323 62.323 0 0 1 54.35-61.82 63.357 63.357 0 0 1 7.96-.5 62.308 62.308 0 0 1 62.32 62.32v28.1a8.653 8.653 0 0 0-9.26 1.96l-.1.01a17.167 17.167 0 0 0-9.97-14.74 56.571 56.571 0 0 1-30.79-36.35l-.09.03H268.7a34.486 34.486 0 0 0-34.49 34.48 34.773 34.773 0 0 1-7.76 21.76 36.132 36.132 0 0 1-6.12 5.99 34.508 34.508 0 0 1-13.02 6.26z" fill="#7f3d32"></path><path d="M309.04 403.66a13.736 13.736 0 0 1-13.73-13.74v-23.46h-47.16v23.46a13.729 13.729 0 0 1-13.73 13.74h-.51v35.35h.01a133.05 133.05 0 0 0 75.6.01h.04v-35.36z" fill="#ef9f7d"></path><path d="M233.91 459.49a132.874 132.874 0 0 0 75.65 0v20.49a133.048 133.048 0 0 1-75.65.01z" fill="#ffa4c2"></path><path d="M233.91 479.99a133.048 133.048 0 0 0 75.65-.01v18.87h-75.65zM233.91 439.01h.01a133.05 133.05 0 0 0 75.6.01h.04v20.47a132.874 132.874 0 0 1-75.65 0z" fill="#ff5a81"></path><path d="M154.15 299.05a10.1 10.1 0 0 1-10.86 17.01h-2.1v-15.91h2.1a8.818 8.818 0 0 1 3.81-2.23 8.378 8.378 0 0 1 7.05 1.13z" fill="#ffbb8d"></path><path d="M119.05 387.8a32.155 32.155 0 0 1 2.44 34.04 31.756 31.756 0 0 1-3.77 5.6l-5.12 6.11a4.388 4.388 0 0 1-7.04-.43l-.45-.7-13.19-20.36 10.81-6.01a25.747 25.747 0 0 0 13.23-22.49l.06.08z" fill="#bdeeff"></path><path d="m115.64 367.07-.01-1.01-48.03-.23-.04 1.08v16.84l.14-.19a25.736 25.736 0 0 0 13.24 22.49l10.8 6.01h.18l10.81-6.01a25.747 25.747 0 0 0 13.23-22.49l.06.08z" fill="#ffbb8d"></path><path d="M91.78 434.65a10.186 10.186 0 0 1 7.09 2.86l8 61.05H76.62l7.92-60.91a10.207 10.207 0 0 1 7.24-3z" fill="#de3c44"></path><path d="m91.92 412.06 13.19 20.36-.26.17-5.98 4.92a10.227 10.227 0 0 0-14.33.14l-5.9-5.06-.14-.09 13.24-20.44z" fill="#ce3c4a"></path><path d="M67.7 383.56a25.736 25.736 0 0 0 13.24 22.49l10.8 6.01L78.5 432.5l-.4.62a4.388 4.388 0 0 1-7.04.43l-5.12-6.11a31.756 31.756 0 0 1-3.77-5.6 32.155 32.155 0 0 1 2.44-34.04l2.95-4.05z" fill="#bdeeff"></path><path d="M58.95 369.7a57.191 57.191 0 0 0-7.11 9.9c-9.01 16.15-8.35 33.07-1.56 51.74l24.43 67.22H55.17l-35.5-77.36a2.164 2.164 0 0 1 1.95-3.1h17.23l-9.1-4.68a5.761 5.761 0 0 1-3.11-5.11 5.636 5.636 0 0 1 .26-1.71c.18-.57.37-1.15.59-1.73 4.79-13.46 16.53-27.9 34.64-38.79z" fill="#274daa"></path><path d="M29.41 299.05a8.561 8.561 0 0 1 10.86 1.1h2.2l.01 15.91h-2.21a10.093 10.093 0 0 1-15.11-10.12 10.148 10.148 0 0 1 4.25-6.89z" fill="#ffbb8d"></path><path d="M54.46 216.56h-6.42a21.6 21.6 0 0 0-21.6 21.6v63.81l.13.08a9.929 9.929 0 0 1 2.84-3 8.561 8.561 0 0 1 10.86 1.1h.2l-.02-46.84a16.939 16.939 0 0 1 16.94-16.93h12.9z" fill="#313960"></path><path d="M136.42 217.61a17.241 17.241 0 0 0-13.31-12.87l-18.7-3.82-17.68-3.61a27.615 27.615 0 0 0-16.69 1.75 27.8 27.8 0 0 0-16.76 25.57s5.79 11.75 17.01 11.75a18.338 18.338 0 0 0 6.15-1.12l56.39-13.63a32.21 32.21 0 0 1 3.98 1.21l.09-.23v-.98a16.757 16.757 0 0 0-.48-4.02z" fill="#364166"></path><path d="M136.81 222.84a31.559 31.559 0 0 1 20.41 29.52l-.04 5.99-.1 13.84v15.38h-.72a20.388 20.388 0 0 1-9.26-2.22 19.573 19.573 0 0 1-3.82-2.52 16.836 16.836 0 0 1-1.41-1.27 26.394 26.394 0 0 1-7.72-18.63v-16.01a18.642 18.642 0 0 0-18.64-18.65h-1.78a18.555 18.555 0 0 0-12.53 4.85 20.121 20.121 0 0 1-24.24 2.46l-.52-.32v-6.99c0-13.44 12.33-16.52 25.5-13.83l30.89 7.19a32.21 32.21 0 0 1 3.98 1.21z" fill="#353e60"></path><path d="M248.15 367.46a51.422 51.422 0 0 1-27.77-45.63v-10.15l-.05-.06a36.132 36.132 0 0 0 6.12-5.99 34.773 34.773 0 0 0 7.76-21.76 34.486 34.486 0 0 1 34.49-34.48h13.54l.09-.03a56.571 56.571 0 0 0 30.79 36.35 17.167 17.167 0 0 1 9.97 14.74c.01.29.02.58.02.87l-.01 15.02-.01 5.49a51.364 51.364 0 0 1-74.94 45.63z" fill="#ffac83"></path><path d="M141.87 281.56a16.836 16.836 0 0 0 1.41 1.27l-.09.11v38.6a51.411 51.411 0 0 1-23.68 43.27c-1.26.8-2.55 1.56-3.88 2.25a51.406 51.406 0 0 1-48.03-.23c-1.18-.63-2.33-1.3-3.45-2.02a51.417 51.417 0 0 1-23.67-43.27v-5.48l-.01-15.91-.02-46.84a16.939 16.939 0 0 1 16.94-16.93h12.9a18.338 18.338 0 0 0 6.15-1.12l.52.32a20.121 20.121 0 0 0 24.24-2.46 18.555 18.555 0 0 1 12.53-4.85h1.78a18.642 18.642 0 0 1 18.64 18.65v16.01a26.394 26.394 0 0 0 7.72 18.63z" fill="#ffd8b7"></path><path d="M87.6 366.83c-1.18-.63-2.33-1.3-3.45-2.02a53.409 53.409 0 0 1-8.87-6.95A51.447 51.447 0 0 1 60 321.54v-5.48l.23-15.91.1-47.03A17.2 17.2 0 0 1 77.39 236h.979a2.946 2.946 0 0 1-1.409-.61l-.52-.415A18.084 18.084 0 0 1 70.29 236h-12.9a17.1 17.1 0 0 0-16.94 17.12l-.22 46.935-.23 16v5.48a51.447 51.447 0 0 0 15.28 36.32 52.512 52.512 0 0 0 8.75 6.95c1.12.72 2.33 1.39 3.51 2.02a51.444 51.444 0 0 0 34.271 5.083A50.982 50.982 0 0 1 87.6 366.83z" fill="#d6b196"></path><path d="M124.315 302.888a3 3 0 0 1-3-3 5.86 5.86 0 1 0-11.719 0 3 3 0 0 1-6 0 11.86 11.86 0 1 1 23.719 0 3 3 0 0 1-3 3zM77.065 302.888a3 3 0 0 1-3-3 5.859 5.859 0 1 0-11.718 0 3 3 0 0 1-6 0 11.859 11.859 0 1 1 23.718 0 3 3 0 0 1-3 3zM91.831 342.182A23.813 23.813 0 0 1 74.94 335.2a3 3 0 0 1 4.243-4.242 17.909 17.909 0 0 0 25.3 0 3 3 0 0 1 4.242 4.242 23.809 23.809 0 0 1-16.894 6.982z" fill="#a3806c"></path><path d="M153.1 483.653h-16.2a3 3 0 1 1 0-6h16.2a3 3 0 0 1 0 6z" fill="#252c47"></path><path d="M304.216 303.175a3 3 0 0 1-3-3 5.86 5.86 0 1 0-11.719 0 3 3 0 0 1-6 0 11.86 11.86 0 1 1 23.719 0 3 3 0 0 1-3 3zM256.966 303.175a3 3 0 0 1-3-3 5.859 5.859 0 1 0-11.718 0 3 3 0 0 1-6 0 11.859 11.859 0 1 1 23.718 0 3 3 0 0 1-3 3zM271.732 342.481a23.73 23.73 0 0 1-16.891-7 3 3 0 1 1 4.243-4.242 17.887 17.887 0 0 0 25.3 0 3 3 0 0 1 4.242 4.242 23.728 23.728 0 0 1-16.894 7z" fill="#ce8b6e"></path><path d="M162.04 418.1a2.164 2.164 0 0 1 1.95 3.1l-35.5 77.36h-19.54l24.43-67.22c6.79-18.67 7.45-35.59-1.55-51.74a57.783 57.783 0 0 0-7.12-9.9l-3.18-3.62a91.536 91.536 0 0 1 24.3 20.81 62.483 62.483 0 0 1 10.23 17.67c.26.68.49 1.36.7 2.04a5.7 5.7 0 0 1-2.85 6.82l-9.1 4.68z" fill="#274daa"></path><path d="M221.626 465.821a3 3 0 0 0-3.945 1.563A41.8 41.8 0 0 0 217.1 499h6.309a2.949 2.949 0 0 0-.223-.94 35.773 35.773 0 0 1 0-28.293 3 3 0 0 0-1.56-3.946zM325.782 467.384a3 3 0 1 0-5.507 2.383 35.764 35.764 0 0 1 0 28.293 3 3 0 0 0-.223.94h6.31a41.793 41.793 0 0 0-.58-31.616z" fill="#252c47"></path></g></svg>