<svg viewBox="0 0 512 512" xmlns="http://www.w3.org/2000/svg"><g><path d="M181 224.999c0-24.853-20.147-45-45-45l-20 51.659 20 38.341c24.853 0 45-20.147 45-45zM177.802 512l9.189-105H214.5V285H136l-30 122 30 105z" fill="#fb7a5b"></path><path d="M91 224.999c0 24.853 20.147 45 45 45v-90c-24.853 0-45 20.148-45 45zM57.5 407h27.509l9.189 105H136V285H57.5z" fill="#fa9647"></path><path d="M454.5 0h-75l-30 256 30 256h75z" fill="#fb7a5b"></path><path d="M256 0v37.75l18.5 15-18.5 15v37.75l18.5 15-18.5 15v37.75l18.5 15-18.5 15V241l18.5 15-18.5 15v37.75l18.5 15-18.5 15v37.75l18.5 15-18.5 15v37.75l18.5 15-18.5 15V512h123.5V0z" fill="#f9b233"></path><path d="M256 444.25h78.5v30H256zM256 376.5h48.5v30H256zM256 308.75h48.5v30H256zM256 241h78.5v30H256zM256 173.25h48.5v30H256zM256 105.5h48.5v30H256zM256 37.75h78.5v30H256z" fill="#b440a1"></path></g></svg>