<svg fill-rule="evenodd" viewBox="0 0 64 64" xmlns="http://www.w3.org/2000/svg"><g><g fill="#ffb43f"><path d="m29.905 4.782-1.49 2.821a.368.368 0 0 1-.263.191l-3.144.546a2.37 2.37 0 0 0-1.295 3.984l2.223 2.29c.08.082.117.196.101.309l-.453 3.158a2.367 2.367 0 0 0 3.389 2.463l2.864-1.407a.373.373 0 0 1 .326 0l2.864 1.407a2.369 2.369 0 0 0 3.389-2.463l-.453-3.158a.368.368 0 0 1 .101-.309l2.223-2.29a2.371 2.371 0 0 0-1.295-3.984l-3.144-.546a.368.368 0 0 1-.263-.191l-1.49-2.821a2.37 2.37 0 0 0-4.19 0zM56.659 14.128l-3.049.941a.37.37 0 0 1-.321-.05l-2.609-1.838a2.37 2.37 0 0 0-3.733 1.902l-.047 3.191a.367.367 0 0 1-.148.289l-2.553 1.914a2.368 2.368 0 0 0 .655 4.138l3.02 1.03a.37.37 0 0 1 .23.23l1.031 3.02a2.37 2.37 0 0 0 4.137.655l1.914-2.553a.367.367 0 0 1 .29-.148l3.19-.047a2.37 2.37 0 0 0 1.902-3.733l-1.837-2.608a.369.369 0 0 1-.051-.322l.941-3.048a2.368 2.368 0 0 0-2.962-2.963zM4.379 17.091l.941 3.048a.369.369 0 0 1-.051.322l-1.837 2.608a2.368 2.368 0 0 0 1.902 3.733l3.19.047a.367.367 0 0 1 .29.148l1.914 2.553a2.37 2.37 0 0 0 4.137-.655l1.031-3.02a.37.37 0 0 1 .23-.23l3.02-1.03a2.368 2.368 0 0 0 .655-4.138l-2.553-1.913a.37.37 0 0 1-.148-.29l-.047-3.191a2.37 2.37 0 0 0-3.733-1.902l-2.609 1.837a.367.367 0 0 1-.321.051l-3.049-.941a2.368 2.368 0 0 0-2.962 2.963z" fill="#ffb43f"></path></g><circle cx="32" cy="41.814" fill="#ffc45c" r="18.666"></circle><path d="m39.186 43.464-14.379.026a2.972 2.972 0 0 0-2.744 4.107c1.586 3.924 5.44 6.7 9.937 6.7 4.494 0 8.347-2.773 9.961-6.689a3 3 0 0 0-2.775-4.144z" fill="#354e5b"></path><path d="M22.114 47.72a2.972 2.972 0 0 1 2.693-1.726l14.379-.026a3.002 3.002 0 0 1 2.729 1.75l.046-.11a3 3 0 0 0-2.775-4.144l-14.379.026a2.972 2.972 0 0 0-2.744 4.107l.051.123z" fill="#2a3f4a"></path><path d="M23.215 38.06c.065-.416.386-.703.75-.959.207-.146.455-.227.712-.317a2.919 2.919 0 0 1 1.14-.153c.328-.02.651.011.954.095.217.06.43.112.62.211.508.264.951.604 1.028 1.123a.504.504 0 1 0 1.007 0c.136-.923-.337-1.793-1.094-2.473-.457-.41-1.051-.694-1.693-.857a3.94 3.94 0 0 0-.822-.098 4.139 4.139 0 0 0-1.088.166c-.54.171-1.041.424-1.434.778-.759.684-1.228 1.559-1.087 2.484a.504.504 0 0 0 1.007 0zM35.581 38.06c.066-.416.386-.703.751-.959.206-.146.455-.227.711-.317a2.924 2.924 0 0 1 1.14-.153c.328-.02.651.011.954.095.218.06.43.112.62.211.509.264.951.604 1.028 1.123a.504.504 0 0 0 1.007 0c.136-.923-.336-1.793-1.094-2.473-.457-.41-1.051-.694-1.693-.857a3.932 3.932 0 0 0-.822-.098 4.145 4.145 0 0 0-1.088.166c-.54.171-1.041.424-1.434.778-.758.684-1.228 1.559-1.087 2.484a.504.504 0 0 0 1.007 0z" fill="#354e5b"></path><path d="M25.796 51.367a1 1 0 0 0 .384 1.211A10.656 10.656 0 0 0 32 54.297c2.144 0 4.142-.631 5.82-1.716a1 1 0 0 0 .385-1.212c-.889-2.22-3.318-3.86-6.205-3.86-2.886 0-5.314 1.639-6.204 3.858z" fill="#e40c5b"></path></g></svg>