<svg viewBox="0 0 520 520" xmlns="http://www.w3.org/2000/svg"><g><path d="m457.502 401.322-69.219-69.21-29.181-29.189-56.569 56.569 29.189 29.19 69.21 69.21c15.62 15.62 40.95 15.62 56.569 0 15.622-15.62 15.622-40.95.001-56.57zm-27.5 44.071c-8.289 0-15-6.72-15-15s6.711-15 15-15c8.281 0 15 6.72 15 15s-6.719 15-15 15z" fill="#57606f"></path><path d="m319.272 291.373 25.681 25.689-28.28 28.29-25.69-25.69c-58.81 44.971-143.27 40.58-197.05-13.199-58.58-58.58-58.58-153.561 0-212.14 58.58-58.57 153.56-58.57 212.13 0 53.79 53.79 58.179 138.25 13.209 197.05z" fill="#bce4ff"></path><path d="M270.713 129.683c39.05 39.05 39.05 102.37 0 141.42s-102.37 39.05-141.42 0c-39.06-39.05-39.06-102.37 0-141.42 39.05-39.05 102.37-39.05 141.42 0z" fill="#ffffff"></path><path d="M165.002 390.393c13.8 0 25 11.19 25 25s-11.2 25-25 25c-13.81 0-25-11.19-25-25s11.191-25 25-25z" fill="#68ca44"></path><circle cx="425.002" cy="140.393" fill="#68ca44" r="35"></circle><path d="m359.103 302.923 29.181 29.189-56.561 56.57-29.189-29.19c4.636-4.638 49.505-49.506 56.569-56.569z" fill="#414a56"></path><path d="M457.502 401.322c15.621 15.62 15.621 40.95 0 56.57-15.619 15.62-40.949 15.62-56.569 0l-69.21-69.21 56.561-56.57zm-12.5 29.071c0-8.28-6.719-15-15-15-8.289 0-15 6.72-15 15s6.711 15 15 15c8.281 0 15-6.72 15-15z" fill="#57606f"></path><path d="M177.583 240.113h22.08v20.28h-22.08zM232.363 158.002c2.13 4.27 3.2 9.44 3.2 15.51 0 6.4-1.32 11.77-3.96 16.09-2.64 4.33-6.55 8.12-11.71 11.38a71.27 71.27 0 0 1-7.17 4.21 66.623 66.623 0 0 0-6.65 3.88c-2.03 1.35-3.66 2.86-4.89 4.55-1.24 1.69-1.86 3.71-1.86 6.07h-22.24c0-2.59.16-5.06.5-7.42s.98-4.63 1.94-6.82c.95-2.19 2.33-4.24 4.13-6.16 1.8-1.9 4.15-3.65 7.08-5.22 1.46-.78 3.4-1.83 5.81-3.12 2.42-1.29 4.78-2.78 7.08-4.46 2.3-1.69 4.3-3.63 5.98-5.82 1.69-2.19 2.53-4.63 2.53-7.33 0-3.71-1.35-6.6-4.04-8.68-2.7-2.08-5.79-3.12-9.27-3.12-2.25 0-4.24.42-5.99 1.27-1.74.84-3.31 1.85-4.71 3.03-1.41 1.18-2.62 2.5-3.63 3.96s-1.91 2.75-2.69 3.88l-17.36-12.14c2.92-6.85 7.55-12.19 13.9-16.01s13.51-5.73 21.49-5.73c4.27 0 8.54.62 12.81 1.85 4.27 1.24 8.09 3.21 11.46 5.9 3.37 2.7 6.12 6.18 8.26 10.45z" fill="#ff5987"></path><g fill="#94d4ff"><path d="M462.502 215.393c4.141 0 7.5 3.36 7.5 7.5s-3.359 7.5-7.5 7.5c-4.139 0-7.5-3.36-7.5-7.5s3.361-7.5 7.5-7.5zM412.502 270.393c4.141 0 7.5 3.36 7.5 7.5s-3.359 7.5-7.5 7.5c-4.139 0-7.5-3.36-7.5-7.5s3.361-7.5 7.5-7.5zM362.502 55.393c4.141 0 7.5 3.36 7.5 7.5s-3.359 7.5-7.5 7.5c-4.139 0-7.5-3.36-7.5-7.5s3.361-7.5 7.5-7.5zM302.502 440.393c4.141 0 7.5 3.36 7.5 7.5s-3.359 7.5-7.5 7.5c-4.139 0-7.5-3.36-7.5-7.5s3.361-7.5 7.5-7.5z" fill="#94d4ff"></path><circle cx="72.502" cy="57.893" fill="#94d4ff" r="7.5"></circle><circle cx="62.502" cy="377.893" fill="#94d4ff" r="7.5"></circle><path d="M288.213 293.603a4.998 4.998 0 0 1-3.535-8.535c46.689-46.69 46.689-122.66 0-169.349a5 5 0 1 1 7.07-7.071c50.589 50.589 50.589 132.902 0 183.491a4.99 4.99 0 0 1-3.535 1.464z" fill="#94d4ff"></path></g></g></svg>