<svg id="flat" height="512" viewBox="0 0 340 340" width="512" xmlns="http://www.w3.org/2000/svg"><path d="m64.9 331.066h41.07q63.488-3 128.066 0h41.064s39.526-142.723-105.1-199.507c0 0-139.6 52.907-105.1 199.507z" fill="#343c47"/><path d="m216.635 277.176h-93.27s-12.12 20.69-17.4 53.89h19.478c27.83-2.682 56.36-4.253 88.564 0h20.024c-5.276-33.2-17.396-53.89-17.396-53.89z" fill="#dae5ed"/><path d="m180.736 331.066h33.273c-2.309-6.313-13.009-29.886-44.282-29.886s-41.976 23.573-44.282 29.886h33.819a39.189 39.189 0 0 1 21.472 0z" fill="#8294af"/><path d="m231.136 188.844-44.166-38.72h-33.94l-44.166 38.72c3.227 20.369 17.747 32.873 17.747 32.873l-1.412 48.6 44.8 6.857 44.8-6.857-1.412-48.6s14.522-12.504 17.749-32.873z" fill="#dae5ed"/><path d="m213.915 239.835-.526-18.118a25.319 25.319 0 0 0 -7.515 10.973 17.8 17.8 0 0 1 -10.1 10.4c-5.374 2.212-11.883 4.676-15.358 5.2a129.706 129.706 0 0 1 -20.822 0c-3.116-.47-8.213-2.26-12.719-4.017a18.008 18.008 0 0 1 -10.213-10.61c-2.706-7.214-10.046-11.947-10.046-11.947l-.5 17.064-.916 31.538 38.4 5.878h12.8l38.4-5.878z" fill="#8294af"/><path d="m223.286 272.759-1.573-8.968h-103.426l-1.573 8.968c-.662 3.775.73 7.693 3.471 9.5 18.127 11.914 49.815 12.9 49.815 12.9s31.688-.985 49.815-12.9c2.741-1.807 4.133-5.725 3.471-9.5z" fill="#343c47"/><path d="m116.68 181.992-7.816 6.852a55.442 55.442 0 0 0 6.486 18.387 21.236 21.236 0 0 1 10.128 1.394 31.286 31.286 0 0 0 12.651 2.64c.818 0 1.647-.032 2.463-.095l17.487-1.35a24.229 24.229 0 0 0 11.921-4.185 24.229 24.229 0 0 0 11.921 4.185l17.487 1.35c.816.063 1.645.095 2.463.095a31.286 31.286 0 0 0 12.651-2.64 21.236 21.236 0 0 1 10.128-1.394 55.442 55.442 0 0 0 6.486-18.387l-7.816-6.852-36.35-31.868h-33.94z" fill="#8294af"/><path d="m186.97 150.124h-33.94l-40.972 35.92 1.745 4.414a40.24 40.24 0 0 0 14.891 10.842 23.55 23.55 0 0 0 11.282 1.894l17.487-1.349a16.206 16.206 0 0 0 8.12-2.882 26.335 26.335 0 0 0 4.417-3.863 26.335 26.335 0 0 0 4.417 3.866 16.206 16.206 0 0 0 8.12 2.882l17.487 1.349a23.55 23.55 0 0 0 11.282-1.894 40.24 40.24 0 0 0 14.894-10.845l1.745-4.414z" fill="#dae5ed"/><path d="m169.633 222.076h.734a8.6 8.6 0 0 1 8.6 8.6v64.474a0 0 0 0 1 0 0h-17.936a0 0 0 0 1 0 0v-64.471a8.6 8.6 0 0 1 8.602-8.603z" fill="#343c47"/><path d="m159.264 297.765h21.471v33.301h-21.471z" fill="#fff"/><path d="m170 281.441c-23 2.394-34.971 22.68-34.971 22.68l11.536 9.968c.122-.146.243-.291.365-.434a30.308 30.308 0 0 1 46.14 0c.122.143.243.288.365.434l11.536-9.968s-11.971-20.286-34.971-22.68z" fill="#ffbe57"/><path d="m232.434 233.756a328.887 328.887 0 0 0 -40.42 20.3l9.764 15.939s38.581-2.978 52.241-8.41c0-.002-1.887-19.636-21.585-27.829z" fill="#dae5ed"/><path d="m254.19 262.745s-2.058-20.8-21.756-28.989c0 0-2.962 1.19-7.83 3.389a75.082 75.082 0 0 1 8.618 14.172 5.353 5.353 0 0 1 -3.554 7.462c-5.08 1.265-12.933 3.062-21.861 4.552a4.619 4.619 0 0 1 -4.225-1.543c-5.877-6.686-11.568-7.734-11.568-7.734l3.6 12.816 3.934-.511 2.816 4.6s38.165-2.783 51.826-8.214z" fill="#8294af"/><path d="m192.014 254.054s9.551 7.963 10.354 16.9c0 0 1.1 4.224-5.425 6.945a2.592 2.592 0 0 1 -.546.16c-2.115.385-25.167 7.87-25.167 7.87l-15.73-11.906c2.315-6.632 10.075-15.947 36.514-19.969z" fill="#ffcac0"/><path d="m107.566 233.756a328.887 328.887 0 0 1 40.42 20.3l-10.045 16.4s-38.275-3.1-51.936-8.533c0-.003 1.863-19.974 21.561-28.167z" fill="#dae5ed"/><path d="m107.566 233.756c-19.7 8.193-21.756 28.989-21.756 28.989 13.661 5.431 51.822 8.211 51.822 8.211l10.354-16.9a23.414 23.414 0 0 0 -11.329 6.906 4.7 4.7 0 0 1 -4.4 1.387l-20.417-4.2a5.607 5.607 0 0 1 -3.765-8.247 85.138 85.138 0 0 1 8.535-12.2c-5.586-2.556-9.044-3.946-9.044-3.946z" fill="#8294af"/><path d="m90.584 219.266a12.255 12.255 0 0 1 9.868-1.245 15.847 15.847 0 0 1 8.312 6.152l1.693 2.4a8.415 8.415 0 0 1 -.944 10.828 77.722 77.722 0 0 0 -15.113 21.214 30.746 30.746 0 0 0 -2.184 3.844c-1.667 4.093-10.309 3.774-10.309 3.774-2.761-.956-9.441-5.53-10.034-8.391-1.388-6.706 2.322-15.286 7.362-30.141z" fill="#dae5ed"/><path d="m249.851 219.716-9.626-1.881c-.224.057-.45.118-.677.186a15.847 15.847 0 0 0 -8.312 6.152l-1.693 2.4a8.415 8.415 0 0 0 .944 10.828 77.547 77.547 0 0 1 15.9 22.908s8.093 10.1 19.689-2.466c2.767-3 .674-16.607-4.366-31.462z" fill="#dae5ed"/><g fill="#8294af"><path d="m269.237 258.3c1.388-6.705-2.49-17.06-7.53-31.915l-11.719-8.069a17.211 17.211 0 0 0 -9.761-.468c2.695 2.7 15.555 16.109 19.4 30.312a9.951 9.951 0 0 1 -3.1 11.062 13.232 13.232 0 0 1 -4 1.951 6.914 6.914 0 0 1 -5.424-.384 4.428 4.428 0 0 1 -.727-.475c.356.791.705 1.6 1.04 2.419a8.277 8.277 0 0 0 10.368 4.753l.721-.25c2.766-.961 10.14-6.079 10.732-8.936z"/><path d="m227.1 190.874.846-4.83-40.972-35.92h-26.269c5.846 10 16.232 17.692 30.753 26.57 16.661 10.188 19.9 17.4 25.467 23.165a45.944 45.944 0 0 0 10.175-8.985z"/><path d="m94.405 258.615s-3.486 4.78-10.608 1.847c-.05-.021-.1-.046-.148-.069a7.551 7.551 0 0 1 -3.976-8.557 56.923 56.923 0 0 1 21.859-33.436c-.354-.138-.713-.268-1.08-.378a17.134 17.134 0 0 0 -10.44.29l-11.719 8.068c-5.04 14.855-8.918 25.21-7.53 31.915.592 2.862 7.966 7.98 10.727 8.936l.721.25a8.283 8.283 0 0 0 10.373-4.765c.577-1.416 1.188-2.78 1.822-4.1z"/><path d="m171.632 160.917a143.175 143.175 0 0 1 -20.482 14.074c-12.543 7.2-21.435 16.495-28.9 24.868l-9.883-8.933 16.233-17.942 19.382-12.7 13.036-6.351 6.853-1.321z"/></g><path d="m41.841 331.066h23.059c-1.886-62.224 6.8-95.535 29.74-115.647 11.538-10.116 22.313-21.684 22.313-21.684a104.574 104.574 0 0 1 7.234-7.606 116.4 116.4 0 0 1 27.363-19.169c28.763-14.729 32.948-32.943 32.948-32.943l-30.326-14.77s-7.486 7.412-25.459 12.354c0 0-37.789 5.32-51.827 45.84a93.288 93.288 0 0 1 -13.058 24.925c-11.559 15.634-28.964 52.557-21.987 128.7z" fill="#e54c4c"/><path d="m128.713 131.6s-.333.046-.947.165c3.3 8.735 12.585 25.063 36.29 27.572 17.531-12.717 20.442-25.321 20.442-25.321l-30.326-14.77s-7.486 7.413-25.459 12.354z" fill="#b23232"/><path d="m298.159 331.066h-23.059c1.886-62.224-6.8-95.535-29.74-115.647-11.538-10.116-22.313-21.684-22.313-21.684a104.574 104.574 0 0 0 -7.234-7.606 116.4 116.4 0 0 0 -27.363-19.169 87.677 87.677 0 0 1 -18.457-12.384l-12.387-20.218 28.222-15.111s7.486 7.412 25.459 12.354c0 0 37.789 5.32 51.827 45.84a93.288 93.288 0 0 0 13.058 24.925c11.559 15.634 28.964 52.557 21.987 128.7z" fill="#e54c4c"/><path d="m215.48 132.521a41.027 41.027 0 0 0 -4.193-.92c-17.973-4.942-25.459-12.354-25.459-12.354l-30.328 14.77s2.918 12.637 20.511 25.372c22.556-2.17 34.227-17.168 39.469-26.868z" fill="#b23232"/><path d="m170 106.558h-15.828v21.108a15.828 15.828 0 0 0 31.656 0v-21.108z" fill="#ffcac0"/><path d="m185.828 106.558h-31.656v11.6a42.609 42.609 0 0 0 15.3 3.757l.529.035.529-.035a42.609 42.609 0 0 0 15.3-3.757z" fill="#ea8b88"/><rect fill="#ffbe57" height="29.142" rx="10.736" width="21.471" x="159.264" y="210.585"/><path d="m174 204.459h-8l2.5-28.866a1.51 1.51 0 0 1 3.008 0z" fill="#8294af"/><path d="m218.405 75.557s6.557-25.546-11.186-36.113l-4.508-10.932s-6.164-19.578-32.711-19.578-32.711 19.578-32.711 19.578l-4.508 10.932c-17.743 10.567-11.181 36.113-11.181 36.113-10.242 10.37-8.518 20.217-5.313 26.613a23.3 23.3 0 0 0 14.5 12.018c21.113 5.852 39.213-20.66 39.213-20.66s18.1 26.512 39.215 20.66a23.3 23.3 0 0 0 14.5-12.018c3.208-6.396 4.932-16.243-5.31-26.613z" fill="#e87a5d"/><path d="m134.239 35.909-1.458 3.535a24.053 24.053 0 0 0 -2.568 1.779c3.019 4.703 14.141 18.677 39.787 18.677 24.51 0 36.658-12.763 40.613-18a23.932 23.932 0 0 0 -3.394-2.455l-.814-1.973c-13.824 4.121-49.615 12.628-72.166-1.563z" fill="#af4e3e"/><path d="m202.167 86.578v-9.605a4.133 4.133 0 0 1 3.226-4.031 22.123 22.123 0 0 0 3.558-1.119 1.221 1.221 0 0 0 -.173-2.31c-5.217-1.32-11.06-3.509-11.06-3.509l-27.718 3.236-27.718-3.24s-5.843 2.189-11.06 3.509a1.221 1.221 0 0 0 -.173 2.31 22.123 22.123 0 0 0 3.558 1.119 4.133 4.133 0 0 1 3.226 4.031v9.605s-1.433 16.126-19.485 18.963a23.177 23.177 0 0 0 12.437 8.651c21.115 5.852 39.215-20.66 39.215-20.66s18.1 26.512 39.215 20.66a23.177 23.177 0 0 0 12.437-8.651c-18.052-2.837-19.485-18.959-19.485-18.959z" fill="#af4e3e"/><path d="m181.21 49.3h-22.42s-5.967 11.334-16.508 16.7v20.85a26.26 26.26 0 0 0 9.264 20.269c4.141 3.434 10.056 6.257 18.454 6.814 8.4-.557 14.312-3.38 18.454-6.814a26.26 26.26 0 0 0 9.264-20.269v-20.85c-10.541-5.366-16.508-16.7-16.508-16.7z" fill="#ffcac0"/><path d="m152.921 57.5a58.136 58.136 0 0 0 17.079 2.4 59.95 59.95 0 0 0 17.114-2.365 46.533 46.533 0 0 1 -5.9-8.236h-22.424a46.493 46.493 0 0 1 -5.869 8.201z" fill="#ea8b88"/><path d="m209.925 29.462a5.633 5.633 0 0 0 -7.376-.841 84.4 84.4 0 0 1 -18.95 9.626c-2.057-9.614-13.6-9.833-13.6-9.833s-11.542.219-13.6 9.833a84.4 84.4 0 0 1 -18.95-9.626 5.633 5.633 0 0 0 -7.376.841 5.5 5.5 0 0 0 .009 7.256c9.414 10.5 23.54 14.6 32.219 16.184a42.954 42.954 0 0 0 15.394 0c8.679-1.581 22.805-5.681 32.219-16.184a5.5 5.5 0 0 0 .011-7.256z" fill="#ffbe57"/><path d="m161.267 81.661a3.99 3.99 0 0 1 -1.787-.423 7.831 7.831 0 0 0 -2.206-.717 4 4 0 0 1 .924-7.947 15.4 15.4 0 0 1 4.861 1.508 4 4 0 0 1 -1.792 7.579z" fill="#dd7a7a"/><path d="m170 281.441a42.7 42.7 0 0 0 -15.246 4.6 39.358 39.358 0 0 1 10.412 6.9 10.9 10.9 0 0 0 10.806 2.511 21.612 21.612 0 0 0 11.028-8.452 43.027 43.027 0 0 0 -17-5.559z" fill="#ef923f"/><path d="m178.733 81.661a4 4 0 0 1 -1.792-7.579 15.4 15.4 0 0 1 4.861-1.508 4 4 0 0 1 .92 7.947 7.909 7.909 0 0 0 -2.2.717 3.99 3.99 0 0 1 -1.789.423z" fill="#dd7a7a"/><circle cx="170" cy="40.612" fill="#ef923f" r="5.389"/><path d="m44.924 248.31c-4.286 20.268-6.337 47.245-3.083 82.756h23.059c-.594-19.589-.137-36.307 1.479-50.655a95.456 95.456 0 0 1 -21.455-32.101z" fill="#b23232"/><path d="m298.159 331.066c3.129-34.154 1.352-60.411-2.6-80.4a99.567 99.567 0 0 1 -21.874 30.274c1.569 14.23 2.006 30.779 1.42 50.127z" fill="#b23232"/><path d="m155.5 274.023 15.728 11.908s12.335-4 19.786-6.306c1.745-11.9-15.162-21.737-15.242-21.783-13.662 4.633-18.523 11.172-20.272 16.181z" fill="#ea8b88"/><path d="m147.986 254.054s-9.551 7.963-10.354 16.9c0 0-.761 2.93 2.753 5.482a11.118 11.118 0 0 0 4.176 1.816 57.024 57.024 0 0 1 21.415 10 9.534 9.534 0 0 0 11.782-.18l3.2-2.605a9.491 9.491 0 0 0 2.122-12.332c-4.62-7.469-14.656-17.851-35.094-19.081z" fill="#ffcac0"/></svg>