<svg viewBox="0 0 512 512" xmlns="http://www.w3.org/2000/svg"><g><path d="m212.751 252.292 28.43 134.202h29.638l28.43-134.202z" fill="#ddebfd"></path><path d="m397.182 222.222-10.15-35.174-9.167 8.816c-7.338 7.057-18.02 9.428-27.633 6.074-14.862-5.186-31.379-9.182-49.055-11.724-14.383-2.061-29.535-3.166-45.178-3.166s-30.795 1.105-45.178 3.166c-17.676 2.541-34.193 6.537-49.055 11.724-9.613 3.355-20.294.984-27.633-6.074l-9.167-8.816-10.15 35.174v30.709l105.606 14.496h71.152l105.606-14.496v-30.709z" fill="#766d78"></path><path d="m316.75 225.706-3.58 24.844a38.387 38.387 0 0 1-5.292 14.641c-6.81 11.075-19.035 18.305-32.746 18.305h-38.264c-13.711 0-25.936-7.23-32.746-18.305a38.387 38.387 0 0 1-5.292-14.641l-3.58-24.844c-1.563-10.886 1.797-21.21 8.282-28.889 3.575-4.234 8.695-6.852 14.197-7.512 12.299-1.475 25.112-2.257 38.271-2.257 13.16 0 25.972.782 38.271 2.257 5.502.66 10.621 3.279 14.197 7.512 6.485 7.679 9.845 18.003 8.282 28.889z" fill="#a29aa5"></path><path d="M310.812 244.48c-7.195 11.701-20.111 19.34-34.598 19.34h-40.428c-14.486 0-27.403-7.639-34.598-19.34a40.533 40.533 0 0 1-5.028-12.459l2.67 18.528a38.387 38.387 0 0 0 5.292 14.641c6.81 11.075 19.035 18.305 32.746 18.305h38.264c13.711 0 25.936-7.23 32.746-18.305a38.387 38.387 0 0 0 5.292-14.641l2.67-18.528a40.547 40.547 0 0 1-5.028 12.459z" fill="#8c818f"></path><circle cx="256" cy="233.065" fill="#bed9fd" r="16.053"></circle><path d="M256 54.497c-93.823 0-169.881 76.058-169.881 169.881S162.177 394.258 256 394.258s169.881-76.058 169.881-169.88S349.823 54.497 256 54.497zm0 303.35c-73.713 0-133.469-59.756-133.469-133.47S182.287 90.908 256 90.908s133.469 59.756 133.469 133.47S329.713 357.847 256 357.847z" fill="#8c818f"></path><path d="M256 370.576c-89.841 0-163.382-69.743-169.463-158.039-.27 3.913-.418 7.86-.418 11.841 0 93.823 76.058 169.881 169.881 169.881S425.881 318.2 425.881 224.378c0-3.982-.148-7.928-.418-11.841-6.081 88.296-79.622 158.039-169.463 158.039z" fill="#766d78"></path><path d="m67.977 255.03-26.794-54.149c-11.1-22.432-2.493-49.627 19.492-61.588l4.253-2.314 19.628-18.145c9.262-8.562 24.219-5.3 29.074 6.342l18.425 43.071c.425.993 1.81 1.056 2.322.104l10.538-19.567a5.417 5.417 0 0 1 7.317-2.215l6.725 3.582c11.161 5.945 16.072 19.329 11.404 31.082l-62.848 158.26-57.963-19.905z" fill="#ffcdbe"></path><path d="m60.675 139.294 4.253-2.314 1.293-1.195c-8.31 13.28-9.71 30.404-2.288 45.405l25.607 51.751a6.9 6.9 0 0 1 .446 4.97l-25.749 86.722-14.688-5.044 18.427-64.557-26.794-54.149c-11.099-22.434-2.492-49.628 19.493-61.589z" fill="#ebae9d"></path><path d="M47.325 290.86.288 426.354a5.179 5.179 0 0 0 3.194 6.591l69.911 24.27a5.179 5.179 0 0 0 6.591-3.194l47.037-135.494a5.43 5.43 0 0 0-3.349-6.91l-69.438-24.105a5.428 5.428 0 0 0-6.909 3.348z" fill="#df646e"></path><path d="M47.325 290.86a5.43 5.43 0 0 1 6.91-3.349l22.495 7.809c-2.638-.916-5.574.638-6.558 3.471L21.436 439.178l-17.954-6.233a5.179 5.179 0 0 1-3.194-6.591z" fill="#dc4955"></path><path d="m444.023 255.03 26.794-54.149c11.1-22.432 2.493-49.627-19.492-61.588l-4.253-2.314-19.628-18.145c-9.262-8.562-24.219-5.3-29.074 6.342l-18.425 43.071c-.425.993-1.81 1.056-2.322.104l-10.538-19.567a5.417 5.417 0 0 0-7.317-2.215l-6.725 3.582c-11.161 5.945-16.072 19.329-11.404 31.082l62.848 158.26 57.964-19.907z" fill="#ffcdbe"></path><path d="m451.325 139.294-4.253-2.314-1.293-1.195c8.31 13.28 9.71 30.404 2.288 45.405l-25.607 51.751a6.9 6.9 0 0 0-.446 4.97l25.749 86.722 14.688-5.044-18.427-64.557 26.794-54.149c11.099-22.434 2.492-49.628-19.493-61.589z" fill="#ebae9d"></path><path d="m464.675 290.86 47.037 135.494a5.179 5.179 0 0 1-3.194 6.591l-69.911 24.27a5.179 5.179 0 0 1-6.591-3.194l-47.037-135.494a5.43 5.43 0 0 1 3.349-6.91l69.438-24.105a5.428 5.428 0 0 1 6.909 3.348z" fill="#df646e"></path><path d="M464.675 290.86a5.43 5.43 0 0 0-6.91-3.349l-22.495 7.809c2.638-.916 5.574.638 6.558 3.471l48.735 140.387 17.954-6.233a5.179 5.179 0 0 0 3.194-6.591z" fill="#dc4955"></path></g></svg>