<svg viewBox="0 0 512 512" xmlns="http://www.w3.org/2000/svg"><g><g fill="#453d81"><path d="M471 90h-30c-8.284 0-15-6.716-15-15s6.716-15 15-15h30c8.284 0 15 6.716 15 15s-6.716 15-15 15zM456 150h-15c-8.284 0-15-6.716-15-15s6.716-15 15-15h15c8.284 0 15 6.716 15 15s-6.716 15-15 15zM471 210h-30c-8.284 0-15-6.716-15-15s6.716-15 15-15h30c8.284 0 15 6.716 15 15s-6.716 15-15 15zM456 270h-15c-8.284 0-15-6.716-15-15s6.716-15 15-15h15c8.284 0 15 6.716 15 15s-6.716 15-15 15zM471 330h-30c-8.284 0-15-6.716-15-15s6.716-15 15-15h30c8.284 0 15 6.716 15 15s-6.716 15-15 15z" fill="#453d81"></path></g><path d="M216 407c0 57.99 47.01 105 105 105s105-47.01 105-105c0-33.445-15.638-63.236-40-82.465V65c0-35.898-29.101-65-65-65-35.898 0-65 29.101-65 65v259.536c-24.362 19.228-40 49.019-40 82.464z" fill="#e2dff4"></path><path d="M426 407c0-33.445-15.638-63.236-40-82.465V65c0-35.898-29.101-65-65-65v512c57.99 0 105-47.01 105-105z" fill="#bebcdd"></path><path d="M321 482c-41.355 0-75-33.645-75-75 0-23.103 10.419-44.577 28.586-58.916L286 339.076V65c0-19.299 15.701-35 35-35s35 15.701 35 35v274.076l11.414 9.008C385.581 362.423 396 383.897 396 407c0 41.355-33.645 75-75 75z" fill="#f9f9f9"></path><path d="M321 482c41.355 0 75-33.645 75-75 0-23.103-10.419-44.577-28.586-58.916L356 339.076V65c0-19.299-15.701-35-35-35z" fill="#e2dff4"></path><path d="M336 364.58V195c0-8.284-6.716-15-15-15s-15 6.716-15 15v169.58c-17.459 6.192-30 22.865-30 42.42 0 24.813 20.187 45 45 45s45-20.187 45-45c0-19.555-12.541-36.228-30-42.42z" fill="#ff7d47"></path><path d="M336 364.58V195c0-8.284-6.716-15-15-15v272c24.813 0 45-20.187 45-45 0-19.555-12.541-36.228-30-42.42z" fill="#ff405c"></path><path d="M96 255V111.213l14.393 14.393c5.858 5.858 15.355 5.858 21.213 0 5.858-5.858 5.858-15.355 0-21.213l-40-40c-5.858-5.858-15.355-5.858-21.213 0l-40 40c-5.858 5.858-5.858 15.355 0 21.213 5.858 5.858 15.355 5.858 21.213 0L66 111.213V255c0 8.284 6.716 15 15 15s15-6.716 15-15z" fill="#ff7d47"></path><path d="M191.607 324.393c-5.858-5.858-15.355-5.858-21.213 0L156 338.787V195c0-8.284-6.716-15-15-15s-15 6.716-15 15v143.787l-14.393-14.393c-5.858-5.858-15.355-5.858-21.213 0-5.858 5.858-5.858 15.355 0 21.213l40 40c5.858 5.858 15.355 5.858 21.213 0l40-40c5.857-5.858 5.857-15.356 0-21.214z" fill="#8bb9ff"></path><path d="m131.606 104.394-40-40A14.946 14.946 0 0 0 81 60v210c8.284 0 15-6.716 15-15V111.213l14.393 14.393c5.858 5.858 15.355 5.858 21.213 0 5.858-5.857 5.858-15.355 0-21.212z" fill="#ff405c"></path><path d="m191.606 345.606-40 40A14.946 14.946 0 0 1 141 390V180c8.284 0 15 6.716 15 15v143.787l14.393-14.393c5.858-5.858 15.355-5.858 21.213 0 5.858 5.857 5.858 15.355 0 21.212z" fill="#7d81e7"></path></g></svg>