<svg id="Capa_1" enable-background="new 0 0 512 512" height="512" viewBox="0 0 512 512" width="512" xmlns="http://www.w3.org/2000/svg"><g><path d="m235.355 247.742h16.516v82.581h-16.516z" fill="#fbbd80"/><path d="m86.71 300.71-63.645-63.645 11.677-11.678 51.968 51.968 68.484-68.484 11.677 11.677z" fill="#e1f5fb"/><path d="m375.742 275.935-56.218-56.217 11.678-11.678 44.54 44.541 93.258-93.258 11.677 11.677z" fill="#e1f5fb"/><circle cx="243.613" cy="132.129" fill="#ffe09c" r="132.129"/><path d="m331.169 33.362c20.693 23.324 33.362 53.924 33.362 87.556 0 72.973-59.156 132.129-132.129 132.129-33.632 0-64.233-12.67-87.556-33.362 24.205 27.283 59.426 44.573 98.767 44.573 72.973 0 132.129-59.156 132.129-132.129 0-39.341-17.29-74.561-44.573-98.767z" fill="#ffd18d"/><path d="m243.613 33.032c-54.73 0-99.097 44.367-99.097 99.097 0 24.392 8.815 46.724 23.43 63.989l11.249.46.419 11.213c17.266 14.619 39.603 23.435 63.999 23.435 24.392 0 46.726-8.813 63.992-23.429l1.908-10.106 9.772-1.575c14.614-17.264 23.425-39.597 23.425-63.987 0-54.73-44.367-99.097-99.097-99.097z" fill="#e1f5fb"/><g fill="#fff"><path d="m243.613 120.452 63.937 63.934c11.649-14.235 18.643-32.428 18.643-52.257 0-45.608-36.973-82.581-82.581-82.581s-82.581 36.973-82.581 82.581c0 19.83 6.995 38.022 18.645 52.258z"/><path d="m243.613 143.807-52.258 52.258c14.236 11.649 32.428 18.645 52.258 18.645 19.831 0 38.024-6.996 52.26-18.646z"/></g><path d="m259.449 363.355h-24.094c-9.122 0-16.516-7.395-16.516-16.516v-16.516c0-9.122 7.395-16.516 16.516-16.516h16.516l7.578 16.516z" fill="#ffe09c"/><circle cx="375.742" cy="264.258" fill="#ff5f7a" r="16.516"/><circle cx="28.903" cy="231.226" fill="#ff5f7a" r="16.516"/><path d="m251.871 313.806c9.122 0 16.516 7.395 16.516 16.516v16.516l-16.516 14.753z" fill="#ffd18d"/><path d="m218.839 346.839v148.645l11.506 8.587h29.973v-148.561l-8.447-8.671z" fill="#736572"/><path d="m235.355 512h16.516c9.122 0 16.516-7.395 16.516-16.516v-148.645h-16.516v132.129c0 9.122-7.395 16.516-16.516 16.516h-16.516c0 9.121 7.394 16.516 16.516 16.516z" fill="#615260"/><path d="m179.677 184.387-11.731 11.731c3.563 4.21 7.458 8.11 11.668 11.673l11.74-11.726c-4.27-3.495-8.182-7.407-11.677-11.678z" fill="#a5e3f0"/><path d="m295.873 196.063 11.732 11.733c4.209-3.564 8.116-7.471 11.68-11.681l-11.734-11.731c-3.496 4.273-7.407 8.185-11.678 11.679z" fill="#a5e3f0"/><path d="m273.838 132.129c0-17.542-13.605-28.553-13.605-28.553-4.882-2.848-10.561-4.48-16.62-4.48-18.243 0-33.032 14.789-33.032 33.032 0 6.038 1.62 11.697 4.448 16.567 0 0 9.614 13.131 28.584 13.131 18.243.001 30.225-11.454 30.225-29.697z" fill="#b8eb7c"/><path d="m497.353 165.131c0-14.101-11.838-22.397-11.838-22.397-3.214-1.524-6.809-2.377-10.603-2.377-13.682 0-24.774 11.092-24.774 24.774 0 3.789.851 7.379 2.371 10.59 0 0 10.527 11.146 22.403 11.146 13.682 0 22.441-8.054 22.441-21.736z" fill="#ffe077"/><path d="m109.15 289.032c0-14.101-11.838-22.397-11.838-22.397-3.214-1.524-6.809-2.377-10.603-2.377-13.682 0-24.774 11.092-24.774 24.774 0 3.789.851 7.379 2.371 10.59 0 0 10.527 11.146 22.403 11.146 13.683 0 22.441-8.053 22.441-21.736z" fill="#ffe077"/><path d="m260.233 103.576c2.824 4.867 4.417 10.526 4.417 16.558 0 18.243-14.789 33.032-33.032 33.032-6.032 0-11.722-1.647-16.589-4.471 5.717 9.853 16.372 16.466 28.584 16.466 18.243 0 33.032-14.789 33.032-33.032 0-12.212-6.558-22.836-16.412-28.553z" fill="#98db7c"/><g fill="#ffd05b"><path d="m97.313 266.635c1.524 3.214 2.4 6.833 2.4 10.626 0 13.682-11.092 24.774-24.774 24.774-3.793 0-7.419-.89-10.632-2.414 3.972 8.379 12.514 14.184 22.403 14.184 13.682 0 24.774-11.092 24.774-24.774 0-9.888-5.792-18.423-14.171-22.396z"/><path d="m485.515 142.734c1.524 3.214 2.327 6.864 2.327 10.657 0 13.682-11.092 24.774-24.774 24.774-3.793 0-7.346-.92-10.559-2.444 3.972 8.379 12.441 14.215 22.33 14.215 13.682 0 24.774-11.092 24.774-24.774 0-9.89-5.719-18.456-14.098-22.428z"/></g></g></svg>