<svg viewBox="0 0 512 512" xmlns="http://www.w3.org/2000/svg"><g><path d="m248.25 127.52-62.957-13.73L15 154.972l182.883 50.207h100.734L481.5 154.973l-170.29-41.184zm0 0" fill="#845fa6"></path><path d="M298.617 205.18 481.5 154.973l-170.29-41.184-62.96 13.73v77.66zm0 0" fill="#553275"></path><path d="M248.25 325.297c-42.973 0-82.754-8.668-118.234-25.758-28.446-13.7-54.118-32.781-76.305-56.707-37.688-40.64-52.254-81.164-52.856-82.871a14.995 14.995 0 0 1 3.168-15.211 14.994 14.994 0 0 1 14.95-4.242l180.933 49.672h96.692l180.933-49.672a14.996 14.996 0 0 1 14.946 4.242 14.987 14.987 0 0 1 3.168 15.21c-.602 1.708-15.168 42.231-52.856 82.872-22.187 23.926-47.86 43.008-76.305 56.707-35.48 17.09-75.261 25.758-118.234 25.758zm0 0" fill="#ff8088"></path><path d="M477.531 140.508 296.598 190.18H248.25v135.117c42.973 0 82.754-8.668 118.234-25.758 28.446-13.7 54.118-32.781 76.305-56.707 37.688-40.64 52.258-81.164 52.856-82.871a14.985 14.985 0 0 0-3.168-15.211 14.996 14.996 0 0 0-14.946-4.242zm0 0" fill="#ef3e60"></path><path d="M481.5 169.973c-1.172 0-2.355-.141-3.523-.422L311.035 129.18l-59.586 12.992c-2.105.46-4.289.46-6.39 0l-59.59-12.992-166.942 40.37A15.002 15.002 0 0 1 .375 151.64C22.461 54.685 161.66 3.056 167.575.903a15.005 15.005 0 0 1 10.25 0l70.425 25.594L318.676.902a15.002 15.002 0 0 1 10.945.274c5.063 2.133 124.484 53.289 165.633 147.808a15.004 15.004 0 0 1-13.754 20.989zm0 0" fill="#ffb5b5"></path><path d="m251.445 142.172 59.59-12.992 166.942 40.37c1.168.282 2.351.423 3.523.423a15.004 15.004 0 0 0 13.754-20.988C454.105 54.464 334.684 3.308 329.62 1.174A14.992 14.992 0 0 0 318.68.903l-70.43 25.594v116.02c1.074 0 2.145-.114 3.195-.344zm0 0" fill="#ff8088"></path><path d="M169.273 511.996V95.918c0-8.285 6.715-15 15-15h37.957c57.895 0 104.997 47.102 104.997 105V512zm0 0" fill="#ffdaab"></path><path d="m188.262 242.02 14.097-8.934c22.446-14.223 36.043-38.914 36.043-65.445V82.164a105.137 105.137 0 0 0-16.172-1.246h-37.957c-8.285 0-15 6.715-15 15v155.809l11.887-5.754a70.836 70.836 0 0 0 7.102-3.953zm0 0" fill="#fffae7"></path><path d="M248.25 84.184v427.812l78.977.004V185.918c0-48.918-33.625-90.129-78.977-101.734zm0 0" fill="#ffbe85"></path></g></svg>