<svg viewBox="0 0 512 512" xmlns="http://www.w3.org/2000/svg"><g><path d="M256 102.43a7.725 7.725 0 0 1-7.726-7.726V43.047a7.726 7.726 0 1 1 15.452 0v51.656A7.726 7.726 0 0 1 256 102.43zM467.482 263.726h-50.949a7.726 7.726 0 1 1 0-15.452h50.949c4.268 0 7.726 3.459 7.726 7.726s-3.458 7.726-7.726 7.726zM98.603 263.726h-55.63a7.726 7.726 0 1 1 0-15.452h55.63a7.726 7.726 0 1 1 0 15.452zM365.788 153.939a7.727 7.727 0 0 1-5.464-13.19l65.123-65.122a7.728 7.728 0 0 1 10.928 10.927l-65.123 65.122a7.71 7.71 0 0 1-5.464 2.263zM145.55 153.276a7.706 7.706 0 0 1-5.464-2.263L79.6 90.527A7.727 7.727 0 0 1 90.528 79.6l60.487 60.486a7.727 7.727 0 0 1-5.465 13.19zM256 476.68a7.725 7.725 0 0 1-7.726-7.726v-51.656a7.726 7.726 0 1 1 15.452 0v51.656A7.726 7.726 0 0 1 256 476.68zM430.91 438.636a7.706 7.706 0 0 1-5.464-2.263l-65.123-65.122a7.727 7.727 0 0 1 10.928-10.927l65.123 65.122a7.727 7.727 0 0 1-5.464 13.19zM85.063 434.663a7.727 7.727 0 0 1-5.464-13.19l60.487-60.486a7.727 7.727 0 1 1 10.928 10.927L90.527 432.4a7.708 7.708 0 0 1-5.464 2.263z" fill="#595959"></path><circle cx="256" cy="256" fill="#fce25c" r="166.504"></circle><path d="M362.791 128.278c24.19 28.905 38.763 66.131 38.763 106.771 0 91.958-74.547 166.504-166.504 166.504-40.64 0-77.866-14.573-106.771-38.762 30.543 36.491 76.413 59.713 127.722 59.713 91.958 0 166.504-74.546 166.504-166.504-.001-51.308-23.223-97.179-59.714-127.722z" fill="#fbd307"></path><circle cx="459.967" cy="52.033" fill="#7fd061" r="52.033"></circle><path d="M488.61 8.598a51.776 51.776 0 0 1 8.598 28.642c0 28.737-23.296 52.033-52.033 52.033a51.776 51.776 0 0 1-28.642-8.598c9.31 14.09 25.283 23.39 43.434 23.39 28.737 0 52.033-23.296 52.033-52.033 0-18.151-9.301-34.124-23.39-43.434z" fill="#51be26"></path><circle cx="52.033" cy="52.033" fill="#7fd061" r="52.033"></circle><g fill="#b9e4ef"><circle cx="256" cy="26.016" fill="#b9e4ef" r="26.016"></circle><circle cx="485.984" cy="256" fill="#b9e4ef" r="26.016"></circle><circle cx="26.016" cy="256" fill="#b9e4ef" r="26.016"></circle><circle cx="256" cy="485.984" fill="#b9e4ef" r="26.016"></circle></g><path d="M80.675 8.598a51.776 51.776 0 0 1 8.598 28.642c0 28.737-23.296 52.033-52.033 52.033a51.776 51.776 0 0 1-28.642-8.598c9.31 14.09 25.283 23.39 43.434 23.39 28.737 0 52.033-23.296 52.033-52.033 0-18.151-9.301-34.124-23.39-43.434z" fill="#51be26"></path><circle cx="459.967" cy="459.967" fill="#7fd061" r="52.033"></circle><path d="M488.61 416.533a51.776 51.776 0 0 1 8.598 28.642c0 28.737-23.296 52.033-52.033 52.033a51.776 51.776 0 0 1-28.642-8.598c9.31 14.09 25.283 23.39 43.434 23.39C488.704 512 512 488.704 512 459.967c0-18.151-9.301-34.124-23.39-43.434z" fill="#51be26"></path><circle cx="52.033" cy="459.967" fill="#7fd061" r="52.033"></circle><path d="M80.675 416.533a51.776 51.776 0 0 1 8.598 28.642c0 28.737-23.296 52.033-52.033 52.033a51.776 51.776 0 0 1-28.642-8.598C17.908 502.7 33.881 512 52.032 512c28.737 0 52.033-23.296 52.033-52.033 0-18.151-9.301-34.124-23.39-43.434z" fill="#51be26"></path><path d="m191.85 304.298 29.68-9.684 24.764 47.504c2.354 4.516.09 10.065-4.752 11.645l-13.794 4.501a8.242 8.242 0 0 1-9.865-4.025z" fill="#9b9b9b"></path><path d="m189.04 228.589 22.596 69.252 117.338.745c7.031.045 12.04-6.812 9.859-13.497l-39.554-121.222c-2.181-6.685-10.27-9.268-15.922-5.085z" fill="#eff3f5"></path><path d="m159.261 238.306 29.779-9.717 22.596 69.252-29.779 9.717c-5.409 1.765-11.224-1.189-12.989-6.598l-16.205-49.665c-1.765-5.409 1.189-11.224 6.598-12.989z" fill="#fb636f"></path><path d="m307.758 189.853 15.829-5.165c5.464-1.783 11.338 1.201 13.121 6.665l16.14 49.466c1.783 5.464-1.201 11.338-6.665 13.121l-15.829 5.165z" fill="#9b9b9b"></path></g></svg>