<svg viewBox="0 0 512 512" xmlns="http://www.w3.org/2000/svg"><g><g fill="#fed843"><circle cx="256" cy="256" fill="#fed843" r="140.718"></circle><path d="M81.679 256c0-8.284-6.716-15-15-15H15c-8.284 0-15 6.716-15 15s6.716 15 15 15h51.679c8.284 0 15-6.716 15-15zM96.194 74.981c-5.857-5.857-15.355-5.857-21.213 0s-5.858 15.355 0 21.213l36.542 36.542c2.929 2.929 6.768 4.394 10.606 4.394s7.678-1.465 10.606-4.394c5.858-5.857 5.858-15.355 0-21.213zM256 0c-8.284 0-15 6.716-15 15v51.679c0 8.284 6.716 15 15 15s15-6.716 15-15V15c0-8.284-6.716-15-15-15z" fill="#fed843"></path></g><path d="M389.871 137.13a14.95 14.95 0 0 0 10.606-4.394l36.542-36.542c5.858-5.857 5.858-15.355 0-21.213-5.857-5.857-15.355-5.857-21.213 0l-36.542 36.542c-5.858 5.857-5.858 15.355 0 21.213a14.954 14.954 0 0 0 10.607 4.394zM497 241h-51.678c-8.284 0-15 6.716-15 15s6.716 15 15 15H497c8.284 0 15-6.716 15-15s-6.716-15-15-15zM400.478 379.265c-5.857-5.857-15.355-5.857-21.213 0s-5.858 15.355 0 21.213l36.542 36.542c2.929 2.929 6.768 4.394 10.606 4.394s7.678-1.465 10.606-4.394c5.858-5.857 5.858-15.355 0-21.213z" fill="#fabe2c"></path><path d="M256 430.322c-8.284 0-15 6.716-15 15V497c0 8.284 6.716 15 15 15s15-6.716 15-15v-51.678c0-8.284-6.716-15-15-15zM111.523 379.265l-36.542 36.542c-5.858 5.857-5.858 15.355 0 21.213 2.929 2.929 6.768 4.394 10.606 4.394s7.678-1.465 10.606-4.394l36.542-36.542c5.858-5.857 5.858-15.355 0-21.213-5.856-5.858-15.354-5.858-21.212 0z" fill="#fed843"></path><path d="M256.406 430.343v81.637C264.501 511.762 271 505.147 271 497v-51.678c0-8.147-6.499-14.762-14.594-14.979zM256.406.021v81.638c8.095-.218 14.594-6.833 14.594-14.98V15C271 6.853 264.501.238 256.406.021zM256 115.283c-.073 0-.144.003-.217.003v281.429c.073 0 .144.003.217.003 77.592 0 140.718-63.126 140.718-140.718S333.592 115.283 256 115.283z" fill="#fabe2c"></path></g></svg>