<svg viewBox="0 0 66 66" xmlns="http://www.w3.org/2000/svg"><g><path d="M65 24.9c0 2.3-1.8 4.2-4.2 4.2H48.1c1.7 2.7.9 6.3-2.8 7.1 1.7 2.6.5 6.3-2.8 6.9.4.8.7 1.7.7 2.6 0 2-1.8 3.5-3.8 3.5H17.7V21.9c.7-.3 1.4-.6 2-1 5-2.7 7.8-6.6 12.6-11.1 1.8-1.7 4.7-1.5 6.1.5.5.7.8 1.5.8 2.4 0 1-.4 2-1.1 2.8l-3.5 3.7c-.5.6-.1 1.5.7 1.5h25.6c2.2 0 4.1 1.9 4.1 4.2z" fill="#ffaf57"></path><path d="M19.8 21.5v27.6h-2.1V21.9c.7-.3 1.4-.6 2-1 .1.2.1.4.1.6z" fill="#48495b" opacity=".1"></path><path d="M17.7 21.5V49c0 1.5-1.2 2.7-2.7 2.7H3.7C2.2 51.7 1 50.5 1 49V21.5c0-1.5 1.2-2.7 2.7-2.7H15c1.5 0 2.7 1.2 2.7 2.7z" fill="#48495b"></path><path d="M12.6 27.9c0 1.8-1.4 3.2-3.2 3.2s-3.2-1.4-3.2-3.2 1.4-3.2 3.2-3.2c1.7-.1 3.2 1.4 3.2 3.2z" fill="#ffffff"></path><path d="M61 38.7c0 2-1.6 3.7-3.7 3.7-2 0-3.7-1.6-3.7-3.7 0-1.5 1.9-4.2 3-5.6.4-.5 1.1-.5 1.4 0 1.1 1.4 3 4.2 3 5.6zM54.8 53.3c0 2.3-1.9 4.2-4.2 4.2s-4.1-1.9-4.1-4.2c0-1.6 2.1-4.7 3.3-6.4.4-.5 1.2-.5 1.6 0 1.2 1.6 3.4 4.7 3.4 6.4zM55.5 29c-.1-.8-.3-4.3 2-5.5.5-.3 1.1-.1 1.4.5.3.5.1 1.1-.5 1.4-.9.5-1 2.5-.9 3.5v.1z" fill="#f95353"></path></g></svg>