<svg viewBox="0 0 68 68" xmlns="http://www.w3.org/2000/svg"><g><path d="M53.232 66H14.348a7.982 7.982 0 0 1-7.982-7.982V9.982A7.982 7.982 0 0 1 14.348 2h38.884a7.982 7.982 0 0 1 7.982 7.982v48.036A7.982 7.982 0 0 1 53.232 66z" fill="#eff6ff"></path><path d="M8.925 14.305h49.849v42.237H8.925zM17.262 8.52a4.017 4.017 0 1 1-8.035-.003 4.017 4.017 0 0 1 8.035.003z" fill="#ffffff"></path><circle cx="13.245" cy="7.088" fill="#d9e5f1" r="1.119"></circle><path d="M15.76 10.534a2.632 2.632 0 0 0-5.03 0zM19.345 6.304h22.444V7.89H19.345zM19.345 9.148h8.679v1.586h-8.679zM14.547 60.91c0 1.398-2.027 2.605-2.027 2.605s-2.033-1.207-2.033-2.605a1.311 1.311 0 0 1 2.033-1.092c.205-.138.455-.218.72-.218a1.31 1.31 0 0 1 1.307 1.31zM20.956 61.364c0 .732-.594 1.307-1.308 1.307h-1.957l-.889.483a.138.138 0 0 1-.204-.12v-.37a1.304 1.304 0 0 1 .12-2.602h2.93c.725 0 1.308.583 1.308 1.302zM24.11 63.461l-.484-1.507a.129.129 0 0 0-.081-.082l-1.508-.483c-.095-.03-.119-.16-.035-.19l3.323-1.17c.08-.027.171.065.144.144l-1.17 3.323c-.03.084-.159.06-.19-.035z" fill="#d9e5f1"></path><path d="M39.435 56.542c-.124-3.748-.235-7.263-.22-7.395l-6.596-4.365-3.263 6.09.707 5.67z" fill="#29275c"></path><path d="m31.93 56.542 2.43-8.552-13.11 1.444-.405 7.108z" fill="#393982"></path><path d="M52.748 23.005s-2.196 13.574-6.984 15.643c-4.685 2.025-10.212-6.4-10.212-6.4l2.478-8.998c.276.078 4.691 1.905 6.523 6.045l4.561-9z" fill="#fc942c"></path><path d="M39.952 24.536c-3.711-3.668-16.83-4.204-19.622.276-1.684 2.702.379 24.622.379 24.622 0 1.236 18.904 1.883 18.904.648 0 0 3.058-22.858.34-25.546z" fill="#feb630"></path><path d="M21.79 23.42c-2.451.737-9.237 14.012-7.446 17.145 3.132 5.476 16.85 1.218 16.85 1.218l.278-4.342-9.379-1.364s5.977-14.546-.303-12.658z" fill="#fc942c"></path><path d="m33.069 16.576-.14 3.11-.1 2.284-.094 3.193-4.69-3.475.66-4.827.231-1.972z" fill="#f9b29c"></path><path d="m33.069 16.576-.14 3.11c-1.609-.558-3.181-1.71-4.224-2.825l.231-1.972z" fill="#ed8768"></path><path d="M36.062 19.117c-2.908 1.472-7.314-1.82-8.59-3.942-1.698-2.826-1.81-5.372-1.086-6.206 1.71-1.97 6.812-2.558 8.19-1.304 1.376 1.255 4.07 10.144 1.486 11.452z" fill="#f9b29c"></path><path d="M28.201 16.143s-1.818-1.99-.79-2.898c1.028-.909 1.753.436 2.09 0 .337-.437-1.702-3.572-1.719-3.622-.017-.051 10.803 1.57 9.825-2.897-.676-3.088-10.482-3.794-12.15 1.464 0 0-1.939-.135-1.72 2.798s4.464 5.155 4.464 5.155z" fill="#29265d"></path><path d="m32.113 12.822.1-.076-.101.075a1.317 1.317 0 0 1-.166-.256.534.534 0 0 1-.04-.357c.093-.34.56-.496.963-.16.13.11.23.248.318.37a.125.125 0 0 1-.203.146 1.736 1.736 0 0 0-.275-.324c-.246-.205-.514-.143-.561.033a.289.289 0 0 0 .026.188c.032.072.083.138.136.208zM35.634 13.981a3.844 3.844 0 0 1-1.668-2.186.125.125 0 0 1 .24-.07 3.59 3.59 0 0 0 1.559 2.043.125.125 0 0 1-.13.213zM35.017 12.3a.724.724 0 0 1-.05-.492c.072-.286.323-.426.624-.164l.261.227a.125.125 0 0 1-.164.19l-.262-.228c-.11-.098-.175-.127-.216.036a.485.485 0 0 0 .033.323.125.125 0 1 1-.226.108zM34.039 16.804a.125.125 0 0 1-.075-.16.127.127 0 0 1 .16-.075c.443.16.965.103 1.362-.15a.125.125 0 1 1 .134.21 1.84 1.84 0 0 1-1.581.175zM37.158 43.294h-4.732a.873.873 0 0 1-.846-1.091l1.687-6.542a.873.873 0 0 1 .846-.655h4.731c.571 0 .988.539.846 1.092l-1.687 6.541a.873.873 0 0 1-.845.655z" fill="#15144f"></path><path d="M36.92 40.43c-.853 2.558-5.725 1.353-5.725 1.353l.279-4.342s.557-1.645 1.59-.99c1.034.655-.38 1.47-.38 1.47s5.09-.05 4.236 2.51z" fill="#f9b29c"></path><path d="M62.298 13.68c-3.919.021-6.363.727-9.652 1.727-.827-1.283-1.654-2.573-2.482-3.863 2.289-2.573 3.947-4.494 5.605-8.045 2.171 3.389 4.35 6.785 6.529 10.181z" fill="#f24e66"></path><path d="M51.097 18.928c.238-.44 2.82-5.085 4.118-1.64 1.362 3.612-2.468 5.717-2.468 5.717" fill="#f9b29c"></path><path d="m52.293 16.431.397.615 2.435 3.798a.57.57 0 0 1-.173.788l-1.046.67a.57.57 0 0 1-.792-.171l-2.833-4.413z" fill="#f24e66"></path><path d="m57.072 2.689 6.508 10.142a.77.77 0 0 1-1.294.83L55.778 3.52a.764.764 0 0 1 .23-1.058.765.765 0 0 1 1.064.227z" fill="#29265d"></path><path d="M61.833 6.794c.53.825.288 1.93-.545 2.465L59.36 6.254a1.788 1.788 0 0 1 2.473.54z" fill="#f24e66"></path><path d="m50.131 11.49 2.545 3.965a.625.625 0 0 1-.192.855l-2.488 1.596a.62.62 0 0 1-.856-.182l-2.545-3.965a.621.621 0 0 1 .188-.86l2.488-1.597a.626.626 0 0 1 .86.187z" fill="#29265d"></path><path d="m46.826 14.118 2.078 3.24a1.92 1.92 0 0 1-2.653-.579 1.922 1.922 0 0 1 .575-2.66z" fill="#f24e66"></path><path d="m52.747 23.005-3.632-2.71s1.097-3.585 1.94-3.207c.77.342.155 1.62.042 1.84" fill="#f9b29c"></path><path d="M5.823 24.177h8.56a3.823 3.823 0 1 0 0-7.646h-8.56a3.823 3.823 0 1 0 0 7.646z" fill="#96d5ff"></path><path d="m11.636 23.905 2.729 1.633v-1.633zM62.177 42.324h-8.56a3.823 3.823 0 1 1 0-7.646h8.56a3.823 3.823 0 1 1 0 7.646z" fill="#96d5ff"></path><path d="m56.364 42.053-2.729 1.632v-1.632z" fill="#96d5ff"></path><path d="M55.496 38.5a.986.986 0 1 1-1.971.003.986.986 0 0 1 1.971-.003zM58.883 38.5a.986.986 0 1 1-1.971.003.986.986 0 0 1 1.971-.003zM62.27 38.5a.986.986 0 1 1-1.971.003.986.986 0 0 1 1.971-.003zM7.702 20.352a.986.986 0 1 1-1.972.004.986.986 0 0 1 1.972-.004zM11.09 20.352a.986.986 0 1 1-1.973.004.986.986 0 0 1 1.972-.004zM14.476 20.352a.986.986 0 1 1-1.971.004.986.986 0 0 1 1.971-.004z" fill="#ffffff"></path></g></svg>