<svg viewBox="0 0 512 512" xmlns="http://www.w3.org/2000/svg"><g><path d="m473.892 203.346 30.996-10.472c9.48-3.203 9.48-16.611 0-19.814l-30.997-10.472c-22.53-7.612-33.185-33.336-22.636-54.649l14.513-29.322c4.439-8.968-5.042-18.45-14.011-14.011l-29.323 14.513c-21.313 10.549-47.038-.107-54.649-22.637l-10.472-30.996c-3.203-9.48-16.611-9.48-19.814 0l-10.472 30.996c-7.612 22.53-33.336 33.185-54.649 22.637l-29.323-14.513c-8.968-4.439-18.45 5.043-14.011 14.011l14.513 29.322c10.549 21.313-.107 47.038-22.636 54.649l-30.997 10.472c-9.48 3.203-9.48 16.611 0 19.814l30.996 10.472c22.53 7.612 33.185 33.336 22.637 54.649l-14.513 29.322c-4.439 8.968 5.042 18.45 14.011 14.011l29.323-14.513c21.313-10.549 47.038.107 54.649 22.637l10.472 30.996c3.203 9.48 16.611 9.48 19.814 0l10.472-30.996c7.612-22.53 33.336-33.185 54.649-22.637l29.323 14.513c8.968 4.439 18.45-5.043 14.011-14.011l-14.513-29.322c-10.549-21.313.107-47.038 22.637-54.649z" fill="#e94444"></path><g fill="#d83131"><path d="m429.49 103.317 14.507-29.324c1.02-2.05 1.298-4.131 1.041-6.058l6.718-3.328c8.974-4.441 18.454 5.039 14.013 14.013l-14.518 29.324c-9.768 19.741-1.339 43.264 17.856 52.682l-16.98-2.658c-22.534-7.616-33.188-33.344-22.637-54.651zM504.891 192.874l-31.003 10.468c-22.524 7.614-33.177 33.342-22.637 54.65l14.518 29.324c4.441 8.974-5.038 18.454-14.013 14.013l-11.056-5.471c3.843-2.782 5.832-8.057 3.297-13.168l-14.507-29.324c-10.551-21.308 2.596-52.27 25.13-59.884l30.993-10.469c6.491-2.195 8.542-9.18 6.131-14.394l13.147 4.441c9.479 3.205 9.479 16.61 0 19.814z" fill="#d83131"></path></g><path d="M7.21 436.097c36.409 5.014 34.999 2.279 71.508 6.498 54.562 6.305 111.505 3.019 163.479 23.522 32.166 12.689 67.503 40.043 103.369 20.925 20.602-10.981 28.461-36.769 29.07-60.107 1.184-45.393-1.27-91.851 18.303-134.231 16.341-35.383 24.94-74.317 25.019-113.291.045-22.237-20.391-42.377-42.509-33.178-4.353 1.818-8.146 5.219-11.131 8.797-5.957 7.139-9.113 16.43-10.676 25.478-4.116 23.836-12.614 47.358-25.85 67.674-8.865 13.606-19.696 25.791-30.764 37.624-19.074 20.392-40.826 39.652-68.667 46.373-16.112 3.889-32.088 3.413-48.205-.57-48.457-11.977-98.066-24.106-146.531-36.052z" fill="#fed2a4"></path><path d="M417.961 179.414c-.082 38.978-8.676 77.905-25.017 113.287-19.577 42.389-17.124 88.847-18.309 134.234-.608 23.337-8.469 49.127-29.066 60.111-12.508 6.666-24.945 7.676-37.216 5.636 5.296-.979 10.602-2.803 15.929-5.636 20.597-10.983 28.458-36.773 29.066-60.111 1.185-45.387-1.267-91.845 18.309-134.234 16.341-35.382 24.934-74.309 25.017-113.287.031-14.528-8.686-28.159-20.896-33.301 21.998-8.881 42.224 11.179 42.183 33.301z" fill="#ffbd86"></path><path d="M273.308 430.947c-2.033 0-4.08-.189-6.121-.573-15.227-2.862-26.458-16.17-26.706-31.643a7.5 7.5 0 0 1 7.379-7.619l.122-.001a7.5 7.5 0 0 1 7.497 7.38c.135 8.38 6.224 15.589 14.479 17.141a17.643 17.643 0 0 0 13.302-2.792 17.643 17.643 0 0 0 7.431-11.38 17.638 17.638 0 0 0-2.792-13.302 17.638 17.638 0 0 0-11.379-7.431 7.5 7.5 0 0 1 2.77-14.742c8.6 1.616 16.056 6.484 20.993 13.708s6.767 15.938 5.15 24.537c-1.616 8.599-6.484 16.055-13.708 20.992-5.509 3.767-11.887 5.725-18.417 5.725z" fill="#f6a96c"></path><path d="M0 251.873s124.363 41.9 163.068 52.243a11.806 11.806 0 0 1 8.746 10.628c1.676 25.324 5.892 100.402.656 148.239-.62 5.661-5.234 10.048-10.915 10.441-30.396 2.102-124.332 8.382-161.555 8.382z" fill="#7a8c98"></path><path d="M172.469 462.987c-.618 5.657-5.234 10.046-10.911 10.437-3.915.268-8.882.608-14.641.989 2.524-2.03 4.245-4.966 4.626-8.315 5.894-51.796 1.154-133.07-.732-160.487a12.541 12.541 0 0 0-1.71-5.471c5.378 1.597 10.097 2.947 13.972 3.977a11.792 11.792 0 0 1 8.737 10.623c1.68 25.326 5.894 100.408.659 148.247z" fill="#596c76"></path></g></svg>