<svg viewBox="0 0 512 512" xmlns="http://www.w3.org/2000/svg"><g><path d="M512 181.38V512H0V181.38l256-32.07z" fill="#fff5f5"></path><path d="M512 181.38V512H256V149.31z" fill="#ece6f2"></path><path d="M135.5 276.75c-24.882 0-45.125 20.243-45.125 45.125h30c0-8.34 6.785-15.125 15.125-15.125s15.125 6.785 15.125 15.125c0 8.337-6.78 15.119-15.115 15.125H120.5v30h15c8.34 0 15.125 6.785 15.125 15.125S143.84 397.25 135.5 397.25s-15.125-6.785-15.125-15.125h-30c0 24.882 20.243 45.125 45.125 45.125s45.125-20.243 45.125-45.125c0-11.568-4.38-22.13-11.563-30.125 7.183-7.995 11.563-18.557 11.563-30.125 0-24.882-20.243-45.125-45.125-45.125zM256 337c-5.3 0-10.39.93-15.12 2.62v-17.74c0-8.34 6.78-15.13 15.12-15.13s15.12 6.79 15.12 15.13h30c0-24.89-20.24-45.13-45.12-45.13s-45.12 20.24-45.12 45.13v60.24c0 24.89 20.24 45.13 45.12 45.13s45.12-20.24 45.12-45.13c0-24.88-20.24-45.12-45.12-45.12zm0 60.25c-8.34 0-15.12-6.79-15.12-15.13 0-8.33 6.78-15.12 15.12-15.12s15.12 6.79 15.12 15.12c0 8.34-6.78 15.13-15.12 15.13z" fill="#164e87"></path><g fill="#182c69"><path d="M301.12 382.12c0 24.89-20.24 45.13-45.12 45.13v-30c8.34 0 15.12-6.79 15.12-15.13 0-8.33-6.78-15.12-15.12-15.12v-30c24.88 0 45.12 20.24 45.12 45.12zM256 306.75v-30c24.88 0 45.12 20.24 45.12 45.13h-30c0-8.34-6.78-15.13-15.12-15.13zM421.625 321.875V276.75h-90.25V367H376.5c8.34 0 15.125 6.785 15.125 15.125S384.84 397.25 376.5 397.25s-15.125-6.785-15.125-15.125h-30c0 24.882 20.243 45.125 45.125 45.125s45.125-20.243 45.125-45.125S401.382 337 376.5 337h-15.125v-30.25h30.25v15.125z" fill="#182c69"></path></g><path d="M512 128v53.38l-51.21 21.24-51.2-21.24-51.2 21.24-51.2-21.24L256 202.62h-.01l-51.19-21.24-51.2 21.24-51.2-21.24-51.2 21.24L0 181.38V128l256-32z" fill="#ece6f2"></path><path d="M512 128v53.38l-51.21 21.24-51.2-21.24-51.2 21.24-51.2-21.24L256 202.62V96z" fill="#cfcfe7"></path><path d="M512 64v64H0V64h120.5l13.88-9.39L150.5 64h120.62l14.43-9.39L301.13 64h120.62l14.53-9.39L451.75 64z" fill="#ff8844"></path><path d="M512 64v64H256V64h15.12l14.43-9.39L301.13 64h120.62l14.53-9.39L451.75 64z" fill="#ff4440"></path><path d="M301.12 45.12V64h-30V45.12c0-8.33-6.78-15.12-15.12-15.12s-15.12 6.79-15.12 15.12v60.26h-30V45.12C210.88 20.24 231.12 0 256 0s45.12 20.24 45.12 45.12z" fill="#164e87"></path><path d="M301.12 45.12V64h-30V45.12c0-8.33-6.78-15.12-15.12-15.12V0c24.88 0 45.12 20.24 45.12 45.12zM391.5 105.375h-30v-60.25C361.5 20.243 381.743 0 406.625 0s45.125 20.243 45.125 45.125V64h-30V45.125c0-8.34-6.785-15.125-15.125-15.125S391.5 36.785 391.5 45.125z" fill="#182c69"></path><path d="M90.25 105.375h-30v-60.25C60.25 20.243 80.493 0 105.375 0S150.5 20.243 150.5 45.125V64h-30V45.125c0-8.34-6.785-15.125-15.125-15.125S90.25 36.785 90.25 45.125z" fill="#164e87"></path></g></svg>