<svg viewBox="0 0 512 512" xmlns="http://www.w3.org/2000/svg"><g><path d="m128.27 292.066-51.54-24.431v54.284l51.54-24.431c2.287-1.084 2.287-4.338 0-5.422z" fill="#fb2b3a"></path><path d="M76.729 267.635v54.284L87 317.051v-44.547z" fill="#e41f2d"></path><path d="M70.23 379.041c2.54 0 5.039.168 7.5.462V261.597a7.5 7.5 0 0 0-15 0v117.906c2.46-.294 4.96-.462 7.5-.462z" fill="#3675bb"></path><g fill="#3675bb"><path d="M358.811 77.729h8c4.143 0 7.5-3.358 7.5-7.5s-3.357-7.5-7.5-7.5h-8c-4.143 0-7.5 3.358-7.5 7.5s3.357 7.5 7.5 7.5zM325.811 77.729h8c4.143 0 7.5-3.358 7.5-7.5s-3.357-7.5-7.5-7.5h-8c-4.143 0-7.5 3.358-7.5 7.5s3.357 7.5 7.5 7.5zM193.811 77.729h8a7.5 7.5 0 0 0 0-15h-8a7.5 7.5 0 0 0 0 15zM259.811 77.729h8c4.143 0 7.5-3.358 7.5-7.5s-3.357-7.5-7.5-7.5h-8a7.5 7.5 0 0 0 0 15zM226.811 77.729h8a7.5 7.5 0 0 0 0-15h-8a7.5 7.5 0 0 0 0 15zM292.811 77.729h8c4.143 0 7.5-3.358 7.5-7.5s-3.357-7.5-7.5-7.5h-8c-4.143 0-7.5 3.358-7.5 7.5s3.357 7.5 7.5 7.5zM160.811 77.729h8a7.5 7.5 0 0 0 0-15h-8a7.5 7.5 0 0 0 0 15zM441.771 140.459a7.5 7.5 0 0 0-7.5 7.5v8c0 4.142 3.357 7.5 7.5 7.5s7.5-3.358 7.5-7.5v-8a7.5 7.5 0 0 0-7.5-7.5zM441.771 239.459a7.5 7.5 0 0 0-7.5 7.5v8c0 4.142 3.357 7.5 7.5 7.5s7.5-3.358 7.5-7.5v-8a7.5 7.5 0 0 0-7.5-7.5zM441.771 173.459a7.5 7.5 0 0 0-7.5 7.5v8c0 4.142 3.357 7.5 7.5 7.5s7.5-3.358 7.5-7.5v-8a7.5 7.5 0 0 0-7.5-7.5zM441.771 206.459a7.5 7.5 0 0 0-7.5 7.5v8c0 4.142 3.357 7.5 7.5 7.5s7.5-3.358 7.5-7.5v-8a7.5 7.5 0 0 0-7.5-7.5zM441.771 305.459a7.5 7.5 0 0 0-7.5 7.5v8c0 4.142 3.357 7.5 7.5 7.5s7.5-3.358 7.5-7.5v-8a7.5 7.5 0 0 0-7.5-7.5zM441.771 338.459a7.5 7.5 0 0 0-7.5 7.5v8c0 4.142 3.357 7.5 7.5 7.5s7.5-3.358 7.5-7.5v-8a7.5 7.5 0 0 0-7.5-7.5zM441.771 272.459a7.5 7.5 0 0 0-7.5 7.5v8c0 4.142 3.357 7.5 7.5 7.5s7.5-3.358 7.5-7.5v-8a7.5 7.5 0 0 0-7.5-7.5zM169.398 434.271h-8a7.5 7.5 0 0 0 0 15h8a7.5 7.5 0 0 0 0-15zM235.398 434.271h-8a7.5 7.5 0 0 0 0 15h8a7.5 7.5 0 0 0 0-15zM202.398 434.271h-8a7.5 7.5 0 0 0 0 15h8a7.5 7.5 0 0 0 0-15zM334.398 434.271h-8c-4.143 0-7.5 3.358-7.5 7.5s3.357 7.5 7.5 7.5h8c4.143 0 7.5-3.358 7.5-7.5s-3.357-7.5-7.5-7.5zM367.398 434.271h-8c-4.143 0-7.5 3.358-7.5 7.5s3.357 7.5 7.5 7.5h8c4.143 0 7.5-3.358 7.5-7.5s-3.357-7.5-7.5-7.5zM268.398 434.271h-8a7.5 7.5 0 0 0 0 15h8c4.143 0 7.5-3.358 7.5-7.5s-3.357-7.5-7.5-7.5zM301.398 434.271h-8c-4.143 0-7.5 3.358-7.5 7.5s3.357 7.5 7.5 7.5h8c4.143 0 7.5-3.358 7.5-7.5s-3.357-7.5-7.5-7.5z" fill="#3675bb"></path></g><circle cx="441.77" cy="70.23" fill="#01d0fb" r="62.73"></circle><path d="M413 70.23c0-28.758 19.359-52.978 45.75-60.385A62.707 62.707 0 0 0 441.771 7.5c-34.645 0-62.73 28.085-62.73 62.73s28.085 62.73 62.73 62.73c5.887 0 11.577-.828 16.979-2.345C432.359 123.208 413 98.987 413 70.23z" fill="#01c0fa"></path><path d="M441.771 140.459c-38.725 0-70.229-31.505-70.229-70.229S403.046 0 441.771 0 512 31.505 512 70.229s-31.505 70.23-70.229 70.23zm0-125.459c-30.454 0-55.229 24.776-55.229 55.229s24.775 55.229 55.229 55.229S497 100.683 497 70.229 472.225 15 441.771 15z" fill="#62dbfb"></path><path d="M458.056 101.856h-32.57a7.5 7.5 0 0 1-5.455-12.646l26.98-28.6a4.144 4.144 0 0 0 1.133-2.852 4.16 4.16 0 0 0-4.155-4.155h-14.885c-4.143 0-7.5-3.358-7.5-7.5s3.357-7.5 7.5-7.5h14.885c10.563 0 19.155 8.593 19.155 19.155 0 4.907-1.854 9.576-5.223 13.145l-15.05 15.953h15.185a7.5 7.5 0 0 1 0 15z" fill="#ffffff"></path><circle cx="70.23" cy="70.23" fill="#4fc123" r="62.73"></circle><path d="M41 70.23c0-28.841 19.471-53.12 45.98-60.45A62.753 62.753 0 0 0 70.23 7.5C35.585 7.5 7.5 35.585 7.5 70.23s28.085 62.73 62.73 62.73c5.803 0 11.416-.805 16.75-2.28C60.471 123.349 41 99.071 41 70.23z" fill="#47a920"></path><path d="M70.229 140.459C31.505 140.459 0 108.954 0 70.229S31.505 0 70.229 0s70.229 31.505 70.229 70.229-31.504 70.23-70.229 70.23zm0-125.459C39.776 15 15 39.776 15 70.229s24.776 55.229 55.229 55.229 55.229-24.776 55.229-55.229S100.683 15 70.229 15z" fill="#68ca44"></path><path d="M73.849 101.856a7.5 7.5 0 0 1-7.5-7.5V53.603h-6.976a7.5 7.5 0 0 1 0-15h14.476a7.5 7.5 0 0 1 7.5 7.5v48.253a7.5 7.5 0 0 1-7.5 7.5z" fill="#ffffff"></path><circle cx="441.77" cy="441.77" fill="#fac600" r="62.73"></circle><path d="M413 441.77c0-28.758 19.359-52.978 45.75-60.385a62.747 62.747 0 0 0-16.979-2.345c-34.645 0-62.73 28.085-62.73 62.73s28.085 62.73 62.73 62.73c5.887 0 11.577-.828 16.979-2.345-26.391-7.407-45.75-31.627-45.75-60.385z" fill="#e8b800"></path><path d="M441.771 512c-38.725 0-70.229-31.505-70.229-70.229s31.505-70.229 70.229-70.229S512 403.046 512 441.771 480.495 512 441.771 512zm0-125.459c-30.454 0-55.229 24.776-55.229 55.229S411.316 497 441.771 497 497 472.224 497 441.771s-24.775-55.23-55.229-55.23z" fill="#d7aa02"></path><path d="M464.35 429.707c0-10.787-8.776-19.563-19.563-19.563h-18.095c-4.143 0-7.5 3.358-7.5 7.5s3.357 7.5 7.5 7.5h18.095c2.517 0 4.563 2.047 4.563 4.563s-2.047 4.563-4.563 4.563h-8.444c-4.143 0-7.5 3.358-7.5 7.5s3.357 7.5 7.5 7.5h8.444c2.517 0 4.563 2.047 4.563 4.563s-2.047 4.563-4.563 4.563h-18.095c-4.143 0-7.5 3.358-7.5 7.5s3.357 7.5 7.5 7.5h18.095c10.787 0 19.563-8.776 19.563-19.563 0-4.552-1.576-8.736-4.194-12.063 2.617-3.327 4.194-7.511 4.194-12.063z" fill="#883f2e"></path><circle cx="70.23" cy="441.77" fill="#fb2b3a" r="62.73"></circle><path d="M41 441.77c0-28.841 19.471-53.12 45.98-60.45a62.748 62.748 0 0 0-16.75-2.28c-34.645 0-62.73 28.085-62.73 62.73s28.085 62.73 62.73 62.73c5.803 0 11.416-.805 16.75-2.28C60.471 494.89 41 470.612 41 441.77z" fill="#e41f2d"></path><path d="M70.229 512C31.505 512 0 480.495 0 441.771s31.505-70.229 70.229-70.229 70.229 31.505 70.229 70.229S108.954 512 70.229 512zm0-125.459c-30.453 0-55.229 24.776-55.229 55.23S39.776 497 70.229 497s55.229-24.776 55.229-55.229-24.775-55.23-55.229-55.23z" fill="#c41926"></path><circle cx="70.229" cy="441.771" fill="#ffffff" r="26.82"></circle><path d="M66 441.771c0-10.755 6.366-20.046 15.525-24.317a26.653 26.653 0 0 0-11.295-2.503c-14.789 0-26.82 12.031-26.82 26.82s12.031 26.82 26.82 26.82c4.034 0 7.86-.901 11.295-2.503C72.366 461.816 66 452.525 66 441.771z" fill="#f2fbff"></path><path d="M70.229 476.09c-18.924 0-34.32-15.396-34.32-34.32s15.396-34.32 34.32-34.32 34.32 15.396 34.32 34.32-15.396 34.32-34.32 34.32zm0-53.639c-10.653 0-19.32 8.667-19.32 19.32s8.667 19.32 19.32 19.32 19.32-8.667 19.32-19.32-8.667-19.32-19.32-19.32z" fill="#c41926"></path><path d="M346.827 373.954H165.173a3 3 0 0 1-3-3V141.046a3 3 0 0 1 3-3h181.655a3 3 0 0 1 3 3v229.909a3.001 3.001 0 0 1-3.001 2.999z" fill="#dff6fd"></path><path d="M196 370.954V141.046a3 3 0 0 1 3-3h-33.827a3 3 0 0 0-3 3v229.909a3 3 0 0 0 3 3H199a3.001 3.001 0 0 1-3-3.001z" fill="#c8effe"></path><path d="M288.833 180.405h-65.666a7.5 7.5 0 0 1 0-15h65.666c4.143 0 7.5 3.358 7.5 7.5s-3.357 7.5-7.5 7.5zM309.408 212.021H285c-4.143 0-7.5-3.358-7.5-7.5s3.357-7.5 7.5-7.5h24.408c4.143 0 7.5 3.358 7.5 7.5s-3.357 7.5-7.5 7.5zM262 212.021h-59.408a7.5 7.5 0 0 1 0-15H262c4.143 0 7.5 3.358 7.5 7.5s-3.357 7.5-7.5 7.5zM309.408 238.339H202.592a7.5 7.5 0 0 1 0-15h106.816c4.143 0 7.5 3.358 7.5 7.5s-3.357 7.5-7.5 7.5zM309.408 264.657H266c-4.143 0-7.5-3.358-7.5-7.5s3.357-7.5 7.5-7.5h43.408c4.143 0 7.5 3.358 7.5 7.5s-3.357 7.5-7.5 7.5zM244 264.657h-41.408a7.5 7.5 0 0 1 0-15H244a7.5 7.5 0 0 1 0 15z" fill="#62dbfb"></path><path d="M309.408 290.975H202.592a7.5 7.5 0 0 1 0-15h106.816c4.143 0 7.5 3.358 7.5 7.5s-3.357 7.5-7.5 7.5zM309.408 317.292H274c-4.143 0-7.5-3.358-7.5-7.5s3.357-7.5 7.5-7.5h35.408c4.143 0 7.5 3.358 7.5 7.5s-3.357 7.5-7.5 7.5zM253 317.292h-50.408a7.5 7.5 0 0 1 0-15H253c4.143 0 7.5 3.358 7.5 7.5s-3.357 7.5-7.5 7.5zM309.408 343.61H202.592a7.5 7.5 0 0 1 0-15h106.816c4.143 0 7.5 3.358 7.5 7.5s-3.357 7.5-7.5 7.5z" fill="#01d0fb"></path></g></svg>