<svg viewBox="0 0 512 512" xmlns="http://www.w3.org/2000/svg"><g><g clip-rule="evenodd" fill-rule="evenodd"><path d="M55.55 485.971c-16.294 0-29.553-13.25-29.553-29.549V282.303c0-.148 0-.296.018-.444.991-11.268 6.747-21.571 15.772-28.257l77.956-57.671c8.425-6.234 18.815-8.808 29.249-7.251 10.434 1.565 19.615 7.06 25.849 15.494 7.147 9.651 9.729 20.641 7.078 30.144a4.932 4.932 0 0 1-.226.661L132.967 346.73c-3.634 8.352-10.477 13.671-18.772 14.601-8.564.978-17.424-2.901-22.571-9.849-4.956-6.725-5.712-15.35-2.087-23.68l10.799-24.771-15.224 16.016v137.375c0 16.299-13.268 29.549-29.562 29.549z" fill="#445f9f"></path><path d="M55.55 485.971c-16.294 0-29.553-13.25-29.553-29.549V282.303c0-.148 0-.296.018-.444.991-11.268 6.747-21.571 15.772-28.257l76.313-56.456c6.49-2.661 13.618-3.533 20.767-2.467 10.433 1.565 19.615 7.06 25.849 15.494 7.147 9.651 9.729 20.641 7.078 30.144L122.843 352.73c-1.345 3.092-3.131 5.767-5.266 7.959a22.52 22.52 0 0 1-3.38.642c-8.564.978-17.424-2.901-22.571-9.849-4.956-6.725-5.712-15.35-2.087-23.68l10.799-24.771-.015.016 28.69-64.834a5.013 5.013 0 0 0-2.591-6.59 4.991 4.991 0 0 0-6.573 2.591l-36.143 81.664-8.716 9.169v137.375c0 8.689-3.771 16.511-9.761 21.921a29.487 29.487 0 0 1-9.679 1.628z" fill="#4c69b1"></path><path d="M255.996 153.188c-35.057 0-63.575-28.527-63.575-63.575 0-35.065 28.518-63.584 63.575-63.584 35.066 0 63.584 28.519 63.584 63.584-.001 35.048-28.519 63.575-63.584 63.575z" fill="#00cd8a"></path><path d="M255.996 153.188c-35.057 0-63.575-28.527-63.575-63.575 0-23.056 12.33-43.28 30.74-54.429a63.464 63.464 0 0 1 15.961-2.03c35.065 0 63.584 28.519 63.584 63.584 0 23.045-12.33 43.268-30.743 54.419a63.472 63.472 0 0 1-15.967 2.031z" fill="#00e499"></path><path d="M246.475 113.636c-1.33 0-2.6-.53-3.539-1.461l-19.032-19.032a5.001 5.001 0 1 1 7.077-7.069l15.494 15.494 34.535-34.535a5.001 5.001 0 0 1 7.077 7.068l-38.065 38.074a5.061 5.061 0 0 1-3.547 1.461z" fill="#eceff1"></path><path d="M456.442 485.971c-16.294 0-29.553-13.25-29.553-29.549V319.047l-15.233-16.016 10.799 24.771c3.634 8.329 2.869 16.955-2.095 23.68-5.13 6.959-13.99 10.828-22.571 9.849-8.277-.93-15.12-6.259-18.763-14.601L330.31 234.978a4.945 4.945 0 0 1-.235-.661c-2.643-9.503-.061-20.493 7.078-30.144 6.234-8.434 15.415-13.929 25.849-15.494 10.425-1.556 20.815 1.017 29.249 7.251l77.947 57.671c9.043 6.686 14.789 16.989 15.781 28.257.009.148.026.296.026.444V456.42c-.002 16.301-13.261 29.551-29.563 29.551z" fill="#e4404d"></path><path d="M456.442 485.971c-16.294 0-29.553-13.25-29.553-29.549V319.047l-15.23-16.012-30.588-70.394a5.015 5.015 0 0 0-6.591-2.591 5.016 5.016 0 0 0-2.582 6.59l49.348 113.55-.006.01-.007.011-.013.021-.013.02-.146.225-.013.02-.014.02-.005.007-.009.013c-.058.088-.118.176-.178.264l-.014.02-.014.02-.003.004-.011.016-.014.02-.169.241-.014.02-.014.02-.002.002-.013.018c-.071.1-.143.199-.217.299-5.13 6.959-13.99 10.828-22.571 9.849-8.277-.93-15.12-6.259-18.763-14.601l-48.716-111.752a4.945 4.945 0 0 1-.235-.661c-2.643-9.503-.061-20.493 7.078-30.144.091-.124.184-.247.277-.37l.018-.023.015-.019c.092-.121.185-.242.278-.361l.015-.02c.298-.383.602-.759.912-1.129l.005-.006c.098-.117.197-.233.297-.349l.014-.016.009-.011.277-.319.033-.037.027-.03c.096-.109.193-.217.29-.324l.015-.017.294-.322.025-.027.031-.033c.201-.216.404-.43.609-.641l.019-.02.009-.009.028-.029.269-.273.081-.082.254-.252.05-.049.058-.057.217-.21.071-.068.038-.036.284-.267.029-.027.018-.016.001-.001.29-.267.042-.038.003-.003.044-.039.285-.255.005-.004.025-.022.035-.031.263-.23.137-.118.236-.201.094-.079.009-.008.116-.096.164-.136.068-.056a39.98 39.98 0 0 1 9.044-2.458c10.425-1.556 20.815 1.017 29.249 7.251l77.947 57.671c9.042 6.686 14.789 16.989 15.781 28.257.009.148.026.296.026.444v174.118c0 8.689-3.769 16.511-9.758 21.921l-.003.001c-.138.048-.277.095-.416.141l-.302.098-.359.112-.34.102-.361.103-.343.093-.346.089-.381.093-.309.072c-.149.034-.299.066-.449.098l-.219.045a28.46 28.46 0 0 1-.508.098l-.214.039c-.182.032-.365.062-.548.091l-.153.024c-.206.031-.413.06-.62.087l-.09.012c-.219.027-.438.052-.658.075l-.074.008c-.223.022-.446.042-.671.06l-.072.006c-.237.018-.474.033-.712.045l-.019.001c-.245.013-.491.022-.737.028l-.025.001c-.253.002-.502.006-.751.006zm-33.988-158.169-10.214-23.43 10.732 24.699-.008-.02-.061-.159-.008-.02-.008-.02-.008-.02-.008-.02-.008-.02-.008-.02-.008-.02-.016-.04-.008-.02-.008-.02-.008-.02-.008-.02-.008-.02-.008-.02-.016-.04-.008-.02-.008-.02-.008-.02-.106-.257-.008-.02-.008-.02-.002-.005-.006-.014-.008-.02-.009-.02-.127-.297-.009-.02zm-85.303-123.628" fill="#fd4755"></path><path d="M195.716 223.31c-8.921 0-17.476-3.069-24.441-8.816-7.929-6.547-12.824-15.781-13.798-26.023-.983-10.234 2.086-20.232 8.634-28.162 6.547-7.921 15.789-12.824 26.014-13.798 10.234-.983 20.241 2.095 28.162 8.642 7.93 6.538 12.833 15.772 13.816 26.014.965 10.234-2.095 20.232-8.643 28.153-6.556 7.93-15.789 12.824-26.023 13.807a37.802 37.802 0 0 1-3.721.183zm120.56 0c-1.235 0-2.478-.061-3.721-.183-10.234-.982-19.476-5.877-26.014-13.807-6.556-7.921-9.625-17.92-8.643-28.153.983-10.242 5.878-19.476 13.799-26.014 7.929-6.547 17.928-9.625 28.162-8.642 10.242.974 19.484 5.877 26.023 13.798 6.547 7.93 9.616 17.928 8.634 28.162-.974 10.242-5.878 19.476-13.807 26.023-6.957 5.747-15.521 8.816-24.433 8.816z" fill="#ddc6b9"></path><path d="M195.716 223.31c-8.921 0-17.476-3.069-24.441-8.816-7.929-6.547-12.824-15.781-13.798-26.023-.983-10.234 2.086-20.232 8.634-28.162a38.608 38.608 0 0 1 9.393-8.219c1.99-.518 4.035-.88 6.121-1.079 10.234-.983 20.241 2.095 28.162 8.642 7.93 6.538 12.833 15.772 13.816 26.014.965 10.234-2.095 20.232-8.643 28.153a38.606 38.606 0 0 1-9.399 8.224c-1.99.519-4.036.882-6.124 1.083a37.802 37.802 0 0 1-3.721.183zm100.293-71.253a38.38 38.38 0 0 1 13.349-1.046c10.242.974 19.484 5.877 26.023 13.798 6.547 7.93 9.616 17.928 8.634 28.162-.974 10.242-5.878 19.476-13.807 26.023a39.033 39.033 0 0 1-4.302 3.09 38.262 38.262 0 0 1-13.351 1.044c-10.234-.982-19.476-5.877-26.014-13.807-6.556-7.921-9.625-17.92-8.643-28.153.983-10.242 5.878-19.476 13.799-26.014a38.856 38.856 0 0 1 4.312-3.097z" fill="#f6dccd"></path></g></g></svg>