<svg viewBox="0 0 512 512" xmlns="http://www.w3.org/2000/svg"><g><path d="M311.986 30.553h-2.671C157.496 30.553 3.228 148.981.223 377.043L0 464.751c0 9.195 7.5 16.696 16.696 16.696h152.152c-40.161-63.603-43.329-154.694.892-231.736 22.01-38.122 55.472-70.581 96.167-87.93 18.396-8.175 40.452-12.202 56.877-13.985l18.922-.039c12.133.445 24.71 6.344 37.288 17.697 8.903 7.903 14.024 19.588 17.141 32.835 5.009 21.816 4.006 47.638 3.227 67.117-.667 18.588-1.113 29.83 2.671 38.066 4.341 9.35 14.136 13.802 24.821 11.464 24.933-5.455 71.012-59.659 71.346-122.769.443-94.164-76.135-160.612-186.214-161.614z" fill="#57deff"></path><path d="M221.496 282.546c2.344-44.542 19.871-89.727 57.21-114.755 14.358-9.683 31.722-16.362 52.424-19.144 3.452-.779 7.012-1.002 10.574-.89l37.288-.557-22.595-30.943c-5.84-1.753-11.734-2.449-16.918-2.449-86.492 0-156.856 46.826-198.678 119.318-45.788 79.567-47.697 174.938-10.24 248.32h215.595c-82.652-24.836-128.821-115.851-124.66-198.9z" fill="#52c2ff"></path><path d="M495.304 381.273c-114.421 0-191.555-39.958-211.59-109.857-7.012-24.598-5.677-49.085.78-69.677 8.538-27.327 28.552-54.879 57.209-53.983 12.133.445 24.71 6.344 37.288 17.697 8.903 7.903 14.024 19.588 17.141 32.835 2.893-7.235 4.562-15.026 4.562-23.263 0-27.937-18.698-51.423-44.299-58.769-27.401-7.211-110.033 6.162-148.37 84.369-11.464 23.04-18.364 50.087-19.812 80.25-3.762 72.891 26.611 153.176 86.93 200.57h220.16a16.673 16.673 0 0 0 16.696-16.696v-66.783c.001-9.236-7.455-16.693-16.695-16.693z" fill="#4da6ff"></path></g></svg>