<svg viewBox="0 0 64 64" xmlns="http://www.w3.org/2000/svg"><g><path d="M38 6h-8a2 2 0 0 0-2 2v2a4 4 0 0 0 4 4h4a4 4 0 0 0 4-4V8a2 2 0 0 0-2-2z" fill="#fab400"></path><path d="M36 12h-4V5.414C32 4.633 32.633 4 33.414 4h1.172C35.367 4 36 4.633 36 5.414z" fill="#c80a50"></path><path d="M38 8h-8a2 2 0 0 0-2 2v2a4 4 0 0 0 4 4h4a4 4 0 0 0 4-4v-2a2 2 0 0 0-2-2z" fill="#0a5078"></path><path d="M20.382 30c-.251 0-.499.058-.724.171l-4.764 2.382A1.617 1.617 0 0 0 14 34v4a2 2 0 1 0 2 2v-4l4-2v2a2 2 0 1 0 2 2v-6.382c0-.894-.724-1.618-1.618-1.618z" fill="#00a0c8"></path><path d="M48 49v3a2 2 0 0 0-2 2 2.002 2.002 0 0 0 2.336 1.973c.983-.16 1.664-1.083 1.664-2.08V50h1a1 1 0 0 0 0-2h-2a1 1 0 0 0-1 1z" fill="#c80a50"></path><path d="M48 5v3a2 2 0 0 0-2 2 2.002 2.002 0 0 0 2.336 1.973c.983-.16 1.664-1.084 1.664-2.08V6h1a1 1 0 0 0 0-2h-2a1 1 0 0 0-1 1z" fill="#fab400"></path><path d="M30 24h-8a2 2 0 0 1-1.414-.586L15.172 18H14a2 2 0 0 1 0-4h2a2 2 0 0 1 1.414.586L22.828 20H30a2 2 0 0 1 0 4z" fill="#f0c8a0"></path><path d="M25 60a3 3 0 0 1-3-3V47c0-.796.316-1.559.879-2.121l10-10a2.998 2.998 0 0 1 4.242 0 2.998 2.998 0 0 1 0 4.242L28 48.242V57a3 3 0 0 1-3 3z" fill="#fab400"></path><path d="M34 22a2 2 0 0 1-2-2v-3h4v3a2 2 0 0 1-2 2z" fill="#d2aa82"></path><path d="M35 18h-2a3 3 0 0 1-3-3v-3a2 2 0 0 1 2-2h4a2 2 0 0 1 2 2v3a3 3 0 0 1-3 3z" fill="#f0c8a0"></path><path d="M40 20H30l-.586.586A4.828 4.828 0 0 0 28 24h12z" fill="#d2aa82"></path><path d="M28 24c0 1.281.509 2.509 1.414 3.414L30 28v6a6 6 0 0 0 6 6h4V24z" fill="#00a0c8"></path><path d="m40.36 44.88-3.5 3.5 4.64 6.96c.92 1.37.54 3.24-.84 4.16-.51.34-1.09.5-1.66.5H25V47.76l12.87-12.88c.55-.54 1.3-.88 2.13-.88 1.66 0 3 1.34 3 3v1.51c0 2.41-.94 4.67-2.64 6.37z" fill="#fab400"></path><path d="M29 38h-2a1 1 0 0 1-1-1V22a2 2 0 0 1 2-2h4a2 2 0 0 0-2 2v15a1 1 0 0 1-1 1zM37 38h-2a1 1 0 0 1-1-1V22a2 2 0 0 1 2-2h4a2 2 0 0 0-2 2v15a1 1 0 0 1-1 1z" fill="#c80a50"></path><path d="M48 32h-2a2 2 0 0 1 0-4v-4h-6a2 2 0 0 1 0-4h8a2 2 0 0 1 2 2v8a2 2 0 0 1-2 2z" fill="#f0c8a0"></path></g></svg>