<svg viewBox="0 0 512 512" xmlns="http://www.w3.org/2000/svg"><g><path d="M147.42 0H50.504C44.27 0 39.217 5.053 39.217 11.286v41.396c0 4.385-2.648 8.335-6.704 10.002L5.817 73.652c-5.219 2.144-5.219 9.536 0 11.68L32.513 96.3a10.813 10.813 0 0 1 6.704 10.002v42.426c0 6.233 5.053 11.286 11.286 11.286h96.916c6.233 0 11.286-5.053 11.286-11.286V11.286C158.706 5.053 153.653 0 147.42 0z" fill="#fea3ce"></path><path d="M147.42 0h-30.96c6.233 0 11.286 5.053 11.286 11.286v137.441c0 6.233-5.053 11.287-11.286 11.287h30.96c6.233 0 11.287-5.053 11.287-11.287V11.286C158.706 5.053 153.653 0 147.42 0z" fill="#fe7ab6"></path><path d="M162.315 212.277h-14.788c-12.19 0-22.073 9.882-22.073 22.073 0 12.19 9.882 22.073 22.073 22.073h22.603z" fill="#ca6e59"></path><path d="M162.315 141.423v132.661c-.068 26.741 19.643 49.858 45.562 54.519 5.698 1.025 9.811 6.037 9.811 11.826v54.999h80.233v-55.017c0-5.793 4.122-10.789 9.822-11.827 25.551-4.651 45.652-27.318 45.551-54.5V141.423z" fill="#d78878"></path><path d="M322.334 141.423v132.661c0 27.31-19.771 50.003-45.78 54.545-5.574.973-9.593 5.893-9.593 11.551v55.247h30.96V340.41c0-5.793 4.122-10.789 9.822-11.827 25.551-4.651 45.652-27.318 45.551-54.5v-132.66z" fill="#ca6e59"></path><path d="M140.3 128.567c0 17.939 1.136 35.86 3.401 53.655l3.826 30.054h14.788l21.297-60.296c2.074-5.873 8.387-9.083 14.356-7.304 16.277 4.851 46.857 13.418 59.833 13.418s43.557-8.567 59.834-13.418c5.969-1.779 12.281 1.431 14.355 7.303l9.392 26.603 30.518 3.64a424.94 424.94 0 0 0 3.401-53.654c0-38.076-30.866-68.942-68.942-68.942h-97.117c-38.076-.001-68.942 30.866-68.942 68.941z" fill="#678d98"></path><path d="M375.305 128.567c0 17.935-1.143 35.861-3.41 53.652l-3.822 30.061H353.29l-11.909-33.697a424.848 424.848 0 0 0 2.957-50.015c0-19.038-7.716-36.273-20.192-48.748s-29.71-20.192-48.748-20.192h30.957c19.038 0 36.273 7.716 48.748 20.192 12.486 12.474 20.202 29.709 20.202 48.747z" fill="#537983"></path><path d="M364.58 160.014h96.916c6.233 0 11.286 5.053 11.286 11.286v41.749c0 4.171 2.519 7.928 6.376 9.513l27.024 11.103c5.219 2.144 5.219 9.536 0 11.68l-27.024 11.103a10.284 10.284 0 0 0-6.376 9.513v42.78c0 6.233-5.053 11.286-11.286 11.286H364.58c-6.233 0-11.286-5.053-11.286-11.286v-137.44c0-6.234 5.053-11.287 11.286-11.287z" fill="#fea3ce"></path><path d="m506.183 233.666-27.024-11.103a10.284 10.284 0 0 1-6.376-9.513v-41.749c0-6.233-5.053-11.286-11.286-11.286h-30.96c6.233 0 11.286 5.053 11.286 11.286v41.46c0 4.346 2.625 8.262 6.644 9.913l26.756 10.992c5.219 2.144 5.219 9.536 0 11.68l-26.756 10.992a10.717 10.717 0 0 0-6.644 9.913v42.49c0 6.233-5.053 11.286-11.286 11.286h30.96c6.233 0 11.287-5.053 11.287-11.287v-42.78c0-4.171 2.519-7.928 6.376-9.513l27.024-11.103c5.218-2.142 5.218-9.534-.001-11.678z" fill="#fe7ab6"></path><path d="M257.8 235.207a7.726 7.726 0 0 1-7.726-7.726v-15.669a7.726 7.726 0 1 1 15.452 0v15.669a7.726 7.726 0 0 1-7.726 7.726zM277.369 274.128a7.69 7.69 0 0 1-4.677-1.581c-16.437-12.523-28.567-1.092-29.076-.599a7.727 7.727 0 0 1-10.758-11.094c7.607-7.376 27.678-16.996 49.199-.599a7.726 7.726 0 0 1-4.688 13.873z" fill="#ca6e59"></path><path d="M406.82 88.005a7.725 7.725 0 0 1-5.463-13.19l28.804-28.804a7.727 7.727 0 0 1 10.927 10.927l-28.804 28.804a7.706 7.706 0 0 1-5.464 2.263z" fill="#fea3ce"></path><path d="M423.803 110.789a7.726 7.726 0 0 1-3.556-14.59l15.374-7.952a7.726 7.726 0 0 1 7.099 13.725l-15.374 7.952a7.696 7.696 0 0 1-3.543.865z" fill="#fe7ab6"></path><path d="M100.063 99.633a7.726 7.726 0 0 1-7.726-7.726V38.833a7.726 7.726 0 1 1 15.452 0v53.074a7.725 7.725 0 0 1-7.726 7.726z" fill="#eaf9fa"></path><circle cx="100.061" cy="120.15" fill="#eaf9fa" r="7.726"></circle><path d="M411.939 260.163a7.726 7.726 0 0 1-7.726-7.726v-53.074a7.726 7.726 0 1 1 15.452 0v53.074a7.726 7.726 0 0 1-7.726 7.726z" fill="#eaf9fa"></path><circle cx="411.937" cy="280.68" fill="#eaf9fa" r="7.726"></circle><path d="M369.697 375.087v127.978a8.935 8.935 0 0 1-8.935 8.935H154.85a8.935 8.935 0 0 1-8.935-8.935V375.087z" fill="#eaf9fa"></path><path d="M466.638 512h-62.777a18.795 18.795 0 0 1-15.811-8.632l-18.352-28.549-8.13-49.024 8.13-50.698a62.87 62.87 0 0 1 53.653 30.097l53.798 88.068c5.014 8.208-.893 18.738-10.511 18.738z" fill="#eaf9fa"></path><path d="m477.149 493.262-53.798-88.068a62.873 62.873 0 0 0-53.653-30.097c9.161 5.183 17.025 20.818 22.693 30.097l53.798 88.068c5.014 8.207-.893 18.738-10.511 18.738h30.96c9.618 0 15.525-10.53 10.511-18.738zM48.973 512h62.777a18.795 18.795 0 0 0 15.811-8.632l18.352-28.549 10.872-54.446-10.872-45.275a62.87 62.87 0 0 0-53.653 30.097l-53.798 88.068C33.449 501.47 39.356 512 48.973 512z" fill="#d4f2f6"></path><path d="m338.737 375.087 30.96 127.978a8.935 8.935 0 0 1-8.935 8.935H154.85a8.935 8.935 0 0 1-8.935-8.935V375.087z" fill="#eaf9fa"></path><path d="M338.737 375.087v127.978c0 4.935-4 8.935-8.935 8.935h30.96c4.935 0 8.935-4 8.935-8.935V375.087z" fill="#d4f2f6"></path><path d="M331.242 459.985h-26.859a7.726 7.726 0 1 1 0-15.452h26.859a7.726 7.726 0 1 1 0 15.452z" fill="#6bd9e7"></path></g></svg>