<svg viewBox="0 0 512 512" xmlns="http://www.w3.org/2000/svg"><g><g clip-rule="evenodd" fill-rule="evenodd"><path d="m354.374 332.572 135.922-.001a5.815 5.815 0 0 0 5.718-7c-6.988-34.297-37.318-60.106-73.678-60.106-36.361 0-66.691 25.809-73.679 60.106a5.814 5.814 0 0 0 5.717 7.001z" fill="#8ac9fe"></path><path d="M477.007 332.572h13.289a5.815 5.815 0 0 0 5.718-7c-6.988-34.297-37.318-60.106-73.678-60.106-2.239 0-4.456.099-6.645.291 33.362 2.921 60.476 27.63 67.034 59.815.74 3.637-2.007 7-5.718 7z" fill="#60b7ff"></path><circle cx="422.335" cy="217.447" fill="#f6dccd" r="38.019" transform="rotate(-80.8 422.286 217.502)"></circle><path d="M422.335 179.428c20.997 0 38.019 17.022 38.019 38.019s-17.022 38.018-38.019 38.018c-1.798 0-3.566-.128-5.297-.369 18.49-2.578 32.722-18.45 32.722-37.649s-14.233-35.072-32.722-37.65c1.732-.241 3.5-.369 5.297-.369z" fill="#f1cbbc"></path><path d="M354.374 162.964h135.922a5.815 5.815 0 0 0 5.718-7c-6.988-34.297-37.318-60.106-73.678-60.106-36.361 0-66.691 25.809-73.679 60.106a5.814 5.814 0 0 0 5.717 7z" fill="#8ac9fe"></path><path d="M477.007 162.963h13.289a5.815 5.815 0 0 0 5.718-7c-6.988-34.297-37.318-60.106-73.678-60.106-2.239 0-4.456.099-6.645.291 33.362 2.921 60.476 27.63 67.034 59.815.74 3.637-2.007 7-5.718 7z" fill="#60b7ff"></path><circle cx="422.335" cy="47.838" fill="#f6dccd" r="38.019" transform="rotate(-82 422.549 47.79)"></circle><path d="M422.335 9.82c20.997 0 38.019 17.022 38.019 38.019s-17.022 38.019-38.019 38.019c-1.798 0-3.566-.128-5.297-.369 18.49-2.578 32.722-18.45 32.722-37.649s-14.233-35.072-32.722-37.65c1.732-.243 3.5-.37 5.297-.37z" fill="#f1cbbc"></path><path d="m354.374 502.18 135.922-.001a5.815 5.815 0 0 0 5.718-7c-6.988-34.297-37.318-60.105-73.678-60.105-36.361 0-66.691 25.809-73.679 60.106a5.814 5.814 0 0 0 5.717 7z" fill="#8ac9fe"></path><path d="M477.007 502.18h13.289a5.815 5.815 0 0 0 5.718-7c-6.988-34.297-37.318-60.105-73.678-60.105-2.239 0-4.456.099-6.645.291 33.362 2.921 60.476 27.63 67.034 59.815a5.815 5.815 0 0 1-5.718 6.999z" fill="#60b7ff"></path><circle cx="422.335" cy="387.055" fill="#f6dccd" r="38.019" transform="rotate(-80.8 422.26 387.103)"></circle><path d="M422.335 349.036c20.997 0 38.019 17.022 38.019 38.019s-17.022 38.018-38.019 38.018c-1.798 0-3.566-.128-5.297-.369 18.49-2.578 32.722-18.45 32.722-37.649s-14.233-35.072-32.722-37.65c1.732-.241 3.5-.369 5.297-.369z" fill="#f1cbbc"></path><path d="M112.225 190.425c10.055 0 18.282 8.227 18.282 18.282v51.723a5.664 5.664 0 0 0 5.653 5.653h135.611c8.505 0 15.464 6.959 15.464 15.464s-6.959 15.464-15.464 15.464H149.818v92.782H55.969V283.941c16.587 1.189 31.447-10.65 37.974-17.858v-57.376c0-10.055 8.227-18.282 18.282-18.282z" fill="#f6dccd"></path><path d="M63.969 389.792h-8V283.941c2.723.195 5.399.038 8-.391zM287.234 281.587c-.022 8.487-6.972 15.423-15.463 15.423H141.269c-7.663 0-13.874-3.582-13.874-8s6.212-8 13.874-8h140.787c1.83.001 3.578.206 5.178.577z" fill="#f1cbbc"></path><path d="M210.968 312.474c0 8.505-6.958 15.464-15.464 15.464H142.09c-8.505 0-15.463-6.958-15.463-15.464 0-8.505 6.958-15.464 15.463-15.464h53.415c8.504 0 15.463 6.959 15.463 15.464z" fill="#f6dccd"></path><path d="M210.968 312.474c0 8.505-6.958 15.464-15.464 15.464H142.09c-8.505 0-15.463-6.958-15.463-15.464 0-.18.004-.358.01-.536h84.321c.006.178.01.356.01.536z" fill="#f1cbbc"></path><path d="M210.968 343.401c0 8.505-6.958 15.464-15.464 15.464H142.09c-8.505 0-15.463-6.958-15.463-15.464 0-8.505 6.958-15.464 15.463-15.464h53.415c8.504.001 15.463 6.959 15.463 15.464z" fill="#f6dccd"></path><path d="M210.968 343.401c0 8.505-6.958 15.464-15.464 15.464H142.09c-8.505 0-15.463-6.958-15.463-15.464 0-.179.004-.358.01-.536h84.321c.006.178.01.357.01.536z" fill="#f1cbbc"></path><path d="M200.387 374.329c0 8.505-6.958 15.464-15.464 15.464H142.09c-8.505 0-15.463-6.958-15.463-15.464 0-8.505 6.958-15.464 15.463-15.464h42.834c8.505 0 15.463 6.959 15.463 15.464z" fill="#f6dccd"></path><path d="M200.387 374.329c0 8.505-6.958 15.464-15.464 15.464H142.09c-8.505 0-15.463-6.958-15.463-15.464 0-.18.004-.358.01-.536h73.74c.006.177.01.356.01.536z" fill="#f1cbbc"></path><path d="M25.865 271.972H45.97c5.508 0 10 4.492 10 10v109.789c0 5.508-4.492 10-10 10H25.865c-5.508 0-10-4.492-10-10V281.972c0-5.508 4.492-10 10-10z" fill="#d1d1d6"></path><path d="M35.969 271.972h10c5.508 0 10 4.492 10 10v109.789c0 5.508-4.492 10-10 10h-10c5.508 0 10-4.492 10-10V281.972c0-5.508-4.492-10-10-10z" fill="#b1b1b5"></path><path d="M324.082 151.21V42.659c0-11.929-9.729-21.659-21.659-21.659H143.788c-11.929 0-21.659 9.729-21.659 21.659V151.21c0 11.929 9.73 21.659 21.659 21.659h18.328v36.666c0 1.25.72 2.316 1.88 2.783a2.95 2.95 0 0 0 3.283-.705l37.219-38.744h97.925c11.93 0 21.659-9.73 21.659-21.659z" fill="#ffe177"></path><path d="M324.082 151.21V42.659c0-11.929-9.729-21.659-21.659-21.659h-10c11.929 0 21.659 9.729 21.659 21.659V151.21c0 11.929-9.729 21.659-21.659 21.659h10c11.93 0 21.659-9.73 21.659-21.659zm-161.966 55.368v2.957c0 1.25.72 2.316 1.88 2.783a2.95 2.95 0 0 0 3.283-.705l37.219-38.744h-10z" fill="#ffd064"></path><path d="M223.106 132.597c5.784 0 10.473 4.689 10.473 10.473s-4.689 10.473-10.473 10.473-10.473-4.689-10.473-10.473 4.689-10.473 10.473-10.473zm0-18.695a8.176 8.176 0 0 1-8.17-7.88l-2.066-57.225c-.083-2.302.687-4.313 2.286-5.97 1.599-1.658 3.581-2.5 5.884-2.5h4.133c2.303 0 4.285.842 5.884 2.5s2.369 3.669 2.286 5.97l-2.066 57.225a8.179 8.179 0 0 1-8.171 7.88z" fill="#fe646f"></path><path d="M223.106 132.597c5.784 0 10.473 4.689 10.473 10.473s-4.689 10.473-10.473 10.473c-1.014 0-1.995-.144-2.922-.413 4.362-1.264 7.552-5.289 7.552-10.059s-3.19-8.795-7.552-10.059a10.4 10.4 0 0 1 2.922-.415zm0-18.695a8.151 8.151 0 0 1-2.922-.538 8.179 8.179 0 0 0 5.249-7.342l2.066-57.225c.083-2.302-.686-4.313-2.286-5.97-1.397-1.449-3.087-2.275-5.029-2.46.28-.027.565-.04.855-.04h4.133c2.303 0 4.285.842 5.884 2.5s2.369 3.669 2.286 5.97l-2.066 57.225a8.177 8.177 0 0 1-8.17 7.88z" fill="#fd4755"></path></g></g></svg>