<svg viewBox="0 0 512 512" xmlns="http://www.w3.org/2000/svg"><g><g fill="#ffae8b"><path d="M313.074 149.273c-.71-4.168-4.664-6.96-8.824-6.257l-18.95 3.234a7.647 7.647 0 0 0-6.253 8.824c.633 3.73 3.871 6.363 7.527 6.363.43 0 .86-.035 1.297-.109l18.95-3.23a7.647 7.647 0 0 0 6.253-8.825zM304.129 185.012l-18.242-9.91c-3.715-2.016-8.36-.641-10.375 3.07s-.64 8.355 3.07 10.375l18.246 9.906a7.64 7.64 0 0 0 10.371-3.07 7.642 7.642 0 0 0-3.07-10.371zM25.313 161.328c.433.074.867.11 1.292.11 3.66 0 6.899-2.633 7.532-6.364a7.647 7.647 0 0 0-6.254-8.824l-18.945-3.234a7.654 7.654 0 0 0-8.829 6.257 7.647 7.647 0 0 0 6.254 8.825zM27.297 175.102l-18.242 9.91c-3.715 2.015-5.086 6.66-3.07 10.375a7.639 7.639 0 0 0 6.726 3.996 7.623 7.623 0 0 0 3.644-.926l18.247-9.91a7.654 7.654 0 0 0 3.07-10.375 7.654 7.654 0 0 0-10.375-3.07zm0 0" fill="#ffae8b"></path></g><path d="M328.555 165.309c1.336 26.425 35.226 67.464 31.285 119.82-3.524 46.84-25.602 103.726-70.797 132.504.18 2.586.277 4.984.277 7.16 0 28.504-14.984 45.23-45.422 54.187.028-.007 161.66-35.203 161.7-207.73.039-175.988-78.805-140.672-77.043-105.941zm0 0" fill="#ffdca7"></path><path d="M314.004 396.68c-7.371 7.949-15.684 15.039-24.965 20.949.184 2.586.281 4.984.281 7.16 0 28.508-14.984 45.234-45.422 54.191 0 0 32.532-7.085 68.407-30.468 3.039-6.805 4.55-14.668 4.55-23.723 0-7.246-1.058-16.918-2.851-28.11zm0 0" fill="#ffcf86"></path><path d="M194.8 51.219S216.196-3.605 234.528.187c18.59 3.844 14.98 65.692 14.98 65.692s38.4 58.937 37.157 92.84c-1.242 33.898-23.035 56.511-44.601 60.636 0 0 47.257 156.883 47.257 205.438 0 48.55-43.453 62.941-132.726 62.941-89.278 0-132.73-14.39-132.73-62.941 0-48.555 47.257-205.438 47.257-205.438-21.562-4.125-43.36-26.738-44.601-60.636-1.243-33.903 37.156-92.84 37.156-92.84S60.066 4.03 78.656.187c18.328-3.792 39.727 51.032 39.727 51.032zm0 0" fill="#ffe9c8"></path><path d="M156.594 460.2c-81.278 0-124.567-11.934-131.676-50.704-.676 5.82-1.055 10.992-1.055 15.297 0 48.55 43.45 62.941 132.727 62.941s132.73-14.394 132.73-62.941c0-4.305-.379-9.477-1.054-15.297-7.11 38.77-50.399 50.703-131.672 50.703zm0 0" fill="#ffdca7"></path><path d="M78.656.188c-18.59 3.843-14.98 65.69-14.98 65.69s-38.399 58.938-37.156 92.84c.656 17.927 7.062 32.692 16.14 43.243 107.961-24.145 98.457-150.742 98.457-150.742h-22.734S96.984-3.605 78.656.187zM234.527.188c18.586 3.843 14.98 65.69 14.98 65.69s38.4 58.938 37.157 92.84c-.656 17.927-7.062 32.692-16.14 43.243-107.962-24.145-98.462-150.742-98.462-150.742h22.739S216.195-3.605 234.527.187zm0 0" fill="#ffae8b"></path><path d="M92.41 111.3c-8.707 0-15.527 8.47-15.527 19.282s6.82 19.281 15.527 19.281c8.703 0 15.524-8.468 15.524-19.281s-6.82-19.281-15.524-19.281zM220.773 111.3c-8.703 0-15.523 8.47-15.523 19.282s6.82 19.281 15.523 19.281c8.707 0 15.528-8.468 15.528-19.281s-6.82-19.281-15.528-19.281zm0 0" fill="#433f43"></path><path d="M180.09 148.078c0-2.664-1.028-9.105-10.528-11.355-3.12-.739-7-1.055-12.968-1.055-5.977 0-9.852.316-12.969 1.055-9.504 2.25-10.531 8.691-10.531 11.355 0 7.274 6.918 14.035 15.851 16.598v17.148a7.648 7.648 0 0 0 7.649 7.649 7.65 7.65 0 0 0 7.648-7.649v-17.148c8.93-2.563 15.848-9.324 15.848-16.598zm0 0" fill="#dd8858"></path><path d="M76.04 306.508s7.456 197.844 35.929 197.844 29.148-178.36 29.148-178.36M237.145 306.508s-7.458 197.844-35.93 197.844-29.153-178.36-29.153-178.36" fill="#ffe9c8"></path><path d="M111.969 512c-13.95 0-20.711-19.605-25.04-36.684-4.25-16.75-8.019-39.984-11.206-69.054-5.391-49.164-7.309-98.969-7.328-99.469a7.648 7.648 0 0 1 7.355-7.93c4.219-.183 7.773 3.133 7.934 7.356.015.46 1.793 46.57 6.726 93.531 2.88 27.41 6.25 49.707 10.02 66.27 5.445 23.933 10.254 29.382 11.632 30.5 2.075-1.54 12.098-12.696 17.883-86.274 3.328-42.328 3.524-83.867 3.524-84.285a7.646 7.646 0 0 1 7.648-7.617h.031a7.647 7.647 0 0 1 7.618 7.676c0 .449-.211 45.41-3.922 89.789-2.2 26.28-5.188 47.304-8.88 62.48C132.446 492.762 126.13 512 111.97 512zM201.215 512c-14.16 0-20.477-19.238-24-33.707-3.692-15.18-6.676-36.2-8.875-62.484-3.711-44.38-3.922-89.34-3.926-89.79a7.648 7.648 0 0 1 7.621-7.675h.028a7.647 7.647 0 0 1 7.648 7.62c.004.415.2 42.028 3.531 84.356 5.785 73.512 15.805 84.66 17.88 86.203 1.378-1.12 6.187-6.566 11.632-30.503 3.77-16.56 7.14-38.856 10.02-66.27 4.933-46.96 6.71-93.07 6.726-93.531.16-4.223 3.742-7.531 7.934-7.356a7.654 7.654 0 0 1 7.355 7.934c-.02.496-1.937 50.3-7.328 99.469-3.188 29.066-6.957 52.3-11.207 69.054-4.328 17.075-11.09 36.68-25.04 36.68zm0 0" fill="#ffdca7"></path></g></svg>