<svg height="512" viewBox="0 0 128 128" width="512" xmlns="http://www.w3.org/2000/svg"><g id="Flat"><g id="Color"><circle cx="19" cy="19" fill="#455a64" r="17.5"/><path d="m80.5 81.081h-33a3 3 0 0 1 -2.612-4.475l16.5-29.212a3 3 0 0 1 5.224 0l16.5 29.212a3 3 0 0 1 -2.612 4.475z" fill="#e91e63"/><rect fill="#ffc107" height="35" rx="3" width="35" x="91.5" y="91.5"/><g fill="#00bcd4"><path d="m126.487 40.9c-.456-15.365-13.466-27.4-28.838-27.4h-49.149a3 3 0 0 0 -3 3v6a3 3 0 0 0 3 3h49.32c9.089 0 16.83 7.438 16.678 16.526a16.269 16.269 0 0 1 -12 15.392v-2.382a3 3 0 0 0 -5.179-2.061l-8.48 8.963a3 3 0 0 0 0 4.124l8.48 8.963a3 3 0 0 0 5.179-2.061v-3.286a28.29 28.29 0 0 0 23.989-28.778z"/><path d="m83.159 106.408-8.48-8.964a3 3 0 0 0 -5.179 2.062v3.464h-39.32c-9.089 0-16.83-7.438-16.678-16.526a16.269 16.269 0 0 1 16.248-15.974h1.25a3 3 0 0 0 3-3v-6a3 3 0 0 0 -3-3h-1.25a28.28 28.28 0 0 0 -28.237 29.105c.456 15.365 13.466 27.395 28.838 27.395h39.149v2.463a3 3 0 0 0 5.179 2.062l8.48-8.964a3 3 0 0 0 0-4.123z"/></g></g></g></svg>