<svg viewBox="0 0 512.001 512.001" xmlns="http://www.w3.org/2000/svg"><g><path d="M491.385 355.172H17.365C7.774 355.172 0 347.397 0 337.807V131.153c0-9.59 7.774-17.365 17.365-17.365h456.576a17.292 17.292 0 0 1 16.964 13.94l20.767 105.092c.218 1.104.328 2.227.328 3.352v98.384c0 11.386-9.23 20.616-20.615 20.616z" fill="#1785b8"></path><path d="m511.672 232.82-20.767-105.092a17.292 17.292 0 0 0-16.964-13.94h-24.103l14.236 72.044c.104.527.157 1.063.157 1.601v108.303c0 6.396-5.185 11.581-11.581 11.581H0v30.49c0 9.59 7.774 17.365 17.365 17.365h474.02c11.386 0 20.616-9.23 20.616-20.615v-98.384a17.388 17.388 0 0 0-.329-3.353z" fill="#0a7693"></path><circle cx="92.04" cy="355.171" fill="#35495d" r="43.04"></circle><circle cx="419.96" cy="355.171" fill="#35495d" r="43.04"></circle><path d="M415.164 397.942c1.574.175 3.171.272 4.792.272 23.771 0 43.042-19.271 43.042-43.042s-19.271-43.042-43.042-43.042c-1.624 0-3.225.098-4.803.273l.011 85.539zM87.253 397.942c1.574.175 3.171.272 4.792.272 23.771 0 43.042-19.271 43.042-43.042s-19.271-43.042-43.042-43.042c-1.624 0-3.225.098-4.803.273l.011 85.539z" fill="#2a3a4c"></path><circle cx="419.96" cy="355.171" fill="#caddea" r="18.659"></circle><path d="M512 236.172c0-1.125-.11-2.248-.328-3.352l-17.326-87.679H383.41a5.936 5.936 0 0 0-5.936 5.936v83.401c0 5.397 2.544 10.483 6.894 13.678 12.305 9.039 45.028 24.207 127.633 27.081v-39.065H512z" fill="#b5e7fe"></path><path d="m506.215 205.204-11.869-60.063h-38.313l8.041 40.692c.104.527.157 1.063.157 1.601v84.295c13.7 1.637 29.515 2.873 47.769 3.508v-39.064a17.198 17.198 0 0 0-.328-3.352l-5.457-27.617z" fill="#9ad8ed"></path><circle cx="92.04" cy="355.171" fill="#caddea" r="18.659"></circle><path d="M377.474 294.668h13.585c4.271 0 7.732-3.461 7.732-7.732s-3.461-7.732-7.732-7.732h-13.585c-4.271 0-7.732 3.461-7.732 7.732s3.461 7.732 7.732 7.732zM95.814 145.141H38.829a4.601 4.601 0 0 0-4.601 4.601v87.011a4.601 4.601 0 0 0 4.601 4.601h56.985v-96.213zM168.264 145.141h-56.985v96.212h56.985a4.601 4.601 0 0 0 4.601-4.601v-87.011a4.6 4.6 0 0 0-4.601-4.6zM338.002 145.141h-56.985v96.212h56.985a4.601 4.601 0 0 0 4.601-4.601v-87.011a4.6 4.6 0 0 0-4.601-4.6zM265.552 145.141h-56.985a4.601 4.601 0 0 0-4.601 4.601v87.011a4.601 4.601 0 0 0 4.601 4.601h56.985v-96.213z" fill="#b5e7fe"></path></g></svg>