<svg id="Capa_1" enable-background="new 0 0 512 512" height="512" viewBox="0 0 512 512" width="512" xmlns="http://www.w3.org/2000/svg"><g><path d="m440.048 472.591-53.83-14.432-14.422 53.841-49.934-86.508-10.669-18.473 39.244-49.471 25.256 3.567 10.669 18.494z" fill="#f07281"/><path d="m342.118 407.019 39.482 68.386-9.804 36.595-60.603-104.981 39.244-39.162z" fill="#eb5569"/><path d="m201.037 407.555-10.68 18.493-49.625 85.952-14.432-53.841-53.83 14.432 53.686-93.013 10.669-18.483 24.401-3.742z" fill="#f07281"/><g fill="#eb5569"><path d="m162.957 369.393-53.903 93.384-36.584 9.814 64.355-111.496 24.401 6.566z"/><path d="m161.226 357.353 39.811 50.202-10.68 18.493-39.821-39.914-24.38-6.556 10.669-18.483z"/><path d="m386.362 379.609-25.276 6.741-39.224 39.142-10.669-18.473 39.244-49.471 25.256 3.567z"/></g><g><path d="m366.515 431.758c-2.672 0-5.27-1.387-6.702-3.867l-26.307-45.564c-2.135-3.698-.868-8.426 2.83-10.561 3.696-2.133 8.426-.869 10.561 2.83l26.307 45.564c2.135 3.698.868 8.426-2.83 10.561-1.217.702-2.547 1.037-3.859 1.037z" fill="#eb5569"/></g><g><path d="m146.003 431.76c-1.312 0-2.641-.334-3.859-1.037-3.698-2.135-4.965-6.864-2.83-10.561l26.194-45.367c2.135-3.699 6.864-4.965 10.561-2.83 3.698 2.135 4.965 6.864 2.83 10.561l-26.194 45.367c-1.432 2.481-4.03 3.867-6.702 3.867z" fill="#eb5569"/></g><path d="m311.193 407.019-55.388-13.912-54.768 14.448-39.809-39.895-54.604-14.692-14.578-54.634-39.943-40.026 14.692-54.604-14.579-54.634 40.026-39.943 14.692-54.604 54.634-14.578 40.025-39.943 54.605 14.692 54.634-14.579 39.943 40.026 54.604 14.691 14.578 54.635 39.943 40.025-14.692 54.604 14.578 54.635-40.025 39.942-14.692 54.604-54.634 14.579z" fill="#fee97d"/><path d="m123.167 109.125-40.028 39.945 14.576 54.635-14.689 54.604 39.945 40.028 14.576 54.635 54.604 14.689 33.44 33.513-24.554 6.381-39.811-39.894-54.604-14.689-14.576-54.635-39.946-40.028 14.69-54.604-14.576-54.635 40.027-39.945 14.69-54.604 54.635-14.576 40.027-39.945 24.359 6.556-33.461 33.389-54.635 14.576z" fill="#fbd94f"/><path d="m256.005 347.944c-31.841 0-63.351-10.908-88.724-30.715-26.059-20.343-43.844-48.089-51.434-80.239-8.818-37.352-2.517-75.975 17.74-108.753 20.258-32.778 51.986-55.686 89.337-64.503 10.9-2.573 22.036-3.877 33.098-3.877 31.841 0 63.351 10.908 88.723 30.716 26.06 20.343 43.846 48.089 51.436 80.24 18.245 77.288-29.79 155.01-107.079 173.255-10.897 2.572-22.032 3.876-33.097 3.876z" fill="#ffb850"/><path d="m256.005 315.885c-24.727 0-49.231-8.497-68.997-23.927-20.245-15.805-34.064-37.36-39.959-62.333-6.85-29.018-1.946-59.04 13.81-84.533s40.413-43.306 69.431-50.156c8.489-2.004 17.147-3.02 25.732-3.02 24.727 0 49.23 8.497 68.995 23.927 20.248 15.805 34.066 37.361 39.962 62.335 14.184 60.083-23.159 120.504-83.243 134.688-8.486 2.003-17.143 3.019-25.731 3.019z" fill="#fee97d"/><path d="m271.557 314.779c-5.175.732-10.381 1.103-15.555 1.103-24.72 0-49.223-8.494-68.994-23.926-20.246-15.803-34.059-37.358-39.956-62.335-6.855-29.018-1.948-59.036 13.803-84.529 15.762-25.493 40.419-43.306 69.438-50.161 8.484-2 17.143-3.01 25.73-3.01 5.154 0 10.288.371 15.38 1.093-3.412.485-6.814 1.124-10.185 1.917-29.018 6.855-53.676 24.668-69.438 50.161-15.751 25.493-20.658 55.511-13.803 84.529 5.896 24.977 19.71 46.532 39.956 62.335 15.658 12.215 34.275 20.091 53.624 22.823z" fill="#fbd94f"/><path d="m262.407 136.484 18.346 37.172 41.022 5.961c5.859.851 8.198 8.051 3.959 12.184l-29.684 28.935 7.007 40.856c1.001 5.835-5.124 10.285-10.364 7.53l-36.691-19.29-36.691 19.29c-5.24 2.755-11.365-1.695-10.364-7.53l7.007-40.856-29.684-28.935c-4.239-4.132-1.9-11.332 3.959-12.184l41.022-5.961 18.346-37.172c2.619-5.309 10.19-5.309 12.81 0z" fill="#ffb850"/><path d="m236.801 191.795 29.686 28.94-5.444 31.745-5.04-2.653-36.696 19.289c-5.23 2.766-11.356-1.693-10.358-7.529l7.011-40.852-29.686-28.94c-4.244-4.131-1.907-11.331 3.954-12.177l41.029-5.962 18.342-37.176c2.615-5.306 10.194-5.306 12.809 0l18.342 37.176.518.076-40.511 5.887c-5.864.845-8.201 8.046-3.956 12.176z" fill="#f5a30f"/></g></svg>