<svg viewBox="0 0 512 512" xmlns="http://www.w3.org/2000/svg"><g><path d="M84.71 148.601c-35.713 80.547 44.79 117.561 44.79 117.561l-3.177 49.248h73.835l.594-51.76s40.749-3.843 47.623-29.261c12.771-47.222-56.825-107.444-91.975-120.738-12.602-4.767-53.729-5.561-71.69 34.95z" fill="#ffcdbe"></path><path d="m246.766 406.335-18.284 29.701a40.508 40.508 0 0 0-6.016 21.232V508a4 4 0 0 1-4 4H104.035a4 4 0 0 1-4-4V328.186c0-16.831 13.645-30.476 30.476-30.476h49.136c23.384 0 44.509 13.936 53.699 35.437l16.056 37.557a38.854 38.854 0 0 1-2.636 35.631z" fill="#e175a5"></path><path d="m249.403 370.704-16.056-37.557c-9.19-21.501-30.315-35.437-53.699-35.437h-23.1c23.384 0 44.509 13.936 53.699 35.437l16.056 37.557a38.857 38.857 0 0 1-2.636 35.631l-18.284 29.701a40.51 40.51 0 0 0-6.016 21.232V512h19.1a4 4 0 0 0 4-4v-50.732a40.508 40.508 0 0 1 6.016-21.232l18.284-29.701a38.86 38.86 0 0 0 2.636-35.631z" fill="#ca59a6"></path><path d="M152.205 244.573c-15.534 0-28.009-13.095-26.989-28.848.862-13.309 11.583-24.159 24.882-25.166 5.416-.41 10.526.776 14.91 3.137 2.655 1.43 5.955.213 7.164-2.55 13.679-31.273 11.813-87.868-15.773-102.51C121.646 70.188-6.42 109.758 40.998 248.743c23.02 67.472 20.638 132.563 11.113 158.758-8.969 24.666 91.414 45.097 104.954-157.905.184-2.761-2.039-5.029-4.807-5.023h-.053z" fill="#30569f"></path><path d="M246.691 72.436c.033 51.032 30.741 125.213 53.206 133.925 15.597 6.049 36.011-16.386 36.011-16.386l40.451 63.36 58.553-31.652-46.079-75.809s30.524-55.065-11.341-94.336C319.274-3.072 246.668 37 246.691 72.436z" fill="#faa68e"></path><path d="M399.311 15.901c-39.101-36.941-140.939.999-201.642 8.831-9.604 61.901 55.711 74.578 88.658 65.322 11.233 10.723 26.117 16.933 39.906 20.528.821.214 1.597-.425 1.596-1.274v-.017c0-12.892 10.848-23.251 23.915-22.444 11.148.688 20.243 9.718 21.008 20.862.3 4.372-.654 8.497-2.534 12.058-.984 1.864-1.036 4.078-.068 5.95l14.221 27.498c3.232 6.25 10.821 8.836 17.197 5.86L410.3 155a13.124 13.124 0 0 0 7.367-9.587c4.116-22.986 14.585-98.39-18.356-129.512z" fill="#30569f"></path><path d="M481.406 281.805c0 62.433-33.9 186.633-45.488 227.298a3.992 3.992 0 0 1-3.845 2.898H328.549a4 4 0 0 1-4-4v-83.253c0-40.602-8.889-70.584-9.405-86.586-.151-4.455.161-10.697.699-17.541 2.142-27.377 18.036-51.805 42.109-65.02l77.266-42.389c5.488-3.002 12.365-1.259 15.744 4.003 10.406 16.185 30.444 49.341 30.444 64.59z" fill="#717ed4"></path><path d="M450.962 217.215c-3.379-5.262-10.256-7.006-15.744-4.003l-8.537 4.683c10.517 16.413 30.008 48.868 30.008 63.909 0 63.998-35.62 192.897-46.317 230.195h21.699a3.992 3.992 0 0 0 3.845-2.898c11.589-40.665 45.488-164.865 45.488-227.298.002-15.247-20.036-48.403-30.442-64.588z" fill="#5766cc"></path><path d="M180.599 484.255c-15.199.75-28.145-10.943-28.933-26.149-.789-15.229 10.917-28.215 26.146-29.004 57.543-2.982 108.522-24.202 151.52-63.07a270.874 270.874 0 0 0 18.521-18.471c23.79-26.103 54.505-40.236 62.521-59.826 5.775-14.113 8.361-11.593 22.475-5.818s7.839 7.357 2.064 21.47c-5.022 12.274-10.33 42.212-46.612 81.813a328.603 328.603 0 0 1-21.936 21.798c-23.911 21.615-50.421 39.04-78.793 51.789-33.256 14.944-69.222 23.512-106.901 25.465l-.072.003z" fill="#faa68e"></path><path d="m431.979 259.001-.066-.025c3.496 6.901 4.095 15.22.936 22.941-5.944 14.528-29.334 65.54-80.713 111.985-23.911 21.615-50.422 39.04-78.793 51.789-33.256 14.944-69.222 23.512-106.901 25.465l-.071.003a27.494 27.494 0 0 1-11.757-1.999c4.78 9.416 14.766 15.648 25.986 15.094l.071-.003c37.679-1.953 73.645-10.52 106.901-25.465 28.372-12.749 54.882-30.174 78.793-51.789 51.38-46.445 74.769-97.457 80.713-111.985 5.774-14.112-.985-30.236-15.099-36.011z" fill="#d47f6c"></path><path d="M447.077 295.009c-5.015 12.279-22.491 50.589-58.778 90.191l-40.452-37.643c23.804-26.096 40.107-53.86 48.125-73.457 5.768-14.108 21.889-20.877 36.007-15.098 14.119 5.778 20.877 21.899 15.098 36.007z" fill="#717ed4"></path><path d="M432.848 281.917c-5.019 12.266-22.473 50.536-58.706 90.108l14.157 13.174.024-.026c20.97-22.891 38.324-48.377 50.823-72.991l.073-.144c2.214-4.366 7.75-15.726 9.004-20.467 3.485-13.201-12.215-17.375-15.375-9.654z" fill="#5766cc"></path><path d="m219.188 339.507 9.632 15.652 79.823-35.254 144.328-92.338c11.389-7.287 14.715-22.426 7.428-33.815s-22.426-14.715-33.815-7.428l-144.328 92.338z" fill="#ffcdbe"></path><path d="m165.913 352.95 116.259-74.423 26.39 41.227-116.258 74.422z" fill="#e175a5"></path><path d="M460.4 193.752a24.544 24.544 0 0 0-3.974-4.763c2.339 8.721-2.302 19.236-11.9 25.377l-144.328 92.338-53.506 43.806 61.953-30.605 144.328-92.338c11.388-7.286 14.714-22.426 7.427-33.815z" fill="#ebae9d"></path><path d="m300.197 306.703-109.706 70.188a7.836 7.836 0 1 0 8.446 13.202l109.706-70.188z" fill="#ca59a6"></path></g></svg>