<svg class="" viewBox="0 0 24 24" xmlns="http://www.w3.org/2000/svg"><g><g><g fill="#36c8f6"><path d="M2.81 2.81c-1.42 1.41-1.42 6 0 7.38a5.58 5.58 0 0 0 3.69 1.06 5.58 5.58 0 0 0 3.69-1.06c1.42-1.41 1.42-6 0-7.38s-5.97-1.42-7.38 0zM2.81 13.81c-1.42 1.41-1.42 6 0 7.38a5.58 5.58 0 0 0 3.69 1.06 5.58 5.58 0 0 0 3.69-1.06c1.42-1.41 1.42-6 0-7.38s-5.97-1.42-7.38 0zM17.5 11.25a5.58 5.58 0 0 0 3.69-1.06c1.42-1.41 1.42-6 0-7.38s-6-1.42-7.38 0-1.42 6 0 7.38a5.58 5.58 0 0 0 3.69 1.06z" fill="#36c8f6"></path></g><path d="M13.81 13.81c-1.42 1.41-1.42 6 0 7.38a5.58 5.58 0 0 0 3.69 1.06 5.58 5.58 0 0 0 3.69-1.06c1.42-1.41 1.42-6 0-7.38s-5.97-1.42-7.38 0z" fill="#194fc6"></path></g></g></svg>