<svg viewBox="0 0 64 64" xmlns="http://www.w3.org/2000/svg"><g><g fill="#0e5952"><path d="M36.72 51.507H30c-4.41 0-8-3.59-8-8 .045-.677-.125-16.278.13-16.45H8c-3.31 0-6 2.69-6 6v15c0 3.3 2.69 6 6 6h5.33c1 1.86.97 4.22-.11 5.9a.99.99 0 0 0-.04 1.01c.195.384.608.558 1.02.54 4.034.034 7.75-3.363 7.82-7.45H34c1.2 0 2.32-.35 3.26-.97a8.817 8.817 0 0 1-.54-1.58z" fill="#0e5952"></path><path d="M56 22.503H46v-2c0-1.654-1.346-3-3-3s-3 1.346-3 3v2H30c-3.309 0-6 2.692-6 6v15c0 3.309 2.691 6 6 6h8.455c.08 4.093 3.782 7.485 7.818 7.451.415.03.83-.153 1.026-.532a1 1 0 0 0-.041-1.01c-1.08-1.681-1.106-4.042-.11-5.909H56c3.309 0 6-2.691 6-6v-15c0-3.308-2.691-6-6-6zm-6.5 6c1.967.034 1.974 2.965 0 3h-13c-1.967-.034-1.974-2.965 0-3h13zm10.5 15c0 2.206-1.794 4-4 4h-9.42a.999.999 0 0 0-.836.452c-1.335 2.036-1.668 4.577-.982 6.785-2.689-.736-4.608-3.324-4.288-6.147.063-.569-.425-1.102-.996-1.09H30c-2.206 0-4-1.794-4-4v-15c0-2.206 1.794-4 4-4h10v2h-3.5c-4.626.148-4.624 6.854 0 7H38v1.5a2.5 2.5 0 0 0 2.5 2.5h5a2.5 2.5 0 0 0 2.5-2.5v-1.5h1.5c4.626-.147 4.624-6.853 0-7H46v-2h10c2.206 0 4 1.794 4 4v15zM56.588 11.267c.203 0 .41-.063.587-.192l2.428-1.763a1 1 0 1 0-1.176-1.617l-2.428 1.763c-.786.53-.341 1.845.589 1.809zM61.013 13.653h-3c-1.314.021-1.315 1.978 0 2h3c1.313-.022 1.315-1.979 0-2zM58.427 21.612c1.072.755 2.227-.826 1.176-1.618l-2.428-1.763c-1.061-.765-2.23.844-1.176 1.617l2.428 1.764zM28.838 11.075c1.072.756 2.227-.825 1.176-1.617l-2.428-1.763c-1.061-.766-2.23.844-1.176 1.617l2.428 1.763zM25 15.653h3c1.314-.022 1.315-1.979 0-2h-3c-1.314.021-1.315 1.978 0 2zM28.838 18.23l-2.428 1.764c-1.05.791.102 2.373 1.176 1.618l2.428-1.764c1.052-.77-.113-2.384-1.176-1.617z" fill="#0e5952"></path></g><path d="M42.42 2.517c-11.084.53-15.835 14.664-7.197 21.695.97.798 1.527 1.998 1.527 3.291a1 1 0 0 0 1 1h10.5a1 1 0 0 0 1-1c0-1.288.568-2.497 1.559-3.317a12.213 12.213 0 0 0 4.441-9.433c.148-6.809-6.031-12.692-12.83-12.236z" fill="#f2be22"></path></g></svg>