<svg id="colour_copy" height="512" viewBox="0 0 256 256" width="512" xmlns="http://www.w3.org/2000/svg" data-name="colour copy"><path d="m116.6276 138.3194h23.65a0 0 0 0 1 0 0v76.3892a5.6985 5.6985 0 0 1 -5.6985 5.6985h-12.253a5.6985 5.6985 0 0 1 -5.6985-5.6985v-76.3892a0 0 0 0 1 0 0z" fill="#fb941e"/><rect fill="#f29327" height="50.174" rx="11.397" width="50.58" x="103.163" y="175.932"/><path d="m176.1659 237.5026h-95.4259a5.5 5.5 0 0 1 -5.5-5.5v-21.3358a16.5 16.5 0 0 1 16.5-16.5h73.4263a16.5 16.5 0 0 1 16.5 16.5v21.3358a5.5 5.5 0 0 1 -5.5004 5.5z" fill="#8c321a"/><path d="m128.4527 28.1631a303.9561 303.9561 0 0 1 -49.05-3.9249 112.4942 112.4942 0 0 0 -3.1133 26.5318c0 42.9686 23.3543 98.2482 52.1633 98.2482s52.1633-55.2799 52.1633-98.2482a112.4942 112.4942 0 0 0 -3.1134-26.5314 303.9554 303.9554 0 0 1 -49.0499 3.9245z" fill="#ffcd52"/><path d="m106.9119 114.1611a5.6982 5.6982 0 0 1 -5.1175-3.1843c-8.7022-17.692-14.108-40.762-14.108-60.2068a5.6985 5.6985 0 0 1 11.397 0c0 17.8095 4.9575 38.9518 12.9377 55.1764a5.7 5.7 0 0 1 -5.1092 8.215z" fill="#fff"/><g fill="#f29327"><path d="m183.4285 122.22a13.8187 13.8187 0 0 1 -11.9474-6.546c-4.5012-7.245-2.5348-18.7411 12.0058-28.0907 20.4028-13.1194 38.5873-26.2944 37.03-43.1956a11.7915 11.7915 0 0 0 -9.2292-10.5611 13.7756 13.7756 0 0 0 -14.9819 5.3841c-3.7163 5.4236-5.5775 13.9118-5.69 25.95a5.6986 5.6986 0 0 1 -5.6971 5.6451h-.0545a5.6988 5.6988 0 0 1 -5.6448-5.7519c.1347-14.3742 2.6484-24.9348 7.6852-32.285a24.9961 24.9961 0 0 1 27.2521-9.9724 23.0788 23.0788 0 0 1 17.71 20.5463c2.3206 25.19-23.42 41.7415-42.2151 53.8269-8.4587 5.4392-9.6961 10.5478-8.4893 12.49.7321 1.1787 2.6553 1.7658 5.1465.27a5.9143 5.9143 0 0 0 2.0089-1.6355 5.6984 5.6984 0 0 1 10.8728 3.4158c-.951 3.08-3.3123 5.7692-7.0177 7.9924a17.0211 17.0211 0 0 1 -8.7443 2.5176z"/><path d="m72.7076 122.22a17.014 17.014 0 0 1 -8.7436-2.517c-3.7057-2.2238-6.0669-4.9127-7.018-7.9929a5.6984 5.6984 0 0 1 10.8728-3.4158 5.9222 5.9222 0 0 0 2.0092 1.6361c2.492 1.4947 4.4144.9076 5.1462-.271 1.2068-1.9422-.0306-7.0508-8.4893-12.49-18.7949-12.0849-44.5357-28.6361-42.2149-53.8264a23.0788 23.0788 0 0 1 17.71-20.5463 25.0008 25.0008 0 0 1 27.2514 9.9723c5.0368 7.35 7.5505 17.9108 7.6852 32.285a5.6988 5.6988 0 0 1 -5.6448 5.7519h-.0545a5.698 5.698 0 0 1 -5.6973-5.645c-.1127-12.0381-1.9739-20.5263-5.69-25.95a13.7763 13.7763 0 0 0 -14.9819-5.3841 11.7915 11.7915 0 0 0 -9.2292 10.5611c-1.5571 16.9013 16.6275 30.0763 37.03 43.1956 14.5406 9.35 16.507 20.8457 12.0058 28.0907a13.8193 13.8193 0 0 1 -11.9471 6.5458z"/></g></svg>