<svg viewBox="0 0 511.998 511.998" xmlns="http://www.w3.org/2000/svg"><g><path d="M325.965 254.646c-13.352-85.727-49.205-139.037-83.766-171.548-43.773-41.176-112.076-41.181-155.854-.01-34.566 32.507-70.425 85.813-83.788 171.538 0 0-25.157 120.191 82.336 183.039a157.113 157.113 0 0 0 158.714.01c107.5-62.835 82.358-183.029 82.358-183.029z" fill="#e59770"></path><path d="M243.608 437.679a157.05 157.05 0 0 1-93.661 20.851 157.063 157.063 0 0 0 66.04-20.941c107.5-62.843 82.366-183.03 82.366-183.03-13.358-85.734-49.213-139.043-83.77-171.552-18.192-17.107-40.623-27.112-63.76-30.005 32.325-3.829 65.982 6.203 91.381 30.096 34.557 32.509 70.412 85.818 83.76 171.552 0-.001 25.145 120.186-82.356 183.029z" fill="#db7e56"></path><path d="M509.444 255.249c-13.352-85.727-49.205-139.037-83.766-171.548-43.773-41.176-112.076-41.181-155.854-.01-34.565 32.506-70.424 85.813-83.787 171.538 0 0-25.157 120.191 82.336 183.039a157.113 157.113 0 0 0 158.714.01c107.499-62.836 82.357-183.029 82.357-183.029z" fill="#f9e8d4"></path><path d="M427.086 438.282a157.05 157.05 0 0 1-93.661 20.851 157.063 157.063 0 0 0 66.04-20.941c107.5-62.843 82.366-183.03 82.366-183.03-13.358-85.734-49.213-139.043-83.77-171.552-18.192-17.107-40.623-27.112-63.76-30.005 32.325-3.829 65.982 6.203 91.381 30.096 34.557 32.509 70.412 85.818 83.76 171.552 0-.002 25.144 120.186-82.356 183.029z" fill="#e8d0ba"></path><circle cx="347.76" cy="316.959" fill="#fec007" r="83.53"></circle><path d="M431.295 316.968c-.007 46.128-37.403 83.527-83.541 83.521-21.21.003-40.572-7.901-55.297-20.936 9.392 3.666 19.617 5.667 30.305 5.671 46.128-.004 83.524-37.392 83.531-83.521-.001-24.918-10.905-47.293-28.213-62.584 31.144 12.137 53.207 42.42 53.215 77.849z" fill="#efad0a"></path></g></svg>