<svg viewBox="0 0 512 512" xmlns="http://www.w3.org/2000/svg"><g><g clip-rule="evenodd" fill-rule="evenodd"><ellipse cx="349.1" cy="145.577" fill="#66d4f1" rx="129.577" ry="129.578" transform="rotate(-45 349.1 145.653)"></ellipse><circle cx="349.1" cy="145.577" fill="#4fc0e8" r="95.913" transform="rotate(-45 349.1 145.653)"></circle><path d="M400.129 108.803a6.978 6.978 0 0 1 8.804 10.828l-87.811 71.305a6.978 6.978 0 0 1-10.26-1.622l-30.97-46.125a6.977 6.977 0 0 1 11.594-7.765l26.767 39.865z" fill="#f4f6f8"></path><path d="m91.923 464.77 68.016-33.07c9.834-4.781 19.877-5.637 30.379-2.588l72.118 20.94c22.854 6.636 51.164-5.506 72.438-13.703l135.35-52.158c35.642-13.735 44.274-85.238-39.892-60.596l-96.559 28.271c-2.801-10.176-10.768-18.674-21.645-21.589l-65.39-17.522c-44.555-31.596-67.242-22.867-102.769-5.495-32.559 15.92-65.423 31.214-98.189 46.706z" fill="#efc7a4"></path><path d="m129.887 480.473-34.672 14.398c-7.522 3.124-16.205-.458-19.336-7.978L17.167 345.911a14.73 14.73 0 0 1 7.986-19.356l34.672-14.398c7.522-3.124 16.205.458 19.336 7.978l58.712 140.982a14.731 14.731 0 0 1-7.986 19.356z" fill="#cad0d7"></path><path d="m333.828 367.863-146.189-39.171c-4.368 16.304 5.397 33.217 21.701 37.586l65.39 17.521 21.512 5.764c16.302 4.368 33.217-5.397 37.586-21.7z" fill="#d5a889"></path></g></g></svg>