<svg viewBox="0 0 64 64" xmlns="http://www.w3.org/2000/svg"><g><path d="m24 39.003-4 6-5 1-3-4z" fill="#ffcc3e"></path><path d="M12 56v8H5V54c0-5.67 1.63-10.211 7-12l3 4 5-1 3 3 1.5 8z" fill="#7b8350"></path><path d="M19 60.003h6.25l.75 4h-7z" fill="#3da2c1"></path><path d="M19 60.003v4h-7v-4h4z" fill="#f7a539"></path><path d="M12 56.003h4v4h-4z" fill="#39b278"></path><path d="M21 56.003v4h-5v-4z" fill="#d74c4c"></path><path d="m24.5 56.003.75 4H21v-4z" fill="#ffcc3e"></path><path d="M32 63.003v1h-6l-.75-4-.75-4-1.5-8-3-3 4-6 4.56 13.67z" fill="#8ea06b"></path><path d="M46 58c1.1 0 2 1.9 2 3a2 2 0 0 1-4 0c0-1.1.9-3 2-3z" fill="#ffcc3e"></path><path d="M48 52.003v6h-4v-6z" fill="#d74c4c"></path><path d="M52 64H38l3-16 3-3 5 1 3-4c5.37 1.789 7 6.33 7 12v10zm-8-3a2 2 0 0 0 4 0c0-1.1-.9-3-2-3h2v-6h-4v6h2c-1.1 0-2 1.9-2 3z" fill="#6d7042"></path><path d="m52 42.003-3 4-5-1-4-6z" fill="#f7a539"></path><path d="M35.44 52.673 40 39.003l4 6-3 3-3 16h-6v-1z" fill="#9fad8a"></path><path d="m40 39.003-4.56 13.67-1.44-8.67z" fill="#f2f2f2"></path><path d="m34 44.003 1.44 8.67L32 63.003l-3.44-10.33 1.44-8.67z" fill="#666666"></path><path d="m30 44.003-1.44 8.67L24 39.003z" fill="#f2f2f2"></path><path d="M39.25 35.273 40 39l-6 5h-4l-6-5 .75-3.73a10.992 10.992 0 0 0 14.5 0z" fill="#e09b8d"></path><path d="M49 16a1.959 1.959 0 0 1-2 2h-4l1-4h2s3 0 3 2z" fill="#f7a539"></path><path d="M47 18v3c0 5-4 6-4 6v-9z" fill="#e09b8d"></path><path d="M37 33s-1-4-5-4-5 4-5 4zm6-14.99V27c0 4.355-3.57 8.12-3.75 8.27A11 11 0 0 1 21 27v-8.99S24 21 32 21s11-2.987 11-2.987z" fill="#f4baa6"></path><path d="M21 18.013V27s-4-1-4-6v-3h4z" fill="#e09b8d"></path><path d="M18 14h2l1 4h-4a1.959 1.959 0 0 1-2-2c0-2 3-2 3-2z" fill="#f7a539"></path><path d="M43 18v.01S40 21 32 21s-11-2.99-11-2.99V18s4-2 11-2 11 2 11 2z" fill="#666666"></path><path d="M35.34 12.153A33.844 33.844 0 0 1 44 14l-1 4s-4-2-11-2-11 2-11 2l-1-4a33.844 33.844 0 0 1 8.66-1.85c1.05-.088 2.16-.15 3.34-.15s2.29.062 3.34.153z" fill="#ffcc3e"></path><path d="M32 5v7c-1.18 0-2.29.059-3.34.15L27 8s2-3 5-3z" fill="#ffcc3e"></path><path d="m37 8-1.66 4.15C34.29 12.062 33.18 12 32 12V5c3 0 5 3 5 3z" fill="#f7a539"></path><path d="M49 8c0 3-3 6-3 6h-2a33.844 33.844 0 0 0-8.66-1.85L37 8s-2-3-5-3-5 3-5 3l1.66 4.15A33.844 33.844 0 0 0 20 14h-2s-3-3-3-6 6-7 17-7 17 4 17 7zM52 56a1 1 0 0 0-1 1v6a1 1 0 0 0 2 0v-6a1 1 0 0 0-1-1z" fill="#7b8350"></path><circle cx="35.5" cy="24.503" fill="#995e55" r="1.5"></circle><circle cx="28.5" cy="24.503" fill="#995e55" r="1.5"></circle><path d="M33 30v-4a1 1 0 0 0-2 0v4z" fill="#d1897d"></path></g></svg>