<svg viewBox="0 0 512 512" xmlns="http://www.w3.org/2000/svg"><g><path d="M105 371.764C105 342.669 128.67 319 157.764 319h67.379v10.791c0 16.463 13.394 29.857 29.857 29.857s29.857-13.394 29.857-29.857V319h33.177l.3-.358c18.978-22.651 46.788-35.642 76.3-35.642 41.875 0 77.787 26.003 92.447 62.709C495.457 321.005 500 294.533 500 267c0-135.31-109.69-245-245-245S10 131.69 10 267c0 78.796 37.207 148.893 95 193.711z" fill="#c8effe"></path><path d="M410.5 0c-54.217 0-98.398 42.934-100.42 96.656C329.146 107.751 342 128.396 342 152v22.03c17.95 16.729 42.027 26.97 68.5 26.97 55.505 0 100.5-44.995 100.5-100.5S466.005 0 410.5 0z" fill="#ffe177"></path><path d="M350 100.5c0-48.656 34.578-89.233 80.5-98.507A100.977 100.977 0 0 0 410.5 0c-54.217 0-98.398 42.934-100.42 96.656C329.146 107.751 342 128.396 342 152v22.03c17.95 16.729 42.027 26.97 68.5 26.97 6.849 0 13.536-.688 20-1.993-45.922-9.273-80.5-49.851-80.5-98.507z" fill="#ffd15b"></path><path d="M364.915 111.667c-5.378 0-9.439 4.887-8.45 10.173 4.771 25.501 27.149 44.801 54.035 44.801s49.264-19.3 54.035-44.801c.989-5.286-3.073-10.173-8.45-10.173z" fill="#feb137"></path><path d="M390.149 121.84c-.989-5.286 3.073-10.173 8.45-10.173h-33.684c-5.378 0-9.439 4.887-8.45 10.173 4.771 25.501 27.149 44.801 54.035 44.801a54.95 54.95 0 0 0 16.842-2.628c-18.983-6.103-33.464-22.244-37.193-42.173z" fill="#f6ab31"></path><ellipse cx="375.282" cy="74.301" fill="#feb137" rx="14.274" ry="15.891"></ellipse><ellipse cx="445.718" cy="74.301" fill="#feb137" rx="14.274" ry="15.891"></ellipse><path d="M147 232.15v-10.004c0-11.615 8.659-21.613 20.142-23.255l.858-.123V107c0-6.733 3.53-12.644 8.827-16.02C158.413 70.144 131.493 57 101.5 57 45.995 57 1 101.995 1 157.5S45.995 258 101.5 258c17.945 0 34.789-4.709 49.371-12.95a23.363 23.363 0 0 1-3.871-12.9z" fill="#00f2a6"></path><path d="M35 157.5c0-49.71 36.094-90.985 83.502-99.062A101.123 101.123 0 0 0 101.5 57C45.995 57 1 101.995 1 157.5S45.995 258 101.5 258c5.793 0 11.47-.498 16.994-1.44C71.09 248.48 35 207.208 35 157.5z" fill="#05e39c"></path><path d="M147.084 190.372H55.915c-5.159 0-9.341-4.182-9.341-9.341s4.182-9.341 9.341-9.341h91.169c5.159 0 9.341 4.182 9.341 9.341s-4.182 9.341-9.341 9.341z" fill="#00c285"></path><ellipse cx="66.282" cy="131.301" fill="#00c285" rx="14.274" ry="15.891"></ellipse><ellipse cx="136.718" cy="131.301" fill="#00c285" rx="14.274" ry="15.891"></ellipse><path d="M170.498 198.648H182v-14.902c0-13.839 11.259-25.098 25.098-25.098h95.805c13.839 0 25.098 11.259 25.098 25.098v14.902h11.502c1.189 0 2.356.09 3.498.262V152c0-35.898-29.102-65-65-65h-91c-11.046 0-20 8.954-20 20v91.91a23.575 23.575 0 0 1 3.497-.262z" fill="#bb5d4c"></path><path d="M207 107c0-11.046 8.954-20 20-20h-40c-11.046 0-20 8.954-20 20v91.91a23.6 23.6 0 0 1 3.498-.262H182v-14.902c0-13.806 11.206-25.042 25-25.095z" fill="#a44f3e"></path><path d="M295.135 382.5c0-24.588 8.97-47.118 23.803-64.5h-35.08v11.791c0 15.912-12.945 28.857-28.857 28.857s-28.857-12.945-28.857-28.857V318h-68.379C128.071 318 104 342.071 104 371.764v88.18C145.611 492.555 198.034 512 255 512c43.916 0 85.126-11.566 120.77-31.802-45.874-8.84-80.635-49.283-80.635-97.698z" fill="#01d0fb"></path><path d="M271.273 304.648h-32.547c-4.682 0-9.229-.581-13.584-1.656v26.798c0 16.49 13.367 29.857 29.857 29.857s29.857-13.367 29.857-29.857v-26.798a56.592 56.592 0 0 1-13.583 1.656z" fill="#ffb09e"></path><path d="M254 329.791v-25.143h-15.273c-4.682 0-9.229-.581-13.584-1.656v26.798c0 16.49 13.367 29.857 29.857 29.857a29.72 29.72 0 0 0 14.429-3.717C260.231 350.844 254 341.047 254 329.791zM182 247.922v-50.273h-11.502c-13.53 0-24.498 10.968-24.498 24.498v10.004c0 13.53 10.968 24.498 24.498 24.498h12.174a56.959 56.959 0 0 1-.672-8.727z" fill="#f89580"></path><path d="M339.502 197.648H328v50.273c0 2.967-.231 5.881-.673 8.727h12.174c13.53 0 24.498-10.968 24.498-24.498v-10.004c.001-13.529-10.967-24.498-24.497-24.498z" fill="#ffb09e"></path><path d="M271.273 305.648h-32.547c-31.882 0-57.727-25.845-57.727-57.727v-64.176c0-14.413 11.684-26.098 26.098-26.098h95.805c14.413 0 26.098 11.684 26.098 26.098v64.176c0 31.882-25.845 57.727-57.727 57.727z" fill="#ffcebf"></path><path d="M214 247.922v-64.176c0-14.413 11.684-26.098 26.098-26.098h-33c-14.413 0-26.098 11.684-26.098 26.098v64.176c0 31.881 25.845 57.727 57.727 57.727h32.547c.076 0 .151-.005.227-.006C239.723 305.52 214 279.727 214 247.922z" fill="#ffb09e"></path><path d="M255 274.828c-11.306 0-22.611-3.815-31.834-11.445a7.501 7.501 0 0 1 9.562-11.558c12.905 10.676 31.641 10.677 44.546 0a7.5 7.5 0 1 1 9.562 11.558c-9.224 7.63-20.53 11.445-31.836 11.445zM216.5 214.588a7.5 7.5 0 0 1-7.5-7.5V196.29a7.5 7.5 0 0 1 15 0v10.799a7.5 7.5 0 0 1-7.5 7.499zM293.5 214.588a7.5 7.5 0 0 1-7.5-7.5V196.29a7.5 7.5 0 0 1 15 0v10.799a7.5 7.5 0 0 1-7.5 7.499zM254.994 241.474a7.471 7.471 0 0 1-3.406-.822l-16.648-8.504a7.5 7.5 0 0 1-2.246-11.602l16.648-19.133a7.5 7.5 0 0 1 11.315 9.847l-10.35 11.895 8.104 4.14a7.5 7.5 0 0 1-3.417 14.179z" fill="#ec806b"></path><circle cx="394.635" cy="382.5" fill="#fe7d43" r="100.5"></circle><path d="M335 382.5c0-48.503 34.36-88.979 80.067-98.419A100.912 100.912 0 0 0 394.634 282c-55.505 0-100.5 44.995-100.5 100.5S339.13 483 394.635 483c7.001 0 13.835-.718 20.433-2.081C369.36 471.479 335 431.003 335 382.5z" fill="#fd6930"></path><path d="M434.146 435.596c-4.441 0-8.393-3.158-9.239-7.681-2.72-14.538-15.452-25.089-30.273-25.089s-27.553 10.551-30.273 25.089c-.956 5.108-5.872 8.477-10.98 7.519-5.108-.956-8.475-5.872-7.519-10.98 4.385-23.437 24.897-40.448 48.772-40.448s44.387 17.011 48.772 40.448c.956 5.108-2.411 10.024-7.519 10.98a9.49 9.49 0 0 1-1.741.162z" fill="#ef4424"></path><ellipse cx="359.417" cy="356.301" fill="#ef4424" rx="14.274" ry="15.891"></ellipse><ellipse cx="429.852" cy="356.301" fill="#ef4424" rx="14.274" ry="15.891"></ellipse></g></svg>