<svg viewBox="0 0 512 512.001" xmlns="http://www.w3.org/2000/svg"><g><path d="M485.285 7.703h-261.73c-8.004 0-14.493 6.488-14.493 14.492V226.2c0 8.004 6.489 14.492 14.493 14.492h261.73c8 0 14.488-6.488 14.488-14.492V22.195c.004-8.004-6.484-14.492-14.488-14.492zm0 0" fill="#ce7132"></path><path d="M239.969 226.2V22.194c0-8.004 6.488-14.492 14.492-14.492h-30.906c-8.004 0-14.493 6.488-14.493 14.492V226.2c0 8.004 6.489 14.492 14.493 14.492h30.906c-8 0-14.492-6.488-14.492-14.492zm0 0" fill="#b75f23"></path><path d="M469.406 34.2H239.43a3.873 3.873 0 0 0-3.871 3.87v172.254c0 2.215 1.855 3.871 3.87 3.871h229.977c1.996 0 3.875-1.632 3.875-3.87V38.07a3.874 3.874 0 0 0-3.875-3.87zm0 0" fill="#e4eaf8"></path><path d="M266.465 210.324V38.07a3.874 3.874 0 0 1 3.875-3.87h-30.91a3.873 3.873 0 0 0-3.871 3.87v172.254c0 2.215 1.855 3.871 3.87 3.871h30.91c-1.995 0-3.874-1.632-3.874-3.87zm0 0" fill="#c7d2e5"></path><path d="M325.809 124.148V65.29c-.688-.023-1.371-.05-2.063-.05-32.773 0-59.344 26.57-59.344 59.347 0 32.773 26.567 59.348 59.344 59.348 16.992 0 32.3-7.153 43.117-18.59zm0 0" fill="#54a0ff"></path><path d="M295.309 124.586c0-22.305 12.308-41.727 30.5-51.863v-7.434c-.688-.023-1.371-.05-2.063-.05-32.773 0-59.344 26.57-59.344 59.347 0 32.773 26.567 59.348 59.344 59.348 5.352 0 10.535-.715 15.465-2.043-25.285-6.801-43.902-29.875-43.902-57.305zm0 0" fill="#338def"></path><path d="M323.746 65.238v59.348h59.348c0-32.777-26.57-59.348-59.348-59.348zm0 0" fill="#feca57"></path><path d="M383.094 124.586h-59.348l41.895 42.031c10.78-10.746 17.453-25.61 17.453-42.031zm0 0" fill="#ff6b6b"></path><g fill="#c7d2e5"><path d="M436.293 102.047h-21.195a7.726 7.726 0 1 1 0-15.453h21.195a7.727 7.727 0 1 1 0 15.453zM436.293 132.313h-21.195a7.729 7.729 0 0 1 0-15.458h21.195a7.73 7.73 0 1 1 0 15.457zM436.293 162.574h-21.195a7.726 7.726 0 1 1 0-15.453h21.195a7.727 7.727 0 1 1 0 15.453zm0 0" fill="#c7d2e5"></path></g><path d="M132.453 0C102.488 0 78.2 24.29 78.2 54.254v21.934c3.625-3.36 8.785-5.188 13.82-4.516v-2.703c0-2.149 1.836-3.848 3.965-3.684 20.973 1.508 42.32-5.156 58.461-15.703a3.695 3.695 0 0 1 4.727.578c13.8 14.832 13.715 14.258 13.715 16.195v5.31c5.52-.83 10.418.874 13.82 4.038v-21.45C186.703 24.29 162.414 0 132.453 0zm0 0" fill="#576574"></path><path d="M98.148 54.254c0-26.555 19.079-48.64 44.278-53.324a54.491 54.491 0 0 0-9.973-.93C102.488 0 78.2 24.29 78.2 54.254v21.934c3.625-3.36 8.785-5.188 13.82-4.516v-2.703c0-2.149 1.836-3.848 3.965-3.684.72.05 1.442.094 2.164.125zm0 0" fill="#3e4b5a"></path><path d="M172.813 69.7V99.53c0 .324-.016.645-.024.965 10.559 1.602 18.828-6.027 18.828-15.398 0-9.387-8.277-16.977-18.804-15.399zm0 0" fill="#ffbeab"></path><path d="M186.766 73.738c-3.414-3.164-8.325-4.87-13.856-4.039v29.832c0 .324-.015.645-.023.965 5.547.844 10.46-.867 13.879-4.039zm0 0" fill="#f7af9f"></path><path d="M92.14 99.57V69.672c-9.214-1.234-18.85 5.84-18.85 15.426 0 9.382 8.272 17.043 18.874 15.437-.008-.32-.023-.644-.023-.965zm0 0" fill="#ffbeab"></path><path d="M92.14 96.52c-3.117-2.872-5-6.95-5-11.422 0-4.34 1.981-8.164 5-10.938v-4.488c-9.214-1.234-18.85 5.84-18.85 15.426 0 9.382 8.272 17.043 18.874 15.437-.008-.32-.023-.64-.023-.965zm0 0" fill="#f7af9f"></path><path d="M133.031 137.43c-8.765 0-16.469-2.407-22.77-6.434v22.227l22.673 27.98 22.668-27.98v-22.828a39.631 39.631 0 0 1-22.57 7.035zm0 0" fill="#ffbeab"></path><path d="M130.488 137.352c-7.715-.418-14.543-2.723-20.226-6.356v22.227l20.226 24.964zm0 0" fill="#f7af9f"></path><path d="M159.172 48.254a3.69 3.69 0 0 0-4.727-.574c-16.14 10.543-37.488 17.207-58.465 15.699a3.698 3.698 0 0 0-3.964 3.687v32.41c0 20.833 16.324 39.856 41.011 39.856 21.977 0 39.86-17.879 39.86-39.855V64.449c0-1.937.082-1.363-13.715-16.195zm0 0" fill="#ffcdbf"></path><path d="M111.969 99.477V63.012c-5.293.605-10.653.75-15.989.367-2.125-.16-3.96 1.535-3.96 3.687v32.41c0 20.833 16.32 39.856 41.011 39.856 3.324 0 6.551-.418 9.64-1.187-18.82-4.45-30.702-20.899-30.702-38.668zm0 0" fill="#ffbeab"></path><path d="m215.531 174.406-59.93-23.207-22.648 27.961-22.691-27.96-59.82 23.206s-22.165 9.114-22.165 34.38v65.382a5.156 5.156 0 0 0 5.157 5.156h199.148a5.113 5.113 0 0 0 5.113-5.113v-65.426c0-25.265-22.164-34.379-22.164-34.379zm0 0" fill="#e4eaf8"></path><path d="M47.309 200.36c0-16.938 9.96-26.61 16.527-31.15l-13.395 5.196s-22.164 9.114-22.164 34.38v65.378a5.156 5.156 0 0 0 5.157 5.156h13.875zM160.305 193.527l16.937-33.949-21.64-8.379-22.649 27.961 22.086 15.684a3.573 3.573 0 0 0 5.266-1.317zm0 0" fill="#c7d2e5"></path><path d="m105.637 193.527-16.942-33.949 21.567-8.379 22.722 27.961-22.082 15.684a3.573 3.573 0 0 1-5.265-1.317zm0 0" fill="#c7d2e5"></path><path d="M132.984 179.18v-.02l-.015.012-.012-.012v.02l-16.062 11.406 7.593 11.43h16.965l7.594-11.43zm0 0" fill="#ee5253"></path><path d="m137.672 187.793 3.719-2.645-8.407-5.968v-.02l-.015.012-.012-.012v.02l-16.062 11.406 7.593 11.43h16.84l-4.922-7.41a4.975 4.975 0 0 1 1.266-6.813zm0 0" fill="#d83941"></path><path d="M73.02 279.324V217.47a7.022 7.022 0 0 0-14.043 0v61.855zM206.996 279.324V217.47c0-3.875-3.144-7.02-7.023-7.02s-7.02 3.14-7.02 7.02v61.855zm0 0" fill="#c7d2e5"></path><path d="M115.21 279.324h35.52l-9.277-77.308h-16.965zm0 0" fill="#ff6b6b"></path><path d="M132.984 202.016h-8.496l-9.277 77.308h16.84l9.277-77.308zm0 0" fill="#ee5253"></path><path d="M62.473 339.965c-20.012 0-36.38 16.37-36.38 36.379s16.368 36.379 36.38 36.379c20.007 0 36.379-16.371 36.379-36.38s-16.372-36.378-36.38-36.378zm0 0" fill="#ffcdbf"></path><path d="M57.535 376.344c0-14.387 8.465-26.89 20.656-32.785a36.065 36.065 0 0 0-15.722-3.594c-20.008 0-36.38 16.37-36.38 36.379s16.372 36.379 36.38 36.379a36.065 36.065 0 0 0 15.722-3.594C66 403.234 57.535 390.73 57.535 376.344zm0 0" fill="#ffbeab"></path><path d="M91.508 412.723H33.434C15.047 412.723 0 427.77 0 446.16v57.059C0 508.066 3.934 512 8.785 512H116.16c4.852 0 8.785-3.93 8.785-8.781V446.16c0-18.39-15.047-33.437-33.437-33.437zm0 0" fill="#54a0ff"></path><path d="M31.441 503.215v-57.059c0-18.386 15.047-33.433 33.438-33.433H33.434C15.047 412.723 0 427.77 0 446.156v57.059A8.786 8.786 0 0 0 8.785 512h31.442a8.786 8.786 0 0 1-8.786-8.785zm0 0" fill="#338def"></path><path d="M37.473 512v-49.64a7.589 7.589 0 0 0-15.176 0V512zM102.645 462.36a7.586 7.586 0 0 0-15.172 0V512h15.172zm0 0" fill="#338def"></path><path d="M187.414 339.965c-20.008 0-36.379 16.37-36.379 36.379s16.371 36.379 36.38 36.379c20.01 0 36.378-16.371 36.378-36.38s-16.371-36.378-36.379-36.378zm0 0" fill="#ffcdbf"></path><path d="M182.48 376.344c0-14.387 8.465-26.89 20.657-32.785a36.078 36.078 0 0 0-15.723-3.594c-20.008 0-36.379 16.37-36.379 36.379s16.371 36.379 36.38 36.379a36.078 36.078 0 0 0 15.722-3.594c-12.192-5.895-20.657-18.399-20.657-32.785zm0 0" fill="#ffbeab"></path><path d="M216.453 412.723H158.38c-18.39 0-33.434 15.047-33.434 33.437v57.059a8.781 8.781 0 0 0 8.782 8.781h107.375c4.851 0 8.785-3.93 8.785-8.781V446.16c0-18.39-15.047-33.437-33.434-33.437zm0 0" fill="#54a0ff"></path><path d="M156.387 503.215v-57.059c0-18.386 15.047-33.433 33.433-33.433H158.38c-18.39 0-33.434 15.047-33.434 33.433v57.059c0 4.851 3.93 8.785 8.782 8.785h31.445a8.786 8.786 0 0 1-8.785-8.785zm0 0" fill="#338def"></path><path d="M162.414 512v-49.64a7.586 7.586 0 0 0-15.172 0V512zM227.59 462.36a7.589 7.589 0 0 0-15.176 0V512h15.172v-49.64zm0 0" fill="#338def"></path><path d="M312.36 339.965c-20.008 0-36.38 16.37-36.38 36.379s16.372 36.379 36.38 36.379 36.378-16.371 36.378-36.38-16.37-36.378-36.379-36.378zm0 0" fill="#ffcdbf"></path><path d="M307.422 376.344c0-14.387 8.465-26.89 20.66-32.785a36.078 36.078 0 0 0-15.723-3.594c-20.007 0-36.379 16.37-36.379 36.379s16.372 36.379 36.38 36.379a36.078 36.078 0 0 0 15.722-3.594c-12.195-5.895-20.66-18.399-20.66-32.785zm0 0" fill="#ffbeab"></path><path d="M341.395 412.723h-58.07c-18.391 0-33.438 15.047-33.438 33.437v57.059c0 4.847 3.933 8.781 8.785 8.781h107.375c4.851 0 8.785-3.93 8.785-8.781V446.16c0-18.39-15.047-33.437-33.437-33.437zm0 0" fill="#54a0ff"></path><path d="M281.332 503.215v-57.059c0-18.386 15.043-33.433 33.434-33.433h-31.442c-18.39 0-33.437 15.047-33.437 33.433v57.059a8.786 8.786 0 0 0 8.785 8.785h31.441c-4.851 0-8.781-3.934-8.781-8.785zm0 0" fill="#338def"></path><path d="M287.36 512v-49.64a7.589 7.589 0 0 0-15.176 0V512zM352.531 462.36a7.586 7.586 0 0 0-15.172 0V512h15.172zm0 0" fill="#338def"></path><path d="M437.3 339.965c-20.007 0-36.378 16.37-36.378 36.379s16.371 36.379 36.379 36.379c20.012 0 36.379-16.371 36.379-36.38s-16.367-36.378-36.38-36.378zm0 0" fill="#ffcdbf"></path><path d="M432.367 376.344c0-14.387 8.465-26.89 20.656-32.785a36.065 36.065 0 0 0-15.722-3.594c-20.008 0-36.38 16.37-36.38 36.379s16.372 36.379 36.38 36.379a36.065 36.065 0 0 0 15.722-3.594c-12.191-5.895-20.656-18.399-20.656-32.785zm0 0" fill="#ffbeab"></path><path d="M466.34 412.723h-58.074c-18.387 0-33.434 15.047-33.434 33.437v57.059a8.782 8.782 0 0 0 8.785 8.781h107.375c4.852 0 8.785-3.93 8.785-8.781V446.16c-.004-18.39-15.05-33.437-33.437-33.437zm0 0" fill="#54a0ff"></path><path d="M406.273 503.215v-57.059c0-18.386 15.047-33.433 33.434-33.433h-31.441c-18.391 0-33.434 15.047-33.434 33.433v57.059c0 4.851 3.93 8.785 8.781 8.785h31.446a8.786 8.786 0 0 1-8.786-8.785zm0 0" fill="#338def"></path><path d="M412.305 512v-49.64a7.589 7.589 0 0 0-15.176 0V512zM477.477 462.36a7.589 7.589 0 0 0-15.176 0V512h15.176zm0 0" fill="#338def"></path><path d="M339.203 67.281a59.5 59.5 0 0 0-15.457-2.043v8.676a59.169 59.169 0 0 1 15.457-6.633zm0 0" fill="#f4b537"></path></g></svg>