<svg viewBox="0 0 66 66" xmlns="http://www.w3.org/2000/svg"><g><path d="M61.4 7v17c0 1.5-1.2 2.6-2.6 2.6H46.9v-1.8c0-.8-.4-1.6-.9-2.1s-1.3-.8-2.1-.9c-1.7 0-3.1 1.5-3.1 3.2v1.7h-2c-1.3-.2-2.3-1.3-2.3-2.6V7c0-1.5 1.2-2.6 2.6-2.6h19.6c1.5 0 2.7 1.2 2.7 2.6z" fill="#178bff"></path><path d="M49 24.8v1.9h-2.1v-1.8c0-.8-.4-1.6-.9-2.1s-1.3-.8-2.1-.9c-1.7 0-3.1 1.5-3.1 3.2v1.7h-2v-1.7c0-1.4.5-2.7 1.5-3.7s2.2-1.5 3.5-1.5h.2c1.3 0 2.5.5 3.5 1.5.9.8 1.4 2 1.5 3.4z" fill="#3b3e3f" opacity=".15"></path><path d="m64.9 39.8.1 11.8c0 1.2-.6 2.3-1.4 3.1s-1.3 1.9-1.3 3v2.4c0 .7-.6 1.3-1.3 1.3l-16.1.1c-.7 0-1.3-.6-1.3-1.3v-2.5c0-1.1-.5-2.2-1.3-2.9l-8.7-8.2c-1.2-1.1-1.2-3 0-4.2.6-.6 1.3-.9 2.1-.9s1.5.3 2.1.9l2.9 2.9.1-20.3c0-1.7 1.4-3.2 3.1-3.2.8 0 1.5.3 2.1.9.6.5.9 1.3.9 2.1l-.1 11.5c0-1.7 1.3-3 3-3 .8 0 1.6.3 2.1.9.6.5.9 1.3.9 2.1v1.8c0-1.7 1.3-3 3-3 .8 0 1.6.3 2.1.9.6.5.9 1.3.9 2.1v1.8c0-1.7 1.3-3 3-3 .8 0 1.6.3 2.1.9.7.4 1 1.2 1 2z" fill="#ffaf57"></path><path d="M25.9 7v17c0 1.5-1.2 2.6-2.6 2.6H3.6C2.2 26.7 1 25.5 1 24V7c0-1.5 1.2-2.6 2.6-2.6h19.6c1.5 0 2.7 1.2 2.7 2.6z" fill="#f95353"></path><circle cx="43.9" cy="11.1" fill="#ffffff" r="2.4"></circle><circle cx="54" cy="11.1" fill="#ffffff" r="2.4"></circle><circle cx="54" cy="20" fill="#ffffff" r="2.4"></circle><circle cx="8.4" cy="11.1" fill="#ffffff" r="2.4"></circle><circle cx="18.5" cy="11.1" fill="#ffffff" r="2.4"></circle><circle cx="18.5" cy="20" fill="#ffffff" r="2.4"></circle><circle cx="8.4" cy="20" fill="#ffffff" r="2.4"></circle><path d="M25.9 38.7v17c0 1.5-1.2 2.6-2.6 2.6H3.6c-1.5 0-2.6-1.2-2.6-2.6v-17c0-1.5 1.2-2.6 2.6-2.6h19.6c1.5 0 2.7 1.2 2.7 2.6z" fill="#00cc6f"></path><circle cx="8.4" cy="47.2" fill="#ffffff" r="2.4"></circle><circle cx="18.5" cy="47.2" fill="#ffffff" r="2.4"></circle></g></svg>