<svg viewBox="0 0 64 64" xmlns="http://www.w3.org/2000/svg"><g><path d="M31.113 10.022c-9.366.458-17.088 8.496-17.586 18.31a19.648 19.648 0 0 0 8.244 17.192 2.402 2.402 0 0 1 .979 1.978V51h18.5v-2.433c0-.82.363-2.612 1.014-3.068A19.604 19.604 0 0 0 50.5 29.39c0-11.017-8.766-19.887-19.387-19.367z" fill="#f2d891"></path><path d="M26 17c-2.761 0-5 1.919-5 4.286a3.687 3.687 0 0 0 .206 1.153A4.356 4.356 0 0 0 18 26.429a3.983 3.983 0 0 0 1.435 3 3.983 3.983 0 0 0-1.435 3 4.33 4.33 0 0 0 3.04 3.942c-.01.115-.04.226-.04.343C21 39.081 23.239 41 26 41a5.283 5.283 0 0 0 4-1.738V18.738A5.283 5.283 0 0 0 26 17z" fill="#ccac52"></path><path d="M41 51H23a1 1 0 0 0-1 1v1a2 2 0 0 0 2 2v2a2 2 0 0 0 2 2v1.333A2.544 2.544 0 0 0 28.4 63h7.2a2.544 2.544 0 0 0 2.4-2.667V59a2 2 0 0 0 2-2v-2a2 2 0 0 0 2-2v-1a1 1 0 0 0-1-1z" fill="#6c7999"></path><path d="M24 55v2a2 2 0 0 0 2 2h12a2 2 0 0 0 2-2v-2z" fill="#637399"></path><path d="M43.957 30.751a9.848 9.848 0 0 0 0-3.502L46 25.994a12.175 12.175 0 0 0-3-5.547l-1.185.728a1.388 1.388 0 0 1-1.561-.04 8.884 8.884 0 0 0-1.342-.823 1.569 1.569 0 0 1-.813-1.419v-1.452a10.628 10.628 0 0 0-3.153-.44q-.479.006-.946.058v7.603a3.747 3.747 0 0 1 1.091-.162 4.31 4.31 0 0 1 4.09 4.5 4.31 4.31 0 0 1-4.09 4.5A3.747 3.747 0 0 1 34 33.338v7.604a10.357 10.357 0 0 0 1.235.057 10.638 10.638 0 0 0 2.864-.446v-1.446a1.569 1.569 0 0 1 .813-1.42 8.873 8.873 0 0 0 1.342-.822 1.388 1.388 0 0 1 1.56-.04l1.18.724A12.173 12.173 0 0 0 46 32.006z" fill="#7583a6"></path><path d="M31 1h2v5h-2zM54 27h5v2h-5zM5 27h5v2H5zM12.2 9.617l1.413-1.414 3.535 3.536-1.414 1.413zM46.843 11.74l3.535-3.535 1.414 1.414-3.535 3.535z" fill="#a3b1bf"></path><g fill="#7c88a6"><path d="M21.199 22.442a5.25 5.25 0 0 0-1.403.718l1.78 1.78a.75.75 0 0 0 .53.22h2v-1.5h-1.69zM25.356 23.659h1.5v1.5h-1.5zM24.94 34.153h1.5v1.5h-1.5zM19.435 29.429a4.549 4.549 0 0 0-.41.431H22v-1.5h-3.437a4.377 4.377 0 0 0 .872 1.069zM21.284 34.273l-1.82 1.17a5.076 5.076 0 0 0 1.43.864l1.016-.654h1.78v-1.5h-2a.747.747 0 0 0-.406.12zM23.25 28.36h1.5v1.5h-1.5z" fill="#7c88a6"></path></g></g></svg>