<svg viewBox="0 0 511.999 511.999" xmlns="http://www.w3.org/2000/svg"><g><path d="M503.648 205.818c-7.445-11.262-18.841-18.893-32.09-21.485-13.252-2.595-26.68.176-37.817 7.799L332.75 261.203l6.469 9.459H130.167l-23.046 13.077 23.046 89.499 15.436-.321v11.162H336.76l154.221-110.022c22.016-15.705 27.579-45.679 12.667-68.239z" fill="#ffc473"></path><path d="M312.859 230.203h-53.556c-9.067-8.861-29.363-22.7-67.679-22.7-48.811 0-69.786 20.664-74.036 25.514l-33.96 34.715 21.488 21.02 7.057 28.259h200.686c23.934 0 43.404-19.471 43.404-43.404.002-23.932-19.469-43.404-43.404-43.404z" fill="#ffdba9"></path><path d="M341.292 62.002c-32.105 0-59.049 22.515-65.903 52.576H121.65v49.219h30.06v-19.159h26.553v25.211h30.06v-25.211h67.065c6.854 30.07 33.798 52.586 65.903 52.586 37.285 0 67.616-30.331 67.616-67.616.001-37.275-30.33-67.606-67.615-67.606zm0 105.162c-20.702 0-37.546-16.844-37.546-37.556 0-20.702 16.844-37.546 37.546-37.546 20.712 0 37.556 16.844 37.556 37.546-.001 20.712-16.845 37.556-37.556 37.556z" fill="#ffaa20"></path><path d="M38.335 245.966h103.211v190.991H38.335z" fill="#60dd4e" transform="scale(-1) rotate(-27.567 -1391.867 366.617)"></path><path d="m135.302 317.013-91.488 47.763 44.574 85.207 91.489-47.765z" fill="#00c37a"></path><path d="M408.908 129.608c0 37.285-30.331 67.616-67.616 67.616-32.105 0-59.049-22.515-65.903-52.586h-67.065v25.211h-30.06v-25.211H151.71v19.159h-30.06v-34.189h182.096c0 20.712 16.844 37.556 37.546 37.556 20.712 0 37.556-16.844 37.556-37.556h30.06z" fill="#ff8900"></path></g></svg>