<svg viewBox="0 0 512 512" xmlns="http://www.w3.org/2000/svg"><g><path d="m462.134 337.39-11.076 6.576c-5.774 3.689-11.189 13.184-8.653 19.556l6.403 13.499c2.421 6.068-.89 12.202-5.711 16.614l-3.039 2.788a3.141 3.141 0 0 0-.472 4.087l6.28 6.105c4.464 6.539 2.806 11.537-3.115 16.787l-8.134 6.923a3.162 3.162 0 0 0-1.059 2.358v7.671c0 10.501-3.596 19.233-12.787 24.41-5.722 3.207-11.207 5.348-17.652 4.154l-44.189-4.846c-6.571-1.226-25.708-5.188-31.975-7.368l-5.869 5.292-.325 9.191-.21.503c-1.729 3.731-5.414 15.116-5.414 37.186 0 1.452-1.593 2.4-3.05 2.4L125.194 512a3.143 3.143 0 0 1-3.06-3.857l9.487-34.451a258.507 258.507 0 0 0 6.864-59.233v-28.935a38.42 38.42 0 0 0-12.869-28.694l-20.803-18.518c-41.417-36.868-63.99-89.079-63.99-142.642 0-20.289 3.249-40.777 9.925-60.7l1.195-3.553C75.459 61.339 137.123 10.983 210.493 1.96 220.816.692 231.222 0 241.639 0c40.568 0 81.377 10.511 119.115 38.367l3.34 2.51c11.538 8.52 16.389 17.242 27.257 29.189l10.038 15.345c29.103 34.804 45.746 75.635 45.516 121.002-.052 7.525-.659 14.05-4.327 20.736-7.304 13.351-9.208 30.987-1.904 44.339l24.229 43.923c4.454 8.154 5.06 16.991-2.769 21.979z" fill="#f3cfca"></path><path d="m463.017 339.56-11.423 7.294a14.279 14.279 0 0 0-5.575 17.323l5.03 12.649a15.686 15.686 0 0 1-3.982 17.397l-3.039 2.788a3.141 3.141 0 0 0-.472 4.087l3.699 5.418c4.464 6.539 3.364 15.374-2.557 20.625l-7.252 6.424a3.162 3.162 0 0 0-1.059 2.358v7.671c0 10.501-5.67 20.184-14.861 25.361l-.304.178a28.038 28.038 0 0 1-18.822 3.113l-43.47-8.173c147.481-222.897 5.163-423.195 5.163-423.195 11.538 8.52 19.453 16.144 30.321 28.091l11.633 13.917a192.037 192.037 0 0 1 44.728 124.156v.304a45.448 45.448 0 0 1-5.628 21.599l-.199.367a44.638 44.638 0 0 0-.01 42.852l24.072 44.047c4.455 8.153 1.835 18.36-5.993 23.349zM326.956 456.704l-6.194 14.483c-19.482-6.948-37.466-18.329-52.085-32.949l-17.114-17.114a7.861 7.861 0 0 1 0-11.119c3.06-3.071 8.038-3.071 11.109 0l17.114 17.114c13.215 13.216 29.533 23.444 47.17 29.585z" fill="#efbbb4"></path><path d="M377.586 197.156c0 80.545-55.741 138.697-136.286 138.697-52.368 0-98.289-20.458-124.009-61.906-13.84-22.302-21.831-48.613-21.831-76.791 0-80.545 65.295-145.84 145.84-145.84 28.178 0 54.489 7.991 76.791 21.831 41.448 25.721 59.495 71.642 59.495 124.009z" fill="#f58a97"></path><path d="M318.085 73.155c13.84 22.302 21.839 48.608 21.839 76.786 0 81.398-59.961 145.84-145.84 145.84-28.178 0-54.484-8-76.786-21.839 25.721 41.448 71.633 69.054 124.001 69.054 80.545 0 145.84-65.295 145.84-145.84.001-52.367-27.606-98.28-69.054-124.001z" fill="#f07281"></path><path d="M349.225 197.154c0 28.614-8.078 50.934-25.535 70.906-1.536 1.761-5.181 1.422-6.824 3.084-1.968 1.991-1.957 5.961-4.065 7.795-19.972 17.458-42.885 25.729-71.498 25.729-20.797 0-40.277.541-57.042-9.213a114.006 114.006 0 0 1-17.684-12.696c-2.227-1.943-2.322-6.024-4.389-8.134-1.524-1.556-5.057-1.103-6.49-2.745-17.458-19.972-28.029-46.112-28.029-74.726 0-62.759 50.874-113.633 113.633-113.633 28.614 0 54.743 10.571 74.715 28.029 1.288 1.121 1.525 5.351 2.761 6.531 2.478 2.365 5.876 1.766 8.128 4.348a114.057 114.057 0 0 1 12.69 17.673c9.759 16.767 9.629 36.251 9.629 57.052z" fill="#f3f0f3"></path><path d="M339.597 140.102c.217 3.255.327 6.529.327 9.839 0 42.177-15.442 77.464-42 103.845-25.643 25.472-60.049 41.995-103.84 41.995-3.305 0-6.574-.109-9.823-.326 16.765 9.754 36.245 15.332 57.042 15.332 28.614 0 54.743-10.571 74.715-28.029 2.109-1.835 2.097-5.804 4.065-7.795 1.643-1.662 5.288-1.323 6.824-3.084 17.458-19.972 28.029-46.112 28.029-74.726 0-20.8-5.581-40.284-15.339-57.051z" fill="#e2dee2"></path><path d="M241.3 105.337a7.697 7.697 0 0 1-7.697-7.697V41.455a7.697 7.697 0 1 1 15.394 0V97.64a7.697 7.697 0 0 1-7.697 7.697zM141.783 204.853H85.598a7.697 7.697 0 1 1 0-15.394h56.185a7.697 7.697 0 1 1 0 15.394z" fill="#918291"></path><path d="M241.3 360.555a7.697 7.697 0 0 1-7.697-7.697v-56.185a7.697 7.697 0 1 1 15.394 0v56.185a7.697 7.697 0 0 1-7.697 7.697zM397.001 204.853h-56.185a7.697 7.697 0 1 1 0-15.394h56.185a7.697 7.697 0 1 1 0 15.394z" fill="#7a6d79"></path><path d="M326.907 271.88a112.38 112.38 0 0 1-10.889 10.879l-18.094-18.094c-3.007-3.007-3.007-7.882 0-10.879a7.7 7.7 0 0 1 10.889 0z" fill="#cbc4cc"></path><path d="m184.671 264.665-18.094 18.094a113.529 113.529 0 0 1-10.879-10.879l18.094-18.094c2.997-3.007 7.872-3.007 10.879 0 3.007 2.997 3.007 7.872 0 10.879zM326.907 122.429l-18.094 18.104c-1.509 1.498-3.479 2.248-5.45 2.248s-3.931-.749-5.439-2.248a7.7 7.7 0 0 1 0-10.889l18.094-18.094a112.267 112.267 0 0 1 10.889 10.879z" fill="#e2dee2"></path><circle cx="241.299" cy="197.156" fill="#f58a97" r="55.229"></circle><circle cx="241.299" cy="197.156" fill="#f3f0f3" r="22.688"></circle><path d="M235.249 198.803c-1.97 0-3.94-.752-5.443-2.255L88.448 55.19a7.698 7.698 0 0 1 10.886-10.886l141.358 141.358a7.698 7.698 0 0 1-5.443 13.141z" fill="#918291"></path><path d="m124.204 80.061 1.937-40.74a3.08 3.08 0 0 0-.898-2.323L93.166 4.922c-1.89-1.89-5.126-.639-5.253 2.031L86.243 42.1l15.538 19.418z" fill="#f58a97"></path><path d="m124.204 80.061-40.74 1.937a3.08 3.08 0 0 1-2.323-.898L49.065 49.023c-1.89-1.89-.639-5.126 2.031-5.253l35.147-1.67z" fill="#f07281"></path></g></svg>