<svg viewBox="0 0 64 64" xmlns="http://www.w3.org/2000/svg"><g><path d="M7 36.54A3.98 3.98 0 0 1 9 40v7a4.333 4.333 0 0 1-4 2 4.333 4.333 0 0 1-4-2v-7a3.98 3.98 0 0 1 2-3.46V37a2.015 2.015 0 0 0 2 2 2.006 2.006 0 0 0 2-2z" fill="#e89838"></path><path d="M53 30.33V47s-5 8-20 8-20-8-20-8V30.33L33 39z" fill="#405066"></path><path d="M63 22 33 35 7 24h26a2.015 2.015 0 0 0 2-2 2.006 2.006 0 0 0-2-2H7L33 9z" fill="#717e93"></path><path d="M53 30.33 33 39l-20-8.67-6-2.6V24l26 11 30-13v4z" fill="#53647c"></path><path d="M33 20a2.006 2.006 0 0 1 2 2 2.015 2.015 0 0 1-2 2H7v13a2.006 2.006 0 0 1-2 2 2.015 2.015 0 0 1-2-2V24a4 4 0 0 1 4-4z" fill="#f9bb3d"></path><path d="M44.942 19.275a1 1 0 0 0 .325-1.919l-8.241-3.478a1 1 0 0 0-.777 1.843l8.24 3.478a1.013 1.013 0 0 0 .453.076z" fill="#8d98a9"></path><circle cx="33.22" cy="13.31" fill="#8d98a9" r="1"></circle><path d="M5 49a6.044 6.044 0 0 0 1-.083V44a1 1 0 0 0-2 0v4.917A6.044 6.044 0 0 0 5 49z" fill="#d68022"></path><g fill="#324254"><path d="m33 39-20-8.67V35s5 8 20 8c7.019 0 11.848-1.752 15-3.616V42a1 1 0 0 0 2 0v-3.967A13.291 13.291 0 0 0 53 35v-4.67z" fill="#324254"></path><circle cx="49" cy="46" fill="#324254" r="1"></circle></g></g></svg>