<svg viewBox="0 0 512 512" xmlns="http://www.w3.org/2000/svg"><g><path d="m392.749 509.663-38.16-22.482V368.475a7.73 7.73 0 0 0-15.46 0v118.706l-38.16 22.482c-1.101.649-.641 2.337.637 2.337h90.505c1.279 0 1.739-1.688.638-2.337z" fill="#d1dced"></path><path d="M186.419 139.833V7.136A7.136 7.136 0 0 0 179.283 0h-38.279a7.136 7.136 0 0 0-7.136 7.136v132.697a33.482 33.482 0 0 1-7.041 20.541l-17.034 21.928a78.75 78.75 0 0 0-16.56 48.312v266.769c0 8.073 6.544 14.617 14.617 14.617h104.587c8.073 0 14.617-6.544 14.617-14.617V230.614a78.754 78.754 0 0 0-16.56-48.312l-17.034-21.928a33.482 33.482 0 0 1-7.041-20.541z" fill="#96223b"></path><path d="M401.882 221.759H291.835s-25.708 63.508-13.682 104.099c10.016 33.805 39.798 48.285 56.679 53.916a38 38 0 0 0 24.051 0c16.881-5.631 46.663-20.111 56.679-53.916 12.029-40.591-13.68-104.099-13.68-104.099z" fill="#e5ebf6"></path><path d="M401.882 221.759h-46.608s20.488 62.315 13.681 104.099c-3.408 20.92-11.156 39.981-20.34 55.824a38.01 38.01 0 0 0 10.269-1.908c16.881-5.631 46.663-20.111 56.679-53.916 12.028-40.591-13.681-104.099-13.681-104.099z" fill="#d1dced"></path><path d="M275.458 289.171c-1.06 12.764-.594 25.583 2.696 36.687 10.016 33.805 39.798 48.285 56.679 53.916a38 38 0 0 0 24.051 0c16.881-5.631 46.663-20.111 56.679-53.916 3.29-11.104 3.756-23.923 2.696-36.687H275.458z" fill="#96223b"></path><path d="M416.124 323.842c.059-.225.112-.454.168-.681.114-.456.228-.912.334-1.373.062-.269.118-.542.177-.813.092-.424.183-.847.268-1.275.058-.291.111-.584.166-.877.077-.412.153-.825.223-1.241.051-.302.099-.606.148-.91a82.556 82.556 0 0 0 .575-4.347c.046-.433.089-.869.129-1.305.028-.298.056-.596.081-.896.038-.456.071-.914.103-1.372.02-.282.041-.564.059-.847.031-.503.056-1.008.08-1.513.011-.239.025-.477.035-.717.026-.637.045-1.275.06-1.915l.01-.332c.016-.773.025-1.548.026-2.325v-.042c.001-.749-.005-1.499-.018-2.251l-.012-.516a134.34 134.34 0 0 0-.046-1.786c-.007-.219-.017-.438-.026-.657-.021-.554-.044-1.108-.072-1.663l-.038-.699a149.332 149.332 0 0 0-.27-3.978l-.028-.34H369.44c1.2 12.639 1.353 25.411-.484 36.687-3.408 20.92-11.156 39.981-20.34 55.824h.004c.862-.04 1.723-.11 2.582-.208l.019-.002a37.694 37.694 0 0 0 2.405-.361c.107-.019.214-.038.32-.059a38.247 38.247 0 0 0 2.282-.505c.116-.029.231-.062.346-.092a37.021 37.021 0 0 0 2.305-.681l.004-.001a111.147 111.147 0 0 0 6.871-2.547c17.146-7.006 41.044-21.79 49.808-51.369a59.75 59.75 0 0 0 .562-2.015zM210.494 182.302l-17.034-21.928a33.481 33.481 0 0 1-7.041-20.54V7.136A7.136 7.136 0 0 0 179.283 0h-19.14v171.724c0 4.891 1.399 9.669 3.985 13.82 5.469 8.778 14.631 26.287 14.631 45.07v266.769c0 8.073-6.544 14.617-14.617 14.617h48.294c8.073 0 14.617-6.544 14.617-14.617V230.614a78.749 78.749 0 0 0-16.559-48.312z" fill="#841935"></path><path d="M227.054 386.464h-70.942c-7.049 0-12.763-5.714-12.763-12.763v-90.435c0-7.049 5.714-12.763 12.763-12.763h70.942v115.961z" fill="#c8e8e5"></path><path d="M178.76 270.5h48.29v115.96h-48.29z" fill="#b2d8d4"></path><path d="M179.283 0h-38.279a7.136 7.136 0 0 0-7.136 7.136v116.829h52.552V7.136A7.138 7.138 0 0 0 179.283 0z" fill="#ffdc6c"></path><path d="M186.419 123.965V7.135c0-.739-.112-1.452-.321-2.122a7.082 7.082 0 0 0-.518-1.232c-.008-.016-.014-.032-.023-.047a7.134 7.134 0 0 0-1.206-1.619l-.023-.025a7.162 7.162 0 0 0-2.065-1.432 7.078 7.078 0 0 0-.858-.338 7.152 7.152 0 0 0-2.122-.32h-19.14v123.965h26.276z" fill="#f7ce5e"></path><path d="M187.757 48.608H132.53a2.918 2.918 0 0 1-2.918-2.918V25.799a2.918 2.918 0 0 1 2.918-2.918h55.227a2.918 2.918 0 0 1 2.918 2.918V45.69a2.919 2.919 0 0 1-2.918 2.918z" fill="#ffbf14"></path><path d="M187.757 22.882H142.38v25.726h45.377a2.918 2.918 0 0 0 2.918-2.918V25.799a2.919 2.919 0 0 0-2.918-2.917z" fill="#eda60a"></path></g></svg>