<svg viewBox="0 0 512 512" xmlns="http://www.w3.org/2000/svg"><g><path d="M256 353.612c97.126 0 181.289-80.812 181.289-181.305C432.437 76.328 353.127 0 256 0S79.563 76.328 74.711 172.308c0 103.3 84.163 181.304 181.289 181.304z" fill="#ffe27a"></path><path d="M162.186 318.502c16.848 17.924 59.482 35.11 93.814 35.11s74.388-16.454 93.814-35.111c-17.041-16.381-40.181-26.455-65.678-26.455h-56.271c-25.497 0-48.638 10.075-65.679 26.456z" fill="#8bcaff"></path><g fill="#f9cf58"><path d="m151.75 330.336 11.486-1.007s-1.036-10.828-1.05-10.827l.013-.001c-50.081-30.307-84.351-84.138-87.489-146.195-.156 3.09-.235 6.2-.235 9.329.001 61.492 30.545 115.84 77.275 148.701zM437.289 172.306c-3.138 62.056-37.407 115.887-87.487 146.194l.012.002-2.04 11.834h12.477c46.729-32.862 77.274-87.209 77.274-148.701 0-3.129-.08-6.239-.236-9.329z" fill="#f9cf58"></path></g><path d="M282.504 415.335v46.153h13.929c4.626 0 6.935 5.601 3.652 8.86l-40.432 40.146a5.182 5.182 0 0 1-7.303 0l-40.432-40.146c-3.283-3.259-.974-8.86 3.652-8.86h13.929v-46.153a5.183 5.183 0 0 1 5.183-5.183h42.642a5.184 5.184 0 0 1 5.18 5.183zM256 353.612l17.531-9.846-2.901-15.913-14.63-9-14.63 9-2.901 15.913z" fill="#ff4755"></path><g fill="#6cc4ff"><path d="m273.531 343.766-7.415 8.69 10.753 9.612-.004.009c30.797-3.529 59.25-14.768 83.386-31.741a95.47 95.47 0 0 0-10.437-11.834c-22.663 13.717-48.57 22.596-76.293 25.255l.01.009zM235.131 362.068l10.727-9.472-7.39-8.83.009-.009c-27.722-2.659-53.629-11.538-76.292-25.254a95.47 95.47 0 0 0-10.437 11.834c24.136 16.973 52.589 28.212 83.385 31.741l-.002-.01z" fill="#6cc4ff"></path></g><path d="M256 344.612c-5.915 0-11.761-.293-17.531-.846l-3.337 18.302c6.849.785 13.81 1.202 20.869 1.202s14.02-.417 20.869-1.202l-3.337-18.302c-5.772.553-11.618.846-17.533.846z" fill="#fc2b3a"></path><path d="M270.63 327.853h-29.26l-13.897-35.806h57.054z" fill="#ea2f4a"></path><path d="m154.207 410.38-32.635 32.635 9.849 9.849c3.271 3.271.943 8.864-3.683 8.847l-56.978-.202a5.182 5.182 0 0 1-5.164-5.164l-.202-56.978c-.016-4.626 5.576-6.954 8.847-3.683l9.849 9.849 32.635-32.635a5.183 5.183 0 0 1 7.33 0l30.153 30.153a5.183 5.183 0 0 1-.001 7.329zM357.793 410.38l32.635 32.635-9.849 9.849c-3.271 3.271-.943 8.864 3.683 8.847l56.978-.202a5.182 5.182 0 0 0 5.164-5.164l.202-56.978c.016-4.626-5.576-6.954-8.847-3.683l-9.849 9.849-32.635-32.635a5.182 5.182 0 0 0-7.329 0l-30.153 30.153a5.182 5.182 0 0 0 0 7.329z" fill="#ff4755"></path><path d="m174.634 234.069 4.426-8.146 6.237-10.231-6.263-22.194a25.84 25.84 0 0 0-2.654-.136c-10.883 0-20.178 6.782-23.909 16.35 0 12.977 11.28 24.357 22.163 24.357z" fill="#f4b184"></path><path d="M176.381 226.062c-10.883 0-20.178-6.782-23.909-16.35a25.62 25.62 0 0 0-1.754 9.329c0 14.182 11.49 25.679 25.663 25.679 1.793 0 3.543-.186 5.232-.536l7.233-8.652-9.786-9.609c-.881.091-1.774.139-2.679.139z" fill="#eaa678"></path><path d="m337.366 234.069-4.426-8.146-6.237-10.231 6.263-22.194a25.84 25.84 0 0 1 2.654-.136c10.883 0 20.178 6.782 23.909 16.35 0 12.977-11.28 24.357-22.163 24.357z" fill="#f4b184"></path><path d="M335.619 226.062c10.883 0 20.178-6.782 23.909-16.35a25.62 25.62 0 0 1 1.754 9.329c0 14.182-11.49 25.679-25.663 25.679-1.793 0-3.543-.186-5.232-.536l-7.233-8.652 9.786-9.609c.881.091 1.774.139 2.679.139z" fill="#eaa678"></path><path d="M179.034 205.705c0 58.156 34.459 86.012 76.965 86.012 42.507 0 76.966-30.524 76.966-86.012V114.43H179.034z" fill="#ffc89f"></path><path d="M332.957 171.024c-10.151-5.668-19.81-18.536-25.135-26.51-1.97-2.95-6.291-3.1-8.407-.252-10.81 14.549-26.69 20.306-35.667 22.494-3.14.765-6.22-1.534-6.365-4.763-.264-5.894-2.515-11.276-4.63-15.101-1.671-3.023-5.741-3.609-8.199-1.183-25.025 24.702-55.295 26.658-63.459 26.46a14.811 14.811 0 0 1-3.876-.617c-12.443-3.711-24.38-14.301-31.69-21.857-2.928-3.026-1.226-8.133 2.944-8.72 9.912-1.395 16.808-5.189 21.346-8.843 3.354-2.7 2.06-8.069-2.132-9.054-13.227-3.11-18.691-13.647-20.919-20.921-1.05-3.431 1.692-6.854 5.273-6.634 39.198 2.398 49.236-21.42 86.793-32.227 39.628-11.404 67.686 18.047 67.686 18.047s40.162-3.778 43.608 36.114c3.294 38.128-17.171 53.567-17.171 53.567" fill="#365e7d"></path><path d="M256 282.718c-42.507 0-76.966-34.48-76.966-77.013v18.658c0 42.533 34.459 77.013 76.966 77.013s76.966-34.48 76.966-77.013v-18.658c0 42.533-34.459 77.013-76.966 77.013z" fill="#f7bc94"></path><path d="M219.259 191.835a7.789 7.789 0 0 0-7.789 7.789v17.154c0 4.302 3.487 7.789 7.789 7.789s7.789-3.487 7.789-7.789v-17.154a7.789 7.789 0 0 0-7.789-7.789zM293.368 224.568a7.789 7.789 0 0 0 7.789-7.789v-17.154c0-4.302-3.487-7.789-7.789-7.789s-7.789 3.487-7.789 7.789v17.154a7.789 7.789 0 0 0 7.789 7.789z" fill="#365e7d"></path><path d="M280.248 250.142a7.754 7.754 0 0 0 .795-3.434 7.795 7.795 0 0 0-15.098-2.727c-.221.44-2.363 4.302-9.631 4.302s-9.41-3.862-9.631-4.302a7.795 7.795 0 0 0-15.098 2.727 7.75 7.75 0 0 0 .795 3.434c2.096 5.096 9.496 13.72 23.934 13.72 14.438-.001 21.838-8.625 23.934-13.72z" fill="#ff4755"></path></g></svg>