<svg viewBox="0 0 512 512" xmlns="http://www.w3.org/2000/svg"><g><path d="m256.185 182.11 10 95.557-10 114.843h-85.55V259.88c0-34.59 20.58-64.37 50.16-77.77z" fill="#fbe000"></path><path d="M341.255 259.88v132.63h-85.07v-210.4h34.91c29.58 13.4 50.16 43.18 50.16 77.77z" fill="#fdbf00"></path><path d="m170.925 295.94 10 98.56-10 111.83h-85.55V373.7c0-34.59 20.58-64.37 50.16-77.76z" fill="#29cc5f"></path><path d="M256.005 373.7v132.63h-85.08V295.94h34.91c29.58 13.39 50.17 43.17 50.17 77.76z" fill="#00a600"></path><path d="m170.925 206.25 20 54.25-20 51.75c-29.27 0-53-23.73-53-53s23.73-53 53-53z" fill="#ffcdbe"></path><path d="M223.925 259.25c0 29.27-23.73 53-53 53v-106c29.27 0 53 23.73 53 53z" fill="#ffbeaa"></path><path d="m256.185 92.43 10 56.337-10 49.663c-29.27 0-53-23.73-53-53 0-29.28 23.73-53 53-53z" fill="#ffcdbe"></path><path d="M309.185 145.43c0 29.27-23.73 53-53 53v-106c29.27 0 53 23.72 53 53z" fill="#ffbeaa"></path><path d="m341.555 295.94 20 107.124-20 103.266h-85.55V373.7c0-34.59 20.58-64.37 50.16-77.76z" fill="#ff3333"></path><path d="M426.635 373.7v132.63h-85.08V295.94h34.91c29.58 13.39 50.17 43.17 50.17 77.76z" fill="#cc2929"></path><path d="m341.555 206.25 20 54.083-20 51.917c-29.27 0-53-23.73-53-53s23.73-53 53-53z" fill="#834520"></path><path d="M394.555 259.25c0 29.27-23.73 53-53 53v-106c29.27 0 53 23.73 53 53z" fill="#673416"></path><path d="m85.555 421.61 10 54.723-10 35.667H.055v-12.63c0-34.59 20.58-64.37 50.17-77.76z" fill="#4cb9ec"></path><path d="m181.335 505.69-10.65 6.31h-85.13v-90.39h34.96c29.59 13.39 50.17 43.17 50.17 77.76z" fill="#008adf"></path><path d="m85.555 331.92 10 53-10 53h-.24c-29.27 0-53-23.73-53-53s23.73-53 53-53z" fill="#ffeee4"></path><path d="M138.315 384.92c0 29.19-23.6 52.87-52.76 53v-106c29.16.13 52.76 23.81 52.76 53z" fill="#ffdecf"></path><path d="m256.185 421.61 10 54.723-10 35.667h-85.5v-12.63c0-34.59 20.58-64.37 50.17-77.76z" fill="#7ee881"></path><path d="m351.965 505.69-10.65 6.31h-85.13v-90.39h34.96c29.59 13.39 50.17 43.17 50.17 77.76z" fill="#29cc5f"></path><path d="m426.635 421.61 10 48.39-10 42h-85.32v-12.63c0-34.59 20.58-64.37 50.17-77.76z" fill="#fdbf00"></path><path d="M511.945 499.37V512h-85.31v-90.39h35.14c29.59 13.39 50.17 43.17 50.17 77.76z" fill="#ff9f00"></path><path d="m80.015 76.17 19.44-22.861 41.377 35.186-19.44 22.86z" fill="#fff587"></path><path d="m372.038 88.496 41.376-35.187 19.441 22.861-41.377 35.187z" fill="#fbe000"></path><path d="M43.798 181.994h43.273v30H43.798z" fill="#fff587"></path><path d="M424.819 181.994h43.273v30h-43.273z" fill="#fbe000"></path><path d="m255.792 0 11.073 21.22-11.073 21.22h-14.847V0z" fill="#fff587"></path><path d="M255.792 0h15.153v42.44h-15.153z" fill="#fbe000"></path><path d="m256.185 331.92 10 53-10 53h-.24c-29.27 0-53-23.73-53-53s23.73-53 53-53z" fill="#a05528"></path><path d="M308.945 384.92c0 29.19-23.6 52.87-52.76 53v-106c29.16.13 52.76 23.81 52.76 53z" fill="#834520"></path><path d="m426.635 331.92 10 55.08-10 50.92c-29.28 0-53-23.73-53-53s23.72-53 53-53z" fill="#ffcdbe"></path><path d="M479.635 384.92c0 29.27-23.73 53-53 53v-106c29.27 0 53 23.73 53 53z" fill="#ffbeaa"></path></g></svg>