<svg viewBox="0 0 512 512" xmlns="http://www.w3.org/2000/svg"><g><g fill-rule="evenodd"><path d="M10.994 10.983h255.441l64.489 64.489v352.164H10.994z" fill="#e9e9ff"></path><path d="m266.435 10.983 64.489 64.489h-64.489z" fill="#bcbcf5"></path><path d="M64.159 286.389a5 5 0 0 1 0-10h213.6a5 5 0 0 1 0 10zm0 99.899a5 5 0 0 1 0-10h213.6a5 5 0 0 1 0 10zm0-33.3a5 5 0 0 1 0-10h213.6a5 5 0 0 1 0 10zm0-33.3a5 5 0 0 1 0-10h213.6a5 5 0 0 1 0 10z" fill="#a3a3cc"></path><path d="M253.257 100.45c6.386 11.06 2.231 26.347-9.647 42.12-.743.986-1.517 1.976-2.321 2.968a135.537 135.537 0 0 0-6.874-7.392c.418-.531.828-1.062 1.226-1.591 9.422-12.511 13.161-23.869 8.984-31.105-4.18-7.24-15.89-9.682-31.443-7.777-.655.08-1.317.169-1.984.265a137.57 137.57 0 0 0-2.97-9.658c1.266-.201 2.514-.378 3.744-.529 19.593-2.4 34.904 1.644 41.287 12.699zm-57.92.944c-12.797 3.652-26.784 9.574-40.761 17.616a5.95 5.95 0 0 1-.245.152c-14.077 8.127-26.295 17.337-35.915 26.646a118.333 118.333 0 0 1-6.698-7.398c10.17-9.791 22.961-19.421 37.613-27.881a5.11 5.11 0 0 1 .291-.156c14.569-8.384 29.202-14.596 42.673-18.486a116.621 116.621 0 0 1 3.042 9.506zm34.859 56.146c-10.17 9.79-22.959 19.419-37.61 27.878a4.546 4.546 0 0 1-.291.156c-14.569 8.384-29.203 14.596-42.674 18.486a117.256 117.256 0 0 1-3.046-9.505c12.799-3.652 26.788-9.575 40.768-17.619.08-.052.161-.103.244-.151 14.07-8.123 26.284-17.328 35.902-26.633a116.784 116.784 0 0 1 6.709 7.388zm-96.507 50.128c-1.266.201-2.515.378-3.744.529-19.593 2.4-34.904-1.644-41.287-12.699-6.386-11.06-2.231-26.347 9.648-42.12.742-.986 1.517-1.976 2.321-2.968a136.29 136.29 0 0 0 6.875 7.39 92.157 92.157 0 0 0-1.227 1.593c-9.423 12.512-13.162 23.869-8.984 31.105 4.18 7.24 15.89 9.682 31.444 7.777.656-.081 1.32-.17 1.988-.266.88 3.283 1.867 6.511 2.967 9.659z" fill="#fcdb35"></path><path d="M253.257 195.497c-6.383 11.055-21.694 15.099-41.287 12.699-11.127-1.363-23.808-4.806-37.052-10.206a216.404 216.404 0 0 0 12.254-6.021c9.267 3.215 18.074 5.334 26.01 6.305 15.553 1.905 27.263-.537 31.443-7.777 4.178-7.236.439-18.593-8.984-31.104-4.803-6.378-11.037-12.94-18.453-19.354a215.63 215.63 0 0 0-.918-13.638c11.282 8.763 20.595 18.02 27.34 26.976 11.879 15.773 16.033 31.06 9.648 42.12zm-98.227-6.912a217.182 217.182 0 0 1-5.629-3.139l-.143-.082a217.514 217.514 0 0 1-5.513-3.296c-.787-4.325-1.4-8.697-1.858-13.053a206.134 206.134 0 0 0 12.415 7.764l.01.006a205.69 205.69 0 0 0 12.956 6.882 175.17 175.17 0 0 1-12.238 4.917zm-29.369-19.037a215.69 215.69 0 0 1-.914-13.617c-7.421-6.42-13.662-12.989-18.473-19.378-9.422-12.512-13.162-23.869-8.984-31.105.042-.073.083-.146.121-.221 4.273-7.071 15.909-9.444 31.323-7.556 7.936.972 16.743 3.091 26.01 6.305a216.415 216.415 0 0 1 12.254-6.021c-13.244-5.4-25.925-8.843-37.052-10.206-19.379-2.374-34.572 1.567-41.08 12.371a4.777 4.777 0 0 0-.207.328c-6.386 11.06-2.231 26.347 9.648 42.12 6.742 8.953 16.061 18.211 27.356 26.978zm61.224-62.187a174.902 174.902 0 0 0-12.239 4.917 205.776 205.776 0 0 1 12.942 6.875l-.005.008a206.206 206.206 0 0 1 12.427 7.77 175.622 175.622 0 0 0-1.856-13.074 215.705 215.705 0 0 0-5.572-3.328l-.005.008-.014-.008a219.732 219.732 0 0 0-5.679-3.167z" fill="#4eb1fc"></path><path d="M170.957 243.021c-12.76 0-23.917-11.243-31.639-29.421-7.164-16.863-11.595-40.072-11.595-65.626 0-2.179.032-4.342.096-6.484a173.715 173.715 0 0 1 10.38-8.162 206.32 206.32 0 0 0-.515 14.646c0 24.176 4.133 45.993 10.814 61.72 6.123 14.413 14.093 23.327 22.459 23.327s16.337-8.915 22.459-23.327c.258-.607.511-1.224.761-1.848 3.277.878 6.559 1.637 9.829 2.258a107.39 107.39 0 0 1-1.411 3.497c-7.722 18.178-18.879 29.421-31.639 29.421zm-41.331-123.499c.872-6.341 2.028-12.389 3.433-18.062 3.233.553 6.487 1.265 9.741 2.111a153.59 153.59 0 0 0-1.839 8.349 212.478 212.478 0 0 0-11.335 7.601zm8.285-33.686a138.78 138.78 0 0 1 9.839 2.232 99.2 99.2 0 0 1 .748-1.815c6.123-14.412 14.093-23.327 22.46-23.327s16.337 8.915 22.459 23.327c6.668 15.699 10.794 37.513 10.794 61.721 0 5.001-.176 9.898-.514 14.66a172.817 172.817 0 0 0 10.418-8.192 219.5 219.5 0 0 0 .096-6.467c0-25.525-4.439-48.736-11.614-65.628-7.722-18.178-18.879-29.421-31.639-29.421s-23.917 11.243-31.639 29.421a106 106 0 0 0-1.408 3.489zm74.393 90.58a211.643 211.643 0 0 1-11.361 7.618 153.656 153.656 0 0 1-1.829 8.324c3.259.854 6.516 1.572 9.749 2.127 1.408-5.677 2.567-11.728 3.441-18.07z" fill="#43f043"></path><path d="M259.55 186.872c3.383 5.859 1.375 13.351-4.484 16.734s-13.351 1.375-16.734-4.484-1.375-13.351 4.484-16.734 13.351-1.375 16.733 4.484z" fill="#2dd62d"></path><path d="M160.349 51.801c3.383-5.859 10.874-7.866 16.734-4.484 5.859 3.383 7.867 10.874 4.484 16.734-3.383 5.859-10.875 7.867-16.734 4.484s-7.867-10.874-4.484-16.734z" fill="#4eb1fc"></path></g><circle cx="92.975" cy="192.997" fill="#fda02f" r="12.25"></circle><path d="M10.994 10.983h9.149v416.653h-9.149z" fill="#d1d1f0"></path><path d="m378.502 398.214 19.613-19.613 45.473 45.474-19.613 19.613z" fill="#7986bf"></path><path d="m378.5 398.226 6.705-6.705 45.473 45.474-6.704 6.704z" fill="#6a75ad"></path><circle cx="318.537" cy="318.549" fill="#2a92fa" r="117.531" transform="rotate(-3.15 320.328 320.238)"></circle><path d="M321.425 201.054c63.576 1.533 114.644 53.549 114.644 117.495S385.002 434.51 321.425 436.043c-63.577-1.533-114.644-53.549-114.644-117.494s51.068-115.962 114.644-117.495zm2.887 27.704c-.967 0-1.928.021-2.887.051a92.287 92.287 0 0 0-2.888-.051c-49.59 0-89.791 40.201-89.791 89.791s40.201 89.791 89.791 89.791c.966 0 1.928-.021 2.888-.051.959.03 1.921.051 2.887.051 49.59 0 89.791-40.201 89.791-89.791s-40.201-89.791-89.791-89.791z" fill="#4eb1fc" fill-rule="evenodd"></path><path d="m495.203 467.079-53.608-53.608c-3.738-3.738-9.835-3.738-13.573 0l-14.561 14.561c-3.738 3.738-3.738 9.835 0 13.573l53.608 53.608c7.737 7.737 20.397 7.737 28.135 0 7.737-7.737 7.738-20.397 0-28.135z" fill="#3d4a75" fill-rule="evenodd"></path><path d="m417.638 423.854-4.178 4.179c-3.737 3.738-3.737 9.835 0 13.573l53.608 53.608c6.672 6.672 17.005 7.59 24.685 2.754l-74.115-74.115z" fill="#323e66" fill-rule="evenodd"></path><circle cx="318.537" cy="318.549" fill="#f3f3ff" r="89.791" transform="rotate(-3.15 320.328 320.238)"></circle></g></svg>