<svg viewBox="0 0 682.667 682.667" xmlns="http://www.w3.org/2000/svg"><g><defs><clippath clippathunits="userSpaceOnUse" id="a"><path d="M0 512h512V0H0Z" fill="#000000"></path></clippath></defs><g clip-path="url(#a)" transform="matrix(1.33333 0 0 -1.33333 0 682.667)"><path d="M0 0c5.35-14.89 5.13-31.49-.92-46.33-6.01-14.74-17.32-26.58-31.34-33.31-.72-15.72-7.15-30.88-18.25-42.18-11.229-11.429-27.01-17.97-33.3-17.97l-129.09.34c-133.422.353-130.02.254-132.16.79-11.92 3-22.37 8.83-30.24 16.85-11.09 11.29-17.52 26.45-18.24 42.17-14.02 6.73-25.32 18.57-31.34 33.3-6.05 14.85-6.27 31.45-.92 46.34-10.56 11.67-16.61 27.09-16.61 43.16 0 15.95 5.99 31.29 16.42 42.94-5.28 14.81-5.07 31.31.91 46.05 6.03 14.86 17.41 26.78 31.53 33.51.65 15.83 7.09 31.09 18.26 42.47a62.805 62.805 0 0 0 41.48 18.67c6.59 14.25 18.24 25.75 32.76 31.89 14.62 6.18 30.95 6.46 45.62 1.1 11.51 10.68 26.69 16.8 42.53 16.8s31.02-6.12 42.53-16.8c14.67 5.35 31 5.08 45.62-1.1 14.52-6.14 26.17-17.64 32.76-31.89 15.49-.8 30.37-7.37 41.48-18.66 11.17-11.39 17.61-26.65 18.26-42.48 14.12-6.73 25.5-18.65 31.53-33.51 5.98-14.74 6.19-31.24.91-46.05 10.43-11.65 16.42-26.99 16.42-42.94C16.61 27.09 10.56 11.67 0 0" fill="#515165" transform="translate(468.9 235.41)"></path><path d="M0 0c5.35-14.89 5.13-31.49-.92-46.33-6.01-14.74-17.32-26.58-31.34-33.31-.72-15.72-7.15-30.88-18.25-42.18-11.229-11.429-27.01-17.97-33.3-17.97l-129.09.34v416.04c15.84 0 31.02-6.12 42.53-16.8 14.67 5.35 31 5.08 45.62-1.1 14.52-6.14 26.17-17.64 32.76-31.89 15.49-.8 30.37-7.37 41.48-18.66 11.17-11.39 17.61-26.65 18.26-42.48 14.12-6.73 25.5-18.65 31.53-33.51 5.98-14.74 6.19-31.24.91-46.05 10.43-11.65 16.42-26.99 16.42-42.94C16.61 27.09 10.56 11.67 0 0" fill="#434353" transform="translate(468.9 235.41)"></path><path d="m0 0-17.672 20.114h-34.681a43.085 43.085 0 0 0-2.25-10.53c-3.969-11.46-12.129-20.7-23.509-25.6-1.63-.7-12.19-17.68-12.19-17.68l-23.861 5.85a127.468 127.468 0 0 1-39.92-26.55 128.028 128.028 0 0 1-37.819-78.18l-.511-8.03c-.539-8.68 6.351-16.02 15.051-16.02h159.69L0-134.332Z" fill="#c76e59" transform="translate(273.672 156.626)"></path><path d="M0 0h-159.69v176.74h34.68c.31-3.64 1.08-7.17 2.25-10.53a43.738 43.738 0 0 1 23.51-25.61l9.78-24s21.8 14.06 26.27 12.18c42.422-17.859 72.78-57.552 77.74-104.73l.51-8.03C15.59 7.34 8.7 0 0 0" fill="#a24f3e" transform="translate(415.69)"></path><path d="M0 0v-128.78l-96.49 18.88-47.82 9.35L-192.98 0c14.153 5.952 28.92 8.607 36.05 11.83 15.8-14.84 37.06-23.92 60.44-23.92 23.38 0 44.64 9.08 60.44 23.92C-28.88 8.589-14.23 5.984 0 0" fill="#ffdd46" transform="translate(352.49 128.78)"></path><path d="M0 0v-128.78l-96.49 18.88v97.81c23.38 0 44.64 9.08 60.44 23.92C-28.925 8.61-14.149 5.95 0 0" fill="#fcbe00" transform="translate(352.49 128.78)"></path><path d="M0 0h-192.98v128.78Z" fill="#a6d12b" transform="translate(352.49)"></path><path d="M0 0h-96.49v64.39Z" fill="#80a413" transform="translate(352.49)"></path><path d="M0 0c-8.271 0-15-6.729-15-15s6.729-15 15-15 15 6.729 15 15S8.271 0 0 0m0-60c-24.813 0-45 20.187-45 45s20.187 45 45 45S45 9.813 45-15 24.813-60 0-60" fill="#ffdd46" transform="translate(145.82 255.733)"></path><path d="M0 0c-8.271 0-15-6.729-15-15s6.729-15 15-15 15 6.729 15 15S8.271 0 0 0m0-60c-24.813 0-45 20.187-45 45s20.187 45 45 45S45 9.813 45-15 24.813-60 0-60" fill="#fcbe00" transform="translate(366.18 255.733)"></path><path d="M0 0s-3.633 28.651-5.604 28.651c-5.741 0-10.84-3.27-13.351-8.43-.869-1.56-18.44-32.01-71.94-51.4a14.995 14.995 0 0 1-9.89-14.1v-72.48c0-52.48 42.701-95.18 95.181-95.18 1.881 0 5.604 17.53 5.604 17.53z" fill="#d58678" transform="translate(261.604 381.49)"></path><path d="M0 0v-72.48c0-52.48-42.7-95.18-95.18-95.18V73.93c5.74 0 10.84-3.27 13.35-8.43.87-1.56 18.44-32.01 71.94-51.4C-3.95 11.95 0 6.31 0 0" fill="#c76e59" transform="translate(351.18 336.21)"></path><path d="M0 0c-6.64-9.1-17.6-14.53-29.29-14.53-11.69 0-22.65 5.43-29.29 14.53-4.89 6.68-3.44 16.07 3.25 20.96 6.69 4.89 16.07 3.43 20.96-3.26.79-1.08 2.54-2.23 5.08-2.23s4.29 1.15 5.08 2.23c4.89 6.69 14.27 8.15 20.96 3.26C3.44 16.07 4.89 6.68 0 0" fill="#e53950" transform="translate(285.29 222.78)"></path><path d="M0 0c-6.64-9.1-17.6-14.53-29.29-14.53v30c2.54 0 4.29 1.15 5.08 2.23 4.89 6.69 14.27 8.15 20.96 3.26C3.44 16.07 4.89 6.68 0 0" fill="#ca2e43" transform="translate(285.29 222.78)"></path></g></g></svg>