<svg viewBox="0 0 512 512" xmlns="http://www.w3.org/2000/svg"><g><path d="m511.578 227.987.028.141c2.207 11.177-5.068 22.018-16.234 24.224l-170.619 33.693-8.018-40.6 170.619-33.693c11.167-2.204 22.017 5.058 24.224 16.235z" fill="#d63030"></path><path d="m511.578 227.987.014.071-95.398 18.839c-12.653 2.499-25.005-4.016-30.407-15.086l101.568-20.057c11.166-2.206 22.016 5.056 24.223 16.233z" fill="#f44545"></path><path d="m364.196 211.778.076.385c2.623 13.28 2.461 26.459-.097 38.944-7.738 37.92-37.481 69.361-77.827 77.329l-169.223 33.418C63.5 372.442 11.443 337.555.853 283.929l-.076-.385c-1.104-5.593 2.534-11.009 8.117-12.112l343.189-67.773c5.585-1.101 11.009 2.526 12.113 8.119z" fill="#5a5555"></path><path d="m364.196 211.778.076.385c2.623 13.28 2.461 26.459-.097 38.944-12.282 10.181-27.201 17.541-43.95 20.848L151.013 305.37c-40.366 7.971-79.831-9.824-101.398-41.978l302.469-59.731c5.584-1.103 11.008 2.524 12.112 8.117z" fill="#736e6e"></path><path d="M34.116 34.238c-2.095-8.54 1.046-17.873 8.645-23.283 9.946-7.082 23.749-4.761 30.832 5.185 7.082 9.946 4.761 23.75-5.185 30.832a22.33 22.33 0 0 1-2.54 1.551l36.152 50.769c3.283 4.61 2.197 11.067-2.413 14.351l-11.875 8.456c-4.609 3.283-11.067 2.197-14.351-2.413l-36.152-50.77a22.33 22.33 0 0 1-2.296 1.894c-9.946 7.082-23.749 4.761-30.832-5.185s-4.76-23.749 5.186-30.832c7.598-5.412 17.445-5.328 24.829-.555z" fill="#ebe1dc"></path><path d="M219.444 105.416c-17.549 14.873-19.719 41.156-4.846 58.705 14.873 17.549 41.156 19.718 58.705 4.846 8.931-7.569 13.869-18.093 14.615-28.918a32.077 32.077 0 0 0 12.683-6.598c13.57-11.5 15.247-31.823 3.747-45.392s-31.823-15.247-45.392-3.748a32.088 32.088 0 0 0-8.589 11.429c-10.8-1.039-21.992 2.107-30.923 9.676z" fill="#6e9213"></path><path d="M249.758 142.06a7.73 7.73 0 0 1-5.003-13.63l83.243-70.549a7.729 7.729 0 0 1 10.897.9 7.73 7.73 0 0 1-.9 10.897l-83.243 70.549a7.708 7.708 0 0 1-4.994 1.833z" fill="#84b017"></path><circle cx="182.781" cy="40.136" fill="#d63030" r="24.342"></circle><circle cx="36.588" cy="211.204" fill="#d63030" r="24.342"></circle><path d="M167.783 184.99c-2.639 7.33-7.124 13.598-13.434 18.093-20.63 14.691-52.94 4.712-72.178-22.29-19.227-27.01-31.031-83.177-10.391-97.858 6.578-4.681 15.64-4.588 25.578-1.412 21.248 6.794 46.424 27.671 59.528 46.064 13.351 18.752 16.887 40.774 10.897 57.403z" fill="#f77026"></path><path d="M167.783 184.99c-17.341-.258-36.414-10.753-49.456-29.063-13.279-18.65-23.011-51.208-20.97-74.405 21.248 6.794 46.424 27.671 59.528 46.064 13.352 18.753 16.888 40.775 10.898 57.404z" fill="#ff883e"></path><path d="M328.738 403.318H176.681a57.347 57.347 0 0 1-6.155-9.743c-5.897-11.66-8.341-25.547-7.011-38.558 2.464-24.001 14.691-45.631 27.403-66.281 1.495-2.423 5.021-2.402 6.474.041 8.371 14.073 16.743 28.135 25.114 42.197 6.433-5.877 11.526-13.196 14.867-21.248 1.217-2.938 5.392-3.103 6.825-.247 6.856 13.629 7.351 30.455.866 44.311 20.145-15.805 36.146-36.867 45.961-60.528 1.825-4.402 5.34-9.877 9.846-8.33 7.691 2.619 34.311 47.775 13.784 92.766 14.052-6.773 26.403-17.021 35.713-29.548 1.928-2.588 5.959-1.753 6.722 1.382 4.886 20.104-8.64 43.188-28.352 53.786z" fill="#fb5858"></path><path d="M325.573 403.318H176.681a57.347 57.347 0 0 1-6.155-9.743c.01-.247.041-.505.062-.753 2.165-21.032 12.877-39.981 24.022-58.085 1.309-2.124 4.392-2.103 5.67.041 7.34 12.32 8.897 22.98 16.238 35.311 5.629-5.165 10.939-19.047 13.856-26.099 1.072-2.588 4.732-2.722 5.99-.227 6.011 11.949 11.382 35.842 5.691 47.986 17.66-13.856 31.682-32.31 40.28-53.043 1.598-3.856 4.681-8.66 8.629-7.299 6.743 2.289 19.661 28.114 1.67 67.549 12.32-5.938 30.455-12.227 38.62-23.207 1.68-2.268 5.217-1.536 5.887 1.217 1.773 7.289-3.527 16.908-11.568 26.352z" fill="#ff883e"></path><path d="M428.16 395.864H83.229c-11.275 0-20.447 9.173-20.447 20.447v43.644c0 11.275 9.173 20.447 20.447 20.447h35.396a7.732 7.732 0 0 0 0-15.464H83.229a4.988 4.988 0 0 1-4.983-4.983v-43.644a4.988 4.988 0 0 1 4.983-4.983h164.733v61.343a7.732 7.732 0 0 0 15.464 0v-61.343h164.733a4.988 4.988 0 0 1 4.983 4.983v43.644a4.988 4.988 0 0 1-4.983 4.983h-35.397c-4.271 0-7.732 3.462-7.732 7.732s3.461 7.732 7.732 7.732h35.397c11.275 0 20.447-9.173 20.447-20.447v-43.644c.002-11.274-9.172-20.447-20.446-20.447z" fill="#5a5555"></path><path d="M404.669 472.671v24.743a7.735 7.735 0 0 1-7.732 7.732H114.451a7.735 7.735 0 0 1-7.732-7.732v-24.743a7.735 7.735 0 0 1 7.732-7.732h282.485a7.735 7.735 0 0 1 7.733 7.732z" fill="#d63030"></path><path d="M404.669 480.403v17.011a7.735 7.735 0 0 1-7.732 7.732H133.524v-17.011a7.735 7.735 0 0 1 7.732-7.732h263.413z" fill="#f44545"></path></g></svg>