<svg viewBox="0 0 512 512" xmlns="http://www.w3.org/2000/svg"><g><path d="M246.496 196.076 512 72.513v-58.52c0-6.937-5.727-12.484-12.662-12.315C227.676 8.295 8.472 226.38.006 497.58c-.218 6.966 5.343 12.745 12.313 12.745h58.432z" fill="#fe646f"></path><g fill="#fd4755"><path d="M512 72.513v-58.52c0-6.937-5.728-12.484-12.662-12.315a518.62 518.62 0 0 0-12.073.438v89.459zM88.964 482.497H.706a518.393 518.393 0 0 0-.7 15.083c-.218 6.966 5.343 12.745 12.313 12.745h58.533z" fill="#fd4755"></path></g><path d="M512 72.513c-117.869.013-228.679 45.919-312.026 129.265-82.525 82.525-128.315 191.98-129.223 308.546h70.989l141.978-235.301L512 143.502z" fill="#fea95c"></path><g fill="#fe9738"><path d="M512 143.502V72.513c-8.283.001-16.529.237-24.736.688v90.121zM174.749 482.497H71.83a450.894 450.894 0 0 0-1.079 27.828h70.989z" fill="#fe9738"></path></g><path d="M313.843 317.231 512 214.492v-70.989c-98.906.013-191.89 38.535-261.83 108.473-69.115 69.116-107.524 160.745-108.43 258.349h70.989z" fill="#ffd15b"></path><g fill="#ffc344"><path d="M512 214.492v-70.989c-8.292.001-16.537.297-24.736.835v76.149zM228.481 482.497H143.03a377.216 377.216 0 0 0-1.289 27.828h70.989z" fill="#ffc344"></path></g><path d="M376.442 372.459 512 285.481v-70.989c-79.944.013-155.101 31.151-211.633 87.681-55.708 55.709-86.735 129.51-87.638 208.152h70.989z" fill="#00c27a"></path><g fill="#08b865"><path d="M512 285.481v-70.989c-8.303.001-16.551.358-24.736 1.024v79.764zM305.713 482.497h-91.379a304.939 304.939 0 0 0-1.605 27.828h70.989z" fill="#08b865"></path></g><path d="M408.961 414.788 512 356.47v-70.99c-60.982.013-118.312 23.766-161.436 66.889-42.301 42.301-65.947 98.276-66.845 157.956h71.032z" fill="#01d0fb"></path><path d="M512 356.47v-70.99c-8.323.002-16.575.462-24.736 1.337v84.07zM371.564 482.497h-85.75a231.877 231.877 0 0 0-2.096 27.828h71.032z" fill="#01c0fa"></path><path d="M512 356.47c-42.02.013-81.524 16.382-111.239 46.096-28.89 28.89-45.118 67.043-46.01 107.759l94.991-61.214z" fill="#bd80e1"></path><path d="M487.264 358.41v29.679c0 6.203-4.613 11.445-10.768 12.209-18.981 2.356-36.534 10.898-50.275 24.638-12.993 12.994-21.328 29.399-24.185 47.196a12.309 12.309 0 0 1-12.152 10.365h-32.062a159.065 159.065 0 0 0-3.073 27.828h59.87a12.309 12.309 0 0 0 12.152-10.365c2.857-17.797 11.192-34.202 24.185-47.196 13.741-13.74 31.294-22.282 50.275-24.638 6.155-.764 10.768-6.007 10.768-12.209V356.47c-8.364.003-16.626.664-24.735 1.94z" fill="#af66da"></path></g></svg>