<svg viewBox="0 0 682.667 682.667" xmlns="http://www.w3.org/2000/svg"><g><defs><clippath clippathunits="userSpaceOnUse" id="a"><path d="M0 512h512V0H0Z" fill="#000000"></path></clippath></defs><g clip-path="url(#a)" transform="matrix(1.33333 0 0 -1.33333 0 682.667)"><path d="M0 0c-14.504.001-8.338.271-28.747-1.322a82.733 82.733 0 0 1-55.41-27.532c-7.634-8.591-19.494-12.067-30.442-8.568l-10.085 3.224s-5.151-107.887 25.98-121.456H100.35v55.329C100.35-44.91 55.415-.001 0 0" fill="#d77f4a" transform="translate(139.684 450.456)"></path><path d="M0 0v.03h-30.457c-23.17 0-41.954-18.783-41.954-41.954v-69.757h224.019v69.757c0 23.171-18.783 41.954-41.954 41.954H79.198V0Z" fill="#3c87d0" transform="translate(88.425 174.3)"></path><path d="M0 0v-31.639c0-21.87 17.729-39.599 39.599-39.599 21.87 0 39.599 17.729 39.599 39.599V0Z" fill="#ffaf9e" transform="translate(88.279 205.94)"></path><path d="M0 0c0-1.831.135-3.63.375-5.395 12.014-5.4 25.358-8.41 39.416-8.41 13.898 0 27.101 2.943 39.008 8.229.257 1.822.399 3.682.399 5.576v31.639H0Z" fill="#ffa78f" transform="translate(88.279 174.3)"></path><path d="M0 0h-48.956C-66.86 0-81.375 14.514-81.375 32.419c0 17.904 14.515 32.419 32.419 32.419H0Z" fill="#ffaf9e" transform="translate(81.374 255.237)"></path><path d="M0 0h48.955c17.905 0 32.42-14.515 32.42-32.419 0-17.905-14.515-32.419-32.42-32.419H0Z" fill="#ffa78f" transform="translate(174.674 320.075)"></path><path d="M0 0v-35.724c0-52.052 42.681-94.25 95.332-94.25 52.65 0 95.332 42.198 95.332 94.25V0c0 52.054-42.682 94.251-95.332 94.251C42.681 94.251 0 52.054 0 0" fill="#ffcebf" transform="translate(32.738 305.518)"></path><path d="M0 0h-16.563a8.98 8.98 0 0 0-8.98 8.979 8.98 8.98 0 0 0 8.98 8.981H0a8.98 8.98 0 0 0 8.98-8.981A8.98 8.98 0 0 0 0 0" fill="#fe8f83" transform="translate(72.248 238.224)"></path><path d="M0 0a96.894 96.894 0 0 1-10.742-.885c46.235-6.502 81.789-45.793 81.789-93.3v-35.723c0-47.507-35.554-86.797-81.789-93.3A96.895 96.895 0 0 1 0-224.092c51.158 1.679 92.114 43.196 92.114 94.184v35.723C92.114-43.196 51.159-1.679 0 0" fill="#ffaf9e" transform="translate(131.288 399.702)"></path><path d="M0 0h-16.844c-2.74-.152-6.503-.49-15.885-1.223a82.728 82.728 0 0 1-53.993-25.979v-41.88c0-33.8 27.4-61.199 61.2-61.199h121.89v30.055C96.368-46.145 53.571-2.081 0 0" fill="#d77f4a" transform="translate(143.666 450.356)"></path><path d="M0 0h-16.844c-2.308-.128-5.356-.389-11.861-.905 48.742-6.844 86.25-48.692 86.25-99.321v-30.055h38.823v30.055C96.368-46.145 53.571-2.081 0 0" fill="#c86d36" transform="translate(143.666 450.356)"></path><path d="M0 0h-30.456v-.03h-1.439C-9.285-.672 8.85-19.189 8.85-41.954v-69.757h33.105v69.757C41.955-18.783 23.171 0 0 0" fill="#0078c8" transform="translate(198.08 174.331)"></path><path d="M0 0h-16.563a8.98 8.98 0 0 0-8.98 8.979 8.98 8.98 0 0 0 8.98 8.981H0a8.98 8.98 0 0 0 8.98-8.981A8.98 8.98 0 0 0 0 0" fill="#fe8f83" transform="translate(200.07 238.224)"></path><path d="M0 0c-15.583 0-28.26 12.678-28.26 28.26a7.962 7.962 0 0 0 7.962 7.963 7.962 7.962 0 0 0 7.963-7.963c0-6.801 5.534-12.334 12.335-12.334 6.801 0 12.334 5.533 12.334 12.334a7.962 7.962 0 0 0 7.963 7.963 7.963 7.963 0 0 0 7.963-7.963C28.26 12.678 15.583 0 0 0" fill="#ffa799" transform="translate(127.878 213.647)"></path><path d="M0 0a7.961 7.961 0 0 0-7.962 7.963v17.599A7.961 7.961 0 0 0 0 33.524a7.962 7.962 0 0 0 7.963-7.962V7.963A7.962 7.962 0 0 0 0 0" fill="#5a5a5a" transform="translate(174.527 263.818)"></path><path d="M0 0a7.962 7.962 0 0 0-7.963 7.963v17.599A7.962 7.962 0 0 0 0 33.524a7.962 7.962 0 0 0 7.963-7.962V7.963A7.962 7.962 0 0 0 0 0" fill="#5a5a5a" transform="translate(81.228 263.818)"></path><path d="M0 0h-4.118c-22.36 0-40.487-18.127-40.487-40.487v-66.347h206.487v66.347C161.882-18.127 143.755 0 121.394 0Z" fill="#f07181" transform="translate(310.319 168.36)"></path><path d="M0 0h-33.161C-10.8 0 7.327-18.127 7.327-40.487v-66.347h33.161v66.347C40.488-18.127 22.361 0 0 0" fill="#eb5569" transform="translate(431.713 168.36)"></path><path d="M0 0c-19.477 0-35.265 15.788-35.265 35.265v84.866h70.53V35.265C35.265 15.788 19.476 0 0 0" fill="#ffaf9e" transform="translate(368.823 125.719)"></path><path d="M0 0a85.521 85.521 0 0 1 35.237-7.56A85.55 85.55 0 0 1 70.53.024v79.821H0Z" fill="#ffa78f" transform="translate(333.558 166.005)"></path><path d="M0 0h17.624v48.526c0 28.341-22.975 51.317-51.316 51.317h-17.624V51.315C-51.316 22.975-28.341 0 0 0" fill="#5a5a5a" transform="translate(494.376 157.544)"></path><path d="M0 0h-17.624v-1.477C4.815-6.96 21.471-27.188 21.471-51.316v-47.051a51.434 51.434 0 0 1 12.221-1.477h17.624v48.528C51.316-22.976 28.341 0 0 0" fill="#444444" transform="translate(460.684 257.387)"></path><path d="M0 0h-17.624v48.526c0 28.341 22.975 51.317 51.316 51.317h17.624V51.315C51.316 22.975 28.341 0 0 0" fill="#5a5a5a" transform="translate(243.008 157.544)"></path><path d="M0 0h-43.709c-15.958 0-28.894 12.937-28.894 28.895s12.936 28.894 28.894 28.894H0Z" fill="#ffaf9e" transform="translate(327.282 245.85)"></path><path d="M0 0h43.708c15.959 0 28.895-12.937 28.895-28.895S59.667-57.789 43.708-57.789H0Z" fill="#ffa78f" transform="translate(410.103 303.639)"></path><path d="M0 0c-46.936 0-84.985-37.579-84.985-83.936v-31.775c0-46.356 38.049-83.935 84.985-83.935s84.985 37.579 84.985 83.935v31.775C84.985-37.579 46.936 0 0 0" fill="#ffcebf" transform="translate(368.795 374.541)"></path><path d="M0 0a86.73 86.73 0 0 1-13.159-1.005C27.528-7.252 58.667-42 58.667-83.936v-31.775c0-41.935-31.139-76.684-71.826-82.931A86.73 86.73 0 0 1 0-199.646c46.936 0 84.985 37.579 84.985 83.935v31.775C84.985-37.579 46.936 0 0 0" fill="#ffaf9e" transform="translate(368.795 374.541)"></path><path d="M0 0h-16.177a8.771 8.771 0 0 0 0 17.542H0A8.771 8.771 0 0 0 0 0" fill="#fe8f83" transform="translate(321.183 227.636)"></path><path d="M0 0h-16.177a8.771 8.771 0 0 0 0 17.542H0A8.771 8.771 0 0 0 0 0" fill="#fe8f83" transform="translate(432.909 227.636)"></path><path d="M0 0a9.01 9.01 0 0 1-9.01-9.009A9.01 9.01 0 0 1-18.02 0c-53.697 0-97.227-43.53-97.227-97.227v-22.684h56.735c27.339 0 49.501 22.162 49.502 49.5.001-27.338 22.163-49.5 49.502-49.5h56.735v22.684C97.227-43.53 53.697 0 0 0" fill="#5a5a5a" transform="translate(377.702 423.55)"></path><path d="M0 0a8.974 8.974 0 0 1-6.545-2.831c42.441-10.441 73.927-48.732 73.927-94.396v-22.684h29.844v22.684C97.226-43.53 53.697 0 0 0" fill="#444444" transform="translate(377.702 423.55)"></path><path d="M0 0c-14.352 0-26.028 11.677-26.028 26.028a8.703 8.703 0 0 0 8.704 8.704 8.703 8.703 0 0 0 8.704-8.704c0-4.753 3.867-8.62 8.62-8.62 4.753 0 8.62 3.867 8.62 8.62a8.703 8.703 0 0 0 8.704 8.704 8.703 8.703 0 0 0 8.704-8.704C26.028 11.677 14.352 0 0 0" fill="#ffa799" transform="translate(368.957 206.065)"></path><path d="M0 0a8.703 8.703 0 0 0-8.704 8.704v15.473A8.704 8.704 0 0 0 0 32.881h6.652a8.704 8.704 0 0 0 2.052-17.164V8.704A8.703 8.703 0 0 0 0 0" fill="#5a5a5a" transform="translate(408.774 248.661)"></path><path d="M0 0a8.703 8.703 0 0 0-8.704 8.704v7.013a8.704 8.704 0 0 0 2.052 17.164H0a8.704 8.704 0 0 0 8.704-8.704V8.704A8.703 8.703 0 0 0 0 0" fill="#5a5a5a" transform="translate(329.14 248.661)"></path></g></g></svg>