<svg viewBox="0 0 501.988 501.988" xmlns="http://www.w3.org/2000/svg"><g><path d="M413.025 427.665s-1.555 4.603-15.776 12.855c-.673.41-1.377.82-2.143 1.224a7.089 7.089 0 0 0-3.324 8.062l.79 3.018a6.941 6.941 0 0 1-3.373 7.86 27.833 27.833 0 0 1-13.137 3.312h-1.292l-3.9-.178-6.483-.294a9.656 9.656 0 0 0-5.748 1.555 9.798 9.798 0 0 0-4.457 8.007 7.156 7.156 0 0 1-7.156 7.009c-.294 0-.612 0-.912-.061l-10.792-1.347-.912-.086a17.756 17.756 0 0 0-10.027 2.167 14.416 14.416 0 0 0-3.373 2.449 42.8 42.8 0 0 0-7.536 10.352 12.742 12.742 0 0 1-3.93 4.695 20.53 20.53 0 0 1-11.79 3.722H276.94c-3.722 0-7.389-.178-11.086-.496a284.78 284.78 0 0 0-14.839-.882c-6.305.208-11.435.612-14.87.882-3.673.324-7.346.496-11.056.496h-20.997a18.531 18.531 0 0 1-16.394-11.288 23.26 23.26 0 0 0-9.795-11.631 10.773 10.773 0 0 0-5.51-1.084s-2.081.263-4.781.612c-5.105.612-12.433 1.524-12.641 1.524a7.156 7.156 0 0 1-7.156-7.009c-.124-5.408-4.608-9.692-10.016-9.568a5.963 5.963 0 0 0-.189.006l-6.483.294-3.869.178h-1.292a27.888 27.888 0 0 1-13.223-3.373 6.833 6.833 0 0 1-3.312-7.799l.82-3.018a7.101 7.101 0 0 0-3.373-8.038l-2.143-1.224c-14.221-8.27-15.776-12.904-15.776-12.904a861.018 861.018 0 0 1 76.466-202.443 145.091 145.091 0 0 1 15.984-23.752l5.51-6.654a100.304 100.304 0 0 0 15.396-25.956l5.161-12.96c-36.687-46.427-30.565-103.995-30.565-103.995l-5.13-38.242 7.346-10.848L193.525.5l3.191-.5c6.856 29.972 36.711 48.71 66.683 41.854A55.669 55.669 0 0 0 305.253 0l3.196.496 14.398 2.314 7.346 10.848-5.136 38.248s6.122 57.544-30.559 103.989l5.191 12.96a97.59 97.59 0 0 0 8.944 17.184 99.393 99.393 0 0 0 6.452 8.766l5.509 6.654a148.991 148.991 0 0 1 15.984 23.752 862.653 862.653 0 0 1 76.447 202.454z" fill="#ef5261"></path><g fill="#da364c"><path d="M397.25 440.539c-.673.41-1.377.82-2.143 1.224a7.09 7.09 0 0 0-3.324 8.044l.79 3.018a6.941 6.941 0 0 1-3.373 7.86 27.833 27.833 0 0 1-13.137 3.312h-1.292l-3.9-.178-42.851-209.152zM358.628 465.056a9.798 9.798 0 0 0-4.457 8.007 7.156 7.156 0 0 1-7.156 7.009c-.294 0-.612 0-.912-.061l-10.792-1.347-.912-.086-25.478-242.62zM324.371 480.746a14.416 14.416 0 0 0-3.373 2.449 42.8 42.8 0 0 0-7.536 10.352 12.742 12.742 0 0 1-3.93 4.695 20.53 20.53 0 0 1-11.79 3.722h-15.249l4.046-254.661zM174.017 254.661l-42.901 209.134-3.869.178h-1.292a27.888 27.888 0 0 1-13.223-3.373 6.833 6.833 0 0 1-3.312-7.799l.82-3.018a7.101 7.101 0 0 0-3.373-8.038l-2.143-1.224zM193.08 235.929l-25.484 242.614c-5.105.612-12.433 1.524-12.641 1.524a7.155 7.155 0 0 1-7.156-7.009 9.648 9.648 0 0 0-4.426-7.958zM219.477 501.976h-15.396a18.531 18.531 0 0 1-16.394-11.288 23.26 23.26 0 0 0-9.795-11.631l37.538-231.741z" fill="#da364c"></path></g><path d="M356.749 44.578a113.792 113.792 0 0 1-31.704 7.346 131.563 131.563 0 0 1-2.198-49.09c12.245-4.57 25.877 1.652 30.447 13.897a23.69 23.69 0 0 1 1.459 6.983zM145.233 44.578a113.792 113.792 0 0 0 31.704 7.346 131.563 131.563 0 0 0 2.198-49.09c-12.246-4.57-25.877 1.652-30.448 13.897a23.69 23.69 0 0 0-1.459 6.983zM309.184.612c-5.261 27.671-29.822 47.437-57.978 46.659-52.083 0-58.125-46.041-58.125-46.714L196.716 0c6.856 29.972 36.711 48.71 66.683 41.854A55.669 55.669 0 0 0 305.253 0z" fill="#da364c"></path></g></svg>