<svg viewBox="0 0 512 512" xmlns="http://www.w3.org/2000/svg"><g><path d="m361 377 49.2 15-8.101 45L361 452l35.698 15-8.101 45H268.299c-28.799 0-56.999-10.8-78.3-30h-69l30-165h45c8.401 0 15-6.599 15-15V197c32.999 0 60 27.001 60 60v60h152.703l-8.101 45z" fill="#ffd5cc"></path><path d="M407.501 407H134.636L121 482h69c21.301 19.2 49.501 30 78.3 30h120.298l8.101-45L361 452l41.1-15z" fill="#ffc0b3"></path><path d="M151 512H91V317h60z" fill="#4d5e80"></path><path d="m402.1 437-5.402 30H301v-30z" fill="#ffaa99"></path><path d="m415.602 362-5.402 30H301v-30z" fill="#ffc0b3"></path><path d="M311.195 169.849 256 140.83l-55.195 29.019 10.547-61.465-44.648-43.521 61.699-8.965L256 0l27.598 55.898 61.699 8.965-44.648 43.521z" fill="#ffdf40"></path><path d="m477.898 257.967-55.195-29.019-55.195 29.019 10.547-61.465-44.648-43.521 61.699-8.965 27.598-55.898 27.598 55.898L512 152.981l-44.648 43.521z" fill="#ffbe40"></path><path d="m144.492 257.967-55.195-29.019-55.195 29.019 10.547-61.465L0 152.981l61.699-8.965 27.598-55.898 27.598 55.898 61.699 8.965-44.648 43.521z" fill="#ffdf40"></path><path d="m311.195 169.849-10.547-61.465 44.649-43.521-61.699-8.965L256 0v140.83z" fill="#ffbe40"></path><path d="M91 407h60v105H91z" fill="#3d4b66"></path></g></svg>