<svg viewBox="0 0 512 512" xmlns="http://www.w3.org/2000/svg"><g><path d="M66 90h180v90H66z" fill="#c3dafd"></path><path d="M156 90h90v90h-90z" fill="#a1b8d8"></path><path d="M6 150h300v362H6z" fill="#e4f3ff"></path><path d="M156 150h150v362H156z" fill="#e4f3ff"></path><path d="M36 0h240v120H36z" fill="#457899"></path><path d="M156 0h120v120H156z" fill="#365c75"></path><path d="M6 216h300v230H6z" fill="#ff5c5c"></path><path d="M156 216h150v230H156z" fill="#ff3838"></path><path d="M186 0h30v59.594h-30z" fill="#274254"></path><path d="M96 0h30v59.594H96z" fill="#365c75"></path><path d="M211 316h-40v-40h-30v40h-40v30h40v40h30v-40h40z" fill="#e4f3ff"></path><path d="M171 316v-40h-15v110h15v-40h40v-30z" fill="#c3dafd"></path><path d="M451 490H331c-30.327 0-55-24.673-55-55s24.673-55 55-55h120c30.327 0 55 24.673 55 55s-24.673 55-55 55z" fill="#e4f3ff"></path><path d="M331 490h120c30.327 0 55-24.673 55-55H276c0 30.327 24.673 55 55 55z" fill="#c3dafd"></path><path d="M451 380h-60v110h60c30.327 0 55-24.673 55-55s-24.673-55-55-55z" fill="#ff5c5c"></path><path d="M391 490h60c30.327 0 55-24.673 55-55H391z" fill="#ff3838"></path><path d="m454.744 256.891-84.852 84.854c-21.445 21.444-56.337 21.444-77.782 0-21.444-21.444-21.444-56.338 0-77.781l84.853-84.853c21.445-21.444 56.337-21.444 77.782 0 21.443 21.444 21.443 56.336-.001 77.78z" fill="#e4f3ff"></path><path d="m369.892 341.744 84.852-84.854c21.444-21.443 21.444-56.336 0-77.781L292.109 341.744c21.445 21.445 56.338 21.445 77.783 0z" fill="#c3dafd"></path><path d="m376.962 179.109-42.426 42.427 77.781 77.781 42.427-42.427c21.444-21.443 21.444-56.336 0-77.781-21.444-21.444-56.337-21.444-77.782 0z" fill="#5ca2fa"></path><path d="m412.317 299.317 42.427-42.427c21.444-21.443 21.444-56.336 0-77.781l-81.317 81.317z" fill="#3d6def"></path></g></svg>