<svg viewBox="0 0 496.286 496.286" xmlns="http://www.w3.org/2000/svg"><g><path d="M495.634 245.074C445.706 134.086 353.721 59.643 248.5 59.643v377c105.221 0 197.206-74.444 247.134-185.431a7.407 7.407 0 0 0 .51-1.617v-2.904a7.387 7.387 0 0 0-.51-1.617z" fill="#ffad84"></path><path d="M461.639 248.143C419.093 135.46 339.578 59.643 248.5 59.643c-106.188 0-198.895 75.817-248.5 188.5 49.605 112.682 142.312 188.5 248.5 188.5 91.078 0 170.593-75.818 213.139-188.5z" fill="#ffd4a1"></path><path d="M496.145 246.691C446.336 161.713 354.086 104.643 248.5 104.643v287c105.586 0 197.836-57.07 247.645-142.048a7.508 7.508 0 0 0 0-2.904z" fill="#fe8566"></path><path d="M461.639 248.143c-42.546-85.782-122.061-143.5-213.139-143.5-94.371 0-178.091 45.589-230.375 115.947C7.464 225.192 0 235.794 0 248.143s7.464 22.952 18.125 27.553C70.409 346.054 154.129 391.643 248.5 391.643c91.078 0 170.593-57.718 213.139-143.5z" fill="#ffad84"></path><path d="M378.729 170.066c-39.296-23.174-84.329-35.423-130.229-35.423v227c45.9 0 90.934-12.249 130.229-35.423 33.095-19.517 61.479-46.298 82.909-78.077-21.429-31.779-49.814-58.56-82.909-78.077z" fill="#fffbbe"></path><path d="M431.639 248.143c-18.413-31.779-42.803-58.561-71.24-78.077-33.765-23.174-72.46-35.423-111.899-35.423-45.9 0-90.934 12.249-130.229 35.423-33.095 19.517-61.479 46.298-82.909 78.077 21.43 31.779 49.814 58.561 82.909 78.077 39.296 23.174 84.329 35.423 130.229 35.423 39.44 0 78.135-12.249 111.899-35.423 28.437-19.516 52.827-46.297 71.24-78.077z" fill="#ffffff"></path><path d="M248.5 134.643v227c62.684 0 113.5-50.816 113.5-113.5s-50.816-113.5-113.5-113.5z" fill="#01b1bc"></path><path d="M332 248.143c0-62.684-37.384-113.5-83.5-113.5-62.684 0-113.5 50.816-113.5 113.5s50.816 113.5 113.5 113.5c46.116 0 83.5-50.815 83.5-113.5z" fill="#3ac7cf"></path><path d="M248.5 194.643v107c29.547 0 53.5-23.953 53.5-53.5s-23.953-53.5-53.5-53.5z" fill="#20335a"></path><path d="M272 248.143c0-29.547-10.521-53.5-23.5-53.5-29.547 0-53.5 23.953-53.5 53.5s23.953 53.5 53.5 53.5c12.979 0 23.5-23.952 23.5-53.5z" fill="#2b4478"></path></g></svg>