<svg id="Capa_1" enable-background="new 0 0 512 512" height="512" viewBox="0 0 512 512" width="512" xmlns="http://www.w3.org/2000/svg"><g><path d="m256 22c-135.31 0-245 109.69-245 245 0 35.622 7.61 69.463 21.281 100l6.991 1h433.456l6.991-1c13.671-30.537 21.281-64.378 21.281-100 0-135.31-109.69-245-245-245z" fill="#b3dafe"/><g><g fill="#fed2a4"><g><path d="m78.891 367h-46.61c11.327 25.301 26.825 48.336 45.61 68.217l1-8.412z"/><path d="m91.891 440.481 1 9.312c13.278 11.855 27.854 22.284 43.491 31.05l1-6.851v-106.992h-45.491z"/></g><g><path d="m433.109 367v59.805l1 8.412c18.785-19.881 34.283-42.917 45.61-68.217z"/><path d="m420.109 367h-45.491v106.993l1 6.851c15.637-8.766 30.213-19.196 43.491-31.05l1-9.312z"/></g></g><g><g><g><path d="m77.891 226.253v208.964c4.79 5.07 9.797 9.93 15 14.576v-208.889z" fill="#596c76"/><path d="m86 234.174-8.109-7.921v208.964c2.636 2.79 5.345 5.511 8.109 8.174z" fill="#465a61"/><path d="m77.891 77.221 8.932-45.248-1.234.017s-.163.008-.165.008c-2.73 0-5.292-.708-7.52-1.942h-.013z" fill="#596c76"/></g><path d="m136.553 277.356-15.701-90.442-1.178-.938c-.416.017-.802.024-1.175.024-19.022 0-34.499-15.477-34.499-34.5 0-14.971 9.807-28.324 23.986-32.857l.792-1.284-15.226-87.707c-2.264 1.41-4.91 2.252-7.75 2.327l-33.137 167.866c-.327 1.656.204 3.366 1.412 4.545l77.425 75.624c2.082 2.035 5.549.21 5.051-2.658z" fill="#26a6fe"/><path d="m134.018 262.749-64.511-63.011c-1.208-1.18-1.739-2.889-1.412-4.545l28.836-146.078-3.379-19.462c-2.264 1.41-4.91 2.252-7.75 2.327l-33.137 167.865c-.327 1.656.204 3.366 1.412 4.545l77.425 75.624c2.082 2.034 5.55.209 5.052-2.659z" fill="#0593fc"/><g><circle cx="85.391" cy="16.5" fill="#8d9ca8" r="16.5"/></g><path d="m85 16.5c0-6.186 3.409-11.568 8.445-14.393-2.383-1.337-5.127-2.107-8.054-2.107-9.113 0-16.5 7.387-16.5 16.5s7.387 16.5 16.5 16.5c2.927 0 5.671-.77 8.055-2.107-5.037-2.825-8.446-8.207-8.446-14.393z" fill="#7a8c98"/></g><g><g fill="#596c76"><path d="m425.792 31.973c-.126.339-.267.663-.424.965l8.742 44.284v-47.167c-2.224 1.236-4.78 1.945-7.5 1.945-.275 0-.547-.012-.818-.027z"/><path d="m419.109 240.904v208.889c5.203-4.646 10.21-9.507 15-14.576v-208.964z"/></g><g><path d="m419.109 242.302v207.492c3.035-2.71 5.994-5.501 8.891-8.356v-207.82z" fill="#465a61"/></g><path d="m404.055 124.149-1.547-2.675-27.061 155.881c-.498 2.868 2.97 4.693 5.052 2.659l44.689-43.649.271-3.792z" fill="#fff"/><path d="m459.335 199.845-33.137-167.866c-2.84-.075-5.486-.917-7.75-2.327l-15.94 91.822 22.68 114.891 32.736-31.975c1.207-1.179 1.738-2.888 1.411-4.545z" fill="#fea3c6"/><path d="m459.335 199.845-33.137-167.866c-2.84-.075-5.486-.917-7.75-2.327l-15.94 91.822 22.68 114.891 32.736-31.975c1.207-1.179 1.738-2.888 1.411-4.545z" fill="#fea3c6"/><path d="m402.507 121.474-27.061 155.881c-.498 2.868 2.97 4.693 5.052 2.659l13.352-13.041 17.49-100.751z" fill="#eaf6ff"/><path d="m430.693 54.748-4.495-22.769c-2.84-.075-5.486-.917-7.75-2.327l-15.94 91.822 8.833 44.748z" fill="#fe76a8"/><g><circle cx="426.609" cy="16.5" fill="#8d9ca8" r="16.5"/></g><path d="m427 16.5c0-6.022 3.237-11.275 8.055-14.156-2.473-1.479-5.355-2.344-8.446-2.344-9.113 0-16.5 7.387-16.5 16.5s7.387 16.5 16.5 16.5c3.091 0 5.973-.865 8.445-2.344-4.817-2.881-8.054-8.134-8.054-14.156z" fill="#7a8c98"/></g></g><path d="m364 277.521v-94.819c0-15.964-14.712-28.906-32.861-28.906h-150.278c-18.148 0-32.861 12.942-32.861 28.906v94.819z" fill="#7a8c98"/><path d="m204.861 153.796h-24c-18.148 0-32.861 12.942-32.861 28.906v94.819h24v-94.819c0-15.964 14.712-28.906 32.861-28.906z" fill="#596c76"/><g><path d="m186.5 277.521v-13.521c0-4.95-4.05-9-9-9h-32c-4.95 0-9 4.05-9 9v13.521z" fill="#ea9b58"/><path d="m162 255h-16.5c-4.95 0-9 4.05-9 9v13.521h16.5v-13.521c0-4.95 4.05-9 9-9z" fill="#d88a55"/><path d="m375.5 277.521v-13.521c0-4.95-4.05-9-9-9h-32c-4.95 0-9 4.05-9 9v13.521z" fill="#ea9b58"/><path d="m351 255h-16.5c-4.95 0-9 4.05-9 9v13.521h16.5v-13.521c0-4.95 4.05-9 9-9z" fill="#d88a55"/></g><path d="m204.129 193.035-10.048 8.731c-2.094 1.82-2.605 4.869-1.218 7.272l39.539 68.483h44.195l39.539-68.483c1.387-2.403.877-5.452-1.218-7.272l-10.048-8.731 11.096-16.005c1.506-2.172 1.352-5.088-.375-7.089l-22.321-25.863c-5.68 4.487-12.842 7.175-20.626 7.175h-33.29c-8.598 0-16.445-3.273-22.365-8.636l-23.582 27.324c-1.727 2.001-1.881 4.917-.375 7.089z" fill="#596c76"/><g><path d="m225.141 237.232-16.277-28.193c-1.387-2.403-.877-5.452 1.218-7.272l10.048-8.731-11.096-16.005c-1.506-2.172-1.352-5.088.375-7.089l18.033-20.894c-3.883-1.491-7.421-3.684-10.451-6.43l-23.582 27.324c-1.727 2.001-1.881 4.917-.375 7.089l11.096 16.005-10.048 8.731c-2.094 1.82-2.605 4.869-1.218 7.272l32.277 55.906z" fill="#465a61"/></g><path d="m285.859 196.849c0 .391-.181.646-.333.792-.208.2-.49.314-.773.314-.196 0-.386-.054-.562-.16l-28.191-16.875-28.19 16.875c-.177.106-.366.16-.562.16-.533 0-1.107-.423-1.107-1.106h-1v80.672h61.718v-80.672z" fill="#fff"/><g><path d="m227.81 197.795c-.177.106-.366.16-.562.16-.533 0-1.107-.423-1.107-1.106h-1v80.672h16.859v-88.221z" fill="#eaf6ff"/></g><path d="m275.202 192.415-19.202-11.495-19.202 11.495 13.272 15.339-12.334 69.767h36.528l-12.334-69.767z" fill="#26a6fe"/><path d="m242.937 189.905-5.475 3.277 12.608 14.572-12.334 69.767h8.223l11.92-67.425c.262-1.482-.158-3.004-1.142-4.142l-13.089-15.128c-.26-.299-.491-.608-.711-.921z" fill="#0593fc"/><path d="m281.205 150.134c-2.733.727-5.601 1.119-8.56 1.119h-33.29c-2.959 0-5.827-.392-8.56-1.119-3.222.632-5.654 3.469-5.654 6.876v39.84c0 1.634 1.781 2.643 3.183 1.804l27.676-16.569 27.676 16.568c1.402.839 3.183-.171 3.183-1.804v-39.84c0-3.407-2.432-6.243-5.654-6.875z" fill="#eaf6ff"/><g><path d="m242 157.009c0-2.387 1.197-4.492 3.02-5.756h-5.665c-2.959 0-5.827-.392-8.56-1.119-3.222.632-5.654 3.469-5.654 6.876v39.84c0 1.634 1.781 2.643 3.183 1.804l13.676-8.188z" fill="#d8ecfe"/></g><path d="m272.645 151.253h-33.29c-.879 0-1.748-.045-2.61-.112v8.586c0 .796.316 1.559.879 2.121l16.255 16.255c1.172 1.172 3.071 1.172 4.243 0l16.255-16.255c.563-.563.879-1.326.879-2.121v-8.586c-.863.067-1.732.112-2.611.112z" fill="#ea9b58"/><g><path d="m254.368 161.849c-.563-.563-.879-1.326-.879-2.121v-8.474h-14.135c-.879 0-1.748-.045-2.61-.112v8.586c0 .796.316 1.559.879 2.121l16.255 16.255c1.172 1.172 3.071 1.172 4.243 0l6.251-6.251z" fill="#d88a55"/></g><g><path d="m136.382 342v138.844c35.38 19.833 76.173 31.156 119.618 31.156s84.238-11.323 119.618-31.156v-138.844z" fill="#bb5d4c"/></g><path d="m170 342h-33.618v138.844c10.733 6.016 21.966 11.244 33.618 15.616z" fill="#a44f3e"/><path d="m110 325v8c0 5.523 4.477 10 10 10h272c5.523 0 10-4.477 10-10v-8z" fill="#f6a96c"/><path d="m150 333v-8h-40v8c0 5.523 4.477 10 10 10h40c-5.523 0-10-4.477-10-10z" fill="#ea9b58"/><g><circle cx="256" cy="425" fill="#fed402" r="59"/></g><path d="m230 425c0-26.855 17.949-49.504 42.5-56.644-5.238-1.524-10.77-2.356-16.5-2.356-32.585 0-59 26.415-59 59s26.415 59 59 59c5.73 0 11.262-.832 16.5-2.356-24.551-7.14-42.5-29.789-42.5-56.644z" fill="#fac600"/><g><g><path d="m292.633 11.255c-5.787 0-11.121 1.919-15.415 5.147 4.028 5.831 6.395 12.894 6.395 20.502v9.524l.022.035c12.338.091 22.349 10.153 22.349 22.512v8.391h6.799c1.931 0 3.794.294 5.549.837v-41.25c.001-14.192-11.506-25.698-25.699-25.698z" fill="#465a61"/><path d="m206.016 68.975c0-12.416 10.101-22.517 22.517-22.517h54.936c.268 0 .532.011.798.02l.086-.035v-9.54c-.002-20.381-16.524-36.903-36.906-36.903h-38.352c-8.521 0-15.428 6.907-15.428 15.428v62.776c1.754-.544 3.618-.837 5.549-.837h6.799v-8.392z" fill="#596c76"/><g><path d="m219 15.428c0-8.521 6.907-15.428 15.428-15.428h-25.333c-8.521 0-15.428 6.907-15.428 15.428v62.776c1.754-.544 3.618-.837 5.549-.837h6.799v-8.391c0-9.01 5.321-16.796 12.984-20.393v-33.155z" fill="#465a61"/></g></g><g><g fill="#d88a55"><path d="m206.016 117.914v-41.286h-6.799c-10.78 0-19.519 8.739-19.519 19.519v4.564c0 10.78 8.739 19.519 19.519 19.519h6.889c-.054-.767-.09-1.537-.09-2.316z"/><path d="m312.784 76.628h-6.799v41.286c0 .779-.037 1.55-.089 2.316h6.889c10.78 0 19.519-8.739 19.519-19.519v-4.564c-.002-10.78-8.74-19.519-19.52-19.519z"/></g><g><path d="m272.645 152.253h-33.29c-18.965 0-34.339-15.374-34.339-34.339v-48.939c0-12.988 10.529-23.516 23.516-23.516h54.936c12.988 0 23.517 10.529 23.517 23.516v48.939c-.001 18.965-15.375 34.339-34.34 34.339z" fill="#ea9b58"/></g><path d="m234 117.914v-48.939c0-12.988 10.529-23.516 23.516-23.516h-28.984c-12.988 0-23.516 10.529-23.516 23.516v48.939c0 18.965 15.374 34.339 34.339 34.339h28.984c-18.965 0-34.339-15.374-34.339-34.339z" fill="#d88a55"/><g><g><path d="m255.993 109.139c-1.349 0-2.714-.364-3.945-1.127l-9.111-5.65c-1.734-1.075-2.955-2.811-3.381-4.806-.427-1.995-.022-4.078 1.12-5.768l9.111-13.482c2.318-3.432 6.981-4.334 10.413-2.015s4.334 6.981 2.015 10.413l-4.744 7.02 2.482 1.54c3.521 2.183 4.604 6.807 2.421 10.327-1.42 2.289-3.872 3.548-6.381 3.548z" fill="#bb5d4c"/></g></g></g><g><g><path d="m227.324 95.162c-4.142 0-7.5-3.358-7.5-7.5v-7.47c0-4.142 3.358-7.5 7.5-7.5s7.5 3.358 7.5 7.5v7.47c0 4.142-3.358 7.5-7.5 7.5z" fill="#bb5d4c"/></g><g><path d="m284.676 95.162c-4.142 0-7.5-3.358-7.5-7.5v-7.47c0-4.142 3.358-7.5 7.5-7.5s7.5 3.358 7.5 7.5v7.47c0 4.142-3.358 7.5-7.5 7.5z" fill="#bb5d4c"/></g></g><g><path d="m274 133.61h-36c-4.142 0-7.5-3.358-7.5-7.5s3.358-7.5 7.5-7.5h36c4.142 0 7.5 3.358 7.5 7.5s-3.358 7.5-7.5 7.5z" fill="#bb5d4c"/></g></g><path d="m376.685 204.17 18.644 18.644c.755.755 1.171 1.76 1.171 2.828v51.879h12v-51.879c0-4.274-1.664-8.292-4.686-11.313l-18.644-18.644z" fill="#596c76"/><g><path d="m416 326h-320c-5.523 0-10-4.477-10-10v-29.478c0-5.523 4.477-10 10-10h320c5.523 0 10 4.477 10 10v29.478c0 5.523-4.477 10-10 10z" fill="#bb5d4c"/></g><path d="m144 309c-5.523 0-10-4.477-10-10v-22.478h-38c-5.523 0-10 4.477-10 10v29.478c0 5.523 4.477 10 10 10h320c5.523 0 10-4.477 10-10v-7z" fill="#a44f3e"/><path d="m386.855 189.214-32.841-32.841c-.875 8.846-7.93 15.901-16.776 16.776l32.841 32.841c1.712 1.712 4.487 1.712 6.199 0l10.576-10.576c1.713-1.713 1.713-4.488.001-6.2z" fill="#9facba"/><path d="m376.72 200.496-29.917-29.916c-2.52 1.795-5.477 3.004-8.683 3.451l31.959 31.959c1.712 1.712 4.487 1.712 6.199 0l4.281-4.281c-1.353.231-2.794-.168-3.839-1.213z" fill="#8d9ca8"/><g><circle cx="335.382" cy="154.516" fill="#596c76" r="19.726"/></g><path d="m332.547 154.516c0-7.868 4.618-14.64 11.28-17.806-2.563-1.218-5.419-1.92-8.446-1.92-10.895 0-19.726 8.832-19.726 19.726s8.832 19.726 19.726 19.726c3.027 0 5.883-.702 8.446-1.92-6.662-3.166-11.28-9.938-11.28-17.806z" fill="#465a61"/><g><path d="m259.778 458.023 30.763-35.477c1.334-1.539 1.602-3.733.676-5.547l-11.114-21.79c-.854-1.674-2.575-2.728-4.454-2.728h-39.298c-1.879 0-3.6 1.054-4.454 2.728l-11.114 21.79c-.925 1.814-.658 4.009.676 5.547l30.763 35.477c1.994 2.299 5.562 2.299 7.556 0z" fill="#fe9901"/></g><path d="m246.696 422.546c-1.334-1.539-1.602-3.733-.677-5.547l11.114-21.79c.854-1.674 2.575-2.728 4.454-2.728h-25.237c-1.879 0-3.6 1.054-4.454 2.728l-11.114 21.79c-.925 1.814-.658 4.009.677 5.547l30.763 35.477c1.994 2.299 5.562 2.299 7.555 0l8.841-10.196z" fill="#fb8801"/><g><path d="m108.778 117.359c-14.878 4.229-25.778 17.907-25.778 34.141 0 19.606 15.894 35.5 35.5 35.5.791 0 1.574-.035 2.353-.086z" fill="#fff"/></g><path d="m94.147 151.5c0-12.174 6.13-22.911 15.471-29.303l-.84-4.838c-14.878 4.229-25.778 17.907-25.778 34.141 0 19.606 15.894 35.5 35.5 35.5.791 0 1.574-.035 2.353-.086l-.184-1.062c-15.259-3.977-26.522-17.848-26.522-34.352z" fill="#eaf6ff"/></g></g></svg>