<svg id="Layer_2" height="512" viewBox="0 0 64 64" width="512" xmlns="http://www.w3.org/2000/svg" data-name="Layer 2"><rect fill="#e6e6e6" height="61" rx="10" width="64" y="3"/><path d="m10 3h44a10 10 0 0 1 10 10v4a0 0 0 0 1 0 0h-64a0 0 0 0 1 0 0v-4a10 10 0 0 1 10-10z" fill="#f00"/><circle cx="15" cy="10" fill="#fff" r="3"/><path d="m15 13.5a3.5 3.5 0 1 1 3.5-3.5 3.5 3.5 0 0 1 -3.5 3.5zm0-6a2.5 2.5 0 1 0 2.5 2.5 2.5 2.5 0 0 0 -2.5-2.5z" fill="#b3b3b3"/><circle cx="26.333" cy="10" fill="#fff" r="3"/><path d="m26.333 13.5a3.5 3.5 0 1 1 3.5-3.5 3.5 3.5 0 0 1 -3.5 3.5zm0-6a2.5 2.5 0 1 0 2.5 2.5 2.5 2.5 0 0 0 -2.5-2.5z" fill="#b3b3b3"/><circle cx="37.667" cy="10" fill="#fff" r="3"/><path d="m37.667 13.5a3.5 3.5 0 1 1 3.5-3.5 3.5 3.5 0 0 1 -3.5 3.5zm0-6a2.5 2.5 0 1 0 2.5 2.5 2.5 2.5 0 0 0 -2.5-2.5z" fill="#b3b3b3"/><circle cx="49" cy="10" fill="#fff" r="3"/><path d="m49 13.5a3.5 3.5 0 1 1 3.5-3.5 3.5 3.5 0 0 1 -3.5 3.5zm0-6a2.5 2.5 0 1 0 2.5 2.5 2.5 2.5 0 0 0 -2.5-2.5z" fill="#b3b3b3"/><g fill="#565656"><rect height="12" rx="2" width="4" x="13"/><rect height="12" rx="2" width="4" x="24.333"/><rect height="12" rx="2" width="4" x="35.667"/><rect height="12" rx="2" width="4" x="47"/></g><path d="m18.238 33.489h-4.113v13.52a2.482 2.482 0 0 1 -.521 1.733 1.744 1.744 0 0 1 -1.345.565 1.77 1.77 0 0 1 -1.365-.571 2.475 2.475 0 0 1 -.527-1.727v-13.52h-4.113a2.082 2.082 0 0 1 -1.435-.426 1.581 1.581 0 0 1 .019-2.263 2.12 2.12 0 0 1 1.416-.419h11.984a2.107 2.107 0 0 1 1.454.432 1.456 1.456 0 0 1 .476 1.13 1.425 1.425 0 0 1 -.482 1.123 2.135 2.135 0 0 1 -1.448.423z" fill="#1a1a1a"/><path d="m26.2 32.346v5.332h8.138v-5.332a2.491 2.491 0 0 1 .514-1.714 1.732 1.732 0 0 1 1.352-.571 1.8 1.8 0 0 1 1.378.565 2.447 2.447 0 0 1 .526 1.72v14.663a2.452 2.452 0 0 1 -.533 1.727 1.789 1.789 0 0 1 -1.371.571 1.714 1.714 0 0 1 -1.358-.578 2.535 2.535 0 0 1 -.508-1.72v-6.259h-8.138v6.259a2.452 2.452 0 0 1 -.533 1.727 1.789 1.789 0 0 1 -1.371.571 1.714 1.714 0 0 1 -1.358-.578 2.535 2.535 0 0 1 -.508-1.72v-14.663a2.536 2.536 0 0 1 .5-1.714 1.723 1.723 0 0 1 1.365-.571 1.8 1.8 0 0 1 1.377.565 2.447 2.447 0 0 1 .528 1.72z" fill="#1a1a1a"/><path d="m42.182 41.3v-8.95a2.491 2.491 0 0 1 .514-1.714 1.731 1.731 0 0 1 1.352-.571 1.776 1.776 0 0 1 1.39.571 2.491 2.491 0 0 1 .514 1.714v9.15a8.336 8.336 0 0 0 .349 2.608 3.012 3.012 0 0 0 1.238 1.625 4.539 4.539 0 0 0 2.488.578 3.73 3.73 0 0 0 3.123-1.174 5.75 5.75 0 0 0 .914-3.561v-9.23a2.51 2.51 0 0 1 .508-1.72 1.741 1.741 0 0 1 1.359-.565 1.8 1.8 0 0 1 1.377.565 2.447 2.447 0 0 1 .527 1.72v8.954a13.264 13.264 0 0 1 -.425 3.644 5.629 5.629 0 0 1 -1.61 2.556 6.23 6.23 0 0 1 -2.362 1.371 10.321 10.321 0 0 1 -3.148.432 12.974 12.974 0 0 1 -3.694-.463 5.909 5.909 0 0 1 -2.527-1.435 5.771 5.771 0 0 1 -1.434-2.488 12.646 12.646 0 0 1 -.453-3.617z" fill="#1a1a1a"/><path d="m64 13v41a10 10 0 0 1 -10 10h-44a10.005 10.005 0 0 1 -9.74-7.73 9.891 9.891 0 0 0 3.74.73h44a10 10 0 0 0 10-10v-41a10 10 0 0 0 -.26-2.27 9.993 9.993 0 0 1 6.26 9.27z" fill="#565656" opacity=".15"/></svg>