<svg id="Flat" height="512" viewBox="0 0 340 340" width="512" xmlns="http://www.w3.org/2000/svg" xmlns:xlink="http://www.w3.org/1999/xlink"><linearGradient id="linear-gradient" gradientUnits="userSpaceOnUse" x1="195.567" x2="247.084" y1="252.029" y2="252.029"><stop offset="0" stop-color="#edcfc9"/><stop offset="1" stop-color="#eca397"/></linearGradient><linearGradient id="linear-gradient-2" gradientUnits="userSpaceOnUse" x1="302.234" x2="295.33" y1="292.78" y2="2.327"><stop offset="0" stop-color="#ed6960"/><stop offset=".291" stop-color="#e15f57"/><stop offset="1" stop-color="#c84943"/></linearGradient><linearGradient id="linear-gradient-3" gradientUnits="userSpaceOnUse" x1="87.931" x2="91.117" y1="87.762" y2="248.994"><stop offset="0" stop-color="#4b717b"/><stop offset="1" stop-color="#3a586e"/></linearGradient><linearGradient id="linear-gradient-4" gradientUnits="userSpaceOnUse" x1="45.946" x2="44.935" y1="121.967" y2="290.712"><stop offset="0" stop-color="#759aa9"/><stop offset="1" stop-color="#4b717b"/></linearGradient><linearGradient id="linear-gradient-5" x1="52.79" x2="55.977" xlink:href="#linear-gradient-3" y1="88.456" y2="249.688"/><linearGradient id="linear-gradient-6" x1="95.568" x2="94.558" xlink:href="#linear-gradient-4" y1="122.264" y2="291.009"/><linearGradient id="linear-gradient-7" x1="177.233" x2="180.42" xlink:href="#linear-gradient-3" y1="85.997" y2="247.229"/><linearGradient id="linear-gradient-8" x1="38.327" x2="41.513" xlink:href="#linear-gradient-3" y1="88.742" y2="249.974"/><linearGradient id="linear-gradient-9" x1="94.685" x2="97.871" xlink:href="#linear-gradient-3" y1="87.628" y2="248.86"/><linearGradient id="linear-gradient-10" x1="44.017" x2="106.544" xlink:href="#linear-gradient" y1="254.254" y2="254.254"/><linearGradient id="linear-gradient-11" gradientUnits="userSpaceOnUse" x1="60.206" x2="104.185" y1="278.28" y2="323.274"><stop offset="0" stop-color="#c6766c"/><stop offset="1" stop-color="#8b4636"/></linearGradient><linearGradient id="linear-gradient-12" gradientUnits="userSpaceOnUse" x1="153.058" x2="151.211" y1="173.949" y2="263.207"><stop offset="0" stop-color="#ede5dc"/><stop offset="1" stop-color="#ddc1ba"/></linearGradient><linearGradient id="linear-gradient-13" gradientUnits="userSpaceOnUse" x1="181.824" x2="186.239" y1="153.835" y2="238.506"><stop offset="0" stop-color="#535365"/><stop offset="1" stop-color="#39394c"/></linearGradient><linearGradient id="linear-gradient-14" x1="132.473" x2="167.675" xlink:href="#linear-gradient" y1="166.726" y2="166.726"/><linearGradient id="linear-gradient-15" x1="101.349" x2="101.793" xlink:href="#linear-gradient-13" y1="29.007" y2="105.896"/><linearGradient id="linear-gradient-16" x1="154.559" x2="155.004" xlink:href="#linear-gradient-13" y1="28.7" y2="105.589"/><linearGradient id="linear-gradient-17" x1="117.48" x2="121.901" xlink:href="#linear-gradient-13" y1="157.073" y2="241.848"/><linearGradient id="linear-gradient-18" x1="240.331" x2="306.075" xlink:href="#linear-gradient-11" y1="282.333" y2="286.132"/><linearGradient id="linear-gradient-19" x1="117.925" x2="189.308" xlink:href="#linear-gradient" y1="91.252" y2="91.252"/><linearGradient id="linear-gradient-20" x1="36.287" x2="35.277" xlink:href="#linear-gradient-4" y1="121.909" y2="290.654"/><linearGradient id="linear-gradient-21" x1="47.835" x2="51.022" xlink:href="#linear-gradient-3" y1="88.554" y2="249.786"/><linearGradient id="linear-gradient-22" x1="298.546" x2="302.053" xlink:href="#linear-gradient-11" y1="240.127" y2="317.266"/><linearGradient id="linear-gradient-23" x1="186.97" x2="108.904" xlink:href="#linear-gradient-3" y1="283.307" y2="331.951"/><linearGradient id="linear-gradient-24" x1="120.14" x2="203.698" xlink:href="#linear-gradient-4" y1="287.639" y2="328.046"/><path d="m287.629 136.1a3.316 3.316 0 0 1 -.358-.019 3.5 3.5 0 0 1 -3.128-3.835l.215-2.12a28.583 28.583 0 0 0 -6.323-20.909 35.321 35.321 0 0 1 -7.835-18.479l-.491-4.306a3.5 3.5 0 0 1 6.956-.793l.49 4.307a28.338 28.338 0 0 0 6.285 14.828 35.629 35.629 0 0 1 7.881 26.064l-.216 2.12a3.5 3.5 0 0 1 -3.476 3.142z" fill="#b63131"/><path d="m195.567 236.878s8.857 21.6 23.32 39.365a28.893 28.893 0 0 0 21.253 10.757q.573.021 1.159.021l5.785-24.227s-5.778-1.357-14.551-9.234c-6.251-5.614-12.143-22.648-15.2-36.514z" fill="url(#linear-gradient)"/><path d="m224.587 240.48a142.283 142.283 0 0 1 -7.256-23.438l-21.764 19.835s2.07 5.044 5.835 12.254z" fill="#d57370"/><path d="m305.9 211.365c-.979-4.7-1.767-9.517-2.392-14.392a19.262 19.262 0 0 1 4.228-14.936 18.34 18.34 0 0 1 7.245-5.24 2.491 2.491 0 0 0 1.557-2.593l-1.474-13.9a2.494 2.494 0 0 0 -1.386-1.983 26.52 26.52 0 0 1 -5.1-3.2 17.893 17.893 0 0 1 -6.484-14.988 409.177 409.177 0 0 1 4.775-43.847c3.538-30.6-3.046-64.069-6.518-78.75a9.9 9.9 0 0 0 -9.651-7.616h-4.793a5.314 5.314 0 0 0 -5.167 6.562c3.391 14.077 10.394 48.451 6.77 79.8 0 0-11.5 64.385-.99 114.99a257.775 257.775 0 0 1 4.451 28.852c1.968 21.418 3.526 56.538-2.448 89.793h19.357c5.923-32.971 4.442-67.774 2.5-89.24a257.719 257.719 0 0 0 -4.48-29.312z" fill="url(#linear-gradient-2)"/><path d="m62.386 140.486-15.78 90.103 12.163 52.022 47.775 27.841 29.811-6.296-13.022-162.355z" fill="url(#linear-gradient-3)"/><path d="m40.377 166.61c-.228 2.041-.23 3.31-.23 3.31v35.739a24.8 24.8 0 0 1 0 8.39s-10.593 8.533-10.593 28.541v16.5a27.256 27.256 0 0 0 3.172 13.007c2.578 4.753 7.139 9.708 15.071 10.517l11.182-17.953s-12.289-32.366 1.246-50.609a26.019 26.019 0 0 1 .13-6.522l.691-34.672a42.16 42.16 0 0 1 .294-4.858 52.478 52.478 0 0 0 -20.963-1.39z" fill="url(#linear-gradient-4)"/><path d="m40.377 166.61 20.973 1.311a73.578 73.578 0 0 1 6.543-21.548l-17.581-2.292c-7.289 7.026-9.351 17.306-9.935 22.529z" fill="url(#linear-gradient-5)"/><path d="m37.052 86.38s21.765-3.426 42.526-.207c24.566 3.809 46.5 7.679 74.885 8.639l-2.65 61.333-13.157-1.474s-68.806.917-97.851-2.651z" fill="url(#linear-gradient-6)"/><path d="m185.341 94.694c-7.041.273-13.667.376-19.962.336.546 14.413-.7 40.036-13.566 61.115l23.14 2.593a23.346 23.346 0 0 0 23.563-12.938c7.724-15.787 6.967-29.139 4.456-38.325a17.538 17.538 0 0 0 -17.631-12.781z" fill="url(#linear-gradient-7)"/><path d="m54.652 118.3c1.036 18.126-5.163 33.223-13.847 33.719-5.248.3-10.2-4.8-13.531-12.888-2.291-8.69-3.853-16.135-4.165-21.44-.382-17.037 5.647-30.838 13.943-31.312 8.684-.496 16.563 13.796 17.6 31.921z" fill="url(#linear-gradient-8)"/><path d="m90.005 98.528s3.586 31.984-8.122 53.56a5.361 5.361 0 0 0 4.2 7.985 36.031 36.031 0 0 0 8.138-.371 7.506 7.506 0 0 0 5.352-3.947c3.482-6.592 10.735-23.669 10.259-50.855z" fill="url(#linear-gradient-9)"/><path d="m80.144 223.2c-16.953 22.937-28.487 41.6-36.127 62.115l35.561-13.379 26.966-32.289z" fill="url(#linear-gradient-10)"/><path d="m70.416 236.786 26.615 14.247 9.513-11.39-26.4-16.443c-3.469 4.69-6.7 9.2-9.728 13.586z" fill="#d57370"/><path d="m83.856 269.945s-25.621-.3-45.658 15.72a1.67 1.67 0 0 0 .3 2.8l31.693 15.667a9.15 9.15 0 0 1 5.094 8.2v2.146a15.439 15.439 0 0 0 15.434 15.442h12.781v-27.055s-6.442-19.718-19.644-32.92z" fill="url(#linear-gradient-11)"/><path d="m112.882 159.1s-22.3 27.569-39.156 51.189a6.368 6.368 0 0 0 1.167 8.651l37.989 30.8.385 3.82s.132 5.792-.11 13.476c12.409 8.936 24.94 16.48 37.716 21.245 16.1-8.1 31.392-16.215 39.444-24.381a178.453 178.453 0 0 1 -1.009-20.032l40.16-29.945a6.366 6.366 0 0 0 .953-9.331l-32.276-36.323a29.964 29.964 0 0 0 -21.57-9.166z" fill="url(#linear-gradient-12)"/><path d="m161.059 199.293s-17.583 26.176-43.134 24.58v-6.831s25.107 1.145 38.654-25.332z" fill="#bca39c"/><path d="m164.5 154.4h7.2a15.816 15.816 0 0 1 12.868 6.59 176.722 176.722 0 0 1 10.192 16.01 73.29 73.29 0 0 1 7.752 52.825q-.132.555-.273 1.112a15.986 15.986 0 0 1 -7.776 10.089l-5.155 2.843s6.856-50.049-26.583-80.609z" fill="url(#linear-gradient-13)"/><path d="m134.886 134.16c-.06 7.014-.226 15.014-.592 22.968-.294 6.372-1.365 11.3-1.821 17.4 0 0 8.983 14.962 28.586 24.764 0 0 3.484-4.107 5.857-15.853 1.29-6.384.753-13-.255-19.434a118.169 118.169 0 0 1 -1.411-15.825z" fill="url(#linear-gradient-14)"/><path d="m123.333 32.868s-26.453-8.216-39.141 12.475a33.008 33.008 0 0 0 -2.814 27.681c3.455 10.371 7.63 29.1 1.586 48.149a4.519 4.519 0 0 0 5.036 5.821c12.593-2.039 36.461-10.932 34.007-49.17z" fill="url(#linear-gradient-15)"/><path d="m183.284 86.8s12.817-3.139 17.843-18.038a32.489 32.489 0 0 0 -1.907-25.75c-3.44-6.4-9.865-12.977-21.805-13.685a32.382 32.382 0 0 0 -4.99-4.432c-27.311-20.222-65.956-.092-65.881 33.89a80.807 80.807 0 0 0 2.05 17.356s6.491 27.051 42.917 25.027z" fill="url(#linear-gradient-16)"/><path d="m134.759 111.884s.237 9.5.127 22.276a60.621 60.621 0 0 0 30.37 14.021 80.526 80.526 0 0 1 1.288-16.7z" fill="#d57370"/><path d="m129.3 149.813a56.674 56.674 0 0 0 -14.833 3.4 9.122 9.122 0 0 0 -6.013 8.086c-.725 14.165-2.595 51.984-3.514 82.3a9.593 9.593 0 0 0 6.641 9.419l1.686.546s19.212-57.146 21.154-98.787a4.757 4.757 0 0 0 -5.121-4.964z" fill="url(#linear-gradient-17)"/><path d="m247.084 262.79s23.5 5.723 42.43 3.414v30.626s-26.2 7.265-52.056 5.249c0 0-2.295-22.851 9.626-39.289z" fill="url(#linear-gradient-18)"/><path d="m176.172 46.4s-5.953 32.1-41.154 44.26a7.468 7.468 0 0 0 -1.21-1.914c-4.069-4.837-11.8-3.462-14.425 2.288a16.8 16.8 0 0 0 -1.289 4.476c-1.422 9.329 6.311 17.744 15.67 16.528.326-.043.657-.094.995-.154 0 0 .905 2.2 2.35 5.681a19.549 19.549 0 0 0 7.344 8.894 70.874 70.874 0 0 0 22.05 9.385 9.25 9.25 0 0 0 8.049-1.831 39.79 39.79 0 0 0 7.068-7.588 26.386 26.386 0 0 0 4.458-11.081c1.386-8.513 3.9-26.976 3.061-44.6a28.405 28.405 0 0 0 -2.339-10.031c-1.953-4.465-5.378-10.563-10.628-14.313z" fill="url(#linear-gradient-19)"/><circle cx="164.44" cy="89.372" fill="#d57370" r="3.813"/><circle cx="177.819" cy="89.372" fill="#d57370" r="3.813"/><path d="m48.724 128.365s4.66-20.932-8.958-24.889c-7.719-2.243-10.488 3.035-11.465 7.693a15.643 15.643 0 0 0 2.227 12.056q.227.332.475.657a.973.973 0 0 0 1.73-.712 28.9 28.9 0 0 1 -.04-7.3 4.788 4.788 0 0 1 8.175-2.565 4.589 4.589 0 0 1 .86 1.2 16.79 16.79 0 0 1 1.645 6.313 31.861 31.861 0 0 1 -.565 8.654 7.739 7.739 0 0 1 -12.856 3.891c-5.071-4.787-6.511-11.2-6.838-15.673.018.8.045 1.6.091 2.407a59.685 59.685 0 0 0 4.074 19.032 18.8 18.8 0 0 0 6.154 2.9c11.333 3.002 15.291-13.664 15.291-13.664z" fill="url(#linear-gradient-20)"/><path d="m40.147 205.659v8.39h20.078l.13-6.522z" fill="url(#linear-gradient-21)"/><path d="m312.066 282.039-19.346-.609a293.153 293.153 0 0 1 -4.193 48.49h19.353a292.24 292.24 0 0 0 4.186-47.881z" fill="#b63131"/><rect fill="url(#linear-gradient-22)" height="42.172" rx="11.564" width="33.008" x="283.9" y="259.907"/><path d="m193.325 283.9s-1.815-8.465-3.008-20c-16.89 9.5-40.243 17.1-40.243 17.1-13.36-3.539-31.077-11.323-36.917-13.961a188.586 188.586 0 0 1 -1.652 20.721l43.226 14.326z" fill="#bca39c"/><path d="m188.976 278.487c-11.921 6.324-44.082 21.265-86.848 24.378a113.85 113.85 0 0 0 0 27.055s66.838 3.805 103.774-25.743c0 0-.422-13.412-7.261-23.358a7.484 7.484 0 0 0 -9.665-2.332z" fill="url(#linear-gradient-23)"/><path d="m115.821 279.067c13.292 6.109 45.033 18.849 90.081 25.11 0 0 1.749 15.25-.507 25.743 0 0-68.412-3.457-103.267-27.055a91.377 91.377 0 0 1 3.557-19.243 7.392 7.392 0 0 1 10.136-4.555z" fill="url(#linear-gradient-24)"/></svg>