<svg viewBox="0 0 223.453 223.453" xmlns="http://www.w3.org/2000/svg"><g><path d="m55.391 29.571 11.585-10.968c7.741-7.616 5.739-16.207-4.461-18.594H13.448C5.313.304-.131 2.762.138 13.516L.066 62.637c2.065 10.128 9.136 12.104 15.733 4.398l13.024-12.309 41.165 41.147c3.576 3.567 9.377 3.576 12.944.018l12.935-12.935c3.567-3.558 3.558-9.368-.009-12.935l-40.467-40.45zm27.291 98.313c-3.549-3.558-9.341-3.558-12.899.018l-41.04 41.004-12.989-12.291c-6.57-7.688-13.623-5.712-15.688 4.38L.146 210c-.259 10.691 5.149 13.176 13.275 13.453h48.951c10.155-2.405 12.157-10.959 4.443-18.531l-11.549-10.933 40.316-40.334c3.558-3.558 3.567-9.35.009-12.89l-12.909-12.881zm58.078-32.002c3.549 3.558 9.35 3.549 12.908-.018l41.049-41.147 12.989 12.309c6.552 7.706 13.605 5.73 15.67-4.398l-.072-49.121C223.564 2.753 218.137.295 210.031 0h-48.987c-10.164 2.396-12.113 10.986-4.398 18.594l11.567 10.977-40.343 40.432c-3.558 3.567-3.558 9.377 0 12.935l12.89 12.944zm66.982 60.724-12.953 12.291-40.906-41.004c-3.558-3.576-9.341-3.576-12.872-.018l-12.863 12.881c-3.54 3.54-3.531 9.333.018 12.89l40.199 40.316-11.54 10.951c-7.679 7.589-5.712 16.153 4.416 18.531h48.835c8.09-.277 13.525-2.762 13.239-13.453l.072-49.005c-2.067-10.084-9.102-12.059-15.645-4.38z" fill="#3db39e"></path></g></svg>