<svg viewBox="0 0 512 512" xmlns="http://www.w3.org/2000/svg"><g><path d="M434.441 7.758A7.76 7.76 0 0 0 426.683 0H85.317a7.76 7.76 0 0 0-7.759 7.759v269.079l31.036 22.034 103.654 73.558h.151l43.614-31.035 43.735 31.035 103.655-73.558 31.036-22.034V188.7l.002-180.942z" fill="#e6e9ed"></path><path d="m15.487 232.768 62.072 44.07v-98.484c0-.001-62.072 36.093-62.072 54.414z" fill="#f6bb42"></path><path d="M395.646 31.035H116.354a7.76 7.76 0 0 0-7.759 7.759v260.077l103.654 73.558h.151l43.614-31.035 43.735 31.035 103.655-73.558V38.794a7.758 7.758 0 0 0-7.758-7.759z" fill="#f5f7fa"></path><path d="M325.815 256.044h-139.63a7.737 7.737 0 0 0-7.759 7.761 7.754 7.754 0 0 0 7.759 7.759h139.632a7.754 7.754 0 0 0 7.759-7.759 7.74 7.74 0 0 0-7.761-7.761zM294.811 287.082H217.22a7.735 7.735 0 0 0-7.759 7.759 7.754 7.754 0 0 0 7.759 7.759h77.591c4.274 0 7.759-3.485 7.759-7.759a7.755 7.755 0 0 0-7.759-7.759z" fill="#656d78"></path><path d="m434.441 276.898-31.036 22.034-103.624 73.557h-87.532l-103.654-73.557-31.036-22.034-62.072-44.07v248.288c0 9.334 4.213 17.608 10.729 23.277h-.03c.03.03.061.03.091.061 5.062 4.365 11.426 7.214 18.519 7.547h422.712c3.576-.151 6.82-1.091 9.941-2.334h.152c11.153-4.637 18.912-15.67 18.912-28.551V232.829l-62.072 44.069z" fill="#ffce54"></path><path d="M494.573 491.451 313.238 362.852l-13.457 9.578h-87.532l-13.457-9.548L17.487 491.39c1.819 5.031 4.759 9.487 8.729 12.911l-.03.03c.03 0 .061.03.091.061 5.062 4.365 11.426 7.214 18.519 7.547h422.711c3.576-.152 6.82-1.091 9.941-2.334h.152c7.971-3.333 14.064-9.971 16.973-18.154z" fill="#f6bb42"></path><path d="M465.477 254.862v226.254c0 12.881-7.759 23.913-18.912 28.551h-.152c-3.121 1.242-6.364 2.182-9.941 2.334h31.035c3.576-.151 6.82-1.091 9.941-2.334h.152c11.153-4.637 18.912-15.67 18.912-28.551V232.829l-31.035 22.033z" fill="#f6bb42"></path><path d="M426.683 0h-23.278v298.871l31.036-22.034V7.758A7.76 7.76 0 0 0 426.683 0z" fill="#dadde1"></path><path d="m46.523 254.802 31.035 22.036v-98.484s-15.518 9.023-31.035 20.337v56.111z" fill="#dca746"></path><path d="m496.513 232.897-62.071 44.07v-98.484c-.001 0 62.071 36.093 62.071 54.414z" fill="#f6bb42"></path><path d="m465.477 254.931-31.035 22.036v-98.484s15.518 9.023 31.035 20.336v56.112z" fill="#dca746"></path><path d="m299.751 372.429-37.934-26.636h-.001a7.734 7.734 0 0 0-11.632 0h-.009l-37.773 26.636h-.151L26.186 504.332c4.971 4.334 11.487 7.123 18.61 7.608h422.712c3.576-.152 6.82-1.091 9.941-2.334h.152c2.94-1.395 5.728-3.121 8.213-5.274L299.751 372.429z" fill="#ffce54"></path><path d="M313.874 105.351c-15.973-15.972-41.886-15.972-57.859 0-16.003-15.972-41.916-15.972-57.889 0-16.003 15.988-16.003 41.919 0 57.89l52.541 52.422h.009a7.73 7.73 0 0 0 10.619.027h.021l52.559-52.448c16.002-15.974 16.002-41.903-.001-57.891z" fill="#ed5565"></path><path d="M313.874 105.351c-12.013-12.013-29.648-14.988-44.449-8.931a40.782 40.782 0 0 1 13.41 8.931c16.003 15.988 16.003 41.919 0 57.89l-42.351 42.263 10.183 10.159h.009a7.73 7.73 0 0 0 10.619.027h.021l52.559-52.448c16.002-15.974 16.002-41.903-.001-57.891z" fill="#da4453"></path></g></svg>