<svg viewBox="0 0 512 512" xmlns="http://www.w3.org/2000/svg"><g><path d="m233.574 508.028 1.334-188.407s25.198-56.758-3.133-111.919l-47.388-62.938a53.426 53.426 0 0 1-10.261-24.96l-7.91-58.374c-1.885-13.913-15.246-23.267-28.985-20.293-11.745 2.542-19.819 13.337-18.928 25.305l5.597 75.202 13.984 56.635c.254 1.031-1.126 1.629-1.704.739l-45.964-70.755a26.131 26.131 0 0 1-4.199-13.249L82.586 24.1C82.078 10.646 71.009 0 57.527 0 43.488 0 32.184 11.51 32.455 25.528l1.94 100.102a74.34 74.34 0 0 0 6.31 28.562l70.254 159.251a31.546 31.546 0 0 1 2.684 12.928l-.626 181.615a4 4 0 0 0 4 4.014h112.557a4 4 0 0 0 4-3.972z" fill="#ffcebf"></path><g fill="#ffb09e"><path d="m51.68 24.1 3.432 90.916a26.124 26.124 0 0 0 4.199 13.246l40.181 60.855c12.996 18.279 33.755 5.383 33.755 5.383l-43.03-66.238a26.124 26.124 0 0 1-4.199-13.246L82.586 24.1C82.078 10.646 71.009 0 57.527 0a24.98 24.98 0 0 0-15.452 5.325C47.69 9.719 51.392 16.454 51.68 24.1zM231.775 207.702l-47.384-62.933a53.446 53.446 0 0 1-10.265-24.971l-7.909-58.368c-1.885-13.913-15.246-23.267-28.985-20.294a24 24 0 0 0-10.338 5.069 23.94 23.94 0 0 1 8.418 15.224l7.909 58.368a53.446 53.446 0 0 0 10.265 24.971l47.384 62.933c28.331 55.161 3.133 111.92 3.133 111.92L202.64 512h26.934a4 4 0 0 0 4-3.972l1.334-188.407s25.198-56.758-3.133-111.919z" fill="#ffb09e"></path></g><path d="m278.426 508.028-1.334-188.407s-25.198-56.758 3.133-111.919l47.388-62.938a53.426 53.426 0 0 0 10.261-24.96l7.91-58.374c1.885-13.913 15.246-23.267 28.985-20.293 11.745 2.542 19.819 13.337 18.928 25.305l-5.597 75.202-13.985 56.637c-.254 1.03 1.125 1.628 1.703.738l45.965-70.756a26.131 26.131 0 0 0 4.199-13.249l3.431-90.913C429.922 10.646 440.991 0 454.473 0c14.039 0 25.343 11.51 25.072 25.528l-1.94 100.106a74.331 74.331 0 0 1-6.308 28.556l-70.255 159.254a31.546 31.546 0 0 0-2.684 12.928l.626 181.615a4 4 0 0 1-4 4.014H282.426a4.002 4.002 0 0 1-4-3.973z" fill="#ffcebf"></path><g fill="#ffb09e"><path d="M454.473 0a24.997 24.997 0 0 0-15.454 5.325c5.981 4.682 9.779 12.012 9.62 20.203l-1.94 100.106a74.334 74.334 0 0 1-6.31 28.559l-70.254 159.251a31.546 31.546 0 0 0-2.684 12.928l.64 185.628h26.892a4 4 0 0 0 4-4.014l-.626-181.615a31.546 31.546 0 0 1 2.684-12.928l70.254-159.251a74.334 74.334 0 0 0 6.31-28.559l1.94-100.106C479.816 11.51 468.512 0 454.473 0zM375.296 193.497l12.804-51.854 5.597-75.202c.891-11.969-7.184-22.763-18.928-25.305-7.599-1.645-15.077.487-20.567 5.069 5.79 4.839 9.183 12.27 8.59 20.236l-5.597 75.202-5.891 23.857c-6.458 24.346 23.992 27.997 23.992 27.997z" fill="#ffb09e"></path></g><path d="M409.497 419.35H102.503c-10.241 0-18.543-8.302-18.543-18.543s8.302-18.543 18.543-18.543h306.994c10.241 0 18.543 8.302 18.543 18.543s-8.302 18.543-18.543 18.543z" fill="#dd7f66"></path><path d="M409.497 382.263h-30.905c10.241 0 18.543 8.302 18.543 18.543s-8.302 18.543-18.543 18.543h30.905c10.241 0 18.543-8.302 18.543-18.543s-8.302-18.543-18.543-18.543z" fill="#d6694b"></path><path d="M409.497 483.274H102.503c-10.241 0-18.543-8.302-18.543-18.543s8.302-18.543 18.543-18.543h306.994c10.241 0 18.543 8.302 18.543 18.543s-8.302 18.543-18.543 18.543z" fill="#dd7f66"></path><path d="M409.497 446.187h-30.905c10.241 0 18.543 8.302 18.543 18.543s-8.302 18.543-18.543 18.543h30.905c10.241 0 18.543-8.302 18.543-18.543s-8.302-18.543-18.543-18.543z" fill="#d6694b"></path><g fill="#c4573a"><path d="m152.07 382.26-17.76 37.09h-16.64l17.77-37.09zM192.54 382.26l-17.76 37.09h-16.64l17.77-37.09zM233 382.26l-17.75 37.09h-16.64l17.77-37.09zM273.47 382.26l-17.75 37.09h-16.64l17.76-37.09zM313.94 382.26l-17.76 37.09h-16.63l17.76-37.09zM354.41 382.26l-17.76 37.09h-16.64l17.77-37.09zM394.88 382.26l-17.76 37.09h-16.64l17.77-37.09zM152.07 446.185l-17.76 37.09h-16.64l17.77-37.09zM192.54 446.185l-17.76 37.09h-16.64l17.77-37.09zM233 446.185l-17.75 37.09h-16.64l17.77-37.09zM273.47 446.185l-17.75 37.09h-16.64l17.76-37.09zM313.94 446.185l-17.76 37.09h-16.63l17.76-37.09zM354.41 446.185l-17.76 37.09h-16.64l17.77-37.09zM394.88 446.185l-17.76 37.09h-16.64l17.77-37.09z" fill="#c4573a"></path></g></g></svg>