<svg viewBox="0 0 512 512" xmlns="http://www.w3.org/2000/svg"><g><path clip-rule="evenodd" d="M442.239 502.472V274.983l-183.412-27.677-189.003 27.677v227.489z" fill="#ab695d" fill-rule="evenodd"></path><path clip-rule="evenodd" d="M69.824 313.697h330.434c1.7 0 3.079 1.378 3.079 3.079v185.697h38.901v-227.49l-183.412-27.677-189.002 27.677z" fill="#935b50" fill-rule="evenodd"></path><path clip-rule="evenodd" d="M137.464 96.896 122.44 35.093c-4.339-17.89-22.537-28.955-40.444-24.628-17.936 4.327-29.03 22.479-24.692 40.369l35.028 144.253 57.303 13.04z" fill="#fec165" fill-rule="evenodd"></path><path clip-rule="evenodd" d="m100.951 46.972 19.392 79.867c14.384-.465 17.995-13.011 17.121-29.943L122.44 35.093c-4.339-17.89-22.537-28.955-40.444-24.628-7.309 1.772-13.481 5.808-17.936 11.239 16.712-2.177 32.844 8.597 36.891 25.268z" fill="#fdb441" fill-rule="evenodd"></path><path clip-rule="evenodd" d="m243.453 98.173-.262 107.137H329.525l9.23-67.175-9.23-53.583c-.67-3.834-3.203-7.086-7.105-7.086h-71.862c-3.902 0-7.105 3.195-7.105 7.086z" fill="#f4eafa" fill-rule="evenodd"></path><path clip-rule="evenodd" d="M262.088 146.471c0-18.587-7.046-35.519-18.635-48.297-13.219-14.579-32.321-23.757-53.576-23.757-20.644 0-39.251 8.626-52.412 22.479a71.754 71.754 0 0 0-17.121 29.943c-1.776 6.244-2.708 12.837-2.708 19.633 0 18.732 7.163 35.78 18.926 48.617h106.629c11.734-12.838 18.897-29.886 18.897-48.618z" fill="#99e6fc" fill-rule="evenodd"></path><path clip-rule="evenodd" d="M213.025 101.687c11.589 12.779 18.635 29.739 18.635 48.326 0 17.048-5.94 32.731-15.869 45.074h27.4c11.734-12.837 18.897-29.885 18.897-48.617 0-18.587-7.046-35.519-18.635-48.297-13.219-14.579-32.321-23.757-53.576-23.757-8.211 0-16.073 1.365-23.411 3.892 8.269.784 16.16 2.991 23.411 6.331a72.661 72.661 0 0 1 23.148 17.048z" fill="#62dbfb" fill-rule="evenodd"></path><path clip-rule="evenodd" d="M307.249 84.552V205.31h22.275l8.823-64.706-8.823-56.052c-.611-3.863-3.203-7.086-7.105-7.086h-22.275c3.902 0 7.105 3.195 7.105 7.086z" fill="#d2cfe9" fill-rule="evenodd"></path><path clip-rule="evenodd" d="M329.524 84.552V205.31h86.043V56.381a7.08 7.08 0 0 0-7.076-7.086h-71.862c-3.931 0-7.105 3.166-7.105 7.086z" fill="#016a74" fill-rule="evenodd"></path><path clip-rule="evenodd" d="M354.828 106.944c0 9.758 7.92 17.687 17.733 17.687 9.784 0 17.733-7.929 17.733-17.687s-7.949-17.687-17.733-17.687c-9.813 0-17.733 7.929-17.733 17.687z" fill="#f4eafa" fill-rule="evenodd"></path><path clip-rule="evenodd" d="M398.708 56.381V205.31h16.859V56.381a7.08 7.08 0 0 0-7.076-7.086h-16.888c-3.902 0 7.105 3.195 7.105 7.086z" fill="#01525a" fill-rule="evenodd"></path><path clip-rule="evenodd" d="M352.673 367.396H159.39c-5.066 0-9.23 4.153-9.23 9.206v54.106c0 5.053 4.164 9.206 9.23 9.206h193.283c5.096 0 9.259-4.153 9.259-9.206v-54.106c0-5.053-4.164-9.206-9.259-9.206z" fill="#f4eafa" fill-rule="evenodd"></path><path clip-rule="evenodd" d="M335.26 376.603v54.106c0 5.053-4.164 9.206-9.23 9.206h26.643c5.096 0 9.259-4.153 9.259-9.206v-54.106c0-5.053-4.164-9.206-9.259-9.206H326.03c5.067-.001 9.23 4.152 9.23 9.206z" fill="#d2cfe9" fill-rule="evenodd"></path><path d="M182.179 74.417c0-4.251 3.446-1.092 7.697-1.092s7.697-3.159 7.697 1.092" fill="#000000"></path><g fill="#016a74"><path d="M189.876 66.72c-44.078 0-79.937 35.776-79.937 79.751 0 19.964 7.44 39.076 20.949 53.817a7.698 7.698 0 0 0 11.349-10.401 64.11 64.11 0 0 1-16.426-35.719h3.356a7.697 7.697 0 1 0 0-15.394h-3.356c3.526-29.351 26.93-52.68 56.369-56.186v3.359a7.697 7.697 0 1 0 15.394 0v-3.358c29.2 3.481 52.458 26.483 56.255 55.518h-3.679a7.697 7.697 0 1 0 0 15.394h3.843a64.219 64.219 0 0 1-16.483 36.394 7.696 7.696 0 0 0 5.679 12.89 7.676 7.676 0 0 0 5.683-2.504c13.486-14.753 20.914-33.863 20.914-53.81-.001-43.975-35.848-79.751-79.91-79.751z" fill="#016a74"></path><path d="M184.429 112.588a7.698 7.698 0 0 0-14.264 5.79l10.655 26.248-11.049 10.999a7.697 7.697 0 0 0 5.43 13.152 7.671 7.671 0 0 0 5.43-2.242l14.675-14.608a7.697 7.697 0 0 0 1.702-8.35z" fill="#016a74"></path></g><path d="M319.945 411.367H192.118a7.697 7.697 0 1 1 0-15.394h127.827a7.697 7.697 0 1 1 0 15.394z" fill="#01525a"></path><path d="M7.697 279.12a7.673 7.673 0 0 0 5.433-2.245l68.834-68.598a7.697 7.697 0 0 0-10.866-10.905L2.264 265.971a7.697 7.697 0 0 0 5.433 13.149zM504.303 279.1a7.673 7.673 0 0 1-5.433-2.245l-68.834-68.598a7.697 7.697 0 0 1 10.866-10.905l68.834 68.598a7.697 7.697 0 0 1-5.433 13.15z" fill="#f6a96c"></path><path clip-rule="evenodd" d="M442.833 197.399a3.079 3.079 0 0 0-2.982-2.312H72.211a3.079 3.079 0 0 0-2.982 2.312l-18.973 73.738a3.08 3.08 0 0 0 2.982 3.846h405.586a3.08 3.08 0 0 0 2.982-3.846z" fill="#fed2a4" fill-rule="evenodd"></path><path clip-rule="evenodd" d="m395.068 195.088 20.557 79.896h43.2a3.08 3.08 0 0 0 2.982-3.846L442.834 197.4a3.079 3.079 0 0 0-2.982-2.312h-24.285z" fill="#ffbd86" fill-rule="evenodd"></path></g></svg>