<svg viewBox="0 0 512 512" xmlns="http://www.w3.org/2000/svg"><g><path clip-rule="evenodd" d="M126.159.003h259.682c67.068 0 121.947 54.851 121.947 121.947v268.1c0 67.068-54.879 121.947-121.947 121.947H126.159c-67.068 0-121.946-54.879-121.946-121.947v-268.1C4.213 54.854 59.091.003 126.159.003z" fill="#4cd3aa" fill-rule="evenodd"></path><path d="M157.879 380.809h196.243a4.5 4.5 0 0 1 4.507 4.507v25.058a4.5 4.5 0 0 1-4.507 4.507H157.879a4.5 4.5 0 0 1-4.507-4.507v-25.058a4.5 4.5 0 0 1 4.507-4.507zm94.932-28.686-96.52-96.548a11.75 11.75 0 0 1-3.288-6.094 11.923 11.923 0 0 1 .708-6.832c.936-2.239 2.466-4.082 4.365-5.357a11.905 11.905 0 0 1 6.605-1.984h45.524v-133.71a4.5 4.5 0 0 1 4.507-4.507h82.573c2.466 0 4.507 2.013 4.507 4.507v133.71h45.524c2.409 0 4.677.709 6.604 1.984 1.899 1.276 3.43 3.118 4.365 5.357a11.915 11.915 0 0 1 .709 6.832 11.743 11.743 0 0 1-3.288 6.094l-96.52 96.548a4.514 4.514 0 0 1-6.375 0z" fill="#ffffff"></path></g></svg>