<svg fill-rule="evenodd" viewBox="0 0 1.707 1.707" xmlns="http://www.w3.org/2000/svg"><g><path d="M1.595 1.707H.112A.112.112 0 0 1 0 1.595V.112C0 .05.05 0 .112 0h1.483c.061 0 .112.05.112.112v1.483c0 .061-.05.112-.112.112z" fill="#5a5a5a"></path><path d="M.853 1.707H.112A.112.112 0 0 1 0 1.595V.112C0 .05.05 0 .112 0h.741v1.707z" fill="#535353"></path><path d="M1.492 1.573H.214a.081.081 0 0 1-.08-.08V.213c0-.044.036-.08.08-.08h1.278c.045 0 .081.036.081.08v1.278a.081.081 0 0 1-.08.081z" fill="#ffffff"></path><path d="M.853 1.573H.214a.081.081 0 0 1-.08-.08V.213c0-.044.036-.08.08-.08h.64v1.44z" fill="#e9e9ea"></path><path d="M.406 1.393A.093.093 0 0 1 .313 1.3V.93A.094.094 0 0 1 .5.93v.145L1.075.5H.929a.093.093 0 0 1 0-.187h.373c.05 0 .091.042.091.093v.371a.094.094 0 0 1-.186 0V.632l-.575.575h.145a.094.094 0 0 1 0 .186h-.37z" fill="#5a5a5a"></path><path d="M.406 1.393A.093.093 0 0 1 .313 1.3V.93A.094.094 0 0 1 .5.93v.145L.853.72v.264l-.22.222h.144c.032 0 .06.015.076.039v.108a.093.093 0 0 1-.076.04h-.37zM.853.461a.093.093 0 0 1 0-.109z" fill="#535353"></path></g></svg>