<svg id="Capa_1" enable-background="new 0 0 512 512" height="512" viewBox="0 0 512 512" width="512" xmlns="http://www.w3.org/2000/svg"><g><g><path d="m384.079 336.852h-5.869l-122.21 25.527-122.21-25.527h-5.868c-70.65 0-127.922 57.272-127.922 127.921v31.223c0 2.761 2.239 5 5 5h191.742l59.258-13.93 59.258 13.93h191.742c2.761 0 5-2.239 5-5v-31.223c0-70.649-57.272-127.921-127.921-127.921z" fill="#057096"/></g><path d="m384.079 336.852h-5.869l-23.599 8.903c47.404 18.727 80.941 64.956 80.941 119.018v31.223c0 2.761-2.239 5-5 5h76.448c2.761 0 5-2.239 5-5v-31.223c0-70.649-57.272-127.921-127.921-127.921z" fill="#055e7f"/><g><path d="m378.21 336.852h-244.421l62.953 164.144h118.516z" fill="#ecf4ff"/></g><path d="m378.21 336.852h-70.579c23.319 0 45.178 6.243 64.004 17.143z" fill="#ddeafb"/><g><path d="m385.783 227.183h-.793c-7.781 0-14.088-6.307-14.088-14.088v-26.894c0-18.329 14.859-33.187 33.187-33.187h.793c10.873 0 19.688 8.814 19.688 19.688v15.695c0 21.42-17.365 38.786-38.787 38.786z" fill="#ffccbf"/></g><g><path d="m126.181 227.183h.793c7.781 0 14.088-6.307 14.088-14.088v-26.894c0-18.329-14.859-33.187-33.187-33.187h-.793c-10.873 0-19.688 8.814-19.688 19.688v15.695c0 21.42 17.366 38.786 38.787 38.786z" fill="#ffccbf"/></g><g><path d="m166.848 279.154h178.304v92.485h-178.304z" fill="#ffccbf"/></g><g><path d="m314.933 279.154h30.219v92.485h-30.219z" fill="#feae9e"/></g><g><path d="m350.919 282.5-5.768 4.776-15.109 1.228s-13.007 21.925-15.108 23.412c-37.371 26.458-88.279 24.882-124.038-4.727l-29.815-24.689c-19.48-16.13-30.755-40.104-30.755-65.395v-101.385c0-57.833 46.883-104.716 104.716-104.716h41.916c57.833 0 104.716 46.883 104.716 104.716v46.009l-7.049 28.369s6.873 33.308 6.527 36.416c-2.425 21.752-13.188 41.872-30.233 55.986z" fill="#ffccbf"/></g><g><path d="m276.958 11.004h-32.688c57.833 0 104.716 46.883 104.716 104.716v101.384c0 25.291-11.275 49.266-30.755 65.395l-29.816 24.689c-14.417 11.937-31.298 19.303-48.759 22.127 28.284 4.575 58.095-2.791 81.447-22.127l29.816-24.689c19.48-16.13 30.755-40.104 30.755-65.395v-101.384c0-57.833-46.883-104.716-104.716-104.716z" fill="#feae9e"/></g><g><path d="m263.508 271.127h-15.016c-7.581 0-13.727-6.146-13.727-13.727v-13.99h42.469v13.99c0 7.581-6.145 13.727-13.726 13.727z" fill="#e28086"/></g><g><path d="m171.11 20.383-29.84 17.763c-12.179 7.25-19.642 20.377-19.642 34.551v46.317c0 5.354 6.156 8.369 10.385 5.085l30.076-23.35c19.119-14.843 27.691-39.562 21.866-63.056l-3.305-13.328c-1.039-4.192-5.829-6.192-9.54-3.982z" fill="#ecf4ff"/></g><g><path d="m183.955 37.693-3.305-13.328c-1.039-4.192-5.83-6.192-9.541-3.982l-10.639 6.333.119.478c5.825 23.493-2.747 48.212-21.866 63.056l-17.095 13.272v15.491c0 5.354 6.156 8.369 10.385 5.085l30.076-23.35c19.12-14.843 27.692-39.562 21.866-63.055z" fill="#ddeafb"/></g><g><path d="m340.89 20.383 29.84 17.763c12.179 7.25 19.642 20.377 19.642 34.551v46.317c0 5.354-6.156 8.369-10.385 5.085l-30.076-23.35c-19.119-14.843-27.691-39.562-21.866-63.056l3.305-13.328c1.039-4.192 5.829-6.192 9.54-3.982z" fill="#ecf4ff"/></g><g><path d="m370.73 38.146-29.84-17.763c-3.711-2.209-8.502-.21-9.541 3.982l-3.305 13.328c-.059.236-.106.473-.162.709l19.941 11.871c12.179 7.25 19.642 20.377 19.642 34.551v29.554l12.521 9.721c4.23 3.284 10.386.269 10.386-5.085v-46.317c0-14.174-7.463-27.301-19.642-34.551z" fill="#ddeafb"/></g><g><path d="m285.899 500.996-11.489-79.864h-36.789l-11.489 79.864z" fill="#057096"/></g><g><path d="m274.41 421.132h-21.341l11.489 79.864h21.341z" fill="#055e7f"/></g><g><path d="m264.886 370.612h-17.741c-5.998 0-11.54 3.2-14.538 8.394l-8.87 15.364c-2.999 5.194-2.999 11.593 0 16.787l8.87 15.364c2.999 5.194 8.541 8.394 14.538 8.394h17.741c5.998 0 11.539-3.2 14.538-8.394l8.87-15.364c2.999-5.194 2.999-11.593 0-16.787l-8.87-15.364c-2.999-5.194-8.541-8.394-14.538-8.394z" fill="#057096"/></g><path d="m288.294 394.37-8.87-15.364c-.82-1.42-1.836-2.685-2.993-3.782 2.858 5.149 2.818 11.425-.133 16.537l-8.87 15.364c-2.999 5.194-8.541 8.394-14.538 8.394h-17.741c-4.358 0-8.469-1.695-11.545-4.611.046.083.086.168.133.25l8.87 15.364c2.999 5.194 8.541 8.394 14.538 8.394h17.741c5.998 0 11.539-3.2 14.538-8.394l8.87-15.364c2.999-5.195 2.999-11.594 0-16.788z" fill="#055e7f"/><g><path d="m168.85 325.211 83.888 41.251c4.012 1.973 4.408 7.537.717 10.059l-55.007 37.581c-3.838 2.622-9.09 1.493-11.512-2.475l-43.289-70.93c-1.66-2.72-.714-6.276 2.078-7.812l13.555-7.455c2.963-1.629 6.535-1.711 9.57-.219z" fill="#ecf4ff"/></g><g><path d="m252.738 366.462-15.46-7.602-32.296 22.065c-3.838 2.622-9.09 1.493-11.512-2.474l-32.749-53.659c-.491.18-.976.384-1.442.64l-13.555 7.455c-2.792 1.536-3.738 5.091-2.078 7.812l43.289 70.93c2.422 3.968 7.673 5.097 11.512 2.474l55.007-37.581c3.692-2.523 3.295-8.087-.716-10.06z" fill="#ddeafb"/></g><g><path d="m343.15 325.211-83.888 41.251c-4.012 1.973-4.408 7.537-.717 10.059l55.007 37.581c3.838 2.622 9.09 1.493 11.512-2.475l37.957-62.194 1.736-8.312s4.552-2.979 4.338-4.256c-.272-1.626-1.257-3.119-2.821-3.979l-13.555-7.455c-2.962-1.63-6.534-1.712-9.569-.22z" fill="#ecf4ff"/></g><g><path d="m366.275 332.886-13.555-7.455c-.434-.239-.885-.434-1.342-.606l-32.849 53.823c-2.422 3.968-7.673 5.097-11.512 2.475l-32.464-22.179-15.292 7.52c-4.012 1.973-4.408 7.537-.717 10.059l55.007 37.581c3.838 2.622 9.09 1.493 11.512-2.474l43.289-70.93c1.661-2.723.716-6.279-2.077-7.814z" fill="#ddeafb"/></g><g><path d="m136.238 468.676h-59.517c-4.204 0-7.612-3.408-7.612-7.612s3.408-7.612 7.612-7.612h59.517c4.204 0 7.612 3.408 7.612 7.612s-3.408 7.612-7.612 7.612z" fill="#004c67"/></g><path d="m234.766 245.078 21.002 21.002c1.974 1.974 4.179 3.661 6.548 5.047h1.193c7.581 0 13.727-6.146 13.727-13.727v-13.99h-42.469v1.668z" fill="#dd636e"/><g><path d="m385.783 227.183h-.793c-7.781 0-14.088-6.307-14.088-14.088v-26.894c0-18.329 14.859-33.187 33.187-33.187h.793c10.873 0 19.688 8.814 19.688 19.688v15.695c0 21.42-17.365 38.786-38.787 38.786z" fill="#feae9e"/></g><g><circle cx="201.72" cy="157.145" fill="#04b59d" r="10.59"/></g><g><circle cx="310.28" cy="157.145" fill="#04b59d" r="10.59"/></g><g><path d="m257.758 245.544 16.197 16.197c4.535 4.535 10.686 7.083 17.1 7.083h29.721c1.523 0 2.689-1.359 2.464-2.866-4.885-32.754-33.125-57.879-67.239-57.879s-62.353 25.125-67.239 57.879c-.225 1.507.941 2.866 2.464 2.866h29.721c6.414 0 12.565-2.548 17.1-7.083l16.197-16.197c.969-.971 2.543-.971 3.514 0z" fill="#ecf4ff"/></g><g><g><path d="m323.239 265.957c-4.885-32.754-33.125-57.879-67.239-57.879-4.089 0-8.091.37-11.982 1.062 28.564 5.08 50.957 27.989 55.257 56.816.225 1.507-.941 2.866-2.464 2.866h23.964c1.523.001 2.689-1.358 2.464-2.865z" fill="#ddeafb"/></g></g><path d="m285.733 185.046-5.636-3.296c-2.244-1.313-3.624-3.718-3.624-6.318v-7.914c0-11.101-8.632-20.556-19.727-20.951-11.647-.414-21.22 8.905-21.22 20.46v8.404c0 2.6-1.379 5.005-3.624 6.318l-5.636 3.296c-3.44 2.012-5.554 5.697-5.554 9.682 0 6.195 5.022 11.216 11.216 11.216h6.925c1.662 0 3.262.639 4.458 1.792 3.289 3.171 7.757 5.126 12.688 5.126 4.93 0 9.398-1.955 12.688-5.126 1.197-1.154 2.796-1.792 4.458-1.792h6.925c6.195 0 11.216-5.022 11.216-11.216.001-3.984-2.113-7.669-5.553-9.681z" fill="#feae9e"/><g><path d="m285.733 185.046-5.636-3.296c-2.244-1.313-3.624-3.718-3.624-6.318v-7.914c0-11.101-8.632-20.556-19.727-20.951-3.125-.111-6.099.484-8.78 1.63 7.956 3.344 13.464 11.409 13.464 20.527v8.369c0 2.75 1.459 5.293 3.832 6.681l5.961 3.486c3.638 2.127 5.873 6.025 5.873 10.239 0 3.306-1.355 6.294-3.537 8.445h6.512c6.195 0 11.216-5.022 11.216-11.216 0-3.985-2.114-7.67-5.554-9.682z" fill="#f69480"/></g><path d="m383.622 149.532h-33.504c-3.574-18.74-20.073-32.954-39.839-32.954-17.471 0-32.397 11.102-38.096 26.621-4.84-2.751-10.38-4.257-16.183-4.257-5.801 0-11.342 1.508-16.183 4.26-5.698-15.52-20.625-26.623-38.097-26.623-19.766 0-36.265 14.213-39.839 32.954h-33.503c-4.204 0-7.612 3.408-7.612 7.612s3.408 7.612 7.612 7.612h33.503c3.574 18.74 20.074 32.954 39.839 32.954 21.053 0 38.407-16.123 40.375-36.668 3.307-4.33 8.386-6.875 13.905-6.875 5.521 0 10.598 2.545 13.905 6.875 1.968 20.546 19.321 36.668 40.375 36.668 19.766 0 36.265-14.213 39.839-32.954h33.504c4.205 0 7.613-3.408 7.613-7.612-.001-4.204-3.409-7.613-7.614-7.613zm-181.902 32.954c-13.973 0-25.341-11.368-25.341-25.341s11.368-25.341 25.341-25.341c13.974 0 25.342 11.368 25.342 25.341s-11.368 25.341-25.342 25.341zm108.559 0c-13.638 0-24.789-10.831-25.316-24.342-.002-.058-.001-.115-.004-.173-.009-.275-.021-.549-.021-.826 0-13.973 11.368-25.341 25.341-25.341s25.341 11.368 25.341 25.341-11.368 25.341-25.341 25.341z" fill="#055e7f"/></g></svg>