<svg viewBox="0 0 512 512" xmlns="http://www.w3.org/2000/svg"><g><g clip-rule="evenodd" fill-rule="evenodd"><path d="m338.421 361.992 92.86-53.613c8.701-5.024 18.654-6.034 27.678-3.617 9.02 2.417 17.134 8.271 22.162 16.981 5.021 8.697 6.032 18.643 3.617 27.658s-8.266 17.125-16.966 22.153l.005.008-128.68 74.293a36.25 36.25 0 0 1-13.465 4.554c-4.726.615-9.545.31-14.185-.929l-125.309-26.148-22.547 13.018a4.989 4.989 0 0 1-6.965-2.094l-62.16-107.665a4.978 4.978 0 0 1 1.836-6.797l38.365-22.15-.005-.008c6.714-3.876 13.683-6.29 20.875-7.237 7.193-.947 14.543-.421 22.016 1.582l133.842 35.862c9.68 2.593 17.427 8.919 22.11 17.023l.009-.005a36.638 36.638 0 0 1 4.907 17.131z" fill="#d9b7a9"></path><path d="M475.939 365.124a36.356 36.356 0 0 1-8.168 6.43l.005.008-128.68 74.293a36.25 36.25 0 0 1-13.465 4.554c-4.726.615-9.545.31-14.185-.929l-125.309-26.148-22.547 13.018a4.989 4.989 0 0 1-6.965-2.094L95.541 328.453l31.259-18.047-.005-.008c6.714-3.876 13.683-6.29 20.875-7.237 7.193-.947 14.542-.421 22.016 1.582l133.842 35.862c11.027 2.954 27.707 15.828 24.026 29.349-1.348 4.952.307 6.18 3 4.8l92.86-53.613c8.701-5.024 18.654-6.034 27.677-3.617 9.02 2.417 17.134 8.271 22.162 16.981 5.021 8.697 6.033 18.643 3.617 27.658a37.195 37.195 0 0 1-.931 2.961z" fill="#f1cbbc"></path><path d="M103.248 483.243 26.683 350.628a4.988 4.988 0 0 1 1.816-6.816l61.237-35.355a4.987 4.987 0 0 1 6.816 1.816l76.565 132.615a4.988 4.988 0 0 1-1.816 6.817l-61.237 35.355a4.989 4.989 0 0 1-6.816-1.817z" fill="#56a5e6"></path><path d="m103.248 483.243-71.389-123.65 54.277-31.337a4.987 4.987 0 0 1 6.816 1.816l71.389 123.65-54.277 31.337a4.987 4.987 0 0 1-6.816-1.816z" fill="#60b7ff"></path><path d="M222.668 379.62a4.993 4.993 0 0 1 2.578-9.648l69.847 18.715c7.044 1.887 14.216.727 20.096-2.663l-.005-.009c5.887-3.399 10.484-9.027 12.369-16.064a4.98 4.98 0 0 1 2.33-3.037 4.993 4.993 0 0 1 7.318 5.615c-2.598 9.695-8.922 17.444-17.017 22.118l-.005-.008-.014.008c-8.099 4.676-17.967 6.281-27.649 3.687z" fill="#d9b7a9"></path><path d="M313.064 26.268c52.682 0 95.392 42.71 95.392 95.392 0 23.561-8.623 45.896-24.011 63.246-6.807 7.675-10.093 16.356-10.093 26.634 0 11.774-9.615 21.389-21.39 21.389h-79.795c-11.764 0-21.39-9.625-21.39-21.389 0-10.277-3.286-18.959-10.093-26.634-33.4-37.658-31.834-94.935 3.929-130.698 17.261-17.262 41.109-27.94 67.451-27.94z" fill="#e6bd5c"></path><path d="M339.515 232.93h-66.349c-11.764 0-21.39-9.625-21.39-21.389 0-10.277-3.286-18.959-10.093-26.634-33.4-37.658-31.834-94.935 3.929-130.698 15.774-15.774 37.049-26.049 60.699-27.703 49.558 3.436 88.698 44.723 88.698 95.155 0 23.561-8.623 45.896-24.012 63.246-6.806 7.675-10.093 16.356-10.093 26.634.001 11.773-9.615 21.389-21.389 21.389z" fill="#ffd266"></path><path d="M273.01 255.042a4.98 4.98 0 0 1 0-9.96h80.107a4.98 4.98 0 1 1 0 9.96zm15.629 44.226a4.98 4.98 0 0 1 0-9.96h48.849a4.98 4.98 0 0 1 0 9.96zm-15.629-22.113a4.98 4.98 0 0 1 0-9.96h80.107a4.98 4.98 0 1 1 0 9.96z" fill="#4e434d"></path><path d="M273.01 255.042a4.98 4.98 0 0 1-4.634-6.808 4.983 4.983 0 0 1 1.272-.164h80.107a4.98 4.98 0 0 1 4.634 6.808 4.983 4.983 0 0 1-1.272.164zm10.996 37.418a4.983 4.983 0 0 1 1.272-.164h48.849a4.98 4.98 0 0 1 4.634 6.808 4.983 4.983 0 0 1-1.272.164H288.64a4.98 4.98 0 0 1-4.634-6.808zm-15.63-22.113a4.983 4.983 0 0 1 1.272-.164h80.107a4.98 4.98 0 0 1 4.634 6.808 4.983 4.983 0 0 1-1.272.164H273.01a4.98 4.98 0 0 1-4.634-6.808z" fill="#615260"></path><path d="M261.864 115.324a4.978 4.978 0 0 1-9.882-1.206 61.48 61.48 0 0 1 14.167-32.281 61.49 61.49 0 0 1 29.562-19.216 4.969 4.969 0 0 1 2.801 9.532 51.53 51.53 0 0 0-24.776 16.104 51.535 51.535 0 0 0-11.872 27.067z" fill="#e6bd5c"></path></g></g></svg>