<svg class="" viewBox="0 0 512 512" xmlns="http://www.w3.org/2000/svg"><g><path d="M39.545 362.042V478.7h83.252V362.042c0-5.69-4.612-10.302-10.302-10.302H49.847c-5.69 0-10.302 4.612-10.302 10.302z" fill="#f6e266"></path><path class="" d="M156.098 312.09v166.609h83.252V312.09c0-5.69-4.612-10.302-10.302-10.302H166.4c-5.69.001-10.302 4.613-10.302 10.302z" fill="#e49542"></path><path class="" d="M272.65 249.651v229.048h83.252V249.651c0-5.69-4.612-10.302-10.302-10.302h-62.648c-5.689.001-10.302 4.613-10.302 10.302z" fill="#9dc6fb"></path><path d="M389.203 208.025v270.674h83.252V208.025c0-5.69-4.612-10.302-10.302-10.302h-62.648c-5.689.001-10.302 4.613-10.302 10.302z" fill="#c8ea73"></path><path d="M272.65 368.144v110.555h83.252V327.705c-25.572 14.577-53.471 28.197-83.252 40.439z" fill="#80b4fb"></path><path class="" d="M220.515 387.482a799.722 799.722 0 0 1-64.417 18.47v72.747h83.252v-97.734a819.298 819.298 0 0 1-18.835 6.517z" fill="#e28424"></path><path d="M39.545 424.098v54.601h83.252v-65.491c-28.8 5.585-56.722 9.193-83.252 10.89z" fill="#f1d333"></path><path class="" d="M389.203 307.327v171.372h83.252V238.126c-21.736 23.821-49.92 47.292-83.252 69.201z" fill="#b7e445"></path><path class="" d="M0 501.698v-12.697c0-5.69 4.612-10.302 10.302-10.302h491.396c5.69 0 10.302 4.612 10.302 10.302v12.697c0 5.69-4.612 10.302-10.302 10.302H10.302C4.612 512 0 507.388 0 501.698z" fill="#4073c8"></path><path d="M455.805 0h-72.95c-5.69 0-10.302 4.612-10.302 10.302v12.697c0 5.69 4.612 10.302 10.302 10.302h32.752l-87.414 87.415h-69.071c-4.667 0-9.12 1.959-12.274 5.399l-98.075 106.991H48.806c-5.69 0-10.302 4.612-10.302 10.302v12.697c0 5.69 4.612 10.302 10.302 10.302h107.292c4.667 0 9.12-1.959 12.274-5.399l98.075-106.991h68.643a16.65 16.65 0 0 0 11.774-4.877l92.291-92.291v32.752c0 5.69 4.612 10.302 10.302 10.302h12.697c5.69 0 10.302-4.612 10.302-10.302V16.65C472.455 7.455 465.001 0 455.805 0z" fill="#dd5790"></path></g></svg>