<svg id="Layer_1" viewBox="0 0 512 512" xmlns="http://www.w3.org/2000/svg" data-name="Layer 1"><path d="m128.018 177.719h14v153.562h-14z" fill="#7986bf"/><rect fill="#cfe8ff" height="185.469" rx="19.4" width="248.145" x="10.945" y="11"/><rect fill="#e3f1ff" height="185.469" rx="19.4" width="232.394" x="10.945" y="11"/><rect fill="#fdb0a0" height="185.469" rx="19.4" width="248.145" x="10.945" y="315.531"/><rect fill="#ffcec0" height="185.469" rx="19.4" width="232.394" x="10.945" y="315.531"/><path d="m375.334 242.978h37.773c17.573 5.776 51.802 11.925 67.499 21.129 12.976 7.608 17.6 15.375 19.189 36.045 2.508 45.533.852 87.063-1.338 131.404h-198.743v-102.593c0-7.658-5.946-13.968-13.59-14.426-79.232-4.748-114.048-50.673-138.765-102.436-12.174-25.495 27.192-45.294 40.824-20.996 29.96 53.401 66.403 79.145 149.378 51.874h37.772z" fill="#2a92fa" fill-rule="evenodd"/><path d="m313.399 249.576c9.131-2.336 17.754-4.492 24.162-6.598h75.546c6.408 2.106 15.031 4.263 24.162 6.598l-4.171 5.719c-13.693 18.777-34.139 31.165-57.764 31.165s-44.071-12.388-57.764-31.165z" fill="#0062d9" fill-rule="evenodd"/><path d="m332.162 244.654c9.454-5.168 18.125-15.253 18.125-34.55v-3.827h50.094v3.827c0 19.297 8.671 29.382 18.124 34.55-10.402 14.264-25.555 23.746-43.171 23.746s-32.77-9.483-43.172-23.746z" fill="#f29988" fill-rule="evenodd"/><path d="m400.381 206.277v3.827c0 19.297 8.671 29.382 18.124 34.55-10.402 14.264-25.555 23.746-43.171 23.746-11.197 0-21.399-3.832-30.019-10.287 8.612-6.531 17.975-18.904 17.975-35.277v-16.559z" fill="#fdb0a0" fill-rule="evenodd"/><path d="m375.334 228.585c-67.362-4.369-85.152-138.005 0-138.005s67.362 133.636 0 138.005z" fill="#fdb0a0" fill-rule="evenodd"/><path d="m375.334 228.584c-2.798-.181-5.502-.606-8.125-1.214-34.74-29.313-42.765-105.975-7.281-135.133 4.708-1.071 9.831-1.658 15.406-1.658 85.152 0 67.362 133.637 0 138.005z" fill="#ffcec0" fill-rule="evenodd"/><path d="m412.339 94.289c7.688-3.196 20.474.703 24.747 17.99 2.591 10.478 1.461 36.523-5.015 50.589-7.023-7.544-8.515-15.937-13.162-22.978-3.629-5.499-10.034-3.9-19.642-.566-26.125 9.068-53-6.001-66.055-3.654-10.597 1.904-12.885 17.904-14.615 27.198-10.992-12.26-12.121-46.433-3.662-73.616 44.069 6.801 79.945-26.573 97.404 5.037z" fill="#1a1a1a" fill-rule="evenodd"/><path d="m366.304 268.4h18.061v163.155h-18.061z" fill="#0062d9"/><g fill-rule="evenodd"><path d="m441.923 431.555v-112.925c0-4.987 4.043-9.03 9.03-9.03s9.03 4.043 9.03 9.03v112.925z" fill="#0062d9"/><path d="m49.579 146.425c-1.933-3.337-.794-7.61 2.543-9.543s7.61-.794 9.543 2.543l2.848 4.933 21.312-21.312c2.733-2.733 7.165-2.733 9.898 0s2.733 7.165 0 9.898l-27.75 27.75-.01-.01c-.42.419-.901.792-1.439 1.104-3.337 1.933-7.61.794-9.543-2.543z" fill="#2dd62d"/><path d="m115.447 86.411c-3.866 0-7-3.134-7-7s3.134-7 7-7h98.421c3.866 0 7 3.134 7 7s-3.134 7-7 7zm0-27.625c-3.866 0-7-3.134-7-7s3.134-7 7-7h99.076c3.866 0 7 3.134 7 7s-3.134 7-7 7z" fill="#7986bf"/><path d="m115.447 162.682c-3.866 0-7-3.134-7-7s3.134-7 7-7h98.42c3.866 0 7 3.134 7 7s-3.134 7-7 7zm0-27.625c-3.866 0-7-3.134-7-7s3.134-7 7-7h98.42c3.866 0 7 3.134 7 7s-3.134 7-7 7z" fill="#7986bf"/><path d="m49.579 70.154c-1.933-3.337-.794-7.61 2.543-9.543s7.61-.794 9.543 2.543l2.848 4.932 21.312-21.312c2.733-2.733 7.165-2.733 9.898 0s2.733 7.165 0 9.898l-27.75 27.75-.01-.01c-.42.419-.901.792-1.439 1.104-3.337 1.933-7.61.794-9.543-2.543z" fill="#2dd62d"/><path d="m113.542 390.942c-3.866 0-7-3.134-7-7s3.134-7 7-7h98.421c3.866 0 7 3.134 7 7s-3.134 7-7 7zm0-27.625c-3.866 0-7-3.134-7-7s3.134-7 7-7h99.076c3.866 0 7 3.134 7 7s-3.134 7-7 7z" fill="#c86f5c"/><path d="m113.542 467.214c-3.866 0-7-3.134-7-7s3.134-7 7-7h98.42c3.866 0 7 3.134 7 7s-3.134 7-7 7zm0-27.625c-3.866 0-7-3.134-7-7s3.134-7 7-7h98.42c3.866 0 7 3.134 7 7s-3.134 7-7 7z" fill="#c86f5c"/><path d="m62.366 388.954c-2.733 2.733-7.165 2.733-9.898 0s-2.733-7.165 0-9.898l8.926-8.926-8.926-8.926c-2.733-2.733-2.733-7.165 0-9.898s7.165-2.733 9.898 0l8.926 8.926 8.926-8.926c2.733-2.733 7.165-2.733 9.898 0s2.733 7.165 0 9.898l-8.926 8.926 8.926 8.926c2.733 2.733 2.733 7.165 0 9.898s-7.165 2.733-9.898 0l-8.926-8.926z" fill="#ff4d4d"/><path d="m62.366 465.225c-2.733 2.733-7.165 2.733-9.898 0s-2.733-7.165 0-9.898l8.926-8.926-8.926-8.926c-2.733-2.733-2.733-7.165 0-9.898s7.165-2.733 9.898 0l8.926 8.926 8.926-8.926c2.733-2.733 7.165-2.733 9.898 0s2.733 7.165 0 9.898l-8.926 8.926 8.926 8.926c2.733 2.733 2.733 7.165 0 9.898s-7.165 2.733-9.898 0l-8.926-8.926z" fill="#ff4d4d"/></g></svg>