<svg viewBox="0 0 512 512" xmlns="http://www.w3.org/2000/svg"><g><path d="M485.668 371.974c-11.569-17.02-34.746-21.438-51.766-9.869l-76.409 51.933-13.067 12.831-19.113 9.05-.012-.001c5.601-3.896 9.718-9.912 11.045-17.128 2.654-14.43-6.802-28.307-21.202-31.115l-148.074-28.88a82.657 82.657 0 0 0-65.421 15.005l-76.477 57.363a3.106 3.106 0 0 0-1.242 2.485v73.175A5.177 5.177 0 0 0 29.107 512H81.78c.623 0 1.231-.187 1.746-.537l19.362-13.162a68.954 68.954 0 0 1 43.966-11.732l160.798 12.161a41.139 41.139 0 0 0 26.502-6.979l147.838-100.494c6.34-4.309 7.986-12.943 3.676-19.283z" fill="#e0925c"></path><path d="M357.493 414.038a46.71 46.71 0 0 1-.777 8.501c-4.214 22.904-23.97 38.901-46.553 38.901-2.33 0-4.68-.176-7.062-.518l-39.139-5.767-60.823-8.96c-5.655-.833-9.564-6.092-8.732-11.747.832-5.656 6.092-9.567 11.748-8.734l99.969 14.717c1.305.197 2.589.29 3.872.29h.062c5.581 0 10.872-1.75 15.252-4.804a.174.174 0 0 0 .072-.052z" fill="#c97f47"></path><path d="m145.086 65.956-20.657 11.183c-1.519.799-3.295-.491-3.005-2.183l3.882-22.233c.058-.336-.995-1.164-1.098-1.479s-.28-.605-.524-.843l-18.362-17.899c-1.229-1.198-.551-3.285 1.148-3.532l25.376-3.687a2.07 2.07 0 0 0 1.559-1.133l11.348-22.995c.76-1.539 2.954-1.539 3.714 0l11.348 22.995a2.073 2.073 0 0 0 1.559 1.133l1.552.225 21.676 3.953c1.699.247 2.377 2.334 1.148 3.532l-18.042 16.805a2.072 2.072 0 0 0-.596 1.833l4.532 23.608c.29 1.692-1.485 2.982-3.005 2.183l-21.626-11.465a2.068 2.068 0 0 0-1.927-.001z" fill="#ffef57"></path><path d="M169.532 50.395a2.082 2.082 0 0 0-.59 1.833l4.338 25.275c.29 1.698-1.491 2.982-3.013 2.185L147.57 67.759a2.046 2.046 0 0 0-1.926 0l-22.697 11.928c-1.522.797-3.293-.487-3.003-2.185l4.338-25.275a2.032 2.032 0 0 0-.083-1.025c1.211.124 2.444.186 3.686.186 16.494 0 30.442-10.893 35.039-25.875l23.825 3.458c1.698.248 2.381 2.33 1.149 3.531z" fill="#f9db48"></path><path d="m454.213 79.836-20.325 1.806H242.906c-6.939 0-12.565-5.626-12.565-12.565v-35.37c0-6.939 5.626-12.565 12.565-12.565h191.127l19.003 2.13c6.939 0 12.565 5.626 12.565 12.565l1.176 31.435c.001 6.939-5.625 12.564-12.564 12.564z" fill="#b2e5fb"></path><path d="M468.491 33.704v35.37c0 6.937-5.633 12.57-12.57 12.57h-24.85c6.937 0 12.57-5.633 12.57-12.57v-35.37c0-6.937-5.633-12.56-12.57-12.56h24.85c6.937 0 12.57 5.623 12.57 12.56z" fill="#90d8f9"></path><path d="m145.086 177.736-20.657 11.183c-1.519.799-3.295-.491-3.005-2.183l3.882-22.233c.058-.336-.995-1.164-1.098-1.479s-.28-.605-.524-.843l-18.362-17.899c-1.229-1.198-.551-3.285 1.148-3.532l25.376-3.687a2.07 2.07 0 0 0 1.559-1.133l11.348-22.995c.76-1.539 2.954-1.539 3.714 0l11.348 22.995a2.073 2.073 0 0 0 1.559 1.133l1.552.225 21.676 3.953c1.699.247 2.377 2.334 1.148 3.532l-18.042 16.805a2.072 2.072 0 0 0-.596 1.833l4.532 23.608c.29 1.692-1.485 2.982-3.005 2.183l-21.626-11.465a2.063 2.063 0 0 0-1.927-.001z" fill="#ffef57"></path><path d="M169.532 162.175a2.082 2.082 0 0 0-.59 1.833l4.338 25.275c.29 1.698-1.491 2.982-3.013 2.185L147.57 179.54a2.046 2.046 0 0 0-1.926 0l-22.697 11.928c-1.522.797-3.293-.487-3.003-2.185l4.338-25.275a2.032 2.032 0 0 0-.083-1.025c1.211.124 2.444.186 3.686.186 16.494 0 30.442-10.893 35.039-25.876l23.825 3.458c1.698.249 2.381 2.33 1.149 3.531z" fill="#f9db48"></path><path d="m454.213 191.616-20.325 1.806H242.906c-6.939 0-12.565-5.626-12.565-12.565v-35.371c0-6.939 5.626-12.565 12.565-12.565h191.127l19.003 2.13c6.939 0 12.565 5.626 12.565 12.565l1.176 31.435c.001 6.94-5.625 12.565-12.564 12.565z" fill="#b2e5fb"></path><path d="M468.491 145.484v35.37c0 6.937-5.633 12.57-12.57 12.57h-24.85c6.937 0 12.57-5.633 12.57-12.57v-35.37c0-6.937-5.633-12.56-12.57-12.56h24.85c6.937 0 12.57 5.622 12.57 12.56z" fill="#90d8f9"></path><path d="m145.086 289.515-20.657 11.183c-1.519.799-3.295-.491-3.005-2.183l3.882-22.233c.058-.336-.995-1.164-1.098-1.479a2.067 2.067 0 0 0-.524-.843l-18.362-17.899c-1.229-1.198-.551-3.285 1.148-3.532l25.376-3.687a2.07 2.07 0 0 0 1.559-1.133l11.348-22.995c.76-1.539 2.954-1.539 3.714 0l11.348 22.995a2.073 2.073 0 0 0 1.559 1.133l1.552.225 21.676 3.953c1.699.247 2.377 2.334 1.148 3.532l-18.042 16.805a2.072 2.072 0 0 0-.596 1.833l4.532 23.608c.29 1.692-1.485 2.982-3.005 2.183l-21.626-11.465a2.068 2.068 0 0 0-1.927-.001z" fill="#ffef57"></path><path d="M169.532 273.955a2.082 2.082 0 0 0-.59 1.833l4.338 25.275c.29 1.698-1.491 2.982-3.013 2.185L147.57 291.32a2.046 2.046 0 0 0-1.926 0l-22.697 11.928c-1.522.797-3.293-.487-3.003-2.185l4.338-25.275a2.032 2.032 0 0 0-.083-1.025c1.211.124 2.444.186 3.686.186 16.494 0 30.442-10.893 35.039-25.876l23.825 3.458c1.698.248 2.381 2.33 1.149 3.531z" fill="#f9db48"></path><path d="m454.213 303.396-20.325 1.806H242.906c-6.939 0-12.565-5.626-12.565-12.565v-35.371c0-6.939 5.626-12.565 12.565-12.565h191.127l19.003 2.13c6.939 0 12.565 5.626 12.565 12.565l1.176 31.435c.001 6.939-5.625 12.565-12.564 12.565z" fill="#b2e5fb"></path><path d="M468.491 257.264v35.37c0 6.937-5.633 12.57-12.57 12.57h-24.85c6.937 0 12.57-5.633 12.57-12.57v-35.37c0-6.937-5.633-12.56-12.57-12.56h24.85c6.937 0 12.57 5.622 12.57 12.56z" fill="#90d8f9"></path></g></svg>