<svg viewBox="0 0 512 512" xmlns="http://www.w3.org/2000/svg"><g><path d="M459.056 342.106 434.725 67.419a6 6 0 0 0-4.188-5.198L257.774 8.273a5.995 5.995 0 0 0-3.577 0L81.435 62.222a6 6 0 0 0-4.188 5.198L52.945 342.106a5.997 5.997 0 0 0 .884 3.702c36.343 58.327 112.865 118.741 199.703 157.667a5.997 5.997 0 0 0 4.908 0c86.825-38.92 163.357-99.334 199.73-157.665.689-1.106 1-2.406.885-3.704z" fill="#d9d9ed"></path><path d="M386.616 106.109a5.999 5.999 0 0 0-4.188-5.198L257.775 61.99a5.992 5.992 0 0 0-3.576 0l-124.653 38.921a5.999 5.999 0 0 0-4.188 5.198l-19.675 222.278a6.005 6.005 0 0 0 1.167 4.117c43.147 57.838 116.774 99.007 146.427 114.023a6.002 6.002 0 0 0 5.42 0c29.653-15.016 103.279-56.186 146.426-114.023a5.998 5.998 0 0 0 1.167-4.117z" fill="#bf7d5a"></path><path d="M382.427 100.91 257.774 61.989a6.028 6.028 0 0 0-1.774-.272v385.455a5.995 5.995 0 0 0 2.696-.646c29.653-15.016 103.279-56.186 146.426-114.023a5.998 5.998 0 0 0 1.167-4.117l-19.674-222.278a5.999 5.999 0 0 0-4.188-5.198z" fill="#9b6649"></path><path d="M459.056 342.106 434.725 67.419a6 6 0 0 0-4.188-5.198L257.774 8.273A6.033 6.033 0 0 0 256 8.001v53.717a5.967 5.967 0 0 1 1.774.272l124.653 38.921a5.999 5.999 0 0 1 4.188 5.198l19.674 222.278a6.005 6.005 0 0 1-1.167 4.117c-43.147 57.837-116.773 99.007-146.426 114.023a5.998 5.998 0 0 1-2.696.646V504a5.996 5.996 0 0 0 2.44-.524c86.825-38.92 163.357-99.334 199.73-157.665.689-1.106 1-2.406.885-3.704z" fill="#aaa8b8"></path></g></svg>