<svg viewBox="0 0 512 512" xmlns="http://www.w3.org/2000/svg"><g><path d="M471.926 0H66.348c-22.04 0-40.075 18.031-40.075 40.074V272.18c0 22.039 18.032 40.074 40.075 40.074h405.578c22.039 0 40.074-18.035 40.074-40.074V40.074C512 18.035 493.969 0 471.926 0zm0 0" fill="#9ad14b"></path><path d="M479.625 210.934V101.32a5.147 5.147 0 0 0-5.145-5.148h-15.34c-23.824 0-43.312-19.488-43.312-43.313V37.523a5.148 5.148 0 0 0-5.148-5.148H127.594a5.148 5.148 0 0 0-5.149 5.148V52.86c0 23.825-19.492 43.313-43.312 43.313h-15.34a5.145 5.145 0 0 0-5.145 5.148v109.614c0 2.68 2.188 5.148 5.145 5.148h15.34c23.82 0 43.312 19.488 43.312 43.313v15.335a5.148 5.148 0 0 0 5.149 5.149H410.68a5.148 5.148 0 0 0 5.148-5.149v-15.335c0-23.825 19.488-43.313 43.313-43.313h15.336c2.96 0 5.148-2.469 5.148-5.148zm0 0" fill="#76ab29"></path><path d="M350.383 156.125c0-44.86-36.363-81.246-81.246-81.246-44.871 0-81.25 36.371-81.25 81.246 0 44.684 36.222 81.148 81.074 81.242.059 0 .117.004.176.004.054 0 .117-.004.172-.004 44.418-.094 81.074-36.082 81.074-81.242zm0 0" fill="#9ad14b"></path><path d="M46.879 272.18V40.074C46.879 18.031 64.91 0 86.953 0H66.348c-22.04 0-40.075 18.035-40.075 40.074V272.18c0 22.039 18.036 40.074 40.075 40.074h20.605c-22.043 0-40.074-18.035-40.074-40.074zm0 0" fill="#7fbb37"></path><path d="M143.05 274.73v-15.34c0-23.82-19.491-43.312-43.312-43.312h-15.34c-2.957 0-5.144-2.465-5.144-5.144V101.32a5.147 5.147 0 0 1 5.144-5.148h15.34c23.82 0 43.313-19.488 43.313-43.313V37.523a5.148 5.148 0 0 1 5.148-5.148h-20.605a5.148 5.148 0 0 0-5.149 5.148V52.86c0 23.825-19.492 43.313-43.312 43.313h-15.34a5.145 5.145 0 0 0-5.145 5.148v109.614c0 2.68 2.188 5.148 5.145 5.148h15.34c23.82 0 43.312 19.488 43.312 43.313v15.34a5.15 5.15 0 0 0 5.149 5.148h20.605a5.154 5.154 0 0 1-5.148-5.153zm0 0" fill="#6c9b1b"></path><path d="M208.492 156.129c0-41.383 30.946-75.512 70.95-80.578a82.313 82.313 0 0 0-10.305-.672c-44.867 0-81.246 36.375-81.246 81.25 0 44.684 36.218 81.144 81.07 81.242.059 0 .117.004.176.004.058 0 .117-.004.176-.004a81.692 81.692 0 0 0 10.117-.676c-40.047-5.082-70.938-39.308-70.938-80.566zm0 0" fill="#7fbb37"></path><path d="M297.754 188.297h-34.402c3.07-5.707 5.148-12.574 4.691-20.156h5.117a7.726 7.726 0 0 0 7.727-7.727 7.726 7.726 0 0 0-7.727-7.726h-9.601c-3.676-6.993-8.582-17.504-3.067-26.915 6.516-11.12 24.817-12.082 29.813 5.418a7.721 7.721 0 0 0 9.457 5.41 7.726 7.726 0 0 0 5.453-9.468c-2.324-8.625-11.656-24.934-30.371-24.934-21.5 0-40.457 21.406-28.461 50.489h-2.559a7.724 7.724 0 0 0-7.726 7.726 7.726 7.726 0 0 0 7.726 7.727h8.684c1.074 9.66-5.02 16.976-8.293 20.152h-1.274a7.726 7.726 0 1 0 0 15.453h54.809a7.724 7.724 0 0 0 7.727-7.726 7.722 7.722 0 0 0-7.723-7.723zm0 0" fill="#76ab29"></path><path d="M258.691 260.863c0 71.438-57.91 129.348-129.343 129.348C57.91 390.21 0 332.3 0 260.863 0 189.43 57.91 131.52 129.348 131.52c71.433 0 129.343 57.91 129.343 129.343zm0 0" fill="#f3a334"></path><path d="M224.969 260.863c0 52.813-42.813 95.621-95.621 95.621-52.813 0-95.625-42.808-95.625-95.62 0-52.81 42.812-95.622 95.625-95.622 52.808 0 95.62 42.813 95.62 95.621zm0 0" fill="#ffe183"></path><path d="M20.605 260.863c0-67.968 52.426-123.687 119.043-128.937-3.398-.27-6.835-.406-10.3-.406C57.91 131.52 0 189.43 0 260.863c0 71.438 57.91 129.348 129.348 129.348 3.464 0 6.902-.14 10.3-.41-66.617-5.25-119.043-60.969-119.043-128.938zm0 0" fill="#e87e04"></path><path d="M54.328 260.863c0-49.328 37.356-89.93 85.32-95.066a96.509 96.509 0 0 0-10.3-.555c-52.813 0-95.625 42.813-95.625 95.621 0 52.813 42.812 95.621 95.625 95.621 3.48 0 6.918-.187 10.3-.55-47.964-5.141-85.32-45.743-85.32-95.07zm0 0" fill="#ffc964"></path><path d="M160.648 298.105h-40.062c3.906-6.742 6.605-15.097 5.805-24.39h6.738a7.726 7.726 0 1 0 0-15.453h-11.3a47.008 47.008 0 0 0-.888-1.692c-13.59-24.246-.039-39.351 14.07-39.351 13.544 0 17.985 15.117 18.184 15.82a7.731 7.731 0 0 0 9.461 5.414 7.726 7.726 0 0 0 5.453-9.469c-2.535-9.418-12.714-27.218-33.097-27.218-24.063 0-44.602 24.277-30.477 56.496h-4.234a7.724 7.724 0 0 0-7.727 7.726 7.726 7.726 0 0 0 7.727 7.727h10.57c1.367 9.219-3.289 17.992-9.82 24.39h-1.735a7.724 7.724 0 0 0-7.726 7.727 7.726 7.726 0 0 0 7.726 7.727h61.332a7.726 7.726 0 1 0 0-15.453zm0 0" fill="#f3a334"></path></g></svg>