<svg id="Capa_1" enable-background="new 0 0 512 512" height="512" viewBox="0 0 512 512" width="512" xmlns="http://www.w3.org/2000/svg"><path d="m286.738 479.474v12.793c0 10.898 8.835 19.733 19.733 19.733s19.733-8.835 19.733-19.733v-12.793z" fill="#bc7c63"/><path d="m306.471 265.982c-6.704 0-14.322-.497-20.763-1.444v18.824 59.234c-.036 1.625 1.248 3.147 3.076 3.147h37.42v-81.205c-6.441.946-13.028 1.444-19.733 1.444z" fill="#bc7c63"/><path d="m307.837 492.267v-12.793h-21.098v12.793c0 10.898 8.835 19.733 19.733 19.733 3.884 0 7.496-1.138 10.549-3.076-5.514-3.5-9.184-9.643-9.184-16.657z" fill="#ab6b51"/><path d="m306.471 265.982c-6.704 0-14.322-.497-20.763-1.444v18.823 59.234c-.036 1.626 1.247 3.147 3.076 3.147h19.052v-79.786c-.455.005-.907.026-1.365.026z" fill="#ab6b51"/><path d="m358.991 342.652h-69.177c-1.829 0-3.112-1.522-3.076-3.147v-56.144c0-6.776-5.477-12.296-12.254-12.319-.022 0-.044 0-.065 0-6.813 0-13.004 3.94-15.886 10.113-6.513 13.947-4.54 29.318-24.97 49.65-10.077 10.029-23.81 15.519-38.027 15.519h-18.581v120.687h11.786c10.071 0 19.986 2.495 28.857 7.261 8.872 4.767 18.786 7.261 28.857 7.261h88.819c9.588 0 17.36-7.772 17.36-17.36 0-9.588-7.772-17.36-17.36-17.36h7.905c9.588 0 17.36-7.772 17.36-17.36 0-9.588-7.772-17.36-17.36-17.36h7.905c9.588 0 17.36-7.772 17.36-17.36 0-9.588-7.772-17.36-17.36-17.36h7.905c9.588 0 17.36-7.772 17.36-17.36.002-9.589-7.77-17.361-17.358-17.361z" fill="#fed2a4"/><path d="m206.833 361.539c0-8.046 3.951-15.165 10.014-19.537-6.678 2.829-13.926 4.322-21.31 4.322h-18.581v120.687h11.786c6.157 0 12.254.943 18.091 2.758z" fill="#ffbd86"/><circle cx="306.471" cy="134.536" fill="#43cb8e" r="134.536"/><path d="m201.124 134.536c0-69.37 52.505-126.47 119.942-133.746-4.795-.517-9.663-.79-14.595-.79-74.302 0-134.536 60.234-134.536 134.536s60.234 134.536 134.536 134.536c4.932 0 9.8-.273 14.594-.79-67.436-7.276-119.941-64.376-119.941-133.746z" fill="#00ba66"/><circle cx="306.471" cy="134.536" fill="#00ba66" r="107.879"/><path d="m227.781 134.536c0-54.63 40.608-99.768 93.285-106.893-4.774-.646-9.644-.986-14.594-.986-59.58 0-107.879 48.299-107.879 107.879s48.299 107.879 107.879 107.879c4.95 0 9.821-.341 14.594-.986-52.677-7.125-93.285-52.264-93.285-106.893z" fill="#00a855"/><g fill="#ffbd86"><path d="m335.276 446.813h7.905.005-47.626c-4.267 0-7.726 3.459-7.726 7.726s3.459 7.726 7.726 7.726h56.966c-.951-8.688-8.308-15.452-17.25-15.452z"/><path d="m351.089 412.093h-55.529c-4.267 0-7.726 3.459-7.726 7.726s3.459 7.726 7.726 7.726h64.871c-.951-8.689-8.308-15.452-17.25-15.452h7.905z"/><path d="m295.56 392.825h72.777c-.95-8.689-8.308-15.453-17.25-15.453h-55.527c-4.267 0-7.726 3.459-7.726 7.726-.001 4.268 3.459 7.727 7.726 7.727z"/><path d="m358.991 342.652h-66.866c-2.541 1.565-4.292 4.696-4.292 7.727 0 4.267 3.459 7.726 7.726 7.726h80.682c-.95-8.69-8.307-15.453-17.25-15.453z"/></g><path d="m173.162 333.304h-31.927v143.222h31.927c3.803 0 6.886-3.083 6.886-6.886v-129.45c-.001-3.803-3.084-6.886-6.886-6.886z" fill="#dfebfa"/><path d="m141.235 333.304h22.64v143.222h-22.64z" fill="#b1dbfc"/><path d="m134.482 320.128h-53.646c-5.436 0-9.843 4.407-9.843 9.843v149.888c0 5.436 4.407 9.843 9.843 9.843h53.646c5.436 0 9.843-4.407 9.843-9.843v-149.888c.001-5.436-4.407-9.843-9.843-9.843z" fill="#60b8fe"/><path d="m107.659 479.859v-149.888c0-5.436 4.407-9.843 9.844-9.843h-36.667c-5.436 0-9.843 4.407-9.843 9.843v149.888c0 5.436 4.407 9.843 9.843 9.843h36.667c-5.437.001-9.844-4.406-9.844-9.843z" fill="#23a8fe"/><path d="m367.153 98.617c-6.207-6.821-16.776-7.008-23.222-.561l-46.821 46.821c-1.261 1.261-3.305 1.261-4.565 0l-20.92-20.92c-6.446-6.447-17.015-6.26-23.221.561-5.813 6.389-5.251 16.338.857 22.446l34.224 34.224c6.264 6.265 16.423 6.265 22.686 0l60.125-60.125c6.108-6.108 6.67-16.057.857-22.446z" fill="#dfebfa"/><path d="m298.968 171.745-34.224-34.224c-4.882-4.882-6.209-12.215-3.581-18.226-4.632-.253-9.352 1.479-12.759 5.223-5.813 6.389-5.251 16.338.857 22.447l34.224 34.224c6.264 6.265 16.423 6.265 22.686 0l4.775-4.775c-4.315.17-8.685-1.375-11.978-4.669z" fill="#b1dbfc"/></svg>