<svg viewBox="0 0 128 128" xmlns="http://www.w3.org/2000/svg"><g><path d="M128 87.065A16.9 16.9 0 0 1 99.868 99.7l22.664-25.087A16.842 16.842 0 0 1 128 87.065zM67.538 15.874h33.225v11.014H67.538z" fill="#dd4e4e"></path><path d="M122.532 74.613 99.868 99.7 80.055 82.076A18.56 18.56 0 0 0 67.538 54.5V26.888h33.224v27.73z" fill="#6cb2da"></path><path d="M82.582 72.734a18.429 18.429 0 0 1-2.527 9.342l-10.34-9.2a6.467 6.467 0 0 1-2.177-4.833V54.5a18.579 18.579 0 0 1 15.044 18.234zM60.462 95.229a16.9 16.9 0 0 1-28.132 12.634l22.664-25.087a16.846 16.846 0 0 1 5.468 12.453z" fill="#dd4e4e"></path><path d="M54.994 82.776 32.33 107.863 12.517 90.24a18.432 18.432 0 0 0 2.527-9.34A18.581 18.581 0 0 0 0 62.665V35.052h33.225v27.73z" fill="#6cb2da"></path><g fill="#dd4e4e"><path d="M0 24.037h33.225v11.014H0zM15.044 80.9a18.432 18.432 0 0 1-2.527 9.343l-10.34-9.2A6.467 6.467 0 0 1 0 76.207V62.665A18.581 18.581 0 0 1 15.044 80.9z" fill="#dd4e4e"></path></g></g></svg>