<svg viewBox="0 0 512 512" xmlns="http://www.w3.org/2000/svg"><g><path d="M448 112h48v176h-48z" fill="#2a70ab"></path><path d="M416 120h32v144h-32z" fill="#4db7e5"></path><path d="M416 144h-32l-56-24h-56v144h88l24-24h32z" fill="#ff9f9b"></path><path d="M232 24 56.002 117.865l144 264L376 288z" fill="#448703"></path><path d="M202.525 253.962 146.56 283.84l-30.32-55.52 56.009-29.863z" fill="#f98500"></path><path d="M232 24 112 88l144 264 120-64z" fill="#95cb37"></path><g fill="#6dbb24"><path d="M168.48 57.92a63.942 63.942 0 0 1-25.84 86.24L112 88zM232 88a63.78 63.78 0 0 1-56.48-33.92L232 24l30.64 56.16A63.637 63.637 0 0 1 232 88zM312.48 321.92 256 352l-30.64-56.16a63.926 63.926 0 0 1 87.12 26.08zM376 288l-56.48 30.08a63.942 63.942 0 0 1 25.84-86.24z" fill="#6dbb24"></path></g><path d="m322.48 189.92-119.955 64.042-30.276-55.505L292.24 134.48z" fill="#fca713"></path><path d="M272 184a22.627 22.627 0 0 0 32 32l32-32a45.255 45.255 0 0 0 64 0l16-16v-24h-32l-56-24h-43.636l18.142 33.494z" fill="#ffdad2"></path><path d="M16 344h32v144H16z" fill="#2a70ab"></path><path d="M48 360h32v112H48z" fill="#4db7e5"></path><path d="m176 384 8 8h48a24 24 0 0 1 0 48h128a24 24 0 0 1 0 48H185.689A190.532 190.532 0 0 1 80 456v-72a67.882 67.882 0 0 1 96 0z" fill="#ffdad2"></path><path d="M160 448a8 8 0 0 0 8 8h64a8 8 0 0 0 0-16h-64a8 8 0 0 0-8 8z" fill="#ff9f9b"></path></g></svg>