<svg viewBox="0 0 512 512" xmlns="http://www.w3.org/2000/svg"><g><path d="M226.09 74.765h285.907v394.16H226.09z" fill="#fee45a"></path><path d="M471.265 118.705H258.409v55.604c5.847-2.381 12.069-3.652 18.417-3.652H511.991v-51.952z" fill="#fee45a"></path><path d="M511.991 111.205H293.906c-4.143 0-7.5 3.357-7.5 7.5s3.357 7.5 7.5 7.5h218.085z" fill="#fef0ae"></path><path d="M293.91 163.515v114.57h-152.9V74.765l108.68-31.69 41.418 29.682a6.71 6.71 0 0 1 2.802 5.455z" fill="#fedba6"></path><path d="M205.47 213.925v64.16h-64.46V74.765h64.46z" fill="#fbc56d"></path><path d="m249.69 43.075-44.22 31.69h-64.46l42.601-30.53a6.197 6.197 0 0 1 3.611-1.16z" fill="#d77f4a"></path><path d="M171.98 248.905v37.22H44.62v-118.15l90.53-26.4 33.143 23.757a8.832 8.832 0 0 1 3.687 7.178z" fill="#fedba6"></path><path d="M98.32 284.245v1.88h-53.7v-118.15h53.7v98.06z" fill="#fbc56d"></path><path d="m511.99 163.515.01 305.41H0V268.651h132.381c15.22 0 29.73-6.368 40.011-17.567l64.277-70.012c10.27-11.188 24.791-17.557 40.011-17.557h153.817z" fill="#97da7b"></path><path d="M512 336.401H276.679c-15.22 0-29.74 6.369-40.011 17.557l-64.277 70.012a54.297 54.297 0 0 1-40.011 17.567H0v27.387h512z" fill="#e9b665"></path><path d="M471.3 349.685v5.67H268.65V202.049c0-3.43 1.653-6.649 4.44-8.647l54.16-38.827 144.05 42.01z" fill="#fedba6"></path><path d="M385.86 196.585h85.44V350.355h-85.44v-8.74z" fill="#fbc56d"></path><path d="M327.25 154.575h82.836c1.693 0 3.344.531 4.72 1.517l56.494 40.493h-85.44z" fill="#d77f4a"></path><path d="M217.4 312.355h-.11l-58.61 44.122v112.448h195.17V353.754c0-1.832-.841-3.551-2.258-4.617z" fill="#fedba6"></path><path d="M353.85 353.368v115.557H275.9v-114.57l-54.66-42 130.651 37.006c1.23.926 1.959 2.417 1.959 4.007z" fill="#fbc56d"></path><path d="M353.85 351.056v3.299H275.9l-48.79-34.96-5.87-4.21-3.84-2.83h84.047c.834 0 1.647.261 2.326.747l48.394 34.677a4.032 4.032 0 0 1 1.683 3.277z" fill="#d77f4a"></path><path d="M489.319 344.155a35.147 35.147 0 0 0 2.767-15.552c-.857-17.658-15.028-32.145-32.665-33.356-20.562-1.412-37.68 14.849-37.68 35.108 0 4.897 1.001 9.56 2.808 13.796.794 1.861.318 3.99-1.113 5.419-8.914 8.898-14.311 21.318-13.901 35.001.76 25.376 21.816 45.864 47.203 45.967 26.281.107 47.619-21.165 47.619-47.421 0-13.163-5.371-25.065-14.032-33.656-1.396-1.383-1.778-3.499-1.006-5.306z" fill="#99d5b9"></path><path d="M432.448 386.593c-.41-13.683 4.987-26.103 13.901-35.001 1.432-1.429 1.907-3.559 1.113-5.419a35.08 35.08 0 0 1-2.808-13.796c0-16.481 11.33-30.315 26.625-34.142a34.607 34.607 0 0 0-11.859-2.989c-20.562-1.412-37.68 14.849-37.68 35.108 0 4.897 1.001 9.56 2.808 13.796.794 1.861.318 3.99-1.113 5.419-8.914 8.898-14.311 21.318-13.901 35.001.76 25.376 21.816 45.864 47.203 45.967a47.757 47.757 0 0 0 7.678-.595c-18.078-6.295-31.366-23.289-31.967-43.349z" fill="#7acaa6"></path><path d="M420.813 344.12a35.157 35.157 0 0 0 2.753-15.518c-.857-17.658-15.028-32.145-32.665-33.356-20.562-1.412-37.68 14.849-37.68 35.108 0 4.889.998 9.545 2.8 13.776.798 1.873.32 4.016-1.12 5.454-8.905 8.897-14.295 21.31-13.886 34.986.76 25.376 21.816 45.864 47.203 45.967 26.281.107 47.619-21.165 47.619-47.421 0-13.15-5.36-25.041-14.006-33.629-1.411-1.4-1.796-3.538-1.018-5.367z" fill="#57be92"></path><path d="M363.789 387.35c-.41-13.676 4.981-26.089 13.886-34.986 1.44-1.439 1.918-3.582 1.12-5.454a35.075 35.075 0 0 1-2.8-13.777c0-16.903 11.919-31.013 27.809-34.407a34.596 34.596 0 0 0-12.903-3.479c-20.562-1.412-37.68 14.849-37.68 35.108 0 4.889.998 9.545 2.8 13.776.798 1.873.32 4.016-1.12 5.455-8.905 8.897-14.295 21.31-13.886 34.986.76 25.376 21.816 45.864 47.203 45.967a47.83 47.83 0 0 0 6.079-.376c-17.331-6.686-29.924-23.298-30.508-42.813z" fill="#22b27f"></path><path d="M388.417 403.328a7.499 7.499 0 0 1-4.96-13.128l13.844-12.194a7.5 7.5 0 0 1 9.914 11.256l-13.844 12.194a7.472 7.472 0 0 1-4.954 1.872z" fill="#c86d36"></path><path d="M395.914 371.066c0-4.143-3.357-7.5-7.5-7.5s-7.5 3.357-7.5 7.5c0 0 .043 97.734.049 97.859h14.901c.007-.126.05-97.859.05-97.859z" fill="#c86d36"></path><path d="M22.922 344.964c-2.26-4.946-3.409-10.506-3.125-16.361.857-17.658 15.028-32.145 32.665-33.356 20.562-1.412 37.68 14.849 37.68 35.108a35.061 35.061 0 0 1-3.167 14.608c-.603 1.32-.33 2.87.719 3.872 9.362 8.943 15.075 21.672 14.654 35.736-.76 25.376-21.816 45.864-47.203 45.967-26.281.107-47.619-21.165-47.619-47.421 0-13.482 5.634-25.642 14.668-34.275a3.39 3.39 0 0 0 .728-3.878z" fill="#99d5b9"></path><path d="M29.004 385.383c0-13.482 5.634-25.642 14.668-34.275a3.393 3.393 0 0 0 .727-3.879c-2.26-4.946-3.409-10.506-3.125-16.361.778-16.042 12.546-29.463 27.917-32.695-5.062-2.244-10.748-3.337-16.729-2.926-17.637 1.211-31.808 15.698-32.665 33.356-.284 5.855.865 11.415 3.125 16.361a3.393 3.393 0 0 1-.727 3.879c-9.034 8.633-14.668 20.792-14.668 34.275 0 26.256 21.338 47.528 47.619 47.421a47.055 47.055 0 0 0 5.661-.378c-18.515-6.459-31.803-24.062-31.803-44.778z" fill="#7acaa6"></path><path d="M62.166 468.321v-71.12c0-4.143-3.358-7.5-7.5-7.5s-7.5 3.357-7.5 7.5v71.724h15v-.604zM464.435 397.066c0-4.143-3.357-7.5-7.5-7.5s-7.5 3.357-7.5 7.5c0 0 .014 71.734.02 71.859h14.956c.006-.126.024-71.859.024-71.859z" fill="#c86d36"></path><path d="M239.252 460.484h-43.929a2.483 2.483 0 0 1-2.483-2.483v-28.429c0-13.502 10.945-24.447 24.447-24.447 13.502 0 24.447 10.945 24.447 24.447v28.429a2.483 2.483 0 0 1-2.482 2.483z" fill="#fccd7f"></path><path d="M223.445 376.341H211.13a6.937 6.937 0 0 1-6.937-6.937V357.09a6.937 6.937 0 0 1 6.937-6.937h12.315a6.937 6.937 0 0 1 6.937 6.937v12.315a6.937 6.937 0 0 1-6.937 6.936zM142.32 201.657h-12.878a4.903 4.903 0 0 1-4.903-4.903v-12.878a4.903 4.903 0 0 1 4.903-4.903h12.878a4.903 4.903 0 0 1 4.903 4.903v12.878a4.903 4.903 0 0 1-4.903 4.903z" fill="#fbc56d"></path><path d="M84.01 141.575a7.94 7.94 0 0 0-4.624 1.486L44.62 167.975h53.7l36.83-26.4z" fill="#d77f4a"></path><path d="M343.011 243.814h-28.274a4.903 4.903 0 0 1-4.903-4.903v-28.274a4.903 4.903 0 0 1 4.903-4.903h28.274a4.903 4.903 0 0 1 4.903 4.903v28.274a4.903 4.903 0 0 1-4.903 4.903zM262.515 122.812h-23.769a4.903 4.903 0 0 1-4.903-4.903V94.14a4.903 4.903 0 0 1 4.903-4.903h23.769a4.903 4.903 0 0 1 4.903 4.903v23.769a4.903 4.903 0 0 1-4.903 4.903z" fill="#fbc56d"></path><path d="M91.136 343.361a35.171 35.171 0 0 1-2.44-14.758c.857-17.658 15.028-32.145 32.665-33.356 20.562-1.412 37.68 14.849 37.68 35.108 0 4.593-.88 8.979-2.481 13.002-.915 2.3-.469 4.918 1.258 6.692 8.632 8.862 13.832 21.083 13.429 34.523-.76 25.376-21.816 45.864-47.203 45.967-26.281.107-47.619-21.165-47.619-47.421 0-12.854 5.122-24.506 13.428-33.046 1.734-1.782 2.203-4.402 1.283-6.711z" fill="#57be92"></path><path d="M100.617 383.515c0-12.854 5.121-24.506 13.428-33.046 1.733-1.782 2.202-4.402 1.282-6.711a35.171 35.171 0 0 1-2.44-14.758c.704-14.504 10.394-26.862 23.607-31.488a35.226 35.226 0 0 0-15.132-2.266c-17.637 1.211-31.809 15.698-32.666 33.356a35.171 35.171 0 0 0 2.44 14.758c.919 2.31.451 4.929-1.282 6.711-8.306 8.54-13.428 20.191-13.428 33.046 0 26.256 21.338 47.528 47.619 47.421a46.865 46.865 0 0 0 11.114-1.387c-19.929-5.614-34.542-23.912-34.542-45.636z" fill="#22b27f"></path><path d="M131.348 468.925V361.066c0-4.143-3.358-7.5-7.5-7.5s-7.5 3.357-7.5 7.5v107.859z" fill="#c86d36"></path><path d="M123.845 393.328a7.471 7.471 0 0 1-4.955-1.872l-13.843-12.194a7.5 7.5 0 0 1 9.915-11.256l13.843 12.194a7.5 7.5 0 0 1-4.96 13.128z" fill="#c86d36"></path></g></svg>