<svg viewBox="0 0 64 64" xmlns="http://www.w3.org/2000/svg"><g><path d="M32 53.7a31 31 0 0 0 31-31H1a31 31 0 0 0 31 31z" fill="#8cbf44"></path><path d="M4.77 25.292a6.131 6.131 0 0 0 .952 3.279c.032.054.065.107.1.161a6.2 6.2 0 0 1 .924 4.342c0 .031-.012.062-.017.093a6.839 6.839 0 0 0 2.716 6.313l.193.16a7.467 7.467 0 0 1 2.523 3.716 7.989 7.989 0 0 0 5.452 5.244 13.525 13.525 0 0 1 3.856 1.955A17.173 17.173 0 0 0 32 53.691a17.164 17.164 0 0 0 10.529-3.14 13.518 13.518 0 0 1 3.857-1.951 7.992 7.992 0 0 0 5.453-5.24 7.475 7.475 0 0 1 2.523-3.716l.193-.16a6.844 6.844 0 0 0 2.717-6.313l-.016-.093a6.213 6.213 0 0 1 .923-4.342c.034-.054.064-.108.1-.161a6.149 6.149 0 0 0 .952-3.279 257.243 257.243 0 0 1-54.461-.004z" fill="#689b24"></path><path d="M11.854 25.9a5.263 5.263 0 0 0 .854 2.77l.112.178a4.92 4.92 0 0 1 .621 4.276l-.043.122a5.129 5.129 0 0 0 1.532 5.336l.141.138a5.48 5.48 0 0 1 1.791 3.88 5.8 5.8 0 0 0 3.52 5.019l.935.457a6.843 6.843 0 0 1 2.189 1.639l.036.041a12.234 12.234 0 0 0 7.478 3.805c.326.048.653.094.98.141l.98-.141a12.237 12.237 0 0 0 7.478-3.8c.012-.014.023-.028.036-.041a6.839 6.839 0 0 1 2.188-1.639c.312-.152.625-.3.936-.457a5.8 5.8 0 0 0 3.52-5.019 5.474 5.474 0 0 1 1.791-3.876l.141-.138a5.123 5.123 0 0 0 1.53-5.343c-.013-.041-.029-.081-.042-.122a4.923 4.923 0 0 1 .62-4.276c.039-.06.077-.118.113-.178a5.266 5.266 0 0 0 .854-2.771 239.342 239.342 0 0 1-40.291-.001z" fill="#8cbf44"></path><path d="M43.774 28.791a4.351 4.351 0 0 0 .764-2.381 227.507 227.507 0 0 1-25.076 0 4.35 4.35 0 0 0 .763 2.381l.069.1a4 4 0 0 1 .336 4.131l-.038.074a3.985 3.985 0 0 0 .716 4.558c.035.039.069.078.1.116a3.939 3.939 0 0 1 .954 3.866 4.043 4.043 0 0 0 1.664 4.484l.525.391a4.576 4.576 0 0 1 1.683 2.3A7.612 7.612 0 0 0 32 53.7a7.612 7.612 0 0 0 5.763-4.888 4.571 4.571 0 0 1 1.683-2.3l.525-.391a4.038 4.038 0 0 0 1.663-4.484 3.937 3.937 0 0 1 .954-3.866 2.58 2.58 0 0 0 .1-.116 3.984 3.984 0 0 0 .716-4.558l-.038-.074a4 4 0 0 1 .336-4.131c.026-.033.049-.067.072-.101z" fill="#689b24"></path><path d="M36.15 28.83a3.61 3.61 0 0 0 .722-2.127q-4.874.107-9.744 0a3.611 3.611 0 0 0 .721 2.127 3.384 3.384 0 0 1 .2 3.889l-.006.009a3.311 3.311 0 0 0 .382 4.054 3.231 3.231 0 0 1 .514 3.754 3.194 3.194 0 0 0 .7 3.909h.006a3.153 3.153 0 0 1 .813 3.637 3.9 3.9 0 0 0 .372 3.893q.587.852 1.174 1.7.591-.852 1.174-1.7a3.9 3.9 0 0 0 .372-3.893 3.152 3.152 0 0 1 .813-3.637h.006a3.2 3.2 0 0 0 .7-3.909 3.229 3.229 0 0 1 .514-3.754 3.311 3.311 0 0 0 .384-4.054l-.006-.009a3.387 3.387 0 0 1 .2-3.889z" fill="#8cbf44"></path><ellipse cx="32" cy="22.7" fill="#df4040" rx="29.666" ry="12.278"></ellipse><path d="M58.459 16.669c-8.423-5.761-27.146-7.742-41.735-4.416S-2.882 22.971 5.541 28.731s27.146 7.742 41.735 4.416 19.606-10.718 11.183-16.478zM46.39 32.367c-13.743 3.077-31.38 1.244-39.315-4.086S3.866 16.111 17.61 13.033s31.38-1.244 39.315 4.086 3.209 12.17-10.535 15.248z" fill="#fff9b9"></path><path d="M58.842 16.5c-8.559-5.93-27.515-7.962-42.339-4.538S-3.4 22.969 5.158 28.9s27.515 7.961 42.342 4.537S67.4 22.431 58.842 16.5zM47.055 32.9a72.361 72.361 0 0 1-22.848 1.177c-7.768-.814-14.261-2.763-18.282-5.487s-5.09-5.9-3.008-8.935 7.063-5.58 14.028-7.155a72.361 72.361 0 0 1 22.848-1.177c7.768.814 14.261 2.763 18.282 5.487s5.09 5.9 3.008 8.935-7.063 5.58-14.028 7.155z" fill="#a1ca5f"></path><g fill="#515761"><path d="M47.25 17.351c.788-.315.61-.58.092-.788a2.575 2.575 0 0 0-1.97.037 2.435 2.435 0 0 0-1.161 1.216 15.685 15.685 0 0 0 3.039-.465zM16.75 28.049c-.788.315-.61.58-.092.788a2.575 2.575 0 0 0 1.97-.037 2.435 2.435 0 0 0 1.161-1.216 15.685 15.685 0 0 0-3.039.465zM28.045 14.743c-.289-.431-.952-.5-1.66-.426s-1.2.27-.906.7a6.624 6.624 0 0 0 2.052 1.01s.802-.853.514-1.284zM35.955 30.657c.289.431.952.5 1.66.426s1.2-.27.906-.7a6.624 6.624 0 0 0-2.052-1.01s-.802.853-.514 1.284zM12.8 20.092c-1.077-.116-1.562.078-1.752.362s-.013.549 1.064.664a17.688 17.688 0 0 0 3.213-.206 9.629 9.629 0 0 0-2.525-.82zM51.205 25.308c1.077.116 1.562-.078 1.752-.362s.013-.549-1.064-.664a17.688 17.688 0 0 0-3.213.206 9.629 9.629 0 0 0 2.525.82zM38.521 15.018c.289-.431-.2-.625-.906-.7s-1.371-.005-1.66.426.514 1.285.514 1.285a6.624 6.624 0 0 0 2.052-1.011zM25.479 30.382c-.289.431.2.625.906.7s1.371.005 1.66-.426-.514-1.285-.514-1.285a6.624 6.624 0 0 0-2.052 1.011zM18.628 16.6a2.575 2.575 0 0 0-1.97-.037c-.518.208-.7.473.092.788a15.685 15.685 0 0 0 3.039.465 2.435 2.435 0 0 0-1.161-1.216zM45.372 28.8a2.575 2.575 0 0 0 1.97.037c.518-.208.7-.473-.092-.788a15.685 15.685 0 0 0-3.039-.465 2.435 2.435 0 0 0 1.161 1.216zM12.107 24.282c-1.077.115-1.254.381-1.064.664s.675.478 1.752.362a9.629 9.629 0 0 0 2.525-.82 17.688 17.688 0 0 0-3.213-.206zM51.893 21.118c1.077-.115 1.254-.381 1.064-.664s-.675-.478-1.752-.362a9.629 9.629 0 0 0-2.525.82 17.688 17.688 0 0 0 3.213.206zM20.617 22.169c-1.115 0-1.458.238-1.458.531s.343.531 1.458.531a14.354 14.354 0 0 0 2.97-.531 14.354 14.354 0 0 0-2.97-.531zM43.383 23.231c1.115 0 1.458-.238 1.458-.531s-.343-.531-1.458-.531a14.354 14.354 0 0 0-2.97.531 14.354 14.354 0 0 0 2.97.531zM25.158 26.377c-.557.387-.214.624.422.771a2.321 2.321 0 0 0 1.879-.239c.557-.386.335-1.295.335-1.295a11.324 11.324 0 0 0-2.636.763zM38.842 19.023c.557-.387.214-.624-.422-.771a2.321 2.321 0 0 0-1.879.239c-.557.386-.335 1.3-.335 1.3a11.324 11.324 0 0 0 2.636-.768zM36.541 26.909a2.321 2.321 0 0 0 1.879.239c.636-.147.979-.384.422-.771a11.324 11.324 0 0 0-2.636-.763s-.222.909.335 1.295zM27.459 18.491a2.321 2.321 0 0 0-1.879-.239c-.636.147-.979.384-.422.771a11.324 11.324 0 0 0 2.636.763s.222-.909-.335-1.295z" fill="#515761"></path></g></g></svg>