<svg viewBox="0 0 497 497" xmlns="http://www.w3.org/2000/svg"><g><path d="M301.242 111.3H195.758L214.02 10.544h68.96z" fill="#e9edf1"></path><path d="M321.077 296.897c0 54.021-6.352 174.377-7.548 196.554a3.752 3.752 0 0 1-3.752 3.549h-39.126a3.752 3.752 0 0 1-3.754-3.58c-1.29-28.21-10.082-213.6-18.397-213.6s-17.107 185.39-18.397 213.6a3.752 3.752 0 0 1-3.754 3.58h-39.126a3.751 3.751 0 0 1-3.752-3.549c-1.196-22.178-7.548-142.533-7.548-196.554 0-74.559 54.36-134.597 72.577-134.597s72.577 60.038 72.577 134.597z" fill="#544f56"></path><path d="M264.541 99.306c0-7.35-12.417-68.766-16.041-68.766s-16.041 61.416-16.041 68.766S248.5 121.86 248.5 121.86s16.041-15.204 16.041-22.554z" fill="#e27f86"></path><path d="M292.768 209.751 248.5 182.02l-44.268 27.731-.224-150.447L248.5 121.86l44.492-62.556z" fill="#444145"></path><path d="M248.5 0c-19.043 0-34.48 5.147-34.48 10.544S229.457 30.54 248.5 30.54s34.48-14.599 34.48-19.996S267.543 0 248.5 0z" fill="#b9c3cd"></path><path d="M324.897 113.022c-2.646 18.749-4.935 41.22-4.563 49.685.754 17.194 13.583 143.213 13.583 143.213s-50.936-26.69-50.936-75.215V111.299s8.908-90.985 17.764-87.235c17.344 7.344 41.56 12.234 46.891 17.318 6.594 6.289 50.195 113.958 65.77 161.107 3.444 10.426-32.098 23.903-35.168 18.519-25.058-43.941-53.341-107.986-53.341-107.986zM172.103 113.022c2.646 18.749 4.935 41.22 4.563 49.685-.754 17.194-13.583 143.213-13.583 143.213s50.936-26.69 50.936-75.215V111.299s-8.908-90.985-17.764-87.235c-17.344 7.344-41.56 12.234-46.891 17.318-6.594 6.289-50.195 113.958-65.77 161.107-3.444 10.426 32.098 23.903 35.168 18.519 25.058-43.941 53.341-107.986 53.341-107.986z" fill="#766d78"></path><path d="M194.192 24.914c-4.766 9.713-10.34 23.43-9.339 32.833C186.556 73.74 214.02 111.3 214.02 111.3V10.544c-1.985 5.793-10.022 10.436-19.828 14.37zM302.808 24.914c4.766 9.713 10.34 23.43 9.339 32.833C310.444 73.74 282.98 111.3 282.98 111.3V10.544c1.985 5.793 10.022 10.436 19.828 14.37z" fill="#544f56"></path><g fill="#e9edf1"><path d="M78.076 223.14c0 3.166 26.762 20.763 31.68 12.96 2.915-4.625 5.936-9.707 9.006-15.09-14.673-6.05-26.726-13.02-35.166-18.519-3.441 10.417-5.52 17.894-5.52 20.649zM418.924 223.14c0 3.166-26.762 20.763-31.68 12.96-2.915-4.625-5.936-9.707-9.006-15.09 14.673-6.05 26.726-13.02 35.166-18.519 3.441 10.417 5.52 17.894 5.52 20.649z" fill="#e9edf1"></path></g></g></svg>