<svg viewBox="0 0 512 512" xmlns="http://www.w3.org/2000/svg"><g><path d="M64.004 190.654v184.785L50.22 385.74H30.904l-14.907-10.302 4.584-77.748 1.164-19.646 5.182-87.813a7.22 7.22 0 0 1 7.201-6.789h22.664a7.213 7.213 0 0 1 7.212 7.212z" fill="#afb4c8"></path><path d="m36.604 375.442 10.932-185.213a7.212 7.212 0 0 1 7.199-6.787H34.13a7.211 7.211 0 0 0-7.199 6.787L16 375.442l14.906 10.302H50.22l.62-.463z" fill="#7e8596"></path><path d="m496.003 375.439-11.559 10.302h-24.467l-11.981-10.302V190.654a7.212 7.212 0 0 1 7.211-7.211h22.664a7.22 7.22 0 0 1 7.201 6.789l3.163 53.642 1.206 20.398z" fill="#afb4c8"></path><path d="M468.604 190.653a7.211 7.211 0 0 1 7.211-7.211h-20.604a7.211 7.211 0 0 0-7.211 7.211v184.789l11.977 10.302h20.604l-11.977-10.302z" fill="#7e8596"></path><path d="M192.005 134.9v240.539l-16.102 10.302h-46.874L112 375.439l15.092-241.518c.505-8.139 7.263-14.474 15.422-14.474h34.037c8.531 0 15.454 6.912 15.454 15.453z" fill="#afb4c8"></path><path d="M147.693 133.925c.512-8.142 7.265-14.483 15.422-14.483h-20.604c-8.158 0-14.91 6.341-15.422 14.483L112 375.442l17.029 10.302h20.604l-17.029-10.302z" fill="#7e8596"></path><path d="m388.379 375.439-18.801 10.302h-45.843l-19.738-10.302V134.9c0-8.54 6.923-15.453 15.453-15.453h34.037c8.159 0 14.907 6.336 15.422 14.474z" fill="#afb4c8"></path><path d="M324.604 134.895c0-8.534 6.919-15.453 15.453-15.453h-20.604c-8.534 0-15.453 6.919-15.453 15.453v240.547l19.735 10.302h20.604l-19.735-10.302z" fill="#7e8596"></path><path d="M504.789 471.764H7.211A7.211 7.211 0 0 1 0 464.553V439.43l30.906-10.302h452.766L512 439.429v25.123a7.212 7.212 0 0 1-7.211 7.212z" fill="#cfa388"></path><path d="M0 439.429v25.123a7.211 7.211 0 0 0 7.211 7.211h23.694v-42.637z" fill="#b2876d"></path><path d="M512 440.111H0v-57.458a7.211 7.211 0 0 1 7.211-7.211h497.577a7.211 7.211 0 0 1 7.211 7.211v57.458z" fill="#95e8c8"></path><path d="M0 382.653v57.458h30.906v-64.67H7.211A7.213 7.213 0 0 0 0 382.653z" fill="#06ccab"></path><path d="M415.999 55.689v48.305c0 8.53-6.913 15.453-15.453 15.453H111.454c-8.54 0-15.453-6.923-15.453-15.453V70.142c0-8.231 6.459-15.02 14.68-15.432l72.196-3.606 18.512-.927 108.675-5.439 19.079-.948 70.63-3.534c8.829-.443 16.226 6.593 16.226 15.433z" fill="#afb4c8"></path><path d="M126.906 103.989V70.141c0-8.234 6.762-16.581 14.986-16.992l-31.211 1.558C102.457 55.119 96 61.907 96 70.141v33.848c0 8.534 6.919 15.453 15.453 15.453h30.906c-8.535 0-15.453-6.919-15.453-15.453zM192.005 209.372v17.287l-19.131 9.56v42.959a7.714 7.714 0 0 1-2.215 5.419l-15.999 16.267a7.722 7.722 0 0 1-10.93.083 7.717 7.717 0 0 1-.083-10.92l13.774-14.011V231.44a7.718 7.718 0 0 1 4.275-6.902zM357.463 316.903c-1.504 1.514-3.482 2.267-5.46 2.267s-3.956-.752-5.47-2.267l-15.999-15.999a7.747 7.747 0 0 1-2.256-5.46v-27.228l-24.281-12.136v-17.142l35.459 17.596a7.723 7.723 0 0 1 4.275 6.913v28.794l13.732 13.732a7.727 7.727 0 0 1 0 10.93z" fill="#7e8596"></path><path d="M303.996 238.939H304v17.142h-.004z" fill="#7e8596"></path><path d="M304 238.94v17.143l20.604 10.297v-17.216z" fill="#636978"></path><path d="M247.728 71.44a7.729 7.729 0 0 1-7.726 7.726h-31.998a7.726 7.726 0 0 1-6.13-3.019l-18.997-25.044 18.512-.927 10.415 13.537H240a7.731 7.731 0 0 1 7.728 7.727zM387.555 93.682a7.656 7.656 0 0 1-4.553 1.484 7.693 7.693 0 0 1-6.243-3.173l-12.682-17.39h-28.073a7.732 7.732 0 0 1-6.315-3.266l-19.625-26.6 19.079-.948 10.858 15.36h28a7.75 7.75 0 0 1 6.243 3.173l15 20.563a7.734 7.734 0 0 1-1.689 10.797z" fill="#7e8596"></path><path d="M35.478 300.575a7.699 7.699 0 0 1-5.779 2.596 7.75 7.75 0 0 1-5.13-1.947l-3.987-3.533 1.164-19.646 13.083 11.621a7.726 7.726 0 0 1 .649 10.909z" fill="#636978"></path><path d="m489.441 264.271-4.842 4.708a7.695 7.695 0 0 1-5.388 2.194 7.72 7.72 0 0 1-5.542-2.339c-2.967-3.06-2.905-7.953.154-10.93l14.412-14.031z" fill="#7e8596"></path></g></svg>