<svg viewBox="0 0 478.629 478.629" xmlns="http://www.w3.org/2000/svg"><g><path d="M318.494 121.448c.048-44.183-35.73-80.04-79.914-80.089s-80.04 35.73-80.089 79.914a80 80 0 0 0 20.566 53.638 75.384 75.384 0 0 1 19.436 50.512v.025h80a72.642 72.642 0 0 1 18.615-49.64 79.532 79.532 0 0 0 21.386-54.36z" fill="#ffd700"></path><path d="M434.827 406.629h-108v-120l40 58.5a30.624 30.624 0 0 0 8.211 9.302L440.36 400.6c9.396 5.791 21.709 2.869 27.5-6.527 5.769-9.36 2.894-21.623-6.435-27.443l-67.456-48-23.792-48c-4.772-23.862-36.867-48-61.201-48h-38.149c0 17.673-14.327 32-32 32s-32-14.327-32-32h-41.009c-23.02 0-43.193 25.791-49.25 48l-37.741 50.382-59.351 37.618c-10.138 5.293-14.065 17.802-8.772 27.94s17.802 14.065 27.94 8.772l.183-.097 75.554-46.898a35.917 35.917 0 0 0 7.677-7.857l36.77-53.86v120h-116c-19.882 0-36 16.118-36 36s16.118 36 36 36h392c19.882 0 36-16.118 36-36s-16.119-36.001-36.001-36.001z" fill="#17afdc"></path><path d="M302.198 131.379c5.089-36.986-20.768-71.094-57.754-76.183a67.578 67.578 0 0 0-17.373-.137c-.391.043-.769.131-1.157.181 39.989 4.658 71.55 36.159 76.284 76.139z" fill="#f9e8a2"></path><path d="m269.227 120.221-12.8-9.592-17.6 23.464-17.6-23.464-12.8 9.592 22.4 29.864v80.544h16v-80.544l22.4-29.864z" fill="#b59304"></path><path d="M430.832 11.314 442.145.001l11.313 11.313-11.313 11.313-11.313-11.313zM408.2 33.943l11.313-11.313 11.313 11.313-11.313 11.313L408.2 33.943zM430.831 33.945l11.313-11.313 11.313 11.313-11.313 11.313-11.313-11.313zM408.202 11.313 419.514 0l11.313 11.313-11.313 11.313-11.312-11.313zM22.807 220.283 34.12 208.97l11.313 11.313-11.313 11.313-11.313-11.313zM.199 242.872l11.313-11.313 11.313 11.313-11.313 11.313L.199 242.872z" fill="#f4393d"></path><path d="m22.806 242.873 11.313-11.313 11.313 11.313-11.313 11.313-11.313-11.313zM.201 220.289l11.313-11.313 11.313 11.313-11.313 11.313L.201 220.289zM46.83 11.316 58.143.004l11.313 11.313-11.313 11.312L46.83 11.316zM24.206 33.945l11.313-11.313 11.313 11.313-11.313 11.313-11.313-11.313z" fill="#f4393d"></path><path d="m46.828 33.939 11.313-11.313 11.313 11.313-11.313 11.312-11.313-11.312zM24.2 11.315 35.512.002l11.313 11.313-11.313 11.312L24.2 11.315zM455.799 220.316l11.313-11.313 11.313 11.313-11.313 11.313-11.313-11.313zM433.172 242.875l11.313-11.313 11.313 11.313-11.313 11.313-11.313-11.313z" fill="#f4393d"></path><path d="m455.805 242.874 11.313-11.313 11.313 11.313-11.313 11.313-11.313-11.313zM433.174 220.317l11.313-11.313 11.313 11.313-11.313 11.313-11.313-11.313z" fill="#f4393d"></path><path d="M190.827 414.629h72c17.673 0 32 14.327 32 32s-14.327 32-32 32h-72v-64zM286.827 286.629h16v16h-16v-16zM286.827 318.629h16v64h-16v-64z" fill="#4a3df9"></path><path d="M342.827 94.629h32v16h-32v-16zM314.547 31.594l22.627-22.627 11.313 11.313-22.627 22.627-11.313-11.313zM102.827 94.629h32v16h-32v-16zM129.17 20.312 140.482 9l24 24-11.312 11.313-24-24.001z" fill="#ffd700"></path><path d="M238.827 254.629c-17.673 0-32-14.327-32-32h64c0 17.674-14.327 32-32 32z" fill="#dbe6fd"></path></g></svg>