<svg viewBox="0 0 480 480" xmlns="http://www.w3.org/2000/svg"><g><path d="M424 383.995h-48l-24-56h-32l-56-144h-48l-48 144h-32l-24 56H56l-56 96h480l-56-96z" fill="#4bad32"></path><path d="M222.297 158.026a80.165 80.165 0 0 1-32.09-15.414l9.969-12.516a64.08 64.08 0 0 0 25.645 12.32l-3.524 15.61zm35.562-.047-3.555-15.594a64.118 64.118 0 0 0 25.621-12.375l9.992 12.5a80.191 80.191 0 0 1-32.058 15.469zm-89.89-43.132A79.217 79.217 0 0 1 160 80.159l16-.031a63.293 63.293 0 0 0 6.367 27.734l-14.398 6.985zm144.133-.149-14.414-6.938A63.481 63.481 0 0 0 304 79.994l16.004-.297-.012.633a78.8 78.8 0 0 1-7.89 34.368zM182.258 52.354l-14.43-6.922a80.769 80.769 0 0 1 22.125-27.859l10.023 12.469a64.645 64.645 0 0 0-17.718 22.312zm115.32-.344a64.675 64.675 0 0 0-17.852-22.195l9.946-12.531a80.721 80.721 0 0 1 22.289 27.727l-14.383 6.999zM225.57 17.627l-3.594-15.594a80.988 80.988 0 0 1 35.574-.102l-3.504 15.609a64.902 64.902 0 0 0-28.476.087z" fill="#fcd821"></path><path d="m240 98.331 24.72 13.664L260 83.051l20-20.496-27.64-4.224L240 31.995l-12.36 26.336L200 62.555l20 20.496-4.72 28.944L240 98.331z" fill="#ec322c"></path><path d="m80.001 248.585 13.501-8.592 56 88-13.501 8.592-56-88z" fill="#4c4b4b"></path><path d="M101.656 338.339A8.003 8.003 0 0 0 96 335.995H80v-16h24a7.998 7.998 0 0 0 7.156-4.422l8-16-14.312-7.156-5.789 11.578H80v-2.226c7.653-4.418 10.275-14.204 5.856-21.856-4.418-7.653-14.204-10.275-21.856-5.856-7.653 4.418-10.275 14.204-5.856 21.856A15.998 15.998 0 0 0 64 301.769v49.242l-7.762 40.984 15.523 3.875 8-41.938a8.01 8.01 0 0 0 .238-1.938h12.688l32 21.656L136 362.339l-34.344-24z" fill="#ec322c"></path><path d="m216 183.995-48 144h-32l-24 56H56l-56 96h16l48-80h56l24-56h48l48-160.008-24 .008z" fill="#85ef67"></path></g></svg>