<svg id="Layer_1" enable-background="new 0 0 512 512" viewBox="0 0 512 512" xmlns="http://www.w3.org/2000/svg" xmlns:xlink="http://www.w3.org/1999/xlink"><linearGradient id="lg1"><stop offset="0" stop-color="#fea613"/><stop offset="1" stop-color="#c4573a"/></linearGradient><linearGradient id="SVGID_1_" gradientUnits="userSpaceOnUse" x1="12.639" x2="187.94" xlink:href="#lg1" y1="13.285" y2="153.81"/><linearGradient id="lg2"><stop offset="0" stop-color="#c4573a" stop-opacity="0"/><stop offset=".235" stop-color="#be5539" stop-opacity=".235"/><stop offset=".539" stop-color="#ae4e35" stop-opacity=".539"/><stop offset=".8794" stop-color="#934330" stop-opacity=".879"/><stop offset="1" stop-color="#883f2e"/></linearGradient><linearGradient id="SVGID_00000090269066555674194190000013206102077041972148_" gradientUnits="userSpaceOnUse" x1="169.811" x2="203.907" xlink:href="#lg2" y1="91.078" y2="91.078"/><linearGradient id="SVGID_00000034078646892468972170000000747116694704956077_" gradientUnits="userSpaceOnUse" x1="42.703" x2="114.563" xlink:href="#lg2" y1="72.675" y2="161.568"/><linearGradient id="SVGID_00000152233606121617797110000004823315131932403093_" gradientUnits="userSpaceOnUse" x1="137.946" x2="149.041" xlink:href="#lg2" y1="44.202" y2="90.962"/><linearGradient id="SVGID_00000036965621077811386190000007382049523321810084_" gradientUnits="userSpaceOnUse" x1="48.099" x2="43.841" xlink:href="#lg2" y1="134.89" y2="156.891"/><linearGradient id="SVGID_00000080188547224504845300000002155362302445299076_" gradientTransform="matrix(-1 0 0 1 -1818.03 0)" gradientUnits="userSpaceOnUse" x1="-1971.069" x2="-1975.327" xlink:href="#lg2" y1="134.89" y2="156.891"/><linearGradient id="SVGID_00000097489675038611175720000006848201299385777822_" gradientUnits="userSpaceOnUse" x1="99.9" x2="102.561" xlink:href="#lg1" y1="15.216" y2="50.702"/><linearGradient id="SVGID_00000049217482421018725320000010782398759091750067_" gradientUnits="userSpaceOnUse" x1="70.012" x2="71.964" xlink:href="#lg2" y1="17.05" y2="25.212"/><linearGradient id="lg3"><stop offset="0" stop-color="#fef0ae"/><stop offset="1" stop-color="#fac600"/></linearGradient><linearGradient id="SVGID_00000048460584840175577480000000278382994287881353_" gradientUnits="userSpaceOnUse" x1="82.94" x2="96.78" xlink:href="#lg3" y1="8.928" y2="42.64"/><linearGradient id="lg4"><stop offset="0" stop-color="#fe9738" stop-opacity="0"/><stop offset="1" stop-color="#fe9738"/></linearGradient><linearGradient id="SVGID_00000147221200706890191750000005576690751916404613_" gradientUnits="userSpaceOnUse" x1="60.066" x2="60.066" xlink:href="#lg4" y1="29.455" y2="37.224"/><linearGradient id="SVGID_00000071525799047077075650000006127269413545161394_" gradientUnits="userSpaceOnUse" x1="49.336" x2="54.706" xlink:href="#lg4" y1="51.002" y2="51.002"/><linearGradient id="SVGID_00000111170397952824150800000009522327432903886990_" gradientUnits="userSpaceOnUse" x1="44.349" x2="43.285" xlink:href="#lg4" y1="62.506" y2="68.538"/><linearGradient id="lg5"><stop offset="0" stop-color="#f5fbff"/><stop offset="1" stop-color="#dbd5ef"/></linearGradient><linearGradient id="SVGID_00000030464591310367157490000000114896215864105641_" gradientUnits="userSpaceOnUse" x1="18.791" x2="43.487" xlink:href="#lg5" y1="102.202" y2="144.732"/><linearGradient id="lg6"><stop offset="0" stop-color="#dbd5ef" stop-opacity="0"/><stop offset=".2853" stop-color="#d9d2ee" stop-opacity=".285"/><stop offset=".4739" stop-color="#d4c9e9" stop-opacity=".474"/><stop offset=".6346" stop-color="#cbbae2" stop-opacity=".635"/><stop offset=".7795" stop-color="#bfa5d7" stop-opacity=".78"/><stop offset=".9126" stop-color="#af8aca" stop-opacity=".913"/><stop offset="1" stop-color="#a274bf"/></linearGradient><linearGradient id="SVGID_00000147900530416303372300000000652406936189769894_" gradientUnits="userSpaceOnUse" x1="31.255" x2="29.368" xlink:href="#lg6" y1="128.453" y2="136.685"/><linearGradient id="SVGID_00000097473225103593765190000002772254278918878141_" gradientUnits="userSpaceOnUse" x1="47.287" x2="53.715" xlink:href="#lg6" y1="126.457" y2="126.457"/><linearGradient id="SVGID_00000048473747455231749320000002745725333967804083_" gradientUnits="userSpaceOnUse" x1="81.501" x2="256.803" xlink:href="#lg1" y1="84.074" y2="224.599"/><linearGradient id="SVGID_00000127741956136019119300000009670802876023123340_" gradientUnits="userSpaceOnUse" x1="238.674" x2="272.77" xlink:href="#lg2" y1="161.868" y2="161.868"/><linearGradient id="SVGID_00000155847929431383867280000000822886512438726033_" gradientUnits="userSpaceOnUse" x1="111.566" x2="183.425" xlink:href="#lg2" y1="143.464" y2="232.357"/><linearGradient id="SVGID_00000065762308300615430350000009575446680344221119_" gradientUnits="userSpaceOnUse" x1="116.962" x2="112.703" xlink:href="#lg2" y1="205.679" y2="227.68"/><linearGradient id="SVGID_00000129909462918017004490000009738906273332011147_" gradientTransform="matrix(-1 0 0 1 -1818.03 0)" gradientUnits="userSpaceOnUse" x1="-2039.931" x2="-2044.189" xlink:href="#lg2" y1="205.679" y2="227.68"/><linearGradient id="SVGID_00000158722380714719895420000018219030014175832994_" gradientUnits="userSpaceOnUse" x1="168.762" x2="171.423" xlink:href="#lg1" y1="86.006" y2="121.492"/><linearGradient id="SVGID_00000039830144058598776160000010510547957043434638_" gradientUnits="userSpaceOnUse" x1="138.875" x2="140.827" xlink:href="#lg2" y1="87.84" y2="96.002"/><linearGradient id="SVGID_00000063600616837373419220000014431393895333403552_" gradientUnits="userSpaceOnUse" x1="151.803" x2="165.642" xlink:href="#lg3" y1="79.717" y2="113.429"/><linearGradient id="SVGID_00000102536729965258770440000008374257957808720777_" gradientUnits="userSpaceOnUse" x1="128.928" x2="128.928" xlink:href="#lg4" y1="100.244" y2="108.013"/><linearGradient id="SVGID_00000164490703976973146470000005812734074486082697_" gradientUnits="userSpaceOnUse" x1="118.198" x2="123.568" xlink:href="#lg4" y1="121.791" y2="121.791"/><linearGradient id="SVGID_00000183238222485527077030000016871528252251754416_" gradientUnits="userSpaceOnUse" x1="113.212" x2="112.147" xlink:href="#lg4" y1="133.295" y2="139.328"/><linearGradient id="SVGID_00000108295507025786889120000005321968274351509692_" gradientUnits="userSpaceOnUse" x1="87.654" x2="112.349" xlink:href="#lg5" y1="172.991" y2="215.522"/><linearGradient id="SVGID_00000061438743368314717980000013741403446969732541_" gradientUnits="userSpaceOnUse" x1="100.117" x2="98.231" xlink:href="#lg6" y1="199.242" y2="207.474"/><linearGradient id="SVGID_00000163760988493500487170000010399494452180122245_" gradientUnits="userSpaceOnUse" x1="116.149" x2="122.577" xlink:href="#lg6" y1="197.246" y2="197.246"/><linearGradient id="lg7"><stop offset="0" stop-color="#fb2b3a"/><stop offset="1" stop-color="#c41926"/></linearGradient><linearGradient id="SVGID_00000072959450016158829810000016179694869444814211_" gradientUnits="userSpaceOnUse" x1="162.906" x2="93.526" xlink:href="#lg7" y1="363.694" y2="433.074"/><linearGradient id="lg8"><stop offset="0" stop-color="#a72b2b" stop-opacity="0"/><stop offset=".2576" stop-color="#a32c2b" stop-opacity=".258"/><stop offset=".5245" stop-color="#972d2a" stop-opacity=".525"/><stop offset=".7947" stop-color="#823028" stop-opacity=".795"/><stop offset="1" stop-color="#6d3326"/></linearGradient><linearGradient id="SVGID_00000036972940684488437370000007676204441721086100_" gradientTransform="matrix(-1 0 0 -1 -791.48 3932.306)" gradientUnits="userSpaceOnUse" x1="-844.335" x2="-845.285" xlink:href="#lg8" y1="3626.97" y2="3597.505"/><linearGradient id="SVGID_00000116236343170570666150000005130324897633043091_" gradientTransform="matrix(-1 0 0 -1 -791.48 3932.306)" gradientUnits="userSpaceOnUse" x1="-902.929" x2="-903.88" xlink:href="#lg8" y1="3628.86" y2="3599.395"/><linearGradient id="SVGID_00000044176046104018179250000010358944553546131615_" gradientUnits="userSpaceOnUse" x1="170.059" x2="322.607" y1="213.003" y2="443.036"><stop offset="0" stop-color="#60b7ff"/><stop offset="1" stop-color="#0268b4"/></linearGradient><linearGradient id="lg9"><stop offset="0" stop-color="#024c67" stop-opacity="0"/><stop offset=".2656" stop-color="#034664" stop-opacity=".266"/><stop offset=".6092" stop-color="#06365b" stop-opacity=".609"/><stop offset=".9942" stop-color="#0b1b4c" stop-opacity=".994"/><stop offset="1" stop-color="#0b1b4c"/></linearGradient><linearGradient id="SVGID_00000140720724948514022880000016599236060516094343_" gradientUnits="userSpaceOnUse" x1="360.178" x2="396.563" xlink:href="#lg9" y1="366.609" y2="366.609"/><linearGradient id="SVGID_00000119093481171376285280000004855906170401872813_" gradientUnits="userSpaceOnUse" x1="271.924" x2="271.924" xlink:href="#lg9" y1="425.222" y2="467.398"/><linearGradient id="SVGID_00000025425862759907972710000003285543642496030339_" gradientUnits="userSpaceOnUse" x1="373.873" x2="492.923" xlink:href="#lg5" y1="348.498" y2="458.993"/><linearGradient id="SVGID_00000109709776432439557430000007681351765044826507_" gradientUnits="userSpaceOnUse" x1="466.04" x2="507.529" xlink:href="#lg6" y1="387.118" y2="387.118"/><linearGradient id="SVGID_00000114055545249449525890000016393354039848804272_" gradientUnits="userSpaceOnUse" x1="464.066" x2="492.224" xlink:href="#lg6" y1="384.547" y2="365.3"/><linearGradient id="SVGID_00000021811889922327749720000008787421645136193427_" gradientUnits="userSpaceOnUse" x1="440.948" x2="440.948" xlink:href="#lg6" y1="427.277" y2="462.514"/><linearGradient id="SVGID_00000137117342747339523850000004737654047704615341_" gradientUnits="userSpaceOnUse" x1="409.77" x2="409.77" xlink:href="#lg5" y1="420.23" y2="407.772"/><linearGradient id="SVGID_00000089573597894473481360000013097283118517950137_" gradientUnits="userSpaceOnUse" x1="407.641" x2="474.837" y1="345.933" y2="413.128"><stop offset="0" stop-color="#b3dafe"/><stop offset="1" stop-color="#01d0fb"/></linearGradient><linearGradient id="lg10"><stop offset="0" stop-color="#08a9f1" stop-opacity="0"/><stop offset="1" stop-color="#08a9f1"/></linearGradient><linearGradient id="SVGID_00000153696989331680889110000016959925425478506370_" gradientUnits="userSpaceOnUse" x1="427.188" x2="390.432" xlink:href="#lg10" y1="362.744" y2="362.744"/><linearGradient id="SVGID_00000015323611104842309240000015318348146014468518_" gradientUnits="userSpaceOnUse" x1="438.954" x2="438.954" xlink:href="#lg10" y1="355.97" y2="324.968"/><linearGradient id="SVGID_00000103955399930676266290000003844309084312859067_" gradientUnits="userSpaceOnUse" x1="503.972" x2="478.666" xlink:href="#lg6" y1="409.232" y2="396.757"/><linearGradient id="lg11"><stop offset="0" stop-color="#5a5a5a"/><stop offset="1" stop-color="#444"/></linearGradient><linearGradient id="SVGID_00000154405219874090379350000007284929933291983530_" gradientUnits="userSpaceOnUse" x1="475.193" x2="481.65" xlink:href="#lg11" y1="386.426" y2="390.946"/><linearGradient id="lg12"><stop offset="0" stop-color="#433f43" stop-opacity="0"/><stop offset=".3444" stop-color="#403c40" stop-opacity=".344"/><stop offset=".6223" stop-color="#363336" stop-opacity=".622"/><stop offset=".8763" stop-color="#252425" stop-opacity=".876"/><stop offset="1" stop-color="#1a1a1a"/></linearGradient><linearGradient id="SVGID_00000138552704029021369930000004402963147825453985_" gradientUnits="userSpaceOnUse" x1="481.543" x2="481.543" xlink:href="#lg12" y1="393.582" y2="402.606"/><linearGradient id="SVGID_00000070806507281783259220000004731211084889814408_" gradientUnits="userSpaceOnUse" x1="480.935" x2="488.85" xlink:href="#lg12" y1="390.375" y2="390.375"/><linearGradient id="SVGID_00000058568910583330768490000013986419465974179482_" gradientUnits="userSpaceOnUse" x1="424.026" x2="458.301" xlink:href="#lg11" y1="459.729" y2="494.004"/><linearGradient id="SVGID_00000052079262753207597570000013728083428384915587_" gradientUnits="userSpaceOnUse" x1="438.594" x2="438.594" xlink:href="#lg12" y1="474.774" y2="519.127"/><linearGradient id="SVGID_00000078738923572185070320000012621026736749468817_" gradientTransform="matrix(.707 -.707 .707 .707 276.508 -730.274)" gradientUnits="userSpaceOnUse" x1="-737.148" x2="-737.148" xlink:href="#lg12" y1="966.849" y2="1013.535"/><linearGradient id="SVGID_00000134969708188625194930000014707933005463990959_" gradientUnits="userSpaceOnUse" x1="447.652" x2="419.325" xlink:href="#lg12" y1="483.355" y2="455.028"/><linearGradient id="SVGID_00000114038234521141086820000009482823572085610134_" gradientUnits="userSpaceOnUse" x1="431.668" x2="447.963" xlink:href="#lg5" y1="467.371" y2="483.666"/><linearGradient id="SVGID_00000024700492222371530900000000228701821531091614_" gradientUnits="userSpaceOnUse" x1="438.594" x2="438.594" xlink:href="#lg6" y1="474.524" y2="495.609"/><linearGradient id="SVGID_00000177442813191107568540000010440203001581933229_" gradientTransform="matrix(.707 -.707 .707 .707 276.508 -730.274)" gradientUnits="userSpaceOnUse" x1="-737.148" x2="-737.148" xlink:href="#lg6" y1="966.599" y2="988.794"/><linearGradient id="SVGID_00000097492605612872002110000006938644115238740154_" gradientUnits="userSpaceOnUse" x1="208.431" x2="242.706" xlink:href="#lg11" y1="459.729" y2="494.004"/><linearGradient id="SVGID_00000041257486896538509940000003476592971942256519_" gradientUnits="userSpaceOnUse" x1="222.999" x2="222.999" xlink:href="#lg12" y1="474.774" y2="519.127"/><linearGradient id="SVGID_00000049920015010464633240000015056798641515805590_" gradientTransform="matrix(.707 -.707 .707 .707 276.508 -730.274)" gradientUnits="userSpaceOnUse" x1="-889.597" x2="-889.597" xlink:href="#lg12" y1="814.4" y2="861.086"/><linearGradient id="SVGID_00000155128784276957959410000006717347308036300166_" gradientUnits="userSpaceOnUse" x1="232.057" x2="203.73" xlink:href="#lg12" y1="483.355" y2="455.028"/><linearGradient id="SVGID_00000152258641332568385750000012170748045218721670_" gradientUnits="userSpaceOnUse" x1="216.073" x2="232.368" xlink:href="#lg5" y1="467.371" y2="483.666"/><linearGradient id="SVGID_00000164474339335731612210000016463512878881601440_" gradientUnits="userSpaceOnUse" x1="222.999" x2="222.999" xlink:href="#lg6" y1="474.524" y2="495.609"/><linearGradient id="SVGID_00000055685106346308769640000010695184759740639912_" gradientTransform="matrix(.707 -.707 .707 .707 276.508 -730.274)" gradientUnits="userSpaceOnUse" x1="-889.597" x2="-889.597" xlink:href="#lg6" y1="814.15" y2="836.345"/><linearGradient id="SVGID_00000109725936392330002450000000039197588136368260_" gradientUnits="userSpaceOnUse" x1="492.8" x2="508.423" xlink:href="#lg3" y1="426.903" y2="437.181"/><linearGradient id="SVGID_00000076564176544841773520000004524621075059187848_" gradientUnits="userSpaceOnUse" x1="501.801" x2="506.185" xlink:href="#lg4" y1="432.119" y2="444.96"/><linearGradient id="SVGID_00000160889487886638396950000017210931250988090289_" gradientUnits="userSpaceOnUse" x1="500.757" x2="511.249" xlink:href="#lg4" y1="431.962" y2="435.72"/><linearGradient id="SVGID_00000121256044227228891030000003642797691240717476_" gradientUnits="userSpaceOnUse" x1="285.526" x2="481.549" xlink:href="#lg7" y1="46.07" y2="242.093"/><linearGradient id="SVGID_00000165951434381523142310000001764082677928645530_" gradientUnits="userSpaceOnUse" x1="459.146" x2="458.195" xlink:href="#lg8" y1="206.665" y2="177.199"/><linearGradient id="SVGID_00000000929297710596990330000006172309697122053254_" gradientUnits="userSpaceOnUse" x1="400.551" x2="399.601" xlink:href="#lg8" y1="208.555" y2="179.089"/><g><g><g><g><path d="m201.138 30.801v105.89c0 4.296-2.957 8.029-7.138 9.015l-91.305 21.539c-1.399.328-2.852.328-4.251 0l-91.306-21.539c-4.181-.986-7.138-4.719-7.138-9.015v-105.89c0-2.584 1.07-4.958 2.827-6.66h195.473v-.01c1.767 1.702 2.838 4.081 2.838 6.67z" fill="url(#SVGID_1_)"/><path d="m198.3 24.14h-56.523v133.885l52.222-12.32c4.181-.986 7.138-4.719 7.138-9.015v-105.889c0-2.589-1.07-4.968-2.837-6.67z" fill="url(#SVGID_00000090269066555674194190000013206102077041972148_)"/><path d="m100.569 24.14v143.349c-.712 0-1.424-.08-2.126-.244l-91.305-21.539c-4.181-.986-7.138-4.719-7.138-9.015v-105.89c0-2.584 1.07-4.958 2.827-6.66h97.742z" fill="url(#SVGID_00000034078646892468972170000000747116694704956077_)"/><path d="m201.135 30.799v105.889c0 4.299-2.952 8.033-7.132 9.019l-91.309 21.535c-.697.164-1.407.243-2.123.243v-143.345h97.731c1.768 1.696 2.833 4.069 2.833 6.659z" fill="url(#SVGID_00000152233606121617797110000004823315131932403093_)"/><path d="m100.569 102.204v65.285c-.712 0-1.424-.08-2.126-.244l-91.305-21.539c-4.181-.986-7.138-4.719-7.138-9.015v-56.982l90.304 21.3c3.375.797 6.82 1.195 10.265 1.195z" fill="url(#SVGID_00000036965621077811386190000007382049523321810084_)"/><path d="m100.569 102.204v65.285c.712 0 1.424-.08 2.126-.244l91.305-21.539c4.181-.986 7.138-4.719 7.138-9.015v-56.982l-90.304 21.3c-3.376.797-6.82 1.195-10.265 1.195z" fill="url(#SVGID_00000080188547224504845300000002155362302445299076_)"/><path d="m198.3 24.14-92.38 21.793c-3.519.831-7.183.831-10.703 0l-92.38-21.793c1.17-1.125 2.633-1.961 4.296-2.355l91.31-21.539c1.399-.329 2.852-.329 4.251 0l34.094 8.044v4.107h17.418l39.798 9.388c1.663.394 3.126 1.23 4.296 2.355z" fill="url(#SVGID_00000097489675038611175720000006848201299385777822_)"/><path d="m136.788 8.291v4.107l-91.867 21.673-42.084-9.931c1.17-1.125 2.633-1.961 4.296-2.355l91.31-21.539c1.399-.329 2.852-.329 4.251 0z" fill="url(#SVGID_00000049217482421018725320000010782398759091750067_)"/></g><g><path d="m136.788 8.286-98.645 23.273c-1.129.266-1.926 1.274-1.926 2.433l-.007 30.942c0 .674.464 1.26 1.12 1.415l14.516 3.422c.912.215 1.787-.477 1.787-1.415v-30.428c0-1.058.727-1.977 1.757-2.22l98.815-23.311z" fill="url(#SVGID_00000048460584840175577480000000278382994287881353_)"/><path d="m83.146 29.163-27.757 6.546c-.408.095-.767.304-1.055.577l-17.348-4.092c.314-.304.707-.528 1.155-.637l27.578-6.506z" fill="url(#SVGID_00000147221200706890191750000005576690751916404613_)"/><path d="m36.986 32.195 17.343 4.092c-.433.418-.697 1.006-.697 1.643v30.425c0 .941-.876 1.633-1.787 1.414l-14.516-3.42c-.657-.154-1.12-.742-1.12-1.414l.005-30.943c0-.702.294-1.344.772-1.797z" fill="url(#SVGID_00000071525799047077075650000006127269413545161394_)"/><path d="m36.212 50.037-.002 14.898c0 .672.463 1.259 1.12 1.414l14.516 3.42c.911.219 1.787-.473 1.787-1.414v-18.318z" fill="url(#SVGID_00000111170397952824150800000009522327432903886990_)"/></g><g><path d="m11.013 132.429 40.023 9.442c1.326.313 2.596-.693 2.596-2.055v-21.981c0-.979-.673-1.83-1.627-2.055l-40.023-9.44c-1.326-.313-2.596.693-2.596 2.055v21.979c0 .979.674 1.83 1.627 2.055z" fill="url(#SVGID_00000030464591310367157490000000114896215864105641_)"/><path d="m9.386 114.626v15.748c0 .979.673 1.83 1.627 2.055l40.023 9.442c1.326.313 2.596-.693 2.596-2.055v-14.752z" fill="url(#SVGID_00000147900530416303372300000000652406936189769894_)"/><path d="m52.005 115.78-20.325-4.794v26.319l19.355 4.566c1.326.313 2.596-.693 2.596-2.055v-21.981c.001-.979-.672-1.83-1.626-2.055z" fill="url(#SVGID_00000097473225103593765190000002772254278918878141_)"/></g></g><g><g><path d="m270 101.59v105.89c0 4.296-2.957 8.029-7.138 9.015l-91.305 21.539c-1.399.329-2.852.329-4.251 0l-91.305-21.539c-4.181-.986-7.138-4.719-7.138-9.015v-105.89c0-2.584 1.07-4.958 2.827-6.66h195.473v-.01c1.767 1.702 2.837 4.082 2.837 6.67z" fill="url(#SVGID_00000048473747455231749320000002745725333967804083_)"/><path d="m267.163 94.93h-56.523v133.885l52.222-12.32c4.181-.986 7.138-4.719 7.138-9.015v-105.89c0-2.589-1.07-4.968-2.837-6.67z" fill="url(#SVGID_00000127741956136019119300000009670802876023123340_)"/><path d="m169.431 94.93v143.349c-.712 0-1.424-.08-2.126-.244l-91.305-21.539c-4.181-.986-7.138-4.719-7.138-9.015v-105.891c0-2.584 1.07-4.958 2.827-6.66z" fill="url(#SVGID_00000155847929431383867280000000822886512438726033_)"/><path d="m169.431 172.994v65.285c-.712 0-1.424-.08-2.126-.244l-91.305-21.539c-4.181-.986-7.138-4.719-7.138-9.015v-56.982l90.304 21.3c3.376.796 6.82 1.195 10.265 1.195z" fill="url(#SVGID_00000065762308300615430350000009575446680344221119_)"/><path d="m169.431 172.994v65.285c.712 0 1.424-.08 2.126-.244l91.305-21.539c4.181-.986 7.138-4.719 7.138-9.015v-56.982l-90.304 21.3c-3.375.796-6.82 1.195-10.265 1.195z" fill="url(#SVGID_00000129909462918017004490000009738906273332011147_)"/><path d="m267.163 94.93-92.38 21.793c-3.519.831-7.183.831-10.703 0l-92.38-21.793c1.17-1.125 2.633-1.961 4.296-2.355l91.31-21.539c1.399-.329 2.852-.329 4.251 0l34.094 8.044v4.107h17.418l39.798 9.388c1.662.394 3.126 1.23 4.296 2.355z" fill="url(#SVGID_00000158722380714719895420000018219030014175832994_)"/><path d="m205.65 79.08v4.107l-91.867 21.674-42.083-9.931c1.17-1.125 2.633-1.961 4.296-2.355l91.31-21.539c1.399-.329 2.852-.329 4.251 0z" fill="url(#SVGID_00000039830144058598776160000010510547957043434638_)"/></g><g><path d="m205.65 79.075-98.646 23.274c-1.129.266-1.926 1.274-1.926 2.433l-.007 30.941c0 .674.464 1.26 1.12 1.415l14.516 3.422c.912.215 1.787-.477 1.787-1.415v-30.428c0-1.058.728-1.977 1.757-2.22l98.815-23.312z" fill="url(#SVGID_00000063600616837373419220000014431393895333403552_)"/><path d="m152.008 99.953-27.757 6.546c-.408.095-.767.304-1.055.577l-17.348-4.092c.314-.304.707-.528 1.155-.637l27.578-6.506z" fill="url(#SVGID_00000102536729965258770440000008374257957808720777_)"/><path d="m105.848 102.984 17.343 4.092c-.433.418-.697 1.006-.697 1.643v30.425c0 .941-.876 1.633-1.787 1.414l-14.516-3.42c-.657-.154-1.12-.742-1.12-1.414l.005-30.943c.001-.702.294-1.344.772-1.797z" fill="url(#SVGID_00000164490703976973146470000005812734074486082697_)"/><path d="m105.074 120.826-.002 14.898c0 .672.463 1.259 1.12 1.414l14.516 3.42c.911.219 1.787-.473 1.787-1.414v-18.318z" fill="url(#SVGID_00000183238222485527077030000016871528252251754416_)"/></g><g><path d="m79.875 203.218 40.023 9.442c1.326.313 2.596-.693 2.596-2.055v-21.981c0-.979-.673-1.83-1.627-2.055l-40.023-9.44c-1.326-.313-2.596.693-2.596 2.055v21.979c.001.98.674 1.83 1.627 2.055z" fill="url(#SVGID_00000108295507025786889120000005321968274351509692_)"/><path d="m78.249 185.415v15.748c0 .979.673 1.83 1.627 2.055l40.023 9.442c1.326.313 2.596-.693 2.596-2.055v-14.752z" fill="url(#SVGID_00000061438743368314717980000013741403446969732541_)"/><path d="m120.868 186.569-20.325-4.794v26.319l19.355 4.566c1.326.313 2.596-.693 2.596-2.055v-21.981c0-.979-.673-1.83-1.626-2.055z" fill="url(#SVGID_00000163760988493500487170000010399494452180122245_)"/></g></g></g><g><path d="m236.995 438.04c-65.862 0-121.41-44.977-137.562-105.827h12.279c12.774 0 19.865-14.786 11.868-24.747l-29.046-36.182c-6.092-7.589-17.644-7.589-23.737 0l-29.046 36.182c-7.996 9.961-.905 24.747 11.868 24.747h14.964c16.786 77.547 85.915 135.827 168.412 135.827 8.284 0 15-6.716 15-15s-6.716-15-15-15z" fill="url(#SVGID_00000072959450016158829810000016179694869444814211_)"/><path d="m41.752 307.466c-7.996 9.961-.905 24.747 11.868 24.747h14.964s-4.36-24.726-5.774-50.979z" fill="url(#SVGID_00000036972940684488437370000007676204441721086100_)"/><path d="m99.433 332.213h12.279c12.774 0 19.865-14.786 11.868-24.747l-28.128-35.039c.562 36.002 3.981 59.786 3.981 59.786z" fill="url(#SVGID_00000116236343170570666150000005130324897633043091_)"/></g><g><g><path d="m371.808 270.709h-199.768c-8.858 0-16.038 7.181-16.038 16.038v159.723c0 8.858 7.181 16.038 16.038 16.038h199.768c8.858 0 16.039-7.181 16.039-16.038v-159.722c-.001-8.858-7.181-16.039-16.039-16.039z" fill="url(#SVGID_00000044176046104018179250000010358944553546131615_)"/><path d="m371.808 270.709h-95.035v191.8h95.035c8.858 0 16.039-7.181 16.039-16.039v-159.722c-.001-8.858-7.181-16.039-16.039-16.039z" fill="url(#SVGID_00000140720724948514022880000016599236060516094343_)"/><path d="m156.001 344.359v102.111c0 8.858 7.181 16.038 16.038 16.038h135.398 64.37c8.858 0 16.039-7.181 16.039-16.038v-102.111z" fill="url(#SVGID_00000119093481171376285280000004855906170401872813_)"/></g><g><g><path d="m497.446 390.016c-3.568-2.864-5.855-6.991-6.538-11.515-.897-5.937-2.986-11.656-6.166-16.802l-17.928-29.011c-8.052-13.029-22.276-20.96-37.593-20.96h-36.935c-8.034 0-14.547 6.513-14.547 14.547v125.27c0 6.055 4.909 10.964 10.964 10.964h18.632 52.649 17.217-17.557 1.951 15.266 14.331c7.162 0 12.967-5.806 12.967-12.967v-45.53c0-5.442-2.469-10.59-6.713-13.996z" fill="url(#SVGID_00000025425862759907972710000003285543642496030339_)"/><path d="m497.446 390.016c-3.569-2.864-5.855-6.991-6.539-11.515-.897-5.937-2.986-11.656-6.166-16.802l-17.928-29.011c-8.052-13.029-22.276-20.96-37.593-20.96h-3.814v150.782h34.238.34 1.612 15.266.34 13.991c7.162 0 12.967-5.806 12.967-12.967v-45.53c-.001-5.443-2.47-10.591-6.714-13.997z" fill="url(#SVGID_00000109709776432439557430000007681351765044826507_)"/><path d="m497.446 390.016c-3.569-2.864-5.855-6.991-6.539-11.515-.897-5.937-2.986-11.656-6.166-16.802l-17.928-29.011c-8.052-13.029-22.276-20.96-37.593-20.96h-3.814v150.782h34.238.34 1.612 15.266.34 13.991c7.162 0 12.967-5.806 12.967-12.967v-45.53c-.001-5.443-2.47-10.591-6.714-13.997z" fill="url(#SVGID_00000114055545249449525890000016393354039848804272_)"/><path d="m491.192 462.509c7.162 0 12.967-5.806 12.967-12.967v-45.53c0-1.161-.119-2.308-.337-3.428h-126.084v50.961c0 6.055 4.909 10.964 10.964 10.964z" fill="url(#SVGID_00000021811889922327749720000008787421645136193427_)"/><path d="m418.108 421.404h-16.677c-3.957 0-7.164-3.208-7.164-7.164 0-3.957 3.208-7.164 7.164-7.164h16.677c3.957 0 7.164 3.208 7.164 7.164 0 3.957-3.207 7.164-7.164 7.164z" fill="url(#SVGID_00000137117342747339523850000004737654047704615341_)"/><g><path d="m411.682 398.219c-9.618 0-17.415-7.797-17.415-17.415v-36.121c0-9.618 7.797-17.415 17.415-17.415h20.923c9.899 0 19.092 5.126 24.296 13.547l19.767 31.987c3.13 5.065 5.407 10.577 6.77 16.317 1.102 4.643-2.419 9.1-7.191 9.1z" fill="url(#SVGID_00000089573597894473481360000013097283118517950137_)"/></g><g><path d="m411.682 398.219c-9.618 0-17.415-7.797-17.415-17.415v-36.121c0-9.618 7.797-17.415 17.415-17.415h20.923c9.899 0 19.092 5.126 24.296 13.547l19.767 31.987c3.13 5.065 5.407 10.577 6.77 16.317 1.102 4.643-2.419 9.1-7.191 9.1z" fill="url(#SVGID_00000153696989331680889110000016959925425478506370_)"/></g><g><path d="m411.682 398.219c-9.618 0-17.415-7.797-17.415-17.415v-36.121c0-9.618 7.797-17.415 17.415-17.415h20.923c9.899 0 19.092 5.126 24.296 13.547l19.767 31.987c3.13 5.065 5.407 10.577 6.77 16.317 1.102 4.643-2.419 9.1-7.191 9.1z" fill="url(#SVGID_00000015323611104842309240000015318348146014468518_)"/></g></g></g><path d="m475.421 403.322 28.739 28.739v-28.049c0-5.442-2.469-10.59-6.713-13.996-2.265-1.818-4.008-4.146-5.158-6.76l-4.973-4.973z" fill="url(#SVGID_00000103955399930676266290000003844309084312859067_)"/><g><path d="m480.51 375.422c-4.122 0-7.463 3.341-7.463 7.463v14.981c0 4.122 3.341 7.463 7.463 7.463 5.262 0 9.529-4.266 9.529-9.529v-10.85c-.001-5.262-4.267-9.528-9.529-9.528z" fill="url(#SVGID_00000154405219874090379350000007284929933291983530_)"/><path d="m473.047 388.2v9.666c0 4.122 3.341 7.463 7.463 7.463 5.262 0 9.528-4.266 9.528-9.528v-7.6h-16.991z" fill="url(#SVGID_00000138552704029021369930000004402963147825453985_)"/><path d="m480.51 375.422c-.932 0-1.82.178-2.642.49v28.926c.822.312 1.711.49 2.642.49 5.262 0 9.528-4.266 9.528-9.528v-10.85c0-5.262-4.266-9.528-9.528-9.528z" fill="url(#SVGID_00000070806507281783259220000004731211084889814408_)"/></g><g><g><circle cx="438.594" cy="474.297" fill="url(#SVGID_00000058568910583330768490000013986419465974179482_)" r="37.703"/><path d="m400.891 474.297c0 20.823 16.88 37.703 37.703 37.703s37.703-16.88 37.703-37.703c0-4.51-.794-8.833-2.247-12.842h-70.913c-1.452 4.009-2.246 8.332-2.246 12.842z" fill="url(#SVGID_00000052079262753207597570000013728083428384915587_)"/><path d="m411.934 500.957c14.724 14.724 38.596 14.724 53.32 0s14.724-38.596 0-53.32c-3.189-3.189-6.808-5.684-10.669-7.492l-50.143 50.143c1.808 3.861 4.303 7.48 7.492 10.669z" fill="url(#SVGID_00000078738923572185070320000012621026736749468817_)"/></g><circle cx="438.594" cy="474.297" fill="url(#SVGID_00000134969708188625194930000014707933005463990959_)" r="24.3"/><g><circle cx="438.594" cy="474.297" fill="url(#SVGID_00000114038234521141086820000009482823572085610134_)" r="17.924"/><path d="m420.67 474.297c0 9.899 8.025 17.924 17.924 17.924s17.924-8.025 17.924-17.924c0-2.144-.378-4.199-1.068-6.105h-33.713c-.69 1.905-1.067 3.961-1.067 6.105z" fill="url(#SVGID_00000024700492222371530900000000228701821531091614_)"/><path d="m425.92 486.971c7 7 18.349 7 25.349 0s7-18.349 0-25.349c-1.516-1.516-3.236-2.702-5.072-3.562l-23.839 23.839c.859 1.836 2.046 3.556 3.562 5.072z" fill="url(#SVGID_00000177442813191107568540000010440203001581933229_)"/></g></g><g><g><circle cx="222.999" cy="474.297" fill="url(#SVGID_00000097492605612872002110000006938644115238740154_)" r="37.703"/><path d="m185.296 474.297c0 20.823 16.88 37.703 37.703 37.703s37.703-16.88 37.703-37.703c0-4.51-.794-8.833-2.247-12.842h-70.913c-1.452 4.009-2.246 8.332-2.246 12.842z" fill="url(#SVGID_00000041257486896538509940000003476592971942256519_)"/><path d="m196.339 500.957c14.724 14.724 38.596 14.724 53.32 0s14.724-38.596 0-53.32c-3.189-3.189-6.808-5.684-10.669-7.492l-50.143 50.143c1.808 3.861 4.303 7.48 7.492 10.669z" fill="url(#SVGID_00000049920015010464633240000015056798641515805590_)"/></g><circle cx="222.999" cy="474.297" fill="url(#SVGID_00000155128784276957959410000006717347308036300166_)" r="24.3"/><g><circle cx="222.999" cy="474.297" fill="url(#SVGID_00000152258641332568385750000012170748045218721670_)" r="17.924"/><path d="m205.075 474.297c0 9.899 8.025 17.924 17.924 17.924s17.924-8.025 17.924-17.924c0-2.144-.378-4.199-1.068-6.105h-33.713c-.69 1.905-1.067 3.961-1.067 6.105z" fill="url(#SVGID_00000164474339335731612210000016463512878881601440_)"/><path d="m210.325 486.971c7 7 18.349 7 25.349 0s7-18.349 0-25.349c-1.516-1.516-3.236-2.702-5.072-3.562l-23.839 23.839c.859 1.836 2.045 3.556 3.562 5.072z" fill="url(#SVGID_00000055685106346308769640000010695184759740639912_)"/></g></g><g><path d="m512 431.349c0 8.356-6.251 15.13-13.963 15.13s-7.712-30.259 0-30.259 13.963 6.774 13.963 15.129z" fill="url(#SVGID_00000109725936392330002450000000039197588136368260_)"/><path d="m498.037 446.479c7.712 0 13.963-6.774 13.963-15.13 0-2.374-.506-4.619-1.405-6.618h-17.817c-1.509 8.95.244 21.748 5.259 21.748z" fill="url(#SVGID_00000076564176544841773520000004524621075059187848_)"/><path d="m498.037 416.22c-.097 0-.193.008-.287.018v30.224c.095.009.19.018.287.018 7.712 0 13.963-6.774 13.963-15.13s-6.251-15.13-13.963-15.13z" fill="url(#SVGID_00000160889487886638396950000017210931250988090289_)"/></g></g><g><path d="m275.005 73.96c65.862 0 121.41 44.977 137.562 105.827h-12.279c-12.774 0-19.865 14.786-11.868 24.747l29.046 36.182c6.092 7.589 17.644 7.589 23.737 0l29.046-36.182c7.996-9.961.905-24.747-11.868-24.747h-14.964c-16.785-77.547-85.915-135.827-168.412-135.827-8.284 0-15 6.716-15 15s6.716 15 15 15z" fill="url(#SVGID_00000121256044227228891030000003642797691240717476_)"/><path d="m470.248 204.534c7.996-9.961.905-24.747-11.868-24.747h-14.964s4.36 24.726 5.774 50.979z" fill="url(#SVGID_00000165951434381523142310000001764082677928645530_)"/><path d="m412.567 179.787h-12.279c-12.774 0-19.865 14.786-11.868 24.747l28.128 35.039c-.562-36.002-3.981-59.786-3.981-59.786z" fill="url(#SVGID_00000000929297710596990330000006172309697122053254_)"/></g></g><g/><g/><g/><g/><g/><g/><g/><g/><g/><g/><g/><g/><g/><g/><g/></svg>