<svg viewBox="0 0 512 512" xmlns="http://www.w3.org/2000/svg"><g><path d="M270.601 478.905H241.4v27.906l1 4.717c4.502.248 9.036.377 13.601.377 4.564 0 9.098-.129 13.601-.377l1-4.717v-27.906z" fill="#fe9901"></path><path d="M256 22.095c-135.31 0-245 109.69-245 245 0 71.556 30.682 135.94 79.601 180.733l1 .311v-21.673l-57.99-124.36 32.177-15.004 47.125 101.059a6.02 6.02 0 0 0 5.438 3.464h94.05c15.991 0 29 13.009 29 29v59.471h29.201v-59.471c0-15.991 13.009-29 29-29h93.675l52.937-113.522 32.177 15.004-57.99 124.36v30.673l1-.311C470.318 403.035 501 338.651 501 267.095c0-135.309-109.69-245-245-245z" fill="#b6c4cf"></path><path d="m404.417 334.095.258 1.209c.21.985.317 1.982.317 2.963v7.888c0 7.784-6.333 14.116-14.117 14.116h-4.637l-.125.856c-1.823 12.511-11.815 22.64-24.3 24.632l-.842.134v5.73h32.305l26.826-57.529h-15.685z" fill="#bb5d4c"></path><path d="m224.981 51.03 2.349.008 24.802-11.565 3.363-7.211-5.923-16.272a5.173 5.173 0 0 1-.287-1.581l-2.93-6.283c-3.245-6.958-11.516-9.969-18.474-6.724l-8.791 4.099c-6.958 3.245-9.969 11.516-6.724 18.474z" fill="#ea9b58"></path><path d="M228.618 27.032c-3.245-6.958-.234-15.23 6.724-18.474l8.602-4.011C239.95.24 233.49-1.215 227.88 1.401L219.089 5.5c-6.958 3.245-9.969 11.516-6.724 18.474l12.616 27.055 2.349.008 10.253-4.781z" fill="#d88a55"></path><path d="m503.97 5.501-8.791-4.099c-6.958-3.245-15.23-.234-18.474 6.724l-3.761 8.066-1.505-4.136a6.251 6.251 0 0 0-11.747 4.275l5.781 15.883-1.383 2.966.771 1.463 31.05 14.479 2.169-.092 12.616-27.055c3.243-6.958.232-15.23-6.726-18.474z" fill="#ea9b58"></path><path d="m45.587 37.367 2.324-2.187-1.383-2.966 5.781-15.883a6.25 6.25 0 0 0-3.736-8.011 6.25 6.25 0 0 0-8.011 3.736l-1.505 4.136-3.761-8.066C32.051 1.168 23.78-1.843 16.822 1.402L8.03 5.501C1.072 8.745-1.939 17.017 1.306 23.975L13.922 51.03l2.348.009z" fill="#ffbd86"></path><path d="M18.306 23.975c-3.245-6.958-.234-15.23 6.724-18.474l5.856-2.731C26.929-.11 21.571-.813 16.821 1.401l-8.791 4.1C1.072 8.745-1.939 17.017 1.306 23.975L13.922 51.03l2.348.009 12.039-5.614z" fill="#f6a96c"></path><path d="m485.61 247.093-8.791-4.099c-6.958-3.245-15.23-.234-18.474 6.724l-3.761 8.066-1.505-4.136a6.251 6.251 0 0 0-11.747 4.275l5.781 15.883-1.383 2.966.732 1.445 30.98 14.447 2.277-.042 12.616-27.055c3.244-6.958.233-15.229-6.725-18.474z" fill="#fed2a4"></path><path d="m447.112 273.806-1.383 2.966 8.874 4.138 1.22-3.186a9.999 9.999 0 0 0 .059-6.998l-4.503-12.373a6.24 6.24 0 0 1 1.009-6.052 6.246 6.246 0 0 0-7.777-2.204c-3.013 1.365-4.324 4.956-3.193 8.064z" fill="#ffbd86"></path><path d="m65.539 287.218.732-1.445-1.383-2.966 5.781-15.883a6.25 6.25 0 0 0-3.736-8.011 6.25 6.25 0 0 0-8.011 3.736l-1.505 4.136-3.761-8.066c-3.245-6.958-11.516-9.969-18.474-6.724l-8.791 4.099c-6.958 3.245-9.969 11.516-6.724 18.474l12.616 27.055 2.277.042z" fill="#ea9b58"></path><path d="M36.618 274.567c-3.245-6.958-.234-15.23 6.724-18.474l5.884-2.744c-3.955-2.868-9.304-3.567-14.045-1.356l-8.791 4.099c-6.958 3.245-9.969 11.516-6.724 18.474l12.616 27.055 2.277.042 12.07-5.629z" fill="#d88a55"></path><path d="m107.325 335.304.258-1.209H87.701l18.544 39.767.856-2.153a29.672 29.672 0 0 1 7.961-11.277l1.119-.983-1.333-.664c-4.836-2.409-7.841-7.248-7.841-12.63v-7.888c.001-.981.108-1.978.318-2.963z" fill="#bb5d4c"></path><g fill="#97d729"><path d="M252.789 38.063 224.981 51.03l10.881 23.334zM464.089 35.18 412.65 145.492c-.866 7.643-7.363 13.603-15.234 13.603h-71.773c-7.871 0-14.368-5.961-15.234-13.604l-34.271-73.494-20.69 44.37 20.763 44.526c3.051-2.724 6.97-4.265 11.13-4.265 9.257 0 16.789 7.531 16.789 16.789 0 .629-.044 1.285-.141 2.063l-.109.89.873.206a16.71 16.71 0 0 1 12.931 16.325c0 4.691-2.001 9.208-5.49 12.391l-.81.739.81.739c3.489 3.184 5.49 7.7 5.49 12.391 0 4.293-1.651 8.392-4.649 11.541l-.564.593.469.67a14.02 14.02 0 0 1 2.553 8.081v7.888c0 7.784-6.333 14.117-14.117 14.117h-4.637l-.125.856a28.89 28.89 0 0 1-5.084 12.613v17.883h3.867l.191-.755c4.835-19.166 22.033-32.551 41.823-32.551h16.18c23.785 0 43.136 19.351 43.136 43.136v22.186l.546.278a14.06 14.06 0 0 1 7.356 9.4h15.008l11.894-25.506V193.744L498.078 51.03z" fill="#97d729"></path></g><g fill="#8bc727"><path d="m464.089 35.18-50.334 107.941v.635a16.26 16.26 0 0 1-1.903 7.645h8.778a5.002 5.002 0 0 0 4.532-2.887l50.362-108.002zM252.789 38.063 224.981 51.03l10.881 23.334zM287.342 155.629c.11 0 .216.014.325.016l-25.28-54.158-6.939 14.881 20.315 43.566a17.679 17.679 0 0 1 11.579-4.305zM294.618 292.402a44.033 44.033 0 0 1 10.834-19.592v-10.332a15.097 15.097 0 0 1-4.076.572h-3.773a30.112 30.112 0 0 1-6.073 14.194v15.159h3.088z" fill="#8bc727"></path></g><path d="m292.911 5.501-8.791-4.099c-6.958-3.245-15.23-.234-18.474 6.724l-3.761 8.066-1.505-4.136a6.251 6.251 0 0 0-11.747 4.275l5.781 15.883-1.383 2.966 1.849 1.965 29.791 13.892 2.349-.008 12.616-27.055c3.244-6.957.233-15.229-6.725-18.473z" fill="#ffbd86"></path><path d="M266.264 34.103a5 5 0 0 0 .181-3.852l-5.066-13.919a6.218 6.218 0 0 1-.363-2.527l-.547-1.502c-1.171-3.216-4.67-5.119-7.919-4.045a6.25 6.25 0 0 0-3.917 8.074l5.781 15.883-1.383 2.966 1.849 1.965 8.142 3.797z" fill="#f6a96c"></path><path d="M361.53 17.095c-28.843 0-52.226 23.382-52.226 52.225v74.436c0 9.024 7.315 16.339 16.339 16.339h71.773c9.024 0 16.339-7.315 16.339-16.339V69.321c0-28.843-23.382-52.226-52.225-52.226z" fill="#596c76"></path><g fill="#465a61"><path d="M316.154 83.928h4.451v-1.833c0-4.962 4.038-9 9-9h4.945V69.32c0-24.49 16.86-45.034 39.603-50.68a52.305 52.305 0 0 0-12.622-1.545c-28.843 0-52.225 23.382-52.225 52.225v16.261a15.02 15.02 0 0 1 6.848-1.653zM334.549 143.757v-7.04a41.134 41.134 0 0 1-10.854-15.167c.068.166.129.335.2.5h-7.741c-2.469 0-4.792-.604-6.85-1.653v23.36c0 9.024 7.315 16.339 16.339 16.339h25.245c-9.024-.001-16.339-7.316-16.339-16.339z" fill="#465a61"></path></g><path d="M361.53 146.908a40.674 40.674 0 0 1-16.471-3.473v16.724c0 7.024 5.694 12.718 12.718 12.718h7.506c7.024 0 12.718-5.694 12.718-12.718v-16.724a40.674 40.674 0 0 1-16.471 3.473z" fill="#d88a55"></path><path d="M358.91 160.159v-12.341a41.712 41.712 0 0 1-13.852-3.273v15.614c0 7.024 5.694 12.718 12.718 12.718h7.506c1.098 0 2.157-.154 3.173-.415-5.485-1.412-9.545-6.377-9.545-12.303z" fill="#c57a44"></path><g fill="#d88a55"><path d="M320.604 105.983V83.928h-4.451c-8.349 0-15.117 6.768-15.117 15.117v7.888c0 8.349 6.768 15.117 15.117 15.117h7.741a40.696 40.696 0 0 1-3.29-16.067zM406.905 83.928h-4.451v22.055a40.687 40.687 0 0 1-3.29 16.066h7.741c8.349 0 15.117-6.768 15.117-15.117v-7.888c0-8.348-6.768-15.116-15.117-15.116z" fill="#d88a55"></path></g><path d="M377.987 60.125a9.976 9.976 0 0 1 8.245-1.746c9.872 2.317 17.222 11.179 17.222 21.757v25.847c0 23.155-18.77 41.925-41.925 41.925-23.155 0-41.925-18.77-41.925-41.925V82.095c0-5.523 4.477-10 10-10h29.067c2.161 0 4.264-.7 5.994-1.995z" fill="#ea9b58"></path><path d="M336.15 105.983V82.095c0-5.523 4.477-10 10-10h-16.545c-5.523 0-10 4.477-10 10v23.887c0 23.155 18.77 41.925 41.925 41.925a42.15 42.15 0 0 0 8.273-.82c-19.193-3.841-33.653-20.782-33.653-41.104z" fill="#d88a55"></path><path d="M361.531 135.033a23.36 23.36 0 0 1-14.897-5.363 7.501 7.501 0 0 1 9.562-11.558 8.348 8.348 0 0 0 5.588 1.917 8.295 8.295 0 0 0 5.08-1.917 7.501 7.501 0 0 1 9.562 11.558 23.487 23.487 0 0 1-14.895 5.363zM338.333 100.552a7.5 7.5 0 0 1-7.5-7.5v-6.506a7.5 7.5 0 0 1 15 0v6.506a7.5 7.5 0 0 1-7.5 7.5zM384.727 100.552a7.5 7.5 0 0 1-7.5-7.5v-6.506a7.5 7.5 0 0 1 15 0v6.506a7.5 7.5 0 0 1-7.5 7.5zM361.526 113.851a7.467 7.467 0 0 1-4.827-1.763l-6.084-5.124a7.5 7.5 0 0 1-1.174-10.23l6.084-8.132a7.502 7.502 0 0 1 12.011 8.987l-1.843 2.463.668.563a7.5 7.5 0 0 1-4.835 13.236z" fill="#bb5d4c"></path><path d="M105.095 84.928h4.451v-4.792c0-11.771 9.577-21.348 21.348-21.348h39.155c11.771 0 21.348 9.577 21.348 21.348v4.792h4.451c2.485 0 4.819.651 6.85 1.783V52.442c0-15.375-12.464-27.838-27.838-27.838h-48.775c-15.375 0-27.838 12.464-27.838 27.838v34.269a14.01 14.01 0 0 1 6.848-1.783z" fill="#fe9901"></path><path d="M128.549 52.442c0-15.375 12.464-27.838 27.838-27.838h-30.304c-15.375 0-27.838 12.464-27.838 27.838v34.269a14.024 14.024 0 0 1 6.85-1.783h4.451v-4.792c0-10.978 8.332-20.04 19.004-21.212v-6.482z" fill="#fb8801"></path><path d="m80.47 318.589 7.697 16.506h19.19l.208-.724a14.07 14.07 0 0 1 6.28-8.181l1.203-.727-1.081-.898a17.862 17.862 0 0 1-6.468-13.77c0-5.504 2.49-10.626 6.833-14.052l.674-.532-.424-.747a16.339 16.339 0 0 1-2.131-8.05c0-9.013 7.333-16.345 16.345-16.345h4.375l.286-.26c9.057-8.233 20.791-12.768 33.042-12.768s23.985 4.535 33.042 12.768l.286.26h4.375c8.494 0 15.489 6.514 16.267 14.808v-10.358a28.89 28.89 0 0 1-5.084-12.613l-.125-.856h-4.637c-7.784 0-14.117-6.333-14.117-14.117v-7.888c0-2.902.883-5.697 2.553-8.082l.469-.67-.564-.593c-2.998-3.149-4.649-7.247-4.649-11.541 0-4.691 2.001-9.208 5.491-12.391l.81-.739-.81-.739c-3.489-3.184-5.491-7.7-5.491-12.391a16.711 16.711 0 0 1 12.931-16.325l.873-.206-.109-.89a16.61 16.61 0 0 1-.141-2.063c0-9.257 7.532-16.789 16.789-16.789 4.161 0 8.079 1.542 11.13 4.265l51.23-109.864L253.03 35.18l-52.849 113.334a5 5 0 0 1-4.532 2.887h-90.358a5.002 5.002 0 0 1-4.532-2.887L47.911 35.18 13.922 51.03 80.47 193.744z" fill="#fe76a8"></path><g fill="#fe5694"><path d="m253.03 35.18-52.849 113.334a4.991 4.991 0 0 1-4.317 2.871l-.006.015h10.61a10 10 0 0 0 9.063-5.774l48.89-105.136zM80.47 318.589l7.697 16.506h9.284V195.938a9.999 9.999 0 0 0-.918-4.186L36.084 60.616a5.001 5.001 0 0 1 2.428-6.625l14.926-6.96-5.527-11.851-33.989 15.85L80.47 193.744z" fill="#fe5694"></path></g><path d="M162.138 146.908h-23.334c-1.636 0-3.24-.142-4.803-.401v13.652c0 7.024 5.694 12.718 12.718 12.718h7.506c7.024 0 12.718-5.694 12.718-12.718v-13.652a29.41 29.41 0 0 1-4.805.401z" fill="#ffbd86"></path><path d="M147.851 160.159v-13.251h-9.048c-1.636 0-3.24-.142-4.803-.401v13.652c0 7.024 5.694 12.718 12.718 12.718h7.506c1.098 0 2.157-.154 3.173-.415-5.486-1.412-9.546-6.377-9.546-12.303zM398.44 146.501l-8.791-4.099c-6.958-3.245-15.23-.234-18.474 6.724l-3.761 8.066-1.505-4.136a6.251 6.251 0 0 0-11.747 4.275l5.781 15.883-1.383 2.966 2.191 2.125 29.719 13.858 2.08-.134 12.616-27.055c3.243-6.957.233-15.229-6.726-18.473z" fill="#f6a96c"></path><path d="M371.632 175.071c.539-1.19.59-2.544.143-3.772l-5.084-13.968a6.215 6.215 0 0 1-.316-2.995l-.376-1.034c-1.17-3.216-4.67-5.119-7.919-4.045a6.25 6.25 0 0 0-3.917 8.074l5.781 15.883-1.383 2.966 2.191 2.125 7.776 3.626z" fill="#ea9b58"></path><path d="M109.545 117.65V83.928h-4.451c-8.349 0-15.116 6.768-15.116 15.117v7.888c0 8.349 6.768 15.117 15.116 15.117h4.782a29.43 29.43 0 0 1-.331-4.4z" fill="#f6a96c"></path><path d="M195.846 83.928h-4.451v33.722c0 1.495-.114 2.964-.331 4.399h4.782c8.349 0 15.117-6.768 15.117-15.117v-7.888c0-8.348-6.768-15.116-15.117-15.116z" fill="#ffbd86"></path><path d="M162.138 147.908h-23.335c-16.711 0-30.258-13.547-30.258-30.258V80.136c0-12.342 10.005-22.348 22.348-22.348h39.155c12.342 0 22.348 10.005 22.348 22.348v37.514c0 16.711-13.547 30.258-30.258 30.258z" fill="#fed2a4"></path><path d="M128.137 117.65V80.136c0-12.342 10.005-22.348 22.348-22.348h-19.591c-12.342 0-22.348 10.005-22.348 22.348v37.514c0 16.711 13.547 30.258 30.258 30.258h19.591c-16.712 0-30.258-13.547-30.258-30.258z" fill="#ffbd86"></path><path d="m151.486 178.196 1.955-2.015-1.383-2.966 5.781-15.883a6.25 6.25 0 0 0-3.736-8.011 6.25 6.25 0 0 0-8.011 3.736l-1.505 4.136-3.761-8.066c-3.245-6.958-11.516-9.969-18.474-6.724l-8.791 4.099c-6.958 3.245-9.969 11.516-6.724 18.474l12.616 27.055 2.349.008z" fill="#f6a96c"></path><path d="M123.618 164.975c-3.245-6.958-.234-15.23 6.724-18.474l5.984-2.79c-3.948-2.827-9.261-3.508-13.976-1.309l-8.791 4.099c-6.958 3.245-9.969 11.516-6.724 18.474l12.616 27.055 2.349.008 11.859-5.53z" fill="#ea9b58"></path><path d="M150.472 135.033a23.36 23.36 0 0 1-14.897-5.363 7.501 7.501 0 0 1 9.562-11.558 8.351 8.351 0 0 0 5.588 1.917 8.295 8.295 0 0 0 5.08-1.917 7.501 7.501 0 0 1 9.562 11.558 23.487 23.487 0 0 1-14.895 5.363zM127.273 100.552a7.5 7.5 0 0 1-7.5-7.5v-6.506a7.5 7.5 0 0 1 15 0v6.506a7.5 7.5 0 0 1-7.5 7.5zM173.667 100.552a7.5 7.5 0 0 1-7.5-7.5v-6.506a7.5 7.5 0 0 1 15 0v6.506c0 4.143-3.357 7.5-7.5 7.5zM150.466 113.851a7.472 7.472 0 0 1-4.827-1.763l-6.084-5.124a7.5 7.5 0 0 1-1.802-9.237l6.084-11.528a7.5 7.5 0 0 1 13.265 7.001l-3.263 6.184 1.461 1.231a7.5 7.5 0 0 1-4.834 13.236z" fill="#d88a55"></path><path d="M318.684 192.9c0-8.415-5.85-15.449-13.701-17.298.088-.717.148-1.443.148-2.185 0-9.824-7.964-17.789-17.789-17.789-5.628 0-10.637 2.621-13.896 6.7-1.613-8.165-8.807-14.324-17.446-14.324-8.638 0-15.833 6.159-17.446 14.324-3.26-4.08-8.268-6.7-13.896-6.7-9.824 0-17.789 7.964-17.789 17.789 0 .741.06 1.467.148 2.185-7.851 1.849-13.701 8.883-13.701 17.298 0 5.207 2.251 9.877 5.817 13.13-3.566 3.253-5.817 7.923-5.817 13.13 0 5.118 2.173 9.717 5.633 12.962 2.542-3.735 6.827-6.194 11.676-6.194h4.451v-4.792c0-11.771 9.577-21.348 21.348-21.348h39.154c11.771 0 21.348 9.577 21.348 21.348v4.792h4.45c4.849 0 9.133 2.459 11.676 6.194 3.459-3.245 5.633-7.845 5.633-12.962 0-5.207-2.251-9.877-5.817-13.13 3.565-3.253 5.816-7.923 5.816-13.13z" fill="#bb5d4c"></path><path d="M198.227 231.409c2.732-3.914 7.262-6.481 12.397-6.481h3.451v-3.792c0-7.02 3.239-13.28 8.301-17.377-2.334-3.004-3.744-6.759-3.744-10.859 0-7.692 4.888-14.229 11.724-16.709 1.139-.413 1.832-1.54 1.83-2.752v-.022c0-4.867 1.959-9.274 5.126-12.485-3.224-3.27-7.698-5.303-12.653-5.303-9.824 0-17.789 7.964-17.789 17.789 0 .741.06 1.467.148 2.185-7.851 1.849-13.701 8.883-13.701 17.298 0 5.207 2.251 9.877 5.817 13.13-3.566 3.253-5.817 7.923-5.817 13.13-.001 4.751 1.874 9.057 4.91 12.248z" fill="#a44f3e"></path><path d="M337.41 260.095h16.18c2.368 0 4.689.2 6.954.568l32.005-68.634-33.989-15.85-41.52 89.04a42.88 42.88 0 0 1 20.37-5.124z" fill="#26a6fe"></path><path d="m371.542 195.209 16.037 7.478 4.969-10.657-33.989-15.85-41.52 89.04a42.853 42.853 0 0 1 18.704-5.073l29.154-62.521a5 5 0 0 1 6.645-2.417z" fill="#0593fc"></path><path d="M166.5 258.04a49.006 49.006 0 0 1 29.816 10.086l-42.875-91.945-33.989 15.85 31.898 68.405a49.109 49.109 0 0 1 15.15-2.396z" fill="#26a6fe"></path><path d="m141.667 195.887 17.219-8.029-5.445-11.677-33.989 15.85 31.898 68.405a49.186 49.186 0 0 1 13.797-2.368l-25.897-55.536a5 5 0 0 1 2.417-6.645z" fill="#0593fc"></path><path d="M329.187 385.76c-12.485-1.992-22.478-12.121-24.3-24.632l-.125-.856h-4.637c-7.784 0-14.117-6.333-14.117-14.116v-7.888c0-5.327 2.958-10.145 7.721-12.572l.546-.278v-22.186c0-3.739.48-7.368 1.378-10.829h-75.895a16.29 16.29 0 0 1-1.34 3.062l-.424.747.674.532c4.342 3.426 6.833 8.548 6.833 14.052a17.859 17.859 0 0 1-6.468 13.77l-1.081.898 1.203.727c4.282 2.587 6.838 7.102 6.838 12.078v7.888c0 7.784-6.333 14.116-14.117 14.116h-4.637l-.125.856c-1.823 12.511-11.815 22.64-24.3 24.632l-.842.134v5.73h30.429c15.991 0 29 13.009 29 29v59.471h29.201v-59.471c0-15.991 13.009-29 29-29h30.429v-5.73z" fill="#26a6fe"></path><path d="M300.125 417.905s95.57-1.132 97.601 0V303.231c0-24.375-19.76-44.136-44.136-44.136h-16.18c-24.375 0-44.136 19.76-44.136 44.136v22.703c0 21.971 4.365 91.971 6.851 91.971z" fill="#fed402"></path><path d="M359.363 259.483a44.516 44.516 0 0 0-5.773-.388h-16.18c-24.375 0-44.136 19.76-44.136 44.136v117.457a14.027 14.027 0 0 1 6.85-1.783h4.451V319.36c0-10.164 7.147-18.678 16.675-20.816 2.141-20.267 17.997-36.431 38.113-39.061z" fill="#fac600"></path><path d="m479.718 292.622-33.989-15.85-53.09 113.852h-93.038c-16.569 0-30 13.431-30 30v91.089c58.391-3.196 111.334-26.834 151.799-63.886v-30.141z" fill="#7a8c98"></path><g fill="#596c76"><path d="m459.62 283.251-13.892-6.478-53.09 113.852h10.542a10 10 0 0 0 9.063-5.774zM294.882 420.624c0-16.569 13.431-30 30-30H299.6c-16.569 0-30 13.431-30 30v91.089a245.776 245.776 0 0 0 25.282-2.71z" fill="#596c76"></path></g><path d="M112.912 388.16a6.02 6.02 0 0 0 5.438 3.464h32.68v-5.73l-.842-.134c-12.485-1.992-22.478-12.121-24.3-24.632l-.125-.856h-4.637c-2.108 0-4.103-.477-5.901-1.31a30.554 30.554 0 0 0-9.551 13.672z" fill="#465a61"></path><path d="M212.399 390.624h-94.05a5.002 5.002 0 0 1-4.532-2.887L66.271 285.773l-33.989 15.85 58.319 125.065v21.141c40.464 37.052 93.407 60.69 151.799 63.886v-91.089c-.001-16.57-13.432-30.002-30.001-30.002z" fill="#fed402"></path><g fill="#fac600"><path d="M237.45 511.388c1.646.123 3.295.235 4.95.326v-.384c-1.655.008-3.306.027-4.95.058zM107.319 461.816v-32.927c0-1.45-.315-2.883-.924-4.199L53.093 309.469a5 5 0 0 1 2.425-6.631l15.369-7.167-4.616-9.899-33.989 15.85 58.319 125.065v21.141a245.944 245.944 0 0 0 16.718 13.988z" fill="#fac600"></path></g><path d="M267.667 287.908h-23.335c-1.636 0-3.239-.141-4.803-.401v13.652c0 7.024 5.694 12.718 12.718 12.718h7.506c7.024 0 12.718-5.694 12.718-12.718v-13.652a29.37 29.37 0 0 1-4.804.401z" fill="#f6a96c"></path><path d="M253.381 301.159v-13.251h-9.048c-1.636 0-3.239-.141-4.803-.401v13.652c0 7.024 5.694 12.718 12.718 12.718h7.506c1.098 0 2.157-.154 3.173-.415-5.487-1.412-9.546-6.377-9.546-12.303z" fill="#ea9b58"></path><g fill="#f6a96c"><path d="M215.075 258.65v-33.722h-4.451c-8.349 0-15.117 6.768-15.117 15.117v7.888c0 8.349 6.768 15.117 15.117 15.117h4.782a29.43 29.43 0 0 1-.331-4.4zM301.376 224.928h-4.45v33.722c0 1.495-.114 2.964-.331 4.399h4.782c8.349 0 15.116-6.768 15.116-15.117v-7.888c-.001-8.348-6.769-15.116-15.117-15.116z" fill="#f6a96c"></path></g><path d="M267.667 288.908h-23.335c-16.711 0-30.258-13.547-30.258-30.258v-37.514c0-12.342 10.005-22.348 22.348-22.348h39.155c12.342 0 22.348 10.005 22.348 22.348v37.514c0 16.711-13.547 30.258-30.258 30.258z" fill="#ffbd86"></path><path d="M233.666 258.65v-37.514c0-12.342 10.005-22.348 22.348-22.348h-19.591c-12.342 0-22.348 10.005-22.348 22.348v37.514c0 16.711 13.547 30.258 30.258 30.258h19.591c-16.711 0-30.258-13.547-30.258-30.258z" fill="#f6a96c"></path><path d="M256.001 276.033a23.364 23.364 0 0 1-14.897-5.363 7.5 7.5 0 0 1 9.561-11.559 8.342 8.342 0 0 0 5.589 1.917 8.295 8.295 0 0 0 5.081-1.917 7.501 7.501 0 0 1 9.562 11.558 23.487 23.487 0 0 1-14.896 5.364zM232.803 241.552a7.5 7.5 0 0 1-7.5-7.5v-6.506a7.5 7.5 0 0 1 15 0v6.506a7.5 7.5 0 0 1-7.5 7.5zM279.197 241.552a7.5 7.5 0 0 1-7.5-7.5v-6.506a7.5 7.5 0 0 1 15 0v6.506a7.5 7.5 0 0 1-7.5 7.5zM256 254.853c-.804 0-1.622-.13-2.425-.405-5.589-1.909-9.657-6.715-10.616-12.543s1.354-11.684 6.038-15.283l2.432-1.869a7.5 7.5 0 0 1 9.141 11.893l-2.432 1.869c-.13.1-.474.364-.377.955.097.59.508.731.663.784A7.502 7.502 0 0 1 256 254.853z" fill="#d88a55"></path><path d="M106.5 310.795c0 6.233 3.019 11.758 7.672 15.202a14.015 14.015 0 0 1 6.953-1.846h4.451v-4.792c0-11.771 9.577-21.348 21.348-21.348h39.154c11.771 0 21.348 9.577 21.348 21.348v4.792h4.45c2.528 0 4.898.677 6.953 1.846 4.653-3.444 7.672-8.969 7.672-15.202 0-6.022-2.826-11.375-7.213-14.837a17.246 17.246 0 0 0 2.261-8.544c0-9.58-7.766-17.345-17.345-17.345h-3.989c-8.904-8.095-20.733-13.028-33.715-13.028-12.981 0-24.81 4.934-33.715 13.028h-3.989c-9.58 0-17.345 7.766-17.345 17.345 0 3.109.829 6.02 2.261 8.544-4.386 3.462-7.212 8.815-7.212 14.837z" fill="#596c76"></path><path d="M106.5 310.795c0 5.848 2.657 11.072 6.827 14.54a15.022 15.022 0 0 1 7.797-2.184h3.451v-3.792c0-11.659 8.929-21.227 20.321-22.252.423-.401.859-.788 1.317-1.149a17.259 17.259 0 0 1-2.196-10.056c.776-9.046 8.664-15.833 17.743-15.833h1.647c1.157 0 2.29-.387 3.173-1.136a50.07 50.07 0 0 1 16.171-9.2 50.07 50.07 0 0 0-16.25-2.693c-12.981 0-24.81 4.934-33.715 13.028h-3.526c-9.079 0-16.967 6.787-17.743 15.833a17.272 17.272 0 0 0 2.196 10.056c-4.387 3.463-7.213 8.816-7.213 14.838z" fill="#465a61"></path><path d="M178.167 386.131h-23.335c-1.636 0-3.239-.141-4.803-.401v13.652c0 7.024 5.694 12.718 12.718 12.718h7.506c7.024 0 12.718-5.694 12.718-12.718V385.73a29.37 29.37 0 0 1-4.804.401z" fill="#d88a55"></path><path d="M163.881 399.382v-13.251h-9.048c-1.636 0-3.239-.141-4.803-.401v13.652c0 7.024 5.694 12.718 12.718 12.718h7.506c1.098 0 2.157-.154 3.173-.415-5.487-1.412-9.546-6.377-9.546-12.303z" fill="#c57a44"></path><path d="M211.876 323.151h-4.45v33.722c0 1.495-.114 2.964-.331 4.399h4.782c8.349 0 15.116-6.768 15.116-15.117v-7.888c-.001-8.348-6.769-15.116-15.117-15.116z" fill="#d88a55"></path><path d="M125.575 356.873v-33.722h-4.451c-8.349 0-15.117 6.768-15.117 15.116v7.888c0 8.349 6.768 15.117 15.117 15.117h4.782a29.407 29.407 0 0 1-.331-4.399z" fill="#c57a44"></path><path d="M178.167 387.131h-23.335c-16.711 0-30.258-13.547-30.258-30.258v-37.514c0-12.342 10.005-22.348 22.348-22.348h39.155c12.342 0 22.348 10.005 22.348 22.348v37.514c0 16.711-13.547 30.258-30.258 30.258z" fill="#ea9b58"></path><path d="M144.166 356.873v-37.514c0-12.342 10.005-22.348 22.348-22.348h-19.591c-12.342 0-22.348 10.005-22.348 22.348v37.514c0 16.711 13.547 30.258 30.258 30.258h19.591c-16.711 0-30.258-13.547-30.258-30.258z" fill="#d88a55"></path><path d="M166.499 374.256a23.363 23.363 0 0 1-14.895-5.363 7.5 7.5 0 0 1 9.561-11.559 8.322 8.322 0 0 0 5.588 1.917 8.29 8.29 0 0 0 5.081-1.917 7.5 7.5 0 1 1 9.563 11.557 23.47 23.47 0 0 1-14.898 5.365zM143.303 339.776a7.5 7.5 0 0 1-7.5-7.5v-6.507a7.5 7.5 0 0 1 15 0v6.507a7.5 7.5 0 0 1-7.5 7.5zM189.697 339.776a7.5 7.5 0 0 1-7.5-7.5v-6.507a7.5 7.5 0 0 1 15 0v6.507a7.5 7.5 0 0 1-7.5 7.5zM166.496 353.074a7.466 7.466 0 0 1-4.825-1.762l-.416-.35c-5.965-5.023-7.652-13.672-4.013-20.566l2.625-4.975a7.5 7.5 0 0 1 13.266 7.002l-2.625 4.974c-.37.701-.198 1.58.408 2.09l.414.349a7.5 7.5 0 0 1-4.834 13.238z" fill="#bb5d4c"></path><path d="M357.167 386.131h-23.335c-1.636 0-3.239-.141-4.803-.401v13.652c0 7.024 5.694 12.718 12.718 12.718h7.506c7.024 0 12.718-5.694 12.718-12.718V385.73a29.37 29.37 0 0 1-4.804.401z" fill="#ffbd86"></path><path d="M342.881 399.382v-13.251h-9.048c-1.636 0-3.239-.141-4.803-.401v13.652c0 7.024 5.694 12.718 12.718 12.718h7.506c1.098 0 2.157-.154 3.173-.415-5.487-1.412-9.546-6.377-9.546-12.303zM304.575 356.873v-33.722h-4.451c-8.349 0-15.117 6.768-15.117 15.116v7.888c0 8.349 6.768 15.117 15.117 15.117h4.782a29.407 29.407 0 0 1-.331-4.399z" fill="#f6a96c"></path><path d="M390.876 323.151h-4.45v33.722c0 1.495-.114 2.964-.331 4.399h4.782c8.349 0 15.116-6.768 15.116-15.117v-7.888c-.001-8.348-6.769-15.116-15.117-15.116z" fill="#ffbd86"></path><path d="M357.167 387.131h-23.335c-16.711 0-30.258-13.547-30.258-30.258v-37.514c0-12.342 10.005-22.348 22.348-22.348h39.155c12.342 0 22.348 10.005 22.348 22.348v37.514c0 16.711-13.547 30.258-30.258 30.258z" fill="#fed2a4"></path><path d="M323.166 356.873v-37.514c0-12.342 10.005-22.348 22.348-22.348h-19.591c-12.342 0-22.348 10.005-22.348 22.348v37.514c0 16.711 13.547 30.258 30.258 30.258h19.591c-16.711 0-30.258-13.547-30.258-30.258z" fill="#ffbd86"></path><path d="M345.499 374.256a23.363 23.363 0 0 1-14.895-5.363 7.5 7.5 0 0 1 9.561-11.559 8.32 8.32 0 0 0 5.588 1.917 8.29 8.29 0 0 0 5.081-1.917 7.5 7.5 0 0 1 9.563 11.557 23.47 23.47 0 0 1-14.898 5.365zM322.303 339.776a7.5 7.5 0 0 1-7.5-7.5v-6.507a7.5 7.5 0 0 1 15 0v6.507a7.5 7.5 0 0 1-7.5 7.5zM368.697 339.776a7.5 7.5 0 0 1-7.5-7.5v-6.507a7.5 7.5 0 0 1 15 0v6.507a7.5 7.5 0 0 1-7.5 7.5zM345.496 353.074a7.472 7.472 0 0 1-4.827-1.763l-6.084-5.124a7.5 7.5 0 0 1-1.802-9.237l6.084-11.529a7.5 7.5 0 0 1 13.265 7.001l-3.264 6.184 1.462 1.231a7.5 7.5 0 0 1-4.834 13.237z" fill="#d88a55"></path></g></svg>