<svg viewBox="0 0 497.003 497.003" xmlns="http://www.w3.org/2000/svg"><g><path d="M485.4 151.051c-8.069-1.878-347.041-80.539-347.041-80.539l-6.8 29.219 365.05 69.329c1.878-8.068-3.141-16.132-11.209-18.009z" fill="#d8ab8c"></path><path d="M131.559 99.731S470.531 178.392 478.6 180.27s16.132-3.141 18.01-11.21c-7.701-1.792-332.071-77.073-361.65-83.938z" fill="#c38778"></path><path d="M93.071 3.493C56.155-5.098 22.599.413 7.349 40.013c-3.801 42.265 7.218 72.291 57.668 84.032 50.45 11.74 73.594-10.336 88.844-49.936 3.801-42.265-23.875-62.026-60.79-70.616zM57.546 154.237c-1.503 10.238-6.01 61.825-6.01 70.841 0 10.172 21.978 14.391 29.251 4.578a23.34 23.34 0 0 0 1.206-7.482c0-9.257-5.193-50.695-5.032-63.873-.263-6.936-17.912-14.302-19.415-4.064z" fill="#ffc250"></path><path d="M68.139 110.63c-36.916-8.591-64.591-28.352-60.79-70.616-1.684 4.372-3.149 9.153-4.366 14.384-8.205 35.256.898 59.602 22.606 70.963 17.437 9.125 22.389 21.218 22.255 34.082-.135 12.864-5.032 53.741-5.032 62.731 0 12.142 8.432 20.627 19.591 20.627 8.681 0 15.69-5.148 18.385-13.145-10.036 6.064-21.906.364-21.906-8.641 0-7.981 3.99-53.65 5.321-62.713 1.33-9.064 12.497-6.936 12.76 0 .152-12.419 3.76-15.193 22.852-15.667 24.494-.609 43.41-18.435 51.615-53.69 1.217-5.231 2.014-10.168 2.434-14.834-15.253 39.598-48.81 45.109-85.725 36.519z" fill="#e69642"></path><path d="m116.639 269.001 298.737-10c-19.371-39.827-45.818-60.007-45.818-60.007l-104.06-14.691-104.06 14.687c.001 0-29.879 26.347-44.799 70.011z" fill="#f7f9fa"></path><path d="M161.439 198.99s-26.449 20.181-45.82 60.011l4.672 3 6.349-3c13.563-39.705 34.799-60.011 34.799-60.011z" fill="#dce6eb"></path><path d="M435.398 347.599c0-36.029-8.831-65.589-20.022-88.597H126.639c-11.021 18.545-21.04 41.517-21.04 68.593 0 92.059 58.415 159.401 58.415 159.401L392.798 477a58.999 58.999 0 0 0 5.206-6.772c16.745-25.434 37.394-67.896 37.394-122.629z" fill="#ffe07d"></path><path d="M161.221 461.893c-17.193-22.749-45.622-70.076-45.622-134.298 0-27.077 4.677-49.967 11.04-68.593h-11.021c-11.19 23.008-20.019 52.566-20.019 88.593 0 54.733 20.649 97.195 37.393 122.629 11.044 16.776 29.874 26.772 49.958 26.772l165.096.004c17.21 0 33.494-7.345 44.752-20l-201.141-.004c-11.95 0-23.231-5.569-30.436-15.103zM325.576 222.632c-1.503 10.238-6.01 61.825-6.01 70.841 0 10.172 21.978 14.391 29.251 4.578a23.34 23.34 0 0 0 1.206-7.482c0-9.257-5.193-50.695-5.032-63.873-.262-6.936-17.912-14.302-19.415-4.064z" fill="#ffc250"></path><path d="M330.432 181.196c-10.866 0-61.552 10.699-38.103 17.805 18.487 5.603 23.68 15.972 23.545 28.836s-5.032 53.741-5.032 62.731c0 12.142 8.432 20.627 19.591 20.627 8.681 0 15.69-5.148 18.385-13.145-10.036 6.064-21.906.364-21.906-8.641 0-7.981 3.99-53.65 5.321-62.713 1.33-9.064 12.497-6.936 12.76 0 .152-12.419 5.058-22.905 23.544-27.695 23.717-6.144-27.239-17.805-38.105-17.805z" fill="#e69642"></path><path d="M363.136 154.001H172.864l-5 30 210.273-5v-10c-.001-8.284-6.716-15-15.001-15z" fill="#d8ab8c"></path><g fill="#c38778"><path d="M172.864 171.501v-17.5h-5c-8.284 0-15 6.716-15 15v22.5a7.5 7.5 0 0 0 7.5 7.5h210.273a7.5 7.5 0 0 0 7.5-7.5v-12.5H180.364a7.5 7.5 0 0 1-7.5-7.5zM75.443 112.33a7.5 7.5 0 1 1-14.609-3.401l18.132-77.918a7.5 7.5 0 1 1 14.609 3.401zM114.623 112.078a7.5 7.5 0 1 1-14.609-3.401l13.996-60.141a7.498 7.498 0 0 1 9.004-5.604 7.5 7.5 0 0 1 5.605 9.005zM40.401 94.805a7.5 7.5 0 1 1-14.609-3.401l13.996-60.141a7.498 7.498 0 0 1 9.004-5.604 7.5 7.5 0 0 1 5.605 9.005z" fill="#c38778"></path></g></g></svg>