<svg viewBox="0 0 512.001 512.001" xmlns="http://www.w3.org/2000/svg"><g><path d="M202.697 381.087c-.26-.26-.532-.503-.795-.759l178.426-178.426c.256.263.499.535.759.795 29.948 29.948 78.504 29.948 108.453 0s29.949-78.504 0-108.453c-13.767-13.767-31.469-21.188-49.485-22.297-1.109-18.017-8.529-35.718-22.297-49.485-29.948-29.948-78.504-29.948-108.453 0s-29.949 78.504 0 108.453c.26.26.532.503.795.759L131.673 310.099c-.256-.263-.499-.535-.759-.795-29.948-29.948-78.504-29.948-108.453 0-29.949 29.948-29.949 78.504 0 108.453 13.768 13.768 31.469 21.188 49.485 22.297 1.109 18.017 8.53 35.718 22.297 49.485 29.948 29.948 78.504 29.948 108.453 0s29.95-78.505.001-108.452z" fill="#fed9a8"></path><path d="M489.54 94.244a76.916 76.916 0 0 0-10.339-8.657c20.949 29.912 18.087 71.426-8.628 98.141-29.948 29.949-78.504 29.949-108.453 0-.26-.26-.503-.532-.759-.795L182.934 361.361c.263.256.535.499.795.759 29.949 29.948 29.948 78.504 0 108.453-26.716 26.716-68.229 29.577-98.141 8.628a76.928 76.928 0 0 0 8.657 10.339c29.949 29.948 78.504 29.948 108.453 0 29.948-29.948 29.949-78.504 0-108.453-.26-.26-.532-.503-.795-.759l178.426-178.426c.256.263.499.535.759.795 29.949 29.949 78.504 29.948 108.453 0 29.947-29.949 29.947-78.505-.001-108.453z" fill="#edc391"></path></g></svg>