<svg viewBox="0 0 512 512" xmlns="http://www.w3.org/2000/svg"><g><path d="M259 125.97v300.129h15l7.5-155.264L274 125.97z" fill="#faf7f8"></path><path d="M274 125.97h15v300.129h-15z" fill="#ebecf2"></path><path d="M274 0H35.924l19.839 64.025L274 98.013l25.491-66z" fill="#a35d62"></path><path d="M274 0v98.013l218.237-33.988L512 0z" fill="#823448"></path><path d="M223.018 461.019C223.018 489.13 245.889 512 274 512l15-50.981-15-50.981c-28.111-.001-50.982 22.869-50.982 50.981z" fill="#62617d"></path><path d="m133.971 407.454-29.239-6.711 61.452-275.73h30.735z" fill="#faf7f8"></path><path d="M386.086 125.97h30v300.129h-30z" fill="#ebecf2"></path><path d="M401.983 512c-28.111 0-50.981-22.87-50.981-50.981s22.87-50.981 50.981-50.981 50.981 22.87 50.981 50.981S430.094 512 401.983 512z" fill="#584a6d"></path><path d="M113.914 491.062c-28.111 0-50.981-22.87-50.981-50.981s22.87-50.981 50.981-50.981 50.981 22.87 50.981 50.981-22.87 50.981-50.981 50.981z" fill="#62617d"></path><path d="M30 437.08H0c0-48.269 32.39-91.206 78.767-104.417l8.219 28.853C53.434 371.073 30 402.146 30 437.08z" fill="#ebecf2"></path><path d="M55.763 64.025V132H274l20.227-27.748L274 64.025z" fill="#ba7d68"></path><path d="M274 64.025h218.237V132H274z" fill="#a35d62"></path><path d="M274 512c28.111 0 50.981-22.87 50.981-50.981s-22.87-50.981-50.981-50.981z" fill="#584a6d"></path></g></svg>