<svg viewBox="0 0 512 512" xmlns="http://www.w3.org/2000/svg"><g><path d="M284 176v192H28V176z" fill="#46508c"></path><path d="M76 336H28c-8.837 0-16 7.163-16 16v16h80v-16c0-8.837-7.164-16-16-16zM180 336h-48c-8.837 0-16 7.163-16 16v16h80v-16c0-8.837-7.164-16-16-16zM284 336h-48c-8.837 0-16 7.163-16 16v16h80v-16c0-8.837-7.164-16-16-16z" fill="#73cddc"></path><path d="M300 368H12v16c0 8.837 7.163 16 16 16h256c8.837 0 16-7.163 16-16zM76 208v128H28V208zM180 208v128h-48V208zM284 208v128h-48V208z" fill="#5f78be"></path><path d="M156 48a48.003 48.003 0 0 0-28.8 9.6L18.4 139.2A16 16 0 0 0 12 152v24h288v-24a16 16 0 0 0-6.4-12.8L184.8 57.6A48.003 48.003 0 0 0 156 48z" fill="#73cddc"></path><path d="m141.6 76.8-76.8 57.6A5.333 5.333 0 0 0 68 144h176a5.333 5.333 0 0 0 3.2-9.6l-76.8-57.6a23.997 23.997 0 0 0-28.8 0zM76 208H28c-8.837 0-16-7.163-16-16v-16h80v16c0 8.837-7.164 16-16 16zM180 208h-48c-8.837 0-16-7.163-16-16v-16h80v16c0 8.837-7.164 16-16 16zM284 208h-48c-8.837 0-16-7.163-16-16v-16h80v16c0 8.837-7.164 16-16 16z" fill="#5f78be"></path><path d="M52 336H28V224h8c8.837 0 16 7.163 16 16zM156 336h-24V224h8c8.837 0 16 7.163 16 16zM260 336h-24V224h8c8.837 0 16 7.163 16 16z" fill="#73cddc"></path><path d="M348 336H76c-13.255 0-24-10.745-24-24s10.745-24 24-24h272zM444 376h-96V248h96z" fill="#faa51e"></path><path d="M444 376h-48V248h48z" fill="#f06423"></path><path d="M348 216h96c8.837 0 16 7.163 16 16s-7.163 16-16 16h-96c-8.837 0-16-7.163-16-16s7.163-16 16-16zM348 376h96c8.837 0 16 7.163 16 16s-7.163 16-16 16h-96c-8.837 0-16-7.163-16-16s7.163-16 16-16zM476 464H316v-16a8 8 0 0 1 8-8h144a8 8 0 0 1 8 8zM444 416h-96a8 8 0 0 0-8 8v16h112v-16a8 8 0 0 0-8-8z" fill="#faa51e"></path><path d="M348 336H76c-13.255 0-24-10.745-24-24h296zM444 248h-96c-8.837 0-16-7.163-16-16h128c0 8.837-7.164 16-16 16zM444 408h-96c-8.837 0-16-7.163-16-16h128c0 8.837-7.164 16-16 16z" fill="#f06423"></path><path d="M476 400a8 8 0 0 1-5.657-13.657l16-16a8 8 0 0 1 11.314 11.314l-16 16A7.974 7.974 0 0 1 476 400zM316 400a7.974 7.974 0 0 1-5.657-2.343l-16-16a8 8 0 0 1 11.314-11.314l16 16A8 8 0 0 1 316 400z" fill="#faa51e"></path><path d="M398.667 440H452v-16h-45.333a8 8 0 0 0-8 8zM398.667 464H476v-16h-69.333a8 8 0 0 0-8 8z" fill="#f06423"></path></g></svg>