<svg viewBox="0 0 16.933 16.933" xmlns="http://www.w3.org/2000/svg"><g><path d="M7.465 9.321a.248.248 0 0 0-.247.24c-.017.525-.069 1.004-.234 1.833a.248.248 0 0 0 .243.297h2.48a.248.248 0 0 0 .243-.297c-.166-.83-.217-1.308-.235-1.833a.248.248 0 0 0-.249-.24h-2z" fill="#ffca28"></path><path d="M7.465 9.321a.248.248 0 0 0-.247.24c-.004.114-.01.227-.018.342a12.888 12.888 0 0 1-.216 1.492.248.248 0 0 0 .243.296h.53a.248.248 0 0 1-.244-.296c.08-.4.132-.716.168-.997.254.054.516.086.786.086.456 0 .892-.082 1.299-.228a8.827 8.827 0 0 1-.05-.695.248.248 0 0 0-.25-.24h-2z" fill="#ecb200"></path><g fill="#ffc400"><path d="M11.906 2.91v.53h2.91v.943a3.563 3.563 0 0 1-3.57 3.572 3.52 3.52 0 0 1-.433.505 4.093 4.093 0 0 0 4.533-4.077V3.176a.264.264 0 0 0-.264-.266zM5.027 2.91v.53h-2.91v.943a3.563 3.563 0 0 0 3.57 3.572c.13.182.274.351.433.505a4.093 4.093 0 0 1-4.533-4.077V3.176c0-.146.118-.265.264-.266z" fill="#ffc400"></path><path d="M4.497 1.864v3.999c0 2.259 1.77 4.092 3.97 4.092 2.198 0 3.967-1.833 3.967-4.092v-4H4.497z" fill="#ffc400"></path></g><path d="M8.474 3.136a.246.25 0 0 0-.05.003.246.25 0 0 0-.18.14l-.471 1.006-1.08.14a.246.25 0 0 0-.136.43l.792.766-.201 1.084a.246.25 0 0 0 .36.266l.958-.527.955.527a.246.25 0 0 0 .36-.266l-.197-1.084.792-.766a.246.25 0 0 0-.137-.426l-1.083-.144-.467-1.006a.246.25 0 0 0-.215-.143z" fill="#eeeeee"></path><path d="M4.497 1.864v4c0 2.258 1.77 4.09 3.97 4.09.09 0 .176-.007.264-.013-2.074-.14-3.705-1.91-3.705-4.078V2.794h6.998a.926.926 0 0 0 .41-.1v-.83H4.497z" fill="#ecb200"></path><path d="M6.584 11.377a.235.222 0 0 0-.234.223v1.11a.235.222 0 0 0 .234.22h3.765a.235.222 0 0 0 .234-.22V11.6a.235.222 0 0 0-.234-.223z" fill="#ffca28"></path><path d="M6.584 11.377c-.13 0-.234.1-.234.223v1.11c0 .121.105.22.234.22h.295V11.6c0-.123.104-.222.234-.223z" fill="#ecb200"></path><path d="M5.563 12.434c-.59 0-1.066.495-1.066 1.09v2.63a.248.248 0 0 0 .249.25h7.441a.248.248 0 0 0 .247-.25v-2.63c0-.595-.474-1.09-1.063-1.09z" fill="#356287"></path><path d="M5.986 13.676a.248.248 0 0 0-.248.247v.992a.248.248 0 0 0 .248.25h4.962a.248.248 0 0 0 .247-.25v-.992a.248.248 0 0 0-.223-.247.248.248 0 0 0-.024 0z" fill="#ffca28"></path><path d="M5.562 12.434c-.589 0-1.065.495-1.065 1.09v2.63a.248.248 0 0 0 .249.25h.53a.248.248 0 0 1-.25-.25v-2.63c0-.595.476-1.09 1.066-1.09z" fill="#2c5170"></path><path d="M5.986 13.676a.248.248 0 0 0-.247.247v.992a.248.248 0 0 0 .247.25h.529a.248.248 0 0 1-.247-.25v-.992a.248.248 0 0 1 .247-.247z" fill="#ecb200"></path><path d="M4.91.53c-.491 0-.907.382-.907.867s.416.868.906.868h7.115c.49 0 .907-.383.907-.868s-.416-.868-.907-.868z" fill="#ffc400"></path><path d="M4.91.53c-.491 0-.907.382-.907.867s.416.868.906.868h.53c-.49 0-.907-.383-.907-.868s.416-.868.906-.868z" fill="#ecb200"></path></g></svg>