<svg id="Capa_1" enable-background="new 0 0 512 512" height="512" viewBox="0 0 512 512" width="512" xmlns="http://www.w3.org/2000/svg"><path d="m217.69 462.078c-9.979-9.333-10.176-24.995-.592-34.578l-16.279 16.279c-9.39 9.39-24.615 9.39-34.005 0-9.39-9.39-9.39-24.615 0-34.006l-22.791 22.791c-9.39 9.39-24.615 9.39-34.005 0-9.39-9.39-9.39-24.615 0-34.006l22.791-22.791c-9.584 9.584-25.244 9.386-34.578-.592-8.928-9.544-8.223-24.619 1.018-33.859l84.569-84.569c-11.188 11.189-29.329 11.189-40.517 0-11.189-11.189-11.189-29.329 0-40.518l56.061-56.061c20.041-20.041 46.774-31.98 75.075-33.528l48.661-2.661 77.399-77.399c3.969-3.969 10.405-3.969 14.375 0l94.155 94.155c3.969 3.969 3.969 10.405 0 14.375l-77.399 77.399-20.861 50.287c-8.917 21.495-21.975 41.026-38.43 57.481l-120.788 120.783c-9.241 9.241-24.315 9.945-33.859 1.018z" fill="#e89a5e"/><g fill="#d68a5a"><path d="m370.074 295.4c-3.058 3.361-6.681 6.084-10.66 8.073 6.126 13.445 3.665 29.864-7.372 40.901-2.304 2.304-4.848 4.251-7.592 5.843 2.764 3.56 4.827 7.571 6.094 11.854l-45.361 45.361c-4.272-1.267-8.283-3.33-11.843-6.094-1.864 3.225-4.251 6.188-7.099 8.785-6.597 6.01-15.215 9.319-24.251 9.319-9.843 0-19.487-4-26.461-10.974l-101.718-101.717 50-50c-11.183 11.183-29.33 11.183-40.513 0-5.602-5.602-8.398-12.932-8.398-20.262s2.796-14.66 8.398-20.262l56.063-56.063c15.005-15.005 33.749-25.466 54.094-30.419l114.953 114.953c14.022 14.021 14.755 36.294 1.666 50.702z"/><path d="m189.686 341.505-84.377 84.388c-3.749-7.853-2.984-17.288 2.262-24.482l.021-.021 70.995-70.984c3.068-3.068 8.042-3.068 11.099 0 3.068 3.067 3.068 8.031 0 11.099z"/><path d="m154.984 307.85-60.985 60.984c-3.885-8.639-2.272-19.162 4.314-26.513l45.571-45.571c3.068-3.068 8.042-3.068 11.1 0 3.068 3.069 3.068 8.032 0 11.1z"/><path d="m223.696 375.515-61.592 61.592c-1.56-3.257-2.335-6.796-2.335-10.335 0-4.974 1.539-9.937 4.597-14.136l.01-.021 48.21-48.209c3.068-3.068 8.042-3.068 11.11 0 3.068 3.067 3.068 8.041 0 11.109z"/><path d="m257.696 409.516-45.309 45.319c-3.738-7.853-2.974-17.309 2.283-24.503l31.927-31.916c3.068-3.068 8.042-3.068 11.099 0 3.068 3.068 3.068 8.042 0 11.1z"/></g><path d="m326.961 287.042 15.456 15.444c8.907 8.918 8.907 23.359 0 32.265-4.459 4.459-10.296 6.689-16.144 6.689-5.837 0-11.673-2.23-16.133-6.689l21.631 21.631c8.907 8.907 8.907 23.359 0 32.265-4.448 4.459-10.296 6.689-16.133 6.689s-11.685-2.23-16.133-6.689l-21.631-21.619c9.175 9.164 8.907 24.199-.794 33.024-9.094 8.277-23.242 7.471-31.927-1.214l-101.711-101.71-38.452 38.441-31.693-31.693c-19.016-19.016-30.351-44.382-31.822-71.243l-2.521-46.168-35.977-35.979c-3.969-3.969-3.969-10.405 0-14.375l88.608-88.608c3.969-3.969 10.405-3.969 14.375 0l35.977 35.977 47.721 19.787c20.394 8.463 38.931 20.86 54.538 36.468l114.586 114.586c8.685 8.685 9.479 22.833 1.214 31.927-8.825 9.7-23.86 9.957-33.035.794z" fill="#fdd1a7"/><path d="m360 286.248c-3.152 3.466-7.1 5.728-11.288 6.775 1.906-7.738-.325-16.325-6.314-22.314l-114.587-114.587c-15.602-15.613-34.147-28.011-54.534-36.471l-47.728-19.791-43.162-43.162 9.2-9.194c3.97-3.967 10.404-3.966 14.372.002l35.977 35.977 47.717 19.78c20.398 8.471 38.932 20.859 54.545 36.471l114.587 114.587c8.681 8.681 9.477 22.838 1.215 31.927z" fill="#ffbc8a"/><path d="m281.885 393.861-93.875-93.864c-3.068-3.068-3.068-8.042 0-11.11s8.042-3.068 11.11 0l81.613 81.613c4.681 7.005 5.068 16.021 1.152 23.361z" fill="#ffbc8a"/><path d="m143.131 297.431-11.1 11.11-13.874-13.864c-3.068-3.068-3.068-8.042 0-11.11s8.042-3.068 11.11 0z" fill="#ffbc8a"/><path d="m335.791 383.233-115.508-115.509c-3.068-3.068-3.068-8.042 0-11.11s8.042-3.068 11.11 0l103.225 103.236c4.691 7.006 5.079 16.032 1.173 23.383z" fill="#ffbc8a"/><path d="m346.419 329.327-93.875-93.875c-3.058-3.068-3.058-8.031 0-11.099 3.068-3.068 8.042-3.068 11.11 0l81.571 81.56.021.031c4.702 7.006 5.089 16.042 1.173 23.383z" fill="#ffbc8a"/></svg>