<svg id="Layer_1" enable-background="new 0 0 470.785 470.785" height="512" viewBox="0 0 470.785 470.785" width="512" xmlns="http://www.w3.org/2000/svg"><g><g><path d="m269.468 470.585c-3.74.13-7.61.2-11.62.2-138.93 0-129.78-69.8-129.78-69.8s13.85-43.94 13.3-84.75c-.168-12.555-1.628-24.904-5.83-36.58-16.62-44.87 219.38-44.87 219.38-44.87s-3.19 28.04.9 68.13v.01c2.51 24.66 7.78 53.87 18.22 83.93 0 0 21.44 79.16-104.57 83.73z" fill="#52528c"/><path d="m355.818 302.915c0 .101-11.775 5.949-29.29 12.03-59.547 20.638-126.393 25.548-185.16 1.29-.159-12.632-1.651-24.967-5.83-36.58-16.62-44.87 219.38-44.87 219.38-44.87s-3.19 28.04.9 68.13z" fill="#f79fb2"/><path d="m269.468 470.585c-3.74.13-7.61.2-11.62.2-138.93 0-129.78-69.8-129.78-69.8s13.85-43.94 13.3-84.75c37.84 15.62 76.33 18.21 110.06 15.16-12.91 41.53-15.9 92.77 18.04 139.19z" fill="#404077"/><path d="m294.238 248.685s-27.97 34.93-42.81 82.71c-33.73 3.05-72.22.46-110.06-15.16-.104-8.229-.848-15.68-1.77-20.93-1.393-8.542-3.695-14.569-3.79-14.9 26.58-12.03 46.98-17.4 46.98-17.4z" fill="#fa8292"/><path d="m242.989 144.113s109.439 18.376 170.101 54.939c49.986 30.129-24.098 39.472-70.218 51.936s-210.376 84.067-271.869 0 76.524-128.48 171.986-106.875z" fill="#52528c"/><path d="m335.398 223.979c-32.24 22.32-99.98 27.46-149.28 27.99-56.07-1.89-89.68-51.76-9.03-72.03 82.69-20.77 212.26 6.711 158.31 44.04z" fill="#404077"/><path d="m271.798 245.395c-19.917 3.337-42.129 5.153-62.31 5.96-81.841-89.147-97.872-274.214-34.95-249.02 23.27 9.31 39.15 30 49.94 52.71 19.33 40.71 22.35 87.94 22.35 87.94 9.139 37.492 4.179 17.148 24.97 102.41z" fill="#fbf5f7"/><path d="m251.888 248.175c-8.557.993-18.336 1.82-26.83 2.37-13.966-36.581-50.425-135.325-53.85-174.27-4.169-47.628 47.221-23.989 74.8 160.69z" fill="#f79fb2"/><path d="m271.798 245.395c-6.551 1.098-13.688 2.075-19.91 2.78l-5.88-11.21c-6.626-44.37-17.96-101.137-35.88-142.27 5.07-16.81 10.49-30.62 14.35-39.65 19.33 40.71 22.35 87.94 22.35 87.94 9.139 37.492 4.179 17.148 24.97 102.41z" fill="#ede3e7"/><path d="m225.058 250.545c-5.26.34-10.46.61-15.57.81-11.18-25.65-14.33-53.61-13.11-80.47 9.014 26.563 17.874 51.355 28.68 79.66z" fill="#ede3e7"/><path d="m251.888 248.175c-8.557.993-18.336 1.82-26.83 2.37-10.777-28.227-19.642-53.025-28.68-79.66 1.27-27.85 7.22-54.51 13.75-76.19 17.919 41.133 29.254 97.9 35.88 142.27z" fill="#fa8292"/><path d="m323.748 185.16c-11.92 27.02-24.95 46.68-31.85 56.22-14.375 3.431-30.135 5.813-44.67 7.31-24.35-207.817 92.393-312.859 101.4-200.73 4.35 54.159-9.32 101.94-24.88 137.2z" fill="#fbf5f7"/><path d="m273.418 245.13c-4.05.7-8.16 1.32-12.3 1.89-1.071-123.957 61.712-232.525 64.18-169.07 1.878 48.106-30.342 124.181-51.88 167.18z" fill="#f79fb2"/><g fill="#fae26b"><path d="m359.999 57.985-16.891-13.523c-3.103-2.484-2.011-7.448 1.849-8.4l21.008-5.182c1.533-.378 2.781-1.486 3.338-2.963l7.641-20.243c1.404-3.719 6.463-4.214 8.56-.838l11.42 18.378c.833 1.341 2.273 2.186 3.849 2.259l21.614 1.012c3.971.186 6.005 4.844 3.442 7.883l-13.95 16.54c-1.018 1.207-1.376 2.837-.959 4.359l5.717 20.868c1.05 3.834-2.751 7.208-6.433 5.709l-20.041-8.156c-1.462-.595-3.123-.432-4.442.435l-18.08 11.886c-3.322 2.184-7.705-.39-7.418-4.354l1.564-21.581c.112-1.573-.556-3.103-1.788-4.089z"/><path d="m172.2 388.922-9.337-19.519c-1.715-3.586 1.426-7.582 5.315-6.762l21.172 4.462c1.545.326 3.15-.13 4.294-1.218l15.678-14.912c2.88-2.739 7.652-.987 8.074 2.966l2.299 21.515c.168 1.57 1.097 2.956 2.485 3.708l19.027 10.303c3.495 1.893 3.303 6.972-.325 8.595l-19.751 8.835c-1.441.645-2.472 1.957-2.758 3.509l-3.919 21.279c-.72 3.909-5.61 5.296-8.275 2.347l-14.506-16.054c-1.058-1.171-2.625-1.747-4.19-1.539l-21.449 2.848c-3.94.523-6.77-3.699-4.789-7.145l10.786-18.757c.787-1.369.85-3.037.169-4.461z"/><path d="m53.439 93.068-26.172-.589c-4.808-.108-7.405-5.683-4.394-9.433l16.387-20.415c1.195-1.489 1.582-3.472 1.032-5.301l-7.527-25.073c-1.383-4.606 3.116-8.799 7.614-7.094l24.48 9.276c1.786.677 3.79.431 5.36-.656l21.52-14.907c3.953-2.739 9.331.245 9.1 5.049l-1.258 26.148c-.092 1.908.761 3.738 2.28 4.895l20.827 15.86c3.826 2.914 2.651 8.95-1.99 10.215l-25.257 6.884c-1.843.502-3.32 1.879-3.951 3.682l-8.648 24.709c-1.589 4.539-7.693 5.287-10.33 1.264l-14.351-21.894c-1.047-1.597-2.813-2.577-4.722-2.62z"/><path d="m365.34 394.126-18.752-7.595c-3.445-1.395-3.795-6.135-.592-8.021l17.434-10.264c1.272-.749 2.094-2.075 2.198-3.548l1.429-20.181c.262-3.707 4.662-5.505 7.445-3.041l15.149 13.409c1.105.978 2.621 1.35 4.053.994l19.634-4.878c3.607-.896 6.676 2.733 5.193 6.141l-8.072 18.551c-.589 1.353-.474 2.91.307 4.162l10.706 17.166c1.967 3.154-.536 7.194-4.236 6.837l-20.138-1.944c-1.469-.142-2.914.448-3.864 1.578l-13.018 15.487c-2.392 2.845-7.007 1.713-7.811-1.916l-4.374-19.753c-.315-1.439-1.323-2.63-2.691-3.184z"/><path d="m61.212 362.21-12.937-5.24c-2.377-.963-2.618-4.233-.408-5.534l12.028-7.081c.877-.517 1.445-1.432 1.516-2.448l.986-13.923c.181-2.558 3.216-3.798 5.137-2.098l10.451 9.251c.762.675 1.808.931 2.796.686l13.546-3.365c2.489-.618 4.606 1.885 3.583 4.237l-5.569 12.799c-.406.934-.327 2.008.212 2.871l7.386 11.843c1.357 2.176-.37 4.963-2.922 4.717l-13.893-1.341c-1.014-.098-2.01.309-2.665 1.089l-8.981 10.684c-1.65 1.963-4.834 1.182-5.389-1.322l-3.018-13.628c-.22-.993-.915-1.815-1.859-2.197z"/><path d="m409.997 164.967-12.937-5.24c-2.377-.963-2.618-4.233-.408-5.533l12.028-7.081c.877-.517 1.445-1.432 1.516-2.448l.986-13.923c.181-2.558 3.216-3.798 5.137-2.098l10.451 9.251c.762.675 1.808.931 2.796.686l13.546-3.365c2.489-.618 4.606 1.885 3.583 4.237l-5.569 12.799c-.406.934-.327 2.008.212 2.871l7.386 11.843c1.357 2.176-.37 4.963-2.922 4.717l-13.893-1.341c-1.014-.098-2.01.309-2.665 1.089l-8.981 10.684c-1.65 1.963-4.834 1.182-5.389-1.322l-3.018-13.627c-.22-.995-.915-1.817-1.859-2.199z"/></g></g><path d="m325.378 416.395c-13.81 32.39-42.36-30.04-23.01-94.08 9-2.38 17.12-4.93 24.16-7.37 4.79 30.89 9.29 76.96-1.15 101.45z" fill="#6767a3"/><path d="m326.528 314.945c-7.04 2.44-15.16 4.99-24.16 7.37 2.58-8.53 6-17.08 10.42-25.45 2.59-4.91 9.94-3.78 10.95 1.68.86 4.67 1.83 10.23 2.79 16.4z" fill="#ffc2d2"/></g></svg>