<svg viewBox="0 0 512 512" xmlns="http://www.w3.org/2000/svg"><g><g fill="#607d8b"><path d="M405.332 256H256c-11.777 0-21.332-9.559-21.332-21.332 0-11.777 9.555-21.336 21.332-21.336h149.332c11.777 0 21.336 9.559 21.336 21.336 0 11.773-9.559 21.332-21.336 21.332zM490.668 149.332H256c-11.777 0-21.332-9.555-21.332-21.332s9.555-21.332 21.332-21.332h234.668c11.773 0 21.332 9.555 21.332 21.332s-9.559 21.332-21.332 21.332zM405.332 42.668H256c-11.777 0-21.332-9.559-21.332-21.336C234.668 9.559 244.223 0 256 0h149.332c11.777 0 21.336 9.559 21.336 21.332 0 11.777-9.559 21.336-21.336 21.336zm0 0" fill="#607d8b"></path></g><path d="M474.668 320H272c-20.586 0-37.332 16.746-37.332 37.332v53.336C234.668 431.254 251.414 448 272 448h202.668C495.254 448 512 431.254 512 410.668v-53.336C512 336.746 495.254 320 474.668 320zm0 0" fill="#90a4ae"></path><path d="m186.902 372.266-74.668-69.332c-4.671-4.332-11.457-5.442-17.3-2.946-5.825 2.563-9.602 8.32-9.602 14.68v48h-64C9.535 362.668 0 372.223 0 384s9.535 21.332 21.332 21.332h64v48c0 6.36 3.777 12.117 9.602 14.68 2.07.875 4.222 1.32 6.398 1.32a16.05 16.05 0 0 0 10.902-4.266l74.668-69.332c3.243-3.03 5.098-7.296 5.098-11.734s-1.855-8.703-5.098-11.734zm0 0" fill="#2196f3"></path></g></svg>