<svg viewBox="0 0 512 512" xmlns="http://www.w3.org/2000/svg"><g><path d="M192 280h32a16 16 0 0 0 16-16V112a16 16 0 0 0-16-16H64a16 16 0 0 0-16 16v152a16 16 0 0 0 16 16h72l56 48z" fill="#d1e4ff"></path><circle cx="128" cy="176" fill="#548aff" r="48"></circle><path d="M464 440v-80H294.627A54.627 54.627 0 0 0 256 376a54.627 54.627 0 0 0-38.627-16H48v80h160l20.686 20.686A38.627 38.627 0 0 0 256 472a38.627 38.627 0 0 0 27.314-11.314L304 440z" fill="#ffe28f"></path><g fill="#ffd873"><path d="M120 384h16v16h-16zM264 400.578V384a8 8 0 0 0-8-8 8 8 0 0 0-8 8v16.578A65.569 65.569 0 0 0 204.223 384H152v16h52.223A49.598 49.598 0 0 1 248 425.962V472h16v-46.04A49.596 49.596 0 0 1 307.777 400H384v-16h-76.223A65.569 65.569 0 0 0 264 400.578zM400 384h64v16h-64zM328 360l31.366-23.525A106.768 106.768 0 0 0 400 272l17.426 29.043A46.134 46.134 0 0 1 424 324.778 35.221 35.221 0 0 1 388.779 360z" fill="#ffd873"></path></g><path d="M304 424h184v32H312l-15.03 15.03A57.941 57.941 0 0 1 256 488a57.941 57.941 0 0 1-40.97-16.97L200 456H24v-32h184l20.686 20.686A38.627 38.627 0 0 0 256 456a38.627 38.627 0 0 0 27.314-11.314z" fill="#ffa100"></path><path d="M320 200h-32a16 16 0 0 1-16-16V40a16 16 0 0 1 16-16h160a16 16 0 0 1 16 16v144a16 16 0 0 1-16 16h-72l-56 48z" fill="#d1e4ff"></path><path d="m352 160 8 8h16l8-8z" fill="#718799"></path><path d="M352 120h32v40h-32z" fill="#8098ab"></path><g fill="#ffc431"><path d="M360 48h16v16h-16zM322.7 70.081l11.312-11.312 11.312 11.312-11.312 11.312zM312 96h16v16h-16zM408 96h16v16h-16zM390.589 70.108l11.312-11.312 11.312 11.312-11.312 11.312zM136 160h72v80h-72z" fill="#ffc431"></path></g><path d="m88 240 48-56 48 56z" fill="#ef5e3b"></path><circle cx="368" cy="104" fill="#ffc431" r="24"></circle></g></svg>