<svg viewBox="0 0 512 512" xmlns="http://www.w3.org/2000/svg"><g><path d="M176.46 270.938a61.305 61.305 0 0 0-.095 3.692v65.589c0 17.068 13.836 30.905 30.905 30.905h14.328V260.635l-45.138 10.303z" fill="#ffc98c"></path><path d="M221.598 260.635v110.489h83.132c17.069 0 30.905-13.837 30.905-30.905v-65.846c0-1.149-.036-2.294-.098-3.435l-113.939-10.303z" fill="#f7a16e"></path><path d="M305.138 484.996V270.938h30.4c-.98-18.155-9.709-35.217-24.838-48.364-15.081-13.106-34.933-20.659-54.47-20.723h-.25c-11.605 0-23.411 2.654-34.38 7.685l34.477 184.769c10.028 0 18.157 8.129 18.157 18.157v91.812h.21c-.13.994-.205 2.004-.209 3.027-.011 2.581 2.034 4.7 4.614 4.7h37.147a4.596 4.596 0 0 0 4.596-4.596v-.555c-.002-10.093-6.453-18.672-15.454-21.854z" fill="#1a3e6e"></path><path d="m221.598 209.425-3.535 1.819c-24.672 12.696-40.325 35.339-41.604 59.693h30.552v214.085c-9.084 3.3-15.468 12.25-15.453 22.418.004 2.522 2.073 4.56 4.596 4.56h37.167a4.596 4.596 0 0 0 4.596-4.596v-.555c0-.872-.052-1.73-.145-2.575h.145v-91.812c0-10.028 8.129-18.157 18.157-18.157V219.944l-34.476-10.519z" fill="#315588"></path><path d="M207.015 339.96h67.219v15.453h-67.219z" fill="#1a3e6e"></path><path d="M305.251 51.765c-14.416-10.258-31.162-16.481-49.024-16.481-48.729 0-89.131 46.313-96.631 94.488a23.124 23.124 0 0 0-8.985-1.805c-12.801 0-23.179 10.378-23.179 23.179s10.378 23.179 23.179 23.179c4.156 0 8.052-1.099 11.425-3.014 2.831 9.673 7.177 18.716 12.707 26.981 2.71 4.052 18.241 16.204 40.381 20.837l52.758 11.04 47.346-46.432c38.435-37.691 33.982-100.695-9.977-131.972z" fill="#ffc98c"></path><path d="M361.39 127.968c-2.977 0-5.825.569-8.44 1.592-.103-.691-.208-1.383-.325-2.071-5.189-30.565-22.141-58.41-47.374-75.723 14.376 19.829 21.638 42.475 21.638 66.179 0 53.311-43.827 96.528-97.89 96.528-20.07 0-38.726-5.96-54.257-16.177 14.928 22.064 38.828 37.717 66.557 41.903a100.56 100.56 0 0 0 29.82-.009c37.949-5.721 68.773-32.931 79.193-68.692a23.05 23.05 0 0 0 11.078 2.831c12.802 0 23.179-10.378 23.179-23.179s-10.378-23.182-23.179-23.182z" fill="#f7a16e"></path><circle cx="220.665" cy="152.106" fill="#35404a" r="7.726"></circle><circle cx="289.883" cy="152.106" fill="#35404a" r="7.726"></circle><path d="M261.667 153.369c-1.459 1.46-3.4 2.263-5.463 2.263s-4.004-.804-5.463-2.263a7.727 7.727 0 0 0-10.927 10.927c4.378 4.378 10.199 6.789 16.39 6.789s12.012-2.412 16.39-6.789a7.726 7.726 0 0 0-.001-10.927 7.726 7.726 0 0 0-10.926 0z" fill="#35404a"></path><circle cx="150.612" cy="151.179" fill="#f7a16e" r="7.726"></circle><circle cx="362.541" cy="151.179" fill="#ce795f" r="7.726"></circle><path d="M360.769 80.644C340.209 39.676 302.056 0 256.361 0c-8.435 0-19.377 1.233-29.256 3.131-12.33 2.367-21.277 13.096-21.277 25.652a44.578 44.578 0 0 0-35.678 17.811c-2.524 3.364-4.9 6.731-7.093 10.126-14.138 21.885-15.477 49.668-3.734 72.928l66.917-53.457 94.906 40.157 41.685-8.789a51.753 51.753 0 0 0-2.062-26.915z" fill="#315588"></path><path d="M356.008 70.706c-9.254-14.95-20.85-29.137-27.823-36.257 8.206 10.827 11.721 31.12 11.721 44.505 0 19.767-8.168 26.187-26.362 22.246-25.111-5.439-63.007-25.565-87.873-62.267-4.609-6.802-12.197-10.358-19.843-10.15 0 12.684 1.779 15.612-2.221 42.421-4.508 20.507-23.016 35.391-44.007 35.391-.633 0-3.351.026-7.483.075a73.86 73.86 0 0 0 7.204 22.972l.227.132c32.657.022 59.956-22.957 66.693-53.585 32.96 33.901 78.156 53.372 126.711 53.372 13.171-17.069 14.403-40.522 3.056-58.855z" fill="#1a3e6e"></path></g></svg>