<svg viewBox="0 0 512 512" xmlns="http://www.w3.org/2000/svg"><g><path d="M268.894 164.853H89.518l-18.192 51.863a29.4 29.4 0 0 0-1.657 9.732v60.457l.298 1h92.084a4.15 4.15 0 0 1 4.112 4.719L136.15 509.689l.69 2.311h225.075V242.906c-43.001-7.659-78.27-37.94-93.021-78.053z" fill="#ffe5c2"></path><path d="M441.638 472.497h-16.124l-2.544-1H219.937l-2.728 1h-16.124c-5.69 0-10.302 4.612-10.302 10.302V512h250.855c5.69 0 10.302-4.612 10.302-10.302v-18.899c0-5.689-4.612-10.302-10.302-10.302z" fill="#f6a96c"></path><path d="M123.433 286.904v-60.457c0-3.314.56-6.604 1.657-9.732l17.841-50.863H89.167l-17.841 50.863a29.4 29.4 0 0 0-1.657 9.732v60.457z" fill="#fed2a4"></path><path d="M162.051 286.904H10.906a5.15 5.15 0 0 0-5.102 5.856l6.296 45.531 1.865 1h145.103l1.79-1 6.296-45.531a5.152 5.152 0 0 0-5.103-5.856z" fill="#8ac9fe"></path><path d="M261.452 122.897c0-7.15.625-14.157 1.811-20.973H80.009a5.15 5.15 0 0 0-5.151 5.151v53.627a5.15 5.15 0 0 0 5.151 5.151h189.266c-5.05-13.367-7.823-27.843-7.823-42.956z" fill="#fed2a4"></path><path d="M150.294 160.702v-53.627a5.15 5.15 0 0 1 5.151-5.151H80.009a5.15 5.15 0 0 0-5.151 5.151v53.627a5.15 5.15 0 0 0 5.151 5.151h75.436a5.15 5.15 0 0 1-5.151-5.151z" fill="#ffbd86"></path><path d="m207.526 392.492-5.769 1v24.05c0 8.534 6.918 15.453 15.453 15.453l5.238 1H420.34l5.174-1c8.534 0 15.453-6.918 15.453-15.453v-24.05l-5.902-1z" fill="#00c27a"></path><path d="M317.521 328.611c-2.619 0-5.139-.428-7.5-1.207v27.585h15v-27.585a23.893 23.893 0 0 1-7.5 1.207z" fill="#a44f3e"></path><circle cx="317.521" cy="304.611" fill="#fe6c55" r="25"></circle><path d="M313 304.611c0-10.157 6.061-18.893 14.761-22.806a24.896 24.896 0 0 0-10.239-2.194c-13.807 0-25 11.193-25 25s11.193 25 25 25c3.65 0 7.113-.789 10.239-2.194-8.7-3.913-14.761-12.649-14.761-22.806z" fill="#fd544d"></path><path d="M244.147 472.497h-43.062c-5.69 0-10.302 4.612-10.302 10.302V512h43.062v-29.201c.001-5.689 4.613-10.302 10.302-10.302z" fill="#ea9b58"></path><path d="M244.668 417.542v-24.05h-42.911v24.05c0 8.534 6.918 15.453 15.453 15.453h42.911c-8.535 0-15.453-6.919-15.453-15.453z" fill="#09a755"></path><path d="M425.514 472.497H217.209c-8.534 0-15.453-6.918-15.453-15.453v-8.597c0-8.534 6.918-15.453 15.453-15.453h208.305c8.534 0 15.453 6.918 15.453 15.453v8.597c0 8.535-6.918 15.453-15.453 15.453z" fill="#bb5d4c"></path><path d="M244.668 457.045v-8.597c0-2.493.604-4.84 1.653-6.926l-11.051-8.527h-18.06c-8.534 0-15.453 6.918-15.453 15.453v8.597c0 8.534 6.918 15.453 15.453 15.453h42.911c-8.535-.001-15.453-6.919-15.453-15.453z" fill="#a44f3e"></path><path d="m299.674 477.669 57.899-44.674H235.27l57.899 44.674a5.326 5.326 0 0 0 6.505 0z" fill="#fed402"></path><path d="M267.332 432.995H235.27l57.899 44.674a5.326 5.326 0 0 0 6.505 0l12.779-9.86z" fill="#fac600"></path><path d="M441.638 393.492H201.085c-5.69 0-10.302-4.612-10.302-10.302v-18.899c0-5.69 4.612-10.302 10.302-10.302h240.553c5.69 0 10.302 4.612 10.302 10.302v18.899c0 5.69-4.612 10.302-10.302 10.302z" fill="#f6a96c"></path><path d="M233.846 383.19v-18.899c0-5.689 4.612-10.302 10.302-10.302h-43.062c-5.69 0-10.302 4.612-10.302 10.302v18.899c0 5.69 4.612 10.302 10.302 10.302h43.062c-5.69 0-10.302-4.612-10.302-10.302z" fill="#ea9b58"></path><path d="M12.099 338.292h43.18l-6.296-45.531a5.15 5.15 0 0 1 5.102-5.856h-43.18a5.15 5.15 0 0 0-5.102 5.856z" fill="#60b7ff"></path><path d="m12.099 338.292 22.79 164.817A10.302 10.302 0 0 0 45.094 512h91.745l24.019-173.708z" fill="#eaf6ff"></path><path d="m78.068 503.109-22.79-164.817h-43.18l22.79 164.817A10.302 10.302 0 0 0 45.093 512h43.18c-5.144 0-9.5-3.795-10.205-8.891z" fill="#d8ecfe"></path><circle cx="383.349" cy="122.897" fill="#fe6c55" r="122.897"></circle><path d="M283.185 122.897c0-44.085 28.629-81.607 68.27-94.957 15.575-12.801 34.341-21.857 54.907-25.77A123.012 123.012 0 0 0 383.349 0c-67.766 0-122.897 55.131-122.897 122.897s55.131 122.897 122.897 122.897c7.865 0 15.556-.752 23.014-2.17-20.567-3.912-39.332-12.968-54.907-25.77-39.642-13.35-68.271-50.872-68.271-94.957z" fill="#fd544d"></path><circle cx="383.349" cy="122.897" fill="#ffffff" r="92.664"></circle><path d="M389.943 38.014a85.631 85.631 0 0 0-6.595-.28c-46.96 0-85.164 38.205-85.164 85.164s38.204 85.164 85.164 85.164c2.221 0 4.416-.112 6.595-.28-32.666-14.339-55.545-46.983-55.545-84.884s22.879-70.546 55.545-84.884z" fill="#f3f0f3"></path><path d="M383.348 130.398a7.5 7.5 0 0 1-7.499-7.501V78.089c0-4.142 3.357-7.5 7.5-7.5s7.5 3.358 7.5 7.5v20.365l3.717-5.486a7.5 7.5 0 0 1 12.418 8.413l-17.426 25.723a7.502 7.502 0 0 1-6.21 3.294z" fill="#fd544d"></path><g fill="#a79ba7"><path d="M383.349 36.733c-2.529 0-5.026.132-7.5.347v12.797c0 4.142 3.357 7.5 7.5 7.5s7.5-3.358 7.5-7.5V37.08a86.923 86.923 0 0 0-7.5-.347zM383.349 188.417a7.5 7.5 0 0 0-7.5 7.5v12.797c2.474.214 4.971.347 7.5.347s5.026-.132 7.5-.347v-12.797a7.5 7.5 0 0 0-7.5-7.5zM317.828 122.897a7.5 7.5 0 0 0-7.5-7.5h-12.797c-.214 2.474-.347 4.971-.347 7.5s.132 5.026.347 7.5h12.797c4.143 0 7.5-3.357 7.5-7.5zM469.166 115.397h-12.797c-4.143 0-7.5 3.358-7.5 7.5s3.357 7.5 7.5 7.5h12.797c.214-2.474.347-4.971.347-7.5s-.133-5.026-.347-7.5z" fill="#a79ba7"></path></g><path d="M383.349 223.061c-55.23 0-100.164-44.933-100.164-100.164S328.118 22.733 383.349 22.733s100.164 44.934 100.164 100.164-44.934 100.164-100.164 100.164zm0-185.328c-46.96 0-85.164 38.205-85.164 85.164s38.204 85.164 85.164 85.164 85.164-38.204 85.164-85.164-38.204-85.164-85.164-85.164z" fill="#ffa799"></path></g></svg>