<svg viewBox="0 0 512 512" xmlns="http://www.w3.org/2000/svg"><g><path d="M36.745 163.919a7.642 7.642 0 0 1-7.234-5.19 7.638 7.638 0 0 1 4.785-9.686L473.057.405c3.996-1.352 8.332.789 9.686 4.785s-.788 8.332-4.785 9.686L39.197 163.513a7.634 7.634 0 0 1-2.452.406zM255.962 119.351c-9.377 0-18.089-3.007-25.317-8.157v299.784h50.635V111.194c-7.23 5.15-15.941 8.157-25.318 8.157z" fill="#e4eaf8"></path><path d="M230.644 111.194v299.784h20.371V119.064c-7.489-.858-14.431-3.638-20.371-7.87z" fill="#d8dce5"></path><circle cx="255.966" cy="81.475" fill="#d8dce5" r="45.32"></circle><path d="M231.011 81.471c0-21.526 15.013-39.533 35.136-44.158a45.404 45.404 0 0 0-10.185-1.163c-25.03 0-45.321 20.291-45.321 45.321s20.291 45.321 45.321 45.321c3.504 0 6.91-.411 10.185-1.163-20.123-4.625-35.136-22.632-35.136-44.158z" fill="#c3c8d1"></path><path d="M294.833 403.023h-77.745c-30.519 0-55.488 25.563-55.488 56.809v11.239h188.722v-11.239c.001-31.244-24.969-56.809-55.489-56.809z" fill="#966653"></path><path d="M237.46 403.023h-20.371c-30.519 0-55.488 25.563-55.488 56.809v11.239h20.371v-11.239c-.001-31.244 24.969-56.809 55.488-56.809z" fill="#875746"></path><path d="M357.081 512H154.842c-6.617 0-12.032-5.414-12.032-12.032v-18.447c0-6.617 5.414-12.032 12.032-12.032h202.24c6.617 0 12.032 5.414 12.032 12.032v18.447c-.001 6.618-5.416 12.032-12.033 12.032z" fill="#ad7b64"></path><path d="M356.89 492.326H155.033c-6.451 0-11.761-5.068-12.181-11.418-.018.268-.041.533-.041.804v18.066c0 6.723 5.501 12.222 12.222 12.222h201.859c6.723 0 12.222-5.5 12.222-12.222v-18.066c0-.272-.023-.537-.041-.804-.421 6.35-5.732 11.418-12.183 11.418z" fill="#966653"></path><circle cx="255.966" cy="81.475" fill="#c3c8d1" r="16.471"></circle><path d="M259.86 81.471c0-5.248 2.462-9.912 6.287-12.928A16.384 16.384 0 0 0 255.962 65c-9.097 0-16.471 7.374-16.471 16.471s7.374 16.471 16.471 16.471c3.849 0 7.38-1.331 10.185-3.542-3.823-3.017-6.287-7.681-6.287-12.929z" fill="#b1b5bc"></path><path d="M493.759 184.134a7.642 7.642 0 0 1-7.041-4.668l-60.084-142.21a7.639 7.639 0 0 1 14.073-5.945l60.084 142.21a7.639 7.639 0 0 1-7.032 10.613z" fill="#d8dce5"></path><path d="M360.618 184.134a7.604 7.604 0 0 1-2.97-.605 7.64 7.64 0 0 1-4.064-10.009l60.084-142.21a7.636 7.636 0 0 1 10.009-4.064 7.64 7.64 0 0 1 4.064 10.009l-60.084 142.21a7.638 7.638 0 0 1-7.039 4.669z" fill="#d8dce5"></path><path d="M448.718 238.386h-43.057c-33.182 0-60.33-27.149-60.33-60.33v-1.295a4.841 4.841 0 0 1 4.841-4.841h154.034a4.841 4.841 0 0 1 4.841 4.841v1.295c.001 33.181-27.148 60.33-60.329 60.33z" fill="#ffc850"></path><circle cx="427.188" cy="23.608" fill="#707487" r="16.879"></circle><path d="M365.531 178.056v-1.295a4.841 4.841 0 0 1 4.841-4.841h-20.2a4.841 4.841 0 0 0-4.841 4.841v1.295c0 33.182 27.149 60.33 60.33 60.33h20.2c-33.181 0-60.33-27.149-60.33-60.33z" fill="#f9b938"></path><path d="M430.51 23.608c0-5.529 2.671-10.421 6.779-13.501a16.777 16.777 0 0 0-10.101-3.379c-9.322 0-16.879 7.557-16.879 16.88 0 9.322 7.557 16.879 16.879 16.879 3.793 0 7.282-1.266 10.101-3.378-4.107-3.079-6.779-7.972-6.779-13.501z" fill="#676a77"></path><path d="M151.383 299.893a7.642 7.642 0 0 1-7.041-4.668l-60.084-142.21a7.639 7.639 0 0 1 14.073-5.945l60.084 142.21a7.639 7.639 0 0 1-7.032 10.613z" fill="#d8dce5"></path><path d="M18.242 299.893a7.604 7.604 0 0 1-2.97-.605 7.64 7.64 0 0 1-4.064-10.009l60.084-142.21a7.636 7.636 0 0 1 10.009-4.064 7.64 7.64 0 0 1 4.064 10.009l-60.083 142.21a7.641 7.641 0 0 1-7.04 4.669z" fill="#d8dce5"></path><path d="M106.34 354.146H63.283c-33.182 0-60.33-27.149-60.33-60.33v-1.295a4.841 4.841 0 0 1 4.841-4.841h154.034a4.841 4.841 0 0 1 4.841 4.841v1.295c.001 33.181-27.147 60.33-60.329 60.33z" fill="#ffc850"></path><circle cx="84.814" cy="139.368" fill="#707487" r="16.879"></circle><path d="M23.155 293.815v-1.295a4.841 4.841 0 0 1 4.841-4.841h-20.2a4.841 4.841 0 0 0-4.841 4.841v1.295c0 33.182 27.149 60.33 60.33 60.33h20.2c-33.182.001-60.33-27.148-60.33-60.33z" fill="#f9b938"></path><path d="M88.134 139.368c0-5.529 2.671-10.421 6.779-13.501a16.777 16.777 0 0 0-10.101-3.379c-9.322 0-16.879 7.557-16.879 16.88 0 9.322 7.557 16.879 16.879 16.879 3.793 0 7.282-1.266 10.101-3.378-4.109-3.08-6.779-7.972-6.779-13.501z" fill="#676a77"></path></g></svg>