<svg viewBox="0 0 512 512" xmlns="http://www.w3.org/2000/svg"><g><path d="M411.828 188.426h63.356a24.208 24.208 0 0 0 24.136-24.107V84.326a24.214 24.214 0 0 0-24.136-24.136h-71.161v-9.558A42.666 42.666 0 0 0 361.419 8H150.58a42.681 42.681 0 0 0-42.632 42.632v9.558H36.816A24.214 24.214 0 0 0 12.68 84.326v79.993a24.208 24.208 0 0 0 24.136 24.107h63.356l7.776 8.206v52.221H36.816a24.189 24.189 0 0 0-24.136 24.106v79.994a24.189 24.189 0 0 0 24.136 24.106h63.356l7.776 8.207v76.1A42.681 42.681 0 0 0 150.58 504h210.839a42.667 42.667 0 0 0 42.6-42.633v-79.709h88.384a6.945 6.945 0 0 0 6.913-6.913v-95.664a6.944 6.944 0 0 0-6.913-6.912h-88.38v-75.506z" fill="#eafaff"></path><path d="M388.035 213.536v58.633h15.988v-75.506zM123.936 60.19v-9.558a26.675 26.675 0 0 1 26.644-26.644h50a6.2 6.2 0 0 1 5.389 2.8l.474.678c5.109 7.305 12.83 18.345 26.792 18.345h47.649c12.86 0 19.025-9.593 23.105-15.94.709-1.105 1.38-2.148 2.026-3.07a6.213 6.213 0 0 1 5.4-2.816h50a26.661 26.661 0 0 1 26.616 26.644v9.561h15.988v-9.558A42.666 42.666 0 0 0 361.419 8H150.58a42.681 42.681 0 0 0-42.632 42.632v9.558zM123.936 213.505l-15.988-16.873v52.221h15.988zM388.035 381.658v50.966h-264.1v-30.485l-15.988-16.873v76.1A42.681 42.681 0 0 0 150.58 504h210.839a42.667 42.667 0 0 0 42.6-42.633v-79.709z" fill="#41739f"></path><path d="M475.184 188.426h-63.356l-26.45 27.914v-27.914h-10.222a24.19 24.19 0 0 1-24.136-24.107V84.326a24.214 24.214 0 0 1 24.136-24.136h100.028a24.214 24.214 0 0 1 24.136 24.136v79.993a24.208 24.208 0 0 1-24.136 24.107z" fill="#ff95c2"></path><path d="M36.816 188.426h63.356l26.45 27.914v-27.914h10.222a24.19 24.19 0 0 0 24.136-24.107V84.326a24.214 24.214 0 0 0-24.136-24.136H36.816A24.214 24.214 0 0 0 12.68 84.326v79.993a24.208 24.208 0 0 0 24.136 24.107z" fill="#fff5b5"></path><path d="M124.787 114.959a8.46 8.46 0 0 0-6.75-3.312h-16.148V98.636a8.541 8.541 0 0 0-8.532-8.536h-.969a8.464 8.464 0 0 0-7.458 4.424l-11.165 20.1a8.7 8.7 0 0 0-7.728-4.73H55.773a8.7 8.7 0 0 0-8.693 8.694v29.869a8.7 8.7 0 0 0 8.693 8.694h10.264a8.7 8.7 0 0 0 7.631-4.533l8.774 5.054a6.3 6.3 0 0 0 3.142.84h24.473a8.468 8.468 0 0 0 8.224-6.3l8.007-29.855a8.4 8.4 0 0 0-1.501-7.398z" fill="#ffd36c"></path><path d="M357.932 381.658a6.926 6.926 0 0 1-6.912-6.913v-95.664a6.926 6.926 0 0 1 6.912-6.913h134.475a6.945 6.945 0 0 1 6.913 6.913v95.664a6.945 6.945 0 0 1-6.913 6.913z" fill="#ffe22f"></path><path d="m425.155 336.228 71.962-62.18a6.887 6.887 0 0 0-4.71-1.879H357.932a6.879 6.879 0 0 0-4.729 1.887z" fill="#f7d119"></path><path d="m421.025 98.092 4.13 4.716 4.16-4.716c18.218-20.708 64.557 22.32-4.16 57.85-68.716-35.53-22.349-78.558-4.13-57.85z" fill="#ffffff"></path><path d="M55.774 109.894h10.264a8.693 8.693 0 0 1 8.693 8.693v29.87a8.694 8.694 0 0 1-8.694 8.694H55.774a8.694 8.694 0 0 1-8.694-8.694v-29.87a8.694 8.694 0 0 1 8.694-8.693z" fill="#6193ff"></path><path d="M275.332 476.306h-38.665a7.994 7.994 0 0 1 0-15.988h38.665a7.994 7.994 0 0 1 0 15.988z" fill="#5d83a0"></path><path d="M36.816 377.059h63.356l26.45 27.915v-27.915h10.222a24.189 24.189 0 0 0 24.136-24.106v-79.994a24.189 24.189 0 0 0-24.136-24.106H36.816a24.189 24.189 0 0 0-24.136 24.106v79.994a24.189 24.189 0 0 0 24.136 24.106z" fill="#72d1fb"></path><path d="M398.378 202.62v-14.194h-10.222a24.19 24.19 0 0 1-24.136-24.107V84.326a24.214 24.214 0 0 1 24.136-24.136h-13a24.214 24.214 0 0 0-24.136 24.136v79.993a24.19 24.19 0 0 0 24.136 24.107h10.222v27.914z" fill="#f781b9"></path><path d="M113.173 188.426h-13.001l26.45 27.914v-13.72zM25.681 164.319V84.326A24.214 24.214 0 0 1 49.816 60.19h-13A24.214 24.214 0 0 0 12.68 84.326v79.993a24.208 24.208 0 0 0 24.136 24.107h13a24.208 24.208 0 0 1-24.135-24.107z" fill="#f7e89f"></path><path d="M113.173 377.059h-13.001l26.45 27.915v-13.721zM25.681 352.953v-79.994a24.189 24.189 0 0 1 24.135-24.106h-13a24.189 24.189 0 0 0-24.136 24.106v79.994a24.189 24.189 0 0 0 24.136 24.106h13a24.188 24.188 0 0 1-24.135-24.106z" fill="#4fcbf7"></path><path d="M121.672 341.065H52.018a8 8 0 0 1 0-16h69.654a8 8 0 0 1 0 16zm0-40.217H52.018a8 8 0 1 1 0-16h69.654a8 8 0 0 1 0 16z" fill="#ffffff"></path><path d="M357.932 381.658h134.475a6.859 6.859 0 0 0 3.857-1.19l-61.154-52.842-9.955 8.6-9.714-8.394-61.107 52.8a6.853 6.853 0 0 0 3.598 1.026z" fill="#fff180"></path><g fill="#cce6f2"><path d="M148.9 63.448V50.632a26.644 26.644 0 0 1 26.645-26.644H150.58a26.675 26.675 0 0 0-26.644 26.644v9.558h12.908a23.907 23.907 0 0 1 12.056 3.258zM149.516 373.441a23.964 23.964 0 0 1-12.672 3.618h-10.222v27.915l-2.686-2.835v30.485h264.1v-18.865H177.889c-33.48 0-28.373-25.059-28.373-40.318zM136.844 188.426h-10.222v27.914l-2.686-2.835v35.348h12.908A23.952 23.952 0 0 1 148.9 252.1v-66.924a23.952 23.952 0 0 1-12.056 3.25z" fill="#cce6f2"></path><path d="M283.835 408.133a7.994 7.994 0 1 0-7.993-7.993 8.027 8.027 0 0 0 7.993 7.993zM256 408.133a7.994 7.994 0 1 0-7.994-7.993 8 8 0 0 0 7.994 7.993zM228.164 408.133a7.994 7.994 0 1 0-8.022-7.993 8.021 8.021 0 0 0 8.022 7.993z" fill="#cce6f2" fill-rule="evenodd"></path></g><path d="m333.771 253.333-12.22-45.591-14.255-53.2c0-.01-.007-.019-.01-.029l-3.335-12.443a8 8 0 1 0-15.454 4.142l2.224 8.3c-11.675 12.563-25.955 20.992-43.537 25.7l-49.727 13.317a17.818 17.818 0 0 0-12.625 21.847l9.107 34.077a17.865 17.865 0 0 0 21.837 12.574l6.987-1.871 16.405 35a7.992 7.992 0 0 0 9.318 4.331l16.647-4.47a8 8 0 0 0 5.653-9.8l-9.486-35.382 4.224-1.131c17.6-4.716 34.183-4.56 50.567.475l2.224 8.3a8 8 0 1 0 15.454-4.143z" fill="#72d1fb"></path><path d="M326.039 263.407a8 8 0 0 1-7.722-5.931L288.5 146.216a8 8 0 1 1 15.454-4.142l29.82 111.259a8.008 8.008 0 0 1-7.732 10.074zM242.948 181.347l-45.491 12.182a17.818 17.818 0 0 0-12.625 21.847l9.107 34.077a17.865 17.865 0 0 0 21.837 12.574l45.524-12.192z" fill="#ff6969"></path><path d="M225.534 248.251a17.865 17.865 0 0 1-21.834-12.574l-9.11-34.077a17.7 17.7 0 0 1-.481-6.814 17.831 17.831 0 0 0-9.277 20.59l9.107 34.077a17.865 17.865 0 0 0 21.837 12.574l45.524-12.192-2.791-10.415z" fill="#f75e5e"></path><path d="m261.3 249.835-38.539 10.321 16.405 35a7.992 7.992 0 0 0 9.318 4.331l16.647-4.47a8 8 0 0 0 5.653-9.8z" fill="#41739f"></path><path d="m250.768 296.336-13.455-28.707a5.822 5.822 0 0 1 3.766-8.1l21.294-5.7-1.071-4-38.539 10.321 16.405 35a7.992 7.992 0 0 0 9.318 4.331l3.772-1.013a7.937 7.937 0 0 1-1.49-2.132z" fill="#376f99"></path><path d="m258.511 239.42 2.791 10.415 4.224-1.131c17.6-4.716 34.183-4.56 50.567.475l-12.542-46.8s-7.529 29.814-45.04 37.041z" fill="#51c8f2"></path></g></svg>