<svg viewBox="0 0 512 512" xmlns="http://www.w3.org/2000/svg"><g><path d="M127.919 352.087s20.993 38.825 73.201 38.825c18.029 0 34.051-3.895 47.187-11.987 21.208 18.094 52.245 33.127 86.13 33.127 50.943 0 94.213-32.842 109.801-78.507 30.487-12.553 51.957-42.541 51.957-77.557 0-42.15-28.666-68.573-28.666-68.573s6.858-27.705 4.129-56.804c-1.855-19.775-13.781-51.219-28.514-64.519-14.951-10.789-33.31-17.151-53.156-17.151-1.36 0-2.711.036-4.055.095-14.071-23.218-39.577-38.735-68.708-38.735-21.693 0-41.362 8.618-55.809 22.599C241.874 12.62 214.44 0 184.055 0 130.443 0 86.01 39.279 77.952 90.627c-33.83.849-60.999 28.52-60.999 62.555 0 17.118 6.878 32.624 18.013 43.925C13.92 213.797.419 239.588.419 268.535c0 19.902 6.385 38.311 17.213 53.298 38.215 37.908 110.287 30.254 110.287 30.254z" fill="#f3f0f3"></path><path d="M467.527 187.416c8.497-13.832 13.4-30.109 13.4-47.532 0-30.379-14.899-57.275-37.786-73.791 10.805 14.958 17.182 33.325 17.182 53.187 0 17.423-9.504 39.383-17.639 52.626 25.194 14.465 42.177 41.616 42.177 72.751 0 35.016-21.469 65.004-51.957 77.557-15.587 45.665-58.857 78.507-109.801 78.507-33.886 0-64.375-14.533-85.582-37.702-13.135 10.362-29.706 16.563-47.734 16.563-33.061 0-61.253-20.8-72.235-50.022-10.671 4.654-33.686 9.488-46.623 9.488-19.902 0-38.311-6.385-53.298-17.213 16.549 22.907 43.482 37.817 73.901 37.817 12.936 0 25.24-2.702 36.386-7.563 11.471 30.524 40.919 52.249 75.451 52.249 18.831 0 36.14-6.477 49.86-17.3 22.152 24.201 53.998 39.381 89.393 39.381 53.211 0 98.408-34.304 114.689-82.002 31.845-13.111 54.27-44.435 54.27-81.01 0-32.523-17.738-60.883-44.054-75.991z" fill="#d9f0f3"></path><path d="M148.563 379.127c0-6.045-3.815-17.117-13.953-27.254a41.045 41.045 0 0 0-16.953-3.651c-22.758 0-41.207 18.449-41.207 41.207a41.032 41.032 0 0 0 3.651 16.953c8.034 8.034 21.209 13.953 27.254 13.953 22.759-.001 41.208-18.45 41.208-41.208z" fill="#f3f0f3"></path><path d="M158.865 389.428c0-16.713-9.955-31.091-24.255-37.556a41.045 41.045 0 0 1 3.651 16.953c0 22.758-18.449 41.207-41.207 41.207a41.032 41.032 0 0 1-16.953-3.651c6.465 14.299 20.843 24.255 37.556 24.255 22.758 0 41.208-18.449 41.208-41.208z" fill="#d9f0f3"></path><path d="M190.119 458.154c0-2.504-2.058-8.238-8.242-14.422a25.733 25.733 0 0 0-7.211-1.031c-14.224 0-25.755 11.531-25.755 25.755 0 2.504.364 4.922 1.031 7.211 6.184 6.184 11.918 8.242 14.422 8.242 14.224 0 25.755-11.531 25.755-25.755z" fill="#f3f0f3"></path><path d="M181.877 443.732a25.733 25.733 0 0 1 1.031 7.211c0 14.224-11.531 25.755-25.755 25.755-2.504 0-4.922-.364-7.211-1.031 3.12 10.713 13.004 18.544 24.724 18.544 14.224 0 25.755-11.531 25.755-25.755 0-11.72-7.831-21.605-18.544-24.724z" fill="#d9f0f3"></path><path d="M264.76 491.396c0-1.56-2.543-6.362-5.817-9.636a15.445 15.445 0 0 0-4.485-.666c-8.534 0-15.453 6.918-15.453 15.453 0 1.56.236 3.065.666 4.485 3.344 3.344 8.075 5.817 9.635 5.817 8.535 0 15.454-6.918 15.454-15.453z" fill="#f3f0f3"></path><path d="M258.942 481.761c.43 1.42.666 2.924.666 4.485 0 8.534-6.918 15.453-15.453 15.453a15.45 15.45 0 0 1-4.485-.666c1.922 6.346 7.812 10.968 14.786 10.968 8.534 0 15.453-6.918 15.453-15.453.001-6.975-4.62-12.865-10.967-14.787z" fill="#d9f0f3"></path><path d="M221.104 292.063c-5.897-9.297-12.064-19.01-19.198-27.799-5.215 0-10.894 5.078-10.894 11.056 5.989 7.605 11.466 16.229 17.042 25.02 2.859 4.507 5.783 9.112 8.847 13.663 6.167 0 11.669-3.894 11.669-10.336-2.505-3.785-4.976-7.677-7.466-11.604z" fill="#2abcc8"></path><path d="M248.662 266.486c4.794 0 9.595-1.054 14.046-3.177 16.78-8.001 33.92-17.814 50.143-28.577l-32.978 2.164c-7.926 4.504-15.913 8.696-23.817 12.466-5.189 2.474-11.034 2.239-16.035-.644l-.009-.006c-4.998-2.89-8.133-7.839-8.586-13.57-.688-8.728-1.05-17.739-1.113-26.854l-14.616-29.626c-1.208 19.425-1.136 39.167.324 57.693a32.657 32.657 0 0 0 9.931 20.978c-12.363 19.694-26.518 33.552-42.155 41.203-17.206 8.417-31.947 7.2-41.283 4.699-14.562-3.902-29.625-15.671-29.625-28.612 0-25.03 27.589-25.753 30.734-25.753 21.226 0 35.346 11.157 47.387 26.45 3.731-3.181 7.365-6.868 10.894-11.056-13.958-17.198-31.625-30.846-58.281-30.846-22.245 0-46.187 12.894-46.187 41.205 0 18.85 17.276 37.16 41.077 43.537a70.508 70.508 0 0 0 18.238 2.39c9.808 0 21.346-2.025 33.835-8.135 18.38-8.992 34.746-24.903 48.73-47.31a32.737 32.737 0 0 0 9.346 1.381zM343.449 321.352a7.727 7.727 0 0 0-10.927.001c-15.397 15.397-29.839 22.265-46.826 22.265-27.168 0-42.719-18.176-57.126-39.95-3.775 3.757-7.664 7.209-11.669 10.336 15.65 23.246 35.019 45.068 68.795 45.068 21.125 0 39.476-8.513 57.754-26.792a7.728 7.728 0 0 0-.001-10.928z" fill="#75cdd5"></path><path d="m367.691 114.185-9.286 3.915 1.587 9.421c9.178 6.95 17.141 17.376 17.294 21.358.26 6.817-10.623 23.307-35.522 44.783-10.78 9.297-22.888 18.435-35.626 26.98-16.01 3.666-32.329 1.305-46.315-6.774-14.047-8.115-24.116-21.138-28.542-36.796 1.036-15.187 2.888-30.123 5.53-44.005 6.148-32.302 14.988-49.972 21.021-53.154 3.527-1.86 16.537-.177 27.145 4.297l9.462-3.058-1.763-10.278c-11.785-5.21-30.91-10.506-42.053-4.63-15.457 8.154-24.298 39.268-28.992 63.933-2.906 15.268-4.893 31.758-5.933 48.483a78.91 78.91 0 0 0 14.616 29.626c6.034 7.636 13.464 14.157 22.012 19.096 8.553 4.934 17.917 8.107 27.548 9.513a78.927 78.927 0 0 0 32.978-2.164c13.958-9.26 27.24-19.222 39.005-29.368 19.013-16.398 41.537-39.612 40.87-57.073-.482-12.589-14.631-26.504-25.036-34.105z" fill="#cbc4cc"></path><path d="M349.953 112.919a7.726 7.726 0 0 0 3.406 10.382c2.221 1.124 4.461 2.575 6.633 4.22l7.699-13.336c-2.853-2.084-5.426-3.696-7.356-4.673a7.728 7.728 0 0 0-10.382 3.407zM291.947 87.845a7.73 7.73 0 0 0 10.695-2.24 7.728 7.728 0 0 0-2.24-10.695c-1.811-1.183-4.494-2.606-7.726-4.034l-7.699 13.336c2.51 1.058 4.886 2.271 6.97 3.633z" fill="#918291"></path><path d="M372.598 297.911c0-2.504-2.058-8.238-8.242-14.422a25.733 25.733 0 0 0-7.211-1.031c-14.224 0-25.755 11.531-25.755 25.755 0 2.504.364 4.922 1.031 7.211 6.184 6.184 11.918 8.242 14.422 8.242 14.224-.001 25.755-11.532 25.755-25.755z" fill="#cbc4cc"></path><path d="M364.356 283.488a25.733 25.733 0 0 1 1.031 7.211c0 14.224-11.531 25.755-25.755 25.755-2.504 0-4.922-.364-7.211-1.031 3.12 10.713 13.004 18.544 24.724 18.544 14.224 0 25.755-11.531 25.755-25.755 0-11.719-7.831-21.604-18.544-24.724z" fill="#b5adb6"></path></g></svg>