<svg viewBox="0 0 512 512" xmlns="http://www.w3.org/2000/svg"><g><path d="M24 64h464v336H24z" fill="#3397e8"></path><path d="M56 336h400v32H56z" fill="#dadcde"></path><path d="M456 48v288H320c-18.45 0-35.91 7.95-48 21.68a60.689 60.689 0 0 0-3.2 3.92L264 368l-4.8-6.4a60.689 60.689 0 0 0-3.2-3.92A63.949 63.949 0 0 0 208 336H56V48h152c18.45 0 35.91 7.95 48 21.68 1.12 1.26 2.18 2.56 3.2 3.92L264 80l4.8-6.4c1.02-1.36 2.08-2.66 3.2-3.92A63.949 63.949 0 0 1 320 48z" fill="#e9eef2"></path><path d="M272 69.68v288a60.689 60.689 0 0 0-3.2 3.92L264 368l-4.8-6.4a60.689 60.689 0 0 0-3.2-3.92v-288c1.12 1.26 2.18 2.56 3.2 3.92L264 80l4.8-6.4c1.02-1.36 2.08-2.66 3.2-3.92z" fill="#dadcde"></path><path d="M232 168v-32h-18.332a55.508 55.508 0 0 0-3.935-9.733L224 112l-24-24-14.267 14.267A55.662 55.662 0 0 0 176 98.332V80h-32v18.332a55.585 55.585 0 0 0-9.733 3.935L120 88l-24 24 14.267 14.267a55.662 55.662 0 0 0-3.935 9.733H88v32h18.332a55.585 55.585 0 0 0 3.935 9.733L96 192l24 24 14.267-14.267a55.662 55.662 0 0 0 9.733 3.935V224h32v-18.332a55.508 55.508 0 0 0 9.733-3.935L200 216l24-24-14.267-14.267a55.662 55.662 0 0 0 3.935-9.733z" fill="#3397e8"></path><circle cx="160" cy="152" fill="#e9eef2" r="24"></circle><path d="M296 96h48v32h-48z" fill="#3397e8"></path><g fill="#c3c6c7"><path d="M424 168h-96a8 8 0 0 1 0-16h96a8 8 0 0 1 0 16zM424 200H296a8 8 0 0 1 0-16h128a8 8 0 0 1 0 16zM424 232h-64a8 8 0 0 1 0-16h64a8 8 0 0 1 0 16zM328 232h-32a8 8 0 0 1 0-16h32a8 8 0 0 1 0 16zM424 136h-48a8 8 0 0 1 0-16h48a8 8 0 0 1 0 16zM424 104h-48a8 8 0 0 1 0-16h48a8 8 0 0 1 0 16z" fill="#c3c6c7"></path></g><path d="M88 256h48v32H88z" fill="#3397e8"></path><path d="M232 296h-64c-4.419 0-8-3.582-8-8s3.581-8 8-8h64c4.419 0 8 3.582 8 8s-3.581 8-8 8zM232 264h-64c-4.419 0-8-3.582-8-8s3.581-8 8-8h64c4.419 0 8 3.582 8 8s-3.581 8-8 8z" fill="#c3c6c7"></path><path d="M440.773 304.018C431.585 303.586 424 310.907 424 320v-15.548c0-8.615-6.621-16.029-15.227-16.434C399.585 287.586 392 294.907 392 304v-15.548c0-8.615-6.621-16.029-15.227-16.434C367.585 271.586 360 278.907 360 288v-79.548c0-8.615-6.621-16.029-15.227-16.434C335.585 191.586 328 198.907 328 208v128h-11.283l-40.518-42.661c-6.262-6.593-16.87-6.978-23.23-.48-5.75 5.874-6.607 15.248-2.061 22.162 0 0 37.309 49.593 45.092 68.578 2.793 6.815 5.75 28.893 5.75 28.893C307.708 442.435 333.988 464 364.519 464h23.014c30.508 0 56.774-21.533 62.757-51.449L456 384v-63.548c0-8.615-6.621-16.029-15.227-16.434z" fill="#f7cca9"></path><path d="M360 344a8 8 0 0 1-8-8v-48a8 8 0 0 1 16 0v48a8 8 0 0 1-8 8zM392 344a8 8 0 0 1-8-8v-32a8 8 0 0 1 16 0v32a8 8 0 0 1-8 8zM424 344a8 8 0 0 1-8-8v-16a8 8 0 0 1 16 0v16a8 8 0 0 1-8 8z" fill="#e0b999"></path></g></svg>