<svg viewBox="0 0 504.503 504.503" xmlns="http://www.w3.org/2000/svg"><g><path d="M419.091 393.453H85.412V212.597c0-91.753 74.38-166.133 166.133-166.133h1.412c91.753 0 166.133 74.38 166.133 166.133v180.856z" fill="#ff5e57"></path><path d="M252.958 46.463h-1.412c-4.816 0-9.582.217-14.294.619 85.059 7.25 151.839 78.578 151.839 165.515v180.856h30V212.596c0-91.752-74.38-166.133-166.133-166.133z" fill="#f7372f"></path><path d="M201.412 393.453V230.194c0-27.685 22.523-50.208 50.208-50.208h1.263c27.685 0 50.208 22.523 50.208 50.208v163.259z" fill="#de2a2e"></path><path d="M252.883 179.986h-1.263c-4.993 0-9.813.743-14.368 2.106 20.704 6.196 35.84 25.41 35.84 48.102v163.259h30V230.194c-.001-27.685-22.524-50.208-50.209-50.208z" fill="#cf1d21"></path><path d="M476.017 504.503H28.487c-9.196 0-15.374-9.417-11.698-17.832l41.87-95.868c4.6-10.533 15.07-17.35 26.646-17.35H419.2c11.576 0 22.046 6.817 26.646 17.35l41.87 95.868c3.674 8.416-2.503 17.832-11.699 17.832z" fill="#c2d8ed"></path><path d="m487.715 486.671-41.87-95.868c-4.6-10.533-15.07-17.35-26.646-17.35h-30c11.576 0 22.046 6.818 26.646 17.35l41.87 95.868c3.675 8.416-2.502 17.832-11.698 17.832h30c9.196 0 15.373-9.416 11.698-17.832z" fill="#b4cae0"></path><path d="M367.764 219.394a7.5 7.5 0 0 1-7.5-7.5c0-59.021-48.454-107.037-108.013-107.037-4.142 0-7.5-3.357-7.5-7.5s3.358-7.5 7.5-7.5c67.83 0 123.013 54.746 123.013 122.037a7.5 7.5 0 0 1-7.5 7.5z" fill="#ffffff"></path><g fill="#ffeebd"><path d="M32.109 11.672a7.5 7.5 0 0 0-10.606.009 7.498 7.498 0 0 0 .009 10.606L82.686 83.36a7.474 7.474 0 0 0 5.299 2.192 7.498 7.498 0 0 0 5.299-12.807zM107.662 4.866C106.205.989 101.878-.978 98.004.483a7.5 7.5 0 0 0-4.384 9.658l15.821 42.118a7.502 7.502 0 0 0 9.658 4.384 7.501 7.501 0 0 0 4.384-9.659zM66.846 103.13 22.547 86.809c-3.888-1.436-8.198.559-9.63 4.444a7.5 7.5 0 0 0 4.445 9.63l44.299 16.321a7.487 7.487 0 0 0 2.592.465 7.5 7.5 0 0 0 2.593-14.539zM483.001 11.681a7.497 7.497 0 0 0-10.606-.009L411.22 72.745a7.498 7.498 0 0 0-.009 10.606 7.473 7.473 0 0 0 5.308 2.201c1.917 0 3.835-.73 5.299-2.192l61.175-61.072a7.5 7.5 0 0 0 .008-10.607zM406.499.483a7.499 7.499 0 0 0-9.658 4.383L381.02 46.984a7.5 7.5 0 1 0 14.042 5.275l15.821-42.118a7.499 7.499 0 0 0-4.384-9.658zM491.587 91.253a7.495 7.495 0 0 0-9.63-4.444l-44.299 16.321a7.5 7.5 0 1 0 5.186 14.074l44.299-16.321a7.5 7.5 0 0 0 4.444-9.63z" fill="#ffeebd"></path></g></g></svg>