<svg viewBox="0 0 512 512" xmlns="http://www.w3.org/2000/svg"><g><path d="M512 234.131c0-35.969-26.121-65.827-60.427-71.664a7.645 7.645 0 0 1-6.229-6.14c-7.407-39.783-46.154-66.003-86.027-57.842-2.972.608-6.04-.59-7.772-3.08-33.663-48.374-105.203-48.591-139.066-.141a7.568 7.568 0 0 1-7.632 3.091c-40.05-7.81-78.106 18.779-85.404 57.973a7.645 7.645 0 0 1-6.229 6.14c-34.306 5.837-60.427 35.696-60.427 71.664 0 35.969 26.121 65.828 60.427 71.665a7.645 7.645 0 0 1 6.229 6.14c7.293 39.169 45.327 65.79 85.404 57.973a7.565 7.565 0 0 1 7.632 3.091c15.314 21.911 40.721 36.246 69.481 36.246 28.823 0 54.282-14.395 69.585-36.387 1.732-2.49 4.8-3.688 7.772-3.08 39.806 8.147 78.608-17.994 86.027-57.842a7.645 7.645 0 0 1 6.229-6.14C485.879 299.959 512 270.101 512 234.131z" fill="#eae9e8"></path><path d="M333.471 376.622c-28.76 0-54.167-14.335-69.481-36.246a7.566 7.566 0 0 0-7.632-3.091c-40.078 7.816-78.111-18.804-85.404-57.973a7.646 7.646 0 0 0-6.229-6.14c-34.305-5.838-60.426-35.696-60.426-71.665a72.331 72.331 0 0 1 12.456-40.675 7.584 7.584 0 0 1-3.543 1.635c-34.305 5.837-60.426 35.696-60.426 71.664 0 35.969 26.121 65.828 60.426 71.665a7.645 7.645 0 0 1 6.229 6.14c7.293 39.169 45.327 65.789 85.404 57.973a7.567 7.567 0 0 1 7.632 3.09c15.314 21.911 40.721 36.246 69.481 36.246 27.875 0 52.603-13.465 68.042-34.245a84.908 84.908 0 0 1-16.529 1.622z" fill="#dbdbdb"></path><circle cx="109.123" cy="414.87" fill="#eae9e8" r="38.094"></circle><path d="M109.127 414.871c-7.05-12.21-6.562-26.695.003-38.092a37.9 37.9 0 0 0-19.051 5.099c-18.222 10.521-24.465 33.82-13.945 52.042 10.521 18.222 33.82 24.465 52.042 13.944a37.89 37.89 0 0 0 13.941-13.949c-13.153-.012-25.941-6.834-32.99-19.044z" fill="#dbdbdb"></path><circle cx="19.047" cy="416.223" fill="#dbdbdb" r="19.047"></circle></g></svg>