<svg viewBox="0 0 64 64" xmlns="http://www.w3.org/2000/svg"><g><path d="m43.8 56.4-3-4a.999.999 0 0 0-.8-.4H23.5a4.5 4.5 0 0 1 0-9H27a10.014 10.014 0 0 0 10-10 10.011 10.011 0 0 0-10-10h-9.11a1 1 0 0 0-.78.374l-3.21 4A1 1 0 0 0 14.68 29H27a4 4 0 1 1 0 8h-3.5a10.5 10.5 0 1 0 0 21H43a1 1 0 0 0 .8-1.6z" fill="#ffe266"></path><path d="M37 44a1 1 0 0 1-1-1v-2a2.002 2.002 0 0 1 2-2h2a1 1 0 0 1 0 2h-2v2a1 1 0 0 1-1 1zM61 44a1 1 0 0 1-1-1v-2h-2a1 1 0 0 1 0-2h2a2.002 2.002 0 0 1 2 2v2a1 1 0 0 1-1 1z" fill="#4d4d4d"></path><path d="M40 40h18v9H40z" fill="#333333"></path><path d="M51.61 40a30.28 30.28 0 0 1-2.93 9H40v-9z" fill="#4d4d4d"></path><path d="M58 38v2H40v-2a2.006 2.006 0 0 1 2-2h14a2.006 2.006 0 0 1 2 2z" fill="#4279bd"></path><path d="M51.99 36a30.965 30.965 0 0 1-.38 4H40v-2a2.006 2.006 0 0 1 2-2z" fill="#65a8dc"></path><path d="M58 49v4a2.006 2.006 0 0 1-2 2H42a2.006 2.006 0 0 1-2-2v-4z" fill="#4279bd"></path><path d="M48.68 49a30.741 30.741 0 0 1-4 6H42a2.006 2.006 0 0 1-2-2v-4z" fill="#65a8dc"></path><path d="M45 53h-1a1 1 0 0 1 0-2h1a1 1 0 0 1 0 2zM54 53h-1a1 1 0 0 1 0-2h1a1 1 0 0 1 0 2z" fill="#f2f2f2"></path><path d="M42 55h4v2a1 1 0 0 1-1 1h-2a1 1 0 0 1-1-1v-2zM56 55v2a1.003 1.003 0 0 1-1 1h-2a1.003 1.003 0 0 1-1-1v-2z" fill="#333333"></path><path d="M54.66 55a5.58 5.58 0 0 1-1.53 3H53a1.003 1.003 0 0 1-1-1v-2zM44.66 55a5.58 5.58 0 0 1-1.53 3H43a1.003 1.003 0 0 1-1-1v-2z" fill="#4d4d4d"></path><path d="M13.667 5.958a8.93 8.93 0 0 0-8.72 9.105c0 6.713 7.694 14.291 8.021 14.61a1 1 0 0 0 1.397 0c.327-.319 8.02-7.897 8.02-14.61a8.929 8.929 0 0 0-8.718-9.105z" fill="#ee4042"></path><path d="M16.483 6.479a20.878 20.878 0 0 1-8.94 16.46 15.887 15.887 0 0 1-2.68-7.88 8.924 8.924 0 0 1 8.72-9.1 8.235 8.235 0 0 1 2.9.52z" fill="#ff5543"></path><circle cx="13.667" cy="15.219" fill="#e6e6e6" r="5"></circle><path d="M15.893 10.789a20.704 20.704 0 0 1-4.66 8.85 5.004 5.004 0 0 1 2.35-9.42 4.877 4.877 0 0 1 2.31.57z" fill="#f2f2f2"></path></g></svg>