<svg viewBox="0 0 512 512" xmlns="http://www.w3.org/2000/svg"><g><g clip-rule="evenodd" fill-rule="evenodd"><circle cx="256" cy="184.924" fill="#fe646f" r="157.917" transform="rotate(-45 255.987 184.985)"></circle><circle cx="173.944" cy="327.049" fill="#ffe177" r="157.917" transform="rotate(-45 173.897 327.106)"></circle><circle cx="338.056" cy="327.049" fill="#6cf5c2" r="157.917" transform="rotate(-45 338.022 327.135)"></circle><path d="M201.296 248.091c13.745-23.807 32.752-42.68 54.704-56-46.734-28.357-106.815-31.544-157.877-3.566 1.302 58.21 34.102 108.648 82.027 134.942.56-25.672 7.401-51.57 21.146-75.376z" fill="#ffa373"></path><path d="M256 192.09c21.952 13.32 40.96 32.194 54.704 56s20.586 49.704 21.146 75.375c47.925-26.294 80.725-76.732 82.027-134.942-51.062-27.977-111.143-24.79-157.877 3.567z" fill="#b5ad99"></path><path d="M256 342.841c-27.49 0-53.338-7.024-75.85-19.375-1.191 54.652 26.09 108.276 75.85 138.509 49.76-30.233 77.041-83.857 75.85-138.509-22.512 12.351-48.36 19.375-75.85 19.375z" fill="#b6eb9d"></path><path d="M256 192.09c-21.952 13.32-40.96 32.194-54.704 56-13.745 23.807-20.586 49.704-21.146 75.375 22.512 12.351 48.36 19.375 75.85 19.375s53.338-7.024 75.85-19.375c-.56-25.671-7.401-51.569-21.146-75.375s-32.752-42.68-54.704-56z" fill="#dbb887"></path></g></g></svg>