<svg viewBox="0 0 512 512" xmlns="http://www.w3.org/2000/svg"><g><path d="M452.112 474.455c20.491 0 34.592-20.803 26.757-39.737-7.09-17.133-17.734-29.622-4.74-58.744 22.961-51.459 10.602-78.75-9.714-111.79-34.441-56.012-9.261-84.62-22.653-133.142-48.223-174.717-323.296-174.728-371.523 0-13.393 48.522 11.788 77.129-22.653 133.142-20.316 33.04-32.675 60.331-9.714 111.79 12.994 29.122 2.35 41.612-4.74 58.744-7.835 18.934 6.266 39.737 26.757 39.737z" fill="#735351"></path><path d="M474.129 375.974c22.961-51.459 10.602-78.75-9.714-111.79-34.441-56.013-9.261-84.62-22.653-133.142C416.111 38.11 326.281-5.395 240.544.534c75.454 5.217 147.738 48.721 170.312 130.508 13.393 48.522-11.788 77.13 22.653 133.142 20.316 33.04 32.675 60.331 9.714 111.79-12.994 29.122-2.35 41.612 4.74 58.744 7.835 18.934-6.266 39.737-26.757 39.737h30.905c20.491 0 34.592-20.804 26.757-39.737-7.089-17.133-17.733-29.623-4.739-58.744z" fill="#664442"></path><ellipse cx="396.338" cy="271.048" fill="#fac8a2" rx="31.298" ry="31.444"></ellipse><ellipse cx="115.662" cy="271.048" fill="#fac8a2" rx="31.298" ry="31.444"></ellipse><path d="M111.533 512v-23.24c0-79.666 64.582-144.248 144.248-144.248h.439c79.666 0 144.248 64.582 144.248 144.248V512z" fill="#ff80b3"></path><path d="M256.219 344.512h-.439c-5.145 0-10.227.27-15.233.796 72.505 7.61 129.015 68.932 129.015 143.452V512h30.905v-23.24c0-79.666-64.582-144.248-144.248-144.248z" fill="#ff6ba7"></path><path d="M256.056 454.528h-.111c-20.21 0-36.594-16.384-36.594-36.594v-59.226h73.298v59.226c0 20.21-16.383 36.594-36.593 36.594z" fill="#ffd8ba"></path><path d="M181.344 100.439c-4.633 47.132-28.565 52.383-43.343 57.509-7.086 2.458-11.818 9.18-11.818 16.711v89.116c0 72.03 58.121 130.421 129.818 130.421 71.696 0 129.818-58.392 129.818-130.421v-82.906c0-10.037-8.296-17.981-18.283-17.687-15.63.459-41.584.577-61.692-19.332-25.633-25.379-40.459-16.343-67.21-16.954-33.445-.764-47.285-16.346-52.895-27.297-1.071-2.087-4.165-1.496-4.395.84z" fill="#ffd8ba"></path><path d="M284.704 332.236a7.702 7.702 0 0 1-5.476-2.276c-6.213-6.242-14.463-9.68-23.23-9.68s-17.017 3.438-23.23 9.68a7.727 7.727 0 0 1-10.953-10.901c9.135-9.177 21.274-14.231 34.183-14.231 12.908 0 25.048 5.054 34.183 14.231a7.727 7.727 0 0 1-5.477 13.177z" fill="#f0b07f"></path><g fill="#735351"><path d="M207.356 204.043a7.726 7.726 0 0 1-.181-15.45c14.047-.335 25.526-9.171 25.641-9.261 3.355-2.619 8.207-2.04 10.839 1.305 2.631 3.346 2.072 8.18-1.263 10.823-.624.495-15.51 12.12-34.848 12.581-.063.002-.125.002-.188.002zM308.566 204.043l-.188-.002c-19.338-.461-34.223-12.086-34.848-12.581a7.727 7.727 0 0 1 9.575-12.128c.135.105 11.606 8.926 25.64 9.26a7.726 7.726 0 0 1 7.54 7.908 7.724 7.724 0 0 1-7.719 7.543z" fill="#735351"></path></g><g fill="#f0b07f"><path d="M308.402 282.033c-20.32 0-36.852-16.531-36.852-36.851V230.72a7.726 7.726 0 1 1 15.452 0v14.461c0 11.799 9.6 21.398 21.399 21.398s21.398-9.599 21.398-21.398V230.72a7.726 7.726 0 1 1 15.452 0v14.461c.002 20.32-16.529 36.852-36.849 36.852zM203.598 282.033c-20.32 0-36.851-16.531-36.851-36.851V230.72a7.726 7.726 0 1 1 15.452 0v14.461c0 11.799 9.599 21.398 21.398 21.398s21.399-9.599 21.399-21.398V230.72a7.726 7.726 0 1 1 15.452 0v14.461c.002 20.32-16.53 36.852-36.85 36.852z" fill="#f0b07f"></path></g></g></svg>