<svg fill-rule="evenodd" viewBox="0 0 1707 1707" xmlns="http://www.w3.org/2000/svg"><g><path d="M853 1349c1536-1799-1536-1799 0 0z" fill="#ff4a4a"></path><circle cx="853" cy="396" fill="#ffffff" r="160"></circle><path d="M306 991h286c66 110 151 229 261 358 110-129 196-248 262-358h285c65 0 111 53 118 117l52 481c7 64-52 118-117 118H254c-65 0-125-54-118-118l53-481c7-64 53-117 117-117z" fill="#44c868"></path><path d="m1532 1240 24 217h-377l66 250h-224l-67-250H151l23-217h591c28 36 57 72 88 109 32-37 61-73 89-109z" fill="#ffbb24"></path><path d="m1021 1707-67-250H151l-15 132c-7 64 53 118 118 118z" fill="#1ea4e9"></path></g></svg>