<svg viewBox="0 0 512 512" xmlns="http://www.w3.org/2000/svg"><g><path d="M488.847 167.927h-65.043a7.488 7.488 0 0 1-7.489-7.489V118.27a7.489 7.489 0 0 1 3.132-6.091l34.97-25.019a7.489 7.489 0 1 1 8.716 12.181l-31.84 22.779v30.827h57.554a7.488 7.488 0 0 1 7.489 7.489 7.488 7.488 0 0 1-7.489 7.491z" fill="#bdbfba"></path><path d="M481.358 80.389a7.488 7.488 0 0 1-7.489-7.489V40.031l-27.867-22.595a7.489 7.489 0 1 1 9.434-11.634l30.64 24.843a7.487 7.487 0 0 1 2.772 5.817v36.437a7.49 7.49 0 0 1-7.49 7.49z" fill="#525360"></path><path d="M481.358 160.438a7.488 7.488 0 0 0-7.489 7.489v175.511c0 30.001-26.331 54.407-58.694 54.407-32.365 0-58.696-24.407-58.696-54.407v-67.797a7.488 7.488 0 0 0-7.489-7.489 7.488 7.488 0 0 0-7.489 7.489v67.797c0 38.259 33.05 69.386 73.674 69.386 40.623 0 73.672-31.127 73.672-69.386V167.927a7.488 7.488 0 0 0-7.489-7.489z" fill="#bdbfba"></path><path d="M328.57 476.815V26.526c0-8.232-6.672-14.906-14.906-14.906H70.197c-8.234 0-14.906 6.674-14.906 14.906v450.289H328.57z" fill="#ff8c01"></path><path d="M95.267 11.62h-25.07c-8.234 0-14.906 6.674-14.906 14.906v450.289h25.07V26.526c0-8.232 6.672-14.906 14.906-14.906z" fill="#e8650c"></path><path d="M368.321 507.87H15.54c-8.574 0-15.527-6.951-15.527-15.527s6.953-15.529 15.527-15.529h352.78c8.576 0 15.527 6.953 15.527 15.529s-6.951 15.527-15.526 15.527z" fill="#636570"></path><path d="M368.321 492.343H15.54c-5.743 0-10.746-3.126-13.432-7.763-5.991 10.341 1.502 23.29 13.432 23.29h352.78c11.93 0 19.423-12.949 13.432-23.29-2.685 4.636-7.688 7.763-13.431 7.763z" fill="#393a47"></path><path d="M272.052 51.369H111.809c-8.232 0-14.906 6.674-14.906 14.906v114.814h190.055V66.275c.001-8.233-6.674-14.906-14.906-14.906z" fill="#c8e5fc"></path><path d="M272.052 51.369h-71.496c-13.448 41.94-16.803 86.488-10.131 129.72h96.532V66.275c.002-8.233-6.673-14.906-14.905-14.906z" fill="#e0f1fc"></path><path d="M201.455 265.817c0 8.232-6.674 14.906-14.906 14.906h-74.74c-8.232 0-14.906-6.674-14.906-14.906v-15.32c0-8.232 6.674-14.906 14.906-14.906h74.74c8.232 0 14.906 6.674 14.906 14.906v15.32z" fill="#ffdaa4"></path><path d="M186.549 258.157h-74.74c-6.98 0-12.823-4.804-14.444-11.284-.599 2.399-.462 2.084-.462 18.944 0 8.232 6.674 14.906 14.906 14.906h74.74c8.232 0 14.906-6.674 14.906-14.906v-15.32c0-1.252-.172-2.461-.462-3.624-1.621 6.479-7.464 11.284-14.444 11.284z" fill="#ffc35a"></path><path d="M286.959 250.569h-51.552a7.488 7.488 0 0 1-7.489-7.489 7.488 7.488 0 0 1 7.489-7.489h51.552a7.488 7.488 0 0 1 7.489 7.489 7.488 7.488 0 0 1-7.489 7.489z" fill="#e8650c"></path><path d="M136.773 51.369h-24.964c-8.232 0-14.906 6.674-14.906 14.906v114.814h24.964V66.275c0-8.233 6.674-14.906 14.906-14.906z" fill="#8fc8f2"></path><path d="M342.647 243.08h-14.078v45.132h14.078c8.232 0 14.906-6.674 14.906-14.906v-15.32c0-8.232-6.674-14.906-14.906-14.906z" fill="#636570"></path><path d="M512 153.022c0 8.233-6.674 14.906-14.906 14.906h-31.468c-8.232 0-14.906-6.673-14.906-14.906V87.806c0-8.232 6.674-14.906 14.906-14.906h31.468c8.232 0 14.906 6.674 14.906 14.906v65.216z" fill="#fca84c"></path><path d="M481.359 153.022V87.806c0-8.232 6.674-14.906 14.906-14.906h-30.64c-8.232 0-14.906 6.674-14.906 14.906v65.216c0 8.233 6.674 14.906 14.906 14.906h30.64c-8.231-.001-14.906-6.673-14.906-14.906z" fill="#ff8c01"></path><path d="m210.953 113.066-14.819-23.151c-1.961-3.066-6.451-3.064-8.41 0l-14.817 23.152c-4.518 7.061-5.019 16.463.015 24.339 8.735 13.658 29.062 14.002 38.014 0l.328-.511c.03-.048.061-.097.09-.146 4.374-7.386 4.219-16.46-.401-23.683z" fill="#577ddd"></path><path d="M187.48 118.48c5.371-29.364 4.76-28.621 6.947-30.19a4.982 4.982 0 0 0-6.701 1.626l-14.817 23.152c-12.861 20.099 10.245 43.861 31.012 31.295-11.243-2.979-18.602-14.076-16.441-25.883z" fill="#4369b5"></path><path d="M96.904 178.96v18.743c0 8.232 6.674 14.906 14.906 14.906h160.243c8.232 0 14.906-6.674 14.906-14.906V178.96H96.904z" fill="#636570"></path><path d="M121.867 197.704v-18.743H96.904v18.743c0 8.232 6.674 14.906 14.906 14.906h24.964c-8.233 0-14.907-6.674-14.907-14.906z" fill="#393a47"></path></g></svg>