<svg viewBox="0 0 506.7 471.1" xmlns="http://www.w3.org/2000/svg"><g><path d="M120.2 0h358.2c15.7 0 28.4 12.7 28.4 28.4v206.1c0 15.7-12.7 28.4-28.4 28.4H120.2c-15.7 0-28.4-12.7-28.4-28.4V28.4C91.8 12.7 104.5 0 120.2 0z" fill="#02648e"></path><g fill="#d1d3d4"><path d="M242.1 40.5h158.6v12H242.1zM330 72.1h70.8v12H330zM242.1 72.1h56.1v12h-56.1zM350.9 164.2h49.9v12h-49.9zM242.1 164.2h82.8v12h-82.8zM242.4 105h101.8v12H242.4zM242.4 133h158.4v12H242.4z" fill="#d1d3d4"></path></g><path d="m226 316.5-51.1 13.2c-4.4 1.1-9.1.1-12.5-2.9l-39.7-33.6 24.8-27.7 32 28.6 38.2-9.9c6.4-1.6 12.9 2.2 14.6 8.6l2.3 9.1c1.6 6.4-2.2 12.9-8.6 14.6z" fill="#efcdb1"></path><path d="m211.3 280.6 51.6-89.8c1.2-2.1 3.9-2.8 6-1.6l2.8 1.6c2.1 1.2 2.8 3.9 1.6 6l-51.6 89.8c-1.2 2.1-3.9 2.8-6 1.6l-2.8-1.6c-2.1-1.2-2.8-3.9-1.6-6z" fill="#58595b"></path><path d="M120.4 371.4v-73.2l3.5-14.1V270l33.9-.5v-19c0-16-12.9-28.9-28.9-28.9l-100 .5C13 222.2.1 235.1 0 251v19h27.8l-4.2 18.8 9.2 13.1.5 69.5z" fill="#d1d3d4"></path><path d="M138.7 219.2c-1.2 1.2-34.5-2.9-34.5-2.9-10.6-6.8 17.1-16.8 18.5-37.8.4-4.9.4-9.9 0-14.8-.5-8.6-2.1-17.1-4.7-25.3-11.5 1.9-23.2 1.7-34.7-.4-27.8-5-42.2-16.9-42.2-16.9s-3.2 17-5.1 37.2c-1.3 13.6 1.7 24.2 5.3 31.4 4.9 9.5 16 23.8 16 23.8s-50.9 9.9-50.9 2.8c0-27.2 1.7-47.5 6.3-78.3s23.4-59.7 62.2-58.7 61.5 26.1 65.9 67.5c3 28.7 7.6 62.8-2.1 72.4z" fill="#99561f"></path><path d="M57.3 204.5v19.4h1.5l21.8 49.7 21.9-49.7h1.2v-19.4z" fill="#efcdb1"></path><path d="m33.3 371.4-24 99.7h155.8l-17.2-99.7" fill="#ff826e"></path><path d="m51.5 222.3-15 16.5c-1.6 1.8-1.5 4.6.3 6.2.3.3.6.5 1 .7l14.6 7.4c2 1 3 3.4 2.1 5.5l-2.7 6.8c-.9 2.3.3 4.8 2.5 5.7h.1l21.1 7.4c2.3.8 4.8-.5 5.6-2.8.4-1.1.3-2.2-.2-3.2l-22.1-49.1c-1-2.2-3.6-3.2-5.8-2.2-.6.3-1.1.6-1.5 1.1z" fill="#e6e7e8"></path><path d="m110.5 221.5 15 16.6c1.6 1.8 1.4 4.6-.4 6.2l-.9.6-14.6 7.4c-2 1.1-2.9 3.5-2.1 5.6l2.7 6.7c.9 2.2-.1 4.7-2.2 5.7-.1.1-.2.1-.4.1l-21 7.3c-2.3.8-4.8-.4-5.6-2.7-.4-1-.3-2.2.1-3.2l22.2-49.2c.9-2.2 3.5-3.2 5.7-2.2.5.2 1.1.6 1.5 1.1z" fill="#e6e7e8"></path><path d="M57.3 270h89.8v101.4H57.3z" fill="#ffc700"></path><path d="M111.6 324.3V340c0 4.4-3.6 8-8 8H13.4c-7.3.1-13.3-5.9-13.4-13.2V270h27.8c-.4 2.4-.7 4.9-.7 7.3 0 8.5 2 16.9 5.7 24.6V315h2.9l36 1.8 10.7-18.3c2.8-2.6 6.9-3.2 10.3-1.5h.2c3.8 2 5.7 6.4 4.4 10.5l-2.6 8.7h8.9c4.4 0 8 3.6 8 8zM122.7 163.7v11.4c-.1 24.3-19.9 43.9-44.2 43.8-18.4-.1-34.8-11.6-41.1-28.8-1.8-7.8-2.7-18.2-1.4-31.8 1.9-20.2 5.1-37.2 5.1-37.2S55.5 133 83.3 138c11.5 2.1 23.2 2.3 34.7.4 2.6 8.2 4.2 16.7 4.7 25.3z" fill="#efcdb1"></path><g fill="#58595b"><path d="M108.1 158.3c0 3.2-2.6 5.8-5.8 5.8s-5.8-2.6-5.8-5.8 2.6-5.8 5.8-5.8 5.8 2.6 5.8 5.8zM64.5 158.9c0 3.2-2.6 5.8-5.8 5.8s-5.8-2.6-5.8-5.8 2.6-5.8 5.8-5.8 5.8 2.6 5.8 5.8zM78.7 198.4c-6.8 0-13-2.8-16.6-7.5-2-2.7-1.5-6.4 1.2-8.4 2.7-1.9 6.4-1.4 8.4 1.2 1 1.4 3.6 2.7 7 2.7s6.3-1.4 7.2-2.8c1.8-2.7 5.4-3.6 8.1-1.8.1 0 .1.1.2.1 2.8 1.8 3.5 5.5 1.7 8.3-3.4 5.1-9.9 8.2-17.2 8.2z" fill="#58595b"></path></g><path d="M475.8 336.1c-1.7 3.2-4 6.2-6.8 8.6l-9 9v9h-52.6v-9c-5.3-4.6-14.5-10.8-18-17.6z" fill="#efcdb1"></path><path d="M479.4 281.4v40.5c0 5 5.8 9.9 3.5 14.2h-99.3c-.9-1.7 4.4-12.4 4.4-14.2v-40.5c0-24.2 19.6-43.8 43.8-43.8h3.8c24.2 0 43.8 19.6 43.8 43.8z" fill="#503d31"></path><g fill="#58595b"><path d="M403.9 306.7h12v29.4h-12zM427.7 306.7h12v29.4h-12zM453.2 306.7h12v29.4h-12z" fill="#58595b"></path></g><path d="M346.9 308.4v13.5c0 8.7-3.8 17.1-10.4 22.8l-9 9v9H275v-9c-6.6-5.7-19.4-14-19.4-22.7v-22.2l22.4 19.4h45.4z" fill="#efcdb1"></path><path d="M346.9 281.4v27l-23.5 19.8H278l-22.5-19.4v-27.4c0-24.2 19.6-43.8 43.8-43.8h3.8c24.2 0 43.8 19.6 43.8 43.8z" fill="#503d31"></path><path d="M268.3 362.8h65.9c19.4 0 35.2 15.8 35.2 35.2v73.1H233.1v-73.2c.1-19.4 15.8-35.1 35.2-35.1z" fill="#ff826e"></path><path d="M326.8 384.7h-51.5c-13.8 0-25.3 10.4-26.7 24.1l-6.5 62.3H360l-6.5-62.3c-1.4-13.7-12.9-24.1-26.7-24.1z" fill="#503d31"></path><path d="M404.6 362.8h65.9c19.4 0 35.2 15.8 35.2 35.2v73.1H369.4v-73.2c.1-19.4 15.8-35.1 35.2-35.1z" fill="#ff826e"></path><path d="M463.1 384.7h-51.5c-13.8 0-25.3 10.4-26.7 24.1l-6.5 62.3h117.9l-6.5-62.3c-1.4-13.7-12.9-24.1-26.7-24.1z" fill="#503d31"></path></g></svg>