<svg viewBox="0 0 512 512" xmlns="http://www.w3.org/2000/svg"><g><path d="M221.629 1.881c-114.659 0-169.212 43.841-169.212 97.922 0 30.257 17.083 57.306 52.207 75.269l-27.06 22.588a3.227 3.227 0 0 0-.933 3.663l15.662 39.618a2.151 2.151 0 0 1-.539 2.369l-41.81 38.687c-2.525 2.336-.129 6.474 3.154 5.447l81.481-25.481a4.3 4.3 0 0 0 2.828-5.368l-11.404-37.162a2.15 2.15 0 0 1 1.289-2.64l54.978-20.976c12.23 1.249 25.342 1.908 39.358 1.908 114.659 0 169.212-43.842 169.212-97.923S336.288 1.881 221.629 1.881z" fill="#dff6fd"></path><path d="M316.325 15.213c36.275 18.891 53.912 47.753 53.912 80.101 0 53.022-47.367 96.683-146.573 102.399 113.263-.519 167.177-44.152 167.177-97.91-.001-36.084-24.295-67.604-74.516-84.59z" fill="#c8effe"></path><circle cx="87.736" cy="422.383" fill="#fd8087" r="87.736" transform="rotate(-45 87.666 422.431)"></circle><path d="M87.736 334.647c-3.487 0-6.921.226-10.302.622 43.598 5.103 77.434 42.146 77.434 87.114s-33.837 82.011-77.434 87.114c3.381.396 6.814.622 10.302.622 48.455 0 87.736-39.281 87.736-87.736s-39.281-87.736-87.736-87.736z" fill="#fe646f"></path><path d="m98.343 422.383 31.103-31.103a7.5 7.5 0 0 0 0-10.606 7.5 7.5 0 0 0-10.606 0l-31.103 31.103-31.103-31.103a7.5 7.5 0 0 0-10.606 0 7.5 7.5 0 0 0 0 10.606l31.103 31.103-31.103 31.103a7.5 7.5 0 0 0 5.303 12.803 7.474 7.474 0 0 0 5.303-2.197l31.103-31.103 31.103 31.103c1.464 1.464 3.384 2.197 5.303 2.197s3.839-.732 5.303-2.197a7.5 7.5 0 0 0 0-10.606z" fill="#f4eafa"></path><g fill="#b98080"><path d="M181.302 263.34c-8.734 10.246-16.532 32.178-33.788 36.312-5.276 1.264-7.269 7.759-3.678 11.826 27.253 30.87 83.431 28.559 95.003.284l9.016-25.978c-19.146-39.638-51.228-40.421-66.553-22.444zM472.716 263.34c8.734 10.246 16.532 32.178 33.788 36.312 5.276 1.264 7.269 7.759 3.678 11.826-27.253 30.87-83.431 28.559-95.003.284l-9.016-25.978c19.146-39.638 51.228-40.421 66.553-22.444z" fill="#b98080"></path></g><path d="M327.009 233.799c-72.135 0-130.612 39.815-130.612 115.534s58.477 108.794 130.612 108.794 130.612-33.075 130.612-108.794-58.477-115.534-130.612-115.534z" fill="#b98080"></path><path d="M369.551 238.863c39.094 17.935 65.406 53.837 65.406 106.487 0 74.374-52.504 109.053-119.379 112.488 3.768.19 7.579.29 11.431.29 72.135 0 130.612-33.075 130.612-108.794 0-60.084-36.823-97.556-88.07-110.471z" fill="#ae6c6c"></path><path d="M422.844 392.462h-191.67c-14.852 0-26.892 12.04-26.892 26.892s12.04 26.892 26.892 26.892h191.67c14.852 0 26.892-12.04 26.892-26.892s-12.04-26.892-26.892-26.892z" fill="#ffbd86"></path><path d="M242.464 344.031v77.704c0 46.787 37.471 85.646 84.258 85.802 23.461.078 44.708-9.4 60.071-24.762 15.3-15.3 24.762-36.436 24.762-59.783V367.16c0-4.19-3.84-7.367-7.941-6.512-50.837 10.597-97.465-.19-140.775-27.84-8.819-5.628-20.375.762-20.375 11.223z" fill="#fed2a4"></path><g fill="#e49280"><path d="M368.933 422.583a7.47 7.47 0 0 1-4.911-1.834l-12.719-11.033a10.788 10.788 0 0 1-3.721-8.156c0-3.131 1.357-6.103 3.722-8.154l12.718-11.033a7.5 7.5 0 0 1 9.829 11.331l-9.057 7.856 9.057 7.856a7.5 7.5 0 0 1 .751 10.58 7.478 7.478 0 0 1-5.669 2.587zM285.085 422.583a7.5 7.5 0 0 1-4.918-13.165l9.057-7.856-9.057-7.856a7.5 7.5 0 0 1 9.829-11.331l12.719 11.033a10.791 10.791 0 0 1 0 16.309l-12.719 11.033a7.474 7.474 0 0 1-4.911 1.833z" fill="#e49280"></path></g><path d="M347.953 459.947a7.5 7.5 0 0 1-6.684-4.088c-2.328-4.555-7.642-9.151-14.265-9.151-6.616 0-11.927 4.596-14.255 9.151a7.5 7.5 0 0 1-13.356-6.826c5.379-10.524 16.217-17.325 27.611-17.325 11.401 0 22.243 6.8 27.622 17.325a7.5 7.5 0 0 1-6.673 10.914z" fill="#e49280"></path><g fill="#7a8c98"><path d="M114.485 117.741a7.5 7.5 0 0 0-7.5 7.5v2.06a7.5 7.5 0 0 0 15 0v-2.06a7.5 7.5 0 0 0-7.5-7.5zM114.485 58.86a7.5 7.5 0 0 0-7.5 7.5v30.876a7.5 7.5 0 0 0 15 0V66.36a7.5 7.5 0 0 0-7.5-7.5zM144.557 117.741a7.5 7.5 0 0 0-7.5 7.5v2.06a7.5 7.5 0 0 0 15 0v-2.06a7.5 7.5 0 0 0-7.5-7.5zM144.557 58.86a7.5 7.5 0 0 0-7.5 7.5v30.876a7.5 7.5 0 0 0 15 0V66.36a7.5 7.5 0 0 0-7.5-7.5zM335.139 117.741a7.5 7.5 0 0 0-7.5 7.5v2.06a7.5 7.5 0 0 0 15 0v-2.06a7.5 7.5 0 0 0-7.5-7.5zM335.139 58.86a7.5 7.5 0 0 0-7.5 7.5v30.876a7.5 7.5 0 0 0 15 0V66.36a7.5 7.5 0 0 0-7.5-7.5zM221.776 72.369a7.498 7.498 0 0 0-10.587.643L194.968 91.33l-16.222-18.318a7.5 7.5 0 0 0-11.23 9.944l17.433 19.687-17.433 19.687a7.5 7.5 0 0 0 11.23 9.944l16.222-18.318 16.222 18.318a7.48 7.48 0 0 0 5.618 2.528 7.5 7.5 0 0 0 5.612-12.472l-17.433-19.687 17.433-19.687a7.501 7.501 0 0 0-.644-10.587zM304.283 91.905a7.5 7.5 0 0 0 0-15h-6.971v-6.758a7.5 7.5 0 0 0-15 0v6.758h-13.986v-6.758a7.5 7.5 0 0 0-15 0v6.758h-6.971a7.5 7.5 0 0 0 0 15h6.971v12.609h-6.971a7.5 7.5 0 0 0 0 15h6.971v6.758a7.5 7.5 0 0 0 15 0v-6.758h13.986v6.758a7.5 7.5 0 0 0 15 0v-6.758h6.971a7.5 7.5 0 0 0 0-15h-6.971V91.905zm-21.971 12.609h-13.986V91.905h13.986z" fill="#7a8c98"></path></g></g></svg>