<svg viewBox="0 0 512 512" xmlns="http://www.w3.org/2000/svg"><g><path d="M179.527 249.95c.24 0 .481-.013.72-.036.089-.008.175-.024.263-.036.148-.019.296-.039.442-.068.103-.02.204-.046.306-.07.129-.031.257-.061.385-.099.104-.031.207-.066.309-.101.122-.042.242-.085.362-.133a7.963 7.963 0 0 0 .934-.453 7.774 7.774 0 0 0 .9-.607c.093-.073.185-.148.274-.225.044-.038.091-.071.135-.111.045-.041.083-.086.127-.127a8.156 8.156 0 0 0 .523-.548c.078-.091.153-.184.226-.278.08-.102.157-.204.231-.309.065-.092.126-.187.187-.282a6.374 6.374 0 0 0 .364-.641c.056-.112.112-.224.163-.338.05-.111.094-.225.138-.339a7.05 7.05 0 0 0 .122-.334c.04-.12.074-.241.108-.364a6.497 6.497 0 0 0 .159-.708c.021-.121.04-.242.056-.364a8.02 8.02 0 0 0 .055-.758c.001-.058.009-.114.009-.173 0-.053-.007-.105-.008-.158a9 9 0 0 0-.052-.75 8.443 8.443 0 0 0-.125-.732 6.508 6.508 0 0 0-.094-.365 7.95 7.95 0 0 0-.101-.343c-.039-.117-.083-.232-.127-.348a6.517 6.517 0 0 0-.136-.335c-.049-.111-.104-.22-.159-.33-.056-.11-.111-.22-.172-.327-.058-.103-.122-.204-.185-.305a6.94 6.94 0 0 0-.214-.323c-.065-.092-.134-.182-.203-.272a8.136 8.136 0 0 0-.262-.321c-.035-.04-.064-.083-.1-.123l-39.792-43.979h34.233c.24 0 .48-.013.719-.036.089-.008.175-.024.263-.036.148-.019.296-.039.442-.068.104-.02.204-.046.306-.07a6.358 6.358 0 0 0 .694-.2 6.751 6.751 0 0 0 1.005-.427 8.357 8.357 0 0 0 .611-.353 7.104 7.104 0 0 0 .573-.407c.099-.077.196-.157.291-.239.041-.036.085-.066.125-.103.042-.038.077-.08.118-.118a7.562 7.562 0 0 0 1.182-1.435c.067-.106.134-.212.195-.321.059-.104.113-.21.167-.317.055-.109.109-.217.158-.328.051-.115.097-.231.142-.349.041-.108.082-.215.119-.324.041-.122.076-.247.111-.372.03-.11.06-.22.085-.332.028-.124.052-.249.073-.375a7.23 7.23 0 0 0 .11-1.117c.001-.059.009-.116.009-.175 0-.054-.007-.106-.008-.16a7.057 7.057 0 0 0-.021-.412 7.576 7.576 0 0 0-.032-.338 7.273 7.273 0 0 0-.059-.384 6.716 6.716 0 0 0-.067-.349 6.559 6.559 0 0 0-.093-.36 8.178 8.178 0 0 0-.102-.348c-.038-.116-.082-.23-.126-.344s-.088-.228-.137-.339c-.049-.11-.103-.218-.157-.326-.056-.111-.112-.222-.174-.33a7.095 7.095 0 0 0-.183-.301c-.07-.11-.14-.22-.215-.326a7.015 7.015 0 0 0-.202-.27 6.826 6.826 0 0 0-.263-.322c-.035-.04-.064-.083-.1-.122l-51.131-56.517a7.5 7.5 0 0 0-10.593-.53 7.498 7.498 0 0 0-.53 10.593l39.793 43.986h-34.232c-.054 0-.106.007-.16.008-.137.003-.274.01-.411.021a7.117 7.117 0 0 0-.723.091c-.117.02-.233.041-.348.067-.121.027-.241.06-.361.093a7.728 7.728 0 0 0-.347.102c-.116.038-.23.082-.345.126a7.188 7.188 0 0 0-.337.137c-.111.049-.22.104-.33.159s-.219.111-.326.171a7.332 7.332 0 0 0-.306.186 6.842 6.842 0 0 0-.911.675c-.042.036-.086.067-.127.104-.045.041-.083.086-.127.127a8.156 8.156 0 0 0-.523.548 7.414 7.414 0 0 0-.226.278c-.08.102-.157.204-.231.309-.065.092-.126.187-.187.282-.07.11-.139.221-.203.334-.057.1-.109.203-.161.306a6.2 6.2 0 0 0-.3.677 7.887 7.887 0 0 0-.123.335c-.04.12-.074.241-.108.363a6.497 6.497 0 0 0-.159.708c-.021.121-.04.242-.056.364a8.02 8.02 0 0 0-.055.758c-.001.058-.009.114-.009.173 0 .053.007.105.008.158a9 9 0 0 0 .052.75 8.443 8.443 0 0 0 .125.732c.027.123.06.244.094.365.032.115.064.23.101.343.039.117.083.233.128.349.043.112.086.224.135.334.05.112.104.221.159.331s.111.22.171.327c.058.103.122.204.185.305a6.94 6.94 0 0 0 .679.916c.035.04.064.083.1.123l39.792 43.979h-34.231c-.053 0-.104.007-.156.008a7.368 7.368 0 0 0-1.144.112c-.114.02-.228.04-.34.065a7.987 7.987 0 0 0-.369.095c-.114.032-.227.063-.339.1a6.856 6.856 0 0 0-.354.13c-.111.043-.221.085-.329.133-.113.05-.225.106-.336.162a6.542 6.542 0 0 0-.631.357 7.593 7.593 0 0 0-.318.21 9.131 9.131 0 0 0-.59.463c-.042.036-.086.067-.127.104-.045.041-.083.086-.127.127a8.156 8.156 0 0 0-.523.548 7.414 7.414 0 0 0-.226.278c-.08.102-.157.204-.231.309-.065.092-.126.187-.187.282-.07.11-.139.221-.203.334-.057.1-.109.203-.161.306a6.2 6.2 0 0 0-.3.677 7.887 7.887 0 0 0-.123.335c-.04.12-.074.241-.108.363a6.497 6.497 0 0 0-.159.708c-.021.121-.04.242-.056.364a8.02 8.02 0 0 0-.055.758c-.001.058-.009.114-.009.173 0 .053.007.105.008.158a9 9 0 0 0 .052.75 8.443 8.443 0 0 0 .125.732c.027.123.06.244.094.365.032.115.064.23.101.343.039.117.083.233.128.349.043.112.086.224.135.334.05.112.104.221.159.331s.111.22.171.327c.058.103.122.204.185.305a6.94 6.94 0 0 0 .679.916c.035.04.064.083.1.123l39.792 43.979h-34.231c-.053 0-.104.007-.157.008-.14.003-.279.01-.419.021a7.309 7.309 0 0 0-.332.031 8.485 8.485 0 0 0-.733.125c-.122.027-.243.06-.364.094a6.827 6.827 0 0 0-.345.102c-.117.039-.232.083-.347.127a6.283 6.283 0 0 0-.666.296c-.11.055-.219.111-.325.171a7.332 7.332 0 0 0-.306.186 6.842 6.842 0 0 0-.911.675c-.042.036-.086.067-.127.104-.045.041-.083.086-.127.127a8.156 8.156 0 0 0-.523.548 7.414 7.414 0 0 0-.226.278c-.08.102-.157.204-.231.309-.065.092-.126.187-.187.282-.07.11-.139.221-.203.334-.057.1-.109.203-.161.306a6.2 6.2 0 0 0-.3.677 7.887 7.887 0 0 0-.123.335c-.04.12-.074.241-.108.364a6.497 6.497 0 0 0-.159.708c-.021.121-.04.242-.056.364a8.02 8.02 0 0 0-.055.758c-.001.058-.009.114-.009.173 0 .053.007.105.008.158a9.204 9.204 0 0 0 .052.75 8.485 8.485 0 0 0 .125.732c.027.123.06.245.094.367.032.115.063.229.1.341.039.119.084.235.129.352.043.111.086.222.134.33.05.113.106.225.162.336.054.108.109.216.169.321.059.105.124.208.188.311.068.107.136.213.209.316a9.17 9.17 0 0 0 .463.591c.036.042.067.086.104.127l39.791 43.978h-34.23c-.053 0-.104.007-.156.008a7.368 7.368 0 0 0-1.144.112c-.114.02-.228.04-.34.065a7.987 7.987 0 0 0-.369.095c-.114.032-.227.063-.339.1a6.856 6.856 0 0 0-.354.13c-.111.043-.221.085-.329.133-.113.05-.225.106-.336.162a6.542 6.542 0 0 0-.631.357 7.593 7.593 0 0 0-.318.21 9.131 9.131 0 0 0-.59.463c-.042.036-.086.067-.127.104-.045.041-.083.086-.127.127a8.156 8.156 0 0 0-.523.548 7.414 7.414 0 0 0-.226.278c-.08.102-.157.204-.231.309-.065.092-.126.187-.187.282-.07.11-.139.221-.203.334-.057.1-.109.203-.161.306a6.2 6.2 0 0 0-.3.677 7.887 7.887 0 0 0-.123.335c-.04.12-.074.241-.108.363a6.497 6.497 0 0 0-.159.708c-.021.121-.04.242-.056.364a8.02 8.02 0 0 0-.055.758c-.001.058-.009.114-.009.173 0 .053.007.105.008.158a9 9 0 0 0 .052.75 8.443 8.443 0 0 0 .125.732c.027.123.06.244.094.365.032.115.064.23.101.343.039.117.083.233.128.349.043.112.086.224.135.334.05.112.104.221.159.331s.111.22.171.327c.058.103.122.204.185.305a6.94 6.94 0 0 0 .679.916c.035.04.064.083.1.123l39.792 43.979h-34.231c-.052 0-.102.007-.153.008a8.675 8.675 0 0 0-.751.052 6.674 6.674 0 0 0-.397.061c-.113.02-.225.04-.335.064-.125.028-.25.062-.374.096a6.16 6.16 0 0 0-.335.099c-.12.039-.238.085-.356.13-.11.042-.219.085-.327.132-.114.05-.226.106-.338.163-.107.054-.214.108-.319.167-.105.06-.208.124-.311.189a8.25 8.25 0 0 0-.317.209 9.131 9.131 0 0 0-.59.463c-.042.036-.086.067-.127.104-.045.041-.083.086-.127.127a7.288 7.288 0 0 0-.748.823c-.08.103-.159.206-.233.312a7.461 7.461 0 0 0-.184.279 7.76 7.76 0 0 0-.205.337 6.706 6.706 0 0 0-.159.303c-.057.113-.114.226-.165.342-.049.11-.093.222-.136.334s-.086.225-.124.339c-.04.119-.074.24-.107.361a8.121 8.121 0 0 0-.088.341 8.812 8.812 0 0 0-.128.733 7.974 7.974 0 0 0-.055.757c-.001.058-.009.114-.009.173 0 .053.007.105.008.158a9.259 9.259 0 0 0 .052.75 8.443 8.443 0 0 0 .125.733c.027.122.06.243.094.364.032.116.064.231.101.344a9.122 9.122 0 0 0 .262.683c.049.112.104.221.159.33.055.11.111.22.172.327.058.103.121.203.185.304a6.97 6.97 0 0 0 .679.917c.035.04.064.083.1.123l51.131 56.513a7.476 7.476 0 0 0 5.562 2.468 7.5 7.5 0 0 0 5.56-12.531l-39.793-43.981h34.233c.24 0 .48-.013.719-.036.089-.008.175-.024.263-.036.148-.019.296-.039.442-.068.103-.02.204-.046.306-.07.129-.031.257-.061.385-.099.104-.031.207-.066.309-.101.122-.042.242-.085.362-.133a7.963 7.963 0 0 0 .934-.453 7.774 7.774 0 0 0 .9-.607c.093-.073.185-.148.274-.225.044-.038.091-.071.135-.111.045-.041.083-.086.127-.127a8.156 8.156 0 0 0 .523-.548c.078-.091.153-.184.226-.278.08-.102.157-.204.231-.309.065-.092.126-.187.187-.282a6.374 6.374 0 0 0 .364-.641c.056-.112.112-.224.163-.338.05-.111.094-.225.138-.339a7.05 7.05 0 0 0 .122-.334c.04-.12.074-.241.108-.364a6.497 6.497 0 0 0 .159-.708c.021-.121.04-.242.056-.364a8.02 8.02 0 0 0 .055-.758c.001-.058.009-.114.009-.173 0-.053-.007-.105-.008-.158a9 9 0 0 0-.052-.75 8.443 8.443 0 0 0-.125-.732 6.508 6.508 0 0 0-.094-.365 7.95 7.95 0 0 0-.101-.343c-.039-.117-.083-.232-.127-.348a6.517 6.517 0 0 0-.136-.335c-.049-.111-.104-.22-.159-.33-.056-.11-.111-.22-.172-.327-.058-.103-.122-.204-.185-.305a6.94 6.94 0 0 0-.214-.323c-.065-.092-.134-.182-.203-.272a8.136 8.136 0 0 0-.262-.321c-.035-.04-.064-.083-.1-.123l-39.792-43.979h34.233c.24 0 .48-.013.719-.036.089-.008.175-.024.263-.036.148-.019.296-.039.442-.068.103-.02.204-.046.306-.07.129-.031.257-.061.385-.099.104-.031.207-.066.309-.101.122-.042.242-.085.362-.133a7.963 7.963 0 0 0 .934-.453 7.774 7.774 0 0 0 .9-.607c.093-.073.185-.148.274-.225.044-.038.091-.071.135-.111.045-.041.083-.086.127-.127a8.156 8.156 0 0 0 .523-.548c.078-.091.153-.184.226-.278.08-.102.157-.204.231-.309.065-.092.126-.187.187-.282a6.374 6.374 0 0 0 .364-.641c.056-.112.112-.224.163-.338.05-.111.094-.225.138-.339a7.05 7.05 0 0 0 .122-.334c.04-.12.074-.242.108-.364a6.497 6.497 0 0 0 .159-.708c.021-.121.04-.242.056-.364a8.02 8.02 0 0 0 .055-.758c.001-.058.009-.114.009-.173 0-.053-.007-.105-.008-.158a9.204 9.204 0 0 0-.052-.75 8.485 8.485 0 0 0-.125-.732 6.807 6.807 0 0 0-.094-.367c-.032-.115-.063-.229-.101-.341a7.782 7.782 0 0 0-.128-.351 7.42 7.42 0 0 0-.134-.332 7.34 7.34 0 0 0-.161-.335 6.542 6.542 0 0 0-.169-.321c-.059-.105-.124-.208-.188-.311a7.504 7.504 0 0 0-.209-.316 9.17 9.17 0 0 0-.463-.591c-.036-.042-.067-.086-.104-.127l-39.792-43.978h34.232c.24 0 .48-.013.719-.036.089-.008.175-.024.263-.036.148-.019.296-.039.442-.068.103-.02.204-.046.306-.07.129-.031.257-.061.385-.099.104-.031.207-.066.309-.101.122-.042.242-.085.362-.133a7.963 7.963 0 0 0 .934-.453 7.774 7.774 0 0 0 .9-.607c.093-.073.185-.148.274-.225.044-.038.091-.071.135-.111.045-.041.083-.086.127-.127a8.156 8.156 0 0 0 .523-.548c.078-.091.153-.184.226-.278.08-.102.157-.204.231-.309.065-.092.126-.187.187-.282.07-.11.139-.221.203-.334.057-.1.109-.203.161-.306.056-.112.112-.224.163-.338.05-.111.094-.225.138-.339a7.05 7.05 0 0 0 .122-.334c.04-.12.074-.241.108-.364a6.497 6.497 0 0 0 .159-.708c.021-.121.04-.242.056-.364a8.02 8.02 0 0 0 .055-.758c.001-.058.009-.114.009-.173 0-.053-.007-.105-.008-.158a9 9 0 0 0-.052-.75 8.443 8.443 0 0 0-.125-.732 6.508 6.508 0 0 0-.094-.365 7.95 7.95 0 0 0-.101-.343c-.039-.117-.083-.232-.127-.348a6.517 6.517 0 0 0-.136-.335c-.049-.111-.104-.22-.159-.33-.056-.11-.111-.22-.172-.327-.058-.103-.122-.204-.185-.305a6.94 6.94 0 0 0-.214-.323c-.065-.092-.134-.182-.203-.272a8.136 8.136 0 0 0-.262-.321c-.035-.04-.064-.083-.1-.123l-39.792-43.979h34.243zM412.477 216.806c-13.767 0-24.967-11.2-24.967-24.966 0-11.154 7.354-20.624 17.467-23.816V109.3c0-4.142 3.357-7.5 7.5-7.5s7.5 3.358 7.5 7.5v65.073a7.5 7.5 0 0 1-7.5 7.5c-5.496 0-9.967 4.471-9.967 9.967s4.471 9.966 9.967 9.966 9.967-4.471 9.967-9.966c0-4.142 3.357-7.5 7.5-7.5s7.5 3.358 7.5 7.5c-.001 13.766-11.201 24.966-24.967 24.966z" fill="#5c6c75"></path><g fill="#7d8c97"><path d="M153.96 63.556a7.5 7.5 0 0 1-7.5-7.5V7.502c0-4.142 3.357-7.5 7.5-7.5s7.5 3.358 7.5 7.5v48.555a7.499 7.499 0 0 1-7.5 7.499z" fill="#7d8c97"></path><path d="M58.872 89.759a7.499 7.499 0 0 1-4.639-13.396l95.093-74.757a7.5 7.5 0 0 1 9.269 11.792L63.502 88.155a7.467 7.467 0 0 1-4.63 1.604z" fill="#7d8c97"></path><path d="M376.106 92.761a7.489 7.489 0 0 1-2.478-.423L151.483 14.581A7.5 7.5 0 0 1 156.438.423L378.583 78.18a7.5 7.5 0 0 1-2.477 14.581z" fill="#7d8c97"></path></g><path d="M62.989 158.509a7.5 7.5 0 0 1-7.5-7.5V109.3c0-4.142 3.357-7.5 7.5-7.5s7.5 3.358 7.5 7.5v41.709a7.5 7.5 0 0 1-7.5 7.5z" fill="#5c6c75"></path><path d="M441.305 244.953a7.5 7.5 0 0 0-7.5 7.5v14.68h-68.009v-66.687c0-4.142-3.357-7.5-7.5-7.5s-7.5 3.358-7.5 7.5v7.032h-68.008v-7.032c0-4.142-3.357-7.5-7.5-7.5s-7.5 3.358-7.5 7.5v110.756c0 4.142 3.357 7.5 7.5 7.5s7.5-3.358 7.5-7.5v-29.069h68.008v29.069c0 4.142 3.357 7.5 7.5 7.5s7.5-3.358 7.5-7.5v-29.069h68.009v52.155c0 4.142 3.357 7.5 7.5 7.5s7.5-3.358 7.5-7.5v-81.835a7.5 7.5 0 0 0-7.5-7.5zm-158.516 22.18v-44.656h68.008v44.656z" fill="#7d8c97"></path><path d="M379.3 331.014v-15.449a4.364 4.364 0 0 0-4.364-4.364H271.658a4.364 4.364 0 0 0-4.364 4.364V504.5h182.194V338.652a4.364 4.364 0 0 0-4.364-4.364h-62.55a3.274 3.274 0 0 1-3.274-3.274z" fill="#d7e3f2"></path><path d="M445.123 334.288h-21.098a4.364 4.364 0 0 1 4.364 4.364V504.5h21.098V338.652a4.363 4.363 0 0 0-4.364-4.364z" fill="#b7cee9"></path><path d="M333.794 443.744V504.5H382.8v-60.756a2 2 0 0 0-2-2h-45.006a2 2 0 0 0-2 2z" fill="#94615f"></path><g fill="#62a4fb"><path d="M335.293 404.297H302.93a2 2 0 0 1-2-2v-32.363a2 2 0 0 1 2-2h32.363a2 2 0 0 1 2 2v32.363a2 2 0 0 1-2 2zM413.664 404.297H381.3a2 2 0 0 1-2-2v-32.363a2 2 0 0 1 2-2h32.363a2 2 0 0 1 2 2v32.363a2 2 0 0 1-1.999 2z" fill="#62a4fb"></path></g><path d="M466.941 512H249.84c-4.143 0-7.5-3.358-7.5-7.5s3.357-7.5 7.5-7.5h217.102a7.5 7.5 0 1 1-.001 15z" fill="#5c6c75"></path><path d="M128.395 475.994a7.5 7.5 0 0 1-7.5-7.5V128.502c0-4.142 3.357-7.5 7.5-7.5s7.5 3.358 7.5 7.5v339.991a7.5 7.5 0 0 1-7.5 7.501zM179.527 475.994a7.5 7.5 0 0 1-7.501-7.5V128.502c0-4.142 3.357-7.5 7.5-7.5s7.5 3.358 7.5 7.5v339.991a7.5 7.5 0 0 1-7.499 7.501z" fill="#7d8c97"></path><path d="m97.53 508.534 10.289-38.959c.299-1.133 1.209-1.908 2.241-1.908h96.058c1.032 0 1.942.775 2.241 1.908l10.289 38.959c.456 1.725-.67 3.466-2.241 3.466H99.771c-1.571 0-2.696-1.741-2.241-3.466z" fill="#7d8c97"></path><path d="m218.648 508.534-10.289-38.959c-.299-1.133-1.209-1.908-2.241-1.908h-24.322c1.032 0 1.942.775 2.241 1.908l10.289 38.959c.456 1.725-.67 3.466-2.241 3.466h24.322c1.571 0 2.697-1.741 2.241-3.466z" fill="#5c6c75"></path><path d="M431.922 109.3H40.832a3.273 3.273 0 0 1-3.273-3.273V78.532a3.273 3.273 0 0 1 3.273-3.273h391.09c9.4 0 17.02 7.62 17.02 17.02s-7.62 17.021-17.02 17.021zM84.054 185.942H41.923a4.364 4.364 0 0 1-4.364-4.364v-26.204a4.364 4.364 0 0 1 4.364-4.364h42.131a4.364 4.364 0 0 1 4.364 4.364v26.204a4.363 4.363 0 0 1-4.364 4.364z" fill="#f29b4e"></path><path d="M193.907 128.503h-79.435a4.365 4.365 0 0 1-4.301-5.108l11.016-63.717a4.365 4.365 0 0 1 4.301-3.621h57.403a4.364 4.364 0 0 1 4.301 3.621l11.016 63.717a4.366 4.366 0 0 1-4.301 5.108z" fill="#7d8c97"></path><path d="m198.207 123.395-11.016-63.717a4.365 4.365 0 0 0-4.301-3.621h-22.667a4.364 4.364 0 0 1 4.301 3.621l11.016 63.717a4.365 4.365 0 0 1-4.301 5.108h22.667a4.364 4.364 0 0 0 4.301-5.108z" fill="#5c6c75"></path></g></svg>