<svg viewBox="0 0 512 512" xmlns="http://www.w3.org/2000/svg"><g><g clip-rule="evenodd" fill-rule="evenodd"><path d="M57.297 46.543h397.406c19.089 0 34.71 15.621 34.71 34.71v396.066c0 19.089-15.621 34.681-34.71 34.681H57.297c-19.089 0-34.71-15.592-34.71-34.681V81.253c0-19.089 15.621-34.71 34.71-34.71z" fill="#97b3c4"></path><path d="M57.297 46.543h397.406c19.089 0 34.71 15.621 34.71 34.71v306.419C447.883 456.597 372.809 504.801 285.464 512H57.297c-19.089 0-34.71-15.592-34.71-34.681V81.253c0-19.089 15.621-34.71 34.71-34.71z" fill="#e1efff"></path><path d="M285.464 512c60.619-25.239 109.26-71.781 135.548-129.719 10.492 8.51 23.723 13.61 38.091 13.61 11.016 0 21.362-3.002 30.31-8.219C447.883 456.597 372.809 504.801 285.464 512zM54.965 493.902V104.335c0-18.769 15.388-34.128 34.157-34.128h390.907c2.71 0 5.333.321 7.869.903-4.372-14.164-17.632-24.568-33.195-24.568H57.297c-19.089 0-34.71 15.621-34.71 34.71v396.066c0 19.089 15.621 34.681 34.71 34.681h2.914a33.717 33.717 0 0 1-5.246-18.097z" fill="#b0ccdd"></path><path d="M57.297 46.543h397.406c19.089 0 34.71 15.621 34.71 34.71v75.279H22.587V81.253c0-19.089 15.621-34.71 34.71-34.71z" fill="#d10028"></path><path d="M54.965 104.335c0-18.769 15.388-34.128 34.157-34.128H480.029c2.71 0 5.333.321 7.869.903-4.372-14.164-17.632-24.568-33.195-24.568H57.297c-19.089 0-34.71 15.621-34.71 34.71v75.279h32.379v-52.196z" fill="#b8000f"></path><path d="M166.12 0c10.317 0 18.769 8.452 18.769 18.798v55.519c0 10.317-8.452 18.769-18.769 18.769-10.346 0-18.798-8.452-18.798-18.769V18.798C147.322 8.452 155.774 0 166.12 0zM345.909 0c10.317 0 18.769 8.452 18.769 18.798v55.519c0 10.317-8.452 18.769-18.769 18.769-10.346 0-18.798-8.452-18.798-18.769V18.798C327.111 8.452 335.563 0 345.909 0z" fill="#113255"></path><path d="M166.12 0c-10.346 0-18.798 8.452-18.798 18.798v55.519c0 10.317 8.452 18.769 18.798 18.769V46.543zM345.909 0c-10.346 0-18.798 8.452-18.798 18.798v55.519c0 10.317 8.452 18.769 18.798 18.769V46.543z" fill="#00193c"></path></g><path d="M204.24 262.528v98.768a7.199 7.199 0 0 1-13.369 3.706l-23.497-39.124-23.497 39.124a7.2 7.2 0 0 1-13.37-3.707v-98.768a7.198 7.198 0 0 1 14.396 0v72.801l16.298-27.138a7.199 7.199 0 0 1 12.342 0l16.299 27.138v-72.802a7.198 7.198 0 1 1 14.398.002zm81.428 7.199a7.198 7.198 0 0 0 0-14.396h-59.337a7.198 7.198 0 0 0-7.198 7.198v98.768a7.198 7.198 0 0 0 7.198 7.198h59.337a7.198 7.198 0 0 0 0-14.396H233.53v-40.422h48.059a7.198 7.198 0 0 0 0-14.396H233.53v-29.552h52.138zm95.825 22.469v39.432c0 20.328-16.538 36.867-36.867 36.867h-29.669a7.198 7.198 0 0 1-7.198-7.198v-98.768a7.198 7.198 0 0 1 7.198-7.198h29.669c20.329-.001 36.867 16.537 36.867 36.865zm-14.397 0c0-12.39-10.08-22.47-22.47-22.47h-22.47v84.372h22.47c12.39 0 22.47-10.08 22.47-22.47z" fill="#113255"></path></g></svg>