<svg viewBox="0 0 16.933 16.933" xmlns="http://www.w3.org/2000/svg"><g><g fill="#33658a"><path d="m2.987 3.362 1.588 1.587c.25.25.625-.125.375-.375L3.362 2.987a.265.265 0 1 0-.375.375zM6.585 1.584a.265.265 0 0 0-.235.268v1.851a.265.265 0 1 0 .53 0V1.852a.265.265 0 0 0-.295-.268zM1.852 6.88h1.852c.353 0 .353-.53 0-.53H1.839c-.367.018-.34.548.013.53zM11.983 12.358l1.588 1.587c.25.25.625-.125.375-.375l-1.588-1.587a.265.265 0 1 0-.375.375zM10.288 12.961a.265.265 0 0 0-.234.268v1.851a.265.265 0 1 0 .529 0V13.23a.265.265 0 0 0-.295-.268zM13.23 10.053a.265.265 0 1 0 0 .53h1.85a.265.265 0 1 0 0-.53z" fill="#33658a"></path></g><path d="M12.958.53c-.88 0-1.762.338-2.436 1.011l-3.69 3.686c-.282.282-.5.603-.662.941a3.44 3.44 0 0 1 1.498-.347c.272 0 .543.036.809.1L11.69 2.71a1.787 1.787 0 0 1 2.537 0c.706.706.706 1.83 0 2.535l-3.691 3.688a1.783 1.783 0 0 1-2.535 0c-.4-.4-.569-.934-.515-1.451-.395.04-.78.212-1.085.518l-.477.476a3.443 3.443 0 0 0 5.78 1.625l3.691-3.688a3.442 3.442 0 0 0 0-4.87A3.441 3.441 0 0 0 12.958.528z" fill="#33b9ef"></path><path d="M3.978 16.401c.88 0 1.763-.339 2.436-1.012l3.69-3.685c.282-.282.5-.604.663-.942a3.44 3.44 0 0 1-1.499.347c-.272 0-.543-.036-.809-.1l-3.213 3.212a1.787 1.787 0 0 1-2.537 0 1.782 1.782 0 0 1 0-2.535L6.4 8a1.783 1.783 0 0 1 2.536 0c.4.4.568.934.514 1.45.395-.04.78-.211 1.086-.517l.477-.477a3.443 3.443 0 0 0-5.78-1.625L1.54 10.519a3.442 3.442 0 0 0 0 4.871 3.441 3.441 0 0 0 2.437 1.012z" fill="#33658a"></path></g></svg>