<svg viewBox="0 0 512 512" xmlns="http://www.w3.org/2000/svg"><g><circle cx="375.537" cy="86.719" fill="#ffe07d" r="86.719"></circle><g fill="#ffc250"><path d="M387.464 172.625c-3.903.536-7.88.817-11.932.817-47.891 0-86.714-38.823-86.714-86.723 0-47.891 38.823-86.714 86.714-86.714 4.051 0 8.029.281 11.932.817-42.247 5.809-74.783 42.058-74.783 85.897.001 43.848 32.536 80.097 74.783 85.906z" fill="#ffc250"></path><path d="m374.864 32.964-32.985 43.33c-5.877 7.72-.371 18.83 9.331 18.83h17.265v40.289c0 8.187 10.553 11.49 15.22 4.764l25.805-37.184c5.397-7.777-.168-18.413-9.634-18.413h-9.998V38.026c0-8-10.159-11.427-15.004-5.062z" fill="#ffc250"></path></g><circle cx="303.743" cy="233.005" fill="#ffe07d" r="86.719"></circle><g fill="#ffc250"><path d="M315.669 318.91c-3.903.536-7.88.817-11.932.817-47.891 0-86.714-38.823-86.714-86.723 0-47.891 38.823-86.714 86.714-86.714 4.051 0 8.029.281 11.932.817-42.247 5.809-74.783 42.058-74.783 85.897.001 43.849 32.536 80.097 74.783 85.906z" fill="#ffc250"></path><path d="m265.256 195.471 7.315 53.962c1.303 9.614 13.052 13.578 19.913 6.717l12.208-12.208 28.489 28.489c5.789 5.789 15.586.663 14.131-7.394l-8.046-44.54c-1.683-9.315-13.139-12.901-19.833-6.208l-7.07 7.07-32.919-32.919c-5.656-5.657-15.263-.896-14.188 7.031z" fill="#ffc250"></path></g><path d="M77.698 471.766h194.077c23.827 0 47.339-5.454 68.733-15.944l141.603-69.43c24.306-11.918 33.384-41.963 19.744-65.346-12.254-21.007-38.598-29.064-60.506-18.506l-146.774 70.734L77.698 338.06" fill="#ffddce"></path><path d="m178.382 383.291 89.807-28.758 2.808-.899c9.38-3.004 16.715-9.413 21.098-17.42 6.983-10.837 9.245-24.596 5.006-37.832-7.522-23.49-32.661-36.434-56.151-28.912l-56.446 18.075c-15.891-16.532-40.361-23.586-63.673-16.121-32.635 10.45-50.618 45.377-40.168 78.011l31.702 99.001" fill="#ffddce"></path><path d="M292.095 336.22c-4.378 8.005-11.713 14.412-21.098 17.42l-2.812.896-89.802 28.753-13.3-26.177 89.812-28.753 2.802-.896c9.385-3.008 16.72-9.416 21.098-17.421 5.656-8.767 8.211-19.46 6.727-30.236a44.357 44.357 0 0 1 11.579 18.574c4.235 13.239 1.979 27.003-5.006 37.84z" fill="#ffcbbe"></path><path d="M501.851 321.046a42.284 42.284 0 0 0-2.253-3.481c-4.344 6.12-10.241 11.286-17.488 14.839l-141.606 69.433a156.194 156.194 0 0 1-68.732 15.945H153.587l-26.633-83.17c-7.822-24.426.266-50.121 18.511-65.896a61.825 61.825 0 0 0-24.638 2.7c-28.841 9.235-47.414 37.301-43.852 66.301.468 3.813-27.417 123.008-27.417 123.008l28.135 11.042h194.078c23.831 0 47.337-5.45 68.732-15.945l141.606-69.433c24.31-11.916 33.383-41.959 19.742-65.343z" fill="#ffcbbe"></path><path d="M40.743 512c20.41 0 36.955-16.545 36.955-36.955V321.246H3.788v153.799c0 20.41 16.545 36.955 36.955 36.955z" fill="#b3e59f"></path><path d="M77.69 419.274v55.766c0 20.415-16.545 36.96-36.947 36.96-20.414 0-36.959-16.545-36.959-36.959v-55.766c0 20.402 16.545 36.948 36.959 36.948 20.402-.001 36.947-16.547 36.947-36.949z" fill="#95d6a4"></path><g fill="#f9f6f6"><path d="M245.143 131.827a7.726 7.726 0 0 1-7.726-7.726V66.778a7.726 7.726 0 1 1 15.452 0V124.1a7.725 7.725 0 0 1-7.726 7.727zM217.023 160.488a7.726 7.726 0 0 1-7.726-7.726V95.44a7.726 7.726 0 1 1 15.452 0v57.322a7.725 7.725 0 0 1-7.726 7.726z" fill="#f9f6f6"></path></g></g></svg>