<svg id="Layer_1" enable-background="new 0 0 512 512" height="512" viewBox="0 0 512 512" width="512" xmlns="http://www.w3.org/2000/svg"><g><circle cx="256" cy="256" fill="#fff259" r="256"/><path d="m256 0v512c141.4 0 256-114.6 256-256s-114.6-256-256-256z" fill="#ffc738"/><path d="m472.2 227.2h-29.2v-24.5h29.2c6.8 0 12.2 5.5 12.2 12.2.1 6.8-5.4 12.3-12.2 12.3z" fill="#2e343a"/><circle cx="366.3" cy="215" fill="#595f68" r="80.4"/><circle cx="366.3" cy="215" fill="#cad4ff" r="51.5"/><path d="m462.7 512h-2.5c-3 0-5.4-2.4-5.4-5.4v-279.4h13.3v279.4c0 3-2.4 5.4-5.4 5.4z" fill="#191d24"/><ellipse cx="366.3" cy="215" fill="#8c350a" rx="18.3" ry="25.7"/><ellipse cx="126.3" cy="215" fill="#b5613c" rx="20.5" ry="28.7"/><path d="m93.9 159.9c-2.8 0-5.6-1.5-7-4.1-2.1-3.9-.8-8.7 3.1-10.8 1.3-.7 32.6-17.8 75.6-4.4 4.2 1.3 6.6 5.8 5.3 10s-5.8 6.6-10 5.3c-36.2-11.3-62 2.5-63.1 3.1-1.3.5-2.6.9-3.9.9z" fill="#b5613c"/><path d="m353.4 128.6c-2 0-3.9-.7-5.4-2.1-3.2-3-3.4-8-.4-11.3 1-1.1 25.5-27 70.5-27.6 4.5-.1 8 3.5 8.1 7.9s-3.5 8-7.9 8.1c-37.9.5-58.2 21.6-59 22.5-1.7 1.7-3.8 2.5-5.9 2.5z" fill="#8c350a"/><path d="m177.4 393.7c-2.2 0-4.3-.9-5.9-2.6-3-3.3-2.7-8.3.5-11.3 47.6-43.3 92.4-40.8 121.7-31.2 31.4 10.3 51.3 30.7 52.2 31.5 3.1 3.2 3 8.2-.2 11.3s-8.2 3-11.3-.2c-.3-.3-18.5-18.7-46.2-27.7-36.5-11.8-72-2.4-105.4 28-1.6 1.5-3.5 2.2-5.4 2.2z" fill="#b5613c"/><path d="m345.9 380.1c-.8-.9-20.8-21.2-52.2-31.6-10.7-3.5-23.5-6.1-37.7-5.8v15.9c10.6-.2 21.3 1.4 32.2 4.9 27.7 9 46 27.4 46.2 27.7 3.1 3.2 8.1 3.2 11.3.2s3.2-8.1.2-11.3z" fill="#8c350a"/></g></svg>