<svg viewBox="0 0 512 512" xmlns="http://www.w3.org/2000/svg"><g><g fill="#ffe177"><path d="M28.293 289.588c0-7.165 5.832-12.996 13-12.996s13 5.832 13 13v82.615h48.617l-5.827-3.69c-12.928-8.183-20.646-22.165-20.646-37.403 0-24.411 19.859-44.27 44.27-44.27s44.271 19.859 44.271 44.27c0 15.238-7.718 29.221-20.646 37.403l-5.827 3.69h23.694l.281-.242A45.253 45.253 0 0 1 192 361c18.539 0 35.014 11.115 41.97 28.316l.41 1.015.974-.5c6.441-3.309 13.389-4.987 20.646-4.987s14.205 1.678 20.646 4.987l.974.5.41-1.015C284.986 372.115 301.461 361 320 361a45.253 45.253 0 0 1 29.52 10.965l.281.242h23.109l-5.828-3.689c-12.927-8.184-20.645-22.167-20.645-37.404 0-24.411 19.859-44.27 44.27-44.27s44.271 19.859 44.271 44.27c0 15.238-7.718 29.221-20.646 37.404l-5.828 3.689h49.203v-82.615c0-7.168 5.832-13 13-13s13 5.832 13 13l-.13 68.293C494.811 329.781 501 299.115 501 267c0-135.31-109.69-245-245-245S11 131.69 11 267c0 32.115 6.189 62.781 17.423 90.885zM440.084 398.207v30.448a246.006 246.006 0 0 0 23.29-31.159c-1.914.449-3.89.711-5.917.711zM48.626 397.496a245.887 245.887 0 0 0 22.706 30.501v-29.79H54.543c-2.027 0-4.003-.262-5.917-.711z" fill="#ffe177"></path></g><path d="m276.642 389.828.974.5.41-1.015c3.698-9.146 10.419-16.959 18.924-22.002l.491-.292-.128-66.623h-83.211l-.126 66.296.504.289c8.785 5.038 15.709 12.968 19.495 22.331l.41 1.015.974-.5a45.36 45.36 0 0 1 7.443-3.029v-70.49a4.313 4.313 0 0 1 4.312-4.312h17.773a4.312 4.312 0 0 1 4.312 4.312v70.49a45.4 45.4 0 0 1 7.443 3.03z" fill="#384949"></path><path d="M412.406 59.051c-2.603 2.603-6.062 4.036-9.743 4.036s-7.141-1.433-9.743-4.036L382.759 48.89c-2.75-2.75-4.153-6.504-4.011-10.28L337.749 119h-53.646c.057.183.098.376.098.589v21.66c0 .547-.214 1.056-.603 1.432a2.029 2.029 0 0 1-1.396.572c-.274 0-.544-.058-.804-.171l-6.535-2.862-17.896 69.248c-.18.695-.787.749-.969.749s-.789-.054-.969-.749l-17.896-69.248-6.534 2.862a1.99 1.99 0 0 1-.804.171c-.961 0-1.999-.766-1.999-2.003v-21.66c0-.213.041-.406.098-.589h-53.646l-40.999-80.39c.142 3.776-1.26 7.53-4.011 10.28l-10.158 10.16c-2.603 2.603-6.062 4.036-9.743 4.036s-7.141-1.433-9.743-4.036l-1.67-1.67 46.26 90.705A19.996 19.996 0 0 0 162 159h35.828l-11.712 130h.036l.978.434c.086-7.095 5.877-12.842 12.992-12.842 7.168 0 13 5.832 13 13l-.022 11.361.999.443h83.215l.999-.443-.022-11.365c0-7.165 5.832-12.996 13-12.996 7.115 0 12.906 5.747 12.992 12.842l.978-.434-11.091-130H350a19.996 19.996 0 0 0 17.816-10.914l46.26-90.705z" fill="#537983"></path><path d="m387.839 53.97-5.08-5.08c-2.75-2.75-4.153-6.504-4.011-10.28L337.749 119h13.861a5 5 0 0 0 4.454-2.728z" fill="#3e5959"></path><g fill="#3e5959"><path d="m161.108 148.086-44.434-87.125a13.677 13.677 0 0 1-7.337 2.125 13.685 13.685 0 0 1-9.743-4.036l-1.67-1.67 46.26 90.705A19.996 19.996 0 0 0 162 159h16.924a19.998 19.998 0 0 1-17.816-10.914zM209.282 159h-11.453l-11.712 130h.036c.314-7.444 6.45-13.408 13.97-13.408 1.416 0 2.782.215 4.071.608l10.068-111.752a5 5 0 0 0-4.98-5.448z" fill="#3e5959"></path></g><g fill="#bc80e0"><path d="M192 361c7.835 0 15.371 2.069 21.975 5.753l.148-77.161c0-7.72-6.28-14-14-14s-14 6.28-14 14v71.802A45.4 45.4 0 0 1 192 361zM141.624 480.84c0-16.187 11.486-30.318 27.312-33.602l2.147-.446v-.32l-1.847-1.077c-13.884-8.095-22.508-23.087-22.508-39.125 0-14.124 6.505-26.755 16.673-35.063h-21.45l2.914-1.845c13.219-8.367 21.11-22.665 21.11-38.248 0-24.962-20.309-45.27-45.271-45.27s-45.27 20.308-45.27 45.27c0 15.583 7.892 29.881 21.11 38.248l2.914 1.845H55.293v-81.615c0-7.72-6.28-14-14-14s-14 6.28-14 13.998l.164 86.34c2.021 13.274 13.652 23.276 27.086 23.276h15.789v27.626c19.922 23.123 44.091 42.481 71.292 56.871z" fill="#bc80e0"></path></g><g fill="#bc80e0"><path d="M320 361c1.792 0 3.555.116 5.293.32v-71.727c0-7.72-6.28-14-14-14s-14 6.28-14 13.998l.147 77.488C304.181 363.187 311.934 361 320 361zM470.707 275.592c-7.72 0-14 6.28-14 14v81.615h-44.754l2.914-1.845c13.219-8.367 21.11-22.666 21.11-38.249 0-24.962-20.309-45.27-45.271-45.27s-45.27 20.308-45.27 45.27c0 15.582 7.892 29.88 21.109 38.249l2.914 1.845h-20.864c10.168 8.308 16.673 20.939 16.673 35.063 0 16.038-8.624 31.03-22.508 39.125l-2.252 1.313 2.553.53c15.826 3.284 27.312 17.416 27.312 33.602v2.863a245.997 245.997 0 0 0 70.708-56.189v-28.307h16.373c13.434 0 25.064-10.002 27.086-23.276l.164-86.338c.003-7.72-6.277-14.001-13.997-14.001z" fill="#bc80e0"></path></g><path d="M266.778 117.396h-21.557a27.867 27.867 0 0 1-16.392-5.315l25.234 97.636c.517 1.999 3.356 1.999 3.873 0l25.234-97.636a27.865 27.865 0 0 1-16.392 5.315z" fill="#ffffff"></path><g fill="#eaf9fa"><path d="m231.003 116.841 16.98 7.438-1.779-6.883h-.982a27.867 27.867 0 0 1-16.392-5.315l1.172 4.533c.333.023.669.082 1.001.227zM251.243 136.893a2.975 2.975 0 0 1-1.92-.921l-12.862 5.634 17.603 68.11c.517 1.999 3.356 1.999 3.873 0L264 186.255z" fill="#eaf9fa"></path></g><path d="M208.114 59.608h9.084V49.501c0-6.697 5.448-12.145 12.145-12.145h53.314c6.696 0 12.145 5.448 12.145 12.145v10.106h9.084c.412 0 .818.023 1.22.062V31.523C305.106 14.113 290.993 0 273.583 0h-35.166c-17.41 0-31.523 14.113-31.523 31.523V59.67c.402-.039.808-.062 1.22-.062z" fill="#fe9738"></path><path d="M208.114 59.608h9.084V49.501c0-6.697 5.448-12.145 12.145-12.145h11.446v-5.834C240.789 14.113 254.902 0 272.311 0h-33.894c-17.41 0-31.523 14.113-31.523 31.523V59.67c.402-.039.808-.062 1.22-.062z" fill="#fe7701"></path><path d="M303.886 58.608h-9.084v30.765c0 1.135-.076 2.251-.208 3.351h9.292c7.56 0 13.688-6.129 13.688-13.689v-6.739c.001-7.56-6.128-13.688-13.688-13.688z" fill="#ffb09e"></path><path d="M216.198 49.501v39.871c0 16.029 12.994 29.024 29.024 29.024h21.556c16.029 0 29.024-12.994 29.024-29.024V49.501c0-7.26-5.885-13.145-13.145-13.145h-53.314c-7.26 0-13.145 5.886-13.145 13.145z" fill="#ffcebf"></path><path d="M217.198 89.373V58.608h-9.084c-7.56 0-13.689 6.129-13.689 13.689v6.739c0 7.56 6.129 13.689 13.689 13.689h9.292a28.126 28.126 0 0 1-.208-3.352z" fill="#f89580"></path><path d="M233 89.372V49.501c0-7.26 5.885-13.145 13.145-13.145h-16.802c-7.26 0-13.145 5.885-13.145 13.145v39.871c0 16.029 12.994 29.024 29.024 29.024h16.802c-16.03 0-29.024-12.994-29.024-29.024z" fill="#ffb09e"></path><path d="M237.763 76.764a7.5 7.5 0 0 1-7.5-7.5v-8.037c0-4.142 3.357-7.5 7.5-7.5s7.5 3.358 7.5 7.5v8.037a7.5 7.5 0 0 1-7.5 7.5zM274.237 76.764a7.5 7.5 0 0 1-7.5-7.5v-8.037c0-4.142 3.357-7.5 7.5-7.5s7.5 3.358 7.5 7.5v8.037a7.5 7.5 0 0 1-7.5 7.5zM256 104.803c-6.437 0-12.872-2.45-17.771-7.349a7.5 7.5 0 0 1-.001-10.607 7.5 7.5 0 0 1 10.606 0c3.951 3.951 10.381 3.951 14.332 0a7.5 7.5 0 1 1 10.605 10.607c-4.899 4.9-11.334 7.349-17.771 7.349z" fill="#f89580"></path><circle cx="256" cy="148" fill="#3e5959" r="5"></circle><circle cx="256" cy="173" fill="#3e5959" r="5"></circle><g fill="#fb2b3a"><path d="M249.5 133.919v-7c0-.664.329-1.249.828-1.613l-19.325-8.465c-1.982-.868-4.204.584-4.204 2.748v21.66c0 2.164 2.221 3.616 4.204 2.748l19.325-8.465a1.995 1.995 0 0 1-.828-1.613zM280.998 116.841l-19.325 8.465c.499.364.828.949.828 1.613v7c0 .664-.329 1.249-.828 1.613l19.326 8.465c1.982.868 4.204-.584 4.204-2.748v-21.66c-.002-2.164-2.223-3.616-4.205-2.748z" fill="#fb2b3a"></path></g><path d="M260.5 136.919h-9a3 3 0 0 1-3-3v-7a3 3 0 0 1 3-3h9a3 3 0 0 1 3 3v7a3 3 0 0 1-3 3z" fill="#fe646f"></path><path d="M412.475 205.586c-15.166 5.208-21.184 11.226-26.393 26.393-.925 2.695-4.744 2.695-5.669 0-5.208-15.166-11.226-21.184-26.393-26.393-2.695-.925-2.695-4.744 0-5.669 15.166-5.208 21.184-11.226 26.393-26.393.925-2.695 4.744-2.695 5.669 0 5.208 15.166 11.226 21.184 26.393 26.393 2.695.926 2.695 4.744 0 5.669zM474.475 114.083c-15.166 5.208-21.184 11.226-26.393 26.393-.925 2.695-4.744 2.695-5.669 0-5.208-15.166-11.226-21.184-26.393-26.393-2.695-.925-2.695-4.744 0-5.669 15.166-5.208 21.184-11.226 26.393-26.393.925-2.695 4.744-2.695 5.669 0 5.208 15.166 11.226 21.184 26.393 26.393 2.695.925 2.695 4.743 0 5.669zM97.979 114.083c-15.166 5.208-21.184 11.226-26.393 26.393-.925 2.695-4.744 2.695-5.669 0-5.208-15.166-11.226-21.184-26.393-26.393-2.695-.925-2.695-4.744 0-5.669 15.166-5.208 21.184-11.226 26.393-26.393.925-2.695 4.744-2.695 5.669 0 5.208 15.166 11.226 21.184 26.393 26.393 2.695.925 2.695 4.743 0 5.669z" fill="#ffc344"></path><path d="M51.976 102.588c-3.339 2.238-7.374 4.082-12.451 5.825-2.695.925-2.695 4.744 0 5.669 15.166 5.208 21.184 11.226 26.393 26.393.925 2.695 4.744 2.695 5.669 0 1.744-5.077 3.588-9.112 5.825-12.451-5.069-14.397-11.039-20.367-25.436-25.436zM428.472 102.588c-3.339 2.238-7.374 4.082-12.451 5.825-2.695.925-2.695 4.744 0 5.669 15.166 5.208 21.184 11.226 26.393 26.393.925 2.695 4.744 2.695 5.669 0 1.744-5.077 3.588-9.112 5.825-12.451-5.068-14.397-11.038-20.367-25.436-25.436z" fill="#feb137"></path><path d="M147.979 205.586c-15.166 5.208-21.184 11.226-26.393 26.393-.925 2.695-4.744 2.695-5.669 0-5.208-15.166-11.226-21.184-26.393-26.393-2.695-.925-2.695-4.744 0-5.669 15.166-5.208 21.184-11.226 26.393-26.393.925-2.695 4.744-2.695 5.669 0 5.208 15.166 11.226 21.184 26.393 26.393 2.695.926 2.695 4.744 0 5.669z" fill="#ffc344"></path><path d="M100.974 194.746c-3.14 1.948-6.872 3.599-11.449 5.171-2.695.925-2.695 4.744 0 5.669 15.166 5.208 21.184 11.226 26.393 26.393.925 2.695 4.744 2.695 5.669 0 1.571-4.575 3.221-8.305 5.168-11.444-5.119-14.678-11.109-20.669-25.781-25.789zM365.47 194.746c-3.14 1.948-6.872 3.599-11.449 5.171-2.695.925-2.695 4.744 0 5.669 15.166 5.208 21.184 11.226 26.393 26.393.925 2.695 4.744 2.695 5.669 0 1.571-4.575 3.221-8.305 5.168-11.444-5.119-14.678-11.108-20.669-25.781-25.789z" fill="#feb137"></path><path d="M205.624 504.684c0-16.187 11.486-30.318 27.312-33.602l2.553-.53-2.252-1.313c-13.884-8.095-22.508-23.087-22.508-39.125 0-17.496 9.983-32.694 24.546-40.227C228.659 372.421 211.784 360 192 360c-25.554 0-46.27 20.716-46.27 46.27 0 17.069 9.25 31.969 23.003 39.989-16.048 3.329-28.109 17.546-28.109 34.581v2.331a243.46 243.46 0 0 0 65 23.617z" fill="#9857bd"></path><path d="M166 480.84c0-13.855 7.979-25.846 19.592-31.631 3.203-1.596 3.872-5.876 1.188-8.243-9.61-8.476-15.674-20.875-15.674-34.696 0-21.153 14.199-38.977 33.582-44.494a46.282 46.282 0 0 0-17.679-1.508c-22.51 2.419-40.171 21.171-41.227 43.785-.84 17.99 8.606 33.84 22.951 42.206-16.048 3.329-28.109 17.546-28.109 34.581v2.331A244.037 244.037 0 0 0 166 494.91z" fill="#814aa0"></path><path d="M343.267 446.259c13.754-8.02 23.003-22.92 23.003-39.989 0-25.554-20.716-46.27-46.27-46.27-19.784 0-36.659 12.421-43.276 29.887 14.563 7.533 24.546 22.731 24.546 40.227 0 16.038-8.624 31.03-22.508 39.125l-2.252 1.313 2.553.53c15.826 3.284 27.312 17.416 27.312 33.602v2.105a243.425 243.425 0 0 0 65-23.617v-2.331c.001-17.036-12.06-31.253-28.108-34.582z" fill="#9857bd"></path><path d="M299.106 406.27c0-21.153 14.199-38.977 33.582-44.494a46.266 46.266 0 0 0-17.672-1.508c-17.587 1.887-32.216 13.744-38.279 29.626 14.556 7.536 24.533 22.73 24.533 40.221 0 16.038-8.624 31.03-22.508 39.125l-2.252 1.313 2.553.53a34.017 34.017 0 0 1 15.024 7.324c.873-12.815 8.578-23.753 19.504-29.196 3.203-1.596 3.872-5.876 1.188-8.243-9.609-8.478-15.673-20.877-15.673-34.698z" fill="#814aa0"></path><path d="M279.267 470.103c13.754-8.02 23.003-22.92 23.003-39.989 0-25.554-20.716-46.27-46.27-46.27s-46.27 20.716-46.27 46.27c0 17.069 9.25 31.969 23.003 39.989-16.048 3.329-28.109 17.546-28.109 34.581v1.904C221.193 510.123 238.376 512 256 512s34.807-1.877 51.376-5.413v-1.904c0-17.035-12.061-31.251-28.109-34.58z" fill="#bc80e0"></path><path d="M230 504.684c0-13.855 7.979-25.846 19.592-31.631 3.203-1.596 3.872-5.876 1.188-8.243-9.61-8.476-15.674-20.875-15.674-34.696 0-21.153 14.199-38.977 33.582-44.494a46.282 46.282 0 0 0-17.679-1.508c-22.51 2.419-40.171 21.171-41.227 43.785-.84 17.99 8.606 33.84 22.951 42.206-16.048 3.329-28.109 17.546-28.109 34.581v1.904a245.374 245.374 0 0 0 25.376 4.04z" fill="#af66da"></path><path d="m426.63 18.99-3.81-3.81c-7.525-7.525-19.726-7.525-27.251 0l-5.454 5.454v-7.178a5.457 5.457 0 0 0-5.457-5.457h-.548a5.457 5.457 0 0 0-5.457 5.457v20.533c-1.952 5.251-.822 11.388 3.399 15.608l10.161 10.161c5.772 5.772 15.129 5.772 20.901 0l13.517-13.517c7.524-7.525 7.524-19.725-.001-27.251z" fill="#ffcebf"></path><path d="M404.486 59.671 394.325 49.51c-3.986-3.986-6.042-9.594-4.614-14.629.225-.792.295-1.62.302-2.444l.101-11.804v-7.178a5.457 5.457 0 0 0-5.457-5.457h-.548a5.457 5.457 0 0 0-5.457 5.457v20.533c-1.952 5.251-.822 11.388 3.399 15.608l10.161 10.161c4.513 4.513 11.212 5.48 16.681 2.936a14.671 14.671 0 0 1-4.407-3.022z" fill="#ffb09e"></path><path d="m85.37 18.99 3.81-3.81c7.525-7.525 19.726-7.525 27.251 0l5.454 5.454v-7.178a5.457 5.457 0 0 1 5.457-5.457h.548a5.457 5.457 0 0 1 5.457 5.457v20.533c1.952 5.251.822 11.388-3.399 15.608l-10.161 10.161c-5.772 5.772-15.129 5.772-20.901 0L85.37 46.241c-7.525-7.525-7.525-19.725 0-27.251z" fill="#ffcebf"></path><path d="M114.387 58.532 100.87 45.015c-7.525-7.525-7.525-19.726 0-27.251l3.81-3.81a19.262 19.262 0 0 1 4.469-3.324c-6.762-2.354-14.567-.852-19.969 4.55l-3.81 3.81c-7.525 7.525-7.525 19.726 0 27.251l13.517 13.517c5.229 5.229 13.394 5.704 19.176 1.457a14.742 14.742 0 0 1-3.676-2.683z" fill="#ffb09e"></path></g></svg>