<svg height="512" viewBox="0 0 512 512" width="512" xmlns="http://www.w3.org/2000/svg"><g id="FLAT"><path d="m392 288-11.09277 183.032a16 16 0 0 0 15.9707 16.968h63.94116a15.99989 15.99989 0 0 0 15.9707-15.0321l11.21021-184.9679z" fill="#0d5ea5"/><rect fill="#f2a765" height="240" rx="16" width="96" x="208" y="248"/><path d="m41.39233 481.75171a15.97 15.97 0 0 0 12.66895 6.24829h63.94116a16 16 0 0 0 15.9707-16.968l-14.06054-232a15.99989 15.99989 0 0 0 -15.97071-15.032h-15.94189v94.34766a309.78552 309.78552 0 0 1 -46.60767 163.40405z"/><path d="m118.00249 488h-63.94128a16 16 0 0 1 -15.9707-15.03208l-14.0606-232a16 16 0 0 1 15.97069-16.96792h63.94129a16 16 0 0 1 15.97069 15.03208l14.06061 232a16 16 0 0 1 -15.9707 16.96792z" fill="#0d5ea5"/><path d="m128 192h32v16h-32z" fill="#95b9d8"/><path d="m140 153.578h16v28.844h-16z" fill="#95b9d8" transform="matrix(.555 -.832 .832 .555 -73.88 197.954)"/><path d="m84 375.801h15.999v80.399h-15.999z" fill="#0c446d" transform="matrix(.995 -.1 .1 .995 -40.937 11.219)"/><path d="m164 135.351h16.001v25.298h-16.001z" fill="#95b9d8" transform="matrix(.949 -.316 .316 .949 -37.975 61.986)"/><path d="m392 120h64v144h-64z" fill="#0f5284"/><path d="m456 120h40v144h-40z" fill="#1d76b7"/><path d="m416 120h16v96h-16z" fill="#0d5ea5"/><path d="m296 32a22.62742 22.62742 0 0 0 -32 32l-15.6167-15.6167c-8.67578-8.67566-22.811-9.31836-31.78931-.95642a22.62812 22.62812 0 0 0 -.59399 32.57312l-15.6167-15.6167c-8.67578-8.67566-22.811-9.31836-31.78931-.95642a22.62812 22.62812 0 0 0 -.59399 32.57312l65.17163 65.17163a4 4 0 0 1 -2.82837 6.82837h-6.34326a40 40 0 0 0 -40 40v60a20.011 20.011 0 0 0 24 19.59839v-23.59839a16.00008 16.00008 0 0 1 16-16v-20a20.00006 20.00006 0 0 1 20-20h79.52051c10.84472 0 20.08105 8.43286 20.46655 19.27051a20.00064 20.00064 0 0 1 -19.98706 20.72949h-23.52051c-10.84472 0-20.08105 8.43286-20.46655 19.27051a20.00064 20.00064 0 0 0 19.98706 20.72949h51.71558a20.0003 20.0003 0 0 0 14.14233-5.85791l26.14209-26.14209v-128z" fill="#f7b49a"/><path d="m244 65.088h16v101.823h-16z" fill="#eaa28c" transform="matrix(.707 -.707 .707 .707 -8.215 212.167)"/><path d="m280 54.059h16v67.882h-16z" fill="#eaa28c" transform="matrix(.707 -.707 .707 .707 22.128 229.421)"/><path d="m406.68 408h80.399v15.999h-80.399z" fill="#0c446d" transform="matrix(.099 -.995 .995 .099 -11.517 819.274)"/></g></svg>