<svg viewBox="0 0 512 512" xmlns="http://www.w3.org/2000/svg"><g><path d="M5 195h502v312H5z" fill="#b24e10"></path><path d="M100 248.3s61-53.4 156-53.4l-28.5-27c-47.6 0-57.5-42.7-57.5-42.7-45.6 0-49-50.3-49-50.3H5v213z" fill="#ef8039"></path><path d="M113.5 191.5c-45.9 0-53.6-47.8-53.6-47.8C21.4 143.7 5 117.2 5 97.4V288l95-39.7s15.3-13.4 42.4-26.7z" fill="#e36415"></path><path d="M406.3 314.4c0-36.9-124.8-56-124.8-56l23.2-33.1c46.1 0 66.5-67.5 66.5-67.5 65.5 0 95.1-82.8 95.1-82.8H507v276z" fill="#ef8039"></path><path d="M507 100.8s0 62.1-72.4 62.1c0 0-5 68.6-69.9 68.6L342.1 272c31.8 9.4 64.2 23.6 64.2 42.4L507 351z" fill="#e36415"></path><path d="M172.2 256c-25.5 30.3 51.5 40.8 34 66.5C188.6 348.2 4.9 342.4 4.9 507l151.9-.1s-55.1-39.7-11.9-85.2 106.8-39.7 138.4-78.2-82-66-66.8-90.6S326 195 326 195h-30.5s-91.3 22.9-123.3 61z" fill="#69bdfb"></path><path d="M5 371V168s18.8 57.3 89.6 57.3c0 0 11.7 51.1 48.4 51.1V308c-38.8 31-108.5 11.5-138 63z" fill="#ef8039"></path><path d="M26 250.8v-10c42 0 65.2-19.1 65.5-19.3l6.4 7.7c-1.1.8-26.9 21.6-71.9 21.6zM55 305v-10c41 0 85.1-22.8 85.6-23l4.6 8.9C143.3 281.8 99 305 55 305zM96.6 204.3l-4.7-8.9C94.4 194.1 156 163 227 163v10c-69 0-129.8 30.9-130.4 31.3zM49.9 154.5l-5.7-8.2c1.5-1.1 37.8-26 125.8-26v10c-84 0-119.8 24-120.1 24.2z" fill="#b24e10"></path><path d="M256 507s-52.1-26.2-52.1-56.2l32.1-40.1c80.1 0 103.9-70.1 103.9-70.1C441.3 340.6 457 207 457 207l50-12v312z" fill="#ef8039"></path><path d="M304 507h203V337.4c-15.4 23.1-34 40.9-54.4 40.9 0 0-14.5 90-118.3 90z" fill="#e36415"></path><path d="M401 482.1c-.4 0-42.2-2.5-83.4-12-57.4-13.3-86.5-33-86.5-59h10c0 42 115.9 58.5 160.6 61.2zM466.4 383.5c-33.3 0-100.4-2.6-123.1-24.3-5.5-5.3-8.4-12.2-8.4-18.2h10c0 4 1.7 7.6 5.3 11 22.3 21.4 104.8 22.6 134.7 21.3l.4 9.9c-1.1.1-8.3.3-18.9.3zM423.1 253.1c-.6-.2-58.1-22.8-118.1-22.8v-10c62 0 119.5 22.6 121.9 23.5zM447.6 170.7c-.3-.1-30.6-8-76.6-8v-10c47 0 77.8 8 79.1 8.3z" fill="#b24e10"></path><circle cx="326" cy="40" fill="#ffc970" r="35"></circle><path d="M507 230.3c-.5 0-13.1-.1-25.9-2.5-19.3-3.6-29.1-10.6-29.1-20.8h10c0 8.5 26.2 13.1 45 13.3z" fill="#b24e10"></path></g></svg>