<svg height="512" viewBox="0 0 512 512" width="512" xmlns="http://www.w3.org/2000/svg"><g id="Flat"><rect fill="#fec9a3" height="88" rx="32" transform="matrix(-1 0 0 -1 256 184)" width="64" x="96" y="48"/><path d="m56 248h112v-56l16 56h40l-17.94-87.761a32 32 0 0 0 -31.045-24.239h-87.015a32 32 0 0 0 -32 32z" fill="#8fd0d9"/><path d="m168 168h-80v80h80v-32a33.941 33.941 0 0 0 0-48z" fill="#8fd0d9"/><circle cx="92" cy="60" fill="#78462f" r="20"/><path d="m96 104 24-24a75.779 75.779 0 0 0 33.889 8h6.111v-8a32 32 0 0 0 -32-32 32 32 0 0 0 -32 32z" fill="#92563a"/><path d="m104 136 32 48 24-48z" fill="#348fd9"/><path d="m264 192h-40l-24 56h40z" fill="#8fd0d9"/><path d="m296 160h-41.167a24 24 0 0 0 -21.466 13.267l-9.367 18.733h41.167a24 24 0 0 0 21.466-13.267z" fill="#fec9a3"/><path d="m24 248h352v208h-352z" fill="#348fd9"/><g fill="#459de6"><path d="m24 248h352v32h-352z"/><path d="m48 312h16v16h-16z"/><path d="m48 344h16v64h-16z"/></g><path d="m248 352h-32v-32h-32v32h-32v32h32v32h32v-32h32z" fill="#e0e0de"/><path d="m24 280h352v16h-352z" fill="#3086cd"/><rect fill="#fec9a3" height="88" rx="32" width="64" x="384" y="96"/><path d="m376 456h40a0 0 0 0 1 0 0v32a0 0 0 0 1 0 0h-40a16 16 0 0 1 -16-16 16 16 0 0 1 16-16z" fill="#34507b"/><path d="m416 456h40v32h-40z" fill="#2b4266"/><path d="m448 152h-32l-24-24h-8a16 16 0 0 1 -16-16 16 16 0 0 1 16-16h32a32 32 0 0 1 32 32z" fill="#92563a"/><path d="m376 312h80v144h-80z" fill="#92563a"/><path d="m408 331.637h16v124.363h-16z" fill="#78462f"/><path d="m376 312h80l32 .333v-96.333a32 32 0 0 0 -32-32h-80a32 32 0 0 0 -32 32v96z" fill="#ffb531"/><path d="m368 216h16v96h-16z" fill="#faa50f"/><path d="m448 216h16v96h-16z" fill="#faa50f"/><path d="m344 312h32v32h-32z" fill="#fec9a3"/><path d="m456 312h32v32h-32z" fill="#fec9a3"/><path d="m312 128h-64a16 16 0 0 1 -16-16v-16l-24-16 24-16v-24a16 16 0 0 1 16-16h64a16 16 0 0 1 16 16v72a16 16 0 0 1 -16 16z" fill="#8fd0d9"/><path d="m272 80h16v24h-16z" fill="#b7e7eb"/><path d="m272 48h16v16h-16z" fill="#b7e7eb"/><path d="m176 248h-16v-32a8 8 0 0 1 2.343-5.657 25.941 25.941 0 0 0 0-36.686l11.314-11.314a42 42 0 0 1 2.343 56.771z" fill="#76bbc4"/><path d="m80 168h16v80h-16z" fill="#76bbc4"/></g></svg>