<svg viewBox="0 0 68 68" xmlns="http://www.w3.org/2000/svg"><g><path d="M35.9 30.714c-.5 5.496-.438 11.028.677 16.23 1.097 5.197 3.335 9.981 6.66 13.786a3.18 3.18 0 1 1-5.022 3.885l-.038-.058a34.29 34.29 0 0 1-4.05-8.212c-.969-2.874-1.546-5.83-1.81-8.767-.524-5.889.15-11.663 1.34-17.212a1.137 1.137 0 0 1 2.244.34z" fill="#14a142"></path><path d="M56.07 31.436a7.31 7.31 0 0 1 0 10.36 7.35 7.35 0 0 1-4.4 2.11 7.2 7.2 0 0 1-2.1 4.39 7.327 7.327 0 0 1-10.36 0c-3.21-3.21-4.59-9.18-5.18-14.15-.02.18-.05.36-.07.54-.6 4.82-2 10.44-5.17 13.61a7.327 7.327 0 0 1-10.36 0c-1.24-1.23-1.93-2.79-2.12-4.4-1.6-.16-3.15-.87-4.38-2.1a7.31 7.31 0 0 1 0-10.36c3.2-3.2 9.16-4.59 14.13-5.18-.17-.03-.35-.05-.53-.07-4.82-.6-10.43-2-13.6-5.17a7.309 7.309 0 0 1 0-10.36 7.312 7.312 0 0 1 4.39-2.12c.16-1.6.87-3.15 2.11-4.39 2.86-2.86 7.49-2.86 10.36 0 3.21 3.21 4.59 9.17 5.18 14.15.02-.18.05-.36.07-.54.6-4.82 2-10.44 5.17-13.61a7.327 7.327 0 0 1 10.36 0 7.477 7.477 0 0 1 2.12 4.4c1.6.16 3.15.87 4.38 2.1a7.321 7.321 0 0 1 0 10.37c-3.21 3.21-9.18 4.59-14.15 5.18.18.02.36.05.54.07 4.82.6 10.44 2 13.61 5.17z" fill="#4cc66e"></path><path d="M56.07 31.436a7.31 7.31 0 0 1 0 10.36 7.35 7.35 0 0 1-4.4 2.11 7.2 7.2 0 0 1-2.1 4.39 7.337 7.337 0 0 1-8.56 1.33c.65-.34 1.26-.78 1.81-1.33a7.2 7.2 0 0 0 2.1-4.39 7.35 7.35 0 0 0 4.4-2.11 7.31 7.31 0 0 0 0-10.36c-3.17-3.17-8.79-4.57-13.61-5.17-.18-.02-.36-.05-.54-.07 4.97-.59 10.94-1.97 14.15-5.18a7.321 7.321 0 0 0 0-10.37 7.204 7.204 0 0 0-4.38-2.1c-.19-1.6-.89-3.16-2.12-4.4-.55-.55-1.16-.99-1.81-1.33a7.336 7.336 0 0 1 8.56 1.33 7.477 7.477 0 0 1 2.12 4.4c1.6.16 3.15.87 4.38 2.1a7.321 7.321 0 0 1 0 10.37c-3.21 3.21-9.18 4.59-14.15 5.18.18.02.36.05.54.07 4.82.6 10.44 2 13.61 5.17z" fill="#14a142"></path><ellipse cx="13.374" cy="15.379" fill="#ffffff" opacity=".28" rx="2.922" ry="1.391" transform="rotate(-77.17 13.382 15.38)"></ellipse><ellipse cx="13.374" cy="37.691" fill="#ffffff" opacity=".28" rx="1.391" ry="2.922" transform="rotate(-20.93 13.35 37.67)"></ellipse></g></svg>