<svg viewBox="0 0 512 512" xmlns="http://www.w3.org/2000/svg"><g><path d="M387.744 109.997H124.256C55.631 109.997 0 165.628 0 234.253v86.625c0 39.512 18.445 74.713 47.191 97.472-4.382 19.326-13.712 44.155-27.567 63.965-8.016 11.46-1.132 27.447 12.776 28.921 52.384 5.551 106.036-19.435 133.119-66.102h222.225c68.625 0 124.256-55.632 124.256-124.257v-86.625c0-68.624-55.631-124.255-124.256-124.255z" fill="#e7889d"></path><path d="M377.082 109.997H134.918l11.398 114.967c1.668 16.823 7.614 32.839 17.001 46.546-7.662 14.699-11.726 31.109-11.726 48.094 0 57.572 46.837 104.409 104.408 104.409s104.409-46.837 104.409-104.409c0-16.985-4.063-33.394-11.725-48.094 9.387-13.707 15.333-29.725 17-46.548z" fill="#e16e7e"></path><path d="M331.442 22.211C318.657 8.095 300.401 0 281.357 0h-50.713c-19.046 0-37.301 8.096-50.087 22.213-12.785 14.115-19.04 33.081-17.16 52.031l14.631 147.575c1.921 19.373 11.775 36.082 26.167 47.075-12.815 13.089-20.736 30.988-20.736 50.71 0 40 32.542 72.541 72.541 72.541 40 0 72.541-32.542 72.541-72.541 0-19.722-7.921-37.621-20.736-50.71 14.393-10.993 24.246-27.702 26.167-47.076l14.632-147.574c1.878-18.954-4.377-37.918-17.162-52.033z" fill="#f6ee86"></path><path d="M281.356 37.178h-50.713c-17.974 0-32.024 15.511-30.25 33.398l14.632 147.573c1.542 15.551 14.623 27.399 30.25 27.399h21.45c15.627 0 28.708-11.848 30.25-27.399l14.632-147.573c1.773-17.886-12.276-33.398-30.251-33.398z" fill="#e7889d"></path><g fill="#e16e7e"><path d="M292.413 231.409C241.21 197.876 210.5 78.972 214.276 41.96c-9.272 5.941-15.059 16.753-13.883 28.615l14.632 147.573c1.542 15.551 14.623 27.399 30.25 27.399h21.45c10.737.001 20.272-5.593 25.688-14.138z" fill="#e16e7e"></path><circle cx="256" cy="319.603" fill="#e16e7e" r="35.363"></circle></g></g></svg>