<svg viewBox="0 0 403.917 495.99" xmlns="http://www.w3.org/2000/svg"><g><path d="M244.347 360.6c4.039-16.126 1.351-28.857-12.27-36.07l-21.741-8.283-5.909-7.317-.45-.07c-30.02 3.96-58 39.35-99.8 59.26-21.28 15.003-20.438 63.087 7.74 63.33 24.82-9 45.34-19.63 51.15-23.46l-3.61 88h80.46c22.042-38.029 30.948-78.406 8.03-124.47l-.05-.01c3.894-4.917 2.713-8.557-3.55-10.91z" fill="#f1c27d"></path><path d="M247.827 0c-61.69.02-123.43 48.89-98.1 152.38h196.38C371.537 48.74 309.457-.02 247.827 0z" fill="#ad6a6a"></path><path d="M403.917 495.99h-68l-10.902-50.726 67.612-5.244.04-.01c4.81 16.66 8.66 35.25 11.25 55.98z" fill="#fec4b9"></path><path d="M392.667 440.01c-22.9-79.39-67.53-115.1-101.21-131.11l-.06.01-3.96 11.904-23.68 3.716c2.426 13.709-3.722 25.2-12.27 36.07-1.31 3.6-2.49 7.24-3.54 10.92-4.11 14.24-6.3 28.99-6.57 43.84l-1.46 80.63h96l-1.67-40.01 58.38-15.96z" fill="#e0ac69"></path><path d="M349.697 153.4c12.1 4.81 17.53 20.63 12.13 35.32-4.67 12.71-15.93 20.4-26.71 19.12h-.01c-18.036-17.144-15.075-36.745 11-55.46 1.21.23 2.41.55 3.59 1.02zM149.727 152.38c-1.21.23-2.41.55-3.59 1.02-12.1 4.81-17.53 20.63-12.13 35.32 4.67 12.71 15.93 20.4 26.71 19.12h.01c20.573-20.476 14.441-38.76-11-55.46z" fill="#f7b6ad"></path><path d="M138.917 288c-8.03.73-14.49.53-19.95-.02l-.01-34.07c6.24-6.25-2.01-23.46-16.35-10.49l-18.79-7.07-.01-.01c-.57-9.81-17.65-13.09-22.96 6.45-.64 2.01-1.07 3.85-1.32 5.5h-.01s-29.36 38.85-7.6 51.71c.39-.45-98.78 116.45-24 144 23.93 5.36 56.59-2.61 84-12.55 0-16-7.74-63.33-7.74-63.33-9.96 4.75-20.7 8.62-32.44 10.97 16.59-32.62 21.55-61.37 21.55-61.37 6.14.53 14.67.23 23.68-3.3 14.09-3.55 28.06-2.19 34.44-2.22 17.76-.1 12.7-27.12-12.49-24.2zM275.917 56c0 8 8 20 8 20-24 0-44-20-44-20 0 8 8 20 8 20-36 0-48-28-48-28-5.1 30.24-45.2 70.16-50.19 104.38 1.5 15.17 3.89 29.47 6.98 41.78 1.23 4.9 2.57 9.48 4.02 13.68 2.18 6.35 4.59 11.82 7.19 16.15 9.24 15.41 30.35 35.56 56.02 44l-.02.07-.44 19.97v.01c-7.833 13.042-2.322 24.956 8.98 36.38-2.251 14.29 2.09 26.215 11.89 36.18 1.31 3.6 2.49 7.24 3.55 10.91l.05.01c1.05-3.68 2.23-7.32 3.54-10.92 8.741-11.542 14.241-23.435 11.89-36.18 11.583-9.332 18.638-20.139 8.98-36.39l-.44-19.97-.02-.07c25.67-8.44 46.78-28.59 56.02-44 2.6-4.33 5.01-9.8 7.19-16.15 5.07-14.74 8.9-34.25 11-55.46-8.34-76.19-32.34-67.72-70.19-96.38z" fill="#fec4b9"></path><g fill="#604533"><path d="M263.377 324.42c6.72-22.93 8.98-36.39 8.98-36.39s15.76-1.78 18.04 14.48l1 6.4 2.52 16.09-30.16-.47zM279.917 342s-11.66 3.76-28.43 18.6c4.99-13.72 8.89-25.9 11.89-36.18l.38.11s12.16 13.47 16.16 17.47zM232.457 324.42c3 10.28 6.9 22.46 11.89 36.18-16.77-14.84-28.43-18.6-28.43-18.6 4-4 16.16-17.47 16.16-17.47z" fill="#604533"></path><path d="m232.077 324.53-30.16.47 2.51-16.07 1.01-6.42c2.28-16.26 18.04-14.48 18.04-14.48v.01c.08.46 2.38 13.85 8.98 36.38z" fill="#604533"></path></g><path d="M83.817 236.35c9.89-9.78 20.87 2.04 18.77 7.05l.02.02c-2.32 2.1-4.81 5-7.42 8.86-2.66 3.75-4.05 6.9-4.55 9.5-6.64 3.63-12.67 2.71-14.66-2.23-1.41-3.48-.81-8.97 2.98-16.27 1.54-3.03 3.18-5.29 4.86-6.93zM103.897 271.52c2.65-4.54 6.6-9.97 12.49-15.82.85-.72 1.71-1.31 2.57-1.79 10.4-5.81 20.87 4.95 15.02 15.46 0 0-5.71 12.83-15.01 18.6v.01c-8.48-.87-14.55-2.6-20.36-3.04 0 0 .56-5.26 5.22-13.3.03-.04.06-.08.07-.12z" fill="#ffd7d2"></path><path d="M376.887 495.99h-40.97l-1.67-40.01 16.89-4.62c4.19 22.82 11.84 44.63 25.75 44.63z" fill="#f7b6ad"></path><path d="m351.137 451.36-16.89 4.62-2.024-48.619a7.067 7.067 0 0 1 7.061-7.361 7.059 7.059 0 0 1 7.059 6.732c.433 9.415 1.624 27.313 4.794 44.628z" fill="#cc9a64"></path><path d="M51.997 260.12c3.8-6.91 7.52-11.83 7.52-11.83h.01c-2.71 17.75 15.21 16.02 16.45 11.26 1.99 4.94 8.02 5.86 14.66 2.23-2.11 10.89 11.32 12.41 13.19 9.86-4.66 8.04-5.22 13.3-5.22 13.3-6.78-.52-13.21.7-22.69 7.06-2.68-7.75 10.17-17.74 10.17-17.74-6.48 2.79-11.29-2.27-11.29-2.27-19.68 6.12-22.8-11.87-22.8-11.87zM71.737 379.09c6.52-1.31 12.74-3.08 18.68-5.22v.01c-15.82 40.37-42.5 42.12-42.5 42.12 9.8-11.98 17.62-24.71 23.82-36.91zM271.917 268.06l-.02-.07c-7.65 2.52-15.71 4-23.98 4s-16.352-1.487-24.002-4.007l.002.077-.291 13.191s20.691 15.129 48.661 3.799z" fill="#f7b6ad"></path><path d="M295.927 152a4 4 0 0 0-4 4c0 2.206-1.794 4-4 4s-4-1.794-4-4a4 4 0 0 0-8 0c0 6.617 5.383 12 12 12s12-5.383 12-12a4 4 0 0 0-4-4z" fill="#543927"></path><path d="M303.341 114.891c-9.985-7.038-23.211-4.809-23.769-4.71a3.995 3.995 0 0 0-3.241 4.622 4.005 4.005 0 0 0 4.619 3.259c.104-.019 10.554-1.727 17.782 3.368a3.999 3.999 0 1 0 4.609-6.539z" fill="#ad6a6a"></path><path d="M215.927 152a4 4 0 0 0-4 4c0 2.206-1.794 4-4 4s-4-1.794-4-4a4 4 0 0 0-8 0c0 6.617 5.383 12 12 12s12-5.383 12-12a4 4 0 0 0-4-4z" fill="#543927"></path><path d="M214.903 118.062a4.001 4.001 0 0 0 1.378-7.881c-.559-.099-13.784-2.327-23.769 4.71a4 4 0 1 0 4.609 6.539c7.23-5.095 17.679-3.388 17.782-3.368z" fill="#ad6a6a"></path><path d="M268.213 164.69a4.002 4.002 0 0 0-5.556 1.063c-2.575 3.794-8.36 6.246-14.74 6.246s-12.165-2.452-14.74-6.246a4 4 0 1 0-6.62 4.493c4.083 6.017 12.268 9.754 21.36 9.754s17.277-3.737 21.36-9.754a4 4 0 0 0-1.064-5.556z" fill="#f48ca7"></path><path d="M87.31 320.861c-.267 0-.539-.027-.811-.083-2.331-.48-3.713-.938-3.863-.988a4 4 0 0 1 2.561-7.58s1.071.353 2.916.732a4 4 0 0 1-.803 7.919z" fill="#f7b6ad"></path></g></svg>