<svg id="Capa_1" enable-background="new 0 0 510 510" height="512" viewBox="0 0 510 510" width="512" xmlns="http://www.w3.org/2000/svg" xmlns:xlink="http://www.w3.org/1999/xlink"><linearGradient id="lg1"><stop offset="0" stop-color="#ffdfcf"/><stop offset="1" stop-color="#ffa78f"/></linearGradient><linearGradient id="SVGID_1_" gradientTransform="matrix(.981 .196 -.196 .981 -2746.365 2634.677)" gradientUnits="userSpaceOnUse" x1="2469.95" x2="2480.966" xlink:href="#lg1" y1="-2873.259" y2="-2861.92"/><linearGradient id="SVGID_00000076605792131537714260000006292529601582825613_" gradientTransform="matrix(.948 .318 -.318 .948 226.337 287.694)" gradientUnits="userSpaceOnUse" x1="41.421" x2="55.929" xlink:href="#lg1" y1="-3.524" y2="10.418"/><linearGradient id="SVGID_00000138553323953087324980000003359054323977613742_" gradientTransform="matrix(.948 .318 -.318 .948 226.337 287.694)" gradientUnits="userSpaceOnUse" x1="70.464" x2="84.218" xlink:href="#lg1" y1="-9.157" y2="8.365"/><linearGradient id="SVGID_00000062880228029959753990000006013460247611344271_" gradientUnits="userSpaceOnUse" x1="232.078" x2="243.078" xlink:href="#lg1" y1="312.89" y2="347.89"/><linearGradient id="lg2"><stop offset="0" stop-color="#e1d3ce"/><stop offset="1" stop-color="#9e9797"/></linearGradient><linearGradient id="SVGID_00000046312586217834345510000014928690423218565026_" gradientUnits="userSpaceOnUse" x1="240.779" x2="263.255" xlink:href="#lg2" y1="5.579" y2="59.27"/><linearGradient id="SVGID_00000121962868838109020070000010811187287972526498_" gradientUnits="userSpaceOnUse" x1="166.525" x2="310.17" xlink:href="#lg2" y1="127.925" y2="271.571"/><linearGradient id="lg3"><stop offset="0" stop-color="#433f43" stop-opacity="0"/><stop offset=".3007" stop-color="#3c393c" stop-opacity=".301"/><stop offset=".7373" stop-color="#292729" stop-opacity=".737"/><stop offset="1" stop-color="#1a1a1a"/></linearGradient><linearGradient id="SVGID_00000051356656653573003570000014317646737256268210_" gradientUnits="userSpaceOnUse" x1="352.881" x2="533.957" xlink:href="#lg3" y1="166.875" y2="139.713"/><linearGradient id="SVGID_00000055668044549508475720000013845799194216478087_" gradientUnits="userSpaceOnUse" x1="255" x2="255" xlink:href="#lg3" y1="196.504" y2="299.221"/><linearGradient id="SVGID_00000057832107932294004880000004878727064093391512_" gradientUnits="userSpaceOnUse" x1="255" x2="255" xlink:href="#lg2" y1="265.819" y2="298.35"/><linearGradient id="SVGID_00000041999717040372980140000012043049443205469346_" gradientUnits="userSpaceOnUse" x1="281.179" x2="236.679" xlink:href="#lg3" y1="307.112" y2="275.612"/><linearGradient id="SVGID_00000002376400204832382870000009723201549012864399_" gradientUnits="userSpaceOnUse" x1="220.361" x2="264.451" xlink:href="#lg1" y1="270.127" y2="405.788"/><linearGradient id="lg4"><stop offset="0" stop-color="#f89580" stop-opacity="0"/><stop offset=".2599" stop-color="#f2917c" stop-opacity=".261"/><stop offset=".5954" stop-color="#e2856f" stop-opacity=".597"/><stop offset=".9709" stop-color="#c8725b" stop-opacity=".974"/><stop offset=".9972" stop-color="#c5715a"/></linearGradient><linearGradient id="SVGID_00000117662000203113764450000010564806499246933682_" gradientUnits="userSpaceOnUse" x1="310.382" x2="322.882" xlink:href="#lg4" y1="343.199" y2="295.199"/><linearGradient id="SVGID_00000149380951446705010740000015426612521303525052_" gradientUnits="userSpaceOnUse" x1="183.953" x2="156.068" xlink:href="#lg4" y1="352.64" y2="385.8"/><linearGradient id="SVGID_00000072245060018853829040000017100908898887107003_" gradientTransform="matrix(.707 -.707 .707 .707 -859.471 -447.371)" gradientUnits="userSpaceOnUse" x1="112.768" x2="146.148" y1="1285.876" y2="1291.867"><stop offset="0" stop-color="#fffdf1"/><stop offset="1" stop-color="#fff5c6"/></linearGradient><linearGradient id="SVGID_00000160150472378616177170000007467778737864358025_" gradientTransform="matrix(.707 -.707 .707 .707 -859.471 -447.371)" gradientUnits="userSpaceOnUse" x1="105.228" x2="105.228" y1="1321.189" y2="1379.906"><stop offset="0" stop-color="#fea613" stop-opacity="0"/><stop offset=".1832" stop-color="#fc9b19" stop-opacity=".183"/><stop offset=".5086" stop-color="#f57d28" stop-opacity=".509"/><stop offset=".9356" stop-color="#eb4c40" stop-opacity=".936"/><stop offset="1" stop-color="#e94444"/></linearGradient><linearGradient id="SVGID_00000036933198205880250490000004244565325542336674_" gradientUnits="userSpaceOnUse" x1="36.779" x2="120.048" y1="414.233" y2="457.156"><stop offset="0" stop-color="#554e56"/><stop offset="1" stop-color="#433f43"/></linearGradient><linearGradient id="SVGID_00000165931116908486273560000005693011504918893994_" gradientUnits="userSpaceOnUse" x1="96.249" x2="120.377" y1="466.118" y2="490.246"><stop offset="0" stop-color="#433f43" stop-opacity="0"/><stop offset="1" stop-color="#1a1a1a"/></linearGradient><g><g><g><path d="m259.715 288.423c-3.128.605-5.811 2.328-7.293 5.006l-12.051 21.756c-4.432 7.997-11.251 14.47-19.694 18.901 13.19 7.082 28.864 4.863 36.198-5.193 1.865-2.558 3.584-5.224 5.147-7.991l10.501-18.601c1.902-3.369 1.441-7.461-.797-10.884-.66-.503-1.365-.961-2.127-1.364-3.242-1.734-6.785-2.23-9.884-1.63z" fill="url(#SVGID_1_)"/><path d="m311.779 298.251-22.513 24.382c-3.351 3.627-6.86 7.075-10.513 10.336-14.363 12.82-36.135 12.589-50.31-.438 13.226-4.515 25.248-12.31 34.818-22.811l26.026-28.569c3.203-3.518 7.551-5.403 11.971-5.59 4.379-.185 8.839 1.297 12.325 4.492.008.007.016.015.025.022 1.596 1.454 2.543 3.52 2.663 5.675.247 4.436-1.228 8.966-4.492 12.501z" fill="url(#SVGID_00000076605792131537714260000006292529601582825613_)"/><path d="m352.058 311.362-35.003 24.111c-5.209 3.587-10.566 6.904-16.05 9.947-21.559 11.965-48.693 5.535-62.729-14.736 17.797-1.91 35.014-8.259 49.931-18.677l40.572-28.35c4.994-3.491 10.958-4.62 16.532-3.607 5.523 1.004 10.676 4.114 14.131 9.087.008.012.016.023.024.035 1.668 2.386 2.189 5.399 1.652 8.261-1.021 5.45-4.111 10.52-9.06 13.929z" fill="url(#SVGID_00000138553323953087324980000003359054323977613742_)"/></g></g><ellipse cx="239.5" cy="336.507" fill="url(#SVGID_00000062880228029959753990000006013460247611344271_)" rx="51.5" ry="22.698"/><g><path d="m303.461 41.288c-.132 14.246-14.634 24.007-27.871 18.741-6.248-2.486-13.226-3.876-20.59-3.876s-14.342 1.39-20.59 3.876c-13.237 5.267-27.74-4.495-27.871-18.741-.001-.108-.002-.217-.002-.326 0-22.623 21.698-40.962 48.463-40.962s48.463 18.339 48.463 40.962c0 .109-.001.217-.002.326z" fill="url(#SVGID_00000046312586217834345510000014928690423218565026_)"/><g><g><path d="m483.055 236.27c0 3.042-.087 14.351-.259 17.357-1.065 18.585-19.618 33.201-42.139 33.201h-371.314c-22.521 0-41.074-14.616-42.139-33.201-.172-3.006-.259-14.315-.259-17.357 0-104.057 102.114-188.408 228.055-188.408 125.954 0 228.055 84.351 228.055 188.408z" fill="url(#SVGID_00000121962868838109020070000010811187287972526498_)"/><path d="m440.657 286.828c22.521 0 41.074-14.616 42.139-33.201.172-3.006.259-14.315.259-17.356 0-104.057-102.101-188.408-228.055-188.408v238.966h185.657z" fill="url(#SVGID_00000051356656653573003570000014317646737256268210_)"/><path d="m26.945 236.27c0 3.042.087 14.351.259 17.357 1.065 18.585 19.618 33.201 42.139 33.201h371.314c22.521 0 41.074-14.616 42.139-33.201.172-3.006.259-14.315.259-17.357 0-33.35-10.502-64.669-28.902-91.842h-398.304c-18.401 27.173-28.904 58.492-28.904 91.842z" fill="url(#SVGID_00000055668044549508475720000013845799194216478087_)"/></g></g></g><path d="m493.008 305.894h-476.016c-9.385 0-16.992-7.608-16.992-16.992v-10.898c0-9.384 7.607-16.992 16.992-16.992h476.017c9.384 0 16.992 7.607 16.992 16.992v10.898c-.001 9.384-7.608 16.992-16.993 16.992z" fill="url(#SVGID_00000057832107932294004880000004878727064093391512_)"/><path d="m329.249 305.894-62.738-62.738-62.737 62.738z" fill="url(#SVGID_00000041999717040372980140000012043049443205469346_)"/><g><g><g><g><path d="m386.27 305.89c-30.78 43.99-77.78 74.13-130.73 83.8l-33.99 5.94-21.5 3.56c-7.26 1.19-13.93 4.34-19.38 8.97l-19.32 15.49c-4.91 3.93-12.08 3.13-16.01-1.77l-49.1-61.31c-2.68-3.35-3.25-7.92-1.48-11.82l11.94-26.28c2.82-6.24 6.77-11.88 11.63-16.58 3.47-3.36 7.41-6.23 11.74-8.49.48-.26.97-.5 1.47-.74.08-.03.15-.08.24-.11 8.57-4.15 36.34-11.58 47.26-14.43 3.2-.83 6.34-1.91 9.33-3.31 10.23-4.78 19.81-10.76 28.55-17.8 6.35-5.08 12.25-10.74 17.63-16.88 6.46-7.36 16.83-9.44 25.44-5.53 1.24.56 2.44 1.25 3.59 2.06 6.77 4.78 9.99 12.7 9.11 20.35-.43 3.71-1.82 7.36-4.23 10.55-9.08 12.07-18.94 23.54-29.52 34.33-4.4 4.5-8.93 8.88-13.57 13.14l-.62 1.26c-2.25 4.55.03 8.86 5.06 9.54 28.87 3.95 36.82 2.46 56.13-2.74 15.08-4.07 29.08-11.28 40.86-21.2z" fill="url(#SVGID_00000002376400204832382870000009723201549012864399_)"/><path d="m285.94 327.09c-14.745 3.971-22.876 5.775-38.746 4.649v59.41l8.346-1.458c52.95-9.67 99.95-39.81 130.73-83.8h-59.47c-11.78 9.919-25.78 17.129-40.86 21.199z" fill="url(#SVGID_00000117662000203113764450000010564806499246933682_)"/><path d="m173.996 283.453c-12.783 3.399-34.758 9.491-42.221 13.096-.081.035-.158.076-.239.112-.496.238-.987.482-1.468.738-10.4 5.424-18.528 14.382-23.372 25.066l-11.933 26.28c-1.773 3.905-1.201 8.476 1.48 11.823l49.1 61.307c3.93 4.907 11.095 5.7 16.002 1.769l19.329-15.481c5.445-4.63 12.114-7.782 19.373-8.979l21.502-3.551 33.992-5.943c1.024-.187 2.042-.396 3.062-.599z" fill="url(#SVGID_00000149380951446705010740000015426612521303525052_)"/></g></g></g><g><g><path d="m187.382 421.617-29.05 29.05c-5.682 5.682-14.895 5.682-20.577 0l-78.675-78.676c-5.682-5.682-5.682-14.895 0-20.577l29.05-29.05c5.682-5.682 14.895-5.682 20.577 0l78.676 78.676c5.681 5.683 5.681 14.895-.001 20.577z" fill="url(#SVGID_00000072245060018853829040000017100908898887107003_)"/><path d="m105.075 417.986 32.681 32.681c5.682 5.682 14.895 5.682 20.577 0l29.05-29.05c5.682-5.682 5.682-14.895 0-20.577l-32.681-32.681z" fill="url(#SVGID_00000160150472378616177170000007467778737864358025_)"/></g><g><path d="m176.531 443.767-56.259 56.259c-6.387 6.387-15.049 9.975-24.081 9.975h-80.88c-8.456-.001-15.311-6.856-15.311-15.313v-81.379c0-9.031 3.587-17.692 9.973-24.079l56.001-56.01c6.331-6.331 16.595-6.331 22.926 0l87.633 87.633c6.326 6.327 6.326 16.586-.002 22.914z" fill="url(#SVGID_00000036933198205880250490000004244565325542336674_)"/><path d="m176.531 443.767-56.259 56.259c-6.387 6.387-15.049 9.975-24.081 9.975h-81.608l125.548-125.548 36.401 36.401c6.327 6.326 6.327 16.585-.001 22.913z" fill="url(#SVGID_00000165931116908486273560000005693011504918893994_)"/></g></g></g></g></svg>