<svg viewBox="0 0 256 256" xmlns="http://www.w3.org/2000/svg"><g><path d="M180.47 100.618V64.361H75.531v36.257c-5.983 3.379-10.03 9.781-10.03 17.142 0 10.462 8.159 19.015 18.461 19.652v.042h1.209c1.153 8.829 8.686 15.653 17.83 15.653s16.677-6.824 17.83-15.653h14.341c1.153 8.829 8.686 15.653 17.83 15.653s16.677-6.824 17.83-15.653h1.209v-.042c10.302-.637 18.461-9.19 18.461-19.652-.002-7.361-4.05-13.763-10.032-17.142z" fill="#995222"></path><path d="M180.47 100.618V64.361h-5v36.257c5.983 3.379 10.03 9.781 10.03 17.142 0 10.462-8.159 19.015-18.461 19.652v.042h-1.209c-1.045 8.008-7.346 14.347-15.33 15.461.819.114 1.649.192 2.5.192 9.144 0 16.677-6.824 17.83-15.653h1.209v-.042c10.302-.637 18.461-9.19 18.461-19.652 0-7.361-4.048-13.763-10.03-17.142z" fill="#8c3f0a"></path><path d="M180.469 58.12H75.531l-8.105-6.899c-4.15-3.533-3.63-10.091 1.026-12.925l46.55-28.335a25 25 0 0 1 25.997 0l46.55 28.335c4.656 2.834 5.176 9.392 1.026 12.925z" fill="#478cf7"></path><path d="M187.548 38.295 140.998 9.96a24.98 24.98 0 0 0-15.499-3.506 24.952 24.952 0 0 1 10.499 3.506l46.55 28.335c4.656 2.834 5.176 9.392 1.026 12.925l-8.105 6.899h5l8.105-6.899c4.151-3.533 3.63-10.091-1.026-12.925z" fill="#377de2"></path><path d="M174 80.024v17.592c0 3.325-.361 6.564-1.031 9.689.342.026.683.052 1.031.052 7.548 0 13.667-6.119 13.667-13.667 0-7.547-6.119-13.666-13.667-13.666z" fill="#ffd2c0"></path><path d="M182.609 83.082a13.603 13.603 0 0 1 3.058 8.609c0 7.092-5.402 12.92-12.316 13.598a45.915 45.915 0 0 1-.38 2.009c.342.026.681.059 1.03.059 7.548 0 13.667-6.119 13.667-13.667a13.638 13.638 0 0 0-5.059-10.608z" fill="#fcc4ae"></path><path d="M174 86.691v10.925c0 1.032-.046 2.053-.113 3.069.038.001.075.006.113.006a7 7 0 1 0 0-14z" fill="#f2ad97"></path><path d="M82 97.616V80.024c-7.548 0-13.667 6.119-13.667 13.667S74.452 107.358 82 107.358c.348 0 .69-.026 1.031-.052A46.18 46.18 0 0 1 82 97.616z" fill="#ffd2c0"></path><path d="M82 97.616V86.691a7 7 0 1 0 0 14c.038 0 .075-.005.113-.006A46.558 46.558 0 0 1 82 97.616z" fill="#f2ad97"></path><path d="M202.912 249.685H53.088c-5.523 0-10-4.477-10-10v-30.994c0-27.614 22.386-50 50-50h69.824c27.614 0 50 22.386 50 50v30.994c0 5.522-4.477 10-10 10z" fill="#478cf7"></path><path d="M49.088 232.945a2 2 0 0 1-2-2V208.69c0-2.353.18-4.716.536-7.023a1.997 1.997 0 0 1 2.281-1.672 1.999 1.999 0 0 1 1.672 2.281 42.34 42.34 0 0 0-.489 6.415v22.255a2 2 0 0 1-2 1.999zm2.444-36.725a2.002 2.002 0 0 1-1.888-2.663l.11-.311a2 2 0 0 1 3.766 1.348l-.102.289a1.998 1.998 0 0 1-1.886 1.337z" fill="#5e9cf7"></path><path d="M192.912 168.69a49.773 49.773 0 0 1 10 30v30.994c0 5.523-4.477 10-10 10H43.088c0 5.523 4.477 10 10 10h149.824c5.523 0 10-4.477 10-10V208.69c0-16.357-7.856-30.878-20-40z" fill="#377de2"></path><path d="M195.67 170.933c7.62 8.775 12.243 20.223 12.243 32.757v30.994c0 5.523-4.477 10-10 10H48.088a9.954 9.954 0 0 1-4.11-.89c1.569 3.471 5.053 5.89 9.11 5.89h149.824c5.523 0 10-4.477 10-10V208.69c0-15.079-6.685-28.589-17.242-37.757z" fill="#2266d3"></path><path d="m191.412 230.604-14 7.171a2.002 2.002 0 0 1-1.824 0l-14-7.171a2 2 0 0 1-1.088-1.78v-25.265a2 2 0 0 1 2-2h28a2 2 0 0 1 2 2v25.265a2 2 0 0 1-1.088 1.78z" fill="#2266d3"></path><path d="M183.67 215.364c.021-1.769 1.417-2.824 2.151-3.258a.442.442 0 0 0 .129-.646l-2.479-3.318a.444.444 0 0 0-.687-.028 3.69 3.69 0 0 1-2.801 1.246c-2.177 0-3.483-1.69-3.483-1.69s-1.306 1.69-3.483 1.69a3.69 3.69 0 0 1-2.801-1.246.444.444 0 0 0-.687.028l-2.479 3.318a.442.442 0 0 0 .129.646c.734.433 2.13 1.488 2.151 3.258.029 2.382-3.941 5.173-2.525 9.995.987 3.362 3.937 3.75 6.535 4.291 1.75.364 3.16 1.295 3.16 1.295s1.41-.931 3.16-1.295c2.598-.541 5.548-.929 6.535-4.291 1.415-4.822-2.554-7.613-2.525-9.995z" fill="#f79219"></path><circle cx="176.5" cy="220.342" fill="#ffc91d" r="5.417"></circle><path d="m94.412 230.604-14 7.171a2.002 2.002 0 0 1-1.824 0l-14-7.171a2 2 0 0 1-1.088-1.78v-25.265a2 2 0 0 1 2-2h28a2 2 0 0 1 2 2v25.265a2 2 0 0 1-1.088 1.78z" fill="#2266d3"></path><path d="m77.193 168.612-19.916 15.614a2 2 0 0 1-2.808-.34l-3.002-3.829a2 2 0 0 1 .34-2.808l19.916-15.614a2 2 0 0 1 2.808.34l3.002 3.829a2 2 0 0 1-.34 2.808zM178.807 168.612l19.916 15.614a2 2 0 0 0 2.808-.34l3.002-3.829a2 2 0 0 0-.34-2.808l-19.916-15.614a2 2 0 0 0-2.808.34l-3.002 3.829a2 2 0 0 0 .34 2.808zM128 183.328l-6.346 3.56 2.429 9.579h7.834l2.429-9.579z" fill="#414042"></path><path d="M131.917 196.467h-7.834l-6 53.217h19.834z" fill="#58595b"></path><path d="M144.167 158.691h-32.333c-7.18 0-13 5.82-13 13v24.585c0 1.529 1.645 2.492 2.979 1.744L128 183.328l26.188 14.692c1.333.748 2.979-.216 2.979-1.744v-24.585c0-7.18-5.821-13-13-13z" fill="#2266d3"></path><path d="M128 143.616a45.89 45.89 0 0 1-16.167-2.929v23.589c0 .915.314 1.803.889 2.515l12.167 15.052a4 4 0 0 0 6.222 0l12.167-15.052a4.002 4.002 0 0 0 .889-2.515v-23.589A45.89 45.89 0 0 1 128 143.616z" fill="#fcc4ae"></path><path d="M128 143.616a45.89 45.89 0 0 1-16.167-2.929v5.131A47.908 47.908 0 0 0 128 148.616c5.674 0 11.114-.991 16.167-2.798v-5.131A45.89 45.89 0 0 1 128 143.616z" fill="#f2ad97"></path><path d="M82 64.361v33.255c0 25.405 20.595 46 46 46s46-20.595 46-46V64.361H82z" fill="#ffd2c0"></path><path d="M169 64.361v28.255c0 25.405-20.595 46-46 46-11.43 0-21.877-4.178-29.922-11.078 8.437 9.837 20.947 16.078 34.922 16.078 25.405 0 46-20.595 46-46V64.361h-5z" fill="#fcc4ae"></path><circle cx="148" cy="86.982" fill="#995222" r="5.292"></circle><circle cx="108" cy="86.982" fill="#995222" r="5.292"></circle><path d="M128 121.107c6.259 0 11.333-3.026 11.333-6.76h-22.667c.001 3.734 5.075 6.76 11.334 6.76z" fill="#995222"></path><path d="M136.603 27.576c.026-2.123 1.701-3.389 2.581-3.909a.531.531 0 0 0 .155-.776l-2.974-3.982a.532.532 0 0 0-.825-.034 4.427 4.427 0 0 1-3.361 1.495c-2.612 0-4.18-2.028-4.18-2.028s-1.567 2.028-4.18 2.028a4.429 4.429 0 0 1-3.361-1.495.532.532 0 0 0-.825.034l-2.974 3.982a.531.531 0 0 0 .155.776c.88.52 2.556 1.786 2.581 3.909.035 2.858-4.729 6.208-3.03 11.994 1.184 4.034 4.724 4.501 7.842 5.149 2.1.437 3.792 1.554 3.792 1.554s1.692-1.117 3.792-1.554c3.118-.649 6.657-1.115 7.842-5.149 1.699-5.787-3.064-9.136-3.03-11.994z" fill="#f79219"></path><circle cx="128" cy="33.548" fill="#ffc91d" r="6.5"></circle><path d="M180.469 64.361H75.531S92.609 77.082 128 77.082s52.469-12.721 52.469-12.721z" fill="#414042"></path><path d="M180.469 64.361H75.53V58.12a224.768 224.768 0 0 1 104.939 0v6.241z" fill="#58595b"></path></g></svg>