<svg viewBox="0 0 64 64" xmlns="http://www.w3.org/2000/svg"><g><path d="m20.846 18-1.643-2.957a8.104 8.104 0 0 1 .986-9.274A8.103 8.103 0 0 1 26.289 3h4.206c2.339 0 4.625.692 6.571 1.989l1.243.828a2.21 2.21 0 0 0 2.215.138 3.295 3.295 0 0 1 4.046.889 5.696 5.696 0 0 1 1.008 5.193L43.788 18 43 21H23z" fill="#7b828e"></path><path d="M44.783 12a3.565 3.565 0 0 1-2.853-1.427 3.566 3.566 0 0 0-4.688-.918 5.682 5.682 0 0 1-4.722.518l-4.207-1.402a5.89 5.89 0 0 1-3.404-2.952l-.012-.024a5.872 5.872 0 0 1-.612-2.533 8.095 8.095 0 0 0-4.097 2.506 8.106 8.106 0 0 0-.986 9.274L20.846 18 23 21h20l.788-3 1.789-5.963c.004-.012.005-.025.009-.037z" fill="#656b76"></path><path d="M38.185 37h-12.37A12.816 12.816 0 0 0 13 49.815V61h38V49.815A12.814 12.814 0 0 0 38.185 37z" fill="#a2bdcd"></path><path d="M46 52v-1a2.002 2.002 0 0 0-2.336-1.973c-.983.16-1.664 1.084-1.664 2.08V57c-7.18 0-13-5.82-13-13v-7h-3.185A12.816 12.816 0 0 0 13 49.815V61h38v-4a5 5 0 0 1-5-5z" fill="#769fb6"></path><path d="M38.185 37H37v-9H27v9h-1.185c-.581 0-1.156.052-1.726.13C24.639 41.012 27.966 44 32 44s7.361-2.988 7.911-6.87a12.72 12.72 0 0 0-1.726-.13z" fill="#f6b98d"></path><path d="M29 37a9.98 9.98 0 0 0 8-4.008V28H27v9h-1.185c-.581 0-1.156.052-1.726.13A8.008 8.008 0 0 0 29 43.412z" fill="#f3a268"></path><path d="M32 35c-5.523 0-10-4.477-10-10v-7.106a6.024 6.024 0 0 1 8.258-5.591l2.803 1.121A6.433 6.433 0 0 0 40 12l.801 1.201A7.14 7.14 0 0 1 42 17.162V25c0 5.523-4.477 10-10 10z" fill="#f9cdae"></path><path d="M22 23.5h-.5A4.5 4.5 0 0 1 17 19a2.5 2.5 0 1 1 5 0zM42 24h.5a4.5 4.5 0 0 0 4.5-4.5 2.5 2.5 0 1 0-5 0z" fill="#f6b98d"></path><path d="M40.801 13.201 40 12a6.433 6.433 0 0 1-6.939 1.424l-2.803-1.121A6.022 6.022 0 0 0 22 17.894V25c0 5.523 4.477 10 10 10 3.53 0 6.627-1.834 8.406-4.596A9.924 9.924 0 0 1 35 32c-5.523 0-10-4.477-10-10v-6.309a6.015 6.015 0 0 1 5.258-.388l2.803 1.121A6.433 6.433 0 0 0 40 15l.801 1.201A7.14 7.14 0 0 1 42 20.162v-3a7.14 7.14 0 0 0-1.199-3.961z" fill="#f6b98d"></path><path d="M44 20v-2.95a2.5 2.5 0 0 0-2 2.45V24h.5a4.485 4.485 0 0 0 3.182-1.318A2.99 2.99 0 0 1 44 20zM20 19.5v-2.95A2.5 2.5 0 0 1 22 19v4.5h-.5a4.485 4.485 0 0 1-3.182-1.318A2.99 2.99 0 0 0 20 19.5z" fill="#f3a268"></path><path d="M19 61V51a1 1 0 0 1 2 0v10zM43 61V51a1 1 0 1 1 2 0v10z" fill="#608ea9"></path><g fill="#656b76"><circle cx="27" cy="20" fill="#656b76" r="1"></circle><path d="M30 20a1 1 0 0 1-.555-.168l-1.336-.891A5.592 5.592 0 0 0 25 18a1 1 0 0 1 0-2 7.59 7.59 0 0 1 4.219 1.277l.394.262a1.001 1.001 0 0 1 1.782.908l-.5 1A1 1 0 0 1 30 20z" fill="#656b76"></path><circle cx="37" cy="20" fill="#656b76" r="1"></circle><path d="M34 20a1 1 0 0 1-.895-.553l-.5-1a1 1 0 0 1 1.782-.908l.394-.262A7.59 7.59 0 0 1 39 16a1 1 0 1 1 0 2c-1.11 0-2.186.326-3.109.941l-1.336.891c-.166.11-.36.168-.555.168z" fill="#656b76"></path></g><path d="M32 27a.997.997 0 0 1-.707-.293l-1-1a1 1 0 0 1-.188-1.154l1-2a1 1 0 1 1 1.789.895l-.678 1.355.49.49A.999.999 0 0 1 32 27z" fill="#f6b98d"></path><path d="M34.999 31a.996.996 0 0 1-.554-.168 4.395 4.395 0 0 0-4.891 0 1 1 0 0 1-1.11-1.664 6.391 6.391 0 0 1 7.109 0A1 1 0 0 1 34.999 31z" fill="#f15574"></path><path d="M36.389 24.329a4.102 4.102 0 0 1-1.836-.434 1 1 0 0 1 .895-1.789 2.099 2.099 0 0 0 2.427-.394l.419-.419a.999.999 0 1 1 1.414 1.414l-.419.419a4.098 4.098 0 0 1-2.9 1.203zM27.612 24.329a4.097 4.097 0 0 1-2.9-1.203l-.419-.419a.999.999 0 1 1 1.414-1.414l.419.419c.641.64 1.617.798 2.427.394a1 1 0 1 1 .895 1.789 4.105 4.105 0 0 1-1.836.434z" fill="#f6b98d"></path><path d="M8 8H6a1 1 0 0 1 0-2h2V4a1 1 0 0 1 2 0v2c0 1.103-.897 2-2 2zM15 8h-2c-1.103 0-2-.897-2-2V4a1 1 0 0 1 2 0v2h2a1 1 0 0 1 0 2zM9 14a1 1 0 0 1-1-1v-2H6a1 1 0 0 1 0-2h2c1.103 0 2 .897 2 2v2a1 1 0 0 1-1 1zM12 14a1 1 0 0 1-1-1v-2c0-1.103.897-2 2-2h2a1 1 0 0 1 0 2h-2v2a1 1 0 0 1-1 1z" fill="#f15574"></path><path d="M58 20c-.656 0-1.257.216-1.751.573.156-.326.251-.687.251-1.073a2.5 2.5 0 1 0-5 0c0 .2.03.392.074.578L45 20l4.735 4.052A2.978 2.978 0 0 0 49 26a3 3 0 0 0 3 3c.578 0 1.112-.171 1.57-.454.405.284.897.454 1.43.454a2.5 2.5 0 0 0 2.5-2.5c0-.192-.026-.377-.067-.557.184.035.373.057.567.057a3 3 0 1 0 0-6zM13.073 23.317 19 20l-6.574-.922a2.5 2.5 0 0 0 .074-.578 2.5 2.5 0 1 0-5 0c0 .386.095.747.251 1.073A2.976 2.976 0 0 0 6 19a3 3 0 1 0 .567 5.943c-.041.18-.067.365-.067.557A2.5 2.5 0 0 0 9 28a2.49 2.49 0 0 0 2.13-1.207c.264.129.557.207.87.207a2 2 0 0 0 2-2c0-.709-.371-1.328-.927-1.683z" fill="#e9f1f2"></path><g fill="#d0d8da"><path d="M60.5 24c-1.441 0-2.709-.689-3.532-1.742A4.48 4.48 0 0 1 54.5 23a4.489 4.489 0 0 1-4.205-2.937L45 20l4.735 4.052A2.978 2.978 0 0 0 49 26a3 3 0 0 0 3 3c.578 0 1.112-.171 1.57-.454.405.284.897.454 1.43.454a2.5 2.5 0 0 0 2.5-2.5c0-.192-.026-.377-.067-.557.184.035.373.057.567.057a2.99 2.99 0 0 0 2.826-2.033c-.109.008-.214.033-.326.033zM13.073 23.317 19 20l-5.037-.706c-.311.45-.702.857-1.183 1.181-1.195.804-2.632.94-3.903.526a4.476 4.476 0 0 1-1.634 1.992c-1.163.782-2.555.93-3.8.556A2.988 2.988 0 0 0 6 25c.194 0 .383-.022.567-.057-.041.18-.067.365-.067.557A2.5 2.5 0 0 0 9 28a2.49 2.49 0 0 0 2.13-1.207c.264.129.557.207.87.207a2 2 0 0 0 2-2c0-.709-.371-1.328-.927-1.683z" fill="#d0d8da"></path></g></g></svg>