<svg viewBox="0 0 340 340" xmlns="http://www.w3.org/2000/svg"><g><path d="M245.458 149.24s6.786 42.21-7.132 67.861-28.806-13.785-28.806-13.785l-.51-27.473z" fill="#3c3c4f"></path><path d="M113.2 253.485s-19.77 29.828-20.014 77.627h223.523s-6.345-49.321-29.039-77.627z" fill="#ea7f50"></path><g fill="#3c3c4f"><path d="m129.164 273.893-5.651 12.114a6.834 6.834 0 0 0 1.507 7.852 40.876 40.876 0 0 0 11.022 7.118 6.8 6.8 0 0 0 8.458-2.357l6.9-10.084zM169.392 298.427l-3.2 10.795a5.752 5.752 0 0 0 2.232 6.353 34.452 34.452 0 0 0 10.067 4.558 5.729 5.729 0 0 0 6.752-3.015l4.49-9.259zM283.424 265.6s3.01 6.016 6.05 13.957a6.7 6.7 0 0 1-1.294 6.9 118.935 118.935 0 0 1-5.161 5.322 6.721 6.721 0 0 1-10.1-.837L266.8 282.6zM257.013 292.3l5.435 10.272a6.692 6.692 0 0 1-1.192 7.892 51.491 51.491 0 0 1-4.767 4.155 6.7 6.7 0 0 1-9.7-1.726l-5.191-8.086z" fill="#3c3c4f"></path></g><path d="M250.477 207.013a376.04 376.04 0 0 1 38.861 42.553 7.229 7.229 0 0 1 .357 8.415c-7.893 12.05-32.145 45.65-64.642 58.457a24.982 24.982 0 0 1-15.979.678 245.635 245.635 0 0 1-96.012-54.184 9.864 9.864 0 0 1-2.119-11.623 140.1 140.1 0 0 1 17.657-26.954z" fill="#f9ac5f"></path><path d="m252.414 238.539-15.093-13.524-50.187-8.8c1.488-6.068 2.841-12.256 4.034-18.137l-28.833-4.346a161.525 161.525 0 0 0-33.727 30.63 71.583 71.583 0 0 0 11.805 27.377 3.433 3.433 0 0 0 5.1.474 70.4 70.4 0 0 0 12.467-15.873 1.686 1.686 0 0 1 3.127 1.014c-2.048 23.034 7.416 37.362 12.3 43.108a3.426 3.426 0 0 0 5.419-.293c7.709-11.124 8.682-30.87 8.682-30.87s-6.713-11.186-6-13.309a118 118 0 0 0 14.436 12.156 11.445 11.445 0 0 1 4.624 10.775c-3.188 24.15 5.477 39.857 10.1 46.29a3.435 3.435 0 0 0 5.558.009c10.1-13.567 9.348-36.037 9.348-36.037l-5.139-15.525a20.67 20.67 0 0 0 7.32-2.162 5.14 5.14 0 0 1 6.948 2.928 49.626 49.626 0 0 0 11.349 17.676 3.434 3.434 0 0 0 5.481-.9c7.201-14.123.881-32.661.881-32.661z" fill="#ea7f50"></path><path d="M215.645 241.2c-22.354 29.2 0 58.575 0 58.575s22.355-29.375 0-58.575zM177.755 217.1c-22.354 29.2 0 58.575 0 58.575s22.354-29.375 0-58.575z" fill="#ffffff"></path><path d="M175.988 249.294c2.907-5.364 5.627-13.008 8.083-21.527a50.258 50.258 0 0 0-6.316-10.67 46.482 46.482 0 0 0-9.476 21.8 55.236 55.236 0 0 0 7.709 10.397z" fill="#bebfce"></path><path d="M240.479 220.033c-13.178 27.006 9.483 46.917 9.483 46.917s13.149-27.15-9.483-46.917z" fill="#ffffff"></path><path d="M179.388 183.51a172.379 172.379 0 0 0-18.445 11.179 115.454 115.454 0 0 0 45.05 49.846 17.871 17.871 0 0 0 20.256-1.322 69.819 69.819 0 0 0 24.227-36.2 257.62 257.62 0 0 0-23.783-20.113z" fill="#d14e4e"></path><path d="M179.388 183.51a172.379 172.379 0 0 0-18.445 11.179 115.668 115.668 0 0 0 23.194 32.849c4.044-14.078 7.367-30.5 9.621-43z" fill="#b23b3b"></path><path d="M180.493 143.053v39.52s4.032 13.613 18.658 24.817a12.526 12.526 0 0 0 7.611 2.6H218.7a12.157 12.157 0 0 0 8.939-3.8l.169-.185a12.309 12.309 0 0 0 3.13-8.25v-28.712z" fill="#f29c81"></path><path d="M180.492 143.053v39.52s2.431 8.194 10.349 17.1a587.223 587.223 0 0 0 1.644-8.283 2.742 2.742 0 0 1 4.217-1.761 15.488 15.488 0 0 0 4.918 2.138 146.172 146.172 0 0 0 29.316 4.14v-26.864z" fill="#d8735b"></path><path d="M252.845 33.391c-9.1 7.123-24.626 26.5-11.858 71.158l8.915 8.229s26.322-32.991 10.936-77.036a5.133 5.133 0 0 0-7.993-2.351z" fill="#3c3c4f"></path><path d="M192.739 31.924c2.318 11.289 7.721 25.524 19.719 39.872l35.8 28.68s1.79-40.632-19.44-68.276c-15.718-13.842-28.511-11.5-36.079-.276z" fill="#d5d6e2"></path><path d="M191.145 15.267a76.294 76.294 0 0 0 1.6 16.655c4.924-2.014 20.368-7.113 36.07.28a61.28 61.28 0 0 0-31.09-21.736 5.114 5.114 0 0 0-6.58 4.801z" fill="#3c3c4f"></path><path d="m136.5 38.606 49.94 24.931c12.14 1.067 21.493-.492 22.049-10.341-7.074-10.8-18.639-24.48-35.8-33.764 0 0-20.689-4.2-28.44 1.113S136.5 38.606 136.5 38.606z" fill="#f2f2f2"></path><path d="M217.484 70.019a96.046 96.046 0 0 0-9-16.823 12.631 12.631 0 0 1-11.081 3.58 16.648 16.648 0 0 1-7.3-3.05c-17.739-12.692-37.8-21.186-51.35-26.041a31.61 31.61 0 0 0-2.253 10.921c9.6 12.313 26.757 26.747 57.381 39.759z" fill="#d5d6e2"></path><path d="M172.687 19.436a88.619 88.619 0 0 0-42.668-10.548 5.154 5.154 0 0 0-5.067 6.165c1.062 5.332 3.925 13.774 11.549 23.552 3.399-6.505 13.187-19.774 36.186-19.169z" fill="#696987"></path><path d="M144.274 135.265s-20.932 62.285 0 105.935c0 0 34.674-40.587 19.868-115.38z" fill="#3c3c4f"></path><path d="M164.184 117.907s-18.671 73.261 10.831 117.677c0 0 20.3-51.308 6.778-124.059z" fill="#696987"></path><path d="M77.588 84.208S54.525 70.239 61.551 53.1s40.5-22.852 40.5-22.852a77.1 77.1 0 0 1 11.1 2c16.293 4.165 49.457 17.4 71.5 33.618l-9.636 15.994z" fill="#f2f2f2"></path><path d="M77.588 84.208c52.286 11.124 111.956 5.339 111.956 5.339l5.708-14.721a94.234 94.234 0 0 0-10.611-8.956 21.584 21.584 0 0 1-16.821 8.3c-44.13-3.025-76.109.3-97.353 4.534a50.191 50.191 0 0 0 7.121 5.504z" fill="#d5d6e2"></path><path d="M82.85 188.162c-8.284-9.737-10.36-18.4-10.331-24.705-15.746 18.039-18.689 38.9-19.181 48.1a5.116 5.116 0 0 0 4.681 5.375c25.426 2.016 46.208-14.835 46.208-14.835q1.058-.927 2.111-1.867a33.364 33.364 0 0 1-23.488-12.068zM102.045 30.261a72.814 72.814 0 0 0-8.13-.4c-31.954.253-50.8 9.587-58.174 14.2a5.113 5.113 0 0 0-1.885 6.563c4.1 8.429 16.048 27.6 41.855 33.181q.938.2 1.877.405C71.6 54.512 89.716 37.835 102.045 30.261z" fill="#696987"></path><path d="M159.708 144.566c-13.783 16.249-33.026 37.531-53.37 55.661 0 0-20.8 4.923-30.1-5.061s-3.715-31.709-3.715-31.709c1.394-1.6 3.281-3.488 4.884-5.032l82.305-38.252c7.805 4.612 4.863 14.069-.004 24.393z" fill="#f2f2f2"></path><path d="M160.038 140.991q-.155 1.629-.331 3.575c12.714-14.99 20.785-25.7 20.785-25.7v-18.39c-54.536 19.743-98.566 54.331-103.092 57.949 16.93-3.21 47.69-10.182 75.533-22.543a5.066 5.066 0 0 1 7.105 5.109z" fill="#d5d6e2"></path><path d="M149.6 123.341c-20.494 9.346-48.341 18.591-77.758 18.19 0 0-18.551-11.358-19.281-24.856s19.09-24.858 19.09-24.858q4.852-1.143 10.338-1.97c29.141-4.336 59.183-4.066 79.371-3.063 0 0 5.487 5.922 4.393 16.978S149.6 123.341 149.6 123.341z" fill="#f2f2f2"></path><path d="M149.6 123.344a218.387 218.387 0 0 0 33.639-18.795l2.4-15.9s-9.5-1.127-24.276-1.861c.737 5.8 1.084 21.122-11.763 36.556z" fill="#d5d6e2"></path><path d="M71.655 91.823c-32.13 7.57-43.923 24.92-47.88 33.415a5.13 5.13 0 0 0 2.592 6.879 117.993 117.993 0 0 0 45.351 9.41c-12.277-21.822-4.4-41.652-.063-49.704z" fill="#696987"></path><path d="m181.512 140.744-6.148-26.944s-6.126-39.311 32.929-46.2 39.571 31.813 41.609 45.182z" fill="#bc655c"></path><path d="M180.885 138.847a25.334 25.334 0 0 1 3-17.129c4.267-7.359 12.61-16.483 28.489-19.917 28.334-6.126 37.524 10.977 37.524 10.977l.965 9.27a13.987 13.987 0 0 0 1.817 5.576l3.979 6.852a13.994 13.994 0 0 1 .532 13.043l-3.126 6.566a13.988 13.988 0 0 0-1.359 6.016v7.3a12 12 0 0 1-12 12h-33.865a12 12 0 0 1-11.751-9.578l-.752-3.65a17.033 17.033 0 0 0-3.528-7.386l-3.915-4.761a25.409 25.409 0 0 1-5.4-11.71z" fill="#f29c81"></path><path d="M229.01 157.963a3.5 3.5 0 0 1-3.025-1.735 3.607 3.607 0 0 1 .992-4.62l4.353-3.4a2.657 2.657 0 0 0 .5-3.668 47.685 47.685 0 0 0-7.793-8.227 3.5 3.5 0 0 1 4.333-5.5c.339.266 8.325 6.614 12.55 15.212a3.52 3.52 0 0 1-.972 4.337l-8.784 6.856a3.483 3.483 0 0 1-2.154.745zM215.742 128.205a2.976 2.976 0 0 1-.568-.054 36.149 36.149 0 0 0-6.082-.561h-.019a3 3 0 0 1-.024-6 42.454 42.454 0 0 1 7.256.669 3 3 0 0 1-.563 5.946zM233.128 127.4a3 3 0 0 1-.794-5.894 54 54 0 0 1 6.443-1.311 3 3 0 0 1 .787 5.948 48.484 48.484 0 0 0-5.638 1.148 2.979 2.979 0 0 1-.798.109z" fill="#c45d49"></path><path d="M192.443 99.448a3.48 3.48 0 0 1-2.153-.743l-2.543-1.987a3.5 3.5 0 0 1 4.311-5.515l2.543 1.988a3.5 3.5 0 0 1-2.158 6.257zM204.948 93.022a3.5 3.5 0 0 1-3.013-1.715l-2.468-4.161a3.5 3.5 0 1 1 6.021-3.57l2.468 4.161a3.5 3.5 0 0 1-3.008 5.285zM217.651 90.1a3.5 3.5 0 0 1-3.491-3.306l-.251-4.5a3.5 3.5 0 1 1 6.991-.394l.25 4.5a3.5 3.5 0 0 1-3.3 3.689q-.1.011-.199.011zM231.209 91.333a3.576 3.576 0 0 1-.46-.03 3.5 3.5 0 0 1-3.016-3.926l.325-2.471a3.5 3.5 0 0 1 6.941.91l-.324 2.471a3.5 3.5 0 0 1-3.466 3.046z" fill="#934644"></path><path d="M206.931 135.206c-2.256 2.28-7.684 7.875-12.225 13.412a1.474 1.474 0 0 0 .118 1.989l4.236 4.125a1.477 1.477 0 0 0 2.163-.11l11.48-13.713a1.478 1.478 0 0 0-.07-1.975l-3.592-3.714a1.475 1.475 0 0 0-2.11-.014zM246.909 133.062c1.624 1.8 4.9 5.515 8.524 9.992a1.5 1.5 0 0 1-.024 1.914l-2.905 3.421a1.5 1.5 0 0 1-2.294-.008l-8.568-10.234a1.5 1.5 0 0 1 .072-2.006l3.008-3.111a1.493 1.493 0 0 1 2.187.032z" fill="#ffffff"></path></g></svg>