<svg viewBox="0 0 512 512" xmlns="http://www.w3.org/2000/svg"><g><path d="M477.2 169.2 421 360l-59.398 33.602H211L91 360S46.8 209.098 36.898 175.8l-2.097-6.6c-1.2-4.2-.602-8.7 1.797-12.598l35.101-14.403 88 34.2 66.903-114h58.796l66.903 114 88-34.2zm0 0" fill="#ffd400"></path><g fill="#fdbf00"><path d="M477.2 169.2 421 360l-59.398 33.602H256V62.398h29.398l66.903 114 88-34.199zm0 0" fill="#fdbf00"></path><path d="M91 360v45c0 8.398 6.598 15 15 15h300c8.402 0 15-6.602 15-15v-45zM256 0c-24.902 0-45 20.098-45 45 0 25.5 21 45 45 45 24.902 0 45-20.398 45-45 0-24.902-20.098-45-45-45zm0 0" fill="#fdbf00"></path></g><path d="M467 180c-12.684 0-23.746-4.938-31.902-13.098C426.438 157.777 422 146.852 422 135c0-24.813 20.188-45 45-45s45 20.188 45 45-20.188 45-45 45zm0 0" fill="#ff9f00"></path><path d="M45 180c-24.813 0-45-20.188-45-45s20.188-45 45-45 45 20.188 45 45c0 25.102-20.207 45-45 45zm0 0" fill="#fdbf00"></path><path d="M256 90V0c24.902 0 45 20.098 45 45 0 24.602-20.098 45-45 45zM421 360v45c0 8.398-6.598 15-15 15H256v-60zM330.398 225.598c-1.8-5.7-6.597-9.598-12.296-10.496L284.5 210.3l-15-29.703c-2.7-4.797-8.102-7.5-13.5-7.5s-10.8 2.703-13.5 7.5l-15 29.703-33.602 4.8c-5.699.899-10.496 4.797-12.296 10.497-1.5 5.402 0 11.402 4.199 15.3l24 23.102-5.7 32.402c-.902 5.399 1.2 11.098 6 14.7 4.5 3.3 10.801 3.597 15.598 1.199L256 296.699l30.3 15.602c5.098 2.699 11.098 2.097 15.602-1.2 4.797-3.601 6.899-9.3 5.996-14.703L302.2 264l24-23.102c4.2-3.898 5.703-9.898 4.2-15.3zm0 0" fill="#ff9f00"></path><path d="M286.3 312.3 256 296.7V173.097c5.398 0 10.8 2.703 13.5 7.5l15 29.703 33.602 4.8c5.699.899 10.496 4.797 12.296 10.497 1.5 5.402 0 11.402-4.199 15.3L302.2 264l5.7 32.402c.902 5.399-1.2 11.098-6 14.7-4.5 3.296-10.5 3.898-15.598 1.199zm0 0" fill="#ff7816"></path></g></svg>