<svg viewBox="0 0 511.921 511.921" xmlns="http://www.w3.org/2000/svg"><g><path d="M511.59 269.085a196.573 196.573 0 0 1-1.589 17.567c-.53 4.414-1.148 8.916-1.942 13.33-1.148 7.415-2.825 14.742-4.679 21.981-1.942 7.239-4.149 14.301-6.709 21.274a182.451 182.451 0 0 1-8.828 21.01 255.195 255.195 0 0 1-123.233 122.88 208.166 208.166 0 0 1-21.098 8.739 260.187 260.187 0 0 1-21.363 6.709c-1.677.441-3.354.883-5.032 1.236-5.561 1.324-11.299 2.56-17.037 3.443a.325.325 0 0 0-.265.088h-.088a241.272 241.272 0 0 1-51.553 3.531c-.452.187-.96.187-1.412 0a136.178 136.178 0 0 1-16.066-1.148 27.259 27.259 0 0 1-4.679-.353c-3.972-.441-7.857-.971-11.741-1.677a198.552 198.552 0 0 1-24.717-5.297C71.237 470.892-8.038 359.796.65 237.659a169.79 169.79 0 0 1 1.942-17.567 238.42 238.42 0 0 1 4.943-25.865c.441-1.501.794-3.001 1.324-4.414a132.536 132.536 0 0 1 3.884-13.153c.441-1.766 1.059-3.354 1.589-5.032.706-1.942 1.412-3.884 2.295-5.914a33.264 33.264 0 0 1 1.854-4.943 255.559 255.559 0 0 1 141.86-141.418c1.677-.706 3.443-1.324 5.12-1.942 1.942-.794 3.884-1.501 5.826-2.207a50.34 50.34 0 0 1 5.914-1.766l.088-.088c.883-.353 1.854-.618 2.737-.883 3.531-1.236 7.062-2.119 10.681-3.001l.088-.088c1.236-.353 2.472-.706 3.708-.971.883-.177 1.677-.441 2.56-.618 86.349-20.478 177.147 5.168 240.022 67.796a251.002 251.002 0 0 1 65.942 113.964 198.905 198.905 0 0 1 5.561 24.894 133.828 133.828 0 0 1 1.589 11.741 24.86 24.86 0 0 1 .441 4.414c.617 5.217.97 10.461 1.059 15.713.163.814.193 1.648.088 2.472.267 6.796.178 13.505-.175 20.302z" fill="#e6e7e8"></path><path d="M511.59 269.085a196.573 196.573 0 0 1-1.589 17.567h-.265c-10.505-1.501-19.95-3.178-28.866-5.031-3.619-.794-7.239-1.854-10.77-2.737l-11.123 18.891a8.853 8.853 0 0 1-7.592 4.414 9.086 9.086 0 0 1-4.502-1.236 8.816 8.816 0 0 1-3.178-12.094l8.563-14.566c-7.768-2.207-15.448-4.679-23.04-7.327l-12.888 17.479a8.973 8.973 0 0 1-12.359 1.854 8.87 8.87 0 0 1-1.854-12.359l10.152-13.683a382.018 382.018 0 0 1-22.069-9.887l-14.919 16.243a8.475 8.475 0 0 1-6.444 2.913 9.119 9.119 0 0 1-6.003-2.295 8.908 8.908 0 0 1-.53-12.535l11.564-12.623c-7.15-3.796-14.124-7.768-20.921-12.006l-16.508 14.654a8.8 8.8 0 0 1-5.914 2.207 9.08 9.08 0 0 1-6.621-3.001 8.896 8.896 0 0 1 .794-12.447l12.8-11.299c-6.709-4.59-13.153-9.357-19.597-14.212l-17.92 12.8a8.658 8.658 0 0 1-5.12 1.677 8.788 8.788 0 0 1-7.15-3.708 8.696 8.696 0 0 1 2.031-12.27l14.036-10.063a391.44 391.44 0 0 1-18.008-16.154l-19.244 10.947a8.837 8.837 0 1 1-8.74-15.361l14.919-8.474c-5.561-5.826-11.034-11.741-16.243-17.832l-20.215 8.739a8.247 8.247 0 0 1-3.531.794 8.86 8.86 0 0 1-3.531-16.949l15.713-6.797c-4.943-6.356-9.622-12.888-14.212-19.597l-21.01 6.709a9.85 9.85 0 0 1-2.737.441 8.863 8.863 0 0 1-2.648-17.302l16.331-5.12c-4.237-6.886-8.298-13.771-12.182-20.921l-21.539 4.414c-.583.102-1.173.161-1.766.177a8.937 8.937 0 0 1-8.651-7.062 8.846 8.846 0 0 1 6.886-10.417l16.508-3.354a420.927 420.927 0 0 1-19.774-48.375c0-.177-.088-.265-.088-.441 3.531-1.236 7.062-2.119 10.681-3.001l.088-.088c1.236-.353 2.472-.706 3.708-.971.883-.177 1.677-.441 2.56-.618a390.181 390.181 0 0 0 17.92 43.873l9.446-10.681a8.817 8.817 0 0 1 14.983 3.002 8.819 8.819 0 0 1-1.742 8.65l-14.036 15.801a356.07 356.07 0 0 0 10.858 18.714l8.21-11.388a8.792 8.792 0 0 1 15.159 1.488 8.794 8.794 0 0 1-.859 8.752l-12.27 17.126c4.149 6.003 8.298 11.829 12.712 17.567l6.974-12.27a8.822 8.822 0 0 1 12.006-3.354 8.947 8.947 0 0 1 3.354 12.094l-10.417 18.273c4.679 5.473 9.622 10.77 14.565 16.066l5.561-12.888a8.815 8.815 0 0 1 11.594-4.513 8.815 8.815 0 0 1 4.561 11.575l-8.298 19.156c5.208 5.032 10.505 9.887 16.066 14.566l4.149-13.33a8.85 8.85 0 0 1 11.107-5.687 8.85 8.85 0 0 1 5.754 11.072l-6.356 20.039c5.738 4.414 11.564 8.739 17.479 12.888l2.825-13.947a8.83 8.83 0 1 1 17.302 3.531l-4.237 20.657a398.723 398.723 0 0 0 18.803 10.858l1.324-14.036a8.823 8.823 0 0 1 17.567 1.677l-2.03 21.01c6.532 3.178 13.065 6.179 19.774 9.004l-.088-14.301a8.726 8.726 0 0 1 8.739-8.828h.088a8.835 8.835 0 0 1 8.828 8.739l.177 21.363c6.709 2.383 13.683 4.59 20.568 6.621l-1.589-14.212a8.837 8.837 0 1 1 17.567-1.941l2.383 21.01c3.619.883 7.327 1.942 11.034 2.737 8.298 1.847 17.125 3.348 27.012 4.76zM322.503 456.406 305.377 470c1.324 3.443 2.825 6.797 4.149 10.328 2.825 8.033 5.297 15.713 7.503 22.863.072.198.102.408.088.618-5.561 1.324-11.299 2.56-17.037 3.443a.325.325 0 0 0-.265.088h-.088c-1.942-6.708-4.237-13.771-6.797-21.098-1.324-3.531-2.825-6.974-4.237-10.417l-21.186.617h-.265a8.816 8.816 0 0 1-8.828-8.651 8.726 8.726 0 0 1 8.563-9.004l14.389-.441c-3.09-6.532-6.179-13.065-9.534-19.509l-21.186 2.825a5.08 5.08 0 0 1-1.148.088 8.822 8.822 0 0 1-1.147-17.567l14.124-1.854a358.554 358.554 0 0 0-11.652-18.361l-20.48 4.943a8.583 8.583 0 0 1-2.03.265 8.817 8.817 0 0 1-2.119-17.391l13.683-3.354c-4.326-5.738-8.739-11.476-13.418-17.037l-19.774 7.062a8.496 8.496 0 0 1-2.913.53 8.882 8.882 0 0 1-3.002-17.214l13.33-4.679c-4.855-5.297-9.887-10.505-15.095-15.537l-18.979 9.094c-1.2.516-2.49.786-3.796.794a8.846 8.846 0 0 1-8.033-4.943 9.019 9.019 0 0 1 4.149-11.829l12.623-6.003c-5.385-4.767-10.947-9.357-16.596-13.859l-17.831 10.946a8.713 8.713 0 0 1-12.094-2.913 8.853 8.853 0 0 1 2.825-12.182l11.917-7.239a355.048 355.048 0 0 0-17.92-12.182l-16.596 12.8a8.812 8.812 0 1 1-10.769-13.948l11.211-8.651c-6.268-3.531-12.712-6.886-19.156-10.063l-15.272 14.477a9.095 9.095 0 0 1-6.091 2.472 8.87 8.87 0 0 1-6.091-15.271l10.152-9.71a451.095 451.095 0 0 0-20.039-8.121l-13.683 16.066a8.828 8.828 0 1 1-13.418-11.476l9.269-10.858A414.318 414.318 0 0 0 .649 237.658a169.79 169.79 0 0 1 1.942-17.567c.177 0 .353.088.53.088a400.14 400.14 0 0 1 49.081 12.623l1.059-16.861A8.843 8.843 0 0 1 70.916 217l-1.412 21.981c7.592 2.825 15.007 5.914 22.422 9.181l2.825-16.949a8.817 8.817 0 0 1 17.391 2.913l-3.619 21.804c7.15 3.619 14.301 7.415 21.274 11.388l4.59-16.508a8.847 8.847 0 1 1 17.037 4.767l-6.003 21.274c6.797 4.326 13.506 8.828 20.039 13.594l6.268-16.066a8.925 8.925 0 0 1 11.476-4.943 8.716 8.716 0 0 1 4.943 11.476l-8.121 20.657c6.268 5.032 12.447 10.152 18.45 15.537l8.033-15.36a8.849 8.849 0 0 1 11.917-3.708 8.952 8.952 0 0 1 3.708 11.917l-10.24 19.597c5.738 5.65 11.388 11.388 16.772 17.302l9.446-14.212a8.851 8.851 0 0 1 14.742 9.799l-12.182 18.361a392.26 392.26 0 0 1 14.83 19.068l10.858-13.241a8.873 8.873 0 0 1 13.682 11.299l-14.036 16.949c4.414 6.709 8.739 13.506 12.8 20.48L290.9 403.44a8.834 8.834 0 1 1 12.358 12.623l-15.448 15.183c3.708 7.15 7.15 14.389 10.505 21.804l13.153-10.505a8.858 8.858 0 1 1 11.035 13.861z" fill="#d75e72"></path></g></svg>