<svg viewBox="0 0 682.667 682.667" xmlns="http://www.w3.org/2000/svg"><g><defs><clippath clippathunits="userSpaceOnUse" id="a"><path d="M0 512h512V0H0Z" fill="#000000"></path></clippath></defs><g clip-path="url(#a)" transform="matrix(1.33333 0 0 -1.33333 0 682.667)"><path d="M0 0h-482c-8.284 0-15 6.716-15 15v282c0 4.462 1.986 8.693 5.421 11.543l241 200a15 15 0 0 0 19.158 0l241-200A14.998 14.998 0 0 0 15 297V15C15 6.716 8.284 0 0 0" fill="#ffcd14" transform="translate(497)"></path><path d="m0 0-241 200a14.97 14.97 0 0 1-9.579 3.457v-512h241c8.284 0 15 6.716 15 15v282C5.421-7.081 3.435-2.85 0 0" fill="#ffb400" transform="translate(506.58 308.543)"></path><path d="M0 0h-340c-8.284 0-15 6.716-15 15v290c0 8.284 6.716 15 15 15H0c8.284 0 15-6.716 15-15V15C15 6.716 8.284 0 0 0" fill="#dcf5fa" transform="translate(426 132)"></path><path d="M0 0h-170v-320H0c8.284 0 15 6.716 15 15v290C15-6.716 8.284 0 0 0" fill="#bedce6" transform="translate(426 452)"></path><path d="M0 0c-11.861 0-24.663 12.817-24.663 33.525 0 19.854 13 31.718 25.567 31.718 13.091 0 22.337-12.241 22.833-29.955l-.017-3.421C23.018 14.127 12.648 0 0 0m95.905 59.742a8.465 8.465 0 0 1-.089.311c-7.41 24.551-23.987 44.653-46.679 56.604-22.688 11.949-48.651 14.241-73.106 6.458-23.173-7.377-42.451-23.28-54.283-44.778-11.837-21.505-14.949-46.299-8.765-69.816 5.357-20.367 16.922-37.938 33.449-50.812 15.91-12.396 35.728-19.528 55.803-20.084l.282-.003c5.394 0 9.84 4.297 9.991 9.723.152 5.521-4.199 10.12-9.72 10.273-33.058.914-62.033 23.938-70.463 55.99-10.151 38.603 11.711 78.333 49.773 90.449 19.309 6.148 39.808 4.337 57.718-5.096 17.868-9.41 30.934-25.221 36.807-44.532 3.718-14.061 2.497-27.124-4.074-43.646C70.746 6.25 65.158-4.293 52.231-4.293c-2.434 0-4.314 1.523-5.218 2.432-2.156 2.166-3.433 5.358-3.417 8.539l.124 25.047c.019.685.041 1.369.041 2.061 0 .434-.017.86-.025 1.29l.229 46.164c.027 5.522-4.428 10.022-9.95 10.049h-.051c-5.499 0-9.972-4.445-9.999-9.951l-.017-3.446C17.414 82.597 9.577 85.243.904 85.243c-22.398 0-45.567-19.345-45.567-51.718C-44.663 4.011-24.627-20 0-20c10.437 0 19.903 4.285 27.347 11.517a31.35 31.35 0 0 1 5.489-7.485c5.342-5.369 12.23-8.325 19.395-8.325 20.566 0 33.58 14.301 38.902 27.685 8.199 20.616 9.671 37.995 4.772 56.35" fill="#696969" transform="translate(251.714 269.378)"></path><path d="M0 0c.138 5.009-3.436 9.248-8.222 10.106V-9.559C-3.657-8.739-.134-4.818 0 0" fill="#555555" transform="translate(264.222 216.724)"></path><path d="M0 0c-7.41 24.55-23.987 44.653-46.68 56.604-14.07 7.411-29.401 11.103-44.85 10.985V47.578c12.239.114 24.385-2.801 35.53-8.67 17.867-9.41 30.934-25.221 36.807-44.532 3.717-14.061 2.497-27.125-4.075-43.647-1.802-4.533-7.39-15.076-20.317-15.076-2.435 0-4.314 1.524-5.219 2.432-2.155 2.167-3.432 5.359-3.417 8.54l.124 25.046c.02.685.041 1.37.041 2.061 0 .435-.016.86-.024 1.291l.228 46.164c.028 5.522-4.427 10.021-9.95 10.049h-.051c-5.499 0-9.971-4.445-9.999-9.951l-.016-3.447c-5.674 4.086-12.33 6.616-19.662 7.213V4.902C-80.255 2.975-72.531-8.62-72.079-24.765l-.018-3.422c-.621-15.686-8.802-28.541-19.433-31.307v-20.307c8.738 1.003 16.65 5.037 23.06 11.264a31.341 31.341 0 0 1 5.49-7.484c5.341-5.369 12.23-8.326 19.395-8.326 20.565 0 33.579 14.302 38.901 27.685C3.516-36.045 4.987-18.666.089-.311.061-.207.031-.104 0 0" fill="#555555" transform="translate(347.53 329.432)"></path><path d="M0 0h-482c-8.284 0-15 6.716-15 15v282a15.002 15.002 0 0 0 22.926 12.735L-241 164.668-7.926 309.735A15 15 0 0 0 15 297V15C15 6.716 8.284 0 0 0" fill="#fff037" transform="translate(497)"></path><path d="M0 0a15 15 0 0 1-15.21-.378l-233.074-145.067v-164.668h241c8.284 0 15 6.716 15 15v282A15.002 15.002 0 0 1 0 0" fill="#ffcd14" transform="translate(504.284 310.113)"></path></g></g></svg>