<svg viewBox="0 0 64 64" xmlns="http://www.w3.org/2000/svg"><g><path d="M50 48v-5a4.879 4.879 0 0 0-3.922-4.784L30 35A36.633 36.633 0 0 0 1.2 21H1v33h24z" fill="#f4b43f"></path><path d="M50 50v-7a4.879 4.879 0 0 0-3.922-4.784L30 35A36.625 36.625 0 0 0 4 21.121V26a24 24 0 0 0 24 24z" fill="#f7c445"></path><path d="M1 50h20.683v4H1M41 54h9a3 3 0 0 0 3-3 3 3 0 0 0-3-3h-6.606" fill="#606160"></path><path d="M45 54a12 12 0 0 0-24 0z" fill="#898989"></path><circle cx="33" cy="54" fill="#606160" r="8"></circle><path d="M33 46a7.96 7.96 0 0 0-4.565 1.435 7.995 7.995 0 0 0 11.13 11.13A7.995 7.995 0 0 0 33 46z" fill="#747574"></path><path d="M4 25v10h21A26.643 26.643 0 0 0 4.194 25z" fill="#93d3f5"></path><path d="M4 38h4v2H4z" fill="#606160"></path><circle cx="33" cy="54" fill="#a0a0a0" r="3"></circle><path d="M42.644 19H44a3.736 3.736 0 0 0 3.109-1.664l2.311-3.466a1.954 1.954 0 0 1 1.626-.87A1.954 1.954 0 0 1 53 14.954a3.455 3.455 0 0 1-.58 1.916l-2.276 3.415A5.338 5.338 0 0 1 47 22.5l-2 .5 4 4 3-4.5a12.4 12.4 0 0 1 2.386-2.653l3.832-3.189a2.818 2.818 0 0 1 1.8-.653A1.977 1.977 0 0 1 62 17.982a1.979 1.979 0 0 1-.828 1.61L56.9 22.644A11.232 11.232 0 0 0 53.8 26L52 29l2.048.512A2.893 2.893 0 0 1 56.222 32l.68 6.116a16.166 16.166 0 0 1 .1 1.773A2.111 2.111 0 0 1 54.889 42a2.112 2.112 0 0 1-2.1-1.878L52 33h-1.056A14.472 14.472 0 0 1 38 25l-5.366 3.577a2.522 2.522 0 0 1-1.4.422 2.518 2.518 0 0 1-2-.979l-2.622-3.4a2.122 2.122 0 0 1-.621-1.5 2.122 2.122 0 0 1 2.13-2.12 2.123 2.123 0 0 1 1.5.622L32 24l2-1.25 4.73-2.956" fill="#ffdab6"></path><g fill="#e15240"><path d="m18.419 20.814-7-5A1 1 0 0 1 12 14h8.279l1.772-5.316A1 1 0 0 1 22.929 8a1.014 1.014 0 0 1 .966.551l3 6-1.79.894-1.92-3.841-1.236 3.71A1 1 0 0 1 21 16h-5.879l4.46 3.186zM31 10h-2V2a1 1 0 0 1 1.781-.625l3.5 4.369 7.277-3.639a1 1 0 0 1 1.4 1.211l-2 6-1.9-.632 1.237-3.71L34.447 7.9a1 1 0 0 1-1.228-.27L31 4.851zM56.435 46.864l1.028-1.714 4.998 2.997-1.028 1.714zM55.078 49.282l1.924-.55 2.002 7.004-1.924.55z" fill="#e15240"></path></g><path d="M46.078 38.216 44 37.8V40a4 4 0 0 0 4 4h2v-1a4.879 4.879 0 0 0-3.922-4.784z" fill="#93d3f5"></path><path d="M6.222 25.087A10 10 0 0 0 16 33h7.218a26.632 26.632 0 0 0-16.996-7.913z" fill="#bce3fa"></path><path d="m45 23 2-.5a5.305 5.305 0 0 0 1.521-.666l-1.99-3.824A3.737 3.737 0 0 1 44 19h-1.356l-3.914.794L34 22.75l-.537.336 1.385 4.014L38 25a14.465 14.465 0 0 0 7.413 6.893l2.907-5.573z" fill="#508c45"></path><path d="M52.791 40.122A2.111 2.111 0 0 0 57 39.889a16.166 16.166 0 0 0-.1-1.773L56.222 32a2.88 2.88 0 0 0-.543-1.379l-3.674 2.423z" fill="#ffdab6"></path><path d="M52 22.5 49 27l-.68-.68-2.907 5.573A14.448 14.448 0 0 0 50.944 33H52l.005.044 3.674-2.423a2.88 2.88 0 0 0-1.631-1.109L52 29l1.8-3a11.174 11.174 0 0 1 1.585-2.041L52.8 21.474A12.724 12.724 0 0 0 52 22.5z" fill="#747574"></path><path d="M60.018 16.005a2.818 2.818 0 0 0-1.8.653l-3.832 3.189a12.346 12.346 0 0 0-1.59 1.627l2.589 2.485a11.165 11.165 0 0 1 1.515-1.315l4.274-3.053a1.977 1.977 0 0 0-1.154-3.586z" fill="#ffdab6"></path><circle cx="40" cy="16" fill="#ffdab6" r="4"></circle><path d="M43.629 14.339A3.992 3.992 0 1 0 38.1 19.5L39 15z" fill="#606160"></path></g></svg>