<svg viewBox="0 0 512 512" xmlns="http://www.w3.org/2000/svg"><g><path d="M432.505 369.473c-39.762 0-71.995-32.233-71.995-71.995s32.233-71.995 71.995-71.995c22.099 0 41.861 9.966 55.068 25.637V45.32a8.121 8.121 0 0 0-8.121-8.121H236.846a8.121 8.121 0 0 0-8.121 8.121v59.823c9.361 13.7 14.847 30.247 14.847 48.055v91.398c0 12.322-5.175 24.219-14.198 32.641l-.648.605v1.152h3.917c31.522 0 57.167 25.645 57.167 57.166v58.446h32.483a4.064 4.064 0 0 1 4.06 4.06v5.076h153.101a8.121 8.121 0 0 0 8.121-8.121v-51.787c-13.209 15.674-32.971 25.639-55.07 25.639z" fill="#ffe177"></path><g fill="#ffd15b"><path d="M446.969 45.321v181.617c16.17 3.298 30.358 12.025 40.604 24.183v-205.8a8.121 8.121 0 0 0-8.121-8.121h-40.604a8.12 8.12 0 0 1 8.121 8.121zM446.969 368.019v27.604a8.121 8.121 0 0 1-8.121 8.121h40.604a8.121 8.121 0 0 0 8.121-8.121v-51.787c-10.246 12.158-24.434 20.885-40.604 24.183z" fill="#ffd15b"></path></g><path d="M421.144 131.077a7.504 7.504 0 0 1-5.537-2.44l-15.081-16.505a7.501 7.501 0 0 1 11.075-10.119l9.43 10.321 19.488-22.218a7.5 7.5 0 1 1 11.277 9.891l-25.013 28.516a7.506 7.506 0 0 1-5.562 2.555l-.077-.001zM421.144 204.164a7.504 7.504 0 0 1-5.537-2.44l-15.081-16.505a7.501 7.501 0 0 1 11.075-10.119l9.43 10.321 19.488-22.218a7.5 7.5 0 1 1 11.277 9.891l-25.013 28.516a7.506 7.506 0 0 1-5.562 2.555l-.077-.001z" fill="#0ed290"></path><g fill="#0ed290"><path d="M270.142 105.606h109.63c4.143 0 7.5-3.357 7.5-7.5s-3.357-7.5-7.5-7.5h-109.63c-4.143 0-7.5 3.357-7.5 7.5s3.357 7.5 7.5 7.5zM379.771 119.122h-109.63c-4.143 0-7.5 3.357-7.5 7.5s3.357 7.5 7.5 7.5h109.63c4.143 0 7.5-3.357 7.5-7.5s-3.357-7.5-7.5-7.5zM379.771 163.693h-109.63c-4.143 0-7.5 3.357-7.5 7.5s3.357 7.5 7.5 7.5h109.63c4.143 0 7.5-3.357 7.5-7.5s-3.357-7.5-7.5-7.5zM379.771 192.209h-109.63c-4.143 0-7.5 3.357-7.5 7.5s3.357 7.5 7.5 7.5h109.63c4.143 0 7.5-3.357 7.5-7.5s-3.357-7.5-7.5-7.5zM333.636 236.78h-63.494c-4.143 0-7.5 3.357-7.5 7.5s3.357 7.5 7.5 7.5h63.494c4.143 0 7.5-3.357 7.5-7.5s-3.358-7.5-7.5-7.5zM333.636 265.296h-63.494c-4.143 0-7.5 3.357-7.5 7.5s3.357 7.5 7.5 7.5h63.494c4.143 0 7.5-3.357 7.5-7.5s-3.358-7.5-7.5-7.5zM341.136 317.366c0-4.143-3.357-7.5-7.5-7.5h-45.857c-1.41 0-2.725.396-3.852 1.073a56.688 56.688 0 0 1 4.756 13.927h44.953a7.5 7.5 0 0 0 7.5-7.5zM333.636 353.382c4.143 0 7.5-3.357 7.5-7.5s-3.357-7.5-7.5-7.5h-42.812c-.345 0-.682.031-1.015.077v14.847c.333.045.67.077 1.015.077h42.812z" fill="#0ed290"></path></g><path d="M80.847 425.288v-47.076c0-10.517 8.557-19.073 19.074-19.073h19.165c5.991 0 10.974 4.508 11.345 10.263a10.968 10.968 0 0 1-4.53 9.641 1.99 1.99 0 0 0-.836 1.625c0 .643.313 1.255.84 1.638a11.03 11.03 0 0 1 4.549 8.906c0 .68-.078 1.394-.237 2.184l-.243 1.198h160.849v-58.431c0-32.133-26.049-58.182-58.182-58.182h-4.113c-7.887 7.004-18.258 11.269-29.611 11.269h-17.156c-1.658 11.537-11.604 20.434-23.593 20.434s-21.934-8.896-23.593-20.434H117.42c-11.353 0-21.724-4.266-29.611-11.269h-4.113c-32.133 0-58.182 26.049-58.182 58.182v108.186h74.111c-10.38-.162-18.778-8.643-18.778-19.061z" fill="#fd4755"></path><path d="M250.22 336.161v57.431h40.604v-57.431c0-32.133-26.049-58.182-58.182-58.182h-4.113a44.903 44.903 0 0 1-9.672 6.554c18.632 9.7 31.363 29.171 31.363 51.628z" fill="#fb2b3a"></path><path d="M80.862 425.288v-44.746l-.967-3.287-.048-.058-54.332 67.15v1.015h74.406l-.303-1.03c-10.369-.165-18.756-8.637-18.756-19.044z" fill="#fe646f"></path><path d="M99.921 359.154h9.68l-26.545-45.977a5.076 5.076 0 0 0-6.933-1.858l-13.186 7.613a5.076 5.076 0 0 0-1.858 6.933l23.625 40.92c3.481-4.623 8.997-7.631 15.217-7.631z" fill="#ffe177"></path><path d="m62.942 329.094 8.935-5.159a5.074 5.074 0 0 1 6.933 1.858l19.315 33.454c.592-.056 1.19-.093 1.796-.093h9.68l-26.545-45.977a5.076 5.076 0 0 0-6.933-1.858l-13.186 7.613a5.076 5.076 0 0 0-1.858 6.933z" fill="#ffd15b"></path><path d="M125.898 400.103c-.538.391-.846.99-.846 1.647s.308 1.257.846 1.648a11.015 11.015 0 0 1 4.541 8.892c0 3.507-1.698 6.832-4.542 8.895-.53.385-.847 1-.847 1.649 0 .653.307 1.251.842 1.639a10.95 10.95 0 0 1 4.523 9.626c-.263 4.077-2.868 7.646-6.798 9.314v1.95h203.75v-46.694a5.075 5.075 0 0 0-5.075-5.075H130.165a11.022 11.022 0 0 1-4.267 6.509z" fill="#f3eae6"></path><path d="M125.897 421.184c-.53.385-.847 1-.847 1.649 0 .653.307 1.251.842 1.639a10.95 10.95 0 0 1 4.523 9.626c-.263 4.077-2.868 7.646-6.798 9.314v.935h203.75V418.97H128.144a10.945 10.945 0 0 1-2.247 2.214z" fill="#f9f3f1"></path><path d="M322.291 393.593h-30.453a5.075 5.075 0 0 1 5.075 5.075v46.694h30.453v-46.694a5.074 5.074 0 0 0-5.075-5.075z" fill="#f3eae6"></path><path d="M322.291 393.593h-30.453a5.075 5.075 0 0 1 5.075 5.075v20.302h30.453v-20.302a5.074 5.074 0 0 0-5.075-5.075z" fill="#e1d3ce"></path><path d="M157.514 66.783c-47.649.353-85.762 39.85-85.762 87.5v90.312c0 25.222 20.447 45.669 45.669 45.669h17.312a23.862 23.862 0 0 1-.417-4.421v-21.977c7.552 3.303 15.569 4.977 23.854 4.977 8.286 0 16.304-1.674 23.855-4.978v21.978a23.94 23.94 0 0 1-.417 4.421h17.311c25.222 0 45.669-20.447 45.669-45.669v-91.397c-.001-47.945-39.046-86.771-87.074-86.415z" fill="#a44f3e"></path><g fill="#883f2e"><path d="M227.247 221.225h-10.413c-2.063 9.975-6.613 19.035-12.963 26.523-1.01 14.797-9.071 27.651-20.847 35.245v2.85c0 1.51-.142 2.986-.4 4.421h16.294c25.222 0 45.669-20.447 45.669-45.669v-30.921c-4.327 4.644-10.493 7.551-17.34 7.551zM203.745 146.994c7.929.083 14.333 6.53 14.333 14.479v12.348h9.169c6.847 0 13.013 2.907 17.34 7.551v-28.173c0-47.945-39.045-86.771-87.073-86.415a85.205 85.205 0 0 0-19.547 2.435c35.935 8.699 63.085 39.853 65.778 77.775z" fill="#883f2e"></path></g><path d="M158.169 267.843a58.436 58.436 0 0 1-24.854-5.528v23.528c0 13.727 11.128 24.855 24.855 24.855s24.855-11.128 24.855-24.855v-23.528a58.448 58.448 0 0 1-24.856 5.528z" fill="#f89580"></path><path d="M99.36 209.033v-29.871c0-1.898.403-3.703 1.118-5.34H89.092c-13.09 0-23.702 10.612-23.702 23.702 0 13.09 10.612 23.702 23.702 23.702h11.547a58.76 58.76 0 0 1-1.279-12.193z" fill="#ffb09e"></path><path d="M227.247 173.821h-10.268v35.212c0 4.18-.446 8.257-1.279 12.193h11.547c13.09 0 23.702-10.612 23.702-23.702 0-13.091-10.612-23.703-23.702-23.703z" fill="#f89580"></path><path d="m171.615 151.23-4.626 4.626a30.111 30.111 0 0 1-21.292 8.819h-32.95c-8.001 0-14.486 6.486-14.486 14.486v29.871c0 33.087 26.822 59.909 59.909 59.909s59.909-26.822 59.909-59.909v-47.56c0-8.001-6.486-14.486-14.486-14.486h-21.734a14.489 14.489 0 0 0-10.244 4.244z" fill="#ffcebf"></path><path d="M203.592 146.987h-21.734c-1.489 0-2.953.235-4.348.674 5.864 1.854 10.115 7.335 10.115 13.812v47.56c0 27.825-18.971 51.213-44.683 57.951a60 60 0 0 0 15.226 1.958c33.087 0 59.909-26.822 59.909-59.909v-47.56c.001-8.001-6.485-14.486-14.485-14.486z" fill="#ffb09e"></path><g fill="#ec806b"><path d="M176.57 224.385h-34.117c-4.142 0-7.5 3.357-7.5 7.5s3.358 7.5 7.5 7.5h34.117c4.142 0 7.5-3.357 7.5-7.5s-3.358-7.5-7.5-7.5zM138.204 183.193v-9.429c0-4.143-3.358-7.5-7.5-7.5s-7.5 3.357-7.5 7.5v9.429c0 4.143 3.358 7.5 7.5 7.5s7.5-3.357 7.5-7.5zM188.319 166.265a7.5 7.5 0 0 0-7.5 7.5v9.429c0 4.143 3.358 7.5 7.5 7.5s7.5-3.357 7.5-7.5v-9.429a7.5 7.5 0 0 0-7.5-7.5zM158.793 212.262a7.502 7.502 0 0 0 3.402-14.467 7.504 7.504 0 0 0 4.77-7.707c-.39-4.124-4.053-7.141-8.172-6.761-7.628.721-13.165 6.806-13.165 14.468.001 7.661 5.537 13.746 13.165 14.467z" fill="#ec806b"></path></g><path d="M131.454 391.211c0-3.997-1.955-7.537-4.961-9.716a1.007 1.007 0 0 1-.006-1.643 11.977 11.977 0 0 0 4.941-10.514c-.41-6.37-5.96-11.199-12.343-11.199H99.921c-11.087 0-20.074 8.987-20.074 20.074v47.076c0 11.087 8.987 20.074 20.074 20.074h19.165c6.383 0 11.933-4.829 12.343-11.199a11.98 11.98 0 0 0-4.941-10.514 1.006 1.006 0 0 1 .006-1.643 11.976 11.976 0 0 0 4.961-9.716c0-3.996-1.954-7.535-4.959-9.714a1.01 1.01 0 0 1 0-1.65 11.983 11.983 0 0 0 4.958-9.716z" fill="#ffcebf"></path><path d="M131.454 412.29c0-3.996-1.954-7.535-4.959-9.714a1.01 1.01 0 0 1 0-1.65 11.976 11.976 0 0 0 4.959-9.714c0-3.997-1.955-7.537-4.961-9.716a1.007 1.007 0 0 1-.006-1.643 11.977 11.977 0 0 0 4.941-10.514c-.41-6.37-5.96-11.199-12.343-11.199h-14.882c5.312 4.048 8.742 10.438 8.742 17.631v51.962c0 7.193-3.43 13.583-8.742 17.631h14.881c6.383 0 11.933-4.829 12.343-11.199a11.977 11.977 0 0 0-4.941-10.514 1.006 1.006 0 0 1 .006-1.643 11.983 11.983 0 0 0 4.962-9.718z" fill="#ffb09e"></path><path d="M496.379 474.8H8.121A8.121 8.121 0 0 1 0 466.679v-14.211a8.121 8.121 0 0 1 8.121-8.121H496.38a8.121 8.121 0 0 1 8.121 8.121v14.211a8.123 8.123 0 0 1-8.122 8.121z" fill="#01c0fa"></path><path d="M496.379 444.347h-40.604a8.121 8.121 0 0 1 8.121 8.121v14.211a8.121 8.121 0 0 1-8.121 8.121h40.604a8.121 8.121 0 0 0 8.121-8.121v-14.211a8.121 8.121 0 0 0-8.121-8.121z" fill="#08a9f1"></path><circle cx="432.505" cy="297.478" fill="#c8effe" r="71.995"></circle><path d="M432.505 225.483c-6.293 0-12.395.812-18.213 2.329 30.942 8.067 53.782 36.197 53.782 69.666s-22.84 61.598-53.782 69.666a72.092 72.092 0 0 0 18.213 2.329c39.762 0 71.995-32.233 71.995-71.995s-32.233-71.995-71.995-71.995z" fill="#99e6fc"></path><path d="M432.505 376.974c-43.834 0-79.495-35.661-79.495-79.495s35.661-79.495 79.495-79.495S512 253.645 512 297.479s-35.661 79.495-79.495 79.495zm0-143.991c-35.562 0-64.495 28.933-64.495 64.495s28.933 64.495 64.495 64.495S497 333.041 497 297.479s-28.933-64.496-64.495-64.496z" fill="#62dbfb"></path><path d="M471.775 304.979h-39.271a7.499 7.499 0 0 1-7.5-7.5v-46.906c0-4.143 3.357-7.5 7.5-7.5s7.5 3.357 7.5 7.5v39.406h31.771c4.143 0 7.5 3.357 7.5 7.5s-3.357 7.5-7.5 7.5z" fill="#08a9f1"></path></g></svg>