<svg viewBox="0 0 512 512" xmlns="http://www.w3.org/2000/svg"><g><path d="M355.928 321.417 512 159.163l-8.35 48.022 8.35 28.758V505.82a6.18 6.18 0 0 1-6.181 6.181H119.007l-18.205-4.494 20.597-28.763a20.604 20.604 0 0 1 14.178-7.517l34.083-2.99c9.954-.873 17.847-8.763 18.724-18.718l1.232-13.992 11.048-13.791 34.588-12.557a30.904 30.904 0 0 0 12.636-13.875l23.461-51.123a20.604 20.604 0 0 1 15.484-11.754z" fill="#bc7c63"></path><path d="m384.361 286.802-31.524 31.524-54.97 8.757a.126.126 0 0 1 .01.003l-14.134 2.253a20.6 20.6 0 0 0-15.484 11.755l-23.457 51.117a30.893 30.893 0 0 1-12.64 13.877l-34.593 12.558-11.044 13.794-1.236 13.99c-.876 9.951-8.767 17.843-18.718 18.718l-34.089 2.987a20.625 20.625 0 0 0-14.175 7.52L88.719 512h30.287l17.843-21.922a20.628 20.628 0 0 1 14.175-7.52l34.089-2.987c9.952-.876 17.843-8.767 18.718-18.718l.464-5.213a16.926 16.926 0 0 1 8.406-13.186l38.003-21.943a30.89 30.89 0 0 0 12.64-13.876l23.457-51.117a20.598 20.598 0 0 1 15.484-11.755c.679.016 45.573-7.129 50.172-7.862.257-.041.51-.06.77-.061 57.688-.128 111.788-28.499 144.782-75.944a177.07 177.07 0 0 0 13.99-23.952v-76.779z" fill="#aa6a51"></path><path d="m51.967 196.586 5.153-4.096c12.204-9.701 19.727-18.181 25.816-32.533l23.351 14.237-17.242 36.059z" fill="#fbbd80"></path><path d="m58.227 299.158 42.292-55.916a34.34 34.34 0 0 0-.622-25.066l-7.064-15.808c-.996-1.892-4.444-7.862-11.898-11.226a26.826 26.826 0 0 0-.754-.326c-8.838-1.268-14.587-.179-16.437.376-3.757 1.702-3.644 3.546-7.919 6.815-6.89 5.269-18.47 16.268-24.432 29.365L9.061 281.205l23.579 15.35z" fill="#f5f8f9"></path><path d="M109.797 176.182c-14.835.505-27.557-10.91-30.38-26.311l2.313-1.964c6.016.989 10.801.649 16.714-2.699 8.293-4.698 8.973-12.28 17.183-16.648 4.079-2.163 11.508-.88 19.616.727 1.885 4.049 3.008 8.592 3.183 13.413 1.133 31.689-5.893 32.709-28.629 33.482z" fill="#ffd18d"></path><path d="M135.242 129.288c-8.108-1.607-13.805-.35-17.884 1.813-8.211 4.368-8.89 11.95-17.183 16.648-5.913 3.348-12.63 3.492-18.646 2.503l-2.112-.381a35.053 35.053 0 0 1-.567-5.151c-.639-17.925 12.177-32.925 28.629-33.481 12.022-.402 22.664 7.016 27.763 18.049z" fill="#bc7c63"></path><path d="m174.521 406.992-28.694-30.253c-8.352-8.522-15.122-22.01-18.436-33.473l-2.746-9.496a2.06 2.06 0 0 0-2.535-1.412l-12.69 3.552-23.903 8.336-25.488-42.109 22.168-3.164 45.87-.34a30.894 30.894 0 0 1 25.681 17.291l39.268 80.595-4.546 9.707z" fill="#bbec6c"></path><path d="M166.714 382.475c-14.566-15.613-26.243-34.975-34.239-55.426a10.286 10.286 0 0 0-12.009-6.017 5255.493 5255.493 0 0 0-17.886 4.545 5.155 5.155 0 0 1-5.687-2.322l-14.695-24.281-23.972.181 3.42 31.113 24.952 15.77 20.593-5.769 12.692-3.554a2.069 2.069 0 0 1 2.534 1.411l2.74 9.498a72.177 72.177 0 0 0 17.781 30.452l29.68 30.277 15.854-2.122c.441-.106-21.654-23.444-21.758-23.756z" fill="#afe05a"></path><path d="m53.668 484.195-12.919 4.37-14.575-4.37 16.455-47.322a82.427 82.427 0 0 1 14.612-29.704l10.852-14a2.066 2.066 0 0 0-.429-2.936c-13.857-10.136-26.611-24.811-34.644-40.662a4.078 4.078 0 0 0-1.648-1.731c-3.245-1.81-7.358-4.386-11.405-7.384-10.038-7.434-15.846-19.281-15.845-31.772a39.77 39.77 0 0 1 4.223-17.834l.718-9.645 49.166 17.953 43.576 71.993a30.906 30.906 0 0 1 .132 31.787z" fill="#bbec6c"></path><path d="M88.718 504.791V512H45.905l-8.105-1.659c-5.687 0-10.298-4.611-10.298-10.298l.714-15.107 17.719-.741h22.186c11.376 0 20.597 9.222 20.597 20.596zM237.086 394.922a7.208 7.208 0 0 1-2.639 9.847l-36.18 20.889-10.306 3.706-12.164-21.01 8.566-6.775 24.588-14.196c9.851-5.687 22.447-2.312 28.135 7.539z" fill="#827e7c"></path><path d="m198.269 425.66-11.744 6.779-13.897-24.085 11.733-6.779z" fill="#726d6a"></path><path d="M512 159.163c0 33.722-10.484 64.997-28.375 90.736 0 0-5.243 5.761-7.776 8.875-29.184 35.879-70.826 50.03-120.68 50.03-87.903 0-156.831-61.738-156.831-149.641 0-39.033 11.725-74.168 35.045-101.856 5.15-6.114 14.416-17.728 14.416-17.728C275.827 14.941 312.587 0 352.837 0 440.74 0 512 71.26 512 159.163z" fill="#827e7c"></path><path d="M483.625 249.899c-28.752 41.351-76.611 68.427-130.788 68.427-87.905 0-159.163-71.258-159.163-159.163 0-47.656 20.943-90.42 54.125-119.584-17.884 25.744-28.371 57.021-28.371 90.739 0 87.905 71.258 159.163 159.163 159.163 40.25 0 77.014-14.94 105.034-39.582z" fill="#726d6a"></path><path d="m212.146 197.413.008.002-1.411-42.281a2.919 2.919 0 0 0-3.029-2.82c-13.795.526-24.546 12.146-24 25.94l.561 14.167-40.242 32.175a3.095 3.095 0 0 1-2.516.621l-57.539-11.106c-8.904-1.532-17.334 4.349-18.847 13.239-1.514 8.89 4.603 16.62 13.507 18.152l62.795 11.128a21.243 21.243 0 0 0 18.037-5.224l48.363-42.879c3.099-2.83 4.71-6.961 4.313-11.114z" fill="#ffd18d"></path><path d="M80.181 190.817c-3.626 1.813-7.687 4.196-11.756 7.472-7.036 5.666-15.628 14.783-21.86 28.649l-21.84 59.987-12.159 4.299-3.5-10.016 20.758-57.031c5.954-13.104 14.34-21.644 21.232-26.908 4.275-3.276 8.53-5.563 12.28-7.273 1.854-.546 8.933-2.445 16.845.821z" fill="#e8edf2"></path><path d="m84.578 389.048-10.858 14a82.377 82.377 0 0 0-14.608 29.7l-13.176 51.447-8.986 5.278-10.773-5.278 12.331-47.326a82.377 82.377 0 0 1 14.608-29.7l10.858-14a2.066 2.066 0 0 0-.433-2.936c-13.856-10.137-26.609-24.807-34.645-40.661a4.054 4.054 0 0 0-1.648-1.731c-3.245-1.813-7.355-4.388-11.404-7.386C5.81 333.027 0 321.18 0 308.684c0-3.091.361-6.171 1.071-9.169a39.345 39.345 0 0 1 3.152-8.664l4.842-9.643 15.669 5.718a38.729 38.729 0 0 0-3.06 8.468 39.753 39.753 0 0 0-1.071 9.169c0 12.496 5.81 24.343 15.844 31.771 4.049 2.998 8.159 5.573 11.404 7.386.721.402 1.277 1 1.648 1.731 8.035 15.854 20.789 30.524 34.645 40.661a2.065 2.065 0 0 1 .434 2.936z" fill="#afe05a"></path><path d="M45.905 484.195V512h-9.437c-5.687 0-10.292-4.615-10.292-10.302v-17.503z" fill="#726d6a"></path></g></svg>