<svg clip-rule="evenodd" fill-rule="evenodd" height="512" image-rendering="optimizeQuality" shape-rendering="geometricPrecision" text-rendering="geometricPrecision" viewBox="0 0 2.83333 2.83333" width="512" xmlns="http://www.w3.org/2000/svg"><g id="Layer_x0020_1"><circle cx="1.417" cy="1.417" fill="#4f5d73" r="1.417"/><g id="_36956088"><path id="_36956880" d="m1.01422 1.58632c-.00557087 0-.0108858-.00233465-.0146811-.00642913l-.189031-.204303c-.00341732-.00369685-.00531496-.00853937-.00531496-.0135866v-.634799c0-.0110394.00895669-.02.0199961-.02h.375283c.0110394 0 .02.00896063.02.02v.634799c0 .00498819-.00186614.00979134-.00522441.0134724l-.18624.204307-.0147874.00653937z" fill="#e4dfe3"/><path id="_36957264" d="m.805197.773866v-.0466614c0-.0110394.00895669-.02.0199961-.02h.375283c.0110394 0 .02.00896063.02.02v.0466614h-.41528z" fill="#d5d0d4"/><g fill="#efecef"><path id="_36957120" d="m.805197.936732v-.040874c.129602.0250512.308969.0603071.41528.0817283v.0406378z"/><path id="_36957288" d="m.805197 1.11474v-.040878c.129606.0250512.308965.0603031.41528.0817323v.0406417l-.41528-.0814961z"/><path id="_36956904" d="m.805197 1.29275v-.0408701c.129535.0250394.308906.0602874.41528.0817126v.0284094c0 .00414567-.00129134.00816535-.00365354.0115197l-.411626-.0807717z"/></g><path id="_36956280" d="m1.30643.747201h-.587189c-.0110354 0-.0199961-.00895669-.0199961-.0199961v-.143827c0-.0110394.00896063-.02.0199961-.02h.587177c.0110394 0 .02.00896063.02.02v.143815c.00001181.0110551-.00894488.0200079-.0199882.0200079z" fill="#efecef"/><path id="_36956208" d="m1.16557 2.26485h-.305512c-.00715354 0-.013748-.00380709-.017315-.0100157l-.167909-.290803c-.00356693-.00617717-.00356693-.0138071 0-.0199843l.165437-.286539c.00356693-.00619685.0101654-.0100157.017315-.0100157l.310472.00000394c.00715354 0 .013748.00380709.017315.0100157l.165437.286539c.00357087.0061811.00357087.0138071 0 .0199843l-.167909.290803c-.00357874.00620472-.0101772.0100118-.0173307.0100118zm-.152752-.142146c-.0918268 0-.166531-.0747047-.166531-.16652 0-.0918189.0747047-.166535.166531-.166535.0918268 0 .166531.0747205.166531.166535 0 .091811-.0747047.16652-.166531.16652z" fill="#e4dfe3"/><path id="_36956352" d="m1.99666 2.26996c-.0109213 0-.02-.00887008-.02-.0199961v-.276949h-.341276v.276933c0 .0160669-.0181693.0255827-.031374.0164291-.211933-.147008-.19898-.454969.00844882-.590122l-.00000787-.519165c-.207512-.13526-.220295-.443236-.00842913-.59015.0132008-.00915354.031374.00038976.031374.0164409v.276949h.341248v-.276949c0-.0160709.0181811-.0255787.031374-.0164409.211689.146673.199252.45478-.00844882.590165v.519154c.207898.135543.219921.443787.00846457.59015-.00340945.00235827-.00737795.00355118-.011374.00355118z" fill="#e4dfe3"/><path id="_36956112" d="m1.61246 1.56801-.00000394-.04h.387114v.04h-.38711zm-.00000394-.262697-.00000394-.0399961h.387118v.0399961h-.387114z" fill="#efecef"/></g></g></svg>