<svg fill-rule="evenodd" viewBox="0 0 1707 1707" xmlns="http://www.w3.org/2000/svg"><g><path d="M904 1154H803c-39 0-71-31-71-70v-51c0-11 9-20 20-20h202c12 0 20 9 20 20v51c1 39-31 70-70 70z" fill="#707487"></path><path d="M732 1080v-47c0-11 9-20 20-20h202c12 0 20 9 20 20v47z" fill="#65687a"></path><path d="M1215 1039c-4 0-8-2-12-4l-182-128c-6-5-10-14-8-21 20-82 30-169 30-258v-5c0-8 4-15 11-18 6-4 14-3 21 1l151 107c6 4 9 10 9 16v290c0 7-5 14-11 17-3 2-6 3-9 3z" fill="#ff6464"></path><path d="m1068 940-47-33c-6-5-10-14-8-21 20-82 30-169 30-258v-5c0-8 4-15 11-18 6-4 14-3 21 1l35 25c0 103-14 208-42 309z" fill="#e65a5a"></path><path d="M492 1039c-3 0-6-1-9-3-7-3-11-10-11-17V730c0-7 3-13 8-17l152-107c6-4 14-5 21-1 6 3 11 10 11 18v5c0 89 10 176 29 258 2 7-1 16-8 21l-181 128c-4 2-8 4-12 4z" fill="#ff6464"></path><path d="m597 631 35-25c6-4 14-5 21-1 6 3 11 10 11 18v5c0 89 10 176 29 258 2 7-1 16-8 21l-47 33c-28-101-41-206-41-309z" fill="#e65a5a"></path><path d="M986 1053H721c-8 0-16-5-19-12-51-121-78-264-78-413 0-254 82-492 215-621 8-8 20-8 28 0 133 129 216 367 216 621 0 149-27 292-78 413-4 7-11 12-19 12z" fill="#e4eaf6"></path><path d="M696 232c36-91 85-169 143-225 8-8 20-8 28 0 59 56 107 134 144 225-48 28-102 43-158 43-55 0-109-15-157-43z" fill="#cdd3dd"></path><path d="M674 966c-4-13-8-26-12-40h382c-4 14-8 27-12 40z" fill="#707487"></path><path d="M701 220c36-86 83-159 138-213 8-8 20-8 28 0 56 54 103 127 139 213-46 27-99 42-153 42s-106-15-152-42z" fill="#ff6464"></path><path d="M853 572c-74 0-135-61-135-136 0-74 61-135 135-135 75 0 136 61 136 135 0 75-61 136-136 136z" fill="#d0d5e0"></path><path d="M853 562c-69 0-125-57-125-126s56-125 125-125 126 56 126 125-57 126-126 126z" fill="#38a0ea"></path><g fill="#5bb0eb"><path d="M748 504c-7-11-13-23-16-37l152-152c14 3 26 9 37 16zM823 558c-22-6-41-17-57-32l177-177c15 16 26 35 32 57z" fill="#5bb0eb"></path></g><g fill="#fdad0e"><path d="M955 1383c-12 0-20-9-20-20v-148c0-11 8-20 20-20 11 0 20 9 20 20v148c0 11-9 20-20 20zM752 1383c-11 0-20-9-20-20v-148c0-11 9-20 20-20s20 9 20 20v148c0 11-9 20-20 20zM853 1383c-11 0-20-9-20-20v-148c0-11 9-20 20-20s20 9 20 20v148c0 11-9 20-20 20z" fill="#fdad0e"></path></g><path d="M1315 1705c-61 0-119-29-156-77-24 20-53 31-85 31-15 0-29-2-43-7-19 16-43 26-69 26-14 0-29-4-42-10-20 14-44 20-67 19-23 1-47-5-66-19-13 6-28 10-43 10-25 0-49-10-68-26-14 5-28 7-43 7-32 0-62-11-85-31-37 48-95 77-157 77-24 0-48-4-71-13-13 3-27 4-40 4-108 0-196-88-196-196 0-11 0-22 2-33-53-36-86-97-86-162 0-109 88-197 196-197 109 0 197 88 197 197v8c42 0 83 14 116 39 17-8 36-12 55-12 46 0 89 24 112 64 33 11 60 35 75 67 19 1 37 7 52 18 16-7 33-10 50-9 17-1 35 2 50 9 16-11 34-17 52-18 15-32 42-56 75-67 24-40 66-64 113-64 19 0 37 4 55 12 33-25 74-39 116-39v-8c0-109 88-197 196-197 109 0 197 88 197 197 0 65-33 126-87 162 2 11 3 22 3 33 0 108-88 196-196 196-14 0-27-1-40-4-23 9-47 13-72 13z" fill="#fdc00f"></path></g></svg>