<svg viewBox="0 0 512 512" xmlns="http://www.w3.org/2000/svg"><g><path d="M496.502 454.893H58.321V15.498C58.321 6.939 51.382 0 42.823 0S27.325 6.939 27.325 15.498v439.395H15.498C6.939 454.893 0 461.831 0 470.39s6.939 15.498 15.498 15.498h11.828v10.614c0 8.559 6.939 15.498 15.498 15.498s15.498-6.939 15.498-15.498v-10.614h438.182c8.559 0 15.498-6.939 15.498-15.498-.002-8.559-6.941-15.497-15.5-15.497z" fill="#665e66"></path><path d="m493.339 100.194-76.374 21.259c-10.463 2.912-13.849 16.06-6.095 23.664l11.314 11.095-86.266 87.97L193.763 65.485c-4.802-6.036-13.562-7.097-19.665-2.381l-85.941 66.395c-6.166 4.763-7.303 13.623-2.539 19.789l11.851 15.34c4.763 6.166 13.623 7.303 19.789 2.539l59.811-46.208 145.19 182.511c5.279 6.636 15.176 7.149 21.113 1.095L456.17 189.539l11.31 11.091c7.754 7.604 20.832 3.962 23.54-6.555l19.765-76.772c2.707-10.517-6.984-20.021-17.446-17.109z" fill="#78d090"></path><g fill="#dae4ea"><path d="M104.598 436.304a7.726 7.726 0 0 1-7.726-7.726V202.476a7.726 7.726 0 1 1 15.452 0v226.101a7.726 7.726 0 0 1-7.726 7.727zM184.339 436.304a7.726 7.726 0 0 1-7.726-7.726V176.11a7.726 7.726 0 1 1 15.452 0v252.467a7.726 7.726 0 0 1-7.726 7.727zM264.079 436.304a7.726 7.726 0 0 1-7.726-7.726V281.955a7.726 7.726 0 1 1 15.452 0v146.623a7.725 7.725 0 0 1-7.726 7.726zM343.82 436.304a7.726 7.726 0 0 1-7.726-7.726v-90.44a7.726 7.726 0 1 1 15.452 0v90.44a7.726 7.726 0 0 1-7.726 7.726zM423.56 436.304a7.726 7.726 0 0 1-7.726-7.726V269.622a7.726 7.726 0 1 1 15.452 0v158.956a7.725 7.725 0 0 1-7.726 7.726z" fill="#dae4ea"></path></g></g></svg>