<svg viewBox="0 0 512 512" xmlns="http://www.w3.org/2000/svg"><g><path d="m346.244 107.43-5.634-2.15-29.6-29.262-2.001-5.766a20.171 20.171 0 0 0-7.906-1.622h-90.206c-2.745 0-5.429.567-7.906 1.622l-1.164 5.089-31.038 30.7-5.032 1.389a20.18 20.18 0 0 0-1.673 8.014v46.58c.116-.001.231-.013.348-.013h183.135c.118 0 .233.012.351.013v-46.581a20.197 20.197 0 0 0-1.674-8.013z" fill="#ff8086"></path><path d="m202.99 70.252-1.164 5.089-31.038 30.7-5.032 1.389a20.18 20.18 0 0 0-1.673 8.014v46.58c.116-.001.231-.013.348-.013h52.981v-44.043l39.604-49.339h-46.118a20.2 20.2 0 0 0-7.908 1.623z" fill="#e5646e"></path><path d="M216.396 117.969h79.207v44.043h-79.207z" fill="#ff9a9f"></path><path d="M216.396 117.969 202.99 70.252a20.162 20.162 0 0 0-6.368 4.291l-26.626 26.626a20.167 20.167 0 0 0-4.24 6.261z" fill="#ff8086"></path><path d="m309.009 70.252-13.406 47.717 50.64-10.539a20.161 20.161 0 0 0-4.24-6.261l-26.626-26.626a20.162 20.162 0 0 0-6.368-4.291z" fill="#ff9a9f"></path><path d="M351.812 73.94a7.612 7.612 0 0 1 6.175-8.817l22.641-3.989a7.611 7.611 0 1 1 2.642 14.992l-22.641 3.989a7.61 7.61 0 0 1-8.817-6.175zM333.471 45.144a7.611 7.611 0 0 1-1.868-10.601l13.189-18.831c2.411-3.444 7.158-4.279 10.601-1.868s4.28 7.158 1.868 10.601l-13.189 18.831a7.612 7.612 0 0 1-10.601 1.868zM291.324 31.575l-3.99-22.642a7.612 7.612 0 0 1 14.992-2.642l3.99 22.642a7.612 7.612 0 0 1-14.992 2.642z" fill="#ffe07d"></path><path d="m390.581 205.069-6.162-1.685L338.467 234v4.77c29.148 23.881 47.751 60.154 47.751 100.775 0 71.917-58.301 130.218-130.218 130.218s-130.218-58.301-130.218-130.218c0-40.621 18.603-76.895 47.751-100.775l-1.053-4.94-44.654-28.763h-6.41L92.412 268.48C45.896 385.218 131.9 514.547 259.849 511.962c123.338-2.5 205.4-128.882 159.736-243.482z" fill="#fff0af"></path><path d="M108.882 338.869c0-44.957 20.794-85.702 44.344-117.441l-25.4-16.361h-6.41L92.412 268.48C45.896 385.218 131.9 514.547 259.849 511.962a178.928 178.928 0 0 0 23.533-2.037c-76.661-3.03-174.5-71.56-174.5-171.056z" fill="#ffe07d"></path><path d="M347.566 155.923H164.431a31.974 31.974 0 0 0-29.078 18.675l-13.936 30.469 52.116 33.703c22.457-18.399 51.171-29.443 82.467-29.443s60.011 11.044 82.467 29.443l52.114-33.701-13.937-30.471a31.974 31.974 0 0 0-29.078-18.675z" fill="#ffe07d"></path><path d="m135.353 174.598-13.936 30.469 29.713 19.215c26.251-36.249 56.653-61.305 65.662-68.359h-52.361a31.974 31.974 0 0 0-29.078 18.675z" fill="#ffd064"></path></g></svg>