<svg viewBox="0 0 512 512" xmlns="http://www.w3.org/2000/svg"><g><path d="M103.956 182.2v147.6l14.096 6.974h386.974A6.974 6.974 0 0 0 512 329.8V182.2a6.974 6.974 0 0 0-6.974-6.974H113.541z" fill="#ecbe6b"></path><path d="M255.796 205.505a7.472 7.472 0 0 1-7.472-7.472v-22.805h14.944v22.805a7.47 7.47 0 0 1-7.472 7.472zM382.449 205.505a7.472 7.472 0 0 1-7.472-7.472v-22.805h14.944v22.805a7.472 7.472 0 0 1-7.472 7.472zM191.91 271.094a7.472 7.472 0 0 1-7.472-7.472v-88.393h14.944v88.393a7.473 7.473 0 0 1-7.472 7.472zM318.563 271.094a7.472 7.472 0 0 1-7.472-7.472v-88.393h14.944v88.393a7.473 7.473 0 0 1-7.472 7.472zM445.215 271.094a7.472 7.472 0 0 1-7.472-7.472v-88.393h14.944v88.393a7.472 7.472 0 0 1-7.472 7.472z" fill="#f88604"></path><path d="M260.728 304.491a7.472 7.472 0 0 1-7.472-7.472v-43.917h-3.512c-4.127 0-7.472-3.345-7.472-7.472s3.345-7.472 7.472-7.472h10.984a7.472 7.472 0 0 1 7.472 7.472v51.389a7.472 7.472 0 0 1-7.472 7.472z" fill="#475959"></path><path d="M0 182.203v147.594a6.974 6.974 0 0 0 6.974 6.974h111.078c3.745-5.334 5.995-11.746 6.18-18.622.22-8.615-2.737-16.523-7.78-22.645a5.843 5.843 0 0 1-.661-6.389c5.264-10.215 8.453-21.949 8.453-30.565 0-8.65-3.212-20.175-8.499-30.147-1.113-2.11-.87-4.673.649-6.505a34.073 34.073 0 0 0 7.85-21.81c0-9.798-4.116-18.633-10.702-24.86H6.974A6.976 6.976 0 0 0 0 182.203zm43.046 52.395c0-7.564 6.132-13.697 13.697-13.697s13.697 6.132 13.697 13.697v42.804c0 7.564-6.132 13.697-13.697 13.697s-13.697-6.132-13.697-13.697z" fill="#efecef"></path><path d="M505.026 175.226h-20.495V302.33a6.974 6.974 0 0 1-6.974 6.974h-373.6V329.8l14.096 6.974h386.974a6.974 6.974 0 0 0 6.974-6.974V182.2a6.976 6.976 0 0 0-6.975-6.974z" fill="#eab14d"></path><path d="M124.243 258.551c0-8.65-3.212-20.175-8.499-30.147-1.113-2.11-.87-4.673.649-6.505a34.073 34.073 0 0 0 7.85-21.81c0-9.798-4.116-18.633-10.702-24.86H96.669a34.056 34.056 0 0 1-7.745 19.201c-1.519 1.832-1.762 4.395-.649 6.505 5.287 9.972 8.499 21.497 8.499 30.147 0 8.615-3.189 20.349-8.453 30.565a5.843 5.843 0 0 0 .661 6.389c5.044 6.122 8.001 14.03 7.78 22.645a33.824 33.824 0 0 1-1.341 8.57c-1.756 6.017-7.418 10.051-13.686 10.051H0v20.495a6.974 6.974 0 0 0 6.974 6.974h111.078c3.745-5.334 5.995-11.746 6.18-18.621.22-8.615-2.737-16.523-7.78-22.645a5.843 5.843 0 0 1-.661-6.389c5.264-10.216 8.452-21.95 8.452-30.565z" fill="#e2dfe2"></path><path d="M383.964 266.886c-8.12 11.602-12.964 17.945-15.566 21.352-3.355 4.394-5.203 6.813-3.961 10.853.731 2.376 2.597 4.271 4.993 5.07.994.332 1.788.597 11.936.597 3.958 0 9.34-.04 16.709-.133a7.473 7.473 0 0 0 7.378-7.566c-.052-4.126-3.425-7.445-7.566-7.377-3.982.05-8.164.087-11.956.105a697.657 697.657 0 0 0 10.277-14.332c4.216-6.27 6.679-11.081 7.068-17.429 0-11.371-9.251-20.621-20.622-20.621-9.832 0-18.342 6.994-20.235 16.632a7.472 7.472 0 0 0 14.664 2.88c.52-2.646 2.863-4.568 5.571-4.568a5.686 5.686 0 0 1 5.665 5.3c-.401 2.769-1.335 4.683-4.355 9.237z" fill="#475959"></path></g></svg>