<svg viewBox="0 0 496.003 496.003" xmlns="http://www.w3.org/2000/svg"><g><path d="M399.001 496.003h-302v-64.501c0-27.875 18.919-52.206 45.963-59.112 6.572-.885 91.099-30.379 199.524-2.694l10.55 2.694c27.044 6.905 45.963 31.236 45.963 59.112z" fill="#ffc449"></path><path d="m353.039 372.39-10.55-2.694c-108.492-27.702-192.664 1.77-199.524 2.694-27.044 6.905-45.963 31.236-45.963 59.112v16.085c0-27.875 18.919-52.206 45.963-59.112l10.55-2.694c108.492-27.702 192.664 1.77 199.524 2.694 27.044 6.905 45.963 31.236 45.963 59.112v-16.085c0-27.876-18.919-52.207-45.963-59.112z" fill="#ffe297"></path><path d="M161.385 452.664a8 8 0 0 0-8 8v35.339h16v-35.339a8 8 0 0 0-8-8zM334.618 452.664a8 8 0 0 0-8 8v35.339h16v-35.339a8 8 0 0 0-8-8z" fill="#ff8d49"></path><path d="M173.035 308.012a8 8 0 0 0-14.281 7.215l2.091 4.139-25.199-2.487c-4.373-.435-8.313 2.778-8.746 7.176a7.999 7.999 0 0 0 7.176 8.747l25.192 2.486-2.86 3.648a8 8 0 0 0 1.36 11.232c3.495 2.741 8.521 2.097 11.231-1.36l11.85-15.115a8.001 8.001 0 0 0 .845-8.543zM369.104 324.055c-.434-4.397-4.36-7.609-8.746-7.176l-25.199 2.487 2.091-4.139a8 8 0 0 0-14.281-7.215l-8.658 17.138a8 8 0 0 0 .845 8.543l11.85 15.115a7.986 7.986 0 0 0 6.302 3.064c6.583 0 10.433-7.651 6.29-12.937l-2.86-3.648 25.192-2.486a7.997 7.997 0 0 0 7.174-8.746z" fill="#ed725f"></path><path d="m184.522 363.146 33.379 132.857h60.201l33.379-132.857a381.935 381.935 0 0 0-126.959 0z" fill="#71ddff"></path><path d="M281.117 275.126h-66.23s10.61 29.86 1.838 98.656c-3.155 24.746 31.81 36.778 53.496 21.012.081-.103 10.801-7.343 9.058-21.012-8.773-68.796 1.838-98.656 1.838-98.656z" fill="#eca298"></path><path d="M214.886 275.126s6.63 18.67 5.072 60.482a69.849 69.849 0 0 0 17.54 2.249c21.406 0 27.634.581 38.545-2.249-1.557-41.812 5.072-60.482 5.072-60.482z" fill="#d88e98"></path><path d="M349.186 108.404v97.811c0 38.314-17.98 74.413-48.578 97.528a69.85 69.85 0 0 1-42.105 14.113c-22.635 0-41.574 2.157-63.109-14.113-30.56-23.088-48.578-59.168-48.578-97.528v-97.811c0-26.882 16.631-50.969 41.791-60.527 37.117-14.101 79.403-14.962 118.787 0 25.131 9.547 41.792 33.613 41.792 60.527z" fill="#eca298"></path><path d="M199.425 27.711c71.207-62.469 169.322-11.152 169.322 73.094v113.338c0 8.944-7.145 16.255-16.099 16.474l-2.397.058c-9.269.226-16.904-7.215-16.904-16.474V100.474s-70.273 57.737-146.736-2.258c-2.597 27.902-23.742 46.126-23.742 46.126v68.017c0 9.101-7.388 16.479-16.501 16.479-8.943 0-16.309-7.134-16.498-16.134L127.255 88c6.39-81.276 72.17-60.289 72.17-60.289z" fill="#786e80"></path><path d="M199.426 27.711s-65.78-20.987-72.17 60.29l.34 16.218c8.075-76.92 71.83-56.58 71.83-56.58 18.482-16.214 37.976-24.399 56.902-26.876 4.853-.635 7.835-8.031 14.756-6.829 9.802 1.702 15.682 7.569 16.697 7.764 46.324 8.898 80.967 50.314 80.967 99.036v-19.928c0-84.143-98.038-135.632-169.322-73.095z" fill="#9e91a8"></path><g fill="#804e5f"><path d="M190.022 184.014c-7.66 0-10.899-9.748-4.861-14.358.921-.703 22.813-17.091 45.022-5.29a8 8 0 0 1-7.505 14.13c-5.411-2.875-11.667-3.136-18.601-.773-8.61 2.931-9.549 6.291-14.055 6.291zM212.292 201.733c-9.48 0-11.115-13.791-1.561-15.85 4.423-.859 8.573 2.044 9.4 6.28 1.002 4.721-2.645 9.57-7.839 9.57zM301.157 182.391c-.331-.246-14.836-10.798-27.831-3.896a7.999 7.999 0 0 1-10.817-3.312 7.999 7.999 0 0 1 3.312-10.818c22.209-11.8 44.101 4.586 45.022 5.29a7.999 7.999 0 0 1 1.503 11.213 8 8 0 0 1-11.189 1.523zM275.872 195.293c-1.169-5.508 3.816-10.539 9.399-9.4 7.647 1.499 8.882 12.144 1.5 15.22-4.702 1.963-9.946-.94-10.899-5.82zM248.227 279.273c-11.326 0-18.416-5.357-20.084-6.068a8 8 0 0 1 7.715-14.018c1.117.344 10.471 7.856 21.731 1.655l3.008-1.655a8.001 8.001 0 0 1 7.715 14.018c-1.681.717-8.754 6.068-20.085 6.068z" fill="#804e5f"></path></g><path d="M134.468 196.719h4.983v-53.156h-4.983c-14.699 0-26.615 11.899-26.615 26.578 0 14.691 11.928 26.578 26.615 26.578zM362.68 143.563h-4.983v53.156h4.983c14.699 0 26.615-11.899 26.615-26.578-.001-14.691-11.929-26.578-26.615-26.578z" fill="#eca298"></path><path d="M274.914 23.276c0 3.904-7.717 3.903-7.717 0 0-3.904 7.717-3.904 7.717 0z" fill="#9e91a8"></path></g></svg>