<svg id="Capa_1" enable-background="new 0 0 512.003 512.003" height="512" viewBox="0 0 512.003 512.003" width="512" xmlns="http://www.w3.org/2000/svg"><path d="m481.024 171c0 44.6-7.97 88.99-23.68 131.06l-28.11-10.5c14.46-38.7 21.79-79.56 21.79-120.56 0-42.8-10.63-85.04-30.73-122.99l26.51-14.05c22.39 42.27 34.22 89.36 34.22 137.04z" fill="#76e2f8"/><path d="m421.024 171c0 30.33-4.44 60.99-13.21 90.24l-28.74-8.61c7.93-26.46 11.95-54.22 11.95-81.63 0-29.86-6.36-58.32-18.9-85.48l27.23-12.58c14.38 31.13 21.67 63.82 21.67 98.06z" fill="#76e2f8"/><path d="m196.024 0c-62.53 0-165 51.03-165 165 0 40.94 15.11 80.3 42.6 110.89 8 8.8 13.23 25.29.81 35.96-19.78 17.01-33.52 39.07-39.73 63.8-16.54 65.85 23.29 134.05 93.82 136.27 30.86.97 51.63-6.65 67.5-20.55 15.73-13.75 26.65-33.65 37.81-57.45 6.93-14.79 14.1-30.07 24.03-42.49 4.79-6.02 9.61-11.99 14.28-17.76 45.71-56.59 88.88-110.05 88.88-202.37 0-70.58-52.22-171.3-165-171.3z" fill="#ffcebf"/><path d="m361.024 171.3c0 92.32-43.17 145.78-88.88 202.37-4.67 5.77-9.49 11.74-14.28 17.76-9.93 12.42-17.1 27.7-24.03 42.49-11.16 23.8-22.08 43.7-37.81 57.45v-491.37c112.78 0 165 100.72 165 171.3z" fill="#ffbfab"/><path d="m232.894 324.37-23.43-18.74c59.79-74.75 78-141.28 49.97-182.52-13.72-20.19-38.07-32.15-63.41-32.76-8.78-.21-17.68.94-26.3 3.58-8.05 2.47-15.19 6.06-21.37 10.63 20.3 11.02 36.73 27.53 47.67 47.29 9.63 17.39 15 37.29 15 58.15 0 17.99-3.89 35.3-11.55 51.44l-3.45-1.64-23.65-11.24c5.74-12.08 8.65-25.06 8.65-38.56 0-35.43-20.63-67.13-52.23-81.71-5.06 10.48-7.75 22.8-7.77 36.59 0 9.35 1.69 18.48 5.01 27.09l-28 10.79c-4.65-12.07-7.01-24.82-7.01-37.91.08-48.96 26.2-86.19 69.9-99.6 11.35-3.48 23.24-5.08 35.1-4.86 34.23.64 68.23 16.44 88.23 45.86 44.85 66-1.09 155.25-51.36 218.12z" fill="#ffbfab"/><path d="m211.024 210c0 17.99-3.89 35.3-11.55 51.44l-3.45-1.64v-107.95c9.63 17.39 15 37.29 15 58.15z" fill="#ffa78f"/><path d="m232.894 324.37-23.43-18.74c59.79-74.75 78-141.28 49.97-182.52-13.72-20.19-38.07-32.15-63.41-32.76v-29.96c34.23.64 68.23 16.44 88.23 45.86 44.85 66-1.09 155.25-51.36 218.12z" fill="#ffa78f"/><g fill="#4bb9ec"><path d="m391.024 171h30c0 30.33-4.44 60.99-13.21 90.24l-28.74-8.61c7.93-26.46 11.95-54.22 11.95-81.63z"/><path d="m481.024 171c0 44.6-7.97 88.99-23.68 131.06l-28.11-10.5c14.46-38.7 21.79-79.56 21.79-120.56z"/></g></svg>