<svg viewBox="0 0 60 60" xmlns="http://www.w3.org/2000/svg"><g><path d="M28.68 10.92a26.014 26.014 0 0 0-2.84-7.209.987.987 0 0 1 .28-1.29L27.75 1.2a1 1 0 0 1 1.46.29 20.438 20.438 0 0 1 2.77 9.329L32 12h-3z" fill="#664333"></path><path d="M14 51c4.97 0 7-3 7-7s-3-6-3-10 3-6 3-10-2.03-7-7-7c0 0 16-3 32 0-4.97 0-7 3-7 7s3 6 3 10-3 6-3 10 2.03 7 7 7a53.637 53.637 0 0 1-32 0z" fill="#f2e4ac"></path><ellipse cx="24" cy="34" fill="#7c533d" rx="2" ry="3"></ellipse><ellipse cx="36" cy="34" fill="#7c533d" rx="2" ry="3"></ellipse><path d="M29 18h2v32h-2z" fill="#e0d299"></path><g fill="#e52c50"><path d="M50.95 51.16A11.106 11.106 0 0 1 40 59c-5 0-6-2-10-2s-5 2-10 2a11.106 11.106 0 0 1-10.95-7.84.849.849 0 0 1 1.09-1.09A9.075 9.075 0 0 0 14 51c8 0 10-3 16-3s8 3 16 3a9.075 9.075 0 0 0 3.86-.93.849.849 0 0 1 1.09 1.09zM49.86 17.93A9.075 9.075 0 0 0 46 17c-8 0-10 3-16 3s-8-3-16-3a9.075 9.075 0 0 0-3.86.93.849.849 0 0 1-1.09-1.09A11.106 11.106 0 0 1 20 9c5 0 6 2 10 2s5-2 10-2a11.106 11.106 0 0 1 10.95 7.84.849.849 0 0 1-1.09 1.09z" fill="#e52c50"></path></g></g></svg>