<svg viewBox="0 0 64 64" xmlns="http://www.w3.org/2000/svg"><g><circle cx="32" cy="22" fill="#00a0c8" r="14"></circle><circle cx="32" cy="23" fill="#0082aa" r="10"></circle><circle cx="32" cy="22" fill="#c80a50" r="10"></circle><circle cx="28" cy="20" fill="#82000a" r="2"></circle><circle cx="36" cy="20" fill="#82000a" r="2"></circle><path d="M36 28a.997.997 0 0 1-.707-.293c-2.277-2.277-4.309-2.277-6.586 0a.999.999 0 1 1-1.414-1.414c3.043-3.043 6.371-3.043 9.414 0A.999.999 0 0 1 36 28z" fill="#82000a"></path><path d="M56 36H36.414l-3.707-3.707a.999.999 0 0 0-1.414 0L27.586 36H8c-2.206 0-4 1.794-4 4v12c0 2.206 1.794 4 4 4h48c2.206 0 4-1.794 4-4V40c0-2.206-1.794-4-4-4z" fill="#0a5078"></path><path d="M20.948 44.738a1 1 0 0 0-.797-.671l-2.236-.342-1.009-2.15a1.001 1.001 0 0 0-1.811 0l-1.009 2.15-2.236.342a1.001 1.001 0 0 0-.565 1.687l1.647 1.688-.391 2.396a1 1 0 0 0 1.471 1.037L16 49.776l1.988 1.099a1.002 1.002 0 0 0 1.471-1.037l-.391-2.396 1.647-1.688a.997.997 0 0 0 .233-1.016zM36.948 43.738a1 1 0 0 0-.797-.671l-2.236-.342-1.009-2.15a1.001 1.001 0 0 0-1.811 0l-1.009 2.15-2.236.342a1.001 1.001 0 0 0-.565 1.687l1.647 1.688-.391 2.396a1 1 0 0 0 1.471 1.037L32 48.776l1.988 1.099a1.002 1.002 0 0 0 1.471-1.037l-.391-2.396 1.647-1.688a.997.997 0 0 0 .233-1.016z" fill="#00325a"></path><path d="M20.948 43.738a1 1 0 0 0-.797-.671l-2.236-.342-1.009-2.15a1.001 1.001 0 0 0-1.811 0l-1.009 2.15-2.236.342a1.001 1.001 0 0 0-.565 1.687l1.647 1.688-.391 2.396a1 1 0 0 0 1.471 1.037L16 48.776l1.988 1.099a1.002 1.002 0 0 0 1.471-1.037l-.391-2.396 1.647-1.688a.997.997 0 0 0 .233-1.016z" fill="#fab400"></path><path d="M52.948 43.738a1 1 0 0 0-.797-.671l-2.236-.342-1.009-2.15a1.001 1.001 0 0 0-1.811 0l-1.009 2.15-2.236.342a1.001 1.001 0 0 0-.565 1.687l1.647 1.688-.391 2.396a1 1 0 0 0 1.471 1.037L48 48.776l1.988 1.099a1.002 1.002 0 0 0 1.471-1.037l-.391-2.396 1.647-1.688a.997.997 0 0 0 .233-1.016z" fill="#00325a"></path><path d="m43.849 44.067 2.236-.342 1.009-2.15a1.001 1.001 0 0 1 1.811 0l1.009 2.15 2.236.342a.997.997 0 0 1 .715.488 1.001 1.001 0 0 0-.714-1.488l-2.236-.342-1.009-2.15a1.001 1.001 0 0 0-1.811 0l-1.009 2.15-2.236.342a.997.997 0 0 0-.714 1.488.994.994 0 0 1 .713-.488zM36.151 43.067l-2.236-.342-1.009-2.15a1.001 1.001 0 0 0-1.811 0l-1.009 2.15-2.236.342a.997.997 0 0 0-.714 1.488.997.997 0 0 1 .715-.488l2.236-.342 1.009-2.15a.998.998 0 0 1 1.809 0l1.009 2.15 2.236.342a.997.997 0 0 1 .715.488 1.001 1.001 0 0 0-.714-1.488z" fill="#00143c"></path></g></svg>