<svg viewBox="0 0 512 512" xmlns="http://www.w3.org/2000/svg"><g><path d="M30 0h30v512H30zm0 0" fill="#676e74"></path><path d="M452 0h30v512h-30zm0 0" fill="#474f54"></path><path d="M437 241v30c-115.8 0-159.7 44.098-177.7 63l-11.402 11.398C196.301 397 140.7 421 75 421v-30c57.3 0 106-21.3 151.602-66.902L237.699 313c4.5-4.8 10.5-10.8 18.301-17.398C283.598 271.898 336.5 241 437 241zm0 0" fill="#da90f8"></path><path d="M437 241v30c-115.8 0-159.7 44.098-177.7 63l-3.3 3.3v-41.698C283.598 271.898 336.5 241 437 241zm0 0" fill="#b760ea"></path><path d="M45 451c-24.813 0-45-20.188-45-45s20.188-45 45-45 45 20.188 45 45-20.188 45-45 45zm0 0" fill="#da90f8"></path><path d="M467 301c-24.813 0-45-20.188-45-45s20.188-45 45-45 45 20.188 45 45-20.188 45-45 45zm0 0" fill="#b760ea"></path><path d="M437 91v30c-115.8 0-159.7 44.098-177.7 63l-11.402 11.398C196.301 247 140.7 271 75 271v-30c57.3 0 106-21.3 151.602-66.902L237.699 163c4.5-4.8 10.5-10.8 18.301-17.398C283.598 121.898 336.5 91 437 91zm0 0" fill="#64e1dc"></path><path d="M437 91v30c-115.8 0-159.7 44.098-177.7 63l-3.3 3.3v-41.698C283.598 121.898 336.5 91 437 91zm0 0" fill="#00c8c8"></path><path d="M285.398 289 264.7 237.7C262 230.8 259 224.2 256 217.897 217.3 135.7 154.2 91 78.3 91h-1.8L75 106l1.8 15h1.5c69.598 0 125.2 44.098 158.5 127.8l19.2 47.7 1.5 3.598C279.7 355.898 341 421 437 421v-30c-106.8 0-147.398-91.5-151.602-102zm0 0" fill="#fdbf00"></path><path d="M437 391v30c-96 0-157.3-65.102-179.5-120.902L256 296.5v-78.602c3 6.301 6 12.903 8.7 19.801L285.397 289C289.602 299.5 330.2 391 437 391zm0 0" fill="#ff9100"></path><path d="M45 151c-24.813 0-45-20.188-45-45s20.188-45 45-45 45 20.188 45 45-20.188 45-45 45zm0 0" fill="#fdbf00"></path><path d="M467 451c-24.813 0-45-20.188-45-45s20.188-45 45-45 45 20.188 45 45-20.188 45-45 45zm0 0" fill="#ff9100"></path><path d="M45 301c-24.813 0-45-20.188-45-45s20.188-45 45-45 45 20.188 45 45-20.188 45-45 45zm0 0" fill="#64e1dc"></path><path d="M467 151c-24.813 0-45-20.188-45-45s20.188-45 45-45 45 20.188 45 45-20.188 45-45 45zm0 0" fill="#00c8c8"></path></g></svg>