<svg viewBox="0 0 512 512" xmlns="http://www.w3.org/2000/svg"><g><g clip-rule="evenodd" fill-rule="evenodd"><path d="m129.936 429.241 243.01-12.718a48.552 48.552 0 0 0 .723 13.945l-243.007 12.717a37.393 37.393 0 0 0-.726-13.944zm-45.704-26.978L69.588 203.455c4.669.537 9.401.198 13.943-1.021l14.644 198.808a37.292 37.292 0 0 0-13.943 1.021zm31.531 5.864a37.327 37.327 0 0 1 9.515 10.172l87.072-81.41a62.425 62.425 0 0 1-11.379-8.429zm69.167-146.362-86.557-67.288a37.259 37.259 0 0 0 8.594-11.04l84.351 65.573a61.91 61.91 0 0 0-6.388 12.755zm55.811-40.877 6.24-110.986a37.402 37.402 0 0 0 13.944.78l-6.25 111.173a62.469 62.469 0 0 0-13.934-.967zm63.369 48.752 97.288-34.134a36.88 36.88 0 0 0 4.62 13.17l-100.476 35.252a62.281 62.281 0 0 0-1.432-14.288zm-12.99 53.19 94.553 65.294a48.382 48.382 0 0 0-7.939 11.478l-96.939-66.943a62.639 62.639 0 0 0 10.325-9.829zm127.2 49.984 9.599-107.089a37.355 37.355 0 0 0 13.887 1.237l-9.599 107.087a48.527 48.527 0 0 0-13.887-1.235zm-12.432-161.232-126.75-108.668a37.29 37.29 0 0 0 9.093-10.596l126.75 108.668a37.29 37.29 0 0 0-9.093 10.596zM226.679 96.654l-117.124 59.614a37.005 37.005 0 0 0-6.353-12.463L220.326 84.19a37 37 0 0 0 6.353 12.464z" fill="#c7e0ec"></path><path d="M332.754 298.85c-18.837 0-28.289 22.822-14.97 36.141a6.286 6.286 0 0 1 0 8.887l-13.528 13.528a6.284 6.284 0 0 1-8.887 0c-13.319-13.319-36.141-3.868-36.141 14.97a6.283 6.283 0 0 1-6.283 6.283h-19.131a6.283 6.283 0 0 1-6.283-6.283c0-18.861-22.805-28.306-36.141-14.97a6.284 6.284 0 0 1-8.887 0l-13.528-13.528a6.286 6.286 0 0 1 0-8.887c13.319-13.319 3.868-36.141-14.97-36.141a6.284 6.284 0 0 1-6.284-6.283v-19.13a6.283 6.283 0 0 1 6.284-6.284c18.838 0 28.289-22.822 14.97-36.141a6.286 6.286 0 0 1 0-8.887l13.528-13.528a6.286 6.286 0 0 1 8.887 0c13.32 13.319 36.141 3.868 36.141-14.97a6.284 6.284 0 0 1 6.283-6.284h19.131a6.283 6.283 0 0 1 6.283 6.284c0 18.838 22.822 28.289 36.141 14.97a6.286 6.286 0 0 1 8.887 0l13.528 13.528a6.286 6.286 0 0 1 0 8.887c-13.319 13.319-3.868 36.141 14.97 36.141a6.283 6.283 0 0 1 6.284 6.284v19.13a6.283 6.283 0 0 1-6.284 6.283zm-89.374-61.809c-25.384 0-45.961 20.578-45.961 45.961 0 25.384 20.577 45.961 45.961 45.961 25.383 0 45.961-20.578 45.961-45.961 0-25.384-20.577-45.961-45.961-45.961z" fill="#fdcd56"></path><path d="M147.961 447.709c-11.398 0-17.117 13.809-9.058 21.868a3.802 3.802 0 0 1 0 5.377l-8.186 8.185a3.802 3.802 0 0 1-5.377 0c-8.06-8.059-21.868-2.34-21.868 9.058a3.802 3.802 0 0 1-3.802 3.802H88.094a3.802 3.802 0 0 1-3.802-3.802c0-11.412-13.799-17.128-21.869-9.058a3.802 3.802 0 0 1-5.377 0l-8.186-8.185a3.802 3.802 0 0 1 0-5.377c8.06-8.059 2.341-21.868-9.058-21.868A3.802 3.802 0 0 1 36 443.907v-11.576a3.802 3.802 0 0 1 3.802-3.802c11.398 0 17.117-13.809 9.058-21.868a3.802 3.802 0 0 1 0-5.377l8.186-8.186a3.804 3.804 0 0 1 5.377 0c8.059 8.06 21.869 2.341 21.869-9.058 0-2.1 1.703-3.802 3.802-3.802H99.67a3.802 3.802 0 0 1 3.802 3.802c0 11.398 13.809 17.117 21.868 9.058a3.804 3.804 0 0 1 5.377 0l8.186 8.186a3.802 3.802 0 0 1 0 5.377c-8.059 8.06-2.34 21.868 9.058 21.868a3.802 3.802 0 0 1 3.802 3.802v11.576a3.802 3.802 0 0 1-3.802 3.802zm-54.079-37.401c-15.359 0-27.811 12.451-27.811 27.811 0 15.359 12.451 27.81 27.811 27.81 15.359 0 27.81-12.451 27.81-27.81 0-15.36-12.451-27.811-27.81-27.811z" fill="#f76c82"></path><path d="M491.073 433.426c-14.77 0-22.18 17.893-11.737 28.337a4.926 4.926 0 0 1 0 6.967l-10.607 10.606a4.926 4.926 0 0 1-6.967 0c-10.443-10.443-28.336-3.033-28.336 11.737a4.925 4.925 0 0 1-4.926 4.926h-15a4.926 4.926 0 0 1-4.927-4.926c0-14.788-17.88-22.193-28.336-11.737a4.927 4.927 0 0 1-6.968 0l-10.607-10.606a4.926 4.926 0 0 1 0-6.967c10.443-10.443 3.033-28.337-11.737-28.337a4.926 4.926 0 0 1-4.927-4.926v-15a4.927 4.927 0 0 1 4.927-4.927c14.77 0 22.18-17.893 11.737-28.336a4.927 4.927 0 0 1 0-6.968l10.607-10.607a4.927 4.927 0 0 1 6.968 0c10.443 10.443 28.336 3.033 28.336-11.737a4.926 4.926 0 0 1 4.927-4.927h14.999a4.926 4.926 0 0 1 4.926 4.927c0 14.77 17.893 22.18 28.336 11.737a4.926 4.926 0 0 1 6.967 0l10.607 10.607a4.927 4.927 0 0 1 0 6.968c-10.443 10.443-3.033 28.336 11.737 28.336a4.926 4.926 0 0 1 4.926 4.927v14.999a4.924 4.924 0 0 1-4.925 4.927zM421 384.964c-19.902 0-36.036 16.134-36.036 36.036s16.134 36.035 36.036 36.035 36.036-16.134 36.036-36.035c-.001-19.902-16.134-36.036-36.036-36.036z" fill="#b3a4ee"></path><path d="M127.96 176.167c-11.398 0-17.117 13.809-9.058 21.868a3.802 3.802 0 0 1 0 5.377l-8.186 8.185a3.802 3.802 0 0 1-5.377 0c-8.059-8.059-21.868-2.34-21.868 9.058 0 2.1-1.703 3.802-3.802 3.802H68.093a3.802 3.802 0 0 1-3.802-3.802c0-11.413-13.799-17.128-21.868-9.058a3.802 3.802 0 0 1-5.377 0l-8.186-8.185a3.804 3.804 0 0 1 0-5.377c8.059-8.06 2.341-21.868-9.058-21.868A3.802 3.802 0 0 1 16 172.365V160.79a3.802 3.802 0 0 1 3.802-3.802c11.398 0 17.117-13.809 9.058-21.868a3.804 3.804 0 0 1 0-5.377l8.186-8.186a3.804 3.804 0 0 1 5.377 0c8.059 8.06 21.868 2.341 21.868-9.058 0-2.1 1.703-3.802 3.802-3.802h11.576a3.802 3.802 0 0 1 3.802 3.802c0 11.398 13.809 17.117 21.868 9.058a3.804 3.804 0 0 1 5.377 0l8.186 8.186a3.802 3.802 0 0 1 0 5.377c-8.059 8.059-2.34 21.868 9.058 21.868a3.802 3.802 0 0 1 3.802 3.802v11.576a3.8 3.8 0 0 1-3.802 3.801zm-54.079-37.4c-15.359 0-27.81 12.451-27.81 27.811 0 15.359 12.451 27.81 27.81 27.81s27.81-12.451 27.81-27.81c.001-15.36-12.451-27.811-27.81-27.811z" fill="#afe269"></path><path d="M492.198 239.609c-11.398 0-17.117 13.809-9.058 21.868a3.802 3.802 0 0 1 0 5.377l-8.186 8.185a3.802 3.802 0 0 1-5.377 0c-8.06-8.059-21.868-2.34-21.868 9.058 0 2.1-1.703 3.802-3.802 3.802h-11.576a3.802 3.802 0 0 1-3.802-3.802c0-11.413-13.799-17.128-21.868-9.058a3.802 3.802 0 0 1-5.377 0l-8.186-8.185a3.804 3.804 0 0 1 0-5.377c8.06-8.059 2.341-21.868-9.058-21.868a3.802 3.802 0 0 1-3.802-3.802v-11.576a3.802 3.802 0 0 1 3.802-3.802c11.398 0 17.117-13.809 9.058-21.868a3.804 3.804 0 0 1 0-5.377l8.186-8.186a3.802 3.802 0 0 1 5.377 0c8.06 8.059 21.868 2.34 21.868-9.058 0-2.1 1.703-3.802 3.802-3.802h11.576a3.802 3.802 0 0 1 3.802 3.802c0 11.398 13.809 17.117 21.868 9.058a3.802 3.802 0 0 1 5.377 0l8.186 8.186a3.802 3.802 0 0 1 0 5.377c-8.059 8.059-2.34 21.868 9.058 21.868a3.802 3.802 0 0 1 3.802 3.802v11.576a3.802 3.802 0 0 1-3.802 3.802zm-54.079-37.401c-15.359 0-27.81 12.451-27.81 27.81s12.451 27.811 27.81 27.811 27.81-12.451 27.81-27.811c0-15.359-12.451-27.81-27.81-27.81z" fill="#636c77"></path><path d="M310.079 83.471c-11.398 0-17.117 13.809-9.058 21.868a3.802 3.802 0 0 1 0 5.377l-8.186 8.185a3.802 3.802 0 0 1-5.377 0c-8.06-8.059-21.868-2.34-21.868 9.058 0 2.1-1.703 3.802-3.802 3.802h-11.576a3.802 3.802 0 0 1-3.802-3.802c0-11.413-13.799-17.128-21.868-9.058a3.802 3.802 0 0 1-5.377 0l-8.186-8.185a3.804 3.804 0 0 1 0-5.377c8.06-8.06 2.341-21.868-9.058-21.868a3.802 3.802 0 0 1-3.802-3.802V68.093a3.802 3.802 0 0 1 3.802-3.802c11.398 0 17.117-13.809 9.058-21.868a3.804 3.804 0 0 1 0-5.377l8.186-8.186a3.802 3.802 0 0 1 5.377 0c8.06 8.059 21.868 2.341 21.868-9.058A3.802 3.802 0 0 1 250.212 16h11.576a3.802 3.802 0 0 1 3.802 3.802c0 11.398 13.809 17.117 21.868 9.058a3.802 3.802 0 0 1 5.377 0l8.186 8.186a3.802 3.802 0 0 1 0 5.377c-8.059 8.059-2.34 21.868 9.058 21.868a3.802 3.802 0 0 1 3.802 3.802v11.576a3.802 3.802 0 0 1-3.802 3.802zM256 46.071c-15.359 0-27.811 12.451-27.811 27.81S240.64 101.692 256 101.692c15.359 0 27.81-12.451 27.81-27.811 0-15.359-12.451-27.81-27.81-27.81z" fill="#66d4f1"></path></g></g></svg>