<svg viewBox="0 0 512 512" xmlns="http://www.w3.org/2000/svg"><g><path d="M346 422H166c-8.291 0-15-6.709-15-15v-60c0-8.291 6.709-15 15-15h180c8.291 0 15 6.709 15 15v60c0 8.291-6.709 15-15 15z" fill="#474f54"></path><path d="M256 422h90c8.291 0 15-6.709 15-15v-60c0-8.291-6.709-15-15-15h-90z" fill="#32393f"></path><path d="M436 362H76c-8.291 0-15-6.709-15-15 0-58.872 85.649-105 195-105s195 46.128 195 105c0 8.291-6.709 15-15 15z" fill="#ff641a"></path><path d="M256 212a14.948 14.948 0 0 1-10.605-4.395l-90-90a14.984 14.984 0 0 1-3.252-16.348A14.983 14.983 0 0 1 166 92h30V15c0-8.291 6.709-15 15-15h90c8.291 0 15 6.709 15 15v77h30a14.983 14.983 0 0 1 13.857 9.258 14.984 14.984 0 0 1-3.252 16.348l-90 90A14.951 14.951 0 0 1 256 212z" fill="#97de3d"></path><path d="m132.499 222.518-52.808-60.674c-5.449-6.24-4.79-15.718 1.465-21.152 6.24-5.435 15.703-4.819 21.152 1.465l52.808 60.674c5.449 6.24 4.79 15.718-1.465 21.152-6.257 5.451-15.734 4.784-21.152-1.465z" fill="#fed843"></path><path d="M358.349 223.982c-6.255-5.435-6.914-14.912-1.465-21.152l52.808-60.674c5.449-6.255 14.941-6.87 21.152-1.465 6.255 5.435 6.914 14.912 1.465 21.152l-52.808 60.674c-5.402 6.231-14.878 6.932-21.152 1.465zM430.511 254.828c-3.296-7.588.19-16.436 7.793-19.717l52.734-22.866c7.617-3.325 16.436.19 19.717 7.793 3.296 7.588-.19 16.436-7.793 19.717l-52.734 22.866c-7.454 3.275-16.396-.096-19.717-7.793z" fill="#fabe2c"></path><path d="M61.772 262.621 9.038 239.755c-7.603-3.281-11.089-12.129-7.793-19.717 3.267-7.603 12.129-11.118 19.717-7.793l52.734 22.866c7.603 3.281 11.089 12.129 7.793 19.717-3.32 7.695-12.261 11.069-19.717 7.793z" fill="#fed843"></path><path d="M436 392H76c-8.401 0-15 6.599-15 15v90h390v-90c0-8.401-6.599-15-15-15z" fill="#575f64"></path><path d="M356.605 117.605a14.984 14.984 0 0 0 3.252-16.348A14.983 14.983 0 0 0 346 92h-30V15c0-8.291-6.709-15-15-15h-45v212c3.838 0 7.676-1.465 10.605-4.395z" fill="#59c36a"></path><path d="M256 392v105h195v-90c0-8.401-6.599-15-15-15z" fill="#474f54"></path><path d="M436 362c8.291 0 15-6.709 15-15 0-58.872-85.649-105-195-105v120z" fill="#f03800"></path><path d="M466 512H46c-8.291 0-15-6.709-15-15s6.709-15 15-15h420c8.291 0 15 6.709 15 15s-6.709 15-15 15z" fill="#474f54"></path><path d="M256 512h210c8.291 0 15-6.709 15-15s-6.709-15-15-15H256z" fill="#32393f"></path></g></svg>