<svg viewBox="0 0 512 512" xmlns="http://www.w3.org/2000/svg"><g><path d="M189.5 437C97.141 437 22 361.859 22 269.5S97.141 102 189.5 102 357 177.141 357 269.5 281.859 437 189.5 437z" fill="#ff405c"></path><path d="M189.5 102v335c92.359 0 167.5-75.141 167.5-167.5S281.859 102 189.5 102z" fill="#c30047"></path><path d="M419.5 94.501V71.057c0-27.604 13.712-53.225 36.68-68.536 6.892-4.596 16.205-2.732 20.801 4.16s2.733 16.206-4.16 20.801a52.264 52.264 0 0 0-23.32 43.575v23.444z" fill="#ff936b"></path><path d="M60 437h129.5c92.359 0 167.5-75.141 167.5-167.5V157c0-42.733 34.767-77.5 77.5-77.5S512 114.267 512 157c0 15.957-4.817 31.285-13.931 44.327-6.851 9.804-15.744 17.796-26.069 23.499V357c0 85.468-69.532 155-155 155H15c-8.284 0-15-6.716-15-15 0-33.084 26.916-60 60-60z" fill="#fff16b"></path><path d="M317 512c85.468 0 155-69.532 155-155V224.826c10.325-5.703 19.219-13.695 26.069-23.499C507.183 188.285 512 172.957 512 157c0-42.733-34.767-77.5-77.5-77.5S357 114.267 357 157v112.5c0 92.359-75.141 167.5-167.5 167.5v75z" fill="#ffc178"></path><circle cx="437" cy="157" fill="#453d83" r="15"></circle><circle cx="189.5" cy="269.5" fill="#f9f9f9" r="90"></circle><path d="M279.5 269.5c0-49.706-40.294-90-90-90v180c49.706 0 90-40.294 90-90z" fill="#e2dff4"></path><path d="M189.5 374.5c-57.897 0-105-47.103-105-105s47.103-105 105-105 105 47.103 105 105-47.103 105-105 105zm0-180c-41.355 0-75 33.645-75 75s33.645 75 75 75 75-33.645 75-75-33.645-75-75-75z" fill="#ff7d47"></path><path d="M264.5 269.5c0 41.355-33.645 75-75 75v30c57.897 0 105-47.103 105-105s-47.103-105-105-105v30c41.355 0 75 33.645 75 75z" fill="#ff405c"></path><path d="M219.5 284.5h-30c-8.284 0-15-6.716-15-15v-30c0-8.284 6.716-15 15-15s15 6.716 15 15v15h15c8.284 0 15 6.716 15 15s-6.716 15-15 15z" fill="#5f55af"></path><path d="M219.5 284.5c8.284 0 15-6.716 15-15s-6.716-15-15-15h-15v-15c0-8.284-6.716-15-15-15v60z" fill="#453d83"></path></g></svg>