<svg viewBox="0 0 512 512" xmlns="http://www.w3.org/2000/svg"><g><path d="M145.03 153.25s1.877-47.952 58.2-48.892c56.322-.94 76.974 33.848 123.91 24.446 46.935-9.402 106.074-81.799 151.132-30.087s-46.935 107.185-81.668 101.544c-34.732-5.641-46.237-12.648-46.237-12.648l21.831 28.632s-196.19 43.25-227.167-36.669c0 0-43.184 7.518-95.985 3.203-10.546-.862-18.695-9.637-18.695-20.236 0-12.786 11.667-22.41 24.186-19.908 20.446 4.086 52.448 9.162 90.493 10.615z" fill="#ffe9c8"></path><path d="M146.55 164.556c-.969-2.057-3.12-3.276-5.368-2.951-11.689 1.689-48.651 6.16-92.137 2.607a20.35 20.35 0 0 1-16.45-10.962 20.234 20.234 0 0 0-2.239 9.798c.253 10.486 8.732 18.93 19.171 19.77 52.583 4.23 95.504-3.242 95.504-3.242 30.977 79.919 227.167 36.669 227.167 36.669l-12.318-16.156c-42.699 7.746-183.428 27.961-213.33-35.533zM396.604 181.694c-13.006-2.113-22.755-4.416-29.862-6.472-8.201-2.372-16.375 3.841-16.375 12.391.9.242 2.281.925 4.006 1.914 5.86 2.473 18.718 6.915 42.231 10.734 30.208 4.906 103.711-36.417 92.71-81.287-8.776 36.993-66.743 66.938-92.71 62.72z" fill="#ffdca7"></path><g fill="#ffdc00"><path d="m245.65 38.606 1.926.865a39.329 39.329 0 0 1 19.788 19.821l.864 1.93c2.334 5.216 9.726 5.216 12.059 0l.863-1.929a39.33 39.33 0 0 1 19.789-19.821l1.926-.865c5.207-2.337 5.207-9.742 0-12.079l-1.926-.865a39.329 39.329 0 0 1-19.788-19.821l-.863-1.929c-2.334-5.216-9.726-5.216-12.059 0l-.864 1.93a39.329 39.329 0 0 1-19.788 19.821l-1.926.865c-5.208 2.335-5.208 9.74-.001 12.077zM90.981 266.536l1.926.865a39.325 39.325 0 0 1 19.788 19.821l.864 1.93c2.334 5.216 9.726 5.216 12.059 0l.863-1.929a39.329 39.329 0 0 1 19.788-19.821l1.926-.865c5.207-2.338 5.207-9.742 0-12.08l-1.926-.865a39.329 39.329 0 0 1-19.788-19.821l-.863-1.929c-2.334-5.216-9.726-5.216-12.059 0l-.864 1.93a39.329 39.329 0 0 1-19.788 19.821l-1.926.865c-5.207 2.336-5.207 9.74 0 12.078zM401.45 266.536l1.926.865a39.325 39.325 0 0 1 19.788 19.821l.864 1.93c2.334 5.216 9.726 5.216 12.059 0l.863-1.929a39.329 39.329 0 0 1 19.788-19.821l1.926-.865c5.207-2.338 5.207-9.742 0-12.08l-1.926-.865a39.329 39.329 0 0 1-19.788-19.821l-.863-1.929c-2.334-5.216-9.726-5.216-12.059 0l-.864 1.93a39.329 39.329 0 0 1-19.788 19.821l-1.926.865c-5.207 2.336-5.207 9.74 0 12.078z" fill="#ffdc00"></path></g><path d="M332.789 361.214c11.635 0 21.067 9.447 21.067 21.101l49.649-26.164c9.584-5.05 12.937-17.146 7.324-26.422-5.196-8.589-16.208-11.581-25.025-6.802l-70.629 38.286h17.614z" fill="#f7b081"></path><path d="m229.374 361.214 102.538-53.773c8.584-4.502 19.163-2.055 24.908 5.761 7.065 9.612 4.017 23.26-6.464 28.942l-35.18 19.07z" fill="#f7b081"></path><path d="m315.176 361.214 35.18-19.07c9.118-4.943 12.607-15.915 8.708-25.014l-80.417 44.085h36.529zM353.856 382.315l49.649-26.163c8.293-4.37 11.907-14.013 9.098-22.542l-64.486 34.26c3.549 3.777 5.739 8.85 5.739 14.445z" fill="#db9975"></path><path d="M353.856 382.315c0 10.631-7.895 19.601-18.425 20.935l-131.073 16.598 55.667 6.709a248.265 248.265 0 0 0 150.325-29.494l50.995-28.345c9.937-5.523 12.852-18.486 6.238-27.743-5.53-7.74-15.914-10.204-24.323-5.773z" fill="#f7b081"></path><path d="M461.345 368.718c8.849-4.919 12.109-15.73 8.051-24.577l-121.788 65.263-45.103-1.984-98.147 12.429 55.667 6.709a248.265 248.265 0 0 0 150.325-29.494z" fill="#db9975"></path><path d="M56.086 393.447s38.358-32.441 85.889-41.292c47.531-8.85 87.399 9.058 87.399 9.058h103.415c11.635 0 21.067 9.447 21.067 21.101 0 10.631-7.895 19.601-18.425 20.935l-131.073 16.598 55.667 6.709a248.265 248.265 0 0 0 150.325-29.494l69.647-38.712c9.462-4.989 21.14-2.379 27.586 6.166 8.046 10.665 4.738 26.001-6.985 32.389l-101.842 55.491c-51.047 27.814-109.162 64.276-167.043 59.11L56.086 495.83H5.16A5.159 5.159 0 0 1 0 490.672v-92.068a5.16 5.16 0 0 1 5.16-5.158h50.926z" fill="#ffc89f"></path><path d="M507.583 364.517a22.106 22.106 0 0 0-1.39-1.655c-1.554 5.378-5.154 10.189-10.528 13.117l-101.841 55.49c-51.047 27.814-109.162 64.276-167.044 59.11L51.152 474.903H0v15.77a5.16 5.16 0 0 0 5.16 5.158h50.926l175.627 15.676c57.882 5.166 115.997-31.296 167.043-59.11l101.842-55.49c11.723-6.389 15.031-21.725 6.985-32.39z" fill="#f7b081"></path><path d="M237.094 152.946c-43.065-5.402-68.324-.114-69.377.114-4.172.9-6.82 5.009-5.928 9.186a7.745 7.745 0 0 0 9.178 5.956c.235-.049 24.017-4.925 64.202.111 23.972 3.005 46.509 4.51 67.383 4.51 12.34 0 24.102-.526 35.228-1.58 40.507-3.839 72.831-14.729 96.075-32.371a7.748 7.748 0 0 0 1.489-10.85 7.74 7.74 0 0 0-10.845-1.489c-36.916 28.019-101.72 37.151-187.405 26.413z" fill="#ffbf00"></path></g></svg>