<svg viewBox="0 0 512 512" xmlns="http://www.w3.org/2000/svg"><g><path d="M267 11C131.69 11 22 120.69 22 256c0 46.08 12.731 89.183 34.854 126L58 383h418l1.146-1C499.269 345.183 512 302.08 512 256c0-135.31-109.69-245-245-245z" fill="#596c76"></path><path d="m111.148 304.135 1.639-1.695h-3.442c-13.472 0-24.432-10.96-24.432-24.432 0-6.767 2.71-13.063 7.631-17.728l1.821-1.726h-10.84c-8.629 0-16.222-4.501-20.57-11.275l-27.793 48.879c-.758 1.333.205 2.989 1.739 2.989h44.023c1.528 0 2.491 1.644 1.745 2.977l-44.142 78.879c-1.142 2.041 1.547 4.047 3.178 2.372l62.667-64.355a24.289 24.289 0 0 1 6.776-14.885z" fill="#fee903"></path><g fill="#f4d902"><path d="m52.162 296.159 22.363-39.329a24.564 24.564 0 0 1-11.57-9.549L35.162 296.16c-.758 1.333.205 2.989 1.739 2.989h17c-1.534-.001-2.497-1.656-1.739-2.99zM97.121 299.148H80.924c1.528 0 2.491 1.644 1.745 2.977l-44.142 78.879c-1.142 2.041 1.547 4.047 3.178 2.372l29.377-30.169 28.587-51.083a1.96 1.96 0 0 0 .136-1.625 24.228 24.228 0 0 1-2.684-1.351z" fill="#f4d902"></path></g><path d="M23.44 78.148c.658-.053 1.32-.088 1.991-.088h264.137c.671 0 1.334.035 1.991.088 5.589-4.665 9.146-11.681 9.146-19.53 0-14.045-11.386-25.432-25.431-25.432H39.725c-14.045 0-25.432 11.386-25.432 25.432.001 7.849 3.559 14.865 9.147 19.53z" fill="#a8d3d8"></path><g fill="#8ebac5"><path d="M48 58.618c0-14.045 11.386-25.432 25.432-25.432H39.725c-14.045 0-25.432 11.386-25.432 25.432 0 7.849 3.558 14.865 9.146 19.53.658-.053 1.32-.088 1.991-.088h31.615C51.517 73.395 48 66.419 48 58.618zM289.568 78.06c.671 0 1.334.035 1.991.088.034-.028.066-.059.1-.088z" fill="#8ebac5"></path></g><path d="m165.28 383 18.259-37.459h-52.078L149.72 383z" fill="#8ebac5"></path><path d="M148 345.541h-16.539L149.72 383h15.56l.489-1.005z" fill="#7ca1b1"></path><path d="M203.553 302.44h-92.105c-5.022 4.646-8.169 11.289-8.169 18.669 0 14.045 11.386 25.432 25.432 25.432h57.58c14.045 0 25.432-11.386 25.432-25.432-.002-7.38-3.149-14.023-8.17-18.669z" fill="#7ca1b1"></path><path d="M137 321.109c0-7.38 3.147-14.023 8.169-18.669h-33.721c-5.022 4.646-8.169 11.289-8.169 18.669 0 14.045 11.386 25.432 25.432 25.432h33.721c-14.046 0-25.432-11.386-25.432-25.432z" fill="#678d98"></path><path d="M222.029 258.555H92.971c-5.536 4.665-9.057 11.646-9.057 19.453 0 14.045 11.386 25.432 25.432 25.432h96.309c14.045 0 25.431-11.386 25.431-25.432 0-7.806-3.521-14.788-9.057-19.453z" fill="#678d98"></path><path d="M117.828 278.008c0-7.807 3.521-14.788 9.057-19.453H92.971c-5.536 4.665-9.057 11.646-9.057 19.453 0 14.045 11.386 25.432 25.432 25.432h33.914c-14.046 0-25.432-11.386-25.432-25.432z" fill="#537983"></path><path d="M247.861 214.682H67.139c-5.529 4.665-9.044 11.641-9.044 19.442 0 14.045 11.386 25.432 25.431 25.432h147.948c14.045 0 25.432-11.386 25.432-25.432 0-7.801-3.516-14.777-9.045-19.442z" fill="#7ca1b1"></path><path d="M92 234.124c0-7.801 3.515-14.777 9.044-19.442H67.139c-5.529 4.665-9.044 11.641-9.044 19.442 0 14.045 11.386 25.432 25.431 25.432h33.906C103.386 259.555 92 248.169 92 234.124z" fill="#678d98"></path><path d="M267.666 171.188H47.334c-5.275 4.66-8.605 11.47-8.605 19.061 0 14.045 11.386 25.432 25.431 25.432h186.678c14.045 0 25.432-11.386 25.432-25.432.001-7.591-3.33-14.401-8.604-19.061z" fill="#678d98"></path><path d="M72.459 190.25c0-7.592 3.33-14.402 8.605-19.061h-33.73c-5.275 4.66-8.605 11.47-8.605 19.061 0 14.045 11.386 25.432 25.431 25.432h33.729c-14.044-.001-25.43-11.387-25.43-25.432z" fill="#537983"></path><path d="M286.113 126.923H28.887c-5.803 4.661-9.522 11.812-9.522 19.834 0 14.045 11.386 25.432 25.432 25.432h225.407c14.045 0 25.432-11.386 25.432-25.432-.001-8.023-3.719-15.173-9.523-19.834z" fill="#7ca1b1"></path><path d="M53 146.757c0-8.023 3.719-15.173 9.522-19.834H28.887c-5.803 4.661-9.522 11.812-9.522 19.834 0 14.045 11.386 25.432 25.432 25.432h33.635C64.386 172.189 53 160.802 53 146.757z" fill="#678d98"></path><path d="M289.568 127.923H25.432C11.386 127.923 0 116.537 0 102.491 0 88.446 11.386 77.06 25.432 77.06h264.137c14.045 0 25.432 11.386 25.432 25.432-.001 14.045-11.387 25.431-25.433 25.431z" fill="#8ebac5"></path><path d="M33 102.491C33 88.446 44.386 77.06 58.432 77.06h-33C11.386 77.06 0 88.446 0 102.491c0 14.045 11.386 25.432 25.432 25.432h33C44.386 127.923 33 116.537 33 102.491z" fill="#7ca1b1"></path><path d="M267 501c89.229 0 167.308-47.707 210.146-119H56.854C99.692 453.293 177.771 501 267 501z" fill="#0bb494"></path><path d="M432.5 426h-231a7.5 7.5 0 0 1 0-15h231a7.5 7.5 0 0 1 0 15z" fill="#00a887"></path><path d="M487.5 291.151c0-13.738-10.583-24.997-24.04-26.087a26.045 26.045 0 0 0 4.161-14.155c0-14.46-11.722-26.182-26.182-26.182-3.846 0-7.495.836-10.784 2.326-4.391-8.302-13.11-13.962-23.155-13.962s-18.764 5.66-23.155 13.962a26.067 26.067 0 0 0-10.784-2.326c-14.46 0-26.182 11.722-26.182 26.182a26.045 26.045 0 0 0 4.162 14.155c-13.457 1.091-24.04 12.349-24.04 26.087 0 5.091 1.47 9.83 3.985 13.849h27.632c2.381 0 4.708.969 6.387 2.659l41.435 41.731c.436.439.273.944.213 1.089s-.305.616-.923.616h-4.949v8.16c1.994.486 4.077.745 6.22.745 8.645 0 16.309-4.192 21.077-10.653a26.054 26.054 0 0 0 12.862 3.38c14.46 0 26.182-11.722 26.182-26.182a26.1 26.1 0 0 0-1.825-9.601c12.324-2.125 21.703-12.86 21.703-25.793z" fill="#0bb494"></path><path d="M407.5 213.091c-10.045 0-18.764 5.66-23.155 13.962a26.147 26.147 0 0 0-13.034-2.231c-12.49 1.052-22.634 11.073-23.812 23.552-.583 6.175.99 11.953 4.042 16.69-13.457 1.091-24.04 12.349-24.04 26.087 0 5.091 1.47 9.83 3.985 13.849h13.822a26.242 26.242 0 0 1-.306-3.849c0-11.665 7.63-21.543 18.172-24.926 2.722-.873 4.215-3.776 3.246-6.465a26.215 26.215 0 0 1-1.419-11.387c1.178-12.479 11.322-22.5 23.812-23.552a26.125 26.125 0 0 1 13.034 2.231c4.391-8.302 13.11-13.962 23.155-13.962 1.092 0 2.165.079 3.222.209-4.789-6.202-12.283-10.208-20.724-10.208z" fill="#00a887"></path><path d="M436.297 278a8.321 8.321 0 0 0-11.767 0l-8.625 8.625V268.78a8.321 8.321 0 0 0-16.642 0v32.686L392.939 295c-3.249-3.249-8.518-3.249-11.767 0s-3.249 8.657 0 11.907L399.265 325v16.661l7.674 7.729c.436.439.273.944.213 1.089s-.305.616-.923.616h-4.949V402h14.626v-91.841l20.392-20.392a8.32 8.32 0 0 0-.001-11.767z" fill="#bb5d4c"></path><path d="M399.265 325v16.661l7.674 7.729c.436.439.273.944.213 1.089s-.305.616-.923.616h-4.949V402h6.25V268.78a8.31 8.31 0 0 1 4.188-7.215 8.27 8.27 0 0 0-4.133-1.106 8.321 8.321 0 0 0-8.321 8.321v32.686L392.939 295c-3.249-3.249-8.518-3.249-11.767 0s-3.249 8.657 0 11.907z" fill="#a44f3e"></path><path d="M419 401h-17.72v16H425a4 4 0 0 0 4-4v-2c0-5.523-4.477-10-10-10z" fill="#f99675"></path><path d="M310.855 351.094V417h91.425v-64.906l-1.145-1z" fill="#fff3de"></path><path d="M359.117 304h-92.74a4.998 4.998 0 0 0-3.336 1.276l-48.371 43.329c-1.367 1.225-.501 3.49 1.334 3.49h190.225c1.778 0 2.672-2.147 1.419-3.409l-41.435-41.731a9.996 9.996 0 0 0-7.096-2.955z" fill="#fea613"></path><path d="M269.076 314.724a2.999 2.999 0 0 0-3.947 0l-42.779 37.37V417h28.622l1-1v-50c0-.551.449-1 1-1h28.262c.551 0 1 .449 1 1v50.02l1 .98h28.622v-64.906z" fill="#ffffff"></path><path d="m236.747 354.858 39.136-34.187-6.807-5.946a2.999 2.999 0 0 0-3.947 0l-42.779 37.37V417h14.398v-62.142z" fill="#fff3de"></path><path d="M283.234 417v-51a2 2 0 0 0-2-2h-28.263a2 2 0 0 0-2 2v51z" fill="#f68157"></path><path d="M265 364h-12.029a2 2 0 0 0-2 2v51H263v-51a2 2 0 0 1 2-2z" fill="#f26b38"></path><path d="M332.28 366v36.094a2 2 0 0 0 2 2h21a2 2 0 0 0 2-2V366a2 2 0 0 0-2-2h-21a2 2 0 0 0-2 2z" fill="#c8effe"></path><path d="M341 402.094V366a2 2 0 0 1 2-2h-8.72a2 2 0 0 0-2 2v36.094a2 2 0 0 0 2 2H343a2 2 0 0 1-2-2z" fill="#99e6fc"></path><path d="M365.28 366v36.094a2 2 0 0 0 2 2h21a2 2 0 0 0 2-2V366a2 2 0 0 0-2-2h-21a2 2 0 0 0-2 2z" fill="#c8effe"></path><path d="M374 402.094V366a2 2 0 0 1 2-2h-8.72a2 2 0 0 0-2 2v36.094a2 2 0 0 0 2 2H376a2 2 0 0 1-2-2z" fill="#99e6fc"></path><path d="m136.939 110.197 7.864-7.864a7.5 7.5 0 0 0 0-10.606 7.5 7.5 0 0 0-10.606 0l-7.864 7.864a7.5 7.5 0 0 0 5.303 12.803 7.474 7.474 0 0 0 5.303-2.197zM86.637 160.5l7.864-7.864a7.5 7.5 0 0 0 0-10.606 7.5 7.5 0 0 0-10.606 0l-7.864 7.864a7.5 7.5 0 0 0 5.303 12.803 7.48 7.48 0 0 0 5.303-2.197z" fill="#ffffff"></path><g fill="#fff"><path d="M347.463 189.144a7.5 7.5 0 0 0 0-10.606 7.5 7.5 0 0 0-10.606 0l-7.864 7.864a7.5 7.5 0 0 0 5.303 12.803 7.474 7.474 0 0 0 5.303-2.197zM298.44 216.954l-4.243 4.243A7.5 7.5 0 0 0 299.5 234a7.474 7.474 0 0 0 5.303-2.197l4.243-4.243a7.5 7.5 0 0 0 0-10.606 7.5 7.5 0 0 0-10.606 0zM207.697 272.697l-7.864 7.864a7.5 7.5 0 0 0 5.303 12.803 7.474 7.474 0 0 0 5.303-2.197l7.864-7.864a7.5 7.5 0 0 0 0-10.606 7.5 7.5 0 0 0-10.606 0zM166.197 314.197l-7.864 7.864a7.5 7.5 0 0 0 5.303 12.803 7.474 7.474 0 0 0 5.303-2.197l7.864-7.864a7.5 7.5 0 0 0 0-10.606 7.5 7.5 0 0 0-10.606 0zM458.667 180.333a7.5 7.5 0 0 0-10.606 0l-7.864 7.864A7.5 7.5 0 0 0 445.5 201a7.474 7.474 0 0 0 5.303-2.197l7.864-7.864a7.5 7.5 0 0 0 0-10.606zM398.697 229.697l-7.864 7.864a7.5 7.5 0 0 0 5.303 12.803 7.474 7.474 0 0 0 5.303-2.197l7.864-7.864a7.5 7.5 0 0 0 0-10.606 7.5 7.5 0 0 0-10.606 0z" fill="#ffffff"></path></g><g fill="#00a887"><path d="M290.643 474H263.5a7.5 7.5 0 0 1 0-15h27.143a7.5 7.5 0 0 1 0 15zM364 449.5a7.5 7.5 0 0 0-7.5-7.5h-15a7.5 7.5 0 0 0 0 15h15a7.5 7.5 0 0 0 7.5-7.5zM144 405.5a7.5 7.5 0 0 0-7.5-7.5h-15a7.5 7.5 0 0 0 0 15h15a7.5 7.5 0 0 0 7.5-7.5zM196 447.5a7.5 7.5 0 0 0-7.5-7.5h-15a7.5 7.5 0 0 0 0 15h15a7.5 7.5 0 0 0 7.5-7.5z" fill="#00a887"></path></g><g fill="#fff"><path d="m138.197 187.197-4.243 4.243a7.5 7.5 0 0 0 5.303 12.803 7.474 7.474 0 0 0 5.303-2.197l4.243-4.243a7.5 7.5 0 0 0 0-10.606 7.5 7.5 0 0 0-10.606 0zM287.799 91.13l-8.169 8.169a7.5 7.5 0 0 0 5.303 12.803 7.474 7.474 0 0 0 5.303-2.197l8.169-8.169a7.5 7.5 0 0 0 0-10.606 7.5 7.5 0 0 0-10.606 0zM169.197 158.197l-8.169 8.169a7.5 7.5 0 0 0 5.303 12.803 7.474 7.474 0 0 0 5.303-2.197l8.169-8.169a7.5 7.5 0 0 0 0-10.606 7.5 7.5 0 0 0-10.606 0zM323.197 55.732l-8.169 8.169a7.5 7.5 0 0 0 5.303 12.803 7.474 7.474 0 0 0 5.303-2.197l8.169-8.169a7.5 7.5 0 0 0 0-10.606 7.5 7.5 0 0 0-10.606 0z" fill="#ffffff"></path></g><path d="M446.985 71.108h-40.946a2 2 0 0 1-1.79-2.892l27.021-54.23c.663-1.33-.305-2.892-1.79-2.892h-28.951c-.746 0-1.43.415-1.774 1.077l-41.62 80.021c-.692 1.331.274 2.923 1.774 2.923h34.288c1.528 0 2.491 1.644 1.745 2.977l-33.806 60.41c-1.142 2.041 1.547 4.047 3.178 2.372l84.105-86.37c1.233-1.268.335-3.396-1.434-3.396z" fill="#fee903"></path><g fill="#f4d902"><path d="m373.228 92.192 41.62-80.021a1.999 1.999 0 0 1 1.774-1.077h-16.094c-.746 0-1.43.415-1.774 1.077l-41.62 80.021c-.693 1.331.274 2.923 1.774 2.923h16.094c-1.5 0-2.466-1.591-1.774-2.923zM411.035 98.092c.746-1.333-.218-2.977-1.745-2.977h-16.094c1.528 0 2.491 1.644 1.745 2.977l-33.806 60.41c-1.142 2.041 1.547 4.047 3.178 2.372l27.247-27.981z" fill="#f4d902"></path></g></g></svg>