<svg viewBox="0 0 512 512" xmlns="http://www.w3.org/2000/svg"><g><g fill="#537ec2"><path d="M467.652 351.143a230.92 230.92 0 0 1-15.327 28.527 8.019 8.019 0 0 1-11.76 2.042l-18.945-14.994a8.028 8.028 0 0 1-1.817-10.515 191.768 191.768 0 0 0 10.497-19.575 8.03 8.03 0 0 1 9.9-4.262l22.792 7.878a8.021 8.021 0 0 1 4.66 10.9zM486.292 284.27a229.935 229.935 0 0 1-5.073 27.636 8.012 8.012 0 0 1-10.39 5.658l-22.794-7.877a8.029 8.029 0 0 1-5.155-9.47 190.184 190.184 0 0 0 3.44-18.712 8.026 8.026 0 0 1 8.2-7.014l24.089.789a8.015 8.015 0 0 1 7.683 8.99zM479.377 251.3l-25.771-.844a6.148 6.148 0 0 1-5.937-5.79l-.006-.115a6.148 6.148 0 0 1 5.335-6.449l25.559-3.368a8.009 8.009 0 0 1 9.039 7.472l.036.64a8.01 8.01 0 0 1-8.255 8.454z" fill="#537ec2"></path><path d="M391.194 392.325A191.995 191.995 0 0 1 64.026 252.818C65.726 148.245 151.023 64 256 64a191.072 191.072 0 0 1 109.746 34.443l-1.019.877a12 12 0 0 0 5.709 20.905l41.812 7.509a12 12 0 0 0 14.116-12.153l-1.21-42.464a12 12 0 0 0-19.824-8.752l-8.472 7.293A231.998 231.998 0 0 0 24.042 260.434C26.405 386.518 129.352 488 256 488a231.295 231.295 0 0 0 165.403-69.318 8.015 8.015 0 0 0-.72-11.91l-18.941-14.99a7.97 7.97 0 0 0-10.548.543z" fill="#537ec2"></path></g><rect fill="#f57a08" rx="11.314" transform="rotate(-45 351.998 160.077)"></rect><rect fill="#f57a08" rx="11.314" transform="rotate(-45 159.948 352.056)"></rect><path d="m408 232-32.32 32.32a39.964 39.964 0 0 1-37.28 10.69l-44.98-10.38a24.01 24.01 0 0 0-28.79 28.79l10.38 44.98a39.964 39.964 0 0 1-10.69 37.28L232 408 104 280l32.32-32.32a39.964 39.964 0 0 1 37.28-10.69l44.98 10.38a24.01 24.01 0 0 0 28.79-28.79l-10.38-44.98a39.964 39.964 0 0 1 10.69-37.28L280 104l85.17 85.17 5.66 5.66z" fill="#e7f2da"></path><path d="m259.433 199.72 3.522 15.265a39.745 39.745 0 0 1-7.64 33.862c-9.378 9.278-10.824 20.528-6.512 31.153a40.112 40.112 0 0 1 39.117-31.998 40.478 40.478 0 0 1 9.095 1.043l44.981 10.38a23.993 23.993 0 0 0 22.367-6.415l32.324-32.323L336 160c-36.25-4.75-85.5 4.5-76.567 39.72zM152 328l68.687 68.687 32.323-32.324A23.848 23.848 0 0 0 259.8 344c-6.467 9.333-26.967 9.167-22.967-16-16 16-44.833 40-84.833 0z" fill="#f3b73f"></path><circle cx="240" cy="304" fill="#f3b73f" r="8"></circle><path d="M370.83 194.83c-20.95 20.95-39.95 27.22-55.76 27.22-15.92 0-28.62-6.35-36.86-10.47a4.003 4.003 0 0 1 3.58-7.16c15.88 7.94 45.42 22.71 83.38-15.25z" fill="#e0802b"></path><path d="M224.08 267.998a44.512 44.512 0 0 1-9.995-1.145l-30.68-7.08a4 4 0 1 1 1.798-7.795l30.682 7.08a36.482 36.482 0 0 0 8.195.94 4 4 0 0 1 0 8zM147.637 262.99a4 4 0 0 1-2.828-6.829 27.993 27.993 0 0 1 26.094-7.483 4 4 0 0 1-1.799 7.795 19.993 19.993 0 0 0-18.64 5.346 3.99 3.99 0 0 1-2.827 1.171z" fill="#b1cdb4"></path></g></svg>