<svg viewBox="0 0 64 64" xmlns="http://www.w3.org/2000/svg"><g><g><path d="M47.675 33.169c-6.466 0-13.383 7.184-15.675 9.784-2.292-2.6-9.209-9.784-15.675-9.784a11.325 11.325 0 1 0 0 22.65c6.466 0 13.384-7.183 15.675-9.783 2.292 2.6 9.209 9.783 15.675 9.783a11.325 11.325 0 1 0 0-22.65zm-31.35 20.65a9.325 9.325 0 1 1 0-18.65c5.763 0 12.45 7.139 14.362 9.325-1.911 2.188-8.591 9.325-14.362 9.325zm31.35 0c-5.763 0-12.45-7.138-14.363-9.325 1.912-2.187 8.592-9.325 14.363-9.325a9.325 9.325 0 1 1 0 18.65z" fill="#f05454"></path><path d="M44 21.18c0 .34-.01.67-.04 1A12.012 12.012 0 0 1 33 33.14c-.33.03-.66.04-1 .04s-.67-.01-1-.04a12.012 12.012 0 0 1-10.96-10.96c-.03-.33-.04-.66-.04-1a1.21 1.21 0 0 1 .01-.19c0-.27.02-.54.04-.81a11.921 11.921 0 0 1 2.79-6.75 11.738 11.738 0 0 1 1.41-1.41A11.922 11.922 0 0 1 31 9.23c.27-.02.54-.04.81-.04a1.209 1.209 0 0 1 .19-.01c.34 0 .67.01 1 .04a12.012 12.012 0 0 1 10.96 10.96c.03.33.04.66.04 1z" fill="#d2d2d2"></path><path d="M43.26 20.81a12.444 12.444 0 0 1-.08 1.37 11.554 11.554 0 0 1-2.65 6.12 11.738 11.738 0 0 1-1.41 1.41A11.554 11.554 0 0 1 33 32.36a12.445 12.445 0 0 1-1.37.08c-.21 0-.42-.01-.63-.01a11.668 11.668 0 0 1-6.44-2.39 11.133 11.133 0 0 1-1.48-1.35 11.525 11.525 0 0 1-2.99-6.51 11.68 11.68 0 0 1-.08-1.19c0-.27.02-.54.04-.81a11.921 11.921 0 0 1 2.79-6.75 11.738 11.738 0 0 1 1.41-1.41A11.922 11.922 0 0 1 31 9.23c.27-.02.54-.04.81-.04a11.697 11.697 0 0 1 1.19.08 11.526 11.526 0 0 1 6.51 2.99 11.125 11.125 0 0 1 1.35 1.48 11.668 11.668 0 0 1 2.39 6.44c0 .21.01.42.01.63z" fill="#f6f4e6"></path><g fill="#52575d"><path d="M33 9.22v1.74a1 1 0 1 1-2 0V9.23c.27-.02.54-.04.81-.04a1.209 1.209 0 0 1 .19-.01c.34 0 .67.01 1 .04zM25.48 14.66a1.024 1.024 0 0 1-.71.29 1.043 1.043 0 0 1-.71-.29l-1.22-1.23a11.738 11.738 0 0 1 1.41-1.41l1.23 1.23a.996.996 0 0 1 0 1.41zM22.78 21.18a1.003 1.003 0 0 1-1 1h-1.74c-.03-.33-.04-.66-.04-1a1.21 1.21 0 0 1 .01-.19c0-.27.02-.54.04-.81h1.73a1.003 1.003 0 0 1 1 1zM25.48 29.12l-.92.92-.31.3a11.734 11.734 0 0 1-1.41-1.41l.24-.24.98-.99a1.004 1.004 0 1 1 1.42 1.42zM33 31.4v1.74c-.33.03-.66.04-1 .04s-.67-.01-1-.04V31.4a1 1 0 0 1 2 0zM41.16 28.93a11.734 11.734 0 0 1-1.41 1.41l-.63-.63-.6-.59a1.004 1.004 0 1 1 1.42-1.42l.59.6zM44 21.18c0 .34-.01.67-.04 1h-1.74a1 1 0 0 1 0-2h1.74c.03.33.04.66.04 1zM41.16 13.43l-.3.31-.92.92a1.043 1.043 0 0 1-.71.29 1.024 1.024 0 0 1-.71-.29.996.996 0 0 1 0-1.41l.99-.99.24-.24a11.738 11.738 0 0 1 1.41 1.41zM36.07 22.18H32a1 1 0 0 1-1-1v-6.8a1 1 0 0 1 2 0v5.8h3.07a1 1 0 0 1 0 2z" fill="#52575d"></path></g></g></g></svg>