<svg viewBox="0 0 480 480" xmlns="http://www.w3.org/2000/svg"><g><path d="M352 80h120v192H352zM8 80h120v192H8zm0 0" fill="#e0e0de"></path><path d="M128 128v144h64V128zM288 128v144h64V128zm0 0" fill="#c7c7c5"></path><path d="M160 48h32v80h-32zM288 48h32v80h-32zm0 0" fill="#bfbfbd"></path><path d="M192 272V0h96v272" fill="#e0e0de"></path><g fill="#c7c7c5"><path d="M216 24h16v16h-16zM248 24h16v16h-16zM216 56h16v16h-16zM248 56h16v16h-16zM216 88h16v16h-16zM248 88h16v16h-16zM216 120h16v16h-16zM248 120h16v16h-16zM216 152h16v16h-16zM248 152h16v16h-16zm0 0" fill="#c7c7c5"></path></g><path d="M312 152h16v16h-16zM312 184h16v16h-16zM312 216h16v16h-16zM312 248h16v16h-16zM152 152h16v16h-16zM152 184h16v16h-16zM152 216h16v16h-16zM152 248h16v16h-16zm0 0" fill="#a3a3a1"></path><path d="M368 48h88v32h-88zm0 0" fill="#d6d6d4"></path><path d="M376 104h32v16h-32zM424 104h32v16h-32zM376 136h32v16h-32zM424 136h32v16h-32zm0 0" fill="#c7c7c5"></path><path d="M24 48h88v32H24zm0 0" fill="#d6d6d4"></path><path d="M32 104h72v16H32zM32 136h72v16H32zm0 0" fill="#c7c7c5"></path><path d="M305.441 294.078A36.337 36.337 0 0 0 272 272h-64a36.384 36.384 0 0 0-33.441 22.078L156 333.504 176 376l32-72v160h64V312l32 64 20-42.496zm0 0" fill="#4db7e5"></path><path d="M440 272h-64a36.407 36.407 0 0 0-33.457 22.055L324 333.504 304 376h40l32-72v160h64v-88h32v-72c0-17.672-14.328-32-32-32zM156 333.52l-18.55-39.45A36.412 36.412 0 0 0 104 272H40c-17.672 0-32 14.328-32 32v72h32v88h64V312l32 64h40l-20-42.496zm0 0" fill="#348fd9"></path><path d="M240 192c17.672 0 32 14.328 32 32v16c0 17.672-14.328 32-32 32s-32-14.328-32-32v-16c0-17.672 14.328-32 32-32zm0 0" fill="#4db7e5"></path><path d="M72 192c17.672 0 32 14.328 32 32v16c0 17.672-14.328 32-32 32s-32-14.328-32-32v-16c0-17.672 14.328-32 32-32zM408 272c-17.672 0-32-14.328-32-32v-16c0-17.672 14.328-32 32-32s32 14.328 32 32v16c0 17.672-14.328 32-32 32zm0 0" fill="#348fd9"></path><path d="M64 376h16v88H64zM32 304h16v72H32zM432 296h16v80h-16zM400 376h16v88h-16zm0 0" fill="#2a71ad"></path><path d="M232 384h16v80h-16zm0 0" fill="#419bc2"></path><path d="M0 456h480v16H0zm0 0" fill="#e0e0de"></path></g></svg>