<svg viewBox="0 0 256 256" xmlns="http://www.w3.org/2000/svg"><g><path d="M219.523 26.363c-4.806 5.262-9.33 10.833-18.912 10.833-18.154 0-18.154-20-36.308-20s-18.152 20-36.3 20-18.154-20-36.308-20-18.154 20-36.308 20c-9.578 0-14.1-5.569-18.906-10.83a10 10 0 0 0-17.4 6.73v194.187a10 10 0 0 0 10 10h197.838a10 10 0 0 0 10-10V33.094a10 10 0 0 0-17.396-6.731Z" fill="#377de2"></path><path d="M19.081 80.693a10 10 0 0 1 17.4-6.73c4.8 5.261 9.328 10.83 18.906 10.83 18.154 0 18.154-20 36.308-20s18.154 20 36.308 20 18.151-20 36.3-20 18.154 20 36.308 20c9.582 0 14.106-5.572 18.912-10.833a10 10 0 0 1 17.4 6.731v147.134a10 10 0 0 1-10 10H29.081a10 10 0 0 1-10-10Z" fill="#2266d3"></path><path d="M219.523 131.8c-4.806 5.262-9.33 10.833-18.912 10.833-18.154 0-18.154-20-36.308-20s-18.152 20-36.3 20-18.154-20-36.308-20-18.154 20-36.308 20c-9.578 0-14.1-5.569-18.906-10.83a10 10 0 0 0-17.4 6.731v89.293a10 10 0 0 0 10 10h197.838a10 10 0 0 0 10-10v-89.3a10 10 0 0 0-17.396-6.727Z" fill="#58595b"></path><path d="M219.523 189.636c-4.806 5.262-9.33 10.833-18.912 10.833-18.154 0-18.154-20-36.308-20s-18.152 20-36.3 20-18.154-20-36.308-20-18.154 20-36.308 20c-9.578 0-14.1-5.569-18.906-10.83a10 10 0 0 0-17.4 6.731v31.455a10 10 0 0 0 10 10h197.838a10 10 0 0 0 10-10v-31.458a10 10 0 0 0-17.396-6.731Z" fill="#414042"></path><rect fill="#ffa91a" rx="10.896" transform="rotate(50.759 138.305 123.901)"></rect><circle cx="152.827" cy="176.309" fill="#f1f2f2" r="16.764"></circle><path d="M160.647 161.481a16.9 16.9 0 0 0-2.073-.922 16.765 16.765 0 0 1-21.494 21.5 16.764 16.764 0 1 0 23.567-20.578Z" fill="#e6e7e8"></path><path d="M161.919 162.224a16.767 16.767 0 0 1-21.913 23.914q-.657-.348-1.271-.743a16.766 16.766 0 1 0 23.184-23.171Z" fill="#d1d3d4"></path><path d="m126.757 166.6-7.632 19.743 4.986 15.875a8.434 8.434 0 0 1-5.518 10.574 8.434 8.434 0 0 1-10.574-5.519l-5.577-17.752a11.247 11.247 0 0 1 .24-7.425l7.579-19.6a5.623 5.623 0 0 0-.89-5.584l-13.719-16.8A11.25 11.25 0 0 0 90.3 136.5l-25.678-8.033a11.239 11.239 0 0 1-5.487-3.787L33.04 91.442A8.433 8.433 0 0 1 34.465 79.6a8.434 8.434 0 0 1 11.841 1.425l23.94 30.489a5.62 5.62 0 0 0 2.744 1.893l14.6 3.718a5.267 5.267 0 0 0 6.4-6.42l-5.1-19.77c-1.207-5.414.708-8.143 6.122-14.13C97.5 74.044 101 70.266 105.4 65.578c3.291-3.51 6.61-7.021 9.3-9.854a8.427 8.427 0 0 1 11.938-.292 8.432 8.432 0 0 1 .294 11.9c-7.154 7.536-14.114 14.968-18.532 19.814a5.88 5.88 0 0 0-1.282 5.657c2.421 8.076 4.79 16.424 8.06 20.006l3.7 4.528 24.577 30.09 1.977 2.394-17.7 15.39a3.527 3.527 0 0 0-.975 1.389Z" fill="#f1f2f2"></path><path d="M88.93 125.29h-.02a13.621 13.621 0 0 1-3.3-.41l-15.01-3.84a13.518 13.518 0 0 1-6.65-4.59L43.59 90.52a2 2 0 0 1 .34-2.81 2.051 2.051 0 0 1 2.81.34l20.36 25.93a9.626 9.626 0 0 0 4.7 3.25l.2.05L86.6 121a9.433 9.433 0 0 0 2.31.29 9.232 9.232 0 0 0 7.31-3.6 9.137 9.137 0 0 0 1.94-5.64 9.467 9.467 0 0 0-.3-2.35l-5.08-19.67a2 2 0 0 1 1.44-2.43 2.031 2.031 0 0 1 2.44 1.43l5.07 19.68a13.025 13.025 0 0 1 .43 3.34 13.275 13.275 0 0 1-2.78 8.09 13.139 13.139 0 0 1-10.45 5.15ZM39.67 85.8a2 2 0 1 1 2-2 2.006 2.006 0 0 1-2 2Z" fill="#ffffff"></path><circle cx="210.143" cy="134.062" fill="#ffffff" r="7.587"></circle><circle cx="187.913" cy="164.347" fill="#ffffff" r="7.587"></circle><circle cx="181.651" cy="135.244" fill="#ffffff" r="7.587"></circle><path d="m140.658 144.005 16.876-13.785 2.796 3.422-16.877 13.785zM118.876 117.336l16.876-13.785 2.796 3.423-16.877 13.784z" fill="#ef7816"></path><rect fill="#ffa91a" rx="1.768" transform="rotate(22.528 148.092 192.184)"></rect><path d="m129.984 130.938 3.933 4.816-25.172 20.56-3.933-4.816z" fill="#ffa91a"></path><path d="M202.8 74.191a2.837 2.837 0 0 1 2.837 2.837v15.781a.708.708 0 0 0 .709.709h8.354a2.837 2.837 0 0 1 2.121 4.72l-19.2 21.623a2.826 2.826 0 0 1-2.122.954V74.191Z" fill="#ffffff"></path><path d="m193.38 119.861-19.195-21.623a2.836 2.836 0 0 1 2.121-4.72h8.354a.709.709 0 0 0 .709-.709V77.028a2.837 2.837 0 0 1 2.837-2.837h7.3v46.624a2.824 2.824 0 0 1-2.126-.954Z" fill="#e6e7e8"></path><rect fill="#ffffff" rx="2.205" transform="rotate(180 195.501 64.332)"></rect><rect fill="#ffffff" rx="2.205" transform="rotate(180 195.501 51.254)"></rect></g></svg>