<svg viewBox="0 0 128 128" xmlns="http://www.w3.org/2000/svg"><g><path d="M17.8 55.154c0-12.192 9.4-22.076 20.99-22.076 11.593 0 20.99 9.884 20.99 22.076v22.47a4.818 4.818 0 0 1-4.817 4.818H22.616a4.818 4.818 0 0 1-4.816-4.818z" fill="#bd8382"></path><path d="M117.25 26.78v26.76a5.753 5.753 0 0 1-5.76 5.75H66.83l12.15-9.41v-23.1a5.759 5.759 0 0 1 5.76-5.75h26.75a5.759 5.759 0 0 1 5.76 5.75z" fill="#fee07d"></path><path d="M117.25 97.455v-26.76a5.753 5.753 0 0 0-5.76-5.75H66.83l12.15 9.41v23.1a5.759 5.759 0 0 0 5.76 5.75h26.75a5.759 5.759 0 0 0 5.76-5.75z" fill="#ff8086"></path><path d="M55.79 55.968v4.3a16.179 16.179 0 0 1-.326 3.284 17.013 17.013 0 0 1-16.679 13.719 16.7 16.7 0 0 1-4.111-.509 16.993 16.993 0 0 1-12.561-13.213 16.179 16.179 0 0 1-.326-3.284v-4.3c6.416-.837 6.406-10.251 13.677-9.566 8.895-6.98 9.609 9.569 20.326 9.569z" fill="#ffc4b7"></path><path d="M66.83 106.97H10.75l1.43-11.42a16.11 16.11 0 0 1 11.61-13.52c.7-.2 1.4-.38 2.1-.55a55.147 55.147 0 0 1 25.8 0c.7.17 1.4.35 2.09.55h.01A16.124 16.124 0 0 1 65.4 95.55z" fill="#95d6a4"></path><path d="M51.69 81.48c-.57 3.62-6.13 6.46-12.9 6.46s-12.33-2.84-12.9-6.46a53.608 53.608 0 0 1 8.78-1.37V76.7a17.183 17.183 0 0 0 8.23 0v3.41a53.726 53.726 0 0 1 8.79 1.37z" fill="#fdb0a0"></path><path d="M87.028 34.13h5.93v14.556h-5.93z" fill="#9fd4fe"></path><path d="m92.958 36.288 5.716-8.888a1.973 1.973 0 0 1 1.66-.906 1.973 1.973 0 0 1 1.947 2.3l-.788 4.73h3a3.292 3.292 0 0 1 3.257 3.772l-1.25 8.51a3.373 3.373 0 0 1-3.337 2.88h-10.2z" fill="#ffc4b7"></path><path d="M107.788 87.534h-5.93V72.978h5.93z" fill="#9fd4fe"></path><path d="m101.857 85.376-5.716 8.89a1.972 1.972 0 0 1-1.66.906 1.974 1.974 0 0 1-1.947-2.3l.789-4.73h-3a3.292 3.292 0 0 1-3.257-3.772l1.255-8.514a3.373 3.373 0 0 1 3.336-2.881h10.2z" fill="#ffc4b7"></path></g></svg>