<svg viewBox="0 0 512 512" xmlns="http://www.w3.org/2000/svg"><g><path d="M510.72 317.2c-2.25-4.9-6.99-7.94-12.39-7.94h-42.08V69.36c0-10.62-8.63-19.25-19.24-19.25h-88.3c-10.62 0-19.27 8.64-19.27 19.25v20.26A206.842 206.842 0 0 0 206.86 49.4C92.8 49.4 0 142.09 0 256.01S92.8 462.6 206.87 462.6c51.16 0 99.73-18.58 137.71-52.47l42.23 48.99a7.98 7.98 0 0 0 6.05 2.77c2.32 0 4.53-1.01 6.05-2.77l58.91-68.32 50.84-59.01c3.54-4.1 4.33-9.71 2.06-14.59z" fill="#f9af38"></path><path d="M206.87 424.32c-92.93 0-168.54-75.5-168.54-168.31 0-92.82 75.61-168.34 168.54-168.34 46.59 0 90.96 19.44 122.58 52.86V89.62A206.842 206.842 0 0 0 206.87 49.4C92.8 49.4 0 142.09 0 256.01S92.8 462.6 206.87 462.6c51.16 0 99.73-18.58 137.71-52.47l-24.99-28.99c-30.99 27.91-70.7 43.18-112.72 43.18z" fill="#ffd241"></path><path d="M277.04 331.78c-3.5-4.04-4.3-9.61-2.08-14.53l.06-.12c2.29-4.84 7.02-7.85 12.35-7.85h42.08V140.54c-31.62-33.42-75.99-52.86-122.58-52.86-92.93 0-168.54 75.52-168.54 168.34 0 92.81 75.61 168.31 168.54 168.31 42.03 0 81.73-15.27 112.72-43.19z" fill="#f9af38"></path><path d="M19.15 256.01c0-110.72 87.65-201.36 197.28-206.38-3.18-.15-6.37-.23-9.57-.23C92.8 49.4 0 142.09 0 256.01S92.8 462.6 206.87 462.6c3.24 0 6.48-.08 9.7-.22-109.7-4.96-197.42-95.62-197.42-206.37z" fill="#ffdb76"></path><path d="M510.72 317.2c-2.25-4.9-6.99-7.94-12.39-7.94h-42.08V69.36c0-10.62-8.63-19.25-19.24-19.25h-88.3c-10.62 0-19.27 8.64-19.27 19.25v239.91h-42.08c-5.33 0-10.06 3.01-12.35 7.85l-.06.12c-2.23 4.92-1.42 10.5 2.08 14.53L386.8 459.12a7.98 7.98 0 0 0 6.05 2.77c2.32 0 4.53-1.01 6.05-2.77l58.91-68.32 50.84-59.01c3.55-4.1 4.34-9.71 2.07-14.59z" fill="#ff6d7a"></path><path d="M360.38 69.36c0-10.62 8.64-19.25 19.27-19.25h-30.93c-10.62 0-19.27 8.64-19.27 19.25v239.91h30.93zM307.97 331.78c-3.5-4.04-4.3-9.61-2.08-14.53l.06-.12c2.29-4.84 7.02-7.85 12.35-7.85h-30.93c-5.33 0-10.06 3.01-12.35 7.85l-.06.12c-2.23 4.92-1.42 10.5 2.08 14.53L386.8 459.12a7.98 7.98 0 0 0 6.05 2.77c2.32 0 4.53-1.01 6.05-2.77l9.42-10.92z" fill="#ff8c95"></path><path d="M207.85 187.55c-9.97 0-20.11 2.6-27.73 9.29-5.43 4.79-9.21 11.42-9.72 18.72-1.43 20.11 20.27 26.43 36.59 26.58 17.53.19 35.61 4.66 48.66 16.97 10.89 10.25 16.36 24.43 15.31 39.31-1.02 14.53-8.16 27.92-19.06 37.53-9.21 8.09-20.36 12.94-32.18 15.01v20.3c0 6.88-5.62 12.5-12.51 12.5h-2.76c-6.86 0-12.48-5.62-12.48-12.5v-20.62c-14.83-3.2-28.08-11.55-37.42-23.48-2.45-3.11-3.24-6.79-2.29-10.66.95-3.84 3.37-6.76 6.99-8.37l2.57-1.17c5.27-2.38 11.28-.95 14.9 3.55a37.442 37.442 0 0 0 29.13 13.93c9.97 0 20.11-2.6 27.73-9.29 5.43-4.76 9.21-11.42 9.72-18.69 1.43-20.14-20.27-26.43-36.59-26.62-17.53-.16-35.61-4.63-48.66-16.94-10.89-10.28-16.36-24.46-15.31-39.31 1.02-14.56 8.16-27.95 19.06-37.53 9.21-8.12 20.36-12.97 32.18-15.04v-20.3c0-6.88 5.62-12.47 12.51-12.47h2.76c6.86 0 12.48 5.58 12.48 12.47v20.62c14.83 3.24 28.08 11.55 37.42 23.48 2.45 3.11 3.24 6.82 2.29 10.66s-3.37 6.76-6.99 8.37l-2.57 1.17c-5.27 2.38-11.28.95-14.9-3.55a37.464 37.464 0 0 0-29.13-13.92z" fill="#ffd241"></path><path d="M202.68 371.25v-20.62c-14.83-3.2-28.08-11.55-37.42-23.48-2.45-3.11-3.24-6.79-2.29-10.66.95-3.84 3.37-6.76 6.99-8.37l2.38-1.09c-3.23-1.55-7.03-1.65-10.52-.07l-2.57 1.17c-3.62 1.62-6.04 4.54-6.99 8.37-.95 3.87-.16 7.55 2.29 10.66 9.34 11.93 22.58 20.27 37.42 23.48v20.62c0 6.88 5.62 12.5 12.48 12.5h2.76c1.4 0 2.74-.24 4-.67-4.93-1.66-8.53-6.34-8.53-11.84zM236.98 201.48c3.62 4.5 9.62 5.93 14.9 3.55l.19-.09c-1.65-.79-3.15-1.95-4.38-3.48a37.442 37.442 0 0 0-29.13-13.93c-1.99 0-3.98.11-5.96.33a37.472 37.472 0 0 1 24.38 13.62z" fill="#ffdb76"></path><path d="M158.05 252.91c13.05 12.31 31.13 16.78 48.66 16.94 16.33.19 38.02 6.47 36.59 26.62-.51 7.26-4.29 13.93-9.72 18.69-6.1 5.36-13.82 8.09-21.77 8.97 1.56.2 3.15.31 4.75.31 9.97 0 20.11-2.6 27.73-9.29 5.43-4.76 9.21-11.42 9.72-18.69 1.43-20.14-20.27-26.43-36.59-26.62-17.53-.16-35.61-4.63-48.66-16.94-10.89-10.28-16.36-24.46-15.31-39.31 1.02-14.56 8.16-27.95 19.06-37.53 9.21-8.12 20.36-12.97 32.18-15.04v-20.3c0-5.49 3.58-10.14 8.51-11.8-1.24-.42-2.57-.65-3.95-.65h-2.76c-6.89 0-12.51 5.58-12.51 12.47v20.3c-11.82 2.06-22.97 6.92-32.18 15.04-10.9 9.58-18.04 22.97-19.06 37.53-1.05 14.84 4.41 29.02 15.31 39.3z" fill="#ffdb76"></path><path d="M60.94 256.01c0-89 69.51-162.08 157.16-167.95-3.73-.25-7.47-.39-11.23-.39-92.93 0-168.54 75.52-168.54 168.34 0 92.81 75.61 168.31 168.54 168.31 3.82 0 7.63-.13 11.4-.38-87.73-5.78-157.33-78.88-157.33-167.93z" fill="#f9c075"></path></g></svg>