<svg viewBox="0 0 512 512" xmlns="http://www.w3.org/2000/svg"><g><path d="m495.73 467.015-41.58-220.29a13.386 13.386 0 0 0-13.13-10.74h-16.29l-171.28 232.33c-.02-.01-.04-.01-.06-.02l.06 14.75H482.6a13.388 13.388 0 0 0 13.13-16.03z" fill="#b79070"></path><path d="M253.39 468.3 118.45 235.985H66.84a13.4 13.4 0 0 0-13.23 11.25l-37.44 220.29a13.4 13.4 0 0 0 13.23 15.52h224.05z" fill="#d9aa7d"></path><path d="M456.36 449.735a21.548 21.548 0 0 1-21.91 5.87c-42.24-12.52-116.39-25.88-181.14 11.71l-.15-17.76c.09-2.87 2.65-46 67.43-50.18 94.8-6.09 115.77-34.84 129.69-48.59l11.75 81.06a21.307 21.307 0 0 1-5.67 17.89z" fill="#f9f5de"></path><path d="M450.28 350.785c-13.92 13.75-34.89 42.5-129.69 48.59-64.78 4.18-67.34 47.31-67.43 50.18l-1.71-193.57s2-45.22 69.14-46.43c47.32-.85 74.9-19.36 88.11-31.73a7.686 7.686 0 0 1 12.8 4.02l12.23 54.14 23.39 103.55a7.657 7.657 0 0 1-2.77 7.58 48.475 48.475 0 0 0-4.07 3.67zM456.36 449.735l-4.76 7.91a32.071 32.071 0 0 1-38.52 13.64c-27.68-10.24-78.82-19.92-159.63 5.03-.02-.01-.04-.01-.06-.02l-.08-8.98c64.75-37.59 138.9-24.23 181.14-11.71a21.548 21.548 0 0 0 21.91-5.87zM253.31 467.315l.08 8.98c-80.79-24.93-133.68-15.25-161.34-5.01a32.063 32.063 0 0 1-38.52-13.64l-4.75-7.89a21.538 21.538 0 0 0 21.89 5.85c42.24-12.52 117.89-25.88 182.64 11.71z" fill="#e2decf"></path><path d="m253.16 449.555-1.71-193.57c-24.22-17.48-58.91-25.44-92.32-25.68l-40.55 3.59c-3.14.62-6.19 1.32-9.13 2.09-22.23 5.84-38.4 16.02-42.29 29.75L43.1 431.845a21.591 21.591 0 0 0 27.57 23.76c42.24-12.52 117.89-25.88 182.64 11.71z" fill="#f9f5de"></path><path d="M78.78 449.755a21.343 21.343 0 0 1-5.68-17.91l24.06-166.11c3.89-13.73 20.06-23.91 42.29-29.75 2.94-.77 5.99-1.47 9.13-2.09l29.536-2.615a214.968 214.968 0 0 0-18.986-.975l-40.55 3.59c-3.14.62-6.19 1.32-9.13 2.09-22.23 5.84-38.4 16.02-42.29 29.75L43.1 431.845a21.591 21.591 0 0 0 27.57 23.76c3.525-1.045 7.289-2.1 11.254-3.122a21.89 21.89 0 0 1-3.144-2.728z" fill="#d3ceb6"></path><path d="M149.55 252.055a154.5 154.5 0 0 1-82.6-87.4c-1.36-3.61 6.41-8.38 6.41-8.38s-12.23-10.57-13.07-14.62a154.078 154.078 0 0 1 9.99-93.83l7.48-16.94a156.217 156.217 0 0 1 23.46 12.82 154.094 154.094 0 0 1 20.37 16.17c2.76 2.6-3.02 21.12-.48 23.89 2.72 2.97 13.75-9.8 16.22-6.64a154.769 154.769 0 0 1 21.8 153.18q-.975 2.43-2.04 4.84l-7.47 16.94c-.02-.01-.05-.02-.07-.03z" fill="#d56c70"></path><path d="M148.58 233.9a154.79 154.79 0 0 1-51.63-69.24c-1.36-3.61 6.41-8.38 6.41-8.38s-12.23-10.57-13.07-14.62a154.078 154.078 0 0 1 9.99-93.83l1.613-3.652c-.228-.153-.445-.316-.673-.468a156.217 156.217 0 0 0-23.46-12.82l-7.48 16.94a154.078 154.078 0 0 0-9.99 93.83c.84 4.05 13.07 14.62 13.07 14.62s-7.77 4.77-6.41 8.38a154.5 154.5 0 0 0 82.6 87.4c.02.01.05.02.07.03l5.857-13.282q-3.529-2.376-6.897-4.908z" fill="#ad555c"></path><g fill="#afaa95"><path d="M216.863 354.063c-.112 0-.225 0-.339-.008a1170.115 1170.115 0 0 0-65.84-1.81c-21.386.013-43.055.622-64.4 1.81a6 6 0 0 1-.666-11.983c21.568-1.2 43.458-1.814 65.062-1.827h.736c21.85 0 43.974.614 65.779 1.827a6 6 0 0 1-.328 11.991zM216.858 384.691H188.4a6 6 0 1 1 0-12h28.459a6 6 0 0 1 0 12zM155.672 384.691H85.948a6 6 0 1 1 0-12h69.724a6 6 0 0 1 0 12zM216.865 415.319c-.189 0-.38-.008-.572-.026-21.86-2.067-44.071-3.124-66.011-3.062a692.348 692.348 0 0 0-63.77 3.062 6 6 0 0 1-1.13-11.947 704.11 704.11 0 0 1 64.881-3.115 708.096 708.096 0 0 1 67.16 3.115 6 6 0 0 1-.558 11.973zM151.1 323.436H85.948a6 6 0 1 1 0-12H151.1a6 6 0 0 1 0 12zM216.858 323.436H188.4a6 6 0 0 1 0-12h28.459a6 6 0 0 1 0 12zM220.421 292.808c-.12 0-.24 0-.361-.011-22.845-1.358-46.019-2-68.917-1.938-20.579.065-41.436.717-61.994 1.938a6 6 0 1 1-.711-11.979 1121.965 1121.965 0 0 1 62.667-1.959c23.133-.066 46.573.586 69.666 1.959a6 6 0 0 1-.35 11.99z" fill="#afaa95"></path></g><path d="M283.884 353.154a6 6 0 0 1-6-6v-7.309a6 6 0 0 1 12 0v7.309a6 6 0 0 1-6 6zM283 328.039a6 6 0 0 1-6-5.849l-1.076-42.711a6 6 0 1 1 12-.3L289 321.888a6 6 0 0 1-5.847 6.149z" fill="#f4f8fc"></path><path d="M171.724 322.7a6 6 0 0 1-5.684-4.081l-66.6-197.064a6 6 0 1 1 11.368-3.842l66.6 197.064a6 6 0 0 1-5.684 7.923z" fill="#7f3d32"></path></g></svg>