<svg viewBox="0 0 512 512" xmlns="http://www.w3.org/2000/svg"><g><path d="M328.133 412.582c-32.602 0-59.125-26.523-59.125-59.125 0-32.602 26.523-59.121 59.125-59.121 32.597 0 59.12 26.52 59.12 59.121 0 32.602-26.519 59.125-59.12 59.125zm0-102.582c-23.965 0-43.461 19.496-43.461 43.457 0 23.965 19.496 43.461 43.46 43.461 23.962 0 43.458-19.496 43.458-43.461 0-23.96-19.496-43.457-43.457-43.457zm0 0" fill="#ffc627"></path><path d="M296.621 446.719V512H10.395v-65.281c0-28.051 22.734-50.785 50.773-50.785h184.668c28.05 0 50.785 22.734 50.785 50.785zm0 0" fill="#3b485b"></path><path d="M296.621 446.719 320.117 512H27.793v-65.281c0-28.051 22.734-50.785 50.785-50.785h167.258c28.05 0 50.785 22.734 50.785 50.785zm0 0" fill="#515f75"></path><path d="m62.602 395.941-3.082 78.094 32.828 8.211-29.473 29.473h181.262l-29.473-29.473 32.828-8.21-3.082-78.095" fill="#3b485b"></path><path d="m216.09 395.941-33.067 116.055h-59.03L90.93 395.941" fill="#f2f2f2"></path><path d="m113.063 424.434 40.445 50.629 40.047-50.438-40.047-7.484z" fill="#f74866"></path><path d="m109.508 461.14 44-44 44.004 44 18.578-65.199H90.93zm0 0" fill="#e6e6e6"></path><path d="M191.129 330.734v65.211l-37.621 21.196-11.621-6.547-25.996-14.649v-65.25l25.996.012zm0 0" fill="#f9c2af"></path><path d="m124.2 511.996 29.308-36.933 29.515 36.933" fill="#f74866"></path><path d="m141.887 330.707-25.996-.012v65.246l25.996 14.653v-30.172c3.843.379 7.734.594 11.675.594 13.133 0 25.77-2.145 37.567-6.106v-44.176zM35.469 262.082C15.879 262.082 0 247.867 0 230.332s15.879-31.75 35.469-31.75h195.02c19.59 0 19.59 63.5 0 63.5" fill="#ea9e8f"></path><path d="M271.66 129.09V247.19c0 65.22-52.87 118.094-118.101 118.094-32.602 0-62.137-13.222-83.504-34.59-21.368-21.367-34.586-50.898-34.586-83.504V129.09zm0 0" fill="#f9c2af"></path><path d="M152.723 365.281c-32.282-.219-61.473-13.394-82.668-34.582-21.371-21.379-34.586-50.894-34.586-83.508V129.094h53.168V247.19c0 32.614 7.261 62.13 19.015 83.508 11.567 21.04 27.473 34.172 45.07 34.582zm0 0" fill="#ea9e8f"></path><path d="M226.902 245.902a7.831 7.831 0 0 1-7.832-7.832v-16.41a7.834 7.834 0 0 1 7.832-7.832 7.831 7.831 0 0 1 7.832 7.832v16.41a7.829 7.829 0 0 1-7.832 7.832zM142.883 245.902a7.831 7.831 0 0 1-7.832-7.832v-16.41a7.834 7.834 0 0 1 7.832-7.832 7.834 7.834 0 0 1 7.832 7.832v16.41a7.831 7.831 0 0 1-7.832 7.832zm0 0" fill="#293544"></path><path d="M271.66 129.09v29.597c-8.094 5.797-17.773 10.883-29.27 15.028-42.796 15.414-84.226 10.222-113.519 2.058 0 0-.012 0-.012-.011-25.52-7.102-41.832-16.48-41.832-16.48s-10.77 51.831-51.558 51.831V129.09zm0 0" fill="#ea9e8f"></path><path d="M242.383 161.184c-42.79 15.418-84.215 10.226-113.516 2.062 0 0-.012 0-.012-.012-25.515-7.109-41.828-16.488-41.828-16.488s-10.77 51.832-51.562 51.832c0 0-27.133-48.004-26.285-92.418C9.62 83.13 28.613 65.906 50.2 65.906c4.03 0 8.155.594 12.257 1.875 11.563-31.043 42.105-50.691 75.172-48.68 5.148.32 10.328.731 15.531 1.2.996.086 2 .176 2.996.27.102.007.203.019.309.027C210.437 25.668 265.109 35.539 297.23 0c0 0 53.09 122.3-54.847 161.184zm0 0" fill="#515f75"></path><path d="M137.629 19.102c5.148.32 10.332.73 15.531 1.199-47.62-2.008-85.46 102.87-24.305 142.933-25.515-7.109-41.828-16.488-41.828-16.488s-10.77 51.832-51.562 51.832c0 0-27.133-48.004-26.285-92.418C9.62 83.13 28.613 65.906 50.2 65.906c4.03 0 8.155.594 12.257 1.875 11.563-31.043 42.105-50.687 75.172-48.68zm0 0" fill="#3b485b"></path><path d="M156.484 20.61c-.113-.02-.214-.028-.328-.04.102.012.207.02.309.032zm0 0" fill="#f4af9d"></path><path d="M204.773 286.262c0 10.379-8.418 18.797-18.796 18.797h-.786a18.72 18.72 0 0 1-13.293-5.504 18.735 18.735 0 0 1-5.503-13.293c0-2.07.332-4.063.96-5.922 2.473-7.477 9.524-12.875 17.836-12.875h.786c5.187 0 9.886 2.098 13.293 5.5a18.905 18.905 0 0 1 4.542 7.375c.625 1.86.961 3.851.961 5.922zm0 0" fill="#3b485b"></path><path d="M203.813 280.34h-36.458c2.477-7.477 9.524-12.875 17.836-12.875h.786c5.191 0 9.89 2.098 13.293 5.5a18.905 18.905 0 0 1 4.542 7.375zm0 0" fill="#ffffff"></path><path d="M415.14 211.54v148.73l-175.792-41.797V253.34zm0 0" fill="#ffc627"></path><path d="M415.14 304.246v56.024l-175.792-41.797V294.69zm0 0" fill="#eaad18"></path><path d="M355.363 377.156v48.957h-58.742v-48.957a9.783 9.783 0 0 1 9.785-9.785h39.172c5.399 0 9.785 4.375 9.785 9.785zm0 0" fill="#f4af9d"></path><path d="M355.363 377.156v48.957h-35.07v-48.957a9.778 9.778 0 0 1 9.785-9.785h15.5c5.399 0 9.785 4.375 9.785 9.785zm0 0" fill="#f9c2af"></path><path d="M296.621 426.11h58.738v85.886h-58.738zm0 0" fill="#515f75"></path><path d="M296.621 426.11h23.496v85.886h-23.496zm0 0" fill="#3b485b"></path><g fill="#e6e6e6"><path d="M496.469 285.605h-38.637a7.834 7.834 0 0 1-7.832-7.832 7.834 7.834 0 0 1 7.832-7.832h38.637a7.834 7.834 0 0 1 7.832 7.832 7.834 7.834 0 0 1-7.832 7.832zM457.84 227.863a7.825 7.825 0 0 1-6.559-3.543 7.833 7.833 0 0 1 2.258-10.843l30.285-19.84a7.83 7.83 0 0 1 10.844 2.258 7.833 7.833 0 0 1-2.258 10.843l-30.285 19.84a7.769 7.769 0 0 1-4.285 1.285zM488.11 363.191a7.806 7.806 0 0 1-4.286-1.28l-30.285-19.84a7.833 7.833 0 0 1-2.258-10.844 7.83 7.83 0 0 1 10.844-2.262l30.285 19.844a7.833 7.833 0 0 1-4.3 14.382zm0 0" fill="#e6e6e6"></path></g></g></svg>