<svg viewBox="0 0 512 512" xmlns="http://www.w3.org/2000/svg"><g><path d="M256 22C120.69 22 11 131.69 11 267c0 35.622 7.61 69.463 21.281 100l6.991 1h433.456l6.991-1C493.39 336.463 501 302.622 501 267c0-135.31-109.69-245-245-245z" fill="#b3dafe"></path><g fill="#fed2a4"><path d="M78.891 367h-46.61c11.327 25.301 26.825 48.336 45.61 68.217l1-8.412zM91.891 440.481l1 9.312a245.752 245.752 0 0 0 43.491 31.05l1-6.851V367H91.891zM433.109 367v59.805l1 8.412c18.785-19.881 34.283-42.917 45.61-68.217zM420.109 367h-45.491v106.993l1 6.851a245.804 245.804 0 0 0 43.491-31.05l1-9.312z" fill="#fed2a4"></path></g><path d="M77.891 226.253v208.964a246.47 246.47 0 0 0 15 14.576V240.904z" fill="#596c76"></path><path d="m86 234.174-8.109-7.921v208.964A245.107 245.107 0 0 0 86 443.391z" fill="#465a61"></path><path d="m77.891 77.221 8.932-45.248-1.234.017-.165.008c-2.73 0-5.292-.708-7.52-1.942h-.013z" fill="#596c76"></path><path d="m136.553 277.356-15.701-90.442-1.178-.938c-.416.017-.802.024-1.175.024C99.477 186 84 170.523 84 151.5c0-14.971 9.807-28.324 23.986-32.857l.792-1.284-15.226-87.707a15.38 15.38 0 0 1-7.75 2.327L52.665 199.845a4.999 4.999 0 0 0 1.412 4.545l77.425 75.624c2.082 2.035 5.549.21 5.051-2.658z" fill="#26a6fe"></path><path d="m134.018 262.749-64.511-63.011a5 5 0 0 1-1.412-4.545L96.931 49.115l-3.379-19.462a15.38 15.38 0 0 1-7.75 2.327L52.665 199.845a4.999 4.999 0 0 0 1.412 4.545l77.425 75.624c2.082 2.034 5.55.209 5.052-2.659z" fill="#0593fc"></path><circle cx="85.391" cy="16.5" fill="#8d9ca8" r="16.5"></circle><path d="M85 16.5c0-6.186 3.409-11.568 8.445-14.393A16.406 16.406 0 0 0 85.391 0c-9.113 0-16.5 7.387-16.5 16.5S76.278 33 85.391 33c2.927 0 5.671-.77 8.055-2.107C88.409 28.068 85 22.686 85 16.5z" fill="#7a8c98"></path><g fill="#596c76"><path d="M425.792 31.973a8.566 8.566 0 0 1-.424.965l8.742 44.284V30.055a15.393 15.393 0 0 1-7.5 1.945c-.275 0-.547-.012-.818-.027zM419.109 240.904v208.889a246.77 246.77 0 0 0 15-14.576V226.253z" fill="#596c76"></path></g><path d="M419.109 242.302v207.492a247.95 247.95 0 0 0 8.891-8.356v-207.82z" fill="#465a61"></path><path d="m404.055 124.149-1.547-2.675-27.061 155.881c-.498 2.868 2.97 4.693 5.052 2.659l44.689-43.649.271-3.792z" fill="#ffffff"></path><path d="M459.335 199.845 426.198 31.979a15.38 15.38 0 0 1-7.75-2.327l-15.94 91.822 22.68 114.891 32.736-31.975a5 5 0 0 0 1.411-4.545z" fill="#fea3c6"></path><path d="M459.335 199.845 426.198 31.979a15.38 15.38 0 0 1-7.75-2.327l-15.94 91.822 22.68 114.891 32.736-31.975a5 5 0 0 0 1.411-4.545z" fill="#fea3c6"></path><path d="m402.507 121.474-27.061 155.881c-.498 2.868 2.97 4.693 5.052 2.659l13.352-13.041 17.49-100.751z" fill="#eaf6ff"></path><path d="m430.693 54.748-4.495-22.769a15.38 15.38 0 0 1-7.75-2.327l-15.94 91.822 8.833 44.748z" fill="#fe76a8"></path><circle cx="426.609" cy="16.5" fill="#8d9ca8" r="16.5"></circle><path d="M427 16.5c0-6.022 3.237-11.275 8.055-14.156A16.396 16.396 0 0 0 426.609 0c-9.113 0-16.5 7.387-16.5 16.5s7.387 16.5 16.5 16.5a16.39 16.39 0 0 0 8.445-2.344C430.237 27.775 427 22.522 427 16.5zM364 277.521v-94.819c0-15.964-14.712-28.906-32.861-28.906H180.861c-18.148 0-32.861 12.942-32.861 28.906v94.819z" fill="#7a8c98"></path><path d="M204.861 153.796h-24c-18.148 0-32.861 12.942-32.861 28.906v94.819h24v-94.819c0-15.964 14.712-28.906 32.861-28.906z" fill="#596c76"></path><path d="M186.5 277.521V264c0-4.95-4.05-9-9-9h-32c-4.95 0-9 4.05-9 9v13.521z" fill="#ea9b58"></path><path d="M162 255h-16.5c-4.95 0-9 4.05-9 9v13.521H153V264c0-4.95 4.05-9 9-9z" fill="#d88a55"></path><path d="M375.5 277.521V264c0-4.95-4.05-9-9-9h-32c-4.95 0-9 4.05-9 9v13.521z" fill="#ea9b58"></path><path d="M351 255h-16.5c-4.95 0-9 4.05-9 9v13.521H342V264c0-4.95 4.05-9 9-9z" fill="#d88a55"></path><path d="m204.129 193.035-10.048 8.731a5.796 5.796 0 0 0-1.218 7.272l39.539 68.483h44.195l39.539-68.483a5.795 5.795 0 0 0-1.218-7.272l-10.048-8.731 11.096-16.005a5.796 5.796 0 0 0-.375-7.089l-22.321-25.863c-5.68 4.487-12.842 7.175-20.626 7.175h-33.29c-8.598 0-16.445-3.273-22.365-8.636l-23.582 27.324a5.796 5.796 0 0 0-.375 7.089z" fill="#596c76"></path><path d="m225.141 237.232-16.277-28.193a5.795 5.795 0 0 1 1.218-7.272l10.048-8.731-11.096-16.005a5.796 5.796 0 0 1 .375-7.089l18.033-20.894a33.393 33.393 0 0 1-10.451-6.43l-23.582 27.324a5.796 5.796 0 0 0-.375 7.089l11.096 16.005-10.048 8.731a5.796 5.796 0 0 0-1.218 7.272l32.277 55.906z" fill="#465a61"></path><path d="M285.859 196.849c0 .391-.181.646-.333.792-.208.2-.49.314-.773.314a1.08 1.08 0 0 1-.562-.16L256 180.92l-28.19 16.875c-.177.106-.366.16-.562.16-.533 0-1.107-.423-1.107-1.106h-1v80.672h61.718v-80.672z" fill="#ffffff"></path><path d="M227.81 197.795c-.177.106-.366.16-.562.16-.533 0-1.107-.423-1.107-1.106h-1v80.672H242V189.3z" fill="#eaf6ff"></path><path d="M275.202 192.415 256 180.92l-19.202 11.495 13.272 15.339-12.334 69.767h36.528l-12.334-69.767z" fill="#26a6fe"></path><path d="m242.937 189.905-5.475 3.277 12.608 14.572-12.334 69.767h8.223l11.92-67.425a5.003 5.003 0 0 0-1.142-4.142l-13.089-15.128c-.26-.299-.491-.608-.711-.921z" fill="#0593fc"></path><path d="M281.205 150.134a33.252 33.252 0 0 1-8.56 1.119h-33.29c-2.959 0-5.827-.392-8.56-1.119a7.01 7.01 0 0 0-5.654 6.876v39.84c0 1.634 1.781 2.643 3.183 1.804L256 182.085l27.676 16.568c1.402.839 3.183-.171 3.183-1.804v-39.84a7.01 7.01 0 0 0-5.654-6.875z" fill="#eaf6ff"></path><path d="M242 157.009a6.992 6.992 0 0 1 3.02-5.756h-5.665c-2.959 0-5.827-.392-8.56-1.119a7.01 7.01 0 0 0-5.654 6.876v39.84c0 1.634 1.781 2.643 3.183 1.804L242 190.466z" fill="#d8ecfe"></path><path d="M272.645 151.253h-33.29a33.63 33.63 0 0 1-2.61-.112v8.586c0 .796.316 1.559.879 2.121l16.255 16.255a3 3 0 0 0 4.243 0l16.255-16.255a3 3 0 0 0 .879-2.121v-8.586c-.863.067-1.732.112-2.611.112z" fill="#ea9b58"></path><path d="M254.368 161.849a3 3 0 0 1-.879-2.121v-8.474h-14.135a33.63 33.63 0 0 1-2.61-.112v8.586c0 .796.316 1.559.879 2.121l16.255 16.255a3 3 0 0 0 4.243 0l6.251-6.251z" fill="#d88a55"></path><path d="M136.382 342v138.844C171.762 500.677 212.555 512 256 512s84.238-11.323 119.618-31.156V342z" fill="#bb5d4c"></path><path d="M170 342h-33.618v138.844A244.212 244.212 0 0 0 170 496.46z" fill="#a44f3e"></path><path d="M110 325v8c0 5.523 4.477 10 10 10h272c5.523 0 10-4.477 10-10v-8z" fill="#f6a96c"></path><path d="M150 333v-8h-40v8c0 5.523 4.477 10 10 10h40c-5.523 0-10-4.477-10-10z" fill="#ea9b58"></path><circle cx="256" cy="425" fill="#fed402" r="59"></circle><path d="M230 425c0-26.855 17.949-49.504 42.5-56.644A58.96 58.96 0 0 0 256 366c-32.585 0-59 26.415-59 59s26.415 59 59 59a58.96 58.96 0 0 0 16.5-2.356C247.949 474.504 230 451.855 230 425z" fill="#fac600"></path><path d="M292.633 11.255a25.562 25.562 0 0 0-15.415 5.147 35.956 35.956 0 0 1 6.395 20.502v9.524l.022.035c12.338.091 22.349 10.153 22.349 22.512v8.391h6.799c1.931 0 3.794.294 5.549.837v-41.25c.001-14.192-11.506-25.698-25.699-25.698z" fill="#465a61"></path><path d="M206.016 68.975c0-12.416 10.101-22.517 22.517-22.517h54.936c.268 0 .532.011.798.02l.086-.035v-9.54C284.351 16.522 267.829 0 247.447 0h-38.352c-8.521 0-15.428 6.907-15.428 15.428v62.776a18.705 18.705 0 0 1 5.549-.837h6.799v-8.392z" fill="#596c76"></path><path d="M219 15.428C219 6.907 225.907 0 234.428 0h-25.333c-8.521 0-15.428 6.907-15.428 15.428v62.776a18.705 18.705 0 0 1 5.549-.837h6.799v-8.391c0-9.01 5.321-16.796 12.984-20.393V15.428z" fill="#465a61"></path><g fill="#d88a55"><path d="M206.016 117.914V76.628h-6.799c-10.78 0-19.519 8.739-19.519 19.519v4.564c0 10.78 8.739 19.519 19.519 19.519h6.889a32.911 32.911 0 0 1-.09-2.316zM312.784 76.628h-6.799v41.286c0 .779-.037 1.55-.089 2.316h6.889c10.78 0 19.519-8.739 19.519-19.519v-4.564c-.002-10.78-8.74-19.519-19.52-19.519z" fill="#d88a55"></path></g><path d="M272.645 152.253h-33.29c-18.965 0-34.339-15.374-34.339-34.339V68.975c0-12.988 10.529-23.516 23.516-23.516h54.936c12.988 0 23.517 10.529 23.517 23.516v48.939c-.001 18.965-15.375 34.339-34.34 34.339z" fill="#ea9b58"></path><path d="M234 117.914V68.975c0-12.988 10.529-23.516 23.516-23.516h-28.984c-12.988 0-23.516 10.529-23.516 23.516v48.939c0 18.965 15.374 34.339 34.339 34.339h28.984c-18.965 0-34.339-15.374-34.339-34.339z" fill="#d88a55"></path><path d="M255.993 109.139a7.466 7.466 0 0 1-3.945-1.127l-9.111-5.65a7.5 7.5 0 0 1-2.261-10.574l9.111-13.482a7.5 7.5 0 1 1 12.428 8.398l-4.744 7.02 2.482 1.54a7.5 7.5 0 0 1-3.96 13.875zM227.324 95.162a7.5 7.5 0 0 1-7.5-7.5v-7.47a7.5 7.5 0 0 1 15 0v7.47a7.5 7.5 0 0 1-7.5 7.5zM284.676 95.162a7.5 7.5 0 0 1-7.5-7.5v-7.47a7.5 7.5 0 0 1 15 0v7.47a7.5 7.5 0 0 1-7.5 7.5zM274 133.61h-36a7.5 7.5 0 0 1 0-15h36a7.5 7.5 0 0 1 0 15z" fill="#bb5d4c"></path><path d="m376.685 204.17 18.644 18.644a3.974 3.974 0 0 1 1.171 2.828v51.879h12v-51.879c0-4.274-1.664-8.292-4.686-11.313l-18.644-18.644z" fill="#596c76"></path><path d="M416 326H96c-5.523 0-10-4.477-10-10v-29.478c0-5.523 4.477-10 10-10h320c5.523 0 10 4.477 10 10V316c0 5.523-4.477 10-10 10z" fill="#bb5d4c"></path><path d="M144 309c-5.523 0-10-4.477-10-10v-22.478H96c-5.523 0-10 4.477-10 10V316c0 5.523 4.477 10 10 10h320c5.523 0 10-4.477 10-10v-7z" fill="#a44f3e"></path><path d="m386.855 189.214-32.841-32.841c-.875 8.846-7.93 15.901-16.776 16.776l32.841 32.841a4.383 4.383 0 0 0 6.199 0l10.576-10.576a4.383 4.383 0 0 0 .001-6.2z" fill="#9facba"></path><path d="m376.72 200.496-29.917-29.916a19.603 19.603 0 0 1-8.683 3.451l31.959 31.959a4.383 4.383 0 0 0 6.199 0l4.281-4.281a4.37 4.37 0 0 1-3.839-1.213z" fill="#8d9ca8"></path><circle cx="335.382" cy="154.516" fill="#596c76" r="19.726"></circle><path d="M332.547 154.516c0-7.868 4.618-14.64 11.28-17.806a19.614 19.614 0 0 0-8.446-1.92c-10.895 0-19.726 8.832-19.726 19.726s8.832 19.726 19.726 19.726c3.027 0 5.883-.702 8.446-1.92-6.662-3.166-11.28-9.938-11.28-17.806z" fill="#465a61"></path><path d="m259.778 458.023 30.763-35.477a4.999 4.999 0 0 0 .676-5.547l-11.114-21.79a5 5 0 0 0-4.454-2.728h-39.298a5 5 0 0 0-4.454 2.728l-11.114 21.79a5 5 0 0 0 .676 5.547l30.763 35.477a5.001 5.001 0 0 0 7.556 0z" fill="#fe9901"></path><path d="M246.696 422.546a5 5 0 0 1-.677-5.547l11.114-21.79a5 5 0 0 1 4.454-2.728H236.35a5 5 0 0 0-4.454 2.728l-11.114 21.79a4.999 4.999 0 0 0 .677 5.547l30.763 35.477a5 5 0 0 0 7.555 0l8.841-10.196z" fill="#fb8801"></path><path d="M108.778 117.359C93.9 121.588 83 135.266 83 151.5c0 19.606 15.894 35.5 35.5 35.5.791 0 1.574-.035 2.353-.086z" fill="#ffffff"></path><path d="M94.147 151.5c0-12.174 6.13-22.911 15.471-29.303l-.84-4.838C93.9 121.588 83 135.266 83 151.5c0 19.606 15.894 35.5 35.5 35.5.791 0 1.574-.035 2.353-.086l-.184-1.062c-15.259-3.977-26.522-17.848-26.522-34.352z" fill="#eaf6ff"></path></g></svg>