<svg viewBox="0 0 64 64" xmlns="http://www.w3.org/2000/svg"><g><g><path d="M37 40v-8H27v8l5 5z" fill="#ffb5a2"></path><path d="M18 20.77V11a8 8 0 0 1 8-8h8a4 4 0 0 1 4 4 2 2 0 0 1 2-2h1a5 5 0 0 1 5 5v10.77z" fill="#58595b"></path><path d="m32 45-2.155 1.437-.271 2.754 1.161.387a4 4 0 0 0 2.53 0l1.161-.387-.271-2.754z" fill="#d80027"></path><path d="m24 41-7.072 1.861A16 16 0 0 0 5 58.334V61h23l1.574-11.809.271-2.754L26 49zM47.072 42.861 40 41l-2 8-3.845-2.563.271 2.754L36 61h23v-2.666a16 16 0 0 0-11.928-15.473z" fill="#bddbff"></path><path d="M16.928 45.861 25 44l2 7 2.574-1.809.271-2.754L26 49l-2-8-7.072 1.861A16 16 0 0 0 5 58.334V61h.014a15.994 15.994 0 0 1 11.914-15.139zM47.072 42.861 40 41l-2 8-3.845-2.563.271 2.754L37 51l2-7 8.072 1.861A15.994 15.994 0 0 1 58.986 61H59v-2.666a16 16 0 0 0-11.928-15.473z" fill="#9bc9ff"></path><path d="M33.265 49.578a4 4 0 0 1-2.53 0l-1.161-.387L28 61h8l-1.574-11.809z" fill="#ed1c24"></path><path d="M40 15H24a2 2 0 0 0-2 2v10a10 10 0 0 0 20 0V17a2 2 0 0 0-2-2z" fill="#ffbcab"></path><path d="M44 26a3 3 0 0 0 0-6h-2v6zM20 26h2v-6h-2a3 3 0 0 0 0 6z" fill="#ffb5a2"></path><g fill="#57a4ff"><path d="m40 41-3-1-5 5 6 4zM32 45l-5-5-3 1 2 8zM46 54a1 1 0 0 0-1 1v6h2v-6a1 1 0 0 0-1-1zM18 54a1 1 0 0 0-1 1v6h2v-6a1 1 0 0 0-1-1z" fill="#57a4ff"></path></g><path d="M36 24a1 1 0 0 0 1-1v-1a1 1 0 0 0-2 0v1a1 1 0 0 0 1 1zM36.2 31.1a1 1 0 0 0-1.2-1.6 5.027 5.027 0 0 1-6 0 1 1 0 0 0-1.2 1.6 7.036 7.036 0 0 0 8.4 0zM29 23v-1a1 1 0 0 0-2 0v1a1 1 0 0 0 2 0z" fill="#58595b"></path></g></g></svg>