<svg viewBox="0 0 256 256" xmlns="http://www.w3.org/2000/svg"><g><circle cx="77.856" cy="83.31" fill="#e63950" r="58.7" transform="rotate(-22.48 77.838 83.213)"></circle><path d="M34.08 114.62c-.67 0-1.29-.33-1.66-.891a54.28 54.28 0 0 1-9.26-30.42c0-30.16 24.54-54.7 54.7-54.7 2.12 0 4.25.12 6.32.36 1.1.13 1.89 1.12 1.76 2.22-.12 1.08-1.11 1.88-2.22 1.761-1.93-.23-3.91-.341-5.86-.341-13.53 0-26.25 5.28-35.84 14.87-9.58 9.58-14.86 22.311-14.86 35.83 0 10.08 2.96 19.83 8.58 28.19.3.45.4.979.3 1.51-.1.521-.4.97-.85 1.271-.33.22-.71.34-1.11.34zM91.8 34.479a2.002 2.002 0 0 1-1.93-2.529c.29-1.04 1.41-1.681 2.46-1.4.52.14.95.48 1.21.94.26.47.33 1.01.19 1.52a2 2 0 0 1-1.93 1.469z" fill="#e8566f"></path><path d="M114.063 37.103a58.45 58.45 0 0 1 12.493 36.207c0 32.419-26.281 58.7-58.7 58.7a58.447 58.447 0 0 1-36.207-12.494c10.746 13.695 27.449 22.494 46.207 22.494 32.419 0 58.7-26.281 58.7-58.7 0-18.758-8.798-35.461-22.493-46.207z" fill="#d10028"></path><path d="M77.856 44.124c-5.454 0-9.875 4.421-9.875 9.875v33.326c0 5.454 4.421 9.875 9.875 9.875s9.875-4.421 9.875-9.875V53.999c0-5.454-4.421-9.875-9.875-9.875zM77.856 102.745c-5.454 0-9.875 4.421-9.875 9.875s4.421 9.875 9.875 9.875 9.875-4.421 9.875-9.875c0-5.453-4.421-9.875-9.875-9.875z" fill="#ffffff"></path><circle cx="178.144" cy="83.31" fill="#ffa91a" r="58.7" transform="rotate(-45 178.142 83.349)"></circle><path d="M214.351 37.103a58.45 58.45 0 0 1 12.493 36.207c0 32.419-26.281 58.7-58.7 58.7a58.447 58.447 0 0 1-36.207-12.494c10.746 13.695 27.449 22.494 46.207 22.494 32.419 0 58.7-26.281 58.7-58.7 0-18.758-8.798-35.461-22.493-46.207z" fill="#f79219"></path><path d="M178.144 44.124c-5.454 0-9.875 4.421-9.875 9.875v33.326c0 5.454 4.421 9.875 9.875 9.875s9.875-4.421 9.875-9.875V53.999c0-5.454-4.421-9.875-9.875-9.875zM178.144 102.745c-5.454 0-9.875 4.421-9.875 9.875s4.421 9.875 9.875 9.875 9.875-4.421 9.875-9.875c0-5.453-4.421-9.875-9.875-9.875z" fill="#ffffff"></path><circle cx="127.59" cy="172.69" fill="#76a34f" r="58.7"></circle><path d="M163.797 126.483a58.447 58.447 0 0 1 12.494 36.207c0 32.419-26.281 58.7-58.7 58.7a58.452 58.452 0 0 1-36.207-12.493c10.746 13.695 27.449 22.493 46.207 22.493 32.419 0 58.7-26.281 58.7-58.7-.001-18.758-8.799-35.461-22.494-46.207z" fill="#648940"></path><path d="M166.522 128.757c9.189 10.361 14.768 23.995 14.768 38.933 0 32.419-26.281 58.7-58.7 58.7-14.937 0-28.571-5.579-38.932-14.768 10.754 12.126 26.45 19.768 43.932 19.768 32.419 0 58.7-26.281 58.7-58.7 0-17.482-7.642-33.179-19.768-43.933z" fill="#5a7a39"></path><path d="M127.59 133.504c-5.454 0-9.875 4.421-9.875 9.875v33.326c0 5.453 4.421 9.875 9.875 9.875s9.875-4.421 9.875-9.875v-33.326c0-5.454-4.421-9.875-9.875-9.875zM127.59 192.125c-5.454 0-9.875 4.421-9.875 9.875s4.421 9.875 9.875 9.875 9.875-4.421 9.875-9.875c0-5.453-4.421-9.875-9.875-9.875z" fill="#ffffff"></path></g></svg>