<svg id="Layer_1" height="512" viewBox="0 0 512 512" width="512" xmlns="http://www.w3.org/2000/svg" data-name="Layer 1"><rect fill="#2d4a60" height="362.667" rx="53.333" width="490.667" x="10.666" y="74.667"/><g fill="#eaeff0"><path d="m64 192a10.667 10.667 0 0 1 -10.667-10.667v-42.666a21.358 21.358 0 0 1 21.333-21.334h42.667a10.667 10.667 0 0 1 0 21.334h-42.667v42.666a10.667 10.667 0 0 1 -10.666 10.667z"/><path d="m437.333 394.667h-42.667a10.667 10.667 0 0 1 0-21.334h42.667v-42.666a10.667 10.667 0 1 1 21.333 0v42.666a21.357 21.357 0 0 1 -21.333 21.334z"/><path d="m448 192a10.667 10.667 0 0 1 -10.667-10.667v-42.666h-42.667a10.667 10.667 0 0 1 0-21.334h42.667a21.357 21.357 0 0 1 21.333 21.334v42.666a10.667 10.667 0 0 1 -10.666 10.667z"/><path d="m117.333 394.667h-42.667a21.357 21.357 0 0 1 -21.333-21.334v-42.666a10.667 10.667 0 1 1 21.333 0v42.666h42.667a10.667 10.667 0 1 1 0 21.334z"/><path d="m307.966 224a10.667 10.667 0 1 0 0-21.333h-42.666a10.667 10.667 0 0 0 -10.667 10.667v85.337a10.667 10.667 0 0 0 10.667 10.664h42.665a10.667 10.667 0 1 0 0-21.333h-32v-21.335h32a10.667 10.667 0 0 0 0-21.334h-32v-21.333z"/><path d="m403.124 278.629a32 32 0 1 1 0-45.258 10.666 10.666 0 1 0 15.085-15.084 53.336 53.336 0 1 0 0 75.425 10.666 10.666 0 1 0 -15.085-15.083z"/><path d="m241.835 234.666a32.036 32.036 0 0 0 -32-32h-33.829a10.667 10.667 0 0 0 -10.667 10.667v85.337a10.667 10.667 0 0 0 21.334 0v-26.039l37.32 33.93a10.666 10.666 0 1 0 14.35-15.785l-26.581-24.167a32.042 32.042 0 0 0 30.073-31.943zm-32 10.667h-23.162v-21.333h23.162a10.668 10.668 0 0 1 0 21.335z"/></g><circle cx="101.333" cy="256" fill="#fd3730" r="32"/></svg>