<svg viewBox="0 0 58 58" xmlns="http://www.w3.org/2000/svg"><g><g fill="none" fill-rule="nonzero"><path d="M15.39 12.58.73 27.24a2.493 2.493 0 0 0 0 3.52l4.93 4.93 9.56 9.56 1.47 1.47 4.11 4.11 6.44 6.44a2.487 2.487 0 0 0 3.52 0l6.44-6.44 4.11-4.11 1.47-1.47 9.56-9.56 4.93-4.93c.97-.973.97-2.547 0-3.52L42.61 12.58l-6.15-6.15-5.7-5.7a2.487 2.487 0 0 0-3.52 0l-5.7 5.7z" fill="#e64c3c"></path><g fill="#c03a2b"><path d="m57.27 30.76-4.93 4.93a3.5 3.5 0 0 0-6.15 3.02 2.6 2.6 0 0 0 .16.47L29 43.59V39.1c1.813 0 3.617-.252 5.36-.75.45-.17.89-.27 1.27-.46.33-.187.53-.54.52-.92-.024-.924.064-1.847.26-2.75a2.447 2.447 0 0 1 2.26-2.03c.596-.069 1.185-.19 1.76-.36A3.173 3.173 0 0 0 42.57 29a5.189 5.189 0 0 0-.18-2.41 8.388 8.388 0 0 1-.09-4.96c.455-1.457.746-2.96.87-4.48.123-1.546-.067-3.1-.56-4.57l14.66 14.66c.97.973.97 2.547 0 3.52zM36.46 6.43c-.44-.19-.9-.35-1.36-.5A19.851 19.851 0 0 0 29 5V0a2.451 2.451 0 0 1 1.76.73zM37.2 50.83l-6.44 6.44A2.451 2.451 0 0 1 29 58v-9.25z" fill="#c03a2b"></path></g><path d="M42.3 21.63a8.388 8.388 0 0 0 .09 4.96c.249.778.31 1.604.18 2.41a3.173 3.173 0 0 1-2.14 2.83c-.575.17-1.164.291-1.76.36a2.447 2.447 0 0 0-2.26 2.03 11.555 11.555 0 0 0-.26 2.75c.01.38-.19.733-.52.92-.38.19-.82.29-1.27.46-.12.03-.24.07-.36.1-.66.17-1.33.31-2 .42-.663.102-1.33.169-2 .2-1.337.07-2.678 0-4-.21-.674-.1-1.342-.24-2-.42a1.462 1.462 0 0 1-.2-.05l-.16-.04c-.45-.17-.89-.27-1.27-.46-.33-.187-.53-.54-.52-.92a11.555 11.555 0 0 0-.26-2.75 2.447 2.447 0 0 0-2.26-2.03 10.365 10.365 0 0 1-1.76-.36A3.173 3.173 0 0 1 15.43 29a5.189 5.189 0 0 1 .18-2.41c.53-1.606.56-3.335.09-4.96a20.646 20.646 0 0 1-.87-4.48c-.123-1.546.067-3.1.56-4.57a9.482 9.482 0 0 1 2.17-3.48 11.773 11.773 0 0 1 3.98-2.67c.44-.19.9-.35 1.36-.5a20.47 20.47 0 0 1 12.2 0c.46.15.92.31 1.36.5a11.773 11.773 0 0 1 3.98 2.67 9.482 9.482 0 0 1 2.17 3.48c.493 1.47.683 3.024.56 4.57a20.646 20.646 0 0 1-.87 4.48z" fill="#f5efca"></path><path d="M19 24.923c-.013.7.16 1.39.5 2a2.322 2.322 0 0 0 1.889 1.035 7.97 7.97 0 0 0 3.961-.607 2.564 2.564 0 0 0 1.43-1.317 2.707 2.707 0 0 0-1.784-3.67 7.8 7.8 0 0 0-4.17-.15A2.552 2.552 0 0 0 19 24.923zM37.178 22.216a7.8 7.8 0 0 0-4.17.15 2.707 2.707 0 0 0-1.784 3.67c.285.61.799 1.083 1.43 1.317a7.97 7.97 0 0 0 3.961.607 2.322 2.322 0 0 0 1.885-1.035c.34-.61.513-1.3.5-2a2.552 2.552 0 0 0-1.822-2.709zM29 32.585c-.53 0-1.04-.21-1.414-.585l-1.293-1.293a1 1 0 0 1 1.414-1.414L29 30.586l1.293-1.293a1 1 0 0 1 1.414 1.414L30.414 32a1.993 1.993 0 0 1-1.414.585z" fill="#5f5346"></path><path d="M26 37v1.86c-.674-.1-1.342-.24-2-.42V37a1 1 0 0 1 2 0zM30 37v2.07c-.666.04-1.334.04-2 0V37a1 1 0 0 1 2 0zM34 37v1.45c-.66.17-1.33.31-2 .42V37a1 1 0 0 1 2 0z" fill="#cbb292"></path><path d="M54.45 49.55a3.464 3.464 0 0 1-2.39 2.48 3.5 3.5 0 1 1-5.87 1.61c.037-.165.09-.326.16-.48l-9.15-2.33-8.2-2.08-10.14-2.58h-.01l-3.63-.92-4.8-1.22c-.015.166-.046.33-.09.49a3.509 3.509 0 0 1-.96 1.65 3.5 3.5 0 0 1-4.86.01 3.5 3.5 0 0 1 1.43-5.87 3.5 3.5 0 0 1-.91-3.33c.115-.47.33-.91.63-1.29a3.5 3.5 0 0 1 6.15 3.02 2.6 2.6 0 0 1-.16.47l17.34 4.41H29l10.13 2.58h.01l2.17.55 6.27 1.6a3.508 3.508 0 0 1 4.34-3.03 3.4 3.4 0 0 1 1.57.89 3.469 3.469 0 0 1 .96 3.37z" fill="#f9eab0"></path><path d="m42.78 45.25-1.47 1.47-2.17-.55z" fill="#c03a2b"></path><path d="M53.49 46.18a3.4 3.4 0 0 0-1.57-.89 3.5 3.5 0 0 0-3.29.88 3.509 3.509 0 0 1-.96-1.65 2.809 2.809 0 0 1-.09-.49l-4.8 1.22-3.64.92h-.01L29 43.59l17.35-4.41a2.6 2.6 0 0 1-.16-.47 3.5 3.5 0 0 1 6.15-3.02c.3.38.515.82.63 1.29a3.5 3.5 0 0 1-.91 3.33 3.5 3.5 0 0 1 1.43 5.87zM20.8 50.83l-9.15 2.33c.07.154.123.315.16.48a3.5 3.5 0 1 1-5.87-1.61 3.483 3.483 0 0 1-1.43-5.85 3.5 3.5 0 0 0 4.86-.01 3.509 3.509 0 0 1 1.05 2.15l6.27-1.6 2.16-.55h.01L29 48.75z" fill="#cbb292"></path><path d="M18.805 17h-.027a1 1 0 0 1-.973-1.026 6.744 6.744 0 0 1 1.915-4.787 9.515 9.515 0 0 1 4.086-2.393c.353-.112.709-.214 1.068-.3a1 1 0 0 1 .479 1.942c-.315.078-.628.166-.939.265a7.6 7.6 0 0 0-3.256 1.877 4.8 4.8 0 0 0-1.354 3.45 1 1 0 0 1-.999.972zM6.657 32.187a1 1 0 0 1-.707-.293l-2.187-2.187a1 1 0 0 1 0-1.414l3.687-3.687a1 1 0 1 1 1.414 1.415L5.884 29l1.48 1.479a1 1 0 0 1-.707 1.708zM51.343 32.187a1 1 0 0 1-.707-1.708L52.116 29l-2.98-2.979a1 1 0 0 1 1.414-1.415l3.687 3.687a1 1 0 0 1 0 1.414l-2.187 2.187a1 1 0 0 1-.707.293z" fill="#ffffff"></path></g></g></svg>