<svg viewBox="0 0 60 60" xmlns="http://www.w3.org/2000/svg"><g><path d="M21.22 45H3a2.006 2.006 0 0 1-2-2 28.936 28.936 0 0 1 11.46-23.09L15 20l10 14-.44 1.84z" fill="#d3374e"></path><path d="m24.56 35.84-12.1-15.93a28.983 28.983 0 0 1 35.08 0L48 22 37 36l-1.56-.16z" fill="#fdc70e"></path><path d="m35.44 35.84 12.1-15.93A28.936 28.936 0 0 1 59 43a2.006 2.006 0 0 1-2 2H38.78z" fill="#23af6f"></path><path d="M39 43a9.356 9.356 0 0 1-.22 2H21.22a9.356 9.356 0 0 1-.22-2 8.979 8.979 0 0 1 3.56-7.16 8.731 8.731 0 0 1 4.27-1.76h2.34a8.731 8.731 0 0 1 4.27 1.76A8.979 8.979 0 0 1 39 43z" fill="#d4e6e7"></path><path d="M33 42.985a3 3 0 1 1-6 0c0-2.322 1.778-8.813 2.6-11.678a.419.419 0 0 1 .808 0C31.222 34.172 33 40.663 33 42.985z" fill="#30454d"></path><path d="M27 23a1 1 0 0 1-1-1v-1a1 1 0 0 1 2 0v1a1 1 0 0 1-1 1zM33 23a1 1 0 0 1-1-1v-1a1 1 0 0 1 2 0v1a1 1 0 0 1-1 1z" fill="#203135"></path><path d="M32 28h-4a1 1 0 0 1 0-2h4a1 1 0 0 1 0 2z" fill="#d39518"></path><path d="M45 36a1 1 0 0 1-1-1v-1a1 1 0 0 1 2 0v1a1 1 0 0 1-1 1zM51 36a1 1 0 0 1-1-1v-1a1 1 0 0 1 2 0v1a1 1 0 0 1-1 1z" fill="#203135"></path><path d="M48 41a4 4 0 0 1-2.981-1.333 1 1 0 1 1 1.49-1.334 2.066 2.066 0 0 0 2.982 0 1 1 0 0 1 1.49 1.334A4 4 0 0 1 48 41z" fill="#1b8c56"></path><path d="M9 36a1 1 0 0 1-1-1v-1a1 1 0 0 1 2 0v1a1 1 0 0 1-1 1zM15 36a1 1 0 0 1-1-1v-1a1 1 0 0 1 2 0v1a1 1 0 0 1-1 1z" fill="#203135"></path><path d="M14.236 41a1 1 0 0 1-.744-.332 2.065 2.065 0 0 0-2.984 0 1 1 0 0 1-1.488-1.336 4 4 0 0 1 5.96 0A1 1 0 0 1 14.236 41z" fill="#ad2d46"></path></g></svg>