<svg viewBox="0 0 128 128" xmlns="http://www.w3.org/2000/svg"><g><path d="M72.882 7H7v40.675s37.678-5.316 57.117-14.42c0 0-8.063 16.36.056 32.46a43.939 43.939 0 0 1 4.512 15.027c.476 3.925.829 7.8 1.082 11.07a29.645 29.645 0 0 1-2.357 13.968 19.775 19.775 0 0 0-1.692 7.709A7.511 7.511 0 0 0 73.229 121H76.5a19.4 19.4 0 0 0 6.5-1.121 14.6 14.6 0 0 1 8.467-.391A49.029 49.029 0 0 0 103.216 121a55.823 55.823 0 0 0 7.333-.928 23.861 23.861 0 0 0 5.128.868c3.932 0 5.323-2.179 5.323-6.737l-9-1.506a162.368 162.368 0 0 0-15.76-8.227 13.6 13.6 0 0 1-8.04-12.432l.19-69.53A15.508 15.508 0 0 0 72.882 7z" fill="#fcbfab"></path><g fill="#fca17a"><path d="m79.515 30.383 1.2.665a1.75 1.75 0 0 0 1.7-3.059l-1.2-.665A6.931 6.931 0 0 1 77.8 22.7l-1.063-5.023a1.749 1.749 0 1 0-3.423.725l1.062 5.022a10.431 10.431 0 0 0 5.139 6.959zM77.218 97.885a1.75 1.75 0 0 0-2.431.465c-1.2 1.76-2.512 5.865 1.06 8.8a1.75 1.75 0 1 0 2.221-2.7c-1.91-1.569-.655-3.717-.379-4.138a1.75 1.75 0 0 0-.471-2.427z" fill="#fca17a"></path></g></g></svg>