<svg viewBox="0 0 128 128" xmlns="http://www.w3.org/2000/svg"><g><path d="M107.13 121s.372-9.079 4.46-23.832c6.591-23.785 5.942-39.394-1.82-57.438A115.1 115.1 0 0 1 100.9 7H27.1a115.1 115.1 0 0 1-8.87 32.73c-7.762 18.044-8.411 33.653-1.82 57.438C20.5 111.921 20.87 121 20.87 121h39.776c0-14.233-.627-25.665-1.449-34.54A25.929 25.929 0 0 0 64 71.384a25.929 25.929 0 0 0 4.8 15.076c-.822 8.874-1.449 20.307-1.449 34.54z" fill="#fcbfab"></path><g fill="#fca17a"><path d="M37.949 95.685a1.75 1.75 0 0 0 0 3.5A27.847 27.847 0 0 0 64 81.1a27.847 27.847 0 0 0 26.051 18.085 1.75 1.75 0 0 0 0-3.5 24.328 24.328 0 0 1-24.3-24.3v-7.53c0-10.646 6.766-15.6 7.049-15.8a1.75 1.75 0 1 0-2.01-2.866A21.452 21.452 0 0 0 64 54.415a21.452 21.452 0 0 0-6.789-9.223 1.75 1.75 0 0 0-2.01 2.866c.071.049 7.049 5.066 7.049 15.8v7.529a24.328 24.328 0 0 1-24.301 24.298zM65.75 26.84V7h-3.5v19.84a1.75 1.75 0 1 0 3.5 0z" fill="#fca17a"></path></g></g></svg>