<svg id="Layer_1" enable-background="new 0 0 64 64" height="512" viewBox="0 0 64 64" width="512" xmlns="http://www.w3.org/2000/svg"><g><g><path d="m59.82 56.01h-55.64c-2.31 0-4.18-1.87-4.18-4.18v-33.97c0-2.31 1.87-4.18 4.18-4.18h55.64c2.31 0 4.18 1.87 4.18 4.18v33.97c0 2.31-1.87 4.18-4.18 4.18z" fill="#e5e5e5"/><path d="m0 24.97h64v19.75h-64z" fill="#687e87"/><ellipse cx="32" cy="34.85" fill="#455b6a" rx="16.62" ry="16.62" transform="matrix(.16 -.987 .987 .16 -7.524 60.853)"/><ellipse cx="32" cy="34.85" fill="#e5e5e5" rx="12.84" ry="12.84" transform="matrix(.16 -.987 .987 .16 -7.524 60.853)"/><ellipse cx="32" cy="34.85" fill="#5bcaee" rx="8.77" ry="8.77" transform="matrix(.924 -.383 .383 .924 -10.9 14.899)"/></g><path d="m44.84 13.68h-25.68l2.84-5.16c.18-.33.53-.54.92-.54h18.18c.38 0 .73.21.92.54z" fill="#c6c1c1"/><path d="m15.06 13.68h-6.67v-2.53c0-.58.47-1.05 1.05-1.05h4.57c.58 0 1.05.47 1.05 1.05z" fill="#516c72"/><path d="m57.26 21.91h-8.75c-.56 0-1.02-.46-1.02-1.02v-3.14c0-.56.46-1.02 1.02-1.02h8.75c.56 0 1.02.46 1.02 1.02v3.14c0 .57-.45 1.02-1.02 1.02z" fill="#dd655b"/></g></svg>