<svg viewBox="0 0 48 48" xmlns="http://www.w3.org/2000/svg"><g><path d="M22 22h-5v4a1 1 0 0 0 1 1h3a1 1 0 0 0 1-1zM43 22h-5v4a1 1 0 0 0 1 1h3a1 1 0 0 0 1-1z" fill="#2d3e4f"></path><path d="m42.88 15.669-3.401-9.352A2 2 0 0 0 37.599 5H22.401a2 2 0 0 0-1.88 1.317l-3.401 9.352c-.08.219-.12.45-.12.683V23a2 2 0 0 0 2 2h22a2 2 0 0 0 2-2v-6.648c0-.233-.041-.464-.12-.683z" fill="#03a9f4"></path><path d="m39.743 12.664-1.786-5A1 1 0 0 0 37.016 7H22.984a1 1 0 0 0-.942.664l-1.786 5A1 1 0 0 0 21.199 14h17.603a1 1 0 0 0 .941-1.336z" fill="#37474f"></path><path d="M40 22H20a1 1 0 0 1-1-1v-4a1 1 0 0 1 1-1h20a1 1 0 0 1 1 1v4a1 1 0 0 1-1 1z" fill="#1e88e5"></path><circle cx="38" cy="19" fill="#e3f2fd" r="2"></circle><circle cx="22" cy="19" fill="#e3f2fd" r="2"></circle><path d="M10 30H5v4a1 1 0 0 0 1 1h3a1 1 0 0 0 1-1zM31 30h-5v4a1 1 0 0 0 1 1h3a1 1 0 0 0 1-1z" fill="#2d3e4f"></path><path d="m30.88 23.669-3.401-9.352A2 2 0 0 0 25.599 13H10.401a2 2 0 0 0-1.88 1.317L5.12 23.669c-.079.219-.12.45-.12.683V31a2 2 0 0 0 2 2h22a2 2 0 0 0 2-2v-6.648c0-.233-.041-.464-.12-.683z" fill="#26a69a"></path><path d="m27.743 20.664-1.786-5a1 1 0 0 0-.941-.664H10.984a1 1 0 0 0-.942.664l-1.786 5A1 1 0 0 0 9.199 22h17.603a1 1 0 0 0 .941-1.336z" fill="#37474f"></path><path d="M28 30H8a1 1 0 0 1-1-1v-4a1 1 0 0 1 1-1h20a1 1 0 0 1 1 1v4a1 1 0 0 1-1 1z" fill="#00897b"></path><circle cx="26" cy="27" fill="#e3f2fd" r="2"></circle><circle cx="10" cy="27" fill="#e3f2fd" r="2"></circle><path d="M18 38h-5v4a1 1 0 0 0 1 1h3a1 1 0 0 0 1-1zM39 38h-5v4a1 1 0 0 0 1 1h3a1 1 0 0 0 1-1z" fill="#2d3e4f"></path><path d="m38.88 31.669-3.401-9.352A2 2 0 0 0 33.599 21H18.401a2 2 0 0 0-1.88 1.317l-3.401 9.352c-.08.219-.12.45-.12.683V39a2 2 0 0 0 2 2h22a2 2 0 0 0 2-2v-6.648c0-.233-.041-.464-.12-.683z" fill="#ff9800"></path><path d="m35.743 28.664-1.786-5a1 1 0 0 0-.941-.664H18.984a1 1 0 0 0-.942.664l-1.786 5A1 1 0 0 0 17.199 30h17.603a1 1 0 0 0 .941-1.336z" fill="#37474f"></path><path d="M36 38H16a1 1 0 0 1-1-1v-4a1 1 0 0 1 1-1h20a1 1 0 0 1 1 1v4a1 1 0 0 1-1 1z" fill="#ef6c00"></path><g fill="#e3f2fd"><circle cx="34" cy="35" fill="#e3f2fd" r="2"></circle><circle cx="18" cy="35" fill="#e3f2fd" r="2"></circle></g></g></svg>