<svg viewBox="0 0 54 54" xmlns="http://www.w3.org/2000/svg"><g><path d="m52.206 26.021-13.863-2.918c-.16-.472-.35-.93-.564-1.372l7.736-11.862a1 1 0 0 0-1.384-1.384L32.27 16.22c-.441-.215-.9-.403-1.372-.564L27.979 1.794a1 1 0 0 0-1.958 0l-2.918 13.863c-.472.16-.93.35-1.372.564L9.87 8.485a1 1 0 0 0-1.384 1.384L16.22 21.73c-.215.441-.403.9-.564 1.372L1.794 26.021a1 1 0 0 0 0 1.958l13.863 2.918c.16.472.35.93.564 1.372L8.485 44.13a1 1 0 0 0 1.384 1.384L21.73 37.78c.441.215.9.403 1.372.564l2.918 13.863a1 1 0 0 0 1.958 0l2.918-13.863c.472-.16.93-.35 1.372-.564l11.862 7.736a1 1 0 0 0 1.384-1.384L37.78 32.27c.215-.441.403-.9.564-1.372l13.863-2.918a1 1 0 0 0 0-1.958z" fill="#f9a825"></path><g fill="#d50000"><path d="M24.526 28.105h5.264a1 1 0 0 0 .997-.923l1.316-17.105a1 1 0 0 0-1.14-1.067l-9.21 1.316a1 1 0 0 0-.845 1.154l2.632 15.79a1 1 0 0 0 .986.835zM29.79 30.053h-5.264a1 1 0 0 0-1 1V35a1 1 0 0 0 1 1h5.264a1 1 0 0 0 1-1v-3.947a1 1 0 0 0-1-1z" fill="#d50000"></path></g></g></svg>