<svg viewBox="0 0 60 44" xmlns="http://www.w3.org/2000/svg"><g><g fill="none"><path d="m49.96 3.46-.14.54-2.57 10-3.167 1-3.333-1-2.57-10-.14-.54A3 3 0 0 1 41.01 0H47a3 3 0 0 1 2.96 3.46z" fill="#2c2f38"></path><path d="m49.82 4-2.57 10h-6.5L38.18 4z" fill="#393f4a"></path><path d="m56 32-9.5 1.5A4.494 4.494 0 0 0 42 38a4.494 4.494 0 0 0-4.5-4.5c-2.49 0-3.062.51-3.062 3 0 .53-1.348 1.03-1.178 1.5h-4.07c.52-.88-.19-1.9-.19-3 0-3.31-1.69-4.5-5-4.5a5.981 5.981 0 0 0-5.65 4h-.7a5.981 5.981 0 0 0-5.65-4c-2.22 0-4.16.71-5.19 2.5L1 32a3.7 3.7 0 0 1 2-3V9a2.006 2.006 0 0 1-2-2c-.003-.53.21-1.04.59-1.41.37-.38.88-.593 1.41-.59h22a2.006 2.006 0 0 1 2 2 2.015 2.015 0 0 1-2 2v8h3a2.015 2.015 0 0 1 2-2h2a2.006 2.006 0 0 1 2 2h3s0-2.55 3.75-3h6.5C51 14.45 51 17 51 17s3 2 3 4v8a3.7 3.7 0 0 1 2 3z" fill="#7f8c8d"></path><path d="M30 35a5.857 5.857 0 0 1-.81 3 5.99 5.99 0 0 1-10.84-1H24a2.015 2.015 0 0 0 2-2 2.006 2.006 0 0 0-2-2h-5.65A6 6 0 0 1 30 35zM12 37h5.65a5.992 5.992 0 0 1-11.56-1 5.857 5.857 0 0 1 .72-4 5.99 5.99 0 0 1 10.84 1H12a2.015 2.015 0 0 0-2 2 2.006 2.006 0 0 0 2 2zM37.5 32a4.494 4.494 0 0 0-4.24 6 4.5 4.5 0 1 0 4.24-6zm0 6a1.5 1.5 0 1 1 0-3 1.5 1.5 0 0 1 0 3z" fill="#c03a2b"></path><path d="M3 21h51v4H3z" fill="#e64c3c"></path><path d="M21 9h4v12h-4zM3 9h4v12H3z" fill="#c03a2b"></path><path d="M56 32h-9.5a4.494 4.494 0 0 0-4.5 4.5 4.5 4.5 0 1 0-8.74 1.5h-4.07a5.857 5.857 0 0 0 .81-3 6 6 0 0 0-11.65-2h-.7a5.99 5.99 0 0 0-10.84-1H1a3.7 3.7 0 0 1 2-3v-4h51v4a3.7 3.7 0 0 1 2 3z" fill="#393f4a"></path><path d="M46.5 32a4.5 4.5 0 1 0 4.24 6 4.494 4.494 0 0 0-4.24-6zm0 6a1.5 1.5 0 1 1 0-3 1.5 1.5 0 0 1 0 3z" fill="#c03a2b"></path><path d="M58.13 38h-7.39a4.494 4.494 0 0 0-4.24-6H56l2.96 4.45a.994.994 0 0 1-.83 1.55zM6 35c0 .335.03.67.09 1H3a2.006 2.006 0 0 1-2-2v-2h5.81A5.857 5.857 0 0 0 6 35z" fill="#e64c3c"></path><path d="M7 9h8v12H7z" fill="#3b97d3"></path><path d="M15 9h6v12h-6z" fill="#2980ba"></path><circle cx="37.5" cy="36.5" fill="#bdc3c7" r="1.5"></circle><circle cx="46.5" cy="36.5" fill="#bdc3c7" r="1.5"></circle><path d="M54 44H6a1 1 0 0 1 0-2h48a1 1 0 0 1 0 2zM2 44H1a1 1 0 0 1 0-2h1a1 1 0 0 1 0 2zM59 44h-1a1 1 0 0 1 0-2h1a1 1 0 0 1 0 2z" fill="#393f4a"></path><g fill="#2c2f38"><path d="M24 42a6.979 6.979 0 0 1-6.595-4.672 1 1 0 0 1 1.889-.656 4.991 4.991 0 0 0 9.03.829A4.849 4.849 0 0 0 29 35a5 5 0 0 0-9.706-1.672 1 1 0 0 1-1.889-.656A7 7 0 0 1 31 35a6.908 6.908 0 0 1-.948 3.509A7 7 0 0 1 24 42z" fill="#2c2f38"></path><path d="M12 42a6.96 6.96 0 0 1-6.9-5.837A6.361 6.361 0 0 1 5 35a6.908 6.908 0 0 1 .948-3.509A6.991 6.991 0 0 1 18.6 32.672a1 1 0 0 1-1.889.656 4.991 4.991 0 0 0-9.03-.829 4.849 4.849 0 0 0-.608 3.318 4.992 4.992 0 0 0 9.633.855 1 1 0 0 1 1.889.656A6.979 6.979 0 0 1 12 42zM37.5 42a5.5 5.5 0 1 1 5.5-5.5 5.507 5.507 0 0 1-5.5 5.5zm0-9a3.5 3.5 0 1 0 0 7 3.5 3.5 0 0 0 0-7z" fill="#2c2f38"></path><path d="M46.5 42a5.5 5.5 0 1 1 5.5-5.5 5.507 5.507 0 0 1-5.5 5.5zm0-9a3.5 3.5 0 1 0 0 7 3.5 3.5 0 0 0 0-7z" fill="#2c2f38"></path></g><path d="M26 35a2.015 2.015 0 0 1-2 2H12a2.006 2.006 0 0 1-2-2 2.015 2.015 0 0 1 2-2h12a2.006 2.006 0 0 1 2 2z" fill="#e4c05c"></path></g></g></svg>