<svg viewBox="0 0 512 512" xmlns="http://www.w3.org/2000/svg"><g><path d="M83.747 459.91a24.793 24.793 0 0 1-.702 6.701c-2.643 10.748-12.338 18.781-23.975 18.781-13.949 0-25.121-11.543-24.677-25.482l7.682-306.562h33.99l7.682 306.562z" fill="#acabb1"></path><path d="M83.747 459.91a24.793 24.793 0 0 1-.702 6.701c-13.619-.382-24.398-11.76-23.965-25.462l7.207-287.801h9.778l7.682 306.562z" fill="#c6c5ca"></path><path d="M118.14 137.509a42.92 42.92 0 0 1-4.615 19.401c-7.155 14.187-21.889 23.985-38.781 23.985H43.396C19.535 180.895 0 161.36 0 137.509L11.812 36.251c0-5.307 3.48-9.644 7.723-9.644 2.819 0 5.369 1.146 7.217 2.984a10.208 10.208 0 0 1 2.984 7.217v65.44c0 .248.01.496.031.743.32 4.491 3.603 8.384 8.095 9.076 5.968.929 11.161-3.717 11.161-9.52V36.654c0-5.555 4.502-10.046 10.046-10.046 2.767 0 5.286 1.125 7.104 2.943a10.012 10.012 0 0 1 2.943 7.104v65.595c0 4.801 3.376 9.086 8.126 9.819 5.968.929 11.161-3.717 11.161-9.52V36.654a10.037 10.037 0 0 1 10.046-10.046h.155c4.244 0 7.723 4.337 7.723 9.644l11.813 101.257z" fill="#d8d7da"></path><path d="M504.225 460.746a18.884 18.884 0 0 1-.289 3.985c-1.6 9.2-9.726 16.252-19.566 16.252-11.223 0-20.216-9.169-19.855-20.237l6.174-243.259h27.361l6.175 243.259z" fill="#acabb1"></path><path d="M504.225 460.746a18.884 18.884 0 0 1-.289 3.985c-10.015-1.239-17.666-9.85-17.336-20.072l5.761-227.172h5.689l6.175 243.259z" fill="#c6c5ca"></path><path d="M118.14 137.509a42.92 42.92 0 0 1-4.615 19.401 43.036 43.036 0 0 1-10.387 1.27H71.79c-23.861 0-43.396-19.535-43.396-43.386l1.373-11.802c.32 4.491 3.603 8.384 8.095 9.076 5.968.929 11.161-3.717 11.161-9.52V36.654c0-5.555 4.502-10.046 10.046-10.046 2.767 0 5.286 1.125 7.104 2.943a10.012 10.012 0 0 1 2.943 7.104v65.595c0 4.801 3.376 9.086 8.126 9.819 5.968.929 11.161-3.717 11.161-9.52V36.654a10.037 10.037 0 0 1 10.046-10.046h.155c4.244 0 7.723 4.337 7.723 9.644l11.813 101.257z" fill="#e0e0e2"></path><path d="M512 31.223v198.541c0 7.413-5.999 13.412-13.402 13.412h-18.637c-12.824 0-23.221-9.716-23.221-21.693V88.878c0-26.102 11.203-48.094 32.885-56.86 5.637-2.282 11.987-3.665 19.039-3.996 1.818-.093 3.336 1.384 3.336 3.201z" fill="#d8d7da"></path><path d="M512 31.223v184.778h-4.873c-12.824 0-23.211-9.706-23.211-21.693V61.703c0-10.821 1.92-20.929 5.71-29.685 5.637-2.282 11.987-3.665 19.039-3.996 1.817-.093 3.335 1.384 3.335 3.201z" fill="#e0e0e2"></path><circle cx="271.632" cy="291.952" fill="#c6c5ca" r="172.945"></circle><path d="M410.752 291.952c0 31.378-10.387 60.329-27.909 83.602-25.389 33.722-65.75 55.518-111.211 55.518-76.839 0-139.12-62.281-139.12-139.12 0-44.067 20.485-83.344 52.451-108.837 23.779-18.957 53.897-30.283 86.669-30.283 76.839 0 139.12 62.281 139.12 139.12z" fill="#d8d7da"></path><path d="M410.752 291.952c0 31.378-10.387 60.329-27.909 83.602-23.768 18.967-53.897 30.304-86.679 30.304-76.839 0-139.13-62.291-139.13-139.12 0-31.388 10.397-60.35 27.929-83.623 23.779-18.957 53.897-30.283 86.669-30.283 76.839 0 139.12 62.281 139.12 139.12z" fill="#e0e0e2"></path></g></svg>