<svg viewBox="0 0 54 60" xmlns="http://www.w3.org/2000/svg"><g><g fill="none" fill-rule="nonzero"><g fill="#7f8c8d"><path d="M11 38h4v13h-4zM45 38h4v7.091h-4zM5 60a1 1 0 0 1-1-1v-4a1 1 0 0 1 2 0v4a1 1 0 0 1-1 1zM1 60a1 1 0 0 1-1-1v-4a1 1 0 0 1 2 0v4a1 1 0 0 1-1 1zM9 60a1 1 0 0 1-1-1v-4a1 1 0 0 1 2 0v4a1 1 0 0 1-1 1zM13 60a1 1 0 0 1-1-1v-4a1 1 0 0 1 2 0v4a1 1 0 0 1-1 1zM17 60a1 1 0 0 1-1-1v-4a1 1 0 0 1 2 0v4a1 1 0 0 1-1 1zM21 60a1 1 0 0 1-1-1v-4a1 1 0 0 1 2 0v4a1 1 0 0 1-1 1zM25 60a1 1 0 0 1-1-1v-4a1 1 0 0 1 2 0v4a1 1 0 0 1-1 1zM53 60a1 1 0 0 1-1-1v-7a1 1 0 0 1 2 0v7a1 1 0 0 1-1 1zM41 60a1 1 0 0 1-1-1v-7a1 1 0 0 1 2 0v7a1 1 0 0 1-1 1zM45 60a1 1 0 0 1-1-1v-7a1 1 0 0 1 2 0v7a1 1 0 0 1-1 1zM49 60a1 1 0 0 1-1-1v-7a1 1 0 0 1 2 0v7a1 1 0 0 1-1 1z" fill="#7f8c8d"></path></g><path d="M11 12h4v27h-4zM45 12h4v27h-4z" fill="#f29c1f"></path><path d="m32 20.43 3.55-1.02A1.992 1.992 0 0 0 37 17.49V11c0-7-7-10-7-10s-7 3-7 10v6.49a1.992 1.992 0 0 0 1.45 1.92L28 20.43zM53 53c-.552 0-1-.448-1-1a1 1 0 0 0-2 0 1 1 0 0 1-2 0 1 1 0 0 0-2 0 1 1 0 0 1-2 0 1 1 0 0 0-2 0 1 1 0 0 1-2 0v-3a5.006 5.006 0 0 1 5-5h4a5.006 5.006 0 0 1 5 5v3a1 1 0 0 1-1 1z" fill="#bdc3c7"></path><path d="M15 13h-4a1 1 0 0 1-.707-.293L7.464 9.878A4.966 4.966 0 0 1 6 6.343V3a1 1 0 0 1 2 0v3.343a3.02 3.02 0 0 0 .878 2.121L11.414 11h3.172l2.536-2.536A3.02 3.02 0 0 0 18 6.343V3a1 1 0 0 1 2 0v3.343a4.966 4.966 0 0 1-1.464 3.535l-2.829 2.829A1 1 0 0 1 15 13zM49 13h-4a1 1 0 0 1-.707-.293l-2.829-2.829A4.966 4.966 0 0 1 40 6.343V3a1 1 0 0 1 2 0v3.343a3.02 3.02 0 0 0 .878 2.121L45.414 11h3.172l2.536-2.536A3.02 3.02 0 0 0 52 6.343V3a1 1 0 0 1 2 0v3.343a4.966 4.966 0 0 1-1.464 3.535l-2.829 2.829A1 1 0 0 1 49 13z" fill="#d25627"></path><path d="M17 0H9a3 3 0 1 0 0 6h8a3 3 0 0 0 0-6zM51 0h-8a3 3 0 0 0 0 6h8a3 3 0 0 0 0-6z" fill="#e57e25"></path><path d="M25 56H1a1 1 0 0 1-1-1v-3a3 3 0 0 1 3-3h20a3 3 0 0 1 3 3v3a1 1 0 0 1-1 1z" fill="#bdc3c7"></path><path d="M28 22h4v13h-4z" fill="#f29c1f"></path><path d="M36 45a1 1 0 0 1-1-1v-3.343a3.02 3.02 0 0 0-.878-2.121L31.586 36h-3.172l-2.536 2.536A3.02 3.02 0 0 0 25 40.657V44a1 1 0 0 1-2 0v-3.343a4.966 4.966 0 0 1 1.464-3.535l2.829-2.829A1 1 0 0 1 28 34h4a1 1 0 0 1 .707.293l2.829 2.829A4.966 4.966 0 0 1 37 40.657V44a1 1 0 0 1-1 1z" fill="#d25627"></path><path d="M32 13v10h-4V13a2.015 2.015 0 0 1 2-2 2.006 2.006 0 0 1 2 2z" fill="#95a5a5"></path><path d="M34 41h-8a3 3 0 0 0 0 6h8a3 3 0 0 0 0-6z" fill="#e57e25"></path></g></g></svg>