<svg viewBox="0 0 512 512" xmlns="http://www.w3.org/2000/svg"><g><path d="M210.307 189.553H26.635C11.925 189.553 0 177.628 0 162.918V26.635C0 11.925 11.925 0 26.635 0h183.672c14.71 0 26.635 11.925 26.635 26.635v136.284c0 14.709-11.925 26.634-26.635 26.634z" fill="#b3ceec"></path><path d="M210.307 0h-30.905c14.71 0 26.635 11.925 26.635 26.635v136.284c0 14.71-11.925 26.635-26.635 26.635h30.905c14.71 0 26.635-11.925 26.635-26.635V26.635C236.942 11.925 225.017 0 210.307 0z" fill="#98bce5"></path><path d="M485.365 189.553H301.693c-14.71 0-26.635-11.925-26.635-26.635V26.635C275.058 11.925 286.983 0 301.693 0h183.672C500.075 0 512 11.925 512 26.635v136.284c0 14.709-11.925 26.634-26.635 26.634z" fill="#fead8a"></path><path d="M485.365 0H454.46c14.71 0 26.635 11.925 26.635 26.635v136.284c0 14.71-11.925 26.635-26.635 26.635h30.905c14.71 0 26.635-11.925 26.635-26.635V26.635C512 11.925 500.075 0 485.365 0z" fill="#fd9468"></path><path d="m396.806 263.722-9.269-31.99c-3.836-13.238-17.677-20.861-30.915-17.025-13.238 3.836-20.861 17.677-17.025 30.915l-3.67-12.665c-3.836-13.238-17.677-20.861-30.915-17.025-13.015 3.771-20.594 17.213-17.201 30.245l-2.48-8.561c-3.836-13.238-17.677-20.86-30.915-17.025-13.211 3.828-20.828 17.621-17.046 30.835l-24.128-83.272c-3.836-13.239-17.678-20.862-30.918-17.026-13.239 3.836-20.862 17.678-17.026 30.918l33.035 114.013c-10.927 9.461-21.978 19.108-27.323 24.012a15.322 15.322 0 0 0-4.284 15.771l12.856 42.038a75.247 75.247 0 0 0 26.97 38.315s50.204 45.945 90.951 34.138l83.747-24.265c31.891-9.24 50.25-42.602 41.005-74.508z" fill="#ffcebf"></path><g fill="#ffb09e"><path d="m198.333 296.06 11.61 40.069c.632 2.18-1.101 4.33-3.364 4.153-6.725-.525-19.329-4.866-26.199-28.575zM293.332 265.229a3.642 3.642 0 0 1-2.494 4.517l-5.378 1.545c-9.234 3.148-19.254-1.929-22.166-11.242l-4.594-14.671c-2.408-8.312-8.768-14.417-16.444-16.847l-.003-.01c.048-.057.096-.114.141-.18l.007-.013a24.801 24.801 0 0 1 12.012-7.738c12.784-3.704 26.132 3.272 30.487 15.674 2.912 9.992 6.544 22.47 8.432 28.965zM341.513 264.721l-5.422 1.849c-9.237 3.149-19.253-1.931-22.169-11.244l-4.592-14.665c-2.408-8.312-8.768-14.417-16.444-16.847l-.003-.01a24.813 24.813 0 0 1 12.125-7.868l.01-.003c13.229-3.833 27.073 3.782 30.909 17.021l7.911 27.303a3.645 3.645 0 0 1-2.325 4.464zM186.647 175.861l24.128 83.272c6.29 21.71 22.786 21.486 30.432 20.169 2.152-.371 3.512-2.513 2.904-4.611l-30.868-106.536c-3.836-13.239-17.678-20.862-30.918-17.026a24.841 24.841 0 0 0-12.131 7.88c7.679 2.433 14.042 8.532 16.453 16.852zM396.806 263.722l-9.269-31.99c-3.836-13.238-17.677-20.86-30.915-17.025a24.841 24.841 0 0 0-12.131 7.88c7.679 2.434 14.04 8.533 16.451 16.851l34.72 119.828c9.245 31.906-9.115 65.268-41.005 74.508l26.595-7.706c31.891-9.24 50.25-42.602 41.005-74.508z" fill="#ffb09e"></path></g><path d="m432.263 468.689-147.57 42.758c-7.375 2.137-15.086-2.11-17.223-9.485l-9.88-34.099c-2.137-7.375 2.11-15.086 9.485-17.223l147.57-42.758c7.375-2.137 15.086 2.11 17.223 9.485l9.88 34.099c2.136 7.375-2.11 15.086-9.485 17.223z" fill="#f79595"></path><path d="m414.644 407.882-29.684 8.601c7.375-2.137 15.086 2.11 17.223 9.485l9.88 34.099c2.137 7.375-2.109 15.086-9.485 17.223l29.685-8.601c7.375-2.137 11.622-9.848 9.485-17.223l-9.88-34.099c-2.138-7.375-9.849-11.622-17.224-9.485z" fill="#f37c7c"></path><path d="M142.625 117.496 121.04 60.3a8.786 8.786 0 0 0-8.233-5.667h-.007a8.783 8.783 0 0 0-8.151 5.477l-.068.172-21.783 57.194a7.501 7.501 0 0 0 7.007 10.171 7.503 7.503 0 0 0 7.01-4.833l3.586-9.414h24.644l3.545 9.394a7.501 7.501 0 0 0 14.035-5.298zm-36.511-19.097 6.666-17.502 6.605 17.502zM410.279 86.603a20.697 20.697 0 0 0 3.245-11.122c0-11.496-9.353-20.849-20.848-20.849h-16.851a7.5 7.5 0 0 0-7.5 7.5v58.012a7.503 7.503 0 0 0 7.5 7.5h.034c.001 0 15.49-.069 19.76-.069 12.746 0 23.115-10.369 23.115-23.115-.001-7.185-3.297-13.614-8.455-17.857zm-17.603-16.97c3.225 0 5.848 2.624 5.848 5.849s-2.624 5.849-5.848 5.849c-1.239 0-3.574.007-6.117.016h-3.234V69.633zm2.943 42.942c-2.268 0-7.691.02-12.293.038V96.358l3.242-.012h9.051c4.475 0 8.115 3.64 8.115 8.114s-3.641 8.115-8.115 8.115z" fill="#f5f8f9"></path></g></svg>