<svg viewBox="0 0 497 497" xmlns="http://www.w3.org/2000/svg"><g><path d="M467 82.5h-30v90h60v-60c0-16.57-13.43-30-30-30z" fill="#ffa436"></path><path d="m467 112.5-90 120H0v-180c0-16.57 13.43-30 30-30h146.07c7.96 0 15.59 3.16 21.22 8.79L248.5 82.5H437c16.57 0 30 13.43 30 30z" fill="#ffbc2b"></path><path d="m437 112.5-60 75h90v-75z" fill="#8ae7ff"></path><path d="M437 112.5v150l-407-120v-30z" fill="#bdf2ff"></path><path d="M30 142.5h290.93v90H30z" fill="#ffffff"></path><path d="m467 142.5-30 30v302h30c16.57 0 30-13.43 30-30v-272c0-16.57-13.43-30-30-30z" fill="#ffbc2b"></path><path d="M467 142.5v302c0 16.57-13.43 30-30 30H30c-16.57 0-30-13.43-30-30v-212c0-16.57 13.43-30 30-30h218.5l51.21-51.21a30.003 30.003 0 0 1 21.22-8.79z" fill="#ffcf66"></path></g></svg>