<svg viewBox="0 0 512 512" xmlns="http://www.w3.org/2000/svg"><g><path d="M448 112a8 8 0 0 1-6.656-3.562L416 70.422l-25.344 38.016a8 8 0 0 1-13.312 0L352 70.422l-25.344 38.016a8 8 0 0 1-13.312 0L288 70.422l-25.344 38.016a8 8 0 0 1-13.312 0L224 70.422l-25.344 38.016a8 8 0 0 1-13.312 0L160 70.422l-25.344 38.016a8 8 0 0 1-13.312 0L96 70.422l-25.344 38.016a8 8 0 0 1-13.312 0l-32-48a8 8 0 0 1 13.312-8.876L64 89.578l25.344-38.016a8 8 0 0 1 13.312 0L128 89.578l25.344-38.016a8 8 0 0 1 13.312 0L192 89.578l25.344-38.016a8 8 0 0 1 13.312 0L256 89.578l25.344-38.016a8 8 0 0 1 13.312 0L320 89.578l25.344-38.016a8 8 0 0 1 13.312 0L384 89.578l25.344-38.016a8 8 0 0 1 13.312 0L448 89.578l25.344-38.016a8 8 0 1 1 13.312 8.876l-32 48A8 8 0 0 1 448 112z" fill="#6a7073"></path><path d="M24 24h464v32H24z" fill="#6a7073"></path><path d="M408 408.62V104H104v304.62c0 9.721-.409 17.307-8 23.38l-72 56h464l-72-56c-7.591-6.073-8-13.659-8-23.38z" fill="#3dc285"></path><path d="M448 112H64a8 8 0 0 1 0-16h384a8 8 0 0 1 0 16z" fill="#6a7073"></path><path d="M376 440H136.313a8.208 8.208 0 0 1-8.3-7.5A8 8 0 0 1 136 424h239.687a8.208 8.208 0 0 1 8.3 7.5A8 8 0 0 1 376 440z" fill="#962523"></path><path d="M72 496a8 8 0 0 1-8-8V208a8 8 0 0 1 16 0v280a8 8 0 0 1-8 8z" fill="#6a7073"></path><path d="M120 496a7.959 7.959 0 0 1-5.117-1.854l-48-40a8 8 0 0 1 10.242-12.292l48 40A8 8 0 0 1 120 496z" fill="#6a7073"></path><path d="M40.044 143.916 80.023 159.9 64.04 199.88l-39.98-15.984z" fill="#e1e3e6"></path><path d="m112 248-32-16c-16.042-6.417-21.9-23.762-16-40l16-32c6.176-16.983 23.221-22.711 40-16l32 16z" fill="#c3c6c7"></path><g fill="#6a7073"><path d="M440 496a8 8 0 0 1-8-8V208a8 8 0 0 1 16 0v280a8 8 0 0 1-8 8z" fill="#6a7073"></path><path d="M392 496a8 8 0 0 1-5.125-14.146l48-40a8 8 0 0 1 10.242 12.292l-48 40A7.966 7.966 0 0 1 392 496z" fill="#6a7073"></path><path d="M488 496a8 8 0 0 0 5.125-14.146l-48-40a8 8 0 1 0-10.242 12.292l48 40A7.966 7.966 0 0 0 488 496z" fill="#6a7073"></path></g><path d="m488.268 183.9-39.98 15.983-15.982-39.979 39.979-15.983z" fill="#e1e3e6"></path><path d="m400 248 32-16c16.042-6.417 21.9-23.762 16-40l-16-32c-6.176-16.983-23.221-22.711-40-16l-32 16z" fill="#c3c6c7"></path><path d="M184 296h144a32 32 0 0 1 32 32v96H152v-96a32 32 0 0 1 32-32z" fill="#ed6f6d"></path><path d="M352 360h-16v24H176v-24h-16a16 16 0 0 0-16 16v48h224v-48a16 16 0 0 0-16-16z" fill="#eb423f"></path><path d="M24 496a8 8 0 0 1-5.125-14.146l48-40a8 8 0 0 1 10.242 12.292l-48 40A7.968 7.968 0 0 1 24 496z" fill="#6a7073"></path></g></svg>