<svg viewBox="0 0 448 448" xmlns="http://www.w3.org/2000/svg"><g><path d="M112 376H0l16-48 16-8h48l8 8 24 8zm0 0" fill="#ffcb74"></path><path d="m336 296-112 80-32-40 8-8 112-80zm0 0" fill="#da922a"></path><path d="M128 248 16 328h72l112-80zM352 248l-112 80 8 8h56l8-8 112-80zm0 0" fill="#fbb540"></path><path d="m224 296-112 80-24-48 112-80zm0 0" fill="#da922a"></path><path d="M224 376H112l16-48 16-8h48l8 8zm0 0" fill="#ffcb74"></path><path d="m448 296-112 80-32-40 8-8 112-80zm0 0" fill="#ea9d2d"></path><path d="m240 248-112 80h72l112-80zm0 0" fill="#fbb540"></path><path d="M336 376H224l16-48h72zm0 0" fill="#ffcb74"></path><path d="m400 224-112 80-32-40 8-8 112-80zm0 0" fill="#ea9d2d"></path><path d="M192 176 80 256l16 8h48l8-8 112-80zm0 0" fill="#fbb540"></path><path d="m288 224-112 80-32-40 8-8 112-80zm0 0" fill="#da922a"></path><g fill="#fbb540"><path d="M195.2 22.457 184 0l-11.2 22.457a31.94 31.94 0 0 1-14.343 14.344L136 48l22.457 11.2a31.94 31.94 0 0 1 14.344 14.343L184 96l11.2-22.457a31.94 31.94 0 0 1 14.343-14.344L232 48l-22.457-11.2a31.94 31.94 0 0 1-14.344-14.343zM417.36 82.719 408 64l-9.36 18.719A26.634 26.634 0 0 1 386.72 94.64L368 104l18.719 9.36a26.634 26.634 0 0 1 11.922 11.921L408 144l9.36-18.719a26.634 26.634 0 0 1 11.921-11.922L448 104l-18.719-9.36A26.634 26.634 0 0 1 417.36 82.72zM57.36 162.719 48 144l-9.36 18.719A26.634 26.634 0 0 1 26.72 174.64L8 184l18.719 9.36A26.634 26.634 0 0 1 38.64 205.28L48 224l9.36-18.719A26.634 26.634 0 0 1 69.28 193.36L88 184l-18.719-9.36A26.634 26.634 0 0 1 57.36 162.72zM304 176l-112 80 8 8h56l8-8 112-80zM240 112l-112 80 16 8h40l16-8 112-80zm0 0" fill="#fbb540"></path></g><path d="m336 160-112 80-32-40 8-8 112-80zm0 0" fill="#ea9d2d"></path><path d="M288 304H176l16-48h72zM176 304H64l16-48h72zM224 240H112l16-48h72zm0 0" fill="#ffcb74"></path></g></svg>