<svg viewBox="0 0 512 512" xmlns="http://www.w3.org/2000/svg"><g><circle cx="180.989" cy="205.851" fill="#2d2b2d" r="132.578"></circle><circle cx="325.446" cy="205.851" fill="#2d2b2d" r="132.578"></circle><circle cx="419.17" cy="302.534" fill="#f9a08f" r="50.325"></circle><circle cx="90.564" cy="302.534" fill="#f9a08f" r="50.325"></circle><path d="M254.867 512c-87.684 0-158.765-71.081-158.765-158.765V225.179c0-66.939 54.265-121.203 121.203-121.203h75.123c66.939 0 121.203 54.265 121.203 121.203v128.057C413.631 440.919 342.55 512 254.867 512z" fill="#fdb0a0"></path><path d="M413.628 225.177v7.664c-4.821-.021-9.818-.288-14.958-.783a198.74 198.74 0 0 1-16.308-2.318c-.134.319-.268.639-.412.958-11.868 26.651-45.07 30.627-63.809 30.627-30.452 0-67.631-9.086-104.677-25.59C167.672 215.339 132.08 188.4 114 161.769c21.325-34.676 59.617-57.793 103.307-57.793h75.121c66.94 0 121.2 54.26 121.2 121.201z" fill="#f9a08f"></path><circle cx="328.849" cy="293.363" fill="#faf7f7" r="52.641"></circle><path d="M361.511 252.085c-14.268 7.685-31.647 9.241-43.371 9.241-9.148 0-18.904-.824-29.082-2.421 9.642-11.136 23.89-18.183 39.786-18.183 12.342 0 23.694 4.245 32.667 11.363z" fill="#e2dee2"></path><path d="M328.914 314.152h-.13c-11.481 0-20.789-9.307-20.789-20.789 0-11.481 9.307-20.789 20.789-20.789h.13c11.481 0 20.789 9.307 20.789 20.789-.001 11.481-9.308 20.789-20.789 20.789z" fill="#2d2b2d"></path><circle cx="180.885" cy="293.363" fill="#faf7f7" r="52.641"></circle><path d="M180.95 314.152h-.131c-11.481 0-20.789-9.307-20.789-20.789 0-11.481 9.307-20.789 20.789-20.789h.131c11.481 0 20.789 9.307 20.789 20.789 0 11.481-9.308 20.789-20.789 20.789z" fill="#2d2b2d"></path><path d="M254.867 379.293c-10.348 0-20.236-4.467-27.128-12.256a7.726 7.726 0 0 1 11.573-10.239c3.96 4.475 9.63 7.042 15.554 7.042s11.594-2.567 15.553-7.042a7.726 7.726 0 0 1 11.573 10.239c-6.889 7.789-16.777 12.256-27.125 12.256z" fill="#ef897b"></path><path d="M471.761 103.017C471.761 46.122 392.187 0 294.026 0S116.292 46.122 116.292 103.017c0 8.682 1.862 17.11 5.351 25.165 3.209 26.723 43.635 63.534 100.209 88.735 66.216 29.496 129.468 31.913 141.279 5.4 2.41-5.41 2.49-11.607.531-18.294 46.837 14.086 87.616 10.026 97.426-11.997 5.107-11.464.981-25.913-10.04-40.715 13.215-14.406 20.713-30.841 20.713-48.294z" fill="#554e55"></path><path d="M451.051 151.311c11.012 14.802 15.146 29.247 10.038 40.71-7.935 17.819-36.136 23.877-71.406 18.08 12.865-2.958 22.202-8.981 26.253-18.08 4.044-9.075 2.295-20.019-4.072-31.529-3.102-5.607-2.79-12.462.967-17.653 8.868-12.251 13.773-25.7 13.773-39.817 0-52.47-67.652-95.77-155.154-102.185a306.32 306.32 0 0 1 22.57-.831c98.169 0 177.736 46.115 177.736 103.016.001 17.45-7.495 33.879-20.705 48.289z" fill="#433f43"></path><g fill="#2d2b2d"><path d="M363.659 211.767a7.738 7.738 0 0 1-2.229-.33c-10.033-3.018-20.162-6.795-30.104-11.223-14.11-6.284-27.308-13.625-39.23-21.819a7.725 7.725 0 0 1-1.991-10.743 7.723 7.723 0 0 1 10.743-1.991c11.146 7.66 23.516 14.537 36.766 20.438 9.347 4.164 18.858 7.711 28.269 10.542a7.726 7.726 0 0 1-2.224 15.126zM418.144 177.481a7.727 7.727 0 0 1-1.741-15.255c18.971-4.407 28.586-15.714 28.68-15.828 2.723-3.26 7.583-3.732 10.86-1.032 3.279 2.7 3.78 7.521 1.101 10.817-.51.628-12.771 15.433-37.144 21.096a7.798 7.798 0 0 1-1.756.202z" fill="#2d2b2d"></path></g><path d="M193.161 457.241h-18.542a5.15 5.15 0 0 1-5.151-5.151v-25.955h28.844v25.955a5.151 5.151 0 0 1-5.151 5.151z" fill="#7a6e79"></path><path d="M203.462 395.029h18.542a5.15 5.15 0 0 1 5.151 5.151v25.955h-28.844V400.18a5.152 5.152 0 0 1 5.151-5.151z" fill="#918291"></path><path d="M250.849 457.241h-18.542a5.15 5.15 0 0 1-5.151-5.151v-25.955H256v25.955a5.15 5.15 0 0 1-5.151 5.151z" fill="#7a6e79"></path><path d="M261.151 395.029h18.542a5.15 5.15 0 0 1 5.151 5.151v25.955H256V400.18a5.15 5.15 0 0 1 5.151-5.151z" fill="#918291"></path><path d="M279.693 402.756h.01z" fill="#2d2b2d"></path><path d="M308.538 457.241h-18.542a5.15 5.15 0 0 1-5.151-5.151v-25.955h28.844v25.955a5.152 5.152 0 0 1-5.151 5.151z" fill="#7a6e79"></path><path d="M318.839 395.029h18.542a5.15 5.15 0 0 1 5.151 5.151v25.955h-28.844V400.18a5.151 5.151 0 0 1 5.151-5.151z" fill="#918291"></path><path d="M355.078 433.861H156.922a7.725 7.725 0 0 1-7.726-7.726 7.725 7.725 0 0 1 7.726-7.726h198.157a7.726 7.726 0 1 1-.001 15.452z" fill="#554e55"></path><path d="m433.077 476.578-32.308 32.308c-3.635 3.635-9.61 3.355-12.889-.604l-48.338-58.36a8.726 8.726 0 0 1 .55-11.736l22.287-22.287a8.726 8.726 0 0 1 11.736-.55l58.36 48.338c3.957 3.281 4.237 9.255.602 12.891z" fill="#cbc5cb"></path><path d="m433.073 476.579-15.054 15.054c3.634-3.634 3.356-9.612-.598-12.889l-58.36-48.34c-3.474-2.869-5.473-5.719-8.656-2.536l11.969-11.969a8.73 8.73 0 0 1 11.741-.549l58.36 48.34c3.954 3.276 4.238 9.248.598 12.889z" fill="#b5adb6"></path><g fill="#554e55"><path d="M397.446 487.856a7.726 7.726 0 0 1-5.464-13.19l6.874-6.875a7.727 7.727 0 0 1 10.928 10.926l-6.874 6.875a7.702 7.702 0 0 1-5.464 2.264zM365.366 450.449a7.729 7.729 0 0 1-5.464-13.191l1.547-1.547a7.73 7.73 0 0 1 10.928 0 7.729 7.729 0 0 1 0 10.928l-1.547 1.547a7.708 7.708 0 0 1-5.464 2.263z" fill="#554e55"></path></g></g></svg>