<svg id="Layer_3" height="512" viewBox="0 0 64 64" width="512" xmlns="http://www.w3.org/2000/svg" data-name="Layer 3"><path d="m7 58h50v4h-50z" fill="#9a9b9f"/><path d="m10 58v-4h44v4" fill="#acadb1"/><path d="m13 54v-4h38v4" fill="#b4b5b9"/><path d="m16 50v-4h32v4" fill="#c2c3c5"/><path d="m19 46v-4h26v4" fill="#d5d6d8"/><path d="m38 18h-4v-4h-4v4h-4v4h4v8h4v-8h4z" fill="#efeb6a"/><path d="m22 42v-4h20v4" fill="#e4e5e7"/><path d="m25 38v-4h14v4" fill="#f1f1f3"/><g fill="#50bae3"><path d="m18 28a2.992 2.992 0 0 0 -2.884 2.22 2.915 2.915 0 0 0 -2.433.1 2.961 2.961 0 0 0 .317-1.32 3 3 0 0 0 -5.473-1.7 4 4 0 0 0 -3.167 7.34 3.981 3.981 0 0 0 7.218.116 2.982 2.982 0 0 0 5.306-.976 3 3 0 1 0 1.116-5.78z"/><path d="m58 3a3.987 3.987 0 0 0 -3.243 1.674 3.983 3.983 0 0 0 -7.643.415 4.994 4.994 0 1 0 5.371 7.081 2.915 2.915 0 0 0 2.515 1.83c1.4 0 2.564-1.283 2.9-3.01.036 0 .068.01.1.01a4 4 0 0 0 0-8z"/><path d="m16 11a1.984 1.984 0 0 0 -1.084.323 3 3 0 0 0 -5.916.677c0 .061.014.118.018.178a2.995 2.995 0 1 0 3.982 2.822c0-.061-.014-.118-.018-.178a2.977 2.977 0 0 0 1.273-.863 2 2 0 1 0 1.745-2.959z"/><path d="m54 39a2.978 2.978 0 0 0 -2.285 1.078 3.981 3.981 0 0 0 -1.8-.964 4.99 4.99 0 0 0 -9.787-.194 4.988 4.988 0 1 0 6.611 7.373 3.984 3.984 0 0 0 5.9-1.637 2.995 2.995 0 1 0 1.361-5.656z"/></g><path d="m17.973 13.263a1.957 1.957 0 0 0 -2.057.06 3 3 0 0 0 -5.916.677c0 .061.014.118.018.178a2.99 2.99 0 0 0 -2.018 2.822c0 .083.018.16.024.242a2.987 2.987 0 0 0 4.976-2.242c0-.061-.014-.118-.018-.178a2.977 2.977 0 0 0 1.273-.863 1.987 1.987 0 0 0 3.718-.7z" fill="#6ec5e7"/><path d="m61.966 6.662a3.979 3.979 0 0 0 -7.209-1.988 3.983 3.983 0 0 0 -7.643.415 5 5 0 0 0 -3.114 1.941 4.986 4.986 0 0 0 9.482 2.14 2.915 2.915 0 0 0 2.518 1.83c1.4 0 2.564-1.283 2.9-3.01.036 0 .068.01.1.01a3.976 3.976 0 0 0 2.966-1.338z" fill="#6ec5e7"/><path d="m18 28a2.992 2.992 0 0 0 -2.884 2.22 2.915 2.915 0 0 0 -2.433.1 2.961 2.961 0 0 0 .317-1.32 3 3 0 0 0 -5.473-1.7 3.967 3.967 0 0 0 -4.456.988 3.929 3.929 0 0 0 2.289 4.352 3.981 3.981 0 0 0 7.218.116 2.982 2.982 0 0 0 5.306-.976 2.95 2.95 0 0 0 3.092-.538c.006-.082.024-.159.024-.242a3 3 0 0 0 -3-3z" fill="#6ec5e7"/><path d="m54 39a2.978 2.978 0 0 0 -2.285 1.078 3.981 3.981 0 0 0 -1.8-.964 4.977 4.977 0 0 0 -8.76-2.28c-.007.029-.021.057-.027.086-.032.023-.06.05-.092.073a4.98 4.98 0 0 0 -.908 1.927 5.059 5.059 0 0 0 -.985.926 4.927 4.927 0 0 0 -.143 1.154 4.981 4.981 0 0 0 8.735 3.293 3.984 3.984 0 0 0 5.9-1.637 2.93 2.93 0 0 0 3.344-.414c.006-.082.024-.159.024-.242a3 3 0 0 0 -3.003-3z" fill="#6ec5e7"/><path d="m37 19h-4v-4h-2v4h-4v2h4v8h2v-8h4z" fill="#eeab45"/></svg>