<svg viewBox="0 0 512 512" xmlns="http://www.w3.org/2000/svg"><g><path d="M338.116 240.292a54 54 0 0 1-19.698-41.705v-34.344H184.476v34.344a53.999 53.999 0 0 1-19.698 41.705c-38.345 31.538-48.991 85.812-25.4 129.498l8.192 15.17h207.755l8.192-15.17c23.59-43.687 12.944-97.961-25.401-129.498z" fill="#efedef"></path><path d="M338.116 240.292a54.002 54.002 0 0 1-19.698-41.705v-34.344H184.476v34.344a53.989 53.989 0 0 1-10.914 32.527c14.124 6.329 30.113 9.565 48.151 9.565h59.471c4.715 0 9.288-.224 13.724-.666 8.822-.88 17.368 3.37 22.06 10.892 17.105 27.421 30.491 82.377 13.528 118.885l-7.049 15.17h31.879l8.192-15.17c23.589-43.687 12.944-97.961-25.402-129.498z" fill="#e2dce1"></path><path d="M353.074.268c-34.987 8.936-71.061 56.014-77.029 82.619l57.117 44.236c47.16-24.934 48.452-85.186 29.639-122.452a8.518 8.518 0 0 0-9.727-4.403z" fill="#e19974"></path><path d="M362.801 4.672a8.518 8.518 0 0 0-9.726-4.404c-2.611.667-5.227 1.569-7.837 2.637.325.369.621.763.868 1.191 18.814 32.675 17.521 85.504-29.639 107.367l-28.611-19.429 45.306 35.089c47.16-24.934 48.452-85.186 29.639-122.451z" fill="#dc8758"></path><path d="M149.82.268c34.987 8.936 71.061 56.014 77.029 82.619l-57.117 44.236c-47.16-24.934-48.452-85.186-29.639-122.452A8.518 8.518 0 0 1 149.82.268z" fill="#e19974"></path><path d="M349.229 67.59c-13.251-17.853-45.224-54.183-78.778-54.183h-38.008c-33.554 0-65.527 36.331-78.778 54.183-9.011 12.14-24.582 36.077-42.316 38.648-5.665.821-9.204 6.588-7.496 12.052 20.833 66.635 58.216 101.785 117.859 101.785h59.471c59.643 0 97.026-35.151 117.859-101.785 1.708-5.463-1.831-11.23-7.496-12.052-17.735-2.571-33.306-26.508-42.317-38.648z" fill="#efedef"></path><path d="M391.545 106.238c-17.734-2.571-33.305-26.508-42.316-38.648-13.251-17.853-45.224-54.183-78.778-54.183h-13.622c30.318 11.07 57.235 39.934 66.706 54.183 8.069 12.14 21.1 42.338 37.893 47.244 4.933 1.441 8.242 6.588 6.713 12.052-13.822 49.371-41.911 80.185-77.257 92.848 54.024-3.67 88.479-38.503 108.158-101.444 1.708-5.464-1.832-11.23-7.497-12.052z" fill="#e2dce1"></path><path d="M283.389 155.054a7.499 7.499 0 0 0-7.5 7.5c0 4.671-3.8 8.471-8.471 8.471s-8.471-3.8-8.471-8.471v-28.388c0-4.143-3.357-7.5-7.5-7.5s-7.5 3.357-7.5 7.5v28.388c0 4.671-3.8 8.471-8.471 8.471s-8.472-3.8-8.472-8.471c0-4.143-3.357-7.5-7.5-7.5s-7.5 3.357-7.5 7.5c0 12.941 10.529 23.471 23.472 23.471 6.164 0 11.778-2.393 15.971-6.293 4.193 3.901 9.806 6.293 15.971 6.293 12.941 0 23.471-10.529 23.471-23.471a7.5 7.5 0 0 0-7.5-7.5z" fill="#9facba"></path><path d="M228.268 122.449c0 12.801 10.378 23.179 23.179 23.179s23.179-10.378 23.179-23.179c0-7.9-6.404-14.304-14.304-14.304h-17.749c-7.901-.001-14.305 6.403-14.305 14.304z" fill="#e19974"></path><g fill="#7a6d79"><path d="M298.275 101.119a7.499 7.499 0 0 1-7.5-7.5v-5.34c0-4.143 3.357-7.5 7.5-7.5s7.5 3.357 7.5 7.5v5.34c0 4.143-3.357 7.5-7.5 7.5zM204.619 101.119a7.499 7.499 0 0 1-7.5-7.5v-5.34c0-4.143 3.357-7.5 7.5-7.5s7.5 3.357 7.5 7.5v5.34c0 4.143-3.357 7.5-7.5 7.5z" fill="#7a6d79"></path></g><g fill="#9facba"><path d="M341.227 133.719h-20.944c-4.143 0-7.5-3.357-7.5-7.5s3.357-7.5 7.5-7.5h20.944c4.143 0 7.5 3.357 7.5 7.5s-3.358 7.5-7.5 7.5zM337.332 171.266a7.466 7.466 0 0 1-3.314-.777l-18.779-9.271a7.5 7.5 0 0 1 6.641-13.449l18.779 9.271a7.5 7.5 0 0 1 3.404 10.045 7.503 7.503 0 0 1-6.731 4.181zM182.611 133.719h-20.944c-4.143 0-7.5-3.357-7.5-7.5s3.357-7.5 7.5-7.5h20.944c4.143 0 7.5 3.357 7.5 7.5s-3.357 7.5-7.5 7.5zM165.563 171.266a7.498 7.498 0 0 1-6.73-4.182 7.5 7.5 0 0 1 3.404-10.045l18.779-9.271a7.498 7.498 0 0 1 10.045 3.404 7.5 7.5 0 0 1-3.404 10.045l-18.779 9.271a7.464 7.464 0 0 1-3.315.778z" fill="#9facba"></path></g><path d="M76.78 315.314v186.384c0 5.69 4.612 10.302 10.302 10.302h337.836c5.69 0 10.302-4.612 10.302-10.302V315.314z" fill="#7a6d79"></path><path d="M412.556 315.314v186.384c0 5.69-4.612 10.302-10.302 10.302h22.664c5.689 0 10.302-4.612 10.302-10.302V315.314z" fill="#685e68"></path><path d="m68.317 282.864-35.451 73.311c-3.308 6.841 1.676 14.787 9.274 14.787h427.72c7.599 0 12.582-7.946 9.274-14.787l-35.451-73.311a11.331 11.331 0 0 0-10.202-6.399H78.519a11.335 11.335 0 0 0-10.202 6.399z" fill="#fddeb0"></path><path d="m479.134 356.175-35.451-73.311a11.332 11.332 0 0 0-10.202-6.399h-22.664c4.346 0 8.31 2.486 10.202 6.399l35.451 73.311c3.308 6.841-1.676 14.787-9.274 14.787h22.664c7.598 0 12.582-7.946 9.274-14.787z" fill="#fbc56d"></path><path d="M369.406 244.951a49.726 49.726 0 0 0-20.494 0c-12.458 2.595-21.278 13.757-21.278 26.483v2.552c0 12.661 9.347 23.14 21.517 24.911 1.194.174 2.402-.071 3.644-.071l12.607-.047c13.904 0 24.865-10.873 24.865-24.776l.417-2.569c0-12.725-8.82-23.887-21.278-26.483z" fill="#efedef"></path><path d="M369.406 244.951a49.726 49.726 0 0 0-20.494 0l-.055.014c12.428 2.617 21.223 13.762 21.223 26.469v2.553c0 12.559-9.197 22.967-21.223 24.864 1.288.203 2.607.311 3.952.311h12.7c13.904 0 25.175-11.271 25.175-25.175v-2.553c0-12.726-8.82-23.887-21.278-26.483z" fill="#e2dce1"></path><path d="M153.982 244.951a49.726 49.726 0 0 0-20.494 0c-12.458 2.595-21.278 13.757-21.278 26.483v2.552c0 12.631 9.302 23.089 21.43 24.898 1.222.182 2.359.096 3.632.096l12.593-.312c13.904 0 24.663-10.657 24.663-24.561l-.205-2.666c0-12.724-7.883-23.894-20.341-26.49z" fill="#efedef"></path><path d="M153.982 244.951a49.726 49.726 0 0 0-20.494 0l-.055.014c12.428 2.617 21.223 13.762 21.223 26.469v2.553c0 12.559-9.197 22.967-21.223 24.864 1.288.203 2.607.311 3.952.311h12.7c13.904 0 25.175-11.271 25.175-25.175v-2.553c0-12.726-8.82-23.887-21.278-26.483z" fill="#e2dce1"></path><path d="M259.969 474.134a6.084 6.084 0 0 1-7.938 0l-28.258-24.318c-10.111-8.701-11.253-23.952-2.552-34.063 8.702-10.111 23.951-11.254 34.063-2.553a1.093 1.093 0 0 0 1.433 0c10.111-8.701 25.362-7.557 34.063 2.553 8.701 10.111 7.558 25.361-2.552 34.063z" fill="#fd8087"></path><path d="M290.779 415.754c-5.564-6.465-13.803-9.243-21.666-8.146.764.687 1.506 1.41 2.194 2.209 8.701 10.111 7.558 25.361-2.552 34.063l-25.941 22.324 9.217 7.932a6.084 6.084 0 0 0 7.938 0l28.258-24.318c10.111-8.703 11.253-23.953 2.552-34.064z" fill="#ee6161"></path></g></svg>