<svg viewBox="0 0 511.999 511.999" xmlns="http://www.w3.org/2000/svg"><g><path d="M445.213 253.369s-42.129-41.358-112.173-47.953c69.744-6.743 111.672-47.909 111.672-47.909 22.362-22.373 22.362-58.623 0-80.995-10.348-10.348-25.301-14.27-38.847-15.036a6.157 6.157 0 0 1-3.684-1.5 6.144 6.144 0 0 1-2.163-4.346c-.776-13.546-4.698-28.509-15.046-38.857-22.362-22.362-58.623-22.362-80.985 0 0 0-42.646 43.431-48.237 115.425-5.591-71.993-48.237-115.425-48.237-115.425-22.362-22.362-58.623-22.362-80.985 0-10.348 10.348-14.27 25.312-15.046 38.857a6.142 6.142 0 0 1-2.163 4.346 6.151 6.151 0 0 1-3.684 1.5c-13.546.766-28.499 4.688-38.847 15.036a57.182 57.182 0 0 0-10.152 13.732c-11.435 21.628-8.051 49.05 10.152 67.263 0 0 42.017 41.251 111.89 47.929-69.874 6.678-111.891 47.929-111.891 47.929-22.362 22.373-22.362 58.623 0 80.995 10.348 10.348 25.301 14.27 38.847 15.036a6.152 6.152 0 0 1 3.684 1.501 6.142 6.142 0 0 1 2.163 4.346c.776 13.546 4.698 28.509 15.046 38.857 22.362 22.362 58.623 22.362 80.985 0 0 0 23.094-23.528 37.521-64.644 3.589 24.844 11.32 58.519 27.372 101.411 9.748 26.05 25.381 49.258 45.208 67.122 5.489 4.944 10.696 8.971 15.476 11.971a13.267 13.267 0 0 0 7.069 2.04c4.433 0 8.768-2.211 11.299-6.244 3.911-6.234 2.027-14.456-4.206-18.367-3.483-2.184-7.454-5.28-11.803-9.197-16.663-15.01-29.833-34.604-38.087-56.663-10.034-26.81-16.602-49.961-20.874-69.38 13.277 26.959 27.993 41.947 27.993 41.947 22.373 22.362 58.623 22.362 80.995 0 10.348-10.348 14.27-25.301 15.036-38.847a6.157 6.157 0 0 1 1.5-3.684 6.144 6.144 0 0 1 4.346-2.163c13.546-.776 28.509-4.698 38.857-15.046 22.362-22.364 22.362-58.625-.001-80.987zm-157.986-47.064a34.5 34.5 0 0 0-15.408 6.002 34.581 34.581 0 0 0-14.405 23.811 209.607 209.607 0 0 0-1.42 15.103 209.794 209.794 0 0 0-1.42-15.108 34.496 34.496 0 0 0-6.002-15.408 34.581 34.581 0 0 0-23.811-14.405c-2.621-.344-5.21-.624-7.778-.865 2.567-.24 5.158-.522 7.778-.865a34.558 34.558 0 0 0 23.728-14.291c.031-.031.052-.072.083-.114a34.5 34.5 0 0 0 6.002-15.408c.508-3.875.889-7.688 1.173-11.446.286 3.759.665 7.571 1.173 11.446a34.5 34.5 0 0 0 6.002 15.408 34.581 34.581 0 0 0 23.811 14.405c2.713.356 5.395.647 8.05.892-2.493.237-5.009.509-7.556.843z" fill="#5eac24"></path><path d="M351.455 505.749c-2.525 4.036-6.861 6.25-11.3 6.25-2.421 0-4.864-.662-7.068-2.039-4.781-3.001-9.986-7.026-15.471-11.973-19.827-17.861-35.463-41.072-45.211-67.118-10.162-27.164-16.992-50.623-21.545-70.492-11.921-52-8.248-79.35-7.999-83.789.393-7.347 6.675-12.987 14.022-12.573 7.347.393 12.977 6.675 12.583 14.022-.083 1.428-6.675 48.854 26.16 138.769.559 1.563 1.149 3.135 1.738 4.719 8.248 22.062 21.421 41.652 38.081 56.667 4.346 3.912 8.32 7.006 11.807 9.2 6.231 3.901 8.114 12.128 4.203 18.357z" fill="#6dc82a"></path><path d="M295.626 416.806c-10.822-15.414-25.896-41.887-32.805-77.102-.728-3.711-6.016-3.72-6.745-.009a200.405 200.405 0 0 1-5.217 20.683c-11.921-52-8.248-79.35-7.999-83.789.393-7.347 6.675-12.987 14.022-12.573 7.347.393 12.977 6.675 12.583 14.022-.082 1.427-6.674 48.853 26.161 138.768z" fill="#5eac24"></path><path d="M256.923 174.758a34.496 34.496 0 0 0 6.002 15.408 34.581 34.581 0 0 0 23.811 14.405c97.087 12.728 157.976-47.064 157.976-47.064 22.362-22.373 22.362-58.623 0-80.995-10.348-10.348-25.301-14.27-38.847-15.036a6.157 6.157 0 0 1-3.684-1.5 6.144 6.144 0 0 1-2.163-4.346c-.776-13.546-4.698-28.509-15.046-38.857-22.362-22.362-58.623-22.362-80.985 0-.001-.001-59.793 60.887-47.064 157.985z" fill="#6dc82a"></path><path d="m402.177 59.976-139.245 130.18-.01.01a34.5 34.5 0 0 1-6.002-15.408c-12.728-97.097 47.064-157.986 47.064-157.986 20.924-20.924 54.018-22.269 76.504-4.036a58.353 58.353 0 0 1 4.481 4.036c10.348 10.348 14.27 25.312 15.046 38.857a6.147 6.147 0 0 0 2.162 4.347z" fill="#4e901e"></path><path d="M254.575 174.758a34.496 34.496 0 0 1-6.002 15.408c-.031.041-.052.083-.083.114a34.563 34.563 0 0 1-23.728 14.291c-97.087 12.728-157.976-47.064-157.976-47.064-18.203-18.212-21.586-45.635-10.152-67.263a57.182 57.182 0 0 1 10.152-13.732c10.348-10.348 25.301-14.27 38.847-15.036a6.157 6.157 0 0 0 3.684-1.5 6.144 6.144 0 0 0 2.163-4.346c.776-13.546 4.698-28.509 15.046-38.857 22.362-22.362 58.623-22.362 80.985 0 0-.001 59.792 60.887 47.064 157.985z" fill="#4e901e"></path><path d="M254.575 174.758a34.496 34.496 0 0 1-6.002 15.408c-.031.041-.052.083-.083.114-106.411 8.63-172.515-58.064-172.515-58.064-11.424-11.735-17.871-26.657-19.341-41.972a57.182 57.182 0 0 1 10.152-13.732c10.348-10.348 25.301-14.27 38.847-15.036a6.157 6.157 0 0 0 3.684-1.5 6.144 6.144 0 0 0 2.163-4.346c.776-13.546 4.698-28.509 15.046-38.857 22.362-22.362 58.623-22.362 80.985 0 0-.001 59.792 60.887 47.064 157.985z" fill="#5eac24"></path><path d="M254.575 174.758a34.496 34.496 0 0 1-6.002 15.408L109.317 59.976a6.144 6.144 0 0 0 2.163-4.346c.776-13.546 4.698-28.509 15.046-38.857 22.362-22.362 58.623-22.362 80.985 0 0-.001 59.792 60.887 47.064 157.985z" fill="#6dc82a"></path><path d="m402.177 59.976-139.245 130.18c4.129-97.139 62.058-156.134 62.058-156.134 15.243-15.233 35.536-22.331 55.497-21.286a58.353 58.353 0 0 1 4.481 4.036c10.348 10.348 14.27 25.312 15.046 38.857a6.152 6.152 0 0 0 2.163 4.347z" fill="#5eac24"></path><path d="M287.227 206.305a34.5 34.5 0 0 0-15.408 6.002 34.581 34.581 0 0 0-14.405 23.811c-12.728 97.087 47.064 157.976 47.064 157.976 22.373 22.362 58.623 22.362 80.995 0 10.348-10.348 14.27-25.301 15.036-38.847a6.157 6.157 0 0 1 1.5-3.684 6.144 6.144 0 0 1 4.346-2.163c13.546-.776 28.509-4.698 38.857-15.046 22.362-22.362 22.362-58.623 0-80.985.001 0-60.886-59.792-157.985-47.064z" fill="#6dc82a"></path><path d="M402.01 351.559 271.83 212.314l-.01-.01a34.5 34.5 0 0 1 15.408-6.002c97.097-12.728 157.986 47.064 157.986 47.064 20.924 20.924 22.269 54.018 4.036 76.504a58.353 58.353 0 0 1-4.036 4.481c-10.348 10.348-25.312 14.27-38.857 15.046a6.135 6.135 0 0 0-4.347 2.162z" fill="#4e901e"></path><path d="M402.01 351.559 271.83 212.314c97.139 4.129 156.134 62.058 156.134 62.058 15.233 15.243 22.331 35.536 21.286 55.497a58.353 58.353 0 0 1-4.036 4.481c-10.348 10.348-25.312 14.27-38.857 15.046a6.14 6.14 0 0 0-4.347 2.163z" fill="#5eac24"></path><path d="M254.575 236.113a34.496 34.496 0 0 0-6.002-15.408 34.581 34.581 0 0 0-23.811-14.405c-97.087-12.728-157.976 47.064-157.976 47.064-22.362 22.373-22.362 58.623 0 80.995 10.348 10.348 25.301 14.27 38.847 15.036a6.152 6.152 0 0 1 3.684 1.501 6.142 6.142 0 0 1 2.163 4.346c.776 13.546 4.698 28.509 15.046 38.857 22.362 22.362 58.623 22.362 80.985 0 0 0 59.792-60.888 47.064-157.986zM274.878 233.24c1.004-3.363 1.821-4.936 1.397-1.666-.124.941-.642 1.438-1.397 1.666z" fill="#6dc82a"></path><path d="m109.321 350.896 139.245-130.18.01-.01a34.5 34.5 0 0 1 6.002 15.408c12.728 97.097-47.064 157.986-47.064 157.986-20.924 20.924-54.018 22.269-76.504 4.036a58.353 58.353 0 0 1-4.481-4.036c-10.348-10.348-14.27-25.312-15.046-38.857a6.14 6.14 0 0 0-2.162-4.347z" fill="#4e901e"></path><path d="m109.321 350.896 139.245-130.18c-4.129 97.139-62.058 156.134-62.058 156.134-15.243 15.233-35.536 22.331-55.497 21.286a58.353 58.353 0 0 1-4.481-4.036c-10.348-10.348-14.27-25.312-15.046-38.857a6.144 6.144 0 0 0-2.163-4.347z" fill="#5eac24"></path></g></svg>