<svg viewBox="0 0 511 512" xmlns="http://www.w3.org/2000/svg"><g><path d="M11.559 425.809h141.945c4.871 0 9.164-3.192 10.57-7.852l77.79-267.867h-95.481L1.91 409.395c-4.097 7.359 1.223 16.414 9.649 16.414zm0 0" fill="#fa503c"></path><path d="M205.75 442.016c-11.914-6.047-16.668-20.61-10.621-32.528l36.336-71.57-63.203-40.195c-11.278-7.168-14.602-22.121-7.434-33.399 7.172-11.273 22.125-14.601 33.399-7.433l81.738 51.98c10.512 6.684 14.226 20.258 8.59 31.367l-46.278 91.157c-6.058 11.933-20.629 16.66-32.527 10.62zm0 0" fill="#414b82"></path><path d="M58.277 509.328c-11.89-6.098-16.586-20.68-10.488-32.566l98.598-192.258c6.097-11.887 20.675-16.582 32.566-10.488 11.89 6.097 16.586 20.68 10.488 32.57L90.848 498.84c-6.114 11.922-20.707 16.57-32.57 10.488zm0 0" fill="#5f6e9b"></path><g fill="#ffb69e"><path d="M229.79 90.2c0 22.394-18.157 40.55-40.552 40.55s-40.547-18.156-40.547-40.55 18.153-40.552 40.547-40.552S229.79 67.805 229.79 90.2zM63.809 201.043 20.28 143.984c-6.754-8.855-5.05-21.504 3.805-28.261 8.851-6.75 21.504-5.051 28.258 3.804l34.933 45.793 58.293-18.41c10.618-3.351 21.942 2.54 25.297 13.156 3.356 10.618-2.539 21.946-13.156 25.297l-71.8 22.676a20.163 20.163 0 0 1-22.102-6.996zM206.578 188.082c-9.629-5.594-12.902-17.934-7.308-27.562l87.406-150.48c5.594-9.63 17.933-12.9 27.562-7.31 9.63 5.594 12.899 17.934 7.309 27.563l-87.406 150.48c-5.606 9.645-17.95 12.891-27.563 7.309zm0 0" fill="#ffb69e"></path></g><path d="m286.676 10.04-78.68 135.452-51.562-.012c-4.204 0-8.38.645-12.387 1.91l-56.77 17.93-34.933-45.797-32.059 24.461L63.81 201.04a20.16 20.16 0 0 0 22.101 7l45.168-14.266.078 119.793h60.262c24.793 0 44.898-20.082 44.922-44.878l.09-91.86L321.547 30.29zm0 0" fill="#64afff"></path><path d="M207.742 197.605c0 13.192-10.691 23.887-23.883 23.887s-23.882-10.695-23.882-23.887c0-13.19 10.691-23.882 23.882-23.882s23.883 10.691 23.883 23.882zm0 0" fill="#ffffff"></path></g></svg>