<svg viewBox="0 0 512 512" xmlns="http://www.w3.org/2000/svg"><g><path d="m499.947 289.658-.541-1.955-34.054-34.054-8.007 8.006c-1.46 1.46-3.41 2.264-5.491 2.264s-4.031-.804-5.491-2.264l-24.792-24.792a7.782 7.782 0 0 1-2.246-5.865v-1h-85.552c-4.962 0-9-4.038-9-9V162.11l-.506-.288a9.022 9.022 0 0 1-4.565-7.825v-26.811c0-2.206 1.794-4 4-4h129.919v-1C409.035 61.443 337.129 22 256 22 167.604 22 90.151 68.82 47.063 139.008l.192 1.606 51.281 51.281a3.973 3.973 0 0 1 1.172 2.829 3.973 3.973 0 0 1-1.172 2.828l-23 23.001-15.842-15.842c-.89-.89-2.073-1.38-3.331-1.38s-2.441.49-3.331 1.38l-.97.969a11.996 11.996 0 0 0-3.537 8.54c0 3.226 1.256 6.258 3.537 8.539l4.415 4.415a11.437 11.437 0 0 0-2.511 7.159c0 2.157.597 4.233 1.734 6.056l-43.147 43.147-.842 2.256a243.52 243.52 0 0 0 27.392 95.209H312.32c7.385-43.097 45.01-76 90.181-76 35.825 0 66.902 20.699 81.914 50.762a243.682 243.682 0 0 0 15.545-66.106l-.013.001z" fill="#05e39c"></path><path d="m156.199 305 12.124-12.124V257.98H146.65l-22.159 22.159-22.388-22.388c-8.238-1.223-14.753-7.738-15.976-15.976l-6.741-6.741a7.72 7.72 0 0 1-1.355 1.825L53.24 261.651a7.707 7.707 0 0 1-2.25 1.555L92.784 305z" fill="#dff6fd"></path><path d="M86.701 244.323a18.717 18.717 0 0 1-.574-2.548l-6.741-6.741a7.72 7.72 0 0 1-1.355 1.825L53.24 261.651a7.707 7.707 0 0 1-2.25 1.555L92.784 305h16.677l-38.244-38.244a5 5 0 0 1 .014-7.085z" fill="#c8effe"></path><path d="m75.535 221.967-.044-1.458-15.798-15.798c-.89-.89-2.073-1.38-3.331-1.38s-2.441.49-3.331 1.38l-.97.969a11.996 11.996 0 0 0-3.537 8.54c0 3.226 1.256 6.258 3.537 8.539l4.415 4.415a11.437 11.437 0 0 0-2.511 7.159c0 2.157.597 4.233 1.734 6.056l-16.656 16.656-.696 2.111 3.204 3.204c3.409 3.409 8.987 3.409 12.396 0l24.792-24.792c3.409-3.409 3.409-8.987 0-12.396z" fill="#fed2a4"></path><path d="m99.242 191.188-52.18-52.18C24.195 176.259 11 220.086 11 267c0 6.322.24 12.589.711 18.791l45.279-45.279a10.455 10.455 0 0 1 .852-13.387l-5.074-5.074c-4.326-4.325-4.326-11.339 0-15.664l.969-.969a3.711 3.711 0 0 1 5.248 0l16.549 16.549 23.708-23.708a5 5 0 0 0 0-7.071z" fill="#eaf6ff"></path><path d="M28 267c0-42.469 10.814-82.407 29.827-117.228l-10.764-10.764C24.195 176.259 11 220.086 11 267c0 6.322.24 12.589.711 18.791l16.313-16.313c-.009-.826-.024-1.65-.024-2.478zM446.365 261.656l-24.792-24.792-1.836-2.152-.35.35v3.917c0 10.477-8.523 19-19 19h-3.917l-22.159 22.159-22.159-22.159h-8.475v48.094l11.902 11.902C369.308 309.742 385.36 305 402.5 305c1.155 0 2.303.029 3.447.072l42.129-42.129a7.724 7.724 0 0 1-1.711-1.287z" fill="#dff6fd"></path><path d="M360.602 304.003V266.43l-8.449-8.449h-8.475v48.094l11.902 11.902a91.357 91.357 0 0 1 11.215-5.709l-4.729-4.729a5.002 5.002 0 0 1-1.464-3.536z" fill="#c8effe"></path><path d="M447.556 235.853a11.447 11.447 0 0 0 .608-4.949l-.087-.904h-29.651c-.42 2.679.387 5.519 2.44 7.572l24.792 24.792c3.409 3.409 8.987 3.409 12.396 0l8.007-8.007z" fill="#fed2a4"></path><path d="M417.918 112.132h-35.061a7.74 7.74 0 0 1-2.47-.409v11.467h40v-11.467a7.729 7.729 0 0 1-2.469.409zM333.775 230c-4.962 0-9-4.038-9-9v-2.02H124.898v-47.055l-3.101-3.101-.678.437a7.769 7.769 0 0 1-4.21 1.229 7.705 7.705 0 0 1-5.486-2.261l-24.792-24.792c-.792-.792-1.356-1.738-1.733-2.745v98.288c0 11.046 8.954 20 20 20h62.425V381H312.32c3.802-22.189 15.619-41.674 32.358-55.359V258.98h55.71c11.046 0 20-8.954 20-20V230z" fill="#ffffff"></path><path d="M101.51 238.98v-80.663l-14.879-14.879c-.792-.792-1.356-1.738-1.733-2.745v98.288c0 11.046 8.954 20 20 20h16.612c-11.046-.001-20-8.955-20-20.001z" fill="#f2fbff"></path><path d="M477.119 161.42c-.202.138-.398.283-.613.405l-.506.287V221c0 4.962-4.038 9-9 9h-19.976a10.466 10.466 0 0 1-.636 6.098l53.56 53.56A248.108 248.108 0 0 0 501 267c0-37.81-8.582-73.608-23.881-105.58z" fill="#eaf6ff"></path><path d="M464.281 230h-17.257a10.466 10.466 0 0 1-.636 6.098l53.56 53.56A248.108 248.108 0 0 0 501 267c0-.095-.004-.19-.004-.285z" fill="#dff6fd"></path><path d="M315.225 424h-247.3c44.942 53.78 112.508 88 188.075 88 42 0 81.52-10.585 116.068-29.21-26.982-9.544-48.194-31.402-56.843-58.79z" fill="#ef4424"></path><path d="M289 91.455v19.397c8.656.49 15.553 7.666 15.553 16.442v9.162h8.953c2.601 0 5.049.65 7.205 1.784v-29.505C320.71 87.342 303.369 70 281.976 70h-2.771C285.2 75.221 289 82.9 289 91.455z" fill="#554e56"></path><path d="M198.495 136.455h8.953v-9.162c0-9.092 7.397-16.489 16.489-16.489h64.127c.656 0 1.3.049 1.937.124V91.454C290 75.187 276.813 62 260.546 62H201.29c-5.523 0-10 4.477-10 10v66.24a15.415 15.415 0 0 1 7.205-1.785z" fill="#685e68"></path><path d="M217 72c0-5.523 4.477-10 10-10h-25.71c-5.523 0-10 4.477-10 10v66.24a15.429 15.429 0 0 1 7.205-1.784h8.953v-9.162c0-6.613 3.921-12.312 9.553-14.938V72z" fill="#554e56"></path><g fill="#918291"><path d="M304.553 127.293v9.162h8.953c2.601 0 5.049.65 7.205 1.784V120H302.83a16.366 16.366 0 0 1 1.723 7.293zM198.495 136.455h8.953v-9.162c0-2.621.631-5.091 1.723-7.293H191.29v18.24a15.415 15.415 0 0 1 7.205-1.785z" fill="#918291"></path></g><path d="m278.197 381-13.916-113.342-5.299 5.925c-.758.847-1.845 1.333-2.981 1.333s-2.224-.486-2.981-1.333l-5.3-5.925L233.803 381z" fill="#01d0fb"></path><path d="m243.866 381 13.039-106.195a3.968 3.968 0 0 1-.905.111 4.003 4.003 0 0 1-2.981-1.333l-5.3-5.925L233.803 381z" fill="#01c0fa"></path><path d="M200 381h56v-11.047c0-12.124-9.829-21.953-21.953-21.953H200z" fill="#685e68"></path><path d="M200 348h16v33h-16z" fill="#554e56"></path><path d="m256 238.856-20.201 16.974 16.474 18.419a5 5 0 0 0 7.454 0l16.474-18.419z" fill="#01c0fa"></path><path d="m245.902 248.648-9.436 7.929 15.807 17.673a5 5 0 0 0 7.454 0l4.648-5.196a4.972 4.972 0 0 1-.94-.804z" fill="#08a9f1"></path><path d="M270.707 207.91h-29.413c-.17 0-.337-.01-.506-.013l-14.347 11.083v39.581c0 2.549 2.978 3.937 4.93 2.297L256 240.163l24.629 20.695c1.952 1.64 4.93.252 4.93-2.297V218.98l-14.347-11.083c-.169.003-.336.013-.505.013z" fill="#f2fbff"></path><path d="M236.779 219.901a3 3 0 0 1-.879-2.121v-6.107l-9.459 7.307v39.581c0 2.549 2.978 3.937 4.93 2.297l8.511-7.151v-24.872l3.289-2.541z" fill="#dff6fd"></path><path d="M270.707 207.91h-29.413c-1.836 0-3.636-.152-5.394-.435v10.304c0 .796.316 1.559.879 2.121l17.1 17.1a3 3 0 0 0 4.243 0l17.1-17.1a3 3 0 0 0 .879-2.121v-10.304a33.914 33.914 0 0 1-5.394.435z" fill="#ffbd86"></path><path d="M253.678 219.901a3 3 0 0 1-.879-2.121v-9.87h-11.506c-1.836 0-3.636-.152-5.394-.435v10.304c0 .796.316 1.559.879 2.121l17.1 17.1a3 3 0 0 0 4.243 0l6.328-6.329zM207.447 135.455h-8.952c-9.131 0-16.533 7.402-16.533 16.533v5.411c0 9.131 7.402 16.533 16.533 16.533h8.952z" fill="#f6a96c"></path><path d="M313.505 135.455h-8.952v38.476h8.952c9.131 0 16.533-7.402 16.533-16.533v-5.411c0-9.13-7.402-16.532-16.533-16.532z" fill="#ffbd86"></path><path d="M270.706 208.91h-29.413c-19.245 0-34.846-15.601-34.846-34.846v-46.77c0-9.659 7.83-17.489 17.489-17.489h64.127c9.659 0 17.489 7.83 17.489 17.489v46.77c.001 19.245-15.6 34.846-34.846 34.846z" fill="#fed2a4"></path><path d="M227.706 174.063v-46.77c0-9.659 7.83-17.489 17.489-17.489h-21.259c-9.659 0-17.489 7.83-17.489 17.489v46.77c0 19.245 15.601 34.846 34.846 34.846h21.259c-19.244.001-34.846-15.6-34.846-34.846z" fill="#ffbd86"></path><path d="M228.805 152.772a6 6 0 0 1-6-6v-8.162a6 6 0 0 1 12 0v8.162a6 6 0 0 1-6 6zM283.195 152.772a6 6 0 0 1-6-6v-8.162a6 6 0 0 1 12 0v8.162a6 6 0 0 1-6 6zM255.995 169a5.971 5.971 0 0 1-3.561-1.175l-8-5.912a5.998 5.998 0 0 1-1.756-7.595l8-15.371a6 6 0 0 1 10.644 5.54l-5.633 10.823 3.876 2.865a5.999 5.999 0 0 1-3.57 10.825z" fill="#d88a55"></path><path d="M241 190v5.516a5.517 5.517 0 0 0 5.516 5.516h18.968a5.517 5.517 0 0 0 5.516-5.516V190c0-6.093-4.939-11.032-11.032-11.032h-7.937c-6.092 0-11.031 4.939-11.031 11.032z" fill="#fd6930"></path><path d="M253 195.516V190c0-5.398 3.879-9.882 9-10.837a11.058 11.058 0 0 0-2.032-.195h-7.937c-6.093 0-11.032 4.939-11.032 11.032v5.516a5.517 5.517 0 0 0 5.516 5.516h12a5.516 5.516 0 0 1-5.515-5.516z" fill="#fd5426"></path><path d="M195 215c0-1.643-.804-3.089-2.028-4 1.224-.911 2.028-2.357 2.028-4a5 5 0 0 0-5-5h-1.555a19.982 19.982 0 0 0-3.832-5.399l-18.884-18.884-3.535 3.536a19.875 19.875 0 0 1-4.001 3.071l19.213 19.213A4.97 4.97 0 0 0 176 207c0 1.643.804 3.089 2.028 4-1.224.911-2.028 2.357-2.028 4s.804 3.089 2.028 4c-1.224.911-2.028 2.357-2.028 4s.804 3.089 2.028 4c-1.224.911-2.028 2.357-2.028 4s.804 3.089 2.028 4c-1.224.911-2.028 2.357-2.028 4s.804 3.089 2.028 4c-1.224.911-2.028 2.357-2.028 4s.804 3.089 2.028 4c-1.224.911-2.028 2.357-2.028 4s.804 3.089 2.028 4c-1.224.911-2.028 2.357-2.028 4s.804 3.089 2.028 4c-1.224.911-2.028 2.357-2.028 4 0 2.58 1.961 4.678 4.47 4.947V305H182c1.103 0 2 .897 2 2v13h6.47v-44.047c2.537-.24 4.53-2.353 4.53-4.953 0-1.643-.804-3.089-2.028-4 1.224-.911 2.028-2.357 2.028-4s-.804-3.089-2.028-4c1.224-.911 2.028-2.357 2.028-4s-.804-3.089-2.028-4c1.224-.911 2.028-2.357 2.028-4s-.804-3.089-2.028-4c1.224-.911 2.028-2.357 2.028-4s-.804-3.089-2.028-4c1.224-.911 2.028-2.357 2.028-4s-.804-3.089-2.028-4c1.224-.911 2.028-2.357 2.028-4s-.804-3.089-2.028-4c1.224-.911 2.028-2.357 2.028-4z" fill="#918291"></path><g fill="#685e68"><path d="m86.631 132.456 15.39-15.39a7.736 7.736 0 0 1 1.864-1.374l-3.431-3.431 7.586-7.586a5 5 0 0 0 0-7.071L92.214 81.78a5 5 0 0 0-7.071 0L73.932 92.991c-8.114 8.114-8.114 21.269 0 29.382l11.555 11.555a7.752 7.752 0 0 1 1.144-1.472zM158.286 147.852a5 5 0 0 0-7.071 0l-7.586 7.586-4.461-4.461a7.77 7.77 0 0 1-1.374 1.863l-15.39 15.39a7.727 7.727 0 0 1-1.473 1.144l12.587 12.587c8.114 8.114 21.269 8.114 29.383 0l11.211-11.211a5 5 0 0 0 0-7.071z" fill="#685e68"></path></g><g fill="#554e56"><path d="m86.631 132.456 6.578-6.578-11.687-11.688c-6.947-6.947-7.992-17.537-3.18-25.608l-4.409 4.409c-8.114 8.114-8.114 21.269 0 29.382l11.555 11.555a7.706 7.706 0 0 1 1.143-1.472zM141.81 174.478l-12.828-12.828-6.579 6.579a7.727 7.727 0 0 1-1.473 1.144l12.587 12.587c8.114 8.114 21.269 8.114 29.383 0l3.987-3.987c-7.999 4.453-18.282 3.3-25.077-3.495z" fill="#554e56"></path></g><path d="M116.244 122.088a8.715 8.715 0 0 0-2.534-5.729c-3.409-3.409-8.987-3.409-12.396 0l-15.39 15.39c-3.409 3.409-3.409 8.987 0 12.396l24.792 24.792c3.409 3.409 8.987 3.409 12.396 0l15.39-15.39c3.409-3.409 3.409-8.987 0-12.396a8.712 8.712 0 0 0-5.729-2.534 8.715 8.715 0 0 0-2.534-5.729 8.715 8.715 0 0 0-5.73-2.534 8.72 8.72 0 0 0-2.534-5.73 8.719 8.719 0 0 0-5.731-2.536z" fill="#fed2a4"></path><path d="M102.866 144.145c-3.409-3.409-3.409-8.987 0-12.396l12.678-12.678a8.627 8.627 0 0 0-1.834-2.712c-3.409-3.409-8.987-3.409-12.396 0l-15.39 15.39c-3.409 3.409-3.409 8.987 0 12.396l24.792 24.792c3.409 3.409 8.987 3.409 12.396 0l2.273-2.273z" fill="#ffbd86"></path><path d="M472.071 163H420v6c0 2.206-1.794 4-4 4h-31.225c-2.206 0-4-1.794-4-4v-6h-52.071a8.942 8.942 0 0 1-4.929-1.479V221c0 5.523 4.477 10 10 10H467c5.523 0 10-4.477 10-10v-59.479a8.94 8.94 0 0 1-4.929 1.479z" fill="#685e68"></path><path d="M353.704 221v-58h-25a8.942 8.942 0 0 1-4.929-1.479V221c0 5.523 4.477 10 10 10h29.929c-5.523 0-10-4.477-10-10z" fill="#554e56"></path><g fill="#685e68"><path d="M375.092 88.221c-11.14 1.337-19.804 10.839-19.804 22.333v12.635h15v-12.635c0-3.185 1.998-5.905 4.804-6.991zM425.683 88.221v15.342c2.806 1.086 4.804 3.806 4.804 6.991v12.635h15v-12.635c0-11.494-8.664-20.996-19.804-22.333z" fill="#685e68"></path></g><path d="M388.701 76.096a8.717 8.717 0 0 0-5.843-2.259c-4.821 0-8.765 3.944-8.765 8.765v21.765c0 4.821 3.944 8.765 8.765 8.765h35.061c4.821 0 8.765-3.944 8.765-8.765V82.602c0-4.821-3.944-8.765-8.765-8.765a8.715 8.715 0 0 0-5.843 2.259 8.717 8.717 0 0 0-5.843-2.259 8.715 8.715 0 0 0-5.843 2.259 8.718 8.718 0 0 0-5.844-2.259 8.719 8.719 0 0 0-5.845 2.259z" fill="#fed2a4"></path><path d="M391 104.18V81.952c0-3.486 2.025-6.516 4.952-7.992a8.601 8.601 0 0 0-1.408-.123 8.715 8.715 0 0 0-5.843 2.259 8.717 8.717 0 0 0-5.843-2.259c-4.821 0-8.765 3.944-8.765 8.765v21.765c0 4.821 3.944 8.765 8.765 8.765h17.095c-4.925 0-8.953-4.028-8.953-8.952z" fill="#ffbd86"></path><path d="M201 381v-59a3 3 0 0 0-3-3H54v62z" fill="#f2fbff"></path><path d="M54 319h24v62H54z" fill="#dff6fd"></path><path d="M185 319H41a3 3 0 0 1-3-3v-9a3 3 0 0 1 3-3h141a3 3 0 0 1 3 3z" fill="#ffe5c2"></path><path d="M38 307v9a3 3 0 0 0 3 3h29v-15H41a3 3 0 0 0-3 3z" fill="#fed2a4"></path><path d="M311 396.5c0-5.632.515-11.146 1.494-16.5H20a5 5 0 0 0-5 5v35a5 5 0 0 0 5 5h295.55a91.161 91.161 0 0 1-4.55-28.5z" fill="#fd6930"></path><path d="M311.858 409H56c-5.523 0-10-4.477-10-10v-19H20a5 5 0 0 0-5 5v35a5 5 0 0 0 5 5h295.55a90.818 90.818 0 0 1-3.692-16z" fill="#fd5426"></path><circle cx="402.5" cy="396.5" fill="#6e61b6" r="92.5"></circle><path d="M367.752 455.25c-20.058-11.908-33.538-33.78-33.538-58.75s13.48-46.842 33.538-58.75c13.262-16.107 31.861-27.654 53.095-31.927A92.95 92.95 0 0 0 402.5 304c-51.086 0-92.5 41.414-92.5 92.5s41.414 92.5 92.5 92.5c6.282 0 12.417-.629 18.347-1.823-21.234-4.273-39.833-15.82-53.095-31.927z" fill="#6354b1"></path><circle cx="402.5" cy="396.5" fill="#ffffff" r="68.285"></circle><circle cx="402.5" cy="396.5" fill="#05e39c" r="35.577"></circle><path d="M392 396.5c0-5.064 1.084-9.874 3-14.238v-20.536c-16.027 3.454-28.077 17.73-28.077 34.774 0 19.617 15.96 35.577 35.577 35.577 4.412 0 8.636-.813 12.538-2.288C401.591 424.707 392 411.705 392 396.5z" fill="#0ed290"></path><path d="M358.301 396.5c0-33.559 24.34-61.52 56.289-67.209a68.444 68.444 0 0 0-12.09-1.077c-37.653 0-68.285 30.633-68.285 68.285s30.632 68.285 68.285 68.285a68.35 68.35 0 0 0 12.09-1.077c-31.949-5.687-56.289-33.648-56.289-67.207z" fill="#f2fbff"></path><path d="M440.868 404H402.5a7.5 7.5 0 0 1-7.5-7.5v-49.07a7.5 7.5 0 0 1 15 0V389h30.868a7.5 7.5 0 0 1 0 15zM477.071 122.189H323.704a5 5 0 0 0-5 5V154c0 5.523 4.477 10 10 10h52.071v-13c0-2.206 1.794-4 4-4H416c2.206 0 4 1.794 4 4v13h52.071c5.523 0 10-4.477 10-10v-26.811a5 5 0 0 0-5-5z" fill="#554e56"></path><path d="M348.633 154v-26.811a5 5 0 0 1 5-5h-29.929a5 5 0 0 0-5 5V154c0 5.523 4.477 10 10 10h29.929c-5.523 0-10-4.477-10-10z" fill="#433f43"></path><path d="M379.775 169v-18a5 5 0 0 1 5-5H416a5 5 0 0 1 5 5v18a5 5 0 0 1-5 5h-31.225a5 5 0 0 1-5-5z" fill="#fac600"></path><path d="M396.775 165a5 5 0 0 1-5-5v-14h-7a5 5 0 0 0-5 5v18a5 5 0 0 0 5 5H416a5 5 0 0 0 5-5v-4z" fill="#e8b800"></path><path d="m180.12 82.831-22.503-13.698c-9.923-6.04-22.726.53-23.603 12.114-.877 11.584 10.789 20.008 21.509 15.531l24.309-10.153c1.611-.672 1.778-2.887.288-3.794z" fill="#dff6fd"></path><path d="m180.12 82.831-3.062-1.864-16.68 6.966c-10.72 4.477-22.386-3.947-21.509-15.531.039-.509.108-1.005.191-1.494-2.797 2.525-4.725 6.093-5.046 10.339-.877 11.584 10.789 20.008 21.509 15.531l24.309-10.152c1.611-.673 1.778-2.888.288-3.795z" fill="#c8effe"></path><path d="m322.51 65.904 25.598-6.226c11.288-2.745 15.694-16.445 8.124-25.256-7.571-8.811-21.777-6.519-26.191 4.227l-10.01 24.368c-.664 1.615.783 3.3 2.479 2.887z" fill="#dff6fd"></path><path d="M338.175 46.682c3.456-8.413 12.914-11.643 20.491-8.421a15.718 15.718 0 0 0-2.434-3.839c-7.571-8.811-21.777-6.519-26.191 4.227l-10.01 24.368c-.663 1.614.785 3.299 2.48 2.886l8.631-2.099z" fill="#c8effe"></path><path d="m193.784 54.826 6.187-31.94c2.728-14.085-10.382-26.082-24.17-22.119-13.788 3.963-18.527 21.091-8.736 31.578l22.203 23.78c1.469 1.575 4.106.817 4.516-1.299z" fill="#dff6fd"></path><path d="M181.181 25.345c-6.961-7.456-6.572-18.265-.813-25.317a19.459 19.459 0 0 0-4.568.74c-13.788 3.963-18.527 21.091-8.736 31.578l22.203 23.78c1.471 1.575 4.107.817 4.517-1.298l2.564-13.237z" fill="#c8effe"></path></g></svg>