<svg viewBox="0 0 512 512" xmlns="http://www.w3.org/2000/svg"><g><path d="M50.003 195c-8.284 0-15-6.716-15-15V75H24.354c-8.284 0-15-6.716-15-15s6.716-15 15-15h25.649c8.284 0 15 6.716 15 15v120c0 8.284-6.716 15-15 15zM41.894 467.027c-23.198 0-24.979-.594-26.956-1.253-4.916-1.64-8.592-5.369-10.087-10.231-2.525-8.211 1.236-13.136 8.729-22.947 5.97-7.816 17.081-22.365 35.707-48.977 5.15-7.359 8.606-14.145 10.029-19.682l.334-2.614C59.236 353.355 52.623 347 44.554 347c-7.209 0-13.447 5.118-14.833 12.17-1.597 8.129-9.481 13.428-17.61 11.827-8.129-1.597-13.424-9.481-11.827-17.61C4.426 332.303 23.044 317 44.554 317c24.877 0 45.117 20.239 45.117 45.117-.065 2.128-.583 5.842-.969 7.94-2.2 9.492-7.192 19.843-14.836 30.765-11.135 15.909-19.646 27.604-26.012 36.167a3559.86 3559.86 0 0 0 31.618-.258l.192-.001c8.197 0 14.892 6.592 14.995 14.812.104 8.284-6.527 15.083-14.811 15.188-16.719.208-28.95.297-37.954.297zm-19.995-30.292c.001 0 .001 0 0 0z" fill="#7a7a93"></path><path d="M467 240H167c-24.813 0-45-20.187-45-45V45c0-24.813 20.187-45 45-45h300c24.813 0 45 20.187 45 45v150c0 24.813-20.187 45-45 45z" fill="#f1f1f4"></path><path d="M122 120v75c0 24.813 20.187 45 45 45h300c24.813 0 45-20.187 45-45v-75z" fill="#e2dff4"></path><path d="M167 30c-8.271 0-15 6.729-15 15v150c0 8.271 6.729 15 15 15h300c8.271 0 15-6.729 15-15V45c0-8.271-6.729-15-15-15z" fill="#ff8659"></path><path d="M152 120v75c0 8.271 6.729 15 15 15h300c8.271 0 15-6.729 15-15v-75z" fill="#ff5c5c"></path><path d="M182 165V75c0-11.472 12.355-18.698 22.354-13.074l80 45c10.195 5.735 10.195 20.413 0 26.147l-80 45C194.355 183.698 182 176.472 182 165z" fill="#f1f1f4"></path><path d="M437 105H332c-8.284 0-15-6.716-15-15s6.716-15 15-15h105c8.284 0 15 6.716 15 15s-6.716 15-15 15z" fill="#7a7a93"></path><path d="M387 165h-55c-8.284 0-15-6.716-15-15s6.716-15 15-15h55c8.284 0 15 6.716 15 15s-6.716 15-15 15z" fill="#616173"></path><path d="M182 165c0 11.472 12.355 18.698 22.354 13.074l80-45c5.097-2.867 7.646-7.97 7.646-13.074H182z" fill="#e2dff4"></path><path d="M467 512H167c-24.813 0-45-20.187-45-45V317c0-24.813 20.187-45 45-45h300c24.813 0 45 20.187 45 45v150c0 24.813-20.187 45-45 45z" fill="#f1f1f4"></path><path d="M122 392v75c0 24.813 20.187 45 45 45h300c24.813 0 45-20.187 45-45v-75z" fill="#e2dff4"></path><path d="M167 302c-8.271 0-15 6.729-15 15v150c0 8.271 6.729 15 15 15h300c8.271 0 15-6.729 15-15V317c0-8.271-6.729-15-15-15z" fill="#ff8659"></path><path d="M152 392v75c0 8.271 6.729 15 15 15h300c8.271 0 15-6.729 15-15v-75z" fill="#ff5c5c"></path><path d="M182 437v-90c0-11.472 12.355-18.698 22.354-13.074l80 45c10.195 5.735 10.195 20.413 0 26.147l-80 45C194.355 455.698 182 448.472 182 437z" fill="#f1f1f4"></path><path d="M437 377H332c-8.284 0-15-6.716-15-15s6.716-15 15-15h105c8.284 0 15 6.716 15 15s-6.716 15-15 15z" fill="#7a7a93"></path><path d="M387 437h-55c-8.284 0-15-6.716-15-15s6.716-15 15-15h55c8.284 0 15 6.716 15 15s-6.716 15-15 15z" fill="#616173"></path><path d="M182 437c0 11.472 12.355 18.698 22.354 13.074l80-45c5.097-2.867 7.646-7.97 7.646-13.074H182z" fill="#e2dff4"></path><path d="M35.003 120v60c0 8.284 6.716 15 15 15s15-6.716 15-15v-60zM79.663 436.729l-.192.001c-10.642.134-21.886.227-31.618.258 6.366-8.562 14.877-20.257 26.012-36.167a127.458 127.458 0 0 0 5.664-8.822h-36.14c-15.116 21.357-24.498 33.645-29.808 40.597-7.493 9.811-11.254 14.735-8.729 22.947 1.495 4.862 5.171 8.591 10.087 10.231 1.977.659 3.758 1.253 26.956 1.253 9.003 0 21.234-.089 37.953-.299 8.284-.104 14.915-6.904 14.811-15.188-.104-8.219-6.799-14.811-14.996-14.811zm-57.764.006c.001 0 .001 0 0 0z" fill="#616173"></path></g></svg>