<svg height="512" viewBox="0 0 256 256" width="512" xmlns="http://www.w3.org/2000/svg"><path d="m142 217v13l25-2v-13z" fill="#ff9c1a"/><path d="m142 217v13l25-2v-13z" fill="#39bdbd"/><path d="m37 214v13l16 13v-13z" fill="#ff9c1a"/><path d="m37 214v13l16 13v-13z" fill="#39bdbd"/><path d="m19 121v13l9 23v-13z" fill="#ff9c1a"/><path d="m19 121v13l9 23v-13z" fill="#00537d"/><path d="m61 148v13l19-10v-13z" fill="#ff9c1a"/><path d="m61 148v13l19-10v-13z" fill="#00537d"/><path d="m197 162v13l17 10v-13z" fill="#ff9c1a"/><path d="m197 162v13l17 10v-13z" fill="#39bdbd"/><path d="m40 67v13l22.15 15.03 5.85-9.03z" fill="#ff9c1a"/><path d="m40 67v13l22.15 15.03 5.85-9.03z" fill="#00537d"/><path d="m200.4 35.32 2.6-3.32v-13l-11 14z" fill="#ff9c1a"/><path d="m200.4 35.32 2.6-3.32v-13l-11 14z" fill="#00537d"/><path d="m221.13 77.88 8.87-8.88v-13l-17 17z" fill="#ff9c1a"/><path d="m221.13 77.88 8.87-8.88v-13l-17 17z" fill="#00537d"/><path d="m214 185 20-17v-13l-20 17z" fill="#ff9c1a"/><path d="m214 185 20-17v-13l-20 17z" fill="#00537d"/><path d="m102 171v13l4.02 8.03 4.98-3.03z" fill="#ff9c1a"/><path d="m102 171v13l4.02 8.03 4.98-3.03z" fill="#00537d"/><path d="m244 123-20 12 5 10 15-9z" fill="#ff9c1a"/><path d="m244 123-20 12 5 10 15-9z" fill="#00537d"/><path d="m107 243v13l35-26v-13z" fill="#ff9c1a"/><path d="m107 243v13l35-26v-13z" fill="#00537d"/><path d="m53 227h34v13h-34z" fill="#ff9c1a"/><path d="m53 227h34v13h-34z" fill="#00537d"/><path d="m178 180-11 35v13l11-35 19-18v-13z" fill="#ff9c1a"/><path d="m178 180-11 35v13l11-35 19-18v-13z" fill="#00537d"/><path d="m87 227v13l20 16v-13z" fill="#ff9c1a"/><path d="m87 227v13l20 16v-13z" fill="#39bdbd"/><path d="m80 138v13l27.21 13.99 7.79-8.99z" fill="#39bdbd"/><path d="m28 144v13l33 4v-13z" fill="#ff9c1a"/><path d="m28 144v13l33 4v-13z" fill="#39bdbd"/><path d="m244 123-11-38-20-12 17-17-9-15-29-8 11-14-22-13-40 13-10 18-26-6-24 27-17-8-24 17 28 19-11 17-23 4-15 14 9 23 33 4 19-10 35 18-13 15 9 18-23 14-31-6-20 17 16 13h34l20 16 35-26 25-2 11-35 19-18 17 10 20-17-10-20z" fill="#d9e021"/><path d="m244 123-11-38-20-12 17-17-9-15-29-8 11-14-22-13-40 13-10 18-26-6-24 27-17-8-24 17 28 19-11 17-23 4-15 14 9 23 33 4 19-10 35 18-13 15 9 18-23 14-31-6-20 17 16 13h34l20 16 35-26 25-2 11-35 19-18 17 10 20-17-10-20z" fill="#ff9c1a"/><ellipse cx="146.5" cy="119" fill="#e64e17" rx="50" ry="32"/><ellipse cx="146.5" cy="118" fill="#ecffd7" rx="40" ry="25"/><ellipse cx="146.5" cy="117.5" fill="#e64e17" rx="30" ry="18.5"/><ellipse cx="146.5" cy="117" fill="#ecffd7" rx="20" ry="12"/><path d="m155 117v-112l-8 5v112z" fill="#00537d"/><path d="m147 10-8-5v112l8 5z" fill="#e64e17"/><path d="m147 23v50l67 39v-52z" fill="#39bdbd"/><path d="m147 23 8-4 66 37-7 4z" fill="#48d7d9"/><path d="m221 56v52l-7 4v-52z" fill="#00537d"/><path d="m196 72-8-5v-11l-17-10v12l-8-5v21l12 6.91v-10.91l7 4v10.94l14 8.06z" fill="#ecffd7"/><path d="m139 5 8-5 8 5-8 5z" fill="#ff9c1a"/></svg>