<svg viewBox="0 0 512 512" xmlns="http://www.w3.org/2000/svg"><g><path clip-rule="evenodd" d="M157.505 49.975c-10.657 0-19.349 8.692-19.349 19.349v356.021c0 10.656 8.692 19.349 19.349 19.349h297.973c10.657 0 19.349-8.692 19.349-19.349V69.324c0-10.657-8.692-19.349-19.349-19.349z" fill="#837683" fill-rule="evenodd"></path><path clip-rule="evenodd" d="M157.505 49.975c-10.657 0-19.349 8.692-19.349 19.349v356.021c0 10.656 8.692 19.349 19.349 19.349h25.063V49.975z" fill="#685e68" fill-rule="evenodd"></path><path clip-rule="evenodd" d="M167.224 417.152h235.417c2.115 0 3.935-.672 5.43-2.006l43.118-38.445c1.495-1.333 2.249-2.956 2.249-4.842V84.364c0-3.771-3.45-6.847-7.68-6.847H167.224c-4.23 0-7.679 3.076-7.679 6.847v325.941c0 3.771 3.449 6.847 7.679 6.847z" fill="#eceff1" fill-rule="evenodd"></path><path clip-rule="evenodd" d="M405.822 416.559a7.755 7.755 0 0 0 2.249-1.412l43.118-38.445c.683-.609 1.211-1.278 1.583-2.005h-43.111c-2.115 0-3.84 1.538-3.84 3.423v38.439zM167.224 417.152h15.344V77.516h-15.344c-4.23 0-7.679 3.076-7.679 6.847v325.941c0 3.772 3.449 6.848 7.679 6.848z" fill="#d1d1d6" fill-rule="evenodd"></path><path clip-rule="evenodd" d="M405.822 416.559a7.755 7.755 0 0 0 2.249-1.412l43.118-38.445c.683-.609 1.211-1.278 1.583-2.005h-43.111c-2.115 0-3.84 1.538-3.84 3.423v38.439z" fill="#d1d1d6" fill-rule="evenodd"></path><path clip-rule="evenodd" d="M372.238 41.227h-33.771c-3.481-14.431-16.475-25.153-31.975-25.153s-28.494 10.722-31.975 25.153h-33.771c-4.818 0-8.747 3.93-8.747 8.748v32.813c0 4.818 3.929 8.747 8.747 8.747h131.492c4.818 0 8.747-3.929 8.747-8.747V49.975c0-4.818-3.929-8.748-8.747-8.748z" fill="#e3a76f" fill-rule="evenodd"></path><path clip-rule="evenodd" d="M306.492 51.845c4.792 0 8.701-3.909 8.701-8.701s-3.908-8.701-8.701-8.701c-4.792 0-8.701 3.908-8.701 8.701 0 4.792 3.909 8.701 8.701 8.701z" fill="#eceff1" fill-rule="evenodd"></path><path clip-rule="evenodd" d="M240.746 41.228c-4.818 0-8.747 3.929-8.747 8.747v32.813c0 4.818 3.929 8.747 8.747 8.747h131.492c4.818 0 8.747-3.929 8.747-8.747v-.001H249.493c-4.818 0-8.747-3.929-8.747-8.747z" fill="#c48958" fill-rule="evenodd"></path><path clip-rule="evenodd" d="M345.203 280.233a8 8 0 0 1 0-16h66.56a8 8 0 0 1 0 16zm0-99.609a8 8 0 0 1 0-16h66.56a8 8 0 0 1 0 16zm0-33.203a8 8 0 0 1 0-16h66.56a8 8 0 0 1 0 16zm0 66.406a8 8 0 0 1 0-16h66.56a8 8 0 0 1 0 16zm0 99.609a8 8 0 0 1 0-16h66.56a8 8 0 0 1 0 16zm0-66.406a8 8 0 0 1 0-16h66.56a8 8 0 0 1 0 16z" fill="#a79ba7" fill-rule="evenodd"></path><path clip-rule="evenodd" d="M221.199 240.582h72.829c6.919 0 12.563-5.739 12.563-12.775v-80.194c0-3.657-2.933-6.641-6.53-6.641h-84.895c-3.596 0-6.53 2.984-6.53 6.641v80.194c0 7.036 5.643 12.775 12.563 12.775z" fill="#e3a76f" fill-rule="evenodd"></path><path clip-rule="evenodd" d="M281.465 240.582h12.564c6.919 0 12.563-5.739 12.563-12.775v-80.194c0-3.657-2.933-6.64-6.53-6.64h-12.564c3.597 0 6.53 2.983 6.53 6.64v80.194c-.001 7.036-5.644 12.775-12.563 12.775z" fill="#c48958" fill-rule="evenodd"></path><path clip-rule="evenodd" d="M241.215 140.973h32.798v33.684c0 3.46-2.821 6.281-6.281 6.281h-20.235c-3.46 0-6.281-2.822-6.281-6.281v-33.684z" fill="#f2d1a5" fill-rule="evenodd"></path><path clip-rule="evenodd" d="M266.602 140.973h7.41v33.684c0 3.46-2.821 6.281-6.281 6.281h-7.41c3.46 0 6.281-2.822 6.281-6.281z" fill="#ecba78" fill-rule="evenodd"></path><path clip-rule="evenodd" d="M139.536 379.24a93.568 93.568 0 0 0 15.794 17.388l-42.946 42.098-16.35-16.849z" fill="#a79ba7" fill-rule="evenodd"></path><path clip-rule="evenodd" d="M139.247 378.951c.844 2.77 2.419 4.875 4.675 6.269l-42.661 42.382-5.225-5.725z" fill="#837683" fill-rule="evenodd"></path><path clip-rule="evenodd" d="m58.003 493.368-18.452-19.016c-3.241-3.339-3.159-8.722.18-11.963l51.107-49.592c3.339-3.241 8.724-3.16 11.964.179l18.451 19.016c3.24 3.339 3.16 8.724-.18 11.964l-51.107 49.592c-3.339 3.24-8.722 3.16-11.963-.18z" fill="#f1ba84" fill-rule="evenodd"></path><path clip-rule="evenodd" d="m98.398 412.797-51.106 49.592c-3.339 3.241-3.421 8.623-.18 11.963l18.452 19.016a8.39 8.39 0 0 0 2.292 1.675c-3.209 1.595-7.232 1.026-9.853-1.675l-18.451-19.016c-3.241-3.34-3.159-8.722.18-11.963l51.107-49.592c2.636-2.559 6.547-3.047 9.672-1.496a8.386 8.386 0 0 0-2.113 1.496z" fill="#e3a76f" fill-rule="evenodd"></path><circle clip-rule="evenodd" cx="209.277" cy="332.39" fill="#8ac9fe" fill-rule="evenodd" r="93.064" transform="rotate(-18.38 209.743 332.496)"></circle><path clip-rule="evenodd" d="M209.276 239.326c-51.398 0-93.064 41.666-93.064 93.064 0 51.397 41.666 93.064 93.064 93.064 1.511 0 3.013-.039 4.506-.111-49.305-2.351-88.558-43.067-88.558-92.953 0-49.887 39.254-90.603 88.558-92.954a94.835 94.835 0 0 0-4.506-.11z" fill="#60b7ff" fill-rule="evenodd"></path><circle clip-rule="evenodd" cx="209.277" cy="332.39" fill="#eceff1" fill-rule="evenodd" r="66.825" transform="rotate(-5.73 207.916 331.056)"></circle><path clip-rule="evenodd" d="M209.276 265.565a67.24 67.24 0 0 0-4.506.155c34.805 2.318 62.32 31.279 62.32 66.671s-27.515 64.353-62.32 66.671c1.49.099 2.991.154 4.506.154 36.907 0 66.826-29.919 66.826-66.825 0-36.907-29.919-66.826-66.826-66.826z" fill="#d1d1d6" fill-rule="evenodd"></path></g></svg>