<svg viewBox="0 0 512 512" xmlns="http://www.w3.org/2000/svg"><g><path d="M137.06 214.329a7.5 7.5 0 0 1-7.5-7.5v-67.285c0-10.348 4.928-20.25 13.181-26.49l26.05-19.695a7.5 7.5 0 1 1 9.046 11.964l-26.05 19.695a18.304 18.304 0 0 0-7.227 14.525v67.285a7.5 7.5 0 0 1-7.5 7.501zM374.94 214.329a7.5 7.5 0 0 1-7.5-7.5v-67.285a18.301 18.301 0 0 0-7.227-14.524l-26.05-19.696a7.498 7.498 0 0 1-1.459-10.505 7.498 7.498 0 0 1 10.505-1.459l26.05 19.695c8.253 6.239 13.181 16.142 13.181 26.49v67.285a7.5 7.5 0 0 1-7.5 7.499z" fill="#c5d3dd"></path><path d="M379.24 229.154H132.76a8.081 8.081 0 0 1-8.081-8.081V204.91a8.081 8.081 0 0 1 8.081-8.081h246.48a8.081 8.081 0 0 1 8.081 8.081v16.163a8.081 8.081 0 0 1-8.081 8.081z" fill="#c7865b"></path><path d="M195.39 479.675h-32.325l-10.102-250.521h42.427z" fill="#b36d3c"></path><path d="M154.267 261.48h41.123v-32.326h-42.427z" fill="#995e34"></path><path d="M316.61 479.675h32.325l10.102-250.521H316.61z" fill="#b36d3c"></path><path d="M357.733 261.48H316.61v-32.326h42.427z" fill="#995e34"></path><path d="M195.39 229.154h121.22v250.52H195.39z" fill="#c7865b"></path><path d="M195.39 229.154h121.22v32.325H195.39zM379.24 196.829h-32.325a8.081 8.081 0 0 1 8.081 8.081v16.163a8.081 8.081 0 0 1-8.081 8.081h32.325a8.081 8.081 0 0 0 8.081-8.081V204.91a8.081 8.081 0 0 0-8.081-8.081z" fill="#b36d3c"></path><path d="M359.037 512H152.963a8.081 8.081 0 0 1-8.081-8.081v-16.163a8.081 8.081 0 0 1 8.081-8.081h206.073a8.081 8.081 0 0 1 8.081 8.081v16.163a8.08 8.08 0 0 1-8.08 8.081z" fill="#c7865b"></path><path d="M359.037 479.675h-32.325a8.081 8.081 0 0 1 8.081 8.081v16.163a8.081 8.081 0 0 1-8.081 8.081h32.325a8.081 8.081 0 0 0 8.081-8.081v-16.163a8.081 8.081 0 0 0-8.081-8.081z" fill="#b36d3c"></path><path d="M336.52 165.66v31.17H175.48v-31.17c0-19.75 12.24-36.64 29.55-43.49l.01.01L256 118.9l50.96 3.28v-.01c17.31 6.85 29.56 23.74 29.56 43.49z" fill="#0573ce"></path><path d="M336.52 165.66v31.17h-28.28v-31.17c0-22.57-15.99-41.41-37.27-45.8l35.99 2.32v-.01c17.31 6.85 29.56 23.74 29.56 43.49z" fill="#0067c5"></path><circle cx="256" cy="66.951" fill="#fed2a4" r="51.951"></circle><path d="M280.424 21.097a51.71 51.71 0 0 1 6.097 24.424c0 28.692-23.259 51.951-51.951 51.951a51.704 51.704 0 0 1-24.424-6.097c8.742 16.377 25.993 27.527 45.854 27.527 28.692 0 51.951-23.259 51.951-51.951 0-19.861-11.149-37.112-27.527-45.854z" fill="#ffbd86"></path><circle cx="256" cy="328.306" fill="#ffe177" r="32.325"></circle><path d="M92.326 32.325 9.633 243.065a9.997 9.997 0 0 0 1.552 9.963l42.608 52.374c4.454 5.475 13.026 4.737 16.479-1.419l22.056-39.322V32.325z" fill="#fe76a8"></path><path d="M65.867 183.571c-16.118 16.118-32.81 29.949-48.985 41.02l-7.249 18.475a9.997 9.997 0 0 0 1.552 9.963l42.608 52.374c4.454 5.475 13.026 4.737 16.479-1.419l22.056-39.322V154.146c-7.93 9.858-16.782 19.745-26.461 29.425z" fill="#fe5694"></path><path d="m419.673 32.325 82.694 210.74a9.997 9.997 0 0 1-1.552 9.963l-42.608 52.374c-4.454 5.475-13.026 4.737-16.479-1.419l-22.056-39.322V32.325z" fill="#fe76a8"></path><path d="M464.73 147.148c-9.256 12.16-19.963 24.45-31.937 36.423a378.147 378.147 0 0 1-13.119 12.506v68.585l22.056 39.322c3.453 6.156 12.025 6.894 16.479 1.419l42.607-52.374a10.002 10.002 0 0 0 1.552-9.963z" fill="#fe5694"></path><circle cx="173.315" cy="99.341" fill="#766d78" r="13.132"></circle><circle cx="338.685" cy="99.341" fill="#766d78" r="13.132"></circle><path d="M304.199 171.146a7.5 7.5 0 0 0-7.5 7.5v18.183h15v-18.183a7.5 7.5 0 0 0-7.5-7.5zM207.801 171.146a7.5 7.5 0 0 0-7.5 7.5v18.183h15v-18.183a7.5 7.5 0 0 0-7.5-7.5zM248.5 119.86v76.969h15V119.86l-7.5-.958z" fill="#0055a3"></path><path d="M291.679 145.453c-5.901 8.99-19.37 8.044-23.956-1.683L256 118.902h33.768c6.071 0 11.865 1.17 17.187 3.275zM220.321 145.453c5.901 8.99 19.37 8.044 23.956-1.683L256 118.902h-33.768a46.618 46.618 0 0 0-17.187 3.275z" fill="#dff6fd"></path><path d="M92.327 512a7.5 7.5 0 0 1-7.5-7.5V16.163a7.5 7.5 0 0 1 15 0V504.5a7.5 7.5 0 0 1-7.5 7.5z" fill="#c5d3dd"></path><path d="M108.489 512H76.164a7.5 7.5 0 0 1 0-15h32.325a7.5 7.5 0 0 1 0 15z" fill="#b6c4cf"></path><path d="M419.673 512a7.5 7.5 0 0 1-7.5-7.5V16.163a7.5 7.5 0 0 1 15 0V504.5a7.5 7.5 0 0 1-7.5 7.5z" fill="#c5d3dd"></path><path d="M435.836 512h-32.325a7.5 7.5 0 0 1 0-15h32.325a7.5 7.5 0 0 1 0 15z" fill="#b6c4cf"></path><circle cx="92.326" cy="16.163" fill="#ffe177" r="16.163"></circle><circle cx="419.673" cy="16.163" fill="#ffe177" r="16.163"></circle></g></svg>