<svg viewBox="0 0 512 512" xmlns="http://www.w3.org/2000/svg"><g><path d="M326.194 363.355h-16.516c-4.565 0-8.258-3.694-8.258-8.258s3.694-8.258 8.258-8.258h16.516c4.565 0 8.258 3.694 8.258 8.258s-3.694 8.258-8.258 8.258z" fill="#b8ddff"></path><path d="m332.515 352.565-14.579 10.789c10.03 0 17.973 8.941 16.29 19.289-1.32 8.121-8.946 13.743-17.173 13.743h-40.407c-4.565 0-8.258 3.694-8.258 8.258s3.694 8.258 8.258 8.258h69.228c8.875 0 16.163-7.013 16.504-15.881l1.295-33.667z" fill="#d5eaff"></path><path d="M359.226 256H301.42v8.258c9.121 0 16.516 7.394 16.516 16.516s-7.395 16.516-16.516 16.516h-90.839c-4.565 0-8.258 3.694-8.258 8.258s3.694 8.258 8.258 8.258h99.097c9.121 0 34.496 4.414 34.496 13.536l21.405-13.536 1.906-49.548z" fill="#91ccff"></path><path d="m363.672 363.355 1.906-49.548h-55.901c9.121 0 16.516 7.394 16.516 16.516 0 9.121-7.395 16.516-16.516 16.516a8.258 8.258 0 0 0 0 16.516h8.258z" fill="#b8ddff"></path><path d="m376.558 92.252-24.505-7.002a16.516 16.516 0 0 0-16.216 4.202l-.385.385c-9.675 9.675-25.361 9.675-35.036 0l-.385-.385a16.516 16.516 0 0 0-16.216-4.202l-24.504 7.002c-7.121 2.034-13.092 6.33-17.282 11.966l9.84 11.395c9.121 0 16.516 7.394 16.516 16.516 0 9.121-7.395 16.516-16.516 16.516l33.032 16.516c9.121 0 16.516 7.394 16.516 16.516 0 9.121-7.395 16.516-16.516 16.516l16.516 16.516c9.121 0 16.516 7.394 16.516 16.516 0 9.121-7.395 16.516-16.516 16.516h-16.516c-4.565 0-8.258 3.694-8.258 8.258s3.694 8.258 8.258 8.258h82.581l33.032-99.097v-41.149c.002-14.747-9.775-27.708-23.956-31.759z" fill="#dbd8db"></path><circle cx="317.935" cy="33.032" fill="#ffd18d" r="33.032"></circle><path d="M400.516 165.161v66.065c0 18.243-14.789 33.032-33.032 33.032v-99.097z" fill="#ffd18d"></path><path d="M367.484 512h-8.258c-4.565 0-8.258-3.694-8.258-8.258s3.694-8.258 8.258-8.258h8.258c4.565 0 8.258 3.694 8.258 8.258S372.048 512 367.484 512z" fill="#eaf3ff"></path><path d="M359.226 462.452h-41.29c-4.565 0-8.258-3.694-8.258-8.258s3.694-8.258 8.258-8.258h41.29c4.565 0 8.258 3.694 8.258 8.258s-3.694 8.258-8.258 8.258z" fill="#d5eaff"></path><g fill="#eceaec"><path d="M334.452 214.71H227.097c-4.565 0-8.258-3.694-8.258-8.258s3.694-8.258 8.258-8.258h107.355c4.565 0 8.258 3.694 8.258 8.258s-3.694 8.258-8.258 8.258zM301.419 165.161H119.742c-4.565 0-8.258-3.694-8.258-8.258s3.694-8.258 8.258-8.258h181.677c4.565 0 8.258 3.694 8.258 8.258s-3.693 8.258-8.258 8.258zM268.387 115.613h-57.806a8.253 8.253 0 0 1-8.258-8.258 8.253 8.253 0 0 1 8.258-8.258h57.806c4.565 0 8.258 3.694 8.258 8.258s-3.693 8.258-8.258 8.258z" fill="#eceaec"></path></g></g></svg>