<svg height="512" viewBox="0 0 512 512" width="512" xmlns="http://www.w3.org/2000/svg"><g id="flat"><path d="m126.491 181.9-6.491-77.9h-48l-6.491 77.9a82.016 82.016 0 0 1 -10.521 33.874l-7.968 13.941a114 114 0 0 0 -15.02 56.559v181.726a20 20 0 0 0 20 20h88a20 20 0 0 0 20-20v-181.726a114 114 0 0 0 -15.02-56.559l-7.968-13.943a82.016 82.016 0 0 1 -10.521-33.872z" fill="#7a4922"/><path d="m122.82 137.8-55.48 22.14 4.66-55.94h48z" fill="#7a4922"/><path d="m400 240v48h32a8 8 0 0 1 8 8v96a8 8 0 0 1 -8 8h-32v48h30a50 50 0 0 0 50-50v-108a50 50 0 0 0 -50-50z" fill="#dcdbd6"/><path d="m120 104h-48l-4.66 55.94 55.48-22.14z" fill="#f7a014"/><rect fill="#a3612d" height="32" rx="16" width="80" x="56" y="72"/><rect fill="#f7a014" height="128" rx="48" width="96" x="32" y="296"/><path d="m400 456h-176l-2.536-35.506a1033.8 1033.8 0 0 1 .418-152.957l2.118-27.537h176l2.118 27.537a1033.8 1033.8 0 0 1 .418 152.957z" fill="#f7a014"/><path d="m312 432a24.027 24.027 0 0 1 -24-24v-120a24 24 0 0 1 48 0v120a24.027 24.027 0 0 1 -24 24zm0-152a8.009 8.009 0 0 0 -8 8v120a8 8 0 0 0 16 0v-120a8.009 8.009 0 0 0 -8-8z" fill="#d78e0c"/><path d="m248 432a8 8 0 0 1 0-16 8.009 8.009 0 0 0 8-8v-120a8.009 8.009 0 0 0 -8-8 8 8 0 0 1 0-16 24.027 24.027 0 0 1 24 24v120a24.027 24.027 0 0 1 -24 24z" fill="#d78e0c"/><path d="m376 432a24.027 24.027 0 0 1 -24-24v-120a24.027 24.027 0 0 1 24-24 8 8 0 0 1 0 16 8.009 8.009 0 0 0 -8 8v120a8.009 8.009 0 0 0 8 8 8 8 0 0 1 0 16z" fill="#d78e0c"/><path d="m400 488h-176a35.778 35.778 0 0 1 0-32h176a35.778 35.778 0 0 1 0 32z" fill="#dcdbd6"/><path d="m164.18 79.17a32 32 0 0 0 -49.335-39.17h-13.022a29.823 29.823 0 0 0 -29.823 29.823v2.177a32 32 0 0 1 25.6 12.8l3.58 4.774a54.093 54.093 0 0 1 10.82 32.459v17.488c0 10.844 8.433 20.081 19.271 20.466a20 20 0 0 0 20.729-19.987v-12a24 24 0 0 0 24-24 31.931 31.931 0 0 0 -11.82-24.83z" fill="#ffc864"/><circle cx="224" cy="119.063" fill="#ffc864" r="16"/><circle cx="260" cy="60" fill="#ffc864" r="20"/><g fill="#a3612d"><path d="m127.084 273.759a8 8 0 0 1 -7.477-5.151c-.652-1.71-1.378-3.415-2.159-5.066a8 8 0 0 1 14.467-6.835c.955 2.022 1.844 4.107 2.642 6.2a8.006 8.006 0 0 1 -7.473 10.853z"/><path d="m116.277 248a8 8 0 0 1 -7.623-5.581 71.223 71.223 0 0 0 -8.623-17.953l-2.687-4.03a8 8 0 0 1 13.312-8.876l2.688 4.031a87.206 87.206 0 0 1 10.56 21.986 8 8 0 0 1 -7.627 10.423z"/><path d="m82 464h-14.6a8 8 0 1 1 0-16h14.6a8 8 0 0 1 0 16z"/><path d="m160 464h-43.721a8 8 0 0 1 0-16h43.721z"/></g><path d="m372 200h-12a28 28 0 0 0 -35.291-27.035 36 36 0 0 0 -65.272-.323 27.991 27.991 0 0 0 -43.415 22.469 39.4 39.4 0 0 0 -24.022 36.278v8.611a24.006 24.006 0 0 0 16 22.629v16.919c0 8.615 6.621 16.028 15.226 16.434a16 16 0 0 0 16.774-15.982v-10.97a29.03 29.03 0 0 1 29.03-29.03h130.97v-12a28 28 0 0 0 -28-28z" fill="#ffc864"/></g></svg>