<svg viewBox="0 0 64 64" xmlns="http://www.w3.org/2000/svg"><g><path d="m22 31-9 18-6-11.002V62h23V43.213z" fill="#00b38d"></path><path d="M30 43.213V62h-8V31zM13 49v13H7V38z" fill="#d96d72"></path><circle cx="52" cy="12" fill="#008c6f" r="9"></circle><circle cx="52" cy="49" fill="#d9575d" r="9"></circle><path d="M50 11v6h4v-6h2l-4-5-4 5zM54 50v-6h-4v6h-2l4 5 4-5z" fill="#f2f2f2"></path><path d="M2 63h61v-2H3V1H1v61a1 1 0 0 0 1 1z" fill="#475666"></path><g fill="#7a8899"><path d="m41.16 40.103 1.375-1.452 1.452 1.377-1.375 1.451zM38.255 37.35l1.375-1.451 1.453 1.376-1.375 1.452zM35.352 34.598l1.375-1.451 1.453 1.376-1.376 1.451zM35.114 27.467l1.414-1.414 1.414 1.414-1.414 1.414zM37.943 24.637l1.414-1.414 1.414 1.414-1.414 1.414zM40.772 21.81l1.414-1.413L43.6 21.81l-1.414 1.414z" fill="#7a8899"></path></g><path d="M30 27.5a3.548 3.548 0 0 0-.7.07l-6.418-12.041a.985.985 0 0 0-.933-.529 1 1 0 0 0-.875.62l-8.033 19.64-5.1-13.612-1.874.7 6 16a1 1 0 0 0 .922.648H13a1 1 0 0 0 .926-.621l8.194-20.03 5.42 10.164A3.5 3.5 0 1 0 30 27.5z" fill="#475666"></path></g></svg>