<svg viewBox="0 0 512 512" xmlns="http://www.w3.org/2000/svg"><g><path d="M112 216a403.4 403.4 0 0 1-40.542-23.062c-13.989-6.823-19.312-27.116-12.49-41.1a28.172 28.172 0 0 1 37.687-12.975l6.254 3.46 18.727-2.759 1.342 10.222 11 8.446a8 8 0 0 1 1.473 11.218l-8.447 11 46.255 35.517-22.2 28.909z" fill="#feb784"></path><path d="M488 488h-48v-16l8-8-49.96-29.39L312 384l-40-24H112l-3.06 49.02L104 488H57.3a9.3 9.3 0 0 1-2.94-18.12l11.28-3.76A9.3 9.3 0 0 0 72 457.3V336a24 24 0 0 1 24-24h104v-40h-48l-32-40 5.29-6.17 23.67-28.53L160 184l-8-16-88-88-40-24V40l24-16 80 72 23.613 20.661A272.917 272.917 0 0 1 216 200l16 24 48 48 24 32 80 64 37.82 34.91 48.545 44.811A54.819 54.819 0 0 1 488 488z" fill="#feb784"></path><path d="M421.82 402.91 400 432l-1.96 2.61L312 384l-40-24H112l-3.06 49.02L104 408H72v-72a24.006 24.006 0 0 1 24-24h104v-16l80-24 24 32 80 64z" fill="#b53f92"></path><path d="m120 232-20.576 27.435a16 16 0 0 0-3.186 10.265L104 456l-24 32h24l16-8 6.343 6.343a5.657 5.657 0 0 0 4 1.657 5.657 5.657 0 0 0 5.657-5.657V280l16-8z" fill="#fec093"></path><path d="M30.667 217.333v53.334L24 284l17.208-5.736A33.333 33.333 0 0 0 64 246.641V184a33.333 33.333 0 0 0-33.333 33.333z" fill="#6e3c26"></path><path d="m97.156 191.049-8.163 2.812a9.891 9.891 0 0 1-9.151-17.269l1.933-1.448-16.346-31.9c-10.621 8.315-23.457 25.863-14.3 47.32C64.01 220.772 112 216 112 216z" fill="#6e3c26"></path><path d="m192 272 40-48-16-24s-32 8-56-16c0 0 16 32 0 48s-40 0-40 0l17.154 28.589a35.968 35.968 0 0 0 19.47 15.619 35.974 35.974 0 0 0 22.75 0z" fill="#c378cb"></path></g></svg>