<svg viewBox="0 0 64 64" xmlns="http://www.w3.org/2000/svg"><g><path d="M46 13v6.5c0-.83-.67-1.5-1.5-1.5s-1.5.67-1.5 1.5v-5.59C34 13.82 28 8 28 8c-2 4-7 5.91-7 5.91v5.59c0-.83-.67-1.5-1.5-1.5s-1.5.67-1.5 1.5V13c0-6.6 5.4-12 12-12h4c6.6 0 12 5.4 12 12z" fill="#9e7059"></path><path d="M46 19.5V13c0-6.6-5.4-12-12-12h-2.936c7.625 2.994 11.881 9.263 13.814 17.054A1.493 1.493 0 0 1 46 19.5z" fill="#995b3f"></path><g fill="#ffdcd2"><path d="M39.83 42.15 32 49l-7.83-6.85c.23-.24.42-.53.56-.86l1.24-7.09C27.7 35.34 29.77 36 32 36s4.3-.66 6.03-1.8l1.24 7.09c.14.33.33.62.56.86zM46 19.5v4c0 .83-.67 1.5-1.5 1.5s-1.5-.67-1.5-1.5v-4c0-.83.67-1.5 1.5-1.5s1.5.67 1.5 1.5zM21 19.5v4c0 .83-.67 1.5-1.5 1.5s-1.5-.67-1.5-1.5v-4c0-.83.67-1.5 1.5-1.5s1.5.67 1.5 1.5z" fill="#ffdcd2"></path><path d="M43 13.91V25c0 3.85-1.97 7.24-4.97 9.2C36.3 35.34 34.23 36 32 36s-4.3-.66-6.03-1.8A10.965 10.965 0 0 1 21 25V13.91S26 12 28 8c0 0 6 5.82 15 5.91z" fill="#ffdcd2"></path></g><path d="M14 14v19c0 .35-.04.68-.13 1H1.13c-.09-.32-.13-.65-.13-1V14c0-2.21 1.79-4 4-4h5c2.21 0 4 1.79 4 4z" fill="#a29292"></path><path d="M3 34V14c0-1.103.897-2 2-2h5c1.103 0 2 .897 2 2v20z" fill="#dad4d4"></path><path d="M4 34V14.05c0-.58.627-1.05 1.4-1.05h4.2c.773 0 1.4.47 1.4 1.05V34z" fill="#eaeaea"></path><path d="M26.1 8.38c-.37.01-.75.02-1.14.02-2.08 0-4.04-.23-5.75-.63.09-.19.19-.38.29-.57 1.93.7 4.19 1.12 6.6 1.18zM38.763 5.993c-2.035.795-4.447 1.289-7.055 1.354.38.01.76.02 1.15.02 2.183 0 4.224-.252 5.989-.687a6.853 6.853 0 0 0-.084-.687zM42.95 5.02c-.81.53-1.84 1-3.04 1.37-.05-.28-.11-.56-.13-.83.87-.41 1.65-.88 2.32-1.4.29.28.58.56.85.86z" fill="#bfa599"></path><path d="M30 4.04V9.6C28.71 8.69 28 8 28 8V4.04c0-.55.45-1 1-1s1 .45 1 1z" fill="#995b3f"></path><path d="M5 37c-1.86 0-3.43-1.27-3.87-3h12.74c-.44 1.73-2.01 3-3.87 3z" fill="#ee2d02"></path><path d="M6.25 7h2.5C9.44 7 10 7.45 10 8v2H5V8c0-.55.56-1 1.25-1z" fill="#dfdad4"></path><path d="m6 14 5 7-3 4 1 6-5-6 3-4z" fill="#ee2d02"></path><path d="M41.077 13.795C33.159 12.99 28 8 28 8c-2 4-7 5.91-7 5.91v3s3.02-1.16 5.31-3.55c1.09-1.15 2.87-1.3 4.19-.43 2.064 1.373 5.309 3.069 9.372 3.714.643.102 1.128.636 1.128 1.287v6.289c0 3.85-1.97 7.24-4.97 9.2-1.73 1.14-3.8 1.8-6.03 1.8-1.02 0-2.02-.14-2.95-.41C28.53 35.58 30.22 36 32 36c2.23 0 4.3-.66 6.03-1.8 3-1.96 4.97-5.35 4.97-9.2V13.91c-.664-.01-1.297-.05-1.923-.115z" fill="#ffa180"></path><path d="M58 53.73V63H6v-9.27c0-8.6 7.87-9.74 16.24-10.64.75-.08 1.44-.41 1.93-.95L32 49l7.83-6.86c.49.54 1.18.87 1.93.95 8.37.9 16.24 2.04 16.24 10.64z" fill="#0dcebb"></path><path d="m39.27 41.29-1.24-7.09C36.3 35.34 34.23 36 32 36s-4.3-.66-6.03-1.8l-.376 2.152C28.586 38.535 32.643 39.679 36 38c.67 2.009 1.285 3.967 1.822 5.899l2.008-1.759c-.24-.24-.42-.53-.56-.85z" fill="#ffa180"></path><path d="M41.76 43.09c-.75-.08-1.44-.41-1.93-.95l-2.008 1.759C39.6 50.298 40.458 56.398 39.196 63H58v-9.27c0-8.6-7.87-9.74-16.24-10.64z" fill="#02998e"></path><path d="M18 56v7h-2v-7c0-.55.45-1 1-1s1 .45 1 1zM48 56v7h-2v-7c0-.55.45-1 1-1s1 .45 1 1z" fill="#047c70"></path><path d="M27.081 22.443c-1.406 0-2.462-.516-2.528-.549a1 1 0 0 1 .89-1.792c.045.021 1.613.752 3.11.002a1 1 0 0 1 .895 1.789 5.236 5.236 0 0 1-2.367.55zM37.081 22.443c-1.406 0-2.462-.516-2.528-.549a1 1 0 0 1 .89-1.792c.045.021 1.613.752 3.11.002a1 1 0 0 1 .895 1.789 5.236 5.236 0 0 1-2.367.55z" fill="#7c4d4d"></path><path d="M23.999 19a1 1 0 0 1-.163-1.986l6-1a1 1 0 0 1 .328 1.973l-6 1c-.056.009-.11.013-.165.013zM40.001 19a.927.927 0 0 1-.165-.014l-6-1a1 1 0 0 1 .328-1.973l6 1A1 1 0 0 1 40.001 19z" fill="#995b3f"></path><path d="M3.625 12.375c-1.287 0-1.289 2 0 2 1.287 0 1.289-2 0-2zM4.75 11.438c-.643 0-.645 1 0 1 .643 0 .645-1 0-1z" fill="#ffffff"></path><path d="M50 35h-3a1.001 1.001 0 0 1-.8-1.6L48 31h-1a1 1 0 1 1 0-2h3a1.001 1.001 0 0 1 .8 1.6L49 33h1a1 1 0 1 1 0 2zM55 27h-5a1 1 0 0 1-.707-1.707L52.586 22H50a1 1 0 1 1 0-2h5a1 1 0 0 1 .707 1.707L52.414 25H55a1 1 0 1 1 0 2zM61 18h-7a1 1 0 0 1-.651-1.759L58.297 12H54a1 1 0 1 1 0-2h7c.419 0 .793.261.937.653a.997.997 0 0 1-.287 1.106L56.703 16H61a1 1 0 1 1 0 2z" fill="#c25b3c"></path></g></svg>