<svg viewBox="0 0 512 512" xmlns="http://www.w3.org/2000/svg"><g><path d="M234.738 100.043h42.34v52.776h-42.34z" fill="#ae6c6c"></path><path d="M329.308 151.457v32.482h-65.675l-7.726-2.06-7.726 2.06h-63.613v-30.421c0-10.601 7.829-19.563 18.337-20.985l1.123-2.492 30.71-4.153 13.446 10.804.87 3.789 6.762 2.343 6.549-2.126 1.272-4.104 13.442-10.707 33.893 4.584c10.507 1.423 18.336 10.386 18.336 20.986z" fill="#6a7682"></path><path d="M204.028 130.041v53.898h-21.521v-32.482c0-10.601 7.829-19.563 18.337-20.985z" fill="#5d6875"></path><path d="M296.046 48.348v24.481a28.232 28.232 0 0 1-9.754 21.345l-10.982 9.507c-11.138 9.642-27.666 9.642-38.804 0l-10.982-9.507a28.232 28.232 0 0 1-9.754-21.345V48.348c26.799-33.462 53.558-33.565 80.276 0z" fill="#b98080"></path><path d="M263.634 136.592v47.347h-15.453v-47.244l4.047 3.25a5.749 5.749 0 0 0 7.183.013z" fill="#f2fbff"></path><path d="m300.345 30.001-4.298 18.558a30.998 30.998 0 0 0-17.038-5.068c-5.858.278-12.567 1.85-18.372 6.017-2.806 2.014-6.636 1.999-9.472.028-4.154-2.887-9.693-5.227-15.562-5.871 0 0-2.248-2.289-3.186-2.301-6.282 0-10.503 1.258-15.401 4.476l-2.504-17.146c-.974-4.21-.607-7.729 2.124-11.077 3.866-4.738 7.43-8.904 18.36-12.67 1.445-.498 5.425-3.119 5.425-3.119C244.989.686 250.162 0 256 0c23.248 0 35.868 10.883 41.657 18.046 2.702 3.344 3.658 7.767 2.688 11.955z" fill="#6a7682"></path><path d="m232.079 24.374 3.523 19.295a27.915 27.915 0 0 0-2.792-.175 30.946 30.946 0 0 0-17.039 5.079l-4.296-18.523c-.968-4.213 0-8.664 2.73-12.012 4.378-5.357 12.609-12.805 26.218-16.205a54.267 54.267 0 0 0-5.615 7.283c-2.729 4.256-3.697 9.911-2.729 15.258z" fill="#5d6875"></path><path d="M370.136 194.27a7.725 7.725 0 0 1-7.726-7.726V138.05c0-.713-.3-1.4-.821-1.886l-24.443-22.737a7.727 7.727 0 1 1 10.526-11.314l24.443 22.737a18.089 18.089 0 0 1 5.749 13.2v48.494a7.729 7.729 0 0 1-7.728 7.726zM141.864 194.27a7.725 7.725 0 0 1-7.726-7.726V138.05c0-4.99 2.096-9.801 5.748-13.2l24.443-22.737a7.727 7.727 0 0 1 10.526 11.314l-24.443 22.737a2.587 2.587 0 0 0-.821 1.886v48.494a7.726 7.726 0 0 1-7.727 7.726zM428.16 193.891a7.725 7.725 0 0 1-7.726-7.726v-62.903l1.371-10.024c0-4.267 2.087-8.004 6.355-8.004s6.582 3.334 6.582 7.601l1.144 4.715v68.616a7.726 7.726 0 0 1-7.726 7.725zM83.84 193.891a7.725 7.725 0 0 1-7.726-7.726V117.55l1.959-4.622c0-4.267 1.5-7.694 5.767-7.694s6.187 3.264 6.187 7.531l1.539 10.498v62.903a7.724 7.724 0 0 1-7.726 7.725z" fill="#6a7682"></path><path d="M2.551 123.202c8.987 5.446 17.112 5.567 25.951 3.989.829-.148 2.506.518 2.506.518 15.034-3.472 30.068-11.758 45.102-10.16 0 0 8.244.19 13.396 3.652V68.967a3.128 3.128 0 0 0-1.521-2.668c-4.298-2.605-6.834-4.766-10.878-5.615-.322-.067-.997-1.184-.997-1.184-15.002-1.59-30.033 6.639-45.01 10.137 0 0-1.283 1.325-1.962 1.476-8.091 1.801-15.441 1.687-23.668-2.31-2.052-.997-4.44.491-4.44 2.772v48.959c0 1.095.585 2.101 1.521 2.668z" fill="#c1e9af"></path><path d="M91.562 66.91v56.351c-5.151-3.461-10.301-5.176-15.452-5.712V59.5c4.646.484 9.292 1.919 13.938 4.742a3.107 3.107 0 0 1 1.514 2.668z" fill="#ade194"></path><path d="M510.479 124.232c-24.863 15.067-49.726-9.326-74.59-6.684 0 0-7.214-2.9-12.366.561l-1.03-49.143c0-1.094.585-2.101 1.521-2.668 3.858-2.338 7.764-5.128 11.141-6.296.689-.238 0 0 0 0 23.89-2.539 48.514 19.377 72.405 7.77 2.052-.997 4.44.491 4.44 2.772v51.019a3.127 3.127 0 0 1-1.521 2.669z" fill="#c1e9af"></path><path d="m435.155 60.004.735 57.545c-5.151.536-10.301 2.251-15.452 5.712V66.91c0-1.102.577-2.102 1.514-2.668 4.646-2.823 8.557-3.754 13.203-4.238z" fill="#ade194"></path><path d="m436.406 510.97-.52-301.933-363.691-2.208 2.398 304.141h35.254l2.734 1.03h78.085l3.136-1.03 94.589-.042 3.957 1.072h78.085l2.337-1.03z" fill="#7e8b96"></path><path d="M66.447 193.662v316.045h34.892l-.424-238.134c0-8.773 7.112-15.884 15.884-15.884h107.067l7.062 20.604 42.451 3.173 7.726-23.776H402.14l16.505 20.368 26.778-20.927v-61.468H66.447z" fill="#6a7682"></path><path d="M466.672 177.152H91.562l-5.676 1.16-39.528-.129a5.15 5.15 0 0 0-5.151 5.151v25.809a5.15 5.15 0 0 0 5.151 5.151l37.482-.176 7.722 1.206h375.11a5.15 5.15 0 0 0 5.151-5.151v-27.869a5.151 5.151 0 0 0-5.151-5.152z" fill="#909ba6"></path><path d="M142.595 343.915c-9.135 0-15.89 4.748-19.394 13.184l-2.041 5.444c-3.108 7.484-6.052 23.134-6.052 23.134V270.289c0-7.786-6.091-14.15-13.768-14.585 0 0-.451 1.139-.733 1.139-7.76 0-13.7 5.666-14.182 13.224-.019.301-.534.221-.534.221v-18.862c0-7.754-6.055-14.093-13.695-14.547 0 0-.847.651-1.142.651-8.049 0-13.3 6.116-13.3 14.165l-.076 16.825-.934.116c0-7.762-6.064-14.107-13.712-14.558l-.871 1.005c-8.054 0-13.553 5.499-13.553 13.553v21.937l-1.03.137c0-7.051-5.293-12.866-12.123-13.689l-1.72.597c-7.615 0-12.455 5.445-12.455 13.06l.794 104.679c0 10.907 3.549 19.637 8.976 29.212 6.819 12.031 7.825 25.829 7.825 37.007v3.091h86.018l1.182-3.091v-1.272a36.33 36.33 0 0 1 18.606-31.714 36.332 36.332 0 0 0 18.606-31.714v-13.07c0-4.805.953-9.563 2.805-13.998l5.624-13.471c2.406-5.763-1.218-12.063-7.054-13.172-.003.002-1.435.75-2.067.75z" fill="#ffdfd4"></path><path d="M21.696 419.521c6.317 10.929 10.408 26.1 10.302 39.722v2.335l-2.894 2.855-10.466-.115-1.227-2.745c0-5.594-.587-11.188-2.019-16.895-1.442-5.707-3.729-11.517-7.139-17.534C2.823 417.563 0 406.849 0 395.94V290.707c0-3.801 1.545-7.253 4.038-9.746s5.934-4.038 9.746-4.038c.567 0 1.123.031 1.669.103V395.94c0 8.221 2.163 16.38 6.243 23.581z" fill="#feccbc"></path><path d="M106.073 498.586H19.861l3.206-32.766 8.93-4.243h74.076z" fill="#f2fbff"></path><path d="M17.407 461.577h14.591v37.009H17.407z" fill="#dfeef4"></path><path d="M7.808 504.789v-5.613a5.15 5.15 0 0 1 5.151-5.151l16.109-.713 2.93-1.347h80.584a5.15 5.15 0 0 1 5.151 5.151v9.734a5.15 5.15 0 0 1-5.151 5.151H31.997l-2.516-1.302-16.522-.758a5.153 5.153 0 0 1-5.151-5.152z" fill="#ade194"></path><path d="M31.997 491.963V512H10.899a5.153 5.153 0 0 1-5.151-5.151v-9.735a5.153 5.153 0 0 1 5.151-5.151z" fill="#97da7b"></path><g fill="#feccbc"><path d="M43.031 254.084v68.641c0 6.83-5.532 12.362-12.362 12.362a3.087 3.087 0 0 1-3.091-3.091V268.64c0-4.028 1.638-7.675 4.275-10.312s6.284-4.275 10.302-4.275c.299 0 .587.01.876.031zM72.195 236.88v85.845c0 6.83-5.532 12.362-12.362 12.362a3.087 3.087 0 0 1-3.091-3.091v-80.57c0-4.018 1.628-7.665 4.265-10.302s6.284-4.275 10.312-4.275c.299 0 .588.01.876.031zM101.339 255.712v67.013c0 6.83-5.532 12.362-12.362 12.362-1.7 0-3.091-1.38-3.091-3.091v-61.708c0-4.028 1.638-7.685 4.275-10.333a14.613 14.613 0 0 1 10.333-4.275c.289.001.567.011.845.032z" fill="#feccbc"></path></g><path d="m144.658 343.174-2.761 6.016-7.809 18.801a45.939 45.939 0 0 0-3.523 17.688v8.963c0 7.216-4.955 13.283-11.646 14.98-1.933.49-3.807-1.012-3.807-3.007v-20.936a61.475 61.475 0 0 1 4.708-23.612l2.132-5.141a22.604 22.604 0 0 1 20.871-13.928 9.82 9.82 0 0 1 1.835.176z" fill="#feccbc"></path><path d="M322.362 343.915c-9.135 0-15.89 4.748-19.394 13.184l-2.041 5.444c-3.108 7.484-6.052 23.134-6.052 23.134V270.289c0-7.786-6.092-14.15-13.77-14.585 0 0-.574.704-.856.704-7.799 0-13.399 6.052-13.816 13.747-.014.266-.777.134-.777.134v-18.862c0-7.754-6.055-14.093-13.695-14.547 0 0-.847.651-1.142.651-8.049 0-13.3 6.116-13.3 14.165l-.076 16.825-.934.116c0-7.762-6.064-14.107-13.712-14.558l-.871 1.005c-8.054 0-13.553 5.499-13.553 13.553v21.937l-1.03.137c0-7.051-5.293-12.866-12.123-13.689l-1.72.597c-7.615 0-12.455 5.445-12.455 13.06l.794 104.679c0 10.907 3.549 19.637 8.976 29.212 6.819 12.031 7.825 25.829 7.825 37.007v3.091h86.018l1.182-3.091v-1.272a36.331 36.331 0 0 1 18.605-31.714 36.332 36.332 0 0 0 18.606-31.714v-13.07c0-4.805.953-9.563 2.805-13.998l5.624-13.471c2.406-5.763-1.218-12.063-7.054-13.172 0 .001-1.433.749-2.064.749z" fill="#c59191"></path><path d="M201.462 419.521c6.317 10.929 10.408 26.1 10.302 39.722v2.335l-1.878 3.044-11.691-.259-1.018-2.79c0-5.594-.587-11.188-2.019-16.895-1.442-5.707-3.729-11.517-7.139-17.534-5.429-9.581-8.252-20.295-8.252-31.204V290.707c0-3.801 1.545-7.253 4.038-9.746s5.934-4.038 9.746-4.038c.567 0 1.123.031 1.669.103V395.94c-.001 8.221 2.163 16.38 6.242 23.581z" fill="#b98080"></path><path d="M285.839 498.586h-86.212l3.207-32.766 8.93-4.243h74.075z" fill="#f2fbff"></path><path d="M197.173 461.577h14.591v37.009h-14.591z" fill="#dfeef4"></path><path d="M187.574 504.789v-5.613a5.15 5.15 0 0 1 5.151-5.151l16.109-.713 2.93-1.347h80.584a5.15 5.15 0 0 1 5.151 5.151v9.734a5.15 5.15 0 0 1-5.151 5.151h-80.584l-2.516-1.302-16.522-.758a5.154 5.154 0 0 1-5.152-5.152z" fill="#94d8e6"></path><path d="M211.764 491.963V512h-21.098a5.153 5.153 0 0 1-5.151-5.151v-9.735a5.153 5.153 0 0 1 5.151-5.151z" fill="#75c5d8"></path><g fill="#b98080"><path d="M222.797 254.084v68.641c0 6.83-5.532 12.362-12.362 12.362a3.087 3.087 0 0 1-3.091-3.091V268.64c0-4.028 1.638-7.675 4.275-10.312s6.284-4.275 10.302-4.275c.299 0 .588.01.876.031zM251.962 236.88v85.845c0 6.83-5.532 12.362-12.362 12.362a3.087 3.087 0 0 1-3.091-3.091v-80.57c0-4.018 1.628-7.665 4.265-10.302s6.284-4.275 10.312-4.275c.299 0 .587.01.876.031zM281.105 255.712v67.013c0 6.83-5.532 12.362-12.362 12.362-1.7 0-3.091-1.38-3.091-3.091v-61.708c0-4.028 1.638-7.685 4.275-10.333a14.613 14.613 0 0 1 10.333-4.275c.289.001.567.011.845.032z" fill="#b98080"></path></g><path d="m324.425 343.174-2.761 6.016-7.809 18.801a45.939 45.939 0 0 0-3.523 17.688v8.963c0 7.216-4.955 13.283-11.646 14.98-1.933.49-3.807-1.012-3.807-3.007v-20.936a61.475 61.475 0 0 1 4.708-23.612l2.132-5.141a22.604 22.604 0 0 1 20.871-13.928 9.836 9.836 0 0 1 1.835.176z" fill="#b98080"></path><path d="M502.128 343.915c-9.135 0-15.89 4.748-19.394 13.184l-2.041 5.444c-3.108 7.484-6.052 23.134-6.052 23.134V270.289c0-7.786-6.091-14.15-13.768-14.585 0 0-.635 1.057-.917 1.057-7.51 0-12.367 5.842-13.188 13.132l-1.344.397v-18.862c0-7.754-6.055-14.093-13.695-14.547 0 0-.847.651-1.142.651-8.049 0-13.3 6.116-13.3 14.165l-.076 16.825-.934.116c0-7.762-6.064-14.107-13.712-14.558l-.871 1.005c-8.054 0-13.553 5.499-13.553 13.553v21.937l-1.03.137c0-7.051-5.293-12.866-12.123-13.689l-1.72.597c-7.615 0-12.455 5.445-12.455 13.06l.794 104.679c0 10.907 3.549 19.637 8.976 29.212 6.819 12.031 7.825 25.829 7.825 37.007v3.091h86.018l1.182-3.091v-1.272a36.331 36.331 0 0 1 18.605-31.714 36.332 36.332 0 0 0 18.606-31.714v-13.07c0-4.805.953-9.563 2.805-13.998l5.624-13.471c2.406-5.763-1.218-12.063-7.054-13.172-.002 0-1.434.748-2.066.748z" fill="#ffdfd4"></path><path d="M381.229 419.521c6.317 10.929 10.408 26.1 10.302 39.722v2.335l-1.861 3.086-9.438-.284-3.289-2.806c0-5.594-.587-11.188-2.019-16.895-1.442-5.707-3.729-11.517-7.139-17.534-5.429-9.581-8.252-20.295-8.252-31.204V290.707c0-3.801 1.545-7.253 4.038-9.746s5.934-4.038 9.746-4.038c.567 0 1.123.031 1.669.103V395.94c0 8.221 2.163 16.38 6.243 23.581z" fill="#feccbc"></path><path d="M465.606 498.586h-86.212l3.207-32.766 8.93-4.243h74.075z" fill="#f2fbff"></path><path d="M376.94 461.577h14.591v37.009H376.94z" fill="#dfeef4"></path><path d="M367.341 504.789v-5.613a5.15 5.15 0 0 1 5.151-5.151l16.109-.713 2.93-1.347h80.584a5.15 5.15 0 0 1 5.151 5.151v9.734a5.15 5.15 0 0 1-5.151 5.151h-80.584l-2.516-1.302-16.522-.758a5.153 5.153 0 0 1-5.152-5.152z" fill="#ffd15b"></path><path d="M391.531 491.963V512h-21.098a5.153 5.153 0 0 1-5.151-5.151v-9.735a5.153 5.153 0 0 1 5.151-5.151z" fill="#ffc344"></path><g fill="#feccbc"><path d="M402.564 254.084v68.641c0 6.83-5.532 12.362-12.362 12.362a3.087 3.087 0 0 1-3.091-3.091V268.64c0-4.028 1.638-7.675 4.275-10.312s6.284-4.275 10.302-4.275c.299 0 .587.01.876.031zM431.728 236.88v85.845c0 6.83-5.532 12.362-12.362 12.362a3.087 3.087 0 0 1-3.091-3.091v-80.57c0-4.018 1.628-7.665 4.265-10.302s6.284-4.275 10.312-4.275c.299 0 .588.01.876.031zM460.872 255.712v67.013c0 6.83-5.532 12.362-12.362 12.362-1.7 0-3.091-1.38-3.091-3.091v-61.708c0-4.028 1.638-7.685 4.275-10.333a14.613 14.613 0 0 1 10.333-4.275c.289.001.567.011.845.032z" fill="#feccbc"></path></g><path d="m504.191 343.174-2.761 6.016-7.809 18.801a45.939 45.939 0 0 0-3.523 17.688v8.963c0 7.216-4.955 13.283-11.646 14.98-1.933.49-3.807-1.012-3.807-3.007v-20.936a61.475 61.475 0 0 1 4.708-23.612l2.132-5.141a22.604 22.604 0 0 1 20.871-13.928 9.82 9.82 0 0 1 1.835.176z" fill="#feccbc"></path><path d="M91.562 177.15v38.179H45.328a5.153 5.153 0 0 1-5.151-5.151v-27.877a5.153 5.153 0 0 1 5.151-5.151z" fill="#7e8b96"></path><path d="m31.1 69.637-.092 58.072c-9.828 2.266-19.655 2.474-29.483-3.48A3.115 3.115 0 0 1 0 121.561V70.547c0-2.287 2.39-3.77 4.44-2.771 8.86 4.306 17.801 3.901 26.66 1.861z" fill="#ade194"></path></g></svg>