<svg viewBox="0 0 64 64" xmlns="http://www.w3.org/2000/svg"><g><path d="M62 0H2C.897 0 0 .897 0 2v46c0 1.103.897 2 2 2h33.75a1 1 0 0 0 .932-1.362A10.026 10.026 0 0 1 36 45a1 1 0 0 0-1-1H9.899A5.013 5.013 0 0 0 6 40.101V9.899A5.013 5.013 0 0 0 9.899 6H54.1A5.015 5.015 0 0 0 58 9.899v30.2a5.069 5.069 0 0 0-2.067.945c-.33.253-.47.684-.351 1.082.277.926.418 1.893.418 2.874 0 1.245-.229 2.47-.683 3.639-.119.308-.079.654.107.927.187.271.496.434.826.434H62c1.103 0 2-.897 2-2V2c0-1.103-.897-2-2-2z" fill="#c8ad90"></path><path d="M44.293 55.401a.999.999 0 0 0-.725-.702 9.886 9.886 0 0 1-5.483-3.596 1.004 1.004 0 0 0-.728-.392 1.012 1.012 0 0 0-.774.291l-6.29 6.29A1 1 0 0 0 31 59h4v4a.999.999 0 0 0 1.707.707l7.33-7.33a.998.998 0 0 0 .256-.976zM61.707 57.293l-6.29-6.29a1.018 1.018 0 0 0-.774-.291c-.287.02-.553.162-.728.392a9.89 9.89 0 0 1-5.483 3.596.999.999 0 0 0-.469 1.678l7.33 7.33a1.004 1.004 0 0 0 1.09.216A.999.999 0 0 0 57 63v-4h4a.999.999 0 0 0 .707-1.707z" fill="#ffdba9"></path><path d="M36 59a.999.999 0 0 1-.707-1.707l1-1a.999.999 0 1 1 1.414 1.414l-1 1A.997.997 0 0 1 36 59zM56 59a.997.997 0 0 1-.707-.293l-1-1a.999.999 0 1 1 1.414-1.414l1 1A.999.999 0 0 1 56 59z" fill="#ffc473"></path><path d="M59 8c-1.654 0-3-1.346-3-3a1 1 0 0 0-1-1H9a1 1 0 0 0-1 1c0 1.654-1.346 3-3 3a1 1 0 0 0-1 1v32a1 1 0 0 0 1 1c1.654 0 3 1.346 3 3a1 1 0 0 0 1 1h26a1 1 0 0 0 1-1c0-5.514 4.486-10 10-10 4.454 0 8.305 2.864 9.582 7.127.095.314.337.562.649.664a.997.997 0 0 0 .916-.156A3.032 3.032 0 0 1 59 42a1 1 0 0 0 1-1V9a1 1 0 0 0-1-1z" fill="#f0e7dc"></path><path d="M50 19H14c-1.103 0-2 .897-2 2v4c0 1.103.897 2 2 2h36c1.103 0 2-.897 2-2v-4c0-1.103-.897-2-2-2z" fill="#ffb74f"></path><g fill="#57555c"><path d="M39 13H25a1 1 0 1 1 0-2h14a1 1 0 1 1 0 2zM43 17H21a1 1 0 1 1 0-2h22a1 1 0 1 1 0 2zM25 33H13a1 1 0 1 1 0-2h12a1 1 0 1 1 0 2z" fill="#57555c"></path><circle cx="29" cy="32" fill="#57555c" r="1"></circle><circle cx="25" cy="36" fill="#57555c" r="1"></circle><path d="M21 37h-8a1 1 0 1 1 0-2h8a1 1 0 1 1 0 2z" fill="#57555c"></path></g><circle cx="46" cy="45" fill="#ff7a53" r="12"></circle><circle cx="46" cy="45" fill="#ffb74f" r="8"></circle></g></svg>