<svg viewBox="0 0 497 497" xmlns="http://www.w3.org/2000/svg"><g><path d="m109.093 497 328.41-2.171L426.5 425.5z" fill="#cdcfd4"></path><path d="M454.099 447.33 109.093 497 42.901 49.67 387.907 0z" fill="#f2f2f2"></path><path d="m387.907 0-40.869 5.884 66.061 446.446-304.137 43.786.131.884 345.006-49.67z" fill="#e1e3e8"></path><path d="M407.469 132.205 387.907 0l-76.346 10.991 18.876 132.132z" fill="#a0edf7"></path><path d="m347.907 6 19.515 131.881 40.047-5.676L387.907 0l-76.346 10.991.034.237z" fill="#7ae1f0"></path><path d="M311.561 10.991 42.901 49.67l19.451 131.449 268.085-37.996z" fill="#fed33a"></path><g fill="#6362b5"><path d="M197.582 66.11c-3.753-6.984-14.496-5.413-16.279 2.231l-13.612 59.037c-2.201 9.547 12.431 12.849 14.616 3.371l2.232-9.679 23.999-3.37 4.699 8.649c4.48 8.246 17.865 1.463 13.181-7.16zm-9.434 39.307 4.087-17.727 8.658 15.937zM141.418 75.395c-2.96-8.429-15.748-7.205-16.998 1.642l-5.1 36.027-14.989-33.245c-3.733-8.222-16.309-5.657-16.784 3.284l-2.366 56.758c-.408 9.794 14.578 10.41 14.987.625l1.274-30.578 13.024 28.889c3.548 7.717 15.538 6.148 16.697-2.387l4.437-31.341 9.819 29.098c3.001 8.893 17.35 4.501 14.213-4.797zM291.262 78.42a7.498 7.498 0 0 0-5.566-1.444l-16.985 2.385c-9.294 1.303-7.632 16.222 2.086 14.854l8.62-1.21c-.871 7.503-4.886 14.511-14.319 15.835-5.594.781-11.147-.655-15.644-4.055-4.504-3.405-7.41-8.368-8.181-13.976-1.594-11.587 6.523-22.335 18.094-23.96 4.198-.59 8.414.078 12.194 1.932 8.426 4.136 15.416-9.147 6.604-13.467a35.867 35.867 0 0 0-20.885-3.318c-19.738 2.771-33.585 21.099-30.868 40.857 2.683 19.503 21.259 33.59 40.771 30.84 18.79-2.638 29.887-19.215 26.986-40.312a7.493 7.493 0 0 0-2.907-4.961zM371.212 100.83l-8.401-56.771c-1.373-9.287-16.274-7.511-14.839 2.195l8.401 56.771c1.43 9.658 16.273 7.498 14.839-2.195z" fill="#6362b5"></path></g><path d="M355.208 242.261c-8.78 0-10.121-13.709-.988-14.935l34.304-4.603c9.303-1.243 11.721 13.562 1.995 14.867a18042.255 18042.255 0 0 1-35.311 4.671zM351.227 215.358c-8.78 0-10.121-13.709-.988-14.935l34.304-4.603c9.302-1.243 11.721 13.562 1.995 14.867a17265.586 17265.586 0 0 1-35.311 4.671zM359.189 269.163c-8.78 0-10.121-13.709-.988-14.935l34.303-4.603c9.302-1.241 11.721 13.562 1.995 14.867-11.503 1.545-35.31 4.671-35.31 4.671zM266.022 198.281s46.557-16.587 59.466 44.831c5.657 26.914 2.174 51.726 23.502 71.719 14.123 13.238 25.677 28.558 7.753 54.669-4.24 6.176-11.116 17.435.85 25.64 20.727 14.214 20.991 47.79-12.131 59.305l-132.716 17.612c-20.621-2.781-31.398-14.419-34.169-27.272-1.662-7.712-.443-15.861 3.263-22.797 7.204-13.485-.851-20.112-6.713-24.745-10.23-8.085-14.965-15.829-16.388-23.358-2.025-10.71 2.653-20.983 7.749-31.176 7.761-15.526 8.411-22.476 3.874-29.118-5.527-8.093-14.939-58.591 17.434-93.675 20.884-22.634 54.599-30.722 78.226-21.635z" fill="#6362b5"></path><path d="M255.089 379.79c3.061 20.392-8.342 27.42-18.041 35.575-28.718 24.145-26.214 43.1-22.704 66.482l132.178-19.029c-3.51-23.382-6.818-43.378-41.335-57.862-11.657-4.892-24.612-8.199-27.673-28.591z" fill="#ffd1c9"></path><path d="M204.027 341.711c2.292 13.758 5.63 22.721 24.184 29.956 9.9 3.861 28.355 9.996 38.183 8.495s25.655-12.874 33.978-19.519c17.506-13.976 16.068-24.305 13.545-41.113-4.815-32.078-17.815-67.268-17.815-67.268-4.466-9.135-12.851-13.652-22.337-12.204-9.444 1.442-16.568 8.592-17.261 23.537-.483 10.411.78 37.335-20.263 40.549-13.006 1.987-16.218 8.444-16.744 17.02-.39 6.364-2.322 16.421-15.694 20.568" fill="#ffd1c9"></path><path d="M258.364 353.212c-6.889 0-12.896-2.671-16.403-5.252-7.527-5.54.915-17.833 8.833-12.123 2.213 1.545 9.98 5.83 17.829-3.117 6.189-7.057 17.747 2.513 11.277 9.891-6.988 7.967-14.696 10.601-21.536 10.601z" fill="#6362b5"></path><path d="m305.404 405.05-30.881 29.262-35.961-20.202c-.508.417-1.014.835-1.514 1.256-28.718 24.145-26.214 43.1-22.704 66.482l132.178-19.029c-3.502-23.333-6.809-43.292-41.118-57.769z" fill="#ff80bb"></path><ellipse cx="162.709" cy="264.777" fill="#fed33a" rx="45.698" ry="45.886" transform="matrix(.025 -1 1 .025 -106.001 420.905)"></ellipse></g></svg>