<svg viewBox="0 0 50 50" xmlns="http://www.w3.org/2000/svg"><g><path d="M40.803 11.954H9.2l-8.197 23.22 4.813 1.97L9.2 18.925h31.604l3.384 18.22L49 35.174z" fill="#e4e4e3"></path><path d="m49 35.174-4.816 1.969-.83-2.757H6.646l-.829 2.757L1 35.173l.336-.787 7.86-22.434h31.607l7.86 22.434z" fill="#e4e4e3"></path><path d="M11.083 14.582h27.836v4.694H11.083z" fill="#59b1e3"></path><path d="M11.083 14.582v4.694l-2.98 16.882-2.794-1.735zM38.92 14.582v4.694l2.98 16.882 2.793-1.735z" fill="#35a9d9"></path><path d="M41.9 36.158H8.102l2.98-16.882h27.836z" fill="#7ac1e1"></path><path d="M49 35.174v4.815H1v-4.815l.336-.788h47.328z" fill="#d2d2d0"></path><g fill="#7b7a7a"><path d="M15.287 10.011h.75v11.79h-.75zM20.76 10.011h.75v11.79h-.75zM16.04 12.876h4.72v.821h-4.72zM16.04 15.496h4.72v.821h-4.72zM16.04 18.116h4.72v.821h-4.72z" fill="#7b7a7a"></path></g><g fill="#a3ddf1"><path d="M29.35 25.38c-.233-.19-.168-.494.075-.707.771-.67 2.264-.242 2.378-.373.438-.33-.548-1.62 3.706-1.065-2.37.59-2.417-.004-2.682 1.131-.397 1.071-2.153.14-3.05.52-.233.095-.436.264-.426.494zM20.416 25.697c-.36-.291-.07-.989 1.17-1.084.406-.049.853.028 1.09.025.815 0-.777-1.696 3.898-1.086-2.371.59-2.417-.004-2.682 1.13-.323.873-1.843.441-2.269.42-.55-.026-1.227.145-1.207.595zM14.976 30.011c-.36-.29-.07-.988 1.171-1.084.406-.048.853.028 1.09.026.746 0-.728-1.69 3.898-1.087-.658.164-1.415.232-1.992.34-1.079.275-.257.888-1.182 1.24-.612.243-1.2 0-1.777-.03-.55-.025-1.227.145-1.208.595zM22.305 31.751c-.234-.189-.17-.493.073-.706.835-.726 2.312-.142 2.433-.46.1-.168-.034-1.04 1.504-1.12.79-.034 1.427.047 2.148.141-2.371.59-2.417-.003-2.683 1.132-.17.459-.81.594-1.3.547-.521-.062-1.229-.249-1.75-.028-.232.096-.436.265-.426.494zM32.112 31.159c-.234-.19-.169-.494.074-.707.772-.67 2.264-.242 2.378-.373.438-.33-.548-1.62 3.706-1.065-2.37.59-2.416-.004-2.682 1.131-.423 1.142-2.09.113-3.05.52-.233.095-.436.264-.426.494zM28.859 28.599c-.235-.19-.046-.646.765-.709.265-.031.558.019.713.017.462 0-.444-1.1 2.548-.71-.43.107-.925.151-1.302.221-.705.18-.168.581-.773.812-.562.222-1.138-.18-1.672.046-.153.062-.286.173-.279.323zM27.24 22.116c-.236-.19-.046-.646.765-.709.265-.031.558.019.713.017.48 0-.431-1.099 2.548-.71-1.536.382-1.58-.002-1.754.74-.11.3-.53.388-.85.357-.34-.04-.803-.162-1.144-.018-.152.062-.285.173-.278.323zM14.926 25.297c-.235-.19-.046-.646.766-.708.264-.032.557.018.712.017.527-.001-.496-1.108 2.548-.71-1.535.381-1.58-.003-1.754.739-.259.7-1.407.09-1.993.34-.152.062-.285.173-.279.322zM11.178 32.501c-.235-.19-.046-.646.766-.708.265-.032.557.018.712.016.621 0-.574-1.117 2.548-.71-1.535.382-1.58-.002-1.754.74-.261.707-1.403.09-1.993.34-.152.062-.285.172-.279.322z" fill="#a3ddf1"></path></g></g></svg>