<svg viewBox="0 0 408.8 408.8" xmlns="http://www.w3.org/2000/svg"><g><path d="m176.8 291.6 27.6-83.6-170-100.8-28.8 84 85.6 50z" fill="#c99e79"></path><path d="m204.4 7.2 85.6 50 85.2 50.4-85.2 50-86.4 50.8-84.8-50.8-85.2-50 85.2-50.4z" fill="#643513"></path><path d="M203.6 208.4v195.2l-170-98.4v-97.6l57.6 33.6 85.6 50.4z" fill="#926e43"></path><path d="M33.6 107.6 0 105.2l171.2-100 33.2 2-85.6 50z" fill="#d9ac80"></path><path d="M375.2 113.2v-5.6l-1.6.8 1.6 4.8zm-171.6 95.2v195.2l170-98.4.8-98.4-58.8 34.4-85.6 50.4-26.4-83.2z" fill="#a67e4f"></path><path d="m230 291.6-26.4-83.2 170-100.8 27.6 83.6-85.6 50zM375.2 107.6l33.6-2.4-171.2-100-33.2 2 85.6 50z" fill="#d9ac80"></path><path d="M204.4 140.4V7.2l-85.6 50-85.2 50.4 85.2 50 27.6 16.4z" fill="#8d5122"></path><path d="M204.4 7.2v133.2l57.6 33.2 111.6-66v.8l1.6-.8L290 57.2z" fill="#77411b"></path></g></svg>