<svg viewBox="0 0 512 512" xmlns="http://www.w3.org/2000/svg"><g><path clip-rule="evenodd" d="M259.49 354.783h179.067l46.519-64.428V194.15c0-16.631-13.637-30.233-30.312-30.233H57.236c-16.674 0-30.312 13.602-30.312 30.233v96.205l46.519 64.428z" fill="#ff646f" fill-rule="evenodd"></path><path clip-rule="evenodd" d="M438.557 511.338V334.249H73.443v177.089z" fill="#ff646f" fill-rule="evenodd"></path><path clip-rule="evenodd" d="M390.695 373.599h47.862v137.74h-47.862z" fill="#fb4455" fill-rule="evenodd"></path><path clip-rule="evenodd" d="M73.443 511.338V310.015c0-10.806-8.877-19.66-19.711-19.66H19.711C8.848 290.355 0 299.209 0 310.015v201.323zM512 511.338V310.015c0-10.806-8.877-19.66-19.711-19.66H458.269c-10.863 0-19.711 8.854-19.711 19.66v201.323z" fill="#ab695d" fill-rule="evenodd"></path><path clip-rule="evenodd" d="M189.638 51.138 93.242 93.605c-7.096 2.097-12.177 7.34-14.046 14.476-1.898 7.136-.058 14.185 5.081 19.515 10.046 10.165 26.457 23.389 42.314 36.321 1.606 1.311 3.183 2.592 4.76 3.874l29.961-36.204-18.397-10.253 46.636-23.418a62.93 62.93 0 0 1-.204-5.243V56.235a42.148 42.148 0 0 1 .291-5.097z" fill="#fed2a4" fill-rule="evenodd"></path><path clip-rule="evenodd" d="M338.072 138.576c-10.951 6.087-19.419 6.961-32.823 6.583h-98.528c-13.404.379-21.872-.495-32.823-6.583l-12.586-6.99-29.961 36.204c11.622 9.554 22.602 18.758 30.049 26.33 11.184 11.359 22.281 29.622 22.281 45.554v43.399l51.191 56.418 93.417-57.38v-42.437c0-15.932 11.097-34.195 22.31-45.554 7.447-7.573 18.397-16.777 30.049-26.33l-6.454-25.544-23.537-10.66z" fill="#9be69d" fill-rule="evenodd"></path><path clip-rule="evenodd" d="m418.729 93.605-96.717-42.612c.847 7.34.584 13.398.584 15.292v26.389c0 1.748-.058 3.495-.204 5.214l46.694 23.447-18.427 10.253 29.991 36.204c1.548-1.282 3.154-2.563 4.731-3.874 15.857-12.932 32.268-26.156 42.314-36.321 5.14-5.33 6.979-12.379 5.11-19.515-1.899-7.137-6.98-12.38-14.076-14.477z" fill="#fed2a4" fill-rule="evenodd"></path><path clip-rule="evenodd" d="m380.649 167.79-6.454-25.544c-2.103 1.689-12.966 10.573-15.039 12.262-11.652 9.554-22.602 18.758-30.049 26.33-11.214 11.359-22.31 29.622-22.31 45.554v72.118l21.493-16.398v-42.437c0-15.932 11.097-34.195 22.31-45.554 7.447-7.573 18.397-16.777 30.049-26.331z" fill="#6fd7a3" fill-rule="evenodd"></path><path clip-rule="evenodd" d="M406.201 114.284c-9.724 9.874-25.406 22.573-40.795 35.098l15.243 18.408c1.548-1.282 3.154-2.563 4.731-3.874 15.857-12.932 32.268-26.156 42.314-36.321 5.14-5.33 6.979-12.379 5.11-19.515-1.898-7.136-6.979-12.379-14.075-14.476l-9.695-4.282c.993 1.66 1.752 3.495 2.278 5.476 1.868 7.137.028 14.185-5.111 19.486zM142.915 121.333l46.636-23.418a62.93 62.93 0 0 1-.204-5.243V56.235c0-1.718.088-3.408.292-5.097l-18.543 8.185v30l-35.743 18.058c-10.454 5.272-17.55 14.709-8.089 22.253l21.493 17.126 12.557-15.175z" fill="#ffbd86" fill-rule="evenodd"></path><path clip-rule="evenodd" d="M233.412 155.178c3.358-10.02-3.913-13.602-18.193-10.02h-8.498c-13.404.379-21.872-.495-32.823-6.583l-12.586-6.99-12.557 15.175 23.303 12.379c20.15 10.69 44.534 5.826 61.354-3.961z" fill="#6fd7a3" fill-rule="evenodd"></path><path clip-rule="evenodd" d="M291.174 59.759c-24.822-15.292-51.834-2.971-85.27 17.767l-16.558 10.282v4.864c0 1.748.058 3.495.204 5.243 1.518 19.136 11.243 36.059 25.669 47.243 11.272 8.738 25.435 13.952 40.766 13.952 15.302 0 29.465-5.214 40.737-13.952 14.426-11.185 24.15-28.107 25.669-47.273.146-1.718.204-3.466.204-5.214C309.25 75.4 307.41 69.75 291.174 59.759z" fill="#fed2a4" fill-rule="evenodd"></path><path clip-rule="evenodd" d="M322.011 50.992c-1.723-14.534-7.855-34.049-29.231-35.913C285.304 5.409 272.923.923 259.227.661h-2.395c-29.436.524-63.69 20.185-67.194 50.476a42.353 42.353 0 0 0-.292 5.097v31.573h16.558c39.364 0 60.448-33.059 85.27-17.767 16.236 9.99 8.673 5.767 31.421 22.631V66.284c0-1.893.263-7.952-.584-15.292z" fill="#554e56" fill-rule="evenodd"></path><path clip-rule="evenodd" d="M305.921 56.556v23.389c2.862 2.243 7.067 5.621 16.674 12.728V66.284c0-1.893.263-7.952-.584-15.292-1.635-13.806-7.242-32.097-26.136-35.505 6.016 7.369 8.469 17.389 9.461 25.777.848 7.34.585 13.398.585 15.292z" fill="#433f43" fill-rule="evenodd"></path><path clip-rule="evenodd" d="M305.717 88.158c-1.519 19.165-11.243 36.088-25.669 47.272-11.301 8.738-25.435 13.952-40.766 13.952a66.208 66.208 0 0 1-24.763-4.777c.234.175.467.35.701.553 11.272 8.738 25.435 13.952 40.766 13.952 15.302 0 29.465-5.214 40.737-13.952 14.426-11.185 24.15-28.107 25.669-47.273.146-1.718.204-3.466.204-5.214-9.608-7.107-13.813-10.486-16.674-12.728v3a62.186 62.186 0 0 1-.205 5.215z" fill="#ffbd86" fill-rule="evenodd"></path><path clip-rule="evenodd" d="M73.443 334.249v-24.233c0-10.806-8.877-19.66-19.711-19.66H23.303c10.834 0 19.711 8.854 19.711 19.66v201.323h30.429zM512 511.338V310.015c0-10.806-8.877-19.66-19.711-19.66h-26.808c10.834 0 19.711 8.854 19.711 19.66v201.323z" fill="#935b50" fill-rule="evenodd"></path><path clip-rule="evenodd" d="M250.787 373.599h187.769v-39.35H73.443v39.35h90.41z" fill="#fb4455" fill-rule="evenodd"></path><path clip-rule="evenodd" d="M234.872 308.675c-4.672-24.845-32.268-34.107-51.191-25.602-10.951 4.922-18.981 15.816-17.959 33.088l.701 11.942 38.138 5.592zM235.544 373.599l-32.677 7.223.263.903c6.045 21.117-5.694 43.428-30.604 49.37l2.19 37.34h60.828z" fill="#935b50" fill-rule="evenodd"></path><path clip-rule="evenodd" d="M235.544 468.435h-61.762c-21.989 0-40.299 17.36-39.189 42.904h100.952v-42.904z" fill="#554e56" fill-rule="evenodd"></path><path clip-rule="evenodd" d="M234.872 308.675c-4.672-24.845-32.268-34.107-51.191-25.602-4.994 2.243-9.374 5.709-12.586 10.486 15.448-1.718 32.59 5.971 38.81 22.194l2.482 6.728zM235.544 373.599l-19.77-8.214-12.907 15.437c.088.32-24.384 21.262-31.217 35.709l1.869 31.311c21.172-7.544 30.662-17.039 35.451-25.631 5.169-5.418 3.417 10.282 3.417 14.884v31.34h23.157z" fill="#7e4c42" fill-rule="evenodd"></path><path clip-rule="evenodd" d="M212.387 468.435h23.157v42.904h-23.157z" fill="#433f43" fill-rule="evenodd"></path><path clip-rule="evenodd" d="m328.29 282.112-93.417 26.563-48.651 13.806-2.628 37.311 19.273 21.03 32.677-7.223 116.633-25.835c10.454-2.33 17.609-7.282 21.96-13.515 16.12-23.01-5.811-63.496-41.117-53.476z" fill="#ab695d" fill-rule="evenodd"></path><path clip-rule="evenodd" d="m183.593 359.793 19.273 21.03 32.677-7.223 116.633-25.835c10.454-2.33 17.609-7.282 21.96-13.515 9.14-13.078 6.045-31.748-4.818-43.632.555 7.194-1.051 14.389-5.256 20.418-4.38 6.262-11.535 11.214-21.989 13.515z" fill="#935b50" fill-rule="evenodd"></path><path clip-rule="evenodd" d="m202.867 380.822-16.645-58.341-39.395 11.203a2.06 2.06 0 0 0-1.417 2.548l27.117 94.862c24.909-5.942 36.649-28.253 30.604-49.37z" fill="#554e56" fill-rule="evenodd"></path><path clip-rule="evenodd" d="M172.526 431.095c24.909-5.942 36.649-28.253 30.604-49.37l-.263-.903-6.541-22.923c5.957 21.088-5.763 43.341-30.643 49.254z" fill="#433f43" fill-rule="evenodd"></path><path clip-rule="evenodd" d="M485.076 290.355V194.15c0-16.631-13.637-30.233-30.312-30.233h-34.692c16.674 0 30.312 13.602 30.312 30.233v97.865a19.308 19.308 0 0 1 7.885-1.66h7.213z" fill="#fb4455" fill-rule="evenodd"></path><path clip-rule="evenodd" d="M438.557 373.599v-39.35h-22.106c-1.11 8.738-4.38 16.835-9.286 23.826-4.322 6.175-9.929 11.447-16.47 15.525H438.557z" fill="#f7314a" fill-rule="evenodd"></path><path d="M403.047 253.605a7.706 7.706 0 0 1-5.457-2.256l-20.471-20.418a7.727 7.727 0 0 1-.014-10.927 7.726 7.726 0 0 1 10.928-.014l20.471 20.418a7.727 7.727 0 0 1-5.457 13.197z" fill="#faf7f7"></path><path d="M382.576 253.605a7.727 7.727 0 0 1-5.457-13.197l20.471-20.418a7.727 7.727 0 0 1 10.914 10.941l-20.471 20.418a7.704 7.704 0 0 1-5.457 2.256zM108.661 253.867a7.727 7.727 0 0 1-5.457-13.197l20.471-20.418a7.728 7.728 0 0 1 10.914 10.941l-20.471 20.418a7.704 7.704 0 0 1-5.457 2.256z" fill="#faf7f7"></path><path d="M129.132 253.867a7.706 7.706 0 0 1-5.457-2.256l-20.471-20.418a7.727 7.727 0 0 1 10.914-10.941l20.471 20.418a7.727 7.727 0 0 1-5.457 13.197zM36.707 356.509a7.725 7.725 0 0 1-7.726-7.726V333.55a7.726 7.726 0 1 1 15.452 0v15.233a7.725 7.725 0 0 1-7.726 7.726zM475.264 356.509a7.725 7.725 0 0 1-7.726-7.726V333.55a7.726 7.726 0 1 1 15.452 0v15.233a7.726 7.726 0 0 1-7.726 7.726z" fill="#faf7f7"></path></g></svg>