<svg viewBox="0 0 74 74" xmlns="http://www.w3.org/2000/svg"><g><path d="M54.27 52.93v14.53c0 .85-.69 1.54-1.54 1.54H6.54C5.69 69 5 68.31 5 67.46V52.93c0-6.45 5.23-11.68 11.68-11.68H42.6c6.45 0 11.67 5.23 11.67 11.68z" fill="#a67c52"></path><path d="M46.08 41.78c-1.42 2.6-3.24 5.01-5.33 7.14-2.99 3.11-6.6 5.61-10.42 7.58l-.69.35-.69-.35c-3.82-1.97-7.43-4.47-10.43-7.57-2.08-2.14-3.9-4.55-5.32-7.15.35-.11.71-.2 1.08-.28.77-.15 1.57-.25 2.4-.25H42.6a11.766 11.766 0 0 1 3.48.53z" fill="#936944"></path><path d="M47.71 38.26C43.6 45.47 37.58 51.1 29.64 55.13c-7.94-4.03-13.97-9.65-18.07-16.87 12.04-5.88 24.09-5.88 36.14 0z" fill="#a67c52"></path><path d="M30.75 69c2.64-7.83 4.69-18.13 6.13-30.93H22.39c1.45 12.8 3.49 23.1 6.13 30.93z" fill="#cccccc"></path><path d="M36.05 44.58c.29-2.1.57-4.25.83-6.51H22.39c.26 2.26.54 4.41.83 6.51 4.28 2.2 8.56 2.2 12.83 0z" fill="#eaa97d"></path><path d="M20.44 25.09c0 1.83-1.08 3.32-2.41 3.32s-2.41-1.49-2.41-3.32 1.08-3.32 2.41-3.32c1.32 0 2.41 1.49 2.41 3.32zM43.66 25.09c0 1.83-1.08 3.32-2.41 3.32s-2.41-1.49-2.41-3.32 1.08-3.32 2.41-3.32 2.41 1.49 2.41 3.32z" fill="#fcc397"></path><path d="M40.59 15.98V30.3c0 6.05-4.9 10.95-10.95 10.95-6.05 0-10.95-4.9-10.95-10.95V15.98z" fill="#fcc397"></path><path d="M43.03 59.82h1.91v9.17h-1.91zM14.33 59.82h1.91v9.17h-1.91z" fill="#936944"></path><path d="M31.41 23.67c-1.19-.69-2.35-.69-3.54 0l-.54-.94c1.53-.89 3.09-.89 4.62 0z" fill="#343434"></path><path d="M28.48 22.4c1.04 1.03.05 4.83-1.08 5.77-1.43 1.19-6.02 1.19-7.45 0-1.13-.94-2.12-4.74-1.08-5.77 1.71-1.69 7.9-1.69 9.61 0z" fill="#343434"></path><path d="M23.67 27.98c-1.55 0-2.66-.33-3.03-.64-.81-.67-1.42-3.64-1.01-4.18.46-.45 1.92-.95 4.04-.95s3.58.5 4.04.96c.41.53-.2 3.5-1.01 4.17-.37.31-1.47.64-3.03.64z" fill="#e6e6e6"></path><path d="M40.4 22.4c1.04 1.03.05 4.83-1.08 5.77-1.43 1.19-6.02 1.19-7.45 0-1.13-.94-2.12-4.74-1.08-5.77 1.71-1.69 7.91-1.69 9.61 0z" fill="#343434"></path><path d="M35.6 27.98c-1.55 0-2.66-.33-3.03-.64-.81-.67-1.42-3.64-1-4.18.46-.45 1.92-.95 4.04-.95s3.58.5 4.04.96c.41.53-.2 3.5-1.01 4.17-.38.31-1.49.64-3.04.64z" fill="#e6e6e6"></path><path d="M46.7 18.59c0 2.93-7.64 5.32-17.06 5.32-9.43 0-17.07-2.38-17.07-5.32s7.64-5.33 17.07-5.33c9.42 0 17.06 2.39 17.06 5.33z" fill="#a67c52"></path><path d="M17.22 18.06C17.78 12.08 21.29 5 24.9 5c1.86 0 2.34 1.26 4.73 1.26S32.5 5 34.39 5c3.59 0 7.1 7.08 7.66 13.06-.45 3.3-24.37 3.3-24.83 0z" fill="#936944"></path><path d="M41.58 53.79c.04 1.97.33 3.99-.26 5.87-.53 1.7-1.74 3.13-3.14 4.23-3.55 2.76-8.18 3.56-12.55 4.57-.7.16-1.41.34-2.11.54H6.54c-.86 0-1.55-.69-1.55-1.54V52.93c0-5.24 3.45-9.68 8.2-11.15l.52-.15a39.26 39.26 0 0 1-2.15-3.37c2.75-1.34 5.5-2.38 8.26-3.1-.73-1.47-1.14-3.12-1.14-4.86v-2.01c-.21.09-.43.13-.66.13-1.33 0-2.41-1.49-2.41-3.33 0-1.29.54-2.41 1.32-2.96-2.71-.94-4.36-2.17-4.36-3.54 0-1.51 2-2.87 5.23-3.84 1.25-5 4.14-9.75 7.1-9.75 1.87 0 2.35 1.26 4.73 1.26C32.02 6.26 32.5 5 34.39 5c2.94 0 5.83 4.75 7.08 9.75 3.23.97 5.23 2.33 5.23 3.84 0 1.37-1.65 2.6-4.36 3.54.78.55 1.32 1.67 1.32 2.96 0 1.84-1.08 3.33-2.41 3.33-.23 0-.46-.04-.67-.13v2.01c0 1.74-.41 3.39-1.13 4.86 2.67.7 5.35 1.7 8.02 2.99-3.78 4.27-6 9.94-5.89 15.64z" fill="#ffffff" opacity=".1"></path><path d="M35.03 5.07c-4.09 6.77-6.68 14.45-7.47 22.32-.47 4.7-.45 9.84-3.4 13.53-1.26 1.58-3 2.79-4 4.55-1.46 2.59-1.01 5.79-1.47 8.73-.74 4.66-3.85 8.68-7.67 11.44-1.68 1.21-3.49 2.21-5.38 3.07a1.52 1.52 0 0 1-.65-1.25V52.93c0-5.24 3.45-9.68 8.2-11.15l.52-.15a39.26 39.26 0 0 1-2.15-3.37c2.75-1.34 5.5-2.38 8.26-3.1-.73-1.47-1.14-3.12-1.14-4.86v-2.01c-.21.09-.43.13-.66.13-1.33 0-2.41-1.49-2.41-3.33 0-1.29.54-2.41 1.32-2.96-2.71-.94-4.36-2.17-4.36-3.54 0-1.51 2-2.87 5.23-3.84 1.25-5 4.14-9.75 7.1-9.75 1.87 0 2.35 1.26 4.73 1.26C32.02 6.26 32.5 5 34.39 5c.21 0 .43.03.64.07z" fill="#ffffff" opacity=".1"></path><path d="m53.98 47.28 13.64 11.57a3.917 3.917 0 1 1-5.52 5.52L50.53 50.72z" fill="#f15a24"></path><path d="M44.12 26.71c-7.81 0-14.15 6.34-14.15 14.15s6.34 14.15 14.15 14.15 14.15-6.34 14.15-14.15c0-7.82-6.34-14.15-14.15-14.15zm0 24.46c-5.7 0-10.31-4.62-10.31-10.31s4.62-10.31 10.31-10.31c5.7 0 10.31 4.62 10.31 10.31s-4.62 10.31-10.31 10.31z" fill="#ff9f3f"></path><circle cx="44.12" cy="40.86" fill="#e6e6e6" opacity=".3" r="10.31" transform="rotate(-9.25 44.137 40.93)"></circle><path d="M52.94 35.51A10.106 10.106 0 0 0 45 31.66c-5.57 0-10.09 4.52-10.09 10.09 0 3.2 1.49 6.05 3.81 7.9-2.95-1.82-4.92-5.07-4.92-8.79 0-5.7 4.62-10.31 10.31-10.31 3.74 0 7.02 1.99 8.83 4.96z" fill="#000000" opacity=".1"></path><path d="M51.2 33.36 36.62 47.94c-.89-.93-1.6-2.04-2.09-3.25l13.41-13.41c1.22.49 2.32 1.2 3.26 2.08zM53.7 37.03 40.29 50.44c-.74-.3-1.44-.68-2.09-1.14l14.36-14.36c.46.65.84 1.35 1.14 2.09z" fill="#ffffff" opacity=".5"></path><path d="M65.52 63.47c-2.4-2.04-3.1-5.73-5.8-7.37-1.5-.91-3.5-1.12-4.52-2.54-.84-1.19-.67-2.79-.47-4.23.7-4.9 1.4-9.8 2.09-14.7a14.15 14.15 0 0 0-12.71-7.92c-7.81 0-14.15 6.33-14.15 14.15 0 7.81 6.34 14.15 14.15 14.15 2.96 0 5.7-.91 7.97-2.46L62.1 64.37a3.929 3.929 0 0 0 5.57.41c-.77-.36-1.5-.77-2.15-1.31zm-21.41-12.3c-5.69 0-10.31-4.61-10.31-10.31s4.62-10.31 10.31-10.31c5.7 0 10.32 4.61 10.32 10.31s-4.62 10.31-10.32 10.31z" fill="#ffffff" opacity=".1"></path><path d="M49.57 52.85c-.25-1-.31-2.03-.31-3.06-1.51.88-3.27 1.38-5.15 1.38-5.69 0-10.31-4.61-10.31-10.31s4.62-10.31 10.31-10.31c.41 0 .81.02 1.21.07-.02-1.26.1-2.54.31-3.82-.5-.06-1.01-.09-1.52-.09-7.81 0-14.15 6.33-14.15 14.15 0 7.81 6.34 14.15 14.15 14.15 2.05 0 3.99-.44 5.74-1.23-.11-.3-.2-.61-.28-.93z" fill="#ffffff" opacity=".1"></path></g></svg>