<svg viewBox="0 0 64 64" xmlns="http://www.w3.org/2000/svg"><g><path d="M22 14c8.74 0 10.62 11.33 10.51 21.62-.61.55-1.17 1.21-1.62 2.03a3.61 3.61 0 0 0-3.34-.41c-.14-.14-.3-.28-.46-.41L30 31l-2 1-2-5-2 4-3-2 1 6c-4.42 0-8 3.58-8 8 0 .56.06 1.1.16 1.62-.33-.34-.69-.63-1.07-.88-.05-2.13-.27-5.16-.89-8.59-.01-.07-.02-.15-.04-.22h.01c6.9-.1 5.83-5.48 5.83-5.48-4.94 0-6.03 4.39-6.03 4.39h-.02c-.03-.12-.05-.25-.08-.37a51.02 51.02 0 0 0-.87-3.5c5.27-.39 4.26-5.45 4.26-5.45-1.14 0-2.02.22-2.7.54.95-2.77-.04-6.58-.04-6.58-.69.43-1.27.84-1.76 1.21v-.02c.3-.64.62-1.27.97-1.87C14.1 15.62 17.4 14 22 14z" fill="#8c6239"></path><path d="M31.33 12.96c4.56 4.51 5.83 13.34 6.04 20.43-1.34.24-3.28.83-4.86 2.23C32.62 25.33 30.74 14 22 14c-4.6 0-7.9 1.62-10.27 3.8C14.24 13.38 18.09 10 24 10c3.09 0 5.49 1.12 7.33 2.96z" fill="#a67c52"></path><path d="M14 43c0 .56.06 1.1.16 1.62-.33-.34-.69-.63-1.07-.88-.06-2.13-.27-5.16-.89-8.59-.01-.07-.02-.15-.04-.22h.01c2.58-.04 4.05-.81 4.86-1.77h.01c1.55-.8 2.94-1.88 4.12-3.19L22 35c-4.42 0-8 3.58-8 8z" fill="#6d4320"></path><path d="M13.09 43.74c-.09-.07-.19-.12-.28-.18-2.26-1.33-3.9-.11-4.92 1.27C7.13 41.17 7 38 7 38s0-1.01.12-2.65c1.24.99 2.96 1.46 5.08-.2.62 3.43.83 6.46.89 8.59z" fill="#6d4320"></path><path d="M11 29.97c.34 1.19.63 2.36.87 3.5-.74-.36-2.16-.89-4.41-1.14.06-.45.14-.94.22-1.45.94.13 2.04-.11 3.28-1.05.01.05.03.09.04.14z" fill="#783f16"></path><path d="M55.24 38.63c-.11-.01-.18-.02-.23-.02h-.04s-1.87 0-2.98 1.47c-.23-3.31-1.33-6.2-2.92-8.07.93.23 1.91.64 2.82 1.33.92.69 1.78 1.64 2.46 2.98.26.5.49 1.04.69 1.65.07.21.14.43.2.66z" fill="#ff8939"></path><path d="M26.81 48.73c.82-.34 1.4-1.14 1.4-2.08 0-.31-.06-.61-.19-.88.5.08 1.21.12 2.03-.05.26 1.45.7 2.62 1.27 3.56l-1.41.48a2.233 2.233 0 0 0-2.02-1.28c-.39 0-.75.1-1.07.27" fill="#774318"></path><path d="M34.26 46.63c.17.44.37.85.6 1.23l-1.31.53-.53-4.19c.17-.14.33-.29.5-.46.06-.06.12-.12.17-.18.02 1.05.19 2.09.57 3.07z" fill="#ff8800"></path><path d="M59.78 42.45c0 1.24-.1 2.33-.28 3.3-.45-.86-.76-1.81-.76-2.94 0-3.52-2.64-4.09-3.5-4.18-.06-.23-.13-.45-.2-.66-.2-.61-.43-1.15-.69-1.65-.68-1.34-1.54-2.29-2.46-2.98.57.09 1.29.25 2.06.52.15.05.31.11.47.17.39.15.8.34 1.2.58.04.02.08.05.12.07.39.22.77.49 1.13.79 1.62 1.34 2.91 3.51 2.91 6.98z" fill="#ed5607"></path><path d="M63 23c0 .84-.08 1.66-.23 2.46-5.32-10.26-10.61-11.64-14.23-10.87 2.91-2.29 7.13-6.34 7.6-9.79a.994.994 0 0 1 1.67-.61C59.89 6.11 63 11 63 23z" fill="#a67c52"></path><path d="M55.01 38.61c.05 0 .12.01.23.02.86.09 3.5.66 3.5 4.18 0 1.13.31 2.08.76 2.94 1.21 2.31 3.44 3.95 3.44 6.7 0 3.78-2.94 7.55-7.97 7.55-4.99 0-7.92-3.71-7.97-7.46v-.09c0-3.77 4.19-5.45 4.19-9.64 0-1.24.33-2.12.8-2.73 1.11-1.47 2.98-1.47 2.98-1.47h.04z" fill="#dddd43"></path><path d="M62.94 52.45c0 3.78-2.94 7.55-7.97 7.55-1.24 0-2.35-.23-3.33-.63 4.62-.32 7.3-3.92 7.3-7.53 0-2.75-2.23-4.39-3.44-6.7-.45-.86-.76-1.81-.76-2.94 0-1.64-.57-2.64-1.28-3.25.8-.34 1.51-.34 1.51-.34h.04c.05 0 .12.01.23.02.86.09 3.5.66 3.5 4.18 0 1.13.31 2.08.76 2.94 1.21 2.31 3.44 3.95 3.44 6.7z" fill="#c1bc17"></path><path d="M62.77 25.46c-.36 1.95-1.14 3.8-2.23 5.53-5.81-12.23-11.77-15.01-15.5-14.84.82-.57 2.02-1.25 3.5-1.56 3.62-.77 8.91.61 14.23 10.87z" fill="#8c6239"></path><path d="M55.62 34.61c-.4-.24-.81-.43-1.2-.58-.16-.06-.32-.12-.47-.17v-.01c-.68-14.94-8.54-16.76-11.67-16.89.65-.43 1.6-.76 2.76-.81 3.73-.17 9.69 2.61 15.5 14.84V31c-.99 1.58-2.24 3.07-3.67 4.47-.36-.3-.74-.57-1.13-.79-.04-.02-.08-.05-.12-.07z" fill="#a67c52"></path><path d="M53.95 33.85v.01c-.77-.27-1.49-.43-2.06-.52-.91-.69-1.89-1.1-2.82-1.33 0 0-.01 0-.01-.01-.06-.07-.12-.13-.18-.2-.66-9.41-4.3-13.28-7.54-14.83.22-.02.54-.03.94-.01 3.13.13 10.99 1.95 11.67 16.89z" fill="#8c6239"></path><path d="M47.16 30.41c.61.34 1.19.81 1.72 1.39.06.07.12.13.18.2 0 .01.01.01.01.01 1.59 1.87 2.69 4.76 2.92 8.07-.47.61-.8 1.49-.8 2.73 0 4.19-4.19 5.87-4.19 9.64-.05.02-.09.04-.14.07-.66.31-1.36.48-2.08.48s-1.42-.17-2.08-.48c-3-1.44-5.18-5.88-5.18-11.13 0-3.86 1.18-7.28 2.98-9.39h.01c.6-.71 1.28-1.27 2-1.65.71-.38 1.48-.58 2.27-.58.83 0 1.64.23 2.38.64z" fill="#ff8939"></path><path d="M51.99 40.08c-.47.61-.8 1.49-.8 2.73 0 4.19-4.19 5.87-4.19 9.64-.05.02-.09.04-.14.07-.66.31-1.36.48-2.08.48s-1.42-.17-2.08-.48c-.48-.23-.94-.54-1.37-.92C45.39 48.59 48 43.84 48 38.5c0-3.19-.93-6.16-2.54-8.68.59.09 1.16.29 1.7.59.61.34 1.19.81 1.72 1.39.06.07.12.13.18.2 0 .01.01.01.01.01 1.59 1.87 2.69 4.76 2.92 8.07z" fill="#ed5607"></path><path d="M48.88 31.8a6.918 6.918 0 0 0-1.72-1.39l-.44-3.54-.76-3.05a1.093 1.093 0 0 0-2.15.27v2.78l-.89 2.38c-.41-6.89-2.39-10.89-4.68-13.2.89.12 1.96.38 3.09.92h.01c3.24 1.55 6.88 5.42 7.54 14.83z" fill="#a67c52"></path><path d="m46.72 26.87.44 3.54c-.74-.41-1.55-.64-2.38-.64-.79 0-1.56.2-2.27.58l.41-1.1.89-2.38v-2.78a1.093 1.093 0 0 1 2.15-.27z" fill="#939f5c"></path><path d="m42.92 29.25-.41 1.1c-.72.38-1.4.94-2 1.65h-.01c-.93.24-1.92.64-2.83 1.34-.09.01-.19.03-.3.05-.21-7.09-1.48-15.92-6.04-20.43 1.62.07 4.44.6 6.91 3.09 2.29 2.31 4.27 6.31 4.68 13.2z" fill="#8c6239"></path><path d="m42.7 52.52-.74.11c-1.36-.31-3.01-.88-4.48-1.93.1-.3.13-.64.06-.98l-.09-.48a1.904 1.904 0 0 0-2.57-1.39l-.02.01c-.23-.38-.43-.79-.6-1.23-.38-.98-.55-2.02-.57-3.07 2.94-3.11 1.64-6.15 1.64-6.15l-.92.91c.68-2.26 1.76-3.76 2.97-4.75.09-.08.19-.16.29-.23.91-.7 1.9-1.1 2.83-1.34-1.8 2.11-2.98 5.53-2.98 9.39 0 5.25 2.18 9.69 5.18 11.13z" fill="#ed5607"></path><path d="m41.96 52.63-2.5.37c-2.91 0-6.24-.59-8.14-3.72l2.23-.89.24 1.94a1.901 1.901 0 0 0 3.69.37c1.47 1.05 3.12 1.62 4.48 1.93z" fill="#ff8800"></path><path d="M37.54 49.72c.07.34.04.68-.06.98-1-.7-1.93-1.63-2.62-2.84l.02-.01c1.1-.44 2.34.23 2.57 1.39z" fill="#ed5607"></path><path d="M37.37 33.39c-1.34.24-3.28.83-4.86 2.23-.61.55-1.17 1.21-1.62 2.03.27.17.54.39.81.66l.91-1.81 1.36 2.26.44-.44c.68-2.26 1.76-3.76 2.97-4.75.09-.08.19-.16.29-.23-.09.01-.19.03-.3.05zM37.48 50.7a1.901 1.901 0 0 1-3.69-.37l-.24-1.94 1.31-.53a8.774 8.774 0 0 0 2.62 2.84z" fill="#ff8800"></path><g fill="#6d4320"><path d="M62.77 25.46c-.36 1.95-1.14 3.8-2.23 5.53-2.41-5.07-4.84-8.52-7.14-10.8 1.19-1.03 2.21-2.13 3.03-3.27 2.04 1.69 4.19 4.39 6.34 8.54zM53.95 33.85v.01c-.77-.27-1.49-.43-2.06-.52-.91-.69-1.89-1.1-2.82-1.33 0 0-.01 0-.01-.01-.06-.07-.12-.13-.18-.2-.22-3.11-.76-5.62-1.52-7.64 1.26-.64 2.43-1.32 3.51-2.05 1.61 2.51 2.83 6.24 3.08 11.74zM42.92 29.25l-.41 1.1c-.72.38-1.4.94-2 1.65h-.01c-.93.24-1.92.64-2.83 1.34-.09.01-.19.03-.3.05-.05-1.77-.17-3.65-.39-5.54v-.01c1.98-.46 3.85-1.01 5.63-1.65.14.95.25 1.97.31 3.06z" fill="#6d4320"></path></g><g fill="#8c6239"><path d="M63 23c0 .84-.08 1.66-.23 2.46-2.15-4.15-4.3-6.85-6.34-8.54 1.6-2.23 2.48-4.64 2.48-7.17 0-2.03-.56-3.98-1.6-5.81.18.03.35.11.5.25C59.89 6.11 63 11 63 23zM60.54 30.99V31c-.99 1.58-2.24 3.07-3.67 4.47-.36-.3-.74-.57-1.13-.79-.04-.02-.08-.05-.12-.07-.4-.24-.81-.43-1.2-.58-.16-.06-.32-.12-.47-.17v-.01c-.25-5.5-1.47-9.23-3.08-11.74.92-.61 1.76-1.25 2.54-1.92 2.29 2.28 4.72 5.73 7.13 10.8zM42.61 26.19c.41-.14.81-.3 1.2-.45v1.13l-.89 2.38c-.06-1.09-.17-2.11-.31-3.06zM48.88 31.8a6.918 6.918 0 0 0-1.72-1.39l-.44-3.54-.53-2.14c.4-.19.79-.38 1.17-.57.76 2.02 1.3 4.53 1.52 7.64zM37.37 33.39c-1.34.24-3.28.83-4.86 2.23.02-2.28-.05-4.62-.28-6.87 1.63-.24 3.22-.54 4.75-.9.22 1.89.34 3.77.39 5.54z" fill="#8c6239"></path></g><path d="m33.02 44.2.53 4.19-2.23.89c-.57-.94-1.01-2.11-1.27-3.56.89-.18 1.92-.62 2.97-1.52z" fill="#ff8800"></path><path d="M32.51 35.62c-.61.55-1.17 1.21-1.62 2.03a3.61 3.61 0 0 0-3.34-.41c-.14-.14-.3-.28-.46-.41L30 31l-2 1-2-5-2 4-2.36-1.58c2.26-2.72 3.63-6.31 3.63-10.25 0-1.67-.25-3.28-.71-4.79 6.56 2.02 8.05 12.05 7.95 21.24z" fill="#6d4320"></path><path d="M22.62 29.45c.73 0 1.45-.01 2.17-.03L24 31l-2.35-1.57c.32.02.65.02.97.02z" fill="#774318"></path><path d="m30 31-2.91 5.83A7.96 7.96 0 0 0 22 35l-1-6 3 2 2-4 2 5z" fill="#939f5c"></path><path d="m30 31-2.91 5.83A7.96 7.96 0 0 0 22 35l-.12-.74a9.15 9.15 0 0 0 5.49-3.83L28 32z" fill="#6e7745"></path><path d="M27.09 36.83c.16.13.32.27.46.41-.24.09-.37.17-.37.17s-1.36 2.26.9 4.52l-1.81.91 2.27 1.36-.93.92c-.41-.44-1-.71-1.64-.71-1.24 0-2.25 1-2.25 2.24s1.01 2.24 2.25 2.24c.29 0 .58-.06.84-.16l.01.02c-.7.38-1.17 1.12-1.17 1.97 0 .62.25 1.18.65 1.58l-.03.04c-.41-.41-.97-.66-1.58-.66-.15 0-.27.01-.4.04.44-.41.72-1 .72-1.64 0-.92-.56-1.71-1.35-2.05a2.236 2.236 0 0 0-2.18-2.75c-1.23 0-2.24 1-2.24 2.24 0 .37.09.73.26 1.03v.01a2.228 2.228 0 0 0-2.59 1.18c-.49-1.87-1.43-3.79-2.75-5.11v-.01c-.1-.52-.16-1.06-.16-1.62 0-4.42 3.58-8 8-8 1.94 0 3.71.69 5.09 1.83z" fill="#eeaa09"></path><path d="M23.72 46.65c0 1.24 1.01 2.24 2.25 2.24.29 0 .58-.06.84-.16l.01.02c-.7.38-1.17 1.12-1.17 1.97 0 .62.25 1.18.65 1.58l-.03.04c-.41-.41-.97-.66-1.58-.66-.15 0-.27.01-.4.04.44-.41.72-1 .72-1.64 0-.92-.56-1.71-1.35-2.05a2.236 2.236 0 0 0-2.18-2.75c-1.23 0-2.24 1-2.24 2.24 0 .37.09.73.26 1.03v.01a2.228 2.228 0 0 0-2.59 1.18c-.37-1.4-.99-2.83-1.83-4.02v-.01c4.9-.82 8.52-3.72 8.52-7.17 0-1.28-.5-2.48-1.37-3.53a7.955 7.955 0 0 1 5.32 2.23c-.24.09-.37.17-.37.17s-1.36 2.26.9 4.52l-1.81.91 2.27 1.36-.93.92c-.41-.44-1-.71-1.64-.71-1.24 0-2.25 1-2.25 2.24z" fill="#fa9133"></path><path d="M40 40s-.5-2.5 2-5 0 6-2 5z" fill="#ffb888"></path><path d="M49.906 52.865s-.5-2.5 2-5 0 6-2 5z" fill="#f0f491"></path><path d="M16.235 44.381s-.94-1.581.442-3.913c1.382-2.333 1.326 4.094-.442 3.913z" fill="#f5cc6b"></path><path d="M55 39.5a.5.5 0 0 1-.5-.5c0-.213.024-5.231 2.146-7.354a.5.5 0 0 1 .707.707C55.524 34.183 55.5 38.952 55.5 39a.5.5 0 0 1-.5.5zM35.68 52.5a2.407 2.407 0 0 1-2.384-2.104l-.163-1.307-2.819 1.131a.5.5 0 0 1-.373-.927l3.063-1.229-.5-4.002a.501.501 0 0 1 .993-.125l.468 3.742.725-.291a2.395 2.395 0 0 1 2.038.116c.63.341 1.072.939 1.213 1.643l.096.479a2.393 2.393 0 0 1-.498 1.994c-.46.56-1.137.88-1.859.88zm-1.588-3.795.196 1.566c.088.7.686 1.229 1.392 1.229.422 0 .816-.188 1.084-.514s.374-.75.291-1.164l-.096-.479a1.404 1.404 0 0 0-1.897-1.026z" fill="#939f5c"></path><path d="M33.02 44.2c-1.05.9-2.08 1.34-2.97 1.52-.82.17-1.53.13-2.03.05-.53-.09-.84-.22-.84-.22l.43-.43.93-.92-2.27-1.36 1.81-.91c-2.26-2.26-.9-4.52-.9-4.52s.13-.08.37-.17a3.61 3.61 0 0 1 3.34.41c.27.17.54.39.81.66l.91-1.81 1.36 2.26.44-.44.92-.91s1.3 3.04-1.64 6.15a6.97 6.97 0 0 1-.67.64z" fill="#939f5c"></path><path d="M33.69 43.56a6.97 6.97 0 0 1-.67.64c-.61.52-1.22.89-1.79 1.14.07-.38.1-.77.1-1.17 0-3.06-1.95-5.59-4.46-5.95.12-.5.31-.81.31-.81s.13-.08.37-.17a3.61 3.61 0 0 1 3.34.41c.27.17.54.39.81.66l.91-1.81 1.36 2.26.44-.44.92-.91s1.3 3.04-1.64 6.15z" fill="#6e7745"></path><path d="M12.16 34.93c.02.07.03.15.04.22-4.67 3.64-7.36-2.96-7.36-2.96 3.81 0 6.04.8 7.03 1.28.03.12.05.25.08.37.07.37.15.73.21 1.09z" fill="#f9c900"></path><path d="M18 29.45s1.07 5.38-5.83 5.48h-.01c-.06-.36-.14-.72-.21-1.09h.02s1.09-4.39 6.03-4.39z" fill="#ffb000"></path><path d="M15.26 24.52s1.01 5.06-4.26 5.45c-.01-.05-.03-.09-.04-.14-.2-.67-.41-1.35-.64-2.02 0 0 .3-1.81 2.24-2.74v-.01c.68-.32 1.56-.54 2.7-.54z" fill="#f9c900"></path><path d="M10.32 27.81c.23.67.44 1.35.64 2.02-4.12 3.11-6.67-1.48-6.67-1.48.36-.53 1.17-.77 2.12-.86 1.37-.13 3.02.08 3.87.21.02.04.03.08.04.11z" fill="#ffb000"></path><path d="M8.46 23.23c.71 1.48 1.31 2.98 1.82 4.47-.85-.13-2.5-.34-3.87-.21-2.37-.83-4.31-2.97-4.31-2.97.45-.76 1.2-1.18 2.04-1.4 1.5-.38 3.32-.11 4.32.11z" fill="#f9c900"></path><path d="M12.56 25.07c-1.94.93-2.24 2.74-2.24 2.74-.01-.03-.02-.07-.04-.11-.51-1.49-1.11-2.99-1.82-4.47-.09-.19-.19-.39-.29-.58.13-.43.63-1.46 2.59-2.96.49-.37 1.07-.78 1.76-1.21 0 0 .99 3.81.04 6.58z" fill="#ffb000"></path><path d="M6.47 19.57c-.03-.21-.4-2.82 2.76-4.92 0 0 1.63 2.64 1.53 5.04-1.96 1.5-2.46 2.53-2.59 2.96-.52-1.05-1.1-2.08-1.73-3.09.01.01.02.01.03.01z" fill="#f9c900"></path><path d="M8.17 22.65c.1.19.2.39.29.58-1-.22-2.82-.49-4.32-.11C2.15 22.3 1 20.13 1 20.13c1.56-1.56 5.05-.67 5.44-.57.63 1.01 1.21 2.04 1.73 3.09z" fill="#ffb000"></path><path d="M13.09 44.25a.5.5 0 0 1-.5-.488 55.792 55.792 0 0 0-.485-6.017c-1.029-7.753-3.436-14.312-7.15-19.494a.5.5 0 1 1 .812-.582c3.812 5.317 6.278 12.027 7.33 19.944.281 2.116.447 4.177.493 6.125a.5.5 0 0 1-.488.512h-.012z" fill="#d4850f"></path><path d="M5.39 17.94C1 18.48 1 13 1 13c4.94 0 4.39 4.94 4.39 4.94z" fill="#f9c900"></path><path d="M6.93 46.49c.21-.46.53-1.08.96-1.66 1.02-1.38 2.66-2.6 4.92-1.27.09.06.19.11.28.18.38.25.74.54 1.07.88v.01c1.32 1.32 2.26 3.24 2.75 5.11-.15.29-.23.63-.23.98 0-1.24-1-2.24-2.24-2.24s-2.24 1-2.24 2.24c0 1 .66 1.85 1.56 2.13v.01c-.18.31-.28.67-.28 1.06 0 .81.44 1.53 1.09 1.92-.65.4-1.09 1.1-1.09 1.92 0-.63-.26-1.2-.68-1.6.43-.4.68-.97.68-1.6 0-1.24-1-2.24-2.24-2.24-1.23 0-2.24 1-2.24 2.24 0 .63.26 1.2.68 1.6-.42.4-.68.97-.68 1.6 0 .43.12.84.34 1.18-2.93-.68-6.86-3.38-7.79-6.66-1.32-4.61 5.08-5.07 5.08-5.07s.1-.29.3-.72z" fill="#e72846"></path><path d="M16.91 49.74c-.15.29-.23.63-.23.98 0-1.24-1-2.24-2.24-2.24s-2.24 1-2.24 2.24c0 1 .66 1.85 1.56 2.13v.01c-.18.31-.28.67-.28 1.06 0 .81.44 1.53 1.09 1.92-.65.4-1.09 1.1-1.09 1.92 0-.63-.26-1.2-.68-1.6.43-.4.68-.97.68-1.6 0-1.24-1-2.24-2.24-2.24-1.23 0-2.24 1-2.24 2.24 0 .63.26 1.2.68 1.6-.42.4-.68.97-.68 1.6 0 .43.12.84.34 1.18-1.75-.41-3.86-1.54-5.47-3.08 3.36-.88 5.81-3.71 5.81-7.07 0-1.61-.56-3.1-1.51-4.31 1.03-1.22 2.58-2.13 4.64-.92.09.06.19.11.28.18.38.25.74.54 1.07.88v.01c1.32 1.32 2.26 3.24 2.75 5.11z" fill="#cc0033"></path><path d="M4.878 54.249s-1.505-1.057-1.2-3.751 2.888 3.191 1.2 3.751z" fill="#fb7e72"></path><path d="M6.94 46.994a.499.499 0 0 1-.257-.071c-.095-.058-2.333-1.441-2.576-4.862a.5.5 0 0 1 .464-.534.509.509 0 0 1 .534.464c.204 2.881 2.019 4.029 2.096 4.077a.5.5 0 0 1-.261.926z" fill="#939f5c"></path><path d="m12.784 51.997 9.878-4.516a3.637 3.637 0 0 1 4.85 1.866l1.818 4.212c.196.455.298.945.298 1.441v.303a3.636 3.636 0 0 1-3.636 3.636H14.296a3.635 3.635 0 0 1-1.512-6.942z" fill="#540767"></path><path d="M31.41 55.2c0 .47-.15.91-.41 1.27a2.236 2.236 0 0 0-3.66 0c-.27-.36-.41-.8-.41-1.27 0-1.24 1-2.24 2.24-2.24 1.23 0 2.24 1 2.24 2.24z" fill="#731889"></path><path d="M31 56.48c.26.36.41.8.41 1.28C31.41 59 30.4 60 29.17 60c-1.24 0-2.24-1-2.24-2.24 0-.48.15-.92.41-1.28-.01-.01 0-.01 0-.01a2.236 2.236 0 0 1 3.66 0z" fill="#8618a0"></path><path d="M27.89 48.48c1.23 0 2.24 1 2.24 2.24a2.25 2.25 0 0 1-2.24 2.24 2.237 2.237 0 0 1-2.24-2.24 2.236 2.236 0 0 1 2.24-2.24z" fill="#a83ec3"></path><path d="M28.02 45.77c.13.27.19.57.19.88 0 .94-.58 1.74-1.4 2.08-.26.1-.55.16-.84.16-1.24 0-2.25-1-2.25-2.24s1.01-2.24 2.25-2.24c.64 0 1.23.27 1.64.71l-.43.43s.31.13.84.22z" fill="#8618a0"></path><path d="M26.27 52.34c.41.4.66.96.66 1.58 0 .82-.45 1.52-1.09 1.92h-.01c-.34-.21-.73-.32-1.14-.32-.42 0-.81.11-1.15.32h-.01c-.64-.4-1.09-1.1-1.09-1.92 0-.65.28-1.24.73-1.64.42-.08.81-.27 1.11-.56h.01c.13-.03.25-.04.4-.04.61 0 1.17.25 1.58.66z" fill="#731889"></path><path d="M25.84 55.84c.65.39 1.09 1.1 1.09 1.92a2.245 2.245 0 0 1-4.49 0c0-.82.44-1.53 1.09-1.92h.01c.34-.21.73-.32 1.15-.32.41 0 .8.11 1.14.32zM25.01 50.08c0 .64-.28 1.23-.72 1.64h-.01c-.3.29-.69.48-1.11.56-.13.03-.27.04-.41.04-.69 0-1.32-.32-1.74-.83a2.25 2.25 0 0 0-.11-1.81c.18.05.38.08.57.08 1.06 0 1.95-.74 2.18-1.73.79.34 1.35 1.13 1.35 2.05z" fill="#a83ec3"></path><path d="M23.72 47.52a2.241 2.241 0 0 1-2.24 2.24c-.19 0-.39-.03-.57-.08-.29-.55-.8-.96-1.41-1.12v-.01a2.1 2.1 0 0 1-.26-1.03c0-1.24 1.01-2.24 2.24-2.24 1.24 0 2.24 1 2.24 2.24zM23.53 55.84c-.65.39-1.09 1.1-1.09 1.92 0-.63-.26-1.2-.68-1.59l.01-.01c.42-.4.67-.97.67-1.6 0-1.15-.86-2.1-1.97-2.22l-.01-.01c.25-.23.45-.52.56-.84.42.51 1.05.83 1.74.83.14 0 .28-.01.41-.04-.45.4-.73.99-.73 1.64 0 .82.45 1.52 1.09 1.92z" fill="#8618a0"></path><path d="M20.47 52.34c1.11.12 1.97 1.07 1.97 2.22 0 .63-.25 1.2-.67 1.6l-.01.01c-.4-.41-.95-.65-1.56-.65s-1.16.24-1.56.64a2.227 2.227 0 0 1 .02-3.22c.09.01.17.02.26.02.6 0 1.14-.23 1.54-.63z" fill="#a83ec3"></path><path d="M21.76 56.17c.42.39.68.96.68 1.59 0 1.24-1 2.24-2.24 2.24-1.23 0-2.24-1-2.24-2.24 0-.63.26-1.2.68-1.6.4-.4.95-.64 1.56-.64s1.16.24 1.56.65zM21.16 50.72c0 .27-.05.53-.14.77-.11.32-.31.61-.56.84-.4.4-.94.63-1.54.63-.09 0-.17-.01-.26-.02a2.24 2.24 0 0 1-1.98-2.22c0-.35.08-.69.23-.98a2.228 2.228 0 0 1 2.59-1.18c.61.16 1.12.57 1.41 1.12.16.31.25.66.25 1.04z" fill="#731889"></path><path d="M18.64 56.16c-.42.4-.68.97-.68 1.6 0-.82-.44-1.53-1.09-1.92.65-.39 1.09-1.11 1.09-1.92 0-1-.65-1.85-1.55-2.13.17-.32.27-.68.27-1.07 0 1.14.87 2.1 1.98 2.22a2.227 2.227 0 0 0-.02 3.22z" fill="#8618a0"></path><path d="M17.96 53.92a2.247 2.247 0 0 1-2.24 2.24c-.42 0-.81-.11-1.14-.32h-.01a2.247 2.247 0 0 1-1.09-1.92c0-.39.1-.75.28-1.06.22.06.44.1.68.1.85 0 1.59-.48 1.97-1.17.9.28 1.55 1.13 1.55 2.13z" fill="#731889"></path><path d="M17.96 57.76c0 1.23-1 2.24-2.24 2.24a2.25 2.25 0 0 1-2.24-2.24c0-.82.44-1.52 1.09-1.92h.01c.33.21.72.32 1.14.32s.82-.12 1.15-.32c.65.39 1.09 1.1 1.09 1.92z" fill="#a83ec3"></path><path d="M16.68 50.72c0 .39-.1.75-.27 1.07-.38.69-1.12 1.17-1.97 1.17-.24 0-.46-.04-.68-.1v-.01c-.9-.28-1.56-1.13-1.56-2.13 0-1.24 1-2.24 2.24-2.24s2.24 1 2.24 2.24zM11.24 52.32c1.24 0 2.24 1 2.24 2.24 0 .63-.25 1.2-.68 1.6-.4-.4-.95-.64-1.56-.64s-1.16.24-1.56.64c-.42-.4-.68-.97-.68-1.6 0-1.24 1.01-2.24 2.24-2.24z" fill="#8618a0"></path><path d="M12.8 56.16A2.236 2.236 0 0 1 11.24 60c-.81 0-1.51-.42-1.9-1.06A2.17 2.17 0 0 1 9 57.76c0-.63.26-1.2.68-1.6.4-.4.95-.64 1.56-.64s1.16.24 1.56.64z" fill="#731889"></path><g fill="#c590d1"><ellipse cx="14.16" cy="50.175" fill="#c590d1" rx=".624" ry=".281" transform="rotate(-30 14.157 50.174)"></ellipse><ellipse cx="18.701" cy="50.175" fill="#c590d1" rx=".624" ry=".281" transform="rotate(-30 18.699 50.175)"></ellipse><ellipse cx="10.96" cy="53.975" fill="#c590d1" rx=".624" ry=".281" transform="rotate(-30 10.957 53.974)"></ellipse><ellipse cx="10.96" cy="57.12" fill="#c590d1" rx=".624" ry=".281" transform="rotate(-30 10.958 57.12)"></ellipse><ellipse cx="21.27" cy="46.74" fill="#c590d1" rx=".624" ry=".281" transform="rotate(-30 21.268 46.74)"></ellipse><ellipse cx="25.5" cy="46.249" fill="#c590d1" rx=".624" ry=".281" transform="rotate(-30 25.497 46.25)"></ellipse><ellipse cx="27.55" cy="50.175" fill="#c590d1" rx=".624" ry=".281" transform="rotate(-30 27.547 50.177)"></ellipse><ellipse cx="24.55" cy="53.356" fill="#c590d1" rx=".624" ry=".281" transform="rotate(-30 24.546 53.356)"></ellipse><ellipse cx="19.934" cy="57.12" fill="#c590d1" rx=".624" ry=".281" transform="rotate(-30 19.93 57.12)"></ellipse><ellipse cx="28.915" cy="57.12" fill="#c590d1" rx=".624" ry=".281" transform="rotate(-30 28.912 57.12)"></ellipse></g></g></svg>