<svg id="Capa_1" enable-background="new 0 0 512 512" height="512" viewBox="0 0 512 512" width="512" xmlns="http://www.w3.org/2000/svg"><g><g><path d="m256 512c-5.602 0-10.738-3.122-13.316-8.096l-16.422-31.671c-19.184-36.998-44.619-64.467-80.044-86.445-29.605-18.368-54.353-44.074-71.568-74.34-17.762-31.225-27.15-66.824-27.15-102.948 0-114.968 93.532-208.5 208.5-208.5s208.5 93.532 208.5 208.5c0 36.124-9.389 71.723-27.15 102.948-17.215 30.266-41.963 55.972-71.567 74.34-35.424 21.979-60.859 49.447-80.044 86.446l-16.422 31.67c-2.579 4.974-7.714 8.096-13.317 8.096z" fill="#ff6378"/></g><path d="m256 0v512c5.603 0 10.737-3.122 13.316-8.096l16.422-31.67c19.185-36.999 44.62-64.468 80.044-86.446 29.604-18.368 54.353-44.074 71.567-74.34 17.762-31.226 27.15-66.824 27.15-102.948.001-114.968-93.531-208.5-208.499-208.5z" fill="#ff3b71"/><g><path d="m323.982 316.688c-2.16 0-4.331-.467-6.355-1.414l-61.627-28.838-61.625 28.839c-4.944 2.312-10.757 1.759-15.175-1.451-4.417-3.209-6.742-8.564-6.069-13.983l8.384-67.521-46.471-49.698c-3.729-3.988-4.997-9.688-3.309-14.881 1.687-5.192 6.062-9.058 11.423-10.093l66.808-12.892 32.905-59.554c2.641-4.779 7.669-7.746 13.129-7.746s10.488 2.967 13.129 7.746l32.905 59.554 66.808 12.892c5.361 1.035 9.736 4.9 11.424 10.094 1.688 5.192.42 10.892-3.31 14.88l-46.471 49.698 8.384 67.521c.673 5.419-1.651 10.774-6.069 13.983-2.607 1.895-5.703 2.864-8.818 2.864z" fill="#fd3"/></g><path d="m380.266 167.74c-1.688-5.193-6.062-9.059-11.424-10.094l-66.808-12.892-32.905-59.554c-2.641-4.779-7.669-7.746-13.129-7.746v208.98l61.626 28.839c2.024.947 4.195 1.414 6.355 1.414 3.115 0 6.211-.97 8.818-2.865 4.418-3.209 6.742-8.564 6.069-13.983l-8.384-67.521 46.471-49.698c3.731-3.988 4.998-9.687 3.311-14.88z" fill="#fb3"/></g></svg>