<svg viewBox="0 0 512 512" xmlns="http://www.w3.org/2000/svg"><g><path d="M175 512H75c-8.284 0-15-6.716-15-15v-60a5 5 0 0 1 5-5h120a5 5 0 0 1 5 5v60c0 8.285-6.715 15-15 15z" fill="#e8f2f8"></path><path d="M1.212 300.815 60 438.027h130v-55.59c0-13.408-4.064-26.3-11.755-37.282l-40.374-57.66c-10.511-15.013-30.933-19.776-46.494-10.844a34.53 34.53 0 0 0-11.592 10.896C73.435 276.586 70 263.981 70 251.287v-93.629c0-19.112-15.049-35.195-34.156-35.647C16.161 121.545 0 137.421 0 157v137.907c0 2.031.413 4.041 1.212 5.908z" fill="#ffc8aa"></path><path d="m105.961 363.964-25.828-36.886c-11.069-15.809-7.213-37.676 8.596-48.745l.187-.125 2.462-1.558c15.562-8.932 35.983-4.168 46.494 10.844l43.242 61.756z" fill="#ffc8aa"></path><path d="M93.674 372.568c6.786-4.752 8.435-14.105 3.683-20.891l-17.225-24.599c-8.521-12.17-8.189-27.924-.377-39.584a72.77 72.77 0 0 1-9.658-32.686c-13.412 9.933-22.376 24.385-25.29 40.911-3.018 17.108.801 34.356 10.751 48.567l17.224 24.599c4.753 6.786 14.106 8.435 20.892 3.683z" fill="#fab48f"></path><path d="M322 497v-60a5 5 0 0 1 5-5h120a5 5 0 0 1 5 5v60c0 8.284-6.716 15-15 15H337c-8.284 0-15-6.715-15-15z" fill="#d2e1e6"></path><path d="M510.788 300.815 452 438.027H322v-55.59c0-13.408 4.064-26.3 11.755-37.282l40.374-57.66c10.511-15.013 30.933-19.776 46.494-10.844a34.53 34.53 0 0 1 11.592 10.896c6.351-10.961 9.785-23.565 9.785-36.26v-93.629c0-19.112 15.049-35.195 34.156-35.647C495.839 121.545 512 137.421 512 157v137.907a15 15 0 0 1-1.212 5.908z" fill="#fab48f"></path><path d="m406.039 363.964 25.828-36.886c11.069-15.809 7.213-37.676-8.596-48.745l-.187-.125-2.462-1.558c-15.562-8.932-35.983-4.168-46.494 10.844l-43.242 61.756z" fill="#fab48f"></path><path d="M418.326 372.568c-6.786-4.752-8.435-14.105-3.683-20.891l17.225-24.599c8.521-12.17 8.189-27.924.377-39.584a72.77 72.77 0 0 0 9.658-32.686c13.412 9.933 22.376 24.385 25.29 40.911 3.018 17.108-.801 34.356-10.751 48.567l-17.224 24.599c-4.752 6.786-14.106 8.435-20.892 3.683z" fill="#e69678"></path><path d="m256 15-105 93.333V235c0 8.284 6.716 15 15 15h180c8.284 0 15-6.716 15-15V108.334z" fill="#ffe646"></path><path d="M346 250c8.284 0 15-6.716 15-15V108.334L256 15v235z" fill="#fad21e"></path><path d="M301 250h-90v-95c0-8.284 6.716-15 15-15h60c8.284 0 15 6.716 15 15z" fill="#b47840"></path><path d="M286 140h-30v110h45v-95c0-8.284-6.715-15-15-15z" fill="#915d26"></path><path d="M385.994 145.556a14.945 14.945 0 0 1-9.96-3.789L256 35.07 135.966 141.767c-6.192 5.505-15.674 4.945-21.177-1.246-5.504-6.191-4.946-15.673 1.245-21.176l130-115.556a14.999 14.999 0 0 1 19.932 0l130 115.556c6.191 5.503 6.749 14.985 1.245 21.176a14.964 14.964 0 0 1-11.217 5.035z" fill="#fa7878"></path><path d="M376.034 141.767a14.94 14.94 0 0 0 9.96 3.789c4.136 0 8.254-1.701 11.217-5.035 5.504-6.191 4.946-15.673-1.245-21.176l-130-115.556A14.967 14.967 0 0 0 256 0v35.07z" fill="#f44650"></path></g></svg>