<svg fill-rule="evenodd" viewBox="0 0 64 64" xmlns="http://www.w3.org/2000/svg"><g><path d="M54.021 6.973c0-3.857-3.135-6.984-7.002-6.984H17.012c-3.867 0-7.002 3.127-7.002 6.984v3.99a1 1 0 0 0 1 .998h42.011a1 1 0 0 0 1-.998z" fill="#333333"></path><path d="M52.02 6.973v2.993H12.01V6.973a4.995 4.995 0 0 1 5.002-4.988h30.007a4.995 4.995 0 0 1 5.002 4.988z" fill="#e6e6e6"></path><path d="M43.986 1.243A1 1 0 0 0 43.016 0H21.011a1 1 0 0 0-.97 1.243l.62 2.485A3.002 3.002 0 0 0 23.574 6h16.88a3.002 3.002 0 0 0 2.912-2.272l.621-2.485z" fill="#333333"></path><path d="M3 51h58a3 3 0 0 0 3-3V13a3 3 0 0 0-3-3H3a3 3 0 0 0-3 3v35a3 3 0 0 0 3 3z" fill="#32a64f"></path><path d="m24.73 36.363 12.372 12.372a1 1 0 0 0 1.414-1.413L26.144 34.949a1 1 0 0 0-1.414 1.414z" fill="#023e73"></path><path d="M5.147 36h13.416a1 1 0 0 0 0-2H5.147a1 1 0 0 0 0 2zM5.033 40h15.648a1 1 0 0 0 0-2H5.033a1 1 0 0 0 0 2zM4.861 44h18.996a1 1 0 1 0 0-2H4.861a1 1 0 1 0 0 2zM4.313 18.573l4.245 4.245a1 1 0 0 0 1.414-1.414l-4.245-4.245a1 1 0 0 0-1.414 1.414zM19.138 18.337l2.002 3.744a1 1 0 0 0 1.764-.942l-2.002-3.744a1 1 0 0 0-1.764.942z" fill="#e6e6e6"></path><path d="m8.427 17.07-4.245 4.245a1 1 0 0 0 1.414 1.414l4.245-4.245a1 1 0 0 0-1.414-1.414zM23.27 17.272l-4.244 7.245a1 1 0 1 0 1.725 1.01l4.247-7.245a1 1 0 1 0-1.728-1.01zM13.5 17.455v4.998a1 1 0 0 0 2 0v-4.998a1 1 0 0 0-2 0z" fill="#e6e6e6"></path><path d="M17.045 19h-4.998a1 1 0 0 0 0 2h4.998a1 1 0 0 0 0-2zM31 17h-3a1 1 0 0 0 0 2h3a1 1 0 0 0 0-2zM31 21h-3a1 1 0 0 0 0 2h3a1 1 0 0 0 0-2zM36 18v5a1 1 0 0 0 2 0v-5a1 1 0 0 0-2 0z" fill="#e6e6e6"></path><path d="M35 19h2a1 1 0 0 0 0-2h-2a1 1 0 0 0 0 2z" fill="#e6e6e6"></path><circle cx="416.5" cy="147.5" fill="#e6e6e6" r="3.5" transform="translate(-408 -119)"></circle><path d="M44.685 41.879c.313-.134 8.317-.134 8.63 0C57.245 43.557 60 47.457 60 52v9c0 .796-.316 1.559-.879 2.121A2.996 2.996 0 0 1 57 64H41a2.996 2.996 0 0 1-2.121-.879A2.996 2.996 0 0 1 38 61v-9c0-4.543 2.755-8.443 6.685-10.121z" fill="#ef2f30"></path><circle cx="162.25" cy="173.75" fill="#f2ac57" r="3.15" transform="translate(-141.278 -142.556) scale(1.111)"></circle><path d="M41.035 33.263C41.167 33.746 59 34 59 34a1 1 0 0 0 1-1v-3.4a8.6 8.6 0 0 0-8.6-8.6h-7.687a4.598 4.598 0 0 0-3.655 1.808 4.597 4.597 0 0 0-.783 4.002l1.76 6.453z" fill="#333333"></path><path d="M56.913 30.464A2.465 2.465 0 0 0 54.45 28H43.383a2.462 2.462 0 0 0-2.463 2.464v6.538A7.997 7.997 0 0 0 48.915 45h.002a7.998 7.998 0 0 0 7.996-8v-6.536z" fill="#f2ac57"></path><path d="M56.081 32a1 1 0 0 0-1 1v4a1 1 0 0 0 1 1h1.964a3.035 3.035 0 0 0 3.035-3.036v-.002c0-.786-.312-1.539-.868-2.094A2.956 2.956 0 0 0 58.118 32z" fill="#f2ac57"></path><circle cx="152.5" cy="154.5" fill="#333333" r="1.5" transform="matrix(.667 0 0 .667 -55.667 -69)"></circle><circle cx="152.5" cy="154.5" fill="#333333" r="1.5" transform="matrix(.667 0 0 .667 -51.667 -69)"></circle></g></svg>