<svg viewBox="0 0 512 512" xmlns="http://www.w3.org/2000/svg"><g><path d="m405.835 367.814-99.979-37.492H198.194l-99.978 37.492a49.466 49.466 0 0 0-19.352 13.158l-9.055 14.337a49.46 49.46 0 0 0-3.744 18.899v73.018c0 13.683 11.092 24.774 24.774 24.774h41.29l8.518-5.323 7.998 5.323h272.516c2.895 0 5.675-.493 8.258-1.406l8.566-23.369v-73.018c.001-20.653-12.811-39.141-32.15-46.393z" fill="#845252"></path><path d="m442.19 395.295-9.042-14.314a49.485 49.485 0 0 0-19.362-13.167l-99.979-37.492-5.798 15.463 99.976 37.492c5.304 1.99 9.871 5.297 13.423 9.443l-43.536 43.536c-9.363 9.355-14.516 21.799-14.516 35.041V512h16.516v-40.702c0-8.827 3.435-17.121 9.677-23.359l39.364-39.366c.323 1.843.507 3.723.507 5.632v96.389c9.6-3.413 16.516-12.597 16.516-23.369v-73.018a49.471 49.471 0 0 0-3.746-18.912z" fill="#7a4646"></path><path d="M198.194 302.492h106.001v60.862H198.194z" fill="#e29a6c"></path><path d="M198.194 264.258v38.234c15.042 7.176 31.801 11.314 49.548 11.314h16.516l.37-.001c17.887-.058 32.662 13.799 32.662 31.686v17.863h16.516v-99.097H198.194z" fill="#d48c64"></path><path d="M330.323 24.763C309.62 9.213 283.886 0 256 0c-68.412 0-123.871 55.458-123.871 123.871l-8.256 22.921c-5.063 4.508-8.26 11.046-8.26 18.369 0 13.683 11.092 24.774 24.774 24.774h33.032v33.032H338.58V41.281z" fill="#f4aa73"></path><path d="m388.127 146.792-8.256-22.921c0-40.499-19.48-76.534-49.549-99.108v165.173h41.29c13.683 0 24.774-11.092 24.774-24.774.001-7.324-3.195-13.861-8.259-18.37z" fill="#e29a6c"></path><path d="M206.452 140.387v16.516a8.256 8.256 0 0 0 8.258 8.258 8.256 8.256 0 0 0 8.258-8.258v-16.516zM289.032 140.387v16.516c0 4.56 3.694 8.258 8.258 8.258s8.258-3.698 8.258-8.258v-16.516z" fill="#70393c"></path><path d="M289.032 90.839h-66.065c-4.565 0-8.258-3.698-8.258-8.258s3.694-8.258 8.258-8.258h66.065c4.565 0 8.258 3.698 8.258 8.258s-3.693 8.258-8.258 8.258zM272.516 57.806h-33.032c-4.565 0-8.258-3.698-8.258-8.258s3.694-8.258 8.258-8.258h33.032c4.565 0 8.258 3.698 8.258 8.258s-3.693 8.258-8.258 8.258z" fill="#e29a6c"></path><path d="m287.075 379.871-25.642 22.402a8.258 8.258 0 0 1-10.867 0l-25.642-22.402L256 355.097z" fill="#ffd18d"></path><g fill="#eceaec"><path d="M214.71 115.613h16.516a8.258 8.258 0 0 1 8.258 8.258v8.258c0 9.122-7.395 16.516-16.516 16.516h-24.774a8.258 8.258 0 0 1-8.258-8.258c-.001-13.682 11.091-24.774 24.774-24.774zM297.29 115.613h-16.516a8.258 8.258 0 0 0-8.258 8.258v8.258c0 9.122 7.395 16.516 16.516 16.516h24.774a8.258 8.258 0 0 0 8.258-8.258c.001-13.682-11.091-24.774-24.774-24.774zM330.323 184.753a34.945 34.945 0 0 0-6.582 11.258 15.725 15.725 0 0 1-14.816 10.44H203.077a15.723 15.723 0 0 1-14.816-10.441c-4.675-13.126-16.762-22.591-31.356-22.591a8.258 8.258 0 0 0-8.258 8.258v16.516c0 54.73 44.367 99.097 99.097 99.097l15.837-8.893c60.597-3.692 79.276-40.615 79.276-94.48z" fill="#eceaec"></path></g><path d="M289.032 189.935h-66.065c-14.533 0-26.873 9.385-31.292 22.424-1.771 5.225 2.428 10.608 7.945 10.608h31.605c9.102 0 17.057-4.908 21.364-12.222 1.48-2.514 5.34-2.514 6.821 0 4.307 7.314 12.262 12.222 21.364 12.222h31.605c5.517 0 9.715-5.383 7.945-10.608-4.419-13.039-16.759-22.424-31.292-22.424zM272.516 247.742h-33.032c-4.565 0-8.258-3.698-8.258-8.258s3.694-8.258 8.258-8.258h33.032c4.565 0 8.258 3.698 8.258 8.258s-3.693 8.258-8.258 8.258z" fill="#dbd8db"></path><path d="M140.387 140.387c13.682 0 24.774-11.092 24.774-24.774V50.64c0-5.395-5.109-9.392-10.334-8.046-17.803 4.588-30.957 20.751-30.957 39.987v64.212c4.391-3.955 10.143-6.406 16.517-6.406z" fill="#eceaec"></path><path d="M371.613 140.387c-13.682 0-24.774-11.092-24.774-24.774V50.64c0-5.395 5.109-9.392 10.334-8.046 17.803 4.588 30.957 20.751 30.957 39.987v64.212c-4.391-3.955-10.143-6.406-16.517-6.406z" fill="#dbd8db"></path><path d="M196.059 317.634a8.258 8.258 0 0 0-10.733 1.731l-14.087 16.983a8.258 8.258 0 0 0 .652 11.243l38.037 36.338c7.009 6.696 18.251 5.944 24.306-1.625L256 355.097zM315.941 317.634a8.258 8.258 0 0 1 10.733 1.731l14.087 16.983a8.258 8.258 0 0 1-.652 11.243l-38.037 36.338c-7.009 6.696-18.25 5.944-24.306-1.625L256 355.097z" fill="#ffe09c"></path><path d="m122.452 447.94-52.643-52.63a49.527 49.527 0 0 1 9.055-14.337l55.265 55.286c9.363 9.355 14.516 21.798 14.516 35.04V512h-16.516v-40.702c0-8.826-3.435-17.121-9.677-23.358z" fill="#7a4646"></path><path d="m433.147 380.982-11.74 11.74c3.837 4.482 6.471 9.945 7.505 15.852l13.278-13.278a49.377 49.377 0 0 0-9.043-14.314z" fill="#70393c"></path><path d="M355.097 173.419c-9.974 0-18.708 4.345-24.774 11.334v29.957c0 36.486-29.578 66.065-66.065 66.065-9.121 0-16.516 7.394-16.516 16.516h16.516c54.73 0 99.097-44.367 99.097-99.097v-16.516a8.258 8.258 0 0 0-8.258-8.259z" fill="#dbd8db"></path></g></svg>