<svg id="Layer_3" height="512" viewBox="0 0 64 64" width="512" xmlns="http://www.w3.org/2000/svg" data-name="Layer 3"><path d="m54 48h-2v-19a3 3 0 0 0 -3-3h-3v-2h3a5 5 0 0 1 5 5z" fill="#ccc"/><path d="m50 54v-13.081a6 6 0 0 0 -4.823-5.884l-10.177-2.035-5-2h-6l-5 2-10.177 2.035a6 6 0 0 0 -4.823 5.884v13.081z" fill="#3b5892"/><path d="m35 47v-5h-16v5h10l2-2h2z" fill="#ccc"/><path d="m27 47h2l2-2h2l2 2h2a2 2 0 0 1 2 2v5h-12z" fill="#fadfb2"/><path d="m35 16h2l1.954-3.42a3.123 3.123 0 0 0 -1.954-4.58 6.826 6.826 0 0 0 2-4.828v-1.172a18.949 18.949 0 0 1 -8.472 2h-5.869a15.5 15.5 0 0 0 -6.931 1.636 4.935 4.935 0 0 0 -2.728 4.414 4.938 4.938 0 0 0 .353 1.832l1.647 4.118h2v-2a2 2 0 0 1 2-2h12a2 2 0 0 1 2 2z" fill="#976947"/><path d="m21 12h12a2 2 0 0 1 2 2v10a4 4 0 0 1 -4 4h-8a4 4 0 0 1 -4-4v-10a2 2 0 0 1 2-2z" fill="#fadfb2"/><path d="m19 16h-2a2 2 0 0 0 -2 2 2 2 0 0 0 2 2h2" fill="#f5cf88"/><path d="m35 16h2a2 2 0 0 1 2 2 2 2 0 0 1 -2 2h-2" fill="#f5cf88"/><path d="m26 33h2v9h-2z" fill="#172e50"/><path d="m23.5 19a1.5 1.5 0 1 1 1.5-1.5 1.5 1.5 0 0 1 -1.5 1.5z" fill="#2a2a2a"/><path d="m30.5 19a1.5 1.5 0 1 1 1.5-1.5 1.5 1.5 0 0 1 -1.5 1.5z" fill="#2a2a2a"/><path d="m25 23h4v2h-4z" fill="#f5cf88"/><path d="m24 28v3l3 2 3-2v-3" fill="#f5cf88"/><path d="m24 31-5 2 4 5 4-5" fill="#213d68"/><path d="m30 31 5 2-4 5-4-5" fill="#213d68"/><path d="m2 54h60v8h-60z" fill="#674025"/><path d="m2 54h60v4h-60z" fill="#976947"/><path d="m28 54h-2v-6h-12a1 1 0 0 1 -1-1v-5h2v4h12a1 1 0 0 1 1 1z" fill="#172e50"/><path d="m47 54v-2a4 4 0 0 1 4-4h4a4 4 0 0 1 4 4v2" fill="#939393"/><rect fill="#474747" height="4" rx="2" width="8" x="39" y="23"/><path d="m45 23h-4a2 2 0 0 0 0 4h1.415a6.077 6.077 0 0 0 2.641-3.994c-.019-.001-.037-.006-.056-.006z" fill="#686868"/></svg>