<svg viewBox="0 0 60 60" xmlns="http://www.w3.org/2000/svg"><g><path d="M10 16a5 5 0 0 0-5 5v24a5 5 0 0 0 5 5h3a1 1 0 0 1 1 1v7.03a.978.978 0 0 0 1.57.77l11.16-8.592a1 1 0 0 1 .61-.208H50a5 5 0 0 0 5-5V21a5 5 0 0 0-5-5z" fill="#ccd0da"></path><path d="M34.029 3.217 48.256 25.7a4.757 4.757 0 0 1-4.029 7.3H15.773a4.757 4.757 0 0 1-4.029-7.3L25.971 3.217a4.769 4.769 0 0 1 8.058 0z" fill="#d84557"></path><circle cx="30" cy="27" fill="#f0f2f5" r="2"></circle><path d="M30 21a2.17 2.17 0 0 1-2.163-1.99l-.585-7.021A2.76 2.76 0 0 1 30 9a2.76 2.76 0 0 1 2.751 2.989l-.585 7.021A2.17 2.17 0 0 1 30 21z" fill="#f0f2f5"></path><g fill="#8991a0"><path d="M15 39h-3a1 1 0 0 1 0-2h3a1 1 0 0 1 0 2zM39 44h-3a1 1 0 0 1 0-2h3a1 1 0 0 1 0 2zM43 39H19a1 1 0 0 1 0-2h24a1 1 0 0 1 0 2zM32 44H12a1 1 0 0 1 0-2h20a1 1 0 0 1 0 2zM48 39h-1a1 1 0 0 1 0-2h1a1 1 0 0 1 0 2z" fill="#8991a0"></path></g></g></svg>