<svg viewBox="0 0 64 64" xmlns="http://www.w3.org/2000/svg"><g><g fill="#78b75b"><path d="M50 19v-5h3l-5-8-5 8h3v5M46 45v5h-3l5 8 5-8h-3v-5M27 39h2a2 2 0 0 0 2-2V22a4 4 0 0 0-4-4H15a4 4 0 0 0-4 4v15a2 2 0 0 0 2 2h2" fill="#78b75b"></path></g><path d="M18 18v1a3 3 0 1 0 6 0v-1M15 39h-2a2 2 0 0 1-2-2v-2h4zM29 39h-2v-4h4v2a2 2 0 0 1-2 2z" fill="#efbe9a"></path><path d="M15 35h12v23H15z" fill="#4d5d7a"></path><path d="M21 58h-6a2 2 0 0 0-2 2v2h8zM21 58h6a2 2 0 0 1 2 2v2h-8z" fill="#78b75b"></path><path d="M17 10h-3a2 2 0 1 0 0 4h3M25 10h3a2 2 0 1 1 0 4h-3" fill="#db9b7c"></path><path d="M26 6v7a5 5 0 0 1-10 0V6" fill="#efbe9a"></path><path d="M24 6c0 2.209-3.791 4-6 4h-4V6a4 4 0 0 1 4-4h6a4 4 0 0 1 4 4v4a4 4 0 0 1-4-4z" fill="#976947"></path><path d="M20 40h2v18h-2z" fill="#8892a0"></path><path d="M42 3V1H32v2h2v58h-2v2h10v-2h-6v-2h4v-2h-4v-2h4v-2h-4v-2h4v-2h-4v-2h4v-2h-4v-2h4v-2h-4v-2h4v-2h-4v-2h4v-2h-4v-2h4v-2h-4v-2h4v-2h-4v-2h4v-2h-4v-2h4v-2h-4v-2h4v-2h-4v-2h4V9h-4V7h4V5h-4V3z" fill="#4472b2"></path><path d="M45 21h2v2h-2zM45 25h2v2h-2zM45 29h2v2h-2zM49 21h2v2h-2zM49 25h2v2h-2zM49 29h2v2h-2zM49 41h2v2h-2zM49 37h2v2h-2zM49 33h2v2h-2zM45 41h2v2h-2zM45 37h2v2h-2zM45 33h2v2h-2z" fill="#96cc7f"></path></g></svg>