<svg height="512" viewBox="0 0 512 512" width="512" xmlns="http://www.w3.org/2000/svg"><g id="Flat"><rect fill="#379ec3" height="464" rx="16" width="256" x="128" y="24.002"/><path d="m152 464.002v-416h48.125a24 24 0 0 0 24 24h64a24 24 0 0 0 24-24h47.875v416z" fill="#8acce7"/><path d="m240 40.002h32v16h-32z" fill="#2d80b3"/><circle cx="288" cy="48.002" fill="#2d80b3" r="8"/><path d="m128 56.002h24v16h-24z" fill="#2d80b3"/><path d="m360 56.002h24v16h-24z" fill="#2d80b3"/><path d="m128 440.002h24v16h-24z" fill="#2d80b3"/><path d="m360 440.002h24v16h-24z" fill="#2d80b3"/><circle cx="400" cy="176" fill="#c4d4e0" r="72"/><circle cx="400" cy="176" fill="#e44042" r="24"/><path d="m400 208a32 32 0 1 1 32-32 32.03635 32.03635 0 0 1 -32 32zm0-48a16 16 0 1 0 16 16 16.01833 16.01833 0 0 0 -16-16z" fill="#2f4054"/><path d="m400 232a56 56 0 1 1 56-56 56.06322 56.06322 0 0 1 -56 56zm0-96a40 40 0 1 0 40 40 40.04552 40.04552 0 0 0 -40-40z" fill="#2f4054"/><path d="m400 256a80 80 0 1 1 80-80 80.09041 80.09041 0 0 1 -80 80zm0-144a64 64 0 1 0 64 64 64.07239 64.07239 0 0 0 -64-64z" fill="#2f4054"/><path d="m400 184h-128v-16h128a8 8 0 0 1 8 8 8 8 0 0 1 -8 8z" fill="#eebe33"/><path d="m216 152h56l24 24-24 24h-56l24-24z" fill="#e44042"/><path d="m104 232h192v112h-192z" fill="#eedc9a"/><g fill="#eebe33"><path d="m144 256h32v16h-32z"/><path d="m192 256h48v16h-48z"/><path d="m256 256h16v16h-16z"/><path d="m128 280h64v16h-64z"/><path d="m208 280h64v16h-64z"/><path d="m128 304h32v16h-32z"/><path d="m176 304h48v16h-48z"/><path d="m240 304h32v16h-32z"/></g><path d="m296 368-32 48-64 32h-64l-24 24-32-40 40-40h40a54.63521 54.63521 0 0 1 38.62988-16h17.37012l-32 32h24l40-16a53.90307 53.90307 0 0 1 44.84009-24z" fill="#f4ceaf"/><path d="m206.62 408-27.31 27.31-11.31-11.31 16-16z" fill="#f2c194"/><path d="m16 472 64-64 64 64-24 24h-104z" fill="#2f4054"/></g></svg>