<svg viewBox="0 0 511.999 511.999" xmlns="http://www.w3.org/2000/svg"><g><path d="M195.406 360.866C79.064 562.377-97.824 255.999 134.86 255.999c-232.684 0-55.797-306.378 60.546-104.867-116.342-201.51 237.432-201.51 121.09 0 116.342-201.511 293.23 104.867 60.546 104.867 232.684 0 55.796 306.378-60.546 104.867 116.342 201.511-237.432 201.511-121.09 0z" fill="#ff728b"></path><path d="m377.042 255.852-117.999-1.587.059-.098-.095.002 57.49-103.036c116.342-201.51-237.432-201.51-121.09 0l57.499 103.051-.111-.001.059.098-117.991 2.122c-232.682.772-54.78 306.56 60.892 104.666l60.151-101.507.046.083.054-.097 60.619 101.246c116.585 201.368 293.1-105.224 60.417-104.942z" fill="#ff3f62"></path><path d="M255.952 414.824a7.837 7.837 0 0 0-7.837 7.837v32.914a7.837 7.837 0 0 0 15.674 0V422.66a7.837 7.837 0 0 0-7.837-7.836zM131.527 162.764l20.179 16.748a7.802 7.802 0 0 0 5.001 1.807 7.816 7.816 0 0 0 6.034-2.832 7.835 7.835 0 0 0-1.025-11.035l-20.179-16.748a7.837 7.837 0 0 0-10.01 12.06zM119.277 321.194 90.309 336.88a7.837 7.837 0 0 0 7.462 13.782l28.968-15.686a7.838 7.838 0 0 0 3.16-10.623 7.835 7.835 0 0 0-10.622-3.159zM397.051 371.146l-20.883-18.62a7.836 7.836 0 0 0-11.064.634 7.836 7.836 0 0 0 .634 11.064l20.883 18.62a7.806 7.806 0 0 0 5.213 1.987 7.836 7.836 0 0 0 5.217-13.685z" fill="#ff0c38"></path><path d="m394.453 296.677-120.48-42.674 122.047-77.06a7.838 7.838 0 0 0-8.368-13.254L263.97 241.782V124.865a7.837 7.837 0 0 0-15.674 0v114.447l-66.245-54.981a7.835 7.835 0 0 0-11.035 1.025 7.836 7.836 0 0 0 1.025 11.035l44.864 37.236-106.29-38.07a7.839 7.839 0 0 0-10.02 4.735 7.836 7.836 0 0 0 4.735 10.02l131.645 47.151-83.995 45.482a7.837 7.837 0 0 0 7.462 13.782l87.628-47.45.043 120.473a7.837 7.837 0 0 0 7.837 7.834h.002a7.837 7.837 0 0 0 7.835-7.839l-.042-116.456 81.852 72.981a7.806 7.806 0 0 0 5.213 1.987 7.836 7.836 0 0 0 5.219-13.686l-64.889-57.857 98.08 34.74a7.832 7.832 0 0 0 10.003-4.771 7.838 7.838 0 0 0-4.77-10.006zM256.133 96.13a7.837 7.837 0 0 0 7.837-7.837V55.196a7.837 7.837 0 0 0-15.674 0v33.097a7.838 7.838 0 0 0 7.837 7.837z" fill="#ff0c38"></path><circle cx="256.136" cy="255.999" fill="#ffeb99" r="61.127"></circle><path d="M225.993 255.999c0-28.406 19.378-52.28 45.633-59.14a61.169 61.169 0 0 0-15.494-1.986c-33.76 0-61.127 27.367-61.127 61.127s27.367 61.127 61.127 61.127c5.354 0 10.545-.693 15.494-1.986-26.255-6.861-45.633-30.736-45.633-59.142z" fill="#ffda44"></path></g></svg>