<svg viewBox="0 0 512 512" xmlns="http://www.w3.org/2000/svg"><g><path d="M512 256c0 141.385-114.615 256-256 256S0 397.385 0 256 114.615 0 256 0s256 114.615 256 256z" fill="#19305c"></path><path d="M464.873 235.897c8.201 12.361 12.979 27.191 12.979 43.137 0 37.336-26.19 68.555-61.2 76.289a78.29 78.29 0 0 1 2.334 19.032c0 43.149-34.979 78.128-78.127 78.128-11.607 0-22.623-2.531-32.526-7.072-14.03 20.849-37.845 34.564-64.864 34.564-28.129 0-52.786-14.866-66.544-37.169-32.38 1.56-60.801-7.071-80.73-27-19.263-19.263-27.97-46.459-27.123-77.496-20.365-9.226-34.532-29.73-34.532-53.542 0-16.611 6.894-31.612 17.977-42.298-5.98-11.047-9.376-23.697-9.376-37.142 0-43.148 34.979-78.127 78.128-78.127a78.06 78.06 0 0 1 24.035 3.767 78.717 78.717 0 0 1-.799-11.215c0-43.149 34.979-78.127 78.128-78.127 27.651 0 51.947 14.364 65.833 36.038 51.137-15.569 98.273-10.539 127.343 18.531 6.312 6.312 11.491 13.477 15.571 21.349 28.456 11.672 48.497 39.652 48.497 72.313-.003 17.214-5.571 33.129-15.004 46.04z" fill="#2b3894"></path><path d="M363.898 363.898c-68.193 68.192-171.781 75.166-231.371 15.576S79.91 216.295 148.102 148.102c68.193-68.192 171.781-75.166 231.371-15.576s52.617 163.179-15.575 231.372zM182.96 66.335a30.943 30.943 0 0 0-9.792 9.792 1.173 1.173 0 0 1-1.987 0 30.933 30.933 0 0 0-9.792-9.792 1.173 1.173 0 0 1 0-1.987 30.933 30.933 0 0 0 9.792-9.792 1.173 1.173 0 0 1 1.987 0 30.933 30.933 0 0 0 9.792 9.792c.733.46.733 1.528 0 1.987zm-76.05 345.327a30.933 30.933 0 0 1-9.792-9.792 1.173 1.173 0 0 0-1.987 0 30.933 30.933 0 0 1-9.792 9.792 1.173 1.173 0 0 0 0 1.987 30.933 30.933 0 0 1 9.792 9.792 1.173 1.173 0 0 0 1.987 0 30.933 30.933 0 0 1 9.792-9.792 1.172 1.172 0 0 0 0-1.987zm0-278.226a30.933 30.933 0 0 1-9.792-9.792 1.173 1.173 0 0 0-1.987 0 30.933 30.933 0 0 1-9.792 9.792 1.173 1.173 0 0 0 0 1.987 30.933 30.933 0 0 1 9.792 9.792 1.173 1.173 0 0 0 1.987 0 30.933 30.933 0 0 1 9.792-9.792 1.172 1.172 0 0 0 0-1.987zm337.532-18.094a30.933 30.933 0 0 1-9.792-9.792 1.173 1.173 0 0 0-1.987 0 30.933 30.933 0 0 1-9.792 9.792 1.173 1.173 0 0 0 0 1.987 30.933 30.933 0 0 1 9.792 9.792 1.173 1.173 0 0 0 1.987 0 30.933 30.933 0 0 1 9.792-9.792 1.172 1.172 0 0 0 0-1.987zm-78.986 304.123a30.943 30.943 0 0 1-9.792-9.792 1.173 1.173 0 0 0-1.987 0 30.933 30.933 0 0 1-9.792 9.792 1.173 1.173 0 0 0 0 1.987 30.933 30.933 0 0 1 9.792 9.792 1.173 1.173 0 0 0 1.987 0 30.933 30.933 0 0 1 9.792-9.792 1.173 1.173 0 0 0 0-1.987z" fill="#3342ae"></path><path d="M452.464 303.609a7.5 7.5 0 1 1-14.956-1.144c2.866-37.459-10.473-72.486-34.093-98.176 7.442 18.757 4.344 39.974-9.741 54.059-7.602 7.602-17.28 12.003-27.529 13.274 1.836 26.541-3.688 53.13-16.346 77.26-18.029 34.367-48.388 59.665-85.486 71.234a7.5 7.5 0 1 1-4.466-14.32c38.257-11.93 67.126-39.97 81.479-74.34-.85.951-1.73 1.884-2.642 2.795-19.595 19.595-48.554 24.764-74.992 16.059a7.464 7.464 0 0 1-1.323 1.479c-29.495 25.302-67.049 37.605-105.746 34.645-38.696-2.962-73.94-20.835-99.242-50.33a7.5 7.5 0 1 1 11.385-9.766c34.817 40.586 89.365 54.473 137.483 39.661-13.445.167-25.618-2.759-35.54-9.019-30.1-12.413-54.982-34.408-71.123-63.212-18.971-33.856-23.615-73.1-13.076-110.504a7.5 7.5 0 0 1 14.438 4.068c-11.675 41.436-1.859 83.933 22.755 115.547-6.26-18.14-2.846-38.157 10.637-51.64 5.826-5.826 12.872-9.771 20.459-11.869-3.386-28.583 1.81-57.5 15.319-83.601 17.84-34.465 48.06-59.929 85.095-71.701a7.5 7.5 0 1 1 4.543 14.295c-43.971 13.976-75.381 49.239-86.485 90.82a67.661 67.661 0 0 1 7.344-8.693c16.149-16.149 38.658-22.5 60.874-19.361 21.318-20.173 48.208-33.379 77.808-37.886 38.367-5.84 76.734 3.625 108.035 26.655a7.5 7.5 0 0 1-8.89 12.082c-38.925-28.638-88.633-32.4-129.978-14.199 13.33-2.5 25.91-2.408 36.953.467 36.054 4.431 68.678 21.877 92.457 49.597 25.272 29.457 37.555 67.017 34.59 105.764z" fill="#865cb2"></path><path d="M348.992 252.78c0 19.566-15.861 35.428-35.427 35.428-.811 0-1.615-.028-2.413-.082.609 2.602.931 5.314.931 8.102 0 19.566-15.862 35.428-35.428 35.428a35.277 35.277 0 0 1-22.269-7.873c-30.833 18.533-60.235 22.922-74.663 8.494-9.87-9.87-10.934-26.749-4.688-46.299-6.486-6.421-10.504-15.33-10.504-25.177 0-18.667 14.436-33.961 32.753-35.328a35.675 35.675 0 0 1-.336-4.9c0-19.566 15.862-35.428 35.428-35.428a35.26 35.26 0 0 1 20.125 6.268c32.656-21.187 64.552-26.913 79.776-11.688 9.891 9.891 10.938 26.819 4.648 46.422 7.397 6.492 12.067 16.017 12.067 26.633z" fill="#ff50b5"></path><path d="M282.038 282.038c-29.532 29.533-65.131 41.816-79.511 27.436s-2.097-49.979 27.436-79.511c29.532-29.533 65.131-41.816 79.511-27.436s2.096 49.978-27.436 79.511z" fill="#ff3c7d"></path><path d="M271.948 271.948c-24.148 24.147-50.863 36.583-59.671 27.775s3.627-35.523 27.775-59.671c24.148-24.147 50.863-36.583 59.671-27.775 8.808 8.807-3.627 35.523-27.775 59.671z" fill="#ffcd71"></path><path d="M271.948 271.948c-16.458 16.458-34.109 27.475-46.47 30.034-.504-12.132 11.309-33.05 30.59-52.33 16.458-16.458 34.109-27.475 46.47-30.034.504 12.132-11.309 33.049-30.59 52.33z" fill="#fff68e"></path><path d="M380.471 96.718a41.486 41.486 0 0 0-13.133 13.133 1.573 1.573 0 0 1-2.665 0 41.486 41.486 0 0 0-13.133-13.133 1.573 1.573 0 0 1 0-2.665 41.497 41.497 0 0 0 13.133-13.133 1.573 1.573 0 0 1 2.665 0 41.497 41.497 0 0 0 13.133 13.133 1.572 1.572 0 0 1 0 2.665zm43.198 208.346a41.486 41.486 0 0 1-13.133-13.133 1.573 1.573 0 0 0-2.665 0 41.486 41.486 0 0 1-13.133 13.133 1.573 1.573 0 0 0 0 2.665 41.497 41.497 0 0 1 13.133 13.133 1.573 1.573 0 0 0 2.665 0 41.497 41.497 0 0 1 13.133-13.133 1.573 1.573 0 0 0 0-2.665z" fill="#ffb52d"></path><path d="M381.167 220.611a30.943 30.943 0 0 0-9.792 9.792 1.173 1.173 0 0 1-1.987 0 30.933 30.933 0 0 0-9.792-9.792 1.173 1.173 0 0 1 0-1.987 30.933 30.933 0 0 0 9.792-9.792 1.173 1.173 0 0 1 1.987 0 30.933 30.933 0 0 0 9.792 9.792c.733.46.733 1.528 0 1.987zM53.463 251.447a41.486 41.486 0 0 1-13.133-13.133 1.573 1.573 0 0 0-2.665 0 41.486 41.486 0 0 1-13.133 13.133 1.573 1.573 0 0 0 0 2.665 41.486 41.486 0 0 1 13.133 13.133 1.573 1.573 0 0 0 2.665 0 41.486 41.486 0 0 1 13.133-13.133 1.573 1.573 0 0 0 0-2.665z" fill="#ffcd71"></path><path d="M56.13 130.173a49.139 49.139 0 0 0-15.555 15.555 1.862 1.862 0 0 1-3.156 0 49.146 49.146 0 0 0-15.554-15.555 1.862 1.862 0 0 1 0-3.156 49.133 49.133 0 0 0 15.554-15.554 1.862 1.862 0 0 1 3.156 0 49.136 49.136 0 0 0 15.555 15.554 1.863 1.863 0 0 1 0 3.156zm272.516-88.745a49.136 49.136 0 0 1-15.554-15.555 1.862 1.862 0 0 0-3.156 0 49.15 49.15 0 0 1-15.555 15.555 1.862 1.862 0 0 0 0 3.156 49.139 49.139 0 0 1 15.555 15.555 1.862 1.862 0 0 0 3.156 0 49.156 49.156 0 0 1 15.554-15.555 1.863 1.863 0 0 0 0-3.156zm-68.045 421.756a49.143 49.143 0 0 1-15.554-15.554 1.862 1.862 0 0 0-3.156 0 49.146 49.146 0 0 1-15.555 15.554 1.862 1.862 0 0 0 0 3.156 49.146 49.146 0 0 1 15.555 15.554 1.862 1.862 0 0 0 3.156 0 49.153 49.153 0 0 1 15.554-15.554 1.863 1.863 0 0 0 0-3.156zm-34.784-271.39a30.933 30.933 0 0 1-9.792-9.792 1.173 1.173 0 0 0-1.987 0 30.933 30.933 0 0 1-9.792 9.792 1.173 1.173 0 0 0 0 1.987 30.933 30.933 0 0 1 9.792 9.792 1.173 1.173 0 0 0 1.987 0 30.933 30.933 0 0 1 9.792-9.792 1.173 1.173 0 0 0 0-1.987zm262.82 11.336a30.933 30.933 0 0 1-9.792-9.792 1.173 1.173 0 0 0-1.987 0 30.933 30.933 0 0 1-9.792 9.792 1.173 1.173 0 0 0 0 1.987 30.933 30.933 0 0 1 9.792 9.792 1.173 1.173 0 0 0 1.987 0 30.933 30.933 0 0 1 9.792-9.792 1.173 1.173 0 0 0 0-1.987z" fill="#fff68e"></path><path d="M125.324 85.043a30.943 30.943 0 0 0-9.792 9.792 1.173 1.173 0 0 1-1.987 0 30.933 30.933 0 0 0-9.792-9.792 1.173 1.173 0 0 1 0-1.987 30.933 30.933 0 0 0 9.792-9.792 1.173 1.173 0 0 1 1.987 0 30.933 30.933 0 0 0 9.792 9.792c.734.46.734 1.528 0 1.987zm96.757 327.33a30.933 30.933 0 0 1-9.792-9.792 1.173 1.173 0 0 0-1.987 0 30.933 30.933 0 0 1-9.792 9.792 1.173 1.173 0 0 0 0 1.987 30.933 30.933 0 0 1 9.792 9.792 1.173 1.173 0 0 0 1.987 0 30.933 30.933 0 0 1 9.792-9.792 1.173 1.173 0 0 0 0-1.987zm239.503-36.695a30.943 30.943 0 0 1-9.792-9.792 1.173 1.173 0 0 0-1.987 0 30.933 30.933 0 0 1-9.792 9.792 1.173 1.173 0 0 0 0 1.987 30.933 30.933 0 0 1 9.792 9.792 1.173 1.173 0 0 0 1.987 0 30.933 30.933 0 0 1 9.792-9.792 1.173 1.173 0 0 0 0-1.987z" fill="#cc59a8"></path></g></svg>