<svg viewBox="0 0 512 512" xmlns="http://www.w3.org/2000/svg"><g><path d="M512 256c0 45.197-11.713 87.659-32.269 124.515-31.221 24.073-59.958 13.291-90.661 35.282-23.398 16.759-36.936 65.525-62.261 86.284C304.321 508.54 280.565 512 256 512c-24.566 0-48.323-3.46-70.812-9.92-38.65-11.102-43.674-80.799-72.489-107.28-20.067-18.442-67.058 9.691-80.431-14.285C11.713 343.659 0 301.197 0 256 0 114.615 114.615 0 256 0s256 114.615 256 256z" fill="#95d6a4"></path><path d="M269.625 470.992h92.186l58.417-51.67H269.625z" fill="#da4a54"></path><path d="M185.19 374.004v128.07c-6.44-1.84-12.77-3.94-18.98-6.27a254.494 254.494 0 0 1-43.29-21.08 254.527 254.527 0 0 1-28.39-20.08 256.932 256.932 0 0 1-62.26-74.13v-6.51c0-21.11 8.56-40.22 22.39-54.06 13.84-13.83 32.96-22.39 54.07-22.39 42.23 0 76.46 34.23 76.46 76.45z" fill="#e49542"></path><circle cx="108.73" cy="340.088" fill="#665e66" r="16.373"></circle><path d="M122.93 365.844v108.68c0 .07 0 .13-.01.2a254.527 254.527 0 0 1-28.39-20.08v-88.8c0-7.84 6.36-14.2 14.2-14.2 3.92 0 7.47 1.59 10.04 4.16s4.16 6.12 4.16 10.04z" fill="#665e66"></path><path d="m142.719 419.322-61.674-61.674c-10.089-10.089-26.447-10.089-36.537 0-10.089 10.089-10.089 26.447 0 36.537l68.509 68.509a28.332 28.332 0 0 0 20.035 8.299h84.084v-51.67h-74.417z" fill="#e49542"></path><path d="M217.143 451.332v19.66h-84.09a28.33 28.33 0 0 1-20.03-8.29l-68.51-68.51a25.793 25.793 0 0 1-7.57-18.27c0-5.39 1.68-10.77 5.03-15.32.86 5.1 3.27 9.99 7.2 13.93l68.51 68.51a28.33 28.33 0 0 0 20.03 8.29z" fill="#d77350"></path><path d="M124.29 299.144c-14.88 3.07-28.18 10.46-38.52 20.8-13.83 13.84-22.39 32.95-22.39 54.06v50.61a256.476 256.476 0 0 1-31.11-44.1v-6.51c0-21.11 8.56-40.22 22.39-54.06 13.84-13.83 32.96-22.39 54.07-22.39 5.33 0 10.53.55 15.56 1.59z" fill="#d77350"></path><path d="m135.155 300.384-26.422-26.422-39.461 39.461c-7.296 7.296-7.296 19.126 0 26.422 7.296 7.296 19.126 7.296 26.422 0z" fill="#e7a561"></path><path d="m108.733 273.962-26.422 26.422 39.461 39.461c7.296 7.296 19.126 7.296 26.422 0 7.296-7.296 7.296-19.126 0-26.422z" fill="#e7a561"></path><path d="M135.204 256.83v47.452c0 14.62-11.861 26.481-26.471 26.481-3.592 0-7.014-.713-10.135-2.007-9.593-3.984-16.346-13.436-16.346-24.474V256.83z" fill="#ffddce"></path><path d="M98.597 287.472v41.28c-9.591-3.98-16.341-13.436-16.341-24.465V274.78z" fill="#ffcbbe"></path><path d="M189.683 261.145 49.635 231.804c-22.348-4.682-36.669-26.594-31.987-48.942 2.928-13.975 16.63-22.93 30.605-20.002l170.37 35.694c13.975 2.928 22.93 16.63 20.002 30.605-4.682 22.347-26.594 36.668-48.942 31.986z" fill="#ffddce"></path><path d="M52.493 218.162c-14.79-3.099-24.302-17.652-21.203-32.442 1.347-6.43 7.675-10.566 14.105-9.219l170.37 35.694c6.43 1.347 10.566 7.675 9.219 14.105-3.099 14.79-17.652 24.302-32.442 21.203z" fill="#ffcbbe"></path><path d="M148.993 106.459c-43.328-9.078-84.787 13.797-93.865 57.126l-9.399 44.862c-9.078 43.328 18.688 85.812 62.017 94.889 43.328 9.078 85.812-18.688 94.889-62.017l9.399-44.862c9.078-43.328-19.712-80.921-63.041-89.998z" fill="#ffddce"></path><path d="M128.572 304.937a80.215 80.215 0 0 1-20.826-1.601c-43.333-9.078-71.095-51.557-62.017-94.889l12.089-57.704c9.077-43.326 49.678-62.126 93.01-53.048 7.012 1.469 15.491-5.156 21.596-2.075-35.376 1.916-66.462 27.302-74.07 63.616L86.265 216.94c-7.609 36.32 10.674 72.049 42.307 87.997z" fill="#ffcbbe"></path><path d="M133.457 231.248a8.31 8.31 0 0 1-6.429-9.836l16.106-76.878 16.265 3.408-16.106 76.878a8.31 8.31 0 0 1-9.836 6.428z" fill="#ffcbbe"></path><path d="M221.97 80.678 156.782 67.02c-20.49-4.293-40.58 8.838-44.873 29.328l-1.619 7.726c-4.293 20.49 8.838 40.58 29.328 44.873l65.188 13.657c20.49 4.293 40.58-8.838 44.873-29.328l1.619-7.726c4.292-20.489-8.838-40.579-29.328-44.872z" fill="#665e66"></path><path d="m90.093 103.594-21.455-4.495-13.51 64.485c11.849 2.482 23.467-5.111 25.95-16.96z" fill="#454045"></path><path d="m204.09 127.477 21.455 4.495-13.51 64.485c-11.849-2.482-19.442-14.101-16.96-25.95z" fill="#665e66"></path><path d="M95.534 54.189c-16.59-3.476-32.857 7.156-36.333 23.746l-4.577 21.848c-3.476 16.59 7.156 32.857 23.746 36.333 16.59 3.476 32.857-7.156 36.333-23.746l4.577-21.848c3.476-16.591-7.155-32.858-23.746-36.333z" fill="#454045"></path><circle cx="112.842" cy="179.282" fill="#f9f6f9" r="21.242"></circle><path d="M113.844 200.504a21.348 21.348 0 0 1-5.359-.434C97 197.663 89.646 186.41 92.052 174.926s13.659-18.839 25.143-16.433c1.805.378 3.5.973 5.083 1.753-9.448.434-17.768 7.178-19.798 16.864-2.029 9.687 2.885 19.204 11.364 23.394z" fill="#dddaec"></path><circle cx="172.651" cy="191.812" fill="#f9f6f9" r="21.242"></circle><path d="M173.653 213.034a21.348 21.348 0 0 1-5.359-.434c-11.484-2.406-18.839-13.659-16.433-25.143s13.659-18.839 25.143-16.433c1.805.378 3.5.973 5.083 1.753-9.448.434-17.768 7.178-19.798 16.864-2.029 9.686 2.884 19.203 11.364 23.393z" fill="#dddaec"></path><g fill="#454045"><circle cx="119.347" cy="178.54" fill="#454045" r="8.482"></circle><circle cx="177.309" cy="190.683" fill="#454045" r="8.482"></circle></g><path d="M152.682 253.064c-15.203 9.936-35.655 5.651-45.591-9.552a7.316 7.316 0 0 1 12.246-8.004c5.523 8.45 16.891 10.832 25.34 5.309a7.315 7.315 0 0 1 10.125 2.121 7.314 7.314 0 0 1-2.12 10.126z" fill="#f9f6f9"></path><path d="M479.73 369.304v11.21a257.145 257.145 0 0 1-62.26 74.15 256.35 256.35 0 0 1-28.4 20.08 254.512 254.512 0 0 1-62.26 27.34v-132.78c0-21.11 8.56-40.22 22.39-54.06 13.84-13.83 32.96-22.39 54.07-22.39 42.23 0 76.46 34.23 76.46 76.45z" fill="#dd636e"></path><path d="M417.47 361.144v93.52a256.35 256.35 0 0 1-28.4 20.08v-113.6c0-7.84 6.36-14.2 14.2-14.2 3.92 0 7.47 1.59 10.04 4.16s4.16 6.12 4.16 10.04z" fill="#665e66"></path><circle cx="403.271" cy="335.388" fill="#665e66" r="16.373"></circle><path d="M418.83 294.444c-14.88 3.07-28.18 10.46-38.52 20.8-13.83 13.84-22.39 32.95-22.39 54.06v121.6a254.456 254.456 0 0 1-31.11 11.18v-132.78c0-21.11 8.56-40.22 22.39-54.06 13.84-13.83 32.96-22.39 54.07-22.39 5.33 0 10.53.55 15.56 1.59z" fill="#da4a54"></path><g fill="#e28086"><path d="m429.696 295.684-26.422-26.422-39.461 39.461c-7.296 7.296-7.296 19.126 0 26.422 7.296 7.296 19.126 7.296 26.422 0z" fill="#e28086"></path><path d="m403.274 269.262-26.422 26.422 39.461 39.461c7.296 7.296 19.126 7.296 26.422 0 7.296-7.296 7.296-19.126 0-26.422z" fill="#e28086"></path></g><path d="M429.745 251.394v47.452c0 14.62-11.861 26.481-26.471 26.481-3.592 0-7.014-.713-10.135-2.007-9.593-3.984-16.346-13.436-16.346-24.474v-47.452z" fill="#ffddce"></path><path d="M393.138 282.036v41.28c-9.591-3.98-16.341-13.436-16.341-24.465v-29.507z" fill="#ffcbbe"></path><path d="M393.736 45.964 331.362 56.29c-35.014 5.796-58.7 38.88-52.903 73.894l14.143 85.432 189.17-31.316-14.143-85.432c-5.796-35.014-38.879-58.7-73.893-52.904z" fill="#e49542"></path><path d="M383.619 47.636c-35.018 5.797-58.703 38.879-52.906 73.897l14.142 85.429-52.255 8.65-14.142-85.429c-5.797-35.018 17.888-68.1 52.906-73.897z" fill="#d77350"></path><path d="m462.117 230.658-135.968 22.509c-21.697 3.592-42.197-11.085-45.789-32.782-2.246-13.568 6.932-26.387 20.5-28.633l165.406-27.382c13.568-2.246 26.387 6.932 28.633 20.5 3.591 21.696-11.086 42.196-32.782 45.788z" fill="#ffddce"></path><path d="M323.956 239.923c-14.359 2.377-27.975-7.371-30.352-21.73-1.034-6.243 3.205-12.163 9.448-13.197l165.406-27.382c6.243-1.034 12.163 3.205 13.197 9.448 2.377 14.359-7.371 27.975-21.73 30.352z" fill="#ffcbbe"></path><path d="m457.557 152.317 9.275 56.029c3.481 21.029-1.892 41.48-13.392 57.543-11.501 16.064-29.139 27.742-50.168 31.223-42.069 6.964-81.813-21.49-88.776-63.548l-9.275-56.029c-1.921-11.604-1.144-23.03 1.878-33.634a30.878 30.878 0 0 0 11.924.339c8.755-1.449 16.036-6.41 20.668-13.202 8.412 6.096 18.696 9.591 29.556 9.547 2.635-.006 5.309-.233 8-.679s5.294-1.102 7.792-1.936c10.295-3.458 18.904-10.08 24.902-18.562 6.563 4.939 15.065 7.287 23.82 5.837a30.942 30.942 0 0 0 11.189-4.166c6.27 9.078 10.686 19.634 12.607 31.238z" fill="#ffddce"></path><path d="M418.528 292.951a76.862 76.862 0 0 1-15.257 4.161c-42.069 6.964-81.813-21.49-88.775-63.548l-9.275-56.029c-1.921-11.604-1.144-23.03 1.878-33.634a30.878 30.878 0 0 0 11.924.339 30.962 30.962 0 0 0 18.272-10.126c-1.87 11.586-2.959 26.582-1.023 38.28l9.275 56.029c6.082 36.739 37.173 63.096 72.981 64.528z" fill="#ffcbbe"></path><circle cx="350.999" cy="182.768" fill="#f9f6f9" r="22.87"></circle><path d="M360.278 203.674a23.01 23.01 0 0 1-5.548 1.654c-12.463 2.063-24.231-6.362-26.294-18.825s6.362-24.231 18.825-26.294a22.977 22.977 0 0 1 5.785-.222c-9.312 4.12-15.032 14.132-13.292 24.643s10.381 18.145 20.524 19.044z" fill="#dddaec"></path><circle cx="415.905" cy="172.023" fill="#f9f6f9" r="22.87"></circle><path d="M425.185 192.929a23.01 23.01 0 0 1-5.548 1.654c-12.463 2.063-24.231-6.362-26.294-18.825s6.362-24.231 18.825-26.294a22.977 22.977 0 0 1 5.785-.222c-9.312 4.12-15.032 14.132-13.292 24.643 1.739 10.511 10.381 18.145 20.524 19.044z" fill="#dddaec"></path><path d="m385.039 137.971 11.81 71.34c.723 4.367-2.222 8.481-6.589 9.204s-8.481-2.222-9.204-6.589l-11.81-71.34a49.622 49.622 0 0 0 8-.679 50.963 50.963 0 0 0 7.793-1.936z" fill="#ffcbbe"></path><circle cx="345.588" cy="181.663" fill="#454045" r="9.132"></circle><circle cx="408.49" cy="171.25" fill="#454045" r="9.132"></circle><path d="M417.349 234.857c-10.921 15.253-32.215 18.779-47.468 7.858a7.556 7.556 0 0 1 8.797-12.287c8.478 6.07 20.314 4.11 26.384-4.368a7.556 7.556 0 0 1 12.287 8.797z" fill="#f9f6f9"></path><path d="m203.223 419.322-.498 41.867 9.192 9.192 16.921 16.923a6.08 6.08 0 0 0 8.596 0 6.054 6.054 0 0 0 1.779-4.298 6.054 6.054 0 0 0-1.735-4.252l4.15 4.15a6.08 6.08 0 0 0 8.596 0 6.067 6.067 0 0 0 1.779-4.298 6.06 6.06 0 0 0-1.748-4.265l2.956 2.956a6.08 6.08 0 0 0 8.596 0 6.07 6.07 0 0 0 1.779-4.298 6.05 6.05 0 0 0-1.746-4.263l2.002 2.002a6.07 6.07 0 0 0 4.298 1.779c1.556 0 3.11-.594 4.298-1.779a6.08 6.08 0 0 0 0-8.596l-2.737-2.737-6.114-8.127-24.319-22.307 14.497-5.732a13.377 13.377 0 0 0-9.458-3.919h-41.084z" fill="#986b54"></path><path d="m246.295 436.001-4.228 2.606 26.953 26.953a6.056 6.056 0 0 1 1.781 4.298c0 .76-.142 1.519-.427 2.235a6.023 6.023 0 0 0 2.065-1.354 6.058 6.058 0 0 0 1.779-4.298c0-1.556-.592-3.11-1.779-4.298l-2.737-2.737-6.115-9.473z" fill="#845c47"></path><g fill="#ffddce"><path d="m204.342 461.793-1.979 1.979a5.176 5.176 0 1 0 7.321 7.321l1.979-1.979a5.176 5.176 0 1 0-7.321-7.321z" fill="#ffddce"></path><path d="m214.07 466.707-4.386 4.386a5.176 5.176 0 1 0 7.321 7.321l4.386-4.386a5.176 5.176 0 1 0-7.321-7.321z" fill="#ffddce"></path><path d="m218.984 476.435-1.979 1.979a5.176 5.176 0 1 0 7.321 7.321l1.979-1.979a5.176 5.176 0 1 0-7.321-7.321z" fill="#ffddce"></path><path d="M224.326 485.735a5.176 5.176 0 1 0 7.321 7.321 5.176 5.176 0 1 0-7.321-7.321z" fill="#ffddce"></path></g><g fill="#ffcbbe"><path d="M201.326 469.61c.248.537.594 1.04 1.035 1.481 1.01 1.013 2.335 1.517 3.66 1.517s2.65-.504 3.66-1.517l1.979-1.979a5.178 5.178 0 0 0-1.485-8.361 5.173 5.173 0 0 1-1.038 5.84l-1.979 1.977a5.162 5.162 0 0 1-3.66 1.517c-.74 0-1.484-.158-2.172-.475zM208.647 476.931a5.13 5.13 0 0 0 1.035 1.481c1.01 1.013 2.335 1.517 3.66 1.517s2.65-.504 3.66-1.517l4.385-4.385a5.174 5.174 0 0 0-1.481-8.356 5.183 5.183 0 0 1-1.04 5.835l-4.385 4.385a5.162 5.162 0 0 1-3.66 1.517 5.174 5.174 0 0 1-2.174-.477zM215.968 484.252a5.13 5.13 0 0 0 1.035 1.481c1.01 1.013 2.335 1.517 3.66 1.517s2.65-.504 3.66-1.517l1.979-1.977a5.177 5.177 0 0 0 0-7.323 5.2 5.2 0 0 0-1.485-1.04 5.177 5.177 0 0 1-1.035 5.84l-1.979 1.979a5.162 5.162 0 0 1-3.66 1.517c-.744 0-1.487-.16-2.175-.477zM223.287 491.573c.25.538.596 1.042 1.038 1.483 1.01 1.01 2.335 1.515 3.66 1.515s2.65-.504 3.663-1.515c1.01-1.01 1.517-2.335 1.517-3.66s-.506-2.65-1.517-3.663a5.2 5.2 0 0 0-1.488-1.04 5.188 5.188 0 0 1-1.036 5.839 5.188 5.188 0 0 1-5.837 1.041z" fill="#ffcbbe"></path></g><path d="M222.817 448.345a7.859 7.859 0 0 0 5.567 2.306 7.853 7.853 0 0 0 5.569-2.306l7.973-7.973 4.371-4.371 23.404 23.404-.023-12.511-.052-27.573h-25.319a8.692 8.692 0 0 0-6.144 2.546l-15.346 15.344a7.876 7.876 0 0 0 0 11.134z" fill="#ffddce"></path><path d="M225.017 447.284a7.854 7.854 0 0 0 5.569-2.308l13.378-13.378a3.813 3.813 0 0 1 5.392 0l.671.671 10.844 10.844a12.935 12.935 0 0 0 8.806 3.783l.023 12.511-23.404-23.404-4.371 4.371-.001-.001-7.972 7.973c-1.538 1.535-3.552 2.306-5.569 2.306s-4.031-.771-5.567-2.306a7.924 7.924 0 0 1-1.427-1.944 7.91 7.91 0 0 0 3.628.882z" fill="#ffcbbe"></path><g fill="#845c47"><path d="m250.73 457.625-.546.575a4.15 4.15 0 0 0 .076 5.789l8.128 8.129a6.056 6.056 0 0 1 1.781 4.298c0 .76-.142 1.519-.427 2.235a6.023 6.023 0 0 0 2.065-1.354 6.058 6.058 0 0 0 1.779-4.298c0-1.556-.592-3.11-1.779-4.298zM239.146 463.231l-.546.575a4.15 4.15 0 0 0 .076 5.789l8.128 8.129a6.056 6.056 0 0 1 1.781 4.298c0 .76-.142 1.519-.427 2.235a6.023 6.023 0 0 0 2.065-1.354 6.058 6.058 0 0 0 1.779-4.298c0-1.556-.592-3.11-1.779-4.298zM226.357 467.631l-.546.575a4.15 4.15 0 0 0 .076 5.789l8.128 8.129a6.056 6.056 0 0 1 1.781 4.298c0 .76-.142 1.519-.427 2.235a6.023 6.023 0 0 0 2.065-1.354 6.058 6.058 0 0 0 1.779-4.298c0-1.556-.592-3.11-1.779-4.298z" fill="#845c47"></path></g></g></svg>