<svg viewBox="0 0 464 464" xmlns="http://www.w3.org/2000/svg"><g><g fill="#ff6243"><path d="M80 144h80l80-112h-88L72 144zM456 32h-8l-80 112h88a8 8 0 0 0 8-8V40a8 8 0 0 0-8-8zM304 144l80-112h-80l-80 112zM80 32H8a8 8 0 0 0-8 8v96a8 8 0 0 0 8 8L88 32zM384 304h72a8 8 0 0 0 8-8v-96a8 8 0 0 0-8-8h-8l-80 112zM152 192 72 304h88l80-112zM304 192l-80 112h80l80-112zM80 192H8a8 8 0 0 0-8 8v96a8 8 0 0 0 8 8l80-112zm0 0" fill="#ff6243"></path></g><path d="M80 8a8 8 0 0 0-8-8H56a8 8 0 0 0-8 8v24h32zM80 144H48v48h32zM48 304v128h32V304zm0 0" fill="#898890"></path><path d="M24 432a8 8 0 0 0-8 8v16a8 8 0 0 0 8 8h80a8 8 0 0 0 8-8v-16a8 8 0 0 0-8-8zm0 0" fill="#787680"></path><path d="M416 8a8 8 0 0 0-8-8h-16a8 8 0 0 0-8 8v24h32zM384 144h32v48h-32zM384 304h32v128h-32zm0 0" fill="#898890"></path><path d="M360 432a8 8 0 0 0-8 8v16a8 8 0 0 0 8 8h80a8 8 0 0 0 8-8v-16a8 8 0 0 0-8-8zm0 0" fill="#787680"></path><g fill="#d8d7da"><path d="M152 32H88L8 144h64zM224 144l80-112h-64l-80 112zM368 144l80-112h-64l-80 112zM152 192H88L8 304h64zM240 192l-80 112h64l80-112zM304 304h64l80-112h-64zm0 0" fill="#d8d7da"></path></g><g fill="#787680"><path d="M48 144h32v24H48zM384 144h32v24h-32zM48 304h32v24H48zM384 304h32v24h-32zm0 0" fill="#787680"></path></g></g></svg>