<svg viewBox="0 0 512 512.001" xmlns="http://www.w3.org/2000/svg"><g><path d="M307.223 481.988h-42.13l-84.366-359.59a15.004 15.004 0 0 0-29.22 0l-84.366 359.59H25.094c-8.29 0-15.008 6.719-15.008 15.004 0 8.29 6.719 15.008 15.008 15.008h282.129c8.289 0 15.007-6.719 15.007-15.008 0-8.285-6.718-15.004-15.007-15.004zM205.94 361.27l-57.386-34.215 43.394-25.43zm-39.824-169.743 18.656 79.52-43.257 25.348zm-37.242 158.739 70.246 41.879-92.973 54.996zm-22.688 131.722 112.47-66.527 15.605 66.527zm0 0" fill="#d8e6eb"></path><path d="M307.223 481.988h-42.13l-84.366-359.59a15 15 0 0 0-14.504-11.574v81.145l18.55 79.074-18.55 10.871v34.79l25.726-15.075 13.992 59.64-39.718-23.683v34.945l32.894 19.614-32.894 19.46v34.872l52.43-31.016 15.609 66.527h-68.04V512h141c8.29 0 15.008-6.719 15.008-15.008 0-8.285-6.718-15.004-15.007-15.004zm0 0" fill="#b5c3ce"></path><path d="M166.117 160.762c-25.949 0-47.062-21.114-47.062-47.067 0-25.949 21.113-47.062 47.062-47.062 25.953 0 47.063 21.113 47.063 47.062 0 25.953-21.11 47.067-47.063 47.067zm0 0" fill="#4895ff"></path><path d="M92.934 183.75a14.982 14.982 0 0 1-12.004-5.988c-13.801-18.352-21.403-41.102-21.403-64.063 0-24.566 8.575-48.558 24.141-67.554 5.25-6.41 14.707-7.352 21.117-2.098 6.41 5.25 7.352 14.707 2.098 21.117C95.699 78.816 89.539 96.051 89.539 113.7c0 16.492 5.461 32.84 15.375 46.024 4.98 6.625 3.652 16.03-2.973 21.011a14.94 14.94 0 0 1-9.007 3.016zm0 0" fill="#bdfdff"></path><path d="M48.875 224.027a14.974 14.974 0 0 1-11.652-5.543C13.219 188.961 0 151.746 0 113.695 0 73.883 14.32 35.355 40.32 5.207 45.734-1.07 55.21-1.77 61.484 3.641c6.278 5.414 6.977 14.89 1.567 21.168a136.132 136.132 0 0 0-33.035 88.886c0 31.172 10.828 61.664 30.496 85.856 5.226 6.43 4.254 15.883-2.18 21.11a14.923 14.923 0 0 1-9.457 3.366zm0 0" fill="#bdfdff"></path><path d="M239.34 183.75c-3.14 0-6.305-.98-9.008-3.016-6.621-4.98-7.953-14.39-2.973-21.011 9.914-13.184 15.375-29.532 15.375-46.024 0-17.648-6.16-34.883-17.343-48.535-5.254-6.41-4.313-15.867 2.097-21.117 6.41-5.254 15.864-4.313 21.117 2.098 15.57 19 24.145 42.992 24.145 67.554 0 22.961-7.602 45.711-21.402 64.063-2.95 3.922-7.45 5.988-12.008 5.988zm0 0" fill="#76e2f8"></path><path d="M283.398 224.027a14.956 14.956 0 0 1-9.457-3.363c-6.43-5.226-7.406-14.68-2.175-21.11 19.664-24.19 30.496-54.683 30.496-85.859 0-32.617-11.73-64.183-33.035-88.886-5.415-6.278-4.715-15.75 1.562-21.164 6.277-5.415 15.754-4.715 21.168 1.562 26 30.148 40.32 68.68 40.32 108.492 0 38.047-13.222 75.262-37.226 104.79a14.977 14.977 0 0 1-11.653 5.538zm0 0" fill="#76e2f8"></path><path d="M166.223 66.637v94.12c25.902-.058 46.957-21.144 46.957-47.062 0-25.914-21.055-47.004-46.957-47.058zm0 0" fill="#005fe4"></path></g></svg>