<svg viewBox="0 0 64 64" xmlns="http://www.w3.org/2000/svg"><g><path d="M39 22v1H25v-1a7 7 0 1 1 14 0z" fill="#8d98a9"></path><path d="M58.5 29.5 53 35l-4-4 5-3zM49 31l-4 4-6-5 5-2z" fill="#75b0d1"></path><path d="m54 28-5 3-5-3a13.113 13.113 0 0 0 .96-4.58 5.955 5.955 0 0 0 8.08 0A13.113 13.113 0 0 0 54 28z" fill="#e09b8d"></path><path d="M63 35.743V48h-4v-4h-6v4h-4V31l4 4 5.5-5.5a6.582 6.582 0 0 1 4.5 6.243z" fill="#4a80aa"></path><path d="M53 44h6v4h-6z" fill="#6197bc"></path><path d="M53.04 23.42A6 6 0 0 1 43 19v-7h12v7a5.929 5.929 0 0 1-1.96 4.42z" fill="#f4baa6"></path><path d="M55 12H43a6.009 6.009 0 0 1 6-6 6 6 0 0 1 6 6z" fill="#aab4bf"></path><path d="M49 48v10H32V43l5 4 5.72-5.72 1.46.4A6.562 6.562 0 0 1 49 48z" fill="#4a80aa"></path><path d="M42.72 41.28 38 40a13.643 13.643 0 0 1-.98-5.12A6.936 6.936 0 0 0 39 30l6 5 4-4v17a6.562 6.562 0 0 0-4.82-6.32z" fill="#6197bc"></path><path d="M42.72 41.28 37 47l-5-4 6-3z" fill="#75b0d1"></path><path d="M37.02 34.88A7 7 0 0 1 25 30v-7h14v7a6.936 6.936 0 0 1-1.98 4.88z" fill="#f4baa6"></path><path d="m38 40-6 3-6-3a13.643 13.643 0 0 0 .98-5.12 7 7 0 0 0 10.04 0A13.643 13.643 0 0 0 38 40z" fill="#e09b8d"></path><path d="M32 43v15h-5v-4h-8v4h-4V48a6.562 6.562 0 0 1 4.82-6.32l1.46-.4L27 47z" fill="#6197bc"></path><path d="m32 43-5 4-5.72-5.72L26 40z" fill="#75b0d1"></path><path d="M19 54h8v4h-8zM21.28 41.28l-1.46.4A6.562 6.562 0 0 0 15 48V31l4 4 6-5a6.936 6.936 0 0 0 1.98 4.88A13.643 13.643 0 0 1 26 40z" fill="#4a80aa"></path><path d="m25 30-6 5-4-4 5-3z" fill="#75b0d1"></path><path d="M19.04 23.42A6 6 0 0 1 9 19v-7h12v7a5.929 5.929 0 0 1-1.96 4.42z" fill="#f4baa6"></path><path d="M21 12H9a6 6 0 0 1 6-6 6.009 6.009 0 0 1 6 6z" fill="#aab4bf"></path><path d="m20 28-5 3-5-3a13.113 13.113 0 0 0 .96-4.58 5.955 5.955 0 0 0 8.08 0A13.113 13.113 0 0 0 20 28z" fill="#e09b8d"></path><path d="M15 31v17h-4v-4H5v4H1V35.743A6.582 6.582 0 0 1 5.5 29.5L11 35z" fill="#6197bc"></path><path d="m15 31-4 4-5.5-5.5L10 28z" fill="#75b0d1"></path><path d="M5 44h6v4H5z" fill="#4a80aa"></path><circle cx="5.5" cy="35.5" fill="#87bfd8" r="1.5"></circle><circle cx="19.5" cy="46.5" fill="#87bfd8" r="1.5"></circle><circle cx="58.5" cy="35.5" fill="#69a4c4" r="1.5"></circle><path d="M41 24H23a1 1 0 0 1 0-2h18a1 1 0 0 1 0 2z" fill="#aab4bf"></path><path d="M32 34a3.155 3.155 0 0 1-3.5-3 1 1 0 0 1 2-.017c.014.309.189 1.017 1.5 1.017 1.428 0 1.5-.833 1.5-1a1 1 0 0 1 2 0 3.155 3.155 0 0 1-3.5 3z" fill="#e09b8d"></path><path d="M24 13H6a1 1 0 0 1 0-2h18a1 1 0 0 1 0 2z" fill="#8d98a9"></path><path d="M15 22a3.155 3.155 0 0 1-3.5-3 1 1 0 0 1 2-.017c.014.309.189 1.017 1.5 1.017 1.428 0 1.5-.833 1.5-1a1 1 0 0 1 2 0 3.155 3.155 0 0 1-3.5 3z" fill="#e09b8d"></path><path d="M58 13H40a1 1 0 0 1 0-2h18a1 1 0 0 1 0 2z" fill="#8d98a9"></path><path d="M49 22a3.155 3.155 0 0 1-3.5-3 1 1 0 0 1 2 0c.013.287.185 1 1.5 1 1.428 0 1.5-.833 1.5-1a1 1 0 0 1 2 0 3.155 3.155 0 0 1-3.5 3z" fill="#e09b8d"></path><g fill="#d3897d"><circle cx="30" cy="27" fill="#d3897d" r="1"></circle><circle cx="34" cy="27" fill="#d3897d" r="1"></circle><circle cx="13" cy="16" fill="#d3897d" r="1"></circle><circle cx="17" cy="16" fill="#d3897d" r="1"></circle><circle cx="51" cy="16" fill="#d3897d" r="1"></circle><circle cx="47" cy="16" fill="#d3897d" r="1"></circle></g></g></svg>