<svg viewBox="0 0 512 512" xmlns="http://www.w3.org/2000/svg"><g><path d="M464.696 425.739a8.347 8.347 0 0 1-8.348 8.348H55.652a8.348 8.348 0 1 1 0-16.696h400.696a8.347 8.347 0 0 1 8.348 8.348z" fill="#999999"></path><path d="M378.435 434.087h-244.87L244.87 200.348v-22.261h22.261v22.261l111.304 233.739z" fill="#af773a"></path><path d="M267.13 178.087v22.261l111.304 233.739H256v-256h11.13z" fill="#996531"></path><path d="M478.609 222.609H33.391C14.949 222.609 0 207.659 0 189.217c0-18.442 14.949-33.391 33.391-33.391h445.217c18.442 0 33.391 14.949 33.391 33.391.001 18.442-14.948 33.392-33.39 33.392z" fill="#feaf50"></path><path d="M175.304 188.939a8.348 8.348 0 0 1-8.348 8.348H55.652c-4.61 0-8.348-3.736-8.348-8.348s3.738-8.348 8.348-8.348h111.304a8.347 8.347 0 0 1 8.348 8.348zm264.905-8.348H333.913c-4.611 0-8.348 3.736-8.348 8.348s3.736 8.348 8.348 8.348h106.296c4.611 0 8.348-3.736 8.348-8.348s-3.737-8.348-8.348-8.348z" fill="#af773a"></path><path d="M133.565 189.217c-30.736 0-55.652-24.917-55.652-55.652s24.917-55.652 55.652-55.652 55.652 24.917 55.652 55.652-24.916 55.652-55.652 55.652z" fill="#6583b7"></path><path d="M138.017 155.826c-18.442 0-33.391-14.949-33.391-33.391s14.949-33.391 33.391-33.391 33.391 14.949 33.391 33.391-14.949 33.391-33.391 33.391z" fill="#819ad1"></path><path d="M406.817 189.217c-30.736 0-55.652-24.917-55.652-55.652s24.917-55.652 55.652-55.652 55.652 24.917 55.652 55.652-24.916 55.652-55.652 55.652z" fill="#fe5a3a"></path><path d="M411.826 155.826c-18.442 0-33.391-14.949-33.391-33.391s14.949-33.391 33.391-33.391 33.391 14.949 33.391 33.391-14.949 33.391-33.391 33.391z" fill="#fe7d49"></path></g></svg>