<svg id="Capa_1" enable-background="new 0 0 512 512" height="512" viewBox="0 0 512 512" width="512" xmlns="http://www.w3.org/2000/svg"><g><g><path d="m144.74 192.96h222.519v126.079h-222.519z" fill="#ecf4ff"/></g><g><path d="m469.579 77.712c4.141-1.205 8.622-2.509 13.126-3.82 10.165-2.958 10.166-17.36.001-20.318l-13.121-3.818c-4.867-1.416-8.671-5.217-10.088-10.084-1.205-4.141-2.509-8.622-3.82-13.126-2.958-10.165-17.359-10.166-20.318-.001l-3.818 13.121c-1.416 4.867-5.217 8.672-10.084 10.088-4.219 1.228-8.684 2.527-13.127 3.82-10.165 2.958-10.165 17.359.001 20.317l13.121 3.818c4.867 1.416 8.672 5.217 10.088 10.084 1.228 4.219 2.527 8.684 3.82 13.127 2.958 10.165 17.359 10.164 20.317-.001l3.818-13.121c1.416-4.866 5.216-8.67 10.084-10.086z" fill="#fce3a0"/></g><g><path d="m90.544 462.245c4.141-1.205 8.622-2.509 13.126-3.82 10.165-2.958 10.166-17.36.001-20.318l-13.121-3.818c-4.867-1.416-8.671-5.217-10.088-10.084-1.205-4.141-2.509-8.622-3.82-13.126-2.958-10.165-17.359-10.166-20.318-.001l-3.818 13.122c-1.416 4.867-5.217 8.672-10.084 10.088-4.219 1.228-8.684 2.527-13.127 3.82-10.165 2.958-10.165 17.359.001 20.317l13.121 3.818c4.867 1.416 8.672 5.217 10.088 10.084 1.228 4.219 2.527 8.684 3.82 13.127 2.958 10.165 17.359 10.164 20.317-.001l3.818-13.121c1.416-4.866 5.217-8.67 10.084-10.087z" fill="#fce3a0"/></g><g><path d="m450.848 77.71-13.121-3.818c-10.165-2.958-10.166-17.359-.001-20.317 4.443-1.293 8.908-2.592 13.127-3.82 4.2-1.222 7.598-4.228 9.362-8.156-.279-.622-.526-1.262-.719-1.927-1.205-4.141-2.509-8.622-3.82-13.126-2.958-10.165-17.359-10.166-20.318-.001l-3.818 13.121c-1.416 4.867-5.217 8.672-10.085 10.088-4.219 1.228-8.684 2.527-13.127 3.82-10.165 2.958-10.165 17.359.001 20.317l13.121 3.818c4.867 1.416 8.672 5.217 10.088 10.085 1.228 4.219 2.527 8.684 3.82 13.127 2.958 10.165 17.359 10.164 20.317-.001l3.818-13.121c.194-.667.442-1.309.722-1.932-1.763-3.929-5.165-6.934-9.367-8.157z" fill="#f7bd61"/></g><g><path d="m71.814 462.244-13.121-3.818c-10.165-2.958-10.166-17.359-.001-20.317 4.443-1.293 8.908-2.592 13.127-3.82 4.2-1.222 7.598-4.228 9.362-8.156-.279-.622-.526-1.262-.719-1.927-1.205-4.141-2.509-8.622-3.82-13.126-2.958-10.165-17.359-10.166-20.318-.001l-3.818 13.121c-1.416 4.867-5.217 8.672-10.084 10.088-4.219 1.228-8.684 2.527-13.127 3.82-10.165 2.958-10.164 17.359.001 20.317l13.121 3.818c4.867 1.416 8.672 5.217 10.088 10.084 1.228 4.219 2.527 8.684 3.82 13.127 2.958 10.165 17.359 10.164 20.317-.001l3.818-13.121c.194-.667.442-1.309.722-1.932-1.765-3.928-5.166-6.934-9.368-8.156z" fill="#f7bd61"/></g><g><g><path d="m498.292 222.747-51.772-32.47c-15.198-9.532-28.476-21.657-39.186-35.784l-17.374-22.916c-21.225-27.996-64.864-38.201-96.977-22.678-23.281 11.254-50.685 11.254-73.966 0l-6.742-3.259c-2.262-1.093-4.588-2.042-6.963-2.85-8.482-2.886-31.423 12.182-38.678 16.598-16.235 9.88-14.556 19.944-26.498 35.697l-18.543 13.351c-10.71 14.126-24.855 18.654-40.053 28.186l-39.93 29.589c-8.549 5.361-4.945 19.94-4.945 29.791v11.323c0 15.784.118 21.211 11.373 32.645 24.688 25.079 38.075 42.526 38.075 42.526 38.775 39.389 108.667 70.287 164.911 70.287h45.19c56.243 0 110.025-22.294 148.799-61.682 16.354-16.613 33.833-34.369 49.458-50.241 6.813-6.921 11.8-15.213 14.676-24.181 1.875-5.847-31.895-4.846-31.895-11.076l34.748-14.521v-3.941c0-9.851-5.159-19.032-13.708-24.394zm-147.998 28.335c-26.575 0-52.402 8.508-73.449 24.195l-.001.001c-12.622 8.135-29.066 8.135-41.689 0l-.001-.001c-21.046-15.687-46.874-24.195-73.449-24.195 26.017 0 51.331-8.158 72.144-23.249l1.305-.946c12.352-8.956 29.337-8.956 41.689 0l.001.001c21.66 15.705 48.004 24.195 75.079 24.195h-1.629z" fill="#fe8187"/></g></g><g><path d="m350.294 251.082c-26.575 0-52.402 8.508-73.449 24.195l-.001.001c-12.352 9.264-29.336 9.264-41.689 0l-.001-.001c-21.046-15.687-46.874-24.195-73.449-24.195h-107.035c-5.205 0-9.425-4.22-9.425-9.425 0-1.586.393-3.145 1.161-4.533 1.974-3.565 6.378-10.508 12.547-14.378l51.772-32.47c15.198-9.532 28.477-21.657 39.186-35.784l21.829-28.794c8.225-10.849 20.255-18.676 33.566-22.894-27.463-9.343-61.532.102-78.811 22.894l-21.829 28.794c-10.71 14.126-23.988 26.252-39.186 35.784l-51.772 32.47c-8.549 5.363-13.708 14.544-13.708 24.395v11.323c0 15.784 6.277 30.964 17.533 42.398 24.688 25.079 49.45 50.234 49.45 50.234 38.775 39.389 92.559 61.685 148.804 61.685h45.246c-56.245 0-110.029-22.296-148.804-61.685 0 0-24.763-25.155-49.45-50.234-.067-.068-.134-.137-.201-.205-8.727-8.944-2.373-23.985 10.123-23.985h89.006c26.575 0 52.402 8.508 73.449 24.195l.001.001c12.352 9.264 29.336 9.264 41.689 0l.001-.001c21.046-15.687 46.874-24.195 73.449-24.195h158.84c1.875-5.847 2.867-11.978 2.867-18.207v-7.382h-161.709z" fill="#ff646f"/></g></g></svg>