<svg viewBox="0 0 512 512" xmlns="http://www.w3.org/2000/svg"><g><path d="M349.11 102.242 224.948 92.139l7.53-89.448A2.928 2.928 0 0 1 235.634.01L353.96 9.638a2.928 2.928 0 0 1 2.681 3.156z" fill="#d6b489"></path><path d="m326.074 7.369-8.193 92.242 31.229 2.631 7.53-89.448a2.928 2.928 0 0 0-2.681-3.156z" fill="#c9a47d"></path><g fill="#c29a71"><path d="M260.094 34.446c-4.106-.343-7.748 2.737-8.084 6.867l-3.676 45.179a7.499 7.499 0 0 0 7.484 8.108 7.503 7.503 0 0 0 7.467-6.892l3.676-45.179a7.5 7.5 0 0 0-6.867-8.083zM291.924 37.036c-4.111-.345-7.748 2.737-8.084 6.867l-3.676 45.179a7.499 7.499 0 0 0 7.484 8.108 7.503 7.503 0 0 0 7.467-6.892l3.676-45.179a7.5 7.5 0 0 0-6.867-8.083zM323.755 39.626a7.503 7.503 0 0 0-8.084 6.867l-3.677 45.179a7.499 7.499 0 0 0 7.483 8.108 7.503 7.503 0 0 0 7.468-6.892l3.677-45.179a7.5 7.5 0 0 0-6.867-8.083z" fill="#c29a71"></path></g><path d="m341.061 500.153-172.5-14.036 32.504-399.458a3.999 3.999 0 0 1 4.311-3.662l164.527 13.388a3.999 3.999 0 0 1 3.662 4.311z" fill="#e3c7a4"></path><path d="m343.086 94.202-32.829 403.445 30.804 2.507 32.504-399.458a4 4 0 0 0-3.662-4.311z" fill="#d6b489"></path><g fill="#c29a71"><path d="m234.275 491.464-34.911-2.841 6.681-82.101c.784-9.64 9.235-16.819 18.876-16.035 9.64.784 16.819 9.235 16.035 18.876zM310.257 497.647l-34.911-2.841 6.681-82.101c.784-9.64 9.235-16.819 18.876-16.035 9.64.784 16.819 9.235 16.035 18.876zM369.174 154.67l-172.501-14.037c-4.105-.343-7.748 2.737-8.084 6.867a7.5 7.5 0 0 0 6.867 8.083l172.501 14.037a7.503 7.503 0 0 0 8.084-6.867 7.5 7.5 0 0 0-6.867-8.083zM363.849 220.107l-172.5-14.037a7.5 7.5 0 0 0-1.217 14.95l172.5 14.037a7.503 7.503 0 0 0 8.084-6.867 7.5 7.5 0 0 0-6.867-8.083zM358.524 285.543l-172.5-14.037a7.5 7.5 0 1 0-1.217 14.95l172.5 14.037a7.503 7.503 0 0 0 8.084-6.867 7.5 7.5 0 0 0-6.867-8.083zM353.199 350.98l-172.5-14.037c-4.103-.339-7.748 2.737-8.084 6.867a7.5 7.5 0 0 0 6.867 8.083l172.5 14.037a7.503 7.503 0 0 0 8.084-6.867 7.5 7.5 0 0 0-6.867-8.083zM224.106 133.745a7.503 7.503 0 0 0 8.084-6.867l1.337-16.429a7.5 7.5 0 0 0-6.867-8.083c-4.108-.337-7.748 2.737-8.084 6.867l-1.337 16.429a7.5 7.5 0 0 0 6.867 8.083zM253.884 136.168a7.503 7.503 0 0 0 8.084-6.867l1.337-16.429a7.5 7.5 0 1 0-14.951-1.216l-1.337 16.429a7.5 7.5 0 0 0 6.867 8.083zM283.66 138.591a7.503 7.503 0 0 0 8.084-6.867l1.337-16.429a7.5 7.5 0 0 0-6.867-8.083c-4.129-.344-7.748 2.738-8.084 6.867l-1.337 16.429a7.5 7.5 0 0 0 6.867 8.083zM313.438 141.014a7.503 7.503 0 0 0 8.084-6.867l1.337-16.428a7.499 7.499 0 0 0-6.867-8.083c-4.105-.338-7.748 2.737-8.084 6.867l-1.337 16.428a7.499 7.499 0 0 0 6.867 8.083zM343.214 143.437a7.503 7.503 0 0 0 8.084-6.867l1.337-16.429a7.5 7.5 0 0 0-6.867-8.083c-4.11-.338-7.748 2.737-8.084 6.867l-1.337 16.429a7.5 7.5 0 0 0 6.867 8.083zM219.377 199.485a7.503 7.503 0 0 0 7.467-6.892l1.337-16.429a7.5 7.5 0 0 0-6.867-8.083c-4.12-.343-7.747 2.739-8.084 6.867l-1.337 16.429a7.5 7.5 0 0 0 7.484 8.108zM249.152 201.908a7.503 7.503 0 0 0 7.468-6.892l1.337-16.429a7.5 7.5 0 0 0-6.867-8.083c-4.116-.345-7.748 2.737-8.084 6.867l-1.337 16.429a7.5 7.5 0 0 0 7.483 8.108zM278.93 204.331a7.503 7.503 0 0 0 7.468-6.892l1.337-16.429a7.5 7.5 0 0 0-6.867-8.083c-4.103-.345-7.748 2.737-8.084 6.867l-1.337 16.429a7.5 7.5 0 0 0 7.483 8.108zM308.707 206.753a7.503 7.503 0 0 0 7.467-6.892l1.337-16.428a7.499 7.499 0 0 0-6.867-8.083c-4.107-.346-7.748 2.737-8.084 6.867l-1.337 16.428a7.499 7.499 0 0 0 7.484 8.108zM338.484 209.177a7.503 7.503 0 0 0 7.467-6.892l1.337-16.429a7.5 7.5 0 0 0-6.867-8.083 7.496 7.496 0 0 0-8.084 6.867L331 201.068a7.5 7.5 0 0 0 7.484 8.109zM214.113 264.172a7.503 7.503 0 0 0 7.467-6.892l1.337-16.429a7.5 7.5 0 0 0-6.867-8.083c-4.134-.344-7.748 2.739-8.084 6.867l-1.337 16.429a7.5 7.5 0 0 0 7.484 8.108zM243.889 266.595a7.503 7.503 0 0 0 7.468-6.892l1.337-16.429a7.5 7.5 0 0 0-6.867-8.083c-4.104-.344-7.748 2.737-8.084 6.867l-1.337 16.429a7.5 7.5 0 0 0 7.483 8.108zM273.667 269.018a7.503 7.503 0 0 0 7.467-6.892l1.337-16.428a7.499 7.499 0 0 0-6.867-8.083c-4.11-.344-7.748 2.737-8.084 6.867l-1.337 16.428a7.499 7.499 0 0 0 7.484 8.108zM303.443 271.441a7.503 7.503 0 0 0 7.467-6.892l1.337-16.429a7.5 7.5 0 0 0-6.867-8.083 7.496 7.496 0 0 0-8.084 6.867l-1.337 16.429a7.5 7.5 0 0 0 7.484 8.108zM333.221 273.864a7.503 7.503 0 0 0 7.467-6.892l1.337-16.429a7.5 7.5 0 0 0-6.867-8.083 7.498 7.498 0 0 0-8.084 6.867l-1.337 16.429a7.5 7.5 0 0 0 7.484 8.108zM208.766 329.887a7.503 7.503 0 0 0 7.467-6.892l1.337-16.429a7.5 7.5 0 0 0-6.867-8.083c-4.123-.339-7.748 2.738-8.084 6.867l-1.337 16.429a7.5 7.5 0 0 0 7.484 8.108zM238.543 332.31a7.503 7.503 0 0 0 7.467-6.892l1.337-16.428a7.499 7.499 0 0 0-6.867-8.083c-4.107-.342-7.748 2.737-8.084 6.867l-1.337 16.428a7.499 7.499 0 0 0 7.484 8.108zM268.318 334.733a7.503 7.503 0 0 0 7.468-6.892l1.337-16.429a7.5 7.5 0 0 0-6.867-8.083c-4.112-.342-7.748 2.737-8.084 6.867l-1.337 16.429a7.5 7.5 0 0 0 7.483 8.108zM298.096 337.156a7.502 7.502 0 0 0 7.468-6.893l1.336-16.429a7.5 7.5 0 1 0-14.951-1.216l-1.336 16.429a7.5 7.5 0 0 0 7.483 8.109zM327.873 339.579a7.503 7.503 0 0 0 7.467-6.892l1.337-16.429a7.5 7.5 0 0 0-6.867-8.083c-4.12-.342-7.747 2.738-8.084 6.867l-1.337 16.429a7.5 7.5 0 0 0 7.484 8.108z" fill="#c29a71"></path></g><path d="M498.608 512H13.392C5.996 512 0 506.004 0 498.608c0-7.396 5.996-13.392 13.392-13.392h485.215c7.396 0 13.392 5.996 13.392 13.392C512 506.004 506.004 512 498.608 512z" fill="#d4e157"></path><path d="M498.608 512H13.392C5.996 512 0 506.004 0 498.608c0-7.396 5.996-13.392 13.392-13.392h485.215c7.396 0 13.392 5.996 13.392 13.392C512 506.004 506.004 512 498.608 512z" fill="#d4e157"></path><path d="M498.608 485.215h-30.905c7.396 0 13.392 5.996 13.392 13.392s-5.996 13.392-13.392 13.392h30.905c7.396 0 13.392-5.996 13.392-13.392s-5.996-13.392-13.392-13.392z" fill="#c3d136"></path></g></svg>