<svg viewBox="0 0 512.001 512.001" xmlns="http://www.w3.org/2000/svg"><g><path d="m258.694 282.969-81.821-22.315H102.4l-81.821 22.315A27.928 27.928 0 0 0 0 309.912v183.469a9.31 9.31 0 0 0 9.309 9.309h269.964V309.912a27.928 27.928 0 0 0-20.579-26.943z" fill="#5b5d6e"></path><path d="M176.873 260.655H102.4l-27.21 7.421c2.817 26.113 15.15 116.401 56.365 184.815 3.683 6.113 12.479 6.113 16.161 0 41.216-68.414 53.549-158.702 56.365-184.815l-27.208-7.421z" fill="#d5dced"></path><path d="M147.694 452.901c5.161-8.596 9.859-17.541 14.162-26.65l-12.911-137.669h-18.618l-12.911 137.669c4.303 9.109 9.001 18.054 14.162 26.65 3.647 6.073 12.47 6.073 16.116 0z" fill="#ff507d"></path><path d="M93.091 228.073v32.582c0 25.706 20.839 46.545 46.545 46.545s46.545-20.839 46.545-46.545v-32.582h-93.09z" fill="#e6af78"></path><path d="M148.945 325.818h-18.618a9.31 9.31 0 0 1-9.309-9.309v-18.618a9.31 9.31 0 0 1 9.309-9.309h18.618a9.31 9.31 0 0 1 9.309 9.309v18.618c.001 5.141-4.167 9.309-9.309 9.309z" fill="#d23c69"></path><path d="M93.091 249.381c13.981 7.172 29.783 11.274 46.545 11.274s32.565-4.102 46.545-11.274v-21.308h-93.09v21.308z" fill="#d29b6e"></path><path d="M223.418 121.018V65.164H55.855v55.855c-10.282 0-18.618 8.335-18.618 18.618 0 10.282 8.336 18.618 18.618 18.618 0 46.272 37.51 83.782 83.782 83.782s83.782-37.51 83.782-83.782c10.282 0 18.618-8.336 18.618-18.618-.001-10.284-8.336-18.619-18.619-18.619z" fill="#f0c087"></path><path d="M102.4 158.255V65.164H55.855v55.855c-10.282 0-18.618 8.335-18.618 18.618 0 10.282 8.336 18.618 18.618 18.618 0 46.272 37.51 83.782 83.782 83.782 8.085 0 15.876-1.207 23.273-3.344-34.937-10.095-60.51-42.252-60.51-80.438z" fill="#e6af78"></path><path d="M139.636 204.8c-9.855 0-19.273-4.65-25.845-12.755-3.245-3.995-2.627-9.855 1.364-13.095 4.009-3.232 9.864-2.614 13.091 1.368 6.145 7.564 16.636 7.564 22.782 0 3.236-3.982 9.091-4.6 13.091-1.368 3.991 3.241 4.609 9.1 1.364 13.095-6.574 8.105-15.992 12.755-25.847 12.755z" fill="#d29b6e"></path><path d="M102.4 158.255a9.307 9.307 0 0 1-9.309-9.309v-9.309c0-5.141 4.164-9.309 9.309-9.309s9.309 4.168 9.309 9.309v9.309a9.307 9.307 0 0 1-9.309 9.309zM176.873 158.255a9.307 9.307 0 0 1-9.309-9.309v-9.309c0-5.141 4.164-9.309 9.309-9.309s9.309 4.168 9.309 9.309v9.309a9.307 9.307 0 0 1-9.309 9.309z" fill="#553732"></path><path d="M202.301 112.158c2.718 7.199 10.414 10.461 17.994 9.131a18.05 18.05 0 0 1 3.124-.271c3.409 0 6.561.983 9.309 2.582V65.164c0-13.928-7.736-25.926-19.06-32.312-2.116-13.327-13.563-23.543-27.485-23.543H111.71c-35.989 0-65.164 29.175-65.164 65.164v49.128c2.748-1.599 5.901-2.582 9.309-2.582 1.197 0 2.364.116 3.492.339 9.066 1.785 18.145-3.226 20.415-12.183l2.289-9.157c1.012-4.047 4.559-6.933 8.73-7.045 17.32-.467 63.039-2.764 94.213-14.047 5.519-1.998 11.467 1.363 12.432 7.153l3.486 20.914a27.28 27.28 0 0 0 1.389 5.165z" fill="#785546"></path><path d="M102.4 65.164c0-30.848 25.007-55.855 55.855-55.855H111.71c-35.989 0-65.164 29.174-65.164 65.164v49.128c2.748-1.599 5.901-2.582 9.309-2.582 1.197 0 2.364.116 3.492.339 9.066 1.785 18.145-3.226 20.415-12.184l2.289-9.157c1.011-4.047 4.559-6.932 8.73-7.045 3.056-.082 7.032-.227 11.62-.463V65.164h-.001z" fill="#64463c"></path><path d="M0 309.912v183.47a9.31 9.31 0 0 0 9.309 9.309h46.545V369.716a46.542 46.542 0 0 0-9.805-28.576l-38.79-49.875C2.746 296.27 0 302.814 0 309.912zM279.273 309.912v192.779h-55.855V369.716a46.542 46.542 0 0 1 9.805-28.576l38.791-49.875c4.513 5.005 7.259 11.549 7.259 18.647z" fill="#464655"></path><path d="m117.003 318.76 22.634-30.178-40.257-32.206a9.31 9.31 0 0 0-12.172.468L75.19 268.076c.816 7.566 2.478 20.639 5.363 36.888l23.824 15.947a9.31 9.31 0 0 0 12.626-2.151z" fill="#e4eaf8"></path><path d="m162.27 318.76-22.634-30.178 40.257-32.206a9.31 9.31 0 0 1 12.172.468l12.017 11.231c-.816 7.566-2.478 20.639-5.363 36.888l-23.824 15.947a9.308 9.308 0 0 1-12.625-2.15z" fill="#e4eaf8"></path><path d="M381.673 46.545c-56.554 0-102.4 45.846-102.4 102.4v9.309c0 30.848 25.007 55.855 55.855 55.855h93.091c30.848 0 55.855-25.007 55.855-55.855v-9.309c-.001-56.554-45.847-102.4-102.401-102.4z" fill="#d59f63"></path><path d="M406.085 49.597c-7.837-1.92-15.984-3.052-24.413-3.052-56.554 0-102.4 45.846-102.4 102.4v9.309c0 30.848 25.007 55.855 55.855 55.855h9.309v-83.782c0-38.597 26.136-71.011 61.649-80.73z" fill="#cd915a"></path><path d="M456.145 232.727H307.2l-27.927 120.146h204.8z" fill="#d5dced"></path><path d="m494.445 346.723-63.832-25.533a18.617 18.617 0 0 1-11.703-17.286v-33.94h-74.473v33.94a18.617 18.617 0 0 1-11.703 17.286l-63.832 25.533a27.926 27.926 0 0 0-17.555 25.93V409.6a9.31 9.31 0 0 0 9.309 9.309v74.473a9.31 9.31 0 0 0 9.309 9.309h223.418a9.31 9.31 0 0 0 9.309-9.309v-74.473a9.31 9.31 0 0 0 9.309-9.309v-36.947a27.929 27.929 0 0 0-17.556-25.93z" fill="#fad7a5"></path><path d="M260.655 409.6v27.927h9.309a9.31 9.31 0 0 1 9.309 9.309v55.855H307.2V409.6h-46.545zM502.691 409.6v27.927h-9.309a9.31 9.31 0 0 0-9.309 9.309v55.855h-27.927V409.6h46.545zM344.436 300.089c11.558 4.534 24.09 7.112 37.236 7.112s25.678-2.578 37.236-7.112v-30.124h-74.473v30.124h.001z" fill="#f0c891"></path><path d="M350.18 135.313a5.491 5.491 0 0 0-8.357 2.172c-4.814 10.816-17.149 30.079-43.931 30.078v.001c-10.282 0-18.618 8.335-18.618 18.618 0 10.282 8.336 18.618 18.618 18.618 0 46.272 37.51 83.782 83.782 83.782s83.782-37.51 83.782-83.782c-.001-61.997-75.837-39.731-115.276-69.487z" fill="#ffe1b4"></path><path d="M381.673 251.345c-9.855 0-19.273-4.65-25.845-12.755-3.245-3.995-2.627-9.855 1.364-13.095 4.009-3.236 9.864-2.618 13.091 1.368 6.145 7.564 16.636 7.564 22.782 0 3.227-3.986 9.091-4.605 13.091-1.368 3.991 3.241 4.609 9.1 1.364 13.095-6.575 8.105-15.993 12.755-25.847 12.755z" fill="#d7af7d"></path><path d="M418.909 204.8a9.307 9.307 0 0 1-9.309-9.309v-9.309c0-5.141 4.164-9.309 9.309-9.309s9.309 4.168 9.309 9.309v9.309a9.306 9.306 0 0 1-9.309 9.309z" fill="#64463c"></path><path d="m494.445 346.723-21.106-8.442c-20.934 20.634-54.12 34.082-91.686 34.082-37.568 0-70.848-13.393-91.783-34.028l-20.969 8.387a27.926 27.926 0 0 0-17.555 25.93V409.6a9.31 9.31 0 0 0 9.309 9.309h37.236v83.782h167.564v-83.782h37.236A9.31 9.31 0 0 0 512 409.6v-36.947a27.926 27.926 0 0 0-17.555-25.93z" fill="#e4eaf8"></path><path d="M297.891 408.003a18.62 18.62 0 0 0-5.453-13.165l-36.857-36.857c-2.678 4.324-4.235 9.358-4.235 14.672V409.6a9.31 9.31 0 0 0 9.309 9.309h37.236v-10.906zM465.455 408.003a18.62 18.62 0 0 1 5.453-13.165l36.857-36.857c2.678 4.324 4.235 9.358 4.235 14.672V409.6a9.31 9.31 0 0 1-9.309 9.309h-37.236v-10.906z" fill="#d5dced"></path><circle cx="363.06" cy="46.545" fill="#d5dced" r="18.618"></circle><circle cx="325.82" cy="65.16" fill="#e4eaf8" r="27.927"></circle><path d="M344.436 204.8v-69.898c-1.088.549-2.064 1.347-2.614 2.582-4.814 10.816-17.149 30.079-43.931 30.078v.001c-10.282 0-18.618 8.335-18.618 18.618 0 10.282 8.336 18.618 18.618 18.618 0 46.272 37.51 83.782 83.782 83.782 8.085 0 15.876-1.207 23.273-3.344-34.936-10.092-60.51-42.25-60.51-80.437z" fill="#fad7a5"></path><path d="M344.436 204.8a9.307 9.307 0 0 1-9.309-9.309v-9.309c0-5.141 4.164-9.309 9.309-9.309s9.309 4.168 9.309 9.309v9.309a9.306 9.306 0 0 1-9.309 9.309z" fill="#64463c"></path></g></svg>