<svg viewBox="0 0 64 64" xmlns="http://www.w3.org/2000/svg"><g><path d="m30.559 35.047 4 2.24-2.175 1.075-2.802-1.57a2.454 2.454 0 0 1 .537-4.504l1.611-.451a.454.454 0 0 0 0-.874 2.454 2.454 0 0 1 0-4.726l1.612-.45a.454.454 0 0 0 .1-.834l-5.358-3 3.533-.314 2.801 1.569a2.454 2.454 0 0 1-.537 4.504l-1.612.451a.454.454 0 0 0 0 .874 2.454 2.454 0 0 1 0 4.726l-1.61.45a.454.454 0 0 0-.1.834z" fill="#00508c"></path><path d="M44 40a1 1 0 0 1-.707-1.707l10-10a1 1 0 0 1 1.414 1.414l-10 10A.997.997 0 0 1 44 40zM20 40a.997.997 0 0 1-.707-.293l-10-10a1 1 0 0 1 1.414-1.414l10 10A1 1 0 0 1 20 40z" fill="#ff465f"></path><path d="M18 37h28v24H18z" fill="#ff9682"></path><path d="M20 39h26v22H20z" fill="#ff465f"></path><circle cx="32" cy="13" fill="#fffdaa" r="10"></circle><path d="M34 5a9.986 9.986 0 0 0-7.992 15.992A9.986 9.986 0 0 0 39.992 7.008 9.941 9.941 0 0 0 34 5z" fill="#ffe657"></path><circle cx="36" cy="10" fill="#00508c" r="1"></circle><circle cx="28" cy="10" fill="#00508c" r="1"></circle><path d="M28 15h8a4 4 0 0 1-4 4 4 4 0 0 1-4-4z" fill="#ff465f"></path><path d="m32 41 2.472 5.267 5.528.844-4 4.1.944 5.789L32 54.267 27.056 57 28 51.211l-4-4.1 5.528-.844z" fill="#ffe657"></path></g></svg>