<svg viewBox="0 0 512 512" xmlns="http://www.w3.org/2000/svg"><g><path d="M152.324 230.056h15.453v55.119h-15.453zM305.073 230.056h15.453v55.119h-15.453z" fill="#7a6d79"></path><path d="m478.612 379.755-99.928-25.108-26.898-24.994 1.249-19.327-12.656-23.565a13.932 13.932 0 0 0-12.274-7.34h-184.09a21.98 21.98 0 0 0-20.319 13.6L99.975 350.55a10.06 10.06 0 0 1-5.854 5.616L30.667 379.29a15.446 15.446 0 0 0-10.157 14.512v58.096a7.79 7.79 0 0 0 7.791 7.791h455.398a7.79 7.79 0 0 0 7.791-7.791v-55.629a17.027 17.027 0 0 0-12.878-16.514z" fill="#62dbfb"></path><path d="m478.612 379.755-18.031-4.53v45.764a7.79 7.79 0 0 1-7.791 7.791H20.51v23.118a7.79 7.79 0 0 0 7.791 7.791h455.398a7.79 7.79 0 0 0 7.791-7.791v-55.629a17.027 17.027 0 0 0-12.878-16.514z" fill="#01d0fb"></path><path d="M156.289 310.326h58.502a8.24 8.24 0 0 1 8.241 8.241v27.838a8.24 8.24 0 0 1-8.241 8.241h-69.25c-5.788 0-9.773-5.81-7.688-11.21l10.748-27.838a8.243 8.243 0 0 1 7.688-5.272zM253.938 318.568v27.827a8.24 8.24 0 0 0 8.253 8.241l115.883-.155-25.038-44.155H262.18a8.242 8.242 0 0 0-8.242 8.242z" fill="#dff6fd"></path><path d="M473.684 417.799a7.725 7.725 0 0 0 7.726 7.726h10.08v-15.453h-10.08a7.726 7.726 0 0 0-7.726 7.727z" fill="#0290cf"></path><path d="M297.933 392.172a7.726 7.726 0 1 0 0-15.452h-29.261a7.726 7.726 0 1 0 0 15.452zM179.037 376.719a7.726 7.726 0 1 0 0 15.452h29.261a7.726 7.726 0 1 0 0-15.452z" fill="#08a9f1"></path><path d="M247.518 384.446a7.725 7.725 0 0 0-7.726-7.726 7.725 7.725 0 0 0-7.726 7.726v44.334h15.453v-44.334z" fill="#01d0fb"></path><path d="M232.065 428.78h15.453v30.908h-15.453z" fill="#01c0fa"></path><circle cx="116.723" cy="459.688" fill="#7a6d79" r="52.312"></circle><circle cx="116.723" cy="459.688" fill="#cbc4cc" r="27.202"></circle><circle cx="395.277" cy="459.688" fill="#7a6d79" r="52.312"></circle><circle cx="395.277" cy="459.688" fill="#cbc4cc" r="27.202"></circle><path d="M385.329 235.084H87.52c-11.688 0-21.162-9.475-21.162-21.162V21.162C66.358 9.475 75.832 0 87.52 0h297.809c11.688 0 21.162 9.475 21.162 21.162v192.76c.001 11.688-9.474 21.162-21.162 21.162z" fill="#ffd15b"></path><path d="M384.691 0h-9.107v182.375c0 12.04-9.761 21.801-21.801 21.801H66.358v9.107c0 12.04 9.761 21.801 21.801 21.801h296.532c12.04 0 21.801-9.761 21.801-21.801V21.801C406.492 9.761 396.731 0 384.691 0z" fill="#ffc344"></path><g fill="#d88a55"><path d="M178.549 206.764a7.695 7.695 0 0 0 2.748.508 7.727 7.727 0 0 0 7.221-4.979l1.955-5.134h24.705l1.93 5.113a7.726 7.726 0 0 0 9.957 4.5 7.726 7.726 0 0 0 4.5-9.957l-20.283-53.745a8.929 8.929 0 0 0-8.371-5.763h-.009a8.93 8.93 0 0 0-8.355 5.744l-20.469 53.743a7.727 7.727 0 0 0 4.471 9.97zm24.334-42.186 6.464 17.128H196.36zM251.559 137.758a7.728 7.728 0 0 0-5.427 7.376v54.409a7.726 7.726 0 1 0 15.452 0v-29.625l22.708 32.883c2.235 3.227 5.979 4.59 9.531 3.484 3.621-1.132 5.96-4.499 5.96-8.654l-.51-52.674a7.726 7.726 0 0 0-7.724-7.652h-.076a7.727 7.727 0 0 0-7.652 7.801l.294 30.242-23.898-34.606a7.73 7.73 0 0 0-8.658-2.984zM151.059 207.27a7.725 7.725 0 0 0 7.726-7.726v-54.511a7.726 7.726 0 1 0-15.452 0v18.595h-22.271v-18.595a7.725 7.725 0 0 0-7.726-7.726 7.725 7.725 0 0 0-7.726 7.726v54.511a7.725 7.725 0 0 0 7.726 7.726 7.725 7.725 0 0 0 7.726-7.726V179.08h22.271v20.464a7.725 7.725 0 0 0 7.726 7.726zM317.839 204.227a7.722 7.722 0 0 0 5.437 2.236h.059l15.389-.118c16.523-.289 28.515-14.613 28.515-34.058 0-20.442-11.69-34.176-29.089-34.176h-14.982a7.725 7.725 0 0 0-7.727 7.742l.107 52.899a7.728 7.728 0 0 0 2.291 5.475zm20.312-50.663c12.653 0 13.636 14.331 13.636 18.723 0 9.146-4.123 18.447-13.257 18.607l-7.544.057-.075-37.387zM196.628 112.538a7.725 7.725 0 0 0 7.726-7.726 7.725 7.725 0 0 0-7.726-7.726H177.9l16.377-21.771a6.53 6.53 0 0 0 .156-.215c4.105-5.864 9.725-13.896 8.808-23.915-1.111-12.121-11.057-21.893-23.138-22.73-12.582-.869-23.881 7.772-26.302 20.106a7.726 7.726 0 0 0 6.093 9.07 7.72 7.72 0 0 0 9.07-6.093c.925-4.706 5.265-8.014 10.07-7.667 4.601.318 8.391 4.069 8.818 8.724.37 4.042-2.249 8.167-6.004 13.537l-25.604 34.035a7.726 7.726 0 0 0 6.174 12.372h34.21zM223.42 28.237a7.728 7.728 0 0 0-5.427 7.376v39.023a7.726 7.726 0 1 0 15.452 0V60.398l12.302 17.813c2.123 3.071 5.852 4.422 9.284 3.347 3.476-1.085 5.811-4.395 5.811-8.314l-.365-37.779a7.727 7.727 0 0 0-7.724-7.652h-.076a7.727 7.727 0 0 0-7.652 7.801l.141 14.561-13.088-18.953a7.73 7.73 0 0 0-8.658-2.985zM283.416 81.785h.058l11.059-.085c13.094-.229 22.598-11.421 22.598-26.612 0-15.718-9.478-26.696-23.047-26.696H283.34a7.725 7.725 0 0 0-7.727 7.742l.076 37.94a7.726 7.726 0 0 0 7.727 7.711zm10.668-37.94c6.854 0 7.595 7.863 7.595 11.243 0 5.491-2.293 11.071-7.338 11.16l-3.214.025-.045-22.429h3.002zM317.132 104.812a7.725 7.725 0 0 0-7.726-7.726H225.72a7.725 7.725 0 0 0-7.726 7.726 7.725 7.725 0 0 0 7.726 7.726h83.685a7.726 7.726 0 0 0 7.727-7.726z" fill="#d88a55"></path></g></g></svg>