<svg id="t_copy_2" height="512" viewBox="0 0 64 64" width="512" xmlns="http://www.w3.org/2000/svg" data-name="t copy 2"><rect fill="#ffcb1e" height="41.943" rx="3.995" transform="matrix(.695 -.719 .719 .695 -13.248 32.791)" width="41.943" x="11.028" y="11.028"/><g fill="#373737"><path d="m32.417 61a4.96 4.96 0 0 1 -3.467-1.4019l-24.4251-23.5859a4.9942 4.9942 0 0 1 -.123-7.0625l23.5859-24.4248a4.9942 4.9942 0 0 1 7.0625-.123l24.4248 23.5859a4.9942 4.9942 0 0 1 .123 7.0625l-23.5859 24.4248a4.9637 4.9637 0 0 1 -3.5059 1.5249c-.0297 0-.0595 0-.0893 0zm-.835-56h-.0537a2.973 2.973 0 0 0 -2.102.9141l-23.5863 24.4253a2.9946 2.9946 0 0 0 .0743 4.2343l24.4251 23.5863a2.9946 2.9946 0 0 0 4.2343-.0743l23.5863-24.4251a2.9946 2.9946 0 0 0 -.0743-4.2343l-24.4251-23.5863a2.9741 2.9741 0 0 0 -2.0786-.84z"/><path d="m39 20h-12a6 6 0 0 0 -6 6v20h6v-18a2 2 0 0 1 2-2h10z"/><path d="m38 32v-18l9 9z"/></g></svg>