<svg viewBox="0 0 512.09 512.09" xmlns="http://www.w3.org/2000/svg"><g><path d="M291.42 461.908c0 4.22-.89 8.37-2.58 12.18a29.874 29.874 0 0 1-14.74 15.02c-15.02 7-32.87.51-39.87-14.51l-5.94-12.74a29.91 29.91 0 0 1 2.82 12.66c0 11.3-6.42 22.12-17.33 27.21-15.02 7-32.87.51-39.87-14.51l-34.53-73.48c-8.42-18.23-21.33-30.49-35.38-38.72v-171.64h126.45l7.42 35.69 50.97-6.57 28.074 104.955-28.074 112.295c1.76 3.94 2.58 8.09 2.58 12.16z" fill="#ffccbd"></path><path d="M411.65 435.778c0 11.3-6.41 22.12-17.33 27.21-15.01 7-32.86.5-39.87-14.51l-4.65-9.99a29.91 29.91 0 0 1 2.82 12.66c0 11.3-6.42 22.12-17.33 27.21-15.02 7-32.87.51-39.87-14.51l-6.58-14.1v-217.25l33.75-4.35 69.1 158.78 17.14 36.19c1.91 4.1 2.82 8.42 2.82 12.66z" fill="#ffbda9"></path><path d="m288.84 162.098 43.443 49.245-43.443 32.245-60.62 45.01c-12 8.77-28.55 7.73-39.36-2.49-12.92-12.22-12.85-32.81.17-44.94l68.87-62.83a66.383 66.383 0 0 1 30.94-16.24z" fill="#e99a8b"></path><path d="M119 197.548v197c0 8.28-6.72 15-15 15H15c-8.28 0-15-6.72-15-15v-197c0-8.28 6.72-15 15-15h89c8.28 0 15 6.72 15 15z" fill="#80aaff"></path><path d="M319.835 76.782c-1.096 0-2.209-.121-3.323-.373-8.08-1.828-13.148-9.859-11.321-17.939l8.873-39.23c1.828-8.081 9.855-13.152 17.94-11.321 8.08 1.828 13.148 9.859 11.321 17.939l-8.873 39.23c-1.576 6.966-7.764 11.694-14.617 11.694z" fill="#ffc34d"></path><path d="M242.166 76.782c-6.854 0-13.041-4.728-14.617-11.694l-8.874-39.23c-1.828-8.08 3.241-16.112 11.321-17.939 8.078-1.83 16.112 3.241 17.939 11.321l8.874 39.23c1.828 8.08-3.241 16.112-11.321 17.939a15.04 15.04 0 0 1-3.322.373z" fill="#ffea80"></path><path d="M392.501 103.534a14.94 14.94 0 0 1-9.139-3.114c-6.564-5.053-7.79-14.471-2.737-21.036l25.488-33.114c5.053-6.565 14.472-7.791 21.036-2.737s7.79 14.471 2.737 21.036l-25.488 33.114a14.978 14.978 0 0 1-11.897 5.851z" fill="#ffc34d"></path><path d="M169.499 103.534a14.973 14.973 0 0 1-11.897-5.852l-25.488-33.114c-5.053-6.565-3.827-15.983 2.737-21.036 6.565-5.052 15.983-3.827 21.036 2.737l25.488 33.114c5.053 6.565 3.827 15.983-2.737 21.036a14.937 14.937 0 0 1-9.139 3.115z" fill="#ffea80"></path><path d="M512.09 230.328v141.6c0 8.28-6.72 15-15 15h-105.4l-18.83-40.37a217.366 217.366 0 0 0-42.57-61.11l-41.45-41.86v-81.49c4.65-1.02 9.44-1.55 14.27-1.55h49.71c16.22 0 31.88 5.95 44.02 16.71l34.89 30.95a28.969 28.969 0 0 0 19.33 7.3l45.94-.18c8.32-.05 15.09 6.68 15.09 15z" fill="#d58678"></path></g></svg>