<svg viewBox="0 0 68 68" xmlns="http://www.w3.org/2000/svg"><g><path d="M30.461 31.45s8.072 4.553 11.61 7.363-7.455 6.692-7.455 6.692l-5.087-1.447z" fill="#125ac4"></path><path d="M32.539 62.53c.906-5.647 3.775-25.95-1.065-30.428-3.154-2.918-19.715-3.087-23.045 1.267-2.959 3.869-.118 23.601.754 29.16z" fill="#2d77fc"></path><path d="M10.196 31.971S5.919 33.137 3.25 39.85C1.897 43.256.534 54.634 5.564 55.627s17.274-12.065 17.274-12.065-1.247-3.826-1.403-4.38c-.046-.164-10.294 3.924-10.294 3.924s3.342-9.87-.945-11.135z" fill="#125ac4"></path><path d="M31.06 47.62h16.748c1.086 0 1.966-.88 1.966-1.966H31.059z" fill="#eff6ff"></path><path d="M31.688 47.62h-7.176a.947.947 0 0 1-.947-.946V46.6c0-.523.424-.947.947-.947h7.176a.983.983 0 0 1 0 1.966z" fill="#d9e5f1"></path><path d="m54.32 34.066-4.546 11.59H31.739l5.37-13.685h15.782a1.535 1.535 0 0 1 1.43 2.095z" fill="#d9e5f1"></path><path d="m37.109 31.97-5.37 13.685H30.46l4.986-12.71c.23-.588.798-.974 1.43-.974z" fill="#eff6ff"></path><path d="M48.176 52.08c-1.796 2.594-5.093 2.551-7.338 1.502-.875-.406-5.602-4.834-5.602-4.834l.22-1.127h12.397s2.122 1.863.323 4.459z" fill="#125ac4"></path><path d="m35.457 47.62-.221 1.128s-5.424.839-5.19-1.127z" fill="#f9b29c"></path><ellipse cx="43.335" cy="40.612" fill="#eff6ff" rx="2.351" ry="1.277" transform="rotate(-59.4 43.352 40.603)"></ellipse><path d="M27.586 42.787c-1.17.038-1.156-1.237-1.156-1.237s-2.053 1.902-3.59 2.029L21.434 39.2s1.522-3.147 2.246-2.187c.687.913-.516 1.622-.637 1.692.228-.072 4.103-1.577 5 1.17 0 0 .714 2.872-.458 2.912zM25.349 33.76c-6.987 1.23-8.718-3.503-8.718-3.503 4.861-2.932 2.625-8.376 2.625-8.376s.155-.02.404-.026c.044-.002.093-.002.145-.002 1.126 0 3.62.342 3.952 3.36.167 1.532.618 2.643 1.097 3.428.041.07.085.134.13.199.705 1.061 1.442 1.445 1.442 1.445s3.375 2.692-1.077 3.475z" fill="#f9b29c"></path><path d="M24.983 28.84c-3.687-.374-4.954-5.042-5.323-6.985.044-.002.093-.002.145-.002 1.126 0 3.62.342 3.952 3.36.167 1.532.618 2.643 1.097 3.428.041.07.085.134.13.199z" fill="#ed8768"></path><path d="M18.915 20.165s.98 8.313 7.529 8.093c5.603-.187 4.52-13.816 4.52-13.816l-10.942-3.889s-4.184 5.982-1.107 9.612z" fill="#f9b29c"></path><path d="M18.961 25.6c1.976 1.508-.047-5.434-.047-5.434s-1.235-2.953-.258-3.589c.977-.632 1.555 2.263 1.555 2.263a.84.84 0 0 0 .309.055.87.87 0 0 0 .875-.901c-.05-1.366-.113-2.06-.08-2.129.806-1.674 9.481 3.626 12.195.74 4.408-4.686 1.41-10.577-5.286-11.041-2.025-.141-6.43 3.047-8.464 3.607-2.771-1.23-4.659 1.073-5.672 3.638-1.693 4.285 2.28 10.812 4.873 12.791z" fill="#15144f"></path><path d="M25.04 19.999a.125.125 0 0 1-.056-.167c.144-.293.153-.646.023-.945-.198-.456-.619-.585-1.078-.004a3.32 3.32 0 0 0-.53.965.124.124 0 0 1-.158.077.124.124 0 0 1-.077-.159c.13-.376.322-.725.569-1.038.579-.733 1.232-.566 1.504.06.158.365.148.797-.03 1.154a.125.125 0 0 1-.167.057zM27.616 21.994a4.723 4.723 0 0 1-.117-3.324.125.125 0 1 1 .236.08 4.47 4.47 0 0 0 .11 3.147.125.125 0 1 1-.23.097zM29.813 20.222a1.439 1.439 0 0 0-.188-1.05c-.087-.14-.235-.285-.383-.264-.09.012-.18.08-.278.21-.206.276-.33.617-.347.96-.004.069-.061.129-.132.118a.125.125 0 0 1-.118-.131c.021-.393.162-.781.397-1.096.14-.187.286-.288.446-.309.226-.028.46.113.627.379.229.364.309.814.22 1.235a.12.12 0 0 1-.135.098c-.066-.008-.127-.063-.109-.15zM25.405 25.042a1.556 1.556 0 0 1-.936-.486.125.125 0 1 1 .185-.169c.2.22.486.37.783.408.295.037.61-.034.86-.196a.125.125 0 0 1 .136.21c-.3.194-.676.279-1.028.233z" fill="#15144f"></path><path d="M66 17.714v7.474c0 .4-.323.726-.726.726H51.596l-2.467.985a.299.299 0 0 1-.407-.276v-.709h-1.057a.727.727 0 0 1-.726-.726v-7.474c0-.4.326-.726.726-.726h17.609c.403 0 .726.326.726.726z" fill="#eff6ff"></path><path d="M53.718 21.71a2.577 2.577 0 1 1-5.153-.003 2.577 2.577 0 0 1 5.153.003z" fill="#03c88b"></path><path d="M50.538 20.846a.604.604 0 1 1 1.208 0 .604.604 0 0 1-1.208 0zM52.515 23.015h-2.747a1.376 1.376 0 0 1 1.375-1.354c.75 0 1.359.604 1.372 1.354z" fill="#ffffff"></path><path d="m56.339 18.87.32.65a.195.195 0 0 0 .148.107l.718.104c.16.024.224.22.108.334l-.52.506a.196.196 0 0 0-.056.173l.123.715a.195.195 0 0 1-.284.206l-.642-.337a.196.196 0 0 0-.181 0l-.642.337a.195.195 0 0 1-.284-.206l.123-.715a.196.196 0 0 0-.057-.173l-.519-.506a.195.195 0 0 1 .108-.334l.718-.104a.195.195 0 0 0 .147-.107l.321-.65a.196.196 0 0 1 .35 0zM59.962 18.87l.32.65a.196.196 0 0 0 .148.107l.718.104c.16.024.224.22.108.334l-.52.506a.196.196 0 0 0-.056.173l.123.715a.196.196 0 0 1-.284.206l-.642-.337a.196.196 0 0 0-.181 0l-.642.337a.195.195 0 0 1-.284-.206l.123-.715a.196.196 0 0 0-.057-.173l-.519-.506a.195.195 0 0 1 .108-.334l.718-.104a.195.195 0 0 0 .147-.107l.321-.65a.196.196 0 0 1 .35 0zM63.585 18.87l.32.65a.195.195 0 0 0 .148.107l.718.104c.16.024.224.22.108.334l-.52.506a.196.196 0 0 0-.056.173l.123.715a.195.195 0 0 1-.284.206l-.642-.337a.195.195 0 0 0-.181 0l-.642.337a.196.196 0 0 1-.284-.206l.123-.715a.195.195 0 0 0-.057-.173l-.519-.506a.195.195 0 0 1 .108-.334l.718-.104a.195.195 0 0 0 .147-.107l.321-.65a.196.196 0 0 1 .35 0z" fill="#feb630"></path><path d="M54.829 22.662h10.147v.538H54.829zM54.829 23.681h4.923v.538h-4.923z" fill="#d9e5f1"></path><path d="M38.075 6.196v7.475c0 .4.323.726.726.726h13.677l2.467.984a.299.299 0 0 0 .408-.276v-.708h1.057c.4 0 .726-.326.726-.726V6.196c0-.4-.326-.726-.726-.726H38.8a.725.725 0 0 0-.725.726z" fill="#eff6ff"></path><path d="M50.356 10.192a2.577 2.577 0 1 0 5.154-.003 2.577 2.577 0 0 0-5.154.003z" fill="#f14e9d"></path><path d="M53.536 9.329a.604.604 0 1 0-1.207-.001.604.604 0 0 0 1.207 0zM51.56 11.497h2.747a1.376 1.376 0 0 0-1.375-1.353c-.75 0-1.36.603-1.372 1.353z" fill="#ffffff"></path><path d="m47.736 8.827-.321.65a.196.196 0 0 1-.147.107l-.718.105a.196.196 0 0 0-.108.333l.519.506c.046.045.067.11.056.173l-.123.715c-.027.16.14.282.284.206l.642-.337a.196.196 0 0 1 .182 0l.642.337a.195.195 0 0 0 .283-.206l-.122-.715a.196.196 0 0 1 .056-.173l.52-.506a.195.195 0 0 0-.109-.333l-.718-.105a.196.196 0 0 1-.147-.106l-.32-.65a.196.196 0 0 0-.351 0zM44.113 8.827l-.321.65a.196.196 0 0 1-.147.107l-.718.105a.195.195 0 0 0-.108.333l.519.506c.046.045.067.11.056.173l-.123.715c-.027.16.14.282.284.206l.642-.337a.195.195 0 0 1 .182 0l.642.337a.196.196 0 0 0 .283-.206l-.122-.715a.195.195 0 0 1 .056-.173l.52-.506a.196.196 0 0 0-.109-.333l-.718-.105a.196.196 0 0 1-.147-.106l-.32-.65a.196.196 0 0 0-.351 0zM40.49 8.827l-.321.65a.195.195 0 0 1-.147.107l-.718.105a.196.196 0 0 0-.108.333l.519.506c.046.045.067.11.056.173l-.123.715c-.027.16.14.282.284.206l.642-.337a.196.196 0 0 1 .182 0l.642.337a.195.195 0 0 0 .283-.206l-.122-.715a.196.196 0 0 1 .056-.173l.52-.506a.196.196 0 0 0-.109-.333l-.718-.105a.196.196 0 0 1-.147-.106l-.32-.65a.195.195 0 0 0-.351 0z" fill="#feb630"></path><path d="M33.79 22.89v5.802c0 .31.251.563.564.563h5.375l1.914.765c.15.06.317-.053.317-.215v-.55h.82c.31 0 .563-.253.563-.563V22.89a.564.564 0 0 0-.563-.563h-8.426a.563.563 0 0 0-.564.563z" fill="#f24e66"></path><path d="M40.778 25.174c0 1.163-2.116 2.835-2.116 2.835s-2.117-1.672-2.117-2.835a1.412 1.412 0 0 1 2.117-1.222 1.412 1.412 0 0 1 2.116 1.222z" fill="#ffffff"></path></g></svg>