<svg viewBox="0 0 256 256" xmlns="http://www.w3.org/2000/svg"><g><path d="M138.238 173.903h-20.476a3.626 3.626 0 0 1-3.622-3.444l-4.624-91.381h36.969l-4.624 91.381a3.628 3.628 0 0 1-3.623 3.444z" fill="#8c3f0a"></path><path d="m135.978 79.079-4.118 81.381a3.627 3.627 0 0 1-3.622 3.444h-14.43l.332 6.556a3.628 3.628 0 0 0 3.622 3.444h20.476a3.626 3.626 0 0 0 3.622-3.444l4.624-91.381z" fill="#7c3108"></path><path d="M134.553 49.14h-13.106c-12.144 0-21.989 9.845-21.989 21.989v26.01a3.627 3.627 0 0 0 3.627 3.627h49.829a3.627 3.627 0 0 0 3.627-3.627v-26.01c.001-12.144-9.844-21.989-21.988-21.989z" fill="#76a34f"></path><path d="M144.276 51.406a21.894 21.894 0 0 1 2.266 9.723v26.01a3.627 3.627 0 0 1-3.627 3.627H99.458v6.373a3.627 3.627 0 0 0 3.627 3.627h49.829a3.627 3.627 0 0 0 3.627-3.627v-26.01c.001-8.653-4.999-16.134-12.265-19.723z" fill="#648940"></path><circle cx="128" cy="39.238" fill="#fcc4ae" r="18.348" transform="rotate(-76.7 128.037 39.245)"></circle><path d="M134.969 22.269a18.28 18.28 0 0 1 1.379 6.969c0 10.133-8.215 18.348-18.348 18.348-2.469 0-4.82-.495-6.969-1.379 2.745 6.675 9.304 11.379 16.969 11.379 10.133 0 18.348-8.215 18.348-18.348 0-7.665-4.703-14.225-11.379-16.969z" fill="#f2ad97"></path><path d="M88.028 235.11H67.552a3.626 3.626 0 0 1-3.622-3.444l-4.624-91.381h36.969l-4.624 91.381a3.628 3.628 0 0 1-3.623 3.444z" fill="#8c3f0a"></path><path d="m85.768 140.286-4.118 81.381a3.628 3.628 0 0 1-3.622 3.444h-14.43l.332 6.556a3.627 3.627 0 0 0 3.622 3.444h20.476a3.626 3.626 0 0 0 3.622-3.444l4.624-91.381z" fill="#7c3108"></path><path d="M84.343 110.347H71.237c-12.144 0-21.989 9.845-21.989 21.989v26.01a3.627 3.627 0 0 0 3.627 3.627h49.829a3.627 3.627 0 0 0 3.627-3.627v-26.01c.001-12.144-9.844-21.989-21.988-21.989z" fill="#e63950"></path><path d="M55.25 149.66c-1.1 0-2-.9-2-2s.9-2 2-2 2 .9 2 2-.9 2-2 2zm0-8c-1.1 0-2-.9-2-2v-7.32c0-5.8 2.82-11.27 7.54-14.64.87-.63 2.18-.4 2.79.46.65.9.44 2.15-.46 2.79a14.033 14.033 0 0 0-5.87 11.39v7.32c0 1.1-.9 2-2 2z" fill="#e8566f"></path><path d="M94.066 112.613a21.894 21.894 0 0 1 2.266 9.723v26.01a3.627 3.627 0 0 1-3.627 3.627H49.249v6.373a3.627 3.627 0 0 0 3.627 3.627h49.829a3.627 3.627 0 0 0 3.627-3.627v-26.01c0-8.652-5-16.134-12.266-19.723z" fill="#d10028"></path><circle cx="77.79" cy="100.445" fill="#fcc4ae" r="18.348" transform="rotate(-76.7 77.815 100.471)"></circle><path d="M84.759 83.476a18.28 18.28 0 0 1 1.379 6.969c0 10.134-8.215 18.348-18.348 18.348a18.28 18.28 0 0 1-6.969-1.379c2.745 6.675 9.304 11.379 16.969 11.379 10.134 0 18.348-8.215 18.348-18.348 0-7.665-4.703-14.224-11.379-16.969z" fill="#f2ad97"></path><path d="M188.448 235.11h-20.476a3.626 3.626 0 0 1-3.622-3.444l-4.624-91.381h36.969l-4.624 91.381a3.628 3.628 0 0 1-3.623 3.444z" fill="#478cf7"></path><path d="m186.188 140.286-4.118 81.381a3.628 3.628 0 0 1-3.622 3.444h-14.43l.332 6.556a3.627 3.627 0 0 0 3.622 3.444h20.476a3.626 3.626 0 0 0 3.622-3.444l4.624-91.381z" fill="#377de2"></path><path d="m191.441 140.286-4.371 86.381a3.628 3.628 0 0 1-3.622 3.444h-19.177l.079 1.556a3.627 3.627 0 0 0 3.622 3.444h20.476a3.626 3.626 0 0 0 3.622-3.444l4.624-91.381z" fill="#2266d3"></path><path d="M184.763 110.347h-13.106c-12.144 0-21.989 9.845-21.989 21.989v26.01a3.627 3.627 0 0 0 3.627 3.627h49.829a3.627 3.627 0 0 0 3.627-3.627v-26.01c0-12.144-9.844-21.989-21.988-21.989z" fill="#ffa91a"></path><path d="M194.486 112.613a21.894 21.894 0 0 1 2.266 9.723v26.01a3.627 3.627 0 0 1-3.627 3.627h-43.456v6.373a3.627 3.627 0 0 0 3.627 3.627h49.829a3.627 3.627 0 0 0 3.627-3.627v-26.01c-.001-8.652-5-16.134-12.266-19.723z" fill="#f79219"></path><circle cx="178.21" cy="100.445" fill="#f2ad97" r="18.348" transform="rotate(-76.7 178.263 100.467)"></circle><path d="M185.179 83.476a18.28 18.28 0 0 1 1.379 6.969c0 10.134-8.215 18.348-18.348 18.348a18.28 18.28 0 0 1-6.969-1.379c2.745 6.675 9.304 11.379 16.969 11.379 10.134 0 18.348-8.215 18.348-18.348 0-7.665-4.704-14.224-11.379-16.969z" fill="#e59076"></path></g></svg>