<svg viewBox="0 0 68 68" xmlns="http://www.w3.org/2000/svg"><g><path d="M65.089 44.159c-4.71 5.799-16.852 18.794-31.09 18.794-14.239 0-26.38-12.995-31.09-18.794-1.212-1.49-1.212-3.983 0-5.474 4.71-5.799 16.851-18.794 31.09-18.794 14.238 0 26.38 12.995 31.09 18.794 1.211 1.49 1.211 3.983 0 5.474z" fill="#ffbe00"></path><path d="M65.089 44.163C60.376 49.96 48.24 62.95 33.999 62.95c-1.207 0-2.404-.096-3.576-.27C43.1 60.8 53.644 49.47 57.946 44.162c1.215-1.495 1.215-3.987 0-5.482-4.302-5.307-14.846-16.638-27.523-18.517a24.229 24.229 0 0 1 3.576-.271c14.242 0 26.377 12.992 31.09 18.788 1.215 1.495 1.215 3.987 0 5.482z" fill="#ffa300"></path><path d="M61.112 43.27c-4.108 3.914-14.696 12.686-27.113 12.686S10.994 47.184 6.886 43.27a2.55 2.55 0 0 1 0-3.694C9.628 36.963 15.25 32.188 22.38 29.3c3.555-1.44 7.486-2.412 11.618-2.412 4.134 0 8.066.973 11.624 2.415 7.126 2.889 12.75 7.66 15.489 10.272a2.55 2.55 0 0 1 0 3.694z" fill="#ffffff"></path><path d="M49.038 38.842c0 8.306-6.734 15.039-15.04 15.039-8.305 0-15.035-6.733-15.035-15.04 0-3.62 1.283-6.946 3.418-9.541 3.555-1.44 7.486-2.412 11.618-2.412 4.134 0 8.066.973 11.624 2.415a14.957 14.957 0 0 1 3.415 9.539z" fill="#079cff"></path><path d="M41.138 38.885a7.142 7.142 0 0 1-7.14 7.14 7.142 7.142 0 0 1-7.14-7.14 7.142 7.142 0 0 1 7.14-7.14 7.142 7.142 0 0 1 7.14 7.14z" fill="#33527d"></path><path d="M43.026 34.381a3.555 3.555 0 0 1-7.107 0 3.555 3.555 0 0 1 7.107 0z" fill="#ffffff"></path><g fill="#33527d"><path d="M49.673 9.056c0 .431-.173.877-.518 1.222l-5.48 5.479a1.737 1.737 0 0 1-1.222.518c-.618 0-1.237-.33-1.553-.964-.331-.69-.137-1.517.403-2.056l5.35-5.35c.539-.54 1.366-.733 2.056-.403.634.317.964.935.964 1.554zM35.218 5.556c.305.305.498.742.498 1.23v7.75c0 .487-.193.925-.498 1.23a1.727 1.727 0 0 1-1.78.417c-.722-.254-1.17-.976-1.17-1.74V6.879c0-.763.448-1.485 1.17-1.74a1.727 1.727 0 0 1 1.78.418zM20.043 7.34c.431 0 .877.173 1.222.518l5.48 5.479c.344.345.517.79.517 1.222 0 .619-.33 1.237-.964 1.553-.69.331-1.517.137-2.056-.402l-5.35-5.35c-.54-.54-.734-1.366-.403-2.056a1.727 1.727 0 0 1 1.554-.964z" fill="#33527d"></path></g></g></svg>