<svg viewBox="0 0 511.998 511.998" xmlns="http://www.w3.org/2000/svg"><g><circle cx="165.607" cy="273.407" fill="#365e7d" r="50.231"></circle><path d="M175.76 322.607a49.892 49.892 0 0 1-10.149 1.035c-27.746 0-50.236-22.489-50.236-50.236s22.489-50.236 50.236-50.236c3.481 0 6.871.355 10.149 1.035-22.875 4.678-40.087 24.925-40.087 49.201s17.212 44.523 40.087 49.201z" fill="#2b4d66"></path><ellipse cx="156.41" cy="308.57" fill="#f9f6f9" rx="101.601" ry="39.31"></ellipse><path d="M258.008 308.574c-12.483 22.682-53.24 40.871-101.598 40.871s-89.115-18.188-101.598-40.871c12.483 6.15 53.24 10.666 101.598 10.666s89.116-4.516 101.598-10.666z" fill="#dddaec"></path><path d="M39.032 347.88h426.323v43.251H39.032z" fill="#f9f6f9"></path><path d="M26.389 369.14h451.609v97.569H26.389z" fill="#9d6b6b"></path><path d="M26.389 369.14h40.665v97.569H26.389z" fill="#8b5e5e"></path><path d="M36.492 511.908H18.317C8.201 511.908 0 503.707 0 493.591V202.169c0-10.116 8.201-18.317 18.317-18.317h18.175c10.116 0 18.317 8.201 18.317 18.317v291.422c0 10.116-8.201 18.317-18.317 18.317z" fill="#9d6b6b"></path><path d="M39.032 511.728c-.832.122-1.674.183-2.537.183H18.318C8.2 511.91 0 503.71 0 493.592V202.164c0-10.108 8.2-18.308 18.318-18.308h18.176c.863 0 1.705.061 2.537.183-8.91 1.218-15.791 8.87-15.791 18.126v291.428c0 9.255 6.881 16.917 15.792 18.135z" fill="#8b5e5e"></path><path d="M215.915 190.487h-30.599a7.61 7.61 0 0 1-6.378-11.767l22.22-34.101h-14.902a7.61 7.61 0 1 1 0-15.222h28.946a7.61 7.61 0 0 1 6.378 11.767l-22.22 34.101h16.555a7.61 7.61 0 1 1 0 15.222zM176.473 121.006h-44.095A7.61 7.61 0 0 1 126 109.239l35.401-54.332h-27.669a7.61 7.61 0 1 1 0-15.222h41.712a7.61 7.61 0 0 1 6.378 11.767l-35.401 54.332h30.051a7.61 7.61 0 0 1 .001 15.222z" fill="#dddaec"></path><path d="m449.574 312.257 15.781 35.623-15.781 27.765-93.57 62.363-199.593-90.13c0-29.33 3.572-52.489 7.703-69.457 5.348-21.982 24.052-38.179 46.592-40.158 3.39-.294 6.992-.558 10.798-.761a334.45 334.45 0 0 1 18.623-.467c17.672.059 35.074 24.531 57.358 28.679 23.991 4.466 53.143-10.965 79.862 1.311 23.848 10.95 48.246 25.655 72.227 45.232z" fill="#9dc6fb"></path><path d="m356.004 438.008-199.593-90.13c0-29.33 3.572-52.489 7.703-69.457 5.348-21.982 24.052-38.179 46.592-40.158 3.39-.294 6.992-.558 10.798-.761-10.149 39.884-10.94 126.513 134.5 200.506z" fill="#698ed5"></path><path d="m377.346 267.024-65.116 46.331c-6.528 4.645-15.586 3.118-20.231-3.41l-51.873-72.91c36.698.122 85.685 6.312 137.22 29.989z" fill="#f9f6f9"></path><circle cx="388.854" cy="123.231" fill="#d3effb" r="116.07"></circle><path d="M409.135 237.619a115.815 115.815 0 0 1-19.784 1.686c-64.104 0-116.074-51.97-116.074-116.074S325.247 7.157 389.351 7.157c6.743 0 13.357.572 19.784 1.686-54.671 9.384-96.28 57.027-96.28 114.388s41.61 105.003 96.28 114.388z" fill="#9dc6fb"></path><path d="M388.854 138.017h-53.926c-8.166 0-14.786-6.62-14.786-14.786s6.62-14.786 14.786-14.786h53.926c8.166 0 0 6.62 0 14.786v14.786z" fill="#365e7d"></path><path d="M388.854 138.017c-8.166 0-14.786-6.62-14.786-14.786V85.475c0-8.166 6.62-14.786 14.786-14.786s14.786 6.62 14.786 14.786v37.756c.001 8.166-6.62 14.786-14.786 14.786z" fill="#2b4d66"></path><g fill="#365e7d"><path d="M388.855 41.292a7.073 7.073 0 0 1-7.073-7.073V10.82a7.073 7.073 0 1 1 14.146 0v23.399a7.073 7.073 0 0 1-7.073 7.073zM388.855 242.715a7.073 7.073 0 0 1-7.073-7.073v-23.399a7.073 7.073 0 1 1 14.146 0v23.399a7.073 7.073 0 0 1-7.073 7.073zM501.265 130.304h-23.399a7.073 7.073 0 1 1 0-14.146h23.399a7.073 7.073 0 1 1 0 14.146zM299.842 130.304h-23.399a7.073 7.073 0 0 1 0-14.146h23.399a7.073 7.073 0 1 1 0 14.146zM474.25 81.005a7.073 7.073 0 0 1-3.543-13.2l11.962-6.906a7.073 7.073 0 0 1 7.073 12.251l-11.962 6.906a7.04 7.04 0 0 1-3.53.949zM291.51 186.51a7.073 7.073 0 0 1-3.543-13.2l11.961-6.906a7.073 7.073 0 1 1 7.073 12.251l-11.961 6.906a7.03 7.03 0 0 1-3.53.949zM438.148 44.915a7.073 7.073 0 0 1-6.119-10.611l6.906-11.961a7.073 7.073 0 0 1 12.251 7.073l-6.906 11.961a7.07 7.07 0 0 1-6.132 3.538zM332.643 227.655a7.073 7.073 0 0 1-6.119-10.611l6.905-11.961a7.073 7.073 0 0 1 12.251 7.073l-6.905 11.961a7.07 7.07 0 0 1-6.132 3.538zM339.561 44.915a7.071 7.071 0 0 1-6.132-3.538l-6.905-11.961a7.073 7.073 0 0 1 12.251-7.073l6.905 11.961a7.073 7.073 0 0 1-6.119 10.611zM445.067 227.655a7.071 7.071 0 0 1-6.132-3.537l-6.906-11.961a7.073 7.073 0 1 1 12.251-7.073l6.906 11.961a7.072 7.072 0 0 1-6.119 10.61zM303.458 81.005a7.04 7.04 0 0 1-3.53-.949l-11.961-6.906a7.073 7.073 0 0 1 7.073-12.251l11.961 6.906a7.073 7.073 0 0 1-3.543 13.2zM486.199 186.51c-1.2 0-2.416-.306-3.53-.949l-11.962-6.906a7.073 7.073 0 0 1-2.589-9.662 7.07 7.07 0 0 1 9.662-2.589l11.962 6.906a7.073 7.073 0 0 1-3.543 13.2z" fill="#365e7d"></path></g><path d="M388.855 246.374c-67.902 0-123.143-55.242-123.143-123.143S320.953.088 388.855.088 511.998 55.33 511.998 123.231s-55.241 123.143-123.143 123.143zm0-232.14c-60.101 0-108.997 48.896-108.997 108.997s48.896 108.997 108.997 108.997 108.997-48.896 108.997-108.997c0-60.102-48.896-108.997-108.997-108.997z" fill="#95d6a4"></path><path d="M486.069 511.908h-18.175c-10.116 0-18.317-8.201-18.317-18.317V312.252c0-10.116 8.201-18.317 18.317-18.317h18.175c10.116 0 18.317 8.201 18.317 18.317v181.339c0 10.116-8.2 18.317-18.317 18.317z" fill="#9d6b6b"></path><path d="M487.868 511.819a17.63 17.63 0 0 1-1.807.091h-18.166c-10.118 0-18.318-8.2-18.318-18.318V312.257c0-10.118 8.2-18.318 18.318-18.318h18.166c.609 0 1.218.03 1.807.091-9.266.903-16.502 8.717-16.502 18.227v181.336c0 9.509 7.236 17.323 16.502 18.226z" fill="#8b5e5e"></path></g></svg>