<svg viewBox="0 0 497.177 497.177" xmlns="http://www.w3.org/2000/svg"><g><path d="M150.35 458.049C68.431 449.5 36.431 403.5 36.431 403.5c90-128 155.213-257.957 155.213-257.957h113.891S370.748 275.5 460.748 403.5c0 0-32.316 46-113.919 54.549z" fill="#fe93bc"></path><path d="M305.534 145.543h-40S330.747 275.5 420.747 403.5c0 0-32.316 46-113.919 54.549h40C428.431 449.5 460.747 403.5 460.747 403.5c-90-128-155.213-257.957-155.213-257.957z" fill="#fe7aac"></path><path d="M287.525 155.582s20.721 165.746 62.565 315.615c-31.619 17.559-68.972 26.5-101.394 25.958-59.113 0-101.925-25.958-101.925-25.958 41.845-149.869 62.815-316.243 62.815-316.243l.345-13.453h76.5z" fill="#fe66a0"></path><g fill="#fe93bc"><path d="M168.719 89.344c-36.622 0-58.622-31.178-58.622-31.178C150.35 39.5 162.97 0 162.97 0h12.007zM328.459 89.344c36.622 0 58.622-31.178 58.622-31.178C346.828 39.5 334.207 0 334.207 0h-16.602zM186.052 0c0 21.659 15.441 28.463 38.002 42.579 22.291 13.947 24.377 37.203 24.377 37.203s2.086-23.256 24.377-37.203c22.56-14.116 38.001-20.92 38.001-42.579v90.5H186.052z" fill="#fe93bc"></path></g><path d="M305.218 145.543C346.097 79.782 333.891 0 333.891 0h-23.082s13.147 79.782-62.379 79.782S186.052 0 186.052 0H162.97s-11.54 79.782 28.673 145.543c42.563 18.696 71.013 18.696 113.575 0z" fill="#ffd6e8"></path><path d="M333.891 0h-23.082s6.828 41.463-17.658 64.607c-3.453 25.086-11.296 54.172-27.934 80.936-13.362 5.87-25.333 9.894-36.787 12.078 25.029 4.773 47.587.748 76.787-12.078C346.097 79.782 333.891 0 333.891 0z" fill="#ffcce2"></path><path d="m397.451 145.543 9.486 21.483 17.345 9.486-17.345 9.486-9.486 21.483-9.486-21.483-17.345-9.486 17.345-9.486zM92.494 271.891l13.177 29.84 24.093 13.177-24.093 13.177-13.177 29.84-13.176-29.84-24.093-13.177 24.093-13.177z" fill="#ffed59"></path></g></svg>