<svg viewBox="0 0 68 68" xmlns="http://www.w3.org/2000/svg"><g><path d="M66 61.4v.2c0 1.4-1.1 3.8-2.7 3.8H4.7c-1.5 0-2.6-2.4-2.7-3.8v-.2h.9l5.8-10c0-2 50.5-2 50.5 0l5.8 10z" fill="#1d2943"></path><path d="m65.6 60.1-6.4-10.9c0-2-50.5-2-50.5 0L2.4 60.1c-1 1.8.2 4 2.3 4h58.6c2.1 0 3.4-2.2 2.3-4z" fill="#4c5c75"></path><path d="M61.1 61.7c-1.9-.3-3.8-.4-5.7-.5-1.8 0-3.9 0-5.7.2 1.8.3 3.9.4 5.7.5 1.9 0 3.8 0 5.7-.2z" fill="#ffffff"></path><path d="M11.4 16h45.2c1.5 0 2.7 1.2 2.7 2.7v30.5H8.7V18.7c0-1.5 1.2-2.7 2.7-2.7z" fill="#4c5c75"></path><path d="M8.7 18.7c0-.8.4-1.5 1-2 .8 4.2 7.4 28 49.6 32.6H8.7z" fill="#1d2943"></path><path d="M12.9 19.2h42.2c.6 0 1 .4 1 1V45c0 .6-.4 1-1 1H12.9c-.6 0-1-.4-1-1V20.2c0-.6.5-1 1-1z" fill="#ffffff"></path><path d="M59.4 55.2 57 51.5c-.1-.2-.3-.3-.5-.3H10.7c-.2 0-.4.1-.6.3L8 55.2c-.2.4.1.9.6.9h50.2c.5.1.8-.5.6-.9zM39.3 58.1h-11c-.2 0-.4.1-.6.3l-1.3 2.2c-.2.4.1.9.6.9h13.7c.5 0 .8-.6.5-1l-1.5-2.2c0-.1-.2-.2-.4-.2z" fill="#1d2943"></path><path d="M11.9 45V23c3.4 7 11.5 17.4 30.9 23.1H12.9c-.5-.1-1-.5-1-1.1z" fill="#e3e7f0"></path><path d="M14 32.2c-.4 1.9-.5 3.8-.5 5.7 0 1.8.1 3.9.5 5.7.4-1.8.5-3.9.5-5.7 0-1.9-.1-3.8-.5-5.7z" fill="#ffffff"></path><path d="M28.1 25.3c-3.4 3.4-5 8.8-5.5 11.4-.2.8.5 1.4 1.2 1.2 2.6-.6 8-2.1 11.4-5.5z" fill="#ffd06c"></path><path d="M29.5 26.6c-2.1 2.1-3 5.4-3.4 7-.1.5.3.9.8.8 1.6-.3 4.9-1.3 7-3.4z" fill="#febc1f"></path><path d="M57.9 5c0-1.3-1.1-2.4-2.4-2.4-2.9 0-8.7 1.4-16.6 9.3L27.1 23.7c-1.6 1.6 8 11.3 9.6 9.6l11.8-11.8c8-7.8 9.3-13.6 9.4-16.5z" fill="#e9e7fc"></path><path d="m36.8 33.4 11.8-11.8c7.9-7.9 9.3-13.7 9.3-16.6 0 0-10.1 21.7-29.9 18.6-.2 0-.4-.1-.7-.1l-.2.2c-1.6 1.6 8.1 11.3 9.7 9.7z" fill="#dedffb"></path><path d="M48.3 19.1c2.3-.6 4.5-2.8 5.2-5-1.6 2.1-2.6 3.2-5.2 5z" fill="#ffffff"></path><path d="M56.1 11.5c1.4-2.8 1.7-5 1.8-6.5 0-1.3-1.1-2.4-2.4-2.4-1.5 0-3.7.4-6.5 1.8 1.3 2.3 4.8 5.8 7.1 7.1z" fill="#fa5f7f"></path><path d="M56.1 11.5c-.5-.3-1-.6-1.5-1.1 2.2-3 3.3-5.4 3.3-5.4 0 .1-.1 1-.1 1.2-.2 1.4-.6 3.2-1.7 5.3z" fill="#f34b58"></path><circle cx="43.3" cy="17.2" fill="#4c5c75" r="2.5" transform="rotate(-44.93 43.308 17.235)"></circle><path d="M42 17.5c-.5-.5-.7-1.1-.7-1.8-.8 1-.7 2.4.2 3.3 1 1 2.6 1 3.6 0 .5-.5.7-1.1.7-1.8-.1.1-.1.2-.2.3-1 1-2.6 1-3.6 0z" fill="#1d2943"></path><path d="M42.1 18.4c-.7-.7-.7-1.8 0-2.4.7-.7 1.8-.7 2.4 0 .7.7.7 1.8 0 2.4-.7.7-1.8.7-2.4 0z" fill="#57b3fe"></path><path d="M42 17.5c-.2-.2-.3-.4-.4-.6-.1.6 0 1.1.5 1.6.7.7 1.8.7 2.4 0 .1-.1.2-.3.3-.4-.9.3-2 .1-2.8-.6z" fill="#5094ff"></path><circle cx="48.8" cy="11.7" fill="#4c5c75" r="3.2" transform="rotate(-44.93 48.842 11.7)"></circle><path d="M47.2 12c-.6-.6-.9-1.4-.9-2.3-1 1.2-.9 3 .3 4.2s3.2 1.2 4.5 0c.6-.6.9-1.4.9-2.2l-.3.3c-1.2 1.3-3.2 1.3-4.5 0z" fill="#1d2943"></path><path d="M47.3 13.2c-.9-.9-.9-2.2 0-3.1.8-.8 2.2-.8 3.1 0 .9.9.9 2.2 0 3.1s-2.3.9-3.1 0z" fill="#57b3fe"></path><path d="M47.2 12c-.2-.2-.4-.5-.6-.8-.1.7.1 1.4.6 2 .9.9 2.2.9 3.1 0 .2-.2.3-.3.4-.5-1.1.5-2.5.3-3.5-.7z" fill="#5094ff"></path><path d="m28.4 22.4-1.3 1.3c-1.6 1.6 8 11.3 9.6 9.6L38 32c-1.5 1.7-11.2-8-9.6-9.6z" fill="#c9cee2"></path><path d="m40.1 21.4.2-.8c.1-.4-.1-.6-.5-.5l-.8.2c-1.6.5-3.3 1.6-4.5 3.2L28 31.8c-.6.7 0 1.4.8.8L37 26c1.5-1.3 2.6-2.9 3.1-4.6z" fill="#fa5f7f"></path><path d="m39.4 22.1.2-.8c.1-.4-.1-.6-.5-.5l-.8.2c-1.6.5-3.3 1.6-4.5 3.2l-6.6 8.2c-.6.7 0 1.4.8.8l8.2-6.6c1.6-1.2 2.7-2.8 3.2-4.5z" fill="#f34b58"></path><path d="M29.2 15.3c.5-.4 1.1-.6 1.6-.7 2.6-.1 5.3.8 5.9 1.5.7.7-5.3 6.4-6.4 6.4-1.9-.2-5.7 0-7.7.1-.6 0-.8-.6-.4-1.1 1.9-1.8 5.6-4.9 7-6.2zM45.2 31.3c.4-.5.6-1.1.7-1.6.1-2.6-.8-5.3-1.5-5.9-.7-.7-6.4 5.2-6.4 6.3.2 1.9 0 5.7-.1 7.7 0 .6.6.8 1.1.4 1.8-1.8 4.9-5.4 6.2-6.9z" fill="#fa5f7f"></path><path d="M28.5 16.1c.5-.4 1.1-.6 1.6-.7 2.6-.1 5.3.8 5.9 1.5.7.7-5.3 6.4-6.4 6.4-1.9-.2-5.7 0-7.7.1-.6 0-.8-.6-.4-1.1 1.9-1.9 5.5-5 7-6.2zM44.5 32c.4-.5.6-1.1.7-1.6.1-2.6-.8-5.3-1.5-5.9-.7-.7-6.4 5.3-6.4 6.4.2 1.9 0 5.7-.1 7.7 0 .6.6.8 1.1.4 1.8-1.9 4.9-5.5 6.2-7z" fill="#f34b58"></path><path d="M43 27.6c.8 1.5.8 3.2 0 4.6 1.5-.8 1.5-3.6 0-4.6z" fill="#ffffff"></path></g></svg>