<svg viewBox="0 0 512 512" xmlns="http://www.w3.org/2000/svg"><g><path d="M133.303 60.188c-6.452-6.452-16.914-6.452-23.366 0L92.412 77.713c-6.452 6.453-6.452 16.914 0 23.366l60.005 60.005L470 462l36.417-12.5.071-16.127z" fill="#e2a975"></path><path d="m507.161 434.046-.673-.673-16.78 16.78c-6.452 6.452-16.914 6.452-23.366 0L204.145 187.957c-9.679-9.679-9.679-25.371 0-35.049l10.939-10.939-53.883-53.883c-10.664 16.434-22.957 31.423-36.254 45.528L466.27 474.937c6.452 6.452 16.914 6.452 23.366 0l17.524-17.524c6.453-6.453 6.453-16.914.001-23.367z" fill="#d19a6e"></path><path d="M103.68 358.521c-9.679-9.679-25.37-9.679-35.049 0L7.259 419.893c-9.679 9.679-9.679 25.371 0 35.049 9.679 9.679 25.371 9.679 35.049 0l61.372-61.372c9.679-9.678 9.679-25.37 0-35.049z" fill="#e2a975"></path><path d="M28.377 459.538c-9.679-9.679-9.679-25.37 0-35.049l69.926-69.926c-9.45-5.343-21.622-4.092-29.673 3.959L7.259 419.893c-9.679 9.679-9.679 25.371 0 35.049 6.352 6.352 15.274 8.45 23.406 6.465-.772-.607-1.576-1.157-2.288-1.869z" fill="#d19a6e"></path><path d="m262.039 44.421-67.691-11.945a16.522 16.522 0 0 0-14.554 4.588L63.662 153.196 65.667 170 107 206.333 268.5 58zM462.535 157.976l-26.462-34.134c11.91 53.997-.615 112.201-41.573 153.159-57.499 57.499-155.392 73.739-221 31.25l-18.305-1.243-27.733 27.734c77.428 77.428 202.965 77.428 280.393 0 48.058-48.06 66.281-114.649 54.68-176.766z" fill="#dad8db"></path><path d="m407.855 54.347-.112-.112c-1.111-1.109-2.862.381-1.954 1.661 46.917 66.109 40.867 158.262-18.38 217.509-57.499 57.498-145.979 64.852-211.587 22.363-3.298-2.135-7.597-1.792-10.375.986l-10.253 10.253c32.307 25.399 73.018 40.591 117.303 40.591 104.788 0 189.79-84.972 190.032-189.703-7.08-37.984-25.289-74.163-54.674-103.548z" fill="#eceaec"></path><circle cx="115.778" cy="346.423" fill="#dad8db" r="20.653"></circle><path d="m269.557 45.748-7.518-1.327-130.21 130.21c-12.905 12.905-33.827 12.905-46.732 0l-21.435-21.435-12.14 12.14a8.261 8.261 0 0 0 0 11.683l46.732 46.732a8.261 8.261 0 0 0 11.683 0L273.963 59.725c4.726-4.726 2.176-12.816-4.406-13.977z" fill="#c8c5c9"></path></g></svg>