<svg viewBox="0 0 64 64" xmlns="http://www.w3.org/2000/svg"><g><path d="m25 23-2 8-4.4 4.4a2.053 2.053 0 0 0-.6 1.453v.094A2.055 2.055 0 0 0 20.055 39a2.052 2.052 0 0 0 1.56-.718L27 32l2-9z" fill="#0a68c6"></path><path d="M3 41v20h14l1.7-11.925a4 4 0 0 1 2.171-3.012L27 43l-.894-1.789A4 4 0 0 0 22.528 39H5a2 2 0 0 0-2 2z" fill="#ffc9bd"></path><path d="M30 16.667V15a2 2 0 0 0-2-2 2 2 0 0 0-2 2v2.306a2 2 0 0 0 1.671 1.973l8.606 1.434A1.48 1.48 0 0 0 38 19.253a1.48 1.48 0 0 0-1.236-1.459z" fill="#0a68c6"></path><circle cx="29" cy="7" fill="#2678db" r="4"></circle><path d="M33 23v-8a4 4 0 0 0-4-4h-2.127a4 4 0 0 0-3.073 1.439l-3.15 3.781A4.007 4.007 0 0 0 19.8 18l-1.442 7.21A1.5 1.5 0 0 0 19.829 27a1.5 1.5 0 0 0 1.455-1.136l1.645-6.582a1.061 1.061 0 0 1 .277-.488 1.051 1.051 0 0 1 1.794.743V23a4 4 0 0 0 4 4h7v6a2 2 0 0 0 2 2 2 2 0 0 0 2-2v-8a2 2 0 0 0-2-2z" fill="#2678db"></path><path d="M61 37v24H47l-1.743-15.683a4 4 0 0 0-2.4-3.235L38 40l-.522-2.608A2 2 0 0 1 39.44 35H59a2 2 0 0 1 2 2z" fill="#ffc9bd"></path><g fill="#f9a99b"><path d="M11.83 50.55A1 1 0 0 1 11 51a.939.939 0 0 1-.55-.17l-3-2A1 1 0 0 1 7 48v-2.22l-4-1v-2.06l4.69 1.17 1.6-1.6a1 1 0 0 1 1.42 1.42L9 45.41v2.05l2.55 1.71a.988.988 0 0 1 .28 1.38zM17.71 56l-.28 2H13a.977.977 0 0 1-.89-.55l-1-2a1 1 0 1 1 1.78-.9l.73 1.45zM53.83 53.55A1 1 0 0 1 53 54a.939.939 0 0 1-.55-.17l-2.6-1.73-3.7 1.24-.23-2.04L49 50.28V47a1 1 0 0 1 2 0v3.46l2.55 1.71a.988.988 0 0 1 .28 1.38zM61 41v2h-3.28l-.77 2.32A1 1 0 0 1 56 46a1.248 1.248 0 0 1-.32-.05 1.011 1.011 0 0 1-.63-1.27l1-3A1.014 1.014 0 0 1 57 41z" fill="#f9a99b"></path></g></g></svg>