<svg viewBox="0 0 487 487" xmlns="http://www.w3.org/2000/svg"><g><path d="m441.166 38.262 1.695-.256c7.843.28 15.149 5.729 15.666 15.818l.055 6.825c.115 8.729 3.525 18.193 10.854 22.936 5.934 3.84 13.106 1.025 13.106-6.043l.452-.584V36.523c0-17.449-17.407-29.541-33.759-23.452l-3.106 1.157-10.268 6.208z" fill="#b57f5f"></path><path d="M479.231 75.592a26.095 26.095 0 0 1-11.915-21.565l-.132-10.014c-.082-6.213-5.228-11.749-11.261-13.925-3.179-1.147-5.73-3.57-6.791-6.779l-3.003-9.082-11.959 4.453 7.421 21.009 1.403-.19c7.843.28 14.086 6.666 14.19 14.513l.132 10.014a26.095 26.095 0 0 0 11.915 21.565c5.934 3.84 13.763-.419 13.763-7.487v-1.147a8.838 8.838 0 0 1-3.763-1.365z" fill="#9f6e50"></path><path d="M373.819 26C381.989 1.032 406.351.436 406.351.436l6.143.374c17.395 3.803 30.5 20.574 30.5 40.69 0 10.872-3.828 20.768-10.093 28.168z" fill="#b57f5f"></path><path d="M384.734 26c4.719-12.791 15.105-22.422 27.761-25.19a35.078 35.078 0 0 0-7.5-.81c-15.969 0-29.638 10.758-35.261 26l6.085 3.117c1.82-2.15 8.915-3.117 8.915-3.117z" fill="#9f6e50"></path><path d="M421.495 66v41h-30V68z" fill="#f2bb88"></path><path d="m431.947 68.074-19.014-30.867A23.665 23.665 0 0 0 392.813 26h-23.08c-1.767 4.789-2.739 10.02-2.739 15.5 0 40.5 9 41.5 38 41.5 11.031 0 20.965-5.133 27.907-13.332z" fill="#f2d1a5"></path><path d="M283.002 143.001a7.496 7.496 0 0 1-6.493-3.735l-18-31a7.501 7.501 0 0 1 12.973-7.531l21.019 36.298c2.079 3.582-2.157 2.874-5.739 4.954a7.482 7.482 0 0 1-3.76 1.014z" fill="#635a63"></path><path d="M301.181 179.543c-19.882 0-34.277-16.139-34.277-36.021l.09-1.021a5 5 0 0 1 5-5l7-2h53a5 5 0 0 1 5 5v6a35.84 35.84 0 0 1-7.51 22.003c-6.584 8.512-16.708 11.039-28.303 11.039z" fill="#857e87"></path><path d="M278.995 135.5h-9a5 5 0 0 0-5 5v6c0 19.882 16.118 36 36 36 11.595 0 21.906-5.484 28.49-13.997l-17.49-.003c-18.226 0-33-14.774-33-33z" fill="#6f6571"></path><path d="m418.687 443-4.208 11.372-36.19-.635L373.371 258h62a56.162 56.162 0 0 1 10.302 44.384z" fill="#f8f7f7"></path><path d="m389.126 433.251-4.112-163.664L370.371 258l5 199 2.831 3.734h34.872L416 457l2.687-14h-19.564a10 10 0 0 1-9.997-9.749z" fill="#e8e8e8"></path><path d="m410.777 485.383-62.872.117c-1.657 0-3-3-3-3 0-16.064 15.038-23.56 15.038-23.56a26.921 26.921 0 0 1 10.058-1.94h46v15l-2.223 10.383a3.002 3.002 0 0 1-3.001 3z" fill="#bde4ff"></path><path d="M363.479 472c-2.521 0-5.872-1.479-5.285-6.193 0 0 .499-3.758 1.748-6.867C350.012 462.929 343 472.644 343 484a3 3 0 0 0 3 3h67a3 3 0 0 0 3-3v-12z" fill="#99dbff"></path><path d="m448.415 270.011-85.191.043V154.436c0-10.819 2.359-22.661 9.702-30.606l13.64-15.497 4.929-5.333h30l10.782 10.605a66 66 0 0 1 19.718 47.053V258z" fill="#bde4ff"></path><path d="M385.995 258c-5.523 0-10-4.477-10-10V137.828c0-10.819 3.228-21.55 10.571-29.495l-14.149 15.309a43.002 43.002 0 0 0-11.422 29.186V268a5 5 0 0 0 5 5h81a5 5 0 0 0 5-5v-10z" fill="#99dbff"></path><path d="m341.266 207.883-42.72.617c-12.804 0-23.356-8.317-26.131-20.277-.727-3.132 1.872-3.234 1.872-3.234l8.058-2.489h52.65z" fill="#f2d1a5"></path><path d="M305.995 196.5c-10.195 0-19.055-5.66-23.65-14h-7.772c-3.215 0-5.607 2.995-4.88 6.128 2.775 11.96 13.498 20.872 26.302 20.872h42v-13z" fill="#f2bb88"></path><path d="M390.926 218.287h-47.234a5 5 0 0 1-5-5l-.617-25.66 10.92-5.127h34.182c1.652 0 5.067-.954 5.073-2.607l.058-51.245c.045-8.929 4.02-22.208 12.11-24.738a19.97 19.97 0 0 1 6.076-.911c11.046.056 19.955 9.055 19.899 20.1l-.345 68.555a30.842 30.842 0 0 1-5.079 16.846c-5.54 8.435-19.205 9.787-30.043 9.787z" fill="#f8f7f7"></path><g fill="#e8e8e8"><path d="m400.14 171.546.278-67.635c-8.089 2.53-13.979 10.06-14.024 18.989l-.217 56.612c-.002.218-.032 1.229-.838 2.067-.863.898-1.966.92-2.162.921h5.964c6.057 0 10.974-4.897 10.999-10.954zM348.995 193.5v-11h-14v35a5 5 0 0 0 5 5h55.055c10.838 0 20.379-5.566 25.921-13.998l-56.976-.002c-8.285 0-15-6.715-15-15z" fill="#e8e8e8"></path></g><path d="m125.005 191-34 7v-41h34z" fill="#f2bb88"></path><ellipse cx="106.505" cy="120.691" fill="#f2d1a5" rx="45.5" ry="49.691"></ellipse><path d="M82.505 127.5h-20c-8.837 0-14.175-4.901-14.175-13.738 0-10.092 10.173-15.747 10.173-15.747 1.28-.33 2.619-.515 4.002-.515h20c8.837 0 16 7.163 16 16 0 .678-.049 1.345-.131 2.001 0 0-4.289 11.999-15.869 11.999z" fill="#e8e8e8"></path><path d="m58.505 102.5-.002-4.485c-6.897 1.779-11.998 8.032-11.998 15.485 0 8.837 7.163 16 16 16h20c8.158 0 14.883-6.109 15.869-13.999l-26.869-.001c-7.179 0-13-5.82-13-13z" fill="#d8d8d8"></path><path d="m77.947 277.67-35.941 21.957V230c0-7.947 4.182-18.451 11.999-18.967.331-.022.664-.033 1.001-.033 8.837 0 16 7.163 16 16z" fill="#6f6571"></path><path d="m54.005 303-.001-91.967c-7.816.517-13.999 7.02-13.999 14.967v77.032z" fill="#635a63"></path><path d="m212.415 452.734 66.59-.734c0-4.312 1.987-8.386.19-12.001-4.419-8.889-13.59-14.999-24.19-14.999h-6l-19.761-4-17.17 1.691z" fill="#f8f7f7"></path><path d="m226.005 425-5.574-4-11.426 4v30l3.06 3.168 69.94-.168v-6c0-4.312-1.013-8.386-2.811-12.001l-38.189.001c-8.284 0-15-6.716-15-15z" fill="#e8e8e8"></path><path d="m250.298 410-41.293 3.84-13.335-95.426L212.604 309h19.153c14.654 0 26.166 12.547 24.908 27.147z" fill="#c38c66"></path><path d="M250.298 410c-9.59 0-17.174-8.26-16.193-17.8.429-4.175.65-8.411.65-12.7 0-25.962-6.042-50.635-19.75-70.5l-2.692-1.591-22.046-2.661 2.738 39.316V425h56z" fill="#b57f5f"></path><circle cx="111.505" cy="379.5" fill="#f8f7f7" r="77.5"></circle><path d="M112.005 468a7.499 7.499 0 0 1-7.5-7.5v-162c0-4.143 3.357-7.5 7.5-7.5s7.5 3.357 7.5 7.5v162a7.5 7.5 0 0 1-7.5 7.5z" fill="#635a63"></path><path d="M193.005 387h-162c-4.143 0-7.5-3.357-7.5-7.5s3.357-7.5 7.5-7.5h162c4.143 0 7.5 3.357 7.5 7.5s-3.358 7.5-7.5 7.5z" fill="#635a63"></path><path d="M54.729 444.275a7.5 7.5 0 0 1-5.304-12.803l114.552-114.551a7.5 7.5 0 0 1 10.607 10.607L60.033 442.079a7.481 7.481 0 0 1-5.304 2.196z" fill="#635a63"></path><path d="M169.281 444.275a7.481 7.481 0 0 1-5.304-2.196L49.426 327.528a7.5 7.5 0 0 1 10.607-10.607l114.552 114.551a7.5 7.5 0 0 1-5.304 12.803z" fill="#635a63"></path><path d="M111.505 272c-25.051 0-48.038 8.65-66.379 22.936C8.005 323.85 8.005 360.394 8.005 379.5c0 59.371 44.129 103.5 103.5 103.5 48.058 0 78.381-29.934 78.381-29.934 18.056-19.231 29.119-45.106 29.119-73.566 0-59.371-48.129-107.5-107.5-107.5zm0 185c-42.802 0-77.5-34.698-77.5-77.5s34.698-77.5 77.5-77.5 77.5 34.698 77.5 77.5-34.698 77.5-77.5 77.5z" fill="#857e87"></path><path d="M123.505 476c-59.371 0-107.5-48.129-107.5-107.5 0-23.312 5.211-46.269 18.852-64.475C15.634 323.146 4.005 350.166 4.005 379.5c0 59.371 48.129 107.5 107.5 107.5 30.91 0 58.771-13.048 78.381-33.934C171.609 467.433 148.557 476 123.505 476z" fill="#6f6571"></path><path d="M137.005 379.5c0-14.083-11.417-25.5-25.5-25.5-3.942 0-7.675.895-11.007 2.492-8.572 4.109-11.493 12.867-11.493 23.008 0 14.083 8.417 22.5 22.5 22.5 10.141 0 18.899-2.92 23.008-11.493a25.398 25.398 0 0 0 2.492-11.007z" fill="#857e87"></path><path d="M123.505 393c-14.083 0-25.5-11.417-25.5-25.5 0-3.942.895-7.675 2.493-11.008-8.572 4.109-14.493 12.867-14.493 23.008 0 14.083 11.417 25.5 25.5 25.5 10.141 0 18.899-5.92 23.008-14.493A25.39 25.39 0 0 1 123.505 393z" fill="#6f6571"></path><path d="M162.005 306v-25l15-3h7c11.679 0 21.846 6.459 27.132 15.999l.868 12.001z" fill="#f2d1a5"></path><path d="M177.005 278h-20v31h58a30.857 30.857 0 0 0-3.868-15.001l-18.132.001c-8.836 0-16-7.163-16-16z" fill="#f2bb88"></path><path d="M151.005 274h-76v-43c0-15.738 3.41-30.557 16-40h34a84.72 84.72 0 0 1 26 61.069z" fill="#afefa5"></path><path d="m103.999 306 54.799-.585L162.014 294v-18.833a5 5 0 0 0-5-5h-42.902a3 3 0 0 1-3-2.985l-.283-56.366c-.055-10.999-9.017-19.872-20.016-19.816a19.93 19.93 0 0 0-4.819.624c-8.657 2.2-12.044 17.056-11.997 26.392L73.999 276c.001 16.569 13.432 30 30 30z" fill="#8ce1a4"></path><path d="M110.999 294c-13.807 0-25-11.193-25-24.999l-.005-77.376c-8.656 2.201-15.044 10.058-14.997 19.392l.002 67.984c0 16.568 13.432 29.999 30 29.999h61.015v-15z" fill="#7ad396"></path><path d="m278.968 477.16-61.894-.16a5 5 0 0 1-5-5v-13.057l9.931-3.943h62.5c6.904 0 12.5 5.596 12.5 12.5 0 .168-.011.334-.018.5-.262 6.672-11.283 9.16-18.019 9.16z" fill="#857e87"></path><path d="M227.005 468a5 5 0 0 1-5-5v-8h-13v20a5 5 0 0 0 5 5h70.5c6.735 0 12.218-5.33 12.482-12z" fill="#6f6571"></path></g></svg>