<svg viewBox="0 0 64 64" xmlns="http://www.w3.org/2000/svg"><g><path d="M64 23.27c0-8.823-7.178-16-16-16s-16 7.177-16 16c0 7.783 5.588 14.278 12.961 15.702v5.664h-3.42a3.04 3.04 0 0 0 0 6.078h3.42v2.971a3.04 3.04 0 0 0 6.078 0v-2.971h3.42a3.04 3.04 0 0 0 0-6.078h-3.42v-5.664C58.412 37.548 64 31.052 64 23.27zm-25.922 0c0-5.472 4.451-9.923 9.922-9.923s9.922 4.451 9.922 9.922c0 5.472-4.451 9.923-9.922 9.923s-9.922-4.451-9.922-9.923z" fill="#fda5f2"></path><path d="M51.043 38.97v5.673h3.417a3.035 3.035 0 0 1 3.039 3.039 3.043 3.043 0 0 1-3.039 3.038h-3.417v2.972a3.043 3.043 0 0 1-3.039 3.039 3.035 3.035 0 0 1-3.038-3.04v-2.97h-3.43a2.96 2.96 0 0 1-1.04-.19c3.39-3.092 8.913-9.21 11.547-18.206a9.923 9.923 0 0 0 5.875-9.062 9.906 9.906 0 0 0-5.12-8.67 39.897 39.897 0 0 0-2.133-7.091c7.563 1.256 13.33 7.847 13.33 15.761 0 7.793-5.578 14.29-12.952 15.707z" fill="#000000" opacity=".1"></path><path d="M19.039 25.022v-7.855l1.275 1.157a3.025 3.025 0 0 0 2.04.788 3.04 3.04 0 0 0 2.043-5.29l-6.355-5.765-.01.006A3.017 3.017 0 0 0 16 7.27c-.786 0-1.495.307-2.035.797l-.007-.009-6.356 5.766a3.04 3.04 0 0 0 2.043 5.29c.728 0 1.46-.261 2.04-.789l1.276-1.157v7.855C5.588 26.447 0 32.942 0 40.724c0 8.823 7.178 16 16 16s16-7.177 16-16c0-7.783-5.588-14.277-12.961-15.702zM16 50.647c-5.47 0-9.922-4.452-9.922-9.923s4.451-9.922 9.922-9.922 9.922 4.451 9.922 9.922-4.451 9.923-9.922 9.923z" fill="#79b6ef"></path><path d="M19.943 17.996a39.01 39.01 0 0 0-2.66-10.427c.27.122.526.297.742.5l.014-.014 6.36 5.767a3.036 3.036 0 0 1 .203 4.295c-.594.662-1.418 1-2.242 1-.729 0-1.458-.27-2.052-.797zM32.004 40.726c0 8.82-7.185 16.005-16.005 16.005a15.87 15.87 0 0 1-10.75-4.174 39.138 39.138 0 0 0 4.443-4.187 9.856 9.856 0 0 0 6.307 2.283c5.47 0 9.927-4.457 9.927-9.927 0-4.403-2.877-8.144-6.861-9.44.365-1.46.662-2.999.85-4.592.055-.487.109-.973.15-1.446 6.86 1.81 11.939 8.063 11.939 15.478z" fill="#000000" opacity=".1"></path></g></svg>