<svg viewBox="0 0 64 64" xmlns="http://www.w3.org/2000/svg"><g><path d="M36 2c6.076 0 11 10.745 11 24s-4.923 24-11 24H18C11.926 50 7 39.255 7 26S11.926 2 18 2z" fill="#43525b"></path><ellipse cx="18.001" cy="26" fill="#aab1b7" rx="11" ry="24"></ellipse><path d="M18 2a5.694 5.694 0 0 0-3.031.93C11.977 7.219 10 14.6 10 23c0 13.255 4.925 24 11 24a5.688 5.688 0 0 0 3.031-.93C27.024 41.781 29 34.4 29 26c0-13.255-4.923-24-11-24z" fill="#cacbcd"></path><ellipse cx="18.001" cy="26" fill="#43525b" rx="5" ry="11"></ellipse><path d="M29 26v29.172A6.831 6.831 0 0 0 31 60a6.829 6.829 0 0 0 4.829 2H57l-7.171-7.171A9.664 9.664 0 0 1 47 48V26" fill="#43525b"></path><g fill="#161d23"><path d="M18 50h11V26c0 13.255-4.925 24-11 24zM22.489 30.827A22.336 22.336 0 0 0 23 26a19.266 19.266 0 0 0-1.489-7.827A22.336 22.336 0 0 0 21 23a19.266 19.266 0 0 0 1.489 7.827z" fill="#161d23"></path></g></g></svg>