<svg viewBox="0 0 512 512" xmlns="http://www.w3.org/2000/svg"><g><path d="M256 22C120.69 22 11 131.69 11 267l.002.145 1.583 1.582a75.214 75.214 0 0 0 23.25 3.673c15.403 0 30.226-4.622 42.864-13.367a2.045 2.045 0 0 1 2.338 0c12.639 8.745 27.461 13.367 42.865 13.367 15.403 0 30.226-4.622 42.864-13.367a2.045 2.045 0 0 1 2.337 0c12.639 8.745 27.461 13.367 42.865 13.367s30.226-4.622 42.864-13.367c.348-.24.752-.368 1.169-.368s.821.128 1.169.368c12.638 8.745 27.46 13.367 42.864 13.367s30.226-4.622 42.864-13.367a2.045 2.045 0 0 1 2.337 0c12.639 8.745 27.461 13.367 42.864 13.367 15.404 0 30.226-4.622 42.864-13.367a2.045 2.045 0 0 1 2.337 0c12.639 8.745 27.461 13.367 42.865 13.367a75.183 75.183 0 0 0 23.249-3.673l1.583-1.582.002-.145C501 131.69 391.31 22 256 22z" fill="#c8effe"></path><path d="M287.481 50.887h-74.289c-5.809 0-10.519 4.709-10.519 10.519 0 5.809 4.709 10.519 10.519 10.519h1.909c5.809 0 10.519 4.709 10.519 10.519 0 5.809-4.709 10.519-10.519 10.519h-25.463a70.377 70.377 0 0 1-10.944 21.038h92.001c5.809 0 10.519-4.709 10.519-10.519s-4.709-10.519-10.519-10.519h-7.013c-5.809 0-10.519-4.709-10.519-10.519 0-5.809 4.709-10.519 10.519-10.519h23.798c5.809 0 10.519-4.709 10.519-10.519.001-5.81-4.708-10.519-10.518-10.519z" fill="#f2fbff"></path><path d="M476.167 298.399c-14.995 0-29.424-4.499-41.727-13.012a4.035 4.035 0 0 0-4.615 0c-12.302 8.513-26.731 13.012-41.726 13.012s-29.423-4.499-41.726-13.012a4.035 4.035 0 0 0-4.615 0c-12.302 8.513-26.731 13.012-41.726 13.012s-29.424-4.499-41.726-13.012a4.032 4.032 0 0 0-4.614 0c-12.302 8.513-26.731 13.012-41.726 13.012s-29.424-4.499-41.727-13.012a4.035 4.035 0 0 0-4.615 0c-12.302 8.513-26.731 13.012-41.726 13.012s-29.424-4.499-41.727-13.012c-.683-.474-1.481-.724-2.307-.724s-1.624.25-2.307.724c-12.302 8.513-26.731 13.012-41.726 13.012a73.208 73.208 0 0 1-21.344-3.189l-1.806.491C26.898 417.484 130.402 512 256 512s229.102-94.516 243.316-216.298l-1.818-.487a73.232 73.232 0 0 1-21.331 3.184z" fill="#0593fc"></path><path d="M35.834 299.4c15.714 0 30.283-4.878 42.295-13.19a3.043 3.043 0 0 1 3.476 0c12.012 8.312 26.582 13.19 42.295 13.19 15.714 0 30.283-4.878 42.295-13.19a3.043 3.043 0 0 1 3.476 0c12.012 8.312 26.582 13.19 42.295 13.19s30.283-4.878 42.295-13.19a3.043 3.043 0 0 1 3.476 0c12.012 8.312 26.582 13.19 42.295 13.19 15.714 0 30.283-4.878 42.295-13.19a3.043 3.043 0 0 1 3.476 0c12.012 8.312 26.582 13.19 42.295 13.19 15.714 0 30.283-4.878 42.295-13.19a3.043 3.043 0 0 1 3.476 0c12.012 8.312 26.582 13.19 42.295 13.19a74.228 74.228 0 0 0 23.149-3.698 247.438 247.438 0 0 0 1.683-28.557 74.226 74.226 0 0 1-24.832 4.255c-15.714 0-30.283-4.878-42.295-13.19a3.043 3.043 0 0 0-3.476 0c-12.012 8.312-26.582 13.19-42.295 13.19-15.714 0-30.283-4.878-42.295-13.19a3.043 3.043 0 0 0-3.476 0c-12.012 8.312-26.582 13.19-42.295 13.19-15.714 0-30.283-4.878-42.295-13.19a3.043 3.043 0 0 0-3.476 0c-12.012 8.312-26.582 13.19-42.295 13.19s-30.283-4.878-42.295-13.19a3.043 3.043 0 0 0-3.476 0c-12.012 8.312-26.582 13.19-42.295 13.19-15.714 0-30.283-4.878-42.295-13.19a3.043 3.043 0 0 0-3.476 0c-12.012 8.312-26.582 13.19-42.295 13.19a74.23 74.23 0 0 1-24.832-4.255c.006 9.662.589 19.187 1.683 28.557a74.224 74.224 0 0 0 23.149 3.698z" fill="#01c0fa"></path><circle cx="122.49" cy="71.5" fill="#fee903" r="71.5"></circle><path d="M91 71.5c0-32.541 21.747-59.986 51.495-68.642A71.478 71.478 0 0 0 122.49 0c-39.488 0-71.5 32.012-71.5 71.5s32.012 71.5 71.5 71.5c6.947 0 13.655-1.01 20.005-2.858C112.747 131.486 91 104.041 91 71.5z" fill="#f4d902"></path><path d="M401.026 194.936h-118.92a5 5 0 1 1 0-10h118.919c8.529 0 15.468-6.938 15.468-15.468S409.555 154 401.026 154c-5.479 0-10.44 2.809-13.268 7.512a4.999 4.999 0 1 1-8.57-5.152c4.583-7.625 12.952-12.36 21.838-12.36 14.043 0 25.468 11.425 25.468 25.468s-11.425 25.468-25.468 25.468zM206.919 236.871H88a5 5 0 1 1 0-10h118.919c8.529 0 15.468-6.938 15.468-15.468s-6.939-15.468-15.468-15.468c-5.479 0-10.44 2.809-13.268 7.512a4.999 4.999 0 1 1-8.57-5.152c4.584-7.624 12.952-12.359 21.838-12.359 14.043 0 25.468 11.425 25.468 25.468s-11.425 25.467-25.468 25.467zM274.106 161.406H215a5 5 0 1 1 0-10h59.106a5 5 0 1 1 0 10zM402.106 238.936h-76a5 5 0 1 1 0-10h76a5 5 0 1 1 0 10z" fill="#99e6fc"></path><path d="M386 366.6c-14.908 0-29.179-4.311-41.5-12.5-12.321 8.189-26.592 12.5-41.5 12.5s-29.179-4.311-41.5-12.5c-12.321 8.189-26.592 12.5-41.5 12.5a5 5 0 1 1 0-10c13.972 0 27.299-4.367 38.539-12.629a5 5 0 0 1 5.923 0c11.24 8.262 24.566 12.629 38.539 12.629s27.299-4.367 38.539-12.629a5 5 0 0 1 5.923 0c11.24 8.262 24.566 12.629 38.539 12.629a5 5 0 1 1-.002 10zM166 366.6c-14.908 0-29.179-4.311-41.5-12.5-12.321 8.189-26.592 12.5-41.5 12.5a5 5 0 1 1 0-10c13.972 0 27.299-4.367 38.539-12.629a5.007 5.007 0 0 1 5.923 0c11.24 8.262 24.566 12.629 38.539 12.629a5 5 0 1 1-.001 10zM468.461 343.971a5.007 5.007 0 0 0-5.923 0C451.299 352.232 437.972 356.6 424 356.6a5 5 0 1 0 0 10c14.908 0 29.179-4.311 41.5-12.5a74.698 74.698 0 0 0 16.287 8.161 245.247 245.247 0 0 0 3.694-9.306 64.994 64.994 0 0 1-17.02-8.984zM388.1 428.916c-15.825 0-30.973-4.596-44.033-13.324-13.061 8.729-28.208 13.324-44.033 13.324S269.061 424.32 256 415.592c-13.061 8.729-28.208 13.324-44.033 13.324s-30.973-4.596-44.033-13.324c-13.061 8.729-28.208 13.324-44.033 13.324a5 5 0 1 1 0-10c14.891 0 29.093-4.654 41.072-13.458a4.993 4.993 0 0 1 5.922 0c11.979 8.804 26.182 13.458 41.072 13.458s29.093-4.654 41.072-13.458a4.994 4.994 0 0 1 5.923 0c11.979 8.804 26.181 13.458 41.072 13.458s29.093-4.654 41.072-13.458a4.993 4.993 0 0 1 5.922 0c11.979 8.804 26.181 13.458 41.072 13.458a5 5 0 1 1 0 10z" fill="#0182fc"></path><path d="M353 134.519c0-5.81-4.709-10.519-10.519-10.519h-27.736c-5.809 0-10.519 4.709-10.519 10.519 0 5.809 4.709 10.519 10.519 10.519h27.736c5.81 0 10.519-4.71 10.519-10.519zM128 174.519c0-5.81-4.709-10.519-10.519-10.519H89.745c-5.809 0-10.519 4.709-10.519 10.519 0 5.809 4.709 10.519 10.519 10.519h27.736c5.81 0 10.519-4.71 10.519-10.519zM391 88.519C391 82.709 386.291 78 380.481 78h-36.509c-5.809 0-10.519 4.709-10.519 10.519 0 5.809 4.709 10.519 10.519 10.519h36.509c5.81 0 10.519-4.71 10.519-10.519z" fill="#f2fbff"></path></g></svg>