<svg viewBox="0 0 64 64" xmlns="http://www.w3.org/2000/svg"><g><path d="M55.994 13.886c-.018-.151-.196-1.502-1.115-2.422L44.535 1.122C43.616.203 42.265.024 42.113.007A.847.847 0 0 0 42 0H13c-2.757 0-5 2.243-5 5v54c0 2.757 2.243 5 5 5h38c2.757 0 5-2.243 5-5V14c0-.038-.002-.076-.006-.114z" fill="#ffdaaa"></path><path d="M54.879 11.465 44.535 1.122C43.616.203 42.265.024 42.113.007a.99.99 0 0 0-.779.248A.995.995 0 0 0 41 1v9c0 2.757 2.243 5 5 5h9a.998.998 0 0 0 .746-.335c.189-.212.279-.496.248-.779-.017-.151-.196-1.502-1.115-2.421z" fill="#ffb655"></path><path d="M32 39a2 2 0 0 1-2-2v-2c0-2.893 2.055-4.423 3.555-5.541C35.161 28.261 36 27.563 36 26c0-2.206-1.794-4-4-4s-4 1.794-4 4a2 2 0 0 1-4 0c0-4.411 3.589-8 8-8s8 3.589 8 8c0 3.643-2.344 5.39-4.056 6.666C34.533 33.718 34 34.192 34 35v2a2 2 0 0 1-2 2z" fill="#957856"></path><circle cx="32" cy="44" fill="#957856" r="2"></circle></g></svg>