<svg viewBox="0 0 52 52" xmlns="http://www.w3.org/2000/svg"><g><path d="M39.953 30.25v7.615h-3.346V30.25a1.673 1.673 0 0 1 3.346 0z" fill="#ffaf93"></path><path d="M38.707 28.627a1.693 1.693 0 0 0-1.242 1.625v7.609h-.858v-7.609c0-.925.745-1.67 1.67-1.67.159 0 .294.022.43.045z" fill="#ee8778"></path><path d="M43.3 25.933v10.24h-3.347v-10.24a1.673 1.673 0 0 1 3.346 0z" fill="#ffaf93"></path><path d="M42.048 24.315a1.693 1.693 0 0 0-1.242 1.626v10.226h-.858V25.941c0-.926.745-1.671 1.67-1.671.159 0 .294.023.43.045z" fill="#ee8778"></path><path d="M46.646 23.805v9.294H43.3v-9.294a1.673 1.673 0 0 1 3.346 0z" fill="#ffaf93"></path><path d="M45.39 22.19c-.723.18-1.243.857-1.243 1.625v9.282h-.858v-9.282c0-.926.768-1.693 1.694-1.693.135 0 .27.022.406.068z" fill="#ee8778"></path><path d="M49.991 25.809v7.6c0 1.204-.48 2.358-1.335 3.207-8.29 8.238-9.323 7.995-11.262 9.53v2.858a.945.945 0 0 1-.945.945h-6.144a.945.945 0 0 1-.945-.945v-5.907a7.152 7.152 0 0 1 7.152-7.152h3.435l6.704-3.274v-6.786c0-.844.58-1.627 1.414-1.755 1.047-.16 1.926.666 1.926 1.679z" fill="#ffaf93"></path><path d="M48.753 24.18a1.673 1.673 0 0 0-1.264 1.625v8.076h-.836v-8.076c0-.926.745-1.693 1.671-1.693.158 0 .293.022.429.068z" fill="#ee8778"></path><path d="m47.024 31.163-.141.141v1.42h-.023a1.713 1.713 0 0 1-.474 1.522l-4.02 4.02.624.669 4.042-4.043a2.649 2.649 0 0 0-.008-3.73z" fill="#ee8778"></path><path d="m46.386 34.246-4.02 4.02-2.42-2.321 3.995-4.136a1.726 1.726 0 0 1 2.437 0l.008.008a1.716 1.716 0 0 1 0 2.429zM12.047 30.25v7.615h3.346V30.25a1.673 1.673 0 0 0-3.346 0z" fill="#ffaf93"></path><path d="M13.293 28.627a1.693 1.693 0 0 1 1.242 1.625v7.609h.858v-7.609c0-.925-.745-1.67-1.67-1.67-.159 0-.294.022-.43.045z" fill="#ee8778"></path><path d="M8.7 25.933v10.24h3.347v-10.24a1.673 1.673 0 0 0-3.346 0z" fill="#ffaf93"></path><path d="M9.952 24.315a1.693 1.693 0 0 1 1.242 1.626v10.226h.858V25.941c0-.926-.745-1.671-1.67-1.671-.159 0-.294.023-.43.045z" fill="#ee8778"></path><path d="M5.354 23.805v9.294H8.7v-9.294a1.673 1.673 0 0 0-3.346 0z" fill="#ffaf93"></path><path d="M6.61 22.19c.723.18 1.243.857 1.243 1.625v9.282h.858v-9.282c0-.926-.768-1.693-1.694-1.693-.135 0-.27.022-.406.068z" fill="#ee8778"></path><path d="M2.009 25.809v7.612c0 1.196.477 2.343 1.326 3.187 7.125 7.079 6.783 6.234 11.271 9.539v2.857c0 .522.423.945.945.945h6.144a.945.945 0 0 0 .945-.945v-5.907a7.152 7.152 0 0 0-7.152-7.152h-3.435L5.35 32.67v-6.786c0-.844-.58-1.627-1.414-1.755-1.047-.16-1.926.666-1.926 1.679z" fill="#ffaf93"></path><path d="M3.247 24.18c.723.18 1.264.835 1.264 1.625v8.076h.836v-8.076c0-.926-.745-1.693-1.671-1.693-.158 0-.293.022-.429.068z" fill="#ee8778"></path><path d="m4.976 31.163.141.141v1.42h.023c-.097.536.06 1.107.474 1.522l4.02 4.02-.624.669-4.042-4.043a2.649 2.649 0 0 1 .008-3.73z" fill="#ee8778"></path><path d="m5.614 34.246 4.02 4.02 2.42-2.321-3.995-4.136a1.726 1.726 0 0 0-2.437 0l-.008.008a1.716 1.716 0 0 0 0 2.429z" fill="#ffaf93"></path><path d="M40.684 3.579v18.289c0 .844-.684 1.528-1.528 1.528H12.84a1.528 1.528 0 0 1-1.528-1.528V3.578c0-.843.684-1.527 1.528-1.527h26.316c.844 0 1.528.684 1.528 1.528z" fill="#deddff"></path><path d="M15.468 23.39h-2.63c-.84 0-1.53-.68-1.53-1.52V3.58c0-.85.69-1.53 1.53-1.53h2.63c-.85 0-1.53.68-1.53 1.53v18.29c0 .84.68 1.52 1.53 1.52z" fill="#c6c6f7"></path><path d="M36.058 21.267h-20.12a.3.3 0 0 1-.3-.3c0-.937-.763-1.7-1.7-1.7a.3.3 0 0 1-.3-.3V6.48a.3.3 0 0 1 .3-.3c.937 0 1.7-.762 1.7-1.7a.3.3 0 0 1 .3-.3h20.12a.3.3 0 0 1 .3.3c0 .938.763 1.7 1.7 1.7a.3.3 0 0 1 .3.3v12.488a.3.3 0 0 1-.3.3c-.937 0-1.7.763-1.7 1.7a.3.3 0 0 1-.3.3zm-19.84-.6h19.56a2.306 2.306 0 0 1 1.98-1.98V6.76a2.306 2.306 0 0 1-1.98-1.981h-19.56a2.306 2.306 0 0 1-1.98 1.98v11.928a2.306 2.306 0 0 1 1.98 1.98z" fill="#c6c6f7"></path><path d="M33.359 7.435a.39.39 0 0 1-.391.39H18.44a.39.39 0 1 1 0-.781h14.528a.39.39 0 0 1 .39.39zM27.219 9.79a.39.39 0 0 1-.39.39H15.872a.39.39 0 1 1 0-.781h10.955a.39.39 0 0 1 .391.39zM20.074 12.145a.39.39 0 0 1-.39.39h-3.811a.39.39 0 1 1 0-.781h3.81a.39.39 0 0 1 .391.39zM32.604 12.145a.39.39 0 0 1-.39.39H21.257a.39.39 0 1 1 0-.781h10.955a.39.39 0 0 1 .391.39zM36.514 12.145a.39.39 0 0 1-.39.39h-2.025a.39.39 0 1 1 0-.781h2.024a.39.39 0 0 1 .391.39zM36.514 9.79a.39.39 0 0 1-.39.39H28.74a.39.39 0 1 1 0-.781h7.383a.39.39 0 0 1 .391.39zM33.359 14.5a.39.39 0 0 1-.391.39H18.44a.39.39 0 1 1 0-.781h14.528a.39.39 0 0 1 .39.39z" fill="#b5b5ea"></path><path d="M26.65 21.187c-.055.104-1.715 3.319-1.61 3.117l-.94 1.823c-.047.087-.166.087-.205-.008l-.371-.86c-.024-.055-.079-.079-.134-.07l-.924.204c-.094.016-.173-.079-.126-.165.054-.104 2.717-5.266 2.55-4.94l1.112.568z" fill="#e83d62"></path><path d="m29.53 25.393-.924-.205a.112.112 0 0 0-.126.071l-.379.86c-.04.095-.165.095-.205.008l-2.541-4.94.647-.331 1.113-.569 2.541 4.94c.047.087-.032.182-.126.166z" fill="#e83d62"></path><path d="M28.67 23.318a3.812 3.812 0 0 1-1.713.986l-.955-1.862-.963 1.862a3.812 3.812 0 0 1-1.712-.986l1.562-3.03 1.113.568 1.113-.569z" fill="#ce2955"></path><path d="M22.51 20.49h.007a.596.596 0 0 1 .21.796.59.59 0 0 0 .506.876c.32.006.58.266.586.586a.59.59 0 0 0 .592.58c.253 0 .315-.148.568-.148.569 0 .457.58 1.018.58a.581.581 0 0 0 .505-.29l.007-.006a.587.587 0 0 1 .79-.21h.005a.588.588 0 0 0 .877-.506.587.587 0 0 1 .58-.58h.006a.594.594 0 0 0 .506-.882.595.595 0 0 1 .21-.796h.005a.59.59 0 0 0 0-1.012l-.006-.006a.587.587 0 0 1-.21-.79v-.006a.59.59 0 0 0-.505-.876h-.006a.591.591 0 0 1-.58-.58.594.594 0 0 0-.587-.586.558.558 0 0 0-.29.08h-.006a.583.583 0 0 1-.79-.215h-.006a.59.59 0 0 0-1.011 0v.006a.596.596 0 0 1-.796.21.615.615 0 0 0-.29-.075.59.59 0 0 0-.592.58c0 .321-.26.58-.58.58a.599.599 0 0 0-.58.599c0 .253.148.315.148.567a.597.597 0 0 1-.29.512.586.586 0 0 0 0 1.012z" fill="#fcb73e"></path><circle cx="25.998" cy="19.986" fill="#fd982e" r="1.578"></circle></g></svg>