<svg height="512pt" viewBox="0 -50 512.001 512" width="512pt" xmlns="http://www.w3.org/2000/svg"><path d="m175.632812 65.015625c-22.308593-57.082031-64.027343-41.425781-64.027343-41.425781s-41.71875-15.65625-64.027344 41.425781c-13.453125 34.425781-6.511719 63.277344.347656 94.019531 1.359375 6.101563 6.773438 10.4375 13.023438 10.4375h101.3125c6.25 0 11.664062-4.335937 13.023437-10.4375 6.859375-30.742187 13.800782-59.59375.347656-94.019531zm0 0" fill="#495766"/><path d="m77.617188 159.035156c-6.859376-30.742187-13.800782-59.59375-.347657-94.019531 13.789063-35.289063 34.996094-42.773437 49.179688-43.347656-8.757813-.355469-14.84375 1.921875-14.84375 1.921875s-41.71875-15.65625-64.027344 41.425781c-13.453125 34.425781-6.511719 63.277344.347656 94.019531 1.359375 6.101563 6.773438 10.4375 13.023438 10.4375h29.691406c-6.25 0-11.664063-4.339844-13.023437-10.4375zm0 0" fill="#3c4957"/><path d="m201.734375 210.015625-31.730469-12.289063c-6.710937 7.394532-13.765625 15.101563-20.5625 22.492188-20.054687 21.808594-54.472656 21.8125-74.523437.003906-6.691407-7.277344-13.628907-14.859375-20.246094-22.144531l-30.792969 11.933594s-23.878906 9.820312-23.878906 37.039062v102.363281c0 7.933594 6.433594 14.367188 14.367188 14.367188h196.878906c7.933594 0 14.367187-6.433594 14.367187-14.367188v-102.363281c0-27.21875-23.878906-37.035156-23.878906-37.035156zm0 0" fill="#fec13b"/><path d="m29.53125 349.417969v-116.796875c0-14.578125 6.847656-24.160156 13.207031-29.917969l-18.859375 7.3125s-23.878906 9.816406-23.878906 37.035156v102.367188c0 7.933593 6.433594 14.363281 14.367188 14.363281h29.527343c-7.933593 0-14.363281-6.429688-14.363281-14.363281zm0 0" fill="#fcb237"/><path d="m151.902344 190.714844c-5.113282 5.660156-10.714844 11.789062-16.058594 17.601562-12.695312 13.804688-34.480469 13.804688-47.175781 0-5.25-5.710937-10.746094-11.722656-15.785157-17.300781l-18.679687 7.242187c6.753906 7.445313 13.867187 15.214844 20.714844 22.660157 20.050781 21.808593 54.46875 21.808593 74.523437 0 6.953125-7.5625 14.179688-15.460938 21.03125-23.007813zm0 0" fill="#fcb237"/><path d="m137.175781 181.550781v-17.035156c-6.792969 4.574219-14.964843 7.246094-23.753906 7.246094-9.703125 0-18.1875-2.753907-25.050781-7.328125v17.117187c0 2.085938-1.28125 3.957031-3.230469 4.714844l-12.726563 4.933594c5.164063 5.71875 10.84375 11.929687 16.253907 17.8125 12.695312 13.804687 34.480469 13.804687 47.175781 0 5.507812-5.988281 11.289062-12.3125 16.527344-18.113281l-11.964844-4.636719c-1.945312-.753907-3.230469-2.625-3.230469-4.710938zm0 0" fill="#f7c1b3"/><path d="m105.265625 195.792969c1.945313-.753907 3.226563-2.625 3.226563-4.714844v-19.566406c-7.660157-.761719-14.449219-3.296875-20.125-7.078125v17.117187c0 2.085938-1.28125 3.957031-3.226563 4.714844l-12.726563 4.933594c3.734376 4.132812 7.734376 8.523437 11.710938 12.863281zm0 0" fill="#efb5a8"/><path d="m472.550781 132.921875c-1.15625-.941406-1.460937-2.5625-.828125-3.910156 4.183594-8.902344.179688-19.648438-9.050781-23.542969-1.199219-.503906-1.957031-1.691406-1.957031-2.992188v-17.59375c0-34.179687-27.34375-62.511718-61.523438-62.761718-34.175781.25-61.519531 28.582031-61.519531 62.761718v17.59375c0 1.300782-.761719 2.488282-1.957031 2.992188-9.222656 3.890625-13.242188 14.632812-9.050782 23.542969.632813 1.347656.324219 2.96875-.828124 3.910156-19.042969 15.539063-8.21875 46.828125 16.667968 46.828125h113.375c24.871094 0 35.730469-31.273438 16.671875-46.828125zm0 0" fill="#495766"/><path d="m356.757812 132.921875c1.152344-.941406 1.460938-2.5625.828126-3.910156-4.191407-8.910157-.175782-19.652344 9.050781-23.542969 1.195312-.503906 1.957031-1.691406 1.957031-2.992188v-17.59375c0-28.835937 19.457031-53.503906 46.058594-60.667968-4.933594-1.328125-10.113282-2.054688-15.457032-2.09375-34.179687.25-61.523437 28.582031-61.523437 62.761718v17.59375c0 1.300782-.757813 2.488282-1.953125 2.992188-9.226562 3.890625-13.242188 14.632812-9.054688 23.542969.632813 1.347656.328126 2.96875-.824218 3.910156-19.042969 15.539063-8.222656 46.828125 16.667968 46.828125h30.917969c-24.886719 0-35.710937-31.289062-16.667969-46.828125zm0 0" fill="#3c4957"/><path d="m488.121094 210.015625-31.730469-12.289063c-6.710937 7.394532-13.761719 15.101563-20.5625 22.492188-20.050781 21.808594-54.46875 21.8125-74.523437.003906-6.6875-7.277344-13.628907-14.859375-20.242188-22.144531l-30.792969 11.933594s-23.878906 9.820312-23.878906 37.039062v102.363281c0 7.933594 6.429687 14.367188 14.367187 14.367188h196.878907c7.933593 0 14.363281-6.433594 14.363281-14.367188v-102.363281c0-27.21875-23.878906-37.035156-23.878906-37.035156zm0 0" fill="#ff80bd"/><path d="m417.929688 271.382812c0-14.164062-3.617188-26.082031-9.015626-35.871093-16.792968 3.484375-35.027343-1.609375-47.609374-15.289063-6.6875-7.277344-13.628907-14.859375-20.242188-22.144531l-30.792969 11.933594s-23.878906 9.820312-23.878906 37.039062v102.363281c0 7.933594 6.429687 14.367188 14.367187 14.367188h117.171876zm0 0" fill="#f964b2"/><path d="m438.292969 190.714844c-5.113281 5.660156-10.714844 11.789062-16.058594 17.601562-12.695313 13.804688-34.480469 13.804688-47.175781 0-5.25-5.710937-10.746094-11.722656-15.785156-17.300781l-18.679688 7.242187c6.753906 7.445313 13.867188 15.214844 20.714844 22.660157 20.050781 21.808593 54.46875 21.808593 74.519531 0 6.957031-7.5625 14.183594-15.460938 21.035156-23.007813zm0 0" fill="#f964b2"/><path d="m409.257812 236.128906c-3.707031-6.882812-8.292968-12.730468-13.15625-17.570312-7.75-.613282-15.320312-4.019532-21.042968-10.242188-2.207032-2.402344-4.457032-4.855468-6.699219-7.308594l-17.4375-6.753906-10.328125 4.003906c6.753906 7.445313 13.867188 15.214844 20.710938 22.660157 12.667968 13.777343 31.0625 18.839843 47.953124 15.210937zm0 0" fill="#ef54ac"/><path d="m423.566406 181.550781v-17.035156c-6.792968 4.574219-14.96875 7.246094-23.753906 7.246094-9.703125 0-18.191406-2.753907-25.054688-7.328125v17.117187c0 2.085938-1.28125 3.957031-3.226562 4.714844l-12.726562 4.933594c5.164062 5.71875 10.84375 11.929687 16.253906 17.8125 12.695312 13.804687 34.480468 13.804687 47.175781 0 5.503906-5.988281 11.289063-12.3125 16.523437-18.113281l-11.960937-4.636719c-1.949219-.753907-3.230469-2.625-3.230469-4.710938zm0 0" fill="#d88460"/><path d="m391.65625 195.792969c1.945312-.753907 3.226562-2.625 3.226562-4.714844v-19.566406c-7.664062-.761719-14.449218-3.296875-20.125-7.078125v17.117187c0 2.085938-1.28125 3.957031-3.226562 4.714844l-12.726562 4.933594c3.730468 4.132812 7.734374 8.523437 11.710937 12.863281zm0 0" fill="#cc785a"/><path d="m439.460938 87.550781c-3.570313-.535156-10.757813-2.679687-15.605469-11.15625-.867188-1.519531-2.976563-1.75-4.125-.429687-3.832031 4.394531-12.472657 11.425781-27.039063 8.605468-1.226562-.238281-2.445312.410157-2.898437 1.574219-2.191407 5.628907-10.140625 20.867188-32.234375 21.746094-1.375.054687-2.46875 1.171875-2.46875 2.550781v20.753906c0 22.4375 17.691406 42.925782 44.417968 42.65625 23.402344-.238281 42.128907-19.570312 42.128907-42.976562v-40.824219c0-1.261719-.933594-2.3125-2.175781-2.5zm0 0" fill="#e5966e"/><path d="m474.746094 363.78125v-87.226562c0-4.269532-3.460938-7.730469-7.730469-7.730469s-7.730469 3.460937-7.730469 7.730469v87.226562zm0 0" fill="#f964b2"/><path d="m52.839844 363.78125v-87.226562c0-4.269532-3.460938-7.730469-7.730469-7.730469-4.265625 0-7.726563 3.460937-7.726563 7.730469v87.226562zm0 0" fill="#fcb237"/><path d="m154.238281 100.050781c-7.503906.480469-33.585937-10.328125-40.183593-32.996093-.148438-.503907-.601563-.855469-1.125-.855469-.523438 0-.976563.351562-1.125.855469-6.597657 22.667968-32.679688 33.476562-40.183594 32.996093-1.09375-.066406-2.027344.753907-2.027344 1.851563v28.957031c0 13.921875 6.808594 27.089844 18.351562 35.035156.085938.058594.167969.121094.253907.179688.046875.03125.097656.0625.148437.097656 6.6875 4.585937 14.738282 7.3125 23.4375 7.402344.386719.003906.761719-.011719 1.144532-.015625.382812.003906.757812.019531 1.144531.015625 8.699219-.089844 16.75-2.816407 23.441406-7.402344.046875-.035156.097656-.066406.144531-.097656.085938-.058594.167969-.121094.253906-.183594 11.542969-7.941406 18.351563-21.109375 18.351563-35.03125v-28.957031c0-1.097656-.933594-1.917969-2.027344-1.851563zm0 0" fill="#ffcdbe"/><path d="m118.039062 166.171875c-.046874-.03125-.097656-.0625-.148437-.097656-.082031-.058594-.167969-.121094-.25-.179688-11.542969-7.941406-18.355469-21.113281-18.355469-35.035156v-28.957031c0-1.097656.9375-1.917969 2.03125-1.851563 4.675782.300781 16.566406-3.789062 26.460938-12.394531-5.984375-5.207031-11.238282-12.0625-13.722656-20.605469-.148438-.503906-.597657-.855469-1.125-.855469-.523438 0-.976563.351563-1.121094.855469-6.597656 22.671875-32.683594 33.480469-40.1875 33-1.089844-.070312-2.027344.753907-2.027344 1.847657v28.960937c0 13.921875 6.808594 27.089844 18.355469 35.03125.082031.0625.164062.121094.25.183594.050781.03125.101562.0625.148437.097656 6.6875 4.585937 14.738282 7.3125 23.4375 7.402344.386719.003906.761719-.011719 1.144532-.015625.382812.003906.757812.019531 1.144531.015625 4.804687-.050781 9.410156-.90625 13.703125-2.4375-3.476563-1.234375-6.742188-2.910157-9.738282-4.964844zm0 0" fill="#f7c1b3"/><path d="m256.0625 0c-39.757812 0-71.988281 32.230469-71.988281 71.988281v101.535157c0 5.269531 4.273437 9.542968 9.546875 9.542968h124.886718c5.269532 0 9.542969-4.273437 9.542969-9.542968 0-21.21875 0-81.410157 0-101.535157 0-39.757812-32.230469-71.988281-71.988281-71.988281zm0 0" fill="#495766"/><path d="m208.816406 173.523438c0-1.058594 0-100.476563 0-101.535157 0-35.539062 25.75-65.0625 59.617188-70.925781-4.019532-.695312-8.152344-1.0625-12.371094-1.0625-39.757812 0-71.988281 32.230469-71.988281 71.988281v101.535157c0 5.273437 4.273437 9.546874 9.546875 9.546874h24.738281c-5.269531-.003906-9.542969-4.277343-9.542969-9.546874zm0 0" fill="#3c4957"/><path d="m363.355469 226.695312-38.285157-14.824218c-8.097656 8.921875-16.605468 18.21875-24.808593 27.140625-24.195313 26.308593-65.71875 26.3125-89.914063 0-8.070312-8.777344-16.441406-17.925781-24.425781-26.71875l-37.152344 14.40625s-28.808593 11.84375-28.808593 44.683593v123.503907c0 9.574219 7.761718 17.335937 17.335937 17.335937h237.535156c9.574219 0 17.332031-7.761718 17.332031-17.335937v-123.503907c0-32.84375-28.808593-44.6875-28.808593-44.6875zm0 0" fill="#63a1fc"/><path d="m149.492188 394.886719v-136.902344c0-20.515625 11.238281-32.835937 19.679687-39.195313l-20.402344 7.90625s-28.808593 11.84375-28.808593 44.6875v123.503907c0 9.574219 7.761718 17.332031 17.335937 17.332031h29.527344c-9.574219 0-17.332031-7.757812-17.332031-17.332031zm0 0" fill="#4188ff"/><path d="m303.234375 203.414062c-6.167969 6.828126-12.925781 14.21875-19.375 21.230469-15.316406 16.65625-41.601563 16.65625-56.917969.003907-6.335937-6.890626-12.96875-14.144532-19.050781-20.871094l-22.535156 8.734375c8.148437 8.980469 16.730469 18.359375 24.992187 27.339843 24.195313 26.3125 65.71875 26.3125 89.914063 0 8.390625-9.125 17.109375-18.652343 25.375-27.761718zm0 0" fill="#4188ff"/><path d="m285.464844 192.351562v-20.546874c-8.195313 5.515624-18.058594 8.738281-28.660156 8.738281-11.703126 0-21.945313-3.320313-30.226563-8.839844v20.652344c0 2.515625-1.546875 4.777343-3.894531 5.6875l-15.355469 5.949219c6.234375 6.898437 13.082031 14.394531 19.613281 21.496093 15.316406 16.652344 41.601563 16.652344 56.917969-.003906 6.644531-7.222656 13.621094-14.855469 19.9375-21.851563l-14.433594-5.589843c-2.347656-.910157-3.898437-3.171875-3.898437-5.691407zm0 0" fill="#f0a479"/><path d="m246.964844 209.539062c2.347656-.910156 3.894531-3.167968 3.894531-5.6875v-23.605468c-9.246094-.921875-17.433594-3.980469-24.28125-8.542969v20.652344c0 2.519531-1.546875 4.777343-3.894531 5.6875l-15.355469 5.953125c4.507813 4.984375 9.332031 10.28125 14.128906 15.515625zm0 0" fill="#e5966e"/><path d="m307.445312 93.355469v38.246093c0 .371094-.019531.738282-.027343 1.109376 13.648437 2.617187 25.011719-7.1875 25.011719-19.675782 0-12.476562-11.351563-22.273437-24.984376-19.679687zm0 0" fill="#f0a479"/><path d="m328.078125 100.59375c-4.527344-5.65625-12.136719-8.855469-20.632813-7.238281v38.246093c0 .371094-.019531.738282-.027343 1.109376 8.507812 1.632812 16.128906-1.566407 20.660156-7.234376zm0 0" fill="#e5966e"/><path d="m304.886719 83.621094c-6.40625-1.945313-18.960938-7.074219-31.058594-19.550782-1.972656-2.035156-5.207031-1.882812-7.011719.175782-8.476562 9.667968-31.273437 33.289062-59.84375 43.835937-1.875.691407-3.121094 2.476563-3.121094 4.476563v19.042968c0 26.890626 21.066407 51.46875 52.957032 51.46875 28.375 0 51.464844-23.089843 51.464844-51.46875v-43.414062c-.003907-2.101562-1.375-3.953125-3.386719-4.566406zm0 0" fill="#f7b594"/><path d="m228.589844 131.601562v-34.34375c-6.679688 4.203126-13.9375 7.988282-21.617188 10.824219-1.875.691407-3.121094 2.476563-3.121094 4.476563v19.042968c0 26.890626 21.066407 51.46875 52.953126 51.46875 4.117187 0 8.113281-.5 11.953124-1.417968-24.605468-5.566406-40.167968-26.945313-40.167968-50.050782zm0 0" fill="#f0a479"/><path d="m181.683594 412.21875v-105.085938c0-4.046874-3.277344-7.328124-7.324219-7.328124s-7.328125 3.28125-7.328125 7.328124v105.085938zm0 0" fill="#4188ff"/><path d="m345.09375 412.21875v-105.085938c0-4.046874-3.28125-7.328124-7.328125-7.328124s-7.324219 3.28125-7.324219 7.328124v105.085938zm0 0" fill="#4188ff"/><path d="m386.007812 131.195312v-37.996093c-4.488281 6.457031-13.011718 14.078125-28.449218 14.691406-1.375.054687-2.46875 1.171875-2.46875 2.550781v20.753906c0 22.433594 17.691406 42.925782 44.414062 42.65625 5.097656-.054687 9.96875-1.011718 14.476563-2.71875-17.292969-6.261718-27.972657-22.507812-27.972657-39.9375zm0 0" fill="#d88460"/></svg>