<svg viewBox="0 0 512 512" xmlns="http://www.w3.org/2000/svg"><g><path d="M373.633 80.746c0-30.746-24.925-55.671-55.671-55.671H131.585c-30.746 0-55.671 24.925-55.671 55.671 0 68.991 11.787 86.396 11.787 155.388V407.02h274.145V236.135c0-68.993 11.787-86.396 11.787-155.389z" fill="#89808c"></path><g fill="#f6e2bf"><path d="M341.338 103.205h-16.08v43.144h16.08c7.666 0 13.881-6.215 13.881-13.881v-15.382c0-7.666-6.214-13.881-13.881-13.881zM186.741 103.205h-16.08c-7.666 0-13.881 6.215-13.881 13.881v15.382c0 7.666 6.215 13.881 13.881 13.881h16.08z" fill="#f6e2bf"></path></g><path d="m255.999 404.535 59.947-137.938c-.681-.09-1.345-9.449-1.984-9.532-6.62-.859-11.575-6.49-11.575-13.165v-60.72h-92.775v60.719c0 6.675-4.956 12.306-11.575 13.165-.64.083-1.303 9.442-1.985 9.532z" fill="#faefdb"></path><path d="M380.415 25.075h-65.372c30.746 0 55.671 24.925 55.671 55.671 0 68.994-11.787 86.396-11.787 155.389V407.02h65.372V236.135c0-68.993 11.787-86.396 11.787-155.389 0-30.746-24.925-55.671-55.671-55.671z" fill="#756e78"></path><path d="M265.601 199.866c15.4-13.26 22.103-32.784 22.539-53.069l.02-132.376c-9.171-4.154-19.862-6.895-32.16-7.032-22.863.255-40.171 9.509-52.484 20.111-11.481 9.886-19.096 23.283-22.372 37.869l.059 80.424c.432 20.146 7.02 39.536 22.314 52.705 8.636 7.436 19.728 14.208 33.471 17.678 11.51-3.748 21.013-9.766 28.613-16.31z" fill="#faefdb"></path><path d="M330.868 145.792h-.012V65.368c-3.276-14.585-10.891-27.983-22.372-37.869-6.053-5.213-13.321-10.092-21.856-13.744l-.021 132.037c-.433 20.146-7.09 39.536-22.384 52.705-7.97 6.862-18.046 13.143-30.353 16.801 6.707 1.994 14.066 3.22 22.13 3.31 22.863-.255 40.171-9.509 52.484-20.111 15.294-13.169 21.951-32.559 22.384-52.705z" fill="#f6e2bf"></path><path d="M373.017 360.056c0-25.51-15.014-48.631-38.319-59.007-16.621-7.4-47.466-12.912-68.484-16.116L256 292.875l-50.566-39.313a13.253 13.253 0 0 1-7.397 3.503c-19.744 2.562-59.849 8.652-81.065 18.098-23.304 10.376-38.319 33.496-38.319 59.007v87.204c0 10.312 8.36 18.672 18.672 18.672h275.69v-79.99z" fill="#f7f4f7"></path><path d="M395.027 275.162c-21.216-9.446-61.321-15.536-81.065-18.098a13.246 13.246 0 0 1-7.397-3.503l-43.478 33.803c21.029 3.179 49.877 8.569 66.766 16.089 23.304 10.376 38.319 33.496 38.319 59.007v77.586h46.502c10.312 0 18.672-8.36 18.672-18.672V334.17c0-25.511-15.015-48.632-38.319-59.008z" fill="#edeaed"></path><path d="M256.735 52.068a90.872 90.872 0 0 0 29.208-4.821l1.856-.63.356-.119.007-45.535-1.533-.789h-62.193c-31.349 0-56.763 25.414-56.763 56.763v46.599a13.874 13.874 0 0 1 2.988-.331h13.234c5.849-2.205 10.017-7.837 10.017-14.457V59.244c0-8.219 6.663-14.882 14.882-14.882H212c4.649 0 9.267.762 13.67 2.256l1.857.63a90.926 90.926 0 0 0 29.208 4.82z" fill="#efc984"></path><path d="M341.338 103.205c1.027 0 2.025.119 2.988.331l-.009-46.594C344.312 25.593 318.897.175 287.548.175h-.919l-.007 46.842 1.177-.399a42.545 42.545 0 0 1 13.671-2.256h1.735c8.219 0 14.882 6.663 14.882 14.882v29.505c0 6.62 4.168 12.252 10.017 14.457h13.234z" fill="#e8ae4d"></path><path d="M256.001 292.875h-.002l-24.514 12.372 12.365 26.372h24.3l12.365-26.372z" fill="#7296d1"></path><path d="M268.15 331.619h-24.3l-27.235 108.426h78.77z" fill="#88a8d8"></path><path d="M198.037 257.064a684.783 684.783 0 0 0-18.615 2.676l18.337 47.115c2.687 6.905 10.739 9.992 17.354 6.654L256 292.875l-50.566-39.313a13.249 13.249 0 0 1-7.397 3.502zM266.214 284.934 256 292.875l40.887 20.635c6.615 3.338 14.666.251 17.354-6.654l4.422-11.361c-16.472-4.645-37.085-8.22-52.449-10.561z" fill="#e0dde0"></path><path d="M373.017 360.056c0-25.51-15.014-48.631-38.319-59.007-5.299-2.359-12.043-4.526-19.454-6.488l-47.597 116.882c-4.253 10.444-19.042 10.444-23.295 0l-61.965-152.164c-16.498 2.53-37.411 6.379-53.621 11.509v169.257h244.25v-79.989z" fill="#e07f84"></path><path d="m317.353 298.859 15.225-39.118a684.783 684.783 0 0 0-18.615-2.676 13.246 13.246 0 0 1-7.397-3.503l-43.478 33.803c16.462 2.488 37.705 6.334 54.265 11.494z" fill="#d1ccd3"></path><path d="m329.612 259.279-15.696 38.543c5.925 1.72 11.37 3.597 15.937 5.63 23.304 10.376 38.319 33.496 38.319 59.007v77.586h15.134V270.811c-16.222-5.141-37.172-8.998-53.694-11.532z" fill="#db636e"></path><path d="M435.408 498.439V378.765H14.165v119.674c0 7.393 5.993 13.386 13.386 13.386h394.47c7.394 0 13.387-5.993 13.387-13.386z" fill="#c1a0a0"></path><path d="M432.661 378.765v119.674c0 7.393-5.993 13.386-13.386 13.386h65.174c7.393 0 13.386-5.993 13.386-13.386V378.765z" fill="#b58c8c"></path><path d="M449.573 400.241v-23.967l-2.747-4.153H14.143C6.332 372.121 0 378.453 0 386.264v13.977c0 7.811 6.332 14.143 14.143 14.143h421.288c7.81 0 14.142-6.332 14.142-14.143z" fill="#b58c8c"></path><path d="M497.857 372.121h-51.031v28.12c0 7.811-6.332 14.143-14.143 14.143h65.174c7.811 0 14.143-6.332 14.143-14.143v-13.977c0-7.811-6.332-14.143-14.143-14.143z" fill="#a87f7f"></path></g></svg>