<svg viewBox="0 0 512 512" xmlns="http://www.w3.org/2000/svg"><g><path d="M34.309 10v422.911L49.951 512h329.854c27.587 0 49.951-22.364 49.951-49.951V10c0-5.523-4.477-10-10-10H44.309c-5.523 0-10 4.477-10 10z" fill="#dff6fd"></path><path d="M396.455 0v165.398a50.108 50.108 0 0 0-6.553 1.887 49.824 49.824 0 0 0-17.184 10.631 49.92 49.92 0 0 0-17.871 9.604 49.81 49.81 0 0 0-12.529 15.9 49.788 49.788 0 0 0-13.494 15.107 49.79 49.79 0 0 0-6.334 19.224 49.803 49.803 0 0 0-7.513 18.812 49.805 49.805 0 0 0 .622 20.231 49.8 49.8 0 0 0-.626 20.248 49.81 49.81 0 0 0 7.505 18.798 49.81 49.81 0 0 0 6.336 19.24 49.825 49.825 0 0 0 13.481 15.098 50.164 50.164 0 0 0 4.209 6.938v89.808c0 9.009 3.382 17.788 9.776 24.134 6.468 6.42 14.961 9.723 23.527 9.723 4.334 0 8.687-.846 12.805-2.561l1.341-.559c-6.557 19.939-25.316 34.34-47.449 34.34h33.301c27.587 0 49.951-22.364 49.951-49.951V10c0-5.523-4.477-10-10-10z" fill="#c8effe"></path><path d="m471.4 412.799-12.822-5.342a9.996 9.996 0 0 0-7.692 0l-12.822 5.342c-3.952 1.647-8.308-1.257-8.308-5.538v-80.496h49.951v80.496c.001 4.281-4.355 7.184-8.307 5.538z" fill="#fd4755"></path><path d="m388.113 444.018 12.822-5.342a9.996 9.996 0 0 1 7.692 0l12.822 5.342c3.952 1.647 8.308-1.257 8.308-5.538V326.764h-49.951V438.48c-.001 4.281 4.355 7.185 8.307 5.538z" fill="#fe646f"></path><path d="M429.756 393.366a49.817 49.817 0 0 0 19.755-4.104 49.715 49.715 0 0 0 20.098-2.921 49.466 49.466 0 0 0 10.098-5.064v-54.512h-49.951z" fill="#fb2b3a"></path><path d="M429.756 326.764h-49.951v54.518a49.566 49.566 0 0 0 10.078 5.051 49.727 49.727 0 0 0 17.058 3.012c1.011 0 2.02-.03 3.023-.09a49.802 49.802 0 0 0 19.781 4.111h.01v-66.602z" fill="#fd4755"></path><path d="M511.745 262.367c-.962-5.458-4.489-9.807-9.116-12.064 2.095-4.704 2.002-10.305-.769-15.106-2.771-4.799-7.573-7.68-12.693-8.219.36-5.137-1.643-10.369-5.89-13.932-4.245-3.562-9.743-4.627-14.738-3.382-1.419-4.951-5.09-9.182-10.3-11.078-5.208-1.895-10.738-1.015-15.006 1.863-3.026-4.167-7.923-6.887-13.467-6.887-5.542 0-10.437 2.718-13.464 6.883-4.269-2.88-9.801-3.762-15.011-1.865-5.208 1.895-8.878 6.124-10.298 11.073-4.997-1.247-10.497-.183-14.743 3.381-4.245 3.562-6.248 8.791-5.89 13.927-5.122.538-9.926 3.419-12.698 8.22-2.771 4.799-2.865 10.398-.771 15.101-4.629 2.257-8.158 6.607-9.121 12.067-.962 5.458.865 10.751 4.44 14.455-3.578 3.704-5.406 8.999-4.444 14.459.962 5.458 4.49 9.807 9.116 12.064-2.095 4.704-2.002 10.305.769 15.106 2.771 4.799 7.573 7.68 12.693 8.219-.36 5.137 1.643 10.369 5.89 13.932 4.245 3.562 9.743 4.627 14.738 3.382 1.419 4.951 5.09 9.182 10.3 11.078 5.208 1.895 10.738 1.015 15.006-1.863 3.026 4.167 7.924 6.887 13.467 6.887 5.542 0 10.437-2.718 13.464-6.883 4.269 2.88 9.801 3.762 15.01 1.866 5.208-1.895 8.878-6.124 10.298-11.073 4.997 1.247 10.497.183 14.743-3.381 4.245-3.562 6.248-8.791 5.89-13.927 5.122-.538 9.926-3.418 12.698-8.22 2.771-4.799 2.865-10.398.771-15.102 4.629-2.257 8.158-6.607 9.121-12.067.962-5.458-.865-10.751-4.44-14.455 3.58-3.705 5.408-9 4.445-14.459z" fill="#60b7ff"></path><path d="M511.742 291.28c.962-5.458-.865-10.751-4.44-14.455 3.578-3.704 5.406-8.999 4.444-14.458-.962-5.458-4.489-9.807-9.116-12.064 2.095-4.704 2.002-10.305-.769-15.106-2.771-4.799-7.573-7.68-12.693-8.219.36-5.137-1.643-10.369-5.89-13.932a16.53 16.53 0 0 0-10.995-3.874 88.012 88.012 0 0 1 3.911 26.017c0 48.63-39.423 88.053-88.053 88.053a87.813 87.813 0 0 1-30.908-5.593c.134.263.271.524.421.783 2.771 4.799 7.573 7.68 12.693 8.219-.36 5.137 1.643 10.369 5.89 13.932 4.245 3.562 9.743 4.627 14.738 3.382 1.419 4.951 5.09 9.182 10.3 11.078 5.208 1.895 10.738 1.015 15.006-1.863 3.026 4.167 7.924 6.887 13.467 6.887 5.542 0 10.437-2.718 13.464-6.883 4.269 2.88 9.801 3.762 15.01 1.866 5.208-1.895 8.878-6.124 10.298-11.073 4.997 1.247 10.497.183 14.743-3.381 4.245-3.562 6.248-8.791 5.89-13.927 5.122-.538 9.926-3.418 12.698-8.22" fill="#26a6fe"></path><circle cx="429.756" cy="276.813" fill="#0593fc" r="49.951"></circle><path d="M49.951 512C22.364 512 0 489.636 0 462.049v-19.138c0-5.523 4.477-10 10-10h309.854c5.523 0 10 4.477 10 10v19.138c0 27.587 22.364 49.951 49.951 49.951z" fill="#99e6fc"></path><path d="M348.586 66.602H115.48a8.325 8.325 0 0 1-8.325-8.325v-16.65a8.325 8.325 0 0 1 8.325-8.325h233.106a8.325 8.325 0 0 1 8.325 8.325v16.65a8.326 8.326 0 0 1-8.325 8.325z" fill="#60b7ff"></path><path d="M348.586 33.301h-33.301a8.325 8.325 0 0 1 8.325 8.325v16.65a8.325 8.325 0 0 1-8.325 8.325h33.301a8.325 8.325 0 0 0 8.325-8.325v-16.65a8.325 8.325 0 0 0-8.325-8.325z" fill="#26a6fe"></path><path d="M377.725 107.402h-174.83a7.5 7.5 0 0 1 0-15h174.83a7.5 7.5 0 0 1 0 15zM169.595 107.402h-41.626a7.5 7.5 0 0 1 0-15h41.626a7.5 7.5 0 0 1 0 15zM377.724 140.703H86.342a7.5 7.5 0 0 1 0-15h291.382a7.5 7.5 0 0 1 0 15zM377.724 174.004H127.969a7.5 7.5 0 0 1 0-15h249.755a7.5 7.5 0 0 1 0 15zM208.13 207.305H86.343a7.5 7.5 0 0 1 0-15H208.13a7.5 7.5 0 0 1 0 15z" fill="#a8d3d8"></path><path d="M152.944 269.744H86.343a7.5 7.5 0 0 1 0-15h66.602a7.5 7.5 0 1 1-.001 15z" fill="#60b7ff"></path><path d="M152.944 369.125H86.343a7.5 7.5 0 0 1 0-15h66.602a7.5 7.5 0 1 1-.001 15z" fill="#fe646f"></path><path d="M274.732 207.305h-33.301a7.5 7.5 0 0 1 0-15h33.301a7.5 7.5 0 0 1 0 15z" fill="#a8d3d8"></path><path d="M86.336 335.821a7.463 7.463 0 0 1-3.445-.843 7.496 7.496 0 0 1-3.209-10.102c.185-.357 4.603-8.839 11.52-17.397 10.144-12.552 20.436-18.916 30.589-18.916 5.336 0 9.837 2.182 12.673 6.144 2.466 3.444 3.319 7.831 3.365 12.133l7.454-3.933a7.5 7.5 0 0 1 10.245 3.354l1.639-.803a7.5 7.5 0 0 1 10.755 7.562h40.012a7.5 7.5 0 0 1 0 15h-51.569a7.5 7.5 0 0 1-5.728-2.658l-3.864 1.893a7.498 7.498 0 0 1-9.806-3.002l-5.499 2.901a7.5 7.5 0 0 1-10.6-9.051c1.988-5.909 2.458-12.711 1.5-14.5a3.518 3.518 0 0 0-.579-.041c-5.208 0-11.876 4.676-18.778 13.166-6.003 7.385-9.972 14.972-10.012 15.047a7.5 7.5 0 0 1-6.663 4.046z" fill="#7ca1b1"></path></g></svg>