<svg viewBox="0 0 512 512" xmlns="http://www.w3.org/2000/svg"><g><path d="M425.98 443.153c0 21.016-3.647 39.641-10.312 55.929-3.194 7.777-10.714 12.918-19.131 12.918H115.463c-8.417 0-15.937-5.141-19.13-12.919-6.665-16.287-10.312-34.913-10.312-55.929 0-46.708 17.987-96.579 47.265-135.51 1.308 1.741 244.122 1.741 245.43 0 29.277 38.931 47.264 88.803 47.264 135.511z" fill="#fff1cf"></path><path d="M378.715 307.643a178.699 178.699 0 0 1-3.997 5.141c-6.882 25.013-21.675 47.481-42.031 63.706-21.706 17.287-48.903 26.816-76.584 26.816h-.124c-27.763 0-54.96-9.529-76.656-26.826-20.367-16.215-35.16-38.684-42.042-63.696-1.36-1.679-2.689-3.4-3.997-5.141 30.936-41.145 74.482-70.052 122.715-70.052s91.78 28.906 122.716 70.052z" fill="#ffeab7"></path><path d="M171.869.053s22.624 8.434 25.263 29.895c2.206 17.932-18.221 102.838-38.377 92.212S103.19 47.707 103.19 47.707z" fill="#c76d33"></path><path d="M340.131.053s-22.624 8.434-25.263 29.895c-2.206 17.932 18.221 102.838 38.377 92.212 20.156-10.625 55.565-74.453 55.565-74.453z" fill="#d97c41"></path><path d="M404.429 184.969c-4.028 41.475-20.892 85.66-48.542 118.265-.103.463-.216.927-.34 1.391-78.891 29.092-152.529-43.402-179.179-116.617-20.944-57.546 2.977-138.446 41.815-169.485 11.765-2.05 24.395-3.07 37.818-3.07 31.019 0 57.731 5.47 79.633 16.308 5.501 12.661 19.893 28.433 24.137 44.782 9.93 38.23 30.18 74.497 44.658 108.426z" fill="#e4996d"></path><path d="M332.177 302.933S303.213 326.458 256 326.407c-47.687.051-99.886-23.173-99.886-23.173-27.65-32.605-44.514-76.79-48.542-118.265 13.558-18.325 22.333-72.857 37.413-110.212 10.043-24.878 29.177-37.924 31.372-42.986 12.424-6.15 26.393-10.58 41.825-13.248-22.108 42.217-25.342 100.896-4.399 158.442 7.622 20.939 17.793 39.936 29.772 56.504 29.906 41.363 47.711 65.903 88.622 69.464zM405.376 165.91c0 6.254-.319 12.62-.948 19.058-33.924-27.454-45.029-70.196-54.96-108.427-4.244-16.349-8.334-32.121-13.835-44.782 45.04 22.305 69.743 67.313 69.743 134.151z" fill="#df8a57"></path><path d="M176.367 31.761c-5.501 12.661-9.591 28.433-13.835 44.782-9.931 38.23-21.036 80.972-54.96 108.427a196.496 196.496 0 0 1-.948-19.058c0-66.84 24.703-111.848 69.743-134.151z" fill="#d97c41"></path><path d="M355.886 303.234c-9.138 39.579-40.61 69.444-79.231 77.367-37.959-5.609-61.492-23.373-76.079-48.634-15.01-25.981-8.909-57.377 2.04-82.375a154.492 154.492 0 0 0 26.713-86.844v-55.455a26.607 26.607 0 0 1 7.809-18.863c4.832-4.831 11.497-7.819 18.863-7.819 14.732 0 26.671 11.95 26.671 26.682v55.537a154.494 154.494 0 0 0 40.012 103.749z" fill="#fff8e6"></path><path d="M276.655 380.601A101.493 101.493 0 0 1 256 382.692c-47.687.051-89.162-33.007-99.886-79.458l33.316-36.85a154.375 154.375 0 0 0 13.186-16.792c-5.11 24.879-.721 53.58 14.289 79.561 14.587 25.26 36.396 43.113 59.75 51.448z" fill="#fff1cf"></path><path d="M223.399 313.556c0 15.254 14.548 33.143 32.493 33.143s32.493-17.889 32.493-33.143-14.548-22.095-32.493-22.095-32.493 6.842-32.493 22.095z" fill="#666667"></path><g fill="#666667"><path d="M191.667 195.735a7.726 7.726 0 0 1-7.726-7.726v-12.362a7.726 7.726 0 1 1 15.452 0v12.362a7.725 7.725 0 0 1-7.726 7.726zM320.333 195.735a7.726 7.726 0 0 1-7.726-7.726v-12.362a7.726 7.726 0 1 1 15.452 0v12.362a7.724 7.724 0 0 1-7.726 7.726z" fill="#666667"></path></g><path d="M340.131.053c49.579-1.64 113.663 35.508 126.894 57.095 26.69 43.544-3.545 96.051-25.449 118.144-3.327 3.355-8.479 4.006-12.57 1.642C364.881 139.882 377.051 41.067 340.131.053z" fill="#e4996d"></path><path d="M171.869.053C122.29-1.588 58.206 35.561 44.975 57.148c-26.69 43.544 3.545 96.051 25.449 118.144 3.327 3.355 8.479 4.006 12.57 1.642C147.119 139.882 134.949 41.067 171.869.053z" fill="#df8a57"></path></g></svg>