<svg viewBox="0 0 58 58" xmlns="http://www.w3.org/2000/svg"><g><g fill="none" fill-rule="nonzero"><path d="M37 4v4H21V4a4 4 0 0 1 4-4h8a4 4 0 0 1 4 4z" fill="#285680"></path><path d="M37 8v46a4 4 0 0 1-4 4h-8a4 4 0 0 1-4-4V8z" fill="#3b97d3"></path><rect fill="#ffffff" rx="2"></rect><path d="M16 8v46a4 4 0 0 1-4 4H4a4 4 0 0 1-4-4V8z" fill="#e64c3c"></path><path d="M16 4v4H0V4a4 4 0 0 1 4-4h8a4 4 0 0 1 4 4z" fill="#802f34"></path><rect fill="#ffffff" rx="2"></rect><path d="M58 8v46a4 4 0 0 1-4 4h-8a4 4 0 0 1-4-4V8z" fill="#26b99a"></path><path d="M58 4v4H42V4a4 4 0 0 1 4-4h8a4 4 0 0 1 4 4z" fill="#33907c"></path><rect fill="#ffffff" rx="2"></rect><circle cx="29" cy="50" fill="#285680" r="3"></circle><circle cx="8" cy="50" fill="#802f34" r="3"></circle><circle cx="50" cy="50" fill="#33907c" r="3"></circle><g fill="#bdc3c7"><path d="M29 54a4 4 0 1 1 0-8 4 4 0 0 1 0 8zm0-6a2 2 0 1 0 0 4 2 2 0 0 0 0-4zM8 54a4 4 0 1 1 0-8 4 4 0 0 1 0 8zm0-6a2 2 0 1 0 0 4 2 2 0 0 0 0-4zM50 54a4 4 0 1 1 0-8 4 4 0 0 1 0 8zm0-6a2 2 0 1 0 0 4 2 2 0 0 0 0-4z" fill="#bdc3c7"></path></g></g></g></svg>