<svg viewBox="0 0 24 24" xmlns="http://www.w3.org/2000/svg"><g><path d="M7.504 16.496c-1.349-1.351.207-4.318 2.44-6.552 2.233-2.233 5.2-3.791 6.552-2.44 1.349 1.351-.207 4.318-2.44 6.552-2.227 2.226-5.199 3.794-6.552 2.44zm3.501-5.491c-2.231 2.232-2.729 4.142-2.44 4.431.292.286 2.2-.211 4.431-2.44 2.23-2.23 2.728-4.141 2.44-4.431-.686-.672-3.717 1.726-4.431 2.44z" fill="#00bcd4"></path><path d="M9.944 14.056c-2.233-2.233-3.789-5.201-2.44-6.552 1.353-1.351 4.319.208 6.552 2.44 2.233 2.233 3.789 5.201 2.44 6.552-1.55 1.55-4.863-.752-6.552-2.44zm-1.38-5.492c-.288.29.21 2.2 2.44 4.431 2.229 2.229 4.141 2.727 4.431 2.44.288-.289-.209-2.199-2.44-4.431-2.229-2.228-4.137-2.728-4.431-2.44z" fill="#00bcd4"></path><path d="M8.237 12c-1.181 1.753-1.693 3.534-.733 4.496.348.348.804.503 1.326.503.922 0 2.053-.483 3.17-1.236v-.013c-.444-.3-.871-.629-1.257-.959-.854.511-1.534.718-1.905.718-.132 0-.225-.026-.273-.073-.183-.183-.05-1.018.641-2.174A13.39 13.39 0 0 1 8.237 12zm2.502-2.794a14.932 14.932 0 0 0-1.533 1.533c.232.388.528.813.895 1.261.263-.321.563-.654.904-.995.193-.193.555-.509.995-.854v-.05a10.437 10.437 0 0 0-1.261-.895z" fill="#00a4b9"></path><path d="M8.83 7.001c-.522 0-.978.155-1.327.503-.959.962-.447 2.743.734 4.496.287.426.614.851.969 1.261a14.528 14.528 0 0 0 1.537 1.53c.387.33.813.659 1.257.959v-1.851c-.321-.263-.654-.563-.995-.904s-.641-.674-.904-.995a10.55 10.55 0 0 1-.895-1.261c-.691-1.155-.824-1.99-.641-2.174.048-.048.142-.075.274-.075.372 0 1.049.206 1.9.715.389.232.813.528 1.261.895V8.236c-1.118-.753-2.248-1.235-3.17-1.235z" fill="#00a4b9"></path><path d="M12.503 23.988a1 1 0 0 1-.044-1.999c.6-.027 1.197-.108 1.776-.24a1 1 0 0 1 .445 1.949c-.695.159-1.413.257-2.132.289zm-3.159-.283a12.002 12.002 0 0 1-2.049-.662 1 1 0 0 1 .785-1.84c.549.234 1.122.42 1.703.551a1 1 0 0 1-.439 1.951zm6.996-1.544a1 1 0 0 1 .404-1.355 10.13 10.13 0 0 0 1.495-.989 1 1 0 1 1 1.248 1.562c-.559.446-1.161.845-1.792 1.187a1 1 0 0 1-1.355-.405zm-11.809-.768a11.873 11.873 0 0 1-1.557-1.483 1 1 0 0 1 1.504-1.318c.393.448.829.864 1.297 1.237a1 1 0 1 1-1.244 1.564zm15.783-2.122a1 1 0 0 1-.221-1.397c.352-.483.66-1 .92-1.538a1 1 0 1 1 1.801.869 12.004 12.004 0 0 1-1.104 1.845 1 1 0 0 1-1.396.221zM1.195 17.226a11.996 11.996 0 0 1-.759-2.015 1 1 0 1 1 1.927-.532 9.9 9.9 0 0 0 .632 1.675 1 1 0 0 1-1.8.872zm21.452-2.279a1.002 1.002 0 0 1-.807-1.162A10 10 0 0 0 22 12c0-.553.447-1.021 1-1.021s1 .425 1 .978V12c0 .721-.064 1.441-.19 2.141-.1.546-.623.904-1.163.806zM1 13.011a.99.99 0 0 1-1-.989V12c0-.71.063-1.422.187-2.116a1 1 0 0 1 1.969.349A10.13 10.13 0 0 0 2 12c0 .553-.447 1.011-1 1.011zm20.631-3.71a9.772 9.772 0 0 0-.634-1.672 1 1 0 1 1 1.797-.877c.315.647.573 1.324.765 2.014a1 1 0 0 1-1.928.535zM1.644 8.149a1 1 0 0 1-.469-1.334c.31-.645.68-1.268 1.101-1.849a1 1 0 0 1 1.619 1.175c-.35.483-.658 1.002-.917 1.54a1 1 0 0 1-1.334.468zm17.865-2.754a10.21 10.21 0 0 0-1.302-1.235.999.999 0 1 1 1.244-1.566c.561.445 1.085.943 1.558 1.48a1 1 0 1 1-1.5 1.321zM4.34 4.041a.998.998 0 0 1 .155-1.405c.562-.45 1.163-.851 1.789-1.189a1 1 0 0 1 .954 1.757 9.972 9.972 0 0 0-1.493.992.999.999 0 0 1-1.405-.155zm11.561-1.252a10.09 10.09 0 0 0-1.706-.548.999.999 0 1 1 .437-1.951c.698.156 1.388.378 2.048.657a1 1 0 0 1-.779 1.842zM8.547 1.505a1 1 0 0 1 .75-1.199c.693-.159 1.41-.258 2.13-.293.51-.037 1.02.399 1.047.951a1 1 0 0 1-.951 1.047c-.601.028-1.198.111-1.776.244a1 1 0 0 1-1.2-.75z" fill="#607d8b"></path><path d="M12 22.125a1 1 0 0 0 0 1.728zm-4.31-1.002a1.002 1.002 0 0 0-.395 1.921c.66.281 1.35.504 2.049.662a1 1 0 0 0 .44-1.951 9.836 9.836 0 0 1-1.703-.551.99.99 0 0 0-.391-.081zM3.727 18.25a1 1 0 0 0-.753 1.659c.471.538.994 1.037 1.557 1.483a.996.996 0 0 0 1.404-.16.999.999 0 0 0-.16-1.404 10.118 10.118 0 0 1-1.297-1.237.992.992 0 0 0-.751-.341zm-2.329-4.304a.998.998 0 0 0-.961 1.265c.19.686.444 1.364.759 2.015a1 1 0 1 0 1.801-.871 9.9 9.9 0 0 1-.632-1.675 1.005 1.005 0 0 0-.967-.734zm-.235-4.889a1 1 0 0 0-.976.827A12.064 12.064 0 0 0 0 12v.022c0 .553.447.989 1 .989S2 12.553 2 12c0-.593.053-1.187.155-1.767a1 1 0 0 0-.992-1.176zm1.922-4.504a.997.997 0 0 0-.81.414 11.978 11.978 0 0 0-1.1 1.848 1 1 0 0 0 1.802.866c.259-.538.567-1.057.917-1.54a1 1 0 0 0-.809-1.588zm3.674-3.228a.993.993 0 0 0-.475.121c-.626.339-1.227.74-1.789 1.19a.998.998 0 0 0-.155 1.405.996.996 0 0 0 1.405.155c.469-.376.971-.71 1.492-.992a.999.999 0 0 0-.478-1.879zM11.488.011l-.061.002c-.72.035-1.437.134-2.13.293a1 1 0 0 0 .449 1.949 10.03 10.03 0 0 1 1.776-.244c.176-.009.339-.062.478-.148V.168a.937.937 0 0 0-.512-.157z" fill="#546d79"></path></g></svg>