<?xml version="1.0" encoding="iso-8859-1"?>
<!-- Generator: Adobe Illustrator 19.0.0, SVG Export Plug-In . SVG Version: 6.00 Build 0)  -->
<svg version="1.1" id="Capa_1" xmlns="http://www.w3.org/2000/svg" xmlns:xlink="http://www.w3.org/1999/xlink" x="0px" y="0px"
	 viewBox="0 0 512 512" style="enable-background:new 0 0 512 512;" xml:space="preserve">
<path style="fill:#385F82;" d="M511.536,53.543v423.42c0,19.348-15.699,35.037-35.047,35.037H173.044
	c-19.359,0-35.047-15.688-35.047-35.037V53.543c0-19.359,15.688-35.047,35.047-35.047h303.445
	C495.837,18.496,511.536,34.185,511.536,53.543z"/>
<g>
	<path style="fill:#1F4C68;" d="M311.648,374.331c-23.245,23.245-54.148,36.044-87.016,36.044c-24.283,0-47.486-6.991-67.328-20.006
		l-19.307,19.307V199.93c23.183-23.008,53.932-35.674,86.635-35.674c32.867,0,63.771,12.799,87.016,36.044
		C359.628,248.28,359.628,326.351,311.648,374.331z"/>
	<path style="fill:#1F4C68;" d="M414.604,18.495V71.79c0,6.813-5.523,12.337-12.337,12.337H247.255
		c-6.813,0-12.337-5.523-12.337-12.337V18.495H414.604z"/>
	<path style="fill:#1F4C68;" d="M159.171,479.974V50.529c0-6.813,5.523-12.337,12.337-12.337h306.508
		c6.813,0,12.337,5.523,12.337,12.337v429.445c0,6.813-5.523,12.337-12.337,12.337H171.507
		C164.694,492.311,159.171,486.788,159.171,479.974z"/>
</g>
<path style="fill:#DDEDE5;" d="M476.993,57.74v415.026c0,3.414-2.767,6.181-6.181,6.181h-292.09c-3.414,0-6.181-2.767-6.181-6.181
	V57.74c0-3.414,2.767-6.181,6.181-6.181h292.09C474.225,51.559,476.993,54.327,476.993,57.74z"/>
<g>
	<path style="fill:#AFC3C3;" d="M311.648,374.331c-23.245,23.245-54.148,36.044-87.016,36.044c-18.3,0-35.993-3.968-52.092-11.504
		V175.76c16.1-7.536,33.793-11.504,52.092-11.504c32.867,0,63.771,12.799,87.016,36.044
		C359.628,248.28,359.628,326.351,311.648,374.331z"/>
	<path style="fill:#AFC3C3;" d="M414.604,51.558V71.79c0,6.816-5.521,12.337-12.337,12.337H247.255
		c-6.816,0-12.337-5.521-12.337-12.337V51.558H414.604z"/>
</g>
<path style="fill:#618BAA;" d="M395.06,70.765H254.463c-3.414,0-6.181-2.767-6.181-6.181V6.181c0-3.414,2.767-6.181,6.181-6.181
	H395.06c3.414,0,6.181,2.767,6.181,6.181v58.403C401.241,67.998,398.474,70.765,395.06,70.765z"/>
<path style="fill:#89B4C9;" d="M401.241,13.879h-152.96V6.181c0-3.414,2.767-6.181,6.181-6.181H395.06
	c3.414,0,6.181,2.767,6.181,6.181V13.879z"/>
<g>
	<circle style="fill:#35696A;" cx="283.06" cy="35.38" r="10.795"/>
	<path style="fill:#35696A;" d="M373.08,43.109h-48.319c-4.267,0-7.726-3.459-7.726-7.726s3.459-7.726,7.726-7.726h48.319
		c4.267,0,7.726,3.459,7.726,7.726S377.348,43.109,373.08,43.109z"/>
	<path style="fill:#35696A;" d="M421.677,251.645h-91.643c-4.267,0-7.726-3.459-7.726-7.726c0-4.268,3.459-7.726,7.726-7.726h91.643
		c4.267,0,7.726,3.459,7.726,7.726S425.944,251.645,421.677,251.645z"/>
	<path style="fill:#35696A;" d="M421.677,275.582h-21.771c-4.267,0-7.726-3.459-7.726-7.726c0-4.268,3.459-7.726,7.726-7.726h21.771
		c4.267,0,7.726,3.459,7.726,7.726C429.403,272.124,425.944,275.582,421.677,275.582z"/>
	<path style="fill:#35696A;" d="M374.705,275.582h-91.643c-4.267,0-7.726-3.459-7.726-7.726c0-4.268,3.459-7.726,7.726-7.726h91.643
		c4.267,0,7.726,3.459,7.726,7.726C382.431,272.124,378.972,275.582,374.705,275.582z"/>
	<path style="fill:#35696A;" d="M421.677,321.211h-91.643c-4.267,0-7.726-3.459-7.726-7.726c0-4.268,3.459-7.726,7.726-7.726h91.643
		c4.267,0,7.726,3.459,7.726,7.726C429.403,317.752,425.944,321.211,421.677,321.211z"/>
	<path style="fill:#35696A;" d="M421.677,345.148h-21.771c-4.267,0-7.726-3.459-7.726-7.726c0-4.268,3.459-7.726,7.726-7.726h21.771
		c4.267,0,7.726,3.459,7.726,7.726S425.944,345.148,421.677,345.148z"/>
	<path style="fill:#35696A;" d="M374.705,345.148h-91.643c-4.267,0-7.726-3.459-7.726-7.726c0-4.268,3.459-7.726,7.726-7.726h91.643
		c4.267,0,7.726,3.459,7.726,7.726S378.972,345.148,374.705,345.148z"/>
</g>
<g>
	<path style="fill:#FF4F19;" d="M396.971,132.398H251.972c-4.267,0-7.726-3.459-7.726-7.726s3.459-7.726,7.726-7.726h144.999
		c4.267,0,7.726,3.459,7.726,7.726S401.238,132.398,396.971,132.398z"/>
	<path style="fill:#FF4F19;" d="M353.304,154.479h-55.791c-4.267,0-7.726-3.459-7.726-7.726s3.459-7.726,7.726-7.726h55.791
		c4.267,0,7.726,3.459,7.726,7.726S357.571,154.479,353.304,154.479z"/>
</g>
<path style="fill:#35696A;" d="M413.147,202.072H236.376c-4.267,0-7.726-3.459-7.726-7.726s3.459-7.726,7.726-7.726h176.771
	c4.267,0,7.726,3.459,7.726,7.726S417.414,202.072,413.147,202.072z"/>
<rect x="80.625" y="376.435" transform="matrix(-0.7071 0.7071 -0.7071 -0.7071 485.5965 575.5313)" style="fill:#AFC3C3;" width="85.954" height="23.802"/>
<g>
	<path style="fill:#86A5A6;" d="M162.414,366.359l-16.04,16.04c-3.037-2.495-5.986-5.166-8.825-8.005
		c-2.839-2.839-5.51-5.788-8.005-8.825l16.04-16.04L162.414,366.359z"/>
	
		<rect x="89.042" y="396.727" transform="matrix(-0.7071 0.7071 -0.7071 -0.7071 465.3184 624.5153)" style="fill:#86A5A6;" width="28.552" height="23.802"/>
</g>
<circle style="fill:#385F82;" cx="224.63" cy="287.31" r="109.69"/>
<path style="fill:#00D8E0;" d="M302.863,287.316c0,43.205-35.03,78.234-78.234,78.234c-7.937,0-15.595-1.18-22.808-3.384
	c-6.737-2.039-13.08-4.967-18.907-8.651c-5.309-3.353-10.183-7.327-14.529-11.818c-6.737-6.954-12.191-15.171-15.978-24.247
	c-3.87-9.272-6.012-19.455-6.012-30.135c0-43.205,35.03-78.234,78.234-78.234c10.68,0,20.863,2.142,30.135,6.012
	c9.076,3.788,17.292,9.241,24.246,15.978c4.491,4.346,8.465,9.221,11.818,14.529c3.684,5.826,6.613,12.17,8.651,18.907v0.01
	C301.683,271.731,302.863,279.379,302.863,287.316z"/>
<g>
	<path style="fill:#98F4F4;" d="M279.009,231.072L168.384,341.697c-6.737-6.954-12.191-15.171-15.978-24.247l102.357-102.357
		C263.839,218.882,272.055,224.335,279.009,231.072z"/>
	<path style="fill:#98F4F4;" d="M299.479,264.508v0.01l-97.659,97.648c-6.737-2.039-13.08-4.967-18.907-8.651l107.914-107.914
		C294.512,251.428,297.44,257.771,299.479,264.508z"/>
</g>
<path style="fill:#DDEDE5;" d="M117.905,436.2l-28.588,28.588l-10.92,10.93L45.566,508.54c-3.915,3.915-10.25,3.915-14.155,0
	L3.4,480.529c-3.915-3.904-3.915-10.24,0-14.155l32.832-32.822l10.92-10.93l28.588-28.577c3.904-3.915,10.24-3.915,14.155,0
	l28.011,28.011C121.81,425.961,121.81,432.296,117.905,436.2z"/>
<g>
	<path style="fill:#86A5A6;" d="M70.197,483.91l-24.628,24.628c-3.915,3.915-10.252,3.915-14.159,0.007L3.398,480.534
		c-3.908-3.908-3.908-10.244,0.007-14.159l24.628-24.628L70.197,483.91z"/>
	<polygon style="fill:#86A5A6;" points="89.318,464.788 78.398,475.718 36.232,433.553 47.152,422.623 	"/>
</g>
<path style="fill:#FF4F19;" d="M421.505,427.491h-84.753c-3.414,0-6.181-2.767-6.181-6.181v-32.47c0-3.414,2.767-6.181,6.181-6.181
	h84.753c3.414,0,6.181,2.767,6.181,6.181v32.469C427.686,424.723,424.919,427.491,421.505,427.491z"/>
<g>
</g>
<g>
</g>
<g>
</g>
<g>
</g>
<g>
</g>
<g>
</g>
<g>
</g>
<g>
</g>
<g>
</g>
<g>
</g>
<g>
</g>
<g>
</g>
<g>
</g>
<g>
</g>
<g>
</g>
</svg>
