<svg viewBox="0 0 512 512" xmlns="http://www.w3.org/2000/svg"><g><path d="M256 22C120.69 22 11 131.69 11 267c0 53.494 17.156 102.975 46.25 143.266h1v-22.201l4.75-.859h90.658l5.016.846V490l1 2.326C189.242 504.983 221.8 512 256 512s66.758-7.017 96.327-19.674l1-2.326V360.883l5.391-.854h95.033v50.236h1C483.844 369.975 501 320.494 501 267c0-135.31-109.69-245-245-245z" fill="#05e39c"></path><circle cx="256" cy="267" fill="#0ed290" r="162"></circle><path d="M426.441 142.501h-1.165v2.709c0 .589-.258 1.146-.708 1.527l-40.273 34.078a1.97 1.97 0 0 1-1.287.474h-.001a2 2 0 0 1-1.765-1.052l-9.319-17.307c-12.115 12.324-19.596 29.217-19.596 47.864v126.588l5.415 1h90.54l6.468-1V170.81c0-15.635-12.674-28.309-28.309-28.309z" fill="#ffffff"></path><path d="M153.743 386.206H63.8l-6.549 1v23.06c25.897 35.863 61.255 64.438 102.423 82.06V387.205z" fill="#554e56"></path><path d="M155.257 356.978c-.385.425-.912.66-1.485.66-.536 0-1.041-.21-1.419-.592l-12.666-12.765a1.999 1.999 0 0 1-.573-1.578l10.689-126.114a3.988 3.988 0 0 0-1.525-3.493l-15.162-11.818-4.186 7.773a4.663 4.663 0 0 1-4.113 2.453 4.6 4.6 0 0 1-3.003-1.104l-36.825-31.16a4.705 4.705 0 0 1-.688-.724c-15.05.659-27.051 13.064-27.051 28.277v157.766l5.893 1h90.29l6.24-1v-12.473z" fill="#ffffff"></path><path d="M395.852 359.029h-37.214l-6.311 1v132.297c15.011-6.426 29.235-14.327 42.525-23.486l1-2.84z" fill="#554e56"></path><path d="M57.25 387.205v23.06a246.362 246.362 0 0 0 59.898 58.596v-81.656zM394.852 359.029v109.832a246.362 246.362 0 0 0 59.898-58.596v-51.236z" fill="#685e68"></path><path d="m198.892 87.75-96.125 55.997-14.215-3.809a8.73 8.73 0 0 1-6.418-9.388l8.35-75.863c.322-2.928 1.078-5.807 2.371-8.455 6.207-12.708 20.728-19.663 34.901-15.865l89.976 24.109c4.677 1.253 6.299 7.062 2.947 10.557z" fill="#fd6930"></path><path d="m107.678 130.55 8.35-75.863c.322-2.929 1.078-5.807 2.371-8.455 3.192-6.534 8.585-11.542 14.996-14.354l-5.639-1.511c-14.173-3.798-28.694 3.158-34.901 15.865-1.293 2.647-2.049 5.526-2.371 8.455l-8.35 75.863a8.731 8.731 0 0 0 6.418 9.388l14.215 3.809 8.658-5.043a8.731 8.731 0 0 1-3.747-8.154z" fill="#fd5426"></path><path d="m199.493 134.661-8.996-15.581 8.395-31.331-48.101-12.889a5 5 0 0 0-5.63 2.34l-15.72 27.385a2.777 2.777 0 0 1-3.402 1.964l-4.603-1.233a2.78 2.78 0 0 1-1.922-1.821l-5.268-16.142c-.742-2.274-2.995-3.727-5.367-3.418-5.865.764-11.001 4.957-12.621 11.002l-2.998 11.189c-1.996 7.449 2.025 15.151 9.046 17.908l-11.251 41.988 41.219 17.11 3.612-13.481 12.734 3.412c14.124 3.785 28.643-4.597 32.427-18.722l1.784-6.659 5.53 1.482c8.517 2.283 15.54-6.869 11.132-14.503z" fill="#fed2a4"></path><path d="m102.307 124.035-11.251 41.988 10.829 4.495 11.553-43.115c.553-2.064-.289-4.22-2.044-5.44-5.069-3.523-7.667-9.988-5.983-16.272l2.998-11.189a14.907 14.907 0 0 1 5.434-8.051c-.979-1.741-2.923-2.783-4.963-2.517-5.865.764-11.001 4.957-12.621 11.002l-2.998 11.189c-1.996 7.451 2.024 15.154 9.046 17.91z" fill="#ffbd86"></path><path d="M168.223 125.931a6.795 6.795 0 0 1-4.804-8.321l2.65-9.892a6.795 6.795 0 0 1 13.125 3.517l-2.651 9.892a6.793 6.793 0 0 1-8.32 4.804z" fill="#d88a55"></path><path d="M159.673 238.794c0-19.202-7.95-36.527-20.708-48.934a4.602 4.602 0 0 1-.463 1.412l-5.868 10.899 15.028 11.713a3 3 0 0 1 1.145 2.62l-10.69 126.114c-.074.877.24 1.742.86 2.366l12.666 12.765a3 3 0 0 0 4.356-.103l5.204-5.764a3.004 3.004 0 0 0 .773-2.073z" fill="#685e68"></path><path d="m289.281 296.194-.263-.189h-20.635l-5.105 5.105c-.794.794-1.85 1.231-2.973 1.231s-2.18-.437-2.974-1.231a4.21 4.21 0 0 1 0-5.946l6.094-6.093-1.238-.176-9.508-2.548-1.632 2.225-4.802 17.924a10.677 10.677 0 0 1 2.024-.201c.933 0 1.867.124 2.778.368l18.561 4.973c2.763.741 5.072 2.512 6.502 4.989s1.81 5.363 1.069 8.125l-2.506 9.354a10.679 10.679 0 0 1-2.452 4.457l.437.117c6.273 1.681 12.68-1.127 15.846-6.444l1.939-1.681 4.819-17.573c1.675-6.244-.73-12.991-5.981-16.786z" fill="#fed2a4"></path><path d="m296.12 285.018-1.416-1.423-28.279 3.218c-1.38 0-2.704.548-3.68 1.524l-6.119 6.119a5.205 5.205 0 0 0 7.36 7.36l4.813-4.812h19.897c4.803 3.471 7.227 9.653 5.602 15.718l-4.268 15.928a14.15 14.15 0 0 1-1.525 3.585l17.944-4.808.67-1.361z" fill="#f6a96c"></path><path d="m352.327 268.155-57.623 15.44 11.744 43.832 45.879-12.293z" fill="#f2fbff"></path><path d="m352.327 300.914-27.983 7.498c-5.334 1.429-10.818-1.736-12.247-7.071l-5.601-20.905-11.792 3.16 11.745 43.832 45.879-12.293v-14.221z" fill="#dff6fd"></path><path d="m235.427 323.589 2.507-9.354a10.721 10.721 0 0 1 9.39-7.896l5.357-19.992-90.708-24.305-54.397-54.397c-8.699-8.699-22.873-9.344-31.876-.959-9.452 8.803-9.65 23.607-.595 32.661l59.929 59.929a10.01 10.01 0 0 0 4.382 2.561l95.887 26.769c-.354-1.64-.323-3.35.124-5.017z" fill="#f2fbff"></path><path d="m235.427 323.589 1.931-7.206-81.401-22.725a9.99 9.99 0 0 1-4.382-2.561l-59.929-59.929c-8.319-8.319-8.805-21.479-1.502-30.391-5.216.18-10.362 2.106-14.444 5.908-9.452 8.803-9.65 23.607-.595 32.661l59.929 59.929a10.01 10.01 0 0 0 4.382 2.561l95.887 26.769a10.639 10.639 0 0 1 .124-5.016z" fill="#dff6fd"></path><path d="m234.461 323.33 2.507-9.354c1.674-6.246 8.093-9.952 14.339-8.279l18.56 4.973c6.246 1.674 9.952 8.093 8.279 14.339l-2.507 9.354c-1.674 6.246-8.093 9.952-14.339 8.279l-18.56-4.973c-6.246-1.673-9.953-8.093-8.279-14.339z" fill="#f6a96c"></path><path d="m269.752 334.598-18.56-4.973c-6.246-1.674-9.952-8.093-8.279-14.339l2.507-9.354c.028-.104.068-.202.098-.305a11.704 11.704 0 0 0-8.551 8.349l-2.507 9.354c-1.674 6.246 2.033 12.666 8.279 14.339l18.56 4.973c6.142 1.646 12.441-1.917 14.241-7.974a11.652 11.652 0 0 1-5.788-.07z" fill="#ea9b58"></path><path d="m427.049 88.175-6.914-62.82c-.322-2.928-1.078-5.807-2.371-8.454-6.207-12.708-20.728-19.663-34.901-15.865l-25.195 6.751c-5.617-2.969-12.313-3.932-18.934-2.157a25.994 25.994 0 0 0-8.594 4.127c-5.188-2.218-11.12-2.799-16.993-1.225-13.925 3.731-22.188 18.044-18.458 31.969 2.397 8.947 8.813 15.325 17.038 17.918l1.226.714 47.134-12.637a4.01 4.01 0 0 1 4.505 1.872l15.66 27.281a3.779 3.779 0 0 0 4.586 2.537l4.603-1.233a3.764 3.764 0 0 0 2.613-2.477l5.269-16.143c.541-1.656 2.06-2.769 3.78-2.769.167 0 .337.011.507.033 5.686.741 10.311 4.772 11.784 10.27l2.998 11.188a14.045 14.045 0 0 1-8.445 16.719l-.832.326 5.076 18.943c9.846-3.986 16.046-14.075 14.858-24.868z" fill="#685e68"></path><path d="M318.896 35.5c-2.709-10.111.91-20.423 8.424-26.743-4.468-1.337-9.337-1.522-14.173-.226-13.925 3.731-22.188 18.044-18.458 31.969 2.397 8.947 8.813 15.325 17.038 17.918l1.226.714 22.256-5.967c-7.873-2.733-13.987-8.985-16.313-17.665z" fill="#554e56"></path><path d="m377.571 150.917 39.405-16.357a6.023 6.023 0 0 1 1.896-.445l-1.406-5.245-9.155-34.166c7.021-2.757 11.042-10.459 9.046-17.908l-2.998-11.189c-1.62-6.046-6.756-10.238-12.621-11.002-2.372-.309-4.625 1.143-5.367 3.418l-5.268 16.142a2.777 2.777 0 0 1-1.922 1.821l-4.603 1.233a2.778 2.778 0 0 1-3.402-1.964l-15.72-27.385a4.999 4.999 0 0 0-5.63-2.34l-48.101 12.889 8.395 31.331-8.996 15.581c-4.407 7.634 2.615 16.786 11.13 14.505l5.53-1.482 1.784 6.659c3.785 14.124 18.303 22.507 32.427 18.722l12.734-3.412z" fill="#f6a96c"></path><path d="M342.396 96.599a6.795 6.795 0 0 0 4.804-8.321l-2.651-9.892a6.795 6.795 0 0 0-13.125 3.517l2.651 9.892a6.795 6.795 0 0 0 8.321 4.804z" fill="#d88a55"></path><path d="m363.765 184.552 13.946-10.871-6.478-12.031c-12.289 12.348-19.907 29.347-19.907 48.144v115.125c0 .911.414 1.773 1.126 2.343l1.866 1.493a4 4 0 0 0 5.338-.306l12.041-12.136a4 4 0 0 0 1.146-3.155l-10.605-125.113a4.004 4.004 0 0 1 1.527-3.493z" fill="#685e68"></path><path d="M352.327 337.383H454.75v22.647H352.327z" fill="#918291"></path><path d="M352.327 337.383H379v22.647h-26.673z" fill="#685e68"></path><path d="M57.25 364.559h102.423v22.647H57.25z" fill="#918291"></path><path d="M395.662 388.424c0 6.643 5.385 12.028 12.028 12.028h21.321c6.643 0 12.028-5.385 12.028-12.028V367h-45.377z" fill="#f6a96c"></path><path d="m139.384 191.747-9.573 17.779c-1.706 3.168-5.895 3.962-8.642 1.638l-36.825-31.16a5.664 5.664 0 0 1-2.005-4.322v-5.879c0-4.037 4.104-6.777 7.832-5.229l46.399 19.26a5.661 5.661 0 0 1 2.814 7.913z" fill="#f2fbff"></path><path d="M93 186.177v-5.879c0-4.037 4.104-6.777 7.832-5.229l38.817 16.113a5.662 5.662 0 0 0-3.08-7.349l-46.399-19.26c-3.728-1.548-7.832 1.192-7.832 5.229v5.879a5.66 5.66 0 0 0 2.005 4.322l8.806 7.451a5.603 5.603 0 0 1-.149-1.277z" fill="#dff6fd"></path><path d="m369.933 161.344 10.428 19.367a3 3 0 0 0 4.579.868l40.274-34.078a2.999 2.999 0 0 0 1.062-2.29v-5.109c0-4.991-5.074-8.379-9.684-6.465l-43.18 17.924c-3.827 1.588-5.444 6.135-3.479 9.783z" fill="#f2fbff"></path><path d="M386.839 161.344c-1.964-3.648-.347-8.195 3.48-9.784l35.203-14.613c-1.576-3.115-5.385-4.782-8.929-3.311l-43.18 17.924c-3.827 1.589-5.444 6.135-3.48 9.784l10.428 19.367a3 3 0 0 0 4.579.868l8.789-7.437z" fill="#dff6fd"></path><path d="M441.039 367h-45.377V198.147c0-12.531 10.158-22.689 22.689-22.689s22.689 10.158 22.689 22.689V367z" fill="#f2fbff"></path><path d="M412.623 388.424V367h-16.961v21.424c0 6.643 5.385 12.028 12.028 12.028h16.961c-6.643 0-12.028-5.385-12.028-12.028z" fill="#ea9b58"></path><path d="M426.831 177.103a22.62 22.62 0 0 0-8.481-1.645c-12.531 0-22.688 10.158-22.688 22.689V367h16.961V198.147c0-9.531 5.88-17.684 14.208-21.044z" fill="#dff6fd"></path><path d="M164 159c-12.683 0-23-10.318-23-23a6 6 0 0 1 12 0c0 6.065 4.935 11 11 11a6 6 0 0 1 0 12zM351 129a6 6 0 0 1 0-12c6.065 0 11-4.935 11-11a6 6 0 0 1 12 0c0 12.682-10.317 23-23 23z" fill="#d88a55"></path><path d="M327 189.329C327 158.772 302.229 134 271.671 134s-55.329 24.772-55.329 55.329c0 26.424 18.529 48.508 43.3 54.002l9.271 21.65c1.039 2.425 4.477 2.425 5.516 0l9.271-21.65c24.77-5.494 43.3-27.578 43.3-54.002z" fill="#fed402"></path><path d="M273.554 241.994a9.943 9.943 0 0 0-6.199-5.598c-22.591-6.963-39.012-27.992-39.012-52.868 0-19.55 10.149-36.718 25.455-46.56-21.783 7.434-37.455 28.061-37.455 52.361 0 26.424 18.529 48.508 43.3 54.002l9.271 21.65c1.039 2.425 4.477 2.425 5.516 0l4.484-10.472z" fill="#fac600"></path><path d="M271.671 219.917c-11.808 0-21.414-9.606-21.414-21.415a5 5 0 1 1 10 0c0 6.294 5.12 11.415 11.414 11.415s11.415-5.121 11.415-11.415a5 5 0 1 1 10 0c0 11.808-9.606 21.415-21.415 21.415zM260.849 184.795a5 5 0 0 1-5-5c0-1.8-1.465-3.264-3.265-3.264s-3.264 1.464-3.264 3.264a5 5 0 1 1-10 0c0-7.314 5.95-13.264 13.264-13.264s13.265 5.95 13.265 13.264a5 5 0 0 1-5 5zM299.022 184.795a5 5 0 0 1-5-5c0-1.8-1.465-3.264-3.265-3.264s-3.264 1.464-3.264 3.264a5 5 0 1 1-10 0c0-7.314 5.95-13.264 13.264-13.264s13.265 5.95 13.265 13.264a5 5 0 0 1-5 5z" fill="#fd6930"></path></g></svg>