<svg viewBox="0 0 512 512" xmlns="http://www.w3.org/2000/svg"><g><path d="M90.726 66.073V231.31c0 9.934 8.053 17.987 17.987 17.987h294.573c9.934 0 17.987-8.053 17.987-17.987V66.073C421.274 29.582 391.692 0 355.201 0a48.94 48.94 0 0 0-30.838 10.938l-3.625 2.941a3.18 3.18 0 0 1-3.821.141l-7.559-5.257A48.937 48.937 0 0 0 281.413 0H156.799c-36.491 0-66.073 29.582-66.073 66.073z" fill="#365e7d"></path><path d="M355.201 0a48.95 48.95 0 0 0-16.267 2.784c27.231 8.161 47.08 33.401 47.08 63.288V231.31c0 9.934-8.053 17.987-17.987 17.987h35.26c9.934 0 17.987-8.053 17.987-17.987V66.073C421.274 29.582 391.692 0 355.201 0z" fill="#2b4d66"></path><path d="M303.152 347.718h-94.303c-38.542 0-69.786 31.244-69.786 69.786v85.608a8.888 8.888 0 0 0 8.888 8.888H364.05a8.888 8.888 0 0 0 8.888-8.888v-85.608c0-38.542-31.244-69.786-69.786-69.786z" fill="#dd636e"></path><path d="M303.152 347.718h-34.004c38.542 0 69.786 31.244 69.786 69.786v85.608a8.888 8.888 0 0 1-8.888 8.888h34.004a8.888 8.888 0 0 0 8.888-8.888v-85.608c0-38.542-31.244-69.786-69.786-69.786z" fill="#da4a54"></path><path d="m275.45 296.259-37.314-2.195c-9.527 0-9.945 44.635-9.945 44.635v27.325c0 15.344 12.439 27.784 27.784 27.784 15.344 0 27.784-12.439 27.784-27.784V338.7c-.001 0 1.218-42.441-8.309-42.441z" fill="#eaac9d"></path><path d="M256 347.718c-74.046 0-134.073-60.026-134.073-134.072v-81.091a3.529 3.529 0 0 1 3.53-3.522c62.052-.114 116.894-9.002 165.813-40.613 1.462-.944 3.415-.643 4.462.747 22.091 29.327 52.22 37.443 90.826 39.677a3.716 3.716 0 0 1 3.514 3.703v81.1c0 74.044-60.026 134.071-134.072 134.071z" fill="#ffcbbe"></path><path d="M386.559 128.843c-11.36-.657-21.98-1.831-31.883-3.898v88.7c0 68.046-50.694 124.246-116.374 132.908A135.265 135.265 0 0 0 256 347.717c74.046 0 134.072-60.026 134.072-134.072v-81.1a3.716 3.716 0 0 0-3.513-3.702z" fill="#eaac9d"></path><ellipse cx="199.073" cy="200.69" fill="#f6f9f9" rx="22.256" ry="24.316"></ellipse><path d="M199.073 211.14a7.725 7.725 0 0 1-7.726-7.726v-5.448a7.726 7.726 0 1 1 15.452 0v5.448a7.725 7.725 0 0 1-7.726 7.726z" fill="#365e7d"></path><ellipse cx="312.927" cy="200.69" fill="#f6f9f9" rx="22.256" ry="24.316"></ellipse><path d="M312.927 211.14a7.725 7.725 0 0 1-7.726-7.726v-5.448a7.726 7.726 0 1 1 15.452 0v5.448a7.725 7.725 0 0 1-7.726 7.726z" fill="#365e7d"></path><path d="M211.224 168.963a7.68 7.68 0 0 1-4.371-1.361c-5.454-3.749-10.105-3.751-15.56 0a7.727 7.727 0 0 1-8.756-12.731c10.818-7.442 22.258-7.44 33.073 0a7.727 7.727 0 0 1-4.386 14.092zM326.339 168.963a7.68 7.68 0 0 1-4.371-1.361c-5.454-3.749-10.105-3.751-15.56 0a7.727 7.727 0 0 1-8.756-12.731c10.819-7.442 22.259-7.44 33.073 0a7.727 7.727 0 0 1-4.386 14.092z" fill="#2b4d66"></path><path d="M256 236.331c-22.356 0-40.48 19.057-40.48 42.564 0 8.378 2.302 16.19 6.277 22.776.799 1.325 1.102 1.726 1.102 1.726a19.052 19.052 0 0 1-.568-4.537c0-9.134 6.869 13.927 16.835 13.927 6.667 0 11.37 2.718 14.08 4.912a4.363 4.363 0 0 0 5.509 0c2.71-2.194 7.413-4.912 14.08-4.912 9.966 0 16.835-23.062 16.835-13.927 0 1.471-.189 2.981-.566 4.517l1.513-2.407c3.957-6.294 5.863-13.993 5.863-22.075 0-23.507-18.124-42.564-40.48-42.564z" fill="#da4a54"></path><path d="M272.835 281.883c-6.667 0-11.37 2.718-14.08 4.912a4.363 4.363 0 0 1-5.509 0c-2.71-2.194-7.413-4.912-14.08-4.912-9.966 0-16.835 7.844-16.835 16.978 0 1.471.191 3 .568 4.537 7.327 10.933 19.415 18.062 33.101 18.062s25.777-7.149 33.104-18.082c.378-1.536.566-3.046.566-4.517 0-9.135-6.869-16.978-16.835-16.978z" fill="#dd636e"></path></g></svg>