<svg viewBox="0 0 512 512" xmlns="http://www.w3.org/2000/svg"><g><g fill="#ffb99c"><path d="M90 0C65.098 0 45 20.098 45 45s20.098 45 45 45 45-20.098 45-45S114.902 0 90 0zM240 0c-24.902 0-45 20.098-45 45s20.098 45 45 45 45-20.098 45-45-20.098-45-45-45zM390 0c-24.902 0-45 20.098-45 45s20.098 45 45 45 45-20.098 45-45-20.098-45-45-45zm0 0" fill="#ffb99c"></path></g><path d="M90 90V0c24.902 0 45 20.098 45 45s-20.098 45-45 45zM240 90V0c24.902 0 45 20.098 45 45s-20.098 45-45 45zM390 90V0c24.902 0 45 20.098 45 45s-20.098 45-45 45zm0 0" fill="#ff9468"></path><path d="M465 135v60c0 8.402-6.598 15-15 15H315l-30-30 30-45c0-24.602 20.398-45 45-45h60c24.602 0 45 20.398 45 45zm0 0" fill="#4bb9ec"></path><path d="M465 135v60c0 8.402-6.598 15-15 15h-60V90h30c24.602 0 45 20.398 45 45zm0 0" fill="#0095ff"></path><path d="M315 135v75H165l-30-30 30-45c0-24.602 20.398-45 45-45h60c24.602 0 45 20.398 45 45zm0 0" fill="#4bb9ec"></path><path d="M315 135v75h-75V90h30c24.602 0 45 20.398 45 45zm0 0" fill="#0095ff"></path><path d="M165 135v75H30c-8.402 0-15-6.598-15-15v-60c0-24.602 20.398-45 45-45h60c24.602 0 45 20.398 45 45zm0 0" fill="#4bb9ec"></path><path d="M165 135v75H90V90h30c24.602 0 45 20.398 45 45zm0 0" fill="#0095ff"></path><path d="M480 270v75c0 8.398-6.598 15-15 15h-90c-8.402 0-15-6.602-15-15l-30-42.285L360 270c0-16.5 13.5-30 30-30h60c16.5 0 30 13.5 30 30zm0 0" fill="#4bb9ec"></path><path d="M420 150c-24.902 0-45 20.098-45 45 0 24.898 20.098 45 45 45s45-20.102 45-45c0-24.902-20.098-45-45-45zm0 0" fill="#ffb99c"></path><path d="M420 240v-90c24.902 0 45 20.098 45 45 0 24.898-20.098 45-45 45zm0 0" fill="#ff9468"></path><path d="M480 270v75c0 8.398-6.598 15-15 15h-45V240h30c16.5 0 30 13.5 30 30zm0 0" fill="#0095ff"></path><path d="M360 270v75c0 8.398-6.598 15-15 15h-90c-8.402 0-15-6.602-15-15l-30-42.285L240 270c0-16.5 13.5-30 30-30h60c16.5 0 30 13.5 30 30zm0 0" fill="#4bb9ec"></path><path d="M300 150c-24.902 0-45 20.098-45 45 0 24.898 20.098 45 45 45s45-20.102 45-45c0-24.902-20.098-45-45-45zm0 0" fill="#ffb99c"></path><path d="M300 240v-90c24.902 0 45 20.098 45 45 0 24.898-20.098 45-45 45zm0 0" fill="#ff9468"></path><path d="M360 270v75c0 8.398-6.598 15-15 15h-45V240h30c16.5 0 30 13.5 30 30zm0 0" fill="#0095ff"></path><path d="M240 270v75c0 8.398-6.598 15-15 15h-90c-8.402 0-15-6.602-15-15l-30-42.285L120 270c0-16.5 13.5-30 30-30h60c16.5 0 30 13.5 30 30zm0 0" fill="#4bb9ec"></path><path d="M180 150c-24.902 0-45 20.098-45 45 0 24.898 20.098 45 45 45s45-20.102 45-45c0-24.902-20.098-45-45-45zm0 0" fill="#ffb99c"></path><path d="M180 240v-90c24.902 0 45 20.098 45 45 0 24.898-20.098 45-45 45zm0 0" fill="#ff9468"></path><path d="M240 270v75c0 8.398-6.598 15-15 15h-45V240h30c16.5 0 30 13.5 30 30zm0 0" fill="#0095ff"></path><path d="M120 270v75c0 8.398-6.598 15-15 15H15c-8.402 0-15-6.602-15-15v-75c0-16.5 13.5-30 30-30h60c16.5 0 30 13.5 30 30zm0 0" fill="#4bb9ec"></path><path d="M60 150c-24.902 0-45 20.098-45 45 0 24.898 20.098 45 45 45s45-20.102 45-45c0-24.902-20.098-45-45-45zm0 0" fill="#ffb99c"></path><path d="M60 240v-90c24.902 0 45 20.098 45 45 0 24.898-20.098 45-45 45zm0 0" fill="#ff9468"></path><path d="M120 270v75c0 8.398-6.598 15-15 15H60V240h30c16.5 0 30 13.5 30 30zm0 0" fill="#0095ff"></path><path d="M90 300c-24.902 0-45 20.098-45 45s20.098 45 45 45 45-20.098 45-45-20.098-45-45-45zM240 300c-24.902 0-45 20.098-45 45s20.098 45 45 45 45-20.098 45-45-20.098-45-45-45zM390 300c-24.902 0-45 20.098-45 45s20.098 45 45 45 45-20.098 45-45-20.098-45-45-45zm0 0" fill="#ffb99c"></path><path d="M90 390v-90c24.902 0 45 20.098 45 45s-20.098 45-45 45zM240 390v-90c24.902 0 45 20.098 45 45s-20.098 45-45 45zM390 390v-90c24.902 0 45 20.098 45 45s-20.098 45-45 45zm0 0" fill="#ff9468"></path><path d="M465 435v62c0 8.402-6.598 15-15 15H315l-30-30 30-47c0-24.602 20.398-45 45-45h60c24.602 0 45 20.398 45 45zm0 0" fill="#4bb9ec"></path><path d="M465 435v62c0 8.402-6.598 15-15 15h-60V390h30c24.602 0 45 20.398 45 45zm0 0" fill="#0095ff"></path><path d="M315 435v77H165l-30-30 30-47c0-24.602 20.398-45 45-45h60c24.602 0 45 20.398 45 45zm0 0" fill="#4bb9ec"></path><path d="M315 435v77h-75V390h30c24.602 0 45 20.398 45 45zm0 0" fill="#0095ff"></path><path d="M165 435v77H30c-8.402 0-15-6.598-15-15v-62c0-24.602 20.398-45 45-45h60c24.602 0 45 20.398 45 45zm0 0" fill="#4bb9ec"></path><path d="M165 435v77H90V390h30c24.602 0 45 20.398 45 45zm0 0" fill="#0095ff"></path></g></svg>