<svg viewBox="0 0 512 512" xmlns="http://www.w3.org/2000/svg"><g><path d="m277.129 260.606-43.302 104.54-1 .167v20.656c0 14.997-12.2 27.198-27.197 27.198h-41.837l-.24.656c-3.744 10.244-13.591 17.127-24.502 17.127s-20.758-6.883-24.502-17.127l-.24-.656H72.471c-11.386 0-21.153-7.036-25.2-16.985l-1.016.169c-17.576 8.212-29.759 26.038-29.759 46.719v53.704c0 8.409 6.817 15.226 15.226 15.226h214.716c8.443 0 15.274-6.869 15.226-15.312l.079-53.733c.005-3.32.661-6.607 1.932-9.674l63.02-152.144z" fill="#fe93d3"></path><path d="M59.382 496.774V443.07a51.272 51.272 0 0 1 9.074-29.198c-10.14-1.448-18.539-8.282-22.201-17.52-17.576 8.212-29.759 26.038-29.759 46.719v53.704c0 8.409 6.817 15.226 15.226 15.226h42.886c-8.409-.001-15.226-6.818-15.226-15.227z" fill="#fe73c5"></path><path d="M139.05 159.155c-52.344 0-94.777 42.433-94.777 94.777v132.036c0 15.573 12.625 28.198 28.198 28.198h41.138a27.017 27.017 0 0 1-1.638-9.296v-34.029c8.357 3.436 17.498 5.344 27.079 5.344s18.722-1.909 27.079-5.344v34.029a27.04 27.04 0 0 1-1.638 9.296h41.138c15.573 0 28.198-12.625 28.198-28.198V253.932c0-52.343-42.433-94.777-94.777-94.777z" fill="#a44f3e"></path><g fill="#883f2e"><path d="M56.321 278.581h9.901a20.601 20.601 0 0 1 12.447-18.898v-5.751c0-46.471 33.446-85.126 77.579-93.216a95.267 95.267 0 0 0-17.198-1.561c-52.344 0-94.777 42.433-94.777 94.777v27.661a25.474 25.474 0 0 1 12.048-3.012zM78.669 385.968v-40.504a72.715 72.715 0 0 1-6.65-12.219H56.321a25.47 25.47 0 0 1-12.048-3.012v55.735c0 15.573 12.625 28.198 28.198 28.198h34.396c-15.574.001-28.198-12.624-28.198-28.198z" fill="#883f2e"></path></g><path d="M139.05 376.187a71.065 71.065 0 0 1-27.079-5.344v34.029c0 14.955 12.124 27.079 27.079 27.079s27.079-12.124 27.079-27.079v-34.029a71.065 71.065 0 0 1-27.079 5.344z" fill="#ffb09e"></path><path d="M133.842 404.871v-28.896a70.982 70.982 0 0 1-21.871-5.134v34.029c0 14.955 12.124 27.079 27.079 27.079 3.893 0 7.59-.828 10.936-2.307-9.507-4.202-16.144-13.708-16.144-24.771z" fill="#f89580"></path><path d="M221.778 278.581h-11.273v26.151a71.019 71.019 0 0 1-5.953 28.513h17.226c14.132 0 25.588-11.456 25.588-25.588v-3.489c0-14.131-11.456-25.587-25.588-25.587z" fill="#ffb09e"></path><path d="M67.595 304.732V278.6l.001-.019H56.321c-14.132 0-25.588 11.456-25.588 25.588v3.489c0 14.132 11.456 25.588 25.588 25.588h17.227a71.027 71.027 0 0 1-5.953-28.514z" fill="#f89580"></path><path d="M66.221 278.6v26.131c0 40.222 32.606 72.828 72.828 72.828s72.828-32.606 72.828-72.828v-40.819c0-17.679-14.331-32.01-32.01-32.01H167.82c-5.838 0-11.635.972-17.154 2.876l-70.561 24.344A20.607 20.607 0 0 0 66.221 278.6z" fill="#ffcebf"></path><path d="M88.343 304.732v-48.451l-8.237 2.842a20.604 20.604 0 0 0-13.884 19.478v26.131c0 40.222 32.606 72.828 72.829 72.828 3.76 0 7.454-.286 11.061-.835-34.974-5.329-61.769-35.531-61.769-71.993z" fill="#ffb09e"></path><path d="M107.491 299.601a7.499 7.499 0 0 1-7.5-7.5v-14.263c0-4.143 3.357-7.5 7.5-7.5s7.5 3.357 7.5 7.5v14.263a7.5 7.5 0 0 1-7.5 7.5zM170.609 299.601a7.499 7.499 0 0 1-7.5-7.5v-14.263c0-4.143 3.357-7.5 7.5-7.5s7.5 3.357 7.5 7.5v14.263a7.5 7.5 0 0 1-7.5 7.5zM140.364 310.898a7.469 7.469 0 0 1-4.961-1.878l-8.178-7.22a7.5 7.5 0 0 1-.832-10.382l8.178-9.959a7.499 7.499 0 0 1 10.556-1.036 7.5 7.5 0 0 1 1.036 10.556l-3.585 4.366 2.753 2.431a7.5 7.5 0 0 1-4.967 13.122z" fill="#ec806b"></path><path d="M112.457 321.447a3.407 3.407 0 0 0-3.38 3.829c1.882 14.878 14.584 26.384 29.973 26.384s28.091-11.506 29.973-26.384a3.407 3.407 0 0 0-3.38-3.829z" fill="#fe99a0"></path><path d="M127.23 325.276a3.407 3.407 0 0 1 3.38-3.829h-18.153a3.407 3.407 0 0 0-3.38 3.829c1.882 14.879 14.584 26.384 29.973 26.384a30.18 30.18 0 0 0 9.077-1.395c-11.075-3.485-19.402-13.169-20.897-24.989z" fill="#fd8087"></path><path d="m327.466 94.799-5.017-2.225c-.057-.025-.113-.05-.171-.073-25.802-10.688-38.098-40.373-27.411-66.176l3.915-9.45a3.009 3.009 0 0 1 1.635-1.635 3.017 3.017 0 0 1 2.311 0l27.653 11.454a159.15 159.15 0 0 1 4.604-14.329L308.469 1.383a17.893 17.893 0 0 0-13.792-.001 17.905 17.905 0 0 0-9.752 9.753l-3.915 9.45c-13.84 33.413 2.06 71.853 35.439 85.737l15.924 7.063a135.865 135.865 0 0 1-4.907-18.586z" fill="#ffc344"></path><path d="M484.381 74.248 458.33 63.457a160.311 160.311 0 0 1-6.872 13.389l27.182 11.26a3.023 3.023 0 0 1 1.634 3.945l-3.913 9.451c-10.675 25.771-40.305 38.07-66.087 27.447l-4.609-2.056a135.81 135.81 0 0 1-15.868 9.346l14.462 6.453c.062.027.123.054.186.079a65.273 65.273 0 0 0 25.036 4.998c25.772-.001 50.277-15.273 60.738-40.526l3.913-9.45c3.803-9.181-.571-19.742-9.751-23.545z" fill="#ffd15b"></path><path d="M456.541 56.654 341.061 8.82c-2.743-1.136-5.896.219-6.942 2.998-15.825 42.042-12.795 86.025 5.075 119.943.087-.002.171-.018.258-.018 1.44 0 2.847.279 4.179.831l16.964 7.027a18.038 18.038 0 0 1 7.722 6.096c37.647-10.757 72.034-40.126 91.013-82.016 1.225-2.703-.046-5.891-2.789-7.027z" fill="#ffe177"></path><path d="M339.452 131.743c1.44 0 2.847.279 4.179.831l15.758 6.528c-15.846-35.694-17.517-79.994-1.527-122.476.094-.249.208-.482.331-.709L341.061 8.82c-2.743-1.136-5.896.219-6.942 2.998-15.825 42.042-12.795 86.025 5.075 119.943.087-.002.171-.018.258-.018z" fill="#ffd15b"></path><circle cx="379.075" cy="80.36" fill="#ffffff" r="24.195"></circle><path d="M375.908 71.1c2.507-6.051 7.187-10.539 12.76-12.946-.112-.048-.221-.101-.334-.148-12.346-5.114-26.499.749-31.613 13.094-5.114 12.346.749 26.499 13.094 31.613 6.294 2.607 13.057 2.356 18.853-.148-12.113-5.23-17.827-19.232-12.76-31.465z" fill="#f5f8f9"></path><path d="m360.978 138.677-16.964-7.027c-5.765-2.388-12.54.071-15.099 5.762a11.45 11.45 0 0 0 1.538 11.911 11.45 11.45 0 0 0-9.38 7.008 11.447 11.447 0 0 0 1.677 11.588c-4.036.429-7.717 2.995-9.38 7.009s-.874 8.431 1.677 11.588a11.45 11.45 0 0 0-9.509 7.334 11.014 11.014 0 0 0-.492 1.782l42.769 17.716a19.065 19.065 0 0 0 6.335-8.094l17.203-41.532c4.05-9.78-.594-20.993-10.375-25.045z" fill="#ffcebf"></path><path d="M337.514 286.471 262.72 255.49a6.042 6.042 0 0 1-3.27-7.894l23.12-55.816a6.042 6.042 0 0 1 7.894-3.27l74.794 30.981a6.042 6.042 0 0 1 3.27 7.894l-23.12 55.816a6.042 6.042 0 0 1-7.894 3.27z" fill="#596c76"></path><path d="M300.038 246.363a6.04 6.04 0 0 1-3.27-7.893l16.74-40.413-23.044-9.545a6.042 6.042 0 0 0-7.894 3.27l-23.12 55.817a6.04 6.04 0 0 0 3.27 7.893l74.794 30.981a6.042 6.042 0 0 0 7.894-3.27l6.38-15.403z" fill="#465a61"></path><path d="M328.293 249.806a7.468 7.468 0 0 1-2.867-.573l-27.943-11.575a7.5 7.5 0 0 1-4.059-9.799 7.498 7.498 0 0 1 9.799-4.059l27.943 11.575a7.5 7.5 0 0 1 4.059 9.799 7.502 7.502 0 0 1-6.932 4.632z" fill="#8d9ca8"></path><path d="m452.526 193.74-16.166-16.166a2.73 2.73 0 0 0-3.861 0l-29.066 29.066a2.73 2.73 0 0 0 0 3.861l16.166 16.166a2.73 2.73 0 0 0 3.861 0l29.066-29.066a2.729 2.729 0 0 0 0-3.861zM97.093 103.135 80.928 86.969a2.73 2.73 0 0 0-3.861 0l-29.066 29.066a2.73 2.73 0 0 0 0 3.861l16.166 16.166a2.73 2.73 0 0 0 3.861 0l29.066-29.066a2.73 2.73 0 0 0-.001-3.861z" fill="#a2e62e"></path><path d="m193.735 33.803-16.424 16.424a3.018 3.018 0 0 0 0 4.267l16.424 16.424a3.018 3.018 0 0 0 4.267 0l16.424-16.424a3.018 3.018 0 0 0 0-4.267l-16.424-16.424a3.018 3.018 0 0 0-4.267 0z" fill="#fe646f"></path><path d="m345.689 374.015-16.424 16.424a3.018 3.018 0 0 0 0 4.267l16.424 16.424a3.018 3.018 0 0 0 4.267 0l16.424-16.424a3.018 3.018 0 0 0 0-4.267l-16.424-16.424a3.018 3.018 0 0 0-4.267 0z" fill="#01c0fa"></path><path d="m247.078 102.491 7.675 15.552a2.916 2.916 0 0 0 2.196 1.595l17.162 2.494c2.392.348 3.347 3.287 1.616 4.974l-12.419 12.105a2.918 2.918 0 0 0-.839 2.581l2.932 17.093c.409 2.382-2.092 4.199-4.231 3.074l-15.351-8.07a2.914 2.914 0 0 0-2.714 0l-15.351 8.07c-2.139 1.125-4.64-.692-4.231-3.074l2.932-17.093a2.915 2.915 0 0 0-.839-2.581l-12.419-12.105c-1.731-1.687-.776-4.627 1.616-4.974l17.162-2.494a2.918 2.918 0 0 0 2.196-1.595l7.675-15.552c1.072-2.167 4.162-2.167 5.232 0z" fill="#ffe177"></path><path d="m239.913 154.02 2.932-17.093a2.915 2.915 0 0 0-.839-2.581l-12.419-12.105a2.854 2.854 0 0 1-.878-2.127l-13.894 2.019c-2.392.348-3.347 3.287-1.616 4.974l12.419 12.105a2.918 2.918 0 0 1 .839 2.581l-2.932 17.093c-.409 2.382 2.092 4.199 4.231 3.074l12.288-6.46a2.885 2.885 0 0 1-.131-1.48z" fill="#ffd15b"></path><path d="M392.048 333.499a7.499 7.499 0 0 1-7.5-7.5v-25.702c0-4.143 3.357-7.5 7.5-7.5h14.419v-14.419c0-4.143 3.357-7.5 7.5-7.5h14.419v-14.419c0-4.143 3.357-7.5 7.5-7.5s7.5 3.357 7.5 7.5v21.919c0 4.143-3.357 7.5-7.5 7.5h-14.419v14.419c0 4.143-3.357 7.5-7.5 7.5h-14.419v18.202a7.5 7.5 0 0 1-7.5 7.5z" fill="#fe646f"></path><path d="M155.238 89.689h-25.703a7.499 7.499 0 0 1-7.5-7.5V67.771h-14.418c-4.143 0-7.5-3.357-7.5-7.5s3.357-7.5 7.5-7.5h21.918c4.143 0 7.5 3.357 7.5 7.5V74.69h18.203c4.143 0 7.5 3.357 7.5 7.5s-3.357 7.499-7.5 7.499z" fill="#01c0fa"></path><g fill="#fea613"><circle cx="172.184" cy="108.66" fill="#fea613" r="7.5"></circle><circle cx="247.925" cy="40.288" fill="#fea613" r="7.5"></circle><circle cx="479.364" cy="154.948" fill="#fea613" r="7.5"></circle></g></g></svg>