<svg viewBox="0 0 512 512" xmlns="http://www.w3.org/2000/svg"><g><g clip-rule="evenodd" fill-rule="evenodd"><path d="M239.232 381.527 131.4 329.383 71.83 432.562c-1.005 1.741-.903 3.785.27 5.418s3.078 2.38 5.049 1.983l62.886-12.693a4.979 4.979 0 0 1 5.728 3.307l20.451 60.808c.641 1.906 2.241 3.181 4.242 3.381 2 .2 3.822-.734 4.827-2.475zm35.65 3.662 107.832-52.144 59.571 103.179c1.005 1.741.903 3.785-.27 5.418-1.173 1.632-3.078 2.381-5.049 1.983l-62.886-12.693a4.979 4.979 0 0 0-5.728 3.307L347.9 495.047c-.641 1.905-2.241 3.181-4.242 3.381-2 .2-3.822-.734-4.827-2.475z" fill="#656565"></path><circle cx="256" cy="206.189" fill="#ffd54f" r="192.643"></circle><circle cx="256" cy="206.189" fill="#f2f2f2" r="154.671"></circle><path d="M357.066 224.111c-21.302 0-31.99 25.807-16.929 40.868a7.106 7.106 0 0 1 0 10.049l-15.297 15.298a7.107 7.107 0 0 1-10.049 0c-15.062-15.062-40.868-4.374-40.868 16.928a7.105 7.105 0 0 1-7.106 7.105h-21.633a7.104 7.104 0 0 1-7.105-7.105c0-21.328-25.788-32.009-40.869-16.928a7.107 7.107 0 0 1-10.049 0l-15.297-15.298a7.106 7.106 0 0 1 0-10.049c15.062-15.062 4.373-40.868-16.928-40.868a7.105 7.105 0 0 1-7.105-7.106v-21.633a7.105 7.105 0 0 1 7.105-7.106c21.301 0 31.99-25.806 16.928-40.868a7.106 7.106 0 0 1 0-10.049l15.297-15.298a7.106 7.106 0 0 1 10.049 0c15.062 15.062 40.869 4.374 40.869-16.928a7.104 7.104 0 0 1 7.105-7.105h21.633a7.105 7.105 0 0 1 7.106 7.105c0 21.302 25.807 31.99 40.868 16.928a7.106 7.106 0 0 1 10.049 0l15.297 15.298a7.106 7.106 0 0 1 0 10.049c-15.062 15.062-4.374 40.868 16.929 40.868a7.105 7.105 0 0 1 7.105 7.106v21.633a7.105 7.105 0 0 1-7.105 7.106zM256 160.876c-25.026 0-45.313 20.287-45.313 45.313 0 25.025 20.287 45.313 45.313 45.313 25.025 0 45.313-20.288 45.313-45.313 0-25.026-20.288-45.313-45.313-45.313z" fill="#ffd54f"></path></g></g></svg>