<svg id="Capa_1" enable-background="new 0 0 512 512" height="512" viewBox="0 0 512 512" width="512" xmlns="http://www.w3.org/2000/svg"><g><g fill="#435f73"><path d="m93.856 333.326-31.529-5.559 16.666-94.519 16.475-7.397 15.054 12.957z"/><path d="m448.786 327.772-31.53 5.559-16.666-94.518 15.713-13.073 15.816 7.513z"/><path d="m271.986 303.924h-32.016v-128.012l16.023-10.302 15.993 10.302z"/></g><path d="m166.457 248.67-120.497-21.246-16.609-17.097 19.164-103.946 19.672-5.017 127.599 22.499-20.975 118.957c-.691 3.923-4.431 6.542-8.354 5.85z" fill="#f25e6c"/><path d="m68.188 101.364-22.873-4.033c-3.922-.692-7.663 1.927-8.354 5.85l-19.723 111.855c-.692 3.922 1.927 7.663 5.85 8.354l22.873 4.033z" fill="#e8465e"/><path d="m351.98 175.912h-161.069l-20.604-10.302v-107.399l20.604-10.302h153.858c3.983 0 7.212 3.229 7.212 7.212v120.791z" fill="#edf5ff"/><path d="m160.005 55.12v113.581c0 3.983 3.229 7.212 7.212 7.212h23.695v-128.004h-23.695c-3.984 0-7.212 3.228-7.212 7.211z" fill="#d0e4e7"/><path d="m488.054 223.39-120.497 21.247-19.672-5.017-22.228-105.455 19.672-15.588 120.497-21.247c3.922-.692 7.663 1.927 8.354 5.85l19.723 111.855c.693 3.924-1.926 7.664-5.849 8.355z" fill="#f25e6c"/><path d="m345.329 118.578-22.873 4.033c-3.922.692-6.541 4.432-5.85 8.354l20.975 118.957 29.975-5.285z" fill="#e8465e"/><path d="m83.046 140.381c-17.987 12.594-22.374 37.473-9.78 55.461 7.738 11.051 20.112 16.967 32.676 16.967 7.887 0 15.849-2.332 22.785-7.188 17.987-12.594 22.374-37.473 9.78-55.461-12.595-17.988-37.477-22.374-55.461-9.779zm8.863 12.658c4.245-2.972 9.116-4.399 13.943-4.399 5.173 0 10.295 1.64 14.535 4.774l-37.867 26.514c-2.888-9.771.593-20.73 9.389-26.889zm27.954 39.923c-8.794 6.159-20.284 5.682-28.478-.375l37.867-26.514c2.888 9.772-.593 20.731-9.389 26.889z" fill="#edf5ff"/><path d="m227.834 83.752c-15.526 15.527-15.526 40.79 0 56.316 7.764 7.763 17.961 11.645 28.159 11.645 10.197 0 20.394-3.881 28.158-11.645 15.526-15.527 15.526-40.79 0-56.316-15.529-15.528-40.79-15.526-56.317 0zm10.928 10.927c4.751-4.751 10.989-7.126 17.231-7.126 3.732 0 7.465.851 10.879 2.55l-32.686 32.686c-4.541-9.121-3.016-20.518 4.576-28.11zm34.461 34.463c-7.59 7.592-18.988 9.118-28.11 4.576l32.686-32.686c4.541 9.12 3.016 20.517-4.576 28.11z" fill="#dd2a4d"/><path d="m428.096 140.381c-8.713-6.101-19.279-8.443-29.756-6.597-10.475 1.847-19.603 7.663-25.704 16.376s-8.444 19.281-6.597 29.756c1.846 10.476 7.662 19.604 16.376 25.705 6.937 4.857 14.897 7.188 22.785 7.188 12.563 0 24.939-5.918 32.676-16.967 12.594-17.988 8.206-42.867-9.78-55.461zm-42.802 18.643c3.734-5.332 9.319-8.891 15.729-10.02 1.43-.253 2.861-.377 4.284-.377 2.342 0 4.655.338 6.882 1.001l-26.526 37.884c-2.225-2.998-3.739-6.495-4.406-10.279-1.13-6.411.304-12.877 4.037-18.209zm39.923 27.954c-6.159 8.794-17.118 12.276-26.889 9.387l26.513-37.866c6.058 8.195 6.535 19.684.376 28.479z" fill="#edf5ff"/><path d="m303.994 309.233c0 21.104-13.619 39.027-32.548 45.46-4.849 1.648-53.153-14.285-53.153-45.46 0-29.713 48.303-47.108 53.153-45.46 18.929 6.433 32.548 24.356 32.548 45.46z" fill="#ffcebf"/><path d="m238.898 309.233c0-21.104 13.619-39.027 32.548-45.459-4.849-1.648-10.047-2.542-15.453-2.542-26.51 0-48.001 21.491-48.001 48.002 0 26.51 21.491 48.001 48.001 48.001 5.407 0 10.604-.894 15.453-2.542-18.929-6.433-32.548-24.356-32.548-45.46z" fill="#ffb09e"/><path d="m120.022 330.551c0 16.572-10.075 30.79-24.435 36.863-4.786 2.025-45.278-10.066-45.278-36.863 0-26.627 40.404-38.906 45.159-36.914 14.423 6.045 24.554 20.297 24.554 36.914z" fill="#bb5d4c"/><path d="m70.914 330.551c0-16.617 10.132-30.868 24.554-36.913-4.755-1.993-9.975-3.094-15.453-3.094-22.096 0-40.007 17.912-40.007 40.008 0 22.095 17.912 40.007 40.007 40.007 5.478 0 10.699-1.101 15.453-3.094-14.423-6.046-24.554-20.297-24.554-36.914z" fill="#a44f3e"/><path d="m472.017 330.551c0 16.572-10.075 30.79-24.435 36.863-4.786 2.025-45.278-10.18-45.278-36.863 0-26.798 40.404-38.906 45.159-36.914 14.423 6.045 24.554 20.297 24.554 36.914z" fill="#ffcebf"/><path d="m422.909 330.551c0-16.617 10.131-30.868 24.554-36.913-4.754-1.993-9.975-3.094-15.453-3.094-22.095 0-40.007 17.912-40.007 40.008 0 22.095 17.912 40.007 40.007 40.007 5.478 0 10.699-1.101 15.453-3.094-14.422-6.046-24.554-20.297-24.554-36.914z" fill="#ffb09e"/><path d="m152.793 464.092h-121.886l-20.604-10.302v-39.342c0-25.604 20.756-46.153 46.36-46.153l20.604-.207h36.378c25.604 0 46.36 20.756 46.36 46.36l10.302 22.872-10.302 19.561c0 3.982-3.229 7.211-7.212 7.211z" fill="#fed44c"/><path d="m77.266 368.087h-30.906c-25.604 0-46.36 20.756-46.36 46.36v42.433c0 3.983 3.229 7.212 7.212 7.212h23.695v-49.644c0-25.605 20.756-46.361 46.359-46.361z" fill="#f2b84c"/><path d="m344.754 464.09h-153.858l-20.604-10.302v-52.129c0-25.604 20.756-46.071 46.36-46.071l20.604-.289h68.349c25.604 0 46.36 20.756 46.36 46.36v12.788l10.302 22.872-10.302 19.559c.001 3.983-3.228 7.212-7.211 7.212z" fill="#27b2eb"/><path d="m237.256 355.299h-30.906c-25.604 0-46.36 20.756-46.36 46.36v55.22c0 3.983 3.229 7.212 7.212 7.212h23.695v-62.431c-.001-25.605 20.755-46.361 46.359-46.361z" fill="#008adf"/><path d="m504.788 464.092h-121.886l-20.604-10.302v-39.342c0-25.604 20.756-45.992 46.36-45.992l20.604-.368h36.378c25.604 0 46.36 20.756 46.36 46.36v42.433c0 3.982-3.229 7.211-7.212 7.211z" fill="#3da894"/><path d="m429.262 368.087h-30.907c-25.604 0-46.36 20.756-46.36 46.36v42.433c0 3.983 3.229 7.212 7.212 7.212h23.695v-49.644c0-25.605 20.756-46.361 46.36-46.361z" fill="#38938b"/></g></svg>