<svg viewBox="0 0 512 512" xmlns="http://www.w3.org/2000/svg"><g><g fill="#a8d3d8"><path d="M125.476 89.422V42.523a5.15 5.15 0 0 0-5.151-5.151h-18.543a5.15 5.15 0 0 0-5.151 5.151v46.899zM96.631 361.076h28.845v32.877H96.631z" fill="#a8d3d8"></path></g><g fill="#a8d3d8"><path d="M195 89.422c7.054 0 12.793 5.739 12.793 12.793s-5.739 12.793-12.793 12.793h-1.725v30.689H195c7.054 0 12.793 5.739 12.793 12.793s-5.739 12.793-12.793 12.793h-1.725v5.073l.457.296c4.642 3.002 7.876 7.614 9.105 12.985l.178.776h19.091V42.523a5.15 5.15 0 0 0-5.151-5.151h-18.543a5.15 5.15 0 0 0-5.151 5.151v46.899zM203.016 260.084l-.178.776c-1.229 5.371-4.464 9.983-9.105 12.985l-.457.296v5.073H195c7.054 0 12.793 5.739 12.793 12.793S202.054 304.8 195 304.8h-1.725v30.689H195c7.054 0 12.793 5.739 12.793 12.793s-5.739 12.793-12.793 12.793h-1.738v32.877h19.842c3.126 0 6.146.46 9.004 1.302v-135.17z" fill="#a8d3d8"></path></g><g fill="#8ebac5"><path d="M195 171.283h-1.725v5.073l.457.296c4.642 3.002 7.876 7.614 9.105 12.985l.178.776h4.772v-31.815c-.059 7.004-5.77 12.685-12.787 12.685zM195 304.801h-1.725v30.689H195c7.017 0 12.728 5.681 12.787 12.685v-56.059c-.059 7.004-5.77 12.685-12.787 12.685zM203.016 260.084l-.178.776c-1.229 5.371-4.464 9.983-9.105 12.985l-.457.296v5.073H195c7.017 0 12.728 5.681 12.787 12.685v-31.815zM195 89.422c7.017 0 12.728 5.681 12.787 12.685V42.523a5.15 5.15 0 0 1 5.151-5.151h-14.526a5.15 5.15 0 0 0-5.151 5.151v46.899zM195 361.076h-1.738v32.877h14.526v-45.562c-.06 7.004-5.771 12.685-12.788 12.685zM195 115.008h-1.725v30.689H195c7.017 0 12.728 5.681 12.787 12.685v-56.059c-.059 7.004-5.77 12.685-12.787 12.685z" fill="#8ebac5"></path></g><g fill="#8ebac5"><path d="M111.156 89.422V42.523a5.15 5.15 0 0 1 5.151-5.151h-14.525a5.15 5.15 0 0 0-5.151 5.151v46.899zM96.631 361.076h14.526v32.877H96.631z" fill="#8ebac5"></path></g><g fill="#a8d3d8"><path d="M318.738 205.574V42.523a5.15 5.15 0 0 0-5.151-5.151h-18.543a5.15 5.15 0 0 0-5.151 5.151v163.052h28.845zM289.893 244.924v224.553a5.15 5.15 0 0 0 5.151 5.151h18.543a5.15 5.15 0 0 0 5.151-5.151V244.924z" fill="#a8d3d8"></path></g><g fill="#8ebac5"><path d="M304.418 205.574V42.523a5.15 5.15 0 0 1 5.151-5.151h-14.525a5.15 5.15 0 0 0-5.151 5.151v163.052h14.525zM304.418 469.477V244.924h-14.525v224.553a5.151 5.151 0 0 0 5.151 5.151h14.525a5.151 5.151 0 0 1-5.151-5.151z" fill="#8ebac5"></path></g><g fill="#a8d3d8"><path d="M386.524 244.924v224.553a5.15 5.15 0 0 0 5.151 5.151h18.543a5.15 5.15 0 0 0 5.151-5.151V244.924zM415.369 205.574V42.523a5.15 5.15 0 0 0-5.151-5.151h-18.543a5.15 5.15 0 0 0-5.151 5.151v163.052h28.845z" fill="#a8d3d8"></path></g><g fill="#8ebac5"><path d="M401.05 205.574V42.523a5.15 5.15 0 0 1 5.151-5.151h-14.526a5.15 5.15 0 0 0-5.151 5.151v163.052h14.526zM401.05 469.477V244.924h-14.526v224.553a5.151 5.151 0 0 0 5.151 5.151H406.2a5.15 5.15 0 0 1-5.15-5.151z" fill="#8ebac5"></path></g><path d="M506.849 37.372h-18.543a5.15 5.15 0 0 0-5.151 5.151v150.566c2.8 1.782 4.666 4.906 4.666 8.464v47.393c0 3.558-1.867 6.681-4.666 8.464v212.068a5.15 5.15 0 0 0 5.151 5.151h18.543a5.15 5.15 0 0 0 5.151-5.151V42.523a5.15 5.15 0 0 0-5.151-5.151z" fill="#a8d3d8"></path><path d="M497.68 469.477V42.523a5.15 5.15 0 0 1 5.151-5.151h-14.525a5.15 5.15 0 0 0-5.151 5.151v150.566c2.8 1.782 4.666 4.906 4.666 8.464v47.393c0 3.558-1.867 6.681-4.666 8.464v212.068a5.151 5.151 0 0 0 5.151 5.151h14.525a5.153 5.153 0 0 1-5.151-5.152z" fill="#8ebac5"></path><path d="M26.931 425.85c0-3.821.677-7.486 1.914-10.884V42.523a5.15 5.15 0 0 0-5.151-5.151H5.151A5.15 5.15 0 0 0 0 42.523v426.955a5.15 5.15 0 0 0 5.151 5.151h21.78z" fill="#a8d3d8"></path><path d="M14.526 469.477V42.523a5.15 5.15 0 0 1 5.151-5.151H5.151A5.15 5.15 0 0 0 0 42.523v426.955a5.15 5.15 0 0 0 5.151 5.151h14.526a5.152 5.152 0 0 1-5.151-5.152z" fill="#8ebac5"></path><path d="M236 204.575h224.027v41.349H236z" fill="#ec806b"></path><path d="M236 226.125h224.027v19.799H236z" fill="#c5715a"></path><path d="M477.786 259.98h-7.724c-6.094 0-11.034-4.94-11.034-11.034v-47.393c0-6.094 4.94-11.034 11.034-11.034h7.724c6.094 0 11.034 4.94 11.034 11.034v47.393c.001 6.094-4.939 11.034-11.034 11.034z" fill="#bb5d4c"></path><path d="M477.786 233.776h-7.724c-6.094 0-11.035-4.94-11.035-11.034v26.204c0 6.094 4.94 11.034 11.035 11.034h7.724c6.094 0 11.034-4.94 11.034-11.034v-26.204c.001 6.094-4.939 11.034-11.034 11.034z" fill="#a44f3e"></path><path d="M225.965 189.414H202.77c.383 1.587.608 3.235.608 4.938v61.793c0 1.703-.225 3.351-.608 4.938h23.195c6.094 0 11.035-4.94 11.035-11.035v-49.6c0-6.093-4.94-11.034-11.035-11.034z" fill="#bb5d4c"></path><path d="M225.965 234.953h-22.586v21.193c0 1.703-.225 3.351-.608 4.938h23.195c6.094 0 11.035-4.94 11.035-11.035v-26.131c-.001 6.094-4.941 11.035-11.036 11.035z" fill="#a44f3e"></path><g fill="#ec806b"><path d="M77.656 304.801h116.619v30.689H77.656zM77.656 115.008h116.619v30.689H77.656z" fill="#ec806b"></path></g><g fill="#c5715a"><path d="M77.656 115.008h35.026v30.689H77.656zM77.656 304.801h35.026v30.689H77.656z" fill="#c5715a"></path></g><path d="M195 362.077H76.931c-7.618 0-13.793-6.175-13.793-13.793 0-7.618 6.175-13.793 13.793-13.793H195c7.618 0 13.793 6.175 13.793 13.793 0 7.617-6.175 13.793-13.793 13.793z" fill="#bb5d4c"></path><path d="M98.069 348.283c0-7.618 6.175-13.793 13.793-13.793H76.931c-7.618 0-13.793 6.175-13.793 13.793s6.175 13.793 13.793 13.793h34.931c-7.618.001-13.793-6.175-13.793-13.793z" fill="#a44f3e"></path><path d="M194.275 175.813v-4.529H77.656v4.529c-6.078 3.931-10.104 10.763-10.104 18.54v61.793c0 7.777 4.026 14.609 10.104 18.54v4.53h116.619v-4.53c6.078-3.931 10.104-10.763 10.104-18.54v-61.793c0-7.777-4.026-14.61-10.104-18.54z" fill="#ec806b"></path><path d="M108 256.146v-61.793c0-6.913 3.181-13.079 8.157-17.125 1.202-.977 1.947-2.405 1.947-3.954v-1.99H77.656v4.529c-6.078 3.931-10.104 10.763-10.104 18.54v61.793c0 7.777 4.026 14.609 10.104 18.54v4.53h40.448v-1.991c0-1.549-.746-2.977-1.947-3.954-4.976-4.046-8.157-10.213-8.157-17.125z" fill="#c5715a"></path><path d="M195 305.801H76.931c-7.618 0-13.793-6.175-13.793-13.793 0-7.618 6.175-13.793 13.793-13.793H195c7.618 0 13.793 6.175 13.793 13.793 0 7.617-6.175 13.793-13.793 13.793z" fill="#bb5d4c"></path><path d="M98.069 292.008c0-7.618 6.175-13.793 13.793-13.793H76.931c-7.618 0-13.793 6.176-13.793 13.793s6.175 13.793 13.793 13.793h34.931c-7.618 0-13.793-6.176-13.793-13.793z" fill="#a44f3e"></path><path d="M195 172.283H76.931c-7.618 0-13.793-6.175-13.793-13.793 0-7.618 6.175-13.793 13.793-13.793H195c7.618 0 13.793 6.175 13.793 13.793 0 7.618-6.175 13.793-13.793 13.793z" fill="#bb5d4c"></path><path d="M98.069 158.49c0-7.618 6.175-13.793 13.793-13.793H76.931c-7.618 0-13.793 6.175-13.793 13.793 0 7.618 6.175 13.793 13.793 13.793h34.931c-7.618 0-13.793-6.175-13.793-13.793z" fill="#a44f3e"></path><path d="M25.931 437.328v37.3H236c5.523 0 10-4.477 10-10v-27.3z" fill="#bb5d4c"></path><path d="M25.931 437.328h45.01v37.3h-45.01z" fill="#a44f3e"></path><path d="M246 438.328H25.931V425.85c0-18.168 14.728-32.897 32.897-32.897h154.275c18.168 0 32.897 14.728 32.897 32.897z" fill="#ec806b"></path><path d="M103.838 392.953h-45.01c-18.168 0-32.897 14.729-32.897 32.897v12.478h45.01V425.85c0-18.168 14.728-32.897 32.897-32.897z" fill="#c5715a"></path><path d="M195 116.008H76.931c-7.618 0-13.793-6.175-13.793-13.793 0-7.618 6.175-13.793 13.793-13.793H195c7.618 0 13.793 6.175 13.793 13.793 0 7.617-6.175 13.793-13.793 13.793z" fill="#bb5d4c"></path><path d="M98.069 102.214c0-7.618 6.175-13.793 13.793-13.793H76.931c-7.618 0-13.793 6.175-13.793 13.793 0 7.618 6.175 13.793 13.793 13.793h34.931c-7.618.001-13.793-6.175-13.793-13.793z" fill="#a44f3e"></path></g></svg>