<svg viewBox="0 0 497 497" xmlns="http://www.w3.org/2000/svg"><g><path d="m354.036 423 140.506 72.042a7.473 7.473 0 0 0 2.459-5.542V7.5c0-2.198-.952-4.17-2.459-5.542L354.036 74 213.53 2.197a7.477 7.477 0 0 0-2.197 5.303v482c0 2.071.839 3.946 2.197 5.303z" fill="#7b7c9b"></path><path d="M392.5 104 494.541 1.959A7.461 7.461 0 0 0 489.5 0H218.833a7.473 7.473 0 0 0-5.303 2.197L315.333 104z" fill="#9b9bb0"></path><path d="M489.5 497a7.465 7.465 0 0 0 5.041-1.958L392.5 393h-77.166L213.53 494.803a7.477 7.477 0 0 0 5.303 2.197z" fill="#616281"></path><path d="M437 467 332 248.5 437 30h30v437z" fill="#78d0ff"></path><path d="M241.333 467V30H437v180l-30 61.255 30 61.256V467h-30.001l-18.916-15-18.917 15h-30l-18.916-15-18.917 15z" fill="#bce8ff"></path><path d="M407 180h-30l30 152.511c0 8.28 6.71 14.5 15 14.5 8.28 0 15-6.22 15-14.5V210c0-16.5-13.5-30-30-30z" fill="#be437c"></path><path d="M301.333 180h30l-30 152.011c0 8.28-6.72 15-15 15s-15-6.72-15-15V210c0-16.5 13.5-30 30-30z" fill="#fa71a3"></path><path d="M377 180h-45.667c-16.5 0-30 13.5-30 30v257h37.833V332.011h30V467h37.833L407 210c0-16.5-13.5-30-30-30z" fill="#fa4087"></path><path d="M354.496 60v90c24.853 0 45-20.147 45-45s-20.148-45-45-45z" fill="#be437c"></path><path d="M369.496 105c0-24.853-6.716-45-15-45-24.853 0-45 20.147-45 45s20.147 45 45 45c8.284 0 15-20.147 15-45z" fill="#fa4087"></path><path d="M135.667 180h-30l30 152.511c0 8.28 6.71 14.5 15 14.5 8.28 0 15-6.22 15-14.5V210c0-16.5-13.5-30-30-30z" fill="#be437c"></path><path d="M30 180h30L30 332.011c0 8.28-6.72 15-15 15s-15-6.72-15-15V210c0-16.5 13.5-30 30-30z" fill="#fa71a3"></path><path d="M135.667 210c0-16.5-13.5-30-30-30H60c-16.5 0-30 13.5-30 30v268.083C30 488.531 38.469 497 48.917 497c10.447 0 18.917-8.469 18.917-18.916V332.011h30v146.073c0 10.447 8.469 18.916 18.917 18.916 10.447 0 18.916-8.469 18.916-18.916z" fill="#fa4087"></path><path d="M83.162 60v90c24.853 0 45-20.147 45-45s-20.147-45-45-45z" fill="#be437c"></path><path d="M98.162 105c0-24.853-6.716-45-15-45-24.853 0-45 20.147-45 45s20.147 45 45 45c8.285 0 15-20.147 15-45z" fill="#fa4087"></path></g></svg>