<svg viewBox="0 0 512 512" xmlns="http://www.w3.org/2000/svg"><g><path d="m480 412.511-120-79.995V129.489H120v-120h392v330h-32z" fill="#ffdf40"></path><path d="M315 129.489h45v203.027l120 79.995v-73.022h32v-330H315z" fill="#ffbe40"></path><path d="M30 502.511v-73.022H0v-330h390v330H139.541z" fill="#66ccff"></path><path d="M195 99.489h195v330H195z" fill="#59abff"></path><g fill="#f3f5f9"><path d="M210 309.489v-60h-60v30h30v30h-30v30h90v-30zM180 189.489h30v30h-30z" fill="#f3f5f9"></path></g><g fill="#e1e6f0"><path d="M195 189.489h15v30h-15zM210 249.489h-15v90h45v-30h-30z" fill="#e1e6f0"></path></g></g></svg>