<svg viewBox="0 0 499.067 499.067" xmlns="http://www.w3.org/2000/svg"><g><g fill="#f8d448"><path d="M108.179 70.004 83.732 6.399c-1.691-4.398-6.723-6.742-11.181-5.216-19.332 6.619-33.226 19.229-41.682 37.832-1.95 4.29-.103 9.525 4.111 11.633l60.944 30.479c7.247 3.624 15.162-3.56 12.255-11.123zM390.888 70.004 415.335 6.4c1.691-4.398 6.723-6.742 11.181-5.216 19.333 6.619 33.227 19.229 41.683 37.832 1.95 4.29.104 9.525-4.111 11.633l-60.944 30.479c-7.248 3.623-15.163-3.561-12.256-11.124zM108.179 429.063l-24.447 63.604c-1.691 4.398-6.723 6.742-11.181 5.216-19.333-6.619-33.227-19.229-41.683-37.832-1.95-4.29-.103-9.525 4.111-11.633l60.944-30.479c7.248-3.623 15.163 3.561 12.256 11.124zM390.888 429.063l24.447 63.604c1.691 4.398 6.723 6.742 11.181 5.216 19.333-6.619 33.227-19.229 41.683-37.832 1.95-4.29.104-9.525-4.111-11.633l-60.944-30.479c-7.248-3.623-15.163 3.561-12.256 11.124z" fill="#f8d448"></path></g><path d="M3.914 264.951c-5.401-10.518-5.072-21.355.118-32.462 1.428-3.057 5.155-4.269 8.167-2.748l28.184 14.234c4.535 2.29 4.397 8.813-.23 10.91l-28.335 12.841c-2.951 1.337-6.424.106-7.904-2.775zM495.152 264.951c5.401-10.518 5.072-21.355-.117-32.462-1.428-3.057-5.155-4.269-8.167-2.748l-28.184 14.234c-4.535 2.29-4.397 8.813.23 10.91l28.335 12.841c2.951 1.337 6.424.106 7.903-2.775z" fill="#fbe88c"></path><path d="M178.159 52.284a7.503 7.503 0 0 1-7.212-5.457l-8.066-28.463a7.501 7.501 0 0 1 14.432-4.09l8.066 28.463a7.501 7.501 0 0 1-7.22 9.547zM66.105 132.162a7.469 7.469 0 0 1-3.057-.655l-22.37-10a7.5 7.5 0 0 1 6.122-13.694l22.37 10a7.5 7.5 0 0 1-3.065 14.349zM42.285 347.997a7.5 7.5 0 0 1-4.119-13.773l20.492-13.435c3.463-2.272 8.113-1.305 10.384 2.16s1.304 8.113-2.16 10.384L46.39 346.768a7.456 7.456 0 0 1-4.105 1.229zM178.156 479.204a7.462 7.462 0 0 1-3.567-.908 7.499 7.499 0 0 1-3.02-10.167l11.675-21.543a7.499 7.499 0 0 1 10.167-3.02 7.499 7.499 0 0 1 3.02 10.167l-11.675 21.543a7.496 7.496 0 0 1-6.6 3.928zM320.907 52.284a7.5 7.5 0 0 1-7.22-9.547l8.066-28.463a7.5 7.5 0 0 1 9.261-5.171 7.5 7.5 0 0 1 5.171 9.261l-8.066 28.463a7.502 7.502 0 0 1-7.212 5.457zM432.961 132.162a7.5 7.5 0 0 1-3.065-14.349l22.37-10a7.5 7.5 0 0 1 6.121 13.694l-22.37 10a7.454 7.454 0 0 1-3.056.655zM456.781 347.997a7.458 7.458 0 0 1-4.105-1.229l-20.492-13.435a7.5 7.5 0 1 1 8.225-12.544l20.492 13.435a7.5 7.5 0 0 1-4.12 13.773zM320.91 479.204a7.498 7.498 0 0 1-6.601-3.928l-11.675-21.543a7.499 7.499 0 0 1 3.021-10.167 7.497 7.497 0 0 1 10.167 3.021l11.675 21.543a7.499 7.499 0 0 1-6.587 11.074z" fill="#fbe372"></path><path d="m262.411 59.489 45.241 91.669a12.92 12.92 0 0 0 9.73 7.069l101.163 14.7c10.599 1.54 14.832 14.566 7.162 22.042l-73.202 71.354a12.921 12.921 0 0 0-3.716 11.438l17.281 100.754c1.811 10.556-9.27 18.607-18.75 13.623l-90.482-47.569a12.924 12.924 0 0 0-12.027 0l-90.482 47.569c-9.48 4.984-20.56-3.066-18.75-13.623l17.281-100.754a12.924 12.924 0 0 0-3.716-11.438l-73.202-71.354c-7.67-7.476-3.437-20.502 7.162-22.042l101.162-14.7a12.923 12.923 0 0 0 9.73-7.069l45.241-91.669c4.738-9.605 18.434-9.605 23.174 0z" fill="#fbe88c"></path><path d="m366.069 378.515-2.638-15.382-102.511-53.894a15.19 15.19 0 0 0-14.139 0l-55.094 28.965c-5.396 2.837-11.702-1.745-10.672-7.753l12.912-75.285a12.922 12.922 0 0 0-3.717-11.438L154.48 208.9c-6.698-6.529-3.002-17.904 6.254-19.249l58.323-8.475a12.923 12.923 0 0 0 9.73-7.069l45.095-91.372-11.473-23.246c-4.74-9.605-18.436-9.605-23.176 0l-45.241 91.669a12.92 12.92 0 0 1-9.73 7.069l-101.163 14.7c-10.599 1.54-14.831 14.565-7.162 22.042l73.202 71.355a12.92 12.92 0 0 1 3.717 11.438l-17.28 100.753c-1.811 10.557 9.27 18.607 18.751 13.623l90.482-47.569a12.924 12.924 0 0 1 12.027 0l90.483 47.57c9.48 4.982 20.56-3.068 18.75-13.624z" fill="#fbe372"></path></g></svg>