<svg viewBox="0 0 64 64" xmlns="http://www.w3.org/2000/svg"><g><path d="M26 42A18 18 0 0 0 8 60v2h48v-2a18 18 0 0 0-18-18z" fill="#424344"></path><path d="M38 42h-7a18 18 0 0 0-18 18v2h43v-2a18 18 0 0 0-18-18z" fill="#5a5b5d"></path><g fill="#deb2ae"><path d="M26 41.818V42a6 6 0 0 0 6 6 6 6 0 0 0 6-6v-.182M18 23h-1a4 4 0 0 0-4 4 4 4 0 0 0 4 4h1.289M46 23h1a4 4 0 0 1 4 4 4 4 0 0 1-4 4h-1.289" fill="#deb2ae"></path><path d="M46 19v9a15.709 15.709 0 0 1-6.47 12.7l-2.1 1.531A9.225 9.225 0 0 1 32 44a9.229 9.229 0 0 1-5.425-1.764l-2.1-1.531A15.709 15.709 0 0 1 18 28v-9" fill="#deb2ae"></path></g><path d="M18 28a15.709 15.709 0 0 0 6.47 12.7l2.105 1.531A9.224 9.224 0 0 0 32 44a9.223 9.223 0 0 0 5.426-1.764l2.1-1.531A15.709 15.709 0 0 0 46 28v-8H18z" fill="#fbe2d9"></path><path d="M46 13H18a2 2 0 0 0-2 2v2a2 2 0 0 0 2 2h28a2 2 0 0 0 2-2v-2a2 2 0 0 0-2-2zM18 28a15.578 15.578 0 0 0 .165 2.165l1.885 1.885A6.656 6.656 0 0 0 24.757 34a7.829 7.829 0 0 0 5.536-2.293 2.414 2.414 0 0 1 3.414 0A7.829 7.829 0 0 0 39.243 34a6.656 6.656 0 0 0 4.707-1.95l1.885-1.885A15.578 15.578 0 0 0 46 28v-5H18zM46 13A13.394 13.394 0 0 0 32.821 2h-1.642A13.394 13.394 0 0 0 18 13" fill="#424344"></path><path d="M46 13H18v2a2 2 0 0 0 2 2h28v-2a2 2 0 0 0-2-2z" fill="#5a5b5d"></path><path d="M45 54h2v8h-2zM17 54h2v8h-2z" fill="#424344"></path><path d="m36 27 5-1v1.5a2.5 2.5 0 0 1-2.5 2.5 2.5 2.5 0 0 1-2.5-2.5zM28 27l-5-1v1.5a2.5 2.5 0 0 0 2.5 2.5 2.5 2.5 0 0 0 2.5-2.5z" fill="#ffffff"></path></g></svg>