<svg viewBox="0 0 512 512" xmlns="http://www.w3.org/2000/svg"><g><path d="m418.336 395.142-52.908-293.67-33.688-12.684-197.569 392.307 6.899 11.246A41.209 41.209 0 0 0 176.195 512h159.976a41.21 41.21 0 0 0 35.197-19.777l41.611-68.343a41.19 41.19 0 0 0 5.202-13.351 41.216 41.216 0 0 0 .155-15.387zM363.721 266.302l24.199 134.321z" fill="#a9dad9"></path><path d="m331.74 88.788-75.747-28.523-109.435 41.207-52.894 293.593a41.195 41.195 0 0 0 .171 15.462c.949 4.7 2.71 9.238 5.259 13.392l35.077 57.175h42.024l187.526-214.793L331.74 88.788z" fill="#c2e2dd"></path><path d="M393.583 73.668C393.583 32.982 331.982 0 255.993 0s-137.59 32.982-137.59 73.668l.001.295c.112 15.298 12.856 27.51 28.154 27.51h218.871c15.298 0 28.042-12.212 28.154-27.51v-.295z" fill="#a9a499"></path><path d="M153.08 70.567h154.5c15.333 0 27.827-12.39 27.859-27.723v-.081c0-.519-.01-1.036-.03-1.552-.697-18.036-14.074-33.171-31.782-36.671C288.784 1.604 272.739 0 255.993 0c-48.942 0-91.912 13.683-116.299 34.293-14.625 12.359-5.762 36.274 13.386 36.274z" fill="#d4cfc2"></path><circle cx="186.452" cy="52.539" fill="#6f6b63" r="7.726"></circle><circle cx="232.811" cy="52.539" fill="#6f6b63" r="7.726"></circle><circle cx="279.169" cy="52.539" fill="#6f6b63" r="7.726"></circle><circle cx="325.527" cy="52.539" fill="#6f6b63" r="7.726"></circle><circle cx="212.207" cy="21.634" fill="#6f6b63" r="7.726"></circle><circle cx="258.565" cy="21.634" fill="#6f6b63" r="7.726"></circle><circle cx="304.923" cy="21.634" fill="#6f6b63" r="7.726"></circle><path d="M124.08 400.545c-.229 1.27-.212 2.57.049 3.863a10.295 10.295 0 0 0 1.308 3.351l1.699 2.769 40.277 65.652a10.366 10.366 0 0 0 8.781 4.915H336.17c3.571 0 6.942-1.895 8.8-4.945l39.955-65.623 1.657-2.721a10.264 10.264 0 0 0 1.294-3.34c.258-1.288.273-2.581.044-3.844L363.721 266.3H148.265L124.08 400.545z" fill="#fff9eb"></path><circle cx="227.66" cy="346.141" fill="#e2ddd0" r="7.726"></circle><circle cx="227.66" cy="299.783" fill="#e2ddd0" r="7.726"></circle><circle cx="274.018" cy="315.235" fill="#e2ddd0" r="7.726"></circle><circle cx="258.565" cy="377.046" fill="#e2ddd0" r="7.726"></circle><circle cx="304.923" cy="361.594" fill="#e2ddd0" r="7.726"></circle><circle cx="289.471" cy="438.857" fill="#e2ddd0" r="7.726"></circle><circle cx="243.112" cy="438.857" fill="#e2ddd0" r="7.726"></circle><path d="M363.721 266.302h-23.552l19.221 106.695a72.128 72.128 0 0 1-70.987 84.919H156.208l11.204 18.264a10.366 10.366 0 0 0 8.781 4.915h159.975c3.595 0 6.93-1.874 8.8-4.945l39.955-65.623 1.657-2.721a10.264 10.264 0 0 0 1.294-3.34c.258-1.288.273-2.581.044-3.844l-24.197-134.32z" fill="#d4cfc2"></path></g></svg>