<svg viewBox="0 0 64 64" xmlns="http://www.w3.org/2000/svg"><g><path d="M22 21.607a11.92 11.92 0 0 1 1.739-6.107 14.87 14.87 0 0 1 3.285-3.868A4.062 4.062 0 0 0 28.5 8.5h7a4.062 4.062 0 0 0 1.476 3.132A14.87 14.87 0 0 1 40.26 15.5 11.92 11.92 0 0 1 42 21.607v21.479a3.414 3.414 0 0 1-1 2.414 3.414 3.414 0 0 1 1 2.414V57c0 1.38-1.492 2.5-3.333 2.5a3.62 3.62 0 0 1-2.922-1.296.501.501 0 0 0-.823 0 3.942 3.942 0 0 1-5.844 0 .501.501 0 0 0-.823 0 3.62 3.62 0 0 1-2.922 1.296C23.493 59.5 22 58.38 22 57v-9.086a3.414 3.414 0 0 1 1-2.414 3.414 3.414 0 0 1-1-2.414z" fill="#a3dfee"></path><path d="M40 57v-9.086a3.889 3.889 0 0 0-.8-2.414 3.889 3.889 0 0 0 .8-2.414V21.607a14.21 14.21 0 0 0-1.39-6.107 14.53 14.53 0 0 0-2.63-3.868A4.524 4.524 0 0 1 34.8 8.5h.7a4.062 4.062 0 0 0 1.476 3.132A14.87 14.87 0 0 1 40.26 15.5 11.92 11.92 0 0 1 42 21.607v21.479a3.414 3.414 0 0 1-1 2.414 3.414 3.414 0 0 1 1 2.414V57c0 1.38-1.492 2.5-3.333 2.5a4.411 4.411 0 0 1-.74-.063A2.542 2.542 0 0 0 40 57z" fill="#88cedc"></path><path d="M37.5 57v-9.086a5.14 5.14 0 0 0-.55-2.414 5.14 5.14 0 0 0 .55-2.414V21.607a19.733 19.733 0 0 0-.956-6.107 16.025 16.025 0 0 0-1.807-3.868 5.827 5.827 0 0 1-.812-3.132h.875a4.524 4.524 0 0 0 1.18 3.132 14.53 14.53 0 0 1 2.63 3.868A14.21 14.21 0 0 1 40 21.607v21.479a3.889 3.889 0 0 1-.8 2.414 3.889 3.889 0 0 1 .8 2.414V57a2.542 2.542 0 0 1-2.073 2.437 3.934 3.934 0 0 1-1.195-.403A2.855 2.855 0 0 0 37.5 57z" fill="#94daeb"></path><path d="M24 21.607a14.21 14.21 0 0 1 1.39-6.107 14.53 14.53 0 0 1 2.63-3.868A4.524 4.524 0 0 0 29.2 8.5h.875a5.827 5.827 0 0 1-.812 3.132 16.025 16.025 0 0 0-1.807 3.868 19.733 19.733 0 0 0-.956 6.107v21.479a5.14 5.14 0 0 0 .55 2.414 5.14 5.14 0 0 0-.55 2.414V57a2.855 2.855 0 0 0 .768 2.034 3.934 3.934 0 0 1-1.195.403A2.542 2.542 0 0 1 24 57v-9.086a3.889 3.889 0 0 1 .8-2.414 3.889 3.889 0 0 1-.8-2.414z" fill="#bde8f2"></path><path d="M22 21.5h20v20H22z" fill="#4e88e8"></path><path d="m40 21.607-.002-.107h2l.002.107V41.5h-2z" fill="#4173da"></path><path d="m39.998 21.5.002.107V41.5h-2.5V21.607l-.001-.107z" fill="#477de0"></path><path d="M26.5 21.607V41.5H24V21.607l.002-.107h2.5l-.002.107z" fill="#6799eb"></path><path d="M28.5 8.5h7A.5.5 0 0 0 36 8V5.5a1 1 0 0 0-1-1h-6a1 1 0 0 0-1 1V8a.5.5 0 0 0 .5.5z" fill="#4e88e8"></path><path d="M34.134 4.5H35a1 1 0 0 1 1 1V8a.5.5 0 0 1-.5.5H35V5.366a.866.866 0 0 0-.866-.866z" fill="#4173da"></path><path d="M33.293 4.5h.841a.866.866 0 0 1 .866.866V8.5h-1V5.207a.707.707 0 0 0-.707-.707z" fill="#477de0"></path><path d="M29.866 4.5h.841a.707.707 0 0 0-.707.707V8.5h-1V5.366a.866.866 0 0 1 .866-.866z" fill="#6799eb"></path><rect fill="#caecf4" rx=".4"></rect></g></svg>