<svg viewBox="0 0 512 512" xmlns="http://www.w3.org/2000/svg"><g><path d="M512 244.105v165H391v-165c0-24.901 51.099-45 76-45 24.402 0 45 19.948 45 45z" fill="#e1e6f0"></path><path d="M301 199.105v255c0 24.899 50.099 45 75 45 24.443 0 45-19.991 45-45v-210c0-24.901 21.099-45 46-45z" fill="#c3cbd9"></path><path d="M331 454.105V57.895l-45-45-30 30-30-30-30 30-30-30-30 30-30-30-30 30-30-30-46 45v366.211c0 41.353 34.633 75 76 75h300c-24.901-.001-45-20.102-45-45.001z" fill="#f3f5f9"></path><path d="M331 454.105V57.895l-45-45-30 30-30-30-30 30-30-30v486.211h210c-24.901-.001-45-20.102-45-45.001z" fill="#e1e6f0"></path><path d="M61 409.105h30v30H61zM61 349.105h30v30H61z" fill="#5f5166"></path><g fill="#e1e6f0"><path d="M121 409.105v30h150v-30H166zM166 349.105h-45v30h150v-30z" fill="#e1e6f0"></path></g><path d="M166 409.105h105v30H166zM166 349.105h105v30H166z" fill="#c3cbd9"></path><path d="M211.06 244.456c0 19.55-12.61 36.06-30.06 42.26v32.39h-30v-32.43c-17.39-6.23-29.94-22.06-29.94-41.57h30c0 8.26 6.71 14.31 14.94 14.34.02 0 .04.01.06.01 8.26 0 15-6.72 15-15 0-8.27-6.74-15-15-15H166c-24.79-.04-44.94-20.2-44.94-45 0-19.57 12.46-36.09 29.94-42.27v-33.08h30v33.15c17.36 6.24 30.06 22.36 30.06 41.85h-30c0-8.28-6.74-14.65-15-14.65-.02 0-.04.01-.06.01-8.23.04-14.94 6.74-14.94 14.99 0 8.26 6.71 14.96 14.94 14.99.02 0 .04.01.06.01 24.81 0 45 20.19 45 45z" fill="#ffdf40"></path><path d="M181.06 244.456c0 8.28-6.74 15-15 15-.02 0-.04-.01-.06-.01v-29.99h.06c8.26 0 15 6.73 15 15z" fill="#e1e6f0"></path><g fill="#ffbe40"><path d="M211.06 244.456c0 19.55-12.61 36.06-30.06 42.26v32.39h-15v-59.66c.02 0 .04.01.06.01 8.26 0 15-6.72 15-15 0-8.27-6.74-15-15-15H166v-30.01c.02 0 .04.01.06.01 24.81 0 45 20.19 45 45zM166.06 169.456c-.02 0-.04.01-.06.01v-60.36h15v33.15c17.36 6.24 30.06 22.36 30.06 41.85h-30c0-8.281-6.74-14.65-15-14.65z" fill="#ffbe40"></path></g></g></svg>