<svg viewBox="0 0 512 512" xmlns="http://www.w3.org/2000/svg"><g><path d="M256 140.19 289 229l-33 96.45-103.17-.86c-26.41-32.21-42.74-76.72-42.74-125.88 0-20.51 2.84-40.2 8.07-58.53z" fill="#ffdecf"></path><path d="M401.91 198.71c0 50.03-16.92 95.24-44.15 127.58L256 325.45V140.19h137.84c5.23 18.33 8.07 38.02 8.07 58.52z" fill="#ffbeaa"></path><path d="M512 484.67v22.49h-79.28l-13.22-11.65-16.82 11.65H256V349.87h99.68c11.7 0 23.28 1.43 34.49 4.2a143.38 143.38 0 0 1 31.67 11.91 143.09 143.09 0 0 1 26.57 17.74l19.66 16.55c23.92 21.11 39.61 51.25 43.93 84.4z" fill="#e7dfdd"></path><path d="M256 349.87v157.29H109.42L95.5 495.51 78 507.16H0v-22.49c4.32-33.15 20.01-63.29 43.93-84.4l19.94-16.72a143.89 143.89 0 0 1 92.52-33.68z" fill="#eceae7"></path><path d="m256 4.84 36.072 67.04L256 140.18H118.16V33.23c0-15.68 12.71-28.39 28.39-28.39z" fill="#474f54"></path><path d="M401.91 33.23v106.95H256V4.84h117.52c15.68 0 28.39 12.71 28.39 28.39z" fill="#293939"></path><path d="M182.857 150.078h30v36.475h-30z" fill="#673416"></path><path d="M299.143 150.078h30v36.475h-30z" fill="#330a0a"></path><path d="M420 334.01c-2.8 5.82-4.83 10.02-4.83 19.7 0 5.37.63 9.06 1.67 12.27.82 2.58 1.91 4.84 3.16 7.43 3.48 7.22 7.8 16.2 7.8 32.73s-4.32 25.51-7.8 32.72c-2.8 5.82-4.83 10.02-4.83 19.71 0 9.68 2.03 13.89 4.83 19.7 3.2 6.64 7.11 14.77 7.72 28.89h-30.04c-.47-7.08-2.3-10.88-4.71-15.87-3.47-7.21-7.8-16.19-7.8-32.72s4.33-25.51 7.8-32.73c2.81-5.82 4.83-10.02 4.83-19.7s-2.02-13.89-4.83-19.7c-3.44-7.17-7.74-16.07-7.8-32.37v-.36c0-16.53 4.33-25.51 7.8-32.72 2.81-5.82 4.83-10.02 4.83-19.7s-2.02-13.89-4.83-19.71c-3.47-7.21-7.8-16.19-7.8-32.72s4.33-25.51 7.8-32.72c2.81-5.82 4.83-10.02 4.83-19.7s-2.02-13.88-4.83-19.7c-3.47-7.21-7.8-16.19-7.8-32.72h30c0 9.68 2.03 13.88 4.83 19.7 3.47 7.21 7.8 16.19 7.8 32.72s-4.32 25.51-7.8 32.72c-2.8 5.82-4.83 10.02-4.83 19.7s2.03 13.89 4.83 19.7c3.48 7.22 7.8 16.19 7.8 32.73 0 16.53-4.32 25.5-7.8 32.72z" fill="#673416"></path><path d="M114.424 507.158h-30c0-16.532 4.325-25.511 7.8-32.726 2.803-5.818 4.828-10.022 4.828-19.706s-2.025-13.888-4.828-19.706c-3.475-7.215-7.8-16.193-7.8-32.726 0-16.531 4.325-25.509 7.801-32.723 2.803-5.817 4.827-10.021 4.827-19.701 0-9.683-2.025-13.886-4.828-19.704-3.475-7.214-7.8-16.191-7.8-32.723s4.325-25.509 7.801-32.723c2.803-5.817 4.827-10.021 4.827-19.701s-2.024-13.884-4.827-19.7c-3.476-7.214-7.801-16.191-7.801-32.722s4.325-25.507 7.801-32.72c2.803-5.816 4.827-10.019 4.827-19.697h30c0 16.529-4.325 25.506-7.801 32.719-2.803 5.816-4.827 10.019-4.827 19.698 0 9.681 2.024 13.884 4.827 19.7 3.476 7.214 7.801 16.191 7.801 32.722s-4.325 25.509-7.801 32.723c-2.802 5.817-4.827 10.021-4.827 19.701 0 9.682 2.025 13.885 4.827 19.703 3.476 7.214 7.801 16.191 7.801 32.724 0 16.531-4.325 25.509-7.801 32.723-2.802 5.817-4.827 10.021-4.827 19.701 0 9.684 2.025 13.888 4.828 19.706 3.475 7.215 7.8 16.193 7.8 32.726s-4.325 25.511-7.8 32.726c-2.803 5.819-4.828 10.023-4.828 19.706z" fill="#a24603"></path><path d="m256 125.18 23 15-23 15H25.45v-30z" fill="#293939"></path><path d="M256 125.18h230.55v30H256z" fill="#292929"></path><path d="m256 296.12 23 88.403-23 122.637-50.17-56.21c-62.34-62.34-73.67-158.06-73.67-158.06 44.12 69.29 123.84 3.23 123.84 3.23z" fill="#a24603"></path><path d="M379.84 292.89s-11.33 95.72-73.67 158.06L256 507.16V296.12s79.73 66.06 123.84-3.23z" fill="#673416"></path><path d="m256 262.65 33 29.026-33 25.694s-79.72 44.81-123.84-24.48c0 0 73.85-41.27 94.69-41.16 11.77.06 29.15 10.92 29.15 10.92z" fill="#cb7300"></path><path d="M379.84 292.89C335.73 362.18 256 317.37 256 317.37v-54.72s4.34-2.72 10.16-5.44 13.1-5.45 18.99-5.48c20.84-.11 94.69 41.16 94.69 41.16z" fill="#a24603"></path></g></svg>