<svg viewBox="0 0 512 512" xmlns="http://www.w3.org/2000/svg"><g><path d="m331.145 301.41-40.204 40.204c-28.421 28.421-28.453 74.509-.057 102.97l.875.875c18.696 18.728 49.02 18.736 67.748.04l143.548-143.548c11.927-11.927 11.927-31.264 0-43.191l-57.57-57.57a33.96 33.96 0 0 0-16.818-9.175l-98.522-19.644z" fill="#ffbbad"></path><path d="M419.161 289.979c-11.77-5.432-23.552-7.473-34.393-7.635l-4.615-10.292a7.727 7.727 0 0 0-14.1 6.322l2.288 5.102c-18.145 2.735-31.016 9.432-31.962 9.935-3.761 2.002-5.184 6.667-3.19 10.432a7.726 7.726 0 0 0 10.437 3.217c.353-.185 35.722-18.439 69.06-3.05 3.875 1.788 8.465.097 10.253-3.778s.097-8.465-3.778-10.253z" fill="#ffa792"></path><path d="M444.255 200.028v31.709c0 16.225-6.573 30.915-17.214 41.547-10.631 10.632-25.322 17.215-41.547 17.215-19.635 0-37.004-9.632-47.677-24.426 0 44.267-.01 77.841-.01 78.026-1.051 30.658-26.589 55.094-57.669 54.342a54.844 54.844 0 0 1-10.415-1.246c-1.113-19.975 5.965-40.321 21.222-55.578l40.198-40.208-.999-129.04 98.527 19.646a33.96 33.96 0 0 1 15.584 8.013zM503.054 301.953 359.507 445.5c-18.731 18.699-49.05 18.688-67.749-.043l-.874-.874a71.101 71.101 0 0 1-6.161-7.024c18.72 13.552 45.015 11.901 61.89-4.952L490.161 289.06c11.934-11.923 11.934-31.269 0-43.191l12.894 12.894c11.922 11.922 11.922 31.257-.001 43.19z" fill="#ffa792"></path><path d="M321.341 80.513c-10.184-10.197-24.265-16.496-39.816-16.496-21.654 0-40.436 12.226-49.851 30.148-2.499 4.758-7.451 7.716-12.825 7.716h-.087c-3.884 0-7.565-1.597-10.332-4.322-10.164-10.013-24.116-16.191-39.511-16.191-20.166 0-37.847 10.605-47.79 26.539-2.806 4.496-7.791 7.158-13.084 7.219-4.257.049-8.31-1.829-11.269-4.889-10.235-10.588-24.58-17.175-40.47-17.175C25.209 93.061 0 118.271 0 149.368V306.48c0 31.097 25.209 56.307 56.307 56.307 31.087 0 56.29-25.194 56.306-56.277.016 31.083 25.219 56.277 56.306 56.277 31.093 0 56.3-25.203 56.307-56.295v14.887c0 30.697 24.22 56.405 54.908 57.144 31.082.749 56.625-23.688 57.668-54.345.013-.374.022-145.786.027-230.846-3.985 0-7.786-1.872-10.063-5.143a56.27 56.27 0 0 0-6.425-7.676z" fill="#ffcec0"></path><g fill="#ffbbad"><path d="M326.732 184.544H310.25a7.726 7.726 0 1 1 0-15.452h16.482a7.726 7.726 0 1 1 0 15.452z" fill="#ffbbad"></path><path d="M337.827 93.332c0 51.457 0 125.013-.01 175.172-16.782-13.217-27.568-33.718-27.568-56.681V111.247c0-12.043 2.967-23.416 8.221-33.409a53.801 53.801 0 0 1 2.874 2.679 55.817 55.817 0 0 1 6.418 7.675c1.133 1.638 2.658 2.915 4.389 3.791a12.628 12.628 0 0 0 5.676 1.349z" fill="#ffbbad"></path><path d="M337.827 93.332c0 85.062-.01 230.472-.021 230.843-1.051 30.658-26.589 55.094-57.669 54.352a54.867 54.867 0 0 1-11.116-1.401c24.415-5.594 42.773-27.053 43.659-52.951.01-.309.021-122.705.021-213.258a66.684 66.684 0 0 0-17.719-45.287 56.203 56.203 0 0 1 26.362 14.886 55.817 55.817 0 0 1 6.418 7.675c1.133 1.638 2.658 2.915 4.389 3.791a12.616 12.616 0 0 0 5.676 1.35zM126.806 169.092h-24.731a7.726 7.726 0 1 0 0 15.452h2.81v137.747a7.726 7.726 0 1 0 15.452 0V184.544h6.468a7.726 7.726 0 0 0 7.726-7.726 7.723 7.723 0 0 0-7.725-7.726zM237.59 169.092h-24.731a7.726 7.726 0 1 0 0 15.452h4.639v137.747a7.726 7.726 0 1 0 15.452 0V184.544h4.639a7.726 7.726 0 0 0 7.726-7.726 7.724 7.724 0 0 0-7.725-7.726z" fill="#ffbbad"></path></g><path d="M385.494 270.583c-32.454 0-58.762-26.309-58.762-58.762V111.25c0-32.453 26.309-58.762 58.762-58.762s58.762 26.309 58.762 58.762v100.571c0 32.453-26.308 58.762-58.762 58.762z" fill="#ffdfd0"></path><path d="M444.255 111.247v100.576c0 32.451-26.311 58.762-58.762 58.762a58.13 58.13 0 0 1-9.529-.773c27.918-4.553 49.232-28.783 49.232-57.989V111.247c0-16.225-6.573-30.916-17.214-41.547-8.509-8.509-19.615-14.423-32.018-16.442a59.252 59.252 0 0 1 9.529-.773c16.225 0 30.916 6.583 41.547 17.214 10.643 10.632 17.215 25.322 17.215 41.548z" fill="#ffcec0"></path></g></svg>