<svg viewBox="0 0 512 512" xmlns="http://www.w3.org/2000/svg"><g><path d="M243.429 420.571 224 440l16 40 16 8h8l8-10.373V448z" fill="#a8a8a8"></path><path d="m260 448-20-32 40-56-24-72 64 64z" fill="#961b20"></path><path d="m153.132 344.08-56-8A8 8 0 0 0 88 344v24h-8a24 24 0 1 0 24 24v-38.776l40 5.714V376h-8a24 24 0 1 0 24 24v-48a8 8 0 0 0-6.868-7.92z" fill="#fbb540"></path><path d="M473.94 240.239 448 233.754v-7.508l22.06 5.515a8 8 0 0 0 3.88-15.522l-32-8A8 8 0 0 0 432 216v32h-8a24 24 0 1 0 24 24v-21.754l22.06 5.515a8 8 0 0 0 3.88-15.522z" fill="#02a437"></path><path d="m277.277 120-16-24H240l-8 24-2 12h47.277z" fill="#fdc9a6"></path><path d="M268.38 106.65a23.985 23.985 0 0 1-31.54-1.17L240 96h21.28z" fill="#f6bb92"></path><path d="M277.277 120 296 128v40a95.263 95.263 0 0 1 16 52.844V240h-80v-20.692a57.921 57.921 0 0 0-11.585-34.754L208 168v-40l24-8 1.321 1.321A30.2 30.2 0 0 0 277.277 120z" fill="#537cd8"></path><path d="m184 182.4 24-14.4v-40l-40 22.222z" fill="#5d70b3"></path><path d="M168 150.222 136 168l-16 80v24l32 8 8-16-8-16 16-56 16-9.6z" fill="#fdc9a6"></path><rect fill="#fdc9a6" rx="24" transform="rotate(180 253.277 72)"></rect><path d="M277.277 56V43.777A19.776 19.776 0 0 0 257.5 24a19.777 19.777 0 0 0-17.689 10.932L237.277 40H234.9a18.9 18.9 0 0 0-17.93 12.921 18.9 18.9 0 0 0 4.565 19.337L229.277 80l24-24z" fill="#55300b"></path><path d="M259.174 448 320 352l-61.049-60.9A38 38 0 0 1 248 264.408V240h64v16l41.16 68.6a48 48 0 0 1 6.84 24.7v2.979a48 48 0 0 1-9.306 28.4L301.277 448z" fill="#d32b39"></path><path d="M301.277 448 320 488h-32l-28.723-17-.277-23z" fill="#cbcbcb"></path><path d="m328 155.2 48-19.2 8-64V40l-8-16h-24v16l-8 16 8 16-8 40-16 5.333z" fill="#fdc9a6"></path><path d="M328 117.333 296 128v40l32-12.8z" fill="#5d70b3"></path><g fill="#43dcfe"><path d="M216 312a7.974 7.974 0 0 1-5.657-2.343l-4.687-4.686A46.325 46.325 0 0 1 192 272a8 8 0 0 1 16 0 30.423 30.423 0 0 0 8.971 21.656l4.686 4.687A8 8 0 0 1 216 312zM104 176a8.005 8.005 0 0 1-7.591-10.531l2.343-7.03a50.847 50.847 0 0 1 25.67-29.6 8 8 0 0 1 7.154 14.31 34.952 34.952 0 0 0-17.643 20.351l-2.343 7.028A8 8 0 0 1 104 176zM152.006 132a8 8 0 0 1-3.584-15.157l8-4a8 8 0 1 1 7.156 14.31l-8 4a7.973 7.973 0 0 1-3.572.847zM392 171.2a8 8 0 0 1-2.974-15.43 10.555 10.555 0 0 0 6.106-6.475l5.275-15.827a8 8 0 0 1 15.18 5.06l-5.276 15.826a26.525 26.525 0 0 1-15.343 16.272 7.971 7.971 0 0 1-2.968.574zM360 184a8 8 0 0 1-2.975-15.43l8-3.2a8 8 0 0 1 5.944 14.856l-8 3.2A8 8 0 0 1 360 184zM200 248a8 8 0 0 1-8-8v-8a8 8 0 0 1 16 0v8a8 8 0 0 1-8 8z" fill="#43dcfe"></path></g></g></svg>