<svg viewBox="0 0 512 512" xmlns="http://www.w3.org/2000/svg"><g><path d="M356.645 270.452c-6.194-28.387-1.548-64-1.548-64H297.29v181.677H396.731c-6.021-44.387-31.361-77.689-40.086-117.677z" fill="#5a4650"></path><path d="m412.878 392.978-85.291-30.103a33.032 33.032 0 0 1-22.039-31.149v-50.952h-99.097v50.952a33.033 33.033 0 0 1-22.038 31.149l-85.291 30.103c-19.81 6.992-33.057 25.716-33.057 46.723v47.525c0 13.682 11.092 24.774 24.774 24.774h330.323c13.682 0 24.774-11.092 24.774-24.774v-47.525c-.001-21.007-13.248-39.731-33.058-46.723z" fill="#b67f5f"></path><path d="M327.335 362.763c.087.032.164.081.252.112l85.291 30.103c19.81 6.991 33.057 25.716 33.057 46.723v47.525c0 13.682-11.092 24.774-24.774 24.774H156.903c113.62-51.025 159.126-127.067 170.432-149.237z" fill="#ff8087"></path><path d="M367.574 376.988c-15.676 47.281-34.649 97.642-59.04 135.012h-20.088c29.295-40.452 51.701-104.482 63.558-140.507l15.57 5.495z" fill="#e6646e"></path><path d="M184.665 362.763c-.087.032-.164.081-.252.112l-85.291 30.103c-19.81 6.991-33.057 25.716-33.057 46.723v47.525c0 13.682 11.092 24.774 24.774 24.774h264.258c-113.62-51.025-159.126-127.067-170.432-149.237z" fill="#ffd164"></path><path d="M206.452 311.845c15.198 6.584 31.957 10.219 49.548 10.219s34.35-3.636 49.548-10.219v-31.071h-99.097l.001 31.071z" fill="#a06e50"></path><circle cx="148.65" cy="256" fill="#ffe17d" r="33.03"></circle><circle cx="148.65" cy="256" fill="#ffd164" r="16.516"></circle><circle cx="363.359" cy="256" fill="#ffe17d" r="33.03"></circle><circle cx="363.359" cy="256" fill="#ffd164" r="16.516"></circle><path d="M256 0c-72.973 0-132.129 59.156-132.129 132.129v61.936h264.258v-61.936C388.129 59.156 328.973 0 256 0z" fill="#5a4650"></path><path d="M367.484 173.419s-11.058-1.332-14.441-2.268c-18.762-5.195-59.382-21.416-90.151-68.842-3.242-4.997-10.541-4.997-13.783 0-30.77 47.425-71.389 63.647-90.151 68.842-3.383.936-14.441 2.268-14.441 2.268-12.104 0-21.775 10.416-20.538 22.774 1.075 10.746 10.916 18.516 21.715 18.516h4.352c7.963 51.428 52.296 90.839 105.955 90.839s97.992-39.411 105.955-90.839h4.352c10.799 0 20.64-7.771 21.715-18.516 1.236-12.357-8.435-22.774-20.539-22.774z" fill="#cd916e"></path><path d="M206.452 198.194a8.256 8.256 0 0 1-8.258-8.258v-8.258c0-4.56 3.694-8.258 8.258-8.258s8.258 3.698 8.258 8.258v8.258a8.256 8.256 0 0 1-8.258 8.258zM305.548 198.194a8.256 8.256 0 0 1-8.258-8.258v-8.258a8.256 8.256 0 0 1 8.258-8.258 8.256 8.256 0 0 1 8.258 8.258v8.258a8.256 8.256 0 0 1-8.258 8.258z" fill="#5a4650"></path><path d="M224.355 227.067c-3.12 0-5.543 2.871-4.92 5.928 3.142 15.414 18.317 27.104 36.564 27.104s33.422-11.69 36.565-27.104c.623-3.057-1.8-5.928-4.92-5.928h-63.289z" fill="#ffffff"></path><path d="M353.043 171.151c-18.747-5.192-59.319-21.391-90.079-68.731-3.277-5.044-10.645-5.052-13.922-.008-21.251 32.708-47.178 50.542-67.364 60.161-9.034 4.304-16.924 6.973-22.72 8.578-3.383.936-14.441 2.268-14.441 2.268-12.104 0-21.775 10.415-20.538 22.774 1.075 10.746 10.916 18.517 21.715 18.517h4.352c7.963 51.428 52.296 90.839 105.955 90.839 5.672 0 11.21-.532 16.642-1.381-49.557-7.612-87.985-48.994-90.799-99.97-.219-3.963.422-7.943 1.572-11.742 2.634-8.698 8.409-16.127 16.314-20.611 18.064-10.246 38.285-26.081 56.271-50.479 21.545 29.226 46.297 46.164 66.709 55.929 14.56 6.966 31.704 5.594 44.775-3.876-.001 0-11.061-1.331-14.442-2.268z" fill="#b67f5f"></path><path d="M279.939 2.274c-4.731 12.106-7.422 25.235-7.422 39.017 0 59.29 48.065 107.355 107.355 107.355 2.788 0 5.524-.209 8.258-.417V132.13c-.001-64.788-46.664-118.579-108.191-129.856z" fill="#64505a"></path><path d="M144.426 376.988c15.676 47.281 34.649 97.642 59.04 135.012h20.088c-29.295-40.452-51.701-104.482-63.558-140.507l-15.57 5.495zM151.764 512h17.097c-12.458-42.41-23.826-87.78-34.357-131.51l-15.639 5.52c10.105 41.908 21.005 85.074 32.899 125.99z" fill="#ffc350"></path></g></svg>