<svg id="Layer_1" height="512" viewBox="0 0 66 66" width="512" xmlns="http://www.w3.org/2000/svg"><g><ellipse cx="36.289" cy="16.424" fill="#5c2f2a" rx="14.089" ry="13.482" transform="matrix(.124 -.992 .992 .124 15.506 50.406)"/><g><path d="m63.5612 64.9711h-61.1224c0-8.9732 6.2321-16.7292 14.9998-18.6796 10.84-2.4379 24.675-1.9151 31.6264.1259 8.4924 2.1111 14.4962 9.7513 14.4962 18.5537z" fill="#ced7dc"/></g><path d="m42.0243 46.8315v7.9494l-9.0243-2.9287-9.0243 2.9287v-7.9494c0-2.3764 2.1849-4.3177 4.9016-4.3177h8.2264c2.7168 0 4.9206 1.9413 4.9206 4.3177z" fill="#2ea6c1"/><path d="m30.95 50.949h4.106v14.022h-4.106z" fill="#2ea6c1"/><g><circle cx="33" cy="55.259" r="1.001"/><circle cx="33" cy="61.369" r="1.001"/></g><path d="m39.5874 32.2566v11.9718c0 3.6381-2.9493 6.5874-6.5874 6.5874-3.6381 0-6.5874-2.9493-6.5874-6.5874v-11.9718z" fill="#fab687"/><path d="m39.5874 24.2794v11.9718c0 3.6381-2.9493 6.5874-6.5874 6.5874-3.6381 0-6.5874-2.9493-6.5874-6.5874v-11.9718z" fill="#f8a771"/><path d="m33.3005 3.5585c-7.9025 0-14.3917 6.3114-14.5357 14.2126-.0034.1844-.0054.3694-.0061.5548-.0064 1.6183.0921 3.2121.2763 4.7431 1.3181 10.7546 7.1448 18.863 14.1727 18.8968 7.028.034 12.9177-8.0177 14.3195-18.7591.1962-1.5291.307-3.1218.3133-4.7403.0008-.1952.0001-.3898-.0021-.5838-.0885-7.9454-6.5919-14.3241-14.5379-14.3241z" fill="#fab687"/><path d="m46.4329 21.3972c0-3.998-3.7826-6.8135-7.6773-6.6503-.1002.0043-8.5912.3689-8.0535.3458-2.2066 0-4.1692-1.4235-4.8403-3.5488-.1076.4733.3618 3.3748-2.3388 5.1556-.1576.1629-3.3252 1.6512-3.3252 5.5011v4.2097c-3.4573-10.5753-3.3251-23.4489 6.2233-20.7744 9.4632-12.8389 31.6474 3.387 19.8593 21.3235.0417-.4581.151-5.4621.1525-5.5622z" fill="#5c2f2a"/><g fill="#3d2f46"><circle cx="27.906" cy="25.246" r="1.683"/><circle cx="38.693" cy="25.246" r="1.683"/><path d="m29.3064 21.1983-.0461-.2354c-.0764-.3899-.4543-.6439-.8441-.5676l-3.6539.7158c-.3898.0764-.6439.4543-.5676.8442l.0461.2354c.0764.3899.4543.6439.8441.5676l3.654-.7158c.3898-.0764.6438-.4543.5675-.8442z"/><path d="m41.837 21.1111-3.6539-.7158c-.3898-.0763-.7678.1777-.8441.5676l-.0461.2354c-.0764.3899.1777.7678.5676.8442l3.6539.7158c.3898.0763.7678-.1777.8441-.5676l.0461-.2354c.0764-.3898-.1778-.7678-.5676-.8442z"/></g><g><path d="m38.6819 33.2207c-.1604 2.7062-2.4939 4.8584-5.3776 4.8584-2.7478 0-5.2334-2.0373-5.3869-4.8584z" fill="#663430"/><path d="m35.9745 33.2207v.955c0 .2225-.1577.3894-.3523.3894h-4.673c-.1947 0-.3616-.1669-.3616-.3894v-.955z" fill="#fff"/><path d="m37.2633 36.4195c-1.5549 1.5597-3.6145 1.9597-5.4517 1.4649l.0092-.0093c.6489-1.5972 2.9723-2.6907 5.4425-1.4556z" fill="#ef4f63"/></g><g fill="#fab687"><path d="m46.9073 18.8155c-1.7726 0-3.3836 2.2458-3.5908 4.9172-.199 2.5681.9829 4.5781 2.6332 4.5781s3.2377-2.01 3.5565-4.5781c.3318-2.6714-.8263-4.9172-2.5989-4.9172z"/><path d="m19.1539 18.8155c-1.7726 0-2.9307 2.2458-2.5989 4.9172.3189 2.5681 1.9063 4.5781 3.5565 4.5781s2.8323-2.01 2.6332-4.5781c-.2072-2.6714-1.8182-4.9172-3.5908-4.9172z"/></g></g></svg>