<svg viewBox="0 0 512 512" xmlns="http://www.w3.org/2000/svg"><g><path d="M0 253.106c0 35.699 23.914 67.084 58.416 76.25 19.86 5.276 41.612 8.968 62.021 8.968 14.814 0 30.448-.993 46.469-2.949.768-.094 1.48-.139 2.175-.139 9.296 0 21.249 10.467 39.828 27.705 25.266 23.442 59.868 55.546 112.421 62.352 15.622 2.023 30.766 3.049 45.011 3.049 11.102 0 21.525-.625 31.308-1.774 60.801-7.142 108.502-55.834 113.606-116.84.033-.391.064-.782.095-1.174l.65-77.902L0 210.588v42.518z" fill="#dda57f"></path><path d="M483.936 378.579a127.317 127.317 0 0 0 5.894-8.04 127.794 127.794 0 0 0 8.894-15.351 127.602 127.602 0 0 0 12.617-46.521l.009-.113.574-77.905-55.648-2.181-.59 80.085c-.031.392-.062.783-.095 1.174-5.104 61.006-52.804 109.698-113.606 116.84-1.461.172-2.942.328-4.432.476 4.752.412 9.44.721 14.058.938l1.399.06c1.762.075 3.511.134 5.251.18.552.014 1.106.032 1.655.044 2.159.046 4.305.075 6.425.075 6.939 0 13.612-.244 20.03-.707 3.851-.278 7.609-.635 11.278-1.066a129.795 129.795 0 0 0 35.182-9.25 129.522 129.522 0 0 0 12.354-5.985 129.245 129.245 0 0 0 15.96-10.412 129.398 129.398 0 0 0 9.297-7.818 126.852 126.852 0 0 0 2.985-2.836l.009-.01c.955-.939 1.889-1.899 2.814-2.867a128.397 128.397 0 0 0 7.686-8.81z" fill="#ba8570"></path><path d="M512 233.185c0 82.581-44.703 159.927-184.73 141.793-77.196-9.997-102.773-97.68-165.971-89.96C57.085 297.749 0 261.945 0 219.713 0 147.309 114.615 83.659 256 83.659s256 66.945 256 149.526z" fill="#f3e8d6"></path><path d="M256 83.659c-9.526 0-18.925.298-28.181.859 128.459 8.01 228.517 71.51 228.517 148.667 0 67.955-30.285 132.352-119.032 142.932C469.428 389.329 512 313.757 512 233.185c0-82.581-114.615-149.526-256-149.526z" fill="#d8cab8"></path><path d="M366.343 344.759c-10.859 0-22.585-.805-34.85-2.393-27.451-3.555-47.518-22.174-68.764-41.885-24.667-22.887-52.626-48.827-93.648-48.827-3.881 0-7.841.244-11.77.724-12.85 1.57-25.257 2.365-36.875 2.365-30.329.001-56.033-5.505-72.379-15.5-5.667-3.465-15.173-10.611-15.173-19.529 0-22.004 21.568-46.763 57.696-66.229 43.567-23.476 103.861-36.941 165.42-36.941 62.641 0 121.038 13.959 164.434 39.306 21.916 12.8 58.682 39.869 58.682 77.335 0 23.056-4.164 55.45-23.998 78.846-18.411 21.716-48.28 32.728-88.775 32.728z" fill="#aa4035"></path><path d="M420.434 155.85C377.038 130.503 318.641 116.544 256 116.544c-9.147 0-18.264.304-27.304.888 52.277 3.424 100.317 16.76 137.399 38.419 21.916 12.8 58.682 39.869 58.682 77.335 0 23.056-4.164 55.45-23.998 78.846-14.279 16.843-35.455 27.242-63.132 31.063 10.036 1.1 19.668 1.665 28.696 1.665 40.496 0 70.364-11.011 88.775-32.728 19.834-23.397 23.998-55.791 23.998-78.846 0-37.467-36.767-64.536-58.682-77.336z" fill="#99322c"></path><circle cx="123.76" cy="199.95" fill="#f3e8d6" r="28.538"></circle></g></svg>