<svg viewBox="0 0 64 64" xmlns="http://www.w3.org/2000/svg"><g><path d="M25.121 49.879 17.243 42H22a2 2 0 0 0 2-2v-6a2 2 0 1 0-4 0v2H10a3.001 3.001 0 0 0-2.121 5.122l13 13c.585.585 1.353.878 2.121.878s1.536-.293 2.121-.879a2.998 2.998 0 0 0 0-4.242zM56.771 37.852A2.998 2.998 0 0 0 54 36H44v-2a2 2 0 1 0-4 0v6a2 2 0 0 0 2 2h4.757l-7.878 7.879A2.998 2.998 0 0 0 41 55c.768 0 1.536-.293 2.121-.879l13-13a2.998 2.998 0 0 0 .65-3.269z" fill="#f0c8a0"></path><path d="m13.872 47.118 4.242-4.24 6.998 6.998-4.241 4.24zM38.87 49.879l6.998-6.999 4.241 4.241-6.998 6.999z" fill="#0082aa"></path><path d="M36 26h-8a4 4 0 0 0-4 4v6h16v-6a4 4 0 0 0-4-4z" fill="#c80a50"></path><path d="M44 60V48a2 2 0 0 0-2-2H22a2 2 0 0 0-2 2v12z" fill="#00a0c8"></path><path d="M38 46H26a6 6 0 1 0 12 0z" fill="#0082aa"></path><path d="M32 50a4 4 0 0 1-4-4v-4h8v4a4 4 0 0 1-4 4z" fill="#d2aa82"></path><path d="M36 30h-8a2 2 0 0 0-2 2v2a2 2 0 0 1-2 2v4a6 6 0 0 0 6 6h4a6 6 0 0 0 6-6v-4a2 2 0 0 1-2-2v-2a2 2 0 0 0-2-2z" fill="#f0c8a0"></path><path d="M39 24h-9a4 4 0 0 0-4 4v2h9a5 5 0 0 0 5-5 1 1 0 0 0-1-1z" fill="#c80a50"></path><path d="M40 34v6c0 .648.309 1.224.787 1.59.139-.507.213-1.04.213-1.59v-7.732c-.598.346-1 .992-1 1.732zM24 40v-6c0-.74-.402-1.386-1-1.732V40c0 .55.074 1.083.213 1.59.478-.366.787-.942.787-1.59z" fill="#d2aa82"></path><path d="M34 43a.997.997 0 0 1-.707-.293c-.942-.941-1.644-.941-2.586 0a.999.999 0 1 1-1.414-1.414c1.721-1.721 3.693-1.721 5.414 0A.999.999 0 0 1 34 43z" fill="#0a5078"></path><path d="M9 18.001h2.382l-3.276-6.553a1 1 0 0 1 1.602-1.154l8 8a1 1 0 0 1-.707 1.707h-2.382l3.276 6.553a1 1 0 0 1-1.602 1.154l-8-8A1 1 0 0 1 9 18.001zM55 18.001h-2.382l3.276-6.553a1 1 0 0 0-1.602-1.154l-8 8a1 1 0 0 0 .707 1.707h2.382l-3.276 6.553a1 1 0 0 0 1.602 1.154l8-8A1 1 0 0 0 55 18.001z" fill="#fab400"></path><path d="M40 4H24c-2.206 0-4 1.794-4 4v6c0 2.206 1.794 4 4 4h4.5l2.7 3.6a.998.998 0 0 0 1.6 0l2.7-3.6H40c2.206 0 4-1.794 4-4V8c0-2.206-1.794-4-4-4z" fill="#0a5078"></path><path d="M38.408 8.2A3.507 3.507 0 0 0 35 5.5c-1.394 0-2.601.82-3.163 2.003-.298.011-.589.05-.87.116A4.484 4.484 0 0 0 28 6.5c-2.481 0-4.5 2.019-4.5 4.5a4.505 4.505 0 0 0 5.533 4.38A4.48 4.48 0 0 0 32 16.5c.718 0 1.397-.169 2-.47.603.3 1.282.47 2 .47 2.481 0 4.5-2.019 4.5-4.5a4.502 4.502 0 0 0-2.092-3.8zM35 6.5a2.5 2.5 0 0 1 2.093 1.134A4.525 4.525 0 0 0 36 7.5c-.718 0-1.397.169-2 .47a4.447 4.447 0 0 0-1.068-.372A2.496 2.496 0 0 1 35 6.5zM37.5 9c0 .859-.435 1.618-1.097 2.068a4.502 4.502 0 0 0-1.405-2.422 3.489 3.489 0 0 1 2.496.189c.004.055.006.11.006.165zM34 14.87a3.498 3.498 0 0 1-1.462-3.385 3.49 3.49 0 0 0 2.931.984A3.505 3.505 0 0 1 34 14.87zm-4.684-.627A3.483 3.483 0 0 1 28.5 12c0-1.465.905-2.722 2.184-3.243.509.608.816 1.39.816 2.243a3.506 3.506 0 0 1-2.184 3.243zm3.19-5.076a2.477 2.477 0 0 1 .037-.625c.157.025.31.06.46.104a4.704 4.704 0 0 0-.497.521zM35 11.5a2.499 2.499 0 0 1-2.093-1.136A3.516 3.516 0 0 1 34 9.13a3.505 3.505 0 0 1 1.458 2.328A2.567 2.567 0 0 1 35 11.5zM24.5 11c0-1.93 1.57-3.5 3.5-3.5.685 0 1.325.198 1.865.54A4.503 4.503 0 0 0 27.5 12c0 .92.278 1.777.754 2.491A3.504 3.504 0 0 1 24.5 11zm7.5 4.5a3.475 3.475 0 0 1-1.865-.54 4.523 4.523 0 0 0 1.616-1.478 4.515 4.515 0 0 0 1.251 1.871A3.455 3.455 0 0 1 32 15.5zm4 0c-.348 0-.685-.051-1.003-.147a4.489 4.489 0 0 0 1.499-3.19 3.508 3.508 0 0 0 1.965-2.648A3.484 3.484 0 0 1 39.5 12c0 1.93-1.57 3.5-3.5 3.5z" fill="#fab400"></path></g></svg>