<svg viewBox="0 0 512 512" xmlns="http://www.w3.org/2000/svg"><g><g><path d="M256 440a8 8 0 0 1-8-8v-88a8 8 0 0 1 16 0v88a8 8 0 0 1-8 8z" fill="#3fa896"></path><path d="M256 356.422c-36.378 41.835-101.938 35.114-104.883 34.787-5.48-.608-9.742-6.842-5.012-13.426 7.751-10.788 26.639-33.558 56.726-48.345a283.209 283.209 0 0 1-117.2-61.251c-.786-.689-1.667-1.462-2.04-1.765-6.836-4.507-3.228-15.229 4.968-14.657 7.335.516 56.449 4.276 92.47 14.677-22.551-29.648-54.88-79.309-59.578-131.353a8.006 8.006 0 0 1 12.132-7.55c14.789 9.016 56.81 45.167 95.388 113A454.3 454.3 0 0 1 247.148 97.3c.4-1.363.817-2.769.952-3.305 1.421-8.946 14.38-8.94 15.8 0 3.2 12.733 21.745 67.136 19.127 146.545 38.58-67.846 80.6-103.987 95.389-113a8.006 8.006 0 0 1 12.131 7.55c-4.7 52.044-37.027 101.705-59.578 131.352 36.021-10.4 85.135-14.16 92.47-14.676 8.194-.584 11.8 10.157 4.967 14.658-.373.3-1.254 1.076-2.04 1.766a283.217 283.217 0 0 1-117.2 61.249c22.73 11.171 42.526 28.678 57 48.727a8 8 0 0 1-5.287 13.044c-34.788 3.85-79.979-6.145-104.879-34.788z" fill="#5fc4b8"></path><path d="M423.439 251.765c-7.335.516-56.449 4.276-92.47 14.676 22.551-29.647 54.88-79.308 59.578-131.352a7.834 7.834 0 0 0-1.889-5.9A345.021 345.021 0 0 1 196.257 332.9a159.215 159.215 0 0 0-50.157 44.883c-4.73 6.584-.468 12.818 5.012 13.426 2.945.327 68.505 7.048 104.883-34.787 24.9 28.643 70.091 38.638 104.883 34.787a8 8 0 0 0 5.287-13.044c-14.475-20.049-34.271-37.556-57-48.727a283.217 283.217 0 0 0 117.2-61.249c.786-.69 1.667-1.463 2.04-1.766 6.832-4.501 3.228-15.242-4.966-14.658z" fill="#50b5a6"></path><path d="M437.02 74.98c-100.047-100.044-261.981-100.056-362.04 0s-100.056 261.981 0 362.04 261.981 100.056 362.04 0 100.056-261.981 0-362.04zM395.811 431A223.992 223.992 0 0 1 81 116.189a8 8 0 0 1 11.9-.66L396.471 419.1a8 8 0 0 1-.66 11.9zM431 395.811a8 8 0 0 1-11.9.66L115.529 92.9a8 8 0 0 1 .66-11.9C262.093-35.716 480 68.475 480 256a221.577 221.577 0 0 1-49 139.811z" fill="#e56161"></path><g fill="#97e5de"><circle cx="204" cy="276" fill="#97e5de" r="12"></circle><circle cx="232" cy="296" fill="#97e5de" r="8"></circle></g></g></g></svg>