<svg id="Flat" height="512" viewBox="0 0 64 64" width="512" xmlns="http://www.w3.org/2000/svg"><path d="m3 21h58a0 0 0 0 1 0 0v38a2 2 0 0 1 -2 2h-54a2 2 0 0 1 -2-2v-38a0 0 0 0 1 0 0z" fill="#fafaff"/><path d="m6 21h55a0 0 0 0 1 0 0v38a2 2 0 0 1 -2 2h-51a2 2 0 0 1 -2-2v-38a0 0 0 0 1 0 0z" fill="#f3f3ff"/><path d="m3 21h58v2.5h-58z" fill="#f3f3ff"/><path d="m6 21h55v2.5h-55z" fill="#e6e6ff"/><rect fill="#fb7d8c" height="12" rx="2" width="62" x="1" y="9"/><path d="m6 11.5a2 2 0 0 0 -2 2v7.5h57a2 2 0 0 0 2-2v-7.5z" fill="#fa5a69"/><g fill="#5a5a63"><path d="m32 2.25a2.752 2.752 0 0 0 -2.75 2.75v4h1.5v-4a1.25 1.25 0 0 1 2.5 0v8a1.252 1.252 0 0 1 -1.25 1.25.75.75 0 0 0 0 1.5 2.752 2.752 0 0 0 2.75-2.75v-8a2.752 2.752 0 0 0 -2.75-2.75z"/><path d="m56 2.25a2.752 2.752 0 0 0 -2.75 2.75v4h1.5v-4a1.25 1.25 0 0 1 2.5 0v8a1.252 1.252 0 0 1 -1.25 1.25.75.75 0 0 0 0 1.5 2.752 2.752 0 0 0 2.75-2.75v-8a2.752 2.752 0 0 0 -2.75-2.75z"/><path d="m44 2.25a2.752 2.752 0 0 0 -2.75 2.75v4h1.5v-4a1.25 1.25 0 0 1 2.5 0v8a1.252 1.252 0 0 1 -1.25 1.25.75.75 0 0 0 0 1.5 2.752 2.752 0 0 0 2.75-2.75v-8a2.752 2.752 0 0 0 -2.75-2.75z"/><path d="m8 2.25a2.752 2.752 0 0 0 -2.75 2.75v4h1.5v-4a1.25 1.25 0 0 1 2.5 0v8a1.252 1.252 0 0 1 -1.25 1.25.75.75 0 0 0 0 1.5 2.752 2.752 0 0 0 2.75-2.75v-8a2.752 2.752 0 0 0 -2.75-2.75z"/><path d="m20 2.25a2.752 2.752 0 0 0 -2.75 2.75v4h1.5v-4a1.25 1.25 0 0 1 2.5 0v8a1.252 1.252 0 0 1 -1.25 1.25.75.75 0 0 0 0 1.5 2.752 2.752 0 0 0 2.75-2.75v-8a2.752 2.752 0 0 0 -2.75-2.75z"/></g><path d="m21 34a1.5 1.5 0 0 0 0-3h-8a1.5 1.5 0 0 0 -1.5 1.5v16a1.5 1.5 0 0 0 3 0v-6.5h5.5a1.5 1.5 0 0 0 0-3h-5.5v-5z" fill="#6b6b73"/><path d="m14.5 48.5v-6.5h5.5a1.5 1.5 0 0 0 0-3h-5.5v-5h6.5a1.5 1.5 0 0 0 1.5-1.5h-8a1.5 1.5 0 0 0 -1.5 1.5v16a1.5 1.5 0 0 0 1.5-1.5z" fill="#5a5a63"/><path d="m36 47h-6.5v-5h5.5a1.5 1.5 0 0 0 0-3h-5.5v-5h6.5a1.5 1.5 0 0 0 0-3h-8a1.5 1.5 0 0 0 -1.5 1.5v16a1.5 1.5 0 0 0 1.5 1.5h8a1.5 1.5 0 0 0 0-3z" fill="#6b6b73"/><path d="m37.5 48.5a1.5 1.5 0 0 0 -1.5-1.5h-6.5v-5h5.5a1.5 1.5 0 0 0 0-3h-5.5v-5h6.5a1.5 1.5 0 0 0 1.5-1.5h-8a1.5 1.5 0 0 0 -1.5 1.5v16h8a1.5 1.5 0 0 0 1.5-1.5z" fill="#5a5a63"/><path d="m50.763 40.5a5.492 5.492 0 0 0 -3.763-9.5h-4a1.5 1.5 0 0 0 -1.5 1.5v16a1.5 1.5 0 0 0 1.5 1.5h4a5.492 5.492 0 0 0 3.763-9.5zm-6.263-6.5h2.5a2.5 2.5 0 0 1 0 5h-2.5zm2.5 13h-2.5v-5h2.5a2.5 2.5 0 0 1 0 5z" fill="#6b6b73"/><path d="m52.5 44.5a5.477 5.477 0 0 0 -1.737-4 5.48 5.48 0 0 0 .8-7.064 5.465 5.465 0 0 0 -3.063-.936h-4a1.5 1.5 0 0 0 -1.5 1.5v16h4a5.506 5.506 0 0 0 5.5-5.5zm-8-10.5h2.5a2.5 2.5 0 0 1 0 5h-2.5zm0 8h2.5a2.5 2.5 0 0 1 0 5h-2.5z" fill="#5a5a63"/></svg>