<svg viewBox="0 0 512 512" xmlns="http://www.w3.org/2000/svg"><g><path d="M125.698 49.074a7.5 7.5 0 0 0-13.274 0L33.883 198.31h16.95l68.228-129.639L187.29 198.31h16.95z" fill="#e8b800"></path><path d="M111.561 35.34h15v162.97h-15z" fill="#fac600"></path><path d="M402.015 49.074a7.5 7.5 0 0 0-13.274 0L310.199 198.31h16.95l68.229-129.639 68.228 129.639h16.95z" fill="#e8b800"></path><path d="M387.878 35.34h15v162.97h-15z" fill="#fac600"></path><path d="m26.8 202.353 20.188 34.966A3.364 3.364 0 0 0 49.9 239h138.323a3.364 3.364 0 0 0 2.912-1.681l20.188-34.966c1.294-2.241-.324-5.043-2.912-5.043H29.712c-2.588-.001-4.206 2.801-2.912 5.043z" fill="#ca6e59"></path><path d="m94.487 237.319-20.188-34.966c-1.294-2.241.323-5.043 2.912-5.043H29.712c-2.588 0-4.206 2.802-2.912 5.043l20.188 34.966A3.364 3.364 0 0 0 49.9 239h47.499a3.361 3.361 0 0 1-2.912-1.681z" fill="#bb5d4c"></path><path d="m303.117 202.353 20.188 34.966a3.364 3.364 0 0 0 2.912 1.681H464.54a3.364 3.364 0 0 0 2.912-1.681l20.188-34.966c1.294-2.241-.324-5.043-2.912-5.043H306.029c-2.588-.001-4.206 2.801-2.912 5.043z" fill="#ca6e59"></path><path d="m376.672 237.319-20.188-34.966c-1.294-2.241.323-5.043 2.912-5.043h-53.367c-2.588 0-4.206 2.802-2.912 5.043l20.188 34.966a3.364 3.364 0 0 0 2.912 1.681h53.367a3.361 3.361 0 0 1-2.912-1.681z" fill="#bb5d4c"></path><path d="M249.72 55.646v43.863h15V55.646c-2.388.669-4.901 1.035-7.5 1.035s-5.112-.367-7.5-1.035z" fill="#883f2e"></path><path d="M277.858 293.556V103.66a5.15 5.15 0 0 0-5.151-5.151h-30.974a5.15 5.15 0 0 0-5.151 5.151v189.896z" fill="#bb5d4c"></path><path d="M254.06 293.556V103.659a5.15 5.15 0 0 1 5.151-5.151h-17.479a5.15 5.15 0 0 0-5.151 5.151v189.896h17.479z" fill="#a44f3e"></path><g fill="#bb5d4c"><path d="M432.026 21.34H284.025c.669 2.388 1.035 4.901 1.035 7.5s-.366 5.112-1.035 7.5h148.001a7.5 7.5 0 0 0 0-15zM229.38 28.84c0-2.599.366-5.112 1.035-7.5H82.414a7.5 7.5 0 0 0 0 15h148.001a27.72 27.72 0 0 1-1.035-7.5z" fill="#bb5d4c"></path></g><circle cx="257.22" cy="28.84" fill="#883f2e" r="28.84"></circle><path d="M254.139 28.84c0-11.298 6.5-21.072 15.96-25.803A28.697 28.697 0 0 0 257.22 0c-15.928 0-28.84 12.912-28.84 28.84s12.912 28.84 28.84 28.84c4.63 0 9.002-1.097 12.88-3.037-9.461-4.731-15.961-14.505-15.961-25.803z" fill="#6d3326"></path><path d="M305.375 337.825v-24.666c0-11.379-9.225-20.604-20.604-20.604h-55.103c-11.379 0-20.604 9.225-20.604 20.604v24.666z" fill="#883f2e"></path><path d="M243.827 337.825v-24.666c0-11.379 9.225-20.604 20.604-20.604h-34.763c-11.379 0-20.604 9.224-20.604 20.604v24.666z" fill="#6d3326"></path><path d="M344.608 376.218v-21.736c0-9.752-7.905-17.657-17.657-17.657H187.489c-9.752 0-17.657 7.905-17.657 17.657v21.736z" fill="#bb5d4c"></path><path d="M213.277 376.218v-21.736c0-9.752 7.905-17.657 17.657-17.657h-43.445c-9.752 0-17.657 7.905-17.657 17.657v21.736z" fill="#a44f3e"></path><path d="M74.542 462.519v-52.283c0-14.622 11.896-26.517 26.517-26.517v-1h-39.9c-29.635 0-53.659 24.024-53.659 53.659s24.024 53.659 53.659 53.659h39.9v-1c-14.622-.001-26.517-11.897-26.517-26.518z" fill="#3675bb"></path><path d="M73.542 410.236v52.283c0 15.197 12.32 27.517 27.517 27.517H483.55V382.718H101.059c-15.198 0-27.517 12.32-27.517 27.518z" fill="#fff3de"></path><path d="M127.119 464.275c-15.197 0-27.517-12.32-27.517-27.517v-52.283c0-.579.024-1.152.059-1.722-14.548.728-26.12 12.753-26.12 27.482v52.283c0 15.197 12.32 27.517 27.517 27.517H483.55v-25.76z" fill="#ffe5c2"></path><g fill="#f6a96c"><path d="M483.55 409.615H308.815a7.5 7.5 0 0 0 0 15H483.55zM483.55 448.139H308.815a7.5 7.5 0 0 0 0 15H483.55z" fill="#f6a96c"></path></g><g fill="#2263aa"><path d="M61.933 390.218H504.5a7.5 7.5 0 0 0 0-15H62.087c-33.562 0-61.568 26.651-62.08 60.209-.521 34.156 27.112 62.108 61.151 62.108h52.052v-15H61.159c-25.749 0-46.641-21.192-46.15-47.05.479-25.271 21.649-45.267 46.924-45.267z" fill="#2263aa"></path><path d="M167.477 482.536v15H504.5a7.5 7.5 0 0 0 0-15z" fill="#2263aa"></path></g><path d="M112.211 423.615v85.289c0 2.493 2.799 3.96 4.849 2.541l23.283-16.113 23.283 16.113c2.05 1.419 4.849-.048 4.849-2.541v-85.289z" fill="#fb2b3a"></path><path d="M112.211 423.615v85.289c0 2.493 2.799 3.96 4.849 2.541l21.053-14.57v-73.261h-25.902z" fill="#e41f2d"></path><path d="M241.397 424.615H101.059a7.5 7.5 0 0 1 0-15h140.338a7.5 7.5 0 0 1 0 15z" fill="#f6a96c"></path></g></svg>