<svg viewBox="0 0 497 497" xmlns="http://www.w3.org/2000/svg"><g><path d="M484.223 416.75H10.862a5 5 0 0 1-5-5L4.223 92.761a5 5 0 0 1 5-5L17 82.25h475a5 5 0 0 1 5 5v318l-7.777 6.5a5 5 0 0 1-5 5z" fill="#c48958"></path><path d="M497 405.25v12a5 5 0 0 1-5 5H5a5 5 0 0 1-5-5v-330a5 5 0 0 1 5-5h12v318a5 5 0 0 0 5 5z" fill="#b27a49"></path><path d="M266 427.25h-35a5 5 0 0 1-5-5v-30h45v30a5 5 0 0 1-5 5z" fill="#b27a49"></path><path d="M453.074 386.25 248.5 387.516 232.479 259.75l18.133-169.489c0-11.91 4.829-30.21 14.886-35.055A29.874 29.874 0 0 1 278.5 52.25H462a5 5 0 0 1 5 5v318l-8.926 6a5 5 0 0 1-5 5z" fill="#faf8f8"></path><path d="M467 375.25v12a5 5 0 0 1-5 5H248.5l-16.021-149.489L248.5 82.25c0-11.91 6.94-22.2 17-27.04v316.04a4 4 0 0 0 4 4z" fill="#f0e9e6"></path><path d="M248.5 387.516 39.287 388.75a5 5 0 0 1-5-5L32.819 61.899a5 5 0 0 1 5-5L47 52.25h171.5c16.569 0 30 13.431 30 30z" fill="#faf8f8"></path><path d="M265.5 375.25v17H35a5 5 0 0 1-5-5v-330a5 5 0 0 1 5-5h12v319a4 4 0 0 0 4 4z" fill="#f0e9e6"></path><path d="M157.694 100.261H80c-4.142 0-7.5-3.357-7.5-7.5s3.358-7.5 7.5-7.5h77.694c4.142 0 7.5 3.357 7.5 7.5s-3.358 7.5-7.5 7.5zM192.166 132.761H60c-4.142 0-7.5-3.357-7.5-7.5s3.358-7.5 7.5-7.5h132.166c4.142 0 7.5 3.357 7.5 7.5s-3.358 7.5-7.5 7.5zM436.873 100.261H298.5c-4.142 0-7.5-3.357-7.5-7.5s3.358-7.5 7.5-7.5h138.373c4.142 0 7.5 3.357 7.5 7.5s-3.358 7.5-7.5 7.5zM436.873 132.761H278.627c-4.142 0-7.5-3.357-7.5-7.5s3.358-7.5 7.5-7.5h158.245c4.142 0 7.5 3.357 7.5 7.5s-3.357 7.5-7.499 7.5zM436.873 165.261h-53.895c-4.142 0-7.5-3.357-7.5-7.5s3.358-7.5 7.5-7.5h53.895c4.142 0 7.5 3.357 7.5 7.5s-3.358 7.5-7.5 7.5zM347.978 165.261h-69.35c-4.142 0-7.5-3.357-7.5-7.5s3.358-7.5 7.5-7.5h69.35c4.142 0 7.5 3.357 7.5 7.5s-3.358 7.5-7.5 7.5zM436.873 197.761H278.627c-4.142 0-7.5-3.357-7.5-7.5s3.358-7.5 7.5-7.5h158.245c4.142 0 7.5 3.357 7.5 7.5s-3.357 7.5-7.499 7.5zM218.245 327.761H60c-4.142 0-7.5-3.357-7.5-7.5s3.358-7.5 7.5-7.5h158.245c4.142 0 7.5 3.357 7.5 7.5s-3.358 7.5-7.5 7.5zM104.924 360.261H60c-4.142 0-7.5-3.357-7.5-7.5s3.358-7.5 7.5-7.5h44.924c4.142 0 7.5 3.357 7.5 7.5s-3.358 7.5-7.5 7.5zM218.245 295.261h-49.511c-4.142 0-7.5-3.357-7.5-7.5s3.358-7.5 7.5-7.5h49.511c4.142 0 7.5 3.357 7.5 7.5s-3.358 7.5-7.5 7.5zM133.755 295.261H60c-4.142 0-7.5-3.357-7.5-7.5s3.358-7.5 7.5-7.5h73.755c4.142 0 7.5 3.357 7.5 7.5s-3.358 7.5-7.5 7.5zM374.193 230.261H278.5c-4.142 0-7.5-3.357-7.5-7.5s3.358-7.5 7.5-7.5h95.693c4.142 0 7.5 3.357 7.5 7.5s-3.358 7.5-7.5 7.5zM437 262.761H298.5c-4.142 0-7.5-3.357-7.5-7.5s3.358-7.5 7.5-7.5H437c4.142 0 7.5 3.357 7.5 7.5s-3.358 7.5-7.5 7.5zM437 327.761h-35.678c-4.142 0-7.5-3.357-7.5-7.5s3.358-7.5 7.5-7.5H437c4.142 0 7.5 3.357 7.5 7.5s-3.358 7.5-7.5 7.5z" fill="#aad8de"></path><path d="m335.866 323.013 78.777 70.26c12.643 11.276 13.202 30.864 1.223 42.843a29.5 29.5 0 0 1-6.848 5.11c-11.685 6.31-23.732-4.455-33.05-14.902l-71.026-72.388zM335.405 323.06l-27.475-22.32-32.515-15.054-15.844 16.745 27.054 17.213 16.185 36.011z" fill="#5d748a"></path><path d="M409.02 441.23a29.487 29.487 0 0 1-13.99 3.52c-8.09 0-16.17-3.31-22.01-9.86l-70.26-78.77 13-13 80.34 87.41c3.87 4.34 8.29 8.1 12.92 10.7zM296.649 313.799a145.988 145.988 0 0 0 11.281-13.059l-25.75-20.92-9.61 9.61-13 13 43.193 53.686 12.997-12.996-19.344-24.047a3.986 3.986 0 0 1 .233-5.274z" fill="#3f597d"></path><circle cx="192.166" cy="212.416" fill="#f0e9e6" r="107.845"></circle><path d="m347.821 334.961-20.61 20.61-14.52 8.37c-5.077 5.077-10.126 5.97-15.203.894l-3.946-1.02c-5.077-5.077-5.077-13.308 0-18.385l10.736-16.582 18.715-18.715c5.077-5.077 13.308-5.077 18.385 0l6.443 6.443c5.077 5.077 5.077 13.308 0 18.385z" fill="#ffbf54"></path><path d="M327.21 355.57 314.78 368c-.26.26-.52.5-.79.71-5.11 4.36-12.78 4.11-17.6-.71l-6.44-6.44c-5.08-5.07-5.08-13.31 0-18.38l14.33-14.33 11.48 14.27z" fill="#ffa442"></path><path d="M295.681 241.057h-96.057c-4.142 0-7.5-3.357-7.5-7.5s3.358-7.5 7.5-7.5h96.057c4.142 0 7.5 3.357 7.5 7.5s-3.358 7.5-7.5 7.5zM164.624 241.057h-76.81c-4.142 0-7.5-3.357-7.5-7.5s3.358-7.5 7.5-7.5h76.81c4.142 0 7.5 3.357 7.5 7.5s-3.358 7.5-7.5 7.5zM279.125 156.495H106.729c-4.142 0-7.5-3.357-7.5-7.5s3.358-7.5 7.5-7.5h172.396c4.142 0 7.5 3.357 7.5 7.5s-3.357 7.5-7.5 7.5zM302.763 198.775H80.751c-4.142 0-7.5-3.357-7.5-7.5s3.358-7.5 7.5-7.5h222.012c4.142 0 7.5 3.357 7.5 7.5s-3.358 7.5-7.5 7.5zM279.125 283.337H105.548c-4.142 0-7.5-3.357-7.5-7.5s3.358-7.5 7.5-7.5h173.578a7.5 7.5 0 1 1-.001 15z" fill="#94ccd4"></path><path d="M192.17 84.75c-33.808 0-64.588 13.207-87.451 34.734-24.746 23.299-34.793 56.344-34.793 92.936 0 70.39 53.164 123.522 123.564 123.522 21.55 0 37.676-2.616 55.5-12.085 11.584-6.154 24.989-12.654 34.116-21.925 22.7-23.057 36.725-54.678 36.725-89.512-.001-70.4-57.271-127.67-127.661-127.67zm0 226.46c-54.56 0-98.79-44.23-98.79-98.79s44.23-98.79 98.79-98.79 98.79 44.23 98.79 98.79-44.23 98.79-98.79 98.79z" fill="#5d748a"></path><path d="M284.99 299.98c-23.29 24.68-56.29 40.1-92.82 40.1-70.4 0-127.67-57.27-127.67-127.66 0-40.23 18.7-76.18 47.88-99.59-21.61 22.87-34.88 53.71-34.88 87.59 0 70.39 57.27 127.66 127.67 127.66 30.17 0 57.94-10.53 79.82-28.1z" fill="#3f597d"></path></g></svg>