<svg viewBox="0 0 33.867 33.867" xmlns="http://www.w3.org/2000/svg"><g><g paint-order="markers fill stroke"><g stroke-linecap="square"><path d="M16.933 23.378c-10.47 0-13.229 4.217-13.229 8.062 0 .836.464 1.37 1.321 1.37h23.817c.857 0 1.32-.534 1.32-1.37 0-3.845-2.758-8.062-13.229-8.062z" fill="#c1466c"></path><path d="M15.977 25.963s-1.025 3.407-2.58 2.877c-1.554-.529-1.572-5.124-.595-5.688 2.55-1.472 3.175 2.811 3.175 2.811zM17.89 25.963s1.025 3.407 2.579 2.877c1.554-.529 1.573-5.124.595-5.688-2.549-1.472-3.175 2.811-3.175 2.811z" fill="#ffffff"></path><path d="M16.933 18.758c1.2 0 1.98.98 2.166 2.166l.499 3.178c.186 1.185-.437 2.664-2.665 2.664s-2.85-1.479-2.664-2.664l.499-3.178c.186-1.186.966-2.166 2.165-2.166z" fill="#f6a3b7"></path></g><path d="M25.58 10.479c-.837-.204-1.681.267-1.904 1.1l-.653 2.437a1.551 1.551 0 0 0 1.099 1.904c.832.222 1.518-.33 1.904-1.1.96-1.919.4-4.135-.446-4.341zM8.488 10.479c.837-.204 1.68.267 1.904 1.1l.653 2.437a1.551 1.551 0 0 1-1.1 1.904c-.831.222-1.518-.33-1.903-1.1-.96-1.919-.4-4.135.446-4.341z" fill="#f6bbb7"></path><path d="M24.262 7.64v9.582c0 3.14-1.645 6.336-7.329 6.336-5.683 0-7.329-3.227-7.329-6.336V7.64c0-6.907 14.658-6.907 14.658 0z" fill="#f6bbb7"></path><path d="M15.53 1.057c-4.643 0-8.34 1.685-9.173 3.37-.312.63.26 1.312 1.336 1.9-.764.992-1.232 2.398-1.232 3.776 0 2.659 1.62 2.691 3.16 3.004v2.106c0 .716.799.84 1.512.016 1.907-2.083 1.14-4.488 1.14-4.488s-.266-1.647-.773-3.172c1.304.238 2.706.344 4.03.24 2.006-.159 3.47-.84 4.482-1.55.236.752.78 1.811 2.042 2.592-.263 1.04-.4 1.89-.4 1.89s-.767 2.405 1.14 4.488c.713.824 1.513.7 1.513-.016v-2.106c1.538-.313 3.16-.345 3.16-3.004 0-2.032-1.018-4.126-2.504-4.856-.175-1.17-.775-2.14-1.945-2.159-.316-.005-.674.062-1.075.21-.562-1.128-2.96-2.24-6.413-2.24zM15.916 18.522a1.306 2.166 60 0 1-2.529-.048 1.306 2.166 60 0 1 1.223-2.215 1.306 2.166 60 0 1 2.53.048 1.306 2.166 60 0 1-1.224 2.215z" fill="#59586e"></path><path d="M17.95 18.522a2.166 1.306 30 0 0 2.53-.048 2.166 1.306 30 0 0-1.223-2.215 2.166 1.306 30 0 0-2.53.048 2.166 1.306 30 0 0 1.223 2.215z" fill="#59586e"></path></g></g></svg>