<svg viewBox="0 0 512 512" xmlns="http://www.w3.org/2000/svg"><g><g clip-rule="evenodd" fill-rule="evenodd"><path d="M159.937 478.042H16v-31.98l160.037-170.906h143.937v31.98z" fill="#65788e"></path><path d="M71.979 446.062v-58.053h-1.617L16 446.062z" fill="#7789a4"></path><path d="M159.937 478.042v-31.98l160.037-170.906v31.98L159.937 478.042z" fill="#8192a5"></path><path d="M263.995 275.156 103.958 446.062h55.979l160.037-170.906h-55.979z" fill="#9facba"></path><path d="M159.937 388.009H16V356.03l160.037-170.906 143.937-.671v32.65z" fill="#9facba"></path><path d="M319.974 184.453v32.65L159.937 388.009V356.03l160.037-171.577z" fill="#8192a5"></path><g fill="#8d9ca8"><path d="M71.979 384.3h31.979v77.752H71.979z" fill="#8d9ca8"></path><path d="M16 446.062h143.937v31.979H16zM16 356.03h143.937v31.979H16z" fill="#8d9ca8"></path></g><path d="M335.962 478.042H192.026v-31.98l160.037-170.906H496v31.98z" fill="#65788e"></path><path d="M248.004 446.062v-58.053h-1.618l-54.361 58.053z" fill="#7789a4"></path><path d="M335.962 478.042v-31.98L496 275.156v31.98a60153277.342 60153277.342 0 0 0-160.038 170.906z" fill="#8192a5"></path><path d="M440.021 275.156 279.984 446.062h55.979L496 275.156h-55.979z" fill="#9facba"></path><path d="M335.962 388.009H192.026V356.03l160.037-170.906L496 184.453v32.65z" fill="#9facba"></path><path d="M496 184.453v32.65L335.962 388.009V356.03L496 184.453z" fill="#8192a5"></path><g fill="#8d9ca8"><path d="M248.004 384.3h31.979v77.752h-31.979z" fill="#8d9ca8"></path><path d="M192.026 446.062h143.937v31.979H192.026zM192.026 356.03h143.937v31.979H192.026z" fill="#8d9ca8"></path></g><path d="M263.301 327.547H119.364v-31.98l160.037-170.906h143.937v31.98z" fill="#65788e"></path><path d="M175.343 295.568v-58.053h-1.617l-54.361 58.053z" fill="#7789a4"></path><path d="M263.301 327.547v-31.98l160.037-170.906v31.98L263.301 327.547z" fill="#8192a5"></path><path d="M367.359 124.661 207.322 295.567h55.979l160.037-170.906h-55.979z" fill="#9facba"></path><path d="M263.301 237.514H119.364v-31.979L279.401 34.63l143.937-.672v32.65z" fill="#9facba"></path><path d="M423.338 33.958v32.65L263.301 237.514v-31.979L423.338 33.958z" fill="#8192a5"></path><g fill="#8d9ca8"><path d="M175.343 233.805h31.979v77.752h-31.979z" fill="#8d9ca8"></path><path d="M119.364 295.568h143.937v31.979H119.364zM119.364 205.535h143.937v31.979H119.364z" fill="#8d9ca8"></path></g></g></g></svg>