<svg viewBox="0 0 58 58" xmlns="http://www.w3.org/2000/svg"><g><g fill="none" fill-rule="nonzero"><path d="M58 5v49a1 1 0 0 1-1 1H36.5c-.828 0-1.5.672-1.5 1.5s-.672 1.5-1.5 1.5h-9c-.828 0-1.5-.672-1.5-1.5s-.672-1.5-1.5-1.5H1a1 1 0 0 1-1-1V5a1 1 0 0 1 1-1h56a1 1 0 0 1 1 1z" fill="#cb8252"></path><path d="M56 4v46a3.009 3.009 0 0 1-3 3H5a3.009 3.009 0 0 1-3-3V4z" fill="#a56a43"></path><path d="M29 4v47H5a1 1 0 0 1-1-1V1a1 1 0 0 1 1-1h20a4 4 0 0 1 4 4z" fill="#d1d4d1"></path><path d="M27 4v47H5a1 1 0 0 1-1-1V1a1 1 0 0 1 1-1h18a4 4 0 0 1 4 4z" fill="#ecf0f1"></path><path d="M54 1v49a1 1 0 0 1-1 1H29V4a4 4 0 0 1 4-4h20a1 1 0 0 1 1 1z" fill="#d1d4d1"></path><path d="M54 1v49a1 1 0 0 1-1 1H31V4a4 4 0 0 1 4-4h18a1 1 0 0 1 1 1z" fill="#ecf0f1"></path><path d="M25 17v5a1 1 0 0 1-1 1H9a1 1 0 0 1-1-1v-5z" fill="#2980ba"></path><path d="M25 6v9H8V6a1 1 0 0 1 1-1h15a1 1 0 0 1 1 1z" fill="#67b9cc"></path><path d="M25 40v5a1 1 0 0 1-1 1H9a1 1 0 0 1-1-1v-5z" fill="#2980ba"></path><path d="M25 29v9H8v-9a1 1 0 0 1 1-1h15a1 1 0 0 1 1 1z" fill="#f0c419"></path><path d="M50 17v5a1 1 0 0 1-1 1H34a1 1 0 0 1-1-1v-5z" fill="#2980ba"></path><path d="M50 6v9H33V6a1 1 0 0 1 1-1h15a1 1 0 0 1 1 1z" fill="#f0c419"></path><path d="M50 40v5a1 1 0 0 1-1 1H34a1 1 0 0 1-1-1v-5z" fill="#2980ba"></path><path d="M50 29v9H33v-9a1 1 0 0 1 1-1h15a1 1 0 0 1 1 1z" fill="#67b9cc"></path><path d="M25 15v3H8v-3l6-5 4 4 3-3z" fill="#35495e"></path><path d="M25 38v3H8v-3l6-5 4 4 3-3zM50 15v3H33v-3l6-5 4 4 3-3z" fill="#f29c1f"></path><path d="M50 38v3H33v-3l6-5 4 4 3-3z" fill="#35495e"></path></g></g></svg>