<svg viewBox="0 0 512 512" xmlns="http://www.w3.org/2000/svg"><g><path d="M510.905 426.667H200.206c-.605 0-1.095-.49-1.095-1.095V1.095c0-.605.49-1.095 1.095-1.095h310.699C511.51 0 512 .49 512 1.095v424.477c0 .604-.49 1.095-1.095 1.095z" fill="#fd7e42"></path><path d="M482.436 398.222H228.675a1.119 1.119 0 0 1-1.119-1.119V29.564c0-.618.501-1.119 1.119-1.119h253.761c.618 0 1.119.501 1.119 1.119v367.539a1.118 1.118 0 0 1-1.119 1.119z" fill="#c1e2ff"></path><path d="M482.436 28.444h-40.09v314.055c0 19.395-15.723 35.118-35.118 35.118H227.556v19.485c0 .618.501 1.119 1.119 1.119h253.761c.618 0 1.119-.501 1.119-1.119V29.564a1.119 1.119 0 0 0-1.119-1.12z" fill="#b3d8fb"></path><path d="m423.202 319.127-1.274-.319c-13.934-3.484-23.71-16.004-23.71-30.367v-17.219c-12.165 8.348-26.878 0-42.668 0s-30.503 8.349-42.668 0v17.219c0 14.363-9.775 26.883-23.71 30.367l-1.264.316c15.602 13.506 40.101 33.162 67.649 33.162 27.545 0 52.042-19.654 67.645-33.159z" fill="#ffe4c0"></path><path d="M483.556 336.518a57.08 57.08 0 0 0-14.82-6.008l-45.534-11.383c-15.602 13.505-40.1 22.206-67.646 22.206-27.548 0-52.047-8.703-67.649-22.209l-45.543 11.386a57.08 57.08 0 0 0-14.808 6v60.592c0 .618.501 1.119 1.119 1.119h253.761c.618 0 1.119-.501 1.119-1.119v-60.584z" fill="#4f66ce"></path><path d="M442.347 323.913v18.586c0 19.395-15.723 35.118-35.118 35.118H227.556v19.485a1.118 1.118 0 0 0 1.12 1.119h253.761a1.113 1.113 0 0 0 .973-.565l.024-.043a1.094 1.094 0 0 0 .123-.511v-60.585a57.08 57.08 0 0 0-14.82-6.008z" fill="#304ec7"></path><path d="M317.904 156.43h-56.949c-10.597 0-19.188 8.591-19.188 19.188 0 20.823 16.88 37.703 37.703 37.703h.725zM450.144 156.43h-36.826l17.586 56.891h.724c20.823 0 37.703-16.88 37.703-37.703.001-10.597-8.59-19.188-19.187-19.188z" fill="#ffe4c0"></path><path d="M450.144 156.43h-7.797v55.346c15.602-4.618 26.985-19.058 26.985-36.158 0-10.597-8.591-19.188-19.188-19.188z" fill="#fcd0a3"></path><path d="M398.222 101.507c0-8.722-85.333-8.722-85.333 0l-33.822 94.137 1.156 18.118c2.536 39.74 35.506 70.674 75.326 70.674 39.82 0 72.791-30.934 75.326-70.674l1.157-18.14z" fill="#fff0dc"></path><path d="M304.516 156.444a8.373 8.373 0 0 0 8.373-8.373v-16.564c0-8.722 8.545-14.881 16.819-12.123l11.453 3.817a45.516 45.516 0 0 0 28.79 0l11.453-3.817c8.274-2.758 16.819 3.401 16.819 12.123v16.564a8.373 8.373 0 0 0 8.373 8.373 9.463 9.463 0 0 1 8.465 5.232l16.973 33.946 3.419-53.588c2.943-46.131-33.678-85.163-79.903-85.163-46.225 0-82.846 39.033-79.903 85.163l3.421 53.61 16.984-33.968a9.462 9.462 0 0 1 8.464-5.232z" fill="#557981"></path><path d="M350.349 221.178h-1.915a7.5 7.5 0 0 1 0-15h1.915a4.814 4.814 0 0 0 4.808-4.808v-16.137a7.5 7.5 0 0 1 15 0v16.137c0 10.922-8.886 19.808-19.808 19.808zM355.552 259.717c-12.015 0-23.493-4.196-33.194-12.135a7.5 7.5 0 1 1 9.5-11.608c6.989 5.72 15.183 8.743 23.694 8.743s16.704-3.023 23.693-8.743a7.5 7.5 0 0 1 9.5 11.608c-9.7 7.939-21.178 12.135-33.193 12.135z" fill="#ffe4c0"></path><g fill="#fff"><path d="M369.773 149.727a7.474 7.474 0 0 1-5.303-2.197 7.5 7.5 0 0 1 0-10.606l85.33-85.33a7.5 7.5 0 0 1 10.606 0 7.5 7.5 0 0 1 0 10.606l-85.33 85.33a7.472 7.472 0 0 1-5.303 2.197zM376.884 99.951a7.474 7.474 0 0 1-5.303-2.197 7.5 7.5 0 0 1 0-10.606l35.554-35.554a7.5 7.5 0 0 1 10.606 0 7.5 7.5 0 0 1 0 10.606l-35.554 35.554a7.472 7.472 0 0 1-5.303 2.197zM255.997 306.167a7.474 7.474 0 0 1-5.303-2.197 7.5 7.5 0 0 1 0-10.606l41.484-41.484a7.5 7.5 0 0 1 10.606 0 7.5 7.5 0 0 1 0 10.606L261.3 303.97a7.472 7.472 0 0 1-5.303 2.197zM256 263.5a7.474 7.474 0 0 1-5.303-2.197 7.5 7.5 0 0 1 0-10.606l42.665-42.665a7.5 7.5 0 0 1 10.606 0 7.5 7.5 0 0 1 0 10.606l-42.665 42.665A7.478 7.478 0 0 1 256 263.5z" fill="#ffffff"></path></g><path d="M355.552 376.645c-14.791 0-29.243-1.969-42.954-5.852a147.24 147.24 0 0 1-7.72-2.418c-3.917-1.347-6-5.614-4.653-9.531s5.615-6.001 9.531-4.653a131.18 131.18 0 0 0 6.929 2.17c12.381 3.506 25.458 5.284 38.867 5.284 19.393 0 38.332-3.786 54.771-10.949a7.5 7.5 0 0 1 5.993 13.751c-18.316 7.98-39.327 12.198-60.764 12.198z" fill="#304ec7"></path><path d="M214.805 315.572c-9.519-5.478-15.686-15.723-15.686-27.131v-8.07c0-5.51 2.486-10.68 6.656-14.281 14.838-12.815 24.663-31.344 26.002-52.328a.47.47 0 0 1 .469-.44h.283c20.823 0 37.703-16.88 37.703-37.703 0-10.597-8.591-19.188-19.188-19.188h-15.109a.47.47 0 0 1-.469-.501H77.434a.471.471 0 0 1-.469.501H61.856c-10.597 0-19.188 8.591-19.188 19.188 0 20.823 16.88 37.703 37.703 37.703h.283a.47.47 0 0 1 .469.44c1.339 20.984 11.164 39.512 26.002 52.328 4.17 3.602 6.656 8.771 6.656 14.281v8.07c0 11.41-6.169 21.657-15.691 27.134 15.261 7.154 35.784 31.911 58.353 31.911 22.575 0 43.1-24.757 58.362-31.914z" fill="#fff0dc"></path><path d="M212.788 237.487a55.892 55.892 0 0 0 19.986-39.015c1.681-23.908 3.585-56.516 3.58-56.438 2.943-46.131-33.678-85.163-79.903-85.163-46.225 0-82.846 39.039-79.902 85.17 1.749 27.42 2.838 44.813 3.557 56.069a55.903 55.903 0 0 0 20.008 39.39c32.629 27.189 80.023 27.191 112.655.004z" fill="#557981"></path><path d="M170.12 58.03c16.706 15.739 26.611 38.539 25.025 63.399.005-.078-1.899 32.53-3.58 56.438a55.892 55.892 0 0 1-19.986 39.015l-.021.017c-21.046 17.534-48.232 23.759-73.638 18.675a56.813 56.813 0 0 0 2.192 1.926c32.629 27.189 80.023 27.191 112.654.004l.021-.017a55.888 55.888 0 0 0 19.986-39.015c1.681-23.908 3.585-56.516 3.58-56.438 2.647-41.476-26.69-77.213-66.233-84.004z" fill="#3c5959"></path><path d="m269.637 330.51-46.808-11.702a31.262 31.262 0 0 1-8.024-3.236c-15.261 7.156-35.787 11.539-58.36 11.539-22.57 0-43.093-4.381-58.353-11.535a31.314 31.314 0 0 1-8.018 3.233L43.265 330.51C17.838 336.867 0 359.713 0 385.923v124.851C0 511.451.549 512 1.226 512h310.449c.677 0 1.226-.549 1.226-1.226V385.923c0-26.21-17.837-49.056-43.264-55.413z" fill="#4f66ce"></path><path d="m269.637 330.51-25.885-6.471c10.98 10.509 17.639 25.266 17.639 41.279v67.607c0 32.292-26.178 58.47-58.47 58.47H0v19.378C0 511.451.549 512 1.226 512h310.449c.677 0 1.226-.549 1.226-1.226V385.923c0-26.21-17.837-49.056-43.264-55.413z" fill="#304ec7"></path><g fill="#304ec7"><path d="M64.399 512v-85.344a7.5 7.5 0 0 0-15 0V512zM263.49 512v-85.344a7.5 7.5 0 0 0-15 0V512z" fill="#304ec7"></path></g><g fill="#2740ad"><path d="M49.399 491.396h15V512h-15zM263.49 426.656a7.48 7.48 0 0 0-2.099-5.204v11.473a58.223 58.223 0 0 1-12.901 36.639V512h15z" fill="#2740ad"></path></g><path d="M156.455 291.934a83.528 83.528 0 0 1-15.367-1.424 7.5 7.5 0 0 1 2.767-14.743 68.893 68.893 0 0 0 25.189.002c4.074-.763 7.99 1.919 8.753 5.99s-1.918 7.99-5.99 8.753a83.436 83.436 0 0 1-15.352 1.422z" fill="#ffe4c0"></path></g></svg>