<svg viewBox="0 0 512 512" xmlns="http://www.w3.org/2000/svg"><g><path d="M475.454 0H339.86c-14.366 0-26.012 11.646-26.012 26.012v135.594c0 14.366 11.646 26.012 26.012 26.012h24.329c7.084 0 12.826 5.742 12.826 12.826v21.936c0 4.609 5.833 6.606 8.659 2.966l25.568-32.947a12.356 12.356 0 0 1 9.761-4.781h54.452c14.366 0 26.012-11.646 26.012-26.012V26.012C501.467 11.646 489.82 0 475.454 0z" fill="#f7e365"></path><path d="M475.454 0h-28.101c14.366 0 26.012 11.646 26.012 26.012v135.594c0 14.366-11.646 26.012-26.012 26.012h28.101c14.366 0 26.012-11.646 26.012-26.012V26.012C501.467 11.646 489.82 0 475.454 0z" fill="#f3d332"></path><path d="M307.163 512H33.25l3.769-51.734c2.308-31.66 26.14-57.544 57.511-62.451l21.691-3.401c11.029-1.717 19.148-11.219 19.148-22.371v-79.625h81.387v79.625c0 11.152 8.13 20.654 19.148 22.371l21.702 3.401c31.359 4.907 55.202 30.791 57.5 62.451l2.919 40.054c.459 6.309-4.536 11.68-10.862 11.68z" fill="#faa68e"></path><path d="M116.658 443.8a8.223 8.223 0 0 1 7.958-6.154h34.19c18.52 0 33.534-15.014 33.534-33.534v-14.096a5.978 5.978 0 0 1 5.977-5.978h21.897a22.55 22.55 0 0 1-3.46-11.996v-23.691h-71.889c-3.847 0-6.1-4.327-3.892-7.472l14.408-20.587a17.21 17.21 0 0 0 3.134-10.516 17.34 17.34 0 0 0-7.171-13.617l-.368-.268a18.07 18.07 0 0 0-15.609-2.769v78.918c0 11.152-8.119 20.654-19.148 22.371l-21.691 3.401a68.108 68.108 0 0 0-37.623 19.083l-23.243 89.418L33.25 512h65.679z" fill="#e09380"></path><path d="M307.163 512H33.25l3.769-51.734c2.308-31.66 26.14-57.544 57.511-62.451l21.691-3.401a23.354 23.354 0 0 0 4.438-1.16c13.394 14.486 33.066 23.642 54.99 23.642 22.048 0 41.809-9.245 55.213-23.876a22.748 22.748 0 0 0 5.041 1.394l21.702 3.401c31.359 4.907 55.202 30.791 57.5 62.451l2.919 40.054c.458 6.301-4.538 11.68-10.861 11.68z" fill="#acd980"></path><path d="M124.617 437.646h34.19c14.533 0 26.904-9.247 31.558-22.178a77.233 77.233 0 0 1-14.715 1.427c-21.925 0-41.597-9.156-54.99-23.642-13.108 4.861-40.356.326-63.752 23.644l-23.243 89.418L33.25 512h65.679l17.729-68.2a8.223 8.223 0 0 1 7.959-6.154zM318.024 500.32l-2.919-40.054a68.079 68.079 0 0 0-17.852-41.258c-23.399-25.411-52.455-21.128-65.297-25.58-.05-.017-.098-.038-.148-.055a22.694 22.694 0 0 1-.946-.353 71.916 71.916 0 0 1-7.378 6.96l5.91.926c31.359 4.907 55.202 30.791 57.5 62.451l2.918 40.053c.244 3.354-1.062 6.433-3.281 8.591h20.631c6.327-.001 11.322-5.372 10.862-11.681z" fill="#8cc951"></path><path d="M263.796 464.978a7.725 7.725 0 0 0-7.726 7.726V512h15.453v-39.296a7.727 7.727 0 0 0-7.727-7.726z" fill="#8cc951"></path><g fill="#544f56"><path d="M402.754 128.11a7.725 7.725 0 0 1-7.726-7.726V93.95a7.726 7.726 0 0 1 7.726-7.726h4.903c11.235 0 20.375-9.14 20.375-20.375s-9.14-20.375-20.375-20.375c-11.234 0-20.374 9.14-20.374 20.375a7.726 7.726 0 1 1-15.452 0c0-19.756 16.071-35.827 35.827-35.827s35.828 16.072 35.828 35.827c0 18.805-14.564 34.274-33.005 35.718v18.817a7.728 7.728 0 0 1-7.727 7.726zM402.754 157.598a7.725 7.725 0 0 1-7.726-7.726v-2.263a7.726 7.726 0 1 1 15.452 0v2.263a7.726 7.726 0 0 1-7.726 7.726z" fill="#544f56"></path></g><path d="M190.637 34.401h-34.539c-40.198 0-75.264 21.963-93.859 54.543-25.852 6.772-44.696 30.666-43.887 58.664l2.983 103.172h302.2v-83.481c0-73.397-59.501-132.898-132.898-132.898z" fill="#655e67"></path><g fill="#faa68e"><path d="M86.906 268.149h-53.23c-12.781 0-23.143-10.361-23.143-23.143v-7.256c0-12.781 10.361-23.143 23.143-23.143h53.23zM258.22 268.149h53.23c12.781 0 23.143-10.361 23.143-23.143v-7.256c0-12.781-10.361-23.143-23.143-23.143h-53.23z" fill="#faa68e"></path><path d="M297.568 232.541c0 76.278-76.955 120.066-121.915 120.066-44.948 0-121.915-43.788-121.915-120.066 0-48.725 13.544-85.602 35.459-110.332 4.931-5.564 13.618-5.508 18.543.062 5.01 5.666 10.285 11.079 16.03 16.012 6.766 5.812 14.753 11.116 23.658 11.213 5.945.072 12.109-3.115 15.312-7.879 2.652-3.945 7.914-5.162 12.221-3.15 28.392 13.268 59.719 21.4 91.128 23.157 12.63.707 23.373 9.618 26.233 21.94 3.414 14.712 5.246 31.043 5.246 48.977z" fill="#faa68e"></path></g><path d="M292.321 183.564c-2.273-9.792-9.531-17.413-18.751-20.491 2.753 13.629 4.224 28.546 4.224 44.75 0 77.89-78.581 122.602-124.491 122.602-21.35 0-49.772-9.68-74.07-27.869 26.459 32.399 67.887 50.05 96.42 50.05 44.96 0 121.915-43.788 121.915-120.066 0-17.933-1.832-34.264-5.247-48.976z" fill="#e09380"></path><path d="m76.903 512 22.229-85.509a8.292 8.292 0 0 1 8.025-6.205h34.137c18.52 0 33.534-15.014 33.534-33.534v-14.096a5.977 5.977 0 0 1 5.977-5.977h33.333c9.869 0 18.222-7.818 18.3-17.687a17.769 17.769 0 0 0-5.219-12.769 17.792 17.792 0 0 0-12.624-5.23h-87.242c-3.847 0-6.1-4.327-3.892-7.472l14.408-20.587a17.217 17.217 0 0 0 3.134-10.516 17.34 17.34 0 0 0-7.171-13.617l-.368-.268c-8.13-5.899-19.416-4.104-25.248 3.981-10.292 14.275-55.536 76.916-60.008 83.116L12.571 502.727c-1.22 4.693 2.322 9.273 7.171 9.273z" fill="#f9b1a0"></path><g fill="#444145"><path d="M140.106 240.658a7.5 7.5 0 0 0 7.5-7.5v-8.374a7.5 7.5 0 0 0-15 0v8.374a7.5 7.5 0 0 0 7.5 7.5zM252.184 240.658a7.5 7.5 0 0 0 7.5-7.5v-8.374a7.5 7.5 0 0 0-15 0v8.374a7.5 7.5 0 0 0 7.5 7.5zM183.209 277.559c10.226-5.965 19.749-5.965 29.975 0a7.497 7.497 0 0 0 10.257-2.7 7.5 7.5 0 0 0-2.7-10.257c-14.749-8.604-30.341-8.604-45.09 0a7.5 7.5 0 1 0 7.558 12.957z" fill="#444145"></path></g></g></svg>