<svg viewBox="0 0 64 64" xmlns="http://www.w3.org/2000/svg"><g><path d="M43 54v-5a3 3 0 0 1 3-3h9v9a3 3 0 0 1-3 3h-9z" fill="#f9bd46"></path><path d="M49.01 31H55l-2 6h-8l-2-6z" fill="#cf916d"></path><path d="M53 37v4h-8v-4z" fill="#e5d2b7"></path><path d="M47 62.96V63H32a25.524 25.524 0 0 0 3-8c0 6.63 7.74 7.77 12 7.96z" fill="#53647c"></path><path d="M53 41h-8a21.849 21.849 0 0 0-2.56 1.6 23.689 23.689 0 0 0-3.07 2.65 16.526 16.526 0 0 0-3.45 5.12A12.173 12.173 0 0 0 35 55c0 6.63 7.74 7.77 12 7.96.82.04 1.52.04 2 .04s1.18 0 2-.04c4.26-.19 12-1.33 12-7.96 0-9-10-14-10-14zm2 9v5a3 3 0 0 1-3 3h-9v-9a3 3 0 0 1 3-3h9z" fill="#cf916d"></path><path d="m35 40 7.44 2.6a23.689 23.689 0 0 0-3.07 2.65L35 40.01z" fill="#53647c"></path><path d="m35 40.01 4.37 5.24a16.526 16.526 0 0 0-3.45 5.12A34.946 34.946 0 0 0 35 40.01z" fill="#717e93"></path><path d="M35 40.01a34.946 34.946 0 0 1 .92 10.36l-4-2.21L28 46c4-1 7-5.99 7-5.99z" fill="#efeadc"></path><path d="m31.92 48.16 4 2.21A12.173 12.173 0 0 0 35 55a25.524 25.524 0 0 1-3 8l-2-11z" fill="#e8debf"></path><path d="M31.92 48.16 30 52h-4l-1.91-3.83L28 46z" fill="#5aad89"></path><path d="m30 52 2 11h-8l2-11z" fill="#47936f"></path><path d="M24.09 48.17 26 52l-2 11a28.3 28.3 0 0 1-3.67-12.74z" fill="#e8debf"></path><path d="M8 63H1v-7a12.684 12.684 0 0 1 8.49-11.97L21 40v.01L14 49l4 14z" fill="#53647c"></path><path d="M20.33 50.26A28.3 28.3 0 0 0 24 63h-6l-4-14 7-8.99a39.1 39.1 0 0 0-.67 10.25z" fill="#717e93"></path><path d="M21 40.01S24 45 28 46l-3.91 2.17-3.76 2.09A39.1 39.1 0 0 1 21 40.01z" fill="#efeadc"></path><path d="M35 35.48v4.53S32 45 28 46c-4-1-7-5.99-7-5.99v-4.53a10.982 10.982 0 0 0 14 0z" fill="#f4baa6"></path><path d="M13.79 17.27C15.3 17.2 17 19 17 19v9c-4-1-6-6-5-9 .41-1.25 1.08-1.71 1.79-1.73z" fill="#e09b8d"></path><path d="M19.61 15.03A10.372 10.372 0 0 0 17 19s-1.7-1.8-3.21-1.73L12 11s5.32-.89 7.61 4.03z" fill="#999999"></path><path d="M21 35.48v4.207a14.437 14.437 0 0 0 14 .005V35.48a10.982 10.982 0 0 1-14 0z" fill="#e09b8d"></path><path d="M36.39 15.03A10.372 10.372 0 0 1 39 19v9a11.124 11.124 0 0 1-3.58 7.12c-.14.12-.27.24-.42.36A11.052 11.052 0 0 1 17 28v-9a10.372 10.372 0 0 1 2.61-3.97c1.75-1.57 4.47-2.48 8.39-.03 3.92-2.45 6.64-1.54 8.39.03z" fill="#f4baa6"></path><path d="M42.21 17.27c.71.02 1.38.48 1.79 1.73 1 3-1 8-5 9v-9s1.7-1.8 3.21-1.73z" fill="#e09b8d"></path><path d="M42.21 17.27C40.7 17.2 39 19 39 19a10.372 10.372 0 0 0-2.61-3.97C38.68 10.11 44 11 44 11z" fill="#999999"></path><path d="M44 11s-5.32-.89-7.61 4.03c-1.75-1.57-4.47-2.48-8.39-.03-3.92-2.45-6.64-1.54-8.39.03C17.32 10.11 12 11 12 11s3-10 9-10a14.489 14.489 0 0 1 5.21.76 4.916 4.916 0 0 0 3.58 0A14.489 14.489 0 0 1 35 1c6 0 9 10 9 10z" fill="#666666"></path><path d="M5.786 50.4a9.789 9.789 0 0 0-1.192 2.258 1 1 0 0 0 1.877.692 7.731 7.731 0 0 1 .946-1.792 7.516 7.516 0 0 1 2.155-2.026 1 1 0 0 0 .328-1.361 1.013 1.013 0 0 0-1.409-.329A9.526 9.526 0 0 0 5.786 50.4z" fill="#717e93"></path><path d="M28 33a5.306 5.306 0 0 1-3.707-1.293 1 1 0 0 1 1.4-1.424A3.477 3.477 0 0 0 28 31a3.46 3.46 0 0 0 2.3-.719 1.006 1.006 0 0 1 1.408.03.993.993 0 0 1-.006 1.4A5.306 5.306 0 0 1 28 33zM28 28a1 1 0 0 1-1-1v-3a1 1 0 0 1 2 0v3a1 1 0 0 1-1 1z" fill="#d1897d"></path><circle cx="31.5" cy="21.5" fill="#995e55" r="1.5"></circle><circle cx="24.5" cy="21.5" fill="#995e55" r="1.5"></circle><path d="M55 49h-7a1 1 0 0 0 0 2h7zM50 53h-7v2h7a1 1 0 0 0 0-2z" fill="#ed9b2f"></path><path d="M48.01 33a1 1 0 0 0 2 0v-2h-2z" fill="#c5815f"></path><path d="M9 57a1 1 0 0 0-2 0v6h2z" fill="#405066"></path></g></svg>