<svg viewBox="0 0 512 512" xmlns="http://www.w3.org/2000/svg"><g><path d="M36.056 127.194h442.839v157.342H36.056z" fill="#dc8758"></path><path d="M459.461 344.286H325.022a6.18 6.18 0 0 1-6.181-6.181v-58.857h140.62z" fill="#ecbba3"></path><path d="M318.841 214.209h140.62v65.038h-140.62z" fill="#f4d7c8"></path><path d="M318.841 149.171h140.62v65.038h-140.62z" fill="#ecbba3"></path><path d="M406.321 189.417h-34.34a7.725 7.725 0 0 1-7.726-7.726 7.725 7.725 0 0 1 7.726-7.726h34.34c4.268 0 7.726 3.459 7.726 7.726s-3.458 7.726-7.726 7.726zM406.321 254.455h-34.34a7.726 7.726 0 1 1 0-15.452h34.34c4.268 0 7.726 3.459 7.726 7.726s-3.458 7.726-7.726 7.726zM406.321 322.668h-34.34a7.726 7.726 0 1 1 0-15.452h34.34c4.268 0 7.726 3.459 7.726 7.726s-3.458 7.726-7.726 7.726z" fill="#444444"></path><path d="M489.336 406.784h-26.785a3.091 3.091 0 0 1-3.091-3.091v-276.5h32.966v276.5a3.09 3.09 0 0 1-3.09 3.091zM49.449 406.784H22.664a3.091 3.091 0 0 1-3.091-3.091v-276.5h32.966v276.5a3.09 3.09 0 0 1-3.09 3.091z" fill="#c86d36"></path><path d="M19.573 134.419h32.966v43.954H19.573zM459.461 134.419h32.966v43.954h-32.966z" fill="#ac5e2e"></path><path d="M505.819 149.171H6.181A6.18 6.18 0 0 1 0 142.99v-31.592a6.18 6.18 0 0 1 6.181-6.181h499.638a6.18 6.18 0 0 1 6.181 6.181v31.592a6.181 6.181 0 0 1-6.181 6.181z" fill="#9e5528"></path><path d="M505.819 105.216h-40.883a6.181 6.181 0 0 1 6.181 6.181v31.593a6.181 6.181 0 0 1-6.181 6.181h40.883A6.181 6.181 0 0 0 512 142.99v-31.593a6.181 6.181 0 0 0-6.181-6.181z" fill="#904d24"></path><path d="M430.259 279.248h29.202v65.038h-29.202z" fill="#e8ad8c"></path><path d="M430.259 214.209h29.202v65.038h-29.202z" fill="#ecbba3"></path><path d="M430.259 149.171h29.202v65.038h-29.202z" fill="#e8ad8c"></path></g></svg>