<svg viewBox="0 0 64 64" xmlns="http://www.w3.org/2000/svg"><g><g><path d="M60 30h-1.082A26.994 26.994 0 0 0 34 5.081V4a2 2 0 0 0-4 0v1.082A26.994 26.994 0 0 0 5.081 30H4a2 2 0 0 0 0 4h1.082A26.994 26.994 0 0 0 30 58.919V60a2 2 0 0 0 4 0v-1.081A26.994 26.994 0 0 0 58.918 34H60a2 2 0 0 0 0-4zm-6 4h.908A23 23 0 0 1 34 54.9V54a2 2 0 0 0-4 0v.9A23 23 0 0 1 9.092 34H10a2 2 0 0 0 0-4h-.9A23 23 0 0 1 30 9.092V10a2 2 0 0 0 4 0v-.9A23 23 0 0 1 54.908 30H54a2 2 0 0 0 0 4z" fill="#d24034"></path><path d="M35 28v-2h-6a1 1 0 0 0-1 1v10a1 1 0 0 0 1 1h6v-2h-5v-3h5v-2h-5v-3z" fill="#f3a845"></path><path d="m39 27 9 5-9 5 3-5z" fill="#aa2b24"></path><path d="m39 27 9 5h-6z" fill="#d24034"></path></g></g></svg>