<svg viewBox="0 0 512.102 512.102" xmlns="http://www.w3.org/2000/svg"><g><path d="M512.051 256c0 3.35-.06 6.69-.2 10.01-139.54 134.19-362.73 125.23-491.06-19.71l-18.87-21.31A254.229 254.229 0 0 1 33.731 129C77.851 51.93 160.891 0 256.051 0s178.2 51.93 222.32 129a254.255 254.255 0 0 1 28.15 73.86c3.46 16.36 5.35 33.28 5.52 50.62.01.84.01 1.68.01 2.52z" fill="#92eaff"></path><path d="M512.051 256c0 3.35-.06 6.69-.2 10.01-139.54 134.19-362.73 125.23-491.06-19.71l-18.87-21.31A254.229 254.229 0 0 1 33.731 129c44.12 77.07 127.16 129 222.32 129s178.2-51.93 222.32-129c21.43 37.43 33.68 80.78 33.68 127z" fill="#63dbfa"></path><path d="M342.381 239.378h-10.974l.587-18.39.723-22.592h8.354l.723 22.592z" fill="#ec771b"></path><path d="M342.381 239.378h-5.277v-40.982h3.967l.723 22.592zM337.104 217.561v-19.165h-4.387l-.613 19.165z" fill="#c55732"></path><path d="m341.684 217.561-.613-19.165h-3.967v19.165z" fill="#a44e3e"></path><path d="M354.148 205.586c-4.72 4.646-10.882 6.97-17.044 6.97-6.161 0-12.324-2.323-17.045-6.97a23.455 23.455 0 0 1-4.518-27.392c4.725-9.292 9.659-18.476 13.674-28.096l7.888-18.9 7.875 18.862c4.022 9.635 8.963 18.833 13.692 28.141a23.452 23.452 0 0 1-4.522 27.385z" fill="#43af3e"></path><path d="M354.148 205.586c-4.72 4.646-10.882 6.97-17.044 6.97-2.923 0-5.847-2.323-8.087-6.97-3.621-7.512-4.307-18.81-2.055-27.754 3.132-12.438 5.907-25.25 8.478-38.23l1.664-8.404 7.875 18.862c4.022 9.635 8.963 18.833 13.692 28.141a23.454 23.454 0 0 1-4.523 27.385z" fill="#00a23e"></path><path d="M354.148 205.586c-4.72 4.646-10.882 6.97-17.044 6.97v-81.358l7.875 18.862c4.022 9.635 8.963 18.833 13.692 28.141a23.454 23.454 0 0 1-4.523 27.385z" fill="#008839"></path><path d="M482.111 277.958H472.9l.493-15.435.606-18.961h7.012l.607 18.961z" fill="#ec771b"></path><path d="M482.111 277.958h-4.43v-34.396h3.33l.607 18.961zM477.681 259.193v-15.631h-3.682l-.5 15.631z" fill="#c55732"></path><path d="m481.511 259.193-.5-15.631h-3.33v15.631z" fill="#a44e3e"></path><path d="M491.987 249.597c-3.961 3.9-9.133 5.85-14.305 5.85a20.332 20.332 0 0 1-14.305-5.85 19.686 19.686 0 0 1-3.792-22.99c3.965-7.799 8.107-15.507 11.477-23.581l6.621-15.863 6.609 15.831c3.376 8.086 7.523 15.807 11.492 23.619a19.687 19.687 0 0 1-3.797 22.984z" fill="#43af3e"></path><path d="M491.987 249.597c-3.961 3.9-9.133 5.85-14.305 5.85-2.453 0-4.907-1.95-6.787-5.85-3.039-6.305-3.614-15.787-1.724-23.294 2.628-10.44 4.958-21.192 7.115-32.087l1.396-7.053 6.609 15.831c3.376 8.086 7.523 15.807 11.492 23.619a19.685 19.685 0 0 1-3.796 22.984z" fill="#00a23e"></path><path d="M491.987 249.597c-3.961 3.9-9.133 5.85-14.305 5.85v-68.283l6.609 15.831c3.376 8.086 7.523 15.807 11.492 23.619a19.684 19.684 0 0 1-3.796 22.983z" fill="#008839"></path><path d="M79.047 512h-9.645c3.227.139 6.442.133 9.645 0z" fill="#6cdc2d"></path><path d="M419.391 266.01v187.11c-44.14 36.62-100.77 58.69-162.55 58.88h-.79c-37.59 0-73.3-8.1-105.45-22.67 0-46.88-38.01-84.89-84.89-84.89h-18.24a253.316 253.316 0 0 1-17.63-28.5c-.1-.18-.19-.37-.29-.55a253.793 253.793 0 0 1-23.46-63.89 255.987 255.987 0 0 1-5.41-37.44c-.42-5.96-.63-11.99-.63-18.06 0-10.5.63-20.84 1.87-31.01 44.52-29.55 103.09-61.07 141.16-64.53 20.76-1.89 65.45 12.81 112.97 31.8 77.88 31.11 163.34 73.75 163.34 73.75z" fill="#b6e337"></path><path d="M419.391 266.01v187.11a255.684 255.684 0 0 1-65.74 39.61c-29.85 12.33-62.54 19.16-96.81 19.27h-.79V192.26c77.88 31.11 163.34 73.75 163.34 73.75z" fill="#6cdc2d"></path><path d="M419.391 294.56v158.56c-44.14 36.62-100.77 58.69-162.55 58.88h-.79c-37.59 0-73.3-8.1-105.45-22.67 0-46.88-38.01-84.89-84.89-84.89h-18.24a253.316 253.316 0 0 1-17.63-28.5c-.1-.18-.19-.37-.29-.55a253.793 253.793 0 0 1-23.46-63.89c66.69-40.78 144.71-80.44 180.24-83.67 13.8-1.25 39.41 3 69.72 10.49 52.66 13 119.52 35.74 163.34 56.24z" fill="#6cdc2d"></path><path d="M419.391 294.56v158.56c-44.14 36.62-100.77 58.69-162.55 58.88h-.79V238.32c52.66 13 119.52 35.74 163.34 56.24z" fill="#5dbf1d"></path><path d="M223.124 327.236h-15.68l.839-26.275 1.033-32.278h11.936l1.033 32.278z" fill="#ec771b"></path><path d="M223.124 327.236h-7.54v-58.553h5.668l1.033 32.278zM215.584 296.443v-27.76h-6.268l-.888 27.76z" fill="#c55732"></path><path d="m222.14 296.443-.888-27.76h-5.668v27.76z" fill="#a44e3e"></path><path d="M239.937 278.957c-6.744 6.639-15.548 9.958-24.353 9.958-8.803 0-17.607-3.319-24.353-9.958a33.512 33.512 0 0 1-6.455-39.136c6.751-13.276 13.801-26.398 19.538-40.143l11.27-27.004 11.251 26.949c5.747 13.765 12.806 26.908 19.563 40.207a33.51 33.51 0 0 1-6.461 39.127z" fill="#43af3e"></path><path d="M239.937 278.957c-6.744 6.639-15.548 9.958-24.353 9.958-4.177 0-8.353-3.319-11.554-9.958-5.174-10.733-6.153-26.875-2.935-39.654 4.474-17.771 8.439-36.076 12.113-54.622l2.377-12.007 11.251 26.949c5.747 13.765 12.806 26.908 19.563 40.207a33.513 33.513 0 0 1-6.462 39.127z" fill="#00a23e"></path><path d="M239.937 278.957c-6.744 6.639-15.548 9.958-24.353 9.958V172.673l11.251 26.949c5.747 13.765 12.806 26.908 19.563 40.207a33.512 33.512 0 0 1-6.461 39.128z" fill="#008839"></path><path d="M511.851 266.01c-2.4 62.54-27.24 119.32-66.69 162.54-46.66 51.1-113.74 83.22-188.32 83.45h-.79c-37.59 0-73.3-8.1-105.45-22.67 0-46.88-38.01-84.89-84.89-84.89h-18.24a253.316 253.316 0 0 1-17.63-28.5c-.1-.18-.19-.37-.29-.55 78.68-19.72 150.19-51.96 221.48-76.34 1.67-.57 3.35-1.14 5.02-1.71 53.5-18.02 106.97-31.33 163.34-31.33z" fill="#b6e337"></path><path d="M511.851 266.01c-2.4 62.54-27.24 119.32-66.69 162.54a256.747 256.747 0 0 1-25.77 24.57c-44.14 36.62-100.77 58.69-162.55 58.88h-.79V297.34c53.5-18.02 106.97-31.33 163.34-31.33z" fill="#6cdc2d"></path><path d="M511.851 266.01c-2.4 62.54-27.24 119.32-66.69 162.54-46.66 51.1-113.74 83.22-188.32 83.45h-.79c-74.9 0-142.29-32.17-189.11-83.45-1.94-2.12-3.84-4.28-5.71-6.47-4.84-5.67-9.43-11.55-13.76-17.64 71.77-27.66 144.06-62.05 208.58-89.63 65.22-27.88 122.51-48.8 163.34-48.8z" fill="#63dbfa"></path><path d="M511.851 266.01c-2.4 62.54-27.24 119.32-66.69 162.54a256.747 256.747 0 0 1-25.77 24.57c-44.14 36.62-100.77 58.69-162.55 58.88h-.79V314.81c65.22-27.88 122.51-48.8 163.34-48.8z" fill="#3dcaea"></path><path d="M511.851 266.01c-2.4 62.54-27.24 119.32-66.69 162.54-46.66 51.1-113.74 83.22-188.32 83.45h-.79c-55.12 0-106.17-17.42-147.95-47.07 23.31-11.46 47.87-25.06 71.54-40.86 25.84-17.24 51.23-36.45 76.41-55.37 69.81-52.45 137.98-102.69 209.32-102.69z" fill="#65b2fe"></path><path d="M511.851 266.01c-2.4 62.54-27.24 119.32-66.69 162.54a256.747 256.747 0 0 1-25.77 24.57c-44.14 36.62-100.77 58.69-162.55 58.88h-.79V368.7c69.81-52.45 137.98-102.69 209.32-102.69z" fill="#159de4"></path><path d="M511.851 266.01c-2.4 62.54-27.24 119.32-66.69 162.54a256.747 256.747 0 0 1-25.77 24.57 255.684 255.684 0 0 1-65.74 39.61c-29.85 12.33-62.54 19.16-96.81 19.27h-.79c-19.97 0-39.41-2.29-58.07-6.62a253.628 253.628 0 0 1-47.38-16.05c24.99-14.09 48.25-32.94 68.87-51.31 10.32-9.19 22.73-20.84 36.58-33.74 60.99-56.79 149.76-137.67 209.32-138.27z" fill="#b6e337"></path><path d="M511.851 266.01c-2.4 62.54-27.24 119.32-66.69 162.54a256.747 256.747 0 0 1-25.77 24.57 255.684 255.684 0 0 1-65.74 39.61c-29.85 12.33-62.54 19.16-96.81 19.27h-.79V404.28c60.99-56.79 149.76-137.67 209.32-138.27z" fill="#6cdc2d"></path><path d="M511.851 266.01c-2.4 62.54-27.24 119.32-66.69 162.54a256.747 256.747 0 0 1-25.77 24.57 255.684 255.684 0 0 1-65.74 39.61c-29.85 12.33-62.54 19.16-96.81 19.27h-.79c-19.97 0-39.41-2.29-58.07-6.62 16.61-11.33 36.38-31.79 58.07-56.16 65.09-73.13 147.53-181.4 214.27-183.21z" fill="#5dbf1d"></path><path d="M511.851 266.01c-2.4 62.54-27.24 119.32-66.69 162.54a256.747 256.747 0 0 1-25.77 24.57 255.684 255.684 0 0 1-65.74 39.61c-29.85 12.33-62.54 19.16-96.81 19.27h-.79v-62.78c65.09-73.13 147.53-181.4 214.27-183.21z" fill="#53af17"></path><g fill="#92eaff"><path d="M417.561 266.03c-46.73 6.88-101.98 31.02-161.51 60.45-61.93 30.62-128.47 66.97-194.82 95.6-4.84-5.67-9.43-11.55-13.76-17.64 71.77-27.66 144.06-62.05 208.58-89.63 64.25-27.46 120.81-48.18 161.51-48.78z" fill="#92eaff"></path><path d="M417.561 266.03c-46.73 6.88-101.98 31.02-161.51 60.45v-11.67c64.25-27.46 120.81-48.18 161.51-48.78z" fill="#92eaff"></path></g><path d="M511.851 266.01c-2.4 62.54-27.24 119.32-66.69 162.54a256.747 256.747 0 0 1-25.77 24.57 255.684 255.684 0 0 1-65.74 39.61c39.53-57.39 62.34-205.52 150.27-226.72z" fill="#5dbf1d"></path><circle cx="433.356" cy="404.782" fill="#53af17" r="8.103" transform="rotate(-76.7 433.491 404.882)"></circle><circle cx="272.009" cy="469.267" fill="#5dbf1d" r="8.103" transform="rotate(-76.7 272.1 469.39)"></circle><circle cx="359.742" cy="426.023" fill="#5dbf1d" r="5.73"></circle><path d="M379.029 348.229a5.592 5.592 0 1 1-11.185-.001 5.592 5.592 0 0 1 11.185.001z" fill="#5dbf1d"></path><g fill="#53af17"><path d="M53.112 335.245a5.592 5.592 0 1 1-11.185-.001 5.592 5.592 0 0 1 11.185.001zM171.786 247.891a3.954 3.954 0 1 1-7.907 0 3.954 3.954 0 0 1 7.907 0zM283.193 261.592a5.592 5.592 0 1 1-11.185-.001 5.592 5.592 0 0 1 11.185.001z" fill="#53af17"></path><circle cx="96.31" cy="285.444" fill="#53af17" r="6.638"></circle></g><path d="M29.066 234.692a5.665 5.665 0 1 1-11.331 0 5.665 5.665 0 0 1 11.331 0zM181.15 206.558a5.665 5.665 0 1 1-11.33 0 5.665 5.665 0 1 1 11.33 0z" fill="#6cdc2d"></path><circle cx="77.86" cy="249.796" fill="#6cdc2d" r="3.761"></circle><circle cx="135.479" cy="180.74" fill="#6cdc2d" r="5.589"></circle><path d="M276.323 216.412a5.589 5.589 0 1 1-11.177 0 5.589 5.589 0 0 1 11.177 0z" fill="#53af17"></path><circle cx="140.956" cy="302.993" fill="#53af17" r="7.41" transform="rotate(-80.8 140.905 303.002)"></circle><path d="M433.356 301.175a5.592 5.592 0 1 1-11.185-.001 5.592 5.592 0 0 1 11.185.001z" fill="#5dbf1d"></path><path d="M194.991 122.428c0-.069.005-.136.005-.205 0-12.535-10.162-22.698-22.697-22.698-2.978 0-5.819.579-8.425 1.622-5.034-9.016-14.664-15.117-25.724-15.117-14.363 0-26.317 10.286-28.915 23.892a16.687 16.687 0 0 0-2.371-.172c-7.809 0-14.351 5.406-16.1 12.678z" fill="#ffffff"></path><path d="M172.845 122.428c0-.039.003-.078.003-.118 0-7.208-5.843-13.051-13.051-13.051-1.713 0-3.346.333-4.845.933-2.894-5.185-8.432-8.693-14.792-8.693-8.259 0-15.133 5.915-16.627 13.738a9.569 9.569 0 0 0-1.363-.099c-4.49 0-8.252 3.108-9.258 7.29z" fill="#dff7fd"></path><path d="M440.158 138.199c0-.043.003-.085.003-.129 0-7.887-6.394-14.282-14.282-14.282-1.874 0-3.662.365-5.301 1.021-3.167-5.674-9.227-9.512-16.186-9.512-9.037 0-16.559 6.472-18.194 15.033a10.48 10.48 0 0 0-1.492-.108c-4.914 0-9.03 3.401-10.131 7.977z" fill="#ffffff"></path><path d="m426.224 138.199.002-.074a8.212 8.212 0 0 0-11.26-7.625 10.65 10.65 0 0 0-9.307-5.47c-5.197 0-9.522 3.722-10.462 8.644a5.993 5.993 0 0 0-6.683 4.525z" fill="#dff7fd"></path><path d="M257.846 59.043c0-.043-.003-.085-.003-.128 0-7.809 6.33-14.139 14.139-14.139 1.855 0 3.625.361 5.248 1.01 3.135-5.617 9.135-9.418 16.024-9.418 8.947 0 16.394 6.407 18.012 14.883.482-.069.975-.107 1.477-.107 4.865 0 8.94 3.367 10.03 7.898h-64.927z" fill="#ffffff"></path><path d="m271.642 59.043-.002-.073a8.13 8.13 0 0 1 11.148-7.549 10.543 10.543 0 0 1 9.214-5.415c5.145 0 9.427 3.684 10.358 8.558a5.933 5.933 0 0 1 6.616 4.48h-37.334z" fill="#dff7fd"></path></g></svg>