<svg height="512" viewBox="0 0 48 48" width="512" xmlns="http://www.w3.org/2000/svg"><g id="Suitcase"><path d="m14 8v5h4v-5h12v5h4v-5a4 4 0 0 0 -4-4h-12a4 4 0 0 0 -4 4z" fill="#505572"/><path d="m3 22h42a0 0 0 0 1 0 0v20a2 2 0 0 1 -2 2h-38a2 2 0 0 1 -2-2v-20a0 0 0 0 1 0 0z" fill="#bf7267"/><path d="m43 22v20a2 2 0 0 1 -2 2h2a2 2 0 0 0 2-2v-20z" fill="#af5d54"/><rect fill="#cc8679" height="12" rx="2" width="44" x="2" y="12"/><path d="m44 12h-2a2 2 0 0 1 2 2v8a2 2 0 0 1 -2 2h2a2 2 0 0 0 2-2v-8a2 2 0 0 0 -2-2z" fill="#bf7267"/><g fill="#ffbc5a"><rect height="6" rx="1" width="4" x="8" y="21"/><rect height="6" rx="1" width="4" x="36" y="21"/></g></g></svg>