<svg viewBox="0 0 512 512" xmlns="http://www.w3.org/2000/svg"><g><path d="M45 196c-8.291 0-15-6.709-15-15V75c0-8.291 6.709-15 15-15s15 6.709 15 15v106c0 8.291-6.709 15-15 15z" fill="#e6f2f2"></path><path d="M437 482H331c-8.291 0-15-6.709-15-15s6.709-15 15-15h106c8.291 0 15 6.709 15 15s-6.709 15-15 15z" fill="#cfe6e6"></path><path d="M136 60H75c-8.291 0-15-6.709-15-15s6.709-15 15-15h61c8.291 0 15 6.709 15 15s-6.709 15-15 15z" fill="#e6f2f2"></path><path d="M437 60h-61c-8.291 0-15-6.709-15-15s6.709-15 15-15h61c8.291 0 15 6.709 15 15s-6.709 15-15 15z" fill="#cfe6e6"></path><path d="M226 60h-30c-8.291 0-15-6.709-15-15s6.709-15 15-15h30c8.291 0 15 6.709 15 15s-6.709 15-15 15z" fill="#e6f2f2"></path><path d="M316 60h-30c-8.291 0-15-6.709-15-15s6.709-15 15-15h30c8.291 0 15 6.709 15 15s-6.709 15-15 15zM467 151c-8.291 0-15-6.709-15-15V75c0-8.291 6.709-15 15-15s15 6.709 15 15v61c0 8.291-6.709 15-15 15zM467 452c-8.291 0-15-6.709-15-15v-61c0-8.291 6.709-15 15-15s15 6.709 15 15v61c0 8.291-6.709 15-15 15zM467 241c-8.291 0-15-6.709-15-15v-30c0-8.291 6.709-15 15-15s15 6.709 15 15v30c0 8.291-6.709 15-15 15zM467 331c-8.291 0-15-6.709-15-15v-30c0-8.291 6.709-15 15-15s15 6.709 15 15v30c0 8.291-6.709 15-15 15z" fill="#cfe6e6"></path><path d="M75 482c-8.291 0-15-6.709-15-15v-15H45c-8.291 0-15-6.709-15-15V196c0-8.284 6.716-15 15-15h271c8.284 0 15 6.716 15 15v271c0 8.284-6.716 15-15 15z" fill="#ffea80"></path><path d="M316 482c8.284 0 15-6.716 15-15V196c0-8.284-6.716-15-15-15H180v301z" fill="#ffcb66"></path><path d="M75 90H15C6.709 90 0 83.291 0 75V15C0 6.709 6.709 0 15 0h60c8.291 0 15 6.709 15 15v60c0 8.291-6.709 15-15 15z" fill="#66b3ff"></path><path d="M497 90h-60c-8.291 0-15-6.709-15-15V15c0-8.291 6.709-15 15-15h60c8.291 0 15 6.709 15 15v60c0 8.291-6.709 15-15 15zM497 512h-60c-8.291 0-15-6.709-15-15v-60c0-8.291 6.709-15 15-15h60c8.291 0 15 6.709 15 15v60c0 8.291-6.709 15-15 15z" fill="#4d88ff"></path><path d="M75 512H15c-8.291 0-15-6.709-15-15v-60c0-8.291 6.709-15 15-15h60c8.291 0 15 6.709 15 15v60c0 8.291-6.709 15-15 15z" fill="#66b3ff"></path><path d="M376 121h-60c-8.291 0-15 6.709-15 15s6.709 15 15 15h23.789L151 339.789V316c0-8.291-6.709-15-15-15s-15 6.709-15 15v60c0 8.272 6.79 15 15 15h60c8.291 0 15-6.709 15-15s-6.709-15-15-15h-23.789L361 172.211V196c0 8.291 6.709 15 15 15s15-6.709 15-15v-60c0-8.206-6.727-15-15-15z" fill="#5c5c99"></path></g></svg>