<svg viewBox="0 0 512 512" xmlns="http://www.w3.org/2000/svg"><g><path d="M272.274 317.2a13.89 13.89 0 0 1-11.423-5.958c-19.362-27.787-47.49-49.634-79.204-61.519-4.409-1.653-8.905-3.133-13.664-4.7-12.363-4.07-25.146-8.28-36.999-15.831-39.133-24.928-52.147-76.232-29.626-116.799 3.728-6.715 12.193-9.137 18.91-5.408 6.715 3.727 9.137 12.194 5.409 18.909-15.394 27.729-6.499 62.799 20.251 79.839 8.916 5.679 19.525 9.172 30.756 12.87 4.813 1.585 9.79 3.223 14.726 5.073 36.943 13.845 69.709 39.296 92.264 71.664 4.391 6.302 2.842 14.97-3.46 19.361a13.843 13.843 0 0 1-7.94 2.499z" fill="#f89580"></path><path d="M440.902 213.518c-3.687-3.721-3.532-9.755.32-13.306 1.192-1.099 2.385-2.198 3.583-3.295 24.291-22.249 41.132-53.15 39.98-88.989C482.872 48.448 433.935.513 374.426.004c-61.964-.53-112.361 49.541-112.361 111.383 0 4.973 1.509 27.289 2.34 39.192a8.663 8.663 0 0 1-6.87 9.081c-4.962 1.037-7.988 6.091-6.533 10.947 7.11 23.719 30.908 85.446 85.108 81.134 9.423-.75 17.945-2.08 25.752-3.874l-1.941 11.309-77.428 28.694-74.444 102.478v41.244c0 62.991 95.318 134.305 205.245 19.382 81.671-85.384 67.773-196.928 27.608-237.456z" fill="#ffcebf"></path><path d="M441.221 200.212c1.192-1.099 2.385-2.198 3.583-3.295 24.291-22.249 41.132-53.15 39.98-88.989C482.872 48.448 433.935.513 374.426.004c-3.827-.033-7.61.129-11.34.473 55.244 5.1 99.282 51.088 101.094 107.45 1.152 35.84-15.688 66.74-39.98 88.989a1427.344 1427.344 0 0 0-3.583 3.295c-3.851 3.551-4.007 9.586-.32 13.306 40.166 40.528 54.064 152.072-27.609 237.457-38.187 39.923-74.609 57.365-105.887 60.495 35.32 3.674 79.574-11.446 126.491-60.495 81.673-85.385 67.775-196.929 27.609-237.457-3.687-3.719-3.531-9.754.32-13.305z" fill="#ffb09e"></path><path d="m373.268 301.941-47.118 9.606-43.458-6.404-23.548 20.408 6.07 7.083c14.353 16.749 37.776 22.503 58.256 14.312l45.532-18.311a12.938 12.938 0 0 0 7.563-15.73z" fill="#ffb09e"></path><path d="M422.077 246.591c-8-19.34-30.343-28.776-50.03-20.353l-81.139 35.613a12.06 12.06 0 0 1-13.899-3.208l-38.396-44.564c-9.115-10.579-25.059-11.818-35.698-2.774-10.72 9.113-11.992 25.202-2.836 35.886l58.77 68.578c14.353 16.749 37.776 22.503 58.256 14.312l83.938-33.756c19.658-7.818 29.123-30.193 21.034-49.734z" fill="#ffcebf"></path><path d="m222.564 224.419 45.781 53.423a12.06 12.06 0 0 0 13.899 3.208l81.139-35.613c19.686-8.424 42.029 1.013 50.03 20.353a37.861 37.861 0 0 1 2.502 9.101c.459 3.192 4.849 3.814 6.096.84 3.767-8.985 4.094-19.412.067-29.139-8-19.34-30.343-28.776-50.03-20.353l-81.139 35.613a12.06 12.06 0 0 1-13.899-3.208l-37.996-44.1c-9.104-10.567-25.601-12.243-36.187-3.161a25.451 25.451 0 0 0-4.243 4.664c8.621-1.629 17.847 1.253 23.98 8.372z" fill="#ffb09e"></path><path d="M307.304 154.127a26.794 26.794 0 0 1-14.319-4.148 7.727 7.727 0 0 1 8.25-13.066 11.39 11.39 0 0 0 8.067 1.587 11.27 11.27 0 0 0 6.663-3.789 7.725 7.725 0 0 1 10.896-.821 7.726 7.726 0 0 1 .821 10.895 26.915 26.915 0 0 1-20.378 9.342zM381.015 185.286c-1.054 0-2.114-.054-3.177-.165a30.263 30.263 0 0 1-12.268-4.022 7.726 7.726 0 1 1 7.813-13.332 14.895 14.895 0 0 0 6.043 1.984c4.283.443 8.525-.971 11.954-3.98 3.596-3.155 5.861-7.651 6.378-12.658 1.046-10.112-5.477-19.101-14.54-20.038-3.194-.329-6.399.377-9.266 2.044a7.726 7.726 0 1 1-7.768-13.358c5.714-3.322 12.157-4.724 18.624-4.056 17.539 1.814 30.244 18.411 28.322 36.998-.92 8.894-5.025 16.951-11.557 22.683-5.872 5.152-13.074 7.9-20.558 7.9z" fill="#f89580"></path><path d="M214.688 289.215h-56.02a6.842 6.842 0 0 1-5.159-2.349l-11.725-13.474a24.102 24.102 0 0 0-18.179-8.276h-.778c-13.309 0-24.1 10.789-24.1 24.099v52.017c0 7.914 6.416 14.33 14.33 14.33h70.109c13.743 0 24.883 11.141 24.883 24.883v19.842l82.179-13.993v-21.538c-.001-41.72-33.82-75.541-75.54-75.541z" fill="#ffcebf"></path><path d="m290.227 364.757-.004.216c0 5.604-4.543 10.147-10.147 10.147-5.051 0-9.405-3.706-10.045-8.716-4.75-37.151-36.479-65.858-74.914-65.858h-56.021a6.837 6.837 0 0 1-5.161-2.349l-11.723-13.475a24.11 24.11 0 0 0-18.183-8.272h-.773c-.299 0-.587.01-.876.021 4.255-6.82 11.814-11.353 20.447-11.353h.778a24.107 24.107 0 0 1 18.179 8.276l11.725 13.474a6.833 6.833 0 0 0 5.159 2.349h56.02c41.712-.002 75.539 33.817 75.539 75.54z" fill="#ffb09e"></path><path d="m187.22 139.104-39.639-39.639a3.526 3.526 0 0 1 0-4.988l39.639-39.639a3.526 3.526 0 0 0 0-4.988l-32.392-32.392a3.526 3.526 0 0 0-4.988 0l-39.639 39.639a3.526 3.526 0 0 1-4.988 0l-39.64-39.639a3.526 3.526 0 0 0-4.988 0L28.193 49.85a3.526 3.526 0 0 0 0 4.988l39.639 39.639a3.526 3.526 0 0 1 0 4.988l-39.639 39.639a3.526 3.526 0 0 0 0 4.988l32.392 32.392a3.526 3.526 0 0 0 4.988 0l39.639-39.639a3.526 3.526 0 0 1 4.988 0l39.639 39.639a3.526 3.526 0 0 0 4.988 0l32.392-32.392a3.527 3.527 0 0 0 .001-4.988z" fill="#fe76a8"></path></g></svg>