<svg viewBox="0 0 468 468" xmlns="http://www.w3.org/2000/svg"><g><path d="M256.268 439.389H24c-13.255 0-24-10.745-24-24V84.348c0-13.255 10.745-24 24-24h232.268c13.255 0 24 10.745 24 24v331.04c0 13.255-10.745 24.001-24 24.001z" fill="#dfdef9"></path><path d="M60.057 38.192H220.21V82.17H60.057z" fill="#ac9ef9"></path><path d="M80.077 0h120.115v38.192H80.077z" fill="#6262f4"></path><path d="M244.734 131.757H100.597a5 5 0 1 1 0-10h144.138a5 5 0 1 1-.001 10zM244.734 171.82H100.597a5 5 0 1 1 0-10h144.138a5 5 0 1 1-.001 10zM203.86 211.882H100.597a5 5 0 1 1 0-10H203.86a5 5 0 1 1 0 10zM203.86 251.945H40.539a5 5 0 1 1 0-10H203.86a5 5 0 1 1 0 10zM244.734 292.007H40.539a5 5 0 1 1 0-10h204.195a5 5 0 1 1 0 10z" fill="#ffffff"></path><path d="m103.162 467.489-27.59-24.524-27.589 24.524V363.045h55.179z" fill="#e54a91"></path><ellipse cx="75.572" cy="363.045" fill="#fdbf38" rx="40.038" ry="40.063"></ellipse><circle cx="75.572" cy="363.045" fill="#ffffff" r="20.437"></circle><path d="m311.114 384.065 34.651 34.548c7.177 7.156 18.791 7.156 25.969 0 7.208-7.186 7.208-18.86 0-26.046l-31.8-31.705 25.366 25.291c7.177 7.156 18.791 7.156 25.969 0 7.208-7.186 7.208-18.86 0-26.046L289.474 258.614l-32.558-6.492-36.718-23.624-78.14 77.906a298.569 298.569 0 0 0 45.579 58.427l86.5 86.242c7.177 7.156 18.791 7.156 25.969 0 7.208-7.186 7.208-18.86 0-26.046l-18.042-17.988 31.144 31.051c7.177 7.156 18.791 7.156 25.969 0 7.208-7.186 7.208-18.86 0-26.046z" fill="#ffd8cc"></path><path d="M365.301 390.152a3.988 3.988 0 0 1-2.824-1.167l-25.366-25.291a4 4 0 1 1 5.648-5.665l25.366 25.291a4.001 4.001 0 0 1-2.824 6.832zM339.176 416.043a3.988 3.988 0 0 1-2.824-1.167l-28.062-27.978a3.999 3.999 0 1 1 5.648-5.665L342 409.211a4.001 4.001 0 0 1-2.824 6.832zM300.106 429.028a3.988 3.988 0 0 1-2.824-1.167l-18.043-17.989a4 4 0 1 1 5.648-5.665l18.043 17.989a4.001 4.001 0 0 1-2.824 6.832z" fill="#ffc3b3"></path><path d="m134.895 313.546-24.537-24.469 92.465-92.189 24.538 24.469zM443.463 316.73 468 292.261 362.507 187.088l-24.538 24.468z" fill="#e54a91"></path><path d="M198.7 351.354c-7.199-7.025-18.706-6.964-25.829.138l-11.794 11.759c-7.208 7.186-7.208 18.86 0 26.046 7.177 7.156 18.791 7.156 25.969 0l11.794-11.759c7.263-7.24 7.2-19.021-.14-26.184zM199.197 377.183l-12.073 12.037c-7.208 7.186-7.208 18.86 0 26.047 7.177 7.156 18.791 7.156 25.969 0l12.073-12.037c7.262-7.241 7.199-19.022-.14-26.185-7.199-7.025-18.706-6.963-25.829.138zM248.834 431.569l-5.032 5.017c-7.262 7.241-7.199 19.022.14 26.184 7.199 7.025 18.706 6.964 25.829-.138l5.032-5.017c7.436-7.414 7.165-19.538-.594-26.613-7.254-6.613-18.423-6.363-25.375.567z" fill="#ffc3b3"></path><path d="m251.551 402.931-.395-.385c-7.091-6.92-18.425-6.859-25.441.136l-12.74 12.702c-7.1 7.078-7.1 18.577 0 25.656l.39.389c7.07 7.049 18.507 7.052 25.576.003l12.747-12.709c7.154-7.132 7.092-18.737-.137-25.792zM344.053 217.622l-35.639 24.7-14.402 2.872a61.315 61.315 0 0 0-31.274 16.684l-39.268 39.105c-3.6 3.585-3.602 9.414-.004 13.001 12.73 12.692 33.354 12.663 46.027-.046 4.312-4.324 7.501-7.516 7.501-7.516a62.471 62.471 0 0 0 48.847-10.256l.693-.493 62.324 62.133a72.64 72.64 0 0 0 27.988-21.797l20.103-25.771z" fill="#ffc3b3"></path><path d="m326.366 295.045 18.555-15.824 5.192 6.088-18.555 15.824z" fill="#ffaa99"></path><path d="M350.167 160.193c-11.851 0-21.459-9.607-21.459-21.458V39.64L350.025 0l21.601 39.583v99.152c0 11.851-9.607 21.458-21.459 21.458z" fill="#25b79b"></path><path d="M371.626 39.583 350.025 0 328.71 39.639l42.916-.004zM414.951 165.562l-5.937 1.258 6.866 1.947a10.22 10.22 0 0 1 7.189 7.624l1.273 5.756 1.273-5.756a10.22 10.22 0 0 1 7.189-7.624l6.866-1.947-5.937-1.258a10.22 10.22 0 0 1-7.81-7.578l-1.581-6.491-1.581 6.491a10.221 10.221 0 0 1-7.81 7.578z" fill="#fdbf38"></path><path d="m255.798 17.559-5.81 1.231 6.719 1.906a9.999 9.999 0 0 1 7.035 7.461l1.246 5.633 1.246-5.633a9.999 9.999 0 0 1 7.035-7.461l6.719-1.906-5.81-1.231a10 10 0 0 1-7.643-7.417l-1.547-6.352-1.547 6.352a10 10 0 0 1-7.643 7.417z" fill="#e54a91"></path></g></svg>