<svg viewBox="0 0 511.561 511.561" xmlns="http://www.w3.org/2000/svg"><g><path d="M185.996 323.092c-9.887 0-17.903-8.012-17.907-17.9l-.03-81.832 17.922-20.498 17.892 20.498.03 81.818c.004 9.89-8.01 17.91-17.9 17.914h-.007z" fill="#823214"></path><path d="M84.799 505.353c-11.997 0-21.723-9.726-21.723-21.723V309.997c0-11.997 9.726-21.723 21.723-21.723s21.723 9.726 21.723 21.723V483.63c0 11.997-9.726 21.723-21.723 21.723z" fill="#3c698c"></path><path d="M137.234 505.353c-11.997 0-21.723-9.726-21.723-21.723V309.997c0-11.997 9.726-21.723 21.723-21.723s21.723 9.726 21.723 21.723V483.63c0 11.997-9.726 21.723-21.723 21.723z" fill="#194664"></path><path d="m128.981 140.207-.602-3.691H92.887l-.551 4.338c-1.404 11.063 7.217 20.849 18.37 20.849 11.415 0 20.112-10.229 18.275-21.496zM54.732 223.625l-12.218-6.655 3.745-7.031-10.494-15.86-21.228-1.596-12.409 23.296c-4.669 8.766-1.403 19.656 7.318 24.407l45.285 24.667v-41.228z" fill="#823214"></path><path d="M203.858 182.416c-.011-28.261-16.676-45.851-44.905-45.898v-.002H128.38c.341 9.529-8.511 17.618-17.753 17.618-9.905 0-17.246-8.059-17.739-17.618H69.212a41.344 41.344 0 0 0-36.558 21.948l-18.119 34.019 31.723 17.456 16.809-31.56v93.491l3.952 6.85-3.952 6.85v24.427h95.885V285.57l-2.038-6.85 2.038-6.85v-99.535c5.035.017 9.334 3.666 9.091 10.095l.015 40.929h35.815z" fill="#64afff"></path><path d="M148.432 194.649c.003-.096.013-.191.013-.286 0-.211-.007-.419-.013-.628v-14.63a3.152 3.152 0 0 0-3.152-3.152h-20.846a3.152 3.152 0 0 0-3.152 3.152v14.631c-.007.208-.013.417-.013.627 0 .095.01.19.013.286v.372h.017c.487 6.584 8.115 12.855 11.71 15.461 1.104.8 2.591.8 3.694 0 3.594-2.606 11.222-8.877 11.71-15.461h.017v-.372z" fill="#ffc305"></path><circle cx="111.253" cy="86.599" fill="#823214" r="38.816"></circle><path d="M140.542 42.794 84.55 49.809c-6.69 0-12.113 5.423-12.113 12.113v20.304h80.217V54.907c0-6.69-5.423-12.113-12.112-12.113z" fill="#194664"></path><path d="M169.516 66.017h-28.712c-8.952 0-16.208 7.257-16.208 16.208h61.129c-.001-8.951-7.258-16.208-16.209-16.208z" fill="#194664"></path><path d="M63.068 271.871h95.885v13.699H63.068z" fill="#50555a"></path><path d="m88.585 294.222-9.484-4.476 9.709-20.574c2.153-4.561.2-10.004-4.362-12.157a9.132 9.132 0 0 0-12.157 4.362l-9.709 20.574-9.485-4.476a9.133 9.133 0 1 0-7.795 16.518l9.484 4.476-37.816 80.132c-2.153 4.561-.2 10.004 4.362 12.157 4.541 2.144 9.995.22 12.157-4.361l37.816-80.132 9.485 4.476c4.541 2.144 9.995.22 12.157-4.362a9.132 9.132 0 0 0-4.362-12.157z" fill="#373c41"></path><path d="M67.052 271.564 9.447 240.186c-8.78-4.782-12.02-15.777-7.238-24.556 4.782-8.78 15.777-12.02 24.556-7.238l57.606 31.378c8.78 4.782 12.02 15.777 7.238 24.556-4.767 8.752-15.75 12.035-24.557 7.238z" fill="#823214"></path><path d="M446.907 505.353c-12.041 0-21.802-9.761-21.802-21.802v-173.63c0-12.041 9.761-21.802 21.802-21.802s21.802 9.761 21.802 21.802v173.63c0 12.041-9.761 21.802-21.802 21.802z" fill="#373c41"></path><path d="M394.628 505.353c-12.041 0-21.802-9.761-21.802-21.802v-173.63c0-12.041 9.761-21.802 21.802-21.802s21.802 9.761 21.802 21.802v173.63c0 12.041-9.761 21.802-21.802 21.802z" fill="#50555a"></path><path d="M469.051 135.355h-22.796l-25.76 9.084-25.76-9.084H372.484c-23.44 0-42.51 19.07-42.51 42.51V303.2l18.036 7.431 18.035-7.431V177.865a6.447 6.447 0 0 1 6.439-6.439h.342v18.212l5.294 18.468-5.294 18.468v82.555h95.883v-82.555l-4.845-18.468 4.845-18.468v-18.212h.342a6.447 6.447 0 0 1 6.439 6.439V303.2l18.036 6.877 18.036-6.877V177.865c-.001-23.44-19.071-42.51-42.511-42.51z" fill="#00558c"></path><path d="m347.845 306.937-17.871 5.584v2.074c0 9.961 8.075 18.036 18.036 18.036s18.035-8.075 18.035-18.036v-2.074zM493.525 307.86l-18.036 4.661v2.074c0 9.961 8.075 18.036 18.036 18.036s18.036-8.075 18.036-18.036v-2.074z" fill="#ba6746"></path><path d="M329.974 303.2h36.071v9.321h-36.071zM475.49 303.2h36.071v9.321H475.49zM420.495 177.39l-6.977 2.675c-12.948-9.852-18.783-44.709-18.783-44.709h51.52s-5.835 34.857-18.783 44.709z" fill="#ffffff"></path><circle cx="419.682" cy="86.968" fill="#ba6746" r="37.517"></circle><path d="M383.017 52.769c1.142-3.077 17.039-5.519 36.664-5.519 19.64 0 35.536 2.442 36.665 5.519h.22v20.679c-.014 8.381-16.516 19.302-36.885 19.302s-36.857-10.921-36.871-19.302V52.769z" fill="#373c41"></path><path d="M456.888 18.805c-10.561-8.123-23.775-12.597-37.207-12.597-13.427 0-26.638 4.474-37.201 12.597-10.281 7.906-16.419 18.275-16.419 27.736 0 23.376 32.268 23.376 53.62 23.376 21.353 0 53.621 0 53.621-23.376 0-9.462-6.136-19.831-16.414-27.736z" fill="#00558c"></path><ellipse cx="419.681" cy="58.039" fill="#ffc305" rx="12.332" ry="18.057"></ellipse><g fill="#373c41"><path d="M425.202 153.524h-9.415a2.824 2.824 0 0 1-2.777-2.311l-2.312-12.521a2.824 2.824 0 0 1 2.777-3.336h14.039a2.824 2.824 0 0 1 2.777 3.336l-2.312 12.521a2.824 2.824 0 0 1-2.777 2.311zM427.139 158.326a2.315 2.315 0 0 0-2.271-1.868h-8.745a2.314 2.314 0 0 0-2.271 1.868l-2.28 11.592c-.06.305-.058.619.006.924l1.942 9.221c2.131 1.622 4.454 2.567 6.977 2.567 2.522 0 4.846-.945 6.977-2.567l1.942-9.221c.064-.304.066-.619.006-.924zM486.604 144.44h-31.911a2.89 2.89 0 0 1-2.89-2.89v-7.818a2.89 2.89 0 0 1 2.89-2.89h31.911a2.89 2.89 0 0 1 2.89 2.89v7.818a2.89 2.89 0 0 1-2.89 2.89zM387.102 144.44h-31.911a2.89 2.89 0 0 1-2.89-2.89v-7.818a2.89 2.89 0 0 1 2.89-2.89h31.911a2.89 2.89 0 0 1 2.89 2.89v7.818a2.89 2.89 0 0 1-2.89 2.89z" fill="#373c41"></path></g><path d="M372.825 189.639h34.524v36.936h-34.524z" fill="#004673"></path><path d="m389.992 204.345-17.167-14.706h34.524z" fill="#004c7d"></path><path d="M434.185 189.639h34.524v36.936h-34.524z" fill="#004673"></path><path d="m451.351 204.345-17.166-14.706h34.524z" fill="#004c7d"></path><path d="M230.783 505.353c-12.036 0-21.794-9.758-21.794-21.794V309.357c0-12.036 9.758-21.794 21.794-21.794s21.794 9.758 21.794 21.794v174.202c0 12.036-9.758 21.794-21.794 21.794z" fill="#748488"></path><path d="M283.374 505.353c-12.036 0-21.794-9.758-21.794-21.794V309.357c0-12.036 9.758-21.794 21.794-21.794s21.794 9.758 21.794 21.794v174.202c0 12.036-9.758 21.794-21.794 21.794z" fill="#55696e"></path><path d="M305.179 173.701a8.947 8.947 0 0 1 2.603 3.525l17.659 43.449 23.144 3.992 11.462-15.319-18.614-45.799c-6.973-17.156-23.446-28.242-41.965-28.242h-84.86c-18.519 0-34.992 11.086-41.964 28.242l-18.615 45.799 11.863 16.278 22.814-5.127 17.589-43.273a8.951 8.951 0 0 1 2.686-3.591v135.72h96.199V173.701z" fill="#ffda52"></path><circle cx="257.527" cy="119.357" fill="#ffb69e" r="37.641"></circle><path d="M257.039 334.672c-25.537 0-46.314-20.776-46.314-46.314h11.041c0 19.45 15.824 35.273 35.273 35.273s35.272-15.823 35.272-35.273h11.041c0 25.537-20.777 46.314-46.313 46.314z" fill="#87afb9"></path><path d="m241.173 265.955-4.864-3.638-7.053-2.464-4-5.802-38.487-28.786 1.937-4.766-34.676-11.151-6.188 15.226a18.16 18.16 0 0 0 5.947 21.382l49.666 37.146 7.498 2.115 3.555 6.151 4.912 3.674c8.016 5.996 19.402 4.382 25.422-3.666 6.005-8.032 4.364-19.413-3.669-25.421zM360.047 209.349l-34.606 11.326 1.866 4.59-38.94 29.124-4.458 5.682-6.594 2.585-4.411 3.299c-8.033 6.007-9.674 17.389-3.667 25.421 6.028 8.059 17.416 9.656 25.422 3.666l4.483-3.353 4.249-5.6 6.803-2.666 50.094-37.466a18.161 18.161 0 0 0 5.948-21.382z" fill="#ffb69e"></path><path d="m203.46 282.998 21.794-29.058 11.042 8.281-21.794 29.059zM299.141 291.69l11.052-8.267-21.826-29.034-11.053 8.267z" fill="#87afb9"></path></g></svg>