<svg viewBox="0 0 512 512" xmlns="http://www.w3.org/2000/svg"><g><path d="M222 436.02H79.434c-18.055 0-32.688-14.633-32.688-32.688V32.688C46.746 14.637 61.38 0 79.434 0h317.82zm0 0" fill="#494a59"></path><path d="M191.094 118.613V436.02H222L397.254 0h-62.598L223.367 63.18c-19.906 11.3-32.273 32.543-32.273 55.433zm0 0" fill="#3f404d"></path><path d="M80.887 34.14h272.468V401.88H80.887zm0 0" fill="#ecebed"></path><path d="M235.723 401.879 353.355 109.21V34.14h-78.84L223.368 63.18c-19.906 11.3-32.273 32.543-32.273 55.433V401.88zm0 0" fill="#dfdfe0"></path><path d="M238.625 90.055 397.254 0v436.02l-126.207 71.652C249.157 520.098 222 504.285 222 479.117V118.613a32.841 32.841 0 0 1 16.625-28.558zm0 0" fill="#64c6fb"></path><path d="M304.75 280.086c0 13.3-10.785 24.086-24.086 24.086-13.3 0-24.086-10.785-24.086-24.086 0-13.3 10.785-24.086 24.086-24.086 13.3 0 24.086 10.785 24.086 24.086zm0 0" fill="#ecebed"></path><path d="M15.355 203.703h98.98v-16.937c0-8.266 9.731-12.688 15.958-7.246l62.414 54.57c4.383 3.832 4.383 10.652 0 14.488l-62.414 54.567c-6.223 5.44-15.957 1.02-15.957-7.247v-16.937h-98.98C6.874 278.96 0 272.09 0 263.609v-44.55c0-8.48 6.875-15.356 15.355-15.356zm0 0" fill="#b6d97a"></path></g></svg>