<svg viewBox="0 0 512.001 512.001" xmlns="http://www.w3.org/2000/svg"><g><path d="M215.132 76.116a7.612 7.612 0 0 1-7.193-5.131l-20.994-60.892a7.612 7.612 0 0 1 14.393-4.961l12.175 35.315 7.582-34.47a7.612 7.612 0 0 1 14.868 3.27L222.57 70.139a7.61 7.61 0 0 1-7.438 5.977z" fill="#2b4d66"></path><path d="M398.815 283.65h-285.63c-11.047 0-20.002-8.955-20.002-20.002V149.861c0-67.352 54.599-121.951 121.951-121.951h81.731c67.352 0 121.951 54.599 121.951 121.951v113.787c.001 11.047-8.954 20.002-20.001 20.002z" fill="#365e7d"></path><path d="M296.866 27.91h-35.18c67.352 0 121.951 54.599 121.951 121.951v113.787c0 11.047-8.955 20.002-20.002 20.002h35.18c11.047 0 20.002-8.955 20.002-20.002V149.861c0-67.352-54.599-121.951-121.951-121.951z" fill="#2b4d66"></path><path d="M302.451 370.458H209.55c-37.969 0-68.749 30.78-68.749 68.749v64.038a8.756 8.756 0 0 0 8.756 8.756h212.888a8.756 8.756 0 0 0 8.756-8.756v-64.038c-.001-37.969-30.781-68.749-68.75-68.749z" fill="#ffe07d"></path><path d="M302.451 370.458h-33.498c37.969 0 68.749 30.78 68.749 68.749v64.038a8.756 8.756 0 0 1-8.756 8.756h33.499a8.756 8.756 0 0 0 8.756-8.756v-64.038c-.001-37.969-30.781-68.749-68.75-68.749z" fill="#ffd064"></path><path d="m275.162 319.765-36.759-2.162c-9.385 0-9.797 43.972-9.797 43.972v26.918c0 15.116 12.254 27.371 27.371 27.371 15.116 0 27.371-12.254 27.371-27.371v-26.918c-.002 0 1.199-41.81-8.186-41.81z" fill="#eaac9d"></path><path d="M256.001 370.458c-72.946 0-132.079-59.134-132.079-132.079v-69.737a3.477 3.477 0 0 1 3.478-3.47c61.129-.112 115.156-8.868 163.348-40.009 1.44-.93 3.364-.633 4.396.736 21.762 28.891 51.444 36.886 89.476 39.087a3.661 3.661 0 0 1 3.462 3.648v69.745c-.002 72.945-59.136 132.079-132.081 132.079z" fill="#ffcbbe"></path><path d="M384.618 164.986c-11.191-.648-21.653-1.804-31.409-3.84v77.233c0 67.034-49.94 122.399-114.644 130.932A133.193 133.193 0 0 0 256 370.458c72.945 0 132.079-59.134 132.079-132.079v-69.745a3.66 3.66 0 0 0-3.461-3.648z" fill="#eaac9d"></path><path d="M219.329 235.911a7.61 7.61 0 0 1-7.611-7.611v-5.368c0-4.204 3.407-7.611 7.611-7.611s7.611 3.407 7.611 7.611v5.368a7.61 7.61 0 0 1-7.611 7.611z" fill="#365e7d"></path><path d="M234.175 222.884h-45.681c-4.204 0-7.611-3.407-7.611-7.611s3.407-7.611 7.611-7.611h45.681c4.204 0 7.611 3.407 7.611 7.611s-3.407 7.611-7.611 7.611z" fill="#2b4d66"></path><path d="M317.923 235.911a7.611 7.611 0 0 1-7.612-7.611v-5.368c0-4.204 3.407-7.611 7.612-7.611s7.611 3.407 7.611 7.611v5.368a7.61 7.61 0 0 1-7.611 7.611z" fill="#365e7d"></path><path d="M332.768 222.884h-45.681a7.611 7.611 0 1 1 0-15.222h45.681c4.204 0 7.611 3.407 7.611 7.611s-3.407 7.611-7.611 7.611z" fill="#2b4d66"></path><path d="M225.448 297.276a7.612 7.612 0 0 1-6.009-12.278c9.166-11.812 24.51-19.41 41.048-20.326 16.536-.914 32.628 4.94 43.042 15.668a7.61 7.61 0 0 1-.161 10.763 7.61 7.61 0 0 1-10.763-.161c-7.386-7.609-19.084-11.743-31.276-11.071-12.198.676-23.362 6.081-29.862 14.459a7.6 7.6 0 0 1-6.019 2.946z" fill="#da4a54"></path></g></svg>