<svg viewBox="0 0 512 512" xmlns="http://www.w3.org/2000/svg"><g><path d="M424 344h34l12.4 23 25.3 80.7 9.5 16.2c1.2 2 1.8 4.3 1.8 6.6 0 4.6-2.5 8.9-6.4 11.2l-41.1 24.1c-1.3.8-2.7 1.1-4.2 1.1-6.4 0-10.4-6.8-7.3-12.4l22.1-40.1z" fill="#e96b4e"></path><path d="m183 323-14.1 148.2c-1.9 20.3-19 35.8-39.4 35.8-4.7 0-9.3-.8-13.7-2.5L44 478v-14l-13-7.1-8.1 42.8c-.8 4.3-4.5 7.4-8.9 7.4-5 0-9.1-4.1-9.1-9.1v-56.9c0-5 4.1-9.1 9.1-9.1h13.8l90.4 22.3L113 323z" fill="#b23998"></path><path d="m436.5 465 4.5-79.5-4.9-41.5h-36.3l10.7 122-33.6 19.1c-3.7 2.1-5.9 6-5.9 10.2 0 6.5 5.2 11.7 11.7 11.7h41.8c9.1 0 16.5-7.4 16.5-16.5 0-1-.1-2-.3-3z" fill="#ef917b"></path><path d="M382.7 507h41.8c9.1 0 16.5-7.4 16.5-16.5 0-1-.1-2-.3-3l-4-21.5h-26.2l-33.6 19.1c-3.7 2.1-5.9 6-5.9 10.2 0 6.5 5.2 11.7 11.7 11.7z" fill="#ffcb5c"></path><path d="M371 34c0-11.5 7-21.8 17.6-26 4.9-2 10.1-3 15.3-3h3.9c12.2 0 23.9 5 32.3 13.9 6 6.3 10 14.3 11.5 22.9l2.1 12.2c1.4 7.9 4.1 15.4 8.1 22.4 6 10.4 9.1 22.1 9.1 34.1V125h-30.3z" fill="#d84861"></path><path d="M436.1 344h-36.3l3.4 39.3c5.3.5 10.6.7 16 .7 7.2 0 14.3-.4 21.4-1.3z" fill="#e96b4e"></path><path d="M458.4 106.5 471 125c0 13.9-2 27.8-6 41.1L454 203v20l53 117-27 11.5c-19.2 8.2-39.9 12.4-60.7 12.4-15.5 0-30.9-2.3-45.7-6.9L341 347l49-124v-20l-4.4-45.5 29.6-66.4h14.1c11.7 0 22.5 5.8 29.1 15.4z" fill="#ffcb5c"></path><path d="M442 110h-35.2l-21.2 47.5 4.3 45.2v.1C447 170.1 442 110 442 110z" fill="#ffb30f"></path><path d="m141.6 176-9.8-20.4c-1.8-3.7-2.7-7.8-2.7-12 0-15.2 12.4-27.6 27.6-27.6H191c4.4 0 8 3.6 8 8v9.4c0 3.4-2.1 6.4-5.3 7.5l-6.1 2.2-26.4 32.9z" fill="#b23998"></path><path d="m186 134 3 16.5 7 10.2-4.9 7.2-4.9 18.3h-19.1l-3.6 11.8H136l5.6-22 18.6-14.7-6.2-9.3c-1.6-2.4-1.7-5.5-.2-8 1.5-2.6 4.4-4.1 7.4-3.8l5.4.6 3.5-6.7H186zM371 34l6.3 21-6.3 15.8 7.7 1.3 9.8 16.2 11.4-6.3 15.4 16H431l-8.4-22-15.8-7L385 34z" fill="#ef917b"></path><path d="m173.5 208.3-3.4-11.7-30.2-13.9-11.4 9.5c-12.7 7.6-20.4 21.3-20.4 36.1 0 6 .4 11.9 1.2 17.9l3.8 29.6V323h70v-88.2c0-6.3-1.9-12.5-5.4-17.8-1.9-2.6-3.3-5.6-4.2-8.7z" fill="#db3429"></path><path d="M129 237.9s0 63.4 54 68.7V238z" fill="#b3271e"></path><path d="m163.8 406.1 11.5-1.3L183 323h-70l2.8 68.8c13.3 11.1 30.6 16.4 48 14.3z" fill="#8b2d77"></path><path d="M275 348.3c0 2.5-.4 5.1-1.1 7.5L244 452h-15.2l-6.9 14.9 47 20.4c3.7 1.6 6.2 5.3 6.2 9.4 0 5.7-4.6 10.2-10.2 10.2h-63.2c-6.6 0-11.5-6.1-10-12.5l6.6-28.7 21.7-86.2-58.3 6.7c-12.7 1.5-25.3-2.7-34.6-11.4-8.8-8.2-13.9-19.8-13.9-31.8v-20h136.7c13.8 0 25.1 11.3 25.1 25.3z" fill="#b23998"></path><path d="M201.5 507h63.2c5.7 0 10.2-4.6 10.2-10.2 0-4.1-2.4-7.8-6.2-9.4l-47-20.4 6.9-14.9H202l-.7 1.3-3.2 12.5-6.6 28.7c-1.4 6.3 3.5 12.4 10 12.4zM14.1 432c-5 0-9.1 4.1-9.1 9.1V498c0 5 4.1 9.1 9.1 9.1 4.4 0 8.1-3.1 8.9-7.4l8.1-42.8 13 7.1v-28L28 432z" fill="#db3429"></path><path d="M421.8 90c-7.7 0-14.7 4.3-18.1 11.2l-24.1 48.3-5.8-54.5L352 69v15.5l8 16.9-1.1 80.6c-.1 7.2 5.7 13 12.8 13 3.4 0 6.7-1.4 9.2-3.8l47.9-48.8c8.5-8.6 13.2-20.2 13.2-32.2C442 99 433 90 421.8 90z" fill="#ef917b"></path><path d="M256 27.6c-12.5-32.1-45-30.1-45 6.3S256 95 256 95s45-24.7 45-61.1-32.5-38.4-45-6.3zM390 203h64v20h-64z" fill="#d84861"></path><path d="M316 188h10v37h-10z" fill="#c12944"></path><path d="M301 210h40v30h-40z" fill="#d84861"></path><path d="m208.3 258.2-34.1-36.3c-5.3-5.6-12.6-8.8-20.3-8.8-13.7 0-24.9 11.1-24.9 24.9 0 8.9 4.7 17.1 12.4 21.5l64.4 37.1c2.8 1.6 6.1 2.5 9.4 2.5 3 0 5.9-.7 8.5-2l61.5-31.3-4.1-9.6 10.1-6.1H341v-29.2l-12.3 16.5-26-5.7 5-18.6h-9.3l-23 18.4z" fill="#db3429"></path><path d="m271 233.2 10 22.9 10.2-6.1H341v-29l-12.3 16.3-26-5.7 5-18.6H298z" fill="#ef917b"></path><path d="M447.9 494.6c-3.1 5.6 1 12.4 7.3 12.4 1.5 0 2.9-.4 4.2-1.1l41.1-24.1c4-2.3 6.4-6.6 6.4-11.2 0-2.3-.6-4.6-1.8-6.6l-9.5-16.2-25.8 6.8z" fill="#ffb30f"></path></g></svg>