<svg viewBox="0 0 464 464" xmlns="http://www.w3.org/2000/svg"><g><path d="M32 160h400c17.672 0 32 14.328 32 32v240c0 17.672-14.328 32-32 32H32c-17.672 0-32-14.328-32-32V192c0-17.672 14.328-32 32-32zm0 0" fill="#cfdfe8"></path><path d="M360 208c-13.254 0-24 10.746-24 24v56h-80v-56c0-13.254-10.746-24-24-24s-24 10.746-24 24v56h-80v-56c0-13.254-10.746-24-24-24s-24 10.746-24 24v168c0 13.254 10.746 24 24 24s24-10.746 24-24v-64h80v64c0 13.254 10.746 24 24 24s24-10.746 24-24v-64h80v64c0 13.254 10.746 24 24 24s24-10.746 24-24V232c0-13.254-10.746-24-24-24zm0 0" fill="#5a6470"></path><g fill="#143441"><path d="M32 224a8 8 0 0 1-8-8v-24a8 8 0 0 1 8-8h24a8 8 0 0 1 0 16H40v16a8 8 0 0 1-8 8zM56 440H32a8 8 0 0 1-8-8v-24a8 8 0 0 1 16 0v16h16a8 8 0 0 1 0 16zM432 440h-24a8 8 0 0 1 0-16h16v-16a8 8 0 0 1 16 0v24a8 8 0 0 1-8 8zM432 224a8 8 0 0 1-8-8v-16h-16a8 8 0 0 1 0-16h24a8 8 0 0 1 8 8v24a8 8 0 0 1-8 8zm0 0" fill="#143441"></path></g><path d="M216 88H112a8 8 0 0 1 0-16h104a8 8 0 0 1 0 16zM216 56h-32a8 8 0 0 1 0-16h32a8 8 0 0 1 0 16zM152 56H80a8 8 0 0 1 0-16h72a8 8 0 0 1 0 16zm0 0" fill="#cfdfe8"></path><path d="M288 104h48v232h-48zm0 0" fill="#143441"></path><path d="M376 64c0 35.348-28.652 64-64 64s-64-28.652-64-64 28.652-64 64-64 64 28.652 64 64zm0 0" fill="#2d75bb"></path><path d="M344 72a8 8 0 0 1-8-8c.34-6.473-2.086-12.785-6.672-17.363S318.422 39.645 311.953 40a7.998 7.998 0 0 1-7.976-8.023c.011-4.418 3.605-7.989 8.023-7.977a38.558 38.558 0 0 1 28.73 11.27A38.558 38.558 0 0 1 352 64a8 8 0 0 1-8 8zm0 0" fill="#ffffff"></path></g></svg>