<svg viewBox="0 0 512 512" xmlns="http://www.w3.org/2000/svg"><g><path d="M368 64H144c-17.673 0-32 14.327-32 32v368c0 17.673 14.327 32 32 32h224c17.673 0 32-14.327 32-32V96c0-17.673-14.327-32-32-32z" fill="#23aae6"></path><path d="M256 64H144c-17.673 0-32 14.327-32 32v368c0 17.673 14.327 32 32 32h112c17.673 0 32-14.327 32-32V96c0-17.673-14.327-32-32-32z" fill="#5ad7ff"></path><path d="M309.333 64H202.667V32c0-8.837 7.163-16 16-16h74.667c8.837 0 16 7.163 16 16v32z" fill="#d7e6f0"></path><path d="M256 32h53.333v32H256z" fill="#a5c3dc"></path><path d="M360 464H152a8 8 0 0 1-8-8V104a8 8 0 0 1 8-8h208a8 8 0 0 1 8 8v352a8 8 0 0 1-8 8z" fill="#463c4b"></path><path d="M336 400H176c-8.837 0-16 7.163-16 16v16c0 8.837 7.163 16 16 16h160c8.837 0 16-7.163 16-16v-16c0-8.837-7.163-16-16-16zM336 336H176c-8.837 0-16 7.163-16 16v16c0 8.837 7.163 16 16 16h160c8.837 0 16-7.163 16-16v-16c0-8.837-7.163-16-16-16zM336 272H176c-8.837 0-16 7.163-16 16v16c0 8.837 7.163 16 16 16h160c8.837 0 16-7.163 16-16v-16c0-8.837-7.163-16-16-16z" fill="#4b9641"></path><path d="M248 400h-72c-8.837 0-16 7.163-16 16v16c0 8.837 7.163 16 16 16h72c8.837 0 16-7.163 16-16v-16c0-8.837-7.163-16-16-16zM248 336h-72c-8.837 0-16 7.163-16 16v16c0 8.837 7.163 16 16 16h72c8.837 0 16-7.163 16-16v-16c0-8.837-7.163-16-16-16zM248 272h-72c-8.837 0-16 7.163-16 16v16c0 8.837 7.163 16 16 16h72c8.837 0 16-7.163 16-16v-16c0-8.837-7.163-16-16-16z" fill="#91c83c"></path><path d="M295.391 172.938A8 8 0 0 0 288 168h-20.901l12.49-37.47a8.002 8.002 0 0 0-3.383-9.336 8.005 8.005 0 0 0-9.863 1.148l-48 48A8 8 0 0 0 224 184h20.901l-12.49 37.47a8.002 8.002 0 0 0 7.587 10.53c2.067 0 4.116-.8 5.659-2.343l48-48a8.001 8.001 0 0 0 1.734-8.719z" fill="#faa019"></path></g></svg>