<svg viewBox="0 0 451.74 451.74" xmlns="http://www.w3.org/2000/svg"><g><path d="M446.324 367.381 262.857 41.692c-15.644-28.444-58.311-28.444-73.956 0L5.435 367.381c-15.644 28.444 4.267 64 36.978 64h365.511c34.133-1.422 54.044-35.556 38.4-64z" fill="#e24c4b"></path><path d="m225.879 63.025 183.467 325.689H42.413L225.879 63.025z" fill="#ffffff"></path><path d="m196.013 212.359 11.378 75.378c1.422 8.533 8.533 15.644 18.489 15.644 8.533 0 17.067-7.111 18.489-15.644l11.378-75.378c2.844-18.489-11.378-34.133-29.867-34.133-18.49-.001-31.29 15.644-29.867 34.133z" fill="#3f4448"></path><circle cx="225.879" cy="336.092" fill="#3f4448" r="17.067"></circle></g></svg>