<svg viewBox="0 0 512 512" xmlns="http://www.w3.org/2000/svg"><g><path d="m483.975 217.919-35.525 16.756v-42.257c0-7.844 6.359-14.203 14.203-14.203h7.118c7.844 0 14.203 6.359 14.203 14.203v25.501z" fill="#60b7ff"></path><path d="M390.157 179.03c-8.309-32.447-31.095-35.92-33.763-70.416-2.667-34.496-9.685-65.862-48.358-73.432s-83.673 5.573-83.673 5.573-45.001-13.144-83.673-5.573S95 74.118 92.332 108.615c-2.667 34.496-25.453 37.969-33.763 70.416-8.309 32.447 20.206 45.426 3.983 93.301-16.223 47.876 22.356 96.429 22.356 96.429h278.91s38.579-48.553 22.356-96.429c-16.224-47.876 12.292-60.855 3.983-93.302z" fill="#a79ba7"></path><path d="M390.157 179.03c-8.309-32.447-31.095-35.92-33.763-70.416-2.667-34.496-9.685-65.861-48.358-73.432-15.902-3.113-32.872-2.723-47.346-1.185 2.453.32 4.894.712 7.311 1.185 38.672 7.571 45.69 38.936 48.358 73.432 2.667 34.496 25.453 37.969 33.763 70.416 8.309 32.447-20.207 45.426-3.983 93.301 16.224 47.876-22.356 96.429-22.356 96.429h40.035s38.579-48.553 22.356-96.429 12.292-60.854 3.983-93.301z" fill="#918291"></path><path d="M408.69 504.289H40.037l20.216-102.214c6.224-31.469 33.827-54.147 65.905-54.147h41.581l54.335 14.761 58.914-14.761h7.379c32.078 0 93.883 22.678 100.107 54.147z" fill="#bbec6c"></path><path d="M388.473 402.075c-6.224-31.469-33.827-54.147-65.905-54.147h-40.035c32.078 0 59.681 22.678 65.905 54.147l20.216 102.214h40.035z" fill="#a2e62e"></path><path d="M232.003 291.496h-42.38v46.547c0 5.459-4.425 9.884-9.884 9.884h-12v20.57c0 8.326 6.749 15.075 15.075 15.075h55.998c15.836 0 28.79-6.749 28.79-15.075z" fill="#ffb09e"></path><path d="M259.103 338.044v-46.547h-27.1v46.204c0 5.648 4.579 10.227 10.227 10.227h.728c6.036 0 10.929 4.893 10.929 10.929v9.641c0 8.326-6.749 15.075-15.075 15.075h27.1c8.326 0 15.075-6.749 15.075-15.075v-20.57h-12c-5.459 0-9.884-4.426-9.884-9.884z" fill="#ffa78f"></path><path d="M146.637 223.219h-26.415c-15.403 0-27.889-12.486-27.889-27.889 0-15.403 12.486-27.889 27.889-27.889h12.484z" fill="#ffb09e"></path><path d="M231.044 305.219h-19.371c-43.612 0-78.967-35.355-78.967-78.967v-121.81h169.025l.923 121.81c0 43.612-27.998 78.967-71.61 78.967z" fill="#ffcebf"></path><path d="M300.939 223.219h27.565c15.403 0 27.889-12.486 27.889-27.889 0-15.403-12.487-27.889-27.889-27.889H316.02z" fill="#ffa78f"></path><path d="M316.016 167.44v58.814c0 43.612-35.354 78.966-78.966 78.966h-6.006c33.376-9.222 57.875-39.787 57.875-76.095V104.437z" fill="#ffb09e"></path><path d="M197.912 104.442s42.854 62.998 118.108 62.998l-10.14-73.248z" fill="#a79ba7"></path><path d="M226.592 258.479c-12.949 1.047-25.499-8.373-28.163-21.226-.56-2.7 1.451-5.247 4.208-5.247h45.701c2.682 0 4.771 2.436 4.243 5.065-2.378 11.842-13.225 21.385-25.989 21.408z" fill="#ed74b7"></path><path d="m329.262 504.289 28.27-87.253s9.671-24.55 24.55-28.27c8.699-2.175 21.977-8.645 31.505-13.644 5.918-3.105 13.169.22 14.678 6.731a6.73 6.73 0 0 0 7.674 5.117l59.016-9.946a14.609 14.609 0 0 1 16.158 9.414c2.668 7.338-.905 15.477-8.113 18.48l-77.074 32.103a13.537 13.537 0 0 0-8.253 11.039l-6.087 56.23h-82.324z" fill="#ffcebf"></path><path d="M512 391.419c0 5.742-3.409 11.169-8.998 13.492l-77.073 32.103a13.537 13.537 0 0 0-8.253 11.039l-6.087 56.235h-27.096l5.786-53.449a18.274 18.274 0 0 1 11.141-14.903l74.486-31.025c5.59-2.323 8.988-7.74 8.988-13.482 0-1.664-.284-3.348-.883-4.991a14.561 14.561 0 0 0-5.001-6.726l15.947-2.688c6.949-1.177 13.746 2.79 16.16 9.414.599 1.644.883 3.328.883 4.981z" fill="#ffb09e"></path><path d="M495.118 344.491h-57.81c-6.208 0-11.24-5.032-11.24-11.24V228.993c0-6.208 5.032-11.24 11.24-11.24h57.81c6.208 0 11.24 5.032 11.24 11.24v104.258c0 6.208-5.032 11.24-11.24 11.24z" fill="#d8ecfe"></path><path d="M495.118 217.753h-27.1c6.208 0 11.24 5.032 11.24 11.24v104.259c0 6.208-5.032 11.24-11.24 11.24h27.1c6.208 0 11.24-5.032 11.24-11.24V228.993c0-6.208-5.032-11.24-11.24-11.24z" fill="#c4e2ff"></path><path d="M224.363 212.934a7.61 7.61 0 0 1-7.611-7.611v-16.191a7.61 7.61 0 1 1 15.222 0v16.191a7.61 7.61 0 0 1-7.611 7.611z" fill="#ffb09e"></path><path d="m167.788 146.997-8.575-10.429a13.44 13.44 0 0 0-10.38-4.903H55.231c-26.299 0-47.619-21.32-47.619-47.619V47.719C7.611 21.42 28.931.1 55.231.1h64.938c28.861 0 60.049 21.32 60.049 47.619z" fill="#fffbe5"></path><path d="M145.006.1h-24.837c26.299 0 47.619 21.32 47.619 47.619v99.278l11.52 14.01c4.479 5.447 13.318 2.28 13.318-4.772V47.719C192.625 21.42 171.305.1 145.006.1z" fill="#fff8c5"></path><path d="M154.013 46.685H46.223a7.61 7.61 0 1 1 0-15.222h107.79a7.61 7.61 0 1 1 0 15.222zM154.013 74.244H46.223a7.61 7.61 0 1 1 0-15.222h107.79a7.61 7.61 0 1 1 0 15.222zM77.568 101.803H46.223a7.61 7.61 0 1 1 0-15.222h31.345a7.61 7.61 0 1 1 0 15.222z" fill="#a79ba7"></path><path d="M445.407 511.9H7.611a7.612 7.612 0 0 1 0-15.222h437.796a7.61 7.61 0 1 1 0 15.222z" fill="#a2e62e"></path><path d="M438.351 122.521h-4.814v-4.814c0-4.204-3.408-7.611-7.612-7.611s-7.611 3.408-7.611 7.611v4.814H413.5a7.612 7.612 0 1 0 0 15.223h4.814v4.814a7.612 7.612 0 0 0 15.223 0v-4.814h4.814a7.612 7.612 0 1 0 0-15.223z" fill="#cb97e7"></path><circle cx="463.408" cy="94.192" fill="#bd80e1" r="7.611"></circle></g></svg>