<svg viewBox="0 0 494.862 494.862" xmlns="http://www.w3.org/2000/svg"><g><path d="M274.505 314.834c-10.49 0-18.994-8.504-18.994-18.994v-28.199l22.552-6.365 15.435 6.365v28.199c.001 10.49-8.503 18.994-18.993 18.994z" fill="#fbbd80"></path><path d="M266.016 267.642h31.894a5 5 0 0 0 5-5v-119.32l-6.294-21.024 6.294-22.643-36.894-15.489z" fill="#98db7c"></path><path d="m322.221 43.139-33.258 6.23-7.41 26.291 21.357 23.995 24.047-18.846z" fill="#f4aa73"></path><path d="M223.68 457.108h-32.066l4.092-131.09-72.992-104.454 65.925-12.414 33.352 53.417 9.094 1.433-1.218 11.181 25.445 35.921-23.203 126.006z" fill="#e8e8e8"></path><path d="m205.859 432.704 11.724-115.605a30 30 0 0 0-5.256-20.211l-57.531-82.329-32.081 7.005 72.992 104.454-13.294 131.09 23.524 7.063 22.491-7.063 3.683-20H209.84a4 4 0 0 1-3.981-4.404z" fill="#dcdbdd"></path><path d="M136.021 457.108H99.765l43.064-139.831-47.149-73.362c-18.455-30.852-18.115-73.691 9.116-97.163l42.799 35.163 26.943 48.819 26.902 67.022a40.808 40.808 0 0 1-1.004 32.695l-50.613 106.657z" fill="#f9f8f9"></path><path d="M302.907 99.652v43.67c-3.99 5.47-8.85 11.02-14.7 16.55-5.19 4.91-11.39 8.62-18.13 11l-4.06 1.43v-88.14z" fill="#86cc72"></path><path d="M271.285 153.475c29.436-24.699 31.531-46.137 31.625-53.82l-13.947-50.286s-9.111-5.383-24.999-7.757c0 0-16.684 1.055-27.007 2.175-13.913 1.509-28.198 6.903-46.128 16.298-35.072 18.379-81.191 86.666-81.191 86.666l66.894 76.227s4.596-9.532 12.105-13.831a157.522 157.522 0 0 1 71.944-51.893z" fill="#98db7c"></path><path d="m360.725 15.415-12.483 4.663-22.594 8.44c-13.441 22.825-3.846 51.322 9.995 71.635 12.502 16.856 58.446-1.448 71.793-12.583l6.225-41.177z" fill="#ffd18d"></path><path d="m342.067 32.163 32.052 6.788c10.534 2.231 19.197 9.78 22.901 19.954l10.312 28.331.105.335c16.247-13.816 23.331-35.617 16.113-55.449C416.08 11.6 395.525-.694 373.335.03c0 0-11.911 3.276-17.91 5.459-13.131 4.78-19.074 11.38-25.277 22.511z" fill="#857e87"></path><path d="M345.648 24.263C351.546 13.679 361.121 4.969 373.336.03c-5.986.195-12.09 1.337-18.089 3.521-13.131 4.779-23.396 13.836-29.599 24.967.368.345 15.697 3.468 16.42 3.644a52.853 52.853 0 0 1 3.58-7.899z" fill="#766e7a"></path><path d="m122.67 433.14 36.58-107.373a20 20 0 0 0-1.768-16.717l-46.843-78.309c-13.407-22.413-11.937-46.273 8.056-67.252l-.079-11.19-13.793-5.628c-27.231 23.473-33.663 63.21-15.208 94.062l44.95 75.143c.429.717.539 1.579.305 2.381L94.318 457.108l23.915 7.063 22.099-7.063 9.491-20H125.51a3 3 0 0 1-2.84-3.968z" fill="#e8e8e8"></path><path d="M247.301 314.834c-10.49 0-18.994-8.504-18.994-18.994v-28.199l18.994-8.662 18.994 8.662v28.199c0 10.49-8.504 18.994-18.994 18.994z" fill="#ffd18d"></path><g fill="#e27f86"><path d="M94.419 320.382a7.458 7.458 0 0 1-3.892-1.095l-18.433-11.22a7.5 7.5 0 1 1 7.799-12.813l18.433 11.22a7.499 7.499 0 0 1 2.507 10.306 7.498 7.498 0 0 1-6.414 3.602zM76.844 357.516a7.5 7.5 0 0 1-3.304-14.238l19.19-9.395a7.5 7.5 0 0 1 6.596 13.472l-19.19 9.395a7.459 7.459 0 0 1-3.292.766zM286.285 370.227a7.5 7.5 0 0 1-6.793-4.313l-8.771-18.678a7.5 7.5 0 1 1 13.578-6.377l8.771 18.678a7.5 7.5 0 0 1-6.785 10.69zM322.426 349.033a7.475 7.475 0 0 1-3.979-1.147l-18.166-11.397a7.5 7.5 0 0 1 7.972-12.707l18.166 11.397a7.5 7.5 0 0 1-3.993 13.854z" fill="#e27f86"></path></g><path d="M139.742 150.189a6 6 0 0 1-.277-7.299c10.649-15.045 51.3-70.626 81.531-86.468 16.081-8.427 30.787-12.797 43.688-14.698-17.684-2.778-44.027-1.892-75.688 14.698-35.072 18.379-84.172 90.248-84.172 90.248l69.716 84.064a157.48 157.48 0 0 1 14.1-21.583z" fill="#86cc72"></path><path d="m184.702 460.937 1.472 27.288c0 2.085 1.703 3.775 3.805 3.775l78.319.447c2.101 0 3.805-1.69 3.805-3.775l-1.244-13.782a34.273 34.273 0 0 0-30.109-17.783h-38.337z" fill="#857e87"></path><path d="M206.217 474.862c-2.101 0-3.805-1.69-3.805-3.775v-13.979h-20v33.979c0 2.085 1.703 3.775 3.805 3.775h84.969c2.101 0 3.805-1.69 3.805-3.775 0-5.876-1.487-11.375-4.133-16.196z" fill="#766e7a"></path><path d="m96.021 459.49.791 28.735c0 2.085 1.703 3.775 3.805 3.775l78.809-.426c2.101 0 3.805-3.775 3.805-3.775 0-5.864-.466-12.909-.466-12.909a34.273 34.273 0 0 0-30.109-17.783h-38.337z" fill="#857e87"></path><path d="M118.123 474.862c-2.101 0-3.805-1.69-3.805-3.775v-13.979h-20v33.979c0 2.085 1.703 3.775 3.805 3.775h88.094c2.101 0 .68-1.69.68-3.775a33.623 33.623 0 0 0-4.149-16.224h-64.625z" fill="#766e7a"></path><path d="M269.082 267.642h-45.654a5.427 5.427 0 0 1-5.427-5.421l-.165-147.598c-.018-15.662 12.674-28.367 28.336-28.367 15.649 0 28.336 12.686 28.336 28.336v147.707a5.426 5.426 0 0 1-5.426 5.343z" fill="#b8eb7c"></path></g></svg>