<svg viewBox="0 0 512 512" xmlns="http://www.w3.org/2000/svg"><g><path d="M29.521 411.229h36.724a29.33 29.33 0 0 0 5.864-6.4v-.001a29.36 29.36 0 0 0 5.865 6.4h36.729a29.353 29.353 0 0 0 5.868-6.406l-.002.003a29.374 29.374 0 0 0 5.881 6.403h22.869l24.253-17.77c.273-1.603.422-3.248.422-4.929 0-15.606-12.244-28.352-27.65-29.157.205-1.396.315-2.823.315-4.276 0-16.126-13.073-29.199-29.199-29.199-9.813 0-18.489 4.846-23.782 12.269-4.274-10.822-14.819-18.482-27.16-18.482-16.126 0-29.199 13.073-29.199 29.199 0 4.127.861 8.051 2.405 11.61-12.155 3.531-21.043 14.742-21.043 28.036.001 9.17 4.23 17.347 10.84 22.7z" fill="#af66da"></path><path d="M29.521 411.229h36.724a29.33 29.33 0 0 0 5.864-6.4v-.001a29.36 29.36 0 0 0 5.865 6.4h36.724c6.61-5.353 10.839-13.531 10.839-22.699 0-16.126-13.073-29.199-29.199-29.199-10.091 0-18.986 5.12-24.231 12.902l.002-.003c-5.245-7.781-14.139-12.9-24.229-12.9-16.126 0-29.199 13.073-29.199 29.199.001 9.171 4.23 17.348 10.84 22.701z" fill="#cb97e7"></path><path d="M29.521 411.229h22.322C45.231 405.878 41 397.7 41 388.531c0-12.171 7.448-22.598 18.034-26.983a29.064 29.064 0 0 0-11.153-2.216c-16.126 0-29.199 13.073-29.199 29.199 0 9.168 4.229 17.345 10.839 22.698z" fill="#af66da"></path><path d="M120.57 404.827a29.374 29.374 0 0 0 5.881 6.403h22.868l24.253-17.77c.273-1.603.422-3.248.422-4.929 0-16.126-13.073-29.199-29.199-29.199-10.09 0-18.984 5.118-24.229 12.9a29.06 29.06 0 0 1 4.97 16.299 29.06 29.06 0 0 1-4.966 16.296z" fill="#9857bd"></path><path d="M77.979 411.229h21.866C93.231 405.878 89 397.701 89 388.531c0-12.259 7.558-22.747 18.266-27.075a29.082 29.082 0 0 0-10.928-2.124c-16.126 0-29.199 13.073-29.199 29.199.001 9.168 4.23 17.345 10.84 22.698z" fill="#af66da"></path><path d="M253.583 314.158a3.995 3.995 0 0 1 0 5.525l-21.626 22.648v38.083l42.057 30.814h214.523V371.52c0-40.472-32.809-73.281-73.281-73.281h-29.1c-7.126-12.104-20.284-20.233-35.346-20.233h-17.582c-15.063 0-28.22 8.129-35.346 20.233h-29.1a73.127 73.127 0 0 0-24.874 4.338l-1.042.357z" fill="#ffe5c2"></path><path d="M282.881 298.239h-14.1a73.127 73.127 0 0 0-24.874 4.338l-.911.494 10.587 11.088a3.995 3.995 0 0 1 0 5.525l-21.626 22.648v38.083l38.921 28.517 2.542.622V346.04a72.79 72.79 0 0 1 9.461-35.954z" fill="#fed2a4"></path><path d="M386.155 298.239v60.532c0 4.143 3.357 7.5 7.5 7.5s7.5-3.357 7.5-7.5v-60.532z" fill="#ffbd86"></path><path d="M102.842 289.58H66.728v-10.29c0-13.945-11.345-25.29-25.29-25.29H40.29C26.345 254 15 265.345 15 279.29s11.345 25.29 25.29 25.29h11.438v20.31a28.028 28.028 0 0 1 14.791-4.204c.07 0 .139.007.209.008V304.58h36.114c4.143 0 7.5-3.357 7.5-7.5s-3.358-7.5-7.5-7.5zm-51.114 0H40.29c-5.674 0-10.29-4.616-10.29-10.29S34.616 269 40.29 269h1.147c5.674 0 10.29 4.616 10.29 10.29v10.29z" fill="#fed2a4"></path><path d="M47.881 359.332c10.09 0 18.984 5.118 24.229 12.9a29.243 29.243 0 0 1 16.63-11.895 29.36 29.36 0 0 1-.478-5.239c0-6.313 2.01-12.153 5.416-16.929-4.274-10.822-14.819-18.482-27.16-18.482-16.126 0-29.199 13.073-29.199 29.199 0 4.127.861 8.051 2.405 11.61a29.169 29.169 0 0 1 8.157-1.164z" fill="#af66da"></path><path d="M60 355.449c0-14.79 10.999-27.004 25.262-28.927-5.071-4.259-11.602-6.835-18.743-6.835-16.126 0-29.199 13.073-29.199 29.199 0 4.127.861 8.051 2.405 11.61a29.193 29.193 0 0 1 8.156-1.163c4.656 0 9.051 1.101 12.957 3.04a29.165 29.165 0 0 1-.838-6.924z" fill="#9857bd"></path><path d="M96.339 359.332c10.09 0 18.984 5.118 24.229 12.9 5.245-7.781 14.139-12.9 24.229-12.9.52 0 1.036.015 1.549.042.205-1.396.315-2.823.315-4.276 0-16.126-13.073-29.199-29.199-29.199s-29.199 13.073-29.199 29.199c0 1.79.17 3.538.478 5.239a29.194 29.194 0 0 1 7.598-1.005z" fill="#af66da"></path><path d="M135.801 336.25c1.433 0 2.839.108 4.217.307-5.355-6.508-13.471-10.658-22.557-10.658-16.126 0-29.199 13.073-29.199 29.199 0 1.79.17 3.538.478 5.239a29.2 29.2 0 0 1 7.598-1.005c3.725 0 7.286.702 10.562 1.974 2.013-14.163 14.182-25.056 28.901-25.056z" fill="#9857bd"></path><path d="M192.069 257.804h40.888v34.306h-40.888z" fill="#f6a96c"></path><path d="M192.069 258.804H209v32.305h-16.931z" fill="#ea9b58"></path><path d="m123.578 114.771-5.48 1 30.864 111.471c5.164 18.65 22.138 31.563 41.49 31.563h44.12c19.352 0 36.326-12.913 41.49-31.563l30.864-111.471-5.779-1z" fill="#ffe177"></path><path d="M182.864 227.241 152 115.771h-33.901l30.864 111.471c5.164 18.65 22.138 31.563 41.49 31.563h33.901c-19.352-.001-36.326-12.914-41.49-31.564z" fill="#ffd15b"></path><path d="M192.069 342.732v38.176h40.888v-38.176l21.351-22.358a5 5 0 0 0 0-6.906l-21.351-22.359h-40.888l-21.351 22.359a5 5 0 0 0 0 6.906z" fill="#ffe177"></path><path d="m192.816 316.921 24.648-25.812h-25.396l-21.351 22.359a5 5 0 0 0 0 6.906l21.351 22.358v37.176h25.396V346.74a9.998 9.998 0 0 0-2.768-6.906z" fill="#ffd15b"></path><path d="m275.706 411.229-42.749-31.321h-40.888l-42.75 31.321z" fill="#f6a96c"></path><path d="m174.742 411.229 42.749-31.321h-25.422l-42.75 31.321z" fill="#ea9b58"></path><path d="M504.5 425.229H7.5c-4.143 0-7.5-3.357-7.5-7.5s3.357-7.5 7.5-7.5h497c4.143 0 7.5 3.357 7.5 7.5s-3.357 7.5-7.5 7.5z" fill="#fed2a4"></path><path d="M170.718 313.468a5 5 0 0 0 0 6.906l3.865 4.047h75.86l3.865-4.047a5 5 0 0 0 0-6.906l-3.864-4.047h-75.861z" fill="#ffc344"></path><path d="M241.09 163.239h-21.077V146.77c0-4.143-3.357-7.5-7.5-7.5s-7.5 3.357-7.5 7.5v16.469h-21.078c-4.143 0-7.5 3.357-7.5 7.5s3.357 7.5 7.5 7.5h21.078v44.531c0 4.143 3.357 7.5 7.5 7.5s7.5-3.357 7.5-7.5v-44.531h21.077c4.143 0 7.5-3.357 7.5-7.5s-3.358-7.5-7.5-7.5z" fill="#ffffff"></path><path d="M314.5 115.771H110.525c-5.523 0-10-4.477-10-10v-9c0-5.523 4.477-10 10-10H314.5c5.523 0 10 4.477 10 10v9c0 5.522-4.477 10-10 10z" fill="#ffd15b"></path><path d="M151.025 105.771v-9c0-5.523 4.477-10 10-10h-50.5c-5.523 0-10 4.477-10 10v9c0 5.523 4.477 10 10 10h50.5c-5.523 0-10-4.478-10-10z" fill="#ffc344"></path><path d="M357.5 319.271h-12c-4.143 0-7.5-3.357-7.5-7.5s3.357-7.5 7.5-7.5h12c4.143 0 7.5 3.357 7.5 7.5s-3.357 7.5-7.5 7.5zM436.5 347.271h-12c-4.143 0-7.5-3.357-7.5-7.5s3.357-7.5 7.5-7.5h12c4.143 0 7.5 3.357 7.5 7.5s-3.357 7.5-7.5 7.5zM330.5 347.271h-12c-4.143 0-7.5-3.357-7.5-7.5s3.357-7.5 7.5-7.5h12c4.143 0 7.5 3.357 7.5 7.5s-3.357 7.5-7.5 7.5z" fill="#fed2a4"></path><path d="M353.17 192.82a7.499 7.499 0 0 1-7.5-7.5v-2.55c0-4.143 3.357-7.5 7.5-7.5s7.5 3.357 7.5 7.5v2.55a7.5 7.5 0 0 1-7.5 7.5zM353.17 234.885a7.499 7.499 0 0 1-7.5-7.5v-3.824c0-4.143 3.357-7.5 7.5-7.5s7.5 3.357 7.5 7.5v3.824a7.5 7.5 0 0 1-7.5 7.5zM334.05 211.94h-2.55c-4.143 0-7.5-3.357-7.5-7.5s3.357-7.5 7.5-7.5h2.55c4.143 0 7.5 3.357 7.5 7.5s-3.358 7.5-7.5 7.5zM374.839 211.94h-2.549c-4.143 0-7.5-3.357-7.5-7.5s3.357-7.5 7.5-7.5h2.549c4.143 0 7.5 3.357 7.5 7.5s-3.358 7.5-7.5 7.5zM63.83 155.82a7.499 7.499 0 0 1-7.5-7.5v-2.55c0-4.143 3.357-7.5 7.5-7.5s7.5 3.357 7.5 7.5v2.55c0 4.143-3.357 7.5-7.5 7.5zM63.83 197.885a7.499 7.499 0 0 1-7.5-7.5v-3.824c0-4.143 3.357-7.5 7.5-7.5s7.5 3.357 7.5 7.5v3.824a7.5 7.5 0 0 1-7.5 7.5zM44.71 174.94h-2.549c-4.143 0-7.5-3.357-7.5-7.5s3.357-7.5 7.5-7.5h2.549c4.143 0 7.5 3.357 7.5 7.5s-3.357 7.5-7.5 7.5zM85.5 174.94h-2.55c-4.143 0-7.5-3.357-7.5-7.5s3.357-7.5 7.5-7.5h2.55c4.143 0 7.5 3.357 7.5 7.5s-3.357 7.5-7.5 7.5z" fill="#ffd15b"></path><path d="M282.881 298.239v60.532c0 4.143 3.357 7.5 7.5 7.5s7.5-3.357 7.5-7.5v-60.532z" fill="#ffbd86"></path></g></svg>