<svg id="Capa_1" enable-background="new 0 0 511.999 511.999" height="512" viewBox="0 0 511.999 511.999" width="512" xmlns="http://www.w3.org/2000/svg"><g><path d="m498.797 435.465-225.064-389.822-18.943-15.422c-9.994.383-19.829 5.524-25.544 15.422l-225.062 389.822c-5.712 9.893-5.248 20.973-.589 29.818l27.341 8.488h441.11c23.779-.001 38.641-17.713 26.751-38.306z" fill="#615260"/><path d="m248.847 77.768-207.046 358.609c-3.179 5.506.795 12.388 7.152 12.388h414.092c6.358 0 10.331-6.882 7.152-12.388l-207.046-358.609c-3.178-5.506-11.125-5.506-14.304 0z" fill="#ffd05b"/><path d="m427.285 395.083-149.829-259.508c-9.536-16.517-33.377-16.517-42.914 0l-149.829 259.508c-9.537 16.518 2.384 37.165 21.457 37.165h299.658c19.073 0 30.993-20.648 21.457-37.165z" fill="#ffe077"/><path d="m282.751 45.643c-6.174-10.694-17.163-15.834-27.96-15.422l236.866 410.289c4.299 7.448 1.428 14.029 0 16.514-1.436 2.484-5.702 8.259-14.308 8.259h-473.755c5.043 9.555 14.996 16.517 27.341 16.517h450.127c23.779 0 38.642-25.742 26.752-46.336z" fill="#4e3d4d"/><circle cx="278.593" cy="232.026" fill="#615260" r="16.518"/><path d="m395.521 406.323-24.76-59.455-13.426-7.143c-4.189 1.975-7.674 5.62-9.265 10.8l-.095.31c-3.035-.71-6.159-1.177-9.411-1.177-3.424 0-6.695.553-9.875 1.339l-8.317-4.837-.932-9.7-42.898-67.43c-9.719-15.122-26.825-23.825-44.819-22.688l-43.228 2.721c-6.223.392-11.911 4.064-14.391 9.785-3.254 7.508-.847 15.723 5.63 20.255l21.747 15.21-16.061 25.697c-5.425 8.68-4.954 19.803 1.185 27.993l15.591 20.801-17.226 34.799c-2.507 5.065-.148 10.628 5.358 11.905 3.824.888 7.607-.99 9.276-4.352l19.649-39.566c1.387-2.793 1.082-6.13-.789-8.625l-18.503-24.682c-2.04-2.722-2.377-6.442-.632-9.362 3.097-5.185 10.441-5.526 14.014-.705l24.461 32.999c1.879 2.504 2.182 5.855.782 8.655l-16.967 33.944c-2.736 5.474 1.244 11.914 7.364 11.914h.055c3.118 0 5.969-1.762 7.364-4.551l16.963-33.925c4.197-8.395 3.291-18.441-2.341-25.948l-14.582-19.437 5.697-9.117 42.229 29.534-.217.288c-2.744 3.643-2.014 8.821 1.629 11.564l1.185.892 8.973-.188 4.53 10.352c-1.007 2.431-1.843 4.948-2.373 7.586-.28-.01-.542-.083-.824-.083-9.353 0-20.315 6.286-23.905 16.518l7.094 7.112h115.061zm-185.275-126.031-21.05-14.721 31.49-1.983zm84.061 58.788-43.404-30.355 15.516-24.83 31.801 49.988z" fill="#615260"/><g fill="#4e3d4d"><path d="m380.375 346.869c-5.035-8.72-15.254-10.813-23.039-7.143l19.974 34.731c6.336 11.012-1.613 24.755-14.317 24.755h-89.628c-.968 2.735-1.367 5.71-1.122 8.96.313 4.149 4.055 7.557 8.215 7.557h125.369c6.358 0 10.331-6.882 7.152-12.388z"/><path d="m286.965 365.027 13.463 10.134c4.969-11.986 15.446-21.016 28.252-24.179l-9.239-14.522c-14.158 4.986-25.785 15.306-32.476 28.567z"/></g></g></svg>