<svg id="Icons" height="512" viewBox="0 0 60 60" width="512" xmlns="http://www.w3.org/2000/svg"><path d="m38 28v-19a8 8 0 0 0 -8-8 8 8 0 0 0 -8 8v19z" fill="#925c4c"/><path d="m38 31v-3a6 6 0 0 0 -6-6h-4a6 6 0 0 0 -6 6v3z" fill="#f9a0e0"/><path d="m32 19.65v2.35a2 2 0 0 1 -4 0v-2.35z" fill="#a9725e"/><path d="m58 31v-3a6 6 0 0 0 -6-6h-4a6 6 0 0 0 -6 6v3z" fill="#9693eb"/><path d="m58 7v3.5h-16v-3.5a6 6 0 0 1 6-6h8.32a.7.7 0 0 1 .63 1 .847.847 0 0 1 -.14.19l-1.81 1.81a3 3 0 0 1 3 3z" fill="#a9725e"/><path d="m52 19v3a2 2 0 0 1 -4 0v-3z" fill="#eabea3"/><path d="m55.968 14.626a.906.906 0 0 1 .664-.728 2 2 0 0 0 1.368-1.898v-1.5a1.5 1.5 0 0 0 -3 0 1.711 1.711 0 0 0 -1.385-1.667 8.727 8.727 0 0 1 -3.022-1.633.978.978 0 0 0 -1.186 0 8.727 8.727 0 0 1 -3.022 1.633 1.711 1.711 0 0 0 -1.385 1.667 1.5 1.5 0 0 0 -3 0v1.5a2 2 0 0 0 1.368 1.9.906.906 0 0 1 .664.728 6 6 0 0 0 11.936 0z" fill="#f9d2b6"/><path d="m18 31v-3a6 6 0 0 0 -6-6h-4a6 6 0 0 0 -6 6v3z" fill="#fbb35a"/><path d="m2 32h56v25h-56z" fill="#a9725e"/><g fill="#925c4c"><rect height="4" rx="1" width="58" x="1" y="30"/><rect height="4" rx="1" width="58" x="1" y="55"/><rect height="13" rx="1" width="12" x="7" y="38"/><rect height="13" rx="1" width="12" x="24" y="38"/><rect height="13" rx="1" width="12" x="41" y="38"/></g><path d="m32.481 7.741a.99.99 0 0 0 -1.193-.3 24.68 24.68 0 0 1 -4.9 1.4 1.711 1.711 0 0 0 -1.388 1.659 1.5 1.5 0 0 0 -3 0v1.5a2 2 0 0 0 1.368 1.9.906.906 0 0 1 .664.728 6 6 0 0 0 11.936 0 .906.906 0 0 1 .664-.728 2 2 0 0 0 1.368-1.9v-1.5a1.5 1.5 0 0 0 -3 0 1.875 1.875 0 0 0 -1.136-1.754 3.494 3.494 0 0 1 -1.383-1.005z" fill="#ca957e"/><path d="m18 7v3.5h-16v-3.5a6 6 0 0 1 6-6h8.32a.7.7 0 0 1 .63 1 .847.847 0 0 1 -.14.19l-1.81 1.81a3 3 0 0 1 3 3z" fill="#77493e"/><path d="m12 19v3a2 2 0 0 1 -4 0v-3z" fill="#925c4c"/><path d="m15.968 14.626a.906.906 0 0 1 .664-.728 2 2 0 0 0 1.368-1.898v-1.5a1.5 1.5 0 0 0 -3 0 1.711 1.711 0 0 0 -1.385-1.667 8.727 8.727 0 0 1 -3.022-1.633.978.978 0 0 0 -1.186 0 8.727 8.727 0 0 1 -3.022 1.633 1.711 1.711 0 0 0 -1.385 1.667 1.5 1.5 0 0 0 -3 0v1.5a2 2 0 0 0 1.368 1.9.906.906 0 0 1 .664.728 6 6 0 0 0 11.936 0z" fill="#a9725e"/><path d="m56.95 2a.847.847 0 0 1 -.14.19l-1.81 1.81h-1a1 1 0 0 1 0-2z" fill="#925c4c"/><path d="m16.95 2a.847.847 0 0 1 -.14.19l-1.81 1.81h-1a1 1 0 0 1 0-2z" fill="#633e37"/></svg>