<svg viewBox="0 0 64 64" xmlns="http://www.w3.org/2000/svg"><g><g><circle cx="32" cy="32" fill="#57a4ff" r="29"></circle><circle cx="32" cy="32" fill="#57a4ff" r="29"></circle><path d="M48.968 8.489A64.138 64.138 0 0 1 8.877 49.5 29 29 0 1 0 48.968 8.489z" fill="#2488ff"></path><path d="m33.048 30.367-.612 1.683A6 6 0 0 1 26.8 36H24a2.013 2.013 0 0 0-1.6.8l-2 2.67a1.969 1.969 0 0 0-.4 1.2v7.92a1 1 0 0 1-1.7.706l-1.66-1.656a3.01 3.01 0 0 1-.821-1.533l-.5-2.5A2 2 0 0 0 13.36 42H4.77A29.033 29.033 0 0 1 25 3.85V10a1.982 1.982 0 0 1-1.976 2A2.015 2.015 0 0 0 21 14v5a2.006 2.006 0 0 1-2 2h-3.884a2.085 2.085 0 0 0-2.04 1.5A2 2 0 0 0 15 25h14.289a4 4 0 0 1 3.759 5.367zM55.26 49.33A28.952 28.952 0 0 1 32 61a29.833 29.833 0 0 1-3-.15V57l-1.29-2.58a1.982 1.982 0 0 1 .51-2.43l4.5-3.76a1 1 0 0 1 .64-.23h3.95a2.006 2.006 0 0 0 1.97-1.67l.44-2.66A2.006 2.006 0 0 1 41.69 42H47a2.006 2.006 0 0 1 2 2v1a2.006 2.006 0 0 0 2 2h.36a2 2 0 0 1 1.16.37z" fill="#5eac24"></path><path d="M61 32c0 .49-.01.98-.04 1.47L57.4 30.8A6 6 0 0 1 55 26v-2.53c0-1.51-.86-1.9-2.21-2.58L51 20a2.006 2.006 0 0 0-2 2v2.39a1.608 1.608 0 0 1-3.2.23l-.68-4.76a1 1 0 0 0-.99-.86H44a2.006 2.006 0 0 1-2-2v-1a2.006 2.006 0 0 0-2-2h-2a2.006 2.006 0 0 1-2-2V3.28A28.987 28.987 0 0 1 61 32z" fill="#91dc5a"></path><path d="M36 45a7.467 7.467 0 0 1-.99 3A43.958 43.958 0 0 1 31 54s-.92-1.15-1.97-2.68C27.63 49.28 26 46.57 26 45a5 5 0 0 1 10 0z" fill="#ffcd00"></path><path d="M50 35c0 1.76-2.03 4.93-3.5 7-.84 1.18-1.5 2-1.5 2s-.66-.82-1.5-2c-1.47-2.07-3.5-5.24-3.5-7a5 5 0 0 1 10 0z" fill="#d80027"></path><path d="M16 8c0 2.76-5 9-5 9s-.93-1.16-1.98-2.69C7.62 12.27 6 9.57 6 8a5 5 0 0 1 9.99-.18A1.087 1.087 0 0 1 16 8z" fill="#ffcd00"></path><path d="M19 29c0 2.76-5 9-5 9s-5-6.24-5-9a4.985 4.985 0 0 1 4.3-4.94A4.049 4.049 0 0 1 14 24a4.941 4.941 0 0 1 3 1 5.01 5.01 0 0 1 2 4z" fill="#ff9811"></path><path d="M35 20c0 1.57-1.63 4.28-3.03 6.32C30.92 27.85 30 29 30 29s-1.49-1.86-2.85-4C26.03 23.22 25 21.25 25 20a5 5 0 0 1 10 0z" fill="#ed1c24"></path><g fill="#d1e7f8"><circle cx="30" cy="20" fill="#d1e7f8" r="2"></circle><circle cx="14" cy="29" fill="#d1e7f8" r="2"></circle><circle cx="31" cy="45" fill="#d1e7f8" r="2"></circle><circle cx="45" cy="35" fill="#d1e7f8" r="2"></circle><circle cx="11" cy="8" fill="#d1e7f8" r="2"></circle></g><path d="M15.959 46.58a3 3 0 0 0 .681 1.06l1.66 1.66a1 1 0 0 0 1.7-.71v-4.173a63.54 63.54 0 0 1-4.041 2.163z" fill="#4e901e"></path><path d="M48.97 8.483a63.644 63.644 0 0 1-4.47 10.59 1 1 0 0 1 .622.787l.68 4.76a1.608 1.608 0 0 0 3.2-.23V22a2.006 2.006 0 0 1 2-2l1.79.89c1.35.68 2.21 1.07 2.21 2.58V26a6 6 0 0 0 2.4 4.8l3.56 2.67c.03-.49.04-.98.04-1.47A28.953 28.953 0 0 0 48.97 8.483z" fill="#7ed63e"></path><path d="M57 8c0 1.4-1.29 3.7-2.56 5.63C53.21 15.49 52 17 52 17s-5-6.24-5-9a4.146 4.146 0 0 1 .07-.79A5 5 0 0 1 57 8z" fill="#ff9811"></path><circle cx="52" cy="8" fill="#d1e7f8" r="2"></circle></g></g></svg>