<svg viewBox="0 0 50 50" xmlns="http://www.w3.org/2000/svg"><g><path d="m40.308 32.875-14.096-8.192a2.334 2.334 0 0 1-.424-.316l14.096 8.192c.131.122.273.228.424.316z" fill="#ffd69a"></path><path d="m33.037 12.919 14.097 8.192c-.875-.508-2.084-.437-3.416.332a7.289 7.289 0 0 0-.812.553l-14.097-8.192a7.29 7.29 0 0 1 .812-.553c1.332-.769 2.541-.84 3.416-.332z" fill="#56707b"></path><path d="m39.205 21.555-14.097-8.192c1.702.989 2.945.789 3.701.44l14.097 8.193c-.756.348-1.999.548-3.7-.441z" fill="#56707b"></path><path d="M17.326 47.048 3.24 38.862a.454.454 0 0 1-.186-.215c-.3-.671-.614-1.771-.643-1.842l14.1 8.2c.015.057.344 1.172.644 1.843.043.086.1.157.171.2z" fill="#40545d"></path><path d="M48.428 25.475c-.372 2.372-1.915 4.987-3.8 6.458-.3.229-.6.443-.886.6-.772.443-1.486.657-2.129.671-.686 0-1.271-.214-1.728-.643-3.158.343-6.015 1.443-8.472 2.858-5.515 3.2-9.1 7.958-9.93 9.157a1.867 1.867 0 0 1-.442.443l-3.043 1.943c-.386.229-.715.172-.843-.114-.3-.671-.629-1.786-.643-1.843-.7.4-.914 0-.929-.014-1.228-1.858.214-4.858.286-5.03 12.758-12.085 22.501-18.272 23.016-18.6 1.871 1.214 3.214 1 4.014.628.271-.2.543-.385.814-.542 3-1.73 5.372.056 4.715 4.028z" fill="#485f69"></path><path d="m15.726 45.12-14.1-8.187c-.086-.057-.13-.128-.13-.128-1.228-1.872.2-4.872.272-5.03l14.101 8.187c-.072.17-1.514 3.171-.286 5.029.015.014.043.085.143.128z" fill="#56707b"></path><path d="M15.868 39.969 1.77 31.777c12.757-12.09 22.504-18.286 23.017-18.612l14.096 8.192c-.513.327-10.26 6.522-23.016 18.612z" fill="#778c95"></path><path d="M35.627 21.832c-.657.457-1.414 1-2.286 1.643a145.09 145.09 0 0 0-6.9 5.3l-7.886-4.214-3.429-1.829c.4-.314.786-.628 1.172-.914.885-.715 1.714-1.357 2.485-1.943.543-.4 1.058-.785 1.529-1.143 2.086-1.543 3.643-2.6 4.515-3.172l4.328 2.515 1.586.914 2.672 1.557z" fill="#4bb5e7"></path><path d="M14.369 41.704v1.229L1.954 35.762v-1.23l.371.215z" fill="#485f69"></path><path d="M14.369 41.704v.73L2.325 35.475v-.729z" fill="#35484f"></path><path d="m17.374 25.283.091.659-1.903 1.47-.091-.658z" fill="#40545d"></path><path d="m15.47 26.754.092.658-3.728-1.931-.092-.658z" fill="#485f69"></path><path d="m17.374 25.283-1.903 1.471-3.729-1.931 1.904-1.471z" fill="#56707b"></path><path d="m21.62 27.484.092.658-1.903 1.47-.091-.657z" fill="#40545d"></path><path d="m19.718 28.955.091.658-3.728-1.932-.092-.658z" fill="#485f69"></path><path d="m21.62 27.484-1.902 1.47-3.729-1.931 1.904-1.47z" fill="#56707b"></path><path d="m25.868 29.684.092.658-1.904 1.471-.091-.658z" fill="#40545d"></path><path d="m23.965 31.155.091.658-3.728-1.931-.091-.658z" fill="#485f69"></path><path d="m25.868 29.684-1.903 1.471-3.728-1.931 1.903-1.471z" fill="#56707b"></path><path d="m14.692 27.356.092.658-1.904 1.47-.091-.657z" fill="#40545d"></path><path d="m12.789 28.827.091.658-3.728-1.932-.091-.658z" fill="#485f69"></path><path d="m14.692 27.356-1.903 1.47-3.728-1.931 1.903-1.471z" fill="#56707b"></path><path d="m18.94 29.556.091.658-1.903 1.471-.092-.658z" fill="#40545d"></path><path d="m17.036 31.027.092.658-3.729-1.931-.091-.659z" fill="#485f69"></path><path d="m18.94 29.556-1.904 1.471-3.728-1.932 1.903-1.47z" fill="#56707b"></path><path d="m23.187 31.757.091.658-1.903 1.47-.092-.657z" fill="#40545d"></path><path d="m21.283 33.228.092.658-3.729-1.932-.091-.658z" fill="#485f69"></path><path d="m23.187 31.757-1.904 1.47-3.728-1.931 1.903-1.471z" fill="#56707b"></path><path d="m12.006 29.432.091.658-1.903 1.471-.092-.658z" fill="#40545d"></path><path d="m10.102 30.903.092.658-3.728-1.932-.092-.658z" fill="#485f69"></path><path d="m12.006 29.432-1.904 1.47-3.728-1.93L8.277 27.5z" fill="#56707b"></path><path d="m16.253 31.632.091.659-1.903 1.47-.092-.658z" fill="#40545d"></path><path d="m14.35 33.103.091.658-3.728-1.931-.092-.658z" fill="#485f69"></path><path d="m16.253 31.632-1.904 1.471-3.728-1.931 1.903-1.471z" fill="#56707b"></path><path d="m20.5 33.833.091.658-1.903 1.471-.091-.658z" fill="#40545d"></path><path d="m18.597 35.304.091.658-3.728-1.932-.092-.658z" fill="#485f69"></path><path d="m20.5 33.833-1.903 1.47-3.729-1.93 1.904-1.472z" fill="#56707b"></path><path d="m9.324 31.504.092.658-1.904 1.471-.091-.658z" fill="#cb4844"></path><path d="m7.42 32.975.092.658-3.728-1.931-.092-.658z" fill="#ee5550"></path><path d="m9.324 31.504-1.903 1.471-3.729-1.931 1.904-1.471z" fill="#f17572"></path><path d="m13.571 33.705.092.658-1.904 1.47-.091-.657z" fill="#269dd6"></path><path d="m11.668 35.176.091.658-3.728-1.932-.092-.658z" fill="#4bb5e7"></path><path d="m13.571 33.705-1.903 1.47-3.729-1.93 1.904-1.472z" fill="#78cfe2"></path><path d="m17.818 35.905.092.658-1.904 1.471-.091-.658z" fill="#d8b441"></path><path d="m15.915 37.376.091.658-3.728-1.931-.091-.658z" fill="#fed44c"></path><path d="m17.818 35.905-1.903 1.471-3.728-1.931 1.903-1.471z" fill="#fee182"></path><path d="m43.483 21.28.154-.076c1.195-.69 2.39-.724 3.3-.208l-13.795-8.017c-.91-.526-2.105-.482-3.3.209l-.154.076-.056.038 13.802 8.014.05-.035z" fill="#485f69"></path><path d="M43.187 20.25c-.197.142-.658.494-.658.494l-11.723-6.81a9.246 9.246 0 0 1 .647-.494z" fill="#40545d"></path><path d="m42.75 20.376-11.33-6.655c-.012-3.97 2.79-8.828 6.249-10.825l11.33 6.655c-3.458 1.997-6.26 6.855-6.25 10.825z" fill="#dde4e7"></path><path d="M49 9.551v.095c-3.411 1.97-6.179 6.763-6.168 10.683l-.082.047c-.011-3.97 2.791-8.828 6.25-10.825z" fill="#cfd8dd"></path><path d="m14.586 22.443.538.287c4.723-3.778 8.207-6.178 9.703-7.168v-.716c-1.554 1.03-5.237 3.561-10.241 7.597z" fill="#485f69"></path><path d="M24.827 14.846v.716l10.795 6.274.562-.39z" fill="#56707b"></path><g fill="#61c4f0"><path d="m30.741 18.99-11.958.885c.543-.4 1.058-.785 1.529-1.143l8.843-.657zM35.627 21.832c-.657.457-1.414 1-2.286 1.643l-14.786 1.086-3.429-1.829c.4-.314.786-.628 1.172-.914l17.115-1.272z" fill="#61c4f0"></path></g><path d="M39.885 32.561c-3.158.343-6.015 1.443-8.472 2.858-5.515 3.2-9.1 7.958-9.93 9.157a1.867 1.867 0 0 1-.442.443l-3.043 1.943c-.386.229-.715.172-.843-.114-.3-.671-.629-1.786-.643-1.843 0 0 10.372-16.058 23.373-12.444z" fill="#778c95"></path></g></svg>