<svg viewBox="0 0 512.001 512.001" xmlns="http://www.w3.org/2000/svg"><g><path d="M494.131 203.229c-13.444-26.314-49.864-28.851-51.409-28.945a8.406 8.406 0 0 0-6.294 2.274 8.432 8.432 0 0 0-.487 11.788c12.257 13.604 21.289 30.646 26.852 50.669-.158 4.218-.409 17.203 1.501 34.072a8.429 8.429 0 0 0 8.378 7.483 8.43 8.43 0 0 0 7.121-3.919c19.043-30.066 23.868-54.769 14.338-73.422zM110.38 170.251c-4.076-38.368-37.86-35.654-38.197-35.619a8.43 8.43 0 0 0-7.644 8.394v44.858a8.429 8.429 0 0 0 11.95 7.66c9.749-4.478 19.649-10.185 30.267-17.444a8.434 8.434 0 0 0 3.624-7.849zM298.768 324.38a8.43 8.43 0 0 0-7.073-8.1c-31.574-5.14-52.757-12.075-52.962-12.145a8.432 8.432 0 0 0-10.524 11.02l12.869 33.585-9.724 13.78c-19.18 3.504-27.282 22.887-28.905 33.32a8.427 8.427 0 0 0 1.928 6.78 8.434 8.434 0 0 0 6.403 2.946h53.962a8.43 8.43 0 0 0 6.734-3.359l26.577-35.293a8.426 8.426 0 0 0 1.693-5.292l-.978-37.242zM416.696 322.335a8.42 8.42 0 0 0-8.586-4.116c-21.687 3.344-45.103 4.393-69.595 3.12a8.408 8.408 0 0 0-6.242 2.305 8.435 8.435 0 0 0-2.626 6.114v38.018a108.672 108.672 0 0 0-7.241 6.515c-8.053 7.958-12.423 15.045-13.361 21.663a8.427 8.427 0 0 0 1.982 6.71 8.429 8.429 0 0 0 6.366 2.904h44.555c2.9 0 5.597-1.491 7.14-3.947.328-.524 33.03-52.54 46.882-69.793a8.431 8.431 0 0 0 .726-9.493z" fill="#512807"></path><path d="M510.05 349.624c-33.982-40.849-30.401-110.367-30.36-111.058a8.427 8.427 0 0 0-.275-2.687c-12.323-45.814-40.468-77.565-83.652-94.371-28.476-11.081-63.326-15.584-106.541-13.771-31.658 1.334-47.871-5.886-62.175-12.253-11.663-5.191-22.674-10.102-38.486-8.856-19.529 1.531-38.531 16.689-60.535 34.24-17.532 13.984-37.402 29.833-59.529 39.803-44.511 20.055-47.414 49.165-46.611 60.724L2.309 262.072A8.43 8.43 0 0 0 .27 269.98c6.082 23.51 41.598 36.743 45.628 38.174a8.426 8.426 0 0 0 6.661-.44c37.818-19.341 50.392-9.802 51.816-8.528 1.369 2.184 3.469 3.294 6.066 3.554 2.679.279 5.073-1.107 6.869-3.101 5.68-6.301 16.817-13.223 25.926-18.216a173.54 173.54 0 0 1-.169 6.81c-1.509 33.549-12.121 57.839-31.547 72.22-6.547 2.099-29.692 11.151-33.953 35.213a8.43 8.43 0 0 0 8.301 9.901h52.512c1.39 0 2.76-.344 3.985-1.002l54.102-29.016a8.436 8.436 0 0 0 1.719-1.222c.887-.815 21.96-20.33 41.439-51.724.099-.16.193-.32.292-.481 16.651 4.829 63.009 16.64 118.138 16.64 15.125 0 30.913-.899 46.925-3.066 3.512 5.504 7.521 10.229 12.052 14.118 9.131 7.837 18.455 10.61 25.111 11.504l.327 8.473c-10.496 9.549-13.644 23.915-13.998 25.69a8.431 8.431 0 0 0 8.268 10.083h46.942a8.433 8.433 0 0 0 7.624-4.831l19.891-42.122a8.43 8.43 0 0 0-1.147-8.987z" fill="#a86b38"></path><path d="M110.438 302.741c2.679.279 5.073-1.107 6.869-3.101 5.68-6.301 16.817-13.223 25.926-18.216 4.499-30.906 1.079-61.193 1.079-61.193-19.271 20.216-32.096 58.052-37.222 81.525.989.537 2.111.86 3.348.985zM448.793 238.07s-4.304 72.954 32.295 116.946l-23.919 50.551h26.51a8.433 8.433 0 0 0 7.624-4.831l19.891-42.122a8.433 8.433 0 0 0-1.143-8.992c-33.982-40.849-30.401-110.367-30.36-111.058a8.427 8.427 0 0 0-.275-2.687c-12.323-45.814-40.468-77.565-83.652-94.371-28.476-11.081-63.326-15.584-106.541-13.771 57.6 1.774 137.178 27.094 159.57 110.335z" fill="#8c4a14"></path><path d="M397.113 245.112s-25.131 38.153-18.497 93.073c8.67-.484 17.478-1.285 26.361-2.486 0-.001-10.69-20.277-7.864-90.587zM261.699 211.74c-.416-4.383-1.861-13.775-3.778-25.301-5.022 23.265-14.125 57.456-29.677 93.617v.001c-19.828 49.203-58.247 82.901-58.247 82.901L82.484 404.85a8.421 8.421 0 0 0 3.381.717h52.512c1.39 0 2.76-.344 3.985-1.002l54.102-29.016a8.436 8.436 0 0 0 1.719-1.222c.887-.815 21.96-20.33 41.439-51.724.099-.16.193-.32.292-.481l.261.075c13.45-30.838 25.296-70.681 21.524-110.457z" fill="#8c4a14"></path><path d="M66.68 245.587c-5.347 0-9.697-4.342-9.697-9.681 0-5.338 4.35-9.682 9.697-9.682 5.348 0 9.699 4.343 9.699 9.682-.002 5.339-4.352 9.681-9.699 9.681zM19.67 292.264a8.412 8.412 0 0 1-5.483-2.027C6.793 283.905 2.11 277.091.27 269.98a8.433 8.433 0 0 1 2.039-7.908l11.235-11.867a8.433 8.433 0 0 1 11.073-1.029c1.14.826 11.141 8.417 11.486 20.269.154 5.273-1.647 13.182-11.095 20.912a8.407 8.407 0 0 1-5.338 1.907z" fill="#000000"></path></g></svg>