<svg viewBox="0 0 512 512" xmlns="http://www.w3.org/2000/svg"><g><path d="M43.6 68.5h442.6v306.7H43.6z" fill="#f3fcff"></path><path d="M486.2 68.5v306.7h-370c117.5-32.8 262.4-134.9 281.4-306.7z" fill="#e1f7ff"></path><path d="M509.8 68.5H2.2c-.7 0-1.2-.5-1.2-1.1V26.2c0-.6.5-1.2 1.2-1.2h507.6c.6 0 1.2.5 1.2 1.2v41.1c0 .7-.5 1.2-1.2 1.2z" fill="#8ac9fe"></path><g fill="#8ac9fe"><path d="M409.7 486.9H365l-64.6-111.7h44.8zM221.1 375.2l-64.5 111.7h-44.8l64.6-111.7z" fill="#8ac9fe"></path></g><path d="M358.6 304.3h-36.7c-11.1-.2-11.1-16.7 0-16.9h36.7c11.1.1 11.1 16.7 0 16.9zM286.8 304.3H173.5c-12.1 0-23.5-4.7-32.1-13.3-28.5-27.9-7.8-78.1 32.1-77.6h184.9c37.6-1.1 37.7-55.8 0-57H250.1c-11.1-.2-11.1-16.8 0-16.9h108.3c39.9-.5 60.7 49.8 32.1 77.6-8.6 8.6-20 13.3-32.1 13.3H173.5c-37.6 1.2-37.7 55.9 0 57h113.3c11.1.1 11.1 16.7 0 16.9zM214.9 156.3h-43.8c-11.1-.2-11.1-16.7 0-16.9h43.8c11.1.2 11.2 16.8 0 16.9z" fill="#ffb09e"></path><path d="M171.1 147.9c-2.5 52.6-79.1 46.3-72.9-6 7.3 40.6 65.2 40.5 72.4 0 .3 1.9.5 3.9.5 6z" fill="#feb237"></path><path d="M170.6 141.8c-7.2 40.5-65.2 40.6-72.4 0 7.3-40.6 65.1-40.5 72.4 0z" fill="#ffd15b"></path><path d="M432.1 295.8c-2.6 52.6-79.2 46.2-73-6.1 7.2 40.6 65.2 40.5 72.5 0 .3 2 .5 4 .5 6.1z" fill="#feb237"></path><path d="M431.6 289.7c-7.3 40.6-65.3 40.5-72.5 0 7.2-40.5 65.2-40.5 72.5 0z" fill="#ffd15b"></path><path d="M395.4 312.8c-22.4-.6-22.4-33.3 0-33.9 22.3.5 22.3 33.3 0 33.9zM129.9 166.3c-7.8.3-11.6-10.7-5.1-15.2l4.2-3.2-4.2-3.2c-8.8-6.8 1.2-20.1 10.2-13.5l13.2 9.9c4.5 3.2 4.5 10.4 0 13.5-4.8 3.2-14.2 12.3-18.3 11.7z" fill="#00c285"></path><g fill="#00c285"><path d="M250.1 147.9c-.6 23.2-34.6 23.2-35.1 0 .5-23.2 34.5-23.2 35.1 0zM321.9 295.8c-.6 23.2-34.6 23.2-35.1 0 .6-23.2 34.5-23.2 35.1 0z" fill="#00c285"></path></g></g></svg>