<svg viewBox="0 0 512 512" xmlns="http://www.w3.org/2000/svg"><g><path d="M452.112 474.455c20.491 0 34.592-20.803 26.757-39.737-7.09-17.133-17.734-29.622-4.74-58.744 22.961-51.459 10.602-78.75-9.714-111.79-34.441-56.012-9.261-84.62-22.653-133.142-48.223-174.717-323.296-174.728-371.523 0-13.393 48.522 11.788 77.129-22.653 133.142-20.316 33.04-32.675 60.331-9.714 111.79 12.994 29.122 2.35 41.612-4.74 58.744-7.835 18.934 6.266 39.737 26.757 39.737z" fill="#735351"></path><path d="M474.129 375.974c22.961-51.459 10.602-78.75-9.714-111.79-34.441-56.012-9.261-84.62-22.653-133.142C416.111 38.109 326.281-5.395 240.544.534c75.454 5.217 147.738 48.721 170.312 130.508 13.393 48.522-11.788 77.13 22.653 133.142 20.316 33.04 32.675 60.331 9.714 111.79-12.994 29.122-2.35 41.612 4.74 58.744 7.835 18.934-6.266 39.737-26.757 39.737h30.905c20.491 0 34.592-20.804 26.757-39.737-7.089-17.133-17.733-29.623-4.739-58.744z" fill="#664442"></path><ellipse cx="396.338" cy="271.048" fill="#fac8a2" rx="31.298" ry="31.444"></ellipse><ellipse cx="115.662" cy="271.048" fill="#fac8a2" rx="31.298" ry="31.444"></ellipse><path d="M111.533 512v-23.24c0-79.666 64.582-144.248 144.248-144.248h.439c79.666 0 144.248 64.582 144.248 144.248V512z" fill="#ff80b3"></path><path d="M256.219 344.512h-.439c-5.145 0-10.227.27-15.233.796 72.505 7.61 129.015 68.932 129.015 143.452V512h30.905v-23.24c0-79.666-64.582-144.248-144.248-144.248z" fill="#ff6ba7"></path><path d="M256.056 454.528h-.111c-20.21 0-36.594-16.384-36.594-36.594v-59.226h73.298v59.226c0 20.21-16.383 36.594-36.593 36.594z" fill="#ffd8ba"></path><path d="M181.344 100.439c-4.633 47.132-28.565 52.383-43.343 57.509-7.086 2.458-11.818 9.18-11.818 16.711v89.116c0 72.03 58.121 130.421 129.818 130.421 71.696 0 129.818-58.392 129.818-130.421v-82.906c0-10.037-8.296-17.981-18.283-17.687-15.63.459-41.584.577-61.692-19.332-25.633-25.379-40.459-16.343-67.21-16.954-33.445-.764-47.285-16.346-52.895-27.297-1.071-2.087-4.165-1.496-4.395.84z" fill="#ffd8ba"></path><g fill="#735351"><path d="M185.603 197.862a7.726 7.726 0 0 1-.181-15.45c13.996-.333 25.506-9.154 25.618-9.242 3.345-2.65 8.204-2.088 10.854 1.257s2.088 8.204-1.257 10.854c-.624.495-15.51 12.12-34.848 12.58l-.186.001zM326.398 197.862l-.188-.002c-19.338-.461-34.223-12.086-34.848-12.58a7.727 7.727 0 0 1 9.577-12.127c.218.17 11.656 8.926 25.639 9.259a7.727 7.727 0 0 1-.18 15.45z" fill="#735351"></path></g><path d="M290.483 355.441s29.694-63.056 0-93.871c-15.462-16.046-53.519-16.03-68.966 0-29.694 30.814 0 93.871 0 93.871s29.81-11.057 68.966 0z" fill="#ffffff"></path><path d="M290.483 355.441s4.417-9.386 8.141-22.68c-9.408-14.223-24.985-23.532-42.624-23.532s-33.216 9.308-42.624 23.532c3.723 13.294 8.141 22.68 8.141 22.68s29.81-11.057 68.966 0z" fill="#e86d6d"></path><g fill="#f0b07f"><path d="M170.452 241.578a7.726 7.726 0 0 1-6.389-12.061c.265-.391 6.626-9.662 18.098-16.269 10.834-6.238 28.354-11.338 50.3-.194a7.726 7.726 0 0 1-6.996 13.778c-30.098-15.284-47.866 10.258-48.608 11.352a7.724 7.724 0 0 1-6.405 3.394zM341.548 241.578a7.718 7.718 0 0 1-6.386-3.368c-.135-.193-5.016-7.099-13.49-11.83-10.825-6.044-22.645-5.892-35.136.453a7.726 7.726 0 0 1-6.996-13.778c21.945-11.145 39.466-6.047 50.3.194 11.471 6.607 17.833 15.877 18.098 16.269a7.727 7.727 0 0 1-6.39 12.06z" fill="#f0b07f"></path></g></g></svg>