<svg viewBox="0 0 512 512" xmlns="http://www.w3.org/2000/svg"><g><path d="M63.902 393.309v110.886c0 3.868 3.133 7 6.996 7H85.48a6.998 6.998 0 0 0 6.997-7V393.31zM419.523 393.309v110.886c0 3.868 3.133 7 6.997 7h14.582a6.998 6.998 0 0 0 6.996-7V393.31zm0 0" fill="#aa493f"></path><path d="M83.285 504.195V393.31H63.902v110.886c0 3.867 3.133 7 6.996 7H85.48c.844 0 1.653-.16 2.403-.433-2.68-.98-4.598-3.547-4.598-6.567zM438.906 504.195V393.31h-19.383v110.886c0 3.867 3.133 7 6.997 7h14.582c.843 0 1.652-.16 2.402-.433-2.68-.98-4.598-3.547-4.598-6.567zm0 0" fill="#993b36"></path><path d="M503.008 0H427.07c-2.972 0-5.363.824-7.093 3.297L385.324 52.78c-2.445 3.496-1.597 8.317 1.899 10.762a7.683 7.683 0 0 0 4.425 1.398 7.718 7.718 0 0 0 6.336-3.296l32.344-46.192h72.68a7.729 7.729 0 0 0 7.726-7.726A7.724 7.724 0 0 0 503.008 0zm0 0" fill="#dde4f7"></path><g fill="#fec13b"><path d="M276.195 45.723c-5.566 12.726-2.09 27.629 9.09 35.453 11.18 7.828 26.371 6 36.426-3.582zM335.297 87.105c-5.567 12.727-2.09 27.63 9.09 35.457 11.175 7.825 26.37 5.997 36.425-3.585zM394.398 128.488c-5.566 12.727-2.09 27.63 9.09 35.457 11.176 7.825 26.371 5.996 36.426-3.586zm0 0" fill="#fec13b"></path></g><path d="M307.234 81.176c-7.32-5.125-11.312-13.285-11.652-21.88l-19.387-13.573c-5.566 12.726-2.09 27.629 9.09 35.453 7.985 5.59 18.008 6.23 26.754 2.664a26.769 26.769 0 0 1-4.805-2.664zM366.336 122.563c-7.32-5.126-11.313-13.29-11.652-21.883l-19.387-13.575c-5.567 12.727-2.09 27.63 9.09 35.457 7.984 5.59 18.008 6.231 26.754 2.66a26.992 26.992 0 0 1-4.805-2.66zM425.438 163.945c-7.32-5.125-11.313-13.289-11.653-21.882l-19.387-13.575c-5.562 12.727-2.09 27.63 9.09 35.457 7.985 5.59 18.008 6.23 26.754 2.66a26.992 26.992 0 0 1-4.804-2.66zm0 0" fill="#f9a332"></path><path d="M497.906 327.61H14.094C6.34 327.61 0 333.95 0 341.7v14.093c0 7.75 6.34 14.094 14.094 14.094h483.812c7.75 0 14.094-6.344 14.094-14.094v-14.094c0-7.75-6.34-14.09-14.094-14.09zm0 0" fill="#b9e1fb"></path><path d="M36.059 355.793v-14.094c0-7.75 6.34-14.09 14.093-14.09H14.094C6.34 327.61 0 333.95 0 341.7v14.094c0 7.75 6.34 14.094 14.094 14.094h36.054c-7.75 0-14.09-6.344-14.09-14.094zm0 0" fill="#9ad3f6"></path><path d="M143.266 313.52v-14.094c0-7.75-6.34-14.09-14.09-14.09H14.094C6.34 285.336 0 291.676 0 299.426v14.094c0 7.75 6.34 14.09 14.094 14.09h115.082c7.75 0 14.09-6.34 14.09-14.09zm0 0" fill="#9ad3f6"></path><path d="M36.059 313.52v-14.094c0-7.75 6.34-14.09 14.093-14.09H14.094C6.34 285.336 0 291.676 0 299.426v14.094c0 7.75 6.34 14.09 14.094 14.09h36.054c-7.75 0-14.09-6.34-14.09-14.09zm0 0" fill="#78cbf4"></path><path d="M20.746 369.887v14.48c0 7.75 6.34 14.094 14.094 14.094h442.32c7.75 0 14.094-6.344 14.094-14.094v-14.48zm0 0" fill="#b7594a"></path><path d="M56.805 384.367v-14.48H20.746v14.48c0 7.75 6.34 14.094 14.094 14.094h36.058c-7.753 0-14.093-6.344-14.093-14.094zm0 0" fill="#aa493f"></path><path d="M460.637 131.785c-.75-21.137-10.364-41.078-27.996-53.426l-77.598-54.332c-17.637-12.347-39.66-14.562-59.777-8.039zm0 0" fill="#ccd7f2"></path><path d="M338.367 25.066c-3.523-2.464-3.66-6.976-1.437-9.836-13.453-4.07-27.996-3.675-41.664.758L460.64 131.781c-.309-8.617-2.114-17.027-5.309-24.816zm0 0" fill="#bccced"></path><path d="M304.516 179.504a7.726 7.726 0 0 1-1.899-10.762l16.438-23.476a7.726 7.726 0 1 1 12.656 8.863l-16.438 23.476a7.72 7.72 0 0 1-10.757 1.899zM344.754 197.879a7.727 7.727 0 0 1-6.074-9.086l5.578-28.11c.832-4.187 4.894-6.906 9.082-6.074s6.906 4.899 6.074 9.082l-5.578 28.11a7.727 7.727 0 0 1-9.082 6.078zM273.488 147.973c-2.215-3.649-1.047-8.399 2.602-10.614l24.508-14.855a7.727 7.727 0 1 1 8.007 13.219l-24.503 14.855c-3.649 2.207-8.403 1.047-10.614-2.605zm0 0" fill="#fcdfae"></path><path d="M205.387 209.387H22.757C10.212 209.387 0 199.176 0 186.629V65.813c0-12.551 10.21-22.758 22.758-22.758h182.629c12.55 0 22.758 10.207 22.758 22.758v120.816c0 12.547-10.208 22.758-22.758 22.758zm0 0" fill="#dde4f7"></path><path d="M36.059 186.629V65.813c0-12.551 10.21-22.758 22.757-22.758H22.758C10.21 43.05 0 53.262 0 65.813v120.816c0 12.547 10.21 22.758 22.758 22.758h36.058c-12.546 0-22.757-10.211-22.757-22.758zm0 0" fill="#ccd7f2"></path><path d="M197.07 71.148H31.078a2.982 2.982 0 0 0-2.98 2.98v104.18a2.982 2.982 0 0 0 2.98 2.981H197.07a2.982 2.982 0 0 0 2.98-2.98V74.129a2.982 2.982 0 0 0-2.98-2.98zm0 0" fill="#63a1fc"></path><path d="M64.156 178.309V74.129a2.98 2.98 0 0 1 2.98-2.98H31.079a2.982 2.982 0 0 0-2.98 2.98v104.18a2.982 2.982 0 0 0 2.98 2.98h36.059a2.98 2.98 0 0 1-2.98-2.98zm0 0" fill="#4188ff"></path><path d="M84.828 109.352c-1.152 1.296-2.629 1.101-3.55-.047-6.97-12.278-25.833-7.332-25.833 6.804 0 19.243 20.227 30.68 26.426 33.727a2.697 2.697 0 0 0 2.399 0c6.203-3.059 26.433-14.531 26.433-33.727-.004-14.074-18.808-19.144-25.875-6.757zm0 0" fill="#ff5155"></path><path d="M83.906 110.832c0-.27.02-.527.031-.793-.949.453-1.96.133-2.66-.734-6.968-12.278-25.832-7.332-25.832 6.804 0 19.243 20.227 30.68 26.426 33.727a2.697 2.697 0 0 0 2.399 0c3.203-1.578 10.132-5.402 16.097-11.367-7.746-5.739-16.46-15.008-16.46-27.637zm0 0" fill="#f24049"></path><path d="M168.207 106.738h-30.531a7.727 7.727 0 1 1 0-15.453h30.531c4.266 0 7.727 3.457 7.727 7.727s-3.461 7.726-7.727 7.726zM168.207 133.945h-30.531a7.727 7.727 0 1 1 0-15.453h30.531a7.726 7.726 0 1 1 0 15.453zM168.207 161.152h-30.531a7.727 7.727 0 1 1 0-15.453h30.531a7.726 7.726 0 1 1 0 15.453zm0 0" fill="#4188ff"></path><path d="m465.492 162.754 6.153-8.781c4.445-6.352 2.886-15.18-3.461-19.625L290.973 10.262c-6.352-4.446-15.184-2.89-19.63 3.46l-6.148 8.782c-4.445 6.348-2.886 15.18 3.461 19.625l177.211 124.086c6.352 4.445 15.184 2.887 19.625-3.461zm0 0" fill="#dde4f7"></path><path d="M303.645 42.129c-6.348-4.445-7.907-13.277-3.461-19.625l2.722-3.887-11.933-8.355c-6.352-4.446-15.18-2.89-19.625 3.46l-6.153 8.782c-4.441 6.348-2.886 15.18 3.461 19.625l177.211 124.086c6.352 4.445 15.184 2.887 19.63-3.461l3.425-4.895zm0 0" fill="#ccd7f2"></path><path d="M110.762 243.52c0 24.855-20.153 45.007-45.008 45.007-24.856 0-45.008-20.152-45.008-45.007 0-24.86 20.152-45.008 45.008-45.008 24.855 0 45.008 20.148 45.008 45.008zm0 0" fill="#ffcdbe"></path><path d="M55.355 243.52c0-18.727 11.438-34.774 27.704-41.56a44.91 44.91 0 0 0-17.305-3.452c-24.856 0-45.008 20.152-45.008 45.008 0 24.859 20.152 45.007 45.008 45.007 6.133 0 11.976-1.23 17.305-3.453-16.266-6.777-27.704-22.828-27.704-41.55zm0 0" fill="#f7c1b3"></path><path d="M165.05 281.64c0-.312.028-.617.055-.917l-30.582-6.707c-9.273-2.258-18.636 3.425-20.902 12.707-2.262 9.277 3.426 18.636 12.707 20.898l38.723 8.692V281.64zm0 0" fill="#ffcdbe"></path><path d="M144.965 290.484a22.134 22.134 0 0 1 8.117-12.398l-18.559-4.07c-9.277-2.258-18.64 3.425-20.902 12.707-2.262 9.277 3.426 18.636 12.707 20.898l27.137 6.094c-7.055-5.149-10.695-14.219-8.5-23.23zm0 0" fill="#f7c1b3"></path><path d="M441.504 293.016h-54.281v34.59h54.28c9.552 0 17.298-7.743 17.298-17.297 0-9.551-7.746-17.293-17.297-17.293zm0 0" fill="#ffcdbe"></path><path d="M418.426 293.016h-31.203v34.59h31.203v-34.59zm0 0" fill="#f7c1b3"></path><path d="M380.328 280.977h-167.77c-.796 0-1.593-.098-2.367-.286l-35.882-8.75c-6.286-1.535-12.348 3.227-12.348 9.7v187.695c0 5.512 4.469 9.98 9.984 9.98h208.383c5.516 0 9.985-4.468 9.985-9.98V290.96a9.983 9.983 0 0 0-9.985-9.984zm0 0" fill="#63a1fc"></path><path d="M198.152 469.336V281.64c0-1.325.266-2.57.723-3.711l-24.566-5.989c-6.286-1.535-12.348 3.227-12.348 9.7v187.695c0 5.512 4.469 9.98 9.984 9.98h36.196c-5.516 0-9.989-4.468-9.989-9.98zm0 0" fill="#4188ff"></path></g></svg>