<svg viewBox="0 0 512 512" xmlns="http://www.w3.org/2000/svg"><g><g fill="#6e6e85"><path d="m323.243 270.832 180 99.311c7.253 4.002 9.889 13.126 5.888 20.38-4.002 7.254-13.126 9.889-20.38 5.888l-180-99.311zM312.347 344.82l190.897 105.322c7.253 4.002 9.889 13.126 5.888 20.38-4.002 7.254-13.126 9.889-20.38 5.888L297.854 371.088zM235.727 416.522l14.76-26.13 165.617 93.551-14.76 26.13z" fill="#6e6e85"></path></g><path d="M101 255v40c0 8.271 6.729 15 15 15h68v30h-68c-24.813 0-45-20.187-45-45v-40z" fill="#9a5e34"></path><path d="M331 255v80c0 24.813-20.187 45-45 45h-38v-30h38c8.271 0 15-6.729 15-15v-80z" fill="#73553a"></path><path d="M216 240h-45v256h45l20-144z" fill="#c37e4e"></path><path d="M216 240h45v256h-45z" fill="#9a5e34"></path><path d="m488.751 156.41-143.43-79.133 14.492-26.268 143.43 79.133c7.253 4.002 9.889 13.126 5.888 20.38-4.002 7.254-13.126 9.89-20.38 5.888zM488.751 236.41l-95.913-52.917 14.492-26.268 95.913 52.917c7.253 4.002 9.889 13.126 5.888 20.38-4.002 7.254-13.126 9.89-20.38 5.888zM488.751 316.41l-119.426-65.89 14.492-26.268 119.426 65.89c7.253 4.002 9.889 13.126 5.888 20.38-4.002 7.254-13.126 9.89-20.38 5.888z" fill="#6e6e85"></path><path d="M216 0c-28.113 0-54.015 13.879-69.715 36.405C136.811 32.186 126.562 30 116 30c-41.355 0-75 33.645-75 75a74.454 74.454 0 0 0 3.338 22.023C18.426 139.086 1 165.345 1 195c0 41.355 33.645 75 75 75h140l100-110z" fill="#bfe85f"></path><path d="M387.662 127.023A74.454 74.454 0 0 0 391 105c0-41.355-33.645-75-75-75-10.562 0-20.811 2.186-30.285 6.405C270.015 13.879 244.113 0 216 0v270h140c41.355 0 75-33.645 75-75 0-29.655-17.426-55.914-43.338-67.977z" fill="#80d297"></path><path d="M16 482c-8.284 0-15 6.716-15 15s6.716 15 15 15h200l10-16-10-14z" fill="#bfe85f"></path><path d="M496 482H216v30h280c8.284 0 15-6.716 15-15s-6.716-15-15-15z" fill="#80d297"></path></g></svg>