<svg viewBox="0 0 497 497" xmlns="http://www.w3.org/2000/svg"><g><path d="M373.883 423.405h-270.43c-11.762 0-21.298-9.536-21.298-21.298V21.298C82.156 9.535 91.691 0 103.454 0h215.391l76.337 86.281v315.826c-.001 11.762-9.536 21.298-21.299 21.298z" fill="#efedef"></path><path d="M343.132 131.752H153.868a7.5 7.5 0 0 1 0-15h189.265a7.5 7.5 0 1 1-.001 15zM343.132 183.073H193.868a7.5 7.5 0 0 1 0-15h149.265a7.5 7.5 0 1 1-.001 15z" fill="#7a6d79"></path><path d="M375.968 57.123v344.983c0 11.762-9.535 21.298-21.298 21.298h29.157c11.762 0 21.298-9.536 21.298-21.298V86.281z" fill="#d7d0d6"></path><path d="M405.125 86.281h-64.986c-11.761 0-21.294-9.534-21.294-21.295V0z" fill="#b5adb6"></path><path d="M45.983 497h394.972c12.511 0 22.653-10.142 22.653-22.653V249.546c0-12.511-10.142-22.653-22.653-22.653H172.16l-12.954-38.795a22.653 22.653 0 0 0-21.487-15.478H45.983c-12.511 0-22.653 10.142-22.653 22.653v279.074C23.331 486.858 33.473 497 45.983 497z" fill="#ffe177"></path><path d="M451.017 226.893h-27.184c12.511 0 22.653 10.142 22.653 22.653v224.801c0 12.511-10.142 22.653-22.653 22.653h27.184c12.511 0 22.653-10.142 22.653-22.653V249.546c-.001-12.511-10.143-22.653-22.653-22.653z" fill="#ffd15b"></path><path d="M285.985 349.295a7.5 7.5 0 0 1-7.5-7.5v-19.942c0-16.534-13.451-29.985-29.985-29.985s-29.985 13.451-29.985 29.985v19.942a7.5 7.5 0 0 1-15 0v-19.942c0-24.805 20.18-44.985 44.985-44.985s44.985 20.18 44.985 44.985v19.942a7.5 7.5 0 0 1-7.5 7.5z" fill="#7a6d79"></path><path d="M290.311 439.526h-84.75c-6.227 0-11.274-5.048-11.274-11.275v-75.182c0-6.227 5.048-11.274 11.274-11.274h84.75c6.227 0 11.275 5.048 11.275 11.274v75.182c0 6.227-5.048 11.275-11.275 11.275z" fill="#fe646f"></path><path d="M290.312 341.795h-24.298c6.227 0 11.275 5.048 11.275 11.275v75.181c0 6.227-5.048 11.275-11.275 11.275h24.298c6.227 0 11.274-5.048 11.274-11.275V353.07c0-6.227-5.048-11.275-11.274-11.275z" fill="#fd4755"></path><path d="m262.654 410.74-7.496-17.438c4.675-2.583 7.694-7.797 7.046-13.648-.699-6.316-5.817-11.433-12.133-12.131-8.32-.919-15.362 5.57-15.362 13.704 0 5.201 2.881 9.726 7.133 12.075l-7.496 17.438a2.255 2.255 0 0 0 2.072 3.146h24.165a2.255 2.255 0 0 0 2.071-3.146z" fill="#7a6d79"></path></g></svg>