<svg id="Layer_1" height="512" viewBox="0 0 512 512" width="512" xmlns="http://www.w3.org/2000/svg" data-name="Layer 1"><g fill="#fdc72e" fill-rule="evenodd"><path d="m272.73 192.168 125.981-125.981-24.475-24.475c-2.18-2.18-2.874-5.219-1.857-8.129s3.452-4.856 6.515-5.204l108.375-12.323c2.454-.279 4.682.499 6.429 2.246s2.525 3.975 2.246 6.429l-12.323 108.375c-.348 3.064-2.293 5.499-5.204 6.515s-5.949.322-8.129-1.858l-24.475-24.475-125.982 125.981c-4.481 4.481-11.816 4.482-16.297 0l-30.805-30.805c-4.482-4.482-4.482-11.816 0-16.298z"/><path d="m239.27 319.832-125.981 125.981 24.475 24.475c2.18 2.18 2.874 5.219 1.857 8.129s-3.452 4.856-6.515 5.204l-108.375 12.323c-2.454.279-4.682-.499-6.429-2.246s-2.525-3.975-2.246-6.429l12.323-108.375c.348-3.064 2.293-5.499 5.204-6.515 2.91-1.017 5.949-.322 8.129 1.857l24.475 24.475 125.982-125.982c4.481-4.481 11.816-4.482 16.297 0l30.805 30.805c4.481 4.482 4.482 11.816 0 16.297z"/></g></svg>