<svg viewBox="0 0 512 512" xmlns="http://www.w3.org/2000/svg"><g><path d="M71.98 184.674c0 33.51 8.8 71.16 25.16 100.41A98.433 98.433 0 0 1 108.5 347.6L88.97 490.154a5.154 5.154 0 0 0 5.1 5.85h184.62a5.15 5.15 0 0 0 5.141-5.4l-3.431-69.19a19.11 19.11 0 0 1 24.41-19.28c11.67 3.37 25.56 9.06 43.611 12.1 60.819 10.26 53.219-27.54 53.219-27.54l-4.77-17.86a3.555 3.555 0 0 1 1.99-4.18l7.87-3.47a4.848 4.848 0 0 0 1.4-7.93l-7.53-7.27a3.555 3.555 0 0 1 .389-5.44l12.66-9.16a1.926 1.926 0 0 0 .311-2.84l-9.87-9.83-.01-18.74a1.517 1.517 0 0 1 1.63-1.63c14.72.67 25.569-2.27 31.109-6.36a8.119 8.119 0 0 0 1.861-10.95l-36.361-56.15a9.869 9.869 0 0 1-1.769-8.84c3.179-10.98 9.439-25.97 9.439-35.98C409.99 86.9 333.251 16 240.291 16S71.98 91.524 71.98 184.674z" fill="#ffd8b7"></path><path d="M108.5 347.6a98.433 98.433 0 0 0-11.361-62.52c-16.36-29.25-25.16-66.9-25.16-100.41C71.98 91.524 147.341 16 240.291 16a180.087 180.087 0 0 1 25.417 1.8A168.6 168.6 0 0 0 121.98 184.674c0 33.51 8.8 71.16 25.16 100.41A98.433 98.433 0 0 1 158.5 347.6l-19.53 142.554a5.154 5.154 0 0 0 5.1 5.85h-50a5.154 5.154 0 0 1-5.1-5.85z" fill="#efbb95"></path></g></svg>