<svg viewBox="0 0 64 64" xmlns="http://www.w3.org/2000/svg"><g><path d="M18 48h28a12 12 0 0 1 12 12H6a12 12 0 0 1 12-12z" fill="#fab95a"></path><path d="M48 50H20A11.993 11.993 0 0 0 8.18 60H58a11.938 11.938 0 0 0-2.58-7.42A11.938 11.938 0 0 0 48 50z" fill="#e9a645"></path><path d="m23.421 20.031-2.989.261a39.067 39.067 0 0 0-7.238 26.266l.65 7.437a6.667 6.667 0 0 0 7.97-.697l-.81-3.254a47.26 47.26 0 0 1 2.417-30.013z" fill="#9f7a50"></path><path d="m21.814 53.298-.81-3.254a47.258 47.258 0 0 1 2.343-29.831l-.915.08a39.066 39.066 0 0 0-7.238 26.265l.706 8.275a6.664 6.664 0 0 0 5.914-1.535z" fill="#93693a"></path><path d="m14.928 4.173 6.157 16.914c2.595-.944 3.32-5.496 1.62-10.167s-5.182-7.692-7.777-6.747z" fill="#5aa031"></path><path d="m15.87 6.76 5.215 14.327a2.984 2.984 0 0 0 1.157-.788 13.035 13.035 0 0 0-.733-6.816c-1.261-3.467-3.505-6.02-5.639-6.722z" fill="#4d9325"></path><g fill="#ffd21f"><path d="m51 10.265-.12-.12a2.204 2.204 0 0 0-3.117 0 2.204 2.204 0 0 0 0 3.118L51 16.5l3.237-3.237a2.204 2.204 0 0 0 0-3.117 2.204 2.204 0 0 0-3.117 0zM51 7a1 1 0 0 1-1-1V4a1 1 0 0 1 2 0v2a1 1 0 0 1-1 1zM51 23a1 1 0 0 1-1-1v-2a1 1 0 0 1 2 0v2a1 1 0 0 1-1 1zM46.05 9.05a.997.997 0 0 1-.707-.293l-1.414-1.414a1 1 0 0 1 1.414-1.414l1.414 1.414a1 1 0 0 1-.707 1.707zM57.364 20.364a.997.997 0 0 1-.707-.293l-1.414-1.414a1 1 0 0 1 1.414-1.414l1.414 1.414a1 1 0 0 1-.707 1.707zM44 14h-2a1 1 0 0 1 0-2h2a1 1 0 0 1 0 2zM60 14h-2a1 1 0 0 1 0-2h2a1 1 0 0 1 0 2zM44.636 20.364a1 1 0 0 1-.707-1.707l1.414-1.414a1 1 0 0 1 1.414 1.414l-1.414 1.414a.997.997 0 0 1-.707.293zM55.95 9.05a1 1 0 0 1-.707-1.707l1.414-1.414a1 1 0 0 1 1.414 1.414l-1.414 1.414a.997.997 0 0 1-.707.293z" fill="#ffd21f"></path></g><path d="M60 61H4a1 1 0 0 1 0-2h56a1 1 0 0 1 0 2z" fill="#e4923b"></path><path d="M45.084 39.617a1 1 0 0 1-.939-1.342l.685-1.88a1 1 0 0 1 1.879.684l-.685 1.88a1 1 0 0 1-.94.658zM53.542 42.695a1 1 0 0 1-.94-1.342l.685-1.88a1 1 0 1 1 1.879.684l-.685 1.88a1 1 0 0 1-.94.658z" fill="#ff3d42"></path><path d="M40.856 38.077a1 1 0 0 1-.94-1.342l.685-1.88a1 1 0 0 1 1.879.685l-.684 1.879a1 1 0 0 1-.94.658z" fill="#ff5a69"></path><path d="M57.77 44.234a1 1 0 0 1-.94-1.342l.685-1.88a1 1 0 1 1 1.879.684l-.685 1.88a1 1 0 0 1-.939.658z" fill="#fa192d"></path><path d="m43.586 52.97 9.576-26.311a1 1 0 1 1 1.879.683l-9.576 26.311z" fill="#a1723d"></path><path d="m51.65 30.81-3.276 9.004 1.879.684 3.277-9.003a1.401 1.401 0 0 0-1.879-.684z" fill="#93693a"></path><path d="M53.417 28.88A10 10 0 0 0 40.6 34.855l6.108 2.223 3.973-.682 2.605 3.077 6.108 2.223a10 10 0 0 0-5.977-12.818z" fill="#ff5a69"></path><path d="M54.34 29.269a10 10 0 0 0-11.86 6.271l4.228 1.539 3.973-.683.745.88 1.135-.196.726 2.393 6.107 2.223A10 10 0 0 0 54.34 29.27z" fill="#ff3d42"></path><path d="M53.417 28.88c-.317-.116.046.241.5.564a10.003 10.003 0 0 1 3.598 11.569l1.879.684a10 10 0 0 0-5.976-12.818z" fill="#fa192d"></path><path d="M53.417 28.88c-1.816-.662-4.82 3.01-6.709 8.2l6.579 2.394c1.889-5.19 1.947-9.933.13-10.595z" fill="#e5f4f9"></path><path d="M48 54.312h-6a1 1 0 0 1 0-2h6a1 1 0 0 1 0 2z" fill="#fab95a"></path><path d="m4.16 14.928 16.915 6.157c.944-2.595-2.077-6.077-6.748-7.777s-9.222-.975-10.167 1.62z" fill="#6cb448"></path><path d="m6.748 15.87 14.327 5.214a2.985 2.985 0 0 0 .14-1.393 13.035 13.035 0 0 0-5.692-3.82c-3.467-1.261-6.866-1.184-8.775-.001zM36.682 30.094l-15.588-9c1.38-2.392 5.99-2.316 10.294.17s6.675 6.438 5.294 8.83z" fill="#5aa031"></path><path d="m34.297 28.717-13.203-7.623a2.985 2.985 0 0 1 .977-1.004 13.036 13.036 0 0 1 6.585 1.906c3.196 1.845 5.32 4.497 5.641 6.72z" fill="#4d9325"></path><path d="M35.412 15.873 38 14.931c-.945-2.595-5.497-3.32-10.167-1.62-3.874 1.41-6.605 4.045-6.888 6.383z" fill="#6cb448"></path><path d="m35.412 15.873-14.327 5.215a2.985 2.985 0 0 1-.14-1.394 13.035 13.035 0 0 1 5.693-3.82c3.466-1.261 6.865-1.184 8.774 0z" fill="#5aa031"></path></g></svg>