<svg viewBox="0 0 512 512" xmlns="http://www.w3.org/2000/svg"><g><path d="M160 136v208a32 32 0 0 0 32 32h208l-8.513-21.283a447.407 447.407 0 0 1-29.78-121.644L352 136z" fill="#e64c3f"></path><path d="M48 320h128v96H48z" fill="#78462f"></path><path d="M136 280H88a8 8 0 0 0-8 8v32h16v-24h32v24h16v-32a8 8 0 0 0-8-8zM48 320v32l64 24 64-24v-32z" fill="#92563a"></path><path d="M320 456h-40l-24-136-24 136h-40l16-184h96z" fill="#3b495e"></path><path d="M178.422 488H232v-32h-40l-19.359 12.906a10.423 10.423 0 0 0-4.641 8.672A10.422 10.422 0 0 0 178.422 488zM333.578 488H280v-32h40l19.359 12.906a10.423 10.423 0 0 1 4.641 8.672A10.422 10.422 0 0 1 333.578 488z" fill="#92563a"></path><path d="M256 136a40 40 0 0 1-40-40V56h80v40a40 40 0 0 1-40 40z" fill="#fec9a3"></path><path d="M232 80h16v16h-16zM264 80h16v16h-16zM296 56h-20.686A27.315 27.315 0 0 0 256 64a27.315 27.315 0 0 1-19.314 8H216V48a24 24 0 0 1 24-24h32a24 24 0 0 1 24 24z" fill="#92563a"></path><path d="M424 145.77A38.2 38.2 0 0 1 385.79 184H312a128.181 128.181 0 0 1-2.13 23.28q-2.865 16.02-4.37 32.23-1.485 16.19-1.5 32.49h-96q0-15.99-1.45-31.88-1.47-16.5-4.42-32.84A128.181 128.181 0 0 1 200 184l-64 8-8 64H88v-60.67a48.007 48.007 0 0 1 40.11-47.35L200 136h177.4l-7.61-53.27-.39-2.73h44.93l9.23 59.98a37.628 37.628 0 0 1 .44 5.79z" fill="#e0e0de"></path><path d="M424 145.77A38.2 38.2 0 0 1 385.79 184H312a128.181 128.181 0 0 1-2.13 23.28q-2.865 16.02-4.37 32.23-1.485 16.19-1.5 32.49h-96q0-15.99-1.45-31.88A463.052 463.052 0 0 0 331.24 136h46.16l-7.61-53.27q.855-1.365 1.68-2.73h42.86l9.23 59.98a37.628 37.628 0 0 1 .44 5.79z" fill="#dbdbd9"></path><path d="M409.405 48a28.3 28.3 0 0 0-28-24 28 28 0 0 0-28 28c0 11.169 6.541 23.506 16 28h44.923zM116.584 296h-9.168A19.416 19.416 0 0 1 88 276.584V256h40l5.95 11.9a19.418 19.418 0 0 1 2.05 8.684A19.416 19.416 0 0 1 116.584 296z" fill="#fec9a3"></path><path d="m160 136 56 32v-32a16 16 0 0 0-16-16h-24a16 16 0 0 0-16 16zM352 136l-56 32v-32a16 16 0 0 1 16-16h24a16 16 0 0 1 16 16z" fill="#f35244"></path><path d="m240 136 8 16-8 88 16 16 16-16-8-88 8-16z" fill="#348fd9"></path><g fill="#ffb531"><path d="m152.867 19.43 14.432-6.927 7.685 16.009-14.432 6.928zM168.245 51.436l14.432-6.928 19.212 40.021-14.432 6.928zM122.456 98.657l11.088-11.536 19.845 19.074-11.088 11.536zM67.41 45.749 78.5 34.213l41.61 39.994-11.089 11.536zM42.452 21.758 53.54 10.222 70.184 26.22 59.096 37.756zM48 208h16v16H48zM16 208h16v16H16zM44.893 133.223l6.368-14.689 40.02 17.35-6.37 14.69zM12.874 119.374l6.368-14.69 16.008 6.941-6.368 14.689zM45.18 284.803l16.002-5.862 5.504 15.023-16.002 5.862zM13.174 296.53l16.001-5.863 5.504 15.023-16.002 5.862zM312.905 87.076l12.809-26.681 14.432 6.928-12.809 26.681zM426.282 50.37l31.995-31.995 11.312 11.312-31.995 31.995zM384 216h80v16h-80zM480 216h16v16h-16zM445.07 133.348l16.008-6.94 6.368 14.688-16.008 6.94zM477.078 119.463l16.009-6.94 6.368 14.689-16.008 6.94zM389.169 281.26l5.504-15.022 72.01 26.38-5.504 15.023zM477.17 313.52l5.503-15.023 16.002 5.862-5.504 15.023z" fill="#ffb531"></path></g><path d="M80 304h16v16H80zM128 304h16v16h-16z" fill="#78462f"></path></g></svg>