<svg viewBox="0 0 511.998 511.998" xmlns="http://www.w3.org/2000/svg"><g><path d="M419.786 191.015c-27.571 0-50.001 22.431-50.001 50.001s22.43 50.001 50.001 50.001c27.57 0 50-22.431 50-50.001s-22.43-50.001-50-50.001z" fill="#efbcaa"></path><path d="M92.213 191.015c-27.571 0-50.001 22.431-50.001 50.001s22.43 50.001 50.001 50.001c27.57 0 50-22.431 50-50.001s-22.43-50.001-50-50.001z" fill="#ffd8cb"></path><path d="M454.786 277.018h-70.001c-8.284 0-15 6.716-15 15v65.914c0 4.268-3.193 11.978-6.207 14.994l-15.008 15.009H163.428l-15.003-15.004c-3.019-3.022-6.211-10.732-6.211-14.999v-65.914c0-8.284-6.716-15-15-15H57.212c-8.284 0-15 6.716-15 15v80.914c0 20.645 11.008 47.222 25.606 61.819l54.398 55.809v6.438c0 8.284 6.716 15 15 15h237.566c8.284 0 15-6.716 15-15v-6.438l54.397-55.809c14.598-14.598 25.606-41.175 25.606-61.819v-80.914c.001-8.284-6.715-15-14.999-15z" fill="#ff6666"></path><path d="M454.786 277.018h-70.001c-8.284 0-15 6.716-15 15v65.914c0 4.268-3.193 11.978-6.207 14.994l-15.008 15.009h-92.571v124.063h118.783c8.284 0 15-6.716 15-15v-6.438l54.397-55.809c14.598-14.598 25.606-41.175 25.606-61.819v-80.914c.001-8.284-6.715-15-14.999-15z" fill="#e62e6b"></path><path d="M306.976 345.721a14.999 14.999 0 0 0-23.256-9.92c-8.201 5.601-17.787 8.562-27.721 8.562s-19.519-2.961-27.721-8.562a15 15 0 0 0-23.255 9.92s-6.898 41.389-6.898 42.215c0 31.912 25.962 58.284 57.875 58.284 15.46 0 29.993-6.02 40.924-16.951 10.932-10.931 16.951-25.873 16.951-41.333-.001-.827-6.899-42.215-6.899-42.215z" fill="#efbcaa"></path><path d="M306.976 345.721a14.999 14.999 0 0 0-23.256-9.92 48.957 48.957 0 0 1-27.721 8.562V446.22c15.46 0 29.993-6.02 40.924-16.951 10.932-10.931 16.951-25.873 16.951-41.333 0-.827-6.898-42.215-6.898-42.215z" fill="#e0a089"></path><path d="M320.308 225.746H191.69c-8.284 0-15 6.716-15 15v54.308c0 43.73 35.578 79.309 79.309 79.309s79.309-35.578 79.309-79.309v-54.308c0-8.284-6.716-15-15-15z" fill="#ffd8cb"></path><path d="M320.308 225.746h-64.309v148.616c43.731 0 79.309-35.578 79.309-79.309v-54.308c0-8.283-6.716-14.999-15-14.999z" fill="#efbcaa"></path><path d="M320.308 165.74H236.69c-33.084 0-60 26.916-60 60v15.006h158.617V180.74c.001-8.283-6.715-15-14.999-15z" fill="#4d578c"></path><path d="M320.308 165.74h-64.309v75.006h79.309V180.74c0-8.283-6.716-15-15-15z" fill="#333e73"></path><path d="M365.321 47.794c-5.503 0-10.799-3.038-13.428-8.294-3.705-7.409-.703-16.42 6.707-20.125l20.001-10.002c7.41-3.706 16.42-.702 20.125 6.707s.703 16.42-6.707 20.125l-20.001 10.002a14.933 14.933 0 0 1-6.697 1.587zM385.299 117.8c-2.254 0-4.543-.509-6.697-1.587l-20.001-10.001c-7.41-3.705-10.413-12.714-6.708-20.124 3.705-7.411 12.714-10.414 20.125-6.708l20.001 10.001c7.41 3.705 10.413 12.715 6.708 20.124-2.628 5.257-7.926 8.295-13.428 8.295z" fill="#eea542"></path><g fill="#ffd250"><path d="M146.677 47.794c-2.255 0-4.543-.51-6.697-1.587l-20.001-10.002c-7.41-3.705-10.412-12.716-6.707-20.125s12.717-10.411 20.125-6.707l20.001 10.002c7.41 3.705 10.412 12.716 6.707 20.125-2.628 5.256-7.926 8.294-13.428 8.294zM126.699 117.8c-5.503 0-10.8-3.038-13.428-8.295-3.705-7.409-.702-16.419 6.708-20.124L139.98 79.38c7.41-3.707 16.42-.702 20.125 6.708 3.704 7.41.702 16.419-6.708 20.124l-20.001 10.001a14.923 14.923 0 0 1-6.697 1.587zM325.729 50.662a14.998 14.998 0 0 0-12.108-10.209L283.1 36.017 269.45 8.361a15 15 0 0 0-26.902 0l-13.65 27.655-30.521 4.436a14.998 14.998 0 0 0-8.312 25.585l22.085 21.527-5.213 30.399a15 15 0 0 0 21.764 15.813l27.298-14.353 27.298 14.353a14.995 14.995 0 0 0 15.797-1.141 15 15 0 0 0 5.968-14.671l-5.213-30.399 22.085-21.527a14.999 14.999 0 0 0 3.795-15.376z" fill="#ffd250"></path></g><path d="M325.729 50.662a14.998 14.998 0 0 0-12.108-10.209L283.1 36.017 269.45 8.361A15 15 0 0 0 255.999 0v119.425l27.298 14.353a14.995 14.995 0 0 0 15.797-1.141 15 15 0 0 0 5.968-14.671l-5.213-30.399 22.085-21.527a15.003 15.003 0 0 0 3.795-15.378z" fill="#eea542"></path></g></svg>