<svg viewBox="0 0 512 512" xmlns="http://www.w3.org/2000/svg"><g><path d="M229.957 153.27c-33.467 15.4-59.037 2.159-70.433-6.144-4.491-3.275-10.372-3.914-15.512-1.825l-9.074 3.701a27.733 27.733 0 0 1-27.648-3.913l-6.134-4.846-9.763 7.382c-9.52 7.208-22.874 6.446-31.513-1.787l-7.804-7.431-4.047 3.164c-9.469 7.401-22.844 7.108-31.968-.709l-3.111-2.657c-2.829-2.423-2.727-6.823.203-9.115l88.023-68.77c19.892-15.532 48.757-11.142 63.113 9.622l17.459 25.225a34.858 34.858 0 0 0 20.328 14.022l24.353 6.002z" fill="#e8edf2"></path><g fill="#d3dee5"><path d="m138.142 75.332 17.459 25.225c2.418 3.498 7.333 8.458 14.275 12.755 16.475 10.196 27.056 27.662 27.725 47.023 9.606.248 20.481-1.599 32.357-7.064l-3.528-38.081-24.353-6.002a34.858 34.858 0 0 1-20.328-14.022L164.29 69.941c-13.081-18.92-38.205-24.237-57.614-13.283 12.23 1.299 23.876 7.696 31.466 18.674zM93.973 105.669l-41.884 32.748 7.791 7.419a24.34 24.34 0 0 0 3.934 3.028l39.677-31.022a7.724 7.724 0 0 0 1.327-10.845 7.725 7.725 0 0 0-10.845-1.328zM125.841 121.607l-24.659 18.655 6.109 4.826a27.708 27.708 0 0 0 7.544 4.222l20.33-15.38a7.727 7.727 0 1 0-9.324-12.323z" fill="#d3dee5"></path></g><path d="M282.043 153.27c33.467 15.4 59.037 2.159 70.433-6.144 4.491-3.275 10.372-3.914 15.512-1.825l9.074 3.701a27.733 27.733 0 0 0 27.648-3.913l6.134-4.846 9.763 7.382c9.52 7.208 22.874 6.446 31.513-1.787l7.804-7.431 4.047 3.164c9.469 7.401 22.844 7.108 31.968-.709l3.111-2.657c2.829-2.423 2.727-6.823-.203-9.115l-88.023-68.77c-19.892-15.532-48.757-11.142-63.113 9.622l-17.459 25.225a34.858 34.858 0 0 1-20.328 14.022l-24.353 6.002z" fill="#e8edf2"></path><g fill="#d3dee5"><path d="m418.027 105.669 41.884 32.748-7.791 7.419a24.34 24.34 0 0 1-3.934 3.028l-39.677-31.022a7.724 7.724 0 0 1-1.327-10.845 7.725 7.725 0 0 1 10.845-1.328zM386.159 121.607l24.659 18.655-6.109 4.826a27.708 27.708 0 0 1-7.544 4.222l-20.33-15.38a7.727 7.727 0 1 1 9.324-12.323z" fill="#d3dee5"></path></g><path d="m498.847 129.089-88.023-68.77c-15.052-11.753-35.237-12.091-50.39-2.568 49.189 9.994 111.352 67.889 64.36 92.406 8.97 4.3 19.892 2.764 27.326-4.321l7.804-7.431 4.047 3.164c9.469 7.401 22.844 7.108 31.968-.709l3.111-2.657c2.828-2.422 2.727-6.822-.203-9.114z" fill="#d3dee5"></path><path d="M301.973 139.858c0-15.565-5.144-29.652-13.456-39.854-2.248-2.759-3.535-6.173-3.535-9.731V77.259c0-15.792-12.381-29.14-28.167-29.573-16.378-.449-29.795 12.694-29.795 28.97v13.616c0 3.559-1.287 6.973-3.535 9.731-8.313 10.203-13.456 24.29-13.456 39.854 0 18.136 6.983 37.871 17.827 51.197 3.898 4.79 4.701 11.393 2.207 17.043l-11.943 27.055c-1.288 2.919-.082 6.322 2.734 7.822 23.431 12.481 46.863 12.481 70.294 0 2.816-1.5 4.023-4.903 2.734-7.822l-11.943-27.055c-2.494-5.65-1.691-12.253 2.207-17.043 10.844-13.325 17.827-33.06 17.827-51.196z" fill="#e8edf2"></path><path d="M281.938 208.099c-2.494-5.65-1.691-12.253 2.207-17.043 10.845-13.326 17.827-33.061 17.827-51.197 0-15.565-5.144-29.652-13.456-39.854-2.248-2.759-3.535-6.173-3.535-9.731V77.259c0-15.791-12.381-29.14-28.167-29.573a28.986 28.986 0 0 0-9.787 1.413c11.735 3.869 20.095 15.187 20.095 28.16v13.013c0 3.559 1.287 6.973 3.535 9.731 8.313 10.203 13.456 24.29 13.456 39.854 0 15.472-11.694 31.915-23.685 44.633-8.091 8.581-10.575 21.022-6.195 31.973 5.758 14.396-1.381 28.273-12.828 34.25 16.581 3.668 33.161 1.094 49.742-7.738 2.816-1.5 4.023-4.903 2.734-7.822z" fill="#d3dee5"></path><path d="M256 101.804a7.726 7.726 0 0 1-7.726-7.726V81.112a7.726 7.726 0 1 1 15.452 0v12.966a7.726 7.726 0 0 1-7.726 7.726z" fill="#685e68"></path><g fill="#fea95c"><path d="M102.031 398.458h-42.3c-23.119 0-41.927-18.809-41.927-41.927v-14.722c0-23.12 18.809-41.928 41.928-41.928h42.3c23.119 0 41.928 18.809 41.928 41.928v14.722c-.001 23.119-18.81 41.927-41.929 41.927zm-42.299-71.517c-8.198 0-14.868 6.67-14.868 14.868v14.722c0 8.198 6.67 14.867 14.867 14.867h42.3c8.198 0 14.868-6.67 14.868-14.867v-14.722c0-8.199-6.67-14.868-14.868-14.868zM296.484 299.884H280.48a5.15 5.15 0 0 0-5.151 5.151v16.758a5.15 5.15 0 0 0 5.151 5.151h16.004c8.209 0 14.864 6.655 14.864 14.864v14.719c0 8.214-6.659 14.873-14.873 14.873H280.48a5.15 5.15 0 0 0-5.151 5.151v16.758a5.15 5.15 0 0 0 5.151 5.151h15.995c23.159 0 41.933-18.774 41.933-41.933v-14.719c-.001-23.154-18.771-41.924-41.924-41.924zM200.653 341.808v14.719c0 8.214 6.659 14.873 14.873 14.873h15.995a5.15 5.15 0 0 1 5.151 5.151v16.758a5.15 5.15 0 0 1-5.151 5.151h-15.995c-23.159 0-41.933-18.774-41.933-41.933v-14.719c0-23.154 18.77-41.924 41.924-41.924h16.004a5.15 5.15 0 0 1 5.151 5.151v16.758a5.15 5.15 0 0 1-5.151 5.151h-16.004c-8.21 0-14.864 6.655-14.864 14.864zM452.268 398.458h-42.3c-23.119 0-41.928-18.809-41.928-41.927v-14.722c0-23.12 18.809-41.928 41.928-41.928h42.3c23.119 0 41.927 18.809 41.927 41.928v14.722c.001 23.119-18.807 41.927-41.927 41.927zm-42.299-71.517c-8.198 0-14.868 6.67-14.868 14.868v14.722c0 8.198 6.67 14.867 14.868 14.867h42.3c8.198 0 14.868-6.67 14.868-14.867v-14.722c0-8.199-6.67-14.868-14.867-14.868z" fill="#fea95c"></path></g><path d="M397.62 362.699h-88.793c-7.472 0-13.53-6.057-13.53-13.53s6.058-13.53 13.53-13.53h88.793c7.472 0 13.53 6.057 13.53 13.53s-6.057 13.53-13.53 13.53zM203.173 362.699H114.38c-7.472 0-13.53-6.057-13.53-13.53s6.058-13.53 13.53-13.53h88.793c7.472 0 13.53 6.057 13.53 13.53s-6.058 13.53-13.53 13.53zM512 340.646v17.053a5 5 0 0 1-5 5h-42.005c-7.282 0-13.55-5.595-13.894-12.869-.368-7.767 5.824-14.184 13.511-14.184H507a5 5 0 0 1 5 5zM60.899 349.829c-.345 7.274-6.612 12.869-13.894 12.869H5a5 5 0 0 1-5-5v-17.053a5 5 0 0 1 5-5h42.388c7.687.001 13.879 6.417 13.511 14.184z" fill="#fed402"></path><g fill="#8795de"><path d="M256 464.325a7.5 7.5 0 0 1-7.5-7.5v-15.877c0-4.143 3.358-7.5 7.5-7.5s7.5 3.357 7.5 7.5v15.877a7.5 7.5 0 0 1-7.5 7.5zM296.144 453.263a7.497 7.497 0 0 1-6.502-3.751l-7.939-13.75a7.5 7.5 0 0 1 12.99-7.5l7.939 13.75a7.5 7.5 0 0 1-6.488 11.251zM215.856 453.263a7.5 7.5 0 0 1-6.488-11.251l7.939-13.75a7.5 7.5 0 0 1 12.99 7.5l-7.939 13.75a7.497 7.497 0 0 1-6.502 3.751z" fill="#8795de"></path></g></g></svg>