<svg viewBox="0 0 512 512" xmlns="http://www.w3.org/2000/svg"><g><path d="M255.656 22c-135.31 0-245 109.69-245 245 0 93.744 52.658 175.177 130 216.37l1-.195V454c0-4.962 4.037-9 9-9h173.95c13.233 0 24 10.766 24 24v23.981l1 .344C438.29 456.469 500.656 369.023 500.656 267c0-135.31-109.69-245-245-245z" fill="#8ac9fe"></path><circle cx="255.656" cy="267" fill="#60b7ff" r="179"></circle><path d="M310.963 59.079 284.76 2.888A5 5 0 0 0 278.115.47l-139.57 65.083a5 5 0 0 0-2.418 6.645l19.716 42.28c2.496-3.824 4.083-8.909 5.332-15.846.141-.782.843-.821.982-.821s.842.04.982.821c2.826 15.683 7.36 21.924 20.293 25.433l125.112-58.341a5 5 0 0 0 2.419-6.645z" fill="#97d729"></path><path d="M155.842 114.478c2.496-3.824 4.083-8.909 5.332-15.846.141-.782.843-.821.982-.821s.842.04.982.821c2.826 15.683 7.36 21.925 20.293 25.433l9.526-4.442a5.183 5.183 0 0 1-2.813-2.635l-27.328-58.606a5.187 5.187 0 0 1-.126-4.089l-24.146 11.26a5 5 0 0 0-2.418 6.645z" fill="#8bc727"></path><circle cx="223.544" cy="65.638" fill="#ffffff" r="21"></circle><path d="M218.629 67.88c-3.726-7.99-1.981-17.117 3.682-23.193a20.916 20.916 0 0 0-7.641 1.919c-10.511 4.902-15.059 17.396-10.157 27.907s17.396 15.059 27.907 10.157a20.931 20.931 0 0 0 6.476-4.714c-8.341.489-16.521-4.043-20.267-12.076z" fill="#eaf6ff"></path><path d="M123.587 172.561a3.969 3.969 0 0 1-3.965 3.965H84.295l52.117 40.662h45.245v-5.526l-58.069-74.429v35.328z" fill="#ffffff"></path><path d="m84.295 176.526 52.116 40.662h27.188l-52.117-40.662z" fill="#eaf6ff"></path><path d="M79.412 126.778v5.573h-5.573c-12.475 0-22.588 10.113-22.587 22.587 0 12.475 10.113 22.587 22.587 22.587h45.783a4.965 4.965 0 0 0 4.965-4.965v-45.783c0-12.475-10.113-22.587-22.587-22.587-12.475 0-22.588 10.113-22.588 22.588z" fill="#fe5694"></path><path d="M81.908 161c-12.475 0-22.587-10.113-22.587-22.587 0-.265.011-.528.02-.791-4.944 4.143-8.089 10.362-8.089 17.317 0 12.475 10.113 22.587 22.588 22.587h45.783a4.965 4.965 0 0 0 4.965-4.965V161z" fill="#fd3581"></path><path d="M348.693 92.127a3.918 3.918 0 0 1-1.672.373h-.001a3.983 3.983 0 0 1-3.597-2.291l-14.93-32.018-15.826 68.761 29.331 26.095 38.712-75.85z" fill="#ffffff"></path><path d="m328.494 58.192-15.826 68.76 14.02 12.474 13.115-56.981z" fill="#eaf6ff"></path><path d="m371.518 32.743-5.051 2.355-2.355-5.051c-5.272-11.306-18.711-16.197-30.017-10.925-11.306 5.272-16.197 18.711-10.925 30.017l19.349 41.494a4.966 4.966 0 0 0 6.598 2.402l41.494-19.349c11.306-5.272 16.197-18.711 10.925-30.017-5.273-11.307-18.713-16.198-30.018-10.926z" fill="#fe5694"></path><g fill="#fd3581"><path d="m392.076 35.098 1.493-.696a22.547 22.547 0 0 0-2.482-1.424zM348.778 49.139c-4.733-10.15-1.271-22.016 7.667-28.151-6.376-4.379-14.833-5.371-22.351-1.866-11.306 5.272-16.197 18.711-10.925 30.017l19.349 41.494a4.966 4.966 0 0 0 6.598 2.402l16.535-7.711z" fill="#fd3581"></path></g><path d="M422.811 148.712a6 6 0 0 0-3.948-3.949l-23.303-7.244-52.665 67.502v12.166h29.261l57.898-45.172z" fill="#ffffff"></path><path d="m395.559 137.52-52.664 67.502v12.166h7.313l58.876-75.464z" fill="#eaf6ff"></path><path d="M343.895 217.188v-63.793l-43.614-38.802H224.27l-43.614 38.802v63.793z" fill="#ea9b58"></path><path d="M266.378 153.395h77.517l-43.614-38.802H224.27l6.471 7.096z" fill="#bb5d4c"></path><path d="M267.883 217.188v-63.793l-43.613-38.802-43.614 38.802v63.793z" fill="#f6a96c"></path><path d="M241.715 217.188v-45.644a3 3 0 0 0-3-3h-28.891a3 3 0 0 0-3 3v45.644z" fill="#ffffff"></path><path d="M219.766 217.188v-45.644a3 3 0 0 1 3-3h-12.941a3 3 0 0 0-3 3v45.644z" fill="#eaf6ff"></path><path d="M325.942 201.648h-38.859a3 3 0 0 1-3-3V172a3 3 0 0 1 3-3h38.859a3 3 0 0 1 3 3v26.648a3 3 0 0 1-3 3z" fill="#ffffff"></path><path d="M300.797 198.648V172a3 3 0 0 1 3-3h-16.715a3 3 0 0 0-3 3v26.648a3 3 0 0 0 3 3h16.715a3 3 0 0 1-3-3z" fill="#eaf6ff"></path><path d="m490.539 83.376-10.523 31.032a5 5 0 0 0 .728 4.596l19.598 26.261c2.479 3.321.073 8.043-4.071 7.99l-32.765-.419a4.998 4.998 0 0 0-4.146 2.113l-18.92 26.754c-2.393 3.384-7.627 2.555-8.857-1.403l-9.727-31.291a4.999 4.999 0 0 0-3.29-3.29l-31.291-9.727c-3.957-1.23-4.786-6.464-1.403-8.857l26.754-18.92a5 5 0 0 0 2.113-4.146l-.419-32.765c-.053-4.144 4.669-6.55 7.99-4.071l26.261 19.598a5.002 5.002 0 0 0 4.596.728l31.032-10.523c3.924-1.332 7.671 2.416 6.34 6.34z" fill="#fed402"></path><path d="m409.184 137.318 26.754-18.92a5 5 0 0 0 2.113-4.146l-.419-32.765a4.949 4.949 0 0 1 .575-2.39L422.31 67.234c-3.321-2.479-8.043-.073-7.99 4.071l.419 32.765a4.998 4.998 0 0 1-2.113 4.146l-26.754 18.92c-3.384 2.393-2.555 7.627 1.403 8.857l19.857 6.172c-.273-1.757.366-3.655 2.052-4.847z" fill="#fac600"></path><path d="m434.695 315.297-31.336-55.779a9.47 9.47 0 0 1-1.194-4.493 146.893 146.893 0 0 0-3.944-31.594c-1.008-4.25-4.817-7.244-9.185-7.244H121.65a9.456 9.456 0 0 0-9.192 7.272 145.855 145.855 0 0 0-3.953 31.103c-.942 49.455 22.572 93.463 59.259 120.756 9.527 7.088 15.174 18.233 15.174 30.108V445h126.859v-17.565a9.367 9.367 0 0 1 9.367-9.367h37.899c17.304 0 31.331-14.027 31.331-31.331v-39.278a9.367 9.367 0 0 1 9.367-9.367h23.221c6.373 0 12.291-3.747 14.611-9.683a15.323 15.323 0 0 0-.898-13.112z" fill="#fed2a4"></path><path d="M218.764 375.318c-36.687-27.293-60.201-71.301-59.259-120.756a145.855 145.855 0 0 1 3.953-31.103 9.456 9.456 0 0 1 9.192-7.272h-51a9.456 9.456 0 0 0-9.192 7.272 145.855 145.855 0 0 0-3.953 31.103c-.942 49.455 22.572 93.463 59.259 120.756 9.527 7.088 15.174 18.233 15.174 30.108V445h51v-39.574c.001-11.874-5.646-23.02-15.174-30.108z" fill="#ffbd86"></path><path d="M324.607 444h-173.95c-5.523 0-10 4.477-10 10v29.37c34.294 18.265 73.434 28.63 115 28.63 33.286 0 65.016-6.651 93.95-18.675V469c0-13.807-11.193-25-25-25z" fill="#fe5694"></path><path d="M191.656 454c0-5.523 4.477-10 10-10h-51c-5.523 0-10 4.477-10 10v29.37a243.61 243.61 0 0 0 51 20.177z" fill="#fd3581"></path><path d="M371.572 383.895h-12.351c-22.32 0-40.479-18.16-40.479-40.48 0-4.142 3.357-7.5 7.5-7.5s7.5 3.358 7.5 7.5c0 14.05 11.43 25.48 25.479 25.48h12.351c4.143 0 7.5 3.358 7.5 7.5s-3.357 7.5-7.5 7.5z" fill="#f6a96c"></path><path d="m57.024 194.421-9.946 9.946a2.16 2.16 0 0 0 0 3.054l9.946 9.946a2.16 2.16 0 0 0 3.054 0l9.946-9.946a2.16 2.16 0 0 0 0-3.054l-9.946-9.946a2.16 2.16 0 0 0-3.054 0zM67.024 330.421l-9.946 9.946a2.16 2.16 0 0 0 0 3.054l9.946 9.946a2.16 2.16 0 0 0 3.054 0l9.946-9.946a2.16 2.16 0 0 0 0-3.054l-9.946-9.946a2.16 2.16 0 0 0-3.054 0zM463.024 193.632l-9.946 9.946a2.16 2.16 0 0 0 0 3.054l9.946 9.946a2.16 2.16 0 0 0 3.054 0l9.946-9.946a2.16 2.16 0 0 0 0-3.054l-9.946-9.946a2.16 2.16 0 0 0-3.054 0z" fill="#ffffff"></path><path d="M190.202 128.467c-17.705 3.189-22.889 8.374-26.079 26.079-.395 2.192-3.538 2.192-3.933 0-3.189-17.705-8.374-22.889-26.079-26.079-2.192-.395-2.192-3.538 0-3.933 17.705-3.189 22.889-8.374 26.079-26.079.395-2.192 3.538-2.192 3.933 0 3.189 17.705 8.374 22.889 26.079 26.079 2.192.394 2.192 3.538 0 3.933z" fill="#fed402"></path><path d="M149.716 119.272c-3.719 2.469-8.709 4.019-15.605 5.261-2.192.395-2.192 3.538 0 3.933 17.705 3.189 22.889 8.374 26.079 26.079.395 2.192 3.538 2.192 3.933 0 1.242-6.896 2.792-11.886 5.261-15.605-2.935-11.866-7.802-16.733-19.668-19.668z" fill="#fac600"></path><path d="M468.202 255.467c-17.705 3.189-22.889 8.374-26.079 26.079-.395 2.192-3.538 2.192-3.933 0-3.189-17.705-8.374-22.889-26.079-26.079-2.192-.395-2.192-3.538 0-3.933 17.705-3.189 22.889-8.374 26.079-26.079.395-2.192 3.538-2.192 3.933 0 3.189 17.705 8.374 22.889 26.079 26.079 2.192.394 2.192 3.538 0 3.933z" fill="#fed402"></path><path d="M424.376 248.104c-3.244 1.462-7.252 2.526-12.265 3.429-2.192.395-2.192 3.538 0 3.933 17.705 3.189 22.889 8.374 26.079 26.079.395 2.192 3.538 2.192 3.933 0 .903-5.013 1.967-9.021 3.429-12.265-3-13.17-8.006-18.175-21.176-21.176z" fill="#fac600"></path><path d="M64.328 261.449c-10.253 2.238-13.985 5.969-16.223 16.223-.453 2.076-3.445 2.076-3.898 0-2.238-10.253-5.969-13.985-16.223-16.223-2.076-.453-2.076-3.445 0-3.898 10.253-2.238 13.985-5.969 16.223-16.223.453-2.076 3.445-2.076 3.898 0 2.238 10.253 5.969 13.985 16.223 16.223 2.076.453 2.076 3.445 0 3.898z" fill="#fed402"></path><path d="M37.773 253.591c-2.373 1.822-5.506 3.026-9.788 3.96-2.076.453-2.076 3.445 0 3.898 10.253 2.238 13.985 5.969 16.223 16.223.453 2.076 3.445 2.076 3.898 0 .935-4.282 2.139-7.415 3.96-9.788-2.156-8.569-5.725-12.138-14.293-14.293z" fill="#fac600"></path><path d="m148.74 259.258-7.174 21.156a5.002 5.002 0 0 0 .728 4.596l13.361 17.904c2.479 3.321.073 8.043-4.071 7.99l-22.338-.286a4.998 4.998 0 0 0-4.146 2.113l-12.899 18.24c-2.393 3.384-7.627 2.555-8.857-1.403l-6.631-21.333a4.999 4.999 0 0 0-3.29-3.29l-21.333-6.631c-3.957-1.23-4.786-6.464-1.403-8.857l18.24-12.899a5 5 0 0 0 2.113-4.146l-.286-22.338c-.053-4.144 4.669-6.55 7.99-4.071l17.904 13.361a5.002 5.002 0 0 0 4.596.728l21.156-7.174c3.923-1.332 7.67 2.415 6.34 6.34z" fill="#fe9901"></path><path d="m120.343 312.568-6.631-21.333a5 5 0 0 0-3.29-3.29l-21.333-6.631a4.913 4.913 0 0 1-3.069-2.701l-15.334 10.844c-3.384 2.393-2.554 7.627 1.403 8.857l21.333 6.631a5 5 0 0 1 3.29 3.29l6.631 21.333c1.23 3.957 6.464 4.786 8.857 1.403l10.844-15.334a4.913 4.913 0 0 1-2.701-3.069z" fill="#fb8801"></path></g></svg>