<svg id="Layer_1" enable-background="new 0 0 73 73" height="512" viewBox="0 0 73 73" width="512" xmlns="http://www.w3.org/2000/svg"><g id="_x36_3"><g><g><g><g><g><g><g><g><g><g><g><g><g><g><g><g><g><g><g><g><g><g><path d="m27.957 23.62h18.676v24.867h-18.676z" fill="#2d77fc"/></g></g></g></g></g></g></g></g></g><g><g><g><path d="m43.2683334 23.6064739-4.7931518 7.3449536-1.1823464 1.8117866-1.1823234-1.8117866-4.7888928-7.3449536z" fill="#f7f8f8"/></g></g></g><g><g><g><path d="m38.4751816 30.9514275-1.1823464 1.8117866-1.1823234-1.8117866.3870125-3.7681599.0468025-.4720764h1.4970398l.0425491.4082718z" fill="#f24e66"/></g></g></g><g><g><g><path d="m38.8000412 26.298996-.8999672 1.0275784c-.3391838.3872776-.9418068.3872757-1.2809868-.0000019l-.8999634-1.0275784c-.4820633-.5504246-.0911827-1.4123611.6404953-1.4123611h1.7999306c.7316818-.0000001 1.1225624.8619384.6404915 1.412363z" fill="#f24e66"/></g></g></g></g><g><g><g><g><path d="m39.9594803 19.7447605v3.8702278l-2.6623879 1.2716446-2.6708755-1.2716446v-3.8702278z" fill="#f9b29c"/></g></g></g><g><g><g><path d="m39.9594803 19.7447605v2.0371819c-.7485352.4210434-1.6076241.6592102-2.5220337.6592102-1.037735 0-2.0031738-.3062038-2.8112297-.8335724v-1.8628197z" fill="#ed8768"/></g></g></g><g><g><g><path d="m41.530941 23.618185-2.0883865 2.8188229-2.1471787-1.5491447 2.6668511-2.3236847 1.5295181 1.0490989z" fill="#e6e8e8"/></g></g></g><g><g><g><path d="m33.0586586 23.618185 2.0883827 2.8188229 2.1471825-1.5491447-2.6668549-2.3236847-1.5295143 1.0490989z" fill="#e6e8e8"/></g></g></g></g></g></g></g></g></g></g></g></g></g></g><g><g><g><path d="m55.481102 25.1571503-8.8477173 10.7937317v-12.3324967l3.5921631-3.2091751.7668915-9.0919008 4.7577515-.1699934 1.0056496 10.0347519c.0829619 1.4406128-.3695909 2.8586673-1.2747384 3.9750824z" fill="#2d77fc"/></g></g></g><g><g><g><path d="m47.6953926 34.6543083-1.0620079 1.2965737v-9.2399579z" fill="#125ac4"/></g></g></g><g><g><g><path d="m56.239933 8.2581615-.4721985 3.0579796h-4.7746201l-1.2099533-2.1407623c-.1993713-.3527441-.0798531-.8001652.2688599-1.0065041v-.000001c.3562317-.2107863.8160057-.0903444 1.02314.2680216l.3781013.65415.0619202-1.106288c.0256424-1.2439189 1.0095711-2.2558436 2.2522812-2.316361h.0000076c1.4409866-.0701726 2.6093063 1.1535718 2.4724617 2.5897652z" fill="#f9b29c"/></g></g></g><g><g><g><g><path d="m19.1090069 25.1571503 8.8477173 10.7937317v-12.3324967l-3.5921612-3.2091751-.7668915-9.0919008-4.7577515-.1699934-1.0056534 10.0347519c-.0829601 1.4406128.3695908 2.8586673 1.2747403 3.9750824z" fill="#2d77fc"/></g></g></g><g><g><g><path d="m26.8947182 34.6543083 1.062006 1.2965737v-9.2399579z" fill="#125ac4"/></g></g></g><g><g><g><path d="m18.3501759 8.2581615.4722004 3.0579796h4.7746201l1.2099514-2.1407623c.1993713-.3527441.079855-.8001652-.268858-1.0065041l-.0000019-.000001c-.3562298-.2107863-.8160057-.0903444-1.02314.2680216l-.3780994.65415-.0619221-1.106288c-.0256405-1.2439189-1.0095711-2.2558436-2.2522812-2.316361h-.0000057c-1.4409905-.0701726-2.6093064 1.1535718-2.4724636 2.5897652z" fill="#f9b29c"/></g></g></g></g><g><g><g><g><g><path d="m36.5463982 67.7065353.7887077-14.3831749.7311859 14.3831749h8.5496597l-.0650482-19.219532h-18.5065765l-.0690365 19.219532z" fill="#29275c"/></g></g></g></g></g></g><g><g><g><g><ellipse cx="32.344" cy="15.371" fill="#f9b29c" rx="1.258" ry="1.468"/></g></g></g><g><g><g><path d="m31.9109535 15.8475552c-.1509953-.1336193-.2341442-.3028145-.2341442-.4765606 0-.174159.083149-.3433552.2337303-.4765596.0438499-.0388861.047987-.1054888.0095139-.1493387-.0388851-.0438509-.1063156-.047987-.1493378-.0095148-.1973267.174159-.3057117.3996153-.3057117.6354132 0 .2353849.1083851.4608402.3052979.6354141.1043204.0915469.2457542-.0656472.1406516-.1588536z" fill="#ed8768"/></g></g></g><g><g><g><ellipse cx="42.329" cy="15.371" fill="#f9b29c" rx="1.258" ry="1.468"/></g></g></g><g><g><g><path d="m42.7621078 15.8475552c.1509933-.1336193.2341423-.3028145.2341423-.4765606 0-.174159-.083149-.3433552-.2337265-.4765596-.0438499-.0388861-.0479889-.1054888-.0095177-.1493387.038887-.0438509.1063194-.047987.1493416-.0095148.1973228.174159.3057098.3996153.3057098.6354132 0 .2353849-.108387.4608402-.3052979.6354141-.1057928.0928401-.2451552-.0661813-.1406516-.1588536z" fill="#ed8768"/></g></g></g><g><g><g><path d="m32.1749382 13.7702084v2.7028446c0 2.8732738 2.3304863 5.1983681 5.1983681 5.1983681 2.8731766 0 5.1983337-2.3250942 5.1983337-5.1983681v-2.7028446c0-2.8732738-2.3251572-5.1983671-5.1983337-5.1983671-2.8737717-.0000001-5.1983681 2.3248805-5.1983681 5.1983671z" fill="#f9b29c"/></g></g></g><g><g><g><path d="m38.9559402 15.0215158c0 .3608809.1980476.6513577.4444962.6513577.2464523 0 .4488792-.2904768.4488792-.6513577 0-.3608799-.2024269-.655735-.4488792-.655735-.2464485 0-.4444962.2948551-.4444962.655735z" fill="#15144f"/></g></g></g><g><g><g><path d="m34.8981819 15.0215158c0 .3608809.1980476.6513577.4444962.6513577.2464523 0 .4488792-.2904768.4488792-.6513577 0-.3608799-.2024269-.655735-.4488792-.655735-.2464485 0-.4444962.2948551-.4444962.655735z" fill="#15144f"/></g></g></g><g><g><g><path d="m39.1875076 17.82691c.001133.0264816.007885.0513439.007885.0780907 0 1.0063229-.815773 1.8220959-1.8220596 1.8220959-1.006321 0-1.822094-.815773-1.822094-1.8220959 0-.0267467.006752-.051609.007885-.0780907z" fill="#fff"/></g></g></g><g><g><g><path d="m32.0984077 14.7091265.075695.0623293s.6276665.0712137.6276665 0c0-.0712404.1647072-1.1974831.1647072-1.1974831s1.1218109-1.5669746.3205299-3.0048351c.1424255.0756693 3.4989548 1.8474007 7.8837776.1201744 0 0 .6098671.5030336.4184532 1.8741369-.0979233.6721973.2047844 1.6471004.4941216 2.6665087h.4896927l.3962021-1.1262426s2.4038506-2.127882.2403755-3.9307775c.0311661-.0890379.0578728-.1736193.0756683-.2582006.0178261-.0623293.0311661-.1202021.0400772-.1780748.0088844-.0311375.01334-.0623026.0177956-.0934668.1825333-1.0951052 1.1704063-2.166491.3379593-2.8030677 0 0-.0044556-.004456-.0089111-.004456-2.6486855-2.0210199-10.9149551-2.5833669-11.5738106 1.6100397 0 0-1.5136318.1519585-1.8207932 1.5141487-.3160476 1.362191 1.8207932 4.7492665 1.8207932 4.7492665z" fill="#15144f"/></g></g></g></g></g><g><g><g><g><g><g><g><g><g><g><g><g><g><g><g><g><path d="m41.0250359 41.0250587h-.0000039c-1.9245377 0-3.5573692 1.4126091-3.8342552 3.3171272l-2.8060913 19.3013687 5.4360809.2095604 6.4676323-18.1564598z" fill="#03c88b"/></g></g></g><g><g><g><path d="m41.0250359 47.7305565-2.3296547 16.0357399 1.1268959.0901298 3.8247566-10.3979988z" fill="#02b07e"/></g></g></g><g><g><g><g><g><g><g><g><g><path d="m41.025 41.025h17.342v24.867h-17.342z" fill="#03c88b"/></g></g></g></g></g></g></g></g></g></g><g><g><g><g><path d="m52.3608742 37.149559v3.8702278l-2.6623879 1.2716484-2.6708755-1.2716484v-3.8702278z" fill="#f9b29c"/></g></g></g><g><g><g><path d="m52.3608742 37.149559v2.0371819c-.7485352.4210472-1.6076241.659214-2.5220299.659214-1.037735 0-2.0031776-.3062057-2.8112335-.8335724v-1.8628235z" fill="#ed8768"/></g></g></g><g><g><g><path d="m53.9323349 41.0229836-2.0883827 2.8188247-2.1471825-1.5491447 2.6668549-2.3236847 1.5295143 1.049099z" fill="#02b07e"/></g></g></g><g><g><g><path d="m45.4600525 41.0229836 2.0883865 2.8188247 2.1471787-1.5491447-2.6668511-2.3236847-1.5295181 1.049099z" fill="#02b07e"/></g></g></g></g></g></g></g></g></g><g><g><g><g><ellipse cx="54.89" cy="32.855" fill="#f9b29c" rx="1.264" ry="1.475"/></g></g></g><g><g><g><path d="m55.3252373 33.3335953c.1517067-.1342506.2352524-.3042488.2352524-.478817 0-.174984-.0835457-.3449783-.2348366-.4788132-.0440598-.0390701-.048214-.1059914-.0095596-.1500473.0390701-.0440598.1068192-.048214.1500435-.0095596.1982613.174984.3071594.4015083.3071594.6384201 0 .2364998-.1088982.4630241-.3067436.6384239-.1062928.0932808-.2463151-.066494-.1413155-.1596069z" fill="#ed8768"/></g></g></g><g><g><g><ellipse cx="44.858" cy="32.855" fill="#f9b29c" rx="1.264" ry="1.475"/></g></g></g><g><g><g><path d="m44.4318542 33.4840584c.0386543-.0440598.0349121-.111393-.0091438-.1504631-.1517105-.1342506-.2352524-.3042488-.2352524-.478817 0-.174984.0835419-.3449783.2348366-.4788132.0440559-.0390701.048214-.1059914.0095596-.1500473-.0390701-.0440598-.1068192-.048214-.1500473-.0095596-.1982574.174984-.3071556.4015083-.3071556.6384201 0 .2364998.1088982.4630241.3067398.6384239.0432053.0379143.1104203.0356102.1504631-.0091438z" fill="#ed8768"/></g></g></g><g><g><g><path d="m55.0600014 31.2464161v2.7156391c0 2.8868752-2.3415184 5.2229767-5.2229767 5.2229767-2.8867798 0-5.2229462-2.3361015-5.2229462-5.2229767v-2.7156391c0-2.8868771 2.3361664-5.2229786 5.2229462-5.2229786 1.4434052 0 2.7478104.5826225 3.6940498 1.528862.9462052.9462376 1.5289269 2.2506123 1.5289269 3.6941166z" fill="#f9b29c"/></g></g></g><g><g><g><path d="m48.2468987 32.5036469c0 .362587-.1989861.6544418-.4466019.6544418-.2476196 0-.451004-.2918549-.451004-.6544418 0-.3625908.2033844-.6588402.451004-.6588402.2476158 0 .4466019.2962494.4466019.6588402z" fill="#15144f"/></g></g></g><g><g><g><path d="m52.3238678 32.5036469c0 .362587-.1989861.6544418-.4466057.6544418-.2476158 0-.4510002-.2918549-.4510002-.6544418 0-.3625908.2033844-.6588402.4510002-.6588402.2476196 0 .4466057.2962494.4466057.6588402z" fill="#15144f"/></g></g></g><g><g><g><path d="m48.0142326 35.322319c-.0011368.0266113-.0079231.05159-.0079231.0784645 0 1.0110855.8196373 1.830719 1.8306847 1.830719 1.0110893 0 1.8307228-.8196335 1.8307228-1.830719 0-.0268745-.0067863-.0518532-.0079231-.0784645z" fill="#fff"/></g></g></g><g><g><g><path d="m55.1354752 32.188652-.0725021.0634422s-.6337395.0725021-.6337395 0c0-.0723953-.1629143-1.2041531-.1629143-1.2041531s-1.1317558-1.57551-.3169785-3.0240288c0 0-3.4298134 1.8999805-7.9296608.1254177 0 0-.6122437.5061169-.4164543 1.8832073.0959816.6750832-.209938 1.6582069-.499733 2.6813221h-.488842l-.3984375-1.1317596s-1.9284134-3.5491257.2444763-5.3599396c0 0-.7695732-2.8973694 2.4717445-3.9295464l.5342712 1.7112312s1.2765427-2.0099773 3.8207893-2.1186218c2.5533104-.1177063 2.0009155 2.200079 2.0009155 2.200079s1.6207161-.7605114 2.2453918.0906277c.6157265.8510303-.3983269 1.7201862-.3983269 1.7201862s.8148918.5885372 1.1226959 1.9557114c.3169826 1.3671724-1.1226956 4.3368245-1.1226956 4.3368245z" fill="#15144f"/></g></g></g></g></g></g></g></g></g><g><g><g><path d="m67.2155838 42.5619507-8.8477173 10.7937317v-12.3324967l3.5921593-3.2091751.7668915-9.0918999 4.7577553-.1699944 1.0056534 10.0347519c.0829543 1.4406129-.3695985 2.8586694-1.2747422 3.9750825z" fill="#03c88b"/></g></g></g><g><g><g><path d="m59.4298706 52.0591087-1.0620041 1.2965737v-9.2399559z" fill="#02b07e"/></g></g></g><g><g><g><path d="m67.974411 25.662962-.4721985 3.0579796h-4.7746201l-1.2099533-2.1407623c-.1993675-.3527431-.0798531-.8001652.2688599-1.0065041h.0000038c.3562279-.2107868.8160019-.0903454 1.02314.2680206l.3780975.65415.061924-1.1062889c.0256386-1.2439175 1.0095673-2.2558422 2.2522812-2.3163605h.0000076c1.4409867-.0701733 2.6093064 1.1535721 2.4724579 2.5897656z" fill="#f9b29c"/></g></g></g><g><g><g><g><g><path d="m58.2915611 67.7065353-.0061493-1.8147277h-17.1727829l-.0065155 1.8147277z" fill="#393982"/></g></g></g></g></g></g><g><g><g><path d="m39.8556137 66.3373718c-.1000519.0533295-.2134171.0733566-.3201447.0733566-.2267303 0-.4534988-.1067352-.5868912-.3068008l-.3867798-.5802078-.1534195 2.1808243h-5.0418777l1.020401-4.0615349 5.4353752.2134171.3934555 1.7006264c.0733529.3068008-.0800246.6335754-.3601188.7803191z" fill="#f9b29c"/></g></g></g></g><g><g><g><g><g><g><path d="m9.9516487 47.951622c0 1.0629616 14.3934765 1.0629616 14.3934765 0-1.3792419-4.2704773 3.7126465-14.5352135-2.4433079-18.5718002-5.2132473-3.4184628-7.8278542.7102108-7.8278542.7102108s-1.3609066-.8202724-3.5504026 1.0814171c-3.1402164 2.727438-.2878532 8.492548-.2878532 8.492548.4768696 1.8566627-.0370245 6.3949394-.2840586 8.2876243z" fill="#15144f"/></g></g></g><g><g><g><g><g><g><g><g><g><path d="m10.644 49.148h13.583v18.558h-13.583z" fill="#ff8e2e"/></g></g></g></g></g></g><g><g><g><g><path d="m20.3020821 44.1338692.0414238 5.015995h-5.810196l-.0414228-5.015995z" fill="#f9b29c"/></g></g></g></g><g><g><g><path d="m20.3435059 44.1338692v3.0207939c-2.0573196.0967598-3.9842434-.3954811-5.8101959-1.3799591v-1.6408348z" fill="#ed8768"/></g></g></g></g></g></g><g><g><g><g><path d="m23.3642197 49.1570854s-.4944019 3.8752518-2.441782 4.5204468c-2.1507149.7125664-3.5267792-1.3818283-3.5267792-1.3818283l4.1499481-3.1448021z" fill="#caf5fe"/></g></g></g><g><g><g><path d="m11.506279 49.1570854s.494401 3.8752518 2.441783 4.5204468c2.1507139.7125664 3.5267782-1.3818283 3.5267782-1.3818283l-4.1499472-3.1448021z" fill="#caf5fe"/></g></g></g><g><g><g><path d="m21.6912498 49.1509018c-.5282764 1.8616028-2.2452774 3.2264786-4.276701 3.2264786s-3.7421293-1.3648758-4.2704067-3.2264786z" fill="#f9b29c"/></g></g></g></g><g><g><g><g><g><g><ellipse cx="23.331" cy="39.064" fill="#f9b29c" rx="1.491" ry="1.739"/></g></g></g><g><g><g><path d="m23.8447018 39.6289597c.1788616-.1582832.277359-.3587074.277359-.5645218 0-.2063065-.0984974-.4067307-.2768707-.5645218-.0519428-.0460625-.0568428-.124958-.0112705-.1769028.0460644-.0519447.1259403-.0568428.1769028-.0112686.2337475.2063026.3621368.4733734.3621368.7526932 0 .2788315-.1283894.5459023-.3616467.752697-.1253204.1099739-.2904034-.0783997-.1666107-.1881752z" fill="#ed8768"/></g></g></g><g><g><g><ellipse cx="11.504" cy="39.064" fill="#f9b29c" rx="1.491" ry="1.739"/></g></g></g><g><g><g><path d="m10.9906912 39.6289597c-.1788626-.1582832-.27736-.3587074-.27736-.5645218 0-.2063065.0984974-.4067307.2768707-.5645218.0519438-.0460625.0568438-.124958.0112705-.1769028-.0460634-.0519447-.1259394-.0568428-.1769028-.0112686-.2337475.2063026-.3621368.4733734-.3621368.7526932 0 .2788315.1283894.5459023.3616467.752697.1247158.1094436.2912998-.0776024.1666117-.1881752z" fill="#ed8768"/></g></g></g></g><g><g><g><path d="m23.5748959 35.6032944v4.7700768c0 3.3992004-2.758194 6.1570053-6.1571999 6.1570053-3.4072266 0-6.1571989-2.7578049-6.1571989-6.1570053v-4.7700768c0-3.4048767 2.7576704-6.1570034 6.1571989-6.1570034 3.3990669 0 6.1571999 2.7575473 6.1571999 6.1570034z" fill="#f9b29c"/></g></g></g><g><g><g><path d="m15.5420723 38.6504555c0 .4274902-.234602.7715797-.5265427.7715797s-.5317297-.3440895-.5317297-.7715797.239789-.7767677.5317297-.7767677.5265427.3492774.5265427.7767677z" fill="#15144f"/></g></g></g><g><g><g><path d="m20.348793 38.6504555c0 .4274902-.2346039.7715797-.5265427.7715797-.2919407 0-.5317307-.3440895-.5317307-.7715797s.23979-.7767677.5317307-.7767677c.2919388-.0000001.5265427.3492774.5265427.7767677z" fill="#15144f"/></g></g></g><g><g><g><path d="m15.2677612 41.9736519c-.0013409.0313721-.0093403.0608215-.0093403.0925064 0 1.1920662.9663448 2.1584091 2.1583652 2.1584091 1.1920643 0 2.1584091-.9663429 2.1584091-2.1584091 0-.0316849-.0079994-.0611343-.0093403-.0925064z" fill="#fff"/></g></g></g></g></g><g><g><g><g><path d="m23.8636475 35.4573402-.2724171 1.9116096c0 2.0122757-.9539776 3.2228508-.9539776 3.2228508s-.2646236-1.9001236-1.3869247-3.8642502c-1.122303-1.9641266-4.8102016-3.2148247-6.4535313-3.8000526-.3769722-.1362267-.6494246-.3206024-.842021-.5210266-.1601048 2.0602303-2.581255 7.6482544-2.6775532 7.4717064l-.0701036-4.2711486c0-3.4532127 2.6067619-6.3202114 6.1430588-6.3202114 1.6996994 0 3.2389011.689352 4.3533726 1.8038254 1.1144733 1.1142787 2.1600971 2.6669978 2.1600971 4.3666972z" fill="#15144f"/></g></g></g></g></g><g><g><g><g><path d="m30.3840008 67.7065353v-12.8336868c0-3.1615791-2.5630074-5.7245445-5.7245464-5.7245445h-.4326572v18.5582314h6.1572036z" fill="#ff8e2e"/></g></g></g><g><g><g><path d="m24.433 58.686h.486v9.021h-.486z" fill="#f67112"/></g></g></g></g><g><g><g><g><path d="m10.6572437 67.7065353v-18.5582313h-.4326563c-3.1615791 0-5.7245874 2.5629654-5.7245874 5.7245445v12.8336868z" fill="#ff8e2e"/></g></g></g></g><g><g><g><path d="m9.465 58.686h.486v9.021h-.486z" fill="#f67112"/></g></g></g></g></g></g></svg>