<svg viewBox="0 0 512 512" xmlns="http://www.w3.org/2000/svg"><g><path d="m62.09 166.772-36.635-27.398-24.25-24.25A4.13 4.13 0 0 1 0 112.208L.062 4.122A4.12 4.12 0 0 1 4.183.001h35.665c.958 0 1.896.34 2.637.958l2.452 2.05 66.869 49.881z" fill="#ffbd86"></path><path d="m70.126 73.011-15.502.799.733 4.953a21.995 21.995 0 0 1-4.472 16.821l-3.366 4.278c-4.448 5.522-7.024 11.883-7.786 18.408-.12 1.032-.765 1.918-1.684 2.402-4.458 2.346-11.821 7.83-12.594 18.702l17.379 17.379 7.866-7.805c4.252 4.133 9.779 6.803 15.727 6.985 6.395.196 2.6-18.515 7.098-23.016l20.415-24.378c6.285-6.286 8.156-13.651 9.697-22.406l8.167-33.249z" fill="#fcad77"></path><path d="m83.903 107.74 31.97 36.89c4.377 4.377 5.588 10.72 3.635 16.186-.748 2.093-2.329 3.599-4.005 5.275-6.053 6.053-15.085 5.925-21.138-.128l-33.52-33.139z" fill="#fed2a4"></path><path d="m60.81 133.471 15.098 8.973 8.091 14.215c3.763 3.763 5.032 9.07 3.823 13.881-.621 2.471-3.951 2.753-5.883 4.685-5.696 5.696-11.84 5.696-17.537 0l-23.189-23.189c-5.696-5.696-5.696-11.84 0-17.537 1.03-1.03 1.145-2.903 2.364-3.561 5.524-2.977 12.566-2.133 17.233 2.533z" fill="#fed2a4"></path><path d="m70.583 168.006-23.189-23.189c-3.763-3.763-5.027-9.066-3.818-13.877a14.565 14.565 0 0 0-3.394 2.522c-5.696 5.696-5.696 14.931 0 20.627l23.189 23.189c5.696 5.696 14.931 5.696 20.627 0a14.507 14.507 0 0 0 3.823-6.746c-5.525 2.98-12.572 2.141-17.238-2.526z" fill="#ffbd86"></path><path d="m98.016 78.302 39.775 44.409c4.394 4.394 5.59 10.766 3.605 16.246-.75 2.069-2.473 3.473-4.132 5.132-6.053 6.053-14.759 5.712-20.811-.34l-37.086-36.916zM111.805 52.89l87.029 87.019a15.488 15.488 0 0 1 4.533 10.961c0 1.291-.161 2.584-.481 3.844-.664 2.61-3.137 3.727-5.172 5.763-6.057 6.058-14.017 6.058-20.074 0l-72.7-76.41z" fill="#fed2a4"></path><g fill="#ffbd86"><path d="m187.215 150.498-79.373-79.611-3.898 17.7 72.968 73.244c6.057 6.058 15.865 6.058 21.922 0 2.151-2.151 3.432-4.344 4.051-7.117-5.367 1.747-11.402.052-15.67-4.216zM125.145 135.358 87.96 98.172l-9.272 9.273 37.185 37.185c6.053 6.053 15.866 6.053 21.919 0a15.43 15.43 0 0 0 3.605-5.673c-5.481 1.984-11.859.794-16.252-3.599zM103.264 157.22l-37.185-37.185-9.332 9.374 37.185 37.185c6.112 5.951 15.925 5.951 21.978-.102a15.406 15.406 0 0 0 3.597-5.676c-5.479 1.985-11.849.797-16.243-3.596z" fill="#ffbd86"></path></g><path d="M71.297 88.587c-.176 0-.353-.006-.531-.018a67.993 67.993 0 0 1-54.052-33.412l-.914-1.555a7.728 7.728 0 0 1 13.325-7.825l.911 1.552A52.55 52.55 0 0 0 71.81 73.152a7.724 7.724 0 0 1 7.185 8.231 7.723 7.723 0 0 1-7.698 7.204z" fill="#fcad77"></path><path d="M41.34.904c2.709 2.518 5.279 3.362 8.416 5.702 5.524 4.12 13.279 5.096 20.275 5.404a37.214 37.214 0 0 1 24.682 10.865l12.75 12.75a22.092 22.092 0 0 1 6.136 19.448l-7.472 42.47a27.611 27.611 0 0 1-7.67 14.74l-26.02 26.02a7.476 7.476 0 0 1-10.572 0c-7.999-7.999-9.391-20.02-2.265-28.806l12.855-16.339c.35-.445.502-1.015.419-1.576l-3.236-21.867z" fill="#ffbd86"></path><path d="m0 299.924 35.109-5.158 45.373 115.68-45.278 6.531H4.121A4.121 4.121 0 0 1 0 412.856V364.53l3.091-7.771L0 348.94z" fill="#c68d7a"></path><path d="m54.164 353.28 48.692 3.479c6.19 0 11.532 3.629 14.016 8.875.951 2.009.898 4.192.898 6.562 0 8.56-6.477 14.856-15.037 14.856l-47.135.269z" fill="#d1a08f"></path><path d="M19.865 338.464 9.468 349.991l4.021 2.984a21.993 21.993 0 0 1 8.732 15.056l.645 5.405c.759 7.05 3.436 13.369 7.511 18.522.644.815.816 1.897.508 2.889-1.494 4.811-2.822 13.895 4.319 22.129h24.578l.043-11.081c5.929-.084 11.725-2.104 16.06-6.182 4.66-4.383-11.254-14.931-11.256-21.293l-2.802-31.673c-.001-8.889-3.886-15.42-8.986-22.7l-17.735-29.285z" fill="#bc7c63"></path><path d="m56.029 387.804 17.021-4.331 15.773 4.331c5.322 0 9.972 2.855 12.519 7.113 1.308 2.187-.847 4.74-.847 7.473 0 8.055-4.345 12.4-12.4 12.4H55.301c-8.055 0-12.4-4.345-12.4-12.4 0-1.456-1.244-2.862-.846-4.189 1.799-6.014 7.375-10.397 13.974-10.397zM43.328 322.485l59.527 3.276c6.214 0 11.565 3.66 14.037 8.939.933 1.993.707 4.204.707 6.55 0 8.56-6.397 14.475-14.957 14.475l-52.328.12zM35.109 294.766l123.071-.007a15.484 15.484 0 0 1 10.956 4.546c.913.913 1.713 1.94 2.378 3.058 1.376 2.315.418 4.854.418 7.732 0 8.567-5.628 14.195-14.195 14.195L52.3 321.666z" fill="#d1a08f"></path><g fill="#c68d7a"><path d="m157.452 310.462-112.419-.168 9.759 15.272 103.388.195c8.567 0 15.501-6.935 15.501-15.501 0-3.042-.645-5.498-2.168-7.897-2.56 5.03-8.025 8.099-14.061 8.099zM102.855 343.646H50.267v13.113h52.588c8.56 0 15.499-6.939 15.499-15.499 0-2.347-.529-4.567-1.462-6.56-2.472 5.278-7.824 8.946-14.037 8.946zM102.842 374.577H50.254l.03 13.227h52.588c8.53-.114 15.469-7.053 15.469-15.613 0-2.347-.536-4.563-1.47-6.557-2.472 5.278-7.816 8.943-14.029 8.943zM87.36 405.314H54.567c-5.322 0-9.965-2.856-12.512-7.113a14.556 14.556 0 0 0-.616 4.184c0 8.056 6.53 14.586 14.586 14.586h32.794c8.056 0 14.586-6.53 14.586-14.586 0-2.734-.759-5.287-2.067-7.473-1.802 6.012-7.379 10.402-13.978 10.402z" fill="#c68d7a"></path></g><path d="M0 348.94c8.209-1.937 14.607-5.85 21.157-11.567a7.724 7.724 0 0 1 10.901.74 7.726 7.726 0 0 1-.739 10.901C22.169 357 11.563 362.265 0 364.53z" fill="#bc7c63"></path><path d="M4.121 285.626H19.83a22.092 22.092 0 0 1 18.091 9.413l24.747 35.315a27.613 27.613 0 0 1 5 15.846v36.797a7.475 7.475 0 0 1-7.475 7.475c-11.313 0-20.797-7.516-21.971-18.767l-2.463-20.643a2.057 2.057 0 0 0-.818-1.41L17.19 336.478 0 329.165v-39.418a4.121 4.121 0 0 1 4.121-4.121zM449.91 166.772l36.635-27.398 24.25-24.25a4.123 4.123 0 0 0 1.205-2.915l-.062-108.087a4.12 4.12 0 0 0-4.121-4.121h-35.665c-.958 0-1.896.34-2.637.958l-2.452 2.05-66.868 49.881z" fill="#c68d7a"></path><path d="m441.874 73.011 15.503.799-.733 4.953a21.995 21.995 0 0 0 4.472 16.821l3.366 4.278c4.448 5.522 7.024 11.883 7.786 18.408.12 1.032.764 1.918 1.684 2.402 4.458 2.346 11.821 7.83 12.594 18.702l-17.379 17.379-7.866-7.805c-4.252 4.133-9.779 6.803-15.727 6.985-6.395.196-2.6-18.515-7.098-23.016l-20.414-24.378c-6.285-6.286-8.156-13.651-9.697-22.406l-8.167-33.249z" fill="#bc7c63"></path><path d="m428.097 107.74-31.97 36.89c-4.377 4.377-5.588 10.72-3.635 16.186.748 2.093 2.329 3.599 4.005 5.275 6.053 6.053 15.085 5.925 21.138-.128l33.52-33.139z" fill="#d1a08f"></path><path d="m451.19 133.471-15.098 8.973-8.091 14.215c-3.763 3.763-5.032 9.07-3.823 13.881.621 2.471 3.951 2.753 5.883 4.685 5.696 5.696 11.84 5.696 17.537 0l23.189-23.189c5.696-5.696 5.696-11.84 0-17.537-1.03-1.03-1.145-2.903-2.364-3.561-5.524-2.977-12.566-2.133-17.233 2.533z" fill="#d1a08f"></path><path d="m441.417 168.006 23.189-23.189c3.763-3.763 5.027-9.066 3.818-13.877a14.565 14.565 0 0 1 3.394 2.522c5.696 5.696 5.696 14.931 0 20.627l-23.189 23.189c-5.696 5.696-14.931 5.696-20.627 0a14.507 14.507 0 0 1-3.823-6.746c5.525 2.98 12.572 2.141 17.238-2.526z" fill="#c68d7a"></path><path d="m400.195 52.89-87.029 87.019a15.488 15.488 0 0 0-4.533 10.961c0 1.291.161 2.584.481 3.844.664 2.61 3.137 3.727 5.172 5.763 6.057 6.058 14.017 6.058 20.074 0l72.7-76.41z" fill="#d1a08f"></path><path d="m324.785 150.498 79.373-79.611 3.898 17.7-72.968 73.244c-6.057 6.058-15.865 6.058-21.922 0-2.151-2.151-3.432-4.344-4.051-7.117 5.367 1.747 11.402.052 15.67-4.216z" fill="#c68d7a"></path><path d="m413.984 78.302-39.775 44.409c-4.394 4.394-5.59 10.766-3.605 16.246.75 2.069 2.473 3.473 4.132 5.132 6.053 6.053 14.759 5.712 20.811-.34l37.086-36.916z" fill="#d1a08f"></path><path d="m386.855 135.358 37.185-37.185 9.272 9.273-37.185 37.185c-6.053 6.053-15.866 6.053-21.919 0a15.43 15.43 0 0 1-3.605-5.673c5.481 1.983 11.859.793 16.252-3.6zM408.736 157.22l37.185-37.185 9.332 9.374-37.185 37.185c-6.112 5.951-15.925 5.951-21.978-.102a15.406 15.406 0 0 1-3.597-5.676c5.479 1.985 11.849.797 16.243-3.596z" fill="#c68d7a"></path><path d="M440.703 88.587c.176 0 .353-.006.531-.018a67.993 67.993 0 0 0 54.052-33.412l.913-1.554a7.728 7.728 0 0 0-13.325-7.825l-.911 1.552a52.55 52.55 0 0 1-41.775 25.823 7.726 7.726 0 0 0 .515 15.434z" fill="#bc7c63"></path><path d="M470.66.904c-2.709 2.518-5.279 3.362-8.416 5.702-5.524 4.12-13.279 5.096-20.275 5.404a37.214 37.214 0 0 0-24.682 10.865l-12.75 12.75a22.092 22.092 0 0 0-6.136 19.448l7.472 42.47a27.611 27.611 0 0 0 7.67 14.74l26.02 26.02a7.476 7.476 0 0 0 10.572 0c7.999-7.999 9.391-20.02 2.265-28.806l-12.855-16.339a2.062 2.062 0 0 1-.419-1.576l3.236-21.867z" fill="#c68d7a"></path><path d="m512 299.924-35.109-5.158-45.373 115.68 45.278 6.531h31.083a4.121 4.121 0 0 0 4.121-4.121V364.53l-3.091-7.771L512 348.94z" fill="#ffbd86"></path><path d="m457.836 353.28-48.692 3.479c-6.19 0-11.532 3.629-14.016 8.875-.951 2.009-.898 4.192-.898 6.562 0 8.56 6.477 14.856 15.037 14.856l47.135.269z" fill="#fed2a4"></path><path d="m492.135 338.464 10.397 11.527-4.021 2.984a21.993 21.993 0 0 0-8.732 15.056l-.645 5.405c-.759 7.05-3.436 13.369-7.511 18.522-.644.815-.816 1.897-.508 2.889 1.494 4.811 2.822 13.895-4.319 22.129h-24.578l-.043-11.081c-5.929-.084-11.725-2.104-16.06-6.182-4.66-4.383 11.254-14.931 11.256-21.293l2.802-31.673c.001-8.889 3.886-15.42 8.986-22.7l17.735-29.285z" fill="#fcad77"></path><path d="m455.971 387.804-17.021-4.331-15.773 4.331c-5.322 0-9.972 2.855-12.519 7.113-1.308 2.187.847 4.74.847 7.473 0 8.055 4.345 12.4 12.4 12.4h32.794c8.055 0 12.4-4.345 12.4-12.4 0-1.456 1.244-2.862.846-4.189-1.799-6.014-7.375-10.397-13.974-10.397zM468.672 322.485l-59.527 3.276c-6.214 0-11.565 3.66-14.037 8.939-.933 1.993-.707 4.204-.707 6.55 0 8.56 6.397 14.475 14.957 14.475l52.328.12zM476.891 294.766l-123.071-.007a15.484 15.484 0 0 0-10.956 4.546 15.613 15.613 0 0 0-2.378 3.058c-1.376 2.315-.418 4.854-.418 7.732 0 8.567 5.628 14.195 14.195 14.195l105.437-2.623z" fill="#fed2a4"></path><g fill="#ffbd86"><path d="m354.548 310.462 112.419-.168-9.759 15.272-103.388.195c-8.567 0-15.501-6.935-15.501-15.501 0-3.042.645-5.498 2.168-7.897 2.56 5.03 8.025 8.099 14.061 8.099zM409.145 343.646h52.588v13.113h-52.588c-8.56 0-15.499-6.939-15.499-15.499 0-2.347.529-4.567 1.462-6.56 2.472 5.278 7.824 8.946 14.037 8.946zM409.158 374.577h52.588l-.03 13.227h-52.588c-8.53-.114-15.469-7.053-15.469-15.613 0-2.347.536-4.563 1.47-6.557 2.472 5.278 7.816 8.943 14.029 8.943zM424.64 405.314h32.794c5.322 0 9.965-2.856 12.512-7.113.397 1.327.616 2.727.616 4.184 0 8.056-6.53 14.586-14.586 14.586h-32.794c-8.056 0-14.586-6.53-14.586-14.586 0-2.734.759-5.287 2.067-7.473 1.801 6.012 7.378 10.402 13.977 10.402z" fill="#ffbd86"></path></g><path d="M512 348.94c-8.209-1.937-14.607-5.85-21.157-11.567a7.724 7.724 0 0 0-10.901.74 7.726 7.726 0 0 0 .739 10.901c9.15 7.986 19.756 13.251 31.319 15.516z" fill="#fcad77"></path><path d="M507.879 285.626H492.17a22.092 22.092 0 0 0-18.091 9.413l-24.747 35.315a27.613 27.613 0 0 0-5 15.846v36.797a7.475 7.475 0 0 0 7.475 7.475c11.313 0 20.797-7.516 21.971-18.767l2.463-20.643a2.057 2.057 0 0 1 .818-1.41l17.751-13.174 17.19-7.313v-39.418a4.121 4.121 0 0 0-4.121-4.121z" fill="#ffbd86"></path><path d="M294.027 353.431v-19.217l-11.823-78.581h-52.412l-11.822 78.581v19.217l38.028 79.014z" fill="#c68d7a"></path><path d="M217.97 334.214a119.709 119.709 0 0 0 10.079 5.001c8.868 3.873 18.272 5.837 27.949 5.837s19.081-1.964 27.949-5.837a119.578 119.578 0 0 0 10.08-5.001v-78.581H217.97z" fill="#bc7c63"></path><path d="M385.854 441.042v66.228l-18.986 4.729h-19.394l-7.726-2.364-7.726 2.364h-68.296l-8.907-2.364-6.545 2.364h-68.296l-5.634-2.364-9.819 2.364h-43.109v-70.957c0-22.639 13.643-43.056 34.568-51.71l25.962-10.735 65.329 11.645 8.725 1.549 8.725-1.549 65.329-11.645 4.611 1.904 16.61 8.831c20.936 8.654 34.579 29.071 34.579 51.71z" fill="#f2fbff"></path><path d="M263.725 399.421v112.578h-15.453V399.421c0-.464.041-.917.124-1.35l7.603-6.281 7.603 6.281c.082.433.123.887.123 1.35z" fill="#9de0b1"></path><path d="m217.97 353.431-32.718 8.312c-7.115 1.808-9.534 10.689-4.318 15.855l43.172 42.759a2.365 2.365 0 0 0 3.336-.008l28.557-28.557z" fill="#caefb1"></path><path d="m326.744 361.743-32.718-8.312-38.028 38.36 28.557 28.557c.92.92 2.411.924 3.336.008l43.172-42.759c5.215-5.165 2.796-14.047-4.319-15.854z" fill="#caefb1"></path><path d="M179.977 447.103v64.896h-15.453v-64.896a7.729 7.729 0 0 1 7.726-7.726 7.73 7.73 0 0 1 7.727 7.726zM347.474 447.103v64.896h-15.453v-64.896a7.722 7.722 0 0 1 7.726-7.726 7.73 7.73 0 0 1 7.727 7.726zM390.583 441.042v66.228a4.729 4.729 0 0 1-4.729 4.729h-18.915l-.071-.189v-56.274c0-52.201-27.723-68.959-36.814-76.939l25.95 10.735c20.936 8.654 34.579 29.071 34.579 51.71z" fill="#dcf2f7"></path><path d="M276.852 322.964a52.1 52.1 0 0 1-41.703 0c-36.935-16.131-60.807-52.607-60.807-92.91v-36.698c0-45.099 36.56-81.659 81.659-81.659 45.099 0 81.659 36.56 81.659 81.659v36.698c-.001 40.303-23.874 76.779-60.808 92.91z" fill="#d1a08f"></path><path d="M351.899 216.493c-.936 16.803-19.463 21.725-29.533 14.987-2.534-1.695-4.698-4.137-6.368-7.221a24.618 24.618 0 0 1-2.965-12.143c.027-1.356-1.069-2.46-2.424-2.41a17.86 17.86 0 0 1-.656.012c-9.446 0-17.514-5.836-20.833-14.095a2.363 2.363 0 0 0-3.65-.994c-8.138 6.238-18.312 9.95-29.358 9.95s-21.22-3.713-29.358-9.95a2.364 2.364 0 0 0-3.65.994c-3.319 8.259-11.387 14.095-20.833 14.095-.294 0-.587-.007-.877-.021-1.356-.064-2.454 1.055-2.427 2.412a24.78 24.78 0 0 1-2.44 11.166c-9.087 18.885-37.529 14.234-38.784-6.686a22.708 22.708 0 0 1 2.555-11.947 2.337 2.337 0 0 0-.482-2.813c-5.014-4.589-8.167-11.175-8.167-18.508 0-11.208 7.343-20.698 17.48-23.93 1.251-.399 1.996-1.711 1.578-2.956a22.66 22.66 0 0 1-1.183-7.225c0-12.648 10.253-22.901 22.901-22.901.224 0 .447.004.67.013a2.361 2.361 0 0 0 2.441-2.37v-.007c0-12.648 10.253-20.536 22.901-20.536 3.915 0 7.597.989 10.818 2.723a2.4 2.4 0 0 0 3.295-1.015c4.394-8.477 13.243-14.272 23.45-14.272 10.208 0 19.057 5.795 23.451 14.272a2.394 2.394 0 0 0 2.794 1.217c.17-.048.77-.001.933-.089 3.221-1.734 6.471-.471 10.387-.471 12.648 0 20.536 7.888 20.536 20.536v.007c-.003 1.336 1.096 2.421 2.431 2.371.226-.008.452-.013.68-.013 12.648 0 22.901 10.253 22.901 22.901a22.66 22.66 0 0 1-1.183 7.225c-.418 1.245.327 2.558 1.578 2.956 10.137 3.231 17.48 10.357 17.48 21.565 0 7.333-3.153 13.919-8.167 18.508a2.337 2.337 0 0 0-.482 2.813 22.7 22.7 0 0 1 2.56 11.85z" fill="#8abbd5"></path><path d="M352.185 201.828c5.014-4.589 8.167-11.175 8.167-18.508 0-11.208-7.343-20.699-17.48-23.93-1.251-.399-1.996-1.711-1.578-2.956a22.66 22.66 0 0 0 1.183-7.225c0-12.648-10.253-22.901-22.901-22.901-.228 0-.454.004-.68.013-1.335.05-2.434-1.035-2.431-2.371v-.007c0-12.648-10.253-20.536-22.901-20.536-3.916 0-7.597.989-10.818 2.723a2.456 2.456 0 0 1-.501.202c6.353 3.373 10.574 9.506 10.574 17.611v.007c-.003 1.335 1.096 2.421 2.431 2.371.226-.008.452-.013.68-.013 12.648 0 22.901 10.253 22.901 22.901a22.66 22.66 0 0 1-1.183 7.225c-.418 1.245.327 2.558 1.578 2.956 10.137 3.231 17.48 12.721 17.48 23.93 0 7.333-3.153 13.919-8.167 18.508a2.336 2.336 0 0 0-.482 2.813 22.7 22.7 0 0 1 2.561 11.852c-.376 6.749-3.678 11.847-8.251 14.987 12 8.371 30.961 1.815 31.897-14.987a22.708 22.708 0 0 0-2.561-11.852 2.336 2.336 0 0 1 .482-2.813z" fill="#6cabca"></path><path d="M272.473 286.39a7.69 7.69 0 0 1-3.821-1.016c-7.805-4.451-17.501-4.451-25.306 0a7.723 7.723 0 0 1-10.539-2.883 7.725 7.725 0 0 1 2.883-10.539c12.527-7.145 28.09-7.145 40.618 0a7.725 7.725 0 0 1 2.883 10.539 7.72 7.72 0 0 1-6.718 3.899z" fill="#c68d7a"></path></g></svg>