<svg viewBox="0 0 497 497" xmlns="http://www.w3.org/2000/svg"><g><path d="M330.667 180v-75c0-8.284-6.716-15-15-15s-15 6.716-15 15v75c0 16.569 13.431 30 30 30h60v-30z" fill="#7aa3ff"></path><path d="m210.667 497-90-248.5 90-248.5h22.5a7.5 7.5 0 0 1 7.5 7.5v482a7.5 7.5 0 0 1-7.5 7.5z" fill="#aa6f51"></path><path d="M.667 489.5V7.5a7.5 7.5 0 0 1 7.5-7.5h202.5v30l-90 113.5 90 113.5v90l-90 60 90 60v30H8.167a7.5 7.5 0 0 1-7.5-7.5z" fill="#b88567"></path><path d="m180.667 467-60-60 60-60h30v120z" fill="#995e49"></path><path d="M30.667 347h150v120h-150z" fill="#aa6f51"></path><path d="m180.667 257-60-113.5 60-113.5h30v227z" fill="#c7e3ff"></path><path d="M30.667 30v227h150V90l-15-15 15-15V30z" fill="#e5f2ff"></path><path d="m150.667 90-37.5-15 37.5-15h30v30z" fill="#ffbb6e"></path><path d="M60.667 60h90v30h-90z" fill="#ffd478"></path><circle cx="45.667" cy="302" fill="#ffd478" r="15"></circle><path d="M413.5 59.5v90c24.853 0 45-20.147 45-45s-20.147-45-45-45z" fill="#597dcf"></path><path d="M428.5 104.5c0-24.853-6.716-45-15-45-24.853 0-45 20.147-45 45s20.147 45 45 45c8.284 0 15-20.147 15-45z" fill="#6a90e7"></path><path d="M466.333 180h-30l30 152.5c0 8.28 6.71 14.5 15 14.5 8.28 0 15-6.22 15-14.5V210c0-16.5-13.5-30-30-30z" fill="#597dcf"></path><path d="M466.333 210c0-16.5-13.5-30-30-30h-45.667c-16.5 0-30 13.5-30 30v268.084c0 10.447 8.469 18.916 18.917 18.916 10.447 0 18.917-8.469 18.917-18.916V332.5h30v145.584c0 10.447 8.469 18.916 18.917 18.916 10.447 0 18.916-8.469 18.916-18.916z" fill="#6a90e7"></path><g fill="#c7e3ff"><circle cx="270.667" cy="105" fill="#c7e3ff" r="7.5"></circle><circle cx="283.847" cy="73.18" fill="#c7e3ff" r="7.5"></circle><circle cx="315.667" cy="60" fill="#c7e3ff" r="7.5"></circle></g></g></svg>