<svg viewBox="0 0 24 24" xmlns="http://www.w3.org/2000/svg"><g><path d="M24 12c0-2.3-.1-4.4-.5-5.6-.4-1.4-.9-2.7-2.1-3.9C19.9 1.1 18.6.7 16.6.3 15.2.1 13.5 0 12.5 0h-.9c-1.1 0-2.7.1-4.2.3-2 .4-3.4.9-4.8 2.2C1.3 3.7.9 5 .5 6.4.1 7.6 0 9.7 0 12s.1 4.4.5 5.6c.4 1.4.9 2.7 2.1 3.9 1.5 1.4 2.8 1.8 4.8 2.2C9 24 11 24 12 24c1 0 3 0 4.7-.3 1.9-.4 3.3-.8 4.8-2.2 1.2-1.1 1.7-2.4 2.1-3.9.3-1.2.4-3.3.4-5.6z" fill="#379df1"></path><path d="M15 6.7c-.4-.4-1-.4-1.4 0L9 11.3c-.4.4-.4 1 0 1.4l4.6 4.6c.4.4 1 .4 1.4 0s.4-1 0-1.4L11.1 12 15 8.1c.4-.4.4-1 0-1.4z" fill="#ffffff"></path></g></svg>