<svg viewBox="0 0 512 512" xmlns="http://www.w3.org/2000/svg"><g><path d="M428.255 91H150C83.725 91 30 144.725 30 211v152.549A89.575 89.575 0 0 1 25.69 391h192.22c12.878 0 26.292-2.181 38.09-5.914 8.921-2.823 17.523-6.449 25.505-11.182C294.58 366.149 289.067 346 273.84 346H195c-8.284 0-15-6.716-15-15 0-8.286 6.716-15 15-15h120.907a69.233 69.233 0 0 0 47.798-19.149c9.771-9.326 3.144-25.851-10.358-25.851H256c-8.284 0-15-6.716-15-15 0-8.286 6.716-15 15-15h140.123c16.602 0 32.34-7.69 42.521-20.815 7.614-9.813.643-24.185-11.858-24.185H286c-8.284 0-15-6.716-15-15 0-8.286 6.716-15 15-15h120.888c37.495 0 71.06-23.245 84.249-58.343l13.835-36.817C483.725 83.487 453.492 91 428.255 91z" fill="#ecf2ff"></path><g fill="#d9e5ff"><path d="M315.907 316a69.233 69.233 0 0 0 47.798-19.149c9.771-9.326 3.144-25.851-10.358-25.851H256v45zM396.123 241c16.602 0 32.34-7.69 42.521-20.815 7.614-9.813.643-24.185-11.858-24.185H286c-8.284 0-15-6.716-15-15 0-8.286 6.716-15 15-15h120.888c37.495 0 71.06-23.245 84.249-58.343l13.835-36.817C483.725 83.487 453.492 91 428.255 91H256v150zM273.84 346H256v39.086c8.921-2.823 17.523-6.449 25.505-11.182C294.58 366.149 289.067 346 273.84 346z" fill="#d9e5ff"></path><path d="M496.98 61H150C67.295 61 0 128.295 0 211v224.985c0 10.464 10.435 17.585 20.01 14.136C43.931 441.64 60 418.905 60 393.549V211c0-49.629 40.371-90 90-90h278.249c30.322 0 59.385-12.7 79.761-34.849 8.862-9.6 1.983-25.151-11.03-25.151z" fill="#d9e5ff"></path></g><path d="M508.01 86.151c8.862-9.6 1.983-25.151-11.03-25.151H256v60h172.249c30.323 0 59.385-12.7 79.761-34.849z" fill="#bfd6ff"></path></g></svg>