<svg viewBox="0 0 96 96" xmlns="http://www.w3.org/2000/svg"><g><path d="M76 3H36a2 2 0 0 0-2 2v88h44V5a2 2 0 0 0-2-2z" fill="#ef6662"></path><path d="M18 31a1 1 0 0 1-1-1V18a1 1 0 0 1 2 0v12a1 1 0 0 1-1 1z" fill="#316596"></path><path d="M34 29v64H5a2 2 0 0 1-2-2V31a2 2 0 0 1 2-2z" fill="#f2be07"></path><g fill="#efefef"><path d="M8 34h8v8H8zM21 34h8v8h-8zM8 47h8v8H8zM21 47h8v8h-8zM8 60h8v8H8zM21 60h8v8h-8zM39 8h8v8h-8zM52 8h8v8h-8zM65 8h8v8h-8zM39 21h8v8h-8zM52 21h8v8h-8zM65 21h8v8h-8zM39 34h8v8h-8zM52 34h8v8h-8zM65 34h8v8h-8zM39 47h8v8h-8zM52 47h8v8h-8zM65 47h8v8h-8z" fill="#efefef"></path></g><path d="M82 70a1 1 0 0 1-1-1v-3c0-1.654-1.346-3-3-3h-6c-1.654 0-3 1.346-3 3v3a1 1 0 0 1-2 0v-3c0-2.757 2.243-5 5-5h6c2.757 0 5 2.243 5 5v3a1 1 0 0 1-1 1z" fill="#316596"></path><path d="M91 93H59a2 2 0 0 1-2-2V71a2 2 0 0 1 2-2h32a2 2 0 0 1 2 2v20a2 2 0 0 1-2 2z" fill="#316596"></path><path d="M91 93H59a2 2 0 0 1-2-2V79h36v12a2 2 0 0 1-2 2z" fill="#6ebaed"></path><path d="M64 77h4v5h-4zM82 77h4v5h-4z" fill="#316596"></path><path d="M63 93c0-3.316-2.684-6-6-6v4a2 2 0 0 0 2 2zM87 93c0-3.316 2.684-6 6-6v4a2 2 0 0 1-2 2z" fill="#f2be07"></path><path d="M16.971 7.757a1.012 1.012 0 0 1 1.511.097c2.74 3.53 2.489 8.631-.754 11.874s-8.343 3.494-11.874.754a1.011 1.011 0 0 1-.097-1.511z" fill="#3ba1e3"></path><path d="M40 93V73a2 2 0 0 1 2-2h8a2 2 0 0 1 2 2v20h-8z" fill="#316596"></path><path d="M68 76h-4a1 1 0 0 0-1 1v5a1 1 0 0 0 1 1h1v2a1 1 0 0 0 2 0v-2h1a1 1 0 0 0 1-1v-5a1 1 0 0 0-1-1zm-1 5h-2v-3h2zM86 76h-4a1 1 0 0 0-1 1v5a1 1 0 0 0 1 1h1v2a1 1 0 0 0 2 0v-2h1a1 1 0 0 0 1-1v-5a1 1 0 0 0-1-1zm-1 5h-2v-3h2z" fill="#f2be07"></path><circle cx="42" cy="67" fill="#e05551" r="1"></circle><circle cx="46" cy="67" fill="#e05551" r="1"></circle><circle cx="50" cy="67" fill="#e05551" r="1"></circle></g></svg>