<svg viewBox="0 0 64 64" xmlns="http://www.w3.org/2000/svg"><g><path d="M61.93 34A30 30 0 0 1 34 61.93v-9A21 21 0 0 0 52.9 34z" fill="#ffbb33"></path><path d="M2.07 30A30 30 0 0 1 30 2.07v9A21 21 0 0 0 11.1 30z" fill="#2970cc"></path><path d="M30 61.93A30 30 0 0 1 2.07 34h9A21 21 0 0 0 30 52.9z" fill="#e65c62"></path><path d="M34 2.07A30 30 0 0 1 61.93 30h-9A21 21 0 0 0 34 11.1z" fill="#44a649"></path><path d="M22 25h20v19H22z" fill="#475666"></path><path d="M22 25v6.83a5.53 5.53 0 0 0 5.64-1.33 6.71 6.71 0 0 0 8.72 0A5.53 5.53 0 0 0 42 31.83V25z" fill="#35414d"></path><path d="M43.7 25.58 40.33 19H23.67l-3.37 6.58a3.57 3.57 0 1 0 6.87 1.92l.27-1a4.7 4.7 0 0 0 9.12 0l.27 1a3.57 3.57 0 1 0 6.87-1.92z" fill="#1f9981"></path><g fill="#1a806b"><path d="M20.18 26.61a3.56 3.56 0 0 0 7 .89l.25-.89zM36.58 26.61l.25.89a3.56 3.56 0 0 0 7-.89zM27.46 26.61a4.69 4.69 0 0 0 9.08 0z" fill="#1a806b"></path></g><path d="M32 30.11a4.7 4.7 0 0 0 4.64-5.48L34.78 19h-5.56l-1.86 5.63A4.7 4.7 0 0 0 32 30.11z" fill="#f2f2f2"></path><path d="M27.45 26.61a4.71 4.71 0 0 0 9.1 0z" fill="#d9d9d9"></path><path d="M27 35h10v5H27z" fill="#cce2ff"></path></g></svg>