<svg viewBox="0 0 66 66" xmlns="http://www.w3.org/2000/svg"><g><path d="m58.18 33.63-1.67 3.3c2.31 1.64 3.82 4.32 3.82 7.36 0 4.92-3.96 8.93-8.87 9.02l-3.56 4.66 5.09-1.1c6.2-.83 11-6.14 11-12.57.01-4.48-2.31-8.41-5.81-10.67z" fill="#aab2bd"></path><path d="m58.18 33.63-.92 1.81c2.96 2 4.73 5.29 4.73 8.85 0 5.33-3.98 9.88-9.27 10.59l-.16.03-2.79.61-1.88 2.45 5.09-1.1c6.2-.83 11-6.14 11-12.57.02-4.48-2.3-8.41-5.8-10.67z" fill="#ffffff" opacity=".3"></path><path d="M22.05 37.57c4.02 0 5.44 2.18 7.63 3.72 0-.13.02-.25.02-.38 0-6.42-4.37-11.8-10.3-13.37v-8.77h-7.1v8.77c-5.37 1.42-9.45 5.97-10.17 11.59 2.12 1.54 3.56 3.65 7.51 3.65 6.2 0 6.2-5.21 12.41-5.21z" fill="#e6e9ee"></path><path d="M19.4 27.55v-8.77h-3v8.77c0 1.36.92 2.55 2.23 2.9 2.21.58 4.22 1.89 5.67 3.67.59.73 1.46 1.11 2.33 1.11.56 0 1.11-.16 1.61-.48-1.76-3.51-4.97-6.18-8.84-7.2z" fill="#ffffff" opacity=".5"></path><path d="M58.84 60.41H33.6c-.56 0-1.01.45-1.01 1.01v2.01c0 .56.45 1.01 1.01 1.01h25.24c.56 0 1.01-.45 1.01-1.01v-2.01c0-.56-.45-1.01-1.01-1.01z" fill="#5d5b68"></path><path d="M50.76 51.68h-9.08l-3.77 8.73h16.62z" fill="#ff4823"></path><path d="M53.24 57.41h-5.09c-2.95 0-4.93-3.02-3.76-5.73h-2.71l-3.77 8.73h16.62z" fill="#000000" opacity=".1"></path><path d="m49.43 43.63-6.35-1.74.08 4.3 4.01 1.1zM50.263 19.415l4.454 1.224-.946 3.442-4.454-1.225z" fill="#aab2bd"></path><path d="m57.38 17.5-7.77-2.14a.965.965 0 0 0-1.19.68l-.48 1.73c-.14.52.16 1.05.68 1.19l7.77 2.14a.965.965 0 0 0 1.19-.68l.48-1.73a.973.973 0 0 0-.68-1.19z" fill="#ff4823"></path><path d="M50.58 17.97a.965.965 0 0 1-.68-1.19l.34-1.24-.63-.17a.965.965 0 0 0-1.19.68l-.48 1.73c-.14.52.16 1.05.68 1.19l7.77 2.14a.965.965 0 0 0 1.19-.68l.13-.49z" fill="#000000" opacity=".15"></path><path d="m54.98 24.41-6.84-1.88c-1.03-.28-2.1.32-2.38 1.35l-4.28 15.56c-.28 1.03.32 2.1 1.35 2.38l6.84 1.88c1.03.28 2.1-.32 2.38-1.35l1.38-5.02 1.94-7.05.96-3.48c.29-1.04-.32-2.11-1.35-2.39z" fill="#ff4823"></path><path d="m46.25 31.01 2.3-8.37-.41-.11c-1.03-.28-2.1.32-2.38 1.35l-4.28 15.56c-.28 1.03.32 2.1 1.35 2.38l6.84 1.88c1.03.28 2.1-.32 2.38-1.35l.21-.76c-4.58-1.26-7.27-6-6.01-10.58z" fill="#000000" opacity=".15"></path><g fill="#fec200"><circle cx="5.21" cy="10.68" fill="#fec200" r="2.04"></circle><circle cx="10.82" cy="5.57" fill="#fec200" r="2.04"></circle><circle cx="28.66" cy="16.81" fill="#fec200" r="2.04"></circle></g><path d="M34.45 23.41c-.55 0-1-.45-1-1V5.63c0-1.14-.92-2.06-2.06-2.06H21.11c-1.14 0-2.06.92-2.06 2.06v9.19c0 .55-.45 1-1 1s-1-.45-1-1V5.63c0-2.24 1.82-4.06 4.06-4.06h10.28c2.24 0 4.06 1.82 4.06 4.06v16.78c0 .55-.45 1-1 1z" fill="#e6e9ee"></path><path d="M22.05 37.57c-6.2 0-6.2 5.21-12.41 5.21-3.95 0-5.39-2.11-7.51-3.65-.08.59-.13 1.18-.13 1.79 0 7.65 6.2 13.85 13.85 13.85 7.52 0 13.62-6 13.83-13.47-2.19-1.54-3.61-3.73-7.63-3.73z" fill="#009aff"></path><path d="M20.6 18.78c.37 0 .66-.3.66-.66v-2.64c0-.37-.3-.66-.66-.66h-9.51c-.37 0-.66.3-.66.66v2.64c0 .37.3.66.66.66H19.4zM36.35 22.41h-9.77c-.51 0-.92.41-.92.92v1.82c0 .51.41.92.92.92h9.77c.51 0 .92-.41.92-.92v-1.82c0-.51-.41-.92-.92-.92z" fill="#aab2bd"></path><path d="M27.22 26.07h8.5v17.78h-8.5z" fill="#e6e9ee"></path><path d="M27.22 43.85v6.67c0 2.35 1.9 4.25 4.25 4.25s4.25-1.9 4.25-4.25v-6.67z" fill="#fec200"></path><g fill="#aab2bd"><path d="M32.88 29.78c-.55 0-1 .45-1 1s.45 1 1 1h2.83v-2zM31.88 35.01c0 .55.45 1 1 1h2.83v-2h-2.83c-.55 0-1 .44-1 1zM31.88 39.23c0 .55.45 1 1 1h2.83v-2h-2.83c-.55 0-1 .45-1 1z" fill="#aab2bd"></path></g><circle cx="54.53" cy="33.84" fill="#5d5b68" r="3.67"></circle><path d="M55.7 35.88c-2.03 0-3.67-1.64-3.67-3.67 0-.43.09-.84.23-1.23-.84.67-1.39 1.7-1.39 2.86 0 2.03 1.64 3.67 3.67 3.67a3.65 3.65 0 0 0 3.44-2.44c-.63.5-1.41.81-2.28.81z" fill="#000000" opacity=".15"></path><path d="M54.53 34.85c-.55 0-1.01-.45-1.01-1.01 0-.55.45-1.01 1.01-1.01.55 0 1.01.45 1.01 1.01 0 .55-.45 1.01-1.01 1.01z" fill="#ffffff"></path><path d="M6.45 11.49c-1.13 0-2.04-.91-2.04-2.04 0-.24.05-.47.12-.68a2.037 2.037 0 0 0 .68 3.96c.89 0 1.64-.57 1.92-1.36-.21.07-.44.12-.68.12zM12.06 6.38c-1.13 0-2.04-.91-2.04-2.04 0-.24.05-.47.12-.68-.79.28-1.37 1.02-1.37 1.91a2.037 2.037 0 0 0 3.96.68c-.21.08-.44.13-.67.13zM29.9 17.61c-1.13 0-2.04-.91-2.04-2.04 0-.24.05-.47.12-.68a2.037 2.037 0 0 0 .68 3.96c.89 0 1.64-.57 1.92-1.36-.21.07-.44.12-.68.12zM19.85 50.76C12.2 50.76 6 44.56 6 36.91c0-.61.05-1.2.13-1.78.27-2.11 1.02-4.07 2.13-5.77-3.29 2.16-5.6 5.68-6.13 9.78-.08.58-.13 1.17-.13 1.78 0 7.65 6.2 13.85 13.85 13.85 4.83 0 9.07-2.49 11.54-6.25a13.695 13.695 0 0 1-7.54 2.24z" fill="#000000" opacity=".1"></path><path d="M34.47 51.76a4.25 4.25 0 0 1-4.25-4.24V26.07h-3v24.45a4.25 4.25 0 0 0 4.25 4.24c1.97 0 3.61-1.35 4.09-3.16-.35.09-.71.16-1.09.16zM21.21 17.12H12.9a.66.66 0 0 1-.66-.66v-1.64h-1.15c-.37 0-.66.3-.66.66v2.64c0 .37.3.66.66.66h9.52c.37 0 .66-.3.66-.66v-1zM28.4 24.4c-.51 0-.92-.41-.92-.92V22.4h-.9c-.51 0-.92.41-.92.92v1.82c0 .51.41.92.92.92h9.77c.51 0 .92-.41.92-.92v-.74z" fill="#000000" opacity=".1"></path><path d="M36.61 62.43c-.56 0-1.01-.45-1.01-1.01V60.4h-2c-.56 0-1.01.45-1.01 1.01v2.01c0 .56.45 1.01 1.01 1.01h25.24c.56 0 1.01-.45 1.01-1.01v-1H36.61z" fill="#000000" opacity=".15"></path></g></svg>