<svg viewBox="0 0 64 64" xmlns="http://www.w3.org/2000/svg"><g><g><path d="M17.15 5h29.7a16.5 16.5 0 0 1-.45 2.2L46 8H18l-.4-.8a16.5 16.5 0 0 1-.45-2.2z" fill="#573b96"></path><path d="M38.14 34.73a49.57 49.57 0 0 0 12.32-2.52A25.125 25.125 0 0 1 51 37.4c0 .2 0 .4-.01.6-6 .01-17.99 9-17.99 9h-2s-11.99-8.99-17.99-9c-.01-.2-.01-.4-.01-.6a25.125 25.125 0 0 1 .54-5.19 49.57 49.57 0 0 0 12.32 2.52c1.87.17 3.92.27 6.14.27s4.27-.1 6.14-.27zM47 1v1.72A17.459 17.459 0 0 1 46.85 5h-29.7A17.459 17.459 0 0 1 17 2.72V1z" fill="#7c2d6e"></path><path d="m31 47-3 16H16l-2.8-22.42a24.471 24.471 0 0 1-.19-2.58c6 .01 17.99 9 17.99 9zM50.99 38a24.471 24.471 0 0 1-.19 2.58L48 63H36l-3-16s11.99-8.99 17.99-9zM32 8h14l-2.98 5.97a3.988 3.988 0 0 0 .21 3.94l4.76 7.44a25.254 25.254 0 0 1 2.24 5.84c.09.34.16.68.23 1.02a49.57 49.57 0 0 1-12.32 2.52c-1.87.17-3.92.27-6.14.27s-4.27-.1-6.14-.27a49.57 49.57 0 0 1-12.32-2.52 25.732 25.732 0 0 1 2.47-6.86l4.76-7.44a3.988 3.988 0 0 0 .21-3.94L18 8z" fill="#f7b791"></path><path d="M24.67 20.99a3.993 3.993 0 0 0-.67 2.22v6.85a3.917 3.917 0 0 0 .42 1.78l1.44 2.89a49.57 49.57 0 0 1-12.32-2.52 24.534 24.534 0 0 1 1.55-4.93c.29.91 1.4 3.72 3.91 3.72 3 0 3-4 3-7s4-5 4-5z" fill="#e8a682"></path><path d="M45 31c2.51 0 3.62-2.79 3.91-3.71a24.646 24.646 0 0 1 1.55 4.92 49.57 49.57 0 0 1-12.32 2.52l1.44-2.89a3.917 3.917 0 0 0 .42-1.78v-6.85a3.993 3.993 0 0 0-.67-2.22L38 19s4 2 4 5 0 7 3 7z" fill="#edaa85"></path><ellipse cx="32" cy="27.5" fill="#eda277" rx="1" ry="1.5"></ellipse><path d="M34 8H18l2.646 5.3A6 6 0 0 1 26 10h12a6 6 0 0 1 5.354 3.3L46 8zM13.01 38a24.471 24.471 0 0 0 .19 2.58L16 63h12l.375-2H21.6a4 4 0 0 1-3.978-3.581l-.946-8.984a4 4 0 0 1 5.507-4.116c3.427 1.413 7.224 3.236 8.424 4.773L31 47s-11.99-8.99-17.99-9zM37.348 56.76l-.907-5.891a4.985 4.985 0 0 1 1.959-4.778c2.792-2.057 7.633-5.136 12.436-5.908.08-.721.133-1.448.15-2.183-6 .01-17.99 9-17.99 9l3 16H48l.25-2h-5.96a5 5 0 0 1-4.942-4.24z" fill="#e8a682"></path><path d="M45 6H26.968A4.063 4.063 0 0 1 24.3 5h-7.15a16.5 16.5 0 0 0 .45 2.2l.4.8h28l.4-.8a16.5 16.5 0 0 0 .45-2.2h-.127A1.994 1.994 0 0 1 45 6z" fill="#3d296e"></path><path d="M22.991 1.036 23 1h-6v1.72A17.459 17.459 0 0 0 17.15 5h7.15a4.019 4.019 0 0 1-1.309-3.964z" fill="#632359"></path><path d="M48.937 43.119v-.041c-.209-2.444-2.79-.1-3.479.822A2.624 2.624 0 0 0 45 45.455a30.385 30.385 0 0 0 .217 3.724 18.626 18.626 0 0 0 .409 2.548 3.962 3.962 0 0 0 1.125 2.07c.475.4.983.175 1.254-.4a3.244 3.244 0 0 0 .236-1.03c.359-3.047.953-6.146.696-9.248zM28.978 52.072a3.013 3.013 0 0 0-1.071-2.682 6.683 6.683 0 0 0-1.408-.912 6.3 6.3 0 0 0-1.871-.443c-.98-.152-1.7.19-1.622 1.093a37.714 37.714 0 0 0 1.712 8.85 4.232 4.232 0 0 0 .672 1.564 1.417 1.417 0 0 0 1.176.451c1.037-.109 1.273-1.215 1.463-1.933.227-.855.323-1.731.465-2.6.184-1.126.352-2.255.484-3.388zM43.012 18.284c-.351-.556-1.021-.327-1.292.205a2.5 2.5 0 0 0 .036 1.605 17.764 17.764 0 0 0 1.2 3.044 9.969 9.969 0 0 0 2.616 3.851c1.043.835 2.222.708 1.981-.86a7.017 7.017 0 0 0-1.17-2.505z" fill="#ffcaab"></path><path d="M17 35a15.812 15.812 0 0 1 .121-1.712 35.858 35.858 0 0 1-3.581-1.078A25.125 25.125 0 0 0 13 37.4c0 .2 0 .4.01.6 6 .01 17.99 9 17.99 9h2s11.985-8.986 17.986-9C38 38 37 43 32 43c-4.123 0-15-6-15-8zM20.77 17.91l-.68 1.08A40.444 40.444 0 0 1 15 17s1.82-1.82 6.33-1.99a3.973 3.973 0 0 1-.56 2.9zM42.67 15.01C47.18 15.18 49 17 49 17a40.444 40.444 0 0 1-5.09 1.99l-.68-1.08a3.973 3.973 0 0 1-.56-2.9zM15 21a3.027 3.027 0 0 0 1.06.89L16 22c-9 0-15 9-15 9v-5s6-7 14-7z" fill="#632359"></path><path d="M63 26v5s-6-9-15-9l-.06-.11A3.027 3.027 0 0 0 49 21v-2c8 0 14 7 14 7z" fill="#7d2c6e"></path><path d="M43.91 18.99A40.444 40.444 0 0 0 49 17v4a3.027 3.027 0 0 1-1.06.89 9.283 9.283 0 0 1-1.6.72C41.44 24.37 32 25 32 25s-9.32-.62-14.25-2.36a8.632 8.632 0 0 1-1.69-.75A3.027 3.027 0 0 1 15 21v-4a40.444 40.444 0 0 0 5.09 1.99c1.16.37 2.48.74 3.91 1.06a36.391 36.391 0 0 0 8 .95 36.391 36.391 0 0 0 8-.95c1.43-.32 2.75-.69 3.91-1.06z" fill="#8f387f"></path><path d="M21 21.663a3.726 3.726 0 0 1-2.974-3.392C16.135 17.564 15 17 15 17v4a3.027 3.027 0 0 0 1.06.89 8.632 8.632 0 0 0 1.69.75C22.68 24.38 32 25 32 25s9.44-.63 14.34-2.39a9.283 9.283 0 0 0 1.6-.72A3.027 3.027 0 0 0 49 21v-2s-5 4-17 4a60.616 60.616 0 0 1-11-1.337z" fill="#7d2c6e"></path><path d="M46.255 22.638c-.13.046-.272.089-.408.133-.824.269-1.741.513-2.717.727q-.567.124-1.152.238c-.654.127-1.318.241-1.978.346-4.092.655-8 .918-8 .918s-3.907-.262-8-.918a61.886 61.886 0 0 1-1.978-.346 31.072 31.072 0 0 1-4.272-1.1l-1.02 1.594a10.421 10.421 0 0 0 1.025.408 30.9 30.9 0 0 0 4.231 1.087c.668.13 1.345.247 2.019.355a99.333 99.333 0 0 0 8 .918s.341-.023.924-.072a98.8 98.8 0 0 0 7.076-.846 61.222 61.222 0 0 0 2.019-.354c.708-.137 1.4-.29 2.06-.454a23.441 23.441 0 0 0 2.261-.664c.186-.066.35-.137.521-.207.14-.057.284-.113.413-.172z" fill="#db9b76"></path><path d="M17.75 20a.25.25 0 0 0 .5 0v-1.648a41.067 41.067 0 0 1-.5-.186zM45.75 20a.25.25 0 0 0 .5 0v-1.834c-.161.061-.327.123-.5.186zM21.75 21a.25.25 0 0 0 .5 0v-1.381l-.5-.135zM37.75 22a.25.25 0 0 0 .5 0v-1.594c-.164.03-.333.054-.5.082zM41.75 21a.25.25 0 0 0 .5 0v-1.516l-.5.135zM25.75 22a.25.25 0 0 0 .5 0v-1.512c-.166-.028-.336-.052-.5-.082zM33.75 23a.25.25 0 0 0 .5 0v-2.085c-.166.012-.333.017-.5.026zM29.75 23a.25.25 0 0 0 .5 0v-2.059c-.167-.009-.334-.014-.5-.026z" fill="#e6e6e6"></path><g fill="#d3d3d3"><path d="M31.625 20.987V24a.375.375 0 0 0 .75 0v-3.013c-.126 0-.249.013-.375.013s-.249-.011-.375-.013zM35.625 24a.375.375 0 0 0 .75 0v-3.3c-.247.033-.5.057-.75.085zM27.625 24a.375.375 0 0 0 .75 0v-3.217c-.251-.028-.5-.052-.75-.085zM39.625 20.126V23a.375.375 0 0 0 .75 0v-3.039c-.126.03-.247.06-.375.089s-.252.05-.375.076zM23.625 19.961V23a.375.375 0 0 0 .75 0v-2.874c-.123-.027-.254-.048-.375-.076l-.375-.089zM43.625 19.078V22a.375.375 0 0 0 .75 0v-3.166l-.465.156zM19.625 18.834V22a.375.375 0 0 0 .75 0v-2.922l-.285-.088c-.163-.052-.309-.104-.465-.156zM47.625 21a.375.375 0 0 0 .75 0v-3.71c-.207.093-.447.2-.75.327zM15.625 21a.375.375 0 0 0 .75 0v-3.383c-.3-.128-.543-.234-.75-.327z" fill="#d3d3d3"></path></g><path d="M52.748 21.163A1 1 0 0 1 52 20.2v-.87a14.422 14.422 0 0 0-3-.33v2a3.027 3.027 0 0 1-1.06.89L48 22c9 0 15 9 15 9v-2.463a19.044 19.044 0 0 0-10.252-7.374z" fill="#632359"></path><path d="M20 15.118c0 .115-.016.31-.046.551a2.007 2.007 0 0 1-2.73 1.619l-1.707-.683A3.854 3.854 0 0 0 15 17a40.444 40.444 0 0 0 5.09 1.99l.68-1.08a3.973 3.973 0 0 0 .56-2.9c-.476.018-.916.058-1.33.108zM46.78 17.288a2.007 2.007 0 0 1-2.73-1.619 6.41 6.41 0 0 1-.046-.551c-.418-.05-.858-.09-1.334-.108a3.973 3.973 0 0 0 .56 2.9l.68 1.08A40.444 40.444 0 0 0 49 17a3.854 3.854 0 0 0-.513-.395z" fill="#4a1a42"></path></g></g></svg>