<svg viewBox="0 0 496.069 496" xmlns="http://www.w3.org/2000/svg"><g><path d="M129.77 388c12.399-83.402-50.718-58.301-90.31-16.57-11.15 32.05-19.5 55.61-19.5 55.61-3.02 8.08-9.69 16.64-19.96 20.95 8.8 3.07 20.47.77 26.16-3.51-1.02 7.77-3.99 14.21-8.57 19.56 10.75-1.66 20.04-5.75 28.06-11.99-.38 7.36-2.22 13.77-5.75 19.1 10.18-.95 19.14-5.76 27.39-12.86-.41 6.65-1.38 12.56-3.42 17.05 10.43-.31 23.63-6.61 31.68-14.09 37.16-5.299 45.681-32.349 34.22-73.25z" fill="#e0ac69"></path><path d="M224.07 288.9c-1.697-19.884-17.081-23.066-35.29-20.36-55.249-33.843-92.277-24.804-117.91 11.05-10.19 30.51-21.84 64.3-31.41 91.84 9.15-2.48 17.13-8.38 22.34-16.89-1.59 7.73-.87 15.47 1.93 23.22 8.67-2.97 14.78-8.82 18.72-17.12.16 7.76 2.06 14.69 6.05 20.65 7.25-3.97 12.34-10.18 15.86-17.98-.21 6.92 1.75 13.09 5.94 18.48 7.24-4.04 12.37-9.48 15.34-16.36-.57 8.59.69 15.88 4.13 22.57l94.3-71.1c13.244-8.689 12.553-18.056 0-28z" fill="#f1c27d"></path><path d="M132.5 192.68c-24.46 11.41-43.85 32.58-52.57 59.43-2.8 8.64-5.86 17.9-9.06 27.48 8.67-1.73 15.97-8.32 21.36-15.93-.89 6.9.7 12.85 5.1 17.75 7.03-2.33 12.2-6.51 15.66-12.41 1.03 6.71 3.81 12.31 9.42 16.1 7.68-3.1 12.55-8.6 15.08-16.1 1.36 6.68 5.44 11.99 11.66 16.2 6.08-3.33 10.09-8.81 12.25-16.2 1.24 7.33 5.84 13.23 13.11 17.98 7.28-4.75 13.03-11.11 14.27-18.44 3.722-47.853-17.941-70.226-56.28-75.86z" fill="#ffdbac"></path><path d="M396.13 376.88c7.724-7.168 13.152-5.498 16.66 3.56l-15.2 71.22c-14.761-2.81-19.627-11.667-11.3-28.71z" fill="#655f68"></path><path d="M408.81 496h-67.84v-25.01c17.069-16.121 42.946-16.936 59.58-9.77l.02-.01c3.19 10.81 5.96 22.39 8.24 34.79zM155.17 470.99V496H87.33c2.28-12.39 5.05-23.96 8.22-34.75.01-.01.03-.02.04-.03 19.998-10.631 46.147-9.212 59.58 9.77z" fill="#f7b6ad"></path><path d="M397.59 451.66c-3.41-10.3-7.21-19.86-11.3-28.71-18.46-39.91-43.06-65.71-66.43-82.26-10.685 16.656-11.294 32.476 0 47.31l21.11 18.52c-10.238 22.831-11.714 44.514 0 64.47 20.19 3.12 45.55-.88 59.58-9.77l.02-.01c-.96-3.26-1.95-6.44-2.98-9.55zM129.77 388c-13.4 19.26-25.39 43.29-34.22 73.25.01-.01.03-.02.04-.03 14.03 8.89 39.39 12.89 59.58 9.77l12.508-56.05L176.28 388c17.465-14.484 15.869-30.371 0-47.31-15.69 11.11-31.93 26.39-46.51 47.31zM288.07 322.8c10.793 23.686 13.227 45.859 0 65.2-23.042 22.007-50.038 20.008-80 0-15.509-19.341-12.655-41.514 0-65.2 5.77-2.48 11.15-4.41 16-5.9 0 0 4.85 20.02 24 20.02s24-20.02 24-20.02c4.85 1.49 10.23 3.42 16 5.9z" fill="#e15c63"></path><path d="M326.31 21.87C311.85 4.93 272.07 0 248.07 0s-63.78 4.93-78.24 21.87c-14.46 16.93-30.4 66.04-30.4 66.04h217.28s-15.94-49.11-30.4-66.04z" fill="#f1c27d"></path><path d="M356.71 87.91c-30.25-7.34-67.87-11.69-108.64-11.69s-78.39 4.35-108.64 11.69c-43.89 10.64-72.28 27.58-72.28 46.65 0 18.79 27.55 35.51 70.34 46.17l221.19.03.05-.04c42.74-10.67 70.26-27.38 70.26-46.16 0-19.07-28.39-36.01-72.28-46.65z" fill="#e0ac69"></path><path d="M358.68 180.76c5.52 7.27 7.1 18.28 3.29 28.73-4.68 12.81-15.96 20.69-26.75 19.39h-.01c-15.262-17.693-15.105-37.922 11.1-55.98 1.21.23 2.35.54 3.53 1.02 3.56 1.43 6.54 3.81 8.84 6.84zM160.93 228.88h-.01c-4.56.55-9.2-.54-13.4-2.94v-.01c-5.16-2.95-9.65-7.9-12.46-14.25-.32-.71-.62-1.44-.89-2.19-2.07-5.67-2.55-11.5-1.67-16.81.74-4.5 2.45-8.62 4.99-11.95 2.29-3.02 5.27-5.39 8.81-6.81 1.18-.48 2.32-.79 3.53-1.02 18.822 21.333 20.176 41.056 11.1 55.98z" fill="#dfa3a5"></path><path d="M327.48 128.1c-20.47-5.83-48.15-11.36-79.41-11.36s-58.94 5.53-79.41 11.36c-11.349 13.096-19.197 27.13-18.83 44.8 2.09 21.42 5.97 41.13 11.1 55.98 2.17 6.29 4.57 11.71 7.15 16.02 4.44 7.39 11.61 15.88 20.7 23.64 9.85 8.41 21.95 15.96 35.29 20.36v28s4.85 20.02 24 20.02 24-20.02 24-20.02v-28c25.65-8.45 46.75-28.6 55.99-44 2.58-4.31 4.98-9.73 7.15-16.02 5.13-14.85 9.01-34.56 11.1-55.98-.732-11.352-4.38-26.292-18.83-44.8z" fill="#f7b6ad"></path><path d="M489.33 226.01c4.6.98 7.53 5.51 6.55 10.11l-15.68 73.44c-5.98 28.03-30.76 47.22-58.31 47.2l-5.23 24.5-3.87-.82-16.66-3.56-3.87-.82 5.23-24.51c-25.16-11.23-39.94-38.86-33.95-66.89l15.67-73.45a8.53 8.53 0 0 1 10.12-6.55c4.6.98 7.53 5.51 6.55 10.11l-15.65 73.29c-.13.6-.19 1.19-.19 1.78 0 3.94 2.75 7.48 6.75 8.33 4.6.99 9.13-1.95 10.11-6.55l15.65-73.29c.98-4.6 5.51-7.54 10.11-6.55 4.6.98 7.54 5.51 6.55 10.11l-15.64 73.29c-.98 4.6 1.95 9.13 6.55 10.11s9.13-1.95 10.11-6.56l15.65-73.28a8.519 8.519 0 0 1 10.11-6.56c4.61.98 7.54 5.51 6.56 10.11l-15.65 73.29a8.528 8.528 0 0 0 6.56 10.12c4.6.98 9.13-1.96 10.11-6.56l15.64-73.29a8.53 8.53 0 0 1 10.12-6.55z" fill="#cdc7b9"></path><path d="M322.45 388H173.69c-10.23 0-18.52 8.29-18.52 18.52V496h185.8v-89.48c0-10.23-8.29-18.52-18.52-18.52z" fill="#1498b7"></path><path d="M288.07 388v-65.2c9.78 4.21 20.64 9.99 31.79 17.89V420.23c0 8.78-7.12 15.89-15.89 15.89-4.39 0-8.36-1.78-11.24-4.65a15.84 15.84 0 0 1-4.66-11.24zM176.28 388v-47.31c1.21-.86 2.42-1.7 3.63-2.5 8.52-5.73 16.83-10.25 24.55-13.78 1.22-.56 2.42-1.1 3.61-1.61v97.43c0 4.39-1.78 8.36-4.66 11.24a15.874 15.874 0 0 1-11.24 4.65c-8.77 0-15.89-7.11-15.89-15.89z" fill="#1ea6bc"></path><circle cx="288.08" cy="172.9" fill="#543927" r="8"></circle><path d="m276.64 196.64 11.43 32.26-18.71-9.43-6.78 16.16-14.51-15.25-14.51 15.25-6.78-16.16-18.71 9.43 11.43-32.26a30.313 30.313 0 0 1 28.57-20.19c6.42 0 12.49 2.02 17.49 5.56 5 3.53 8.93 8.58 11.08 14.63z" fill="#604533"></path><circle cx="208.08" cy="172.9" fill="#543927" r="8"></circle><path d="M356.59 138.1c-.19 13.45-3.61 25.05-10.28 34.8-10.56-11.35-16.84-26.29-18.83-44.8 12.83 3.65 22.83 7.41 29.11 10zM139.55 138.1c6.28-2.59 16.28-6.35 29.11-10-1.99 18.51-8.27 33.45-18.83 44.8-6.67-9.75-10.09-21.35-10.28-34.8z" fill="#604533"></path><path d="M155.17 470.99V496h-40.25c8.31 0 14.08-10.47 18.07-24.24 7.56.54 15.18.31 22.18-.77z" fill="#dfa3a5"></path><path d="M155.17 413.376v57.614c-7 1.08-14.62 1.31-22.18.77 5.752-19.874 7.809-46.631 8.478-58.77a6.853 6.853 0 0 1 6.845-6.47 6.857 6.857 0 0 1 6.857 6.856z" fill="#d14b62"></path><path d="M340.97 470.99V496h40.25c-8.31 0-14.08-10.47-18.07-24.24-7.56.54-15.18.31-22.18-.77z" fill="#dfa3a5"></path><path d="M340.97 413.376v57.614c7 1.08 14.62 1.31 22.18.77-5.752-19.874-7.809-46.631-8.478-58.77a6.853 6.853 0 0 0-6.845-6.47 6.857 6.857 0 0 0-6.857 6.856z" fill="#d14b62"></path><path d="M272.07 288.9v18.13c-26.05 7.32-48-5.8-48-5.8V288.9c7.66 2.52 15.72 4 24 4s16.34-1.48 24-4z" fill="#dfa3a5"></path><path d="M303.495 137.791c-9.987-7.038-23.212-4.808-23.77-4.71a4 4 0 0 0 1.389 7.879c.103-.018 10.593-1.689 17.771 3.37a3.996 3.996 0 0 0 5.574-.965 4 4 0 0 0-.964-5.574zM216.434 133.081c-.558-.098-13.783-2.328-23.769 4.71a4 4 0 0 0 4.609 6.539c7.203-5.078 17.603-3.397 17.78-3.369a4 4 0 0 0 1.38-7.88z" fill="#604533"></path><path d="M365.822 137.799c-.112-.055-2.802-1.37-7.707-3.396-6.221-2.566-16.396-6.41-29.539-10.149-26.822-7.639-53.908-11.513-80.506-11.513s-53.684 3.874-80.505 11.513c-13.145 3.739-23.319 7.583-29.542 10.15-4.903 2.026-7.593 3.341-7.705 3.396a4 4 0 0 0 3.522 7.183c.026-.012 2.601-1.269 7.236-3.184 6.028-2.487 15.897-6.214 28.68-9.851 26.109-7.437 52.458-11.207 78.314-11.207s52.205 3.771 78.315 11.207c12.781 3.636 22.65 7.364 28.677 9.85 4.638 1.916 7.212 3.173 7.238 3.185a4 4 0 0 0 5.351-1.832 4 4 0 0 0-1.829-5.352z" fill="#cc9a62"></path><path d="M180.258 303.815a4.004 4.004 0 0 0-4.403-3.552 4.002 4.002 0 0 0-3.552 4.403l1.815 16.975a4.001 4.001 0 0 0 7.956-.851z" fill="#e0ac69"></path><path d="M119.719 221.456a111.439 111.439 0 0 0-18.015 29.86 3.999 3.999 0 1 0 7.412 3.007 103.435 103.435 0 0 1 16.726-27.72 4 4 0 1 0-6.123-5.147zM140.074 256.821a4.001 4.001 0 0 0 3.92-3.224c1.194-6.03 2.625-11.827 4.251-17.23a4 4 0 0 0-7.66-2.306c-1.701 5.649-3.194 11.699-4.438 17.981a3.999 3.999 0 0 0 3.927 4.779z" fill="#f1c27d"></path><g fill="#e0ac69"><path d="M150.594 300.314a4 4 0 0 0-4.69 3.163l-8.069 41.49a4 4 0 0 0 3.931 4.765 4.003 4.003 0 0 0 3.923-3.237l8.069-41.49a4.002 4.002 0 0 0-3.164-4.691zM119.063 299.008a4.003 4.003 0 0 0-4.745 3.079l-8.76 41.13a4 4 0 1 0 7.824 1.666l8.76-41.13a4 4 0 0 0-3.079-4.745zM88.823 297.332a3.997 3.997 0 0 0-4.94 2.756l-10.59 37.3a3.999 3.999 0 0 0 3.85 5.093 4 4 0 0 0 3.846-2.909l10.59-37.3a4.001 4.001 0 0 0-2.756-4.94zM205.676 303.095a4 4 0 0 0-7.931 1.05l1.399 10.574a4.002 4.002 0 0 0 4.49 3.441 4 4 0 0 0 3.441-4.49z" fill="#e0ac69"></path></g><path d="M61.583 393.405a4 4 0 0 0-5.268 2.062l-15.61 35.69a4 4 0 0 0 7.331 3.206l15.61-35.69a4.002 4.002 0 0 0-2.063-5.268zM88.598 395.466a4.005 4.005 0 0 0-5.063 2.525l-13.34 39.89a4.002 4.002 0 0 0 7.588 2.538l13.34-39.89a4 4 0 0 0-2.525-5.063z" fill="#cc9b66"></path></g></svg>