<svg viewBox="0 0 512 512" xmlns="http://www.w3.org/2000/svg"><g><path d="M343.457 362.723c-32.164-.79-52.594-16.297-64.352-30.438-10.535-12.664-15.16-30.082-20.511-50.25-7.45-28.058-16.723-62.98-45.797-95.133-28.828-31.875-64.477-45.757-95.93-58-46.43-18.078-65.273-27.058-65.273-68.222 0-4.5.015-14.254 8.328-25.485C23.05 59.531-.558 90.207.012 123.918c1.476 87.734 92.43 71.57 146.691 131.578 57.383 63.457 12.356 125.18 128.606 170.309 61.074 23.71 163.39-7.653 214.695-134.332-1.266 1.601-78.762 72.91-146.547 71.25zm0 0" fill="#ea3942"></path><path d="M512 199.61c0 106.109-89.29 215.292-204.531 192.128-122.594-24.64-74.57-102.097-131.953-165.55-54.266-60.012-151.063-37.09-151.063-131.575 0-85.605 148.184-108.465 283.016-87.133C419.039 25.133 512 93.5 512 199.61zm0 0" fill="#f3e8d7"></path><path d="M437.613 59.148c19.711 27.395 31.188 59.997 31.188 97.262 0 106.11-89.29 215.293-204.531 192.13-17.399-3.497-31.36-8.06-42.672-13.493 11.472 25.23 32.507 45.969 85.87 56.691C422.712 414.902 512 305.718 512 199.61c0-59.414-29.148-106.992-74.387-140.46zm0 0" fill="#e5d6c1"></path><path d="M338.496 356.91c-17.219.742-34.457-2.137-50.281-9.207-10.715-4.785-20.848-11.527-27.711-21.047-7.469-10.351-10.531-23.136-13.727-35.496-6.797-26.293-15.132-52.726-30.664-75.004-22.937-32.906-59.593-53.797-97.242-67.636-13.258-4.872-27.02-9.125-38.504-17.356-11.48-8.226-20.512-21.508-19.36-35.586 1.481-18.09 18.473-30.77 35.048-38.172 45.652-20.39 98.472-23.367 147.738-19.656 50.227 3.781 103.906 12.98 148.504 37.414 44.047 24.133 76.734 65.805 81.133 116.527 4.324 49.903-18.871 103.75-57.614 135.543-21.671 17.782-49.468 28.47-77.32 29.676zm0 0" fill="#fc4e51"></path><path d="M473.43 191.691c-3.89-44.87-29.926-82.644-66.368-107.472 12.43 18.726 20.508 40.219 22.536 63.64 4.324 49.903-18.868 103.75-57.61 135.543-21.672 17.782-49.468 28.473-77.32 29.676-14.844.645-29.7-1.418-43.652-6.523 2.261 7.152 5.117 14.043 9.488 20.101 6.863 9.52 16.996 16.258 27.71 21.047 15.821 7.07 33.063 9.95 50.282 9.203 27.852-1.203 55.649-11.89 77.32-29.676 38.743-31.793 61.938-85.64 57.614-135.539zm0 0" fill="#ea3942"></path><path d="M239.855 107.191c0 17.801-14.433 32.235-32.238 32.235-17.8 0-32.234-14.434-32.234-32.235 0-17.804 14.433-32.238 32.234-32.238 17.805 0 32.238 14.434 32.238 32.238zm0 0" fill="#f3e8d7"></path><g fill="#912c2c"><path d="M79.684 78.863c-5.016-.015-9.18.14-12.602.414-3.215 4.633-5.383 9.817-5.996 15.551 2.5-.05 5.59-.148 9.398-.285 36.489-.488 77.512 6.656 97.098 10.574 2.727.602 5.32 1.14 7.809 1.637a32.098 32.098 0 0 1 4.05-15.227 296.078 296.078 0 0 0-7.98-1.672c-18.274-3.707-55.7-10.359-91.777-10.992zM421.992 321.84c-5.02-3.387-11.965-8.473-16.351-16.242-4.23-7.496-7.121-17.297-10.926-29.711-5.16-16.84-11.582-37.801-24.086-63.41-11.93-24.438-34.098-45.164-57.04-61.489 17.18-10.02 58.497-28.781 123.509-26.246 0 0 5.136.203 11.797.387a152.868 152.868 0 0 0-12.618-15.738 627.012 627.012 0 0 0-13.562-.59c-69.235.48-110.14 23.562-123.465 32.57-20.684-13.09-40.379-22.45-52.094-27.57a276.11 276.11 0 0 0-7.515-2.946 32.025 32.025 0 0 1-5.309 14.383 193.82 193.82 0 0 0 7.215 3.297c26.168 11.613 92.465 44.727 114.973 90.828 11.96 24.504 18.18 44.809 23.18 61.121 3.82 12.47 7.116 23.196 11.878 32.157 3.66 6.89 8.856 12.84 15.098 17.523.82.617 1.722 1.29 2.676 2a125.974 125.974 0 0 0 6.464-4.934 141.12 141.12 0 0 0 6.176-5.39zm0 0" fill="#912c2c"></path></g></g></svg>