<svg viewBox="0 0 512 512" xmlns="http://www.w3.org/2000/svg"><g><path d="m417.038 70.129 11.437 23.175a3.045 3.045 0 0 0 2.293 1.666l25.575 3.716c2.498.363 3.495 3.433 1.688 5.194l-18.506 18.039a3.046 3.046 0 0 0-.876 2.695l4.369 25.471c.427 2.488-2.184 4.385-4.419 3.21l-22.875-12.026a3.047 3.047 0 0 0-2.834 0l-22.875 12.026c-2.234 1.175-4.845-.723-4.419-3.21l4.369-25.471a3.044 3.044 0 0 0-.876-2.695l-18.506-18.039c-1.807-1.762-.81-4.831 1.688-5.194l25.575-3.716a3.045 3.045 0 0 0 2.293-1.666l11.437-23.175c1.118-2.263 4.345-2.263 5.462 0z" fill="#fed402"></path><path d="m408.269 141.478 4.369-25.472a3.044 3.044 0 0 0-.876-2.695l-18.181-17.722-21.31 3.096c-2.498.363-3.495 3.432-1.688 5.194l18.506 18.039c.718.7 1.045 1.708.876 2.695l-4.369 25.471c-.427 2.488 2.184 4.385 4.419 3.21l18.613-9.785a2.986 2.986 0 0 1-.359-2.031zM414.307 43.239a7.5 7.5 0 0 1-7.5-7.5v-15.55a7.5 7.5 0 0 1 15 0v15.55a7.5 7.5 0 0 1-7.5 7.5zM467.087 65.102a7.474 7.474 0 0 1-5.303-2.197 7.5 7.5 0 0 1 0-10.606l10.996-10.996a7.5 7.5 0 0 1 10.606 0 7.5 7.5 0 0 1 0 10.606L472.39 62.905a7.476 7.476 0 0 1-5.303 2.197zM504.5 117.882h-15.55a7.5 7.5 0 0 1 0-15h15.55a7.5 7.5 0 0 1 0 15zM478.083 181.658a7.474 7.474 0 0 1-5.303-2.197l-10.996-10.996a7.5 7.5 0 0 1 0-10.606 7.5 7.5 0 0 1 10.606 0l10.996 10.996a7.5 7.5 0 0 1-5.303 12.803zM414.307 208.074a7.5 7.5 0 0 1-7.5-7.5v-15.55a7.5 7.5 0 0 1 15 0v15.55a7.5 7.5 0 0 1-7.5 7.5zM350.532 181.658a7.474 7.474 0 0 1-5.303-2.197 7.5 7.5 0 0 1 0-10.606l10.996-10.996a7.498 7.498 0 0 1 10.606 0 7.5 7.5 0 0 1 0 10.606l-10.996 10.996a7.478 7.478 0 0 1-5.303 2.197zM339.665 117.882h-15.55a7.5 7.5 0 0 1 0-15h15.55a7.5 7.5 0 0 1 0 15zM361.527 65.102a7.474 7.474 0 0 1-5.303-2.197l-10.996-10.996a7.5 7.5 0 0 1 0-10.606 7.5 7.5 0 0 1 10.606 0l10.996 10.996a7.5 7.5 0 0 1-5.303 12.803z" fill="#fac600"></path><g fill="#fe646f"><path d="m296.587 434.176 44.496-44.497a11.12 11.12 0 0 0 3.279-7.917c0-2.99-1.165-5.802-3.279-7.917l-44.496-44.497zM472.107 490.668l-88.954-90.039-86.565 86.565 1 12.116h170.909c4.506.001 6.777-5.435 3.61-8.642z" fill="#fe646f"></path></g><path d="M286.981 275.233H105.164a25.489 25.489 0 0 0-18.225 7.669L6.826 364.829c-9.175 9.382-9.09 24.4.189 33.68l87.423 87.423v9.094a4.285 4.285 0 0 0 4.285 4.285h198.864v-11.702l88.966-88.966c9.332-9.332 9.356-24.454.054-33.816l-81.545-82.071a25.488 25.488 0 0 0-18.081-7.523zM94.438 430.085l-41.113-41.113c-3.982-3.982-3.982-10.437 0-14.419l41.113-41.113zm203.149-98.322 42.789 42.79c3.982 3.982 3.982 10.437 0 14.419l-42.789 42.79z" fill="#b3dafe"></path><path d="M113.371 282.901a25.474 25.474 0 0 1 3.809-3.197l-2.428-3.093a5.143 5.143 0 0 1-.774-1.379h-8.814a25.493 25.493 0 0 0-18.225 7.669L6.826 364.829c-9.174 9.382-9.09 24.401.189 33.679l87.423 87.423v-22.29c0-2.652-1.054-5.196-2.929-7.071l-58.062-58.062c-9.279-9.279-9.363-24.297-.189-33.679z" fill="#8ac9fe"></path><path d="m183.029 358.142 4.114-36.096-17.43-17.429-12.537 9.253c-.329.243-.71.372-1.102.372-.906 0-1.885-.718-1.885-1.879v-42.728l-1-1.233h-34.445c-4.234 0-6.607 4.879-3.992 8.209l66.856 85.163z" fill="#fe646f"></path><path d="m162.04 310.28-4.863 3.589c-.329.243-.71.372-1.102.372-.906 0-1.885-.718-1.885-1.879V300.28l-18.581-23.669c-2.615-3.33-.242-8.209 3.992-8.209h-20.856c-4.234 0-6.607 4.879-3.992 8.209l66.856 85.163 1.421-3.633 2.103-18.447z" fill="#fd4755"></path><path d="M273.281 268.402h-34.446l-1 1.232v42.728c0 .669-.311 1.104-.572 1.352a1.93 1.93 0 0 1-1.313.527c-.392 0-.773-.128-1.102-.372l-12.537-9.253-17.43 17.429 4.115 36.104 1.42 3.625 66.856-85.163c2.616-3.33.243-8.209-3.991-8.209z" fill="#fe646f"></path><path d="m312.259 184.462-16.785-18.545a10.196 10.196 0 0 1-2.637-6.842v-42.898l-2.401-1h-52.042a13.859 13.859 0 0 0-11.129 5.601l-22.057 29.734v26.896a1.571 1.571 0 0 1-1.813 1.552l-18.449-2.876a1.989 1.989 0 0 1-1.692-1.976v-9.234a6.535 6.535 0 0 0-3.928-5.981 19.594 19.594 0 0 0-7.9-1.646h-9.523a19.602 19.602 0 0 0-13.598 5.449l-2.252 4.323a18.627 18.627 0 0 0-2.892 9.97v13.977c0 10.351 8.391 18.742 18.742 18.742a3.84 3.84 0 0 1 3.841 3.841v55.854h60.538V251.48a5.098 5.098 0 0 1 5.098-5.098h35.967c14.078 0 25.49-11.412 25.49-25.49v-21.978h13.01c7.499-.001 11.443-8.892 6.412-14.452z" fill="#ffe5c2"></path><path d="M180.583 269.402v-66.031a3.84 3.84 0 0 0-3.841-3.841c-10.351 0-18.742-8.391-18.742-18.742v-13.977c0-3.475.969-6.714 2.619-9.503-4.663.301-8.994 2.211-12.314 5.388l-2.252 4.323a18.627 18.627 0 0 0-2.892 9.97v13.977c0 10.351 8.391 18.742 18.742 18.742a3.84 3.84 0 0 1 3.841 3.841v55.854h14.839z" fill="#fed2a4"></path><path d="M306.473 73.355h-119.23c-24.775 0-41.19 21.411-41.19 46.054v47.61c3.318-5.264 9.168-8.772 15.85-8.772h9.524c2.667 0 5.203.557 7.499 1.562a5.536 5.536 0 0 1 3.329 5.066v9.234a3 3 0 0 0 2.538 2.964l18.449 2.876a2.571 2.571 0 0 0 2.967-2.541v-23.261c0-2.146.69-4.234 1.968-5.958l19.891-26.815a12.857 12.857 0 0 1 10.325-5.197h54.443l17.504-36.692c1.357-2.844-.716-6.13-3.867-6.13z" fill="#d88a55"></path><path d="M258.558 178.567c-7.461 0-14.479-2.909-19.76-8.19a7.5 7.5 0 0 1 0-10.606 7.5 7.5 0 0 1 10.606 0 12.863 12.863 0 0 0 9.153 3.796c3.455 0 6.706-1.348 9.154-3.796a7.5 7.5 0 0 1 10.606 0 7.5 7.5 0 0 1 0 10.606c-5.28 5.282-12.298 8.19-19.759 8.19z" fill="#f6a96c"></path><path d="M187.243 73.355c-24.775 0-41.19 21.411-41.19 46.054v47.61c3.318-5.264 9.168-8.772 15.85-8.772h9.524c2.273 0 4.441.426 6.456 1.167v-40.005c0-24.642 16.415-46.054 41.19-46.054z" fill="#c57a44"></path><path d="M292.174 226.656c.429-1.853.663-3.781.663-5.764v-9.236h-25.094a2.69 2.69 0 0 1-2.243-1.201l-3.09-4.636a7.501 7.501 0 0 0-12.481 8.32l3.09 4.636a17.662 17.662 0 0 0 14.724 7.88h24.431z" fill="#f6a96c"></path><path d="m205.785 321.143-8.447 8.448c-.354.354-.825.549-1.325.549s-.971-.195-1.325-.549l-8.447-8.448-15.318 134.386a10.007 10.007 0 0 0 1.485 6.48l21.07 33.296c1.178 1.861 3.892 1.861 5.07 0l21.07-33.296a9.993 9.993 0 0 0 1.485-6.48z" fill="#0593fc"></path><path d="M199.62 287.868c-1.052-.776-2.3-1.187-3.608-1.187s-2.555.411-3.607 1.187L168.9 305.217l25.081 25.08a2.874 2.874 0 0 0 4.064 0l25.08-25.08z" fill="#0182fc"></path><path d="M153.19 268.402v43.96c0 2.358 2.683 3.713 4.581 2.312l35.228-26.002a5.074 5.074 0 0 1 6.028 0l35.228 26.002c1.897 1.4 4.581.046 4.581-2.312v-43.96z" fill="#b3dafe"></path><path d="M174 268.402h-20.81v43.96c0 2.358 2.683 3.713 4.581 2.312L174 302.696z" fill="#8ac9fe"></path><path d="M58.432 202.807c-5.39 16.69-11.294 22.595-27.984 27.984-2.023.653-2.023 3.531 0 4.185 16.69 5.39 22.595 11.294 27.984 27.984.653 2.023 3.531 2.023 4.185 0 5.39-16.69 11.294-22.595 27.984-27.985 2.023-.653 2.023-3.531 0-4.185-16.69-5.39-22.595-11.294-27.984-27.984-.654-2.022-3.532-2.022-4.185.001z" fill="#fed402"></path><path d="M45.488 223.765c-3.811 2.806-8.627 4.955-15.04 7.026-2.023.653-2.023 3.531 0 4.185 16.69 5.39 22.595 11.294 27.984 27.984.653 2.023 3.531 2.023 4.185 0 2.071-6.413 4.221-11.229 7.026-15.04-4.835-13.609-10.546-19.32-24.155-24.155z" fill="#fac600"></path><path d="M353.571 286.044c-5.39 16.69-11.294 22.595-27.984 27.984-2.023.653-2.023 3.531 0 4.185 16.69 5.39 22.595 11.294 27.984 27.984.653 2.023 3.531 2.023 4.185 0 5.39-16.69 11.294-22.595 27.984-27.985 2.023-.653 2.023-3.531 0-4.185-16.69-5.389-22.595-11.294-27.984-27.984-.654-2.022-3.532-2.022-4.185.001z" fill="#fed402"></path><path d="M338.853 308.214c-3.51 2.232-7.809 4.052-13.267 5.814-2.023.653-2.023 3.531 0 4.185 16.69 5.39 22.595 11.294 27.984 27.985.653 2.023 3.531 2.023 4.185 0 1.762-5.458 3.583-9.757 5.814-13.267-4.914-14.045-10.671-19.802-24.716-24.717z" fill="#fac600"></path></g></svg>