<svg viewBox="0 0 509.421 509.421" xmlns="http://www.w3.org/2000/svg"><g><path d="M409.421 251.348V123.073c-35.366 0-64.139 28.772-64.139 64.138s28.773 64.137 64.139 64.137z" fill="#9bc9ff"></path><path d="M473.56 187.211c0-35.366-28.772-64.138-64.139-64.138v128.275c35.367 0 64.139-28.772 64.139-64.137z" fill="#57a4ff"></path><path d="M509.421 366.348c0-55.14-44.859-100-100-100-28.619 0-55.206 12.071-73.879 32.602 26.098 21.11 43.814 52.191 47.288 87.398h126.591v-20zM173.879 298.95c-18.673-20.53-45.26-32.602-73.879-32.602-55.14 0-100 44.86-100 100v20h126.59c3.475-35.207 21.191-66.288 47.289-87.398zM100 251.348V123.073c-35.366 0-64.138 28.772-64.138 64.138S64.634 251.348 100 251.348z" fill="#9bc9ff"></path><path d="M164.138 187.211c0-35.366-28.772-64.138-64.138-64.138v128.275c35.366 0 64.138-28.772 64.138-64.137z" fill="#57a4ff"></path><path d="M335.542 298.95c-22.114-17.888-50.242-28.619-80.832-28.619v148.76h128.75v-20c0-4.3-.216-8.55-.63-12.742-3.474-35.208-21.19-66.289-47.288-87.399zM334.71 170.331c0-44.11-35.89-80-80-80v160c44.11 0 80-35.88 80-80z" fill="#003f8a"></path><path d="M173.879 298.95c-26.098 21.11-43.814 52.191-47.289 87.398-.414 4.193-.63 8.443-.63 12.742v20h128.75V270.33c-30.589.001-58.717 10.732-80.831 28.62zM254.71 250.331v-160c-44.11 0-80 35.89-80 80 0 44.12 35.89 80 80 80z" fill="#005ece"></path></g></svg>