<svg viewBox="0 0 511 512" xmlns="http://www.w3.org/2000/svg"><g><path d="M150.57 0C53.465 44.137 18.156 8.828 18.156 8.828c0 26.899 56.309 110.09 83.156 148.223a95.814 95.814 0 0 1 40.43-42.293 64.04 64.04 0 0 0 19.817-19.059C155.44 58.402 150.57 0 150.57 0zm0 0" fill="#5dc382"></path><path d="M47.285 74.754C22.047 63.734.5 52.964.5 52.964a154.483 154.483 0 0 0 8.828 44.138c6.18 18.636 56.09 54.734 85.133 74.496a43.327 43.327 0 0 1 3.14-3.875 68.734 68.734 0 0 1 3.712-10.672c-14.047-19.95-36.106-52.207-54.028-82.297zm0 0" fill="#23b972"></path><path d="M39.871 131.027a393.879 393.879 0 0 1 13.594 63.18 162.657 162.657 0 0 1 29.344 2.977 74.861 74.861 0 0 1 11.644-25.602c-15.539-10.566-36.996-25.812-54.582-40.555zm0 0" fill="#5d9069"></path><path d="M406.57 229.516a186.404 186.404 0 0 0-68.246 1.707l-2.375 7.12A484.495 484.495 0 0 0 281.641 292c46.742 7.563 134.222 78.758 142.582 78.758h26.484c0-26.48 35.309-132.414 35.309-132.414a450.227 450.227 0 0 1-79.446-8.828zm0 0" fill="#5dc382"></path><path d="M423.086 370.387c-12.473-3.89-96.063-71.043-141.445-78.387l.406-.434a67.37 67.37 0 0 1-20.7 16.32l83.43 133.493s79.446-17.656 97.102-44.137zm0 0" fill="#23b972"></path><path d="M263.563 306.934c-.793.355-1.5.707-2.208.972l3.797 6.004 25.332 40.516-7.5 7.504-44.14 35.312-2.559 5.207a188.363 188.363 0 0 0-11.21 27.278 177.822 177.822 0 0 1-10.77 25.335l-23.57 47.141A17.66 17.66 0 0 1 174.933 512H40.488a17.657 17.657 0 0 1-15.336-8.977 17.65 17.65 0 0 1 .243-17.77l61.437-102.487c23.473-39.442 24.645-88.278 3.09-128.797a69.644 69.644 0 0 1-9.973-33.278 77.34 77.34 0 0 1 17.653-52.968c8.828-35.309 44.14-52.965 44.14-52.965a77.068 77.068 0 0 0 24.274-25.336 15.867 15.867 0 0 1 7.504-6.18 17.66 17.66 0 0 1 19.773 3.621l1.59 1.59 17.48 11.563a20.048 20.048 0 0 1 8.828 16.597v6.973l.618-.617a16.095 16.095 0 0 1 18.625-3L256.41 128a15.988 15.988 0 0 1 8.918 14.39v7.68l14.652 7.325c11.852 5.917 17.54 19.66 13.332 32.222l-1.503 4.59 10.949 3.621a39.716 39.716 0 0 1 22.863 19.86l10.328 20.656a474.695 474.695 0 0 0-54.289 53.672 81.889 81.889 0 0 1-18.097 14.918zm0 0" fill="#fedebb"></path><g fill="#f5a585"><path d="M265.152 313.91a8.501 8.501 0 0 1-3.62 5.649 8.75 8.75 0 0 1-5.032 1.59 8.935 8.935 0 0 1-7.238-3.797c-27.453-39.282-95.426-107.43-96.133-108.051a8.83 8.83 0 0 1-1.59-10.238 34.333 34.333 0 0 0 0-27.368 8.825 8.825 0 0 1 3.004-11.297c37.34-24.984 30.809-52.613 18.977-77.156a17.66 17.66 0 0 1 19.773 3.621l1.59 1.59c8.12 22.332 11.742 54.996-24.895 82.625a51.782 51.782 0 0 1-.175 29.926c15.449 15.625 68.945 70.71 93.75 105.93.085.09.085.18.175.265a8.848 8.848 0 0 1 1.414 6.711zm0 0" fill="#f5a585"></path><path d="M177.05 220.691a8.829 8.829 0 0 1-8.827-8.828c0-28.496 41.093-86.847 45.78-93.406a8.83 8.83 0 0 1 14.371 10.258c-16.429 23.015-42.495 65.933-42.495 83.148a8.829 8.829 0 0 1-8.828 8.828zM203.535 247.172a8.828 8.828 0 0 1-3.957-16.727c7.637-3.816 21.48-27.527 31.586-44.843a234.811 234.811 0 0 1 27.914-41.774 8.832 8.832 0 0 1 12.375.106 8.825 8.825 0 0 1 .106 12.375 235.335 235.335 0 0 0-25.149 38.199c-16.543 28.344-27.426 45.972-38.937 51.738a8.825 8.825 0 0 1-3.938.926zM238.844 291.309c-4.875 0-8.828-3.95-8.828-8.825 0-19.421 17.18-56.144 55.554-94.52a8.828 8.828 0 0 1 12.48 12.484c-32.722 32.724-50.378 66.693-50.378 82.036 0 4.875-3.953 8.825-8.828 8.825zM256.5 317.793a8.829 8.829 0 0 1 0-17.656c5.977 0 20.031-15.332 31.32-27.664a323.717 323.717 0 0 1 42.832-41.192 8.829 8.829 0 0 1 10.594 14.125 309.258 309.258 0 0 0-40.406 39c-17.762 19.38-30.594 33.387-44.34 33.387zM203.535 388.414a8.826 8.826 0 0 1-7.945-4.883c-15.45-30.894-55.242-39.351-55.613-39.433-4.657-1.07-7.614-5.657-6.672-10.34a8.83 8.83 0 0 1 10.148-6.961c1.977.39 48.55 10.117 67.973 48.844a8.823 8.823 0 0 1-.387 8.586 8.819 8.819 0 0 1-7.504 4.187zm0 0" fill="#f5a585"></path></g></g></svg>