<svg viewBox="0 0 512 512" xmlns="http://www.w3.org/2000/svg"><g><path d="M496.527 24.571H15.473C6.927 24.571 0 31.498 0 40.044v328.219c0 8.545 6.927 15.473 15.473 15.473h53.204a8.032 8.032 0 0 1 8.032 8.032v87.613c0 7.156 8.652 10.74 13.712 5.68l98.973-98.973a8.033 8.033 0 0 1 5.68-2.353h301.455c8.545 0 15.473-6.927 15.473-15.473V40.044c-.002-8.546-6.929-15.473-15.475-15.473z" fill="#f6f9f9"></path><path d="M496.527 24.571h-25.734v212.25c0 69.759-56.551 126.31-126.311 126.31H0v5.131c0 8.545 6.927 15.473 15.473 15.473h53.204a8.032 8.032 0 0 1 8.032 8.032v87.614c0 7.156 8.652 10.74 13.712 5.68l98.972-98.972a8.035 8.035 0 0 1 5.68-2.353h301.455c8.545 0 15.473-6.927 15.473-15.473V40.044c-.001-8.546-6.928-15.473-15.474-15.473z" fill="#dddaec"></path><g fill="#75cef9"><path d="M161.605 109.255c-.803 0-1.454.651-1.454 1.454v95.916c0 .803.651 1.454 1.454 1.454h34.966c.803 0 1.454.651 1.454 1.454v32.578c0 13.374-10.842 24.215-24.215 24.215h-12.205c-.803 0-1.454.651-1.454 1.454v29.815c0 .803.651 1.454 1.454 1.454h15.477c29.639 0 53.666-24.027 53.666-53.666V110.71c0-.803-.651-1.454-1.454-1.454h-67.689zM277.555 109.255c-.803 0-1.454.651-1.454 1.454v95.916c0 .803.651 1.454 1.454 1.454h34.966c.803 0 1.454.651 1.454 1.454v32.578c0 13.374-10.842 24.215-24.215 24.215h-12.205c-.803 0-1.454.651-1.454 1.454v29.815c0 .803.651 1.454 1.454 1.454h15.477c29.639 0 53.666-24.027 53.666-53.666V110.71c0-.803-.651-1.454-1.454-1.454h-67.689z" fill="#75cef9"></path></g></g></svg>