<svg viewBox="0 0 511.998 511.998" xmlns="http://www.w3.org/2000/svg"><g><path d="M255.999 264.204 55.998 365.957v113.135H456V365.957z" fill="#ffbeaa"></path><path d="M456 365.957 255.999 264.204v214.888H456z" fill="#ffa099"></path><path d="M493.823 206.109C469.079 163.371 456 114.313 456 64.239V32.906H55.998v31.333c0 50.074-13.079 99.132-37.824 141.871C6.13 226.913-.153 250.685.003 274.858c.228 35.245 14.486 68.8 40.146 94.481 25.661 25.683 59.204 39.968 94.45 40.225l1.005.003c52.104 0 97.724-29.563 120.395-73.156 22.67 43.593 68.291 73.155 120.394 73.156l1.006-.003c35.246-.257 68.788-14.542 94.449-40.225 25.661-25.682 39.918-59.236 40.146-94.481.157-24.173-6.126-47.945-18.171-68.749z" fill="#ffdecf"></path><path d="M493.823 206.109C469.079 163.371 456 114.313 456 64.239V32.906H255.999v303.506-.001c22.67 43.593 68.291 73.155 120.394 73.156l1.006-.003c35.246-.257 68.788-14.542 94.449-40.225 25.661-25.682 39.918-59.236 40.146-94.481.157-24.173-6.126-47.945-18.171-68.749z" fill="#ffbeaa"></path><path d="M399.228 227.188c-24.504 0-44.438 19.936-44.438 44.439s19.935 44.439 44.438 44.439 44.439-19.936 44.439-44.439-19.935-44.439-44.439-44.439z" fill="#ffa099"></path><circle cx="112.769" cy="271.628" fill="#ffa099" r="44.439" transform="rotate(-9.25 112.72 271.996)"></circle><path d="M399.228 227.188c-24.504 0-44.438 19.936-44.438 44.439s19.935 44.439 44.438 44.439 44.439-19.936 44.439-44.439-19.935-44.439-44.439-44.439z" fill="#ff7b81"></path></g></svg>