<svg viewBox="0 0 512 512" xmlns="http://www.w3.org/2000/svg"><g><path d="M119.228 261.694c66.122-.46 120.66 53.451 120.932 119.573.075 18.153-3.881 35.373-11.021 50.82a14.472 14.472 0 0 0-.857 9.821l15.233 56.852c1.346 5.023-3.25 9.618-8.273 8.273l-58.265-15.612a14.457 14.457 0 0 0-9.46.695c-15.304 6.588-32.25 10.087-50.056 9.708C52.187 500.435-.404 446.3.002 381.009c.409-65.683 53.554-118.858 119.226-119.315z" fill="#ffa4d1"></path><path d="m243.517 498.761-15.233-56.852a14.472 14.472 0 0 1 .857-9.821c7.139-15.447 11.095-32.668 11.02-50.82-.182-44.396-24.829-83.286-61.019-103.911 18.042 22.329 28.854 50.744 28.854 81.687 0 71.841-58.239 130.079-130.079 130.079-4.282 0-8.513-.213-12.688-.617a118.793 118.793 0 0 0 52.236 13.319c17.805.379 34.752-3.12 50.056-9.709a14.457 14.457 0 0 1 9.46-.695l58.265 15.612c5.021 1.346 9.617-3.25 8.271-8.272z" fill="#ff7bba"></path><path d="M123.147 31.843c53.313-.371 97.286 43.096 97.505 96.409.06 14.636-3.129 28.52-8.886 40.975a11.671 11.671 0 0 0-.691 7.918l12.282 45.839c1.085 4.05-2.62 7.755-6.67 6.67l-46.977-12.588a11.65 11.65 0 0 0-7.628.561c-12.339 5.312-26.003 8.133-40.359 7.828-52.632-1.12-95.034-44.768-94.707-97.411.332-52.959 43.181-95.833 96.131-96.201z" fill="#00d1fd"></path><path d="m223.359 222.984-12.282-45.839a11.671 11.671 0 0 1 .691-7.918c5.756-12.455 8.946-26.339 8.886-40.975-.158-38.429-23.051-71.739-55.787-87.206 16.943 18.41 27.294 42.983 27.294 69.975 0 57.088-46.279 103.368-103.367 103.368-3.674 0-7.301-.195-10.876-.569a95.8 95.8 0 0 0 43.809 11.635c14.356.305 28.02-2.516 40.359-7.828a11.656 11.656 0 0 1 7.628-.56l46.977 12.588c4.047 1.084 7.753-2.621 6.668-6.671z" fill="#00c1fc"></path><path d="M357.512 4.732c-48.471-.337-88.45 39.182-88.65 87.654-.055 13.307 2.845 25.93 8.079 37.254a10.61 10.61 0 0 1 .628 7.199l-11.167 41.675c-.987 3.682 2.382 7.051 6.064 6.064l42.711-11.444a10.598 10.598 0 0 1 6.935.51c11.218 4.83 23.641 7.395 36.693 7.117 47.852-1.019 86.403-40.702 86.105-88.564-.299-48.151-39.257-87.131-87.398-87.465z" fill="#00d8a2"></path><path d="M411.127 23.425c6.392 12.194 10.014 26.069 10.016 40.792.008 48.132-38.027 87.02-86.149 88.022a88.254 88.254 0 0 1-25.211-3.107 66.595 66.595 0 0 0-34.853-.105l-.677.181-7.853 29.306c-.987 3.682 2.383 7.051 6.064 6.064l42.711-11.444a10.598 10.598 0 0 1 6.935.51c11.217 4.829 23.639 7.394 36.69 7.117 48.076-1.021 86.073-39.849 86.111-87.936.023-28.182-13.2-53.274-33.784-69.4z" fill="#00c4a4"></path><path d="M174.186 359.044h-21.633a5.618 5.618 0 0 1-5.618-5.618v-11.272a20.416 20.416 0 0 0-7.707-15.978l-2.847-2.265c-3.987-3.171-9.849-2.125-12.486 2.234a3095.132 3095.132 0 0 1-10.279 16.856c-11.107 18.1-20.568 18.1-20.568 18.1l-10.302 34.86 10.302 34.247h71.157a17.96 17.96 0 0 0 17.282-13.067l9.981-35.24c3.248-11.466-5.365-22.857-17.282-22.857z" fill="#f7ebeb"></path><path d="M85.638 439.014H67.154a9.47 9.47 0 0 1-9.47-9.47v-71.647a9.47 9.47 0 0 1 9.47-9.47h18.484a9.47 9.47 0 0 1 9.47 9.47v71.647a9.47 9.47 0 0 1-9.47 9.47z" fill="#00a8ff"></path><path d="M174.186 359.044H160.21c5.227 4.601 7.889 12.231 5.844 19.895l-9.981 37.4c-2.19 8.205-9.247 13.868-17.282 13.868h25.415a17.962 17.962 0 0 0 17.282-13.067l9.981-35.24c3.247-11.465-5.366-22.856-17.283-22.856z" fill="#f2e1e1"></path><path d="M147.454 92.407c-9.173 0-17.364 4.193-22.769 10.764a1.93 1.93 0 0 1-2.986 0c-5.406-6.571-13.596-10.764-22.769-10.764-16.28 0-29.477 13.197-29.477 29.477 0 16.285 13.558 25.68 25.496 34.137 8.453 5.988 17.128 11.684 25.928 17.153a4.38 4.38 0 0 0 4.611.007c8.651-5.328 38.907-24.301 44.709-32.543 3.804-5.404 6.735-11.63 6.735-18.754-.001-16.279-13.198-29.477-29.478-29.477z" fill="#ff7bba"></path><path d="M398.001 213.254c-63.222-.439-115.369 51.106-115.629 114.329-.071 17.357 3.711 33.821 10.537 48.592a13.837 13.837 0 0 1 .819 9.39l-14.565 54.359c-1.287 4.802 3.108 9.197 7.91 7.91l55.709-14.927a13.82 13.82 0 0 1 9.045.665c14.632 6.299 30.836 9.645 47.86 9.283 62.414-1.328 112.698-53.09 112.31-115.517-.39-62.805-51.204-113.647-113.996-114.084z" fill="#ffd250"></path><path d="M467.933 237.636c8.338 15.905 13.061 34.003 13.065 53.206.011 62.781-49.6 113.503-112.367 114.81-11.405.237-22.441-1.189-32.883-4.053a86.85 86.85 0 0 0-45.459-.137l-.883.237-10.243 38.225c-1.287 4.802 3.108 9.197 7.91 7.91l55.709-14.927a13.824 13.824 0 0 1 9.046.665c14.631 6.299 30.833 9.644 47.856 9.283C462.39 441.522 511.952 390.877 512 328.156c.028-36.758-17.219-69.486-44.067-90.52z" fill="#ffc433"></path><path d="M442.292 353.448c.933-11.148-.949-22.348-4.063-32.763-7.304-24.423-24.821-44.793-48.291-55.003l-.111-.048c-2.982-1.294-5.768 2.12-3.951 4.815 15.442 22.909 6.228 49.72-7.278 51.378-8.254 1.013-11.058-5.266-11.894-11.244-.415-2.97-4.332-3.797-5.951-1.273-16.458 25.663-11.712 49.375-11.712 49.375 3.012 23.063 22.735 37.274 46.62 37.274 17.875 0 33.541-6.937 41.407-22.886 3.032-6.15 4.653-12.811 5.224-19.625z" fill="#ff7bba"></path><g fill="#fff5f5"><circle cx="325.214" cy="93.345" fill="#fff5f5" r="7.726"></circle><circle cx="359.484" cy="93.345" fill="#fff5f5" r="7.726"></circle><circle cx="393.753" cy="93.345" fill="#fff5f5" r="7.726"></circle></g></g></svg>