<svg viewBox="0 0 512 512" xmlns="http://www.w3.org/2000/svg"><g><path d="M512 221.27c0 47.375-114.613 85.785-256 85.785-29.027 0-56.926-1.618-82.934-4.598C72.38 290.902 0 258.918 0 221.27c0-28.946 42.77-54.532 108.281-70.07h295.426C469.223 166.737 512 192.323 512 221.27zm0 0" fill="#f0c398"></path><path d="m173.086 302.45-.02.007C72.38 290.902 0 258.918 0 221.27c0-28.946 42.77-54.532 108.281-70.07h51.235c4.972 12.6 2.84 21.796-11.086 24.46-60.594 11.567-68.086 117.102 24.656 126.79zm0 0" fill="#d89d6c"></path><path d="M255.996 213.102c86.473 0 148.422-36.086 148.422-36.086C404.418 115.742 390.926 0 340.328 0c-50.601 0-47.906 46.297-84.332 46.297C219.574 46.297 222.266 0 171.668 0c-50.602 0-64.094 115.742-64.094 177.016 0 0 61.95 36.086 148.422 36.086zm0 0" fill="#f0c398"></path><path d="M211.805 15.426c-60.059 60.054-52.48 152.058-38.664 186.816-40.5-10.625-65.567-25.222-65.567-25.222 0-61.274 13.489-177.016 64.082-177.016 19.574 0 31.172 6.926 40.149 15.422zm0 0" fill="#d89d6c"></path><path d="M404.418 177.016s-61.941 36.082-148.414 36.082c-86.477 0-148.418-36.082-148.418-36.082 0-16.04.93-35.809 3.195-56.254 13.742 7.218 70.27 34.324 145.223 34.324 74.937 0 131.469-27.106 145.207-34.336h.012c2.265 20.457 3.195 40.227 3.195 56.266zm0 0" fill="#515a5e"></path><path d="M110.742 121.047c-2.25 20.344-3.168 40.008-3.168 55.969 0 0 25.067 14.597 65.567 25.226-5.332-13.418-9.73-35.363-9.676-60.707-26.836-7.898-45.543-17.023-52.684-20.777-.008.094-.027.195-.039.289zm0 0" fill="#343c3f"></path></g></svg>