<svg viewBox="0 0 512 512" xmlns="http://www.w3.org/2000/svg"><g><g fill="#08475e"><path d="M47.133 385.6C21.049 385.6 0 406.702 0 432.733V497c0 8.284 6.716 15 15 15s15-6.716 15-15v-17.134h34.267V497c0 8.284 6.716 15 15 15s15-6.716 15-15v-64.267c0-26.085-21.107-47.133-47.134-47.133zM30 449.866v-17.133c0-9.499 7.685-17.134 17.133-17.134 9.461 0 17.134 7.646 17.134 17.134v17.133zM168.276 482h-17.134v-81.4c0-8.284-6.716-15-15-15s-15 6.716-15 15V497c0 8.284 6.716 15 15 15h32.134c8.284 0 15-6.716 15-15s-6.715-15-15-15zM248.609 482h-17.134v-81.4c0-8.284-6.716-15-15-15s-15 6.716-15 15V497c0 8.284 6.716 15 15 15h32.134c8.284 0 15-6.716 15-15s-6.715-15-15-15z" fill="#08475e"></path></g><path d="M299.779 507.618a15 15 0 0 1-4.079-13.661l32.134-154.493a14.998 14.998 0 0 1 25.293-7.551l27.359 27.366c24.12-28.971 37.247-65.113 37.247-103.273 0-89.182-72.554-161.737-161.733-161.737S94.267 166.824 94.267 256.006c0 25.877 5.938 50.607 17.65 73.504a15.002 15.002 0 0 1-13.355 21.832H28.737a15 15 0 0 1-14.14-9.994C4.911 313.985 0 285.272 0 256.006 0 114.843 114.841 0 256 0s256 114.843 256 256.006c0 29.612-5.405 103.532-64.682 170.108l28.155 28.156a15 15 0 0 1-7.551 25.293L313.44 511.697c-1.848.385-8.31 1.272-13.661-4.079z" fill="#00c5f3"></path><path d="M256 0c141.159 0 256 114.843 256 256.006 0 29.612-5.405 103.532-64.682 170.108l28.155 28.156a15 15 0 0 1-7.551 25.293L313.44 511.697c-1.849.384-8.31 1.272-13.661-4.079a15 15 0 0 1-4.079-13.661l32.134-154.493a14.998 14.998 0 0 1 25.293-7.551l27.359 27.366c24.12-28.971 37.247-65.113 37.247-103.273 0-89.182-72.554-161.737-161.733-161.737z" fill="#00a8ed"></path></g></svg>