<svg viewBox="0 0 512 512" xmlns="http://www.w3.org/2000/svg"><g><path d="M492.266 265.867C492.266 401.801 382.07 512 246.133 512 110.199 512 0 401.8 0 265.867 0 129.93 110.2 19.734 246.133 19.734c135.937 0 246.133 110.196 246.133 246.133Zm0 0" fill="#ffbc1a"></path><path d="M245.559 12.21c-73.473.423-132.371 61.138-132.371 134.61v154.2c0 6.351 3.992 12.02 9.976 14.152 17.715 3.781 101.043 51.703 210.852 12.621l36.257-12.902a13.857 13.857 0 0 0 9.211-13.055v-156.48c0-73.68-60.152-133.57-133.925-133.145Zm0 0" fill="#b46156"></path><path d="M278.398 16.113a133.133 133.133 0 0 0-32.84-3.902c-73.472.422-132.37 61.137-132.37 134.61V301.02c0 6.351 3.992 12.02 9.976 14.152 29.29 10.238 38.066 14.121 53.988 18.469v-.004a262.295 262.295 0 0 0 28.309 6.093v-28.875c-14.39-5.285-24.188-14.742-28.309-19.3V146.82c0-62.738 42.95-116.168 101.246-130.707Zm0 0" fill="#a5534c"></path><path d="M202.883 309.98v28.856l.191-.129 17.399 39.352 6.875 16.171h37.976l24.168-55.523v-28.352c-26.387 12.239-58.238 13.176-86.61-.375Zm0 0" fill="#f9a38c"></path><path d="M232.68 318.898a100.737 100.737 0 0 1-29.797-8.918v28.852l.191-.129 17.403 39.356 6.87 16.171h5.333Zm0 0" fill="#f78f6d"></path><path d="M246.133 512c69.902 0 132.992-29.14 177.797-75.934a78466.202 78466.202 0 0 0-4.84-24.296c-4.61-23.102-21.582-32.493-30.934-35.985a335802.757 335802.757 0 0 1-71.883-21.203c-3.488 9.785-12.191 34.176-18 50.45-1.914 5.363-8.468 7.355-13.043 3.96l-19.906-14.762h-37.976l-.157-.12.051.12-19.906 14.762c-4.574 3.395-11.129 1.403-13.043-3.96l-18-50.45c-3.844 1.137-64.961 19.106-65.785 19.348-2.211.652-6.57 1.941-6.29 1.855-9.35 3.488-26.323 12.883-30.933 35.985 0 0-2.043 10.289-4.847 24.398C113.237 482.898 176.284 512 246.132 512Zm0 0" fill="#6ed2f9"></path><path d="M246.156 394.23h-18.808l-.157-.12.047.12-19.902 14.762c-4.574 3.395-11.129 1.403-13.043-3.96l-18.004-50.45c-3.84 1.133-64.957 19.106-65.785 19.348-2.207.652-6.567 1.937-6.29 1.855-9.347 3.488-26.32 12.883-30.933 35.98 0 0-2.039 10.29-4.844 24.403C113.239 482.898 176.286 512 246.133 512c4.691 0 9.351-.145 13.98-.406V408.188c0-7.708-6.25-13.958-13.957-13.958Zm0 0" fill="#50b7ea"></path><path d="M110.504 373.93c-2.207.652-6.567 1.937-6.29 1.855-9.347 3.488-26.32 12.883-30.933 35.985 0 0-2.039 10.285-4.844 24.398a247.51 247.51 0 0 0 26.372 23.82c3.312-26.664 6.816-58.062 6.816-58.062 3.445-17.258 13.79-26.86 22.7-32.074-7.91 2.336-13.571 4.007-13.821 4.078ZM289.492 336.469l-24.168 57.761 19.903 14.762c4.578 3.395 11.132 1.403 13.046-3.965l18-50.445ZM202.883 336.469l24.355 57.761-19.902 14.762c-4.574 3.395-11.129 1.403-13.043-3.965l-18.004-50.445Zm0 0" fill="#309edf"></path><path d="M344.328 162.7v47.976c16.953 1.746 30.977-9.895 30.977-23.988 0-14.16-14.11-25.727-30.977-23.989Zm0 0" fill="#f9a38c"></path><path d="M344.328 189.355v21.32c16.957 1.747 30.977-9.898 30.977-23.988 0-3.828-1.024-7.445-2.84-10.66-4.985 8.825-15.945 14.582-28.137 13.328Zm0 0" fill="#f78f6d"></path><path d="M299.852 122.832c-1.809-3.68-6.739-4.367-9.512-1.352-20.664 22.48-68.875 65.875-137.774 72.317-5.035.473-8.898 4.68-8.898 9.738v14.817c0 58.835 48.766 106.757 107.535 104.015 54.442-2.539 97.8-47.476 97.8-102.555v-57.28c-26.835-6.446-42.937-27.067-49.151-39.7Zm0 0" fill="#fcb7a9"></path><path d="m262.645 321.188.003-.004c-48.949-7.813-86.359-50.215-86.359-101.372V190.02a190.27 190.27 0 0 1-23.723 3.777c-5.035.473-8.898 4.68-8.898 9.738.152 17.848-1.637 37.477 11.875 63.285 20.129 38.512 62.39 61.5 107.102 54.368Zm0 0" fill="#f9a38c"></path><path d="M247.477 429.332a9.25 9.25 0 0 1-9.25 9.25 9.25 9.25 0 0 1-9.25-9.25 9.25 9.25 0 0 1 9.25-9.25 9.25 9.25 0 0 1 9.25 9.25ZM247.477 482.8a9.25 9.25 0 0 1-9.25 9.25 9.25 9.25 0 0 1-9.25-9.25 9.25 9.25 0 0 1 9.25-9.25 9.25 9.25 0 0 1 9.25 9.25Zm0 0" fill="#dee9fc"></path><path d="M327.867 457.309h-37.394a5.061 5.061 0 0 0-5.063 5.062v9.16a5.061 5.061 0 0 0 5.063 5.063h37.394a5.061 5.061 0 0 0 5.063-5.063v-9.16a5.061 5.061 0 0 0-5.063-5.062Zm0 0" fill="#50b7ea"></path><path d="M309.168 471.531v-9.16a5.067 5.067 0 0 1 5.062-5.066h-23.757a5.065 5.065 0 0 0-5.063 5.066v9.16a5.061 5.061 0 0 0 5.063 5.063h23.761a5.065 5.065 0 0 1-5.066-5.063Zm0 0" fill="#309edf"></path><path d="M351.816 0H143.184c-4.98 0-8.618 4.707-7.36 9.523l15.594 63.872a7.606 7.606 0 0 0 7.36 5.69h177.445c3.46 0 6.488-2.339 7.359-5.69l15.594-63.872C360.43 4.707 356.796 0 351.816 0Zm0 0" fill="#dee9fc"></path><path d="M361.824 445.055a7.497 7.497 0 0 0-7.5 7.5v34.437a246.832 246.832 0 0 0 15-8v-26.437a7.5 7.5 0 0 0-7.5-7.5Zm0 0" fill="#50b7ea"></path><path d="M137.941 486.992v-34.437c0-4.145-3.355-7.5-7.5-7.5a7.5 7.5 0 0 0-7.5 7.5v26.433a244.722 244.722 0 0 0 15 8.004Zm0 0" fill="#309edf"></path><path d="m343.582 73.395 15.594-63.872C360.43 4.707 356.796 0 351.816 0H269.41s46.121 12.46 66.813 79.086c3.46 0 6.488-2.34 7.359-5.691Zm0 0" fill="#b5c9f4"></path><path d="M287.105 0H269.41s46.121 12.46 66.813 79.086c3.46 0 6.488-2.34 7.359-5.691l7.395-30.278C324.332 4.031 287.105 0 287.105 0Zm0 0" fill="#9ab0e3"></path><path d="M267.555 32.043h-11.328c-.676 0-1.227-.55-1.227-1.227V19.488c0-.68-.55-1.226-1.227-1.226h-12.546c-.676 0-1.227.547-1.227 1.226v11.328c0 .676-.55 1.227-1.227 1.227h-11.328c-.675 0-1.226.547-1.226 1.227v12.546c0 .676.55 1.227 1.226 1.227h11.328c.676 0 1.227.547 1.227 1.227v11.328c0 .675.55 1.226 1.227 1.226h12.546c.676 0 1.227-.55 1.227-1.226V48.27c0-.68.55-1.227 1.227-1.227h11.328c.675 0 1.226-.55 1.226-1.227V33.27c0-.68-.55-1.227-1.226-1.227Zm0 0" fill="#f2164a"></path><path d="M178.266 35.719c0-13.407 4.433-25.774 11.914-35.719h-46.996c-4.98 0-8.618 4.707-7.36 9.523l15.594 63.872a7.606 7.606 0 0 0 7.36 5.69h38.269c-11.555-10.855-18.781-26.26-18.781-43.366Zm0 0" fill="#cad9f8"></path><path d="M247.5 57.094V21.992c0-1.637.965-3.047 2.344-3.73h-8.617c-.676 0-1.227.547-1.227 1.226v11.328c0 .676-.547 1.227-1.227 1.227h-11.328c-.675 0-1.226.547-1.226 1.227v12.546c0 .676.55 1.227 1.226 1.227h11.328c.68 0 1.227.547 1.227 1.227v11.328c0 .675.55 1.226 1.227 1.226h8.617c-1.38-.683-2.344-2.094-2.344-3.73Zm0 0" fill="#dc0b3d"></path></g></svg>