<svg viewBox="0 0 512 512" xmlns="http://www.w3.org/2000/svg"><g><path d="m256 392-30 60 30 60c33.137 0 60-26.863 60-60s-26.863-60-60-60z" fill="#0a77e8"></path><path d="M196 452c0 33.137 26.863 60 60 60V392c-33.137 0-60 26.863-60 60z" fill="#0f9af0"></path><path d="m256 0-60 60 60 60c19.851 0 36 16.149 36 36 0 10.578-4.643 20.59-12.74 27.471L256 203.246l-40 79.377L256 362h60v-52.258l40.976-34.837C391.944 245.191 412 201.853 412 156 412 69.981 342.019 0 256 0z" fill="#0a77e8"></path><g fill="#0f9af0"><path d="M196 254.258V362h60V203.246zM100 156v15h120v-15c0-19.851 16.149-36 36-36V0c-86.019 0-156 69.981-156 156z" fill="#0f9af0"></path></g></g></svg>