<svg viewBox="0 0 512 512" xmlns="http://www.w3.org/2000/svg"><g><g fill="#ffe07d"><path d="m81.977 359.487 70.535 70.536 6.866 31.017-20.875 13.863L37.097 373.497l10.741-25.366zM190.575 220.018l101.407 101.407-12.91 20.962-31.96-6.953v-.01l-70.536-70.536h-.01l-13.024-26.756zM335.425 247.111h.011l7.473 30.615-21.493 14.254L220.02 190.584l11.056-19.238 33.813 5.218v.011zM373.498 37.106l101.396 101.396-14.72 23.304-30.149-9.295-70.536-70.536-11.376-27.026z" fill="#ffe07d"></path></g><path d="M504.807 138.981c9.188 9.176 8.097 24.573-2.904 32.338-40.144 27.987-85.336 26.229-128.291 19.38l-19.949-18.658 11.872-25.576c39.591 7.251 79.542 12.948 112.366-9.961 8.359-5.808 19.714-4.726 26.906 2.477z" fill="#f37c7c"></path><path d="m161.547 342.647-15.092 22.898c-22.96-4.215-44.495-7.431-64.478-6.058-17.491 1.207-33.366 5.926-47.877 16.008-8.358 5.808-19.713 4.725-26.915-2.477-9.326-9.315-7.9-24.792 2.904-32.328 40.155-27.998 85.336-26.239 128.301-19.38zM373.613 190.699c7.962 49.938 9.055 102.884-35.492 147.431-44.536 44.536-97.483 43.454-147.431 35.481l-17.954-18.735 9.888-25.5c22.96 4.215 44.516 7.431 64.489 6.058 15.987-1.114 30.975-5.162 44.869-14.009 11.271-7.186 22.034-17.804 29.434-29.445 8.857-13.895 12.906-28.883 14.02-44.869 1.374-19.973-1.842-41.528-6.058-64.489l-29.143-21.987 21.066-22.247c-6.849-42.954-8.608-88.147 19.38-128.291C348.442-.898 363.838-2 373.019 7.193c7.202 7.192 8.285 18.547 2.477 26.905-30.12 43.157-11.151 98.438-1.883 156.601z" fill="#80b4fb"></path><path d="M329.378 182.622c-48.369-8.88-90.988-13.531-125.637 21.118-17.193 17.193-25.493 36.997-27.176 61.148-4.811 69.937 47.304 161.643-5.256 237.025-7.535 10.804-23.012 12.23-32.328 2.904-7.202-7.202-8.285-18.558-2.477-26.915 10.083-14.513 14.801-30.388 16.008-47.877 5.194-75.556-56.682-178.105 21.357-256.144 44.547-44.547 97.493-43.454 147.431-35.492 2.191 13.739 5.121 28.307 8.078 44.233z" fill="#f37c7c"></path></g></svg>