<svg viewBox="0 0 512 512" xmlns="http://www.w3.org/2000/svg"><g><circle cx="256" cy="256" fill="#ffd93b" r="256"></circle><path d="M512 256c0 141.44-114.64 256-256 256-80.48 0-152.32-37.12-199.28-95.28 43.92 35.52 99.84 56.72 160.72 56.72 141.36 0 256-114.56 256-256 0-60.88-21.2-116.8-56.72-160.72C474.8 103.68 512 175.52 512 256z" fill="#f4c534"></path><path d="M155.152 72.928s-52.016-7.312-106.624 55.904c0 0 35.312-113.248 106.624-55.904zM356.848 72.928s52.016-7.312 106.624 55.904c0 0-35.312-113.248-106.624-55.904z" fill="#3e4347"></path><circle cx="151.28" cy="212.8" fill="#f4c534" r="94.16"></circle><circle cx="151.28" cy="212.8" fill="#ffffff" r="77.072"></circle><path d="M101.84 187.504c0 21.472 17.456 38.736 38.928 38.736s38.928-17.28 38.928-38.736c0-21.472-17.456-38.928-38.928-38.928s-38.928 17.456-38.928 38.928z" fill="#3e4347"></path><ellipse cx="125.957" cy="172.661" fill="#ffffff" rx="7.488" ry="12.416" transform="rotate(-134.999 125.957 172.662)"></ellipse><circle cx="360.72" cy="212.72" fill="#f4c534" r="94.16"></circle><circle cx="360.72" cy="212.72" fill="#ffffff" r="77.072"></circle><path d="M400.08 238c0-21.472-17.456-38.736-38.928-38.736-21.472 0-38.928 17.28-38.928 38.736s17.456 38.928 38.928 38.928S400.08 259.472 400.08 238z" fill="#3e4347"></path><ellipse cx="375.936" cy="252.864" fill="#ffffff" rx="7.488" ry="12.416" transform="rotate(-134.999 375.938 252.866)"></ellipse><path d="M111.92 403.504c9.216-18.272 35.408-38.496 50.336-23.664 7.456 6.368 11.6 15.664 17.824 17.728 6.448 2.064 11.152-1.984 16.944-11.44 12.896-17.792 27.584-17.872 39.36-8.464 5.488 4.976 8.208 10.016 11.312 13.712 10.768 14.48 15.856-2.064 27.856-13.808 11.28-9.552 26.256-9.056 39.344 8.624 5.936 9.472 10.24 13.392 16.928 11.328 6.24-2.064 10.368-11.376 17.856-17.728 16.544-14.368 41.136 5.392 50.384 23.712-10.352-11.904-33.44-29.712-44.064-18-5.504 4.64-6.768 14.352-19.168 21.408-5.728 2.8-13.84 2.992-21.328-1.088-6.24-3.824-9.312-8.912-12.416-12.8-7.2-10.016-11.92-9.104-16.784-5.584-7.536 6.656-7.04 12.816-17.392 19.52-8.448 6.16-24 5.552-33.968-7.408-3.824-4.944-6.528-9.552-9.376-12.08-1.232-1.168-3.072-1.936-3.2-2.064-4.32-.688-7.184-1.136-13.584 7.536-9.328 11.776-17.84 20.656-33.648 14-12.464-7.024-13.712-16.752-19.216-21.424-10.448-11.856-33.696 6.08-44 17.984z" fill="#3e4347"></path></g></svg>