<svg viewBox="0 0 512 512" xmlns="http://www.w3.org/2000/svg"><g><path d="M207.8 463.8H15c-8.284 0-15-6.716-15-15s6.716-15 15-15h192.8c8.284 0 15 6.716 15 15s-6.716 15-15 15z" fill="#006478"></path><path d="M497 463.8H304.2c-8.284 0-15-6.716-15-15s6.716-15 15-15H497c8.284 0 15 6.716 15 15s-6.716 15-15 15z" fill="#003c50"></path><path d="M256 512c-34.849 0-63.2-28.352-63.2-63.2 0-51.759 48.282-132.825 50.338-136.25a15.001 15.001 0 0 1 25.724 0c2.056 3.425 50.338 84.491 50.338 136.25 0 34.848-28.351 63.2-63.2 63.2z" fill="#003c50"></path><path d="M256 512V305.267a15 15 0 0 1 12.862 7.283c2.056 3.425 50.338 84.491 50.338 136.25 0 34.848-28.351 63.2-63.2 63.2z" fill="#001428"></path><path d="m341.333 61.111-170.667 68.267a15 15 0 0 0-9.429 13.927v118.266a9.429 9.429 0 0 0 9.429 9.429h170.667c11.361 0 20.571-9.21 20.571-20.571V75.038c0-10.612-10.718-17.869-20.571-13.927z" fill="#ffe600"></path><path d="M256 271h85.333c11.361 0 20.571-9.21 20.571-20.571V75.038c0-10.612-10.718-17.868-20.571-13.927L256 95.244z" fill="#ffaa32"></path><path d="M15 271h155.667V129.377L9.429 193.872A15 15 0 0 0 0 207.8V256c0 8.284 6.716 15 15 15z" fill="#9bff00"></path><path d="M505.409 2.579a15.002 15.002 0 0 0-13.98-1.506L341.333 61.111V271H497c8.284 0 15-6.716 15-15V15c0-4.978-2.469-9.631-6.591-12.421z" fill="#ff1e5a"></path><path d="M85.333 271h85.334V129.377l-85.334 34.134z" fill="#00d200"></path><path d="M505.409 2.579a15.002 15.002 0 0 0-13.98-1.506l-64.762 25.905V271H497c8.284 0 15-6.716 15-15V15c0-4.978-2.469-9.631-6.591-12.421z" fill="#c40050"></path></g></svg>