<svg viewBox="0 0 512 512" xmlns="http://www.w3.org/2000/svg"><g><g fill-rule="evenodd"><path d="M392.038 170.31c-28.226-9.494-48.314-1.694-60.265 23.399-9.191-11.327-7.436-51.274 38.402-72.538-25.073-7.221-53.738-7.006-71.491 18.474 8.386-34.165-24.109-56.878-38.969-84.278-6.215-11.461-10.466-25.191-8.645-44.419-64.417 52.076-15.532 100.95-13.076 122.838 2.467 21.987-20.41 19.84-35.558 8.368-14.678-11.115-19.138-27.176-13.381-48.183-54.456 38.493 10.359 75.32-17.488 94.287-10.015-21.027-26.849-27.563-50.502-19.607C147.951 197.122 108 246.724 108 303.573c0 73.463 66.262 133.017 148 133.017s148-59.554 148-133.017c0-51.277-39.258-104.359-11.962-133.263z" fill="#e8333c"></path><path d="M349.292 134.39a78.285 78.285 0 0 1 3.413-2.767c-16.25-4.348-33.806-5.402-48.814 1.575a56.307 56.307 0 0 0-3.898 4.647c-.238.641-.6 1.263-1.309 1.801-4.288 5.59-9.208 16.019-12.685 21.011 8.386-34.165-26.647-66.814-41.506-94.213-5.802-10.699-9.892-23.378-8.928-40.662-39.978 46.345.208 88.211 2.429 108.005 4.336 24.421-26.481 37.846-50.781 19.444-13.517-10.236-18.369-24.667-14.554-43.292-16.741 24.949 5.767 48.178 6.188 65.004l.008.019c5.437 21.075-9.341 31.339-11.999 34.472-3.693-17.647-15.347-41.816-45.79-40.781 26.887 28.471-13.065 78.073-13.065 134.922 0 73.463 66.262 133.017 148 133.017 31.738 0 61.139-8.983 85.237-24.268 15.214-12.646 27.472-28.125 35.726-45.508 44.753-93.08-33.128-151.191-7.345-187.518-17.381-4.2-31.228 3.355-37.845 14.412-3.014 5.036-5.836 10.589-7.728 22.924-8.862-10.922-23.265-61.881 25.247-82.242z" fill="#fb545c"></path><path d="m186.674 413.751-1.318 87.301h119.072l-1.291-58.219c-.284-12.788 2.23-23.808 8.028-35.209 18.333-36.045 37.856-44.227 43.793-90.569 2.481-19.361.598-37.123-6.421-48.958-4.252-7.17-11.634-12.77-23.762-14.109a52.887 52.887 0 0 0-5.78-.305H176.77c-3.558 12.198-4.426 17.843-5.815 25.918-14.689 119.435 16.307 95.17 15.719 134.15z" fill="#fdb0a0"></path><path d="m186.674 413.751-1.318 87.301h101.94l-1.291-58.219c-.283-12.788 2.23-23.808 8.029-35.209 18.333-36.044 37.856-44.227 43.793-90.569 2.481-19.361.598-37.123-6.42-48.958-4.253-7.17-11.635-12.77-23.763-14.109a52.443 52.443 0 0 0-5.685-.305H176.771c-3.558 12.198-4.426 17.843-5.815 25.918-14.689 119.435 16.307 95.17 15.719 134.15z" fill="#ffcec0"></path><path d="M264.041 202.891c11.485 0 20.881 9.396 20.881 20.881v29.911h-16.318c-11.485 0-20.881 9.396-20.881 20.881 0 1.625.189 3.208.544 4.729-3.178-3.667-5.106-8.441-5.106-13.644v-41.877c0-11.485 9.396-20.881 20.88-20.881z" fill="#fdb0a0"></path><path d="M264.041 254.189c-9.309 2.095-16.318 10.456-16.318 20.374 0 .391.012.779.033 1.165a15.064 15.064 0 0 1-3.588-3.69 20.701 20.701 0 0 1-1.008-6.39v-41.877c0-11.485 9.396-20.881 20.88-20.881v51.298z" fill="#ffcec0"></path><path d="M304.849 209.75c10.96 0 19.927 8.967 19.927 19.926v27.719c-3.406-1.688-7.45-2.88-12.233-3.408a52.43 52.43 0 0 0-5.685-.305h-21.936v-24.006c0-10.96 8.967-19.926 19.927-19.926z" fill="#fdb0a0"></path><path d="M304.849 253.683h-19.927v-24.006c0-10.96 8.967-19.926 19.927-19.926z" fill="#ffcec0"></path><path d="M186.022 219.497c9.789 0 17.797 8.008 17.797 17.797v32.863c0 9.789-8.008 17.798-17.797 17.798s-17.797-8.009-17.797-17.798v-32.863c0-9.788 8.009-17.797 17.797-17.797z" fill="#fdb0a0"></path><path d="M186.022 276.322a11.815 11.815 0 0 1-7.728 2.879c-3.916 0-7.404-1.923-9.569-4.869a17.65 17.65 0 0 1-.5-4.176v-32.863c0-9.789 8.009-17.797 17.797-17.797v56.825z" fill="#ffcec0"></path><path d="M223.49 208.845c10.819 0 19.671 8.851 19.671 19.671v39.45c0 10.819-8.852 19.67-19.67 19.67s-19.671-8.851-19.671-19.67v-39.45c0-10.819 8.852-19.671 19.67-19.671z" fill="#fdb0a0"></path><path d="M223.49 275.46a13.44 13.44 0 0 1-7.524 2.299c-5.183 0-9.709-2.951-11.982-7.256a19.68 19.68 0 0 1-.165-2.537v-39.45c0-10.819 8.852-19.671 19.67-19.671v66.615z" fill="#ffcec0"></path><path d="M276.648 307.846h-4.141c-18.237 0-33.114-14.877-33.114-33.114s14.877-33.113 33.114-33.113h50.392c.628 0 1.253.008 1.876.026v12.238c-.614-.02-1.24-.031-1.876-.031h-50.392c-11.484 0-20.88 9.396-20.88 20.88s9.396 20.881 20.88 20.881h26.123c8.077 0 5.899 3.845 2.511 6.759-13.579 11.678-34.283 26.857-39.657 59.958a51.396 51.396 0 0 0-.643 8.511c.048 5.276-6.118 8.097-10.089 4.709-1.395-1.191-2.13-2.763-2.147-4.598-.032-3.49.233-7.021.801-10.561 2.625-16.348 8.9-30.843 19.275-43.743 2.561-3.186 5.22-6.073 7.967-8.802z" fill="#fdb0a0"></path><path d="M297.297 441.051H191.323c-9.582 0-17.455 7.842-17.424 17.424l.137 42.576h140.823l-.138-42.576c-.031-9.583-7.842-17.424-17.425-17.424z" fill="#2a93fc"></path><path d="M264.23 441.051h-72.907c-9.582 0-17.455 7.842-17.424 17.424l.137 42.576h107.757l-.138-42.576c-.031-9.583-7.841-17.424-17.425-17.424z" fill="#4eb1fc"></path></g></g></svg>