<svg viewBox="0 0 512 512" xmlns="http://www.w3.org/2000/svg"><g><g fill="#ea9d2d"><path d="m296 341.859 147.7 73.853a60 60 0 0 1 32.612 45.488L480 488H32l3.688-26.8A60 60 0 0 1 68.3 415.712L216 341.859z" fill="#ea9d2d"></path><path d="M68.29 415.71 80 409.86V488H32l3.69-26.8a60.034 60.034 0 0 1 32.6-45.49zM480 488h-48v-78.14l11.71 5.85a60.034 60.034 0 0 1 32.6 45.49zM358.2 372.96 256 456l-102.2-83.04 34.42-17.21L216 341.86h80l32.42 16.21z" fill="#ea9d2d"></path></g><path d="m312 349.859-16-8v-32h-80v32l-16 8 56 24z" fill="#f6bb92"></path><path d="M296 309.86v11.64c-.08.06-.17.11-.25.17a70.9 70.9 0 0 1-79.75-.17v-11.64z" fill="#f6bb92"></path><path d="M296 309.86v11.64c-.08.06-.17.11-.25.17a70.9 70.9 0 0 1-79.75-.17v-11.64z" fill="#e6af89"></path><path d="M80 409.86V488H32l3.69-26.8a60.034 60.034 0 0 1 32.6-45.49zM480 488h-48v-78.14l11.71 5.85a60.034 60.034 0 0 1 32.6 45.49z" fill="#cbcbcb"></path><path d="M256 325.859a70.9 70.9 0 0 1-65.827-44.566A198.16 198.16 0 0 1 176 207.7V144a80 80 0 0 1 80-80 80 80 0 0 1 80 80v63.7a198.16 198.16 0 0 1-14.173 73.6A70.9 70.9 0 0 1 256 325.859z" fill="#f6bb92"></path><path d="M304 184h-24a8 8 0 0 1 0-16h24a8 8 0 0 1 0 16z" fill="#683b0d"></path><circle cx="290" cy="199.859" fill="#683b0d" r="10"></circle><path d="M232 184h-24a8 8 0 0 1 0-16h24a8 8 0 0 1 0 16z" fill="#683b0d"></path><circle cx="222" cy="199.859" fill="#683b0d" r="10"></circle><path d="M264 248h-16a8 8 0 0 1-8-8v-13.859a8 8 0 1 1 16 0V232h8a8 8 0 0 1 0 16z" fill="#e6af89"></path><path d="M179 173.859h-14.056A20.944 20.944 0 0 0 144 194.8v14.111a20.948 20.948 0 0 0 2.211 9.367 20.945 20.945 0 0 0 18.733 11.577H180zM333 173.859h14.056A20.944 20.944 0 0 1 368 194.8v14.111a20.948 20.948 0 0 1-2.211 9.367 20.945 20.945 0 0 1-18.733 11.577H332z" fill="#f6bb92"></path><path d="M248 240h16a32 32 0 0 1 32 32h-80a32 32 0 0 1 32-32zM336 184l-1-4.017A74.61 74.61 0 0 0 304 136l-.2.079a224.666 224.666 0 0 1-82.67 16.068l-34.175.117a43.2 43.2 0 0 1-38.778-23.83l-.778-1.55a42.472 42.472 0 0 1 3.492-43.855l.574-.8a82.325 82.325 0 0 1 66.875-34.247c9.23.006 18.882.01 27.737.012A81.947 81.947 0 0 1 304 72l3.238-.009a33.435 33.435 0 0 1 30 18.482l.3.611a87.214 87.214 0 0 1 6.635 60.248C340.114 167.543 336 184 336 184z" fill="#683b0d"></path><path d="m224 392 32 24 32-24-32-18.141z" fill="#cbcbcb"></path><path d="M358.2 372.96 256 456l-102.2-83.04 34.42-17.21L256 416l72.42-57.93z" fill="#c38325"></path><path d="m208 336 48 37.859L192 424l-8-66.141zM304 336l-48 37.859L320 424l8-66.141z" fill="#eaeae8"></path></g></svg>