<svg viewBox="0 0 512 512" xmlns="http://www.w3.org/2000/svg"><g><path d="M481.009 0H213.092C195.975 0 182.1 13.865 182.1 30.968v145.435l164.95 9 164.95-9V30.968C512 13.865 498.125 0 481.009 0z" fill="#407093"></path><path d="M252.772 130.724h188.557c8.557 0 15.496-8.908 15.496-24.481v-39.42c0-8.555-6.935-15.49-15.49-15.49H252.766c-8.555 0-15.49 6.935-15.49 15.49v39.418c0 18.58 6.938 24.483 15.496 24.483z" fill="#b3e59f"></path><path d="M213.092 502.419h267.917c17.116 0 30.991-12.035 30.991-39.968V176.403H182.1v286.049c0 29.803 13.876 39.967 30.992 39.967z" fill="#eef3f9"></path><path d="M237.281 230.999c0 12.138 4.618 19.323 10.331 19.323h31.126c5.703 0 10.331-7.344 10.331-19.323l.001.002v-12.527c0-5.703-4.623-10.327-10.327-10.327h-31.14c-5.703 0-10.326 4.624-10.326 10.327v12.534z" fill="#407093"></path><path d="M415.358 437.47h31.136c5.696 0 10.329-9.54 10.329-19.303v-106.12c0-5.703-4.623-10.327-10.326-10.327h-31.14c-5.703 0-10.327 4.623-10.327 10.327v106.165c.001 11.91 4.648 19.258 10.328 19.258z" fill="#d75950"></path><path d="M481.009 493.419H213.092c-17.116 0-30.992-13.865-30.992-30.968v18.581c0 17.103 13.875 30.968 30.992 30.968h267.917C498.125 512 512 498.135 512 481.032v-18.581c0 17.104-13.875 30.968-30.991 30.968z" fill="#dae3ed"></path><path d="M289.068 230.999v18.581c0 5.698-4.628 10.322-10.331 10.322h-31.126c-5.713 0-10.331-4.624-10.331-10.322v-18.581c0 5.698 4.618 10.323 10.331 10.323h31.126c5.703-.001 10.331-4.625 10.331-10.323z" fill="#365e7d"></path><path d="M321.162 230.999c0 12.138 4.618 19.323 10.33 19.323h31.126c5.702 0 10.33-7.344 10.33-19.323l.001.002v-12.527c0-5.703-4.623-10.327-10.327-10.327h-31.14c-5.703 0-10.326 4.624-10.326 10.327v12.534z" fill="#407093"></path><path d="M372.948 230.999v18.581c0 5.698-4.628 10.322-10.33 10.322h-31.126c-5.713 0-10.33-4.624-10.33-10.322v-18.581c0 5.698 4.618 10.323 10.33 10.323h31.126c5.702-.001 10.33-4.625 10.33-10.323z" fill="#365e7d"></path><path d="M405.042 230.999c0 12.138 4.618 19.323 10.33 19.323h31.126c5.703 0 10.33-7.344 10.33-19.323l.001.002v-12.527c0-5.703-4.623-10.327-10.327-10.327h-31.14c-5.703 0-10.327 4.624-10.327 10.327v12.534z" fill="#407093"></path><path d="M456.829 230.999v18.581c0 5.698-4.628 10.322-10.331 10.322h-31.126c-5.713 0-10.331-4.624-10.331-10.322v-18.581c0 5.698 4.618 10.323 10.331 10.323h31.126c5.703-.001 10.331-4.625 10.331-10.323z" fill="#365e7d"></path><path d="M237.281 324.572c0 12.138 4.618 19.323 10.331 19.323h31.126c5.703 0 10.331-7.344 10.331-19.323l.001.002v-12.527c0-5.703-4.623-10.327-10.327-10.327h-31.14c-5.703 0-10.326 4.624-10.326 10.327v12.534z" fill="#407093"></path><path d="M289.068 324.572v18.581c0 5.698-4.628 10.323-10.331 10.323h-31.126c-5.713 0-10.331-4.624-10.331-10.323v-18.581c0 5.698 4.618 10.323 10.331 10.323h31.126c5.703-.001 10.331-4.625 10.331-10.323z" fill="#365e7d"></path><path d="M321.162 324.572c0 12.138 4.618 19.323 10.33 19.323h31.126c5.702 0 10.33-7.344 10.33-19.323l.001.002v-12.527c0-5.703-4.623-10.327-10.327-10.327h-31.14c-5.703 0-10.326 4.624-10.326 10.327v12.534z" fill="#407093"></path><path d="M372.948 324.572v18.581c0 5.698-4.628 10.323-10.33 10.323h-31.126c-5.713 0-10.33-4.624-10.33-10.323v-18.581c0 5.698 4.618 10.323 10.33 10.323h31.126c5.702-.001 10.33-4.625 10.33-10.323z" fill="#365e7d"></path><path d="M237.281 418.074c0 12.138 4.618 19.323 10.331 19.323h31.126c5.703 0 10.331-7.344 10.331-19.323l.001.002v-12.527c0-5.703-4.623-10.327-10.327-10.327h-31.14c-5.703 0-10.326 4.624-10.326 10.327v12.534z" fill="#407093"></path><path d="M289.068 418.074v18.581c0 5.698-4.628 10.323-10.331 10.323h-31.126c-5.713 0-10.331-4.625-10.331-10.323v-18.581c0 5.698 4.618 10.323 10.331 10.323h31.126c5.703 0 10.331-4.625 10.331-10.323z" fill="#365e7d"></path><path d="M321.162 418.074c0 12.138 4.618 19.323 10.33 19.323h31.126c5.702 0 10.33-7.344 10.33-19.323l.001.002v-12.527c0-5.703-4.623-10.327-10.327-10.327h-31.14c-5.703 0-10.326 4.624-10.326 10.327v12.534z" fill="#407093"></path><path d="M372.948 418.074v18.581c0 5.698-4.628 10.323-10.33 10.323h-31.126c-5.713 0-10.33-4.625-10.33-10.323v-18.581c0 5.698 4.618 10.323 10.33 10.323h31.126c5.702 0 10.33-4.625 10.33-10.323z" fill="#365e7d"></path><path d="M456.825 418.147v18.581c0 5.698-4.628 10.323-10.331 10.323h-31.136c-5.702 0-10.331-4.625-10.331-10.323v-18.581c0 5.698 4.628 10.323 10.331 10.323h31.136c5.703 0 10.331-4.625 10.331-10.323z" fill="#ca4844"></path><path d="M441.328 121.724H252.772c-8.558 0-15.496-6.933-15.496-15.484v18.581c0 8.551 6.938 15.484 15.496 15.484h188.557c8.558 0 15.496-6.932 15.496-15.484V106.24c-.001 8.551-6.939 15.484-15.497 15.484z" fill="#95d6a4"></path><path d="M.361 384.163c0 66.196 55.884 118.257 118.277 118.257s118.277-52.061 118.277-118.257c-4.742-61.129-55.884-109.257-118.277-109.257S5.103 323.033.361 384.163z" fill="#ecbb5d"></path><path d="M38.877 384.163c0 46.848 38.552 79.962 79.761 79.962s79.762-35.191 79.762-79.962c-4.611-39.943-38.552-70.963-79.762-70.963s-75.151 31.02-79.761 70.963z" fill="#f5de8e"></path><path d="M118.638 455.125c-41.209 0-75.15-31.019-79.761-70.962a80.94 80.94 0 0 0-.553 9.29c0 44.322 35.958 80.252 80.314 80.252s80.314-35.93 80.314-80.252c0-3.144-.2-6.24-.553-9.29-4.611 39.943-38.551 70.962-79.761 70.962z" fill="#edd17a"></path><path d="M118.638 493.419c-62.393 0-113.534-48.128-118.277-109.257A120.022 120.022 0 0 0 0 393.453C0 458.925 53.116 512 118.638 512s118.638-53.075 118.638-118.547c0-3.127-.123-6.225-.361-9.29-4.743 61.129-55.884 109.256-118.277 109.256z" fill="#e5a84c"></path><path d="M102.589 419.196a7.774 7.774 0 0 0-10.754 2.245 7.75 7.75 0 0 0 2.249 10.738c6.479 4.232 11.238 5.917 17.093 6.515v3.908c0 4.284 3.478 7.757 7.769 7.757s7.769-3.473 7.769-7.757v-4.658c11.886-3.219 19.503-13.442 21.201-23.53 2.218-13.175-4.943-25.08-17.82-29.625-1.114-.393-2.247-.8-3.382-1.218v-21.396c1.873.826 2.96 1.731 3.062 1.819a7.752 7.752 0 0 0 5.398 2.177c4.293 0 7.773-3.475 7.773-7.761a7.737 7.737 0 0 0-2.726-5.901c-2.545-2.344-7.299-5.243-13.506-6.543v-3.465c0-4.285-3.478-7.757-7.769-7.757s-7.769 3.473-7.769 7.757v3.991c-.3.082-.6.162-.903.253-8.707 2.619-15.207 10.034-16.966 19.351-1.617 8.568 1.182 16.869 7.304 21.662 2.768 2.168 6.125 4.157 10.565 6.212v29.094c-2.819-.506-5.104-1.593-8.588-3.868zm30.005-7.354c-.575 3.412-2.566 6.986-5.879 9.258v-20.915c6.476 3.212 6.307 9.116 5.879 11.657zm-22.393-36.293c-1.516-1.188-2.155-3.772-1.624-6.582.324-1.715 1.162-3.642 2.6-5.149v12.45c-.34-.238-.668-.477-.976-.719z" fill="#e5a84c"></path></g></svg>