<svg viewBox="0 0 128 128" xmlns="http://www.w3.org/2000/svg"><g><g fill="#607d8b"><path d="M36 25H20a1 1 0 0 0-1 1v4a1 1 0 0 0 1 1h16a1 1 0 0 0 1-1v-4a1 1 0 0 0-1-1zM108 25H92a1 1 0 0 0-1 1v4a1 1 0 0 0 1 1h16a1 1 0 0 0 1-1v-4a1 1 0 0 0-1-1zM76 9H52c-4.962 0-9 4.038-9 9v12a1 1 0 0 0 1 1h6a1 1 0 0 0 1-1V18c0-.533.467-1 1-1h24c.533 0 1 .467 1 1v12a1 1 0 0 0 1 1h6a1 1 0 0 0 1-1V18c0-4.962-4.038-9-9-9z" fill="#607d8b"></path></g><path d="M112 29H16C8.832 29 3 34.832 3 42v64c0 7.168 5.832 13 13 13h96c7.168 0 13-5.832 13-13V42c0-7.168-5.832-13-13-13z" fill="#ef5350"></path><path d="M64 41c-18.196 0-33 14.804-33 33s14.804 33 33 33 33-14.804 33-33-14.804-33-33-33z" fill="#e0e0e0"></path><path d="M84 67H71V54a1 1 0 0 0-1-1H58a1 1 0 0 0-1 1v13H44a1 1 0 0 0-1 1v12a1 1 0 0 0 1 1h13v13a1 1 0 0 0 1 1h12a1 1 0 0 0 1-1V81h13a1 1 0 0 0 1-1V68a1 1 0 0 0-1-1z" fill="#ef5350"></path><path d="M8 57a1 1 0 0 1-1-1V42a1 1 0 0 1 2 0v14a1 1 0 0 1-1 1zM8 67a1 1 0 0 1-1-1v-4a1 1 0 0 1 2 0v4a1 1 0 0 1-1 1z" fill="#ef9a9a"></path></g></svg>