<svg viewBox="0 0 512 512" xmlns="http://www.w3.org/2000/svg"><g><circle cx="126.736" cy="423.937" fill="#68a2df" r="42.427"></circle><circle cx="30.537" cy="485.419" fill="#68a2df" r="26.581"></circle><path d="M302.878 395.433c26.103-5.986 48.284-22.24 62.085-44.28 4.876-7.787 12.782-13.203 21.742-15.233 70.819-16.048 123.345-80.288 121.279-156.428-2.267-83.545-70.996-150.914-154.569-151.607a156.62 156.62 0 0 0-33.666 3.355c-10.775 2.274-21.973-.505-30.37-7.629C272.022 8.883 249.552 0 225.006 0h-.233l-27.066 5.815-57.693 72.854-55.705 119.047 77.031 114.301 105.392 80.873z" fill="#93bce8"></path><path d="M151.391 172.555c0-67.774 28.148-128.968 73.382-172.551-44.801.103-82.647 29.793-95.037 70.57-3.398 11.183-11.985 20.155-23.1 23.772-50.028 16.28-86.29 63.061-86.826 118.392-.665 68.555 54.472 125.529 123.015 127.009 6.985.151 13.842-.27 20.531-1.217 13.453-1.905 26.851 3.902 34.412 15.191 17.862 26.67 48.269 44.228 82.779 44.228a99.81 99.81 0 0 0 22.331-2.52c-88.727-35.107-151.487-121.66-151.487-222.874z" fill="#68a2df"></path><path d="M270.598 325.923H257.25c-7.123 0-12.897-5.774-12.897-12.897v-22.051h39.142v22.051c-.001 7.123-5.775 12.897-12.897 12.897z" fill="#00388b"></path><path d="M291.913 270.582h8.072v-18.606c0-12.982 5.765-25.34 15.844-33.522 18.613-15.11 30.508-38.172 30.508-64.014 0-46.177-37.978-83.485-84.403-82.391a81.487 81.487 0 0 0-18.623 2.601l-21.605 12.212-12.521 26.114v50.748l34.126 103.468z" fill="#f9ee80"></path><path d="M222.823 148.365c0-26.968 7.488-52.185 20.494-73.692-35.616 9.269-62 41.952-61.808 80.191.129 25.653 11.98 48.532 30.469 63.56 10.087 8.198 15.882 20.552 15.882 33.55v18.609h64.052c-41.399-24.959-69.089-70.353-69.089-122.218z" fill="#fdc072"></path><path d="M296.3 296.833h-64.754c-8.594 0-15.561-6.967-15.561-15.561v-.939c0-8.594 6.967-15.561 15.561-15.561H296.3c8.594 0 15.561 6.967 15.561 15.561v.939c.001 8.594-6.966 15.561-15.561 15.561z" fill="#2a4f95"></path><g fill="#f9ee80"><path d="M121.589 254.844a7.729 7.729 0 0 1-2.643-14.989l14.185-5.163a7.726 7.726 0 0 1 5.285 14.521l-14.185 5.163a7.724 7.724 0 0 1-2.642.468zM136.228 206.7h-15.095a7.726 7.726 0 1 1 0-15.452h15.095a7.726 7.726 0 0 1 7.726 7.726 7.725 7.725 0 0 1-7.726 7.726zM135.773 163.723a7.72 7.72 0 0 1-2.642-.468l-14.185-5.163a7.727 7.727 0 0 1 5.285-14.521l14.185 5.163a7.727 7.727 0 0 1-2.643 14.989zM406.258 254.844a7.728 7.728 0 0 1-2.642-.468l-14.185-5.163a7.728 7.728 0 0 1 5.285-14.521l14.185 5.163a7.728 7.728 0 0 1-2.643 14.989zM406.714 206.7h-15.096a7.725 7.725 0 0 1-7.726-7.726 7.725 7.725 0 0 1 7.726-7.726h15.096a7.725 7.725 0 0 1 7.726 7.726 7.725 7.725 0 0 1-7.726 7.726zM392.075 163.723a7.726 7.726 0 0 1-2.644-14.989l14.185-5.163a7.726 7.726 0 0 1 5.285 14.521l-14.185 5.163a7.69 7.69 0 0 1-2.641.468z" fill="#f9ee80"></path></g></g></svg>