<svg viewBox="0 0 471 472" xmlns="http://www.w3.org/2000/svg"><g><path d="M368.5 144h48v232h-48zM448.5 144h-112l-16-64h144zm0 0" fill="#d1d4d6"></path><g fill="#4398d1"><path d="M424.5 80h-64l-8-40h80zM368.5 104h16v16h-16zM400.5 104h16v16h-16zm0 0" fill="#4398d1"></path></g><path d="M.5 376h464v96H.5zm0 0" fill="#d1d4d6"></path><path d="M96.5 408h320v64h-320zm0 0" fill="#4398d1"></path><path d="M416.5 432h-56v-24h-16v24h-48v-24h-16v24h-48v-24h-16v24h-48v-24h-16v24h-56v16h56v24h16v-24h48v24h16v-24h48v24h16v-24h48v24h16v-24h56zm0 0" fill="#3181bd"></path><path d="M56.5 416h16v16h-16zM24.5 416h16v16h-16zm0 0" fill="#4398d1"></path><path d="M32.5 344h48v32h-48zm0 0" fill="#c3c5c7"></path><path d="M16.5 336h80v16h-80zm0 0" fill="#d1d4d6"></path><path d="M244.598 158.574 76.89 215.704l-53.192-7.24-7.734-22.71 187.527-63.89a28.956 28.956 0 0 1 29.664 6.8l8.64 1.176a14.838 14.838 0 0 1 12 9.914c2.65 7.734-1.468 16.156-9.198 18.82zm0 0" fill="#4398d1"></path><path d="m46.27 175.434-30.29 10.32L.5 140.313l15.145-5.16zm0 0" fill="#e3584b"></path><path d="M145.707 293.68 115.422 304l14.476-106.352 45.442-15.472zm0 0" fill="#4398d1"></path><path d="M68.324 66.504 38.027 76.816l76.395 75.399 45.437-15.48zm0 0" fill="#3181bd"></path><path d="M352.5 104h-26l4 16h22zM432.5 104v16h22l4-16zm0 0" fill="#4398d1"></path><path d="m427.7 64 4.8-24h-80l4.8 24zm0 0" fill="#3181bd"></path><path d="M416.5 0h-48v16h16v24h16V16h16zm0 0" fill="#c3c5c7"></path><path d="M344.5 32h96v16h-96zm0 0" fill="#d1d4d6"></path><path d="M368.5 144h48v16h-48zM368.5 360h48v16h-48zm0 0" fill="#c3c5c7"></path></g></svg>