<svg viewBox="0 0 512 512" xmlns="http://www.w3.org/2000/svg"><g><path d="m222.205 363.851 18.386-18.386c21.921-21.921 24.897-61.721-.289-86.907-24.227-17.868-58.622-15.845-80.543 6.076l-18.386 18.386c-21.921 21.921-23.944 56.316-6.075 80.543 27.646 27.646 64.986 22.208 86.907.288zm-62.561-62.561 18.386-18.386c17.648-17.648 34.46-.675 36.531 1.395a26.393 26.393 0 0 1 7.759 5.379c10.343 10.343 10.343 27.173 0 37.516l-18.386 18.386c-10.343 10.343-27.172 10.343-37.515 0a26.374 26.374 0 0 1-5.379-7.759c-2.457-2.167-19.154-18.773-1.396-36.531z" fill="#968d97"></path><g fill="#878088"><path d="M214.561 284.299a26.393 26.393 0 0 0-5.379-7.759c-10.343-10.343-27.172-10.343-37.515 0l-18.386 18.386c-10.343 10.343-10.343 27.172 0 37.515a26.387 26.387 0 0 0 7.759 5.379c-4.444-9.78-2.653-21.724 5.379-29.756l18.386-18.386c8.032-8.032 19.975-9.822 29.756-5.379zM247.365 352.239c24.153-24.153 24.153-63.453 0-87.606a62.22 62.22 0 0 0-7.063-6.075c17.869 24.227 15.845 58.622-6.076 80.543l-18.386 18.386c-21.921 21.921-56.316 23.944-80.543 6.076a62.13 62.13 0 0 0 6.076 7.063c24.153 24.153 63.453 24.153 87.606 0z" fill="#878088"></path></g><path d="m98.945 487.111 18.386-18.386c21.921-21.921 24.897-61.721-.289-86.907-24.227-17.868-58.622-15.845-80.543 6.076L18.113 406.28c-21.921 21.921-23.944 56.316-6.076 80.543 27.647 27.645 64.987 22.208 86.908.288zM36.384 424.55l18.386-18.386c17.648-17.648 34.46-.675 36.531 1.395a26.393 26.393 0 0 1 7.759 5.379c10.343 10.343 10.343 27.173 0 37.516L80.674 468.84c-10.343 10.343-27.172 10.343-37.515 0a26.374 26.374 0 0 1-5.379-7.759c-2.457-2.167-19.154-18.773-1.396-36.531z" fill="#968d97"></path><g fill="#878088"><path d="M91.301 407.559a26.393 26.393 0 0 0-5.379-7.759c-10.343-10.343-27.172-10.343-37.515 0L30.02 418.186c-10.343 10.343-10.343 27.172 0 37.515a26.387 26.387 0 0 0 7.759 5.379c-4.444-9.78-2.653-21.724 5.379-29.756l18.386-18.386c8.033-8.032 19.976-9.823 29.757-5.379zM124.105 475.499c24.153-24.153 24.153-63.453 0-87.606a62.22 62.22 0 0 0-7.063-6.075c17.869 24.227 15.845 58.622-6.076 80.543L92.58 480.747c-21.921 21.921-56.316 23.944-80.543 6.076a62.13 62.13 0 0 0 6.076 7.063c24.153 24.153 63.453 24.153 87.606 0z" fill="#878088"></path></g><path d="m345.465 240.591 18.386-18.386c21.921-21.921 24.898-61.721-.289-86.907-24.227-17.868-58.622-15.845-80.543 6.076l-18.386 18.386c-21.921 21.921-23.944 56.316-6.075 80.543 27.646 27.645 64.986 22.208 86.907.288zm-62.561-62.561 18.386-18.386c17.648-17.648 34.46-.675 36.531 1.395a26.393 26.393 0 0 1 7.759 5.379c10.343 10.343 10.343 27.173 0 37.516l-18.386 18.386c-10.343 10.343-27.172 10.343-37.515 0a26.387 26.387 0 0 1-5.379-7.759c-2.457-2.167-19.154-18.773-1.396-36.531z" fill="#968d97"></path><g fill="#878088"><path d="M337.821 161.039a26.393 26.393 0 0 0-5.379-7.759c-10.343-10.343-27.172-10.343-37.515 0l-18.386 18.386c-10.343 10.343-10.343 27.172 0 37.515a26.387 26.387 0 0 0 7.759 5.379c-4.444-9.78-2.653-21.724 5.379-29.756l18.386-18.386c8.032-8.032 19.975-9.823 29.756-5.379zM370.625 228.979c24.153-24.153 24.153-63.453 0-87.606a62.22 62.22 0 0 0-7.063-6.075c17.869 24.227 15.845 58.622-6.076 80.543L339.1 234.227c-21.921 21.921-56.316 23.944-80.543 6.076a62.13 62.13 0 0 0 6.076 7.063c24.153 24.153 63.453 24.153 87.606 0z" fill="#878088"></path></g><path d="M76.652 422.232c6.569 6.569 18.46 6.174 22.964 1.671l77.251-77.251c4.504-4.504 3.607-17.686-1.67-22.964-5.775-1.362-12.096.19-16.6 4.693l-77.251 77.251c-4.504 4.504-6.055 10.826-4.694 16.6z" fill="#c7c2c9"></path><path d="m468.724 117.331 18.386-18.386c21.921-21.921 24.898-61.721-.288-86.907-24.227-17.869-58.622-15.845-80.543 6.075l-18.386 18.386c-21.921 21.921-23.944 56.316-6.076 80.543 27.647 27.647 64.987 22.209 86.907.289zm-62.56-62.561 18.386-18.386c17.648-17.648 34.46-.675 36.531 1.395a26.393 26.393 0 0 1 7.759 5.379c10.343 10.343 10.343 27.173 0 37.516L450.453 99.06c-10.343 10.343-27.172 10.343-37.515 0a26.387 26.387 0 0 1-5.379-7.759c-2.456-2.166-19.153-18.773-1.395-36.531z" fill="#968d97"></path><g fill="#878088"><path d="M461.08 37.779a26.393 26.393 0 0 0-5.379-7.759c-10.343-10.343-27.172-10.343-37.515 0L399.8 48.406c-10.343 10.343-10.343 27.172 0 37.515a26.387 26.387 0 0 0 7.759 5.379c-4.444-9.78-2.653-21.724 5.379-29.756l18.386-18.386c8.033-8.032 19.976-9.822 29.756-5.379zM493.885 105.719c24.153-24.153 24.153-63.453 0-87.606a62.22 62.22 0 0 0-7.063-6.075c17.869 24.227 15.845 58.622-6.076 80.543l-18.386 18.386c-21.921 21.921-56.316 23.944-80.543 6.076a62.13 62.13 0 0 0 6.076 7.063c24.153 24.153 63.453 24.153 87.606 0z" fill="#878088"></path></g><path d="M183.641 328.382a17.597 17.597 0 0 0-8.445-4.693c1.362 5.775-.19 12.097-4.693 16.6L93.252 417.54c-4.504 4.503-10.825 6.055-16.6 4.693a17.6 17.6 0 0 0 4.693 8.445c6.916 6.916 18.129 6.916 25.045 0l77.251-77.25c6.917-6.917 6.917-18.13 0-25.046z" fill="#b0aab3"></path><path d="M200.17 298.714c6.569 6.569 18.46 6.174 22.964 1.671l77.251-77.251c4.504-4.503 3.607-17.686-1.67-22.964-5.775-1.362-12.096.19-16.6 4.693l-77.251 77.251c-4.504 4.504-6.055 10.826-4.694 16.6z" fill="#c7c2c9"></path><path d="M307.16 204.863a17.597 17.597 0 0 0-8.445-4.693c1.362 5.775-.19 12.097-4.693 16.6l-77.251 77.251c-4.504 4.504-10.825 6.055-16.6 4.693a17.6 17.6 0 0 0 4.693 8.445c6.916 6.916 18.129 6.916 25.045 0l77.251-77.251c6.916-6.915 6.916-18.128 0-25.045z" fill="#b0aab3"></path><path d="M323.688 175.196c6.569 6.569 18.46 6.174 22.964 1.671l77.251-77.251c4.504-4.504 3.607-17.687-1.67-22.964-5.775-1.362-12.096.19-16.6 4.693l-77.251 77.251c-4.504 4.504-6.055 10.825-4.694 16.6z" fill="#c7c2c9"></path><path d="M430.678 81.345a17.597 17.597 0 0 0-8.445-4.693c1.362 5.775-.19 12.097-4.694 16.6l-77.251 77.251c-4.504 4.504-10.825 6.055-16.6 4.693a17.592 17.592 0 0 0 4.693 8.445c6.916 6.916 18.129 6.916 25.045 0l77.251-77.25c6.917-6.917 6.917-18.129.001-25.046z" fill="#b0aab3"></path></g></svg>