<svg viewBox="0 0 512 512" xmlns="http://www.w3.org/2000/svg"><g><path d="M255.5 22c-135.31 0-245 109.69-245 245 0 116.042 80.678 213.234 189 238.563l1-1.343V370.7l1.926-.7h36.381l1.692.677v138.587l1 2.329c4.635.261 9.3.407 14 .407s9.365-.146 14-.407l1-1.885V370.7l1.926-.7h36.381l1.692.677v133.288l1 1.598c108.322-25.329 189-122.521 189-238.563C500.5 131.69 390.81 22 255.5 22z" fill="#c8effe"></path><path d="m77.394 164.943-.3.376a10.949 10.949 0 0 1-8.593 4.145H30.69C17.705 199.353 10.5 232.334 10.5 267c0 81.988 40.279 154.559 102.122 199.03C139.061 426.919 154.5 379.763 154.5 329c0-63.104-23.866-120.627-63.055-164.057zM443.5 169.464a10.949 10.949 0 0 1-8.593-4.145l-.3-.376h-15.051C380.366 208.373 356.5 265.896 356.5 329c0 50.763 15.439 97.919 41.878 137.03C460.221 421.559 500.5 348.988 500.5 267c0-34.666-7.205-67.647-20.19-97.536z" fill="#99e6fc"></path><path d="m202.25 369-2.75 1v135.563a244.914 244.914 0 0 0 42 6.03V370l-2.5-1z" fill="#ffcebf"></path><path d="m216.5 370 2.75-1h-17l-2.75 1v135.563a243.094 243.094 0 0 0 17 3.328z" fill="#ffb09e"></path><path d="M309 369h-36.75l-2.75 1v141.593a244.914 244.914 0 0 0 42-6.03V370z" fill="#ffcebf"></path><path d="m286.5 370 2.75-1h-17l-2.75 1v141.593a247.55 247.55 0 0 0 17-1.556z" fill="#ffb09e"></path><path d="M498.741 148.115a4.76 4.76 0 0 0 4.737-5.226c-.236-2.474-2.456-4.292-4.941-4.292h-26.254v-1.656h17.808c2.486 0 4.705-1.817 4.942-4.292a4.76 4.76 0 0 0-4.737-5.227H456.87l6.667-6.667c2.074-2.074 2.409-5.442.542-7.703a5.616 5.616 0 0 0-8.312-.409l-15.139 15.139a11.995 11.995 0 0 0-6.502 4.16H271.5V116.9a28 28 0 0 1-5.222.495h-21.557c-1.785 0-3.529-.175-5.222-.495v15.042H77.875a11.99 11.99 0 0 0-6.502-4.16l-14.969-14.969c-2.074-2.074-5.442-2.409-7.703-.542a5.616 5.616 0 0 0-.409 8.312l6.838 6.838H21.909c-2.485 0-4.705 1.817-4.941 4.292a4.76 4.76 0 0 0 4.737 5.227h18.013v1.656H13.464c-2.486 0-4.705 1.817-4.941 4.292a4.76 4.76 0 0 0 4.737 5.226h26.458v1.656H15.451c-2.486 0-4.706 1.817-4.941 4.292a4.76 4.76 0 0 0 4.737 5.227h24.471v1.656H24.393c-2.486 0-4.705 1.817-4.941 4.292a4.76 4.76 0 0 0 4.737 5.226H68.5c3.797 0 7.176-1.768 9.375-4.52H182.5a5 5 0 0 1 5 5v10.849c0 11.713 4.564 22.354 12 30.265V299l3.5 1h105l3.5-1v-86.942c7.436-7.91 12-18.552 12-30.265v-10.849a5 5 0 0 1 5-5h105.625c2.199 2.752 5.578 4.52 9.375 4.52h44.106c2.485 0 4.705-1.817 4.941-4.291a4.76 4.76 0 0 0-4.737-5.227h-15.528v-1.656h24.267c2.486 0 4.705-1.817 4.941-4.292a4.76 4.76 0 0 0-4.737-5.227h-24.471v-1.656z" fill="#ffcebf"></path><path d="M498.741 148.115a4.76 4.76 0 0 0 4.737-5.226c-.236-2.474-2.456-4.292-4.941-4.292h-26.254v-1.656h17.808c2.486 0 4.705-1.817 4.942-4.292a4.76 4.76 0 0 0-4.737-5.227H456.87l6.667-6.667c2.074-2.074 2.409-5.442.542-7.703a5.616 5.616 0 0 0-8.312-.409l-15.139 15.139a11.995 11.995 0 0 0-6.502 4.16H271.5V116.9a28 28 0 0 1-5.222.495h-21.557c-1.785 0-3.529-.175-5.222-.495v15.042H77.875a11.99 11.99 0 0 0-6.502-4.16l-14.969-14.969c-2.074-2.074-5.442-2.409-7.703-.542a5.616 5.616 0 0 0-.409 8.312l6.838 6.838H21.909c-2.485 0-4.705 1.817-4.941 4.292a4.76 4.76 0 0 0 4.737 5.227h18.013v1.656H13.464c-2.486 0-4.705 1.817-4.941 4.292a4.76 4.76 0 0 0 4.737 5.226h26.458v1.656H15.451c-2.486 0-4.706 1.817-4.941 4.292a4.76 4.76 0 0 0 4.737 5.227h24.471v1.656H24.393c-2.486 0-4.705 1.817-4.941 4.292a4.76 4.76 0 0 0 4.737 5.226H68.5c3.797 0 7.176-1.768 9.375-4.52H182.5a5 5 0 0 1 5 5v10.849c0 11.713 4.564 22.354 12 30.265V299l3.5 1h105l3.5-1v-86.942c7.436-7.91 12-18.552 12-30.265v-10.849a5 5 0 0 1 5-5h105.625c2.199 2.752 5.578 4.52 9.375 4.52h44.106c2.485 0 4.705-1.817 4.941-4.291a4.76 4.76 0 0 0-4.737-5.227h-15.528v-1.656h24.267c2.486 0 4.705-1.817 4.941-4.292a4.76 4.76 0 0 0-4.737-5.227h-24.471v-1.656z" fill="#ffcebf"></path><path d="M216.5 218.036c0-3.489-1.05-6.927-3.147-9.716a43.978 43.978 0 0 1-8.853-26.526v-10.849a5 5 0 0 0-5-5h-17a5 5 0 0 1 5 5v10.849c0 11.713 4.564 22.354 12 30.265V299l3.5 1h17l-3.5-1z" fill="#ffb09e"></path><path d="M207.614 59.607h9.084V49.502c0-6.697 5.448-12.146 12.145-12.146h53.314c6.697 0 12.146 5.448 12.146 12.146v10.105h9.084c.412 0 .818.023 1.219.062V31.522C304.606 14.113 290.493 0 273.083 0h-35.166c-17.409 0-31.523 14.113-31.523 31.522v28.147a12.94 12.94 0 0 1 1.22-.062z" fill="#3e5959"></path><path d="M240.289 31.522C240.289 14.113 254.402 0 271.811 0h-33.894c-17.409 0-31.523 14.113-31.523 31.522v28.147a12.61 12.61 0 0 1 1.219-.062h9.084V49.502c0-6.697 5.448-12.146 12.145-12.146h11.446v-5.834z" fill="#384949"></path><path d="M216.698 89.372V58.608h-9.084c-7.56 0-13.689 6.129-13.689 13.689v6.739c0 7.56 6.129 13.688 13.689 13.688h9.291a28.1 28.1 0 0 1-.207-3.352z" fill="#f89580"></path><path d="M303.386 58.608h-9.084v30.764c0 1.135-.076 2.252-.207 3.352h9.291c7.56 0 13.689-6.128 13.689-13.688v-6.739c0-7.561-6.129-13.689-13.689-13.689z" fill="#ffb09e"></path><path d="M215.698 49.501v39.871c0 16.029 12.994 29.024 29.024 29.024h21.556c16.029 0 29.024-12.994 29.024-29.024V49.501c0-7.26-5.885-13.145-13.145-13.145h-53.314c-7.26 0-13.145 5.886-13.145 13.145z" fill="#ffcebf"></path><path d="M232.5 89.372V49.501c0-7.26 5.885-13.145 13.145-13.145h-16.802c-7.26 0-13.145 5.885-13.145 13.145v39.871c0 16.03 12.994 29.024 29.024 29.024h16.802c-16.03 0-29.024-12.994-29.024-29.024z" fill="#ffb09e"></path><g fill="#f89580"><path d="M243.263 69.265v-8.038a6 6 0 0 0-12 0v8.038a6 6 0 0 0 12 0zM273.737 55.227a6 6 0 0 0-6 6v8.038a6 6 0 0 0 12 0v-8.038a6 6 0 0 0-6-6zM263.726 87.908c-4.535 4.534-11.916 4.536-16.451-.001a6 6 0 0 0-8.485 8.486c4.607 4.606 10.659 6.91 16.711 6.91s12.104-2.304 16.711-6.911a5.999 5.999 0 0 0 0-8.484 6 6 0 0 0-8.486 0z" fill="#f89580"></path></g><path d="M199.5 299v71h42l6.712-15.94a5 5 0 0 1 4.608-3.06h5.36a5 5 0 0 1 4.608 3.06L269.5 370h42v-71z" fill="#ffffff"></path><path d="M199.5 299h17v71h-17z" fill="#eaf9fa"></path><path d="M255.5 290a5 5 0 0 1-5-5v-2a5 5 0 1 1 10 0v2a5 5 0 0 1-5 5zM246.5 161.5a4.984 4.984 0 0 1-3.536-1.465l-4.106-4.106a9.934 9.934 0 0 0-7.071-2.929H204.5a5 5 0 1 1 0-10h27.287c5.343 0 10.366 2.08 14.143 5.858l4.106 4.106a4.998 4.998 0 0 1 0 7.07 4.98 4.98 0 0 1-3.536 1.466zM264.5 161.5a4.998 4.998 0 0 1-3.536-8.535l4.106-4.106a19.867 19.867 0 0 1 14.143-5.858H306.5a5 5 0 1 1 0 10h-27.287a9.932 9.932 0 0 0-7.071 2.929l-4.106 4.106a4.987 4.987 0 0 1-3.536 1.464zM225 216h-3a5 5 0 1 1 0-10h3a5 5 0 1 1 0 10zM289 216h-3a5 5 0 1 1 0-10h3a5 5 0 1 1 0 10zM255.5 219a5 5 0 0 1-5-5v-30a5 5 0 1 1 10 0v30a5 5 0 0 1-5 5z" fill="#ffb09e"></path><path d="M268.5 228h-26c-11.028 0-20 8.972-20 20v40a5 5 0 1 0 10 0v-27h18v6a5 5 0 1 0 10 0v-6h18v27a5 5 0 1 0 10 0v-40c0-11.028-8.972-20-20-20zm-36 23v-3c0-5.514 4.486-10 10-10h8v13zm28 0v-13h8c5.514 0 10 4.486 10 10v3z" fill="#ffb09e"></path><path d="M255.5 345c10.217 0 18.5-8.283 18.5-18.5V299h-37v27.5c0 10.217 8.283 18.5 18.5 18.5z" fill="#eaf9fa"></path><path d="M250.5 326.5V299H237v27.5c0 10.217 8.283 18.5 18.5 18.5 2.385 0 4.657-.467 6.75-1.289-6.875-2.699-11.75-9.378-11.75-17.211z" fill="#c8effe"></path></g></svg>