<svg viewBox="0 0 496.243 496.243" xmlns="http://www.w3.org/2000/svg"><g><path d="M49.958 106.423h182.977v38.301L191.8 208.116l-141.842-6.888z" fill="#dd9162"></path><path d="M186.865 76.767c0-12.865 5.291-27.971 17.74-29.509a25.53 25.53 0 0 1 3.122-.195c13.922 0 25.208 11.286 25.208 25.208v45.656c0 13.922-11.286 25.208-25.208 25.208a25.53 25.53 0 0 1-3.122-.195c-12.449-1.538-17.928-15.902-17.928-28.767z" fill="#dd9162"></path><path d="M218.639 128.256c-.262.006-.53.004-.805-.004-7.433-.233-13.229-6.567-13.229-14.004v-66.99c-12.448 1.539-22.086 12.148-22.086 25.013l-3.313 19.815 3.313 25.841c0 12.864 9.638 23.474 22.086 25.012 1.021.129 2.061.198 3.122.198 11.696 0 21.537-7.976 24.375-18.78a25.06 25.06 0 0 1-13.463 3.899z" fill="#d3865b"></path><path d="M134.61 60.978c0-12.865 7.13-26.469 19.579-28.007a25.53 25.53 0 0 1 3.122-.195c13.922 0 25.208 11.286 25.208 25.208v61.531c0 2.832-.467 5.556-1.329 8.097 0 0-3.919 4.693-5.928 7.074-4.624 5.479-10.221 10.037-17.952 10.037a25.53 25.53 0 0 1-3.122-.195c-12.448-1.538-19.954-15.799-19.954-28.663z" fill="#dd9162"></path><path d="m167.231 131.828-.114-.001c-7.184-.051-12.928-6.019-12.928-13.203V32.971c-12.448 1.539-22.086 12.148-22.086 25.013l-2.209 27.242 2.209 34.289c0 12.864 9.638 23.474 22.086 25.013v-.001c1.021.129 2.061.198 3.122.198 11.091 0 20.506-7.163 23.879-17.113a25.146 25.146 0 0 1-13.959 4.216z" fill="#d3865b"></path><path d="M85.174 110.789 83.67 52.331c0-12.865 7.653-28.144 20.102-29.682a25.53 25.53 0 0 1 3.122-.195c13.922 0 25.208 11.286 25.208 25.208v67.883c0 13.922-11.286 25.208-25.208 25.208-1.057 0-2.099-.07-3.122-.196-8.052-.995-18.598-14.167-18.598-29.768zM34.43 116.479l-.101-47.795c0-22.838 18.63-29.37 18.63-29.37a25.814 25.814 0 0 1 3.321-.213c13.133 0 23.939 9.887 25.269 22.568.091.868-.789 1.739-.789 2.631l1.38 51.726z" fill="#dd9162"></path><path d="m82.14 116.026-.454-51.717c0-.892-.048-1.772-.139-2.64-.839.102-1.68.226-2.524.396L59.73 66.544c-3.462.804-6.77-1.825-6.77-5.379V39.322c-12.461 1.615-22.086 12.182-22.086 24.987v52.171l22.086-.195z" fill="#d3865b"></path><path d="M116.815 132.82h-.047c-4.229.014-6.649-4.816-4.146-8.225 6.235-8.495 9.227-19.78 7.368-31.323-1.663-10.324-6.897-18.937-14.061-24.59-1.345-1.061-2.156-2.657-2.156-4.37V22.65c-12.448 1.539-22.086 12.148-22.086 25.013v16.394L77.27 87.482l4.417 26.704c0 10.302 4.532 18.984 13.088 23.453l.004-.001a25.06 25.06 0 0 0 8.925 2.91l.065.011a24.92 24.92 0 0 0 3.125.198c8.274 0 15.615-3.988 20.208-10.139a24.926 24.926 0 0 1-10.287 2.202z" fill="#d3865b"></path><path d="m175.969 194.58-53.918-.009a4.386 4.386 0 0 1-3.845-2.254c-11.684-21.238-30.829-31.241-54.11-31.781-1.496-.035-2.773-1.094-3.116-2.55l-5.022-21.345a3.313 3.313 0 0 1 2.386-3.964l26.082-6.827c13.606-2.949 22.245-16.37 19.296-29.976-2.949-13.606-16.37-22.245-29.976-19.296L22.093 89.23c-11.625 2.52-19.287 17.591-19.53 28.984-.003.001.282 40.319.282 40.319.025 29.522 39.664 69.104 66.405 81.611 10.769 5.037 8.528 185.732 9.076 224.907.051 3.652 5.991 7.139 5.991 8.738h122.782s6.453-2.189 6.476-4.912c.041-4.775.085-201.966.132-202.36.821-6.963 2.464-17.512 4.892-23.656.081-.206.16-.408.243-.604 3.962-9.323 7.153-19.998 9.556-30.986 2.005-9.169 3.061-18.522 3.243-27.906l1.293-38.641z" fill="#dd9162"></path><path d="M75.776 229.96c-5.33-7.438-15.225-14.69-21.475-17.61-26.747-12.496-32.146-29.935-32.171-59.456l-.037-63.664C7.685 91.617.248 102.814.013 113.843l-.013.002.043 50.696c.025 29.522 17.121 56.365 43.863 68.872 11.311 5.29 20.368 15.271 21.061 32.677.018.463.031 197.864.038 202.75a4.955 4.955 0 0 0 4.96 4.948h14.352c0-.601.003-209.607.006-210.242.046-9.058.115-21.498-8.547-33.586zM132.618 207.739a7.404 7.404 0 0 1-2.341.377c-3.125 0-6.032-1.974-7.063-5.099a79.706 79.706 0 0 0-3.68-9.246c-6.567-13.849-16.369-23.135-29.325-27.777-6.587-2.371-13.998-3.532-22.202-3.482h-.04a7.43 7.43 0 0 1-5.575-2.51 7.342 7.342 0 0 1-1.667-3.214l-4.782-20.268a3.291 3.291 0 0 1 2.401-3.839l11.28-2.956 3.932 16.65a1.985 1.985 0 0 0 1.788 1.515c28.796 2.22 50.072 18.556 60.668 46.685.466 1.23.903 2.49 1.329 3.77a7.435 7.435 0 0 1-4.723 9.394z" fill="#d3865b"></path><path d="M313.331 148.313h182.912v38.288l-41.12 63.37-141.792-6.886z" fill="#f4aa73"></path><path d="M450.189 118.668c0-12.86 5.289-27.961 17.733-29.498a25.513 25.513 0 0 1 3.121-.195c13.917 0 25.199 11.282 25.199 25.199v45.64c0 13.917-11.282 25.199-25.199 25.199-1.057 0-2.098-.069-3.121-.195-12.444-1.537-17.921-15.897-17.921-28.757z" fill="#f4aa73"></path><path d="M481.952 170.139c-.262.006-.53.004-.805-.004-7.43-.233-13.224-6.565-13.224-13.999V89.169c-12.444 1.538-22.078 12.144-22.078 25.004l-3.312 19.808 3.312 25.831c0 12.859 9.634 23.465 22.078 25.004 1.02.129 2.061.198 3.121.198 11.692 0 21.53-7.973 24.366-18.773a25.048 25.048 0 0 1-13.458 3.898z" fill="#ea9f6c"></path><path d="M397.953 102.884c0-12.86 7.128-26.459 19.572-27.997a25.513 25.513 0 0 1 3.121-.195c13.917 0 25.199 11.282 25.199 25.199v61.51c0 2.831-.467 5.554-1.328 8.094 0 0-3.917 4.692-5.926 7.071-4.622 5.477-10.217 10.033-17.945 10.033-1.057 0-2.098-.069-3.121-.195-12.444-1.538-19.947-15.793-19.947-28.653z" fill="#f4aa73"></path><path d="M430.562 173.61h-.114c-7.181-.051-12.923-6.017-12.923-13.199V74.789c-12.443 1.538-22.078 12.144-22.078 25.004l-2.208 27.233 2.208 34.277c0 12.86 9.634 23.465 22.078 25.004v-.001c1.02.129 2.061.198 3.121.198 11.087 0 20.498-7.16 23.87-17.107a25.14 25.14 0 0 1-13.954 4.213z" fill="#ea9f6c"></path><path d="m348.535 152.678-1.503-58.437c0-12.86 7.65-28.134 20.095-29.671a25.513 25.513 0 0 1 3.121-.195c13.917 0 25.199 11.282 25.199 25.199V157.433c0 13.917-11.282 25.199-25.199 25.199-1.057 0-2.098-.07-3.121-.196-8.05-.996-18.592-14.163-18.592-29.758zM297.809 158.366l-.101-47.778c0-22.83 18.623-29.36 18.623-29.36a25.799 25.799 0 0 1 3.32-.213c13.128 0 23.93 9.883 25.26 22.56.091.867-.789 1.739-.789 2.63l1.38 51.708z" fill="#f4aa73"></path><path d="m345.502 157.912-.453-51.698c0-.891-.048-1.771-.139-2.639-.839.102-1.68.226-2.523.396l-19.287 4.477c-3.46.803-6.768-1.824-6.768-5.377V81.236c-12.457 1.614-22.078 12.178-22.078 24.978v52.152l22.078-.195z" fill="#ea9f6c"></path><path d="M380.164 174.701h-.047c-4.228.014-6.646-4.814-4.145-8.222 6.233-8.492 9.224-19.773 7.366-31.311-1.662-10.32-6.895-18.93-14.056-24.582-1.344-1.061-2.155-2.656-2.155-4.369l-.001-41.648c-12.443 1.538-22.078 12.144-22.078 25.004l-.138 14.002.138 2.386-4.416 23.417 4.416 26.695c0 10.298 4.531 18.977 13.084 23.445l.004-.001a25.063 25.063 0 0 0 8.922 2.909l.065.011c1.021.129 2.063.198 3.124.198 8.271 0 15.609-3.987 20.201-10.135a24.928 24.928 0 0 1-10.284 2.201z" fill="#ea9f6c"></path><path d="m439.298 236.439-53.899-.009a4.386 4.386 0 0 1-3.844-2.254c-11.68-21.23-30.818-31.23-54.091-31.77-1.495-.035-2.772-1.093-3.114-2.549l-5.021-21.338a3.311 3.311 0 0 1 2.385-3.962l26.073-6.824c13.601-2.948 22.237-16.364 19.289-29.965-2.948-13.601-16.364-22.237-29.965-19.289l-51.636 12.648c-11.621 2.519-19.28 17.585-19.523 28.974-.003.001.282 40.305.282 40.305.025 29.511 30.561 62.628 57.293 75.13l3.518 2.518c11.769 5.504 23.899 195.736 23.899 195.736l10.536-4.811 10.334 4.809 100.117.002a4.953 4.953 0 0 0 4.958-4.91c.041-4.773.085-160.135.131-160.529.821-6.961 2.463-17.506 4.891-23.647.081-.206.159-.408.243-.604 3.96-9.32 7.151-19.991 9.553-30.975 2.005-9.166 3.06-18.515 3.242-27.896l1.293-38.628z" fill="#f4aa73"></path><g fill="#ea9f6c"><path d="m285.512 194.768-.036-63.642c-14.403 2.386-21.837 13.579-22.073 24.604l-.013.003.043 50.679a76.051 76.051 0 0 0 1.467 14.758h23.181c-1.918-7.571-2.56-16.276-2.569-26.402zM349.68 197.194c-1.592.066-3.453-.06-6.425.653-2.453.589-4.949-.813-5.683-3.226l-6.48-21.303-11.276 2.955a3.29 3.29 0 0 0-2.4 3.838l4.819 20.731a63.171 63.171 0 0 1 1.636 15.065l-.719 59.626 31.465 198.255 17.197-.001c.367-1.527.565-3.124.575-4.76 0 0 .037-33.713.068-41.03.016-3.731.461-7.434 1.21-11.09.077-.377.148-.75.209-1.118.85-5.143 10.176-33.232 12.943-45.866 2.192-10.026 3.411-20.469 3.62-31.05l.792-12.337.507-14.583v-72.702c0-23.195-18.862-42.057-42.058-42.057z" fill="#ea9f6c"></path></g><path d="M192.158 274.221H373.84v38.03l-40.844 62.944-140.838-6.84z" fill="#ffd18d"></path><path d="M328.096 244.775c0-12.774 5.254-27.773 17.614-29.3a25.171 25.171 0 0 1 3.1-.194c13.823 0 25.03 11.206 25.03 25.03v45.333c0 13.823-11.206 25.03-25.03 25.03-1.05 0-2.084-.068-3.1-.194-12.36-1.527-17.801-15.79-17.801-28.563z" fill="#ffd18d"></path><path d="M359.645 295.9c-.26.006-.527.004-.8-.004-7.38-.231-13.135-6.521-13.135-13.905v-66.516c-12.36 1.528-21.929 12.062-21.929 24.836l-3.289 19.675 3.289 25.658c0 12.773 9.569 23.308 21.929 24.835 1.014.128 2.047.197 3.1.197 11.614 0 21.385-7.92 24.202-18.647a24.88 24.88 0 0 1-13.367 3.871z" fill="#fbbd80"></path><path d="M276.211 229.098c0-12.773 7.08-26.281 19.44-27.809a25.171 25.171 0 0 1 3.1-.194c13.823 0 25.03 11.206 25.03 25.03v61.096c0 2.812-.464 5.516-1.319 8.04 0 0-3.891 4.66-5.886 7.024-4.591 5.44-10.149 9.966-17.824 9.966-1.05 0-2.084-.069-3.1-.194-12.36-1.527-19.813-15.687-19.813-28.46z" fill="#ffd18d"></path><path d="M308.601 299.446h-.113c-7.133-.051-12.837-5.977-12.837-13.11v-85.047c-12.36 1.528-21.929 12.062-21.929 24.835l-2.193 27.049 2.193 34.046c0 12.773 9.57 23.308 21.929 24.835v-.001c1.014.128 2.047.197 3.1.197 11.013 0 20.361-7.112 23.71-16.992a24.943 24.943 0 0 1-13.86 4.188z" fill="#fbbd80"></path><path d="m227.126 278.556-1.493-58.044c0-12.774 7.599-27.945 19.959-29.472a25.171 25.171 0 0 1 3.1-.194c13.823 0 25.03 11.206 25.03 25.03v67.402c0 13.823-11.206 25.03-25.03 25.03a25.17 25.17 0 0 1-3.1-.195c-7.995-.987-18.466-14.066-18.466-29.557zM176.74 284.206l-.1-47.457c0-22.676 18.498-29.162 18.498-29.162 1.079-.14 2.18-.212 3.298-.212 13.04 0 23.769 9.817 25.09 22.408.09.862-.783 1.727-.783 2.612l1.37 51.36z" fill="#ffd18d"></path><path d="m224.113 283.756-.45-51.351c0-.885-.048-1.76-.138-2.621-.833.102-1.668.224-2.506.394l-19.157 4.447c-3.437.798-6.722-1.812-6.722-5.34v-21.689c-12.373 1.604-21.93 12.096-21.93 24.81V284.207l21.93-.194z" fill="#fbbd80"></path><path d="M258.542 300.431h-.047c-4.199.014-6.602-4.781-4.117-8.167 6.191-8.435 9.161-19.64 7.316-31.101-1.651-10.251-6.848-18.802-13.961-24.416-1.335-1.054-2.14-2.638-2.14-4.339v-41.367c-12.36 1.528-21.929 12.062-21.929 24.836v16.278l-4.386 23.259 4.386 26.515c0 10.229 4.5 18.849 12.996 23.287l.003-.001a24.887 24.887 0 0 0 8.862 2.889l.065.011a24.77 24.77 0 0 0 3.103.197c8.215 0 15.504-3.96 20.065-10.067a24.762 24.762 0 0 1-10.216 2.186z" fill="#fbbd80"></path><path d="m317.278 361.754-53.536-.009a4.357 4.357 0 0 1-3.818-2.238c-11.602-21.087-30.611-31.02-53.727-31.556-1.485-.034-2.753-1.086-3.094-2.532l-4.987-21.194a3.29 3.29 0 0 1 2.369-3.936l25.898-6.778c13.51-2.928 22.088-16.254 19.159-29.764-2.928-13.51-16.254-22.088-29.763-19.16l-51.288 12.562c-11.543 2.502-19.15 17.467-19.392 28.779-.003.001.28 40.034.28 40.034.025 29.313 16.001 57.57 42.553 69.989 11.69 5.467 38.342 59.217 38.342 77.838h128.343s.084-40.216.131-40.607c.816-6.914 2.447-17.388 4.858-23.488.081-.204.158-.405.241-.599 3.934-9.258 7.103-19.857 9.489-30.767 1.991-9.104 3.039-18.39 3.22-27.708l1.284-38.368z" fill="#ffd18d"></path><path d="M217.794 396.884c-5.292-7.386-15.118-14.586-21.323-17.486-26.557-12.408-31.918-29.723-31.944-59.035l-.036-63.214c-14.306 2.37-21.69 13.488-21.924 24.438l-.013.003.043 50.338c.025 29.313 17 55.966 43.552 68.385 11.231 5.253 20.223 15.163 20.912 32.446.018.46.037 41.03.037 41.03h19.175c0-.596.003-42.925.006-43.556.047-8.995.115-21.347-8.485-33.349zM274.233 374.82a7.355 7.355 0 0 1-2.325.374c-3.103 0-5.989-1.96-7.013-5.063a79.318 79.318 0 0 0-3.654-9.18c-6.521-13.751-16.253-22.971-29.117-27.581-6.541-2.354-13.899-3.507-22.045-3.457h-.039a7.38 7.38 0 0 1-5.536-2.492 7.297 7.297 0 0 1-1.655-3.191l-4.748-20.124a3.268 3.268 0 0 1 2.384-3.812l11.2-2.935 3.904 16.533a1.97 1.97 0 0 0 1.775 1.504c28.592 2.205 49.718 18.425 60.239 46.355a98.32 98.32 0 0 1 1.32 3.743 7.382 7.382 0 0 1-4.69 9.326z" fill="#fbbd80"></path></g></svg>