<svg viewBox="0 0 512 512" xmlns="http://www.w3.org/2000/svg"><g><path d="M60.153 445.101a7.727 7.727 0 0 1-5.464-13.19l56.353-56.344a7.726 7.726 0 1 1 10.926 10.928l-56.351 56.343a7.711 7.711 0 0 1-5.464 2.263zM451.848 445.101a7.708 7.708 0 0 1-5.464-2.263l-59.326-59.325a7.727 7.727 0 0 1 10.928-10.927l59.326 59.325a7.727 7.727 0 0 1-5.464 13.19z" fill="#1f4c68"></path><path d="M467.05 446.107H44.95c-2.753 0-4.132-3.329-2.185-5.276l14.12-14.12a6.18 6.18 0 0 1 4.371-1.81h389.49c1.639 0 3.212.651 4.371 1.81l14.12 14.12c1.946 1.947.567 5.276-2.187 5.276zM505.819 397.761H6.181A6.18 6.18 0 0 1 0 391.58V72.084a6.18 6.18 0 0 1 6.181-6.181h499.638A6.18 6.18 0 0 1 512 72.084V391.58a6.18 6.18 0 0 1-6.181 6.181z" fill="#385f82"></path><path d="M512 72.076v288.44H0V72.076a6.18 6.18 0 0 1 6.181-6.181h499.638A6.18 6.18 0 0 1 512 72.076z" fill="#89bf4a"></path><path d="M512 72.074v288.44H0V72.074a6.18 6.18 0 0 1 6.181-6.181h499.638A6.181 6.181 0 0 1 512 72.074z" fill="#4ad4ff"></path><path d="M290.284 360.514H200.69l2.173-73.926 1.896-64.87 2.112-71.773h75.172l2.812 71.773 3.07 78.541z" fill="#ffb229"></path><path d="M290.284 360.514h-25.188c-10.827 0-19.604-8.787-19.604-19.615 0-5.419 2.194-10.312 5.738-13.866a19.584 19.584 0 0 1 13.866-5.738h23.653l.247 6.346 1.288 32.873z" fill="#c97f4c"></path><path d="M287.925 300.259A79.502 79.502 0 0 1 256 306.924c-19.666 0-38.508-7.222-53.137-20.336l1.896-64.87h80.097l3.069 78.541z" fill="#ff8b00"></path><path d="M330.531 103.11c-.141.387-.301.767-.475 1.154l-7.988 17.188-13.705 29.523-26.167-12.144 18.13-39.029 3.567-7.691c3.352-7.221 11.927-10.36 19.149-7.008 6.845 3.181 10.026 11.037 7.489 18.007z" fill="#c97f4c"></path><path d="m322.069 121.452-13.705 29.523-26.167-12.144 18.13-39.029a79.64 79.64 0 0 1 11.982 9.821 80.4 80.4 0 0 1 9.76 11.829z" fill="#aa6344"></path><path d="m227.701 138.828-26.162 12.152-12.838-27.651-8.858-19.066a14.36 14.36 0 0 1-.475-11.015 14.336 14.336 0 0 1 7.48-8.142c7.219-3.358 15.802-.223 19.157 7.005l4.069 8.76 17.627 37.957z" fill="#c97f4c"></path><path d="m210.074 100.872 17.627 37.956-26.162 12.152-12.838-27.651a80.01 80.01 0 0 1 10.995-13.703 79.232 79.232 0 0 1 10.378-8.754z" fill="#aa6344"></path><path d="M361.784 173.51c-4.434 9.952-15.776 14.671-25.864 10.999l-.29-.106c-.355-.14-.696-.286-1.047-.436l-47.071-20.915 16.743-37.659 25.939 11.535 21.129 9.389c10.39 4.616 15.079 16.793 10.461 27.193z" fill="#ffb229"></path><path d="M335.63 184.403c-.355-.14-.696-.286-1.047-.436l-47.071-20.915 16.743-37.659 25.939 11.535c3.577 9.118 5.437 18.917 5.439 29.003l-.003 18.472z" fill="#ff8b00"></path><path d="m224.487 163.048-47.07 20.92c-.343.16-.689.297-1.045.431a20.507 20.507 0 0 1-14.368.109 20.561 20.561 0 0 1-11.784-10.998c-4.624-10.398.06-22.573 10.458-27.197l21.133-9.388 25.937-11.532 16.739 37.655z" fill="#ffb229"></path><path d="m207.748 125.394 16.739 37.655-47.07 20.92c-.343.16-.689.297-1.045.431l.003-18.471c-.002-10.086 1.863-19.878 5.436-29.003l25.937-11.532z" fill="#ff8b00"></path><path d="M323.268 165.934v61.368c0 2.287-.113 4.543-.34 6.779a66.74 66.74 0 0 1-4.759 18.976c-10.116 24.374-34.14 41.506-62.161 41.506-34.861 0-63.531-26.517-66.931-60.482a67.023 67.023 0 0 1-.34-6.779v-61.368c0-37.148 30.122-67.26 67.271-67.26 18.574 0 35.387 7.531 47.563 19.697 10.59 10.59 17.657 24.693 19.316 40.424a65.44 65.44 0 0 1 .381 7.139z" fill="#ffb229"></path><path d="M323.268 165.934v61.368c0 2.287-.113 4.543-.34 6.779a66.74 66.74 0 0 1-4.759 18.976h-40.61v-55.99c0-21.139 17.142-38.271 38.281-38.271h7.047c.257 2.337.381 4.727.381 7.138zM188.701 165.934v61.368c0 2.287.113 4.543.34 6.779a66.74 66.74 0 0 0 4.759 18.976h40.61v-55.99c0-21.139-17.142-38.271-38.281-38.271h-7.047a65.409 65.409 0 0 0-.381 7.138z" fill="#fedfc5"></path><path d="M322.926 234.078c-3.389 33.965-32.059 60.482-66.921 60.482-34.861 0-63.531-26.517-66.931-60.482h133.852z" fill="#c97f4c"></path><path d="M235.543 272.027h-.054l-.146-.001a7.727 7.727 0 0 1 .052-15.453h.054l.146.001a7.727 7.727 0 0 1-.052 15.453zM276.605 272.068h-.054l-.146-.001a7.727 7.727 0 0 1 .052-15.453h.054l.146.001a7.727 7.727 0 0 1-.052 15.453z" fill="#aa6344"></path><path d="M213.563 208.759a7.725 7.725 0 0 1-7.726-7.726v-7.726a7.725 7.725 0 0 1 7.726-7.726 7.725 7.725 0 0 1 7.726 7.726v7.726a7.725 7.725 0 0 1-7.726 7.726zM298.437 208.759a7.725 7.725 0 0 1-7.726-7.726v-7.726a7.726 7.726 0 1 1 15.452 0v7.726a7.726 7.726 0 0 1-7.726 7.726z" fill="#4e7693"></path><path d="M86.02 125.996H40.239a6.18 6.18 0 0 1-6.181-6.181v-18.71a6.18 6.18 0 0 1 6.181-6.181H86.02a6.18 6.18 0 0 1 6.181 6.181v18.71a6.181 6.181 0 0 1-6.181 6.181z" fill="#e3e3e3"></path><circle cx="443.48" cy="228.54" fill="#9fedff" r="19.561"></circle><circle cx="147.87" cy="264.49" fill="#9fedff" r="19.561"></circle><circle cx="42.526" cy="280.27" fill="#9fedff" r="19.561"></circle><circle cx="463.04" cy="188.92" fill="#9fedff" r="11.821"></circle><circle cx="384.17" cy="256.42" fill="#9fedff" r="33.565"></circle><circle cx="88.56" cy="237.12" fill="#9fedff" r="33.565"></circle></g></svg>