<svg id="Flat" height="512" viewBox="0 0 340 340" width="512" xmlns="http://www.w3.org/2000/svg"><path d="m167.95 219.616-7.898-113.107 111.278 26.663v86.444z" fill="#dfe5ef"/><path d="m218.226 16.07h-116.133q39.969 61.743 99.073 117.1l116.133-.329z" fill="#ff6192"/><path d="m103.17 39.771-64.78 74.618v105.227h39.431l25.349-6.878 25.349 6.878h39.431v-105.227z" fill="#abb7ce"/><path d="m102.093 16.07-94.765 120.294 18.129-.329 77.067-96.258 80.513 93.395h18.129z" fill="#b74473"/><path d="m103.17 136.168h-25.349v83.448h25.349 25.349v-83.448z" fill="#444456"/><path d="m82.531 239.366a23.449 23.449 0 0 0 -15.5 5.83 74.108 74.108 0 0 1 -12.631 8.886c-36.088 20.391-41.338 50.818-41.846 63.718a6.147 6.147 0 0 0 6.383 6.132h49.308a6.184 6.184 0 0 0 6.383-5.786c.339-12.619 3.955-42.707 29.619-58.012a65.87 65.87 0 0 0 14.553-11.415c3.416-3.656.634-9.353-4.57-9.353z" fill="#ea9d9d"/><path d="m260.3 242.047h18.431v81.883h-18.431z" fill="#444456"/><rect fill="#a3bf91" height="78.834" rx="12.432" width="126.313" x="206.359" y="174.522"/><path d="m274.924 210.439h-7.188a4.435 4.435 0 0 1 0-8.869h6.134a6.648 6.648 0 0 1 5.172 2.455 3.5 3.5 0 1 0 5.424-4.426 13.607 13.607 0 0 0 -9.636-4.976v-4.065a3.5 3.5 0 0 0 -7 0v4.012h-.094a11.435 11.435 0 0 0 0 22.869h7.188a4.435 4.435 0 0 1 0 8.869h-6.135a6.708 6.708 0 0 1 -5.321-2.646 3.5 3.5 0 1 0 -5.582 4.224 13.734 13.734 0 0 0 9.944 5.365v4.069a3.5 3.5 0 0 0 7 0v-4.012h.094a11.435 11.435 0 0 0 0-22.869z" fill="#fff"/></svg>