<svg viewBox="0 0 60 60" xmlns="http://www.w3.org/2000/svg"><g><path d="M13 48h39v8H13c-2.208 0-4-1.792-4-4s1.792-4 4-4z" fill="#d4ddee"></path><path d="M7 51.77V8c0-3.87 3.13-7 7-7l1 1v42l-1 2z" fill="#1e719b"></path><path d="M53 3v43H14V1h37c1.1 0 2 .9 2 2z" fill="#23b0e2"></path><path d="M11 52.16c.09 1.62 1.54 2.84 3.16 2.84H52c.55 0 1 .45 1 1v2c0 .55-.45 1-1 1H14.29c-3.9 0-7.27-3.12-7.29-7v-.23c.06-1.85.83-3.5 2.05-4.72A6.958 6.958 0 0 1 14 45h39v3c0 .55-.45 1-1 1H14c-1.71 0-3.08 1.42-3 3.16z" fill="#1f97c1"></path><circle cx="34.5" cy="8.5" fill="#ffffff" r="2.5"></circle><path d="M30.481 18.536c.038-.114.057-.234.057-.354 0-.718-.67-1.264-1.367-1.093-.425.104-.8.236-1.074.343a.48.48 0 0 1-.635-.294l-.438-1.315a.478.478 0 0 1 .223-.573c.725-.401 2.523-1.25 4.745-1.25h.087c2.369.024 4.061 2.317 3.486 4.616l-2.012 6.848a1.121 1.121 0 0 0-.057.354c0 .718.67 1.264 1.367 1.093.425-.104.8-.236 1.074-.343a.48.48 0 0 1 .635.294l.438 1.315a.478.478 0 0 1-.223.573c-.725.401-2.523 1.25-4.745 1.25h-.087c-2.369-.024-4.061-2.317-3.486-4.616z" fill="#ffffff"></path><g fill="#2682bc"><path d="M42 35H24a1 1 0 1 1 0-2h18a1 1 0 1 1 0 2zM38 40H28a1 1 0 1 1 0-2h10a1 1 0 1 1 0 2z" fill="#2682bc"></path></g></g></svg>