<?xml version="1.0" encoding="iso-8859-1"?>
<!-- Generator: Adobe Illustrator 19.0.0, SVG Export Plug-In . SVG Version: 6.00 Build 0)  -->
<svg version="1.1" id="Capa_1" xmlns="http://www.w3.org/2000/svg" xmlns:xlink="http://www.w3.org/1999/xlink" x="0px" y="0px"
	 viewBox="0 0 472 472" style="enable-background:new 0 0 472 472;" xml:space="preserve">
<path style="fill:#00BBD6;" d="M82.428,472h-64v-56l32-24l32,24V472z"/>
<path style="fill:#29485A;" d="M42.428,448h16v24h-16V448z"/>
<path style="fill:#00BBD6;" d="M178.428,472h-64v-56l32-24l32,24V472z"/>
<path style="fill:#29485A;" d="M138.428,448h16v24h-16V448z"/>
<path style="fill:#00BBD6;" d="M178.428,360h-64v-56l32-24l32,24V360z"/>
<path style="fill:#29485A;" d="M138.428,336h16v24h-16V336z"/>
<path style="fill:#00BBD6;" d="M274.428,472h-64v-56l32-24l32,24V472z"/>
<path style="fill:#29485A;" d="M234.428,448h16v24h-16V448z"/>
<path style="fill:#00BBD6;" d="M370.428,472h-64v-56l32-24l32,24V472z"/>
<path style="fill:#29485A;" d="M330.428,448h16v24h-16V448z"/>
<path style="fill:#00BBD6;" d="M466.428,472h-64v-56l32-24l32,24V472z"/>
<path style="fill:#29485A;" d="M426.428,448h16v24h-16V448z"/>
<path style="fill:#00BBD6;" d="M274.428,360h-64v-56l32-24l32,24V360z"/>
<path style="fill:#29485A;" d="M234.428,336h16v24h-16V336z"/>
<path style="fill:#00BBD6;" d="M370.428,360h-64v-56l32-24l32,24V360z"/>
<path style="fill:#29485A;" d="M330.428,336h16v24h-16V336z"/>
<path style="fill:#00BBD6;" d="M466.428,360h-64v-56l32-24l32,24V360z"/>
<path style="fill:#29485A;" d="M426.428,336h16v24h-16V336z"/>
<path style="fill:#00BBD6;" d="M370.428,248h-64v-56l32-24l32,24V248z"/>
<path style="fill:#29485A;" d="M330.428,224h16v24h-16V224z"/>
<path style="fill:#00BBD6;" d="M466.428,248h-64v-56l32-24l32,24V248z"/>
<path style="fill:#29485A;" d="M426.428,224h16v24h-16V224z"/>
<path style="fill:#00BBD6;" d="M466.428,136h-64V80l32-24l32,24V136z"/>
<path style="fill:#29485A;" d="M426.428,112h16v24h-16V112z"/>
<path style="fill:#ED1C24;" d="M394.428,0h-32v16h11.152l-64.504,58.056c-0.639,0.584-1.18,1.267-1.6,2.024L237.748,200h-91.32
	c-1.756-0.003-3.464,0.577-4.856,1.648l-136,104l9.712,12.704L149.132,216h93.296c2.892,0.001,5.559-1.559,6.976-4.08
	l71.352-126.848l65.672-59.112V40h16V8C402.428,3.582,398.846,0,394.428,0L394.428,0z"/>
<g>
	<path style="fill:#29485A;" d="M26.428,16h104v16h-104V16z"/>
	<path style="fill:#29485A;" d="M26.428,48h104v16h-104V48z"/>
	<path style="fill:#29485A;" d="M26.428,80h56v16h-56V80z"/>
</g>
<path style="fill:#ED1C24;" d="M77.74,148.688l22.632-22.632c-8.995-9.013-21.21-14.071-33.944-14.056v32
	C70.672,143.996,74.743,145.683,77.74,148.688z"/>
<path style="fill:#87C663;" d="M114.428,160c0.015-12.734-5.043-24.949-14.056-33.944L77.74,148.688
	c6.246,6.248,6.246,16.376,0,22.624l22.632,22.632C109.385,184.949,114.443,172.734,114.428,160L114.428,160z"/>
<path style="fill:#00BBD6;" d="M66.428,176c-8.837,0-16-7.163-16-16s7.163-16,16-16v-32c-26.51,0.003-47.997,21.496-47.994,48.006
	c0.003,26.51,21.496,47.997,48.006,47.994c12.727-0.002,24.932-5.057,33.933-14.056L77.74,171.312
	C74.743,174.317,70.672,176.004,66.428,176z"/>
<g>
</g>
<g>
</g>
<g>
</g>
<g>
</g>
<g>
</g>
<g>
</g>
<g>
</g>
<g>
</g>
<g>
</g>
<g>
</g>
<g>
</g>
<g>
</g>
<g>
</g>
<g>
</g>
<g>
</g>
</svg>
