<svg viewBox="0 0 447.976 447.976" xmlns="http://www.w3.org/2000/svg"><g><path d="m433.936 190.044-128-128c-18.752-18.752-49.12-18.752-67.872 0-18.752 18.72-18.752 49.152 0 67.872l94.048 94.08-94.048 94.048c-18.752 18.752-18.752 49.12 0 67.872 9.344 9.408 21.632 14.08 33.92 14.08s24.576-4.672 33.952-14.048l128-128c18.72-18.752 18.72-49.152 0-67.904z" fill="#ffc107"></path><path d="m209.936 190.044-128-128c-18.752-18.752-49.12-18.752-67.872 0-18.752 18.72-18.752 49.152 0 67.872l94.048 94.08-94.048 94.048c-18.752 18.752-18.752 49.12 0 67.872 9.344 9.408 21.632 14.08 33.92 14.08s24.576-4.672 33.952-14.048l128-128c18.72-18.752 18.72-49.152 0-67.904z" fill="#ffc107"></path></g></svg>