<svg viewBox="0 0 511 512" xmlns="http://www.w3.org/2000/svg"><g><path d="M479.34 379.324H32.8C14.96 379.324.5 364.86.5 347.02V32.3C.5 14.46 14.96 0 32.8 0h446.54c17.84 0 32.3 14.46 32.3 32.3v314.72c0 17.84-14.46 32.304-32.3 32.304zm0 0" fill="#5290d9"></path><path d="M511.637 32.305v314.718c0 17.84-14.453 32.293-32.293 32.293h-20.95c17.84 0 32.305-14.453 32.305-32.293V32.305C490.7 14.465 476.234 0 458.395 0h20.949c17.84 0 32.293 14.465 32.293 32.305zm0 0" fill="#3c7dbc"></path><path d="M454.582 142.172H179.848a5.146 5.146 0 0 1-5.145-5.145v-27.07a5.144 5.144 0 0 1 5.145-5.144h274.734c2.844 0 5.145 2.3 5.145 5.144v27.07c0 2.844-2.301 5.145-5.145 5.145zm0 0" fill="#e6f2ec"></path><path d="M459.727 109.957v27.074a5.146 5.146 0 0 1-5.145 5.145H433.73a5.145 5.145 0 0 0 5.141-5.145v-27.074c0-2.84-2.3-5.144-5.14-5.144h20.851a5.146 5.146 0 0 1 5.145 5.144zm0 0" fill="#d5e2db"></path><path d="M296.363 386.223h-80.586V505.71c0 4.41 4.426 7.445 8.543 5.86l29.492-11.364a6.293 6.293 0 0 1 4.516 0l29.496 11.363c4.113 1.586 8.54-1.453 8.54-5.86zm0 0" fill="#ff5426"></path><path d="M296.363 386.219V505.71c0 4.41-4.422 7.45-8.539 5.863l-6.316-2.433V386.219zm0 0" fill="#f04424"></path><path d="M360.543 334.574c0 10.68-12.441 19.258-15.57 28.89-3.243 9.985 1.672 24.216-4.375 32.528-6.11 8.39-21.203 8.09-29.598 14.2-8.313 6.046-12.652 20.53-22.637 23.773-9.633 3.125-21.617-5.938-32.293-5.938-10.675 0-22.66 9.063-32.293 5.938-9.984-3.242-14.324-17.727-22.636-23.774-8.391-6.109-23.489-5.804-29.598-14.199-6.047-8.312-1.133-22.543-4.375-32.527-3.129-9.633-15.57-18.211-15.57-28.89 0-10.677 12.441-19.255 15.57-28.887 3.242-9.985-1.672-24.215 4.375-32.528 6.11-8.39 21.203-8.09 29.598-14.2 8.312-6.046 12.652-20.53 22.636-23.772 9.633-3.125 21.618 5.933 32.293 5.933 10.676 0 22.66-9.058 32.293-5.933 9.985 3.242 14.325 17.726 22.637 23.773 8.39 6.11 23.488 5.805 29.598 14.2 6.047 8.308 1.132 22.542 4.375 32.527 3.129 9.632 15.57 18.21 15.57 28.886zm0 0" fill="#ffcd6b"></path><path d="M344.973 363.465c-3.243 9.984 1.668 24.219-4.375 32.523-6.11 8.395-21.203 8.094-29.598 14.203-8.313 6.047-12.652 20.524-22.633 23.77-5.277 1.715-11.246-.223-17.324-2.332 2.457.851 9.105-10.676 10.242-12.328 6.235-9.04 16.309-13.977 24.813-20.492 8.726-6.688 13.625-13.809 16.082-24.84 1.36-6.106 1.629-12.012 5.375-17.324 4.941-7.012 11.968-13.61 11.968-22.61 0-10.683-12.453-19.273-15.59-28.918-2.78-8.566-.503-18.273-5.199-26.281-3.859-6.582-10.78-11.379-17.218-15.172-5.258-3.098-10.563-6.226-14.743-10.75-1.53-1.656-12.613-16.46-14.734-15.734 5.73-1.965 11.344-3.602 16.324-1.989 9.985 3.243 14.324 17.72 22.637 23.77 8.395 6.105 23.484 5.809 29.594 14.2 6.047 8.308 1.136 22.542 4.379 32.523 3.125 9.636 15.57 18.218 15.57 28.894s-12.445 19.25-15.57 28.887zm0 0" fill="#ffc143"></path><path d="M321.453 334.574c0 36.114-29.273 65.387-65.383 65.387s-65.382-29.273-65.382-65.387c0-36.11 29.273-65.383 65.382-65.383 36.11 0 65.383 29.274 65.383 65.383zm0 0" fill="#ffaa00"></path><path d="M321.457 334.578c0 36.106-29.273 65.379-65.387 65.379-12.117 0-23.468-3.293-33.191-9.039a65.439 65.439 0 0 0 18.808 2.746c36.114 0 65.383-29.27 65.383-65.383 0-23.996-12.925-44.972-32.199-56.34 26.95 8.07 46.586 33.059 46.586 62.637zm0 0" fill="#ff9500"></path><path d="M366.828 77.422a7.717 7.717 0 0 0 0-15.434H174.703a7.717 7.717 0 0 0 0 15.434zM174.703 182.836h285.024a7.714 7.714 0 0 0 7.714-7.719 7.716 7.716 0 0 0-7.714-7.715H174.703a7.716 7.716 0 0 0-7.715 7.715 7.714 7.714 0 0 0 7.715 7.719zM459.727 77.422a7.717 7.717 0 0 0 0-15.434H403.98a7.717 7.717 0 0 0 0 15.434zm0 0" fill="#e6f2ec"></path><path d="M65.137 149.742c-4.809 0-8.688 6.516-8.688 10.86 0 8.683 14.117 18.77 32.887 19.234v4.344c0 2.015 2.324 3.879 5.273 3.879 2.637 0 5.274-1.864 5.274-3.88v-4.808c17.375-2.793 29.316-13.809 29.316-32.887 0-21.097-15.512-28.078-29.316-33.199v-27.3c10.394.777 13.96 5.742 18.305 5.742 5.742 0 8.222-7.137 8.222-10.704 0-9-16.445-11.945-26.527-12.257v-4.032c0-2.015-2.637-3.879-5.274-3.879-2.949 0-5.273 1.864-5.273 3.88v4.343c-15.516 2.016-30.094 10.547-30.094 30.25 0 19.856 15.977 25.906 30.094 31.18v30.87c-13.652-1.554-18.305-11.636-24.2-11.636zM98.64 134.23c6.671 2.95 11.636 6.672 11.636 14.274 0 7.289-4.808 11.32-11.636 12.719zM78.164 97.31c0-5.895 4.656-9.618 12.41-10.86v23.426c-7.133-2.793-12.41-5.738-12.41-12.566zm0 0" fill="#ffaa00"></path><g fill="#e6f2ec"><path d="M46.031 252.309a7.714 7.714 0 0 0 7.715 7.714h91.406a7.714 7.714 0 0 0 7.715-7.714 7.714 7.714 0 0 0-7.715-7.715H53.746a7.714 7.714 0 0 0-7.715 7.715zM53.746 292.605h74.066c4.262 0 7.72-3.453 7.72-7.714s-3.458-7.715-7.72-7.715H53.746c-4.262 0-7.715 3.453-7.715 7.715s3.453 7.714 7.715 7.714zM53.746 325.188h61.723a7.717 7.717 0 0 0 7.719-7.715 7.717 7.717 0 0 0-7.72-7.715H53.747a7.714 7.714 0 0 0-7.715 7.715 7.714 7.714 0 0 0 7.715 7.714zM458.395 244.594h-91.403c-4.262 0-7.719 3.457-7.719 7.715a7.72 7.72 0 0 0 7.72 7.718h91.402a7.717 7.717 0 0 0 7.714-7.718 7.714 7.714 0 0 0-7.714-7.715zM458.395 277.176h-74.067c-4.262 0-7.715 3.453-7.715 7.715s3.453 7.714 7.715 7.714h74.067c4.261 0 7.714-3.453 7.714-7.714s-3.453-7.715-7.714-7.715zM458.395 309.758h-61.723a7.714 7.714 0 0 0-7.715 7.715 7.714 7.714 0 0 0 7.715 7.715h61.723a7.714 7.714 0 0 0 7.714-7.715 7.714 7.714 0 0 0-7.714-7.715zm0 0" fill="#e6f2ec"></path></g></g></svg>