<svg viewBox="0 0 512 512" xmlns="http://www.w3.org/2000/svg"><g><path d="M256 159c-8.284 0-15-6.716-15-15v-29.748c0-8.284 6.716-15 15-15s15 6.716 15 15V144c0 8.284-6.715 15-15 15z" fill="#5f69e2"></path><path d="M456.055 285.088H55.945c-8.284 0-15 6.716-15 15v175.565c0 8.284 6.716 15 15 15h400.109c8.284 0 15-6.716 15-15V300.088c.001-8.284-6.715-15-14.999-15z" fill="#ffe377"></path><path d="M456.055 285.088H256v205.565h200.055c8.284 0 15-6.716 15-15V300.088c0-8.285-6.716-15-15-15z" fill="#ffcc00"></path><path d="M135.169 159c-8.284 0-15-6.716-15-15v-29.748c0-8.284 6.716-15 15-15s15 6.716 15 15V144c0 8.284-6.715 15-15 15z" fill="#5f69e2"></path><path d="M376.831 159c-8.284 0-15-6.716-15-15v-29.748c0-8.284 6.716-15 15-15s15 6.716 15 15V144c0 8.284-6.716 15-15 15z" fill="#3440da"></path><path d="M401.857 38.064c-6.841-12.735-13.583-23.445-13.867-23.895a13.194 13.194 0 0 0-22.318 0c-.284.45-7.026 11.16-13.867 23.895-13.272 24.707-14.973 34.596-14.973 40.451 0 22.061 17.944 40.009 40 40.009s40-17.948 40-40.009c-.001-5.856-1.703-15.744-14.975-40.451z" fill="#ffcc00"></path><path d="M256.001 99.252 256 159c8.284 0 15-6.716 15-15v-29.748c.001-8.284-6.715-15-14.999-15z" fill="#3440da"></path><path d="M267.16 14.168a13.194 13.194 0 0 0-22.318 0c-.284.45-7.026 11.16-13.867 23.895-13.272 24.707-14.973 34.596-14.973 40.451 0 22.061 17.944 40.009 40 40.009s40-17.948 40-40.009c0-5.855-1.702-15.744-14.973-40.451-6.843-12.734-13.585-23.445-13.869-23.895z" fill="#ffe377"></path><path d="M281.027 38.064c-6.841-12.735-13.583-23.445-13.867-23.895a13.194 13.194 0 0 0-11.159-6.155v110.51c22.056 0 40-17.948 40-40.009-.001-5.856-1.702-15.744-14.974-40.451z" fill="#ffcc00"></path><path d="M497 503.987H15c-8.284 0-15-6.716-15-15s6.716-15 15-15h482c8.284 0 15 6.716 15 15s-6.716 15-15 15z" fill="#e5e5e5"></path><path d="M497 473.987H256v30h241c8.284 0 15-6.716 15-15s-6.716-15-15-15z" fill="#d6d6d6"></path><path d="M277.714 142.825h-43.427c-10.099 0-18.286 8.187-18.286 18.286v115.854c0 10.099 8.187 18.286 18.286 18.286h43.427c10.099 0 18.286-8.187 18.286-18.286V161.111c0-10.099-8.187-18.286-18.286-18.286zM156.883 142.825h-43.427c-10.099 0-18.286 8.187-18.286 18.286v115.854c0 10.099 8.187 18.286 18.286 18.286h43.427c10.099 0 18.286-8.187 18.286-18.286V161.111c0-10.099-8.187-18.286-18.286-18.286z" fill="#989eec"></path><path d="M398.544 142.825h-43.427c-10.099 0-18.286 8.187-18.286 18.286v115.854c0 10.099 8.187 18.286 18.286 18.286h43.427c10.099 0 18.286-8.187 18.286-18.286V161.111c.001-10.099-8.187-18.286-18.286-18.286zM277.713 142.825H256v152.427h21.713c10.1 0 18.287-8.187 18.287-18.287V161.111c0-10.099-8.187-18.286-18.287-18.286z" fill="#7c83e7"></path><path d="M441.688 256.33H70.313c-23.075 0-41.849 17.143-41.849 38.214v38.672c0 10.518 5.068 20.334 13.904 26.935 9.994 7.464 23.29 9.751 35.565 6.115l37.866-11.21c21.882-6.477 45.984-6.476 67.864 0l29.889 8.848c13.688 4.053 28.065 6.078 42.447 6.078 14.379-.001 28.763-2.026 42.447-6.078l29.889-8.848c21.882-6.479 45.982-6.477 67.864 0l37.866 11.21c12.275 3.633 25.572 1.347 35.564-6.115 8.837-6.601 13.904-16.417 13.904-26.935v-38.672c.003-21.071-18.77-38.214-41.845-38.214z" fill="#ffa1c0"></path><path d="M441.688 256.33H256v113.651c14.379-.001 28.763-2.026 42.447-6.078l29.889-8.848c21.882-6.479 45.982-6.477 67.864 0l37.866 11.21c12.275 3.633 25.572 1.347 35.564-6.115 8.837-6.601 13.904-16.417 13.904-26.935v-38.672c.002-21.07-18.771-38.213-41.846-38.213z" fill="#ff80a9"></path><path d="M146.329 14.168a13.194 13.194 0 0 0-22.318 0c-.284.45-7.026 11.16-13.867 23.895-13.273 24.708-14.975 34.596-14.975 40.452 0 22.061 17.944 40.009 40 40.009s40-17.948 40-40.009c0-5.855-1.702-15.744-14.973-40.451-6.841-12.735-13.583-23.446-13.867-23.896z" fill="#ffe377"></path></g></svg>