<svg viewBox="0 0 512 512" xmlns="http://www.w3.org/2000/svg"><g><path d="m462.623 125.097 46.606-68.835c5.983-8.837 1.851-20.943-8.286-24.278L421.977 6.008c-12.603-4.146-24.519 7.902-20.233 20.459l5.662 16.589L12.14 177.961C2.773 181.158-2.229 191.343.968 200.71l9.459 27.714c3.197 9.367 13.382 14.369 22.749 11.172L428.442 104.69l5.662 16.589c4.286 12.556 21.08 14.805 28.519 3.818z" fill="#7a6d79"></path><path d="M429.422 27.837c-12.603-4.148-24.516 7.904-20.233 20.453l5.664 16.594L19.587 199.79c-9.364 3.196-14.371 13.376-11.172 22.75L.966 200.714c-3.199-9.373 1.808-19.554 11.172-22.75L407.403 43.059l-5.664-16.594c-4.286-12.559 7.63-24.602 20.233-20.453l78.965 25.979c9.493 3.119 13.728 13.949 9.296 22.565a14.363 14.363 0 0 0-1.847-.738z" fill="#685e68"></path><path d="M77.886 362.475H27.369C12.253 362.475 0 374.728 0 389.843v89.609c0 15.115 12.253 27.369 27.369 27.369h50.518c15.115 0 27.369-12.253 27.369-27.369v-89.609c-.001-15.115-12.255-27.368-27.37-27.368z" fill="#ffe177"></path><path d="M62.119 506.825H27.372C12.252 506.825 0 494.572 0 479.453v-89.61c0-15.109 12.252-27.362 27.372-27.362h34.747c-15.109 0-27.362 12.253-27.362 27.362v89.61c0 15.119 12.253 27.372 27.362 27.372z" fill="#ffd15b"></path><path d="M213.468 317.006H162.95c-15.115 0-27.369 12.253-27.369 27.369v135.078c0 15.115 12.253 27.369 27.369 27.369h50.518c15.115 0 27.369-12.253 27.369-27.369V344.375c-.001-15.116-12.254-27.369-27.369-27.369z" fill="#9be69d"></path><path d="M197.701 506.825h-34.747c-15.119 0-27.372-12.253-27.372-27.372V344.375c0-15.109 12.253-27.362 27.372-27.362h34.747c-15.109 0-27.362 12.253-27.362 27.362v135.079c0 15.118 12.252 27.371 27.362 27.371z" fill="#6fd7a3"></path><path d="M349.05 247.834h-50.518c-15.115 0-27.369 12.253-27.369 27.369v204.25c0 15.115 12.253 27.369 27.369 27.369h50.518c15.115 0 27.369-12.253 27.369-27.369v-204.25c-.001-15.116-12.254-27.369-27.369-27.369z" fill="#fe646f"></path><path d="M333.282 506.825h-34.747c-15.119 0-27.372-12.253-27.372-27.372V275.202c0-15.109 12.253-27.362 27.372-27.362h34.747c-15.109 0-27.362 12.253-27.362 27.362v204.251c.001 15.119 12.253 27.372 27.362 27.372z" fill="#fd4755"></path><path d="M484.631 167.671h-50.518c-15.115 0-27.369 12.253-27.369 27.369v284.413c0 15.115 12.253 27.369 27.369 27.369h50.518c15.115 0 27.369-12.253 27.369-27.369V195.039c0-15.115-12.253-27.368-27.369-27.368z" fill="#60b7ff"></path><path d="M468.864 506.825h-34.747c-15.119 0-27.372-12.253-27.372-27.372V195.039c0-15.109 12.253-27.362 27.372-27.362h34.747c-15.109 0-27.362 12.253-27.362 27.362v284.414c0 15.119 12.253 27.372 27.362 27.372z" fill="#26a6fe"></path></g></svg>