<svg viewBox="0 0 96 96" xmlns="http://www.w3.org/2000/svg"><g><path d="M89.47 92.44H6.53c2.74-15.33 1.58-8.8 5.16-28.88A9.3 9.3 0 0 1 16 57.28c13.3-8.07 10.29-6.26 11.88-7.21h40.25L80 57.28a9.3 9.3 0 0 1 4.3 6.28z" fill="#ff9c5a"></path><path d="M85.75 92.13h-75.5c2.49-14 1.43-8 4.7-26.29a8.43 8.43 0 0 1 3.91-5.72C34 51 27.74 54.72 29.68 53.56h36.64l10.82 6.56a8.43 8.43 0 0 1 3.91 5.72c3.26 18.24 2.21 12.33 4.7 26.29z" fill="#f07e5a"></path><path d="M74.07 58.26 71.74 68l-10.4 9.9h-5.4l-1.65-24.34h12c4.85 2.93-.88-.56 7.78 4.7zM29.68 53.56h12L40.06 77.9h-5.34c-1.68-1.52.19.24-10.47-9.9l-2.32-9.74c14.8-8.95 2.95-1.82 7.75-4.7z" fill="#ff9c5a"></path><path d="M76.35 31.84c-.39 1.6-8.19 34.27-8.22 34.39l-8.39 8c-.1 0 0 1.51-2.18-31.35H38.44l-2.12 31.33c-.1 0 .56.59-8.45-8 0-.1-8.12-34.39-8.22-34.39.67-1.48-.63 1.41 8.22-18.4h40.26z" fill="#ffb573"></path><path d="M24.12 31.84a1 1 0 0 1-1 1H19.9l-.24-1 .45-1h3a1 1 0 0 1 1.01 1z" fill="#ff7e50"></path><path d="M37 64.92c-.68 10-.59 9.29-.69 9.29l-8.39-8C19.6 31.38 19.8 31.82 19.7 31.82l1.55-3.45 6.67 28zM76.35 31.84c-.39 1.6-8.19 34.27-8.22 34.39l-8.39 8c-.1 0 0 .67-.69-9.28l9.08-8.58c4.76-19.87-.46 1.94 6.68-27.95 1.31 2.92.97 2.16 1.54 3.42z" fill="#ff7e50"></path><path d="M64 40.86H32a2 2 0 0 1-2-1.71l-1.17-6.9a2.06 2.06 0 0 1 2-2.39h34.35a2.06 2.06 0 0 1 2 2.39L66 39.15a2 2 0 0 1-2 1.71z" fill="#ff8841"></path><path d="M60.91 92.44H35.09c2.17-32.16 1.47-21.71 3.35-49.58h19.12c1.82 26.95 1.18 17.37 3.35 49.58z" fill="#e16050"></path><path d="M53.83 46.94c0-.11.88-.08-11.65-.08-.01.14-.92.08 11.65.08zM40.23 75.74l-.36 5.33a1.86 1.86 0 0 0 1.86 2h12.54a1.86 1.86 0 0 0 1.86-2l-.36-5.33A1.86 1.86 0 0 0 53.91 74H42.09a1.86 1.86 0 0 0-1.86 1.74z" fill="#fa9264"></path><path d="M57.56 42.86H38.44c-2.21 32.66-2.28 31.35-2.18 31.35l4.89-18a1.71 1.71 0 0 1 2.17-1.17 7.45 7.45 0 0 0 2.25.35c5 0 5.65.11 7.11-.34a1.69 1.69 0 0 1 2.16 1.16l4.84 18c.1 0 .05.79-2.12-31.35z" fill="#c3423c"></path><path d="m35.47 86.82-.38 5.62h25.82l-.38-5.62z" fill="#ffb573"></path><path d="m63.19 27.08-.77 15.43a2.24 2.24 0 0 1-.92 1.71l-8.93 6.5a3.65 3.65 0 0 1-2.14.7h-4.86a3.65 3.65 0 0 1-2.14-.7l-8.93-6.5a2.24 2.24 0 0 1-.92-1.71c-.27-5.36-.1-2.06-.77-15.43a1.87 1.87 0 0 1 1.86-2h26.66a1.87 1.87 0 0 1 1.86 2z" fill="#ff9c64"></path><path d="m63.19 27.08-.49 9.83a3.33 3.33 0 0 1-1.35 2.51c-2.61 1.92-8.31 6.06-8.49 6.19a3.87 3.87 0 0 1-2.27.74h-5.18a3.87 3.87 0 0 1-2.27-.74c-.18-.13-5.88-4.27-8.49-6.19a3.33 3.33 0 0 1-1.35-2.51l-.49-9.83a1.87 1.87 0 0 1 1.86-2h26.66a1.87 1.87 0 0 1 1.86 2z" fill="#ffe29b"></path><path d="M68.13 13.44 64 23.33a2.9 2.9 0 0 1-2.68 1.79H34.65A2.9 2.9 0 0 1 32 23.33l-4.1-9.89L48 7.83z" fill="#ffc98c"></path><path d="m55.61 9.95-2.29 15.17H42.68L40.39 9.95 48 7.83z" fill="#ffa673"></path><path d="m68.13 13.44-.73 1.77L48 9.8l-19.4 5.41-.73-1.77L48 7.83z" fill="#ffeca5"></path><path d="M51.33 24.93h-6.66L41.89 6.52a2.58 2.58 0 0 1 2.55-3h7.12a2.58 2.58 0 0 1 2.55 3z" fill="#ffc464"></path><path d="m50.07 13.13.84-5.57a.87.87 0 0 0-.86-1H46a.88.88 0 0 0-.87 1l.85 5.57a.86.86 0 0 0 .86.74h2.42a.86.86 0 0 0 .81-.74zM46.8 18.94l.34 2.25a.87.87 0 0 0 1.72 0l.34-2.25a.87.87 0 0 0-.86-1h-.68a.87.87 0 0 0-.86 1z" fill="#ffe27d"></path><path d="M48 69.61a2.52 2.52 0 0 1-2.5-2.23l-2.44-21.77h9.88L50.5 67.38a2.52 2.52 0 0 1-2.5 2.23z" fill="#ffc464"></path><path d="M27 92.44H1.1l1.81-8a5.36 5.36 0 0 1 5.22-4.18H20a5.36 5.36 0 0 1 5.22 4.18z" fill="#ffb573"></path><path d="m5.33 87.32.2-.87a4.09 4.09 0 0 1 4-3.19h9.09a4.09 4.09 0 0 1 4 3.19l.2.87a1.74 1.74 0 0 1-1.69 2.12H7a1.74 1.74 0 0 1-1.67-2.12z" fill="#ffe296"></path><path d="M94.9 92.44H69l1.81-8A5.36 5.36 0 0 1 76 80.26h11.87a5.36 5.36 0 0 1 5.22 4.18z" fill="#ffb573"></path><path d="m73.19 87.32.2-.88a4.09 4.09 0 0 1 4-3.18h9.12a4.09 4.09 0 0 1 4 3.18l.2.88A1.74 1.74 0 0 1 89 89.44H74.88a1.74 1.74 0 0 1-1.69-2.12z" fill="#ffe296"></path><g fill="#f07e5a"><path d="M43.31 32.84h-4a1 1 0 1 1 0-2h4a1 1 0 0 1 0 2zM48 39.88a1 1 0 0 1-1-1v-4.33a3.72 3.72 0 0 1 3.71-3.71h6a1 1 0 0 1 0 2h-6A1.72 1.72 0 0 0 49 34.55v4.33a1 1 0 0 1-1 1zM20.06 92.44h-2l-1-7.09a1 1 0 1 1 2-.29c.86 6.33 1 7.25 1 7.38zM11.12 85.35l-1 7.09h-2c0-.13.14-1 1.07-7.38a1 1 0 1 1 2 .29zM87.93 92.44h-2l-1-7.09a1 1 0 1 1 2-.29c.86 6.33 1 7.25 1 7.38zM79 85.35l-1 7.09h-2c0-.13.14-1 1.07-7.38a1 1 0 0 1 1.13-.85 1 1 0 0 1 .8 1.14z" fill="#f07e5a"></path></g><path d="m72.33 48.66-.47 2h-7.34a1 1 0 0 1-1-1 1 1 0 0 1 1-1c8.57-.03 7.67-.04 7.81 0zM35 50.63h-6.37a1 1 0 0 1 0-2H35a1 1 0 0 1 0 2zM71.07 53.92l-.46 1.95h-3.38a1 1 0 0 1 0-2c3.87 0 3.68-.02 3.84.05zM76.35 31.84l-.24 1h-4a1 1 0 1 1 0-2h3.8z" fill="#ff7e50"></path><path d="M53.4 17.74a1 1 0 0 1-1 1h-8.8a1 1 0 0 1 0-2h8.8a1 1 0 0 1 1 1zM54.33 11.42a1 1 0 0 1-1 1H42.67a1 1 0 0 1 0-2h10.66a1 1 0 0 1 1 1z" fill="#ffe29b"></path><path d="M51.26 11.42a1 1 0 0 1-1 1h-4.53a1 1 0 0 1 0-2h4.53a1 1 0 0 1 1 1zM50 17.74a1 1 0 0 1-1 1h-2a1 1 0 0 1 0-2h2a1 1 0 0 1 1 1z" fill="#ffffff"></path><path d="M61.57 19.69H57.9a1 1 0 0 1 0-2h3.67a1 1 0 0 1 0 2z" fill="#ff7e50"></path></g></svg>