<svg viewBox="0 0 493.641 493.641" xmlns="http://www.w3.org/2000/svg"><g><path d="m381.853 334.192 44.255-37.768c9.103-7.768 10.228-21.497 2.514-30.663s-21.347-10.3-30.45-2.531l-91.986 78.502-54.444 39.004 48.731 15.982z" fill="#ffe0d1"></path><path d="m322.433 351.633 91.986-78.502c4.586-3.914 10.33-5.589 15.879-5.095a21.518 21.518 0 0 0-1.677-2.274c-7.714-9.166-21.347-10.3-30.449-2.531l-91.986 78.502-54.444 39.004 20.625 6.765z" fill="#ffd1c2"></path><path d="m307.769 341.292 68.39-57.959c7.531-7.784 8.076-20.162.926-28.6-7.615-8.986-21.073-10.097-30.059-2.482l-60.939 51.645-66.445 57.191 34.553 27.972z" fill="#ffe0d1"></path><path d="m237.127 371.963 66.446-57.191 60.939-51.645a21.238 21.238 0 0 1 14.92-5.027 21.24 21.24 0 0 0-2.346-3.368c-7.615-8.986-21.073-10.097-30.059-2.482l-60.939 51.645-66.445 57.191 34.553 27.972 1.927-1.718z" fill="#ffd1c2"></path><path d="m297.022 341.256 1.71.19h65.38c4.99 0 9.81-1.77 13.61-4.99l69.37-58.79c4.01-3.39 8.9-5.05 13.77-5.05 6.05 0 12.06 2.56 16.28 7.53 7.62 8.99 6.51 22.45-2.48 30.06l-109.5 92.81a75.742 75.742 0 0 1-39.91 17.4l-122.28 14.71-45.91 54.97a9.875 9.875 0 0 1-10.589 3.076L18.31 452.176c-6.575-2.103-9.019-10.13-4.732-15.54l49.044-61.9 3.89-8.21c19.07-40.21 59.6-65.84 104.1-65.84h103.57c7.38 0 14.05 2.99 18.89 7.82 4.83 4.84 7.82 11.51 7.82 18.89 0 5.08-1.42 9.82-3.87 13.86z" fill="#ffe0d1"></path><path d="m301.771 355.845 1.772.202h67.739c5.17 0 10.164-1.881 14.101-5.302l71.872-62.464c4.155-3.602 9.221-5.366 14.267-5.366 2.918 0 5.836.563 8.553 1.725a21.148 21.148 0 0 0-2.933-4.496c-4.22-4.97-10.23-7.53-16.28-7.53-4.87 0-9.76 1.66-13.77 5.05l-69.37 58.79c-3.8 3.22-8.62 4.99-13.61 4.99H305.77c-.059 5.275-1.512 10.196-3.999 14.401z" fill="#ffd1c2"></path><g fill="#ffd1c2"><path d="m298.732 341.446-1.71-.19c.171-.281.324-.574.484-.862H138.314c0 15.851 12.85 28.702 28.702 28.702h106.44c.251.004.501.007.752.007 14.45 0 28.103-7.682 35.642-20.07a41.675 41.675 0 0 0 3.606-7.587z" fill="#ffd1c2"></path><path d="m306.186 341.732-38.196 27.364h5.465c.251.004.501.007.752.007 14.45 0 28.103-7.682 35.642-20.07a41.697 41.697 0 0 0 5.515-15.133z" fill="#ffd1c2"></path><path d="M315.17 335.019c.465-2.505.722-5.054.722-7.624 0-11.128-4.334-21.6-12.225-29.508a42.36 42.36 0 0 0-5.252-4.44l-12.328 10.448-66.445 57.191 9.894 8.009h43.919a41.084 41.084 0 0 0 3.213-.074l31.101-27.73z" fill="#ffd1c2"></path></g><path d="M300.892 327.396c0 5.08-1.42 9.82-3.87 13.86-4.79 7.87-13.53 13.06-23.42 12.84h-133.94l-53.77-16.29c21.48-23.29 52.03-37.12 84.72-37.12h103.57c7.38 0 14.05 2.99 18.89 7.82 4.83 4.84 7.82 11.51 7.82 18.89z" fill="#ffe0d1"></path><path d="M290.611 0H122.178C92.276 0 68.035 24.24 68.035 54.142v104.881c0 29.902 24.24 54.142 54.142 54.142h22.82l13.485 30.291c2.403 5.397 10.063 5.397 12.466 0l13.485-30.291h106.178c29.902 0 54.142-24.24 54.142-54.142V54.142C344.753 24.24 320.513 0 290.611 0z" fill="#fbe88c"></path><circle cx="206.394" cy="106.124" fill="#f9f7f7" r="62.628"></circle><path d="M203.701 135.945a7.48 7.48 0 0 1-5.304-2.197l-14.613-14.613a7.5 7.5 0 0 1 0-10.606 7.5 7.5 0 0 1 10.606 0l9.429 9.429 79.456-75.933a7.5 7.5 0 0 1 10.604.241 7.5 7.5 0 0 1-.24 10.604l-84.756 80.999a7.491 7.491 0 0 1-5.182 2.076z" fill="#e17983"></path><path d="m78.883 396.93 3.89-8.21c19.07-40.21 59.6-65.84 104.1-65.84h103.57c3.666 0 7.168.746 10.346 2.08-.58-6.403-3.426-12.154-7.716-16.454-4.84-4.83-11.51-7.82-18.89-7.82h-103.57c-44.5 0-85.03 25.63-104.1 65.84l-3.89 8.21-49.044 61.9c-4.287 5.41-1.843 13.437 4.732 15.54l13.404 4.287z" fill="#ffd1c2"></path><path d="M161.42 175.677c-23.188 0-41.985-18.797-41.985-41.985V18.552A41.802 41.802 0 0 1 123.754 0h-1.576C92.276 0 68.035 24.24 68.035 54.142v104.881c0 29.902 24.24 54.142 54.142 54.142h22.82l13.485 30.291c2.403 5.397 10.063 5.397 12.466 0l13.485-30.291h106.178c24.09 0 44.506-15.746 51.532-37.497z" fill="#fbe372"></path></g></svg>