<svg viewBox="0 0 512 512" xmlns="http://www.w3.org/2000/svg"><g><path d="M391 0H121C96.099 0 76 20.099 76 45v422c0 24.899 20.099 45 45 45h270c24.901 0 45-20.101 45-45V45c0-24.901-20.099-45-45-45z" fill="#ff6b6b"></path><path d="M436 45v422c0 24.899-20.099 45-45 45H256V0h135c24.901 0 45 20.099 45 45z" fill="#e62e77"></path><path d="M281.942 148.334c-8.978-1.857-17.952-.839-25.942 2.411-13.445 5.468-24.1 17.28-27.261 32.54-4.455 21.594 7.489 42.759 27.261 50.757 2.466.998 5.01 1.871 7.705 2.432 24.375 5.015 48.142-10.593 53.174-34.966 5.063-24.489-10.736-48.172-34.937-53.174z" fill="#f3f5f9"></path><path d="M316.879 201.508c5.063-24.489-10.735-48.171-34.937-53.174-8.978-1.857-17.952-.839-25.942 2.411v83.297c2.466.998 5.01 1.871 7.705 2.432 24.375 5.015 48.142-10.593 53.174-34.966z" fill="#e2dff4"></path><path d="m371.605 95.395-30-30c-5.859-5.859-15.352-5.859-21.211 0s-5.859 15.352 0 21.211L324.789 91H151c-8.291 0-15 6.709-15 15s6.709 15 15 15h173.789l-4.395 4.395c-5.859 5.859-5.859 15.352 0 21.211s15.352 5.859 21.211 0l30-30c5.86-5.86 5.86-15.352 0-21.211z" fill="#f3f5f9"></path><path d="M320.395 125.395c-5.859 5.859-5.859 15.352 0 21.211s15.352 5.859 21.211 0l30-30c5.859-5.859 5.859-15.352 0-21.211l-30-30c-5.859-5.859-15.352-5.859-21.211 0s-5.859 15.352 0 21.211L324.789 91H256v30h68.789z" fill="#e2dff4"></path><path d="M363.988 195.956c-8.115-1.611-16.069 3.53-17.739 11.646l-6.079 29.37c-1.69 8.201-9.831 13.367-17.725 11.646-3.138-.65-36.178-7.485-66.445-13.749l-51.064-10.567c-24.146-4.968-48.116 10.433-53.188 34.937l-6.079 29.37c-1.67 8.115 3.545 16.055 11.646 17.739 8.379 1.675 16.104-3.752 17.739-11.646l6.079-29.37c1.657-8.04 9.6-13.35 17.725-11.646l14.681 3.038-15.209 73.427c-.007.033-.306 2.604-.308 2.637L196.41 391H151c-8.291 0-15 6.709-15 15s6.709 15 15 15h60c8.115 0 14.766-6.46 15-14.59l1.523-54.884 28.477 5.9 7.811 1.619c.183.101.291.278.48.374L316 385.272V436c0 8.291 6.709 15 15 15s15-6.709 15-15v-60a15.006 15.006 0 0 0-8.291-13.418l-49.091-24.545 13.061-63.073 14.672 3.038c24.37 5.013 48.171-10.626 53.203-34.937l6.079-29.37c1.671-8.115-3.544-16.054-11.645-17.739z" fill="#f3f5f9"></path><path d="M264.291 359.418 316 385.272V436c0 8.291 6.709 15 15 15s15-6.709 15-15v-60a15.006 15.006 0 0 0-8.291-13.418l-49.091-24.545 13.061-63.073 14.672 3.038c24.37 5.013 48.171-10.626 53.203-34.937l6.079-29.37c1.67-8.115-3.545-16.055-11.646-17.739-8.115-1.611-16.069 3.53-17.739 11.646l-6.079 29.37c-1.69 8.201-9.831 13.367-17.725 11.646-3.138-.65-36.178-7.485-66.445-13.749v122.558l7.811 1.619c.184.099.292.277.481.372z" fill="#e2dff4"></path></g></svg>