<svg viewBox="0 0 511 512" xmlns="http://www.w3.org/2000/svg"><g><path d="M292.117 487.664c-28.484 22.375-62.469 27.399-94.695 22.758-37.852-5.445-74.434-22.938-111.504-35.75C57.934 465 28.934 457.988.5 460.898 12.57 354.453 44.566 242.77 64.953 208.133c-7.484-35.735-19.437-84.313-21.82-106.75-2.406-22.563-.75-79.332-.176-96.434A5.123 5.123 0 0 1 48.078 0h18.133a5.128 5.128 0 0 1 5.125 5.125v19.672c0 20.18 8.176 38.453 21.398 51.676 13.278 13.28 31.649 21.468 51.93 21.398 40.441-.137 72.824-33.723 72.824-74.16V5.125A5.128 5.128 0 0 1 222.613 0h18.13a5.124 5.124 0 0 1 5.124 4.95c.574 17.1 2.227 73.87-.176 96.433-2.355 22.129-14.004 69.414-21.511 105.277 22.011 36.02 58.62 165.758 67.937 281.004zm0 0" fill="#ffe1d7"></path><path d="M224.176 206.66c7.512-35.867 19.16-83.148 21.515-105.277 2.403-22.567.746-79.332.172-96.434A5.118 5.118 0 0 0 240.743 0h-18.13a5.125 5.125 0 0 0-5.125 5.125v18.586c0 .758-.035 1.512-.058 2.266.507 24.191.867 58.918-.68 75.406-2.078 22.129-12.352 69.41-18.977 105.277 19.418 36.02 51.707 165.758 59.922 281.004-16.12 14.36-34.238 21.563-52.66 23.66 29.91 2.836 60.828-3.039 87.078-23.66-9.312-115.242-45.922-244.984-67.937-281.004zm0 0" fill="#ffd2c0"></path><path d="M64.64 206.66c.106.492.212.988.313 1.473C44.566 242.77 12.57 354.453.5 460.898c28.434-2.91 57.43 4.102 85.414 13.774 37.07 12.816 73.656 30.305 111.508 35.75 32.226 4.64 66.207-.383 94.691-22.758-9.312-115.246-45.922-244.984-67.937-281.004zm0 0" fill="#8cbafa"></path><g fill="#5692d8"><path d="M224.176 206.66h-26.399c19.414 36.02 51.703 165.758 59.918 281.004-16.12 14.36-34.234 21.563-52.66 23.66 31.625 2.996 61.996-3.957 87.082-23.66-6.27-77.516-37.492-231.184-67.941-281.004zM169.203 208.383c2.988 12.633 6.68 36.969 10.395 68.523a7.497 7.497 0 0 0 8.324 6.57 7.501 7.501 0 0 0 6.574-8.324c-3.625-30.757-7.262-54.93-10.3-68.492h-15.188c0 .57.058 1.145.195 1.723zM103.648 283.477c.301.035.594.054.887.054 3.75-.004 6.992-2.808 7.442-6.625 3.574-30.379 7.164-54.215 10.101-67.11a7.547 7.547 0 0 0 .16-2.273l-.066-.863h-15.016c0 .192 0 .38.016.574l.027.356c-3.004 13.617-6.586 37.515-10.12 67.562a7.498 7.498 0 0 0 6.57 8.325zm0 0" fill="#5692d8"></path></g><path d="M411.89 247.05c-27.925 0-43.882 19.259-60.562 55.848-16.14 35.403-42.148 80.532-69.031 80.532-15.383 0-23.762-12.97-28.48-23.5-1.169-2.606-3.993-4.055-6.778-3.446-67.95 14.91-75.652 62.446-76.156 79.676a6.093 6.093 0 0 0 6.11 6.317h123.745c3.5 0 6.637-2.223 7.739-5.547 15.253-46.153 63.957-93.5 83.832-93.5 5.078 5.351 5.078 28.375 5.078 40.343v52.524a6.178 6.178 0 0 0 6.18 6.18h12.792a6.182 6.182 0 0 0 6.184-6.18v-52.524c0-26.836 21.262-43.52 21.262-71.804 0-39.531-15.23-64.918-31.914-64.918zm0 0" fill="#ed5176"></path><path d="M419.102 247.05c-3.649 0-7.086.337-10.352.99 14.328 4.995 26.29 28.901 26.29 63.925 0 28.289-21.267 44.969-21.267 71.805v52.523a6.18 6.18 0 0 1-4.59 5.969c.512.133 1.044.21 1.594.21h12.793a6.182 6.182 0 0 0 6.184-6.179V383.77c0-26.836 21.262-43.516 21.262-71.805 0-39.528-15.23-64.914-31.914-64.914zm0 0" fill="#ba365f"></path><path d="m292.148 65.418-23.011 54.168a6.646 6.646 0 0 0 1.152 7.023l84.559 94.918c2.644 2.965 7.285 2.965 9.93 0l84.558-94.918a6.646 6.646 0 0 0 1.152-7.023L427.48 65.418a6.651 6.651 0 0 0-6.12-4.047H298.265a6.644 6.644 0 0 0-6.118 4.047zm0 0" fill="#c8e7f7"></path><path d="M450.555 119.75h-59.93c0-.05 0-.113-.016-.164l-7.808-54.176c-.352-2.441-1.18-4.035-2.082-4.035h40.633a6.684 6.684 0 0 1 6.132 4.035l23.004 54.176c.028.05.051.113.067.164zm0 0" fill="#add9ea"></path><path d="M338.906 61.375c-.902 0-1.73 1.594-2.082 4.035l-7.808 54.176c-.012.05-.012.113-.012.164H269.07a.963.963 0 0 1 .067-.164L292.14 65.41a6.684 6.684 0 0 1 6.132-4.035zm0 0" fill="#def6ff"></path><path d="m449.34 126.61-84.555 94.921a6.658 6.658 0 0 1-4.965 2.219c.614 0 1.23-.742 1.68-2.219l28.723-94.922c.578-1.882.726-4.527.402-6.859h59.93a6.672 6.672 0 0 1-1.215 6.86zm0 0" fill="#90c7d3"></path><path d="M390.223 126.61 361.5 221.53c-.453 1.477-1.066 2.219-1.68 2.219-.629 0-1.242-.742-1.695-2.219l-28.723-94.922c-.562-1.882-.726-4.527-.402-6.859h61.621c.328 2.332.18 4.977-.398 6.86zm0 0" fill="#add9ea"></path></g></svg>