<svg viewBox="0 0 512 512" xmlns="http://www.w3.org/2000/svg"><g><path d="m512 353.5-346-60 90 120h256z" fill="#ffb54c"></path><path d="M0 353.5v60h256v-120z" fill="#ffcc4a"></path><path d="M512 353.5v-135h-37.75l-15 15-15-15H406.5l-15 15-15-15h-37.75l-15 15-15-15H271L196 286l60 67.5z" fill="#ffcc4a"></path><path d="M256 218.5h-52.75l-15 15-15-15H135.5l-15 15-15-15H67.75l-15 15-15-15H0v135h256z" fill="#ffe278"></path><path d="M497 128.5H256l-15 15 15 15h241z" fill="#abd5ed"></path><path d="M256 128.5H30v-30H0v90h30v-30h226z" fill="#bfebff"></path><path d="M482 98.5h30v90h-30z" fill="#abd5ed"></path><g fill="#587aa1"><path d="M37.75 218.5h30v75h-30zM105.5 218.5h30v45h-30zM173.25 218.5h30v75h-30z" fill="#587aa1"></path></g><path d="M271 263.5h-15l-7.5-7.5v-30l7.5-7.5h15z" fill="#455f80"></path><path d="M241 218.5h15v45h-15z" fill="#587aa1"></path><path d="M308.75 218.5h30v75h-30zM376.5 218.5h30v45h-30zM444.25 218.5h30v75h-30z" fill="#455f80"></path></g></svg>