<svg viewBox="0 0 496.959 496.959" xmlns="http://www.w3.org/2000/svg"><g><path d="M415.917 347.521c-12.172 85.87-79.73 148.493-168.09 149.43-17.261.166-29.704-3.821-45.879-8.939-54.788-17.336-93.206-58.583-108.255-114.043-1.945-7.169-3.673-14.692-5.176-22.578-.9-4.75-1.66-9.53-2.25-14.33-9.27-74.05 4.035-142.129 55.085-192.879 1.11-1.11 2.99-.34 3.01 1.22.055 5.177 5.74-2.017 7.303 6.079 1.29 6.681 3.358 14.009 6.641 21.41 1.36 3.07 2.8 5.86 4.28 8.39 2.87 4.97 5.85 8.93 8.5 11.99 1.4 1.63 4.04.97 4.55-1.11 1.5-6.21 8.092-11.339 10.652-18.629 4.06-11.61 9.69-24.15 17.57-36.2 14.02-21.43 25.349-25.222 37.579-40.242 12.56-15.42 25.459-31.238 30.979-80.908.25-2.21 2.97-3.16 4.52-1.57 5.969 6.117 8.117-1.284 13.493 5.397a280.41 280.41 0 0 1 3.447 4.372c.11.13.21.26.32.4 38.2 49.61 60.39 112.75 62.48 173.24.336 9.418 1.169 22.702 1.637 29.808.152 2.303 2.732 3.576 4.653 2.298 13.633-7.109 29.855-19.768 32.683-34.536.329-1.646 2.562-1.932 3.3-.424 3.545 7.881 7.847 3.477 10.474 12.132 11.46 37.754 14.04 83.285 6.494 140.222z" fill="#f9af38"></path><circle cx="247.758" cy="325.989" fill="#f5fcff" r="117.989"></circle><path d="M343.887 394.291c-17.65 24.85-44.84 42.9-77.23 48.16-64.22 10.42-124.94-33.34-135.36-97.56-7.45-45.88 12.76-89.97 48.32-115.2-17.35 24.41-25.49 55.38-20.32 87.2 10.42 64.22 71.14 107.98 135.36 97.56 18.34-2.98 35.02-10.06 49.23-20.16z" fill="#e0f5fc"></path><path d="M258.657 496.521c-3.57.25-7.18.39-10.83.43-17.26.17-34.28-2.53-50.45-7.65-54.79-17.34-96.3-62.16-111.35-117.62-1.95-7.17-3.68-14.69-5.18-22.58-.9-4.75-1.66-9.53-2.25-14.33-9.27-74.05 16.97-154.18 68.02-204.93 1.11-1.11 2.99-.34 3.01 1.22.05 5.18.48 12.32 2.04 20.42-38.43 50.24-57.11 119.05-49.07 183.29.59 4.8 1.35 9.58 2.25 14.33 1.5 7.89 3.23 15.41 5.18 22.58 15.05 55.46 56.56 100.28 111.35 117.62 12.04 3.81 24.55 6.28 37.28 7.22z" fill="#f48931"></path><path d="M193.778 53.969c-4.123 21.855-17.337 26.633-23.083 31.195a1.992 1.992 0 0 1-2.96-.557c-3.692-6.333-13.825-18.658-9.702-40.511.849-4.503.498-9.36 2.287-13.297 6.895-15.171 19.092-25.815 23.654-29.437a1.992 1.992 0 0 1 2.96.557c3.299 5.659 12.363 23.102 11.313 42.342-.125 2.292-4.03 7.384-4.469 9.708z" fill="#df646e"></path><path d="M197.417 51.191c-4.13 21.86-21.98 37.56-27.73 42.12-.95.76-2.35.49-2.96-.56-3.69-6.33-14.6-27.42-10.48-49.27 1.01-5.35 2.84-10.33 5.12-14.86.6 17.12 8.36 31.99 11.36 37.13a1.988 1.988 0 0 0 2.96.56c4.34-3.44 15.59-13.24 22.61-27.25.14 3.95-.11 8.03-.88 12.13z" fill="#dc4955"></path><path d="M415.948 101.331c.274 18.372-10.332 30.623-14.749 35.362a2.003 2.003 0 0 1-2.895.041c-4.554-4.615-15.529-14.475-15.803-32.85-.051-3.445-2.163-8.548-1.417-11.748 3.231-13.866 12.576-24.924 16.165-28.774a2.003 2.003 0 0 1 2.895-.041c3.674 3.723 13.236 14.398 16.939 28.033.887 3.267-1.188 6.426-1.135 9.977z" fill="#df646e"></path><path d="M418.577 101.611c.27 18.37-12.86 34.03-17.28 38.77-.78.83-2.09.85-2.9.04-4.55-4.62-18.15-19.92-18.43-38.29-.06-4.22.58-8.29 1.67-12.12 3.82 13.33 13.15 23.74 16.76 27.41.81.81 2.12.79 2.9-.04 3.41-3.65 11.98-13.78 15.61-26.65.99 3.45 1.61 7.1 1.67 10.88z" fill="#dc4955"></path><path d="M247.757 256.501a7.499 7.499 0 0 1-7.5-7.5v-15c0-4.143 3.357-7.5 7.5-7.5s7.5 3.357 7.5 7.5v15a7.5 7.5 0 0 1-7.5 7.5zM170.769 333.489h-15c-4.143 0-7.5-3.357-7.5-7.5s3.357-7.5 7.5-7.5h15c4.143 0 7.5 3.357 7.5 7.5s-3.357 7.5-7.5 7.5zM247.757 425.476a7.499 7.499 0 0 1-7.5-7.5v-15c0-4.143 3.357-7.5 7.5-7.5s7.5 3.357 7.5 7.5v15a7.5 7.5 0 0 1-7.5 7.5z" fill="#5f6c75"></path><path d="M163.237 333.491h-7.47c-4.14 0-7.5-3.36-7.5-7.5 0-4.15 3.36-7.5 7.5-7.5h3.81c.9 5.14 2.13 10.15 3.66 15zM255.257 414.171v3.8c0 4.15-3.36 7.5-7.5 7.5s-7.5-3.35-7.5-7.5v-7.48a114.8 114.8 0 0 0 15 3.68z" fill="#4e5a61"></path><path d="M339.744 333.489h-15c-4.143 0-7.5-3.357-7.5-7.5s3.357-7.5 7.5-7.5h15c4.143 0 7.5 3.357 7.5 7.5s-3.357 7.5-7.5 7.5z" fill="#5f6c75"></path><path d="M237.15 322.882c-1.919 0 .007-3.704-1.457-5.168l-17.769-10.95-7.671-7.671a7.5 7.5 0 0 1 10.607-10.607l7.675 7.676 7.029 18.744c2.929 2.93 9.817 2.851 6.889 5.78a7.477 7.477 0 0 1-5.303 2.196zM258.363 322.882a7.481 7.481 0 0 1-5.304-2.196c-2.929-2.93.386-5.276 3.314-8.206l10.603-16.319 33.343-33.343a7.5 7.5 0 0 1 10.607 10.607l-33.338 33.338-17.386 10.567c-1.463 1.465.08 5.552-1.839 5.552z" fill="#f9af38"></path><g fill="#f48931"><path d="M409.417 207.301a43.697 43.697 0 0 1-1.567 2.167c-10.35 13.492-26.583 21.162-43.588 21.162h-2.565l.02-.03c13.192-5.999 27.003-25.714 33.15-40.95 1.456-2.151 1.36-10.988 5.29-7.13 3.613 8.022 6.704 16.349 9.26 24.781zM290.427 20.011c-6.56 38.56-18.69 60.71-29.67 74.19-12.23 15.02-23.54 19.91-37.56 41.34-7.88 12.05-13.51 24.59-17.57 36.2-.7 1.994-1.492 4.576-2.274 7.275a21.003 21.003 0 0 1-20.172 15.165h-9.744l.01-.03c3.735-.915 6.481-21.457 9.971-27.309 9.244-30.176 34.705-53.774 53.339-72.641 12.56-15.42 26.61-42.17 32.13-91.84.25-2.21 2.97-3.16 4.52-1.57 5.97 6.12 11.65 12.54 17.02 19.22z" fill="#f48931"></path></g><circle cx="247.757" cy="325.989" fill="#f9af38" r="15"></circle><path d="M242.457 320.681c-1.47 1.47-3.39 2.2-5.31 2.2s-3.84-.73-5.3-2.2l-13.92-13.92c2.74-4.24 6.36-7.86 10.61-10.6l13.92 13.92a7.49 7.49 0 0 1 0 10.6zM277.587 306.761l-13.92 13.92c-1.46 1.47-3.38 2.2-5.3 2.2s-3.84-.73-5.31-2.2a7.49 7.49 0 0 1 0-10.6l13.92-13.92c4.25 2.74 7.87 6.36 10.61 10.6z" fill="#f48931"></path><path d="M247.757 348.489c-12.406 0-22.5-10.094-22.5-22.5s10.094-22.5 22.5-22.5 22.5 10.094 22.5 22.5-10.094 22.5-22.5 22.5zm0-30c-4.136 0-7.5 3.364-7.5 7.5s3.364 7.5 7.5 7.5 7.5-3.364 7.5-7.5-3.364-7.5-7.5-7.5z" fill="#5f6c75"></path></g></svg>