<svg viewBox="0 0 512 512" xmlns="http://www.w3.org/2000/svg"><g><path d="M125.625 225.263a9.094 9.094 0 0 1-2.223-.272c-4.902-1.223-7.884-6.188-6.652-11.089l6.652-26.607-17.741-4.433L99 209.469c-1.223 4.893-6.205 7.888-11.08 6.652-4.902-1.223-7.884-6.188-6.652-11.089l6.652-26.607a18.124 18.124 0 0 1 8.33-11.246c4.188-2.518 9.116-3.241 13.848-2.058l17.732 4.433c9.777 2.442 15.75 12.388 13.312 22.174l-6.661 26.612c-1.035 4.151-4.758 6.923-8.856 6.923z" fill="#736572"></path><path d="m455.422 167.008-55.136 22.054-49.153-65.538-49.26 28.057 79.259 68.587 28.379 6.737 61.168-26.215 6.252-21.2z" fill="#eceaec"></path><path d="m315.342 145.415-16.366 10.011-.004.004 79.258 68.586a27.43 27.43 0 0 0 28.364 4.14l2.917-1.25z" fill="#dbd8db"></path><path d="M311.881 84.097 181.473 68.448c-21.57-2.588-41.982 10.361-48.83 30.978l-11.648 35.069 14.073 18.39 23.339-7.167 13.433-36.003 91.047 13.088-34.208 111.095 80.304 3.817 39.334-89.906c12.284-28.082-6.003-60.06-36.436-63.712z" fill="#dbd8db"></path><path d="M171.839 109.714 254.125 128l-30.266 90.797 13.973 15.908 33.642-100.929c3.428-10.284-2.793-21.275-13.374-23.631l-61.737-13.744c-10.351-2.305-20.817 3.377-24.524 13.313z" fill="#c9c5c9"></path><path d="M431.817 342.54a54.854 54.854 0 0 0-22.797-35.569l-100.038-69.257-67.122-14.916-13.834 5.887-50.823 154.099-127.384-30.95L52.982 384l108.13 33.79c21.849 6.828 45.38-3.558 55.061-24.302l47.095-100.917 128.306 57.308 31.928 144 31.766-18.45z" fill="#736572"></path><path d="m189.192 380.645 52.668-157.847-18.001-4.001-52.02 156.06-104.407-27.842-16.987 14.396 116.691 31.114c9.336 2.49 18.998-2.715 22.056-11.88z" fill="#615260"></path><path d="M391.268 36.571a36.416 36.416 0 0 1-4.742 18.024c-6.285 11.076-18.185 16.732-31.829 16.732-20.198 0-34.579-14.558-34.579-34.756 0-13.631 5.465-25.52 16.522-31.81A36.402 36.402 0 0 1 354.696 0c20.198 0 36.572 16.374 36.572 36.571z" fill="#e29a6c"></path><path d="m67.432 347.015-25.934-6.916a9.143 9.143 0 0 0-10.294 4.297L7.471 385.929c-3.278 5.736 2.258 12.488 8.526 10.399l36.832-12.277z" fill="#4e3d4d"></path><path d="m455.422 167.008 15.257 33.682 23.815-10.206c11.806-5.06 14.769-20.444 5.686-29.527a18.156 18.156 0 0 0-19.581-4.02zM123.401 177.273c10.651 5.604 23.073.426 27.016-10.143l7.989-21.412-37.411-11.223-6.366 19.163c-2.972 8.945.429 19.225 8.772 23.615z" fill="#e29a6c"></path><path d="m143.123 298.366-97.572-24.393a9.142 9.142 0 0 1-6.652-11.087l15.522-62.088a9.142 9.142 0 0 1 11.087-6.652l97.572 24.393a9.142 9.142 0 0 1 6.652 11.087l-15.522 62.088c-1.224 4.898-6.188 7.876-11.087 6.652z" fill="#615260"></path><path d="m52.203 247.363 13.305-53.219-8.867-2.217a9.143 9.143 0 0 0-11.088 6.653l-17.74 70.959a9.142 9.142 0 0 0 6.652 11.087l106.438 26.609a9.142 9.142 0 0 0 11.087-6.652l2.218-8.871-88.703-22.176c-9.795-2.448-15.752-12.376-13.302-22.173z" fill="#4e3d4d"></path><path d="m410.091 475.429 11.89 7.59 6.897-7.59-28.015-119.039a27.426 27.426 0 0 0-13.695-17.866l-99.132-53.381c-8.891-4.788-19.98-1.462-24.768 7.429l118.857 64z" fill="#615260"></path><path d="M368.411 59.429c-20.198 0-36.571-16.374-36.571-36.571 0-6.564 1.773-12.77 4.8-18.096-11.061 6.289-18.514 18.175-18.514 31.81 0 20.198 16.373 36.571 36.571 36.571 13.634 0 25.541-7.486 31.829-18.548-5.326 3.027-11.552 4.834-18.115 4.834z" fill="#d48c64"></path><path d="M417.038 504.951a9.144 9.144 0 0 0 8.9 7.049h54.526c6.804 0 9.809-8.568 4.497-12.818l-29.692-23.753h-45.176z" fill="#4e3d4d"></path></g></svg>