<svg viewBox="0 0 48 48" xmlns="http://www.w3.org/2000/svg"><g><path d="M12.36 26.917h5.676l1.167 3.026a2.757 2.757 0 0 1-.873 3.163L7.24 41.782z" fill="#7e57c2"></path><path d="M6.999 29a2 2 0 0 1-1.773-2.923l2.079-4c.146-.279.355-.521.612-.705l7-5a2 2 0 1 1 2.325 3.256l-6.609 4.721-1.858 3.574A2.002 2.002 0 0 1 6.999 29z" fill="#ffe0b2"></path><circle cx="20" cy="10" fill="#ffe0b2" r="5"></circle><path d="m20.56 17.869-.363-.484A3.462 3.462 0 0 0 17.427 16H15.73a3.566 3.566 0 0 0-3.384 2.441l-2.179 10.476-6.044 11.502a1.912 1.912 0 0 0 3.356 1.766l10.689-15.268 2.802-4.534a4.315 4.315 0 0 0-.41-4.514z" fill="#9575cd"></path><path d="M24.36 26.917h5.676l3.755 1.671c1.751.779 1.554 3.325-.296 3.826l-12.636 3.42z" fill="#512da8"></path><path d="M16 26a2 2 0 0 1-1.403-3.425l5.079-5c.304-.3.697-.495 1.12-.555l7-1a2 2 0 0 1 .566 3.959l-6.349.907-4.61 4.538A1.987 1.987 0 0 1 16 26z" fill="#ffb74d"></path><circle cx="32" cy="10" fill="#ffb74d" r="5"></circle><path d="m32.56 17.869-.363-.484A3.462 3.462 0 0 0 29.427 16H27.73a3.566 3.566 0 0 0-3.384 2.441l-2.179 10.476-6.045 11.503a1.912 1.912 0 0 0 3.357 1.765l10.689-15.268 2.802-4.534a4.315 4.315 0 0 0-.41-4.514z" fill="#673ab7"></path><path d="M35 26a2 2 0 0 1-1.426-.597l-4.921-5a2 2 0 0 1 2.85-2.807l3.963 4.027 5.745-2.462a2 2 0 1 1 1.575 3.676l-7 3c-.252.11-.52.163-.786.163z" fill="#ffb74d"></path></g></svg>