<svg id="Layer_1" enable-background="new 0 0 512 512" viewBox="0 0 512 512" xmlns="http://www.w3.org/2000/svg"><g><g><g><path clip-rule="evenodd" d="m249.094 48.07c17.086 4.066 33.405 10.84 48.36 20.049l31.424-13.956 37.038 37.036-13.952 31.415c9.211 14.958 15.985 31.283 20.052 48.373l32.061 12.341v52.377l-32.068 12.344c-4.066 17.086-10.841 33.405-20.049 48.36l13.956 31.425-37.036 37.036-31.415-13.952c-14.958 9.211-31.283 15.985-48.373 20.052l-12.34 32.061h-52.379l-12.344-32.069c-17.087-4.066-33.405-10.841-48.36-20.049l-31.424 13.957-37.038-37.036 13.952-31.415c-9.211-14.958-15.985-31.284-20.052-48.374l-32.061-12.34v-52.378l32.066-12.343c4.066-17.087 10.84-33.408 20.05-48.364l-13.954-31.42 37.036-37.039 31.425 13.957c14.956-9.208 31.275-15.983 48.361-20.049l12.344-32.068h52.377z" fill="#ffd064" fill-rule="evenodd"/></g><g><path clip-rule="evenodd" d="m123.67 350.914-31.425 13.956-4.864-4.863 29.451-13.08c2.249 1.385 4.529 2.713 6.838 3.987zm125.424-302.844c16.855 4.011 32.964 10.658 47.754 19.677.196.132.398.257.607.372l-8.977 3.987c-14.955-9.208-38.111-19.97-55.197-24.036l-12.344-32.068h15.814zm-161.714 10.955 4.864-4.863 31.425 13.957c-2.309 1.274-4.588 2.603-6.837 3.987zm230.548 0 10.95-4.863 37.038 37.036-13.952 31.415c9.211 14.958 15.985 31.283 20.052 48.373l32.061 12.341v52.377l-32.068 12.344c-4.066 17.086-10.841 33.405-20.049 48.36l13.956 31.425-37.036 37.037-10.951-4.863 32.173-32.174-13.957-31.425c9.209-14.955 15.983-31.274 20.049-48.36l32.068-12.344v-52.377l-32.061-12.341c-4.067-17.09-10.841-33.415-20.052-48.373l13.952-31.415zm-21.075 292.268c-14.791 9.02-30.904 15.666-47.761 19.677l-12.34 32.061h-15.814l12.34-32.061c17.09-4.067 40.25-14.828 55.209-24.039l8.978 3.987c-.208.115-.411.24-.612.375z" fill="#ffd064" fill-rule="evenodd"/></g><g><ellipse clip-rule="evenodd" cx="210.561" cy="209.516" fill="#eceff1" fill-rule="evenodd" rx="112.508" ry="112.508" transform="matrix(.707 -.707 .707 .707 -86.478 210.255)"/></g><g><path clip-rule="evenodd" d="m210.561 97.007c2.659 0 5.295.099 7.907.28-58.445 4.059-104.602 52.751-104.602 112.228s46.156 108.169 104.602 112.228c-2.613.182-5.248.281-7.907.281-62.135 0-112.508-50.373-112.508-112.508 0-62.136 50.372-112.509 112.508-112.509z" fill="#d1d1d6" fill-rule="evenodd"/></g></g><g><g><g><path clip-rule="evenodd" d="m406.335 293.035c9.77 2.325 19.101 6.199 27.652 11.464l17.968-7.98 21.178 21.177-7.978 17.963c5.267 8.553 9.14 17.888 11.466 27.659l18.332 7.057v29.949l-18.336 7.058c-2.325 9.77-6.199 19.101-11.464 27.652l7.98 17.968-21.177 21.178-17.963-7.978c-8.553 5.267-17.888 9.14-27.659 11.466l-7.056 18.332h-29.949l-7.058-18.336c-9.77-2.325-19.101-6.199-27.652-11.464l-17.968 7.98-21.178-21.177 7.978-17.963c-5.267-8.553-9.14-17.888-11.466-27.66l-18.332-7.056v-29.949l18.335-7.057c2.325-9.77 6.198-19.103 11.465-27.654l-7.979-17.966 21.177-21.178 17.969 7.981c8.551-5.265 17.882-9.139 27.652-11.464l7.058-18.336h29.949z" fill="#a79ba7" fill-rule="evenodd"/></g><g><path clip-rule="evenodd" d="m334.619 466.198-17.968 7.98-2.781-2.781 16.84-7.479c1.286.792 2.589 1.552 3.909 2.28zm71.716-173.163c9.638 2.294 18.849 6.094 27.305 11.251.112.076.228.147.347.213l-5.133 2.28c-8.551-5.265-21.791-11.419-31.561-13.744l-7.058-18.336h9.042zm-92.466 6.264 2.781-2.781 17.969 7.981c-1.32.728-2.623 1.488-3.909 2.28zm131.825 0 6.261-2.781 21.178 21.177-7.978 17.963c5.267 8.553 9.14 17.888 11.466 27.659l18.332 7.057v29.949l-18.336 7.058c-2.325 9.77-6.199 19.101-11.464 27.652l7.98 17.968-21.177 21.178-6.262-2.781 18.396-18.397-7.98-17.968c5.265-8.551 9.139-17.882 11.464-27.652l18.336-7.058v-29.949l-18.332-7.057c-2.325-9.772-6.199-19.106-11.465-27.659l7.978-17.963zm-12.05 167.116c-8.458 5.158-17.671 8.958-27.31 11.252l-7.056 18.332h-9.043l7.056-18.332c9.772-2.325 23.015-8.478 31.568-13.746l5.134 2.28c-.118.065-.235.137-.349.214z" fill="#837683" fill-rule="evenodd"/></g></g><g><g><ellipse clip-rule="evenodd" cx="384.303" cy="385.348" fill="#eceff1" fill-rule="evenodd" rx="64.331" ry="64.331" transform="matrix(.707 -.707 .707 .707 -159.923 384.609)"/></g><g><path clip-rule="evenodd" d="m384.303 321.017c1.521 0 3.027.057 4.521.16-33.419 2.32-59.81 30.163-59.81 64.171s26.392 61.85 59.81 64.171c-1.494.104-3.001.16-4.521.16-35.529 0-64.331-28.803-64.331-64.331s28.802-64.331 64.331-64.331z" fill="#d1d1d6" fill-rule="evenodd"/></g></g></g><g><g><ellipse clip-rule="evenodd" cx="210.359" cy="208.368" fill="#8ac9fe" fill-rule="evenodd" rx="75.895" ry="75.895" transform="matrix(.707 -.707 .707 .707 -85.725 209.776)"/></g><g><path clip-rule="evenodd" d="m210.359 132.473c-1.68 0-3.347.061-5 .168 39.584 2.575 70.895 35.492 70.895 75.727s-31.311 73.151-70.895 75.727c1.653.107 3.32.168 5 .168 41.916 0 75.895-33.98 75.895-75.895 0-41.916-33.979-75.895-75.895-75.895z" fill="#60b7ff" fill-rule="evenodd"/></g></g><g><path clip-rule="evenodd" d="m166.288 199.097c5.207-5.208 13.728-5.208 18.935 0l13.566 13.566 36.706-36.706c5.207-5.207 13.728-5.207 18.935 0 5.207 5.207 5.207 13.728 0 18.935l-45.912 45.912c-6.638 6.638-15.518 3.94-21.405-1.947l-20.825-20.825c-5.207-5.208-5.207-13.728 0-18.935z" fill="#d8ecfe" fill-rule="evenodd"/></g></g></svg>