<svg viewBox="0 0 512 512" xmlns="http://www.w3.org/2000/svg"><g><g fill="#fd9025"><path d="M273.052 75.503c-5.857-5.858-15.355-5.858-21.213 0s-5.858 15.355 0 21.213l38.021 38.021 21.213-21.213zM305.641 42.914c-5.857-5.858-15.355-5.858-21.213 0s-5.858 15.355 0 21.213l38.021 38.021 21.213-21.213zM460.922 67.553 439 88.46l-56.8-56.92c-5.86-5.86-5.86-15.36 0-21.21 5.85-5.86 15.35-5.86 21.21 0z" fill="#fd9025"></path></g><path d="m506.61 48.34-21.72-21.72-21.73-21.73c-5.86-5.85-15.36-5.85-21.22 0l-65.437 65.434-21.979-21.979c-5.857-5.858-15.355-5.858-21.213 0l-76.041 76.041c-5.858 5.858-5.858 15.355 0 21.213l21.977 21.977-87.607 87.604 64.68 64.68 250.29-250.3c5.85-5.86 5.85-15.36 0-21.22z" fill="#fabe2c"></path><path d="m506.61 69.56-250.29 250.3-32.34-32.34 260.91-260.9 21.72 21.72c5.85 5.86 5.85 15.36 0 21.22z" fill="#fd9025"></path><path d="M259.971 304.598c-4.011-12.293-10.997-23.658-20.204-32.865-9.208-9.207-20.572-16.193-32.858-20.201-25.433-8.309-52.668-3.948-73.926 11.223-32.387-23.033-77.738-20.042-106.771 8.98-29.018 29.028-32.009 74.381-8.971 106.773-23.043 32.389-20.052 77.744 8.975 106.78 16.184 16.178 37.438 24.267 58.693 24.266 16.875 0 33.748-5.098 48.083-15.296 32.391 23.037 77.746 20.046 106.776-8.974 29.018-29.029 32.009-74.379 8.977-106.767 15.171-21.256 19.532-48.491 11.226-73.919zM132 426.5c-25.916 0-47-21.084-47-47s21.084-47 47-47 47 21.084 47 47-21.084 47-47 47z" fill="#fed843"></path><path d="M179 379.5c0 25.916-21.084 47-47 47-12.958 0-24.708-5.271-33.219-13.781l-72.568 72.568.002.002c16.184 16.178 37.438 24.267 58.693 24.266 16.875 0 33.748-5.098 48.083-15.296 32.391 23.037 77.746 20.046 106.776-8.974 29.018-29.029 32.009-74.379 8.977-106.767 15.171-21.256 19.532-48.492 11.226-73.919-4.011-12.293-10.997-23.657-20.204-32.865l-74.548 74.548c8.511 8.51 13.782 20.26 13.782 33.218z" fill="#fabe2c"></path><path d="M465 511.5c-25.916 0-47-21.084-47-47s21.084-47 47-47 47 21.084 47 47-21.084 47-47 47z" fill="#e62e6b"></path><circle cx="15" cy="119.501" fill="#5ed8d3" r="15"></circle><circle cx="136" cy="151.501" fill="#d599ed" r="15"></circle><circle cx="360" cy="375.501" fill="#31bebe" r="15"></circle><path d="M136 28.5h-13v-13c0-8.284-6.716-15-15-15s-15 6.716-15 15v13H80c-8.284 0-15 6.716-15 15s6.716 15 15 15h13v13c0 8.284 6.716 15 15 15s15-6.716 15-15v-13h13c8.284 0 15-6.716 15-15s-6.716-15-15-15z" fill="#ff6666"></path><circle cx="456" cy="247.503" fill="#ad77e3" r="15"></circle></g></svg>