<svg viewBox="0 0 64 64" xmlns="http://www.w3.org/2000/svg"><g><g><path d="M33 39.8C49 43.84 55 44 55 44a25.047 25.047 0 0 1-8.87 11.55A24.274 24.274 0 0 1 32 60c-12.09 0-22-9-25-21a99.132 99.132 0 0 1 11-1h3a55.545 55.545 0 0 1 12 1.8z" fill="#ffd28a"></path><ellipse cx="32" cy="25" fill="#da684e" rx="31" ry="3"></ellipse><path d="M63 25v3l-2 4c-3 1-13.52 2-29 2S6 33 3 32l-2-4v-3c0 1.66 13.88 3 31 3s31-1.34 31-3z" fill="#da684e"></path><path d="M32 63C4 63 3 32 3 32c3 1 13.52 2 29 2s26-1 29-2c0 0-1 31-29 31zM7 39c3 12 12.91 21 25 21a24.274 24.274 0 0 0 14.13-4.45A25.047 25.047 0 0 0 55 44s-6-.16-22-4.2A55.545 55.545 0 0 0 21 38h-3a99.132 99.132 0 0 0-11 1z" fill="#ede9e1"></path><path d="M32 28c-.34 0-.67 0-1.01-.01C14.34 27.95 1 26.63 1 25v3l.145.291c1.475 1.493 14.2 2.661 29.845 2.7.34.01.67.01 1.01.01 16.129 0 29.377-1.19 30.858-2.715L63 28v-3c0 1.66-13.88 3-31 3z" fill="#f58569"></path><path d="M3.88 26.264C8.807 27.29 19.542 28 32 28s23.193-.71 28.12-1.736C56.951 24.961 45.564 24 32 24s-24.951.961-28.12 2.264z" fill="#a34235"></path><path d="m41.44 22.74-2.09 2.08-1.39-1.39-.7-.69-.69-.7-1.39-1.39 2.08-2.09z" fill="#918778"></path><path d="M58.14 1.86a2.97 2.97 0 0 1 0 4.18l-16.7 16.7-4.18-4.18 16.7-16.7a2.963 2.963 0 0 1 4.18 0z" fill="#da684e"></path><g fill="none"><path d="M36.8 22.482c-.117.062-11.811 6.273-15.879 10.352-4.02 4.008-3.967 6.549-3.426 8.32.1.118.2.226.3.338l19.047-19.041a.368.368 0 0 1-.042.031zM27.873 39.783c-2.924 2.931-5.218 3.836-6.989 3.953a9.1 9.1 0 0 0 3.41.764 6.808 6.808 0 0 0 4.962-1.942c4.325-4.327 9.575-17.783 9.628-17.918a.477.477 0 0 1 .116-.173l-.67-.667c-.73 1.366-6.458 12-10.457 15.983z" fill=""></path><path d="M35.36 21.116c-.135.053-13.592 5.3-17.917 9.627a6.834 6.834 0 0 0-1.943 4.963 9.1 9.1 0 0 0 .757 3.393c.123-1.761 1.035-4.055 3.96-6.973 3.988-4 14.617-9.727 15.983-10.456l-.667-.67a.5.5 0 0 1-.173.116zM37.518 23.2c.007-.015.021-.023.03-.037L18.508 42.2c.112.1.22.206.338.3 1.8.54 4.337.57 8.319-3.425 4.081-4.069 10.291-15.762 10.353-15.875z" fill=""></path></g><path d="m39.35 24.82-.35-.353a.477.477 0 0 0-.113.173c-.053.135-5.3 13.591-9.628 17.918a6.808 6.808 0 0 1-4.965 1.942 9.1 9.1 0 0 1-3.41-.764c1.771-.117 4.065-1.022 6.989-3.953C31.872 35.8 37.6 25.166 38.33 23.8l-.37-.37-.7-.69-.69-.7-.37-.37c-1.366.729-12 6.458-15.983 10.456-2.925 2.918-3.837 5.212-3.96 6.973a9.1 9.1 0 0 1-.757-3.393 6.834 6.834 0 0 1 1.943-4.963c4.325-4.323 17.782-9.574 17.917-9.627a.5.5 0 0 0 .173-.116l-.353-.353.351-.353a.5.5 0 0 0-.531-.109c-.562.216-13.789 5.378-18.262 9.85a7.846 7.846 0 0 0-2.237 5.7 10.086 10.086 0 0 0 2.1 5.9v.006a.478.478 0 0 0 .26.3c.183.216.365.433.562.629.2.2.41.374.624.556a.528.528 0 0 0 .294.262l.024.008a10.085 10.085 0 0 0 5.9 2.1h.208a7.85 7.85 0 0 0 5.489-2.239C34.437 38.79 39.6 25.562 39.815 25a.5.5 0 0 0-.112-.532zM17.8 41.492c-.1-.112-.207-.22-.3-.338-.541-1.771-.594-4.312 3.426-8.32 4.068-4.079 15.762-10.29 15.879-10.352a.368.368 0 0 0 .038-.031zm1.046 1.008c-.118-.1-.226-.2-.338-.3l19.04-19.04c-.009.014-.023.022-.03.037-.062.117-6.272 11.81-10.353 15.88-3.982 3.994-6.518 3.964-8.319 3.423z" fill="#ded9d0"></path><path d="M56 30c0-.034-.009-.066-.01-.1A221.84 221.84 0 0 1 32 31c-.34 0-.67 0-1.01-.01A216.65 216.65 0 0 1 8.01 29.9c0 .033-.01.064-.01.1a3.972 3.972 0 0 0 1.474 3.078C14.649 33.612 22.362 34 32 34s17.351-.388 22.526-.922A3.972 3.972 0 0 0 56 30z" fill="#bd4c3d"></path><path d="M8.01 29.9a216.65 216.65 0 0 0 22.98 1.09c.34.01.67.01 1.01.01a221.84 221.84 0 0 0 23.99-1.1 3.973 3.973 0 0 0-1.314-2.854C49.017 27.633 40.954 28 32 28c-.34 0-.67 0-1.01-.01-8.55-.021-16.221-.379-21.667-.943A3.971 3.971 0 0 0 8.01 29.9z" fill="#da684e"></path><path d="M32 60a23.785 23.785 0 0 0 16.391-6.29A24.883 24.883 0 0 1 36 57a22 22 0 0 1-21.764-18.786C9.826 38.536 7 39 7 39c3 12 12.91 21 25 21z" fill="#ffbb4a"></path><path d="M48.391 53.71A23.785 23.785 0 0 1 32 60c-12.09 0-22-9-25-21 0 0 2.826-.464 7.236-.786A22.126 22.126 0 0 1 14 35v-1.543C8.426 33.075 4.615 32.538 3 32c0 0 1 31 29 31 18.888 0 25.483-14.1 27.78-23.281A25.063 25.063 0 0 1 48.391 53.71z" fill="#ded9d0"></path><path d="M36.415 19.409 35.18 20.65l1.39 1.39.69.7.7.69 1.39 1.39 2.09-2.08-2.523-2.523a2.987 2.987 0 0 1-2.502-.808z" fill="#544f43"></path><path d="M58.14 1.86a3.009 3.009 0 0 0-.47-.38 1.993 1.993 0 0 1-.584 1.434L40.621 19.379a2.971 2.971 0 0 1-1.7.838l2.519 2.523 16.7-16.7a2.97 2.97 0 0 0 0-4.18z" fill="#bd4c3d"></path><path d="M53.7 20.992a9.993 9.993 0 0 1-5.257-1.971 1 1 0 0 1 1.116-1.661c2.534 1.7 4.5 1.956 5.138 1.33a1.938 1.938 0 0 0 .256-1.536 1 1 0 0 1 1.977-.308 3.6 3.6 0 0 1-.815 3.255 3.318 3.318 0 0 1-2.415.891z" fill="#65adaf"></path><path d="M56.7 16a8.9 8.9 0 0 1-4.19-1.321 1 1 0 1 1 .978-1.744c2.191 1.229 3.692 1.263 4.208.751.5-.506.389-1.768-.3-3.286a1 1 0 0 1 1.823-.826c1.084 2.395 1.046 4.358-.109 5.527A3.31 3.31 0 0 1 56.7 16z" fill="#79cfd1"></path><path d="M29.256 42.558a6.808 6.808 0 0 1-4.962 1.942 9.1 9.1 0 0 1-3.41-.764c1.771-.117 4.065-1.022 6.989-3.953.275-.274.56-.586.849-.918a41.439 41.439 0 0 0-1.158-.2c-.135.145-.268.284-.4.414-3.982 3.995-6.518 3.965-8.319 3.425-.118-.1-.226-.2-.338-.3l4.119-4.119q-.689-.046-1.346-.068l-3.48 3.48c-.1-.112-.207-.22-.3-.338a5.386 5.386 0 0 1-.048-3.129q-.523.023-1.029.05a6.83 6.83 0 0 0-.165 1.024A9.009 9.009 0 0 1 15.9 38.1c-.352.021-.694.043-1.03.065a10.127 10.127 0 0 0 1.73 3.47v.006a.478.478 0 0 0 .26.3c.183.216.365.433.562.629.2.2.41.374.624.556a.528.528 0 0 0 .294.262l.024.008a10.085 10.085 0 0 0 5.9 2.1h.208a7.85 7.85 0 0 0 5.489-2.239 21.315 21.315 0 0 0 2.706-3.543q-.52-.129-1.032-.248a19.355 19.355 0 0 1-2.379 3.092z" fill="#ffbb4a"></path><path d="M55.251 34.228c-.793.438-.809 1.611-.967 2.43a19.683 19.683 0 0 1-.926 3.38 17.839 17.839 0 0 0-1.3 3.672C54.093 43.975 55 44 55 44a26.293 26.293 0 0 1-.809 1.884 3.646 3.646 0 0 0 1.679-1.159 7.648 7.648 0 0 0 1.3-2.487 16.306 16.306 0 0 0 .82-3.99c.11-1.448-.597-5.205-2.739-4.02zM50.984 43.035a32.134 32.134 0 0 0 .97-3.6 1.416 1.416 0 0 0-.051-.891c-.575-1.086-2.312-.3-3 .221a11.887 11.887 0 0 0-2.2 2.687 8.272 8.272 0 0 0-.743 1.259c1.976.375 3.591.641 4.882.83.043-.165.091-.326.142-.506z" fill="#f7f3eb"></path><path d="M52.057 43.71a5.068 5.068 0 0 0-.056.618 1.91 1.91 0 0 0 .252 1.115A1.468 1.468 0 0 0 53.57 46a2.583 2.583 0 0 0 .621-.113c.291-.615.564-1.241.809-1.884 0-.003-.907-.028-2.943-.293zM44.018 47.364a.51.51 0 0 0 0 .263.448.448 0 0 0 .221.225 2.118 2.118 0 0 0 1.814-.164 19.537 19.537 0 0 0 3.241-1.781 3.269 3.269 0 0 0 1.217-1.43 7.529 7.529 0 0 0 .327-.936 117.88 117.88 0 0 1-4.882-.83c-.421.843-.769 1.748-1.156 2.563a8.765 8.765 0 0 0-.782 2.09z" fill="#ffebc2"></path><path d="M44.531 15.01a1 1 0 0 1-.791-.387c-2.8-3.61-3.528-7.036-1.85-8.727a3.545 3.545 0 0 1 .6-.455 1 1 0 0 1 1.026 1.717 1.532 1.532 0 0 0-.241.181c-.711.721-.165 3.206 2.048 6.057a1 1 0 0 1-.789 1.614z" fill="#65adaf"></path><path d="m51.874 3.946 1.431-1.431C49.814-.084 46.535-.736 44.89.9c-1.553 1.566-1.058 4.62 1.292 7.968a.964.964 0 0 0 .439.335A1.008 1.008 0 0 0 47 9.29a.993.993 0 0 0 .573-.182.982.982 0 0 0 .331-1.193.9.9 0 0 0-.087-.2C45.969 5.078 45.66 2.959 46.3 2.31c.713-.702 2.948-.246 5.574 1.636z" fill="#79cfd1"></path><circle cx="36" cy="44" fill="#ffedcf" r="1"></circle><circle cx="20" cy="46" fill="#ffedcf" r="1"></circle><circle cx="26" cy="48" fill="#ffbb4a" r="1"></circle><circle cx="35" cy="50" fill="#ffbb4a" r="1"></circle><circle cx="44" cy="52" fill="#ffedcf" r="1"></circle><circle cx="37" cy="54" fill="#ffbb4a" r="1"></circle><circle cx="33.5" cy="48.5" fill="#ffbb4a" r=".5"></circle><circle cx="32.5" cy="53.5" fill="#ffbb4a" r=".5"></circle><circle cx="40.5" cy="44.5" fill="#ffbb4a" r=".5"></circle><circle cx="45.5" cy="49.5" fill="#ffedcf" r=".5"></circle><circle cx="39.521" cy="47.5" fill="#ffbb4a" r=".5"></circle><circle cx="29.5" cy="47.5" fill="#ffbb4a" r=".5"></circle><circle cx="28.5" cy="41.5" fill="#ffedcf" r=".5"></circle><circle cx="27.5" cy="52.5" fill="#ffedcf" r=".5"></circle><circle cx="35.5" cy="46.5" fill="#ffbb4a" r=".5"></circle><circle cx="22.5" cy="50.5" fill="#ffbb4a" r="1.5"></circle></g></g></svg>