<svg viewBox="0 0 512 512" xmlns="http://www.w3.org/2000/svg"><g><path d="M442.8 330.5 432 344l-176-64 160-16 31.085 31.085a96.718 96.718 0 0 1 3.046 3.2A37.883 37.883 0 0 1 442.8 330.5z" fill="#92d1f7"></path><path d="M432 344a56.947 56.947 0 0 1-38.165 63.388L392 408 256 280z" fill="#5ebef7"></path><path d="m392 408-1.681 4.2a56.948 56.948 0 0 1-52.875 35.8h-.8L256 280z" fill="#92d1f7"></path><path d="M248.481 277.266a8 8 0 0 1 10.253-4.785l184.76 67.186a8 8 0 1 1-5.468 15.037L289.761 300.79l111.75 105.176a8 8 0 1 1-10.966 11.65L250.586 285.891a8 8 0 0 1-2.105-8.625z" fill="#4e9ecd"></path><path d="m376 232 36.414 36.414L256 280v-8l16.512-10.32A195.257 195.257 0 0 1 376 232z" fill="#5ebef7"></path><path d="M318.331 180.535 344 160l7.306 4.383a56 56 0 0 1 26.426 57.226L376 232a195.257 195.257 0 0 0-103.488 29.68L256 272v-24l36.056-42.066a195.309 195.309 0 0 1 26.275-25.399z" fill="#92d1f7"></path><path d="M303.822 148.282a203.938 203.938 0 0 1 22.4-29.235l.967.953A55.832 55.832 0 0 1 344 160l-25.669 20.535a195.309 195.309 0 0 0-26.275 25.4L256 248v-24z" fill="#5ebef7"></path><path d="M256 256a7.978 7.978 0 0 0 6.078-2.794l36.056-42.065a187.721 187.721 0 0 1 25.2-24.359l34.015-26.935a8 8 0 1 0-9.933-12.543l-34.046 26.96a203.821 203.821 0 0 0-27.383 26.465l-36.056 42.065A8 8 0 0 0 256 256zM256.008 280a7.963 7.963 0 0 0 4.232-1.217l16.512-10.32A187.069 187.069 0 0 1 376 240h8a8 8 0 0 0 0-16h-8a203.053 203.053 0 0 0-107.728 30.9l-16.512 10.32a8 8 0 0 0 4.248 14.78z" fill="#4e9ecd"></path><path d="M69.2 330.5 80 344l176-64-160-16-31.085 31.085a96.718 96.718 0 0 0-3.046 3.2A37.883 37.883 0 0 0 69.2 330.5z" fill="#92d1f7"></path><path d="M80 344a56.947 56.947 0 0 0 38.165 63.388L120 408l136-128z" fill="#5ebef7"></path><path d="m120 408 1.681 4.2a56.948 56.948 0 0 0 52.875 35.8h.8L256 280z" fill="#92d1f7"></path><path d="M263.519 277.266a8 8 0 0 0-10.253-4.785l-184.76 67.186a8 8 0 1 0 5.468 15.033l148.265-53.91-111.75 105.176a8 8 0 1 0 10.966 11.65l139.959-131.725a8 8 0 0 0 2.105-8.625z" fill="#4e9ecd"></path><path d="m136 232-36.414 36.414L256 280v-8l-16.512-10.32A195.257 195.257 0 0 0 136 232z" fill="#5ebef7"></path><path d="M193.669 180.535 168 160l-7.306 4.383a56 56 0 0 0-26.426 57.226L136 232a195.257 195.257 0 0 1 103.488 29.68L256 272v-24l-36.056-42.066a195.309 195.309 0 0 0-26.275-25.399z" fill="#92d1f7"></path><path d="M208.178 148.282a203.938 203.938 0 0 0-22.4-29.235l-.967.953A55.832 55.832 0 0 0 168 160l25.669 20.535a195.309 195.309 0 0 1 26.275 25.4L256 248v-24z" fill="#5ebef7"></path><path d="M256 256a7.978 7.978 0 0 1-6.078-2.794l-36.052-42.065a187.721 187.721 0 0 0-25.2-24.359l-34.015-26.935a8 8 0 1 1 9.933-12.543l34.046 26.96a203.821 203.821 0 0 1 27.383 26.465l36.056 42.065A8 8 0 0 1 256 256zM255.992 280a7.963 7.963 0 0 1-4.232-1.217l-16.512-10.32A187.069 187.069 0 0 0 136 240h-8a8 8 0 0 1 0-16h8a203.053 203.053 0 0 1 107.728 30.9l16.512 10.32a8 8 0 0 1-4.248 14.78z" fill="#4e9ecd"></path><g fill="#915628"><path d="M264 168a8.008 8.008 0 0 1-7.666-10.3l14.525-48.4a66.283 66.283 0 0 1 47.2-45.056 8 8 0 0 1 3.88 15.522 50.211 50.211 0 0 0-35.755 34.132L271.663 162.3A8 8 0 0 1 264 168z" fill="#915628"></path><path d="M264 168a8.008 8.008 0 0 1-7.666-10.3l14.525-48.4a66.283 66.283 0 0 1 47.2-45.056 8 8 0 0 1 3.88 15.522 50.211 50.211 0 0 0-35.755 34.132L271.663 162.3A8 8 0 0 1 264 168z" fill="#915628"></path><path d="M248 168a8 8 0 0 1-7.66-5.7l-14.522-48.406a50.211 50.211 0 0 0-35.758-34.133 8 8 0 0 1 3.88-15.522 66.283 66.283 0 0 1 47.2 45.056l14.523 48.405A8.008 8.008 0 0 1 248 168zM280 256h-48a111.192 111.192 0 0 0-.873 80.338l3.255 8.681A23.088 23.088 0 0 0 256 360a23.088 23.088 0 0 0 21.618-14.981l3.255-8.681A111.192 111.192 0 0 0 280 256z" fill="#915628"></path></g><path d="M286.98 312a110.2 110.2 0 0 1-3.36 16h-55.24a110.2 110.2 0 0 1-3.36-16zM287.94 296h-63.88a110.124 110.124 0 0 1 1.35-16h61.18a110.124 110.124 0 0 1 1.35 16z" fill="#7a4922"></path><path d="M287.94 296h-63.88a110.124 110.124 0 0 1 1.35-16h61.18a110.124 110.124 0 0 1 1.35 16zM286.98 312a110.2 110.2 0 0 1-3.36 16h-55.24a110.2 110.2 0 0 1-3.36-16zM272 200h-32l-4.686 9.373A61.076 61.076 0 0 0 232 256h48a61.076 61.076 0 0 0-3.314-46.627z" fill="#a3612d"></path><circle cx="256" cy="184" fill="#915628" r="24"></circle><path d="M390.319 412.2 392 408l1.835-.612A56.947 56.947 0 0 0 432 344l10.8-13.5a37.883 37.883 0 0 0 7.334-32.222 100.358 100.358 0 0 1 26 76.107A100.363 100.363 0 0 1 430 450.728l-37.459 23.836A34.764 34.764 0 0 1 373.876 480a34.764 34.764 0 0 1-31.342-19.722L336.64 448h.8a56.948 56.948 0 0 0 52.879-35.8zM121.681 412.2 120 408l-1.835-.612A56.947 56.947 0 0 1 80 344l-10.8-13.5a37.883 37.883 0 0 1-7.334-32.222 100.358 100.358 0 0 0-26 76.107A100.363 100.363 0 0 0 82 450.728l37.459 23.836A34.764 34.764 0 0 0 138.124 480a34.764 34.764 0 0 0 31.342-19.722L175.36 448h-.8a56.948 56.948 0 0 1-52.879-35.8z" fill="#0a71cd"></path><path d="M377.732 221.609a56 56 0 0 0-26.426-57.226L344 160a55.832 55.832 0 0 0-16.808-40l-.967-.953a204 204 0 0 1 114.624-62.726l6.225-1.1A34.867 34.867 0 0 1 488 89.558a34.865 34.865 0 0 1-10.212 24.654 53.1 53.1 0 0 0-13.681 51.515l13.727 50.332a34.864 34.864 0 0 1 .552 16.012l-1.191 5.953a34.866 34.866 0 0 1-31.613 27.933l-33.168 2.457L376 232z" fill="#007af6"></path><circle cx="416" cy="120" fill="#d78e0c" r="24"></circle><circle cx="424" cy="208" fill="#a86e09" r="16"></circle><path d="M134.268 221.609a56 56 0 0 1 26.426-57.226L168 160a55.832 55.832 0 0 1 16.808-40l.967-.953A204 204 0 0 0 71.151 56.321l-6.225-1.1A34.867 34.867 0 0 0 24 89.558a34.865 34.865 0 0 0 10.212 24.654 53.1 53.1 0 0 1 13.681 51.515l-13.727 50.332a34.864 34.864 0 0 0-.552 16.012l1.191 5.953a34.866 34.866 0 0 0 31.613 27.933l33.168 2.457L136 232z" fill="#007af6"></path><circle cx="96" cy="120" fill="#d78e0c" r="24"></circle><circle cx="88" cy="208" fill="#a86e09" r="16"></circle></g></svg>