<svg viewBox="0 0 512.001 512.001" xmlns="http://www.w3.org/2000/svg"><g><path d="M414.683 304.86c0 55.667-21.885 106.067-57.574 143.3C319.423 487.482 266.298 512 207.543 512 93.121 512 .403 419.282.403 304.86c0-15.437 1.726-30.512 4.904-45.042C25.921 167.101 108.56 97.721 207.543 97.721c36.598 0 70.924 9.444 100.709 26.154.091 0 .181 0 .272.091l77.007 74.919c18.527 30.966 29.152 67.2 29.152 105.975z" fill="#2f2e3c"></path><path d="M357.109 448.161c-37.686 39.322-90.811 63.84-149.566 63.84-114.422 0-207.14-92.718-207.14-207.14 0-15.437 1.726-30.512 4.904-45.042 34.145 116.147 141.483 200.874 268.71 200.874 28.878 0 56.848-4.36 83.092-12.532zM409.665 174.751l-24.134 24.134-.025-.025c-7.787 7.787-31.136-2.939-52.153-23.957-21.017-21.017-31.743-44.368-23.957-52.153l-1.144 1.125 25.223-25.223" fill="#20202b"></path><ellipse cx="371.559" cy="136.69" fill="#2f2e3c" rx="19.937" ry="53.814" transform="rotate(-45.001 371.559 136.695)"></ellipse><path d="m435.703 83.469-58.682 58.682a7.7 7.7 0 0 1-5.454 2.264 7.745 7.745 0 0 1-5.465-2.264 7.74 7.74 0 0 1 0-10.919l27.746-27.746.041-.041 30.895-30.885a7.721 7.721 0 0 1 10.919 0 7.707 7.707 0 0 1 0 10.909z" fill="#8fa3a9"></path><path d="m435.703 83.469-30.895 30.895a7.7 7.7 0 0 1-5.454 2.264 7.745 7.745 0 0 1-5.465-2.264c-2.995-3.005-3.005-7.863-.041-10.878l.041-.041 30.895-30.885a7.721 7.721 0 0 1 10.919 0 7.707 7.707 0 0 1 0 10.909z" fill="#ec1422"></path><path d="M169.917 136.286c-46.091 7.202 86.471 107.891 162.29 145.894 10.578 5.302 23.156-1.769 24.356-13.541 1.322-12.969.228-31.238-8.808-53.65-15.929-39.504-106.703-90.055-177.838-78.703z" fill="#525464"></path><path d="M432.404 52.003a7.718 7.718 0 0 1-7.719-7.719V7.719c0-4.264 3.455-7.719 7.719-7.719s7.719 3.455 7.719 7.719v36.566a7.72 7.72 0 0 1-7.719 7.718zM432.404 160.595a7.718 7.718 0 0 1-7.719-7.719V116.31c0-4.264 3.455-7.719 7.719-7.719s7.719 3.455 7.719 7.719v36.567a7.72 7.72 0 0 1-7.719 7.718zM409.259 60.43a7.704 7.704 0 0 1-5.917-2.757L379.838 29.66a7.717 7.717 0 0 1 .951-10.874 7.716 7.716 0 0 1 10.874.951l23.505 28.012a7.717 7.717 0 0 1-.951 10.874 7.683 7.683 0 0 1-4.958 1.807zM479.06 143.614a7.704 7.704 0 0 1-5.917-2.757l-23.505-28.011a7.717 7.717 0 0 1 .951-10.874 7.72 7.72 0 0 1 10.874.951l23.505 28.011a7.717 7.717 0 0 1-.951 10.874 7.685 7.685 0 0 1-4.957 1.806zM396.947 81.764c-.446 0-.895-.038-1.35-.118l-36.011-6.35a7.717 7.717 0 0 1-6.26-8.941 7.713 7.713 0 0 1 8.941-6.26l36.011 6.35a7.719 7.719 0 0 1-1.331 15.319zM503.888 100.621c-.446 0-.895-.038-1.35-.118l-36.01-6.35a7.717 7.717 0 0 1-6.26-8.941c.741-4.198 4.74-7.006 8.941-6.26l36.01 6.35a7.717 7.717 0 0 1 6.26 8.941 7.72 7.72 0 0 1-7.591 6.378zM463.597 70.011a7.719 7.719 0 0 1-3.867-14.404l31.668-18.284a7.719 7.719 0 0 1 7.719 13.369L467.45 68.976a7.691 7.691 0 0 1-3.853 1.035z" fill="#f49f00"></path></g></svg>