<svg viewBox="0 0 64 64" xmlns="http://www.w3.org/2000/svg"><g><path d="M22.788 14.263 37 19l7.638-3.395A7.025 7.025 0 0 1 47.49 15 2.51 2.51 0 0 1 50 17.51a2.508 2.508 0 0 1-1.308 2.2l-7.958 3.52A8.971 8.971 0 0 1 37.1 24a8.975 8.975 0 0 1-2.177-.268L28 22l4 9h12a5.176 5.176 0 0 1 3.48 1.345L56 41l2.613-1.742a1.537 1.537 0 0 1 .852-.258A1.535 1.535 0 0 1 61 40.535a3.538 3.538 0 0 1-1.036 2.5l-2.23 2.23a2.505 2.505 0 0 1-1.772.735 2.508 2.508 0 0 1-1.677-.643L45 37l-9 2 6 4 5 14h2.211A1.789 1.789 0 0 1 51 58.789a1.789 1.789 0 0 1-1.125 1.661l-3.266 1.306a3.415 3.415 0 0 1-1.267.244 3.412 3.412 0 0 1-3.184-2.187L38 49l-9.478-4.739A22.653 22.653 0 0 1 16 24l-1.56 1.3a18.764 18.764 0 0 0-6.028 9.258A10.724 10.724 0 0 0 8 37.5 2.5 2.5 0 0 1 5.5 40 2.5 2.5 0 0 1 3 37.5a16.686 16.686 0 0 1 .268-2.976 28.78 28.78 0 0 1 8.868-16.065l3.814-3.5z" fill="#fcd2d2"></path><path d="M59.465 39a1.537 1.537 0 0 0-.852.258L56 41l-8.52-8.655A5.176 5.176 0 0 0 44 31H32l-10.006 8.338a22.62 22.62 0 0 0 6.528 4.923L38 49l4.158 10.813a3.411 3.411 0 0 0 4.451 1.943l3.266-1.306a1.789 1.789 0 0 0-.664-3.45H47l-5-14-6-4 9-2 9.285 8.357a2.507 2.507 0 0 0 3.449-.091l2.23-2.23A3.538 3.538 0 0 0 61 40.535 1.535 1.535 0 0 0 59.465 39z" fill="#70492a"></path><path d="m28 22 3.135.784.615-5.534-8.962-2.987-6.838.7-3.814 3.5A28.734 28.734 0 0 0 9.2 21.6l3.793 5.056A18.584 18.584 0 0 1 14.44 25.3L16 24a22.644 22.644 0 0 0 5.994 15.338L32 31z" fill="#2a78e9"></path><path d="m32 31-4-9 3.135.784.615-5.534-8.962-2.987-6.838.7-.236.217 1.271 10.92a16.823 16.823 0 0 0 6.865 11.692z" fill="#4b97f3"></path><path d="M59.465 39a1.537 1.537 0 0 0-.852.258L56 41l-8.52-8.655A5.176 5.176 0 0 0 44 31H32l-8.367 6.973a22.521 22.521 0 0 0 5.889 4.288L39 47l4.158 10.813a3.411 3.411 0 0 0 4.451 1.943l3.266-1.306c.03-.012.052-.034.081-.047A1.789 1.789 0 0 0 49.211 57H47l-5-14-6-4 9-2 9.285 8.357a2.507 2.507 0 0 0 3.449-.091l2.23-2.23A3.821 3.821 0 0 0 61 40.535 1.535 1.535 0 0 0 59.465 39z" fill="#845d42"></path><path d="m17.344 15.718.321 1.605A2.086 2.086 0 0 0 19.71 19a2.089 2.089 0 0 0 1.867-1.153A4.017 4.017 0 0 0 22 16.053V15" fill="#f4b3b3"></path><path d="m17.6 16.977.07.346a2.087 2.087 0 0 0 3.912.524A4.017 4.017 0 0 0 22 16.053v-.029a7.588 7.588 0 0 1-2.453.859 7.994 7.994 0 0 1-1.947.094z" fill="#fcd2d2"></path><path d="M12 9.268V7a5 5 0 0 1 5-5h5a2 2 0 0 1 2 2 2 2 0 0 1 2 2v3.268z" fill="#603813"></path><path d="M26 6a2 2 0 0 0-2-2 2 2 0 0 0-2-2h-5a4.949 4.949 0 0 0-1.612.289A4.974 4.974 0 0 0 14 5.732 2.268 2.268 0 0 0 16.268 8H26z" fill="#70492a"></path><path d="M14 9h-1a2 2 0 0 0-2 2 2 2 0 0 0 2 2h1.389M24 9h1a2 2 0 0 1 2 2 2 2 0 0 1-2 2h-1.416" fill="#db7f7f"></path><path d="M24 8v3a5 5 0 0 1-5 5 5 5 0 0 1-5-5V8h3.764A3.618 3.618 0 0 0 21 6z" fill="#f4b3b3"></path><path d="M17.764 9H14v2a5 5 0 0 0 10 0V9l-3-2a3.618 3.618 0 0 1-3.236 2z" fill="#fcd2d2"></path><path d="M14 59h22v2H14z" fill="#a2c4ed"></path><path d="M23 55h11v2H23z" fill="#114998"></path><path d="M17 51h12v2H17zM13 51h2v2h-2z" fill="#a2c4ed"></path><path d="m54.64 57.769-1.28-1.538 3.167-2.638-2.362.393a1 1 0 0 1-.765-.186l-1.747-1.31.317 1.268-1.94.484-1-4A1 1 0 0 1 50.6 49.2l3.658 2.743 5.577-.929a1 1 0 0 1 .8 1.755z" fill="#ffbb61"></path><path d="M42.158 59.813a3.411 3.411 0 0 0 4.451 1.943l3.266-1.306a1.789 1.789 0 0 0-.664-3.45H47l-4.968 2.484zM59.465 39a1.537 1.537 0 0 0-.852.258L56 41l-2.642 3.522.927.835a2.507 2.507 0 0 0 3.449-.091l2.23-2.23A3.821 3.821 0 0 0 61 40.535 1.535 1.535 0 0 0 59.465 39z" fill="#999999"></path><path d="M46.342 60a3.415 3.415 0 0 0 1.267-.244l3.266-1.306c.03-.012.052-.034.081-.047A1.789 1.789 0 0 0 49.211 57H47l-3.352 1.676A3.407 3.407 0 0 0 46.342 60z" fill="#b3b3b3"></path></g></svg>