<svg viewBox="0 0 512 512" xmlns="http://www.w3.org/2000/svg"><g><path d="M334.987 467.675c-3.8 0-7.583-1.832-10.92-3.449l-1.074-.52-.98.168a35.8 35.8 0 0 1-6.237.565c-16.384 0-28.663-11.763-36.5-34.962l-.264-.784-.2-.315c-6.963-10.86-7.8-22.463-7.675-33.384l.054-4.624-4.264 1.789c-.531.222-1.016.432-1.41.6-2.87 1.24-5.1 2.2-7.44 2.448a32.778 32.778 0 0 1-3.376.179c-9.01 0-16-3.976-20.223-11.5-3.463-6.174-4.27-13.349-4.86-18.588-.168-1.5-.319-2.8-.458-3.542l-.06-.317-.124-.3a116.802 116.802 0 0 0-4.773-10.044l-2.372-4.423-2.816 4.155a36.777 36.777 0 0 1-12.5 11.194c-2.411 1.39-4.759 2.806-7.246 4.305-2.762 1.668-5.833 3.522-8.9 5.258l-2.32 1.313 1 2.469c2.6 6.4 4.126 10.914 4.267 15.086.2 5.823-2.2 9.858-5.234 14.967-1.449 2.441-3.091 5.2-5.077 9.035-1.176 2.272-2.413 4.483-3.61 6.62-1.447 2.586-2.793 4.992-4.017 7.444-4.657 9.334-13.064 10.414-18.983 10.414-.954 0-1.827-.029-2.589-.053l-.849-.024c-4.811-.134-13.351-2.168-16.507-14.3-1.124-4.323-2.323-8.7-3.483-12.937-1.677-6.114-3.41-12.438-4.976-18.807-.907-3.689-1.943-4.981-3.428-5.967a39.617 39.617 0 0 1-7.84-7.114 5.088 5.088 0 0 0-3.739-1.8 4.4 4.4 0 0 0-.517.031 44.527 44.527 0 0 1-5.16.318h-.175c-.549.011-1.1.023-1.646.05-.406.018-.821.027-1.232.027-9.15 0-15.883-4.5-18.959-12.666a52.677 52.677 0 0 0-2.625-5.522c-.353-.678-.686-1.317-1.011-1.958-3.407-6.706-4.309-13.776-2.839-22.248a39.17 39.17 0 0 0-.091-14.219l-.367-1.786-1.749-.515a43.5 43.5 0 0 0-4.6-.918c-.877-.142-1.727-.279-2.547-.433a22.964 22.964 0 0 0-4.195-.311c-1.262 0-2.613.054-3.919.1-1.911.074-3.4.11-4.836.116-3.078-.014-8.644-1.389-11.058-10.443a99.157 99.157 0 0 1-2.01-12.277c-1.819-14.461-4.308-34.247-17.691-41.705l-.2-.112-.983-.352C19.63 251.372 4.585 246.062.3 225.981c-2.45-11.491 10.465-25.5 19.875-28.2a28.874 28.874 0 0 1 8-1.142c9.621 0 19.3 5.014 27.256 14.117l.908 1.039h1.381c3.191 0 8.817-3.442 14.043-8.563l.892-.875.019-1.249c.107-7.354 4.048-13.475 11.1-17.237l5.412-2.889-5.928-2.71c-12.679-5.939-11.779-15.133-9.58-22.48 3.856-12.881 12.116-19.841 25.991-21.9 10.046-1.5 19.841-3.083 29.229-6.041l.647-.2.5-.46a8.07 8.07 0 0 1 6.656-2.068l35.327-.371c6.316 1.337 55.2 28.37 61.142 30.929 23.424 17.278 46.4 12.2 67 12.2 9.113 0 18.029-.441 25.895-.83 6.617-.327 12.867-.636 18.243-.639 2.508 0 5.477.208 8.621.427 3.874.27 8.266.577 12.825.576 5.378 0 17.188 6.655 21.534 5.773l2.058-.42.723-1.154.258-.437c3.207-5.425 5.74-9.709 5.025-14.535-.283-1.9-.769-3.883-1.285-5.984-.386-1.582-.774-3.166-1.107-4.816-1.475-7.322.746-12.05 2.869-14.727 2.906-3.664 7.5-5.775 12.95-5.944 3.672-.111 8.523-.241 13.481-.241 5.726 0 10.819.169 15.569.516 6.761.5 11.813 6.635 13.539 9.811 4.923 9.057 9.109 18.218 12.2 25.186l.78 1.756 1.92.046c5.884.144 16.838.411 24.844 9.028l.8.858 1.167.1c.776.066 1.643.108 2.131.132 6.656.325 11.458 2.488 14.267 6.428 2.756 3.867 3.26 8.9 1.5 14.951-2.387 8.2-5.658 19.424-17.012 25.871l-1.724.979.2 1.973c1.514 14.658-6.089 24.849-21.407 28.695l-.1.026a12.433 12.433 0 0 0-4.436 3.015 19.877 19.877 0 0 0-2.567 2.915l-1.2 1.744 1.223 1.73a22.016 22.016 0 0 0 3.21 3.442c.369.332.734.677 1.1 1.024s.852.8 1.106 1.015l.212.176.24.134c14.334 8.052 13.377 22.694 12.967 28.946-.823 12.59-11.764 16.882-17.642 19.188l-.929.366a14.754 14.754 0 0 1-5.561 1.026c-4.71 0-9.656-1.941-13.439-3.631-5.69-2.536-6.387-9.046-6.847-13.353l-.045-.413a12.625 12.625 0 0 0-1.645-4.915c-8.878-13.021-14.372-22.581-18.008-28.907-1.16-2.018-2.36-4.1-3.352-5.723l-1.409-2.3-2.448 1.127c-4.68 2.154-6.51 4-7.184 4.908l-.715.963.136 1.191c.343 3 3.762 7.552 9.55 14.4 4.53 5.357 9.21 10.892 11.14 16.733 1.431 4.331.239 8.744-1.115 12.488-.9 2.479-1.918 4.807-2.906 7.059a71.789 71.789 0 0 0-3.145 7.987c-2.769 9.251-9.1 15.4-18.818 18.28a76.541 76.541 0 0 0-12.166 4.512 50.266 50.266 0 0 1-22.842 5.05 87.382 87.382 0 0 1-12.01-.917l-8.357-1.158 5.7 6.218c2.379 2.593 5.22 5.642 8.247 8.6 10.786 10.537 8.457 24.034 7.692 28.469-.248 1.435-.763 4.42-8.461 11.8-3.322 3.182-8.329 7.45-13.316 9.715a14.332 14.332 0 0 1-5.963 1.2 24.617 24.617 0 0 1-8.951-1.872l-3.4 4.822a73.8 73.8 0 0 0 7.523 7.418c15.5 13.286 16.04 24.526 14.982 30.044-1.008 5.258-3.36 8.847-6.987 10.666a11.133 11.133 0 0 1-5.106 1.223z" fill="#269968"></path><path d="M230.7 240.071c3.449 3.4 7.246 5.115 11.293 5.115h.074c4.05.017 7.9-1.7 11.367-5.115l.254-.258c31.11-32.7 89.019-93.557 56.837-154.79l-.042-.08c-13.192-24.613-39.342-40.176-68.247-40.616h-.339c-28.9.44-55.054 16-68.289 40.7-32.181 61.234 25.728 122.093 56.839 154.79z" fill="#e03e36"></path><path d="M286.4 122.986a44.325 44.325 0 1 0-44.325 44.325 44.375 44.375 0 0 0 44.325-44.325z" fill="#efeaea"></path></g></svg>