<svg viewBox="0 0 512 512" xmlns="http://www.w3.org/2000/svg"><g><path d="M447.255 123.349c-25.949-32.964-59.692-65.328-91.094-92.92-19.165-16.706-34.853-36.202-111.042-28.822-10.663 1.035-15.339 7.975-20.4 16.91L394.807 163.53c24.973 21.29 21.91 60.75-6.049 77.932L36.549 457.912C55.177 489.827 90.062 512 130.581 512c15.51 0 67.313-6.694 112.019-19.191 129.363-36.497 233.504-122.747 246.464-253.996 3.149-32.4-1.344-63.753-41.809-115.464z" fill="#f6b47b"></path><path d="M215.754 439.577c153.117-43.198 219.662-102.028 229.637-203.041 2.309-23.767-2.49-39.969-38.71-101.415-22.403-38.006-38.013-62.844-65.82-87.278-30.957-26.982-43.429-29.255-116.143-29.325-3.804 6.715-9.843 18.639-14.046 32.57-8.224 27.261 12.385 54.7 40.859 54.7h15.719c9.071 0 16.741-5.251 20.433-12.64 2.6-5.204 9.726-5.89 13.171-1.202 18.908 25.731 44.71 62.969 58.812 93.141 12.821 27.433-8.627 55.556-40.066 55.556h-7.083a164.282 164.282 0 0 0-123.471 55.915H146.43c-83.377 0-124.303 46.112-124.303 108.512 0 18.99 5.235 37.099 14.421 52.84h73.427c13.64.002 63.339-6.47 105.779-18.333z" fill="#fdc88e"></path><path d="m300.647 82.278-18.413-7.596c-9.814-4.048-16.411-12.933-18.687-23.301a7.724 7.724 0 0 0-10.414-5.519c-1.085.434-10.709 4.641-15.885 19.201-1.326 3.729.277 8.006 3.846 9.717a7.727 7.727 0 0 0 10.665-4.4c.388-1.111.808-2.11 1.242-3.005a47.814 47.814 0 0 0 12.856 15.368c4.491 3.507 9.661 6.041 15.096 7.753l24.47 7.711V89.18c-.096-2.889-1.806-5.677-4.776-6.902z" fill="#f6b47b"></path><path d="M306.292 218.439a7.727 7.727 0 0 1-7.188-10.559l17.533-44.529a7.724 7.724 0 0 1 10.02-4.359 7.727 7.727 0 0 1 4.359 10.02l-17.533 44.529a7.727 7.727 0 0 1-7.191 4.898zM176.709 273.68a7.71 7.71 0 0 1-2.558-.438l-52.04-18.262a7.728 7.728 0 0 1 5.117-14.583l52.04 18.262a7.728 7.728 0 0 1-2.559 15.021zM235.073 232.872a7.728 7.728 0 0 1-6.941-4.321l-24.622-50.112a7.727 7.727 0 0 1 13.869-6.815l24.622 50.112a7.727 7.727 0 0 1-6.928 11.136z" fill="#d4cfc2"></path></g></svg>