<svg viewBox="0 0 512 512" xmlns="http://www.w3.org/2000/svg"><g><g clip-rule="evenodd" fill-rule="evenodd"><path d="M301.768 374.015c59.15-49.189 72.758-40.334 129.141-5.236 29.699 21.908 70.463 36.236-6.732 111.514-21.297 20.225-40.515 34.228-67.295 25.607C214.901 441.547 70.453 297.099 6.102 155.118c-8.621-26.779 5.381-45.996 25.606-67.293 75.276-77.197 89.606-36.433 111.513-6.733 35.1 56.382 43.954 69.99-5.235 129.14 60.69 74.659 89.123 103.092 163.782 163.783z" fill="#6ce75a"></path><path d="M242.511 23.981c-5.501.344-10.241-3.836-10.586-9.336-.345-5.502 3.835-10.242 9.336-10.586 35.489-2.342 71.428 2.798 105.18 15.422 32.523 12.165 62.942 31.227 88.896 57.18 25.956 25.955 45.017 56.373 57.182 88.898 12.625 33.752 17.764 69.69 15.422 105.18-.344 5.501-5.084 9.681-10.585 9.336-5.502-.346-9.681-5.085-9.337-10.586 2.164-32.792-2.559-65.93-14.172-96.978-11.146-29.8-28.693-57.753-52.648-81.71-23.955-23.955-51.91-41.502-81.709-52.648-31.051-11.612-64.187-16.336-96.979-14.172zm1.258 75.774a175.46 175.46 0 0 1 63.913 14.221c19.551 8.43 37.854 20.611 53.792 36.551 15.938 15.938 28.121 34.242 36.55 53.793a175.412 175.412 0 0 1 14.223 63.912c.172 5.501 4.771 9.82 10.273 9.648 5.5-.172 9.82-4.772 9.648-10.273-.767-24.354-6.027-48.548-15.785-71.178-9.422-21.854-23.012-42.286-40.769-60.043-17.758-17.758-38.188-31.348-60.043-40.77-22.63-9.756-46.824-15.018-71.178-15.783-5.501-.173-10.101 4.146-10.273 9.648-.173 5.5 4.148 10.101 9.649 10.274zm.458 78.928a117.384 117.384 0 0 1 31.048 11.678c9.482 5.197 18.411 11.826 26.476 19.891 8.063 8.063 14.692 16.992 19.889 26.475a117.36 117.36 0 0 1 11.679 31.048c1.187 5.372 6.503 8.765 11.876 7.579 5.371-1.188 8.764-6.504 7.577-11.875-2.794-12.62-7.338-24.879-13.632-36.361-6.121-11.17-13.871-21.629-23.248-31.006s-19.837-17.129-31.007-23.25c-11.483-6.293-23.741-10.837-36.36-13.631-5.371-1.187-10.689 2.207-11.875 7.578s2.205 10.687 7.577 11.874z" fill="#ffd54f"></path></g></g></svg>