<svg viewBox="0 0 512 512" xmlns="http://www.w3.org/2000/svg"><g><path d="M81.71 303.58c-6.057-3.177-14.58-1.688-19.19 5.1l-60 90A15.014 15.014 0 0 0 0 407v45c0 8.28 6.72 15 15 15h60c8.28 0 15-6.72 15-15V317c0-9.663-8.19-13.325-8.29-13.42zM195 467h-60c-8.284 0-15-6.716-15-15V347c0-2.961.876-5.856 2.519-8.32l60-90A15 15 0 0 1 210 257v195c0 8.284-6.716 15-15 15z" fill="#ffdf40"></path><path d="M81.71 303.58c-6.057-3.177-14.58-1.688-19.19 5.1L45 334.96V467h30c8.28 0 15-6.72 15-15V317c0-9.663-8.19-13.325-8.29-13.42zM210 452V257a15 15 0 0 0-27.481-8.32L165 274.958V467h30c8.284 0 15-6.716 15-15z" fill="#ffbe40"></path><path d="M315 467h-60c-8.284 0-15-6.716-15-15V287c0-2.961.876-5.856 2.519-8.32l60-90A15.001 15.001 0 0 1 330 197v255c0 8.284-6.716 15-15 15z" fill="#ffdf40"></path><path d="M319.347 182.644a15.001 15.001 0 0 0-16.827 6.036L285 214.959V467h30c8.284 0 15-6.716 15-15V197a15 15 0 0 0-10.653-14.356z" fill="#ffbe40"></path><path d="M435 467h-60c-8.284 0-15-6.716-15-15V227c0-3.415 1.165-6.727 3.302-9.39l60-74.75c8.852-11.025 26.698-4.734 26.698 9.39V452c0 8.284-6.716 15-15 15z" fill="#ffdf40"></path><path d="M450 152.25c0-14.123-17.846-20.415-26.698-9.39L405 165.661V467h30c8.284 0 15-6.716 15-15z" fill="#ffbe40"></path><path d="M512 59.91V120c0 8.28-6.72 15-15 15s-15-6.72-15-15v-17.35l-95.3 118.74a15.003 15.003 0 0 1-18.41 4.03l-48.15-24.08-52.66 78.98a15 15 0 0 1-19.19 5.1l-48.15-24.08-52.66 78.98a15 15 0 0 1-19.19 5.1L90 326.27l-9.86-4.93L0 441.54V392c0-2.96.88-5.86 2.52-8.32l60-90c3.119-4.592 8.097-6.882 13.11-6.67 4.486.321.114-1.414 54.23 25.65l52.66-78.98a15 15 0 0 1 19.19-5.1l48.15 24.08 52.66-78.98c4.19-6.29 12.42-8.48 19.19-5.1l49.17 24.59L465.73 75H437c-8.28 0-15-6.72-15-15s6.72-15 15-15h60c8.19 0 14.94 6.62 15 14.91z" fill="#ff5959"></path><path d="M497 45h-60c-8.28 0-15 6.72-15 15s6.72 15 15 15h28.73l-94.85 118.17-49.17-24.59c-6.77-3.38-15-1.19-19.19 5.1l-52.66 78.98L225 240.228v33.545l23.29 11.647a15 15 0 0 0 19.19-5.1l52.66-78.98 48.15 24.08a15.003 15.003 0 0 0 18.41-4.03L482 102.65V120c0 8.28 6.72 15 15 15s15-6.72 15-15V59.91c-.06-8.29-6.81-14.91-15-14.91z" fill="#e63a57"></path></g></svg>