<?xml version="1.0" encoding="iso-8859-1"?>
<!-- Generator: Adobe Illustrator 19.0.0, SVG Export Plug-In . SVG Version: 6.00 Build 0)  -->
<svg version="1.1" id="Capa_1" xmlns="http://www.w3.org/2000/svg" xmlns:xlink="http://www.w3.org/1999/xlink" x="0px" y="0px"
	 viewBox="0 0 512 512" style="enable-background:new 0 0 512 512;" xml:space="preserve">
<path style="fill:#FF4848;" d="M512,256c0-68.099-27.4-131.999-75.7-180.3C388.001,27.4,324.101,0,256,0
	C197.8,0,142.899,20.2,98.2,55.901c-7.8,6-15.3,12.599-22.5,19.799c-7.2,7.202-13.799,14.702-19.799,22.5
	C20.2,142.901,0,197.8,0,256c0,68.101,27.4,132.001,75.7,180.3S187.899,512,256,512c57.9,0,112.8-20.2,157.5-55.899
	c8.101-5.7,15.601-12.601,22.8-19.801s14.099-14.7,19.799-22.8C491.8,368.8,512,313.9,512,256z M98.8,141.101L370.9,413.5
	C337.899,437.8,298.001,451,256,451c-52.2,0-101.1-20.4-137.999-56.999C81.4,357.1,61,308.2,61,256
	C61,214.001,74.2,174.101,98.8,141.101z M451,256c0,42.001-13.2,81.901-37.5,114.901L141.099,98.8C174.101,74.2,213.999,61,256,61
	c52.2,0,101.1,20.4,137.999,57.001C430.6,154.9,451,203.8,451,256z"/>
<path style="fill:#D30500;" d="M75.7,75.7l360.6,360.6c7.2-7.2,14.099-14.7,19.799-22.8C491.8,368.8,512,313.9,512,256
	c0-68.099-27.4-131.999-75.7-180.3C388.001,27.4,324.101,0,256,0C197.8,0,142.899,20.2,98.2,55.901
	C90.399,61.901,82.899,68.5,75.7,75.7z M141.099,98.8C174.101,74.2,213.999,61,256,61c52.2,0,101.1,20.4,137.999,57.001
	C430.6,154.9,451,203.8,451,256c0,42.001-13.2,81.901-37.5,114.901L141.099,98.8z"/>
<g>
</g>
<g>
</g>
<g>
</g>
<g>
</g>
<g>
</g>
<g>
</g>
<g>
</g>
<g>
</g>
<g>
</g>
<g>
</g>
<g>
</g>
<g>
</g>
<g>
</g>
<g>
</g>
<g>
</g>
</svg>
