<svg viewBox="0 0 512 512" xmlns="http://www.w3.org/2000/svg"><g><path d="M256 0 135.5 256 256 512c141.386 0 256-114.614 256-256S397.386 0 256 0z" fill="#e32d2d"></path><path d="M0 256c0 141.386 114.614 256 256 256V0C114.614 0 0 114.614 0 256z" fill="#ec564c"></path><path d="M256 63.735 165.5 256 256 448.266c106.186 0 192.266-86.08 192.266-192.266S362.186 63.735 256 63.735z" fill="#be2d2e"></path><path d="M63.735 256c0 106.186 86.08 192.266 192.266 192.266V63.735C149.814 63.735 63.735 149.814 63.735 256z" fill="#e32d2d"></path><path d="m363.41 193.657-45.067-45.067L256 210.933 226 256l30 45.067 62.343 62.343 45.067-45.067L301.067 256z" fill="#d8d8eb"></path><path d="m193.657 148.59-45.067 45.067L210.933 256l-62.343 62.343 45.067 45.067L256 301.067v-90.134z" fill="#ffffff"></path></g></svg>