<svg fill-rule="evenodd" viewBox="0 0 512 512" xmlns="http://www.w3.org/2000/svg"><g><path d="M219.46 478c-2.61 0-5.42-.18-8.72-.84-3.24-.65-5.35-3.81-4.7-7.06s3.81-5.35 7.06-4.7c1.63.32-1.41-.07 0 0-1.4-22.17.17-140.38-1.12-140.38a6.006 6.006 0 0 1-4-10.48c17-15.17 48.77-64.02 48.94-83.52.31-34.95 8.18-55.17 22.16-56.94 13.5-1.72 26.35 15.15 34.38 45.12.03.11.05.23.08.35.31 1.52 6.94 35.3-8.89 73.84h89.99c15.19 0 27.55 12.35 27.55 27.54 0 10.22-5.6 19.15-13.88 23.91 4.62 4.96 7.47 11.73 7.47 19.18 0 10.56-5.72 19.75-14.11 24.38 3.99 4.91 6.43 11.49 6.43 18.71 0 11.58-6.27 21.51-15.14 25.58.43.61.84 1.26 1.22 1.92 5.37 9.38 5.4 21.78.07 30.84-4.66 7.94-12.68 12.3-22.61 12.3H228.51c-1.6 0-3.11.06-4.57.13-1.46.06-2.93.12-4.48.12z" fill="#fdd7ad"></path><path d="M408.31 344.84c1.66 1.78 3.1 3.8 4.25 6h-85.68c-1.66 0-3-1.34-3-3s1.34-3 3-3zm-6.64 43.56c1.46 1.79 2.71 3.81 3.71 6h-95.43c-1.65 0-3-1.35-3-3 0-1.66 1.35-3 3-3zm-8.71 44.29c.43.61.84 1.26 1.22 1.92.75 1.31 1.39 2.67 1.93 4.08H290.77c-1.66 0-3-1.35-3-3 0-1.66 1.34-3 3-3z" fill="#fdc29c"></path><path d="M118.8 511.99c-7.99 0-15.48-4.15-21.09-11.71-5.02-6.75-7.9-15.58-7.9-24.22V304c0-17.36 11.65-35.94 28.99-35.94 1.36 0 2.73.13 4.08.37l69.47 12.6c15.33 2.78 25.63 14.65 25.63 29.52V469.5c0 14.88-10.3 26.75-25.63 29.53l-69.47 12.59c-1.35.25-2.72.37-4.07.37h-.01z" fill="#866adc"></path><path d="M256 150.7c-14.06 0-25.5-11.44-25.5-25.5V69.47c-1.27.25-2.58.37-3.91.37-5.42 0-10.49-2.1-14.31-5.9-7.88-7.89-7.88-20.73 0-28.61l29.34-29.34.08-.08c3.81-3.81 8.89-5.9 14.3-5.9s10.49 2.09 14.31 5.9l29.41 29.42c3.81 3.81 5.91 8.89 5.91 14.3 0 5.42-2.1 10.5-5.91 14.31s-8.89 5.9-14.31 5.9c-1.33 0-2.64-.12-3.91-.37v55.73c0 14.06-11.44 25.5-25.5 25.5z" fill="#fc5b50"></path><path d="M256 150.7V.01c-5.41 0-10.49 2.09-14.3 5.9l-.08.08-29.34 29.34c-7.88 7.88-7.88 20.72 0 28.61 3.82 3.8 8.89 5.9 14.31 5.9 1.33 0 2.64-.12 3.91-.37v55.73c0 14.06 11.44 25.5 25.5 25.5z" fill="#fc7a72"></path><path d="M145.21 216.71h-.01c-14.05 0-25.49-11.44-25.49-25.5v-55.73c-1.28.25-2.59.37-3.92.37-5.41 0-10.49-2.1-14.3-5.9-7.89-7.89-7.89-20.73 0-28.61L130.83 72c.02-.03.06-.06.07-.08 3.81-3.81 8.89-5.9 14.3-5.9 5.42 0 10.5 2.09 14.31 5.9l29.41 29.42c3.81 3.81 5.91 8.89 5.91 14.3 0 5.42-2.1 10.5-5.91 14.31s-8.89 5.9-14.3 5.9c-1.33 0-2.64-.12-3.92-.37v55.73c0 14.06-11.43 25.5-25.49 25.5z" fill="#ffcd00"></path><path d="m145.21 216.71-.01-150.69c-5.41 0-10.49 2.09-14.3 5.9l-.07.08-29.34 29.34c-7.89 7.88-7.89 20.72 0 28.61 3.81 3.8 8.89 5.9 14.3 5.9 1.33 0 2.64-.12 3.92-.37v55.73c0 14.06 11.44 25.5 25.5 25.5z" fill="#ffd731"></path><path d="M366.8 216.71c-14.06 0-25.49-11.44-25.49-25.5v-55.73c-1.28.25-2.59.37-3.92.37-5.41 0-10.49-2.1-14.3-5.9-7.89-7.89-7.89-20.73 0-28.61L352.43 72c.02-.03.05-.06.07-.08 3.81-3.81 8.89-5.9 14.3-5.9 5.42 0 10.5 2.09 14.31 5.9l29.41 29.42c3.81 3.81 5.91 8.89 5.91 14.3 0 5.42-2.1 10.5-5.91 14.31s-8.89 5.9-14.31 5.9c-1.32 0-2.63-.12-3.91-.37v55.73c0 14.06-11.44 25.5-25.5 25.5z" fill="#ffcd00"></path><path d="M366.8 216.71V66.02c-5.41 0-10.49 2.09-14.3 5.9l-.07.08-29.34 29.34c-7.89 7.88-7.89 20.72 0 28.61 3.81 3.8 8.89 5.9 14.3 5.9 1.33 0 2.64-.12 3.92-.37v55.73c0 14.06 11.43 25.5 25.49 25.5z" fill="#ffd731"></path><circle cx="155.45" cy="326.26" fill="#403269" r="29.73"></circle><circle cx="155.45" cy="326.26" fill="#624da0" r="27.73"></circle></g></svg>