<svg viewBox="0 0 488 488" xmlns="http://www.w3.org/2000/svg"><g><path d="M0 53.656c0-8.84 7.16-16 16-16h376c8.84 0 16 7.16 16 16s-7.16 16-16 16H16c-8.84 0-16-7.16-16-16zm0 0" fill="#c69c6d"></path><path d="M392 69.656h-88v-32h88c8.84 0 16 7.16 16 16s-7.16 16-16 16zm0 0" fill="#8c6239"></path><path d="m440 389.656 32-16-32-16-16-32-16 32-32 16 32 16 16 32zm0 0" fill="#ffff33"></path><path d="m456 373.656-32-16-8-16-8 16-32 16 32 16 8 16 8-16zm0 0" fill="#ffff66"></path><path d="m440 229.656 32-16-32-16-16-32-16 32-32 16 32 16 16 32zm0 0" fill="#ffff33"></path><path d="m456 213.656-32-16-8-16-8 16-32 16 32 16 8 16 8-16zm0 0" fill="#ffff66"></path><g fill="#754c24"><path d="M448 45.656h40v16h-40zM442.344 24l24-24 11.312 11.313-24 24.003zM442.34 83.32l11.316-11.316 24 24.004-11.312 11.312zm0 0" fill="#754c24"></path></g><path d="M304 364.242c29.762 12.895 48 30.29 48 49.414 0 39.77-78.8 72-176 72s-176-32.23-176-72c0-19.136 18.238-36.52 48-49.414zm0 0" fill="#00403b"></path><path d="m320 149.656-16 256c0 17.672-57.305 32-128 32s-128-14.328-128-32l-16-256" fill="#00554f"></path><path d="M160 437.379c63.121-1.977 112-15.41 112-31.723l16-256H32l16 256c0 16.313 48.879 29.754 112 31.723zm0 0" fill="#337772"></path><path d="M320 149.656c0-26.508-64.473-48-144-48s-144 21.492-144 48c0 26.512 64.473 48 144 48s144-21.488 144-48zm0 0" fill="#007f76"></path><path d="M296 149.656c0-26.398-59.098-47.8-132-47.8s-132 21.402-132 47.8 59.098 47.801 132 47.801 132-21.402 132-47.8zm0 0" fill="#00a99d"></path></g></svg>