<svg id="Capa_1" enable-background="new 0 0 510 510" height="512" viewBox="0 0 510 510" width="512" xmlns="http://www.w3.org/2000/svg" xmlns:xlink="http://www.w3.org/1999/xlink"><linearGradient id="lg1"><stop offset="0" stop-color="#537983"/><stop offset="1" stop-color="#3e5959"/></linearGradient><linearGradient id="SVGID_1_" gradientUnits="userSpaceOnUse" x1="255" x2="255" xlink:href="#lg1" y1="326" y2="517.317"/><linearGradient id="lg2"><stop offset="0" stop-color="#ffe177"/><stop offset=".207" stop-color="#ffd970"/><stop offset=".5288" stop-color="#ffc35e"/><stop offset=".9233" stop-color="#fe9f3f"/><stop offset="1" stop-color="#fe9738"/></linearGradient><linearGradient id="SVGID_2_" gradientUnits="userSpaceOnUse" x1="161" x2="347.818" xlink:href="#lg2" y1="134.243" y2="134.243"/><linearGradient id="lg3"><stop offset="0" stop-color="#fe9738" stop-opacity="0"/><stop offset="1" stop-color="#fe7701"/></linearGradient><linearGradient id="SVGID_3_" gradientUnits="userSpaceOnUse" x1="255" x2="255" xlink:href="#lg3" y1="166.279" y2="245.305"/><linearGradient id="SVGID_4_" gradientUnits="userSpaceOnUse" x1="255" x2="255" xlink:href="#lg2" y1="291.279" y2="385.81"/><linearGradient id="lg4"><stop offset="0" stop-color="#22b27f"/><stop offset="1" stop-color="#017b4e"/></linearGradient><linearGradient id="SVGID_6_" gradientUnits="userSpaceOnUse" x1="255" x2="255" xlink:href="#lg4" y1="248.279" y2="333.303"/><linearGradient id="lg5"><stop offset="0" stop-color="#fe646f"/><stop offset="1" stop-color="#fb2b3a"/></linearGradient><linearGradient id="SVGID_7_" gradientUnits="userSpaceOnUse" x1="255" x2="255" xlink:href="#lg5" y1="285.279" y2="367.377"/><linearGradient id="SVGID_8_" gradientUnits="userSpaceOnUse" x1="255" x2="255" xlink:href="#lg3" y1="338.196" y2="388.185"/><linearGradient id="SVGID_9_" gradientUnits="userSpaceOnUse" x1="72" x2="72" xlink:href="#lg1" y1="242.46" y2="278.112"/><linearGradient id="SVGID_10_" gradientUnits="userSpaceOnUse" x1="194" x2="194" xlink:href="#lg1" y1="242.46" y2="278.112"/><linearGradient id="SVGID_11_" gradientUnits="userSpaceOnUse" x1="316" x2="316" xlink:href="#lg1" y1="242.46" y2="278.112"/><linearGradient id="SVGID_12_" gradientUnits="userSpaceOnUse" x1="438" x2="438" xlink:href="#lg1" y1="242.46" y2="278.112"/><linearGradient id="SVGID_13_" gradientUnits="userSpaceOnUse" x1="142.25" x2="367.75" xlink:href="#lg5" y1="148.399" y2="148.399"/><linearGradient id="SVGID_14_" gradientUnits="userSpaceOnUse" x1="156.42" x2="353.58" xlink:href="#lg4" y1="98.399" y2="98.399"/><g><path d="m441.34 298.202c-7.03 0-12.729 5.699-12.729 12.729 0 95.729-77.882 173.611-173.612 173.611s-173.611-77.881-173.611-173.611c0-7.03-5.699-12.729-12.729-12.729s-12.729 5.699-12.729 12.729c.001 109.767 89.303 199.069 199.07 199.069s199.069-89.302 199.069-199.069c0-7.03-5.699-12.729-12.729-12.729z" fill="url(#SVGID_1_)"/><g><path d="m398.243 268.487h-286.486l57.769-203.868c10.834-38.232 45.738-64.619 85.474-64.619 39.736 0 74.64 26.387 85.473 64.618z" fill="url(#SVGID_2_)"/><path d="m111.757 268.487h286.486l-36.897-130.208h-212.692z" fill="url(#SVGID_3_)"/><g><path d="m403.175 385.147h-296.35c-58.998 0-106.825-47.827-106.825-106.824v-16.665c0-15.6 12.646-28.246 28.246-28.246h453.507c15.6 0 28.246 12.646 28.246 28.246v16.665c.001 58.997-47.826 106.824-106.824 106.824z" fill="url(#SVGID_4_)"/><path d="m403.175 385.147h-296.35c-58.998 0-106.825-47.827-106.825-106.824v-16.665c0-15.6 12.646-28.246 28.246-28.246h453.507c15.6 0 28.246 12.646 28.246 28.246v16.665c.001 58.997-47.826 106.824-106.824 106.824z" fill="url(#SVGID_4_)"/><path d="m476.822 259.975-21.01 21.01c-10.871 10.871-28.495 10.871-39.366 0l-21.01-21.01c-10.871-10.87-28.495-10.87-39.366 0l-21.01 21.01c-10.871 10.871-28.495 10.871-39.366 0l-21.01-21.01c-10.871-10.87-28.495-10.87-39.366 0l-21.01 21.01c-10.871 10.871-28.495 10.871-39.366 0l-21.01-21.01c-10.871-10.87-28.495-10.87-39.366 0l-21.01 21.01c-10.871 10.871-28.495 10.871-39.366 0l-21.01-21.01c-8.756-8.756-21.891-10.453-32.352-5.105-.538 2.175-.828 4.447-.828 6.788v16.665c0 5.232.383 10.375 1.11 15.406 10.414-5.175 23.391-3.432 32.068 5.245l21.01 21.01c10.871 10.871 28.495 10.871 39.366 0l21.01-21.01c10.871-10.87 28.495-10.87 39.366 0l21.01 21.01c10.871 10.871 28.495 10.871 39.366 0l21.01-21.01c10.871-10.87 28.495-10.87 39.366 0l21.01 21.01c10.871 10.871 28.495 10.871 39.366 0l21.01-21.01c10.871-10.87 28.495-10.87 39.366 0l21.01 21.01c10.871 10.871 28.495 10.871 39.366 0l21.01-21.01c8.677-8.677 21.654-10.42 32.068-5.245.727-5.031 1.11-10.173 1.11-15.406v-16.665c0-2.341-.29-4.613-.827-6.788-10.458-5.348-23.593-3.65-32.349 5.105z" fill="url(#SVGID_6_)"/><path d="m476.822 296.805-21.01 21.01c-10.871 10.871-28.495 10.871-39.366 0l-21.01-21.01c-10.871-10.87-28.495-10.87-39.366 0l-21.01 21.01c-10.871 10.871-28.495 10.871-39.366 0l-21.01-21.01c-10.871-10.87-28.495-10.87-39.366 0l-21.01 21.01c-10.871 10.871-28.495 10.871-39.366 0l-21.01-21.01c-10.871-10.87-28.495-10.87-39.366 0l-21.01 21.01c-10.871 10.871-28.495 10.871-39.366 0l-21.01-21.01c-8.754-8.754-21.886-10.453-32.346-5.107 1.605 12.846 5.493 24.98 11.242 35.99 7.59-.386 15.308 2.318 21.105 8.115l21.01 21.01c10.871 10.871 28.495 10.871 39.366 0l21.01-21.01c10.871-10.87 28.495-10.87 39.366 0l21.01 21.01c10.871 10.871 28.495 10.871 39.366 0l21.01-21.01c10.871-10.87 28.495-10.87 39.366 0l21.01 21.01c10.871 10.871 28.495 10.871 39.366 0l21.01-21.01c10.871-10.87 28.495-10.87 39.366 0l21.01 21.01c10.871 10.871 28.495 10.871 39.366 0l21.01-21.01c5.797-5.797 13.515-8.501 21.105-8.115 5.748-11.01 9.637-23.145 11.242-35.99-10.462-5.346-23.594-3.647-32.348 5.107z" fill="url(#SVGID_7_)"/><path d="m19.794 340.279c19.369 27.158 51.131 44.868 87.03 44.868h296.351c35.899 0 67.662-17.71 87.03-44.868z" fill="url(#SVGID_8_)"/><g><circle cx="72" cy="259.946" fill="url(#SVGID_9_)" r="16"/><circle cx="194" cy="259.946" fill="url(#SVGID_10_)" r="16"/><circle cx="316" cy="259.946" fill="url(#SVGID_11_)" r="16"/><circle cx="438" cy="259.946" fill="url(#SVGID_12_)" r="16"/></g></g><g><path d="m367.75 160.899h-225.5l7.08-25h211.34z" fill="url(#SVGID_13_)"/><path d="m353.58 110.899h-197.16l7.08-25h183z" fill="url(#SVGID_14_)"/></g></g></g></svg>