<svg viewBox="0 0 512 512" xmlns="http://www.w3.org/2000/svg"><g><g clip-rule="evenodd" fill-rule="evenodd"><path d="m89.964 367.827 78.133-45.267c14.664-8.496 29.574-14.52 45.692-9.291 17.97 5.828 47.314 18.341 77.239 23.738 11.108 3.601 18.032 14.724 15.011 26.001-3.022 11.279-12.553 17.095-26.001 15.015l10.461 1.674c11.987 1.917 22.996.276 33.488-5.833l75.121-43.754c58.394-34.009 66.971 18.312 47.555 30.265l-136.326 83.944c-12.538 7.719-26.258 9.52-40.481 5.708l-98.882-26.496-36.619 21.143c-7.041 4.065-16.099 1.638-20.164-5.403l-29.612-51.29c-4.061-7.035-1.643-16.082 5.385-20.154z" fill="#f6dccd"></path><path d="M304.257 367.687c-4.175 8.16-12.779 12.105-24.219 10.336-16.197-4.283-32.376-8.675-48.56-13.011a8.126 8.126 0 0 1 4.206-15.698zM89.964 367.827l78.134-45.267c14.664-8.496 29.574-14.52 45.692-9.291 9.614 3.117 22.484 8.149 36.957 12.981L99.39 413.635l-14.811-25.654c-4.061-7.035-1.644-16.082 5.385-20.154z" fill="#f1cbbc"></path><path d="m97.754 343.173 61.966 109.489c2.996 5.294 1.116 12.077-4.178 15.073l-21.077 11.929c-5.294 2.996-12.077 1.116-15.073-4.178l-61.966-109.49c-2.996-5.294-1.116-12.077 4.178-15.073l21.077-11.928c5.294-2.996 12.077-1.116 15.073 4.178z" fill="#d1d1d6"></path><path d="m130.345 418.399 10.968 19.379 10.846 19.164c2.99 5.283 1.124 12.049-4.146 15.055l7.529-4.261c5.294-2.996 7.174-9.779 4.178-15.073l-10.883-19.229-21.851-38.61-21.876-38.653-7.356-12.999c-2.595-4.586-8.033-6.609-12.882-5.121l12.737 22.505 21.851 38.61 10.882 19.229z" fill="#b1b1b5"></path><path d="M83.589 359.534a7.525 7.525 0 1 0 2.178 14.892 7.525 7.525 0 1 0-2.178-14.892z" fill="#685e68"></path><path d="M15.999 258.77V106.88c0-4.117 3.359-7.474 7.475-7.474H346.99c4.117 0 7.476 3.357 7.476 7.474v151.89c0 4.117-3.358 7.475-7.476 7.475H23.474c-4.117.001-7.475-3.358-7.475-7.475z" fill="#6cf5c2"></path><path d="M15.999 258.77v-5.183h318.575c4.117 0 7.476-3.358 7.476-7.475V99.406h4.941c4.117 0 7.476 3.357 7.476 7.474v151.89c0 4.117-3.358 7.475-7.476 7.475H23.475c-4.118 0-7.476-3.358-7.476-7.475z" fill="#00e499"></path><path d="M306.694 237.39c0-11.189 8.859-20.257 19.788-20.257V148.52c-10.929 0-19.788-9.069-19.788-20.257H63.772c0 11.188-8.86 20.257-19.788 20.257v68.613c10.929 0 19.788 9.069 19.788 20.257z" fill="#eceff1"></path><path d="M306.694 237.39c0-3.437.837-6.673 2.312-9.508H73.926c0-11.189-8.86-20.257-19.788-20.257v-61.973a19.359 19.359 0 0 1-10.154 2.868v68.613c10.929 0 19.788 9.069 19.788 20.257z" fill="#d1d1d6"></path><path d="M118.663 174.827a8 8 0 0 1 0 16H88.83a8 8 0 0 1 0-16zm88.911-10.537a7.999 7.999 0 0 1-14.75 6.188c-1.016-2.419-2.939-3.815-5.05-4.35a10.035 10.035 0 0 0-4.409-.116c-1.313.264-2.502.782-3.404 1.516-.875.711-1.431 1.725-1.37 2.966.046.953.59 1.637 1.349 2.132 1.687 1.102 4.194 1.743 6.622 2.142 4.339.712 9.103 1.918 13.181 4.38 5.01 3.025 8.792 7.593 9.647 14.64.06.491.098 1.134.117 1.918.156 6.566-2.819 11.444-7.292 14.838-2.637 2.001-5.772 3.396-8.98 4.243v.207a8 8 0 0 1-16 0v-.377c-2.427-.718-4.734-1.769-6.81-3.151-4.421-2.944-7.811-7.296-9.247-13.059a7.981 7.981 0 0 1 15.5-3.812c.386 1.548 1.326 2.737 2.56 3.559 1.769 1.178 4.089 1.739 6.475 1.682.343-.008.852-.053 1.527-.135 2.057-.25 4.045-.853 5.351-1.844.598-.453.997-1.047.98-1.776-.001-.025-.017-.11-.055-.418-.156-1.284-.953-2.182-2.022-2.827-2.001-1.208-4.818-1.878-7.494-2.318-4.236-.695-8.868-1.984-12.747-4.517-4.807-3.138-8.261-7.795-8.599-14.757-.332-6.84 2.608-12.321 7.246-16.091 2.138-1.739 4.645-3.076 7.335-3.968v-.526a8 8 0 0 1 16 0v.426c6.036 1.955 11.408 6.224 14.339 13.205zm74.059 10.537a8 8 0 0 1 0 16H251.8a8 8 0 0 1 0-16z" fill="#6cf5c2"></path><path d="m349.77 93.81 9.655 28.835c25.165 26.986 43.499 49.849 55.002 70.045 36.767 64.558-15.538 130.129-85.587 128.948-70.049 1.181-122.354-64.39-85.586-128.948 11.502-20.195 29.837-43.059 55.001-70.045l9.688-28.802-23.58-23.579c-5.755-5.755-5.755-15.174 0-20.93 4.895-4.895 12.645-5.723 18.47-1.984 2.164 1.389 4.649 1.61 7.023.627 2.374-.984 3.974-2.897 4.523-5.409 1.45-6.643 7.398-11.658 14.461-11.659 6.935 0 12.984 4.889 14.463 11.659.548 2.512 2.149 4.425 4.523 5.409 2.375.984 4.86.761 7.022-.627 5.722-3.673 13.476-3.01 18.47 1.983v.001c5.755 5.756 5.755 15.174 0 20.93z" fill="#e3a76f"></path><path d="m349.771 93.811 9.654 28.834c25.165 26.987 43.499 49.85 55.002 70.045 36.767 64.558-15.538 130.129-85.587 128.948-2.783.047-5.534-.023-8.256-.183 65.805-3.856 112.638-66.771 77.331-128.765-11.503-20.196-29.837-43.059-55.002-70.045l-9.655-28.834 23.547-23.548c5.756-5.755 5.756-15.174 0-20.929v-.001a14.69 14.69 0 0 0-2.217-1.822c.087-.052.173-.105.259-.16 5.722-3.673 13.476-3.011 18.47 1.983v.001c5.755 5.756 5.755 15.174 0 20.929zm-63.188-46.3a14.921 14.921 0 0 1 10.222-2.363c-.811 1.249-1.986 2.218-3.461 2.829-2.279.944-4.66.777-6.761-.466zm34.001-14.066a14.833 14.833 0 0 1 6.207 9.123c.548 2.512 2.149 4.425 4.523 5.409 2.376.984 4.86.761 7.022-.627a14.747 14.747 0 0 1 6.028-2.202 7.729 7.729 0 0 1-1.061-2.579c-1.479-6.77-7.527-11.659-14.463-11.659-3.051 0-5.894.936-8.256 2.535z" fill="#c48958"></path><path d="M328.019 252.459a8.25 8.25 0 0 1 1.205.008l.172-.003a29.458 29.458 0 0 0 2.742-.223c3.819-.464 7.611-1.66 10.268-3.676 1.949-1.479 3.247-3.531 3.184-6.202-.004-.175-.038-.52-.1-1.04-.426-3.505-2.443-5.859-5.132-7.483-3.621-2.186-8.457-3.356-13.003-4.102-6.012-.987-12.546-2.79-17.909-6.291-6.291-4.107-10.81-10.186-11.25-19.258-.437-8.994 3.435-16.205 9.542-21.17 3.637-2.957 8.079-5.055 12.827-6.182v-4.006a8 8 0 0 1 16 0v3.891c.268.061.536.125.802.193 9.011 2.284 17.209 8.209 21.514 18.462a7.999 7.999 0 0 1-14.75 6.188c-2.135-5.086-6.189-8.021-10.639-9.149a19.449 19.449 0 0 0-4.38-.588 8.287 8.287 0 0 1-1.01.005 19.505 19.505 0 0 0-3.236.371c-2.681.54-5.147 1.628-7.067 3.19-2.344 1.906-3.832 4.65-3.667 8.045.149 3.062 1.757 5.169 4 6.633 3.171 2.07 7.579 3.226 11.784 3.916 6.208 1.019 12.992 2.725 18.69 6.165 6.63 4.003 11.632 10.028 12.757 19.295.085.703.139 1.553.163 2.54.203 8.51-3.672 14.845-9.496 19.264-4.429 3.361-9.96 5.473-15.466 6.476v3.727a8 8 0 1 1-16 0v-3.884c-4.44-.927-8.668-2.617-12.355-5.073-5.929-3.949-10.471-9.777-12.394-17.487a7.981 7.981 0 0 1 15.5-3.812c.872 3.496 2.965 6.161 5.706 7.987 3.092 2.058 6.978 3.149 10.998 3.273z" fill="#ffe177"></path><path d="M296.715 122.645h64.25c7.922 0 14.402-6.481 14.402-14.401 0-7.922-6.48-14.402-14.402-14.402h-64.25c-7.921 0-14.402 6.48-14.402 14.401.001 7.922 6.481 14.402 14.402 14.402z" fill="#837683"></path><path d="M349.781 122.645h11.184c7.921 0 14.402-6.481 14.402-14.401 0-7.922-6.481-14.402-14.402-14.402h-11.184c7.921 0 14.402 6.48 14.402 14.402-.001 7.92-6.481 14.401-14.402 14.401z" fill="#685e68"></path><circle cx="449.181" cy="225.495" fill="#ffc338" r="46.82" transform="rotate(-85.24 449.152 225.344)"></circle><path d="M449.181 178.675c25.858 0 46.82 20.962 46.82 46.82s-20.962 46.82-46.82 46.82c-1.35 0-2.687-.061-4.008-.173 23.981-2.034 42.812-22.14 42.812-46.647s-18.831-44.614-42.812-46.647a47.019 47.019 0 0 1 4.008-.173z" fill="#f5b829"></path><path d="M470.34 208.178a7.999 7.999 0 0 1-14.75 6.188c-.85-2.024-2.458-3.191-4.222-3.638a8.62 8.62 0 0 0-3.785-.102c-1.111.224-2.11.657-2.861 1.267-.657.534-1.075 1.291-1.03 2.214.031.64.416 1.113.956 1.465 1.467.958 3.692 1.523 5.857 1.879 4.062.667 8.527 1.799 12.365 4.116 4.771 2.88 8.371 7.232 9.187 13.95.055.46.092 1.071.11 1.825.15 6.278-2.693 10.94-6.965 14.182-2.37 1.798-5.159 3.079-8.026 3.889a8 8 0 0 1-15.993-.172 23.625 23.625 0 0 1-5.99-2.843c-4.198-2.796-7.416-6.929-8.781-12.402a7.981 7.981 0 0 1 15.5-3.812c.314 1.259 1.082 2.229 2.093 2.902 1.521 1.013 3.529 1.495 5.601 1.446.283-.007.732-.047 1.348-.121 1.795-.218 3.516-.733 4.623-1.573.397-.301.663-.68.653-1.12-.001-.056-.014-.051-.048-.325-.116-.955-.733-1.638-1.561-2.138-1.761-1.063-4.279-1.659-6.677-2.053-3.973-.652-8.323-1.865-11.982-4.253-4.587-2.995-7.883-7.44-8.206-14.09-.317-6.52 2.485-11.745 6.905-15.339 1.913-1.556 4.136-2.772 6.522-3.615v-.036a8 8 0 0 1 15.999-.061c5.544 1.914 10.449 5.921 13.158 12.37z" fill="#ffe177"></path><circle cx="449.181" cy="95.73" fill="#ffc338" r="46.82" transform="rotate(-85.24 449.12 95.603)"></circle><path d="M449.181 48.91c25.858 0 46.82 20.962 46.82 46.82s-20.962 46.82-46.82 46.82c-1.35 0-2.687-.061-4.008-.173 23.981-2.034 42.812-22.14 42.812-46.647s-18.831-44.614-42.812-46.647a47.019 47.019 0 0 1 4.008-.173z" fill="#f5b829"></path><path d="M470.34 78.413a7.999 7.999 0 0 1-14.75 6.188c-.85-2.024-2.458-3.191-4.222-3.638a8.62 8.62 0 0 0-3.785-.102c-1.111.224-2.11.657-2.861 1.267-.657.534-1.075 1.291-1.03 2.214.031.64.416 1.113.956 1.466 1.467.958 3.692 1.523 5.857 1.879 4.062.667 8.527 1.799 12.365 4.116 4.771 2.88 8.371 7.232 9.187 13.95.055.46.092 1.071.11 1.825.15 6.278-2.693 10.94-6.965 14.182-2.37 1.798-5.159 3.079-8.026 3.889a8 8 0 0 1-15.993-.173 23.625 23.625 0 0 1-5.99-2.843c-4.198-2.796-7.416-6.929-8.781-12.402a7.981 7.981 0 0 1 15.5-3.812c.314 1.259 1.082 2.229 2.093 2.902 1.521 1.013 3.529 1.495 5.601 1.446.283-.007.732-.047 1.348-.121 1.795-.218 3.516-.733 4.623-1.573.397-.301.663-.68.653-1.12-.001-.055-.014-.051-.048-.325-.116-.955-.733-1.638-1.561-2.138-1.761-1.063-4.279-1.659-6.677-2.053-3.973-.652-8.323-1.865-11.982-4.253-4.587-2.995-7.883-7.44-8.206-14.09-.317-6.52 2.485-11.745 6.905-15.339 1.913-1.556 4.136-2.772 6.522-3.615v-.036a8 8 0 0 1 15.999-.062c5.544 1.915 10.449 5.922 13.158 12.371z" fill="#ffe177"></path></g></g></svg>