<svg viewBox="0 0 512 512" xmlns="http://www.w3.org/2000/svg"><g><path d="m144.227 407.298 15.474 4.146 42.085-118.915 28.401-144.142-15.474-4.146c-8.546-2.29-17.33 2.782-19.62 11.328l-62.194 232.11c-2.289 8.545 2.782 17.329 11.328 19.619z" fill="#f6ab2f"></path><path d="M231.072 214.293a7.669 7.669 0 0 1-1.977-.261l-54.077-14.49a7.622 7.622 0 0 1-5.389-9.334c1.09-4.066 5.274-6.473 9.334-5.389l54.077 14.49a7.622 7.622 0 0 1-1.968 14.984zM210.341 291.663a7.669 7.669 0 0 1-1.977-.261l-54.077-14.49a7.621 7.621 0 0 1 3.945-14.723l54.077 14.49a7.621 7.621 0 0 1-1.968 14.984zM185.525 367.938a7.682 7.682 0 0 1-1.978-.261l-42.255-11.322a7.622 7.622 0 0 1 3.945-14.723l42.255 11.322a7.622 7.622 0 0 1-1.967 14.984z" fill="#ffd15b"></path><path d="M323.615 122.627c1.927-8.143-2.969-16.342-11.052-18.508l-16.45-4.408-35.174 73.5 1.953 66.863 15.571 4.172c8.426 2.258 17.051-2.893 19.06-11.381z" fill="#f6ab2f"></path><path d="M320.99 163.754a7.669 7.669 0 0 1-1.977-.261l-45.976-12.319a7.621 7.621 0 0 1 3.945-14.723l45.976 12.319a7.621 7.621 0 0 1-1.968 14.984zM309.917 210.541a7.625 7.625 0 0 1-1.977-.261l-44.199-11.843a7.621 7.621 0 0 1-5.389-9.334c1.09-4.067 5.275-6.473 9.334-5.389l44.199 11.843a7.621 7.621 0 0 1-1.968 14.984z" fill="#ffd15b"></path><path d="m383.837 22.437 16.024 8.013-16.024 24.034-66.724 4.164a15.47 15.47 0 0 0-14.092 11.878l-89.354 377.531c-8.932 37.72-42.579 62.991-79.536 62.991a81.698 81.698 0 0 1-21.238-2.816c-50.057-13.409-81.238-63.228-71.429-114.11l5.167-26.804a245.198 245.198 0 0 0-3.919-109.865c-2.29-8.54-11.068-13.615-19.618-11.325l123.796-33.172c-7.158 1.919-11.872 8.396-11.872 15.462 0 1.372.175 2.764.547 4.157l10.505 39.216a128.934 128.934 0 0 1-.003 66.734l-23.921 89.263a16.111 16.111 0 0 0-.547 4.157c0 7.076 4.724 13.543 11.882 15.462 8.54 2.29 17.328-2.775 19.618-11.325l100.589-375.42c6.041-22.547 26.473-38.226 49.816-38.226h80.333z" fill="#fec345"></path><g fill="#fcb138"><path d="M124.218 440.705a16.005 16.005 0 0 1-2.072-12.915l.826-3.084c-2.847-6.396-8.451-11.499-15.74-13.452-12.819-3.435-25.995 4.173-29.43 16.992s4.173 25.995 16.992 29.43c12.812 3.434 25.981-4.164 29.424-16.971zM98.533 350.876c-3.435 12.819 4.173 25.995 16.992 29.43 7.29 1.953 14.695.335 20.359-3.781l7.821-29.186c-2.847-6.397-8.451-11.501-15.741-13.455-12.82-3.434-25.996 4.173-29.431 16.992z" fill="#fcb138"></path><circle cx="197.424" cy="384.134" fill="#fcb138" r="24.03" transform="rotate(-17.76 197.336 384.052)"></circle><circle cx="238.887" cy="229.394" fill="#fcb138" r="24.03" transform="rotate(-73.14 238.944 229.409)"></circle><circle cx="218.155" cy="306.764" fill="#fcb138" r="24.03" transform="rotate(-14.53 218.22 306.805)"></circle><path d="M383.837 22.437H349.49c-4.18 7.291-11.827 12.369-20.777 12.927l-15.827.988c-22.669 1.415-41.743 17.493-46.974 39.595l-83.188 351.482c-8.932 37.72-42.579 62.991-79.536 62.991a81.698 81.698 0 0 1-21.238-2.816 99.348 99.348 0 0 1-12.787-4.373c11.8 11.631 26.669 20.432 43.731 25.002a81.693 81.693 0 0 0 21.238 2.816c36.957 0 70.603-25.271 79.536-62.991l89.354-377.531a15.47 15.47 0 0 1 14.092-11.878l66.724-4.164 16.024-24.034z" fill="#fcb138"></path></g><path d="m447.921 54.48-16.02-8.01 16.02-24.03 56.131 7.016a9.073 9.073 0 0 1 0 18.006z" fill="#564f57"></path><path d="M388.922 62.49h53.918a5.081 5.081 0 0 0 5.081-5.081V19.511a5.081 5.081 0 0 0-5.081-5.081h-53.918a5.081 5.081 0 0 0-5.081 5.081v37.898a5.081 5.081 0 0 0 5.081 5.081z" fill="#695e69"></path><path d="M7.618 257.899a7.622 7.622 0 0 1-1.968-14.985l154.74-41.462a7.622 7.622 0 0 1 3.945 14.723L9.595 257.637a7.627 7.627 0 0 1-1.977.262z" fill="#ffd15b"></path><path d="M415.881 75.969a7.621 7.621 0 0 1-7.621-7.621V8.572a7.621 7.621 0 1 1 15.242 0v59.777a7.62 7.62 0 0 1-7.621 7.62z" fill="#7a6d79"></path><path d="M77.347 272.384a7.622 7.622 0 0 1-1.968-14.985l31.411-8.416a7.622 7.622 0 0 1 3.945 14.723l-31.411 8.416a7.633 7.633 0 0 1-1.977.262z" fill="#fcb138"></path><circle cx="197.424" cy="363.505" fill="#ffe178" r="24.03"></circle><circle cx="218.155" cy="286.135" fill="#ffe178" r="24.03"></circle><circle cx="238.886" cy="208.765" fill="#ffe178" r="24.03"></circle><circle cx="121.744" cy="336.466" fill="#ffe178" r="24.03"></circle><circle cx="101.013" cy="413.836" fill="#ffe178" r="24.03"></circle></g></svg>