<svg viewBox="0 0 512.001 512" xmlns="http://www.w3.org/2000/svg"><g><path d="M247.453 281.773 188.63 383.66 256 393.984l67.371-10.324-58.824-101.887c-3.8-6.578-13.293-6.578-17.094 0zm0 0" fill="#ffb74d"></path><path d="m314.824 368.863-50.277-87.09c-3.8-6.578-13.293-6.578-17.094 0l-7.437 12.887 42.84 74.203c3.796 6.574-.95 14.797-8.544 14.797h49.06c-8.548-14.797-4.75-8.219-8.548-14.797zm0 0" fill="#ffa008"></path><path d="M0 255.73v-3.375c0-1.671 1.43-3.023 3.195-3.023h505.61c1.765 0 3.195 1.352 3.195 3.023v3.375c0 11.657-9.98 21.11-22.297 21.11H22.301C9.98 276.84 0 267.387 0 255.73zm0 0" fill="#ff624d"></path><path d="M508.805 249.332h-70.262c1.77 0 3.2 1.352 3.2 3.023v3.375c0 11.657-9.985 21.11-22.302 21.11H489.7c12.317 0 22.301-9.453 22.301-21.11v-3.375c0-1.671-1.43-3.023-3.195-3.023zm0 0" fill="#ea5849"></path><path d="M493.27 162.207c0 48.117-39.008 87.125-87.125 87.125-48.114 0-87.122-39.008-87.122-87.125 0-48.113 39.008-87.121 87.122-87.121 48.117 0 87.125 39.008 87.125 87.121zm0 0" fill="#ff73b1"></path><path d="M406.145 75.086c-6.313 0-12.461.687-18.391 1.96 39.281 8.446 68.73 43.356 68.73 85.161s-29.449 76.719-68.73 85.16a87.227 87.227 0 0 0 18.39 1.965c48.118 0 87.126-39.008 87.126-87.125 0-48.113-39.008-87.121-87.125-87.121zm0 0" fill="#ff52a2"></path><g fill="#00a5ff"><path d="M85.094 215.781c0 18.531-15.02 33.551-33.547 33.551S18 234.312 18 215.782c0-18.528 15.02-33.548 33.547-33.548s33.547 15.02 33.547 33.547zM152.191 215.781c0 18.531-15.02 33.551-33.546 33.551-18.528 0-33.551-15.02-33.551-33.55 0-18.528 15.023-33.548 33.55-33.548 18.528 0 33.547 15.02 33.547 33.547zM219.29 215.781c0 18.531-15.02 33.551-33.548 33.551-18.531 0-33.55-15.02-33.55-33.55 0-18.528 15.019-33.548 33.55-33.548 18.528 0 33.547 15.02 33.547 33.547zm0 0" fill="#00a5ff"></path><path d="M185.742 158.215c0 18.527-15.023 33.547-33.55 33.547s-33.547-15.02-33.547-33.547 15.02-33.547 33.546-33.547 33.551 15.02 33.551 33.547zM118.645 158.215c0 18.527-15.02 33.547-33.551 33.547-18.528 0-33.547-15.02-33.547-33.547s15.02-33.547 33.547-33.547c18.531 0 33.55 15.02 33.55 33.547zm0 0" fill="#00a5ff"></path><path d="M152.191 100.152c0 18.528-15.02 33.547-33.546 33.547-18.528 0-33.551-15.02-33.551-33.547 0-18.53 15.023-33.55 33.55-33.55 18.528 0 33.547 15.02 33.547 33.55zm0 0" fill="#00a5ff"></path><path d="M152.191 33.55c0 18.528-15.02 33.548-33.546 33.548-18.528 0-33.551-15.02-33.551-33.547C85.094 15.02 100.117 0 118.644 0c18.528 0 33.547 15.02 33.547 33.55zm0 0" fill="#00a5ff"></path></g><path d="M51.547 182.234c-3.555 0-6.977.559-10.195 1.582 13.546 4.313 23.355 16.993 23.355 31.965 0 14.977-9.809 27.653-23.355 31.969a33.578 33.578 0 0 0 10.195 1.582c18.527 0 33.547-15.02 33.547-33.55 0-18.528-15.02-33.548-33.547-33.548zM118.645 182.234c-3.555 0-6.98.559-10.196 1.582 13.543 4.313 23.356 16.993 23.356 31.965 0 14.977-9.813 27.653-23.356 31.969a33.56 33.56 0 0 0 10.196 1.582c18.527 0 33.546-15.02 33.546-33.55 0-18.528-15.02-33.548-33.546-33.548zM185.742 182.234c-3.558 0-6.98.559-10.195 1.582 13.543 4.313 23.355 16.993 23.355 31.965 0 14.977-9.812 27.653-23.355 31.969a33.54 33.54 0 0 0 10.195 1.582c18.528 0 33.547-15.02 33.547-33.55 0-18.528-15.02-33.548-33.547-33.548zm0 0" fill="#0c90ea"></path><path d="M152.191 124.668c-3.554 0-6.976.555-10.191 1.578 13.543 4.317 23.352 16.996 23.352 31.969s-9.809 27.652-23.352 31.969a33.532 33.532 0 0 0 10.191 1.578c18.528 0 33.551-15.02 33.551-33.547s-15.023-33.547-33.55-33.547zM85.094 124.668c-3.555 0-6.977.555-10.192 1.578 13.543 4.317 23.356 16.996 23.356 31.969s-9.813 27.652-23.356 31.969a33.532 33.532 0 0 0 10.192 1.578c18.531 0 33.55-15.02 33.55-33.547s-15.019-33.547-33.55-33.547zm0 0" fill="#0c90ea"></path><path d="M118.645 66.602c-3.555 0-6.98.558-10.196 1.582 13.543 4.316 23.356 16.992 23.356 31.968 0 14.973-9.813 27.649-23.356 31.965a33.56 33.56 0 0 0 10.196 1.582c18.527 0 33.546-15.02 33.546-33.547s-15.02-33.55-33.546-33.55zm0 0" fill="#0c90ea"></path><path d="M118.645 0c-3.555 0-6.98.559-10.196 1.582 13.543 4.316 23.356 16.992 23.356 31.969 0 14.972-9.813 27.648-23.356 31.965a33.56 33.56 0 0 0 10.196 1.582c18.527 0 33.546-15.02 33.546-33.547C152.191 15.02 137.171 0 118.645 0zm0 0" fill="#0c90ea"></path><path d="M369.8 497.406H142.2c-10.255 0-18.571-8.316-18.571-18.57v-76.602c0-10.257 8.316-18.57 18.57-18.57h227.602c10.258 0 18.57 8.313 18.57 18.57v76.602c0 10.254-8.316 18.57-18.57 18.57zm0 0" fill="#61657c"></path><path d="M369.8 383.66h-33.55c10.258 0 18.57 8.317 18.57 18.57v76.602c0 10.258-8.312 18.57-18.57 18.57h33.55c10.255 0 18.571-8.312 18.571-18.57V402.23c0-10.253-8.316-18.57-18.57-18.57zm0 0" fill="#4b4f66"></path><path d="M282.238 432.45h-43.531a7.743 7.743 0 0 1 0-15.484h43.531a7.743 7.743 0 0 1 0 15.484zM282.238 464.102h-43.531a7.743 7.743 0 0 1 0-15.485h43.531a7.743 7.743 0 0 1 0 15.485zm0 0" fill="#ffffff"></path></g></svg>