<svg viewBox="0 0 512 512" xmlns="http://www.w3.org/2000/svg"><g><path d="M512 106.45v314.69l-256 10-256-10V106.55c0-3.61 1.04-6.04 3.25-9.52 2.21-3.47 5.6-7.98 10.3-15.73 8.34-12.8 22.43-20.44 37.7-20.44h.04l48.97.04c14.1.02 27.32 6.62 35.79 17.78a44.972 44.972 0 0 1 35.8-17.74s4.89.01 48.48.08c14.06.02 27.25 6.61 35.72 17.74a44.978 44.978 0 0 1 35.77-17.7h.03l48.06.02c14.34.01 27.68 6.78 36.14 18.23 8.47-11.44 21.8-18.2 36.15-18.2h.06l48.66.07c15.12.02 29.13 7.56 37.47 20.18C507.8 96.67 512 99.16 512 106.45z" fill="#fff79f"></path><path d="M512 106.45v314.69l-256 10V78.7c.02.02.03.04.05.06a44.978 44.978 0 0 1 35.77-17.7h.03l48.06.02c14.34.01 27.68 6.78 36.14 18.23 8.47-11.44 21.8-18.2 36.15-18.2h.06l48.66.07c15.12.02 29.13 7.56 37.47 20.18C507.8 96.67 512 99.16 512 106.45z" fill="#ffda44"></path><path d="M512 421.14c0 16.56-13.43 30-30 30H30c-16.57 0-30-13.44-30-30z" fill="#ffda44"></path><path d="M512 421.14c0 16.56-13.43 30-30 30H256v-30z" fill="#ffb655"></path><path d="M329.463 286.949h-28.456v-62.03l28.487-.059c13.282-.028 19.973-16.107 10.633-25.549l-73.065-73.86c-5.85-5.914-15.393-5.935-21.271-.058l-73.95 73.95c-9.422 9.421-2.742 25.575 10.572 25.606l28.594.065v61.934H182.4c-13.302 0-20.015 16.103-10.659 25.554l73.318 74.051c5.837 5.896 15.393 5.949 21.288.031l73.745-74.051c9.401-9.441 2.688-25.584-10.629-25.584z" fill="#8281f1"></path><path d="m340.09 312.53-73.74 74.06c-2.87 2.87-6.6 4.34-10.35 4.4V121.01a14.94 14.94 0 0 1 11.06 4.44l73.07 73.86c9.34 9.44 2.65 25.52-10.64 25.55l-28.48.06v62.03h28.45c13.32 0 20.03 16.14 10.63 25.58z" fill="#6a6ad8"></path></g></svg>