<svg viewBox="0 0 497 497" xmlns="http://www.w3.org/2000/svg"><g><path d="M20.508 287.681c11.734 39.711 28.832 77.247 92.057 61.462 38.197-9.536 57.193-87.338 66.248-152.205zM221.333 290.459c20.927 5.354 27.167 15.429 36.087 30.549 25.2 3.015 38.16 17.48 42.797 36.579l-1.757 73.221s-147.6-63-129.24-126 52.113-14.349 52.113-14.349z" fill="#523939"></path><path d="M292.002 404.29c0-28.897-.006-53.956 36.059-66.626-8.996-17.734-4.503-37.473 18.157-43.166l67.441 92.749-128.88 75.6z" fill="#e27f86"></path><path d="m340.051 267.556 17.998 78.612s138.952-12.029 138.952-37.146c0-19.803-31.465-19.834-45.532-80.022-.755-3.229-111.418 38.556-111.418 38.556z" fill="#e9edf1"></path><path d="M356.06 129.219c-38.378 47.52-18.086 131.198-55.842 148.893 48.335-9.867 151.255-49.113 151.255-49.113a203.372 203.372 0 0 1-2.111-10.219c-1.248-6.921-1.823-14.027-1.943-21.389 0 0-52.981-115.692-91.359-68.172z" fill="#ebae9d"></path><path d="m372.228 174.768 37.832-65.835c-.135-14.248-35.703-89.16-58.383-89.16-44.937 0-102.895 27.014-108.15 42.102s-8.805 43.004-3.407 72.031c2.024 10.885 3.488 14.303 3.488 22.799 0 18.65-20.122 31.694-20.122 40.123 0 7.744 3.514 12.171 22.636 12.171 5.021 24.356 11.361 51.78 15.069 59.074 4.835 9.509 12.045 12.272 22.03 12.272 4.224 0 10.048-.813 16.997-2.231 37.756-17.697 72.01-31.987 72.01-103.346z" fill="#ffdecf"></path><path d="M453.707 92.177c0-14.36-6.984-30.244-18.973-44.203-5.994-6.979-14.567-14.547-22.937-20.029-16.74-10.964-37.441-18.173-60.121-18.173-32.355 0-90.706 13.517-118.612 30.958-5.859 3.662-6.74 7.944-5.415 10.761 9.78 20.783 68.883 10.76 92.633-3.517v32.434c0 3.778.283 7.113 4.36 9.593 38.377 23.335 41.796 46.755 41.796 46.755s87.269-2.321 87.269-44.579z" fill="#ffe07d"></path><path d="m384.056 139.568-.609 11.769 12.362 10.599c19.291 25.873 51.617 35.456 51.617 35.456h.001c-.483-29.43 6.28-62.956 6.28-105.214-20.433-.001-63.087-3.73-69.651 47.39z" fill="#ffc250"></path><path d="M372.228 174.768c17.504 0 29.445-12.794 29.445-38.012 0-10.154-7.887-18.385-17.617-18.385-9.729 0-17.617 8.231-17.617 18.385z" fill="#ffdecf"></path><path d="M232.209 357.586c-5.058-3.826-15.894-11.084-22.254-19.099a83.737 83.737 0 0 1-4.39-6.045s-59.986-23.434-87.86-13.958c-5.178 47.356-32.842 98.017 15.154 168.744h165.919v-54.511c.001-40.442-25.626-44.162-66.569-75.131z" fill="#c38778"></path><path d="M205.566 332.442c-5.929-9.024-11.337-21.596-10.22-38.778 0 0-34.723-30.682-49.804-30.682s-28.986 23.319-28.986 23.319c2.344 10.688 2.335 21.349 1.15 32.183 29.445 10.422 57.883 13.958 87.859 13.958h.001z" fill="#b46e5a"></path><path d="M116.555 286.3c15.631 7.638 28.986-2.776 28.986-13.318 0 0 10.397 23.806 49.738 20.676 13.924-1.102 32.306-3.646 43.898-9.522 16.993-8.614 13.776-51.226 6.944-75.138 8.866-5.559 9.971-13.502 6.637-19.458-5.141-9.183-18.412-6.045-26.306-13.373-9.112-8.46-11.945-18.324-15.116-26.824-6.559-17.584-15.114-30.792-24.925-40.41 0 12.947-49.232 31.775-61.712 53.916S89.638 254.286 96.25 265.42s13.665 17.636 20.305 20.88z" fill="#c38778"></path><path d="M154.184 179.123c26.015-28.896 32.228-57.244 32.228-70.191 0-45.613-84.697-23.206-118.073-2.279C26.514 132.877-8 178.132 11.781 230.571 1.204 240.674 0 248.212 0 259.788c0 16.562 13.371 26.641 20.508 27.893 0 0 22.156-3.942 34.877-7.338 65.511-17.49 108.388-54.969 98.799-101.22z" fill="#664646"></path><path d="M205.564 332.442h.001c-5.929-9.024-11.337-21.596-10.22-38.778l-.066-.006c-39.341 3.13-49.738-20.676-49.738-20.676 0 10.542-13.355 20.956-28.986 13.318 2.344 10.689 2.335 21.35 1.15 32.184 29.446 10.422 57.884 13.958 87.859 13.958z" fill="#b46e5a"></path><path d="M298.779 432.716c0-26.164-10.738-36.96-29.398-49.707-19.669.008-50.265 38.991-50.265 38.991 14.986 15.736 34.021 36.921 59.166 65.228h20.497v-54.512z" fill="#e9edf1"></path><path d="M463.827 262.853C396.118 280.343 328.9 370.27 278.282 487.227h34c6.701-15.482 103.023-182.057 170.733-199.547v-.001c-5.894-5.771-12.84-13.136-19.188-24.826z" fill="#766d78"></path><path d="M483.014 287.68v.001c-67.709 17.49-97.29 74.073-126.197 116.609-5.419 7.974-14.434 22.436-20.598 34.017-7.587 14.253-17.237 33.438-23.937 48.921H497V309.023c0-8.666-6.029-13.552-13.986-21.343z" fill="#544f56"></path><path d="M195.657 215.846a7.501 7.501 0 0 1-.798-14.957c2.378-.411 9.56-6.038 12.771-10.03a7.5 7.5 0 1 1 11.688 9.402c-2.432 3.023-13.438 14.521-22.845 15.54-.273.03-.546.045-.816.045z" fill="#523939"></path><path d="M185.135 192.269a7.5 7.5 0 0 1-6.492-11.244c3.286-5.705 8.36-12.033 13.732-18.733 2.72-3.393 5.532-6.899 7.972-10.18a7.5 7.5 0 0 1 12.035 8.953c-2.602 3.498-5.501 7.113-8.304 10.609-4.781 5.964-9.726 12.13-12.437 16.837a7.499 7.499 0 0 1-6.506 3.758z" fill="#664646"></path><path d="M64.444 236.094a7.503 7.503 0 0 0 6.983 4.762c.912 0 1.839-.167 2.739-.521 29.731-11.671 59.942-24.271 80.931-41.403.766-6.39.499-13.005-.913-19.811-17.548 17.642-49.589 33.155-85.5 47.251a7.5 7.5 0 0 0-4.24 9.722zM71.34 168.024a7.499 7.499 0 0 0-10.025 3.464c-6.262 12.875-37.13 32.723-53.823 43.882a90.426 90.426 0 0 0 4.289 15.201c17.088-11.706 54.752-35.518 63.023-52.523a7.499 7.499 0 0 0-3.464-10.024z" fill="#523939"></path><path d="M269.272 164.089a7.502 7.502 0 0 1-2.469-14.584c4.839-1.687 12.55-6.565 13.751-8.699 1.802-3.73 6.279-5.275 10.008-3.475 3.729 1.802 5.284 6.303 3.482 10.032-4.115 8.518-18.639 15.028-22.304 16.306a7.474 7.474 0 0 1-2.468.42z" fill="#855b51"></path><path d="M247.022 128.727a7.5 7.5 0 0 1-4.692-13.355c12.443-9.962 32.68-10.788 46.228-8.468a7.5 7.5 0 0 1-2.533 14.785c-10.946-1.874-26.354-.986-34.32 5.392a7.464 7.464 0 0 1-4.683 1.646z" fill="#d09180"></path><path d="M282.087 208.038a7.498 7.498 0 0 0-10.269 2.658c-5.311 9.021-13.716 14.071-21.796 16.896a155.11 155.11 0 0 1 1.478 15.332c11.715-3.425 24.884-10.418 33.245-24.619a7.5 7.5 0 0 0-2.658-10.267z" fill="#d5717f"></path><path d="M227.373 231.108c-4.119-.253-7.677 2.895-7.933 7.022a7.5 7.5 0 0 0 7.022 7.949c.227.015 1.156.065 2.638.065 4.194 0 12.81-.416 22.401-3.22a155.443 155.443 0 0 0-1.478-15.332c-11.516 4.027-22.369 3.53-22.65 3.516z" fill="#664646"></path></g></svg>