<svg viewBox="0 0 512 512" xmlns="http://www.w3.org/2000/svg"><g><path d="M97.961 364.059H84.633c-29.464 0-54.832-20.797-60.611-49.689l-8.374-41.869c-6.099-30.497 23.022-56.205 52.527-46.37l29.785 9.928v128z" fill="#ffbd86"></path><path d="M417.961 364.059h13.327c29.464 0 54.832-20.797 60.611-49.689l8.374-41.869c6.099-30.497-23.022-56.205-52.527-46.37l-29.785 9.928zM52.566 301.458a7.503 7.503 0 0 1-7.347-6.031l-5.546-27.732c-.96-4.796.188-9.484 3.233-13.198 3.08-3.755 7.687-5.997 12.324-5.997 1.731 0 3.43.285 5.194.872l39.908 13.304a7.5 7.5 0 0 1-4.744 14.23l-39.904-13.302a1.781 1.781 0 0 0-.454-.104c-.095.011-.435.154-.725.507-.173.211-.219.268-.124.744l5.547 27.734a7.5 7.5 0 0 1-7.362 8.973z" fill="#f6a96c"></path><path d="M463.355 301.458a7.5 7.5 0 0 1-7.363-8.972l5.546-27.732c.096-.479.05-.536-.125-.749-.287-.351-.628-.494-.739-.505-.073 0-.245.04-.442.105l-39.899 13.301a7.5 7.5 0 0 1-4.744-14.23l39.904-13.302c1.768-.588 3.467-.873 5.197-.873 4.638 0 9.244 2.241 12.324 5.995 3.047 3.719 4.194 8.407 3.232 13.203l-5.545 27.729a7.502 7.502 0 0 1-7.346 6.03z" fill="#ea9b58"></path><path d="M113.379 145.168C110.137 126.332 93.723 112 73.961 112c-13.772 0-25.917 6.96-33.112 17.555A15.945 15.945 0 0 0 33.961 128c-8.837 0-16 7.163-16 16 0 .453.019.902.056 1.346C8.666 148.625 1.961 157.529 1.961 168c0 13.255 10.745 24 24 24h80c13.255 0 24-10.745 24-24 0-10.666-6.958-19.707-16.582-22.832z" fill="#c8effe"></path><path d="M257.961 48c-62.232 0-114.1 66.107-116.308 128l20.308 16 11.72-16c2.189-44.312 39.54-80 84.28-80s82.092 35.688 84.279 80l11.721 16 20.307-16c-2.207-61.893-54.076-128-116.307-128z" fill="#46cc8d"></path><path d="m342.239 176 11.721 16 20.307-16c-.244-6.848-1.097-13.748-2.504-20.604h-33.195A82.46 82.46 0 0 1 342.239 176zM144.156 155.396c-1.407 6.856-2.26 13.756-2.504 20.604l20.308 16 11.72-16a82.55 82.55 0 0 1 3.671-20.604z" fill="#00c27a"></path><path d="M257.961 16c-79.723 0-146.106 80.53-148.323 160l20.323 16 11.692-16c2.208-61.893 54.076-112 116.308-112s114.1 50.107 116.307 112l11.693 16 20.323-16c-2.218-79.47-68.6-160-148.323-160z" fill="#fee903"></path><g fill="#f4d902"><path d="M385.329 100.604c-7.413-13.679-16.57-26.419-27.112-37.648a23.887 23.887 0 0 0-4.256 13.648c0 13.255 10.745 24 24 24zM374.268 176l11.693 16 20.323-16a154.197 154.197 0 0 0-1.985-20.604h-32.653A114.198 114.198 0 0 1 374.268 176zM111.622 155.396A154.197 154.197 0 0 0 109.637 176l20.323 16 11.692-16a114.109 114.109 0 0 1 2.623-20.604z" fill="#f4d902"></path></g><path d="M257.961 32c79.723 0 146.106 64.53 148.323 144l11.677 16 20.334-16C436.075 79.128 356.742 0 257.961 0S79.846 79.128 77.627 176l20.334 16 11.677-16c2.217-79.47 68.6-144 148.323-144z" fill="#e53950"></path><path d="M355.274 68.754a150.919 150.919 0 0 1 27.559 31.85h36.951c-11.129-22.515-26.834-42.42-45.933-58.458a15.94 15.94 0 0 0-3.891 10.458c0 .453.019.902.056 1.346a24.065 24.065 0 0 0-14.742 14.804zM406.284 176l11.677 16 20.334-16a180.423 180.423 0 0 0-1.655-20.604h-32.399A145.925 145.925 0 0 1 406.284 176zM79.282 155.396A180.405 180.405 0 0 0 77.627 176l20.334 16 11.677-16c.195-6.995.888-13.874 2.043-20.604z" fill="#ca2e43"></path><path d="M91.912 32.075a82.2 82.2 0 0 0-17.988 17.994c-1.98 2.715-6.049 2.717-8.03.002a82.406 82.406 0 0 0-17.998-17.996c-2.716-1.98-2.717-6.048-.004-8.03A82.698 82.698 0 0 0 65.894 6.042c1.982-2.713 6.049-2.712 8.029.002a82.511 82.511 0 0 0 17.992 18.001c2.714 1.982 2.712 6.05-.003 8.03zM508.051 139.98a70.369 70.369 0 0 0-14.108 14.112c-1.986 2.65-5.97 2.651-7.957.002a70.47 70.47 0 0 0-14.116-14.114c-2.65-1.985-2.652-5.969-.003-7.957a70.75 70.75 0 0 0 14.119-14.12c1.987-2.648 5.971-2.647 7.956.002a70.622 70.622 0 0 0 14.111 14.118c2.649 1.988 2.648 5.972-.002 7.957z" fill="#fee903"></path><path d="M77.627 176a183.019 183.019 0 0 0 .311 15.626L87.98 352.312C93.59 442.072 168.025 512 257.961 512c89.935 0 164.37-69.928 169.98-159.688l10.043-160.686a183.43 183.43 0 0 0 .311-15.626z" fill="#fed2a4"></path><path d="M438.295 176h-41.829l-9.732 155.708c-5.61 89.76-80.045 159.688-169.98 159.688-19.135 0-37.569-3.166-54.787-9.015C189.36 501.099 222.452 512 257.961 512c89.935 0 164.37-69.928 169.98-159.688l10.043-160.686a183.43 183.43 0 0 0 .311-15.626z" fill="#ffbd86"></path><path d="M465.379 33.168C462.137 14.332 445.723 0 425.961 0c-13.772 0-25.917 6.96-33.112 17.555A15.945 15.945 0 0 0 385.961 16c-8.837 0-16 7.163-16 16 0 .453.019.902.056 1.346-9.351 3.279-16.056 12.183-16.056 22.654 0 13.255 10.745 24 24 24h80c13.255 0 24-10.745 24-24 0-10.666-6.958-19.707-16.582-22.832z" fill="#c8effe"></path><path d="M264.206 359.5h-12.491a7.5 7.5 0 0 1 0-15h12.491c10.065 0 18.254-8.189 18.254-18.254V288a7.5 7.5 0 0 1 15 0v38.246c.001 18.336-14.917 33.254-33.254 33.254zM257.96 439.5c-27.646 0-53.637-10.766-73.185-30.314a7.5 7.5 0 0 1 0-10.606 7.5 7.5 0 0 1 10.606 0c16.715 16.715 38.94 25.921 62.579 25.921s45.864-9.206 62.579-25.921a7.5 7.5 0 0 1 10.607 10.606c-19.549 19.548-45.54 30.314-73.186 30.314z" fill="#ffbd86"></path></g></svg>