<svg viewBox="0 0 512 512" xmlns="http://www.w3.org/2000/svg"><g><path d="M136 62c-24.81 0-45 20.19-45 45s20.19 45 45 45 45-20.19 45-45-20.19-45-45-45zM136 152c-41.35 0-75 33.64-75 75v66.21l30 30V452h90V323.21l30-30V227c0-41.36-33.65-75-75-75z" fill="#ffe1ba"></path><path d="M136 152V62c24.81 0 45 20.19 45 45s-20.19 45-45 45zM211 227v66.21l-30 30V452h-45V152c41.35 0 75 33.64 75 75z" fill="#ffbfab"></path><path d="M376 62c-24.81 0-45 20.19-45 45s20.19 45 45 45 45-20.19 45-45-20.19-45-45-45zM376 152c-41.35 0-75 33.64-75 75v66.21l30 30V452h90V323.21l30-30V227c0-41.36-33.65-75-75-75z" fill="#da90f8"></path><path d="M376 152V62c24.81 0 45 20.19 45 45s-20.19 45-45 45zM451 227v66.21l-30 30V452h-45V152c41.35 0 75 33.64 75 75z" fill="#b760ea"></path><path d="M241 0h30v62h-30zM241 92h30v60h-30zM241 182h30v60h-30zM241 272h30v60h-30zM241 362h30v60h-30zM241 452h30v60h-30z" fill="#9b786f"></path><g fill="#704c55"><path d="M256 0h15v62h-15zM256 92h15v60h-15zM256 182h15v60h-15zM256 272h15v60h-15zM256 362h15v60h-15zM256 452h15v60h-15z" fill="#704c55"></path></g></g></svg>