<svg viewBox="0 0 512 512" xmlns="http://www.w3.org/2000/svg"><g><path d="m243.273 262.751 15.855-10.297a83.276 83.276 0 0 0-3.128-.059c-27.484 0-51.843 13.637-66.667 34.5l15.312 17.947a3.64 3.64 0 0 0 5.538 0l32.751-38.386c-1.087-1.021-.975-2.852.339-3.705z" fill="#da4a54"></path><path d="m385.681 173.967 27.491-17.854c2.21-1.435 2.21-4.67 0-6.106l-43.121-28.005a3.639 3.639 0 0 1-1.602-3.684l9.04-51.293c.424-2.403-1.59-4.533-4.013-4.247l-51.947 6.148a3.64 3.64 0 0 1-3.846-2.364l-18.092-49.463a3.64 3.64 0 0 0-5.281-1.877L249.051 42.17a3.642 3.642 0 0 1-4.632-.765L210.184 1.277a3.64 3.64 0 0 0-5.538 0l-34.237 40.127a3.64 3.64 0 0 1-4.631.765L120.52 15.22a3.64 3.64 0 0 0-5.281 1.877L97.147 66.561a3.64 3.64 0 0 1-3.846 2.365l-51.946-6.149c-2.423-.287-4.436 1.844-4.013 4.247l9.039 51.293a3.64 3.64 0 0 1-1.602 3.684L1.657 150.007c-2.21 1.435-2.21 4.67 0 6.105l43.121 28.006a3.64 3.64 0 0 1 1.602 3.685l-9.04 51.293c-.424 2.403 1.59 4.533 4.013 4.247l49.8-5.894c2.464-.292 4.492 1.914 3.994 4.345L73.498 347.496c-.724 3.533 3.58 5.854 6.135 3.31l85.998-85.652a3.64 3.64 0 0 1 5.338.216l33.677 39.472a3.64 3.64 0 0 0 5.538 0l32.26-37.81.829-.31z" fill="#dd636e"></path><path d="m413.172 150.007-43.121-28.005a3.638 3.638 0 0 1-1.602-3.684l9.04-51.293c.423-2.403-1.59-4.533-4.013-4.247l-40.931 4.844-5.303 30.092a3.64 3.64 0 0 0 1.602 3.684l20.654 13.414c12.773 8.295 12.773 26.993 0 35.288l-20.654 13.414a3.64 3.64 0 0 0-1.602 3.685l2.334 13.243 22.157 33.321 33.948-39.796 27.491-17.854c2.21-1.436 2.21-4.671 0-6.106z" fill="#da4a54"></path><path d="m510.922 262.751-28.046-18.215a2.366 2.366 0 0 1-1.042-2.396l5.879-33.361a2.368 2.368 0 0 0-2.61-2.762l-33.786 3.999a2.368 2.368 0 0 1-2.502-1.538l-11.767-32.17a2.368 2.368 0 0 0-3.435-1.221l-29.436 17.527c-.991.59-2.263.38-3.012-.498l-22.268-26.099a2.367 2.367 0 0 0-3.602 0l-22.267 26.099a2.366 2.366 0 0 1-3.012.497l-29.436-17.527a2.368 2.368 0 0 0-3.435 1.221l-11.767 32.171a2.368 2.368 0 0 1-2.502 1.538l-33.786-3.999a2.368 2.368 0 0 0-2.61 2.762l3.205 18.184-10.558 25.491-15.855 10.297c-1.437.933-1.437 3.037 0 3.971l28.046 18.215a2.366 2.366 0 0 1 1.042 2.396l-5.879 33.361a2.367 2.367 0 0 0 2.61 2.762l33.786-3.999a2.367 2.367 0 0 1 2.502 1.538l11.766 32.17a2.368 2.368 0 0 0 3.435 1.221l17.149-10.211 26.292 6.065 11.275 13.215a2.367 2.367 0 0 0 3.602 0l21.903-25.672a2.368 2.368 0 0 1 3.472-.141l55.933 55.708c1.662 1.655 4.461.145 3.99-2.152l-14.08-68.749a2.368 2.368 0 0 1 2.598-2.826l32.39 3.833a2.368 2.368 0 0 0 2.61-2.762l-5.88-33.361a2.366 2.366 0 0 1 1.042-2.396l28.046-18.215c1.437-.933 1.437-3.038 0-3.971z" fill="#ffd064"></path><path d="m510.922 262.751-28.046-18.215a2.366 2.366 0 0 1-1.042-2.396l5.879-33.361a2.367 2.367 0 0 0-2.61-2.762l-33.786 3.999a2.368 2.368 0 0 1-2.502-1.538l-3.973-10.864-2.973 16.867a13.191 13.191 0 0 0 5.806 13.353l8.061 5.236c8.009 5.201 8.009 16.925 0 22.126l-8.061 5.235a13.191 13.191 0 0 0-5.806 13.353l2.109 11.967c1.535 8.707-5.762 16.429-14.542 15.39l-3.047-.361c-8.931-1.057-16.279 6.937-14.474 15.747l7.391 36.088 40.899 40.735c1.662 1.655 4.461.145 3.99-2.152l-14.08-68.749a2.368 2.368 0 0 1 2.598-2.826l32.39 3.833a2.368 2.368 0 0 0 2.61-2.762l-5.88-33.361a2.365 2.365 0 0 1 1.042-2.396l28.046-18.215a2.367 2.367 0 0 0 .001-3.971z" fill="#ffc250"></path><path d="M210.785 75.196c10.025 0 18.021 8.372 17.56 18.386l-3.348 72.748c-.35 7.595-6.609 13.572-14.211 13.572-7.603 0-13.862-5.978-14.211-13.572l-3.348-72.748c-.463-10.014 7.533-18.386 17.558-18.386zM210.785 233.964c7.504 0 13.587-6.083 13.587-13.587s-6.083-13.587-13.587-13.587-13.587 6.083-13.587 13.587 6.083 13.587 13.587 13.587z" fill="#617881"></path><path d="M147.979 403.99h26.291v-69.864c0-45.067 36.664-81.731 81.73-81.731s81.73 36.664 81.73 81.731v69.864h26.291v-69.865c0-59.658-48.363-108.021-108.021-108.021s-108.021 48.363-108.021 108.021z" fill="#9bb9c1"></path><path d="m147.979 403.99 26.291 28.656v-49.26h-26.291zM337.73 421.738l26.291-17.748v-20.604H337.73z" fill="#86a0af"></path><path d="M174.27 502.869h-26.417c-17.26 0-31.252-13.992-31.252-31.252v-36.375c0-17.26 13.992-31.252 31.252-31.252h26.417zM337.73 502.869h26.417c17.26 0 31.252-13.992 31.252-31.252v-36.375c0-17.26-13.992-31.252-31.252-31.252h-47.389z" fill="#4073c8"></path><path d="M147.854 403.99c-1.524 0-3.023.11-4.489.32v67.977c0 8.356-6.774 15.129-15.129 15.129h-7.352c5.428 9.245 15.474 15.453 26.97 15.453h26.417l10.187-98.88h-36.604zM364.147 403.99h-3.936a31.104 31.104 0 0 1 4.283 15.8v36.375c0 15.736-11.63 28.755-26.764 30.932l-9.29 15.773h35.707c17.26 0 31.253-13.992 31.253-31.253v-36.374c-.001-17.261-13.993-31.253-31.253-31.253z" fill="#3b66c1"></path><g fill="#617881"><path d="M320.545 512h8.581a8.604 8.604 0 0 0 8.604-8.604v-99.933a8.604 8.604 0 0 0-8.604-8.604h-8.581c-8.255 0-14.947 6.692-14.947 14.947v87.246c0 8.256 6.692 14.948 14.947 14.948zM191.455 512h-8.581a8.604 8.604 0 0 1-8.604-8.604v-99.933a8.604 8.604 0 0 1 8.604-8.604h8.581c8.255 0 14.947 6.692 14.947 14.947v87.246c0 8.256-6.692 14.948-14.947 14.948z" fill="#617881"></path></g></g></svg>