<svg id="Layer_1" viewBox="0 0 512 512" xmlns="http://www.w3.org/2000/svg" data-name="Layer 1"><path d="m428.659 176.404c-1.294-3.042.122-6.557 3.164-7.851s6.557.123 7.851 3.164l3.992 9.304c1.294 3.042-.122 6.557-3.164 7.851-3.041 1.294-6.557-.122-7.851-3.164l-3.991-9.304zm-190.078 268.91c3.288.388 5.638 3.368 5.25 6.656s-3.368 5.638-6.656 5.25l-10.054-1.195c-3.288-.388-5.638-3.368-5.25-6.656s3.368-5.638 6.656-5.25zm49.61-1.94c3.274-.466 6.307 1.811 6.773 5.086s-1.811 6.307-5.086 6.773l-10.02 1.447c-3.275.466-6.307-1.811-6.773-5.086s1.811-6.307 5.086-6.773l10.021-1.447zm47.405-14.715c3.041-1.294 6.557.122 7.851 3.164s-.122 6.557-3.164 7.851l-9.305 3.992c-3.042 1.294-6.557-.123-7.851-3.164-1.294-3.042.123-6.557 3.164-7.851zm41.961-26.482c2.602-2.045 6.369-1.594 8.414 1.008s1.594 6.369-1.008 8.414l-7.955 6.264c-2.602 2.045-6.369 1.594-8.414-1.008s-1.594-6.369 1.008-8.414zm33.683-36.436c1.98-2.654 5.737-3.199 8.39-1.219s3.199 5.737 1.219 8.391l-6.062 8.109c-1.98 2.654-5.737 3.199-8.39 1.219-2.654-1.98-3.199-5.737-1.219-8.391zm23.128-43.902c1.217-3.068 4.69-4.568 7.758-3.352 3.068 1.217 4.568 4.69 3.352 7.758l-3.757 9.402c-1.217 3.068-4.69 4.568-7.758 3.352-3.068-1.217-4.568-4.69-3.352-7.758zm10.945-48.421c.388-3.288 3.368-5.638 6.656-5.25s5.638 3.368 5.25 6.656l-1.195 10.054c-.388 3.288-3.368 5.638-6.656 5.25s-5.638-3.368-5.25-6.656zm-1.94-49.61c-.466-3.275 1.811-6.307 5.086-6.773s6.307 1.811 6.773 5.086l1.447 10.02c.466 3.275-1.811 6.307-5.086 6.773s-6.307-1.811-6.773-5.086z" fill="#ff6b72" fill-rule="evenodd"/><circle cx="256" cy="256" fill="#ff6b72" r="80.946" transform="matrix(.707 -.707 .707 .707 -106.038 256)"/><circle cx="256" cy="256" fill="#f3f3ff" r="47.836" transform="matrix(.973 -.23 .23 .973 -51.968 65.665)"/><path d="m250 299.616c0-3.314 2.686-6 6-6s6 2.686 6 6v51.261c0 3.314-2.686 6-6 6s-6-2.686-6-6zm49.617-37.616c-3.314 0-6-2.686-6-6s2.686-6 6-6h51.261c3.314 0 6 2.686 6 6s-2.686 6-6 6zm-37.616-49.617c0 3.314-2.686 6-6 6s-6-2.686-6-6v-51.261c0-3.314 2.686-6 6-6s6 2.686 6 6zm-49.617 37.616c3.314 0 6 2.686 6 6s-2.686 6-6 6h-51.261c-3.314 0-6-2.686-6-6s2.686-6 6-6z" fill="#e8333c" fill-rule="evenodd"/><path d="m83.341 335.596c1.294 3.042-.122 6.557-3.164 7.851s-6.557-.123-7.851-3.164l-3.992-9.304c-1.294-3.042.122-6.557 3.164-7.851 3.041-1.294 6.557.123 7.851 3.164l3.991 9.305zm190.078-268.91c-3.288-.388-5.638-3.368-5.25-6.656s3.368-5.638 6.656-5.25l10.054 1.195c3.288.388 5.638 3.368 5.25 6.656s-3.368 5.638-6.656 5.25zm-49.61 1.94c-3.275.466-6.307-1.811-6.773-5.086s1.811-6.307 5.086-6.773l10.021-1.447c3.275-.466 6.307 1.811 6.773 5.086s-1.811 6.307-5.086 6.773l-10.02 1.447zm-47.405 14.715c-3.042 1.294-6.557-.123-7.851-3.164-1.294-3.042.122-6.557 3.164-7.851l9.305-3.992c3.042-1.294 6.557.122 7.851 3.164s-.122 6.557-3.164 7.851zm-41.962 26.482c-2.602 2.045-6.369 1.594-8.414-1.008s-1.594-6.369 1.008-8.414l7.954-6.264c2.602-2.045 6.369-1.594 8.414 1.008s1.594 6.369-1.008 8.414l-7.955 6.264zm-33.683 36.436c-1.98 2.654-5.737 3.199-8.391 1.219s-3.199-5.737-1.219-8.391l6.062-8.109c1.98-2.653 5.737-3.199 8.39-1.219 2.654 1.98 3.199 5.737 1.219 8.391l-6.062 8.109zm-23.128 43.902c-1.217 3.068-4.69 4.568-7.758 3.352-3.068-1.217-4.568-4.69-3.352-7.758l3.757-9.402c1.217-3.068 4.69-4.568 7.758-3.352 3.068 1.217 4.568 4.69 3.352 7.758zm-10.945 48.421c-.388 3.288-3.368 5.638-6.656 5.25s-5.638-3.368-5.25-6.656l1.195-10.054c.388-3.288 3.368-5.638 6.656-5.25s5.638 3.368 5.25 6.656zm1.94 49.61c.466 3.275-1.811 6.307-5.086 6.773s-6.307-1.811-6.773-5.086l-1.447-10.02c-.466-3.275 1.811-6.307 5.086-6.773 3.274-.466 6.307 1.811 6.773 5.086z" fill="#ff6b72" fill-rule="evenodd"/><g><path d="m184.855 469.52c8.898 0 16.176-7.28 16.176-16.177s-7.279-16.177-16.176-16.177h.519c9.272 0 16.858-7.586 16.858-16.858s-7.586-16.858-16.858-16.858h95.397c10.137 0 18.431-8.294 18.431-18.431s-8.294-18.431-18.431-18.431h-120.262c-3.437 0-6.392-1.591-8.283-4.461s-2.189-6.213-.834-9.371c6.776-15.794 9.784-37.356 3.8-50.715-6.309-14.084-26.023-17.228-33.051-3.507-2.492 4.866-3.184 11.241-3.66 17.862-3.147 43.693-29.495 51.417-73.863 51.417h-6.59s-3.424 95.736-3.424 95.736c0 22.228 45.432 37.302 67.66 37.302h78.566c8.617 0 15.666-7.049 15.666-15.666s-7.05-15.666-15.666-15.666h4.024z" fill="#fdb0a0" fill-rule="evenodd"/><path d="m184.855 469.52c8.898 0 16.176-7.28 16.176-16.177s-7.279-16.177-16.176-16.177h.519c9.272 0 16.858-7.586 16.858-16.858s-7.586-16.858-16.858-16.858h95.397c10.137 0 18.431-8.294 18.431-18.431 0-1.712-.238-3.37-.679-4.945h-140.772c-4.532 0-8.423-2.234-10.708-6.147-2.285-3.914-2.318-8.401-.09-12.347 1.76-3.118 3.3-6.162 4.439-8.822 6.776-15.794 9.784-37.356 3.8-50.715-.072-.161-.148-.319-.223-.477-4.116-4.056-9.64-5.507-14.348-4.038-10.063 3.141-8.93 14.118-9.915 22.508-1.443 12.281-4.734 27.374-15.443 38.943-14.894 16.09-38.981 19.996-68.784 19.995h-8.849s-3.025 84.576-3.025 84.576c0 22.228 45.432 37.302 67.66 37.302h78.566c8.617 0 15.666-7.049 15.666-15.666s-7.05-15.666-15.666-15.666z" fill="#ffcec0" fill-rule="evenodd"/><rect fill="#2a92fa" height="137.072" rx="7.194" width="38.856" x="11.202" y="360.618"/><g fill-rule="evenodd"><path d="m11.202 385.036v105.46c0 3.957 3.237 7.194 7.194 7.194h24.468c3.957 0 7.194-3.237 7.194-7.194v-105.46c-1.426-1.864-3.671-3.072-6.186-3.072h-26.483c-2.515 0-4.761 1.208-6.186 3.072z" fill="#4eb1fc"/><g fill="#fdb0a0"><path d="m185.374 403.45h-6.416c-3.708 0-6.743 3.034-6.743 6.743s3.034 6.743 6.743 6.743h22.932c-1.573-7.67-8.398-13.486-16.516-13.486z"/><path d="m184.855 437.166h-7.905c-3.709 0-6.743 3.034-6.743 6.743s3.034 6.743 6.743 6.743h23.855c-1.291-7.628-7.969-13.485-15.95-13.485z"/><path d="m180.832 469.52h-7.078c-3.709 0-6.743 3.034-6.743 6.743s3.034 6.743 6.743 6.743h22.59c-1.069-7.594-7.635-13.485-15.513-13.485z"/></g></g></g><g><path d="m327.145 42.48c-8.898 0-16.176 7.28-16.176 16.177s7.279 16.177 16.176 16.177h-.519c-9.272 0-16.858 7.586-16.858 16.858s7.586 16.858 16.858 16.858h-95.397c-10.137 0-18.431 8.294-18.431 18.431s8.294 18.431 18.431 18.431h120.262c3.437 0 6.392 1.591 8.283 4.461s2.189 6.213.834 9.371c-6.776 15.794-9.784 37.356-3.8 50.715 6.309 14.084 26.023 17.228 33.051 3.507 2.492-4.866 3.184-11.241 3.66-17.862 3.146-43.693 29.495-51.416 73.863-51.416h6.59s3.424-95.736 3.424-95.736c0-22.228-45.432-37.303-67.66-37.302h-78.566c-8.617 0-15.666 7.049-15.666 15.666s7.049 15.666 15.666 15.666h-4.024z" fill="#fdb0a0" fill-rule="evenodd"/><path d="m327.145 42.48c-8.898 0-16.176 7.28-16.176 16.177s7.279 16.177 16.176 16.177h-.519c-9.272 0-16.858 7.586-16.858 16.858s7.586 16.858 16.858 16.858h-95.397c-10.137 0-18.431 8.294-18.431 18.431 0 1.712.238 3.37.679 4.945h140.772c4.532 0 8.423 2.234 10.708 6.147 2.285 3.914 2.318 8.401.09 12.347-1.76 3.118-3.3 6.162-4.439 8.822-6.776 15.794-9.784 37.356-3.8 50.715.072.161.148.319.223.477 4.116 4.056 9.64 5.507 14.348 4.038 10.063-3.141 8.93-14.118 9.915-22.508 1.443-12.281 4.734-27.374 15.443-38.943 14.894-16.09 38.981-19.996 68.784-19.995h8.849s3.025-84.576 3.025-84.576c0-22.228-45.432-37.303-67.66-37.302h-78.566c-8.617 0-15.666 7.049-15.666 15.666s7.049 15.666 15.666 15.666z" fill="#ffcec0" fill-rule="evenodd"/><rect fill="#2a92fa" height="137.072" rx="7.194" width="38.856" x="461.942" y="14.309"/><g fill-rule="evenodd"><path d="m500.798 126.964v-105.46c0-3.957-3.237-7.194-7.194-7.194h-24.468c-3.957 0-7.194 3.237-7.194 7.194v105.46c1.426 1.864 3.671 3.072 6.186 3.072h26.484c2.515 0 4.761-1.208 6.186-3.072z" fill="#4eb1fc"/><g fill="#fdb0a0"><path d="m326.626 108.55h6.416c3.708 0 6.742-3.034 6.742-6.743s-3.034-6.743-6.742-6.743h-22.932c1.573 7.67 8.398 13.486 16.516 13.486z"/><path d="m327.145 74.834h7.905c3.709 0 6.743-3.034 6.743-6.743s-3.034-6.742-6.743-6.742h-23.855c1.291 7.628 7.969 13.485 15.95 13.485z"/><path d="m331.168 42.48h7.078c3.708 0 6.743-3.034 6.743-6.743s-3.034-6.743-6.743-6.743h-22.591c1.069 7.594 7.635 13.485 15.513 13.485z"/></g></g></g><path d="m256 269.5c7.435 0 13.5-6.064 13.5-13.5s-6.065-13.5-13.5-13.5-13.5 6.064-13.5 13.5 6.064 13.5 13.5 13.5z" fill="#ff4d4d" fill-rule="evenodd"/></svg>