<svg viewBox="0 0 64 64" xmlns="http://www.w3.org/2000/svg"><g><g fill="#00a85a"><path d="M43.5 36c-6.21-.14-11.36 4.78-11.5 10.99 6.21.14 11.36-4.78 11.5-10.99zM22.59 31c5.08-.11 9.29 3.91 9.41 9a9.212 9.212 0 0 1-9.41-9zM25.58 21.03c3.89-.37 7.05 3.1 6.31 6.95-3.89.37-7.05-3.1-6.31-6.95zM39.34 26.03c-4.45-.42-8.06 3.55-7.22 7.94 4.45.42 8.06-3.55 7.22-7.94z" fill="#00a85a"></path></g><path d="M33 49h-2V21c0-.55.45-1 1-1s1 .45 1 1z" fill="#3c5380"></path><path d="M51.1 29.43c.41.73 2.73 5.59-2.5 14.57 9.57-5.89 9.16-13.1 9-14.45a.2.2 0 0 1 .2-.22h1.8c.17 0 .26-.19.16-.32l-5.29-6.81c-.08-.1-.24-.1-.32 0l-5.29 6.81c-.1.13 0 .32.16.32h1.92c.07 0 .14.04.17.1zM16.36 15.76s.65-6.83 13.03-11.48c-14.4-1.91-18.94 6.67-18.94 6.67L8.55 9.4a.204.204 0 0 0-.33.15L8 19.74c0 .13.12.23.24.2l9.93-2.29c.16-.04.21-.25.08-.35l-1.9-1.54z" fill="#e3695b"></path><path d="M27.83 62h8.33c.48 0 .9-.35.98-.82L38.99 51h-14l1.85 10.18c.09.48.5.82.98.82z" fill="#b36847"></path><path d="m39 51-.36 2H25.36L25 51z" fill="#cc7751"></path><rect fill="#bf6f4c" rx="1" transform="rotate(180 32 49.5)"></rect><path d="M15.32 34c-1.89 0-3.18-1.9-2.49-3.66L15.32 24l2.49 6.34c.69 1.76-.6 3.66-2.49 3.66zM8.02 43c-2.83 0-4.77-2.85-3.74-5.48L8.02 28l3.74 9.52C12.8 40.15 10.85 43 8.02 43z" fill="#66beff"></path><path d="M57.59 29.55c.17 1.34.57 8.56-9 14.45.82-1.4 1.45-2.7 1.94-3.9 5.27-4.98 5.52-9.9 5.34-11.96-.05-.56.37-1.05.93-1.09l1.35-.09 1.6 2.05c.1.13 0 .32-.16.32h-1.8a.2.2 0 0 0-.2.22zM29.39 4.28c-2.28.85-4.16 1.78-5.71 2.74-7.91.77-11.65 4.55-13.16 6.69-.55.77-1.6.99-2.38.46h-.02l.1-4.6c0-.17.2-.26.33-.15l1.72 1.4c.09.08.23.06.29-.04.77-1.25 5.7-8.22 18.82-6.48z" fill="#e35544"></path><path d="M8.69 42.94a3.994 3.994 0 0 0 1.03-4.42L6.8 31.1 8.02 28l3.74 9.52c.95 2.42-.62 5.02-3.07 5.42zM15.8 33.95c.55-.7.74-1.68.37-2.61l-1.87-4.75L15.32 24l2.49 6.34c.63 1.61-.39 3.33-2.01 3.61z" fill="#40afff"></path><path d="M35.86 18C33.73 18 32 16.09 32 13.73s1.69-4.22 3.79-4.26c-.26-.65-.41-1.38-.41-2.14 0-2.95 2.16-5.33 4.83-5.33 2.49 0 4.54 2.08 4.8 4.76.87-.96 2.08-1.56 3.41-1.56 2.67 0 4.83 2.39 4.83 5.33v.16c.31-.1.63-.16.97-.16 1.87 0 3.38 1.67 3.38 3.73s-1.51 3.73-3.38 3.73H35.87z" fill="#2f5eba"></path><path d="M37.95 18h16.27c1.08 0 2.03-.56 2.64-1.42-.71-1.98-2.46-3.38-4.49-3.38-1.34 0-2.54.6-3.41 1.56-.26-2.68-2.32-4.76-4.8-4.76-2.66 0-4.82 2.38-4.82 5.34 0 .76.3 2 .55 2.66h-1.93z" fill="#376ed9"></path><path d="M48.42 5.2c-.37 0-.75.04-1.1.14.91.84 1.5 2.06 1.63 3.42.83-.92 1.97-1.5 3.23-1.56-.89-1.22-2.24-2-3.76-2zM32 13.74c0 2.34 1.73 4.26 3.86 4.26h.69c-.39-.64-.61-1.42-.61-2.26 0-2.34 1.69-4.22 3.78-4.26-.26-.66-.39-1.38-.39-2.14 0-2.9 2.07-5.24 4.65-5.34-.89-1.22-2.24-2-3.76-2-2.66 0-4.82 2.38-4.82 5.34 0 .76.14 1.48.39 2.14-2.09.04-3.78 1.92-3.78 4.26z" fill="#2952a3"></path></g></svg>