<?xml version="1.0" encoding="iso-8859-1"?>
<!-- Generator: Adobe Illustrator 19.0.0, SVG Export Plug-In . SVG Version: 6.00 Build 0)  -->
<svg version="1.1" id="Capa_1" xmlns="http://www.w3.org/2000/svg" xmlns:xlink="http://www.w3.org/1999/xlink" x="0px" y="0px"
	 viewBox="0 0 512 512" style="enable-background:new 0 0 512 512;" xml:space="preserve">
<g>
	<polygon style="fill:#5A5A5A;" points="292.599,270 219.401,270 249.401,176.675 262.599,176.675 	"/>
	<polygon style="fill:#5A5A5A;" points="386.499,486.2 365.501,507.8 256,402.8 146.499,507.8 125.501,486.2 234.401,382.099 
		185.501,335.3 206.499,313.7 256,361.099 305.501,313.7 326.499,335.3 277.599,382.099 	"/>
</g>
<g>
	<polygon style="fill:#444444;" points="292.599,270 256,270 256,176.675 262.599,176.675 	"/>
	<polygon style="fill:#444444;" points="386.499,486.2 365.501,507.8 256,402.8 256,361.099 305.501,313.7 326.499,335.3 
		277.599,382.099 	"/>
</g>
<polygon style="fill:#6E6E6E;" points="390.099,492.199 361.901,501.799 256,192.274 150.099,501.799 121.901,492.199 
	241.901,141.874 256,146.675 270.099,141.874 "/>
<polygon style="fill:#5A5A5A;" points="390.099,492.199 361.901,501.799 256,192.274 256,146.675 270.099,141.874 "/>
<path style="fill:#9ED0FF;" d="M139.325,233.35c-64.321-64.336-64.321-169.014,0-233.35l21.211,21.211
	c-52.617,52.632-52.617,138.296,0,190.928L139.325,233.35z"/>
<path style="fill:#73BCFF;" d="M372.675,233.35l-21.211-21.211c52.617-52.632,52.617-138.296,0-190.928L372.675,0
	C436.996,64.336,436.996,169.014,372.675,233.35z"/>
<path style="fill:#9ED0FF;" d="M181.762,190.913c-19.805-19.805-30.718-46.157-30.718-74.238s10.913-54.434,30.718-74.238
	l21.211,21.211c-14.136,14.136-21.929,32.974-21.929,53.027s7.793,38.892,21.929,53.027L181.762,190.913z"/>
<path style="fill:#73BCFF;" d="M330.238,190.913l-21.211-21.211c14.136-14.136,21.929-32.974,21.929-53.027
	s-7.793-38.892-21.929-53.027l21.211-21.211c19.805,19.805,30.718,46.157,30.718,74.238S350.043,171.108,330.238,190.913z"/>
<path style="fill:#9ED0FF;" d="M256,71.675c-24.901,0-45,20.099-45,45c0,24.899,20.099,45,45,45s45-20.101,45-45
	C301,91.774,280.901,71.675,256,71.675z"/>
<rect x="76" y="482" style="fill:#FF9F00;" width="360" height="30"/>
<rect x="256" y="482" style="fill:#FF7816;" width="180" height="30"/>
<path style="fill:#73BCFF;" d="M301,116.675c0,24.899-20.099,45-45,45v-90C280.901,71.675,301,91.774,301,116.675z"/>
<g>
</g>
<g>
</g>
<g>
</g>
<g>
</g>
<g>
</g>
<g>
</g>
<g>
</g>
<g>
</g>
<g>
</g>
<g>
</g>
<g>
</g>
<g>
</g>
<g>
</g>
<g>
</g>
<g>
</g>
</svg>
