<svg viewBox="0 0 512 512" xmlns="http://www.w3.org/2000/svg"><g><path d="M256 156.444c-7.855 0-14.222-6.367-14.222-14.222V82.894c0-29.739 11.581-57.699 32.61-78.728 5.554-5.555 14.559-5.555 20.113-.001 5.555 5.554 5.555 14.559.001 20.113-15.657 15.657-24.279 36.473-24.279 58.615v59.328c-.001 7.856-6.368 14.223-14.223 14.223z" fill="#fea713"></path><path d="M462.222 216.815c0-63.814-51.012-116.621-114.823-117.253-23.852-.237-46.064 6.727-64.596 18.85-16.247 10.629-37.359 10.629-53.606 0-18.532-12.123-40.744-19.086-64.596-18.85-63.811.633-114.823 53.439-114.823 117.253v6.01a570.134 570.134 0 0 0 52.476 238.922c12.93 29.581 42.451 50.253 76.8 50.253 21.92 0 41.874-8.419 56.805-22.199 11.387-10.51 28.894-10.51 40.281 0C291.071 503.581 311.025 512 332.946 512c34.349 0 63.87-20.672 76.801-50.253a570.152 570.152 0 0 0 52.476-238.922v-6.01z" fill="#fdb441"></path><path d="M375.866 103.426c27.508 21.542 45.147 55.26 45.147 92.785v6.01a570.134 570.134 0 0 1-52.476 238.922c-12.931 29.581-42.452 50.253-76.801 50.253-5.26 0-10.406-.485-15.398-1.412C291.249 503.656 311.123 512 332.946 512c34.349 0 63.87-20.672 76.801-50.253a570.152 570.152 0 0 0 52.476-238.922v-6.01c-.001-53.974-36.493-100.072-86.357-113.389z" fill="#fea713"></path><path d="M251.325 57.097c-8.069 13.977-24.973 23.676-52.12 8.002S162.694 9.512 164.247 6.822s40.801-14.537 67.948 1.136 27.2 35.163 19.13 49.139z" fill="#fdb441"></path><g fill="#fec165"><path d="M495.713 99.832a74.272 74.272 0 0 0-26.116 26.116 1.163 1.163 0 0 1-2.012 0 74.272 74.272 0 0 0-26.116-26.116 1.163 1.163 0 0 1 0-2.012 74.317 74.317 0 0 0 26.116-26.129 1.163 1.163 0 0 1 2.012 0 74.308 74.308 0 0 0 26.116 26.129 1.163 1.163 0 0 1 0 2.012zM70.531 87.082a74.272 74.272 0 0 0-26.116 26.116 1.163 1.163 0 0 1-2.012 0 74.272 74.272 0 0 0-26.116-26.116 1.163 1.163 0 0 1 0-2.012 74.317 74.317 0 0 0 26.116-26.129 1.163 1.163 0 0 1 2.012 0A74.308 74.308 0 0 0 70.531 85.07a1.163 1.163 0 0 1 0 2.012zM440.128 36.855a95.32 95.32 0 0 0-33.513 33.513 1.491 1.491 0 0 1-2.581 0 95.32 95.32 0 0 0-33.513-33.513 1.491 1.491 0 0 1 0-2.581A95.359 95.359 0 0 0 404.034.744a1.491 1.491 0 0 1 2.581 0 95.375 95.375 0 0 0 33.513 33.53 1.491 1.491 0 0 1 0 2.581z" fill="#fec165"></path></g><path d="M107.546 180.507c5.206 1.487 10.842-.081 14.432-4.133 10.691-12.066 26.063-19.739 43.12-19.925h.731c.98 0 2.761.027 3.737.116 8.281.754 15.322-5.9 15.322-14.168v-.006c0-7.478-5.791-13.703-13.253-14.194a89.168 89.168 0 0 0-5.858-.192h-.896c-25.31.251-48.123 11.548-63.982 29.325-6.996 7.843-3.459 20.29 6.647 23.177zM106.664 222.827c.01-.813.011-1.581.009-2.32-.019-6.328-4.232-11.875-10.316-13.613-9.128-2.608-18.209 4.297-18.13 13.79.003 2.437-.017 4.569.014 6.956.071 7.82 6.406 14.134 14.226 14.134 7.88 0 14.294-6.409 14.219-14.288a517.185 517.185 0 0 1-.022-4.659z" fill="#fece85"></path><path d="M260.866 70.111a7.465 7.465 0 0 1-3.743-1.006l-58.55-33.804a7.5 7.5 0 0 1 7.5-12.99l58.55 33.804a7.5 7.5 0 0 1-3.757 13.996z" fill="#fea713"></path></g></svg>