<svg viewBox="0 0 64 64" xmlns="http://www.w3.org/2000/svg"><g><path d="M41 17V3a1 1 0 0 0-1-1H24a1 1 0 0 0-1 1v14a1 1 0 0 0 1 1h7l9 6-3-6h3a1 1 0 0 0 1-1z" fill="#e65c62"></path><path d="m36.24 7.17-1.41-1.41L32 8.59l-2.83-2.83-1.41 1.41L30.59 10l-2.83 2.83 1.41 1.41L32 11.41l2.83 2.83 1.41-1.41L33.41 10z" fill="#f2f2f2"></path><path d="M21 55v-2L2 58l19-10v-3a1 1 0 0 1 1-1h11a1 1 0 0 1 1 1v10a1 1 0 0 1-1 1H22a1 1 0 0 1-1-1zM13 41 2 54l6-13H5a1 1 0 0 1-1-1v-9a1 1 0 0 1 1-1h12a1 1 0 0 1 1 1v9a1 1 0 0 1-1 1z" fill="#b3d4ff"></path><g fill="#2970cc"><path d="M8 34.5h2v2H8zM12 34.5h2v2h-2zM24.5 49h2v2h-2zM28.5 49h2v2h-2z" fill="#2970cc"></path></g><path d="M57.11 47.5a1.57 1.57 0 0 1-.26-.19 5.48 5.48 0 0 1-2.26-3.59l-3.85-23.14a2.6 2.6 0 0 0-.85-1.5 2.54 2.54 0 0 0-1.62-.59 2.5 2.5 0 0 0-2.5 2.5V37A2.77 2.77 0 0 0 43 39.72v11.82a5.26 5.26 0 0 0 1.15 3.37c1.1 1.32 3.23 2.68 7.29 2.42a3.62 3.62 0 0 1 1.65.31l3.76 1.65L62 61.56V49.87z" fill="#ffc173"></path><path d="M49.54 48h-2v-8.28A1.76 1.76 0 0 0 45.77 38v-2a3.77 3.77 0 0 1 3.77 3.77z" fill="#e6a451"></path></g></svg>