<svg id="Layer_1" height="512" viewBox="0 0 100 100" width="512" xmlns="http://www.w3.org/2000/svg" data-name="Layer 1"><path d="m6.39 7.49h54.28v87.51h-54.28z" fill="#ccc"/><g opacity=".05"><path d="m60.68 9.49v4.44a54.28 54.28 0 0 0 -47.29 53.83v27.24h-7v-85.51z"/></g><path d="m60.68 95h-54.29a1 1 0 0 1 0-2h54.29a1 1 0 1 1 0 2z" fill="#999"/><rect fill="#999" height="9.29" rx="1.92" width="56.61" x="5.09" y="7.3"/><g fill="#94bcdd"><path d="m22.41 69.83h22.87v25.17h-22.87z"/><rect height="7.98" rx=".83" width="7.94" x="23.57" y="57.36"/><rect height="7.98" rx=".83" width="7.94" x="35.54" y="57.36"/><rect height="7.98" rx=".83" width="7.94" x="47.52" y="57.36"/><rect height="7.98" rx=".83" width="7.94" x="11.59" y="57.36"/><rect height="7.98" rx=".83" width="7.94" x="23.57" y="46.36"/><rect height="7.98" rx=".83" width="7.94" x="35.54" y="46.36"/><rect height="7.98" rx=".83" width="7.94" x="47.52" y="46.36"/><rect height="7.98" rx=".83" width="7.94" x="11.59" y="46.36"/><rect height="7.98" rx=".83" width="7.94" x="23.57" y="34.84"/><rect height="7.98" rx=".83" width="7.94" x="35.54" y="34.84"/><rect height="7.98" rx=".83" width="7.94" x="47.52" y="34.84"/><rect height="7.98" rx=".83" width="7.94" x="11.59" y="34.84"/><rect height="7.98" rx=".83" width="7.94" x="23.57" y="23.32"/><rect height="7.98" rx=".83" width="7.94" x="35.54" y="23.32"/><rect height="7.98" rx=".83" width="7.94" x="47.52" y="23.32"/><rect height="7.98" rx=".83" width="7.94" x="11.59" y="23.32"/></g><g opacity=".5"><path d="m33.34 71.42h1v23.58h-1z" fill="#4a7296"/></g><rect fill="#999" height="4.44" rx="1.09" width="26.68" x="20.5" y="69.19"/><path d="m87.08 65.52v29.6h-30.8v-29.67a18.74 18.74 0 0 0 10.14-5.27h10.58a19.17 19.17 0 0 0 10.08 5.34z" fill="#e6e6e6"/><path d="m72.81 69.83.8 2.67-1.59 2.39-2.02-2.72.86-2.34-1.96-2.72 2.93-1.34 2.94 1.34z" fill="#d83a46"/><path d="m84.65 42.48s4.2-1.94 3.75 2.25c-.68 6.34-5.46 5.92-5.39 5.12s1.64-7.37 1.64-7.37z" fill="#dfa26f"/><g opacity=".1"><path d="m85.45 45.56a15.23 15.23 0 0 1 -.54 3 3.69 3.69 0 0 0 2.09-3.34c.17-1.49-.69-1.78-1.48-1.75a16.08 16.08 0 0 1 -.07 2.09z"/></g><path d="m71.68 65.45a5.26 5.26 0 0 1 -5.26-5.27v-6.52h10.58v6.54a5.26 5.26 0 0 1 -5.32 5.25z" fill="#dfa26f"/><g opacity=".3"><path d="m76.93 54.65v1.84c0 3.4-2.36 6.15-5.25 6.15s-5.12-2.59-5.25-5.84v-2.15z"/></g><path d="m71.68 65.45a5.26 5.26 0 0 1 -5.26-5.27v-6.52h10.58v6.54a5.26 5.26 0 0 1 -5.32 5.25z" fill="#dfa26f"/><g opacity=".1"><path d="m76.93 54.65v1.84c0 3.4-2.36 6.15-5.25 6.15s-5.12-2.59-5.25-5.84v-2.15z"/></g><ellipse cx="72.02" cy="44.41" fill="#dfa26f" rx="13.38" ry="15.21"/><path d="m59.35 42.48s-4.2-1.94-3.75 2.25c.67 6.34 5.46 5.92 5.39 5.12s-1.64-7.37-1.64-7.37z" fill="#dfa26f"/><g opacity=".1"><path d="m58.54 45.56a16 16 0 0 0 .54 3 3.73 3.73 0 0 1 -2.08-3.34c-.16-1.49.69-1.78 1.49-1.75a18.09 18.09 0 0 0 .05 2.09z"/></g><path d="m58.49 44.41s.15-5.56 5.09-11.53c0 0 12.11 4.09 17.14 1.28 0 0 3.27 2.24 4.79 9.91 0 0 2-5.78.24-11.17-2.1-6.35-13.3-12.71-23.36-5.43 0 0-8.39 1.21-3.9 16.94z" fill="#754c24"/><path d="m94.17 95.12h-45c.08-27.49 5.79-29.56 7.12-29.66a18.78 18.78 0 0 0 10.15-5.27v1.86a15.07 15.07 0 0 0 3 8.86l2.56 3.47 2.39-3.6a15.19 15.19 0 0 0 2.61-8.4v-2.2a19.11 19.11 0 0 0 10.13 5.33c1.32.15 6.97 2.33 7.04 29.61z" fill="#4d4d4d"/><path d="m71.51 95.12v-16.12a.5.5 0 0 1 .5-.5.5.5 0 0 1 .5.5v16.11h-1z" fill="#333"/><path d="m82.15 68.79a.5.5 0 0 1 -.36.55l-3.79 1.06.87 3.67a.51.51 0 0 1 -.19.51l-6.32 4.74a.61.61 0 0 1 -.14.07.44.44 0 0 1 -.32 0h-.07a.18.18 0 0 1 -.07 0h-.06a.5.5 0 0 1 .1-.7l.3-.23 5.72-4.46-.91-3.81a.51.51 0 0 1 .36-.6l3.82-1.07-.85-5.68c.38.24.75.47 1.11.66z" fill="#333"/><path d="m72.42 79.25-.07.08a.61.61 0 0 1 -.14.07.44.44 0 0 1 -.32 0 .39.39 0 0 1 -.14-.08h-.06l-6.3-4.81a.48.48 0 0 1 -.18-.51l.79-3.7-3.79-1.06a.51.51 0 0 1 -.36-.55l.89-5.69c.33-.2.66-.41 1-.64a.46.46 0 0 1 .07.33l-.81 5.71 3.83 1.07a.51.51 0 0 1 .35.6l-.91 3.81 5.73 4.44.3.23a.5.5 0 0 1 .12.7z" fill="#333"/><path d="m86.28 95.12v-16.94a.5.5 0 0 1 .5-.5.5.5 0 0 1 .5.5v16.94z" fill="#333"/><path d="m56.06 95.12v-16.94a.5.5 0 0 1 .5-.5.5.5 0 0 1 .5.5v16.94z" fill="#333"/><g opacity=".1"><path d="m77.35 25.17a15.89 15.89 0 0 0 -11.78 3.09s-5.55.81-5.2 9.61a17.89 17.89 0 0 0 -1.88 6.54c-4.49-15.73 3.91-16.94 3.91-16.94a15.77 15.77 0 0 1 14.95-2.3z"/></g></svg>