<svg viewBox="0 0 512.015 512.015" xmlns="http://www.w3.org/2000/svg"><g><path d="m502.468 417.677-136.651 87.57a50.09 50.09 0 0 1-26.571 7.768H147.511c-46.61 0-59.233-23.923-59.233-23.923v-2.56H61.795V380.601h26.483v.618c23.57-35.928 82.361-35.928 82.361-35.928h4.502a65.015 65.015 0 0 1 41.578 15.183 64.345 64.345 0 0 0 41.49 15.36h38.135a36.18 36.18 0 0 1 31.338 18.45l.618 1.059a28.622 28.622 0 0 1-3.443 33.192h16.684c3.124.033 6.23-.474 9.181-1.501l134.885-47.404a20.237 20.237 0 0 1 6.532-1.059 19.655 19.655 0 0 1 15.89 8.386 21.952 21.952 0 0 1-5.561 30.72z" fill="#af8066" transform="translate(0 -1)"></path><path d="M512.002 151.084a150.058 150.058 0 0 1-150.069 150.069 148.56 148.56 0 0 1-45.815-7.15l-42.461 33.633v-55.261c-57.269-41.683-77.587-117.738-48.737-182.429s99.01-100.394 168.289-85.64 118.804 75.946 118.793 146.778z" fill="#4482c3" transform="translate(0 -1)"></path><path d="M8.83 362.946h70.62a8.828 8.828 0 0 1 8.828 8.828V495.36a8.828 8.828 0 0 1-8.828 8.828H8.83a8.828 8.828 0 0 1-8.828-8.828V371.773a8.827 8.827 0 0 1 8.828-8.827z" fill="#7d6599" transform="translate(0 -1)"></path><path d="M35.312 468.877a8.847 8.847 0 0 1-4.415-16.516 8.85 8.85 0 0 1 10.683 1.421 9.295 9.295 0 0 1 2.56 6.268 8.807 8.807 0 0 1-.707 3.353 10.203 10.203 0 0 1-1.854 2.914 9.31 9.31 0 0 1-6.267 2.56z" fill="#3d324c" transform="translate(0 -1)"></path><path d="M220.7 452.717a8.826 8.826 0 0 1-5.077-16.052l5.293-3.715a72.232 72.232 0 0 1 41.44-13.224h48.147a8.828 8.828 0 0 1 0 17.656h-48.147a54.66 54.66 0 0 0-31.328 10.039l-5.267 3.694a8.79 8.79 0 0 1-5.061 1.602z" fill="#7f5b53" transform="translate(0 -1)"></path><g transform="translate(0 -1)"><circle cx="361.933" cy="71.636" fill="#e6e7e8" r="17.655"></circle><path d="M344.278 159.911v52.966h-17.655v35.31h70.62v-35.31h-17.655v-88.276h-52.965v35.31z" fill="#e6e7e8"></path></g></g></svg>