<svg viewBox="0 0 512.307 512.307" xmlns="http://www.w3.org/2000/svg"><g><path d="m378.973 148.492-21.213-21.213c2.833-2.833 4.394-6.6 4.394-10.606s-1.561-7.773-4.394-10.606l21.213-21.213c8.5 8.499 13.181 19.8 13.181 31.819s-4.682 23.32-13.181 31.819zM421.399 190.919l-21.213-21.213c29.242-29.242 29.242-76.824 0-106.066l21.213-21.213c40.939 40.939 40.939 107.552 0 148.492z" fill="#ffbb17"></path><path d="m463.826 233.346-21.213-21.213c52.636-52.637 52.636-138.283 0-190.92L463.826 0c64.333 64.334 64.333 169.012 0 233.346z" fill="#ffbb17"></path><path d="M133.334 148.492c-8.5-8.499-13.181-19.8-13.181-31.819s4.681-23.32 13.181-31.819l21.213 21.213c-2.833 2.833-4.394 6.6-4.394 10.606s1.561 7.773 4.394 10.606zM90.907 190.919c-40.939-40.939-40.939-107.553 0-148.492L112.12 63.64c-29.242 29.242-29.242 76.824 0 106.066z" fill="#ffdd00"></path><path d="M48.481 233.346C-15.853 169.012-15.853 64.334 48.481 0l21.213 21.213c-52.636 52.637-52.636 138.283 0 190.92z" fill="#ffdd00"></path><path d="M206.912 126.415c0 27.195 22.046 49.241 49.241 49.241l10-53.482-10-45c-27.195 0-49.241 22.046-49.241 49.241z" fill="#445373"></path><path d="M305.394 126.415c0-27.195-22.046-49.241-49.241-49.241v98.482c27.195 0 49.241-22.046 49.241-49.241z" fill="#363c5a"></path><path d="M226.459 208.815c-36.011 0-65.205 29.193-65.205 65.204v87.933h37.08l15.694 150.354h42.125l10-176.492-10-127h-29.694z" fill="#445373"></path><path d="M285.848 208.815h-29.695v303.492h42.125l15.694-150.354h37.081V274.02c-.001-36.012-29.194-65.205-65.205-65.205z" fill="#363c5a"></path></g></svg>