<svg viewBox="0 0 512 512" xmlns="http://www.w3.org/2000/svg"><g><path d="M232.727 318.061h31.03v124.121h-31.03z" fill="#4f5c6f"></path><path d="M275.225 70.999 375.546 9.253v18.144l-92.222 56.759a7.729 7.729 0 0 1-10.633-2.535c-2.236-3.626-1.103-8.386 2.534-10.622z" fill="#64768e"></path><path d="M495.02 97.581a7.725 7.725 0 0 1-6.295 3.235 7.729 7.729 0 0 1-4.492-1.432l-99.538-71.112V9.294l108.522 77.51a7.734 7.734 0 0 1 1.803 10.777zM161.696 310.307 138.421 465.45l-31.032 12.364-5.842-2.329-25.181-10.035-23.274-155.143z" fill="#808fa4"></path><path d="m102.969 475.012-1.422.473-25.181-10.035-23.274-155.143h26.994l4.976 15.517z" fill="#64768e"></path><path d="M184.971 248.242v46.673c0 17.062-13.837 30.909-30.909 30.909h-69l-21.111-3.297-8.593 2.823h-.01c-14.507-2.535-25.531-15.207-25.531-30.435v-46.673c0-40.882 31.63-74.378 71.75-77.355a77.801 77.801 0 0 1 5.821-.216c21.43 0 40.82 8.686 54.864 22.718 14.033 14.043 22.719 33.433 22.719 54.853z" fill="#ffaa75"></path><path d="M85.062 325.824H60.726c-17.072 0-30.909-13.847-30.909-30.909v-46.673c0-40.882 31.63-74.378 71.75-77.355C86.71 185.836 66.336 211.96 67.3 266.241v34.843c0 6.353 2.167 12.592 6.411 17.319 2.604 2.901 6.251 5.627 11.351 7.421z" fill="#ff8c42"></path><path d="M192.729 116.363c0 47.136-38.204 85.34-85.34 85.34-27.88 0-52.638-13.373-68.206-34.062L48.734 54.4c15.279-14.486 35.937-23.367 58.655-23.367 47.136 0 85.34 38.204 85.34 85.33z" fill="#ffddcf"></path><path d="m107.399 93.088-.01.01c-.474.474-15.506 15.867-15.506 38.781 0 19.349-16.083 38.698-52.7 35.762-10.756-14.28-17.124-32.032-17.124-51.278 0-.443 0-.886.021-1.329.35-23.872 10.519-45.375 26.654-60.633 29.445 16.732 59.283 34.741 58.665 38.687z" fill="#808fa4"></path><path d="m177.212 62.066-69.824 21.636-37.74-11.694-32.073-9.942 4.368-34.989C43.881 11.612 57.027.001 72.616.001h69.556c15.588 0 28.735 11.612 30.672 27.076z" fill="#ace094"></path><path d="M99.929.001C94.86 2.422 87.174 8.037 85.783 20.195l-4.739 48.929s-4.533 1.154-11.395 2.885l-32.073-9.942 4.368-34.989C43.881 11.612 57.027.001 72.616.001z" fill="#8dd470"></path><path d="M209.193 98.673c-15.774 4.451-46.436 9.942-101.794 9.942-21.162 0-38.719-.804-53.205-2.04l-19.442-6.326-11.581 2.37h-.01c-7.243-1.298-13.013-2.658-17.556-3.946-6.336-1.782-7.634-10.2-2.163-13.858l34.134-22.749h139.637l34.134 22.749c5.47 3.658 4.182 12.075-2.154 13.858z" fill="#8dd470"></path><path d="M54.194 106.575c-23.429-2.009-38.853-5.152-48.589-7.902-6.336-1.782-7.634-10.2-2.163-13.858l34.134-22.749h44.149L53.617 92.202s-7.037 6.769.577 14.373z" fill="#6dc847"></path><path d="M184.971 493.969c0 9.953-8.078 18.03-18.041 18.03H91.79c-12.662 0-23.058-10.148-23.182-22.811v-.464c0-15.516 7.758-23.274 7.758-23.274h62.066l34.206 11.405a18.033 18.033 0 0 1 12.333 17.114z" fill="#64768e"></path><path d="M113.014 511.999H91.79c-12.662 0-23.058-10.148-23.182-22.811v-.464c0-15.516 7.758-23.274 7.758-23.274h25.459s-14.022 30.095 11.189 46.549z" fill="#4f5c6f"></path><path d="m162.318 331.038-16.298 17.974-25.537 2.43-43.493-65.476c-11.364-17.108-5.059-40.309 13.4-49.313 18.46-9.003 40.624.313 47.109 19.8z" fill="#ff8c42"></path><path d="m162.42 382.775-1.23.6c-11.213 5.469-24.735.812-30.204-10.4l-10.502-21.533 41.835-20.404 10.502 21.533c5.468 11.213.812 24.735-10.401 30.204z" fill="#ffddcf"></path><path d="M511.999 119.392V258.39c0 31.991-31.63 54.369-61.798 43.716l-89.399-31.558-81.631-28.807c-18.535-6.542-30.93-24.058-30.93-43.716v-88.688c0-23.285 17.103-42.366 39.141-45.807l7.48 1.824 20.998-1.216 45.045 2.648 107.45 6.326c24.511 1.441 43.644 21.728 43.644 46.28z" fill="#e4996d"></path><path d="m360.802 270.548-81.631-28.807c-18.535-6.542-30.93-24.058-30.93-43.716v-88.688c0-26.685 22.461-47.858 49.084-46.292l63.58 3.74c-3.946 1.978-8.912 6.295-8.912 15.485l.525 173.73s-.144 8.582 8.284 14.548z" fill="#d97c41"></path><path d="M480.966 123.111v86.339l-98.724 20.575-29.858-17.206-73.11-42.15 15.64-48.939 57.13-22.842 114.652 8.819c8.058.62 14.27 7.337 14.27 15.404z" fill="#c2eafb"></path><path d="m352.384 212.82-73.11-42.15v-60.695c0-8.995 7.665-16.093 16.639-15.403l56.131 4.317z" fill="#91d4f2"></path><path d="M480.966 209.451v48.321c0 10.622-10.468 18.072-20.503 14.599l-108.007-37.39-11.251-26.705 11.107-19.988c11.23 3.668 21.564 3.369 29.312 2.061h.01c6.017-1.02 10.478-2.658 12.611-3.544 3.009-1.257 6.069-2.359 9.211-3.225 16.156-4.441 53.69-9.86 77.51 25.871z" fill="#ace094"></path><path d="m352.457 234.982-62.787-21.729a15.449 15.449 0 0 1-10.396-14.599V170.67s23.274-15.516 54.297 7.758a66.982 66.982 0 0 0 5.533 3.74 63.071 63.071 0 0 0 13.209 6.12z" fill="#8dd470"></path><circle cx="380.121" cy="15.515" fill="#e4996d" r="15.515"></circle><path d="M418.911 341.33v31.033c-46.446 15.485-80.879 14.661-106.152 6.656-23.491-7.428-39.059-21.059-49.001-33.536v-.01l-3.483-10.406-5.162-2.256h-.011c-4.966-8.582-6.862-14.744-6.862-14.744l23.275-7.758s13.25 21.193 45.941 32.609h.01c23.245 8.127 56.318 11.301 101.445-1.588z" fill="#b18cd9"></path><path d="M312.759 379.018c-50.701-16.042-64.518-60.953-64.518-60.953l23.275-7.758s13.25 21.193 45.941 32.609c-5.574 4.503-16.073 16.362-4.698 36.102z" fill="#996acc"></path><g fill="#64768e"><circle cx="248.242" cy="302.545" fill="#64768e" r="31.03"></circle><path d="M271.971 457.697h-47.458c-8.317 0-15.059-6.742-15.059-15.059v-.913c0-8.317 6.742-15.059 15.059-15.059h47.458c8.317 0 15.059 6.742 15.059 15.059v.913c0 8.317-6.742 15.059-15.059 15.059zM403.394 372.364h31.03v124.121h-31.03z" fill="#64768e"></path></g><circle cx="418.909" cy="356.848" fill="#808fa4" r="31.03"></circle><path d="M442.638 512H395.18c-8.317 0-15.059-6.742-15.059-15.059v-.913c0-8.317 6.742-15.059 15.059-15.059h47.458c8.317 0 15.059 6.742 15.059 15.059v.913c0 8.317-6.743 15.059-15.059 15.059z" fill="#808fa4"></path></g></svg>