<svg viewBox="0 0 64 64" xmlns="http://www.w3.org/2000/svg"><g><path d="M4 20v28h38V34h6V20z" fill="#505050"></path><path d="M46.778 4 5.833 15.167v4L48 7.667z" fill="#3c3c3c"></path><path d="M4 16h44v4H4z" fill="#505050"></path><path d="M48 20H4v28h2V22h42z" fill="#3c3c3c"></path><path d="m16 20 2-4h4l-2 4zM24 20l2-4h4l-2 4zM32 20l2-4h4l-2 4zM40 20l2-4h4l-2 4z" fill="#f0f0f0"></path><path d="m16.173 12.347 1.76 3.52 3.52-.96-1.76-3.52zM23.213 10.427l1.76 3.52 3.52-.96-1.76-3.52zM30.253 8.507l1.76 3.52 3.52-.96-1.76-3.52zM40.813 5.627l-3.52.96 1.76 3.52 3.52-.96z" fill="#d2d2d2"></path><path d="M44 26v-2H8v2h12v4H8v2h36v-2H32v-4zm-14 4h-8v-4h8z" fill="#f0f0f0"></path><path d="M4 15v5h6.131a1 1 0 0 0 .832-1.555l-2.667-4A.998.998 0 0 0 7.465 14H5a1 1 0 0 0-1 1z" fill="#fab400"></path><path d="M7 14H5a1 1 0 0 0-1 1v5h2v-5a1 1 0 0 1 1-1z" fill="#dc9600"></path><path d="M7 18a1 1 0 1 1 0-2 1 1 0 0 1 0 2z" fill="#f0f0f0"></path><path d="M8 42h34v2H8z" fill="#3c3c3c"></path><path d="M46 38h12v8H46z" fill="#fa6450"></path><path d="M44 36h2v14h-2zM58 36h2v14h-2z" fill="#fab400"></path><path d="M44 50h16v2H44z" fill="#fa6450"></path><path d="m58 52-10 8h-2l10-8z" fill="#fab400"></path><path d="m46 52 10 8h2l-10-8z" fill="#fab400"></path></g></svg>