<svg viewBox="0 0 512 512" xmlns="http://www.w3.org/2000/svg"><g><path d="m511.54 241-31.93-15.392L507.779 211c-1.827-10.201-4.063-20.255-7.07-30l-34.624-11.962L489.114 151c-4.726-10.404-10.15-20.396-16.176-30l-40.487-14.389L451.073 91c-9.199-10.803-19.241-20.858-30.093-30l-48.143-12.305L376.745 31C341.012 11.906 299.27 0 256 0l-14.844 31H241v448.422L256 512c43.27 0 85.012-11.906 120.745-31l-5.187-16.828L420.98 451c10.853-9.142 20.894-19.197 30.093-30l-18.698-15.507L472.938 391c6.026-9.604 11.45-19.596 16.176-30l-24.982-12.983L500.71 331c3.007-9.745 5.242-19.799 7.07-30l-28.364-13.054L511.54 271c.293-4.991.46-9.937.46-15s-.167-10.009-.46-15z" fill="#353d4d"></path><g fill="#1e2533"><path d="m241.156 31-.156.315V61h179.98c-13.616-11.468-28.414-21.546-44.235-30zM241 121h231.938c-6.603-10.523-13.843-20.579-21.865-30H241zM241 181h259.71c-3.184-10.327-7.18-20.277-11.596-30H241zM241 241h270.54c-.595-10.168-2.003-20.184-3.761-30H241zM241 301h266.779c1.758-9.816 3.166-19.832 3.761-30H241zM241 361h248.114c4.417-9.723 8.412-19.673 11.596-30H241zM241 421h210.073c8.022-9.421 15.262-19.477 21.865-30H241zM241 479.422l.749 1.578h134.997c15.82-8.454 30.619-18.532 44.235-30H241z" fill="#1e2533"></path></g><path d="M0 256c0 140.61 115.39 256 256 256V0C115.39 0 0 115.39 0 256z" fill="#ffdf40"></path></g></svg>