<svg viewBox="0 0 512 512" xmlns="http://www.w3.org/2000/svg"><g><path d="M483.097 156.903C483.097 70.248 412.849 0 326.194 0c-39.122 0-74.899 14.318-102.378 37.999-33.388 28.773-49.178 71.37-49.178 118.904 0 86.655 64.901 151.682 151.557 151.682 47.523 0 90.111-15.907 118.884-49.281 23.692-27.482 38.018-63.268 38.018-102.401z" fill="#eceaec"></path><path d="m257.93 113.513-18.446 51.648h41.29l-18.446-51.648c-.738-2.066-3.66-2.066-4.398 0zM390.208 113.513l-18.446 51.648h41.29l-18.446-51.648c-.737-2.066-3.66-2.066-4.398 0z" fill="#dbd8db"></path><path d="M392.258 82.581H260.129c-4.565 0-8.258 3.698-8.258 8.258s3.694 8.258 8.258 8.258h57.806v107.355c0 4.56 3.694 8.258 8.258 8.258s8.258-3.698 8.258-8.258V99.097h57.806a8.256 8.256 0 0 0 8.258-8.258 8.254 8.254 0 0 0-8.257-8.258z" fill="#c9c5c9"></path><path d="M326.194 66.065a8.256 8.256 0 0 1-8.258-8.258v-8.258c0-4.56 3.694-8.258 8.258-8.258s8.258 3.698 8.258 8.258v8.258a8.256 8.256 0 0 1-8.258 8.258zM326.194 198.194c-9.121 0-16.516 7.394-16.516 16.516v33.032h33.032V214.71c0-9.122-7.395-16.516-16.516-16.516z" fill="#f4aa73"></path><path d="M367.484 256h-82.581c-4.565 0-8.258-3.698-8.258-8.258s3.694-8.258 8.258-8.258h82.581c4.565 0 8.258 3.698 8.258 8.258S372.048 256 367.484 256z" fill="#c9c5c9"></path><path d="M260.129 189.935c-13.682 0-24.774-11.092-24.774-24.774a8.258 8.258 0 0 1 8.258-8.258h33.032a8.258 8.258 0 0 1 8.258 8.258c0 13.683-11.092 24.774-24.774 24.774zM392.258 189.935c-13.682 0-24.774-11.092-24.774-24.774a8.258 8.258 0 0 1 8.258-8.258h33.032a8.258 8.258 0 0 1 8.258 8.258c0 13.683-11.092 24.774-24.774 24.774z" fill="#f4aa73"></path><path d="M342.71 297.29c-86.655 0-156.903-70.248-156.903-156.903 0-39.122 14.327-74.908 38.009-102.388-33.388 28.774-54.525 71.371-54.525 118.904 0 86.655 70.248 156.903 156.903 156.903 47.533 0 90.111-21.115 118.884-54.502-27.479 23.682-63.246 37.986-102.368 37.986z" fill="#dbd8db"></path><path d="M218.839 429.419h-92.093v-75.223l92.093 10.915z" fill="#fbbd80"></path><path d="M119.742 412.903h16.516v-18.211c0-10.175 9.212-17.455 19.266-15.888a89.344 89.344 0 0 0 13.766 1.067c18.294 0 35.292-5.456 49.548-14.76v-43.046h-99.097v90.838z" fill="#f4aa73"></path><path d="M169.29 362.178c-41.047 0-64.481-32.099-64.481-73.146V214.71h138.804v74.323c0 33.822-22.592 62.367-53.509 71.369-6.604 1.922-13.588 1.776-20.814 1.776z" fill="#ffd18d"></path><path d="M136.258 289.032V214.71h-41.29v74.323c0 41.047 33.275 74.323 74.323 74.323a75.407 75.407 0 0 0 20.814-2.954c-30.992-8.955-53.847-37.494-53.847-71.37z" fill="#fbbd80"></path><path d="m287.934 421.513-69.095-25.126-49.548 24.774-45.314-20.54-69.095 25.126a33.031 33.031 0 0 0-21.743 31.043v42.928L45.419 512h247.742c9.122 0 16.516-7.395 16.516-16.516v-42.928a33.031 33.031 0 0 0-21.743-31.043z" fill="#c9c5c9"></path><path d="m56.29 437.04 69.097-25.129-5.645-15.524-69.095 25.126a33.031 33.031 0 0 0-21.743 31.043v42.928c0 9.122 7.395 16.516 16.516 16.516v-59.439a16.515 16.515 0 0 1 10.87-15.521z" fill="#b8b2b8"></path><path d="M210.581 189.935h-74.323l-11.25 14.18 11.25 27.111s31.403 54.955 109.517 34.736c3.6-.932 6.096-4.282 6.096-8.001v-26.735c0-22.804-18.486-41.291-41.29-41.291z" fill="#7a4646"></path><path d="m169.29 421.161-52.114-37.224a8.258 8.258 0 0 0-10.639.881l-13.988 13.988a8.258 8.258 0 0 0 0 11.679l37.87 37.87a8.258 8.258 0 0 0 11.679 0zM169.29 421.161l52.114-37.224a8.258 8.258 0 0 1 10.639.881l13.988 13.988a8.258 8.258 0 0 1 0 11.679l-37.87 37.87a8.258 8.258 0 0 1-11.679 0z" fill="#dbd8db"></path><path d="M128 189.935c-22.804 0-41.29 18.486-41.29 41.29v22.872c0 5.694 5.586 9.692 10.964 7.822 9.532-3.314 24.058-11.326 38.585-30.694v-41.29z" fill="#70393c"></path></g></svg>