<svg viewBox="0 0 58 58" xmlns="http://www.w3.org/2000/svg"><g><g fill="none" fill-rule="nonzero" transform="translate(-1 -1)"><path d="M40.58 25.06a20 20 0 1 0-15.52 15.52z" fill="#e64c3c"></path><circle cx="42" cy="42" fill="#f0c419" r="17"></circle><path d="M46.857 54a1 1 0 0 1-.925-.619 4.438 4.438 0 0 0-7.865 0 1 1 0 0 1-1.851-.757 6.427 6.427 0 0 1 11.568 0A1 1 0 0 1 46.857 54z" fill="#802d40"></path><path d="M35.56 39.04a4 4 0 1 1-4.4 2.84zM52.84 41.88a4 4 0 1 1-4.4-2.84z" fill="#ecf0f1"></path><path d="M21.9 30.043a7.132 7.132 0 0 1-4.114-1.322 1 1 0 1 1 1.23-1.577 5.132 5.132 0 0 0 5.6.122 5.132 5.132 0 0 0 2.692-4.915 1 1 0 1 1 1.982-.271A7.113 7.113 0 0 1 25.618 29a7.358 7.358 0 0 1-3.718 1.043z" fill="#802d40"></path><path d="M7.792 20.217a4.621 4.621 0 0 0 .236 4.2 4.706 4.706 0 1 0 8.151-4.706zM26.926 9.17a4.624 4.624 0 0 1 3.517 2.3 4.706 4.706 0 0 1-8.151 4.706z" fill="#ecf0f1"></path><path d="M5.674 21.339a1 1 0 0 1-.059-2l10.5-.631a1.002 1.002 0 0 1 .12 2l-10.5.631zM22.291 17.179a1 1 0 0 1-.833-1.551l5.8-8.781a1 1 0 1 1 1.669 1.1l-5.8 8.781a1 1 0 0 1-.836.451z" fill="#c03a2b"></path><g fill="#3f5c6c"><circle cx="36" cy="43" fill="#3f5c6c" r="2"></circle><circle cx="48" cy="43" fill="#3f5c6c" r="2"></circle><circle cx="27" cy="16" fill="#3f5c6c" r="2"></circle><circle cx="14" cy="23" fill="#3f5c6c" r="2"></circle></g><path d="M30 43a1 1 0 0 1 0-2c.182 0 4.079-.07 5.044-3.288a1 1 0 1 1 1.916.576C35.56 42.946 30.227 43 30 43zM54 43c-.227 0-5.56-.054-6.958-4.712a1 1 0 0 1 1.916-.576C49.933 40.962 53.959 41 54 41a1 1 0 0 1 0 2z" fill="#f29c1f"></path></g></g></svg>