<svg viewBox="0 0 512 512" xmlns="http://www.w3.org/2000/svg"><g><path d="m416.71 187.234-23.653-15.782-9.161 13.742 23.435 15.629c8.661 6.194 13.831 16.242 13.831 26.879v119.137h16.516V227.702c-.001-15.96-7.759-31.033-20.968-40.468z" fill="#dbd8db"></path><path d="M211.778 175.175h93.77v64.308h-93.77z" fill="#e29a6c"></path><path d="M206.452 222.968h16.516v-18.211c0-10.175 9.212-17.455 19.266-15.888A89.344 89.344 0 0 0 256 189.936c18.294 0 35.292-5.456 49.548-14.76V132.13h-99.097v90.838z" fill="#d48c64"></path><path d="M256 172.083c-41.047 0-58.665-31.939-58.665-72.986V24.774h132.988v74.323c0 33.868-22.653 62.445-53.635 71.405-6.567 1.899-13.509 1.581-20.688 1.581z" fill="#f4aa73"></path><path d="M222.968 99.097V24.774h-41.29v74.323c0 41.047 33.275 74.323 74.323 74.323a74.526 74.526 0 0 0 20.688-2.917c-30.992-8.955-53.721-37.531-53.721-71.406z" fill="#e29a6c"></path><path d="M421.162 512H99.096a8.258 8.258 0 0 1-8.258-8.258V363.355h321.953l16.628 24.774v115.613a8.256 8.256 0 0 1-8.257 8.258z" fill="#ffd18d"></path><path d="M123.87 388.129h305.55v-24.774H82.581v140.387A8.258 8.258 0 0 0 90.839 512h8.258v-99.097c-.001-13.682 11.091-24.774 24.773-24.774z" fill="#fbbd80"></path><path d="m374.643 231.577-69.095-25.126L256 231.226l-45.757-20.983-69.095 25.126a33.032 33.032 0 0 0-21.744 31.043l5.388 88.685h271.595V262.62a33.03 33.03 0 0 0-21.744-31.043z" fill="#615260"></path><path d="m143 247.105 69.097-25.129-5.645-15.524-69.095 25.126a33.032 33.032 0 0 0-21.744 31.043v92.476h16.516v-92.476c0-6.919 4.371-13.153 10.871-15.516z" fill="#4e3d4d"></path><path d="M257.569 264.258h-3.138c-8.485 0-15.59 6.43-16.434 14.873l-6.771 67.708h49.548l-6.771-67.708c-.844-8.443-7.949-14.873-16.434-14.873z" fill="#7ad7ee"></path><path d="M437.677 363.355H82.581a8.258 8.258 0 0 1-8.258-8.258v-8.258a8.258 8.258 0 0 1 8.258-8.258h355.097a8.258 8.258 0 0 1 8.258 8.258v8.258a8.26 8.26 0 0 1-8.259 8.258z" fill="#f4aa73"></path><path d="M239.484 231.226V256c0 9.121 7.395 16.516 16.516 16.516s16.516-7.395 16.516-16.516v-24.774z" fill="#4bc3ef"></path><path d="M297.29 0h-74.323L209.28 27.974l13.687 13.316s31.403 54.955 109.517 34.736c3.601-.932 6.096-4.282 6.096-8.001V41.29C338.581 18.486 320.094 0 297.29 0z" fill="#7a4646"></path><path d="M388.117 193.476c-3.323 0-6.677-1-9.589-3.081l-16.516-11.798c-7.423-5.298-9.141-15.613-3.839-23.032 5.31-7.427 15.621-9.145 23.04-3.839l16.516 11.798c7.423 5.298 9.141 15.613 3.839 23.032-3.225 4.517-8.302 6.92-13.451 6.92z" fill="#615260"></path><path d="M183 363.355v134.059l6.936 4.676L256 462.452l70.074 42.044c5.504 3.302 12.507-.662 12.507-7.082V388.129l-17.011-24.774z" fill="#7ad7ee"></path><path d="M214.71 388.129h123.871v-24.774H173.419v134.06c0 6.419 7.002 10.384 12.507 7.081l4.01-2.406v-89.187c-.001-13.682 11.091-24.774 24.774-24.774z" fill="#4bc3ef"></path><path d="m256 231.226-52.114-37.224a8.258 8.258 0 0 0-10.639.881l-13.988 13.988a8.258 8.258 0 0 0 0 11.679l37.87 37.87a8.258 8.258 0 0 0 11.679 0zM256 231.226l52.114-37.224a8.258 8.258 0 0 1 10.639.881l13.988 13.988a8.258 8.258 0 0 1 0 11.679l-37.87 37.87a8.258 8.258 0 0 1-11.679 0z" fill="#736572"></path><path d="M90.839 355.097a8.258 8.258 0 0 1-8.258-8.258v-8.258h-8.258a8.258 8.258 0 0 0-8.258 8.258v16.516a8.258 8.258 0 0 0 8.258 8.258h363.355a8.258 8.258 0 0 0 8.258-8.258v-8.258z" fill="#e29a6c"></path><path d="M214.71 0c-22.804 0-41.29 18.486-41.29 41.29v22.872c0 5.694 5.586 9.692 10.964 7.822 9.532-3.314 24.058-11.326 38.585-30.694V0z" fill="#70393c"></path></g></svg>