<svg viewBox="0 0 512.02 512.02" xmlns="http://www.w3.org/2000/svg"><g><path d="m12.228 189.576 48.08 177.488c3.392 12.544 16.32 20.08 29.008 16.64l405.232-109.712c12.688-3.44 20.048-16.464 16.64-29.008l-48.08-177.472-450.88 122.064z" fill="#dee4e9"></path><path d="M150.412 167.097h153.643v13.04H150.412z" fill="#8cc63e" transform="scale(-1) rotate(-15.154 -1305.27 1708.367)"></path><path d="M160.967 206.254H314.61v13.04H160.967z" fill="#acb9c1" transform="scale(-1) rotate(-15.154 -1599.656 1787.72)"></path><path d="M171.619 245.418h153.643v13.04H171.619z" fill="#acb9c1" transform="scale(-1) rotate(-15.154 -1894.09 1867.8)"></path><path d="M179.909 267.2h286.924v13.041H179.909z" fill="#acb9c1" transform="scale(-1) rotate(-15.147 -2058.677 2432.097)"></path><path d="m463.108 67.512-11.376-42.016c-3.44-12.688-16.336-20.08-29.008-16.64L17.492 118.552A23.566 23.566 0 0 0 .836 147.56l11.376 42.016L463.108 67.512z" fill="#9a795f"></path><path d="m272.836 100.616-6.88-25.392-9.072 2.448-1.392-5.168 24.288-6.576 1.408 5.168-9.04 2.448 6.88 25.376-6.192 1.696zM291.844 95.48l-8.272-30.56 6.176-1.664 8.272 30.56-6.176 1.664zM320.404 75.688l6.496.272c-.016 3.584-.864 6.48-2.56 8.672-1.696 2.192-4.176 3.744-7.456 4.624-4.064 1.104-7.776.608-11.136-1.456s-5.696-5.504-6.992-10.304c-1.376-5.088-1.136-9.392.736-12.912 1.872-3.52 4.944-5.872 9.216-7.024 3.744-1.008 7.072-.736 10 .848 1.744.928 3.296 2.528 4.656 4.784l-5.712 3.12c-.784-1.488-1.888-2.528-3.28-3.136s-2.912-.688-4.56-.24c-2.272.608-3.888 1.92-4.848 3.936-.976 2.016-.96 4.832.016 8.48 1.04 3.856 2.48 6.432 4.32 7.696s3.856 1.6 6.08.992c1.648-.448 2.912-1.344 3.808-2.704s1.296-3.264 1.216-5.648zM334.804 83.848l-8.272-30.56 6.176-1.664 3.68 13.568 8.784-16.944 8.288-2.24-8.288 15.008 17.184 15.376-7.984 2.16-12.288-12.064-3.616 6.464 2.496 9.232-6.16 1.664zM365.54 75.528l-8.272-30.56 22.656-6.128 1.392 5.168-16.48 4.464 1.84 6.768 15.344-4.16 1.392 5.152-15.344 4.16 2.256 8.32 17.072-4.624 1.392 5.152-23.248 6.288zM400.884 65.96l-6.88-25.376-9.072 2.448-1.392-5.168 24.288-6.576 1.392 5.168-9.04 2.448 6.88 25.376-6.176 1.68z" fill="#ffffff"></path><path d="M77.702 101.141h10.864v19.824H77.702z" fill="#ffffff" transform="rotate(164.84 83.135 111.053)"></path><path d="M85.272 132.094h10.864v13.776H85.272z" fill="#ffffff" transform="rotate(164.84 90.705 138.982)"></path><path d="M92.653 156.389h10.864v19.823H92.653z" fill="#ffffff" transform="scale(-1) rotate(-15.154 -1250.26 737.409)"></path><path d="M100.236 187.342H111.1v13.776h-10.864z" fill="#ffffff" transform="scale(-1) rotate(-15.154 -1460.237 794.42)"></path><path d="M107.634 211.639h10.864v19.823h-10.864z" fill="#ffffff" transform="scale(-1) rotate(-15.154 -1665.635 850.036)"></path><path d="M115.197 242.566h10.864v13.776h-10.864z" fill="#ffffff" transform="rotate(164.84 120.63 249.454)"></path><path d="M122.606 266.896h10.864v19.824h-10.864z" fill="#ffffff" transform="rotate(164.84 128.039 276.809)"></path><path d="M130.146 297.863h10.864v13.776h-10.864z" fill="#ffffff" transform="scale(-1) rotate(-15.154 -2291.143 1019.286)"></path><path d="M137.598 322.226h10.864v19.824h-10.864z" fill="#ffffff" transform="rotate(164.84 143.03 332.139)"></path><path d="M145.107 353.116h10.863v13.775h-10.863z" fill="#ffffff" transform="scale(-1) rotate(-15.147 -2707.603 1132.252)"></path><path d="m431.524 184.76 5.92 3.392c.096.336-.032.544-.272.96.048.16-.08.384-.032.544-.32.8-.64 1.6-1.12 2.448-.976 1.696-2.192 3.104-3.392 3.952l3.152 8.976c.224.832.112 1.76-.368 2.608l-6.8 11.84c-.688 1.44-2.656 1.424-3.504.24L398.9 182.328c-6.64 9.12-13.328 18.08-19.472 25.104l3.504 12.272c.352.624.144 1.216-.048 1.808l-4.656 7.872c-.192.592-1.072.656-1.424.032L369.54 217.8c-3.328 2.864-5.936 4.464-7.568 4.368-.64-.176-1.12-.464-1.488-.848-.912-1.36-.832-4.416-.048-8.736l-13.904-.528c-.544-.032-.896-.656-.48-1.12l4.448-8c.416-.464.816-.928 1.536-.944l12.368-3.168c2.96-8.848 7.28-19.312 11.856-29.472l-45.52-3.76c-1.472-.144-2.464-1.84-1.568-3.152l6.752-12.016c.528-.672 1.264-1.232 2.112-1.456l9.344-1.808c.144-1.472.736-3.232 1.696-4.928.48-.848 1.024-1.52 1.552-2.208.16-.048.288-.256.4-.464a1.42 1.42 0 0 1 .736-.56l5.92 3.408c-.032.544-.272.96-.304 1.504-.24.416-.448 1.008-.848 1.472l8.176-1.504c.128-1.472.768-3.072 1.744-4.768.48-.848 1.024-1.52 1.552-2.208.24-.416.656-.896.944-1.152l6.128 3.52a5.5 5.5 0 0 1-.512 1.392c-.032.544-.272.96-.512 1.392l16.992-3.168c1.216-2.112 2.256-4.192 3.392-5.92 11.056-19.248 23.168-26.64 30.576-22.384s7.136 18.432-3.904 37.68c-.928 1.856-2.192 3.808-3.408 5.92l5.84 16.288c.24-.416.48-.848.944-1.152.24-.432.656-.896.944-1.152l6.144 3.52c-.24.416-.272.976-.512 1.392-.32.8-.64 1.6-1.12 2.448-.96 1.696-2.032 3.056-3.232 3.92l2.784 7.648c.24-.416.656-.896.896-1.312.4-.464.688-.72 1.136-1.024z" fill="#84939a"></path><path d="M34.58 296.472v183.872c0 12.992 10.512 23.648 23.648 23.648H478.02c13.136 0 23.648-10.656 23.648-23.648V296.472H34.58z" fill="#e9eff4"></path><path d="M169.444 330.744h153.632v13.04H169.444z" fill="#e24b4b"></path><path d="M169.444 371.368h153.632v13.04H169.444zM169.444 411.88h153.632v13.04H169.444zM169.444 452.488H456.34v13.04H169.444z" fill="#bbc7d1"></path><path d="M501.668 296.472v-43.536a23.552 23.552 0 0 0-23.648-23.648H58.228a23.552 23.552 0 0 0-23.648 23.648v43.536h467.088z" fill="#a5856d"></path><path d="M309.364 278.712v-26.304h-9.392v-5.36h25.152v5.36h-9.376v26.304h-6.384zM329.06 278.712v-31.648h6.4v31.648h-6.4zM361.796 267.08l6.192 1.968c-.944 3.456-2.528 6.016-4.736 7.696-2.208 1.68-5.008 2.512-8.416 2.512-4.208 0-7.664-1.44-10.368-4.304-2.704-2.864-4.064-6.8-4.064-11.776 0-5.264 1.36-9.36 4.08-12.272s6.304-4.368 10.736-4.368c3.872 0 7.008 1.152 9.44 3.44 1.44 1.344 2.512 3.296 3.232 5.824l-6.32 1.52c-.368-1.648-1.152-2.944-2.336-3.888s-2.624-1.424-4.336-1.424c-2.352 0-4.256.848-5.712 2.528s-2.192 4.416-2.192 8.176c0 4 .72 6.848 2.16 8.544s3.312 2.544 5.616 2.544c1.696 0 3.168-.544 4.384-1.616 1.216-1.088 2.096-2.784 2.64-5.104zM373.556 278.712v-31.648h6.384v14.064l12.912-14.064h8.592l-11.92 12.336 12.56 19.328h-8.272l-8.704-14.848-5.184 5.296v9.568h-6.368v-.032zM405.396 278.712v-31.648h23.472v5.36h-17.072v7.024h15.888v5.328h-15.888v8.608h17.68v5.328h-24.08zM442.02 278.712v-26.304h-9.392v-5.36h25.152v5.36h-9.376v26.304h-6.384zM118.116 229.304h10.864v19.824h-10.864zM118.116 261.256h10.864v13.776h-10.864zM118.116 286.536h10.864v19.824h-10.864zM118.116 318.504h10.864v13.776h-10.864zM118.116 343.784h10.864v19.824h-10.864zM118.116 375.752h10.864v13.776h-10.864zM118.116 400.968h10.864v19.824h-10.864zM118.116 432.968h10.864v13.776h-10.864zM118.116 458.264h10.864v19.824h-10.864zM118.116 490.232h10.864v13.776h-10.864z" fill="#ffffff"></path><path d="m440.532 401.384 4.832 4.832c0 .336-.176.512-.512.864 0 .176-.176.352-.176.512-.512.688-1.04 1.376-1.728 2.064-1.376 1.376-2.928 2.416-4.32 2.928l.688 9.488c0 .864-.352 1.728-1.04 2.416l-9.664 9.664c-1.04 1.2-2.928.688-3.44-.688l-15.52-42.944c-8.8 7.072-17.6 13.968-25.36 19.136l.176 12.768c.176.688-.176 1.2-.512 1.728l-6.56 6.384c-.352.512-1.216.352-1.376-.336l-3.968-13.104c-3.968 1.904-6.896 2.752-8.448 2.24-.56-.336-.96-.736-1.2-1.216-.512-1.552.336-4.48 2.24-8.448l-13.28-4.144c-.512-.176-.688-.864-.176-1.2l6.384-6.56c.512-.336 1.04-.688 1.728-.512l12.768.176c5.184-7.76 12.08-16.736 19.152-25.36l-42.944-15.52c-1.376-.512-1.904-2.416-.688-3.456l9.664-9.824c.688-.512 1.552-.864 2.416-.864l9.488.688c.512-1.376 1.552-2.928 2.928-4.32.688-.688 1.376-1.2 2.08-1.728.176 0 .352-.176.512-.352a1.3 1.3 0 0 1 .864-.352l4.832 4.832c-.176.512-.512.864-.688 1.376-.352.352-.688.864-1.2 1.2l8.272.688c.512-1.376 1.552-2.768 2.928-4.144.688-.688 1.376-1.216 2.064-1.728.336-.352.864-.688 1.2-.864l5.008 5.008a5.183 5.183 0 0 1-.864 1.216c-.16.512-.512.864-.864 1.216l17.248 1.376c1.728-1.728 3.28-3.456 4.832-4.832 15.696-15.696 29.328-19.664 35.36-13.632 6.032 6.032 2.064 19.664-13.616 35.36-1.376 1.552-3.104 3.104-4.832 4.832l1.376 17.248c.352-.352.688-.688 1.2-.864a5.183 5.183 0 0 1 1.216-.864l5.008 5.008c-.352.336-.512.864-.864 1.2-.512.688-1.04 1.376-1.728 2.064-1.376 1.376-2.752 2.416-4.144 2.928l.688 8.112c.352-.336.864-.688 1.216-1.04a5.8 5.8 0 0 1 1.344-.656z" fill="#84939a"></path></g></svg>