<svg viewBox="0 0 64 64" xmlns="http://www.w3.org/2000/svg"><g><path d="M43.13 20.5C40.25 23.29 36.33 25 32 25s-8.25-1.71-11.13-4.5C23.75 17.71 27.67 16 32 16s8.25 1.71 11.13 4.5zM16.8 27c-.52 1.57-.8 3.25-.8 5 0 8.84 7.16 16 16 16s16-7.16 16-16c0-1.75-.28-3.43-.8-5-2.1 6.39-8.11 11-15.2 11s-13.1-4.61-15.2-11z" fill="#57cc99"></path><ellipse cx="32" cy="32" fill="#38a3a5" rx="7" ry="16"></ellipse><path d="M47.2 27c-2.1 6.39-8.11 11-15.2 11s-13.1-4.61-15.2-11c.82-2.49 2.23-4.72 4.07-6.5C23.75 23.29 27.67 25 32 25s8.25-1.71 11.13-4.5c1.84 1.78 3.25 4.01 4.07 6.5z" fill="#80ed99"></path><path d="M32 15c-9.37 0-17 7.63-17 17s7.63 17 17 17 17-7.63 17-17-7.63-17-17-17zm14.13 12.01c-1.17 3.3-3.4 6-6.24 7.75.07-.9.11-1.82.11-2.76 0-2.75-.3-5.32-.83-7.6 1.39-.65 2.69-1.49 3.88-2.5 1.34 1.47 2.4 3.2 3.07 5.11zM32 47c-2.12 0-4.43-3.45-5.46-8.9 1.72.58 3.56.9 5.46.9s3.73-.32 5.46-.9C36.43 43.55 34.13 47 32 47zm0-10c-2.03 0-3.99-.41-5.78-1.15-.14-1.21-.22-2.49-.22-3.85 0-2.54.27-4.84.7-6.85 1.69.55 3.47.85 5.3.85s3.61-.3 5.3-.85c.44 2.01.7 4.32.7 6.85 0 1.35-.08 2.63-.22 3.85C35.99 36.6 34.03 37 32 37zm0-20c1.75 0 3.62 2.34 4.8 6.2-1.53.51-3.14.8-4.8.8s-3.27-.28-4.8-.8c1.18-3.86 3.05-6.2 4.8-6.2zm-6.65 5.44a14.66 14.66 0 0 1-2.96-1.94c1.53-1.28 3.33-2.27 5.29-2.86-.92 1.24-1.72 2.87-2.33 4.8zm10.98-4.8c1.96.59 3.75 1.57 5.29 2.86-.92.77-1.91 1.42-2.96 1.94-.61-1.93-1.4-3.55-2.33-4.8zm-15.38 4.25c1.19 1.02 2.49 1.86 3.88 2.5-.52 2.28-.83 4.85-.83 7.6 0 .95.04 1.86.11 2.76A14.943 14.943 0 0 1 17.87 27c.68-1.91 1.73-3.65 3.07-5.11zM17 31.99c0-.61.05-1.21.12-1.8 1.67 3.04 4.21 5.47 7.25 6.99.56 3.85 1.74 7.06 3.3 9.16C21.5 44.48 17 38.75 17 31.98zm19.33 14.36c1.56-2.1 2.74-5.31 3.3-9.16 3.04-1.52 5.58-3.95 7.25-6.99.07.59.12 1.19.12 1.8 0 6.77-4.51 12.49-10.67 14.36z" fill="#22577a"></path><path d="M34.52 9.1h.01C37.7 9.37 40 10.12 40 11h3c0-2.12-2.91-3.94-7.02-4.66a3.967 3.967 0 0 1-1.45 2.76zM28.02 6.34C23.91 7.06 21 8.88 21 11h3c0-.88 2.3-1.63 5.47-1.9a3.967 3.967 0 0 1-1.45-2.76z" fill="#6096ba"></path><circle cx="32" cy="6" fill="#274c77" r="4"></circle><path d="M13.43 18.37c1.82-2.62 3.62-4.24 4.38-3.8l1.5-2.6c-1.84-1.06-4.87.55-7.55 3.75.92.63 1.49 1.59 1.67 2.64zM7.79 22.62c-1.43 3.92-1.31 7.35.53 8.41l1.5-2.6c-.76-.44-.26-2.81 1.09-5.69-.99.38-2.11.35-3.12-.12z" fill="#6096ba"></path><circle cx="9.48" cy="19" fill="#274c77" r="4"></circle><path d="M10.91 41.27c-1.35-2.89-1.85-5.26-1.09-5.7l-1.5-2.6c-1.84 1.06-1.96 4.49-.53 8.41 1.01-.48 2.12-.5 3.12-.12zM11.77 48.28c2.68 3.2 5.71 4.81 7.55 3.75l-1.5-2.6c-.76.44-2.56-1.18-4.38-3.79-.17 1.05-.75 2-1.67 2.64z" fill="#6096ba"></path><circle cx="9.48" cy="45" fill="#274c77" r="4"></circle><path d="M29.48 54.9h-.01C26.3 54.63 24 53.88 24 53h-3c0 2.12 2.91 3.94 7.02 4.66.09-1.11.63-2.09 1.45-2.76zM35.98 57.66C40.09 56.94 43 55.12 43 53h-3c0 .88-2.3 1.63-5.47 1.9.82.67 1.36 1.65 1.45 2.76z" fill="#6096ba"></path><circle cx="32" cy="58" fill="#274c77" r="4"></circle><path d="M50.57 45.63c-1.82 2.62-3.62 4.24-4.38 3.8l-1.5 2.6c1.84 1.06 4.87-.55 7.55-3.75a3.986 3.986 0 0 1-1.67-2.64zM56.21 41.38c1.43-3.92 1.31-7.35-.53-8.41l-1.5 2.6c.76.44.26 2.81-1.09 5.69.99-.38 2.11-.35 3.12.12z" fill="#6096ba"></path><circle cx="54.52" cy="45" fill="#274c77" r="4"></circle><path d="M53.09 22.73c1.35 2.89 1.85 5.26 1.09 5.7l1.5 2.6c1.84-1.06 1.96-4.49.53-8.41-1.01.48-2.12.5-3.12.12zM52.23 15.72c-2.68-3.2-5.71-4.81-7.55-3.75l1.5 2.6c.76-.44 2.56 1.18 4.38 3.79.17-1.05.75-2 1.67-2.64z" fill="#6096ba"></path><circle cx="54.52" cy="19" fill="#274c77" r="4"></circle></g></svg>