<svg viewBox="0 0 64 64" xmlns="http://www.w3.org/2000/svg"><g><path d="M24.405 46.561a1.282 1.282 0 0 1-1.195-1.74c.432-1.12.983-2.805 1.167-4.48.088-.81.078-1.51-.03-2.077a1.28 1.28 0 0 1 2.515-.48c.156.817.176 1.772.06 2.837-.214 1.948-.837 3.858-1.322 5.12-.196.508-.68.82-1.195.82z" fill="#272728"></path><path d="M24.404 46.561a1.279 1.279 0 0 1-1.131-1.877c.63-1.193 1.66-2.918 2.99-4.363.729-.79 1.461-1.402 2.18-1.82a1.273 1.273 0 0 1 1.75.46 1.28 1.28 0 0 1-.463 1.75c-.49.288-1.037.75-1.585 1.345-1.142 1.243-2.048 2.765-2.607 3.823a1.28 1.28 0 0 1-1.134.682z" fill="#272728"></path><path d="M23.023 48.317 20.68 53.47c-4.548 3.916-12.146 4.36-13.537-.004-.556-1.74.278-4.642 2.332-6.793a9.169 9.169 0 0 1 1.917-1.541c.227-.13.462-.257.698-.365 4.263-1.951 9.595.82 10.933 3.551z" fill="#ffa6e8"></path><path d="M23.023 48.317 20.68 53.47c.038 6.002 4.697 12.02 8.9 10.2 1.676-.724 3.316-3.26 3.588-6.222a9.17 9.17 0 0 0-.098-2.457 8.667 8.667 0 0 0-.185-.766c-1.33-4.495-6.923-6.693-9.862-5.907z" fill="#ffa6e8"></path><g fill="#fc7eca"><path d="M24.405 45.28 22.6 49.247c.875 2.885 5.715 6.06 10.469 5.743a8.998 8.998 0 0 0 3.143-.786c4.394-2.013 7.456-7.942 6.065-10.64-1.677-3.241-9.587-1.537-12.743-.56a24.335 24.335 0 0 0-5.13 2.276z" fill="#fc7eca"></path><path d="M24.405 45.28 22.6 49.247c-2.75 1.236-8.324-.326-11.21-4.116a8.997 8.997 0 0 1-1.473-2.887c-1.37-4.634 1.086-10.838 4.035-11.564 3.544-.865 7.458 6.216 8.795 9.237a24.336 24.336 0 0 1 1.657 5.363z" fill="#fc7eca"></path></g><path d="M39.982 15.419c-.483 0-.945-.275-1.163-.742-.505-1.09-1.332-2.66-2.402-3.956-.515-.62-1.038-1.112-1.515-1.425a1.28 1.28 0 0 1 1.405-2.14c.695.455 1.395 1.105 2.08 1.931 1.247 1.508 2.187 3.287 2.757 4.513a1.282 1.282 0 0 1-1.162 1.819z" fill="#272728"></path><path d="M39.982 15.419a1.28 1.28 0 0 1-1.218-.884c-.417-1.288-.94-3.23-1.05-5.181-.062-1.073.008-2.025.208-2.833a1.274 1.274 0 0 1 1.547-.936c.688.169 1.108.862.938 1.549-.135.55-.183 1.268-.138 2.075.095 1.677.558 3.39.93 4.533a1.282 1.282 0 0 1-1.217 1.677z" fill="#272728"></path><path d="m41.2 17.244 2.07 5.268c-.355 5.991-5.324 11.756-9.425 9.718-1.635-.812-3.14-3.43-3.255-6.403a9.17 9.17 0 0 1 .227-2.448c.065-.254.138-.511.224-.756 1.566-4.419 7.266-6.32 10.16-5.38z" fill="#ffec9c"></path><path d="m41.2 17.244 2.07 5.268c4.335 4.15 11.9 4.992 13.518.708.646-1.708-.034-4.65-1.972-6.907a9.17 9.17 0 0 0-1.832-1.64 8.662 8.662 0 0 0-.68-.4c-4.153-2.173-9.624.313-11.104 2.97z" fill="#ffec9c"></path><g fill="#fcdd5e"><path d="m39.98 14.138 1.594 4.056c-1.027 2.836-6.027 5.75-10.757 5.185a8.997 8.997 0 0 1-3.098-.95c-4.282-2.242-7.027-8.324-5.497-10.946 1.846-3.148 9.655-1.03 12.755.112a24.337 24.337 0 0 1 5.004 2.543z" fill="#fcdd5e"></path><path d="m39.98 14.138 1.594 4.056c2.68 1.38 8.328.113 11.41-3.52a8.997 8.997 0 0 0 1.623-2.805c1.612-4.556-.515-10.881-3.42-11.76-3.495-1.052-7.776 5.814-9.27 8.76a24.336 24.336 0 0 0-1.936 5.27z" fill="#fcdd5e"></path></g></g></svg>