<svg id="fill" height="512" viewBox="0 0 340 340" width="512" xmlns="http://www.w3.org/2000/svg"><path d="m319.37 74.323a8.694 8.694 0 0 0 -7.934 8.773v59.214a13.1 13.1 0 0 1 -9.436 12.577l-3.992 1.164a29.581 29.581 0 0 0 -4.326 1.648v-80.538a8.5 8.5 0 0 0 -17 0v80.7a29.772 29.772 0 0 0 -4.676-1.807l-3.991-1.164a13.1 13.1 0 0 1 -9.435-12.578v-59.212a8.694 8.694 0 0 0 -7.934-8.773 8.5 8.5 0 0 0 -9.066 8.482v59.5a30.1 30.1 0 0 0 21.677 28.9l3.991 1.163a12.7 12.7 0 0 1 9.178 12.592c0 2.8 0 7.825.01 14.367h17.246v-14.488a12.574 12.574 0 0 1 9.084-12.471l3.992-1.165a30.1 30.1 0 0 0 21.676-28.9v-59.5a8.5 8.5 0 0 0 -9.064-8.484z" fill="#dbeefc"/><path d="m276.684 330h17v-138.959h-17.255c.024 31.459.255 138.959.255 138.959z" fill="#ea5e5e"/><path d="m293.684 240.658-17.18-6.419c.022 11.825.046 24.217.069 35.892a50.618 50.618 0 0 0 17.111 0z" fill="#c13d3d"/><g fill="#b5d7f4"><path d="m111.721 191.041s-21.658 20.259-29.661 43.198v13.079h36.013z"/><path d="m193.753 191.041a621.478 621.478 0 0 1 45.6 47.351l42.169-12.928v32.012l-33.782 17.8a18.7 18.7 0 0 1 -21.491-2.888l-38.609-36.129z"/><path d="m153.237 168.746a148.709 148.709 0 0 0 -24.82 10.165l-.241 81.46 50.781-2.443-.3-78.277a142.968 142.968 0 0 0 -25.42-10.905z"/></g><path d="m172.9 176.624a146.233 146.233 0 0 0 -19.661-7.878 151.634 151.634 0 0 0 -19.674 7.594 19.7 19.7 0 0 0 39.335.284z" fill="#90bcdd"/><path d="m174.364 177.358v60.3a9.126 9.126 0 0 1 -9.125 9.125h-33.128v-69.425c-7.1 3.6-15.458 8.22-20.39 13.683l-4.31 138.959h88.342l-2-138.959c-4.932-5.463-12.29-10.085-19.389-13.683z" fill="#538dbc"/><path d="m139.515 148.366h27.445a0 0 0 0 1 0 0v27.034a13.722 13.722 0 0 1 -13.722 13.722 13.722 13.722 0 0 1 -13.723-13.722v-27.034a0 0 0 0 1 0 0z" fill="#ffc7b3"/><path d="m151.747 257.928a28.029 28.029 0 0 0 -23.482-27.62l-.089 30.063 23.539-1.133c.02-.438.032-.872.032-1.31z" fill="#90bcdd"/><path d="m116.229 230.98a28.035 28.035 0 0 0 -4.508 1.69 27.92 27.92 0 0 0 -12.038-2.73h-.039a66.625 66.625 0 0 0 -8.678-9.951 7.649 7.649 0 0 1 -1.251-1.584 84.633 84.633 0 0 0 -7.655 15.834v13.079h36.013z" fill="#90bcdd"/><path d="m132.111 231.213a27.958 27.958 0 0 0 -20.39 1.457c-.419-.2-.845-.386-1.274-.566l-3.036 97.896h29.432a42.063 42.063 0 0 0 12.764-30.2v-31.142a27.941 27.941 0 0 0 -.182-21.876h-17.314z" fill="#37729b"/><circle cx="123.759" cy="257.928" fill="#e24d4d" r="15.988"/><path d="m107.771 257.928a15.975 15.975 0 0 0 8.675 14.206 21.926 21.926 0 0 0 0-28.413 15.977 15.977 0 0 0 -8.675 14.207z" fill="#c13636"/><path d="m259.022 252.514h1.854s.8 8.091 5.9 12.731l14.743-7.769v-32.012l-34.777 10.661v4.111a12.278 12.278 0 0 0 12.28 12.278z" fill="#90bcdd"/><path d="m108.476 262.626a15.99 15.99 0 0 0 30.566 0z" fill="#c13636"/><path d="m273.389 246.754h-11.18a8.722 8.722 0 0 1 -8.723-8.723v-7.863a8.722 8.722 0 0 1 8.723-8.723h12.9z" fill="#efac97"/><circle cx="99.683" cy="257.928" fill="#ff6e6e" r="15.988"/><path d="m83.7 257.928a15.976 15.976 0 0 0 9.2 14.462c5.542-5.565 8.484-11.829 8.735-18.675a28.727 28.727 0 0 0 -2.191-11.763 15.981 15.981 0 0 0 -15.744 15.976z" fill="#e24d4d"/><path d="m84.4 262.626a15.99 15.99 0 0 0 30.567 0z" fill="#e24d4d"/><path d="m281.007 218.5h7.493a13.883 13.883 0 0 1 13.883 13.883v16.464a13.883 13.883 0 0 1 -13.883 13.879h-7.495a13.023 13.023 0 0 1 -13.022-13.026v-18.181a13.023 13.023 0 0 1 13.024-13.019z" fill="#ffc7b3"/><path d="m48.758 234.239a38.591 38.591 0 0 1 -1.048-20.959 12.575 12.575 0 0 1 21.221-5.731 40.473 40.473 0 0 1 8.813 13.651 20.863 20.863 0 0 0 4.982 7.518c7.517 7.1 23.188 25.642 3.047 42.047h-27.473z" fill="#a0c16c"/><path d="m56.173 262.626 2.127 8.134h27.473a29.745 29.745 0 0 0 7.171-8.134z" fill="#769344"/><path d="m58.3 270.76h16.219c3.012-14.084 1.372-25.152-4.879-32.894a27.4 27.4 0 0 0 -16.36-9.456 59.789 59.789 0 0 0 -6.38-10.568 39.116 39.116 0 0 0 1.855 16.4z" fill="#769344"/><path d="m41.148 267.424s-22.575.734-21.43-20.67c0 0-16.409-20.259-2.671-32.47 0 0 18.7-13.509 32.435 19.815 0 0 26.209-.921 18.828 33.325z" fill="#a0c16c"/><path d="m25.909 262.626c6.34 5.084 15.239 4.8 15.239 4.8h27.162c.365-1.692.626-3.274.833-4.8z" fill="#769344"/><path d="m41.326 267.424h94.612a1.669 1.669 0 0 1 1.669 1.669v30.707a30.2 30.2 0 0 1 -30.2 30.2h-37.3a30.2 30.2 0 0 1 -30.2-30.2v-30.968a1.408 1.408 0 0 1 1.419-1.408z" fill="#c99"/><path d="m51.211 284.307h-.2l-.66-1.718a16.672 16.672 0 0 0 -10.435-9.822v27.033a30.191 30.191 0 0 0 27.834 30.1 22.78 22.78 0 0 0 6.328-15.767v-6.958a22.893 22.893 0 0 0 -22.867-22.868z" fill="#966363"/><path d="m166.96 171.276v-22.91h-27.445v12.624z" fill="#f29a86"/><path d="m187.676 104.97v-26.059l-34.439.85-34.438-.85v26.059s-13.554-1.511-13.554 13.859 13.555 15.031 13.555 15.031a33.04 33.04 0 0 0 31.458 22.94h5.958a33.041 33.041 0 0 0 31.46-22.942s13.554.339 13.554-15.031-13.554-13.857-13.554-13.857z" fill="#ffc7b3"/><path d="m118.799 78.911v16.848l68.877 1.735v-18.583l-34.439.85z" fill="#f29a86"/><path d="m132.111 79.761c0 .655-.168 17.3-10.1 26.449a12.743 12.743 0 0 1 -19.57-3.111 23.689 23.689 0 0 1 -2.048-18.836v-4.5z" fill="#3d4554"/><path d="m100.388 84.263a24.913 24.913 0 0 0 -.745 11.013l29.166.735a48.083 48.083 0 0 0 3.3-16.25h-31.721z" fill="#2b313f"/><path d="m174.364 79.761c0 .655.168 17.3 10.1 26.449a12.742 12.742 0 0 0 19.569-3.111 23.684 23.684 0 0 0 2.049-18.836v-4.5z" fill="#3d4554"/><path d="m206.087 79.761h-31.723a47.512 47.512 0 0 0 3.836 17.494l28.021.707a24.254 24.254 0 0 0 -.134-13.7z" fill="#2b313f"/><path d="m148.38 10h9.714a46.167 46.167 0 0 1 46.167 46.167v12.494a0 0 0 0 1 0 0h-102.048a0 0 0 0 1 0 0v-12.494a46.167 46.167 0 0 1 46.167-46.167z" fill="#f4ba89"/><path d="m204.262 56.167a46.159 46.159 0 0 0 -45.416-46.148c7.088 5 22.058 19.884 22.058 56.4q0 1.136.016 2.242h23.342z" fill="#dd9d6c"/><path d="m102.213 56.167v12.494h102.049v-12.494a46.468 46.468 0 0 0 -.626-7.556h-100.8a46.468 46.468 0 0 0 -.623 7.556z" fill="#ef6060"/><path d="m204.262 56.167a46.468 46.468 0 0 0 -.626-7.556h-24.091a111.436 111.436 0 0 1 1.355 17.808q0 1.136.016 2.242h23.342z" fill="#d33939"/><rect fill="#f4ba89" height="17.845" rx="8.922" width="157.204" x="74.635" y="66.419"/><path d="m63.4 267.424c-1.67-1.383-4.013-3.444-6.9-6.284a9.42 9.42 0 0 1 -2.793-6.29l-.458-10.432a.274.274 0 0 0 -.543-.036l-1.922 10.818c-3.534-3.862-7.548-8.594-11.91-14.306a9.453 9.453 0 0 1 -1.909-4.947l-.41-4.92a.313.313 0 0 0 -.619-.037l-.954 4.668q-2.916-4.029-5.989-8.617a.579.579 0 0 0 -1.023.533 129.154 129.154 0 0 0 11.03 20.543l-7.768-.8a.4.4 0 0 0 -.168.771l7.393 2.509a9.373 9.373 0 0 1 4.579 3.37 143.043 143.043 0 0 0 11.075 13.453z" fill="#769344"/><path d="m80.4 252.956.469-9.547a.4.4 0 0 0 -.781-.15l-2.707 7.92c-2.858-5.07-5.612-10.668-8.008-15.863a9.441 9.441 0 0 1 -.816-4.964l.789-7.346a.332.332 0 0 0 -.64-.152l-2.25 5.952c-1.376-3.157-2.538-5.943-3.405-8.068a.5.5 0 0 0 -.947.29c3.486 17.12 13.591 42.424 13.591 42.424h9.936a49.375 49.375 0 0 1 -3.581-4.687 9.471 9.471 0 0 1 -1.65-5.809z" fill="#769344"/><path d="m46.205 291.307-2.387-6.207a9.562 9.562 0 0 0 -8.925-6.13 9.562 9.562 0 0 0 -9.562 9.562v27.812a13.653 13.653 0 0 0 13.653 13.656h12.227a15.868 15.868 0 0 0 15.868-15.868v-6.958a15.867 15.867 0 0 0 -15.868-15.867z" fill="#ffc7b3"/><path d="m85.312 317.7a4 4 0 0 1 -1.626-7.656 4.235 4.235 0 0 0 2.059-2.535 4 4 0 1 1 7.817 1.7 12.148 12.148 0 0 1 -6.628 8.143 4 4 0 0 1 -1.622.348z" fill="#966363"/><path d="m100.6 317.7a4 4 0 0 1 -1.626-7.656 4.235 4.235 0 0 0 2.059-2.535 4 4 0 1 1 7.817 1.7 12.148 12.148 0 0 1 -6.628 8.143 4 4 0 0 1 -1.622.348z" fill="#966363"/><path d="m114.921 317.7a4 4 0 0 1 -1.626-7.656 4.239 4.239 0 0 0 2.06-2.535 4 4 0 1 1 7.816 1.7 12.145 12.145 0 0 1 -6.628 8.143 3.991 3.991 0 0 1 -1.622.348z" fill="#966363"/><path d="m140.619 118.25a4.023 4.023 0 0 1 -2.82-1.17 3.654 3.654 0 0 1 -.5-.61 3.828 3.828 0 0 1 -.37-.69 4.053 4.053 0 0 1 -.23-.75 4.129 4.129 0 0 1 -.08-.78 4.007 4.007 0 0 1 4.79-3.92 3.922 3.922 0 0 1 .74.22 3.782 3.782 0 0 1 .69.37 4.17 4.17 0 0 1 .61.5 3.984 3.984 0 0 1 0 5.66 3.56 3.56 0 0 1 -.61.49 3.256 3.256 0 0 1 -.69.37 3.956 3.956 0 0 1 -.74.23 4.234 4.234 0 0 1 -.79.08z" fill="#2b313f"/><path d="m165.85 118.25a4.063 4.063 0 0 1 -2.83-1.17 4.746 4.746 0 0 1 -.5-.61 4.441 4.441 0 0 1 -.361-.69 4.211 4.211 0 0 1 -.23-.75 4.128 4.128 0 0 1 -.079-.78 4.06 4.06 0 0 1 1.17-2.83 4.006 4.006 0 0 1 5.659 0 4.066 4.066 0 0 1 1.171 2.83 3.5 3.5 0 0 1 -.08.78 4.954 4.954 0 0 1 -.221.75 5.564 5.564 0 0 1 -.37.69 4.919 4.919 0 0 1 -.5.61 4.064 4.064 0 0 1 -2.829 1.17z" fill="#2b313f"/><path d="m137.607 282.227v-6.918h-55.547a3.459 3.459 0 1 0 0 6.918z" fill="#966363"/><circle cx="67.079" cy="278.768" fill="#966363" r="3.524"/><path d="m222.917 66.419h-29.585a7.023 7.023 0 0 1 3.208 6.1v6.389a8.806 8.806 0 0 1 -3.025 5.352h29.4a8.921 8.921 0 0 0 8.922-8.922 8.921 8.921 0 0 0 -8.92-8.919z" fill="#dd9d6c"/></svg>