<svg viewBox="0 0 472 472" xmlns="http://www.w3.org/2000/svg"><g><path d="M416 0c26.656.172 48.137 21.902 48 48.559 0 18.402-22.719 52.882-36.879 72.562C420.72 130.078 416 136 416 136s-5.68-7.2-13.121-17.68C388.64 98.32 368 66.16 368 48.56 367.863 21.902 389.344.172 416 0zm0 0" fill="#ffb400"></path><path d="M432 121.68c14.16 3.039 24 10.082 24 18.32 0 11.04-17.922 20-40 20s-40-8.96-40-20c0-8.238 9.84-15.281 24-18.32l2.879-3.36C410.32 128.8 416 136 416 136s4.719-5.922 11.121-14.879zm0 0" fill="#d56a00"></path><path d="M168 416v32H0v-32zm0 0" fill="#00b366"></path><path d="m144 368 24 48h-40v-48zm0 0" fill="#b0e6ff"></path><path d="M96 368h32v48H96zm0 0" fill="#3c83f7"></path><path d="M48 328h48v88H0v-88zm0 0" fill="#ffb400"></path><path d="M192 440h132c59.648 0 108-48.352 108-108s-48.352-108-108-108H140c-24.3 0-44-19.7-44-44s19.7-44 44-44h212V72H140C80.352 72 32 120.352 32 180s48.352 108 108 108h184c24.3 0 44 19.7 44 44s-19.7 44-44 44H192zm0 0" fill="#d6d1ce"></path><path d="M432 48c0 8.836-7.164 16-16 16s-16-7.164-16-16 7.164-16 16-16 16 7.164 16 16zm0 0" fill="#d56a00"></path><g fill="#666262"><path d="M192 400h16v16h-16zM324 416h-21.809v-16H324a67.525 67.525 0 0 0 8.566-.535l2 15.87A84.567 84.567 0 0 1 324 416zm-53.2 0h-31.402v-16h31.403zm96.352-11.91-8.242-13.692a67.883 67.883 0 0 0 20.496-18.933l13.035 9.277a83.8 83.8 0 0 1-25.289 23.348zm39.094-54.945-15.672-3.258a68.297 68.297 0 0 0 0-27.887l15.656-3.305a84.58 84.58 0 0 1 0 34.45zm-26.91-56.68a67.775 67.775 0 0 0-20.52-18.863l8.2-13.739a83.829 83.829 0 0 1 25.336 23.336zm-46.879-27.945A68.744 68.744 0 0 0 324 264h-21.938v-16H324c3.477 0 6.95.215 10.398.64zm-61.793-.52h-31.406v-16h31.406zm-62.809 0h-31.39v-16h31.39zm-62.792 0H140a83.504 83.504 0 0 1-28.535-4.977l5.43-15.046A67.737 67.737 0 0 0 140 248h5.063zM82.16 240.91a83.59 83.59 0 0 1-19.61-28.324l14.755-6.203a67.567 67.567 0 0 0 15.863 22.93zM72 179l-16-.23a83.373 83.373 0 0 1 7.543-33.602l14.555 6.648A67.28 67.28 0 0 0 72 179zm22.633-49.664L84 117.406a83.476 83.476 0 0 1 29.832-17.238l4.984 15.2a67.521 67.521 0 0 0-24.175 13.968zM304.289 112h-31.41V96h31.41zm-62.8 0h-31.4V96h31.4zm-62.801 0h-31.399V96h31.399zM336 96h16v16h-16zM152 452c0 11.047-8.953 20-20 20s-20-8.953-20-20 8.953-20 20-20 20 8.953 20 20zM56 452c0 11.047-8.953 20-20 20s-20-8.953-20-20 8.953-20 20-20 20 8.953 20 20zm0 0" fill="#666262"></path></g></g></svg>