<svg viewBox="0 0 58 52" xmlns="http://www.w3.org/2000/svg"><g><g fill="none" transform="translate(-1)"><path d="M59 26c0 14.36-12.98 26-29 26-10.74 0-20.11-5.23-25.12-13.01-.22-.323-.424-.657-.61-1A23.7 23.7 0 0 1 1 26C1 11.64 13.98 0 30 0s29 11.64 29 26z" fill="#fccb55"></path><circle cx="41" cy="22" fill="#ffffff" r="7"></circle><path d="M23.61 27.26a6.994 6.994 0 1 0-6.43 1.5z" fill="#ffffff"></path><path d="M29 26 3.432 31.964a3.049 3.049 0 0 0 1.216 5.976l24.174-5.449A2.85 2.85 0 0 1 32 34" fill="#fccb55"></path><path d="M36 43a1 1 0 0 1-.929-.629 7 7 0 0 0-9.1-3.9 1 1 0 0 1-.743-1.858 9.012 9.012 0 0 1 11.7 5.015A1 1 0 0 1 36 43zM30.062 43.976a1 1 0 0 1-.929-.629.3.3 0 0 0-.39-.167A1 1 0 0 1 28 41.322a2.3 2.3 0 0 1 2.99 1.278 1 1 0 0 1-.928 1.372z" fill="#ce9549"></path><g fill="#4f3e29"><path d="M41 24a1 1 0 0 1-1-1v-2a1 1 0 0 1 2 0v2a1 1 0 0 1-1 1zM47 14a.994.994 0 0 1-.589-.192 9.134 9.134 0 0 0-10.82 0 1 1 0 1 1-1.18-1.616 11 11 0 0 1 13.18 0A1 1 0 0 1 47 14zM19 24a1 1 0 0 1-1-1v-2a1 1 0 0 1 2 0v2a1 1 0 0 1-1 1zM25 14a.994.994 0 0 1-.589-.192 9.134 9.134 0 0 0-10.82 0 1 1 0 0 1-1.18-1.616 11 11 0 0 1 13.18 0A1 1 0 0 1 25 14z" fill="#4f3e29"></path></g><path d="M13.149 9a1 1 0 0 1-.587-1.811 27.622 27.622 0 0 1 11.261-4.731 1 1 0 1 1 .354 1.968A25.607 25.607 0 0 0 13.734 8.81a.994.994 0 0 1-.585.19zM9.761 11.966a1 1 0 0 1-.728-1.686l.252-.262a1 1 0 1 1 1.43 1.4l-.226.235a1 1 0 0 1-.728.313z" fill="#ffebc0"></path><path d="M59 26c0 14.36-12.98 26-29 26-10.74 0-20.12-5.23-25.12-13.01-.21-.33-.42-.66-.61-1h.03c.27.34.55.67.83 1A30.231 30.231 0 0 0 28 49c16.02 0 29-11.64 29-26a23.677 23.677 0 0 0-3.17-11.82A24.056 24.056 0 0 1 59 26z" fill="#eaae57"></path><path d="M29 26.206a1 1 0 0 1-.773.974L3.43 32.96a3.083 3.083 0 0 0-2.39 2.49 3.062 3.062 0 0 1 2.39-3.49L29 26zM31.89 33.81a2.847 2.847 0 0 0-2.07-.32L5.65 38.94a3.052 3.052 0 0 1-.52.05.22.22 0 0 1-.08.01.97.97 0 0 1-.17-.01c-.21-.33-.42-.66-.61-1h.03c.118-.007.235-.024.35-.05l24.17-5.45a2.831 2.831 0 0 1 3.07 1.32z" fill="#eaae57"></path></g></g></svg>