<svg viewBox="0 0 512 512" xmlns="http://www.w3.org/2000/svg"><g><circle cx="256" cy="256" fill="#f5f5f5" r="256"></circle><path d="M256 0c-5.19 0-10.339.173-15.453.478C374.735 8.469 481.095 119.805 481.095 256s-106.36 247.531-240.547 255.522A259.35 259.35 0 0 0 256 512c141.385 0 256-114.615 256-256S397.385 0 256 0z" fill="#e6e6e6"></path><circle cx="256" cy="256" fill="#e6e6e6" r="176.161"></circle><path d="M256 79.839c-5.208 0-10.359.24-15.453.682C330.6 88.349 401.256 163.917 401.256 256S330.6 423.651 240.547 431.479c5.093.443 10.245.682 15.453.682 97.291 0 176.161-78.87 176.161-176.161S353.291 79.839 256 79.839z" fill="#d4d4d4"></path><path d="M277.631 464.077c-20.116 20.116-52.729 20.116-72.845 0L56.183 315.473c-20.116-20.116-20.116-52.729 0-72.845s52.729-20.116 72.845 0l148.603 148.603c20.116 20.117 20.116 52.73 0 72.846z" fill="#e36334"></path><path d="M56.183 242.629a51.468 51.468 0 0 0-9.257 12.597c19.418-10.135 43.94-7.052 60.248 9.257l148.603 148.603c16.308 16.308 19.392 40.83 9.257 60.248a51.506 51.506 0 0 0 12.597-9.257c20.116-20.116 20.116-52.729 0-72.845L129.028 242.629c-20.116-20.116-52.73-20.116-72.845 0z" fill="#d45728"></path><g fill="#fde2c3"><path d="M136.839 277.712c-2.93-2.927-7.679-2.929-10.606 0l-34.967 34.965a7.5 7.5 0 0 0 10.606 10.607l34.967-34.965a7.5 7.5 0 0 0 0-10.607zM163.266 304.139a7.502 7.502 0 0 0-10.607 0l-34.965 34.967a7.5 7.5 0 0 0 0 10.606 7.501 7.501 0 0 0 10.607 0l34.965-34.967a7.501 7.501 0 0 0 0-10.606zM189.693 330.566a7.502 7.502 0 0 0-10.607 0l-34.965 34.967a7.5 7.5 0 0 0 0 10.606 7.501 7.501 0 0 0 10.607 0l34.965-34.967a7.5 7.5 0 0 0 0-10.606zM216.121 356.994a7.501 7.501 0 0 0-10.606 0l-34.967 34.965a7.5 7.5 0 0 0 10.606 10.607l34.967-34.965a7.5 7.5 0 0 0 0-10.607zM242.548 383.421a7.502 7.502 0 0 0-10.607 0l-34.965 34.967a7.5 7.5 0 0 0 0 10.606 7.501 7.501 0 0 0 10.607 0l34.965-34.967a7.5 7.5 0 0 0 0-10.606z" fill="#fde2c3"></path></g><path d="m185.553 210.214-14.825 14.825a6 6 0 0 1-8.485 0l-80.385-80.385a6 6 0 0 1 0-8.485l14.825-14.825a6 6 0 0 1 8.485 0l80.385 80.385a6 6 0 0 1 0 8.485zM238.826 170.232l-14.825 14.825a6 6 0 0 1-8.485 0l-80.385-80.385a6 6 0 0 1 0-8.485l14.825-14.825a6 6 0 0 1 8.485 0l80.385 80.385a5.998 5.998 0 0 1 0 8.485z" fill="#ffb300"></path><path d="m251.024 135.809-14.825 14.825a6 6 0 0 1-8.485 0l-80.385-80.385a6 6 0 0 1 0-8.485l14.825-14.825a6 6 0 0 1 8.485 0l80.385 80.385a6 6 0 0 1 0 8.485z" fill="#ffd54f"></path><path d="m288.64 126.804-14.825 14.825a6 6 0 0 1-8.485 0l-80.385-80.385a6 6 0 0 1 0-8.485l14.825-14.825a6 6 0 0 1 8.485 0l80.385 80.385a6 6 0 0 1 0 8.485z" fill="#ffb300"></path><path d="m198.968 176.995-14.825 14.825a6 6 0 0 1-8.485 0l-80.385-80.385a6 6 0 0 1 0-8.485l14.825-14.825a6 6 0 0 1 8.485 0l80.385 80.385a5.998 5.998 0 0 1 0 8.485z" fill="#ffd54f"></path><path d="m371.435 239.25 14.825-14.825a6 6 0 0 1 8.485 0l80.385 80.385a6 6 0 0 1 0 8.485l-14.825 14.825a6 6 0 0 1-8.485 0l-80.385-80.385a6 6 0 0 1 0-8.485zM318.162 279.232l14.825-14.825a6 6 0 0 1 8.485 0l80.385 80.385a6 6 0 0 1 0 8.485l-14.825 14.825a6 6 0 0 1-8.485 0l-80.385-80.385a6 6 0 0 1 0-8.485z" fill="#ffb300"></path><path d="m305.965 313.655 14.825-14.825a6 6 0 0 1 8.485 0l80.385 80.385a6 6 0 0 1 0 8.485l-14.825 14.825a6 6 0 0 1-8.485 0l-80.385-80.385a6 6 0 0 1 0-8.485z" fill="#ffd54f"></path><path d="m268.349 322.66 14.825-14.825a6 6 0 0 1 8.485 0l80.385 80.385a6 6 0 0 1 0 8.485l-14.825 14.825a6 6 0 0 1-8.485 0l-80.385-80.385a5.998 5.998 0 0 1 0-8.485z" fill="#ffb300"></path><path d="m358.02 272.469 14.825-14.825a6 6 0 0 1 8.485 0l80.385 80.385a6 6 0 0 1 0 8.485l-14.825 14.825a6 6 0 0 1-8.485 0l-80.385-80.385a6 6 0 0 1 0-8.485z" fill="#ffd54f"></path><circle cx="336.354" cy="188.008" fill="#fde2c3" r="121.561"></circle><path d="M336.354 66.447c-5.235 0-10.392.331-15.453.973 59.84 7.592 106.109 58.686 106.109 120.588s-46.269 112.996-106.109 120.588c5.06.642 10.218.973 15.453.973 67.137 0 121.561-54.425 121.561-121.561 0-67.137-54.424-121.561-121.561-121.561z" fill="#edc19d"></path><circle cx="336.354" cy="188.008" fill="#ffb300" r="54.6"></circle><path d="M336.354 133.408c-5.369 0-10.552.788-15.453 2.232 22.626 6.667 39.147 27.582 39.147 52.367s-16.521 45.701-39.147 52.367a54.587 54.587 0 0 0 15.453 2.232c30.155 0 54.6-24.445 54.6-54.6s-24.445-54.598-54.6-54.598z" fill="#ffa000"></path></g></svg>