<svg viewBox="0 0 512 512" xmlns="http://www.w3.org/2000/svg"><g><path d="M42.824 223.921V65.304a5.075 5.075 0 0 0-5.075-5.075H17.266a5.075 5.075 0 0 0-5.075 5.075v158.617z" fill="#ffd15b"></path><path d="M25.895 223.921V65.304a5.075 5.075 0 0 1 5.075-5.075H17.266a5.075 5.075 0 0 0-5.075 5.075v158.617z" fill="#ffc344"></path><path d="M102.388 223.921V137.92a5.075 5.075 0 0 0-5.075-5.075H76.83a5.075 5.075 0 0 0-5.075 5.075v86.001z" fill="#fd6930"></path><path d="M84.951 223.921V137.92a5.075 5.075 0 0 1 5.075-5.075H76.83a5.075 5.075 0 0 0-5.075 5.075v86.001z" fill="#fd5426"></path><path d="M418.363 223.921V137.92a5.075 5.075 0 0 0-5.075-5.075h-20.482a5.075 5.075 0 0 0-5.075 5.075v86.001z" fill="#fd6930"></path><path d="M400.926 223.921V137.92a5.075 5.075 0 0 1 5.075-5.075h-13.196a5.075 5.075 0 0 0-5.075 5.075v86.001z" fill="#fd5426"></path><path d="M477.927 223.921V83.458a5.076 5.076 0 0 0-5.075-5.076H452.37a5.075 5.075 0 0 0-5.075 5.076v140.463z" fill="#ffd15b"></path><path d="M460.998 223.921V83.458a5.076 5.076 0 0 1 5.076-5.076H452.37a5.075 5.075 0 0 0-5.075 5.076v140.463z" fill="#ffc344"></path><g fill="#0ed290"><path d="M144.514 96.538V93.28h-12.946l-71.5-71.5a7.497 7.497 0 0 0-5.303-2.197H12.191a7.5 7.5 0 0 0 0 15h39.467l71.5 71.5a7.497 7.497 0 0 0 5.303 2.197h17.855a39.263 39.263 0 0 1-1.802-11.742zM477.927 0h-30.695a7.5 7.5 0 0 0 0 15h12.589l-78.28 78.28h-58.912a52.21 52.21 0 0 1 14.709 15h47.31c1.989 0 3.897-.79 5.303-2.197l80.477-80.477v12.589a7.5 7.5 0 0 0 15 0V7.5a7.502 7.502 0 0 0-7.501-7.5z" fill="#0ed290"></path></g><path d="M407.687 265.429H387.73a7.5 7.5 0 0 1 0-15h19.957a7.5 7.5 0 0 1 0 15zM477.927 265.429h-44.812a7.5 7.5 0 0 1 0-15h44.812a7.5 7.5 0 0 1 0 15zM407.687 291.525H387.73a7.5 7.5 0 0 1 0-15h19.957a7.5 7.5 0 0 1 0 15zM477.927 291.525h-44.812a7.5 7.5 0 0 1 0-15h44.812a7.5 7.5 0 0 1 0 15zM407.687 302.621H387.73c-3.581 0-6.571 2.512-7.317 5.869a59.372 59.372 0 0 1 13.009 9.131h14.265a7.5 7.5 0 0 0 0-15zM477.927 317.621h-44.812a7.5 7.5 0 0 1 0-15h44.812a7.5 7.5 0 0 1 0 15zM477.927 343.717h-44.812a7.5 7.5 0 0 1 0-15h44.812a7.5 7.5 0 0 1 0 15zM97.312 286.294H17.266a5.075 5.075 0 0 1-5.075-5.075v-18.214a5.075 5.075 0 0 1 5.075-5.075h80.046a5.075 5.075 0 0 1 5.075 5.075v18.214a5.074 5.074 0 0 1-5.075 5.075z" fill="#fe860a"></path><path d="M36.553 281.219v-18.214a5.075 5.075 0 0 1 5.075-5.075H17.266a5.075 5.075 0 0 0-5.075 5.075v18.214a5.075 5.075 0 0 0 5.075 5.075h24.362a5.075 5.075 0 0 1-5.075-5.075z" fill="#fe7701"></path><path d="M101.003 314a5.045 5.045 0 0 0-3.69-1.61H17.266a5.075 5.075 0 0 0-5.075 5.076v18.214a5.075 5.075 0 0 0 5.075 5.075h63.985c3.916-10.702 10.847-19.958 19.752-26.755z" fill="#fd6930"></path><path d="M36.553 335.68v-18.214a5.075 5.075 0 0 1 5.075-5.075H17.266a5.075 5.075 0 0 0-5.075 5.075v18.214a5.075 5.075 0 0 0 5.075 5.075h24.362a5.075 5.075 0 0 1-5.075-5.075z" fill="#fd5426"></path><path d="M77.673 366.852H17.266a5.075 5.075 0 0 0-5.075 5.075v18.214a5.075 5.075 0 0 0 5.075 5.075h60.407z" fill="#fd6930"></path><path d="M36.553 390.141v-18.214a5.075 5.075 0 0 1 5.075-5.075H17.266a5.075 5.075 0 0 0-5.075 5.075v18.214a5.075 5.075 0 0 0 5.075 5.075h24.362a5.074 5.074 0 0 1-5.075-5.075z" fill="#fd5426"></path><g fill="#8ac9fe"><path d="M172.61 237.491h-13.121c-10.47 0-19.581-5.912-24.183-14.57H12.191a7.5 7.5 0 0 0 0 15H172.69zM477.927 222.921H354.811c-4.602 8.658-13.713 14.57-24.183 14.57h-13.121l-.08.43h160.499a7.5 7.5 0 0 0 .001-15z" fill="#8ac9fe"></path></g><path d="M291.142 112.201v25.049h6.281c11.479 0 20.818 9.339 20.818 20.818v13.058h12.387a27.21 27.21 0 0 1 15.975 5.167v-39.991c0-29.166-23.644-52.809-52.809-52.809h-12.786c6.332 7.864 10.134 17.848 10.134 28.708z" fill="#a44f3e"></path><path d="M159.489 171.126h12.387v-13.058c0-11.328 9.099-20.554 20.371-20.796v-1.023h-9.022c-9.385 0-18.113-3.645-24.901-9.593l-1.423-.397c-8.12 6.01-13.387 15.656-13.387 26.535v23.498a27.225 27.225 0 0 1 15.975-5.166z" fill="#bb5d4c"></path><path d="M245.279 65.339h-82.921c-10.407 0-18.843 8.436-18.843 18.843v12.356c0 21.932 17.779 40.712 39.711 40.712h108.916v-25.049c0-25.881-20.981-46.862-46.863-46.862z" fill="#bb5d4c"></path><path d="M183.514 96.538V84.182c0-10.407 8.436-18.843 18.843-18.843h-40c-10.407 0-18.843 8.436-18.843 18.843v12.356c0 21.932 17.779 40.712 39.711 40.712h40c-21.931 0-39.711-18.78-39.711-40.712z" fill="#a44f3e"></path><path d="M162.858 498v-1.78c0-6.564 5.34-11.905 11.905-11.905h91.231l30.705-113.657c1.673-6.192 7.321-10.516 13.734-10.516h102.99c-.472-32.804-27.196-59.256-60.112-59.256h-60.766v38.143c0 2.522-2.121 4.083-4.087 4.083-.76 0-1.483-.211-2.149-.628l-38.067-23.808c-.955-.598-2.055-.913-3.182-.913s-2.227.315-3.182.913l-38.067 23.808a4.002 4.002 0 0 1-2.15.628c-1.965 0-4.087-1.561-4.087-4.083v-38.143h-60.766c-33.211 0-60.134 26.923-60.134 60.134V498z" fill="#60b7ff"></path><path d="M239.386 447.315c3.584 0 6.5 2.916 6.5 6.5v1h24.057l-13.146-92.686-1.443-1h-20.542l-1.491 1-12.082 85.186z" fill="#444444"></path><path d="M109.156 498V361.021c0-33.211 26.923-60.135 60.135-60.135h-32.483c-33.211 0-60.134 26.923-60.134 60.135V498z" fill="#26a6fe"></path><path d="M245.886 453.815v30.5h20.108l8.239-30.5z" fill="#ffcebf"></path><path d="M162.858 497H12.191a7.5 7.5 0 0 0 0 15h150.667z" fill="#9c9c9c"></path><path d="M231.886 484.315h15v-30.5a7.5 7.5 0 0 0-7.5-7.5H139.54a3.85 3.85 0 0 1-3.846-3.846v-63.295a7.5 7.5 0 0 0-15 0v63.295c0 10.392 8.455 18.846 18.846 18.846h92.346z" fill="#26a6fe"></path><path d="M248.24 318.677c-.955-.598-2.055-.913-3.182-.913s-2.227.315-3.182.913l-24.237 15.158 15.68 28.294h23.476l15.68-28.294z" fill="#5a5a5a"></path><path d="M266.046 280.968h-41.975a51.859 51.859 0 0 1-25.831-6.868 5.8 5.8 0 0 0-1.667 4.063v60.867c0 3.987 4.386 6.417 7.767 4.303l38.067-23.808a5.003 5.003 0 0 1 5.303 0l38.067 23.808c3.38 2.114 7.767-.316 7.767-4.303v-60.867a5.802 5.802 0 0 0-1.667-4.063 51.859 51.859 0 0 1-25.831 6.868z" fill="#0593fc"></path><path d="M266.046 280.968h-41.975c-1.259 0-2.503-.061-3.74-.149v10.896c0 1.6.661 3.129 1.826 4.226l22.901 21.554 22.901-21.554a5.805 5.805 0 0 0 1.826-4.226v-10.896a52.55 52.55 0 0 1-3.739.149z" fill="#ffb09e"></path><path d="M244.694 291.715v-10.747h-20.622c-1.259 0-2.503-.061-3.74-.149v10.896c0 1.6.661 3.13 1.826 4.226l22.901 21.554 12.181-11.465-10.72-10.09a5.794 5.794 0 0 1-1.826-4.225zM171.877 228.773v-58.646H159.49c-15.669 0-28.371 12.702-28.371 28.371v11.622c0 15.669 12.702 28.371 28.371 28.371h13.308a52.233 52.233 0 0 1-.921-9.718z" fill="#f89580"></path><path d="M330.628 170.127h-12.387v58.646c0 3.322-.325 6.567-.921 9.718h13.308c15.669 0 28.371-12.702 28.371-28.371v-11.622c0-15.669-12.702-28.371-28.371-28.371z" fill="#ffb09e"></path><path d="M266.046 281.968h-41.975c-29.379 0-53.195-23.816-53.195-53.195v-70.705c0-12.05 9.768-21.818 21.818-21.818h104.728c12.05 0 21.818 9.768 21.818 21.818v70.705c.001 29.379-23.815 53.195-53.194 53.195z" fill="#ffcebf"></path><path d="M203.359 228.773v-70.705c0-12.05 9.768-21.818 21.818-21.818h-32.483c-12.05 0-21.818 9.768-21.818 21.818v70.705c0 29.379 23.816 53.195 53.195 53.195h32.483c-29.379 0-53.195-23.816-53.195-53.195z" fill="#ffb09e"></path><path d="M213.46 193.824a7.5 7.5 0 0 1-7.5-7.5v-11.769a7.5 7.5 0 0 1 15 0v11.769a7.5 7.5 0 0 1-7.5 7.5zM276.658 193.824a7.5 7.5 0 0 1-7.5-7.5v-11.769a7.5 7.5 0 0 1 15 0v11.769a7.5 7.5 0 0 1-7.5 7.5zM265.511 250.112h-40.905a7.5 7.5 0 0 1 0-15h40.905a7.5 7.5 0 0 1 0 15zM241.141 220.176a7.5 7.5 0 0 1-4.554-13.464l6.182-4.715c.083-.064.34-.259.34-.688s-.256-.624-.34-.688l-6.182-4.716a7.5 7.5 0 0 1 9.098-11.926l6.182 4.716c3.967 3.026 6.243 7.623 6.243 12.613s-2.275 9.588-6.242 12.615l-6.183 4.716a7.472 7.472 0 0 1-4.544 1.537z" fill="#ca6e59"></path><path d="M266.264 483.315h-91.502c-7.127 0-12.905 5.778-12.905 12.905V512h96.657z" fill="#cecece"></path><path d="M207.245 483.315h-32.483c-7.127 0-12.905 5.778-12.905 12.905V512h32.483v-15.78c0-7.127 5.778-12.905 12.905-12.905z" fill="#bfbfbf"></path><path d="M457.456 512H257.479l38.254-141.603a15.225 15.225 0 0 1 14.699-11.255h186.72c6.683 0 11.543 6.346 9.8 12.798l-34.797 128.804A15.225 15.225 0 0 1 457.456 512z" fill="#cecece"></path><path d="M342.915 359.142h-32.483a15.225 15.225 0 0 0-14.699 11.255L257.479 512h32.483l38.254-141.603a15.225 15.225 0 0 1 14.699-11.255z" fill="#bfbfbf"></path></g></svg>