<svg viewBox="0 0 511.99 511.99" xmlns="http://www.w3.org/2000/svg"><g><path d="M273.209 414.928v97.062H0v-97.062c0-62.551 50.704-113.256 113.256-113.256h46.697c62.551 0 113.256 50.705 113.256 113.256z" fill="#7bacdf"></path><path d="M145.283 301.676c-62.556 0-113.265 50.709-113.265 113.256v97.057H.001v-97.057c0-62.547 50.709-113.256 113.256-113.256z" fill="#5f99d7"></path><path d="m178.517 511.99-28.99-170.626h-.003L120.535 511.99" fill="#7a6d79"></path><path d="m149.546 305.464 28.772 28.772-28.772 28.772-28.772-28.772z" fill="#7a6d79"></path><path d="m170.82 287.266 7.292 5.37a30.917 30.917 0 0 1 12.128 30.177l-5.337 30.771-35.376-32.874-35.376 32.874-17.417-28.918c-8.237-13.677-4.705-31.376 8.15-40.844" fill="#5f99d7"></path><path d="M222.671 127.501v89.833c0 28.183-19.544 51.815-45.823 58.051-1.967.48-3.979.852-6.028 1.115v20.477c0 15.927-15.311 27.376-30.585 22.88l-.78-.236c-21.438-6.318-36.16-25.998-36.16-48.343V220.95h-4.823c-5.158 0-9.826-2.094-13.217-5.475a18.643 18.643 0 0 1-5.475-13.217c0-3.871 1.178-7.469 3.191-10.452 1.768-2.611-1.187-18.248 1.641-19.689 2.547-1.305 2.964.299 6.028.299h4.823l7.832-44.916h119.376z" fill="#ffdfcf"></path><path d="M189.775 222.649a7.726 7.726 0 1 1 0-15.452c.074 0 .27 0 .482-.211a.61.61 0 0 0 .168-.439.678.678 0 0 0-.266-.524c-9.303-7.28-14.646-18.24-14.646-30.06v-43.33a7.726 7.726 0 1 1 15.452 0v43.33c0 7.035 3.182 13.56 8.729 17.901a16.147 16.147 0 0 1 4.569 5.667 16.051 16.051 0 0 1 1.614 7.016c0 4.302-1.673 8.344-4.71 11.382-3.068 3.05-7.108 4.72-11.392 4.72zM176.848 275.385c-1.967.48-3.979.852-6.028 1.115a58.863 58.863 0 0 1-7.832.517c-4.632 0-9.137-.526-13.461-1.532v45.224c-3.01.326-6.155.073-9.291-.852l-.78-.236c-21.438-6.318-36.16-25.998-36.16-48.343V220.95h-4.823c-5.158 0-9.826-2.094-13.217-5.475a18.643 18.643 0 0 1-5.475-13.217c0-3.871 1.178-7.469 3.191-10.452 1.768-2.611-1.187-18.248 1.641-19.689 2.547-1.305 2.964.299 6.028.299h4.823l7.832-44.916h34.02l5.774 13.869v89.724c.001 21.149 14.296 38.962 33.758 44.292z" fill="#ffcebf"></path><path d="M267.76 108.084c0 6.182-3.019 12.219-8.521 15.854a162.654 162.654 0 0 1-119.085 24.267l-10.932-2.012-4.986 22.091c-2.021 8.938-9.962 15.283-19.118 15.283h-6.644c-6.853 0-12.854 3.698-16.099 9.21h-.009l-6.327-6.327a59.94 59.94 0 0 1-15.791-56.891c6.726-26.995 30.965-45.469 58.133-45.469 2.547 0 5.122.163 7.714.499a148.05 148.05 0 0 0 82.064-12.917l16.761-7.905a15.605 15.605 0 0 1 6.617-1.469 15.687 15.687 0 0 1 13.643 7.941c4.242 7.46 1.686 16.888-5.62 21.221a18.843 18.843 0 0 1 9.183-2.375c6.672 0 13.144 3.508 16.625 9.772a18.951 18.951 0 0 1 2.392 9.227z" fill="#7a6d79"></path><g fill="#685e68"><path d="M101.855 129.559a59.81 59.81 0 0 0-1.777 14.486 59.927 59.927 0 0 0 13.325 37.692 19.64 19.64 0 0 1-8.285 1.831h-6.645c-6.853 0-12.854 3.698-16.099 9.21h-.009l-6.327-6.327a59.94 59.94 0 0 1-15.791-56.891c6.726-26.995 30.965-45.469 58.133-45.469 2.547 0 5.122.163 7.714.499a147.168 147.168 0 0 0 19.734 1.206c-21.084 5.147-38.443 21.581-43.973 43.763zM203.944 192.301a7.726 7.726 0 0 1-7.726-7.726v-9.244a7.726 7.726 0 1 1 15.452 0v9.244a7.726 7.726 0 0 1-7.726 7.726zM160.372 192.301a7.726 7.726 0 0 1-7.726-7.726v-9.244a7.726 7.726 0 1 1 15.452 0v9.244a7.726 7.726 0 0 1-7.726 7.726z" fill="#685e68"></path></g><path d="M69.175 414.712v97.278H53.723v-97.278a7.729 7.729 0 0 1 7.726-7.726 7.722 7.722 0 0 1 7.726 7.726zM240.604 414.712v97.278h-15.452v-97.278a7.722 7.722 0 0 1 7.726-7.726 7.729 7.729 0 0 1 7.726 7.726z" fill="#5f99d7"></path><path d="M160.907 249.341h-9.71c-6.968 0-12.616-5.648-12.616-12.616v-.46c0-6.968 5.648-12.616 12.616-12.616h9.71c6.968 0 12.616 5.648 12.616 12.616v.46c0 6.968-5.648 12.616-12.616 12.616z" fill="#685e68"></path><path d="M281.787 395.277c-9.841 0-17.819 7.978-17.819 17.819v50.01h35.638v-50.01c0-9.842-7.978-17.819-17.819-17.819z" fill="#ffcebf"></path><path d="M254.026 511.99h66.469l9.942-48.884-20.015-16.444-46.454 16.444z" fill="#7bacdf"></path><path d="m316.814 451.911-31.605 11.198-9.941 48.881h-21.242l9.941-48.881 46.45-16.452z" fill="#5f99d7"></path><path d="m273.209 460.895 12 2.211h68.865c9.081 0 16.443-7.362 16.443-16.443 0-9.081-7.362-16.443-16.443-16.443h-47.375c-16.942-.001-33.49 13.733-33.49 30.675z" fill="#ffdfcf"></path><path d="M315.875 430.219c-16.936 0-30.668 13.732-30.668 30.678v2.215h-21.242v-2.215c0-16.946 13.732-30.678 30.678-30.678z" fill="#ffcebf"></path><path d="M489.766 0H314.619c-12.274 0-22.224 9.95-22.224 22.224v121.658c0 9.667 6.177 17.874 14.797 20.925 3.572 1.264 5.617 5.018 4.812 8.72l-6.074 27.94c-1.511 6.949 6.278 12.151 12.118 8.093l57.104-39.672a21.16 21.16 0 0 1 12.074-3.783h102.54c12.274 0 22.224-9.95 22.224-22.224V22.224C511.99 9.95 502.04 0 489.766 0z" fill="#bbec6c"></path><g fill="#685e68"><path d="M480.809 48.099H347.892a7.726 7.726 0 1 1 0-15.452h132.917a7.726 7.726 0 1 1 0 15.452zM480.809 75.505H347.892a7.726 7.726 0 1 1 0-15.452h132.917a7.726 7.726 0 1 1 0 15.452zM430.109 102.911h-82.217a7.726 7.726 0 1 1 0-15.452h82.217a7.726 7.726 0 1 1 0 15.452z" fill="#685e68"></path></g></g></svg>