<svg viewBox="0 0 512 512" xmlns="http://www.w3.org/2000/svg"><g><path d="M370.562 240.966H170.82v171.281c0 17.443-3.226 34.701-9.165 51.102-4.29 11.847-7.852 27.115-4.798 40.555 1.072 4.719 5.23 8.093 10.069 8.093h232.64a10.3 10.3 0 0 0 9.676-6.767l54.085-148.043c7.01-19.188 1.023-40.709-14.889-53.52z" fill="#ffcec0"></path><path d="M366.65 240.971V433.41c0 5.653-4.588 10.241-10.241 10.241H167.36c2.273-10.302 3.461-20.82 3.461-31.409V240.971z" fill="#fdb0a0"></path><path d="m318.019 443.647-27.289-31.163v-8.489a7.726 7.726 0 1 0-15.452 0v85.812c0 4.228 3.256 7.914 7.482 8.044a7.723 7.723 0 0 0 7.971-7.723V435.94l15.669 17.884a7.716 7.716 0 0 0 5.81 2.637 7.665 7.665 0 0 0 5.089-1.916 7.718 7.718 0 0 0 .72-10.898z" fill="#fdb0a0"></path><path d="M318.019 443.647h-20.542l-6.748-7.706v7.706h-15.453v-39.652c0-2.132.865-4.059 2.266-5.46a7.675 7.675 0 0 1 5.46-2.266 7.729 7.729 0 0 1 7.726 7.726v8.489z" fill="#f29e8f"></path><path d="m463.326 357.186-54.079 148.046a10.3 10.3 0 0 1-9.676 6.767h-42.014l56.561-154.814c7.005-19.192 1.014-40.708-14.891-53.52l-77.883-62.696h49.218l77.873 62.696c15.915 12.813 21.906 34.33 14.891 53.521z" fill="#fdb0a0"></path><path d="M366.654 95.24v301.091c0 5.656-4.584 10.24-10.24 10.24H56.013c-5.656 0-10.24-4.584-10.24-10.24V95.24z" fill="#f5f7f8"></path><path d="M175.033 223.167h-56.906a5.15 5.15 0 0 1-5.151-5.151v-18.135c0-11.19 9.071-20.261 20.261-20.261h26.685c11.19 0 20.261 9.071 20.261 20.261v18.135a5.15 5.15 0 0 1-5.15 5.151z" fill="#31a7fb"></path><path d="M180.18 199.884v18.128a5.15 5.15 0 0 1-5.151 5.151h-20.255v-23.28c0-11.194-9.078-20.261-20.272-20.261h25.418c11.189.001 20.26 9.072 20.26 20.262z" fill="#1c96f9"></path><circle cx="147.324" cy="158.785" fill="#ffcec0" r="23.603"></circle><path d="M170.93 158.79c0 13.035-10.576 23.6-23.611 23.6a23.442 23.442 0 0 1-13.732-4.414c10.622-2.31 18.557-11.766 18.557-23.062 0-7.912-3.888-14.91-9.868-19.186a22.94 22.94 0 0 1 5.042-.549c13.036 0 23.612 10.565 23.612 23.611z" fill="#fdb0a0"></path><path d="M175.779 354.638h-56.906a5.15 5.15 0 0 1-5.151-5.151v-18.135c0-11.19 9.071-20.261 20.261-20.261h26.685c11.19 0 20.261 9.071 20.261 20.261v18.135a5.15 5.15 0 0 1-5.15 5.151z" fill="#fb4a59"></path><path d="M180.927 331.354v18.128a5.15 5.15 0 0 1-5.151 5.151H155.52v-23.28c0-11.194-9.078-20.261-20.272-20.261h25.418c11.189.001 20.261 9.073 20.261 20.262z" fill="#f82f40"></path><circle cx="148.07" cy="290.256" fill="#ffcec0" r="23.603"></circle><path d="M171.676 290.261c0 13.035-10.576 23.6-23.611 23.6a23.442 23.442 0 0 1-13.732-4.414c10.622-2.31 18.557-11.766 18.557-23.062 0-7.912-3.888-14.91-9.868-19.186a22.94 22.94 0 0 1 5.042-.549c13.036 0 23.612 10.565 23.612 23.611z" fill="#fdb0a0"></path><path d="M366.654 95.24v301.091c0 5.645-4.595 10.24-10.24 10.24h-44.205c5.656 0 10.24-4.595 10.24-10.24V95.24z" fill="#d9e7eb"></path><path d="M294.567 228.465h-50.434c-8.721 0-15.817-7.095-15.817-15.816v-50.435c0-8.721 7.096-15.817 15.817-15.817h50.434c8.721 0 15.817 7.096 15.817 15.817v50.435c0 8.721-7.095 15.816-15.817 15.816zm-50.433-66.615a.364.364 0 0 0-.364.364v50.435c0 .2.163.363.364.363h50.434a.364.364 0 0 0 .364-.363v-50.435a.364.364 0 0 0-.364-.364z" fill="#c1d3d6"></path><path d="M271.772 200.553a7.73 7.73 0 0 1-5.464-2.263l-11.14-11.14a7.729 7.729 0 0 1 0-10.928 7.73 7.73 0 0 1 10.928 0l5.676 5.677 33.238-33.239a7.727 7.727 0 0 1 10.928 10.927l-38.702 38.703a7.73 7.73 0 0 1-5.464 2.263zM294.567 363.772h-50.434c-8.721 0-15.817-7.096-15.817-15.817v-50.434c0-8.721 7.096-15.817 15.817-15.817h50.434c8.721 0 15.817 7.096 15.817 15.817v50.434c0 8.721-7.095 15.817-15.817 15.817zm-50.433-66.615a.364.364 0 0 0-.364.364v50.434c0 .201.163.364.364.364h50.434a.364.364 0 0 0 .364-.364v-50.434a.364.364 0 0 0-.364-.364z" fill="#c1d3d6"></path><path d="M366.652 105.539V10.241C366.652 4.585 362.067 0 356.411 0H56.018c-5.656 0-10.241 4.585-10.241 10.241v95.298z" fill="#31a7fb"></path><path d="M322.45 10.241v95.298h44.2V10.241C366.65 4.588 362.062 0 356.409 0h-44.2c5.653 0 10.241 4.588 10.241 10.241z" fill="#1c96f9"></path><path d="M223.046 251.207c-28.844 0-52.226 23.382-52.226 52.226v108.814c0 17.443-3.226 34.701-9.165 51.102-4.29 11.847-7.852 27.115-4.798 40.554 1.072 4.719 5.23 8.093 10.069 8.093h108.345V303.433c.001-28.843-23.381-52.226-52.225-52.226z" fill="#ffcec0"></path><g fill="#f5f7f8"><path d="M143.162 26.026c-3.996-1.49-8.448.548-9.935 4.548l-7.141 19.197-7.141-19.197a7.726 7.726 0 0 0-14.483 5.387l14.382 38.666a7.726 7.726 0 0 0 14.482 0l14.382-38.666a7.723 7.723 0 0 0-4.546-9.935zM178.07 24.306h-5.847c-9.349 0-16.956 7.606-16.956 16.955v21.445c0 9.349 7.607 16.955 16.956 16.955h5.847c9.349 0 16.955-7.606 16.955-16.955V41.261c0-9.35-7.606-16.955-16.955-16.955zm1.502 38.399c0 .828-.674 1.502-1.502 1.502h-5.847a1.504 1.504 0 0 1-1.503-1.502V41.261c0-.828.674-1.502 1.503-1.502h5.847c.828 0 1.502.674 1.502 1.502zM273.247 39.759a7.726 7.726 0 1 0 0-15.452h-17.681c-6.227 0-11.294 5.066-11.294 11.295v32.765c0 6.228 5.066 11.295 11.294 11.295h17.681a7.726 7.726 0 1 0 0-15.452h-13.522v-4.498h8.604a7.726 7.726 0 1 0 0-15.452h-8.604v-4.498h13.522zM232.105 24.306h-24.304a7.726 7.726 0 1 0 0 15.452h4.426v32.175a7.726 7.726 0 1 0 15.452 0V39.759h4.426a7.727 7.727 0 0 0 0-15.453zM300.672 60.862a7.725 7.725 0 0 0 7.726-7.726V32.032a7.726 7.726 0 1 0-15.452 0v21.104a7.725 7.725 0 0 0 7.726 7.726zM300.724 68.345h-.106a7.725 7.725 0 0 0-7.726 7.726 7.725 7.725 0 0 0 7.726 7.726h.106a7.725 7.725 0 0 0 7.726-7.726 7.725 7.725 0 0 0-7.726-7.726z" fill="#f5f7f8"></path></g><path d="M238.506 417.537h-30.92a7.725 7.725 0 0 1-7.726-7.726 7.725 7.725 0 0 1 7.726-7.726h30.92c4.268 0 7.726 3.459 7.726 7.726s-3.458 7.726-7.726 7.726zM238.506 393.041h-30.92a7.726 7.726 0 1 1 0-15.452h30.92c4.268 0 7.726 3.459 7.726 7.726s-3.458 7.726-7.726 7.726z" fill="#fdb0a0"></path><path d="M244.289 314.396h-42.485a8.873 8.873 0 0 1-8.873-8.873v-22.328c0-16.632 13.483-30.115 30.115-30.115 16.632 0 30.115 13.483 30.115 30.115v22.328a8.872 8.872 0 0 1-8.872 8.873z" fill="#ffeee7"></path><path d="M253.16 283.195v22.325c0 4.905-3.974 8.879-8.869 8.879h-24.998a8.877 8.877 0 0 0 8.879-8.879v-22.325a29.977 29.977 0 0 0-8.828-21.291 30.247 30.247 0 0 0-8.787-6.114 29.825 29.825 0 0 1 12.494-2.714 29.977 29.977 0 0 1 21.291 8.828c5.448 5.448 8.818 12.975 8.818 21.291z" fill="#ffdfd0"></path></g></svg>