<svg viewBox="0 0 512 512" xmlns="http://www.w3.org/2000/svg"><g><path d="M216.188 82.318h48.768v37.149h-48.768z" fill="#ffcbbe"></path><path d="M250.992 82.318h13.964v37.149h-13.964z" fill="#fdad9d"></path><ellipse cx="240.572" cy="47.717" fill="#ffcbbe" rx="41.682" ry="49.166" transform="rotate(-27.13 240.757 47.7)"></ellipse><path d="M277.661 28.697C266.833 7.582 245.115-3.534 226.139 1.008c10.933 4.421 20.864 13.29 27.138 25.524 12.39 24.162 5.829 52.265-14.654 62.769a35.734 35.734 0 0 1-8.003 2.96c10.661 4.31 22.274 4.391 32.387-.795 20.483-10.504 27.044-38.607 14.654-62.769z" fill="#fdad9d"></path><path d="M296.072 296.122H185.071V151.948c0-22.184 17.984-40.168 40.168-40.168h30.666c22.184 0 40.168 17.984 40.168 40.168v144.174z" fill="#95d6a4"></path><path d="M256.097 111.78h-24.384c22.077 0 39.975 17.897 39.975 39.975v144.367h24.384V151.755c0-22.077-17.897-39.975-39.975-39.975z" fill="#78c2a4"></path><path d="M225.476 41.375c0-8.811 7.143-15.954 15.954-15.954h34.401C262.795 3.562 237.668-6.048 218.137 3.968c-19.846 10.177-26.623 36.875-15.756 60.503 12.755-.001 23.095-10.341 23.095-23.096z" fill="#756e78"></path><path d="M252.677 25.421h23.155c-11.31-18.964-31.718-28.699-49.679-24.408 10.591 4.287 20.23 12.757 26.524 24.408z" fill="#665e66"></path><path d="m444.759 453.15-28.194-9.144a7.374 7.374 0 0 1-5.099-7.014v-4.69l-2.986-8.22h-61.669l-2.986 8.22v34.22c0 8.628 6.994 15.622 15.622 15.622h81.993c5.94 0 10.755-4.815 10.755-10.755v-8.008a10.753 10.753 0 0 0-7.436-10.231z" fill="#aa7a63"></path><path d="m444.759 453.15-28.194-9.144a7.374 7.374 0 0 1-5.099-7.014v-4.69l-2.986-8.22h-25.91v12.911a7.374 7.374 0 0 0 5.099 7.014l28.194 9.144a10.755 10.755 0 0 1 7.437 10.23v8.008c0 5.94-4.815 10.755-10.755 10.755h28.896c5.94 0 10.755-4.815 10.755-10.755v-8.008c0-4.662-3.003-8.793-7.437-10.231z" fill="#986b54"></path><path d="M343.827 344.798v87.505h67.64V309.25c0-20.65-16.74-37.39-37.39-37.39H185.071v33.212c0 19.014 15.414 34.428 34.428 34.428h119.03a5.298 5.298 0 0 1 5.298 5.298z" fill="#5766cb"></path><path d="M382.571 309.25v123.052h28.896V309.25c0-20.65-16.74-37.39-37.39-37.39h-28.896c20.65 0 37.39 16.74 37.39 37.39z" fill="#3d4fc3"></path><path d="M437.268 512H328.72c-8.244 0-14.928-6.684-14.928-14.928V389.851c0-11.247-9.15-20.399-20.398-20.399H169.851c-8.244 0-14.928-6.684-14.928-14.928v-150.17h-22.748c-8.244 0-14.928-6.684-14.928-14.928s6.684-14.928 14.928-14.928h37.676c8.244 0 14.928 6.684 14.928 14.928v150.17h108.616c27.71 0 50.254 22.545 50.254 50.255v92.293h93.619c8.244 0 14.928 6.684 14.928 14.928S445.512 512 437.268 512z" fill="#756e78"></path><path d="M437.268 482.144h-15.115c8.244 0 14.928 6.684 14.928 14.928S430.398 512 422.153 512h15.115c8.244 0 14.928-6.684 14.928-14.928s-6.684-14.928-14.928-14.928zM328.534 389.851v83.296a8.997 8.997 0 0 0 8.997 8.997h6.118v-92.293c0-27.755-22.5-50.255-50.255-50.255H278.28c27.71 0 50.254 22.545 50.254 50.255zM169.664 189.426v150.17h15.115v-150.17c0-8.244-6.684-14.928-14.928-14.928h-15.115c8.245 0 14.928 6.684 14.928 14.928z" fill="#665e66"></path><path d="M171.702 511.498c-61.701 0-111.898-50.197-111.898-111.898s50.197-111.898 111.898-111.898S283.6 337.899 283.6 399.6s-50.197 111.898-111.898 111.898zm0-193.94c-45.238 0-82.042 36.804-82.042 82.042s36.804 82.042 82.042 82.042 82.042-36.804 82.042-82.042-36.804-82.042-82.042-82.042z" fill="#756e78"></path><path d="M243.485 313.833c16.3 19.444 26.131 44.485 26.131 71.783 0 61.701-50.197 111.898-111.898 111.898-27.298 0-52.339-9.831-71.783-26.131 20.543 24.504 51.364 40.115 85.767 40.115 61.701 0 111.898-50.197 111.898-111.898 0-34.403-15.61-65.225-40.115-85.767z" fill="#665e66"></path><path d="m384.583 259.81 13.927 12.767a44.708 44.708 0 0 1 14.353 29.366l.509 6.316c.283 3.513-3.591 5.82-6.545 3.898l-45.845-29.834z" fill="#ffcbbe"></path><path d="m413.372 308.259-.509-6.316a44.708 44.708 0 0 0-14.353-29.366l-13.927-12.767-7.744 7.387 5.869 5.38a44.708 44.708 0 0 1 14.353 29.366l.328 4.072 9.438 6.142c2.954 1.921 6.828-.386 6.545-3.898z" fill="#fdad9d"></path><path d="M366.869 290.965c-1.448 1.448-3.783 1.589-5.341.26-8.038-6.857-18.146-10.594-28.827-10.594h-69.416c-31.072 0-56.26-25.188-56.26-56.26v-63.312c0-12.367 10.025-22.392 22.392-22.392 12.367 0 22.392 10.025 22.392 22.392v63.312c0 6.338 5.138 11.476 11.476 11.476H332.7c22.462 0 43.657 8.238 60.136 23.284 1.672 1.526 1.716 4.151.115 5.752z" fill="#95d6a4"></path><path d="M392.836 259.13c-16.479-15.047-37.674-23.284-60.136-23.284h-69.416c-6.338 0-11.476-5.138-11.476-11.476v-63.312c0-12.367-10.025-22.392-22.392-22.392-3.429 0-6.676.773-9.581 2.151 5.315 4.094 8.743 10.518 8.743 17.746v74.508c0 6.338 5.138 11.476 11.476 11.476h69.416c22.462 0 43.657 8.238 60.136 23.284 1.672 1.526 1.716 4.151.115 5.752l-13.663 13.663a44.559 44.559 0 0 1 5.469 3.979c1.558 1.329 3.893 1.188 5.341-.26l26.082-26.082c1.602-1.602 1.558-4.226-.114-5.753z" fill="#78c2a4"></path></g></svg>