<svg viewBox="0 0 512 512.001" xmlns="http://www.w3.org/2000/svg"><g><path d="m331.098 491.898-60-167c-2.098-6-9.098-9-15.098-9s-12 3-14.098 9l-61 167c-1.804 4.5-.902 9.602 1.797 13.801C185.4 509.602 190.2 512 195 512h122c4.797 0 9.602-2.398 12.297-6.3 2.703-4.2 3.605-9.302 1.8-13.802zm0 0" fill="#ffe477"></path><path d="M329.297 505.7c-2.695 3.898-7.5 6.3-12.297 6.3h-61V315.898c6 0 13 3 15.098 9l60 167c1.804 4.5.902 9.602-1.801 13.801zm0 0" fill="#ffb655"></path><path d="M422 195v90c0 6.598-4.5 12.598-10.8 14.398l-155.2 46.2-146.8 43.8c-4.2 1.2-9.302.602-13.2-2.398-3.898-2.7-6-7.2-6-12v-90c0-8.402 6.598-15 15-15s15 6.598 15 15v69.898l272-81V195c0-8.402 6.598-15 15-15s15 6.598 15 15zm0 0" fill="#ffb655"></path><path d="M422 195v90c0 6.598-4.5 12.598-10.8 14.398l-155.2 46.2v-31.2l136-40.5V195c0-8.402 6.598-15 15-15s15 6.598 15 15zm0 0" fill="#ff9100"></path><path d="M452 45c0-24.813-20.188-45-45-45h-30c-8.293 0-15 6.71-15 15v120c0 8.29 6.707 15 15 15h30c24.813 0 45-20.188 45-45 0-11.566-4.508-22.02-11.703-30C447.492 67.02 452 56.566 452 45zm-60-15h15c8.277 0 15 6.723 15 15s-6.723 15-15 15h-15zm15 90h-15V90h15c8.277 0 15 6.723 15 15s-6.723 15-15 15zm0 0" fill="#00ceee"></path><path d="M467 210H347a14.99 14.99 0 0 1-10.605-4.395l-30-30c-5.86-5.859-5.86-15.351 0-21.21s15.351-5.86 21.21 0L353.211 180h107.578l25.606-25.605c5.859-5.86 15.351-5.86 21.21 0s5.86 15.351 0 21.21l-30 30A14.99 14.99 0 0 1 467 210zm0 0" fill="#ff9100"></path><path d="M165 300H45a14.99 14.99 0 0 1-10.605-4.395l-30-30c-5.86-5.859-5.86-15.351 0-21.21s15.351-5.86 21.21 0L51.211 270h107.578l25.606-25.605c5.859-5.86 15.351-5.86 21.21 0s5.86 15.351 0 21.21l-30 30A14.99 14.99 0 0 1 165 300zm0 0" fill="#ffb655"></path><path d="m164.043 219.734-45-120C116.852 93.88 111.253 90 105 90s-11.852 3.879-14.047 9.734l-45 120c-2.906 7.754 1.024 16.403 8.781 19.313 7.758 2.906 16.403-1.024 19.309-8.781L83.895 204h42.21l9.848 26.266c2.258 6.023 7.977 9.738 14.047 9.738 1.75 0 3.531-.309 5.266-.957 7.757-2.91 11.687-11.559 8.777-19.313zM95.145 174 105 147.719 114.855 174zm0 0" fill="#ff728b"></path></g></svg>