<svg viewBox="0 0 512 512" xmlns="http://www.w3.org/2000/svg"><g><g fill="#fbb540"><path d="m261.908 84.292 10.356 31.873h33.512a6.212 6.212 0 0 1 3.652 11.237l-27.113 19.7 10.356 31.873a6.211 6.211 0 0 1-9.559 6.944L256 166.219l-27.112 19.7a6.211 6.211 0 0 1-9.559-6.944l10.356-31.875-27.113-19.7a6.212 6.212 0 0 1 3.652-11.237h33.512l10.356-31.873a6.212 6.212 0 0 1 11.816.002zM137.042 142.532l8.2 25.249h26.548a4.921 4.921 0 0 1 2.893 8.9l-21.478 15.6 8.2 25.249a4.921 4.921 0 0 1-7.573 5.5l-21.478-15.605-21.478 15.605a4.921 4.921 0 0 1-7.572-5.5l8.2-25.249-21.478-15.6a4.921 4.921 0 0 1 2.892-8.9h26.548l8.2-25.249a4.921 4.921 0 0 1 9.376 0zM72.318 246.532l8.2 25.249h26.552a4.921 4.921 0 0 1 2.892 8.9l-21.478 15.6 8.2 25.249a4.921 4.921 0 0 1-7.572 5.5l-21.474-15.597-21.478 15.605a4.921 4.921 0 0 1-7.573-5.5l8.2-25.249-21.478-15.6a4.921 4.921 0 0 1 2.893-8.9h26.552l8.2-25.249a4.921 4.921 0 0 1 9.364-.008zM448.318 246.532l8.2 25.249h26.552a4.921 4.921 0 0 1 2.892 8.9l-21.478 15.6 8.2 25.249a4.921 4.921 0 0 1-7.572 5.5l-21.478-15.605-21.474 15.613a4.921 4.921 0 0 1-7.573-5.5l8.2-25.249-21.478-15.6a4.921 4.921 0 0 1 2.893-8.9h26.548l8.2-25.249a4.921 4.921 0 0 1 9.368-.008zM384.318 142.532l8.2 25.249h26.552a4.921 4.921 0 0 1 2.892 8.9l-21.478 15.6 8.2 25.249a4.921 4.921 0 0 1-7.572 5.5l-21.478-15.605-21.474 15.613a4.921 4.921 0 0 1-7.573-5.5l8.2-25.249-21.478-15.6a4.921 4.921 0 0 1 2.893-8.9h26.548l8.2-25.249a4.921 4.921 0 0 1 9.368-.008z" fill="#fbb540"></path></g><path d="M144 312.695h64v112h-64z" fill="#0296e5"></path><path d="M352 312.7h-64v-48a24 24 0 0 0-24-24h-16l-2.94 20.583A68.282 68.282 0 0 1 208 312.7v112l7.252 4.835a66.476 66.476 0 0 0 36.876 11.165H344a16 16 0 0 0 16-16 16 16 0 0 0-16-16 16 16 0 0 0 16-16 16 16 0 0 0-16-16 16 16 0 0 0 16-16 16 16 0 0 0-16-16h8a16 16 0 0 0 16-16 16 16 0 0 0-16-16z" fill="#fdc9a6"></path></g></svg>