<svg viewBox="0 0 130 130" xmlns="http://www.w3.org/2000/svg"><g><path d="M129 89.554v4.684l-53.517 31.1v-4.684z" fill="#4c525d"></path><path d="M75.483 120.654v4.684L1 82.335V77.65z" fill="#555b66"></path><path d="m129 89.554-53.517 31.1L1 77.651l53.52-31.1z" fill="#5f656f"></path><path d="m70.229 17.416-.032 35.618-2.18 1.267.032-35.619z" fill="#b7805a"></path><path d="m44.237 18.663-.031 25.861-2.16-1.247.03-25.861z" fill="#c68b63"></path><path d="m53.802 24.186-.031 25.861-9.566-5.523.032-25.861z" fill="#c68b63"></path><path d="m68.049 18.682-.031 25.862-9.504 5.522.032-25.861z" fill="#b7805a"></path><path d="m56.199 25.569-.032 35.619-2.396-1.384.031-35.618z" fill="#c68b63"></path><path d="m58.546 24.205-.032 35.619-2.347 1.364.031-35.619z" fill="#b7805a"></path><path d="m70.229 17.416-2.18 1.266-9.503 5.523-2.348 1.364-2.396-1.383-9.565-5.523-2.16-1.247 14.03-8.154z" fill="#d49b6e"></path><path d="m124.918 66.32-.031 20.814-9.504 5.523.032-20.815z" fill="#b7805a"></path><path d="m115.415 71.842-.032 20.815-56.869-32.833.032-20.815z" fill="#c68b63"></path><path d="m53.802 38.99-.031 20.814L14.648 82.54l.03-20.815z" fill="#b7805a"></path><path d="m14.679 61.725-.031 20.815-9.566-5.522.032-20.815z" fill="#c68b63"></path><path d="m68.049 33.486 56.869 32.833-9.504 5.523-56.868-32.833z" fill="#d49b6e"></path><path d="m62.307 40.025 53.11 30.66 5.74-3.33-53.11-30.66z" fill="#f7e4ba"></path><path d="m5.114 56.203 39.123-22.737 9.565 5.523L14.68 61.725z" fill="#d49b6e"></path><path d="m60.537 39.005 1.77 1.02 5.74-3.33v-2.05z" fill="#b7805a"></path><path d="M68.047 34.645v2.05l53.11 30.66 1.77-1.03z" fill="#c68b63"></path><path d="M50.049 40.024 14.873 60.33 9.133 57 44.31 36.694z" fill="#f7e4ba"></path><path d="m51.819 39.004-1.77 1.02-5.74-3.33v-2.05z" fill="#b7805a"></path><path d="M44.309 34.644v2.05L9.133 57l-1.77-1.03z" fill="#c68b63"></path><path d="m72.046 18.436-.021 1.943-15.783 9.172.02-1.943z" fill="#9e6a4d"></path><path d="m56.263 27.608-.021 1.943-15.89-9.174.02-1.943z" fill="#b7805a"></path><path d="m72.046 18.436-15.783 9.172-15.89-9.174 15.782-9.172z" fill="#d49b6e"></path><path d="M56.194 4.663 69.776 18.49 56.2 26.38l-.005-13.826z" fill="#e25656"></path><path d="m56.194 12.554.005 13.827-13.67-7.893L56.194 4.661z" fill="#f06260"></path><path d="m6.59 62.664 2.003 1.115v-4.163L6.59 58.5z" fill="#5f6269"></path><path d="m6.59 62.664 2.003 1.115v-4.163L6.59 58.5z" fill="#78c2ff"></path><path d="M6.8 62.562v-3.948l-.21-.113v4.163z" fill="#c1c1c1"></path><path d="M8.593 63.537 6.8 62.562l-.21.102 2.003 1.115z" fill="#ffffff"></path><path d="M6.288 57.95v4.86l2.607 1.52v-4.86zm.302 1.721.986.558v.868l-.986-.556zm1.105.626.898.508v.865l-.898-.506zm.898.37-.898-.508v-1.043l.898.5zM7.576 59.05v1.042l-.986-.558V58.5zm-.986 1.628.986.556v1.979l-.986-.549zm1.105 2.6v-1.976l.898.506v1.97z" fill="#4c525d"></path><path d="m10.842 65.136 2.003 1.114v-4.162l-2.003-1.116z" fill="#5f6269"></path><path d="m10.842 65.136 2.003 1.114v-4.162l-2.003-1.116z" fill="#78c2ff"></path><path d="M11.052 65.034v-3.948l-.21-.114v4.164z" fill="#c1c1c1"></path><path d="m12.845 66.008-1.793-.974-.21.102 2.003 1.114z" fill="#ffffff"></path><path d="M10.54 60.422v4.86l2.607 1.52v-4.86zm.302 1.721.986.558v.868l-.986-.556zm1.105.625.898.509v.865l-.898-.506zm.898.371-.898-.508v-1.043l.898.5zm-1.017-1.618v1.042l-.986-.557v-1.034zm-.986 1.63.986.555v1.978l-.986-.548zm1.105 2.6v-1.978l.898.506v1.971z" fill="#4c525d"></path><path d="m6.59 69.748 2.003 1.115V66.7L6.59 65.585z" fill="#5f6269"></path><path d="m6.59 69.748 2.003 1.115V66.7L6.59 65.585z" fill="#78c2ff"></path><path d="M6.8 69.646v-3.948l-.21-.113v4.163z" fill="#c1c1c1"></path><path d="M8.593 70.62 6.8 69.647l-.21.102 2.003 1.115z" fill="#ffffff"></path><path d="M6.288 65.034v4.86l2.607 1.52v-4.86zm.302 1.721.986.558v.868l-.986-.556zm1.105.626.898.508v.866l-.898-.507zm.898.37-.898-.508V66.2l.898.5zm-1.017-1.617v1.042l-.986-.558v-1.033zm-.986 1.629.986.555v1.979l-.986-.549zm1.105 2.6v-1.977l.898.506v1.97z" fill="#4c525d"></path><path d="m10.842 72.22 2.003 1.115v-4.163l-2.003-1.115z" fill="#5f6269"></path><path d="m10.842 72.22 2.003 1.115v-4.163l-2.003-1.115z" fill="#78c2ff"></path><path d="M11.052 72.118V68.17l-.21-.113v4.163z" fill="#c1c1c1"></path><path d="m12.845 73.093-1.793-.975-.21.102 2.003 1.115z" fill="#ffffff"></path><path d="M10.54 67.506v4.86l2.607 1.52v-4.86zm.302 1.721.986.558v.868l-.986-.556zm1.105.625.898.509v.865l-.898-.506zm.898.371-.898-.508v-1.043l.898.5zm-1.017-1.618v1.043l-.986-.558v-1.034zm-.986 1.63.986.555v1.979l-.986-.55zm1.105 2.6v-1.977l.898.506v1.97z" fill="#4c525d"></path><path d="m6.59 76.832 2.003 1.115v-4.163L6.59 72.67z" fill="#5f6269"></path><path d="m6.59 76.832 2.003 1.115v-4.163L6.59 72.67z" fill="#78c2ff"></path><path d="M6.8 76.73v-3.948l-.21-.113v4.163z" fill="#c1c1c1"></path><path d="M8.593 77.705 6.8 76.731l-.21.101 2.003 1.115z" fill="#ffffff"></path><path d="M6.288 72.118v4.86l2.607 1.52v-4.86zm.302 1.722.986.558v.867l-.986-.556zm1.105.625.898.508v.866l-.898-.507zm.898.37-.898-.507v-1.044l.898.5zm-1.017-1.617v1.042l-.986-.558V72.67zm-.986 1.629.986.556v1.978l-.986-.549zm1.105 2.6V75.47l.898.506v1.971z" fill="#4c525d"></path><path d="m10.842 79.304 2.003 1.115v-4.163l-2.003-1.115z" fill="#5f6269"></path><path d="m10.842 79.304 2.003 1.115v-4.163l-2.003-1.115z" fill="#78c2ff"></path><path d="M11.052 79.202v-3.948l-.21-.113v4.163z" fill="#c1c1c1"></path><path d="m12.845 80.177-1.793-.975-.21.102 2.003 1.115z" fill="#ffffff"></path><path d="M10.54 74.59v4.86l2.607 1.52v-4.86zm.302 1.721.986.558v.868l-.986-.556zm1.105.626.898.508v.865l-.898-.506zm.898.37-.898-.508v-1.043l.898.5zm-1.017-1.617v1.042l-.986-.558v-1.033zm-.986 1.628.986.556v1.979l-.986-.549zm1.105 2.6v-1.976l.898.506v1.97z" fill="#4c525d"></path><path d="m123.462 72.83-2.003 1.115v-4.163l2.003-1.115z" fill="#5f6269"></path><path d="m123.462 72.83-2.003 1.115v-4.163l2.003-1.115z" fill="#78c2ff"></path><path d="M123.252 72.728V68.78l.21-.113v4.163z" fill="#c1c1c1"></path><path d="m121.459 73.703 1.793-.975.21.102-2.003 1.115z" fill="#ffffff"></path><path d="M121.157 69.636v4.86l2.607-1.52v-4.86zm2.305 1.071-.986.556v-.868l.986-.558zm-1.105.623-.898.506v-.865l.898-.508zm-.898-1.548.898-.5v1.043l-.898.508zm2.003-1.115V69.7l-.986.558v-1.042zm0 4.163-.986.549V71.4l.986-.556zm-2.003 1.115v-1.971l.898-.506v1.977z" fill="#4c525d"></path><path d="m119.21 75.302-2.003 1.114v-4.162l2.003-1.116z" fill="#5f6269"></path><path d="m119.21 75.302-2.003 1.114v-4.162l2.003-1.116z" fill="#78c2ff"></path><path d="M119 75.2v-3.948l.21-.114v4.164z" fill="#c1c1c1"></path><path d="M117.207 76.174 119 75.2l.21.102-2.003 1.114z" fill="#ffffff"></path><path d="M116.905 72.107v4.86l2.607-1.519v-4.86zm2.305 1.072-.986.556v-.868l.986-.558zm-1.105.623-.898.506v-.865l.898-.509zm-.898-1.548.898-.5v1.043l-.898.508zm2.003-1.116v1.034l-.986.558v-1.043zm0 4.164-.986.548v-1.978l.986-.556zm-2.003 1.114v-1.97l.898-.507v1.977z" fill="#4c525d"></path><path d="m123.462 79.914-2.003 1.115v-4.163l2.003-1.115z" fill="#5f6269"></path><path d="m123.462 79.914-2.003 1.115v-4.163l2.003-1.115z" fill="#78c2ff"></path><path d="M123.252 79.813v-3.949l.21-.113v4.163z" fill="#c1c1c1"></path><path d="m121.459 80.787 1.793-.975.21.102-2.003 1.115z" fill="#ffffff"></path><path d="M121.157 76.72v4.86l2.607-1.52V75.2zm2.305 1.071-.986.556v-.868l.986-.558zm-1.105.623-.898.507v-.866l.898-.508zm-.898-1.548.898-.5v1.043l-.898.508zm2.003-1.115v1.033l-.986.558V76.3zm0 4.163-.986.549v-1.979l.986-.555zm-2.003 1.115v-1.971l.898-.506v1.977z" fill="#4c525d"></path><path d="m119.21 82.386-2.003 1.115v-4.163l2.003-1.115z" fill="#5f6269"></path><path d="m119.21 82.386-2.003 1.115v-4.163l2.003-1.115z" fill="#78c2ff"></path><path d="M119 82.284v-3.948l.21-.113v4.163z" fill="#c1c1c1"></path><path d="m117.207 83.259 1.793-.975.21.102-2.003 1.115z" fill="#ffffff"></path><path d="M116.905 79.192v4.86l2.607-1.52v-4.86zm2.305 1.071-.986.556v-.868l.986-.558zm-1.105.623-.898.506v-.865l.898-.508zm-.898-1.548.898-.5v1.043l-.898.508zm2.003-1.115v1.033l-.986.558v-1.042zm0 4.163-.986.549v-1.979l.986-.556zm-2.003 1.115V81.53l.898-.506V83z" fill="#4c525d"></path><path d="m123.462 86.998-2.003 1.115V83.95l2.003-1.115z" fill="#5f6269"></path><path d="m123.462 86.998-2.003 1.115V83.95l2.003-1.115z" fill="#78c2ff"></path><path d="M123.252 86.897v-3.949l.21-.113v4.163z" fill="#c1c1c1"></path><path d="m121.459 87.871 1.793-.974.21.101-2.003 1.115z" fill="#ffffff"></path><path d="M121.157 83.804v4.86l2.607-1.52v-4.86zm2.305 1.071-.986.556v-.868l.986-.557zm-1.105.623-.898.507v-.865l.898-.509zm-.898-1.548.898-.5v1.044l-.898.508zm2.003-1.115v1.033l-.986.558v-1.042zm0 4.163-.986.55v-1.98l.986-.555zm-2.003 1.115v-1.97l.898-.507v1.977z" fill="#4c525d"></path><path d="m119.21 89.47-2.003 1.115v-4.163l2.003-1.115z" fill="#5f6269"></path><path d="m119.21 89.47-2.003 1.115v-4.163l2.003-1.115z" fill="#78c2ff"></path><path d="M119 89.368V85.42l.21-.113v4.163z" fill="#c1c1c1"></path><path d="m117.207 90.343 1.793-.975.21.102-2.003 1.115z" fill="#ffffff"></path><path d="M116.905 86.276v4.86l2.607-1.52v-4.86zm2.305 1.071-.986.556v-.868l.986-.558zm-1.105.623-.898.506v-.865l.898-.508zm-.898-1.548.898-.5v1.043l-.898.508zm2.003-1.115v1.033l-.986.558v-1.042zm0 4.163-.986.549V88.04l.986-.556zm-2.003 1.115v-1.971l.898-.506v1.977z" fill="#4c525d"></path><path d="m19.26 64.596-2.003 1.114v-4.162l2.003-1.116z" fill="#5f6269"></path><path d="m19.26 64.596-2.003 1.114v-4.162l2.003-1.116z" fill="#78c2ff"></path><path d="M19.05 64.494v-3.948l.21-.114v4.164z" fill="#c1c1c1"></path><path d="m17.257 65.468 1.793-.974.21.102-2.003 1.114z" fill="#ffffff"></path><path d="M16.955 61.401v4.86l2.607-1.52v-4.86zm2.305 1.072-.986.556v-.868l.986-.558zm-1.105.623-.898.506v-.865l.898-.509zm-.898-1.548.898-.5v1.043l-.898.508zm2.003-1.116v1.034l-.986.558V60.98zm0 4.164-.986.548v-1.978l.986-.556zm-2.003 1.114v-1.97l.898-.507v1.977z" fill="#4c525d"></path><path d="m19.26 71.359-2.003 1.115V68.31l2.003-1.115z" fill="#5f6269"></path><path d="m19.26 71.359-2.003 1.115V68.31l2.003-1.115z" fill="#78c2ff"></path><path d="M19.05 71.257V67.31l.21-.113v4.163z" fill="#c1c1c1"></path><path d="m17.257 72.232 1.793-.975.21.102-2.003 1.115z" fill="#ffffff"></path><path d="M16.955 68.165v4.86l2.607-1.52v-4.86zm2.305 1.071-.986.556v-.868l.986-.558zm-1.105.623-.898.506V69.5l.898-.508zm-.898-1.548.898-.5v1.043l-.898.508zm2.003-1.115v1.033l-.986.558v-1.042zm0 4.163-.986.549v-1.979l.986-.556zm-2.003 1.115v-1.971l.898-.506v1.977z" fill="#4c525d"></path><path d="m19.26 78.122-2.003 1.115v-4.163l2.003-1.115z" fill="#5f6269"></path><path d="m19.26 78.122-2.003 1.115v-4.163l2.003-1.115z" fill="#78c2ff"></path><path d="M19.05 78.02v-3.948l.21-.113v4.163z" fill="#c1c1c1"></path><path d="m17.257 78.995 1.793-.974.21.101-2.003 1.115z" fill="#ffffff"></path><path d="M16.955 74.928v4.86l2.607-1.52v-4.86zm2.305 1.071-.986.556v-.868l.986-.557zm-1.105.623-.898.507v-.865l.898-.509zm-.898-1.548.898-.5v1.044l-.898.508zm2.003-1.115v1.033l-.986.558v-1.042zm0 4.163-.986.55v-1.98l.986-.555zm-2.003 1.115v-1.97l.898-.507v1.977z" fill="#4c525d"></path><path d="m25.647 60.943-2.004 1.115v-4.163l2.003-1.115z" fill="#5f6269"></path><path d="m25.647 60.943-2.004 1.115v-4.163l2.003-1.115z" fill="#78c2ff"></path><path d="M25.437 60.842v-3.949l.21-.113v4.163z" fill="#c1c1c1"></path><path d="m23.643 61.816 1.794-.974.21.101-2.004 1.115z" fill="#ffffff"></path><path d="M23.341 57.749v4.86l2.608-1.52v-4.86zm2.305 1.071-.985.556v-.867l.985-.558zm-1.105.623-.898.507v-.866l.898-.508zm-.898-1.548.898-.5v1.043l-.898.509zm2.003-1.115v1.033l-.985.558V57.33zm0 4.163-.985.549v-1.978l.985-.556zm-2.003 1.115v-1.971l.898-.506v1.977z" fill="#4c525d"></path><path d="m25.647 67.707-2.004 1.114V64.66l2.003-1.116z" fill="#5f6269"></path><path d="m25.647 67.707-2.004 1.114V64.66l2.003-1.116z" fill="#78c2ff"></path><path d="M25.437 67.605v-3.949l.21-.113v4.164z" fill="#c1c1c1"></path><path d="m23.643 68.58 1.794-.975.21.102-2.004 1.114z" fill="#ffffff"></path><path d="M23.341 64.512v4.86l2.608-1.519v-4.86zm2.305 1.072-.985.556v-.868l.985-.558zm-1.105.623-.898.506v-.865l.898-.509zm-.898-1.548.898-.5v1.043l-.898.508zm2.003-1.116v1.034l-.985.558v-1.043zm0 4.164-.985.548v-1.978l.985-.556zm-2.003 1.114v-1.97l.898-.507v1.977z" fill="#4c525d"></path><path d="m25.647 74.47-2.004 1.115v-4.163l2.003-1.115z" fill="#5f6269"></path><path d="m25.647 74.47-2.004 1.115v-4.163l2.003-1.115z" fill="#78c2ff"></path><path d="M25.437 74.368V70.42l.21-.113v4.163z" fill="#c1c1c1"></path><path d="m23.643 75.343 1.794-.975.21.102-2.004 1.115z" fill="#ffffff"></path><path d="M23.341 71.276v4.86l2.608-1.52v-4.86zm2.305 1.071-.985.556v-.868l.985-.558zm-1.105.623-.898.506v-.865l.898-.508zm-.898-1.548.898-.5v1.043l-.898.508zm2.003-1.115v1.033l-.985.558v-1.042zm0 4.163-.985.549V73.04l.985-.556zm-2.003 1.115v-1.971l.898-.506v1.977z" fill="#4c525d"></path><path d="m32.033 57.29-2.003 1.116v-4.163l2.003-1.115z" fill="#5f6269"></path><path d="m32.033 57.29-2.003 1.116v-4.163l2.003-1.115z" fill="#78c2ff"></path><path d="M31.823 57.19v-3.95l.21-.112v4.163z" fill="#c1c1c1"></path><path d="m30.03 58.164 1.793-.975.21.102-2.003 1.115z" fill="#ffffff"></path><path d="M29.728 54.096v4.86l2.607-1.519v-4.86zm2.305 1.072-.986.556v-.868l.986-.558zm-1.105.623-.898.506v-.865l.898-.509zm-.898-1.548.898-.5v1.043l-.898.508zm2.003-1.115v1.033l-.986.558v-1.043zm0 4.163-.986.549V55.86l.986-.556zm-2.003 1.115v-1.971l.898-.506v1.977z" fill="#4c525d"></path><path d="M32.033 64.054 30.03 65.17v-4.163l2.003-1.115z" fill="#5f6269"></path><path d="M32.033 64.054 30.03 65.17v-4.163l2.003-1.115z" fill="#78c2ff"></path><path d="M31.823 63.953v-3.949l.21-.113v4.163z" fill="#c1c1c1"></path><path d="m30.03 64.927 1.793-.974.21.101-2.003 1.115z" fill="#ffffff"></path><path d="M29.728 60.86v4.86l2.607-1.52v-4.86zm2.305 1.071-.986.556v-.868l.986-.558zm-1.105.623-.898.507v-.866l.898-.508zm-.898-1.548.898-.5v1.043l-.898.509zm2.003-1.115v1.033l-.986.558V60.44zm0 4.163-.986.549v-1.978l.986-.556zM30.03 65.17v-1.971l.898-.506v1.977z" fill="#4c525d"></path><path d="m32.033 70.817-2.003 1.115V67.77l2.003-1.116z" fill="#5f6269"></path><path d="m32.033 70.817-2.003 1.115V67.77l2.003-1.116z" fill="#78c2ff"></path><path d="M31.823 70.716v-3.948l.21-.114v4.163z" fill="#c1c1c1"></path><path d="m30.03 71.69 1.793-.974.21.101-2.003 1.115z" fill="#ffffff"></path><path d="M29.728 67.623v4.86l2.607-1.52v-4.86zm2.305 1.072-.986.556v-.868l.986-.558zm-1.105.622-.898.507v-.865l.898-.509zm-.898-1.547.898-.5v1.043l-.898.508zm2.003-1.116v1.034l-.986.557v-1.042zm0 4.163-.986.55v-1.98l.986-.555zm-2.003 1.115v-1.97l.898-.507v1.977z" fill="#4c525d"></path><path d="m38.42 53.639-2.003 1.114V50.59l2.003-1.115z" fill="#5f6269"></path><path d="m38.42 53.639-2.003 1.114V50.59l2.003-1.115z" fill="#78c2ff"></path><path d="M38.21 53.537v-3.949l.21-.113v4.163z" fill="#c1c1c1"></path><path d="m36.417 54.511 1.793-.974.21.102-2.003 1.114z" fill="#ffffff"></path><path d="M36.115 50.444v4.86l2.607-1.52v-4.86zm2.305 1.072-.986.556v-.868l.986-.558zm-1.105.622-.898.507v-.865l.898-.509zm-.898-1.548.898-.5v1.044l-.898.508zm2.003-1.115v1.033l-.986.558v-1.042zm0 4.163-.986.55v-1.98l.986-.555zm-2.003 1.115v-1.97l.898-.507v1.977z" fill="#4c525d"></path><path d="m38.42 60.402-2.003 1.115v-4.163l2.003-1.115z" fill="#5f6269"></path><path d="m38.42 60.402-2.003 1.115v-4.163l2.003-1.115z" fill="#78c2ff"></path><path d="M38.21 60.3v-3.948l.21-.113v4.163z" fill="#c1c1c1"></path><path d="m36.417 61.275 1.793-.975.21.102-2.003 1.115z" fill="#ffffff"></path><path d="M36.115 57.208v4.86l2.607-1.52v-4.86zm2.305 1.07-.986.557v-.868l.986-.558zm-1.105.624-.898.506v-.865l.898-.509zm-.898-1.548.898-.5v1.043l-.898.508zm2.003-1.115v1.033l-.986.558v-1.043zm0 4.163-.986.549v-1.979l.986-.556zm-2.003 1.115v-1.971l.898-.506v1.977z" fill="#4c525d"></path><path d="m38.42 67.165-2.003 1.115v-4.163l2.003-1.115z" fill="#5f6269"></path><path d="m38.42 67.165-2.003 1.115v-4.163l2.003-1.115z" fill="#78c2ff"></path><path d="M38.21 67.064v-3.949l.21-.113v4.163z" fill="#c1c1c1"></path><path d="m36.417 68.038 1.793-.975.21.102-2.003 1.115z" fill="#ffffff"></path><path d="M36.115 63.97v4.861l2.607-1.52v-4.86zm2.305 1.072-.986.556v-.868l.986-.558zm-1.105.623-.898.507v-.865l.898-.51zm-.898-1.548.898-.5v1.043l-.898.509zm2.003-1.115v1.033l-.986.558v-1.042zm0 4.163-.986.549v-1.978l.986-.556zm-2.003 1.115v-1.971l.898-.506v1.977z" fill="#4c525d"></path><path d="m44.806 49.986-2.003 1.115v-4.163l2.003-1.115z" fill="#5f6269"></path><path d="m44.806 49.986-2.003 1.115v-4.163l2.003-1.115z" fill="#78c2ff"></path><path d="M44.597 49.885v-3.949l.21-.113v4.163z" fill="#c1c1c1"></path><path d="m42.803 50.859 1.794-.975.21.102-2.004 1.115z" fill="#ffffff"></path><path d="M42.501 46.792v4.86l2.608-1.52v-4.86zm2.305 1.071-.985.556v-.868l.986-.558zm-1.105.623-.898.507v-.866l.898-.508zm-.898-1.548.898-.5v1.043l-.898.508zm2.003-1.115v1.033l-.985.558v-1.042zm0 4.163-.985.549v-1.979l.985-.556zm-2.003 1.115V49.13l.898-.506V50.6z" fill="#4c525d"></path><path d="m44.806 56.75-2.003 1.114v-4.162l2.003-1.116z" fill="#5f6269"></path><path d="m44.806 56.75-2.003 1.114v-4.162l2.003-1.116z" fill="#78c2ff"></path><path d="M44.597 56.648v-3.949l.21-.113v4.163z" fill="#c1c1c1"></path><path d="m42.803 57.622 1.794-.974.21.101-2.004 1.115z" fill="#ffffff"></path><path d="M42.501 53.555v4.86l2.608-1.52v-4.86zm2.305 1.072-.985.556v-.868l.986-.558zm-1.105.622-.898.507v-.865l.898-.509zm-.898-1.547.898-.5v1.043l-.898.508zm2.003-1.116v1.034l-.985.557v-1.042zm0 4.163-.985.55v-1.98l.985-.555zm-2.003 1.115v-1.97l.898-.507v1.977z" fill="#4c525d"></path><path d="m44.806 63.513-2.003 1.115v-4.163l2.003-1.115z" fill="#5f6269"></path><path d="m44.806 63.513-2.003 1.115v-4.163l2.003-1.115z" fill="#78c2ff"></path><path d="M44.597 63.411v-3.948l.21-.113v4.163z" fill="#c1c1c1"></path><path d="m42.803 64.386 1.794-.975.21.102-2.004 1.114z" fill="#ffffff"></path><path d="M42.501 60.318v4.86l2.608-1.519V58.8zm2.305 1.072-.985.556v-.868l.986-.558zm-1.105.623-.898.506v-.865l.898-.509zm-.898-1.548.898-.5v1.043l-.898.508zm2.003-1.115v1.033l-.985.558v-1.043zm0 4.163-.985.549v-1.979l.985-.556zm-2.003 1.115v-1.971l.898-.506v1.976z" fill="#4c525d"></path><path d="m51.193 46.334-2.003 1.114v-4.162l2.003-1.115z" fill="#5f6269"></path><path d="m51.193 46.334-2.003 1.114v-4.162l2.003-1.115z" fill="#78c2ff"></path><path d="M50.983 46.232v-3.948l.21-.113v4.163z" fill="#c1c1c1"></path><path d="m49.19 47.206 1.793-.974.21.102-2.003 1.114z" fill="#ffffff"></path><path d="M48.888 43.14V48l2.607-1.52v-4.86zm2.305 1.07-.986.557v-.868l.986-.558zm-1.105.624-.898.506v-.865l.898-.509zm-.898-1.548.898-.5v1.043l-.898.508zm2.003-1.116v1.034l-.986.558v-1.043zm0 4.164-.986.548v-1.978l.986-.556zm-2.003 1.114v-1.97l.898-.507v1.977z" fill="#4c525d"></path><path d="m51.193 53.097-2.003 1.115v-4.163l2.003-1.115z" fill="#5f6269"></path><path d="m51.193 53.097-2.003 1.115v-4.163l2.003-1.115z" fill="#78c2ff"></path><path d="M50.983 52.995v-3.948l.21-.113v4.163z" fill="#c1c1c1"></path><path d="m49.19 53.97 1.793-.975.21.102-2.003 1.115z" fill="#ffffff"></path><path d="M48.888 49.903v4.86l2.607-1.52v-4.86zm2.305 1.071-.986.556v-.868l.986-.558zm-1.105.623-.898.507v-.866l.898-.508zm-.898-1.548.898-.5v1.043l-.898.509zm2.003-1.115v1.033l-.986.558v-1.042zm0 4.163-.986.549v-1.979l.986-.556zm-2.003 1.115V52.24l.898-.506v1.977z" fill="#4c525d"></path><path d="m51.193 59.86-2.003 1.115v-4.163l2.003-1.115z" fill="#5f6269"></path><path d="m51.193 59.86-2.003 1.115v-4.163l2.003-1.115z" fill="#78c2ff"></path><path d="M50.983 59.759V55.81l.21-.113v4.163z" fill="#c1c1c1"></path><path d="m49.19 60.733 1.793-.974.21.101-2.003 1.115z" fill="#ffffff"></path><path d="M48.888 56.666v4.86l2.607-1.52v-4.86zm2.305 1.071-.986.556v-.867l.986-.558zm-1.105.623-.898.507v-.865l.898-.509zm-.898-1.548.898-.5v1.044l-.898.508zm2.003-1.115v1.033l-.986.558v-1.042zm0 4.163-.986.55v-1.98l.986-.555zm-2.003 1.115v-1.97l.898-.507v1.977z" fill="#4c525d"></path><path d="m91.684 64.222 2.003 1.115v-4.163l-2.003-1.115z" fill="#5f6269"></path><path d="m91.684 64.222 2.003 1.115v-4.163l-2.003-1.115z" fill="#78c2ff"></path><path d="M91.894 64.12v-3.948l-.21-.113v4.163z" fill="#c1c1c1"></path><path d="m93.687 65.095-1.794-.975-.21.102 2.004 1.115z" fill="#ffffff"></path><path d="M91.382 59.508v4.86l2.607 1.52v-4.86zm.302 1.721.986.558v.868l-.986-.556zm1.105.626.898.508v.865l-.898-.506zm.898.37-.898-.508v-1.043l.898.5zm-1.017-1.617v1.042l-.986-.558v-1.033zm-.986 1.628.986.556v1.979l-.986-.549zm1.105 2.6V62.86l.898.506v1.97z" fill="#4c525d"></path><path d="m91.684 70.985 2.003 1.115v-4.163l-2.003-1.115z" fill="#5f6269"></path><path d="m91.684 70.985 2.003 1.115v-4.163l-2.003-1.115z" fill="#78c2ff"></path><path d="M91.894 70.884v-3.949l-.21-.113v4.163z" fill="#c1c1c1"></path><path d="m93.687 71.858-1.794-.974-.21.101 2.004 1.115z" fill="#ffffff"></path><path d="M91.382 66.271v4.86l2.607 1.52v-4.86zm.302 1.722.986.558v.867l-.986-.556zm1.105.625.898.508v.866l-.898-.507zm.898.37-.898-.508v-1.043l.898.5zm-1.017-1.617v1.042l-.986-.558v-1.033zM91.684 69l.986.556v1.978l-.986-.549zm1.105 2.6v-1.977l.898.506V72.1z" fill="#4c525d"></path><path d="m91.684 77.749 2.003 1.114v-4.162l-2.003-1.116z" fill="#5f6269"></path><path d="m91.684 77.749 2.003 1.114v-4.162l-2.003-1.116z" fill="#78c2ff"></path><path d="M91.894 77.647v-3.948l-.21-.114v4.164z" fill="#c1c1c1"></path><path d="m93.687 78.621-1.794-.974-.21.102 2.004 1.114z" fill="#ffffff"></path><path d="M91.382 73.034v4.86l2.607 1.52v-4.86zm.302 1.722.986.558v.868l-.986-.556zm1.105.625.898.509v.865l-.898-.506zm.898.371-.898-.508V74.2l.898.5zm-1.017-1.618v1.042l-.986-.557v-1.034zm-.986 1.63.986.555v1.978l-.986-.548zm1.105 2.6v-1.978l.898.506v1.971z" fill="#4c525d"></path><path d="m85.297 60.57 2.003 1.114v-4.162l-2.003-1.116z" fill="#5f6269"></path><path d="m85.297 60.57 2.003 1.114v-4.162l-2.003-1.116z" fill="#78c2ff"></path><path d="M85.507 60.468v-3.949l-.21-.113v4.164z" fill="#c1c1c1"></path><path d="m87.3 61.442-1.793-.974-.21.101 2.003 1.115z" fill="#ffffff"></path><path d="M84.995 55.855v4.86l2.607 1.52v-4.86zm.302 1.722.986.558v.868l-.986-.556zm1.105.625.898.509v.865l-.898-.507zm.898.37-.898-.507v-1.043l.898.5zm-1.017-1.617v1.042l-.986-.558v-1.033zm-.986 1.629.986.556v1.978l-.986-.548zm1.105 2.6v-1.977l.898.506v1.971z" fill="#4c525d"></path><path d="m85.297 67.333 2.003 1.115v-4.163l-2.003-1.115z" fill="#5f6269"></path><path d="m85.297 67.333 2.003 1.115v-4.163l-2.003-1.115z" fill="#78c2ff"></path><path d="M85.507 67.231v-3.948l-.21-.113v4.163z" fill="#c1c1c1"></path><path d="m87.3 68.206-1.793-.975-.21.102 2.003 1.115z" fill="#ffffff"></path><path d="M84.995 62.619v4.86L87.602 69v-4.86zm.302 1.721.986.558v.868l-.986-.556zm1.105.625.898.51v.864l-.898-.506zm.898.371-.898-.508v-1.043l.898.5zm-1.017-1.618v1.043l-.986-.558V63.17zm-.986 1.63.986.555v1.979l-.986-.55zm1.105 2.6V65.97l.898.506v1.97z" fill="#4c525d"></path><path d="m85.297 74.096 2.003 1.115v-4.163l-2.003-1.115z" fill="#5f6269"></path><path d="m85.297 74.096 2.003 1.115v-4.163l-2.003-1.115z" fill="#78c2ff"></path><path d="M85.507 73.995v-3.949l-.21-.113v4.163z" fill="#c1c1c1"></path><path d="m87.3 74.969-1.793-.974-.21.101 2.003 1.115z" fill="#ffffff"></path><path d="M84.995 69.382v4.86l2.607 1.52v-4.86zm.302 1.722.986.558v.867l-.986-.556zm1.105.625.898.508v.866l-.898-.507zm.898.37-.898-.508v-1.043l.898.5zm-1.017-1.617v1.042l-.986-.558v-1.033zm-.986 1.629.986.556v1.978l-.986-.549zm1.105 2.6v-1.977l.898.506v1.97z" fill="#4c525d"></path><path d="m98.277 68.198 2.004 1.115V65.15l-2.004-1.116z" fill="#5f6269"></path><path d="m98.277 68.198 2.004 1.115V65.15l-2.004-1.116z" fill="#78c2ff"></path><path d="M98.487 68.096v-3.948l-.21-.113v4.163z" fill="#c1c1c1"></path><path d="m100.28 69.07-1.793-.974-.21.102 2.004 1.115z" fill="#ffffff"></path><path d="M97.975 63.484v4.86l2.608 1.52v-4.86zm.302 1.721.986.558v.868l-.986-.556zm1.105.625.899.509v.865l-.899-.506zm.899.371-.899-.508V64.65l.899.5zm-1.018-1.618v1.043l-.986-.558v-1.034zm-.986 1.63.986.555v1.979l-.986-.55zm1.105 2.6v-1.978l.899.507v1.97z" fill="#4c525d"></path><path d="m98.277 74.961 2.004 1.115v-4.163l-2.004-1.115z" fill="#5f6269"></path><path d="m98.277 74.961 2.004 1.115v-4.163l-2.004-1.115z" fill="#78c2ff"></path><path d="M98.487 74.86V70.91l-.21-.113v4.163z" fill="#c1c1c1"></path><path d="m100.28 75.834-1.793-.975-.21.102 2.004 1.115z" fill="#ffffff"></path><path d="M97.975 70.247v4.86l2.608 1.52v-4.86zm.302 1.722.986.557v.868l-.986-.556zm1.105.625.899.508v.866l-.899-.507zm.899.37-.899-.508v-1.043l.899.5zm-1.018-1.617v1.042l-.986-.558v-1.033zm-.986 1.629.986.556v1.978l-.986-.549zm1.105 2.6v-1.977l.899.506v1.97z" fill="#4c525d"></path><path d="m98.277 81.724 2.004 1.115v-4.162l-2.004-1.116z" fill="#5f6269"></path><path d="m98.277 81.724 2.004 1.115v-4.162l-2.004-1.116z" fill="#78c2ff"></path><path d="M98.487 81.623v-3.949l-.21-.113v4.163z" fill="#c1c1c1"></path><path d="m100.28 82.597-1.793-.974-.21.101 2.004 1.115z" fill="#ffffff"></path><path d="M97.975 77.01v4.86l2.608 1.52v-4.86zm.302 1.722.986.558v.868l-.986-.556zm1.105.625.899.509v.865l-.899-.507zm.899.37-.899-.507v-1.044l.899.5zm-1.018-1.617v1.042l-.986-.558v-1.033zm-.986 1.629.986.556v1.978l-.986-.549zm1.105 2.6v-1.977l.899.506v1.971z" fill="#4c525d"></path><path d="m104.767 72.012 2.004 1.115v-4.163l-2.003-1.115z" fill="#5f6269"></path><path d="m104.767 72.012 2.004 1.115v-4.163l-2.003-1.115z" fill="#78c2ff"></path><path d="M104.977 71.91v-3.948l-.21-.113v4.163z" fill="#c1c1c1"></path><path d="m106.77 72.885-1.793-.975-.21.102 2.004 1.115z" fill="#ffffff"></path><path d="M104.465 67.298v4.86l2.608 1.52v-4.86zm.302 1.721.986.558v.868l-.986-.556zm1.106.625.898.51v.864l-.898-.506zm.898.371-.898-.508v-1.043l.898.5zm-1.018-1.618v1.043l-.985-.558v-1.034zm-.986 1.63.986.555v1.979l-.986-.55zm1.106 2.6V70.65l.898.506v1.97z" fill="#4c525d"></path><path d="m104.767 78.775 2.004 1.115v-4.163l-2.003-1.115z" fill="#5f6269"></path><path d="m104.767 78.775 2.004 1.115v-4.163l-2.003-1.115z" fill="#78c2ff"></path><path d="M104.977 78.674v-3.949l-.21-.113v4.163z" fill="#c1c1c1"></path><path d="m106.77 79.648-1.793-.974-.21.101 2.004 1.115z" fill="#ffffff"></path><path d="M104.465 74.061v4.86l2.608 1.52v-4.86zm.302 1.722.986.558v.867l-.986-.556zm1.106.625.898.508v.866l-.898-.507zm.898.37-.898-.508v-1.043l.898.5zm-1.018-1.617v1.042l-.985-.558v-1.033zm-.986 1.629.986.556v1.978l-.986-.549zm1.106 2.6v-1.977l.898.506v1.97z" fill="#4c525d"></path><path d="m104.767 85.538 2.004 1.115v-4.162l-2.003-1.116z" fill="#5f6269"></path><path d="m104.767 85.538 2.004 1.115v-4.162l-2.003-1.116z" fill="#78c2ff"></path><path d="M104.977 85.437v-3.949l-.21-.113v4.163z" fill="#c1c1c1"></path><path d="m106.77 86.411-1.793-.974-.21.101 2.004 1.115z" fill="#ffffff"></path><path d="M104.465 80.825v4.86l2.608 1.52v-4.86zm.302 1.72.986.559v.868l-.986-.556zm1.106.626.898.509v.865l-.898-.507zm.898.37-.898-.507V81.99l.898.5zm-1.018-1.617v1.042l-.985-.558v-1.033zm-.986 1.629.986.556v1.978l-.986-.548zm1.106 2.6v-1.977l.898.506v1.971z" fill="#4c525d"></path><path d="m111.258 75.826 2.003 1.115v-4.163l-2.003-1.115z" fill="#5f6269"></path><path d="m111.258 75.826 2.003 1.115v-4.163l-2.003-1.115z" fill="#78c2ff"></path><path d="M111.468 75.724v-3.948l-.21-.113v4.163z" fill="#c1c1c1"></path><path d="m113.261 76.699-1.794-.975-.21.102 2.004 1.115z" fill="#ffffff"></path><path d="M110.956 71.112v4.86l2.607 1.52v-4.86zm.302 1.721.986.558v.868l-.986-.556zm1.105.626.898.508v.865l-.898-.506zm.898.37-.898-.508v-1.043l.898.5zm-1.018-1.617v1.042l-.985-.558v-1.033zm-.985 1.628.986.556v1.979l-.986-.549zm1.105 2.6v-1.976l.898.506v1.97z" fill="#4c525d"></path><path d="m111.258 82.59 2.003 1.114v-4.163l-2.003-1.115z" fill="#5f6269"></path><path d="m111.258 82.59 2.003 1.114v-4.163l-2.003-1.115z" fill="#78c2ff"></path><path d="M111.468 82.488v-3.949l-.21-.113v4.163z" fill="#c1c1c1"></path><path d="m113.261 83.462-1.794-.974-.21.101 2.004 1.115z" fill="#ffffff"></path><path d="M110.956 77.875v4.86l2.607 1.52v-4.86zm.302 1.722.986.558v.867l-.986-.555zm1.105.625.898.509v.865l-.898-.507zm.898.37-.898-.507V79.04l.898.5zm-1.018-1.617v1.042l-.985-.558v-1.033zm-.985 1.629.986.556v1.978l-.986-.549zm1.105 2.6v-1.977l.898.506v1.971z" fill="#4c525d"></path><path d="m111.258 89.353 2.003 1.114v-4.162l-2.003-1.116z" fill="#5f6269"></path><path d="m111.258 89.353 2.003 1.114v-4.162l-2.003-1.116z" fill="#78c2ff"></path><path d="M111.468 89.251v-3.948l-.21-.114v4.164z" fill="#c1c1c1"></path><path d="m113.261 90.225-1.794-.974-.21.102 2.004 1.114z" fill="#ffffff"></path><path d="M110.956 84.639v4.86l2.607 1.52v-4.86zm.302 1.721.986.558v.868l-.986-.556zm1.105.625.898.509v.865l-.898-.506zm.898.371-.898-.508v-1.043l.898.5zm-1.018-1.618v1.043l-.985-.558v-1.034zm-.985 1.63.986.555v1.978l-.986-.548zm1.105 2.6V87.99l.898.506v1.971z" fill="#4c525d"></path><path d="m78.91 56.917 2.004 1.115v-4.163l-2.004-1.115z" fill="#5f6269"></path><path d="m78.91 56.917 2.004 1.115v-4.163l-2.004-1.115z" fill="#78c2ff"></path><path d="M79.12 56.816v-3.949l-.21-.113v4.163z" fill="#c1c1c1"></path><path d="m80.914 57.79-1.794-.974-.21.101 2.004 1.115z" fill="#ffffff"></path><path d="M78.608 52.203v4.86l2.608 1.52v-4.86zm.302 1.721.986.558v.868l-.986-.556zm1.106.626.898.508v.866l-.898-.507zm.898.37-.898-.508V53.37l.898.5zm-1.018-1.617v1.042l-.985-.558v-1.033zm-.985 1.629.985.556v1.978l-.986-.549zm1.105 2.6v-1.977l.898.506v1.97z" fill="#4c525d"></path><path d="m78.91 63.68 2.004 1.115v-4.162l-2.004-1.116z" fill="#5f6269"></path><path d="m78.91 63.68 2.004 1.115v-4.162l-2.004-1.116z" fill="#78c2ff"></path><path d="M79.12 63.579V59.63l-.21-.113v4.163z" fill="#c1c1c1"></path><path d="m80.914 64.553-1.794-.974-.21.101 2.004 1.115z" fill="#ffffff"></path><path d="M78.608 58.966v4.86l2.608 1.52v-4.86zm.302 1.722.986.558v.868l-.986-.556zm1.106.625.898.509v.865l-.898-.507zm.898.37-.898-.507v-1.043l.898.5zm-1.018-1.617v1.042l-.985-.558v-1.033zm-.985 1.629.985.556v1.978l-.986-.548zm1.105 2.6v-1.977l.898.506v1.971z" fill="#4c525d"></path><path d="m78.91 70.444 2.004 1.115v-4.163L78.91 66.28z" fill="#5f6269"></path><path d="m78.91 70.444 2.004 1.115v-4.163L78.91 66.28z" fill="#78c2ff"></path><path d="M79.12 70.342v-3.948l-.21-.113v4.163z" fill="#c1c1c1"></path><path d="m80.914 71.317-1.794-.975-.21.102 2.004 1.115z" fill="#ffffff"></path><path d="M78.608 65.73v4.86l2.608 1.52v-4.86zm.302 1.721.986.558v.868l-.986-.556zm1.106.626.898.508v.865l-.898-.506zm.898.37-.898-.508v-1.043l.898.5zm-1.018-1.618v1.043l-.985-.558V66.28zm-.985 1.63.985.555v1.979l-.986-.55zm1.105 2.6v-1.977l.898.506v1.97z" fill="#4c525d"></path><path d="m72.524 53.265 2.003 1.115v-4.163l-2.003-1.115z" fill="#5f6269"></path><path d="m72.524 53.265 2.003 1.115v-4.163l-2.003-1.115z" fill="#78c2ff"></path><path d="M72.734 53.163v-3.948l-.21-.114v4.164z" fill="#c1c1c1"></path><path d="m74.527 54.138-1.793-.975-.21.102 2.003 1.115z" fill="#ffffff"></path><path d="M72.222 48.55v4.861l2.607 1.52v-4.86zm.302 1.722.986.558v.868l-.986-.556zm1.105.625.898.509v.865l-.898-.506zm.898.371-.898-.508v-1.043l.898.5zM73.51 49.65v1.043l-.986-.558v-1.033zm-.986 1.63.986.555v1.979l-.986-.55zm1.105 2.6v-1.978l.898.507v1.97z" fill="#4c525d"></path><path d="m72.524 60.028 2.003 1.115V56.98l-2.003-1.115z" fill="#5f6269"></path><path d="m72.524 60.028 2.003 1.115V56.98l-2.003-1.115z" fill="#78c2ff"></path><path d="M72.734 59.926v-3.948l-.21-.113v4.163z" fill="#c1c1c1"></path><path d="m74.527 60.9-1.793-.973-.21.101 2.003 1.115z" fill="#ffffff"></path><path d="M72.222 55.314v4.86l2.607 1.52v-4.86zm.302 1.722.986.557v.868l-.986-.556zm1.105.625.898.508v.866l-.898-.507zm.898.37-.898-.508V56.48l.898.5zm-1.017-1.617v1.042l-.986-.558v-1.033zm-.986 1.629.986.556v1.978l-.986-.549zm1.105 2.6v-1.977l.898.506v1.97z" fill="#4c525d"></path><path d="m72.524 66.791 2.003 1.115v-4.163l-2.003-1.115z" fill="#5f6269"></path><path d="m72.524 66.791 2.003 1.115v-4.163l-2.003-1.115z" fill="#78c2ff"></path><path d="M72.734 66.69V62.74l-.21-.113v4.164z" fill="#c1c1c1"></path><path d="m74.527 67.664-1.793-.974-.21.101 2.003 1.115z" fill="#ffffff"></path><path d="M72.222 62.077v4.86l2.607 1.52v-4.86zm.302 1.722.986.558v.868l-.986-.556zm1.105.625.898.509v.865l-.898-.507zm.898.37-.898-.507v-1.044l.898.5zm-1.017-1.617v1.042l-.986-.558v-1.033zm-.986 1.629.986.556v1.978l-.986-.549zm1.105 2.6V65.43l.898.506v1.971z" fill="#4c525d"></path><path d="m66.137 49.612 2.003 1.115v-4.163l-2.003-1.115z" fill="#5f6269"></path><path d="m66.137 49.612 2.003 1.115v-4.163l-2.003-1.115z" fill="#78c2ff"></path><path d="M66.347 49.51v-3.948l-.21-.113v4.163z" fill="#c1c1c1"></path><path d="m68.14 50.485-1.793-.974-.21.101 2.003 1.115z" fill="#ffffff"></path><path d="M65.835 44.898v4.86l2.607 1.52v-4.86zm.302 1.722.986.558v.867l-.986-.555zm1.105.625.898.509v.865l-.898-.507zm.898.37-.898-.507v-1.044l.898.5zm-1.017-1.617v1.042l-.986-.558V45.45zm-.986 1.629.986.556v1.978l-.986-.549zm1.105 2.6V48.25l.898.506v1.971z" fill="#4c525d"></path><path d="m66.137 56.376 2.003 1.115v-4.163l-2.003-1.115z" fill="#5f6269"></path><path d="m66.137 56.376 2.003 1.115v-4.163l-2.003-1.115z" fill="#78c2ff"></path><path d="M66.347 56.274v-3.948l-.21-.114v4.164z" fill="#c1c1c1"></path><path d="m68.14 57.248-1.793-.974-.21.102 2.003 1.114z" fill="#ffffff"></path><path d="M65.835 51.662v4.86l2.607 1.52v-4.86zm.302 1.721.986.558v.868l-.986-.556zm1.105.625.898.509v.865l-.898-.506zm.898.371-.898-.508v-1.043l.898.5zm-1.017-1.618v1.043l-.986-.558v-1.034zm-.986 1.63.986.555v1.979l-.986-.55zm1.105 2.6v-1.977l.898.506v1.97z" fill="#4c525d"></path><path d="m66.137 63.14 2.003 1.114V60.09l-2.003-1.115z" fill="#5f6269"></path><path d="m66.137 63.14 2.003 1.114V60.09l-2.003-1.115z" fill="#78c2ff"></path><path d="M66.347 63.038v-3.949l-.21-.113v4.163z" fill="#c1c1c1"></path><path d="m68.14 64.012-1.793-.975-.21.102 2.003 1.115z" fill="#ffffff"></path><path d="M65.835 58.425v4.86l2.607 1.52v-4.86zm.302 1.722.986.557v.868l-.986-.556zm1.105.625.898.508v.865l-.898-.506zm.898.37-.898-.508v-1.043l.898.5zm-1.017-1.617v1.042l-.986-.558v-1.033zm-.986 1.629.986.555v1.979l-.986-.549zm1.105 2.6v-1.977l.898.506v1.97z" fill="#4c525d"></path><path d="m59.75 45.96 2.004 1.115v-4.163l-2.003-1.115z" fill="#5f6269"></path><path d="m59.75 45.96 2.004 1.115v-4.163l-2.003-1.115z" fill="#78c2ff"></path><path d="M59.96 45.858V41.91l-.21-.113v4.163z" fill="#c1c1c1"></path><path d="m61.754 46.833-1.794-.975-.21.102 2.004 1.115z" fill="#ffffff"></path><path d="M59.448 41.246v4.86l2.608 1.52v-4.86zm.302 1.721.986.558v.868l-.985-.556zm1.106.626.898.508v.866l-.898-.507zm.898.37-.898-.508v-1.043l.898.5zm-1.018-1.617v1.042l-.985-.558v-1.033zm-.985 1.629.985.555v1.979l-.985-.549zm1.105 2.6v-1.977l.898.506v1.97z" fill="#4c525d"></path><path d="m59.75 52.723 2.004 1.115v-4.163L59.75 48.56z" fill="#5f6269"></path><path d="m59.75 52.723 2.004 1.115v-4.163L59.75 48.56z" fill="#78c2ff"></path><path d="M59.96 52.622v-3.949l-.21-.113v4.163z" fill="#c1c1c1"></path><path d="m61.754 53.596-1.794-.974-.21.101 2.004 1.115z" fill="#ffffff"></path><path d="M59.448 48.01v4.86l2.608 1.52v-4.861zm.302 1.72.986.559v.867l-.985-.555zm1.106.626.898.509v.865l-.898-.507zm.898.37-.898-.507v-1.044l.898.5zm-1.018-1.617v1.042l-.985-.558V48.56zm-.985 1.629.985.556v1.978l-.985-.549zm1.105 2.6v-1.977l.898.506v1.971z" fill="#4c525d"></path><path d="m59.75 59.487 2.004 1.114V56.44l-2.003-1.115z" fill="#5f6269"></path><path d="m59.75 59.487 2.004 1.114V56.44l-2.003-1.115z" fill="#78c2ff"></path><path d="M59.96 59.385v-3.948l-.21-.113v4.163z" fill="#c1c1c1"></path><path d="m61.754 60.36-1.794-.975-.21.102 2.004 1.114z" fill="#ffffff"></path><path d="M59.448 54.773v4.86l2.608 1.52v-4.86zm.302 1.721.986.558v.868l-.985-.556zm1.106.625.898.509v.865l-.898-.506zm.898.371-.898-.508v-1.043l.898.5zm-1.018-1.618v1.043l-.985-.558v-1.034zm-.985 1.63.985.555v1.979l-.985-.55zm1.105 2.6v-1.978l.898.506v1.971z" fill="#4c525d"></path><path d="m44.688 30.845 2.511 1.397v-5.22l-2.511-1.398z" fill="#5f6269"></path><path d="m44.688 30.845 2.511 1.397v-5.22l-2.511-1.398z" fill="#78c2ff"></path><path d="M44.95 30.717v-4.95l-.262-.143v5.22z" fill="#c1c1c1"></path><path d="m47.2 31.939-2.25-1.222-.262.128 2.512 1.397z" fill="#ffffff"></path><path d="M44.309 24.934v6.094l3.27 1.905V26.84zm.379 2.158 1.236.7v1.088l-1.236-.697zm1.385.784 1.126.638v1.085l-1.126-.636zm1.126.465-1.126-.637v-1.308l1.126.627zm-1.275-2.029v1.307l-1.236-.7v-1.295zm-1.236 2.043 1.236.697v2.48l-1.237-.688zm1.385 3.26v-2.479l1.126.635v2.471z" fill="#4c525d"></path><path d="m50.019 33.944 2.512 1.397v-5.22l-2.512-1.398z" fill="#5f6269"></path><path d="m50.019 33.944 2.512 1.397v-5.22l-2.512-1.398z" fill="#78c2ff"></path><path d="M50.282 33.816v-4.95l-.263-.143v5.22z" fill="#c1c1c1"></path><path d="m52.53 35.038-2.248-1.222-.263.128 2.512 1.397z" fill="#ffffff"></path><path d="M49.64 28.033v6.094l3.27 1.906v-6.095zm.379 2.158 1.236.7v1.088l-1.236-.697zm1.386.784 1.126.638v1.085l-1.126-.635zm1.126.465-1.126-.637v-1.308l1.126.627zm-1.276-2.028v1.307l-1.236-.7v-1.296zm-1.236 2.042 1.236.697v2.48l-1.236-.687zm1.386 3.26v-2.478l1.126.634v2.471z" fill="#4c525d"></path><path d="m67.044 30.851-2.511 1.398v-5.22l2.511-1.398z" fill="#5f6269"></path><path d="m67.044 30.851-2.511 1.398v-5.22l2.511-1.398z" fill="#78c2ff"></path><path d="M66.781 30.724v-4.951l.263-.142v5.22z" fill="#c1c1c1"></path><path d="m64.533 31.945 2.248-1.221.263.127-2.511 1.398z" fill="#ffffff"></path><path d="M64.154 26.846v6.094l3.27-1.905V24.94zm2.89 1.343-1.236.697v-1.088l1.236-.7zm-1.385.781-1.126.635V28.52l1.126-.637zm-1.126-1.94 1.126-.628v1.308l-1.126.638zm2.511-1.4v1.297l-1.236.699v-1.307zm0 5.221-1.236.688v-2.48l1.236-.697zm-2.511 1.398v-2.471l1.126-.635v2.479z" fill="#4c525d"></path><path d="m61.713 33.95-2.512 1.398v-5.22l2.512-1.398z" fill="#5f6269"></path><path d="m61.713 33.95-2.512 1.398v-5.22l2.512-1.398z" fill="#78c2ff"></path><path d="M61.45 33.823v-4.95l.263-.143v5.22z" fill="#c1c1c1"></path><path d="m59.201 35.045 2.25-1.222.262.127-2.512 1.398z" fill="#ffffff"></path><path d="M58.823 29.945v6.094l3.269-1.905v-6.095zm2.89 1.343-1.236.697v-1.088l1.236-.7zm-1.385.781-1.127.636V31.62l1.127-.638zM59.2 30.13l1.127-.627v1.308l-1.127.637zm2.512-1.399v1.296l-1.236.7v-1.308zm0 5.22-1.236.689v-2.481l1.236-.697zm-2.512 1.398v-2.471l1.127-.635v2.48z" fill="#4c525d"></path><path d="m86.304 88.378-21.218 12.33L38.31 85.25l21.217-12.33z" fill="#75808e"></path><path d="m80.738 88.078 1.894 1.093-16.058 9.332-1.894-1.093-6.838-3.949-6.86-3.96-6.839-3.949-1.899-1.096 1.823-1.06 12.412-7.213 1.823-1.059 1.9 1.097 6.838 3.948 6.86 3.96zm-21.075 3.985 11.824-6.871-6.273-3.622-11.824 6.871zm-6.566-3.791 5.765-3.351-6.54-3.776-5.765 3.351zm13.4 7.736 5.765-3.35-6.54-3.777-5.766 3.351zm-7.338-11.26 5.761-3.347-6.54-3.776-5.76 3.348zm13.4 7.737 5.76-3.348-6.539-3.776-5.76 3.348zM51.273 89.33l1.532-.89-6.54-3.776-1.532.89zm13.944-8.103 1.531-.89-6.54-3.776-1.531.89zm-.544 15.84 1.532-.89-6.54-3.776-1.532.89zm13.944-8.103 1.531-.89-6.54-3.776-1.531.89zM57.84 93.123l1.531-.89-6.273-3.622-1.532.89zm13.943-8.104 1.532-.89-6.273-3.622-1.532.89zm-25.525-.696 5.766-3.35-1.6-.924-5.766 3.35zm22.137 12.782 5.766-3.351-1.6-.924-5.766 3.35zM52.321 80.8l5.76-3.348-1.6-.924-5.76 3.348zm22.137 12.781 5.76-3.348-1.6-.923-5.76 3.347zm-30.023-8.198 1.531-.89-1.6-.924-1.532.89zm13.943-8.103 1.532-.89-1.6-.924-1.532.89zm8.194 20.884 1.532-.89-1.6-.924-1.532.89zm13.944-8.103 1.531-.89-1.6-.924-1.532.89z" fill="#ebebeb"></path><path d="m72.458 77.392-.01 3.702-1.419.825.01-3.702z" fill="#c1c1c1"></path><path d="m71.04 78.217-.01 3.702-1.429-.825.01-3.702z" fill="#cccccc"></path><path d="m72.458 77.392-1.418.825-1.428-.825 1.418-.824z" fill="#ebebeb"></path><path d="m71.495 67.664-.003 9.692-.463.269.004-9.692z" fill="#4c525d"></path><path d="m71.032 67.933-.003 9.692-.466-.269.004-9.692z" fill="#555b66"></path><path d="m71.495 67.664-.463.27-.465-.27.462-.269z" fill="#5f656f"></path><path d="m54.65 88.729-.01 3.702-1.42.824.011-3.702z" fill="#c1c1c1"></path><path d="m53.231 89.553-.01 3.702-1.428-.825.01-3.702z" fill="#cccccc"></path><path d="m54.65 88.729-1.419.824-1.428-.825 1.419-.824z" fill="#ebebeb"></path><g fill="#fff"><path d="m54.247 79.824.001.387-.857.495-.001-.387zM54.263 85.534l-.857.495-.001-.387.857-.495zM70.782 70.277v.388l-.855.494v-.388zM70.797 75.6v.387l-.854.494v-.388z" fill="#ffffff"></path><path d="m54.257 84.516.008.63v1.52l.623-.36.072-.04.56-.32.063-.04.552-.32.072-.04.551-.319.072-.04.56-.328.063-.031.56-.328.072-.04.551-.32.072-.04.551-.32.072-.04.552-.319.071-.04.56-.32.064-.04.56-.319.063-.04.551-.32.072-.04.56-.327.064-.032.56-.32.071-.047.551-.32.072-.04.552-.32.072-.04.551-.32.072-.04.56-.319.063-.04.56-.32.071-.04.552-.319.064-.04.559-.32.064-.04.56-.319.071-.048.552-.32.071-.032.552-.327.072-.04.623-.36v-1.13h-.002v-.386l.002-.002-.008-.631v-2.237l-.008-.64V71.16v.001l-.002-.387.002-.001v-.415l-.008-.719-.623.36-.064.047-.56.32-.063.04-.56.32-.072.04-.559.32-.064.04-.551.319-.072.04-.552.32-.072.04-.559.319-.064.04-.56.32-.071.047-.551.312-.072.04-.552.328-.064.032-.559.327-.072.04-.56.32-.063.04-.552.319-.072.04-.55.32-.073.04-.56.32-.063.04-.56.319-.071.04-.552.327-.072.032-.551.328-.064.032-.56.327-.071.04-.56.32-.064.04-.559.32-.064.04-.56.32-.063.04-.56.319-.063.04-.56.32-.072.04-.623.359.008.72v2.228l.008.64v2.237zm15.062-7.264.56-.32v.64l-.56.32zm-.002-.715.557-.321.001.639-.556.32zm-.001-.716.555-.32.002.638-.556.322zm-.003-.72.557-.322.001.64-.556.32zm-.002-.716.556-.32.002.638-.556.321zm-.002-.715.556-.321.002.633-.556.321zm-.002-.721.556-.321.002.639-.556.32zm-.002-.715.556-.322.002.64-.556.32zm-.002-.721.556-.322.002.64-.556.32zm-.002-.715.556-.321.002.639-.556.32zm-.006-.713.56-.32v.631l-.552.32zm-.603 7.453-.002-.64.556-.32.002.64zm-.004.074.56-.32v.64l-.552.32zm0-1.428.556-.321.002.639-.556.32zm-.002-.721.556-.321.002.639-.556.32zm-.002-.716.556-.32.002.638-.556.321zm-.002-.715.556-.32.002.632-.556.321zm-.002-.72.556-.322.002.64-.556.32zm-.002-.716.556-.321.002.639-.556.321zm-.002-.721.556-.321.002.639-.556.321zm-.002-.715.556-.321.002.639-.556.32zm-.002-.716.56-.32v.632l-.56.32zm-.6 7.527.552-.32v.64l-.551.32zm-.004-.713.556-.321.002.64-.557.32zm-.002-.715.556-.32.002.638-.556.321zm-.002-.72.556-.322.001.64-.556.32zm-.002-.716.556-.321.001.639-.556.32zm-.002-.715.556-.322.001.634-.556.32zm-.003-.721.557-.322.001.64-.556.32zm-.002-.716.557-.32.001.638-.556.321zm-.002-.72.557-.322.001.64-.556.32zm-.002-.716.556-.32.002.638-.556.321zm-.002-.715.56-.32v.632l-.56.32zm-.072.671-.551.328v-.64l.551-.32zm-.535 6.864.559-.327v.639l-.56.327zm-.002-.718.556-.321.002.639-.556.32zm-.002-.716.556-.32.002.638-.556.322zm-.002-.72.556-.322.002.64-.556.32zm-.002-.716.556-.32.002.638-.556.321zm-.002-.715.556-.321.002.633-.556.321zm-.002-.721.556-.321.002.639-.556.32zm-.002-.716.556-.32.002.638-.556.322zm-.002-.72.556-.322.002.64-.556.32zm-.002-.715.556-.321.002.639-.556.32zm-.07-.047-.552.327v-.639l.552-.32zm-.536 6.864.56-.328v.64l-.56.327zm0-.72.556-.32.002.639-.556.321zm-.002-.714.556-.321.002.639-.557.32zm-.002-.721.556-.321.002.639-.557.32zm-.002-.715.556-.322.002.64-.557.32zm-.002-.716.556-.32.001.632-.556.322zm-.002-.72.556-.322.001.639-.556.321zm-.002-.716.556-.321.001.639-.556.32zm-.003-.721.557-.321.001.639-.556.32zm-.002-.715.557-.321.001.639-.556.321zm-.063-.047-.559.328v-.64l.551-.32zm.015 6.463-.556.321-.002-.639.556-.32zm-.558.4.56-.326v.639l-.552.327zm-.002-1.433.556-.321.002.64-.556.32zm-.002-.721.556-.321.002.639-.556.321zm-.002-.715.556-.321.002.639-.556.321zm-.002-.715.556-.321.002.633-.556.32zm-.002-.721.556-.321.002.639-.556.32zm-.002-.716.556-.32.002.638-.556.321zm-.002-.72.556-.322.002.64-.556.32zm-.002-.716.556-.32.002.638-.556.321zm-.607 6.818.551-.32.008.64-.56.319v-.64zm-.004-.717.556-.32.002.639-.556.32zm-.002-.714.556-.322.002.64-.556.32zm-.002-.721.556-.322.002.64-.556.32zm-.002-.716.556-.32.002.638-.556.321zm-.002-.715.556-.321.002.633-.557.321zm-.002-.721.556-.321.002.639-.557.32zm-.002-.715.556-.321.001.639-.556.32zm-.002-.721.556-.322.001.64-.556.32zm-.002-.715.556-.321.001.638-.556.321zm-.004-.713.56-.327v.639l-.56.32zm-.6 7.527.552-.32.008.64-.56.32v-.64zm-.003-.716.557-.321.001.64-.556.32zm-.002-.715.556-.321.002.639-.556.32zm-.002-.721.556-.321.002.639-.556.32zm-.002-.715.556-.321.002.638-.556.321zm-.002-.716.556-.321.002.633-.556.321zm-.002-.72.556-.322.002.64-.556.32zm-.002-.716.556-.321.002.639-.556.321zm-.002-.721.556-.321.002.639-.556.321zm-.002-.715.556-.321.002.639-.556.32zm-.004-.712.559-.328v.64l-.552.319zm-.6 7.527.552-.32v.64l-.552.32zm-.002-.717.55-.318.003.64-.551.317zm-.002-.715.55-.318.003.639-.551.318zm-.002-.72.55-.319.003.639-.551.318zm-.002-.716.55-.318.003.639-.551.318zm-.002-.716.55-.318.003.634-.551.318zm-.002-.72.55-.319.003.64-.551.317zm-.002-.716.55-.318.003.639-.551.318zm-.002-.72.55-.319.003.639-.552.318zm-.002-.716.55-.318.003.64-.551.317zm-.006-.712.552-.32.008.632-.552.32zm-.048 7.131-.556.322-.002-.64.557-.32zm-.559.396.56-.319v.64l-.552.319zm0-1.429.556-.32.001.638-.556.321zm-.003-.72.557-.321.001.638-.556.321zm-.002-.716.556-.321.002.64-.556.32zm-.002-.715.556-.321.002.633-.556.321zm-.002-.721.556-.321.002.639-.556.321zm-.002-.715.556-.321.002.638-.556.321zm-.002-.721.556-.321.002.638-.556.321zm-.002-.716.556-.32.002.638-.556.322zm-.001-.714.551-.32.008.631-.559.32zm-.6 7.527.552-.32v.64l-.551.32zm-.005-.714.556-.321.002.64-.556.32zm-.002-.715.556-.321.002.639-.556.32zm-.002-.721.556-.321.002.639-.556.32zm-.002-.716.556-.32.002.638-.556.321zm-.002-.715.556-.32.002.632-.556.321zm-.002-.72.556-.322.002.64-.556.32zm-.002-.716.556-.321.002.639-.556.32zm-.002-.721.556-.321.002.639-.556.32zm-.002-.715.556-.321.002.639-.556.32zm-.002-.715.56-.319V74l-.56.32zm-.607 7.528.559-.32v.64l-.56.319zm-.002-.712.556-.32.001.638-.556.321zm-.002-.715.556-.321.001.64-.556.32zm-.003-.72.557-.322.001.64-.556.32zm-.002-.716.557-.321.001.639-.556.32zm-.002-.716.557-.32.001.633-.556.32zm-.002-.72.556-.321.002.638-.556.321zm-.002-.716.556-.321.002.64-.556.32zm-.002-.72.556-.322.002.64-.556.32zm-.002-.716.556-.32.002.638-.556.321zm-.005-.717.559-.32v.632l-.551.32zm-.688 1.039-.551.312v-.632l.551-.32zm.624-.368-.552.32v-.631l.552-.32zm-.536 6.856.56-.32v.64l-.56.32zm0-.711.555-.321.002.639-.556.32zm-.003-.715.556-.322.002.64-.556.32zm-.002-.722.556-.32.002.638-.556.321zm-.002-.715.556-.32.002.638-.556.321zm-.002-.715.556-.321.002.633-.556.321zm-.002-.721.556-.321.002.639-.556.32zm-.002-.716.556-.32.002.638-.556.322zm-.002-.72.556-.322.002.64-.556.32zm-.002-.715.556-.321.002.639-.556.32zm-.606 6.81.551-.312v.64l-.551.311zm0-.712.55-.318.003.64-.551.317zm-.002-.715.55-.318.002.639-.55.318zm-.002-.721.55-.318.002.639-.55.318zm-.002-.715.55-.319.002.64-.55.317zm-.002-.716.55-.318.002.633-.55.318zm-.002-.72.55-.319.002.64-.55.317zm-.002-.716.55-.318.002.639-.55.318zm-.003-.721.551-.318.002.639-.55.318zm-.002-.715.551-.318.002.639-.55.318zm-.606 6.819.551-.32.008.64-.56.319zm-.005-.718.556-.321.002.64-.556.32zm-.002-.715.556-.32.002.638-.556.321zm-.002-.72.556-.322.002.639-.556.32zm-.002-.716.556-.321.002.639-.556.32zm-.002-.715.556-.322.002.634-.556.32zm-.002-.721.556-.322.002.64-.556.32zm-.002-.716.556-.32.002.638-.556.321zm-.002-.72.556-.322.002.64-.556.32zm-.002-.716.556-.32.002.638-.556.321zm-.003-.711.56-.328v.64l-.56.32zm-.6 7.527.552-.32.008.64-.56.32zm-.003-.718.556-.32.002.639-.556.32zm-.002-.714.556-.321.002.638-.556.321zm-.002-.721.556-.321.002.638-.556.321zm-.002-.716.556-.32.002.638-.557.321zm-.002-.715.556-.321.002.633-.556.321zm-.002-.721.556-.321.002.639-.557.32zm-.002-.715.556-.321.001.639-.556.32zm-.002-.721.556-.321.001.639-.556.32zm-.002-.716.556-.32.001.638-.556.322zm-.005-.719.56-.32v.64l-.56.32zm-.063.68-.56.32v-.632l.552-.32zm.014 6.459-.556.321-.002-.64.556-.32zm-.558.397.56-.32v.64l-.56.319zm-.002-1.43.556-.321.002.639-.556.32zm-.002-.721.556-.321.002.639-.556.32zm-.002-.715.556-.322.002.64-.556.32zm-.002-.716.556-.32.002.632-.556.322zm-.002-.72.556-.322.002.639-.556.321zm-.002-.716.556-.321.002.639-.556.32zm-.002-.721.556-.321.002.639-.556.32zm-.002-.715.556-.321.002.639-.556.321zm-.048 6.416-.556.321-.002-.639.556-.32zm-.56.397.56-.32v.64l-.551.32zm0-1.43.556-.321.002.639-.556.321zm-.002-.721.556-.321.002.639-.556.321zm-.002-.715.556-.321.002.639-.556.32zm-.002-.715.556-.321.002.633-.556.32zm-.002-.721.556-.321.002.638-.556.321zm-.002-.716.556-.321.002.64-.557.32zm-.002-.721.556-.321.002.639-.557.321zm-.002-.715.556-.32.001.638-.556.32zm-.001-.713.551-.32.008.631-.56.32zm-.604 7.45-.002-.638.557-.322.001.64zm-.003.077.559-.32v.64l-.551.319zm0-1.43.556-.322.001.64-.556.32zm-.003-.722.556-.32.002.638-.556.321zm-.002-.715.556-.32.002.638-.556.321zm-.002-.715.556-.321.002.633-.556.321zm-.002-.721.556-.321.002.639-.556.32zm-.002-.716.556-.32.002.638-.556.321zm-.002-.72.556-.321.002.638-.556.321zm-.002-.715.556-.322.002.64-.556.32zm-.001-.714.559-.32v.632l-.56.32zm-.608 7.527.56-.32v.64l-.56.32zm-.002-.712.556-.322.002.64-.556.321zm-.002-.715.556-.321.002.639-.556.32zm-.002-.721.556-.321.002.639-.556.32zm-.002-.715.556-.322.002.64-.556.32zm-.002-.716.556-.321.002.633-.556.321zm-.002-.721.556-.321.002.639-.556.321zm-.002-.715.556-.321.002.639-.556.321zm-.002-.721.556-.321.002.639-.556.32zm-.002-.715.556-.321.002.639-.557.32zm-.006-.716.56-.32v.631l-.552.32zm-.064.67-.551.32v-.631l.551-.32zm-.535 6.857.56-.32v.64l-.56.32zm-.002-.713.557-.32.001.638-.556.321zm-.002-.715.557-.32.001.638-.556.321zm-.002-.72.557-.322.001.64-.556.32zm-.002-.716.556-.321.002.639-.556.32zm-.002-.716.557-.32.001.632-.556.322zm-.002-.72.556-.322.002.64-.556.32zm-.002-.716.556-.32.002.638-.556.321zm-.002-.72.556-.322.002.64-.556.32zm-.002-.716.556-.32.002.638-.556.321zm-.605 6.82.551-.328v.64l-.551.327v-.64zm-.006-.719.556-.32.002.638-.556.322zm-.002-.715.556-.32.002.638-.556.321zm-.002-.72.556-.322.002.64-.556.32zm-.002-.716.556-.321.002.64-.556.32zm-.002-.715.556-.321.002.633-.556.321zm-.002-.721.556-.321.002.639-.556.321zm-.002-.716.556-.32.002.638-.556.321zm-.002-.72.556-.322.002.64-.556.32zm-.002-.716.556-.32.002.638-.556.322zm-.002-.718.56-.32v.632l-.56.327zm-.6 7.535.552-.328v.64l-.551.327zm-.004-.718.556-.321.001.64-.556.32zm-.002-.715.556-.322.001.64-.556.32zm-.003-.721.557-.321.001.639-.556.32zm-.002-.716.556-.32.002.638-.556.321zm-.002-.715.557-.32.001.632-.556.321zm-.002-.72.556-.322.002.64-.556.32zm-.002-.716.556-.321.002.639-.556.32zm-.002-.721.556-.321.002.639-.556.32zm-.002-.715.556-.321.002.639-.556.32zm-.002-.719.559-.32v.632l-.56.328zm-.6 7.535.552-.327.008.64-.56.327zm-.004-.718.556-.321.002.64-.556.32zm-.002-.715.556-.32.002.638-.556.321zm-.002-.721.556-.32.002.638-.556.321zm-.002-.715.556-.321.002.639-.556.32zm-.002-.715.556-.322.002.634-.556.32zm-.002-.722.556-.32.002.638-.556.322zm-.002-.715.556-.32.002.638-.556.321zm-.002-.72.556-.322.002.639-.556.321zm-.002-.716.556-.32.002.638-.556.321zm-.004-.718.56-.32v.632l-.56.327zm-.607 7.535.56-.32v.64l-.56.32zm0-.715.556-.322.002.64-.556.32zm-.002-.716.556-.32.001.638-.556.321zm-.002-.72.556-.322.001.64-.556.32zm-.002-.716.556-.32.001.638-.556.32zm-.003-.715.557-.321.001.633-.556.321zm-.002-.721.557-.321.001.639-.556.32zm-.002-.716.557-.32.001.638-.556.321zm-.002-.72.556-.322.002.64-.556.32zm-.001-.717.56-.32v.64l-.56.319zm0-.712.551-.32v.632l-.551.32z" fill="#ffffff"></path></g><path d="m53.686 79.042-.003 9.692-.463.269.004-9.692z" fill="#4c525d"></path><path d="m53.224 79.311-.004 9.692-.465-.269.003-9.692z" fill="#555b66"></path><path d="m53.686 79.042-.462.27-.466-.27.463-.268z" fill="#5f656f"></path><path d="m6.045 68.451-.021 7.687-1.503.873.022-7.686z" fill="#c1c1c1"></path><path d="m4.928 69.547-.022 7.687-.382.222.021-7.687z" fill="#c1c1c1"></path><path d="m3.763 70.224-.022 7.687-1.173-.677.022-7.687z" fill="#dadada"></path><path d="m4.146 70.002-.022 7.686-.383.223.022-7.687z" fill="#c1c1c1"></path><path d="m16.012 76.826-.021 7.687-11.867-6.825.022-7.686z" fill="#cccccc"></path><path d="m17.968 77.049-.022 7.686-.383.223.022-7.687z" fill="#c1c1c1"></path><path d="m16.802 77.726-.021 7.686-1.173-.677.022-7.686z" fill="#dadada"></path><path d="m17.185 77.503-.021 7.687-.383.222.022-7.686z" fill="#c1c1c1"></path><path d="m27.85 83.64-.022 7.687-10.665-6.137.022-7.687z" fill="#cccccc"></path><path d="m126.209 81.456-.022 7.687-1.848-1.067.022-7.687z" fill="#dadada"></path><path d="m29.805 83.863-.022 7.686-.383.223.022-7.687z" fill="#c1c1c1"></path><path d="m126.211 81.902-.022 7.687-.386-.223.022-7.687zM28.64 84.54l-.022 7.686-1.173-.677.022-7.686z" fill="#dadada"></path><path d="m29.022 84.317-.021 7.687-.383.223.022-7.687zM128.163 81.68l-.022 7.686-1.165.677.021-7.687z" fill="#c1c1c1"></path><path d="m126.998 82.356-.022 7.687-.386-.223.022-7.686z" fill="#dadada"></path><path d="m39.687 90.454-.022 7.687-10.664-6.137.021-7.687z" fill="#cccccc"></path><path d="m29.502 91.716.018-6.535 9.666 5.562-.019 6.535z" fill="#8a96ae"></path><path d="m30.003 91.427.015-5.383 8.667 4.988-.015 5.383z" fill="#7e8a9b"></path><path d="m34.183 94.41.018-6.536.304.175-.019 6.535z" fill="#8a96ae"></path><path d="m126.612 82.134-.022 7.686-11.587 6.683.022-7.686z" fill="#cccccc"></path><path d="m41.642 90.677-.022 7.686-.383.223.022-7.687z" fill="#c1c1c1"></path><path d="m113.459 89.262-.022 7.687-.386-.223.021-7.687zM40.477 91.354l-.022 7.687-1.173-.677.022-7.687z" fill="#dadada"></path><path d="m40.86 91.132-.022 7.686-.383.223.022-7.687z" fill="#c1c1c1"></path><path d="m114.245 89.716-.022 7.687-.385-.223.022-7.686z" fill="#dadada"></path><path d="m115.41 89.04-.021 7.686-1.166.677.022-7.687z" fill="#c1c1c1"></path><path d="m51.524 97.269-.022 7.686-10.664-6.137.022-7.686zM113.86 89.494l-.022 7.686-11.587 6.683.022-7.686z" fill="#cccccc"></path><path d="m53.479 97.491-.022 7.687-.383.222.022-7.687z" fill="#c1c1c1"></path><path d="m100.707 96.622-.022 7.687-.387-.223.022-7.687zM52.314 98.168l-.022 7.687-1.173-.677.022-7.687z" fill="#dadada"></path><path d="m52.697 97.946-.022 7.686-.383.223.022-7.687z" fill="#c1c1c1"></path><path d="m101.493 97.076-.022 7.687-.385-.223.022-7.686z" fill="#dadada"></path><path d="m102.658 96.4-.022 7.686-1.165.677.022-7.687z" fill="#c1c1c1"></path><path d="m63.361 104.083-.022 7.686-10.664-6.137.022-7.686zM101.108 96.854l-.022 7.686-11.587 6.683.021-7.686z" fill="#cccccc"></path><path d="m65.316 104.305-.022 7.687-.383.222.022-7.686z" fill="#c1c1c1"></path><path d="m87.954 103.982-.022 7.687-.386-.223.022-7.687z" fill="#dadada"></path><path d="m64.534 104.76-.022 7.686-.383.223.022-7.687z" fill="#c1c1c1"></path><path d="m64.151 104.982-.022 7.687-1.173-.677.022-7.687zM88.74 104.436l-.021 7.687-.386-.223.022-7.686z" fill="#dadada"></path><path d="m89.906 103.76-.022 7.686-1.165.677.022-7.687z" fill="#c1c1c1"></path><path d="m88.355 104.214-.022 7.686-11.587 6.683.022-7.686z" fill="#cccccc"></path><path d="m75.198 110.897-.022 7.686-10.664-6.137.022-7.686z" fill="#dadada"></path><path d="m75.988 111.796-.022 7.687-1.172-.677.021-7.687z" fill="#dadada"></path><path d="m128.163 81.68-1.166.676-.385-.222-11.587 6.683.385.222-1.165.677-.385-.222-11.587 6.683.385.222-1.165.677-.385-.222-11.588 6.683.386.222-1.165.677-.386-.222-11.587 6.683.385.222-1.165.677-1.173-.677.383-.222-10.664-6.137-.383.222-1.173-.677.383-.222-10.664-6.137-.383.222-1.173-.677.383-.222-10.664-6.137-.383.222-1.173-.677.383-.223-10.665-6.137-.382.223-1.173-.677.383-.223-10.665-6.137-.382.223-1.173-.677.383-.223-11.867-6.824-.383.222-1.173-.677 1.165-.677.386.222 1.502-.873.402.232-1.502.874.385.222-.383.223 11.867 6.824.383-.222 1.173.677-.383.222 10.664 6.137.383-.222 1.173.677-.383.222 10.664 6.137.383-.222 1.173.677-.383.222 10.664 6.137.383-.222 1.173.677-.383.223 10.665 6.136.382-.222 1.173.677-.383.223 10.665 6.137.383-.223.386.223 11.587-6.683-.386-.223 1.165-.677.386.223 11.588-6.683-.387-.223 1.165-.677.387.223 11.587-6.683-.387-.223 1.166-.677.386.223 11.587-6.683-.386-.223.384-.223-1.848-1.067.398-.232 1.848 1.067.383-.222z" fill="#ebebeb"></path><path d="m77.153 111.12-.022 7.686-1.165.677.022-7.687z" fill="#c1c1c1"></path></g></svg>