<svg id="Icons" height="512" viewBox="0 0 60 60" width="512" xmlns="http://www.w3.org/2000/svg"><path d="m51 4a2 2 0 0 1 2 2v51a2 2 0 0 1 -2 2h-42a2 2 0 0 1 -2.005-2v-51a2 2 0 0 1 2.005-2z" fill="#cb8252"/><path d="m47 8a2 2 0 0 1 2 2v44a1 1 0 0 1 -1 1h-36a.982.982 0 0 1 -1-.96v-44.04a2 2 0 0 1 2-2z" fill="#ecf0f1"/><rect fill="#7ed09e" height="10" rx="1" width="10" x="15" y="13"/><rect fill="#e64c3c" height="10" rx="1" width="10" x="15" y="27"/><rect fill="#7ed09e" height="10" rx="1" width="10" x="15" y="41"/><g fill="#547580"><path d="m29 17h16a1 1 0 0 0 0-2h-16a1 1 0 0 0 0 2z"/><path d="m45 19h-16a1 1 0 0 0 0 2h16a1 1 0 0 0 0-2z"/><path d="m45 29h-16a1 1 0 0 0 0 2h16a1 1 0 0 0 0-2z"/><path d="m45 33h-16a1 1 0 0 0 0 2h16a1 1 0 0 0 0-2z"/><path d="m45 43h-16a1 1 0 0 0 0 2h16a1 1 0 0 0 0-2z"/><path d="m45 47h-16a1 1 0 0 0 0 2h16a1 1 0 0 0 0-2z"/><path d="m21.414 32 1.292-1.293a1 1 0 1 0 -1.414-1.414l-1.292 1.293-1.293-1.293a1 1 0 0 0 -1.414 1.414l1.293 1.293-1.293 1.293a1 1 0 0 0 1.414 1.414l1.293-1.293 1.293 1.293a1 1 0 0 0 1.414-1.414z"/><path d="m18.293 20.707a1 1 0 0 0 1.507-.107l3-4a1 1 0 1 0 -1.6-1.2l-2.308 3.078-.185-.185a1 1 0 0 0 -1.414 1.414z"/><path d="m21.2 43.4-2.308 3.078-.185-.185a1 1 0 0 0 -1.414 1.414c1.028 1.028 1.187 1.293 1.707 1.293a1 1 0 0 0 .8-.4l3-4a1 1 0 1 0 -1.6-1.2z"/></g><path d="m33.456 3a3.994 3.994 0 0 0 -6.92 0h-4.536a2 2 0 0 0 -2 2v2a2 2 0 0 0 2 2h16a2 2 0 0 0 2-2v-2a2 2 0 0 0 -2-2z" fill="#d1d4d1"/></svg>