<svg viewBox="0 0 512 512" xmlns="http://www.w3.org/2000/svg"><g><path d="M40.371 71.022v163.403c0 9.824 7.964 17.788 17.788 17.788h291.304c9.824 0 17.788-7.964 17.788-17.788V71.022c0-36.086-29.254-65.34-65.34-65.34a48.402 48.402 0 0 0-30.496 10.816l-3.584 2.909a3.145 3.145 0 0 1-3.778.14l-7.475-5.199a48.402 48.402 0 0 0-27.635-8.665H105.71c-36.086-.001-65.339 29.253-65.339 65.339z" fill="#365e7d"></path><path d="M301.91 5.682a48.37 48.37 0 0 0-16.086 2.754c26.929 8.071 46.557 33.03 46.557 62.586v163.403c0 9.824-7.964 17.788-17.788 17.788h34.868c9.824 0 17.788-7.964 17.788-17.788V71.022c.001-36.086-29.253-65.34-65.339-65.34z" fill="#2b4d66"></path><path d="M250.439 349.541h-93.257c-38.114 0-69.012 30.898-69.012 69.012v84.658A8.789 8.789 0 0 0 96.959 512h213.702a8.789 8.789 0 0 0 8.789-8.789v-84.658c.001-38.114-30.897-69.012-69.011-69.012z" fill="#dd636e"></path><path d="M250.439 349.541h-33.627c38.114 0 69.012 30.898 69.012 69.012v84.658a8.789 8.789 0 0 1-8.789 8.789h33.627a8.789 8.789 0 0 0 8.789-8.789v-84.658c-.001-38.115-30.898-69.012-69.012-69.012z" fill="#da4a54"></path><path d="m223.045 298.654-36.9-2.171c-9.421 0-9.835 44.14-9.835 44.14v27.021c0 15.174 12.301 27.475 27.475 27.475 15.174 0 27.475-12.301 27.475-27.475v-27.021s1.206-41.969-8.215-41.969z" fill="#eaac9d"></path><path d="M203.81 349.541c-73.225 0-132.585-59.36-132.585-132.584v-80.191a3.49 3.49 0 0 1 3.491-3.483c61.363-.113 115.597-8.902 163.972-40.162 1.445-.934 3.377-.636 4.413.739 21.846 29.002 51.641 37.027 89.818 39.236a3.676 3.676 0 0 1 3.475 3.662v80.199c.001 73.224-59.359 132.584-132.584 132.584z" fill="#ffcbbe"></path><path d="M332.92 133.095c-11.234-.65-21.736-1.811-31.529-3.854v87.716c0 67.291-50.131 122.867-115.083 131.433a133.846 133.846 0 0 0 17.502 1.151c73.224 0 132.584-59.36 132.584-132.584v-80.199a3.675 3.675 0 0 0-3.474-3.663z" fill="#eaac9d"></path><path d="M239.079 288.248a7.64 7.64 0 0 1-6.684-3.926c-6.324-11.363-17.802-19.018-30.703-20.476-12.897-1.464-25.796 3.441-34.5 13.105a7.638 7.638 0 0 1-10.79.565 7.64 7.64 0 0 1-.565-10.79c11.997-13.323 29.774-20.079 47.573-18.065 17.792 2.012 33.62 12.565 42.339 28.229a7.642 7.642 0 0 1-6.67 11.358z" fill="#da4a54"></path><path d="M147.514 214.479a7.641 7.641 0 0 1-7.641-7.641v-5.388a7.641 7.641 0 0 1 15.282 0v5.388a7.641 7.641 0 0 1-7.641 7.641zM260.106 214.479a7.641 7.641 0 0 1-7.641-7.641v-5.388c0-4.22 3.42-7.641 7.641-7.641s7.641 3.421 7.641 7.641v5.388a7.642 7.642 0 0 1-7.641 7.641z" fill="#365e7d"></path><path d="M158.85 207.991c-1.126 0-2.27-.25-3.351-.778l-23.71-11.597a7.64 7.64 0 0 1 6.713-13.727l23.71 11.597a7.64 7.64 0 0 1-3.362 14.505zM248.77 207.991a7.64 7.64 0 0 1-3.363-14.506l23.71-11.597a7.64 7.64 0 1 1 6.713 13.727l-23.71 11.597a7.605 7.605 0 0 1-3.35.779zM455.565 101.71a7.614 7.614 0 0 1-5.288-2.127 32.989 32.989 0 0 1-7.938-11.886c-6.678-17.08 1.785-36.41 18.865-43.088a7.64 7.64 0 1 1 5.565 14.231c-9.233 3.61-13.808 14.06-10.197 23.293a17.824 17.824 0 0 0 4.283 6.422 7.64 7.64 0 0 1-5.29 13.155zM430.968 113.813a7.641 7.641 0 0 1-7.634-8.105 17.82 17.82 0 0 0-1.208-7.623 17.866 17.866 0 0 0-9.535-9.924 17.875 17.875 0 0 0-13.758-.275 7.64 7.64 0 1 1-5.565-14.231c8.274-3.237 17.315-3.055 25.452.508 8.139 3.563 14.403 10.083 17.638 18.357a32.977 32.977 0 0 1 2.229 14.117 7.64 7.64 0 0 1-7.619 7.176zM447.343 42.46c-4.532 0-9.054-.938-13.33-2.81-8.139-3.563-14.403-10.083-17.638-18.357a33.022 33.022 0 0 1-2.23-14.117c.256-4.212 3.885-7.414 8.091-7.163a7.641 7.641 0 0 1 7.162 8.091 17.821 17.821 0 0 0 1.209 7.624 17.862 17.862 0 0 0 9.534 9.923 17.861 17.861 0 0 0 13.758.275 7.641 7.641 0 0 1 5.565 14.232 33.235 33.235 0 0 1-12.121 2.302zM388.749 69.73a7.641 7.641 0 0 1-2.784-14.758c9.233-3.61 13.808-14.059 10.197-23.293a17.824 17.824 0 0 0-4.283-6.422 7.64 7.64 0 0 1-.225-10.803 7.64 7.64 0 0 1 10.802-.225 33.002 33.002 0 0 1 7.938 11.886c6.679 17.081-1.785 36.411-18.865 43.089a7.627 7.627 0 0 1-2.78.526z" fill="#2b4d66"></path></g></svg>