<svg viewBox="0 0 497 497" xmlns="http://www.w3.org/2000/svg"><g><path d="M299.93 101.65v128.26h-96.18c-9.71 0-18.42-4.32-24.3-11.13a31.95 31.95 0 0 1-7.78-20.95v-59.98c0-20 16.2-36.2 36.2-36.2z" fill="#ffb09e"></path><path d="M299.93 101.65v128.26h-96.18c-9.71 0-18.42-4.32-24.3-11.13h.26c5.83-.01 11.52-1.76 16.34-5.03l1.63-1.12a49.388 49.388 0 0 0 21.49-37.2l3.08-41.46c.74-10-1.19-20.01-5.6-29.02l-1.62-3.3z" fill="#f99e8a"></path><path d="m424.787 303.188-67.379-152.273-60.327-112.104A79.45 79.45 0 0 0 228.811 0h-86.719a79.453 79.453 0 0 0-38.749 10.09L91.01 16.98c-17.054 9.528-20.273 32.716-6.46 46.529 10.24 13.648 29.186 17.256 43.726 8.329a33.079 33.079 0 0 1 16.753-4.885l59.828-.661a34.128 34.128 0 0 1 31.216 19.1l9.59 19.562a56.412 56.412 0 0 1 5.605 29.014l-3.08 41.458a49.424 49.424 0 0 1-21.491 37.206l-1.635 1.112a29.043 29.043 0 0 1-16.335 5.03l-21.16.002a29.047 29.047 0 0 1-19-7.073l-8.355-7.223-58.106-50.233c-19.293-13.457-45.453-11.12-62.061 5.524-4.793 3.475-7.226 8.808-7.226 14.164 0 4.925 2.061 9.874 6.243 13.373L78.739 220.6a53.505 53.505 0 0 1 9.551 10.449l51.389 73.666a68.583 68.583 0 0 0 38.16 26.917l8.646 2.364 21.864 5.979a17.587 17.587 0 0 1 12.948 16.965v89.272h220.274v-63.616c0-27.349-5.717-54.397-16.784-79.408z" fill="#ffcebf"></path><path d="m424.787 303.188-67.379-152.274-60.327-112.103A79.45 79.45 0 0 0 228.811 0h-29.016a79.448 79.448 0 0 1 68.269 38.811l51.174 95.782 76.532 168.595a196.25 196.25 0 0 1 16.784 79.41v63.616h29.016v-63.616a196.232 196.232 0 0 0-16.783-79.41z" fill="#ffb09e"></path><path d="M451.429 497H207.806c-7.043 0-12.752-5.709-12.752-12.752v-57.012c0-7.043 5.709-12.752 12.752-12.752h243.623c7.043 0 12.752 5.709 12.752 12.752v57.012c0 7.043-5.71 12.752-12.752 12.752z" fill="#cde2ff"></path><path d="M451.429 414.484h-27.016c7.043 0 12.752 5.709 12.752 12.752v57.012c0 7.043-5.709 12.752-12.752 12.752h27.016c7.043 0 12.752-5.709 12.752-12.752v-57.012c0-7.043-5.71-12.752-12.752-12.752z" fill="#b3dafe"></path><circle cx="254.612" cy="455.742" fill="#26a6fe" r="15.191"></circle></g></svg>