<svg height="512" viewBox="0 0 64 64" width="512" xmlns="http://www.w3.org/2000/svg"><g id="_23-man" data-name="23-man"><path d="m1 63 2.761-10.729a6 6 0 0 1 3.739-2.929l18.5-4.342h12l18.5 4.342a6 6 0 0 1 3.741 2.929l2.759 10.729z" fill="#47323b"/><path d="m32 60 7.686-14.604-1.686-.396h-12l-1.686.396z" fill="#f8ead3"/><path d="m38 45-6 2-6-2v-5h12z" fill="#f8ead3"/><path d="m32 7c-13 0-13 11-13 11v14c0 6.213 5 11 13 11s13-4.787 13-11v-14s0-11-13-11z" fill="#ffc19e"/><path d="m45 29a4 4 0 0 0 0-8z" fill="#f0a47d"/><path d="m19 29a4 4 0 0 1 0-8z" fill="#f0a47d"/><path d="m32 35s-1 5-8 4c0 0 2 0 2-4s6-3 6 0z" fill="#47323b"/><path d="m32 35s1 5 8 4c0 0-2 0-2-4s-6-3-6 0z" fill="#47323b"/><circle cx="32" cy="32" fill="#f0a47d" r="3"/><circle cx="38" cy="26" fill="#f8ead3" r="4"/><path d="m45 17h-26l-.541-7.573a6 6 0 0 1 5.985-6.427h15.112a6 6 0 0 1 5.985 6.427z" fill="#47323b"/><path d="m18.714 13 .286 4h26l.286-4z" fill="#753511"/><rect fill="#634653" height="4" rx="1" width="38" x="13" y="17"/><path d="m24 43 8 4-8 4z" fill="#ba2140"/><path d="m40 43-8 4 8 4z" fill="#ba2140"/><path d="m26 28a1 1 0 0 1 -1-1v-2a1 1 0 0 1 2 0v2a1 1 0 0 1 -1 1z" fill="#47323b"/><path d="m38 28a1 1 0 0 1 -1-1v-2a1 1 0 0 1 2 0v2a1 1 0 0 1 -1 1z" fill="#47323b"/><path d="m45 25h-2.1a5 5 0 1 0 0 2h2.1zm-7 4a3 3 0 1 1 3-3 3 3 0 0 1 -3 3z" fill="#d6a117"/></g></svg>