<svg viewBox="0 0 64 64" xmlns="http://www.w3.org/2000/svg"><g><circle cx="45" cy="15" fill="#e6eef3" r="12"></circle><g fill="#7cb2f8"><path d="M9 31h11v2H9zM2 38h10v2H2zM6 45h5v2H6zM2 52h8v2H2z" fill="#7cb2f8"></path></g><path d="m40.515 19.857-1.03-1.714L44 15.434V7h2v9a1 1 0 0 1-.485.857z" fill="#4f5d75"></path><circle cx="29" cy="35.5" fill="#4f5d75" r="3.5"></circle><path d="M18.7 38.419 14 45h4l2-3h4l-5 13h-5l-2 4h9.323a1 1 0 0 0 .928-.629L24 54l6 2 2 6h4l-2.853-8.56a1 1 0 0 0-.578-.612L28 51l3-7 4.583 1.833a1 1 0 0 0 .817-.033L42 43v-4l-6 3-1.666-.833A30 30 0 0 0 20.918 38h-1.4a1 1 0 0 0-.818.419z" fill="#4f5d75"></path><path d="M61.45 13.783A.5.5 0 0 0 61 13.5h-3.1a12.982 12.982 0 1 0-2.343 9.083l-1.625-1.166a11.01 11.01 0 1 1 1.954-7.917H53a.5.5 0 0 0-.391.812l4 5a.5.5 0 0 0 .782 0l4-5a.5.5 0 0 0 .059-.529z" fill="#d98285"></path></g></svg>