<svg viewBox="0 0 512 512" xmlns="http://www.w3.org/2000/svg"><g><path d="m211.784 334.247-34.026-34.026-34.025 34.026 7.859 28.463 26.166 5.563z" fill="#554e56"></path><path d="m171.525 394.194-11.198 11.209-10.93 10.92-58.401 58.402-10.93 10.93-2.823 2.823c-12.805 12.816-31.41 26.62-47.388 20.81a45.01 45.01 0 0 1-16.472-10.508l-.155-.154c-17.637-17.637-17.637-46.235 0-63.862l7.974-7.974 10.462-2.22.469-8.71 58.401-58.402 10.766-1.499.154-9.431 11.826-11.827s20.346-.258 26.383 5.779l31.863 31.864c6.036 6.037 6.036 15.824-.001 21.85z" fill="#7a6d79"></path><path d="m181.828 372.345-42.167-42.168c-6.035-6.035-15.819-6.035-21.854 0l-4.526 4.526 37.641 37.642c6.035 6.035 6.035 15.819 0 21.854L46.342 498.781a44.976 44.976 0 0 1-16.479 10.501c15.977 5.806 34.571 2.312 47.385-10.501l7.973-7.973 1.192-9.433 9.736-1.494 58.401-58.402 1.499-8.71 9.428-2.217 16.352-16.353c6.033-6.035 6.033-15.819-.001-21.854z" fill="#685e68"></path><ellipse cx="319.527" cy="192.476" fill="#7a6d79" rx="192.473" ry="192.476"></ellipse><path d="M427.711 301.085c-12.259 15.474-76.965 45.112-122.921 40.754a1.87 1.87 0 0 1-.247-.021c-35.747-3.441-60.266-8.551-87.648-35.933-1.576-1.576-13.413-3.173-14.907-4.801-57.989-62.914-56.454-160.968 4.605-222.028 27.382-27.383 62.201-42.794 97.954-46.235 46.03-4.43 108.664 35.539 128.634 59.584 32.206 38.782 47.662 141.614-5.47 208.68z" fill="#efedef"></path><path d="M427.711 301.085c-1.494 1.628-4.605 4.801-4.605 4.801s-72.36 50.613-118.316 46.256a1.87 1.87 0 0 1-.247-.021c-35.747-3.441-70.567-18.853-97.95-46.235a155.017 155.017 0 0 1-4.605-4.801c14.247-26.507 42.237-44.525 74.441-44.525h11.569v-29.876c-19.141-11.064-32.018-31.761-32.018-55.466v-42.681c0-17.688 7.17-33.687 18.749-45.277 8.09-8.09 18.342-14.028 29.814-16.872 4.949-1.227 10.138.836 15.452 1.213 24.164 1.712 53.724 25.569 53.724 60.936v42.681c0 23.705-12.877 44.402-32.018 55.466l-.694 28.674 22.565 4.292c32.203.001 49.891 14.928 64.139 41.435z" fill="#fed2a4"></path><path d="M438.009 301.079c57.986-62.921 56.46-160.958-4.599-222.018-35.253-35.253-82.833-50.664-128.864-46.234 35.755 3.441 70.576 18.851 97.958 46.234 54.865 54.866 61.668 139.591 20.416 201.865 3.327 3.287-3.919 17.15-1.171 20.949 2.189 3.025 14.482-4.103 16.26-.796z" fill="#d7d0d6"></path><path d="M438.012 301.085c-14.247-26.507-42.237-44.525-74.441-44.525h-4.358a7.211 7.211 0 0 1-7.211-7.211v-18.654c0-2.451 1.263-4.705 3.306-6.058 17.303-11.458 28.712-31.106 28.712-53.418v-41.735c0-35.037-27.757-64.287-62.787-64.961a64.148 64.148 0 0 0-16.688 1.877c27.895 6.914 48.569 32.102 48.569 62.137v42.681c0 21.58-10.672 40.666-27.026 52.262-3.099 2.197-4.992 5.714-4.992 9.513v11.997c0 6.389 5.18 11.569 11.569 11.569 29.813 0 56.015 15.442 71.045 38.766 2.144 3.327 1.637 7.711-1.158 10.513l-.048.048c-27.383 27.383-62.203 42.794-97.958 46.235 46.031 4.43 93.611-10.982 128.864-46.235a163.067 163.067 0 0 0 4.593-4.802h.009z" fill="#ffbd86"></path><path d="m154.449 411.276-15.351-5.252-48.566-48.567 10.92-10.93 48.571 48.571zM85.716 480.004l-15.949-4.648-48.566-48.566 10.93-10.931 48.566 48.566z" fill="#efedef"></path><path d="m139.037 406 10.925-10.925 15.451 15.451-10.925 10.925zM80.695 464.428l-10.927 10.927 15.452 15.453 10.927-10.927v-.001z" fill="#d7d0d6"></path><path d="M320 220.275a7.726 7.726 0 0 1-7.726-7.726v-34.348a7.726 7.726 0 0 1 7.726-7.727c6.952 0 13.422-2.782 18.216-7.832 4.792-5.046 7.231-11.665 6.869-18.636-.678-13.065-11.468-23.505-24.564-23.77-12.731-.226-23.645 9.032-25.4 21.604a25.524 25.524 0 0 0-.243 3.513 7.726 7.726 0 1 1-15.452 0c0-1.888.131-3.789.391-5.649 2.837-20.32 20.489-35.356 41.016-34.917 21.157.427 38.589 17.302 39.684 38.418.584 11.245-3.356 21.927-11.094 30.077-5.931 6.248-13.452 10.344-21.696 11.919v27.347a7.728 7.728 0 0 1-7.727 7.727zM319.527 251.383a7.726 7.726 0 0 1-7.726-7.727 7.726 7.726 0 1 1 15.452 0 7.726 7.726 0 0 1-7.726 7.727z" fill="#7a6d79"></path></g></svg>