<svg viewBox="0 0 512 512" xmlns="http://www.w3.org/2000/svg"><g><g fill="#454045"><path d="M256 316.187a7.837 7.837 0 0 1-7.837-7.837v-48.741c0-4.328 3.508-7.837 7.837-7.837s7.837 3.509 7.837 7.837v48.741a7.836 7.836 0 0 1-7.837 7.837zM429.624 278.313a7.837 7.837 0 0 1-7.837-7.837v-50.479c0-4.328 3.508-7.837 7.837-7.837s7.837 3.509 7.837 7.837v50.479a7.838 7.838 0 0 1-7.837 7.837zM82.377 278.313a7.837 7.837 0 0 1-7.837-7.837v-50.479c0-4.328 3.508-7.837 7.837-7.837s7.837 3.509 7.837 7.837v50.479a7.838 7.838 0 0 1-7.837 7.837z" fill="#454045"></path></g><g fill="#665e66"><path d="M411.726 294.991a7.837 7.837 0 0 1-7.837-7.837v-31.272c0-4.328 3.508-7.837 7.837-7.837s7.837 3.509 7.837 7.837v31.272a7.837 7.837 0 0 1-7.837 7.837zM447.521 294.991a7.837 7.837 0 0 1-7.837-7.837v-31.272c0-4.328 3.508-7.837 7.837-7.837s7.837 3.509 7.837 7.837v31.272a7.837 7.837 0 0 1-7.837 7.837z" fill="#665e66"></path></g><g fill="#665e66"><path d="M65.167 294.991a7.837 7.837 0 0 1-7.837-7.837v-31.272c0-4.328 3.508-7.837 7.837-7.837s7.837 3.509 7.837 7.837v31.272a7.836 7.836 0 0 1-7.837 7.837zM99.586 294.991a7.837 7.837 0 0 1-7.837-7.837v-31.272c0-4.328 3.508-7.837 7.837-7.837s7.837 3.509 7.837 7.837v31.272a7.837 7.837 0 0 1-7.837 7.837z" fill="#665e66"></path></g><path d="m512 509.351-272.731-14.156L0 509.351V354.255h135.028l118.835 27.664 123.109-27.664H512" fill="#9bd069"></path><path d="M512 509.351 376.972 354.255H270.099l-16.517 10.01-11.674-10.01h-106.88L0 509.351" fill="#665e66"></path><path d="M256 57.233c-25.909 0-51.819-4.221-76.478-12.664-8.19-2.804-12.556-11.716-9.752-19.905 2.805-8.189 11.717-12.556 19.905-9.752 42.771 14.643 89.878 14.643 132.649 0 8.192-2.806 17.101 1.562 19.905 9.752s-1.562 17.101-9.752 19.905C307.819 53.011 281.909 57.233 256 57.233z" fill="#e7ecf1"></path><path d="M332.476 44.568C307.817 53.011 281.903 57.233 256 57.233c-25.914 0-51.827-4.221-76.476-12.664-8.192-2.8-12.56-11.713-9.759-19.905.345-.993.773-1.923 1.275-2.79a15.594 15.594 0 0 0 8.485 6.99c24.649 8.443 50.563 12.664 76.476 12.664 25.903 0 51.817-4.221 76.476-12.664a15.662 15.662 0 0 0 8.485-6.98c.502.867.93 1.797 1.264 2.779 2.799 8.192-1.558 17.105-9.75 19.905z" fill="#c6d0da"></path><path d="M256 2.649c-9.499 0-17.2 7.701-17.2 17.2v64.109h34.4V19.849c0-9.499-7.701-17.2-17.2-17.2z" fill="#e7ecf1"></path><path d="M262.718 4.008c-6.165 2.623-10.48 8.725-10.48 15.841v64.104H238.8V19.849c0-9.498 7.701-17.199 17.199-17.199 2.383 0 4.65.48 6.719 1.358z" fill="#c6d0da"></path><path d="M256 249.325c-82.357 0-163.622-13.527-241.54-40.203C3.541 205.383-2.28 193.5 1.458 182.581s15.619-16.742 26.541-13.002c73.549 25.182 150.26 37.95 228.001 37.95s154.452-12.768 228.001-37.95c10.923-3.737 22.802 2.084 26.541 13.002 3.739 10.919-2.083 22.802-13.002 26.541-77.917 26.676-159.183 40.203-241.54 40.203z" fill="#e7ecf1"></path><path d="M497.539 209.128c-77.918 26.676-159.18 40.197-241.539 40.197S92.379 235.804 14.461 209.128c-10.919-3.741-16.739-15.621-12.998-26.54a21.075 21.075 0 0 1 2.299-4.702 20.82 20.82 0 0 0 10.7 8.307C92.38 212.869 173.641 226.389 256 226.389s163.62-13.521 241.539-40.197a20.82 20.82 0 0 0 10.7-8.307 20.499 20.499 0 0 1 2.309 4.702c3.73 10.92-2.09 22.8-13.009 26.541z" fill="#c6d0da"></path><path d="M158.471 185.934c0 53.864 43.665 84.938 97.529 84.938s97.529-31.074 97.529-84.938S309.864 75.815 256 75.815s-97.529 56.255-97.529 110.119z" fill="#e7ecf1"></path><path d="M295.653 264.613c-12.115 4.121-25.533 6.259-39.651 6.259-53.865 0-97.531-31.073-97.531-84.937S202.138 75.82 256.002 75.82c5.971 0 11.817.69 17.492 2.003-37.025 17.233-63.391 60.526-63.391 102.381 0 49.809 37.341 80.124 85.55 84.409z" fill="#c6d0da"></path><path d="m316.154 136.563-6.356 20.594c-16.423-7.37-34.634-11.468-53.802-11.468-19.16 0-37.363 4.089-53.786 11.451l-6.365-20.586c12.812-19.63 34.964-32.598 60.15-32.598 25.195 0 47.356 12.977 60.159 32.607z" fill="#bed8fb"></path><path d="M321.405 134.479c-14.479-22.198-38.931-35.451-65.409-35.451-26.468 0-50.916 13.249-65.4 35.441a6.27 6.27 0 0 0-.74 5.278l6.364 20.586a6.268 6.268 0 0 0 8.554 3.869c16.138-7.235 33.371-10.903 51.221-10.903 17.854 0 35.092 3.673 51.235 10.918a6.277 6.277 0 0 0 5.151-.008 6.266 6.266 0 0 0 3.407-3.863l6.356-20.594c.55-1.78.28-3.712-.739-5.273zm-118.675 4.456c11.094-15.488 28.184-25.278 47.001-27.067v29.033c-15.037.665-29.641 3.726-43.569 9.136zm103.115 11.114c-13.931-5.417-28.537-8.482-43.576-9.148v-29.033c18.822 1.791 35.913 11.585 47.003 27.074z" fill="#c6d0da"></path><g fill="#665e66"><path d="M237.289 332.866a7.837 7.837 0 0 1-7.837-7.837v-31.272c0-4.328 3.508-7.837 7.837-7.837s7.837 3.509 7.837 7.837v31.272a7.837 7.837 0 0 1-7.837 7.837zM274.711 332.866a7.837 7.837 0 0 1-7.837-7.837v-31.272c0-4.328 3.508-7.837 7.837-7.837s7.837 3.509 7.837 7.837v31.272a7.837 7.837 0 0 1-7.837 7.837z" fill="#665e66"></path></g><g fill="#454045"><path d="M419.559 268.545v18.61c0 4.326-3.511 7.837-7.837 7.837s-7.837-3.511-7.837-7.837v-18.61c0 4.326 3.511 7.837 7.837 7.837s7.837-3.511 7.837-7.837zM455.357 268.545v18.61c0 4.326-3.511 7.837-7.837 7.837s-7.837-3.511-7.837-7.837v-18.61c0 4.326 3.511 7.837 7.837 7.837s7.837-3.511 7.837-7.837z" fill="#454045"></path></g><g fill="#454045"><path d="M72.998 268.545v18.61c0 4.326-3.5 7.837-7.837 7.837a7.84 7.84 0 0 1-7.837-7.837v-18.61a7.84 7.84 0 0 0 7.837 7.837 7.833 7.833 0 0 0 7.837-7.837zM107.417 268.545v18.61a7.833 7.833 0 0 1-7.837 7.837 7.84 7.84 0 0 1-7.837-7.837v-18.61a7.84 7.84 0 0 0 7.837 7.837 7.833 7.833 0 0 0 7.837-7.837z" fill="#454045"></path></g><g fill="#454045"><path d="M245.124 306.423v18.599c0 4.336-3.511 7.837-7.837 7.837s-7.837-3.5-7.837-7.837v-18.599a7.84 7.84 0 0 0 7.837 7.837 7.841 7.841 0 0 0 7.837-7.837zM282.541 306.423v18.599c0 4.336-3.5 7.837-7.837 7.837a7.833 7.833 0 0 1-7.837-7.837v-18.599a7.84 7.84 0 0 0 7.837 7.837 7.834 7.834 0 0 0 7.837-7.837z" fill="#454045"></path></g><path d="M256 254.672c-25.397 0-46.059-20.662-46.059-46.058 0-25.397 20.662-46.059 46.059-46.059s46.058 20.662 46.058 46.059-20.661 46.058-46.058 46.058zm0-76.443c-16.755 0-30.386 13.631-30.386 30.385s13.631 30.385 30.386 30.385c16.754 0 30.385-13.631 30.385-30.385S272.754 178.229 256 178.229z" fill="#c6d0da"></path><path d="M275.877 411.244h-39.748l5.779-56.988h28.191zM226.171 509.35l6.991-68.922h45.683l6.99 68.922" fill="#efecef"></path></g></svg>