<svg viewBox="0 0 512 511" xmlns="http://www.w3.org/2000/svg"><g><path d="M367.73 201.914c-10.703 16.883-16.925 36.879-16.925 58.344 0 18.66 4.707 36.219 12.968 51.578a4.408 4.408 0 0 1-1.652 5.89c-34.723 20.458-53.566 60.149-46.879 100.2.48 2.914-1.953 5.449-4.875 5.074a97.466 97.466 0 0 0-72 19.523 4.356 4.356 0 0 1-5.324 0 97.42 97.42 0 0 0-72-19.523c-2.926.375-5.36-2.16-4.879-5.074 6.945-41.582-13.7-82.801-50.855-102.426-2.235-1.18-2.985-4.027-1.641-6.148 10.715-16.883 16.926-36.88 16.926-58.344 0-18.668-4.7-36.219-12.957-51.578a4.4 4.4 0 0 1 1.648-5.887c34.906-20.578 53.528-60.406 46.88-100.203-.481-2.914 1.952-5.45 4.878-5.074a97.428 97.428 0 0 0 72-19.524 4.356 4.356 0 0 1 5.324 0 97.42 97.42 0 0 0 72 19.524c2.922-.375 5.356 2.16 4.875 5.074-6.976 41.781 13.844 82.883 50.86 102.426 2.222 1.18 2.984 4.03 1.628 6.148zm0 0" fill="#91aee2"></path><g fill="#bacbec"><path d="M135.348 70.871a7.832 7.832 0 1 0 14.434-6.078l-25.06-59.5a7.826 7.826 0 0 0-10.253-4.176c-3.985 1.676-5.856 6.27-4.18 10.254zM5.477 177.488l76.218 24.04c9.989 3.148 14.485-11.856 4.711-14.938l-76.219-24.04a7.827 7.827 0 0 0-9.824 5.114c-1.3 4.121.989 8.52 5.114 9.824zM75.328 312.55 3.285 363.93a7.831 7.831 0 0 0 9.094 12.75l72.043-51.375a7.831 7.831 0 0 0 1.828-10.922 7.831 7.831 0 0 0-10.922-1.832zM150.883 435.887a7.831 7.831 0 0 0-9.645 5.445l-12.527 45.031a7.83 7.83 0 1 0 15.086 4.2l12.531-45.032a7.83 7.83 0 0 0-5.445-9.644zM130.508 134.504l-46.465-30.277a7.823 7.823 0 0 0-10.832 2.285 7.83 7.83 0 0 0 2.281 10.836c50.375 32.828 47.54 31.547 50.73 31.547 7.758 0 10.801-10.141 4.286-14.391zM45.941 247.8a7.834 7.834 0 0 0-7.832 7.833 7.834 7.834 0 0 0 7.832 7.832h40.875a7.834 7.834 0 0 0 7.832-7.832 7.834 7.834 0 0 0-7.832-7.832zM122.133 357.902a7.828 7.828 0 0 0-10.942 1.688l-19.886 27.148a7.829 7.829 0 0 0 1.691 10.942 7.833 7.833 0 0 0 10.945-1.688l19.883-27.148a7.825 7.825 0 0 0-1.691-10.942zm0 0" fill="#bacbec"></path></g><path d="M317.582 191.36h178.23c8.907 0 16.188 7.28 16.188 16.183v95.824c0 8.906-7.281 16.18-16.188 16.18h-178.23c-8.902 0-16.184-7.274-16.184-16.18v-95.824c0-8.902 7.282-16.184 16.184-16.184zm0 0" fill="#f2bb88"></path><path d="M317.586 191.355h178.226c8.903 0 16.184 7.282 16.184 16.184v71.11c0 8.906-7.281 16.183-16.184 16.183H317.587c-8.906 0-16.184-7.277-16.184-16.184V207.54c-.004-8.902 7.278-16.184 16.184-16.184zm0 0" fill="#f2d1a5"></path><path d="M281.93 202.04h68.879c34.187 0 62.16 27.972 62.16 62.16v18.585c0 40.313-32.985 73.293-73.297 73.293H281.93zm0 0" fill="#f2d1a5"></path><path d="M299.176 202.04h51.636c34.188 0 62.157 27.968 62.157 62.151v5.86c-.008.062-.008.094-.008.094v11.921c0 5.336-4.836 9.372-10.086 8.418l-49.559-9.007c-9.238-1.68-18.035-5.375-25.48-11.094-24.211-18.59-26.016-49.637-26.016-49.637s-1.226-7.687-2.644-18.707zM252.102 315.621h33.367c9.058 0 16.465 7.41 16.465 16.465v7.535c0 9.055-7.41 16.465-16.465 16.465h-33.367c-6.317 0-11.832-3.61-14.582-8.867-2.305-4.364-1.883-7.364-1.883-15.133 0-9.059 7.41-16.465 16.465-16.465zM240.39 275.066h45.563c10.086 0 18.332 8.246 18.332 18.332v3.793c0 10.086-8.246 18.336-18.332 18.336h-45.562c-6.621 0-12.453-3.558-15.676-8.859-3.008-4.95-2.656-8.961-2.656-13.27 0-10.086 8.246-18.332 18.332-18.332zM232.004 234.586h52.926c10.652 0 19.355 8.71 19.355 19.355v1.754c0 10.645-8.703 19.36-19.355 19.36h-52.926c-10.672 0-19.356-8.743-19.356-19.36v-1.754c0-10.64 8.711-19.355 19.356-19.355zm0 0" fill="#f2bb88"></path><path d="M226.773 194.121h57.555c10.98 0 19.957 8.984 19.957 19.965v.535c0 10.98-8.976 19.965-19.957 19.965h-57.555c-10.343 0-19.964-8.156-19.964-20.5 0-10.98 8.984-19.965 19.964-19.965zm0 0" fill="#f2bb88"></path><path d="M252.102 315.621h25.488a16.197 16.197 0 0 1 1.883 7.598v7.539c0 9.055-7.41 16.46-16.457 16.46H237.52c-2.305-4.363-1.883-7.363-1.883-15.132 0-9.059 7.41-16.465 16.465-16.465zM240.39 275.066h38.778a18.181 18.181 0 0 1 2.656 9.473v3.79c0 10.081-8.25 18.339-18.336 18.339h-38.773c-3.008-4.953-2.656-8.965-2.656-13.27 0-10.086 8.246-18.332 18.332-18.332zM232.004 234.586h46.71a19.24 19.24 0 0 1 3.11 10.492v1.754c0 10.645-8.707 19.356-19.36 19.356h-46.702c-7.762-11.915-.856-31.602 16.242-31.602zM226.773 194.121h51.657a19.82 19.82 0 0 1 3.394 11.102v.539c0 10.976-8.98 19.96-19.96 19.96h-51.665c-8.59-12.745-.097-31.6 16.574-31.6zm0 0" fill="#f2d1a5"></path><path d="M248.441 194.121h29.989a19.82 19.82 0 0 1 3.394 11.102v.539c0 10.976-8.98 19.96-19.96 19.96h-19.286c-3.289-2.542-5.047-6.41-5.047-10.331 0-2.567.75-5.149 2.313-7.403l3.914-5.629zm0 0" fill="#f2bb88"></path><path d="M294.68 154.91a36.432 36.432 0 0 0-29.914 15.64c-21.403 30.805-21.621 30.016-21.621 34.884 0 3.812 1.8 7.574 5.156 9.91 11.332 7.87 27.047 5.043 34.918-6.285 9.91-10.903 5.683-6.243 7.18-7.97 3.093-3.562 9.027-1.581 9.71 3.087 1.336 9.125 9.04 28.957 31.274 43.578 6.62 4.355 14.14 7.156 21.937 8.574l37.828 6.875c11.356 2.063 21.809-6.66 21.809-18.203 0-49.559-40.547-90.11-90.105-90.11h-13.13l-15.042.02zm0 0" fill="#f2d1a5"></path><path d="M412.969 271.664v11.121c0 40.313-32.985 73.293-73.297 73.293H293.05c-6.14 0-11.121-4.976-11.121-11.117 0-6.145 4.98-11.121 11.12-11.121h57.735c34.203 0 62.184-27.98 62.184-62.176zm0 0" fill="#f2bb88"></path></g></svg>