<svg viewBox="0 0 511.999 511.999" xmlns="http://www.w3.org/2000/svg"><g><path d="M509.253 129.072c-6.228-9.394-19.026-10.67-26.954-3.342l-46.407 42.94a8.877 8.877 0 0 1-9.672 1.579l-39.336-17.701c-3.936-1.771-8.505-.385-10.962 3.164-8.882 12.823-22.798 19.132-34.262 14.32-11.856-4.976-17.108-20.156-13.501-36.062.935-4.124-1.096-8.341-4.952-10.076l-43.046-19.37a44.39 44.39 0 0 0-47.104 6.776l-48.581 41.641c-6.713 5.754-9.005 15.671-4.409 23.223 5.862 9.629 18.609 11.388 26.801 4.358l49.305-42.26a8.881 8.881 0 0 1 9.423-1.356l20.487 9.218c9.029 4.063 12.99 14.724 8.807 23.697l-70.121 150.374a8.86 8.86 0 0 1-10.854 4.669l-70.68-23.516-12.025 33.412 77.696 25.83a44.34 44.34 0 0 0 14.045 2.289c16.832 0 32.755-9.632 40.219-25.64l19.81-38.7 82.226 33.993a8.85 8.85 0 0 1 5.071 5.587l29.222 90.997h35.511l-32.62-108.684a44.282 44.282 0 0 0-25.355-27.925l-44.045-18.351 33.809-72.5c4.105-8.803 14.521-12.673 23.377-8.688l21.469 9.661a44.39 44.39 0 0 0 18.233 3.923 44.343 44.343 0 0 0 30.131-11.816l45.735-42.314c6.485-5.998 8.391-15.988 3.509-23.35z" fill="#f5c882"></path><path d="m228.586 312.004-3.82 8.191a8.86 8.86 0 0 1-10.854 4.669l12.69 4.07c7.93 2.543 16.504-1.284 19.904-8.886l.24-.537-18.16-7.507z" fill="#f5af73"></path><path d="M239.7 233.801H8.878A8.876 8.876 0 0 1 0 224.923a8.876 8.876 0 0 1 8.878-8.878H239.7a8.876 8.876 0 0 1 8.878 8.878 8.876 8.876 0 0 1-8.878 8.878z" fill="#d5dced"></path><path d="M150.922 198.294 79.9 198.29a8.876 8.876 0 0 1-8.878-8.878c0-4.903 3.979-8.878 8.878-8.878l71.022.004a8.876 8.876 0 0 1 8.878 8.878c0 4.903-3.98 8.878-8.878 8.878zM124.289 162.783c-4.898 0-8.878-3.975-8.878-8.878a8.876 8.876 0 0 1 8.878-8.878l26.633-.004c4.898 0 8.878 3.975 8.878 8.878a8.876 8.876 0 0 1-8.878 8.878l-26.633.004zM221.944 269.312H79.9a8.876 8.876 0 0 1-8.878-8.878 8.876 8.876 0 0 1 8.878-8.878h142.044a8.876 8.876 0 0 1 8.878 8.878 8.876 8.876 0 0 1-8.878 8.878zM44.389 198.29H26.633a8.876 8.876 0 0 1-8.878-8.878 8.876 8.876 0 0 1 8.878-8.878h17.756a8.876 8.876 0 0 1 8.878 8.878 8.876 8.876 0 0 1-8.878 8.878z" fill="#e4eaf8"></path><path d="M461.644 464.627H399.5v-35.511h35.511c14.709 0 26.633 11.924 26.633 26.633v8.878zM88.778 347.799l21.039-58.475 33.414 12.023-12.023 33.414c-4.98 13.84-20.237 21.024-34.077 16.043l-8.353-3.005z" fill="#d5dced"></path><path d="M381.744 127.272c-19.612 0-35.511-15.899-35.511-35.511V74.005c0-14.709 11.924-26.633 26.633-26.633h39.95a4.44 4.44 0 0 1 4.439 4.439v39.95c0 19.612-15.899 35.511-35.511 35.511z" fill="#f5c882"></path><path d="M366.8 201.657c4.105-8.803 14.521-12.673 23.377-8.688l6.103 2.747 15.219-32.091-24.617-11.077c-3.936-1.771-8.505-.385-10.962 3.164-8.882 12.823-22.798 19.132-34.262 14.32-11.856-4.976-17.107-20.156-13.501-36.062.935-4.124-1.096-8.341-4.952-10.076l-27.328-12.298-15.217 32.09 5.419 2.438c9.029 4.063 12.99 14.724 8.807 23.697l-34.622 74.245L333 274.135l33.8-72.478z" fill="#7df5a5"></path><path d="m333.002 274.135-72.736-30.069-31.68 67.938 39.204 16.207 15.189-29.672 66.926 27.667 15.446-38.567-32.36-13.482z" fill="#5b5d6e"></path><path d="m302.864 153.232-16.783-7.108c9.029 4.063 12.99 14.724 8.807 23.697l-34.622 74.245 17.069 7.057 34.073-76.177c3.735-8.353-.117-18.145-8.544-21.714z" fill="#5b5d6e"></path><path d="m277.335 251.122-17.069-7.056-31.68 67.938 18.159 7.507z" fill="#464655"></path><path d="m294.887 169.821-34.622 74.245 17.069 7.057 34.073-76.177c3.736-8.353-.117-18.146-8.543-21.714l-16.783-7.108c9.029 4.064 12.991 14.725 8.806 23.697z" fill="#64dca0"></path><path d="M372.866 91.761V74.005c0-14.709 11.924-26.633 26.633-26.633h-26.633c-14.709 0-26.633 11.924-26.633 26.633v17.756c0 19.612 15.899 35.511 35.511 35.511 4.716 0 9.198-.963 13.317-2.633-13.004-5.273-22.195-17.982-22.195-32.878z" fill="#f5af73"></path><path d="M372.866 47.372c-14.709 0-26.633 11.924-26.633 26.633v17.756c0 3.084.516 6.025 1.255 8.878h15.876c5.937 0 11.48-2.967 14.774-7.907l7.213-10.82a17.758 17.758 0 0 1 14.774-7.907h17.131V51.811a4.44 4.44 0 0 0-4.439-4.439h-39.951z" fill="#6e4848"></path><path d="M346.233 74.005v17.756c0 3.084.516 6.025 1.255 8.878h15.876c3.635 0 7.052-1.222 9.966-3.219a35.641 35.641 0 0 1-.464-5.658V74.005c0-14.709 11.924-26.633 26.633-26.633h-26.633c-14.709 0-26.633 11.924-26.633 26.633z" fill="#643c3e"></path></g></svg>