<?xml version="1.0" encoding="iso-8859-1"?>
<!-- Generator: Adobe Illustrator 19.0.0, SVG Export Plug-In . SVG Version: 6.00 Build 0)  -->
<svg version="1.1" id="Capa_1" xmlns="http://www.w3.org/2000/svg" xmlns:xlink="http://www.w3.org/1999/xlink" x="0px" y="0px"
	 viewBox="0 0 512 512" style="enable-background:new 0 0 512 512;" xml:space="preserve">
<path style="fill:#2D5871;" d="M490.396,382.637H27.314c-2.002,0-3.624-1.623-3.624-3.624v-39.084H512v21.104
	C512,372.965,502.327,382.637,490.396,382.637z"/>
<path style="fill:#FF4C4C;" d="M511.985,358.181H326.826V181.215h126.695c7.281,0,14.103,3.558,18.269,9.53l36.188,51.87
	c2.608,3.738,4.007,8.187,4.007,12.746V358.181z"/>
<path style="fill:#F33939;" d="M507.978,242.615l-36.188-51.87c-4.166-5.971-10.988-9.53-18.269-9.53h-46.033
	c7.281,0,14.103,3.558,18.269,9.53l36.188,51.87c2.608,3.738,4.007,8.187,4.007,12.745v73.8c0,4.418-3.582,8-8,8H326.826v21.021
	h139.126h46.033v-21.256v-81.564C511.985,250.802,510.586,246.353,507.978,242.615z"/>
<path style="fill:#21D8DE;" d="M378.87,280.231v-64.593c0-1.874,1.519-3.393,3.393-3.393h64.921c1.109,0,2.148,0.542,2.783,1.451
	l30.378,43.541c0.397,0.569,0.61,1.247,0.61,1.941v21.052c0,1.874-1.519,3.393-3.393,3.393h-95.299
	C380.389,283.624,378.87,282.105,378.87,280.231z"/>
<circle style="fill:#1D4859;" cx="432.39" cy="374.141" r="44.588"/>
<path style="fill:#E1EFFB;" d="M432.393,390.703c-9.132,0-16.561-7.429-16.561-16.561c0-9.131,7.429-16.561,16.561-16.561
	c9.132,0,16.561,7.429,16.561,16.561S441.525,390.703,432.393,390.703z"/>
<path style="fill:#FFB125;" d="M352.89,358.181H6.757c-3.732,0-6.757-3.025-6.757-6.757V100.028c0-3.732,3.025-6.757,6.757-6.757
	h339.376c3.732,0,6.757,3.025,6.757,6.757L352.89,358.181L352.89,358.181z"/>
<path style="fill:#FF901D;" d="M346.133,93.271h-39.276v224.428c0,10.748-8.713,19.461-19.461,19.461H0v14.264
	c0,3.732,3.025,6.757,6.757,6.757H352.89V100.028C352.89,96.297,349.865,93.271,346.133,93.271z"/>
<g>
	<path style="fill:#FFFFFF;" d="M170.89,215.973c-2.021,0-4.053-0.694-5.708-2.114L108.1,164.913l-57.082,48.946
		c-3.678,3.155-9.218,2.73-12.374-0.95c-3.155-3.679-2.73-9.219,0.95-12.374l62.794-53.845c3.286-2.819,8.138-2.819,11.424,0
		l62.794,53.845c3.679,3.155,4.104,8.695,0.95,12.374C175.82,214.934,173.362,215.973,170.89,215.973z"/>
	<path style="fill:#FFFFFF;" d="M157.269,223.47l-45.563-39.069c-2.075-1.779-5.137-1.779-7.212,0l-45.563,39.07
		c-1.227,1.052-1.934,2.588-1.934,4.205v56.005c0,3.059,2.48,5.54,5.54,5.54h30.216v-48.72c0-2.306,1.869-4.175,4.175-4.175h22.344
		c2.306,0,4.175,1.869,4.175,4.175v48.72h30.216c3.059,0,5.539-2.48,5.539-5.54v-56.005
		C159.203,226.059,158.496,224.523,157.269,223.47z"/>
</g>
<circle style="fill:#1D4859;" cx="101.47" cy="374.141" r="44.588"/>
<path style="fill:#E1EFFB;" d="M101.469,390.703c-9.132,0-16.561-7.429-16.561-16.561c0-9.131,7.429-16.561,16.561-16.561
	s16.561,7.429,16.561,16.561C118.03,383.274,110.601,390.703,101.469,390.703z"/>
<path style="fill:#FFFFFF;" d="M261.485,260.045L312.3,222.31c1.335-0.992,1.335-2.99,0-3.982l-50.815-37.735
	c-1.636-1.215-3.958-0.047-3.958,1.991v19.966h-39.782c-1.37,0-2.48,1.11-2.48,2.48v30.579c0,1.37,1.11,2.48,2.48,2.48h39.782
	v19.966C257.527,260.092,259.849,261.26,261.485,260.045z"/>
<g>
</g>
<g>
</g>
<g>
</g>
<g>
</g>
<g>
</g>
<g>
</g>
<g>
</g>
<g>
</g>
<g>
</g>
<g>
</g>
<g>
</g>
<g>
</g>
<g>
</g>
<g>
</g>
<g>
</g>
</svg>
