<svg viewBox="0 0 512 512" xmlns="http://www.w3.org/2000/svg"><g><path d="m313.969 0-197.66 114.547-.375-.211v206.988L313.969 435.66 512 321.324V114.332zm0 16.57 169.386 97.793-.308.18-169.078-97.617-169.387 97.804zm0 0" fill="#1d8348"></path><path d="M313.969 435.656 115.938 321.324V114.336l198.03 114.332zm0 0" fill="#1d8348"></path><path d="M313.969 435.656 512 321.324V114.336L313.969 228.668zM313.969 212.527V16.926L144.582 114.73zm0 0" fill="#2ecc71"></path><path d="M313.969 0 115.938 114.762l198.03 114.336L512 114.336zM144.582 114.73l169.387-98.16 169.386 97.793-169.386 98.164zm0 0" fill="#36f085"></path><path d="M319.086 200.273 112.832 81.043 67.348 107.27 16.492 369.035l206.336 118.828-.082.403.39-.223 45.094-26.004zm0 0" fill="#2ecc71"></path><path d="m273.992 226.277-50.855 261.766L16.492 369.035 67.348 107.27zm0 0" fill="#1d8348"></path><path d="M319.086 200.273 112.832 81.043 67.348 107.27 273.605 226.5zm0 0" fill="#36f085"></path><path d="M448.7 358.066V151.023l-43.028 24.614V382.68zM256.543 322.582c-7.957-10.402-26.16-10.285-43.324-8.969l48.726-36.797-28.61-18.945-1.905-39.113-84 63.43L63.55 121.71l-1.945 36.887-28.617-14.133 65.895 126.07c-5.207-4.45-11.758-10.387-19.2-17.902-18.484-18.672-35.538-43.719-56.43-35.043-20.886 8.672-24.667 26.515-22.85 51.183 1.816 24.672-5.79 35.497 8.913 52.66 14.707 17.169 58.184 1.352 75.04 3.618 4.488.605 8.492 1.02 12.097 1.191a35.83 35.83 0 0 0 3.95 10.184c9.308 16.14 29.285 22.281 45.894 14.672 2.969 4.09 6.11 6.789 6.11 6.789s12.64 9.82 30.058 29.488c17.422 19.672 33.062 45.625 54.402 38.121 21.336-7.5 26.102-25.105 25.656-49.84-.445-24.73 7.75-35.117-5.98-53.074zm0 0" fill="#ffd800"></path><path d="M158.895 320.547s20.367 6.844 37.203 17.469c16.836 10.625 48.234 16.793 54.789 5.875 6.554-10.918-12.223-26.153-24.492-25.145-12.27 1.008-38.305 3.527-47.02 1.414-8.715-2.113-20.48.387-20.48.387zM99.016 284.398S27.008 257.68 19.71 246.953c-7.297-10.723 9.293-21.101 23.871-11.234 14.574 9.867 55.434 48.68 55.434 48.68zm0 0" fill="#f39c12"></path><path d="M167.227 318.54c0 19.772-16.028 35.804-35.805 35.804-19.774 0-35.805-16.031-35.805-35.805 0-19.777 16.031-35.809 35.805-35.809 19.777 0 35.805 16.032 35.805 35.81zm0 0" fill="#f1c40f"></path></g></svg>