<svg fill-rule="evenodd" viewBox="0 0 1707 1707" xmlns="http://www.w3.org/2000/svg"><g><path d="M777 1157c-2 0-5-1-7-2-132-40-181-155-183-224 0-35 12-60 34-68 16-5 41-4 70 35 7 9 14 18 19 27 8-23 28-38 53-36 28 2 49 24 49 52v13c-2 35 0 44 17 52 34 14-33 151-52 151z" fill="#fad190"></path><path d="M714 917c-2 3-3 5-4 8-2-3-4-7-6-10-1 5-11 44 4 74 1 3 4 4 6 3 3-1 4-4 3-7-14-29-4-67-3-68z" fill="#e1bc82"></path><path d="M1010 781c10 0 19-2 27-6 1-1 1-1 2-1l40-26 17 42c3 7 9 13 16 15 3 1 5 1 8 1 5 0 10-1 14-4l96-65c6-4 10-10 11-17 2-7 0-14-5-20l-15-20c6-14 15-36 26-55 37-69-63-80-75-112-4-10-13-17-24-17l-223-41c-11 0-20 6-24 17-32 87-2 309 109 309z" fill="#fad190"></path><path d="M236 120c-11 17-19 35-25 55-27 104 34 211 138 239 17 4 34 7 51 7 69 0 132-37 166-94-27 10-56 15-85 15-21 0-43-3-64-9-101-27-171-114-181-213z" fill="#000002"></path><path d="M400 472c-22 0-43-2-64-8-64-17-117-58-150-115s-42-123-25-187c15-53 45-98 88-132 9-6 20-7 30-1 9 6 13 17 11 27-21 101 41 201 141 227 58 16 121 3 169-33 9-7 20-8 30-2 9 6 13 17 11 27l-3 15c-29 107-127 182-238 182z" fill="#e7e7f2"></path><path d="M384 1461c-5 0-9-1-13-3l-159-92c-12-7-16-23-9-35s23-17 35-10l146 84 145-84c12-7 28-2 35 10s3 28-9 35l-159 92c-4 2-8 3-12 3z" fill="#ffda46"></path><path d="M602 1682c-4 0-8-2-12-4l-206-119-206 119c-13 7-29 3-36-9-7-13-3-29 10-36l180-104-180-104c-13-7-17-23-10-35s23-17 36-9l206 118 206-118c12-8 28-3 35 9s3 28-10 35l-180 104 180 104c13 7 17 23 10 36-5 8-14 13-23 13z" fill="#ac6664"></path><path d="M780 1662c-56 0-106-54-113-126-7-79 43-180 209-204 58-8 100-26 114-47 2-3 4-7 4-12-65-10-145-38-241-91-11-6-16-20-11-32l65-159c5-12 19-19 31-15l171 54c24-33 82-122 85-231l145-95 1-1c14 14 28 27 41 40 85 79 158 148 142 309l-34 352c-1 10-7 18-15 21 0 44 6 132 50 185h10c11-1 22 6 26 18 3 8 1 16-3 23-5 7-13 11-21 11H780z" fill="#d6edf5"></path><g fill="#c1d5dd"><path d="M806 1581c4 0 8-1 11-3 6-6 7-16 1-23-10-12-20-28-19-45 2-16 13-29 25-39 7-5 8-15 3-22-6-7-16-8-22-3-20 16-35 36-38 62-2 26 10 49 27 68 3 3 8 5 12 5zM1248 1484c35 0 69-6 102-17 8-2 13-11 10-20-3-8-11-13-20-10-65 22-109 17-174 7-55-9-99-14-155-4-9 1-14 9-13 18 2 9 10 14 19 13 51-9 93-4 144 4 29 5 58 9 87 9z" fill="#c1d5dd"></path></g><path d="M1500 1682c-131 0-171-164-174-181-13-43-7-83 15-112 19-26 49-40 78-36 51 7 58 47 63 76 2 14 5 27 10 40 23 50 35 68 46 84 8 12 15 23 24 41 8 19 8 42-2 59-8 15-22 25-38 27-8 1-15 2-22 2z" fill="#fad190"></path><path d="M1681 1682H26c-14 0-26-12-26-26 0-15 12-26 26-26h1655c14 0 26 11 26 26 0 14-12 26-26 26z" fill="#666666"></path><path d="M1538 1553c-11-16-23-34-46-84-5-13-8-26-10-40-5-29-12-69-63-76-4 0-8-1-12 0 33 13 39 46 43 70 3 14 5 27 11 40 22 50 34 68 45 85 8 11 15 22 24 40 6 13 7 28 5 42h32c2-12 0-25-5-36-9-18-16-29-24-41z" fill="#e1bc82"></path><path d="m1099 796 140-92c-1-1-2-2-3-4l-12-16-136 86 8 20z" fill="#666666"></path><path d="M400 472c97 0 184-57 223-143-45 55-114 89-189 89h-1c-21 0-42-3-63-9-63-17-116-58-149-115-4-5-6-11-9-16-26-53-31-113-16-171 4-13 9-27 14-40-22 28-39 60-49 95-17 64-8 130 25 187s86 98 150 115c21 6 42 8 64 8z" fill="#d0d0da"></path><path d="M1386 1202c-5 0-10-2-15-5l-337-236c-8-6-12-16-10-26 0-4 71-356-123-463-12-7-17-21-11-34 22-49 66-82 124-92 15-3 30-4 44-4 237-15 428 653 353 839-1 8-7 15-15 19-3 1-7 2-10 2z" fill="#666666"></path></g></svg>