<svg fill="none" height="68" viewBox="0 0 68 68" width="68" xmlns="http://www.w3.org/2000/svg"><rect fill="#d0e5ff" height="45" rx="2" width="45" x="15" y="15"/><rect fill="#fff" height="45" rx="2" width="44" x="13" y="12"/><rect fill="#328efb" height="10" rx="2" width="44" x="13" y="12"/><rect fill="#454343" height="8" rx="2" width="4" x="17" y="8"/><rect fill="#454343" height="8" rx="2" width="4" x="25" y="8"/><rect fill="#454343" height="8" rx="2" width="4" x="41" y="8"/><rect fill="#454343" height="8" rx="2" width="4" x="49" y="8"/><path d="m10 50c-1.10449 0-2 .8954-2 2v1c0 2.2091 1.79102 4 4 4h42c-.5265-.1754-.9896-.4834-1.351-.8852-.5754-.6397-.649-1.5534-.649-2.4138v-1.701c0-1.1046-.8955-2-2-2z" fill="#a4ccfb"/><g fill="#1a68c6"><path clip-rule="evenodd" d="m26.5301 25.652c.4684.2927.6108.9097.318 1.378l-1.6345 2.6154c-.7918 1.2668-2.6424 1.2499-3.411-.031l-.6599-1.0999c-.2842-.4736-.1306-1.0878.343-1.372.4735-.2841 1.0878-.1306 1.3719.343l.66 1.0999 1.6346-2.6154c.2927-.4683.9096-.6107 1.3779-.318z" fill-rule="evenodd"/><path clip-rule="evenodd" d="m36.5301 25.652c.4684.2927.6108.9097.318 1.378l-1.6345 2.6154c-.7918 1.2668-2.6424 1.2499-3.411-.031l-.6599-1.0999c-.2842-.4736-.1306-1.0878.343-1.372.4735-.2841 1.0878-.1306 1.3719.343l.66 1.0999 1.6346-2.6154c.2927-.4683.9096-.6107 1.3779-.318z" fill-rule="evenodd"/><path clip-rule="evenodd" d="m46.5301 25.652c.4684.2927.6108.9097.318 1.378l-1.6345 2.6154c-.7918 1.2668-2.6424 1.2499-3.411-.031l-.6599-1.0999c-.2842-.4736-.1306-1.0878.343-1.372.4735-.2841 1.0878-.1306 1.3719.343l.66 1.0999 1.6346-2.6154c.2927-.4683.9096-.6107 1.3779-.318z" fill-rule="evenodd"/><path clip-rule="evenodd" d="m26.5301 33.652c.4684.2927.6108.9097.318 1.378l-1.6345 2.6154c-.7918 1.2668-2.6424 1.2499-3.411-.031l-.6599-1.0999c-.2842-.4736-.1306-1.0878.343-1.372.4735-.2841 1.0878-.1306 1.3719.343l.66 1.0999 1.6346-2.6154c.2927-.4683.9096-.6107 1.3779-.318z" fill-rule="evenodd"/><path d="m31 35c0-1.1046.8954-2 2-2h2c1.1046 0 2 .8954 2 2v2c0 1.1046-.8954 2-2 2h-2c-1.1046 0-2-.8954-2-2z"/><path d="m41 35c0-1.1046.8954-2 2-2h2c1.1046 0 2 .8954 2 2v2c0 1.1046-.8954 2-2 2h-2c-1.1046 0-2-.8954-2-2z"/><path d="m21 43c0-1.1046.8954-2 2-2h2c1.1046 0 2 .8954 2 2v2c0 1.1046-.8954 2-2 2h-2c-1.1046 0-2-.8954-2-2z"/><path d="m31 43c0-1.1046.8954-2 2-2h2c1.1046 0 2 .8954 2 2v2c0 1.1046-.8954 2-2 2h-2c-1.1046 0-2-.8954-2-2z"/></g><rect fill="#1256a7" height="5" rx="2" width="44" x="13" y="12"/><path d="m41 43c0-1.1046.8954-2 2-2h2c1.1046 0 2 .8954 2 2v2c0 1.1046-.8954 2-2 2h-2c-1.1046 0-2-.8954-2-2z" fill="#1a68c6"/><path d="m41 12h4v2c0 1.1046-.8954 2-2 2-1.1046 0-2-.8954-2-2z" fill="#233141"/><path d="m25 12h4v2c0 1.1046-.8954 2-2 2-1.1046 0-2-.8954-2-2z" fill="#233141"/><path d="m17 12h4v2c0 1.1046-.8954 2-2 2-1.1046 0-2-.8954-2-2z" fill="#233141"/><path d="m49 12h4v2c0 1.1046-.8954 2-2 2-1.1046 0-2-.8954-2-2z" fill="#233141"/></svg>