<svg viewBox="0 0 512 512" xmlns="http://www.w3.org/2000/svg"><g><path d="M304.797 0H131.488c-21.68 0-39.316 17.64-39.316 39.32v32.89h22.547V39.32c0-9.25 7.523-16.773 16.77-16.773h173.308c9.246 0 16.77 7.523 16.77 16.773v32.89h22.55V39.32c0-21.683-17.64-39.32-39.32-39.32zm0 0" fill="#576574"></path><path d="M255.336 363.719c0-31.637 27.754-43.043 27.754-43.043l74.953-29.063V268.57l.008.004c-11.809-7.539-19.653-21.703-22.047-35.14H16.16v209.504c0 6.89 5.637 12.527 12.527 12.527h226.649v-91.746zm0 0" fill="#c46f5f"></path><path d="M47.2 442.938V233.434H16.16v209.504c0 6.89 5.637 12.527 12.527 12.527h31.036c-6.887 0-12.524-5.637-12.524-12.528zm0 0" fill="#b45f4a"></path><path d="M66.8 258.61c0 7.44 6.09 13.527 13.532 13.527h46.223c7.441 0 13.53-6.086 13.53-13.528v-25.175H66.802zm0 0" fill="#feca57"></path><path d="M97.84 258.61v-25.176H66.8v25.175c0 7.442 6.09 13.528 13.532 13.528h31.035c-7.437 0-13.527-6.086-13.527-13.528zm0 0" fill="#f4b537"></path><path d="M309.73 272.137h48.313v-3.563l.008.004c-11.809-7.543-19.653-21.707-22.047-35.144h-39.8v25.175c0 7.442 6.085 13.528 13.526 13.528zm0 0" fill="#feca57"></path><path d="M327.238 258.61v-25.176h-31.035v25.175c0 7.442 6.086 13.528 13.527 13.528h31.04c-7.442 0-13.532-6.086-13.532-13.528zm0 0" fill="#f4b537"></path><path d="M335.246 227.953c-13.18 1.996-23.46-7.527-23.46-19.187 0-5.368 2.429-10.09 6.14-13.532v-25.062c0-37.492 25.234-62.727 62.722-62.727 23.032 0 43.364 11.48 55.637 29.016V81.613c0-7.441-6.09-13.527-13.527-13.527H13.528C6.09 68.086 0 74.172 0 81.613V221.97c0 7.441 6.09 13.527 13.527 13.527h322.477a49.954 49.954 0 0 1-.758-7.543zm0 0" fill="#b45f4a"></path><path d="M30.934 221.969V81.613c0-7.441 6.086-13.527 13.527-13.527H13.527C6.09 68.086 0 74.172 0 81.613V221.97c0 7.441 6.09 13.527 13.527 13.527h30.934c-7.441 0-13.527-6.086-13.527-13.527zm0 0" fill="#a85140"></path><path d="M380.652 102.293c-37.375 0-67.672 30.297-67.672 67.672v27.539c4.524-4.191 11.81-6.473 18.09-5.633V188.5c0-2.684 2.29-4.8 4.942-4.598 26.164 1.88 51.941-6.433 72.074-19.586a4.61 4.61 0 0 1 5.894.72c17.211 18.5 16.258 17.784 16.258 20.198v6.621c6.883-1.03 13.844 1.098 18.086 5.043v-26.933c0-37.375-30.297-67.672-67.672-67.672zm0 0" fill="#576574"></path><path d="M344.465 169.965c0-31.953 22.148-58.715 51.93-65.813a67.886 67.886 0 0 0-15.743-1.859c-37.375 0-67.672 30.297-67.672 67.672v27.539c4.524-4.191 11.81-6.473 18.09-5.633V188.5c0-2.684 2.29-4.8 4.946-4.598 2.824.203 5.64.282 8.449.25zm0 0" fill="#3e4b5a"></path><path d="M430.953 189.191v37.286c0 .406-.023.804-.031 1.207 13.195 2 23.527-7.536 23.527-19.246 0-11.731-10.344-21.22-23.496-19.247zM330.68 226.727v-37.79c-11.645-1.554-23.825 7.383-23.825 19.5 0 11.856 10.457 21.54 23.856 19.512-.012-.41-.031-.812-.031-1.222zm0 0" fill="#ffbeab"></path><path d="M448.355 194.32c-4.27-4.007-10.44-6.172-17.402-5.129v37.286c0 .406-.023.804-.031 1.207 6.98 1.058 13.16-1.114 17.433-5.13zM330.68 222.969a19.561 19.561 0 0 1-6.422-14.531c0-5.536 2.55-10.407 6.422-13.918v-5.579c-11.645-1.554-23.825 7.383-23.825 19.5 0 11.856 10.457 21.54 23.856 19.508-.012-.406-.031-.812-.031-1.219zm0 0" fill="#f7af9f"></path><path d="M381.371 274.387c-10.93 0-20.539-3.004-28.394-8.024v26.375l28.277 34.907 28.273-34.907v-27.125a49.404 49.404 0 0 1-28.156 8.774zm0 0" fill="#ffbeab"></path><path d="M384.457 274.281c-1.02.063-2.047.106-3.086.106-10.93 0-20.539-3.004-28.394-8.024v26.375l28.277 34.907 3.203-3.957zm0 0" fill="#f7af9f"></path><path d="m484.332 320.008-74.805-28.973-28.273 34.906-28.277-34.906-74.727 28.973s-27.668 11.375-27.668 42.914v123.734c0 5.09 4.129 9.219 9.219 9.219h242.98c5.09 0 9.219-4.129 9.219-9.219V362.922c0-31.54-27.668-42.914-27.668-42.914zm0 0" fill="#e4eaf8"></path><g fill="#d8dce5"><path d="M282.063 486.656V349.281c0-20.758 11.984-32.781 20.175-38.574l-23.988 9.3s-27.668 11.376-27.668 42.915v123.734c0 5.09 4.129 9.223 9.219 9.223h31.48c-5.09-.004-9.219-4.133-9.219-9.223zM415.395 343.875l21.144-42.379-27.012-10.46-28.273 34.905 27.566 19.579a4.46 4.46 0 0 0 6.575-1.645zm0 0" fill="#d8dce5"></path><path d="m347.148 343.875-21.144-42.379 27.012-10.46 28.273 34.905-27.566 19.579a4.46 4.46 0 0 1-6.575-1.645zm0 0" fill="#d8dce5"></path></g><path d="M381.29 325.965v-.024l-.02.012-.016-.012v.024l-20.05 14.242 9.476 14.262h21.18l9.48-14.262zm0 0" fill="#ee5253"></path><path d="M410.012 461.695 391.859 354.47h-21.18l-18.148 107.226c-.187 1.38.215 2.782 1.082 3.735l27.64 30.41v.035l.017-.02.02.02v-.035l27.64-30.41c.867-.953 1.27-2.356 1.082-3.735zm0 0" fill="#ff6b6b"></path><path d="m389.133 338.258 4.73-3.36-12.574-8.933v-.024l-.02.012-.015-.012v.024l-20.05 14.238 9.476 14.266h21.18l2.003-3.012-5.613-8.45a3.467 3.467 0 0 1 .883-4.75zm0 0" fill="#d83941"></path><path d="m377.719 461.695 16.144-95.394-2-11.828H370.68L352.53 461.695c-.191 1.38.215 2.782 1.082 3.735l27.64 30.41v.035l.017-.02.015.02v-.035l12.578-13.836-15.066-16.574c-.863-.953-1.27-2.356-1.078-3.735zm0 0" fill="#ee5253"></path><path d="M413.98 162.48a4.61 4.61 0 0 0-5.894-.718c-20.133 13.152-46.762 21.465-72.926 19.586-2.652-.2-4.941 1.918-4.941 4.597v40.426c0 25.984 20.36 49.715 51.152 49.715 27.414 0 49.715-22.3 49.715-49.715V182.68c.004-2.414.105-1.7-17.106-20.2zm0 0" fill="#ffcdbf"></path><path d="M361.7 226.371v-46.426c-8.716 1.5-17.653 2.043-26.54 1.403-2.652-.2-4.941 1.918-4.941 4.597v40.426c0 25.984 20.36 49.715 51.152 49.715a49.6 49.6 0 0 0 15.23-2.395c-21.5-6.644-34.902-26.242-34.902-47.32zm0 0" fill="#ffbeab"></path><path d="M305.148 497.078V374.594a7.737 7.737 0 0 0-7.734-7.735 7.737 7.737 0 0 0-7.734 7.735v122.484zM472.902 497.078V374.594c0-4.27-3.464-7.735-7.734-7.735s-7.734 3.465-7.734 7.735v122.484zm0 0" fill="#d8dce5"></path></g></svg>