<svg id="Smooth" enable-background="new 0 0 124 124" height="512" viewBox="0 0 124 124" width="512" xmlns="http://www.w3.org/2000/svg" xmlns:xlink="http://www.w3.org/1999/xlink"><linearGradient id="SVGID_1_" gradientUnits="userSpaceOnUse" x1="0" x2="124" y1="39.5" y2="39.5"><stop offset="0" stop-color="#db464e"/><stop offset="1" stop-color="#c62e37"/></linearGradient><linearGradient id="SVGID_2_" gradientUnits="userSpaceOnUse" x1="5" x2="119" y1="39.5" y2="39.5"><stop offset="0" stop-color="#e1dbc9"/><stop offset=".6667" stop-color="#f3e9dc"/></linearGradient><linearGradient id="SVGID_3_" gradientUnits="userSpaceOnUse" x1="32" x2="92" y1="39" y2="39"><stop offset=".0399" stop-color="#f98453"/><stop offset=".8094" stop-color="#fc754f"/></linearGradient><linearGradient id="lg1"><stop offset="0" stop-color="#906656"/><stop offset="1" stop-color="#725440"/></linearGradient><linearGradient id="SVGID_4_" gradientUnits="userSpaceOnUse" x1="2.39" x2="17.134" xlink:href="#lg1" y1="37.062" y2="37.062"/><linearGradient id="SVGID_5_" gradientUnits="userSpaceOnUse" x1="29.122" x2="38.165" xlink:href="#lg1" y1="26.375" y2="26.375"/><linearGradient id="SVGID_6_" gradientUnits="userSpaceOnUse" x1="20.549" x2="28.044" xlink:href="#lg1" y1="49.929" y2="49.929"/><linearGradient id="SVGID_7_" gradientUnits="userSpaceOnUse" x1="24.697" x2="33.519" xlink:href="#lg1" y1="37.86" y2="37.86"/><linearGradient id="lg2"><stop offset="0" stop-color="#cfd2d2"/><stop offset="1" stop-color="#a9adb0"/></linearGradient><linearGradient id="SVGID_8_" gradientUnits="userSpaceOnUse" x1="50.593" x2="53.26" xlink:href="#lg2" y1="45.949" y2="29.449"/><linearGradient id="SVGID_9_" gradientUnits="userSpaceOnUse" x1="63.507" x2="66.174" xlink:href="#lg2" y1="48.037" y2="31.537"/><linearGradient id="SVGID_10_" gradientUnits="userSpaceOnUse" x1="76.224" x2="78.89" xlink:href="#lg2" y1="50.092" y2="33.592"/><linearGradient id="SVGID_11_" gradientUnits="userSpaceOnUse" x1="83.956" x2="86.622" xlink:href="#lg2" y1="51.341" y2="34.841"/><linearGradient id="SVGID_12_" gradientUnits="userSpaceOnUse" x1="81.585" x2="84.251" xlink:href="#lg2" y1="50.958" y2="34.458"/><linearGradient id="SVGID_13_" gradientUnits="userSpaceOnUse" x1="71.807" x2="74.474" xlink:href="#lg2" y1="49.378" y2="32.878"/><linearGradient id="SVGID_14_" gradientUnits="userSpaceOnUse" x1="62.347" x2="65.013" xlink:href="#lg2" y1="47.849" y2="31.349"/><linearGradient id="SVGID_15_" gradientUnits="userSpaceOnUse" x1="58.979" x2="61.646" xlink:href="#lg2" y1="47.305" y2="30.805"/><linearGradient id="SVGID_16_" gradientUnits="userSpaceOnUse" x1="124.8" x2="135.55" xlink:href="#lg2" y1="132.788" y2="140.413"/><linearGradient id="SVGID_17_" gradientUnits="userSpaceOnUse" x1="-206.75" x2="-56.25" y1="65" y2="65"><stop offset="0" stop-color="#50a6d0"/><stop offset="1" stop-color="#198bc2"/></linearGradient><g><path d="m119 79h-114c-2.75 0-5-2.25-5-5v-69c0-2.75 2.25-5 5-5h114c2.75 0 5 2.25 5 5v69c0 2.75-2.25 5-5 5z" fill="url(#SVGID_1_)"/><path d="m117.001 74h-109.968c-1.099 0-1.999-.9-1.999-2l-.034-65c0-1.1.899-2 1.999-2h109.968c1.099 0 1.999.9 1.999 2l.034 65c0 1.1-.899 2-1.999 2z" fill="url(#SVGID_2_)"/><circle cx="62" cy="39" fill="url(#SVGID_3_)" r="30"/><path d="m80.823 15.646c-2.26-.423-4.546-.646-6.823-.646-20.402 0-37 16.598-37 37 0 1.303.095 2.615.235 3.93.768 1.121 1.608 2.189 2.517 3.194l-.339-1.734c-.274-1.779-.413-3.592-.413-5.39 0-19.299 15.701-35 35-35 2.723 0 5.463.324 8.136.961l1.63.406c-.919-.97-1.901-1.88-2.943-2.721z" fill="url(#SVGID_4_)"/><path d="m91.874 41.69c.062-.698.098-1.404.112-2.115l-.33.103c-2.8.878-5.712 1.322-8.656 1.322-15.439 0-28-12.112-28-27 0-1.266.097-2.561.289-3.852l.059-.399c-.705.16-1.402.339-2.087.548-.165 1.241-.261 2.484-.261 3.703 0 15.99 13.458 29 30 29 3.016 0 5.997-.449 8.874-1.31z" fill="url(#SVGID_5_)"/><path d="m32.821 32.598-.12-.04c-.144.657-.27 1.319-.37 1.991 11.171 3.809 18.669 14.015 18.669 25.451 0 2.221-.285 4.43-.84 6.569.616.265 1.244.507 1.88.731l.025-.096c.621-2.344.935-4.768.935-7.204 0-12.348-8.109-23.359-20.179-27.402z" fill="url(#SVGID_6_)"/><path d="m84.294 59.07c.483-.536.942-1.092 1.386-1.662l-.393-.116c-19.802-5.846-35.932-20.894-43.146-40.253l-.145-.39c-.539.482-1.057.986-1.559 1.506 7.455 19.601 23.795 34.845 43.857 40.915z" fill="url(#SVGID_7_)"/><path d="m58.592 62h-2.835l-22.15 23.508c.167.81.331 1.637.49 2.489z" fill="url(#SVGID_8_)"/><path d="m79.323 62h-2.835l-40.205 42.669c.075.912.143 1.844.208 2.788z" fill="url(#SVGID_9_)"/><path d="m97.529 64.678 1.471-2.678h-1.783l-57.478 61h2.835z" fill="url(#SVGID_10_)"/><path d="m88.622 96.13c.159-1.214.327-2.395.503-3.542l-28.656 30.412h2.834z" fill="url(#SVGID_11_)"/><path d="m89.904 87.997c.159-.852.323-1.679.49-2.489l-22.152-23.508h-2.835z" fill="url(#SVGID_12_)"/><path d="m87.51 107.457c.064-.944.133-1.876.208-2.788l-40.206-42.669h-2.835z" fill="url(#SVGID_13_)"/><path d="m84.261 123-57.478-61h-.783l1.556 3.83 53.87 57.17z" fill="url(#SVGID_14_)"/><path d="m60.696 123h2.834l-28.655-30.411c.176 1.147.344 2.328.503 3.542z" fill="url(#SVGID_15_)"/><path d="m87 124h-50c-.552 0-1-.447-1-1 0-27.324-4.397-44.248-8.086-53.634l-2.84-6.99c-.208-.512.038-1.095.55-1.303.515-.208 1.095.039 1.303.55l2.844 7c3.711 9.441 8.121 26.325 8.228 53.376h48.004c.106-27.051 4.517-43.935 8.223-53.366.016-.039.034-.078.054-.115l3.844-7c.266-.484.873-.662 1.358-.395.484.266.661.874.395 1.358l-3.813 6.943c-3.685 9.399-8.064 26.308-8.064 53.576 0 .553-.448 1-1 1z" fill="url(#SVGID_16_)"/><path d="m101 69h-78c-2.209 0-4-1.791-4-4 0-2.209 1.791-4 4-4h78c2.209 0 4 1.791 4 4 0 2.209-1.791 4-4 4z" fill="url(#SVGID_17_)"/></g></svg>