<svg viewBox="0 0 512 512" xmlns="http://www.w3.org/2000/svg"><g><path d="M433.71 177.709c0 28.06-6.51 54.61-18.09 78.21l-126.64 96.43a178.32 178.32 0 0 1-32.98 3.06c-98.15 0-177.71-79.56-177.71-177.701 0-25.69 5.45-50.1 15.26-72.15l.01.01C187.37.838 286.61 2.938 288.6 2.988h.03c82.56 15.32 145.08 87.72 145.08 174.721z" fill="#61a2f9"></path><path d="M287.394 4.082a85.76 85.76 0 0 1 .66 7.417c67.065 25.415 114.747 90.234 114.747 166.207 0 92.937-71.347 169.198-162.254 177.031 5.094.439 10.245.676 15.453.676 98.144 0 177.706-79.562 177.706-177.707 0-87.028-62.559-159.441-145.16-174.73a.987.987 0 0 0-1.152 1.106z" fill="#5490f9"></path><path d="M415.613 255.919c-24.281 49.459-70.866 85.979-126.64 96.436-.453-10.539-.505-21.912-5.8-29.886-17.194-25.961-36.314-34.82-27.104-69.826.33-9.272-4.059-18.42-2.637-27.588 4.45-22.953 32.307-26.538 51.942-24.642 36.777 5.378 46.822-16.246 73.658-8.334 22.077 4.471 23.189 30.421 31.204 47.461 2.492 5.345 4.244 10.826 5.377 16.379z" fill="#b7e445"></path><path d="M410.235 239.539c-8.015-17.039-9.127-42.99-31.204-47.461-10.762-3.173-18.824-1.593-26.992 1.088 18.329 6.604 19.778 30.402 27.29 46.373 2.493 5.347 6.018 14.287 7.152 19.839-19.72 40.168-55.321 69.519-97.878 84.731.16 2.756.252 5.528.369 8.246 55.774-10.456 102.359-46.976 126.64-96.436-1.132-5.553-2.884-11.034-5.377-16.38z" fill="#aad540"></path><path d="M291.82 92.204c-8.022 11.996 8.318 24.304 19.944 23.133 8.246-1.449 16.963-6.185 21.458-13.339 10.421-20.38-23.374-36.751-41.402-9.794z" fill="#ffd064"></path><path d="M139.404 184.841c8.547.572 16.735 3.219 24.757 6.077 21.497 8.753-5.664 32.766-20.128 27.857-22.823-5.007-39.783-34.562-4.629-33.934z" fill="#aad540"></path><path d="M208.556 108.444c26.667-1.778 42.207-11.097 44.333-17.688.74-2.294 1.771-4.892 2.933-7.167 11.991-24.663 40.847-46.709 34.017-76.842a41.108 41.108 0 0 0-1.205-3.76A179.346 179.346 0 0 0 255.997 0C183.534 0 121.208 43.36 93.558 105.563c7.027 12.048 15.952 19.638 25.699 24.677 38.187-20.462 71.334-20.598 89.299-21.796z" fill="#b7e445"></path><path d="M256.955 161.595c.242-25.035-11.139-48.398-4.066-70.839-15.603-.333-31.12 9.784-63.744 11.347-20.151.965-44.096 2.224-56.19 12.575-5.932 5.062-10.428 10.282-13.697 15.563 26.457 13.655 59.304 8.712 78.936 24.123 7.778 7.314 12.208 17.863 20.768 24.23 14.123 11.856 37.797 2.75 37.993-16.999z" fill="#ffd064"></path><path d="M224.064 376.26v19.808c0 17.605 14.271 31.876 31.876 31.876 17.67 0 31.995-14.325 31.995-31.995V376.26z" fill="#ffddce"></path><path d="M257.03 378.482v17.079c0 12.205-6.674 22.829-16.527 28.348a31.427 31.427 0 0 0 15.437 4.035c17.67 0 31.995-14.499 31.995-32.383v-17.079z" fill="#ffcbbe"></path><path d="M224.065 379.873h63.871v-6.142c0-17.279-14.298-31.287-31.935-31.287s-31.936 14.008-31.936 31.287z" fill="#b16e3d"></path><path d="M256 342.444a32.303 32.303 0 0 0-15.453 3.906c9.827 5.335 16.483 15.595 16.483 27.381v6.142h30.905v-6.142c.001-17.279-14.297-31.287-31.935-31.287z" fill="#985e33"></path><path d="m97.12 318.82 92.56 82.089a8.292 8.292 0 0 1 .803 11.59l-10.057 11.774a7.159 7.159 0 0 1-10.194.706L76.28 341.65c-6.57-5.83-7-16-.8-22.36 5.81-5.96 15.41-6 21.64-.47zM435.72 341.65l-93.779 83.172a7.166 7.166 0 0 1-10.311-.835l-10.064-12.351a7.85 7.85 0 0 1 .877-10.831l92.438-81.985c6.23-5.53 15.83-5.49 21.64.47 6.199 6.36 5.769 16.53-.801 22.36z" fill="#ffddce"></path><path d="m342.061 424.712-24.456 21.696a20.847 20.847 0 0 0-7.005 15.576v42.547a7.469 7.469 0 0 1-7.469 7.469H208.87a7.469 7.469 0 0 1-7.469-7.469v-42.547a20.845 20.845 0 0 0-7.005-15.576l-24.456-21.696 19.491-24.024 19.079 16.926c6.763 6 15.49 9.313 24.53 9.313h45.922a36.958 36.958 0 0 0 24.53-9.313l19.079-16.926z" fill="#da387d"></path><path d="m322.57 400.689-19.079 16.926a36.956 36.956 0 0 1-23.797 9.296v77.621a7.469 7.469 0 0 1-7.469 7.469h30.905a7.469 7.469 0 0 0 7.469-7.469v-42.547a20.845 20.845 0 0 1 7.005-15.576l24.456-21.696z" fill="#d80a61"></path><path d="M235.254 98.958c5.392-1.296 17.084-6.456 17.634-8.201a46.56 46.56 0 0 1 2.933-7.167c11.991-24.663 40.847-46.709 34.017-76.842a41.108 41.108 0 0 0-1.205-3.76A179.256 179.256 0 0 0 262.678.135c1.978 28.669-26.541 60.376-37.762 83.454-2.25 4.407-3.743 9.461-4.526 13.94-.399 2.287 9.871 2.629 14.864 1.429z" fill="#aad540"></path><path d="M252.889 90.756c-9.549-.204-19.073 3.505-32.498 6.773-3.309 20.366 5.877 41.538 5.659 64.065-.07 7.024-3.117 12.691-7.64 16.558.186.145.363.299.552.44 14.124 11.857 37.797 2.751 37.993-16.998.242-25.035-11.139-48.397-4.066-70.838z" fill="#ffc250"></path></g></svg>