<svg viewBox="0 0 512 512" xmlns="http://www.w3.org/2000/svg"><g><g><g fill="#4d5c7a"><path d="M210.85 54.411a5 5 0 0 1-5-5V5a5 5 0 0 1 10 0v44.411a5 5 0 0 1-5 5zM154.63 77.084a4.98 4.98 0 0 1-3.535-1.465l-31.4-31.4a5 5 0 1 1 7.071-7.07l31.4 31.4a5 5 0 0 1-3.535 8.535zM130.91 132.869H86.5a5 5 0 0 1 0-10h44.41a5 5 0 0 1 0 10zM333.719 134.35h-44.411a5 5 0 0 1 0-10h44.411a5 5 0 0 1 0 10zM266.635 78.131A5 5 0 0 1 263.1 69.6l31.4-31.4a5 5 0 1 1 7.07 7.071l-31.4 31.4a4.981 4.981 0 0 1-3.535 1.46z" fill="#4d5c7a"></path></g><path d="M94.735 315.9c14.051 35.062 44.343 103.912 77.359 148.743A104.889 104.889 0 0 0 256.641 507h80.422c31.964 0 61.591-17.719 75.809-46.347q.661-1.332 1.305-2.711a124.472 124.472 0 0 0 11.323-52.629v-133.69c0-35.822-62.175-43.224-62.175-7.4 0-58-62.175-58-62.175 0 7.4-71.058-66.616-72.538-59.214 0V116.186c0-39.35-62.175-39.35-62.175 0v201.328S152.79 277.9 119.834 278.17c-19.278.158-32.27 19.83-25.099 37.73z" fill="#ffbe82"></path></g></g></svg>