<svg viewBox="0 0 512 512" xmlns="http://www.w3.org/2000/svg"><g><path d="m363.024 398.767-78.985-50.016 78.985-50.016a15 15 0 0 0 0-25.346l-78.987-50.017 78.987-50.017c6.999-4.432 9.08-13.699 4.648-20.698-4.431-6.997-13.696-9.081-20.697-4.648L256 205.618l-90.976-57.608c-6.997-4.431-16.265-2.35-20.697 4.648-4.432 6.999-2.351 16.266 4.648 20.698l78.986 50.016-78.986 50.017a14.998 14.998 0 0 0 0 25.346l78.987 50.017-78.987 50.018c-6.999 4.432-9.08 13.699-4.648 20.698 2.854 4.509 7.717 6.977 12.687 6.977 2.744 0 5.521-.753 8.011-2.329l90.977-57.609 90.975 57.607a14.922 14.922 0 0 0 8.01 2.329c4.97 0 9.832-2.468 12.688-6.977 4.429-7 2.348-16.267-4.651-20.699zM185.038 286.061 256 241.126l70.962 44.935L256 330.997z" fill="#4a4992"></path><path d="m363.024 398.767-78.985-50.016 78.985-50.016a15 15 0 0 0 0-25.346l-78.987-50.017 78.987-50.017c6.999-4.432 9.08-13.699 4.648-20.698-4.431-6.997-13.696-9.081-20.697-4.648L256 205.618v35.508l70.962 44.935L256 330.997v35.509h.001l90.975 57.607a14.922 14.922 0 0 0 8.01 2.329c4.97 0 9.832-2.468 12.688-6.977 4.43-6.999 2.349-16.266-4.65-20.698z" fill="#383774"></path><path d="M451.002 396.44H60.997c-8.284 0-15 6.716-15 15v50.001c0 8.284 6.716 15 15 15h390.005c8.283 0 15-6.716 15-15V411.44c0-8.284-6.717-15-15-15z" fill="#ffa85f"></path><path d="M451.002 396.44H256v80.001h195.002c8.283 0 15-6.716 15-15V411.44c0-8.284-6.717-15-15-15z" fill="#ff8659"></path><path d="M497 486.442H15c-8.284 0-15-6.716-15-15s6.716-15 15-15h482c8.283 0 15 6.716 15 15s-6.717 15-15 15z" fill="#bee75e"></path><path d="M497 456.442H256v30h241c8.283 0 15-6.716 15-15s-6.717-15-15-15z" fill="#7fb24c"></path><path d="M390.997 25.558H121.003c-8.284 0-15 6.716-15 15v60.001c0 8.284 6.716 15 15 15s15-6.716 15-15V55.558h37.499v45.001c0 8.284 6.715 15 15 15 8.284 0 15-6.716 15-15V55.558H241v45.001c0 8.284 6.716 15 15 15 8.283 0 15-6.716 15-15V55.558h37.498v45.001c0 8.284 6.716 15 15 15s15-6.716 15-15V55.558h37.499v45.001c0 8.284 6.716 15 15 15s15-6.716 15-15V40.558c0-8.284-6.716-15-15-15z" fill="#ff8659"></path><path d="M390.997 25.558H256v90.001c8.283 0 15-6.716 15-15V55.558h37.498v45.001c0 8.284 6.716 15 15 15s15-6.716 15-15V55.558h37.499v45.001c0 8.284 6.716 15 15 15s15-6.716 15-15V40.558c0-8.284-6.716-15-15-15z" fill="#ff4a4a"></path><path d="M421 85.559H91c-8.284 0-15 6.716-15 15v60.001c0 8.284 6.716 15 15 15h330c8.283 0 15-6.716 15-15v-60.001c0-8.284-6.717-15-15-15z" fill="#ffa85f"></path><path d="M421 85.559H256v90.001h165c8.283 0 15-6.716 15-15v-60.001c0-8.284-6.717-15-15-15z" fill="#ff8659"></path></g></svg>