<svg viewBox="0 0 512 512" xmlns="http://www.w3.org/2000/svg"><g><path d="M8.918 10.922h494.16v417.297H8.918zm0 0" fill="#aa6615"></path><path d="M24.594 26.594h462.812v385.949H24.594zm0 0" fill="#bf822b"></path><path d="M512 86.79V14.495C512 6.492 505.508 0 497.504 0H425.21c0 47.934 38.855 86.79 86.789 86.79zM425.21 439.14h72.29c8.008 0 14.5-6.492 14.5-14.5v-72.288c-47.934 0-86.79 38.855-86.79 86.789zM0 86.79V14.495C0 6.492 6.492 0 14.496 0H86.79C86.79 47.934 47.934 86.79 0 86.79zM86.79 439.14H14.5c-8.008 0-14.5-6.492-14.5-14.5v-72.288c47.934 0 86.79 38.855 86.79 86.789zm0 0" fill="#f4ca62"></path><path d="M66.39 68.39h379.22v302.356H66.39zm0 0" fill="#ccd2d6"></path><path d="M82.063 84.063h347.875v271.011H82.063zm0 0" fill="#ffffff"></path><g fill="#aa6615"><path d="M445.61 375.973H66.39a5.226 5.226 0 0 1-5.226-5.223V68.39a5.223 5.223 0 0 1 5.227-5.222h379.218a5.22 5.22 0 0 1 5.223 5.223v302.355a5.223 5.223 0 0 1-5.223 5.227zm-373.997-10.45h368.774V73.613H71.613zM478.547 40.328c-7.39 0-10.656-9.82-4.613-14.172 5.796-4.172 13.988 1.278 12.207 8.262-.88 3.426-4.055 5.91-7.594 5.91zM33.46 40.328c-7.257 0-10.581-9.52-4.847-13.988 5.633-4.395 14.004.742 12.516 7.762-.758 3.578-4.008 6.226-7.668 6.226zM478.547 410.305c-6.973 0-10.445-8.852-5.328-13.59 2.449-2.266 6.152-2.695 9.074-1.117 2.996 1.62 4.625 5.148 3.918 8.484-.758 3.57-4.008 6.223-7.664 6.223zM33.46 410.305c-3.198 0-6.151-2.032-7.3-5.016-1.18-3.078-.293-6.629 2.215-8.777 5.469-4.692 14.016.258 12.809 7.3-.637 3.704-3.973 6.493-7.723 6.493zm0 0" fill="#aa6615"></path></g></g></svg>