<svg viewBox="0 0 512 512" xmlns="http://www.w3.org/2000/svg"><g><path d="M76.591 0C55.97 0 39.941 17.227 40.215 35.983h-.004v439.93c.277-19.861 16.453-35.877 36.38-35.877h375.442c10.91 0 19.755-8.845 19.755-19.755V18.089C471.788 8.098 463.69 0 453.701 0H76.591z" fill="#93482b"></path><path d="M113.457 35.983h.004C113.194 17.292 129.139 0 149.837 0H76.592c-20.64 0-36.644 17.242-36.376 35.983h-.004v439.93c.277-19.861 16.453-35.877 36.38-35.877h36.865V35.983z" fill="#843c25"></path><path d="M79.084 0h-2.492c-20.621 0-36.65 17.227-36.376 35.983h-.004v439.93c.277-19.861 16.453-35.877 36.38-35.877h2.492V0z" fill="#773423"></path><path d="M301.938 104.833c-7.074-6.014-14.92-3.959-19.084-4.369a7.726 7.726 0 0 1-7.719-8.081 7.728 7.728 0 0 1 8.543-7.373h6.2c8.127 0 15.965 2.858 22.07 8.049 13.998 11.9 31.518 17.828 50.276 16.988 4.275-.161 7.872 3.118 8.059 7.38a7.727 7.727 0 0 1-7.379 8.06c-23.638 1.04-45.07-7.139-60.966-20.654zM172.528 125.581a7.727 7.727 0 0 1 0-15.454c22.119 0 37.674-9.278 46.829-17.062 12.227-10.396 25.456-7.597 29.093-8.049a7.727 7.727 0 0 1 0 15.454c-4.275.421-11.979-1.67-19.083 4.368-9.111 7.748-28.61 20.743-56.839 20.743z" fill="#dddddd"></path><path d="M328.592 190.739c-5.476 0-9.265-5.603-7.123-10.715l22.714-54.206v-18.681a7.727 7.727 0 0 1 15.454 0c-.187 20.448.446 20.722-.6 23.221l-23.314 55.638a7.732 7.732 0 0 1-7.131 4.743z" fill="#f7cf9c"></path><path d="m368.097 185.997-23.314-55.638c-1.046-2.5-.412-2.729-.6-23.221a7.727 7.727 0 0 1 15.454 0v18.681l22.714 54.206a7.726 7.726 0 0 1-4.141 10.112c-3.911 1.641-8.455-.183-10.113-4.14zM153.761 190.137a7.726 7.726 0 0 1-4.141-10.112l22.712-54.202v-18.679a7.727 7.727 0 0 1 15.454 0c-.187 20.448.446 20.72-.6 23.219l-23.312 55.634a7.727 7.727 0 0 1-10.113 4.14z" fill="#f7cf9c"></path><path d="M196.245 185.997c-24.062-57.956-23.913-55.787-23.913-58.62v-20.233a7.727 7.727 0 0 1 15.454 0v18.679l22.712 54.202a7.726 7.726 0 0 1-4.141 10.112c-3.91 1.641-8.453-.183-10.112-4.14z" fill="#f7cf9c"></path><path d="M374.073 205.981c5.577-2.633 9.755-7.884 10.699-14.523.413-2.915.516-5.707.514-5.653a2.325 2.325 0 0 0-2.329-2.417h-62.094c-1.318 0-2.384 1.092-2.33 2.409.373 8.969 2.65 16.071 11.301 20.23 5.78 2.759 6.369 5.57 10.823 5.57h22.506c2.865 0 4.959-1.714 4.959-1.714a26.3 26.3 0 0 1 5.951-3.902zM202.223 205.981c7.056-3.332 10.231-9.328 10.982-16.911.164-1.67.238-3.435.231-3.265a2.325 2.325 0 0 0-2.329-2.417h-62.094c-2.354 0-2.386 2.573-2.329 2.434a57.2 57.2 0 0 0 .615 6.263c.987 5.822 4.682 11.057 10.685 13.943 5.771 2.754 6.355 5.57 10.823 5.57h22.506c4.493-.002 5.182-2.921 10.91-5.617z" fill="#ffb70d"></path><path d="M188.326 205.981c-8.402-3.968-10.734-11.073-11.213-20.184-.055-1.317 1.012-2.409 2.33-2.409h-30.43c-2.354 0-2.386 2.572-2.329 2.433.092 2.18.306 4.239.615 6.263.989 5.833 4.697 11.071 10.685 13.943 5.776 2.76 6.35 5.57 10.823 5.57 21.332-.489 22.837.93 26.468-1.075-1.56-.862-2.956-2.666-6.949-4.541z" fill="#f2a306"></path><path d="M76.591 440.035c-19.927 0-36.103 16.017-36.38 35.877.277 19.861 16.453 35.878 36.38 35.878v.21h356.197v-71.965H76.591z" fill="#eae4d6"></path><path d="M102.026 475.913c.277-19.861 16.453-35.877 36.38-35.877H76.591c-19.927 0-36.103 16.017-36.38 35.877.277 19.861 16.453 35.878 36.38 35.878V512h61.815v-.209c-19.926 0-36.103-16.018-36.38-35.878z" fill="#ddd3c0"></path><path d="M452.034 440.035h-19.245V512h19.208c10.93 0 19.792-8.861 19.792-19.792V420.28c-.001 10.91-8.845 19.755-19.755 19.755z" fill="#773423"></path><path d="M451.997 475.913h-19.208V512h19.208c10.93 0 19.792-8.861 19.792-19.792v-36.087c-.001 10.93-8.862 19.792-19.792 19.792z" fill="#843c25"></path><path d="M338.472 320.707h-145.54a7.727 7.727 0 0 1 0-15.454h145.54a7.727 7.727 0 0 1 0 15.454zM338.472 353.158h-145.54a7.727 7.727 0 0 1 0-15.454h145.54a7.727 7.727 0 0 1 0 15.454zM338.472 385.61h-145.54a7.727 7.727 0 0 1 0-15.454h145.54a7.727 7.727 0 0 1 0 15.454z" fill="#ad5c44"></path><path d="M113.457 440.035v39.778c0 2.444 2.697 3.925 4.759 2.615l18.9-12.005a5.283 5.283 0 0 1 5.665 0l18.635 11.837c2.177 1.383 5.024-.181 5.024-2.761v-39.465h-52.983v.001z" fill="#f94a46"></path><path d="M139.948 440.035h-26.492v39.778c0 2.443 2.697 3.925 4.759 2.615 19.37-11.977 19.029-12.828 21.732-12.828v-29.565h.001z" fill="#ef3c3c"></path><path d="M265.701 211.418a7.727 7.727 0 0 1-7.727-7.727V65.106a7.727 7.727 0 0 1 15.454 0v138.585a7.726 7.726 0 0 1-7.727 7.727z" fill="#dddddd"></path><circle cx="265.7" cy="92.88" fill="#666666" r="16.407"></circle><path d="M265.709 76.487c-12.513-.018-20.568 13.598-14.217 24.598 4.531 7.847 14.565 10.536 22.413 6.006a16.311 16.311 0 0 0 5.998-6.018c-12.62-.019-20.5-13.627-14.194-24.586z" fill="#535454"></path><path d="M271.876 203.69h-12.349c-8.415 0-15.238 6.822-15.238 15.238v17.375h42.824v-17.375c.001-8.415-6.821-15.238-15.237-15.238z" fill="#ffb70d"></path><path d="M276.408 204.376c-3.618-1.125-5.525-.509-16.88-.685-8.415 0-15.238 6.822-15.238 15.238v17.375h21.412v-17.375c0-6.838 4.503-12.624 10.706-14.553z" fill="#f2a306"></path><path d="M302.897 249.404c0-8.416-6.822-15.238-15.238-15.238h-43.256c-8.416 0-15.238 6.822-15.238 15.238 0 8.415 6.822 15.238 15.238 15.238h43.256c8.416 0 15.238-6.822 15.238-15.238z" fill="#666666"></path><path d="M264.507 249.404c0-8.416 6.822-15.238 15.238-15.238h-35.342c-8.416 0-15.238 6.822-15.238 15.238s6.822 15.238 15.238 15.238h35.342c-8.415 0-15.238-6.823-15.238-15.238z" fill="#535454"></path><path d="M360.264 206.026c-8.402-4.03-10.808-10.853-11.301-20.23-.055-1.317 1.012-2.409 2.33-2.409h-30.43c-1.318 0-2.384 1.092-2.33 2.409.446 8.504 2.233 15.88 11.301 20.23 5.777 2.76 6.376 5.57 10.823 5.57 21.332-.489 22.837.93 26.468-1.075-1.61-.888-2.79-2.55-6.861-4.495z" fill="#f2a306"></path></g></svg>