<svg viewBox="0 0 512 512" xmlns="http://www.w3.org/2000/svg"><g><path d="M444.237 377.016a16.518 16.518 0 0 1-6.56-13.179v-1.2l-42.249-1.428-11.566 37.792 39.095 8.199z" fill="#fbbd80"></path><path d="M388.129 326.194v37.644c0 5.281-2.51 10.122-6.566 13.184l.502 18.152c9.936-3.313 17.409-11.017 20.674-20.524 1.483-4.32 5.511-7.173 10.078-7.165h.087c8.768 0 17.118-1.746 24.774-4.847v-36.443h-49.549z" fill="#f4aa73"></path><path d="M448.971 379.506a16.506 16.506 0 0 1-4.734-2.49l-23.076 23.5-8.258 8.258-8.258-8.258-11.47-11.679-37.33 9.675 7.51 76.326h33.032l16.58-8.562 16.452 8.562h33.032l6.334-45.051L462.452 384z" fill="#eceaec"></path><path d="m363.355 401.411 18.71-6.238a32.728 32.728 0 0 0 11.111-6.336l-11.613-11.816a16.48 16.48 0 0 1-4.727 2.485l-13.481 4.493-7.075 11.689z" fill="#dbd8db"></path><path d="M421.161 400.516h-16.516l-8.258 74.323h33.032z" fill="#615260"></path><path d="m363.355 401.411-26.963-4.046c-13.488 4.496-14.864 17.119-14.864 31.337v29.62l8.794 16.516h33.032v-73.427zM462.452 383.999l26.963 8.988A33.033 33.033 0 0 1 512 424.324v33.998c0 9.121-7.395 16.516-16.516 16.516h-33.032z" fill="#d48c64"></path><path d="m341.621 408.657 21.734-7.246v-17.412l-26.963 8.988a33.032 33.032 0 0 0-22.586 31.337v33.998c0 9.121 7.395 16.516 16.516 16.516v-50.516a16.492 16.492 0 0 1 11.299-15.665z" fill="#c6805d"></path><path d="M297.464 103.226H256l20.59-54.907c2.025-5.399-1.966-11.157-7.732-11.157h-61.449l-31.361 84.646 52.561 10.425-7.299 96.525 82.803-112.375c4.017-5.453.124-13.157-6.649-13.157z" fill="#ffe077"></path><path d="M130.431 377.016a16.518 16.518 0 0 1-6.56-13.179v-1.2l-42.249-1.428-11.566 37.792 39.095 8.199z" fill="#c6805d"></path><path d="M74.323 326.194v37.644c0 5.281-2.51 10.122-6.566 13.184l.502 18.152c9.936-3.313 17.409-11.017 20.674-20.524 1.483-4.32 5.511-7.173 10.078-7.165h.087c8.768 0 17.118-1.746 24.774-4.847v-36.443H74.323z" fill="#af6e4d"></path><path d="M135.164 379.506a16.506 16.506 0 0 1-4.734-2.49l-23.076 23.5-8.258 8.258-8.258-8.258-11.47-11.679-37.33 9.675 7.51 76.326H82.58l16.58-8.562 16.452 8.562h33.032l6.334-45.051L148.645 384z" fill="#eceaec"></path><path d="m49.548 401.411 18.71-6.238a32.728 32.728 0 0 0 11.111-6.336l-11.613-11.816a16.48 16.48 0 0 1-4.727 2.485l-13.481 4.493-7.075 11.689z" fill="#dbd8db"></path><path d="M107.355 400.516H90.839l-8.258 74.323h33.032z" fill="#7ad7ee"></path><path d="M115.613 235.355H93.641c-18.243 0-33.032 14.789-33.032 33.032v33.032c0 27.365 11.123 48.713 38.488 48.713l12.448-.741c21.34-5.521 37.101-24.906 37.101-47.972v-33.032c-.001-18.243-14.79-33.032-33.033-33.032z" fill="#d48c64"></path><path d="m49.548 401.411-26.963-4.046c-13.488 4.496-14.864 17.119-14.864 31.337v29.62l8.794 16.516h33.032v-73.427zM148.645 383.999l26.963 8.988a33.032 33.032 0 0 1 22.586 31.337v33.998c0 9.121-7.395 16.516-16.516 16.516h-33.032v-90.839z" fill="#615260"></path><path d="m27.815 408.657 21.734-7.246v-17.412l-26.963 8.988A33.033 33.033 0 0 0 0 424.324v33.998c0 9.121 7.395 16.516 16.516 16.516v-50.516a16.49 16.49 0 0 1 11.299-15.665z" fill="#4e3d4d"></path><path d="M74.323 301.419v-64.897c-14.222 3.683-24.774 16.49-24.774 31.864v33.032c0 27.365 22.183 49.548 49.548 49.548 4.285 0 8.482-.554 12.448-1.577-21.359-5.507-37.222-24.89-37.222-47.97z" fill="#c6805d"></path><path d="M313.147 152.774h-23.503c-4.81 0-8.603 4.095-8.234 8.891l6.988 90.839 26.68-8.891 6.303-81.947c.369-4.797-3.424-8.892-8.234-8.892z" fill="#ff7e92"></path><circle cx="297.29" cy="301.419" fill="#ff7e92" r="16.516"></circle><path d="M412.903 350.968c-27.365 0-49.548-22.184-49.548-49.548v-33.032c0-18.243 14.789-33.032 33.032-33.032h33.032c18.243 0 33.032 14.789 33.032 33.032v33.032c.001 27.364-22.183 49.548-49.548 49.548z" fill="#ffd18d"></path><path d="M388.129 301.419v-64.897c-14.222 3.683-24.774 16.49-24.774 31.864v33.032c0 27.365 22.183 49.548 49.548 49.548 4.285 0 8.421-.601 12.387-1.624-21.359-5.507-37.161-24.843-37.161-47.923z" fill="#fbbd80"></path><path d="M115.613 227.097H82.581c-2.828 0-5.589.291-8.258.832l-7.198 17.461 7.2 24.494a8.253 8.253 0 0 1 4.84.117l69.481 23.16a28.194 28.194 0 0 0 8.258-19.937v-4.837c-.001-22.804-18.487-41.29-41.291-41.29z" fill="#615260"></path><path d="M74.323 227.929c-18.846 3.827-33.032 20.483-33.032 40.458v4.837c0 7.478 2.97 14.649 8.258 19.937l21.165-21.165a8.31 8.31 0 0 1 3.611-2.112z" fill="#4e3d4d"></path><path d="M222.966 119.742H207.58c-10.78 0-18.67-10.159-16.002-20.604l15.831-61.977h-11.026a8.259 8.259 0 0 0-8.012 6.255l-20.645 82.58c-1.303 5.212 2.639 10.261 8.012 10.261h47.23l-19.917 99.585c-1.155 5.775 6.341 9.088 9.834 4.347l8.424-11.433 17.853-89.26c2.044-10.219-5.773-19.754-16.196-19.754z" fill="#ffd05b"></path><path d="M304.278 243.613a8.257 8.257 0 0 1-8.233-7.625l-6.401-83.214h-8.21c-4.81 0-8.603 4.095-8.234 8.891l6.987 90.839a8.259 8.259 0 0 0 8.234 7.625h17.738a8.259 8.259 0 0 0 8.234-7.625l.684-8.891z" fill="#ff5f7a"></path></g></svg>