<svg viewBox="0 0 24 24" xmlns="http://www.w3.org/2000/svg"><g><path d="M23 0H1a1 1 0 0 0-1 1v4a1 1 0 0 0 1 1h22a1 1 0 0 0 1-1V1a1 1 0 0 0-1-1z" fill="#42a5f5"></path><path d="M23 9H1a1 1 0 0 0-1 1v4a1 1 0 0 0 1 1h22a1 1 0 0 0 1-1v-4a1 1 0 0 0-1-1zM23 18H1a1 1 0 0 0-1 1v4a1 1 0 0 0 1 1h22a1 1 0 0 0 1-1v-4a1 1 0 0 0-1-1z" fill="#90caf9"></path><path d="M12 0H1a1 1 0 0 0-1 1v4a1 1 0 0 0 1 1h11z" fill="#3990d5"></path><g fill="#7db0d9"><path d="M12 9H1a1 1 0 0 0-1 1v4a1 1 0 0 0 1 1h11zM12 18H1a1 1 0 0 0-1 1v4a1 1 0 0 0 1 1h11z" fill="#7db0d9"></path></g></g></svg>