<svg id="Flat" height="512" viewBox="0 0 512 512" width="512" xmlns="http://www.w3.org/2000/svg"><path d="m488 256a232.13455 232.13455 0 0 1 -317.13 215.87988c-86.01-33.93994-146.87-117.80981-146.87-215.87988 0-96.98 59.5-180.06006 144-214.72a231.20362 231.20362 0 0 1 88-17.28 234.98159 234.98159 0 0 1 24 1.23c116.85 12.01 208 110.74 208 230.77z" fill="#8acce7"/><path d="m184 328 40 8v104l-53.13 31.87988c-86.01-33.93994-146.87-117.80981-146.87-215.87988 0-96.98 59.5-180.06006 144-214.72v38.72l64 64-24 56h-56v40l56 8-8 32h-32l-8 24z" fill="#4ba477"/><path d="m488 256a231.40366 231.40366 0 0 1 -76.24 171.93994l-43.76-11.93994-88-88v-80l48-24v-64l-16-48-32-24v-62.77c116.85 12.01 208 110.74 208 230.77z" fill="#4ba477"/><rect fill="#26507a" height="144" rx="16" width="128" x="40" y="344"/><rect fill="#396795" height="144" rx="16" width="96" x="72" y="344"/><path d="m88 368h16v96h-16z" fill="#26507a"/><path d="m112 368h16v96h-16z" fill="#26507a"/><path d="m136 368h16v96h-16z" fill="#26507a"/><circle cx="44" cy="468" fill="#d3e1e9" r="20"/><path d="m44 496a28 28 0 1 1 28-28 28.03146 28.03146 0 0 1 -28 28zm0-40a12 12 0 1 0 12 12 12.01343 12.01343 0 0 0 -12-12z" fill="#395166"/><path d="m128 344h-16v-56h8a8 8 0 0 1 8 8z" fill="#d3e1e9"/><path d="m80 344h-16v-48a8 8 0 0 1 8-8h8z" fill="#d3e1e9"/><path d="m80 288h32v16h-32z" fill="#395166"/><g fill="#e44b4d"><circle cx="96" cy="240" r="16"/><path d="m126.33252 210.626-12.041-10.53711 11.04395-12.6211 12.041 10.53711zm21.97412-23.62891-10.27051-12.26953a97.73484 97.73484 0 0 1 15.02487-10.34963l7.80371 13.96875a81.5605 81.5605 0 0 0 -12.55807 8.65039z"/><path d="m338.188 231.86035a97.74227 97.74227 0 0 1 -18.04444-2.67285l3.81543-15.53906a81.69938 81.69938 0 0 0 15.08252 2.23535zm18.23-.7334-2.1377-15.85742a81.65916 81.65916 0 0 0 14.855-3.44238l5.05567 15.17969a97.74016 97.74016 0 0 1 -17.77297 4.12016zm-53.50586-7.92871a97.75967 97.75967 0 0 1 -15.81445-9.09472l9.23925-13.0625a81.80805 81.80805 0 0 0 13.21973 7.60253zm87.9707-3.54687-7.79394-13.97266a81.70741 81.70741 0 0 0 12.56152-8.63965l10.26172 12.27539a97.69746 97.69746 0 0 1 -15.02933 10.33692zm-117.3555-16.18457-13.09619-10.47657 9.99512-12.49414 13.09619 10.47657zm-25.90625-20.53907a81.63285 81.63285 0 0 0 -13.22265-7.59179l6.63379-14.56055a97.72694 97.72694 0 0 1 15.81933 9.084zm-72.80664-10.73828-5.06345-15.17773a97.72044 97.72044 0 0 1 17.77-4.12891l2.14648 15.85547a81.66013 81.66013 0 0 0 -14.85303 3.45117zm45.17627-1.85156a81.58886 81.58886 0 0 0 -15.085-2.22461l.84278-15.97851a97.6646 97.6646 0 0 1 18.04882 2.66211z"/><path d="m456 80a56 56 0 0 0 -112 0c0 30.92795 56 96 56 96s56-65.072 56-96z"/></g><circle cx="400" cy="80" fill="#d3e1e9" r="32"/><path d="m360 168h80v16h-80z" fill="#395166"/></svg>