<svg viewBox="0 0 512 512" xmlns="http://www.w3.org/2000/svg"><g><g fill="#4a80aa"><path d="M323.567 411.146c14.319 0 25.926 11.608 25.926 25.926V512H297.64v-74.928c.001-14.318 11.609-25.926 25.927-25.926zM411.845 460.147c14.319 0 25.926 11.608 25.926 25.926V512h-51.853v-25.926c.001-14.319 11.609-25.927 25.927-25.927zM235.289 334.563c14.319 0 25.926 11.608 25.926 25.926V512h-51.853V360.489c.001-14.319 11.608-25.926 25.927-25.926zM147.011 219.675c14.319 0 25.926 11.608 25.926 25.926V512h-51.853V245.601c0-14.319 11.608-25.926 25.927-25.926zM58.733 130.06c14.319 0 25.926 11.608 25.926 25.926V512H32.806V155.986c0-14.319 11.608-25.926 25.927-25.926z" fill="#4a80aa"></path></g><path d="M336.534 414.617c-7.757 4.481-12.97 12.857-12.97 22.458V512h-25.919v-74.925c0-14.32 11.61-25.93 25.919-25.93a25.82 25.82 0 0 1 12.97 3.472zM424.811 463.623c-7.747 4.481-12.96 12.857-12.96 22.448V512h-25.93v-25.93c0-14.319 11.61-25.919 25.93-25.919 4.729 0 9.148 1.257 12.96 3.472zM248.258 338.033c-7.757 4.481-12.97 12.857-12.97 22.458V512h-25.919V360.491c0-14.32 11.6-25.93 25.919-25.93a25.84 25.84 0 0 1 12.97 3.472zM159.982 223.148c-7.757 4.481-12.97 12.857-12.97 22.458V512h-25.93V245.606c0-14.32 11.61-25.93 25.93-25.93 4.729 0 9.158 1.267 12.97 3.472zM71.706 133.532c-7.757 4.481-12.97 12.857-12.97 22.458V512h-25.93V155.99c0-14.32 11.61-25.93 25.93-25.93 4.728 0 9.158 1.268 12.97 3.472z" fill="#407093"></path><path d="m489.21 247.629-38.943 132.16c-4.92 16.698-26.07 21.809-38.072 9.201L317.2 289.2c-12.004-12.61-5.855-33.485 11.067-37.574l28.61-6.915C295.692 138.818 182.192 72.248 57.965 72.248c-19.95 0-36.124-16.173-36.124-36.124S38.015 0 57.965 0c157.37 0 300.496 88.346 371.575 227.15l32.664-7.894c16.923-4.09 31.927 11.674 27.006 28.373z" fill="#b1e4f9"></path><path d="M356.403 289.203c-12.002-12.609-5.851-33.491 11.074-37.581l4.471-1.08c12.172-2.941 17.523-17.184 10.38-27.468C315.641 127.061 185.688 49.64 70.151 49.408 50.411 49.369 33.89 33.73 33.51 13.994c-.03-1.575.039-3.122.209-4.639-7.294 6.604-11.879 16.155-11.878 26.767.002 19.861 17.077 36.08 36.938 36.126 123.909.292 237.039 66.802 298.098 172.462l-28.618 6.913c-16.915 4.09-23.066 24.972-11.064 37.581l94.993 99.783c10.57 11.105 28.237 8.468 35.665-3.729z" fill="#90d8f9"></path></g></svg>