<svg viewBox="0 0 497 497" xmlns="http://www.w3.org/2000/svg"><g><circle cx="446.5" cy="67.666" fill="#ffc682" r="31.5"></circle><path d="M414.346 196.834h63.809c9.994 0 18.846-8.674 18.846-18.668v-4c0-27.483-23.029-49.668-50.513-49.668h-.475c-27.483 0-49.763 22.279-49.763 49.763v4.477c0 9.994 8.102 18.096 18.096 18.096z" fill="#50758d"></path><circle cx="446.5" cy="331.666" fill="#ffc682" r="31.5"></circle><path d="M414.346 460.834h63.809c9.994 0 18.846-8.674 18.846-18.668v-4c0-27.483-23.029-49.668-50.513-49.668h-.475c-27.483 0-49.763 22.279-49.763 49.763v4.477c0 9.994 8.102 18.096 18.096 18.096z" fill="#50758d"></path><path d="M282 76.5v80c0 5.523-4.477 10-10 10h-51l-10-49.154L221 66.5h51c5.523 0 10 4.477 10 10zM282 340.5v80c0 5.523-4.477 10-10 10h-51l-10-50 10-50h51c5.523 0 10 4.477 10 10z" fill="#f5f5f5"></path><path d="M221 330.5v100h-37.43C83.52 430.5.05 348.64 0 248.59v-.09l49.883-10 50.117 10c0 22.64 9.18 43.14 24.02 57.98S159.36 330.5 182 330.5z" fill="#fd646f"></path><path d="M221 66.5v100h-39c-.64 0-1.28.01-1.92.03-44.4 1.01-80.08 37.32-80.08 81.97H0c0-100.36 81.64-182 182-182z" fill="#2edffc"></path><g fill="#fad207"><path d="M365 438h-54c-4.143 0-7.5-3.357-7.5-7.5s3.357-7.5 7.5-7.5h54c4.143 0 7.5 3.357 7.5 7.5s-3.357 7.5-7.5 7.5zM355 338h-42c-4.143 0-7.5-3.357-7.5-7.5s3.357-7.5 7.5-7.5h42c4.143 0 7.5 3.357 7.5 7.5s-3.357 7.5-7.5 7.5zM390 388h-31.5c-4.143 0-7.5-3.357-7.5-7.5s3.357-7.5 7.5-7.5H390c4.143 0 7.5 3.357 7.5 7.5s-3.357 7.5-7.5 7.5zM326.5 388H317c-4.143 0-7.5-3.357-7.5-7.5s3.357-7.5 7.5-7.5h9.5c4.143 0 7.5 3.357 7.5 7.5s-3.357 7.5-7.5 7.5zM365 74h-54c-4.143 0-7.5-3.357-7.5-7.5s3.357-7.5 7.5-7.5h54c4.143 0 7.5 3.357 7.5 7.5S369.143 74 365 74zM355 174h-42c-4.143 0-7.5-3.357-7.5-7.5s3.357-7.5 7.5-7.5h42c4.143 0 7.5 3.357 7.5 7.5s-3.357 7.5-7.5 7.5zM390 124h-21.5c-4.143 0-7.5-3.357-7.5-7.5s3.357-7.5 7.5-7.5H390c4.143 0 7.5 3.357 7.5 7.5s-3.357 7.5-7.5 7.5zM336.5 124H317c-4.143 0-7.5-3.357-7.5-7.5s3.357-7.5 7.5-7.5h19.5c4.143 0 7.5 3.357 7.5 7.5s-3.357 7.5-7.5 7.5z" fill="#fad207"></path></g><path d="M282 141.5v15c0 5.523-4.477 10-10 10h-51L211 154l10-12.5z" fill="#e6e6e6"></path><path d="M221 141.5v25h-39c-.64 0-1.28.01-1.92.03-44.4 1.01-80.08 37.32-80.08 81.97-.63-4.07 0-20.76 0-25 0-45.29 47.71-82 93-82z" fill="#27bdf3"></path><path d="M282 405.5v15c0 5.523-4.477 10-10 10h-51L211 418l10-12.5z" fill="#e6e6e6"></path><path d="M221 405.5v25c-33.847.421-72.337 1.186-103.84-12.542C49.185 392.065-.05 323.377.01 250.27c13.3 87.52 90.57 155.23 181.56 155.23z" fill="#fc4755"></path><path d="M434.35 196.83h-20c-10 0-18.1-8.1-18.1-18.09v-4.48c0-27.48 22.28-49.76 49.76-49.76h.48c3.34 0 6.61.33 9.78.96-22.82 4.52-40.02 24.65-40.02 48.8v4.48c0 9.99 8.1 18.09 18.1 18.09zM434.35 460.83h-20c-10 0-18.1-8.1-18.1-18.09v-4.48c0-27.48 22.28-49.76 49.76-49.76h.48c3.34 0 6.61.33 9.78.96-22.82 4.52-40.02 24.65-40.02 48.8v4.48c0 9.99 8.1 18.09 18.1 18.09z" fill="#2b597f"></path><path d="M465.14 93.06a31.336 31.336 0 0 1-18.64 6.11c-17.4 0-31.5-14.11-31.5-31.5 0-16.51 12.69-30.05 28.86-31.39C436.06 42 431 51.25 431 61.67c0 17.39 14.1 31.5 31.5 31.5.89 0 1.77-.04 2.64-.11zM465.14 357.056a31.336 31.336 0 0 1-18.64 6.11c-17.4 0-31.5-14.11-31.5-31.5 0-16.51 12.69-30.05 28.86-31.39-7.8 5.72-12.86 14.97-12.86 25.39 0 17.39 14.1 31.5 31.5 31.5.89 0 1.77-.04 2.64-.11z" fill="#ffac5c"></path><path d="M365 438h-54c-4.143 0-7.5-3.357-7.5-7.5s3.357-7.5 7.5-7.5h54c4.143 0 7.5 3.357 7.5 7.5s-3.357 7.5-7.5 7.5zM355 338h-42c-4.143 0-7.5-3.357-7.5-7.5s3.357-7.5 7.5-7.5h42c4.143 0 7.5 3.357 7.5 7.5s-3.357 7.5-7.5 7.5zM390 388h-31.5c-4.143 0-7.5-3.357-7.5-7.5s3.357-7.5 7.5-7.5H390c4.143 0 7.5 3.357 7.5 7.5s-3.357 7.5-7.5 7.5zM326.5 388H317c-4.143 0-7.5-3.357-7.5-7.5s3.357-7.5 7.5-7.5h9.5c4.143 0 7.5 3.357 7.5 7.5s-3.357 7.5-7.5 7.5zM365 74h-54c-4.143 0-7.5-3.357-7.5-7.5s3.357-7.5 7.5-7.5h54c4.143 0 7.5 3.357 7.5 7.5S369.143 74 365 74zM355 174h-42c-4.143 0-7.5-3.357-7.5-7.5s3.357-7.5 7.5-7.5h42c4.143 0 7.5 3.357 7.5 7.5s-3.357 7.5-7.5 7.5zM390 124h-21.5c-4.143 0-7.5-3.357-7.5-7.5s3.357-7.5 7.5-7.5H390c4.143 0 7.5 3.357 7.5 7.5s-3.357 7.5-7.5 7.5zM336.5 124H317c-4.143 0-7.5-3.357-7.5-7.5s3.357-7.5 7.5-7.5h19.5c4.143 0 7.5 3.357 7.5 7.5s-3.357 7.5-7.5 7.5z" fill="#fad207"></path></g></svg>