<svg viewBox="0 0 32 32" xmlns="http://www.w3.org/2000/svg"><g><g fill="#66bb6a"><path d="M17 4v24a1 1 0 1 1-2 0V4a1 1 0 1 1 2 0zM30.707 15.293l-6-6A1 1 0 0 0 23 10v3h-3a1 1 0 0 0-1 1v4a1 1 0 0 0 1 1h3v3a1 1 0 0 0 1.707.707l6-6a1 1 0 0 0 0-1.414zM12 13H9v-3a1 1 0 0 0-1.707-.707l-6 6a1 1 0 0 0 0 1.414l6 6A.999.999 0 0 0 9 22v-3h3a1 1 0 0 0 1-1v-4a1 1 0 0 0-1-1z" fill="#66bb6a"></path></g><g opacity=".1"><path d="M17 16v12c0 .55-.45 1-1 1s-1-.45-1-1V16zM31 16c0 .26-.1.52-.29.71l-6 6c-.19.19-.45.29-.71.29-.13 0-.26-.02-.38-.08A.987.987 0 0 1 23 22v-3h-3c-.55 0-1-.45-1-1v-2zM13 16v2c0 .55-.45 1-1 1H9v3c0 .4-.24.77-.62.92-.12.06-.25.08-.38.08-.26 0-.52-.1-.71-.29l-6-6C1.1 16.52 1 16.26 1 16z" fill="#000000"></path></g></g></svg>