<svg viewBox="0 0 64 64" xmlns="http://www.w3.org/2000/svg"><g><g><path d="M19 12h9c5 0 6 4 6 7v17l1.9 1.27a2.451 2.451 0 0 1 1.1 2.05v.21A2.475 2.475 0 0 1 34.53 42a2.242 2.242 0 0 1-.52-.06 2.44 2.44 0 0 1-1.69-1.31L32 40l-.32.63a2.44 2.44 0 0 1-1.69 1.31 2.242 2.242 0 0 1-.52.06A2.458 2.458 0 0 1 27 39.53v-.21a2.451 2.451 0 0 1 1.1-2.05L30 36V21.42c0-1.48-.52-2.42-2-2.42h-7v-4h-1.56a1.438 1.438 0 0 1-1.08-2.39c.15-.17.35-.4.56-.67z" fill="#ff5d54"></path><path d="M20.24 37.25c1.55-2.07 4.24-5.25 6.09-5.25A3.946 3.946 0 0 1 30 34v2l-1.9 1.27a2.451 2.451 0 0 0-1.1 2.05v.21A2.458 2.458 0 0 0 29.47 42a2.242 2.242 0 0 0 .52-.06L30 42v7.05a3.907 3.907 0 0 1-1.45 3.08l-4.06 3.16a3.292 3.292 0 0 1-2.02.71 3.491 3.491 0 0 1-3.2-2.32 4.131 4.131 0 0 1-.27-1.47V41.05a6.311 6.311 0 0 1 1.24-3.8zM45 41.05v11.16a4.131 4.131 0 0 1-.27 1.47 3.491 3.491 0 0 1-3.2 2.32 3.292 3.292 0 0 1-2.02-.71l-4.06-3.16A3.907 3.907 0 0 1 34 49.05V42l.01-.06a2.242 2.242 0 0 0 .52.06A2.475 2.475 0 0 0 37 39.53v-.21a2.451 2.451 0 0 0-1.1-2.05L34 36v-2a3.946 3.946 0 0 1 3.67-2c1.85 0 4.54 3.18 6.09 5.25a6.311 6.311 0 0 1 1.24 3.8z" fill="#e7544c"></path><path d="m56 41-1.09-4.9a7 7 0 0 0-4.96-5.22L37 27v-8c3-2 4-4 4-6V9a8 8 0 0 0-8-8h-5a7.158 7.158 0 0 0-5.94 3.07A5.489 5.489 0 0 0 21 7a8.846 8.846 0 0 1-2.08 4.94L19 12h9c5 0 6 4 6 7v15a3.946 3.946 0 0 1 3.67-2c1.85 0 4.54 3.18 6.09 5.25a6.311 6.311 0 0 1 1.24 3.8v11.16a4.131 4.131 0 0 1-.27 1.47 3.491 3.491 0 0 1-3.2 2.32 3.292 3.292 0 0 1-2.02-.71l-4.06-3.16A3.907 3.907 0 0 1 34 49.05V42l.01-.06a2.44 2.44 0 0 1-1.69-1.31L32 40l-.32.63a2.44 2.44 0 0 1-1.69 1.31L30 42v7.05a3.907 3.907 0 0 1-1.45 3.08l-4.06 3.16a3.292 3.292 0 0 1-2.02.71 3.491 3.491 0 0 1-3.2-2.32 4.131 4.131 0 0 1-.27-1.47V41.05a6.311 6.311 0 0 1 1.24-3.8c1.55-2.07 4.24-5.25 6.09-5.25A3.946 3.946 0 0 1 30 34V21.42c0-1.48-.52-2.42-2-2.42h-7v1a2.006 2.006 0 0 0 2 2h4v5l-12.95 3.88a7 7 0 0 0-4.96 5.22L8 41 4 63h10l2-10 .69 1.71L20 63h24l3.31-8.29L48 53l2 10h10z" fill="#f2c4b2"></path><path d="m28.55 52.13-4.06 3.16a3.292 3.292 0 0 1-2.02.71 3.491 3.491 0 0 1-3.2-2.32 4.131 4.131 0 0 1-.27-1.47v3a4.131 4.131 0 0 0 .27 1.47 3.491 3.491 0 0 0 3.2 2.32 3.292 3.292 0 0 0 2.02-.71l4.06-3.16A3.907 3.907 0 0 0 30 52.05v-3a3.907 3.907 0 0 1-1.45 3.08zM41.53 56a3.292 3.292 0 0 1-2.02-.71l-4.06-3.16A3.907 3.907 0 0 1 34 49.05v3a3.907 3.907 0 0 0 1.45 3.08l4.06 3.16a3.292 3.292 0 0 0 2.02.71 3.491 3.491 0 0 0 3.2-2.32 4.131 4.131 0 0 0 .27-1.47v-3a4.131 4.131 0 0 1-.27 1.47 3.491 3.491 0 0 1-3.2 2.32z" fill="#f2b59d"></path><path d="m25.874 49.9-3.266 2.612A2.22 2.22 0 0 1 19 50.779v1.431a4.131 4.131 0 0 0 .27 1.47 3.491 3.491 0 0 0 3.2 2.32 3.292 3.292 0 0 0 2.02-.71l4.06-3.16A3.907 3.907 0 0 0 30 49.05V42l-.01-.06a2.242 2.242 0 0 1-.52.06A2.458 2.458 0 0 1 27 39.53v8.028a3 3 0 0 1-1.126 2.342zM38.126 49.9l3.266 2.612A2.22 2.22 0 0 0 45 50.779v1.431a4.131 4.131 0 0 1-.27 1.47 3.491 3.491 0 0 1-3.2 2.32 3.292 3.292 0 0 1-2.02-.71l-4.06-3.16A3.907 3.907 0 0 1 34 49.05V42l.01-.06a2.242 2.242 0 0 0 .52.06A2.458 2.458 0 0 0 37 39.53v8.028a3 3 0 0 0 1.126 2.342z" fill="#c74841"></path><g fill="#f2b59d"><path d="M11.757 56.97A4 4 0 0 1 7.877 60H4.545L4 63h10l2-10V40zM56.123 60a4 4 0 0 1-3.88-3.03L48 40v13l2 10h10l-.545-3zM27 22h3v5h-3zM37 19l-3 2v6h3z" fill="#f2b59d"></path></g><path d="M17 19c-3.823 0-6.82-1.151-8.91-3.422C4.562 11.744 4.983 6.153 5 5.917a1 1 0 0 1 2 .165c0 .049-.36 4.974 2.574 8.152a8.78 8.78 0 0 0 5.478 2.641l-.881-1.32a1 1 0 1 1 1.664-1.11l2 3A1 1 0 0 1 17 19z" fill="#34c1ad"></path><path d="M18 20c-.132 0-12.557.13-13.879 10.212l-1.566-1.044a1 1 0 0 0-1.11 1.664l3 2c.012.008.025.01.037.017s.024.02.038.028a.9.9 0 0 0 .13.051c.029.011.056.026.085.034a1.031 1.031 0 0 0 .258.038h.013a.978.978 0 0 0 .253-.036c.027-.007.052-.02.078-.029a1.055 1.055 0 0 0 .168-.076c.011-.007.023-.009.034-.016l3.122-2a1 1 0 1 0-1.078-1.684l-1.422.909C7.557 22.123 17.546 22 18 22a1 1 0 0 0 0-2z" fill="#21abab"></path><path d="M43 44.5h-2.717l-2.4-4H41a.5.5 0 0 0 0-1h-4v.03a2.43 2.43 0 0 1-.24 1.042l2.74 4.567v3.654l-1.854 1.853a.5.5 0 0 0 .708.708l1.568-1.569 1.662 2.492A.5.5 0 0 0 42 52.5a.494.494 0 0 0 .277-.084.5.5 0 0 0 .139-.693L40.5 48.849V45.5H43a.5.5 0 0 0 0-1zM27 39.5h-4a.5.5 0 0 0 0 1h3.117l-2.4 4H21a.5.5 0 0 0 0 1h2.5v3.349l-1.916 2.874a.5.5 0 0 0 .139.693.494.494 0 0 0 .277.084.5.5 0 0 0 .416-.223l1.662-2.492 1.568 1.569a.5.5 0 0 0 .708-.708L24.5 48.793v-3.654l2.739-4.566A2.455 2.455 0 0 1 27 39.53z" fill="#f2c4b2"></path></g></g></svg>