<svg viewBox="0 0 497.564 497.564" xmlns="http://www.w3.org/2000/svg"><g><path d="M380.858 208.675 356.84 245.87a10.645 10.645 0 0 1-8.942 4.87H149.666a10.645 10.645 0 0 1-8.942-4.87l-24.018-37.195-13.035-25.257h290.425z" fill="#aca6d6"></path><path d="M341.422 41.427c-17.33-17.33-41.28-28.05-67.73-28.05h-49.82c-41.34 0-76.57 26.19-89.99 62.88l21.986 20.801H353.93l9.751-20.801a95.9 95.9 0 0 0-22.259-34.83z" fill="#a7eedc"></path><path d="M198.214 76.257c12.633-34.538 44.594-59.763 82.783-62.605a97.052 97.052 0 0 0-7.305-.275h-49.82c-41.34 0-76.57 26.19-89.99 62.88l21.986 20.801h37.316a95.33 95.33 0 0 1 5.03-20.801z" fill="#86e8d0"></path><path d="M363.682 76.257h-229.8c-3.75 10.26-5.8 21.34-5.8 32.9l12.952 16.782h222.648l5.8-16.782c0-11.559-2.05-22.639-5.8-32.9z" fill="#86e8d0"></path><path d="M198.214 76.257h-64.332c-3.75 10.26-5.8 21.34-5.8 32.9l12.952 16.782h64.332l-12.952-16.782c0-11.559 2.05-22.639 5.8-32.9z" fill="#5de1c4"></path><path d="M489.382 175.137v20.29H8.182v-20.29l119.9-65.98h241.4z" fill="#aca6d6"></path><path d="M190.134 134.135h224.737l-45.389-24.977h-241.4l-119.9 65.98v20.29h46.944l90.684-49.902a91.928 91.928 0 0 1 44.324-11.391z" fill="#978ecb"></path><path d="M151.374 183.418h-47.703l13.035 25.257 24.018 37.195a10.645 10.645 0 0 0 8.942 4.87h47.703a10.645 10.645 0 0 1-8.942-4.87l-.607-.94c-5.921-9.169.662-21.255 11.576-21.255h171.776l9.686-15 13.238-25.257z" fill="#978ecb"></path><path d="M489.382 208.675H8.182A8.182 8.182 0 0 1 0 200.493v-17.177a8.182 8.182 0 0 1 8.182-8.182h481.2a8.182 8.182 0 0 1 8.182 8.182v17.177a8.182 8.182 0 0 1-8.182 8.182z" fill="#8379c1"></path><path d="M86.54 200.493v-17.177a8.182 8.182 0 0 1 8.182-8.182H8.182A8.182 8.182 0 0 0 0 183.316v17.177a8.182 8.182 0 0 0 8.182 8.182h86.54a8.182 8.182 0 0 1-8.182-8.182z" fill="#6e61b6"></path><path d="M248.782 157.282a7.5 7.5 0 0 1-7.5-7.5v-4.859a7.5 7.5 0 0 1 15 0v4.859a7.5 7.5 0 0 1-7.5 7.5zM212.866 157.282a7.5 7.5 0 0 1-7.5-7.5v-4.859a7.5 7.5 0 0 1 15 0v4.859a7.5 7.5 0 0 1-7.5 7.5zM176.95 157.282a7.5 7.5 0 0 1-7.5-7.5v-4.859a7.5 7.5 0 0 1 15 0v4.859a7.5 7.5 0 0 1-7.5 7.5zM141.034 157.282a7.5 7.5 0 0 1-7.5-7.5v-4.859a7.5 7.5 0 0 1 15 0v4.859a7.5 7.5 0 0 1-7.5 7.5zM284.698 157.282a7.5 7.5 0 0 1-7.5-7.5v-4.859a7.5 7.5 0 0 1 15 0v4.859a7.5 7.5 0 0 1-7.5 7.5zM320.614 157.282a7.5 7.5 0 0 1-7.5-7.5v-4.859a7.5 7.5 0 0 1 15 0v4.859a7.5 7.5 0 0 1-7.5 7.5zM356.53 157.282a7.5 7.5 0 0 1-7.5-7.5v-4.859a7.5 7.5 0 0 1 15 0v4.859a7.5 7.5 0 0 1-7.5 7.5z" fill="#fee97d"></path><g fill="#fee97d"><path d="M225.37 285.454V481.78a2.406 2.406 0 0 1-2.406 2.406h-96.795a2.406 2.406 0 0 1-2.269-3.207L193.148 284.6a2.564 2.564 0 0 1 2.418-1.711h27.241a2.564 2.564 0 0 1 2.563 2.565zM372.544 480.127l-68.922-195.454a2.673 2.673 0 0 0-2.521-1.784h-27.054a2.673 2.673 0 0 0-2.673 2.673V481.14a3.046 3.046 0 0 0 3.046 3.046h95.251c2.101.001 3.571-2.077 2.873-4.059z" fill="#fee97d"></path></g></g></svg>