<svg viewBox="0 0 512 512" xmlns="http://www.w3.org/2000/svg"><g><ellipse cx="256" cy="256" fill="#e6c398" rx="211.862" ry="256"></ellipse><path d="M79.466 256.865c.115 37.199 7.636 72.254 20.807 102.983L374.201 92.222c-20.577-23.225-45.533-40.474-73.11-49.593L79.466 256.865z" fill="#9ed7f6"></path><path d="M256 35.31c-97.351 0-176.552 99.001-176.552 220.69 0 .291.018.574.018.865L300.968 42.743C286.596 37.985 271.554 35.31 256 35.31zM374.201 92.222 100.273 359.848C130.039 429.321 188.672 476.69 256 476.69c97.351 0 176.552-99.001 176.552-220.69 0-64.918-22.546-123.357-58.351-163.778z" fill="#b7f6ff"></path></g></svg>