<svg height="512" viewBox="0 0 512 512" width="512" xmlns="http://www.w3.org/2000/svg"><path d="m88 280h16v24h-16z" fill="#d6d6d4"/><path d="m336 280h16v24h-16z" fill="#d6d6d4"/><path d="m488 176v50.58a8 8 0 0 1 -5.03 7.43l-34.97 13.99-80 32h-313.24a30.758 30.758 0 0 1 -30.76-30.76c0-.41.01-.83.03-1.24a30.706 30.706 0 0 1 16.98-26.28l17.36-8.68 14.28-14.06a80.027 80.027 0 0 1 56.12-22.98z" fill="#e0e0de"/><path d="m488 176h-72l40-88h32z" fill="#348fd9"/><path d="m424.898 156.424-8.898 19.576h72v-52.616z" fill="#3086cd"/><path d="m448 248-80 32h-313.24a30.758 30.758 0 0 1 -30.76-30.76c0-.41.01-.83.03-1.24z" fill="#d6d6d4"/><circle cx="96" cy="320" fill="#3d4d63" r="24"/><path d="m144 248h32v96h-32z" fill="#bfbfbd"/><path d="m144 264h32v16h-32z" fill="#e0e0de"/><path d="m144 296h32v16h-32z" fill="#e0e0de"/><path d="m144 328h32v16h-32z" fill="#e0e0de"/><circle cx="344" cy="320" fill="#3d4d63" r="24"/><rect fill="#ebebe9" height="40" rx="20" width="160" x="208" y="240"/><rect fill="#ebebe9" height="32" rx="16" width="80" x="408" y="208"/><circle cx="96" cy="320" fill="#e0e0de" r="8"/><circle cx="344" cy="320" fill="#e0e0de" r="8"/><g fill="#348fd9"><path d="m144 208h32v40h-32z"/><path d="m200 200h16v16h-16z"/><path d="m232 200h16v16h-16z"/><path d="m264 200h16v16h-16z"/><path d="m296 200h16v16h-16z"/><path d="m328 200h16v16h-16z"/><path d="m120 200h-48.384l-13.245 13.037-5.926 2.963h67.555z"/></g><path d="m144 208h16v40h-16z" fill="#3086cd"/><path d="m88 280h16v8h-16z" fill="#c7c7c5"/><path d="m336 280h16v8h-16z" fill="#c7c7c5"/><path d="m136 448v-98.885a64 64 0 0 1 52.205-62.9l75.795-14.215v-72h48 48v72l75.8 14.212a64 64 0 0 1 52.2 62.9v98.888" fill="#fec9a3"/><path d="m360 250.168v-58.168h-96v58.168a90.2 90.2 0 0 0 96 0z" fill="#feb784"/><path d="m488 349.11v114.89a24.006 24.006 0 0 1 -24 24h-304a24.006 24.006 0 0 1 -24-24v-114.88a64.012 64.012 0 0 1 52.21-62.91l75.79-14.21 48 16 48-16 74.46 13.96 1.33.25a63.994 63.994 0 0 1 52.21 62.9z" fill="#e0e0de"/><path d="m488 349.11v114.89a24.006 24.006 0 0 1 -24 24h-304a24.006 24.006 0 0 1 -24-24v-13.4c116.48-35.28 215.2-76.9 298.46-164.64l1.33.25a63.994 63.994 0 0 1 52.21 62.9z" fill="#d6d6d4"/><path d="m296 298.667v173.333h32v-173.338l-15.988-10.659z" fill="#3d4d63"/><path d="m384 306.582 104 21.418v-40l-93.903-16z" fill="#3d4d63"/><path d="m240 306.582-104 21.418v-40l93.903-16z" fill="#3d4d63"/><path d="m312 288-48-32-23.196 20.349 23.196 43.651z" fill="#ebebe9"/><path d="m312.012 288.003 47.988-32.003 23.208 20.352-23.196 43.651z" fill="#ebebe9"/><path d="m360 409.6 36 6.4 36-6.4v-25.6h-72z" fill="#ebebe9"/><path d="m192 409.6 36 6.4 36-6.4v-25.6h-72z" fill="#ebebe9"/><path d="m392 408 48-24h48v64h-40l-40 16-200 24h-48a24 24 0 0 1 -24-24v-48z" fill="#feb784"/><path d="m232 408-48-24h-48v64h40l40 16 200 24h48a24 24 0 0 0 24-24v-48z" fill="#fec9a3"/><path d="m392 120h-8v48h8a24 24 0 0 0 0-48z" fill="#feb784"/><path d="m232.4 120h-.4a24 24 0 0 0 0 48h8.48l-.48-48z" fill="#feb784"/><path d="m384 112v64a72.006 72.006 0 0 1 -72 72c-1.73 0-3.44-.06-5.14-.18a72.017 72.017 0 0 1 -66.86-71.82v-64a72.017 72.017 0 0 1 66.86-71.82c1.7-.12 3.41-.18 5.14-.18a72.006 72.006 0 0 1 72 72z" fill="#fec9a3"/><path d="m384 112v64a72.006 72.006 0 0 1 -72 72c-1.73 0-3.44-.06-5.14-.18a87.9 87.9 0 0 0 37.14-71.82v-64a87.688 87.688 0 0 0 -25.78-62.22 89.023 89.023 0 0 0 -11.36-9.6c1.7-.12 3.41-.18 5.14-.18a72.006 72.006 0 0 1 72 72z" fill="#fec093"/><path d="m384 136v-32c0-26.51-6-45.5-24.5-52l-15.5-4c7.843 28.234 22.463 66.956 40 88z" fill="#95573a"/><path d="m240 136v-32c0-26.51 6-45.5 24.5-52l15.5-4c-7.843 28.234-22.463 66.956-40 88z" fill="#95573a"/><path d="m302.891 192h-14.891v16h14.891c13.906 0 27.093-3.226 37.14-9.09l-8.062-13.82c-7.524 4.387-18.125 6.91-29.078 6.91z" fill="#f7a468"/><circle cx="276" cy="140" fill="#7a432a" r="12"/><circle cx="348" cy="140" fill="#7a432a" r="12"/><path d="m384 96h-144v-8a48 48 0 0 1 48-48h48a48 48 0 0 1 48 48z" fill="#7a432a"/><path d="m358.71 116.425a306.917 306.917 0 0 1 -93.42 0c-17.528-2.71-30.145-14.607-30.145-28.425h153.71c0 13.818-12.617 25.715-30.145 28.425z" fill="#3d4d63"/><path d="m396.22 75.73-7.36 12.27h-153.72l-3.56-5.94-3.8-6.33a25.394 25.394 0 0 1 0-26.66c4.67-7.79 13.2-13.48 23.34-15.6l30.6-6.37a149.434 149.434 0 0 1 60.56 0l30.6 6.37c1.02.21 2.02.46 3.01.75a38.377 38.377 0 0 1 10.71 4.92 31.705 31.705 0 0 1 9.62 9.93 25.394 25.394 0 0 1 0 26.66z" fill="#3d4d63"/><path d="m396.22 75.73-7.36 12.27h-153.72l-3.56-5.94c48.28-6.58 107.87-20.12 144.31-47.84a38.377 38.377 0 0 1 10.71 4.92 31.705 31.705 0 0 1 9.62 9.93 25.394 25.394 0 0 1 0 26.66z" fill="#374559"/><path d="m312 72a7.991 7.991 0 0 1 -3.578-.844l-7.211-3.609-15.149-3.785 3.876-15.524 16 4a7.875 7.875 0 0 1 1.64.606l4.422 2.211 4.422-2.211a7.875 7.875 0 0 1 1.64-.606l16-4 3.876 15.524-15.149 3.785-7.211 3.609a7.991 7.991 0 0 1 -3.578.844z" fill="#ffb531"/><path d="m448.593 281.286-.418 38.512 15.966 3.288.425-39.079z" fill="#ffb531"/><path d="m417.134 275.925-.815 37.312 15.936 3.283.828-37.877z" fill="#ffb531"/><path d="m159.497 283.997.378 39.086 15.969-3.289-.372-38.52z" fill="#ffb531"/><path d="m190.917 278.643.828 37.877 15.936-3.283-.815-37.312z" fill="#ffb531"/></svg>