<svg viewBox="0 0 128 128" xmlns="http://www.w3.org/2000/svg"><g><path d="m62.385 87.226-.594 7.868-16.026 3.916 1.957-7.005zM81.453 98.819l-15.521-3.793-.581-7.846 15.264 4.708z" fill="#4f5c7f"></path><path d="M67.591 21.359v31.443h-7.203V16.739h2.541z" fill="#5d6993"></path><path d="M97.054 125.3a3.412 3.412 0 0 1-1.617.4 3.474 3.474 0 0 1-3.15-1.995L80.59 98.608l-3.57-7.665-9.408-20.181-3.622-18.537 5.68 5.2 28.938 63.357a3.478 3.478 0 0 1-1.554 4.518z" fill="#35486d"></path><path d="m65.129 52.225-4.741 18.537-9.408 20.181-3.57 7.665-11.7 25.1a3.474 3.474 0 0 1-3.15 1.995 3.412 3.412 0 0 1-1.617-.4 3.478 3.478 0 0 1-1.554-4.515l31.22-68.563z" fill="#35486d"></path><path d="M67.612 53.8v69.584A3.612 3.612 0 0 1 64 127a3.612 3.612 0 0 1-3.612-3.612V53.8z" fill="#5d6993"></path><g fill="#4f5c7f"><path d="M78.469 3.667v16.569A2.657 2.657 0 0 1 75.8 22.9H52.2a2.671 2.671 0 0 1-2.667-2.667V3.667A2.671 2.671 0 0 1 52.2 1h23.6a2.657 2.657 0 0 1 2.669 2.667zM73.66 53.815a3.612 3.612 0 0 1-3.612 3.612h-12.1a3.623 3.623 0 0 1 0-7.245h12.1a3.63 3.63 0 0 1 3.612 3.633zM97.81 46.759a6.048 6.048 0 0 1-10.332 4.263L76.621 40.144a5.963 5.963 0 0 1-1.785-4.263 9.2 9.2 0 0 1 .084-1.071 6.166 6.166 0 0 1 1.7-3.213 6.053 6.053 0 0 1 8.547 0l10.879 10.878a6.076 6.076 0 0 1 1.764 4.284z" fill="#4f5c7f"></path></g><path d="M79.876 29.917a6.028 6.028 0 0 0-3.255 1.68 6.166 6.166 0 0 0-1.7 3.213l-7.329-7.287-4.663-4.623h9.66z" fill="#35486d"></path></g></svg>