<svg id="Layer_3" height="512" viewBox="0 0 64 64" width="512" xmlns="http://www.w3.org/2000/svg" data-name="Layer 3"><path d="m48.088 41.465-11.088-3.465v-3.1a11.99 11.99 0 0 0 7-10.9v-9.21a10.944 10.944 0 0 1 -5 1.21h-9.9a13.867 13.867 0 0 1 -5.162 1h-3.938v7a11.99 11.99 0 0 0 7 10.9v3.1l-11.088 3.465a7 7 0 0 0 -4.912 6.681v13.854h42v-13.854a7 7 0 0 0 -4.912-6.681z" fill="#f8e0b5"/><path d="m53 48.146a7 7 0 0 0 -4.912-6.681l-11.088-3.465-5 5-5-5-11.088 3.465a7 7 0 0 0 -4.912 6.681v13.854h42z" fill="#f5b95b"/><path d="m53 48.146a7 7 0 0 0 -4.912-6.681l-11.088-3.465-5 5-5-5-11.088 3.465a6.9 6.9 0 0 0 -1.418.646 29.464 29.464 0 0 0 28.006 19.889h10.5z" fill="#f9d18f"/><path d="m20 24v-3h-1a3 3 0 0 0 0 6h1.393a12.017 12.017 0 0 1 -.393-3z" fill="#f8e0b5"/><path d="m41.033 4.427-11.933-1.377a11.281 11.281 0 0 0 -12.14 14.306l1.157 3.792a2.972 2.972 0 0 1 .883-.148h1v-4h3.938a13.867 13.867 0 0 0 5.162-1h9.9a11 11 0 0 0 11-11v-3a12.55 12.55 0 0 1 -8.967 2.427z" fill="#808080"/><path d="m45 21h-1v3a12.017 12.017 0 0 1 -.393 3h1.393a3 3 0 0 0 0-6z" fill="#f8e0b5"/><path d="m29.1 16a13.867 13.867 0 0 1 -5.162 1h-1.938v5.21a11.989 11.989 0 0 0 18.93 9.79 11.94 11.94 0 0 0 3.07-8v-9.21a10.944 10.944 0 0 1 -5 1.21z" fill="#f9ebd2"/><path d="m46.3 13.217.071-.064z" fill="#f8e0b5"/><path d="m23.938 18h-2.938a1 1 0 0 1 -1-1 1 1 0 0 1 1-1h2.939a12.926 12.926 0 0 0 10.72-5.731.986.986 0 0 1 1.309-.288 1.011 1.011 0 0 1 .32 1.45 14.929 14.929 0 0 1 -12.35 6.569z" fill="#606060"/><path d="m28 44v6l-17 12h14l7-10v-12a4 4 0 0 0 -4 4z" fill="#f8e0b5"/><path d="m32 33a4 4 0 0 1 -4-4h2a2 2 0 0 0 4 0h2a4 4 0 0 1 -4 4z" fill="#f5cd90"/><path d="m36 50v-6a4 4 0 0 0 -4-4v12l7 10h14z" fill="#f8e0b5"/><path d="m30 24h-2a1 1 0 0 0 -2 0h-2a3 3 0 0 1 6 0z" fill="#f5cd90"/><path d="m40 24h-2a1 1 0 0 0 -2 0h-2a3 3 0 0 1 6 0z" fill="#f5cd90"/><path d="m6 36a4 4 0 0 1 4 4 4 4 0 0 1 4-4 4 4 0 0 1 -4-4 4 4 0 0 1 -4 4z" fill="#f5b95b"/><path d="m50 32a4 4 0 0 1 4 4 4 4 0 0 1 4-4 4 4 0 0 1 -4-4 4 4 0 0 1 -4 4z" fill="#f5b95b"/><rect fill="#f9ebd2" height="12" rx="1" width="2" x="31" y="40"/></svg>