<svg viewBox="0 0 512 512" xmlns="http://www.w3.org/2000/svg"><g><path d="M311.769 366V224.332h20.008V366h7.798a32.634 32.634 0 0 1 7.202-7.552V224.332h21.509v127.635a32.021 32.021 0 0 1 15 4.765v-58.686h15.961v47.536a38.42 38.42 0 0 1 15-9.133V156.604c0-4.143-3.357-7.5-7.5-7.5s-7.5 3.357-7.5 7.5v28.823h-15.961v-9.289c0-62.873-51.151-114.024-114.024-114.024s-114.024 51.151-114.024 114.024v9.289h-15.961v-28.823c0-4.143-3.358-7.5-7.5-7.5s-7.5 3.357-7.5 7.5V366h15v-67.954h15.961V366h15V224.332h21.508V366h15V224.332h20.008V366h15v-85.204h20.008V366h15v-85.204h20.008V366zm71.516-165.573h15.961v82.619h-15.961zm-36.509-85.837c13.456 16.912 21.509 38.306 21.509 61.548v33.194h-21.509zm-35.007-27.877a99.254 99.254 0 0 1 20.008 12.689v109.93h-20.008zM155.236 283.046h-15.961v-82.619h15.961zm36.509-73.714h-21.508v-33.194c0-23.242 8.052-44.635 21.508-61.547zm35.007 0h-20.008V99.402a99.227 99.227 0 0 1 20.008-12.689zm35.009 56.464h-20.008v-41.464h20.008zm0-56.464h-20.008V81.004a98.495 98.495 0 0 1 20.008-3.609zm15-131.936a98.358 98.358 0 0 1 20.008 3.609v128.328h-20.008zm0 188.4v-41.464h20.008v41.464z" fill="#fac600"></path><path d="M135.178 389.891c12.05 0 23.329 4.329 32.168 11.615h136.619c3.732-8.693 12.376-14.799 22.42-14.799h5.113c1.332 0 2.415-1.093 2.415-2.436a32.22 32.22 0 0 1 6.735-19.743H124.275v26.566a50.124 50.124 0 0 1 10.903-1.203z" fill="#ffe5c2"></path><path d="M135.178 388.891a51.36 51.36 0 0 1 22.744 5.284v-29.646h-33.647v25.523a51.731 51.731 0 0 1 10.903-1.161z" fill="#fed2a4"></path><path d="M289.969 468.55h-58.043c.065-.898.11-1.801.11-2.716 0-20.497-16.616-37.114-37.114-37.114-3.191 0-6.288.404-9.243 1.161-4.892-23.407-25.641-40.99-50.501-40.99-20.67 0-38.492 12.159-46.728 29.711a39.083 39.083 0 0 0-7.585-.744c-21.497 0-38.924 17.427-38.924 38.924 0 4.102.639 8.055 1.815 11.768H31.078c-11.949 0-21.725 9.776-21.725 21.725C9.353 502.224 19.13 512 31.078 512h258.891c11.949 0 21.725-9.776 21.725-21.725 0-11.949-9.776-21.725-21.725-21.725z" fill="#dff6fd"></path><path d="M166.086 400.505c9.283 7.175 16.093 17.517 18.613 29.581l.214 1.024 1.014-.26a36.22 36.22 0 0 1 8.995-1.13c8.071 0 15.709 2.611 22.087 7.553l.271.209h109.106v-2c-13.447 0-24.388-10.94-24.388-24.388 0-3.792.871-7.385 2.422-10.589z" fill="#fed2a4"></path><path d="M477.259 385.707h-8.449a3.366 3.366 0 0 1-3.296-4.062 40.01 40.01 0 0 0 .784-10.832c-1.286-20.297-17.952-36.539-38.275-37.303-16.401-.617-30.699 8.673-37.394 22.36-.91 1.861-3.285 2.433-4.97 1.228a33.196 33.196 0 0 0-19.379-6.209c-18.428 0-33.366 14.939-33.366 33.366v.015a1.421 1.421 0 0 1-1.415 1.436h-5.113c-14.021 0-25.387 11.366-25.387 25.387s11.366 25.387 25.387 25.387H477.26c14.021 0 25.387-11.366 25.387-25.387 0-14.02-11.367-25.386-25.388-25.386z" fill="#dff6fd"></path><path d="M339.602 410.439h5.113c.79 0 1.416-.646 1.415-1.436v-.014c0-18.428 14.939-33.366 33.366-33.366a33.2 33.2 0 0 1 19.38 6.209c1.685 1.205 4.06.633 4.97-1.228 6.694-13.687 20.992-22.977 37.394-22.36 9.449.355 18.105 4.06 24.795 9.959-2.484-19.06-18.569-33.961-38.012-34.692-16.401-.617-30.699 8.673-37.394 22.36-.91 1.861-3.285 2.433-4.97 1.228a33.197 33.197 0 0 0-19.38-6.209c-18.428 0-33.366 14.939-33.366 33.366v.015a1.421 1.421 0 0 1-1.415 1.436h-5.113c-14.021 0-25.387 11.366-25.387 25.387 0 9.658 5.393 18.055 13.332 22.346 1.203-12.901 12.056-23.001 25.272-23.001z" fill="#c8effe"></path><path d="M231.036 465.834c0 .797-.034 1.637-.107 2.644l-.078 1.072h59.119c4.503 0 8.663 1.459 12.066 3.908h127.625v-36.976H215.922c9.141 6.559 15.114 17.268 15.114 29.352z" fill="#ffe5c2"></path><path d="M436.042 472.458H300.504c6.088 3.614 10.19 10.237 10.19 17.816 0 11.428-9.297 20.726-20.725 20.726v1h146.073a5.075 5.075 0 0 0 5.075-5.075v-29.391a5.075 5.075 0 0 0-5.075-5.076z" fill="#fed2a4"></path><path d="M273.571 38.711a7.499 7.499 0 0 1-7.5-7.5V7.5c0-4.143 3.357-7.5 7.5-7.5s7.5 3.357 7.5 7.5v23.711c0 4.143-3.357 7.5-7.5 7.5zM398.817 94.161a7.5 7.5 0 0 1-5.304-12.803l16.767-16.767a7.5 7.5 0 0 1 10.607 10.607L404.12 91.965a7.477 7.477 0 0 1-5.303 2.196zM471.882 221.933h-23.711c-4.143 0-7.5-3.357-7.5-7.5s3.357-7.5 7.5-7.5h23.711c4.143 0 7.5 3.357 7.5 7.5s-3.358 7.5-7.5 7.5zM90.35 213.311H66.639c-4.142 0-7.5-3.357-7.5-7.5s3.358-7.5 7.5-7.5H90.35c4.142 0 7.5 3.357 7.5 7.5s-3.358 7.5-7.5 7.5zM145.8 88.064a7.477 7.477 0 0 1-5.303-2.196L123.73 69.102a7.5 7.5 0 0 1 10.606-10.607l16.767 16.767a7.5 7.5 0 0 1-5.303 12.802zM204.78 50.682a7.501 7.501 0 0 1-6.932-4.632l-9.074-21.906a7.5 7.5 0 1 1 13.858-5.74l9.074 21.906a7.5 7.5 0 0 1-6.926 10.372zM341.707 53.981a7.468 7.468 0 0 1-2.867-.573 7.499 7.499 0 0 1-4.059-9.799l9.073-21.906c1.584-3.827 5.976-5.646 9.799-4.059a7.499 7.499 0 0 1 4.059 9.799l-9.073 21.906a7.503 7.503 0 0 1-6.932 4.632zM436.205 153.141a7.502 7.502 0 0 1-6.932-4.632 7.498 7.498 0 0 1 4.059-9.799l21.906-9.074a7.498 7.498 0 0 1 9.799 4.059 7.498 7.498 0 0 1-4.059 9.799l-21.906 9.074a7.49 7.49 0 0 1-2.867.573zM105.616 145.175a7.468 7.468 0 0 1-2.867-.573l-21.906-9.074a7.5 7.5 0 0 1-4.059-9.799 7.497 7.497 0 0 1 9.799-4.059l21.906 9.074a7.5 7.5 0 0 1-2.873 14.431z" fill="#fed402"></path><path d="M289.969 468.55h-58.043c.065-.898.11-1.801.11-2.716 0-20.497-16.616-37.114-37.114-37.114-3.191 0-6.288.404-9.243 1.161-4.892-23.407-25.641-40.99-50.501-40.99-20.67 0-38.492 12.159-46.728 29.711a39.083 39.083 0 0 0-7.585-.744c-21.497 0-38.924 17.427-38.924 38.924 0 4.102.639 8.055 1.815 11.768H31.078c-11.949 0-21.725 9.776-21.725 21.725C9.353 502.224 19.13 512 31.078 512h258.891c11.949 0 21.725-9.776 21.725-21.725 0-11.949-9.776-21.725-21.725-21.725z" fill="#dff6fd"></path><path d="M41.972 511.084c0-11.949 9.776-21.725 21.725-21.725h6.297c3.076 0 5.501-2.722 5.028-5.761a39.12 39.12 0 0 1-.463-6.006c0-21.497 17.427-38.924 38.924-38.924 1.431 0 2.842.079 4.232.231 2.041.223 3.975-.856 4.973-2.65 8.81-15.832 25.704-26.547 45.108-26.547 3.211 0 6.352.299 9.401.86-9.354-13.113-24.683-21.67-42.019-21.67-20.67 0-38.492 12.159-46.728 29.711a39.083 39.083 0 0 0-7.585-.744c-21.497 0-38.924 17.427-38.924 38.924 0 4.102.639 8.054 1.815 11.768H31.579c-11.264 0-21.035 8.376-22.122 19.588C8.207 501.035 18.424 512 31.078 512h10.94c-.013-.306-.046-.607-.046-.916z" fill="#c8effe"></path><path d="M75.118 302.881c4.878 14.001 10.57 19.693 24.571 24.571 2.694.938 2.694 4.737 0 5.676-14.001 4.878-19.693 10.57-24.571 24.571-.938 2.694-4.737 2.694-5.676 0-4.878-14.001-10.57-19.693-24.571-24.571-2.694-.938-2.694-4.737 0-5.676 14.001-4.878 19.693-10.57 24.571-24.571.939-2.693 4.738-2.693 5.676 0zM472.661 257.922c4.208 12.078 9.118 16.987 21.195 21.195 2.323.81 2.323 4.086 0 4.896-12.078 4.208-16.987 9.118-21.195 21.195-.81 2.324-4.086 2.324-4.896 0-4.208-12.078-9.118-16.987-21.195-21.195-2.323-.81-2.323-4.086 0-4.896 12.078-4.208 16.987-9.118 21.195-21.195.81-2.323 4.087-2.323 4.896 0z" fill="#fed402"></path></g></svg>