<svg viewBox="0 0 512 512" xmlns="http://www.w3.org/2000/svg"><g><path d="M511.825 150.586c.052-6.407-6.946-10.514-12.428-7.197-7.384 4.469-14.038 9.387-28.684 9.387h-.074c-26.839 0-26.839-16.516-53.678-16.516s-26.839 16.516-53.677 16.516c-26.839 0-26.839-16.516-53.678-16.516s-26.839 16.516-53.677 16.516h.074c-26.839 0-26.839-16.516-53.678-16.516s-26.839 16.516-53.677 16.516c-26.839 0-26.839-16.516-53.678-16.516s-26.839 16.516-53.677 16.516h-.074c-14.714 0-21.361-4.964-28.787-9.449C6.971 140.029 0 144.08 0 150.457v28.575l48.808 48.808h413.647l49.141-49.141z" fill="#7ad7ee"></path><path d="M511.929 179.032c-15.292 4.055-19.334 15.034-41.217 15.034h-.074c-26.839 0-26.839-16.516-53.678-16.516-26.838 0-26.838 16.516-53.677 16.516s-26.839-16.516-53.678-16.516c-26.825 0-26.841 16.499-53.641 16.515-26.8-.016-26.815-16.515-53.642-16.515-26.838 0-26.838 16.516-53.677 16.516s-26.839-16.516-53.678-16.516c-26.838 0-26.838 16.516-53.677 16.516h-.074c-21.883 0-25.924-10.979-41.217-15.034v90.84l27.706 43.284L0 335.937v74.326l6.856 11.056L0 427.148v39.437c0 9.122 7.395 16.516 16.516 16.516h478.967c9.123 0 16.519-7.397 16.516-16.52z" fill="#4bc3ef"></path><path d="m421.362 294.974-67.812-54.25c-2.703-2.163-6.708-.238-6.708 3.225v24.441h-37.236c-26.825 0-26.841 16.499-53.64 16.515-26.8-.016-26.815-16.515-53.642-16.515-26.838 0-26.838 16.516-53.677 16.516s-26.839-16.516-53.678-16.516c-26.838 0-26.838 16.516-53.677 16.516h-.073c-21.883 0-25.924-10.979-41.217-15.034v49.599s19.334 23.451 41.217 23.451h.073c26.839 0 26.839-16.516 53.677-16.516 26.839 0 26.839 16.516 53.678 16.516s26.839-16.516 53.677-16.516c26.826 0 26.842 16.499 53.642 16.515 26.8-.016 26.815-16.515 53.64-16.515h37.236l16.516 27.87 58.004-46.404c4.133-3.307 4.133-9.592 0-12.898z" fill="#ffffff"></path><path d="m383.568 54.549-49.549-24.774c-4.081-2.044-9.04-.387-11.081 3.694s-.387 9.04 3.694 11.081l18.258 9.129h-35.283c-15.758 0-23.944 5.036-31.17 9.484-6.379 3.923-11.411 7.024-22.476 7.032-11.057-.008-16.089-3.109-22.468-7.032-7.226-4.448-15.411-9.484-31.17-9.484s-23.944 5.036-31.17 9.484c-6.379 3.927-11.428 7.032-22.508 7.032s-16.129-3.105-22.508-7.032c-7.226-4.448-15.411-9.484-31.17-9.484s-23.944 5.036-31.17 9.484c-6.379 3.927-11.428 7.032-22.581 7.032-11.089 0-16.129-3.105-22.516-7.036-1.804-1.11-4.164-2.527-6.87-3.896C6.408 56.518 0 60.631 0 66.709c0 3.062 1.684 5.89 4.414 7.275 1.892.96 3.705 2.056 5.634 3.242 7.218 4.444 15.411 9.484 31.242 9.484 15.758 0 23.944-5.036 31.17-9.484 6.379-3.927 11.428-7.032 22.508-7.032s16.129 3.105 22.508 7.032c7.226 4.448 15.411 9.484 31.17 9.484s23.944-5.036 31.17-9.484c6.379-3.927 11.428-7.032 22.508-7.032s16.129 3.105 22.508 7.032c7.21 4.436 15.371 9.46 31.057 9.484h.04c.048-.008.048-.004.073 0h.04c15.686-.024 23.847-5.048 31.057-9.484 6.379-3.927 11.427-7.032 22.508-7.032h35.283l-18.258 9.129a8.258 8.258 0 0 0 3.701 15.646c1.242 0 2.5-.278 3.686-.871l49.549-24.774a8.26 8.26 0 0 0 0-14.775zM0 410.263v16.885c3.474 1.094 6.685 2.89 10.419 5.053 7.379 4.282 16.565 9.609 30.871 9.609 15.758 0 23.944-5.036 31.17-9.484 6.379-3.927 11.428-7.032 22.508-7.032s16.129 3.105 22.508 7.032c7.21 4.436 15.371 9.46 31.057 9.484h.04c.016-.004.016-.004.073 0h.04c15.686-.024 23.847-5.048 31.057-9.484 6.379-3.927 11.428-7.032 22.508-7.032h35.283l-18.258 9.129a8.258 8.258 0 0 0 3.701 15.646c1.242 0 2.5-.278 3.686-.871l49.549-24.774a8.258 8.258 0 0 0 0-14.774l-49.549-24.774a8.258 8.258 0 1 0-7.387 14.775l18.258 9.129h-35.283c-15.758 0-23.944 5.036-31.17 9.484-6.379 3.923-11.411 7.024-22.468 7.032-11.065-.008-16.097-3.109-22.476-7.032-7.226-4.448-15.411-9.484-31.17-9.484s-23.944 5.036-31.17 9.484c-6.379 3.927-11.428 7.032-22.508 7.032-9.863 0-15.758-3.419-22.589-7.379-5.23-3.038-11.172-6.293-18.7-7.654z" fill="#7ad7ee"></path><path d="M346.841 317.938h-37.234c-18.097 0-28.153 6.19-35.5 10.71-5.879 3.617-9.436 5.802-18.137 5.806-8.726-.004-12.274-2.19-18.153-5.806-7.339-4.52-17.403-10.71-35.492-10.71-18.097 0-28.153 6.19-35.492 10.71-5.887 3.621-9.444 5.806-18.186 5.806s-12.298-2.186-18.186-5.806c-7.339-4.52-17.395-10.71-35.492-10.71s-28.153 6.19-35.492 10.71c-5.887 3.621-9.444 5.806-18.258 5.806-8.75 0-12.298-2.186-18.186-5.806-4.694-2.891-10.532-6.484-18.799-8.673-1.421-.382-2.835-.501-4.234-.505v16.466c15.293 4.055 19.334 15.034 41.217 15.034h.074c26.839 0 26.839-16.516 53.677-16.516 26.839 0 26.839 16.516 53.678 16.516s26.839-16.516 53.677-16.516c26.826 0 26.842 16.499 53.642 16.515 26.8-.016 26.815-16.515 53.641-16.515h37.236v24.441c0 3.462 4.005 5.387 6.709 3.224l9.808-7.846v-19.82c-.001-9.119-7.397-16.515-16.518-16.515z" fill="#d1edff"></path></g></svg>