<svg height="512" viewBox="0 0 64 64" width="512" xmlns="http://www.w3.org/2000/svg"><g id="warning-sign-notification-man-alert"><path d="m45 29h4v22h-4z" fill="#6d6e71"/><path d="m24 38v5l-5-1-5 1v-5h-3a8 8 0 0 0 -8 8v5h7v10h18v-15h5v-8z" fill="#9bc9ff"/><path d="m19 35a5.97 5.97 0 0 1 -3-.809v3.809l3 4 3-4v-3.809a5.97 5.97 0 0 1 -3 .809z" fill="#ffb8a5"/><path d="m4 51h6v10h-6z" fill="#ffb8a5"/><path d="m45 45v-3-3h-12v6z" fill="#ffbcab"/><path d="m13 24v-1a2 2 0 0 1 2-2h8a2 2 0 0 1 2 2v1h2a1.987 1.987 0 0 1 1 .277v-5.277a6 6 0 0 0 -6-6h-1a4 4 0 0 0 -4 4 2 2 0 0 0 -2-2h-1a4 4 0 0 0 -4 4v5.277a1.987 1.987 0 0 1 1-.277z" fill="#58595b"/><circle cx="47" cy="17" fill="#ed1c24" r="14"/><path d="m52.967 4.35c.01.217.033.431.033.65a14 14 0 0 1 -14 14 13.913 13.913 0 0 1 -5.967-1.35 13.991 13.991 0 1 0 19.934-13.3z" fill="#d80027"/><path d="m47 7a2 2 0 0 0 -2 2v8a2 2 0 0 0 4 0v-8a2 2 0 0 0 -2-2z" fill="#f1f2f2"/><circle cx="47" cy="25" fill="#f1f2f2" r="2"/><path d="m23 21h-8a2 2 0 0 0 -2 2v6a6 6 0 0 0 12 0v-6a2 2 0 0 0 -2-2z" fill="#ffc3b4"/><path d="m19 42-3-4h-2v5z" fill="#ed1c24"/><path d="m24 38h-2l-3 4 5 1z" fill="#ed1c24"/><g fill="#ffb8a5"><path d="m28 24.277a1.987 1.987 0 0 0 -1-.277h-2v4h2a1.994 1.994 0 0 0 1-3.723z"/><path d="m10 24.277a1.994 1.994 0 0 0 1 3.723h2v-4h-2a1.987 1.987 0 0 0 -1 .277z"/><path d="m48 45h1a2.006 2.006 0 0 0 2-2v-2a2.006 2.006 0 0 0 -2-2h-1a3 3 0 0 0 0 6z"/></g><path d="m25 46h3v1h-3z" fill="#57a4ff"/><path d="m10 47h1v14h-1z" fill="#57a4ff"/><path d="m17 27a1 1 0 0 0 1-1v-1a1 1 0 0 0 -2 0v1a1 1 0 0 0 1 1z" fill="#58595b"/><path d="m21 27a1 1 0 0 0 1-1v-1a1 1 0 0 0 -2 0v1a1 1 0 0 0 1 1z" fill="#58595b"/><path d="m19 45a1 1 0 0 0 -1 1v1a1 1 0 0 0 2 0v-1a1 1 0 0 0 -1-1z" fill="#57a4ff"/><path d="m19 50a1 1 0 0 0 -1 1v1a1 1 0 0 0 2 0v-1a1 1 0 0 0 -1-1z" fill="#57a4ff"/><path d="m19 55a1 1 0 0 0 -1 1v1a1 1 0 0 0 2 0v-1a1 1 0 0 0 -1-1z" fill="#57a4ff"/><path d="m19 32.827a3.814 3.814 0 0 0 2.707-1.12 1 1 0 0 0 -1.414-1.414 1.831 1.831 0 0 1 -2.586 0 1 1 0 0 0 -1.414 1.414 3.814 3.814 0 0 0 2.707 1.12z" fill="#58595b"/></g></svg>