<svg id="Capa_1" enable-background="new 0 0 512 512" height="512" viewBox="0 0 512 512" width="512" xmlns="http://www.w3.org/2000/svg"><g><g><g><g><path d="m13.368 182.361v241.188c0 16.086 13.04 29.126 29.126 29.126h213.506l29.35-154.969-29.35-136.177h-221.8c-11.505 0-20.832 9.327-20.832 20.832z" fill="#9df"/></g></g><g><g><path d="m498.632 197.583v219.038c0 19.912-16.142 36.054-36.054 36.054h-206.578v-291.146h206.578c19.912 0 36.054 16.142 36.054 36.054z" fill="#a9f"/></g></g></g><g><g><path d="m471.157 146.602h-213.401v30h213.402c5.979 0 10.843 4.864 10.843 10.843v239.315c0 5.979-4.864 10.843-10.843 10.843h-213.402v30h213.402c22.521 0 40.843-18.322 40.843-40.843v-239.315c-.001-22.52-18.323-40.843-40.844-40.843z" fill="#96f"/></g></g><g fill="#80bfff"><path d="m15 292.175c8.284 0 15-6.716 15-15v-25.179c0-8.284-6.716-15-15-15s-15 6.716-15 15v25.179c0 8.285 6.716 15 15 15z"/><path d="m15 377.355c8.284 0 15-6.716 15-15v-25.18c0-8.284-6.716-15-15-15s-15 6.716-15 15v25.18c0 8.284 6.716 15 15 15z"/><path d="m61.04 146.675h-20.2c-22.52 0-40.84 18.32-40.84 40.84v9.931c0 8.284 6.716 15 15 15s15-6.716 15-15v-9.931c0-5.978 4.862-10.84 10.84-10.84h20.2c8.284 0 15-6.716 15-15s-6.716-15-15-15z"/><path d="m151.632 146.675h-30.423c-8.284 0-15 6.716-15 15s6.716 15 15 15h30.423c8.284 0 15-6.716 15-15s-6.716-15-15-15z"/><path d="m212.209 176.675h30.423c8.284 0 15-6.716 15-15s-6.716-15-15-15h-30.423c-8.284 0-15 6.716-15 15s6.716 15 15 15z"/><path d="m61.04 437.675h-20.2c-5.978 0-10.84-4.862-10.84-10.84v-9.93c0-8.284-6.716-15-15-15s-15 6.716-15 15v9.93c0 22.52 18.32 40.84 40.84 40.84h20.2c8.284 0 15-6.716 15-15s-6.716-15-15-15z"/><path d="m151.632 437.675h-30.423c-8.284 0-15 6.716-15 15s6.716 15 15 15h30.423c8.284 0 15-6.716 15-15s-6.716-15-15-15z"/><path d="m242.632 437.675h-30.423c-8.284 0-15 6.716-15 15s6.716 15 15 15h30.423c8.284 0 15-6.716 15-15s-6.716-15-15-15z"/></g><path d="m256.13 25.541h-.13c-69.13.02-136.65 19.42-195.26 56.1-.03.01-.05.03-.08.05l-.08.05c-6.99 4.44-9.02 13.68-4.58 20.68 2.85 4.49 7.72 6.94 12.68 6.94 2.73 0 5.5-.74 7.98-2.29 54.47-34.09 116.9-51.14 179.34-51.16l20.333-15.714z" fill="#ff80aa"/><g><path d="m271 136.821v45.18c0 8.28-6.72 15-15 15s-15-6.72-15-15v-45.18c0-8.29 6.72-15 15-15s15 6.71 15 15z" fill="#574d8c"/></g><g><path d="m271 242.001v35.17c0 8.29-6.72 15-15 15s-15-6.71-15-15v-35.17c0-8.29 6.72-15 15-15s15 6.71 15 15z" fill="#574d8c"/></g><g><path d="m271 337.171v35.18c0 8.29-6.72 15-15 15s-15-6.71-15-15v-35.18c0-8.28 6.72-15 15-15s15 6.72 15 15z" fill="#574d8c"/></g><g><path d="m271 432.351v45.18c0 8.29-6.72 15-15 15s-15-6.71-15-15v-45.18c0-8.28 6.72-15 15-15s15 6.72 15 15z" fill="#574d8c"/></g><g fill="#3e3373"><path d="m271 136.821v45.18c0 8.28-6.72 15-15 15v-75.18c8.28 0 15 6.71 15 15z"/><path d="m271 242.001v35.17c0 8.29-6.72 15-15 15v-65.17c8.28 0 15 6.71 15 15z"/><path d="m271 337.171v35.18c0 8.29-6.72 15-15 15v-65.18c8.28 0 15 6.72 15 15z"/><path d="m271 432.351v45.18c0 8.29-6.72 15-15 15v-75.18c8.28 0 15 6.72 15 15z"/></g><path d="m446.13 108.971c-1.09.2 7.21-1.13-65.58 10.47-.8.12-1.59.18-2.38.18-7.24 0-13.61-5.26-14.79-12.64-1.3-8.18 4.27-15.87 12.45-17.17l21.34-3.4c-44.61-20.35-92.89-30.52-141.17-30.5v-30.37h.13c53.56 0 106.16 11.64 154.4 33.93l-8.73-18.64c-3.51-7.5-.28-16.43 7.22-19.94 7.51-3.52 16.44-.28 19.95 7.22l27.84 59.46c4.34 8.68-.73 19.53-10.68 21.4z" fill="#ff4d88"/></g></svg>