<svg viewBox="0 0 64 64" xmlns="http://www.w3.org/2000/svg"><g><g fill="#8e9fb3"><path d="M8.83 38.26A24 24 0 0 1 32 8c.69 0 1.39 0 2.09.09l-.18 2C33.28 10 32.64 10 32 10a22 22 0 0 0-22 22 21.7 21.7 0 0 0 .76 5.74zM32 56c-.69 0-1.39 0-2.09-.09l.18-2c.63 0 1.27.08 1.91.08A22 22 0 0 0 54 32a21.7 21.7 0 0 0-.76-5.74l1.93-.52A24 24 0 0 1 32 56z" fill="#8e9fb3"></path><path d="M31 59A26.94 26.94 0 0 1 5.15 34.89l-2 .22A28.93 28.93 0 0 0 31 61v2h2v-6h-2zM63 31h-6v2h2a26.94 26.94 0 0 1-24.11 25.85l.22 2A28.91 28.91 0 0 0 61 33h2zM58.85 29.11l2-.22A28.93 28.93 0 0 0 33 3V1h-2v6h2V5a26.94 26.94 0 0 1 25.85 24.11z" fill="#8e9fb3"></path></g><path d="M1 58.53h6a4 4 0 0 1 1.87.47l4.05 2.12a7.91 7.91 0 0 0 3.72.92h6.25a2.07 2.07 0 0 0 2.11-1.7A2 2 0 0 0 23 58h.89A2.07 2.07 0 0 0 26 56.34 2 2 0 0 0 24 54h.89A2.07 2.07 0 0 0 27 52.34 2 2 0 0 0 25 50h11a2 2 0 0 0 2-2.17A2.06 2.06 0 0 0 35.89 46H17l1.24-5.24a9.2 9.2 0 0 0-.73-6.21 1.84 1.84 0 0 0-1.66-1A1.85 1.85 0 0 0 14 35.38a13.82 13.82 0 0 1-5.86 11.31 4.44 4.44 0 0 1-2.54.82H1zM63 5.47h-6A4 4 0 0 1 55.13 5l-4.05-2.08A7.91 7.91 0 0 0 47.36 2h-6.25A2.07 2.07 0 0 0 39 3.66 2 2 0 0 0 41 6h-.89A2.07 2.07 0 0 0 38 7.66 2 2 0 0 0 40 10h-.89A2.07 2.07 0 0 0 37 11.66 2 2 0 0 0 39 14H28a2 2 0 0 0-2 2.17A2.06 2.06 0 0 0 28.11 18H47l-1.24 5.24a9.2 9.2 0 0 0 .73 6.21 1.84 1.84 0 0 0 1.66 1A1.85 1.85 0 0 0 50 28.62a13.82 13.82 0 0 1 5.86-11.31 4.44 4.44 0 0 1 2.54-.82H63z" fill="#f2b76d"></path><path d="m29.11 5.15-.22-2A28.91 28.91 0 0 0 3 31H1v2h6v-2H5A26.94 26.94 0 0 1 29.11 5.15z" fill="#8e9fb3"></path><path d="M42 35s-4.48 5.5-10 5.5S22 35 22 35s4.48-5.5 10-5.5S42 35 42 35z" fill="#b3d4ff"></path><circle cx="32" cy="35.05" fill="#6b8099" r="4"></circle><circle cx="32" cy="35" fill="#475666" r="2.5"></circle><circle cx="33.66" cy="33.2" fill="#f2f2f2" r=".75"></circle><path d="M31 24h2v3h-2zM35.463 27.457l1.203-2.748 1.833.802-1.204 2.748zM25.496 25.528l1.832-.804 1.206 2.748-1.832.804z" fill="#596c80"></path></g></svg>