<svg viewBox="0 0 59 60" xmlns="http://www.w3.org/2000/svg"><g><g fill="none" fill-rule="nonzero"><circle cx="29" cy="29.889" fill="#b49aca" r="29"></circle><circle cx="29" cy="29.889" fill="#ecf0f1" r="19"></circle><circle cx="41.5" cy="42.5" fill="#ff5364" r="17.5"></circle><path d="M13 12v11a3.992 3.992 0 0 1-3 3.87c-.326.09-.662.133-1 .13H5a3.657 3.657 0 0 1-1-.13A3.992 3.992 0 0 1 1 23V12c0-.582.255-1.135.7-1.51a1.975 1.975 0 0 1 2.71.1c.38.37.593.88.59 1.41a2.006 2.006 0 0 1 2.2-1.99c.459.046.887.252 1.21.58.38.37.593.88.59 1.41a2.006 2.006 0 0 1 2-2 1.94 1.94 0 0 1 1.3.49A1.955 1.955 0 0 1 13 12z" fill="#3b97d3"></path><path d="M10 26.87V51a3 3 0 0 1-6 0V26.87c.326.09.662.133 1 .13h4c.338.003.674-.04 1-.13zM22 32v19a3 3 0 0 1-6 0V32z" fill="#2980ba"></path><path d="M22 11v21h-6v-7c0-13.43 2.24-15 5-15a1 1 0 0 1 1 1z" fill="#3b97d3"></path><g fill="#fff"><path d="M32.781 37.375a1 1 0 0 0-1.406-.156L28 39.919V38a1 1 0 0 0-2 0v8a1 1 0 0 0 2 0v-1.919l3.375 2.7a1 1 0 1 0 1.25-1.562L28.6 42l4.024-3.219a1 1 0 0 0 .157-1.406zM37 39h1c.552 0 1 .448 1 1a1 1 0 0 0 2 0 3 3 0 0 0-3-3h-1a3 3 0 0 0-3 3v4a3 3 0 0 0 3 3h1a3 3 0 0 0 3-3 1 1 0 0 0-2 0 1 1 0 0 1-1 1h-1a1 1 0 0 1-1-1v-4a1 1 0 0 1 1-1zM46.937 37.649a1 1 0 0 0-1.874 0l-3 8a1 1 0 1 0 1.874.7L44.443 45h3.114l.506 1.351a1 1 0 0 0 1.874-.702zM45.193 43 46 40.848 46.807 43zM57 45h-4v-7a1 1 0 0 0-2 0v8a1 1 0 0 0 1 1h5a1 1 0 0 0 0-2z" fill="#ffffff"></path></g><path d="M5 12v8a1 1 0 0 1-2 0V10a2.015 2.015 0 0 1 2 2zM11 10v10a1 1 0 0 1-2 0v-8a2.006 2.006 0 0 1 2-2z" fill="#285680"></path></g></g></svg>