<svg viewBox="0 0 64 64" xmlns="http://www.w3.org/2000/svg"><g><g><path d="M61 5v14a3 3 0 0 1-6 0v-5.76L39.08 29.16a3 3 0 1 1-4.24-4.24L50.76 9H45a3 3 0 0 1 0-6h14a2.006 2.006 0 0 1 2 2zM29.16 34.84a2.994 2.994 0 0 1 0 4.24L13.24 55H19a3 3 0 0 1 0 6H5a2.006 2.006 0 0 1-2-2V45a3 3 0 0 1 6 0v5.76l15.92-15.92a3 3 0 0 1 4.24 0z" fill="#ff9811"></path><g fill="#ee8700"><path d="M61 5v14a3 3 0 0 1-6 0v-5.76L39.08 29.16a3 3 0 0 1-4.24 0L60.41 3.59A1.955 1.955 0 0 1 61 5zM29.16 39.08 13.24 55H19a3 3 0 0 1 0 6H5a1.955 1.955 0 0 1-1.41-.59l25.57-25.57a2.994 2.994 0 0 1 0 4.24z" fill="#ee8700"></path></g></g></g></svg>