<svg viewBox="0 0 512 512" xmlns="http://www.w3.org/2000/svg"><g><path d="M95.333 224.936C42.766 224.936 0 267.702 0 320.269s42.766 95.333 95.333 95.333 95.333-42.767 95.333-95.333-42.766-95.333-95.333-95.333zm0 160.667C59.308 385.603 30 356.294 30 320.269s29.308-65.333 65.333-65.333 65.333 29.309 65.333 65.333-29.308 65.334-65.333 65.334z" fill="#41495a"></path><path d="M95.333 224.936v30c36.025 0 65.333 29.309 65.333 65.333s-29.309 65.333-65.333 65.333v30c52.567 0 95.333-42.767 95.333-95.333s-42.766-95.333-95.333-95.333z" fill="#141e32"></path><path d="M191.74 222.806c-5.819 0-11.356-3.407-13.794-9.094L150.4 149.445c-3.264-7.615.263-16.433 7.878-19.697 7.613-3.263 16.432.263 19.696 7.877l27.546 64.267c3.264 7.615-.263 16.433-7.877 19.697a14.952 14.952 0 0 1-5.903 1.217z" fill="#006e8c"></path><path d="M416.667 224.936c-52.567 0-95.333 42.767-95.333 95.333s42.766 95.333 95.333 95.333S512 372.836 512 320.269s-42.767-95.333-95.333-95.333zm0 160.667c-36.025 0-65.333-29.309-65.333-65.333s29.308-65.333 65.333-65.333S482 284.244 482 320.269s-29.309 65.334-65.333 65.334z" fill="#41495a"></path><path d="M364.8 157.589a15 15 0 0 0-16.175-6.078l-160.667 41.773a14.998 14.998 0 0 0-7.614 4.755l-96.4 112.467a14.999 14.999 0 0 0 11.389 24.762h144.6a15 15 0 0 0 12.12-6.163l112.467-154.24a14.997 14.997 0 0 0 .28-17.276zm-236.853 147.68 59.492-69.408 29.746 69.408zm115.392-15.131-30.946-72.209 103.155-26.821z" fill="#4bb4d2"></path><path d="M207.8 158.536h-64.267c-8.284 0-15-6.716-15-15s6.716-15 15-15H207.8c8.284 0 15 6.716 15 15s-6.716 15-15 15z" fill="#f7785a"></path><path d="m348.625 151.512-105.286 27.375v30.997l72.208-18.774-72.208 99.029v44.733a15.002 15.002 0 0 0 8.714-5.764l112.467-154.24a14.999 14.999 0 0 0 .28-17.277 14.995 14.995 0 0 0-16.175-6.079z" fill="#2691af"></path><path d="M430.513 314.5 350.18 121.7c-3.186-7.647-11.969-11.263-19.615-8.077-7.647 3.187-11.263 11.968-8.077 19.615l80.333 192.8c3.186 7.647 11.969 11.263 19.615 8.077 7.647-3.186 11.263-11.968 8.077-19.615z" fill="#006e8c"></path><path d="M398.763 106.659c-2.62-7.858-11.11-12.109-18.974-9.486l-48.2 16.065c-7.859 2.62-12.106 11.115-9.486 18.974 2.62 7.858 11.11 12.109 18.974 9.486l48.2-16.065c7.859-2.62 12.106-11.115 9.486-18.974z" fill="#2691af"></path><path d="M416.667 224.936v30c36.025 0 65.333 29.309 65.333 65.333s-29.309 65.333-65.333 65.333v30c52.567 0 95.333-42.767 95.333-95.333s-42.767-95.333-95.333-95.333z" fill="#141e32"></path></g></svg>