<svg viewBox="0 0 128 128" xmlns="http://www.w3.org/2000/svg"><g><path d="M34.6 43.1c1.4.6 1.7 1.3 1.9 1.7h68.2c0-.4 0-2.2.3-4.1.2-1.1-.3-2.2-1.2-2.9l-4.5-3.3c-.9-.7-1.1-2-.4-2.9l1.4-1.8c2-2.5 1.6-6.1-.7-8.2-1.6-1.3-3.1-2.9-4.4-4.6-2.6-4.7-4.7-10.7-10.7-10.7l-15.3 7.6-1.7-2.5c-.9-1.4-2.8-1.8-4.1-.9l-3 1.9s-2.3-2-4.2-4c-1.3-1.3-3.1-2.1-5-2.1H48c-1.4 0-2.4 1.5-1.9 2.8 2.5 5.9 7.5 18.8 3.6 18.5-2.7-.4-5.3-1.3-7.7-2.6-2-1-4.4-.2-5.5 1.8-1.1 2.4-2.5 4.6-4.1 6.6-1.3 1.5-1.8 3.5-1.3 5.4.4 1.9 1.7 3.5 3.5 4.3z" fill="#474979"></path><path d="m98.6 109.4-3.4-1.6c-3.5 2.4-5.9 6-6.8 10.2-.5 1.8-2.5 2.8-4.2 2l-6.6-3-2.7 3c-1.4 1.6-3.7 2.1-5.6 1.3l-7.9-3.1-3.2.7c-1.6.3-3.2.2-4.8-.3-1.9-.7-3.8-1.4-5.7-2.4-1-.5-2.1-.4-3 .2l-3.2 2.1c-3.2.4-6.5.3-9.7-.4 1-2.7 2.2-5.3 3.6-7.9 1.8-1.4 3.4-3.1 4.5-5.1.9-1.4.4-3.3-1-4.2-.9-.6-2.7-.7-4.2 0-2.8 1.3-7.2.9-7.2.9L25 99.2c-.9-.9-1.5-2-1.7-3.2-.6-3.4-2.4-9-3.3-12.8h66.3c-.5 2.8.7 5.7 3.1 7.2 9.1 5.8 11.5 12.8 12.1 16.9.2 1.6-1.4 2.8-2.9 2.1z" fill="#ffcd38"></path><path d="M109.1 65.5c0-.7-.2-1.4-.5-2-1.1-2.5-3.3-5.2-3.6-10.1-.2-2.4-.3-5.8-.3-8.7H36.5c1.7 2.7.8 7.1-2.8 7.7-3.1.5-8.2-.7-12.7.3-.4.1-.8.3-1.2.6-1.3 1-1.5 2.9-.5 4.2 1.5 1.9 3 4.2 3.3 5.8.6 3.4-3.3 13.7-3.2 16.8.1 1.4.4 2.4.6 3h66.3c.1-.4.2-1.1.7-2l2.9-5.4s8.7-3.7 16.2-3.4c1.8.1 3.3-1.4 3.2-3.2z" fill="#fe505f"></path></g></svg>