<svg viewBox="0 0 512 512" xmlns="http://www.w3.org/2000/svg"><g><path d="M124.352 27.778V102.9h75.153l-26.842-20.861a7.1 7.1 0 0 1 8.708-11.209l43.166 33.57a7.091 7.091 0 0 1 1.236 9.944 7.333 7.333 0 0 1-1.351 1.322l-43.051 33.51a7.1 7.1 0 0 1-8.708-11.209l26.842-20.867h-75.153v75.124l20.893-26.842a7.086 7.086 0 0 1 11.18 8.708l-33.482 43.052a6.5 6.5 0 0 1-1.322 1.35 7.083 7.083 0 0 1-9.944-1.236L78.11 174.091a7.085 7.085 0 1 1 11.179-8.708l20.894 26.842V117.1H35.029l26.843 20.864a7.1 7.1 0 0 1-8.708 11.209l-43.052-33.51a7.359 7.359 0 0 1-1.35-1.322 7.069 7.069 0 0 1 1.264-9.944L53.164 70.83a7.1 7.1 0 0 1 8.708 11.209L35.029 102.9h75.154V27.778L89.289 54.592a7.085 7.085 0 1 1-11.179-8.708l33.567-43.138a7.089 7.089 0 0 1 9.944-1.264 7.27 7.27 0 0 1 1.322 1.351l33.482 43.051a7.086 7.086 0 1 1-11.18 8.708z" fill="#fe636e"></path><path d="M251.064 339.055V72.526a31.714 31.714 0 0 1 63.428 0v137.6a31.7 31.7 0 0 1 63.4 0v28.251a31.7 31.7 0 1 1 63.4 0v32.734a31.829 31.829 0 0 1 31.728-31.728c17.417 0 32.246 14.283 31.7 31.728C496.5 532.673 309.29 556.354 227.325 459.9c-17.876-21-59.462-108.889-82.482-131.1-32.591-31.412 20.347-75.613 56.99-38.97z" fill="#ffddce" fill-rule="evenodd"></path><g fill="#ffccbd"><path d="M319.722 481.976a7.25 7.25 0 1 1 2.328-14.312c31.527 5.231 56.875-4.167 76.706-21.5 25.492-22.273 42.275-57.622 51.645-92.455a7.257 7.257 0 1 1 14.024 3.737c-10 37.217-28.193 75.239-56.128 99.639-22.963 20.032-52.219 30.895-88.575 24.888z" fill="#ffccbd"></path><path d="M465.862 240.22c14.111 3.277 25 15.922 24.515 30.9-5.231 166.517-83 236.641-159.993 240.693 81.362 4.282 168.787-63.83 174.334-240.693.546-17.445-14.283-31.728-31.7-31.728a30.873 30.873 0 0 0-7.156.833z" fill="#ffccbd" fill-rule="evenodd"></path><path d="M441.29 238.381a31.78 31.78 0 0 0-31.7-31.7 31.045 31.045 0 0 0-7.157.8 31.847 31.847 0 0 1 24.544 30.9v58.14h14.313zM377.891 210.13a31.779 31.779 0 0 0-31.7-31.7 30.869 30.869 0 0 0-7.156.8 31.879 31.879 0 0 1 24.544 30.895v86.391h14.312zM314.492 296.521V72.526a31.8 31.8 0 0 0-31.7-31.7 31.123 31.123 0 0 0-7.185.834 31.789 31.789 0 0 1 24.544 30.866v224zM201.833 289.825c-31.613-31.614-75.326-3.075-65.842 25.549 7.012-21.238 40.35-34.832 65.842-9.34l49.231 49.23v-16.209z" fill="#ffccbd" fill-rule="evenodd"></path></g></g></svg>