<svg viewBox="0 0 512 512" xmlns="http://www.w3.org/2000/svg"><g><path d="m492.93 199.477-49.172-5.938c-1.375-.164-2.524-1.113-3.004-2.476a195.053 195.053 0 0 0-8.25-19.86c-.598-1.246-.465-2.664.351-3.703l30.649-39.066c6.758-8.618 6.016-20.954-1.727-28.696l-49.511-49.511c-7.746-7.747-20.082-8.489-28.7-1.727l-39.062 30.648c-1.043.817-2.461.95-3.703.348a195.423 195.423 0 0 0-19.86-8.25c-1.367-.476-2.316-1.629-2.48-3l-5.938-49.176C311.211 8.2 301.961 0 291.012 0h-70.024c-10.949 0-20.199 8.2-21.511 19.07l-5.938 49.172c-.164 1.375-1.113 2.524-2.476 3.004a195.053 195.053 0 0 0-19.86 8.25c-1.246.598-2.664.465-3.703-.351l-39.066-30.649c-8.618-6.762-20.954-6.016-28.696 1.727L50.227 99.738c-7.747 7.742-8.489 20.078-1.727 28.696l30.648 39.062c.817 1.043.95 2.461.348 3.707a195.358 195.358 0 0 0-8.25 19.856c-.48 1.367-1.629 2.316-3 2.48l-49.176 5.938C8.2 200.789 0 210.039 0 220.988v70.024c0 10.953 8.2 20.199 19.07 21.511l49.172 5.938c1.375.164 2.524 1.113 3.004 2.476a195.488 195.488 0 0 0 8.25 19.864c.598 1.242.465 2.664-.351 3.703l-30.649 39.062c-6.758 8.618-6.016 20.954 1.727 28.7l49.511 49.511c7.746 7.743 20.082 8.485 28.7 1.727l39.062-30.652c1.04-.817 2.461-.95 3.703-.348a195.423 195.423 0 0 0 19.86 8.25c1.367.48 2.316 1.629 2.48 3l5.938 49.176c1.312 10.87 10.562 19.07 21.511 19.07h70.024c10.949 0 20.199-8.2 21.511-19.07l5.938-49.172c.164-1.375 1.113-2.524 2.477-3.004a195.053 195.053 0 0 0 19.859-8.25c1.246-.602 2.664-.465 3.703.351l39.066 30.649c8.618 6.758 20.954 6.016 28.696-1.727l49.511-49.511c7.747-7.746 8.489-20.082 1.727-28.7l-30.648-39.062c-.817-1.04-.95-2.457-.348-3.703a195.423 195.423 0 0 0 8.25-19.86c.48-1.363 1.629-2.312 3-2.48l49.176-5.938c10.87-1.312 19.07-10.562 19.07-21.511v-70.024c0-10.949-8.2-20.199-19.07-21.511zm0 0" fill="#42a5f5"></path><path d="M382.145 256c0 69.668-56.477 126.145-126.145 126.145S129.855 325.668 129.855 256 186.332 129.855 256 129.855 382.145 186.332 382.145 256zm0 0" fill="#ffca28"></path><path d="M291.484 134.926c30.754 23.004 50.66 59.715 50.66 101.074 0 69.668-56.476 126.145-126.144 126.145-12.32 0-24.227-1.778-35.484-5.07 21.047 15.745 47.175 25.07 75.484 25.07 69.668 0 126.145-56.477 126.145-126.145 0-57.344-38.27-105.746-90.66-121.074zm0 0" fill="#ffa000"></path><path d="m492.93 199.477-21.32-2.575c.253 1.328.39 2.696.39 4.086v70.024c0 10.953-8.2 20.199-19.07 21.511l-49.176 5.938c-1.371.164-2.52 1.113-3 2.48a195.358 195.358 0 0 1-8.25 19.856c-.602 1.246-.465 2.664.348 3.703l30.652 39.066c6.758 8.618 6.016 20.954-1.727 28.696l-49.511 49.511a21.577 21.577 0 0 1-9.387 5.497l20.687 16.23c8.618 6.762 20.954 6.02 28.7-1.727l49.511-49.511c7.743-7.742 8.485-20.078 1.727-28.696L432.852 344.5c-.813-1.04-.95-2.457-.348-3.703a195.358 195.358 0 0 0 8.25-19.856c.48-1.367 1.629-2.316 3-2.48l49.176-5.938c10.87-1.312 19.07-10.562 19.07-21.511v-70.024c0-10.949-8.2-20.199-19.07-21.511zM304.5 412.852c-1.04-.817-2.457-.95-3.703-.348a195.053 195.053 0 0 1-19.86 8.25c-1.363.48-2.312 1.629-2.476 3l-5.938 49.176C271.211 483.8 261.961 492 251.012 492h-51.645l.11.93c1.312 10.87 10.562 19.07 21.511 19.07h70.024c10.949 0 20.199-8.2 21.511-19.07l5.938-49.172c.164-1.375 1.113-2.524 2.476-3.004a194.639 194.639 0 0 0 12.735-5.012zm0 0" fill="#1976d2"></path><path d="M230.203 292.246V379.5a126.666 126.666 0 0 0 25.793 2.645h.008c8.84 0 17.465-.915 25.793-2.645v-87.188zm0 0" fill="#b0bec5"></path><path d="M282.48 176.676v44.203c0 1.45-.593 2.84-1.644 3.84l-21.676 20.719c-2.09 2-5.39 1.96-7.433-.083l-20.649-20.648a5.31 5.31 0 0 1-1.558-3.762v-44.273c0-4.387-4.801-7.07-8.551-4.797-20.332 12.332-33.649 35.07-32.559 60.828 1.512 35.59 31.004 64.203 66.625 64.7 37.805.527 68.617-29.962 68.617-67.645 0-24.543-13.07-46.028-32.625-57.887-3.75-2.27-8.547.418-8.547 4.805zm0 0" fill="#b0bec5"></path><path d="M261.797 292.313v47.628c0 11.926-9.45 21.711-21.367 22.125-1.47.051-2.946.079-4.426.079h-.012c-1.941 0-3.87-.051-5.789-.141V379.5a126.628 126.628 0 0 0 25.79 2.645h.01c8.84 0 17.466-.915 25.794-2.645v-87.184h-20zm0 0" fill="#78909c"></path><path d="M256 324.695a7.5 7.5 0 0 0-7.5 7.5v49.72c2.48.144 4.977.23 7.496.23h.008c2.52 0 5.016-.086 7.496-.23v-49.72a7.5 7.5 0 0 0-7.5-7.5zm0 0" fill="#78909c"></path><path d="M259.727 382.086c-1.235.035-2.477.059-3.723.059h-.008c-1.246 0-2.488-.024-3.723-.06a135.87 135.87 0 0 1-3.773-.172v-21.683c7.84-3.421 13.297-11.234 13.297-20.289v-12.507a7.487 7.487 0 0 1 1.703 4.761v49.72a136.935 136.935 0 0 1-3.773.17zm0 0" fill="#455a64"></path><path d="M291.027 171.871c-2.816-1.707-6.222-.613-7.746 1.895 6.567 10.425 10.371 22.761 10.371 35.992 0 37.683-30.812 68.172-68.617 67.644a66.785 66.785 0 0 1-20.062-3.386c12.261 14.09 30.207 23.109 50.062 23.386 37.805.528 68.617-29.96 68.617-67.644 0-24.54-13.07-46.028-32.625-57.887zm0 0" fill="#78909c"></path><path d="M421.773 79.738c7.747 7.742 8.489 20.078 1.727 28.696L392.852 147.5c-.813 1.04-.95 2.457-.348 3.703a195.053 195.053 0 0 1 8.25 19.86c.48 1.363 1.629 2.312 3 2.476l31.566 3.813c-.91-2.067-1.84-4.122-2.816-6.149-.602-1.246-.469-2.664.348-3.703l30.648-39.066c6.762-8.618 6.02-20.954-1.727-28.696l-49.511-49.511c-6.52-6.52-16.285-8.055-24.352-4.356zm0 0" fill="#1976d2"></path></g></svg>