<svg id="Layer_1" height="512" viewBox="0 0 64 64" width="512" xmlns="http://www.w3.org/2000/svg" data-name="Layer 1"><path d="m50 32.36v23.64a6 6 0 0 1 -6 6h-24a6 6 0 0 1 -6-6v-23.64a1 1 0 0 1 .23-.64l3.93-4.72.54-.65a1 1 0 0 1 .77-.36h25.06a1 1 0 0 1 .77.36l.54.65 3.93 4.71a1 1 0 0 1 .23.65z" fill="#60d0f0"/><ellipse cx="32" cy="56" fill="#525a66" rx="14" ry="3"/><path d="m3.24 28.55-1.11-2.38a.49.49 0 0 1 .06-.52l3.18-4.1a.4.4 0 0 1 .19-.15l23.34-10.88a.68.68 0 0 1 .23 0l5.2.21a.49.49 0 0 1 .43.29l1.11 2.37a.5.5 0 0 1 -.24.67l-31.73 14.73a.49.49 0 0 1 -.66-.24z" fill="#525a66"/><path d="m47 50a1 1 0 0 1 -1-1v-15.17a1 1 0 0 0 -.29-.71l-.71-.71a1 1 0 0 1 0-1.41 1 1 0 0 1 1.41 0l1.3 1.29a1 1 0 0 1 .29.71v16a1 1 0 0 1 -1 1z" fill="#3899de"/><rect fill="#3899de" height="15" rx="1" width="2" x="16" y="37"/><path d="m31 41h2v9h-2z" fill="#e88223"/><path d="m28.64 55h6.72a.49.49 0 0 0 .48-.38l1-4a.5.5 0 0 0 -.48-.62h-8.72a.5.5 0 0 0 -.48.62l1 4a.49.49 0 0 0 .48.38z" fill="#fac32d"/><path d="m45.84 27c-2.77 1.8-7.93 3-13.84 3s-11.07-1.2-13.84-3l.54-.65a1 1 0 0 1 .77-.36h25.06a1 1 0 0 1 .77.36z" fill="#3899de"/><circle cx="58" cy="25" fill="#23bc61" r="3"/><rect fill="#f51a32" height="2" rx="1" width="2" x="38" y="19"/><circle cx="38" cy="5" fill="#23bc61" r="2"/><rect fill="#fac32d" height="2" rx="1" width="2" x="58" y="17"/><rect fill="#f51a32" height="2" rx="1" width="2" x="48" y="8"/><path d="m45.58 13.28 1.86 1.36a.19.19 0 0 0 .18 0l2.18-.76a.2.2 0 0 1 .25.26l-.72 2.19a.19.19 0 0 0 0 .18l1.4 1.84a.2.2 0 0 1 -.17.32h-2.3a.21.21 0 0 0 -.17.08l-1.31 1.9a.21.21 0 0 1 -.36-.06l-.7-2.19a.17.17 0 0 0 -.13-.13l-2.21-.67a.2.2 0 0 1 -.06-.36l1.87-1.34a.19.19 0 0 0 .08-.17v-2.31a.2.2 0 0 1 .31-.14z" fill="#fac32d"/><g fill="#557de6"><path d="m56.37 10.25 5-4a.5.5 0 0 0 -.1-.84l-6.48-3a.5.5 0 0 0 -.69.59l1.47 7a.5.5 0 0 0 .8.25z"/><rect height="2" rx="1" width="2" x="39" y="11"/><rect height="2" rx="1" width="2" x="55" y="31"/></g><path d="m33.64 36.26c-2.64 2.82-3.41 6.39-1.72 8s5.2.59 7.84-2.23 1.72-8 1.72-8-5.2-.58-7.84 2.23z" fill="#2e995a"/><path d="m29.82 37.68c2.56 1.8 3.76 4.5 2.69 6s-4 1.33-6.59-.46-2.69-6-2.69-6 4.02-1.33 6.59.46z" fill="#23bc61"/></svg>