<svg viewBox="0 0 512 512" xmlns="http://www.w3.org/2000/svg"><g><path d="m60.591 194.106 40.124 7.075 15.491-27.143-5.004-32.335-40.124-7.075a3.073 3.073 0 0 0-3.561 2.493l-9.42 53.424a3.074 3.074 0 0 0 2.494 3.561z" fill="#ddebfd"></path><path d="M177.846 428.81a7.609 7.609 0 0 1-7.521-6.534l-15.413-108.142a7.605 7.605 0 0 1 6.457-8.604c4.153-.602 8.011 2.299 8.604 6.457l15.413 108.142a7.605 7.605 0 0 1-7.54 8.681z" fill="#5d91b9"></path><path d="m117.454 297.182 44.942-254.877a3.073 3.073 0 0 0-2.493-3.561L133.3 34.053a3.073 3.073 0 0 0-3.561 2.493L83.596 298.239l41.623 172.151 32.232-7.79z" fill="#c77e67"></path><path d="M219.795 84.532c-.439 0-.883-.038-1.33-.117L62.656 56.942a7.607 7.607 0 0 1-6.171-8.812c.729-4.137 4.679-6.906 8.812-6.17l155.81 27.473a7.607 7.607 0 0 1-1.312 15.099zM208.898 144.178c-.675 0-1.361-.09-2.043-.28L54.429 101.499a7.606 7.606 0 0 1-5.29-9.367 7.603 7.603 0 0 1 9.367-5.29l152.427 42.398a7.606 7.606 0 0 1 5.29 9.367 7.612 7.612 0 0 1-7.325 5.571z" fill="#766d78"></path><path d="m465.365 370.589-36.323 99.798H319.627l-111.952-40.75 49.124-134.964 116.943-10.362c2.325-.202 4.626.33 6.59 1.509.297.191.594.383.881.595.435.308.851.669 1.233 1.062z" fill="#ddebfd"></path><path d="M366.303 306.563a11.525 11.525 0 0 1 6.934 1.586c.313.201.625.402.927.625.458.324.893.703 1.295 1.116l82.062 82.251 7.845-21.553-82.919-83.112a8.935 8.935 0 0 0-1.233-1.062 16.384 16.384 0 0 0-.881-.595 10.954 10.954 0 0 0-6.59-1.509L256.8 294.672l-8.121 22.311z" fill="#bed9fd"></path><path d="m349.216 207.176-22.137 60.82-48.762 7.309 23.259-63.905z" fill="#ddebfd"></path><path d="M483.088 388.344 382.446 287.477a10.929 10.929 0 0 0-8.704-3.165L231.818 296.89a5.64 5.64 0 0 1-6.115-5.119l-2.365-26.679a5.64 5.64 0 0 1 5.119-6.115l155.887-13.818a19.03 19.03 0 0 1 15.152 5.515l110.535 110.787a5.638 5.638 0 0 1-.009 7.974l-18.96 18.917a5.637 5.637 0 0 1-7.974-.008zM283.49 220.61a7.607 7.607 0 0 1-.663-15.184l79.206-7.021c4.175-.356 7.878 2.72 8.249 6.905s-2.721 7.877-6.905 8.249l-79.206 7.021c-.229.02-.456.03-.681.03z" fill="#d97b7b"></path><circle cx="355.456" cy="348.102" fill="#4980ac" r="19.994" transform="rotate(-47.47 355.755 348.166)"></circle><path d="M410.944 470.387H34.349l25.001-69.419c1.048-2.91 3.798-4.951 6.891-4.977h21.756c2.775-.023 5.329 1.419 6.613 3.88l11.952 22.901a5.712 5.712 0 0 0 7.428 2.558l72.585-32.975a8.632 8.632 0 0 1 5.612-.528l75.216 18.311a7.99 7.99 0 0 0 7.257-1.844l23.27-21.098a7.993 7.993 0 0 1 7.04-1.894l58.879 12.609a7.99 7.99 0 0 1 5.15 3.655z" fill="#8c818f"></path><g fill="#766d78"><path d="M34.349 470.387h376.595l-12.759-20.935H41.889zM259.001 416.998a7.99 7.99 0 0 0 7.257-1.844l5.852-5.305a7.983 7.983 0 0 1-4.706.29l-75.216-18.311a8.632 8.632 0 0 0-5.612.528l-8.696 3.95z" fill="#766d78"></path><path d="M369.001 401.568a7.987 7.987 0 0 0-5.15-3.655l-58.879-12.609a7.987 7.987 0 0 0-7.04 1.894l-5.858 5.311a7.984 7.984 0 0 1 4.496-.346l35.417 5.75a7.987 7.987 0 0 1 5.15 3.655l41.943 68.819h31.865z" fill="#766d78"></path></g><path d="M482.709 470.387H327.152l19.3-38.235a5.262 5.262 0 0 1 3.647-2.785l106.741-21.768a5.262 5.262 0 0 1 6.043 3.488z" fill="#bed9fd"></path><path d="M462.883 411.087a5.263 5.263 0 0 0-6.043-3.488l-20.93 4.268c1.958.231 3.677 1.467 4.333 3.296l19.826 55.224h22.64z" fill="#9ec8fc"></path><path d="M228.671 453.087a7.605 7.605 0 0 1-6.712-4.016l-2.776-5.183a13.183 13.183 0 0 0-10.535-6.933l-19.449-1.658a3.265 3.265 0 0 0-1.966.46l-16.658 10.093a7.607 7.607 0 0 1-7.883-13.012l16.658-10.092a18.365 18.365 0 0 1 11.145-2.606l19.447 1.658a28.345 28.345 0 0 1 22.652 14.907l2.776 5.184a7.608 7.608 0 0 1-6.699 11.198z" fill="#766d78"></path><path d="M86.439 477.994a7.596 7.596 0 0 1-6.221-3.221l-42.653-60.418-20.327 4.072a7.607 7.607 0 1 1-2.988-14.917l20.465-4.099a14.99 14.99 0 0 1 15.198 6.056L92.646 466a7.606 7.606 0 0 1-6.207 11.994z" fill="#9ec8fc"></path><path d="M504.393 477.993H7.607c-4.201 0-7.607-3.405-7.607-7.607s3.406-7.607 7.607-7.607h496.787a7.607 7.607 0 1 1-.001 15.214z" fill="#5d91b9"></path></g></svg>