<svg viewBox="0 0 64 64" xmlns="http://www.w3.org/2000/svg"><g><path d="M3 36h58v17H3z" fill="#f8fbff"></path><path d="M14 40c3.866 0 7 2.686 7 6H7c0-3.314 3.134-6 7-6z" fill="#edb66c"></path><path d="M7 46h14l-1.5 7h-11z" fill="#f27758"></path><path d="M21 46H9.046l1.499 7H19.5z" fill="#f05e3c"></path><path d="M11.667 46h4.666l-.5 7h-3.666z" fill="#f27758"></path><path d="M15.639 42a7.011 7.011 0 0 0-6.593 4H21a5.253 5.253 0 0 0-.558-2.35A7.601 7.601 0 0 0 15.639 42z" fill="#e6a554"></path><path d="M32 40c3.866 0 7 2.686 7 6H25c0-3.314 3.134-6 7-6z" fill="#edb66c"></path><path d="M25 46h14l-1.5 7h-11z" fill="#f27758"></path><path d="M39 46H27.046l1.499 7H37.5z" fill="#f05e3c"></path><path d="M29.667 46h4.666l-.5 7h-3.666z" fill="#f27758"></path><path d="M33.639 42a7.011 7.011 0 0 0-6.593 4H39a5.253 5.253 0 0 0-.558-2.35A7.601 7.601 0 0 0 33.639 42z" fill="#e6a554"></path><path d="M50 40c3.866 0 7 2.686 7 6H43c0-3.314 3.134-6 7-6z" fill="#edb66c"></path><path d="M43 46h14l-1.5 7h-11z" fill="#f27758"></path><path d="M57 46H45.046l1.499 7H55.5z" fill="#f05e3c"></path><path d="M47.667 46h4.666l-.5 7h-3.666z" fill="#f27758"></path><path d="M51.639 42a7.011 7.011 0 0 0-6.593 4H57a5.253 5.253 0 0 0-.558-2.35A7.601 7.601 0 0 0 51.639 42z" fill="#e6a554"></path><path d="M3 19h58v17H3z" fill="#f8fbff"></path><path d="M34 31.6c0 4.197 5.149 4.4 11.5 4.4S57 35.797 57 31.6 51.851 24 45.5 24 34 27.403 34 31.6z" fill="#edb66c"></path><path d="M57 31.6a5.502 5.502 0 0 0-1.025-3.124A14.64 14.64 0 0 0 47.5 26C41.149 26 36 29.403 36 33.6a3.94 3.94 0 0 0 .223 1.352C38.313 35.92 41.684 36 45.5 36c6.351 0 11.5-.203 11.5-4.4z" fill="#e6a554"></path><path d="M46.5 30v-5.967c-.33-.019-.662-.033-1-.033s-.67.015-1 .033V30a1 1 0 0 0 2 0z" fill="#f5dfb7"></path><path d="M44.5 26.27V30a1 1 0 0 0 2 0v-3.967a16.818 16.818 0 0 0-2 .237z" fill="#f1d29a"></path><path d="M50 30a1 1 0 0 0 1-1v-4.075a15.075 15.075 0 0 0-2-.564V29a1 1 0 0 0 1 1z" fill="#f5dfb7"></path><path d="M50 30a1 1 0 0 0 1-1v-2.639a16.6 16.6 0 0 0-2-.289V29a1 1 0 0 0 1 1z" fill="#f1d29a"></path><path d="M40 24.925V29a1 1 0 0 0 2 0v-4.639a15.075 15.075 0 0 0-2 .564z" fill="#f5dfb7"></path><path d="M40 27.847V29a1 1 0 0 0 2 0v-2.075a12.82 12.82 0 0 0-2 .922z" fill="#f1d29a"></path><path d="M7 31.6c0 4.197 5.149 4.4 11.5 4.4S30 35.797 30 31.6 24.851 24 18.5 24 7 27.403 7 31.6z" fill="#edb66c"></path><path d="M30 31.6a5.502 5.502 0 0 0-1.025-3.124A14.64 14.64 0 0 0 20.5 26C14.149 26 9 29.403 9 33.6a3.94 3.94 0 0 0 .223 1.352C11.314 35.92 14.684 36 18.5 36c6.351 0 11.5-.203 11.5-4.4z" fill="#e6a554"></path><path d="M19.5 30v-5.967c-.33-.019-.662-.033-1-.033s-.67.015-1 .033V30a1 1 0 0 0 2 0z" fill="#f5dfb7"></path><path d="M17.5 26.27V30a1 1 0 0 0 2 0v-3.967a16.818 16.818 0 0 0-2 .237z" fill="#f1d29a"></path><path d="M23 30a1 1 0 0 0 1-1v-4.075a15.075 15.075 0 0 0-2-.564V29a1 1 0 0 0 1 1z" fill="#f5dfb7"></path><path d="M23 30a1 1 0 0 0 1-1v-2.639a16.6 16.6 0 0 0-2-.289V29a1 1 0 0 0 1 1z" fill="#f1d29a"></path><path d="M13 24.925V29a1 1 0 0 0 2 0v-4.639a15.075 15.075 0 0 0-2 .564z" fill="#f5dfb7"></path><path d="M13 27.847V29a1 1 0 0 0 2 0v-2.075a12.82 12.82 0 0 0-2 .922z" fill="#f1d29a"></path><path d="M5 2h54a2 2 0 0 1 2 2v15H3V4a2 2 0 0 1 2-2z" fill="#f8fbff"></path><circle cx="14.5" cy="12.5" fill="#ae7d50" r="6.5"></circle><path d="M10 14.5a6.461 6.461 0 0 0 1.018 3.482 6.492 6.492 0 0 0 8.964-8.964A6.492 6.492 0 0 0 10 14.5z" fill="#9e7048"></path><g fill="#8e6340"><circle cx="17" cy="12" fill="#8e6340" r="1"></circle><circle cx="13" cy="10" fill="#8e6340" r="1"></circle><circle cx="13" cy="15" fill="#8e6340" r="1"></circle></g><circle cx="32" cy="12.5" fill="#ae7d50" r="6.5"></circle><path d="M27.5 14.5a6.461 6.461 0 0 0 1.018 3.482 6.492 6.492 0 0 0 8.964-8.964A6.492 6.492 0 0 0 27.5 14.5z" fill="#9e7048"></path><circle cx="34.5" cy="12" fill="#8e6340" r="1"></circle><circle cx="30.5" cy="10" fill="#8e6340" r="1"></circle><circle cx="30.5" cy="15" fill="#8e6340" r="1"></circle><circle cx="49.5" cy="12.5" fill="#ae7d50" r="6.5"></circle><path d="M45 14.5a6.461 6.461 0 0 0 1.018 3.482 6.492 6.492 0 0 0 8.964-8.964A6.492 6.492 0 0 0 45 14.5z" fill="#9e7048"></path><circle cx="52" cy="12" fill="#8e6340" r="1"></circle><circle cx="48" cy="10" fill="#8e6340" r="1"></circle><circle cx="48" cy="15" fill="#8e6340" r="1"></circle><path d="M59 1H5a3.003 3.003 0 0 0-3 3v49a1 1 0 0 0 1 1h58a1 1 0 0 0 1-1V4a3.003 3.003 0 0 0-3-3zM4 20h56v15H4zM4 4a1 1 0 0 1 1-1h54a1 1 0 0 1 1 1v14H4zm56 48H4V37h56z" fill="#d7e4f7"></path><path d="M5 57h54v6H5z" fill="#697488"></path><path d="M7 57h52v6H7z" fill="#556077"></path><path d="M5 57h54v2H5z" fill="#556077"></path><path d="M7 57h52v2H7z" fill="#404d66"></path><path d="M1 52h62v5H1z" fill="#e6f0ff"></path><path d="M3 54h60v3H3z" fill="#d7e4f7"></path></g></svg>