<svg viewBox="0 0 36 36" xmlns="http://www.w3.org/2000/svg"><g><path d="M24.3 18.4H11.7l-.4 2.4H11v2.1c0 1 1.1 1.7 2.1 1.2l4.3-2.3c.4-.2.9-.2 1.3 0l4.3 2.3c.9.5 2-.2 2.1-1.2v-2.1h-.3z" fill="#dd8536"></path><g fill="#f3a250"><path d="M11.8 18.4V24c.4.2.8.2 1.3 0v-5.6zM16 18.4v4.1l1.3-.7c.2-.1.5-.2.7-.2v-3.2zM23.4 18.4h-1.2v5.3l.7.4c.1.1.3.1.4.1v-5.8zM26 9.9v.6l-3.5-.5c-.5-.1-.9-.4-1.1-.8l-2.1-4.3c-.5-1.1-2-1.1-2.6 0l-2.1 4.3c-.2.4-.6.7-1.1.8l-3.5.5v-.6l-2.5.1v2c0 .4.1.8.4 1.1l3.5 3.4c.3.3.5.8.4 1.3h12.4c-.1-.5.1-.9.4-1.3l3.5-3.4c.3-.3.4-.7.4-1.1v-2z" fill="#f3a250"></path></g><path d="M21.4 26.2c-.8.2-2 .3-3.4.3s-2.5-.1-3.4-.3l.1-.8.4-3.6 2.3-1.2c.4-.2.9-.2 1.3 0l2.3 1.2.4 3.6z" fill="#aa6256"></path><path d="m21 22.3-2.3-1.2c-.4-.2-.9-.2-1.3 0L15 22.3v-.4l2.3-1.2c.4-.2.9-.2 1.3 0l2.3 1.2z" fill="#8a4852"></path><path d="m24.2 15.7.8 4.8c.2 1.2-1 2.1-2.1 1.5l-4.3-2.3c-.4-.2-.9-.2-1.3 0L13.1 22c-1 .6-2.3-.3-2.1-1.5l.8-4.8c.1-.5-.1-.9-.4-1.3L7.9 11c-.8-.8-.4-2.3.8-2.4l4.8-.7c.5-.1.9-.4 1.1-.8l2.1-4.3c.5-1.1 2-1.1 2.6 0l2.1 4.3c.2.4.6.7 1.1.8l4.8.7c1.2.2 1.6 1.6.8 2.4l-3.5 3.4c-.3.4-.5.8-.4 1.3z" fill="#ffd475"></path><path d="M12.4 21.2c-.2 0-.3-.1-.4-.2s-.1-.2-.1-.4l.8-4.8c.1-.8-.1-1.5-.7-2.1l-3.5-3.4c-.2-.1-.1-.3-.1-.4s.1-.3.4-.4l4.8-.7c.8-.1 1.4-.6 1.8-1.3l2.1-4.3c.1-.3.4-.3.5-.3s.3 0 .5.3l2.1 4.3c.3.7 1 1.2 1.8 1.3l4.8.7c.3 0 .4.3.4.4s.1.3-.1.5L24 13.8c-.5.5-.8 1.3-.7 2.1l.8 4.8c0 .2 0 .3-.1.4s-.3.2-.4.2-.2 0-.2-.1l-4.3-2.3c-.3-.2-.7-.3-1.1-.3s-.8.1-1.1.3l-4.3 2.3h-.2z" fill="#ffb961"></path><path d="M24.1 20.6c0 .2 0 .3-.1.4l-.1.1L18 13l5.4 1.8c-.1.3-.1.7-.1 1.1z" fill="#ffb961"></path><path d="M27.4 10.4 24 13.8c-.3.3-.5.6-.6 1L18 13l9.6-3.1c0 .1.1.3-.2.5z" fill="#f3a250" opacity=".7"></path><path d="M27.6 9.9 18 13l3.3-4.6c.3.2.7.4 1 .4l4.8.7c.3 0 .4.3.5.4z" fill="#ffb961"></path><path d="M21.3 8.4 18 13V2.9c.1 0 .3 0 .5.3l2.1 4.3c.2.4.4.7.7.9z" fill="#f3a250" opacity=".7"></path><path d="M18 2.9V13l-3.3-4.6c.3-.2.5-.5.7-.8l2.1-4.3c.2-.4.4-.4.5-.4z" fill="#ffb961"></path><path d="M18 13 8.4 9.9c0-.1.1-.3.4-.4l4.8-.7c.4-.1.7-.2 1-.4zM18 13l-5.9 8.2-.1-.1c-.1-.1-.2-.2-.1-.4l.8-4.8c.1-.4 0-.7-.1-1.1z" fill="#f3a250" opacity=".7"></path><path d="m18 13-5.4 1.8c-.1-.4-.3-.7-.6-1l-3.5-3.4c-.2-.2-.1-.4-.1-.5z" fill="#ffb961"></path><path d="M23.9 21.1c-.1.1-.2.1-.3.1s-.2 0-.2-.1l-4.3-2.3c-.3-.2-.7-.3-1.1-.3V13z" fill="#f3a250" opacity=".7"></path><path d="M18 13v5.7c-.4 0-.8.1-1.1.3l-4.3 2.3c-.1 0-.2.1-.2.1-.1 0-.2 0-.3-.1z" fill="#ffb961"></path><path d="M25.2 30.5v2.2c0 .8-3.2 1.4-7.2 1.4-3.9 0-7.1-.6-7.2-1.3v-2.2h14.4z" fill="#8a4852"></path><path d="M25.2 30.5c0 .8-3.2 1.4-7.2 1.4s-7.2-.6-7.2-1.4c0-.7 3.2-1.3 7.2-1.3 4-.1 7.2.5 7.2 1.3z" fill="#aa6256"></path><path d="M13.8 31.6c1 .1 2.1.2 3.3.2V34c-1.2 0-2.3-.1-3.3-.2zM20.4 31.7v2.2c-.5 0-1 .1-1.5.1v-2.2c.5 0 1 0 1.5-.1z" fill="#ffffff" opacity=".2"></path><path d="M23.3 25.8c0 .6-2.4 1.1-5.3 1.1s-5.3-.5-5.3-1.1 2.4-1.1 5.3-1.1 5.3.5 5.3 1.1z" fill="#8a4852"></path><path d="M23.9 30.2c0 .2-.1.4-.3.4-1.8.5-4.9.6-6.2.5-3.4 0-4.7-.5-5.1-.5-.2 0-.2-.2-.2-.3s.7-4.8.6-4.5h10.5c.1.1.7 4.7.7 4.4z" fill="#8a4852"></path><path d="M23.9 30.2c0 .2-.1.4-.3.4-1.8.5-4.9.6-6.2.5-3.2 0-4.7-.5-5.1-.5-.2 0-.2-.2-.2-.3l.1-.8c1.1.4 2.3.7 3.7.7 3.5 0 6-1.6 7.5-3.8z" fill="#51383c" opacity=".7"></path><path d="M18.5 13.3c1 .3 2 .6 3.1.8-1-.5-2-.8-3-1.2 1-.4 2-.7 3-1.2-1 .2-2.1.5-3.1.8.8-1.1 1.6-2.2 2.3-3.4-.9 1-1.7 2.1-2.6 3.2 0-1.6 0-3.3-.2-4.9-.2 1.6-.2 3.3-.2 4.9-.8-1.1-1.6-2.1-2.5-3.1.7 1.1 1.4 2.2 2.2 3.3-1.1-.3-2.1-.7-3.3-.9 1 .5 2.1.9 3.2 1.3-1.1.4-2.1.8-3.2 1.3 1.1-.2 2.2-.6 3.3-.9-.8 1.1-1.5 2.2-2.2 3.3.9-1 1.7-2 2.5-3.1 0 1.3.1 2.6.2 4 .1-1.3.2-2.6.2-3.9.8 1.1 1.6 2.1 2.5 3.1-.7-1.2-1.5-2.3-2.2-3.4z" fill="#ffde9b"></path><path d="M14.3 26.6c-.5.5-.8 1-1 .8s-.3-1 .2-1.5 1.3-.5 1.5-.3-.2.5-.7 1z" fill="#ffffff" opacity=".5"></path></g></svg>