<svg viewBox="0 0 512 512" xmlns="http://www.w3.org/2000/svg"><g><path d="m508.467 255.864-57.181-57.18c-4.711-4.711-12.348-4.711-17.059 0l-57.18 57.18c-4.711 4.711-4.711 12.348 0 17.059l12.794 12.794c4.711 4.711 12.348 4.71 17.059 0l14.883-14.883c-4.87 54.907-36.494 102.233-81.731 128.811-3.229 1.897-3.841 6.303-1.189 8.949l.054.053c6.708 6.717 11.198 15.047 13.095 24.122.801 3.832 5.033 5.79 8.42 3.826 58.146-33.729 98.572-94.732 103.685-165.376l14.498 14.498c4.711 4.711 12.348 4.711 17.059 0l12.794-12.794c4.71-4.711 4.71-12.348-.001-17.059z" fill="#a3e440"></path><path d="M464.112 271.221c-5.11 70.64-45.534 131.647-103.677 165.375-3.389 1.968-7.623 0-8.427-3.832a47.32 47.32 0 0 0-4.584-12.63c54.126-32.791 92.201-89.502 99.516-155.351.371-3.297 4.316-4.811 6.809-2.606 4.532 3.996 9.992 8.797 10.363 9.044z" fill="#99d53b"></path><path d="M436.594 151.559c-33.729-58.135-94.732-98.56-165.375-103.673l14.5-14.5c4.711-4.711 4.711-12.348 0-17.059L272.925 3.533c-4.711-4.711-12.348-4.711-17.059 0l-57.18 57.181c-4.71 4.711-4.71 12.348 0 17.059l57.18 57.18c4.711 4.711 12.348 4.711 17.059 0l12.794-12.794c4.711-4.711 4.711-12.348 0-17.059l-14.881-14.881c54.908 4.871 102.233 36.498 128.8 81.736 1.895 3.228 6.298 3.841 8.944 1.195l.065-.065c6.717-6.708 15.047-11.198 24.122-13.1 3.833-.803 5.79-5.038 3.825-8.426z" fill="#1c96f9"></path><path d="M432.774 159.982a47.526 47.526 0 0 0-14.124 5.419c-32.533-54.023-90.707-90.306-156.371-97.847-3.74-.433-5.367-4.966-2.74-7.665a5228.76 5228.76 0 0 1 11.682-12.002c70.64 5.11 131.647 45.534 165.375 103.667 1.967 3.391.01 7.625-3.822 8.428z" fill="#1785f8"></path><path d="m173.148 103.439-.064-.064c-6.708-6.717-11.198-15.062-13.095-24.143-.801-3.834-5.034-5.792-8.422-3.826-58.144 33.739-98.569 94.751-103.683 165.393L33.386 226.3c-4.711-4.711-12.348-4.711-17.059 0L3.533 239.095c-4.711 4.711-4.711 12.348 0 17.059l57.181 57.181c4.711 4.711 12.348 4.711 17.059 0l57.18-57.181c4.711-4.711 4.71-12.348 0-17.059L122.159 226.3c-4.711-4.711-12.348-4.711-17.059 0l-14.882 14.882c4.87-54.908 36.488-102.232 81.735-128.799 3.228-1.894 3.842-6.297 1.195-8.944z" fill="#975bbb"></path><path d="m134.948 256.15-57.175 57.185c-4.708 4.708-12.352 4.708-17.06 0l-10.467-10.467c3.698.433 7.551-.762 10.384-3.595l59.709-59.709a12.606 12.606 0 0 0 3.369-11.713l11.239 11.239c4.719 4.718 4.719 12.352.001 17.06z" fill="#804d9e"></path><path d="m313.336 434.227-57.181-57.18c-4.711-4.711-12.348-4.711-17.059 0l-12.794 12.794c-4.711 4.711-4.711 12.348 0 17.059l14.884 14.884c-54.901-4.87-102.237-36.487-128.814-81.726-1.896-3.227-6.298-3.84-8.944-1.194l-.054.054c-6.717 6.708-15.062 11.198-24.143 13.094-3.834.801-5.792 5.034-3.826 8.422 33.739 58.145 94.742 98.569 165.393 103.684l-14.497 14.497c-4.711 4.711-4.711 12.348 0 17.059l12.794 12.794c4.711 4.711 12.348 4.711 17.059 0l57.181-57.181c4.712-4.712 4.712-12.349.001-17.06z" fill="#fb4a59"></path><path d="m313.334 451.287-12.702 12.702c1.113-4.255.01-8.963-3.327-12.3l-60.616-60.616a12.739 12.739 0 0 0-7.912-3.698l10.322-10.322c4.708-4.718 12.342-4.718 17.06 0l57.175 57.175c4.708 4.707 4.708 12.351 0 17.059z" fill="#f82f40"></path><circle cx="256.005" cy="256.008" fill="#fc9744" r="81.195"></circle><path d="M337.199 256.009c0 44.838-36.35 81.189-81.189 81.189a81.074 81.074 0 0 1-26.381-4.382h.289c42.415 0 76.807-34.392 76.807-76.807s-34.392-76.807-76.807-76.807h-.326c8.275-2.85 17.164-4.395 26.418-4.395 44.839.001 81.189 36.364 81.189 81.202z" fill="#fb8627"></path><circle cx="256.005" cy="256.003" fill="#fddd45" r="51.276"></circle><path d="M307.277 256.005c0 28.312-22.955 51.28-51.267 51.28-7.219 0-14.089-1.487-20.316-4.192 21.508-4.888 37.539-24.107 37.539-47.088 0-22.968-16.031-42.2-37.526-47.102a51.063 51.063 0 0 1 20.303-4.178c28.312.001 51.267 22.955 51.267 51.28z" fill="#f8c52d"></path><path d="M248.966 275.33a7.7 7.7 0 0 1-5.463-2.263l-9.12-9.12a7.727 7.727 0 0 1 10.927-10.927l3.656 3.656 17.733-17.733a7.726 7.726 0 0 1 10.927 0 7.725 7.725 0 0 1 0 10.927l-23.197 23.196a7.696 7.696 0 0 1-5.463 2.264z" fill="#fb8627"></path></g></svg>