<svg viewBox="0 0 512 512" xmlns="http://www.w3.org/2000/svg"><g><path d="M471.771 124.539v278.089c0 11.703-9.521 21.277-21.277 21.277H27.934c-11.756 0-21.277-9.574-21.277-21.277V124.539z" fill="#f2f0f0"></path><path d="M27.936 145.815h422.557v256.814H27.936z" fill="#e5e3e5"></path><path d="M471.771 124.513V55.907c0-11.751-9.526-21.277-21.277-21.277H27.934c-11.751 0-21.277 9.526-21.277 21.277v68.605h465.114z" fill="#f96464"></path><path d="M471.794 55.893v68.627h-33.497V55.893c0-11.71-9.532-21.242-21.296-21.242h33.497c11.764 0 21.296 9.531 21.296 21.242z" fill="#000000" opacity=".08"></path><path d="M183.169 178.338v35.599a5.32 5.32 0 0 1-5.319 5.319h-37.152a5.32 5.32 0 0 1-5.319-5.319v-35.599a5.32 5.32 0 0 1 5.319-5.319h37.152a5.32 5.32 0 0 1 5.319 5.319zM263.11 178.338v35.599a5.32 5.32 0 0 1-5.319 5.319h-37.152a5.32 5.32 0 0 1-5.319-5.319v-35.599a5.32 5.32 0 0 1 5.319-5.319h37.152a5.32 5.32 0 0 1 5.319 5.319z" fill="#f2f0f0"></path><path d="M343.05 178.338v35.599a5.32 5.32 0 0 1-5.319 5.319h-37.152a5.32 5.32 0 0 1-5.319-5.319v-35.599a5.32 5.32 0 0 1 5.319-5.319h37.152a5.32 5.32 0 0 1 5.319 5.319z" fill="#13bd79"></path><path d="M422.99 178.338v35.599a5.32 5.32 0 0 1-5.319 5.319h-37.152a5.32 5.32 0 0 1-5.319-5.319v-35.599a5.32 5.32 0 0 1 5.319-5.319h37.152a5.32 5.32 0 0 1 5.319 5.319z" fill="#f2f0f0"></path><path d="M103.229 256.423v35.599a5.32 5.32 0 0 1-5.319 5.319H60.758a5.32 5.32 0 0 1-5.319-5.319v-35.599a5.32 5.32 0 0 1 5.319-5.319H97.91a5.318 5.318 0 0 1 5.319 5.319z" fill="#66d5f2"></path><path d="M183.169 256.423v35.599a5.32 5.32 0 0 1-5.319 5.319h-37.152a5.32 5.32 0 0 1-5.319-5.319v-35.599a5.32 5.32 0 0 1 5.319-5.319h37.152a5.318 5.318 0 0 1 5.319 5.319zM263.11 256.423v35.599a5.32 5.32 0 0 1-5.319 5.319h-37.152a5.32 5.32 0 0 1-5.319-5.319v-35.599a5.32 5.32 0 0 1 5.319-5.319h37.152a5.318 5.318 0 0 1 5.319 5.319z" fill="#f2f0f0"></path><path d="M343.05 256.423v35.599a5.32 5.32 0 0 1-5.319 5.319h-37.152a5.32 5.32 0 0 1-5.319-5.319v-35.599a5.32 5.32 0 0 1 5.319-5.319h37.152a5.318 5.318 0 0 1 5.319 5.319z" fill="#13bd79"></path><path d="M422.99 256.423v35.599a5.32 5.32 0 0 1-5.319 5.319h-37.152a5.32 5.32 0 0 1-5.319-5.319v-35.599a5.32 5.32 0 0 1 5.319-5.319h37.152a5.318 5.318 0 0 1 5.319 5.319zM103.229 334.507v35.599a5.32 5.32 0 0 1-5.319 5.319H60.758a5.32 5.32 0 0 1-5.319-5.319v-35.599a5.32 5.32 0 0 1 5.319-5.319H97.91a5.32 5.32 0 0 1 5.319 5.319z" fill="#f2f0f0"></path><path d="M183.169 334.507v35.599a5.32 5.32 0 0 1-5.319 5.319h-37.152a5.32 5.32 0 0 1-5.319-5.319v-35.599a5.32 5.32 0 0 1 5.319-5.319h37.152a5.318 5.318 0 0 1 5.319 5.319z" fill="#ffce29"></path><path d="M263.11 334.507v35.599a5.32 5.32 0 0 1-5.319 5.319h-37.152a5.32 5.32 0 0 1-5.319-5.319v-35.599a5.32 5.32 0 0 1 5.319-5.319h37.152a5.32 5.32 0 0 1 5.319 5.319z" fill="#f2f0f0"></path><path d="M106.87 79.545c0 13.351-10.798 24.15-24.149 24.15-13.298 0-24.096-10.798-24.096-24.15 0-13.298 10.798-24.096 24.096-24.096 13.35 0 24.149 10.798 24.149 24.096z" fill="#5b5b5b"></path><path d="M94.514 11.778V74.42c0 6.499-5.268 11.767-11.767 11.767S70.98 80.919 70.98 74.42V11.778C70.98 5.279 76.248.011 82.747.011c6.498 0 11.767 5.268 11.767 11.767z" fill="#f2f0f0"></path><path d="M419.805 79.545c0 13.351-10.798 24.15-24.149 24.15-13.298 0-24.096-10.798-24.096-24.15 0-13.298 10.798-24.096 24.096-24.096 13.351 0 24.149 10.798 24.149 24.096z" fill="#5b5b5b"></path><path d="M407.449 11.778V74.42c0 6.499-5.268 11.767-11.767 11.767s-11.767-5.268-11.767-11.767V11.778c0-6.499 5.268-11.767 11.767-11.767s11.767 5.268 11.767 11.767z" fill="#f2f0f0"></path><circle cx="407.449" cy="414.096" fill="#6d6d6d" r="97.894" transform="rotate(-67.48 407.6 414.003)"></circle><circle cx="407.449" cy="414.09" fill="#66d5f2" r="78.072" transform="rotate(-67.48 407.6 413.998)"></circle><path d="M385.932 435.606a3.988 3.988 0 0 1 0-5.641l17.526-17.526v-51.057a3.99 3.99 0 0 1 7.978 0v52.709c0 1.06-.421 2.073-1.169 2.821l-18.695 18.695a3.986 3.986 0 0 1-5.64-.001z" fill="#f2f0f0"></path><path d="M40.097 71.878v23.148a8.687 8.687 0 0 1-8.687 8.687 8.687 8.687 0 0 1-8.687-8.687V71.878a8.687 8.687 0 0 1 8.687-8.687 8.687 8.687 0 0 1 8.687 8.687z" fill="#ffffff" opacity=".4"></path></g></svg>