<svg viewBox="0 0 74 74" xmlns="http://www.w3.org/2000/svg"><g><path d="M35.45 8.48v31.1c0 2.26-1.84 4.1-4.1 4.1H7.89c-2.26 0-4.09-1.84-4.09-4.1V8.48c0-2.26 1.83-4.09 4.09-4.09h23.46c2.26 0 4.1 1.83 4.1 4.09z" fill="#cdd8de"></path><path d="M12.3 36.96c-.25 0-.5-.09-.7-.28l-2.5-2.44a.996.996 0 0 1-.02-1.41c.38-.4 1.02-.4 1.41-.02l1.79 1.74 4.5-4.54a.996.996 0 1 1 1.42 1.4l-5.19 5.24c-.2.21-.45.31-.71.31zM12.3 27.62c-.25 0-.5-.09-.7-.28L9.1 24.9a.996.996 0 0 1-.02-1.41c.38-.4 1.02-.4 1.41-.02l1.79 1.74 4.5-4.54a.996.996 0 1 1 1.42 1.4l-5.19 5.24c-.2.21-.45.31-.71.31zM12.3 18.27c-.25 0-.5-.09-.7-.28l-2.5-2.43a.996.996 0 1 1 1.39-1.43l1.79 1.74 4.5-4.54a.996.996 0 1 1 1.42 1.4l-5.19 5.24c-.2.2-.45.3-.71.3z" fill="#ba4124"></path><g fill="#bac2c5"><path d="M29.45 33.42H21.7c-.55 0-1-.45-1-1s.45-1 1-1h7.75c.55 0 1 .45 1 1s-.45 1-1 1zM29.45 37.03H21.7c-.55 0-1-.45-1-1s.45-1 1-1h7.75c.55 0 1 .45 1 1s-.45 1-1 1zM29.45 23.45H21.7c-.55 0-1-.45-1-1s.45-1 1-1h7.75c.55 0 1 .45 1 1s-.45 1-1 1zM29.45 27.06H21.7c-.55 0-1-.45-1-1s.45-1 1-1h7.75c.55 0 1 .45 1 1s-.45 1-1 1zM29.45 13.49H21.7c-.55 0-1-.45-1-1s.45-1 1-1h7.75c.55 0 1 .45 1 1s-.45 1-1 1zM29.45 17.1H21.7c-.55 0-1-.45-1-1s.45-1 1-1h7.75c.55 0 1 .45 1 1s-.45 1-1 1z" fill="#bac2c5"></path></g><path d="M48.35 59.4 46.3 69.61H29.66v-9.09c0-5 3.76-9.19 8.73-9.72.02 0 .04-.01.07-.01l8.9 6.8zM51.51 59.4l2.06 10.21H70.2v-9.09c0-5-3.76-9.19-8.73-9.72-.02 0-.04-.01-.07-.01l-8.9 6.8z" fill="#34505e"></path><path d="m57.19 48.86-7.25 6h-.01v-.01l-6.98-5.76c.85-.6 1.61-1.33 2.24-2.17 1.36.98 2.99 1.56 4.74 1.56s3.37-.58 4.73-1.56h.01c.55.74 1.5 1.39 2.52 1.94z" fill="#f2c58f"></path><path d="m49.98 54.85-2.57 2.74-8.9-6.8c1.34-.15 2.61-.57 3.75-1.23.26-.15.5-.31.74-.47zM61.44 50.79l-8.89 6.8-1.33-1.41-.49-.53-.75-.79 7.25-6 .01.01z" fill="#779c3f"></path><path d="m52.5 57.59-.99 1.81h-3.16l-.99-1.81 2.57-2.74z" fill="#bac2c5"></path><path d="M53.62 69.61h-7.28l2.05-10.21h3.16z" fill="#779c3f"></path><path d="M60.91 39.59c-.21 1.39-1.49 2.3-2.06 2.66-.68 2.14-2.01 4.01-3.75 5.27-1.71 1.14-3.44 1.7-5.17 1.7-1.71 0-3.43-.56-5.14-1.68-1.77-1.28-3.09-3.14-3.77-5.29-.58-.35-1.85-1.27-2.06-2.64-.15-1.04.07-2.06.58-2.74.34-.44.77-.71 1.25-.77.04-.15.08-.31.13-.45.07-.18.2-.34.37-.42s.38-.09.57-.03c5.42 1.93 10.7 1.92 16.14-.06.19-.07.4-.06.58.04.18.09.31.26.37.45.04.16.09.32.13.48.01 0 .01 0 .02.01.63.08 1.2.55 1.53 1.29.28.61.39 1.39.28 2.18z" fill="#ffd9a3"></path><path d="M59.46 32.13h1.39c.69 0 1.25-.63 1.11-1.31-.87-4.46-6.15-7.89-12.02-7.89-5.89 0-11.15 3.43-12.02 7.89-.14.68.41 1.31 1.11 1.31h1.39c6.13-1.39 12.47-1.48 19.04 0z" fill="#0d2d44"></path><path d="M40.4 34.24c0 4.26 19.06 4.03 19.06 0-6.29-2.84-12.64-2.78-19.06 0z" fill="#0d2d44"></path><path d="m51.51 34.53-.67.65.16.92c.01.06-.01.12-.07.16-.05.04-.12.04-.17.01l-.82-.43-.82.43c-.02.01-.05.02-.08.02s-.07-.01-.1-.03c-.05-.04-.08-.1-.07-.16l.16-.92-.66-.65c-.04-.04-.06-.11-.04-.17s.07-.1.13-.11l.92-.14.41-.83c.03-.06.09-.09.15-.09s.12.04.15.09l.41.83.92.14c.06.01.11.05.13.11s0 .13-.04.17zM47.27 34.53l-.67.65.16.92c.01.06-.01.12-.07.16-.05.04-.12.04-.17.01l-.82-.43-.82.43c-.02.01-.05.02-.08.02s-.07-.01-.1-.03c-.05-.04-.08-.1-.07-.16l.16-.92-.66-.65c-.04-.04-.06-.11-.04-.17s.07-.1.13-.11l.92-.14.41-.83c.03-.06.09-.09.15-.09s.12.04.15.09l.41.83.92.14c.06.01.11.05.13.11s0 .13-.04.17zM55.73 34.53l-.67.65.16.92c.01.06-.01.12-.07.16-.05.04-.12.04-.17.01l-.82-.43-.82.43c-.02.01-.05.02-.08.02s-.07-.01-.1-.03c-.05-.04-.08-.1-.07-.16l.16-.92-.66-.65c-.04-.04-.06-.11-.04-.17s.07-.1.13-.11l.92-.14.4-.83c.03-.06.09-.09.15-.09s.12.04.15.09l.41.83.92.14c.06.01.11.05.13.11.03.06.01.13-.03.17z" fill="#f2cd58"></path><path d="M59.46 30.82v3.42c-6.35-2.34-12.7-2.34-19.06 0v-3.42c1.19-2.71 18.27-2.42 19.06 0z" fill="#cdd8de"></path><path d="M39.95 59.86v2.9c0 1.56-1.12 2.82-2.5 2.82-.69 0-1.32-.32-1.77-.82-.45-.51-.73-1.21-.73-1.99v-2.9s.5.95 1.25.98c.57.03 1.06-.38 1.2-.9.03-.11.06-.11.09 0 .15.52.63.89 1.2.9.91.01 1.26-.99 1.26-.99z" fill="#f2cd58"></path><path d="m37.45 61.39.3.92h.96l-.78.56.3.92-.78-.56-.79.56.3-.92-.78-.56h.97z" fill="#ba4124"></path></g></svg>