<svg viewBox="0 0 60 60" xmlns="http://www.w3.org/2000/svg"><g><path d="M26.08 48.15C24.71 49.57 24 51.2 24 53c0 1.1.9 2 2 2 .88 0 1.64-.58 1.9-1.38L29 48z" fill="#b52d4e"></path><path d="M27.13 11.96C21.08 11.4 21.71 5 15.02 5 10.81 5 5.89 8.5 2.06 9.61c-1.17.33-1.43 1.86-.48 2.61.91.71 2.31 1.21 4.45.78 0 0 1 3 4.99 2 0 0 2 2 5.99 1 0 0 1.273 1 2.99 1 2.105 0 3.01-1 3.01-1H28v-4zM32 16h4.99s.905 1 3.01 1c1.718 0 2.99-1 2.99-1 3.99 1 5.99-1 5.99-1 3.99 1 4.99-2 4.99-2 2.14.43 3.54-.07 4.45-.78.95-.75.69-2.28-.48-2.61C54.11 8.5 49.19 5 44.98 5c-6.69 0-6.06 6.4-12.11 6.96L32 12z" fill="#d83957"></path><path d="M32.95 7.7h-5.9l.91 49.3a2.04 2.04 0 0 0 4.08 0l.148-7.993 1.732-.857-1.649-3.65z" fill="#f9415b"></path><path d="M21.07 38.53c-.68.96-1.07 2.12-1.07 3.38 0 2.63 1.77 4.96 4.3 5.68.63.18 1.22.36 1.78.56 1.61.57 2.94 1.22 3.92 1.92 1.3.92 2 1.92 2 2.93 0 1.1.9 2 2 2s2-.9 2-2c0-1.8-.71-3.43-2.08-4.85-.98-1-2.29-1.91-3.92-2.7-1.33-.65-2.87-1.22-4.61-1.71-.83-.23-1.39-.97-1.39-1.83 0-1.05.86-1.91 1.91-1.91z" fill="#d83957"></path><circle cx="30" cy="5" fill="#d83957" r="4"></circle><path d="M35 28h2c1.1 0 2-.9 2-2s-.9-2-2-2h-3c-1.1 0-2-.9-2-2s.9-2 2-2h3c3.31 0 6 2.69 6 6 0 2.12-1.1 3.98-2.77 5.05z" fill="#b52d4e"></path><path d="M38.93 38.53A5.972 5.972 0 0 0 41 34c0-3.31-2.69-6-6-6H23c-1.1 0-2-.9-2-2s.9-2 2-2h3c1.1 0 2-.9 2-2s-.9-2-2-2h-3c-3.31 0-6 2.69-6 6 0 2.13 1.11 4 2.78 5.06v1.21l3.031 1.08S23.254 32 25 32h10c1.1 0 2 .9 2 2s-.9 2-2 2h-.91z" fill="#d83957"></path><path d="M40 41.91c0 2.63-1.77 4.96-4.3 5.68-.63.18-1.22.36-1.78.56-.48-.49-1.04-.96-1.69-1.41l.04-2.24c.73-.28 1.51-.53 2.34-.76S36 42.77 36 41.91c0-1.05-.86-1.91-1.91-1.91H25c-1.51 0-2.88-.55-3.93-1.47A5.972 5.972 0 0 1 19 34c0-1.07.28-2.07.78-2.94.93.6 2.03.94 3.22.94h2c-1.1 0-2 .9-2 2s.9 2 2 2h9.09c2 0 3.78 1 4.84 2.53.68.96 1.07 2.12 1.07 3.38z" fill="#b52d4e"></path></g></svg>