<svg height="512pt" viewBox="0 -10 512.00054 512" width="512pt" xmlns="http://www.w3.org/2000/svg"><path d="m404.941406 491.714844-36.761718-124.984375-30.160157-34-59.203125 47.699219 43.699219 111.285156zm0 0" fill="#faccae"/><path d="m371.65625 378.558594-3.476562-11.828125-30.160157-34-59.203125 47.699219 17.675782 45.015624c27.210937-15.226562 52.277343-30.871093 75.164062-46.886718zm0 0" fill="#f6af8c"/><path d="m107.058594 491.714844 36.761718-124.984375 30.160157-34 59.207031 47.699219-43.703125 111.285156zm0 0" fill="#faccae"/><path d="m140.34375 378.558594 3.476562-11.828125 30.160157-34 59.203125 47.699219-17.675782 45.015624c-27.210937-15.226562-52.277343-30.871093-75.164062-46.886718zm0 0" fill="#f6af8c"/><path d="m256 53.617188c-177.003906-172.984376-470.207031 106.757812-8.695312 354.011718 5.425781 2.90625 11.964843 2.90625 17.390624 0 461.511719-247.253906 168.308594-526.996094-8.695312-354.011718zm0 0" fill="#ed697f"/><path d="m154.503906 1.421875c-156.441406-21.421875-285.878906 203.328125 92.800782 406.207031 5.425781 2.90625 11.964843 2.90625 17.390624 0 4.027344-2.160156 7.992188-4.320312 11.910157-6.484375-330.917969-182.863281-254.9375-381.113281-122.101563-399.722656zm0 0" fill="#e43c55"/><g fill="#3a484a"><path d="m160.195312 215.640625c-4.265624 0-7.726562-3.457031-7.726562-7.726563v-17.335937c0-4.269531 3.460938-7.726563 7.726562-7.726563 4.269532 0 7.726563 3.457032 7.726563 7.726563v17.335937c0 4.269532-3.457031 7.726563-7.726563 7.726563zm0 0"/><path d="m351.804688 215.640625c-4.269532 0-7.726563-3.457031-7.726563-7.726563v-17.335937c0-4.269531 3.457031-7.726563 7.726563-7.726563 4.265624 0 7.726562 3.457032 7.726562 7.726563v17.335937c0 4.269532-3.460938 7.726563-7.726562 7.726563zm0 0"/><path d="m256 224.898438c-11.445312 0-22.183594-4.777344-29.464844-13.105469-2.808594-3.210938-2.480468-8.09375.734375-10.902344 3.214844-2.808594 8.09375-2.480469 10.902344.734375 4.34375 4.96875 10.839844 7.820312 17.828125 7.820312 6.984375 0 13.484375-2.851562 17.828125-7.820312 2.808594-3.214844 7.691406-3.542969 10.902344-.734375 3.210937 2.808594 3.542969 7.691406.730469 10.902344-7.277344 8.328125-18.015626 13.105469-29.460938 13.105469zm0 0"/></g><path d="m400.449219 491.714844h59.597656l-70.394531-179.261719c-5.597656-14.257813-21.695313-21.277344-35.953125-15.679687-14.257813 5.601562-21.277344 21.699218-15.679688 35.957031zm0 0" fill="#faccae"/><path d="m111.550781 491.714844h-59.597656l70.394531-179.261719c5.597656-14.257813 21.695313-21.277344 35.957032-15.679687 14.257812 5.601562 21.277343 21.699218 15.675781 35.957031zm0 0" fill="#faccae"/></svg>