<svg viewBox="0 0 512 512" xmlns="http://www.w3.org/2000/svg"><g><circle cx="256" cy="256" fill="#f8f6f6" r="229.034"></circle><path d="M211.89 335.977h-54.887c-18.935 0-34.284-15.35-34.284-34.284v-91.388c0-18.935 15.35-34.284 34.284-34.284h54.887l9.076 79.978z" fill="#7a8c98"></path><path d="m220.965 255.997-9.078 79.98h-54.884c-18.942 0-34.292-15.35-34.292-34.284v-24.412c0 8.819 15.35 15.971 34.292 15.971h54.884z" fill="#596c76"></path><circle cx="289.729" cy="255.999" fill="#7a8c98" r="61.552"></circle><path d="M351.281 255.999c0 33.993-27.556 61.549-61.549 61.549s-61.549-27.556-61.549-61.549a61.42 61.42 0 0 1 3.325-19.995c8.292 24.176 31.227 41.554 58.225 41.554s49.933-17.378 58.225-41.554a61.472 61.472 0 0 1 3.323 19.995z" fill="#596c76"></path><path d="m267.753 401.045-55.862-65.068V176.021l55.862-65.068c16.913-19.7 49.207-7.739 49.207 18.225V382.82c0 25.965-32.294 37.925-49.207 18.225z" fill="#8abbd5"></path><path d="M316.962 315.084v67.742c0 25.961-32.295 37.923-49.209 18.219l-55.859-65.062v-42.725l55.859 30.315c16.914 9.172 49.209 3.599 49.209-8.489z" fill="#6cabca"></path><path d="M256 0C114.608 0 0 114.618 0 256s114.608 256 256 256c141.382 0 256-114.618 256-256S397.382 0 256 0zm0 464.22c-114.999 0-208.22-93.221-208.22-208.22 0-48.861 16.823-93.777 45.009-129.298l292.51 292.51C349.777 447.397 304.861 464.22 256 464.22zm163.212-78.922L242.845 208.931l-32.914-32.914-83.228-83.228C162.223 64.603 207.139 47.78 256 47.78c114.999 0 208.22 93.221 208.22 208.22 0 48.861-16.823 93.777-45.008 129.298z" fill="#fe646f"></path><g fill="#fd4755"><path d="m329.586 295.672-12.63-12.63L209.93 176.017H157c-4.42 0-8.654.834-12.527 2.369l172.483 172.483v-43.867a61.923 61.923 0 0 0 12.63-11.33z" fill="#fd4755"></path><path d="M25.662 256C25.662 118.914 133.409 6.995 268.836.319 264.581.103 260.306 0 256 0 114.608 0 0 114.618 0 256s114.608 256 256 256c4.306 0 8.581-.103 12.836-.319C133.408 505.005 25.662 393.086 25.662 256z" fill="#fd4755"></path></g></g></svg>