<svg viewBox="0 0 53 53" xmlns="http://www.w3.org/2000/svg"><g><path d="M29.59 25.78v24.627H7.745V25.78c.316-.124.652-.23.987-.306l4.266-1.007 5.626-1.342.048-.01.058.01 5.607 1.333 1.371.326 2.914.69c.336.076.661.182.968.306z" fill="#5b5e8b"></path><path d="m24.335 24.455-2.404 7.52-3.259-2.312-3.259 2.312L13 24.464l5.627-1.337h.102l5.607 1.328z" fill="#deddff"></path><path d="M22.558 22.299v2.959a3.7 3.7 0 0 1-3.691 3.699c-1.99 0-3.7-1.596-3.7-3.7V22.3z" fill="#ffaf93"></path><path d="m17.406 27.853.02.02c.54.54 1.23.92 2.03 1.03-.19.04-.39.05-.59.05-2.042 0-3.7-1.64-3.7-3.69v-1.8c2.362 1.519 5.263 1.408 7.39 0v1.18c-1.38.727-2.96.991-4.06.9-1.23-.06-1.96 1.44-1.09 2.31z" fill="#ee8778"></path><path d="M25.634 9.811v7.983a6.77 6.77 0 1 1-13.542 0V9.811z" fill="#ffaf93"></path><path d="M27.078 7.837v8.516h-1.443V9.81h-13.54v6.543h-1.482V7.837z" fill="#8b4f4f"></path><path d="M28.016 16.054a2.384 2.384 0 0 1-2.392 2.391v-4.77a2.381 2.381 0 0 1 2.392 2.379z" fill="#ffaf93"></path><path d="M26.262 13.77a2.393 2.393 0 0 0-.638-.095v4.77c.223 0 .434-.04.638-.095zM14.062 9.11v8.681c0 3.394 2.51 6.23 5.788 6.704a6.775 6.775 0 0 1-7.756-6.704v.656a2.389 2.389 0 0 1-1.487-4.263c.412-.32.923-.511 1.487-.511V9.11zM19.399 16.882v.967a.594.594 0 1 1-1.188 0v-.967a.594.594 0 1 1 1.188 0z" fill="#ee8778"></path><path d="M16.742 19.667a2.167 2.167 0 0 0 4.233 0z" fill="#ee8778"></path><path d="M16.946 14.503a1.397 1.397 0 0 0-2.73 0zM23.51 14.503a1.397 1.397 0 0 0-2.73 0z" fill="#312e4b"></path><path d="M27.078 7.48v1.695c-3.685 6.63-16.465 0-16.465 0V7.933c0-1.222.453-2.415 1.338-3.252 4.61-4.398 10.297-.482 10.297-.482s2.954-1.24 4.34 1.213c.355.625.49 1.347.49 2.069z" fill="#ab604b"></path><path d="M14.109 3.225A7.6 7.6 0 0 0 11.95 4.68c-.885.837-1.338 2.03-1.338 3.252v1.242s1.443.747 3.496 1.488z" fill="#8b4f4f"></path><path d="m24.335 24.454 2.592 6.131h-2.592l1.586 2.592-7.253 8.975zM13 24.454l-2.59 6.131H13l-1.585 2.592 7.253 8.975z" fill="#312e4b"></path><path d="M21.93 31.975 18.673 42.15l-3.259-10.175 3.26-2.312z" fill="#c6c6f7"></path><path d="m19.433 32.216.511 5.951-1.272 3.983-1.272-3.983.51-5.95-.76-1.477 1.522-1.077 1.513 1.077z" fill="#e83d62"></path><path d="M7.745 25.78v19.914a2.396 2.396 0 0 1-2.396 2.397h-.01a2.396 2.396 0 0 1-2.396-2.397V32.787a7.506 7.506 0 0 1 4.802-7.007zM34.392 32.787v17.62H29.59V25.78a7.51 7.51 0 0 1 4.802 7.007z" fill="#312e4b"></path><path d="M18.863 43.288v4.803H5.343a2.401 2.401 0 0 1 0-4.802z" fill="#312e4b"></path><path d="M21.575 31.17a2.77 2.77 0 1 1-5.54 0 2.77 2.77 0 0 1 5.54 0z" fill="#5b5e8b"></path><path d="M21.265 32.442a2.77 2.77 0 0 1-5.23-1.27c0-1.07.61-2 1.5-2.46-.943 1.792.352 4.04 2.46 4.04.46 0 .89-.11 1.27-.31z" fill="#312e4b"></path><path d="M20.295 34.362v10.68c0 .82-.67 1.49-1.49 1.49s-1.49-.67-1.49-1.49v-10.68z" fill="#deddff"></path><path d="M19.295 46.442c-.15.06-.32.09-.49.09-.82 0-1.49-.67-1.49-1.49v-10.68h.97v10.68c0 .65.42 1.21 1.01 1.4z" fill="#c6c6f7"></path><path d="M22.445 34.09v4.943a.749.749 0 0 1-.749.749h-5.782a.749.749 0 0 1-.75-.75V34.09c0-.413.336-.748.75-.748h5.782c.414 0 .749.335.749.748z" fill="#e83d62"></path><path d="M17.555 39.782h-1.64c-.41 0-.75-.34-.75-.75v-4.94c0-.41.34-.75.75-.75h1.64c-.41 0-.74.34-.74.75v4.94c0 .41.33.75.74.75z" fill="#ce2955"></path><path d="m21.505 35.47-1.02 2.48c-.08.18-.21.22-.3.22h-.09c-.09 0-.22-.04-.3-.22l-1.02-2.48c-.062-.187.04-.33.22-.33.107 0 .182.065.22.16l.93 2.31.92-2.31c.078-.194.29-.199.4-.09.069.069.075.207.04.26zM18.545 35.39c0 .145-.104.22-.22.22h-.79v2.32c0 .137-.123.24-.24.24a.239.239 0 0 1-.24-.24v-2.32h-.79a.223.223 0 0 1-.23-.22c0-.1.089-.23.23-.23h2.06c.138 0 .22.11.22.23z" fill="#deddff"></path><circle cx="18.305" cy="45.689" fill="#ffaf93" r="2.957"></circle><path d="M21.128 46.562a2.957 2.957 0 0 1-5.78-.873c0-1.322.882-2.453 2.08-2.818a2.913 2.913 0 0 0-.134.873 2.956 2.956 0 0 0 3.834 2.818z" fill="#ee8778"></path><path d="M46.397 4.21v16.981c0 .613-.488 1.101-1.1 1.101H31.592a1.095 1.095 0 0 1-1.101-1.1V4.21c0-.613.488-1.113 1.101-1.113h13.703c.613 0 1.101.5 1.101 1.113z" fill="#deddff"></path><path d="M33.092 22.293h-1.5c-.61 0-1.1-.49-1.1-1.1V4.213c0-.62.49-1.12 1.1-1.12h1.5c-.61 0-1.1.5-1.1 1.12v16.98c0 .61.49 1.1 1.1 1.1zM43.752 8.792c0 .18-.143.33-.33.33h-9.955a.329.329 0 0 1-.33-.33.33.33 0 0 1 .33-.337h9.956c.186 0 .33.15.33.337zM43.752 10.56c0 .18-.143.33-.33.33h-9.955a.329.329 0 0 1-.33-.33.33.33 0 0 1 .33-.337h9.956c.186 0 .33.15.33.337zM43.752 12.329c0 .179-.143.33-.33.33h-9.955a.329.329 0 0 1-.33-.33.33.33 0 0 1 .33-.337h9.956c.186 0 .33.15.33.337zM43.752 14.097c0 .18-.143.33-.33.33h-9.955a.329.329 0 0 1-.33-.33.33.33 0 0 1 .33-.337h9.956c.186 0 .33.15.33.337zM43.752 15.865c0 .18-.143.33-.33.33h-9.955a.329.329 0 0 1-.33-.33.33.33 0 0 1 .33-.337h9.956c.186 0 .33.15.33.337z" fill="#c6c6f7"></path><path d="M43.752 14.097c0 .18-.143.33-.33.33h-9.955a.329.329 0 0 1-.33-.33.33.33 0 0 1 .33-.337h9.956c.186 0 .33.15.33.337zM43.752 15.865c0 .18-.143.33-.33.33h-9.955a.329.329 0 0 1-.33-.33.33.33 0 0 1 .33-.337h9.956c.186 0 .33.15.33.337zM43.752 17.633c0 .18-.143.33-.33.33h-9.955a.329.329 0 0 1-.33-.33.33.33 0 0 1 .33-.337h9.956c.186 0 .33.151.33.337zM43.752 19.402c0 .179-.143.33-.33.33h-9.955a.329.329 0 0 1-.33-.33.33.33 0 0 1 .33-.337h9.956c.186 0 .33.15.33.337z" fill="#c6c6f7"></path><path d="M42.352 5.573v1.142a.41.41 0 0 1-.414.415h-6.549a.416.416 0 0 1-.414-.415V5.573c0-.222.192-.414.414-.414h6.549c.232 0 .414.192.414.414z" fill="#e83d62"></path><path d="M38.15 7.133h-2.765a.425.425 0 0 1-.413-.413V5.569c0-.213.2-.413.413-.413h2.766c-.226 0-.413.2-.413.413v1.15c0 .226.187.414.413.414z" fill="#ce2955"></path><path d="m43.464 16.472 3.643-9.316 2.362.923-3.643 9.317z" fill="#3e7fff"></path><path d="m44.647 16.934 3.642-9.316 1.182.462-3.643 9.316z" fill="#65b9ff"></path><path d="m47.607 5.882-.28.718 2.363.923.28-.717a1.27 1.27 0 0 0-2.363-.924z" fill="#312e4b"></path><path d="m43.473 16.458.082 3.274 2.28-2.35z" fill="#ffaf93"></path><path d="m44.428 18.832-.873.9-.031-1.253z" fill="#312e4b"></path><path d="m47.11 7.154.21-.538 2.362.924-.21.538z" fill="#deddff"></path></g></svg>