<svg viewBox="0 0 512 512" xmlns="http://www.w3.org/2000/svg"><g><path d="M432 288H80c-17.673 0-32-14.327-32-32 0-17.673 14.327-32 32-32h352c17.673 0 32 14.327 32 32 0 17.673-14.327 32-32 32z" fill="#5faa46"></path><path d="M400 288H80c-17.673 0-32-14.327-32-32s14.327-32 32-32h320c17.673 0 32 14.327 32 32s-14.327 32-32 32z" fill="#91c83c"></path><path d="M272 368h-32c-17.673 0-32 14.327-32 32v16c0 17.673 14.327 32 32 32h32c17.673 0 32-14.327 32-32v-16c0-17.673-14.327-32-32-32z" fill="#5faa46"></path><path d="M240 448c-17.673 0-32-14.327-32-32v-16c0-17.673 14.327-32 32-32s32 14.327 32 32v16c0 17.673-14.327 32-32 32z" fill="#91c83c"></path><path d="M272 64h-32c-17.673 0-32 14.327-32 32v16c0 17.673 14.327 32 32 32h32c17.673 0 32-14.327 32-32V96c0-17.673-14.327-32-32-32z" fill="#5faa46"></path><path d="M240 144c-17.673 0-32-14.327-32-32V96c0-17.673 14.327-32 32-32s32 14.327 32 32v16c0 17.673-14.327 32-32 32z" fill="#91c83c"></path></g></svg>