<svg id="Icons" height="512" viewBox="0 0 60 60" width="512" xmlns="http://www.w3.org/2000/svg"><rect fill="#ec3a48" height="16" rx="3" width="44" x="8" y="1"/><rect fill="#faa116" height="16" rx="3" width="40" x="10" y="22"/><rect fill="#31b791" height="16" rx="3" width="36" x="12" y="43"/><g fill="#f0f2f5"><path d="m28 12a1 1 0 0 0 0 2h4a1 1 0 0 0 0-2h-1v-7a1 1 0 0 0 -1.707-.707l-2 2a1 1 0 0 0 1.414 1.414l.293-.293v4.586z"/><path d="m33 33h-2.719c1.61-1.186 2.719-2.433 2.719-4.5a3.5 3.5 0 0 0 -7 0 1 1 0 0 0 2 0 1.5 1.5 0 0 1 3 0c0 1.617-1.1 2.406-3.6 4.038-.3.2-.625.409-.957.63a1 1 0 0 0 .557 1.832h6a1 1 0 0 0 0-2z"/><path d="m30 46a3.01 3.01 0 0 0 -2.6 1.5 1 1 0 0 0 1.731 1 1 1 0 1 1 .869 1.5 1 1 0 0 0 0 2 1 1 0 1 1 -.867 1.5 1 1 0 0 0 -1.731 1 3 3 0 1 0 4.832-3.5 3 3 0 0 0 -2.234-5z"/></g></svg>