<svg viewBox="0 0 497 497" xmlns="http://www.w3.org/2000/svg"><g><path d="m497 189.492-254.185-10L0 189.492v38.987l248.5 10 248.5-10z" fill="#eda579"></path><path d="M467 189.492v38.987l15 10 15-10v-38.987l-15-10z" fill="#d99061"></path><path d="M497 317.615 254.185 304.46 0 317.615v35.833l254.185 10 242.815-10z" fill="#d17e47"></path><path d="M487.612 442.583H9.388A9.388 9.388 0 0 1 0 433.195v-79.747h497v79.747a9.388 9.388 0 0 1-9.388 9.388z" fill="#975220"></path><path d="M467 317.615v35.833l15 10 15-10v-35.833l-15-13.155z" fill="#bd6629"></path><path d="M467 353.448v89.135h20.612a9.388 9.388 0 0 0 9.388-9.388v-79.747z" fill="#8a4a1e"></path><path d="M481.217 54.417H15.783C7.066 54.417 0 61.483 0 70.199v23.205l248.5 20 248.5-20V70.199c0-8.716-7.066-15.782-15.783-15.782z" fill="#acd980"></path><path d="M0 93.404h497v96.087H0z" fill="#d17e47"></path><path d="M497 317.615H0v-89.136h497z" fill="#bd6629"></path><path d="M467 54.417v38.988l15 20 15-20V70.199c0-8.717-7.066-15.783-15.783-15.783H467z" fill="#9cd169"></path><path d="M467 93.404h30v96.087h-30z" fill="#bd6629"></path><path d="M467 228.479v89.136h30v-89.136z" fill="#975220"></path><circle cx="113" cy="140.222" fill="#eda579" r="7.5"></circle><circle cx="70.333" cy="129.555" fill="#eda579" r="7.5"></circle><circle cx="155.667" cy="129.555" fill="#eda579" r="7.5"></circle><circle cx="198.333" cy="140.222" fill="#eda579" r="7.5"></circle><circle cx="241" cy="129.555" fill="#eda579" r="7.5"></circle><circle cx="291.167" cy="140.222" fill="#eda579" r="7.5"></circle><circle cx="333.833" cy="129.555" fill="#eda579" r="7.5"></circle><circle cx="376.5" cy="140.222" fill="#eda579" r="7.5"></circle><circle cx="419.167" cy="129.555" fill="#eda579" r="7.5"></circle><circle cx="113" cy="399.79" fill="#eda579" r="7.5"></circle><circle cx="70.333" cy="389.123" fill="#eda579" r="7.5"></circle><circle cx="155.667" cy="389.123" fill="#eda579" r="7.5"></circle><circle cx="198.333" cy="399.79" fill="#eda579" r="7.5"></circle><circle cx="241" cy="389.123" fill="#eda579" r="7.5"></circle><circle cx="291.167" cy="399.79" fill="#eda579" r="7.5"></circle><circle cx="333.833" cy="389.123" fill="#eda579" r="7.5"></circle><circle cx="376.5" cy="399.79" fill="#eda579" r="7.5"></circle><circle cx="419.167" cy="389.123" fill="#eda579" r="7.5"></circle><path d="M38.969 296.207a7.5 7.5 0 0 1-5.304-12.803l29.309-29.309a7.5 7.5 0 0 1 10.607 10.606L44.272 294.01a7.474 7.474 0 0 1-5.303 2.197zM94.648 296.207a7.5 7.5 0 0 1-5.304-12.803l29.309-29.309a7.5 7.5 0 0 1 10.607 10.606L99.951 294.01a7.474 7.474 0 0 1-5.303 2.197zM150.327 296.207a7.5 7.5 0 0 1-5.304-12.804l29.31-29.309a7.501 7.501 0 0 1 10.607 10.607l-29.309 29.309a7.478 7.478 0 0 1-5.304 2.197zM206.007 296.207a7.5 7.5 0 0 1-5.304-12.803l29.309-29.309a7.5 7.5 0 0 1 10.607 10.606L211.31 294.01a7.476 7.476 0 0 1-5.303 2.197zM261.685 296.207a7.5 7.5 0 0 1-5.304-12.803l29.309-29.309a7.502 7.502 0 0 1 10.608 0 7.5 7.5 0 0 1 0 10.606l-29.309 29.309a7.478 7.478 0 0 1-5.304 2.197zM317.364 296.207a7.5 7.5 0 0 1-5.304-12.803l29.309-29.309a7.5 7.5 0 0 1 10.607 10.606l-29.309 29.309a7.474 7.474 0 0 1-5.303 2.197zM373.043 296.207a7.5 7.5 0 0 1-5.304-12.804l29.309-29.309a7.5 7.5 0 1 1 10.608 10.607l-29.31 29.309a7.474 7.474 0 0 1-5.303 2.197zM428.722 296.207a7.5 7.5 0 0 1-5.304-12.803l29.309-29.309a7.5 7.5 0 0 1 10.607 10.606l-29.309 29.309a7.474 7.474 0 0 1-5.303 2.197z" fill="#975220"></path></g></svg>