<?xml version="1.0" encoding="iso-8859-1"?>
<!-- Generator: Adobe Illustrator 19.0.0, SVG Export Plug-In . SVG Version: 6.00 Build 0)  -->
<svg version="1.1" id="Capa_1" xmlns="http://www.w3.org/2000/svg" xmlns:xlink="http://www.w3.org/1999/xlink" x="0px" y="0px"
	 viewBox="0 0 512 512" style="enable-background:new 0 0 512 512;" xml:space="preserve">
<path style="fill:#FFCFAB;" d="M145.723,58c-0.528,3.068-0.818,6.218-0.818,9.437c0,30.575,24.798,55.362,55.389,55.362
	s55.39-24.787,55.39-55.362c0-3.219-0.29-6.369-0.818-9.437C254.866,58,145.723,58,145.723,58z"/>
<path style="opacity:0.1;enable-background:new    ;" d="M172.643,67.437c0-3.217,0.275-6.37,0.802-9.437h-27.722
	c-0.528,3.068-0.818,6.218-0.818,9.437c0,30.575,24.798,55.362,55.389,55.362c4.79,0,9.438-0.608,13.869-1.751
	C190.284,114.895,172.643,93.225,172.643,67.437z"/>
<path style="fill:#34A1D7;" d="M291.711,367.72c-1.722-11.098-8.472-24.394-16.413-32.331l-44.901-44.879H165.12l77.49,77.451
	c1.196,1.298,3.159,5.167,3.488,6.825l19.717,127.207l45.614-7.064L291.711,367.72z"/>
<path style="opacity:0.1;enable-background:new    ;" d="M268.329,374.786c-0.329-1.659-2.292-5.527-3.488-6.825l-77.49-77.451
	h-22.232l77.49,77.451c1.196,1.298,3.159,5.167,3.488,6.825l19.717,127.207l21.711-3.362L268.329,374.786z"/>
<path style="fill:#08375E;" d="M327.033,500c0.022-0.191,0.059-0.378,0.059-0.575v-12.917c0-2.792-2.285-5.075-5.078-5.075h-54.465
	c-2.793,0-5.078,2.284-5.078,5.075v12.917c0,0.197,0.036,0.384,0.059,0.575H327.033z"/>
<path style="fill:#34A1D7;" d="M153.3,290.51l0.001,49.663c-0.074,1.763-1.422,5.885-2.363,7.292L74.888,451.35l37.251,27.243
	l76.049-103.884c6.635-9.062,11.27-23.234,11.27-34.464V290.51H153.3z"/>
<path style="opacity:0.1;enable-background:new    ;" d="M153.3,290.51l0.001,49.663c-0.074,1.763-1.422,5.885-2.363,7.292
	L74.888,451.35l37.251,27.243l5.245-7.165L96.9,456.448l76.051-103.885c0.94-1.408,2.289-5.529,2.362-7.292l-0.001-54.76
	L153.3,290.51L153.3,290.51z"/>
<path style="fill:#08375E;" d="M67.451,470.365L109.796,500h9.583l7.171-10.238c1.603-2.286,1.041-5.467-1.247-7.068l-44.614-31.225
	c-2.288-1.601-5.47-1.04-7.072,1.246l-7.412,10.582C64.603,465.582,65.163,468.764,67.451,470.365z"/>
<path style="fill:#CB7C52;" d="M155.607,270.102c0,7.172-5.871,13.039-13.045,13.039h-37.829c-7.176,0-13.045-5.867-13.045-13.039
	V148.848c0-7.171,5.869-13.038,13.045-13.038h37.829c7.174,0,13.045,5.867,13.045,13.038V270.102z"/>
<g style="opacity:0.1;">
	<path d="M119.911,270.102V148.848c0-7.171,5.869-13.038,13.045-13.038h-28.223c-7.176,0-13.045,5.867-13.045,13.038v121.254
		c0,7.172,5.869,13.039,13.045,13.039h28.223C125.78,283.141,119.911,277.273,119.911,270.102z"/>
</g>
<path style="fill:#EF5A50;" d="M155.073,295.678c-2.762,0-5-2.239-5-5V157.572c0-25.036,20.378-45.404,45.427-45.404
	s45.428,20.368,45.428,45.404v133.106c0,2.761-2.238,5-5,5H155.073z"/>
<g>
	<path style="fill:#AB5436;" d="M195.5,112.168c-15.229,0-28.722,7.537-36.968,19.066c7.38-5.18,16.357-8.233,26.04-8.233
		C209.621,123,230,143.368,230,168.404v26.094c4.193-4.791,7.729-10.174,10.459-16.008c0.303,2.121,0.469,4.286,0.469,6.49v-27.408
		C240.928,132.536,220.549,112.168,195.5,112.168z"/>
	<path style="fill:#AB5436;" d="M178.815,217.737c-10.274,0-20.009-2.29-28.742-6.364v27.408c8.733,4.075,18.468,6.364,28.742,6.364
		c27.681,0,51.483-16.531,62.112-40.246V184.98c0-2.204-0.166-4.369-0.469-6.49C229.613,201.666,206.104,217.737,178.815,217.737z"
		/>
</g>
<path style="fill:#E23C38;" d="M344.615,193.333h-70.804c-8.029,0-21.481-5.569-27.158-11.244l-27.117-27.104
	c-6.759-6.756-17.72-6.756-24.48,0.001c-6.76,6.756-6.76,17.71,0,24.467l27.117,27.103c12.193,12.188,34.392,21.379,51.638,21.379
	h70.804V193.333z"/>
<g style="opacity:0.1;">
	<path d="M279.647,211.646c-17.246,0-39.444-9.191-51.638-21.379l-27.117-27.103c-2.587-2.585-4.175-5.786-4.782-9.13
		c-0.358,0.304-0.715,0.613-1.053,0.951c-6.76,6.756-6.76,17.71,0,24.467l27.117,27.103c12.193,12.188,34.392,21.379,51.638,21.379
		h70.804v-16.289h-64.969V211.646z"/>
</g>
<path style="fill:#CB7C52;" d="M367.596,500c0.139-0.588,0.216-1.248,0.216-2V180.083c0-6.358-5.156-11.513-11.518-11.513
	c-6.361,0-11.519,5.155-11.519,11.513V500H367.596z"/>
<path style="fill:#FFCFAB;" d="M371.156,230.933c0,2.791-2.285,5.076-5.078,5.076h-22.154c-2.793,0-5.078-2.284-5.078-5.076v-34.254
	c0-2.792,2.285-5.075,5.078-5.075h22.154c2.793,0,5.078,2.284,5.078,5.075V230.933z"/>
<path style="fill:#FFBB4A;" d="M125.604,272.71c0,7.171-5.87,13.038-13.045,13.038H95.602c-7.174,0-13.045-5.867-13.045-13.038
	v-48.241c0-7.171,5.871-13.039,13.045-13.039h16.958c7.175,0,13.045,5.868,13.045,13.039L125.604,272.71L125.604,272.71z"/>
<g style="opacity:0.1;">
	<path d="M99.206,272.71v-48.241c0-7.171,5.87-13.039,13.045-13.039H95.602c-7.174,0-13.045,5.868-13.045,13.039v48.241
		c0,7.171,5.871,13.038,13.045,13.038h16.649C105.076,285.748,99.206,279.881,99.206,272.71z"/>
</g>
<path style="fill:#78A7AF;" d="M485.635,512H26.365c-4.142,0-7.5-3.358-7.5-7.5s3.358-7.5,7.5-7.5h459.27c4.143,0,7.5,3.358,7.5,7.5
	S489.777,512,485.635,512z"/>
<g>
	<path style="fill:#08375E;" d="M169.455,328.139H124.45c-4.143,0-7.5-3.358-7.5-7.5s3.357-7.5,7.5-7.5h45.005
		c4.143,0,7.5,3.358,7.5,7.5S173.598,328.139,169.455,328.139z"/>
	<path style="fill:#08375E;" d="M168.3,353.513h-35.771c-4.143,0-7.5-3.358-7.5-7.5s3.357-7.5,7.5-7.5H168.3
		c4.143,0,7.5,3.358,7.5,7.5S172.442,353.513,168.3,353.513z"/>
	<path style="fill:#08375E;" d="M104.834,165.225H62.137c-4.143,0-7.5-3.358-7.5-7.5s3.357-7.5,7.5-7.5h42.697
		c4.143,0,7.5,3.358,7.5,7.5S108.977,165.225,104.834,165.225z"/>
	<path style="fill:#08375E;" d="M104.834,191.751h-28.85c-4.143,0-7.5-3.358-7.5-7.5s3.357-7.5,7.5-7.5h28.85
		c4.143,0,7.5,3.358,7.5,7.5C112.334,188.394,108.977,191.751,104.834,191.751z"/>
</g>
<path style="fill:#E23C38;" d="M300.685,48.403H256v-5.347C256,19.277,236.713,0,212.923,0h-24.94
	c-23.79,0-43.078,19.277-43.078,43.057v5.347c-4.143,0-7.5,3.358-7.5,7.5s3.357,7.5,7.5,7.5h155.781c4.143,0,7.5-3.358,7.5-7.5
	S304.828,48.403,300.685,48.403z"/>
<path style="opacity:0.1;enable-background:new    ;" d="M154,55.903c0-4.142,3.357-7.5,7.5-7.5v-5.347
	C161.5,19.277,180.788,0,204.578,0h-16.596c-23.79,0-43.078,19.277-43.078,43.057v5.347c-4.143,0-7.5,3.358-7.5,7.5
	s3.357,7.5,7.5,7.5H161.5C157.357,63.403,154,60.045,154,55.903z"/>
<g>
</g>
<g>
</g>
<g>
</g>
<g>
</g>
<g>
</g>
<g>
</g>
<g>
</g>
<g>
</g>
<g>
</g>
<g>
</g>
<g>
</g>
<g>
</g>
<g>
</g>
<g>
</g>
<g>
</g>
</svg>
