<svg viewBox="0 0 512.001 512" xmlns="http://www.w3.org/2000/svg"><g><path d="M512 232.473v228.664c0 9.894-5.934 17.914-13.25 17.914H298.652V274.082l34.735-41.61zm0 0" fill="#fc9086"></path><path d="M498.75 114.41H314.258c-8.617 0-15.606 6.985-15.606 15.602v16.996c0 9.437 8.301 16.617 17.668 15.46a33.69 33.69 0 0 1 6.512-.175c16.523 1.137 29.91 14.523 31.043 31.047 1.34 19.562-14.133 35.847-33.406 35.847-1.504 0-2.985-.101-4.434-.292-9.242-1.227-17.383 6.175-17.383 15.5v52.335h58.371c9.793 0 16.93-8.894 15.29-18.55a33.7 33.7 0 0 1-.422-7.516c.91-16.723 14.363-30.387 31.07-31.535 19.562-1.344 35.851 14.129 35.851 33.406 0 2.074-.187 4.106-.546 6.074-1.739 9.465 5.773 18.121 15.394 18.121H512V127.656c0-7.316-5.934-13.246-13.25-13.246zm0 0" fill="#5e8ee1"></path><path d="M480.793 245.773v216.329c0 9.359-5.934 16.949-13.254 16.949h31.211c7.316 0 13.25-7.59 13.25-16.95V245.774zm0 0" fill="#f57a73"></path><path d="M498.75 114.41h-31.207c7.316 0 13.25 5.93 13.25 13.25v169.07H512V127.656c0-7.316-5.934-13.246-13.25-13.246zm0 0" fill="#467bff"></path><path d="M235.086 57.754a34.585 34.585 0 0 0-4.719 0c-9.152.637-17.02-6.36-17.02-15.54V15.606C213.348 6.988 206.364 0 197.743 0H13.25C5.934 0 0 5.934 0 13.25v153.469c0 8.617 6.988 15.601 15.605 15.601H58.04c9.504 0 16.688 8.41 15.438 17.832a34.176 34.176 0 0 0-.227 6.532c1.016 16.629 14.438 30.168 31.059 31.308 19.566 1.344 35.855-14.129 35.855-33.406 0-1.602-.113-3.18-.332-4.723-1.316-9.308 6.2-17.539 15.602-17.539h42.312c8.617 0 15.602-6.988 15.602-15.605v-26.614c0-9.035 7.656-16.285 16.664-15.562.894.07 1.793.105 2.707.105 19.27 0 34.738-16.273 33.406-35.828-1.125-16.527-14.512-29.922-31.04-31.066zm0 0" fill="#ffe056"></path><path d="M266.125 88.82c-1.125-16.527-14.512-29.922-31.04-31.062a34.592 34.592 0 0 0-4.718-.004c-9.152.637-17.02-6.36-17.02-15.535V15.605C213.348 6.988 206.364 0 197.743 0h-31.207c8.617 0 15.606 6.988 15.606 15.605V42.22c0 9.176 7.863 16.172 17.02 15.535a34.592 34.592 0 0 1 4.718.004c16.527 1.14 29.914 14.535 31.035 31.062 1.332 19.555-14.137 35.828-33.406 35.828-.914 0-1.813-.035-2.707-.109-9.004-.719-16.664 6.531-16.664 15.566v26.614c0 8.617-6.985 15.601-15.602 15.601h31.207c8.617 0 15.606-6.984 15.606-15.601v-26.614c0-9.035 7.656-16.285 16.66-15.566.894.074 1.797.11 2.707.11 19.27 0 34.738-16.274 33.41-35.829zm0 0" fill="#f9cd45"></path><path d="M318.363 357.594a34.387 34.387 0 0 0-3.351-.055c-8.91.293-16.36-6.668-16.36-15.582V296.73h-67.855c-9.238 0-16.063 7.524-15.559 16.747.414 7.605-1.707 15.882-7.207 24.015a15.347 15.347 0 0 1-4.113 4.106c-26.95 18.183-55.606-.696-55.606-26.262 0-.668.02-1.336.06-1.992.53-9-6.548-16.614-15.563-16.614H100.91c-8.62 0-15.605 6.989-15.605 15.606v153.469c0 7.316 5.93 13.25 13.25 13.25h200.097v-38.993c0-8.761 7.22-15.984 15.97-15.597.5.023 1 .035 1.503.035 19.273 0 34.746-16.285 33.406-35.848-1.136-16.574-14.594-29.976-31.168-31.058zm0 0" fill="#9ddbdf"></path></g></svg>