<svg viewBox="0 0 64 64" xmlns="http://www.w3.org/2000/svg"><g><path d="m17.042 30.287-3.537-11.792 2.453 1.218 3.319 11.064zM56 30h-2v-4a1 1 0 0 1 1-1h4v2h-3z" fill="#98d085"></path><path d="M50 54H16L5 47v-7h54v6z" fill="#4d5b4d"></path><circle cx="32" cy="49" fill="#98b398" r="5"></circle><circle cx="32" cy="49" fill="#143441" r="2"></circle><circle cx="44" cy="49" fill="#98b398" r="5"></circle><circle cx="44" cy="49" fill="#143441" r="2"></circle><circle cx="20" cy="49" fill="#98b398" r="5"></circle><circle cx="20" cy="49" fill="#143441" r="2"></circle><circle cx="11" cy="46" fill="#98b398" r="4"></circle><path d="M10 45h2v2h-2z" fill="#143441"></path><circle cx="53" cy="46" fill="#98b398" r="4"></circle><path d="M52 45h2v2h-2z" fill="#143441"></path><path d="M3 36h58v4H3z" fill="#98b398"></path><path d="M57 36H6l5-6h46z" fill="#758975"></path><path d="M48 30H28l-4-6h28z" fill="#4d5b4d"></path><path d="M52 24H24l2-6h24z" fill="#98b398"></path><path d="M32 14h12v4H32zM24 24l-5-2 2-6 5 2z" fill="#758975"></path><path d="M21 16 5 9l-2 6 16 7z" fill="#394d5c"></path><path d="M27 11h2v7h-2zM34 18h4v6h-4z" fill="#98d085"></path><path d="M38 18h4v6h-4z" fill="#394d5c"></path><circle cx="23" cy="32" fill="#98d085" r="2"></circle><circle cx="45" cy="32" fill="#98d085" r="2"></circle><g fill="#f4f4e6"><path d="M30 33h2v3h-2zM34 33h2v3h-2z" fill="#f4f4e6"></path></g></g></svg>