<svg viewBox="0 0 512 512" xmlns="http://www.w3.org/2000/svg"><g><path d="M501.849 491.205H322.341c-5.606 0-10.151-4.545-10.151-10.151v-45.921c0-5.606 4.545-10.151 10.151-10.151H501.85c5.606 0 10.151 4.545 10.151 10.151v45.921c-.001 5.607-4.546 10.151-10.152 10.151z" fill="#ffd15b"></path><path d="M501.849 356.476H322.341c-5.606 0-10.151-4.545-10.151-10.151v-45.921c0-5.606 4.545-10.151 10.151-10.151H501.85c5.606 0 10.151 4.545 10.151 10.151v45.921c-.001 5.606-4.546 10.151-10.152 10.151z" fill="#05e39c"></path><path d="M501.849 87.018H322.341c-5.606 0-10.151-4.545-10.151-10.151V30.946c0-5.606 4.545-10.151 10.151-10.151H501.85c5.606 0 10.151 4.545 10.151 10.151v45.921c-.001 5.606-4.546 10.151-10.152 10.151z" fill="#fd8087"></path><path d="M501.849 20.795H459.56c5.606 0 10.151 4.545 10.151 10.151v45.921c0 5.606-4.545 10.151-10.151 10.151h42.289c5.606 0 10.151-4.545 10.151-10.151V30.946c0-5.607-4.545-10.151-10.151-10.151z" fill="#fe646f"></path><path d="M469.184 61.406H355.006c-4.143 0-7.5-3.357-7.5-7.5s3.357-7.5 7.5-7.5h114.178c4.143 0 7.5 3.357 7.5 7.5s-3.358 7.5-7.5 7.5z" fill="#ffffff"></path><path d="M501.849 221.747H322.341c-5.606 0-10.151-4.545-10.151-10.151v-45.921c0-5.606 4.545-10.151 10.151-10.151H501.85c5.606 0 10.151 4.545 10.151 10.151v45.921c-.001 5.606-4.546 10.151-10.152 10.151z" fill="#978ecb"></path><path d="M501.849 155.524H459.56c5.606 0 10.151 4.545 10.151 10.151v45.921c0 5.606-4.545 10.151-10.151 10.151h42.289c5.606 0 10.151-4.545 10.151-10.151v-45.921c0-5.606-4.545-10.151-10.151-10.151z" fill="#8379c1"></path><path d="M501.849 290.253H459.56c5.606 0 10.151 4.545 10.151 10.151v45.921c0 5.606-4.545 10.151-10.151 10.151h42.289c5.606 0 10.151-4.545 10.151-10.151v-45.921c0-5.606-4.545-10.151-10.151-10.151z" fill="#0ed290"></path><path d="M501.849 424.983H459.56c5.606 0 10.151 4.545 10.151 10.151v45.921c0 5.606-4.545 10.151-10.151 10.151h42.289c5.606 0 10.151-4.545 10.151-10.151v-45.921c0-5.607-4.545-10.151-10.151-10.151z" fill="#ffc344"></path><path d="M469.184 196.136H355.006c-4.143 0-7.5-3.357-7.5-7.5s3.357-7.5 7.5-7.5h114.178c4.143 0 7.5 3.357 7.5 7.5s-3.358 7.5-7.5 7.5zM469.184 330.864H355.006c-4.143 0-7.5-3.357-7.5-7.5s3.357-7.5 7.5-7.5h114.178c4.143 0 7.5 3.357 7.5 7.5s-3.358 7.5-7.5 7.5zM469.184 465.594H355.006c-4.143 0-7.5-3.357-7.5-7.5s3.357-7.5 7.5-7.5h114.178c4.143 0 7.5 3.357 7.5 7.5s-3.358 7.5-7.5 7.5z" fill="#ffffff"></path><g fill="#c2bce0"><path d="M245.967 167.941c2.647 0 5.171.518 7.5 1.428V73.171c-2.329.91-4.853 1.428-7.5 1.428s-5.171-.518-7.5-1.428v96.198a20.554 20.554 0 0 1 7.5-1.428zM245.967 344.059c-2.647 0-5.171-.518-7.5-1.428v96.198c2.329-.91 4.853-1.428 7.5-1.428s5.171.518 7.5 1.428V342.63a20.534 20.534 0 0 1-7.5 1.429zM238.467 207.901v96.198c2.329-.91 4.853-1.428 7.5-1.428s5.171.518 7.5 1.428v-96.198c-2.329.91-4.853 1.428-7.5 1.428s-5.171-.518-7.5-1.428z" fill="#c2bce0"></path></g><circle cx="245.967" cy="53.906" fill="#fd8087" r="21.694"></circle><path d="M245.967 32.212c-3.479 0-6.755.839-9.669 2.295 7.122 3.557 12.025 10.897 12.025 19.399s-4.903 15.842-12.025 19.399a21.575 21.575 0 0 0 9.669 2.295c11.981 0 21.694-9.713 21.694-21.694s-9.713-21.694-21.694-21.694z" fill="#fe646f"></path><circle cx="245.967" cy="188.635" fill="#978ecb" r="21.694"></circle><path d="M245.967 166.942c-3.479 0-6.755.839-9.669 2.295 7.122 3.557 12.025 10.897 12.025 19.399s-4.903 15.842-12.025 19.399a21.575 21.575 0 0 0 9.669 2.295c11.981 0 21.694-9.713 21.694-21.694-.001-11.982-9.713-21.694-21.694-21.694z" fill="#8379c1"></path><circle cx="245.967" cy="323.365" fill="#05e39c" r="21.694"></circle><path d="M245.967 301.671c-3.479 0-6.755.839-9.669 2.295 7.122 3.557 12.025 10.897 12.025 19.399s-4.903 15.842-12.025 19.399a21.575 21.575 0 0 0 9.669 2.295c11.981 0 21.694-9.713 21.694-21.694-.001-11.982-9.713-21.694-21.694-21.694z" fill="#0ed290"></path><circle cx="245.967" cy="458.094" fill="#ffd15b" r="21.694"></circle><path d="M245.967 436.4c-3.479 0-6.755.839-9.669 2.295 7.122 3.557 12.025 10.897 12.025 19.399s-4.903 15.842-12.025 19.399a21.575 21.575 0 0 0 9.669 2.295c11.981 0 21.694-9.713 21.694-21.694-.001-11.981-9.713-21.694-21.694-21.694z" fill="#ffc344"></path><path d="M30.868 208.543v95.985a55.159 55.159 0 0 1 25.646-6.303c30.61 0 55.514 24.903 55.514 55.514a55.231 55.231 0 0 1-3.091 18.232h75.288c6.43 0 11.642-5.212 11.642-11.643V208.543z" fill="#f3f0f3"></path><path d="M161.316 208.543v151.785c0 6.43-5.213 11.642-11.642 11.642h34.552c6.43 0 11.642-5.212 11.642-11.642V208.543z" fill="#e2dee2"></path><path d="m102.101 277.708 14.71-17.898a7.5 7.5 0 0 0-5.794-12.262H78.869c-4.143 0-7.5 3.357-7.5 7.5s3.357 7.5 7.5 7.5h16.275l-14.412 17.535a7.5 7.5 0 0 0 5.794 12.262h11.487c4.414 0 8.005 3.592 8.005 8.006s-3.591 8.005-8.005 8.005h-9.587a55.979 55.979 0 0 1 14.215 14.532c10.475-2.148 18.377-11.437 18.377-22.537.001-11.291-8.175-20.708-18.917-22.643zM147.867 323.355a7.499 7.499 0 0 1-7.5-7.5v-53.308h-3.996c-4.143 0-7.5-3.357-7.5-7.5s3.357-7.5 7.5-7.5h11.496c4.143 0 7.5 3.357 7.5 7.5v60.808c0 4.143-3.357 7.5-7.5 7.5z" fill="#a79ba7"></path><path d="M184.226 155.899H42.511c-6.43 0-11.642 5.212-11.642 11.642v42.048h165v-42.048c-.001-6.429-5.213-11.642-11.643-11.642z" fill="#fd8087"></path><path d="M184.226 155.899h-18.922v19.165a7.496 7.496 0 0 1-3.987 6.625v27.9h34.552v-42.048c-.001-6.429-5.213-11.642-11.643-11.642z" fill="#fe646f"></path><path d="M157.804 182.564a7.499 7.499 0 0 1-7.5-7.5v-31.739c0-4.143 3.357-7.5 7.5-7.5s7.5 3.357 7.5 7.5v31.739a7.5 7.5 0 0 1-7.5 7.5zM68.933 182.564a7.499 7.499 0 0 1-7.5-7.5v-31.739c0-4.143 3.357-7.5 7.5-7.5s7.5 3.357 7.5 7.5v31.739a7.5 7.5 0 0 1-7.5 7.5z" fill="#8379c1"></path><circle cx="56.514" cy="353.739" fill="#eaf6ff" r="49.014"></circle><path d="M56.514 304.724c-3.8 0-7.499.435-11.05 1.254 21.771 4.994 38.016 24.473 38.016 47.76 0 23.286-16.244 42.765-38.015 47.76a49.128 49.128 0 0 0 11.05 1.254c27.07 0 49.014-21.944 49.014-49.014 0-27.069-21.945-49.014-49.015-49.014z" fill="#d8ecfe"></path><path d="M56.515 410.253C25.353 410.253 0 384.9 0 353.738s25.353-56.514 56.515-56.514 56.514 25.352 56.514 56.514-25.352 56.515-56.514 56.515zm0-98.028C33.623 312.225 15 330.848 15 353.738c0 22.892 18.623 41.515 41.515 41.515 22.891 0 41.514-18.623 41.514-41.515-.001-22.89-18.624-41.513-41.514-41.513z" fill="#8ac9fe"></path><path d="M75.843 361.238H56.515a7.499 7.499 0 0 1-7.5-7.5v-27.32c0-4.143 3.357-7.5 7.5-7.5s7.5 3.357 7.5 7.5v19.82h11.828c4.143 0 7.5 3.357 7.5 7.5s-3.358 7.5-7.5 7.5z" fill="#60b7ff"></path></g></svg>