<svg viewBox="0 0 512 512" xmlns="http://www.w3.org/2000/svg"><g><clippath id="a"><path d="M0 0h512v512H0z" fill="#000000"></path></clippath><g clip-path="url(#a)"><g fill="#ebd5f6"><path d="M58.136 196.275c-31.244 0-51.883-4.256-52.995-4.49a6.484 6.484 0 0 1-4.72-7.614 6.479 6.479 0 0 1 7.397-5.054c.526.117 34.52 7.051 80.45 2.926 42.215-3.862 103.504-18.211 155.826-64.653 59.109-52.484 127.551-64.727 174.564-65.75 50.801-1.112 87.252 9.99 88.788 10.473a6.47 6.47 0 0 1-3.832 12.36c-.352-.117-36.291-11.015-85.117-9.888-44.716 1.038-109.779 12.726-165.817 62.473-55.072 48.9-119.403 63.922-163.68 67.901-11.102 1.009-21.459 1.316-30.864 1.316zM58.136 306.668c-31.244 0-51.884-4.257-52.995-4.491a6.478 6.478 0 0 1-1.773-11.368 6.482 6.482 0 0 1 4.45-1.226c.526.117 34.52 7.051 80.45 2.853 42.215-3.862 103.504-18.212 155.826-64.654 59.109-52.483 127.551-64.726 174.563-65.75 50.801-1.111 87.253 9.991 88.789 10.474a6.47 6.47 0 1 1-3.833 12.36c-.365-.117-36.32-11.029-85.117-9.888-44.716 1.038-109.778 12.725-165.816 62.473-55.072 48.9-119.403 63.922-163.68 67.901a368.166 368.166 0 0 1-30.864 1.316zM58.136 417.061c-31.244 0-51.883-4.257-52.995-4.491a6.453 6.453 0 0 1-4.089-2.796 6.471 6.471 0 0 1 6.751-9.871c.351.073 34.39 7.065 80.45 2.852 42.216-3.861 103.504-18.211 155.827-64.653 59.109-52.483 127.55-64.726 174.563-65.75 50.801-1.112 87.252 9.991 88.788 10.473a6.469 6.469 0 0 1 4.264 8.097 6.473 6.473 0 0 1-8.096 4.263c-.351-.117-36.291-11.014-85.117-9.888-44.716 1.039-109.779 12.726-165.816 62.474-55.072 48.899-119.404 63.922-163.68 67.9a340.177 340.177 0 0 1-30.85 1.39z" fill="#ebd5f6"></path></g><path d="m306.831 158.332-100.022 46.807a14.305 14.305 0 0 0-8.25 12.946V327.79a41.452 41.452 0 0 0-11.424-1.609 41.294 41.294 0 0 0-29.199 70.492 41.293 41.293 0 0 0 70.492-29.199V233.999a14.316 14.316 0 0 1 8.235-12.945l51.196-23.931a6.62 6.62 0 0 1 6.343.414 6.61 6.61 0 0 1 3.063 5.569V290.3a41.256 41.256 0 0 0-11.322-1.594 41.293 41.293 0 1 0 41.293 41.293V171.277a14.297 14.297 0 0 0-6.642-12.085 14.297 14.297 0 0 0-13.763-.86z" fill="#00f2a6"></path><path d="m157.72 137.458-.352-10.239a4.579 4.579 0 0 0-7.679-3.203 65.468 65.468 0 0 1-57.047 16.251l-4.563-.892a4.58 4.58 0 0 0-5.441 4.49v128.648a41.294 41.294 0 1 0-11.424 80.977 41.267 41.267 0 0 0 29.261-12.017 41.278 41.278 0 0 0 12.163-29.203V169.858a31.025 31.025 0 0 0 37.87-9.391 36.147 36.147 0 0 0 7.212-23.009z" fill="#ffe177"></path><path d="M100.482 330.189a41.154 41.154 0 0 0 12.097-29.255v11.278a41.293 41.293 0 0 1-82.586 0c0-1.884.128-3.765.38-5.632a41.291 41.291 0 0 0 70.109 23.55zM150.434 160.467a31.006 31.006 0 0 1-37.797 9.391V158.58a30.965 30.965 0 0 0 37.797-9.42 36.116 36.116 0 0 0 7.08-17.787l.205 6.1a36.146 36.146 0 0 1-7.285 22.994z" fill="#ffd15b"></path><path d="M216.332 384.661a41.141 41.141 0 0 0 12.097-29.255v11.863a41.29 41.29 0 0 1-44.205 41.385 41.307 41.307 0 0 1-29.269-15.316 41.286 41.286 0 0 1-8.674-31.876 41.296 41.296 0 0 0 50.378 34.244 41.29 41.29 0 0 0 19.687-10.986zM287.816 197.182l-51.196 23.93a14.318 14.318 0 0 0-8.235 12.96v-11.863a14.274 14.274 0 0 1 8.235-12.945l51.196-23.931a6.594 6.594 0 0 1 6.343.4 6.588 6.588 0 0 1 3.062 5.568v11.863a6.604 6.604 0 0 0-3.063-5.569 6.618 6.618 0 0 0-6.342-.413zM315.095 347.391a41.092 41.092 0 0 0 12.097-29.182v11.848a41.298 41.298 0 0 1-27.577 38.929 41.303 41.303 0 0 1-32.877-2.371 41.286 41.286 0 0 1-20.668-25.679 41.289 41.289 0 0 1-1.04-16.803 41.296 41.296 0 0 0 50.378 34.244 41.29 41.29 0 0 0 19.687-10.986z" fill="#05e39c"></path><path d="M66.137 313.938c8.79 0 15.914-7.126 15.914-15.915s-7.125-15.915-15.914-15.915-15.915 7.126-15.915 15.915 7.125 15.915 15.915 15.915zM178.418 369.463c8.789 0 15.914-7.125 15.914-15.914 0-8.79-7.125-15.915-15.914-15.915-8.79 0-15.915 7.125-15.915 15.915 0 8.789 7.125 15.914 15.915 15.914zM281.438 334.124c8.789 0 15.914-7.126 15.914-15.915s-7.125-15.915-15.914-15.915c-8.79 0-15.915 7.126-15.915 15.915s7.125 15.915 15.915 15.915z" fill="#ffffff" opacity=".5"></path><path d="m496.168 54.857-.351-10.239a4.612 4.612 0 0 0-2.829-4.105 4.609 4.609 0 0 0-4.909.872 66.045 66.045 0 0 1-57.485 16.383l-4.608-.892a4.622 4.622 0 0 0-5.5 4.534v129.731a41.58 41.58 0 0 0-11.526-1.639 41.662 41.662 0 0 0-29.458 71.117 41.662 41.662 0 0 0 58.915 0 41.657 41.657 0 0 0 12.201-29.458V87.476a31.274 31.274 0 0 0 38.207-9.463 36.387 36.387 0 0 0 7.343-23.156z" fill="#fe7ab6"></path><g fill="#fe5ca7" opacity=".5"><path d="M438.419 248.627a41.516 41.516 0 0 0 9.042-13.512 41.518 41.518 0 0 0 3.157-15.948v11.98a41.646 41.646 0 0 1-11.92 29.96 41.653 41.653 0 0 1-45.854 9.233 41.665 41.665 0 0 1-25.529-39.193 40.198 40.198 0 0 1 .424-5.983 41.662 41.662 0 0 0 28.122 33.499 41.664 41.664 0 0 0 42.558-10.095zM496.182 56.086a36.333 36.333 0 0 1-7.314 21.941 31.271 31.271 0 0 1-38.206 9.464v-11.98a31.256 31.256 0 0 0 38.206-9.478 36.335 36.335 0 0 0 7.08-17.802l.219 6.656c0 .38.015.79.015 1.2z" fill="#fe5ca7"></path></g><path d="M399.847 235.301c8.87 0 16.06-7.191 16.06-16.061s-7.19-16.061-16.06-16.061c-8.871 0-16.061 7.191-16.061 16.061s7.19 16.061 16.061 16.061z" fill="#ffffff" opacity=".5"></path><path d="M236.561 50.47A29.707 29.707 0 0 0 255.986 31a29.702 29.702 0 0 0 19.44 19.47 29.785 29.785 0 0 0-19.44 19.483 29.795 29.795 0 0 0-19.425-19.484zM453.938 356.021a41.164 41.164 0 0 0 26.842-26.944 41.167 41.167 0 0 0 26.9 26.944 41.216 41.216 0 0 0-26.9 26.958 41.115 41.115 0 0 0-26.842-26.958zM30.066 454.434a41.151 41.151 0 0 0 26.842-26.944 41.16 41.16 0 0 0 26.914 26.944 41.235 41.235 0 0 0-26.914 26.958 41.17 41.17 0 0 0-26.842-26.958z" fill="#fe7ab6"></path></g></g></svg>