<svg viewBox="0 0 512 512" xmlns="http://www.w3.org/2000/svg"><g><path d="M457.222 77.023h-72.509c-17.453 0-92.656-9.607-92.656-9.607a35.741 35.741 0 0 0-27.19 8.618c-15.45 13.481-42.304 37.185-56.861 51.603a90.145 90.145 0 0 0-22.102 35.609l-8.365 25.159c-4.225 12.709 3.026 26.37 15.92 29.992 11.553 3.245 23.693-2.749 28.14-13.896l9.73-24.391a54.033 54.033 0 0 1 19.688-24.582l10.663-7.292a28.475 28.475 0 0 1 27.69-2.493l26.278 11.741c11.356 5.074 15.43 19.136 8.545 29.495l-22.979 35.44c-6.281 9.966-4.898 22.942 5.658 30.095 9.451 6.404 21.797 5.652 29.632-2.526l25.242-37.072a55.099 55.099 0 0 1 19.536-17.195l26.417-13.863a28.003 28.003 0 0 1 12.77-3.206l36.752-.168V77.023z" fill="#ffddce"></path><g fill="#ffcbbe"><path d="m289.369 145.744-14.777-6.735c-9.036-4.037-29.882 2.612-38.051 8.199l-10.663 7.292a54.033 54.033 0 0 0-19.688 24.582l-9.73 24.391c-2.019 5.062-5.634 9.046-10.052 11.6a23.433 23.433 0 0 0 7.05 3.326c11.553 3.245 23.693-2.749 28.14-13.896l9.73-24.391a54.033 54.033 0 0 1 19.688-24.582l10.663-7.292a28.476 28.476 0 0 1 27.69-2.494zM408.982 77.023v69.563c0 8.552-4.476 16.48-11.798 20.898l-35.069 21.158c-7.792 4.089-17.965 16.916-23.011 24.126l-25.242 37.072c-1.409 1.471-3.236 2.702-5.332 3.702 9.198 5.26 20.589 4.156 27.974-3.552l25.242-37.072a55.09 55.09 0 0 1 19.536-17.195l26.417-13.863a28.003 28.003 0 0 1 12.77-3.206l36.752-.168V77.023h-48.239z" fill="#ffcbbe"></path></g><path d="M313.69 393.17H198.31c-7.965 0-14.423-6.457-14.423-14.423v-57.69c0-22.758 18.449-41.207 41.207-41.207h61.811c22.758 0 41.207 18.449 41.207 41.207v57.69c.001 7.966-6.457 14.423-14.422 14.423z" fill="#dd636e"></path><path d="M286.905 279.85H256c22.758 0 41.207 18.449 41.207 41.207v57.69c0 7.965-6.457 14.423-14.423 14.423h30.905c7.965 0 14.423-6.457 14.423-14.423v-57.69c.001-22.758-18.448-41.207-41.207-41.207z" fill="#da4a54"></path><path d="M242.385 279.85h27.23l6.934 54.997c.5 3.964-1.08 7.905-4.179 10.427l-12.393 10.083a6.302 6.302 0 0 1-7.955 0l-12.393-10.083a11.576 11.576 0 0 1-4.179-10.427z" fill="#ecf4ff"></path><path d="M505.461 198.825h-59.035a6.539 6.539 0 0 1-6.539-6.539V63.199a6.539 6.539 0 0 1 6.539-6.539h59.035A6.539 6.539 0 0 1 512 63.199v129.088a6.538 6.538 0 0 1-6.539 6.538z" fill="#dd636e"></path><path d="M505.461 56.66h-30.905a6.539 6.539 0 0 1 6.539 6.539v129.088a6.539 6.539 0 0 1-6.539 6.539h30.905a6.539 6.539 0 0 0 6.539-6.539V63.199a6.538 6.538 0 0 0-6.539-6.539z" fill="#da4a54"></path><path d="M221.457 251.553v-20.25c0-19.078 34.543-24.226 34.543-24.226s34.543 5.148 34.543 24.226v20.12c0 19.114-15.495 34.608-34.608 34.608-19.042 0-34.478-15.436-34.478-34.478z" fill="#ffddce"></path><path d="M256 207.077s3.638 7.26 3.638 20.781v23.565c0 13.552-7.794 25.277-19.14 30.958a34.319 34.319 0 0 0 15.437 3.651c19.114 0 34.608-15.495 34.608-34.608v-20.12z" fill="#ffcbbe"></path><path d="M221.457 227.858v3.445h69.087v-3.445c0-19.078-15.466-34.543-34.543-34.543-19.079 0-34.544 15.465-34.544 34.543z" fill="#845c52"></path><path d="M256 193.315a34.386 34.386 0 0 0-15.453 3.651c11.317 5.672 19.091 17.371 19.091 30.893v3.445h30.905v-3.445c0-19.079-15.465-34.544-34.543-34.544z" fill="#734d45"></path><path d="M497.577 455.34h-115.38c-7.965 0-14.423-6.457-14.423-14.423v-57.69c0-22.758 18.449-41.207 41.207-41.207h61.811c22.758 0 41.207 18.449 41.207 41.207v57.69c.001 7.966-6.456 14.423-14.422 14.423z" fill="#5490f9"></path><path d="M470.793 342.02h-30.905c22.758 0 41.207 18.449 41.207 41.207v57.69c0 7.965-6.457 14.423-14.423 14.423h30.905c7.965 0 14.423-6.457 14.423-14.423v-57.69c0-22.758-18.449-41.207-41.207-41.207z" fill="#4a81f6"></path><path d="M426.272 342.02h27.23l6.934 54.997c.5 3.964-1.08 7.905-4.179 10.427l-12.393 10.083a6.3 6.3 0 0 1-7.954 0l-12.393-10.083a11.576 11.576 0 0 1-4.179-10.427z" fill="#ecf4ff"></path><path d="M405.344 313.723v-20.25c0-19.078 34.543-24.226 34.543-24.226s34.543 5.148 34.543 24.226v20.12c0 19.114-15.495 34.608-34.608 34.608-19.042 0-34.478-15.436-34.478-34.478z" fill="#ffddce"></path><path d="M439.887 269.247s3.638 7.26 3.638 20.781v23.565c0 13.552-7.794 25.277-19.14 30.958a34.319 34.319 0 0 0 15.437 3.651c19.114 0 34.608-15.495 34.608-34.608v-20.12z" fill="#ffcbbe"></path><path d="M405.344 290.028v3.445h69.087v-3.445c0-19.078-15.466-34.543-34.543-34.543-19.078 0-34.544 15.465-34.544 34.543z" fill="#845c52"></path><path d="M439.887 255.485a34.386 34.386 0 0 0-15.453 3.651c11.317 5.672 19.091 17.371 19.091 30.893v3.445h30.905v-3.445c.001-19.079-15.465-34.544-34.543-34.544z" fill="#734d45"></path><path d="M129.803 455.34H14.423C6.457 455.34 0 448.883 0 440.918v-57.69c0-22.758 18.449-41.207 41.207-41.207h61.811c22.758 0 41.207 18.449 41.207 41.207v57.69c0 7.965-6.457 14.422-14.422 14.422z" fill="#a2aae2"></path><path d="M103.018 342.02H72.113c22.758 0 41.207 18.449 41.207 41.207v57.69c0 7.965-6.457 14.423-14.423 14.423h30.905c7.965 0 14.423-6.457 14.423-14.423v-57.69c0-22.758-18.449-41.207-41.207-41.207z" fill="#8993da"></path><path d="M58.498 342.02h27.23l6.934 54.997c.5 3.964-1.08 7.905-4.179 10.427L76.09 417.527a6.302 6.302 0 0 1-7.955 0l-12.393-10.083a11.576 11.576 0 0 1-4.179-10.427z" fill="#ecf4ff"></path><path d="M37.569 313.723v-20.25c0-19.078 34.543-24.226 34.543-24.226s34.543 5.148 34.543 24.226v20.12c0 19.114-15.495 34.608-34.608 34.608-19.041 0-34.478-15.436-34.478-34.478z" fill="#ffddce"></path><path d="M72.113 269.247s3.638 7.26 3.638 20.781v23.565c0 13.552-7.794 25.277-19.14 30.958a34.319 34.319 0 0 0 15.437 3.651c19.114 0 34.608-15.495 34.608-34.608v-20.12z" fill="#ffcbbe"></path><path d="M37.569 290.028v3.445h69.087v-3.445c0-19.078-15.466-34.543-34.543-34.543-19.078 0-34.544 15.465-34.544 34.543z" fill="#845c52"></path><path d="M72.113 255.485a34.386 34.386 0 0 0-15.453 3.651c11.317 5.672 19.091 17.371 19.091 30.893v3.445h30.905v-3.445c0-19.079-15.466-34.544-34.543-34.544z" fill="#734d45"></path></g></svg>