<svg id="Capa_1" enable-background="new 0 0 512 512" viewBox="0 0 512 512" xmlns="http://www.w3.org/2000/svg"><g><path d="m52.879 199.348-49.302-76.058c-6.748-10.41-3.665-24.329 6.848-30.915l106.37-66.647c10.349-6.484 23.992-3.401 30.546 6.904l56.396 88.666 98.794 126.433-227.267 107.463-20.582-71.965c-3.572-12.49-4.403-25.604-2.435-38.444l4.326-28.229c.92-5.996-.395-12.119-3.694-17.208z" fill="#ffbd86"/><path d="m509.414 267.476-56.248-101.154c-5.841-10.508-19.44-13.743-29.381-6.995l-43.819 29.701c-7.275 4.931-15.313 8.629-23.79 10.946l-201.886 55.17c-8.767 2.761-16.843 7.149-23.849 12.847-7.005 5.707-12.939 12.723-17.431 20.748l-59.688 105.078c-6.84 12.043-4.687 26.403 3.781 35.943 3.379 3.822 7.778 6.871 13.011 8.695-7.531 16.534.556 36.005 17.729 42.382l.711.268c13.403 4.976 28.464-.103 36.128-12.166l65.942-103.863 128.701-21.695 4.564 10.487c7.561 17.338 4.152 37.519-8.684 51.416l-33.501 34.872c-10.807 11.25-10.889 29-.175 40.342 5.717 6.047 13.464 9.169 21.273 9.169 6.078 0 12.187-1.896 17.4-5.749l58.535-43.36c14.639-10.518 25.61-25.384 31.338-42.485l17.863-53.302c2.287-6.84 7.057-12.578 13.372-16.081l60.142-33.368c9.899-5.481 13.464-17.967 7.962-27.846z" fill="#ffe5c2"/><path d="m509.414 267.475-56.248-101.154c-5.841-10.508-19.44-13.743-29.381-6.995l-5.769 3.904c.783.948 1.483 1.978 2.102 3.091l56.258 101.154c5.501 9.89 1.926 22.365-7.963 27.846l-59.875 33.222c-6.487 3.599-11.392 9.497-13.748 16.531l-17.754 52.997c-5.738 17.101-16.699 31.967-31.348 42.485l-58.535 43.36c-.288.216-.587.422-.886.629 4.935 3.389 10.724 5.12 16.534 5.12 6.078 0 12.187-1.885 17.4-5.749l58.535-43.36c14.639-10.518 25.61-25.384 31.338-42.485l17.864-53.299c2.293-6.84 7.062-12.575 13.37-16.075l60.143-33.376c9.9-5.481 13.465-17.956 7.963-27.846z" fill="#fed2a4"/><path d="m296.739 303.812c-7.018-13.775-30.536-11.713-30.536-11.713-10.914 7.96-14.748 22.882-8.419 35.304l-48.513-23.723c-10.83 7.98-14.726 22.924-8.419 35.303l.695 1.364c-7.018-13.775-41.464-9.887-41.464-9.887-10.776 7.992-14.712 22.951-8.419 35.303l18.256 35.83c-15.549-8.85-41.292-9.57-41.292-9.57-10.914 7.96-14.747 22.882-8.419 35.303l12.293 24.144c7.018 13.775 23.875 19.252 37.649 12.233 13.766-7.014 19.244-23.852 12.247-37.622 7.027 13.755 23.869 19.22 37.635 12.206 13.775-7.018 19.252-23.875 12.234-37.649 7.018 13.775 23.875 19.252 37.649 12.234 13.775-7.018 19.252-23.875 12.233-37.649 7.018 13.775 23.875 19.252 37.649 12.233 13.776-7.016-23.059-83.644-23.059-83.644z" fill="#ffbd86"/><g fill="#f6a96c"><path d="m232.267 400.641-30.719-60.292c-7.018-13.775-23.875-19.252-37.649-12.233-1.354.69-2.625 1.478-3.815 2.346 3.438 2.509 6.357 5.836 8.422 9.887l30.719 60.292c6.328 12.421 2.494 27.343-8.419 35.303 8.25 6.021 19.504 7.3 29.228 2.346 13.774-7.018 19.251-23.875 12.233-37.649z"/><path d="m282.15 375.225-31.415-61.656c-7.018-13.775-23.875-19.252-37.649-12.233-1.354.69-2.625 1.478-3.815 2.346 3.438 2.509 6.357 5.836 8.422 9.887l31.415 61.656c6.328 12.421 2.494 27.343-8.419 35.303 8.25 6.022 19.504 7.3 29.228 2.346 13.774-7.018 19.251-23.875 12.233-37.649z"/><path d="m332.033 349.809-24.365-47.821c-7.018-13.775-23.875-19.252-37.649-12.234-1.354.69-2.625 1.478-3.815 2.346 3.438 2.509 6.357 5.836 8.422 9.888l24.365 47.821c6.328 12.421 2.494 27.343-8.419 35.303 8.25 6.022 19.504 7.3 29.228 2.346 13.774-7.018 19.251-23.875 12.233-37.649z"/><path d="m182.385 426.056-12.293-24.144c-7.018-13.775-23.875-19.252-37.649-12.233-1.354.69-2.625 1.478-3.815 2.346 3.438 2.509 6.357 5.836 8.422 9.887l12.293 24.144c6.328 12.421 2.494 27.344-8.419 35.304 8.25 6.021 19.504 7.3 29.228 2.346 13.774-7.019 19.252-23.875 12.233-37.65z"/></g><path d="m203.738 121.298 65.743 40.716c9.268 5.74 16.355 14.41 20.135 24.635l25.277 68.366c4.659 12.601-1.847 26.585-14.487 31.137-10.047 3.619-21.279.219-27.632-8.365l-43.113-58.252-46.403-1.423c-17.535-.538-33.886-8.982-44.475-22.969l-28.656-37.85z" fill="#ffbd86"/><path d="m314.893 255.015-25.277-68.366c-3.781-10.225-10.867-18.895-20.135-24.635l-65.744-40.716-56.397-88.666c-6.554-10.305-20.197-13.388-30.546-6.904l-5.319 3.333c.849.874 39.708 61.682 54.009 84.075 3.433 5.376 8.029 9.907 13.452 13.265l57.502 35.612c9.268 5.74 16.355 14.41 20.135 24.636l25.277 68.365c3.479 9.41.73 19.59-6.148 26.039 6.537 6.116 16.055 8.214 24.704 5.099 12.641-4.552 19.147-18.535 14.487-31.137z" fill="#f6a96c"/><g><path d="m128.082 312.278-.649 1.401c-13.877 30.236-47.254 102.936-57.319 124.775-5.233-1.823-9.632-4.873-13.011-8.695 11.126-24.168 42.856-93.252 56.289-122.53l.649-1.401c1.782-3.884 6.367-5.584 10.24-3.802 3.884 1.784 5.584 6.369 3.801 10.252z" fill="#fed2a4"/></g><g><path d="m223.254 236.297-7.436-9.154-42.659-1.308c-19.97-.613-38.34-10.1-50.398-26.028l-28.656-37.849c-2.576-3.402-1.906-8.248 1.496-10.824 3.403-2.576 8.248-1.905 10.824 1.496l28.656 37.849c9.224 12.185 23.276 19.443 38.552 19.911l46.403 1.423c2.365.072 4.566 1.224 5.973 3.126l12.892 17.082z" fill="#f6a96c"/></g></g><g/><g/><g/><g/><g/><g/><g/><g/><g/><g/><g/><g/><g/><g/><g/></svg>