<svg viewBox="0 0 512 512" xmlns="http://www.w3.org/2000/svg"><g><path d="M416 488h32l-8-56h-32z" fill="#d78e0c"></path><path d="m408 432 2.29 16h32L440 432z" fill="#b2750a"></path><path d="M288 200a8 8 0 0 1-6.4-3.2l-24-32A8 8 0 0 1 264 152h48a8 8 0 0 1 6.4 12.8l-24 32a8 8 0 0 1-6.4 3.2z" fill="#eae9e4"></path><path d="M260 168h56l-28 37z" fill="#b22122"></path><path d="M224 200a8 8 0 0 1-6.4-3.2l-24-32A8 8 0 0 1 200 152h48a8 8 0 0 1 6.4 12.8l-24 32a8 8 0 0 1-6.4 3.2z" fill="#eae9e4"></path><path d="M196 168h56l-28 37z" fill="#cb2527"></path><path d="M288 244c-4.418 0-8 .418-8-4v-16a8 8 0 0 1 16 0v16c0 4.418-3.582 4-8 4z" fill="#eae9e4"></path><path d="M304 248h-24a8 8 0 0 1 0-16h24a8 8 0 0 1 0 16z" fill="#eae9e4"></path><path d="m352 144-7.125-10.687a24 24 0 0 1 0-26.626A24 24 0 0 1 364.844 96h28.212A30.944 30.944 0 0 1 424 126.944v15.167A28.944 28.944 0 0 1 408 168z" fill="#7a4922"></path><path d="M160 144v-18a30 30 0 0 0-30-30h-11.056A30.944 30.944 0 0 0 88 126.944v20.608a37.344 37.344 0 0 1-7.469 22.406l-5.737 7.65a16.224 16.224 0 0 0 4.633 23.648A16.225 16.225 0 0 0 104 187.343V168z" fill="#d78e0c"></path><path d="M223.238 24A30.954 30.954 0 0 1 248 36.381l7.7 10.272 7.7-10.272A30.951 30.951 0 0 1 288.171 24 30.952 30.952 0 0 1 318.2 47.446a37.856 37.856 0 0 1-11.145 37.088L255.7 131.6l-51.349-47.07a37.857 37.857 0 0 1-11.146-37.088A30.953 30.953 0 0 1 223.238 24z" fill="#cb2527"></path><path d="M160 144v24.795a10 10 0 0 1-6.836 9.483l-2.122.708A22 22 0 0 0 136 199.857V204h-32v-36l2.951-1.967A73.735 73.735 0 0 0 136 128zM244.82 227.18 272 200l32-16 8 32-24 8-18.379 26.255z" fill="#f6bb92"></path><path d="m269.548 250.361-22.575 32.249A50.148 50.148 0 0 1 205.89 304a50.151 50.151 0 0 1-25.8-7.146l-27.865-16.72a.148.148 0 0 0-.224.127v55.591a.148.148 0 0 1-.148.148h-79.7a.148.148 0 0 1-.148-.148V224.061a.148.148 0 0 1 .043-.1l7.512-7.512A56.149 56.149 0 0 1 119.257 200h1.486a56.149 56.149 0 0 1 39.7 16.445L207.9 263.9a.148.148 0 0 0 .21 0l36.614-36.614a.148.148 0 0 1 .206 0l24.6 22.891a.148.148 0 0 1 .018.184z" fill="#a3612d"></path><path d="m72 224-30.081 75.2A26.831 26.831 0 0 0 40 309.167 26.832 26.832 0 0 0 66.833 336H72z" fill="#915628"></path><path d="M152 336h208v152H152z" fill="#dcdbd6"></path><path d="M352 144v24.794a10 10 0 0 0 6.837 9.484l2.121.708A22 22 0 0 1 376 199.857V205h32v-37l-2.951-1.967A73.735 73.735 0 0 1 376 128z" fill="#e6af89"></path><path d="m344 289.6 16-9.6v56h80V224l-7.6-7.6a56 56 0 0 0-39.6-16.4h-1.6a56 56 0 0 0-39.6 16.4L320 248z" fill="#007af6"></path><path d="M440 268v-44l15.013 37.534z" fill="#0a71cd"></path><path d="m455.013 261.534 15.068 37.666a26.831 26.831 0 0 1 1.919 9.967A26.832 26.832 0 0 1 445.167 336H440v-68z" fill="#e6af89"></path><path d="M224 242c-4.418 0-8 2.418-8-2v-21a8 8 0 0 1 16 0v21c0 4.418-3.582 2-8 2z" fill="#eae9e4"></path><path d="M232 248h-24a8 8 0 0 1 0-16h24a8 8 0 0 1 0 16z" fill="#eae9e4"></path><path d="M80 336v36.686A27.315 27.315 0 0 0 88 392a27.315 27.315 0 0 0 19.314 8H152v-64z" fill="#7a4922"></path><path d="M56 388v-52a16 16 0 0 0-16-16 16 16 0 0 0-16 16v56a40 40 0 0 0 40 40h88v-32H68a12 12 0 0 1-12-12z" fill="#768753"></path><path d="M432 336v36.686A27.315 27.315 0 0 1 424 392a27.315 27.315 0 0 1-19.314 8H360v-64z" fill="#7a4922"></path><path d="M456 388v-52a16 16 0 0 1 16-16 16 16 0 0 1 16 16v56a40 40 0 0 1-40 40h-88v-32h84a12 12 0 0 0 12-12z" fill="#768753"></path><path d="M96 488H64l8-56h32z" fill="#d78e0c"></path><path d="m104 432-2.29 16h-32L72 432z" fill="#d78e0c"></path><path d="m176 336 80 80 80-80z" fill="#eae9e4"></path><path d="m320 248-16 16-64-64-32-16-8 32 24 8 41.071 58.673A50 50 0 0 0 306.033 304h.118a50.006 50.006 0 0 0 25.725-7.125L344 289.6z" fill="#e6af89"></path><path d="M136 400h16v32h-16zM360 400h16v32h-16z" fill="#667447"></path><path d="m104 432-2.29 16h-32L72 432z" fill="#b2750a"></path></g></svg>