<svg viewBox="0 0 512 512" xmlns="http://www.w3.org/2000/svg"><g><circle cx="256" cy="256" fill="#ff7abb" r="63.2"></circle><path d="M288.134 110.333c-8.284 0-15-6.716-15-15V15c0-8.284 6.716-15 15-15s15 6.716 15 15v80.333c0 8.284-6.716 15-15 15z" fill="#b0dfff"></path><path d="M223.867 158.533c-8.284 0-15-6.716-15-15V63.2c0-8.284 6.716-15 15-15s15 6.716 15 15v80.333c0 8.284-6.716 15-15 15z" fill="#d2edff"></path><path d="M154.14 132.928 25.606 4.395A15 15 0 0 0 0 15.001V497c0 8.284 6.716 15 15 15h128.533c8.284 0 15-6.716 15-15V143.534c0-3.978-1.58-7.794-4.393-10.606z" fill="#013772"></path><path d="M357.86 132.928 486.394 4.395a14.998 14.998 0 0 1 25.607 10.606V497c0 8.284-6.716 15-15 15H368.467c-8.284 0-15-6.716-15-15V143.534c0-3.978 1.58-7.794 4.393-10.606z" fill="#010043"></path><path d="M256 192.8c34.849 0 63.2 28.352 63.2 63.2s-28.352 63.2-63.2 63.2z" fill="#ff3d8c"></path></g></svg>