<svg viewBox="0 0 64 64" xmlns="http://www.w3.org/2000/svg"><g><path d="m24 39-5 6-1.92.42A4.577 4.577 0 0 1 12 42z" fill="#9fad8a"></path><path d="M18 49.003v4l-4 1-4-1v-4z" fill="#d74c4c"></path><path d="m14 54.003 1.55 2.959 3.45.041-2.5 2.74.59 3.26L14 61.462l-3.09 1.541.59-3.26-2.5-2.74 3.45-.041z" fill="#f7a539"></path><path d="M27.26 51.292A17.131 17.131 0 0 0 32 56l-7 3-3-11-3-3 5-6a20.971 20.971 0 0 0 3.26 12.292z" fill="#8ea06b"></path><path d="M32 64H5V54c0-5.67 1.63-10.211 7-12a4.577 4.577 0 0 0 5.08 3.42L19 45l3 3 3 11 7-3zm-14.91-1-.59-3.26L19 57l-3.45-.041L14 54l4-1v-4h-8v4l4 1-1.55 2.959L9 57l2.5 2.74-.59 3.26L14 61.462z" fill="#7b8350"></path><circle cx="50" cy="60.003" fill="#ffcc3e" r="3"></circle><path d="M54 50.003v5l-4 2v-7z" fill="#228ab2"></path><path d="M50 50.003v7l-4-2v-5z" fill="#3da2c1"></path><path d="M59 64H32v-8l8 3 2-11 3-3 1.92.42A4.577 4.577 0 0 0 52 42c5.37 1.789 7 6.33 7 12zm-9-1a3 3 0 0 0 0-6l4-2v-5h-8v5l4 2a3 3 0 0 0 0 6z" fill="#6d7042"></path><path d="m40 39 12 3a4.577 4.577 0 0 1-5.08 3.42L45 45z" fill="#8ea06b"></path><path d="M40 39a20.971 20.971 0 0 1-3.26 12.289L34 44z" fill="#f2f2f2"></path><path d="M36.74 51.292A20.971 20.971 0 0 0 40 39l5 6-3 3-2 11-8-3a17.131 17.131 0 0 0 4.74-4.708z" fill="#9fad8a"></path><path d="m34 44 2.74 7.289A17.131 17.131 0 0 1 32 56a17.131 17.131 0 0 1-4.74-4.711L30 44z" fill="#666666"></path><path d="m24 39 6 5-2.74 7.289A20.971 20.971 0 0 1 24 39z" fill="#f2f2f2"></path><path d="M39.25 35.272 40 39l-6 5h-4l-6-5 .75-3.731a10.989 10.989 0 0 0 14.5 0zM43 17a4 4 0 0 1 4 4 6.168 6.168 0 0 1-2 4.879A5.375 5.375 0 0 1 43 27z" fill="#e09b8d"></path><path d="M41 9c2.16 2.369 2 5 2 8l-7.05 1.57a18.357 18.357 0 0 1-7.9 0L21 17v-1.138c0-2.529.12-4.8 2-6.859l.92-1.071a8.973 8.973 0 0 0 16.16 0z" fill="#7b8350"></path><path d="M40.08 7.932a8.973 8.973 0 0 1-16.16 0l4.73-5.449a4.531 4.531 0 0 1 6.7 0z" fill="#8ea06b"></path><path d="M39.25 35.272a10.989 10.989 0 0 1-14.5 0A11.88 11.88 0 0 1 21 27V17l7.05 1.57a18.357 18.357 0 0 0 7.9 0L43 17v10a10.948 10.948 0 0 1-3.75 8.272zM37 33s0-4-5-4-5 4-5 4z" fill="#f4baa6"></path><path d="M21 17v10a5.375 5.375 0 0 1-2-1.121A6.168 6.168 0 0 1 17 21a4 4 0 0 1 4-4z" fill="#e09b8d"></path><circle cx="35.5" cy="23.503" fill="#995e55" r="1.5"></circle><circle cx="28.5" cy="23.503" fill="#995e55" r="1.5"></circle><path d="M33 30v-4a1 1 0 0 0-2 0v4z" fill="#d1897d"></path><path d="M37 33H27s0-4 5-4 5 4 5 4z" fill="#e6e6e6"></path></g></svg>