<svg viewBox="0 0 512 512" xmlns="http://www.w3.org/2000/svg"><g><path d="m322.288 333.132-75.479.437c-12.354 11.314-27.534 17.96-44.286 17.96h-24.099a5.975 5.975 0 0 0-5.975 5.975v99.616l2.987 12.772c0 3.317 2.702 6 6.02 5.975l13.735-.016c19.191-.072 35.053 5.066 51.554 14.865a106.035 106.035 0 0 0 54.146 14.866h36.835V364.975c-6.188-9.367-11.261-20.33-15.438-31.843z" fill="#ffd9c4"></path><path d="m327.901 396.739-15.616-3.475c-5.996 6.371-14.555 11.953-24.299 16.391l3.957 14.772a36.928 36.928 0 0 1 1.257 9.55v50.208c0 3.397-2.858 6.123-6.248 5.907-15.895-1.012-31.692-6.136-45.849-14.687a106.136 106.136 0 0 0-54.546-14.868l-14.112.012v15.765a5.976 5.976 0 0 0 6.018 5.972l13.74-.023a106.075 106.075 0 0 1 53.799 14.426c16.95 9.88 36.123 15.31 55.742 15.31h4.643l68.279-43.639z" fill="#ffc2ab"></path><path d="m374.666 372.733 48.046.286c12.73 0 23.05-15.19 23.05-20.062 0-12.73-10.32-23.05-23.05-23.05h-51.051z" fill="#ffd9c4"></path><path d="m356.729 370.628 65.983 5.379h12.73c12.73 0 23.05 10.32 23.05 23.05 0 6.081-10.32 20.062-23.05 20.062l-78.208 2.988z" fill="#ffd9c4"></path><path d="M422.712 376.007c12.73 0 23.05-10.32 23.05-23.05h-75.265l.319 23.05zM357.234 422.106l36.727 4.369 29.505-4.369h11.976c12.73 0 23.05-10.32 23.05-23.05H352.567zM227.452 419.282c0-.719.091-1.449.28-2.176a8.631 8.631 0 0 1 10.523-6.184l2.589.673a80.984 80.984 0 0 0 73.659-17.381 8.631 8.631 0 0 1 11.35 13.004 98.231 98.231 0 0 1-89.349 21.084l-2.589-.673a8.635 8.635 0 0 1-6.463-8.347z" fill="#ffc2ab"></path><path d="M306.388 512V303.069l4.189-12.141-4.189-18.228V169.637h57.144v102.359l-4.67 19.32 4.67 11.763v198.352l4.186 10.298z" fill="#707070"></path><path d="M363.531 183.836v119.243a162.115 162.115 0 0 1-28.567 2.514c-9.622 0-19.182-.855-28.577-2.524v-91.717c21.572-4.007 41.166-13.732 57.144-27.516zM140.918 349.309l-25.65-10.739-20.606-3.106a403.19 403.19 0 0 0-54.863-4.472c-2.882-.038-5.247 2.269-5.247 5.151v163.294c0 2.882 2.365 5.189 5.247 5.151a403.19 403.19 0 0 0 54.863-4.472l20.606-3.107 25.651-11.137 22.96 7.27V342.438z" fill="#5e5d5d"></path><path d="M163.882 342.442v150.705H140.92l-25.652 3.873a32.542 32.542 0 0 1-.092-2.472V341.031c0-.824.031-1.647.093-2.461l25.652 3.872z" fill="#4f4d4d"></path><path d="M179.614 506.911h-31.472c-6.827 0-12.362-5.535-12.362-12.362V341.033c0-6.827 5.535-12.362 12.362-12.362h31.472c6.827 0 12.362 5.535 12.362 12.362v153.516c0 6.828-5.535 12.362-12.362 12.362z" fill="#707070"></path><path d="M468.619 142.493c0 78.697-53.651 131.758-132.348 131.758-52.425 0-91.623-25.597-124.292-59.744-12.4-21.131-19.513-45.742-19.513-72.014C192.466 63.796 256.263 0 334.96 0c26.275 0 50.891 7.108 72.025 19.512 35.027 28.929 61.634 70.56 61.634 122.981z" fill="#ff7bae"></path><path d="M477.449 142.495c0 78.695-63.789 142.495-142.484 142.495-52.436 0-98.251-28.32-122.986-70.485 146.883 76.812 266.771-59.22 195.006-194.993 42.154 24.755 70.464 70.557 70.464 122.983z" fill="#ff61a7"></path><path d="m408.823 508.404-41.105-.127c-5.984 0-11.024-1.358-14.96-5.27a22.115 22.115 0 0 1-4.833-7.388c-.978-2.451-3.809-2.831-3.809-5.639v-.023c0-2.808.529-5.489 1.508-7.94a22.125 22.125 0 0 1 4.833-7.388c3.936-3.913 11.278-6.421 17.261-6.421l19.598-4.112 21.508 3.986c11.979 0 21.692 9.908 21.692 21.888-.001 11.978-9.713 18.434-21.693 18.434z" fill="#ffd9c4"></path><path d="m408.823 511.856-41.105-.127c-5.984 0-13.326-2.509-17.261-6.421a22.115 22.115 0 0 1-4.833-7.388 21.379 21.379 0 0 1-1.508-7.94v-.012h86.399c0 11.98-9.712 21.888-21.692 21.888z" fill="#ffc2ab"></path><path d="m375.345 425.118 25.594-3.012h22.527c12.772 0 23.127 10.354 23.127 23.126 0 12.772-12.905 20.317-25.677 20.317l-45.764-.97c-12.176.121-25.178-6.64-25.209-19.346-.001-12.771 12.63-20.115 25.402-20.115z" fill="#ffd9c4"></path><path d="M446.592 445.239c0 6.384-2.59 12.167-6.767 16.355-4.197 4.177-9.97 6.768-16.354 6.768h-52.598c-12.138-.12-23.206-10.187-23.122-23.133a23.019 23.019 0 0 1 6.778-16.344 23.019 23.019 0 0 1 16.344-6.778h30.066v.466a31.537 31.537 0 0 1-3.98 15.37c-1.821 3.274.502 7.296 4.248 7.296z" fill="#ffc2ab"></path><path d="M380.313 342.236v80.331c0 6.131-5.017 11.039-11.147 11.005a32.3 32.3 0 0 1-21.51-8.334 32.275 32.275 0 0 1-10.539-20.707l-3.101-23.148a5.87 5.87 0 0 0-5.687-5.089l-31.606-.721-18.213-3.307c-18.618-3.381-32.019-19.767-31.699-38.687v-.006a54.553 54.553 0 0 1 36.871-14.34h73.122c12.785 0 23.437 10.219 23.509 23.003z" fill="#ffd9c4"></path><path d="M361.594 143.222a1.03 1.03 0 0 1 0-1.457l28.561-28.561c7.154-7.154 7.154-18.752 0-25.906s-18.752-7.154-25.906 0l-28.561 28.561a1.03 1.03 0 0 1-1.457 0L305.67 87.298c-7.153-7.154-18.752-7.154-25.905 0-7.154 7.154-7.154 18.752 0 25.906l28.561 28.561a1.03 1.03 0 0 1 0 1.457l-28.221 28.221c-7.26 7.26-7.485 19.367-.09 26.49 7.171 6.908 18.585 6.826 25.656-.245l28.561-28.561a1.03 1.03 0 0 1 1.457 0l28.561 28.561c7.154 7.154 18.752 7.154 25.906 0s7.154-18.752 0-25.906z" fill="#e8edf2"></path></g></svg>