<svg viewBox="0 0 512 512" xmlns="http://www.w3.org/2000/svg"><g><path d="m401.348 366.85 19.857 23.833-19.857 23.833h-44.246c-6.202 0-11.229-5.017-11.229-11.219v-25.229c0-6.202 5.027-11.219 11.229-11.219h44.246z" fill="#95d6a4"></path><path d="M511.999 378.068v25.229c0 6.202-5.027 11.219-11.229 11.219h-99.423V366.85h99.423c6.202 0 11.229 5.017 11.229 11.218z" fill="#e7ecf6"></path><path d="m481.074 277.034 15.463 23.838-15.463 23.838H357.102c-6.202 0-11.229-5.027-11.229-11.229v-25.219c0-6.202 5.027-11.229 11.229-11.229h123.972z" fill="#9dc6fb"></path><path d="M512 288.263v25.219c0 6.202-5.027 11.229-11.229 11.229h-19.697v-47.677h19.697c6.202 0 11.229 5.027 11.229 11.229z" fill="#e7ecf6"></path><path d="m428.936 187.218 16.146 23.843-16.146 23.834h-71.835c-6.202 0-11.229-5.027-11.229-11.229v-25.219c0-6.202 5.027-11.229 11.229-11.229z" fill="#f1e64d"></path><path d="M512 198.447v25.219c0 6.202-5.027 11.229-11.229 11.229h-71.835v-47.677h71.835c6.202 0 11.229 5.027 11.229 11.229z" fill="#e7ecf6"></path><path d="M269.966 511.999H36.486c0-44.36 7.314-97.764 10.796-120.717 1.143-7.479 5.542-14.093 12.033-17.987 12.362-7.407 25.415-13.279 37.725-17.884 22.746-8.54 42.969-12.754 51.664-14.32a25.178 25.178 0 0 1 9.045 0c8.695 1.566 28.917 5.779 51.664 14.32 12.311 4.605 25.363 10.477 37.725 17.884 6.49 3.894 10.889 10.508 12.033 17.987 3.481 22.953 10.795 76.358 10.795 120.717z" fill="#f9f6f6"></path><path d="M99.728 511.999H82.421c0-29.494 10.91-68.538 10.91-68.538s.268 38.611 6.397 68.538zM243.48 511.999h-19.45c0-29.494-10.91-68.538-10.91-68.538s29.649 15.391 30.36 68.538z" fill="#e7ecf6"></path><path d="m125.277 400.711 16.406 19.423 11.543 14.888 11.542-14.888 16.406-19.423v-40.916h-64.756" fill="#cb5769"></path><path d="M59.314 373.296c6.634-3.977 13.475-7.51 20.284-10.642-5.017 4.213-8.427 11.291-9.313 19.285-2.72 24.735-8.447 82.27-8.447 130.06H36.486c0-44.36 7.314-97.764 10.796-120.717 1.143-7.479 5.542-14.092 12.032-17.986zM209.412 355.412l-19.378 53.817-36.808-35.387-36.808 35.387-19.378-53.817c22.746-8.54 42.969-12.754 51.664-14.32a25.178 25.178 0 0 1 9.045 0c8.694 1.566 28.916 5.779 51.663 14.32z" fill="#e7ecf6"></path><path d="M181.171 299.229v46.669c0 15.43-12.512 27.942-27.942 27.942-15.439 0-27.951-12.512-27.951-27.942v-46.669z" fill="#ffddce"></path><path d="M162.354 372.316a27.985 27.985 0 0 1-9.124 1.522c-15.439 0-27.951-12.512-27.951-27.942v-46.669h18.247v46.669c0 12.243 7.871 22.645 18.828 26.42zM36.482 260.368C16.334 260.368 0 244.035 0 223.886c0-2.773.309-5.474.896-8.07 4.733-20.96 35.587-17.523 35.587 3.965H269.97c0-21.488 30.854-24.926 35.587-3.965.586 2.596.896 5.297.896 8.07 0 20.149-16.334 36.482-36.482 36.482" fill="#ffcbbe"></path><path d="M36.489 241.065a7.717 7.717 0 0 1-6.314-3.265c-.164-.224-5.043-6.789-9.754-4.888a7.727 7.727 0 0 1-5.782-14.33c6.83-2.756 14.237-1.668 20.855 3.063 4.362 3.118 7.033 6.855 7.323 7.271a7.726 7.726 0 0 1-6.328 12.149zM269.962 241.095a7.715 7.715 0 0 1-4.431-1.399c-3.5-2.442-4.34-7.282-1.897-10.781.29-.416 2.961-4.153 7.323-7.271 6.618-4.731 14.024-5.818 20.855-3.063a7.726 7.726 0 1 1-5.782 14.33c-4.768-1.925-9.709 4.825-9.758 4.894a7.667 7.667 0 0 1-6.31 3.29z" fill="#eaac9d"></path><path d="M125.277 299.229h55.893v42.994h-55.893z" fill="#ffcbbe"></path><path d="M184.88 327.43h-63.309c-46.993 0-85.089-38.096-85.089-85.089V122.335h233.487V242.34c0 46.994-38.095 85.09-85.089 85.09z" fill="#ffddce"></path><path d="M177.464 327.429h-55.893c-46.988 0-85.089-38.1-85.089-85.089V122.33h55.893v120.01c.001 46.989 38.093 85.089 85.089 85.089z" fill="#ffcbbe"></path><g fill="#2b4d66"><ellipse cx="98.484" cy="203.436" fill="#2b4d66" rx="11.037" ry="18.309"></ellipse><ellipse cx="207.968" cy="203.436" fill="#2b4d66" rx="11.037" ry="18.309"></ellipse></g><g fill="#eaa598"><ellipse cx="230.239" cy="240.144" fill="#eaa598" rx="19.11" ry="11.62"></ellipse><ellipse cx="76.212" cy="240.144" fill="#eaa598" rx="19.11" ry="11.62"></ellipse></g><path d="M94.708 39.035h-36.13c-22.446 0-40.643 18.196-40.643 40.643v55.04c0 11.191 9.072 20.263 20.263 20.263h25.4c33.458 0 60.581-27.123 60.581-60.581V68.507c.001-16.277-13.194-29.472-29.471-29.472z" fill="#aa7a63"></path><path d="M94.489 39.029c-22.443 0-40.64 18.197-40.64 40.648v75.301H38.198c-11.191 0-20.263-9.072-20.263-20.263V79.677c0-22.452 18.197-40.648 40.64-40.648z" fill="#986b54"></path><path d="M216.007 145.083h-56.262c-30.461 0-55.155-24.694-55.155-55.155V55.156c0-30.461 24.694-55.155 55.155-55.155h164.648v36.696c0 59.86-48.526 108.386-108.386 108.386z" fill="#aa7a63"></path><path d="M208.379 145.08h-48.636c-30.465 0-55.153-24.688-55.153-55.153v-34.77c0-30.465 24.688-55.153 55.153-55.153h48.636c-30.465 0-55.153 24.688-55.153 55.153v34.77c0 30.464 24.688 55.153 55.153 55.153z" fill="#986b54"></path><g fill="#dd636e"><path d="M164.768 420.134c10.598 23.329 10.598 62.748 10.598 62.748s-4.724 15.966-22.141 29.117h.002c-17.417-13.152-22.141-29.117-22.141-29.117s0-39.419 10.598-62.748M153.226 280.161c-7.648 0-15.296-2.911-21.119-8.734a7.725 7.725 0 0 1 0-10.927 7.725 7.725 0 0 1 10.927 0c5.62 5.62 14.765 5.62 20.384 0a7.725 7.725 0 0 1 10.927 0 7.725 7.725 0 0 1 0 10.927c-5.823 5.823-13.471 8.734-21.119 8.734z" fill="#dd636e"></path></g><path d="M500.772 145.08h-36.687s-75.963-5.027-75.963-11.228v-25.22c0-6.201 75.963-11.228 75.963-11.228h36.687c6.201 0 11.228 5.027 11.228 11.228v25.22c0 6.201-5.027 11.228-11.228 11.228z" fill="#e7ecf6"></path><path d="M464.086 97.403v47.677H357.101c-6.202 0-11.229-5.027-11.229-11.229v-25.219c0-6.202 5.027-11.229 11.229-11.229z" fill="#dd636e"></path></g></svg>