<svg viewBox="0 0 60 60" xmlns="http://www.w3.org/2000/svg"><g><path d="M45.17 15v38c0 .55-.45 1-1 1h-37c-.55 0-1-.45-1-1V7c0-.55.45-1 1-1h29c.27 0 .52.11.71.29l8 8c.18.19.29.44.29.71z" fill="#e7e8e8"></path><path d="M45.13 15.25c0 .05-.02.09-.04.14-.05.12-.12.23-.21.32-.1.09-.21.16-.32.21-.05.02-.09.04-.14.04a.69.69 0 0 1-.25.04h-8c-.55 0-1-.45-1-1V7c0-.08.01-.17.04-.25 0-.05.02-.09.04-.14.05-.12.12-.23.21-.32s.2-.17.32-.21c.05-.02.09-.04.14-.04.16-.05.34-.05.5 0 .05 0 .09.02.14.04.12.04.23.12.32.21l8 8c.09.09.16.2.21.32.02.05.04.09.04.14.05.16.05.34 0 .5z" fill="#f15e5b"></path><path d="M36.99 38c0 .55-.45 1-1 1H12.18c-.55 0-1-.45-1-1s.45-1 1-1h23.81c.55 0 1 .45 1 1zM38.15 33c0 .55-.44 1-1 1H12.19c-.56 0-1-.45-1-1s.44-1 1-1h24.96c.56 0 1 .45 1 1z" fill="#d2d5d8"></path><path d="M17.86 16.17c-.19-.26-.24-.59-.14-.9s.35-.55.65-.64l3.43-1.06 2.03-3.12c.37-.56 1.31-.56 1.68 0l2.03 3.12 3.43 1.06c.3.09.55.33.65.64s.05.64-.14.9l-2.2 3.01.1 3.79c.01.34-.15.65-.42.84a.96.96 0 0 1-.58.19c-.12 0-.24-.02-.35-.06l-3.36-1.26-3.36 1.26c-.31.11-.66.07-.93-.13a.985.985 0 0 1-.42-.84l.1-3.79z" fill="#fadf7d"></path><path d="M32.44 48c0 .55-.43 1-.98 1H12.18c-.55 0-1-.45-1-1s.45-1 1-1h19.23c.55 0 1.03.45 1.03 1zM34.17 43c0 .55-.45 1-1 1H12.18c-.55 0-1-.45-1-1s.45-1 1-1h20.99c.55 0 1 .45 1 1zM15.19 28c0-.55.45-1 1-1h16.96c.55 0 1 .45 1 1s-.45 1-1 1H16.19c-.55 0-1-.45-1-1z" fill="#d2d5d8"></path><path d="M38.17 43h-.1c-.55 0-1-.45-1-1s.45-1 1-1h.1c.55 0 1 .45 1 1s-.45 1-1 1z" fill="#000000"></path><path d="M33.03 40.48c-.05.07-.09.15-.12.24l-2.47 7.02c-.14.43.05.86.42 1.11.16.11.35.17.54.17.25 0 .5-.09.69-.25l5.67-4.66c.07-.06.14-.12.19-.2l-3.26-2.27z" fill="#ec8d2f"></path><path d="M47.13 30.8c.15-.21.21-.48.16-.74a.95.95 0 0 0-.41-.65l-3.28-2.29a.998.998 0 0 0-1.39.25l-9.18 13.11 1.66 1.16 3.26 2.27z" fill="#a9d270"></path><path d="M53.83 21.72c0 .83-.25 1.62-.73 2.29l-.57.82-4.58 6.55c-.15.22-.39.37-.65.42-.06.01-.11.01-.17.01-.21 0-.41-.06-.58-.18l-4.91-3.44a.953.953 0 0 1-.41-.64.98.98 0 0 1 .16-.75l5.16-7.38c1.27-1.8 3.77-2.24 5.57-.98 1.07.74 1.71 1.96 1.71 3.28z" fill="#4faade"></path></g></svg>