<svg viewBox="0 0 64 64" xmlns="http://www.w3.org/2000/svg"><g><g fill="#b18264"><path d="M18.92 58.12a4.382 4.382 0 0 1 .1.87 4.01 4.01 0 1 1-8.02 0v-3.08a8.366 8.366 0 0 0-.79-3.54A8.234 8.234 0 0 0 8 49.5a8.336 8.336 0 0 1-3-6.41V39a10 10 0 0 1 10-10v7.51A20.488 20.488 0 0 0 21 51a7.63 7.63 0 0 0-2.08 7.12zM8 21a5 5 0 0 1-5 5V13a6 6 0 0 1 6-6 6.009 6.009 0 0 1 6 6v16a8.139 8.139 0 0 1-7-8zM56 21a8.139 8.139 0 0 1-7 8V13a6.009 6.009 0 0 1 6-6 6 6 0 0 1 6 6v13a5 5 0 0 1-5-5z" fill="#b18264"></path><circle cx="43" cy="26" fill="#b18264" r="2"></circle><circle cx="43" cy="34" fill="#b18264" r="2"></circle><circle cx="41" cy="42" fill="#b18264" r="2"></circle></g><path d="M32 28a23.8 23.8 0 0 0 4-13.21V1a9.719 9.719 0 0 0 5.96 3.72A8.379 8.379 0 0 1 49 13v23.51A20.488 20.488 0 0 1 43 51a14.562 14.562 0 0 0-7.07 5.4A6.294 6.294 0 0 1 32 59a6.294 6.294 0 0 1-3.93-2.6A14.562 14.562 0 0 0 21 51a20.488 20.488 0 0 1-6-14.49V13a8.436 8.436 0 0 1 7.04-8.28A8.585 8.585 0 0 0 28 1v13.79A23.779 23.779 0 0 0 32 28zm13-2a2 2 0 1 0-2 2 2.006 2.006 0 0 0 2-2zm0 8a2 2 0 1 0-2 2 2.006 2.006 0 0 0 2-2zm-2.586 6.586a2 2 0 1 0 0 2.828 2.005 2.005 0 0 0 0-2.828z" fill="#c89d84"></path><path d="M59 39v4.09a8.336 8.336 0 0 1-3 6.41 8.234 8.234 0 0 0-2.21 2.87 8.366 8.366 0 0 0-.79 3.54v3.08a4.01 4.01 0 1 1-8.02 0c0-.28.28-1.97.28-2.53A7.739 7.739 0 0 0 43 51a20.488 20.488 0 0 0 6-14.49V29a10 10 0 0 1 10 10z" fill="#b18264"></path><circle cx="55" cy="41" fill="#c89d84" r="1"></circle><circle cx="10.5" cy="45.5" fill="#c89d84" r="1.5"></circle><circle cx="20" cy="28" fill="#b18264" r="1"></circle><circle cx="43" cy="19" fill="#b18264" r="1"></circle><circle cx="37.5" cy="47.5" fill="#b18264" r="1.5"></circle><circle cx="53.5" cy="45.5" fill="#c89d84" r="1.5"></circle><circle cx="9" cy="41" fill="#c89d84" r="1"></circle><circle cx="20" cy="24" fill="#b18264" r="1"></circle><path d="M22.684 8.673A4.355 4.355 0 0 0 19 13v7a1 1 0 0 0 2 0v-7a2.365 2.365 0 0 1 2-2.353 1 1 0 1 0-.312-1.974zM36 1h-8v13.79a23.609 23.609 0 0 0 3 11.553V45a1 1 0 0 0 2 0V26.35a23.8 23.8 0 0 0 3-11.56z" fill="#b18264"></path><path d="M32 10a1 1 0 0 0-1 1v7a1 1 0 0 0 2 0v-7a1 1 0 0 0-1-1zM56 12a1 1 0 0 0-1 1v9a1 1 0 0 0 1 1 1 1 0 0 0 1-1v-9a1 1 0 0 0-1-1zM8 12a1 1 0 0 0-1 1v9a1 1 0 0 0 1 1 1 1 0 0 0 1-1v-9a1 1 0 0 0-1-1z" fill="#c89d84"></path></g></svg>