<svg id="Capa_1" enable-background="new 0 0 512 512" height="512" viewBox="0 0 512 512" width="512" xmlns="http://www.w3.org/2000/svg"><g><path d="m497 136h-482c-8.284 0-15 6.716-15 15v60c0 8.284 6.716 15 15 15h482c8.284 0 15-6.716 15-15v-60c0-8.284-6.716-15-15-15z" fill="#fcdd2e"/><path d="m512 151v60c0 8.28-6.72 15-15 15h-241v-90h241c8.28 0 15 6.72 15 15z" fill="#f9c301"/><path d="m497 286h-482c-8.284 0-15 6.716-15 15v60c0 8.284 6.716 15 15 15h482c8.284 0 15-6.716 15-15v-60c0-8.284-6.716-15-15-15z" fill="#fcdd2e"/><path d="m512 301v60c0 8.28-6.72 15-15 15h-241v-90h241c8.28 0 15 6.72 15 15z" fill="#f9c301"/><path d="m435.445 40.915-49.924-33.282c-6.893-4.594-16.206-2.732-20.801 4.161l-292.325 438.49c-4.593 6.889-2.733 16.206 4.16 20.801l49.924 33.282c6.882 4.586 16.198 2.744 20.801-4.161l292.326-438.49c4.592-6.888 2.732-16.205-4.161-20.801z" fill="#fa4954"/><path d="m439.61 61.72-183.61 275.41v-162.26l108.72-163.08c4.6-6.89 13.91-8.75 20.8-4.16l49.93 33.29c6.89 4.59 8.75 13.91 4.16 20.8z" fill="#cc193b"/></g></svg>