<svg viewBox="0 0 512 512" xmlns="http://www.w3.org/2000/svg"><g><path d="M279.54 111.4c.51.51 6.55 14.61 6.55 14.61s-16.68 5.7-27.67 12.6c0 0-1.53-12.27-6.43-16.18-4.9-3.89-21.46 3.89-28.64-1.85-5.35-4.29-4.4-11.27-5.41-17.98-.46-2.27-3.13-4.52-4.92-5.85-1.64-1.24-3.98-3.43-4.09-5.91-.24-5.42 5.08-7.04 6.83-14.37s-2.3-11.06 3.39-26.33a19.364 19.364 0 0 1-5.14-.63c10.19-9.42 24.011-17.624 38.78-15.18 59.96 9.92 26.75 77.07 26.75 77.07z" fill="#f9a085"></path><path d="M318.56 62.08c-.98 39.78-39.02 49.32-39.02 49.32s-14.29-13.48-16.85-19.94a10.885 10.885 0 0 0 9.9-11.72 10.842 10.842 0 0 0-17.22-7.84c-10.13-4.07-11.46-11.13-13.1-17.84-.82-3.34-6.55-6.06-12.61-4.99-13.83 2.45-20.54.88-21.94-6.38-1.46-7.62 10.9-30.7 62.12-30.7 16.08 0 49.7 10.31 48.72 50.09z" fill="#ffc639"></path><path d="M195 267.8c-16.124 2.571-16.95 12.242-10.507 15.212 1.5.691 1.74 2.033 1.054 3.535-1.018 2.229-1.688 6.6-.041 9.428 2.957 5.077 12.419 5.615 16.992 4.97 7.8-1.1 11.326-15.41 15.364-19.39 2.757-2.718 4.972-4.84 10.787-10.623l4.191-45.367c-12.381 16.482-31.962 41.301-37.84 42.235z" fill="#f9a085"></path><path d="M307.663 296c15.209 86.266 54.437 162.345 54.437 162.345l-30.94 15.572c-9.886-18.141-46.855-70.885-60.475-108.44V296z" fill="#4c3b54"></path><path d="M237.184 297.953c-18.788 55.571-30.57 110.7-51.035 177.335l33.6 2.458s72.382-155.735 78.506-179.793z" fill="#584360"></path><path d="M316.656 191.131c-6.166-28.849-14.424-49.442-30.562-65.125v.006s-16.68 5.7-27.67 12.6c-4.09 2.56-7.4 5.3-8.75 7.97-.3.59-.59 1.21-.88 1.85-12.73 28.11-20.25 110.54-21.21 143.22a6.119 6.119 0 0 0 6.13 6.3h76.2s9.836-72.384 6.742-106.821z" fill="#f7f0df"></path><path d="M333.375 267.279c-5.464-13.439-3.665-34.679-16.719-76.148l-25.273 11.626a5.993 5.993 0 0 0-3.071 7.661c6.16 15.489 23.491 60.18 21.159 67-6.5 19 1.836 24.75 7.944 21.142 1.421-.84 2.662-.275 3.507 1.144 1.253 2.105 4.672 4.589 7.924 4.217 5.908-.675 12.285-4.522 13.612-8.946 2.684-8.951-6.89-22.3-9.083-27.696z" fill="#f9a085"></path><path d="m220.254 476.517-33.6-2.458s-28.54 8.255-27.288 18c1.664 12.95 44.979 12.24 58.722 11.741a6.337 6.337 0 0 0 5.837-5.644c.604-5.086-.413-12.679-3.671-21.639zM376.469 474.3c-2-4.716-7.755-11.209-15.033-17.368L330.5 472.5s-19.021 20.724-13.1 28.562c7.875 10.414 45.119-11.712 56.8-18.968a6.338 6.338 0 0 0 2.269-7.794z" fill="#4c3b54"></path><path d="M282.816 211.294a4 4 0 0 1-3.67-2.408c-1.724-3.971-16.793-39.2-15.183-53.159a4 4 0 1 1 7.947.917c-1.157 10.023 10.128 38.811 14.573 49.057a4 4 0 0 1-3.667 5.593z" fill="#efdfc5"></path><rect fill="#584360" rx="3.542"></rect></g></svg>