<svg viewBox="0 0 511.999 511.999" xmlns="http://www.w3.org/2000/svg"><g><path d="M420.257 282.687c0-92.18-75.046-166.865-166.865-166.865-43.886 0-85.219 18.029-111.238 42.602-35.481 31.796-55.626 76.754-55.626 124.263 0 46.701 19.538 91.924 55.626 124.263 31.226 27.757 69.965 42.602 111.238 42.602 91.035 0 166.865-73.884 166.865-166.865z" fill="#e4eaf8"></path><path d="M253.391 173.033c-60.462 0-109.653 49.191-109.653 109.654s49.191 109.654 109.653 109.654c60.464 0 109.654-49.191 109.654-109.654s-49.19-109.654-109.654-109.654z" fill="#d8dce5"></path><path d="M162.758 406.95c-74.12-66.421-74.216-182.019 0-248.526 23.993-22.66 61.013-39.743 101.044-42.267a168.6 168.6 0 0 0-10.411-.335c-43.886 0-85.219 18.029-111.238 42.602-74.12 66.421-74.216 182.019 0 248.526 31.226 27.756 69.965 42.602 111.238 42.602 3.431 0 6.837-.118 10.222-.325-37.369-2.279-72.262-16.861-100.855-42.277z" fill="#d8dce5"></path><path d="M164.343 282.687c0-56.989 43.702-103.956 99.351-109.167a110.35 110.35 0 0 0-10.302-.488c-60.463 0-109.653 49.191-109.653 109.654 0 60.464 49.191 109.655 109.653 109.655 3.475 0 6.91-.17 10.302-.488-55.649-5.21-99.351-52.177-99.351-109.166z" fill="#c3c8d1"></path><path d="M114.397 75.328c-25.829-6.921-55.787 21.134-66.915 62.663-4.798 17.908-4.166 31.131.175 40.935 8.622 19.472 9.562 41.493 4.05 62.064L.607 431.699c-2.527 9.43 3.07 19.123 12.5 21.65 9.43 2.527 19.123-3.069 21.65-12.499l51.1-190.709c5.512-20.57 17.336-39.171 34.539-51.723 31.265-22.813 36.617-111.671-5.999-123.09z" fill="#ffc850"></path><path d="m21.212 431.699 51.1-190.71c5.512-20.57 4.572-42.591-4.051-62.064-4.341-9.804-4.973-23.027-.175-40.935 8.523-31.807 28.093-55.688 48.392-62.027a33.083 33.083 0 0 0-2.082-.636c-25.829-6.921-55.787 21.134-66.915 62.663-4.798 17.908-4.166 31.131.175 40.935 8.623 19.472 9.562 41.493 4.051 62.064l-51.1 190.71c-2.527 9.43 3.07 19.123 12.5 21.65 5.326 1.427 10.734.261 14.889-2.721-5.807-4.166-8.743-11.619-6.784-18.929zM381.541 187.42 354.6 86.875a7.726 7.726 0 0 1 5.464-9.463c4.12-1.109 8.359 1.341 9.463 5.463l26.941 100.545a7.726 7.726 0 0 1-5.464 9.463 7.726 7.726 0 0 1-9.463-5.463z" fill="#f9b428"></path><path d="M452.611 168.318 425.67 67.773a7.726 7.726 0 0 1 5.464-9.463c4.121-1.11 8.359 1.341 9.463 5.463l26.941 100.545a7.726 7.726 0 0 1-5.464 9.463 7.726 7.726 0 0 1-9.463-5.463zM428.847 174.685 401.906 74.141a7.726 7.726 0 0 1 5.464-9.463c4.121-1.11 8.359 1.341 9.463 5.463l26.941 100.545a7.728 7.728 0 0 1-14.927 3.999zM405.084 181.052 378.143 80.507a7.726 7.726 0 0 1 5.464-9.463c4.12-1.109 8.359 1.341 9.463 5.463l26.941 100.545a7.726 7.726 0 0 1-5.464 9.463 7.726 7.726 0 0 1-9.463-5.463z" fill="#ffc850"></path><path d="m465.63 157.19-86.015 23.048 7.576 28.272c2.043 7.623 7.5 14.105 15.407 16.959 11.609 4.19 20.571 13.582 23.765 25.503l50.751 189.405c2.464 9.194 11.649 15.212 20.949 13.184 9.929-2.166 15.93-12.148 13.33-21.851l-50.395-188.076c-3.274-12.219-1.045-25.608 7.775-36.296 4.937-5.983 6.528-14.056 4.52-21.548l-7.663-28.6z" fill="#ffc850"></path><path d="m498.636 440.378-50.751-189.405c-3.194-11.921-12.157-21.313-23.765-25.503-7.907-2.854-13.364-9.336-15.407-16.959l-9.203-33.603-19.895 5.331 7.575 28.272c2.043 7.623 7.5 14.105 15.407 16.959 11.609 4.19 20.571 13.582 23.765 25.503l50.751 189.405c2.464 9.194 11.649 15.212 20.949 13.183a17.63 17.63 0 0 0 7.114-3.347 18.502 18.502 0 0 1-6.54-9.836z" fill="#f9b428"></path></g></svg>