<svg viewBox="0 0 64 64" xmlns="http://www.w3.org/2000/svg"><g><circle cx="11.5" cy="31.15" fill="#999999" r="2.5"></circle><path d="m11.51 22.81 11.33 8.68s-.95 3.78-7.59 6.66L11 40c-6.82 1.86-10-1.23-10-1.23l4.34-13.99a3.954 3.954 0 0 1 6.17-1.97zM14 31.15a2.5 2.5 0 1 0-5.002.002A2.5 2.5 0 0 0 14 31.15z" fill="#b3b3b3"></path><path d="M54 37s-2.36 4.72-3.46 10.09l-3.83 1.71a3.853 3.853 0 0 1-4.56-1.11 3.854 3.854 0 0 1 .28-5.12l2.09-2.09C49.37 39.37 54 37 54 37z" fill="#f7a539"></path><path d="M44.52 40.48c-1.89.44-3.82.68-5.52.52-4.65-.45-8.05-1.99-9-5-.84-2.64 1-5 1-5s6 3 12 2c5.03-.84 5-2 8-3s5 1 5 1l3-5 4 2-3 5s2 2 2 6-5 8-5 14 2 9 2 9-2 1-5 0c-2.85-.95-4-3-4-10 0-1.62.21-3.3.54-4.91C51.64 41.72 54 37 54 37s-4.63 2.37-9.48 3.48z" fill="#ffcc3e"></path><path d="M52 10c0 3-1 4-1 4s1 1 1 4c0 7-9 9-9 9 4-6 0-9 0-9s3-1 3-4-3-4-3-4 4-2 0-9c0 0 9 2 9 9zM27 27s-9-2-9-9c0-3 1-4 1-4s-1-1-1-4c0-7 9-9 9-9-4 6 0 9 0 9s-3 1-3 4 3 4 3 4-4 2 0 9z" fill="#d84c4c"></path><path d="M43 10s3 1 3 4-3 4-3 4 4 3 0 9c0 0-2-9-8-9s-8 9-8 9c-4-7 0-9 0-9s-3-1-3-4 3-4 3-4-4-3 0-9c0 0 2 9 8 9s8-9 8-9c4 7 0 9 0 9z" fill="#ffcc3e"></path><g fill="#999"><path d="M37 15h-4a1 1 0 1 1 0-2h4a1 1 0 1 1 0 2zM36 56l3-6s-5.67-.14-9 4a27.096 27.096 0 0 1-3.745-1.689L29.6 49.8a1.001 1.001 0 0 0-1.201-1.599l-3.98 2.988a23.802 23.802 0 0 1-2.2-1.679l5.229-2.614a1 1 0 0 0-.895-1.789l-5.865 2.933a22.015 22.015 0 0 1-1.843-2.219l7.398-1.85a1 1 0 0 0-.484-1.94l-8.068 2.017a22.626 22.626 0 0 1-1.121-2.151l8.648-1.92c.539-.12.879-.654.76-1.193a1.005 1.005 0 0 0-1.193-.76l-8.967 1.991a22.214 22.214 0 0 1-.566-1.864l-4.25 1.85c.157.467.365 1.134.652 1.934l-7.359 7.359a.999.999 0 0 0 0 1.414c.594.542 1.219.195 1.414 0l6.754-6.754c.211.477.441.97.708 1.486L7.17 54.447c-.307.46-.168 1.061.277 1.387.572.418 1.194.012 1.387-.277l5.458-8.191c.25.396.521.793.809 1.195l-4.013 9.035c-.224.505.011 1.078.508 1.32.655.32 1.154-.136 1.32-.508l3.581-8.063c.409.467.846.931 1.315 1.387l-1.787 8.052c-.119.539.241 1.004.76 1.193.552.201 1.09-.294 1.193-.76l1.552-6.99c.464.371.955.731 1.472 1.082V62a1 1 0 1 0 2 0v-6.461c.313.172.644.335.974.499l2.064 7.236c.126.439.526.726.961.726.828 0 1.114-.743.963-1.274l-1.605-5.629c.838.329 1.707.638 2.643.903 3 5 11 5 11 5l-4-7z" fill="#999999"></path></g></g></svg>