<svg viewBox="0 0 48 48" xmlns="http://www.w3.org/2000/svg"><g><g><path d="M44.75 10v29A1.758 1.758 0 0 1 43 40.75H28.4a4.727 4.727 0 0 1-8.8 0H5A1.758 1.758 0 0 1 3.25 39V10A1.758 1.758 0 0 1 5 8.25h38A1.758 1.758 0 0 1 44.75 10z" fill="#ffb332"></path><path d="M44.75 10v27.5A1.758 1.758 0 0 1 43 39.25H28.4a4.727 4.727 0 0 1-8.8 0H5a1.758 1.758 0 0 1-1.75-1.75V10A1.758 1.758 0 0 1 5 8.25h38A1.758 1.758 0 0 1 44.75 10z" fill="#ffdc67"></path><path d="M41.75 6v30A1.758 1.758 0 0 1 40 37.75H27.36a2.264 2.264 0 0 0-1.52.59l-1.34 1.21a.078.078 0 0 1-.04.04.292.292 0 0 1-.12.07.201.201 0 0 1-.08.04.701.701 0 0 1-.52 0c-.02 0-.03 0-.04-.01-.02-.01-.03-.01-.04-.03a.291.291 0 0 1-.12-.07c-.01-.02-.03-.03-.04-.04a.73.73 0 0 1-.25-.55V8.12A2.814 2.814 0 0 1 24 6.23a3.181 3.181 0 0 1 .57-.46l.14-.08.03-.02a9.724 9.724 0 0 1 5.07-1.42H40A1.758 1.758 0 0 1 41.75 6z" fill="#e2d8ec"></path><path d="M24.75 8.12V39a.729.729 0 0 1-.25.55.078.078 0 0 1-.04.04.292.292 0 0 1-.12.07c-.01.02-.02.02-.04.03-.01.01-.02.01-.04.01a.701.701 0 0 1-.52 0 .198.198 0 0 1-.08-.04.291.291 0 0 1-.12-.07c-.01-.02-.03-.03-.04-.04l-1.34-1.21a2.265 2.265 0 0 0-1.52-.59H8A1.758 1.758 0 0 1 6.25 36V6A1.758 1.758 0 0 1 8 4.25h10.19a9.724 9.724 0 0 1 5.07 1.42l.03.02.14.08a3.181 3.181 0 0 1 .57.46 2.814 2.814 0 0 1 .75 1.89z" fill="#e2d8ec"></path><path d="M41.75 6v28A1.758 1.758 0 0 1 40 35.75H27.36a2.264 2.264 0 0 0-1.52.59l-1.09.98-.25.23a.078.078 0 0 1-.04.04.292.292 0 0 1-.12.07.201.201 0 0 1-.08.04.701.701 0 0 1-.52 0c-.02 0 .09-31.64.26-31.47a3.181 3.181 0 0 1 .57-.46l.14-.08.03-.02a9.724 9.724 0 0 1 5.07-1.42H40A1.758 1.758 0 0 1 41.75 6z" fill="#f9f5f5"></path><path d="M24.46 37.59a.292.292 0 0 1-.12.07c-.01.02-.02.02-.04.03-.01.01-.02.01-.04.01a.701.701 0 0 1-.52 0 .198.198 0 0 1-.08-.04.291.291 0 0 1-.12-.07c-.01-.02-.03-.03-.04-.04l-.25-.23-1.09-.98a2.265 2.265 0 0 0-1.52-.59H8A1.758 1.758 0 0 1 6.25 34V6A1.758 1.758 0 0 1 8 4.25h10.19a9.724 9.724 0 0 1 5.07 1.42l.03.02.14.08a3.181 3.181 0 0 1 .57.46c.17-.17.48 31.35.46 31.36z" fill="#f9f5f5"></path><g fill="#cdc9d1"><path d="M37.5 27.75h-10a.75.75 0 0 1 0-1.5h10a.75.75 0 0 1 0 1.5zM32.5 31.75h-5a.75.75 0 0 1 0-1.5h5a.75.75 0 0 1 0 1.5zM37.5 19.75h-10a.75.75 0 0 1 0-1.5h10a.75.75 0 0 1 0 1.5zM37.5 23.75h-10a.75.75 0 0 1 0-1.5h10a.75.75 0 0 1 0 1.5zM37.5 11.75h-10a.75.75 0 0 1 0-1.5h10a.75.75 0 0 1 0 1.5zM37.5 15.75h-10a.75.75 0 0 1 0-1.5h10a.75.75 0 0 1 0 1.5zM20.5 27.75h-10a.75.75 0 0 1 0-1.5h10a.75.75 0 0 1 0 1.5zM15.5 31.75h-5a.75.75 0 0 1 0-1.5h5a.75.75 0 0 1 0 1.5zM20.5 19.75h-10a.75.75 0 0 1 0-1.5h10a.75.75 0 0 1 0 1.5zM20.5 23.75h-10a.75.75 0 0 1 0-1.5h10a.75.75 0 0 1 0 1.5zM20.5 11.75h-4a.75.75 0 0 1 0-1.5h4a.75.75 0 0 1 0 1.5zM20.5 15.75h-10a.75.75 0 0 1 0-1.5h10a.75.75 0 0 1 0 1.5z" fill="#cdc9d1"></path></g></g></g></svg>