<svg viewBox="0 0 512 512" xmlns="http://www.w3.org/2000/svg"><g><path d="M239.824 209.326c1.446-.28 77.921-136.324 77.921-136.324-4.584-3.997-9.171-7.99-13.747-11.983H166.092v109.285c29.027 29.973 54.488 42.748 73.732 39.022z" fill="#eaa998"></path><path d="M317.745 73.003 272.6 118.148c-22.273 22.273-33.13 48.17-32.969 73.05.022 3.434-2.459 8.547-10.093 8.248-19.172-.752-45.757-18.394-63.445-29.14v20.604c19.678 11.955 50.367 32.444 69.611 28.719 17.168-3.323 29.876-18.92 40.233-58.272l22.883 22.884 74.795-60.491c-17.789-17.378-36.794-34.113-55.87-50.747z" fill="#e49280"></path><path d="M271.376 109.732c0-19.848-24.579-50.261-54.864-50.261v30.905c12.363 0 39.411 19.595 39.411 19.355a7.726 7.726 0 0 0 7.726 7.726 7.725 7.725 0 0 0 7.727-7.725z" fill="#e49280"></path><path d="M424.509 433.23c24.209-33.801 35.139-76.585 35.139-119.867 0-76.161-38.793-132.356-101.181-184.222-54.699 20.374-75.739 40.418-75.739 109.307v76.483l-66.269 38.26 70.452 40.943z" fill="#f3f0f3"></path><path d="M373.614 123.748a614.003 614.003 0 0 0-15.147 5.392c51.116 51.081 90.879 108.061 90.879 184.222 0 39.641-8.161 70.998-24.703 99.815-2.606 4.54-8.231 6.375-13.032 4.287l-68.024-29.586c-7.136-3.104-8.369-12.678-2.278-17.523 32.335-25.721 50.708-57.115 64.892-113.996 1.33-5.333-1.539-10.999-6.778-12.66-5.724-1.814-11.702 1.593-13.128 7.33-16.976 68.293-38.225 97.492-99.384 132.802v10.302l140.988 51.018c25.529-33.61 42.051-78.561 42.051-131.789 0-78.85-42.62-137.143-96.336-189.614z" fill="#cbc4cc"></path><path d="M168.746 219.723V104.639h37.087l4.67-9.806 77.004-48.31c-2.513-2.225-5.033-4.447-7.524-6.68C256.171 18.498 229.865 0 192.331 0 119.634 0 78.458 77.274 78.458 130.042c0 32.574 13.834 60.391 25.35 77.908l24.361-31.845c21.821 27.369 40.577 43.618 40.577 43.618z" fill="#918291"></path><path d="M287.506 46.522 210.502 84.53l-4.67 9.806h-37.087c-5.69 0-10.302 4.612-10.302 10.302v81.756c0 4.693-5.758 6.946-8.937 3.493a323.334 323.334 0 0 1-21.775-26.348c-2.463-3.329-7.65-2.539-9.006 1.373l-14.917 43.037a171.098 171.098 0 0 0 9.298 12.829c2.528 3.16 7.551 2.277 8.877-1.547l10.306-29.734c11.736 17.026 28.143 33.542 38.077 42.92 3.285 3.101 8.681.765 8.681-3.752V114.941h30.905l4.67-9.806 89.375-44.114a2992.723 2992.723 0 0 1-16.491-14.499z" fill="#7a6d79"></path><path d="M255.922 109.733c0-11.151-17.488-34.808-39.411-34.808-11.815 0-21.392 9.177-21.392 20.499 0 9.129 6.227 16.864 14.834 19.517z" fill="#eaa998"></path><path d="M340.168 170.705h85.617c27.529 0 44.164-29.808 27.498-56.084L387.442 48.78c-4.023-4.023-10.542-4.027-14.565-.004l-84.825 84.825c-27.766 27.766-32.931 62.711-16.712 90.226 7.251-26.726 25.334-53.122 68.828-53.122z" fill="#cbc4cc"></path><path d="M453.283 114.621c8.224 21.252-6.588 45.782-27.498 45.782h-85.617c-48.898 0-66.668 31.635-68.828 63.424 3.046 5.167 6.841 10.074 11.387 14.62 0-31.724 25.717-57.441 57.441-57.441h85.617c34.646.001 51.996-41.887 27.498-66.385z" fill="#b5adb6"></path><path d="m407.478 436.271-191.019-83.08-70.844-30.812c-38.28-16.649-72.053 14.982-71.461 48.214 29.702 52.132 152.519 131.106 228.882 131.106 45.42-.001 89.616-21.275 104.442-65.428z" fill="#918291"></path><path d="M407.478 436.271c-29.645 33.798-64.256 55.126-104.442 55.126-67.563 0-152.224-53.919-228.882-120.805.227 12.729 5.487 25.693 17.481 36.268C163.131 469.903 240.498 512 303.036 512c45.923 0 92.591-24.361 124.862-66.848z" fill="#7a6d79"></path><path d="M211.496 466.192c-4.11-5.52-10.138-9.528-17.116-10.987-54.806-11.454-45.956-20.466-80.345-40.32-20.112-11.612-52.976-14.666-67.108 9.81-8.58 14.86-4.908 30.621 3.794 43.314 33.037 30.081 81.457 34.914 128.31 34.914 18.92.001 37.428-13.827 32.465-36.731z" fill="#dd7f66"></path><path d="M211.496 466.192c-3.104 15.086-16.459 26.43-32.464 26.43-46.853 0-87.459-2.945-128.31-24.612 5.631 8.213 13.363 15.146 21.264 19.708C109.193 509.199 145.849 512 188.479 512c15.851 0 28.701-12.85 28.701-28.701 0-6.417-2.126-12.327-5.684-17.107z" fill="#aa6a51"></path></g></svg>