<svg viewBox="0 0 512 512" xmlns="http://www.w3.org/2000/svg"><g><path d="m389.17 100.986-10.016 100.16h-42.246V92.243z" fill="#845252"></path><path d="M277.587 332.484h-79.393v14.412c0 14.653-9.654 27.556-23.712 31.69l-11.677 3.434-5.914 15.073c23.586 28.497 59.227 46.652 99.109 46.652 38.305 0 72.692-16.755 96.25-43.329z" fill="#fcdbb2"></path><path d="m349.195 382.021-11.677-3.434c-14.058-4.135-23.712-17.037-23.712-31.69v-41.348H198.194v26.936c17.264 9.132 36.916 14.354 57.806 14.354 6.145 0 12.168-.489 18.056-1.391 7.159-1.097 14.404 1.149 19.593 6.202 2.601 2.532 4.703 5.601 5.728 9.083 4.673 15.873 17.116 28.886 33.479 33.699l18.214 5.356z" fill="#f5c89d"></path><path d="m333.297 146.569-114.346-42.311h-12.5c-22.804 0-41.29 18.486-41.29 41.291v27.871c0 9.122-7.395 16.516-16.516 16.516h-11.209c-10.799 0-20.64 7.77-21.716 18.515-1.237 12.358 8.434 22.775 20.538 22.775h12.804c3.808 49.891 41.635 90.267 90.369 97.825 0 0 10.961.195 16.569-.364 57.75-5.756 87.728-42.042 91.958-97.461z" fill="#ffeac6"></path><path d="M374.564 189.935h-11.21c-9.122 0-16.516-7.395-16.516-16.516v-69.161H218.951c8.58 21.176 29.311 36.129 53.565 36.129 2.291 0 4.55-.137 6.77-.401 6.349-.755 12.647.704 17.953 4.272a73.964 73.964 0 0 0 21.577 9.924c6.934 1.916 11.506 8.554 11.506 15.747v53.039c0 53.677-39.438 98.142-90.892 106.083 5.411.841 10.92 1.272 16.569 1.272 56.503 0 102.708-43.678 106.938-99.097h12.804c12.105 0 21.776-10.417 20.538-22.775-1.075-10.746-10.916-18.516-21.715-18.516z" fill="#fcdbb2"></path><path d="M206.452 214.71a8.256 8.256 0 0 1-8.258-8.258v-8.258c0-4.56 3.694-8.258 8.258-8.258s8.258 3.698 8.258 8.258v8.258a8.256 8.256 0 0 1-8.258 8.258zM305.548 214.71a8.256 8.256 0 0 1-8.258-8.258v-8.258a8.256 8.256 0 0 1 8.258-8.258 8.256 8.256 0 0 1 8.258 8.258v8.258a8.256 8.256 0 0 1-8.258 8.258z" fill="#845252"></path><path d="M256 272.516c-12.387 0-23.823-3.976-30.573-10.637-3.25-3.202-3.282-8.431-.081-11.677 3.202-3.25 8.444-3.282 11.677-.081 2.75 2.714 9.371 5.879 18.976 5.879s16.226-3.165 18.976-5.879c3.234-3.202 8.476-3.169 11.677.081 3.202 3.246 3.169 8.476-.081 11.677-6.748 6.661-18.184 10.637-30.571 10.637z" fill="#f5c89d"></path><path d="M198.185 181.677c-4.097 0-7.653-3.044-8.185-7.21-.573-4.524 2.621-8.661 7.145-9.238l18.556-2.371c4.548-.609 8.661 2.625 9.242 7.141.573 4.524-2.621 8.661-7.145 9.238l-18.556 2.371a7.74 7.74 0 0 1-1.057.069zM313.815 181.677c-.347 0-.702-.02-1.056-.069l-18.556-2.371c-4.524-.577-7.718-4.714-7.145-9.238.581-4.516 4.718-7.738 9.242-7.141l18.556 2.371c4.524.577 7.718 4.714 7.145 9.238-.533 4.166-4.09 7.21-8.186 7.21z" fill="#a46a5a"></path><path d="M346.16 25.339c-2.389-.313-4.447-1.619-5.872-3.562-5.993-8.168-15.57-13.519-26.481-13.519a32.745 32.745 0 0 0-14.04 3.148c-2.818 1.333-6.157.915-8.499-1.143C284.04 3.91 274.641 0 264.258 0c-13.366 0-25.134 6.42-32.644 16.29-2.369 3.113-6.435 3.978-10.039 2.457a28.165 28.165 0 0 0-10.994-2.231c-7.918 0-14.066 3.503-17.816 6.423-3.335 2.597-7.173 4.505-11.197 5.798-35.97 11.551-60.856 47.026-56.875 86.835l7.436 75.074c1.725-.417 3.49-.71 5.306-.71h11.21c9.122 0 16.516-7.395 16.516-16.516v-27.871c0-22.804 18.486-41.29 41.29-41.29h22.876c4.855 0 9.339 2.246 12.577 5.864a41.835 41.835 0 0 0 5.975 5.497s45.454 13.575 112.133-22.48c35.127-18.994-.532-64.402-.532-64.402a57.524 57.524 0 0 0-13.32-3.399zM413.502 409.616l-39.514-11.622L256 446.08l-126.378-54.299-30.321 8.918c-24.601 7.236-41.495 29.814-41.495 55.457v31.069c0 13.683 11.092 24.774 24.774 24.774h346.839c2.895 0 5.675-.495 8.258-1.408l8.126-17.153v-40.652c.001-19.961-13.15-37.537-32.301-43.17z" fill="#c6805d"></path><path d="m412.698 400.699-30.32-8.918-14.894 12.833 40.556 11.926c17.571 5.167 29.637 21.292 29.637 39.606v54.445c9.6-3.413 16.516-12.595 16.516-23.366v-31.069c.001-25.643-16.894-48.221-41.495-55.457z" fill="#a46a5a"></path><path d="m360.936 393.677-23.556 2.083c-20.876 20.778-49.595 33.659-81.381 33.659-38.304 0-72.157-18.707-93.195-47.398l-33.183 9.76c26.192 42.356 72.92 70.671 126.378 70.671 47.202 0 89.157-22.076 116.361-56.4z" fill="#e29a6c"></path><path d="M359.48 28.737c4.049 10.503 5.236 22.468 2.108 34.985-5.605 22.43-24.777 39.753-47.663 43.032a58.228 58.228 0 0 1-15.894.109c-9.025-1.187-18.125-.208-26.408 3.567a57.43 57.43 0 0 1-23.743 5.188c6.86 5.177 15.368 8.252 24.637 8.252 5.503 0 10.704-1.157 15.477-3.154 3.031-1.268 6.562-.61 8.831 1.766 11.21 11.743 27.286 18.792 45.021 17.813 27.769-1.532 51.278-23.76 54.206-51.416 2.883-27.225-13.153-51.071-36.572-60.142z" fill="#a46a5a"></path><path d="M349.195 382.021a115.584 115.584 0 0 1-11.814 13.739l34.98 10.291a149.762 149.762 0 0 0 10.017-14.271z" fill="#c6805d"></path></g></svg>