<svg viewBox="0 0 512 512" xmlns="http://www.w3.org/2000/svg"><g><path d="m327.018 101.478-36.918 38.63h46.431c39.853 76.167 156.768 48.737 157.343-38.631-4.295-110.616-162.625-110.585-166.856.001z" fill="#e5e5e5"></path><path d="M416.834 184.161c-30.756 2.749-62.923-10.772-80.306-44.053h14.857c14.635 28.007 39.596 41.899 65.449 44.053zM341.876 101.478l-36.921 38.63H290.1l36.921-38.63c2.229-58.614 47.768-86.175 90.707-82.684-37.964 3.269-73.92 30.83-75.852 82.684z" fill="#d6d6d6"></path><path d="M451.845 93.025h-81.718a32.42 32.42 0 0 1 32.39-32.39h16.938a32.371 32.371 0 0 1 32.39 32.39zM451.845 119.249v10.178a12.936 12.936 0 0 1-12.926 12.926h-55.865a12.936 12.936 0 0 1-12.927-12.926v-10.178z" fill="#fd9133"></path><path d="M463.36 106.137a13.112 13.112 0 0 1-13.112 13.112H370.61a13.112 13.112 0 0 1 0-26.224h79.638a13.112 13.112 0 0 1 13.112 13.112z" fill="#8c421c"></path><path d="M417.354 60.619a32.514 32.514 0 0 0-32.39 32.39h-14.858a32.514 32.514 0 0 1 32.39-32.39zM397.89 142.337h-14.858a12.936 12.936 0 0 1-12.926-12.926v-10.178h14.858v10.178a12.935 12.935 0 0 0 12.926 12.926z" fill="#fd8115"></path><path d="M385.484 119.233h-14.858a13.112 13.112 0 1 1 0-26.224h14.858c-17.255.276-17.319 25.935 0 26.224z" fill="#733617"></path><path d="M79.191 257.707c-25.522 38.755-37.142 87.106-20.726 129.337-25.524-.633-42.831-24-40.041-48.734.051-45.162 16.55-85.488 44.5-117.6a3.3 3.3 0 0 1 .52.446L87.883 245.6c-3.12 3.935-6.018 7.947-8.692 12.107z" fill="#f2bb80"></path><path d="M79.191 257.707c-25.555 38.779-37.144 87.141-20.726 129.337a40.027 40.027 0 0 1-16.27-3.863c-14.263-41.305-2.674-87.881 22.138-125.474a18.127 18.127 0 0 0-2.056-22.857l-6.041-6.041c2.154-2.749 4.383-5.423 6.686-8.1a3.3 3.3 0 0 1 .52.446L87.883 245.6c-3.12 3.935-6.018 7.947-8.692 12.107z" fill="#efb06e"></path><path d="M379.541 387.044h-.075a102.446 102.446 0 0 1-13.966 24.738c-10.252-4.531-45.539-21.172-55.345-24.738H127.85c-9.334 3.333-45.675 20.477-55.345 24.738a108.962 108.962 0 0 1-13.818-24.738h-.222c-18.544-46.9-1.3-102.214 29.418-141.446l-24.441-24.441a3.3 3.3 0 0 0-.52-.446 177.747 177.747 0 0 1 109.2-58.094h93.753a177.735 177.735 0 0 1 109.13 58.094 3.3 3.3 0 0 0-.52.446L350.048 245.6c32.137 42.826 46.44 90.653 29.493 141.444z" fill="#3e8cc7"></path><path d="M365.5 411.782c-54.048 76.557-238.947 76.555-292.995 0l42.2-19.241a251.21 251.21 0 0 1 208.6 0z" fill="#f2bb80"></path><path d="M349.974 428.869c-67.529 58.985-227.77 53.339-277.469-17.087l26.521-12.109c47.248 59.58 176.733 69.312 250.948 29.196z" fill="#efb06e"></path><path d="M365.5 411.782 350.642 493.5H87.363l-14.858-81.718c27.71 36.328 79.266 56.014 139.069 57.425 4.865.222 9.992.222 14.858 0C286.234 467.8 337.79 448.11 365.5 411.782z" fill="#666666"></path><path d="m365.5 411.782-3.491 19.093c-28.3 33.652-78.152 51.853-135.577 53.19-4.829.223-10.029.223-14.858 0C154.149 482.728 104.3 464.527 76 430.875l-3.492-19.093c27.71 36.328 79.266 56.014 139.069 57.425a164.34 164.34 0 0 0 14.858 0C286.234 467.8 337.79 448.11 365.5 411.782z" fill="#575757"></path><path d="M219 424.783a7.429 7.429 0 0 1-7.429-7.429v-5.572a7.429 7.429 0 0 1 14.858 0v5.572a7.43 7.43 0 0 1-7.429 7.429z" fill="#e49949"></path><path d="M226.432 469.207V493.5h-14.858v-24.293c4.865.222 9.992.222 14.858 0z" fill="#595959"></path><path d="M226.432 469.207v14.858c-4.829.223-10.029.223-14.858 0v-14.858a164.34 164.34 0 0 0 14.858 0z" fill="#4a4a4a"></path><path d="M354.656 377.279c-9.715-.427-6.958-10.82-6.866-17.622.163-9.72 14.936-9.528 14.857.181-.347 6.753 1.025 17.11-7.991 17.441zM353.245 340.7a7.429 7.429 0 0 1-7.338-6.33c-3.722-24.934-12.08-48.044-22.356-61.814a7.436 7.436 0 0 1 1.513-10.4c16.271-11 33.241 51.481 35.541 70.015a7.449 7.449 0 0 1-7.36 8.529z" fill="#4398d1"></path><path d="M419.582 338.311c2.791 24.723-14.52 48.109-40.041 48.733 18.277-46.738 1.722-101.6-29.493-141.446l24.441-24.441a3.3 3.3 0 0 1 .52-.446c28.084 32.025 44.491 72.451 44.573 117.6z" fill="#f2bb80"></path><path d="M395.736 383.255a39.919 39.919 0 0 1-16.195 3.789c18.275-46.727 1.709-101.627-29.493-141.446l24.441-24.441a3.3 3.3 0 0 1 .52-.446c2.3 2.675 4.532 5.349 6.686 8.1a28.675 28.675 0 0 0-4.069 35.209c21.894 36.172 31.739 80.303 18.11 119.235z" fill="#efb06e"></path><path d="M265.879 162.617h-93.753c-40.163 5.243-80.33 25.682-109.2 58.094a3.3 3.3 0 0 1 .52.446L87.883 245.6C50.221 293.7 34.99 361.448 72.505 411.782l26.521-12.109c-30.566-45.073-20.172-103.709 9.55-148.939a18.973 18.973 0 0 0-2.676-24.283c-8.4-8.322-6.72-22.037 2.651-28.951 20.366-17.767 49.826-17.934 71.988-2.465 33.3 23.246 84.481 11.7 100.049-29.817-4.829-1.04-9.732-1.932-14.709-2.601z" fill="#347cb3"></path><path d="M167 140.108c-.125 28.114 23.034 52.1 52 52 39.752 1 65.481-45.855 44.647-78.523l-62.689-1.878z" fill="#f2bb80"></path><path d="M261.793 169.155c-9.212 13.744-24.515 23.4-42.79 22.955a52.106 52.106 0 0 1-52-52l15.007-12.48a51.976 51.976 0 0 0 51.853 49.625 48.222 48.222 0 0 0 27.93-8.1z" fill="#efb06e"></path><path d="M205.467 62.542c-30.864 3.427-52.512 32.845-48.391 63.623 1.735 24.869 28.125 10.983 34.755.991a14.826 14.826 0 0 1 12.762-5.407c12.372 1.005 36.049 1.476 56.172-6.584a14.838 14.838 0 0 0 6.285-23.046c-11.27-13.945-32.257-32.833-61.583-29.577z" fill="#595959"></path><path d="M190.55 128.816c-8.1 9.732-31.8 20.875-33.5-2.674a57.3 57.3 0 0 1 24.664-54.9 62.851 62.851 0 0 0-9.732 42.791c1.036 14.486 9.579 17.086 18.568 14.783z" fill="#4a4a4a"></path></g></svg>