<svg id="Capa_1" enable-background="new 0 0 512 512" height="512" viewBox="0 0 512 512" width="512" xmlns="http://www.w3.org/2000/svg"><g><g><path d="m512 128.802-128.585 9-128.585-9-9-23.524 9-27.356h241.686c8.552 0 15.484 6.932 15.484 15.484z" fill="#ff748f"/><path d="m512 179.681-128.585 9-128.585-9-9-21.729 9-29.15h257.17z" fill="#eeeff4"/><path d="m512 281.44-257.17 9-254.83-9v-50.88l254.83-9 257.17 9z" fill="#eeeff4"/><path d="m512 230.56h-257.17l-9-24.474 9-26.405h257.17z" fill="#ff748f"/><path d="m512 332.319-256 9-256-9v-50.879h512z" fill="#ff748f"/><path d="m512 383.198-256 9-256-9v-50.879h512z" fill="#eeeff4"/><path d="m15.484 424.497h481.032c8.552 0 15.484-7.452 15.484-24.484v-16.815h-512v16.815c0 18.581 6.932 24.484 15.484 24.484z" fill="#ff748f"/><path d="m254.83 230.56h-254.83v-137.153c0-8.552 6.932-15.484 15.484-15.484h239.346z" fill="#65add6"/><path d="m496.516 415.497h-481.032c-8.552 0-15.484-6.932-15.484-15.484v18.581c0 8.552 6.932 15.484 15.484 15.484h481.032c8.552 0 15.484-6.932 15.484-15.484v-18.581c0 8.552-6.932 15.484-15.484 15.484z" fill="#ff577f"/></g><g fill="#eeeff4"><path d="m79.2 142.79c-1.455-1.455-3.428-2.273-5.485-2.273-2.058 0-4.031.817-5.486 2.273l-5.767 5.768c-3.029 3.029-3.029 7.941 0 10.97l5.767 5.767c1.514 1.514 3.5 2.272 5.485 2.272s3.97-.758 5.485-2.272l5.768-5.767c1.454-1.454 2.272-3.428 2.272-5.486 0-2.057-.817-4.03-2.272-5.484z"/><path d="m79.2 104.271c-1.455-1.456-3.428-2.272-5.485-2.272-2.058 0-4.031.817-5.486 2.272l-5.767 5.768c-3.029 3.029-3.029 7.941 0 10.97l5.767 5.767c1.514 1.514 3.5 2.272 5.485 2.272s3.97-.758 5.485-2.272l5.768-5.767c1.454-1.454 2.272-3.428 2.272-5.485 0-2.058-.817-4.03-2.272-5.485z"/><path d="m79.199 181.308c-3.03-3.028-7.941-3.028-10.97 0l-5.767 5.767c-3.029 3.029-3.03 7.941 0 10.97l5.767 5.768c1.455 1.456 3.428 2.273 5.486 2.273 2.057 0 4.03-.817 5.485-2.273l5.768-5.768c1.454-1.454 2.272-3.427 2.272-5.485 0-2.057-.818-4.031-2.272-5.485z"/><path d="m44.119 123.531c-1.454-1.455-3.428-2.273-5.486-2.273-2.057 0-4.031.817-5.486 2.273l-5.768 5.768c-1.455 1.454-2.271 3.427-2.271 5.484s.818 4.031 2.272 5.486l5.768 5.767c1.515 1.514 3.5 2.272 5.485 2.272s3.97-.758 5.485-2.272l5.767-5.767c3.029-3.029 3.03-7.941.001-10.97z"/><path d="m44.119 162.049c-1.454-1.455-3.428-2.273-5.486-2.273-2.057 0-4.031.817-5.486 2.273l-5.768 5.768c-1.455 1.454-2.271 3.427-2.271 5.484s.818 4.031 2.272 5.486l5.768 5.767c1.515 1.514 3.5 2.272 5.485 2.272s3.97-.757 5.485-2.272l5.767-5.767c3.029-3.029 3.03-7.941.001-10.97z"/><path d="m149.361 142.79c-1.454-1.455-3.428-2.273-5.485-2.273s-4.031.817-5.486 2.273l-5.768 5.768c-1.454 1.454-2.272 3.427-2.272 5.484s.818 4.031 2.272 5.486l5.768 5.767c1.515 1.514 3.5 2.272 5.485 2.272s3.97-.758 5.485-2.272l5.767-5.767c3.029-3.029 3.03-7.941.001-10.97z"/><path d="m149.361 104.271c-1.454-1.456-3.428-2.272-5.485-2.272s-4.031.817-5.486 2.272l-5.768 5.768c-1.454 1.455-2.272 3.427-2.272 5.485 0 2.057.818 4.031 2.272 5.485l5.768 5.767c1.515 1.514 3.5 2.272 5.485 2.272s3.97-.758 5.485-2.272l5.767-5.767c3.029-3.029 3.03-7.941.001-10.97z"/><path d="m149.36 181.308c-3.029-3.027-7.941-3.029-10.97 0l-5.768 5.767c-1.454 1.454-2.272 3.428-2.272 5.485s.817 4.03 2.272 5.485l5.768 5.768c1.455 1.456 3.428 2.273 5.486 2.273 2.057 0 4.031-.817 5.485-2.273l5.767-5.768c3.029-3.029 3.029-7.941-.001-10.97z"/><path d="m114.28 123.531c-1.455-1.455-3.428-2.273-5.485-2.273s-4.031.817-5.486 2.273l-5.767 5.768c-3.029 3.029-3.029 7.941 0 10.97l5.767 5.767c1.515 1.514 3.5 2.272 5.485 2.272s3.97-.758 5.485-2.272l5.767-5.767c3.029-3.029 3.029-7.941 0-10.97z"/><path d="m114.28 162.049c-1.455-1.455-3.428-2.273-5.485-2.273s-4.031.817-5.486 2.273l-5.767 5.768c-3.029 3.029-3.029 7.941 0 10.97l5.767 5.767c1.515 1.514 3.5 2.272 5.485 2.272s3.97-.757 5.485-2.272l5.767-5.767c3.029-3.029 3.029-7.941 0-10.97z"/><path d="m219.521 142.79c-1.455-1.455-3.428-2.273-5.485-2.273-2.058 0-4.031.817-5.486 2.273l-5.767 5.768c-3.029 3.029-3.029 7.941.001 10.97l5.767 5.767c1.514 1.514 3.5 2.272 5.485 2.272s3.97-.758 5.485-2.272l5.768-5.767c1.454-1.454 2.272-3.428 2.272-5.486 0-2.057-.817-4.03-2.272-5.484z"/><path d="m219.521 104.271c-1.455-1.456-3.428-2.272-5.485-2.272-2.058 0-4.031.817-5.486 2.272l-5.767 5.768c-3.029 3.029-3.029 7.941.001 10.97l5.767 5.767c1.514 1.514 3.5 2.272 5.485 2.272s3.97-.758 5.485-2.272l5.768-5.767c1.454-1.454 2.272-3.428 2.272-5.485 0-2.058-.817-4.03-2.272-5.485z"/><path d="m219.521 181.308c-3.03-3.028-7.941-3.028-10.97 0l-5.767 5.767c-3.029 3.029-3.03 7.941-.001 10.97l5.767 5.768c1.454 1.456 3.428 2.273 5.486 2.273 2.057 0 4.031-.817 5.485-2.273l5.768-5.768c1.454-1.454 2.272-3.427 2.272-5.485 0-2.057-.818-4.031-2.272-5.485z"/><path d="m184.441 123.531c-1.455-1.455-3.428-2.273-5.485-2.273s-4.031.817-5.486 2.273l-5.767 5.768c-3.029 3.029-3.028 7.941.001 10.97l5.767 5.767c1.515 1.514 3.5 2.272 5.485 2.272s3.97-.758 5.485-2.272l5.768-5.767c1.454-1.454 2.272-3.428 2.272-5.486 0-2.057-.817-4.03-2.272-5.484z"/><path d="m184.441 162.049c-1.455-1.455-3.428-2.273-5.485-2.273s-4.031.817-5.486 2.273l-5.767 5.768c-3.029 3.029-3.028 7.941.001 10.97l5.767 5.767c1.515 1.514 3.5 2.272 5.485 2.272s3.97-.757 5.485-2.272l5.768-5.767c1.454-1.454 2.272-3.428 2.272-5.486 0-2.057-.817-4.03-2.272-5.484z"/></g></g></svg>