<svg viewBox="0 0 512 512" xmlns="http://www.w3.org/2000/svg"><g><path clip-rule="evenodd" d="M430.818 69.35c16.828 0 30.467-13.627 30.467-30.41 0-16.813-13.639-30.44-30.467-30.44s-30.467 13.627-30.467 30.44c0 16.783 13.639 30.41 30.467 30.41zM150.002 278.151l-35.427-54.331c-120.864-94.623-169.782 81.143-28.017 64.331zM201.991 223.849c88.832-111.612-86.5-162.463-69.495-9.999l29.552 50.88z" fill="#fe76a8" fill-rule="evenodd"></path><path clip-rule="evenodd" d="m217.224 503.5 21.876-99.047-21.876-93.797h-44.697l-54.705-4.719-10.953 41.294v136.861c0 10.678 8.739 19.408 19.426 19.408zM400.262 484.092V321.51c0-5.958-4.901-10.854-10.864-10.854h-99.49l-26.009 96.452 26.009 96.393h90.928c10.687-.001 19.426-8.732 19.426-19.409z" fill="#99e6fc" fill-rule="evenodd"></path><path clip-rule="evenodd" d="M201.991 223.849c60.963-76.601-2.509-124.591-42.807-97.867 33.212 1.858 61.967 41.619 20.784 98.782l4.842 8.642zM114.576 223.82C45.612 169.843.089 203.851 0 239.925c14.348-20.765 47.826-30.646 93.202-1.327 1.83-2.832 4.34-5.28 7.499-7.02z" fill="#fe5694" fill-rule="evenodd"></path><path clip-rule="evenodd" d="M217.224 310.656h72.684V503.5h-72.684z" fill="#fe76a8" fill-rule="evenodd"></path><path clip-rule="evenodd" d="M400.262 357.79v-36.28c0-5.958-4.901-10.854-10.864-10.854h-43.84c5.964 0 10.864 4.896 10.864 10.854V484.091c0 10.678-8.768 19.408-19.455 19.408h43.87c10.687 0 19.426-8.731 19.426-19.408V357.79z" fill="#2ed1e2" fill-rule="evenodd"></path><path d="M89.865 256.058a7.604 7.604 0 0 1-2.601-.46c-10.948-3.98-19.574-6.336-36.34-8.17a7.61 7.61 0 0 1-6.738-8.391c.457-4.176 4.213-7.189 8.395-6.734 16.192 1.772 26.257 4.042 39.886 8.996a7.608 7.608 0 0 1-2.602 14.759zM166.455 214.38a7.609 7.609 0 0 1-7.597-8.209c.982-12.383 6.79-29.734 13.811-41.258a7.612 7.612 0 0 1 10.459-2.541 7.605 7.605 0 0 1 2.543 10.454c-5.736 9.416-10.848 24.591-11.637 34.547-.315 3.983-3.649 7.007-7.579 7.007z" fill="#fe0263"></path><path d="M344.257 274.639a7.59 7.59 0 0 1-5.159-2.016 7.605 7.605 0 0 1-.434-10.75c32.587-35.307 22.927-128.325 22.826-129.261a7.61 7.61 0 0 1 6.748-8.383c4.182-.448 7.934 2.568 8.387 6.744.444 4.1 10.455 100.883-26.771 141.216a7.595 7.595 0 0 1-5.597 2.45zM421.406 168.625a7.663 7.663 0 0 1-1.703-.193c-4.092-.937-6.654-5.001-5.725-9.092.168-.739 4.259-18.327 17.135-38.033 17.148-26.243 41.875-43.851 71.507-50.92a7.608 7.608 0 1 1 3.535 14.799c-25.963 6.194-46.822 20.994-61.998 43.988-11.533 17.475-15.3 33.39-15.337 33.548a7.625 7.625 0 0 1-7.414 5.903z" fill="#e0d2ce"></path><path clip-rule="evenodd" d="m338.531 74.777 14.938-17.992c3.07-3.481 2.864-4.513-1.653-5.634l-23.204-5.752c-2.627-.649-2.775-1.357-4.074-3.481l-11.72-19.556c-2.362-3.982-3.808-3.982-6.2 0l-11.72 19.556c-1.269 2.124-1.447 2.832-4.074 3.481l-23.204 5.752c-4.487 1.121-4.724 2.153-1.653 5.634l14.968 17.992c1.594 1.917 1.83 4.159 1.624 6.873l-1.801 22.24c-.502 4.601.472 5.162 4.783 3.422l20.4-8.495c2.126-.885 5.462-.885 7.558 0l20.429 8.495c4.31 1.74 5.255 1.18 4.753-3.422l-1.771-22.24c-.209-2.714-.003-4.956 1.621-6.873z" fill="#fece85" fill-rule="evenodd"></path><path clip-rule="evenodd" d="M310.574 56.224c-3.041 19.467-9.506 36.427-17.329 47.872l12.695-5.28c2.126-.885 5.462-.885 7.558 0l20.429 8.495c4.31 1.74 5.255 1.18 4.753-3.422l-1.771-22.24c-.207-2.714 0-4.955 1.624-6.873l14.938-17.992c3.07-3.481 2.864-4.513-1.653-5.634l-23.204-5.752c-2.627-.649-2.775-1.357-4.074-3.481l-11.72-19.556a14.82 14.82 0 0 0-1.063-1.593c1.119 10.591.824 22.744-1.183 35.456z" fill="#fdb440" fill-rule="evenodd"></path><path clip-rule="evenodd" d="m487.382 249.658 14.938-17.992c3.1-3.48 2.864-4.513-1.653-5.634l-23.204-5.752c-2.598-.649-2.775-1.357-4.045-3.48l-11.72-19.556c-2.391-3.982-3.838-3.982-6.2 0l-11.75 19.556c-1.269 2.124-1.447 2.832-4.045 3.48l-23.204 5.752c-4.517 1.121-4.753 2.153-1.653 5.634l14.938 17.992c1.624 1.917 1.83 4.159 1.624 6.873l-1.801 22.21c-.472 4.631.472 5.191 4.783 3.451l20.4-8.495c2.126-.885 5.462-.885 7.587 0l20.4 8.495c4.31 1.74 5.255 1.18 4.783-3.451l-1.801-22.21c-.207-2.714-.001-4.955 1.623-6.873z" fill="#fece85" fill-rule="evenodd"></path><path clip-rule="evenodd" d="M459.454 231.105c-3.07 19.467-9.506 36.427-17.359 47.872l12.695-5.28c2.126-.885 5.462-.885 7.587 0l20.4 8.495c4.31 1.74 5.255 1.18 4.783-3.451l-1.801-22.21c-.207-2.714 0-4.955 1.624-6.873l14.938-17.992c3.1-3.48 2.864-4.513-1.653-5.634l-23.204-5.752c-2.598-.649-2.775-1.357-4.045-3.48l-11.72-19.556a13.992 13.992 0 0 0-1.092-1.622c1.15 10.618.825 22.771-1.153 35.483z" fill="#fdb440" fill-rule="evenodd"></path><path clip-rule="evenodd" d="M461.284 38.94c0-16.813-13.639-30.44-30.467-30.44a30.307 30.307 0 0 0-15.233 4.07c9.122 5.25 15.233 15.102 15.233 26.369 0 11.238-6.111 21.09-15.233 26.34a30.297 30.297 0 0 0 15.233 4.07c16.828.001 30.467-13.626 30.467-30.409z" fill="#fe5694" fill-rule="evenodd"></path><path clip-rule="evenodd" d="m102.826 279.066 49.715-9.439 32.268-36.221-10.362-18.553a21.051 21.051 0 0 0-8.001-8.082c-6.259-3.569-14.23-3.893-20.961-.147l-12.99 7.227-17.92 9.97-13.875 7.757c-6.436 3.569-10.274 10.029-10.835 16.872a20.88 20.88 0 0 0 2.598 12.034z" fill="#fece85" fill-rule="evenodd"></path><path clip-rule="evenodd" d="m214.774 287.118 86.972-48.432c7.174-4.011 9.772-13.126 5.786-20.293l-15.44-27.667c-4.015-7.167-13.137-9.763-20.311-5.752l-69.79 38.876-17.182 9.557v36.221zM45.818 381.24l86.972-48.462 2.48-36.221-32.445-17.491-16.267 9.085-70.735 39.377c-7.144 3.982-9.742 13.096-5.757 20.264l15.44 27.697c3.987 7.137 13.139 9.732 20.312 5.751z" fill="#01d0fb" fill-rule="evenodd"></path><path clip-rule="evenodd" d="m179.967 224.764-5.521-9.911a21.051 21.051 0 0 0-8.001-8.082c-6.259-3.569-14.23-3.893-20.961-.147l-12.99 7.227-12.34 6.873c6.731-3.746 14.673-3.422 20.961.147a21.267 21.267 0 0 1 8.001 8.082l10.362 18.582 25.33-14.128z" fill="#fdb440" fill-rule="evenodd"></path><path clip-rule="evenodd" d="M301.746 238.686c7.174-4.011 9.772-13.126 5.786-20.293l-15.44-27.667c-4.015-7.167-13.137-9.763-20.311-5.752l-34.895 19.438c7.174-4.011 16.296-1.416 20.282 5.752l15.44 27.667c3.986 7.168 1.417 16.252-5.698 20.264z" fill="#00b1cd" fill-rule="evenodd"></path><path clip-rule="evenodd" d="m214.774 287.118-29.965-53.712-81.983 45.66 29.965 53.712c27.367-15.25 54.616-30.41 81.983-45.66z" fill="#fe5694" fill-rule="evenodd"></path></g></svg>