<svg viewBox="0 0 33.867 33.867" xmlns="http://www.w3.org/2000/svg"><g><path d="m24.523 2.12-4.037 6.077c-.53.798-.271 2.1.444 2.576 1.007.721 2.099.425 2.994-.47l2.583-2.56 2.582 2.56c.896.895 1.987 1.191 2.994.47.715-.475.974-1.778.444-2.576L28.49 2.12c-.936-1.395-3.002-1.437-3.967 0z" fill="#0ecf75" paint-order="markers fill stroke"></path><path d="M26.506 5.062a2.381 2.381 0 0 0-2.381 2.381c0 11.714-3.913 16.473-8.29 18.881-4.375 2.408-9.556 2.771-12.396 2.771-1.314 0-2.38.537-2.38 1.852-.001 1.316 1.065 1.854 2.38 1.854 2.524 0 9.984.287 14.694-2.305C23.95 27.295 28.889 20.3 28.889 7.443a2.381 2.381 0 0 0-2.383-2.38z" fill="#59d96b" paint-order="fill markers stroke"></path></g></svg>