<svg viewBox="0 0 48 48" xmlns="http://www.w3.org/2000/svg"><g><g><path d="M47 7v34H7a6 6 0 0 0 6-6V7z" fill="#ffba55"></path><circle cx="7" cy="35" fill="#ffba55" r="6"></circle><path d="M13 7v28a6 6 0 0 0-12 0V7a6 6 0 0 1 12 0z" fill="#ffcc66"></path><path d="M13 7v28a6 6 0 0 0-12 0V7a6 6 0 0 1 12 0z" fill="#f16f39"></path><path d="M13 7v28a6 6 0 0 0-6-6 2.86 2.86 0 0 1-3-2.81V7a6 6 0 0 1 4.5-5.8A6 6 0 0 1 13 7z" fill="#f8834b"></path><path d="M47 7v31h-4v-4h2v-6h-8a4 4 0 0 0 4-4v-2h-4a4 4 0 0 0-4 4 4 4 0 0 0-4-4h-4v2a4 4 0 0 0 4 4h-8v6h2v4H12.19c1.11-1.88.81-.84.81-31z" fill="#ffcc66"></path><path d="M23 27h24v6H23z" fill="#f16f39"></path><path d="M47 27v4H30a4 4 0 0 1-4-4z" fill="#f8834b"></path><path d="M25 33h20v14H25z" fill="#f16f39"></path><path d="M45 35v10h-9c-7.7 0-10.14-10-6-10z" fill="#f8834b"></path><path d="M39 21h4v2a4 4 0 0 1-4 4h-4v-2a4 4 0 0 1 4-4z" fill="#b5e08c"></path><path d="M35 25v2h-4a4 4 0 0 1-4-4v-2h4a4 4 0 0 1 4 4z" fill="#9dcc6b"></path><path d="M35 25v2h-2a4 4 0 0 1-4-4v-2h2a4 4 0 0 1 4 4z" fill="#b5e08c"></path><path d="M32 27h6v6h-6z" fill="#9dcc6b"></path><path d="M32 27h6v4h-6z" fill="#b5e08c"></path><path d="M33 33h4v14h-4z" fill="#9dcc6b"></path><path d="M37 35v10a9.18 9.18 0 0 1-4-.58V35z" fill="#b5e08c"></path><circle cx="7" cy="35" fill="#f16f39" r="2"></circle></g></g></svg>