<svg viewBox="0 0 68 68" xmlns="http://www.w3.org/2000/svg"><g><path d="M33.089 34.456h1.562v31.545h-1.562zM42.02 50.552c-1.358 1.357-3.585 1.47-4.695 1.424a.746.746 0 0 1-.72-.72c-.037-1.11.068-3.336 1.425-4.686 1.357-1.357 3.584-1.47 4.694-1.425.39.015.705.322.72.72.038 1.11-.067 3.337-1.425 4.687z" fill="#7bd681"></path><path d="m33.933 55.587 6.131-6.133a.604.604 0 1 0-.854-.854l-5.277 5.28zM25.98 53.216c1.358 1.358 3.585 1.47 4.695 1.425a.746.746 0 0 0 .72-.72c.037-1.11-.068-3.337-1.425-4.686-1.357-1.358-3.584-1.47-4.694-1.425a.745.745 0 0 0-.72.72c-.038 1.11.067 3.337 1.425 4.686z" fill="#7bd681"></path><path d="m34.067 58.251-6.131-6.132a.604.604 0 1 1 .854-.854l5.277 5.28v1.706z" fill="#7bd681"></path><circle cx="34" cy="42.685" fill="#3d4a75" r="1.978"></circle><path d="m43.906 26.825-.107.147a20.385 20.385 0 0 0-1.866 3.126 18.73 18.73 0 0 0-1.367 3.8c-.066.253-.12.513-.173.773a1.15 1.15 0 0 1-1.133.913h-10.5a1.145 1.145 0 0 1-1.133-.926c-.52-2.767-1.66-5.393-3.393-7.64a12.288 12.288 0 0 1-2.533-7.486c0-2.247.6-4.353 1.66-6.16a12.295 12.295 0 0 1 8.3-5.92c.832-.159 1.692-.24 2.579-.212.167 0 .34.006.513.013.88.053 1.74.2 2.567.433 4.906 1.387 8.613 5.787 8.953 11.033.2 3.04-.714 5.866-2.367 8.106z" fill="#fdc72e"></path><path d="M28.59 35.586h10.822v5.034c0 1.14-.925 2.065-2.065 2.065h-6.693a2.065 2.065 0 0 1-2.065-2.065v-5.034z" fill="#4f5d99"></path><path d="M39.998 37.752c0 .258-.21.468-.467.468H28.469a.467.467 0 0 1 0-.935h11.062c.258 0 .467.21.467.467zM39.998 39.976c0 .259-.21.468-.467.468H28.469a.467.467 0 1 1 0-.935h11.062c.258 0 .467.21.467.467z" fill="#3d4a75"></path><path d="M36.51 35.586H35.41V25.43H32.59v10.155H31.49V25.43h-1.356a2.452 2.452 0 0 1-2.45-2.45v-.087a2.452 2.452 0 0 1 4.905 0v1.44h2.822v-1.44a2.452 2.452 0 0 1 4.904 0v.087c0 1.351-1.099 2.45-2.45 2.45H36.51zm0-11.253h1.356c.745 0 1.351-.606 1.351-1.352v-.087a1.353 1.353 0 0 0-2.707 0zm-6.371-2.79c-.75 0-1.356.606-1.356 1.351v.087c0 .746.606 1.352 1.351 1.352h1.356v-1.439c0-.745-.606-1.351-1.351-1.351zM25.76 4.647l1.312 2.273a.603.603 0 1 1-1.046.604L24.714 5.25a.603.603 0 0 1 1.046-.604zM19.124 10.841l2.273 1.313a.603.603 0 1 1-.604 1.045l-2.273-1.312a.603.603 0 0 1 .604-1.046zM47.205 27.054l2.273 1.312a.603.603 0 1 1-.604 1.046L46.6 28.1a.603.603 0 0 1 .604-1.046zM16.474 19.524h2.624a.603.603 0 1 1 0 1.207h-2.624a.603.603 0 0 1 0-1.207zM48.899 19.524h2.624a.603.603 0 1 1 0 1.207H48.9a.603.603 0 0 1 0-1.207zM18.52 28.368l2.273-1.313a.603.603 0 1 1 .604 1.046l-2.273 1.312a.603.603 0 0 1-.604-1.045zM46.601 12.155l2.273-1.312a.603.603 0 1 1 .604 1.045l-2.273 1.313a.603.603 0 0 1-.604-1.046zM40.927 6.923l1.312-2.273a.603.603 0 1 1 1.046.603l-1.313 2.273a.603.603 0 0 1-1.045-.603zM33.396 5.228V2.604a.603.603 0 1 1 1.208 0v2.624a.603.603 0 0 1-1.208 0z" fill="#f9ac00"></path><path d="M46.646 66.001c-.758-1.56-2.344-2.648-4.19-2.648a4.66 4.66 0 0 0-2.61.8c-1.27-1.943-3.456-3.23-5.94-3.23s-4.68 1.287-5.949 3.222a4.62 4.62 0 0 0-2.6-.792c-1.847 0-3.433 1.088-4.19 2.648z" fill="#e9e9ff"></path><g opacity=".2"><path d="m40.63 33.673-.06.22c-.07.26-.12.52-.18.78-.1.53-.58.91-1.13.91h-8.89l-7.29-21.69c.08-.18.18-.35.28-.52 1.75-3.03 4.75-5.23 8.3-5.92.05-.01.09-.02.14-.02zM44.12 26.523l-.21.3c-.04.05-.08.1-.11.15-.63.88-1.21 1.81-1.69 2.77l-7.57-22.49c.07-.01.14 0 .21 0 .88.05 1.74.2 2.57.43.17.05.34.1.51.17z" fill="#ffffff"></path></g></g></svg>