<svg viewBox="0 0 64 64" xmlns="http://www.w3.org/2000/svg"><g><g><path d="M32 10.591A21.846 21.846 0 0 1 44 7l-1.172 1.172A9.656 9.656 0 0 0 40 15a9.783 9.783 0 0 0 6.078-4.561A17.007 17.007 0 0 1 60.769 2H62l-2.3 2.3A23.5 23.5 0 0 0 53 18a7.218 7.218 0 0 0 6.12-3.392L62 10v4.292A10.855 10.855 0 0 1 56 24h6a20.466 20.466 0 0 1-13.048 19.074l-3.391 1.319L28 43l-4.7-28.107z" fill="#ec525b"></path><path d="M30.572 40.194 26.625 16.6l6.869-3.4.154-.1a18.8 18.8 0 0 1 3.952-1.983A12.7 12.7 0 0 0 37 15v3.843l3.728-.933a12.46 12.46 0 0 0 7.862-5.822 14.015 14.015 0 0 1 5.3-5.274 26.624 26.624 0 0 0-3.865 10.814L49.6 21H53a10.281 10.281 0 0 0 2.814-.39c-.2.144-1.059 1.18-1.873 2.129a2.956 2.956 0 0 0-.2 3.58 2.957 2.957 0 0 0 3.268 1.181l1.738-.5a17.339 17.339 0 0 1-10.882 13.278l-2.751 1.07z" fill="#fc6372"></path><path d="M37.553 22.67 40 19l2 3 7-6v1a15 15 0 0 1-3 9 5.284 5.284 0 0 0 4.773 1.445L53 27a9 9 0 0 1-7.39 8.856z" fill="#ffaebe"></path><path d="M20 12h8v9.363h-8zM9.728 23.257l-2.779-3.335.433-2.687h2.995l2.94 3.528.971 4.705z" fill="#578ff2"></path><path d="M32 14H16v-4h16zM11.761 16.15l-6.296 4.936-2.468-3.148 6.296-4.936z" fill="#3a64db"></path><circle cx="24" cy="40" fill="#3a64db" r="22"></circle><circle cx="24" cy="40" fill="#fadd60" r="18"></circle><path d="M24 22a17.944 17.944 0 0 0-12.757 5.3 18 18 0 0 0 28.514 21.4A18 18 0 0 0 24 22z" fill="#ffeb99"></path><path d="m24.373 38.206 7.912-7.913 1.414 1.414-7.912 7.913z" fill="#3a64db"></path><g fill="#f19537"><path d="M26 30v-7.883a17.153 17.153 0 0 0-4 0V30zM22 50v7.883a17.153 17.153 0 0 0 4 0V50zM41.883 38H34v4h7.883a17.153 17.153 0 0 0 0-4zM14 38H6.117a17.153 17.153 0 0 0 0 4H14z" fill="#f19537"></path><circle cx="24" cy="40" fill="#f19537" r="3"></circle></g></g></g></svg>