<svg viewBox="0 0 64 64" xmlns="http://www.w3.org/2000/svg"><g><path d="M50 26a24 24 0 1 0-46.235 9.042A47.073 47.073 0 0 1 7 52.838v2.91A6.166 6.166 0 0 0 12.815 62 6 6 0 0 0 19 56v-4.517a1.972 1.972 0 0 1 2.347-1.94l.04.008A1.979 1.979 0 0 1 23 51.491v2.339A3.114 3.114 0 0 0 25.839 57 3 3 0 0 0 29 54v-2.509a1.973 1.973 0 0 1 1.6-1.937l.056-.011A1.971 1.971 0 0 1 33 51.478v4.27A6.166 6.166 0 0 0 38.815 62 6 6 0 0 0 45 56v-3.36a46.13 46.13 0 0 1 3.213-17.54A23.9 23.9 0 0 0 50 26z" fill="#3b5892"></path><path d="M45 26a19 19 0 1 0-36.819 6.581A43.925 43.925 0 0 1 11 47.893a2.075 2.075 0 0 0 1.664 2.08A2 2 0 0 0 15 48a4.051 4.051 0 0 1 5.236-3.9 18.947 18.947 0 0 0 11.63-.033A3.969 3.969 0 0 1 37 47.893a2.075 2.075 0 0 0 1.664 2.08A2 2 0 0 0 41 48v-.106A44.7 44.7 0 0 1 43.848 32.5 18.829 18.829 0 0 0 45 26z" fill="#e2e7f6"></path><path d="M23.888 7.114A18.988 18.988 0 0 0 8.181 32.581a45.593 45.593 0 0 1 1.947 6.829A20.692 20.692 0 0 0 34.364 8.942a19.006 19.006 0 0 0-10.476-1.828z" fill="#f2f2f2"></path><path d="m27.418 27.8 1.162-1.628 7.003 4.997-1.162 1.628z" fill="#b52f28"></path><g fill="#5e87ca"><path d="M26 13a2 2 0 1 1 2-2 2 2 0 0 1-2 2zM41 28a2 2 0 1 1 2-2 2 2 0 0 1-2 2zM26 43a2 2 0 1 1 2-2 2 2 0 0 1-2 2z" fill="#5e87ca"></path></g><path d="M24 23.765V18l2-3 2 3v5.765a3 3 0 0 0-4 0zM23.764 28a3 3 0 0 1 0-4H14l-3 2 3 2z" fill="#f0ae42"></path><circle cx="26" cy="26" fill="#3b5892" r="3"></circle><path d="M15 33v5a2 2 0 0 0 2 2 2 2 0 0 0 2-2v-5M34 34v5a2 2 0 0 0 2 2 2 2 0 0 0 2-2v-5" fill="#c8cded"></path><path d="M53.5 55h3a1.5 1.5 0 0 1 1.5 1.5 1.5 1.5 0 0 0 1.5 1.5h.5a2 2 0 0 1 2 2 2 2 0 0 1-2 2H50a2 2 0 0 1-2-2 2 2 0 0 1 2-2h.5a1.5 1.5 0 0 0 1.5-1.5 1.5 1.5 0 0 1 1.5-1.5z" fill="#78a0d4"></path><path d="M26 22v-7l-2 3v4zM21.178 24H14l-3 2h10.178z" fill="#f9d266"></path></g></svg>