<svg id="Capa_1" enable-background="new 0 0 497 497" height="512" viewBox="0 0 497 497" width="512" xmlns="http://www.w3.org/2000/svg"><g><path d="m417.25 105c-5.467 0-10.587 1.469-15.001 4.023v169.477l45.001-30v-113.5c0-16.569-13.431-30-30-30z" fill="#d98779"/><path d="m402.249 109.023c-8.964 5.188-14.999 14.874-14.999 25.977h-30v143.5h60v-143.5c0-11.103-6.036-20.789-15.001-25.977z" fill="#ed9587"/><path d="m357.25 30c-5.467 0-10.587 1.469-15.001 4.023v244.477h45.001v-218.5c0-16.569-13.431-30-30-30z" fill="#d98779"/><path d="m342.249 34.023c-8.964 5.187-14.999 14.874-14.999 25.977h-30v218.5h60v-218.5c0-11.103-6.036-20.789-15.001-25.977z" fill="#ed9587"/><path d="m297.25 0c-5.467 0-10.587 1.469-15.001 4.023v274.477h45.001v-248.5c0-16.569-13.431-30-30-30z" fill="#d98779"/><path d="m282.249 4.023c-8.964 5.187-14.999 14.874-14.999 25.977v169.264h-30v79.236h60v-248.5c0-11.103-6.036-20.789-15.001-25.977z" fill="#ed9587"/><path d="m417.25 248.5-120 248.5c82.843 0 150-67.157 150-150v-98.5z" fill="#d98779"/><path d="m192.25 124.264 45 154.236 30-30v-49.236c0-41.422-33.579-75-75-75z" fill="#d98779"/><path d="m237.25 248.5v-49.236c0-41.421-20.147-75-45-75-41.421 0-75 33.579-75 75v15c0 16.568 13.431 30 30 30 16.568 0 30-13.431 30-30v-15c0-8.284 6.716-15 15-15s15 6.716 15 15v127.649c0 8.284-6.716 15-15 15s-15-6.716-15-15v-15l-36.213 51.153 156.213 133.934c66.274 0 120-67.157 120-150v-98.5z" fill="#ed9587"/><path d="m326.96 431.91v35.36c0 16.41-13.29 29.72-29.7 29.73-41.44 0-78.93-16.79-106.08-43.93l-56.36-56.36c-11.25-11.26-17.57-26.52-17.57-42.43v-50.02c0-16.56 13.43-30 30-30s30 13.44 30 30v22.65c0 8.29 6.72 15 15 15h44.71c49.71 0 90 40.3 90 90z" fill="#d98779"/><path d="m87.25 278.014h-7.5v-37.5h7.5c4.143 0 7.5-3.358 7.5-7.5s-3.357-7.5-7.5-7.5h-30c-4.143 0-7.5 3.358-7.5 7.5s3.357 7.5 7.5 7.5h7.5v37.5h-7.5c-4.143 0-7.5 3.358-7.5 7.5s3.357 7.5 7.5 7.5h30c4.143 0 7.5-3.358 7.5-7.5s-3.357-7.5-7.5-7.5z" fill="#8c4e45"/></g></svg>