<svg viewBox="0 0 512.029 512.029" xmlns="http://www.w3.org/2000/svg"><g><path d="M331.014 105.019v332c0 8.28-6.72 15-15 15h-150c-8.28 0-15-6.72-15-15v-332c0-8.28 6.72-15 15-15h150c8.28 0 15 6.72 15 15z" fill="#35569b"></path><path d="M331.014 256.019v181c0 8.28-6.72 15-15 15h-150c-8.28 0-15-6.72-15-15v-181z" fill="#1a3459"></path><path d="m503.694 91.589-181-90c-9.99-4.97-21.68 2.33-21.68 13.43v482c0 10.22 10.02 17.45 19.72 14.24l181-60a15 15 0 0 0 10.28-14.24v-332c0-5.69-3.22-10.9-8.32-13.43z" fill="#fe5957"></path><path d="M512.014 256.019v181a15 15 0 0 1-10.28 14.24l-181 60c-9.7 3.21-19.72-4.02-19.72-14.24v-241z" fill="#fc1c5c"></path><path d="M391.014 226.019v60c0 8.28-6.72 15-15 15s-15-6.72-15-15v-60c0-8.28 6.72-15 15-15s15 6.72 15 15z" fill="#35569b"></path><path d="M391.014 256.019v30c0 8.28-6.72 15-15 15s-15-6.72-15-15v-30z" fill="#1a3459"></path><path d="m235.014 244.019-120-90c-9.88-7.41-24-.33-24 12v45h-76c-8.28 0-15 6.72-15 15v60c0 8.28 6.72 15 15 15h76v45c0 12.39 14.19 19.36 24 12l120-90c4-3 6-7.5 6-12s-2-9-6-12z" fill="#ffda2d"></path><path d="M241.014 256.019c0 4.5-2 9-6 12l-120 90c-9.81 7.36-24 .39-24-12v-45h-76c-8.28 0-15-6.72-15-15v-30z" fill="#fdbf00"></path></g></svg>