<svg id="Capa_1" enable-background="new 0 0 510 510" height="512" viewBox="0 0 510 510" width="512" xmlns="http://www.w3.org/2000/svg" xmlns:xlink="http://www.w3.org/1999/xlink"><linearGradient id="lg1"><stop offset="0" stop-color="#ff7044"/><stop offset="1" stop-color="#f82814"/></linearGradient><linearGradient id="SVGID_1_" gradientUnits="userSpaceOnUse" x1="255" x2="255" xlink:href="#lg1" y1="83.824" y2="117.677"/><linearGradient id="SVGID_2_" gradientUnits="userSpaceOnUse" x1="255" x2="255" xlink:href="#lg1" y1="153.014" y2="249.635"/><linearGradient id="SVGID_3_" gradientUnits="userSpaceOnUse" x1="87.976" x2="163.122" xlink:href="#lg1" y1="303.552" y2="303.552"/><linearGradient id="lg2"><stop offset="0" stop-color="#534854"/><stop offset="1" stop-color="#342434"/></linearGradient><linearGradient id="SVGID_4_" gradientUnits="userSpaceOnUse" x1="114.387" x2="149.269" xlink:href="#lg2" y1="460.413" y2="460.413"/><linearGradient id="SVGID_5_" gradientUnits="userSpaceOnUse" x1="346.882" x2="422.028" xlink:href="#lg1" y1="303.552" y2="303.552"/><linearGradient id="SVGID_6_" gradientUnits="userSpaceOnUse" x1="373.293" x2="408.175" xlink:href="#lg2" y1="460.413" y2="460.413"/><linearGradient id="lg3"><stop offset="0" stop-color="#f82814" stop-opacity="0"/><stop offset="1" stop-color="#c0272d"/></linearGradient><linearGradient id="SVGID_7_" gradientUnits="userSpaceOnUse" x1="255" x2="255" xlink:href="#lg3" y1="96.844" y2="70.43"/><linearGradient id="SVGID_8_" gradientUnits="userSpaceOnUse" x1="255" x2="255" xlink:href="#lg2" y1="47.741" y2="82.368"/><linearGradient id="lg4"><stop offset="0" stop-color="#ffd945"/><stop offset=".3043" stop-color="#ffcd3e"/><stop offset=".8558" stop-color="#ffad2b"/><stop offset="1" stop-color="#ffa325"/></linearGradient><linearGradient id="SVGID_9_" gradientUnits="userSpaceOnUse" x1="238.26" x2="282.514" xlink:href="#lg4" y1="109.491" y2="153.745"/><linearGradient id="SVGID_10_" gradientTransform="matrix(-1 0 0 -1 510 348)" gradientUnits="userSpaceOnUse" x1="246.105" x2="269.621" xlink:href="#lg4" y1="212.874" y2="236.39"/><linearGradient id="SVGID_11_" gradientUnits="userSpaceOnUse" x1="138.689" x2="121.949" xlink:href="#lg3" y1="157.01" y2="90.796"/><linearGradient id="SVGID_12_" gradientUnits="userSpaceOnUse" x1="397.595" x2="380.855" xlink:href="#lg3" y1="157.01" y2="90.796"/><linearGradient id="SVGID_13_" gradientUnits="userSpaceOnUse" x1="213.652" x2="155.993" xlink:href="#lg3" y1="203.213" y2="175.685"/><linearGradient id="SVGID_14_" gradientUnits="userSpaceOnUse" x1="453.355" x2="413.662" xlink:href="#lg3" y1="194.045" y2="175.095"/><g><path d="m443.321 105.027h-376.642c-13.251 0-23.993-10.742-23.993-23.993v-16.74c0-13.251 10.742-23.993 23.993-23.993h376.641c13.251 0 23.993 10.742 23.993 23.993v16.74c.001 13.251-10.741 23.993-23.992 23.993z" fill="url(#SVGID_1_)"/><path d="m443.321 212.161h-376.642c-13.251 0-23.993-10.742-23.993-23.993v-16.74c0-13.251 10.742-23.993 23.993-23.993h376.641c13.251 0 23.993 10.742 23.993 23.993v16.74c.001 13.251-10.741 23.993-23.992 23.993z" fill="url(#SVGID_2_)"/><g><g><path d="m86.488 105.027h78.118v397.049h-78.118z" fill="url(#SVGID_3_)"/><path d="m163.955 502.076h-76.816c-5.29 0-9.579-4.289-9.579-9.579v-64.169c0-5.29 4.288-9.579 9.579-9.579h76.816c5.29 0 9.579 4.289 9.579 9.579v64.169c0 5.29-4.289 9.579-9.579 9.579z" fill="url(#SVGID_4_)"/></g><g><path d="m345.394 105.027h78.118v397.049h-78.118z" fill="url(#SVGID_5_)"/><path d="m422.861 502.076h-76.816c-5.29 0-9.579-4.289-9.579-9.579v-64.169c0-5.29 4.288-9.579 9.579-9.579h76.816c5.29 0 9.579 4.289 9.579 9.579v64.169c0 5.29-4.289 9.579-9.579 9.579z" fill="url(#SVGID_6_)"/></g></g><path d="m443.321 40.301h-376.642c-13.251 0-23.993 10.742-23.993 23.993l40.733 40.733h359.902c13.251 0 23.993-10.742 23.993-23.993v-16.74c0-13.251-10.742-23.993-23.993-23.993z" fill="url(#SVGID_7_)"/><path d="m255 39.185c-112.777 0-208.44-7.01-242.083-29.919-5.417-3.689-12.325.593-12.88 8.386-.025.349-.037.698-.037 1.048 0 33.603 4.085 60.844 255 60.844s255-27.241 255-60.844c0-.35-.013-.699-.037-1.048-.555-7.793-7.462-12.075-12.88-8.386-33.643 22.908-129.306 29.919-242.083 29.919z" fill="url(#SVGID_8_)"/><path d="m233.796 105.027h42.407v42.407h-42.407z" fill="url(#SVGID_9_)"/><path d="m248.862 112.839h12.276c4.006 0 7.254 3.248 7.254 7.254v12.276c0 4.006-3.248 7.254-7.254 7.254h-12.276c-4.006 0-7.254-3.248-7.254-7.254v-12.276c0-4.006 3.248-7.254 7.254-7.254z" fill="url(#SVGID_10_)"/><path d="m164.606 105.027h-78.118l78.118 78.118z" fill="url(#SVGID_11_)"/><path d="m423.512 105.027h-78.118l78.118 78.118z" fill="url(#SVGID_12_)"/><path d="m164.606 147.434v64.727h64.727z" fill="url(#SVGID_13_)"/><path d="m467.125 191.047-43.613-43.613v64.727h19.809c12.274 0 22.379-9.223 23.804-21.114z" fill="url(#SVGID_14_)"/></g></svg>