<svg viewBox="0 0 512 512" xmlns="http://www.w3.org/2000/svg"><g><path d="M48.379 304.332C16.113 278.012-9.504 241.68 3.418 198.059 17.742 149.53 69.441 112.668 69.555 59.87c.027-13.789-4.399-26.34-10.461-38.531-3.633-7.305-.657-16.168 6.648-19.8 6.942-3.454 15.324-.888 19.254 5.644 9.496 15.785 16.188 32.804 17.543 51.324 1.371 18.75-2.773 37.324-9.484 54.738-12.817 33.25-39.032 60.984-46.493 96.316-5.234 24.778 14.126 40.684 32.512 53.25 11.778 8.047 14.801 24.122 6.754 35.903-8.262 12.086-25.906 14.746-37.379 5.672-.004 0-.058-.047-.07-.055zm0 0" fill="#ffb2c1"></path><path d="M60.809 277.602s-.055-.043-.067-.055c-32.27-26.32-57.883-62.649-44.96-106.274.241-.82.495-1.64.761-2.457-5.473 9.403-10.121 19.067-13.125 29.243-12.922 43.62 12.695 79.953 44.96 106.273.013.008.067.055.067.055 11.473 9.07 29.121 6.41 37.38-5.672a25.758 25.758 0 0 0 4.081-19.203c-8.922 5.078-20.672 4.754-29.097-1.91zm0 0" fill="#ff889e"></path><path d="M434.047 147.11c0 39.71-32.192 71.906-71.906 71.906-39.711 0-71.907-32.196-71.907-71.907 0-39.714 32.196-71.906 71.907-71.906 39.714 0 71.906 32.192 71.906 71.906zm0 0" fill="#7a8fa4"></path><path d="M362.14 176.762c-16.35 0-29.652-13.301-29.652-29.653s13.301-29.656 29.653-29.656 29.656 13.305 29.656 29.656-13.305 29.653-29.656 29.653zm0 0" fill="#ffb2c1"></path><path d="M510.738 264.305c-4.691 35.187-24.004 87.41-92.558 121.726-32.14 16.09-67.715 24.098-103.664 24.098H171.41c-68.598 0-125.578-54.387-127.078-122.965-.023-1.09-.035-2.187-.035-3.285.023-80.285 67.36-146.73 147.633-145.738 40.136.492 76.375 17.214 102.445 43.902 5.512 5.64 14.645 5.434 20.047-.309a79.459 79.459 0 0 1 17.695-14.097c11.067-6.477 23.84-10.317 37.418-10.633 32.082-.75 59.914 17.789 72.723 44.84 7.472 15.797 22.652 27.023 39.691 29.484zm0 0" fill="#a6b6c4"></path><path d="M75.238 287.164c-.023-1.09-.035-2.187-.035-3.285.024-74.504 58.012-137.078 130.516-144.914-4.54-.485-9.137-.766-13.79-.824-80.273-.993-147.609 65.453-147.632 145.738 0 1.098.012 2.195.035 3.285 1.5 68.574 58.48 122.965 127.078 122.965h30.906c-68.597 0-125.578-54.387-127.078-122.965zm0 0" fill="#7a8fa4"></path><g fill="#334151"><path d="M511.988 249.594c-.164 4.43-.535 9.367-1.25 14.71-.414.024-.816.036-1.23.036-15.473 0-28.016-12.547-28.016-28.016 0-1.71.153-3.375.457-4.996a48.91 48.91 0 0 0 10.707.371c.063-.012.13-.012.196-.023 10.488-.84 19.515 7.398 19.136 17.918zM429.344 266.523a7.725 7.725 0 0 1-7.727-7.722v-16.848c0-4.27 3.461-7.726 7.727-7.726a7.724 7.724 0 0 1 7.726 7.726v16.848a7.725 7.725 0 0 1-7.726 7.722zM500.941 288.023c-.515.153-12.78 3.606-23.777-7.39a7.733 7.733 0 0 0-10.93 0 7.728 7.728 0 0 0 0 10.926c10.29 10.289 21.52 12.523 29.34 12.523a39.54 39.54 0 0 0 4.324-.234 148.958 148.958 0 0 0 5.739-15.813 7.645 7.645 0 0 0-4.696-.012zm0 0" fill="#334151"></path></g><path d="M352.75 395.504h-21.219c-12.293 0-22.258 9.969-22.258 22.262s9.965 22.261 22.258 22.261h46.133c5.414 0 9.8-4.39 9.8-9.804.005-19.176-15.542-34.72-34.714-34.72zm0 0" fill="#ffb2c1"></path><path d="M340.176 417.766c0-10.829 7.734-19.84 17.98-21.84a34.813 34.813 0 0 0-5.406-.422h-21.219c-12.293 0-22.258 9.969-22.258 22.262s9.965 22.261 22.258 22.261h30.906c-12.292 0-22.261-9.968-22.261-22.261zm0 0" fill="#ff889e"></path><path d="M155.203 395.504h-21.215c-12.293 0-22.261 9.969-22.261 22.262s9.968 22.261 22.261 22.261h46.13a9.803 9.803 0 0 0 9.804-9.804c0-19.176-15.543-34.72-34.719-34.72zm0 0" fill="#ffb2c1"></path><path d="M142.633 417.766c0-10.829 7.73-19.84 17.976-21.84a34.738 34.738 0 0 0-5.406-.422h-21.215c-12.297 0-22.261 9.969-22.261 22.262s9.964 22.261 22.261 22.261h30.907c-12.297 0-22.262-9.968-22.262-22.261zm0 0" fill="#ff889e"></path></g></svg>