<svg viewBox="0 0 512 512" xmlns="http://www.w3.org/2000/svg"><g><path d="M247.212.374c-74.177 4.683-131.507 67.125-131.507 141.45v181.832c0 6.188 5.016 11.204 11.204 11.204h262.015a7.94 7.94 0 0 0 7.94-7.94V140.667C396.863 60.148 328.818-4.778 247.212.374z" fill="#647892"></path><path d="M185.737 323.656V141.824c0-65.386 44.373-121.568 105.549-137.326-89.471-23.012-175.581 45.216-175.581 137.326v181.832c0 6.188 5.016 11.204 11.204 11.204h70.032c-6.188 0-11.204-5.016-11.204-11.204z" fill="#4d6682"></path><path d="m436.129 485.997-14.675-73.703c-4.412-22.1-20.649-31.086-29.595-34.423l-6.017-1.775h.001c-.177-.044-28.819-7.141-53.596-13.268l-50.441 59.245c-14.659 17.219-36.527 17.183-51.155-.084l-50.257-59.321c-7.134 1.777-24.236 5.992-54.237 13.428h.001c1.763-.521-29.284 4.505-35.612 36.198l-14.675 73.703c-2.593 13.047 6.972 25.226 20.039 25.966l.07.037h320.039l.07-.037c13.073-.74 22.632-12.923 20.04-25.966zM214.573 317.645h-.039v-.001c.059.028-.318.095-.466.119l.506.003-.001-.121z" fill="#3997ee"></path><path d="M103.678 485.997s12.977-73.414 14.675-81.942c3.611-18.089 15.143-27.388 24.115-32l-16.311 4.041h.001c1.763-.521-29.284 4.505-35.612 36.198l-14.675 73.703c-2.597 13.097 7.016 25.229 20.039 25.966l.07.037h27.807l-.07-.037c-13.024-.737-22.636-12.872-20.039-25.966z" fill="#1e88d8"></path><path d="M303.529 355.738a8.637 8.637 0 0 1-6.565-8.385v-29.708h-7.496c-21.172 7.762-45.018 8.223-67.394 0h-7.502v30.387a7.792 7.792 0 0 1-5.902 7.56l-29.717 7.437 51.697 61.021c14.628 17.267 36.496 17.303 51.155.084l51.884-60.94-30.16-7.456z" fill="#edb87e"></path><path d="m275.737 429.98-19.949-22.395a52.933 52.933 0 0 1-13.408-35.209v-49.672a97.523 97.523 0 0 1-20.305-5.06h-7.502v30.387a7.793 7.793 0 0 1-5.902 7.56l-29.717 7.437 51.697 61.021c12.722 15.017 30.917 16.994 45.086 5.931z" fill="#e4a970"></path><path d="M157.415 468.745a7.724 7.724 0 1 0-15.448 0V512h15.448v-43.255zM369.571 512v-43.255a7.724 7.724 0 1 0-15.448 0V512h15.448z" fill="#1e88d8"></path><path d="M230.651 424.049c14.628 17.267 36.496 17.303 51.155.084l26.905-31.6H203.95l26.701 31.516z" fill="#fac149"></path><path d="M230.651 424.049c6.023 7.107 14.209 12.244 23.596 12.897 7.912.549 15.355-2.178 21.49-6.967-16.702-19.708-23.93-24.281-29.354-37.446H203.95l26.701 31.516z" fill="#f8a748"></path><path d="M171.86 195.588c-7.559-.457-13.93 5.581-13.93 13.154V227.2c0 56.363 46.715 102.272 103.016 99.645 52.153-2.433 93.692-45.482 93.692-98.246v-62.898c0-6.443-4.785-11.86-11.173-12.698-8.414-1.104-19.688-5.58-26.869-20.372-1.879-3.87-7.204-4.37-9.751-.903-15.079 20.53-58.732 68.468-134.985 63.86z" fill="#f4c48b"></path><path d="M185.737 228.599v-32.743c-4.5.102-9.125.019-13.876-.268-7.559-.457-13.93 5.581-13.93 13.154V227.2c0 56.363 46.715 102.272 103.016 99.645a98.898 98.898 0 0 0 9.241-.871c-47.735-6.754-84.451-47.769-84.451-97.375z" fill="#edb87e"></path><path d="M256 301.388h-55.283c-34.157 0-64.122-22.52-64.122-57.381v-15.829a7.724 7.724 0 1 1 15.448 0v15.829c0 25.862 22.695 41.933 48.674 41.933H256a7.724 7.724 0 1 1 0 15.448zM369.056 170.593a7.724 7.724 0 0 1-7.724-7.724v-21.002c0-58.74-47.699-106.873-106.416-105.845-56.365.998-102.651 47.061-102.651 104.516v22.331a7.724 7.724 0 1 1-15.448 0v-22.331c0-64.887 52.04-118.797 117.826-119.963 67.398-1.15 122.138 53.905 122.138 121.291v21.002a7.726 7.726 0 0 1-7.725 7.725z" fill="#efefef"></path><path d="M382.366 168.276v65.916c29.516-12.045 29.582-53.845 0-65.916z" fill="#fac149"></path><path d="M382.366 197.888v36.303c20.35-8.304 28.24-32.607 17.203-51.11a35.835 35.835 0 0 1-17.203 14.807z" fill="#f8a748"></path><path d="M130.284 168.276v65.916c-29.625-12.045-29.692-53.845 0-65.916z" fill="#fac149"></path><path d="M113.792 181.864c-12.184 18.594-4.43 43.821 16.492 52.327v-38.69a35.922 35.922 0 0 1-16.492-13.637z" fill="#f8a748"></path><path d="M246.723 307.053h18.613c7.511 0 13.995-5.771 14.325-13.275.351-7.965-6.002-14.532-13.889-14.532h-19.485c-7.887 0-14.241 6.567-13.89 14.532.331 7.504 6.815 13.275 14.326 13.275z" fill="#3997ee"></path><path d="M256.044 293.778c-.32-7.249 4.92-13.323 11.809-14.359a13.988 13.988 0 0 0-2.081-.173h-19.485c-7.887 0-14.241 6.567-13.89 14.532.33 7.504 6.815 13.275 14.326 13.275h18.613c.856 0 1.695-.084 2.516-.228-6.388-1.119-11.515-6.398-11.808-13.047z" fill="#1e88d8"></path><path d="M130.187 234.186v-65.905c0-7.511 5.771-13.995 13.275-14.326 7.965-.351 14.532 6.002 14.532 13.89v66.777c0 7.887-6.567 14.241-14.532 13.89-7.504-.331-13.275-6.815-13.275-14.326z" fill="#f8a748"></path><path d="M143.462 207.831c-7.504-.33-13.275-6.815-13.275-14.326v40.68c0 7.511 5.771 13.995 13.275 14.326 7.965.351 14.532-6.002 14.532-13.89v-40.68c0 7.888-6.567 14.241-14.532 13.89z" fill="#f38d1a"></path><path d="M354.616 234.186v-65.905c0-7.511 5.776-13.995 13.286-14.326 7.971-.351 14.544 6.002 14.544 13.89v66.777c0 7.887-6.572 14.24-14.544 13.89-7.511-.331-13.286-6.815-13.286-14.326z" fill="#f8a748"></path><path d="M367.901 207.831c-7.51-.33-13.286-6.814-13.286-14.326v40.68c0 7.511 5.776 13.995 13.286 14.326 7.971.351 14.544-6.002 14.544-13.89v-40.68c0 7.888-6.573 14.241-14.544 13.89z" fill="#f38d1a"></path></g></svg>