<svg viewBox="0 0 54 58" xmlns="http://www.w3.org/2000/svg"><g><g fill="none" fill-rule="nonzero"><path d="M22 20v14.5a2.5 2.5 0 0 1-4 2c-.61-.46-13.28-.68-13.73-.23a2.041 2.041 0 0 1-.27.23 2.5 2.5 0 0 1-4-2V20a6 6 0 0 1 6-6h10a6 6 0 0 1 6 6z" fill="#f29c1f"></path><path d="M6 34a1 1 0 0 1-1-1V20a1 1 0 0 1 2 0v13a1 1 0 0 1-1 1zM16 34a1 1 0 0 1-1-1V20a1 1 0 0 1 2 0v13a1 1 0 0 1-1 1z" fill="#e57e25"></path><path d="M52 0H40a2.006 2.006 0 0 0-2 2v54a2.006 2.006 0 0 0 2 2h12a2.006 2.006 0 0 0 2-2V2a2.006 2.006 0 0 0-2-2zm-6 9a2 2 0 1 1 0-4 2 2 0 0 1 0 4z" fill="#f3d55b"></path><g fill="#cb8252"><path d="M43 13a1 1 0 0 1-1 1h-4v-2h4a1 1 0 0 1 1 1zM41 18a1 1 0 0 1-1 1h-2v-2h2a1 1 0 0 1 1 1zM43 23a1 1 0 0 1-1 1h-4v-2h4a1 1 0 0 1 1 1zM38 29h2a1 1 0 0 0 0-2h-2zM43 33a1 1 0 0 1-1 1h-4v-2h4a1 1 0 0 1 1 1zM41 38a1 1 0 0 1-1 1h-2v-2h2a1 1 0 0 1 1 1zM43 43a1 1 0 0 1-1 1h-4v-2h4a1 1 0 0 1 1 1zM43 53a1 1 0 0 1-1 1h-4v-2h4a1 1 0 0 1 1 1zM41 48a1 1 0 0 1-1 1h-2v-2h2a1 1 0 0 1 1 1zM54 12v2h-4a1 1 0 0 1 0-2zM54 19h-2a1 1 0 0 1 0-2h2zM54 22v2h-4a1 1 0 0 1 0-2zM54 29h-2a1 1 0 0 1 0-2h2zM54 32v2h-4a1 1 0 0 1 0-2zM54 37v2h-2a1 1 0 0 1 0-2zM54 42v2h-4a1 1 0 0 1 0-2zM54 52v2h-4a1 1 0 0 1 0-2zM54 47v2h-2a1 1 0 0 1 0-2z" fill="#cb8252"></path></g><path d="M34.447 41.105a1 1 0 0 0-1.342.448L31 45.764V12.236l2.1 4.211a1 1 0 1 0 1.79-.894l-4-8a1.042 1.042 0 0 0-1.79 0l-4 8a1 1 0 0 0 1.79.894L29 12.236v33.528l-2.1-4.211a1 1 0 1 0-1.79.894l4 8a1 1 0 0 0 1.79 0l4-8a1 1 0 0 0-.453-1.342z" fill="#c03a2b"></path><path d="M29 58H14.5a1 1 0 0 1 0-2H29v-2a1 1 0 0 1 2 0v2a2 2 0 0 1-2 2zM30 5a1 1 0 0 1-1-1V2H11a1 1 0 0 1 0-2h18a2 2 0 0 1 2 2v2a1 1 0 0 1-1 1z" fill="#e64c3c"></path><circle cx="11" cy="7" fill="#fdd7ad" r="7"></circle><path d="M18 36.5v18a3.5 3.5 0 0 1-3.5 3.5 3.517 3.517 0 0 1-3.5-3.5V33h6v1.5a2.491 2.491 0 0 0 1 2z" fill="#2980ba"></path><path d="M11 33v21.5A3.517 3.517 0 0 1 7.5 58 3.5 3.5 0 0 1 4 54.5v-18c.097-.069.187-.146.27-.23A2.5 2.5 0 0 0 5 34.5V33z" fill="#3b97d3"></path></g></g></svg>