<svg viewBox="0 0 512 512" xmlns="http://www.w3.org/2000/svg"><g><path d="m115.984 127.493 13.499 41.876h-13.499v7.646c0 14.881-12.064 26.946-26.946 26.946h-.897c-15.377 0-27.842-12.466-27.842-27.842v-48.626l32.548-15.545 23.137 15.545z" fill="#ffdc8d"></path><path d="M94.829 203.336a26.773 26.773 0 0 1-5.787.629h-.897c-15.379 0-27.845-12.466-27.845-27.845v-48.623l12.569-6.005v54.628c-.002 13.361 9.408 24.519 21.96 27.216z" fill="#e8c57e"></path><path d="M86.222 99.232c-15.608 0-28.261 12.653-28.261 28.261v22.118c12.215 0 22.118-9.902 22.118-22.118h35.836c15.608 0 28.261-12.653 28.261-28.261H86.222z" fill="#ffd15c"></path><path d="M73.959 127.493c0-15.608 12.653-28.261 28.261-28.261H86.222c-15.608 0-28.261 12.653-28.261 28.261v22.118c6.293 0 11.969-2.633 15.996-6.852v-15.266h.002z" fill="#edbb4c"></path><path d="M66.521 152.391c-3.875-3.875-10.159-3.875-14.036 0-3.875 3.875-3.875 10.159 0 14.036 3.875 3.875 10.159 3.875 14.036 0" fill="#e8c57e"></path><path d="M102.627 186.171c-9.11 0-16.521-7.411-16.521-16.521a4.286 4.286 0 0 1 8.57 0c0 4.384 3.567 7.951 7.951 7.951a4.286 4.286 0 0 1 0 8.57z" fill="#ffffff"></path><path d="M103.654 155.662a4.286 4.286 0 0 1-4.285-4.285v-5.632a4.286 4.286 0 0 1 8.57 0v5.632a4.285 4.285 0 0 1-4.285 4.285z" fill="#494b5b"></path><path d="M129.295 245.109c0 5.233-.977 15.151-2.759 27.314a438.9 438.9 0 0 1-.645 4.285 654.903 654.903 0 0 1-.68 4.285c-6.067 37.117-18.31 87.958-32.781 96.682-1.405.852-2.839 1.303-4.285 1.303-1.446 0-2.879-.451-4.285-1.303-14.471-8.724-26.714-59.564-32.781-96.682a585.023 585.023 0 0 1-1.325-8.57c-1.782-12.163-2.759-22.081-2.759-27.314 0-22.726 18.425-41.145 41.151-41.145 22.724 0 41.149 18.419 41.149 41.145z" fill="#5c5e70"></path><path d="M88.142 378.977c-16.894 0-31.41-61.409-37.746-102.269-2.194-14.105-3.405-25.766-3.405-31.598 0-22.726 18.425-41.145 41.151-41.145-12.261 0-22.201 18.419-22.201 41.145 0 5.833.651 17.493 1.833 31.598 3.424 40.86 11.257 102.269 20.368 102.269z" fill="#494b5b"></path><path d="M129.294 245.109c0 5.833-1.211 17.493-3.405 31.598H50.396c-2.194-14.105-3.405-25.766-3.405-31.598 0-22.726 18.425-41.145 41.151-41.145s41.152 18.419 41.152 41.145z" fill="#ff525d"></path><path d="M65.941 245.109c0 5.833.651 17.493 1.833 31.598H50.396c-2.194-14.105-3.405-25.766-3.405-31.598 0-22.726 18.425-41.145 41.151-41.145-12.26 0-22.201 18.419-22.201 41.145z" fill="#ef4152"></path><path d="M63.421 212.214a40.962 40.962 0 0 1 24.72-8.25l-12.786 25.068-11.934-16.818z" fill="#ff6e7c"></path><path d="M112.867 212.214v.005l-11.941 16.813-12.786-25.068a40.979 40.979 0 0 1 24.727 8.25z" fill="#ff6e7c"></path><path d="M92.428 300.039v77.634c-1.405.852-2.839 1.303-4.285 1.303-1.446 0-2.879-.451-4.285-1.303v-77.634a4.283 4.283 0 0 1 4.285-4.285 4.287 4.287 0 0 1 4.285 4.285z" fill="#494b5b"></path><path d="M126.535 272.423a438.9 438.9 0 0 1-.645 4.285 654.903 654.903 0 0 1-.68 4.285H51.077a585.023 585.023 0 0 1-1.325-8.57h76.783z" fill="#797b89"></path><path d="M87.76 231.552c-3.936 0-5.767-5.084-2.72-7.595 1.413-1.164 3.482-1.281 5.026-.299 1.562.993 2.318 2.967 1.821 4.749-.51 1.829-2.221 3.145-4.127 3.145z" fill="#ffffff"></path><path d="M108.999 383.262H67.285a4.286 4.286 0 0 1 0-8.57h41.714a4.286 4.286 0 0 1 0 8.57z" fill="#3a3c49"></path><path d="m225.061 28.261-13.499 41.876h13.499v7.646c0 14.881 12.064 26.946 26.946 26.946h.897c15.377 0 27.842-12.466 27.842-27.842V28.261l-32.548-15.545-23.137 15.545z" fill="#ffdc8d"></path><path d="M246.217 104.103c1.863.412 3.799.629 5.787.629h.897c15.379 0 27.845-12.466 27.845-27.845V28.263l-12.569-6.005v54.628c.001 13.363-9.409 24.521-21.96 27.217z" fill="#e8c57e"></path><path d="M254.823 0c15.608 0 28.261 12.653 28.261 28.261v22.118c-12.215 0-22.118-9.902-22.118-22.118H225.13c-15.608 0-28.261-12.653-28.261-28.261h57.954z" fill="#f4a14e"></path><path d="M267.087 28.261C267.087 12.653 254.434 0 238.826 0h15.996c15.608 0 28.261 12.653 28.261 28.261v22.118c-6.293 0-11.969-2.633-15.996-6.852V28.261z" fill="#e28d40"></path><path d="M274.525 53.158c3.875-3.875 10.159-3.875 14.036 0 3.875 3.875 3.875 10.159 0 14.036-3.875 3.875-10.159 3.875-14.036 0" fill="#e8c57e"></path><path d="M238.418 86.938c9.11 0 16.52-7.411 16.52-16.521a4.286 4.286 0 0 0-8.57 0c0 4.384-3.567 7.951-7.951 7.951a4.286 4.286 0 0 0 .001 8.57z" fill="#ffffff"></path><path d="M237.392 56.429a4.286 4.286 0 0 0 4.285-4.285v-5.632a4.286 4.286 0 0 0-8.57 0v5.632a4.285 4.285 0 0 0 4.285 4.285z" fill="#494b5b"></path><path d="M211.751 145.877c0 5.233.977 15.151 2.759 27.314.205 1.4.417 2.828.645 4.285.217 1.405.446 2.834.68 4.285 6.067 37.117 18.31 87.958 32.781 96.682 1.405.852 2.839 1.303 4.285 1.303 1.446 0 2.879-.451 4.285-1.303 14.471-8.724 26.714-59.564 32.781-96.682a585.023 585.023 0 0 0 1.325-8.57c1.782-12.163 2.759-22.081 2.759-27.314 0-22.726-18.425-41.145-41.151-41.145-22.724-.001-41.149 18.418-41.149 41.145z" fill="#5c5e70"></path><path d="M252.903 279.745c16.894 0 31.41-61.409 37.746-102.269 2.194-14.105 3.405-25.766 3.405-31.598 0-22.726-18.425-41.145-41.151-41.145 12.261 0 22.201 18.419 22.201 41.145 0 5.833-.651 17.493-1.833 31.598-3.423 40.859-11.256 102.269-20.368 102.269z" fill="#494b5b"></path><path d="M211.752 145.877c0 5.833 1.211 17.493 3.405 31.598h75.492c2.194-14.105 3.405-25.766 3.405-31.598 0-22.726-18.425-41.145-41.151-41.145-22.726 0-41.151 18.418-41.151 41.145z" fill="#34abe0"></path><path d="M275.104 145.877c0 5.833-.651 17.493-1.833 31.598h17.379c2.194-14.105 3.405-25.766 3.405-31.598 0-22.726-18.425-41.145-41.151-41.145 12.26 0 22.2 18.418 22.2 41.145z" fill="#279fc9"></path><path d="M277.625 112.981a40.962 40.962 0 0 0-24.72-8.25L265.69 129.8l11.935-16.819z" fill="#78caef"></path><path d="M228.179 112.981v.005l11.941 16.813 12.786-25.068a40.983 40.983 0 0 0-24.727 8.25z" fill="#78caef"></path><path d="M248.617 200.807v77.634c1.405.852 2.839 1.303 4.285 1.303s2.879-.451 4.285-1.303v-77.634a4.283 4.283 0 0 0-4.285-4.285 4.287 4.287 0 0 0-4.285 4.285z" fill="#494b5b"></path><path d="M214.511 173.19c.205 1.4.417 2.828.645 4.285.217 1.405.446 2.834.68 4.285h74.133a585.023 585.023 0 0 0 1.325-8.57h-76.783z" fill="#797b89"></path><path d="M253.285 132.319c3.936 0 5.767-5.084 2.72-7.595-1.413-1.164-3.482-1.281-5.026-.299-1.562.993-2.318 2.967-1.821 4.749.511 1.83 2.221 3.145 4.127 3.145z" fill="#ffffff"></path><path d="M232.047 284.03h41.714a4.286 4.286 0 0 0 0-8.57h-41.714a4.286 4.286 0 0 0 0 8.57z" fill="#3a3c49"></path><path d="m396.017 79.413-13.499 41.876h13.499v7.646c0 14.881 12.064 26.946 26.946 26.946h.897c15.377 0 27.842-12.466 27.842-27.842V79.413l-32.548-15.545-23.137 15.545z" fill="#c19157"></path><path d="M417.172 155.255c1.863.412 3.799.629 5.787.629h.897c15.379 0 27.845-12.466 27.845-27.845V79.415l-12.569-6.005v54.628c.001 13.364-9.408 24.521-21.96 27.217z" fill="#a5733c"></path><path d="M425.778 51.152c15.608 0 28.261 12.653 28.261 28.261v22.118c-12.215 0-22.118-9.902-22.118-22.118h-35.836c-15.608 0-28.261-12.653-28.261-28.261h57.954z" fill="#5c5e70"></path><path d="M438.042 79.413c0-15.608-12.653-28.261-28.261-28.261h15.996c15.608 0 28.261 12.653 28.261 28.261v22.118c-6.293 0-11.969-2.633-15.996-6.852V79.413z" fill="#494b5b"></path><path d="M445.479 104.311c3.875-3.875 10.159-3.875 14.036 0 3.875 3.875 3.875 10.159 0 14.036-3.875 3.876-10.159 3.875-14.036 0" fill="#a5733c"></path><path d="M409.374 138.092c9.11 0 16.521-7.411 16.521-16.521a4.286 4.286 0 0 0-8.57 0c0 4.384-3.567 7.951-7.951 7.951a4.286 4.286 0 0 0 0 8.57z" fill="#ffffff"></path><path d="M408.347 107.581a4.286 4.286 0 0 0 4.285-4.285v-5.632a4.286 4.286 0 0 0-8.57 0v5.632a4.284 4.284 0 0 0 4.285 4.285z" fill="#494b5b"></path><path d="M382.707 197.029c0 5.233.977 15.151 2.759 27.314.205 1.4.417 2.828.645 4.285.217 1.405.446 2.834.68 4.285 6.067 37.117 18.31 87.958 32.781 96.682 1.405.852 2.839 1.303 4.285 1.303 1.446 0 2.879-.451 4.285-1.303 14.471-8.724 26.714-59.564 32.781-96.682a585.023 585.023 0 0 0 1.325-8.57c1.782-12.163 2.759-22.081 2.759-27.314 0-22.726-18.425-41.145-41.151-41.145-22.725 0-41.149 18.418-41.149 41.145z" fill="#5c5e70"></path><path d="M423.858 330.897c16.894 0 31.41-61.409 37.746-102.269 2.194-14.105 3.405-25.766 3.405-31.598 0-22.726-18.425-41.145-41.151-41.145 12.261 0 22.201 18.419 22.201 41.145 0 5.833-.651 17.493-1.833 31.598-3.424 40.859-11.255 102.269-20.368 102.269z" fill="#494b5b"></path><path d="M382.708 197.03c0 5.833 1.211 17.493 3.405 31.598h75.492c2.194-14.105 3.405-25.766 3.405-31.598 0-22.726-18.425-41.145-41.151-41.145-22.727-.001-41.151 18.418-41.151 41.145z" fill="#ffd15c"></path><path d="M446.059 197.03c0 5.833-.651 17.493-1.833 31.598h17.379c2.194-14.105 3.405-25.766 3.405-31.598 0-22.726-18.425-41.145-41.151-41.145 12.259-.001 22.2 18.418 22.2 41.145z" fill="#edbb4c"></path><path d="M448.579 164.134a40.962 40.962 0 0 0-24.72-8.25l12.786 25.068 11.934-16.818z" fill="#ffdc8d"></path><path d="M399.133 164.134v.005l11.941 16.813 12.786-25.068a40.974 40.974 0 0 0-24.727 8.25z" fill="#ffdc8d"></path><path d="M419.573 251.959v77.634c1.405.852 2.839 1.303 4.285 1.303 1.446 0 2.879-.451 4.285-1.303v-77.634a4.283 4.283 0 0 0-4.285-4.285 4.287 4.287 0 0 0-4.285 4.285z" fill="#494b5b"></path><path d="M385.466 224.342c.205 1.4.417 2.828.645 4.285.217 1.405.446 2.834.68 4.285h74.132a585.023 585.023 0 0 0 1.325-8.57h-76.782z" fill="#797b89"></path><path d="M424.24 183.471c3.936 0 5.767-5.084 2.72-7.595-1.413-1.164-3.482-1.281-5.026-.299-1.562.993-2.318 2.967-1.821 4.749.511 1.83 2.222 3.145 4.127 3.145z" fill="#ffffff"></path><path d="M403.002 335.182h41.714a4.286 4.286 0 0 0 0-8.57h-41.714a4.286 4.286 0 0 0 0 8.57z" fill="#3a3c49"></path><path d="M.636 512h191.391l-21.148-129.3H.636z" fill="#f4a14e"></path><path d="M511.364 512H341.122l-20.981-177.765h191.223z" fill="#cccccc"></path><path d="M170.875 283.152h170.239V512H170.875z" fill="#ffd15c"></path><path d="M273.977 321.018h-35.954a7.817 7.817 0 0 1-7.817-7.817 7.817 7.817 0 0 1 7.817-7.817h35.954c4.318 0 7.817 3.5 7.817 7.817a7.817 7.817 0 0 1-7.817 7.817zM273.977 398.148h-35.954a7.817 7.817 0 0 1-7.817-7.817 7.817 7.817 0 0 1 7.817-7.817h35.954c4.318 0 7.817 3.5 7.817 7.817a7.817 7.817 0 0 1-7.817 7.817z" fill="#ffffff"></path><path d="M256 398.148a7.817 7.817 0 0 1-7.817-7.817v-77.13a7.817 7.817 0 0 1 7.817-7.817c4.318 0 7.817 3.5 7.817 7.817v77.13a7.817 7.817 0 0 1-7.817 7.817zM127.971 413.996H43.544a7.817 7.817 0 0 1-7.817-7.817 7.817 7.817 0 0 1 7.817-7.817h84.427c4.318 0 7.817 3.5 7.817 7.817a7.817 7.817 0 0 1-7.817 7.817zM127.971 491.127H43.544a7.817 7.817 0 0 1-7.817-7.817 7.817 7.817 0 0 1 7.817-7.817h84.427c4.318 0 7.817 3.5 7.817 7.817a7.817 7.817 0 0 1-7.817 7.817z" fill="#ffffff"></path><path d="M59.957 491.127a7.817 7.817 0 0 1-7.817-7.817v-77.13c0-4.317 3.499-7.817 7.817-7.817s7.817 3.5 7.817 7.817v77.13a7.815 7.815 0 0 1-7.817 7.817zM111.557 491.127a7.817 7.817 0 0 1-7.817-7.817v-77.13c0-4.317 3.499-7.817 7.817-7.817s7.817 3.5 7.817 7.817v77.13a7.817 7.817 0 0 1-7.817 7.817zM85.758 491.127a7.817 7.817 0 0 1-7.817-7.817v-77.13c0-4.317 3.499-7.817 7.817-7.817s7.817 3.5 7.817 7.817v77.13a7.817 7.817 0 0 1-7.817 7.817zM455.859 374.389h-59.234a7.817 7.817 0 0 1-7.817-7.817 7.817 7.817 0 0 1 7.817-7.817h59.234c4.318 0 7.817 3.5 7.817 7.817a7.815 7.815 0 0 1-7.817 7.817zM455.859 451.519h-59.234a7.817 7.817 0 0 1-7.817-7.817 7.817 7.817 0 0 1 7.817-7.817h59.234c4.318 0 7.817 3.5 7.817 7.817a7.815 7.815 0 0 1-7.817 7.817z" fill="#ffffff"></path><path d="M439.446 451.519a7.817 7.817 0 0 1-7.817-7.817v-77.13c0-4.317 3.499-7.817 7.817-7.817s7.817 3.5 7.817 7.817v77.13a7.815 7.815 0 0 1-7.817 7.817zM413.646 451.519a7.817 7.817 0 0 1-7.817-7.817v-77.13c0-4.317 3.499-7.817 7.817-7.817s7.817 3.5 7.817 7.817v77.13a7.815 7.815 0 0 1-7.817 7.817z" fill="#ffffff"></path></g></svg>