<svg viewBox="0 0 512 512" xmlns="http://www.w3.org/2000/svg"><g><path d="M302.52 411.16v90.43c0 5.75-4.66 10.41-10.4 10.41H10.41C4.66 512 0 507.34 0 501.59v-90.43c0-41.77 33.86-75.63 75.63-75.63h5.04l70.59 30.25 70.59-30.25h5.04c41.77 0 75.63 33.86 75.63 75.63z" fill="#7bacdf"></path><path d="M238.735 336.459c-18.715 22.122-30.018 50.705-30.018 81.883 0 37.043 15.95 70.429 41.339 93.659h42.06c5.747 0 10.407-4.659 10.407-10.406v-90.434c-.001-37.741-27.646-69.017-63.788-74.702z" fill="#5f99d7"></path><g fill="#0078c8"><path d="M58.245 423.227a7.5 7.5 0 0 0-10.606 0 7.5 7.5 0 0 0 0 10.606l5.366 5.366V512h15v-75.907c0-1.989-.79-3.897-2.197-5.303zM254.883 423.227a7.5 7.5 0 0 0-10.606 0l-7.563 7.563a7.497 7.497 0 0 0-2.197 5.303V512h15v-72.801l5.366-5.366a7.497 7.497 0 0 0 0-10.606z" fill="#0078c8"></path></g><path d="M151.261 406.117c38.922 0 70.588-31.666 70.588-70.588H80.672c0 38.923 31.666 70.588 70.589 70.588z" fill="#dff6fd"></path><path d="M151.261 365.781c-16.708 0-30.252-13.544-30.252-30.252v-30.252h60.504v30.252c0 16.708-13.544 30.252-30.252 30.252z" fill="#f6a96c"></path><path d="M151.261 312.84c-38.289 0-69.328-31.039-69.328-69.328v-84.454h138.656v84.454c0 38.289-31.04 69.328-69.328 69.328z" fill="#fed2a4"></path><path d="M190.336 159.058v84.454c0 33.091-23.191 60.749-54.202 67.653a69.539 69.539 0 0 0 15.126 1.675c38.289 0 69.328-31.039 69.328-69.328v-84.454z" fill="#ffbd86"></path><path d="M138.787 64.52a75.763 75.763 0 0 1 53.572 22.19l3.02 3.02c24.366 0 44.118 19.752 44.118 44.118v69.328h-18.908v-8.824l-25.21-35.294-18.038 8.762a126.05 126.05 0 0 1-55.072 12.667h-28.23c-4.24 0-8.028 2.653-9.477 6.638l-2.628 7.228v8.824H63.025v-62.894c0-41.843 33.92-75.763 75.762-75.763z" fill="#838383"></path><path d="M208.277 91.651v85.465l12.312 17.237v8.824h18.908v-69.328c-.001-19.878-13.148-36.681-31.22-42.198z" fill="#5a5a5a"></path><path d="M235.715 239.731h-15.126v-45.378h15.126c12.531 0 22.689 10.158 22.689 22.689 0 12.53-10.158 22.689-22.689 22.689zM66.807 239.731h15.126v-45.378H66.807c-12.531 0-22.689 10.158-22.689 22.689 0 12.53 10.158 22.689 22.689 22.689z" fill="#f6a96c"></path><circle cx="335.676" cy="418.341" fill="#bbec6c" r="93.659"></circle><path d="M387.372 340.238c9.827 14.816 15.555 32.586 15.555 51.697 0 51.726-41.932 93.659-93.659 93.659-19.111 0-36.881-5.729-51.697-15.555C274.343 495.325 303.06 512 335.676 512c51.726 0 93.659-41.932 93.659-93.659-.001-32.615-16.676-61.332-41.963-78.103z" fill="#a2e62e"></path><path d="M379.383 401.691h-27.057v-27.057c0-9.196-7.455-16.65-16.65-16.65s-16.65 7.455-16.65 16.65v27.057h-27.057c-9.196 0-16.65 7.455-16.65 16.65 0 9.196 7.455 16.65 16.65 16.65h27.057v27.057c0 9.196 7.455 16.65 16.65 16.65s16.65-7.455 16.65-16.65v-27.057h27.057c9.196 0 16.65-7.455 16.65-16.65s-7.454-16.65-16.65-16.65z" fill="#dff6fd"></path><path d="m328.616 63.988-37.012 59.219c-3.466 5.545.521 12.738 7.06 12.738H310.7v145.691c0 5.747 4.659 10.406 10.407 10.406h29.138c5.747 0 10.407-4.659 10.407-10.406V135.945h12.036c6.539 0 10.525-7.193 7.06-12.738l-37.012-59.219c-3.261-5.217-10.859-5.217-14.12 0z" fill="#99e6fc"></path><path d="m459.59 3.913-37.012 59.219c-3.466 5.545.521 12.738 7.06 12.738h12.036v270.285c0 5.747 4.659 10.407 10.407 10.407h29.138c5.747 0 10.406-4.659 10.406-10.407V75.869h12.036c6.539 0 10.525-7.193 7.06-12.738L473.709 3.913c-3.26-5.217-10.858-5.217-14.119 0z" fill="#62dbfb"></path></g></svg>