<svg clip-rule="evenodd" fill-rule="evenodd" height="512" image-rendering="optimizeQuality" shape-rendering="geometricPrecision" text-rendering="geometricPrecision" viewBox="0 0 2333 2333" width="512" xmlns="http://www.w3.org/2000/svg"><g id="Layer_x0020_1"><g id="_2242800157440"><path d="m1245 2020h-314c-11 0-19-8-19-20v-173c0-11 8-20 19-20h314c286 0 520-233 520-519s-234-519-520-519h-404v222c0 17-20 25-32 16l-446-329c-11-8-11-25 0-33l446-328c12-9 32-1 32 15v223h404c404 0 734 327 734 732 0 404-330 733-734 733z" fill="#96c8ef"/><path d="m844 769h-3v222c0 17-20 25-32 16l-446-329c-11-8-11-25 0-33l446-328c12-9 32-1 32 15v223h3z" fill="#49a7fe"/></g></g></svg>