<svg viewBox="0 0 58 58" xmlns="http://www.w3.org/2000/svg"><g><g fill="none"><path d="M18 45 6.227 46.308A7 7 0 0 0 0 53.266V56a2 2 0 0 0 2 2h54a2 2 0 0 0 2-2v-2.734a7 7 0 0 0-6.227-6.958L40 45z" fill="#636c77"></path><path d="M18.52 45.93C19.49 48.57 22.14 53 29 53s9.51-4.43 10.48-7.07z" fill="#efc7a4"></path><path d="M46.23 19.6c3.41-4.96 1.7-14.59-8.2-16.38H19.97c-9.9 1.79-11.61 11.42-8.2 16.38zM42.04 31s3.2 9.233-2.07 14.486C37.88 47.549 34.47 49 29 49s-8.88-1.451-10.97-3.515C12.76 40.232 15.96 31 15.96 31l.04-3h26z" fill="#e4e8eb"></path><path d="M46.3 24.19a7.763 7.763 0 0 0-1.15 4.02c0 .91-.42 2.79-3.11 2.79l-3-.25-8.04-.67c-.67-.05-1.33-.08-2-.08s-1.33.03-2 .08L15.96 31c-2.69 0-3.11-1.88-3.11-2.79a7.763 7.763 0 0 0-1.15-4.02c-1.11-2.15-.78-3.84.16-4.68A2.824 2.824 0 0 1 14 19v-3c0-8.84 6.72-16 15-16s15 7.16 15 16v3a2.824 2.824 0 0 1 2.14.51c.94.84 1.27 2.53.16 4.68z" fill="#efc7a4"></path><path d="M19 17h5a2 2 0 0 1 2 2v1.5a4.5 4.5 0 1 1-9 0V19a2 2 0 0 1 2-2zM34 17h5a2 2 0 0 1 2 2v1.5a4.5 4.5 0 1 1-9 0V19a2 2 0 0 1 2-2z" fill="#ffffff"></path><path d="m40 45 11.77 1.31A7 7 0 0 1 58 53.27V56a2.006 2.006 0 0 1-2 2h-3a2.006 2.006 0 0 0 2-2v-2.73a7 7 0 0 0-6.23-6.96L39 45.223z" fill="#49525b"></path><path d="M46.23 19.6h-3c3.3-4.793 1.809-13.948-7.23-16.174.67-.123 1.349-.192 2.03-.206 9.9 1.79 11.61 11.42 8.2 16.38z" fill="#cad0d7"></path><path d="M39.48 45.93C38.51 48.57 35.86 53 29 53a14.3 14.3 0 0 1-1.5-.08A10.152 10.152 0 0 0 36.028 47c.18-.377 3.452-1.07 3.452-1.07zM46.3 24.19a7.763 7.763 0 0 0-1.15 4.02c0 .91-.42 2.79-3.11 2.79l-1.83-.15a2.6 2.6 0 0 0 1.94-2.64 7.763 7.763 0 0 1 1.15-4.02c1.11-2.15.78-3.84-.16-4.68A2.824 2.824 0 0 0 41 19v-3C41 7.71 35.09.9 27.53.08A14.17 14.17 0 0 1 29 0c8.28 0 15 7.16 15 16v3a2.824 2.824 0 0 1 2.14.51c.94.84 1.27 2.53.16 4.68z" fill="#e3b692"></path><path d="M39.97 45.48C37.88 47.55 34.47 49 29 49c-.52 0-1.02-.01-1.5-.05 4.6-.23 7.58-1.6 9.47-3.47C42.24 40.23 39.04 31 39.04 31v-.25l3 .25s3.2 9.23-2.07 14.48z" fill="#cad0d7"></path><g fill="#424852"><path d="M44 18h-2.2a3.239 3.239 0 0 0-3.05-2h-4.5a3.169 3.169 0 0 0-3.2 2.576 3.925 3.925 0 0 0-4.094 0A3.169 3.169 0 0 0 23.75 16h-4.5a3.237 3.237 0 0 0-3.05 2H14a1 1 0 0 0 0 2h2v1a5.274 5.274 0 0 0 5.5 5 5.306 5.306 0 0 0 5.483-4.7A2.574 2.574 0 0 1 29 20c.845.075 1.6.561 2.017 1.3A5.307 5.307 0 0 0 36.5 26a5.274 5.274 0 0 0 5.5-5v-1h2a1 1 0 0 0 0-2zm-19 3a3.283 3.283 0 0 1-3.5 3 3.283 3.283 0 0 1-3.5-3v-2a1.162 1.162 0 0 1 1.25-1h4.5A1.162 1.162 0 0 1 25 19zm15 0a3.283 3.283 0 0 1-3.5 3 3.283 3.283 0 0 1-3.5-3v-2a1.162 1.162 0 0 1 1.25-1h4.5A1.162 1.162 0 0 1 40 19z" fill="#424852"></path><path d="M22 22h-1a1 1 0 0 1 0-2h1a1 1 0 0 1 0 2zM37 22h-1a1 1 0 0 1 0-2h1a1 1 0 0 1 0 2z" fill="#424852"></path></g><path d="M33 37h-8a1 1 0 0 1 0-2h8a1 1 0 0 1 0 2z" fill="#a9b0bb"></path><path d="M30.242 30H29a1 1 0 0 1 0-2h1.242a.707.707 0 0 0 .583-.372c.205-.338.233-.755.075-1.118l-2.721-3.942a1 1 0 1 1 1.646-1.136l2.766 4.008a.9.9 0 0 1 .07.12 3.223 3.223 0 0 1-.132 3.119A2.693 2.693 0 0 1 30.242 30z" fill="#e3b692"></path></g></g></svg>