<svg viewBox="0 0 70 70" xmlns="http://www.w3.org/2000/svg"><g><path d="M9.208 24.476V4.869c0-.88.715-1.595 1.596-1.595h17.5c.88 0 1.594.714 1.594 1.595v19.607z" fill="#ffc776"></path><path d="M29.897 4.865v19.61H9.207v-3.48h14.35c2.2 0 3.98-1.78 3.98-3.98V3.276h.77c.88 0 1.59.71 1.59 1.59z" fill="#f4b25b"></path><path d="m52.168 52.305 3.47 1.71h5.08c1.53 0 2.92.62 3.93 1.63 1 1.01 1.62 2.39 1.62 3.93 0 3.07-2.48 5.56-5.55 5.56h-8.55z" fill="#ffc776"></path><path d="M65.857 61.656a5.53 5.53 0 0 1-5.14 3.48h-8.55v-12.83l1.86.92v6.29c0 1.84 1.49 3.33 3.32 3.33h4.96c1.31 0 2.55-.44 3.55-1.19z" fill="#f4b25b"></path><path d="M50.573 66.725c.881 0 1.595-.714 1.595-1.595V51.818c0-.608-.345-1.164-.89-1.432l-19.32-9.501V24.83c0-.881-.714-1.595-1.595-1.595H8.733c-.88 0-1.595.714-1.595 1.595l-.004 20.872c0 2.379-.74 4.694-2.113 6.636a11.498 11.498 0 0 0-2.114 6.643 7.744 7.744 0 0 0 7.744 7.744h39.922z" fill="#e5e8f9"></path><path d="m31.958 40.885-2.46-1.21-.001-16.44h.87c.88 0 1.59.71 1.59 1.59zM52.167 51.816v13.31c0 .88-.71 1.6-1.59 1.6h-39.93a7.745 7.745 0 0 1-7.06-4.58c1.29.95 2.88 1.52 4.61 1.52h28.25c7.33 0 13.26-5.93 13.26-13.25v-.8l1.57.77c.55.27.89.82.89 1.43z" fill="#d6dbf2"></path><path d="m31.807 24.156-19.09 9.68c-.11.05-.23.08-.34.08a.75.75 0 0 1-.34-1.42l18.26-9.26h.07c.64 0 1.19.38 1.44.92zM27.557 36.886l-20.54 10.42c.08-.53.12-1.06.12-1.6v-.14l19.74-10.01a.75.75 0 0 1 1.01.33c.19.37.04.82-.33 1zM36.317 43.026l-29.01 14.72a.753.753 0 0 1-1.01-.33.75.75 0 0 1 .33-1.01l28.01-14.2zM41.707 50.886l-31.23 15.84c-.86-.02-1.68-.18-2.44-.45l32.99-16.73c.37-.18.82-.04 1.01.33.18.37.04.82-.33 1.01zM52.167 54.486v1.68l-15.81 8.02a.753.753 0 0 1-1.01-.33.75.75 0 0 1 .33-1.01z" fill="#c5ceea"></path><path d="M12.11 8.476a.5.5 0 0 1-.5-.5V6.705a.5.5 0 1 1 1 0v1.27a.5.5 0 0 1-.5.5zM12.11 16.847a.5.5 0 0 1-.5-.5v-5.621a.5.5 0 1 1 1 0v5.62a.5.5 0 0 1-.5.5zM34.506 47.17a.497.497 0 0 1-.215-.05l-1.218-.582a.5.5 0 1 1 .432-.902l1.217.583a.5.5 0 0 1-.216.95zM44.632 52.015a.497.497 0 0 1-.215-.05l-8.125-3.887a.5.5 0 1 1 .431-.902l8.125 3.888a.5.5 0 0 1-.216.95z" fill="#ffffff"></path><path d="M65.917 10.417a2.202 2.202 0 0 1 1.172 2.07c-.63 10.443-5.357 19.272-13.92 26.59a2.19 2.19 0 0 1-2.832 0c-8.562-7.318-13.29-16.147-13.92-26.59a2.202 2.202 0 0 1 1.172-2.07c9.443-4.927 18.885-4.927 28.328 0z" fill="#ff4848"></path><path d="M67.09 12.482c-.633 10.448-5.354 19.281-13.916 26.6-.813.69-2.022.69-2.835 0a44.728 44.728 0 0 1-4.552-4.45c.757.757 1.57 1.48 2.406 2.203a2.203 2.203 0 0 0 2.835 0c8.562-7.32 13.294-16.153 13.916-26.59a1.063 1.063 0 0 0-.012-.327c.328.158.656.328.983.497a2.22 2.22 0 0 1 1.175 2.067z" fill="#f91c1c"></path><path d="M51.754 35.136a.747.747 0 0 1-.51-.201c-6.569-6.11-10.171-13.03-11.014-21.156a.75.75 0 0 1 .43-.758c7.429-3.456 14.758-3.456 22.187 0a.75.75 0 0 1 .43.757c-.843 8.127-4.445 15.047-11.012 21.157a.747.747 0 0 1-.51.2zm-9.972-20.977c.88 7.309 4.147 13.599 9.972 19.195 5.824-5.596 9.092-11.887 9.97-19.196-6.704-2.975-13.238-2.975-19.942 0z" fill="#ffffff"></path><path d="M50.5 24.212a.748.748 0 0 1-.53-.22l-2.314-2.313a.75.75 0 1 1 1.061-1.06l1.784 1.783 4.565-4.565a.75.75 0 1 1 1.06 1.06l-5.095 5.096a.748.748 0 0 1-.53.22z" fill="#ffffff"></path></g></svg>