<svg viewBox="0 0 512 512" xmlns="http://www.w3.org/2000/svg"><g><path d="M399.916 207.217s4.982-5.02 4.982-28.29c0-33.772-12.474-58.119-12.474-58.119h-42.976s-12.474 24.346-12.474 58.119c0 23.269 4.982 28.29 4.982 28.29l-38.355 30.539a25.967 25.967 0 0 0-9.793 20.315v238.554c0 8.491 6.884 15.375 15.375 15.375h123.506c8.491 0 15.375-6.884 15.375-15.375V258.071c0-7.91-3.605-15.388-9.793-20.315l-38.355-30.539z" fill="#fd9727"></path><path d="m438.271 237.756-38.355-30.539s4.982-5.02 4.982-28.29c0-33.772-12.474-58.119-12.474-58.119h-32.237c-1.069 17.974-2.621 39.896-3.966 58.078a68.77 68.77 0 0 0 25.752 58.869 25.967 25.967 0 0 1 9.793 20.315v238.554c0 8.491-6.884 15.375-15.375 15.375h56.298c8.491 0 15.375-6.884 15.375-15.375V258.071c0-7.91-3.605-15.388-9.793-20.315z" fill="#e57f23"></path><path d="M293.808 273.51h154.26v206.21h-154.26zM404.872 176.586c-.555-32.548-12.448-55.777-12.448-55.777h-42.976s-11.893 23.23-12.448 55.777h67.872z" fill="#4a4256"></path><path d="M158.374 212.101v-50.882h-38.922v50.882c0 15.821-11.791 29.161-27.492 31.103-16.007 1.98-28.028 15.58-28.028 31.709v223.01c0 7.774 6.302 14.076 14.076 14.076h121.809c7.774 0 14.076-6.302 14.076-14.076v-223.01c0-16.129-12.021-29.729-28.028-31.709-15.7-1.942-27.491-15.282-27.491-31.103z" fill="#77d057"></path><path d="M185.866 243.204c-15.701-1.942-27.492-15.282-27.492-31.103v-50.882h-27.309v336.704c0 7.774-6.302 14.076-14.076 14.076h82.829c7.774 0 14.076-6.302 14.076-14.076v-223.01c0-16.129-12.021-29.729-28.028-31.709z" fill="#68b543"></path><path d="M159.856 207.739H117.97a3.934 3.934 0 0 1-3.934-3.934v-38.652a3.934 3.934 0 0 1 3.934-3.934h41.886a3.934 3.934 0 0 1 3.934 3.934v38.652a3.934 3.934 0 0 1-3.934 3.934z" fill="#602952"></path><path d="M91.96 243.204c-16.007 1.98-28.028 15.58-28.028 31.709v223.01c0 7.774 6.302 14.076 14.076 14.076h121.809c7.774 0 14.076-6.302 14.076-14.076v-223.01c0-16.129-12.021-29.729-28.028-31.709-4.223-.522-89.681-.522-93.905 0z" fill="#306318"></path><path d="M212.679 266.167a31.808 31.808 0 0 0-3.433-7.853 31.973 31.973 0 0 0-23.38-15.11c-2.36-.292-30.065-.421-54.801-.387v255.106c0 7.774-6.302 14.076-14.075 14.076h82.828c3.401 0 6.521-1.206 8.954-3.214s4.18-4.818 4.837-8.025c.188-.916.286-1.865.286-2.837v-223.01a31.996 31.996 0 0 0-1.216-8.746z" fill="#2c5114"></path><path d="M192.554 448.927V291.94c0-5.556-4.504-10.06-10.06-10.06H95.331c-5.556 0-10.06 4.504-10.06 10.06v156.987a7.233 7.233 0 0 0 7.232 7.233h92.818a7.234 7.234 0 0 0 7.233-7.233z" fill="#e9eaeb"></path><path d="M131.065 456.159h54.257a7.232 7.232 0 0 0 7.232-7.233V291.94c0-5.556-4.504-10.06-10.06-10.06h-51.43l.001 174.279z" fill="#b6d1c6"></path><circle cx="138.908" cy="328.87" fill="#602952" r="25.991"></circle><path d="M131.065 353.655a25.954 25.954 0 0 0 7.848 1.209c14.354 0 25.991-11.636 25.991-25.991 0-14.354-11.636-25.991-25.991-25.991a25.96 25.96 0 0 0-7.848 1.209v49.564z" fill="#512047"></path><path d="M160.513 439.966h-43.2a7.612 7.612 0 0 1 0-15.222h43.2a7.612 7.612 0 0 1 0 15.222z" fill="#ffffff"></path><path d="M85.268 376.19h107.28v27.29H85.268z" fill="#fc502a"></path><path d="M131.068 376.19h61.49v27.29h-61.49z" fill="#e60d28"></path><path d="M318.027 470.806c-2.54-1.841-3.874-4.927-3.82-8.064l5.015-288.545a16.22 16.22 0 0 0-4.571-11.967l-29.421-30.287a24.019 24.019 0 0 1-6.79-16.735V.021h-50.968v115.188a24.02 24.02 0 0 1-6.79 16.735l-29.421 30.287a16.22 16.22 0 0 0-4.571 11.967l5.015 288.545c.055 3.137-1.279 6.223-3.82 8.064a6.676 6.676 0 0 0-2.758 5.609l.672 24.854c.161 5.973 5.05 10.73 11.024 10.73h112.266c5.975 0 10.863-4.758 11.024-10.73l.672-24.854a6.678 6.678 0 0 0-2.758-5.61z" fill="#cdeae0"></path><path d="M318.027 470.806c-2.54-1.841-3.874-4.927-3.82-8.064l5.015-288.545a16.22 16.22 0 0 0-4.571-11.967l-29.421-30.287a24.02 24.02 0 0 1-6.79-16.735V.021h-50.968v112.233c0 1.926.578 3.807 1.658 5.401l30.214 44.575a16.22 16.22 0 0 1 4.571 11.967L258.9 462.742c-.055 3.137 1.279 6.223 3.82 8.064a6.676 6.676 0 0 1 2.758 5.609l-.672 24.854c-.161 5.973-5.05 10.73-11.024 10.73h55.308c5.975 0 10.863-4.758 11.024-10.73l.672-24.854a6.68 6.68 0 0 0-2.759-5.609z" fill="#b6d1c6"></path><path d="M276.962 99.203h-48.01a4.213 4.213 0 0 1-4.213-4.213V4.213A4.213 4.213 0 0 1 228.952 0h48.01a4.213 4.213 0 0 1 4.213 4.213V94.99a4.213 4.213 0 0 1-4.213 4.213z" fill="#e60d28"></path><path d="M217.741 228.315c22.594-14.848 47.824-14.848 70.43.029 2.106 1.386 4.918-.048 5.022-2.568l.604-14.683a12.255 12.255 0 0 0-7.471-11.795c-21.653-9.133-45.068-9.145-66.732-.024a12.255 12.255 0 0 0-7.478 11.798l.604 14.673c.105 2.52 2.915 3.954 5.021 2.57z" fill="#fc502a"></path><path d="M281.804 433.132h-57.695a7.612 7.612 0 0 1 0-15.222h57.695a7.612 7.612 0 0 1 0 15.222zM281.804 457h-57.695a7.612 7.612 0 0 1 0-15.222h57.695a7.612 7.612 0 0 1 0 15.222z" fill="#ffffff"></path><path d="M282.362 324.555h-58.81a4.94 4.94 0 0 1-4.94-4.851l-.849-46.267a4.941 4.941 0 0 1 4.94-5.032h60.508a4.941 4.941 0 0 1 4.94 5.032l-.849 46.267a4.941 4.941 0 0 1-4.94 4.851z" fill="#fc502a"></path><path d="M224.738 19.369h56.44v15.222h-56.44z" fill="#e9eaeb"></path><path d="M391.768 273.51h56.3v206.21h-56.3z" fill="#352f3f"></path><path d="M405.847 331.134c-23.548-10.506-46.219-10.53-69.824.001-2.788 1.244-6.068.171-7.625-2.455l-5.862-9.889c-1.832-3.091-.578-7.083 2.683-8.592 30.368-14.054 61.052-14.06 91.433 0 3.261 1.509 4.515 5.502 2.683 8.592l-5.862 9.889c-1.557 2.626-4.837 3.698-7.626 2.454z" fill="#e9eaeb"></path><ellipse cx="370.938" cy="382.34" fill="#e9eaeb" rx="38.461" ry="26.367"></ellipse><path d="M410.831 450.265H331.04a7.612 7.612 0 0 1 0-15.222h79.791a7.61 7.61 0 1 1 0 15.222z" fill="#ffffff"></path><path d="M391.766 360.182v44.32c10.605-4.695 17.631-12.862 17.631-22.16 0-9.297-7.027-17.465-17.631-22.16zM416.653 310.198c-8.277-3.831-16.577-6.609-24.887-8.352v24.238c4.668 1.263 9.357 2.942 14.081 5.049 2.789 1.244 6.069.172 7.626-2.455l5.862-9.889c1.833-3.089.578-7.082-2.682-8.591z" fill="#b6d1c6"></path><path d="M404.872 176.586c-.503-29.486-10.31-51.325-12.151-55.172l-.041-.086-.145-.298-.11-.222h-32.237c-1.024 17.225-2.492 38.067-3.796 55.777l48.48.001z" fill="#352f3f"></path><path d="M396.81 128.143h-51.748a4.145 4.145 0 0 1-4.145-4.145V78.719a4.145 4.145 0 0 1 4.145-4.145h51.748a4.145 4.145 0 0 1 4.145 4.145v45.279a4.145 4.145 0 0 1-4.145 4.145z" fill="#4a4256"></path><path d="M340.918 93.9h60.04v14.11h-60.04z" fill="#e9eaeb"></path><path d="M283.211 268.405h-20.933l-.976 56.149h21.06a4.94 4.94 0 0 0 4.94-4.851l.849-46.267a4.94 4.94 0 0 0-4.94-5.031zM286.326 199.299a86.838 86.838 0 0 0-22.741-6.149l-.434 24.95c8.515 1.516 16.935 4.923 25.018 10.244 2.106 1.386 4.918-.048 5.022-2.568l.604-14.683a12.249 12.249 0 0 0-7.469-11.794z" fill="#e60d28"></path></g></svg>