<svg viewBox="0 0 512 512" xmlns="http://www.w3.org/2000/svg"><g><path d="m512 239.35-41.22-10 10 94.293c0 8.621 6.989 15.61 15.61 15.61 8.621 0 15.61-6.989 15.61-15.61z" fill="#ffbd86"></path><path d="M389.203 318.439h91.577v170.26h-91.577z" fill="#7a6d79"></path><path d="M389.203 318.439v33.301h91.577v-33.301l-45.788-16.484z" fill="#685e68"></path><path d="M434.992 496.199a7.5 7.5 0 0 1-7.5-7.5V362.146c0-4.142 3.357-7.5 7.5-7.5s7.5 3.358 7.5 7.5v126.553a7.5 7.5 0 0 1-7.5 7.5z" fill="#554e56"></path><path d="M0 310.044v27.057l31.22 14.5 22.894-14.5 22.894 14.5 22.894-14.5 22.894 14.5 31.22-14.5v-27.057c0-21.84-17.705-39.545-39.545-39.545H39.545C17.705 270.5 0 288.204 0 310.044z" fill="#60b7ff"></path><path d="M114.472 270.5h-31.22c21.84 0 39.545 17.705 39.545 39.545v33.06l15.793 1.143 15.426-7.147v-27.057c0-21.84-17.705-39.544-39.544-39.544z" fill="#26a6fe"></path><circle cx="77.008" cy="260.093" fill="#fed2a4" r="33.301"></circle><circle cx="77.008" cy="260.093" fill="#fed2a4" r="33.301"></circle><path d="m77.008 430.596 12.488-22.107 33.301 22.107v56.428l-57.788-8.325z" fill="#fed2a4"></path><path d="M101.984 423.776v60.25l20.813-5.327v-48.103z" fill="#ffbd86"></path><path d="M122.797 351.601v78.995l-14.963 7.482a10 10 0 0 1-10.874-1.262l-4.682-3.902a9.997 9.997 0 0 0-6.402-2.318h-8.867v-78.995c0-12.644 10.25-22.894 22.894-22.894 12.644 0 22.894 10.25 22.894 22.894z" fill="#7a6d79"></path><path d="M101.984 351.601v87.424a9.98 9.98 0 0 0 5.85-.947l14.963-7.482v-78.995c0-12.644-10.25-22.894-22.894-22.894-3.749 0-7.283.907-10.406 2.504 7.41 3.79 12.487 11.494 12.487 20.39z" fill="#685e68"></path><path d="M31.22 351.601v127.098l22.894 8.325 22.894-8.325V351.601c0-12.644-10.25-22.894-22.894-22.894-12.644 0-22.894 10.25-22.894 22.894z" fill="#7a6d79"></path><path d="M54.114 328.707c-3.749 0-7.283.907-10.407 2.504 7.411 3.79 12.488 11.495 12.488 20.39v134.494l20.813-7.396V351.601c0-12.644-10.25-22.894-22.894-22.894z" fill="#685e68"></path><path d="M77.008 478.699h48.911a8.325 8.325 0 0 1 8.325 8.325v16.65a8.325 8.325 0 0 1-8.325 8.325H84.508l-7.5-7.5zM77.008 478.699h-48.91a8.325 8.325 0 0 0-8.325 8.325v16.65a8.325 8.325 0 0 0 8.325 8.325h41.41l7.5-7.5z" fill="#fed2a4"></path><path d="M92.618 399.54h40.585c11.495 0 20.813-9.318 20.813-20.813v-41.622h-25.22a6 6 0 0 0-6 6v25.216H92.618c-8.621 0-15.61 6.989-15.61 15.61 0 8.621 6.989 15.609 15.61 15.609z" fill="#ffbd86"></path><path d="M61.398 399.54H20.813C9.318 399.54 0 390.222 0 378.727v-41.622h25.22a6 6 0 0 1 6 6v25.216h30.179c8.621 0 15.61 6.989 15.61 15.61-.001 8.621-6.99 15.609-15.611 15.609z" fill="#fed2a4"></path><path d="M180.748 454.549H248a8 8 0 0 1 8 8v8.65c0 18.392-14.909 33.301-33.301 33.301h-16.65c-18.392 0-33.301-14.909-33.301-33.301v-8.65a8 8 0 0 1 8-8z" fill="#60b7ff"></path><path d="M224.78 454.549v16.65c0 15.888-11.13 29.168-26.016 32.492a33.37 33.37 0 0 0 7.285.809h16.65c18.392 0 33.301-14.909 33.301-33.301v-8.65a8 8 0 0 0-8-8z" fill="#26a6fe"></path><path d="M290.341 208.13h72.846l14.049-16.92-14.049-18.462h-72.846c-9.771 0-17.691 7.921-17.691 17.691 0 9.771 7.921 17.691 17.691 17.691z" fill="#fed2a4"></path><path d="M363.187 172.748v35.382h20.016a6 6 0 0 1 6 6v104.309h91.577V245.35a6 6 0 0 1 6-6H512v-27.057c0-21.84-17.705-39.545-39.545-39.545z" fill="#fd8087"></path><path d="M486.781 239.35H512v-27.057c0-21.84-17.705-39.545-39.545-39.545h-31.219c21.84 0 39.545 17.705 39.545 39.545v33.057a6 6 0 0 1 6-6z" fill="#fe646f"></path><circle cx="434.992" cy="139.447" fill="#fed2a4" r="33.301"></circle><circle cx="434.992" cy="139.447" fill="#fed2a4" r="33.301"></circle><path d="M489.106 512h-54.114l-9.586-13.141 9.586-20.16h54.114a8.325 8.325 0 0 1 8.325 8.325v16.65a8.325 8.325 0 0 1-8.325 8.326z" fill="#c4e2ff"></path><path d="M380.878 512h54.114v-33.301h-54.114a8.325 8.325 0 0 0-8.325 8.325v16.65a8.325 8.325 0 0 0 8.325 8.326z" fill="#d8ecfe"></path><path d="M292.392.071c33.246 1.527 59.782 27.241 62.267 60.429 1.524 20.352-6.258 38.919-19.526 51.9-.979.958-1.372 2.365-1.071 3.701l4.375 19.425c.879 3.903-3.151 7.087-6.745 5.33l-23.52-11.501a4.03 4.03 0 0 0-2.767-.272 65.499 65.499 0 0 1-16.103 2.012c-36.201 0-65.547-29.346-65.547-65.547-.001-37.227 31.03-67.204 68.637-65.477z" fill="#fd8087"></path><path d="M334.061 116.101c-.301-1.336.092-2.743 1.071-3.701 12.812-12.534 20.509-30.276 19.651-49.806-.977-22.242-13.238-41.722-31.154-52.821 4.791 10.018 7.479 21.234 7.479 33.079 0 42.397-34.37 76.767-76.767 76.767-.724 0-1.439-.035-2.157-.055a65.23 65.23 0 0 0 37.118 11.529c5.559 0 10.95-.707 16.104-2.012a4.03 4.03 0 0 1 2.767.272l23.52 11.501c3.594 1.758 7.624-1.427 6.745-5.33z" fill="#fe646f"></path><circle cx="77.008" cy="126.89" fill="#6cf5c2" r="64.52"></circle><path d="M108.432 70.542a64.204 64.204 0 0 1 8.172 31.424c0 35.634-28.887 64.52-64.52 64.52a64.21 64.21 0 0 1-31.424-8.172c11.033 19.741 32.126 33.097 56.348 33.097 35.634 0 64.52-28.887 64.52-64.52 0-24.223-13.355-45.316-33.096-56.349z" fill="#00f2a6"></path><path d="M306.921 51.83a7.5 7.5 0 0 1-3.991-13.855l5.825-3.652a7.5 7.5 0 0 1 7.969 12.709l-5.825 3.652a7.482 7.482 0 0 1-3.978 1.146zM271.681 51.83a7.473 7.473 0 0 1-3.978-1.146l-5.825-3.652a7.5 7.5 0 0 1 7.969-12.709l5.825 3.652a7.5 7.5 0 0 1-3.991 13.855zM289.301 106.965c-13.898 0-26.547-8.72-31.475-21.699a7.5 7.5 0 0 1 14.024-5.324c2.73 7.191 9.743 12.023 17.451 12.023s14.721-4.832 17.451-12.023a7.504 7.504 0 0 1 9.674-4.35 7.502 7.502 0 0 1 4.35 9.674c-4.928 12.979-17.577 21.699-31.475 21.699z" fill="#fd4755"></path><path d="M91.979 155.489a7.478 7.478 0 0 1-5.304-2.197c-2.582-2.583-6.016-4.004-9.668-4.004s-7.086 1.422-9.668 4.004a7.5 7.5 0 0 1-10.607-10.606c5.416-5.416 12.616-8.398 20.275-8.398s14.859 2.982 20.275 8.398a7.5 7.5 0 0 1 0 10.606 7.474 7.474 0 0 1-5.303 2.197zM103.933 115.485a7.516 7.516 0 0 1-1.946-.257l-8.182-2.192a7.5 7.5 0 0 1 3.883-14.489l8.182 2.192a7.5 7.5 0 0 1-1.937 14.746zM50.084 115.485a7.5 7.5 0 0 1-7.239-5.561 7.5 7.5 0 0 1 5.303-9.186l8.181-2.192a7.5 7.5 0 0 1 3.883 14.489l-8.181 2.192a7.531 7.531 0 0 1-1.947.258z" fill="#05e39c"></path><path d="M244.374 512h-60c-4.143 0-7.5-3.358-7.5-7.5s3.357-7.5 7.5-7.5h60c4.143 0 7.5 3.358 7.5 7.5s-3.357 7.5-7.5 7.5z" fill="#26a6fe"></path><path d="M69.508 478.699h15V512h-15z" fill="#ffbd86"></path></g></svg>