<svg viewBox="0 0 503.343 503" xmlns="http://www.w3.org/2000/svg"><g><path d="M52.176 251.832 234.18 399.359s-8.68 17.356-43.02 36.864a17.566 17.566 0 0 0-9.05 15.203v34.71c0 9.587-7.77 17.356-17.356 17.356H60.62c-9.586 0-17.36-7.77-17.36-17.355v-25.61c0-15.894-11.202-29.355-19.16-42.27C8.985 393.728 2.192 392.583.11 364.646zm0 0" fill="#fdd7ad"></path><path d="M269.125 371.762v1.562c.016.551-.016 1.102-.086 1.649-.809 13.726-12.2 24.433-25.95 24.386H86.888c-14.38 0-26.032-11.656-26.032-26.035V26.207C60.855 11.828 72.508.172 86.887.172H243.09c14.379 0 26.035 11.656 26.035 26.035zm0 0" fill="#90bae1"></path><path d="M86.887 477.46H78.21c-4.793 0-8.68-3.886-8.68-8.679s3.887-8.676 8.68-8.676h8.676c4.793 0 8.68 3.883 8.68 8.676s-3.887 8.68-8.68 8.68zM147.633 477.46h-26.035c-4.793 0-8.676-3.886-8.676-8.679s3.883-8.676 8.676-8.676h26.035c4.793 0 8.68 3.883 8.68 8.676s-3.887 8.68-8.68 8.68zm0 0" fill="#fee7ce"></path><path d="M267.648 17.703c-35.144 32.281-152.558 152.73-204.71 365.774a24.679 24.679 0 0 1-2.083-10.153V26.207C60.855 11.828 72.508.172 86.887.172H243.09a25.825 25.825 0 0 1 24.558 17.531zm0 0" fill="#b0d3f0"></path><path d="M234.414.172h-8.68c-4.793 0-8.675 3.887-8.675 8.68v8.675c0 9.586-7.774 17.356-17.36 17.356h-69.422c-9.586 0-17.355-7.77-17.355-17.356V8.852a8.68 8.68 0 0 0-8.68-8.68h-8.676M199.7 373.324h-69.423a8.68 8.68 0 0 1-8.68-8.68c0-4.789 3.887-8.675 8.68-8.675H199.7c4.793 0 8.68 3.886 8.68 8.676a8.68 8.68 0 0 1-8.68 8.68zm0 0" fill="#35495e"></path><path d="M.23 364.645c-1.07-14.352 1.918-53.489 2.29-67.973.375-14.485-1.18-30.192-.711-44.258.668-20.047 11.445-33.707 16.843-52.648a249.184 249.184 0 0 0 7.188-36.797c.933-8.66 8.226-15.235 16.937-15.274h1.535s33.786 0 33.786 52.07c1.293 5.208-8.68 69.423-26.035 78.102zm0 0" fill="#fdd7ad"></path><path d="M46.316 274.969a9.682 9.682 0 0 1-3.644-13.887c12.445-19.879 19.273-65.656 18.183-69.996 0-23.258-6.683-36.098-14.148-43.129 7.813 1.129 31.414 8.332 31.414 51.809 1.149 4.582-6.445 54.879-20.113 72.78a9.41 9.41 0 0 1-11.692 2.423zm0 0" fill="#cbb292"></path><path d="M212.371 151.95a51.442 51.442 0 0 0 4.688-21.61c0-28.754-23.313-52.067-52.07-52.067-28.755 0-52.067 23.313-52.067 52.067 0 28.758 23.312 52.07 52.066 52.07 1.625 0 3.246-.086 4.86-.262zm0 0" fill="#4482c3"></path><path d="m494.926 433.55-96.153 66.645a19.09 19.09 0 0 1-26.554-5.12l-16.574-24.384c0-.086-.086-.086-.086-.175a20.277 20.277 0 0 0-19.442-7.895 50.587 50.587 0 0 1-49.637-19.875l-53.714-81.312c-8.942-13.188-9.2-34.536 3.902-43.387l16.922-13.02-101.445-148.914a26.033 26.033 0 1 1 43.043-29.156l67.601 98.406h.086c-8.027-11.937-4.883-28.12 7.031-36.183 11.914-8.012 28.063-4.868 36.102 7.027l9.719 14.32a26.038 26.038 0 0 1 19.625-40.91 26.047 26.047 0 0 1 23.503 11.75l9.72 14.32a26.041 26.041 0 0 1 8.155-36.882c12.446-6.875 28.083-2.973 35.84 8.937l8.852 13.192 42.004 61.875a185.349 185.349 0 0 1 31.152 95.195c.434 9.808 1.387 19.613 1.043 29.418-.433 13.191-2.691 27.598 4.426 39.574a19.098 19.098 0 0 1-5.121 26.555zm0 0" fill="#fdd7ad"></path><path d="M399.383 466.527a8.68 8.68 0 0 1-4.871-15.863l7.187-4.863a8.686 8.686 0 0 1 13.531 6.558 8.682 8.682 0 0 1-3.785 7.813l-7.187 4.86a8.614 8.614 0 0 1-4.875 1.495zM435.309 442.21a8.684 8.684 0 0 1-8.313-6.132 8.674 8.674 0 0 1 3.442-9.738l30.921-20.906c3.97-2.688 9.368-1.645 12.055 2.324a8.683 8.683 0 0 1-2.328 12.054l-30.918 20.907a8.722 8.722 0 0 1-4.86 1.492zm0 0" fill="#fee7ce"></path><g fill="#cbb292"><path d="M321.973 389.203a9.068 9.068 0 0 1-4.86 1.477 8.68 8.68 0 0 1-7.203-3.817l-56.754-83.398-.433.347-100.578-147.699a25.978 25.978 0 0 1-4.008-19.488 25.973 25.973 0 0 1 10.953-16.61 19.834 19.834 0 0 1 4.683-2.43 25.765 25.765 0 0 0 1.563 26.466l94.07 138.156c0 .086.086.172.258.258.418.43.797.894 1.129 1.39l63.523 93.29a8.676 8.676 0 0 1 1.332 6.515 8.676 8.676 0 0 1-3.675 5.543zM279.02 232.914a8.796 8.796 0 0 1-4.95 1.563 8.536 8.536 0 0 1-7.113-3.73l-4.95-7.204a5.421 5.421 0 0 1-.69-1.215l-.09.086a25.798 25.798 0 0 1 2.343-27.16 26.294 26.294 0 0 1 6.336-6.074 20.02 20.02 0 0 1 4.688-2.434 26.101 26.101 0 0 0 1.472 26.555h-.086c.086.09.172.262.262.347l4.945 7.204a8.678 8.678 0 0 1-2.167 12.062zM332.734 219.984a8.42 8.42 0 0 1-4.859 1.477 8.68 8.68 0 0 1-7.203-3.734l-4.945-7.2a5.685 5.685 0 0 1-.696-1.214 25.69 25.69 0 0 1 1.301-28.641 23.275 23.275 0 0 1 6.422-6.246 22.534 22.534 0 0 1 4.512-2.43 30.496 30.496 0 0 0 2.777 28.723l4.95 7.203c2.706 3.953 1.695 9.355-2.259 12.062zM385.582 205.145a8.42 8.42 0 0 1-4.86 1.476 8.687 8.687 0 0 1-7.202-3.73l-4.946-7.203a8.71 8.71 0 0 1-.695-1.215 25.989 25.989 0 0 1 1.215-28.727 26.722 26.722 0 0 1 7.636-6.941 19.217 19.217 0 0 1 3.56-1.735 31.119 31.119 0 0 0 2.605 28.809l4.945 7.203c2.707 3.953 1.695 9.356-2.258 12.063zm0 0" fill="#cbb292"></path></g></g></svg>