<svg viewBox="0 0 512 512" xmlns="http://www.w3.org/2000/svg"><g><path d="m260.267 480.875-97.685-43.264-31.488-7.872 30.485-91.456a10.668 10.668 0 0 0-13.653-13.44l-54.805 19.2C37.4 363.495.056 416.033 0 475.051v15.573c0 5.891 4.776 10.667 10.667 10.667H256c5.891-.033 10.639-4.836 10.606-10.727a10.667 10.667 0 0 0-6.339-9.689z" fill="#757575"></path><path d="M367.147 326.528a10.667 10.667 0 0 0-14.464 1.173A131.712 131.712 0 0 1 256 373.29a131.713 131.713 0 0 1-96.683-45.611c-4.029-4.298-10.779-4.517-15.077-.488a10.666 10.666 0 0 0-1.627 13.629l104.533 155.733c3.286 4.89 9.913 6.19 14.803 2.904a10.673 10.673 0 0 0 2.904-2.904L369.386 340.82a10.665 10.665 0 0 0-2.239-14.292z" fill="#9e9e9e"></path><path d="m418.88 344.021-54.805-19.2a10.666 10.666 0 0 0-13.653 13.44l30.507 91.499-33.259 8.533-96 42.667c-5.385 2.39-7.812 8.692-5.422 14.077a10.665 10.665 0 0 0 9.689 6.339h245.397c5.891 0 10.667-4.775 10.667-10.666v-15.659c-.048-59.026-37.394-111.575-93.121-131.03z" fill="#757575"></path><path d="M264.853 484.693 160.32 328.96a10.816 10.816 0 0 0-10.283-4.629 10.665 10.665 0 0 0-8.683 7.189l-34.133 102.4c-1.869 5.587 1.144 11.631 6.731 13.5.27.091.544.17.821.239l40.917 10.069 96 42.667c5.388 2.383 11.687-.054 14.069-5.441a10.667 10.667 0 0 0-.885-10.239l-.021-.022z" fill="#424242"></path><path d="m404.8 433.92-34.133-102.4a10.665 10.665 0 0 0-8.683-7.189 10.838 10.838 0 0 0-10.283 4.629L247.168 484.693a10.667 10.667 0 0 0 13.184 15.68l94.251-42.069 42.667-10.667c5.718-1.416 9.206-7.199 7.791-12.918a10.564 10.564 0 0 0-.239-.821l-.022.022z" fill="#424242"></path><path d="M256 10.624c-70.658.082-127.918 57.342-128 128v48c0 91.157 57.408 165.333 128 165.333s128-74.176 128-165.333v-48c-.082-70.658-57.342-127.918-128-128z" fill="#cfd8dc"></path><circle cx="256" cy="223.957" fill="#455a64" r="10.667"></circle><circle cx="224" cy="255.957" fill="#455a64" r="10.667"></circle><circle cx="181.333" cy="234.624" fill="#455a64" r="10.667"></circle><circle cx="224" cy="298.624" fill="#455a64" r="10.667"></circle><circle cx="288" cy="255.957" fill="#455a64" r="10.667"></circle><circle cx="330.667" cy="234.624" fill="#455a64" r="10.667"></circle><circle cx="288" cy="298.624" fill="#455a64" r="10.667"></circle><circle cx="224" cy="63.957" fill="#455a64" r="10.667"></circle><circle cx="202.667" cy="106.624" fill="#455a64" r="10.667"></circle><circle cx="288" cy="63.957" fill="#455a64" r="10.667"></circle><circle cx="309.333" cy="106.624" fill="#455a64" r="10.667"></circle><path d="M228.992 155.413a30.85 30.85 0 0 0-23.573-6.123h-5.504a30.912 30.912 0 0 0-23.573 6.144 20.586 20.586 0 0 0-5.675 15.189c0 17.673 14.327 32 32 32s32-14.327 32-32a20.589 20.589 0 0 0-5.675-15.21zM335.659 155.413a30.85 30.85 0 0 0-23.573-6.123h-5.504a30.912 30.912 0 0 0-23.573 6.144 20.586 20.586 0 0 0-5.675 15.189c0 17.673 14.327 32 32 32s32-14.327 32-32a20.593 20.593 0 0 0-5.675-15.21z" fill="#455a64"></path><path d="M256 149.291c-1.659 0-3.295-.387-4.779-1.131l-21.333-10.667c-5.272-2.633-7.412-9.042-4.779-14.315 2.633-5.272 9.042-7.412 14.315-4.779l16.576 8.3 16.555-8.299c5.272-2.633 11.681-.494 14.315 4.779 2.633 5.272.494 11.681-4.779 14.315l-21.333 10.667a10.693 10.693 0 0 1-4.758 1.13z" fill="#f44336"></path></g></svg>