<svg height="512" viewBox="0 0 64 64" width="512" xmlns="http://www.w3.org/2000/svg"><g id="Unlimited_Time" data-name="Unlimited Time"><path d="m47.6748 33.169c-6.466 0-13.3833 7.18377-15.6748 9.78381-2.2915-2.6-9.2088-9.78381-15.6748-9.78381a11.3252 11.3252 0 1 0 0 22.65039c6.466 0 13.3833-7.18378 15.6748-9.78382 2.2915 2.6 9.2088 9.78382 15.6748 9.78382a11.3252 11.3252 0 1 0 0-22.65039zm-31.3496 20.65034a9.3252 9.3252 0 1 1 0-18.65039c5.76269 0 12.44921 7.13867 14.36229 9.32519-1.91161 2.1875-8.59179 9.3252-14.36229 9.3252zm31.3496 0c-5.76269 0-12.44921-7.13868-14.36231-9.3252 1.91163-2.1875 8.59181-9.32514 14.36231-9.32514a9.3252 9.3252 0 1 1 0 18.65039z" fill="#f05454"/><path d="m44 21.18c0 .34-.01.67-.04 1a12.01192 12.01192 0 0 1 -10.96 10.96c-.33.03-.66.04-1 .04s-.67-.01-1-.04a12.01194 12.01194 0 0 1 -10.96-10.96c-.03-.33-.04-.66-.04-1a1.20907 1.20907 0 0 1 .01-.19c0-.27.02-.54.04-.81a11.92138 11.92138 0 0 1 2.79-6.75 11.73767 11.73767 0 0 1 1.41-1.41 11.9217 11.9217 0 0 1 6.75-2.79c.27-.02.54-.04.81-.04a1.209 1.209 0 0 1 .19-.01c.34 0 .67.01 1 .04a12.01194 12.01194 0 0 1 10.96 10.96c.03.33.04.66.04 1z" fill="#d2d2d2"/><path d="m43.26 20.81a12.44381 12.44381 0 0 1 -.08 1.37 11.5543 11.5543 0 0 1 -2.65 6.12 11.7384 11.7384 0 0 1 -1.41 1.41 11.554 11.554 0 0 1 -6.12 2.65 12.44544 12.44544 0 0 1 -1.37.08c-.21 0-.42-.01-.63-.01a11.66766 11.66766 0 0 1 -6.44-2.39 11.13274 11.13274 0 0 1 -1.48-1.35 11.5255 11.5255 0 0 1 -2.99-6.51 11.68023 11.68023 0 0 1 -.08-1.19c0-.27.02-.54.04-.81a11.92138 11.92138 0 0 1 2.79-6.75 11.73767 11.73767 0 0 1 1.41-1.41 11.9217 11.9217 0 0 1 6.75-2.79c.27-.02.54-.04.81-.04a11.69748 11.69748 0 0 1 1.19.08 11.526 11.526 0 0 1 6.51 2.99 11.1253 11.1253 0 0 1 1.35 1.48 11.66766 11.66766 0 0 1 2.39 6.44c0 .21.01.42.01.63z" fill="#f6f4e6"/><g fill="#52575d"><path d="m33 9.22v1.74a1 1 0 1 1 -2 0v-1.73c.27-.02.54-.04.81-.04a1.209 1.209 0 0 1 .19-.01c.34 0 .67.01 1 .04z"/><path d="m25.48 14.66a1.02414 1.02414 0 0 1 -.71.29 1.04251 1.04251 0 0 1 -.71-.29l-1.22-1.23a11.73767 11.73767 0 0 1 1.41-1.41l1.23 1.23a.99579.99579 0 0 1 0 1.41z"/><path d="m22.78 21.18a1.003 1.003 0 0 1 -1 1h-1.74c-.03-.33-.04-.66-.04-1a1.20907 1.20907 0 0 1 .01-.19c0-.27.02-.54.04-.81h1.73a1.003 1.003 0 0 1 1 1z"/><path d="m25.48 29.12-.92.92-.31.3a11.7336 11.7336 0 0 1 -1.41-1.41l.24-.24.98-.99a1.00408 1.00408 0 1 1 1.42 1.42z"/><path d="m33 31.4v1.74c-.33.03-.66.04-1 .04s-.67-.01-1-.04v-1.74a1 1 0 0 1 2 0z"/><path d="m41.16 28.93a11.7336 11.7336 0 0 1 -1.41 1.41l-.63-.63-.6-.59a1.00408 1.00408 0 1 1 1.42-1.42l.59.6z"/><path d="m44 21.18c0 .34-.01.67-.04 1h-1.74a1 1 0 0 1 0-2h1.74c.03.33.04.66.04 1z"/><path d="m41.16 13.43-.3.31-.92.92a1.04251 1.04251 0 0 1 -.71.29 1.02414 1.02414 0 0 1 -.71-.29.99579.99579 0 0 1 0-1.41l.99-.99.24-.24005a11.73767 11.73767 0 0 1 1.41 1.41005z"/><path d="m36.07031 22.18066h-4.07031a.99973.99973 0 0 1 -1-1v-6.80078a1 1 0 0 1 2 0v5.80078h3.07031a1 1 0 0 1 0 2z"/></g></g></svg>