<svg viewBox="0 0 512 512" xmlns="http://www.w3.org/2000/svg"><g><path d="M360.332 512H152.664c0-57.341 46.488-103.828 103.84-103.828 28.671 0 54.625 11.625 73.414 30.414 18.79 18.789 30.414 44.743 30.414 73.414z" fill="#9be69d"></path><path d="M284.034 411.86c-43.995 12.049-76.32 52.322-76.32 100.14h-55.05c0-57.341 46.499-103.828 103.84-103.828 9.534 0 18.767 1.285 27.53 3.688z" fill="#6fd7a3"></path><path d="M434.694 229.62c1.7 5.512 2.648 11.559 2.648 17.905 0 25.591-15.278 46.319-34.142 46.319-8.51 0-16.288-4.235-22.274-11.24-6.161 46.133-37.366 84.334-79.492 100.488a127.346 127.346 0 0 1-10.797 3.585v18.935c0 9.437-3.822 17.967-9.993 24.148-6.181 6.161-14.722 9.993-24.148 9.993 0 0-8.596-28.965-24.28-52.454-24.929-37.335-61.386-77.369-61.386-90.466 0-10.618-17.137-29.777 0-50.032 17.282-20.427 85.665-48.873 85.665-48.873s90.55-20.91 81.659-27.977l122.315 27.977c-1.276 15.075-11.743 27.5-25.775 31.692z" fill="#fec0dd"></path><path d="M301.435 383.093a126.99 126.99 0 0 1-10.797 3.585v18.935c0 9.437-3.822 17.968-9.993 24.149-6.181 6.171-14.722 9.993-24.138 9.993h-.01l-10.608-42.563 10.608-25.781a125.84 125.84 0 0 0 34.245 4.729c4.058-.001 7.633 2.513 10.693 6.953z" fill="#fea3ce"></path><path d="m375.333 110.669-118.836 87.262-72.631 43.055-143.5-43.055a34.025 34.025 0 0 1-.134-3.091c0-20.048 16.247-36.305 36.305-36.305 0 0-47.72-53.767 0-108.256 33.936-38.747 101.405-9.9 106.566-7.613.082.041.165.062.247.103.021.011.052.021.072.041 0 0 20.707-47.668 73.074-42.404.001 0 125.904 119.154 118.837 110.263z" fill="#ffc344"></path><path d="M182.743 42.521c-37.706-15.618-73.177 56.806-60.031 114.468-.979 3.4 1.441 7.701 1.441 11.42 0 12.239 10.027 26.374 18.908 33.452l-44.263 3.442-58.431-7.374a34.025 34.025 0 0 1-.134-3.091c0-20.048 16.247-36.305 36.305-36.305 0 0-47.72-53.767 0-108.256 33.296-38.014 98.89-10.95 106.205-7.756z" fill="#fea95c"></path><path d="M187.657 289.868c0 21.336 17.287 38.623 38.613 38.623 12.239 0 23.149-5.697 30.227-14.578v125.842c-18.853 0-34.131-15.289-34.131-34.142v-18.935c-47.524-13.403-83.623-54.087-90.299-104.073-5.975 7.005-13.754 11.24-22.273 11.24-18.853 0-34.131-20.728-34.131-46.319 0-5.769.783-11.291 2.205-16.38h-1.329c-10.034 0-19.111-4.069-25.684-10.632-5.872-5.883-9.746-13.784-10.488-22.582h95.419c-8.881-7.078-14.578-17.988-14.578-30.227 0-21.325 17.287-38.613 38.623-38.613 21.326 0 38.613 17.287 38.613 38.613 0 12.239-5.697 23.149-14.578 30.227h72.631v67.902c-7.078-8.88-17.988-14.578-30.227-14.578-21.326-.001-38.613 17.286-38.613 38.612z" fill="#fef056"></path><path d="M449.973 169.177a36.207 36.207 0 0 1 10.622 25.663c0 1.04-.041 2.071-.124 3.091h-94.338c8.891 7.067 14.588 17.988 14.588 30.227 0 21.326-17.287 38.613-38.613 38.613s-38.613-17.287-38.613-38.613c0-12.239 5.697-23.159 14.588-30.227h-61.587v-66.316c7.067 8.891 17.988 14.588 30.227 14.588 21.326 0 38.613-17.287 38.613-38.613s-17.287-38.613-38.613-38.613c-12.239 0-23.159 5.697-30.227 14.588V.406c13.475 1.339 29.042 6.202 46.896 16.277 102.878 58.063 158.706 4.286 158.706 4.286 27.322 51.728-8.726 125.574-40.323 137.566h2.514c10.035 0 19.111 4.069 25.684 10.642zM40.366 197.931h-.01" fill="#60b7ff"></path><path d="M256.497 371.41v68.345c-18.863-.01-34.131-15.278-34.131-34.142v-18.935c-47.524-13.403-83.623-54.087-90.289-104.073-5.985 7.006-13.764 11.25-22.284 11.25-18.853 0-34.131-20.738-34.131-46.319 0-5.975.845-11.683 2.359-16.926l-1.483.536c-10.034 0-19.111-4.07-25.683-10.622-5.872-5.893-9.746-13.795-10.488-22.593h95.419c-8.881-7.078-14.578-17.988-14.578-30.227 0-3.719.525-7.315 1.504-10.714 4.162 18.317 13.238 35.151 28.712 47.205-.052 8.849-.072 14.938-.072 16.566 0 72.631 44.722 133.64 105.145 150.649z" fill="#fedf30"></path></g></svg>