<svg viewBox="0 0 512 512" xmlns="http://www.w3.org/2000/svg"><g><path d="m263.623 108.981-53.549 31.868-94.596 82.289H418.53l-94.596-82.289-53.549-31.868a5.152 5.152 0 0 0-6.762 0z" fill="#a29aa5"></path><path d="m268.885 99.528-5.071 4.639 122.258 118.971h32.458l-94.596-82.289c-.001-.001-53.111-43.007-55.049-41.321z" fill="#8c818f"></path><path d="m251.306 142.343 16.338 19.759c1.744 2.11 5.023 1.963 6.572-.293l13.168-19.173a4.122 4.122 0 0 1 3.397-1.788h33.152l-53.549-46.583a5.15 5.15 0 0 0-6.761 0l-53.549 46.583h38.056c1.228 0 2.393.548 3.176 1.495z" fill="#c5bec6"></path><path d="m258.43 98.783 43.177 42.065h22.326l-53.549-46.583a5.152 5.152 0 0 0-6.762 0z" fill="#b5adb7"></path><path d="m503.18 260.158-22.732-83.175a3.09 3.09 0 0 0-2.981-2.276h-17.795l-15.218-36.846a5.152 5.152 0 0 0-4.761-3.185h-36.549c-1.66 0-3.218.8-4.185 2.149l-26.195 36.517a5.147 5.147 0 0 1-2.575 1.89l-128.93 42.426v42.499H503.18z" fill="#dcd2cd"></path><path d="M480.447 176.983a3.09 3.09 0 0 0-2.981-2.276h-17.795l-15.218-36.846a5.152 5.152 0 0 0-4.761-3.185h-27.003a5.15 5.15 0 0 1 4.761 3.185l15.218 36.846h17.795a3.09 3.09 0 0 1 2.981 2.276l22.732 83.175h27.003z" fill="#c8beb9"></path><path d="m443.369 269.885-74.592-63.893a10.3 10.3 0 0 0-5.359-2.39L234.64 186.667a10.306 10.306 0 0 1-5.329-2.365l-51.122-43.454a10.302 10.302 0 0 0-6.672-2.452h-20.385a10.3 10.3 0 0 0-7.026 2.768l-64.549 60.192a10.301 10.301 0 0 1-5.759 2.689l-30.49 3.779a10.302 10.302 0 0 0-8.572 7.17l-21.233 68.425z" fill="#e4c2bb"></path><path d="m149.502 140.848 64.514 58.907a10.306 10.306 0 0 0 5.329 2.365l128.778 16.935c1.98.26 3.842 1.091 5.358 2.39l60.599 49.363 29.289-.922-74.592-63.893a10.303 10.303 0 0 0-5.359-2.39L234.64 186.668a10.306 10.306 0 0 1-5.329-2.365l-51.122-43.454a10.302 10.302 0 0 0-6.672-2.452h-20.385c-1.442 0-2.85.313-4.147.884.902.397 1.753.918 2.517 1.567z" fill="#cba59d"></path><path d="M0 265.158v148.841a5 5 0 0 0 5 5h142.986l98.058-16 106.077 16H507a5 5 0 0 0 5-5V265.158a5 5 0 0 0-5-5H5a5 5 0 0 0-5 5z" fill="#acd980"></path><path d="M371.09 260.158h-56.534c-3.513 2.408-6.548 5.418-8.7 9.054-11.652 19.685 15.092 30.517 13.844 49.281-.588 8.844-7.762 16.078-15.785 20.109-24.934 12.526-55.408 15.587-81.68 25.099-22.059 7.987-43.46 19.06-59.679 35.797-5.645 5.826-10.6 12.416-14.57 19.5h204.135c-10.455-3.851-20.532-8.899-27.47-15.673-3.41-3.329-6.121-7.784-5.619-12.424.621-5.738 5.935-10.027 11.478-12.278 17.612-7.154 34.869-12.061 51.506-21.671 5.969-3.447 11.653-7.712 15.166-13.48 3.513-5.767 4.509-13.275 1.138-19.12-10.728-18.601-45.846-10.437-51.551-33.488-1.193-4.818.087-9.99 2.696-14.264 4.925-8.065 12.779-13.077 21.625-16.442z" fill="#80b6fc"></path><path d="M62.217 400.658a7.725 7.725 0 0 1-7.726-7.726V375.65a7.726 7.726 0 1 1 15.452 0v17.282a7.725 7.725 0 0 1-7.726 7.726z" fill="#8c5e5e"></path><path d="m95.466 363.984-23.532-66.761c-1.473-4.178-5.286-6.878-9.716-6.878-4.429 0-8.242 2.7-9.715 6.877L28.97 363.984a10.311 10.311 0 0 0 1.308 9.376 10.314 10.314 0 0 0 8.407 4.35h47.064c3.337 0 6.481-1.626 8.408-4.35a10.311 10.311 0 0 0 1.309-9.376z" fill="#5ea570"></path><path d="M414.858 192.773a5.982 5.982 0 0 0 4.242-1.757l14.796-14.795a4.388 4.388 0 0 1 3.103-1.285h22.671c.563 0 1.105-.083 1.621-.228h-1.621l-4.862-11.772h-19.98a11.147 11.147 0 0 0-7.883 3.265l-16.15 16.149c-2.406 2.406-2.525 6.466-.046 8.797a5.988 5.988 0 0 0 4.109 1.626z" fill="#c8beb9"></path><path d="M165.46 354.287a7.725 7.725 0 0 1-7.726-7.726v-17.282a7.726 7.726 0 1 1 15.452 0v17.282a7.727 7.727 0 0 1-7.726 7.726z" fill="#8c5e5e"></path><path d="m198.707 317.613-23.532-66.762c-1.473-4.178-5.286-6.877-9.715-6.877-4.431 0-8.243 2.699-9.716 6.877l-23.532 66.762a10.311 10.311 0 0 0 1.308 9.376 10.315 10.315 0 0 0 8.408 4.35h47.064c3.337 0 6.481-1.627 8.409-4.351s2.416-6.229 1.306-9.375z" fill="#5ea570"></path><path d="M443.368 324.313a7.725 7.725 0 0 1-7.726-7.726v-17.282a7.726 7.726 0 1 1 15.452 0v17.282a7.725 7.725 0 0 1-7.726 7.726z" fill="#8c5e5e"></path><path d="m476.617 287.639-23.532-66.762c-1.473-4.178-5.286-6.877-9.716-6.877s-8.242 2.699-9.715 6.877l-23.532 66.762a10.311 10.311 0 0 0 1.308 9.376 10.315 10.315 0 0 0 8.408 4.35H466.9c3.337 0 6.481-1.626 8.408-4.35a10.314 10.314 0 0 0 1.309-9.376z" fill="#5ea570"></path></g></svg>