<svg viewBox="0 0 512 512" xmlns="http://www.w3.org/2000/svg"><g><path d="M405.902 262.85H395.58a7.742 7.742 0 1 1 0-15.484h10.323a7.742 7.742 0 1 1-.001 15.484zm25.805-.004a7.743 7.743 0 0 1-.09-15.484 52.498 52.498 0 0 0 8.936-.872c4.206-.784 8.244 1.995 9.024 6.2a7.741 7.741 0 0 1-6.2 9.024 68.016 68.016 0 0 1-11.578 1.131l-.092.001zm33.837-10.988a7.742 7.742 0 0 1-4.487-14.057 52.597 52.597 0 0 0 6.852-5.806 7.742 7.742 0 1 1 10.985 10.913 68.09 68.09 0 0 1-8.877 7.522 7.7 7.7 0 0 1-4.473 1.428zm21.609-28.25a7.743 7.743 0 0 1-7.269-10.409 51.802 51.802 0 0 0 2.343-8.652 7.742 7.742 0 0 1 15.24 2.738 67.374 67.374 0 0 1-3.045 11.243 7.742 7.742 0 0 1-7.269 5.08zm1.763-35.532a7.746 7.746 0 0 1-7.494-5.822 52.016 52.016 0 0 0-2.972-8.462 7.742 7.742 0 1 1 14.109-6.379 67.37 67.37 0 0 1 3.862 10.996 7.743 7.743 0 0 1-7.505 9.667zm-18.704-30.267a7.715 7.715 0 0 1-5.08-1.902 52.426 52.426 0 0 0-7.252-5.291 7.742 7.742 0 1 1 8.017-13.247 67.998 67.998 0 0 1 9.4 6.858 7.742 7.742 0 0 1-5.085 13.582zm-32.551-14.304c-.285 0-.573-.016-.862-.047a53.24 53.24 0 0 0-5.811-.321h-3.642a7.742 7.742 0 1 1 0-15.484h3.644c2.511 0 5.039.14 7.516.415a7.742 7.742 0 0 1-.845 15.437zm-36.123-.368h-10.323a7.742 7.742 0 1 1 0-15.484h10.323a7.742 7.742 0 1 1 0 15.484zm-36.129 0h-10.323a7.742 7.742 0 1 1 0-15.484h10.323a7.742 7.742 0 1 1 0 15.484zM193.274 407.784h-10.323a7.742 7.742 0 1 1 0-15.484h10.323a7.742 7.742 0 1 1 0 15.484zm-36.129 0h-10.323a7.742 7.742 0 1 1 0-15.484h10.323a7.742 7.742 0 1 1 0 15.484zm-36.129 0h-10.323a7.742 7.742 0 1 1 0-15.484h10.323a7.742 7.742 0 1 1 0 15.484zm-36.129 0h-2.924c-2.781 0-5.582-.171-8.324-.509a7.741 7.741 0 1 1 1.894-15.367c2.117.261 4.28.393 6.431.393h2.924a7.742 7.742 0 1 1-.001 15.483zm-34.446-8.973a7.708 7.708 0 0 1-4.081-1.168 68.012 68.012 0 0 1-9.316-6.969 7.742 7.742 0 0 1 10.303-11.559 52.538 52.538 0 0 0 7.189 5.379 7.742 7.742 0 0 1-4.095 14.317zm-23.284-26.892a7.743 7.743 0 0 1-7.097-4.641 67.416 67.416 0 0 1-3.728-11.04 7.742 7.742 0 1 1 15.044-3.664 51.945 51.945 0 0 0 2.87 8.499 7.742 7.742 0 0 1-7.089 10.846zm-3.914-35.363a7.742 7.742 0 0 1-7.612-9.205 67.468 67.468 0 0 1 3.181-11.205 7.742 7.742 0 0 1 14.472 5.504 51.938 51.938 0 0 0-2.448 8.624 7.743 7.743 0 0 1-7.593 6.282zm16.817-31.337a7.741 7.741 0 0 1-5.428-13.263 68.044 68.044 0 0 1 8.967-7.416 7.741 7.741 0 0 1 10.771 1.964 7.741 7.741 0 0 1-1.964 10.771 52.548 52.548 0 0 0-6.921 5.723 7.71 7.71 0 0 1-5.425 2.221zm31.625-16.268a7.743 7.743 0 0 1-1.311-15.371 68.158 68.158 0 0 1 11.589-.992 7.742 7.742 0 1 1 0 15.484c-3.005 0-6.016.258-8.948.765a7.929 7.929 0 0 1-1.33.114z" fill="#ff656b"></path><path d="M239.978 478.817h56.291c0 15.215-12.324 27.55-27.527 27.55h-1.237c-15.203 0-27.527-12.335-27.527-27.55z" fill="#8c808a"></path><path d="M323.893 425.263H212.354v25.906c0 15.269 12.368 27.647 27.624 27.647h56.291c15.257 0 27.624-12.378 27.624-27.647z" fill="#b2b2b2"></path><path d="M280.039 161.185v-42.098l-34.408-4.888a108.217 108.217 0 0 0-12.609-30.462l18.19-24.228a5.162 5.162 0 0 0-.476-6.747l-23.409-23.429a5.161 5.161 0 0 0-6.753-.477l-24.201 18.2a108.022 108.022 0 0 0-30.437-12.619l-4.255-30A5.162 5.162 0 0 0 156.57 0h-33.101a5.16 5.16 0 0 0-5.11 4.437l-4.255 30a108.052 108.052 0 0 0-30.437 12.619l-24.201-18.2a5.161 5.161 0 0 0-6.753.477l-23.41 23.429a5.16 5.16 0 0 0-.476 6.747l18.19 24.228a108.246 108.246 0 0 0-12.609 30.462l-29.973 4.258A5.162 5.162 0 0 0 0 123.567v33.138a5.161 5.161 0 0 0 4.435 5.11l29.973 4.258a108.187 108.187 0 0 0 12.609 30.462l-18.19 24.228a5.162 5.162 0 0 0 .476 6.747l23.409 23.429a5.161 5.161 0 0 0 6.753.477l24.201-18.2a108.052 108.052 0 0 0 30.437 12.619l4.255 30a5.161 5.161 0 0 0 5.11 4.436h37.582l4.884-34.436a108.064 108.064 0 0 0 30.437-12.619l27.785 20.895 29.743-29.768-20.877-27.808a108.217 108.217 0 0 0 12.609-30.462zm-139.387 27.503c-29.58 0-53.559-23.999-53.559-53.604s23.979-53.604 53.559-53.604 53.559 23.999 53.559 53.604-23.979 53.604-53.559 53.604z" fill="#8c808a"></path><path d="M280.039 161.185v-42.098l-34.408-4.888a108.256 108.256 0 0 0-4.707-14.612 146.947 146.947 0 0 0-49.364 18.839 53.557 53.557 0 0 1 2.651 16.658c0 29.604-23.979 53.604-53.559 53.604-3.075 0-6.085-.274-9.019-.772-7.382 17.611-11.466 36.949-11.466 57.244 0 12.099 1.456 23.856 4.192 35.112h36.692l4.884-34.437a108.064 108.064 0 0 0 30.437-12.619l27.785 20.895 29.743-29.768-20.877-27.808a108.217 108.217 0 0 0 12.609-30.462z" fill="#7b7179"></path><path d="M512 427.793v-19.224a5.162 5.162 0 0 0-4.435-5.11l-18.6-2.643a72.462 72.462 0 0 0-8.441-20.394l11.289-15.037a5.161 5.161 0 0 0-.477-6.747l-13.579-13.59a5.161 5.161 0 0 0-6.753-.477l-15.018 11.294a72.327 72.327 0 0 0-20.377-8.448l-2.641-18.618a5.162 5.162 0 0 0-5.11-4.437H408.66a5.162 5.162 0 0 0-5.11 4.437l-2.641 18.618a72.356 72.356 0 0 0-20.377 8.448l-15.018-11.294a5.161 5.161 0 0 0-6.753.477l-13.579 13.59a5.16 5.16 0 0 0-.476 6.747l11.289 15.037a72.462 72.462 0 0 0-8.441 20.394l-18.6 2.643a5.161 5.161 0 0 0-4.435 5.11v19.224a5.161 5.161 0 0 0 4.435 5.11l18.6 2.642a72.462 72.462 0 0 0 8.441 20.394l-11.289 15.037a5.162 5.162 0 0 0 .476 6.747l13.579 13.59a5.161 5.161 0 0 0 6.753.477l15.018-11.294a72.327 72.327 0 0 0 20.377 8.448l2.641 18.618a5.161 5.161 0 0 0 5.11 4.436h19.199a5.161 5.161 0 0 0 5.11-4.436l2.641-18.618a72.356 72.356 0 0 0 20.377-8.448l15.018 11.294a5.161 5.161 0 0 0 6.753-.477l13.579-13.59a5.161 5.161 0 0 0 .476-6.747l-11.289-15.037a72.45 72.45 0 0 0 8.441-20.394l18.6-2.642a5.161 5.161 0 0 0 4.435-5.11zm-93.741 28.101c-20.811 0-37.681-16.884-37.681-37.712s16.871-37.712 37.681-37.712 37.681 16.884 37.681 37.712c0 20.827-16.87 37.712-37.681 37.712z" fill="#8c808a"></path><path d="m486.528 372.424 5.284-7.038a5.162 5.162 0 0 0-.476-6.747l-13.579-13.59a5.161 5.161 0 0 0-6.753-.477l-7.025 5.283zM435.609 347.418l-2.641-18.618a5.162 5.162 0 0 0-5.11-4.437h-14.1l2.641 18.618a5.161 5.161 0 0 0 5.11 4.436h14.1zM463.98 486.509l7.024 5.282a5.161 5.161 0 0 0 6.753-.477l13.579-13.59a5.161 5.161 0 0 0 .476-6.747l-5.279-7.032zM493.419 401.45v33.463l14.145-2.01a5.161 5.161 0 0 0 4.435-5.11v-19.224a5.162 5.162 0 0 0-4.435-5.11zM416.4 493.382 413.759 512h14.1a5.161 5.161 0 0 0 5.11-4.436l2.641-18.618h-14.1a5.159 5.159 0 0 0-5.11 4.436z" fill="#7b7179"></path><path d="M395.905 246.039c0-70.631-57.21-127.888-127.782-127.888s-127.782 57.258-127.782 127.888c0 36.432 15.221 69.306 39.646 92.599h-.001s22.516 22.508 28.976 45.157c3.439 12.056 3.39 41.468 3.39 41.468h111.539s-.049-29.412 3.39-41.468c6.46-22.649 28.976-45.157 28.976-45.157 24.427-23.293 39.648-56.167 39.648-92.599z" fill="#ffdc00"></path><path d="M277.688 478.817c0 12.182-7.903 22.51-18.855 26.147a27.458 27.458 0 0 0 8.672 1.403h1.237c15.203 0 27.527-12.335 27.527-27.55z" fill="#7b7179"></path><path d="M305.312 425.263v25.907c0 15.269-12.368 27.647-27.624 27.647h18.581c15.257 0 27.624-12.378 27.624-27.647v-25.907z" fill="#a0a0a0"></path><path d="M395.905 246.039c0-70.631-57.21-127.888-127.782-127.888-3.125 0-6.222.118-9.29.339 66.234 4.764 118.492 60.046 118.492 127.55 0 36.432-15.222 69.306-39.647 92.599s-22.516 22.508-28.976 45.157c-3.439 12.056-3.39 41.468-3.39 41.468h18.581s-.049-29.412 3.39-41.468c6.46-22.649 28.976-45.157 28.976-45.157 24.425-23.294 39.646-56.168 39.646-92.6z" fill="#ffbf00"></path><path d="M335.993 307.313c1.89-6.742 1.175-13.786-1.961-19.325-4.763-8.414-16.451-14.971-33.714-5.763-8.832 4.711-14.971 15.561-18.766 33.171a134.322 134.322 0 0 0-.735 3.65c-5.281.44-9.835.569-12.704.592-2.832.003-7.409-.152-12.685-.592-.235-1.249-.48-2.466-.735-3.651-3.796-17.609-9.934-28.46-18.766-33.171-17.264-9.208-28.952-2.651-33.714 5.763-3.136 5.54-3.85 12.583-1.961 19.325 1.981 7.067 6.582 13.064 12.956 16.886 7.745 4.645 18.642 7.315 28.69 8.85.981 8.224 1.673 18.25 1.892 30.462.537 29.879-2.094 58.502-2.405 61.753h15.552c.653-7.161 2.837-33.598 2.336-61.901-.186-10.507-.727-20.074-1.616-28.63 5.897.384 9.959.392 10.452.391.5 0 4.569-.006 10.476-.391-.889 8.556-1.43 18.124-1.616 28.631-.5 28.304 1.683 54.74 2.336 61.901h15.552c-.31-3.242-2.935-31.755-2.407-61.628.217-12.27.91-22.335 1.895-30.588 10.05-1.535 20.944-4.205 28.69-8.849 6.376-3.823 10.977-9.82 12.958-16.886zm-114.821 3.606c-6.543-3.924-7.604-11.559-5.483-15.305.99-1.749 2.66-2.362 4.518-2.362 3.03 0 6.557 1.633 8.434 2.634 2.014 1.074 6.835 5.244 10.517 20.994-6.884-1.325-13.444-3.237-17.986-5.961zm93.902 0c-4.541 2.723-11.101 4.636-17.986 5.961 3.682-15.747 8.503-19.919 10.518-20.993 1.877-1.001 5.403-2.634 8.434-2.634 1.857 0 3.528.614 4.518 2.362 2.12 3.746 1.059 11.381-5.484 15.304z" fill="#ff9a00"></path></g></svg>