<svg id="Icons" height="512" viewBox="0 0 60 60" width="512" xmlns="http://www.w3.org/2000/svg"><path d="m45 21v1h-30v-1a15.067 15.067 0 0 1 15-12 15.067 15.067 0 0 1 15 12z" fill="#c0dadc"/><path d="m16.65 35.29-1.17-10.29-.48-1h30l-.48 1-1.13 9.92-.39 1.08h-26z" fill="#c0dadc"/><path d="m43.39 34.92-2.33 20.53a4 4 0 0 1 -3.98 3.55h-14.16a4 4 0 0 1 -3.98-3.55l-2.29-20.16a4.99 4.99 0 0 1 3.35-1.29 4.213 4.213 0 0 1 .62.04 3.9 3.9 0 0 0 3.26-1.16 2.99 2.99 0 0 1 3.68-.44 4.267 4.267 0 0 0 2.95.6 2.629 2.629 0 0 1 .49-.04 3.018 3.018 0 0 1 1.63.47 3.586 3.586 0 0 0 3.62.19 6.063 6.063 0 0 1 2.75-.66 5.971 5.971 0 0 1 4.39 1.92z" fill="#ce4552"/><rect fill="#aac7c8" height="4" rx="2" width="34" x="13" y="21"/><path d="m32 9.12v11.88h-4v-11.88l2-1.12z" fill="#d8b248"/><path d="m37.52 4.91-5.52 1.38v2.83a16.727 16.727 0 0 0 -4 0v-4.39a1.992 1.992 0 0 1 1.51-1.94l7.03-1.76a1.01 1.01 0 0 1 1.22.73l.48 1.94a.993.993 0 0 1 -.72 1.21z" fill="#f0cb4d"/><g fill="#b23b4d"><path d="m26 44a1 1 0 0 1 -1-1 2 2 0 0 0 -2-2 1 1 0 0 1 0-2 4 4 0 0 1 4 4 1 1 0 0 1 -1 1z"/><path d="m33 54a1 1 0 0 1 -1-1 2 2 0 0 0 -2-2 1 1 0 0 1 0-2 4 4 0 0 1 4 4 1 1 0 0 1 -1 1z"/><path d="m34 45a1 1 0 0 1 -1-1 4 4 0 0 1 4-4 1 1 0 0 1 0 2 2 2 0 0 0 -2 2 1 1 0 0 1 -1 1z"/></g></svg>