<svg viewBox="0 0 512 512" xmlns="http://www.w3.org/2000/svg"><g><path d="M332 360c-99.258 0-180-80.742-180-180S232.742 0 332 0s180 80.742 180 180-80.742 180-180 180z" fill="#f37a3d"></path><path d="M332 360c99.258 0 180-80.742 180-180 0-49.629-20.186-94.629-52.778-127.222L204.778 307.222C237.371 339.814 282.371 360 332 360z" fill="#ec5436"></path><path d="M180 512C80.742 512 0 431.258 0 332s80.742-180 180-180 180 80.742 180 180-80.742 180-180 180z" fill="#ffdf40"></path><path d="M180 512c99.258 0 180-80.742 180-180 0-49.629-20.186-94.629-52.778-127.222L52.778 459.222C85.371 491.814 130.371 512 180 512z" fill="#ffbe40"></path><path d="M286 106v30h68.789L155.395 335.395l21.21 21.21L376 157.211V226h30V106z" fill="#4d5e80"></path><path d="M176.605 356.605 376 157.211V226h30V106L166 346z" fill="#3d4b66"></path></g></svg>