<svg viewBox="0 0 512 512" xmlns="http://www.w3.org/2000/svg"><g><path d="M192 96h128v16H192z" fill="#9b917d"></path><path d="M192 96h64v16h-64zM336 424H176a8 8 0 0 1 0-16h160a8 8 0 0 1 0 16z" fill="#b9af9b"></path><path d="M256 424h-80a8 8 0 0 1 0-16h80a8 8 0 0 1 0 16z" fill="#f0e1cd"></path><path d="M344 464H168v-8a8 8 0 0 1 8-8h160a8 8 0 0 1 8 8z" fill="#b9af9b"></path><path d="M264 464h-96v-8a8 8 0 0 1 8-8h80a8 8 0 0 1 8 8zM192 112h128v296H192z" fill="#f0e1cd"></path><path d="M256 112h64v296h-64zM336 448H176v-24h160z" fill="#b9af9b"></path><path d="M256 448h-80v-16h80z" fill="#f0e1cd"></path><path d="M192 128h64v8h-64zM200 400a8 8 0 0 1-8-8V152a8 8 0 0 1 16 0v240a8 8 0 0 1-8 8zM232 400a8 8 0 0 1-8-8V152a8 8 0 0 1 16 0v240a8 8 0 0 1-8 8zM320 128H192a8 8 0 0 1 0-16h128a8 8 0 0 1 0 16z" fill="#b9af9b"></path><path d="M256 128h-64a8 8 0 0 1 0-16h64a8 8 0 0 1 0 16zM360 496H152a8 8 0 0 1-8-8v-16a8 8 0 0 1 8-8h208a8 8 0 0 1 8 8v16a8 8 0 0 1-8 8z" fill="#f0e1cd"></path><path d="M368 472H256v24h104a8 8 0 0 0 8-8z" fill="#b9af9b"></path><path d="M192 48h128v24H192z" fill="#9b917d"></path><path d="M360 48H152a8 8 0 0 1-8-8V24a8 8 0 0 1 8-8h208a8 8 0 0 1 8 8v16a8 8 0 0 1-8 8z" fill="#f0e1cd"></path><path d="M360 48H256V16h104a8 8 0 0 1 8 8v16a8 8 0 0 1-8 8z" fill="#b9af9b"></path><path d="M337.627 74.646c-6.838-6.854-15.936-10.635-25.618-10.646H200v.008c-9.567.09-18.546 3.856-25.312 10.639-6.838 6.854-10.598 15.96-10.587 25.643.018 15.287 12.46 27.712 27.743 27.711h.033c11.845-.014 21.47-9.662 21.457-21.507a16.782 16.782 0 0 0-3.698-10.493h93.044a16.774 16.774 0 0 0-3.698 10.493c-.014 11.846 9.612 21.494 21.457 21.507h.033c15.283.001 27.725-12.424 27.743-27.711.01-9.683-3.75-18.79-10.588-25.644z" fill="#9b917d"></path><path d="M337.627 74.646c-6.838-6.854-15.936-10.635-25.618-10.646H200v.008c-9.567.09-18.546 3.856-25.312 10.639-6.838 6.854-10.598 15.96-10.587 25.643.018 15.287 12.46 27.712 27.743 27.711h.033c11.845-.014 21.47-9.662 21.457-21.507-.011-9.296-7.577-16.852-16.872-16.852h-.02c-7.431.009-13.47 6.062-13.461 13.493a4 4 0 0 0 4 3.996h.004a4 4 0 0 0 3.996-4.004 5.485 5.485 0 0 1 5.471-5.484c4.857-.018 8.876 3.97 8.882 8.861.009 7.434-6.032 13.489-13.466 13.498h-.023c-10.875 0-19.73-8.842-19.743-19.72-.019-15.578 12.638-28.264 28.213-28.282H312c15.575.018 28.232 12.704 28.214 28.28-.013 10.878-8.868 19.72-19.743 19.72h-.023c-7.434-.009-13.475-6.064-13.466-13.498.006-4.892 4.025-8.879 8.882-8.861a5.483 5.483 0 0 1 5.471 5.484 4 4 0 0 0 3.996 4.004h.004a4 4 0 0 0 4-3.996c.008-7.431-6.03-13.484-13.461-13.493h-.02c-9.295 0-16.861 7.555-16.872 16.852-.014 11.846 9.612 21.494 21.457 21.507h.033c15.283.001 27.725-12.424 27.743-27.711.01-9.681-3.75-18.788-10.588-25.642z" fill="#f0e1cd"></path></g></svg>