<svg viewBox="0 0 64 64" xmlns="http://www.w3.org/2000/svg"><g><g><path d="M63 51v12L40.36 52.17 41 52l5-5z" fill="#f2b59d"></path><path d="M4 43.87a4.078 4.078 0 0 1-1.83-1.04A4.025 4.025 0 0 1 1 40a3 3 0 0 1 3-3h4l.03-.04 4.53 3.47a2.8 2.8 0 0 0 3.64-.22 2.714 2.714 0 0 0 .8-1.92v-.47A2 2 0 0 0 16 36l-3.99-3.15.03-.04 7.15 5.56A2.975 2.975 0 0 0 24 36.02v-.53a2.956 2.956 0 0 0-1.15-2.35L24 34a4.022 4.022 0 0 0 2.02 1A2.97 2.97 0 0 0 29 32.02v-.53a2.965 2.965 0 0 0-1.19-2.38L25 27h1v-1a2.006 2.006 0 0 0-2-2h-8.53a2.469 2.469 0 0 1-1.1-4.68l2.75-.96L21 17l3 .33 6 .67 3.84 3.2L48 33h15v18l-17-4-5 5-.64.17-17.97 4.73a3.056 3.056 0 0 1-.79.1h-2.3a3.142 3.142 0 0 1-2.22-.92L15 54h-1.29a4.015 4.015 0 0 1-3.72-2.51L9 49h-.97a2.986 2.986 0 0 1-2.78-1.89L4 44z" fill="#f2c4b2"></path><path d="m33 16 1 5-.16.2L30 18l-6-.67v-2.95a3.373 3.373 0 0 1 6.01-2.11z" fill="#f2b59d"></path><path d="M26 26v1h-1l-3.28-2.46A2.7 2.7 0 0 0 20.1 24H24a2.006 2.006 0 0 1 2 2z" fill="#ed9776"></path><path d="M27.81 29.11 25 27l-3.28-2.46A2.7 2.7 0 0 0 20.1 24h-1.41A2.684 2.684 0 0 0 16 26.69a2.887 2.887 0 0 0 .8 1.91l-.08-.06A2.7 2.7 0 0 0 15.1 28h-1.41a2.687 2.687 0 0 0-1.65 4.81l7.15 5.56A2.975 2.975 0 0 0 24 36.02v-.53a2.956 2.956 0 0 0-1.15-2.35L24 34a4.022 4.022 0 0 0 2.02 1A2.97 2.97 0 0 0 29 32.02v-.53a2.965 2.965 0 0 0-1.19-2.38z" fill="#f2b59d"></path><path d="M18 1v8H9V7H1V1z" fill="#d4d4d4"></path><g fill="#f2b59d"><path d="M17 37.82v.47a2.714 2.714 0 0 1-.8 1.92 2.8 2.8 0 0 1-3.64.22l-4.53-3.47-2.08-1.6a2.429 2.429 0 0 1-.89-1.37 2.505 2.505 0 0 1-.06-.55A2.458 2.458 0 0 1 7.48 31h1.31a2.487 2.487 0 0 1 1.49.49l1.73 1.36L16 36a2 2 0 0 1 1 1.82z" fill="#f2b59d"></path><path d="M29.81 32.11 29 31.5v.518A2.97 2.97 0 0 1 26.02 35 4.022 4.022 0 0 1 24 34l-1.15-.86A2.956 2.956 0 0 1 24 35.49v.01l.81.607-.81-.6v.514a2.978 2.978 0 0 1-4.81 2.35l-6.18-4.806c0 .024 0 .047-.006.071L16 36a2 2 0 0 1 1 1.82v.292l4.19 3.258A2.975 2.975 0 0 0 26 39.02v-.53a2.956 2.956 0 0 0-1.15-2.35L26 37a4.022 4.022 0 0 0 2.02 1A2.97 2.97 0 0 0 31 35.02v-.53a2.965 2.965 0 0 0-1.19-2.38zM18 39l-1-.789v.079a2.714 2.714 0 0 1-.8 1.92 2.8 2.8 0 0 1-3.64.22l-4.53-3.47L8 37h-.937a2.432 2.432 0 0 0 .887 1.36l2.08 1.6 4.53 3.47a2.8 2.8 0 0 0 3.64-.22 2.714 2.714 0 0 0 .8-1.92v-.47A2 2 0 0 0 18 39z" fill="#f2b59d"></path></g><path d="M13 60.75c0 1.66-.9 2.25-2 2.25s-2-.59-2-2.25S11 57 11 57s2 2.09 2 3.75z" fill="#96e0ff"></path><path d="M10 59.75a5.1 5.1 0 0 1 1.1-2.638L11 57s-2 2.09-2 3.75S9.9 63 11 63a1.786 1.786 0 0 0 1.812-1.134A2.385 2.385 0 0 1 12 62c-1.1 0-2-.59-2-2.25z" fill="#81d2f5"></path><path d="M8.03 36.96 8 37H4a3 3 0 0 0-3 3v-2a4 4 0 0 1 4-4l.06-.01a2.429 2.429 0 0 0 .89 1.37z" fill="#ed9776"></path><path d="M8 56a2.7 2.7 0 0 1-3 3 2.7 2.7 0 0 1-3-3c0-2.21 3-5 3-5s3 2.79 3 5z" fill="#96e0ff"></path><path d="M3 54a3.114 3.114 0 0 1 .118-.8A5.382 5.382 0 0 0 2 56a2.7 2.7 0 0 0 3 3 2.651 2.651 0 0 0 2.965-2.563A3.277 3.277 0 0 1 6 57a2.7 2.7 0 0 1-3-3z" fill="#81d2f5"></path><path d="M25.243 54.189a1 1 0 0 0 .757-.97V52l-8.66 1.87a1.851 1.851 0 0 1-.7.13H15l1.667 1.667L18 56zM22.358 49.3A2 2 0 0 0 24 47.331V47l-11 2H9l.8 2H13zM19.027 44.329A2.361 2.361 0 0 0 21 42L8 44H5a3.657 3.657 0 0 1-1-.13V44l.8 2H9z" fill="#f2b59d"></path><path d="M49.564 50.754 63 54.706V51l-17-4-5 5-.64.17L47 55.346v-2.673a2 2 0 0 1 2.564-1.919z" fill="#ed9776"></path><path d="m26.414 32.89-7.574-5.3a1.971 1.971 0 0 1-.84-1.616A1.97 1.97 0 0 1 19.97 24h-1.28A2.684 2.684 0 0 0 16 26.69a2.887 2.887 0 0 0 .8 1.91l.01.01 6 4.5c.01.01.03.02.04.03L24 34a4.022 4.022 0 0 0 2.02 1 2.943 2.943 0 0 0 2.886-2.27 2 2 0 0 1-2.492.16zM14.414 38.89l-7.574-5.3A1.971 1.971 0 0 1 6 31.974a1.952 1.952 0 0 1 .087-.549A2.425 2.425 0 0 0 5 33.44a2.505 2.505 0 0 0 .06.55 2.429 2.429 0 0 0 .89 1.37l2.08 1.6 4.53 3.47a2.8 2.8 0 0 0 3.64-.22 2.72 2.72 0 0 0 .761-1.54 2 2 0 0 1-2.547.22zM21.414 36.89l-8.574-6.3a1.971 1.971 0 0 1-.84-1.616 1.966 1.966 0 0 1 .039-.386 2.661 2.661 0 0 0-.579.6 2.691 2.691 0 0 0 .58 3.63l7.15 5.56a2.96 2.96 0 0 0 4.716-1.64 2 2 0 0 1-2.492.152z" fill="#f2a283"></path><path d="M63 33h-4v7.838a3 3 0 0 1-3.949 2.846l-2.28-.76A5.2 5.2 0 0 0 46 47l17 4zM24 22h-9a2 2 0 0 1-1.855-1.262 2.416 2.416 0 0 0-.145.792A2.475 2.475 0 0 0 15.47 24H24a2.006 2.006 0 0 1 2 2v-2a2 2 0 0 0-2-2z" fill="#f2b59d"></path><path d="M18.69 24H17v.61a2.665 2.665 0 0 1 1.69-.61z" fill="#81d2f5"></path><path d="m12.01 32.85.03-.04A2.686 2.686 0 0 1 13.69 28h1.41a2.7 2.7 0 0 1 1.62.54l.08.06a2.887 2.887 0 0 1-.8-1.91 2.671 2.671 0 0 1 1-2.08V24h-1.53a2.469 2.469 0 0 1-1.1-4.68L17 18.4V9h-7v22.315a2.469 2.469 0 0 1 .28.175z" fill="#96e0ff"></path><path d="M3 1v2a2 2 0 0 0 2 2h4v2H1V1zM9 8h9v1H9z" fill="#bfbfbf"></path><path d="M14 11h3V9h-7v22.315a2.469 2.469 0 0 1 .28.175l1.73 1.36.03-.04a2.644 2.644 0 0 1-.04-4.2V13a2 2 0 0 1 2-2z" fill="#81d2f5"></path><rect fill="#b3f5ff" rx="1"></rect><rect fill="#b3f5ff" rx="1"></rect><rect fill="#b3f5ff" rx="1"></rect><path d="M6.3 55.991c.357.082.555-.429.541-.755a1.186 1.186 0 0 0-.641-1.107 1.421 1.421 0 0 0-.9-.1.665.665 0 0 0-.345.154.388.388 0 0 0-.107.384.537.537 0 0 0 .139.193l1.019 1.031a.637.637 0 0 0 .294.2zM12.066 61.5c.178.041.277-.215.271-.378a.594.594 0 0 0-.317-.553.716.716 0 0 0-.449-.05.333.333 0 0 0-.172.077.193.193 0 0 0-.054.192.26.26 0 0 0 .07.1l.509.515a.32.32 0 0 0 .142.097z" fill="#ffffff"></path></g></g></svg>