<svg viewBox="0 0 512 512" xmlns="http://www.w3.org/2000/svg"><g><path d="M512 316v60c0 75.601-112.899 136-256 136S0 451.601 0 376v-60c0-8.401 6.599-15 15-15h482c8.401 0 15 6.599 15 15z" fill="#efe2dd"></path><path d="M512 316v60c0 75.601-112.899 136-256 136V301h241c8.401 0 15 6.599 15 15z" fill="#cdbfba"></path><path d="M512 316c0 74.7-115.3 135-256 135S0 390.7 0 316s115.3-135 256-135 256 60.3 256 135z" fill="#fff5f5"></path><path d="M512 316c0 74.7-115.3 135-256 135V181c140.7 0 256 60.3 256 135z" fill="#efe2dd"></path><path d="m296.499 86.499-30 30C263.8 119.5 259.9 121 256 121s-7.8-1.5-10.499-4.501l-30-30c-6-5.7-6-15.298 0-20.999 5.7-6 15.298-6 20.999 0l4.5 4.199V15c0-8.401 6.599-15 15-15s15 6.599 15 15v54.699l4.501-4.199c5.7-6 15.298-6 20.999 0 6 5.701 6 15.299-.001 20.999z" fill="#7c8388"></path><path d="M266.499 116.499C263.8 119.5 259.9 121 256 121V0c8.401 0 15 6.599 15 15v54.699l4.501-4.199c5.7-6 15.298-6 20.999 0 6 5.7 6 15.298 0 20.999l-30.001 30z" fill="#575f64"></path><path d="M391 226v90c0 42.9-57.9 75-135 75s-135-32.1-135-75v-90c0-8.401 6.599-15 15-15h240c8.401 0 15 6.599 15 15z" fill="#e63950"></path><path d="M391 226v90c0 42.9-57.9 75-135 75V211h120c8.401 0 15 6.599 15 15z" fill="#ae2538"></path><path d="M256 151c-77.1 0-135 32.1-135 75s57.9 75 135 75 135-32.1 135-75-57.9-75-135-75z" fill="#ff637b"></path><path d="M391 226c0 42.9-57.9 75-135 75V151c77.1 0 135 32.1 135 75z" fill="#e63950"></path></g></svg>