<svg height="512" viewBox="0 0 64 64" width="512" xmlns="http://www.w3.org/2000/svg"><g id="Icons"><g><path d="m28 32h-16c-2.209 0-4-1.791-4-4v-16c0-2.209 1.791-4 4-4h16c2.209 0 4 1.791 4 4v16c0 2.209-1.791 4-4 4z" fill="#fab400"/><path d="m24 28c-.375 0-.723-.211-.894-.553l-3.106-6.211-3.105 6.211c-.19.38-.599.592-1.021.545-.421-.054-.763-.367-.852-.782l-3-14c-.116-.54.229-1.072.769-1.188.539-.117 1.072.229 1.188.768l2.402 11.213 2.725-5.45c.339-.678 1.45-.678 1.789 0l2.725 5.45 2.402-11.213c.116-.539.647-.885 1.188-.768.54.115.884.647.769 1.188l-3 14c-.089.415-.431.729-.852.782-.044.005-.085.008-.127.008z" fill="#0a5078"/><path d="m28 56h-16c-2.209 0-4-1.791-4-4v-16c0-2.209 1.791-4 4-4h16c2.209 0 4 1.791 4 4v16c0 2.209-1.791 4-4 4z" fill="#00a0c8"/><path d="m52 32h-16c-2.209 0-4-1.791-4-4v-16c0-2.209 1.791-4 4-4h16c2.209 0 4 1.791 4 4v16c0 2.209-1.791 4-4 4z" fill="#c80a50"/><path d="m52 56h-16c-2.209 0-4-1.791-4-4v-16c0-2.209 1.791-4 4-4h16c2.209 0 4 1.791 4 4v16c0 2.209-1.791 4-4 4z" fill="#0a5078"/><path d="m32 12v16c0 2.21-1.79 4-4 4h-16c-1.36 0-2.56-.68-3.28-1.72.65.45 1.44.72 2.28.72h16c2.21 0 4-1.79 4-4v-16c0-.84-.27-1.63-.72-2.28 1.04.72 1.72 1.92 1.72 3.28z" fill="#dc9600"/><path d="m56 12v16c0 2.21-1.79 4-4 4h-16c-1.36 0-2.56-.68-3.28-1.72.65.45 1.44.72 2.28.72h16c2.21 0 4-1.79 4-4v-16c0-.84-.27-1.63-.72-2.28 1.04.72 1.72 1.92 1.72 3.28z" fill="#a00028"/><path d="m32 36v16c0 2.21-1.79 4-4 4h-16c-1.36 0-2.56-.68-3.28-1.72.65.45 1.44.72 2.28.72h16c2.21 0 4-1.79 4-4v-16c0-.84-.27-1.63-.72-2.28 1.04.72 1.72 1.92 1.72 3.28z" fill="#0082aa"/><path d="m56 36v16c0 2.21-1.79 4-4 4h-16c-1.36 0-2.56-.68-3.28-1.72.65.45 1.44.72 2.28.72h16c2.21 0 4-1.79 4-4v-16c0-.84-.27-1.63-.72-2.28 1.04.72 1.72 1.92 1.72 3.28z" fill="#00325a"/><path d="m44 28c-3.309 0-6-2.691-6-6v-4c0-3.309 2.691-6 6-6s6 2.691 6 6v4c0 3.309-2.691 6-6 6zm0-14c-2.206 0-4 1.794-4 4v4c0 2.206 1.794 4 4 4s4-1.794 4-4v-4c0-2.206-1.794-4-4-4z" fill="#f0f0f0"/><path d="m43 52h-4c-.553 0-1-.447-1-1v-14c0-.553.447-1 1-1h4c3.859 0 7 3.141 7 7v2c0 3.859-3.141 7-7 7zm-3-2h3c2.757 0 5-2.243 5-5v-2c0-2.757-2.243-5-5-5h-3z" fill="#f0f0f0"/><g fill="#0a5078"><path d="m21.5 45h-6.5c-.552 0-1-.447-1-1v-7c0-.553.448-1 1-1h6.5c2.481 0 4.5 2.019 4.5 4.5s-2.019 4.5-4.5 4.5zm-5.5-2h5.5c1.378 0 2.5-1.121 2.5-2.5s-1.122-2.5-2.5-2.5h-5.5z"/><path d="m15 52c-.552 0-1-.447-1-1v-14c0-.553.448-1 1-1s1 .447 1 1v14c0 .553-.448 1-1 1z"/><path d="m25.001 52c-.312 0-.62-.146-.815-.419l-5-7c-.321-.449-.217-1.074.233-1.395.448-.322 1.074-.218 1.395.232l5 7c.321.449.217 1.074-.233 1.395-.176.126-.379.187-.58.187z"/></g></g></g></svg>