<svg viewBox="0 0 512 512" xmlns="http://www.w3.org/2000/svg"><g><path d="M448.589 512a63.137 63.137 0 0 1-35.924-11.158L348.894 457H163.106l-63.771 43.842A63.137 63.137 0 0 1 63.411 512C28.446 512 0 483.554 0 448.589a145.68 145.68 0 0 1 10.722-54.987l51.594-127.266C72.004 242.44 94.925 227 120.709 227c21.801 0 41.743 11.02 53.345 29.477a11.743 11.743 0 0 0 9.995 5.523h143.902c4.085 0 7.821-2.064 9.995-5.522C349.548 238.02 369.49 227 391.291 227c25.784 0 48.705 15.44 58.393 39.335l51.594 127.267A145.68 145.68 0 0 1 512 448.589C512 483.554 483.554 512 448.589 512z" fill="#0a789b"></path><path d="m501.278 393.602-51.594-127.267C439.996 242.44 417.075 227 391.291 227c-21.801 0-41.743 11.02-53.345 29.478a11.742 11.742 0 0 1-9.995 5.522H256v195h92.894l63.771 43.842A63.147 63.147 0 0 0 448.589 512C483.554 512 512 483.554 512 448.589a145.68 145.68 0 0 0-10.722-54.987z" fill="#08475e"></path><circle cx="342" cy="343" fill="#ff9f22" r="15"></circle><circle cx="402" cy="343" fill="#ff9f22" r="15"></circle><path d="M170 328h-15v-15c0-8.284-6.716-15-15-15s-15 6.716-15 15v15h-15c-8.284 0-15 6.716-15 15s6.716 15 15 15h15v15c0 8.284 6.716 15 15 15s15-6.716 15-15v-15h15c8.284 0 15-6.716 15-15s-6.716-15-15-15z" fill="#08475e"></path><circle cx="190" cy="447" fill="#ffda44" r="35"></circle><circle cx="322" cy="447" fill="#ff9f22" r="35"></circle><path d="M222.316 145a17.271 17.271 0 0 1-16.261-11.48l-.036-.102-34.19-98.499c-2.717-7.826 1.425-16.373 9.251-19.089 7.828-2.718 16.374 1.425 19.089 9.251L222.05 88.12l20.818-62.665c2.612-7.861 11.101-12.119 18.963-9.506 7.862 2.611 12.118 11.102 9.507 18.964l-32.651 98.286A17.269 17.269 0 0 1 222.431 145h-.115z" fill="#0a789b"></path><path d="M331.978 145c-17.805 0-34.528-7.187-45.884-19.717-5.562-6.139-5.096-15.625 1.043-21.188s15.625-5.095 21.188 1.042c5.597 6.176 14.438 9.863 23.653 9.863 9.063 0 14.273-5.526 14.94-9.261.808-4.522-5.395-8.526-11.468-10.767-15.552-5.736-29.366-11.886-29.946-12.145a14.891 14.891 0 0 1-2.08-1.133c-11.354-7.402-17.205-20.379-15.269-33.869 2.054-14.312 12.479-25.959 27.206-30.396 27.16-8.184 51.266 6.055 56.571 15.981 3.904 7.306 1.147 16.395-6.159 20.299-6.478 3.462-14.355 1.687-18.781-3.852-1.759-1.302-10.858-7.353-22.979-3.705-5.011 1.51-5.979 4.652-6.163 5.933-.138.963-.119 2.658 1.304 3.97 3.835 1.674 14.864 6.41 26.679 10.768 26.637 9.826 33.281 29.268 30.618 44.187-3.516 19.696-22.221 33.99-44.473 33.99zm13.496-97.447a.075.075 0 0 1 .007.012l-.007-.012z" fill="#08475e"></path><path d="M135 170H15c-8.284 0-15-6.716-15-15v-10c0-41.355 33.645-75 75-75s75 33.645 75 75v10c0 8.284-6.716 15-15 15z" fill="#f498c6"></path><path d="M75 70v100h60c8.284 0 15-6.716 15-15v-10c0-41.355-33.645-75-75-75z" fill="#df5ccb"></path><path d="M75 90c-24.813 0-45-20.187-45-45S50.187 0 75 0s45 20.187 45 45-20.187 45-45 45z" fill="#ffdecf"></path><path d="M75 0v90c24.813 0 45-20.187 45-45S99.813 0 75 0z" fill="#ffcdbe"></path><path d="M450.113 155c0 8.284 6.716 15 15 15 8.286 0 15.002-6.716 15.002-15s-6.716-15-15.002-15c-8.284 0-15 6.716-15 15zM465.114 120c-8.284 0-15-6.716-15-15V78.769c0-8.284 6.716-15 15-15 4.672 0 9.021-1.87 12.244-5.266 3.221-3.392 4.86-7.845 4.617-12.537-.456-8.773-7.706-15.784-16.506-15.961a20.1 20.1 0 0 0-.348-.003c-8.408 0-15.567 6.18-16.729 14.509a17.388 17.388 0 0 0-.164 2.375c0 8.284-6.716 15-15 15s-15-6.716-15-15c0-2.172.151-4.363.45-6.514C421.955 16.88 442.31-.472 466.073.011c24.448.492 44.593 19.995 45.86 44.4.675 12.99-3.878 25.331-12.819 34.749-5.278 5.559-11.84 9.699-19.001 12.126V105c.001 8.284-6.715 15-14.999 15z" fill="#00b4bc"></path></g></svg>