<svg viewBox="0 0 464 464" xmlns="http://www.w3.org/2000/svg"><g><g fill="#4891d3"><path d="m288 256-56 64-56-64h32v-48h48v48zM435.281 205.602l-30.722 79.277-74.48-40.957 30.081-10.961-16.398-45.121L388.8 171.44l16.48 45.118zM35.762 188.719l1.84 85.043 84-13.043-24.563-20.559 30.883-36.719-36.723-30.882-30.879 36.8zm0 0" fill="#4891d3"></path></g><path d="M184 368h96v96h-96zm0 0" fill="#e59730"></path><path d="M200 368h80v80h-16c-35.348 0-64-28.652-64-64zm0 0" fill="#fcbc04"></path><path d="M216 368h32v32h-32zm0 0" fill="#c4f236"></path><path d="M368 344h96v96h-96zm0 0" fill="#e59730"></path><path d="M384 344h80v80h-16c-35.348 0-64-28.652-64-64zm0 0" fill="#fcbc04"></path><path d="M400 344h32v32h-32zm0 0" fill="#c4f236"></path><path d="M0 328h96v96H0zm0 0" fill="#e59730"></path><path d="M16 328h80v80H80c-35.348 0-64-28.652-64-64zm0 0" fill="#fcbc04"></path><path d="M32 328h32v32H32zm0 0" fill="#c4f236"></path><path d="M152 0h160v160H152zm0 0" fill="#e59730"></path><path d="M178.64 0H312v133.36h-69.36c-35.347 0-64-28.653-64-64zm0 0" fill="#fcbc04"></path><path d="M205.36 0h53.359v53.36h-53.36zm0 0" fill="#c4f236"></path><path d="M249.52 299.922 288 256h-32v-48h-24v48a64.015 64.015 0 0 0 17.52 43.922zM435.36 205.602l-30.079 10.957-16.48-45.118-24 8.637L384 232a63.993 63.993 0 0 0 28.078 33.52zM97.121 240 128 203.441 106.32 185.2 96 197.762c-16.043 19.117-19.512 45.816-8.879 68.398l34.719-5.441zm0 0" fill="#57b7eb"></path><path d="M256 80h32a8 8 0 0 1 0 16h-32a8 8 0 0 1 0-16zm0 0" fill="#4891d3"></path><path d="M264 112h16a8 8 0 0 1 0 16h-16a8 8 0 0 1 0-16zm0 0" fill="#a1d51c"></path></g></svg>