<svg viewBox="0 0 512 512" xmlns="http://www.w3.org/2000/svg"><g><ellipse cx="256" cy="372.562" fill="#99d980" rx="256" ry="106.953"></ellipse><path d="M512 372.566c0 59.06-114.618 106.954-256 106.954-6.84 0-13.629-.114-20.336-.33 131.873-4.337 235.664-50.427 235.664-106.624 0-56.207-103.791-102.287-235.664-106.624 6.706-.216 13.495-.33 20.336-.33 141.382.001 256 47.884 256 106.954z" fill="#83d167"></path><ellipse cx="178.64" cy="385.001" fill="#54c032" rx="64.482" ry="25.862"></ellipse><path d="M233.845 398.363c-11.301 7.49-31.791 12.496-55.207 12.496s-43.917-5.007-55.207-12.496c11.291-7.489 31.791-12.496 55.207-12.496s43.906 5.007 55.207 12.496z" fill="#4ba72d"></path><path d="M160.523 40.207v368.485c0 .381-.031.752-.093 1.113-5.46-.639-10.611-1.556-15.36-2.73V40.207a7.722 7.722 0 0 1 7.726-7.726 7.722 7.722 0 0 1 7.727 7.726z" fill="#eff5f6"></path><path d="M160.523 75.49v88.709l-11.219 3.863a10.087 10.087 0 0 1-4.234.525V71.102a10.25 10.25 0 0 1 4.234.525z" fill="#cbe5e7"></path><g fill="#83d167"><path d="M336.669 422.261a7.728 7.728 0 0 1-7.65-6.716l-.97-7.349a7.727 7.727 0 0 1 15.32-2.022l.97 7.349a7.726 7.726 0 0 1-7.67 8.738zM359.504 422.261a7.727 7.727 0 0 1-7.67-8.738l.97-7.349a7.727 7.727 0 0 1 15.32 2.022l-.97 7.349a7.728 7.728 0 0 1-7.65 6.716z" fill="#83d167"></path></g><g fill="#54c032"><path d="M62.37 379.317a7.728 7.728 0 0 1-7.65-6.715l-.971-7.349a7.727 7.727 0 0 1 6.648-8.672c4.224-.566 8.113 2.417 8.672 6.648l.971 7.349a7.727 7.727 0 0 1-7.67 8.739zM85.204 379.317a7.728 7.728 0 0 1-7.67-8.739l.971-7.349c.559-4.23 4.445-7.198 8.672-6.648a7.728 7.728 0 0 1 6.648 8.672l-.971 7.349a7.729 7.729 0 0 1-7.65 6.715z" fill="#54c032"></path></g><g fill="#4ba72d"><path d="M389.17 370.54a7.728 7.728 0 0 1-7.65-6.715l-.971-7.349a7.728 7.728 0 0 1 6.648-8.672c4.226-.556 8.113 2.418 8.672 6.648l.971 7.349a7.728 7.728 0 0 1-7.67 8.739zM412.004 370.54a7.728 7.728 0 0 1-7.67-8.739l.971-7.349c.56-4.23 4.444-7.201 8.672-6.648a7.728 7.728 0 0 1 6.648 8.672l-.971 7.349a7.729 7.729 0 0 1-7.65 6.715z" fill="#4ba72d"></path></g><g fill="#54c032"><path d="M251.556 340.857a7.728 7.728 0 0 1-7.65-6.716l-.97-7.349a7.727 7.727 0 0 1 15.32-2.022l.97 7.349a7.727 7.727 0 0 1-7.67 8.738zM274.391 340.857a7.727 7.727 0 0 1-7.67-8.738l.97-7.349a7.727 7.727 0 0 1 15.32 2.022l-.97 7.349a7.728 7.728 0 0 1-7.65 6.716z" fill="#54c032"></path></g><ellipse cx="348.087" cy="316.94" fill="#83d167" rx="52.5" ry="12.704"></ellipse><circle cx="346.286" cy="275.925" fill="#eff5f6" r="36.703"></circle><path d="M382.99 275.931c0 20.258-16.427 36.699-36.699 36.699-5.759 0-11.2-1.33-16.042-3.684 12.224-5.959 20.657-18.502 20.657-33.014s-8.433-27.069-20.657-33.028a36.585 36.585 0 0 1 16.042-3.684c20.272-.002 36.699 16.439 36.699 36.711z" fill="#cbe5e7"></path><path d="M135.651 68.834v76.955c0 7.073 6.965 12.043 13.654 9.741l103.375-35.572c12.03-4.14 12.03-21.154 0-25.293L149.305 59.093c-6.689-2.301-13.654 2.668-13.654 9.741z" fill="#fb6a3b"></path><path d="M252.675 119.959 149.303 155.53c-6.689 2.302-13.654-2.668-13.654-9.741v-9.661c62.579-18.871 80.995-38.572 84.834-52.534l32.192 11.074c12.037 4.132 12.037 21.144 0 25.291z" fill="#fb5532"></path></g></svg>