<svg viewBox="0 0 512 512" xmlns="http://www.w3.org/2000/svg"><g><path d="m144 296-32 40v29.858A10.142 10.142 0 0 0 122.142 376H144l24-32 104-8v-40zM248.872 192A24.873 24.873 0 0 0 224 216.872V256h80v-64z" fill="#feb784"></path><path d="M335.533 192.467c-1.805-18-8.581-52.3-14.773-81.507-.57-2.71-1.14-5.38-1.7-7.98-5.18-24.15-9.55-43.04-9.55-43.04a52.143 52.143 0 0 0-68.42-32.4 49.372 49.372 0 0 0-23.76 19.49 53.1 53.1 0 0 0-2.73 4.75 57.014 57.014 0 0 0-3.28 43.41l3.95 11.09-5.7 25.26 17.44 11.57 7.72 23.6L272 160v40l-38.8 32H296z" fill="#fec9a3"></path><path d="M336 200v288H200c-41.5 0-74.05-30.79-79.26-70.77a86.364 86.364 0 0 1-.74-11.33 82.1 82.1 0 0 1 69.01-81.05l33.46-5.4-6.81-4.54a41.078 41.078 0 0 1-.61-67.94L233.2 232H296l39.53-39.53c.3 2.99.47 5.54.47 7.53z" fill="#f59898"></path><path d="M336 219.23V488H200c-41.5 0-74.05-30.79-79.26-70.77 84.49-20.87 165.89-78.13 215.26-198z" fill="#ed9191"></path><path d="M275.343 233.429 288 360l-56 32-32-24-16 8 16 24-36.333 16.333L184 448l56-16 81.231-33.846A24 24 0 0 0 336 376V230.4a30.4 30.4 0 0 0-30.4-30.4 30.4 30.4 0 0 0-30.257 33.429z" fill="#fec9a3"></path><path d="M267.287 23.7a69.276 69.276 0 0 1 57.078 30.847A69.269 69.269 0 0 1 336 92.975a52.514 52.514 0 0 0 21.991 42.733l9.679 6.913A58.1 58.1 0 0 1 392 189.9v2.1a56 56 0 0 1-56 56 64 64 0 0 1-64-64V96c-25.095-5.019-46.013-22.618-56.464-45.978 0 0 11.631-28.522 51.751-26.322z" fill="#92563a"></path><path d="M144 328v32h16l16-40" fill="#feb784"></path></g></svg>