<svg id="Layer_1" height="512" viewBox="0 0 512 512" width="512" xmlns="http://www.w3.org/2000/svg" data-name="Layer 1"><path d="m241.773 221.948h-28.754c-1.923 0-3.672.787-4.941 2.056s-2.056 3.018-2.056 4.941v13.123h-10v-13.123c0-4.683 1.909-8.933 4.986-12.011 3.077-3.077 7.328-4.986 12.011-4.986h28.754z" fill="#7986bf" fill-rule="evenodd"/><path d="m441.663 211.947h25.903c4.683 0 8.934 1.909 12.011 4.986 3.078 3.077 4.986 7.328 4.986 12.011v11.773h-10v-11.773c0-1.923-.787-3.672-2.056-4.941s-3.017-2.056-4.941-2.056h-25.903z" fill="#7986bf" fill-rule="evenodd"/><path d="m135.589 371.207h19.494v85.116h-19.494z" fill="#d69451"/><path d="m96.615 356.592h68.216c9.911 0 17.995 8.084 17.995 17.995v4.499h-103.47l-29.691-110.81 4.346-1.164c9.573-2.565 19.474 3.151 22.039 12.724l20.566 76.756z" fill="#d69451" fill-rule="evenodd"/><path d="m247.27 385.382h40.486v60.56c0 5.709-4.672 10.381-10.381 10.381h-19.723c-5.71 0-10.381-4.672-10.381-10.381v-60.56z" fill="#3d4a75" fill-rule="evenodd"/><path d="m267.513 385.382h20.243v60.56c0 5.709-4.672 10.381-10.381 10.381h-9.862z" fill="#323e66" fill-rule="evenodd"/><path d="m392.829 385.382h40.486v60.56c0 5.709-4.671 10.381-10.381 10.381h-19.723c-5.71 0-10.381-4.672-10.381-10.381v-60.56z" fill="#323e66" fill-rule="evenodd"/><path d="m413.072 385.382h20.243v60.56c0 5.709-4.671 10.381-10.381 10.381h-9.862z" fill="#3d4a75" fill-rule="evenodd"/><rect fill="#ee8700" height="242.934" rx="14.8" width="218.94" x="230.823" y="174.218"/><path d="m340.293 174.218h94.67c8.14 0 14.8 6.659 14.8 14.8v213.334c0 8.14-6.66 14.8-14.8 14.8h-94.67z" fill="#f89b00" fill-rule="evenodd"/><path d="m436.767 174.329c7.297.897 12.995 7.159 12.995 14.689v213.334c0 7.529-5.698 13.791-12.995 14.689z" fill="#ee8700" fill-rule="evenodd"/><path d="m397.278 390.63 11.203-19.404h41.282v19.404z" fill="#e9e9ff" fill-rule="evenodd"/><path d="m304.115 376.227c-2.761 0-5-2.239-5-5s2.239-5 5-5h72.355c2.761 0 5 2.239 5 5s-2.239 5-5 5zm8.997 19.403c-2.761 0-5-2.239-5-5s2.239-5 5-5h54.36c2.761 0 5 2.239 5 5s-2.239 5-5 5z" fill="#a83b00" fill-rule="evenodd"/><path d="m340.293 366.227h36.177c2.761 0 5 2.239 5 5s-2.239 5-5 5h-36.177zm0 29.403v-10h27.18c2.761 0 5 2.239 5 5s-2.239 5-5 5z" fill="#b54500" fill-rule="evenodd"/><path d="m473.904 235.318h11.318c3.207 0 5.81 2.604 5.81 5.81v40.992c0 3.207-2.604 5.811-5.811 5.811h-11.318c-3.207 0-5.811-2.604-5.811-5.811v-40.991c0-3.207 2.604-5.811 5.811-5.811z" fill="#b54500"/><path d="m195.363 235.318h11.318c3.207 0 5.81 2.604 5.81 5.81v40.992c0 3.207-2.604 5.811-5.811 5.811h-11.318c-3.207 0-5.811-2.604-5.811-5.811v-40.991c0-3.207 2.604-5.811 5.811-5.811z" fill="#b54500"/><path d="m38.117 437.763h29.991v-229.629c0-70.048 57.419-127.466 127.467-127.466h59.606v-29.991h-59.606c-86.603 0-157.459 70.856-157.459 157.457v229.629z" fill="#7986bf" fill-rule="evenodd"/><path d="m449.763 55.924v-5.247h-254.187v25.242c0 8.81 7.186 15.996 15.996 15.996h202.202c19.823 0 35.99-16.167 35.99-35.99z" fill="#525d91" fill-rule="evenodd"/><path d="m449.763 55.924v-5.247h-241.887v14.442c0 8.81 7.186 15.996 15.996 15.996h202.202c6.12 0 11.891-1.542 16.945-4.256 4.242-5.905 6.745-13.136 6.745-20.934z" fill="#5d689e" fill-rule="evenodd"/><path d="m8.5 456.323h89.226v-18.56c0-10.208-8.352-18.56-18.559-18.56h-52.107c-10.208 0-18.56 8.352-18.56 18.56z" fill="#525d91" fill-rule="evenodd"/><path d="m20.5 456.323h77.226v-18.56c0-10.208-8.352-18.56-18.559-18.56h-40.107c-10.208 0-18.56 8.352-18.56 18.56z" fill="#5d689e" fill-rule="evenodd"/><circle cx="429.592" cy="380.928" fill="#d3d3f2" r="9.702" transform="matrix(.707 -.707 .707 .707 -143.532 415.339)"/><g fill-rule="evenodd"><path d="m243.818 174.329c-7.297.897-12.995 7.159-12.995 14.689v213.334c0 7.529 5.699 13.791 12.995 14.689z" fill="#e37200"/><path d="m283.307 390.63-11.203-19.404h-41.281v19.404z" fill="#e9e9ff"/><path d="m498.5 451.323c2.761 0 5 2.239 5 5s-2.239 5-5 5h-316.415c-2.761 0-5-2.239-5-5s2.239-5 5-5z" fill="#323e66"/><path d="m230.823 202.711h218.94v78.354c0 14.64-11.977 26.617-26.617 26.617h-165.706c-14.64 0-26.617-11.978-26.617-26.617z" fill="#e9e9ff"/><path d="m340.293 202.711h109.47v78.354c0 14.64-11.977 26.617-26.617 26.617h-82.853z" fill="#e9e9ff"/><path d="m340.293 202.711h109.47v78.354c0 14.64-11.977 26.617-26.617 26.617h-82.853z" fill="#fff"/><path d="m351.402 307.681 12.01-20.803c.924-1.595 2.596-2.498 4.316-2.5h55.04c2.761 0 5 2.239 5 5s-2.239 5-5 5h-52.167l-7.68 13.303z" fill="#7986bf"/><path d="m252.004 307.119 11.686-20.241c.924-1.595 2.597-2.498 4.316-2.5h55.04c2.761 0 5 2.239 5 5s-2.239 5-5 5h-52.167l-7.681 13.303h-5.759c-1.861 0-3.679-.194-5.435-.562z" fill="#7986bf"/><path d="m449.763 202.711h-12.995v101.194c7.768-4.662 12.995-13.17 12.995-22.841v-78.354z" fill="#e9e9ff"/><path d="m230.823 202.711h12.995v101.194c-7.768-4.662-12.995-13.17-12.995-22.841v-78.354z" fill="#d3d3f2"/></g><circle cx="250.994" cy="380.928" fill="#d3d3f2" r="9.702" transform="matrix(.973 -.23 .23 .973 -80.805 67.856)"/></svg>