<svg height="512" viewBox="0 0 58 58" width="512" xmlns="http://www.w3.org/2000/svg"><g id="Page-1" fill="none" fill-rule="evenodd"><g id="050---Check-Documents" fill-rule="nonzero"><path id="Shape" d="m49 49v5c-.0032948 1.1032019-.8967981 1.9967052-2 2h-40c-1.10320187-.0032948-1.9967052-.8967981-2-2v-5z" fill="#e4c05c"/><path id="Shape" d="m43 21.61v-16.61h4c1.1032019.0032948 1.9967052.89679813 2 2v18.43z" fill="#e4c05c"/><path id="Shape" d="m31.43 51h-29.43c-1.10320187-.0032948-1.9967052-.8967981-2-2v-35h12c1.1032019-.0032948 1.9967052-.8967981 2-2v-12h28c1.1032019.0032948 1.9967052.89679813 2 2v19.61z" fill="#f9eab0"/><path id="Shape" d="m9 48h-5c-.55228475 0-1-.4477153-1-1v-5c0-.5522847.44771525-1 1-1s1 .4477153 1 1v4h4c.55228475 0 1 .4477153 1 1s-.44771525 1-1 1z" fill="#fff"/><path id="Shape" d="m40 10c-.5522847 0-1-.44771525-1-1v-4h-4c-.5522847 0-1-.44771525-1-1s.4477153-1 1-1h5c.5522847 0 1 .44771525 1 1v5c0 .55228475-.4477153 1-1 1z" fill="#fff"/><path id="Shape" d="m14 0v12c-.0032948 1.1032019-.8967981 1.9967052-2 2h-12z" fill="#f3d55b"/><path id="Shape" d="m49.93 45.43c-.4903067.6678271-1.0319488 1.2963995-1.62 1.88-.924797.9298064-1.9629574 1.7395043-3.09 2.41-4.1646427 2.4960197-9.2370997 2.9668497-13.79 1.28-2.1596772-.7964021-4.1188585-2.0558757-5.74-3.69-5.5203195-5.5260264-6.2437701-14.2302945-1.7114796-20.5918382s12.9954652-8.5207881 20.0214796-5.1081618c1.5997649.7767922 3.0569076 1.8180914 4.31 3.08.24.24.47.49.69.74 4.9581884 5.6251267 5.3447849 13.9390301.93 20z" fill="#24ae5f"/><path id="Shape" d="m49.93 26.58c-6.6087553-3.1809513-14.534037-1.4611395-19.2298998 4.1729505-4.6958629 5.6340901-4.9596694 13.7395357-.6401002 19.6670495-7.9556618-3.8494247-11.2844247-13.4193382-7.435-21.375s13.4193382-11.2844247 21.375-7.435c1.5997649.7767922 3.0569076 1.8180914 4.31 3.08.24.24.47.49.69.74.33.37.64.76.93 1.15z" fill="#4fba6f"/><path id="Shape" d="m57.07 57.07c-1.2478861 1.2393907-3.2621139 1.2393907-4.51 0l-3.56-3.56-3.78-3.79c1.1270426-.6704957 2.165203-1.4801936 3.09-2.41.5880512-.5836005 1.1296933-1.2121729 1.62-1.88l7.14 7.13c1.2393907 1.2478861 1.2393907 3.2621139 0 4.51z" fill="#e64c3c"/><path id="Shape" d="m31.241 45.069-5.362-5.362c-.3903819-.3904999-.3903819-1.0235001 0-1.414l1.414-1.414c.3904999-.3903819 1.0235001-.3903819 1.414 0l3.4 3.4 13.351-11.449c.4194611-.3592585 1.0507375-.3104577 1.41.109l1.3 1.519c.3595039.4191951.3111527 1.0504467-.108 1.41l-15.46 13.253c-.3968728.3407884-.989329.318119-1.359-.052z" fill="#fff"/><g fill="#a59078"><path id="Shape" d="m23 21h-18c-.55228475 0-1-.4477153-1-1s.44771525-1 1-1h18c.5522847 0 1 .4477153 1 1s-.4477153 1-1 1z"/><path id="Shape" d="m20.99 25h-15.99c-.55228475 0-1-.4477153-1-1s.44771525-1 1-1h15.99c.5522847 0 1 .4477153 1 1s-.4477153 1-1 1z"/><path id="Shape" d="m18.66 29h-13.66c-.55228475 0-1-.4477153-1-1s.44771525-1 1-1h13.66c.5522847 0 1 .4477153 1 1s-.4477153 1-1 1z"/><path id="Shape" d="m17.4 33h-12.4c-.55228475 0-1-.4477153-1-1s.44771525-1 1-1h12.4c.5522847 0 1 .4477153 1 1s-.4477153 1-1 1z"/><path id="Shape" d="m17 37h-12c-.55228475 0-1-.4477153-1-1s.44771525-1 1-1h12c.5522847 0 1 .4477153 1 1s-.4477153 1-1 1z"/></g><path id="Shape" d="m36.972 52.986c-2.0099667.0029477-4.0044102-.351921-5.89-1.048-2.2966451-.8440517-4.3792794-2.1834246-6.1-3.923-4.4745776-4.2563755-6.288954-10.6045753-4.7394889-16.58268 1.549465-5.9781046 6.2190336-10.6457306 12.1977824-12.1927082s12.3261932.27004 16.5807065 4.7463882c.251.252.5.518.73.784 5.2459032 5.9862813 5.6550579 14.8046861.986 21.251l-.005.005c-.5200662.7106864-1.0951694 1.379411-1.72 2-.9828606.9875236-2.0862142 1.8472928-3.284 2.559-2.6475192 1.5781708-5.673804 2.4080144-8.756 2.401zm.037-31.986c-6.0644708.0016975-11.5312804 3.6549331-13.8530117 9.2573765-2.3217314 5.6024435-1.0415481 12.0517277 3.2440117 16.3426235 1.5175173 1.5339047 3.3539237 2.7151588 5.379 3.46 4.2704015 1.5679752 9.0201213 1.1271318 12.929-1.2 1.0577662-.6285196 2.0321091-1.3878351 2.9-2.26 5.6236566-5.5819686 5.9076524-14.5846795.647-20.51-.208-.238-.424-.472-.647-.7-2.8089955-2.8140421-6.6229122-4.3937283-10.599-4.39z" fill="#ecf0f1"/></g></g></svg>