<svg viewBox="0 0 256 256" xmlns="http://www.w3.org/2000/svg"><g><path d="m131.585 59.017 27.478-40.108c2.449-3.575 8.049-1.755 7.929 2.576l-1.345 48.599c-.084 3.053 2.923 5.238 5.801 4.214l45.805-16.297c4.083-1.453 7.544 3.311 4.9 6.745l-29.654 38.527c-1.863 2.42-.714 5.956 2.216 6.819l46.636 13.739c4.157 1.225 4.157 7.112 0 8.337l-46.636 13.739c-2.93.863-4.078 4.399-2.216 6.819l29.654 38.527c2.643 3.434-.818 8.197-4.9 6.745l-45.805-16.297c-2.877-1.024-5.885 1.162-5.801 4.214l1.345 48.599c.12 4.332-5.48 6.151-7.929 2.576l-27.478-40.108c-1.726-2.519-5.444-2.519-7.17 0L96.937 237.09c-2.449 3.575-8.049 1.755-7.929-2.576l1.345-48.599c.084-3.053-2.923-5.238-5.801-4.214l-45.805 16.297c-4.083 1.453-7.544-3.311-4.9-6.745l29.654-38.527c1.863-2.42.714-5.956-2.216-6.819l-46.636-13.739c-4.157-1.225-4.157-7.112 0-8.337l46.636-13.739c2.929-.863 4.078-4.399 2.216-6.819L33.847 64.746c-2.643-3.434.818-8.197 4.9-6.745l45.805 16.297c2.877 1.024 5.885-1.162 5.801-4.214l-1.345-48.599c-.12-4.332 5.48-6.151 7.929-2.576l27.478 40.108c1.726 2.519 5.444 2.519 7.17 0z" fill="#e63950"></path><path d="m130.472 80.434 18.947-27.656c1.689-2.465 5.55-1.21 5.467 1.776l-.927 33.511c-.058 2.105 2.016 3.612 4 2.906l31.584-11.237c2.815-1.002 5.202 2.283 3.379 4.651l-20.447 26.566c-1.284 1.669-.492 4.107 1.528 4.702l32.157 9.473c2.866.844 2.866 4.904 0 5.749l-32.157 9.473c-2.02.595-2.812 3.033-1.528 4.702l20.447 26.566c1.823 2.368-.564 5.652-3.379 4.651l-31.584-11.237c-1.984-.706-4.058.801-4 2.906l.927 33.511c.083 2.987-3.779 4.242-5.467 1.776l-18.947-27.656c-1.19-1.737-3.754-1.737-4.944 0l-18.947 27.656c-1.689 2.465-5.55 1.21-5.467-1.776l.927-33.511c.058-2.105-2.016-3.612-4-2.906l-31.584 11.237c-2.815 1.002-5.202-2.283-3.379-4.651l20.447-26.566c1.284-1.669.492-4.107-1.528-4.702l-32.157-9.473c-2.866-.844-2.866-4.904 0-5.749l32.157-9.473c2.02-.595 2.812-3.033 1.528-4.702L63.078 84.384c-1.823-2.368.564-5.652 3.379-4.651L98.041 90.97c1.984.706 4.058-.801 4-2.906l-.927-33.511c-.083-2.987 3.779-4.242 5.467-1.776l18.947 27.656c1.19 1.738 3.754 1.738 4.944.001z" fill="#d10028"></path><path d="m164.164 76.795 20.635-64.519a2 2 0 0 1 3.01-1.058l30.015 19.885a2 2 0 0 1 .218 3.168l-50.651 44.634c-1.523 1.342-3.845-.177-3.227-2.11z" fill="#ffa91a"></path><path d="m217.824 31.103-4.184-2.772a1.98 1.98 0 0 1-.598.94l-46.895 41.324-1.983 6.2c-.619 1.934 1.704 3.452 3.227 2.11l50.651-44.634a2 2 0 0 0-.218-3.168z" fill="#f79219"></path><path d="M177.67 56.26c-1.316.04-2.339-1.371-1.91-2.61L187 18.53c.189-.6.64-1.07 1.24-1.28.59-.2 1.25-.12 1.77.22l10.94 7.25c2.159 1.513.01 4.7-2.21 3.34L190 22.27l-10.42 32.59a2 2 0 0 1-1.91 1.4zm28.84-23.45c-3.456-.317-1.95-5.287 1.11-3.67 1.634 1.051.836 3.704-1.11 3.67z" fill="#ffc91d"></path><path d="m81.827 188.322-47.015 33.201a2 2 0 0 0 .168 3.374l25.689 14.541a2 2 0 0 0 2.811-.925l21.327-47.742c.829-1.856-1.32-3.622-2.98-2.449z" fill="#ffa91a"></path><path d="m81.827 188.322-4.616 3.259-18.731 41.933a2 2 0 0 1-2.811.925L34.171 222.27a2.002 2.002 0 0 0 .809 2.628l25.689 14.541a2 2 0 0 0 2.811-.925l21.326-47.742c.83-1.857-1.319-3.623-2.979-2.45z" fill="#f79219"></path><path d="m203.369 100.396 36.257-11.638a2 2 0 0 1 2.611 1.904v21.015a2 2 0 0 1-2.501 1.936l-36.257-9.377c-1.94-.501-2.019-3.228-.11-3.84z" fill="#ffa91a"></path><path d="m239.626 88.758-2.389.767v17.152a2 2 0 0 1-2.501 1.936l-31.536-8.156c-1.733.714-1.602 3.292.279 3.779l36.257 9.377a2 2 0 0 0 2.501-1.936V90.662a2 2 0 0 0-2.611-1.904z" fill="#f79219"></path><path d="M69.565 105.61 38.709 85.17a2 2 0 0 0-3.06 1.247l-4.392 20.408a2 2 0 0 0 1.953 2.421l35.248.033c1.983.001 2.76-2.574 1.107-3.669z" fill="#ffa91a"></path><path d="m69.565 105.61-4.185-2.772c-.23.788-.923 1.441-1.922 1.44l-31.647-.03-.554 2.576a2 2 0 0 0 1.953 2.421l35.248.033c1.983.002 2.76-2.572 1.107-3.668z" fill="#f79219"></path><path d="M158.77 127.78V97.369H95.846v40.441c3.66 2.752 6.218 5.482 6.169 7.713h52.642v-4.16c-.318-5.04 4.431-8.542 4.113-13.583z" fill="#fcc4ae"></path><path d="M95.846 137.432v.379c.212.159.419.318.623.477a10.956 10.956 0 0 0-.623-.856z" fill="#e59076"></path><path d="M95.846 137.401v.409c.24.18.475.36.704.54a11.02 11.02 0 0 0-.704-.949z" fill="#fcc4ae"></path><path d="M95.846 115.772c0 2.551 2.521 4.31 4.928 3.465a19.338 19.338 0 0 1 6.422-1.092c7.443 0 13.91 4.168 17.199 10.296.799 1.488 2.994 1.488 3.793 0 3.289-6.128 9.756-10.296 17.199-10.296 1.073 0 2.126.087 3.152.255 5.386.881 10.233-3.43 10.233-8.888V97.369H95.846z" fill="#e59076"></path><path d="M127.308 81.287v20.05a7.865 7.865 0 0 1-15.731 0v-20.05a7.865 7.865 0 0 1 15.731 0z" fill="#ffd2c0"></path><path d="M121.912 73.818c.257.777.396 1.607.396 2.469v20.05a7.865 7.865 0 0 1-10.335 7.469 7.866 7.866 0 0 0 15.335-2.469v-20.05a7.869 7.869 0 0 0-5.396-7.469z" fill="#fcc4ae"></path><path d="M143.039 85.194v20.05a7.865 7.865 0 0 1-15.731 0v-20.05a7.865 7.865 0 0 1 7.865-7.865 7.865 7.865 0 0 1 7.866 7.865z" fill="#ffd2c0"></path><path d="M137.643 77.725c.257.777.396 1.607.396 2.469v20.049a7.865 7.865 0 0 1-10.335 7.469 7.865 7.865 0 0 0 15.335-2.469V85.194a7.868 7.868 0 0 0-5.396-7.469z" fill="#fcc4ae"></path><path d="M158.77 89.101v20.049a7.866 7.866 0 0 1-15.731 0V89.101a7.866 7.866 0 0 1 15.731 0z" fill="#ffd2c0"></path><path d="M153.374 81.632a7.85 7.85 0 0 1 .396 2.47v20.049a7.866 7.866 0 0 1-10.335 7.47 7.866 7.866 0 0 0 15.335-2.47v-20.05a7.868 7.868 0 0 0-5.396-7.469z" fill="#fcc4ae"></path><path d="M111.577 77.38v20.049a7.866 7.866 0 0 1-15.731 0V77.38a7.866 7.866 0 0 1 15.731 0z" fill="#ffd2c0"></path><path d="M106.181 69.91a7.85 7.85 0 0 1 .396 2.47v20.049a7.866 7.866 0 0 1-10.335 7.47 7.866 7.866 0 0 0 15.335-2.47V77.38a7.87 7.87 0 0 0-5.396-7.47z" fill="#fcc4ae"></path><path d="M121.09 92.284c-.536-1.609-2.301-2.461-3.913-1.931l-25.821 8.485A7.787 7.787 0 0 0 86 106.235v17.25c0 8.688 7.043 15.731 15.731 15.731v-26.175l10.691-3.513c7.164-2.354 11.054-10.083 8.668-17.244z" fill="#fcc4ae"></path><path d="M158.77 127.78v-18.254c-.008 5.369-4.704 9.623-9.987 8.911-.102 4.694-4.429 8.105-4.123 12.923v4.16H92.02c-.13 0-.28-.01-.44-.02 1.44 1.23 3.12 2.2 4.95 2.84 3.29 2.57 5.53 5.09 5.49 7.18h52.64v-4.16c-.32-5.04 4.43-8.54 4.11-13.58z" fill="#f2ad97"></path><path d="M158.77 127.78v-18.268a9.055 9.055 0 0 1-5 8.098v5.17c.318 5.041-4.431 8.543-4.113 13.584v4.16h-50.59c1.848 1.795 2.98 3.509 2.948 5h52.642v-4.16c-.318-5.041 4.431-8.542 4.113-13.584z" fill="#e59076"></path><path d="M121.09 92.284c-.482-1.445-1.955-2.279-3.417-2.05 1.222 6.598-2.591 13.248-9.143 15.401l-8.549 2.809a3.114 3.114 0 0 0-2.142 2.959v4.412a3.115 3.115 0 0 0 3.115 3.115h.779v-5.888l10.691-3.513c7.162-2.355 11.052-10.084 8.666-17.245z" fill="#f2ad97"></path><path d="M161.701 150.752v21.436a5.228 5.228 0 0 1-5.228 5.228h-56.377a5.228 5.228 0 0 1-5.228-5.228v-21.436a5.228 5.228 0 0 1 5.228-5.228h56.377a5.227 5.227 0 0 1 5.228 5.228z" fill="#58595b"></path><path d="M156.696 145.529c.003.074.005.148.005.223v21.436a5.228 5.228 0 0 1-5.228 5.228H95.095a5.49 5.49 0 0 1-.223-.005 5.228 5.228 0 0 0 5.223 5.005h56.377a5.228 5.228 0 0 0 5.228-5.228v-21.436a5.226 5.226 0 0 0-5.004-5.223z" fill="#414042"></path><circle cx="111.577" cy="161.469" fill="#939598" r="6.144"></circle><path d="M114.805 156.241a6.144 6.144 0 0 1-8.456 8.456 6.144 6.144 0 1 0 8.456-8.456z" fill="#808285"></path></g></svg>