<svg viewBox="0 0 64 64" xmlns="http://www.w3.org/2000/svg"><g><g><circle cx="32" cy="32" fill="#eeeeee" r="21"></circle><path d="M32 11c-.506 0-1.003.04-1.5.076a20.976 20.976 0 0 1 0 41.848c.497.036.994.076 1.5.076a21 21 0 0 0 0-42Z" fill="#e0e0e0"></path><path d="M47 32a15.005 15.005 0 0 1-15 15v-6a9 9 0 0 0 9-9 8.908 8.908 0 0 0-1.21-4.5l5.2-3A14.884 14.884 0 0 1 47 32Z" fill="#81c784"></path><path d="m44.99 24.5-5.2 3a8.993 8.993 0 0 0-15.58 0l-5.2-3a15 15 0 0 1 25.98 0Z" fill="#ef5350"></path><path d="M32 41v6a15 15 0 0 1-12.99-22.5l5.2 3A8.908 8.908 0 0 0 23 32a9 9 0 0 0 9 9Z" fill="#ffb74d"></path><path d="M29 36a1 1 0 0 1-.707-1.707l6-6a1 1 0 1 1 1.414 1.414l-6 6A.997.997 0 0 1 29 36Z" fill="#757575"></path><circle cx="29" cy="29" fill="#757575" r="1"></circle><circle cx="35" cy="35" fill="#757575" r="1"></circle><path d="M7.333 21a1 1 0 0 1-1-1v-9a1 1 0 0 1 2 0v9a1 1 0 0 1-1 1ZM4 21a1 1 0 0 1-1-1v-9a1 1 0 0 1 2 0v9a1 1 0 0 1-1 1Z" fill="#ffb74d"></path><path d="M10.667 21a1 1 0 0 1-1-1v-9a1 1 0 0 1 2 0v9a1 1 0 0 1-1 1ZM14 21a1 1 0 0 1-1-1v-9a1 1 0 0 1 2 0v9a1 1 0 0 1-1 1Z" fill="#ffa726"></path><path d="M9 53a2.824 2.824 0 0 1-2.819-2.994L8 20h2l1.819 30.006A2.824 2.824 0 0 1 9 53ZM55 53a2.824 2.824 0 0 1-2.819-2.994L54 20h2l1.819 30.006A2.824 2.824 0 0 1 55 53Z" fill="#ffb74d"></path><path d="M56 20h-1.824l1.819 30.005a2.814 2.814 0 0 1-1.907 2.83A2.791 2.791 0 0 0 55 53a2.824 2.824 0 0 0 2.819-2.995ZM10 20H8.176l1.819 30.005a2.814 2.814 0 0 1-1.907 2.83A2.791 2.791 0 0 0 9 53a2.824 2.824 0 0 0 2.819-2.995Z" fill="#ffa726"></path><ellipse cx="55" cy="19" fill="#ffb74d" rx="6" ry="8"></ellipse><path d="M55 11a4.757 4.757 0 0 0-2.5.734C54.564 13 56 15.773 56 19s-1.436 6-3.5 7.266A4.757 4.757 0 0 0 55 27c3.314 0 6-3.582 6-8s-2.686-8-6-8Z" fill="#ffa726"></path><path d="M3 19v2a6 6 0 0 0 12 0v-2Z" fill="#ffb74d"></path><path d="M15 19v2a6.005 6.005 0 0 1-6 6 5.825 5.825 0 0 1-2.5-.55A5.995 5.995 0 0 0 10 21v-2ZM30.501 46.924c.493.05.993.076 1.499.076v-.301a14.959 14.959 0 0 1-1.499.225Z" fill="#ffa726"></path><path d="m44.99 24.5-2.323 1.34A14.98 14.98 0 0 1 32 46.7V47a15 15 0 0 0 12.99-22.5Z" fill="#66bb6a"></path><path d="m42.667 25.84 2.323-1.34A15.007 15.007 0 0 0 32 17c-.493 0-.978.032-1.459.079a15 15 0 0 1 12.126 8.761Z" fill="#e53935"></path></g></g></svg>