<svg viewBox="0 0 512 512" xmlns="http://www.w3.org/2000/svg"><g><path d="M93.26 18.63v429.69h325.48V18.63z" fill="#d1d3d4"></path><path d="M117.78 44.78h276.43v375.95H117.78z" fill="#faf7f8"></path><path d="M418.74 397.84v50.47H93.26V18.63h72.91c-3.52 74.79-.82 364.84 252.57 379.21z" fill="#c4c4c4"></path><path d="M131.65 44.78h262.57v375.95H131.65z" fill="#faf7f8"></path><path d="M394.22 395.45v25.29H117.78V44.78h47.77c-.2 96.72 21.72 322.58 228.67 350.67z" fill="#e5e5e5"></path><path d="M357 223.48H166.2c-3.48 0-6.3-2.82-6.3-6.3s2.82-6.3 6.3-6.3H357c3.48 0 6.3 2.82 6.3 6.3s-2.82 6.3-6.3 6.3zM357 265.07H166.2c-3.48 0-6.3-2.82-6.3-6.3s2.82-6.3 6.3-6.3H357c3.48 0 6.3 2.82 6.3 6.3s-2.82 6.3-6.3 6.3zM356.22 92.27h-64.01c-3.48 0-6.3-2.82-6.3-6.3s2.82-6.3 6.3-6.3h64.01c3.48 0 6.3 2.82 6.3 6.3s-2.82 6.3-6.3 6.3zM356.22 137.76h-64.01c-3.48 0-6.3-2.82-6.3-6.3s2.82-6.3 6.3-6.3h64.01c3.48 0 6.3 2.82 6.3 6.3s-2.82 6.3-6.3 6.3zM356.22 178.61h-64.01c-3.48 0-6.3-2.82-6.3-6.3s2.82-6.3 6.3-6.3h64.01c3.48 0 6.3 2.82 6.3 6.3s-2.82 6.3-6.3 6.3z" fill="#58595b"></path><path d="M264.16 128.29c0 29.67-22.43 54.09-51.29 57.31-2.14.25-4.28.36-6.42.36-31.81 0-57.66-25.85-57.66-57.66 0-31.86 25.85-57.71 57.66-57.71 2.14 0 4.28.1 6.42.36 28.85 3.2 51.29 27.67 51.29 57.34z" fill="#0e9347"></path><path d="M264.16 128.29c0 29.67-22.43 54.09-51.29 57.31-28.81-3.16-51.29-27.63-51.29-57.31 0-29.72 22.48-54.2 51.29-57.36 28.85 3.22 51.29 27.69 51.29 57.36z" fill="#3bb54a"></path><path d="M206.46 121.76c-4.03 0-7.31-3.28-7.31-7.31s3.28-7.31 7.31-7.31 7.31 3.28 7.31 7.31c0 3.48 2.82 6.3 6.3 6.3s6.3-2.82 6.3-6.3c0-8.76-5.69-16.19-13.56-18.85v-3.28c0-3.48-2.82-6.3-6.3-6.3s-6.3 2.82-6.3 6.3v3.24c-7.92 2.63-13.66 10.1-13.66 18.89 0 10.98 8.93 19.91 19.91 19.91 4.03 0 7.31 3.28 7.31 7.31s-3.28 7.31-7.31 7.31-7.31-3.28-7.31-7.31c0-3.48-2.82-6.3-6.3-6.3s-6.3 2.82-6.3 6.3c0 8.79 5.74 16.26 13.66 18.89v3.68c0 3.48 2.82 6.3 6.3 6.3s6.3-2.82 6.3-6.3v-3.71c7.87-2.66 13.56-10.1 13.56-18.85 0-10.99-8.93-19.92-19.91-19.92z" fill="#ffffff"></path><path d="M213.1 426.32c-1.06 16.55-8.69 18.03-12.77 17.59-1.52-.15-2.56-.58-2.56-.58-20.33-7.23-9.69-24-6.2-28.67l5.78 3.14z" fill="#f9ad95"></path><path d="M213.1 426.32c-1.06 16.55-8.69 18.03-12.77 17.59-14.11-7.41-6.6-20.93-2.97-26.12z" fill="#ffc7b3"></path><path d="M398.67 394.23s-60.09-48.55-81.22-61.73c-6.92-4.32-39.59-26.96-61.27-31.12-.77-.16-1.49-.31-2.2-.42-16.82-2.64-50.59 7.42-67.61 7.91-17.38.49-44.19-3.94-44.19-3.94l-14.26 93.62s21.59 3.84 37.51 7.87c12.46 3.13 32.21 12.23 52.91 22.87 2.04 1.06 4.08 2.11 6.12 3.17l74.64 42.2c2.55 1.53 3.95 2.39 3.95 2.39 6.56 5.06 15.96 3.95 21.13-2.5 2.26-2.81 3.35-6.16 3.35-9.49 0-4.63-2.11-9.2-6.12-12.19l58.14-34.19z" fill="#ffdecf"></path><path d="M286.49 307.63c.2 6.01-.59 11.12-2.19 15.36-5.25 13.98-19.2 18.52-34.9 14.95-16.25-3.69-4.65-17.5.83-23.03a9.576 9.576 0 0 0 2.66-5.27c1.29-8.15 7.69-13.91 11.43-16.64 1.6-1.17 3.45-1.95 5.4-2.33 8.41-1.62 34.55-6.31 44.11-4.13 16.87 3.85 42.31 25.58 59.08 29.84 11.8 3 67.34-13.7 67.34-13.7l17.79 81.31-52.25 13.17-9.36 3.13-102.01-70.12-12.39-9.44" fill="#ffc7b3"></path><path d="m459.78 383.52-24.22 6.12-.05-.21-17.99-80.45 19.17-5.3 5.3-1.48z" fill="#f2f2f2"></path><path d="m454.43 384.64-18.92 4.79-17.99-80.45 19.17-5.3z" fill="#ffffff"></path><path d="M510.92 263.6v126.49l-47.67 10.35-.15-.61-26.06-120.22 64.14-13.92z" fill="#3c9aef"></path><path d="M501.18 265.69v125.88l-38.08 8.26-26.06-120.22z" fill="#54a0ff"></path><path d="M357.08 447.73c0 2.96-.83 5.95-2.58 8.59-.11.2-.25.39-.39.59-5.01 6.93-14.66 8.59-21.71 3.7l-37.18-27.52 18.08-24.5 36.81 26.05c4.54 3.05 6.97 8.03 6.97 13.09z" fill="#ffc7b3"></path><path d="M357.08 447.73c0 2.96-.83 5.95-2.58 8.59-5.2 3.36-12.12 3.45-17.51-.29l-38-28.12 14.31-19.31 36.81 26.05c4.54 3.04 6.97 8.02 6.97 13.08z" fill="#ffddce"></path><path d="M383.38 428.8c0 2.8-.74 5.61-2.28 8.14-.21.35-.45.71-.69 1.05-5.03 6.93-14.68 8.59-21.72 3.7l-52.28-37.03 17.15-24.17 52.85 35.24c4.52 3.03 6.97 7.99 6.97 13.07z" fill="#ffc7b3"></path><path d="M383.38 428.8c0 2.8-.74 5.61-2.28 8.14-5.18 3.21-11.97 3.25-17.27-.44l-53.24-37.69 12.96-18.32 52.85 35.24c4.53 3.03 6.98 7.99 6.98 13.07z" fill="#ffddce"></path><path d="M399.63 409.27a14.067 14.067 0 0 1-2.69 8.28c-4.53 6.25-13.24 7.75-19.59 3.34l-47.16-33.4 15.47-21.8 47.67 31.78c4.09 2.75 6.3 7.22 6.3 11.8z" fill="#ffc7b3"></path><path d="M399.63 409.27c0 2.52-.67 5.06-2.06 7.34-4.67 2.9-10.8 2.93-15.58-.4l-48.02-34 11.69-16.52 47.67 31.78c4.09 2.75 6.3 7.22 6.3 11.8z" fill="#ffddce"></path><path d="M328.17 467.82a14.583 14.583 0 0 1-3.38 8.4c-5.15 6.16-14.29 7.1-20.56 2.07l-46.56-38.01 17.6-21.52 47.2 36.37c4.05 3.13 6.02 7.94 5.7 12.69z" fill="#ffc7b3"></path><path d="M328.17 467.82c-.18 2.62-1.05 5.2-2.66 7.47-5.05 2.67-11.41 2.27-16.14-1.52l-47.41-38.69 13.31-16.31 47.2 36.37c4.05 3.12 6.02 7.93 5.7 12.68z" fill="#ffddce"></path><path d="m260.82 438.35-26.71 26.88c-7.57 1.7-12.69.91-16.15-1.08-4.59-2.67-6.24-7.46-6.79-11.38-.5-3.57.73-7.16 3.21-9.76l24.7-25.86c2.99-3.12 6.98-4.69 10.96-4.69 3.96 0 7.91 1.54 10.9 4.61.72.74 1.34 1.52 1.88 2.36 3.8 5.86 3.12 13.76-2 18.92z" fill="#f9ad95"></path><path d="m260.82 438.35-26.71 26.88c-7.57 1.7-12.69.91-16.15-1.08-1.3-2.2-1.95-4.66-2.26-6.84-.49-3.57.73-7.16 3.21-9.76l24.7-25.86c2.99-3.12 6.98-4.69 10.96-4.69 2.87 0 5.74.81 8.24 2.43 3.81 5.86 3.13 13.76-1.99 18.92z" fill="#ffc7b3"></path><path d="m300.94 472.76-16.6 16.87c-2.12 2.15-4.91 3.59-7.92 3.73-3.54.15-6.65-1.34-9.23-3.4-5.32-4.26-8.39-11-8.39-11l24.28-23.65c2.31-2.42 5.46-3.58 8.63-3.58 3.4 0 6.85 1.34 9.35 3.91.77.78 1.4 1.65 1.91 2.57 2.56 4.64 1.88 10.61-2.03 14.55z" fill="#f9ad95"></path><path d="m300.94 472.76-16.6 16.87c-2.12 2.15-4.91 3.59-7.92 3.73-3.54.15-6.65-1.34-9.23-3.4-.78-1.01-1.46-2-2.02-2.89-1.27-2-.96-4.6.73-6.26l21.54-20.98c2.31-2.42 5.46-3.58 8.64-3.58 2.39 0 4.8.66 6.89 1.95 2.56 4.65 1.88 10.62-2.03 14.56z" fill="#ffc7b3"></path><path d="m290.3 447.97-28.09 28.43-3.43 2.56c-7.71 2.85-13.08 1.74-16.79-.79-6.39-4.36-7.87-12.94-7.87-12.94l9.98-10.15 26.01-26.81c5.53-5.76 14.74-5.8 20.31-.06.64.66 1.2 1.36 1.69 2.1 3.58 5.47 2.98 12.86-1.81 17.66z" fill="#f9ad95"></path><path d="m290.3 447.97-28.09 28.43-3.43 2.56c-7.71 2.85-13.08 1.74-16.79-.79-1.68-2.37-2.67-4.88-3.22-6.62-.41-1.32-.05-2.77.92-3.76l8.47-8.63 26.03-26.81c4.8-5 12.36-5.68 17.91-2.04 3.59 5.47 2.99 12.86-1.8 17.66z" fill="#ffc7b3"></path><path d="m150.72 306.18-.05.3-14.23 93.66-21.82-4.13-9.18-1.73 14.84-92.74z" fill="#f2f2f2"></path><path d="m150.67 306.48-14.23 93.66-21.82-4.13 14.84-92.74z" fill="#ffffff"></path><path d="m124.46 283.95-.05.3-19.93 121.65-.05.15-31.56-5.66-71.79-12.33V265.95l91.57 13.31z" fill="#efb041"></path><path d="M124.41 284.25 104.48 405.9l-16.42-2.96-76.19-13.1V267.5l96.02 14.31z" fill="#feca57"></path><path d="M89.28 373.93c0 5.76-4.33 10.55-9.94 11.17-.46.05-.87.1-1.33.1-6.27 0-11.32-5.05-11.32-11.27s5.05-11.27 11.32-11.27c1.84 0 3.52.46 5.05 1.22 3.67 1.84 6.22 5.67 6.22 10.05z" fill="#f2f2f2"></path><path d="M89.28 373.93c0 5.76-4.33 10.55-9.94 11.17-3.62-1.84-6.12-5.66-6.12-10.04 0-5.76 4.28-10.5 9.84-11.17 3.67 1.83 6.22 5.66 6.22 10.04z" fill="#ffffff"></path><path d="M496.54 369.19c0 6.22-5.05 11.27-11.27 11.27-1.02 0-2.04-.15-3.01-.41-4.74-1.33-8.26-5.66-8.26-10.86s3.52-9.53 8.26-10.86c.97-.26 1.99-.41 3.01-.41 6.22 0 11.27 5.05 11.27 11.27z" fill="#f2f2f2"></path><path d="M490.53 369.19c0 5.2-3.52 9.53-8.26 10.86-4.74-1.33-8.26-5.66-8.26-10.86s3.52-9.53 8.26-10.86c4.74 1.33 8.26 5.66 8.26 10.86z" fill="#ffffff"></path></g></svg>