<svg viewBox="0 0 64 64" xmlns="http://www.w3.org/2000/svg"><g><path d="M32 24a47.814 47.814 0 0 1 3.47-11.558L37 9l7.472-5.811A5.637 5.637 0 0 1 47.936 2a2.064 2.064 0 0 1 1.359 3.617L42 12l-3 7" fill="#e8a989"></path><path d="M44 61v1h-7l-2-12-8-8-8 7-3 13H8v-1c0-.83.34-1.58.88-2.12S10.17 58 11 58l2-14 5.42-7.39c1.35-1.84 2.82-3.58 4.4-5.21L34 40l4.73 3.95L41 50v8c1.66 0 3 1.34 3 3z" fill="#1d549c"></path><path d="m27 42 8 8 2 12h7v-1c0-1.66-1.34-3-3-3v-8l-2.27-6.05L34 40l-10.001-7.693a49.89 49.89 0 0 0-3.579 4.303L15 44l-2 14c-.83 0-1.58.34-2.12.88S10 60.17 10 61v1h6l3-13z" fill="#2b6bb2"></path><path d="m46 31-.62 2h-5.6l-.11 1L34 40l-11.18-8.6c2.75-2.82 5.83-5.31 9.18-7.4.44-2.68 1.12-5.31 2.02-7.87l5.9.73L39 19l3.26 2.45 3.02 3.75z" fill="#52a04f"></path><path d="m42.26 21.45-1.606-1.207-10.603 9.787a3.265 3.265 0 0 0 .175 4.951l4.85 3.88L39.67 34l.11-1h5.6l.62-2-.72-5.8z" fill="#6db569"></path><path d="M42 19.636a6.364 6.364 0 0 0 10.864 4.5l1.272-1.272a6.364 6.364 0 1 0-9-9l-1.272 1.272a6.362 6.362 0 0 0-1.864 4.5z" fill="#e8a989"></path><path d="M50.636 13a6.36 6.36 0 0 0-4.5 1.864l-1.272 1.272a6.362 6.362 0 0 0-1.864 4.5c0 1.502.524 2.881 1.394 3.969a6.36 6.36 0 0 0 8.47-.469l1.272-1.272a6.362 6.362 0 0 0 1.864-4.5 6.335 6.335 0 0 0-1.394-3.969A6.335 6.335 0 0 0 50.636 13z" fill="#f6bb95"></path><path d="M49.636 12a6.36 6.36 0 0 0-4.5 1.864L45 14l2.764 2.764A5.117 5.117 0 0 0 53 18v1.172c0 1.332.389 2.624 1.105 3.724l.031-.031A6.364 6.364 0 0 0 49.636 12z" fill="#3f4042"></path><path d="M54.606 14.394a6.36 6.36 0 0 0-8.47.47L46 15l1.764 1.764A5.117 5.117 0 0 0 53 18v1.172c0 1.332.389 2.624 1.105 3.724l.031-.031A6.366 6.366 0 0 0 56 18.364a6.34 6.34 0 0 0-1.394-3.97z" fill="#5a5b5d"></path><path d="M45.38 33h-5.6l-.559 5.012A2.234 2.234 0 0 1 37 40h-3a2 2 0 1 0 0 4h4a5.415 5.415 0 0 0 5.176-3.823L46 31z" fill="#f6bb95"></path><path d="m41.119 29.979-1.989-.218-.599 5.444L39.67 34l.11-1h1.006z" fill="#52a04f"></path><g fill="#969696"><path d="M8.88 58.88C8.34 59.42 8 60.17 8 61v1h8l.923-4H11c-.83 0-1.58.34-2.12.88zM41 58h-4.667L37 62h7v-1c0-1.66-1.34-3-3-3z" fill="#969696"></path></g></g></svg>