<svg viewBox="0 0 512 512" xmlns="http://www.w3.org/2000/svg"><g><path d="m225 88.803-60 90v30c74.7 0 135 90.3 135 165 0 97.5-103.2 105-135 105v30h347V367.502z" fill="#b0daed"></path><path d="M165 508.803c-101.777 0-165-51.724-165-135 0-90.176 72.07-195 165-195s165 104.824 165 195c0 83.276-63.223 135-165 135z" fill="#cc7152"></path><path d="M330 373.803c0-90.176-72.07-195-165-195v330c101.777 0 165-51.724 165-135z" fill="#b34a35"></path><path d="M482 150.803v38.789L295.605 3.197l-21.21 21.211 186.394 186.395H422v30h90v-90z" fill="#ec4c36"></path><path d="M165 178.803c-33.076 0-60-26.909-60-60v-30h120v30c0 33.091-26.924 60-60 60z" fill="#cc7152"></path><path d="M165 328.803c-8.262 0-15-6.724-15-15s6.738-15 15-15 15 6.724 15 15h30c0-19.53-12.578-36.024-30-42.237v-32.763h-30v32.763c-17.422 6.213-30 22.707-30 42.237 0 24.814 20.186 45 45 45 8.262 0 15 6.724 15 15s-6.738 15-15 15-15-6.724-15-15h-30c0 19.53 12.578 36.024 30 42.237v32.763h30V416.04c17.422-6.213 30-22.707 30-42.237 0-24.815-20.186-45-45-45z" fill="#ffcc66"></path><path d="M180 416.04c17.422-6.213 30-22.707 30-42.237 0-24.814-20.186-45-45-45v30c8.262 0 15 6.724 15 15s-6.738 15-15 15v60h15zM180 271.566v-32.763h-15v60c8.262 0 15 6.724 15 15h30c0-19.53-12.578-36.024-30-42.237z" fill="#ffa64d"></path><path d="M165 178.803c33.076 0 60-26.909 60-60v-30h-60z" fill="#b34a35"></path></g></svg>