<svg viewBox="0 0 472 472" xmlns="http://www.w3.org/2000/svg"><g><path d="M416 472H192L0 120h224l192 352z" fill="#4398d1"></path><circle cx="368" cy="104" fill="#fdb62f" r="56"></circle><path d="M360 0h16v24h-16V0zM360 184h16v24h-16v-24zM264 96h24v16h-24V96zM448 96h24v16h-24V96zM288.799 36.118l11.314-11.314 16.971 16.971-11.314 11.314-16.971-16.971zM418.918 166.198l11.314-11.314 16.971 16.971-11.314 11.314-16.971-16.971zM288.802 171.882l16.971-16.971 11.314 11.314-16.971 16.971-11.314-11.314zM418.914 41.771 435.885 24.8l11.314 11.314-16.971 16.971-11.314-11.314z" fill="#fdb62f"></path><path d="M334.76 148.992c24.826 18.386 59.855 13.166 78.241-11.66 14.429-19.483 14.665-46.044.583-65.78a208.262 208.262 0 0 1-78.824 77.44z" fill="#f7a72e"></path><path d="M0 120v56l160 296h32L0 120z" fill="#dedede"></path><path d="M148.704 392.624 192 472h224L293.648 247.688 148.704 392.624z" fill="#3e8cc7"></path><path d="m301.216 376-39.352-72h62.496l-8.72-16h-62.52l-39.352-72h62.592l-8.72-16h-62.616l-43.72-80h-18.24l43.72 80h-53.76l-43.72-80h-18.24l43.72 80H43.64l8.72 16h71.2l39.352 72h-71.2l8.72 16h71.264l39.352 72H139.64l8.72 16h71.36l43.72 80h18.24l-43.72-80h53.76l43.72 80h18.24l-43.72-80h62.4l-8.72-16h-62.424zM141.768 216h53.76l39.352 72h-53.76l-39.352-72zm87.448 160-39.352-72h53.76l39.352 72h-53.76z" fill="#3570ab"></path></g></svg>