<svg viewBox="0 0 512 512" xmlns="http://www.w3.org/2000/svg"><g><path d="M300.299 166.368h-58.087c-19.514-21.682-46.984-33.976-76.456-33.976h-.05l-86.141.034c-31.408.012-57.909 23.538-61.643 54.723l-7.762 64.827 180.587 36.077 148.289-36.077z" fill="#fadbc5"></path><path d="M10.159 251.977.33 334.064a46.557 46.557 0 0 0 11.395 36.41 46.558 46.558 0 0 0 34.798 15.644h57.215l-2.816 31.383c-1.442 16.065 3.973 32.106 14.857 44.011 10.884 11.904 26.377 18.732 42.507 18.732h11.451l-.007-14.64c-.016-34.008 13.198-66.099 37.21-90.36 24.009-24.26 55.835-37.63 89.624-37.658h3.735l38.735-85.609z" fill="#f9cfb2"></path><path d="M401.957 166.368H300.299v85.609l47.987 33.104 53.671-33.104z" fill="#7be2f6"></path><path d="M300.299 251.977h101.658v85.608H300.299z" fill="#35c7f5"></path><path d="M291.786 141.862c0 60.713 49.457 110.107 110.17 110.107l16.781-109.396-16.78-110.817c-60.714 0-110.171 49.393-110.171 110.106z" fill="#fd5e81"></path><path d="M401.957 31.756V251.97C462.67 251.969 512 202.576 512 141.862c0-60.713-49.33-110.106-110.043-110.106z" fill="#e4336d"></path><path d="m379.879 99.102-21.218 21.218 22.014 22.014-22.014 22.015 21.218 21.218 22.078-22.015 9.628-21.368-9.628-21.068z" fill="#edf6ff"></path><path d="m445.126 120.32-21.218-21.218-21.951 22.014v42.436l21.951 22.015 21.218-21.218-22.015-22.015z" fill="#d7e9fe"></path></g></svg>