<svg viewBox="0 0 512 512" xmlns="http://www.w3.org/2000/svg"><g><path d="M152 192a64 64 0 1 1-21.87-48.18A64 64 0 0 1 152 192z" fill="#f35244"></path><path d="M152 192a64.006 64.006 0 0 1-101.76 51.68 113.343 113.343 0 0 0 79.89-99.86A63.853 63.853 0 0 1 152 192z" fill="#ea4a3b"></path><path d="M96 368H48l10.667 32H108z" fill="#ebebe9"></path><path d="M96 368H48a24 24 0 0 1-24-24v-24h40v16c14.684 0 26.5 9.994 30.06 24.239z" fill="#fec9a3"></path><path d="M416 368h48l-10.667 32H404z" fill="#ebebe9"></path><path d="m453.33 400-19.21 57.64a44.4 44.4 0 0 1-84.24 0L328 392v96H184v-96l-21.88 65.64a44.4 44.4 0 0 1-84.24 0L58.67 400H108l12 32 21.88-65.64A44.4 44.4 0 0 1 184 336h144a44.4 44.4 0 0 1 42.12 30.36L392 432l12-32z" fill="#d6d6d4"></path><path d="m453.33 400-19.21 57.64a44.4 44.4 0 0 1-84.24 0L328 392v96H184v-6.65c68.14-30.04 130.71-71.18 180.67-125.98a44.043 44.043 0 0 1 5.45 10.99L392 432l12-32z" fill="#c7c7c5"></path><path d="M416 368h48a24 24 0 0 0 24-24v-24h-40v16c-14.684 0-26.5 9.994-30.06 24.239z" fill="#fec9a3"></path><path d="m272 472-16 16-16-16V336h32z" fill="#348fd9"></path><path d="m256 336-40 32-8-32zM256 336l40 32 8-32z" fill="#ebebe9"></path><path d="M312 256v24a56 56 0 0 1-56 56c-1.45 0-2.89-.06-4.31-.16A56 56 0 0 1 200 280v-24a56 56 0 0 1 56-56c1.38 0 2.75.05 4.1.15A55.993 55.993 0 0 1 312 256z" fill="#fec9a3"></path><path d="M312 256v24a56 56 0 0 1-56 56c-1.45 0-2.89-.06-4.31-.16a72.231 72.231 0 0 0 26.9-56.31v-31.06a72.089 72.089 0 0 0-18.49-48.32A55.993 55.993 0 0 1 312 256z" fill="#fec093"></path><g fill="#f7a468"><path d="M224 248h16v16h-16zM272 248h16v16h-16zM265.344 275.562a10.715 10.715 0 0 1-6.561 4.438h-5.566a10.715 10.715 0 0 1-6.561-4.438l-13.312 8.876a27.231 27.231 0 0 0 45.312 0z" fill="#f7a468"></path></g><path d="M312 240v8l-40-40-1.42.79L200 248v-8a56 56 0 1 1 112 0z" fill="#7a432a"></path><path d="M312 240v8l-40-40-1.42.79a74.772 74.772 0 0 0-28.32-23.09A56.009 56.009 0 0 1 312 240z" fill="#6e3c24"></path><path d="M192 248h8v32h-8a16 16 0 0 1-16-16 16 16 0 0 1 16-16zM312 248h8a16 16 0 0 1 16 16 16 16 0 0 1-16 16h-8v-32z" fill="#feb784"></path><path d="M200 24h112v112H200z" fill="#348fd9"></path><path d="m488 272-128-72 128-72z" fill="#ffb531"></path><path d="m312 56-80 80h80z" fill="#3086cd"></path><path d="m488 195.826-65.04 39.59L488 272z" fill="#ffa912"></path><path d="m76.008 171.2-8.016-13.844A39.971 39.971 0 0 1 88 152v16a23.983 23.983 0 0 0-11.992 3.2zM61.547 222a40.011 40.011 0 0 1-8.188-50.012l13.841 8.024A24.014 24.014 0 0 0 72.125 210z" fill="#fc685b"></path><path d="m419.778 192.919 39.978-24.024 8.24 13.712-39.978 24.024z" fill="#ffcb73"></path><path d="M224 48h16v16h-16zM224 80h16v32h-16z" fill="#62a9e6"></path></g></svg>