<svg viewBox="0 0 512 512" xmlns="http://www.w3.org/2000/svg"><g><path d="M445.7 372.371a7.715 7.715 0 0 1-6.212-3.124l-18.81-25.362a7.726 7.726 0 1 1 12.411-9.205l18.81 25.362a7.726 7.726 0 0 1-6.199 12.329z" fill="#00366d"></path><path clip-rule="evenodd" d="M82.519 325.636V138.167a3.091 3.091 0 0 0-3.091-3.091H3.603a3.091 3.091 0 0 0-3.091 3.091v187.469a3.091 3.091 0 0 0 3.091 3.091h75.826a3.09 3.09 0 0 0 3.09-3.091z" fill="#99e6fc" fill-rule="evenodd"></path><path clip-rule="evenodd" d="M117.367 100.049v225.587a3.091 3.091 0 0 0 3.091 3.091h75.856a3.091 3.091 0 0 0 3.091-3.091V100.049a3.091 3.091 0 0 0-3.091-3.091h-75.856a3.092 3.092 0 0 0-3.091 3.091z" fill="#ffd15b" fill-rule="evenodd"></path><path clip-rule="evenodd" d="M234.252 3.091v322.546a3.091 3.091 0 0 0 3.091 3.091h78.946V3.091A3.091 3.091 0 0 0 313.198 0h-75.856a3.09 3.09 0 0 0-3.09 3.091z" fill="#9be69d" fill-rule="evenodd"></path><path clip-rule="evenodd" d="M354.743 80.455v248.271h82.037V80.455a3.091 3.091 0 0 0-3.091-3.091h-75.856a3.092 3.092 0 0 0-3.09 3.091z" fill="#fd4755" fill-rule="evenodd"></path><path clip-rule="evenodd" d="M82.519 325.636V138.167a3.091 3.091 0 0 0-3.091-3.091H61.474v193.65h17.955a3.089 3.089 0 0 0 3.09-3.09z" fill="#62dbfb" fill-rule="evenodd"></path><path clip-rule="evenodd" d="M178.328 96.959v231.768h17.985a3.091 3.091 0 0 0 3.091-3.091V100.049a3.091 3.091 0 0 0-3.091-3.091h-17.985z" fill="#ffc344" fill-rule="evenodd"></path><path clip-rule="evenodd" d="M295.213 0v240.539c20.194 7.391 28.391-16.646 21.076-32.23V3.091A3.091 3.091 0 0 0 313.198 0z" fill="#6fd7a3" fill-rule="evenodd"></path><path clip-rule="evenodd" d="M415.705 77.365v126.944a85.536 85.536 0 0 1 21.076 15.402V80.455a3.091 3.091 0 0 0-3.091-3.091h-17.985z" fill="#e94444" fill-rule="evenodd"></path><path d="M149.353 393.005h-38.574a7.726 7.726 0 1 1 0-15.452h38.574a7.726 7.726 0 1 1 0 15.452zM149.353 422.827h-38.574a7.726 7.726 0 1 1 0-15.452h38.574a7.726 7.726 0 1 1 0 15.452z" fill="#00366d"></path><path clip-rule="evenodd" d="M31.425 381.116v37.404a4.46 4.46 0 0 0 4.471 4.46h37.531c2.444 0 4.471-1.992 4.471-4.46v-37.404c0-2.468-2.027-4.46-4.471-4.46h-37.53a4.46 4.46 0 0 0-4.472 4.46z" fill="#6fd7a3" fill-rule="evenodd"></path><path d="M149.353 482.025h-38.574a7.726 7.726 0 1 1 0-15.452h38.574a7.726 7.726 0 1 1 0 15.452zM149.353 511.847h-38.574a7.726 7.726 0 1 1 0-15.452h38.574a7.726 7.726 0 1 1 0 15.452z" fill="#00366d"></path><path clip-rule="evenodd" d="M31.425 470.136v37.404a4.46 4.46 0 0 0 4.471 4.46h37.531c2.444 0 4.471-1.992 4.471-4.46v-37.404c0-2.468-2.027-4.46-4.471-4.46h-37.53a4.46 4.46 0 0 0-4.472 4.46z" fill="#99e6fc" fill-rule="evenodd"></path><path d="M338.348 393.005h-38.574a7.726 7.726 0 1 1 0-15.452h38.574a7.726 7.726 0 1 1 0 15.452zM338.348 422.827h-38.574a7.726 7.726 0 1 1 0-15.452h38.574a7.726 7.726 0 1 1 0 15.452z" fill="#00366d"></path><path clip-rule="evenodd" d="M220.42 381.116v37.404c0 2.468 2.027 4.46 4.471 4.46h37.531c2.444 0 4.471-1.992 4.471-4.46v-37.404c0-2.468-2.027-4.46-4.471-4.46h-37.531c-2.444 0-4.471 1.992-4.471 4.46z" fill="#fd4755" fill-rule="evenodd"></path><path d="M338.348 482.025h-38.574a7.726 7.726 0 1 1 0-15.452h38.574a7.726 7.726 0 1 1 0 15.452zM338.348 511.847h-38.574a7.726 7.726 0 1 1 0-15.452h38.574a7.726 7.726 0 1 1 0 15.452z" fill="#00366d"></path><path clip-rule="evenodd" d="M220.42 470.136v37.404c0 2.468 2.027 4.46 4.471 4.46h37.531c2.444 0 4.471-1.992 4.471-4.46v-37.404c0-2.468-2.027-4.46-4.471-4.46h-37.531c-2.444 0-4.471 1.992-4.471 4.46z" fill="#ffd15b" fill-rule="evenodd"></path><path clip-rule="evenodd" d="M324.844 201.113c38.216-28.157 92.083-20.099 120.313 18.018 28.23 38.118 20.151 91.845-18.065 120.002s-92.083 20.07-120.313-18.018c-28.23-38.118-20.151-91.845 18.065-120.002z" fill="#3c87d0" fill-rule="evenodd"></path><path clip-rule="evenodd" d="M446.17 364.287c-11.358 8.355-13.772 24.47-5.396 35.769l24.474 33.033c8.377 11.299 24.504 13.737 35.861 5.382 11.328-8.355 13.772-24.47 5.396-35.769l-24.474-33.033c-8.376-11.328-24.503-13.737-35.861-5.382z" fill="#d77f4a" fill-rule="evenodd"></path><path clip-rule="evenodd" d="m468.379 380.016 24.474 33.033c6.499 8.801 6.499 20.486.835 29.198a26.145 26.145 0 0 0 7.423-3.776c11.328-8.355 13.772-24.47 5.396-35.769l-24.474-33.033c-8.377-11.328-24.504-13.737-35.861-5.382a26.004 26.004 0 0 0-6.23 6.571c10.193-3.211 21.759.149 28.437 9.158z" fill="#c86d36" fill-rule="evenodd"></path><path clip-rule="evenodd" d="M344.847 228.111c23.282-17.126 56.043-12.22 73.243 10.971 17.171 23.221 12.252 55.898-11 73.054-23.282 17.126-56.043 12.22-73.243-10.971-17.171-23.222-12.252-55.899 11-73.054z" fill="#99e6fc" fill-rule="evenodd"></path><path clip-rule="evenodd" d="M403.393 263.76c.03 16.026-7.333 31.844-21.254 42.102-.268.208-.566.416-.835.624a52.128 52.128 0 0 1-30.197 9.604c8.526 4.609 18.184 6.72 27.813 6.184 9.837-.565 19.645-3.865 28.17-10.139a55.435 55.435 0 0 0 4.084-3.36c19.675-17.78 23.043-47.9 6.916-69.694-10.284-13.855-26.113-21.199-42.181-21.199 6.588 3.538 12.52 8.563 17.26 14.956 6.886 9.306 10.224 20.159 10.224 30.922z" fill="#62dbfb" fill-rule="evenodd"></path><path clip-rule="evenodd" d="M420.713 215.474c26.173 35.352 21.105 84.174-10.284 113.52-2.444 2.289-5.068 4.43-7.81 6.482-8.436 6.184-17.588 10.644-27.097 13.41-8.019 2.319-16.246 3.419-24.444 3.39 7.602 2.26 15.471 3.509 23.371 3.627 11.059.208 22.208-1.695 32.791-5.828a85.934 85.934 0 0 0 19.645-10.793c.089-.059.149-.089.209-.149 38.216-28.157 46.295-81.884 18.065-120.002-16.753-22.627-42.569-34.668-68.771-34.817 17.168 5.144 32.848 15.669 44.325 31.16z" fill="#4f66d0" fill-rule="evenodd"></path></g></svg>