<svg viewBox="0 0 58 58" xmlns="http://www.w3.org/2000/svg"><g><g fill="none" fill-rule="nonzero"><path d="M54.7 50.88v-.01a21.38 21.38 0 0 0-.16-7.93 48.841 48.841 0 0 0-3.11-9.3l1.26-6.96v-.01c.21-1.212.314-2.44.31-3.67.003-3.031-.62-6.03-1.83-8.81l-1.29-2.51a22.21 22.21 0 0 0-3.76-4.78L43.7 4.83a24.785 24.785 0 0 0-29.4 0L11.88 6.9a22.21 22.21 0 0 0-3.76 4.78l-1.29 2.51A22.016 22.016 0 0 0 5 23c-.004 1.23.1 2.458.31 3.67v.01l1.26 6.96a48.841 48.841 0 0 0-3.11 9.3 21.38 21.38 0 0 0-.16 7.93v.01z" fill="#a56a43"></path><path d="M47.78 25H50a3 3 0 0 1 3 3v3a3 3 0 0 1-3 3H8a3 3 0 0 1-3-3v-3a3 3 0 0 1 3-3z" fill="#f9c795"></path><path d="M44.65 40a15.27 15.27 0 0 1-1.49 2H14.84a15.27 15.27 0 0 1-1.49-2 22.806 22.806 0 0 1-3.22-14.11c.04-.4.25-3.89.5-6.39a2.973 2.973 0 0 1 2.74-2.68c3.82-.28 11.37-1.36 14.85-5.45a1.012 1.012 0 0 1 1.56 0c3.48 4.09 11.03 5.17 14.85 5.45a2.973 2.973 0 0 1 2.74 2.68c.25 2.5.46 5.99.5 6.39A22.806 22.806 0 0 1 44.65 40z" fill="#fdd7ad"></path><path d="M44.65 40a15.27 15.27 0 0 1-1.49 2H14.84a15.27 15.27 0 0 1-1.49-2h.07A5 5 0 0 1 18 37h8a4.924 4.924 0 0 1 3 1.03A4.924 4.924 0 0 1 32 37h8a5 5 0 0 1 4.58 3z" fill="#f9c795"></path><path d="M16 25.276a1 1 0 0 1-.556-1.832A13.611 13.611 0 0 1 22 21.276a1 1 0 0 1 0 2c-1.94.146-3.811.776-5.445 1.832a1 1 0 0 1-.555.168z" fill="#a56a43"></path><path d="M22.006 32.378a3.829 3.829 0 1 0-3.771-1.3z" fill="#ecf0f1"></path><path d="M42 25.276a1 1 0 0 1-.553-.167A11.737 11.737 0 0 0 36 23.276a1 1 0 0 1 0-2c2.335.147 4.593.894 6.555 2.168A1 1 0 0 1 42 25.276z" fill="#a56a43"></path><path d="M39.765 31.079a3.819 3.819 0 1 0-3.771 1.3z" fill="#ecf0f1"></path><path d="M31 35h-4a1 1 0 0 1 0-2h4a1 1 0 0 1 0 2z" fill="#f9c795"></path><path d="M47 46s11 4 11 12H0c0-8 11-12 11-12zM49.684 5.308c-.854.824-3.486 1.605-5.225 2.051a.952.952 0 0 1-1.174-1.216c.505-1.722 1.377-4.326 2.23-5.15a3.163 3.163 0 0 1 4.461-.138 3.163 3.163 0 0 1-.292 4.453zM55.2 14.968c-1.17.2-3.781-.656-5.465-1.276a.951.951 0 0 1-.277-1.667c1.393-1.131 3.589-2.781 4.759-2.975a3.163 3.163 0 0 1 3.751 2.417 3.163 3.163 0 0 1-2.768 3.501zM8.316 5.308c.854.824 3.486 1.605 5.225 2.051a.952.952 0 0 0 1.174-1.216c-.5-1.722-1.377-4.326-2.23-5.15A3.163 3.163 0 0 0 8.024.855a3.163 3.163 0 0 0 .292 4.453zM2.805 14.968c1.17.2 3.781-.656 5.465-1.276a.951.951 0 0 0 .277-1.667C7.154 10.894 4.958 9.244 3.788 9.05a3.163 3.163 0 0 0-3.751 2.417 3.163 3.163 0 0 0 2.768 3.501z" fill="#2fa8cc"></path><path d="M29 42v11H15a4 4 0 0 1-4-4v-5a2.006 2.006 0 0 1 2-2h2a3 3 0 0 1 3-3h8a3.011 3.011 0 0 1 3 3z" fill="#fdd7ad"></path><path d="M16 53h13v5H16z" fill="#f9c795"></path><path d="M47 44v5a4 4 0 0 1-4 4H29V42a3.011 3.011 0 0 1 3-3h8a3 3 0 0 1 3 3h2a2.006 2.006 0 0 1 2 2z" fill="#fdd7ad"></path><g fill="#f9c795"><path d="M42 58H29v-5h13zM20 46a1 1 0 0 1-1-1v-6a1 1 0 0 1 2 0v6a1 1 0 0 1-1 1zM24 46a1 1 0 0 1-1-1v-6a1 1 0 0 1 2 0v6a1 1 0 0 1-1 1zM34 46a1 1 0 0 1-1-1v-6a1 1 0 0 1 2 0v6a1 1 0 0 1-1 1zM38 46a1 1 0 0 1-1-1v-6a1 1 0 0 1 2 0v6a1 1 0 0 1-1 1zM15 42v3a1 1 0 0 1-2 0v-3zM45 42v3a1 1 0 0 1-2 0v-3zM30 39.77V53h-2V39.77A2.94 2.94 0 0 1 29 42a2.94 2.94 0 0 1 1-2.23z" fill="#f9c795"></path></g><circle cx="22" cy="29" fill="#35495e" r="2"></circle><circle cx="36" cy="29" fill="#35495e" r="2"></circle><path d="M23 34.272a.993.993 0 0 1-.707-.293 6.767 6.767 0 0 0-6.054-1.735 1 1 0 1 1-.482-1.942 8.8 8.8 0 0 1 7.95 2.263A1 1 0 0 1 23 34.272zM35 34.272a1 1 0 0 1-.707-1.707 8.8 8.8 0 0 1 7.95-2.263 1 1 0 1 1-.482 1.942 6.768 6.768 0 0 0-6.054 1.735.993.993 0 0 1-.707.293z" fill="#f9c795"></path><circle cx="21" cy="28" fill="#ecf0f1" r="1"></circle><circle cx="35" cy="28" fill="#ecf0f1" r="1"></circle></g></g></svg>