<svg viewBox="0 0 512 512" xmlns="http://www.w3.org/2000/svg"><g><path d="M305.768 100.667c25.252 27.143 25.574 26.623 25.578 30.006V97.67a6.537 6.537 0 0 1 6.537-6.537h11.583c2.848 0 5.246 1.833 6.142 4.375-4.309-49.245-45.626-87.88-95.99-87.88h-7.352c-50.363 0-91.68 38.634-95.99 87.879.896-2.541 3.294-4.374 6.142-4.374h11.583a6.537 6.537 0 0 1 6.537 6.537v38.078c0-4.008 3.423-7.173 7.39-6.872 39.117 2.81 78.926-9.62 109.025-29.283a6.89 6.89 0 0 1 8.815 1.074z" fill="#576574"></path><path d="M185.559 103.745c0-49.33 37.161-89.972 85.017-95.475a97.18 97.18 0 0 0-10.959-.642h-7.352c-50.363 0-91.68 38.635-95.99 87.879.896-2.542 3.294-4.375 6.142-4.375H174a6.537 6.537 0 0 1 6.537 6.537v38.078c0-3.177 2.154-5.817 5.022-6.629v-25.373z" fill="#3e4b5a"></path><path d="M256.153 264.975c-16.361 0-30.74-4.492-42.5-12.006v39.746l42.318 52.235 42.317-52.235v-40.867c-11.988 8.27-26.503 13.127-42.135 13.127z" fill="#ffbeab"></path><path d="M240.755 263.575c-10.089-1.872-19.19-5.551-27.102-10.606v39.746l27.102 33.452v-62.592z" fill="#f7af9f"></path><path d="m410.208 333.387-111.949-43.355-42.317 52.235-42.318-52.235-111.832 43.355s-41.406 17.022-41.406 64.224v104.757A9.631 9.631 0 0 0 70.018 512h372.048a9.548 9.548 0 0 0 9.548-9.548V397.611c0-47.202-41.406-64.224-41.406-64.224z" fill="#54a0ff"></path><path d="M87.517 502.368V385.415c0-32.385 19.489-50.56 31.725-58.782l-17.42 6.754s-41.406 17.022-41.406 64.224v104.757c0 5.319 4.313 9.632 9.632 9.632H97.15c-5.321 0-9.633-4.312-9.633-9.632z" fill="#338def"></path><path d="M304.951 97.64a6.897 6.897 0 0 0-8.823-1.076c-30.129 19.682-69.977 32.124-109.133 29.312-3.971-.301-7.397 2.868-7.397 6.88v60.502c0 38.885 30.468 74.4 76.555 74.4 41.025 0 74.402-33.376 74.402-74.4v-65.386c-.001-3.615.155-2.544-25.604-30.232z" fill="#ffcdbf"></path><path d="M206.699 193.258v-67.225c-6.555.348-13.139.315-19.704-.156-3.971-.301-7.397 2.868-7.397 6.88v60.502c0 38.885 30.468 74.4 76.555 74.4 4.252 0 8.415-.378 12.474-1.066-35.105-5.955-61.928-36.563-61.928-73.335z" fill="#ffbeab"></path><path d="m307.066 369.106 31.644-63.42-40.422-15.655-42.317 52.235 41.258 29.302c3.339 2.372 8.007 1.204 9.837-2.462z" fill="#338def"></path><path d="m204.934 369.106-31.644-63.42 40.422-15.655 42.317 52.235-41.258 29.302c-3.339 2.372-8.008 1.204-9.837-2.462z" fill="#338def"></path><path d="M256.025 342.302v-.036l-.025.018-.025-.018v.036l-30.008 21.312 14.184 21.348h31.698l14.184-21.348-30.008-21.312z" fill="#ff6b6b"></path><path d="M218.649 512h74.702l-21.502-127.037h-31.698L218.649 512z" fill="#fc8686"></path><path d="m271.016 352.949-14.991-10.647v-.036l-.025.018-.026-.018v.036l-30.008 21.312 14.185 21.348h30.033l-11.647-17.529a4.731 4.731 0 0 1 1.201-6.475l11.278-8.009z" fill="#ee5253"></path><path d="M240.151 384.963 218.649 512h30.034l21.501-127.037h-30.033z" fill="#ff6b6b"></path><path d="M388.757 512v-98.152a7.628 7.628 0 1 0-15.256 0V512h15.256zM138.501 512v-98.152a7.628 7.628 0 1 0-15.256 0V512h15.256z" fill="#338def"></path><path d="M335.846 236.147h-67.282a7.628 7.628 0 1 1 0-15.256h67.282c10.857 0 19.69-8.833 19.69-19.69v-34.798a7.628 7.628 0 1 1 15.256 0v34.798c0 19.269-15.677 34.946-34.946 34.946z" fill="#3e4b5a"></path><path d="M355.608 112.367a7.628 7.628 0 0 1-7.628-7.628v-8.891c-4.126-45.219-42.876-80.592-88.363-80.592h-7.352c-45.486 0-84.235 35.373-88.363 80.592v8.892a7.628 7.628 0 1 1-15.256 0v-9.232c0-.222.01-.444.029-.665 2.259-25.814 14.034-49.733 33.155-67.351C201.072 9.763 226.086 0 252.266 0h7.352c26.18 0 51.194 9.763 70.435 27.491 19.121 17.618 30.896 41.537 33.155 67.351.019.221.029.443.029.665v9.231a7.63 7.63 0 0 1-7.629 7.629z" fill="#e4eaf8"></path><path d="M394.758 138.465c0-21.404-17.568-38.755-39.239-38.755v77.51c21.671 0 39.239-17.351 39.239-38.755zM117.125 138.465c0-21.404 17.351-38.755 38.755-38.755v77.51c-21.403 0-38.755-17.351-38.755-38.755z" fill="#e4eaf8"></path><path d="M375.86 105.318c-5.932-3.558-12.894-5.607-20.341-5.607v77.51c7.447 0 14.409-2.049 20.341-5.607v-66.296zM137.466 138.466c0-13.942 7.366-26.16 18.414-32.987V99.71c-21.403 0-38.755 17.351-38.755 38.755 0 21.403 17.351 38.755 38.755 38.755v-5.768c-11.048-6.827-18.414-19.045-18.414-32.986zM162.417 91.133h11.584a6.537 6.537 0 0 1 6.537 6.537v81.592a6.537 6.537 0 0 1-6.537 6.537h-11.584a6.537 6.537 0 0 1-6.537-6.537V97.67a6.537 6.537 0 0 1 6.537-6.537z" fill="#d8dce5"></path><path d="M173.425 179.262V97.67a6.53 6.53 0 0 1 3.557-5.813 6.507 6.507 0 0 0-2.98-.724h-11.584a6.537 6.537 0 0 0-6.537 6.537v81.592a6.537 6.537 0 0 0 6.537 6.537h11.584a6.491 6.491 0 0 0 2.98-.724 6.53 6.53 0 0 1-3.557-5.813z" fill="#c3c8d1"></path><path d="M264.365 240.921h-9.594c-6.849 0-12.402-5.552-12.402-12.402 0-6.849 5.552-12.402 12.402-12.402h9.594c6.849 0 12.402 5.552 12.402 12.402-.001 6.849-5.553 12.402-12.402 12.402z" fill="#576574"></path><path d="M262.71 228.519c0-4.921 2.874-9.16 7.028-11.164a12.333 12.333 0 0 0-5.374-1.238h-9.594c-6.849 0-12.402 5.552-12.402 12.402 0 6.849 5.552 12.402 12.402 12.402h9.594c1.928 0 3.746-.453 5.374-1.238-4.154-2.004-7.028-6.243-7.028-11.164z" fill="#3e4b5a"></path><path d="M348.901 91.133h-10.728c-3.655 0-6.618 2.927-6.618 6.537v81.592c0 3.61 2.963 6.537 6.618 6.537h10.728c3.655 0 6.618-2.927 6.618-6.537V97.67c0-3.611-2.963-6.537-6.618-6.537z" fill="#d8dce5"></path><path d="M348.098 179.262V97.67c0-2.578 1.515-4.802 3.711-5.866a6.642 6.642 0 0 0-2.908-.671h-11.728c-3.655 0-6.618 2.927-6.618 6.537v81.592c0 3.61 2.963 6.537 6.618 6.537h11.728a6.646 6.646 0 0 0 2.908-.672c-2.196-1.064-3.711-3.287-3.711-5.865z" fill="#c3c8d1"></path></g></svg>