<svg viewBox="0 0 128 128" xmlns="http://www.w3.org/2000/svg"><g><path d="m93.228 11.437-24.124-5.13-1.541 7.249L76 15.35l-9.56 44.958 7.249 1.542 9.56-44.958 8.438 1.794z" fill="#fdb441"></path><path d="m72.021 69.7 12.951 5.609-3.837 18.043a13.418 13.418 0 0 1-5.787 8.442l-10.92 7.131a6.261 6.261 0 0 1-8.682-1.846l-7.074-10.958a13.415 13.415 0 0 1-1.851-10.065l3.838-18.047 14.113.146z" fill="#9b8e99"></path><path d="m93.23 11.44-1.54 7.25-8.44-1.8-1.42 6.7-7.25-1.55L76 15.35l-8.44-1.79 1.54-7.25z" fill="#f37c7c"></path><path d="m73.689 61.85-2.58 12.135a22.347 22.347 0 0 1-.417 1.649l-1.426 4.856a3.265 3.265 0 0 1-3.812 2.274 3.265 3.265 0 0 1-2.554-3.628l.674-5.017q.113-.843.29-1.676l2.58-12.135z" fill="#8b8089"></path><path d="M6.307 121.693a13.74 13.74 0 0 1 13.74-13.74 13.881 13.881 0 0 1 2.191.174v-.364a15.67 15.67 0 0 1 20.677-14.834 23.661 23.661 0 0 1 42.17 0 15.67 15.67 0 0 1 20.681 14.834v.364a13.75 13.75 0 0 1 15.931 13.566z" fill="#e19974"></path><g fill="#dc8758"><path d="M55.01 99.16a19.075 19.075 0 0 0-10.23-9.28 24.352 24.352 0 0 0-1.86 3.05 15.567 15.567 0 0 1 8.955 7.8 1.769 1.769 0 0 0 1.57.97 1.907 1.907 0 0 0 .79-.19 1.748 1.748 0 0 0 .775-2.35zM87.349 113.694a1.747 1.747 0 0 1-1.238-.512 8.756 8.756 0 0 0-12.368 0 1.75 1.75 0 1 1-2.474-2.475 12.259 12.259 0 0 1 17.317 0 1.75 1.75 0 0 1-1.237 2.987z" fill="#dc8758"></path></g></g></svg>