<svg viewBox="0 0 512 512" xmlns="http://www.w3.org/2000/svg"><g><g fill="#f24d6e"><path d="M36.2 390.6v-63c10.6-10 21.1-20.2 31.7-30.7s21.1-20.7 31.7-30.7c12.1-11.9 21.4-21.4 27.7-28.7s10.8-13.4 13.3-18.4 3.8-9.6 3.8-13.9c0-8.7-5-15-15-18.8s-23-4.9-38.9-3.3c-15.8 1.6-32.7 5.9-50.7 13.1v-66.1c26.4-8.7 50.4-13.1 71.9-13.1s40 3.5 55.4 10.5 27.3 16.7 35.6 29.1 12.5 26.8 12.5 43.2c0 16.3-4.5 32.3-13.1 46.1-8.7 14.4-22 30.3-40 47.7-5.8 5.5-11.6 11.2-17.4 17s-11.6 11.5-17.4 17h85.9v63zM357.8 396.2c-17.4 0-33.4-3.5-47.9-10.5s-27.3-17-37.4-29.5c-10.4-12.7-18.5-27.6-24.1-44.8-5.7-17.2-8.5-35.8-8.5-55.8 0-20.1 2.8-38.6 8.5-55.6 5.2-16.2 13.4-31.2 24.1-44.3 10.2-12.4 23-22.4 37.4-29.3 14.5-7 30.5-10.5 47.9-10.5s33.3 3.5 47.7 10.5 27.2 17 37.4 29.3c10.9 13.1 19.1 28.2 24.3 44.3 5.7 17 8.5 35.6 8.5 55.6 0 20.1-2.8 38.7-8.5 55.8-5.2 16.3-13.5 31.5-24.4 44.8-10.2 12.4-23 22.5-37.4 29.5-14.3 7-30.2 10.5-47.6 10.5zm0-65.4c10.6 0 19.5-3.1 26.7-9.3 7.3-6.2 12.9-15 16.8-26.3 4-11.3 5.9-24.5 5.9-39.6s-2-28.2-5.9-39.4c-4-11.2-9.6-19.9-16.8-25.9-7.3-6.1-16.2-9.1-26.7-9.1-10.3 0-19.1 3-26.5 9.1s-13.1 14.7-17 25.7c-4 11.1-5.9 24.3-5.9 39.6 0 15.1 2 28.3 5.9 39.6 4 11.3 9.6 20.1 17 26.3 7.3 6.2 16.2 9.3 26.5 9.3z" fill="#f24d6e"></path></g></g></svg>