<?xml version="1.0" encoding="UTF-8" standalone="no"?>
<!-- Created with Inkscape (http://www.inkscape.org/) -->

<svg
   version="1.1"
   id="svg1089"
   width="682.66669"
   height="682.66669"
   viewBox="0 0 682.66669 682.66669"
   xmlns="http://www.w3.org/2000/svg"
   xmlns:svg="http://www.w3.org/2000/svg">
  <defs
     id="defs1093">
    <clipPath
       clipPathUnits="userSpaceOnUse"
       id="clipPath1103">
      <path
         d="M 0,512 H 512 V 0 H 0 Z"
         id="path1101" />
    </clipPath>
  </defs>
  <g
     id="g1095"
     transform="matrix(1.3333333,0,0,-1.3333333,0,682.66667)">
    <g
       id="g1097">
      <g
         id="g1099"
         clip-path="url(#clipPath1103)">
        <g
           id="g1105"
           transform="translate(338.1849,0.001)">
          <path
             d="m 0,0 h -302.016 c -6.583,0 -10.525,7.255 -7.011,12.821 33.07,52.397 91.476,87.192 158.025,87.192 66.537,0 124.943,-34.795 158.013,-87.192 C 10.524,7.255 6.582,0 0,0"
             style="fill:#60b7ff;fill-opacity:1;fill-rule:nonzero;stroke:none"
             id="path1107" />
        </g>
        <g
           id="g1109"
           transform="translate(231.3616,94.7512)">
          <path
             d="m 0,0 c -52.694,-12.772 -96.633,-47.879 -121.247,-94.751 h -73.946 c -6.582,0 -10.524,7.255 -7.01,12.821 33.07,52.397 91.48,87.187 158.02,87.187 C -28.964,5.257 -14.167,3.431 0,0"
             style="fill:#26a6fe;fill-opacity:1;fill-rule:nonzero;stroke:none"
             id="path1111" />
        </g>
        <g
           id="g1113"
           transform="translate(373.9239,289.8825)">
          <path
             d="m 0,0 c 0,-28.163 -19.172,-51.836 -45.176,-58.704 -7.006,-54.19 -44.403,-98.859 -94.542,-116.334 v -12.465 c 0,-26.224 -21.486,-47.441 -47.82,-47.005 -25.779,0.427 -46.215,21.996 -46.215,47.778 v 11.704 c -50.139,17.463 -87.536,62.132 -94.542,116.322 -13.008,3.44 -24.296,11.069 -32.341,21.365 -8.045,10.296 -12.835,23.258 -12.835,37.339 0,21.757 17.636,39.405 39.405,39.405 h 4.582 v 39.964 c 0,78.838 63.911,142.749 142.748,142.749 h 10e-4 c 78.837,0 142.748,-63.911 142.748,-142.749 V 39.405 h 4.582 c 10.884,0 20.73,-4.409 27.863,-11.542 C -4.409,20.73 0,10.873 0,0"
             style="fill:#d78878;fill-opacity:1;fill-rule:nonzero;stroke:none"
             id="path1115" />
        </g>
        <g
           id="g1117"
           transform="translate(235.8974,115.4544)">
          <path
             d="m 0,0 c -0.564,-0.21 -1.129,-0.41 -1.693,-0.609 v -12.473 c 0,-26.22 -21.483,-47.437 -47.824,-47.005 -25.777,0.432 -46.208,22.003 -46.208,47.78 v 11.709 c -50.137,17.454 -87.535,62.124 -94.541,116.323 -13.016,3.431 -24.305,11.067 -32.34,21.36 -8.046,10.293 -12.839,23.254 -12.839,37.343 0,21.748 17.631,39.401 39.401,39.401 h 4.583 v 39.96 c 0,78.847 63.916,142.752 142.752,142.752 10.713,0 21.161,-1.184 31.2,-3.42 C -78.006,379.309 -123.14,325.165 -123.14,260.463 V 135.458 C -123.14,64.669 -69.085,6.508 0,0"
             style="fill:#ca6e59;fill-opacity:1;fill-rule:nonzero;stroke:none"
             id="path1119" />
        </g>
        <g
           id="g1121"
           transform="translate(291.4093,511.6224)">
          <path
             d="m 0,0 h -208.714 c -21.128,0 -38.255,-17.127 -38.255,-38.255 v -145.653 c 0,-8.992 7.29,-16.282 16.282,-16.282 v 0 c 7.429,0 13.917,5.029 15.768,12.224 l 9.151,35.56 c 2.84,11.035 12.789,18.749 24.184,18.749 h 154.74 l 65.099,-48.678 v 144.08 C 38.255,-17.127 21.128,0 0,0"
             style="fill:#685e68;fill-opacity:1;fill-rule:nonzero;stroke:none"
             id="path1123" />
        </g>
        <g
           id="g1125"
           transform="translate(82.6907,511.6183)">
          <path
             d="M 0,0 H 70.186 C 49.057,0 31.925,-17.122 31.925,-38.251 v -95.405 h -4.79 c -11.394,0 -21.345,-7.716 -24.189,-18.749 l -9.148,-35.562 c -0.927,-3.595 -3.018,-6.645 -5.8,-8.808 -2.781,-2.153 -6.263,-3.41 -9.972,-3.41 -8.993,0 -16.277,7.284 -16.277,16.277 V -38.251 C -38.251,-17.122 -21.129,0 0,0"
             style="fill:#554e56;fill-opacity:1;fill-rule:nonzero;stroke:none"
             id="path1127" />
        </g>
        <path
           d="m 262.293,0.001 h -28.092 v 125.745 h 28.092 z"
           style="fill:#554e56;fill-opacity:1;fill-rule:nonzero;stroke:none"
           id="path1129" />
        <g
           id="g1131"
           transform="translate(40.9879,261.7737)">
          <path
             d="m 0,0 c -0.094,0 -0.187,0.001 -0.282,0.005 -4.245,0.152 -7.568,3.703 -7.446,7.943 0.003,0.297 0.033,10.105 -7.115,17.253 -3.018,3.017 -3.018,7.91 0,10.927 3.017,3.017 7.909,3.017 10.926,0 C 8.167,24.045 7.74,8.122 7.716,7.45 7.567,3.28 4.139,0 0,0"
             style="fill:#bb5d4c;fill-opacity:1;fill-rule:nonzero;stroke:none"
             id="path1133" />
        </g>
        <g
           id="g1135"
           transform="translate(98.4809,271.6975)">
          <path
             d="m 0,0 c 0,-91.726 74.359,-166.085 166.085,-166.085 91.726,0 166.085,74.359 166.085,166.085 0,91.726 -74.359,166.085 -166.085,166.085 C 74.359,166.085 0,91.726 0,0"
             style="fill:#fee45a;fill-opacity:1;fill-rule:nonzero;stroke:none"
             id="path1137" />
        </g>
        <g
           id="g1139"
           transform="translate(296.2963,108.6301)">
          <path
             d="m 0,0 c -10.271,-1.978 -20.882,-3.018 -31.73,-3.018 -91.727,0 -166.085,74.358 -166.085,166.085 0,91.728 74.358,166.086 166.085,166.086 10.848,0 21.459,-1.04 31.73,-3.018 C -76.553,311.321 -134.367,243.947 -134.367,163.067 -134.367,82.188 -76.553,14.814 0,0"
             style="fill:#ffd15b;fill-opacity:1;fill-rule:nonzero;stroke:none"
             id="path1141" />
        </g>
        <g
           id="g1143"
           transform="translate(252.2495,292.6891)">
          <path
             d="m 0,0 c -4.267,0 -7.726,3.459 -7.726,7.726 0,17.306 -14.079,31.385 -31.385,31.385 -17.306,0 -31.384,-14.079 -31.384,-31.385 0,-4.267 -3.46,-7.726 -7.727,-7.726 -4.267,0 -7.726,3.459 -7.726,7.726 0,25.827 21.011,46.838 46.837,46.838 25.826,0 46.837,-21.011 46.837,-46.838 C 7.726,3.459 4.267,0 0,0"
             style="fill:#fe9901;fill-opacity:1;fill-rule:nonzero;stroke:none"
             id="path1145" />
        </g>
        <g
           id="g1147"
           transform="translate(392.5005,292.6891)">
          <path
             d="m 0,0 c -4.267,0 -7.726,3.459 -7.726,7.726 0,17.306 -14.079,31.385 -31.385,31.385 -17.305,0 -31.384,-14.079 -31.384,-31.385 0,-4.267 -3.46,-7.726 -7.727,-7.726 -4.267,0 -7.726,3.459 -7.726,7.726 0,25.827 21.011,46.838 46.837,46.838 25.826,0 46.837,-21.011 46.837,-46.838 C 7.726,3.459 4.267,0 0,0"
             style="fill:#fe9901;fill-opacity:1;fill-rule:nonzero;stroke:none"
             id="path1149" />
        </g>
        <g
           id="g1151"
           transform="translate(289.6368,186.2294)">
          <path
             d="m 0,0 c -41.239,0 -74.789,33.55 -74.789,74.789 0,4.267 3.459,7.726 7.726,7.726 4.267,0 7.726,-3.459 7.726,-7.726 0,-32.718 26.619,-59.336 59.337,-59.336 32.718,0 59.336,26.618 59.336,59.336 0,4.267 3.459,7.726 7.726,7.726 4.267,0 7.727,-3.459 7.727,-7.726 C 74.789,33.55 41.238,0 0,0"
             style="fill:#fe9901;fill-opacity:1;fill-rule:nonzero;stroke:none"
             id="path1153" />
        </g>
        <g
           id="g1155"
           transform="translate(422.9111,415.4111)">
          <path
             d="m 0,0 c -1.919,0 -3.839,0.732 -5.303,2.197 -2.929,2.929 -2.929,7.677 0,10.606 l 45.341,45.342 c 2.929,2.929 7.678,2.929 10.607,0 2.929,-2.929 2.929,-7.678 0,-10.607 L 5.303,2.197 C 3.839,0.732 1.919,0 0,0"
             style="fill:#fd4755;fill-opacity:1;fill-rule:nonzero;stroke:none"
             id="path1157" />
        </g>
        <g
           id="g1159"
           transform="translate(422.9111,415.4111)">
          <path
             d="m 0,0 c -1.919,0 -3.839,0.732 -5.303,2.197 -2.929,2.929 -2.929,7.677 0,10.606 l 45.341,45.342 c 2.929,2.929 7.678,2.929 10.607,0 2.929,-2.929 2.929,-7.678 0,-10.607 L 5.303,2.197 C 3.839,0.732 1.919,0 0,0 Z"
             style="fill:none;stroke:#fe646f;stroke-width:1;stroke-linecap:butt;stroke-linejoin:miter;stroke-miterlimit:10;stroke-dasharray:none;stroke-opacity:1"
             id="path1161" />
        </g>
        <g
           id="g1163"
           transform="translate(504.5,373.2432)">
          <path
             d="m 0,0 h -64.123 c -4.142,0 -7.5,3.358 -7.5,7.5 0,4.142 3.358,7.5 7.5,7.5 H 0 C 4.142,15 7.5,11.642 7.5,7.5 7.5,3.358 4.142,0 0,0"
             style="fill:#fd4755;fill-opacity:1;fill-rule:nonzero;stroke:none"
             id="path1165" />
        </g>
        <g
           id="g1167"
           transform="translate(504.5,373.2432)">
          <path
             d="m 0,0 h -64.123 c -4.142,0 -7.5,3.358 -7.5,7.5 0,4.142 3.358,7.5 7.5,7.5 H 0 C 4.142,15 7.5,11.642 7.5,7.5 7.5,3.358 4.142,0 0,0 Z"
             style="fill:none;stroke:#fe646f;stroke-width:1;stroke-linecap:butt;stroke-linejoin:miter;stroke-miterlimit:10;stroke-dasharray:none;stroke-opacity:1"
             id="path1169" />
        </g>
        <g
           id="g1171"
           transform="translate(380.7432,432.8777)">
          <path
             d="m 0,0 c -4.142,0 -7.5,3.358 -7.5,7.5 v 64.122 c 0,4.142 3.358,7.5 7.5,7.5 4.142,0 7.5,-3.358 7.5,-7.5 V 7.5 C 7.5,3.358 4.142,0 0,0"
             style="fill:#fd4755;fill-opacity:1;fill-rule:nonzero;stroke:none"
             id="path1173" />
        </g>
        <g
           id="g1175"
           transform="translate(380.7432,432.8777)">
          <path
             d="m 0,0 c -4.142,0 -7.5,3.358 -7.5,7.5 v 64.122 c 0,4.142 3.358,7.5 7.5,7.5 4.142,0 7.5,-3.358 7.5,-7.5 V 7.5 C 7.5,3.358 4.142,0 0,0 Z"
             style="fill:none;stroke:#fe646f;stroke-width:1;stroke-linecap:butt;stroke-linejoin:miter;stroke-miterlimit:10;stroke-dasharray:none;stroke-opacity:1"
             id="path1177" />
        </g>
      </g>
    </g>
  </g>
</svg>
