<svg viewBox="0 0 256 256" xmlns="http://www.w3.org/2000/svg"><g><path d="M111.943 141.843H73.434c-20.553 0-37.215-16.662-37.215-37.215V58.762c0-10.267 8.323-18.59 18.59-18.59h75.759c10.267 0 18.59 8.323 18.59 18.59v45.866c0 20.553-16.662 37.215-37.215 37.215z" fill="#e6e7e8"></path><path d="M138.688 70.948V88.54c0 3.325-.361 6.564-1.031 9.689.342.025.683.052 1.031.052 7.548 0 13.667-6.119 13.667-13.667s-6.119-13.666-13.667-13.666z" fill="#ffd2c0"></path><path d="M147.297 74.006a13.605 13.605 0 0 1 3.058 8.609c0 7.092-5.402 12.92-12.316 13.598a45.635 45.635 0 0 1-.38 2.009c.342.026.681.059 1.029.059 7.548 0 13.667-6.119 13.667-13.667 0-4.283-1.974-8.102-5.058-10.608z" fill="#fcc4ae"></path><path d="M138.688 77.615V88.54c0 1.032-.046 2.053-.113 3.069.038 0 .075.006.113.006a7 7 0 1 0 0-14z" fill="#f2ad97"></path><path d="M46.688 88.54V70.948c-7.548 0-13.667 6.119-13.667 13.667s6.119 13.667 13.667 13.667c.348 0 .689-.027 1.031-.052a46.18 46.18 0 0 1-1.031-9.69z" fill="#ffd2c0"></path><path d="M46.688 88.54V77.615a7 7 0 1 0 0 14c.038 0 .075-.005.113-.006a47.204 47.204 0 0 1-.113-3.069z" fill="#f2ad97"></path><path d="M167.601 245.609H17.776c-5.523 0-10-4.477-10-10v-35.994c0-27.614 22.386-50 50-50H127.6c27.614 0 50 22.386 50 50v35.994c.001 5.523-4.477 10-9.999 10z" fill="#8c3f0a"></path><path d="M13.776 230.5a2 2 0 0 1-2-2v-29a2 2 0 0 1 4 0v29a2 2 0 0 1-2 2zm.745-36.954a2.001 2.001 0 0 1-1.968-2.368l.043-.231a2 2 0 0 1 3.934.728l-.045.239a2.002 2.002 0 0 1-1.964 1.632z" fill="#995222"></path><path d="M157.601 159.615a49.773 49.773 0 0 1 10 30v35.994c0 5.523-4.477 10-10 10H7.776c0 5.523 4.477 10 10 10H167.6c5.523 0 10-4.477 10-10v-35.994c0-16.358-7.856-30.878-19.999-40z" fill="#7c3108"></path><path d="M160.358 161.857c7.62 8.775 12.243 20.223 12.243 32.757v35.994c0 5.523-4.477 10-10 10H12.776a9.954 9.954 0 0 1-4.11-.89c1.569 3.471 5.053 5.89 9.11 5.89H167.6c5.523 0 10-4.477 10-10v-35.994c.001-15.079-6.685-28.589-17.242-37.757z" fill="#6d2e03"></path><path d="M104.452 133.016c-.991 5.605-5.875 9.866-11.764 9.866-5.889 0-10.773-4.261-11.764-9.866a45.53 45.53 0 0 1-4.403-1.414v28.846c0 8.928 7.238 16.167 16.167 16.167 8.928 0 16.167-7.238 16.167-16.167v-28.846a45.44 45.44 0 0 1-4.403 1.414z" fill="#fcc4ae"></path><path d="M104.452 133.016c-.991 5.605-5.875 9.866-11.764 9.866-5.889 0-10.773-4.261-11.764-9.866a45.53 45.53 0 0 1-4.403-1.414v5.139c1.439.515 2.913.955 4.412 1.334 1.015 5.576 5.886 9.807 11.755 9.807 5.869 0 10.74-4.231 11.755-9.807a47.716 47.716 0 0 0 4.412-1.334v-5.139a45.44 45.44 0 0 1-4.403 1.414z" fill="#f2ad97"></path><path d="M92.688 10.391c-25.405 0-46 20.595-46 46V88.54c0 25.405 20.595 46 46 46s46-20.595 46-46V56.391c0-25.405-20.594-46-46-46z" fill="#ffd2c0"></path><path d="M92.688 10.391c-25.405 0-46 20.595-46 46V88.54c0 25.405 20.595 46 46 46s46-20.595 46-46V56.391c0-25.405-20.594-46-46-46z" fill="#ffd2c0"></path><path d="M113.98 39.216H71.396a2 2 0 0 1 0-4h42.584a2 2 0 0 1 0 4zM113.98 49.216H71.396a2 2 0 0 1 0-4h42.584a2 2 0 0 1 0 4z" fill="#fcc4ae"></path><path d="M92.688 114.083c6.259 0 11.333-3.026 11.333-6.76H81.355c0 3.734 5.074 6.76 11.333 6.76z" fill="#995222"></path><circle cx="112.688" cy="78.128" fill="#995222" r="5.292"></circle><circle cx="72.688" cy="78.128" fill="#995222" r="5.292"></circle><path d="M92.688 142.882c-6.604 0-11.958-5.354-11.958-11.958v-5.042a4 4 0 0 1 4-4h15.917a4 4 0 0 1 4 4v5.042c0 6.604-5.354 11.958-11.959 11.958z" fill="#e6e7e8"></path><path d="m14.207 175.092 45.782 70.516h85.426L43.761 151.62c-12.643 3.687-23.21 12.225-29.554 23.472z" fill="#ffa91a"></path><path d="m30.514 157.711 46.808 47.428c.392.396.907.595 1.424.595a2.002 2.002 0 0 0 1.424-3.405l-46.104-46.715a49.034 49.034 0 0 0-3.552 2.097zM103.188 230.5a1.993 1.993 0 0 1-1.424-.595l-17.138-17.364a2 2 0 0 1 2.848-2.81l17.138 17.364a2 2 0 0 1-1.424 3.405zM22.345 164.373a50.285 50.285 0 0 0-2.731 2.96l21.251 24.875a1.996 1.996 0 0 0 2.819.222 2 2 0 0 0 .222-2.819zM67.083 221.817a1.995 1.995 0 0 1-1.521-.701L46.591 198.91a1.998 1.998 0 1 1 3.041-2.597l18.971 22.206a1.998 1.998 0 0 1-1.52 3.298zM77.981 234.574a1.995 1.995 0 0 1-1.521-.701l-5.292-6.194a1.998 1.998 0 1 1 3.041-2.597l5.292 6.194a1.998 1.998 0 0 1-1.52 3.298z" fill="#f79219"></path><path d="M140.313 119.283c-5.6.103-10.171 5.106-10.171 10.707v10.805a2 2 0 0 0 2 2h18.731v-13.149c0-5.788-4.746-10.469-10.56-10.363z" fill="#f2ad97"></path><path d="M144.892 120.266c.623 1.332.981 2.813.981 4.381v11.149a2 2 0 0 1-2 2h-13.731v3a2 2 0 0 0 2 2h18.731v-13.149c0-4.155-2.451-7.729-5.981-9.381z" fill="#e59076"></path><path d="m229.462 158.305 3.221-1.686v-27.337c0-5.523-4.477-10-10-10h-82.175c5.725 0 10.366 4.641 10.366 10.365v22.301l4.908 2.737c.71.396.71 1.417 0 1.813l-4.908 2.737v11.915l3.221 1.686a1.038 1.038 0 0 1 0 1.839l-3.221 1.686v59.247c0 5.523 4.477 10 10 10h71.81v-42.261l-3.221-1.686a1.038 1.038 0 0 1 0-1.839l3.221-1.686v-6.725l-4.908-2.737a1.038 1.038 0 0 1 0-1.813l4.908-2.737V161.83l-3.221-1.686a1.038 1.038 0 0 1-.001-1.839z" fill="#ffd2c0"></path><path d="m229.462 158.305 3.221-1.686v-27.337c0-5.523-4.477-10-10-10h-5c5.523 0 10 4.477 10 10v27.337l-3.221 1.686a1.038 1.038 0 0 0 0 1.839l3.221 1.686v22.294l-4.908 2.737a1.038 1.038 0 0 0 0 1.813l4.908 2.737v6.725l-3.221 1.686a1.038 1.038 0 0 0 0 1.839l3.221 1.686v42.261h5v-42.261l-3.221-1.686a1.038 1.038 0 0 1 0-1.839l3.221-1.686v-6.725l-4.908-2.737a1.038 1.038 0 0 1 0-1.813l4.908-2.737V161.83l-3.221-1.686a1.038 1.038 0 0 1 0-1.839z" fill="#fcc4ae"></path><path d="M248.224 235.603v-11.509a2 2 0 0 0-2-2h-72.288a2 2 0 0 0-2 2v10.878c0 5.633-4.38 10.443-10.01 10.631h76.299c5.522 0 9.999-4.477 9.999-10z" fill="#f2ad97"></path><path d="M248.224 224.094a2 2 0 0 0-2-2h-3v8.509c0 5.523-4.477 10-10 10h-62.88c-1.764 2.885-4.835 4.88-8.418 5h76.299c5.523 0 10-4.477 10-10z" fill="#e59076"></path><path d="m206.54 136.911 3.411 13.171 13.112-3.632a4.996 4.996 0 0 0 2.995-2.319l20.694-35.843c3.03-5.249 1.232-11.96-4.017-14.991-5.249-3.03-11.96-1.232-14.991 4.017l-20.694 35.843a5.004 5.004 0 0 0-.51 3.754z" fill="#ffc91d"></path><path d="M247.383 98.622a10.912 10.912 0 0 1-1.363 6.935L225.326 141.4a5.005 5.005 0 0 1-2.996 2.319l-7.678 2.127-2.017 3.493 10.427-2.888a5.001 5.001 0 0 0 2.996-2.319l20.694-35.843c1.77-3.066 1.882-6.628.631-9.667z" fill="#ffa91a"></path><path d="m230.22 136.922 1.67-2.893-14.263 2.756-4.744-13.73-1.67 2.893 4.387 12.695a1.26 1.26 0 0 0 1.432.827zM236.747 125.618l1.67-2.893-14.263 2.756-4.745-13.73-1.67 2.893 4.387 12.695a1.26 1.26 0 0 0 1.432.827zM243.273 114.314l1.67-2.893-14.263 2.756-4.745-13.73-1.67 2.893 4.387 12.695a1.26 1.26 0 0 0 1.432.827z" fill="#f79219"></path><path d="m195.407 171.367-.381 3.409a.63.63 0 0 0 1.001.578l2.762-2.034 38.636-66.919a1.954 1.954 0 0 0-3.383-1.953z" fill="#ef7816"></path><path d="M198.188 144.125h-34a2 2 0 0 1 0-4h34a2 2 0 0 1 0 4zM191.188 164.125h-27a2 2 0 0 1 0-4h27a2 2 0 0 1 0 4zM215.188 184.125h-51a2 2 0 0 1 0-4h51a2 2 0 0 1 0 4zM215.188 204.125h-51a2 2 0 0 1 0-4h51a2 2 0 0 1 0 4z" fill="#995222"></path><path d="M93.245 99.509c-.447-1.193 1.752-6.261 6.41-6.559 5.944-.38 11.105 7.187 15.541 10.1 2.307 1.515 5.733-.339 5.478-.186-.239.144-1.568 5.429-6.149 5.429-7.239 0-10.505-5.246-14.913-7.097-4.492-1.888-5.92-.495-6.367-1.687zM92.132 99.509c.447-1.193-1.752-6.261-6.41-6.559-5.944-.38-11.105 7.187-15.541 10.1-2.307 1.515-5.733-.339-5.479-.186.239.144 1.568 5.429 6.149 5.429 7.239 0 10.505-5.246 14.913-7.097 4.492-1.888 5.92-.495 6.368-1.687z" fill="#e6e7e8"></path></g></svg>