<svg viewBox="0 0 497 497" xmlns="http://www.w3.org/2000/svg"><g><path d="M315.344 308.178h-98.083v55.415h98.083c15.302 0 27.708-12.405 27.708-27.708 0-15.302-12.406-27.707-27.708-27.707z" fill="#ffcabd"></path><path d="M33.248 284.24c-14.994-3.057-29.627 6.62-32.684 21.615-3.057 14.994 6.62 29.627 21.615 32.684l96.106 19.592 11.069-54.298z" fill="#ffdcce"></path><path d="M269.458 394.48c0-61.303-31.595-86.303-31.595-86.303H109.215S77.62 333.176 77.62 394.48l95.924 29.394z" fill="#7de2ff"></path><path d="m240.043 389.422-16.224 38.971 16.224 38.971h19.13c21.515 0 38.977-17.445 38.977-38.977 0-21.52-17.446-38.966-38.977-38.966h-19.13z" fill="#696eb1"></path><path d="M160.221 428.388c0 21.531 17.446 38.977 38.966 38.977h40.856v-77.943h-40.856c-21.478 0-38.966 17.414-38.966 38.966z" fill="#ffdcce"></path><path d="m107.035 389.422 16.224 38.971-16.224 38.971h-19.13c-21.515 0-38.977-17.445-38.977-38.977 0-21.52 17.446-38.966 38.977-38.966h19.13z" fill="#696eb1"></path><path d="M63.927 397.679c-9.126 7.132-14.998 18.231-14.998 30.709 0 21.532 17.461 38.977 38.977 38.977h19.13l9.433-22.659c-34.541-5.445-47.8-23.316-52.542-47.027z" fill="#4c5698"></path><path d="M186.858 428.388c0 21.531-17.446 38.977-38.966 38.977h-40.856v-77.943h40.856c21.477 0 38.966 17.414 38.966 38.966z" fill="#ffdcce"></path><path d="M43.778 195.46H7.725c0-23.229 4.8-45.365 13.463-65.452C46.621 71.025 105.337 29.635 173.539 29.635h98.251c22.065 0 39.947 17.882 39.947 39.947 0 16.688-6.768 31.789-17.697 42.728a59.983 59.983 0 0 1-13.278 10.043l-5.652 12.45z" fill="#d5938c"></path><path d="M91.274 332.345c24.264 14.699 52.053 22.658 81.062 22.873l1.21.004c29.469 0 57.717-7.927 82.316-22.767-8.56-16.785-17.998-24.277-17.998-24.277H109.215s-9.396 7.459-17.941 24.167z" fill="#2ecffb"></path><path d="M185.943 29.636h-12.404c-68.203 0-126.918 41.389-152.351 100.373-8.663 20.087-13.463 42.224-13.463 65.452h36.053l37.941-9.948c.891-69.973 43.564-129.867 104.224-155.877z" fill="#cd847b"></path><path d="M300.952 170.686a128.886 128.886 0 0 0-20.19-48.332c-8.714 4.883-18.758 7.654-29.45 7.654H107.489c-34.539 0-62.782 27.532-63.668 62.06-.014.539-.024 1.079-.032 1.619-.96 71.667 57.096 131.001 128.768 131.531 72.125.534 130.753-57.767 130.753-129.758a130.866 130.866 0 0 0-2.358-24.774z" fill="#ffdcce"></path><path d="M146.734 322.419c-39.629-31.502-65.043-80.119-65.043-134.677 0-19.429 3.226-38.103 9.165-55.521-17.596 4.752-32.196 16.856-40.262 32.854-2.405-.54-5.016-.826-7.848-.826-22.925 0-41.509 18.584-41.509 41.51 0 22.925 18.584 41.509 41.509 41.509 4.182 0 7.881-.625 11.143-1.775 16.306 38.679 50.87 68.028 92.845 76.926z" fill="#ffcabd"></path><ellipse cx="91.593" cy="226.902" fill="#ff8d9d" rx="30.238" ry="24.08"></ellipse><ellipse cx="255.495" cy="226.902" fill="#ff8d9d" rx="30.238" ry="24.08"></ellipse><path d="M109.216 211.221a7.5 7.5 0 0 1-7.5-7.5V191.36a7.5 7.5 0 0 1 15 0v12.361a7.5 7.5 0 0 1-7.5 7.5zM237.872 211.221a7.5 7.5 0 0 1-7.5-7.5V191.36a7.5 7.5 0 0 1 15 0v12.361a7.5 7.5 0 0 1-7.5 7.5zM173.544 218.58a29.995 29.995 0 0 1-22.614-10.299 7.5 7.5 0 0 1 11.308-9.856c2.855 3.276 6.976 5.154 11.306 5.154s8.451-1.879 11.306-5.154a7.5 7.5 0 0 1 10.582-.726 7.5 7.5 0 0 1 .726 10.582 29.997 29.997 0 0 1-22.614 10.299z" fill="#423e4f"></path><path d="m475.79 248.5-33.506-50.959-33.506 50.959c-11.714 0-21.21 9.496-21.21 21.21v67.012c0 11.714 9.496 21.21 21.21 21.21l33.506 58.029 33.506-58.029c11.714 0 21.21-9.496 21.21-21.21V269.71c0-11.714-9.496-21.21-21.21-21.21z" fill="#c8a9f1"></path><path d="M475.79 29.635h-67.012c-11.714 0-21.21 9.496-21.21 21.21v67.012c0 11.714 9.496 21.21 21.21 21.21l33.506 58.473 33.506-58.473c11.714 0 21.21-9.496 21.21-21.21V50.846c0-11.714-9.496-21.211-21.21-21.211z" fill="#ff8d9d"></path><path d="M475.79 139.068h-67.012c-11.714 0-21.21 9.496-21.21 21.21v67.012c0 11.714 9.496 21.21 21.21 21.21h67.012c11.714 0 21.21-9.496 21.21-21.21v-67.012c0-11.714-9.496-21.21-21.21-21.21z" fill="#71dbba"></path><path d="M475.79 357.932h-67.012c-11.714 0-21.21 9.496-21.21 21.21v67.012c0 11.714 9.496 21.21 21.21 21.21h67.012c11.714 0 21.21-9.496 21.21-21.21v-67.012c0-11.713-9.496-21.21-21.21-21.21z" fill="#fce29f"></path><path d="M140.837 446.435c-13.364 0-24.509-1.28-33.801-3.648v24.578h40.856c20.365 0 37.071-15.626 38.807-35.549-12.952 9.195-28.769 14.619-45.862 14.619z" fill="#ffcabd"></path><path d="M416.408 399.579c0-15.261 4.285-29.519 11.709-41.646h-19.34c-11.714 0-21.21 9.496-21.21 21.21v67.011c0 11.714 9.496 21.21 21.21 21.21h45.263c-22.591-14.11-37.632-39.185-37.632-67.785z" fill="#ffcd71"></path><path d="M416.408 290.147c0-15.261 4.285-29.519 11.709-41.646h-19.34c-11.714 0-21.21 9.496-21.21 21.21v67.011c0 11.714 9.496 21.21 21.21 21.21h45.263c-22.591-14.11-37.632-39.185-37.632-67.785z" fill="#b18ae3"></path><path d="M416.408 180.714c0-15.261 4.285-29.519 11.709-41.646h-19.34c-11.714 0-21.21 9.496-21.21 21.21v67.011c0 11.714 9.496 21.21 21.21 21.21h45.263c-22.591-14.11-37.632-39.185-37.632-67.785z" fill="#30cc9b"></path><path d="M416.408 71.282c0-15.261 4.285-29.519 11.709-41.646h-19.34c-11.714 0-21.21 9.496-21.21 21.21v67.011c0 11.714 9.496 21.21 21.21 21.21h45.263c-22.591-14.11-37.632-39.185-37.632-67.785z" fill="#e95b70"></path></g></svg>