<svg id="Capa_1" enable-background="new 0 0 512 512" height="512" viewBox="0 0 512 512" width="512" xmlns="http://www.w3.org/2000/svg"><g><g><path d="m425.808 172.099c0-95.048-76.026-172.099-169.808-172.099s-169.808 77.051-169.808 172.099 76.026 102.218 169.808 102.218 169.808-7.171 169.808-102.218z" fill="#665e66"/><path d="m253.77 274.311c-92.751-.114-167.578-7.915-167.578-102.212 0-95.044 76.031-172.095 169.81-172.095-47.731 0-86.421 77.051-86.421 172.095 0 93.566 37.493 101.976 84.189 102.212z" fill="#454045"/><path d="m377.941 235.053c-1.805 35.109-29.899 63.058-65.016 64.711-30.12 1.424-60.239 1.706-90.359.861h-.053c-7.64-.213-15.273-.503-22.914-.861-35.109-1.653-63.21-29.602-65.008-64.711-1.326-25.77-1.432-51.548-.32-77.326v-.008c.335-8.029.8-16.058 1.379-24.087 5.568-26.448 27.362-64.057 57.809-77.311.899-.389 1.805-.777 2.72-1.15 12.318-5.05 25.983-8.593 40.51-10.284 6.368-.762 12.904-1.143 19.577-1.143 14.801 0 28.985 1.904 42.11 5.401v.008c41.089 10.924 71.795 52.402 78.506 84.571 0 .008 0 .015.008.023 2.43 33.769 2.781 67.538 1.051 101.306z" fill="#f1d0a5"/><path d="m222.567 300.625h-.053c-7.64-.213-15.273-.503-22.914-.861-35.109-1.653-63.21-29.602-65.008-64.711-1.737-33.799-1.379-67.613 1.059-101.42 5.568-26.448 27.362-49.057 57.809-62.311.899-.389 1.805-.777 2.719-1.15-2.087 50.9-2.582 124.638-1.516 166.321.823 32.039 12.531 58.168 27.904 64.132z" fill="#f1b986"/><path d="m298.376 64.146v.008c-20.232 34.698-68.74 80.312-88.043 69.419-7.061-3.992-6.14-12.211-2.156-21.055-.571.998-13.034 22.609-30.135 37.014-12.98 10.939-28.627 17.734-43.77 8.196v-.008c.335-8.029.8-16.058 1.379-24.087 5.568-26.448 27.362-49.057 57.809-62.311.899-.389 1.805-.777 2.72-1.15 12.318-5.05 25.983-8.593 40.51-10.284 6.368-.762 12.904-1.143 19.577-1.143 14.8.001 28.984 1.905 42.109 5.401z" fill="#665e66"/><path d="m178.042 149.531c-12.98 10.939-28.627 17.734-43.77 8.196v-.008c.335-8.029.8-16.058 1.379-24.087 5.568-26.448 27.362-49.057 57.809-62.311.899-.389 1.805-.777 2.72-1.15 12.318-5.05 25.983-8.593 40.51-10.284 6.368-.762 12.904-1.143 19.577-1.143-42.4 14.795-129.94 90.787-78.225 90.787z" fill="#454045"/><path d="m256.265 261.147c-13.575 0-26.108-7.926-31.93-20.192-1.83-3.855-.188-8.463 3.667-10.293 3.856-1.829 8.464-.187 10.293 3.667 3.277 6.904 10.33 11.365 17.97 11.365 7.639 0 14.692-4.461 17.969-11.365 1.829-3.855 6.439-5.496 10.293-3.667 3.855 1.83 5.497 6.438 3.667 10.293-5.821 12.266-18.354 20.192-31.929 20.192z" fill="#da4a54"/><g fill="#454045"><ellipse cx="199.488" cy="192.758" rx="11.104" ry="16.527"/><ellipse cx="313.042" cy="192.758" rx="11.104" ry="16.527"/></g><g><ellipse cx="180.271" cy="232.609" fill="#df9380" rx="20.772" ry="13.172"/><ellipse cx="332.259" cy="232.609" fill="#f9a58e" rx="20.772" ry="13.172"/></g><path d="m378.261 122.413c0 4.182-.396 8.311-1.173 12.34-8.242-42.948-59.188-76.008-120.821-76.008-6.673 0-13.216.381-19.577 1.143-13.605 1.577-26.448 4.784-38.133 9.339-1.722.663-3.42 1.364-5.096 2.095-30.858 13.437-52.843 36.48-58.03 63.393-.769-4.014-1.158-8.128-1.158-12.302 0-32.131 23.721-60.255 59.188-75.688 3.672-1.6 7.473-3.062 11.381-4.373 9.956-3.367 20.643-5.774 31.849-7.077 6.361-.762 12.904-1.135 19.577-1.135 67.376.001 121.993 39.521 121.993 88.273z" fill="#da4a54"/><path d="m204.841 42.353-6.284 26.875c-1.722.663-3.42 1.364-5.096 2.095-30.858 13.437-52.843 36.48-58.03 63.393-.769-4.014-1.158-8.128-1.158-12.302 0-32.131 23.721-60.255 59.188-75.688 3.671-1.601 7.472-3.063 11.38-4.373z" fill="#c32430"/></g><path d="m409.069 243.772-133.901 29.019-.002.001v-.003h-38.333v.002l-.002-.001-133.9-29.019c-13.656-2.966-26.568 7.448-26.568 21.419v161.203c0 10.318 7.2 19.244 17.28 21.428l143.189 31.031.002-.001v.001h38.333v-.001l.002.001 143.189-31.031c10.08-2.184 17.28-11.11 17.28-21.428v-161.202c-.001-13.971-12.913-24.385-26.569-21.419z" fill="#dfeaef"/><path d="m450.055 281.188v174.142c0 11.147-7.778 20.789-18.667 23.148l-154.681 33.522-19.965-5v-212.602l19.965-5 144.648-31.348c14.752-3.204 28.7 8.046 28.7 23.138z" fill="#80b4fb"/><path d="m256.742 294.398v212.602l-21.448 5-154.682-33.522c-10.889-2.359-18.667-12.002-18.667-23.148v-174.142c0-15.092 13.949-26.342 28.701-23.138l144.648 31.348z" fill="#5490f9"/><path d="m235.295 512v-222.603h41.41v222.603" fill="#bed8fb"/><path d="m328.93 348.285c-3.558 0-6.759-2.472-7.543-6.091-.904-4.17 1.744-8.284 5.914-9.188l85.556-18.543c4.174-.902 8.284 1.744 9.188 5.914s-1.744 8.284-5.914 9.188l-85.556 18.543c-.553.12-1.103.177-1.645.177z" fill="#454045"/><path d="m328.93 376.996c-3.558 0-6.759-2.472-7.543-6.091-.904-4.17 1.744-8.284 5.914-9.188l85.556-18.543c4.174-.903 8.284 1.744 9.188 5.914s-1.744 8.284-5.914 9.188l-85.556 18.543c-.553.12-1.103.177-1.645.177z" fill="#454045"/><g><g><path d="m57.695 365.329h-8.101c-11.963 0-21.66-9.698-21.66-21.66v-19.443c0-11.963 9.698-21.66 21.66-21.66h8.101c11.963 0 21.66 9.698 21.66 21.66v19.443c0 11.963-9.698 21.66-21.66 21.66z" fill="#f1d0a5"/><path d="m61.857 364.921c-1.339.278-2.74.412-4.162.412h-8.108c-11.96 0-21.654-9.704-21.654-21.665v-19.44c0-11.971 9.694-21.665 21.654-21.665h8.108c1.422 0 2.823.134 4.162.412-9.962 1.937-17.482 10.714-17.482 21.253v19.44c0 10.54 7.52 19.317 17.482 21.253z" fill="#f1b986"/></g><g><path d="m462.407 365.329h-8.101c-11.963 0-21.66-9.698-21.66-21.66v-19.443c0-11.963 9.698-21.66 21.66-21.66h8.101c11.963 0 21.66 9.698 21.66 21.66v19.443c0 11.963-9.698 21.66-21.66 21.66z" fill="#f1d0a5"/><path d="m466.569 364.921c-1.339.278-2.74.412-4.162.412h-8.108c-11.96 0-21.654-9.704-21.654-21.665v-19.44c0-11.971 9.694-21.665 21.654-21.665h8.108c1.422 0 2.823.134 4.162.412-9.962 1.937-17.482 10.714-17.482 21.253v19.44c0 10.54 7.52 19.317 17.482 21.253z" fill="#f1b986"/></g></g></g></svg>