<svg viewBox="0 0 64 64" xmlns="http://www.w3.org/2000/svg"><g><path d="M54.41 30.99C59.8 34.76 63 40.91 63 47.48c0 2.95-.84 5.84-2.43 8.33a15.411 15.411 0 0 1-5.62 5.27A15.46 15.46 0 0 1 47.48 63H43v-6h2v-6h-2v-6h1v-6H29v-6h-9.84c.75-.73 1.56-1.4 2.43-2.01L33 23h10z" fill="#89512b"></path><path d="M47.621 30.217c-2.029-1.609-4.123-3.071-5.661-4.101l4.737-.526L43 23H33l-11.41 7.99c-.87.61-1.68 1.28-2.43 2.01h5.521l4.461-2.872a24.59 24.59 0 0 1 9.724-3.642c.976.618 4.375 2.81 7.513 5.298a.997.997 0 0 0 1.404-.163.998.998 0 0 0-.162-1.404z" fill="#a06944"></path><path d="m44 45-1 .125V51h2v6h-2v6h4.48c2.66 0 5.22-.68 7.47-1.92 2.25-1.23 4.2-3.03 5.62-5.27a15.438 15.438 0 0 0 1.415-2.824C48.366 60.701 44 45 44 45z" fill="#673915"></path><path d="M31 45h13v-6H31z" fill="#f4971e"></path><path d="M29 45v6h14v-6H31z" fill="#ffbe1d"></path><path d="M31 57h14v-6H31z" fill="#f4971e"></path><path d="M31 57h12v6H31z" fill="#ffbe1d"></path><path d="M11 39h18v-6H11z" fill="#f4971e"></path><path d="M13 45h18v-6H13zM13 51h18v6H13z" fill="#ffbe1d"></path><path d="M13 57h18v6H13zM11 45h18v6H11z" fill="#f4971e"></path><path d="M1 45h10v6H1z" fill="#ffbe1d"></path><path d="M3 51h10v6H3z" fill="#f4971e"></path><path d="M1 57h12v6H1z" fill="#ffbe1d"></path><g fill="#fcb35b"><path d="M17 33h2v6h-2zM21 33h3v6h-3zM20 45h2v6h-2zM24 45h2v6h-2zM22 57h2v6h-2zM16 57h2v6h-2zM26 57h2v6h-2zM15 45h3v6h-3z" fill="#fcb35b"></path></g><path d="M24 39h2v6h-2zM19 39h3v6h-3zM18 51h2v6h-2zM22 51h3v6h-3z" fill="#ffd877"></path><path d="M31 39h4v6h-4z" fill="#d37e18"></path><path d="M7 45h4v6H7zM9 57h4v6H9z" fill="#e2a01e"></path><path d="M9 51h4v6H9z" fill="#d37e18"></path><path d="M29 45h4v6h-4z" fill="#e2a01e"></path><path d="M31 51h4v6h-4z" fill="#d37e18"></path><path d="M31 57h4v6h-4z" fill="#e2a01e"></path><path d="M20 13c0 3.317 2.683 6 6 6-1.663 0-3.154.669-4.243 1.757S20 23.337 20 25c0-1.663-.669-3.154-1.757-4.243S15.663 19 14 19c1.663 0 3.154-.669 4.243-1.757S20 14.663 20 13zM8.12 28.12a2.993 2.993 0 0 1-4.24 0 2.993 2.993 0 0 1 0-4.24 2.993 2.993 0 0 1 4.24 0 2.993 2.993 0 0 1 0 4.24z" fill="#f7e784"></path><circle cx="9" cy="11" fill="#f7e784" r="2"></circle><path d="M43 19.001H33a2 2 0 1 1 0-4h10a2 2 0 1 1 0 4zM43 23.001H33a2 2 0 1 1 0-4h10a2 2 0 1 1 0 4z" fill="#d39f66"></path><path d="M43 19.001h-4a2 2 0 1 1 0 4h4a2 2 0 1 0 0-4z" fill="#ba804a"></path><path d="M33 23h2a2 2 0 1 1 0-4h-2a2 2 0 1 0 0 4zM33 19h4a2 2 0 1 1 0-4h-4a2 2 0 1 0 0 4z" fill="#dcb285"></path><path d="M31.5 3.921c1.24 2.4 2.9 6.35 3.5 11.08h-2c-3-5-9-9-9-9 2.43-2.43 6.16-2.24 7.5-2.08z" fill="#673915"></path><path d="M31.5 3.921c-.85-1.64-1.5-2.57-1.5-2.57 5-1.38 5 1.75 8 1.75s3-3.13 8-1.75c0 0-.65.93-1.5 2.57-1.24 2.4-2.9 6.35-3.5 11.08h-6c-.6-4.73-2.26-8.68-3.5-11.08z" fill="#89512b"></path><path d="M38 6c2.765 0 2.991-3.414 6.925-2.869.63-1.14 1.075-1.78 1.075-1.78-5-1.38-5 1.75-8 1.75s-3-3.13-8-1.75c0 0 .445.64 1.075 1.78C35.009 2.586 35.235 6 38 6z" fill="#a06944"></path><path d="M52 6.001s-6 4-9 9h-2c.6-4.73 2.26-8.68 3.5-11.08 1.34-.16 5.07-.35 7.5 2.08z" fill="#673915"></path><path d="M5 39h8v6H5z" fill="#f4971e"></path><path d="M9 39h4v6H9z" fill="#d37e18"></path><circle cx="53.63" cy="45.37" fill="#673915" r="1.63"></circle><circle cx="54" cy="51" fill="#673915" r="2"></circle><path d="M43 15.001h-2a2 2 0 1 1 0 4h2a2 2 0 1 0 0-4z" fill="#ba804a"></path><path d="M39 15V9a1 1 0 1 0-2 0v6z" fill="#673915"></path></g></svg>