<svg viewBox="0 0 512 512" xmlns="http://www.w3.org/2000/svg"><g><g clip-rule="evenodd" fill-rule="evenodd"><path d="m165.443 486 181.115-.001a6.703 6.703 0 0 0 6.608-7.987c-8.715-45.725-48.903-80.291-97.166-80.291-48.264 0-88.451 34.566-97.167 80.292a6.705 6.705 0 0 0 6.61 7.987z" fill="#60b7ff"></path><path d="m165.443 486 181.115-.001a6.703 6.703 0 0 0 6.608-7.987c-8.715-45.725-48.903-80.291-97.166-80.291-2.235 0-4.452.075-6.65.221 45.267 3.005 82.204 36.462 90.516 80.07a6.704 6.704 0 0 1-6.608 7.987L165.439 486z" fill="#41a8fc"></path><circle cx="256.001" cy="337.705" fill="#f6dccd" r="50.016" transform="rotate(-67.48 256.119 337.652)"></circle><path d="M256.001 287.689c27.623 0 50.016 22.393 50.016 50.016 0 27.622-22.393 50.016-50.016 50.016-1.988 0-3.948-.12-5.875-.345 24.854-2.908 44.141-24.036 44.141-49.67s-19.287-46.762-44.141-49.671a50.413 50.413 0 0 1 5.875-.346z" fill="#f1cbbc"></path><path d="M322.761 299.959a7.966 7.966 0 0 1 7.937 13.813l-11.845 6.839a7.966 7.966 0 0 1-7.937-13.813zM248 229.808a8 8 0 0 1 16 0v39.109a8 8 0 0 1-16 0zm-66.73 83.965a7.981 7.981 0 0 1 8-13.812l11.845 6.839a7.981 7.981 0 0 1-8 13.812z" fill="#a79ba7"></path><circle cx="103.5" cy="239.939" fill="#ffd064" r="87.5" transform="rotate(-45 103.464 239.976)"></circle><path d="M99.81 152.515c46.614 1.934 83.811 40.335 83.811 87.424s-37.197 85.49-83.811 87.424c1.223.051 2.453.076 3.689.076 48.325 0 87.5-39.175 87.5-87.5s-39.175-87.5-87.5-87.5a86.887 86.887 0 0 0-3.689.076z" fill="#f5b829"></path><circle cx="103.5" cy="239.938" fill="#ffc338" r="65" transform="rotate(-45 103.464 239.976)"></circle><path d="M46.253 239.939c0-34.597 27.029-62.881 61.123-64.886a65.51 65.51 0 0 0-3.876-.114c-35.898 0-65 29.101-65 65 0 35.898 29.101 65 65 65a65.51 65.51 0 0 0 3.876-.114c-34.094-2.006-61.123-30.29-61.123-64.886z" fill="#f5b829"></path><path d="M128.615 218.539a7.999 7.999 0 0 1-14.75 6.188c-1.405-3.347-4.069-5.277-6.994-6.019a13.355 13.355 0 0 0-5.876-.149c-1.79.36-3.422 1.076-4.679 2.098-1.386 1.127-2.266 2.742-2.169 4.733.082 1.687.996 2.866 2.271 3.698 2.204 1.438 5.371 2.259 8.418 2.759 4.989.819 10.456 2.198 15.097 5.001 5.574 3.365 9.78 8.44 10.729 16.259.067.555.111 1.269.132 2.134.173 7.242-3.115 12.627-8.058 16.378-3.264 2.476-7.225 4.13-11.236 5.046v1.405a8 8 0 0 1-16 0v-1.57c-3.127-.807-6.1-2.089-8.739-3.847-4.945-3.293-8.736-8.159-10.342-14.599a7.981 7.981 0 0 1 15.5-3.812c.555 2.226 1.896 3.928 3.654 5.099 2.352 1.566 5.405 2.312 8.527 2.238a21.176 21.176 0 0 0 1.95-.165c2.67-.324 5.285-1.134 7.062-2.481 1.068-.81 1.78-1.911 1.746-3.316v-.031l-.07-.603c-.25-2.057-1.472-3.461-3.104-4.447-2.564-1.548-6.084-2.392-9.41-2.938-4.854-.797-10.147-2.264-14.543-5.134-5.324-3.475-9.148-8.627-9.521-16.323-.368-7.589 2.896-13.671 8.044-17.858 2.663-2.165 5.839-3.775 9.246-4.766v-1.708a8 8 0 0 1 16 0v1.603c7.186 2.029 13.66 6.9 17.115 15.127z" fill="#ffe177"></path><circle cx="408.5" cy="239.938" fill="#fe646f" r="87.5" transform="rotate(-45 408.487 240.03)"></circle><path d="M408.5 152.438c48.325 0 87.5 39.175 87.5 87.5s-39.175 87.5-87.5 87.5c-1.679 0-3.345-.052-5-.145 45.998-2.592 82.5-40.708 82.5-87.355 0-46.646-36.502-84.762-82.5-87.355a90.03 90.03 0 0 1 5-.145z" fill="#fd4755"></path><path d="M394.087 189.631h28.827a2.833 2.833 0 0 1 2.825 2.825V222.7h30.244a2.833 2.833 0 0 1 2.825 2.825v28.827a2.833 2.833 0 0 1-2.825 2.825h-30.244v30.244a2.833 2.833 0 0 1-2.825 2.825h-28.827a2.833 2.833 0 0 1-2.825-2.825v-30.244h-30.245a2.833 2.833 0 0 1-2.825-2.825v-28.827a2.833 2.833 0 0 1 2.825-2.825h30.245v-30.245a2.833 2.833 0 0 1 2.825-2.824z" fill="#eceff1"></path><path d="M394.087 189.631h3.14V222.7h-5.965v-30.245a2.833 2.833 0 0 1 2.825-2.824zm64.721 61.398v3.323a2.834 2.834 0 0 1-2.825 2.825h-30.244v-6.148zm-33.069 33.069h-25.688a2.833 2.833 0 0 1-2.825-2.825v-30.244h-30.244a2.833 2.833 0 0 1-2.825-2.825V222.7h-3.14a2.833 2.833 0 0 0-2.825 2.825v28.827a2.833 2.833 0 0 0 2.825 2.825h30.245v30.244a2.833 2.833 0 0 0 2.825 2.825h28.827a2.833 2.833 0 0 0 2.825-2.825z" fill="#d1d1d6"></path><circle cx="256" cy="113.5" fill="#8ac9fe" r="87.5"></circle><path d="M256 26.001c48.325 0 87.5 39.175 87.5 87.5s-39.175 87.5-87.5 87.5c-1.679 0-3.345-.052-5-.145 45.997-2.592 82.5-40.709 82.5-87.355S296.997 28.738 251 26.146a89.069 89.069 0 0 1 5-.145z" fill="#60b7ff"></path><path d="M219.181 95.242h73.638v61.61c0 3.3-2.7 6-6 6H225.18c-3.3 0-6-2.7-6-6v-61.61z" fill="#eceff1"></path><path d="M285.596 95.242h7.224v61.61c0 3.3-2.7 6-6 6h-7.223c3.3 0 6-2.7 6-6v-61.61z" fill="#d1d1d6"></path><path d="M247.662 132.735h16.676c2.2 0 4 1.8 4 4v26.117h-24.676v-26.117c0-2.201 1.8-4 4-4z" fill="#d8ecfe"></path><path d="M247.662 132.735h4.605c-2.2 0-4 1.8-4 4v26.117h-4.605v-26.117c0-2.201 1.8-4 4-4z" fill="#c4e2ff"></path><path d="m306.65 99.485-48.362-33.739a3.937 3.937 0 0 0-4.577 0L205.35 99.485c-.801.558-.405 1.818.571 1.82H306.08c.975-.002 1.371-1.262.57-1.82z" fill="#fe646f"></path><path d="m306.65 99.485-48.362-33.739a3.937 3.937 0 0 0-4.577 0l-.653.456 47.708 33.283c.801.558.405 1.818-.571 1.82h5.884c.976-.002 1.372-1.262.571-1.82z" fill="#fd4755"></path></g></g></svg>