<svg viewBox="0 0 512 512" xmlns="http://www.w3.org/2000/svg"><g><path d="M333.01 464.61V502c0 5.52-4.48 10-10 10H222.7l-28.1-6.46-28.1 6.46H10c-5.52 0-10-4.48-10-10v-37.39c0-11.71 2.44-22.96 6.9-33.19v.03l67.33-50.4h.01l50.64-12.66h83.25l61.82 15.45c37.06 9.27 63.06 42.57 63.06 80.77z" fill="#4172ca"></path><path d="M210.092 496.501a7.5 7.5 0 0 1-7.5-7.5v-23.029c0-4.143 3.358-7.5 7.5-7.5s7.5 3.357 7.5 7.5v23.029a7.5 7.5 0 0 1-7.5 7.5zM178.57 496.501a7.5 7.5 0 0 1-7.5-7.5v-23.029c0-4.143 3.358-7.5 7.5-7.5s7.5 3.357 7.5 7.5v23.029a7.5 7.5 0 0 1-7.5 7.5z" fill="#e6f7fe"></path><path d="M222.699 512h-56.195v-22.894c0-5.747 4.659-10.406 10.407-10.406h35.382c5.747 0 10.407 4.659 10.407 10.406V512z" fill="#66b394"></path><path d="m269.948 383.845-24.457-6.114c27.67 13.887 45.891 42.418 45.891 74.393V512h31.626c5.523 0 10-4.477 10-10v-37.389c0-38.202-25.999-71.501-63.06-80.766z" fill="#3a67c1"></path><path d="M166.504 410.016c-22.989 0-41.626-18.636-41.626-41.626v-47.87h83.252v47.87c0 22.99-18.637 41.626-41.626 41.626z" fill="#ffbd86"></path><path d="M62.439 131.122v94.699c0 57.474 46.592 104.065 104.065 104.065s104.065-46.591 104.065-104.065v-94.699z" fill="#fed2a4"></path><path d="M166.504 0c-28.002 0-53.85 9.217-74.679 24.781-.033.017-.067.029-.099.046-.695.348-17.286 8.414-41.798-1.379a7.728 7.728 0 0 0-5.733 14.35c10.271 4.105 19.559 5.654 27.45 5.869C59.68 57.629 50.748 74.263 45.86 92.551l-.058-.027c-.438.892-4.58 8.703-14.731 7.838a7.726 7.726 0 1 0-1.293 15.398c1.02.086 2.009.127 2.97.127 3.478 0 6.571-.539 9.313-1.417a126.633 126.633 0 0 0-.435 10.408v41.626h18.753a2.06 2.06 0 0 1 2.06 2.06v57.257c0 21.215 6.354 40.943 17.255 57.397a20.707 20.707 0 0 0-3.468 11.495c0 10.524 7.819 19.201 17.96 20.595a16.84 16.84 0 0 0-.213 5.385c.901 7.499 6.94 13.552 14.435 14.476a16.571 16.571 0 0 0 12.082-3.223c2.766 5.36 8.346 9.032 14.794 9.032 3.782 0 7.257-1.275 10.053-3.4 4.417 7.04 12.243 11.725 21.167 11.725s16.751-4.684 21.167-11.725a16.556 16.556 0 0 0 10.053 3.4c6.448 0 12.028-3.671 14.794-9.032a16.567 16.567 0 0 0 12.082 3.223c7.495-.924 13.534-6.978 14.435-14.476a16.841 16.841 0 0 0-.213-5.385c10.141-1.394 17.96-10.071 17.96-20.595 0-4.251-1.281-8.201-3.469-11.495 10.901-16.454 17.255-36.182 17.255-57.397v-57.257a2.06 2.06 0 0 1 2.06-2.06h18.753v-41.626C291.382 55.91 235.472 0 166.504 0zm72.846 225.821a72.416 72.416 0 0 1-12.32 40.485c-2.922-4.8-8.187-8.016-14.217-8.016a16.58 16.58 0 0 0-5.705 1.024c-3.05-10.349-12.617-17.905-23.954-17.905a24.874 24.874 0 0 0-16.65 6.365 24.879 24.879 0 0 0-16.65-6.365c-11.337 0-20.904 7.556-23.954 17.905a16.576 16.576 0 0 0-5.705-1.024c-6.03 0-11.295 3.216-14.217 8.016a72.424 72.424 0 0 1-12.32-40.485v-61.398c0-15.261 13.195-19.865 21.156-21.254 2.716-.474 5.146 1.85 4.761 4.58-1.426 10.098 1.977 18.621 5.283 24.201 1.778 3.002 6.206 2.529 7.422-.741 6.133-16.485 19.345-24.655 27.441-28.263 2.797-1.247 5.986.843 5.823 3.901-.497 9.319 3.03 17.216 6.449 22.574 1.97 3.088 6.627 2.309 7.504-1.247 7.314-29.663 31.94-35.579 41.471-36.759a5.047 5.047 0 0 1 5.248 2.989l12.269 28.044c.57 1.302.864 2.708.864 4.129v59.244z" fill="#c7865b"></path><path d="M236.222 21.26c10.71 30.807 5.767 71.912-15.289 110.161l.072-.009c2.206-.271 4.321.957 5.212 2.992l12.269 28.044c.57 1.302.864 2.708.864 4.129v59.243a72.416 72.416 0 0 1-12.32 40.485 16.766 16.766 0 0 0-6.094-5.888c-7.644 13.804-17.647 27.2-29.898 39.45-18.74 18.74-40.158 32.226-61.623 40.039a16.553 16.553 0 0 0 5.868 1.071c3.782 0 7.257-1.275 10.053-3.4 4.417 7.041 12.243 11.725 21.167 11.725s16.751-4.684 21.167-11.725a16.556 16.556 0 0 0 10.053 3.4c6.448 0 12.028-3.671 14.794-9.032a16.567 16.567 0 0 0 12.082 3.223c7.496-.924 13.534-6.978 14.435-14.476a16.841 16.841 0 0 0-.213-5.385c10.141-1.394 17.96-10.071 17.96-20.595 0-4.251-1.281-8.201-3.468-11.495 10.901-16.454 17.255-36.182 17.255-57.397v-57.257a2.06 2.06 0 0 1 2.06-2.06h18.753v-41.626c.001-43.148-21.884-81.185-55.159-103.617z" fill="#b36d3c"></path><path d="M280.976 225.821h-10.407v-58.318a4.121 4.121 0 0 1 4.121-4.121h6.286c17.242 0 31.219 13.977 31.219 31.219 0 17.243-13.977 31.22-31.219 31.22zM52.032 225.821h10.407v-58.318a4.121 4.121 0 0 0-4.121-4.121h-6.286c-17.242 0-31.219 13.977-31.219 31.219 0 17.243 13.977 31.22 31.219 31.22z" fill="#fed2a4"></path><path d="M101.875 431.426a7.477 7.477 0 0 1-5.303-2.196L78.92 411.578a7.5 7.5 0 0 1 10.606-10.607l17.651 17.651a7.5 7.5 0 0 1-5.302 12.804zM79.383 453.917a7.477 7.477 0 0 1-5.303-2.196L56.429 434.07a7.5 7.5 0 0 1 10.606-10.607l17.651 17.651a7.5 7.5 0 0 1-5.303 12.803zM57.094 476.207a7.474 7.474 0 0 1-5.303-2.197L34.14 456.357a7.5 7.5 0 1 1 10.606-10.605l17.651 17.652a7.5 7.5 0 0 1 0 10.606 7.472 7.472 0 0 1-5.303 2.197z" fill="#e6f7fe"></path><path d="m6.897 431.446 27.371 27.371c4.064 4.064 10.653 4.064 14.717 0l44.151-44.151c4.064-4.064 4.064-10.653 0-14.717L74.238 381.05l-11.177 2.794c-25.711 6.428-46.088 24.428-56.164 47.602z" fill="#66b394"></path><circle cx="367.533" cy="290.083" fill="#b2e5fb" r="20.813"></circle><circle cx="309.808" cy="327.547" fill="#91dafa" r="16.65"></circle><path d="M512 120.715C512 54.046 457.954 0 391.285 0S270.569 54.046 270.569 120.715c0 44.976 24.599 84.203 61.074 104.971a20.79 20.79 0 0 0-.717 5.338c0 11.495 9.318 20.813 20.813 20.813 2.642 0 5.159-.512 7.484-1.41 3.926 14.019 16.788 24.304 32.061 24.304s28.134-10.285 32.061-24.304a20.714 20.714 0 0 0 7.484 1.41c11.495 0 20.813-9.318 20.813-20.813 0-1.849-.264-3.631-.717-5.338C487.401 204.918 512 165.691 512 120.715z" fill="#e6f7fe"></path><path d="M512 120.715c0-32.372-12.744-61.765-33.486-83.443 6.478 43.198-12.594 96.023-53.94 137.368-27.998 27.998-61.26 45.78-93.232 52.334a20.31 20.31 0 0 0-.415 4.049c0 11.495 9.318 20.813 20.813 20.813 2.642 0 5.159-.512 7.484-1.41 3.926 14.019 16.788 24.304 32.061 24.304s28.134-10.285 32.061-24.304a20.714 20.714 0 0 0 7.484 1.41c11.495 0 20.813-9.318 20.813-20.813 0-1.849-.264-3.631-.717-5.338C487.401 204.918 512 165.691 512 120.715z" fill="#d3effd"></path><circle cx="391.285" cy="120.715" fill="#ffe07d" r="87.415"></circle><path d="M71.805 488.993a7.5 7.5 0 0 0-7.5 7.5V512h15v-15.507a7.5 7.5 0 0 0-7.5-7.5zM261.203 488.993a7.5 7.5 0 0 0-7.5 7.5V512h15v-15.507a7.5 7.5 0 0 0-7.5-7.5z" fill="#26447e"></path><path d="M181.219 292.639a7.478 7.478 0 0 1-5.304-2.197c-2.516-2.516-5.858-3.901-9.411-3.901s-6.896 1.386-9.412 3.902a7.501 7.501 0 0 1-10.606-10.607c5.349-5.349 12.458-8.295 20.018-8.295s14.669 2.946 20.019 8.296a7.5 7.5 0 0 1-5.304 12.802z" fill="#fed2a4"></path><path d="M401.849 113.264c-1.053-.4-2.069-.795-3.064-1.188v-21.72c3.29 1.037 5.391 2.358 5.514 2.437a7.5 7.5 0 0 0 8.365-12.451c-.349-.236-5.756-3.823-13.879-5.444v-3.279c0-4.143-3.358-7.5-7.5-7.5s-7.5 3.357-7.5 7.5v3.18c-.459.089-.921.184-1.386.292-9.854 2.294-16.974 9.721-18.582 19.384-1.477 8.87 2.104 17.437 9.123 21.823 2.932 1.832 6.563 3.739 10.845 5.704v28.182c-3.353-.828-6.885-2.204-9.369-4.191a7.501 7.501 0 0 0-9.371 11.713c5.189 4.151 12.383 6.678 18.74 7.784v4.321c0 4.143 3.358 7.5 7.5 7.5s7.5-3.357 7.5-7.5v-4.592c11.16-2.684 19.616-10.944 21.626-21.898 2.726-14.858-7.358-25.802-18.562-30.057zm-20.959-9.686c-1.833-1.145-2.747-3.813-2.277-6.64.251-1.509 1.252-4.855 5.171-6.572v14.887a58.996 58.996 0 0 1-2.894-1.675zm24.767 37.036c-.621 3.388-2.923 6.786-6.873 8.775v-21.087c5.26 2.752 7.807 7.224 6.873 12.312z" fill="#ffc250"></path></g></svg>