<svg viewBox="0 0 512 512" xmlns="http://www.w3.org/2000/svg"><g><path d="M255.999 168.405c-27.971 0-50.646-22.675-50.646-50.646v-34.47c0-27.971 22.675-50.646 50.646-50.646s50.646 22.675 50.646 50.646v34.47c0 27.971-22.675 50.646-50.646 50.646z" fill="#fccd7f"></path><path d="M438.88 442.816c-6.21-2.708-12.76-4.598-19.287-6.364-31.39-8.495-62.072-17.685-90.259-35.829-13.497-8.688-21.82-23.507-22.355-39.55-1.547-46.328 13.797-110.53 13.797-110.53l23.466 57.021a126.312 126.312 0 0 0 24.399 38.043l47.333 47.258c7.031 7.02 18.477 6.824 25.264-.431 6.332-6.769 6.327-17.286-.018-24.043-13.67-14.557-36.069-38.804-46.059-51.851-15.504-20.248-27.451-42.987-35.224-67.276-2.928-9.15-5.636-18.316-7.909-26.324-4.023-14.172-15.209-24.84-29.257-29.277-7.236-2.285-55.127-18.134-55.127-18.134h-23.291s-47.891 15.849-55.127 18.134c-14.048 4.436-25.234 15.105-29.257 29.277-2.273 8.007-4.981 17.174-7.909 26.324-7.773 24.289-19.72 47.027-35.224 67.276-9.99 13.047-32.389 37.294-46.059 51.851-6.345 6.757-6.35 17.274-.018 24.043 6.787 7.255 18.233 7.45 25.264.431l47.333-47.258a126.324 126.324 0 0 0 24.399-38.043l23.466-57.021s15.344 64.202 13.797 110.53c-.535 16.043-8.858 30.862-22.355 39.55-28.187 18.143-58.869 27.334-90.259 35.829-6.527 1.766-13.077 3.656-19.287 6.364-15.997 6.977-28.172 22.524-24.829 40.441 2.965 15.894 18.36 28.738 34.765 28.738h345.893c16.405 0 31.8-12.844 34.765-28.738 3.341-17.916-8.834-33.464-24.831-40.441z" fill="#fddeb0"></path><path d="M306.644 83.286v34.467c0 27.98-22.675 50.655-50.645 50.655-3.506 0-6.942-.354-10.246-1.041 23.059-4.739 40.399-25.151 40.399-49.614V83.286c0-13.985-5.669-26.646-14.834-35.811-6.861-6.861-15.693-11.772-25.565-13.793a50.354 50.354 0 0 1 10.246-1.041c13.985 0 26.646 5.669 35.811 14.834s14.834 21.826 14.834 35.811z" fill="#fbc56d"></path><path d="M297.287 193.922c-9.539-6.699-19.583-12.591-29.678-18.391h.03s47.897 15.844 55.132 18.138c14.046 4.436 25.232 15.097 29.253 29.273 2.274 8.003 4.982 17.168 7.912 26.323 7.771 24.292 19.725 47.028 35.225 67.278 9.994 13.045 32.386 37.297 46.058 51.848a17.561 17.561 0 0 1 .02 24.039c-5.548 5.921-14.187 7.144-21.008 3.567 5.436-6.77 5.143-16.592-.889-23.019-13.672-14.551-36.074-38.802-46.068-51.848-8.508-11.125-15.824-26.818-22.13-39.399-6.427-12.833-9.63-26.202-13.742-39.873-2.405-8.003-5.335-15.996-10.408-22.746-7.871-10.467-19.118-17.763-29.707-25.19z" fill="#fdd79b"></path><path d="M463.712 483.262c-2.971 15.895-18.36 28.738-34.77 28.738h-20.493c16.4 0 31.476-12.914 34.76-28.738 3.648-17.582-10.206-24.08-24.767-28.485-4.961-1.495-9.893-2.738-14.864-4.335-11.014-3.557-22.281-6.315-33.144-10.327-15.662-5.78-30.991-12.52-45.633-20.553-12.399-6.811-22.736-13.136-30.759-24.979-6.356-9.397-7.195-22.513-7.558-33.507-1.252-37.518 10.391-94.584 14.866-114.935.799-3.634 5.008-5.312 8.094-3.234l11.336 7.633s-15.349 64.206-13.803 110.536c.536 16.036 8.862 30.86 22.362 39.55 28.182 18.138 58.86 27.333 90.256 35.832 6.528 1.758 13.076 3.648 19.29 6.356 15.996 6.981 28.172 22.522 24.827 40.448z" fill="#fdd79b"></path><circle cx="255.999" cy="18.951" fill="#fe7ab6" r="18.951"></circle><circle cx="255.999" cy="93.68" fill="#6c7fd8" r="18.951"></circle><circle cx="255.999" cy="168.409" fill="#60b7ff" r="18.951"></circle><circle cx="255.999" cy="243.138" fill="#00c27a" r="18.951"></circle><circle cx="255.999" cy="317.867" fill="#ffc344" r="18.951"></circle><circle cx="255.999" cy="392.596" fill="#fe7701" r="18.951"></circle><circle cx="255.999" cy="467.326" fill="#fd4755" r="18.951"></circle><path d="M274.945 18.948c0 10.473-8.483 18.956-18.946 18.956-6.391 0-12.04-3.165-15.462-8.009 10.277-.206 18.554-8.607 18.554-18.946 0-4.082-1.289-7.844-3.484-10.937.134-.01.258-.01.392-.01 10.462 0 18.946 8.484 18.946 18.946z" fill="#fe5ca7"></path><path d="M274.945 93.681c0 10.463-8.483 18.946-18.946 18.946-6.381 0-12.029-3.154-15.462-7.999 10.277-.206 18.554-8.618 18.554-18.946 0-4.082-1.289-7.855-3.484-10.947.134-.01.258-.01.392-.01 10.462 0 18.946 8.494 18.946 18.956z" fill="#4f66d0"></path><path d="M274.945 168.404c0 10.473-8.483 18.956-18.946 18.956-6.391 0-12.04-3.165-15.462-8.009 10.277-.206 18.554-8.607 18.554-18.936 0-4.082-1.289-7.855-3.484-10.947.134-.01.258-.01.392-.01 10.462 0 18.946 8.483 18.946 18.946z" fill="#26a6fe"></path><path d="M274.945 243.137c0 10.463-8.483 18.956-18.946 18.956-6.381 0-12.029-3.164-15.462-8.009 10.277-.206 18.554-8.607 18.554-18.946a18.83 18.83 0 0 0-3.484-10.937c.134-.01.258-.01.392-.01 10.462 0 18.946 8.483 18.946 18.946z" fill="#08b865"></path><path d="M274.945 317.87c0 10.463-8.483 18.946-18.946 18.946-6.391 0-12.04-3.165-15.462-8.009 10.277-.206 18.554-8.607 18.554-18.936 0-4.072-1.289-7.855-3.484-10.947.134-.01.258-.01.392-.01 10.462-.001 18.946 8.483 18.946 18.956z" fill="#feb237"></path><path d="M274.945 392.592c0 10.473-8.483 18.956-18.946 18.956-6.391 0-12.04-3.165-15.462-8.009 10.277-.206 18.554-8.607 18.554-18.936 0-4.082-1.289-7.855-3.484-10.947.134-.01.258-.01.392-.01 10.462 0 18.946 8.484 18.946 18.946z" fill="#f46700"></path><path d="M274.945 467.325c0 10.463-8.483 18.946-18.946 18.946-6.381 0-12.029-3.154-15.462-7.999 10.277-.206 18.554-8.607 18.554-18.946 0-4.082-1.289-7.844-3.484-10.937.134-.01.258-.01.392-.01 10.462 0 18.946 8.484 18.946 18.946z" fill="#fb2b3a"></path></g></svg>