<svg viewBox="0 0 512 512" xmlns="http://www.w3.org/2000/svg"><g><path d="M506.852 30h-91.637v22.188c0 4.25-3.469 7.71-7.735 7.71H155.89c-4.597 0-11.89-1.859-15.921-4.054L99.426 33.746c-1.68-.914-2.64-2.117-2.64-3.3 0-.145.015-.298.042-.446H5.148C2.316 30 0 32.32 0 35.152v422.883c0 2.832 2.316 5.153 5.148 5.153h501.704c2.832 0 5.148-2.32 5.148-5.153V35.152c0-2.832-2.316-5.152-5.148-5.152zm0 0" fill="#e6e9ed"></path><path d="M314.41 363.535c0 32.617-26.156 59.059-58.418 59.059-32.27 0-58.43-26.442-58.43-59.059 0-32.62 26.16-59.058 58.43-59.058 32.262 0 58.418 26.437 58.418 59.058zm0 0" fill="#ffc502"></path><g fill="#775436"><path d="M231.113 362.273c-4.14 0-7.5-3.359-7.5-7.5v-6.082a7.5 7.5 0 1 1 15 0v6.082a7.5 7.5 0 0 1-7.5 7.5zM280.86 362.273c-4.141 0-7.5-3.359-7.5-7.5v-6.082a7.5 7.5 0 1 1 15 0v6.082a7.5 7.5 0 0 1-7.5 7.5zM273.113 390.215H238.86a7.5 7.5 0 1 1 0-15h34.254a7.5 7.5 0 0 1 7.5 7.5c0 4.144-3.355 7.5-7.5 7.5zm0 0" fill="#775436"></path></g><path d="M167.566 363.535c0 32.617-26.16 59.059-58.421 59.059-32.27 0-58.43-26.442-58.43-59.059 0-32.62 26.16-59.058 58.43-59.058 32.261 0 58.421 26.437 58.421 59.058zm0 0" fill="#89c947"></path><path d="M84.27 362.273c-4.141 0-7.5-3.359-7.5-7.5v-6.082a7.5 7.5 0 1 1 15 0v6.082a7.5 7.5 0 0 1-7.5 7.5zM134.016 362.273a7.5 7.5 0 0 1-7.5-7.5v-6.082c0-4.14 3.355-7.5 7.5-7.5s7.5 3.36 7.5 7.5v6.082c0 4.141-3.36 7.5-7.5 7.5zM109.145 401.91c-14.395 0-26.106-10.879-26.106-24.254a7.5 7.5 0 1 1 15 0c0 5.102 4.984 9.254 11.106 9.254 6.12 0 11.101-4.152 11.101-9.254a7.5 7.5 0 0 1 7.5-7.5 7.5 7.5 0 0 1 7.5 7.5c0 13.375-11.71 24.254-26.101 24.254zm0 0" fill="#368c0e"></path><path d="M461.281 363.535c0 32.617-26.16 59.059-58.426 59.059-32.261 0-58.421-26.442-58.421-59.059 0-32.62 26.16-59.058 58.421-59.058 32.266 0 58.426 26.437 58.426 59.058zm0 0" fill="#fb8276"></path><path d="M377.984 362.273a7.5 7.5 0 0 1-7.5-7.5v-6.082a7.5 7.5 0 1 1 15 0v6.082a7.5 7.5 0 0 1-7.5 7.5zM427.734 362.273a7.5 7.5 0 0 1-7.5-7.5v-6.082a7.5 7.5 0 1 1 15 0v6.082a7.5 7.5 0 0 1-7.5 7.5zM421.465 398.605a7.5 7.5 0 0 1-7.5-7.5c0-5.101-4.985-9.25-11.11-9.25-6.12 0-11.097 4.149-11.097 9.25a7.5 7.5 0 1 1-15 0c0-13.37 11.707-24.25 26.097-24.25 14.399 0 26.11 10.88 26.11 24.25 0 4.141-3.36 7.5-7.5 7.5zm0 0" fill="#c0272d"></path><path d="M88.766 143.004a9.503 9.503 0 0 1-6.79 2.824 9.506 9.506 0 0 1-6.796-2.832l-9.543-9.629a6.446 6.446 0 0 1-1.883-4.601 6.453 6.453 0 0 1 1.922-4.59 6.462 6.462 0 0 1 4.574-1.883c1.746 0 3.387.684 4.617 1.926l7.11 7.168 27.507-27.719a3.075 3.075 0 0 0-2.113-.852H53.805a3.1 3.1 0 0 0-3.09 3.09v53.813a3.1 3.1 0 0 0 3.09 3.09h53.566a3.1 3.1 0 0 0 3.09-3.09v-38.582zm0 0" fill="#fcdb67"></path><path d="M81.977 146.828c-.004 0-.004 0 0 0a10.47 10.47 0 0 1-7.504-3.129l-9.547-9.625a7.5 7.5 0 0 1 .047-10.605 7.497 7.497 0 0 1 10.605.043l6.399 6.457 28.453-28.672a7.497 7.497 0 1 1 10.644 10.562l-31.601 31.848a10.49 10.49 0 0 1-7.496 3.121zm0 0" fill="#ef5050"></path><path d="M234.527 127.656H142.47a7.5 7.5 0 1 1 0-15h92.058c4.145 0 7.5 3.356 7.5 7.5a7.5 7.5 0 0 1-7.5 7.5zM194.895 152.969h-52.422a7.497 7.497 0 0 1-7.5-7.5 7.5 7.5 0 0 1 7.5-7.5h52.422a7.5 7.5 0 1 1 0 15zm0 0" fill="#9ea7af"></path><path d="M110.46 257.895a3.1 3.1 0 0 1-3.089 3.093H53.805a3.1 3.1 0 0 1-3.09-3.093v-53.81c0-1.698 1.39-3.093 3.09-3.093h53.566c1.7 0 3.09 1.395 3.09 3.094zm0 0" fill="#fcdb67"></path><path d="M234.527 225.836H142.47a7.5 7.5 0 1 1 0-15h92.058c4.145 0 7.5 3.355 7.5 7.5a7.5 7.5 0 0 1-7.5 7.5zM194.895 251.148h-52.422a7.497 7.497 0 0 1-7.5-7.5 7.5 7.5 0 0 1 7.5-7.5h52.422c4.14 0 7.5 3.36 7.5 7.5 0 4.141-3.36 7.5-7.5 7.5zm0 0" fill="#9ea7af"></path><path d="M337.219 159.719a3.1 3.1 0 0 1-3.09 3.09h-53.567a3.1 3.1 0 0 1-3.093-3.09v-53.813a3.1 3.1 0 0 1 3.094-3.09h53.566a3.1 3.1 0 0 1 3.09 3.09zm0 0" fill="#fcdb67"></path><path d="M461.281 127.656h-92.054a7.5 7.5 0 0 1-7.5-7.5c0-4.144 3.355-7.5 7.5-7.5h92.054c4.145 0 7.5 3.356 7.5 7.5a7.5 7.5 0 0 1-7.5 7.5zM421.648 152.969h-52.421a7.497 7.497 0 0 1-7.5-7.5 7.5 7.5 0 0 1 7.5-7.5h52.421a7.5 7.5 0 1 1 0 15zm0 0" fill="#9ea7af"></path><path d="M337.219 257.895a3.1 3.1 0 0 1-3.09 3.093h-53.567a3.1 3.1 0 0 1-3.093-3.093v-53.81c0-1.698 1.39-3.093 3.094-3.093h53.566c1.7 0 3.09 1.395 3.09 3.094zm0 0" fill="#fcdb67"></path><path d="M461.281 225.836h-92.054a7.5 7.5 0 0 1-7.5-7.5c0-4.145 3.355-7.5 7.5-7.5h92.054c4.145 0 7.5 3.355 7.5 7.5a7.5 7.5 0 0 1-7.5 7.5zM421.648 251.148h-52.421a7.497 7.497 0 0 1-7.5-7.5 7.5 7.5 0 0 1 7.5-7.5h52.421c4.141 0 7.5 3.36 7.5 7.5 0 4.141-3.359 7.5-7.5 7.5zm0 0" fill="#9ea7af"></path><path d="M407.48 0c4.805 0 8.735 3.918 8.735 8.71v43.477c0 4.79-3.93 8.711-8.735 8.711H155.89c-4.804 0-12.187-1.882-16.402-4.18L98.945 34.626c-4.215-2.3-4.215-6.059 0-8.355l40.543-22.09C143.703 1.883 151.086 0 155.891 0zm0 0" fill="#ffc502"></path><path d="M159.41 0h-3.52c-4.804 0-12.187 1.883-16.402 4.18L98.945 26.27c-4.215 2.3-4.215 6.058 0 8.355l40.543 22.094c4.215 2.297 11.598 4.18 16.403 4.18h3.52zm0 0" fill="#ffd5b3"></path><path d="M126.195 11.422 98.945 26.27c-4.215 2.3-4.215 6.058 0 8.355l27.25 14.852zm0 0" fill="#775436"></path><path d="M416.215 52.188V8.71c0-4.793-3.93-8.711-8.735-8.711h-41.925v60.895h41.925c4.805.003 8.735-3.918 8.735-8.708zm0 0" fill="#fb8276"></path><path d="M159.41 22.95h206.145v15H159.41zm0 0" fill="#c6a07d"></path></g></svg>