<svg viewBox="0 0 64 64" xmlns="http://www.w3.org/2000/svg"><g><path d="M56.448 23.136a11.914 11.914 0 0 1-3.97.84A21.863 21.863 0 0 1 54 32c0 12.131-9.869 22-22 22s-22-9.869-22-22 9.869-22 22-22c.675 0 1.341.035 2 .096V12l6-4-6-4v2.088A25.938 25.938 0 0 0 32 6C17.641 6 6 17.641 6 32s11.641 26 26 26 26-11.641 26-26c0-3.113-.549-6.098-1.552-8.864z" fill="#64c8f0"></path><path d="M8 32C8 18.066 18.961 6.694 32.731 6.032 32.487 6.023 32.246 6 32 6 17.641 6 6 17.641 6 32s11.641 26 26 26c.335 0 .668-.013 1-.025C19.105 57.448 8 46.024 8 32z" fill="#46aad2"></path><circle cx="52" cy="12" fill="#fa6450" r="10"></circle><path d="M44 12c0-5.177 3.954-9.446 9-9.949A10.007 10.007 0 0 0 52 2c-5.514 0-10 4.486-10 10s4.486 10 10 10c.338 0 .671-.018 1-.051-5.046-.503-9-4.772-9-9.949z" fill="#dc4632"></path><path d="M52 20a8 8 0 1 0 0-16 8 8 0 0 0 0 16z" fill="#fa6450"></path><circle cx="52" cy="12" fill="#f0f0f0" r="8"></circle><path d="M56 12.5h-4.5V8h1v3.5H56z" fill="#505050"></path><path d="M52 14a2 2 0 1 1-.001-3.999A2 2 0 0 1 52 14z" fill="#fa6450"></path><path d="M51.5 4h1v2h-1zM51.5 18h1v2h-1zM58 11.5h2v1h-2zM44 11.5h2v1h-2zM55.882 7.41l1.415-1.415.707.707-1.415 1.415zM45.983 17.307l1.415-1.415.707.707-1.414 1.415zM45.983 6.702l.707-.707 1.415 1.414-.707.707zM55.881 16.6l.707-.707 1.415 1.414-.707.707z" fill="#505050"></path><path d="M44 47.962v-1.069a2 2 0 0 0-1.106-1.789L36 42l-4 4-4-4-6.894 3.104A2 2 0 0 0 20 46.893v1.069C23.347 50.485 27.495 52 32 52s8.653-1.515 12-4.038z" fill="#3cc8b4"></path><path d="M24 46.893a2 2 0 0 1 1.106-1.789l4.136-1.862L28 42l-6.894 3.104A2 2 0 0 0 20 46.893v1.069a20.015 20.015 0 0 0 4 2.357z" fill="#1eaa96"></path><path d="M28 42v-4.343h8V42l-4 4z" fill="#d2aa82"></path><path d="M42 28h-2v-6a2 2 0 0 0-2-2H26a2 2 0 0 0-2 2v6h-2a2 2 0 0 0-2 2v.764a2 2 0 0 0 1.106 1.789L24 34v.343c0 1.061.421 2.078 1.172 2.828l1.657 1.657A4.001 4.001 0 0 0 29.657 40h4.686a3.995 3.995 0 0 0 2.828-1.172l1.657-1.657A4.001 4.001 0 0 0 40 34.343V34l2.894-1.447A2 2 0 0 0 44 30.764V30a2 2 0 0 0-2-2z" fill="#f0c8a0"></path><path d="M42 30a4 4 0 0 1-4-4v-6h2a2 2 0 0 1 2 2z" fill="#dc9600"></path><path d="M36 16h-8a6 6 0 0 0-6 6v4a2 2 0 0 0 2 2h5.029c3.183 0 6.235-1.264 8.485-3.515l1.314-1.314A4.001 4.001 0 0 0 40 20.343V20a4 4 0 0 0-4-4z" fill="#fab400"></path><path d="M30 30.5h-4a.5.5 0 0 1 0-1h4a.5.5 0 0 1 0 1zM32 36.5c-.668 0-1.296-.26-1.768-.732l-.586-.586a.5.5 0 0 1 .707-.707l.586.586c.566.566 1.555.566 2.121 0l.586-.586a.5.5 0 0 1 .707.707l-.586.586A2.48 2.48 0 0 1 32 36.5z" fill="#be7800"></path><circle cx="29" cy="31" fill="#be7800" r="1"></circle><path d="M38 30.5h-4a.5.5 0 0 1 0-1h4a.5.5 0 0 1 0 1z" fill="#be7800"></path><circle cx="35" cy="31" fill="#be7800" r="1"></circle><path d="M33 51.949V45l-1 1-1-1v6.949c.333.017.662.051 1 .051s.667-.034 1-.051z" fill="#1eaa96"></path></g></svg>