<svg viewBox="0 0 489 489.051" xmlns="http://www.w3.org/2000/svg"><g><path d="M126.688 126.84C59.061 126.84 3.627 73.64.034 6.895-.165 3.152 2.81 0 6.555 0 10 0 12.883 2.676 13.063 6.113c3.187 59.91 52.933 107.672 113.624 107.672S237.125 66.023 240.31 6.11C240.492 2.672 243.375 0 246.82 0c3.746 0 6.723 3.152 6.52 6.895-3.594 66.746-59.028 119.945-126.653 119.945zm0 0" fill="#434444"></path><path d="M125.969 126.836c-42.477-.39-76.395-35.66-76.395-78.137V35.08a6.525 6.525 0 0 1 6.524-6.524h.004a6.523 6.523 0 0 1 6.523 6.523v13.633c0 35.176 27.934 64.555 63.11 65.066 35.753.524 65.011-28.41 65.011-64.05V35.078a6.525 6.525 0 0 1 6.524-6.523h.003a6.523 6.523 0 0 1 6.524 6.523v14.649c.004 42.757-34.98 77.5-77.828 77.109zm0 0" fill="#585959"></path><path d="M128.86 126.77c-20.262 1.257-36.88-15.11-36.88-35.407V70.48a6.526 6.526 0 0 1 6.528-6.523h.004a6.525 6.525 0 0 1 6.523 6.523V91.56c0 11.75 9.117 21.793 20.86 22.214 12.296.442 22.445-9.437 22.445-21.64V70.48a6.523 6.523 0 0 1 6.523-6.523h.004a6.525 6.525 0 0 1 6.524 6.523v21.653c0 18.406-14.403 33.512-32.532 34.637zm0 0" fill="#7c7c7c"></path><path d="m96.262 153.586-4.793-.695c-5.57.25-12.309-1.114-19.035-4.149-3.946-1.773-7.188-4.527-9.809-7.566a33.236 33.236 0 0 1-1.375-1.68c-3.238-4.172-5.39-8.633-6.648-11.719a4.131 4.131 0 0 1 2.464-5.46c5.922-2.075 17.582-5.012 27.516-.532 4.27 1.918 8.043 4.297 11.125 6.899a23.058 23.058 0 0 0-1.285 5.824c-.07.68-.102 1.394-.102 2.097 0 .262 0 .524.012.782zm0 0" fill="#d37863"></path><path d="m96.324 153.586-4.789-.695c-5.57.25-12.308-1.114-19.035-4.149-3.95-1.773-7.191-4.527-9.813-7.566 7.633-5.977 18.114-8.293 27.551-5.946a28.85 28.85 0 0 1 4.149 1.375c0 .262 0 .524.008.782zm0 0" fill="#934532"></path><path d="m157.113 153.586 4.79-.695c5.574.25 12.312-1.114 19.038-4.149 3.946-1.773 7.188-4.527 9.809-7.566.48-.555.945-1.117 1.375-1.68 3.234-4.172 5.39-8.633 6.648-11.719a4.13 4.13 0 0 0-2.468-5.46c-5.918-2.075-17.578-5.012-27.516-.532-4.266 1.918-8.039 4.297-11.125 6.899a22.89 22.89 0 0 1 1.285 5.824c.07.68.102 1.394.102 2.097 0 .262 0 .524-.012.782zm0 0" fill="#d37863"></path><path d="m157.113 153.586 4.79-.695c5.574.25 12.312-1.114 19.038-4.149 3.946-1.773 7.188-4.527 9.809-7.566-7.633-5.977-18.113-8.293-27.55-5.946a28.85 28.85 0 0 0-4.15 1.375c0 .262 0 .524-.007.782zm0 0" fill="#934532"></path><path d="M379.648 249.902v34.778h-27.64v-76.957c0-1.66 1.578-2.762 3.222-2.762.754 0 1.516.23 2.16.742a64.057 64.057 0 0 1 8.442 8.152c8.906 10.34 13.816 22.961 13.816 36.047zm0 0" fill="#f2c59e"></path><path d="M379.648 249.902v34.778h-27.64v-39.86c7.637 0 13.824-6.187 13.824-13.824v-17.14c8.906 10.34 13.816 22.96 13.816 36.046zm0 0" fill="#934532"></path><path d="M344.355 370.027c-8.789-6.843-13.675-18.757-16.402-29.75-4.96 2.172-11.691 4.98-20.086 7.32l-6.246 1.575c2.09 9.488 8.719 23.683 18.008 30.71 8.629 6.54 13.91 16.579 13.91 27.415l-17.566 64.719h-4.852c-9.406 0-17.035 7.629-17.035 17.035h36.113l27.946-95.848v-.008c-1.426-9.117-6.375-17.39-13.79-23.168zm0 0" fill="#d37863"></path><path d="M329.203 341.945c-.023-.043-.031-.093-.039-.132-1.273-5.125-2.062-10.07-2.562-14.18a121.701 121.701 0 0 1-.707-7.867 2.074 2.074 0 0 0-2.957-1.746c-7.887 3.746-21.426 8.82-38.817 8.82-16.746 0-29.445-2.012-39.129-4.7-5.625-1.554-10.234-3.331-14.031-5.066-.07-.031-.148-.07-.223-.101a107.65 107.65 0 0 1-7.886-4c-1.645-.914-3.575.66-2.985 2.449 2.184 6.637 4.344 16.758 2.781 28.867a58.88 58.88 0 0 1-.285 1.957c-.008.063-.02.133-.027.192.008 0 .02.011.027.011 9.055 2.68 24.77 7.473 53.254 7.473 13.031 0 24.227-2 33.438-4.578 7.925-2.211 14.37-4.84 19.246-6.953.293-.133.578-.254.863-.375.02-.012.027-.012.05-.024-.01-.02-.01-.027-.01-.047zm0 0" fill="#f2c59e"></path><path d="M138.219 324.02c-10.14-5.504-18.375-11.047-24.602-17.56l.309 1.04.039.121 10.172 34.75 12.675 43.317-4.777 86.074h-1.437c-9.547 0-17.29 7.738-17.29 17.289h39.45l10.16-90.973v-35.043c0-2.722-.367-5.594-1.027-8.5h.007c-2.316-2.672-7.445-13.625-14.324-22.191-2.629-3.278-5.808-6.07-9.355-8.324zm0 0" fill="#d37863"></path><path d="m384.984 379-6.14 51.64v58.41h-38.59c0-9.41 7.621-17.042 17.02-17.042h1.34V400.62c0-11.16-5.301-21.562-14.098-28.41a32.444 32.444 0 0 1-4.852-4.73c-11.71-13.961-14.133-38-14.633-46.532a2.04 2.04 0 0 0-2.918-1.738c-7.8 3.71-21.187 8.73-38.39 8.73-26.18 0-42.36-4.992-52.578-9.652a111.854 111.854 0 0 1-8.032-4.059 2.012 2.012 0 0 0-2.379.29 1.96 1.96 0 0 0-.559 2.129c.079.23.15.46.227.703 2.07 6.566 4.024 16.296 2.512 27.84a63.648 63.648 0 0 1-1.973 9.488c-3.566 12.41-10.058 20.851-13.43 24.718-.327.372-.5.872-.488 1.372.079 4.488 1.02 27.05 11.301 45.84.02.038.04.081.059.128l29.3 62.313h-50c0-9.11 7.18-16.54 16.192-16.989l-35.95-80.19-10.202-22.75-5.649-12.602c-2.281-2.63-7.34-13.418-14.12-21.868-.38-.48-.778-.953-1.188-1.402a1.516 1.516 0 0 0-.204-.219c-.16-.191-.328-.37-.5-.55a13.3 13.3 0 0 0-.519-.532 7.666 7.666 0 0 0-.398-.398c-.27-.27-.54-.528-.82-.778l-.013-.011c-.148-.16-.296-.29-.457-.442a40.495 40.495 0 0 0-2.171-1.797c-.95-.742-1.93-1.43-2.942-2.07-.449-.238-.887-.48-1.316-.71-.25-.141-.512-.302-.762-.438a134.231 134.231 0 0 1-9.512-5.774c-.418-.277-.828-.558-1.25-.847a86.558 86.558 0 0 1-6.5-4.942c-.379-.32-.757-.64-1.129-.988a44.147 44.147 0 0 1-1.73-1.582c-.32-.29-.648-.598-.95-.918-.37-.36-.73-.73-1.09-1.102-3.25-3.39-5.948-7.058-8.07-11.12-.109-.079-.238-.15-.347-.227a48.475 48.475 0 0 1-3.024-8 9.823 9.823 0 0 0-.058-.18 53.09 53.09 0 0 1-.89-3.71c-.079-.411-.16-.821-.231-1.231-.04-.2-.078-.399-.11-.602-.07-.41-.14-.82-.199-1.238-.039-.239-.07-.489-.101-.73a22.02 22.02 0 0 1-.149-1.122 4.173 4.173 0 0 1-.039-.398 37.3 37.3 0 0 1-.262-2.649c-.039-.34-.058-.691-.078-1.039a5.688 5.688 0 0 1-.03-.582c-.04-.52-.06-1.05-.08-1.59-.01-.3-.023-.609-.023-.918a75.85 75.85 0 0 1-.027-2.113v-83.629s-2.45-7.36-2.57-11.12l-4.723-39.56c-.406-13.308 10.274-24.328 23.594-24.328h20.707c13.332 0 24 11.02 23.59 24.329l-4.719 39.558a26.934 26.934 0 0 1-.75 5.48c-.121.5-.238 1.02-.379 1.532-.012.012-.012.031-.012.039-.007.012-.007.02-.007.043a.26.26 0 0 0-.032.09v.039c0 .02-.011.02 0 .02v.03c.059 1.278.121 2.18.121 2.18l.758 2 6.41 16.93c.051.117.102.238.141.367l1.691 4.461c5.688 15.07 20.13 25.05 36.25 25.05h120.7c37.039 0 64.949 33.673 58.078 70.06l-1.98 10.53-7.848 23.938c0 11.75 2.988 22.73 12.718 29.313 2.122 1.445 3.23 4.695 2.461 9.945zm0 0" fill="#c16a48"></path><path d="M149.746 193.895c-4.488 6.988-11.309 12.242-18.906 12.242h-8.125c-6.996 0-13.332-4.469-17.8-10.633a32.815 32.815 0 0 1-1.286-1.918 23.091 23.091 0 0 1 6.68-14.246 23.075 23.075 0 0 1 16.363-6.778c12.18-.003 22.16 9.395 23.074 21.333zm0 0" fill="#f2c59e"></path><path d="M122.695 242.809v31.402a19.16 19.16 0 0 0 6.301 14.195c3.41 3.09 6.559 6.5 8.879 10.5a43.471 43.471 0 0 1 2.43 4.774l6.52 15.808 15.25 37.032c-2.278-2.63-7.34-13.422-14.118-21.872-.383-.48-.781-.949-1.191-1.398a1.509 1.509 0 0 0-.2-.223c-.16-.187-.332-.367-.5-.547-.171-.18-.34-.359-.52-.53a3.522 3.522 0 0 0-.401-.4c-.27-.28-.54-.542-.82-.78l-.009-.012c-.152-.156-.3-.29-.46-.438-.45-.398-.891-.78-1.352-1.148a22.24 22.24 0 0 0-.82-.652c-.95-.739-1.93-1.43-2.938-2.07-.45-.24-.89-.477-1.32-.708-.25-.14-.512-.3-.762-.441-3.41-1.89-6.578-3.809-9.508-5.77a64.171 64.171 0 0 1-1.25-.851 85.99 85.99 0 0 1-6.5-4.938 24.21 24.21 0 0 1-1.133-.992 41.318 41.318 0 0 1-1.726-1.578c-.32-.29-.652-.602-.953-.922a57.79 57.79 0 0 1-1.09-1.098c-3.25-3.39-5.95-7.062-8.07-11.12-.11-.083-.239-.15-.348-.231a48.119 48.119 0 0 1-3.02-8c-.02-.059-.043-.117-.062-.18-.34-1.2-.629-2.437-.89-3.71-.079-.411-.157-.821-.227-1.227a11.573 11.573 0 0 1-.114-.602c-.066-.41-.136-.82-.199-1.242-.039-.238-.07-.488-.097-.727-.063-.37-.114-.75-.153-1.12-.02-.13-.027-.263-.039-.4-.12-.859-.2-1.741-.262-2.652-.039-.34-.058-.687-.078-1.039a5.552 5.552 0 0 1-.03-.578c-.04-.52-.06-1.05-.08-1.59-.01-.3-.019-.609-.019-.922-.02-.699-.03-1.398-.03-2.109v-83.629l.148.367a38.486 38.486 0 0 0 2.703 5.153c.41.648.84 1.289 1.289 1.91 4.469 6.168 10.8 10.64 17.8 10.64h8.118c7.601 0 14.422-5.261 18.91-12.242 1.3-2.007 4.25-6.46 5.73-9.77-.011.052-.02.083-.02.11.009-.008.009-.027.02-.05v.03c.078 1.43.38 2.84.88 4.18l6.41 16.93c.05.121.101.242.14.371.48 1.3.629 2.7.36 4.07-.829 4.38-3.81 6.059-7.419 9.68a23.578 23.578 0 0 1-16.68 6.918c-9.1.008-16.48 7.348-16.48 16.438zm0 0" fill="#934532"></path></g></svg>