<svg viewBox="0 0 512 512" xmlns="http://www.w3.org/2000/svg"><g><path d="M378.108 365.26a163.87 163.87 0 0 1-259.914-20.573l-34.239-6.677L71.6 368.526a216.015 216.015 0 0 0 346.664 30.033l-37.876 2z" fill="#b5cf7f"></path><path d="M100.273 307.093A163.953 163.953 0 0 1 248.082 92.332L271 66l-20.229-25.934C133.894 42.843 40 138.455 40 256a215.741 215.741 0 0 0 11.367 69.328l17.248-33.888z" fill="#ecab2c"></path><path d="M289.608 95.594a163.948 163.948 0 0 1 112.106 235.424l11.331 32.972 32.62-4.558A215.019 215.019 0 0 0 472 256c0-104.816-74.662-192.183-173.7-211.848L319 76z" fill="#e42a3c"></path></g></svg>