<svg viewBox="0 0 340 340" xmlns="http://www.w3.org/2000/svg"><g><path d="M130.945 44.994c-8.471 0-14.12-5.54-15.756-8.856l-1.768-3.587 3.664-1.808a4.351 4.351 0 0 1 5.367 1.3c2.092 2.706 6 6.022 11.982 4.459 6.549-1.711 8.112-6.247 8.348-9.473a4.37 4.37 0 0 1 3.764-4.039l3.945-.53.532 3.964c.621 4.618-1.606 14.28-14.481 17.8a21.207 21.207 0 0 1-5.597.77z" fill="#5b6d7c"></path><path d="m89.51 225.014 6.64-8.299 30.512 24.417-6.641 8.299z" fill="#8294af"></path><path d="M93.625 231.43c-6.278 7.141-20.937 4.517-32.743-5.862s-16.287-24.58-10.01-31.721l9.6-10.916 42.753 37.584z" fill="#8294af"></path><ellipse cx="81.844" cy="201.723" fill="#dae5ed" rx="17.216" ry="28.462" transform="rotate(-48.7 81.78 201.734)"></ellipse><ellipse cx="81.844" cy="201.723" fill="#ffffff" rx="12.571" ry="20.783" transform="rotate(-48.7 81.78 201.734)"></ellipse><path d="m141.971 232.883-13.421-.983a14.472 14.472 0 0 0-15.469 13.115 14.494 14.494 0 0 0 11.905 15.573 80.55 80.55 0 0 0 20.51.978z" fill="#ffcac0"></path><path d="M116.871 256.148a14.54 14.54 0 0 0 8.115 4.44 80.5 80.5 0 0 0 20.51.978l-3.525-28.683-6.305-.462v16.945s.334 10.502-18.795 6.782z" fill="#ea8b88"></path><path d="M190.464 216.949s-5.773 19.167-48.493 15.934v41.334s38.1 6.928 58.192-12.7z" fill="#343c47"></path><path d="M192.741 122.7s-19.788 15.2-15.426 57.305c0 0 4.183 21.182 8.472 38.148 7.686 30.4 3.315 99.16 3.315 99.16h102.709s8.27-175.977-99.07-194.613z" fill="#5b6d7c"></path><path d="M258.253 167.77 226 182.931s22.065 28.718-2.132 49.77l-10.237-15.752c-7.453 7.878 0 22.636 0 22.636L225 261.746c6.9 13.454.359 30.118-14.009 34.833a75.273 75.273 0 0 1-21.093 3.236c-.357 10.5-.8 17.493-.8 17.493h102.713s4.297-91.508-33.558-149.538z" fill="#343c47"></path><path d="m238.749 144.809-56 16.457s14.61 29.627 57.782 22.59c9.88-1.61 16.888-5.046 21.832-9.383a118.25 118.25 0 0 0-23.614-29.664z" fill="#343c47"></path><path d="M224.4 171.349s44.282 37.268 4.165 68.616l22.135 38.583s74.1-53.051 8.875-127.36z" fill="#5b6d7c"></path><path d="M269.931 164.446a141.162 141.162 0 0 0-10.354-13.258L224.4 171.349a75.112 75.112 0 0 1 11.659 13.109 88.638 88.638 0 0 0 4.475-.6c16.734-2.73 25.245-10.689 29.397-19.412z" fill="#343c47"></path><path d="M178.971 156.331s9.814 19.205 44.419 19.567c22.785.239 33.238-10.048 37.72-17.1a11.1 11.1 0 0 0-.116-12.075c-4.241-6.39-13.235-16.864-29.814-24.088-20.116-8.765-28.629-18.5-28.629-18.5s-19.444 13.787-23.58 52.196z" fill="#5b6d7c"></path><path d="m107.338 150.224 8.785-7.477a3.551 3.551 0 0 1 5.28.778c1.593 2.442 4.24 5.216 8.081 5.306 0 0 6.582.481 6.34-7.864a31.73 31.73 0 0 1 3.289-14.764l6 2.646s-2.982 5.681-.542 14.044c2.106 7.216 1.851 23.669-13.8 26.8-14.551 2.91-21.84-7.352-24.746-13.208a5.2 5.2 0 0 1 1.313-6.261z" fill="#d65b43"></path><path d="M113.7 98.217s11.8 24.478 26.387 34.4c8.455 5.753 24.082 7.4 34.88 1.218l10.825-18.829-24.94-41.089z" fill="#ffcac0"></path><path d="M146.789 89.625s11.166-1.932 19.68-6.451l-5.617-9.257-31.121 16.036-16.031 8.264s1.815 3.76 4.89 8.92a100.579 100.579 0 0 0 28.199-17.512z" fill="#ea8b88"></path><path d="M134.39 82.781s8.445 17.8 32.873 18.263a14.237 14.237 0 0 1 8.594 3.044l6.368 5.052a49.155 49.155 0 0 0-1.866-47.94z" fill="#e87a5d"></path><path d="M155.758 165.544c1.9-9.755 11.533-52.71 37.172-71.66l9.621 10.252S181.574 135.68 177.315 180c0 0-5.106-6.924-10.469-8.817-3.5-1.235-7.307-2.409-9.532-3.076a2.228 2.228 0 0 1-1.556-2.563z" fill="#5b6d7c"></path><circle cx="169.495" cy="158.984" fill="#343c47" r="4"></circle><path d="M136.828 111.692a3 3 0 0 1-1.8-5.4l2.719-2.033a3 3 0 1 1 3.592 4.806l-2.719 2.033a2.986 2.986 0 0 1-1.792.594z" fill="#dd7a7a"></path><path d="M134.39 82.781a31.959 31.959 0 0 0 8.593 10.045q.8-.639 1.6-1.3a11.722 11.722 0 0 1 4.934-2.456 91.021 91.021 0 0 0 3.06-.742 49.015 49.015 0 0 1 28.057.883 53.979 53.979 0 0 0 6.767 1.8 48.888 48.888 0 0 0-7.042-29.811z" fill="#af4e3e"></path><path d="M164.164 71.81s13.5 13.715 33.426 12.734a6.971 6.971 0 0 0 4.091-12.409 46.654 46.654 0 0 0-17.786-8.9z" fill="#343c47"></path><path d="M107.977 84.966s-8.507-39.143 27.349-48.84C172.814 25.988 183.9 63.24 183.9 63.24s-13.628 14.924-40.06 21.726c0 0-24.781 6.873-35.863 0z" fill="#5b6d7c"></path><g fill="#343c47"><path d="M107.977 84.966s12.9 3.87 35.863 0c0 0-23.221 18.322-46.235 22.718a5.947 5.947 0 0 1-5.514-9.815 68.3 68.3 0 0 1 15.886-12.903z" fill="#343c47"></path><path d="M143.84 84.966c26.432-6.802 40.06-21.726 40.06-21.726a48.67 48.67 0 0 0-12.6-19.709 23.777 23.777 0 0 1 .619 2.491c1.918 10.251-2.8 20.549-11.387 26.464-18.419 12.685-49.02 13.233-49.02 13.233l-.549.663c11.999 4.368 32.877-1.416 32.877-1.416z" fill="#343c47"></path></g></g></svg>