<svg viewBox="0 0 512 512" xmlns="http://www.w3.org/2000/svg"><g><path d="M47.374 408.754v28.288a2.771 2.771 0 0 0 2.771 2.771h44.152a2.772 2.772 0 0 0 2.519-1.615l13.515-29.445H47.374zM464.644 408.754v28.288a2.771 2.771 0 0 1-2.771 2.771H417.72a2.772 2.772 0 0 1-2.519-1.615l-13.515-29.445h62.958z" fill="#fdf6ec"></path><path d="M464.646 408.753v28.285a2.78 2.78 0 0 1-2.778 2.778h-18.696a2.78 2.78 0 0 0 2.778-2.778v-28.285z" fill="#fae2c0"></path><path d="M341.34 125.461v230.806h165.972l-.389-141.402V160.757L512 149.311v-23.85l-79.164-11.123z" fill="#57be92"></path><path d="M511.999 125.463v23.848l-5.135 17.333v189.627h-14.991V125.463z" fill="#22b27f"></path><path d="m512 220.247-170.66 66.61v-70.936L512 149.311z" fill="#fec165"></path><path d="M511.999 149.309v70.94l-20.147 7.862.021-70.944z" fill="#fdb441"></path><path d="M341.34 125.461H512L487.186 79.9H366.154z" fill="#aedec8"></path><path d="M511.999 125.463h-20.126l-24.816-45.566h20.126z" fill="#98d5b9"></path><path d="M499.206 87.617H354.133a7.717 7.717 0 1 1 0-15.434h145.073a7.717 7.717 0 1 1 0 15.434zM170.66 125.461v230.806h170.66V222.348l-7.002-33.638 7.002-39.399v-23.85l-85.31-8.198z" fill="#57be92"></path><path d="M321.193 222.348v-96.885h20.126v23.848l-6.548 34.995 6.548 35.941z" fill="#22b27f"></path><path d="m341.32 220.247-170.66 66.61v-70.936l170.66-66.61z" fill="#fec165"></path><path d="M341.319 149.309v70.94l-20.147 7.862.021-70.944z" fill="#fdb441"></path><path d="M170.66 125.461h170.66L316.506 79.9H195.474z" fill="#aedec8"></path><path d="M341.319 125.463h-20.126l-24.816-45.566h20.126z" fill="#98d5b9"></path><path d="M328.527 87.617H183.454a7.717 7.717 0 1 1 0-15.434h145.073a7.717 7.717 0 1 1 0 15.434zM0 125.461v80.802l6.409 11.821-.429 138.183h164.68V235.303l-7.077-42.845 7.077-43.147v-23.85l-82.563-11.123z" fill="#57be92"></path><path d="M170.659 125.463v23.848l-7.076 43.147 7.076 42.845v120.968h-20.126V125.463z" fill="#22b27f"></path><path d="M170.66 220.247 0 286.857v-70.936l170.66-66.61z" fill="#fec165"></path><path d="M170.659 149.309v70.94l-20.147 7.862.021-70.944z" fill="#fdb441"></path><path d="M0 125.461h170.66L145.846 79.9H24.814z" fill="#aedec8"></path><path d="M170.659 125.463h-20.126l-24.816-45.566h20.126z" fill="#98d5b9"></path><path d="M157.867 87.617H12.794a7.717 7.717 0 1 1 0-15.434h145.073a7.717 7.717 0 1 1 0 15.434z" fill="#57be92"></path><path d="M.022 206.263v186.083c0 10.166 8.242 18.408 18.408 18.408h475.16c10.166 0 18.408-8.242 18.408-18.408V206.263zm316.88 76.398a24.69 24.69 0 0 1-17.512 7.254h-86.76c-13.675 0-24.766-11.081-24.766-24.766 0-6.832 2.768-13.026 7.254-17.512s10.68-7.254 17.512-7.254h86.76c13.675 0 24.766 11.092 24.766 24.766a24.655 24.655 0 0 1-7.254 17.512z" fill="#fddeb0"></path><path d="M491.852 206.263v186.083c0 10.166-8.242 18.408-18.408 18.408h20.146c10.166 0 18.408-8.242 18.408-18.408V206.263z" fill="#fccd7f"></path></g></svg>