<svg viewBox="0 0 500 500" xmlns="http://www.w3.org/2000/svg"><g><g clip-rule="evenodd" fill-rule="evenodd"><path d="M90.351 475.819h319.297c18.685 0 38.115-15.753 33.973-33.973l-28.002-123.154c-4.142-18.22-15.288-33.973-33.973-33.973H118.353c-18.685 0-29.83 15.753-33.973 33.973L56.379 441.847c-4.143 18.219 15.287 33.972 33.972 33.972z" fill="#19cfba"></path><path d="M344.65 284.72H153.108c-.257 3.598-.226 7.289.083 11.167a98.462 98.462 0 0 0-.863 13.031 97.763 97.763 0 0 0 3.319 25.312c-.468 5.488-1.62 10.79-3.501 16.302L109.76 475.299c.016.174.037.347.055.52h76.092l20.46-79.5c27.391 13.702 59.876 13.703 87.266 0l20.46 79.5h76.092c.019-.173.039-.346.055-.52l-42.386-124.767c-1.881-5.511-3.033-10.813-3.501-16.301a97.777 97.777 0 0 0 3.319-25.313c0-4.419-.294-8.77-.863-13.033.308-3.878.34-7.568.083-11.165z" fill="#129182"></path><circle cx="250" cy="267.734" fill="#c89d8d" r="97.673" transform="rotate(-87.65 249.924 267.772)"></circle><path d="M215.898 359.283c-32.845-12.241-57.328-41.649-62.536-77.316.611-5.35 1.881-10.542 3.851-15.896l13.944-37.883c1.73-4.699 5.893-7.533 11.069-7.533h33.014c9.063 0 16.254 9.016 13.749 17.621l-8.656 29.729c-2.592 8.902-3.344 17.056-2.453 26.594l2.727 29.186c1.359 14.534-1.306 22.276-4.709 35.498zm130.739-77.316c-5.208 35.667-29.691 65.074-62.536 77.315-3.403-13.221-6.067-20.964-4.709-35.497l2.727-29.186c.891-9.538.139-17.692-2.453-26.594l-8.656-29.729c-2.506-8.605 4.685-17.621 13.749-17.621h33.014c5.176 0 9.339 2.833 11.069 7.533l13.944 37.883c1.971 5.353 3.241 10.546 3.851 15.896z" fill="#a37767"></path><path d="M133.952 327.407c3.896-8.961 5.635-17.322 5.635-27.093v-21.903c0-10.302 1.937-19.12 6.254-28.474l16.037-34.747c1.989-4.31 6.051-6.909 10.798-6.909h30.281c8.38 0 14.109 8.34 11.1 16.162l-10.488 27.268c-3.141 8.165-4.529 15.644-4.529 24.392v26.771c0 8.039-1.17 14.908-3.831 22.493L150.43 453.014l-.002-.002c-4.645 13.243-17.296 22.807-32.074 22.807-18.686 0-33.973-15.288-33.973-33.973z" fill="#f0b16e"></path><g fill="#ffbf31"><path d="M422.024 56.143h-23.509l19.293-29.51h-40.035l-27.417 46.373h25.294l-46.373 84.315zM77.977 56.143h23.509l-19.294-29.51h40.035l27.417 46.373H124.35l46.373 84.315zM250 136.087l39.049-65.237h-19.818l21.113-46.67h-80.686l21.113 46.67h-19.819z" fill="#ffbf31"></path></g><path d="M366.048 327.407c-3.896-8.961-5.635-17.322-5.635-27.093v-21.903c0-10.302-1.937-19.12-6.254-28.474l-16.037-34.747c-1.989-4.31-6.051-6.909-10.798-6.909h-30.281c-8.381 0-14.109 8.34-11.1 16.162l10.488 27.268c3.141 8.165 4.529 15.644 4.529 24.392v26.771c0 8.039 1.17 14.908 3.831 22.493l44.78 127.647.002-.002c4.645 13.243 17.296 22.807 32.074 22.807 18.686 0 33.973-15.288 33.973-33.973z" fill="#f0b16e"></path></g></g></svg>