<svg viewBox="0 0 340 340" xmlns="http://www.w3.org/2000/svg"><g><path d="M12.441 61.053c1.042 28.873 17.951 43.756 43.011 37.647-.5-5.255.819-11.6 8.791-14.541a1.909 1.909 0 0 0 .517-3.262C57.5 74.92 36.5 59.694 12.441 61.053z" fill="#655baa"></path><path d="M37.287 111.365c1.757-4.434 6.839-11.651 20.384-4.38a27.416 27.416 0 0 1-2.218-8.285L40.058 86.26l-7.873-3.566a1.353 1.353 0 0 0-1.693 1.97l3.148 4.843a1.535 1.535 0 0 1-1.742 2.3c-18.092-5.57-19.457-30.754-19.457-30.754S10.225 87.77 34.127 112.01a1.925 1.925 0 0 0 3.16-.645z" fill="#3e3a6b"></path><g fill="#b4453f"><path d="m200.779 159.157.969-12.071a22.83 22.83 0 0 0-6.685-18.043l-.854-.846a22.871 22.871 0 0 1-6.759-16.107 150.157 150.157 0 0 1 11.14-57.725 25.345 25.345 0 0 0 1.6-14.28 57.193 57.193 0 0 0-5.17-15.746s-39.638 58.769-32.657 148zM191.333 294.76s-2.191 9.142-10.527 13.444c0 0 16.177 2.183 16.714 21.8h-18.906l-49.972-16.361 33.723-38.946zM257.858 280.131a129.827 129.827 0 0 0 17.064 18.969s28.145 3.734 26.134 30.9h-16.547l-53.24-44.4z" fill="#b4453f"></path></g><path d="M327.35 77.693c5.087 8.721 8.975 22.132 7.1 42.394-1.9 20.46-8.184 29.81-13.243 42.783-41.695 43.649-64.071 123.006-118.607 122.68-55.626-4.247-97.5 21.477-97.5 21.477S36 344.062 8.944 268.762c-12.616-35.106 7.3-82.333 35.134-118.026A48.791 48.791 0 0 0 41.61 87.9q-.751-.82-1.552-1.644s26.015 3.959 29.718 37.076a66.321 66.321 0 0 1-5.124 33.392c-2.965 6.932-7.081 17.693-12.216 26.447-11.195 19.086-15.1 42.265-9.487 62.318a19.5 19.5 0 0 0 33.04 8.026 138.384 138.384 0 0 0 17.53-23.994s43.98-86.643 126.41-73.476a49.212 49.212 0 0 1 13.431 4.266c20.836 9.931 45.336.5 53.5-21.089 6.392-6.043 10-14.035 9.171-25.143C299.219 94.5 310.177 82.9 327.35 77.693z" fill="#f47a6e"></path><path d="M327.338 77.7c-6.868-11.766-15.913-15.008-15.913-15.008-14.333 1.6-16.907 9.246-24.757 22.046 5.854 11.7 8.758 21.33 9.358 29.346.331.127.658.266.978.424a64.305 64.305 0 0 0 14.042 5.146 29.426 29.426 0 0 0 0-24.867A48.119 48.119 0 0 0 327.338 77.7zM21.793 255.188c-8-32.236-3.759-57.724 2.894-75.182-16.5 29.8-25.131 62.633-15.743 88.756C36 344.062 105.1 307.027 105.1 307.027a109.693 109.693 0 0 1 10.06-5.215l7.008-10.912s-82.929 34.563-100.375-35.712z" fill="#b4453f"></path><path d="M305.866 212.815c4.623-22.055 9.867-35.912 15.338-49.944.745-15.521-.252-35.493-8.007-49.514-13.627-3.964-24.831-5.259-29.48.67a22.428 22.428 0 0 1 1.39 1.971 25.661 25.661 0 0 1 2.135 22.193q-.183.52-.378 1.035s-3.56 16.284-20.38 37.243c-11.006 13.713-11.806 28.4-15.542 50.575 0 0-3.614 48.483-48.344 58.512 4.123.315 8.32.788 12.583 1.455 61.773 9.663 81.789-31.749 90.685-74.196z" fill="#fedcc6"></path><path d="M279.728 25.412s14.514 3.041 11.749 16.173S277.1 60.547 277.1 60.547s25.444.83 30.42-22.116c.002 0-2.549-18.695-27.792-13.019z" fill="#3e3a6b"></path><path d="M313.193 113.358a32.852 32.852 0 0 0-12.307-12.991c-8.039-4.607-14.573-5.976-19.845-5.486a134.533 134.533 0 0 0-5.8 13.091 17.951 17.951 0 0 1 8.461 6.063c2.461-.154 4.631-.4 6.311-.639a12 12 0 0 1 6.987 1.112 69.526 69.526 0 0 0 12.338 4.727 2.04 2.04 0 0 0 2.42-1.206 28.188 28.188 0 0 0 1.435-4.671z" fill="#d3a285"></path><path d="M284.509 56.707a97.811 97.811 0 0 0 10.341-7.327c2.95-.407 4.357-1.862 4.526-4.156a33.946 33.946 0 0 0 4.43-5.588 5.591 5.591 0 0 0 2.733-6.2 25.329 25.329 0 0 0-.372-13.309 13.446 13.446 0 0 0-4.732-6.736s25.442 1.76 25.785 26.593a13.82 13.82 0 0 0-.622 7.495 40.423 40.423 0 0 1-11.45 21.067c-2.23.077-3.847 1.7-5 4.5a71.368 71.368 0 0 1-19.5 10.983z" fill="#655baa"></path><path d="M223.757 86.174a60.21 60.21 0 0 1 2.857-5.693 24.7 24.7 0 0 1 16.8-11.98c10.5-2 27.362-3.245 41.1-11.794 0 0 7.683 2.329 7.683 19.847 0 0 6.5 3.346 20.865 2.559 0 0-3.937 11.023-13.779 15.55 0 0 9.448 4.921 9.055 18.109l-14.369-6.889a65.958 65.958 0 0 1-34.113-.152 48.119 48.119 0 0 1-9.514-3.675c-4.074-2.078-12.232-5.691-20.61-6.235a6.923 6.923 0 0 1-5.975-9.647zM115.671 251.8s1.394.009 3.747.251c24.277 14.943 51.187 29.934 44.287 44.322a18.3 18.3 0 0 1-4.966 5.991 56.659 56.659 0 0 1-20.205 8.992s19.32-.212 30.893 3.782a13.752 13.752 0 0 1 9.283 13.944q-.036.45-.1.918H93.655S86.6 312.485 99.3 302.888s22.863-11.988 22.863-11.988z" fill="#f47a6e"></path><path d="M127.7 186.105a171.605 171.605 0 0 0-23.633 26.681c1.991 15.565 19.675 63.21 59.636 83.587a19.871 19.871 0 0 0 2.915-9.655 168.56 168.56 0 0 1 35.982-1.168 53.247 53.247 0 0 0 10.283-.931z" fill="#b4453f"></path><path d="M121.693 56.707s-7.9 46.487 39.586 62.559a13.827 13.827 0 0 1 9.279 14.777c-2.59 21.158-4.889 66.051 16.349 95.468a24.885 24.885 0 0 0 5.038 5.187c0 14.844-18.041 23.958-44.225-2.656-22.431-36.27-35.471-79.34-35.027-132.171a343 343 0 0 1 9-43.164z" fill="#fedcc6"></path><path d="M192.106 234.813c-9.695 5.808-34.1 13.781-54.793-34.552A321.738 321.738 0 0 1 112.7 99.872c-21.68 155.811 97.645 198.621 97.645 198.621l4.324-59.977q-1.249.382-2.437.659a24.278 24.278 0 0 1-20.126-4.362z" fill="#d3a285"></path><path d="M178.708 293.343C145.238 274.608 109.8 238.7 101.92 170 87.294 42.445 119.546 10 119.546 10s9 11.866 6 36.618c0 0-41.543 158.074 57.492 230.636 8.295 7.83 4.891 18.19-4.33 16.089z" fill="#f47a6e"></path><path d="M116.537 275.634a6.992 6.992 0 0 1-6.984-6.984 7.278 7.278 0 0 1 .165-1.554 3 3 0 0 0-.659-2.613 3.041 3.041 0 0 0-2.489-1.03 6.464 6.464 0 0 1-.5.019 6.992 6.992 0 0 1-6.984-6.985 6.916 6.916 0 0 1 2.207-5.094 3 3 0 1 0-4.1-4.377 13.029 13.029 0 0 0-4.1 9.471 12.9 12.9 0 0 0 .854 4.617l-1.746 1.712a11.355 11.355 0 0 0 5.266 19.359 3 3 0 0 0 1.317-5.854 5.357 5.357 0 0 1-2.431-9.175l1.044-1.023a12.95 12.95 0 0 0 6.181 3.107 13 13 0 0 0 12.971 12.4 3 3 0 1 0 0-6zM227.639 201.571a8.32 8.32 0 0 1-8.312-8.312 8.684 8.684 0 0 1 .2-1.847 3 3 0 0 0-3.144-3.643q-.3.021-.606.021a8.321 8.321 0 0 1-8.312-8.312 8.233 8.233 0 0 1 2.627-6.064 3 3 0 0 0-4.1-4.377 14.272 14.272 0 0 0-3.483 15.768l-2.176 2.134a12.465 12.465 0 0 0 8.517 21.561 3 3 0 0 0 0-6 6.465 6.465 0 0 1-4.373-11.227l1.452-1.425a14.285 14.285 0 0 0 7.4 3.736 14.329 14.329 0 0 0 14.309 13.99 3 3 0 0 0 0-6z" fill="#b4453f"></path><path d="M179.58 251.693a3.489 3.489 0 0 1-2.5-1.047c-19.687-20.049-31.93-48.574-36.388-84.779a261.349 261.349 0 0 1 .168-62.669 3.5 3.5 0 0 1 6.942.9c-2.043 15.743-9.994 96.561 34.273 141.642a3.5 3.5 0 0 1-2.5 5.952z" fill="#d3a285"></path><path d="M315.14 68.539c-3.851-12.851-11.166-19.949-15.765-23.315a53.9 53.9 0 0 1-4.529 4.152c3.8 2.541 11.909 9.44 15.3 23.666a57.015 57.015 0 0 0 4.994-4.503zM306.533 33.435a22.9 22.9 0 0 1-2.729 6.2c4.46-.516 14.677-.558 22.774 7.842.21-1.141.387-2.3.491-3.5a39.4 39.4 0 0 0 .131-3.99 32.579 32.579 0 0 0-20.667-6.552z" fill="#3e3a6b"></path><path d="M282.75 150.5a105.585 105.585 0 0 1-3.451 6.895 46.228 46.228 0 0 0 35.301 16.118c.839 0 1.7-.028 2.564-.071a495.364 495.364 0 0 1 2.744-7.241c-22.697 2.576-34.656-12.191-37.158-15.701zM259.247 188.611a63.623 63.623 0 0 0-2.6 7.493 50.1 50.1 0 0 0 36.523 15.807 59.315 59.315 0 0 0 13.226-1.559q.873-4.014 1.775-7.678c-27.82 7.987-43.529-7.259-48.924-14.063zM260.158 247.489l-.114-.042a42.842 42.842 0 0 1-11.784-7.166 81.422 81.422 0 0 1-2.437 7.075 47.707 47.707 0 0 0 11.862 6.682 69.146 69.146 0 0 0 22.58 4.089 46.814 46.814 0 0 0 9.462-.924 94.319 94.319 0 0 0 4.818-8.891c-14.521 6.657-34.169-.738-34.387-.823z" fill="#d3a285"></path><path d="M243.182 268.537a62.807 62.807 0 0 1-14.247-6.353c-31.136-18.626-28.765 13.856-27.5 23.287.386.027.771.05 1.159.079 15.819.095 28.927-6.52 40.588-17.013z" fill="#b4453f"></path><path d="m263.344 76.085 11.337-3.656a1.693 1.693 0 0 1 2.185 1.9c-.428 2.638-1.885 6.367-6.666 6.878-4.26.454-6.509-1.058-7.657-2.451a1.686 1.686 0 0 1 .801-2.671z" fill="#342a35"></path><path d="M284.54 264.63c-10.654 5.277-28.6 10.422-49.226.923a57.146 57.146 0 0 1-32.716 20c4.123.315 8.32.788 12.583 1.455 34.169 5.348 55.557-4.938 69.359-22.378z" fill="#d3a285"></path><path d="M178.586 293.273c33.517 18.8 65.1 20.366 65.1 20.366-7.876-16.361-27-30-27-30l-21.723 1.512q-6.274-3.749-11.913-7.9c1.656 5.041 1.857 11.399-4.464 16.022z" fill="#b4453f"></path><path d="M218.492 233.465s9.888 19.391 5.974 42.062c0 0 20.422 11.437 34.441 28.156a15.978 15.978 0 0 0 7.481 5c6.552 2.04 18.132 7.589 18.121 21.322h-24.384a14.781 14.781 0 0 1-11.6-5.639c-7.547-9.563-25.477-28.92-53.565-39.213a61.006 61.006 0 0 1-3.59-22.988 13.77 13.77 0 0 1 7.225-11.69c6.099-3.275 15.12-9.11 19.897-17.01z" fill="#f47a6e"></path></g></svg>