<svg viewBox="0 0 512 512" xmlns="http://www.w3.org/2000/svg"><g><path d="M109.792 191.462a7.726 7.726 0 0 1-5.038-13.586L231.358 69.079a7.726 7.726 0 1 1 10.07 11.719L114.824 189.596a7.696 7.696 0 0 1-5.032 1.866zM405.885 194.622a7.692 7.692 0 0 1-5.032-1.866L266.894 77.639a7.726 7.726 0 1 1 10.07-11.72l133.959 115.116a7.727 7.727 0 0 1-5.038 13.587z" fill="#ededed"></path><path d="M35.906 180.147a3551.452 3551.452 0 0 1 440.188 0c13.305.825 24.265 10.822 26.249 24.004 12.876 85.558 12.876 171.116 0 256.674-1.984 13.182-12.944 23.179-26.249 24.004a3551.436 3551.436 0 0 1-440.187 0c-13.305-.825-24.265-10.822-26.249-24.004-12.876-85.558-12.876-171.116 0-256.674 1.983-13.182 12.943-23.179 26.248-24.004z" fill="#db5c6e"></path><path d="M48.083 485.566c-4.059-.237-8.118-.484-12.177-.731-13.3-.824-24.261-10.827-26.249-24.003-12.867-85.567-12.867-171.124 0-256.68 1.988-13.176 12.949-23.179 26.249-24.003 4.059-.247 8.118-.494 12.177-.731a29.39 29.39 0 0 0-11.775 19.398c-13.413 89.121-13.413 178.231 0 267.352a29.39 29.39 0 0 0 11.775 19.398z" fill="#d64553"></path><circle cx="256" cy="58.094" fill="#407093" r="37.75"></circle><path d="M265.484 94.645a37.889 37.889 0 0 1-9.488 1.205c-20.851 0-37.746-16.905-37.746-37.756 0-20.841 16.895-37.746 37.746-37.746 3.276 0 6.459.423 9.488 1.205-16.256 4.213-28.258 18.976-28.258 36.541 0 17.575 12.002 32.337 28.258 36.551z" fill="#365e7d"></path><g fill="#ededed"><path d="m371.62 263.387-91.37 52.759c-12.577 7.262-12.578 25.416 0 32.679l91.37 52.764c12.578 7.264 28.303-1.814 28.303-16.339v-23.251h51.961c16.274 0 29.513-13.239 29.513-29.513s-13.239-29.513-29.513-29.513h-51.961v-23.246c0-14.525-15.725-23.603-28.303-16.34zM140.38 263.387l91.37 52.759c12.577 7.262 12.578 25.416 0 32.679l-91.37 52.764c-12.578 7.264-28.303-1.814-28.303-16.339v-23.251h-51.96c-16.274 0-29.513-13.239-29.513-29.513s13.239-29.513 29.513-29.513h51.961v-23.246c-.001-14.525 15.724-23.603 28.302-16.34z" fill="#ededed"></path></g></g></svg>