<svg clip-rule="evenodd" fill-rule="evenodd" height="512" stroke-linejoin="round" stroke-miterlimit="2" viewBox="0 0 64 64" width="512" xmlns="http://www.w3.org/2000/svg"><g id="Exp-2.-F"><g fill="#347bfa"><path d="m5.061 34.389c5.109-2.222 5.877-5.062 5.767-6.923-.015-2.175-1.802-3.951-3.999-3.951-1.991 0-3.644 1.458-3.95 3.363-.087.545.284 1.059.829 1.146.545.088 1.059-.284 1.146-.829.153-.952.98-1.68 1.975-1.68 1.104 0 2 .896 2 2 0 .02.001.041.002.061.085 1.394-.731 3.31-4.567 4.979-.507.22-.739.81-.519 1.316.221.506.81.738 1.316.518z"/><path d="m5.023 34.404c7.597-2.939 12.124-5.817 20.653-5.932.552-.008.994-.462.986-1.014-.007-.551-.461-.993-1.013-.986-8.809.119-13.502 3.031-21.347 6.067-.515.199-.771.779-.572 1.294.199.514.779.771 1.293.571z"/><path d="m5.229 40.296c8.21-5.638 12.854-7.632 29.445-7.824 17.911-.208 20.605-9.258 20.453-12.98-.011-3.573-2.919-6.474-6.499-6.474-3.588 0-6.5 2.913-6.5 6.5 0 2.462 1.371 4.607 3.392 5.709.484.265 1.092.086 1.357-.399.264-.484.085-1.092-.399-1.356-1.399-.764-2.35-2.249-2.35-3.954 0-2.484 2.016-4.5 4.5-4.5 2.483 0 4.5 2.016 4.5 4.5 0 .014 0 .029.001.043.142 3.287-2.593 10.727-18.478 10.911-17.224.2-22.031 2.322-30.555 8.176-.455.312-.57.935-.258 1.39.313.455.936.571 1.391.258z"/><path d="m23.265 40.27c2.737-2.066 8.219-2.483 12.157-1.075 2.402.859 4.256 2.417 4.247 4.883v.004c0 1.656-1.345 3-3 3-1.656 0-3-1.344-3-3 0-.3.044-.59.126-.863.159-.529-.142-1.087-.67-1.246-.529-.159-1.087.141-1.246.67-.137.456-.21.939-.21 1.439 0 2.76 2.24 5 5 5 2.759 0 4.999-2.239 5-4.998.012-3.342-2.318-5.608-5.574-6.772-4.55-1.627-10.873-1.026-14.035 1.362-.441.332-.528.96-.196 1.4.333.441.961.528 1.401.196z"/><path d="m43.714 35.471c4.371-.228 9.267 1.417 11.087 4.508.28.476.893.635 1.369.355.475-.28.634-.894.354-1.369-2.133-3.625-7.789-5.759-12.914-5.492-.551.029-.975.5-.946 1.051s.499.975 1.05.947z"/></g><path d="m13.448 21.172c2.665.14 6.497-1.076 8.367-2.385.452-.316.563-.94.246-1.392s-.941-.563-1.393-.246c-1.59 1.113-4.849 2.145-7.114 2.026-.552-.029-1.023.395-1.052.946s.395 1.022.946 1.051z" fill="#a4bbdb"/><path d="m19.922 18.771c-3.598-3.311-1.837-9.652 5.277-12.269 3.826-1.407 5.913-2.819 6.963-4.003.181-.307.517-.488.873-.471s.673.23.823.553c3.768 8.942-6.051 23.448-13.936 16.19z" fill="#cadcf0"/><path d="m33.924 2.741c3.587 8.952-6.163 23.245-14.002 16.03-.775-.713-1.301-1.566-1.579-2.492 6.682 6.801 16.865-4.555 15.581-13.538z" fill="#a4bbdb"/><path d="m5.513 54.49c1.518-1.686 4.553-3.261 6.464-3.598.543-.096.907-.616.811-1.159-.096-.544-.615-.907-1.159-.811-2.247.397-5.818 2.247-7.602 4.23-.37.41-.336 1.043.074 1.412s1.043.336 1.412-.074z" fill="#a4bbdb"/><path d="m10.302 50.273c-.203 4.884 5.526 8.123 12.407 4.943 3.7-1.71 6.174-2.187 7.755-2.093.345.089.71-.02.95-.284.239-.264.312-.639.19-.973-3.658-8.987-20.858-12.301-21.302-1.593z" fill="#cadcf0"/><path d="m11.817 46.004c-.886 1.05-1.44 2.459-1.515 4.269-.203 4.884 5.526 8.123 12.407 4.943 3.7-1.71 6.174-2.187 7.755-2.093.315.082.648-.003.886-.22-.033-.01-.065-.023-.097-.037-1.554-.342-4.073-.216-7.979 1.029-7.264 2.315-12.493-1.997-11.612-7.144.044-.258.096-.507.155-.747z" fill="#a4bbdb"/><path d="m43.472 47.535c1.777.217 4.032 1.255 5.592 2.352.451.318 1.076.209 1.393-.242.318-.451.209-1.076-.242-1.393-1.811-1.274-4.439-2.451-6.502-2.702-.547-.067-1.046.324-1.113.872s.324 1.047.872 1.113z" fill="#a4bbdb"/><path d="m48.83 47.885c-3.097 2.473-2.034 7.7 3.57 10.221 2.804 1.261 4.391 2.44 5.228 3.417.173.307.5.493.852.485.352-.007.671-.208.831-.522 3.235-7.055-3.782-18.95-10.481-13.601z" fill="#cadcf0"/><path d="m47.336 50.03c-.846 2.649.785 6.151 5.064 8.076 2.804 1.261 4.391 2.44 5.228 3.417.173.307.5.493.852.485.176-.003.343-.055.487-.146-.176-.11-.314-.277-.389-.479-.808-1.324-2.57-3.048-5.993-5.077-2.95-1.749-4.661-4.052-5.249-6.276z" fill="#a4bbdb"/></g></svg>