<svg viewBox="0 0 512 512" xmlns="http://www.w3.org/2000/svg"><g><path d="M167.994 316c-1.671 0-3.354 3.479-4.794 2.4l-64-48A8 8 0 0 1 104 256h30.92l-29.066-34.879a8 8 0 0 1 12.292-10.242l40 48A8 8 0 0 1 152 272h-24l44.8 33.6c3.535 2.651 2.251 3.666-.4 7.2-1.572 2.1-1.974 3.2-4.406 3.2z" fill="#bbbab6"></path><path d="M176 256h-13.754l-8-32H168a8 8 0 0 0 0-16h-17.754l-4-16H160a8 8 0 0 0 0-16H96a8 8 0 0 0 0 16h13.754l-4 16H88a8 8 0 0 0 0 16h13.754l-8 32H80a8 8 0 0 0 0 16h9.754l-9.515 38.06a8 8 0 1 0 15.522 3.88L106.246 272h43.508l10.485 41.94a8 8 0 0 0 15.522-3.88L166.246 272H176a8 8 0 0 0 0-16zm-46.246-64 4 16h-11.508l4-16zm-19.508 64 8-32h19.508l8 32z" fill="#cdccc8"></path><path d="M72 312h416v176H72z" fill="#ee9d0d"></path><g fill="#cdccc8"><path d="M200 344h32v32h-32zM136 344h32v32h-32zM264 344h32v32h-32zM328 344h32v32h-32zM392 344h32v32h-32z" fill="#cdccc8"></path></g><g fill="#e6e5e0"><path d="M392 352h24v24h-24zM328 352h24v24h-24zM264 352h24v24h-24zM200 352h24v24h-24zM136 352h24v24h-24z" fill="#e6e5e0"></path></g><path d="M168 408h320v80H168z" fill="#932c27"></path><path d="M320 440h32v48h-32zM352 440h32v48h-32z" fill="#cdccc8"></path><path d="M348 440h8v48h-8z" fill="#bbbab6"></path><path d="M312 408h80v32h-80z" fill="#e6e5e0"></path><path d="M312 431h80v9h-80z" fill="#bbbab6"></path><path d="M312 312H200a415.837 415.837 0 0 0 16-114.241V168h80v29.759A415.837 415.837 0 0 0 312 312z" fill="#ee9d0d"></path><path d="M312 312H200c1.24-4.34 2.41-8.71 3.5-13.08h105c1.09 4.37 2.26 8.74 3.5 13.08z" fill="#a86e09"></path><path d="M299.05 248h-86.1q1.935-15.93 2.65-32h80.8q.705 16.065 2.65 32z" fill="#ee9d0d"></path><path d="M299.05 248h-86.1q1.935-15.93 2.65-32h80.8q.705 16.065 2.65 32z" fill="#932c27"></path><path d="M456 312H344a415.837 415.837 0 0 0 16-114.241V168h80v29.759A415.837 415.837 0 0 0 456 312z" fill="#ee9d0d"></path><path d="M456 312H344c1.24-4.34 2.41-8.71 3.5-13.08h105c1.09 4.37 2.26 8.74 3.5 13.08z" fill="#a86e09"></path><path d="M443.05 248h-86.1q1.935-15.93 2.65-32h80.8q.705 16.065 2.65 32z" fill="#ee9d0d"></path><path d="M443.05 248h-86.1q1.935-15.93 2.65-32h80.8q.705 16.065 2.65 32z" fill="#932c27"></path><path d="M256 88a24 24 0 0 0-24-24h-24V48a24 24 0 0 0-24-24H40a16 16 0 0 0-16 16 16 16 0 0 0 16 16h16.06a17.179 17.179 0 0 0 17.131 16H176a32 32 0 0 0 32 32h5.75A18.25 18.25 0 0 1 232 122.25V168h48v-56a24 24 0 0 0-24-24zM424 168v-40a24 24 0 0 0-24-24h-8a24 24 0 0 0-24-24h-16V48a24 24 0 0 0-24-24h-72v5.675A26.325 26.325 0 0 0 282.325 56H312v32a24 24 0 0 0 24 24h24a24 24 0 0 0 24 24h8v32z" fill="#cdccc8"></path><path d="M127.992 160a8 8 0 0 1-6.648-12.439L129.052 136H120a8 8 0 0 1-6.656-12.438l16-24a8 8 0 1 1 13.312 8.876L134.948 120H144a8 8 0 0 1 6.656 12.438l-16 24a7.992 7.992 0 0 1-6.664 3.562z" fill="#932c27"></path><path d="M232 152h48v16h-48zM392 152h32v16h-32z" fill="#bbbab6"></path><path d="M72 488H24v-96l24-32 24 32z" fill="#007af6"></path><path d="M48 360h96l24 32H72z" fill="#0a71cd"></path><path d="M72 392h96v96H72z" fill="#009cf7"></path><path d="M104 448h32v40h-32z" fill="#0a71cd"></path></g></svg>