<?xml version="1.0" encoding="iso-8859-1"?>
<!-- Generator: Adobe Illustrator 19.0.0, SVG Export Plug-In . SVG Version: 6.00 Build 0)  -->
<svg version="1.1" id="Capa_1" xmlns="http://www.w3.org/2000/svg" xmlns:xlink="http://www.w3.org/1999/xlink" x="0px" y="0px"
	 viewBox="0 0 512 512" style="enable-background:new 0 0 512 512;" xml:space="preserve">
<g>
	<path style="fill:#FFD5B3;" d="M461.746,425V193.516H356.34l11.895,14.347c0.673,0.811,0.771,1.398,0.65,1.655
		c-0.121,0.256-0.635,0.556-1.689,0.556h-28.471c-0.552,0-1,0.448-1,1V425H461.746z"/>
	<path style="fill:#FFD5B3;" d="M70.087,359.95c10.759,0,20.606,5.474,26.341,14.642c0.189,0.302,0.514,0.47,0.849,0.47
		c0.161,0,0.324-0.039,0.476-0.121c3.1-1.68,6.614-2.568,10.162-2.568c3.187,0,6.259,0.689,9.131,2.047
		c0.135,0.064,0.281,0.096,0.428,0.096c0.126,0,0.252-0.024,0.371-0.071c0.258-0.104,0.462-0.309,0.562-0.568
		c4.483-11.612,15.85-19.413,28.284-19.413c10.532,0,20.153,5.362,25.736,14.344c0.186,0.299,0.51,0.472,0.849,0.472
		c0.091,0,0.184-0.012,0.274-0.039c0.43-0.123,0.726-0.514,0.726-0.961V211.073c0-0.552-0.448-1-1-1h-28.472
		c-1.054,0-1.568-0.299-1.689-0.556c-0.12-0.256-0.023-0.844,0.65-1.655l11.895-14.347H50.254v173.604
		C55.64,362.645,62.555,359.95,70.087,359.95z"/>
</g>
<g style="opacity:0.1;">
	<path style="opacity:0.1;enable-background:new    ;" d="M70.087,359.95c1.832,0,3.644,0.176,5.42,0.495v-166.93H50.254v173.604
		C55.64,362.645,62.555,359.95,70.087,359.95z"/>
</g>
<path style="fill:#368C0E;" d="M97.669,374.679c-5.592-9.411-15.841-15.729-27.582-15.729C52.367,358.95,38,373.315,38,391.037
	c0,5.405,1.342,10.494,3.703,14.963h48.941C88.343,402.481,87,398.278,87,393.758C87,385.688,91.269,378.617,97.669,374.679z"/>
<path style="opacity:0.1;enable-background:new    ;" d="M66.97,406c-2.361-4.469-3.703-9.558-3.703-14.963
	c0-13.228,8.006-24.582,19.435-29.491c-3.874-1.661-8.132-2.596-12.614-2.596C52.367,358.95,38,373.315,38,391.037
	c0,5.405,1.342,10.494,3.703,14.963H66.97z"/>
<path style="fill:#5DC647;" d="M174.274,370.003c-5.281-9.839-15.642-16.539-27.585-16.539c-13.318,0-24.688,8.323-29.217,20.053
	c-2.898-1.371-6.138-2.144-9.559-2.144c-12.355,0-22.371,10.022-22.371,22.385c0,4.52,1.343,8.724,3.645,12.242h85.086v-35.997
	H174.274z"/>
<path style="fill:#775436;" d="M174.274,404.594H27.79c-2.75,0-5,2.25-5,5V425h151.485L174.274,404.594L174.274,404.594z"/>
<path style="opacity:0.1;enable-background:new    ;" d="M48,425v-15.406c0-2.75,2.25-5,5-5H27.79c-2.75,0-5,2.25-5,5V425H48z"/>
<g>
	<path style="fill:#C6A07D;" d="M241.951,89.434H79.191c-2.75,0-6.202,1.902-7.671,4.227l-61.349,97.063
		c-1.469,2.325-0.421,4.227,2.329,4.227h141.971L241.951,89.434z"/>
	<path style="fill:#C6A07D;" d="M501.829,190.723l-61.35-97.063c-1.469-2.324-4.921-4.227-7.671-4.227h-162.76l87.481,105.516H499.5
		C502.25,194.949,503.298,193.048,501.829,190.723z"/>
</g>
<g style="opacity:0.1;">
	<path d="M35.665,190.723L97.014,93.66c1.469-2.324,4.921-4.227,7.671-4.227H79.191c-2.75,0-6.202,1.902-7.671,4.227l-61.349,97.063
		c-1.469,2.325-0.421,4.227,2.329,4.227h25.494C35.244,194.949,34.196,193.048,35.665,190.723z"/>
</g>
<g>
	<polygon style="fill:#B2762F;" points="341.221,175.279 492.067,175.279 482.586,160.279 328.784,160.279 	"/>
	<polygon style="fill:#B2762F;" points="183.214,160.279 29.413,160.279 19.933,175.279 170.778,175.279 	"/>
	<polygon style="fill:#B2762F;" points="296.45,121.279 457.936,121.279 448.455,106.279 284.014,106.279 	"/>
	<polygon style="fill:#B2762F;" points="227.984,106.279 63.544,106.279 54.063,121.279 215.548,121.279 	"/>
	<polygon style="fill:#B2762F;" points="318.835,148.279 475.002,148.279 465.521,133.279 306.399,133.279 	"/>
	<polygon style="fill:#B2762F;" points="205.6,133.279 46.479,133.279 36.998,148.279 193.163,148.279 	"/>
</g>
<path style="fill:#775436;" d="M369.005,207.225L259.19,74.771c-1.755-2.117-4.627-2.117-6.383,0L142.994,207.225
	c-1.755,2.117-0.941,3.849,1.809,3.849h29.472v-0.551L256,111.95l81.727,98.573v0.551h29.471
	C369.946,211.073,370.76,209.342,369.005,207.225z"/>
<polygon style="fill:#FFFFFF;" points="338.726,425 338.726,210.161 255.999,110.382 173.274,210.161 173.274,425 "/>
<polygon style="opacity:0.1;enable-background:new    ;" points="198.549,425 198.549,210.161 268.636,125.624 255.999,110.382 
	173.274,210.161 173.274,425 "/>
<path style="fill:#775436;" d="M295.259,425V304.914c0-2.75-2.25-5-5-5h-68.518c-2.75,0-5,2.25-5,5V425H295.259z"/>
<path style="opacity:0.1;enable-background:new    ;" d="M242,425V304.914c0-2.75,2.25-5,5-5h-25.259c-2.75,0-5,2.25-5,5V425H242z"
	/>
<path style="fill:#08375E;" d="M235.5,379.075c-4.142,0-7.5-3.357-7.5-7.5v-15.167c0-4.142,3.358-7.5,7.5-7.5s7.5,3.358,7.5,7.5
	v15.167C243,375.718,239.642,379.075,235.5,379.075z"/>
<path style="fill:#64CBFF;" d="M132.092,325.036c0,2.75-2.25,5-5,5H97.907c-2.75,0-5-2.25-5-5v-75.292c0-2.75,2.25-5,5-5h29.185
	c2.75,0,5,2.25,5,5V325.036z"/>
<g style="opacity:0.1;">
	<path d="M118,325.036v-75.292c0-2.75,2.25-5,5-5H97.907c-2.75,0-5,2.25-5,5v75.292c0,2.75,2.25,5,5,5H123
		C120.25,330.036,118,327.786,118,325.036z"/>
</g>
<path style="fill:#64CBFF;" d="M419.092,325.036c0,2.75-2.25,5-5,5h-29.185c-2.75,0-5-2.25-5-5v-75.292c0-2.75,2.25-5,5-5h29.185
	c2.75,0,5,2.25,5,5V325.036z"/>
<g style="opacity:0.1;">
	<path d="M405,325.036v-75.292c0-2.75,2.25-5,5-5h-25.093c-2.75,0-5,2.25-5,5v75.292c0,2.75,2.25,5,5,5H410
		C407.25,330.036,405,327.786,405,325.036z"/>
</g>
<path style="fill:#775436;" d="M414.092,337.536h-29.185c-6.893,0-12.5-5.607-12.5-12.5v-75.292c0-6.893,5.607-12.5,12.5-12.5
	h29.185c6.893,0,12.5,5.607,12.5,12.5v75.292C426.592,331.929,420.984,337.536,414.092,337.536z M387.407,322.536h24.185v-70.292
	h-24.185V322.536z"/>
<path style="fill:#FFC502;" d="M234.092,238.108c-1.816,0-3.289-1.473-3.289-3.29v-28.507c0-12.092,9.838-21.93,21.929-21.93h6.537
	c12.091,0,21.929,9.838,21.929,21.93v28.507c0,1.817-1.473,3.29-3.29,3.29H234.092z"/>
<g style="opacity:0.1;">
	<path d="M256,234.818v-28.507c0-8.756,5.161-16.327,12.599-19.84c-2.833-1.338-5.995-2.09-9.33-2.09h-6.537
		c-12.091,0-21.929,9.838-21.929,21.93v28.507c0,1.817,1.473,3.29,3.289,3.29h25.197C257.473,238.108,256,236.636,256,234.818z"/>
</g>
<path style="fill:#775436;" d="M277.907,245.608h-43.815c-5.949,0-10.789-4.84-10.789-10.79v-28.507
	c0-16.227,13.202-29.43,29.429-29.43h6.537c16.227,0,29.429,13.202,29.429,29.43v28.507
	C288.697,240.768,283.857,245.608,277.907,245.608z M238.303,230.608h35.395v-24.297c0-7.956-6.473-14.43-14.429-14.43h-6.537
	c-7.956,0-14.429,6.473-14.429,14.43L238.303,230.608L238.303,230.608z"/>
<path style="fill:#C6A07D;" d="M504.5,438.816H7.5c-4.142,0-7.5-3.357-7.5-7.5c0-4.142,3.358-7.5,7.5-7.5h497
	c4.142,0,7.5,3.358,7.5,7.5C512,435.459,508.642,438.816,504.5,438.816z"/>
<path style="fill:#775436;" d="M127.092,337.536H97.907c-6.893,0-12.5-5.607-12.5-12.5v-75.292c0-6.893,5.607-12.5,12.5-12.5h29.185
	c6.893,0,12.5,5.607,12.5,12.5v75.292C139.592,331.929,133.984,337.536,127.092,337.536z M100.407,322.536h24.185v-70.292h-24.185
	V322.536z"/>
<g>
</g>
<g>
</g>
<g>
</g>
<g>
</g>
<g>
</g>
<g>
</g>
<g>
</g>
<g>
</g>
<g>
</g>
<g>
</g>
<g>
</g>
<g>
</g>
<g>
</g>
<g>
</g>
<g>
</g>
</svg>
