<svg viewBox="0 0 60 60" xmlns="http://www.w3.org/2000/svg"><g><path d="m44.08 39.53-2.66 9.03A1.992 1.992 0 0 1 39.5 50h-19a1.992 1.992 0 0 1-1.92-1.44l-2.66-9.03zM44.08 20.47l-2.66-9.03A1.992 1.992 0 0 0 39.5 10h-19a1.992 1.992 0 0 0-1.92 1.44l-2.66 9.03z" fill="#d19d2a"></path><path d="M22 15V3a2.006 2.006 0 0 1 2-2h12a2.006 2.006 0 0 1 2 2v12zM38 45v12a2.006 2.006 0 0 1-2 2H24a2.006 2.006 0 0 1-2-2V45z" fill="#6d4141"></path><circle cx="30" cy="30" fill="#ffffff" r="17"></circle><path d="M46.53 34H49a2.006 2.006 0 0 0 2-2v-4a2.006 2.006 0 0 0-2-2h-2.47z" fill="#d19d2a"></path><g fill="#c9dceb"><path d="M30 20a1 1 0 0 1-1-1v-2a1 1 0 0 1 2 0v2a1 1 0 0 1-1 1zM22.222 23.222a1 1 0 0 1-.707-.293L20.1 21.515a1 1 0 0 1 1.415-1.415l1.414 1.414a1 1 0 0 1-.707 1.707zM19 31h-2a1 1 0 0 1 0-2h2a1 1 0 0 1 0 2zM20.808 40.192a1 1 0 0 1-.707-1.707l1.414-1.414a1 1 0 1 1 1.414 1.414L21.515 39.9a1 1 0 0 1-.707.292zM30 44a1 1 0 0 1-1-1v-2a1 1 0 0 1 2 0v2a1 1 0 0 1-1 1zM39.192 40.192a1 1 0 0 1-.707-.293l-1.414-1.414a1 1 0 0 1 1.414-1.414l1.415 1.414a1 1 0 0 1-.707 1.707zM43 31h-2a1 1 0 0 1 0-2h2a1 1 0 0 1 0 2zM37.778 23.222a1 1 0 0 1-.707-1.707l1.414-1.415a1 1 0 0 1 1.415 1.415l-1.414 1.414a1 1 0 0 1-.708.293z" fill="#c9dceb"></path></g><path d="M30 30.99a1 1 0 0 1-.914-.594l-4-8.99a1 1 0 1 1 1.828-.812l3.686 8.284 5.237-.864a1 1 0 1 1 .326 1.972l-6 .991a1 1 0 0 1-.163.013z" fill="#282d60"></path><path d="M30 48a18 18 0 1 1 18-18 18.021 18.021 0 0 1-18 18zm0-34a16 16 0 1 0 16 16 16.019 16.019 0 0 0-16-16z" fill="#e2b137"></path><circle cx="30" cy="30" fill="#e2b137" r="2"></circle></g></svg>