<svg viewBox="0 0 512 512" xmlns="http://www.w3.org/2000/svg"><g><path d="M481.158 10.819H95.922c-6.344.197-14.776 2.989-20.856 8.765l-68.64 68.64C2.734 91.92 0 98.052 0 105.333v365.008c0 17.003 13.836 30.841 30.842 30.841h450.315c17.005 0 30.843-13.838 30.843-30.841V41.659c0-17.007-13.837-30.84-30.842-30.84z" fill="#8dd83d"></path><path d="M19.926 470.341V105.333c0-9.733 4.734-15.361 6.073-16.758l68.998-68.998c8.371-8.371 20.85-8.759 20.85-8.759H95.922c-6.344.197-14.776 2.989-20.856 8.765l-68.64 68.64C2.734 91.92 0 98.052 0 105.333v365.008c0 17.003 13.836 30.841 30.842 30.841h19.926c-17.006 0-30.842-13.838-30.842-30.841z" fill="#7fc928"></path><path d="M470.897 46.768c-393.906 0-370.021-.733-372.264 1.509-65.591 65.591-62.682 61.768-62.682 64.816v346.988a5.151 5.151 0 0 0 5.151 5.151h429.795a5.151 5.151 0 0 0 5.151-5.151V51.92a5.151 5.151 0 0 0-5.151-5.152z" fill="#3bbc56"></path><path d="M56.893 460.081c0-371.431-.735-348.386 1.509-350.63 65.591-65.591 61.767-62.682 64.816-62.682-22.387 0-22.572-.503-24.584 1.509-65.591 65.591-62.682 61.768-62.682 64.816v346.988a5.151 5.151 0 0 0 5.151 5.151h20.942a5.153 5.153 0 0 1-5.152-5.152z" fill="#31aa45"></path><path d="M178.171 312.056a7.727 7.727 0 0 0-7.727-7.727h-18.798a7.727 7.727 0 0 0-7.727 7.727v73.773a7.727 7.727 0 0 0 15.454 0v-66.046h11.071a7.727 7.727 0 0 0 7.727-7.727zM151.646 210.597h18.798a7.727 7.727 0 0 0 0-15.454h-11.071V126.17a7.727 7.727 0 0 0-15.454 0v76.701a7.727 7.727 0 0 0 7.727 7.726z" fill="#dddddd"></path><path d="M88.258 237.892h82.186a7.727 7.727 0 0 0 0-15.454H95.985v-36.934a7.727 7.727 0 0 0-15.454 0v44.661a7.728 7.728 0 0 0 7.727 7.727zM170.444 249.736h-18.798a7.727 7.727 0 0 0 0 15.454h18.798a7.727 7.727 0 0 0 0-15.454zM170.444 277.034h-18.798a7.727 7.727 0 0 0 0 15.454h18.798a7.727 7.727 0 0 0 0-15.454zM361.066 304.329h-18.798a7.727 7.727 0 0 0 0 15.454h18.798a7.727 7.727 0 0 0 0-15.454zM379.59 162.154v32.99h-37.324a7.727 7.727 0 0 0 0 15.454h45.051a7.727 7.727 0 0 0 7.727-7.727v-40.717a7.727 7.727 0 0 0-15.454 0zM361.066 222.439h-18.798a7.727 7.727 0 0 0 0 15.454h18.798a7.727 7.727 0 0 0 0-15.454zM361.066 249.736h-18.798a7.727 7.727 0 0 0 0 15.454h18.798a7.727 7.727 0 0 0 0-15.454zM361.066 277.034h-18.798a7.727 7.727 0 0 0 0 15.454h18.798a7.727 7.727 0 0 0 0-15.454zM310.949 369.9a7.728 7.728 0 0 0 7.727-7.727v-18.798a7.727 7.727 0 0 0-15.454 0v18.798a7.727 7.727 0 0 0 7.727 7.727zM201.763 369.9a7.728 7.728 0 0 0 7.727-7.727v-18.798a7.727 7.727 0 0 0-15.454 0v18.798a7.726 7.726 0 0 0 7.727 7.727zM229.059 369.9a7.728 7.728 0 0 0 7.727-7.727v-18.798a7.728 7.728 0 0 0-15.454 0v18.798a7.727 7.727 0 0 0 7.727 7.727zM256.355 369.9a7.728 7.728 0 0 0 7.727-7.727v-18.798a7.727 7.727 0 0 0-15.454 0v18.798a7.728 7.728 0 0 0 7.727 7.727zM283.653 335.649a7.727 7.727 0 0 0-7.727 7.727v18.798a7.727 7.727 0 0 0 15.454 0v-18.798a7.727 7.727 0 0 0-7.727-7.727zM310.949 179.277a7.727 7.727 0 0 0 7.727-7.727v-18.796a7.727 7.727 0 0 0-15.454 0v18.796a7.727 7.727 0 0 0 7.727 7.727zM201.763 179.277a7.727 7.727 0 0 0 7.727-7.727v-18.796a7.727 7.727 0 0 0-15.454 0v18.796a7.726 7.726 0 0 0 7.727 7.727zM229.059 179.277a7.727 7.727 0 0 0 7.727-7.727v-18.796a7.728 7.728 0 0 0-15.454 0v18.796a7.727 7.727 0 0 0 7.727 7.727zM256.355 179.277a7.727 7.727 0 0 0 7.727-7.727v-18.796a7.727 7.727 0 0 0-15.454 0v18.796a7.728 7.728 0 0 0 7.727 7.727zM283.653 145.028a7.727 7.727 0 0 0-7.727 7.727v18.796a7.727 7.727 0 0 0 15.454 0v-18.796a7.727 7.727 0 0 0-7.727-7.727zM310.949 133.896a7.727 7.727 0 0 0 7.727-7.727V115.1h90.085a7.727 7.727 0 0 0 0-15.454h-97.812a7.727 7.727 0 0 0-7.727 7.727v18.796a7.727 7.727 0 0 0 7.727 7.727zM201.763 133.896a7.727 7.727 0 0 0 7.727-7.727v-18.796a7.727 7.727 0 0 0-15.454 0v18.796a7.726 7.726 0 0 0 7.727 7.727zM283.653 99.647a7.727 7.727 0 0 0-7.727 7.727v18.796a7.727 7.727 0 0 0 15.454 0v-18.796a7.727 7.727 0 0 0-7.727-7.727zM229.059 133.896a7.727 7.727 0 0 0 7.727-7.727v-18.796a7.728 7.728 0 0 0-15.454 0v18.796a7.727 7.727 0 0 0 7.727 7.727zM341.866 396.9h-23.19v-11.071a7.727 7.727 0 0 0-15.454 0v18.798a7.727 7.727 0 0 0 7.727 7.727h30.916a7.727 7.727 0 0 0 .001-15.454zM283.653 378.102a7.727 7.727 0 0 0-7.727 7.727V396.9h-11.844v-11.071a7.727 7.727 0 0 0-15.454 0V396.9h-11.843v-11.071a7.728 7.728 0 0 0-15.454 0V396.9h-51.667a7.727 7.727 0 0 0 0 15.454h113.987a7.727 7.727 0 0 0 7.727-7.727v-18.798a7.725 7.725 0 0 0-7.725-7.727zM423.742 250.177h-36.423a7.727 7.727 0 0 0 0 15.454h28.696v11.403h-28.696a7.727 7.727 0 0 0 0 15.454h28.696v11.842h-28.696a7.727 7.727 0 0 0 0 15.454h28.696v42.391a7.727 7.727 0 0 0 15.454 0v-104.27a7.728 7.728 0 0 0-7.727-7.728z" fill="#dddddd"></path><path d="M423.742 114.626a7.727 7.727 0 0 0-7.727 7.727v100.086h-28.696a7.727 7.727 0 0 0 0 15.454h36.423a7.727 7.727 0 0 0 7.727-7.727V122.352a7.727 7.727 0 0 0-7.727-7.726zM122.036 277.034H95.985V265.19h26.05a7.727 7.727 0 0 0 0-15.454H88.257a7.727 7.727 0 0 0-7.727 7.727l.002.03V362.173a7.727 7.727 0 0 0 15.454 0v-69.686h26.051a7.727 7.727 0 1 0-.001-15.453z" fill="#dddddd"></path><path d="M423.742 130.079c-12.521 0-22.708-10.186-22.708-22.706 0-12.521 10.187-22.708 22.708-22.708s22.708 10.187 22.708 22.708c-.001 12.521-10.188 22.706-22.708 22.706zm0-29.959c-4 0-7.254 3.254-7.254 7.254 0 3.999 3.254 7.252 7.254 7.252s7.254-3.253 7.254-7.252c0-4-3.255-7.254-7.254-7.254zM151.646 130.079c-12.52 0-22.707-10.186-22.707-22.706 0-12.521 10.186-22.708 22.707-22.708s22.708 10.187 22.708 22.708-10.187 22.706-22.708 22.706zm0-29.959c-3.999 0-7.253 3.254-7.253 7.254 0 3.999 3.254 7.252 7.253 7.252 4 0 7.254-3.253 7.254-7.252 0-4-3.254-7.254-7.254-7.254zM88.258 190.441c-12.521 0-22.707-10.186-22.707-22.706 0-12.521 10.186-22.708 22.707-22.708 12.52 0 22.707 10.187 22.707 22.708 0 12.52-10.186 22.706-22.707 22.706zm0-29.96c-4 0-7.254 3.254-7.254 7.254 0 3.999 3.254 7.252 7.254 7.252 3.999 0 7.253-3.253 7.253-7.252 0-3.999-3.254-7.254-7.253-7.254zM88.258 399.86c-12.521 0-22.707-10.186-22.707-22.706 0-12.521 10.186-22.708 22.707-22.708 12.52 0 22.707 10.187 22.707 22.708 0 12.52-10.186 22.706-22.707 22.706zm0-29.96c-4 0-7.254 3.254-7.254 7.254 0 3.999 3.254 7.252 7.254 7.252 3.999 0 7.253-3.253 7.253-7.252 0-3.999-3.254-7.254-7.253-7.254zM423.742 399.86c-12.521 0-22.708-10.186-22.708-22.706 0-12.521 10.187-22.708 22.708-22.708s22.708 10.187 22.708 22.708c-.001 12.52-10.188 22.706-22.708 22.706zm0-29.96c-4 0-7.254 3.254-7.254 7.254 0 3.999 3.254 7.252 7.254 7.252s7.254-3.253 7.254-7.252c0-3.999-3.255-7.254-7.254-7.254zM151.646 427.332c-12.52 0-22.707-10.186-22.707-22.706 0-12.521 10.186-22.708 22.707-22.708s22.708 10.187 22.708 22.708-10.187 22.706-22.708 22.706zm0-29.959c-3.999 0-7.253 3.254-7.253 7.254 0 3.999 3.254 7.252 7.253 7.252 4 0 7.254-3.253 7.254-7.252 0-4-3.254-7.254-7.254-7.254zM387.317 166.502c-12.52 0-22.706-10.187-22.706-22.708s10.186-22.708 22.706-22.708c12.521 0 22.708 10.187 22.708 22.708s-10.187 22.708-22.708 22.708zm0-29.962c-3.999 0-7.252 3.254-7.252 7.254s3.253 7.254 7.252 7.254c4 0 7.254-3.254 7.254-7.254s-3.254-7.254-7.254-7.254zM361.066 427.332c-12.521 0-22.708-10.186-22.708-22.706 0-12.521 10.187-22.708 22.708-22.708 12.52 0 22.706 10.187 22.706 22.708s-10.186 22.706-22.706 22.706zm0-29.959c-4 0-7.254 3.254-7.254 7.254 0 3.999 3.254 7.252 7.254 7.252 3.999 0 7.252-3.253 7.252-7.252 0-4-3.253-7.254-7.252-7.254z" fill="#f2d422"></path><path d="M315.87 343.376H196.916c-14.333 0-25.995-11.661-25.995-25.996V198.427c0-14.335 11.662-25.995 25.995-25.995H315.87c14.333 0 25.995 11.661 25.995 25.995V317.38c.001 14.335-11.662 25.996-25.995 25.996z" fill="#989da0"></path><path d="M311.023 300.172c0 6.828-5.535 12.363-12.363 12.363h-84.534c-6.828 0-12.363-5.535-12.363-12.363v-84.536c0-6.828 5.535-12.363 12.363-12.363h84.534c6.828 0 12.363 5.535 12.363 12.363v84.536z" fill="#585a60"></path><path d="M191.484 317.38V198.427c0-14.335 11.662-25.995 25.995-25.995h-20.563c-14.333 0-25.995 11.661-25.995 25.995V317.38c0 14.335 11.662 25.996 25.995 25.996h20.563c-14.334 0-25.995-11.661-25.995-25.996z" fill="#838384"></path><path d="M222.325 300.172v-84.536c0-6.828 5.535-12.363 12.363-12.363h-20.563c-6.828 0-12.363 5.535-12.363 12.363v84.536c0 6.828 5.535 12.363 12.363 12.363h20.563c-6.828 0-12.363-5.535-12.363-12.363z" fill="#414356"></path></g></svg>