<svg viewBox="0 0 512 512" xmlns="http://www.w3.org/2000/svg"><g><g fill="#c9c4bd" fill-rule="evenodd"><path d="M493.89 257.83q-242.646-242.865-475.78 0 233.135 242.867 475.78 0zm-237.8-94.082a94.084 94.084 0 1 1-66.527 27.552 93.789 93.789 0 0 1 66.526-27.552z" fill="#c9c4bd"></path><path d="M184.312 489.516a6.754 6.754 0 0 1-13.05-3.488l11.8-44.049a6.753 6.753 0 0 1 13.049 3.487zM340.917 486.028a6.754 6.754 0 0 1-13.05 3.488l-11.8-44.05a6.754 6.754 0 0 1 13.05-3.487zM474.8 404.688a6.762 6.762 0 0 1-9.563 9.563L432.988 382a6.762 6.762 0 1 1 9.563-9.563zM46.944 414.251a6.762 6.762 0 0 1-9.563-9.563l32.247-32.247A6.762 6.762 0 1 1 79.191 382zM171.262 25.972a6.754 6.754 0 0 1 13.05-3.488l11.8 44.05a6.753 6.753 0 0 1-13.049 3.487zM327.867 22.484a6.754 6.754 0 1 1 13.05 3.488l-11.8 44.049a6.754 6.754 0 0 1-13.05-3.487zM465.235 97.749a6.762 6.762 0 1 1 9.563 9.563l-32.247 32.247a6.762 6.762 0 0 1-9.563-9.559zM37.381 107.312a6.762 6.762 0 1 1 9.563-9.563L79.191 130a6.762 6.762 0 1 1-9.563 9.563zM313.053 200.867a80.561 80.561 0 1 0 23.594 56.963 80.311 80.311 0 0 0-23.594-56.963zm-56.964 11.427a6.763 6.763 0 0 1 0-13.525 59.507 59.507 0 0 1 7.323.453 58.736 58.736 0 0 1 7.194 1.356 6.753 6.753 0 1 1-3.276 13.1 45.381 45.381 0 0 0-5.556-1.038 46.065 46.065 0 0 0-5.685-.348zm29.517 10.837a6.745 6.745 0 1 1 8.77-10.25 58.983 58.983 0 0 1 20.775 44.949 6.763 6.763 0 1 1-13.525 0 45.381 45.381 0 0 0-16.02-34.7z" fill="#c9c4bd"></path></g></g></svg>