<svg viewBox="0 0 512 512" xmlns="http://www.w3.org/2000/svg"><g><path d="m314.207 297.166-29.024-7.592-29.121 122.545-.062-.234-7.085 25.112L256 476.851h14.14zM33.042 222.426h33.043v-30H48.042V65.149h18.043v-30H33.042l-7.957 90.766z" fill="#ff884d"></path><path d="M0 35.149v30h18.042v127.277H0v30h33.042V35.149z" fill="#ffb366"></path><path d="M238.958 65.149H257v-30h-63.042l-7.5 13.83 7.5 16.17h15v127.277h-15l-6.49 17.744 6.49 12.256H257v-30h-18.042z" fill="#ff884d"></path><path d="M178.958 192.426V65.149h15v-30h-63.043v30h18.043v127.277h-18.043v30h63.043v-30z" fill="#ffb366"></path><path d="M512 65.149v-30h-93.042l-8 96.383 8 90.894H512v-30h-18.042V65.149zm-48.042 127.277h-30V65.149h30z" fill="#ff884d"></path><path d="M325.915 35.149v30h18.042v127.277h-18.042v30h93.042V35.149zm48.043 157.277V65.149h30v127.277z" fill="#ffb366"></path><path d="M164.83 319.574v-30H82.415l-6.985 12.511 6.985 17.489h39.251L97.355 412.12l-14.94-57.121-6.985 50.916 6.985 70.936h82.415v-30h-45.581l33.435-127.277z" fill="#ff884d"></path><path d="M73.149 319.574h9.266v-30H0v30h12.042v127.277H0v30h82.415V354.999zm-31.107 0h.098l33.29 127.277H42.042z" fill="#ffb366"></path><path d="m429.585 354.999-8.415 72.703 8.415 49.149H512v-30h-12.042V319.574H512v-30h-82.415l-10.628 13.532 10.628 16.468h9.266zm40.373 91.852H436.57l33.29-127.277h.098z" fill="#ff884d"></path><g fill="#ffb366"><path d="M347.17 319.574v-30h82.415v30h-39.251l24.311 92.546 14.94-57.121v121.852H347.17v-30h45.581l-33.435-127.277zM226.808 289.559l-29.015 7.622 44.256 179.67H256v-64.966z" fill="#ffb366"></path></g></g></svg>