<svg viewBox="0 0 256 256" xmlns="http://www.w3.org/2000/svg"><g><path d="m128 55 21 25.2c1.5 1.8 4.2 1.8 5.7 0l39.5-47.7c1.6-1.9 1.8-4.6.6-6.8L187.4 13zM128 55l-21 25.2c-1.5 1.8-4.2 1.8-5.7 0L61.8 32.5c-1.6-1.9-1.8-4.6-.6-6.8L68.6 13z" fill="#eaeaea"></path><path d="M187.4 13H68.6L128 55z" fill="#d3d3d3"></path><path d="m128 55-20.2 24.2 5 12.6h30.4l5-12.6z" fill="#4573a0"></path><path d="m96.6 213.4 2.9 3 58.5-29.5-3.9-25.3-56.6 28.5-2.7 17.5c-.4 2.2.3 4.3 1.8 5.8z" fill="#7caee0"></path><path d="m117.5 234.6 41.8-21.1.1-.1c1.5-1.5 2.2-3.7 1.9-5.8l-3.2-20.8-58.5 29.5z" fill="#5a88bf"></path><path d="m131.8 241.4 27.5-27.9-41.8 21.1 6.7 6.8c2.1 2.1 5.5 2.1 7.6 0z" fill="#7caee0"></path><path d="m102.1 160.6-4.6 29.6 56.6-28.6-4-25.3zM143.2 91.8h-30.4l-6.1 39.2 39.5-20z" fill="#5a88bf"></path><path d="m146.2 111-39.5 20-4.6 29.6 48-24.3z" fill="#7caee0"></path></g></svg>