<svg viewBox="0 0 512 512" xmlns="http://www.w3.org/2000/svg"><g><path d="M487.024 280.975H355.902v-49.951h131.122C500.818 231.024 512 242.206 512 256c0 13.794-11.182 24.975-24.976 24.975z" fill="#c7d1db"></path><path d="M355.902 280.975h75.025c2.623-7.857 4.065-16.249 4.065-24.976s-1.442-17.119-4.065-24.976h-75.025z" fill="#b8c2cc"></path><path d="M355.902 280.975H24.976C11.182 280.975 0 269.794 0 256c0-13.794 11.182-24.976 24.976-24.976h330.927c13.794 0 24.976 11.182 24.976 24.976-.001 13.794-11.183 24.975-24.977 24.975z" fill="#9be69d"></path><path d="M355.902 231.024h-75.025c-2.623 7.857-4.065 16.249-4.065 24.976s1.442 17.119 4.065 24.976h75.025c13.794 0 24.976-11.182 24.976-24.976 0-13.794-11.182-24.976-24.976-24.976z" fill="#6fd7a3"></path><circle cx="355.902" cy="256" fill="#688ed5" r="49.951"></circle><path d="M381.599 213.162a49.709 49.709 0 0 1 7.114 25.697c0 27.587-22.364 49.951-49.951 49.951-9.399 0-18.188-2.6-25.697-7.114 8.735 14.53 24.649 24.255 42.837 24.255 27.587 0 49.951-22.364 49.951-49.951 0-18.189-9.724-34.102-24.254-42.838z" fill="#4172ca"></path><circle cx="355.902" cy="256" fill="#30569f" r="18.732"></circle></g></svg>