<svg viewBox="0 0 59 51" xmlns="http://www.w3.org/2000/svg"><g><g fill="none" fill-rule="nonzero" transform="translate(0 -1)"><path d="M58 6.97v6a2.006 2.006 0 0 1-2 2h-3v-4a1 1 0 0 0-1-1H22.47l1.54-2.72c.186-.443.44-.854.75-1.22a2.853 2.853 0 0 1 2.21-1.06H56a2.006 2.006 0 0 1 2 2z" fill="#bdc3c7"></path><path d="M41.86 22H37a1 1 0 0 1 0-2h4.86a2 2 0 0 0 1.827-1.186l1.88-4.221a1 1 0 1 1 1.827.814l-1.88 4.22A4 4 0 0 1 41.86 22z" fill="#7f8c8d"></path><path d="M53 10.97v4a1 1 0 0 1-1 1H23.41a2.931 2.931 0 0 1-2.18-3.66 2.6 2.6 0 0 1 .16-.44l1.08-1.9H52a1 1 0 0 1 1 1z" fill="#95a5a5"></path><path d="M56 4.97h-7V2a1.007 1.007 0 0 1 1.07-1C56 1.39 56 4.97 56 4.97zM24.76 6.03c-.31.366-.564.777-.75 1.22l-1.54 2.72-1.08 1.9a2.6 2.6 0 0 0-.16.44c-.12-.11-.24-.22-.35-.34a7.954 7.954 0 0 1-1.85-6.08 1.218 1.218 0 0 1 1.69-1.01 18.05 18.05 0 0 0 4.04 1.15z" fill="#7f8c8d"></path><path d="M40 18.97a3 3 0 0 1-3 3h-8c.13 0 .261.01.39.03a2.948 2.948 0 0 1 2.44 2c.113.31.17.64.17.97 0 .796-.317 1.558-.88 2.12a2.952 2.952 0 0 1-2.12.88h-2c.13 0 .261.01.39.03a2.948 2.948 0 0 1 2.44 2c.113.31.17.64.17.97 0 .796-.317 1.558-.88 2.12a2.952 2.952 0 0 1-2.12.88h-2c.13 0 .261.01.39.03a2.948 2.948 0 0 1 2.44 2c.113.31.17.64.17.97a3 3 0 0 1-3 3H12a7.227 7.227 0 0 1-3.71-1.03L6.71 38A7.227 7.227 0 0 0 3 36.97a3 3 0 0 1-3-3v-15a3 3 0 0 1 3-3h.88a9.965 9.965 0 0 0 4.06-.86l5.12-2.28a9.965 9.965 0 0 1 4.06-.86h3.76c.11.12.23.23.35.34a2.931 2.931 0 0 0 2.18 3.66H37c.13 0 .261.01.39.03a2.948 2.948 0 0 1 2.44 2c.113.31.17.64.17.97z" fill="#fdd7ad"></path><path d="M58 37.1h-2.051c-.48-4.73-4.22-8.47-8.949-8.951V26.1a1 1 0 0 0-2 0v2.051a10.015 10.015 0 0 0-8.949 8.949H34a1 1 0 0 0 0 2h2.051A10.015 10.015 0 0 0 45 48.047V50.1a1 1 0 0 0 2 0v-2.053a10.015 10.015 0 0 0 8.949-8.947H58a1 1 0 0 0 0-2zm-11 8.929V44.1a1 1 0 0 0-2 0v1.931a8.008 8.008 0 0 1-6.931-6.931H40a1 1 0 0 0 0-2h-1.931A8.007 8.007 0 0 1 45 30.168V32.1a1 1 0 0 0 2 0v-1.93a8.007 8.007 0 0 1 6.931 6.93H52a1 1 0 0 0 0 2h1.931A8.008 8.008 0 0 1 47 46.029z" fill="#e64c3c"></path><circle cx="46" cy="38.098" fill="#e64c3c" r="1"></circle><g fill="#f9c795"><path d="M31.83 24H17a1 1 0 0 1 0-2h12.39a2.948 2.948 0 0 1 2.44 2zM29.83 30H15a1 1 0 0 1 0-2h12.39a2.948 2.948 0 0 1 2.44 2zM39.83 18H20a1 1 0 0 1 0-2h17.39a2.948 2.948 0 0 1 2.44 2zM27.83 36H13a1 1 0 0 1 0-2h12.39a2.948 2.948 0 0 1 2.44 2z" fill="#f9c795"></path></g></g></g></svg>