<svg viewBox="0 0 512 512" xmlns="http://www.w3.org/2000/svg"><g><path d="M439.789 435.225V154.519c0-14.792-11.991-26.783-26.783-26.783H60.87c-14.792 0-26.783 11.991-26.783 26.783v280.706c0 14.792 11.991 26.783 26.783 26.783h352.138c14.791-.001 26.781-11.992 26.781-26.783z" fill="#eff3f5"></path><path d="M451.13 127.735h-41.874c14.792 0 26.783 11.991 26.783 26.783v280.706c0 14.792-11.991 26.784-26.783 26.784h41.874c14.792 0 26.783-11.991 26.783-26.784V154.519c0-14.792-11.991-26.784-26.783-26.784z" fill="#daeaef"></path><path d="M70.355 379.833V171.072a7.068 7.068 0 0 1 7.068-7.068h357.153a7.068 7.068 0 0 1 7.068 7.068v208.761a7.069 7.069 0 0 1-7.068 7.069h-27.842L396 378H118l-12.735 8.902H77.424a7.07 7.07 0 0 1-7.069-7.069z" fill="#cbe2ff"></path><path d="M472.96 435.97v-10.037a2.764 2.764 0 0 0-2.764-2.764H12.8c-7.069 0-12.8 5.731-12.8 12.8 0 27.156 22.014 49.169 49.169 49.169H423.79c27.156.001 49.17-22.012 49.17-49.168z" fill="#c9e2e7"></path><path d="M499.2 423.17h-29.074v12.8c0 27.156-22.014 49.169-49.169 49.169h41.874c27.156 0 49.169-22.014 49.169-49.169 0-7.069-5.731-12.8-12.8-12.8z" fill="#a8d0d5"></path><path d="M173.792 423.17v15.492c0 8.556 6.936 15.492 15.492 15.492h133.431c8.556 0 15.492-6.936 15.492-15.492V423.17z" fill="#8db9c2"></path><path d="M105.265 89.268v297.634h265.263V80.268l-247.184-.613z" fill="#f9f6f6"></path><path d="M364.861 80.268v306.634h41.874V89.268l-36.207-9z" fill="#e7ecf1"></path><path d="M370.528 34.979a8.118 8.118 0 0 0-8.117-8.118H113.383a8.118 8.118 0 0 0-8.118 8.118v54.29h265.263z" fill="#fbbe66"></path><path d="M406.735 89.268v-54.29a8.118 8.118 0 0 0-8.118-8.118h-41.873a8.118 8.118 0 0 1 8.117 8.118v54.29z" fill="#fcb143"></path><path d="m217.728 282.302 10.856 5.535 12.259 47.58a7.259 7.259 0 0 1-5.218 8.84l-8.77 2.26a7.26 7.26 0 0 1-7.87-3.032l-29.984-45.449 2.408-8.952z" fill="#7ba0b0"></path><path d="m176.097 242.423-26.779 6.9c-8.294 2.137-13.285 10.592-11.148 18.886l3.869 15.016c2.137 8.293 10.592 13.285 18.886 11.148l26.779-6.9z" fill="#a8d0d5"></path><path d="M300.448 147.629c-10.113 33.145-36.798 58.979-70.799 67.739l-60.665 15.63c-5.935 1.529-9.507 7.58-7.978 13.516l11.905 46.208c1.529 5.935 7.58 9.507 13.516 7.978l60.665-15.63c34.001-8.76 69.847.963 94.717 25.095z" fill="#c9e2e7"></path><path d="m221.049 217.584-52.066 13.414c-5.935 1.529-9.507 7.58-7.978 13.516l11.905 46.208c1.529 5.935 7.58 9.507 13.516 7.978l52.066-13.414zM357.63 318.87c7.817-2.014 12.521-9.984 10.507-17.8l-41.21-159.95c-2.014-7.817-9.983-12.521-17.8-10.507-7.817 2.014-12.521 9.984-10.507 17.8l41.21 159.95c2.013 7.816 9.983 12.521 17.8 10.507z" fill="#fc8086"></path><path d="M277.076 65.791H138.221a7.726 7.726 0 1 1 0-15.452h138.856a7.726 7.726 0 1 1-.001 15.452z" fill="#eff3f5"></path><g fill="#eff3f5"><circle cx="332.904" cy="58.064" fill="#eff3f5" r="7.716"></circle><circle cx="366.063" cy="58.064" fill="#eff3f5" r="7.716"></circle></g></g></svg>