<svg viewBox="0 0 512 512" xmlns="http://www.w3.org/2000/svg"><g><path d="M508.736 354.283 264.625 251.414a22.211 22.211 0 0 0-17.25 0L3.264 354.283c-4.351 1.834-4.353 8-.002 9.835l244.104 102.986a22.21 22.21 0 0 0 17.267 0l244.104-102.986c4.351-1.836 4.35-8.002-.001-9.835z" fill="#34d6c1"></path><path d="m508.74 364.112-244.105 102.99a22.234 22.234 0 0 1-17.27 0l-11.997-5.059 232.097-97.93c4.355-1.825 4.355-7.995 0-9.83L235.368 256.47l12.008-5.059a22.277 22.277 0 0 1 17.248 0L508.74 354.282c4.344 1.836 4.344 8.005 0 9.83z" fill="#1ac4ae"></path><path d="M508.736 252.904 264.625 150.035a22.211 22.211 0 0 0-17.25 0L3.264 252.904c-4.351 1.834-4.353 8-.002 9.835l244.104 102.986a22.21 22.21 0 0 0 17.267 0l244.104-102.986c4.351-1.835 4.35-8.001-.001-9.835z" fill="#ffd071"></path><path d="m508.74 262.734-244.105 102.99a22.234 22.234 0 0 1-17.27 0l-11.997-5.059 232.097-97.93c4.355-1.825 4.355-7.995 0-9.83l-232.097-97.813 12.008-5.059a22.277 22.277 0 0 1 17.248 0L508.74 252.904c4.344 1.836 4.344 8.005 0 9.83z" fill="#f7b657"></path><path d="M508.736 147.762 264.625 44.893a22.211 22.211 0 0 0-17.25 0L3.264 147.762c-4.351 1.834-4.353 8-.002 9.835l244.104 102.986a22.21 22.21 0 0 0 17.267 0l244.104-102.986c4.351-1.836 4.35-8.001-.001-9.835z" fill="#ff6e5e"></path><path d="M508.74 157.592 264.635 260.581a22.234 22.234 0 0 1-17.27 0l-11.997-5.059 232.097-97.93c4.355-1.825 4.355-7.995 0-9.83L235.368 49.948l12.008-5.059a22.277 22.277 0 0 1 17.248 0L508.74 147.761c4.344 1.836 4.344 8.005 0 9.831z" fill="#f4584d"></path></g></svg>