<svg viewBox="0 0 496.997 496.997" xmlns="http://www.w3.org/2000/svg"><g><path d="M475.899 41.187C540.175 105.388 108.72 542.754 41.23 475.344-6.25 427.92 52.564 292.286 172.595 172.397S428.419-6.237 475.899 41.187z" fill="#cf7a15"></path><path d="M489.929 17.839C451.481-20.564 359.706 5.151 261.466 74.687c-1.781 1.26-1.431 4.004.607 4.783 33.516 12.808 67.238 28.931 62.567 40.61-5.886 14.716-66.31 1.198-107.414-9.915a2.72 2.72 0 0 0-2.463.541c-18.206 15.216-36.381 31.8-54.235 49.633l-.031.031c-1.419 1.418-.871 3.832 1.019 4.503 37.771 13.401 84.579 33.076 79.129 46.702-6.257 15.642-74.138-.616-114.932-11.978a2.737 2.737 0 0 0-2.792.835c-15.554 17.716-29.829 35.53-42.712 53.178-1.077 1.475-.422 3.566 1.296 4.185 36.99 13.342 80.404 32.125 75.144 45.276-5.624 14.061-61.04 2.345-101.819-8.42a2.738 2.738 0 0 0-3.032 1.219C-.064 380.364-16.009 455.524 17.86 489.352 91.157 562.563 559.736 87.564 489.929 17.839z" fill="#f0a346"></path><path d="M489.929 17.839C473.982 1.911 448.856-2.977 417.906 1.707 430.764 4.215 441.6 9.52 449.93 17.839c61.032 60.96-289.474 431.706-427.543 475.022 86.089 52.091 536.047-406.599 467.542-475.022z" fill="#eb8f21"></path><path d="M65.153 346.569c9.652 0 9.668-15 0-15-9.652 0-9.668 15 0 15z" fill="#fff4db"></path><path d="M51.654 385.567c9.652 0 9.668-15 0-15-9.652 0-9.668 15 0 15zM104.151 351.068c9.652 0 9.668-15 0-15-9.652 0-9.668 15 0 15z" fill="#a1550a"></path><path d="M128.15 255.073c9.652 0 9.668-15 0-15-9.652 0-9.668 15 0 15z" fill="#fff4db"></path><path d="M168.648 246.074c9.652 0 9.668-15 0-15-9.652 0-9.668 15 0 15z" fill="#a1550a"></path><path d="M179.147 279.072c9.652 0 9.668-15 0-15-9.651 0-9.667 15 0 15z" fill="#fff4db"></path><path d="M212.146 163.578c9.652 0 9.668-15 0-15-9.652 0-9.668 15 0 15z" fill="#a1550a"></path><path d="M251.144 156.078c9.652 0 9.668-15 0-15-9.652 0-9.668 15 0 15z" fill="#fff4db"></path><path d="M258.144 185.577c9.652 0 9.668-15 0-15-9.652 0-9.668 15 0 15z" fill="#a1550a"></path><path d="M317.141 81.082c9.652 0 9.668-15 0-15-9.652 0-9.668 15 0 15z" fill="#fff4db"></path><path d="M359.138 63.083c9.652 0 9.668-15 0-15-9.651 0-9.667 15 0 15z" fill="#a1550a"></path><path d="M351.639 99.081c9.652 0 9.668-15 0-15-9.652 0-9.668 15 0 15z" fill="#fff4db"></path></g></svg>