<svg viewBox="0 0 455.431 455.431" xmlns="http://www.w3.org/2000/svg"><g><path d="M405.39 412.764c-69.689 56.889-287.289 56.889-355.556 0s-62.578-300.089 0-364.089 292.978-64 355.556 0 69.689 307.201 0 364.089z" fill="#5ca4da"></path><path d="M229.034 313.209c-62.578 49.778-132.267 75.378-197.689 76.8-48.355-82.489-38.4-283.022 18.489-341.333 51.2-52.622 211.911-62.578 304.356-29.867 22.755 93.867-24.178 213.333-125.156 294.4z" fill="#6dafe0"></path><path d="M192.056 85.653h71.111v49.778l-12.8 145.067h-46.933l-11.378-145.067V85.653zm0 248.889c0-19.911 15.644-35.556 35.556-35.556s35.556 15.644 35.556 35.556-15.644 35.556-35.556 35.556-35.556-15.645-35.556-35.556z" fill="#ffffff"></path></g></svg>