<svg viewBox="0 0 60 60" xmlns="http://www.w3.org/2000/svg"><g><path d="M27.826 1.135A36.621 36.621 0 0 1 44.4 25.864s1.882-.928 3.147-5.253a.9.9 0 0 1 1.607-.251A29.555 29.555 0 0 1 54 36.26C54 48.819 43.255 59 30 59S6 48.819 6 36.26a36.574 36.574 0 0 1 2.881-13.911.838.838 0 0 1 1.581.105C10.96 24.19 11.973 26.325 14 27c0-.007.011-6.011 6-12 4-4 6.069-5.785 6.368-13.053a.972.972 0 0 1 1.458-.812z" fill="#f7b14e"></path><path d="M42.563 45.594a25.9 25.9 0 0 1-12.023 8.323 1.793 1.793 0 0 1-1.08 0 25.9 25.9 0 0 1-12.023-8.323c-2.975-3.916-3.513-10.747 0-14.138 4.625-4.478 10.725-2.317 12.563 2.352 1.838-4.669 7.938-6.83 12.563-2.352 3.513 3.391 2.975 10.222 0 14.138z" fill="#e23b58"></path></g></svg>