<svg viewBox="0 0 682.667 682.667" xmlns="http://www.w3.org/2000/svg"><g><defs><clippath clippathunits="userSpaceOnUse" id="a"><path d="M0 512h512V0H0Z" fill="#000000"></path></clippath></defs><g clip-path="url(#a)" transform="matrix(1.33333 0 0 -1.33333 0 682.667)"><path d="m0 0-10.543 119.604c-.324 3.751-3.35 6.625-6.975 6.625h-144.827V0Z" fill="#ffd301" transform="translate(415.254 379.707)"></path><path d="m0 0-7.676 126.229h-94.234L-99.793 0Z" fill="#665e68" transform="translate(385.902 379.707)"></path><path d="m0 0 2.117-126.229h31.561L31.56 0Z" fill="#554e56" transform="translate(283.992 505.937)"></path><path d="M0 0a7.797 7.797 0 0 0-7.785 7.476l-.258 6.233a7.798 7.798 0 0 0 7.47 8.115c4.271.173 7.934-3.166 8.112-7.47l.258-6.233A7.797 7.797 0 0 0 0 0" fill="#dfebfa" transform="translate(331.534 457.052)"></path><path d="M0 0a7.799 7.799 0 0 0-7.785 7.475L-8.3 19.886a7.797 7.797 0 0 0 7.469 8.115c4.266.175 7.936-3.164 8.114-7.468l.515-12.411A7.799 7.799 0 0 0 0 0" fill="#dfebfa" transform="translate(333.765 403.27)"></path><path d="M0 0h-169.793v-285.865H15.992c4.896 0 8.736 4.339 8.297 9.374z" fill="#ffd301" transform="translate(422.703 291.928)"></path><path d="M0 0h-20.227c-3.624 0-6.649-2.874-6.974-6.626l-10.543-119.603h30.289z" fill="#ffa90f" transform="translate(134.49 505.937)"></path><path d="m0 0-1.739-126.229h33.28V0Z" fill="#ffc20c" transform="translate(224.46 505.937)"></path><path d="M0 0h-32.554l-24.288-276.491c-.439-5.035 3.401-9.374 8.296-9.374h31.664z" fill="#ffa90f" transform="translate(121.852 291.928)"></path><path d="m0 0-3.939-285.865H34.49V0Z" fill="#ffc20c" transform="translate(221.51 291.928)"></path><path d="m0 0 4.782-285.865h116.07L103.517 0Z" fill="#665e68" transform="translate(287.528 291.928)"></path><path d="m0 0 4.782-285.865h31.56L31.561 0Z" fill="#554e56" transform="translate(287.528 291.928)"></path><path d="m0 0 2.117 126.229h-94.234L-99.792 0Z" fill="#665e68" transform="translate(225.892 379.707)"></path><path d="m0 0-7.675-126.229h31.559L31.56 0Z" fill="#554e56" transform="translate(133.774 505.937)"></path><path d="m0 0-17.335-285.865H98.734L103.517 0Z" fill="#665e68" transform="translate(120.956 291.928)"></path><path d="m0 0-17.335-285.865h31.56L31.56 0Z" fill="#554e56" transform="translate(120.956 291.928)"></path><path d="M0 0a7.726 7.726 0 0 0-7.726 7.727v69.721c0 15.552 12.653 28.206 28.206 28.206h14.847a7.727 7.727 0 0 0 0-15.453H20.48c-7.032 0-12.753-5.721-12.753-12.753V7.727A7.727 7.727 0 0 0 0 0" fill="#665e68" transform="translate(23.361 238.135)"></path><path d="M0 0a7.727 7.727 0 0 0-7.727 7.727v69.721c0 7.032-5.72 12.753-12.753 12.753h-14.848a7.728 7.728 0 0 0 0 15.453h14.848c15.553 0 28.207-12.654 28.207-28.206V7.727A7.726 7.726 0 0 0 0 0" fill="#665e68" transform="translate(488.64 238.135)"></path><path d="M0 0h-377.891c-6.863 0-12.478 5.615-12.478 12.477v64.466c0 6.863 5.615 12.478 12.478 12.478H0c6.862 0 12.478-5.615 12.478-12.478V12.477C12.478 5.615 6.862 0 0 0" fill="#43cb8e" transform="translate(444.946 291.353)"></path><path d="M0 0v64.466c0 6.863 5.615 12.478 12.477 12.478h-49.308c-6.863 0-12.478-5.615-12.478-12.478V0c0-6.862 5.615-12.477 12.478-12.477h49.308C5.615-12.477 0-6.862 0 0" fill="#00ba66" transform="translate(103.886 303.83)"></path><path d="M0 0a7.798 7.798 0 0 0-7.785 7.475l-.516 12.412a7.798 7.798 0 0 0 7.467 8.115c4.271.179 7.937-3.164 8.115-7.468l.516-12.411A7.796 7.796 0 0 0 0 0" fill="#dfebfa" transform="translate(347.157 80.572)"></path><path d="M0 0a7.797 7.797 0 0 0-7.785 7.475l-.516 12.411a7.798 7.798 0 0 0 7.469 8.115c4.267.166 7.936-3.165 8.114-7.468l.515-12.411A7.799 7.799 0 0 0 0 0" fill="#dfebfa" transform="translate(344.925 134.356)"></path><path d="M0 0a7.798 7.798 0 0 0-7.785 7.475L-8.3 19.886a7.798 7.798 0 0 0 7.469 8.115c4.267.171 7.935-3.164 8.113-7.468l.516-12.411A7.798 7.798 0 0 0 0 0" fill="#dfebfa" transform="translate(342.693 188.138)"></path><path d="M0 0a7.798 7.798 0 0 0-7.785 7.475L-8.3 19.886a7.798 7.798 0 0 0 7.468 8.115c4.267.177 7.936-3.164 8.114-7.468l.515-12.411A7.799 7.799 0 0 0 0 0" fill="#dfebfa" transform="translate(340.461 241.921)"></path><path d="M0 0a7.799 7.799 0 0 0-7.785 7.475l-.259 6.233a7.799 7.799 0 1 0 15.583.647l.259-6.233A7.799 7.799 0 0 0 0 0" fill="#dfebfa" transform="translate(349.131 32.968)"></path><path d="M0 0a7.798 7.798 0 0 0-7.797 8.122l.258 6.233c.179 4.304 3.809 7.637 8.116 7.469a7.8 7.8 0 0 0 7.468-8.116l-.259-6.233A7.798 7.798 0 0 0 0 0" fill="#dfebfa" transform="translate(180.466 457.052)"></path><path d="M0 0a7.798 7.798 0 0 0-7.797 8.122l.514 12.412a7.784 7.784 0 0 0 8.116 7.468 7.8 7.8 0 0 0 7.468-8.115L7.786 7.475A7.8 7.8 0 0 0 0 0" fill="#dfebfa" transform="translate(164.844 80.572)"></path><path d="M0 0a7.798 7.798 0 0 0-7.797 8.122l.514 12.411a7.785 7.785 0 0 0 8.116 7.468 7.798 7.798 0 0 0 7.468-8.115L7.786 7.475A7.798 7.798 0 0 0 0 0" fill="#dfebfa" transform="translate(167.076 134.356)"></path><path d="M0 0a7.798 7.798 0 0 0-7.797 8.122l.515 12.411a7.798 7.798 0 1 0 15.583-.647L7.786 7.475A7.8 7.8 0 0 0 0 0" fill="#dfebfa" transform="translate(169.307 188.138)"></path><path d="M0 0a7.799 7.799 0 0 0-7.797 8.122l.515 12.411c.178 4.303 3.806 7.638 8.115 7.468a7.798 7.798 0 0 0 7.468-8.115L7.786 7.475A7.8 7.8 0 0 0 0 0" fill="#dfebfa" transform="translate(171.539 241.921)"></path><path d="M0 0a7.798 7.798 0 0 0-7.797 8.122l.515 12.411c.178 4.303 3.799 7.653 8.115 7.468a7.798 7.798 0 0 0 7.468-8.115L7.786 7.475A7.8 7.8 0 0 0 0 0" fill="#dfebfa" transform="translate(178.234 403.27)"></path><path d="M0 0a7.799 7.799 0 0 0-7.797 8.121l.258 6.233a7.8 7.8 0 0 0 15.584-.645l-.259-6.234A7.798 7.798 0 0 0 0 0" fill="#dfebfa" transform="translate(162.868 32.968)"></path><path d="M0 0h-11.709a7.726 7.726 0 1 0 0 15.453H0A7.728 7.728 0 0 0 0 0" fill="#dfebfa" transform="translate(123.321 342.894)"></path><path d="M0 0h-66.892a7.727 7.727 0 1 0 0 15.453H0A7.728 7.728 0 0 0 0 0" fill="#dfebfa" transform="translate(221.06 342.894)"></path><path d="M0 0h-11.709a7.726 7.726 0 1 0 0 15.453H0A7.728 7.728 0 0 0 0 0" fill="#dfebfa" transform="translate(123.321 313.78)"></path><path d="M0 0h-66.892a7.727 7.727 0 1 0 0 15.453H0A7.728 7.728 0 0 0 0 0" fill="#dfebfa" transform="translate(221.06 313.78)"></path><path d="M0 0h-11.709a7.727 7.727 0 1 0 0 15.453H0A7.727 7.727 0 0 0 0 0" fill="#dfebfa" transform="translate(302.649 342.894)"></path><path d="M0 0h-66.894a7.727 7.727 0 0 0 0 15.453H0A7.727 7.727 0 0 0 0 0" fill="#dfebfa" transform="translate(400.39 342.894)"></path><path d="M0 0h-11.709a7.727 7.727 0 1 0 0 15.453H0A7.727 7.727 0 0 0 0 0" fill="#dfebfa" transform="translate(302.649 313.78)"></path><path d="M0 0h-66.894a7.727 7.727 0 0 0 0 15.453H0A7.727 7.727 0 0 0 0 0" fill="#dfebfa" transform="translate(400.39 313.78)"></path><path d="M0 0v47.496c0 4.099-3.354 7.453-7.453 7.453h-16.461c-4.1 0-7.454-3.354-7.454-7.453V0Z" fill="#b7aeb8" transform="translate(504.323 196.063)"></path><path d="M0 0v47.496c0 4.099-3.354 7.453-7.454 7.453h-16.461c-4.099 0-7.454-3.354-7.454-7.453V0Z" fill="#b7aeb8" transform="translate(39.046 196.063)"></path><path d="M0 0h-33.071c-3.754 0-6.825-3.072-6.825-6.826v-16.632c0-3.754 3.071-6.826 6.825-6.826H0c3.755 0 6.826 3.072 6.826 6.826v16.632C6.826-3.072 3.755 0 0 0" fill="#a89ca8" transform="translate(505.174 199.153)"></path><path d="M0 0h-33.071c-3.755 0-6.826-3.072-6.826-6.826v-16.632c0-3.754 3.071-6.826 6.825-6.826H0c3.754 0 6.826 3.072 6.826 6.826v16.632C6.826-3.072 3.754 0 0 0" fill="#a89ca8" transform="translate(39.897 199.153)"></path><path d="M0 0v16.632c0 3.754 3.071 6.826 6.826 6.826h-26.097c-3.755 0-6.827-3.072-6.827-6.826V0c0-3.754 3.072-6.826 6.826-6.826H6.825C3.071-6.826 0-3.754 0 0" fill="#7b6c79" transform="translate(491.375 175.695)"></path><path d="M0 0v16.632c0 3.754 3.071 6.826 6.826 6.826h-26.098c-3.754 0-6.826-3.072-6.826-6.826V0c0-3.754 3.072-6.826 6.826-6.826H6.826C3.071-6.826 0-3.754 0 0" fill="#7b6c79" transform="translate(26.098 175.695)"></path></g></g></svg>