<svg viewBox="0 0 123.998 115.998" xmlns="http://www.w3.org/2000/svg"><g><g fill="#8ecaef"><path d="M11.099 75.13c.01-.91.16-3.35 2.02-5.19.7-.69 1.43-1.1 2.02-1.36-.59-.25-1.32-.66-2.02-1.35-1.86-1.84-2.01-4.29-2.02-5.2 0 .91-.17 3.36-2.02 5.2-.69.69-1.43 1.1-2.02 1.35.59.26 1.33.67 2.02 1.36 1.85 1.84 2.02 4.28 2.02 5.19zM98.209 73.07h.01c-.02-.84-.02-4.3 2.55-6.85.88-.87 1.81-1.39 2.55-1.71-.74-.32-1.67-.84-2.55-1.71-2.36-2.34-2.55-5.46-2.55-6.6h-.01c0 1.14-.19 4.26-2.55 6.6-.88.87-1.81 1.39-2.55 1.71.74.32 1.67.84 2.55 1.71 2.57 2.55 2.57 6.01 2.55 6.85zM123.839 91.84c.57-2.25-.54-4.34-.99-5.17-3.52-6.56-19.39-6.04-22.92-5.93-35.17 1.04-72.34-3.28-80.41 7.37-.44.57-1.19 1.36-2.27 2.63-4.63 5.38-13.26 1.71-16.34 6.78 0 0-1.3 2.06-.79 4.99 1.95 11.29 50.58 16.87 94.43 11.32 23.1-3.86 28.54-6.97 28.52-9.23-.01-2.05-4.51-3.5-4.17-6.38.31-2.57 4.08-3.02 4.94-6.38zM83.319 53.6c.03-.57.04-1.16.04-1.75C83.359 31.11 65.019 0 65.019 0s-18.34 31.11-18.34 51.85c0 .59.02 1.18.05 1.75 1.14 22.71 35.44 22.71 36.59 0z" fill="#8ecaef"></path></g><g fill="#ffc05a"><path d="M90.929 1.28c0 .92.16 3.35 2.01 5.18.7.69 1.44 1.1 2.02 1.35-.58.26-1.32.67-2.02 1.36-2.03 2.01-2.03 4.75-2.01 5.41h-.01c.02-.66.01-3.4-2.02-5.41-.69-.69-1.43-1.1-2.02-1.36.59-.25 1.33-.66 2.02-1.35 1.84-1.83 2.02-4.27 2.02-5.18zM13.119 67.23c.7.69 1.43 1.1 2.02 1.35-.59.26-1.32.67-2.02 1.36-1.86 1.84-2.01 4.28-2.02 5.19 0-.91-.17-3.35-2.02-5.19-.69-.69-1.43-1.1-2.02-1.36.59-.25 1.33-.66 2.02-1.35 1.85-1.84 2.02-4.29 2.02-5.2.01.91.16 3.36 2.02 5.2zM98.219 56.2c0 1.14.19 4.26 2.55 6.6.88.87 1.81 1.39 2.55 1.71-.74.32-1.67.84-2.55 1.71-2.57 2.55-2.57 6.01-2.55 6.85h-.01c.02-.84.02-4.3-2.55-6.85a8.279 8.279 0 0 0-2.55-1.71c.74-.32 1.67-.84 2.55-1.71 2.36-2.34 2.55-5.46 2.55-6.6z" fill="#ffc05a"></path></g><path d="M57.039 36.16c1.45.23 2.25 1.84 1.53 3.12-.69 1.22-1.34 2.8-1.65 4.72-.3 1.91-.17 3.62.11 4.99.29 1.45-.98 2.72-2.42 2.49-.78-.12-1.42-.66-1.68-1.4a14.3 14.3 0 0 1-.59-6.82c.46-2.89 1.72-5.02 2.68-6.29a2.098 2.098 0 0 1 2.02-.81zM122.849 86.67c.45.83 1.56 2.92.99 5.17-.86 3.36-4.63 3.81-4.94 6.38-.34 2.88 4.16 4.33 4.17 6.38.02 2.26-5.42 5.37-28.52 9.23-43.85 5.55-92.48-.03-94.43-11.32-.51-2.93.79-4.99.79-4.99 3.08-5.07 11.71-1.4 16.34-6.78 1.08-1.27 1.83-2.06 2.27-2.63 8.07-10.65 45.24-6.33 80.41-7.37 3.53-.11 19.4-.63 22.92 5.93z" fill="#2f84b9"></path><path d="M55.302 102.46c-1.12 0-2.224-.099-3.304-.297-1.721-.315-4.275-.784-4.558-2.512-.221-1.423 1.203-2.317 2.58-3.182.586-.368 1.676-1.053 1.774-1.384-.156-.245-1.563-.938-4.063-1.359-6.148-1.039-14.962-.851-25.482.545a1 1 0 0 1-.264-1.982c10.87-1.441 19.645-1.62 26.078-.535 3.661.617 5.586 1.692 5.72 3.197.132 1.435-1.308 2.338-2.699 3.212-.539.338-1.412.887-1.635 1.205.183.144.867.453 2.879.822 2.561.47 5.244.321 8.004-.436.533-.14 1.083.167 1.229.7a1 1 0 0 1-.7 1.229c-1.885.518-3.744.777-5.559.777zM32.589 107.43l-.049-.001-9.98-.479a16.778 16.778 0 0 1-10.383-4.297l.63-.782.673-.74.092.091c2.461 2.219 5.707 3.563 9.086 3.73l9.978.479a1 1 0 0 1-.047 1.999zM98.638 98.263c-4.756 0-5.927-1.044-6.315-2.166-.449-1.295.489-2.414 1.244-3.313.291-.348.897-1.069.866-1.297-.063-.274-1.341-2.649-26.51-.501a.996.996 0 0 1-1.081-.911.999.999 0 0 1 .911-1.081c24.287-2.077 28.112-.238 28.631 2.055.263 1.176-.56 2.156-1.285 3.021-.313.373-.964 1.148-.887 1.372.023.069.696 1.632 11.765.276.547-.084 1.047.322 1.113.871a.998.998 0 0 1-.871 1.113c-3.216.395-5.683.561-7.581.561z" fill="#52a7d7"></path><path d="M90.609 99.13a.998.998 0 0 1-.698-.284c-1.861-1.816-4.406-2.783-7.028-2.717l-5.468.2-.037.001a1 1 0 0 1-.035-1.999l5.47-.2a11.603 11.603 0 0 1 8.495 3.283 1 1 0 0 1-.699 1.716zM91.988 107.87a1 1 0 0 1-.092-1.996 82.583 82.583 0 0 0 12.014-2.035.997.997 0 0 1 1.21.731.999.999 0 0 1-.731 1.21c-4.05.999-8.19 1.7-12.307 2.086a1 1 0 0 1-.094.004zM83.989 108.23h-.003a83.008 83.008 0 0 1-8.938-.517 1.001 1.001 0 0 1 .22-1.988c2.981.33 5.835.495 8.723.505a1 1 0 0 1-.002 2zM53.168 86.85a1 1 0 0 1-.129-1.991 97.288 97.288 0 0 1 10.498-.799c3.478-.073 6.915.024 10.213.293a1 1 0 0 1 .916 1.078 1.011 1.011 0 0 1-1.078.916 96.078 96.078 0 0 0-10.008-.287 95.285 95.285 0 0 0-10.281.781.984.984 0 0 1-.131.009zM55.396 107.156c-1.218 0-2.434-.118-3.64-.354a1 1 0 0 1-.789-1.174.995.995 0 0 1 1.174-.789c2.056.404 4.146.422 6.214.057a17.469 17.469 0 0 0 4.86-1.637 1 1 0 0 1 .907 1.783 19.459 19.459 0 0 1-5.418 1.822c-1.1.195-2.204.292-3.308.292z" fill="#52a7d7"></path><path d="M29.169 22.11a1 1 0 0 1-1-1v-7.65a1 1 0 1 1 2 0v7.65a1 1 0 0 1-1 1z" fill="#8bcb8f"></path><path d="M32.989 18.29h-7.641a1 1 0 1 1 0-2h7.641a1 1 0 1 1 0 2zM38.079 71.26a1 1 0 0 1-1-1v-7.65a1 1 0 1 1 2 0v7.649a1 1 0 0 1-1 1.001z" fill="#8bcb8f"></path><path d="M41.899 67.44h-7.631a1 1 0 1 1 0-2h7.631a1 1 0 1 1 0 2zM116.079 53.39a1 1 0 0 1-1-1v-7.65a1 1 0 1 1 2 0v7.65a1 1 0 0 1-1 1z" fill="#8bcb8f"></path><path d="M119.888 49.56h-7.63a1 1 0 1 1 0-2h7.63a1 1 0 1 1 0 2z" fill="#8bcb8f"></path><path d="M44.788 102.5a.992.992 0 0 1-.634-.228c-1.488-1.222-3.069-1.978-4.697-2.246-1.182-.19-2.065-.079-3.286.077-.699.089-1.491.189-2.486.255a31.115 31.115 0 0 1-6.842-.331 1 1 0 0 1-.831-1.144.996.996 0 0 1 1.144-.831 29.01 29.01 0 0 0 6.4.31 36.06 36.06 0 0 0 2.362-.243c1.338-.169 2.393-.304 3.861-.066 1.982.326 3.881 1.226 5.645 2.675a1 1 0 0 1-.636 1.772z" fill="#52a7d7"></path></g></svg>