<svg viewBox="0 0 256 256" xmlns="http://www.w3.org/2000/svg"><g><path d="M45.067 240.133c0-49.98 37.416-71.72 83.563-71.72s83.561 21.74 83.561 71.72z" fill="#3c4c31"></path><path d="M124.504 197.352h8.25v42.781h-8.25z" fill="#87845b"></path><circle cx="138.901" cy="212.966" fill="#fcc10c" r="4.437"></circle><circle cx="138.901" cy="229.223" fill="#fcc10c" r="4.437"></circle><path d="M148.482 169.716v-22.675a50.235 50.235 0 0 0-8.513-2.348h-22.68a50.233 50.233 0 0 0-8.513 2.348v22.675a13.75 13.75 0 0 0 13.75 13.75h12.206a13.75 13.75 0 0 0 13.75-13.75z" fill="#f7bd8a"></path><path d="M179.497 87.218c0 31.438-22.774 56.924-50.868 56.924s-50.867-25.486-50.867-56.924 22.774-50.093 50.867-50.093 50.868 18.655 50.868 50.093z" fill="#3a3a3a"></path><path d="M169.205 104.916a11.165 11.165 0 0 1 0 22.331h-81.15a11.165 11.165 0 1 1 0-22.33z" fill="#f7bd8a"></path><path d="M168.791 83.282c-19.232-2.65-38.714-11.754-49.055-17.211 9.165 11.056 22.148 20.517 22.148 20.517a95.96 95.96 0 0 1-50.143-9.546c-3.674 5.772-5.743 12.265-5.743 16.061l3.837 30.284c0 25.057 26.36 44.064 38.794 44.136 12.434-.072 38.794-19.079 38.794-44.136l3.837-30.284a27.605 27.605 0 0 0-2.469-9.821z" fill="#fbcea1"></path><circle cx="111.854" cy="117.718" fill="#3a3a3a" r="4.437"></circle><circle cx="145.404" cy="117.718" fill="#3a3a3a" r="4.437"></circle><path d="M117.39 140.085h22.478v5.5H117.39z" fill="#3a3a3a"></path><path d="M77.632 64.57h101.994s-.092 18.58-.092 19.495c0 10.224-22.486 18.512-50.905 18.512s-50.905-8.288-50.905-18.512c0-.915-.092-19.495-.092-19.495z" fill="#63692a"></path><path d="M180.925 74.505c4.571-2.598 11.292-7.029 10.988-13.485-.318-6.766-7.613-8.987-12.152-11.83a86.844 86.844 0 0 1-17.41-13.874C154.17 26.6 140.196 24.674 134.42 24.25a20.05 20.05 0 0 0-2.617 0h-6.345a20.051 20.051 0 0 0-2.618 0c-5.775.425-19.75 2.35-27.932 11.067a86.844 86.844 0 0 1-17.41 13.874c-4.538 2.843-11.833 5.064-12.152 11.83-.303 6.457 6.417 10.887 10.988 13.486z" fill="#3c4c31"></path><path d="M74.422 79.423a5.302 5.302 0 0 0 6.287 3.763c13.124-3.013 29.897-4.654 47.92-4.654s34.797 1.64 47.92 4.654a5.302 5.302 0 0 0 6.288-3.763 5.317 5.317 0 0 0-3.944-6.603c-13.91-3.184-31.497-4.917-50.264-4.917s-36.353 1.733-50.264 4.917a5.317 5.317 0 0 0-3.943 6.603z" fill="#b7b7b7"></path><path d="m101.577 184.238 22.661 13.083v-19.053l-22.661-13.083zM155.681 184.238l-22.661 13.083v-19.053l22.661-13.083z" fill="#87845b"></path><path d="m173.677 186.238 7.26-10.36 10.925 7.656-7.26 10.36z" fill="#e98704"></path><path d="m163.368 179.018 7.26-10.36 10.305 7.22-7.261 10.361zM197.836 187.643l-6.025-4.218-7.256 10.362 6.025 4.219a6.325 6.325 0 0 0 7.256-10.363z" fill="#fcc10c"></path><path d="m65.513 183.369 10.925-7.657 7.26 10.36-10.924 7.657z" fill="#e98704"></path><g fill="#fcc10c"><path d="m76.435 175.715 10.304-7.222L94 178.853l-10.304 7.222zM59.422 187.643l6.025-4.218 7.256 10.362-6.025 4.219a6.325 6.325 0 1 1-7.256-10.363zM142.813 48.828l-14.184-5.29-14.183 5.29c-.048.68-.073 11.367-.073 11.368 0 11.323 14.256 17.684 14.256 17.684s14.256-6.36 14.256-17.684c0-.001-.025-10.689-.072-11.368z" fill="#fcc10c"></path></g><path d="m130.789 56.224 4.793.777-3.533 3.332.742 4.798-4.26-2.33-4.334 2.188.9-4.771-3.421-3.446 4.816-.619 2.221-4.318z" fill="#e98704"></path><path d="M89.515 218.646H71.707v9.672l17.808 3.755 17.809-3.755v-9.672z" fill="#87845b"></path><circle cx="170.533" cy="222.185" fill="#fcc10c" r="10.902"></circle><path d="m172.672 219.323 4.744.77-3.497 3.298.735 4.75-4.217-2.307-4.291 2.166.89-4.723-3.386-3.412 4.768-.612 2.198-4.275z" fill="#e98704"></path></g></svg>