<svg viewBox="0 0 512 512" xmlns="http://www.w3.org/2000/svg"><g><path d="M496 72v16h-77.58L360 126.95l-11.56 7.71-8.88-13.32L360 107.72 401.58 80 360 52.28l-20.44-13.62 8.88-13.32L360 33.05 418.42 72z" fill="#d9d9d7"></path><path d="M360 33.05v19.23l-20.44-13.62 8.88-13.32zM339.56 121.34 360 107.72v19.23l-11.56 7.71z" fill="#cfcfcd"></path><path d="M320 24h32v112h-32z" fill="#92563a"></path><path d="M384 335.6a39.558 39.558 0 0 1-11.6 28L270.11 465.89 259.6 476.4a39.6 39.6 0 1 1-56-56l93.69-93.69 19.11-19.11a39.6 39.6 0 0 1 67.6 28z" fill="#fa6d00"></path><path d="M384 335.6a39.558 39.558 0 0 1-11.6 28L270.11 465.89a466.964 466.964 0 0 0 27.18-139.18l19.11-19.11a39.6 39.6 0 0 1 67.6 28z" fill="#f86400"></path><path d="M296 392v-24l-46.61-39.95a31.978 31.978 0 0 1-10.92-20.33L236 288l-4-32-24 24v48l72 80-32 32v-24l-69.48-55.58A28.041 28.041 0 0 1 168 338.53V256l80-80a81.935 81.935 0 0 1 24 57.94V296l56 64z" fill="#fec093"></path><path d="m104 160 48-48-24-24 16-16-48-16-48 48z" fill="#fec9a3"></path><path d="M48 104a33.941 33.941 0 0 1 0-48l32-32 11.761 5.881A16.309 16.309 0 0 1 96 56L72 80v48z" fill="#7a432a"></path><path d="M272 233.94V264l-36 24-4-32-24 24v26.67l-40 26.66V256l80-80a81.935 81.935 0 0 1 24 57.94z" fill="#348fd9"></path><path d="M368 84a19.978 19.978 0 0 1-34.67 13.56L256 104l-56 24 48 48-80 80-56-56 16 80-56 56a24 24 0 1 1-26.82-23.83L80 272l-8.64-38.87A61.842 61.842 0 0 1 88 176l80-80a97.784 97.784 0 0 1 11.79-10.06 98.845 98.845 0 0 1 45.89-18.15L256 64h96v.4A20 20 0 0 1 368 84z" fill="#fec9a3"></path><path d="M368 84a19.978 19.978 0 0 1-34.67 13.56L256 104l-56 24 48 48-80 80-8-8a458.094 458.094 0 0 0 19.79-162.06 98.845 98.845 0 0 1 45.89-18.15L256 64h96v.4A20 20 0 0 1 368 84z" fill="#fec093"></path><rect fill="#feb784" rx="8" transform="rotate(-63.44 208.1 152.072)"></rect><rect fill="#feb784" rx="8" transform="rotate(-18.38 140.336 212.095)"></rect><path d="M369.206 216H344a24 24 0 1 0 20 37.265A23.974 23.974 0 0 0 384 264l4.138 11.033A87.852 87.852 0 0 1 368 368L232 488h54.128a236.284 236.284 0 0 0 167.078-69.206 118.8 118.8 0 0 0 34.794-84A118.794 118.794 0 0 0 369.206 216z" fill="#4db7e5"></path><path d="M424 272a31.923 31.923 0 0 1-20-7.016A31.923 31.923 0 0 1 384 272a8 8 0 0 1 0-16 15.985 15.985 0 0 0 13.337-7.163 8 8 0 0 1 13.326 0 15.994 15.994 0 0 0 24 3.089 8 8 0 0 1 10.676 11.918A31.937 31.937 0 0 1 424 272zM329.967 451.093a8 8 0 0 0 9.845 6.023q3.437-.9 6.848-1.918a8 8 0 0 0 5.287-10.258 7.972 7.972 0 0 0-9.8-5.094q-3.213.96-6.457 1.809a7.972 7.972 0 0 0-5.723 9.438zM441.966 288.2a7.964 7.964 0 0 0-2.8 10.355 78.76 78.76 0 0 1-14.24 91.951 195.251 195.251 0 0 1-53.2 37.847 7.973 7.973 0 0 0-3.79 10.373 8.021 8.021 0 0 0 10.87 3.972 211.2 211.2 0 0 0 57.428-40.883 94.756 94.756 0 0 0 17.124-110.635 7.98 7.98 0 0 0-11.392-2.98z" fill="#3b9dc7"></path><path d="M432 320a8 8 0 0 0-8-8 8 8 0 0 0-8 8 72.4 72.4 0 0 1-23.281 53.006 7.984 7.984 0 0 0-.968 10.661v.005a7.981 7.981 0 0 0 11.769 1.134A88.488 88.488 0 0 0 432 320z" fill="#3b9dc7"></path><g fill="#8adbe6"><circle cx="400" cy="160" fill="#8adbe6" r="16"></circle><path d="M464 156a12 12 0 1 0-12 12 12.013 12.013 0 0 0 12-12zM324 176a12 12 0 1 0 12 12 12.013 12.013 0 0 0-12-12zM460 192a12 12 0 1 0 12 12 12.013 12.013 0 0 0-12-12z" fill="#8adbe6"></path><circle cx="456" cy="424" fill="#8adbe6" r="16"></circle></g></g></svg>