<svg viewBox="0 0 50 50" xmlns="http://www.w3.org/2000/svg"><g><path d="M38.8 13.3c-1 2-2.3 4-3.7 5.8s-3.1 3.5-4.8 4.6c-.8.4-1 1.4-.5 2.2 1.5 2 4.1-.9 5.4-1.7 3-2.6 5.3-5.5 7.4-8.9 1.2-2.5-2.5-4.5-3.8-2z" fill="#9b9b1b"></path><path d="M36.1 46.7c.2 2.4 3.8 2.3 3.8-.1 0-4.3-.1-8.4 1.3-12.6-.1 2.9.2 5.8 1.1 8.6.4 1.5.8 3 1.3 4.5.3 1 1.3 1.5 2.3 1.2.9-.3 1.5-1.2 1.3-2.1-.9-4.3-2-8.6-1.1-13.1.2-1.5.4-3 .7-4.5.8-4.4 1.1-9.2.8-14.3-.1-2.4-2.2-2.9-4.6-2.7-2.5.1-4.4.8-4.3 3.3.3 4.6 0 8.8-.7 12.5 0 .1-.1.1-.1.2-.8 3.3-1.5 6.2-2 9.6-.3 3.2 0 6.3.2 9.5z" fill="#6e9583"></path><path d="M46.6 28.7v.1l-8.9-1.3c0-.1 0-.1.1-.2.7-3.7 1-7.9.7-12.5-.1-2.4 1.8-3.1 4.3-3.3 2.5-.1 4.5.3 4.6 2.7.3 5.2.1 10.1-.8 14.5z" fill="#abb734"></path><path d="M44.9 13.6c-1.4.3-1.8 1.8-.8 4.7.2 1.1.3 2.2.3 3.3.1 2.3 0 4.7-.6 6.7-.3.8.2 1.7 1 2 2.4.6 2.5-3.3 2.9-4.8.4-3.2.4-6.4 0-9.6-.2-1.6-1.5-2.6-2.8-2.3z" fill="#c6cc4a"></path><ellipse cx="42.3" cy="5.2" fill="#616b77" rx="3.8" ry="3.7"></ellipse><path d="m37.782 26.989 5.94.84-.14.99-5.94-.84z" fill="#425060"></path><path d="M11.3 13.3c1 2 2.3 4 3.7 5.8s3.1 3.5 4.8 4.6c.8.4 1 1.4.5 2.2-1.5 2-4.1-.9-5.4-1.7-3-2.6-5.3-5.5-7.4-8.9-1.2-2.5 2.5-4.5 3.8-2z" fill="#ed2f58"></path><path d="M14 46.7c-.2 2.4-3.8 2.3-3.8-.1 0-4.3.1-8.4-1.3-12.6.1 2.9-.2 5.8-1.1 8.6-.4 1.5-.8 3-1.3 4.5-.3 1-1.3 1.5-2.3 1.2-.9-.3-1.5-1.2-1.3-2.1.9-4.3 2-8.6 1.1-13.1-.2-1.5-.4-3-.7-4.5-.8-4.4-1.1-9.2-.8-14.3.1-2.4 2.2-2.9 4.6-2.7 2.5.1 4.4.8 4.3 3.3-.3 4.6 0 8.8.7 12.5 0 .1.1.1.1.2.8 3.3 1.5 6.2 2 9.6.3 3.2 0 6.3-.2 9.5z" fill="#559aff"></path><path d="M3.4 28.7v.1l8.9-1.3c0-.1 0-.1-.1-.2-.7-3.7-1-7.9-.7-12.5.1-2.4-1.8-3.1-4.3-3.3-2.5-.1-4.5.3-4.6 2.7-.3 5.2 0 10.1.8 14.5z" fill="#fa4968"></path><path d="M5.1 13.6c1.4.3 1.8 1.8.8 4.7-.2 1.1-.3 2.2-.3 3.3-.1 2.3 0 4.7.6 6.7.3.8-.2 1.7-1 2-2.4.6-2.5-3.3-2.9-4.8-.4-3.2-.4-6.4 0-9.6.2-1.6 1.5-2.6 2.8-2.3z" fill="#ff6989"></path><ellipse cx="7.8" cy="5.2" fill="#616b77" rx="3.8" ry="3.7"></ellipse><path d="m12.253 26.98.14.99-5.94.834-.14-.99z" fill="#425060"></path><path d="m25 4.2 2.2 4.4 4.9.7-3.5 3.4.8 4.8-4.4-2.3-4.3 2.3.8-4.8L18 9.3l4.9-.7z" fill="#ffb95c"></path><path d="m25 30.3 2.2 4.4 4.9.7-3.5 3.4.8 4.8-4.4-2.3-4.3 2.3.8-4.8-3.5-3.4 4.9-.7z" fill="#fecd04"></path></g></svg>