<svg viewBox="0 0 511.76 511.76" xmlns="http://www.w3.org/2000/svg"><g><path d="m151.352 221.248-111.76 210.56 101.488-9.376 49.12 89.312 111.76-210.56z" fill="#e95454"></path><path d="M164.152 450.432c3.136-6.736-.144-14.784-6.704-18.272l-6.432-3.424c-6.432-3.664-8.88-11.808-5.376-18.4 3.552-6.704 11.904-9.264 18.608-5.712l18.176 9.648c5.616 2.976 12.656.816 15.552-4.832l.448-.864c3.328-5.328 1.36-12.368-4.176-15.296l-54.368-28.848c-6.624-3.52-9.872-11.536-6.784-18.288 3.408-7.184 12.016-10.016 18.944-6.336l50.432 26.768c5.616 2.976 12.656.816 15.632-4.8l.288-.736.08-.16c3.216-5.888.96-13.28-4.976-16.432l-28.288-15.008c-6.624-3.52-9.872-11.536-6.736-18.368 3.376-7.104 12.016-10.016 18.944-6.336l31.248 16.592c5.84 3.104 12.816.512 15.84-5.376.048-.08.048-.08.08-.16.048-.08.048-.08.08-.16 3.184-5.808 1.424-13.04-4.432-16.128l-33.712-17.888c-6.544-3.472-9.792-11.488-6.704-18.24 3.408-7.184 12.016-10.016 18.944-6.336l83.168 44.144-111.76 210.56-30.8-55.984c1.984-1.344 3.712-3.008 4.784-5.328z" fill="#ed6362"></path><path d="m360.408 221.248 111.76 210.56-101.488-9.376-49.12 89.312-111.76-210.56z" fill="#ed6362"></path><path d="M347.608 450.432c-3.136-6.736.144-14.784 6.704-18.272l6.432-3.424c6.432-3.664 8.88-11.808 5.376-18.4-3.552-6.704-11.904-9.264-18.608-5.712l-18.176 9.648c-5.616 2.976-12.656.816-15.552-4.832l-.448-.864c-3.328-5.328-1.36-12.368 4.176-15.296l54.384-28.864c6.624-3.52 9.872-11.536 6.784-18.288-3.408-7.184-12.016-10.016-18.944-6.336l-50.432 26.768c-5.616 2.976-12.656.816-15.632-4.8l-.288-.736-.08-.16c-3.216-5.888-.96-13.28 4.976-16.432l28.288-15.008c6.624-3.52 9.872-11.536 6.736-18.368-3.376-7.104-12.016-10.016-18.944-6.336l-31.28 16.624c-5.84 3.104-12.816.512-15.84-5.376-.048-.08-.048-.08-.08-.16-.048-.08-.048-.08-.08-.16-3.184-5.808-1.424-13.04 4.432-16.128l33.712-17.888c6.544-3.472 9.792-11.488 6.704-18.24-3.408-7.184-12.016-10.016-18.944-6.336L209.816 301.2l111.76 210.56 30.8-55.984c-1.968-1.36-3.696-3.024-4.768-5.344z" fill="#e95454"></path><circle cx="255.88" cy="186.736" fill="#ffcc5b" r="186.736"></circle><path d="M281.208 165.312H162.872c-9.2 0-16.752-7.552-16.752-16.752l.128-1.152v-.256c-.128-9.712 7.792-17.648 17.52-17.648h82.016c10.864 0 20.464-8.048 21.104-18.928.512-11.376-8.56-20.976-19.952-20.976h-86.88c-9.584 0-16.752-8.048-16.624-17.648v-.512c-.128-9.584 7.024-17.648 16.624-17.648h90.912c10.736 0 20.336-8.048 20.976-18.8.512-11.504-8.56-20.976-19.952-20.976h-66.576C117.528 42 69.688 108.752 69.688 186.736s47.84 144.72 115.744 172.672h84.528c10.736 0 20.336-8.048 20.976-18.8.512-11.504-8.56-20.96-19.952-20.96l-96.16-.016c-11.344 0-20.48-9.488-19.872-20.976.56-10.752 10.224-18.832 20.992-18.832h37.28c10.72-.304 19.376-9.088 19.376-19.888 0-10.992-8.944-19.952-19.952-19.952h-56.512c-9.2 0-16.752-7.536-16.624-16.752v-1.408c-.64-9.072 6.656-16.752 15.728-16.752h124.816c10.864 0 20.464-8.048 21.104-18.8.512-11.488-8.576-20.96-19.952-20.96z" fill="#fdbc4b"></path><path d="M255.88 320.016c-73.504 0-133.296-59.808-133.296-133.296S182.376 53.44 255.88 53.44s133.296 59.808 133.296 133.296-59.792 133.28-133.296 133.28z" fill="#ffdb70"></path><path d="M191.656 239.504c-2.096 1.904-3.328 4.176-4.304 6.576-.928 2.416-1.6 4.96-1.424 7.808.192 2.864 1.36 6.016 1.52 8.848.032.368-.064.72-.048 1.072a133.768 133.768 0 0 1-13.76-22.48c.096-1.584.336-3.088.912-4.416.928-2.304 2.896-4.032 4.144-6.128 1.232-2.096 1.84-4.496 2.368-6.944.48-2.48.864-4.992.624-7.936-.224-.144-.464-.288-.688-.448-2.384 1.264-4.032 3.04-5.472 4.992-1.376 1.984-2.56 4.128-3.008 6.752-.416 2.64 0 5.76-.464 8.336-.08.496-.304.928-.432 1.408a135.282 135.282 0 0 1-8.048-24.224c.432-1.792 1.024-3.456 2-4.768 1.344-1.872 3.584-2.976 5.184-4.576 1.584-1.632 2.624-3.68 3.584-5.824.928-2.192 1.76-4.432 2.048-7.248l-.576-.576c-2.496.592-4.4 1.856-6.128 3.312-1.696 1.488-3.216 3.216-4.16 5.504-.912 2.32-1.12 5.296-2.08 7.536-.24.608-.624 1.072-.944 1.616a136.374 136.374 0 0 1-2.432-24.848c.848-1.968 1.84-3.76 3.28-4.944 1.632-1.408 3.936-1.856 5.744-2.96 1.792-1.12 3.152-2.816 4.448-4.592 1.264-1.84 2.448-3.776 3.232-6.4-.144-.24-.288-.464-.432-.704-2.464-.064-4.464.688-6.352 1.632-1.856 1.008-3.616 2.224-4.912 4.176-1.296 1.968-2.032 4.704-3.36 6.56-.448.656-1.008 1.136-1.552 1.648a138.849 138.849 0 0 1 3.024-24.304c.08-.128.16-.24.24-.368 1.296-1.968 2.736-3.712 4.544-4.592 1.776-.928 3.984-.752 5.872-1.36 1.872-.624 3.44-1.904 4.976-3.328 1.504-1.472 2.96-3.056 4.192-5.44-.096-.256-.176-.528-.272-.8-2.256-.656-4.24-.416-6.16.032-1.904.512-3.76 1.264-5.328 2.816-1.568 1.584-2.784 4.032-4.368 5.44-.688.656-1.44 1.088-2.224 1.504a137.516 137.516 0 0 1 8.56-23.408c.064.096.144.176.208.272.304-.32.624-.624.928-.944 1.6-1.584 3.264-2.912 5.072-3.312 1.808-.464 3.776.256 5.6.112 1.824-.16 3.52-1.04 5.216-2.08 1.68-1.104 3.344-2.336 4.976-4.416-.016-.288-.048-.576-.064-.848-1.904-1.168-3.744-1.408-5.6-1.408-1.84.048-3.68.352-5.44 1.504-1.76 1.184-3.392 3.28-5.12 4.272-.848.528-1.744.832-2.64 1.024.032-.176.032-.336.064-.512 5.824-10.816 13.232-21.04 22.24-30.352a139.539 139.539 0 0 0-21.76 27.008c.016-.288.144-.624.144-.912.144-2.08.24-4.144.048-6.096-.624-3.824-1.664-7.52-4.496-10.64l-.912.336c-3.008 5.296-3.792 9.92-3.808 14.144.128 2.064.592 3.952 1.216 5.76.512 1.872 1.44 3.52 2.592 5.04.16.224.32.432.496.656a137.66 137.66 0 0 0-8.624 20.16c-.016-.064 0-.144-.016-.224-.464-2.128-.912-4.288-1.6-6.288-1.6-3.856-3.552-7.52-7.104-10.256-.272.176-.528.352-.8.528-1.616 6.08-1.232 11.056-.144 15.44.64 2.112 1.616 3.984 2.704 5.744.992 1.84 2.352 3.376 3.888 4.736.048.032.096.08.128.112a139.622 139.622 0 0 0-3.712 20.832c-.944-2.064-1.904-4.112-3.056-5.952-2.592-3.68-5.456-7.12-9.68-9.328-.224.224-.448.448-.672.688-.096 6.592 1.552 11.648 3.76 15.968 1.2 2.064 2.656 3.808 4.208 5.408 1.36 1.568 3.008 2.752 4.752 3.808a141.4 141.4 0 0 0 .992 20.8c-1.408-1.792-2.8-3.6-4.336-5.152-3.568-3.264-7.344-6.272-12.144-7.824-.176.272-.336.544-.512.816 1.536 6.768 4.512 11.648 7.872 15.632 1.744 1.888 3.68 3.392 5.68 4.72 1.6 1.2 3.392 1.968 5.216 2.656a140.616 140.616 0 0 0 5.6 19.984c-1.808-1.44-3.584-2.912-5.456-4.144-4.512-2.64-9.136-5.008-14.448-5.712-.112.304-.208.608-.32.912 3.28 6.608 7.568 11.008 12.064 14.4 2.288 1.584 4.672 2.72 7.088 3.68 1.76.8 3.6 1.152 5.424 1.488a139.434 139.434 0 0 0 10.144 18.368c-2.144-1.024-4.272-2.112-6.416-2.912-5.376-1.76-10.784-3.28-16.464-3.04l-.096.992c5.072 6.08 10.688 9.68 16.256 12.208 2.8 1.136 5.6 1.808 8.384 2.288 1.824.4 3.616.336 5.424.352a143.95 143.95 0 0 0 9.712 11.136l5.488-5.488a138.077 138.077 0 0 1-11.104-12.08c-.176-1.376-.24-2.704-.048-3.968.336-2.672 1.856-4.976 2.592-7.472.704-2.512.752-5.168.72-7.856-.08-2.704-.256-5.408-1.12-8.4a6.241 6.241 0 0 0-.752-.32zM320.104 239.504c2.096 1.904 3.328 4.176 4.304 6.576.928 2.416 1.6 4.96 1.424 7.808-.192 2.864-1.36 6.016-1.52 8.848-.032.368.064.72.048 1.072a133.768 133.768 0 0 0 13.76-22.48c-.096-1.584-.336-3.088-.912-4.416-.928-2.304-2.896-4.032-4.144-6.128-1.232-2.096-1.84-4.496-2.368-6.944-.48-2.48-.864-4.992-.624-7.936.224-.144.464-.288.688-.448 2.384 1.264 4.032 3.04 5.472 4.992 1.376 1.984 2.56 4.128 3.008 6.752.416 2.64 0 5.76.464 8.336.08.496.304.928.432 1.408a135.282 135.282 0 0 0 8.048-24.224c-.432-1.792-1.024-3.456-2-4.768-1.344-1.872-3.584-2.976-5.184-4.576-1.584-1.632-2.624-3.68-3.584-5.824-.928-2.192-1.76-4.432-2.048-7.248l.576-.576c2.496.592 4.4 1.856 6.128 3.312 1.696 1.488 3.216 3.216 4.16 5.504.912 2.32 1.12 5.296 2.08 7.536.24.608.624 1.072.944 1.616a136.374 136.374 0 0 0 2.432-24.848c-.848-1.968-1.84-3.76-3.28-4.944-1.632-1.408-3.936-1.856-5.744-2.96-1.792-1.12-3.152-2.816-4.448-4.592-1.264-1.84-2.448-3.776-3.232-6.4.144-.24.288-.464.432-.704 2.464-.064 4.464.688 6.352 1.632 1.856 1.008 3.616 2.224 4.912 4.176 1.296 1.968 2.032 4.704 3.36 6.56.448.656 1.008 1.136 1.552 1.648a138.849 138.849 0 0 0-3.024-24.304c-.08-.128-.16-.24-.24-.368-1.296-1.968-2.736-3.712-4.544-4.592-1.776-.928-3.984-.752-5.872-1.36-1.872-.624-3.44-1.904-4.976-3.328-1.504-1.472-2.96-3.056-4.192-5.44.096-.256.176-.528.272-.8 2.256-.656 4.24-.416 6.16.032 1.904.512 3.76 1.264 5.328 2.816 1.568 1.584 2.784 4.032 4.368 5.44.688.656 1.44 1.088 2.224 1.504a133.719 133.719 0 0 0-8.528-23.392c-.064.096-.144.176-.208.272-.304-.32-.624-.624-.928-.944-1.6-1.584-3.264-2.912-5.072-3.312-1.808-.464-3.776.256-5.6.112-1.824-.16-3.52-1.04-5.216-2.08-1.68-1.104-3.344-2.336-4.976-4.416.016-.288.048-.576.064-.848 1.904-1.168 3.744-1.408 5.6-1.408 1.84.048 3.68.352 5.44 1.504 1.76 1.184 3.392 3.28 5.12 4.272.848.528 1.744.832 2.64 1.024-.032-.16-.048-.336-.064-.496-5.824-10.816-13.232-21.04-22.24-30.352a139.539 139.539 0 0 1 21.76 27.008c-.016-.288-.144-.624-.144-.912-.144-2.08-.24-4.144-.048-6.096.624-3.824 1.664-7.52 4.496-10.64l.912.336c3.008 5.296 3.792 9.92 3.808 14.144-.128 2.064-.592 3.952-1.216 5.76-.512 1.872-1.44 3.52-2.592 5.04-.16.224-.32.432-.496.656a137.66 137.66 0 0 1 8.624 20.16c.016-.064 0-.144.016-.224.432-2.16.88-4.32 1.568-6.32 1.6-3.856 3.552-7.52 7.104-10.256.272.176.544.336.816.512 1.616 6.08 1.232 11.056.16 15.44-.64 2.112-1.616 3.984-2.704 5.744-.992 1.84-2.352 3.376-3.888 4.736-.048.032-.096.08-.128.112a139.622 139.622 0 0 1 3.712 20.832c.944-2.064 1.904-4.112 3.056-5.952 2.592-3.68 5.456-7.12 9.68-9.328l.672.672c.096 6.592-1.552 11.648-3.76 15.968-1.2 2.064-2.656 3.808-4.208 5.408-1.36 1.568-3.008 2.752-4.752 3.808a141.4 141.4 0 0 1-.992 20.8c1.408-1.792 2.8-3.6 4.336-5.152 3.568-3.264 7.344-6.272 12.144-7.824.176.272.336.544.512.816-1.536 6.768-4.512 11.648-7.872 15.632-1.744 1.888-3.68 3.392-5.68 4.72-1.6 1.2-3.392 1.968-5.216 2.656a140.616 140.616 0 0 1-5.6 19.984c1.808-1.44 3.584-2.912 5.456-4.144 4.512-2.64 9.136-5.008 14.448-5.712.112.304.208.608.32.912-3.28 6.608-7.568 11.008-12.064 14.4-2.288 1.584-4.672 2.72-7.088 3.68-1.76.8-3.6 1.152-5.424 1.488a139.434 139.434 0 0 1-10.144 18.368c2.144-1.024 4.272-2.112 6.416-2.912 5.376-1.76 10.784-3.28 16.464-3.04l.096.992c-5.072 6.08-10.688 9.68-16.256 12.208-2.8 1.136-5.6 1.808-8.384 2.288-1.824.4-3.616.336-5.424.352a143.95 143.95 0 0 1-9.712 11.136l-5.488-5.488c3.984-3.84 7.68-7.888 11.104-12.08.176-1.376.24-2.704.048-3.968-.336-2.672-1.856-4.976-2.592-7.472-.704-2.512-.752-5.168-.72-7.856.08-2.704.256-5.408 1.12-8.4.208-.096.464-.192.72-.288z" fill="#ed6362"></path><path d="M253.24 98.464c-3.84 10.72-10.912 20.08-21.232 28.128-5.264 4.112-10.224 7.136-15.072 9.808v30.8c10.976-5.056 21.232-11.072 29.936-19.216v126.992h33.696V98.464H253.24z" fill="#e95454"></path></g></svg>