<svg viewBox="0 0 256 256" xmlns="http://www.w3.org/2000/svg"><g><ellipse cx="126.883" cy="82.137" fill="#898890" rx="77.275" ry="20.87"></ellipse><g fill="#4d4c51"><path d="m176.52 78.837-11.31-50.08a10.989 10.989 0 0 0-16.622-6.861 40.349 40.349 0 0 1-21.705 6.092 40.349 40.349 0 0 1-21.704-6.092 10.989 10.989 0 0 0-16.622 6.861l-11.31 50.08c31.402 10.747 64.546 10.244 99.273 0zM63.067 112.68H190.7v6.6H63.067z" fill="#4d4c51"></path><path d="M108.445 145.588H82.757a6.483 6.483 0 0 1-6.483-6.484V115.98h44.951l-6.51 24.772a6.483 6.483 0 0 1-6.27 4.836zM171.01 145.588h-25.688a6.483 6.483 0 0 1-6.27-4.836l-6.51-24.772h44.951v23.124a6.483 6.483 0 0 1-6.483 6.484z" fill="#4d4c51"></path></g><path d="M127.036 179.392c-13.27-10.01-34.928-21.878-63.036-21.878l12.363 33.983c-26.933 9.236-46.115 25.63-50.283 44.839h201.607c-4.168-19.207-23.345-35.598-50.273-44.835l12.352-33.987c-48.609 0-77.929 35.493-77.929 35.493l18.518 18.518" fill="#acabb1"></path><path d="M115.736 236.336h111.951c-4.168-19.207-23.345-35.598-50.273-44.835l12.352-33.987c-48.609 0-77.929 35.493-77.929 35.493l18.518 18.518" fill="#898890"></path></g></svg>