<svg viewBox="0 0 512 512" xmlns="http://www.w3.org/2000/svg"><g><path d="M151 30h45v30h-45z" fill="#fabe2c"></path><path d="M316 30h45v30h-45z" fill="#ff9100"></path><path d="M256 0h-75v106c0 27.656 15.132 53.969 39.492 67.064C232.958 179.788 241 194.598 241 210.799V257h30v-46.201c0-16.201 8.042-31.011 20.493-37.72C315.868 159.969 331 133.656 331 106V0z" fill="#fabe2c"></path><path d="M271 210.799c0-16.201 8.042-31.011 20.493-37.72C315.868 159.969 331 133.656 331 106V0h-75v257h15z" fill="#ff9100"></path><path d="M256 302H90v75h30v-45h272v45h30v-75z" fill="#474f54"></path><path d="M392 377h30v-75H256v30h136z" fill="#32393f"></path><path d="M256 242h-45v30h90v-30z" fill="#fabe2c"></path><path d="M256 242h45v30h-45z" fill="#ff9100"></path><path d="M180 437h-30v-45H60v45H30v-75h150z" fill="#474f54"></path><path d="M482 437h-30v-45h-90v45h-30v-75h150z" fill="#32393f"></path><path d="M347 512c-24.814 0-45-20.186-45-45s20.186-45 45-45 45 20.186 45 45-20.186 45-45 45zM467 512c-24.814 0-45-20.186-45-45s20.186-45 45-45 45 20.186 45 45-20.186 45-45 45z" fill="#ff641a"></path><g fill="#fabe2c"><path d="M45 512c-24.814 0-45-20.186-45-45s20.186-45 45-45 45 20.186 45 45-20.186 45-45 45zM165 512c-24.814 0-45-20.186-45-45s20.186-45 45-45 45 20.186 45 45-20.186 45-45 45z" fill="#fabe2c"></path></g></g></svg>