<svg viewBox="0 0 512 512" xmlns="http://www.w3.org/2000/svg"><g><g fill-rule="evenodd"><path d="M265.734 424.272c5.2 19.204.262 40.579-14.815 55.656-17.129 17.129-42.387 21.171-63.354 12.128l32.49-32.49-6.333-23.633-23.634-6.333-32.49 32.49c-9.043-20.967-5.001-46.225 12.128-63.354 15.077-15.077 36.453-20.014 55.656-14.814l162.685-162.685c-5.2-19.204-.262-40.58 14.814-55.657 17.129-17.129 42.387-21.171 63.354-12.127l-32.491 32.49 6.333 23.633 23.634 6.333 32.49-32.49c9.042 20.967 5.001 46.225-12.128 63.354-15.076 15.077-36.452 20.014-55.655 14.814L265.733 424.272z" fill="#5d689e"></path><path d="M244.367 485.569c-16.626 12.273-38.371 14.436-56.801 6.487l20.293-20.293 12.197-12.197-6.333-23.633-23.633-6.333-12.197 12.198-20.293 20.293c-7.949-18.43-5.786-40.175 6.486-56.8 14.359-10.598 32.537-13.656 49.1-9.17l12.198-12.198 150.488-150.488 12.197-12.198c-4.485-16.563-1.428-34.74 9.17-49.1 16.625-12.273 38.37-14.435 56.801-6.487l-20.293 20.293-12.197 12.197 6.332 23.634 23.634 6.332 12.197-12.197 20.293-20.293c7.949 18.43 5.786 40.175-6.487 56.801-14.359 10.597-32.536 13.655-49.098 9.17l-12.197 12.198-150.488 150.488-12.198 12.198c4.485 16.562 1.428 34.74-9.17 49.098z" fill="#7986bf"></path><path d="m140.338 166.397 150.028 150.028-24.477 24.478L115.86 190.874l-10.591 10.592-60.266-80.011 12.958-12.958L70.919 95.54l80.01 60.265z" fill="#9191bd"></path><path d="m282.264 324.527-16.375 16.376L115.86 190.874l-8.102 8.102-2.489 2.49-60.266-80.011 12.958-12.958 4.856-4.855 80.01 60.265-2.489 2.49-8.102 8.102z" fill="#aeaed6"></path><path d="m232.942 299.964 16.485-16.485a10.962 10.962 0 0 1 14.469-.969 70.42 70.42 0 0 0 24.878 12.14l83.835 83.835c8.988 8.988 8.987 23.65 0 32.637l-12.025 12.025c-8.987 8.987-23.649 8.988-32.637 0l-83.835-83.835a70.42 70.42 0 0 0-12.14-24.878 10.963 10.963 0 0 1 .969-14.47z" fill="#e8333c"></path><path d="m232.942 299.964 12.38-12.38a70.406 70.406 0 0 0 24.428 11.799l83.835 83.836c8.988 8.987 8.987 23.65 0 32.637l-12.025 12.025a23.05 23.05 0 0 1-1.746 1.577 22.922 22.922 0 0 1-11.866-6.311l-83.835-83.835a70.42 70.42 0 0 0-12.14-24.878 10.963 10.963 0 0 1 .969-14.47z" fill="#fb545c"></path><path d="M266.095 343.21a5.999 5.999 0 1 1 8.484-8.484l65.812 65.812a5.999 5.999 0 1 1-8.484 8.484zm18.093-18.093 65.813 65.813a5.999 5.999 0 1 0 8.484-8.484l-65.813-65.813a6 6 0 0 0-8.484 0 6 6 0 0 0 0 8.484z" fill="#c2232b"></path></g><circle cx="280.935" cy="115.257" fill="#ffffff" r="51.327" stroke="#000" stroke-linejoin="round" stroke-width="10" transform="rotate(-80.73 280.922 115.25)"></circle><path d="m260.321 35.366-21.289 8.831-17.034-11.424-23.546 23.547 11.423 17.034-8.831 21.288-20.108 3.965v33.3l20.108 3.965 8.831 21.288-11.423 17.034 23.546 23.547 17.034-11.423 21.289 8.83 3.965 20.109h33.299l3.965-20.109 21.289-8.83 17.034 11.423 23.546-23.547-11.423-17.034 8.831-21.288 20.108-3.965v-33.3l-20.108-3.965-8.831-21.288 11.423-17.034-23.546-23.547-17.034 11.424-21.289-8.831-3.965-20.109h-33.299z" fill="#f9ac00" fill-rule="evenodd"></path><path d="m260.321 35.366-7.965 3.304-.135.056-13.189 5.47-.009-.006-4.523 1.872-15.438-10.353-20.61 20.611 11.423 17.034-8.831 21.288-20.108 3.965v33.3l20.108 3.965 8.831 21.288-11.423 17.034 20.611 20.611 15.437-10.353 4.522 1.872.01-.007 21.289 8.831 3.965 20.109h28.093l4.153-21.061 23.512-9.753 2.795 1.874 12.656 8.487 20.61-20.609-11.423-17.034L355.3 131.49l18.322-3.612v-25.242L355.3 99.024l-10.618-25.67 11.423-17.034-20.611-20.61-15.45 10.361-23.512-9.753-4.153-21.061h-28.093z" fill="#fdc72e" fill-rule="evenodd"></path><circle cx="274.484" cy="115.257" fill="#f9ac00" r="51.634" transform="rotate(-10.02 274.91 115.388)"></circle><circle cx="280.935" cy="115.257" fill="#f3f3ff" r="51.634"></circle><circle cx="94.61" cy="322.521" fill="#ffffff" r="42.858" stroke="#000" stroke-linejoin="round" stroke-width="10" transform="rotate(-72.96 94.599 322.55)"></circle><path d="m77.397 255.812-17.777 7.374-14.223-9.538-19.661 19.661 9.539 14.223-7.374 17.776-16.791 3.311v27.805l16.791 3.311 7.374 17.776-9.539 14.223 19.661 19.661 14.223-9.538 17.777 7.374 3.31 16.79h27.805l3.311-16.79 17.776-7.374 14.224 9.538 19.661-19.661-9.538-14.223 7.373-17.776 16.791-3.311v-27.805l-16.791-3.311-7.373-17.776 9.538-14.223-19.661-19.661-14.224 9.538-17.776-7.374-3.311-16.79H80.707z" fill="#f9ac00" fill-rule="evenodd"></path><path d="m77.397 255.812-6.651 2.759-.112.047-11.013 4.568-.008-.006-3.776 1.564-12.891-8.645-17.21 17.21 9.539 14.223-7.374 17.776-16.791 3.311v27.805l16.791 3.311 7.374 17.776-9.539 14.223 17.21 17.21 12.891-8.645 3.775 1.563.009-.005 17.776 7.374 3.311 16.79h23.458l3.467-17.585 19.633-8.144 2.333 1.565 10.568 7.086 17.21-17.208-9.539-14.224 8.867-21.435 15.298-3.016V311.983l-15.298-3.016-8.867-21.435 9.539-14.223-17.21-17.21-12.901 8.652-19.633-8.143-3.467-17.586H80.708z" fill="#fdc72e" fill-rule="evenodd"></path><circle cx="89.223" cy="322.521" fill="#f9ac00" r="43.114"></circle><circle cx="94.61" cy="322.521" fill="#f3f3ff" r="43.114"></circle></g></svg>