<svg viewBox="0 0 52 52" xmlns="http://www.w3.org/2000/svg"><g><path d="m47.3 28.2-.6 2.5-.2.9C40.6 32 30 33 26.1 34.1c3.1-6 13.6-7.3 20.3-7.2.6.1 1 .7.9 1.3zM26 34.2c-3.9-1.1-14.5-2.1-20.4-2.5l-.2-.9-.6-2.5c-.2-.7.2-1.3.9-1.3 6.7-.1 17.2 1.1 20.3 7.2z" fill="#deddff"></path><path d="M50 38.6c0 .6-.5 1.1-1.1 1.1H30.1c-.4 1.5-1.8 2.6-3.4 2.6h-1.4c-1.6 0-3-1.1-3.4-2.6H3.1c-.6 0-1.1-.5-1.1-1.1s.5-1.1 1.1-1.1h19.6c.5 0 .8.4.8.9h5c0-.5.4-.9.8-.9h19.6c.6 0 1.1.5 1.1 1.1z" fill="#e83d62"></path><path d="M50 38.6c0 .6-.5 1.1-1.1 1.1H30.1c-.4 1.5-1.8 2.7-3.4 2.7h-1.4c-1.6 0-3-1.1-3.4-2.7H3.1c-.6 0-1.1-.5-1.1-1.1 0-.2 0-.4.1-.5.2.3.5.5.9.5h18.8c.4 1.5 1.8 2.6 3.4 2.6h1.4c1.6 0 3-1.1 3.4-2.6h18.8c.4 0 .8-.2.9-.5.2.1.3.3.3.5z" fill="#ce2955"></path><path d="M49.1 32.6v4.9H29.3c-.4 0-.8.4-.8.9 0 1-.8 1.8-1.8 1.8h-1.4c-1 0-1.8-.8-1.8-1.8 0-.4-.3-.8-.8-.9H2.9v-4.9c0-.6.5-1 1-1 8.3.2 16.7 1.1 22 2.5 5.3-1.5 13.7-2.3 22-2.5.7 0 1.2.5 1.2 1z" fill="#deddff"></path><path d="M49.1 35.8v1.7H29.3c-.4.1-.8.4-.8.9 0 1-.8 1.8-1.8 1.8h-1.4c-1 0-1.8-.8-1.8-1.8 0-.4-.3-.8-.8-.9H2.9v-1.7h19.8c.4.1.8.4.8.9 0 1 .8 1.8 1.8 1.8h1.4c1 0 1.8-.8 1.8-1.8 0-.4.3-.8.8-.9zM26 34.2C21.6 33 10.2 32 5.6 31.7l-.2-.9c6.1.2 11.8.7 16.2 1.5.5.1.8-.6.4-.9-4.4-3.6-12.2-4.3-16.4-4.4h.1c6.7-.1 17.2 1.1 20.3 7.2zM46.6 30.8l-.2.9C42 32 30.3 33 26 34.2c3.1-6 13.6-7.3 20.3-7.2h.1c-4.2.1-12 .8-16.4 4.4-.4.3-.1 1 .4.9 4.5-.8 10.1-1.4 16.2-1.5z" fill="#c6c6f7"></path><path d="m22.3 21.6-2.1.6c-.4.1-.7.5-.9.9l-.6 2.1c-.1.3-.5.3-.6 0l-.6-2.1c-.1-.4-.5-.7-.9-.9l-2.1-.6c-.3-.1-.3-.5 0-.6l2.1-.6c.4-.1.7-.5.9-.9l.6-2.1c.1-.3.5-.3.6 0l.6 2.1c.1.4.5.7.9.9l2.1.6c.3.1.3.5 0 .6z" fill="#fcb73e"></path><path d="m35.7 23.1-1.6.5c-.3.1-.6.3-.7.7l-.4 1.6c-.1.2-.4.2-.5 0l-.5-1.6c-.1-.3-.3-.6-.7-.7l-1.6-.5c-.2-.1-.2-.4 0-.5l1.6-.5c.3-.1.6-.3.7-.7l.5-1.6c.1-.2.4-.2.5 0l.5 1.6c.1.3.3.6.7.7l1.6.5c.2.1.2.5-.1.5z" fill="#65b9ff"></path><path d="m30.4 15.7-1.6.5c-.3.1-.6.3-.7.7l-.5 1.6c-.1.2-.4.2-.5 0l-.5-1.6c-.1-.3-.3-.6-.7-.7l-1.6-.5c-.2-.1-.2-.4 0-.5l1.6-.5c.3-.1.6-.3.7-.7l.5-1.6c.1-.2.4-.2.5 0l.5 1.6c.1.3.3.6.7.7l1.6.5c.2.1.2.4 0 .5z" fill="#f879ca"></path><path d="M37.7 14.1v1.1c0 .2-.1.3-.3.3s-.3-.1-.3-.3v-1.1c0-.2.1-.3.3-.3.1 0 .3.1.3.3zM37.7 16.8v1.1c0 .2-.1.3-.3.3s-.3-.1-.3-.3v-1.1c0-.2.1-.3.3-.3.1 0 .3.1.3.3zM35.1 16c0-.2.1-.3.3-.3h1.1c.2 0 .3.1.3.3s-.1.3-.3.3h-1.1c-.1 0-.3-.2-.3-.3M38.2 15.7h1.1c.2 0 .3.1.3.3s-.1.3-.3.3h-1.1c-.2 0-.3-.1-.3-.3s.1-.3.3-.3zM19.2 10v1c0 .2-.1.3-.3.3s-.3-.1-.3-.3v-1c0-.2.1-.3.3-.3s.3.1.3.3zM19.2 12.7v1.1c0 .2-.1.3-.3.3s-.3-.1-.3-.3v-1.1c0-.2.1-.3.3-.3s.3.1.3.3zM16.7 11.9c0-.2.1-.3.3-.3h1c.2 0 .3.1.3.3s-.1.3-.3.3h-1c-.2 0-.3-.1-.3-.3M19.7 11.6h1.1c.2 0 .3.1.3.3s-.1.3-.3.3h-1.1c-.2 0-.3-.1-.3-.3s.2-.3.3-.3z" fill="#65b9ff"></path></g></svg>