<svg viewBox="0 0 512 512" xmlns="http://www.w3.org/2000/svg"><g><path d="M298.513 218.213a7.837 7.837 0 0 1-7.837-7.837v-67.393c0-4.328 3.508-7.837 7.837-7.837s7.837 3.509 7.837 7.837v67.393a7.837 7.837 0 0 1-7.837 7.837zM326.809 226.073a7.838 7.838 0 0 1-6.708-11.878l29.257-48.626a7.838 7.838 0 0 1 13.431 8.08l-29.257 48.626a7.836 7.836 0 0 1-6.723 3.798zM343.377 241.462a7.826 7.826 0 0 1-6.41-3.32 7.836 7.836 0 0 1 1.885-10.921l38.406-27.099a7.836 7.836 0 0 1 10.921 1.885 7.836 7.836 0 0 1-1.885 10.921l-38.406 27.099a7.793 7.793 0 0 1-4.511 1.435zM351.149 257.523a7.838 7.838 0 0 1-2.222-15.353l31.071-9.203a7.836 7.836 0 1 1 4.451 15.027l-31.071 9.203a7.766 7.766 0 0 1-2.229.326zM270.216 226.073a7.834 7.834 0 0 1-6.723-3.798l-29.257-48.626a7.837 7.837 0 0 1 13.431-8.08l29.257 48.626a7.837 7.837 0 0 1-6.708 11.878zM253.648 241.462a7.8 7.8 0 0 1-4.511-1.435l-38.407-27.099a7.837 7.837 0 0 1 9.036-12.806l38.407 27.099a7.837 7.837 0 0 1 1.885 10.921 7.822 7.822 0 0 1-6.41 3.32zM245.877 257.523a7.804 7.804 0 0 1-2.229-.325l-31.071-9.203a7.838 7.838 0 0 1-5.289-9.739 7.834 7.834 0 0 1 9.739-5.288l31.071 9.203a7.838 7.838 0 0 1-2.221 15.352zM243.662 425.555V265.236h109.704V469.44" fill="#368a50"></path><path d="m396.423 453.861 18.067-16.489-50.156-68.963H262.457l-48.577-21.682-54.074-184.414h-24.294l29.78 245.28-23.521 29.455 36.06 44.21v30.741h249.197z" fill="#5ebc77"></path><path d="m191.039 375.342-52.838-190.92 27.094 223.17M213.881 346.73l-47.048 121.036-25.053-30.717z" fill="#368a50"></path><path d="m207.34 324.421 6.541 22.309-48.589 60.863-6.315-52.046zM159.809 92.044v70.269H132.6c-2.121 0-4.169-.261-6.134-.752-11.003-2.738-19.163-12.685-19.163-24.545V92.044h52.506zM235.261 512l81.502-143.59h47.575L258.757 512z" fill="#368a50"></path><path d="M159.809 130.768v31.545H132.6c-2.121 0-4.169-.261-6.134-.752V145.52c0-8.147 6.605-14.752 14.752-14.752h18.591z" fill="#5ebc77"></path><path d="m105.27 80.033-8.969-64.855 23.853 18.629L137.697 0l11.334 31.737 21.783-16.559-7.589 64.855" fill="#ffa700"></path><path d="M298.512 210.377c-30.295 0-54.854 24.559-54.854 54.854v26.644c0 30.295 24.559 54.854 54.854 54.854 30.296 0 54.855-24.559 54.855-54.854v-26.644c0-30.295-24.559-54.854-54.855-54.854z" fill="#5ebc77"></path><path d="M262.466 291.874V265.23c0-27.087 19.639-49.573 45.45-54.035a55.09 55.09 0 0 0-9.404-.819c-30.295 0-54.854 24.559-54.854 54.854v26.644c0 30.295 24.559 54.854 54.854 54.854 3.208 0 6.347-.292 9.404-.819-25.811-4.461-45.45-26.948-45.45-54.035z" fill="#368a50"></path><path d="M353.369 265.236v26.634l-.293.031c-1.327-12.863-7.105-24.409-15.767-33.071-9.927-9.927-23.646-16.06-38.797-16.06-29.33 0-53.279 23.019-54.774 51.973a52.714 52.714 0 0 1-.073-2.873v-26.634c0-15.151 6.144-28.871 16.06-38.797 9.927-9.927 23.646-16.06 38.787-16.06 30.302 0 54.857 24.555 54.857 54.857z" fill="#368a50"></path><path d="M84.972 79.506h97.176v25.077H84.972z" fill="#47a562"></path><path d="M84.972 79.506h41.619v25.077H84.972zM330.115 277.908l-29.814-6.985c-.024-.005-.05-.007-.074-.013a7.69 7.69 0 0 0-.648-.113c-.069-.009-.137-.024-.205-.031a7.885 7.885 0 0 0-.861-.049c-.292 0-.578.019-.861.049-.068.007-.136.022-.205.031-.218.03-.436.066-.648.113-.024.005-.05.007-.074.013l-29.815 6.985a7.838 7.838 0 0 0 3.576 15.261l20.191-4.73v11.729c0 4.328 3.508 7.837 7.837 7.837s7.837-3.509 7.837-7.837v-11.729l20.19 4.73a7.843 7.843 0 0 0 9.419-5.843 7.84 7.84 0 0 0-5.845-9.418zM396.423 453.861l-43.244 39.612 50.531-25.77M262.457 368.409l-30.486 43.562 11.691-51.95" fill="#368a50"></path></g></svg>