<svg viewBox="0 0 504.302 504.302" xmlns="http://www.w3.org/2000/svg"><g><path d="M305.566 197.062h33.763c14.375 0 26.028-11.653 26.028-26.028v-23.54c0-14.375-11.653-26.028-26.028-26.028h-33.763z" fill="#fed2a4"></path><path d="M339.329 121.465h-21.111c14.375 0 26.028 11.653 26.028 26.028v23.54c0 14.375-11.653 26.028-26.028 26.028h21.111c14.375 0 26.028-11.653 26.028-26.028v-23.54c0-14.375-11.653-26.028-26.028-26.028z" fill="#ffbd86"></path><path d="M114.106 197.062H82.735c-14.375 0-26.028-11.653-26.028-26.028v-23.54c0-14.375 11.653-26.028 26.028-26.028h31.371z" fill="#fed2a4"></path><path d="M84.676 121.465h29.43v75.597h-29.43z" fill="#ffbd86"></path><path d="M451.133 504.302a7.499 7.499 0 0 1-7.5-7.5V326.283c0-4.143 3.357-7.5 7.5-7.5s7.5 3.357 7.5 7.5v170.518a7.5 7.5 0 0 1-7.5 7.501z" fill="#dad8db"></path><path d="M173.823 275.729h74.418v64.214h-74.418z" fill="#ffbd86"></path><path d="M227.13 275.729h21.111v64.214H227.13z" fill="#f6a96c"></path><path d="M408.338 497h-179.95l-17.36-11.47-17.35 11.47H13.728c-5.04 0-9-4.33-8.55-9.35l8.91-98.78c2.72-30.17 25.93-53.93 55.16-58.05 2.96-.42 5.99-.64 9.06-.64h58.45l74.27 11.19 74.28-11.19h58.45c3.07 0 6.1.22 9.06.64 29.22 4.12 52.44 27.88 55.16 58.05l8.91 98.78c.45 5.02-3.51 9.35-8.55 9.35z" fill="#79737a"></path><path d="M407.977 388.87c-3-33.23-30.86-58.69-64.22-58.69h-21.111c33.36 0 61.22 25.46 64.22 58.69l8.826 97.884A11.013 11.013 0 0 1 390.691 497h17.647c5.043 0 8.999-4.328 8.546-9.351z" fill="#6f6571"></path><path d="M285.308 330.18v57.1c0 22.93-7.55 45.23-21.49 63.44L228.388 497h-34.71l-35.43-46.28a104.373 104.373 0 0 1-21.49-63.44v-57.1h9.56l64.71 11.19 53.17-9.19 11.55-2z" fill="#dad8db"></path><path d="M285.308 330.18v57.1c0 22.93-7.55 45.23-21.49 63.44L228.388 497h-21.11l35.43-46.28a104.373 104.373 0 0 0 21.49-63.44v-55.1l11.55-2zM211.032 450.394a7.5 7.5 0 0 1-7.5-7.5v-61.853c0-4.143 3.358-7.5 7.5-7.5s7.5 3.357 7.5 7.5v61.853a7.5 7.5 0 0 1-7.5 7.5z" fill="#c8c5c9"></path><path d="m192.431 330.18 6.143 18.698-6.143 21.132-20.54 5.92-22.92 6.6c-6.11 1.77-12.21-2.82-12.21-9.19v-33.59c0-5.28 4.28-9.57 9.56-9.57z" fill="#6fd7a3"></path><path d="m192.431 330.18 6.143 18.698-6.143 21.132-20.54 5.92c-.37-.92-.57-1.93-.57-2.99v-42.31c0-.15 0-.3.01-.45z" fill="#3ec3a4"></path><path d="M275.745 330.183h-46.108l-5.85 16.63 5.85 23.195 43.459 12.526c6.115 1.763 12.214-2.827 12.214-9.191v-33.596c0-5.282-4.283-9.564-9.565-9.564z" fill="#6fd7a3"></path><path d="M275.745 330.183h-21.111a9.564 9.564 0 0 1 9.565 9.565v33.596a9.471 9.471 0 0 1-2.133 6.012l11.03 3.179c6.115 1.763 12.214-2.827 12.214-9.191v-33.596c0-5.283-4.283-9.565-9.565-9.565z" fill="#3ec3a4"></path><path d="m316.278 148.72-5.08 10.54 5.08 13.63v48.96c0 39.42-31.96 71.38-71.38 71.38h-67.73c-39.42 0-71.38-31.96-71.38-71.38v-49.39l5.31-13.2-5.31-10.54V95.31h210.49z" fill="#fed2a4"></path><path d="m316.278 148.72-5.08 10.54 5.08 13.63v48.96c0 39.42-31.96 71.38-71.38 71.38h-21.11c39.42 0 71.38-31.96 71.38-71.38V95.31h21.11zM211.079 216.501h-.094c-8.825 0-15.979-7.154-15.979-15.979V148.72h32.051v51.802c0 8.825-7.153 15.979-15.978 15.979z" fill="#ffbd86"></path><path d="M227.058 148.72v51.8c0 8.83-7.15 15.98-15.98 15.98h-.09c-2.91 0-5.63-.77-7.97-2.13 4.79-2.75 8.01-7.92 8.01-13.85v-51.8z" fill="#f6a96c"></path><path d="M316.278 67.24v28.07l-81.78 18.32a107.433 107.433 0 0 1-46.94 0l-81.77-18.32V18.12c0-10.01 8.11-18.12 18.12-18.12h77.73c3.06 0 6.07.82 8.71 2.37l26.09 15.36h30.33c27.34 0 49.51 22.17 49.51 49.51z" fill="#5d5360"></path><path d="M316.278 67.24v28.07l-21.11 4.73v-32.8c0-27.34-22.17-49.51-49.51-49.51h21.11c27.34 0 49.51 22.17 49.51 49.51z" fill="#4b3f4e"></path><path d="M291.673 197.062H256.57a22.32 22.32 0 0 1-21.653-16.905l-7.86-31.436h89.219v23.738c.001 13.587-11.015 24.603-24.603 24.603z" fill="#eceaec"></path><path d="M295.165 148.72v23.738c0 13.588-11.015 24.604-24.603 24.604h21.111c13.588 0 24.603-11.015 24.603-24.604V148.72z" fill="#dad8db"></path><path d="M130.391 197.062h35.103a22.32 22.32 0 0 0 21.653-16.905l7.86-31.436h-89.219v23.738c-.001 13.587 11.015 24.603 24.603 24.603z" fill="#eceaec"></path><path d="m173.895 148.72-7.86 31.436a22.319 22.319 0 0 1-21.653 16.905h21.111a22.32 22.32 0 0 0 21.653-16.905l7.86-31.436z" fill="#dad8db"></path><path d="m495.581 350.93-8.562 8.562c-4.771 4.771-12.505 4.771-17.275 0l-67.089-67.089 4.941-19.734 20.896-6.104 67.089 67.089c4.77 4.771 4.77 12.505 0 17.276z" fill="#5d5360"></path><path d="m495.578 350.93-8.56 8.56c-.59.59-1.21 1.1-1.88 1.54a12.204 12.204 0 0 0-1.54-15.4l-67.08-67.09-11.21 3.28 2.29-9.15 20.89-6.11 67.09 67.09c4.77 4.77 4.77 12.51 0 17.28z" fill="#4b3f4e"></path><path d="M367.543 231.454c-13.263 13.263-13.263 34.767 0 48.03l14.798 14.798c5.09 5.09 13.344 5.09 18.434 0l29.596-29.596c5.09-5.09 5.09-13.344 0-18.434l-14.798-14.798c-13.264-13.263-34.767-13.263-48.03 0z" fill="#dd5790"></path><path d="m430.368 264.69-12.76 12.76c5.09-5.09 5.09-13.34 0-18.43l-14.8-14.8c-11.05-11.06-27.83-12.9-40.79-5.52 1.47-2.6 3.31-5.04 5.52-7.25 13.27-13.26 34.77-13.26 48.03 0l14.8 14.8c5.09 5.09 5.09 13.35 0 18.44z" fill="#da387d"></path><path d="M276.088 70.7c-.7.21-1.4.3-2.09.3-3.25 0-6.25-2.13-7.2-5.41-9.41-32.46-30.16-47.71-30.36-47.86h21.4c7.86 9.15 17.54 23.57 23.37 43.68a7.5 7.5 0 0 1-5.12 9.29z" fill="#4b3f4e"></path><path d="M211.032 267.703c-14.408 0-27.751-7.192-35.695-19.238a7.5 7.5 0 0 1 12.522-8.258c5.16 7.824 13.822 12.496 23.173 12.496s18.013-4.672 23.173-12.496a7.498 7.498 0 0 1 10.39-2.132 7.5 7.5 0 0 1 2.132 10.39c-7.943 12.046-21.287 19.238-35.695 19.238z" fill="#f6a96c"></path><path d="M99.788 450.06V497h-15v-46.94c0-8.82-.59-17.72-1.74-26.46l-13.8-92.78c2.96-.42 5.99-.64 9.06-.64h6.01l13.6 91.46c1.24 9.38 1.87 18.95 1.87 28.42zM352.818 330.82l-13.8 92.78a203.54 203.54 0 0 0-1.74 26.46V497h-15v-46.94c0-9.47.63-19.04 1.87-28.42l13.6-91.46h6.01c3.07 0 6.1.22 9.06.64z" fill="#6f6571"></path><path d="M221.536 322.533h-21.007a8.101 8.101 0 0 0-8.101 8.101v42.306a8.101 8.101 0 0 0 8.101 8.101h21.007a8.101 8.101 0 0 0 8.101-8.101v-42.306a8.101 8.101 0 0 0-8.101-8.101z" fill="#6fd7a3"></path><path d="M229.638 330.63v42.31c0 4.47-3.63 8.1-8.1 8.1h-18.61c4.48 0 8.1-3.63 8.1-8.1v-42.31c0-4.47-3.62-8.1-8.1-8.1h18.61c4.47 0 8.1 3.63 8.1 8.1z" fill="#3ec3a4"></path></g></svg>