<svg viewBox="0 0 512 512" xmlns="http://www.w3.org/2000/svg"><g><path d="M464 96H272c-26.512 0-48-21.488-48-48s21.488-48 48-48h192c26.512 0 48 21.488 48 48s-21.488 48-48 48zm0 0" fill="#62808c"></path><path d="M464 448H272c-26.512 0-48-21.488-48-48s21.488-48 48-48h192c26.512 0 48 21.488 48 48s-21.488 48-48 48zm0 0" fill="#48c8ef"></path><path d="M464 272H272c-26.512 0-48-21.488-48-48s21.488-48 48-48h192c26.512 0 48 21.488 48 48s-21.488 48-48 48zm0 0" fill="#77959e"></path><path d="M160 416h-48C50.258 416 0 365.762 0 304V144c0-40.96 22.336-78.625 58.305-98.305L73.68 73.777C47.969 87.84 32 114.734 32 144v160c0 44.113 35.887 80 80 80h48zM98.687 65.09l-5.214-31.555A112.436 112.436 0 0 1 112 32h16v32h-16c-4.434 0-8.91.367-13.313 1.09zM192 64h-32V32h32zm0 0" fill="#48c8ef"></path><path d="M112 464c-6.238-6.238-6.238-16.383 0-22.625L153.375 400 112 358.625c-6.238-6.242-6.238-16.387 0-22.625s16.383-6.238 22.625 0l64 64-64 64c-6.242 6.238-16.387 6.238-22.625 0zm0 0" fill="#24b2d3"></path></g></svg>