<svg viewBox="0 0 510.447 510.447" xmlns="http://www.w3.org/2000/svg"><g><path d="M309.058 212.306a7.966 7.966 0 0 1-7.64-5.732l-17.691-60.577a7.963 7.963 0 0 1 15.287-4.464l17.691 60.576a7.964 7.964 0 0 1-7.647 10.197z" fill="#46738c"></path><path d="M271.722 460.177c-12.83-1.64-21.901-13.369-20.262-26.198l15.44-120.843a23.417 23.417 0 0 1 17.376-19.707l113.655-29.342c12.519-3.232 25.297 4.298 28.529 16.821 3.233 12.524-3.041 29.326-15.564 32.559l-99.547 21.346-13.429 105.102c-1.641 12.843-13.383 21.898-26.198 20.262z" fill="#55696e"></path><path d="M412.216 156.846h-32.161c-18.771 0-33.989 15.217-33.989 33.988v86.642l55.496 44.868h44.642V190.835c.001-18.772-15.216-33.989-33.988-33.989z" fill="#ffda52"></path><circle cx="163.972" cy="93.156" fill="#ffb69e" r="43.075" transform="rotate(-17.58 164.188 93.247)"></circle><path d="M20.453 460.177c-12.83-1.64-21.901-13.369-20.262-26.198l15.441-120.842a23.42 23.42 0 0 1 17.376-19.707l22.847-5.898 25.351 17.012.259 24.749-21.384 5.521-13.43 105.102c-1.638 12.823-13.362 21.899-26.198 20.261z" fill="#ffb69e"></path><path d="M177.632 158.215c-4.561-3.683-10.202-5.78-16.039-6.332l-29.261-4.819c-15.193-1.437-29.054 9.084-31.577 24.134L66.06 284.658l-10.228 2.781 22.321 35.928 50.989 7.479c23.88 3.98 51.4-12.134 55.411-36.009l3.547-109.111a29.117 29.117 0 0 0-10.468-27.511z" fill="#ff6473"></path><path d="m137.429 213.132-22.422-.839-14.717 22.154-69.525 4.203c-10.759.651-18.953 9.899-18.303 20.658.653 10.794 9.934 18.95 20.658 18.303l79.227-4.789a19.516 19.516 0 0 0 15.078-8.682l19.707-29.666z" fill="#ffb69e"></path><path d="M170.536 163.971c-8.978-5.965-21.091-3.521-27.054 5.457l-28.475 42.865 32.124 22.18 28.862-43.448c5.964-8.977 3.521-21.09-5.457-27.054z" fill="#fa5565"></path><path d="M190.946 365.009H54.937c-12.279 0-22.234-9.954-22.234-22.234s9.955-22.234 22.234-22.234h119.176l41.427-146.988c3.331-11.819 15.614-18.698 27.432-15.369 11.819 3.331 18.699 15.613 15.369 27.432l-45.994 163.19a22.236 22.236 0 0 1-21.401 16.203z" fill="#1c9585"></path><path d="M427.297 97.639c-1.684-23.73-22.287-41.601-46.016-39.917-23.73 1.684-41.601 22.287-39.917 46.016 1.684 23.73 22.286 41.601 46.016 39.917s41.601-22.286 39.917-46.016zM342.134 271.456l-56.231-53.24c-7.827-7.411-8.164-19.763-.754-27.589 7.413-7.828 19.765-8.163 27.589-.754l39.39 37.296 10.242-15.419 21.959 2.339 9.308 21.132-21.83 32.862c-6.693 10.078-20.872 11.705-29.673 3.373z" fill="#ba6746"></path><path d="m393.638 235.221 26.739-40.251c5.963-8.978 3.52-21.091-5.458-27.054-8.977-5.963-21.089-3.521-27.055 5.457l-25.493 38.378z" fill="#f2c41b"></path><path d="M442.214 365.51H306.206c-12.279 0-22.234-9.954-22.234-22.234s9.955-22.234 22.234-22.234h119.175l41.427-146.987c3.331-11.819 15.614-18.7 27.431-15.369 11.819 3.331 18.7 15.613 15.369 27.431l-45.993 163.189a22.234 22.234 0 0 1-21.401 16.204z" fill="#1c9585"></path><path d="M143.584 352.377h-31.259c-6.557 0-11.892-5.335-11.892-11.892v-12.926c0-6.557 5.335-11.892 11.892-11.892h31.259c6.557 0 11.892 5.335 11.892 11.892v12.926c.001 6.557-5.334 11.892-11.892 11.892zm-31.039-12.112h30.82v-12.487h-30.82z" fill="#853c26"></path><g fill="#853c26"><path d="M102.74 445.002H85.942a5.366 5.366 0 0 0-5.366 5.366v4.633a5.367 5.367 0 0 0 5.366 5.367h16.798a5.366 5.366 0 0 0 5.366-5.367v-4.633a5.365 5.365 0 0 0-5.366-5.366zM169.967 445.002h-16.798a5.367 5.367 0 0 0-5.367 5.366v4.633a5.367 5.367 0 0 0 5.367 5.367h16.798a5.367 5.367 0 0 0 5.367-5.367v-4.633a5.366 5.366 0 0 0-5.367-5.366z" fill="#853c26"></path></g><path d="M177.502 339.455H78.408c-9.411 0-17.04 7.629-17.04 17.04v76.979c0 9.411 7.629 17.04 17.04 17.04h99.094c9.411 0 17.04-7.629 17.04-17.04v-76.979c0-9.411-7.629-17.04-17.04-17.04z" fill="#a85b38"></path><path d="M401.782 352.377h-31.259c-6.557 0-11.892-5.335-11.892-11.892v-12.926c0-6.557 5.335-11.892 11.892-11.892h31.259c6.557 0 11.892 5.335 11.892 11.892v12.926c0 6.557-5.334 11.892-11.892 11.892zm-31.039-12.112h30.82v-12.487h-30.82z" fill="#853c26"></path><g fill="#853c26"><path d="M360.938 445.002H344.14a5.366 5.366 0 0 0-5.366 5.366v4.633a5.367 5.367 0 0 0 5.366 5.367h16.798a5.366 5.366 0 0 0 5.366-5.367v-4.633a5.365 5.365 0 0 0-5.366-5.366zM428.165 445.002h-16.798a5.367 5.367 0 0 0-5.367 5.366v4.633a5.367 5.367 0 0 0 5.367 5.367h16.798a5.367 5.367 0 0 0 5.367-5.367v-4.633a5.366 5.366 0 0 0-5.367-5.366z" fill="#853c26"></path></g><path d="M435.7 339.455h-99.094c-9.411 0-17.04 7.629-17.04 17.04v76.979c0 9.411 7.629 17.04 17.04 17.04H435.7c9.411 0 17.04-7.629 17.04-17.04v-76.979c0-9.411-7.629-17.04-17.04-17.04z" fill="#a85b38"></path></g></svg>