<svg id="Layer_3" enable-background="new 0 0 128 128" height="512" viewBox="0 0 128 128" width="512" xmlns="http://www.w3.org/2000/svg" xmlns:xlink="http://www.w3.org/1999/xlink"><linearGradient id="lg1"><stop offset="0" stop-color="#f9ddd1"/><stop offset=".5137" stop-color="#f8dbce"/><stop offset=".8222" stop-color="#f6d3c6"/><stop offset="1" stop-color="#f4cabd"/></linearGradient><linearGradient id="SVGID_1_" gradientUnits="userSpaceOnUse" x1="53.75" x2="74.25" xlink:href="#lg1" y1="69.25" y2="89.75"/><linearGradient id="SVGID_2_" gradientUnits="userSpaceOnUse" x1="57.671" x2="78.098" y1="65.66" y2="85.455"><stop offset="0" stop-color="#eeae9a"/><stop offset=".3161" stop-color="#efb4a0"/><stop offset=".7381" stop-color="#f4c3b1"/><stop offset="1" stop-color="#f7d0bf"/></linearGradient><linearGradient id="lg2"><stop offset="0" stop-color="#d0e3ff"/><stop offset="1" stop-color="#bfe6ff"/></linearGradient><linearGradient id="SVGID_3_" gradientUnits="userSpaceOnUse" x1="64" x2="64" xlink:href="#lg2" y1="126" y2="86"/><linearGradient id="SVGID_4_" gradientUnits="userSpaceOnUse" x1="37" x2="37" xlink:href="#lg2" y1="126" y2="86.666"/><linearGradient id="lg3"><stop offset="0" stop-color="#f1f7ff"/><stop offset="1" stop-color="#e7f4ff"/></linearGradient><linearGradient id="SVGID_5_" gradientUnits="userSpaceOnUse" x1="46.5" x2="46.5" xlink:href="#lg3" y1="86.666" y2="126"/><linearGradient id="SVGID_6_" gradientUnits="userSpaceOnUse" x1="91" x2="91" xlink:href="#lg2" y1="126" y2="86.666"/><linearGradient id="SVGID_7_" gradientTransform="matrix(-1 0 0 1 -88 0)" gradientUnits="userSpaceOnUse" x1="-169.553" x2="-169.553" xlink:href="#lg3" y1="86.666" y2="126"/><linearGradient id="SVGID_8_" gradientUnits="userSpaceOnUse" x1="64" x2="64" xlink:href="#lg2" y1="86" y2="90.046"/><linearGradient id="SVGID_9_" gradientUnits="userSpaceOnUse" x1="64" x2="64" y1="99.215" y2="132.01"><stop offset="0" stop-color="#198dc4"/><stop offset="1" stop-color="#12639b"/></linearGradient><linearGradient id="SVGID_10_" gradientUnits="userSpaceOnUse" x1="64" x2="64" y1="98.414" y2="89.329"><stop offset="0" stop-color="#198dc4"/><stop offset="1" stop-color="#198dc4"/></linearGradient><linearGradient id="SVGID_11_" gradientUnits="userSpaceOnUse" x1="54" x2="54" xlink:href="#lg3" y1="77.735" y2="104.211"/><linearGradient id="SVGID_12_" gradientUnits="userSpaceOnUse" x1="74" x2="74" xlink:href="#lg3" y1="72.572" y2="100.931"/><linearGradient id="SVGID_13_" gradientUnits="userSpaceOnUse" x1="30" x2="42" xlink:href="#lg1" y1="46" y2="46"/><linearGradient id="SVGID_14_" gradientUnits="userSpaceOnUse" x1="98" x2="86" xlink:href="#lg1" y1="46" y2="46"/><linearGradient id="lg4"><stop offset="0" stop-color="#f7d0bf"/><stop offset="1" stop-color="#f1beae"/></linearGradient><linearGradient id="SVGID_15_" gradientTransform="matrix(.964 -.266 .266 .964 -51.795 -295.897)" gradientUnits="userSpaceOnUse" x1="-7.931" x2="-1.053" xlink:href="#lg4" y1="353.463" y2="353.463"/><linearGradient id="SVGID_16_" gradientTransform="matrix(-.964 -.266 -.266 .964 -2078.205 -295.897)" gradientUnits="userSpaceOnUse" x1="-2184.399" x2="-2177.521" xlink:href="#lg4" y1="-247.829" y2="-247.829"/><linearGradient id="SVGID_17_" gradientUnits="userSpaceOnUse" x1="41.638" x2="86.363" xlink:href="#lg1" y1="19.638" y2="64.363"/><linearGradient id="SVGID_18_" gradientUnits="userSpaceOnUse" x1="64" x2="64" y1="44" y2="58"><stop offset="0" stop-color="#f7d0bf"/><stop offset="1" stop-color="#eeae9a"/></linearGradient><linearGradient id="lg5"><stop offset="0" stop-color="#ac766a"/><stop offset="1" stop-color="#93634d"/></linearGradient><linearGradient id="SVGID_19_" gradientUnits="userSpaceOnUse" x1="33.526" x2="44.355" xlink:href="#lg5" y1="30.851" y2="26.821"/><linearGradient id="SVGID_20_" gradientUnits="userSpaceOnUse" x1="35.935" x2="91.666" xlink:href="#lg5" y1="3.309" y2="32.828"/><path d="m75 89h-22l1-20h20z" fill="url(#SVGID_1_)"/><path d="m74 69h-20l-.244 4.882 15.118 15.118h6.126z" fill="url(#SVGID_2_)"/><path d="m77.889 86h-27.778c-18.761 0-34.111 15.3-34.111 34v6h96v-6c0-18.7-15.35-34-34.111-34z" fill="url(#SVGID_3_)"/><path d="m16 120v6h42l-14.583-39.334c-15.584 3.123-27.417 16.916-27.417 33.334z" fill="url(#SVGID_4_)"/><path d="m43.417 86.666c-2.299.461-4.513 1.159-6.622 2.058l-1.795 19.276 8 7-7 5 6.273 6h15.727z" fill="url(#SVGID_5_)"/><path d="m112 120v6h-42l14.583-39.334c15.584 3.123 27.417 16.916 27.417 33.334z" fill="url(#SVGID_6_)"/><path d="m84.583 86.666c2.299.461 4.513 1.159 6.622 2.058l1.9 19.276-8.105 7 7 5-6.273 6h-15.727z" fill="url(#SVGID_7_)"/><path d="m61.573 90 4.854.045-2.427-4.045z" fill="url(#SVGID_8_)"/><path d="m67 99h-6l-2 27h10z" fill="url(#SVGID_9_)"/><path d="m66 89h-4s-4.012 5.976-4 6l3 4h6l3-4c-.022-.076-4-6-4-6z" fill="url(#SVGID_10_)"/><path d="m53 79 11 7-10 15-10-15z" fill="url(#SVGID_11_)"/><path d="m75 79-11 7 10 15 10-15z" fill="url(#SVGID_12_)"/><g fill="#4d4d4d"><path d="m30 122c0-1.657-1.343-3-3-3s-3 1.343-3 3 1.343 3 3 3 3-1.343 3-3z"/><path d="m40 122c0-1.657-1.343-3-3-3s-3 1.343-3 3 1.343 3 3 3 3-1.343 3-3z"/><path d="m22 120h4v4h-4z"/><path d="m38 120h4v4h-4z"/></g><path d="m91 100h2v4h-2z" fill="#bcbec0"/><circle cx="92" cy="109" fill="#4d4d4d" r="6"/><path d="m92 112c-1.654 0-3-1.346-3-3s1.346-3 3-3 3 1.346 3 3-1.346 3-3 3zm0-4c-.551 0-1 .449-1 1s.449 1 1 1 1-.449 1-1-.449-1-1-1z" fill="#bcbec0"/><path d="m93 100h-2v-16c0-5.607-4.833-10-11.003-10h-37.997c-6.231 0-8.736 5.194-9.001 10.055l-1.997-.109c.396-7.257 4.713-11.946 10.998-11.946h37.997c7.292 0 13.003 5.271 13.003 12z" fill="#4d4d4d"/><path d="m45.834 123h-3.834v-2h3.834c.729 0 1.283-.237 1.647-.705.537-.689.667-1.854.348-3.115l-6.044-22.766c-.702-2.929-1.147-3.776-1.396-3.972-.037-.021-.052-.03-.085-.055l-6.863-5.026c-.905-.482-1.973-.482-2.878 0l-6.863 5.026c-.034.025-.069.047-.105.067-.23.183-.675 1.031-1.377 3.959l-.118.478-5.932 22.3c-.315 1.25-.186 2.415.351 3.104.364.468.918.705 1.647.705h3.834v2h-3.834c-1.358 0-2.473-.51-3.225-1.476-.926-1.189-1.185-2.952-.709-4.834l6.039-22.742c.675-2.815 1.27-4.58 2.285-5.203l6.877-5.036c.033-.024.068-.047.104-.067 1.542-.857 3.383-.857 4.925 0 .036.021.071.043.104.067l6.877 5.036c1.016.623 1.61 2.388 2.285 5.203l.11.453 5.926 22.277c.479 1.895.221 3.657-.706 4.846-.751.966-1.866 1.476-3.224 1.476z" fill="#bcbec0"/><path d="m42.712 97.942-.928-3.528c-.702-2.929-1.147-3.776-1.396-3.972-.037-.021-.052-.03-.085-.055l-6.863-5.026c-.905-.482-1.973-.482-2.878 0l-6.863 5.026c-.034.025-.069.047-.105.067-.23.183-.675 1.031-1.377 3.959l-.117.478-.812 3.051-1.933-.514.916-3.48c.675-2.815 1.27-4.58 2.285-5.203l6.877-5.036c.033-.024.068-.047.104-.067 1.542-.857 3.383-.857 4.925 0 .036.021.071.043.104.067l6.877 5.036c1.015.623 1.61 2.388 2.285 5.203l.11.453.806 3.027z" fill="#4d4d4d"/><path d="m41.546 44.443c1.262 4.333-.199 8.543-3.262 9.402-3.063.86-6.569-1.956-7.831-6.289s.199-8.543 3.262-9.402c3.064-.859 6.57 1.956 7.831 6.289z" fill="url(#SVGID_13_)"/><path d="m86.454 44.443c-1.262 4.333.199 8.543 3.262 9.402 3.063.86 6.569-1.956 7.831-6.289s-.199-8.543-3.262-9.402c-3.064-.859-6.57 1.956-7.831 6.289z" fill="url(#SVGID_14_)"/><path d="m41.321 45.105c.609 2.153-.383 4.298-2.217 4.793-1.834.494-3.815-.85-4.424-3.002-.609-2.153.383-4.298 2.217-4.793s3.814.849 4.424 3.002z" fill="url(#SVGID_15_)"/><path d="m86.679 45.105c-.609 2.153.383 4.298 2.217 4.793 1.834.494 3.815-.85 4.424-3.002.609-2.153-.383-4.298-2.217-4.793s-3.814.849-4.424 3.002z" fill="url(#SVGID_16_)"/><path d="m64 76c-14.3 0-26-11.7-26-26v-16c0-14.3 11.7-26 26-26 14.3 0 26 11.7 26 26v16c0 14.3-11.7 26-26 26z" fill="url(#SVGID_17_)"/><path d="m54.263 46h-.527c-.955 0-1.736-.781-1.736-1.737v-2.527c0-.955.781-1.736 1.737-1.736h.527c.955 0 1.736.781 1.736 1.737v2.527c0 .955-.781 1.736-1.737 1.736z" fill="#51251f"/><path d="m74.263 46h-.527c-.955 0-1.736-.781-1.736-1.737v-2.527c0-.955.781-1.736 1.737-1.736h.527c.955 0 1.736.781 1.736 1.737v2.527c0 .955-.781 1.736-1.737 1.736z" fill="#51251f"/><path d="m64.158 58h-.316c-1.563 0-2.842-1.279-2.842-2.842v-8.316c0-1.563 1.279-2.842 2.842-2.842h.316c1.563 0 2.842 1.279 2.842 2.842v8.316c0 1.563-1.279 2.842-2.842 2.842z" fill="url(#SVGID_18_)"/><path d="m57 37h-6c-.552 0-1-.448-1-1s.448-1 1-1h6c.552 0 1 .448 1 1s-.448 1-1 1z" fill="#7a5954"/><path d="m77 37h-6c-.552 0-1-.448-1-1s.448-1 1-1h6c.552 0 1 .448 1 1s-.448 1-1 1z" fill="#7a5954"/><path d="m63.929 64.688c-3.548 0-6.674-.865-8.158-2.258-.402-.378-.422-1.011-.044-1.414.378-.402 1.012-.421 1.414-.044.91.854 3.362 1.716 6.789 1.716 2.672 0 5.218-.578 6.486-1.472.45-.318 1.075-.211 1.394.241.318.451.21 1.075-.241 1.394-1.633 1.149-4.488 1.837-7.64 1.837z" fill="#f09890"/><path d="m39 20c-.672 1.996-1 4.302-1 6.812v11.188l10-12z" fill="url(#SVGID_19_)"/><path d="m66 6c-3.078-.045-13.051.955-14 1-14.741.697-18-1-18-1 1.437 14.079 9.175 18.667 12 20 3.499 1.65 7.987 2 11 2 8.232 0 22-3 22-3l11 13v-10c0-3.137-.266-21.649-24-22z" fill="url(#SVGID_20_)"/></svg>