<svg viewBox="0 0 340 340" xmlns="http://www.w3.org/2000/svg"><g><path d="M289.154 71.414h5.729v51.597h-5.729z" fill="#ffb655"></path><path d="M291.722 117.832a11.955 11.955 0 0 1 11.956 11.955v12.288a12.2 12.2 0 0 1-5.634 10.429c-4.034 2.487-10.741 4.05-21.638.932a1.731 1.731 0 0 1-.7-2.937c2.255-2.03 5.084-5.631 4.391-10.537a45.714 45.714 0 0 1-.29-11.124 11.971 11.971 0 0 1 11.915-11.006z" fill="#ffb655"></path><path d="M66.589 227.6s-20.584-31.06 0-95.515c0 0 9.792-39.711 35.256-37.318 0 0 14.346 28.784 15.785 53.486 0 0 2.878 62.762-17.267 84.622 0 .003-19.104 13.64-33.774-5.275z" fill="#3e3e59"></path><path d="M113.009 21.747a42.948 42.948 0 0 0-12.81-1.419 8.249 8.249 0 0 0-7.8 7.3c-1.73 15.881-11.43 61.217-65.521 102.61a8.263 8.263 0 0 0-2.208 10.641 32.385 32.385 0 0 0 14.662 13.179s57.623-65.017 73.677-132.311z" fill="#aebdd3"></path><path d="M110.81 12.209s-4.574 34.073-35.1 80.46q-5.21 23.18-26.11 34.483c-7.415 8.608-15.713 17.422-25 26.335a46.744 46.744 0 0 0 32.2 21.592 9.38 9.38 0 0 0 10.74-7.879 157.366 157.366 0 0 1 3.428-16.255c1.147-15.67 7.879-30.606 18.3-45.057a223.543 223.543 0 0 1 49.6-60.45 9.426 9.426 0 0 0 2.172-11.577c-3.957-7.419-12.633-18.331-30.23-21.652z" fill="#dae5ed"></path><path d="M70.968 150.949a196.721 196.721 0 0 1 18.306-45.057L74.359 94.7A336.946 336.946 0 0 1 49.6 127.149c4.492 8.442 11.272 17.409 21.368 23.8z" fill="#aebdd3"></path><path d="m55.661 107.14 13.123 13.319a15.691 15.691 0 0 0 11.175 4.677 15.69 15.69 0 0 1 11.441 4.955l17.5 18.654s2.366-37.123-7.053-53.975L83.611 77.353a12.4 12.4 0 0 0-17.01-.128 89.844 89.844 0 0 0-12.208 14 12.457 12.457 0 0 0 1.268 15.915z" fill="#ffcac0"></path><path d="M261.261 174.737s56.593 26.454 55.1 157.472H151.006s5.948-70.127-42.545-86.774a27.939 27.939 0 0 0-14.677-1c-8.051 1.657-23.235 2.071-27.2-16.83 0 0 7.294 10.335 22.1.5 21.989-14.614 21.1-93.356 13.159-133.33 17.031 7.187 31.1 21.583 41.454 45.011a65.8 65.8 0 0 0 11.337 17.552c2.762 3.055 5.02 5.32 5.02 5.32s35.083 27.989 101.607 12.079z" fill="#585875"></path><path d="m245.367 181.859-20.09-17.006h-22.309l-20.09 17.006 31.181 53.928z" fill="#c1cbe0"></path><path d="m206.352 187-3.384 30.6 10.637 15.278 10.636-15.278-2.94-26.593c-5.158-7.391-14.949-4.007-14.949-4.007z" fill="#fc6383"></path><path d="M206.352 187a18.458 18.458 0 0 1 14.949 4.009l-2.261-20.448h-10.87z" fill="#db3e64"></path><path d="m228.046 158.349 18.25 13.86-9.125 18.917-23.566-18.336s4.97-9.999 14.441-14.441z" fill="#ffffff"></path><path d="m199.163 158.349-21.257 10.258 12.132 22.519 23.567-18.336s-4.971-9.999-14.442-14.441z" fill="#ffffff"></path><path d="M199.163 151.072v7.277l14.442 14.441 14.441-14.441v-7.022z" fill="#ffcac0"></path><path d="m246.3 172.209-32.11 54.1-35.641-60.531a10.443 10.443 0 0 0-8.054-5.106 20.855 20.855 0 0 0-10.835 1.978l50.909 82.527a4.255 4.255 0 0 0 7.242 0l43.454-70.443s-7.712-4.175-14.965-2.525z" fill="#3e3e59"></path><path d="M228.046 137.4h-28.883v13.669a49.712 49.712 0 0 0 28.883.255z" fill="#ef9292"></path><path d="M279.809 332.209c-.181-23.529-5.311-51.35-9.28-69.456a1.844 1.844 0 0 0-3.644.458c.622 19.3.7 48.742-3.3 69z" fill="#3c3c4f"></path><path d="M292.063 63.88a247.329 247.329 0 0 0-67.878-53.586 21.227 21.227 0 0 0-20 0 247.32 247.32 0 0 0-67.876 53.586 11.338 11.338 0 0 0 .38 15.394c34.668 35.586 77.5 42.81 77.5 42.81s42.828-7.224 77.5-42.81a11.339 11.339 0 0 0 .374-15.394z" fill="#585875"></path><path d="M195.258 78.178s-16.706 0-24.6 6.855c0 0-2.5 22.641 12.3 29.233z" fill="#ffb655"></path><path d="M184.73 116.26s-2.095-6.892-6.535-10.943c-5.124-4.676-13.312-.936-13.412 6-.047 3.266.909 7.375 4.213 12.014 8.309 11.668 18.032 3.182 18.032 3.182z" fill="#ef9292"></path><path d="M233.113 78.178s16.707 0 24.6 6.855c0 0 2.5 22.641-12.3 29.233z" fill="#ffb655"></path><path d="M243.642 116.26s2.094-6.892 6.534-10.943c5.125-4.676 13.312-.936 13.412 6 .048 3.266-.908 7.375-4.212 12.014-8.309 11.668-18.032 3.182-18.032 3.182z" fill="#ef9292"></path><path d="M233.113 78.177a104.391 104.391 0 0 0-37.855 0s-17.069 21.632-12 44.954 30.927 21.463 30.927 21.463 25.856 1.859 30.926-21.463-11.998-44.954-11.998-44.954z" fill="#ffcac0"></path><path d="M256.882 70.034a11.935 11.935 0 0 0-3.868-8.187 61.867 61.867 0 0 0-21.534-12.512 53.328 53.328 0 0 0-34.589 0 61.864 61.864 0 0 0-21.533 12.512 11.931 11.931 0 0 0-3.868 8.187l-.832 15s14.772-6.856 43.528-6.856 43.527 6.856 43.527 6.856z" fill="#3e3e59"></path><g fill="#ef9292"><path d="M202.791 110.3a3.5 3.5 0 0 1-3.5-3.5v-3.247a3.5 3.5 0 0 1 7 0v3.247a3.5 3.5 0 0 1-3.5 3.5zM225.581 110.3a3.5 3.5 0 0 1-3.5-3.5v-3.247a3.5 3.5 0 1 1 7 0v3.247a3.5 3.5 0 0 1-3.5 3.5zM214.139 132.68c-8.416 0-12.458-3.776-13.805-5.4a3.5 3.5 0 1 1 5.388-4.47c.4.48 2.671 2.869 8.417 2.869s8.018-2.389 8.416-2.868a3.5 3.5 0 0 1 5.387 4.469c-1.342 1.62-5.387 5.4-13.803 5.4z" fill="#ef9292"></path></g></g></svg>