<svg height="512" viewBox="0 0 24 24" width="512" xmlns="http://www.w3.org/2000/svg" xmlns:xlink="http://www.w3.org/1999/xlink"><linearGradient id="linear-gradient" gradientUnits="userSpaceOnUse" x1="6.73" x2="3.271" y1="20.725" y2="17.267"><stop offset="0" stop-color="#f8d5b9"/><stop offset=".4252" stop-color="#f8d3b6"/><stop offset=".6808" stop-color="#f6ccae"/><stop offset=".891" stop-color="#f3bfa0"/><stop offset="1" stop-color="#f1b695"/></linearGradient><linearGradient id="linear-gradient-2" gradientUnits="userSpaceOnUse" x1="17.983" x2="15.621" y1="8.376" y2="6.014"><stop offset="0" stop-color="#dae3f2"/><stop offset=".4911" stop-color="#d8e1ef"/><stop offset=".7861" stop-color="#d1d9e7"/><stop offset="1" stop-color="#c6cedb"/></linearGradient><linearGradient id="linear-gradient-3" x1="11.676" x2="6.322" xlink:href="#linear-gradient-2" y1="17.675" y2="12.321"/><g id="Flat"><path d="m7.5123 14.3952a19.3667 19.3667 0 0 0 -3.6754 2.4137l-.0007.0007a18.8918 18.8918 0 0 0 -2.392 2.3904 2.37 2.37 0 0 0 3.3335 3.369l.0014-.0014q.6375-.53 1.2423-1.1345t1.166-1.2737a19.3876 19.3876 0 0 0 2.4141-3.675zm-3.9823 6.0708a.75.75 0 1 1 -1.0607 0 .7509.7509 0 0 1 1.0607 0z" fill="url(#linear-gradient)"/><path d="m23.1755.8212a.25.25 0 0 0 -.3155-.0312l-3.0057 2.0038a51.1122 51.1122 0 0 0 -10.3306 9.7681 13.1875 13.1875 0 0 0 1.9111 1.9111 50.62 50.62 0 0 0 4.7432-4.3008 50.9212 50.9212 0 0 0 5.0283-6.0351l2-3a.25.25 0 0 0 -.0308-.3159z" fill="url(#linear-gradient-2)"/><path d="m8.3219 12.3212a.958.958 0 0 0 0 1.3534l2 2a.957.957 0 1 0 1.3535-1.3534l-2-2a.9578.9578 0 0 0 -1.3535 0z" fill="#807a6e"/><path d="m11.81 15.5a1.0917 1.0917 0 0 1 -.13.17.9537.9537 0 0 1 -1.36 0l-2-2a.96.96 0 0 1 0-1.35l.15-.12h.01l.15.12z" fill="#524d46"/><path d="m6.3221 12.3212a.958.958 0 0 0 0 1.3534l4 4a.957.957 0 0 0 1.3535-1.3534l-4-4a.9579.9579 0 0 0 -1.3535 0z" fill="url(#linear-gradient-3)"/></g><g id="Hightlight"><path d="m11.1768 16.53-.7071-.7071a.25.25 0 0 0 -.3535.3536l.707.707a.25.25 0 1 0 .3536-.3535z" fill="#eef1f5"/><path d="m8.1768 13.53a.25.25 0 0 0 -.3536.3535l1.293 1.293a.25.25 0 1 0 .3535-.3536z" fill="#eef1f5"/><path d="m6.1543 19.8354c-.2969.3384-.61.6705-.9316.9864a.25.25 0 1 0 .3505.3564c.33-.3242.6524-.6655.9571-1.0136a.25.25 0 0 0 -.376-.3292z" fill="#ffe5d1"/><path d="m8.603 16.7832a.2485.2485 0 0 0 -.3408.0928 18.4269 18.4269 0 0 1 -1.3052 1.9731.25.25 0 1 0 .3985.3018 18.9129 18.9129 0 0 0 1.34-2.0269.2492.2492 0 0 0 -.0925-.3408z" fill="#ffe5d1"/><g fill="#eef1f5"><path d="m16.9907 7.8335q-.4474.5025-.91.9956a.25.25 0 1 0 .3642.3418q.4665-.4973.9185-1.0044a.25.25 0 0 0 -.3731-.333z"/><path d="m19.7979 4.8013a.2518.2518 0 0 0 -.3506.0478c-.5113.6729-1.0474 1.3423-1.5943 1.99a.25.25 0 1 0 .3819.3222c.5522-.6538 1.0942-1.33 1.6108-2.0092a.2505.2505 0 0 0 -.0478-.3508z"/></g></g></svg>