<svg id="Smooth" enable-background="new 0 0 125.983 126" height="512" viewBox="0 0 125.983 126" width="512" xmlns="http://www.w3.org/2000/svg" xmlns:xlink="http://www.w3.org/1999/xlink"><linearGradient id="lg1"><stop offset="0" stop-color="#eff0f0"/><stop offset="1" stop-color="#e4e5e6"/></linearGradient><linearGradient id="SVGID_1_" gradientUnits="userSpaceOnUse" x1="128.7" x2="147.199" xlink:href="#lg1" y1="44.778" y2="42.278"/><linearGradient id="SVGID_3_" gradientUnits="userSpaceOnUse" x1="9.232" x2="147.234" y1="64.386" y2="64.386"><stop offset="0" stop-color="#e26b71"/><stop offset=".4351" stop-color="#df676d"/><stop offset=".8852" stop-color="#d55a61"/><stop offset="1" stop-color="#d1565d"/></linearGradient><linearGradient id="lg2"><stop offset="0" stop-color="#dcdfdf"/><stop offset="1" stop-color="#d4d5d7"/></linearGradient><linearGradient id="SVGID_4_" gradientUnits="userSpaceOnUse" x1="-38.684" x2="-17.018" xlink:href="#lg2" y1="16" y2="16"/><linearGradient id="SVGID_5_" gradientUnits="userSpaceOnUse" x1="-38.684" x2="-17.018" xlink:href="#lg2" y1="26" y2="26"/><linearGradient id="SVGID_6_" gradientUnits="userSpaceOnUse" x1="-38.684" x2="-17.018" xlink:href="#lg2" y1="36" y2="36"/><linearGradient id="SVGID_7_" gradientUnits="userSpaceOnUse" x1="-38.684" x2="-17.018" xlink:href="#lg2" y1="46" y2="46"/><linearGradient id="SVGID_8_" gradientUnits="userSpaceOnUse" x1="-38.684" x2="-17.018" xlink:href="#lg2" y1="56" y2="56"/><linearGradient id="SVGID_9_" gradientUnits="userSpaceOnUse" x1="-38.684" x2="-17.018" xlink:href="#lg2" y1="66" y2="66"/><linearGradient id="SVGID_10_" gradientUnits="userSpaceOnUse" x1="-38.684" x2="-17.018" xlink:href="#lg2" y1="76" y2="76"/><linearGradient id="SVGID_11_" gradientUnits="userSpaceOnUse" x1="-38.684" x2="-17.018" xlink:href="#lg2" y1="86" y2="86"/><linearGradient id="SVGID_12_" gradientUnits="userSpaceOnUse" x1="45.982" x2="76.983" xlink:href="#lg2" y1="54.505" y2="54.505"/><linearGradient id="SVGID_13_" gradientUnits="userSpaceOnUse" x1="92.01" x2="91.676" xlink:href="#lg1" y1="41.909" y2="38.743"/><linearGradient id="SVGID_14_" gradientUnits="userSpaceOnUse" x1="127.953" x2="140.787" xlink:href="#lg1" y1="51.337" y2="47.837"/><linearGradient id="SVGID_15_" gradientUnits="userSpaceOnUse" x1="36.468" x2="34.218" y1="55.058" y2="79.308"><stop offset="0" stop-color="#ffe684"/><stop offset="1" stop-color="#ffc76a"/></linearGradient><linearGradient id="SVGID_16_" gradientUnits="userSpaceOnUse" x1="-38.684" x2="-17.018" xlink:href="#lg2" y1="74" y2="74"/><linearGradient id="SVGID_17_" gradientUnits="userSpaceOnUse" x1="-38.684" x2="-17.018" xlink:href="#lg2" y1="82" y2="82"/><linearGradient id="SVGID_18_" gradientUnits="userSpaceOnUse" x1="-38.684" x2="-17.018" xlink:href="#lg2" y1="90" y2="90"/><linearGradient id="SVGID_19_" gradientUnits="userSpaceOnUse" x1="-38.684" x2="-17.018" xlink:href="#lg2" y1="98" y2="98"/><linearGradient id="SVGID_20_" gradientUnits="userSpaceOnUse" x1="-38.684" x2="-17.018" xlink:href="#lg2" y1="106" y2="106"/><linearGradient id="SVGID_21_" gradientUnits="userSpaceOnUse" x1="30.983" x2="30.983" xlink:href="#lg2" y1="132.625" y2="143.875"/><linearGradient id="SVGID_22_" gradientUnits="userSpaceOnUse" x1="-19.854" x2="-9.687" xlink:href="#lg1" y1="65.511" y2="68.011"/><linearGradient id="SVGID_23_" gradientUnits="userSpaceOnUse" x1="93.646" x2="92.646" y1="56.639" y2="34.389"><stop offset="0" stop-color="#50a6d0"/><stop offset="1" stop-color="#198bc2"/></linearGradient><linearGradient id="SVGID_24_" gradientUnits="userSpaceOnUse" x1="15.816" x2="21.649" xlink:href="#lg1" y1="87.5" y2="87.5"/><linearGradient id="SVGID_31_" gradientUnits="userSpaceOnUse" x1="87.983" x2="87.983" xlink:href="#lg2" y1="132.625" y2="143.875"/><linearGradient id="SVGID_32_" gradientUnits="userSpaceOnUse" x1="32.547" x2="34.297" y1="39.278" y2="50.778"><stop offset="0" stop-color="#cfd2d2"/><stop offset="1" stop-color="#a9adb0"/></linearGradient><g><path d="m72.982 1h-23c-2.542 0-3.005.875-3 2 .003.796 1 1.625 2 2 0 0 3 1.029 3 4.999v93.03c0 1.122 1.018 2.2 2 2.743 5.371 2.969 12.144 2.974 18 0 1.013-.515 1.998-1.636 1.998-2.772l.002-98c1-.375 1.997-1.204 2-2 .005-1.125-.458-2-3-2z" fill="url(#SVGID_1_)"/><path d="m72.982 1h-23c-2.542 0-3.005.875-3 2 .003.796 1 1.625 2 2 0 0 3 1.029 3 4.999v93.03c0 1.122 1.018 2.2 2 2.743 5.371 2.969 12.144 2.974 18 0 1.013-.515 1.998-1.636 1.998-2.772l.002-98c1-.375 1.997-1.204 2-2 .005-1.125-.458-2-3-2z" fill="url(#SVGID_1_)"/><path d="m51.982 21v82.029c0 1.122.991 2.251 2 2.743 5.48 2.671 12.258 2.663 18 0 1.031-.478 1.998-1.636 1.998-2.772l.002-82z" fill="url(#SVGID_3_)"/><g><g><path d="m58.982 17h-7c-.553 0-1-.447-1-1s.447-1 1-1h7c.553 0 1 .447 1 1s-.447 1-1 1z" fill="url(#SVGID_4_)"/></g><g><path d="m56.982 27h-5c-.553 0-1-.447-1-1s.447-1 1-1h5c.553 0 1 .447 1 1s-.447 1-1 1z" fill="url(#SVGID_5_)"/></g><g><path d="m58.982 37h-7c-.553 0-1-.447-1-1s.447-1 1-1h7c.553 0 1 .447 1 1s-.447 1-1 1z" fill="url(#SVGID_6_)"/></g><g><path d="m56.982 47h-5c-.553 0-1-.447-1-1s.447-1 1-1h5c.553 0 1 .447 1 1s-.447 1-1 1z" fill="url(#SVGID_7_)"/></g><g><path d="m58.982 57h-7c-.553 0-1-.447-1-1s.447-1 1-1h7c.553 0 1 .447 1 1s-.447 1-1 1z" fill="url(#SVGID_8_)"/></g><g><path d="m56.982 67h-5c-.553 0-1-.447-1-1s.447-1 1-1h5c.553 0 1 .447 1 1s-.447 1-1 1z" fill="url(#SVGID_9_)"/></g><g><path d="m58.982 77h-7c-.553 0-1-.447-1-1s.447-1 1-1h7c.553 0 1 .447 1 1s-.447 1-1 1z" fill="url(#SVGID_10_)"/></g><g><path d="m56.982 87h-5c-.553 0-1-.447-1-1s.447-1 1-1h5c.553 0 1 .447 1 1s-.447 1-1 1z" fill="url(#SVGID_11_)"/></g></g><g><path d="m62.803 109.01c-3.258 0-6.456-.787-9.305-2.362-1.252-.692-2.516-2.079-2.516-3.618v-93.031c0-3.219-2.301-4.045-2.325-4.053-1.298-.487-2.669-1.607-2.675-2.942-.003-.872.237-1.539.734-2.038.657-.659 1.695-.966 3.266-.966h23c1.572 0 2.609.307 3.266.966.498.499.738 1.166.734 2.038-.004 1.107-.951 2.068-2 2.636l-.001 97.36c0 1.629-1.319 3.041-2.545 3.664-3.08 1.564-6.387 2.346-9.633 2.346zm-12.821-107.01c-1.329 0-1.735.264-1.849.377-.046.046-.153.154-.151.619.013.171.489.744 1.351 1.067.124.042 3.649 1.305 3.649 5.936v93.03c0 .598.638 1.4 1.484 1.868 5.106 2.822 11.485 2.815 17.063-.017.8-.406 1.451-1.25 1.451-1.881l.002-98.693.649-.243c.862-.323 1.337-.896 1.351-1.069.002-.463-.105-.571-.151-.617-.113-.113-.519-.377-1.849-.377z" fill="url(#SVGID_12_)"/></g><path d="m51.982 22v81.029c0 1.122 1.018 2.2 2 2.743 5.371 2.969 12.144 2.974 18 0 1.013-.515 1.998-1.636 1.998-2.772l.001-81z" fill="none"/><path d="m124.982 52c.005-1.125-.458-2-3-2h-56c-2.542 0-3.005.875-3 2 .003.796 1 1.625 2 2 0 0 3.001 1.029 3 5v58c.907 3.427 3.909 4.908 7 6 3.719 1.314 16.359 2 23 2s14.281-.686 18-2c3.091-1.092 6.093-2.573 7-6v-59-4c1-.375 1.997-1.204 2-2z" fill="url(#SVGID_13_)"/><path d="m40.982 60v-31h-20v31l-19 48c-2.917 10.458.992 13.23 6 15 3.719 1.314 16.359 2 23 2s19.281-.686 23-2c5.008-1.77 8.917-4.542 6-15z" fill="url(#SVGID_14_)"/><path d="m1.982 108c-2.917 10.458.992 13.23 6 15 3.719 1.314 16.359 2 23 2s19.281-.686 23-2c5.008-1.77 8.917-4.542 6-15l-5.542-14h-46.916z" fill="url(#SVGID_15_)"/><g><g><path d="m36.982 75h-12c-.553 0-1-.447-1-1s.447-1 1-1h12c.553 0 1 .447 1 1s-.447 1-1 1z" fill="url(#SVGID_16_)"/></g><g><path d="m34.982 83h-8c-.553 0-1-.447-1-1s.447-1 1-1h8c.553 0 1 .447 1 1s-.447 1-1 1z" fill="url(#SVGID_17_)"/></g><g><path d="m36.982 91h-12c-.553 0-1-.447-1-1s.447-1 1-1h12c.553 0 1 .447 1 1s-.447 1-1 1z" fill="url(#SVGID_18_)"/></g><g><path d="m34.982 99h-8c-.553 0-1-.447-1-1s.447-1 1-1h8c.553 0 1 .447 1 1s-.447 1-1 1z" fill="url(#SVGID_19_)"/></g><g><path d="m36.982 107h-12c-.553 0-1-.447-1-1s.447-1 1-1h12c.553 0 1 .447 1 1s-.447 1-1 1z" fill="url(#SVGID_20_)"/></g></g><path d="m34.982 119h-8c-.552 0-1-.448-1-1v-4c0-.552.448-1 1-1h8c.552 0 1 .448 1 1v4c0 .552-.447 1-1 1z" fill="url(#SVGID_21_)"/><g><path d="m30.982 126c-5.916 0-19.271-.621-23.333-2.058-5.272-1.862-9.725-5.116-6.63-16.211l.033-.1 18.93-47.822v-30.809h2v31.19l-19.05 48.129c-2.762 9.954.971 12.179 5.384 13.737 3.405 1.205 15.497 1.944 22.666 1.944s19.262-.739 22.667-1.942c4.413-1.56 8.145-3.784 5.384-13.738l-19.051-48.13v-31.19h2v30.81l18.963 47.922c3.095 11.095-1.357 14.349-6.63 16.212-4.062 1.435-17.417 2.056-23.333 2.056z" fill="url(#SVGID_22_)"/></g><path d="m67.983 78v39c.907 3.427 3.909 4.908 7 6 3.719 1.314 16.359 2 23 2s14.281-.686 18-2c3.091-1.092 6.093-2.573 7-6v-39z" fill="url(#SVGID_23_)"/><g><path d="m97.982 126c-5.916 0-19.271-.621-23.333-2.058-3.199-1.131-6.607-2.81-7.634-6.687-.022-.083-.033-.17-.033-.256v-57.999c.001-3.22-2.301-4.046-2.324-4.054-1.299-.487-2.671-1.608-2.676-2.942-.004-.871.236-1.538.733-2.038.657-.659 1.695-.966 3.267-.966h56c1.572 0 2.61.307 3.267.966.497.5.737 1.167.733 2.038-.005 1.108-.951 2.069-2 2.636v62.36c0 .086-.011.173-.033.256-1.026 3.877-4.435 5.556-7.634 6.687-4.02 1.421-12.104 2.057-18.333 2.057zm-29-9.135c.777 2.722 3.097 4.048 6.333 5.192 3.406 1.204 15.498 1.943 22.667 1.943 7.279 0 14.379-.781 17.667-1.942 3.236-1.145 5.556-2.471 6.333-5.192v-62.866c0-.417.259-.79.648-.937.861-.322 1.337-.895 1.352-1.068.002-.464-.105-.572-.151-.618-.112-.113-.519-.377-1.849-.377h-56c-1.33 0-1.736.264-1.849.377-.046.046-.153.154-.151.619.014.172.489.744 1.352 1.067.123.042 3.649 1.305 3.648 5.937zm56-64.865h.01z" fill="url(#SVGID_24_)"/></g><g><g><path d="m113.982 115h-9c-.553 0-1-.447-1-1v-48c0-.553.447-1 1-1h9c.553 0 1 .447 1 1s-.447 1-1 1h-8v46h8c.553 0 1 .447 1 1s-.447 1-1 1z" fill="url(#SVGID_18_)"/></g><g><path d="m110.982 107h-6c-.553 0-1-.447-1-1s.447-1 1-1h6c.553 0 1 .447 1 1s-.447 1-1 1z" fill="url(#SVGID_20_)"/></g><g><path d="m110.982 75h-6c-.553 0-1-.447-1-1s.447-1 1-1h6c.553 0 1 .447 1 1s-.447 1-1 1z" fill="url(#SVGID_16_)"/></g><g><path d="m113.982 83h-9c-.553 0-1-.447-1-1s.447-1 1-1h9c.553 0 1 .447 1 1s-.447 1-1 1z" fill="url(#SVGID_17_)"/></g><g><path d="m110.982 91h-6c-.553 0-1-.447-1-1s.447-1 1-1h6c.553 0 1 .447 1 1s-.447 1-1 1z" fill="url(#SVGID_18_)"/></g><g><path d="m113.982 99h-9c-.553 0-1-.447-1-1s.447-1 1-1h9c.553 0 1 .447 1 1s-.447 1-1 1z" fill="url(#SVGID_19_)"/></g></g><path d="m92.982 114h-10c-.552 0-1-.448-1-1v-6c0-.552.448-1 1-1h10c.552 0 1 .448 1 1v6c0 .552-.447 1-1 1z" fill="url(#SVGID_31_)"/><path d="m41.982 31h-22c-1.105 0-2-.895-2-2 0-1.105.895-2 2-2h22c1.105 0 2 .895 2 2 0 1.105-.895 2-2 2z" fill="url(#SVGID_32_)"/></g></svg>