<svg viewBox="0 0 512 512" xmlns="http://www.w3.org/2000/svg"><g><circle cx="256" cy="256" fill="#c4e2ff" r="256"></circle><circle cx="256" cy="256" fill="#d8ecfe" r="227.556"></circle><circle cx="256" cy="256" fill="#eaf6ff" r="199.111"></circle><path d="M196.702 416.083c18.47 6.844 38.448 10.584 59.298 10.584 26.395 0 51.39-5.992 73.7-16.69l25.657-19.97 71.28-137.218c-.35-18.956-3.79-37.157-9.838-54.119l-68.285-86.111c-25.813-16.683-56.418-26.588-89.294-27.196l-148.439 80.934C94.647 192.362 85.333 223.093 85.333 256c0 47.859 19.699 91.117 51.432 122.108z" fill="#26a6fe"></path><path d="m416.799 198.671-68.285-86.111a169.921 169.921 0 0 0-37.578-18.191c44.99 30.732 74.521 82.431 74.521 141.027 0 94.257-76.41 170.667-170.667 170.667-14.567 0-28.708-1.826-42.207-5.26l24.117 15.281c18.47 6.844 38.448 10.584 59.298 10.584 26.395 0 51.39-5.992 73.7-16.69l25.657-19.97 71.28-137.218c-.348-18.956-3.788-37.157-9.836-54.119z" fill="#0593fc"></path><g fill="#05e39c"><path d="m233.789 388.573 8.388-11.893c6.279-8.902 2.224-21.34-8.096-24.831l-3.569-1.207a95.229 95.229 0 0 1-34.898-21.003l-46.595-44.051c-5.485-5.185-14.022-5.322-19.67-.314a21.858 21.858 0 0 0-5.746 24.587l2.494 6.135a146.172 146.172 0 0 1 10.744 57.469l-.077 4.642c16.939 16.543 37.306 29.59 59.936 37.976l16.893-9.378a60.853 60.853 0 0 0 20.196-18.132zM129.58 182.871l27.287 4.548a13.621 13.621 0 0 0 10.413-2.539l12.706-9.529a20.023 20.023 0 0 1 18.344-2.977l19.588 6.529c4.739 1.58 9.752-1.518 10.459-6.464l4.036-28.255a19.379 19.379 0 0 0-3.06-13.49l-1.872-2.808c-3.476-5.214-1.043-12.306 4.902-14.287l20.339-6.78a9.503 9.503 0 0 0 6.498-9.016v-12.44c-1.071-.02-2.144-.03-3.22-.03-61.35 0-115.139 32.371-145.219 80.964l9.53 11.296a15.444 15.444 0 0 0 9.269 5.278zM338.956 115.944c-5.71-1.903-11.77 1.745-12.76 7.682l-3.41 20.462a17.62 17.62 0 0 0 2.719 12.67l3.344 5.016a17.617 17.617 0 0 1 1.099 17.652l-3.767 7.535a24.514 24.514 0 0 1-14.172 12.292l-2.011.67a11.227 11.227 0 0 0-7.677 10.652c0 6.201 5.027 11.228 11.228 11.228h4.509c6.418 0 12.574-2.55 17.113-7.088l14.565-14.565c6.053-6.053 15.635-6.734 22.483-1.598l3.565 2.674a24.482 24.482 0 0 0 22.43 3.64l18.587-6.196c-12.721-35.678-36.98-65.879-68.285-86.111-1.974 3.093-5.874 4.613-9.56 3.385zM421.72 254.429a52.037 52.037 0 0 1-29.074 1.117l-26.769-6.692a23.423 23.423 0 0 0-18.675 3.235l-42.432 28.288a25.734 25.734 0 0 0-9.823 12.379l-12.944 34.516a15.313 15.313 0 0 0 3.51 16.204l9.784 9.784a22.494 22.494 0 0 0 21.361 5.917l19.336-4.834c10.073-2.518 19.831 5.1 19.831 15.483 0 3.453-1.12 6.813-3.192 9.576L329.7 409.977c57.359-27.504 96.967-86.115 96.967-153.977 0-1.072-.01-2.143-.03-3.21z" fill="#05e39c"></path></g><path d="M159.854 397.027a170.15 170.15 0 0 0 36.847 19.056l16.893-9.378a65.85 65.85 0 0 0 1.13-.643c-19.195-.007-37.65-3.184-54.87-9.035zM426.637 252.79l-4.917 1.639a52.037 52.037 0 0 1-29.074 1.116l-8.139-2.035c-4.104 38.897-21.274 73.899-47.039 100.534 9.53-1.469 18.357 5.905 18.357 15.781 0 3.453-1.12 6.813-3.192 9.576L329.7 409.977c57.359-27.504 96.967-86.115 96.967-153.977 0-1.073-.01-2.142-.03-3.21zM348.514 112.56c-1.972 3.092-5.872 4.613-9.558 3.384a9.823 9.823 0 0 0-2.762-.501c23.671 23.956 40.303 54.883 46.541 89.425a24.476 24.476 0 0 0 15.477-.002l18.587-6.196c-12.721-35.678-36.98-65.878-68.285-86.11z" fill="#0ed290"></path><path d="M149.602 206.965h19.253a14.382 14.382 0 0 1 12.863 7.95l12.985 25.97a39.92 39.92 0 0 0 17.852 17.852c5.416 2.708 6.587 9.926 2.306 14.208l-2.584 2.584c-6.42 6.42-16.828 6.42-23.247 0l-2.133-2.133a233.874 233.874 0 0 1-17.241-19.262l-26.689-33.361c-4.452-5.566-.49-13.808 6.635-13.808z" fill="#05e39c"></path></g></svg>