<svg viewBox="0 0 60 60" xmlns="http://www.w3.org/2000/svg"><g><path d="m44.738 7.964-.991-.133A106.229 106.229 0 0 0 30 7a106.229 106.229 0 0 0-13.747.831l-.991.133L15 5.981l.991-.132A108.38 108.38 0 0 1 30 5a108.38 108.38 0 0 1 14.013.849l.987.132z" fill="#3b97d3"></path><path d="M17.87 33a4.221 4.221 0 0 1 .27-2.94l.87-1.8a2.351 2.351 0 0 0-.03-2.1L8.36 5.61a3.153 3.153 0 0 1 1.51-4.34 3.273 3.273 0 0 1 4.19 1.58l10.55 20.41a2.343 2.343 0 0 0 1.69 1.22l1.98.33a4.22 4.22 0 0 1 1.72.71V37z" fill="#a56a43"></path><path d="m25.582 33 3.085-5.959a4.235 4.235 0 0 1 3.054-2.23l1.977-.328a2.357 2.357 0 0 0 1.691-1.226L45.936 2.85a3.281 3.281 0 0 1 4.2-1.585 3.163 3.163 0 0 1 1.511 4.344L41.021 26.164a2.35 2.35 0 0 0-.031 2.092l.866 1.807A4.188 4.188 0 0 1 42.13 33l-8.59 1.582z" fill="#cf976a"></path><path d="M10.1 8.99a1.336 1.336 0 0 1-.18.07C6.7 9.95 6 10.83 6 11c0 .63 2.05 1.81 6.55 2.72a60.9 60.9 0 0 0 7.64.99c1.92.15 4.04.24 6.38.27l-.28-.27a1 1 0 0 1 1.42-1.42l2 2a1.008 1.008 0 0 1 0 1.42l-2 2a1.014 1.014 0 0 1-1.42 0 1.008 1.008 0 0 1 0-1.42l.31-.3c-1.8-.02-3.59-.09-5.33-.19a73.55 73.55 0 0 1-7.55-.83C8.02 15.02 4 13.39 4 11c0-1.57 1.69-2.81 5.18-3.8zM49.9 8.99a1.336 1.336 0 0 0 .18.07C53.3 9.95 54 10.83 54 11c0 .56-2.02 1.65-6.46 2.54a65.487 65.487 0 0 1-7.67 1.05c-2.05.18-4.34.31-6.89.37a1.012 1.012 0 0 0-.98 1.03 1 1 0 0 0 1 .97h.02c.69-.01 2.94-.08 5.78-.3 2.31-.17 5.01-.45 7.59-.88C51.45 14.92 56 13.47 56 11c0-1.57-1.69-2.81-5.18-3.8z" fill="#3b97d3"></path><path d="M16.75 54.54A5.127 5.127 0 0 0 15 58a1 1 0 0 0 1 1h28a1 1 0 0 0 1-1 5.127 5.127 0 0 0-1.75-3.46z" fill="#41767f"></path><path d="M3 33h54a2 2 0 0 1 2 2 20 20 0 0 1-20 20H21A20 20 0 0 1 1 35a2 2 0 0 1 2-2z" fill="#84b5cb"></path></g></svg>