<svg viewBox="0 0 512 512" xmlns="http://www.w3.org/2000/svg"><g><path d="M503.742 445.938h-8.258L256.332 421.16 16.516 445.938H8.258A8.258 8.258 0 0 1 0 437.68V256C0 114.613 114.613 0 256 0s256 114.613 256 256v181.68a8.258 8.258 0 0 1-8.258 8.257zm0 0" fill="#f9eac7"></path><path d="M512 256h-16.516c0-63.16-24.464-120.602-64.418-163.39l11.653-11.65c-3.766-4.019-7.66-7.91-11.676-11.679l-11.652 11.653c-40.918-38.204-95.23-62.23-155.133-64.258V.21C261.512.12 258.77 0 256 0s-5.512.121-8.258.21v16.466C187.84 18.703 133.527 42.73 92.61 80.934L80.961 69.28c-4.02 3.77-7.91 7.66-11.68 11.68l11.653 11.648C40.98 135.4 16.516 192.84 16.516 256H0v16.516h16.516v173.418h33.03L256 421.16l206.453 24.777h33.031V272.517H512zm0 0" fill="#f4dbb3"></path><g fill="#eac89f"><path d="M264.258 57.809V16.727c-2.746-.094-5.488-.211-8.258-.211s-5.512.117-8.258.21V57.81zM113.098 124.773l11.675-11.675L92.637 80.96A240.238 240.238 0 0 0 80.96 92.637zM419.363 80.96l-28.008 28.009 11.676 11.676 28.008-28.008a240.238 240.238 0 0 0-11.676-11.676zM16.516 256h33.03v16.516h-33.03zM462.453 256h33.031v16.516h-33.03zm0 0" fill="#eac89f"></path></g><path d="M256 156.902c-50.168 0-90.84 40.672-90.84 90.84V437.68h181.68V247.742c0-50.168-40.672-90.84-90.84-90.84zm0 0" fill="#dad8db"></path><path d="M256 49.55C141.98 49.55 49.547 141.98 49.547 256v189.938L256 421.16l206.453 24.778V256c0-114.02-92.433-206.45-206.453-206.45zm0 0" fill="#5d5360"></path><path d="M256 107.355c-72.973 0-132.129 59.157-132.129 132.13V400.14H388.13V239.484c0-72.972-59.156-132.129-132.129-132.129zm0 0" fill="#6f6571"></path><path d="M256 156.902c-50.168 0-90.84 40.672-90.84 90.84v107.356h181.68V247.742c0-50.168-40.672-90.84-90.84-90.84zm0 0" fill="#857e87"></path><path d="M322.066 297.29 256 284.968l-66.066 12.32L49.547 445.938h57.808L257 428.637l147.645 17.3h57.808zm0 0" fill="#c8c5c9"></path><path d="M303.566 297.29 256 290.968l-47.566 6.32-101.079 148.649h74.32L257 428.637l73.324 17.3h74.32zm0 0" fill="#dad8db"></path><path d="M279.781 297.29 256 290.968l-23.781 6.32-50.543 148.649h148.648zm0 0" fill="#eceaec"></path><path d="M256 421.16a8.25 8.25 0 0 1-8.258-8.258v-16.515c0-4.563 3.696-8.258 8.258-8.258s8.258 3.695 8.258 8.258v16.515A8.25 8.25 0 0 1 256 421.16zM256 371.613a8.253 8.253 0 0 1-8.258-8.258v-8.257c0-4.567 3.696-8.258 8.258-8.258s8.258 3.691 8.258 8.258v8.257a8.25 8.25 0 0 1-8.258 8.258zM256.082 334.621H256c-4.566 0-8.258-3.695-8.258-8.258s3.695-8.258 8.258-8.258 8.297 3.696 8.297 8.258-3.652 8.258-8.215 8.258zM322.066 297.29H189.934v-49.548c0-36.484 29.578-66.062 66.066-66.062 36.484 0 66.062 29.578 66.062 66.062v49.547zm0 0" fill="#ffffff"></path></g></svg>