<svg viewBox="0 0 512 512" xmlns="http://www.w3.org/2000/svg"><g><path d="M308.551 149.811 197.378 185.5l15.314 218.506 21.973 35.254V512h76.298l20-157.302-20-204.692z" fill="#fdd1a3"></path><path d="m486.468 269.637-35.5-46.876V204.74l-18.527-44.928-121.478-9.805V512h76.301v-59.825h43.772a35.848 35.848 0 0 0 25.351-10.501c15.36-15.36 13.64-40.743-3.652-53.89l-4.91-3.734 2.165-14.544-16.471-20 20.936-10 3.993-26.83h6.626c14.822 0 26.837-12.015 26.837-26.837a26.85 26.85 0 0 0-5.443-16.202z" fill="#ffbb85"></path><path d="m417.864 333.021-13.015-13.015-21.213 21.213 13.015 13.015c9.848 9.848 22.94 15.271 36.867 15.271h16.471l4.465-30h-20.936a21.988 21.988 0 0 1-15.654-6.484z" fill="#e99958"></path><path d="M408.065 258.804h-30v-16.537h-21.327v-30h51.327z" fill="#873f2e"></path><path d="M266.648 77.691a81.094 81.094 0 0 0-66.206 34.264l-18.555 26.232c-19.011 0-34.423 15.412-34.423 34.423v73.724a223.179 223.179 0 0 0 65.229 157.672l15.535-15.535a54.063 54.063 0 0 0 15.835-38.229v-43.799l38.25-70.167 28.651-44.029v-32.436l10-37.311-10-44.809z" fill="#b6766b"></path><path d="M310.963 77.691v82.12h124.574a57.785 57.785 0 0 0 57.785-57.785V77.691z" fill="#9e4c63"></path><path d="M262.072 236.277c-20.652 0-37.394 16.742-37.394 37.394 0 20.652 16.742 37.394 37.394 37.394h20.239l16.066-74.788z" fill="#fdd1a3"></path><path d="M63.519 108.817 33.729 77.71l-13.39 68.457c-3.59 18.354-1.402 37.504 6.974 54.225 14.646 29.241 44.557 49.498 79.281 50.353l20-115.795-20-116.777c-24.637 19.701-43.075 43.843-43.075 90.644z" fill="#ff8848"></path><path d="M187.446 130.154C161.751 76.256 131.783 42.839 131.783 0c-8.765 6.001-17.295 11.859-25.189 18.172v232.573c.76.019 1.519.041 2.284.041.899 0 1.795-.013 2.688-.039 60.522-1.752 99.689-64.923 75.88-120.593z" fill="#ff4c4c"></path></g></svg>