<svg viewBox="0 0 512 512" xmlns="http://www.w3.org/2000/svg"><g><g fill="#ffe9a1"><path d="M256 54.502a7.627 7.627 0 0 1-7.627-7.627V7.627a7.627 7.627 0 0 1 15.254 0v39.249A7.627 7.627 0 0 1 256 54.502zM103.985 92.797a7.606 7.606 0 0 1-3.07-.649L65.789 76.677a7.628 7.628 0 0 1 6.148-13.96l35.126 15.471a7.628 7.628 0 0 1-3.078 14.609zM408.015 92.797a7.627 7.627 0 0 1-3.078-14.609l35.126-15.471a7.627 7.627 0 0 1 6.148 13.96l-35.126 15.471a7.586 7.586 0 0 1-3.07.649z" fill="#ffe9a1"></path></g><path d="M311.64 512H200.367a5.084 5.084 0 0 1-5.084-5.084V240.773a5.084 5.084 0 0 1 5.084-5.084H311.64a5.084 5.084 0 0 1 5.084 5.084v266.142A5.084 5.084 0 0 1 311.64 512z" fill="#545454"></path><path d="M298.42 235.689V512h13.22a5.084 5.084 0 0 0 5.084-5.084V240.773a5.084 5.084 0 0 0-5.084-5.084z" fill="#494949"></path><path d="M271.29 235.689h-30.574V51.96a5.084 5.084 0 0 1 5.084-5.084h20.405a5.084 5.084 0 0 1 5.084 5.084v183.729z" fill="#9bd069"></path><path d="M256.003 46.875v188.813h15.287V51.96a5.084 5.084 0 0 0-5.084-5.084h-10.203z" fill="#7dbe3b"></path><path d="M304.565 235.396c.002.099-.009.194-.009.293h-33.271c-.027-3.574.283-31.488 15.7-64.764 14.387-31.052 45.163-73.133 110.303-99.333 2.645-1.064 5.656.245 6.669 2.91l8.214 21.608c.98 2.578-.275 5.476-2.833 6.508-43.504 17.553-74.271 44.747-91.49 80.885-13.322 27.958-13.287 51.356-13.283 51.893z" fill="#4374ef"></path><path d="M408.575 86.65c-56.469 21.502-88.422 53.681-106.593 91.816-8.966 18.817-12.873 42.076-14.551 57.222h17.125c0-.098.011-.194.009-.293-.004-.537-.039-23.935 13.283-51.893 17.219-36.137 47.986-63.332 91.49-80.885 2.558-1.032 3.813-3.93 2.833-6.509z" fill="#2f63cc"></path><path d="M207.435 235.396c-.002.099.01.194.01.293h33.271c.027-3.574-.283-31.488-15.7-64.764-14.387-31.052-45.163-73.133-110.303-99.333-2.645-1.064-5.656.245-6.669 2.91L99.829 96.11c-.98 2.578.275 5.476 2.833 6.508 43.504 17.553 74.271 44.747 91.49 80.885 13.322 27.958 13.287 51.356 13.283 51.893z" fill="#dd636e"></path><path d="M225.015 170.924c-14.387-31.052-45.163-73.132-110.303-99.333-2.645-1.064-5.656.245-6.669 2.91l-3.085 8.117c62.9 26.278 92.905 67.453 107.049 97.98 10.671 23.033 14.103 43.489 15.197 55.09h13.512c.026-3.573-.284-31.487-15.701-64.764z" fill="#c63d4f"></path></g></svg>