<svg viewBox="0 0 64 64" xmlns="http://www.w3.org/2000/svg"><g><g><path d="M28 56H1v-2s8-3 15-3c7.07 0 12 5 12 5zM63 54v2H36s4.93-5 12-5c7 0 15 3 15 3z" fill="#918778"></path><path d="M7 60h50v3H7z" fill="#733125"></path><path d="M57 56v4H7v-4h21c0-1.11 1.79-2 4-2s4 .89 4 2zM36 10.5v.18a19.606 19.606 0 0 0-3 2.29V10.5a1.5 1.5 0 0 1 3 0z" fill="#da684e"></path><path d="M57 1v10.87C54.21 10.15 49.79 8 45 8a16.946 16.946 0 0 0-9 2.68v-.18a1.5 1.5 0 0 0-3 0v2.47A12.821 12.821 0 0 0 32 14s-5-6-13-6c-4.79 0-9.21 2.15-12 3.87V1z" fill="#da684e"></path><path d="M32 51v3c-2.21 0-4 .89-4 2 0 0-4.93-5-12-5-7 0-15 3-15 3V17l3-2v34a27.145 27.145 0 0 1 13-3c8 0 15 5 15 5z" fill="#ded0b3"></path><path d="M63 17v37s-8-3-15-3c-7.07 0-12 5-12 5 0-1.11-1.79-2-4-2v-3s7-5 15-5a27.145 27.145 0 0 1 13 3V15z" fill="#eddebf"></path><path d="M18 31c-2.76 0-5 1.24-5 4a5 5 0 0 0 10 0c0-2.76-2.24-4-5-4zm-1.31-7h5.54A2.783 2.783 0 0 0 25 21.2a2.612 2.612 0 0 0-2.31-2.4s-2.77.4-2.77-1.2-3.27-1.6-3.27-1.6C14.36 16 13 17.43 13 19.2c0 2.65 1.65 4.8 3.69 4.8zM7 11.87C9.79 10.15 14.21 8 19 8c8 0 13 6 13 6v37s-7-5-15-5a27.145 27.145 0 0 0-13 3V14a26.423 26.423 0 0 1 3-2.13z" fill="#ffe8b8"></path><path d="M47 39c0-8-8-8-8-8 0 8 8 8 8 8zm1-8c0 8 8 8 8 8 0-8-8-8-8-8zm9-19.13A26.423 26.423 0 0 1 60 14v35a27.145 27.145 0 0 0-13-3c-8 0-15 5-15 5V14a12.821 12.821 0 0 1 1-1.03 19.606 19.606 0 0 1 3-2.29A16.946 16.946 0 0 1 45 8c4.79 0 9.21 2.15 12 3.87z" fill="#ffebc2"></path><path d="M16 51c-7 0-15 3-15 3v2s8-3 15-3a17.453 17.453 0 0 1 9.452 3H28s-4.93-5-12-5zM48 51c-7.07 0-12 5-12 5h2.548A17.453 17.453 0 0 1 48 53c7 0 15 3 15 3v-2s-8-3-15-3z" fill="#696157"></path><path d="M36 56c0-1.11-1.79-2-4-2s-4 .89-4 2H7v2h21c0-1.11 1.79-2 4-2s4 .89 4 2h21v-2zM32 11s-5-6-13-6C14.21 5 9.79 7.15 7 8.87v3C9.79 10.15 14.21 8 19 8c8 0 13 6 13 6a12.821 12.821 0 0 1 1-1.03V10.5a1.479 1.479 0 0 1 .171-.682c-.055.049-.12.105-.171.152A12.821 12.821 0 0 0 32 11zM45 5a16.946 16.946 0 0 0-9 2.68 18.942 18.942 0 0 0-1.966 1.4A1.482 1.482 0 0 1 36 10.5v.18A16.946 16.946 0 0 1 45 8c4.79 0 9.21 2.15 12 3.87v-3C54.21 7.15 49.79 5 45 5z" fill="#a64f3c"></path><path d="M32 51s-7-5-15-5a27.145 27.145 0 0 0-13 3V15l-2 1.333V52s9.932-4.563 15-4a27.436 27.436 0 0 1 13.957 6.077A7.774 7.774 0 0 1 32 54z" fill="#c1c4aa"></path><path d="M62 52V16.333L60 15v34a27.145 27.145 0 0 0-13-3c-8 0-15 5-15 5v3a7.774 7.774 0 0 1 1.043.077A27.436 27.436 0 0 1 47 48c5.068-.563 15 4 15 4z" fill="#d0d4b8"></path><path d="M24.719 42.511a20.271 20.271 0 0 1-6.247-2.559c-.157.015-.31.048-.472.048a5 5 0 0 1-5-5c0-.024.007-.043.007-.067A19.849 19.849 0 0 1 9 22.978V10.741c-.728.38-1.407.764-2 1.129A26.423 26.423 0 0 0 4 14v35a27.145 27.145 0 0 1 13-3c8 0 15 5 15 5v-6a36.532 36.532 0 0 0-7.281-2.489z" fill="#edd39c"></path><path d="M54.719 42.511A20.241 20.241 0 0 1 47 38.946V39s-8 0-8-8a9.409 9.409 0 0 1 1.789.231A19.863 19.863 0 0 1 39 22.978V9.164a18.45 18.45 0 0 0-3 1.516 19.606 19.606 0 0 0-3 2.29A12.821 12.821 0 0 0 32 14v37s7-5 15-5a27.145 27.145 0 0 1 13 3v-4.853a35.982 35.982 0 0 0-5.281-1.636z" fill="#f0daad"></path><path d="M19.92 17.6c0 1.6 2.77 1.2 2.77 1.2A2.612 2.612 0 0 1 25 21.2a2.783 2.783 0 0 1-2.77 2.8h-5.54C14.65 24 13 21.85 13 19.2c0-1.77 1.36-3.2 3.65-3.2 0 0 3.27 0 3.27 1.6z" fill="#ea735c"></path><path d="M18 31c2.76 0 5 1.24 5 4a5 5 0 0 1-10 0c0-2.76 2.24-4 5-4z" fill="#e84655"></path><path d="m39 31 8 8s-8 0-8-8zM48 31l8 8s-8 0-8-8z" fill="#658f41"></path><path d="m47 39-8-8s8 0 8 8zM56 39l-8-8s8 0 8 8z" fill="#96b343"></path><path d="M22.69 18.8s-2.77.4-2.77-1.2-3.27-1.6-3.27-1.6C14.36 16 13 17.43 13 19.2c0 2.65 1.65 4.8 3.69 4.8h5.54A2.783 2.783 0 0 0 25 21.2a2.612 2.612 0 0 0-2.31-2.4zm-.46 4.2h-5.54C15.232 23 14 21.26 14 19.2c0-1.337 1.04-2.2 2.65-2.2 1.148 0 2.27.379 2.27.6a1.993 1.993 0 0 0 .695 1.553 4.379 4.379 0 0 0 3.122.65A1.67 1.67 0 0 1 24 21.2a1.788 1.788 0 0 1-1.77 1.8z" fill="#bd4c3d"></path><circle cx="17" cy="20" fill="#ffd0c9" r="1"></circle><path d="M19 38a5 5 0 0 1-5-5 4.377 4.377 0 0 1 .071-.676A3.579 3.579 0 0 0 13 35a4.993 4.993 0 0 0 9.855 1.147A4.967 4.967 0 0 1 19 38z" fill="#c43b48"></path><path d="M18.5 29.411V27h-1v2.157A7.025 7.025 0 0 0 14 28.5v1c3.084 0 3.5.758 3.5 1.5h1c0-.708 1.5-1.5 3.5-1.5v-1a6.283 6.283 0 0 0-3.5.911z" fill="#537134"></path><ellipse cx="20.577" cy="33.708" fill="#f6fafd" rx=".825" ry="1.148" transform="rotate(-45 20.587 33.724)"></ellipse><g fill="#918778"><path d="M56 20.5a.508.508 0 0 1-.186-.036A30.7 30.7 0 0 0 46 18.5c-4.826 0-6.758.938-6.776.947a.5.5 0 1 1-.448-.894C38.862 18.51 40.94 17.5 46 17.5a31.164 31.164 0 0 1 10.186 2.036.5.5 0 0 1-.186.964zM56 23.5a.508.508 0 0 1-.186-.036A30.7 30.7 0 0 0 46 21.5c-4.826 0-6.758.938-6.776.947a.5.5 0 1 1-.448-.894C38.862 21.51 40.94 20.5 46 20.5a31.164 31.164 0 0 1 10.186 2.036.5.5 0 0 1-.186.964zM56 26.5a.508.508 0 0 1-.186-.036A30.7 30.7 0 0 0 46 24.5c-4.826 0-6.758.938-6.776.947a.5.5 0 1 1-.448-.894C38.862 24.51 40.94 23.5 46 23.5a31.164 31.164 0 0 1 10.186 2.036.5.5 0 0 1-.186.964z" fill="#918778"></path></g><path d="M36.962 10.119A2.5 2.5 0 0 0 32 10.5V14a12.821 12.821 0 0 1 1-1.03c.275-.255.619-.551 1-.861V10.5a.5.5 0 0 1 1 0V44a1 1 0 0 0 2 0V10.5a2.522 2.522 0 0 0-.038-.381z" fill="#96b343"></path><path d="M36 44V10.5a1.5 1.5 0 0 0-3 0v.5a1 1 0 0 1-1 1v2a12.821 12.821 0 0 1 1-1.03c.275-.255.619-.551 1-.861V10.5a.5.5 0 0 1 1 0V44a1 1 0 0 0 1 1 .977.977 0 0 0 .5-.153A.987.987 0 0 1 36 44z" fill="#658f41"></path><path d="M18.451 11.134a1.341 1.341 0 0 0-.45.849 1.27 1.27 0 0 0 .27.771A5.051 5.051 0 0 0 20.2 14.16a14.037 14.037 0 0 1 4.827 3.846 27.337 27.337 0 0 0 2.441 3.376 1.511 1.511 0 0 0 1.591.534 1.218 1.218 0 0 0 .454-.4A3.969 3.969 0 0 0 30 19.157q-.009-1.265-.063-2.528a6.739 6.739 0 0 0-.209-1.618 5.119 5.119 0 0 0-1.843-2.447c-2.273-1.82-6.962-3.905-9.434-1.43zM47.669 10.08a3.124 3.124 0 0 0-2.644 2.3 1.611 1.611 0 0 0 .23 1.182 2.176 2.176 0 0 0 .686.579 19.207 19.207 0 0 0 5.312 1.686 33.243 33.243 0 0 1 3.689 1.192c1.033.394 2.222 1.235 3.337.911a1.12 1.12 0 0 0 .455-.226c.5-.461.177-1.728-.046-2.254-1.017-2.4-3.965-3.862-6.34-4.65a9.793 9.793 0 0 0-4.679-.72z" fill="#fff3db"></path><path d="M7 60v3h2a2 2 0 0 1 2-2h42a2 2 0 0 1 2 2h2v-3z" fill="#471e17"></path></g></g></svg>