<svg viewBox="0 0 504.032 504" xmlns="http://www.w3.org/2000/svg"><g><path d="m440 11.957 64 240c-23.61 0-22.8-20.637-39.36-15.031l-14.41-63.13-12.636-54.964-10.801-47.266-8.953-39.375L410.64.75c12.313-4.23 11.75 11.207 29.36 11.207zm0 0" fill="#da4453"></path><path d="m362 131.957-16-120c17.594 0 46.953-5.277 64.64-11.2l7.2 31.442 8.953 39.375 10.8 47.266 12.637 54.965 14.41 63.129c-23.687 8-63.046 15.03-86.64 15.03zm0 0" fill="#ed5565"></path><path d="m346 11.957 32 240c-23.61 0-22.8-20.637-39.36-15.031l-11.038-118.094-4.32-47.187-3.68-39.36L316.64.758C328.96-3.48 328.398 11.957 346 11.957zm0 0" fill="#da4453"></path><path d="m327.602 118.832 11.039 118.094c-23.602 8-63.04 15.031-86.641 15.031v-240c17.602 0 47.04-5.277 64.64-11.2l2.962 31.528 3.68 39.36zm0 0" fill="#ed5565"></path><path d="M252 187.957v64c-23.602 0-22.8-20.637-39.36-15.031l2.641-62.969 2.32-55.125 2-47.187 1.68-39.36 1.36-31.527c12.398-4.23 11.757 11.199 29.359 11.199zm0 0" fill="#da4453"></path><path d="m221.281 32.285-1.68 39.36-2 47.187-2.32 55.125-2.64 62.969c-23.68 8-63.04 15.031-86.641 15.031l8.559-64 7.441-56 6.398-48 5.372-40 4.23-32c17.602 0 46.96-5.277 64.64-11.2zm0 0" fill="#ed5565"></path><path d="m116 71.645 7.04-39.36 5.6-31.527c12.4-4.23 11.758 11.199 29.36 11.199l-4.23 32-5.372 40-6.398 48-7.441 56-8.559 64c-23.602 0-22.8-20.637-39.36-15.031l11.2-62.969 9.762-55.125zm0 0" fill="#da4453"></path><path d="M123.04 32.285 116 71.645l-8.398 47.187-9.762 55.125-11.2 62.969c-23.6 8-63.038 15.031-86.64 15.031l64-240c17.602 0 47.04-5.277 64.64-11.2zm0 0" fill="#ed5565"></path><g fill="#da4453"><path d="M33.273 191.16a3.99 3.99 0 0 1-3.976-3.625c-.207-2.183 1.406-4.144 3.605-4.36 20.785-1.952 46.364-7.183 63.657-13a3.993 3.993 0 0 1 5.074 2.512 4.003 4.003 0 0 1-2.512 5.063c-17.824 6-44.129 11.375-65.465 13.39-.136.02-.258.02-.383.02zM150.633 191.086a4.002 4.002 0 0 1-3.977-3.625c-.207-2.2 1.406-4.16 3.602-4.36 21.199-2.015 46.812-7.199 63.742-12.917 2.105-.688 4.367.406 5.07 2.504a4.013 4.013 0 0 1-2.504 5.078c-17.453 5.89-43.796 11.25-65.543 13.312-.136-.008-.261.008-.39.008zM267.992 191.086a4.002 4.002 0 0 1-3.976-3.625c-.207-2.2 1.41-4.16 3.601-4.36 21.04-2 47.27-7.312 63.817-12.917 2.093-.688 4.367.406 5.07 2.504a4.003 4.003 0 0 1-2.504 5.078c-17.328 5.87-43.703 11.234-65.625 13.312-.129-.008-.254.008-.383.008zM385.352 191.086a4.002 4.002 0 0 1-3.977-3.625c-.207-2.2 1.41-4.16 3.602-4.36 21.152-2.015 46.664-7.199 63.503-12.917 10.122-3.145 15.207 1.605 19.711 5.796 1.098 1.02 2.235 2.083 3.512 3.114 1.73 1.375 2 3.886.625 5.625-1.383 1.719-3.887 1.984-5.625.625-1.437-1.16-2.734-2.364-3.969-3.504-4.414-4.13-6.414-5.754-11.308-4.203-17.738 6.02-43.985 11.379-65.692 13.441-.125-.008-.254.008-.382.008zM48.223 135.008a4.005 4.005 0 0 1-3.977-3.61c-.207-2.199 1.402-4.16 3.594-4.375 19.418-1.89 42.914-6.703 58.48-11.968 2.106-.688 4.36.406 5.07 2.504a4.011 4.011 0 0 1-2.503 5.078c-16.078 5.441-40.293 10.41-60.262 12.363-.129-.008-.266.008-.402.008zM158.07 135.008a3.998 3.998 0 0 1-3.972-3.61 4.01 4.01 0 0 1 3.59-4.375c19.511-1.89 43.082-6.703 58.632-11.968 2.114-.688 4.36.406 5.07 2.504a4.011 4.011 0 0 1-2.503 5.078c-16.078 5.441-40.36 10.41-60.422 12.363-.137-.008-.266.008-.395.008zM267.992 135.086a3.996 3.996 0 0 1-3.976-3.59 4 4 0 0 1 3.578-4.379c19.734-2.015 43.336-6.855 58.726-12.062 2.094-.688 4.352.406 5.07 2.504a4.018 4.018 0 0 1-2.503 5.078c-15.895 5.379-40.2 10.379-60.48 12.441-.141.008-.278.008-.415.008zM377.91 135.086a3.993 3.993 0 0 1-3.973-3.59c-.218-2.187 1.375-4.16 3.575-4.379 19.718-2.015 43.36-6.87 58.808-12.062 9.39-3.2 14.336 1.343 18.703 5.343l1.77 1.594a3.988 3.988 0 0 1 .375 5.637 3.99 3.99 0 0 1-5.64.379l-1.91-1.707c-4.009-3.672-5.833-5.344-10.731-3.688-15.977 5.395-40.313 10.395-60.559 12.457-.144.016-.281.016-.418.016zM61.031 87.086a3.99 3.99 0 0 1-3.968-3.574 3.993 3.993 0 0 1 3.554-4.395c17.977-1.887 39.719-6.422 54.102-11.262 2.105-.687 4.37.438 5.074 2.512a4 4 0 0 1-2.512 5.063c-14.883 5.015-37.312 9.703-55.824 11.64-.145.016-.281.016-.426.016zM164.55 87.008a4.01 4.01 0 0 1-3.976-3.61c-.215-2.183 1.387-4.16 3.578-4.375 17.918-1.8 39.688-6.296 54.168-11.168 2.106-.687 4.368.422 5.07 2.512a3.997 3.997 0 0 1-2.511 5.063c-14.984 5.066-37.465 9.703-55.91 11.543-.137.02-.281.035-.418.035zM267.992 87.008a4.008 4.008 0 0 1-3.976-3.61c-.215-2.183 1.382-4.16 3.586-4.375 18.093-1.816 39.957-6.296 54.398-11.168 2.105-.687 4.367.438 5.07 2.512a3.994 3.994 0 0 1-2.511 5.063c-14.95 5.047-37.52 9.687-56.16 11.543-.141.02-.27.035-.407.035zM371.434 87.008a4.003 4.003 0 0 1-.418-7.985c18.23-1.906 40.015-6.394 54.183-11.168.145-.05.281-.082.426-.113.016-.015.031-.015.047-.015 8.574-2.735 13.351 1.609 17.215 5.113l1.129 1.008a3.99 3.99 0 0 1 .336 5.64 4 4 0 0 1-5.649.344l-1.183-1.066c-3.903-3.559-5.473-4.75-9.473-3.407a3.016 3.016 0 0 1-.39.11h-.032c-14.688 4.937-37.082 9.547-55.785 11.504-.137.02-.281.035-.406.035zM71.672 47.008a4.004 4.004 0 0 1-.414-7.984c16.98-1.801 36.812-5.938 50.504-10.528 2.086-.738 4.36.422 5.062 2.512.703 2.086-.426 4.375-2.511 5.062-14.2 4.77-34.696 9.047-52.208 10.903-.152.02-.289.035-.433.035zM169.672 47.008a4.004 4.004 0 0 1-.414-7.984c17.031-1.817 37.43-6.051 50.742-10.528 2.105-.691 4.367.422 5.07 2.512a3.997 3.997 0 0 1-2.511 5.062c-14.032 4.735-34.614 9.016-52.454 10.903-.152.02-.289.035-.433.035zM267.992 47.008a4.004 4.004 0 0 1-.426-7.984c17.196-1.833 37.586-6.067 50.746-10.528 2.122-.672 4.368.422 5.079 2.512a3.996 3.996 0 0 1-2.504 5.062c-13.657 4.64-34.742 9.016-52.461 10.903-.145.02-.29.035-.434.035zM366.152 46.926a4.001 4.001 0 0 1-3.976-3.574 4.013 4.013 0 0 1 3.55-4.41c16.723-1.801 36.962-6 50.372-10.454.183-.066.496-.144.804-.187 8.16-2.453 12.672 1.754 16.313 5.129 1.617 1.511 1.707 4.047.2 5.656a3.979 3.979 0 0 1-5.653.2c-3.672-3.423-5.008-4.438-8.715-3.278-.32.11-.64.168-.969.183-14.504 4.75-34.734 8.903-51.504 10.704a3.761 3.761 0 0 1-.422.03zm0 0" fill="#da4453"></path></g><path d="M504 251.957h.031H504c-8.8 0-12.617-3.543-17.047-7.637-5.144-4.754-12.183-11.28-24.883-6.984-23.445 7.918-61.941 14.621-84.078 14.621-8.793 0-12.61-3.543-17.039-7.637-5.144-4.754-12.168-11.28-24.883-6.984-23.375 7.918-61.87 14.621-84.07 14.621-8.8 0-12.617-3.543-17.04-7.637-5.151-4.77-12.198-11.28-24.882-6.984-23.453 7.918-61.957 14.621-84.078 14.621-8.8 0-12.617-3.543-17.04-7.637-5.151-4.754-12.175-11.265-24.89-6.984C60.695 245.254 22.2 251.957 0 251.957v16c24.031 0 64.055-6.934 89.2-15.469 3.562-1.203 4.28-.691 8.89 3.575 5.11 4.734 12.84 11.886 27.902 11.886 23.953 0 63.969-6.933 89.2-15.472 3.55-1.2 4.28-.688 8.886 3.578 5.113 4.734 12.844 11.886 27.906 11.886 24.032 0 64.055-6.933 89.2-15.472 3.543-1.184 4.265-.703 8.886 3.578 5.114 4.734 12.84 11.887 27.899 11.887 23.96 0 63.976-6.934 89.199-15.473 3.527-1.184 4.266-.703 8.887 3.578 5.12 4.734 12.847 11.887 27.906 11.887h.008v-15.969zm0 0" fill="#ccd1d9"></path></g></svg>