<svg viewBox="0 0 64 64" xmlns="http://www.w3.org/2000/svg"><g><g><circle cx="32" cy="35" fill="#ffa426" r="15"></circle><path d="M21 35a14.992 14.992 0 0 1 13-14.851 15 15 0 1 0 0 29.7A14.992 14.992 0 0 1 21 35z" fill="#fe8205"></path><path d="M32 20a14.99 14.99 0 0 0-2 .149 14.983 14.983 0 0 1 0 29.7A14.993 14.993 0 1 0 32 20z" fill="#ffc247"></path><path d="M37.752 14.841C39.3 13.3 42.094 8 40.549 6.451S33.7 7.7 32.159 9.248a3.955 3.955 0 0 0 5.593 5.593z" fill="#a5e887"></path><path d="M37.752 11.841a3.956 3.956 0 0 1-6.456-1.3 3.955 3.955 0 0 0 6.456 4.3c1.495-1.494 4.151-6.5 2.921-8.219a14.936 14.936 0 0 1-2.921 5.219z" fill="#86c983"></path><path d="m38.707 9.707-1.414-1.414L30 15.588A9.446 9.446 0 0 0 23 13v2c7.871 0 8 7.676 8 8v1h2v-1a12.391 12.391 0 0 0-1.749-5.837z" fill="#98ba5c"></path><path d="M32 46a11.013 11.013 0 0 1-11-11h2a9.011 9.011 0 0 0 9 9zM21 31h2v2h-2zM38 27h2v2h-2zM42 31h2v2h-2zM38 31h2v2h-2z" fill="#f5e3a7"></path><path d="M13 30a19.087 19.087 0 0 1 5.01.97C19.69 31.48 21 32 21 32l-1.46.73L17 34l2 3-6-2-6 2 2-3-2.54-1.27L5 32s4.68-1.87 7.7-1.99c.1-.01.2-.01.3-.01z" fill="#a5e887"></path><path d="M25 41a8.972 8.972 0 0 1-.7 3.48L20 45a5 5 0 0 0-5 5h-5a9 9 0 0 1-3.54-17.27L9 34l-2 3 6-2 6 2-2-3 2.54-1.27A8.992 8.992 0 0 1 25 41z" fill="#ff475a"></path><path d="M19.54 34.73a8.982 8.982 0 0 1 5.39 7.34 8.923 8.923 0 0 0-5.39-9.34L17 34l1 1.5zM7 39l6-2 6 2-1.714-2.571L13 35l-4.286 1.429zM3.64 36.64a8.959 8.959 0 0 1 2.82-1.91L8 35.5 9 34l-2.54-1.27A8.954 8.954 0 0 0 1.059 42a8.945 8.945 0 0 1 2.581-5.36z" fill="#f03049"></path><path d="M53 50a8.016 8.016 0 0 1-7 7.94 8.262 8.262 0 0 1-1 .06 6.632 6.632 0 0 1-1-.07 6.171 6.171 0 0 1-.84-.15L38 57.16l-2-.24-11-1.32-5-.6a5 5 0 0 1 0-10l4.3-.52 4.7-.56 2-.24 9-1.08 5-.6a7.987 7.987 0 0 1 5.29 2 7.418 7.418 0 0 1 .91.95 7.287 7.287 0 0 1 .8 1.19A7.866 7.866 0 0 1 53 50z" fill="#ffc247"></path><path d="M63 48v4h-7l4 2-1 3-7.8-1.95A7.979 7.979 0 0 0 53 50a7.866 7.866 0 0 0-1-3.86 7.287 7.287 0 0 0-.8-1.19l.8-.2L59 43l1 3-4 2z" fill="#a5e887"></path><g fill="#ff9500"><path d="M23 55.36V50h2v5.6zM31 43.68V49h-2v-5.08zM38 51v6.16l-2-.24V51zM42 42.36V48h-2v-5.4zM44 57.93V54h2v3.94zM29 51h2v2h-2zM44 50h2v2h-2z" fill="#ff9500"></path></g><path d="M12 33a17.345 17.345 0 0 0-.283-2.806 6.727 6.727 0 0 0-1.424-3.487l1.414-1.414a8.36 8.36 0 0 1 1.979 4.546A18.986 18.986 0 0 1 14 33z" fill="#98ba5c"></path><path d="M53 50a8.016 8.016 0 0 1-7 7.94 8.262 8.262 0 0 1-1 .06 6.632 6.632 0 0 1-1-.07 6.171 6.171 0 0 1-.84-.15L38 57.16l-2-.24-11-1.32-5-.6a4.947 4.947 0 0 1-4.75-6.5A5.007 5.007 0 0 0 20 52l5 .6 11 1.32 2 .24 5.16.62a6.171 6.171 0 0 0 .84.15 6.632 6.632 0 0 0 1 .07 8.262 8.262 0 0 0 1-.06 7.951 7.951 0 0 0 5.2-2.89 8.066 8.066 0 0 0 1.65-3.52A7.965 7.965 0 0 1 53 50z" fill="#ffa426"></path><path d="M25 52.6v3l-2-.24v-3z" fill="#fe8205"></path><path d="M31 43.68V49h-2v-5.08z" fill="#ff9500"></path><path d="M38 54.16v3l-2-.24v-3z" fill="#fe8205"></path><path d="M42 42.36V48h-2v-5.4z" fill="#ff9500"></path><path d="M46 54.94v3l-2-.01v-3a6.632 6.632 0 0 0 1 .07 8.262 8.262 0 0 0 1-.06z" fill="#fe8205"></path><path d="M29 51h2v2h-2zM44 50h2v2h-2z" fill="#ff9500"></path><path d="M49.33 40.27a21.711 21.711 0 0 0-3.66.91 12.19 12.19 0 0 0-2.24 1.01l-2.43.29-4.66.56L35 41.7l2.87-2.87c2.15-2.15 2.86-7.16 2.86-7.16a6.091 6.091 0 0 0 2.11 1.37 5.005 5.005 0 0 0 1.48 3.64 4.937 4.937 0 0 0 2.38 1.33v.01a4.872 4.872 0 0 0 1.26.14 6.091 6.091 0 0 0 1.37 2.11z" fill="#98ba5c"></path><path d="M47.96 38.16a4.872 4.872 0 0 1-1.26-.14v-.01c-.115-.026-.227-.069-.34-.1a21.6 21.6 0 0 0-2.89.774 12.19 12.19 0 0 0-2.24 1.01l-2.43.29-2.364.284A651.222 651.222 0 0 0 35 41.7l1.34 1.34 4.66-.56 2.43-.29a12.19 12.19 0 0 1 2.24-1.01 21.711 21.711 0 0 1 3.66-.91 6.091 6.091 0 0 1-1.37-2.11z" fill="#7a9e51"></path><path d="M61.52 26.65a5.088 5.088 0 0 1 0 7.17 4.945 4.945 0 0 1-1.89 1.17 6.078 6.078 0 0 1-11.67 3.17 4.872 4.872 0 0 1-1.26-.14v-.01a4.937 4.937 0 0 1-2.38-1.33 5.005 5.005 0 0 1-1.48-3.64 6.075 6.075 0 0 1-2.11-9.97c.05-.05.1-.1.16-.15a6.054 6.054 0 0 1 5.12-1.55 4.945 4.945 0 0 1 1.17-1.89 5.088 5.088 0 0 1 7.17 0c.1.1.17.22.26.32a5.068 5.068 0 0 1 6.59 6.59c.1.09.22.16.32.26z" fill="#a5e887"></path><path d="M61.52 26.65c-.1-.1-.22-.17-.32-.26a5.068 5.068 0 0 0-6.59-6.59c-.09-.1-.16-.22-.26-.32a5.073 5.073 0 0 0-5.935-.877 5.025 5.025 0 0 1 1.235.877c.1.1.17.22.26.32a5.068 5.068 0 0 1 6.59 6.59c.1.09.22.16.32.26a5.088 5.088 0 0 1 0 7.17 4.945 4.945 0 0 1-1.89 1.17 6.056 6.056 0 0 1-3.647 6.581 6.072 6.072 0 0 0 8.347-6.581 4.945 4.945 0 0 0 1.89-1.17 5.088 5.088 0 0 0 0-7.17z" fill="#86c983"></path></g></g></svg>