<svg id="Capa_1" enable-background="new 0 0 512.001 512.001" height="512" viewBox="0 0 512.001 512.001" width="512" xmlns="http://www.w3.org/2000/svg"><g><g><path d="m396.082 419.97c5.86 5.85 5.86 15.35 0 21.21s-15.36 5.86-21.21 0c-1.55-1.55-3-3.21-4.3-4.94-14.07-18.61-12.21-44.76 4.19-61.26l20.955 3.476.265 17.744c-5.85 5.94-6.5 15.3-1.46 21.97.47.63.99 1.23 1.56 1.8z" fill="#624d8c"/><path d="m464.642 464.86c-5.87 5.75-15.29 5.71-21.11-.1l-23.57-23.58c-2.82-2.81-4.4-6.63-4.4-10.61 0-3.93 1.54-7.69 4.3-10.49l24.55 9.635z" fill="#624d8c"/><path d="m469.474 273.943c5.004-5.669 8.634-12.525 10.445-19.975 3.067-12.618.874-25.588-6.176-36.519-13.246-20.538-40.425-27.428-61.876-15.687-20.83 11.402-29.867 36.59-21.019 58.595.809 2.011 1.768 3.986 2.849 5.872 4.122 7.187 13.288 9.671 20.475 5.551 7.187-4.121 9.672-13.288 5.551-20.475-.397-.692-.748-1.415-1.042-2.146-3.181-7.909.083-16.972 7.591-21.081 7.723-4.228 17.499-1.754 22.261 5.63 2.547 3.949 3.341 8.627 2.235 13.172-1.106 4.55-3.947 8.337-7.999 10.662-3.45 1.979-5.973 5.249-7.013 9.09-1.04 3.84-.512 7.936 1.469 11.386l16.595 28.918c2.772 4.832 7.825 7.537 13.023 7.537 2.532-.001 5.099-.643 7.452-1.993 7.186-4.123 9.668-13.29 5.544-20.476z" fill="#3d2866"/><path d="m306.993 453.698-18.032-10.417c1.48-7.415 1.178-15.167-.996-22.519-3.682-12.454-12.09-22.569-23.675-28.483-21.768-11.111-48.731-3.423-61.387 17.5-12.291 20.318-7.461 46.639 11.233 61.223 1.71 1.335 3.534 2.564 5.421 3.654 7.172 4.143 16.347 1.689 20.492-5.484 4.145-7.174 1.688-16.348-5.484-20.492-.689-.398-1.353-.845-1.974-1.33-6.722-5.243-8.45-14.72-4.02-22.043 4.556-7.531 14.255-10.302 22.077-6.307 4.186 2.136 7.221 5.783 8.547 10.269 1.328 4.491.772 9.191-1.564 13.237-4.145 7.173-1.688 16.348 5.485 20.491l28.87 16.678c2.363 1.365 4.942 2.015 7.489 2.015 5.182-.001 10.224-2.689 13.002-7.5 4.146-7.173 1.69-16.348-5.484-20.492z" fill="#624d8c"/><circle cx="351.962" cy="497.001" fill="#624d8c" r="15"/><g fill="#3d2866"><circle cx="496.992" cy="497.001" r="15"/><circle cx="496.992" cy="352.033" r="15"/><path d="m464.752 464.76c-.04.04-.07.07-.11.1 0 0-44.72-44.85-44.68-44.89 3.3-3.31 5.05-7.7 4.93-12.38s-2.11-8.99-5.6-12.13c-6.628-5.998-17.06-5.701-23.31.74l-21.22-21.22c17.473-17.653 46.2-18.447 64.62-1.81 9.66 8.71 15.16 20.66 15.5 33.64.2 7.66-1.51 15.23-4.86 22.01l14.73 14.72c5.85 5.86 5.85 15.36 0 21.22z"/></g></g><g><path d="m240.354 275.872-94.029-42.504c-.135-.062-.271-.12-.407-.178-6.476-2.698-13.86-1.234-18.815 3.731-4.955 4.966-6.403 12.354-3.69 18.823.048.112.096.224.146.335l42.265 94.263c3.395 7.636 12.444 10.912 19.824 7.551 7.56-3.39 10.939-12.266 7.551-19.824l-6.297-14.043 27.131-27.131 13.966 6.313c7.547 3.415 16.435.061 19.847-7.489 3.411-7.549.057-16.435-7.492-19.847zm-66.587 18.862-9.02-20.117 20.066 9.071z" fill="#ff4d88"/><path d="m152.056 366.596-80.336-54.557c-6.516-4.415-15.243-3.83-21.109 1.415-5.97 5.313-7.483 14.139-3.616 21.136l26.479 47.595-48.099-26.184c-7.035-3.803-15.854-2.206-21.111 3.823-5.186 5.924-5.682 14.653-1.199 21.126l55.257 79.596c4.753 6.853 14.152 8.458 20.876 3.769 6.806-4.725 8.492-14.071 3.769-20.876l-24.473-35.252 39.438 21.47c6.71 3.624 15.032 2.381 20.39-3.047 5.369-5.409 6.531-13.734 2.846-20.405l-21.748-39.092 35.785 24.302c6.854 4.655 16.182 2.871 20.836-3.982s2.869-16.183-3.985-20.837z" fill="#ff4d88"/><path d="m450.083 73.633c-5.857-5.859-15.355-5.857-21.213 0l-18.567 18.567-13.407-13.407 16.417-16.417c5.858-5.857 5.858-15.355 0-21.213-5.857-5.857-15.355-5.857-21.213 0l-16.417 16.417-13.406-13.406 18.567-18.568c5.858-5.858 5.858-15.355 0-21.213-5.857-5.859-15.355-5.857-21.213 0l-29.174 29.175c-5.858 5.858-5.858 15.355 0 21.213l69.239 69.239c5.584 5.811 15.629 5.81 21.213 0l29.174-29.175c5.858-5.857 5.858-15.355 0-21.212z" fill="#e62e6b"/><path d="m335.605 107.382c-1.681-5.982-4.862-11.627-9.559-16.325h-.001c-14.632-14.634-38.443-14.636-53.077 0l-20.112 20.112c-5.857 5.857-5.858 15.354-.001 21.213l69.24 69.24c5.603 5.828 15.684 5.806 21.26-.048.185-.186 18.473-18.637 23.495-23.66 16.125-16.125 16.125-42.361 0-58.486-8.571-8.571-19.998-12.586-31.245-12.046zm-41.425 4.888c2.938-2.935 7.714-2.936 10.651 0 2.936 2.937 2.936 7.715 0 10.651-1.494 1.494-9.487 9.525-9.487 9.525l-10.67-10.67zm51.456 44.432c-2.464 2.465-7.927 7.965-12.979 13.056l-16.092-16.091c.716-.721 13.011-13.026 13.011-13.026 4.428-4.428 11.633-4.428 16.061 0s4.427 11.633-.001 16.061z" fill="#e62e6b"/><path d="m225.122 225.11-44.13-9.26c-8.11-1.71-13.3-9.66-11.6-17.77 1.64-7.83 9.14-12.95 16.96-11.73l29.353 19.29z" fill="#ff4d88"/><path d="m285.922 259.01c-5.87 5.84-15.37 5.82-21.21-.05l-32.12-32.28-7.47-1.57-38.77-38.76c.27.04.53.08.8.14l33.47 7.02-7-33.12c-1.71-8.1 3.47-16.06 11.57-17.77 8.11-1.72 16.07 3.46 17.78 11.57l10.85 51.29 32.15 32.31c5.84 5.88 5.82 15.38-.05 21.22z" fill="#e62e6b"/></g></g></svg>