<svg viewBox="0 0 512 512" xmlns="http://www.w3.org/2000/svg"><g><path d="M262.991 453.925h-19.373l-8.752 13.043-.427 3.39a5.607 5.607 0 0 1-5.563 4.906h-10.908c-10.144 0-18.367 8.223-18.367 18.367s8.223 18.367 18.367 18.367h30.258c10.035 0 18.508-7.441 19.797-17.393.819-6.317 1.93-15.171 3.479-27.639z" fill="#7b6c79"></path><path d="M270.145 403.961h-18.157l-10.361 9.313-6.761 53.694h36.637c1.568-12.623 3.586-28.963 6.203-50.131z" fill="#d8d2d7"></path><path d="M382.748 475.265h-10.261a5.607 5.607 0 0 1-5.564-4.909l-.425-3.388-7.842-16.262h-20.69l-8.108 16.262c1.549 12.468 2.66 21.321 3.479 27.639C334.626 504.558 343.1 512 353.134 512h29.614c10.144 0 18.367-8.223 18.367-18.367s-8.223-18.368-18.367-18.368z" fill="#938493"></path><path d="m359.761 413.274-11.322-9.313-15.968 1.288-8.813 11.588-.003.003c2.617 21.167 4.635 37.506 6.203 50.129h36.64z" fill="#d8d2d7"></path><path d="m284.355 363.114-7.9-16.715h-16.311l-11.769 13.286-6.748 53.589s16.187 13.354 36.079 3.563c1.885-15.257 4.082-33.017 6.649-53.723z" fill="#f79480"></path><path d="m353.024 359.581-9.865-12.151-19.504 2.704-6.654 12.951c2.568 20.72 4.766 38.49 6.654 53.755l.003-.003c19.892 9.792 36.079-3.563 36.079-3.563h.025z" fill="#ffb1a0"></path><circle cx="157.101" cy="109.122" fill="#ffb1a0" r="32.739"></circle><path d="m340.698 261.338-15.61-14.953h-48.076l-16.352 14.953-12.287 98.348c11.393 1.718 23.452 2.888 35.98 3.429 1.706-13.76 3.572-28.806 5.62-45.283a10.787 10.787 0 0 1 21.41 0c2.046 16.465 3.912 31.502 5.616 45.253 12.549-.564 24.623-1.759 36.023-3.504z" fill="#8bcaff"></path><path d="M251.105 30.783 133.399.57c-9.642-2.474-19.468 3.335-21.944 12.98-2.476 9.644 3.335 19.469 12.98 21.944l114.883 29.489 7.26 13.051h23.051l5.746-13.051V62.07a32.287 32.287 0 0 0-24.27-31.287z" fill="#ffb1a0"></path><path d="m252.347 290.864-53.899-38.581a.928.928 0 0 1-.35-1.017l2.021-6.855-4.491-16.398-17.17-4.55-13.459 12.566-1.485 5.038c-4.45 15.089 1.155 31.379 13.948 40.535l54.284 38.857c8.001 5.725 19.075 3.969 24.927-3.858 6.064-8.11 3.908-19.844-4.326-25.737z" fill="#f79480"></path><path d="m234.345 145.77 58.463 110.488 32.279 5.08h15.61c-13.917-74.874-47.847-124.783-60.478-141.32a23.499 23.499 0 0 1-4.844-14.264v-40.77h-36.057v49.011c0 2.406-.658 4.733-1.855 6.758z" fill="#ff636e"></path><path d="M268.084 179.766c-18.263-31.181-26.842-49.783-30.62-59.014a13.29 13.29 0 0 1-2.897 3.427l-37.186 31.177a49.202 49.202 0 0 0-15.63 23.86l-16.752 56.814 35.12 8.382 13.73-46.562c1.205-4.088 6.282-5.483 9.403-2.582 10.745 9.986 30.889 32.543 37.41 66.071h64.427c-33.31-8.743-28.846-33.497-57.005-81.573z" fill="#ff4654"></path></g></svg>