<svg viewBox="0 0 512 512" xmlns="http://www.w3.org/2000/svg"><g><path d="M264.975 437.03c29.66-3.614 52.634-28.883 52.634-59.519V317.61h59.902c33.116 0 59.962-26.846 59.962-59.962v-3.296c0-33.116-26.846-59.962-59.962-59.962H317.61v-59.902c0-30.635-22.975-55.905-52.634-59.519l-21.243 3.333-29.114 33.812-10.083 191.655 35.63 131.162z" fill="#8ce09f"></path><path d="M236.831 385.27V126.73c0-21.69 11.21-40.751 28.142-51.742a60.434 60.434 0 0 0-7.325-.461h-3.295c-33.116 0-59.962 26.846-59.962 59.962v59.902h-59.902c-33.116 0-59.962 26.846-59.962 59.962v3.296c0 33.116 26.846 59.962 59.962 59.962h59.902v59.902c0 33.116 26.846 59.962 59.962 59.962h3.295a60.42 60.42 0 0 0 7.325-.461c-16.932-10.993-28.142-30.053-28.142-51.744z" fill="#29ce69"></path><path d="M204.535 268.151c-.041 13.236-13.549 23.923-30.169 23.871s-30.06-10.824-30.019-24.059c.041-13.236 13.548-23.923 30.169-23.871 16.621.051 30.06 10.823 30.019 24.059zM307.465 268.473c-.041 13.235 13.398 24.007 30.018 24.059s30.127-10.635 30.169-23.871c.041-13.236-13.398-24.007-30.018-24.06-16.62-.051-30.128 10.636-30.169 23.872z" fill="#ffa1ac"></path><path d="M280.32 249.975c.047-14.995-10.811-16.438-24.211-16.48s-24.267 1.333-24.314 16.328c-.047 14.994 10.778 27.184 24.178 27.226 13.4.041 24.3-12.08 24.347-27.074z" fill="#455060"></path><path d="m474.228 180.041-11.278-10.752c-1.147-1.093-1.367-2.823-.571-4.193a109.166 109.166 0 0 0 7.727-16.252c5.026-13.298 7.402-27.273 7.061-41.537-.341-14.265-3.381-28.111-9.036-41.153-5.859-13.514-14.274-25.555-25.009-35.789s-23.162-18.064-36.94-23.272C392.884 2.067 378.909-.309 364.645.032c-14.265.341-28.11 3.381-41.153 9.036a109.191 109.191 0 0 0-17.49 9.556c-10.401 6.989-11.576 21.863-2.506 30.509 6.671 6.36 16.857 7.221 24.518 2.097 26.873-17.976 63.625-15.622 87.978 7.595 21.025 20.045 26.942 50.058 17.44 75.712-.855 2.308-3.768 3.018-5.549 1.32l-8.018-7.644c-8.113-7.735-21.576-3.112-23.225 7.976l-7.27 48.866c-2.54 17.075 12.603 31.513 29.538 28.16l48.464-9.594c10.994-2.177 14.97-15.845 6.856-23.58z" fill="#83deff"></path><path d="m37.772 331.959 11.278 10.752c1.147 1.093 1.367 2.823.571 4.193a109.166 109.166 0 0 0-7.727 16.252c-5.026 13.298-7.402 27.273-7.061 41.537.341 14.265 3.381 28.111 9.036 41.153 5.859 13.514 14.274 25.555 25.009 35.789s23.164 18.064 36.942 23.272c13.298 5.026 27.273 7.402 41.537 7.061 14.265-.341 28.11-3.381 41.153-9.036a109.191 109.191 0 0 0 17.49-9.556c10.401-6.989 11.576-21.863 2.506-30.509-6.671-6.36-16.857-7.221-24.518-2.097-26.873 17.976-63.625 15.622-87.978-7.595-21.025-20.045-26.942-50.058-17.44-75.712.855-2.308 3.768-3.018 5.549-1.32l8.018 7.644c8.113 7.735 21.576 3.112 23.225-7.976l7.27-48.866c2.54-17.075-12.603-31.513-29.538-28.16l-48.464 9.594c-10.996 2.177-14.972 15.845-6.858 23.58z" fill="#5972a5"></path><path d="M400.083 392.46h12.994v-12.994c0-10.209 8.276-18.486 18.486-18.486 10.209 0 18.486 8.276 18.486 18.486v12.994h12.994c10.209 0 18.486 8.276 18.486 18.486 0 10.209-8.276 18.486-18.486 18.486h-12.994v12.994c0 10.209-8.276 18.486-18.486 18.486-10.209 0-18.486-8.276-18.486-18.486v-12.994h-12.994c-10.209 0-18.486-8.276-18.486-18.486 0-10.209 8.277-18.486 18.486-18.486z" fill="#8ce09f"></path><path d="M48.959 82.568h12.994V69.575c0-10.209 8.276-18.486 18.486-18.486 10.209 0 18.486 8.276 18.486 18.486v12.994h12.994c10.209 0 18.486 8.276 18.486 18.486 0 10.209-8.276 18.486-18.486 18.486H98.923v12.994c0 10.209-8.276 18.486-18.486 18.486-10.209 0-18.486-8.276-18.486-18.486V119.54H48.959c-10.209 0-18.486-8.276-18.486-18.486 0-10.209 8.276-18.486 18.486-18.486z" fill="#29ce69"></path><g fill="#455060"><path d="M206.386 249.804h-.025a7.727 7.727 0 0 1-7.702-7.751 6.55 6.55 0 0 0-1.917-4.671 6.56 6.56 0 0 0-4.659-1.947h-.022a6.55 6.55 0 0 0-4.649 1.918 6.555 6.555 0 0 0-1.947 4.659 7.726 7.726 0 0 1-7.726 7.702h-.025a7.726 7.726 0 0 1-7.702-7.751 21.906 21.906 0 0 1 6.507-15.571 21.905 21.905 0 0 1 15.541-6.409h.072c5.89.019 11.42 2.33 15.571 6.507a21.902 21.902 0 0 1 6.409 15.612 7.728 7.728 0 0 1-7.726 7.702zM334.427 250.205h-.025a7.727 7.727 0 0 1-7.702-7.751 6.546 6.546 0 0 0-1.918-4.671 6.546 6.546 0 0 0-4.658-1.947h-.022c-3.629 0-6.587 2.946-6.598 6.576a7.726 7.726 0 0 1-7.725 7.702h-.025a7.727 7.727 0 0 1-7.702-7.751c.039-12.158 9.951-21.983 22.12-21.981 5.889.018 11.42 2.329 15.571 6.507s6.429 9.722 6.409 15.612a7.727 7.727 0 0 1-7.725 7.704z" fill="#455060"></path></g></g></svg>