<svg viewBox="0 0 512 512" xmlns="http://www.w3.org/2000/svg"><g><path clip-rule="evenodd" d="M243.4 149.47h64.97v362.52H243.4z" fill="#ffd23b" fill-rule="evenodd"></path><path clip-rule="evenodd" d="M349.45 512c-67.72 0-122.63-51.9-122.63-115.91 0-55.28 41.58-107.18 95.98-132.07l-19.67-45.55c-2.78-6.41-1.11-13.66 3.91-18.2 4.05-3.66 9.81-4.14 14.4-1.19l4.37 2.78c4 2.55 8.82 2.55 12.81 0l4.42-2.83c4-2.55 8.82-2.55 12.84 0l4.42 2.83c4 2.55 8.82 2.55 12.81 0l4.37-2.78c4.59-2.95 10.35-2.47 14.4 1.19 5.02 4.54 6.69 11.79 3.91 18.2l-19.67 45.55c54.4 24.89 95.98 76.79 95.98 132.07 0 64-54.91 115.91-122.65 115.91z" fill="#eabc6b" fill-rule="evenodd"></path><path d="M373.6 257.59c4.25-1.42 8.82.91 10.23 5.13a8.114 8.114 0 0 1-5.16 10.23 81.854 81.854 0 0 1-13.97 3.26 105.195 105.195 0 0 1-30.47 0c-4.96-.71-9.67-1.84-13.97-3.26-4.25-1.42-6.55-5.98-5.16-10.23 1.42-4.22 5.98-6.55 10.23-5.13 3.26 1.08 7.03 1.96 11.25 2.58a91.72 91.72 0 0 0 25.77 0c4.22-.63 7.99-1.51 11.25-2.58z" fill="#ffe07d"></path><path clip-rule="evenodd" d="M398.8 411.88h82.94c9.18 0 16.7 7.51 16.7 16.67 0 9.18-7.51 16.7-16.7 16.7H398.8c-9.18 0-16.7-7.51-16.7-16.7 0-9.16 7.51-16.67 16.7-16.67z" fill="#ffd23b" fill-rule="evenodd"></path><path clip-rule="evenodd" d="M398.8 445.24h82.94c9.18 0 16.7 7.51 16.7 16.7 0 9.18-7.51 16.67-16.7 16.67H398.8c-9.18 0-16.7-7.48-16.7-16.67 0-9.19 7.51-16.7 16.7-16.7z" fill="#ffd23b" fill-rule="evenodd"></path><path clip-rule="evenodd" d="M398.8 478.6h82.94c9.18 0 16.7 7.51 16.7 16.7 0 9.18-7.51 16.7-16.7 16.7H398.8c-9.18 0-16.7-7.51-16.7-16.7 0-9.18 7.51-16.7 16.7-16.7zM440.27 411.88c32.03 0 58.17-26.14 58.17-58.17s-26.14-58.17-58.17-58.17-58.17 26.14-58.17 58.17 26.14 58.17 58.17 58.17z" fill="#ffd23b" fill-rule="evenodd"></path><path d="M440.86 337.95c-.2.03-.4.03-.6.03h-.17c-.71.03-1.42.14-2.07.31-.25.06-.51.14-.79.23-.62.23-1.11.48-1.42.82-.4.37-.65.85-.77 1.39-.11.6-.08 1.19.08 1.7.08.28.25.57.43.74 1.64 1.67 5.3 2.55 8.76 3.37 5.07 1.19 9.84 2.32 13.78 6.12 1.08 1.08 1.98 2.18 2.72 3.29 2.55 3.88 3.37 8.19 2.81 12.36-.54 4-2.41 7.79-5.3 10.74a20.834 20.834 0 0 1-3.32 2.78c-1.13.74-2.38 1.39-3.71 1.93-.94.4-1.9.74-2.89 1.02v3.12c0 4.48-3.66 8.14-8.14 8.14s-8.14-3.66-8.14-8.14v-4.05c-4.59-1.81-8.9-5.07-12.16-10.03-.96-1.47-1.84-3.15-2.61-4.99-1.73-4.14.23-8.87 4.37-10.6s8.9.25 10.6 4.39c.37.82.77 1.59 1.25 2.3 1.5 2.32 3.52 3.66 5.56 4.19 2.1.57 4.22.4 5.95-.31.34-.14.68-.34 1.02-.57.25-.17.45-.31.6-.48.48-.48.77-1.05.85-1.59.06-.43-.03-.88-.31-1.3-.14-.23-.28-.4-.45-.57-.68-.65-3.34-1.28-6.15-1.96-5.67-1.33-11.74-2.75-16.7-7.85a18.076 18.076 0 0 1-4.17-6.86c-1.13-3.29-1.33-6.89-.6-10.32.77-3.52 2.52-6.86 5.33-9.58 2.01-1.96 4.51-3.54 7.51-4.56l.11-.03v-3.63c0-4.48 3.66-8.11 8.14-8.11s8.14 3.63 8.14 8.11v3.32c.48.14.96.31 1.45.48 5.61 2.07 10.32 6.15 12.5 12.5.17.54.34 1.11.48 1.7 1.08 4.37-1.59 8.76-5.92 9.81-4.37 1.08-8.76-1.59-9.81-5.92-.03-.08-.09-.23-.11-.37-.42-1.19-1.45-1.98-2.72-2.47-1.05-.4-2.22-.6-3.41-.6z" fill="#fea832"></path><path d="M350.07 363.21c-.2 0-.4.03-.62.03h-.17c-1.42.06-2.86.26-4.22.6-.48.11-1.02.28-1.53.45-1.56.54-2.81 1.28-3.74 2.18a8.51 8.51 0 0 0-2.3 4.22c-.34 1.62-.26 3.29.23 4.79.37 1.02.91 1.96 1.62 2.72 3.34 3.4 9.52 4.88 15.31 6.24 7.11 1.67 13.8 3.26 18.91 8.22 1.42 1.39 2.61 2.81 3.57 4.28 3.26 4.96 4.31 10.52 3.57 15.85-.68 5.19-3.12 10.09-6.86 13.95-1.3 1.36-2.78 2.58-4.34 3.6-1.5.99-3.15 1.84-4.9 2.58-2.21.94-4.56 1.62-7 2.04v8.08c0 4.48-3.63 8.14-8.14 8.14-4.48 0-8.11-3.66-8.11-8.14v-9.07c-7.23-2.21-14.09-6.89-19.11-14.57a41.308 41.308 0 0 1-3.6-6.86c-1.73-4.14.23-8.87 4.37-10.6 4.14-1.7 8.87.26 10.6 4.39a28.17 28.17 0 0 0 2.21 4.2c2.92 4.42 6.83 7 10.86 8.08 4.08 1.11 8.25.77 11.68-.65.79-.34 1.53-.74 2.27-1.22.62-.4 1.16-.85 1.62-1.3 1.3-1.36 2.15-3.03 2.41-4.79a6.94 6.94 0 0 0-1.13-4.79c-.34-.57-.77-1.08-1.25-1.56-1.87-1.81-6.46-2.89-11.31-4.03-8.02-1.9-16.55-3.91-23.22-10.77-2.47-2.52-4.28-5.56-5.39-8.79-1.45-4.28-1.7-8.99-.74-13.44.99-4.54 3.26-8.87 6.89-12.39 2.61-2.55 5.87-4.62 9.81-5.95.91-.31 1.87-.6 2.89-.85l.14-.03v-8.62c0-4.48 3.63-8.11 8.11-8.11 4.51 0 8.14 3.63 8.14 8.11v8.31c1.7.34 3.35.79 4.96 1.39 7.37 2.72 13.58 8.02 16.41 16.36.23.68.43 1.42.62 2.21 1.08 4.37-1.59 8.76-5.92 9.81-4.34 1.08-8.73-1.59-9.81-5.92-.08-.28-.17-.57-.25-.91-1.08-3.12-3.6-5.19-6.63-6.32-2.18-.81-4.56-1.18-6.91-1.15z" fill="#ffe07d"></path><path clip-rule="evenodd" d="M132.54 266.86h64.97V512h-64.97z" fill="#fa6450" fill-rule="evenodd"></path><path clip-rule="evenodd" d="M21.68 384.24h64.97V512H21.68z" fill="#33cc33" fill-rule="evenodd"></path><path d="M27.57 317.23c-3.06 3.26-8.19 3.43-11.45.34-3.26-3.06-3.43-8.19-.34-11.45l64.97-68.8L302.48 2.55c3.06-3.26 8.19-3.4 11.45-.34s3.43 8.19.37 11.45L179.11 156.79z" fill="#0593fc"></path><path d="M316.51 51.88c0 4.48-3.63 8.14-8.14 8.14-4.48 0-8.11-3.66-8.11-8.14V16.25H261.2c-4.51 0-8.14-3.63-8.14-8.14 0-4.48 3.63-8.11 8.14-8.11h47.17c4.51 0 8.14 3.63 8.14 8.11z" fill="#0593fc"></path><g clip-rule="evenodd" fill-rule="evenodd"><path d="M21.68 384.24h19.45V512H21.68z" fill="#2eb82e"></path><path d="M132.54 266.86h19.45V512h-19.45z" fill="#e15a48"></path><path d="M243.4 149.47h19.45V308.3c-7.51 8.5-14.06 17.66-19.45 27.3zm19.45 328.65V512H243.4v-57.71c5.36 8.75 11.91 16.75 19.45 23.83z" fill="#e6bd35"></path><path d="m320.05 257.64-16.92-39.17c-2.78-6.41-1.11-13.66 3.91-18.2 4.05-3.66 9.81-4.14 14.4-1.19l2.35 1.5c-4.79 4.54-6.32 11.62-3.6 17.89l18.11 41.92c-.6-.08-1.16-.14-1.73-.23-4.22-.62-7.99-1.5-11.25-2.58a8.056 8.056 0 0 0-5.27.06zM349.45 512c-67.72 0-122.63-51.9-122.63-115.91 0-52.64 37.7-102.19 88.27-128.32a8.128 8.128 0 0 0 5.16 5.19c.54.17 1.11.37 1.67.54-45.33 27.24-78.04 73.59-78.04 122.6 0 61.31 50.37 111.49 114.09 115.63-2.8.15-5.63.27-8.52.27z" fill="#d3a960"></path></g></g></svg>