<svg viewBox="0 0 90 76.5" xmlns="http://www.w3.org/2000/svg"><g><g><path d="m75.747 39.748-6.929-6.93a4.5 4.5 0 0 0-3.182-1.318H24.364a4.5 4.5 0 0 0-3.182 1.318l-7.091 7.091a4.5 4.5 0 0 1-1.354.93L2.672 45.312A4.5 4.5 0 0 0 0 49.424v10.333a4.5 4.5 0 0 0 3.077 4.269l9.415 3.138a4.5 4.5 0 0 1 1.76 1.087l6.93 6.931a4.5 4.5 0 0 0 3.182 1.318h32.272a4.5 4.5 0 0 0 3.182-1.318l6.364-6.364a4.5 4.5 0 0 1 3.182-1.318H83.25a4.5 4.5 0 0 0 3.6-1.8l2.25-3A4.5 4.5 0 0 0 90 60V48.242a4.5 4.5 0 0 0-3.078-4.269l-9.415-3.137a4.5 4.5 0 0 1-1.76-1.088z" fill="#59c36a"></path><path d="M24.364 31.5h41.272a4.5 4.5 0 0 1 3.182 1.318l6.929 6.93a4.5 4.5 0 0 0 1.76 1.088l9.416 3.137A4.5 4.5 0 0 1 90 48.243v1.935a4.5 4.5 0 0 1-.715 2.434l-2.457 3.82a4.5 4.5 0 0 1-3.784 2.067h-13.68a4.5 4.5 0 0 0-3.182 1.319l-6.364 6.364a4.5 4.5 0 0 1-3.182 1.318H24.364a4.5 4.5 0 0 1-3.182-1.318l-6.93-6.93a4.5 4.5 0 0 0-1.76-1.088l-9.415-3.138A4.5 4.5 0 0 1 0 50.756v-1.332a4.5 4.5 0 0 1 2.672-4.112l10.064-4.473a4.5 4.5 0 0 0 1.355-.93l7.091-7.091a4.5 4.5 0 0 1 3.182-1.318z" fill="#92d73a"></path><path d="M63 4.5C54 4.5 45.816 0 40.5 0c-5.143 0-9 4.5-9 4.5v17.998S35.359 18 40.502 18s13.5 4.5 22.5 4.5a11.953 11.953 0 0 0 8.461-3.88 1.984 1.984 0 0 0 .539-1.366V1.626a.68.68 0 0 0-1.129-.514C69.366 2.444 66.476 4.5 63 4.5z" fill="#6aa8ff"></path><path d="M33.75.15A2.25 2.25 0 0 1 36 2.4v37.25a1 1 0 0 1-1 1h-2.5a1 1 0 0 1-1-1V2.4A2.25 2.25 0 0 1 33.75.15z" fill="#bc572a"></path></g></g></svg>