<svg viewBox="0 0 512 512" xmlns="http://www.w3.org/2000/svg"><g><path d="M317.79 0c-13.837 0-25.483 9.386-28.917 22.139l-.314 1.25-.314-1.25C284.811 9.386 273.166 0 259.328 0c-18.475 0-32.867 18.524-30.528 36.169.779 5.876 2.937 11.486 5.871 16.614 12.038 21.032 53.888 48 53.888 48 18.711-14.326 41.85-26.968 53.888-48 2.934-5.128 5.092-10.738 5.871-16.614C350.657 18.524 336.265 0 317.79 0z" fill="#fe76a8"></path><path d="M348.316 36.17c-.773 5.875-2.937 11.482-5.865 16.614-12.038 21.036-35.176 33.672-53.893 47.998 0 0-6.452-4.154-15.017-10.482 17.284-12.471 36.661-24.53 47.328-43.164 2.937-5.122 5.092-10.729 5.875-16.614 1.525-11.481-4.04-23.334-13.203-30.209a28.812 28.812 0 0 1 4.246-.309c18.48 0 32.868 18.521 30.529 36.166z" fill="#fe5694"></path><path d="m226.95 399.607-50.828-33.659c-6.892-4.564-6.05-10.179-10.953-16.556a73.857 73.857 0 0 1-15.31-45.025v-15.79H99.463v15.79a73.851 73.851 0 0 1-15.312 45.028c-4.902 6.375-2.737 11.989-9.627 16.552l-51.011 33.781a33.703 33.703 0 0 0-15.094 28.1v84.166h233.809v-83.947a34.115 34.115 0 0 0-15.278-28.44z" fill="#fed2a4"></path><path d="M249.042 428.047v83.947h-20.077V438.91c0-11.44-2.865-22.19-15.274-28.446l-50.832-33.661c-20.654-13.677-34.816-46.091-33.084-72.435v-15.79h20.088v15.79a73.87 73.87 0 0 0 33.074 61.582l50.832 33.661a34.096 34.096 0 0 1 15.273 28.436z" fill="#ffbd86"></path><path d="M494.313 146.583c-21.737-26.587-54.793-43.558-91.813-43.558-35.422 0-67.215 15.538-88.936 40.169-12.565 14.249-19.342 32.689-19.342 51.688V336.938c0 45.311 36.732 82.043 82.044 82.043h53.409c45.311 0 82.044-36.732 82.044-82.043v-140.98c-.001-17.962-6.037-35.469-17.406-49.375z" fill="#5a5a5a"></path><path d="M511.716 195.953v140.982c0 45.318-36.733 82.051-82.04 82.051H408.99c45.318 0 82.051-36.733 82.051-82.051V195.953a79.298 79.298 0 0 0-4.442-26.199c-2.927-8.369-7.277-16.223-12.966-23.169-19.696-24.097-48.678-40.289-81.484-43.113 3.411-.289 6.864-.443 10.348-.443 37.021 0 70.074 16.965 91.811 43.556 5.689 6.947 10.039 14.8 12.966 23.169 2.937 8.358 4.442 17.222 4.442 26.199z" fill="#444444"></path><path d="m476.79 402.4-15.445-10.011c-9.884-6.546-15.189-16.249-21.647-25.784a89.421 89.421 0 0 1-15.389-50.16v-.191h-43.828v.191a89.412 89.412 0 0 1-14.867 49.38c-6.528 9.861-6.524 15.836-16.677 22.56L327.773 402.4c-4.288 2.839-9.596 4.01-13.114 7.613a71.817 71.817 0 0 0-20.435 50.175v51.811h216.344v-51.811a71.82 71.82 0 0 0-20.436-50.177c-3.519-3.602-9.056-4.773-13.342-7.611z" fill="#fed2a4"></path><path d="M510.562 460.183v51.811h-20.441v-51.811c0-24.087-15.344-41.948-35.431-55.254l-14.038-9.286c-25.014-16.573-37.681-47.668-40.051-79.196v-.196h23.705v.196a89.438 89.438 0 0 0 40.062 74.568l14.038 9.297a71.806 71.806 0 0 1 32.156 59.871z" fill="#ffbd86"></path><path d="m475.824 182.881 8.822 30.571v42.232c0 2.783-.14 5.537-.412 8.246-1.929 19.261-10.551 36.549-23.509 49.507-14.777 14.777-35.194 23.921-57.753 23.921-42.328 0-77.132-32.197-81.262-73.428a82.569 82.569 0 0 1-.412-8.246v-42.232l7.829-30.571z" fill="#fed2a4"></path><path d="M484.641 213.454v42.226c0 2.783-.134 5.545-.412 8.245-1.927 19.263-10.544 36.558-23.509 49.513-14.769 14.78-35.187 23.922-57.748 23.922-3.494 0-6.936-.216-10.307-.649 18.439-2.319 34.96-10.781 47.441-23.272 12.966-12.955 21.582-30.25 23.509-49.513.278-2.7.412-5.462.412-8.245v-42.226l-8.812-30.569h20.613z" fill="#ffbd86"></path><path d="M369.587 265.971a7.499 7.499 0 0 1-7.5-7.5v-12.837c0-4.143 3.357-7.5 7.5-7.5s7.5 3.357 7.5 7.5v12.837a7.5 7.5 0 0 1-7.5 7.5zM436.354 265.971a7.499 7.499 0 0 1-7.5-7.5v-12.837c0-4.143 3.357-7.5 7.5-7.5s7.5 3.357 7.5 7.5v12.837a7.5 7.5 0 0 1-7.5 7.5z" fill="#444444"></path><path d="M410.811 180.64H321.296v35.657c29.7-.889 59.223-7.098 75.219-23.162 2.586-2.598 4.708-5.005 6.456-7.197 1.748 2.192 3.869 4.6 6.455 7.197 15.996 16.064 45.523 22.273 75.222 23.162V180.64z" fill="#5a5a5a"></path><path d="m490.121 410.017-13.631 27.021a92.203 92.203 0 0 0-9.882 41.528v33.431H338.187v-33.422a92.194 92.194 0 0 0-9.889-41.542l-13.634-27.015a71.08 71.08 0 0 1 11.721-9.706l14.041-9.289a89.453 89.453 0 0 0 25.182-25.202l.01.01s8.557 28.916 36.78 28.916c28.224 0 36.781-28.916 36.781-28.916a89.456 89.456 0 0 0 25.192 25.192l14.031 9.289a71.1 71.1 0 0 1 11.719 9.705z" fill="#fe76a8"></path><path d="m490.124 410.021-9.698 19.212c-6.369-9.451-15.429-17.48-25.736-24.303l-14.038-9.286a73.94 73.94 0 0 1-13.1-11.09c8.441-8.214 11.543-18.459 11.626-18.717.175.258.35.515.526.763.299.453.608.897.917 1.34 1.121 1.607 2.39 3.26 3.649 4.825 3.364 4.18 7.116 8.019 11.192 11.522a87.63 87.63 0 0 0 8.905 6.74l14.038 9.286a70.582 70.582 0 0 1 10.379 8.369c.454.442.897.885 1.34 1.339z" fill="#fe5694"></path><path d="M249.042 428.051v83.947H.282v-84.174a33.71 33.71 0 0 1 15.089-28.096l51.018-33.785a73.714 73.714 0 0 0 17.758-16.552c25.632 12.059 55.408 12.059 81.03-.01a73.37 73.37 0 0 0 17.758 16.563l50.832 33.661a34.1 34.1 0 0 1 15.275 28.446z" fill="#a6e7f0"></path><path d="M249.042 428.047v83.947h-20.077V438.91c0-11.44-2.865-22.19-15.274-28.446l-50.832-33.661c-7.276-4.813-13.739-11.956-18.995-20.335a94.072 94.072 0 0 0 21.304-7.091 51.635 51.635 0 0 0 1.896 2.36c1.643 1.926 3.338 3.801 5.154 5.566a72.378 72.378 0 0 0 10.718 8.647l50.832 33.661a33.9 33.9 0 0 1 4.947 3.989 34.078 34.078 0 0 1 10.327 24.447z" fill="#6bd9e7"></path><path d="M63.126 431.018V512H47.904v-80.982a7.614 7.614 0 0 1 7.611-7.611 7.607 7.607 0 0 1 7.611 7.611zM201.414 431.018V512h-15.222v-80.982c0-4.201 3.41-7.611 7.611-7.611s7.611 3.41 7.611 7.611z" fill="#2ed1e2"></path><g fill="#f6a96c"><path d="M209.175 243.02h14.061c14.093 0 25.517-11.425 25.517-25.517 0-14.093-11.425-25.517-25.517-25.517h-14.061zM41.472 243.02H27.411c-14.093 0-25.517-11.425-25.517-25.517 0-14.093 11.425-25.517 25.517-25.517h14.061z" fill="#f6a96c"></path></g><path d="m218.924 135.217.314 35.152v48.561c0 3.2-.161 6.367-.474 9.482-2.218 22.147-12.132 42.026-27.032 56.926-16.992 16.992-40.468 27.506-66.408 27.506-48.672 0-88.691-37.022-93.44-84.433a94.877 94.877 0 0 1-.474-9.482v-83.713l71.063-21.161z" fill="#fed2a4"></path><path d="M218.762 228.408c-2.216 22.149-12.131 42.03-27.034 56.934-16.985 16.985-40.464 27.498-66.405 27.498-3.535 0-7.019-.196-10.451-.587 21.747-2.401 41.257-12.244 55.934-26.911 14.903-14.903 24.818-34.785 27.034-56.934.309-3.113.247-96.975.247-96.975l20.84 3.783s.154 90.08-.165 93.192z" fill="#ffbd86"></path><path d="M86.937 219.116a7.499 7.499 0 0 1-7.5-7.5v-14.761c0-4.143 3.357-7.5 7.5-7.5s7.5 3.357 7.5 7.5v14.761c0 4.143-3.357 7.5-7.5 7.5zM163.71 219.116a7.499 7.499 0 0 1-7.5-7.5v-14.761c0-4.143 3.357-7.5 7.5-7.5s7.5 3.357 7.5 7.5v14.761a7.5 7.5 0 0 1-7.5 7.5z" fill="#444444"></path><path d="M31.409 151.631s41.537 1.327 67.974-23.035c-.708.902 22.832 11.726 25.004 12.756 14.648 6.944 30.629 9.346 46.679 10.471 24.504 1.717 47.686-2.277 65.695-20.155l6.919-7.521c4.301-4.675 3.157-12.136-2.355-15.293-9.488-5.434-23.258-13.748-33.22-21.573-22.216-17.449-43.785-30.354-71.403-24.819-9.97 1.998-18.753 6.944-25.891 14.162-4.254 4.302-11.107 4.604-15.709.676-2.631-2.245-4.947-4.225-5.4-4.648-6.226-5.82-15.249-9.726-23.988-9.813-7.745-.077-15.472 2.472-21.517 7.344-8.03 6.473-12.79 16.406-12.79 26.722v38.312z" fill="#5a5a5a"></path><path d="m243.683 124.147-6.926 7.524c-13.615 13.512-30.178 19.088-48.039 20.263 9.451-3.195 18.243-8.338 26.055-16.089l6.926-7.524c4.298-4.669 3.154-12.131-2.36-15.295-9.482-5.432-23.252-13.749-33.218-21.572-18.706-14.697-36.959-26.168-58.758-26.117a48.65 48.65 0 0 1 9.338-2.876c27.622-5.535 49.193 7.369 71.404 24.818 9.966 7.823 23.736 16.14 33.218 21.572 5.514 3.155 6.658 10.617 2.36 15.296z" fill="#444444"></path></g></svg>