<svg viewBox="0 0 64 64" xmlns="http://www.w3.org/2000/svg"><g><path d="M4 63a4 4 0 0 1 4-4 3.959 3.959 0 0 1 1.089.169A4 4 0 0 1 13 56a3.957 3.957 0 0 1 1.74.414A4.988 4.988 0 0 1 24 59c0 .05-.013.1-.015.146A3.956 3.956 0 0 1 25 59a4 4 0 0 1 4 4zM60 63a4 4 0 0 0-4-4 3.959 3.959 0 0 0-1.089.169A4 4 0 0 0 51 56a3.957 3.957 0 0 0-1.74.414A4.988 4.988 0 0 0 40 59c0 .05.013.1.015.146A3.956 3.956 0 0 0 39 59a4 4 0 0 0-4 4z" fill="#c1e782"></path><path d="M19 56a4.982 4.982 0 0 0-4.26 2.414A3.957 3.957 0 0 0 13 58a4 4 0 0 0-3.911 3.169A3.888 3.888 0 0 0 4.555 63h23.89a3.895 3.895 0 0 0-4.46-1.854c0-.05.015-.1.015-.146a5 5 0 0 0-5-5zM35.555 63h23.89a3.888 3.888 0 0 0-4.534-1.831A4 4 0 0 0 51 58a3.957 3.957 0 0 0-1.74.414A4.988 4.988 0 0 0 40 61c0 .05.013.1.015.146A3.895 3.895 0 0 0 35.555 63z" fill="#a8de50"></path><path d="M23 57h18a3 3 0 0 1 3 3v3H20v-3a3 3 0 0 1 3-3z" fill="#8a8784"></path><path d="M44 63v-3a2.983 2.983 0 0 0-.14-.86A2.983 2.983 0 0 0 43 59H24a2 2 0 0 0-2 2v2z" fill="#76736f"></path><path d="M29 52h6a3 3 0 0 1 3 3v2H26v-2a3 3 0 0 1 3-3z" fill="#8a8784"></path><path d="M38 57v-2a2.983 2.983 0 0 0-.14-.86A2.983 2.983 0 0 0 37 54h-7a2 2 0 0 0-2 2v1z" fill="#76736f"></path><path d="M62 64H2a1 1 0 0 1 0-2h60a1 1 0 0 1 0 2zM29 19h6v33h-6z" fill="#d0d5de"></path><path d="M29 34.729a16.741 16.741 0 0 0 6 0V19h-6z" fill="#bac2ce"></path><circle cx="32" cy="17" fill="#ff826d" r="16"></circle><path d="M48 17a15.979 15.979 0 0 0-7.934-13.8 15.991 15.991 0 0 0-14.132 28.6A15.993 15.993 0 0 0 48 17z" fill="#ff5555"></path><circle cx="32" cy="17" fill="#e1fcfc" r="12"></circle><path d="M34 7a11.985 11.985 0 0 0-9.417 19.414A11.985 11.985 0 0 0 41.417 9.583 11.932 11.932 0 0 0 34 7z" fill="#f5ffff"></path><path d="m32 9-5 7h3v9h4v-9h3z" fill="#76736f"></path></g></svg>