<svg viewBox="0 0 512.715 512.715" xmlns="http://www.w3.org/2000/svg"><g><path d="M244.999 11.359C109.69 11.359 0 121.049 0 256.358c0 38.464 8.874 74.852 24.67 107.245l.006-.002 328.182 112.781c81.224-39.893 137.14-123.422 137.14-220.023 0-135.31-109.69-245-244.999-245z" fill="#42c3fc"></path><path d="m380.446 351.214 24.351 24.351a24.124 24.124 0 0 1 6.474-11.699 24.12 24.12 0 0 1 11.699-6.474l-24.351-24.351a118.494 118.494 0 0 1-8.59 9.583 118.325 118.325 0 0 1-9.583 8.59zM352.858 367.725c-14.199 6.072-29.821 9.438-46.215 9.438-65.025 0-117.926-52.901-117.926-117.926s52.901-117.926 117.926-117.926c16.394 0 32.016 3.367 46.215 9.438V140.48l-137.95-93.335h-106.24a42.23 42.23 0 0 0-29.862 12.369l-41.76 41.76a42.232 42.232 0 0 0-12.369 29.861V363.6C64.447 445.159 148.155 501.356 245 501.356c38.708 0 75.312-8.99 107.859-24.975V367.725z" fill="#e9efff"></path><path d="M115.957 83.811c0-16.952 11.036-31.441 26.275-36.665h-33.565a42.23 42.23 0 0 0-29.862 12.369l-41.76 41.76a42.23 42.23 0 0 0-12.369 29.861V363.6c20.323 41.677 52.122 76.725 91.281 101.042z" fill="#d3dcfb"></path><path d="M37.045 101.275a42.234 42.234 0 0 0-12.369 29.862v5.315c0-19.011 18.715-22.334 28.063-22.808h22.063c9.042 0 16.372-7.33 16.372-16.372V77.095c0-20.176 17.493-29.949 17.493-29.949a42.23 42.23 0 0 0-29.862 12.369z" fill="#bec8f7"></path><path d="M352.858 62.111c0-8.265-6.7-14.965-14.966-14.965H212.549l140.309 94.932z" fill="#746bf9"></path><path d="M199.713 162.375H177.82a7.139 7.139 0 1 1 0-14.278h21.893a7.139 7.139 0 1 1 0 14.278zM223.079 133.811h-68.623a7.139 7.139 0 1 1 0-14.278h68.623a7.139 7.139 0 1 1 0 14.278z" fill="#bec8f7"></path><circle cx="306.643" cy="259.238" fill="#8f8ff9" r="119.354" transform="rotate(-45 306.619 259.313)"></circle><path d="M377.686 353.952c-8.893-1.745-9.897-8.629-9.701-12.601.077-1.56-.849-2.992-2.319-3.519-4.623-1.659-5.52-5.392-5.551-7.923-.019-1.552-1.121-2.871-2.61-3.307-24.804-7.261-22.366-26.636-20.247-34.457.478-1.765-.453-3.632-2.184-4.221-10.318-3.509-10.468-11.77-9.656-16.347.309-1.74-.702-3.408-2.374-3.981-8.452-2.9-8.058-10.565-7.512-13.683a3.5 3.5 0 0 0-.548-2.589l-12.613-18.369c-.563-.82-1.425-1.419-2.41-1.556-3.935-.551-4.673-3.458-4.653-5.634a3.542 3.542 0 0 0-2.318-3.364c-23.747-8.841-20.806-32.211-18.889-40.602.374-1.639-.498-3.255-2.025-3.958-4.582-2.109-4.916-6.3-4.532-9.124a3.21 3.21 0 0 0-2.263-3.506c-8.106-2.411-8.016-8.66-7.106-12.458a3.515 3.515 0 0 0-.317-2.473c-41.594 18.652-70.568 60.419-70.568 108.956 0 65.917 53.437 119.354 119.354 119.354 27.087 0 52.063-9.029 72.093-24.234a3.351 3.351 0 0 0-1.051-.404z" fill="#746bf9"></path><circle cx="306.643" cy="259.238" fill="#e9efff" r="93.653" transform="rotate(-87.54 306.542 259.266)"></circle><path d="M306.643 352.891c20.548 0 39.568-6.657 55.027-17.921-1.209-1.657-1.536-3.568-1.555-5.062-.019-1.552-1.121-2.871-2.61-3.307-24.804-7.261-22.366-26.636-20.247-34.457.478-1.765-.453-3.632-2.184-4.221-10.318-3.509-10.468-11.77-9.656-16.347.309-1.74-.702-3.408-2.374-3.981-8.452-2.9-8.058-10.565-7.512-13.683a3.5 3.5 0 0 0-.548-2.589l-12.613-18.369c-.563-.82-1.425-1.419-2.41-1.556-3.935-.551-4.673-3.458-4.653-5.634a3.542 3.542 0 0 0-2.318-3.364c-23.747-8.841-20.806-32.211-18.889-40.602.374-1.639-.498-3.255-2.025-3.958-2.131-.981-3.336-2.414-3.984-3.949-32.465 14.723-55.102 47.44-55.102 85.346 0 51.641 42.013 93.654 93.653 93.654z" fill="#bec8f7"></path><path d="M306.643 360.03c-55.577 0-100.792-45.215-100.792-100.792s45.215-100.792 100.792-100.792 100.792 45.215 100.792 100.792S362.22 360.03 306.643 360.03zm0-187.306c-47.704 0-86.514 38.81-86.514 86.514s38.81 86.514 86.514 86.514 86.514-38.81 86.514-86.514-38.81-86.514-86.514-86.514z" fill="#746bf9"></path><path d="M306.643 360.03c22.871 0 43.983-7.662 60.916-20.547a3.477 3.477 0 0 0-1.893-1.651c-4.623-1.659-5.52-5.392-5.551-7.923a3.372 3.372 0 0 0-.782-2.102c-14.601 11.246-32.876 17.945-52.69 17.945-47.704 0-86.514-38.81-86.514-86.514 0-36.034 22.146-66.987 53.54-79.979a3.668 3.668 0 0 0-1.593-1.418c-4.582-2.109-4.916-6.3-4.532-9.124a3.2 3.2 0 0 0-.484-2.169c-35.957 15.414-61.209 51.156-61.209 92.689 0 55.578 45.215 100.793 100.792 100.793z" fill="#5858f4"></path><path d="M306.643 222.468c-24.21 0-45.711 11.769-59.116 29.877-3.019 4.079-3.019 9.706 0 13.784 13.405 18.109 34.906 29.878 59.116 29.878s45.711-11.769 59.116-29.878c3.019-4.078 3.019-9.706 0-13.784-13.405-18.108-34.906-29.877-59.116-29.877z" fill="#42c3fc"></path><path d="M247.527 252.346c-3.019 4.079-3.019 9.706 0 13.784 13.405 18.109 34.906 29.878 59.116 29.878a73.03 73.03 0 0 0 30.273-6.536 3.352 3.352 0 0 0-1.843-1.547c-10.318-3.509-10.468-11.77-9.656-16.347.309-1.74-.702-3.408-2.374-3.981-8.452-2.9-8.058-10.565-7.512-13.683a3.5 3.5 0 0 0-.548-2.589l-12.613-18.369c-.563-.82-1.425-1.419-2.41-1.556-3.935-.551-4.673-3.458-4.653-5.634a3.532 3.532 0 0 0-.815-2.284c-19.171 3.204-35.852 13.85-46.965 28.864z" fill="#1aa9e8"></path><path d="M279.072 227.839a31.513 31.513 0 0 0-4.149 15.654c0 17.49 14.229 31.72 31.72 31.72 17.49 0 31.72-14.23 31.72-31.72a31.513 31.513 0 0 0-4.149-15.654c-8.517-3.461-17.824-5.371-27.571-5.371s-19.054 1.91-27.571 5.371z" fill="#8ae1ff"></path><path d="M274.923 243.494c0 17.49 14.229 31.719 31.719 31.719a31.533 31.533 0 0 0 18.406-5.911 3.59 3.59 0 0 0-2.004-1.706c-8.452-2.9-8.058-10.565-7.512-13.683a3.5 3.5 0 0 0-.548-2.589l-12.613-18.369c-.563-.82-1.425-1.419-2.41-1.556-3.935-.551-4.673-3.458-4.653-5.634a3.532 3.532 0 0 0-.805-2.272 72.898 72.898 0 0 0-15.43 4.347 31.501 31.501 0 0 0-4.15 15.654z" fill="#42c3fc"></path><circle cx="306.643" cy="243.373" fill="#e9efff" r="13.002" transform="rotate(-22.48 306.53 243.053)"></circle><path d="M290.861 411.895H86.673a7.14 7.14 0 0 1 0-14.278h204.188a7.139 7.139 0 1 1 0 14.278zM162.413 234.312h-75.74a7.139 7.139 0 1 1 0-14.278h75.74a7.139 7.139 0 1 1 0 14.278zM175.196 204.715H86.673a7.139 7.139 0 1 1 0-14.278h88.523a7.139 7.139 0 1 1 0 14.278zM172.371 323.104H86.673a7.139 7.139 0 1 1 0-14.278h85.698a7.139 7.139 0 1 1 0 14.278zM161.15 293.506H86.673a7.139 7.139 0 1 1 0-14.278h74.477a7.139 7.139 0 1 1 0 14.278zM158.052 263.909H86.673a7.139 7.139 0 1 1 0-14.278h71.379a7.139 7.139 0 1 1 0 14.278zM219.965 382.298H86.673a7.14 7.14 0 0 1 0-14.278h133.292a7.14 7.14 0 0 1 0 14.278zM191.177 352.701H86.673a7.139 7.139 0 1 1 0-14.278h104.504a7.139 7.139 0 1 1 0 14.278zM290.861 441.493H86.673a7.139 7.139 0 1 1 0-14.278h204.188a7.139 7.139 0 1 1 0 14.278z" fill="#bec8f7"></path><path d="m456.715 445.656 12.126 12.127c10.037 10.037 26.309 10.037 36.346 0s10.037-26.309 0-36.346l-12.127-12.126z" fill="#ff7186"></path><path d="M487.486 440.116 474.871 427.5l-18.156 18.156 12.127 12.126c10.037 10.037 26.309 10.037 36.346 0a25.586 25.586 0 0 0 6.466-10.847c-8.4 2.007-17.613-.264-24.168-6.819z" fill="#ff4155"></path><path d="m458.734 374.983-12.127-12.126c-10.037-10.037-26.309-10.037-36.346 0s-10.037 26.309 0 36.346l12.126 12.127z" fill="#ff7186"></path><path d="M428.906 381.536c-6.903-6.903-9.058-16.754-6.466-25.499a25.569 25.569 0 0 0-12.178 6.82c-10.036 10.037-10.037 26.309 0 36.346l12.127 12.126 18.156-18.155z" fill="#ff4155"></path><path d="m421.292 410.325 36.34-36.34 36.34 36.34-36.34 36.34z" fill="#ff4155"></path><path d="m421.29 410.326 18.153-18.153 36.34 36.34-18.153 18.153z" fill="#e80054"></path><path d="M74.802 113.644c9.042 0 16.372-7.33 16.372-16.372-31.033 5.664-28.881-21.245-28.881-21.245l-25.248 25.248a42.236 42.236 0 0 0-12.369 29.862v5.315c0-19.011 18.715-22.334 28.063-22.808z" fill="#a2b6f4"></path><path d="M388.599 214.14c-18.618 0-33.851-15.233-33.851-33.851s15.233-33.851 33.851-33.851 33.851 15.233 33.851 33.851-15.233 33.851-33.851 33.851z" fill="#89e56a"></path><path d="m398.898 189.68-29.872-17.482c-10.067 0-9.478-9.173-9.474-9.227a33.564 33.564 0 0 0-4.803 17.318c0 18.618 15.233 33.851 33.851 33.851 9.776 0 18.615-4.204 24.809-10.889-15.756 1.412-14.511-13.571-14.511-13.571z" fill="#65d33c"></path><path d="m382.607 195.875-13.581-13.581a7.139 7.139 0 1 1 10.096-10.096l8.533 8.533 13.566-13.566a7.139 7.139 0 1 1 10.096 10.096l-18.614 18.615a7.14 7.14 0 0 1-10.096-.001z" fill="#e9efff"></path></g></svg>