<svg viewBox="0 0 60 60" xmlns="http://www.w3.org/2000/svg"><g><path d="M17.79 52.26C7.59 52.89 4 45 4 45s7 1 5-16C6.2 5.16 21 1 30 1s23.8 4.16 21 28c-2 17 5 16 5 16s-3.59 7.89-13.79 7.26z" fill="#a56a43"></path><path d="M45 26a3 3 0 0 1 0 6H15a3 3 0 0 1 0-6z" fill="#f9c795"></path><path d="M27 41.85V45a3.7 3.7 0 0 1-2 3c-2.836.945-9.247 3.678-9.939 9.888a1.007 1.007 0 0 0 1 1.112h27.878a1.007 1.007 0 0 0 1-1.112c-.692-6.21-7.1-8.943-9.939-9.888a3.7 3.7 0 0 1-2-3v-3.15z" fill="#9fc9d3"></path><path d="M42.9 18.6c-6.108-3.023-7.9-7.491-7.9-7.491-4.62 6.161-13.392 7.577-17.181 7.9A1.992 1.992 0 0 0 16 21v8a13 13 0 0 0 13 13h2a13 13 0 0 0 13-13v-8.619a1.992 1.992 0 0 0-1.1-1.781z" fill="#fdd7ad"></path><path d="M25 29a1 1 0 0 1-1-1 1 1 0 0 0-2 0 1 1 0 0 1-1 1c-1.909 0-.975-4 2-4s3.919 4 2 4zM39 29a1 1 0 0 1-1-1 1 1 0 0 0-2 0 1 1 0 0 1-1 1c-1.909 0-.975-4 2-4s3.919 4 2 4z" fill="#3f5c6c"></path><path d="M20 24a1 1 0 0 1-.316-1.949l3-1a1 1 0 1 1 .632 1.9C20.1 24.022 20.228 24 20 24zM40 24c-.233 0-.077.029-3.316-1.051a1 1 0 1 1 .632-1.9l3 1A1 1 0 0 1 40 24z" fill="#a56a43"></path><path d="M31 34h-2a1 1 0 0 1 0-2h2a1 1 0 0 1 0 2z" fill="#f9c795"></path><path d="M35 38a1 1 0 0 1-.7-.291A2.489 2.489 0 0 0 33 37c-.622 0-1.743 1-3 1a4.385 4.385 0 0 1-1.947-.6A3.034 3.034 0 0 0 27 37a2.486 2.486 0 0 0-1.3.71 1 1 0 0 1-1.411-1.417A4.4 4.4 0 0 1 27 35a4.385 4.385 0 0 1 1.947.6A3.034 3.034 0 0 0 30 36c.622 0 1.743-1 3-1a4.4 4.4 0 0 1 2.707 1.293A1 1 0 0 1 35 38z" fill="#f09372"></path><g fill="#4482c3"><path d="M56.929 40.626a1 1 0 0 1-.753-1.658 3.017 3.017 0 0 0 .028-3.917l-.493-.58a5.032 5.032 0 0 1 .046-6.53l.5-.572a3.018 3.018 0 0 0 .028-3.918l-.493-.58a5.031 5.031 0 0 1 .046-6.529 1 1 0 0 1 1.506 1.316 3.019 3.019 0 0 0-.028 3.918l.493.58a5.031 5.031 0 0 1-.046 6.529l-.5.573a3.018 3.018 0 0 0-.028 3.918l.493.58a5.031 5.031 0 0 1-.046 6.529 1 1 0 0 1-.753.341zM3.581 40.62a1 1 0 0 1-.761-1.648 3.019 3.019 0 0 0-.02-3.918l-.5-.574a5.032 5.032 0 0 1-.037-6.529l.494-.579a3.018 3.018 0 0 0-.023-3.918l-.5-.573a5.031 5.031 0 0 1-.038-6.529 1 1 0 0 1 1.523 1.3 3.019 3.019 0 0 0 .022 3.918l.5.574a5.03 5.03 0 0 1 .037 6.529l-.493.58a3.017 3.017 0 0 0 .022 3.917l.5.574a5.03 5.03 0 0 1 .037 6.529 1 1 0 0 1-.763.347zM48.405 57.976a1 1 0 0 1 .168-1.993A4.647 4.647 0 0 0 52.4 54.2l.383-.547a6.608 6.608 0 0 1 5.633-2.631l.669.058a1 1 0 0 1-.172 1.992l-.667-.057a4.625 4.625 0 0 0-3.825 1.785l-.383.547a6.622 6.622 0 0 1-5.633 2.629zM5.963 55.346l-.385-.546a4.645 4.645 0 0 0-3.827-1.786l-.665.057a1 1 0 1 1-.172-1.992l.667-.057a6.624 6.624 0 0 1 5.634 2.629l.385.549a4.647 4.647 0 0 0 3.827 1.786 1 1 0 0 1 .168 1.993 6.618 6.618 0 0 1-5.632-2.633zM5.5 11.61a1 1 0 0 1-1-1.071l.048-.668A6.619 6.619 0 0 1 8.035 4.72l.6-.295A4.631 4.631 0 0 0 11 .926a1 1 0 1 1 2 .148 6.623 6.623 0 0 1-3.48 5.149l-.6.294a4.634 4.634 0 0 0-2.364 3.5l-.047.665a1 1 0 0 1-1.009.928zM54.5 11.61a1 1 0 0 1-1-.929l-.048-.667a4.63 4.63 0 0 0-2.366-3.5l-.6-.292A6.622 6.622 0 0 1 47 1.074a1 1 0 1 1 2-.148 4.635 4.635 0 0 0 2.366 3.5l.6.291a6.623 6.623 0 0 1 3.483 5.151l.048.67a1 1 0 0 1-.997 1.072z" fill="#4482c3"></path></g><path d="M39.27 49.95C38.13 51.13 35.47 53 30 53s-8.13-1.87-9.27-3.05A21.449 21.449 0 0 1 25 48a3.7 3.7 0 0 0 2-3v-3.15h6V45a3.7 3.7 0 0 0 2 3 21.449 21.449 0 0 1 4.27 1.95z" fill="#f9c795"></path></g></svg>