<svg viewBox="0 0 512 512" xmlns="http://www.w3.org/2000/svg"><g><path d="M392 512c-8.285 0-15-6.715-15-15V225c0-8.285 6.715-15 15-15s15 6.715 15 15v272c0 8.285-6.715 15-15 15zm0 0" fill="#7b8396"></path><path d="M407 497V225c0-8.285-6.715-15-15-15v302c8.285 0 15-6.715 15-15zm0 0" fill="#69737d"></path><path d="M392 240c-66.168 0-120-53.832-120-120S325.832 0 392 0s120 53.832 120 120-53.832 120-120 120zm0 0" fill="#e6f0f5"></path><path d="M392 0c66.168 0 120 53.832 120 120s-53.832 120-120 120zm0 0" fill="#c8dce6"></path><path d="M392 210c-49.625 0-90-40.375-90-90s40.375-90 90-90 90 40.375 90 90-40.375 90-90 90zm0 0" fill="#536eeb"></path><path d="M392 30c49.625 0 90 40.375 90 90s-40.375 90-90 90zm0 0" fill="#325ad0"></path><path d="M345 352H80c-5.078 0-9.813-2.57-12.578-6.824a15.01 15.01 0 0 1-1.129-14.27l26.805-60.304C103.52 247.152 126.832 232 152.492 232h120.016c25.66 0 48.976 15.152 59.394 38.602l26.805 60.308a15.002 15.002 0 0 1-1.129 14.266A15.006 15.006 0 0 1 345 352zm0 0" fill="#ff3746"></path><path d="m358.707 330.906-26.805-60.304C321.48 247.152 298.168 232 272.508 232H215v120h130c5.078 0 9.812-2.57 12.578-6.824a15.01 15.01 0 0 0 1.129-14.27zm0 0" fill="#dc1e28"></path><path d="M425 472H15c-8.285 0-15-6.715-15-15v-70c0-35.84 29.16-65 65-65h280c52.383 0 95 42.617 95 95v40c0 8.285-6.715 15-15 15zm0 0" fill="#ff3746"></path><path d="M345 322H215v150h210c8.285 0 15-6.715 15-15v-40c0-52.383-42.617-95-95-95zm0 0" fill="#dc1e28"></path><path d="M419.16 402H385c-8.285 0-15-6.715-15-15s6.715-15 15-15h34.16c8.285 0 15 6.715 15 15s-6.715 15-15 15zm0 0" fill="#fac30f"></path><path d="M324 512c-30.328 0-55-24.672-55-55s24.672-55 55-55 55 24.672 55 55-24.672 55-55 55zm0 0" fill="#444d55"></path><path d="M109 512c-30.328 0-55-24.672-55-55s24.672-55 55-55 55 24.672 55 55-24.672 55-55 55zm0 0" fill="#545c64"></path><path d="M230 322h91.918l-17.43-39.215C298.878 270.16 286.324 262 272.508 262H230zm0 0" fill="#37c8d2"></path><path d="M200 262h-47.508c-13.816 0-26.37 8.16-31.98 20.785L103.082 322H200zm0 0" fill="#44e9ef"></path><path d="M402 60h-30c-8.285 0-15 6.715-15 15v90c0 8.285 6.715 15 15 15s15-6.715 15-15v-15h15c24.813 0 45-20.188 45-45s-20.188-45-45-45zm0 60h-15V90h15c8.27 0 15 6.73 15 15s-6.73 15-15 15zm0 0" fill="#e6f0f5"></path><path d="M447 105c0-24.813-20.188-45-45-45h-10v30h10c8.27 0 15 6.73 15 15s-6.73 15-15 15h-10v30h10c24.813 0 45-20.188 45-45zM324 482c-13.785 0-25-11.215-25-25s11.215-25 25-25 25 11.215 25 25-11.215 25-25 25zm0 0" fill="#c8dce6"></path><path d="M109 482c-13.785 0-25-11.215-25-25s11.215-25 25-25 25 11.215 25 25-11.215 25-25 25zm0 0" fill="#e6f0f5"></path></g></svg>