<svg viewBox="0 0 512 512" xmlns="http://www.w3.org/2000/svg"><g><g fill="#d4d4ff"><path d="M72.113 131.291a7.727 7.727 0 0 0-7.304 5.207L26.232 248.332l14.609 5.039 31.272-90.659 31.272 90.659 14.609-5.039-38.578-111.835a7.726 7.726 0 0 0-7.303-5.206zM447.191 136.497a7.726 7.726 0 0 0-14.608 0l-38.576 111.835 14.609 5.039 31.272-90.659 31.272 90.659 14.609-5.039z" fill="#d4d4ff"></path></g><path d="M121.046 243.548H23.179C10.378 243.548 0 253.925 0 266.727s10.378 23.179 23.179 23.179h97.867c12.801 0 23.179-10.378 23.179-23.179 0-12.802-10.377-23.179-23.179-23.179z" fill="#ffce71"></path><path d="M488.821 243.548h-97.867c-12.801 0-23.179 10.378-23.179 23.179 0 12.802 10.378 23.179 23.179 23.179h97.867c12.801 0 23.179-10.378 23.179-23.179 0-12.802-10.378-23.179-23.179-23.179z" fill="#fce3a0"></path><path d="M122.248 72.179c-11.983 0-25.863 6.743-30.048 21.181-2.78 9.592-12.36 16.324-23.154 14.608-9.21-1.464-16.116-8.782-17.119-18.053-.986-9.115 4.015-17.215 11.556-20.853 4.089-1.973 7.331-5.456 8.41-9.866 3.317-13.553-10.109-23.552-21.552-18.105-18.256 8.69-30.627 27.813-29.355 49.611 1.499 25.69 22.143 46.558 47.816 48.315 21.457 1.468 40.393-10.291 49.452-27.923 2.304-4.484 7.422-6.744 12.242-5.267L256 144.291V72.179z" fill="#ffce71"></path><path d="M389.752 72.179c11.983 0 25.863 6.743 30.048 21.181 2.78 9.592 12.36 16.324 23.154 14.608 9.21-1.464 16.116-8.782 17.119-18.053.986-9.114-4.015-17.214-11.557-20.853-4.089-1.973-7.331-5.456-8.41-9.866-3.317-13.553 10.109-23.552 21.552-18.105 18.256 8.69 30.626 27.813 29.355 49.611-1.499 25.69-22.143 46.558-47.816 48.315-21.457 1.468-40.393-10.291-49.452-27.923-2.304-4.484-7.422-6.744-12.242-5.267L256 144.291V72.179z" fill="#fce3a0"></path><path d="M300.54 9.602h-80.778v196.864h80.778c37.514-16.98 63.629-54.44 63.629-98.296S338.054 26.581 300.54 9.602z" fill="#ffce71"></path><path d="M235.654 85.467A113.256 113.256 0 0 1 300.54 9.602 107.72 107.72 0 0 0 256 0c-59.74 0-108.169 48.429-108.169 108.169S196.26 216.338 256 216.338c15.884 0 30.953-3.723 44.54-9.873L256 183.2a113.256 113.256 0 0 1-20.346-97.733z" fill="#ffb357"></path><g fill="#313d40"><path d="M320.333 101.535a7.725 7.725 0 0 0-7.726 7.726v12.362a7.726 7.726 0 1 0 15.452 0v-12.362a7.725 7.725 0 0 0-7.726-7.726zM199.243 89.245c-4.56 2.738-10.596 2.738-15.154 0a7.726 7.726 0 1 0-7.958 13.246 30.084 30.084 0 0 0 8.558 3.467 7.693 7.693 0 0 0-.749 3.303v12.362a7.725 7.725 0 0 0 7.726 7.726 7.725 7.725 0 0 0 7.726-7.726v-12.362a7.687 7.687 0 0 0-.749-3.303 30.095 30.095 0 0 0 8.557-3.467 7.726 7.726 0 0 0 2.644-10.602 7.724 7.724 0 0 0-10.601-2.644zM275.885 121.831c-11.122-4.548-24.9-5.127-36.846-5.127a7.725 7.725 0 0 0-7.726 7.726 7.725 7.725 0 0 0 7.726 7.726h.238c6.39 0 21.09.023 30.759 3.978a7.727 7.727 0 0 0 5.849-14.303z" fill="#313d40"></path></g><path d="M318.545 257.095c-5.998-10.212-12.283-30.482-16.466-50.629h-73.814v158.703H345.72c5.359-11.319 8.132-23.395 7.747-35.253-1.273-35.544-20.514-48.491-34.922-72.821z" fill="#ffce71"></path><path d="M266.407 306.528c-6.107-15.594-9.023-33.672-10.006-53.715a352.602 352.602 0 0 1-.401-17.26v-29.088h-46.125c-4.183 20.118-10.444 40.454-16.42 50.629-14.407 24.33-33.648 37.278-34.922 72.821a70.04 70.04 0 0 0 .664 11.996c3.252 23.136 17.717 45.855 39.251 60.972a100.308 100.308 0 0 0 21.512 11.486 99.36 99.36 0 0 0 30.905 6.545c1.697.084 3.408.128 5.134.127 41.49.033 75.161-25.124 89.72-55.874-44.127-7.939-67.594-28.715-79.312-58.639z" fill="#ffb357"></path><path d="M450.189 388.378H256l-103.018 61.811L256 512h194.189C484.326 512 512 484.326 512 450.189c0-34.138-27.674-61.811-61.811-61.811z" fill="#fce3a0"></path><path d="M256 388.378H61.811C27.674 388.378 0 416.051 0 450.189 0 484.326 27.674 512 61.811 512H256c-34.137-34.137-34.137-89.485 0-123.622z" fill="#ffce71"></path><path d="M334.466 183.2H256l-33.395 23.265L256 229.73h78.466c12.802 0 23.179-10.55 23.179-23.351S347.267 183.2 334.466 183.2z" fill="#fce3a0"></path><path d="M256 183.2h-78.294c-12.801 0-23.179 10.549-23.179 23.351 0 12.801 10.378 23.179 23.179 23.179H256c-12.801-12.801-12.801-33.728 0-46.53z" fill="#ffce71"></path><path d="M384.862 166.508c-8.651-9.438-23.312-10.074-32.75-1.425l-95.711 87.729-12.144 53.715h22.149l24.636-22.582v47.883c0 8.534 6.918 15.453 15.453 15.453s15.453-6.918 15.453-15.453v-76.212l61.488-56.361c9.437-8.648 10.076-23.31 1.426-32.747z" fill="#ff8e9e"></path><path d="M266.407 306.528c-6.107-15.594-9.023-33.672-10.006-53.715L138.383 360.99c-9.437 8.65-10.075 23.312-1.426 32.749 7.89 8.607 21.006 10.045 30.586 3.16v24.143c0 8.534 6.919 15.453 15.453 15.453s15.453-6.919 15.453-15.453v-52.223l31.093-28.5v118.223c0 8.534 6.919 15.453 15.453 15.453s15.453-6.919 15.453-15.453V311.99z" fill="#ea5b70"></path></g></svg>