<svg viewBox="0 0 64 64" xmlns="http://www.w3.org/2000/svg"><g><g><path d="M32 43c24 0 31-11 31-11a5.996 5.996 0 0 0-5.101-5.925 5.988 5.988 0 0 0-7.195-6.93 5.984 5.984 0 0 0-7-4 5.99 5.99 0 0 0-9.767-2.55 5.994 5.994 0 0 0-10.262.647 5.982 5.982 0 0 0-7.34 3.797 6 6 0 0 0-5 4 5.996 5.996 0 0 0-5.257 5.04A5.996 5.996 0 0 0 1 32s7 11 31 11z" fill="#f1f2f2"></path><g fill="#d1d3d4"><path d="M14 34a1 1 0 0 1-1-1 2 2 0 0 0-4 0 1 1 0 0 1-2 0 4 4 0 0 1 8 0 1 1 0 0 1-1 1zM55 33a1 1 0 0 1-1-1 2 2 0 0 0-4 0 1 1 0 0 1-2 0 4 4 0 0 1 8 0 1 1 0 0 1-1 1zM39 21a1 1 0 0 1-1-1 2 2 0 0 0-4 0 1 1 0 0 1-2 0 4 4 0 0 1 8 0 1 1 0 0 1-1 1zM44 38a1 1 0 0 1-1-1 2 2 0 0 0-4 0 1 1 0 0 1-2 0 4 4 0 0 1 8 0 1 1 0 0 1-1 1zM36 30a1 1 0 0 1-1-1 4.005 4.005 0 0 1 4-4 3.905 3.905 0 0 1 .528.036A3.992 3.992 0 0 1 47 27a1 1 0 0 1-2 0 1.993 1.993 0 0 0-3.919-.519 1 1 0 0 1-1.337.667A2.016 2.016 0 0 0 37 29a1 1 0 0 1-1 1zM27 27a1 1 0 0 1-1-1 2.016 2.016 0 0 0-2.744-1.852 1 1 0 0 1-1.337-.667A1.993 1.993 0 0 0 18 24a1 1 0 0 1-2 0 3.992 3.992 0 0 1 7.472-1.964A3.905 3.905 0 0 1 24 22a4.005 4.005 0 0 1 4 4 1 1 0 0 1-1 1zM19 37a1 1 0 0 1-1-1 4.005 4.005 0 0 1 4-4 3.905 3.905 0 0 1 .528.036A3.992 3.992 0 0 1 30 34a1 1 0 0 1-2 0 1.993 1.993 0 0 0-3.919-.519 1 1 0 0 1-1.337.667A2.016 2.016 0 0 0 20 36a1 1 0 0 1-1 1zM26 16h2v2h-2zM51 34h2v2h-2zM45 20h2v2h-2zM52 24h2v2h-2zM43 30h2v2h-2zM11 25h2v2h-2zM32 24h2v2h-2zM33 33h2v2h-2zM25 36h2v2h-2zM19 27h2v2h-2z" fill="#d1d3d4"></path></g><path d="M44 58v4a38.684 38.684 0 0 1-12 2 38.684 38.684 0 0 1-12-2v-4z" fill="#1d4ea1"></path><path d="M63 32s0 28-31 28S1 32 1 32s7 9 31 9 31-9 31-9z" fill="#2b7fc9"></path><path d="M61.165 41.423A31.6 31.6 0 0 0 63 32s-7 9-31 9-31-9-31-9a31.6 31.6 0 0 0 1.835 9.423C8.162 44.727 19.804 47 32 47s23.838-2.273 29.165-5.577z" fill="#ef4136"></path></g></g></svg>