<svg viewBox="0 0 512 512" xmlns="http://www.w3.org/2000/svg"><g><g clip-rule="evenodd" fill-rule="evenodd"><path d="M424.752 20a8 8 0 0 1 16 0v240a8 8 0 0 1-16 0z" fill="#9facba"></path><path d="m492.004 59.96-29.626 19.98-29.626 19.98V20l29.626 19.98z" fill="#fe646f"></path><path d="m496.337 66.676-59.117 39.868a7.991 7.991 0 0 1-12.461-6.625h-.008V20a8 8 0 0 1 12.785-6.412l58.936 39.746a7.991 7.991 0 0 1 2.156 11.094 7.94 7.94 0 0 1-2.291 2.248zm-38.428 6.639 19.803-13.355-36.96-24.926v49.852z" fill="#fe646f"></path><path d="M133.636 205.654c4.992 7.357 15.096 9.292 22.453 4.3l50.812-34.479c7.357-4.992 9.292-15.096 4.3-22.453-4.992-7.357-15.096-9.292-22.453-4.3l-50.812 34.479c-7.357 4.992-9.292 15.096-4.3 22.453z" fill="#60b7ff"></path><path d="M211.201 153.022a15.993 15.993 0 0 0-1.151-1.497c1.35 6.259-1.108 13.023-6.71 16.824l-50.812 34.479c-6.829 4.634-16.026 3.298-21.302-2.802a16.015 16.015 0 0 0 2.41 5.629c4.992 7.357 15.096 9.292 22.453 4.3l50.812-34.479c7.357-4.993 9.292-15.097 4.3-22.454z" fill="#41a8fc"></path><path d="m184.054 190.978 22.848-15.503c7.357-4.992 9.292-15.096 4.3-22.453s-15.096-9.292-22.453-4.3l-8.222 5.579c1.19 12.224 2.359 24.451 3.527 36.677z" fill="#41a8fc"></path><path d="M273.879 124.632c7.656-4.563 17.562-2.056 22.125 5.6s2.056 17.563-5.6 22.126l-33.099 19.782a16.094 16.094 0 0 1-12.688 1.656l-22.27-5.9 3.186 34.087 40.332 13.604c5.967 2.006 9.988 7.161 10.835 12.993l8.528 59.604c1.276 8.827-4.847 17.018-13.675 18.294-8.827 1.276-17.018-4.847-18.294-13.675l-7.121-49.794-17.154-5.786.399 4.075a16.066 16.066 0 0 1-2.103 9.697l-36.555 68.567c-4.197 7.856-13.969 10.823-21.826 6.626-7.856-4.196-10.823-13.969-6.626-21.826l34.513-64.736c-2.845-29.035-5.984-62.646-8.828-91.681a16.14 16.14 0 0 1 .469-5.744c2.292-8.611 11.131-13.733 19.742-11.441l38.427 10.18z" fill="#8ac9fe"></path><path d="M273.879 124.632a16.09 16.09 0 0 1 12.708-1.65 16.175 16.175 0 0 0-3.802 1.65l-30.018 17.941-6.171-1.635zm-20.377 49.158a16.13 16.13 0 0 1-8.886.006l-22.27-5.9-.226-2.419zm20.19 132.229c-.693.198-1.406.352-2.138.458-8.827 1.276-17.018-4.847-18.293-13.675l-7.121-49.794-17.154-5.786-.305-3.107 26.365 8.893 7.121 49.794c.937 6.488 5.61 11.514 11.525 13.217zm-92.744 21.443a16.076 16.076 0 0 1-12.047-1.276c-7.856-4.196-10.824-13.969-6.626-21.826l34.513-64.736c-2.845-29.035-5.984-62.646-8.828-91.681a16.14 16.14 0 0 1 .469-5.744c2.292-8.611 11.131-13.733 19.742-11.441l.306.081c-5.267 1.516-9.63 5.678-11.142 11.36a16.142 16.142 0 0 0-.469 5.744c2.844 29.035 5.984 62.646 8.829 91.681l-34.513 64.736c-4.197 7.857-1.23 17.629 6.626 21.826 1.019.544 2.072.968 3.14 1.276z" fill="#60b7ff"></path><path d="m225.533 201.983 40.332 13.604c5.967 2.006 9.988 7.161 10.835 12.993l8.528 59.604c1.276 8.827-4.847 17.018-13.674 18.294s-17.018-4.847-18.293-13.675l-7.121-49.794-17.154-5.786.399 4.075a16.06 16.06 0 0 1-2.103 9.697l-36.555 68.567c-4.197 7.856-13.969 10.823-21.826 6.626-7.856-4.196-10.824-13.969-6.626-21.826l34.513-64.736c-.916-9.354-1.864-19.184-2.822-29.182z" fill="#a79ba7"></path><path d="M273.692 306.019c-.693.198-1.406.352-2.138.458-8.827 1.276-17.018-4.847-18.293-13.675l-7.121-49.794-17.154-5.786-.305-3.107 26.365 8.893 7.121 49.794c.937 6.488 5.61 11.514 11.525 13.217zm-92.745 21.443a16.076 16.076 0 0 1-12.047-1.276c-7.856-4.196-10.824-13.969-6.626-21.826l34.513-64.736c-.916-9.354-1.864-19.184-2.822-29.182l8.684-2.327c1.034 10.799 2.057 21.43 3.045 31.509l-34.513 64.736c-4.197 7.857-1.23 17.629 6.626 21.826 1.02.544 2.073.968 3.14 1.276z" fill="#837683"></path><path d="M201.9 61.865c13.934-5.442 29.642 1.441 35.085 15.376 5.442 13.934-1.442 29.642-15.376 35.084-13.934 5.443-29.642-1.441-35.085-15.375-5.442-13.934 1.442-29.642 15.376-35.085z" fill="#f6dccd"></path><path d="M206.751 60.472c12.554-2.374 25.416 4.434 30.234 16.769 5.442 13.934-1.442 29.642-15.376 35.084a26.952 26.952 0 0 1-14.851 1.393 27.235 27.235 0 0 0 4.851-1.393c13.934-5.442 20.818-21.15 15.376-35.084-3.527-9.028-11.363-15.095-20.234-16.769z" fill="#f1cbbc"></path><path d="m52.881 214.758-23.473 40.657c-2.417 4.187-.97 9.592 3.218 12.009l79.533 45.918c4.188 2.418 9.592.969 12.009-3.218l23.473-40.656z" fill="#ecba78"></path><path d="m126.616 226.71 7.212 4.165 5.745-9.951c2.587-4.481 1.038-10.264-3.443-12.851l-24.324-14.043c-4.481-2.587-10.265-1.038-12.851 3.443l-5.746 9.951 7.213 4.163 5.745-9.951c.289-.5.975-.683 1.475-.395l24.323 14.043c.5.289.683.975.395 1.474z" fill="#837683"></path><path d="m126.616 226.71 7.212 4.165-4.191-2.42 5.745-9.951c.289-.5.105-1.186-.395-1.474l-3.021-1.744c.5.289.683.975.395 1.474zm-11.787-30.936-3.021-1.745c-4.481-2.587-10.265-1.037-12.851 3.444l-5.746 9.951 3.022 1.744 5.745-9.951c2.586-4.481 8.37-6.031 12.851-3.443z" fill="#685e68"></path><path d="m52.881 214.758-23.473 40.657c-2.417 4.187-.969 9.592 3.218 12.009l6.043 3.489c-4.188-2.418-5.635-7.822-3.218-12.009l23.473-40.657z" fill="#e3a76f"></path><path d="M140.575 276.232a27.402 27.402 0 0 0 3.351-.329c4.037-.667 7.556-2.379 9.683-6.064l10.716-18.56a4.513 4.513 0 0 0-1.649-6.153l-96.232-55.559a4.513 4.513 0 0 0-6.153 1.649l-10.716 18.56c-2.127 3.685-1.85 7.588-.41 11.417.387 1.03.859 2.054 1.39 3.067 10.054 19.165 68.553 52.842 90.02 51.972z" fill="#e3a76f"></path><path d="m87.397 201.663 54.326 31.365-7.324 12.685c-1.553 2.69-5.025 3.62-7.715 2.067L82.14 222.063c-2.69-1.553-3.62-5.025-2.067-7.715zM73.223 193.48l-6.779-3.914a4.514 4.514 0 0 0-6.153 1.649l-10.716 18.56c-2.127 3.685-1.85 7.588-.41 11.417.387 1.03.859 2.054 1.39 3.067.663 1.264 1.543 2.594 2.604 3.971z" fill="#c48958"></path><path d="M80.944 253.429c-3.057 5.295-1.243 12.066 4.052 15.123s12.066 1.243 15.123-4.052c3.047-5.278 1.26-12.056-4.052-15.123-5.312-3.066-12.076-1.226-15.123 4.052z" fill="#837683"></path><path d="M80.944 253.429c-3.057 5.295-1.243 12.066 4.052 15.123a11.1 11.1 0 0 0 1.579.753c-4.159-3.367-5.371-9.351-2.61-14.132 2.752-4.767 8.536-6.73 13.544-4.806a11.167 11.167 0 0 0-1.442-.991c-5.312-3.065-12.076-1.225-15.123 4.053z" fill="#685e68"></path><path d="M15.004 456.044h99.914c1.652 0 3 1.348 3 3V497c0 1.652-1.348 3-3 3H15.004c-1.652 0-3-1.348-3-3v-37.956c0-1.652 1.348-3 3-3zM389.09 260h99.914c1.652 0 3 1.348 3 3v37.956c0 1.652-1.348 3-3 3H389.09c-1.652 0-3-1.348-3-3V263c0-1.652 1.348-3 3-3zm-124.695 65.348h99.914c1.652 0 3 1.348 3 3v37.956c0 1.652-1.348 3-3 3h-99.914c-1.652 0-3-1.348-3-3v-37.956c0-1.652 1.347-3 3-3zm-124.696 65.348h99.914c1.652 0 3 1.348 3 3v37.956c0 1.652-1.348 3-3 3h-99.914c-1.652 0-3-1.348-3-3v-37.956c0-1.652 1.348-3 3-3z" fill="#9facba"></path><path d="M104.918 456.044h10c1.652 0 3 1.348 3 3V497c0 1.652-1.348 3-3 3h-10c1.652 0 3-1.348 3-3v-37.956c0-1.652-1.348-3-3-3zM479.004 260h10c1.652 0 3 1.348 3 3v37.956c0 1.652-1.348 3-3 3h-10c1.652 0 3-1.348 3-3V263c0-1.652-1.348-3-3-3zm-124.696 65.348h10c1.652 0 3 1.348 3 3v37.956c0 1.652-1.348 3-3 3h-10c1.652 0 3-1.348 3-3v-37.956c0-1.652-1.348-3-3-3zm-124.695 65.348h10c1.652 0 3 1.348 3 3v37.956c0 1.652-1.348 3-3 3h-10c1.652 0 3-1.348 3-3v-37.956c0-1.652-1.348-3-3-3z" fill="#8d9ca8"></path></g></g></svg>