<svg id="Capa_1" enable-background="new 0 0 512 512" height="512" viewBox="0 0 512 512" width="512" xmlns="http://www.w3.org/2000/svg"><g><g fill="#004281"><path d="m160 242.732c-4.142 0-7.5-3.358-7.5-7.5v-135.753c0-4.142 3.358-7.5 7.5-7.5s7.5 3.358 7.5 7.5v135.754c0 4.142-3.358 7.499-7.5 7.499z"/><path d="m224 241.912c-4.142 0-7.5-3.358-7.5-7.5v-145.662c0-4.142 3.358-7.5 7.5-7.5s7.5 3.358 7.5 7.5v145.662c0 4.142-3.358 7.5-7.5 7.5z"/><path d="m352 246.248c-4.142 0-7.5-3.358-7.5-7.5v-139.269c0-4.142 3.358-7.5 7.5-7.5s7.5 3.358 7.5 7.5v139.27c0 4.141-3.358 7.499-7.5 7.499z"/><path d="m288 229.911c-4.142 0-7.5-3.358-7.5-7.5v-133.661c0-4.142 3.358-7.5 7.5-7.5s7.5 3.358 7.5 7.5v133.661c0 4.142-3.358 7.5-7.5 7.5z"/></g><path d="m75.41 192.549c-2.751 0-5.4-1.519-6.714-4.147-1.853-3.705-.351-8.21 3.354-10.062l20.596-10.298c50.456-25.228 106.942-38.563 163.354-38.563s112.898 13.335 163.354 38.563l15 7.5c3.705 1.852 5.207 6.357 3.354 10.062-1.852 3.705-6.357 5.207-10.062 3.354l-15-7.5c-98.087-49.043-215.205-49.043-313.292 0l-20.596 10.298c-1.076.538-2.221.793-3.348.793z" fill="#0055a3"/><path d="m435.417 159.963c-1.127 0-2.271-.255-3.348-.793l-19.423-9.712c-98.087-49.043-215.205-49.043-313.292 0l-14.11 7.055c-3.703 1.854-8.21.351-10.062-3.354-1.853-3.705-.351-8.209 3.354-10.062l14.11-7.055c50.456-25.228 106.942-38.563 163.354-38.563s112.898 13.335 163.354 38.563l19.423 9.711c3.705 1.852 5.207 6.357 3.354 10.062-1.314 2.628-3.963 4.148-6.714 4.148z" fill="#0055a3"/><path d="m416 430.75h-320l-16-48 16-32h320l16 32z" fill="#62dbfb"/><path d="m416 350.75h-20.604v32.155c0 15.045-12.196 27.242-27.241 27.242h-279.023l6.868 20.603h320l16-48z" fill="#01d0fb"/><path d="m96 430.75h-85.698c-5.69 0-10.302-4.612-10.302-10.302v-171.396c0-5.69 4.612-10.302 10.302-10.302h37.698l32-16 16 16 16 32-16 32z" fill="#ffc5ad"/><path d="m416 430.75h85.698c5.69 0 10.302-4.612 10.302-10.302v-171.396c0-5.69-4.612-10.302-10.302-10.302h-37.698l-32-16-16 16-16 32 16 32z" fill="#ffc5ad"/><path d="m96 430.75h-85.698c-5.69 0-10.302-4.612-10.302-10.302v-171.396c0-5.69 4.612-10.302 10.302-10.302h37.698l32-16 16 16 16 32-16 32z" fill="#ffd1be"/><path d="m96 238.75-16-16-14.905 7.453v143.546c0 20.102-16.296 36.397-36.397 36.397h-28.698v10.302c0 5.69 4.612 10.302 10.302 10.302h85.698v-128l16-32z" fill="#ffc5ad"/><path d="m416 430.75h85.698c5.69 0 10.302-4.612 10.302-10.302v-171.396c0-5.69-4.612-10.302-10.302-10.302h-37.698l-32-16-16 16-16 32 16 32z" fill="#ffd1be"/><path d="m501.698 238.75h-20.604v134.684c0 20.276-16.437 36.713-36.713 36.713h-28.381v20.604h85.698c5.69 0 10.302-4.612 10.302-10.302v-171.397c0-5.69-4.612-10.302-10.302-10.302z" fill="#ffc5ad"/><path d="m416 302.75c-100.722-50.361-219.278-50.361-320 0v-64c100.722-50.361 219.277-50.361 320 0z" fill="#fead8a"/><path d="m240 406.25h-64c-4.142 0-7.5-3.358-7.5-7.5s3.358-7.5 7.5-7.5h64c4.142 0 7.5 3.358 7.5 7.5s-3.358 7.5-7.5 7.5z" fill="#01d0fb"/><path d="m144 406.25h-16c-4.142 0-7.5-3.358-7.5-7.5s3.358-7.5 7.5-7.5h16c4.142 0 7.5 3.358 7.5 7.5s-3.358 7.5-7.5 7.5z" fill="#01d0fb"/><path d="m384 390.25h-16c-4.142 0-7.5-3.358-7.5-7.5s3.358-7.5 7.5-7.5h16c4.142 0 7.5 3.358 7.5 7.5s-3.358 7.5-7.5 7.5z" fill="#01d0fb"/><path d="m336 390.25h-48c-4.142 0-7.5-3.358-7.5-7.5s3.358-7.5 7.5-7.5h48c4.142 0 7.5 3.358 7.5 7.5s-3.358 7.5-7.5 7.5z" fill="#01d0fb"/><g fill="#fd9468"><path d="m416 262.387c-9.806-4.777-19.903-9.15-30.067-13.019-3.872-1.475-8.204.47-9.678 4.341s.47 8.204 4.341 9.678c10.862 4.135 21.645 8.87 32.05 14.072 1.077.539 2.221.793 3.348.793h.006z"/><path d="m129.16 248.207c-11.225 4.157-22.363 8.92-33.16 14.18v15.865h.006c1.127 0 2.271-.255 3.348-.793 11.352-5.676 23.132-10.785 35.015-15.185 3.884-1.438 5.867-5.753 4.429-9.638-1.439-3.885-5.754-5.868-9.638-4.429z"/></g><path d="m350.006 253.047c-.652 0-1.315-.086-1.975-.266-12.231-3.331-24.785-6.023-37.312-8.004-4.091-.647-6.883-4.488-6.237-8.58.647-4.092 4.488-6.881 8.58-6.237 13.063 2.065 26.155 4.874 38.911 8.348 3.997 1.088 6.354 5.21 5.266 9.207-.909 3.337-3.933 5.532-7.233 5.532z" fill="#fd9468"/><path d="m165.124 252.209c-3.326 0-6.365-2.229-7.249-5.597-1.052-4.006 1.343-8.107 5.349-9.159 12.79-3.359 25.907-6.049 38.987-7.995 4.1-.608 7.913 2.217 8.522 6.315.609 4.097-2.218 7.912-6.314 8.522-12.543 1.866-25.122 4.445-37.386 7.666-.638.168-1.279.248-1.909.248z" fill="#fd9468"/><path d="m277.117 241.102c-.149 0-.299-.004-.449-.013-12.638-.747-25.493-.805-38.163-.173-4.133.212-7.658-2.979-7.865-7.117-.207-4.137 2.979-7.658 7.117-7.865 13.21-.659 26.618-.599 39.796.181 4.135.244 7.289 3.794 7.044 7.929-.236 3.985-3.54 7.058-7.48 7.058z" fill="#fd9468"/><path d="m96 238.75h-48v-85.698c0-5.69 4.612-10.302 10.302-10.302h32.698c2.761 0 5 2.239 5 5z" fill="#fead8a"/><path d="m416 238.75h48v-85.698c0-5.69-4.612-10.302-10.302-10.302h-32.698c-2.761 0-5 2.239-5 5z" fill="#fead8a"/><path d="m48 167.25h48v15h-48z" fill="#fd9468"/><path d="m416 167.25h48v15h-48z" fill="#fd9468"/></g></svg>