<svg viewBox="0 0 512 512" xmlns="http://www.w3.org/2000/svg"><g><path d="m375.182 85.894-46.955 220.864a7.503 7.503 0 0 1-3.25 4.74 7.516 7.516 0 0 1-4.08 1.21c-.52 0-1.04-.06-1.56-.17l-16.332-3.47-18.782-3.99c-4.05-.86-6.641-4.851-5.781-8.901l46.955-220.874a7.454 7.454 0 0 1 4.15-5.221c2.12-1 4.59-.95 6.671.14a58.655 58.655 0 0 0 15.112 5.451c.46.1.92.19 1.38.28 4.841.91 9.761 1.21 14.652.89 2.34-.15 4.62.8 6.151 2.58a7.5 7.5 0 0 1 1.669 6.471z" fill="#f7e3aa"></path><path d="m375.182 85.894-46.955 220.864a7.503 7.503 0 0 1-3.25 4.74 7.516 7.516 0 0 1-4.08 1.21c-.52 0-1.04-.06-1.56-.17l-16.332-3.47L352.71 75.953c4.841.91 9.761 1.21 14.652.89 2.34-.15 4.62.8 6.151 2.58a7.5 7.5 0 0 1 1.669 6.471z" fill="#e0c48c"></path><path d="m374.771 323.665-145.716-30.972a7.5 7.5 0 0 0-8.897 5.777l-14.927 70.225c-6.623 31.155 1.38 60.536 23.142 84.967 16.16 18.141 34.141 27.097 34.899 27.469a7.511 7.511 0 0 0 3.594.764c.843-.032 20.913-.9 43.054-10.899 29.817-13.466 49.078-37.053 55.7-68.208l14.927-70.225a7.5 7.5 0 0 0-5.776-8.898z" fill="#b4cccb"></path><path d="m374.771 323.665-22.683-4.822a7.486 7.486 0 0 1 1.458 6.217l-14.927 70.225c-6.623 31.155-25.883 54.741-55.7 68.208-12.557 5.672-24.444 8.404-32.539 9.714 7.248 5.114 12.492 7.726 12.894 7.923a7.511 7.511 0 0 0 3.594.764c.843-.032 20.913-.9 43.054-10.899 29.817-13.466 49.078-37.053 55.7-68.208l14.927-70.225a7.501 7.501 0 0 0-5.778-8.897z" fill="#9ab2b0"></path><path d="M363.642 91.978a74.181 74.181 0 0 1-15.428-1.626c-27-5.739-48.358-25.853-55.739-52.492a7.501 7.501 0 0 1 8.788-9.339l114.992 24.443a7.5 7.5 0 0 1 4.23 12.107c-14.23 17.268-35.091 26.907-56.843 26.907zm-51.797-45.872c8.074 15.019 22.355 25.93 39.487 29.571 17.134 3.642 34.618-.517 48.102-10.953l-87.589-18.618z" fill="#9393a3"></path><path d="m271.234 294.646-3.541 27.932c-2 15.779 8.426 30.457 23.984 33.765 15.558 3.307 31.053-5.862 35.643-21.09l8.126-26.958-64.212-13.649z" fill="#d1e5e3"></path><path d="M376.623 452.9c-.714 0-1.426.015-2.135.043-15.406-50.367-61.835-84.999-115.107-84.999-48.512 0-92.438 29.452-111.063 73.86a61.806 61.806 0 0 0-1.828-.026c-34.58 0-62.713 28.137-62.713 62.722a7.501 7.501 0 0 0 7.501 7.501h329.444a7.501 7.501 0 0 0 7.501-7.501c0-28.453-23.148-51.6-51.6-51.6z" fill="#c99363"></path><path d="M376.623 452.9c-.714 0-1.426.015-2.135.043-15.406-50.367-61.835-84.999-115.107-84.999-.154 0-.306.008-.46.009 40.696.186 76.126 34.759 87.903 84.99.544-.029 1.09-.043 1.637-.043 21.809 0 39.552 23.147 39.552 51.6 0 4.142-2.574 7.501-5.75 7.501h38.458a7.501 7.501 0 0 0 7.501-7.501c.001-28.453-23.147-51.6-51.599-51.6z" fill="#ba7f4f"></path><path d="m428.058 33.508-6.031 28.353a7.513 7.513 0 0 1-3.25 4.731 7.516 7.516 0 0 1-4.08 1.21c-.52 0-1.04-.06-1.56-.17l-21.202-4.51-93.79-19.932a7.457 7.457 0 0 1-4.73-3.25 7.53 7.53 0 0 1-1.05-5.641l6.031-28.353c.86-4.05 4.841-6.641 8.891-5.781l93.79 19.932 21.202 4.51c4.049.861 6.639 4.851 5.779 8.901z" fill="#ff5f5f"></path><path d="m428.058 33.508-6.031 28.353a7.513 7.513 0 0 1-3.25 4.731 7.516 7.516 0 0 1-4.08 1.21c-.52 0-1.04-.06-1.56-.17l-21.202-4.51 9.141-43.025 21.202 4.51c4.05.861 6.64 4.851 5.78 8.901z" fill="#e24b4b"></path></g></svg>