<svg viewBox="0 0 512 512" xmlns="http://www.w3.org/2000/svg"><g><circle cx="363.708" cy="483.392" fill="#7a4922" r="13.364"></circle><path d="M369.22 471.22c-.86 2.74-2.13 5.37-3.8 7.78l-1.88 2.71c-2.12 3.07-4.87 5.6-8.01 7.46-.97.57-1.98 1.08-3.02 1.51-1.37-2.09-2.17-4.6-2.17-7.29 0-7.38 5.99-13.36 13.37-13.36 1.97 0 3.83.42 5.51 1.19z" fill="#5b3719"></path><path d="m297.943 480.066 18.428 1.023 7.409-24.976 17.624-26.517-30.42-12.403-5.177 10.378-20.667 4.223-.215 13.875-14.109 10.692-16.266 36.672" fill="#f6bb92"></path><path d="m272.19 487.76-11.76 3.51-5.88 1.76.14-.31 16.13-36.36 4-3.03c1.18.97 2.16 2.15 2.88 3.47s1.18 2.78 1.36 4.31l.75 6.65c.89 7.84-2.21 15.15-7.62 20z" fill="#f6bb92"></path><path d="m316.37 481.089 6.93 3.84a25.54 25.54 0 0 0 33.382-7.804l1.875-2.71a28.991 28.991 0 0 0-6.31-39.588l-10.843-5.23-17.624 26.516z" fill="#7a4922"></path><path d="m245.776 395.594-17.12-39.45L183.44 376.6l8.188 40.594z" fill="#f6bb92"></path><path d="m213.35 380.23-7.92 11.64-4.96 21.8-8.84 3.52-8.19-40.59 21.91-9.91z" fill="#f6bb92"></path><path d="m207.811 463.811-18.178-37.855 1.995-8.763 54.148-21.599 10.574 1.459c10.67 1.471 18.617 10.59 18.617 21.361v35.48l-5.083 4.97-62.073 4.947z" fill="#007af6"></path><path d="M258.413 39.796c3.41-7.934-1.55-16.96-10.076-18.335-3.972-.64-8.02.555-11.005 3.252l-17.315 15.64a17.753 17.753 0 0 0-5.45 16.937l2.18 10.05L248.01 64z" fill="#f6bb92"></path><path d="m248.01 64-31.263 3.34-14.322 65.648a161.14 161.14 0 0 0-3.703 34.348v21.332l-17.703 107.93-4.646 8.295a60.285 60.285 0 0 0-.45 58.09l7.517 13.616 45.217-20.455 15.535-131.713a75.697 75.697 0 0 0-1.581-26.583l-4.762-19.781a42.584 42.584 0 0 1-.921-14.688L248.01 64z" fill="#007af6"></path><path d="m213.35 380.23-7.92 11.64-4.96 21.8-8.84 3.52-8.19-40.59 21.91-9.91zM272.19 487.76c5.41-4.85 8.51-12.16 7.62-20l-.75-6.65c-.18-1.53-.64-2.99-1.36-4.31s-1.7-2.5-2.88-3.47l-4 3.03-16.13 36.36 5.74-1.45z" fill="#dca782"></path><path d="m270.817 456.36-25.218-20.664-21.408.304-5.955 26.585-37.961 4.466 17.12-75.179 7.93-11.643-15.692-26.562-19.779 18.853 2.977 23.818-22.045 71.175a21.804 21.804 0 0 0 21.406 28.247l77.352-2.053c13.672-.362 24.101-12.355 22.563-25.945l-1.29-11.401z" fill="#f6bb92"></path></g></svg>