<svg viewBox="0 0 512 512" xmlns="http://www.w3.org/2000/svg"><g><path d="M4.339 234.305h503.322v225.627c0 28.759-23.309 52.068-52.068 52.068H4.339V234.305z" fill="#f0dbc2"></path><path d="M4.339 286.373h425.22c14.379 0 26.034 11.654 26.034 26.034v121.492c0 14.379-11.655 26.034-26.034 26.034H4.339v-173.56z" fill="#f2b9b8"></path><path d="M4.339 286.373h425.22c14.379 0 26.034 11.654 26.034 26.034v121.492c0 14.379-11.655 26.034-26.034 26.034H4.339v-173.56z" fill="#f2b9b8"></path><path d="M4.339 234.305 308.068 52.068c103.32.017 189.7 78.562 199.515 181.413l.078.824H4.339z" fill="#f29c9b"></path><circle cx="403.525" cy="95.458" fill="#f0614a" r="52.068"></circle><path d="M429.438 50.332c-1.25 38.704-32.334 69.788-71.038 71.038 14.267 24.967 46.071 33.644 71.038 19.387 24.966-14.267 33.644-46.071 19.387-71.038a52.097 52.097 0 0 0-19.387-19.387z" fill="#ea5242"></path><path d="M412.203 78.102h-17.356C394.9 34.99 429.837.052 472.949 0v17.356c-33.531.035-60.711 27.214-60.746 60.746z" fill="#965735"></path><path d="M303.725 81.39h17.356v36.82h-17.356z" fill="#965735" transform="rotate(134.999 312.405 99.8)"></path><path d="M198.557 143.181h36.82v17.356h-36.82z" fill="#965735" transform="rotate(134.999 216.969 151.86)"></path><path d="M242.982 168.176h17.356v36.82h-17.356z" fill="#965735" transform="rotate(134.999 251.662 186.586)"></path><path d="M276.641 143.208h36.82v17.356h-36.82z" fill="#965735" transform="rotate(134.999 295.053 151.886)"></path><path d="M424.161 177.894h36.82v17.356h-36.82z" fill="#965735" transform="rotate(134.999 442.574 186.572)"></path><path d="M328.709 177.901h36.82v17.356h-36.82z" fill="#965735" transform="rotate(134.999 347.12 186.579)"></path><path d="M137.792 177.937h36.82v17.356h-36.82z" fill="#965735" transform="rotate(134.999 156.203 186.616)"></path><path d="M322.681 286.373h106.878c14.379 0 26.034 11.654 26.034 26.034v121.492c0 14.379-11.655 26.034-26.034 26.034H121.717L61.431 512h394.162c28.759 0 52.068-23.309 52.068-52.068V234.305H382.976l-60.295 52.068z" fill="#ebd3b7"></path><path d="M429.559 459.932c14.379 0 26.034-11.654 26.034-26.034V312.407c0-14.379-11.655-26.034-26.034-26.034H322.681L121.717 459.932h307.842z" fill="#f2aeac"></path><path d="M4.339 364.475h451.254v17.356H4.339z" fill="#f28685"></path></g></svg>