<svg viewBox="0 0 512 512" xmlns="http://www.w3.org/2000/svg"><g><path d="M512 423.85V497c0 8.28-6.72 15-15 15h-76c.67-3.67-15-90-15-90l-15 90H121l-15-90-15 90H15c-8.28 0-15-6.72-15-15v-73.15c0-34.48 23.36-64.4 56.81-72.76l93.25-23.07h211.88l93.21 23.06c33.49 8.37 56.85 38.29 56.85 72.77z" fill="#979fef"></path><path d="M512 423.85V497c0 8.28-6.72 15-15 15h-76c.67-3.67-15-90-15-90l-15 90H256V328.02h105.94l93.21 23.06c33.49 8.37 56.85 38.29 56.85 72.77z" fill="#6b77e8"></path><path d="m420.63 214.13-164.63.01-164.64.01C96.83 113.48 165.25 0 256 0c92.92 0 159.18 116.26 164.63 214.13z" fill="#979fef"></path><path d="m420.63 214.13-164.63.01V0c92.92 0 159.18 116.26 164.63 214.13z" fill="#6b77e8"></path><path d="M421 227c0 103.8-69.61 165-165 165-95.25 0-165-61.07-165-165 0-4.25.13-8.54.36-12.85C119.33 151.04 182.52 107 256 107c73.47 0 136.65 44.03 164.63 107.13.24 4.33.37 8.63.37 12.87z" fill="#47568c"></path><path d="M421 227c0 103.8-69.61 165-165 165V107c73.47 0 136.65 44.03 164.63 107.13.24 4.33.37 8.63.37 12.87z" fill="#29376d"></path><circle cx="256" cy="317" fill="#f77e00" r="15"></circle><path d="M271 317c0 8.28-6.72 15-15 15v-30c8.28 0 15 6.72 15 15z" fill="#ff4b00"></path><path d="M301 197c0 16.76-9.22 32.03-24.07 39.84-3.55 1.87-5.93 6.68-5.93 11.98V257c0 8.28-6.72 15-15 15s-15-6.72-15-15v-8.18c0-13.56 5.59-25.88 15-33.82 2.14-1.81 4.47-3.39 6.97-4.71 4.95-2.61 8.03-7.7 8.03-13.29 0-8.27-6.73-15-15-15s-15 6.73-15 15c0 8.28-6.72 15-15 15s-15-6.72-15-15c0-24.81 20.19-45 45-45s45 20.19 45 45z" fill="#f77e00"></path><path d="M301 197c0 16.76-9.22 32.03-24.07 39.84-3.55 1.87-5.93 6.68-5.93 11.98V257c0 8.28-6.72 15-15 15v-57c2.14-1.81 4.47-3.39 6.97-4.71 4.95-2.61 8.03-7.7 8.03-13.29 0-8.27-6.73-15-15-15v-30c24.81 0 45 20.19 45 45z" fill="#ff4b00"></path><path d="M121 437v75H91v-75c0-8.28 6.72-15 15-15s15 6.72 15 15z" fill="#47568c"></path><path d="M421 437v75h-30v-75c0-8.28 6.72-15 15-15s15 6.72 15 15z" fill="#29376d"></path></g></svg>