<svg id="Flat" height="512" viewBox="0 0 64 64" width="512" xmlns="http://www.w3.org/2000/svg"><path d="m3 21h58a0 0 0 0 1 0 0v38a2 2 0 0 1 -2 2h-54a2 2 0 0 1 -2-2v-38a0 0 0 0 1 0 0z" fill="#fafaff"/><path d="m6 21h55a0 0 0 0 1 0 0v38a2 2 0 0 1 -2 2h-51a2 2 0 0 1 -2-2v-38a0 0 0 0 1 0 0z" fill="#f3f3ff"/><path d="m3 21h58v2.5h-58z" fill="#f3f3ff"/><path d="m6 21h55v2.5h-55z" fill="#e6e6ff"/><rect fill="#fb7d8c" height="12" rx="2" width="62" x="1" y="9"/><path d="m6 11.5a2 2 0 0 0 -2 2v7.5h57a2 2 0 0 0 2-2v-7.5z" fill="#fa5a69"/><path d="m32 2.25a2.752 2.752 0 0 0 -2.75 2.75v4h1.5v-4a1.25 1.25 0 0 1 2.5 0v8a1.252 1.252 0 0 1 -1.25 1.25.75.75 0 0 0 0 1.5 2.752 2.752 0 0 0 2.75-2.75v-8a2.752 2.752 0 0 0 -2.75-2.75z" fill="#5a5a63"/><path d="m56 2.25a2.752 2.752 0 0 0 -2.75 2.75v4h1.5v-4a1.25 1.25 0 0 1 2.5 0v8a1.252 1.252 0 0 1 -1.25 1.25.75.75 0 0 0 0 1.5 2.752 2.752 0 0 0 2.75-2.75v-8a2.752 2.752 0 0 0 -2.75-2.75z" fill="#5a5a63"/><path d="m44 2.25a2.752 2.752 0 0 0 -2.75 2.75v4h1.5v-4a1.25 1.25 0 0 1 2.5 0v8a1.252 1.252 0 0 1 -1.25 1.25.75.75 0 0 0 0 1.5 2.752 2.752 0 0 0 2.75-2.75v-8a2.752 2.752 0 0 0 -2.75-2.75z" fill="#5a5a63"/><path d="m8 2.25a2.752 2.752 0 0 0 -2.75 2.75v4h1.5v-4a1.25 1.25 0 0 1 2.5 0v8a1.252 1.252 0 0 1 -1.25 1.25.75.75 0 0 0 0 1.5 2.752 2.752 0 0 0 2.75-2.75v-8a2.752 2.752 0 0 0 -2.75-2.75z" fill="#5a5a63"/><path d="m20 2.25a2.752 2.752 0 0 0 -2.75 2.75v4h1.5v-4a1.25 1.25 0 0 1 2.5 0v8a1.252 1.252 0 0 1 -1.25 1.25.75.75 0 0 0 0 1.5 2.752 2.752 0 0 0 2.75-2.75v-8a2.752 2.752 0 0 0 -2.75-2.75z" fill="#5a5a63"/><circle cx="32" cy="41" fill="#90c2fc" r="14"/><path d="m35 30a13.982 13.982 0 0 0 -11.275 22.275 13.982 13.982 0 0 0 19.55-19.55 13.923 13.923 0 0 0 -8.275-2.725z" fill="#abcdff"/><g fill="#5a5a63"><path d="m43 41a.75.75 0 0 0 .75.75h2v-1.5h-2a.75.75 0 0 0 -.75.75z"/><path d="m18.25 40.25v1.5h2a.75.75 0 0 0 .75-.75.75.75 0 0 0 -.75-.75z"/><path d="m43.533 33.476-1.732 1a.749.749 0 0 0 -.275 1.024.749.749 0 0 0 1.025.274l1.732-1z"/><path d="m21.449 46.226-1.732 1 .75 1.3 1.732-1a.749.749 0 0 0 .275-1.024.749.749 0 0 0 -1.025-.276z"/><path d="m38.226 28.717-1 1.732a.75.75 0 0 0 .275 1.025.749.749 0 0 0 1.024-.275l1-1.732z"/><path d="m25.476 50.8-1 1.732 1.3.75 1-1.732a.75.75 0 0 0 -.275-1.025.749.749 0 0 0 -1.025.275z"/><path d="m31.25 27.25v2a.75.75 0 0 0 .75.75.75.75 0 0 0 .75-.75v-2z"/><path d="m31.25 52.75v2h1.5v-2a.75.75 0 0 0 -.75-.75.75.75 0 0 0 -.75.75z"/><path d="m25.774 28.717-1.3.75 1 1.732a.749.749 0 0 0 1.024.275.75.75 0 0 0 .275-1.025z"/><path d="m37.5 50.526a.75.75 0 0 0 -.275 1.025l1 1.732 1.3-.75-1-1.732a.749.749 0 0 0 -1.025-.275z"/><path d="m20.467 33.476-.75 1.3 1.732 1a.749.749 0 0 0 1.025-.274.749.749 0 0 0 -.275-1.024z"/><path d="m41.526 46.5a.749.749 0 0 0 .275 1.024l1.732 1 .75-1.3-1.732-1a.749.749 0 0 0 -1.025.276z"/></g><path d="m32 25a16 16 0 1 0 16 16 16 16 0 0 0 -16-16zm0 29a13 13 0 1 1 13-13 13 13 0 0 1 -13 13z" fill="#fa5a69"/><path d="m29.125 45.979a.748.748 0 0 1 -.274-1.024l2.4-4.156v-6.799a.75.75 0 0 1 .75-.75.75.75 0 0 1 .75.75v7.2l-2.6 4.5a.748.748 0 0 1 -1.026.279z" fill="#5a5a63"/><circle cx="32" cy="41" fill="#fa5a69" r="1.75"/></svg>