<svg viewBox="0 0 512 512" xmlns="http://www.w3.org/2000/svg"><g><path d="M326.205 511.995H73.838l6.156-29.983c5.064-24.688 24.3-43.451 48.168-48.505a62.183 62.183 0 0 1 12.964-1.355h117.79c4.423 0 8.762.462 12.953 1.355 23.869 5.053 43.115 23.816 48.179 48.505z" fill="#9dc6fb"></path><path d="M166.478 432.145c-2.524 0-4.996.464-7.386 1.36-13.588 5.058-24.539 23.818-27.424 48.501l-3.503 29.989H73.833l6.15-29.989c5.068-24.683 24.302-43.443 48.171-48.501a61.973 61.973 0 0 1 12.96-1.36z" fill="#80b4fb"></path><path d="M234.932 373.845v58.306c0 19.278-15.632 34.91-34.91 34.91-19.288 0-34.921-15.632-34.921-34.91v-58.306z" fill="#ffcbbe"></path><path d="M211.423 465.158a34.972 34.972 0 0 1-11.399 1.902c-19.288 0-34.921-15.632-34.921-34.91v-58.306H187.9v58.306c0 15.296 9.834 28.291 23.523 33.008zM54.163 325.294c-25.173 0-45.58-20.407-45.58-45.58 0-3.465.387-6.839 1.119-10.082 5.913-26.187 44.461-21.892 44.461 4.954h291.711c0-26.846 38.548-31.141 44.461-4.954a45.746 45.746 0 0 1 1.119 10.082c0 25.173-20.407 45.58-45.58 45.58" fill="#eaac9d"></path><path d="M54.17 299.25a7.717 7.717 0 0 1-6.32-3.273c-.173-.238-7.143-9.729-14.474-6.773a7.728 7.728 0 0 1-5.781-14.331c7.9-3.188 16.5-1.906 24.214 3.608 5.188 3.708 8.347 8.127 8.69 8.619a7.726 7.726 0 0 1-1.913 10.758 7.688 7.688 0 0 1-4.416 1.392zM345.868 299.225a7.663 7.663 0 0 1-4.44-1.411c-3.47-2.453-4.322-7.228-1.89-10.712.343-.492 3.503-4.911 8.69-8.619 7.713-5.515 16.314-6.794 24.214-3.608a7.727 7.727 0 0 1-5.78 14.331c-7.383-2.978-14.406 6.679-14.477 6.777a7.765 7.765 0 0 1-6.317 3.242z" fill="#df9380"></path><path d="M165.1 373.845h69.831v53.715H165.1z" fill="#eaac9d"></path><path d="M239.567 409.078H160.47c-58.712 0-106.307-47.595-106.307-106.307V152.84h291.711v149.931c0 58.712-47.596 106.307-106.307 106.307z" fill="#ffcbbe"></path><path d="M230.301 409.078H160.47c-58.706 0-106.307-47.601-106.307-106.307V152.834h69.831v149.937c0 58.706 47.591 106.307 106.307 106.307z" fill="#eaac9d"></path><g fill="#454045"><path d="M125.191 231.322c-7.586 0-13.757 10.247-13.757 22.842s6.172 22.842 13.757 22.842c7.586 0 13.757-10.247 13.757-22.842-.001-12.595-6.172-22.842-13.757-22.842z" fill="#454045"></path><ellipse cx="274.846" cy="254.164" fill="#454045" rx="13.757" ry="22.842"></ellipse></g><g fill="#e490b7"><ellipse cx="296.236" cy="300.027" fill="#e490b7" rx="23.876" ry="14.518"></ellipse><ellipse cx="103.8" cy="300.027" fill="#e490b7" rx="23.876" ry="14.518"></ellipse></g><path d="M126.908 48.767H81.769c-28.044 0-50.778 22.734-50.778 50.778v68.765c0 13.981 11.334 25.315 25.315 25.315H88.04c41.801 0 75.688-33.887 75.688-75.688V85.589c.001-20.336-16.484-36.822-36.82-36.822z" fill="#a55e4d"></path><path d="M126.635 48.761c-28.04 0-50.774 22.734-50.774 50.784v94.078H56.307c-13.981 0-25.315-11.334-25.315-25.315V99.545c0-28.05 22.734-50.784 50.774-50.784z" fill="#904f40"></path><path d="M278.455 181.261h-70.292c-38.057 0-68.909-30.852-68.909-68.909V68.909C139.254 30.852 170.106 0 208.163 0h205.706v45.847c0 74.787-60.627 135.414-135.414 135.414z" fill="#a55e4d"></path><path d="M268.925 181.257H208.16c-38.062 0-68.907-30.845-68.907-68.907V68.909c0-38.062 30.845-68.907 68.907-68.907h60.765c-38.062 0-68.907 30.845-68.907 68.907v43.441c.001 38.062 30.845 68.907 68.907 68.907z" fill="#904f40"></path><path d="M214.439 290.912h-28.842a7.726 7.726 0 1 1 0-15.452h28.842a7.726 7.726 0 1 1 0 15.452z" fill="#eaac9d"></path><path d="M339.106 406.515c7.946 0 14.388 6.442 14.388 14.388v42.137h-28.777v-42.137c.001-7.946 6.443-14.388 14.389-14.388z" fill="#ffcbbe"></path><path d="M344.93 407.758a14.351 14.351 0 0 0-8.561 13.145v42.145h-11.651v-42.145c0-7.943 6.439-14.382 14.392-14.382 2.07.001 4.038.434 5.82 1.237z" fill="#eaac9d"></path><path d="M353.495 447.625h-34.267c-11.726 0-21.231 9.506-21.231 21.231v21.911c0 11.726 9.506 21.231 21.231 21.231h12.195c12.19 0 22.072-9.882 22.072-22.072z" fill="#ffcbbe"></path><path d="M333.93 511.856c-.824.093-1.659.144-2.503.144H319.23c-11.724 0-21.232-9.509-21.232-21.232v-21.912c0-11.724 9.509-21.232 21.232-21.232h17.132c-11.724 0-21.232 9.509-21.232 21.232v21.912c-.001 10.899 8.22 19.893 18.8 21.088z" fill="#eaac9d"></path><path d="M60.936 406.515c-7.946 0-14.388 6.442-14.388 14.388v42.137h28.777v-42.137c-.001-7.946-6.442-14.388-14.389-14.388z" fill="#ffcbbe"></path><path d="M55.112 407.758a14.351 14.351 0 0 1 8.561 13.145v42.145h11.651v-42.145c0-7.943-6.439-14.382-14.392-14.382-2.07.001-4.038.434-5.82 1.237z" fill="#eaac9d"></path><path d="M46.548 447.625h34.267c11.726 0 21.231 9.506 21.231 21.231v21.911c0 11.726-9.506 21.231-21.231 21.231H68.62c-12.19 0-22.072-9.882-22.072-22.072z" fill="#ffcbbe"></path><path d="M66.113 511.856c.824.093 1.659.144 2.503.144h12.197c11.724 0 21.232-9.509 21.232-21.232v-21.912c0-11.724-9.509-21.232-21.232-21.232H63.681c11.724 0 21.232 9.509 21.232 21.232v21.912c.001 10.899-8.22 19.893-18.8 21.088z" fill="#eaac9d"></path><path d="M200.018 346.907a37.675 37.675 0 0 1-34.781-23.088 7.727 7.727 0 0 1 14.238-6.004c3.494 8.286 11.557 13.639 20.542 13.639s17.048-5.354 20.542-13.639a7.725 7.725 0 0 1 10.121-4.117 7.726 7.726 0 0 1 4.117 10.121 37.67 37.67 0 0 1-34.779 23.088z" fill="#dd636e"></path><path d="M287.857 174.987c1.177 10.736 9.873 19.124 20.649 19.878.891.063 1.777.126 2.663.183 6.571.446 11.679 5.902 11.679 12.49v24.9c0 8.376 9.587 13.13 16.25 8.056 12.159-9.262 28.334-23.038 38.259-37.322 2.348-3.383 6.228-5.354 10.347-5.331 30.557.154 61.113-.828 91.67-2.977a22.335 22.335 0 0 0 18.975-13.479 22.01 22.01 0 0 0 1.674-6.348 568.279 568.279 0 0 0 0-124.027c-1.177-10.725-9.879-19.072-20.638-19.826a1218.134 1218.134 0 0 0-136.551-1.92 1188.349 1188.349 0 0 0-34.322 1.92c-10.765.754-19.472 9.102-20.649 19.826a568.196 568.196 0 0 0-.006 123.977z" fill="#80cb8e"></path><path d="m371.617 113.285 26.246-45.059a11.708 11.708 0 0 1 21.038 10.11l-10.228 26.482 21.874 2.524c9.803 1.131 16.674 10.222 15.087 19.961l-3.995 24.524a17.294 17.294 0 0 1-16.554 14.506l-71.379 2.13V112.74z" fill="#ffcbbe"></path></g></svg>