<svg viewBox="0 0 512 512" xmlns="http://www.w3.org/2000/svg"><g><g fill="#fe9738"><path d="m131.577 333.334-1.726.889 1.726.889c4.326 2.228 7.013 6.624 7.013 11.474s-2.687 9.246-7.013 11.474l-1.726.889 1.726.889c4.326 2.228 7.013 6.624 7.013 11.473 0 4.85-2.687 9.246-7.013 11.474l-1.726.889 1.726.889c4.487 2.311 7.171 6.874 7.006 11.909-.114 3.472-1.695 6.614-4.146 8.877h59.825v-85.281l-61.406 12.509c-.41.269-.833.527-1.279.757zM79.809 390.899v-18.095l-5.658 32.541h12.938c-4.408-3.292-7.28-8.533-7.28-14.446zM270.013 318.382v17.893c0 18.606-15.137 33.743-33.743 33.743-4.77 0-9.397-.988-13.754-2.938l-1.408-.63v38.896h69.786v-82.711zM367.237 396.469c-.166-5.035 2.518-9.599 7.005-11.909l1.726-.889-1.726-.889c-4.326-2.228-7.013-6.624-7.013-11.474 0-4.849 2.687-9.245 7.013-11.473l1.726-.889-1.726-.889c-4.326-2.228-7.013-6.624-7.013-11.474 0-2.301.611-4.497 1.709-6.411a44.495 44.495 0 0 0-11.299-3.943l-39.902-8.128v77.242h53.644c-2.449-2.261-4.03-5.403-4.144-8.874zM124.476 432.191h69.786v47.358h-69.786zM97.631 432.191H69.483l-8.234 47.358h36.382zM317.738 432.191h69.786v47.358h-69.786zM221.107 432.191h69.786v47.358h-69.786z" fill="#fe9738"></path></g><path d="M263.209 300.081h-42.102v67.459a34.604 34.604 0 0 0 15.163 3.477c19.188 0 34.743-15.555 34.743-34.743v-36.856c-2.54.429-5.144.663-7.804.663z" fill="#ffb09e"></path><g fill="#bb5d4c"><path d="M331.938 202.363v-45.231h-14.2v41.2h.384a25.636 25.636 0 0 1 13.816 4.031zM140.601 202.363a25.626 25.626 0 0 1 13.816-4.03h8.079v-21.434c0-8.415 4.562-15.781 11.341-19.767h-33.235v45.231zM317.738 114.011v16.277h9.236a69.214 69.214 0 0 0-9.236-16.277zM221.107 130.288h69.786V92.721a69.11 69.11 0 0 0-28.351-6.059h-41.436v43.626zM194.262 130.288V88.476c-22.233 5.157-40.36 20.988-48.697 41.812z" fill="#bb5d4c"></path></g><g fill="#a44f3e"><path d="M140.601 202.363a25.626 25.626 0 0 1 13.816-4.03h8.079v-21.434c0-8.419 4.57-15.782 11.352-19.767h-33.247zM178.964 130.288a69.477 69.477 0 0 1 15.298-23.234V88.476c-22.233 5.157-40.36 20.988-48.697 41.812z" fill="#a44f3e"></path></g><path d="M318.122 197.333h-.384v62.569h.384c14.794 0 26.787-11.993 26.787-26.787v-8.995c0-14.794-11.993-26.787-26.787-26.787z" fill="#ffb09e"></path><path d="M162.496 253.246v-55.913h-8.079c-14.794 0-26.787 11.993-26.787 26.787v8.995c0 14.794 11.993 26.787 26.787 26.787h8.56a46.986 46.986 0 0 1-.481-6.656z" fill="#f89580"></path><g fill="#ffcebf"><path d="M290.893 292.243v-135.11h-69.786v143.948h42.102a47.6 47.6 0 0 0 27.684-8.838zM161.496 176.899v76.347c0 21.151 13.734 39.084 32.766 45.398V157.133h-22.314c-6.309 4.306-10.452 11.551-10.452 19.766z" fill="#ffcebf"></path></g><g fill="#ffb09e"><path d="M187 253.246v-76.347c0-6.732 2.785-12.81 7.262-17.157v-2.61h-22.314c-6.309 4.306-10.452 11.552-10.452 19.766v76.347c0 21.151 13.734 39.084 32.766 45.398v-20.069A47.589 47.589 0 0 1 187 253.246zM221.107 299.071v2.009h13.727a47.75 47.75 0 0 1-13.727-2.009z" fill="#ffb09e"></path></g><path d="M263.86 267.396a7.5 7.5 0 0 0-7.5-7.5h-35.253v15h35.253a7.5 7.5 0 0 0 7.5-7.5zM272.252 224.688a7.5 7.5 0 0 1-7.5-7.5v-10.196c0-4.143 3.358-7.5 7.5-7.5s7.5 3.357 7.5 7.5v10.196a7.5 7.5 0 0 1-7.5 7.5zM234.841 245.592a7.475 7.475 0 0 0 5.109 2.011 7.5 7.5 0 0 0 5.112-12.99l-6.746-6.281 7.429-9.034a7.502 7.502 0 0 0-11.587-9.528l-11.907 14.481a7.487 7.487 0 0 0-1.145 1.918v5.676a7.471 7.471 0 0 0 1.827 2.659z" fill="#ec806b"></path><path d="M258.751 171.881c-4.142 0-7.5 3.357-7.5 7.5s3.358 7.5 7.5 7.5h27.744a7.459 7.459 0 0 0 4.397-1.433v-12.133a7.454 7.454 0 0 0-4.397-1.433h-27.744zM178.543 179.381a7.5 7.5 0 0 0 7.5 7.5h8.218v-15h-8.218a7.5 7.5 0 0 0-7.5 7.5z" fill="#bb5d4c"></path><g fill="#8ebac5"><path d="M97.85 308.953h27.42c.069 0 .137.009.206.01V32.48H96.631v276.534c.405-.026.807-.061 1.219-.061zM125.27 408.94H97.85c-.411 0-.814-.035-1.219-.062v70.641h28.845V408.93c-.069.001-.137.01-.206.01zM193.262 32.48h28.845v447.039h-28.845zM289.893 32.48h28.845v447.039h-28.845zM407.969 308.953c2.638 0 5.139.583 7.4 1.605V32.48h-28.845v276.473zM407.969 408.94h-21.445v70.579h28.845v-72.184a17.913 17.913 0 0 1-7.4 1.605z" fill="#8ebac5"></path></g><path d="M27.845 129.288h456.31v28.845H27.845zM27.845 404.346h456.31v28.845H27.845z" fill="#a8d3d8"></path><path d="M507.631 32.48h-24.476v447.04h27.511l1.334-1.001V33.481zM28.845 479.52V32.48H4.369L0 33.481v445.038l1.334 1.001z" fill="#8ebac5"></path><path d="M501.698 510.455H10.302C4.612 510.455 0 505.842 0 500.153v-21.634h512v21.634c0 5.689-4.612 10.302-10.302 10.302z" fill="#537983"></path><path d="M40 500.153v-21.634H0v21.634c0 5.69 4.612 10.302 10.302 10.302h40c-5.69 0-10.302-4.613-10.302-10.302z" fill="#3e5959"></path><path d="M512 33.481H0V11.847C0 6.158 4.612 1.545 10.302 1.545h491.396c5.69 0 10.302 4.612 10.302 10.302z" fill="#537983"></path><path d="M50.302 1.545h-40C4.612 1.545 0 6.158 0 11.847v21.634h40V11.847c0-5.689 4.612-10.302 10.302-10.302z" fill="#3e5959"></path><path d="M380.549 307.953c-7.57 0-14.063 5.873-14.312 13.439-.184 5.587 2.935 10.455 7.547 12.831-4.483 2.309-7.555 6.972-7.555 12.362s3.072 10.054 7.555 12.362c-4.483 2.309-7.555 6.972-7.555 12.362s3.072 10.054 7.555 12.362c-4.612 2.375-7.731 7.243-7.547 12.83.249 7.566 6.742 13.439 14.312 13.439h27.42c10.516 0 19.041-8.525 19.041-19.041v-63.906c0-10.516-8.525-19.041-19.041-19.041h-27.42z" fill="#ffcebf"></path><path d="M392 390.9v-63.906c0-9.997 7.709-18.179 17.505-18.963a19.004 19.004 0 0 0-1.536-.078h-27.42c-7.57 0-14.063 5.873-14.312 13.439-.184 5.587 2.935 10.455 7.547 12.831-4.483 2.309-7.555 6.972-7.555 12.362s3.072 10.054 7.555 12.362c-4.483 2.309-7.555 6.972-7.555 12.362s3.072 10.054 7.555 12.362c-4.612 2.375-7.731 7.243-7.547 12.83.249 7.566 6.742 13.439 14.312 13.439h27.42c.518 0 1.028-.037 1.536-.078-9.796-.783-17.505-8.965-17.505-18.962z" fill="#ffb09e"></path><path d="M125.27 307.953c7.57 0 14.063 5.873 14.312 13.439.184 5.587-2.935 10.455-7.547 12.831 4.483 2.309 7.555 6.972 7.555 12.362s-3.072 10.054-7.555 12.362c4.483 2.309 7.555 6.972 7.555 12.362s-3.072 10.054-7.555 12.362c4.612 2.375 7.731 7.243 7.547 12.83-.249 7.566-6.742 13.439-14.312 13.439H97.85c-10.516 0-19.041-8.525-19.041-19.041v-63.906c0-10.516 8.525-19.041 19.041-19.041h27.42z" fill="#ffcebf"></path><path d="M104 390.9v-63.906c0-10.516 8.525-19.041 19.041-19.041H97.85c-10.516 0-19.041 8.525-19.041 19.041V390.9c0 10.516 8.525 19.041 19.041 19.041h25.191c-10.516 0-19.041-8.525-19.041-19.041z" fill="#ffb09e"></path></g></svg>