<svg viewBox="0 0 512 512" xmlns="http://www.w3.org/2000/svg"><g><path d="M428.956 318.564h34.133v62.703h-34.133z" fill="#d1a184"></path><path d="M439.395 318.564h23.694v62.703h-23.694z" fill="#c68a65"></path><path d="m502.372 287.091-4.597-50.57-4.912-1.613 3.417-14.837-4.768-52.447c-1.598-17.581-16.339-31.043-33.993-31.043h-22.991c-17.654 0-32.395 13.462-33.993 31.043l-10.861 119.467c-1.817 19.989 13.922 37.224 33.993 37.224h23.095l4.481-.246h21.199c18.083-2.139 31.623-18.36 29.93-36.978z" fill="#aad264"></path><path d="m497.775 236.522-4.912-1.613 3.417-14.837-4.768-52.446c-1.598-17.581-16.339-31.043-33.993-31.043h-22.991c-.118 0-.234.007-.352.008 17.497.178 32.054 13.571 33.642 31.035l10.861 119.467c1.817 19.989-13.922 37.224-33.993 37.224h23.694c20.072 0 35.81-17.234 33.993-37.224z" fill="#8cbe69"></path><g fill="#d2e673"><path d="m493.909 239.099 3.866-2.577-1.495-16.451a7.69 7.69 0 0 0-3.587 1.267l-7.354 4.904a9.32 9.32 0 0 1-10.364.001l-16.133-10.756a7.726 7.726 0 0 0-8.571 12.857l16.134 10.756c4.177 2.784 8.964 4.176 13.751 4.176s9.576-1.393 13.753-4.177zM425.642 273.232l16.134-10.756a7.726 7.726 0 0 0-8.571-12.857l-16.134 10.756a9.316 9.316 0 0 1-10.362 0l-10.282-6.855a7.675 7.675 0 0 0-3.586-1.267l-1.496 16.451 6.793 4.528a24.763 24.763 0 0 0 13.751 4.176 24.748 24.748 0 0 0 13.753-4.176z" fill="#d2e673"></path></g><path d="M315.733 183.345h34.133v42.911h-34.133z" fill="#5f5f6e"></path><path d="M326.173 183.345h23.694v42.911h-23.694z" fill="#46465c"></path><path d="M253.634 282.189v98.429h72.999l8.475-77.862v-20.567z" fill="#d65651"></path><path d="M429.033 290.149v90.469h-102.4v-90.469l51.2-50.83z" fill="#ff6e64"></path><path d="M405.339 266.626v113.992h23.694v-90.469z" fill="#d65651"></path><path d="m312.563 302.756-72.69-.002a8.52 8.52 0 0 1-7.105-3.799l-9.467-14.2a8.534 8.534 0 0 1 2.367-11.834l74.433-49.622a8.53 8.53 0 0 1 4.733-1.433h72.999v21.106l-66.088 39.217z" fill="#ffcd6e"></path><path d="M393.899 380.618h-33.133v-48.351a8 8 0 0 1 8-8h17.133a8 8 0 0 1 8 8z" fill="#d2e1e1"></path><path d="M386.658 324.267h-17.65c-1.068 0-2.085.21-3.022.58a8.237 8.237 0 0 1 5.219 7.662v48.11h23.694v-48.11a8.241 8.241 0 0 0-8.241-8.242z" fill="#afc4c8"></path><path d="m223.301 284.756 9.466 14.2a8.52 8.52 0 0 0 7.105 3.798l72.69.002-.818-20.567 15.617-9.267H225.668a8.533 8.533 0 0 0-2.367 11.834z" fill="#ffb45e"></path><path d="m428.762 295.12 17.26-3.652v-17.752l-66.527-45.673h-13.51l-67.32 44.88a8.534 8.534 0 0 0-2.367 11.834l9.466 14.2a8.534 8.534 0 0 0 11.834 2.367l55.5-37a8.533 8.533 0 0 1 9.467 0z" fill="#ffe68e"></path><path d="M456.999 272.922 382.566 223.3a8.533 8.533 0 0 0-9.467 0l-7.113 4.742 67.32 44.88a8.533 8.533 0 0 1 2.367 11.833l-6.909 10.364 9.303 6.202a8.532 8.532 0 0 0 11.833-2.367l9.467-14.2a8.533 8.533 0 0 0-2.368-11.832z" fill="#ffcd6e"></path><path d="M350.4 187.733h-35.2a8 8 0 0 1-8-8V161.6a8 8 0 0 1 8-8h35.2a8 8 0 0 1 8 8v18.133a8 8 0 0 1-8 8z" fill="#d2e1e1"></path><path d="M350.159 153.6h-23.694a8.241 8.241 0 0 1 8.241 8.242v17.65a8.241 8.241 0 0 1-8.241 8.241h23.694a8.242 8.242 0 0 0 8.242-8.241v-17.65a8.243 8.243 0 0 0-8.242-8.242z" fill="#afc4c8"></path><path d="m256 395.109-119.466 6.762v7.729L25.011 429.401V460.8L85.333 512H307.2l15.818-8.963L341.333 512h34.133l19.677-8.413L409.6 512h34.134l19.676-6.321L477.867 512h25.6a8.533 8.533 0 0 0 8.533-8.533V409.6z" fill="#aad264"></path><path d="M488.306 503.467a8.533 8.533 0 0 1-8.533 8.533h23.694a8.533 8.533 0 0 0 8.533-8.533V409.6l-23.694-1.341z" fill="#8cbe69"></path><path d="M443.734 468.526h-102.4a7.726 7.726 0 1 1 0-15.452h102.4a7.726 7.726 0 1 1 0 15.452z" fill="#c68a65"></path><path d="M110.933 183.345h34.133v42.911h-34.133z" fill="#5f5f6e"></path><path d="M121.373 183.345h23.694v42.911h-23.694z" fill="#46465c"></path><path d="M48.834 282.189v98.429h72.999l8.476-77.862v-20.567z" fill="#d65651"></path><path d="M224.233 290.149v90.469h-102.4v-90.469l51.2-50.83z" fill="#ff6e64"></path><path d="M200.539 266.626v113.992h23.694v-90.469z" fill="#d65651"></path><path d="m107.763 302.756-72.69-.002a8.52 8.52 0 0 1-7.105-3.799l-9.467-14.2a8.534 8.534 0 0 1 2.367-11.834L95.301 223.3a8.53 8.53 0 0 1 4.733-1.433h72.999v21.106l-66.088 39.217z" fill="#ffcd6e"></path><path d="M189.099 380.618h-33.133v-48.351a8 8 0 0 1 8-8h17.133a8 8 0 0 1 8 8z" fill="#d2e1e1"></path><path d="M181.858 324.267h-17.65c-1.068 0-2.085.21-3.022.58 3.055 1.206 5.22 4.178 5.22 7.662v48.11H190.1v-48.11a8.243 8.243 0 0 0-8.242-8.242z" fill="#afc4c8"></path><path d="m18.501 284.756 9.467 14.2a8.52 8.52 0 0 0 7.105 3.798l72.69.002-.818-20.567 15.617-9.267H20.868a8.533 8.533 0 0 0-2.367 11.834z" fill="#ffb45e"></path><path d="m223.962 295.12 15.166-2.248v-18.716l-66.096-46.114h-11.847l-67.32 44.88a8.533 8.533 0 0 0-2.366 11.834l9.466 14.2a8.534 8.534 0 0 0 11.834 2.367l55.5-37a8.533 8.533 0 0 1 9.467 0z" fill="#ffe68e"></path><path d="M252.199 272.922 177.766 223.3a8.533 8.533 0 0 0-9.467 0l-7.114 4.742 67.32 44.88a8.533 8.533 0 0 1 2.367 11.833l-6.91 10.364 9.304 6.202a8.534 8.534 0 0 0 11.834-2.367l9.467-14.2a8.533 8.533 0 0 0-2.368-11.832z" fill="#ffcd6e"></path><path d="M145.6 187.733h-35.2a8 8 0 0 1-8-8V161.6a8 8 0 0 1 8-8h35.2a8 8 0 0 1 8 8v18.133a8 8 0 0 1-8 8z" fill="#d2e1e1"></path><path d="M145.359 153.6h-23.694a8.242 8.242 0 0 1 8.242 8.242v17.65a8.242 8.242 0 0 1-8.242 8.241h23.694a8.24 8.24 0 0 0 8.241-8.241v-17.65a8.242 8.242 0 0 0-8.241-8.242z" fill="#afc4c8"></path><path d="M42.959 379.499v-4.032a8.24 8.24 0 0 0 8.241-8.241h3.915v-17.651H51.2a8.24 8.24 0 0 0-8.241-8.241h-17.65a8.242 8.242 0 0 0-8.242 8.241v17.651a8.241 8.241 0 0 0 8.242 8.241v4.032z" fill="#ffcd6e"></path><path d="M51.2 349.575a8.24 8.24 0 0 0-8.241-8.241h-17.65c-1.071 0-2.09.211-3.029.582 3.052 1.208 5.213 4.178 5.213 7.659v17.65c0 3.481-2.162 6.452-5.213 7.659a8.214 8.214 0 0 0 3.029.582v4.032h17.65v-4.032a8.24 8.24 0 0 0 8.241-8.241h3.915v-17.65z" fill="#ffb45e"></path><path d="M77.092 379.499v-4.032a8.24 8.24 0 0 0 8.241-8.241v-17.651a8.24 8.24 0 0 0-8.241-8.241h-17.65a8.242 8.242 0 0 0-8.242 8.241v17.651a8.241 8.241 0 0 0 8.242 8.241v4.032z" fill="#ffe68e"></path><path d="M77.092 341.333h-17.65c-1.068 0-2.085.21-3.022.579 3.055 1.206 5.22 4.178 5.22 7.662v17.65c0 3.484-2.165 6.456-5.22 7.662.937.37 1.954.58 3.022.58v4.032h17.65v-4.032a8.241 8.241 0 0 0 8.241-8.241v-17.65a8.241 8.241 0 0 0-8.241-8.242z" fill="#ffcd6e"></path><path d="M8.533 512h76.8c9.426 0 17.067-7.641 17.067-17.067s-7.641-17.067-17.067-17.067H68.267c-9.426 0-17.067-7.641-17.067-17.067s7.641-17.067 17.067-17.067h68.267c9.426 0 17.067-7.641 17.067-17.067s-7.641-17.067-17.067-17.067H0v93.867A8.534 8.534 0 0 0 8.533 512z" fill="#6bb2ff"></path><path d="M503.467 375.467H8.533A8.533 8.533 0 0 0 0 384v25.6h512V384a8.533 8.533 0 0 0-8.533-8.533z" fill="#8cbe69"></path><path d="M503.467 375.467h-23.694a8.533 8.533 0 0 1 8.533 8.533v25.6H512V384a8.533 8.533 0 0 0-8.533-8.533z" fill="#6ea573"></path><g fill="#5796ec"><path d="M85.333 477.867H68.267c-9.426 0-17.067-7.641-17.067-17.067s7.641-17.067 17.067-17.067H44.573c-9.426 0-17.067 7.641-17.067 17.067s7.641 17.067 17.067 17.067H61.64c9.425 0 17.067 7.641 17.067 17.067s-7.641 17.067-17.067 17.067h23.694c9.426 0 17.067-7.641 17.067-17.067-.001-9.426-7.642-17.067-17.068-17.067zM136.533 409.6h-23.694c9.426 0 17.067 7.641 17.067 17.067s-7.641 17.067-17.067 17.067h23.694c9.426 0 17.067-7.641 17.067-17.067s-7.641-17.067-17.067-17.067z" fill="#5796ec"></path></g><path d="M477.867 512h-34.133v-60.267a8 8 0 0 1 8-8h18.133a8 8 0 0 1 8 8z" fill="#ffbe90"></path><path d="M469.625 443.733h-17.65c-1.068 0-2.085.21-3.022.579a8.237 8.237 0 0 1 5.219 7.662V512h23.694v-60.025a8.24 8.24 0 0 0-8.241-8.242z" fill="#ffa96b"></path><path d="M409.6 512h-34.133v-60.267a8 8 0 0 1 8-8H401.6a8 8 0 0 1 8 8z" fill="#ffbe90"></path><path d="M401.359 443.733h-17.65c-1.068 0-2.085.21-3.022.579a8.237 8.237 0 0 1 5.219 7.662V512H409.6v-60.025a8.242 8.242 0 0 0-8.241-8.242z" fill="#ffa96b"></path><path d="M341.333 512H307.2v-60.267a8 8 0 0 1 8-8h18.133a8 8 0 0 1 8 8z" fill="#ffbe90"></path><path d="M333.092 443.733h-17.65c-1.068 0-2.085.21-3.022.579a8.237 8.237 0 0 1 5.219 7.662V512h23.694v-60.025a8.241 8.241 0 0 0-8.241-8.242z" fill="#ffa96b"></path><circle cx="213.333" cy="42.965" fill="#fecc6e" r="42.965" transform="rotate(-67.48 213.361 42.905)"></circle><path d="M114.689 25.6h-12.311c-1.376 0-2.635-.688-3.468-1.784-3.115-4.098-8.032-6.749-13.577-6.749-2.265 0-4.424.447-6.398 1.253-2.059.84-4.422-.124-5.439-2.101C68.541 6.589 58.509 0 46.933 0 32.695 0 20.792 9.966 17.8 23.302c-.341 1.521-1.386 2.823-2.873 3.29C6.294 29.306.025 37.353 0 46.877c-.031 11.766 10.071 21.39 21.837 21.39H115.2c12.04 0 21.751-9.974 21.32-22.111-.411-11.561-10.264-20.556-21.831-20.556zM397.311 42.667h12.311c1.376 0 2.635-.688 3.468-1.784 3.115-4.098 8.032-6.749 13.577-6.749 2.265 0 4.423.447 6.398 1.253 2.059.84 4.421-.124 5.439-2.101 4.956-9.63 14.987-16.218 26.563-16.218 14.238 0 26.142 9.966 29.133 23.301.341 1.521 1.385 2.823 2.872 3.29 8.634 2.714 14.903 10.761 14.928 20.285.031 11.766-10.071 21.39-21.837 21.39H396.8c-12.04 0-21.751-9.974-21.319-22.111.411-11.561 10.263-20.556 21.83-20.556z" fill="#fbfdff"></path><g fill="#cdf0ff"><path d="M136.52 46.155c-.411-11.56-10.263-20.555-21.831-20.555h-12.311c-1.376 0-2.635-.688-3.468-1.784-3.115-4.098-8.032-6.749-13.577-6.749-2.265 0-4.424.447-6.398 1.253-2.059.84-4.421-.124-5.439-2.101C68.54 6.589 58.509 0 46.933 0A29.71 29.71 0 0 0 35.1 2.46a29.975 29.975 0 0 1 14.703 13.758c1.018 1.977 3.38 2.941 5.439 2.101a16.888 16.888 0 0 1 6.398-1.253c5.545 0 10.462 2.651 13.576 6.749.833 1.096 2.092 1.784 3.468 1.784h12.311c11.568 0 21.42 8.995 21.831 20.555.432 12.137-9.279 22.111-21.319 22.111H115.2c12.04.002 21.751-9.973 21.32-22.11zM497.072 43.659c-1.487-.467-2.531-1.769-2.872-3.29-2.992-13.336-14.895-23.301-29.133-23.301-4.217 0-8.224.883-11.86 2.46 8.653 3.744 15.192 11.447 17.299 20.841.341 1.521 1.385 2.823 2.872 3.29 8.634 2.714 14.903 10.761 14.928 20.285.031 11.766-10.07 21.39-21.837 21.39h23.694c11.767 0 21.868-9.624 21.837-21.39-.025-9.525-6.294-17.571-14.928-20.285z" fill="#cdf0ff"></path></g><path d="M213.333 0c-4.111 0-8.082.59-11.847 1.668 17.965 5.145 31.118 21.68 31.118 41.298s-13.153 36.152-31.118 41.297a42.966 42.966 0 0 0 11.847 1.668c23.729 0 42.965-19.236 42.965-42.965C256.299 19.236 237.062 0 213.333 0z" fill="#feae5a"></path></g></svg>