<svg viewBox="0 0 497 497" xmlns="http://www.w3.org/2000/svg"><g><path d="M422.112 353.764c-1.24-5.862 1.676-18.972 2.652-24.885 10.366-62.836-22.22-76.84-57.724-83.833-4.434-.873-12.581-4.722-16.522-6.935-15.927-8.946-30.194-21.507-53.463-24.508a8.549 8.549 0 0 1-7.453-8.477v-35.063h-82.205v35.063a8.549 8.549 0 0 1-7.453 8.477c-12.105 1.561-23.034 3.892-32.978 7.029-9.17 2.893-7.067 21.989-14.708 26.281-3.941 2.213-23.403 12.117-27.837 12.991-35.504 6.993-54.493 14.284-44.127 77.12.975 5.912-4.122 11.871-5.361 17.733-4.153 19.638-16.198 35.241-16.601 55.415-.664 33.308 2.811 64.31 7.215 82.978a4.989 4.989 0 0 0 4.859 3.849h49.316a4.98 4.98 0 0 0 4.904-4.073c2.215-11.964 8.951-48.327 15.392-82.755 1.795-9.592-7.204-38.388-5.56-47.111 1.849 3.305 28.729 5.169 31.043 8.138 7.013 9 15.652 27.563 15.652 38.973l-4.696 66.367c0 3.454-1.889 11.478 1.565 11.478l123.913-3.652c3.454 0 10.435-21.85 10.435-25.304l-.783-50.348c0-11.41 10.465-22.305 17.478-31.304 2.314-2.97 31.03.837 32.879-2.468 1.644 8.722 4.75 23.605-4.965 35.231a48159.271 48159.271 0 0 1 15.392 82.755 4.98 4.98 0 0 0 4.904 4.073h49.316a4.989 4.989 0 0 0 4.859-3.849c4.403-18.668 7.879-49.67 7.215-82.978-9.063-19.058-12.4-36.77-16.553-56.408z" fill="#ffdfcf"></path><g fill="#ffcebf"><path d="M124.627 492.927c2.633-14.225 11.659-62.942 18.979-101.888-2.222-4.62-4.799-9.233-6.924-11.96-2.314-2.97-6.763-7.408-8.612-10.713-7.546 40.027-20.612 109.263-23.443 124.56a4.98 4.98 0 0 1-4.904 4.073h20a4.979 4.979 0 0 0 4.904-4.072zM331.771 382.415a74.584 74.584 0 0 1-6.247 9.43c-7.013 9-11.055 19.958-11.055 31.367v67.532a6.256 6.256 0 0 1-6.255 6.255h20a6.256 6.256 0 0 0 6.255-6.255v-67.532c0-4.985.772-9.885 2.226-14.572-1.697-9.064-3.368-17.967-4.924-26.225zM422.111 350.024c-1.24-5.863-1.61-13.451-.635-19.363 10.366-62.836-19.849-80.599-55.353-87.592-4.435-.873-8.754-2.435-12.695-4.649-7.641-4.292-18.416-4.291-23.396-17.787-9.943-3.137-20.873-5.468-32.978-7.029a8.55 8.55 0 0 1-7.452-8.477v-35.063h-20v44.063a8.55 8.55 0 0 0 7.452 8.477c23.269 3.001 42.194 8.847 58.121 17.793 3.94 2.213 8.223 3.729 12.658 4.602 35.504 6.993 72.258 23.691 61.893 86.527-.975 5.912-.774 11.952.466 17.815 11.009 52.062 6.331 113.836-.74 143.811a4.989 4.989 0 0 1-4.859 3.849h22a4.989 4.989 0 0 0 4.859-3.849c4.403-18.668 7.879-49.67 7.215-82.979-10.845-20.943-12.403-40.511-16.556-60.149z" fill="#ffcebf"></path></g><path d="M438.669 410.172H356.98c-1.63-8.702-3.236-17.288-4.749-25.32-.156-.83-1.257-1.031-1.693-.308a72.74 72.74 0 0 1-5.014 7.3c-7.014 9-11.055 19.953-11.055 31.367v67.532a6.255 6.255 0 0 1-6.255 6.255H168.787a6.255 6.255 0 0 1-6.255-6.255v-67.532c0-11.415-4.041-22.367-11.055-31.367a72.689 72.689 0 0 1-5.014-7.3c-.435-.724-1.536-.522-1.693.308-1.514 8.032-3.119 16.618-4.749 25.32h-81.69c.399-20.175 2.326-41.196 6.477-60.832 1.247-5.857 1.434-11.907.466-17.815-10.367-62.831 28.391-88.532 63.893-95.527 4.44-.868 8.717-2.397 12.658-4.602a121.572 121.572 0 0 1 7.42-3.838c7.162 4.678 10.904 1.957 14.311-5.795 1.126-.385 2.264-.759 3.415-1.122 12.173 29.455 44.082 50.478 81.529 50.478s69.356-21.023 81.529-50.478c1.151.363 2.29.737 3.415 1.122 2.543 8.861 10.315 12.021 14.311 5.795a121.563 121.563 0 0 1 7.42 3.837c3.941 2.205 8.217 3.734 12.658 4.602 35.501 6.995 74.26 32.696 63.893 95.527-.968 5.907-.782 11.958.466 17.815 4.151 19.647 6.078 40.658 6.477 60.833z" fill="#fea95c"></path><path d="m128.07 368.367-7.883 41.805h19.833c1.387-7.407 2.754-14.708 4.064-21.676-2.626-3.705-5.927-7.524-7.402-9.417-2.314-2.969-6.763-7.407-8.612-10.712zM432.192 349.34c-1.247-5.857-1.434-11.907-.466-17.815 10.367-62.831-28.391-88.532-63.893-95.527-4.44-.868-8.717-2.397-12.658-4.602a121.001 121.001 0 0 0-7.42-3.837c-6.011 9.134-12.625 6.048-14.311-5.795a148.438 148.438 0 0 0-3.415-1.122c-1.974 4.776-4.474 9.325-7.425 13.604a125.256 125.256 0 0 1 12.572 6.15c3.94 2.213 8.223 3.729 12.658 4.602 35.504 6.993 72.258 23.691 61.893 86.527-.975 5.912-.774 11.952.466 17.815 4.153 19.638 6.071 40.658 6.473 60.832h22.004c-.4-20.175-2.327-41.186-6.478-60.832z" fill="#fe7d43"></path><path d="m320.203 135.2 15.843-30.498a48.982 48.982 0 0 0 5.515-22.578V47.562c0-9.108-7.383-16.491-16.491-16.491h-4.031a6.83 6.83 0 0 1-6.829-6.829v-7.376C314.211 7.551 306.66 0 297.345 0H191.092c-19.691 0-35.654 15.963-35.654 35.654v46.47c0 7.86 1.891 15.604 5.515 22.578l15.843 30.498z" fill="#678d98"></path><path d="M327.759 109.083H169.241c-7.671 0-13.891 6.219-13.891 13.891v18.808c0 7.671 6.219 13.891 13.891 13.891H327.76c7.672 0 13.891-6.219 13.891-13.891v-18.808c-.001-7.672-6.22-13.891-13.892-13.891zM207.398 197.279l2.402 2.414a28.593 28.593 0 0 0 20.269 8.424h36.864a28.599 28.599 0 0 0 20.269-8.424l-3.072-7.325-.729-27.745-76.002-1.56v34.216z" fill="#ffcebf"></path><path d="M285.299 60.794H211.7c-13.807 0-25.001 11.193-25.001 25.001v72.029a20.971 20.971 0 0 0 6.106 14.793l16.993 17.076a28.592 28.592 0 0 0 20.268 8.424h36.864a28.595 28.595 0 0 0 20.268-8.424l16.993-17.076a20.97 20.97 0 0 0 6.106-14.793V85.795c.003-13.808-11.19-25.001-24.998-25.001z" fill="#ffdfcf"></path><path d="M285.299 60.794h-20c13.807 0 25 11.193 25 25v72.03a20.967 20.967 0 0 1-6.106 14.792L267.2 189.692a28.594 28.594 0 0 1-20.269 8.424h20a28.599 28.599 0 0 0 20.269-8.424l16.993-17.076a20.97 20.97 0 0 0 6.106-14.792v-72.03c.001-13.807-11.192-25-25-25z" fill="#ffcebf"></path><path d="M377.718 346.115c0-4.143-3.357-7.5-7.5-7.5s-7.5 3.357-7.5 7.5c0 13.829-4.13 26.951-11.958 38.182.508-.402 1.337-.158 1.471.555 1.141 6.058 2.335 12.431 3.553 18.932a46.14 46.14 0 0 1 4.678-7.356c11.289-14.503 17.256-31.902 17.256-50.313zM134.282 346.114c0-4.143-3.357-7.5-7.5-7.5s-7.5 3.357-7.5 7.5c0 18.414 5.967 35.812 17.257 50.313a46.142 46.142 0 0 1 4.677 7.357c1.217-6.5 2.411-12.874 3.553-18.932.134-.712.963-.957 1.471-.555-7.828-11.23-11.958-24.352-11.958-38.183z" fill="#fe7d43"></path><path d="M333.444 221.764c-4.108 31.959-18.61 58.96-43.185 80.334-19.917 17.323-39.352 24.284-39.546 24.353a7.47 7.47 0 0 0-2.214 1.237 7.474 7.474 0 0 0-2.226-1.241c-.19-.066-19.201-6.805-39.105-23.978-24.835-21.426-39.482-48.551-43.614-80.705a135.451 135.451 0 0 0-14.306 5.805c6.61 42.347 29.36 70.071 48.121 86.258 22.047 19.021 43.086 26.478 43.971 26.786a7.493 7.493 0 0 0 2.467.419 7.502 7.502 0 0 0 4.692-1.677 7.503 7.503 0 0 0 4.693 1.677c.817 0 1.65-.135 2.467-.419.885-.309 21.924-7.765 43.971-26.786 18.761-16.187 41.511-43.911 48.121-86.258a135.469 135.469 0 0 0-14.307-5.805z" fill="#678d98"></path><path d="M330.384 237.858a121.58 121.58 0 0 1 4.792 2.539c2.845 1.598 5.871 2.827 9.001 3.719a146.265 146.265 0 0 0 3.574-16.546 135.469 135.469 0 0 0-14.307-5.805 135.075 135.075 0 0 1-3.06 16.093z" fill="#4e737c"></path><path d="M274.801 351.728c0-14.771-12.177-26.698-27.04-26.291-14.326.393-25.562 12.507-25.562 26.838v59.095a6.032 6.032 0 0 0 6.032 6.032h21.282a6.032 6.032 0 0 0 6.032-6.032v-30.633c0-2.107 1.288-3.974 3.227-4.798 9.42-3.999 16.029-13.331 16.029-24.211z" fill="#dff6fd"></path></g></svg>