<svg viewBox="0 0 64 64" xmlns="http://www.w3.org/2000/svg"><g><path d="M27.889 42.8c0 8.247-5.572 19.2-12.444 19.2S3 51.047 3 42.8 8.572 30 15.444 30s12.445 4.553 12.445 12.8z" fill="#ffdbac"></path><path d="M9.389 46c-2.017 0-3.728-1.185-4.298-2.813-.203-.58.246-1.187.86-1.187h.21c.393 0 .704.269.856.631.33.795 1.269 1.369 2.372 1.369s2.041-.574 2.372-1.369c.151-.362.463-.631.856-.631h.21c.614 0 1.063.607.86 1.187C13.117 44.815 11.406 46 9.389 46zM21.389 46c-2.017 0-3.728-1.185-4.298-2.813-.203-.58.246-1.187.86-1.187h.21c.393 0 .704.269.856.631.33.795 1.269 1.369 2.372 1.369s2.041-.574 2.372-1.369c.151-.362.463-.631.856-.631h.21c.614 0 1.063.607.86 1.187-.57 1.628-2.281 2.813-4.298 2.813zM18.1 55h-5.2a.9.9 0 0 1-.9-.9v-.2a.9.9 0 0 1 .9-.9h5.2a.9.9 0 0 1 .9.9v.2a.9.9 0 0 1-.9.9z" fill="#404c59"></path><path d="M60.557 36H34.443a1 1 0 0 1-.936-1.351l2.25-6a1 1 0 0 1 .936-.649h21.614a1 1 0 0 1 .936.649l2.25 6A1 1 0 0 1 60.557 36zM58 24H37a2 2 0 0 1-2-2V4a2 2 0 0 1 2-2h21a2 2 0 0 1 2 2v18a2 2 0 0 1-2 2z" fill="#759acc"></path><path d="M38 5h19v16H38z" fill="#a1bde6"></path><path d="M9 35h12v4H9z" fill="#404c59"></path><path d="M20 35h-2V22c0-1.654 1.346-3 3-3h4v2h-4a1 1 0 0 0-1 1z" fill="#526273"></path><path d="M16 35h-2V20c0-2.757 2.243-5 5-5h6.111v2H19c-1.654 0-3 1.346-3 3z" fill="#526273"></path><path d="M12 35h-2V18c0-3.859 3.141-7 7-7h8v2h-8c-2.757 0-5 2.243-5 5zM29 13h6v2h-6zM29 17h6v2h-6z" fill="#526273"></path><path d="M48 18a1 1 0 0 1-.969-.758l-1.25-4.999-.852 2.128c-.153.38-.52.629-.929.629h-4v-2h3.323l1.748-4.371c.162-.403.572-.644.996-.627a.998.998 0 0 1 .902.756l1.345 5.377 1.791-3.582a.987.987 0 0 1 .966-.55.998.998 0 0 1 .877.681L52.721 13H55v2h-3a.997.997 0 0 1-.948-.684l-.237-.71-1.92 3.841A1.002 1.002 0 0 1 48 18z" fill="#404c59"></path><path d="M37 31h2v2h-2zM51 31h4v2h-4zM56 31h2v2h-2zM40 31h4v2h-4zM46 31h3v2h-3z" fill="#a1bde6"></path><path d="M25 9h4v14h-4z" fill="#404c59"></path></g></svg>