<svg viewBox="0 0 512 512" xmlns="http://www.w3.org/2000/svg"><g><path d="M4.97 178.71h500.58v177.45H4.97z" fill="#b7820b"></path><path d="M290.95 312.66C240.42 301.01 157.39 245.33 182.75.22L290.31 0z" fill="#6fd6a2"></path><path d="m291.09 383.13-183.54.38L106.77.38l75.97-.16c-25.36 245.11 57.67 300.79 108.2 312.44z" fill="#5abf8a"></path><path d="m219.06 359.63-39.57.08c-3.43-24.2-22.17-43.43-45.79-47.16l-.5-243.67c10.02-1.58 19.12-5.94 26.53-12.29a55.74 55.74 0 0 0 18.68-32.71l40.35-.08c4.26 23.25 22.52 41.26 45.39 44.82l.5 243.67c-4.29.7-8.41 1.88-12.27 3.54-17.56 7.45-30.58 23.96-33.32 43.8z" fill="#00b965"></path><path d="m219.06 359.63-39.57.08c-3.43-24.2-22.17-43.43-45.79-47.16l-.5-243.67c10.02-1.58 19.12-5.94 26.53-12.29a55.74 55.74 0 0 0 18.68-32.71h2.17c-14.8 187.65 37.84 255.31 84.05 279.17l.02 9.24c-4.29.7-8.41 1.88-12.27 3.54-17.56 7.45-30.58 23.96-33.32 43.8z" fill="#02a054"></path><path d="M199.04 245.99c-30.11.06-54.68-24.45-54.74-54.56 0-2.26.12-4.47.42-6.68 2.09-17.53 12.56-32.57 27.25-40.93 7.93-4.49 17.08-7.11 26.84-7.13 27.9-.06 51.03 20.94 54.29 47.96.31 2.17.44 4.34.45 6.55.06 28.68-22.11 52.33-50.26 54.56-1.38.18-2.81.22-4.25.23z" fill="#ef940f"></path><path d="M199.02 232.67c-27.9.06-51.03-20.9-54.29-47.92 2.09-17.53 12.56-32.57 27.25-40.93 7.93-4.49 17.08-7.11 26.84-7.13 27.9-.06 51.03 20.94 54.29 47.96-3.07 25.61-23.94 45.78-49.84 47.79-1.39.18-2.82.22-4.25.23z" fill="#ffa812"></path><path d="M189.31 211.94c-1.24.28-2.56.41-3.92.41-8.84.02-16.34-5.69-19.28-13.57l-4.56.01c-3.88.01-7.05-3.11-7.06-6.95-.01-3.88 3.15-7.01 7.03-7.02l4.52-.01a20.498 20.498 0 0 1 11.86-12.19c2.28-.93 4.84-1.45 7.4-1.46 3.88-.01 7.05 3.15 7.06 7.03s-3.15 6.97-7.03 6.98c-1.44 0-2.8.53-3.92 1.37-.4.28-.72.64-1.08 1-.72.84-1.52 2.24-1.51 4.25.01 3.4 2.61 6.2 5.94 6.47.2.08.44.08.6.08 3.64-.01 6.6-2.98 6.59-6.58 0-.52 0-.96.12-1.44.7-10.65 9.53-19.19 20.41-19.21 8.84-.02 16.38 5.69 19.28 13.57l4.56-.01c3.88-.01 7.05 3.11 7.06 6.99.01 3.84-3.15 6.97-7.03 6.98l-4.56.01c-2.87 7.89-10.38 13.63-19.22 13.65-3.88.01-7.05-3.15-7.06-7.03s3.15-6.97 7.03-6.98c3.6-.01 6.56-2.98 6.55-6.58-.01-3.64-2.98-6.6-6.58-6.59s-6.56 2.98-6.55 6.62c0 .48-.04.92-.16 1.4-.62 9.32-7.49 17.06-16.49 18.8z" fill="#6d6e71"></path><path d="M199.18 315.04c-4.73.01-8.51-3.8-8.52-8.49l-.05-23.08c-.01-4.73 3.76-8.6 8.49-8.61s8.51 3.84 8.52 8.57l.05 23.08a8.497 8.497 0 0 1-8.49 8.53z" fill="#d1d3d4"></path><path d="M198.76 108.6c-4.73.01-8.51-3.8-8.52-8.49l-.05-23.13c-.01-4.73 3.76-8.51 8.49-8.52s8.51 3.76 8.52 8.49l.05 23.13a8.489 8.489 0 0 1-8.49 8.52z" fill="#f1f2f2"></path><path d="M380.74 383.66c-38.98-28.89-89.39-107.7 24.03-308.47l92.35 40.04z" fill="#6fd6a2"></path><path d="m354.52 444.16-157.57-68.32 142.6-328.93 65.23 28.28c-113.42 200.77-63.02 279.58-24.03 308.47z" fill="#5abf8a"></path><path d="m301.52 397.07-33.97-14.73c6.11-22.05-2.78-45.55-21.64-57.57l90.7-209.21c9.19 2.39 18.62 2.06 27.35-.62 11.27-3.43 21.36-10.7 28.25-21.07l34.64 15.02c-5.04 21.53 3.88 43.81 22.17 55.42l-90.7 209.21c-3.95-1-7.92-1.53-11.85-1.55-17.84-.19-35.19 9.1-44.95 25.1z" fill="#00b965"></path><path d="m301.52 397.07-33.97-14.73c6.11-22.05-2.78-45.55-21.64-57.57l90.7-209.21c9.19 2.39 18.62 2.06 27.35-.62 11.27-3.43 21.36-10.7 28.25-21.07l1.86.81c-82.87 155.42-63.03 233.15-32.31 270.9l-3.44 7.93c-3.95-1-7.92-1.53-11.85-1.55-17.84-.18-35.19 9.11-44.95 25.11z" fill="#02a054"></path><path d="M326.85 292.1c-25.85-11.21-37.76-41.42-26.55-67.27.84-1.94 1.78-3.79 2.86-5.58 8.35-14.26 22.95-23.24 38.68-24.92 8.48-.88 17.31.29 25.69 3.93 23.95 10.38 35.94 37.04 28.63 61.45-.55 1.98-1.24 3.89-2.07 5.79-10.68 24.62-38.53 36.62-63.52 28-1.25-.37-2.5-.87-3.72-1.4z" fill="#ef940f"></path><path d="M331.8 280.66c-23.95-10.38-35.95-37.01-28.65-61.41 8.35-14.26 22.95-23.24 38.68-24.92 8.48-.88 17.31.29 25.69 3.93 23.95 10.38 35.94 37.04 28.63 61.45-12.21 20.82-37.66 30.32-60.63 22.35-1.24-.37-2.49-.86-3.72-1.4z" fill="#ffa812"></path><path d="M331.23 259.25c-1.17-.22-2.35-.61-3.52-1.12-7.59-3.29-11.89-10.99-11.46-18.85l-3.92-1.7c-3.33-1.45-4.89-5.3-3.46-8.6 1.45-3.33 5.32-4.84 8.65-3.39l3.88 1.68c1.52-1.63 3.33-2.97 5.37-4 2.92-1.47 6.16-2.15 9.37-2.02 2.3.06 4.69.57 6.89 1.52 3.33 1.44 4.87 5.34 3.43 8.67-1.45 3.33-5.31 4.8-8.64 3.36-1.24-.54-2.6-.6-3.87-.29-.45.09-.86.28-1.3.46-.93.45-2.14 1.36-2.88 3.08-1.27 2.92-.08 6.29 2.67 7.77.14.14.35.23.49.29 3.13 1.36 6.77-.08 8.11-3.18.19-.45.36-.82.64-1.19 4.58-8.87 15.35-12.9 24.69-8.85 7.59 3.29 11.92 11.01 11.46 18.85l3.92 1.7c3.33 1.44 4.89 5.3 3.44 8.64-1.43 3.3-5.31 4.8-8.64 3.36l-3.92-1.7c-5.41 5.7-14 7.81-21.59 4.52-3.33-1.44-4.87-5.34-3.43-8.67 1.45-3.33 5.31-4.8 8.64-3.36 3.09 1.34 6.74-.1 8.08-3.19 1.36-3.13-.08-6.77-3.18-8.11-3.09-1.34-6.74.1-8.09 3.23-.18.41-.38.78-.66 1.14-4.01 7.76-12.8 11.83-21.17 9.95z" fill="#6d6e71"></path><path d="M301.14 351.38a7.952 7.952 0 0 1-4.14-10.47l8.59-19.82c1.76-4.06 6.44-5.97 10.5-4.21s5.86 6.48 4.1 10.54l-8.59 19.82a7.93 7.93 0 0 1-10.46 4.14z" fill="#d1d3d4"></path><path d="M377.98 174.15a7.952 7.952 0 0 1-4.14-10.47l8.61-19.85c1.76-4.06 6.41-5.9 10.47-4.14s5.9 6.41 4.14 10.47l-8.61 19.85a7.944 7.944 0 0 1-10.47 4.14z" fill="#f1f2f2"></path><path d="M374.91 221.2c-1.71-.24-3.24-.94-4.54-1.89 1.6.53 3.13 1.18 4.54 1.89z" fill="#ffa812"></path><path d="M505.55 178.71v331.11l-38.12-40.36-138.01-146.08L467.43 210z" fill="#efbb48"></path><path d="M467.43 210v259.46L329.42 323.38z" fill="#ffd15b"></path><path d="M507.03 511.47H5.51L38.98 476l143.25-151.68 53.62 44.02c5.6 4.6 12.49 6.84 19.39 6.84 6.89 0 13.79-2.3 19.45-6.84l54.74-44.96L473.56 476z" fill="#ed900a"></path><path d="M473.56 476H38.98l143.25-151.68 53.62 44.02c5.6 4.6 12.49 6.84 19.39 6.84 6.89 0 13.79-2.3 19.45-6.84l54.74-44.96z" fill="#fea613"></path><path d="M182.22 324.32 45.4 469.22 4.97 512V178.71l40.43 33.24z" fill="#efbb48"></path><path d="M182.22 324.32 45.4 469.22V211.95z" fill="#ffd15b"></path></g></svg>