<svg viewBox="0 0 512.035 512.035" xmlns="http://www.w3.org/2000/svg"><g><path d="M190.956 0C122.946 0 67.615 55.331 67.615 123.341c0 3.723.168 7.445.501 11.147-16.369 3.655-31.362 11.976-43.319 24.234C8.814 175.107.013 196.738.013 219.631c0 48.122 39.15 87.271 87.271 87.271h168.733l20-133.552-20-154.7C236.924 6.77 214.523 0 190.956 0z" fill="#8aa9b5"></path><path d="M486.876 158.351c-12.925-13.096-29.296-21.612-47.094-24.688-6.626-43.702-44.449-77.304-89.972-77.304-17.141 0-33.515 4.691-47.706 13.471-10.279-21.3-26.431-38.948-46.087-51.179v288.252H424.75c48.122 0 87.271-39.15 87.271-87.272.001-23.087-8.929-44.85-25.145-61.28z" fill="#77919c"></path><path d="M129.899 512.035a15 15 0 0 1-15.002-15.001V384.701l-99.882-.034c-5.327-.002-10.253-2.828-12.942-7.426s-2.739-10.277-.131-14.921l115.239-205.135a15 15 0 0 1 28.078 7.347V276.86h97.484a14.998 14.998 0 0 1 13.143 22.229L143.041 504.263a15.006 15.006 0 0 1-13.142 7.772z" fill="#ffc649"></path><g fill="#5ebdff"><path d="M373.973 361.147c-19.299 0-35-15.701-35-35 0-2.945 0-11.908 15.88-35.001 7.551-10.98 14.995-19.775 15.309-20.144.951-1.121 2.341-1.764 3.812-1.764s2.86.643 3.812 1.765c.312.368 7.757 9.163 15.307 20.143 15.881 23.093 15.881 32.056 15.881 35.001-.001 19.298-15.703 35-35.001 35zM373.973 502.147c-19.299 0-35-15.701-35-35 0-2.945 0-11.908 15.88-35.001 7.551-10.98 14.995-19.775 15.309-20.144.951-1.121 2.341-1.764 3.812-1.764s2.86.643 3.812 1.765c.312.368 7.757 9.163 15.307 20.143 15.881 23.093 15.881 32.056 15.881 35.001-.001 19.298-15.703 35-35.001 35zM281.473 434.147c-19.299 0-35-15.701-35-35 0-2.945 0-11.908 15.88-35.001 7.551-10.98 14.995-19.775 15.309-20.144.951-1.121 2.341-1.764 3.812-1.764s2.86.643 3.812 1.765c.312.368 7.757 9.163 15.307 20.143 15.881 23.093 15.881 32.056 15.881 35.001-.001 19.298-15.703 35-35.001 35zM466.473 434.147c-19.299 0-35-15.701-35-35 0-2.945 0-11.908 15.88-35.001 7.551-10.98 14.995-19.775 15.309-20.144.951-1.121 2.341-1.764 3.812-1.764s2.86.643 3.812 1.765c.312.368 7.757 9.163 15.307 20.143 15.881 23.093 15.881 32.056 15.881 35.001-.001 19.298-15.703 35-35.001 35z" fill="#5ebdff"></path></g></g></svg>