<svg viewBox="0 0 511.969 511.969" xmlns="http://www.w3.org/2000/svg"><g><path d="M145.433 481.194V227.805c0-6.912 5.604-12.516 12.516-12.516h70.46c6.912 0 12.516 5.604 12.516 12.516v253.389h-95.492zM19.821 481.194V148.707c0-6.912 5.604-12.516 12.516-12.516h70.46c6.912 0 12.516 5.604 12.516 12.516v332.487H19.821zM396.655 481.194v-95.192c0-6.912 5.604-12.516 12.516-12.516h70.46c6.912 0 12.516 5.603 12.516 12.516v95.192h-95.492zM271.044 481.194v-174.29c0-6.912 5.604-12.516 12.516-12.516h70.46c6.912 0 12.516 5.604 12.516 12.516v174.29h-95.492z" fill="#ff6b6b"></path><path d="m452.083 293.463-43.092.924c-3.802.082-6.131-4.139-4.036-7.312l7.852-11.891L59.877 42.112c-4.732-3.125-6.035-9.495-2.91-14.227s9.494-6.035 14.227-2.91l352.931 233.072 7.853-11.891c2.095-3.173 6.892-2.688 8.31.84l16.07 39.994c1.228 3.059-.979 6.402-4.275 6.473z" fill="#ccd2db"></path><path d="M187.948 215.29h-30c-6.912 0-12.516 5.604-12.516 12.516v253.389h30v-253.39c.001-6.912 5.604-12.515 12.516-12.515zM62.337 136.191h-30c-6.912 0-12.516 5.604-12.516 12.516v332.487h30V148.707c0-6.912 5.604-12.516 12.516-12.516zM439.171 373.487h-30c-6.912 0-12.516 5.604-12.516 12.516v95.192h30v-95.192c0-6.913 5.604-12.516 12.516-12.516zM313.56 294.388h-30c-6.912 0-12.516 5.604-12.516 12.516v174.29h30v-174.29c0-6.912 5.603-12.516 12.516-12.516z" fill="#ee5253"></path><path d="M504.469 488.694H7.5c-4.142 0-7.5-3.357-7.5-7.5s3.358-7.5 7.5-7.5h496.969c4.142 0 7.5 3.357 7.5 7.5s-3.358 7.5-7.5 7.5z" fill="#ee5253"></path></g></svg>