<svg viewBox="0 0 512 512" xmlns="http://www.w3.org/2000/svg"><g><path d="m441.843 80.109 31.07-2.608-2.509-29.895-84.979 7.132 7.133 84.979 29.895-2.509-3.124-37.224c39.937 41.746 62.374 97.104 62.374 155.866 0 60.327-23.493 117.043-66.15 159.701s-99.374 66.15-159.701 66.15S138.808 458.21 96.15 415.553 30 316.179 30 255.852 53.493 138.808 96.15 96.15 195.524 30 255.852 30V0c-68.34 0-132.59 26.613-180.914 74.938C26.613 123.261 0 187.511 0 255.852s26.613 132.59 74.938 180.914c48.324 48.324 112.574 74.938 180.914 74.938s132.59-26.613 180.914-74.938c48.324-48.324 74.938-112.574 74.938-180.914-.001-66.177-25.115-128.548-69.861-175.743z" fill="#ffe705"></path><circle cx="255.852" cy="255.852" fill="#f9f9f9" r="143.74"></circle><path d="M255.852 112.111v287.481c79.386 0 143.74-64.355 143.74-143.74s-64.355-143.741-143.74-143.741z" fill="#eceae7"></path><path d="M240.852 112.111h30v43.013h-30z" fill="#e7dfdd"></path><path d="M255.852 112.111h15v43.013h-15z" fill="#dad0cb"></path><path d="M240.852 356.579h30v43.013h-30z" fill="#e7dfdd"></path><path d="M255.852 356.579h15v43.013h-15z" fill="#dad0cb"></path><path d="M356.579 240.852h43.013v30h-43.013z" fill="#e7dfdd"></path><path d="M356.579 240.852h43.013v30h-43.013z" fill="#dad0cb"></path><path d="M112.111 240.852h43.013v30h-43.013z" fill="#e7dfdd"></path><path d="M255.852 414.592c-87.53 0-158.74-71.21-158.74-158.74s71.21-158.74 158.74-158.74 158.74 71.21 158.74 158.74-71.211 158.74-158.74 158.74zm0-287.481c-70.988 0-128.74 57.752-128.74 128.74s57.752 128.74 128.74 128.74 128.74-57.752 128.74-128.74-57.753-128.74-128.74-128.74z" fill="#7dd5f4"></path><path d="m219.905 305.702-19.316-22.955 40.263-33.877v-74.519h30v88.482z" fill="#454545"></path><path d="M255.852 97.111v30c70.988 0 128.74 57.752 128.74 128.74s-57.752 128.74-128.74 128.74v30c87.53 0 158.74-71.21 158.74-158.74s-71.211-158.74-158.74-158.74z" fill="#6ba7ff"></path><path d="M270.852 174.351h-15v101.104l15-12.622z" fill="#2e2e2e"></path><path d="m441.843 80.109 31.07-2.608-2.509-29.895-84.979 7.132 7.133 84.979 29.895-2.509-3.124-37.224c39.937 41.746 62.374 97.104 62.374 155.866 0 60.327-23.493 117.043-66.15 159.701s-99.374 66.15-159.701 66.15v30c68.34 0 132.59-26.613 180.914-74.938 48.324-48.324 74.938-112.574 74.938-180.914-.001-66.174-25.115-128.545-69.861-175.74z" fill="#ecbe00"></path></g></svg>