<svg viewBox="0 0 512 512" xmlns="http://www.w3.org/2000/svg"><g><path d="M446.108 320.208s33.697-23.392 33.697-63.826c0-33.136-24.976-47.222-24.976-47.222 4.136-30.102-16.335-46.388-16.335-46.388h-56.551v157.436z" fill="#4e5a61"></path><path d="m430.874 248.298-38.206-32.708H284.203v164.829h146.671z" fill="#dc8995"></path><path d="M368.802 285.479c-8.534 0-15.453 6.918-15.453 15.453v58.829c0 5.691-4.798 10.262-10.569 9.888-5.267-.341-9.25-4.95-9.25-10.228v-10.603c0-24.903-5.063-34.144-12.379-37.853-7.315-3.708-15.97 1.567-15.97 1.567v-40.547c0-5.4-.46-10.61-1.322-15.621 7.558 6.164 26.708 20.148 49.003 20.148 18.306 0 33.797-8.311 46.504-18.157 5.868-4.547 11.102-9.393 15.695-14.7 6.188 10.017 9.623 37.65 10.291 67.12l20.688 9.385c-.575-30.811-4-59.889-10.277-70.05-24.016-38.876-87.654-73.678-87.654-73.678l-147.824 78.312v213.767l160.59 33.186h63.605s20.359-44.933 11.284-92.784l-61.811-88.705V290.63a5.15 5.15 0 0 0-5.151-5.151z" fill="#d5717f"></path><path d="M435.764 408.914h-21.821c10.974 21.905 11.831 47.499 8.767 69.283-1.067 7.59-7.625 13.2-15.29 13.2H307.053V512h118.3c6.49 0 12.157-4.386 13.773-10.671 6.316-24.566 10.049-62.04-3.362-92.415z" fill="#cd5668"></path><path d="M246.016 174.859c-13.056-.901-28.348-14.378-28.348-41.151 0-19.687 5.063-26.993 12.378-29.925s15.97 1.27 15.97 7.754h172.485c0-6.484 8.654-10.686 15.97-7.754 7.315 2.932 12.378 10.238 12.378 29.925 0 26.772-15.291 40.25-28.348 41.151z" fill="#c38778"></path><path d="M246.016 85.407v12.35l172.298 26.258c0-43.365-15.385-90.775-37.481-111.284C367.447 4.547 350.997 0 332.259 0c-51.803 0-86.243 34.596-86.243 85.407z" fill="#5f6c75"></path><path d="M380.833 12.73c10.76 15.086 15.504 36.265 16.728 59.504l20.94 56.936V85.407c0-32.431-14.047-58.237-37.668-72.677zM363.125 31.165c-3.817-1.098-7.882.161-10.713 2.946-25.421 25.008-77.443 36.073-106.395 63.646v47.018c23.17-39.966 125.016-51.449 125.016-100.781 0-8.455-3.969-11.695-7.908-12.829z" fill="#4e5a61"></path><path d="M408.199 144.775c0-46.592-3.757-62.111-10.638-72.541-12.722-17.474-26.528-28.24-26.528-28.24-38.774 43.85-125.016 46.716-125.016 100.781 0 46.592 13.613 72.736 39.738 92.979 10.25 7.942 22.314 14.879 36.202 17.267 20.626 0 36.254-9.325 46.504-17.267 26.125-20.243 39.738-46.387 39.738-92.979z" fill="#d79b8c"></path><path d="M397.898 85.407v59.367c0 46.592-13.613 72.736-39.738 92.979-10.25 7.942-22.314 14.879-36.202 17.267 3.33.573 6.762.89 10.302.89 18.306 0 33.797-8.311 46.504-18.157 26.125-20.242 39.738-46.387 39.738-92.979V129.17c0-22.194-10.074-42.011-20.94-56.936.227 4.329.336 8.728.336 13.173z" fill="#c38778"></path><path d="M425.462 398.612c7.631-12.353 8.035-62.742-.11-87.835-17.425-4.254-36.668-1.118-51.399 9.431v54.561a7.726 7.726 0 0 1-2.31 5.51l-52.154 51.275 19.168 34.181c19.815-6.88 69.05-38.382 86.805-67.123z" fill="#f7f9fa"></path><path d="M446.04 320.162c-6.247-4.46-13.305-7.582-20.688-9.385.824 36.343-2.561 75.482-10.192 87.835-17.755 28.741-57.162 55.252-76.504 67.123l9.453 16.857s63.639-34.802 87.654-73.678c7.543-12.209 10.968-51.731 10.277-88.752z" fill="#dce6eb"></path><circle cx="105.333" cy="449.634" fill="#c38778" r="48.934"></circle><path d="M355.519 440.323c0-7.011-7.261-21.777-14.443-30.003a48.71 48.71 0 0 0-29.136-9.62c-27.026 0-48.934 21.908-48.934 48.934a48.74 48.74 0 0 0 4.141 19.701c8.14 6.043 28.521 19.922 39.438 19.922 27.026 0 48.934-21.909 48.934-48.934z" fill="#d79b8c"></path><path d="M341.077 410.32a48.74 48.74 0 0 1 4.141 19.701c0 27.025-21.909 48.934-48.934 48.934a48.708 48.708 0 0 1-29.136-9.62c7.581 17.212 24.779 29.233 44.793 29.233 27.025 0 48.934-21.909 48.934-48.934 0-16.109-7.787-30.397-19.798-39.314z" fill="#c38778"></path><path d="M298.906 437.321a252.264 252.264 0 0 0-3.262-1.656l-168.317-11.25h-10.862s-42.236 15.365-61.682 35.25c-9.152 9.359-16.176 21.499-21.049 31.732l312.717 10.302c.001-.001-14.867-42.035-47.545-64.378z" fill="#f7f9fa"></path><path d="M360.875 512s-9.845-32.451-29.291-52.336c-8.391-8.58-21.024-16.317-32.678-22.343 0 0 17.22 21.997 22.053 31.878 5.013 10.249-2.498 22.198-13.907 22.198H33.735l-.164.345C29.113 501.156 36.028 512 46.445 512z" fill="#dce6eb"></path><path d="M127.328 424.414c11.794 34.802 43.854 64.701 86.46 64.701 37.929 0 67.5-23.696 81.857-53.451-13.973-6.967-25.743-11.25-25.743-11.25z" fill="#dce6eb"></path><path d="M321.142 175.857c6.767 2.842 15.466 2.842 22.233 0s8.667-9.159 6.254-14.785l-6.259-14.592c-4.189-9.767-18.035-9.767-22.224 0l-6.259 14.592c-2.411 5.626-.512 11.944 6.255 14.785z" fill="#c38778"></path><path d="M293.711 189.384a7.726 7.726 0 0 0-.059 10.927c10.881 10.999 23.87 16.576 38.608 16.576 14.736 0 27.725-5.577 38.608-16.576a7.727 7.727 0 1 0-10.986-10.868c-7.983 8.068-17.018 11.991-27.622 11.991-10.605 0-19.64-3.923-27.622-11.991a7.727 7.727 0 0 0-10.927-.059z" fill="#d5717f"></path><path d="M363.679 106.169c5.535-3.964 13.883-3.964 19.418 0a7.723 7.723 0 0 0 10.781-1.782 7.727 7.727 0 0 0-1.783-10.781c-11.016-7.887-26.398-7.887-37.414 0a7.727 7.727 0 1 0 8.998 12.563zM300.839 106.169c-5.535-3.964-13.883-3.964-19.419 0a7.723 7.723 0 0 1-10.781-1.782 7.727 7.727 0 0 1 1.783-10.781c11.016-7.887 26.398-7.887 37.414 0a7.727 7.727 0 0 1-8.997 12.563zM371.033 114.206a7.725 7.725 0 0 0-7.726 7.726v14.476a7.726 7.726 0 1 0 15.452 0v-14.476a7.726 7.726 0 0 0-7.726-7.726zM293.484 144.135a7.725 7.725 0 0 0 7.726-7.726v-14.476a7.726 7.726 0 1 0-15.452 0v14.476a7.726 7.726 0 0 0 7.726 7.726z" fill="#4e5a61"></path><path d="M101.791 374.721c-18.551-1.619-28.348-22.586-28.348-46.506 0-24.903 5.063-34.144 12.378-37.853s15.97 1.607 15.97 9.809h182.787c0-8.202 8.654-13.517 15.97-9.809 7.315 3.709 12.378 12.95 12.378 37.853 0 23.919-9.797 44.887-28.348 46.506z" fill="#ebae9d"></path><path d="M274.276 374.721V271.987c0-28.312-11.269-57.043-30.987-72.68-14.246-8.182-31.369-12.728-50.105-12.728-51.802 0-91.393 34.596-91.393 85.407V374.72c0 42.407 32.507 87.533 81.092 93.193 48.493.001 91.393-50.785 91.393-93.192z" fill="#ffcdbe"></path><path d="M243.289 199.307c14.465 17.896 20.685 44.367 20.685 72.68v102.734c0 42.407-32.507 87.533-81.092 93.193 3.359.391 6.794.598 10.302.598 54.238 0 91.393-48.452 91.393-93.791V271.987c.001-32.434-16.146-58.24-41.288-72.68z" fill="#ebae9d"></path><path d="M220.378 416.165c-6.779 12.726-22.528 13.715-27.193 13.715-18.454 0-25.48-10.498-27.194-13.715-2.004-3.766-6.684-5.193-10.451-3.187s-5.193 6.685-3.187 10.451c2.736 5.139 13.77 21.904 40.832 21.904 27.061 0 38.095-16.766 40.831-21.904a7.726 7.726 0 0 0-3.187-10.451 7.724 7.724 0 0 0-10.451 3.187z" fill="#ebae9d"></path><g fill="#9d6c6c"><path d="M181.469 263.361a7.728 7.728 0 0 0-9.731 4.969c-.742 2.291-3.493 5.698-8.029 5.698h-31.012a7.726 7.726 0 1 0 0 15.452h31.012c11.969 0 20.172-8.495 22.729-16.388a7.726 7.726 0 0 0-4.969-9.731zM261.399 281.755a7.725 7.725 0 0 0-7.726-7.726H222.66c-4.537 0-7.287-3.407-8.028-5.697a7.732 7.732 0 0 0-9.731-4.971 7.728 7.728 0 0 0-4.971 9.731c2.556 7.893 10.76 16.389 22.73 16.389h31.012a7.726 7.726 0 0 0 7.727-7.726zM229.872 301.843a7.726 7.726 0 1 0 0 15.452h14.476a7.726 7.726 0 1 0 0-15.452zM156.497 317.296a7.726 7.726 0 1 0 0-15.452h-14.476a7.726 7.726 0 1 0 0 15.452zM238.034 362.356c-4.231-4.065-11.396-9.441-23.133-18.57h-43.433c-16.886 13.134-24.309 18.5-27.145 23.37 5.519 10.052 22.256 16.598 46.771 16.598 33.819 0 45.991-9.972 46.94-21.398z" fill="#9d6c6c"></path></g><path d="M238.034 362.356c-7.115 10.056-23.183 13.157-46.94 13.157-17.221 0-36.827-2.644-46.771-8.356-1.105 1.898-1.514 3.721-1.514 5.899 0 10.515 13.048 21.001 48.285 21.001s52.466-10.486 52.466-21.001c0-3.883-1.298-6.637-5.526-10.7z" fill="#785252"></path><path d="M179.286 362.27c8.46 3.553 19.335 3.553 27.796 0 8.46-3.553 10.835-11.451 7.819-18.484l-10.865-25.332c-3.902-9.099-17.802-9.099-21.704 0l-10.864 25.332c-3.017 7.033-.642 14.931 7.818 18.484z" fill="#ebae9d"></path></g></svg>