<svg viewBox="0 0 497 497" xmlns="http://www.w3.org/2000/svg"><g><path d="M389.036 497c-13.929-69.8-29.498-104.722-55.736-170.017l-12.466-29.259H175.5l-11.799 29.259C137.462 392.278 121.893 427.2 107.964 497z" fill="#fcd1b3"></path><path d="m333.299 326.983-12.466-29.259h-30l12.466 29.259C329.538 392.278 345.107 427.2 359.036 497h30c-13.929-69.8-29.498-104.722-55.737-170.017z" fill="#fcc29a"></path><path d="M249.009 443.28a7.5 7.5 0 0 1-7.5-7.5v-43.614a7.5 7.5 0 0 1 15 0v43.614a7.5 7.5 0 0 1-7.5 7.5z" fill="#f7c000"></path><path d="M249.009 400.999c67.063 0 95.672-37.718 95.672-37.718l2.294-2.385c-4.224-10.525-8.763-21.686-13.676-33.912l-12.466-29.259H175.5l-11.799 29.259c-4.924 12.254-9.472 23.437-13.705 33.983l2.191 2.315c0-.001 29.759 37.717 96.822 37.717z" fill="#fc7743"></path><path d="m333.299 326.983-12.466-29.259H175.5l-9.515 23.595h135.444l12.466 29.259c4.189 10.425 8.104 20.071 11.786 29.213 12.969-8.584 19.001-16.51 19.001-16.51l2.294-2.385c-4.225-10.525-8.764-21.686-13.677-33.913z" fill="#fc5d1e"></path><path d="M281.439 352.598c0 11.8-9.583 21.366-21.404 21.366h-23.07c-11.821 0-21.404-9.566-21.404-21.366v-29.431h65.879v29.431z" fill="#e09a6c"></path><path d="M248.5 308.127v20.748c0 13.223 10.739 23.942 23.985 23.942a70.628 70.628 0 0 0 49.895-20.63l1.315-1.313a70.372 70.372 0 0 0 20.667-49.806c0-4.793-.53-9.526-1.554-14.124l.169-.038 31.855-196.74c0 1.43-69.472-41.394-69.472-41.394a115.045 115.045 0 0 0-29.723-11.754 115.148 115.148 0 0 0-54.277 0 115.06 115.06 0 0 0-29.723 11.754L121.5 64.167c.233 2.665 32.522 202.74 32.522 202.74l.065.181a68.076 68.076 0 0 0-1.45 13.98 70.372 70.372 0 0 0 20.667 49.806l1.315 1.313a70.628 70.628 0 0 0 49.895 20.63c13.247 0 23.985-10.719 23.985-23.942v-20.748" fill="#fcd1b3"></path><path d="m342.978 266.906 31.855-196.74c0 1.43-69.472-41.394-69.472-41.394a115.052 115.052 0 0 0-29.722-11.754 115.125 115.125 0 0 0-42.138-2.25c4.073.535 8.126 1.277 12.138 2.25a115.003 115.003 0 0 1 29.722 11.754s69.472 42.823 69.472 41.394l-31.855 196.74-.169.038a64.943 64.943 0 0 1 1.554 14.124 70.372 70.372 0 0 1-20.667 49.806l-1.315 1.313c-8.635 8.62-19.284 14.755-30.838 17.991a23.908 23.908 0 0 0 10.942 2.639 70.628 70.628 0 0 0 49.895-20.63l1.315-1.313a70.372 70.372 0 0 0 20.667-49.806c0-4.793-.53-9.526-1.554-14.124z" fill="#fcc29a"></path><path d="M216.031 170.153a7.504 7.504 0 0 1-7.072-5.005c-.095-.26-3.856-10.349-11.726-13.318-10.785-4.068-17.946 2.333-18.015 2.398-7.033 6.676-17.36-4.2-10.328-10.878.562-.533 13.979-12.97 33.637-5.555 14.559 5.492 20.348 21.702 20.587 22.39 1.577 4.529-2.426 9.968-7.083 9.968zM280.486 17.782l27.111-15.876A13.916 13.916 0 0 1 319.358.829l91.013 32.907c7.053 2.55 10.805 10.23 8.474 17.347l-30.375 92.762c-2.133 6.514-10.252 8.71-15.386 4.16-18.413-16.322-54.539-55.336-67.732-119.214z" fill="#b55c22"></path><path d="M410.371 33.736 319.358.829a13.916 13.916 0 0 0-11.761 1.077l-5.825 3.411 78.599 28.418c7.053 2.55 10.805 10.23 8.474 17.348l-27.885 85.155a193.325 193.325 0 0 0 12.123 11.766c5.134 4.551 13.253 2.355 15.386-4.159l30.375-92.762c2.331-7.117-1.42-14.797-8.473-17.347z" fill="#a84c0f"></path><path d="M216.514 17.782 189.403 1.906A13.916 13.916 0 0 0 177.642.829L86.629 33.736c-7.053 2.55-10.805 10.23-8.474 17.347l30.375 92.762c2.133 6.514 10.252 8.71 15.386 4.16 18.413-16.322 54.539-55.336 67.732-119.214z" fill="#b55c22"></path><ellipse cx="248.5" cy="451.074" fill="#fde86f" rx="28.752" ry="28.704"></ellipse><path d="M248.5 422.37a28.647 28.647 0 0 0-15 4.214c8.248 5.046 13.752 14.125 13.752 24.49s-5.504 19.444-13.752 24.49a28.647 28.647 0 0 0 15 4.214c15.879 0 28.752-12.851 28.752-28.704S264.379 422.37 248.5 422.37z" fill="#fddf33"></path><path d="M258.701 302.248c-4.534 7.838-15.868 7.838-20.401 0l-8.622-14.908-12.536-21.674c-3.404-5.885-1.116-13.417 4.99-16.423a59.701 59.701 0 0 1 52.737 0c6.105 3.006 8.394 10.538 4.99 16.423l-12.536 21.674zM280.969 170.153a7.504 7.504 0 0 0 7.072-5.005c.095-.26 3.856-10.349 11.726-13.318 10.785-4.068 17.946 2.333 18.015 2.398 7.033 6.676 17.36-4.2 10.328-10.878-.562-.533-13.979-12.97-33.637-5.555-14.559 5.492-20.348 21.702-20.587 22.39-1.577 4.529 2.426 9.968 7.083 9.968z" fill="#b55c22"></path></g></svg>