<svg fill-rule="evenodd" viewBox="0 0 7111 7111" xmlns="http://www.w3.org/2000/svg"><g><path d="M3693 4928c-17 0-33-12-38-28l-197-8c-3 22-22 38-44 36-314-33-610-173-834-397-223-224-364-520-396-834-3-24 16-44 40-44l-2-195c-23-1-41-21-38-44 66-648 581-1164 1230-1230 22-2 42 14 44 36l195 4c0-24 21-43 44-40 649 67 1164 581 1230 1230 3 23-14 42-37 44l-1 195c23 1 41 21 38 44-66 648-582 1165-1230 1231h-4z" fill="#fc5185"></path><path d="M3395 4692c-2 0-4-1-6-1-246-36-469-148-645-324s-288-399-324-644c-3-23 14-44 37-46l-3-243c-21-3-37-23-34-45 73-501 468-895 969-969 22-3 42 13 45 35l243 3c1-23 22-41 45-38 501 73 896 468 969 969 3 22-12 42-33 45l-3 243c23 2 39 23 36 45-36 246-148 469-324 645s-399 288-645 324c-23 4-41-12-44-31l-244-3c-2 18-16 35-39 35z" fill="#e9f1ff"></path><path d="M3556 2845c-98 0-178-79-178-177v-643c0-98 80-178 178-178s177 80 177 178v643c0 98-79 177-177 177zM5086 3733h-642c-98 0-178-79-178-177s80-178 178-178h642c98 0 178 80 178 178s-80 177-178 177zM3556 5264c-98 0-178-80-178-178v-642c0-98 80-178 178-178s177 80 177 178v642c0 98-79 178-177 178zM2668 3733h-643c-98 0-178-79-178-177s80-178 178-178h643c97 0 177 80 177 178s-80 177-177 177z" fill="#5684b9"></path><g fill="#b7d7fe"><path d="M3831 7111h-607c-46 0-84-38-84-84v-835h-229c-73 0-111-87-61-140l617-666c33-36 89-36 122 0l617 666c50 53 12 140-61 140h-230l-1 835c0 46-37 84-83 84zM5776 6329c-22 0-43-8-59-25l-591-590-162 162c-52 51-140 17-143-56l-34-907c-2-49 38-89 86-87l908 35c73 2 107 91 56 142l-163 163 590 591c33 32 33 85 0 117l-429 430c-17 17-38 25-59 25zM6109 4284c-21 0-41-8-57-22l-666-617c-36-34-36-90 0-123l666-617c53-49 140-12 140 61v230l835 1c46 0 84 37 84 83v608c0 46-38 83-84 83h-835v230c0 46-38 83-83 83zM4909 2324c-47 0-85-39-83-86l35-908c2-72 91-107 142-56l163 163 591-590c32-33 85-33 117 0l430 430c33 32 33 85 0 117l-591 591 163 162c51 52 16 140-56 143l-908 34h-3zM3583 1752c-23 0-45-9-61-26l-617-667c-49-53-12-140 61-140h230l1-835c0-46 37-84 83-84h608c46 0 83 38 83 84v835h230c72 0 110 87 61 140l-618 666c-15 18-38 27-61 27zM2241 2285h-3l-908-34c-72-3-107-91-56-143l163-162-590-592c-33-32-33-85 0-117l430-430c32-33 85-33 117 0l591 590 162-162c52-51 140-16 143 56l34 908c2 47-36 86-83 86z" fill="#b7d7fe"></path></g><path d="M1003 4229c-46 0-84-37-84-84v-230l-835-1c-46 0-83-37-83-83v-608c0-46 37-83 83-83h835v-229c0-73 87-111 140-62l667 618c35 33 35 89 0 122l-667 617c-16 15-36 23-56 23zM1295 6289c-21 0-42-9-58-25l-430-430c-33-32-33-85 0-117l591-591-163-162c-51-52-17-140 56-142l908-35c48-2 88 38 86 86l-35 908c-2 73-91 107-142 56l-163-163-591 590c-16 17-37 25-59 25z" fill="#b7d7fe"></path></g></svg>