<svg viewBox="0 0 64 64" xmlns="http://www.w3.org/2000/svg"><g><path d="m20 10 8-8h8l8 8z" fill="#98775a"></path><path d="m28 2-8 8h21l-8-8z" fill="#cb9e78"></path><path d="M44 22h10l6 6H44zM20 22H10l-6 6h16z" fill="#8b8a8b"></path><path d="m10 22-6 6h13v-6zM44 22v6h13l-6-6z" fill="#bab8b9"></path><path d="M20 14h24v20H20z" fill="#98775a"></path><path d="M20 14h21v20H20z" fill="#cb9e78"></path><path d="M4 28h16v24H4z" fill="#98775a"></path><path d="M4 28h13v24H4z" fill="#cb9e78"></path><path d="M44 28h16v24H44z" fill="#98775a"></path><path d="M44 28h13v24H44z" fill="#cb9e78"></path><circle cx="32" cy="24" fill="#ba9b50" r="6"></circle><ellipse cx="30.5" cy="24" fill="#f8cf6a" rx="4.5" ry="5.803"></ellipse><path d="M4 52h16v6H4z" fill="#4d3b2d"></path><path d="M4 52h13v6H4z" fill="#664f3c"></path><path d="M44 52h16v6H44z" fill="#4d3b2d"></path><path d="M44 52h13v6H44z" fill="#664f3c"></path><path d="M50 32h6v6h-6z" fill="#64899b"></path><path d="M50 32h3v6h-3z" fill="#85b6cf"></path><path d="M50 42h6v6h-6z" fill="#64899b"></path><path d="M50 42h3v6h-3z" fill="#85b6cf"></path><path d="M8 42h6v6H8z" fill="#64899b"></path><path d="M8 42h3v6H8z" fill="#85b6cf"></path><path d="M8 32h6v6H8z" fill="#64899b"></path><path d="M8 32h3v6H8z" fill="#85b6cf"></path><path d="M24 38h16v20H24z" fill="#cb9e78"></path><path d="M28 58v-8a4 4 0 0 1 8 0v8z" fill="#98775a"></path><path d="M28 58v-8a4 4 0 0 1 8 0v8z" fill="#664f3c"></path><path d="M30.5 46.297A3.995 3.995 0 0 0 28 50v8h5v-8a3.995 3.995 0 0 0-2.5-3.703z" fill="#98775a"></path><path d="M53 16v-6h9l-3 3 3 3zM11 16v-6H2l3 3-3 3z" fill="#f8cf6a"></path><g fill="#8b8a8b"><path d="M20 38h4v20h-4zM40 38h4v20h-4zM18 34h28v4H18z" fill="#8b8a8b"></path></g><path d="M18 34h25v4H18z" fill="#bab8b9"></path><path d="M18 10h28v4H18z" fill="#8b8a8b"></path><path d="M18 10h25v4H18z" fill="#bab8b9"></path><path d="M2 58h60v4H2z" fill="#8b8a8b"></path><path d="M2 58h57v4H2z" fill="#bab8b9"></path><path d="M10 10h2v12h-2zM52 10h2v12h-2zM33.293 26.707l-2-2A.997.997 0 0 1 31 24v-3h2v2.586l1.707 1.707z" fill="#664f3c"></path></g></svg>