<svg viewBox="0 0 468.287 468.287" xmlns="http://www.w3.org/2000/svg"><g><path d="M409.01 181.288c-48.18 48.181-95.751 41.125-129.444 7.432s-40.75-81.263 7.429-129.443S420.346-19.449 454.04 14.244c33.693 33.692 3.149 118.864-45.03 167.044z" fill="#e1e6e9"></path><path d="M292.079 64.361c46.961-46.961 129.043-77.14 164.368-47.44-.771-.917-1.554-1.825-2.406-2.677-33.693-33.692-118.866-3.146-167.045 45.034-48.18 48.181-41.122 95.751-7.43 129.443.859.859 1.764 1.622 2.639 2.444-31.494-33.514-37.079-79.85 9.874-126.804z" fill="#d5d6db"></path><path d="M413.79 40.69s-41.989-.807-76.71 33.914" fill="#ebf0f3"></path><path d="M332.528 79.158a6.44 6.44 0 0 1 0-9.107c36.241-36.241 79.559-35.836 81.384-35.804 3.552.076 6.384 3.008 6.315 6.564a6.436 6.436 0 0 1-6.549 6.315c-.55-.005-39.878-.132-72.041 32.033a6.44 6.44 0 0 1-9.109-.001z" fill="#ebf0f3"></path><path d="m72.32 451.398 218.684-251.239-11.439-11.438L10.231 458.059c15.939 15.938 44.312 12.895 62.089-6.661z" fill="#d5d6db"></path><path d="M268.126 177.282 16.89 395.97c-19.555 17.777-22.599 46.15-6.66 62.089L279.565 188.72l-11.439-11.438z" fill="#e1e6e9"></path></g></svg>