<svg id="Layer_1" enable-background="new 0 0 512 512" viewBox="0 0 512 512" xmlns="http://www.w3.org/2000/svg"><g><path d="m81.09 496.99h-50.44c-16.37 0-29.65-13.28-29.65-29.65v-396.96h50.44v396.96c0 16.37 13.28 29.65 29.65 29.65z" fill="#ccebff"/><path d="m511 70.38v396.96c0 16.37-13.28 29.65-29.65 29.65h-400.26c-16.37 0-29.65-13.28-29.65-29.65v-396.96z" fill="#e6fcff"/><path d="m87.64 468.97h-29.98c-12.67 0-22.92-10.26-22.92-22.92v-83.06c0-12.67 10.26-22.92 22.92-22.92h29.98c-12.67 0-22.92 10.26-22.92 22.92v83.06c0 12.66 10.26 22.92 22.92 22.92z" fill="#ec3969"/><path d="m163.64 362.99v83.06c0 12.67-10.26 22.92-22.92 22.92h-53.08c-12.67 0-22.92-10.26-22.92-22.92v-83.06c0-12.67 10.26-22.92 22.92-22.92h53.07c12.67 0 22.93 10.25 22.93 22.92z" fill="#ea6a95"/><path d="m244.57 468.97h-29.98c-10.31 0-19.07-6.81-21.91-16.2.62-2.13.95-4.37.95-6.73v-83.06c0-2.35-.34-4.6-.95-6.73 2.84-9.39 11.6-16.19 21.91-16.2h29.98c-12.67 0-22.92 10.26-22.92 22.92v83.06c0 12.68 10.25 22.94 22.92 22.94z" fill="#ec3969"/><path d="m320.56 362.99v83.06c0 12.67-10.26 22.92-22.92 22.92h-53.07c-12.67 0-22.92-10.26-22.92-22.92v-83.06c0-12.67 10.26-22.92 22.92-22.92h53.07c12.67 0 22.92 10.25 22.92 22.92z" fill="#ea6a95"/><path d="m401.49 468.97h-29.98c-10.31 0-19.07-6.81-21.91-16.2.62-2.13.95-4.37.95-6.73v-83.06c0-2.35-.34-4.6-.95-6.73 2.84-9.39 11.6-16.19 21.91-16.2h29.98c-12.67 0-22.92 10.26-22.92 22.92v83.06c0 12.68 10.25 22.94 22.92 22.94z" fill="#ec3969"/><path d="m349.59 356.26c.62 2.13.95 4.37.95 6.73v83.06c0 2.35-.34 4.6-.95 6.73-.67-2.13-1.01-4.37-1.01-6.73.36-1.7-.96-91.3 1.01-89.79z" fill="#ea6a95"/><path d="m477.49 362.99v83.06c0 12.67-10.26 22.92-22.92 22.92h-53.07c-12.67 0-22.92-10.26-22.92-22.92v-83.06c0-12.67 10.26-22.92 22.92-22.92h53.07c12.66 0 22.92 10.25 22.92 22.92z" fill="#ea6a95"/><path d="m81.09 15.01c-16.37 0-29.65 13.28-29.65 29.65v25.72h-50.44v-25.72c0-16.37 13.28-29.65 29.65-29.65z" fill="#4e2aa5"/><path d="m511 44.66v25.72h-459.56v-25.72c0-16.37 13.28-29.65 29.65-29.65h400.27c16.36 0 29.64 13.28 29.64 29.65z" fill="#6244bd"/><g><path d="m51.45 54.24c-14.73-.27-14.73-22.15 0-22.42 14.73.27 14.73 22.16 0 22.42z" fill="#ea6a95"/></g><g><path d="m85.08 54.24c-14.73-.27-14.73-22.15 0-22.42 14.73.27 14.73 22.16 0 22.42z" fill="#ea6a95"/></g><g><path d="m118.71 54.24c-14.73-.27-14.73-22.15 0-22.42 14.73.27 14.72 22.16 0 22.42z" fill="#ea6a95"/></g><g><path d="m454.97 48.64h-123.3c-7.29-.02-7.36-11.18 0-11.21h123.3c7.29.02 7.36 11.18 0 11.21z" fill="#ea6a95"/></g><g><g fill="#8dae15"><path d="m182.89 283.11c-.02 1.33.01 4.37 0 5.67v3.56c0 2.76 2.24 5.01 5.01 5.01h132.37c2.76 0 5.01-2.24 5.01-5.01v-3.56c.02-1.29-.01-4.35 0-5.67z"/><path d="m230.37 108.68c-14.82-.27-32.41-1.19-44.36 9.36 0 0-47.31 37.34-47.31 37.34l-8.79-11.64 52.98-39.93c11.64-9.75 28.37-9.84 42.78-9.36-.46 5.18 1.27 10.18 4.7 14.23z"/><path d="m378.24 143.74-8.79 11.64-47.31-37.34c-11.1-9.71-26.95-9.85-40.8-9.36 3.43-4.05 5.16-9.05 4.7-14.23 13.52-.62 28.36.46 39.22 9.36 0 .01 52.98 39.93 52.98 39.93z"/></g><path d="m369.45 155.39-24.63 32.71-19.56-14.73v109.75h-142.37v-109.75l-19.53 14.73-24.66-32.71 47.31-37.34c11.92-10.54 29.58-9.63 44.36-9.36 10.32 13.98 40.65 14 50.97 0 13.88-.48 29.68-.36 40.8 9.36 0-.01 47.31 37.34 47.31 37.34z" fill="#a5c011"/><path d="m286.12 96.24c-1.15 31.31-61.97 30.28-60.44-1.78h60.37c.03.61.07 1.18.07 1.78z" fill="#84a010"/></g><g><path d="m300.94 400.66v28.81c0 6.74-5.45 12.19-12.22 12.19h-37.42c-7.82.67-13.48-8.24-18.06-13.2v-36.63l20.28-31.45c9.06-10.46 20.13 8.37 13.2 17.03 0 0-7.14 11.07-7.14 11.07h29.15c6.76-.01 12.21 5.44 12.21 12.18z" fill="#e6fcff"/><path d="m218.94 441.65h-9.82c-1.64 0-2.95-1.31-2.95-2.95v-51.61c0-1.65 1.31-2.99 2.95-2.99h9.82c-1.64 0-2.95 1.35-2.95 2.99v51.61c0 1.64 1.3 2.95 2.95 2.95z" fill="#8dae15"/><path d="m233.23 387.09v51.61c0 1.64-1.31 2.95-2.95 2.95h-11.34c-1.64 0-2.95-1.31-2.95-2.95v-51.61c0-1.65 1.31-2.99 2.95-2.99h11.34c1.64-.01 2.95 1.34 2.95 2.99z" fill="#a5c011"/></g><path d="m100.83 365.54 11.49 23.29c.29.59.85.99 1.5 1.09l25.7 3.73c1.63.24 2.28 2.24 1.1 3.39l-18.6 18.13c-.47.46-.68 1.11-.57 1.76l4.39 25.6c.28 1.62-1.42 2.86-2.88 2.09l-22.99-12.09c-.58-.3-1.27-.3-1.85 0l-22.99 12.09c-1.46.77-3.16-.47-2.88-2.09l4.39-25.6c.11-.64-.1-1.3-.57-1.76l-18.6-18.13c-1.18-1.15-.53-3.15 1.1-3.39l25.7-3.73c.65-.09 1.21-.5 1.5-1.09l11.49-23.29c.73-1.48 2.84-1.48 3.57 0z" fill="#e6fcff"/><path d="m192.67 356.26c.62 2.13.95 4.37.95 6.73v83.06c0 2.35-.34 4.6-.95 6.73-.67-2.13-1.01-4.37-1.01-6.73.35-1.7-.96-91.3 1.01-89.79z" fill="#ea6a95"/><path d="m455.07 407.32c0 8.35-2.58 16.08-7.06 22.42-14.08-22.1-50.26-22.1-64.34 0-10.11-13.43-9.11-35.3 2.19-47.64 13.95 18.4 46.03 18.35 60.02 0 5.77 6.78 9.19 15.58 9.19 25.22z" fill="#e6fcff"/><g fill="#a5c011"><path d="m445.88 382.1c-13.99 18.36-46.08 18.4-60.02 0 13.94-18.4 46.03-18.36 60.02 0z"/><path d="m448.01 429.74c-14.08 22.1-50.26 22.1-64.34 0 14.08-22.11 50.26-22.1 64.34 0z"/></g></g></svg>