<svg viewBox="0 0 512 512" xmlns="http://www.w3.org/2000/svg"><g><path d="M470.717 162.126a54.263 54.263 0 0 1 2.491 16.035c.144 29.879-24.418 54.565-54.297 54.565-29.992 0-54.307-24.315-54.307-54.297H147.396c0 29.982-24.315 54.297-54.307 54.297-29.879 0-54.441-24.686-54.297-54.565a54.263 54.263 0 0 1 2.491-16.035c2.399-7.629-1.103-15.973-8.447-19.139C13.546 134.671.032 115.499 0 93.167c-.042-29.18 23.481-53.483 52.649-54.351 8.131-.242 15.874 1.303 22.865 4.272 7.062 2.999 15.173.343 19.244-6.161 10.967-17.519 30.439-29.169 52.638-29.169 16.183 0 30.919 6.197 41.965 16.347 6.773 6.223 17.45 5.39 22.912-2.011C222.165 8.693 238.07 0 256 0s33.835 8.693 43.727 22.094c5.462 7.4 16.139 8.234 22.912 2.011 11.046-10.149 25.782-16.347 41.965-16.347 22.199 0 41.671 11.65 52.638 29.169 4.071 6.503 12.182 9.16 19.244 6.161 6.991-2.969 14.733-4.514 22.865-4.272 29.167.869 52.69 25.171 52.649 54.351-.032 22.332-13.546 41.504-32.836 49.82-7.344 3.166-10.846 11.51-8.447 19.139z" fill="#b18cd9"></path><path d="M364.604 465.451v31.094c0 8.531-6.913 15.455-15.455 15.455H209.42l-7.727-4.276-7.728 4.276H162.85c-8.541 0-15.455-6.923-15.455-15.455v-31.094c0-42.511 24.428-79.323 60.025-97.148 14.62-7.336 31.115-11.457 48.579-11.457 29.992 0 57.141 12.158 76.799 31.816 19.649 19.648 31.806 46.797 31.806 76.789z" fill="#8ce09f"></path><path d="M249.159 410.989s-21.502 9.839-21.502 43.953V512H209.42l-7.727-4.276-7.728 4.276H162.85c-8.541 0-15.455-6.923-15.455-15.455v-31.094c0-42.511 24.428-79.323 60.025-97.148z" fill="#55d47b"></path><path d="M332.114 105.858c10.427-5.788 14.45-15.135 16.002-21.486.971-3.974 4.488-6.796 8.579-6.796h.307c4.091 0 7.608 2.822 8.579 6.796 1.554 6.358 5.584 15.72 16.038 21.506 3.832 2.121 6.26 6.106 6.26 10.485 0 4.395-2.453 8.373-6.296 10.506-10.427 5.788-14.45 15.135-16.002 21.486-.971 3.974-4.488 6.796-8.579 6.796h-.307c-4.091 0-7.608-2.822-8.579-6.796-1.554-6.358-5.584-15.72-16.038-21.506-3.832-2.121-6.26-6.106-6.26-10.485 0-4.395 2.453-8.373 6.296-10.506z" fill="#f9ee80"></path><path d="M418.912 279.275H93.088c0-16.052 2.03-31.806 5.924-46.868 0 0 65.775-82.353 66.125-83.403.35-1.051 85.196-40.306 85.196-40.306 1.875-.062 3.761-.093 5.667-.093 99.167 0 162.912 80.693 162.912 170.67z" fill="#6e768f"></path><path d="M183.116 279.275H93.088c0-88.256 61.324-167.569 157.245-170.577-18.123 19.792-73.224 87.287-67.217 170.577z" fill="#565e75"></path><circle cx="395.637" cy="279.273" fill="#ffcbbe" r="31.03"></circle><circle cx="116.363" cy="279.273" fill="#ffbbae" r="31.03"></circle><path d="M387.879 283.406c0 70.555-59.047 127.747-131.879 127.747-2.298 0-4.574-.062-6.841-.165l-69.103-23.131-.021-.011c-27.076-18.514-46.642-46.673-53.36-79.302l13.209-57.656 47.95-27.746c.031.011.051.021.082.031 7.975 3.08 16.969 2.287 24.336-1.989a87.082 87.082 0 0 1 43.746-11.725 87.079 87.079 0 0 1 43.746 11.725c7.367 4.276 16.372 5.069 24.346 1.989 12.364-4.781 25.036-5.203 37.41-1.545a27.453 27.453 0 0 1 17.762 16.258c5.629 14.281 8.617 29.726 8.617 45.52z" fill="#ffddcf"></path><path d="M249.159 410.989c-69.649-3.452-125.038-59.253-125.038-127.583 0-15.774 2.988-31.219 8.613-45.509a27.39 27.39 0 0 1 17.752-16.258c12.343-3.647 24.995-3.255 37.349 1.504-12.786 54.257-5.224 121.062 61.324 187.846z" fill="#ffcbbe"></path><path d="M318.035 473.209V512H302.58v-38.791a7.724 7.724 0 0 1 7.727-7.727 7.73 7.73 0 0 1 7.728 7.727z" fill="#55d47b"></path><path d="M209.42 473.209V512h-15.455v-38.791a7.73 7.73 0 0 1 7.727-7.727 7.724 7.724 0 0 1 7.728 7.727z" fill="#00c755"></path><g fill="#f9ee80"><path d="M190.314 56.596a7.73 7.73 0 0 0-10.928 0l-5.507 5.507-5.507-5.507a7.728 7.728 0 0 0-10.928 10.929l5.507 5.507-5.507 5.507a7.728 7.728 0 0 0 10.928 10.929l5.507-5.507 5.507 5.507a7.706 7.706 0 0 0 5.464 2.263 7.728 7.728 0 0 0 5.464-13.192l-5.507-5.507 5.507-5.507a7.728 7.728 0 0 0 0-10.929zM272.435 34.656a7.729 7.729 0 0 0-10.928-.001L256 40.161l-5.507-5.507a7.729 7.729 0 0 0-10.928 10.929l5.506 5.506-5.506 5.506a7.727 7.727 0 0 0 0 10.928 7.703 7.703 0 0 0 5.464 2.264 7.708 7.708 0 0 0 5.464-2.263L256 62.018l5.507 5.507c1.509 1.508 3.486 2.263 5.464 2.263s3.955-.755 5.464-2.264a7.727 7.727 0 0 0 0-10.928l-5.506-5.506 5.506-5.506a7.727 7.727 0 0 0 0-10.928zM457.655 96.304l5.507-5.507a7.728 7.728 0 0 0-10.928-10.929l-5.507 5.507-5.507-5.507a7.728 7.728 0 0 0-10.928 10.929l5.507 5.507-5.507 5.507a7.728 7.728 0 0 0 10.928 10.929l5.507-5.507 5.507 5.507a7.706 7.706 0 0 0 5.464 2.263 7.728 7.728 0 0 0 5.464-13.192zM68.356 105.858c10.427-5.788 14.45-15.135 16.002-21.486.971-3.974 4.488-6.796 8.579-6.796h.307c4.091 0 7.608 2.822 8.579 6.796 1.554 6.358 5.584 15.72 16.038 21.506 3.832 2.121 6.26 6.106 6.26 10.485 0 4.395-2.453 8.373-6.296 10.506-10.427 5.788-14.45 15.135-16.002 21.486-.971 3.974-4.488 6.796-8.579 6.796h-.307c-4.091 0-7.608-2.822-8.579-6.796-1.554-6.358-5.584-15.72-16.038-21.506-3.832-2.121-6.26-6.106-6.26-10.485 0-4.395 2.453-8.373 6.296-10.506z" fill="#f9ee80"></path></g><ellipse cx="255.989" cy="294.102" fill="#495560" rx="14.127" ry="16.202"></ellipse><path d="M188.781 286.955a22.306 22.306 0 0 1-16.806-7.644 7.727 7.727 0 0 1 .739-10.903 7.73 7.73 0 0 1 10.903.738 6.86 6.86 0 0 0 5.166 2.353h.006a6.855 6.855 0 0 0 5.166-2.363 7.728 7.728 0 0 1 11.663 10.142 22.308 22.308 0 0 1-16.814 7.676l-.023.001zM323.142 286.828a22.311 22.311 0 0 1-16.806-7.643 7.728 7.728 0 0 1 11.641-10.166 6.863 6.863 0 0 0 5.166 2.354h.006a6.859 6.859 0 0 0 5.167-2.363 7.728 7.728 0 0 1 11.662 10.142 22.31 22.31 0 0 1-16.814 7.676h-.022z" fill="#495560"></path></g></svg>