<svg viewBox="0 0 60 60" xmlns="http://www.w3.org/2000/svg"><g><path d="M58.13 24.13 46 30h-1V19c0-8.12 5.08-11.36 5.87-11.91a4.062 4.062 0 0 1 .72.98l7.24 13.95a1.556 1.556 0 0 1-.7 2.11zM15 19v11h-1L1.87 24.13a1.556 1.556 0 0 1-.7-2.11L8.41 8.07a4.062 4.062 0 0 1 .72-.98C9.92 7.64 15 10.88 15 19z" fill="#3778c6"></path><path d="M50.87 7.09C50.08 7.64 46 10.88 46 19v37a3 3 0 0 1-3 3H17a3 3 0 0 1-3-3V19c0-8.12-4.08-11.36-4.87-11.91a3.924 3.924 0 0 1 1.04-.76l10.19-5.12a2.021 2.021 0 0 1 1.3-.17c.66.14 1.8.38 3.25.58A35.535 35.535 0 0 0 30 2a40.156 40.156 0 0 0 8.34-.96 2.021 2.021 0 0 1 1.3.17l10.19 5.12a3.924 3.924 0 0 1 1.04.76z" fill="#4b95ff"></path><path d="M39 1.02c-.01.44-.26 7.98-9 7.98s-8.99-7.54-9-7.98a1.832 1.832 0 0 1 .66.02A40.156 40.156 0 0 0 30 2a40.156 40.156 0 0 0 8.34-.96 1.832 1.832 0 0 1 .66-.02z" fill="#2d629b"></path></g></svg>