<svg viewBox="0 0 512 512" xmlns="http://www.w3.org/2000/svg"><g><path d="M480.095 283.195h-73.017a7.521 7.521 0 0 0-7.521 7.521v213.5a7.521 7.521 0 0 0 7.521 7.521h73.017a7.521 7.521 0 0 0 7.521-7.521v-213.5a7.522 7.522 0 0 0-7.521-7.521z" fill="#a0a0a0"></path><path d="M437.16 283.195h-30.082a7.521 7.521 0 0 0-7.521 7.521v213.5a7.521 7.521 0 0 0 7.521 7.521h30.082V283.195z" fill="#878787"></path><path d="M504.479 242.81h-97.403a7.521 7.521 0 0 0-7.521 7.521v40.385a7.521 7.521 0 0 0 7.521 7.521h97.403a7.521 7.521 0 0 0 7.521-7.521v-40.385a7.521 7.521 0 0 0-7.521-7.521z" fill="#565656"></path><path d="M437.16 242.81h-30.082a7.521 7.521 0 0 0-7.521 7.521v40.385a7.521 7.521 0 0 0 7.521 7.521h30.082V242.81z" fill="#494949"></path><path d="M104.924 283.195H31.905a7.521 7.521 0 0 0-7.521 7.521v213.5a7.521 7.521 0 0 0 7.521 7.521h73.017a7.521 7.521 0 0 0 7.521-7.521v-213.5a7.519 7.519 0 0 0-7.519-7.521z" fill="#a0a0a0"></path><path d="M104.924 283.195H74.841v228.541h30.082a7.521 7.521 0 0 0 7.521-7.521v-213.5a7.52 7.52 0 0 0-7.52-7.52z" fill="#878787"></path><path d="M104.924 242.81H7.521A7.521 7.521 0 0 0 0 250.331v40.385a7.521 7.521 0 0 0 7.521 7.521h97.403a7.521 7.521 0 0 0 7.521-7.521v-40.385a7.523 7.523 0 0 0-7.521-7.521z" fill="#565656"></path><path d="M104.924 242.81H74.841v55.426h30.082a7.521 7.521 0 0 0 7.521-7.521V250.33a7.52 7.52 0 0 0-7.52-7.52z" fill="#494949"></path><path d="M407.076 132.586h-85.305a7.519 7.519 0 0 0-6.005 2.993c-14.348 19.035-36.224 29.952-60.018 29.952s-45.67-10.917-60.018-29.952a7.52 7.52 0 0 0-6.005-2.993h-84.801a7.521 7.521 0 0 0-7.521 7.521v364.109a7.521 7.521 0 0 0 7.521 7.521h302.154a7.521 7.521 0 0 0 7.521-7.521V140.107a7.524 7.524 0 0 0-7.523-7.521z" fill="#f9f1ef"></path><path d="M407.076 132.586h-29.08v379.15h29.08a7.521 7.521 0 0 0 7.521-7.521V140.107a7.521 7.521 0 0 0-7.521-7.521z" fill="#dddbdb"></path><path d="M181.122 98.885a7.52 7.52 0 0 0-7.473-6.683H77.275a7.521 7.521 0 0 0-7.521 7.521v40.385a7.521 7.521 0 0 0 7.521 7.521h112.45a7.522 7.522 0 0 0 6.005-12.048 74.873 74.873 0 0 1-14.608-36.696zM434.726 92.202h-96.878a7.52 7.52 0 0 0-7.473 6.683 74.868 74.868 0 0 1-14.607 36.696 7.522 7.522 0 0 0 6.005 12.048h112.954a7.521 7.521 0 0 0 7.521-7.521V99.722a7.522 7.522 0 0 0-7.522-7.52z" fill="#565656"></path><path d="M199.986 281.952h-42.04a7.521 7.521 0 0 0-7.521 7.521v42.04a7.521 7.521 0 0 0 7.521 7.521h42.04a7.521 7.521 0 0 0 7.521-7.521v-42.04a7.521 7.521 0 0 0-7.521-7.521zM277.02 281.952h-42.04a7.521 7.521 0 0 0-7.521 7.521v42.04a7.521 7.521 0 0 0 7.521 7.521h42.04a7.521 7.521 0 0 0 7.521-7.521v-42.04a7.521 7.521 0 0 0-7.521-7.521zM354.055 281.952h-42.04a7.521 7.521 0 0 0-7.521 7.521v42.04a7.521 7.521 0 0 0 7.521 7.521h42.04a7.521 7.521 0 0 0 7.521-7.521v-42.04a7.52 7.52 0 0 0-7.521-7.521zM199.986 209.179h-42.04a7.521 7.521 0 0 0-7.521 7.521v42.04a7.521 7.521 0 0 0 7.521 7.521h42.04a7.521 7.521 0 0 0 7.521-7.521V216.7a7.521 7.521 0 0 0-7.521-7.521zM277.02 209.179h-42.04a7.521 7.521 0 0 0-7.521 7.521v42.04a7.521 7.521 0 0 0 7.521 7.521h42.04a7.521 7.521 0 0 0 7.521-7.521V216.7a7.521 7.521 0 0 0-7.521-7.521zM354.055 209.179h-42.04a7.521 7.521 0 0 0-7.521 7.521v42.04a7.521 7.521 0 0 0 7.521 7.521h42.04a7.521 7.521 0 0 0 7.521-7.521V216.7a7.52 7.52 0 0 0-7.521-7.521zM343.252 404.191H256a7.521 7.521 0 0 0-7.521 7.521v92.504a7.521 7.521 0 0 0 7.521 7.521h87.252a7.521 7.521 0 0 0 7.521-7.521v-92.504a7.521 7.521 0 0 0-7.521-7.521z" fill="#00c1ec"></path><path d="M343.252 404.191h-27.074v107.546h27.074a7.521 7.521 0 0 0 7.521-7.521v-92.504a7.521 7.521 0 0 0-7.521-7.521z" fill="#00aade"></path><path d="M256 404.191h-87.252a7.521 7.521 0 0 0-7.521 7.521v92.504a7.521 7.521 0 0 0 7.521 7.521H256a7.521 7.521 0 0 0 7.521-7.521v-92.504a7.52 7.52 0 0 0-7.521-7.521z" fill="#00c1ec"></path><path d="M228.927 404.188h34.595v107.545h-34.595z" fill="#00aade"></path><path d="M255.748.264c-49.711 0-90.155 40.444-90.155 90.155s40.444 90.155 90.155 90.155c49.712 0 90.155-40.443 90.155-90.155S305.46.264 255.748.264z" fill="#ef3a47"></path><path d="M255.748.264c-6.456 0-12.753.688-18.828 1.983 40.705 8.683 71.327 44.915 71.327 88.172s-30.624 79.489-71.327 88.172a90.155 90.155 0 0 0 18.828 1.983c49.712 0 90.155-40.443 90.155-90.155S305.46.264 255.748.264z" fill="#ce3043"></path><path d="M288.303 76.2h-18.335V57.864a5.1 5.1 0 0 0-5.101-5.101H246.63a5.1 5.1 0 0 0-5.101 5.101v18.335h-18.335a5.1 5.1 0 0 0-5.101 5.101v18.237a5.1 5.1 0 0 0 5.101 5.101h18.335v18.335a5.1 5.1 0 0 0 5.101 5.101h18.237a5.1 5.1 0 0 0 5.101-5.101v-18.335h18.335a5.1 5.1 0 0 0 5.1-5.101V81.3a5.1 5.1 0 0 0-5.1-5.1z" fill="#f9f1ef"></path><path d="M360.855 371.481H151.146a7.521 7.521 0 0 0-7.521 7.521v32.657a7.521 7.521 0 0 0 7.521 7.521h209.709a7.521 7.521 0 0 0 7.521-7.521v-32.657a7.522 7.522 0 0 0-7.521-7.521z" fill="#565656"></path></g></svg>