<?xml version="1.0" encoding="UTF-8" standalone="no"?>
<!-- Created with Inkscape (http://www.inkscape.org/) -->

<svg
   version="1.1"
   id="svg2487"
   xml:space="preserve"
   width="682.66669"
   height="682.66669"
   viewBox="0 0 682.66669 682.66669"
   xmlns="http://www.w3.org/2000/svg"
   xmlns:svg="http://www.w3.org/2000/svg"><defs
     id="defs2491"><clipPath
       clipPathUnits="userSpaceOnUse"
       id="clipPath2501"><path
         d="M 0,512 H 512 V 0 H 0 Z"
         id="path2499" /></clipPath></defs><g
     id="g2493"
     transform="matrix(1.3333333,0,0,-1.3333333,0,682.66667)"><g
       id="g2495"><g
         id="g2497"
         clip-path="url(#clipPath2501)"><g
           id="g2503"
           transform="translate(249.2178,133.894)"><path
             d="m 0,0 v 0 c -48.004,0 -86.919,-38.915 -86.919,-86.918 v -46.973 H 86.918 v 46.973 C 86.918,-38.915 48.003,0 0,0"
             style="fill:#9be69d;fill-opacity:1;fill-rule:nonzero;stroke:none"
             id="path2505" /></g><g
           id="g2507"
           transform="translate(272.0928,130.856)"><path
             d="m 0,0 c -36.903,-10.037 -64.042,-43.782 -64.042,-83.878 v -46.975 h -45.752 v 46.975 c 0,48.01 38.925,86.918 86.918,86.918 C -14.962,3.04 -7.285,1.987 0,0"
             style="fill:#6fd7a3;fill-opacity:1;fill-rule:nonzero;stroke:none"
             id="path2509" /></g><g
           id="g2511"
           transform="translate(400.8066,324.2007)"><path
             d="m 0,0 c -1.002,-24.965 -21.059,-45.498 -46.007,-47.026 -15.743,-0.968 -30.025,5.485 -39.655,16.219 -4.636,5.18 -8.22,11.345 -10.343,18.155 -3.413,-0.374 -6.894,-0.595 -10.41,-0.595 -21.348,0 -41.03,7.099 -56.858,19.055 -13.689,-3.193 -27.835,-3.872 -41.727,-2.055 0.017,-0.577 0.033,-1.155 0.033,-1.749 0,-28.175 -23.724,-50.83 -52.306,-49.03 -25.135,1.58 -45.277,22.536 -45.939,47.722 -0.475,18.545 9.323,34.849 24.115,43.612 -30.925,36.666 -35.698,87.869 -14.265,129.002 8.424,16.185 30.195,19.445 43.086,6.555 l 58.471,-58.472 c 15.778,33.422 50.592,56.111 90.468,54.023 47.637,-2.497 86.341,-40.963 89.143,-88.6 C -11.243,70.75 -14.351,55.517 -20.532,41.981 -7.574,32.708 0.696,17.305 0,0"
             style="fill:#7a6d79;fill-opacity:1;fill-rule:nonzero;stroke:none"
             id="path2513" /></g><g
           id="g2515"
           transform="translate(315.1445,293.3936)"><path
             d="m 0,0 c -4.636,5.18 -8.22,11.345 -10.343,18.155 -3.413,-0.374 -6.894,-0.595 -10.41,-0.595 -21.348,0 -41.03,7.099 -56.858,19.055 -13.689,-3.193 -27.835,-3.872 -41.727,-2.055 0.017,-0.577 0.033,-1.155 0.033,-1.749 0,-28.175 -23.724,-50.83 -52.306,-49.03 -25.135,1.58 -45.277,22.536 -45.939,47.722 -0.475,18.545 9.323,34.849 24.115,43.612 -30.925,36.666 -35.698,87.869 -14.265,129.002 8.424,16.185 30.195,19.445 43.086,6.555 l 4.024,-4.025 C -163.035,151.759 -150.468,58.642 -42.032,37.464 -6.147,30.467 4.653,16.83 0,0"
             style="fill:#685e68;fill-opacity:1;fill-rule:nonzero;stroke:none"
             id="path2517" /></g><g
           id="g2519"
           transform="translate(357.1025,277.7793)"><path
             d="m 0,0 h -2.048 v 19.108 c 0,43.596 -26.357,81.043 -64.009,97.245 -17.458,-32.37 -51.661,-54.363 -91.027,-54.363 -15.302,0 -29.84,3.329 -42.899,9.307 -8.746,-15.403 -13.74,-33.202 -13.74,-52.189 V 0 h -2.048 c -15.728,0 -28.478,-12.75 -28.478,-28.479 0,-15.728 12.75,-28.479 28.478,-28.479 h 7.509 c 5.253,-15.725 14.068,-29.819 25.533,-41.285 11.803,-11.803 26.375,-20.821 42.662,-26.001 v -25.423 c 0,-8.899 3.599,-16.932 9.424,-22.757 5.826,-5.825 13.875,-9.426 22.758,-9.426 17.781,0 32.199,14.402 32.199,32.183 v 25.423 c 32.104,10.238 57.544,35.377 68.204,67.286 H 0 c 15.729,0 28.479,12.751 28.479,28.479 C 28.479,-12.75 15.729,0 0,0"
             style="fill:#ffdfcf;fill-opacity:1;fill-rule:nonzero;stroke:none"
             id="path2521" /></g><g
           id="g2523"
           transform="translate(357.1025,277.7793)"><path
             d="m 0,0 h -2.048 v 19.108 c 0,43.596 -26.357,81.043 -64.009,97.245 -17.458,-32.37 -51.661,-54.363 -91.027,-54.363 -15.302,0 -29.84,3.329 -42.899,9.307 -8.746,-15.403 -13.74,-33.202 -13.74,-52.189 V 0 h -2.048 c -15.728,0 -28.478,-12.75 -28.478,-28.479 0,-15.728 12.75,-28.479 28.478,-28.479 h 7.509 c 5.253,-15.725 14.068,-29.819 25.533,-41.285 11.803,-11.803 26.375,-20.821 42.662,-26.001 v -25.423 c 0,-8.899 3.599,-16.932 9.424,-22.757 5.826,-5.825 13.875,-9.426 22.758,-9.426 17.781,0 32.199,14.402 32.199,32.183 v 25.423 c 32.104,10.238 57.544,35.377 68.204,67.286 H 0 c 15.729,0 28.479,12.751 28.479,28.479 C 28.479,-12.75 15.729,0 0,0 Z"
             style="fill:none;stroke:#ffdfcf;stroke-width:1;stroke-linecap:butt;stroke-linejoin:miter;stroke-miterlimit:10;stroke-dasharray:none;stroke-opacity:1"
             id="path2525" /></g><g
           id="g2527"
           transform="translate(281.4082,150.834)"><path
             d="m 0,0 v -22.723 c 0,-17.781 -14.418,-32.183 -32.199,-32.183 -8.882,0 -16.932,3.601 -22.757,9.426 -5.825,5.825 -9.426,13.858 -9.426,22.757 V 2.7 c -16.286,5.18 -30.857,14.198 -42.661,26.001 -11.463,11.463 -20.277,25.559 -25.524,41.285 h -7.507 c -7.863,0 -14.98,3.193 -20.142,8.339 -5.146,5.163 -8.339,12.279 -8.339,20.141 0,15.726 12.754,28.481 28.481,28.481 h 2.038 v 19.105 c 0,18.987 4.993,36.785 13.739,52.189 13.06,-5.978 27.597,-9.307 42.899,-9.307 2.241,0 4.449,0.068 6.657,0.221 -5.876,-13.162 -9.137,-27.75 -9.137,-43.103 v -42.508 c 0,-29.227 11.837,-55.687 30.993,-74.843 C -38.67,14.486 -20.413,4.296 0,0"
             style="fill:#ffcebf;fill-opacity:1;fill-rule:nonzero;stroke:none"
             id="path2529" /></g><g
           id="g2531"
           transform="translate(221.1387,262.7021)"><path
             d="m 0,0 c -4.268,0 -7.727,3.459 -7.727,7.727 v 20.33 c 0,4.268 3.459,7.727 7.727,7.727 4.268,0 7.727,-3.459 7.727,-7.727 V 7.727 C 7.727,3.459 4.268,0 0,0"
             style="fill:#685e68;fill-opacity:1;fill-rule:nonzero;stroke:none"
             id="path2533" /></g><g
           id="g2535"
           transform="translate(277.2959,262.7021)"><path
             d="m 0,0 c -4.268,0 -7.727,3.459 -7.727,7.727 v 20.33 c 0,4.268 3.459,7.727 7.727,7.727 4.268,0 7.727,-3.459 7.727,-7.727 V 7.727 C 7.727,3.459 4.268,0 0,0"
             style="fill:#685e68;fill-opacity:1;fill-rule:nonzero;stroke:none"
             id="path2537" /></g><g
           id="g2539"
           transform="translate(234.9766,296.8081)"><path
             d="m 0,0 c -1.977,0 -3.954,0.754 -5.463,2.263 l -12.946,12.946 c -3.019,3.018 -3.019,7.91 -0.001,10.927 3.018,3.017 7.91,3.018 10.927,0 L 5.463,13.19 C 8.481,10.173 8.481,5.281 5.464,2.263 3.955,0.755 1.978,0 0,0"
             style="fill:#ffb09e;fill-opacity:1;fill-rule:nonzero;stroke:none"
             id="path2541" /></g><g
           id="g2543"
           transform="translate(263.458,296.8081)"><path
             d="m 0,0 c -1.979,0 -3.955,0.754 -5.464,2.263 -3.017,3.018 -3.017,7.91 0.001,10.927 L 7.483,26.136 c 3.017,3.018 7.91,3.017 10.927,0 3.018,-3.017 3.018,-7.909 -0.001,-10.927 L 5.463,2.263 C 3.954,0.755 1.977,0 0,0"
             style="fill:#ffb09e;fill-opacity:1;fill-rule:nonzero;stroke:none"
             id="path2545" /></g><g
           id="g2547"
           transform="translate(393.5703,236.6968)"><path
             d="m 0,0 h -288.699 c -13.8,0 -24.987,-11.187 -24.987,-24.986 v -96.06 c 0,-13.8 11.187,-24.987 24.987,-24.987 H 0 c 13.8,0 24.986,11.187 24.986,24.987 v 96.06 C 24.986,-11.187 13.8,0 0,0"
             style="fill:#fe646f;fill-opacity:1;fill-rule:nonzero;stroke:none"
             id="path2549" /></g><g
           id="g2551"
           transform="translate(131.4717,90.6611)"><path
             d="m 0,0 h -26.599 c -13.797,0 -24.988,11.191 -24.988,24.989 v 96.061 c 0,13.797 11.191,24.988 24.988,24.988 H 0 c -13.798,0 -24.989,-11.191 -24.989,-24.988 V 24.989 C -24.989,11.191 -13.798,0 0,0"
             style="fill:#fd4755;fill-opacity:1;fill-rule:nonzero;stroke:none"
             id="path2553" /></g><g
           id="g2555"
           transform="translate(241.8037,154.1621)"><path
             d="m 0,0 h -7.818 l 3.496,14.418 h 7.818 z m 31.342,29.871 h -8.197 l 4.529,18.682 c 1.005,4.148 -1.541,8.324 -5.688,9.33 -4.149,1.007 -8.325,-1.541 -9.33,-5.688 L 7.243,29.871 h -7.818 l 4.53,18.682 c 1.005,4.147 -1.541,8.324 -5.688,9.33 -4.147,1.005 -8.325,-1.542 -9.33,-5.688 l -5.414,-22.324 h -11.917 c -4.267,0 -7.725,-3.459 -7.725,-7.726 0,-4.268 3.458,-7.727 7.725,-7.727 h 8.17 L -23.72,0 H -35.6 c -4.267,0 -7.726,-3.459 -7.726,-7.727 0,-4.267 3.459,-7.726 7.726,-7.726 h 8.133 l -4.646,-19.161 c -1.005,-4.147 1.541,-8.324 5.687,-9.33 0.613,-0.148 1.225,-0.22 1.827,-0.22 3.484,0 6.647,2.373 7.503,5.908 l 5.531,22.803 h 7.818 l -4.647,-19.161 c -1.004,-4.148 1.542,-8.324 5.689,-9.33 0.611,-0.148 1.225,-0.22 1.827,-0.22 3.483,0 6.646,2.372 7.503,5.908 l 5.529,22.803 h 11.983 c 4.267,0 7.726,3.459 7.726,7.726 0,4.268 -3.459,7.727 -7.726,7.727 h -8.236 l 3.496,14.418 h 11.945 c 4.267,0 7.726,3.459 7.726,7.727 0,4.267 -3.459,7.726 -7.726,7.726"
             style="fill:#f9f7f8;fill-opacity:1;fill-rule:nonzero;stroke:none"
             id="path2557" /></g><g
           id="g2559"
           transform="translate(338.5654,148.8281)"><path
             d="m 0,0 c -5.502,0 -11.394,6.542 -11.394,16.281 0,9.567 6.047,15.284 11.892,15.284 6.079,0 10.333,-6.145 10.391,-14.962 L 10.887,16.197 C 10.805,7.246 5.956,0 0,0 m 55.034,31.312 c -0.021,0.081 -0.044,0.161 -0.068,0.24 C 50.707,45.665 41.177,57.22 28.133,64.09 15.091,70.959 0.167,72.278 -13.893,67.803 -41.609,58.979 -57.529,30.043 -50.135,1.927 c 6.136,-23.329 27.234,-40.086 51.307,-40.752 0.072,-0.002 0.144,-0.003 0.218,-0.003 4.168,0 7.603,3.321 7.718,7.514 0.119,4.265 -3.244,7.818 -7.509,7.936 -17.259,0.477 -32.388,12.5 -36.79,29.236 -5.3,20.152 6.115,40.894 25.986,47.221 10.082,3.209 20.784,2.264 30.137,-2.661 9.316,-4.907 16.132,-13.146 19.204,-23.21 1.907,-7.248 1.256,-14.032 -2.175,-22.655 -0.827,-2.081 -3.375,-6.922 -9.152,-6.922 -0.564,0 -1.104,0.483 -1.311,0.691 -0.783,0.787 -1.248,1.961 -1.241,3.134 l 0.082,14.564 c 0.001,0.135 0.008,0.269 0.008,0.405 0,0.079 -0.004,0.158 -0.004,0.237 l 0.117,20.73 c 0.023,4.267 -3.416,7.746 -7.684,7.77 -1.996,0 -3.808,-0.748 -5.182,-1.973 -3.775,2.456 -8.215,3.829 -13.096,3.829 -15.333,0 -27.344,-13.501 -27.344,-30.737 0,-17.498 12.043,-31.734 26.846,-31.734 5.442,0 10.447,1.906 14.604,5.2 0.59,-0.819 1.226,-1.607 1.941,-2.326 3.364,-3.38 7.72,-5.242 12.264,-5.242 12.45,0 20.309,8.609 23.511,16.664 4.71,11.842 5.547,21.855 2.714,32.469"
             style="fill:#f9f7f8;fill-opacity:1;fill-rule:nonzero;stroke:none"
             id="path2561" /></g><g
           id="g2563"
           transform="translate(153.3652,135.4653)"><path
             d="m 0,0 c -4.831,-5.68 -12.083,-9.696 -18.043,-9.994 -3.75,-0.184 -6.933,1.016 -9.701,3.679 -5.341,5.137 -5.902,10.698 -5.434,14.459 0.757,6.087 4.654,11.683 10.42,14.971 1.18,0.671 2.312,1.317 3.402,1.94 L 1.071,1.272 C 0.717,0.847 0.359,0.422 0,0 m -22.396,55.557 c 0.264,1.851 1.221,3.487 2.557,4.379 1.396,0.888 3.713,1.445 5.328,1.414 3.405,0 6.304,-1.662 7.574,-3.853 1.782,-3.074 -0.785,-6.197 -3.252,-8.276 -1.609,-1.356 -3.577,-2.75 -5.907,-4.247 l -5.205,6.06 c -0.945,1.124 -1.344,2.773 -1.095,4.523 M 21.043,1.737 c 5.981,8.103 10.064,14.621 10.311,15.014 2.258,3.62 1.156,8.384 -2.463,10.645 -3.619,2.258 -8.385,1.158 -10.646,-2.461 C 18.196,24.856 15.213,20.1 10.692,13.787 L -5.939,33.15 c 2.109,1.416 3.989,2.806 5.709,4.255 9.306,7.843 11.921,18.771 6.662,27.844 -5.705,9.837 -18.617,14.107 -30.024,9.932 -1.845,-0.675 -3.42,-1.456 -4.819,-2.389 -5.011,-3.34 -8.394,-8.827 -9.282,-15.052 -0.87,-6.097 0.794,-12.166 4.618,-16.713 l 3.464,-4.033 c -0.264,-0.15 -0.531,-0.302 -0.798,-0.455 -9.979,-5.687 -16.746,-15.588 -18.103,-26.485 -1.28,-10.269 2.29,-20.037 10.054,-27.505 5.469,-5.261 12.239,-8.014 19.664,-8.014 0.504,0 1.011,0.013 1.522,0.038 11.929,0.596 22.451,7.944 28.538,14.832 l 9.406,-10.952 c 2.779,-3.236 7.658,-3.607 10.895,-0.827 3.238,2.781 3.608,7.659 0.828,10.895 z"
             style="fill:#f9f7f8;fill-opacity:1;fill-rule:nonzero;stroke:none"
             id="path2565" /></g><g
           id="g2567"
           transform="translate(70.8408,261.3149)"><path
             d="m 0,0 h -11.606 v 11.606 c 0,4.268 -3.459,7.727 -7.727,7.727 -4.268,0 -7.727,-3.459 -7.727,-7.727 V 0 h -11.606 c -4.268,0 -7.727,-3.459 -7.727,-7.727 0,-4.267 3.459,-7.726 7.727,-7.726 H -27.06 V -27.06 c 0,-4.267 3.459,-7.726 7.727,-7.726 4.268,0 7.727,3.459 7.727,7.726 v 11.607 H 0 c 4.268,0 7.727,3.459 7.727,7.726 C 7.727,-3.459 4.268,0 0,0"
             style="fill:#8ac9fe;fill-opacity:1;fill-rule:nonzero;stroke:none"
             id="path2569" /></g><g
           id="g2571"
           transform="translate(448.4824,406.2866)"><path
             d="m 0,0 h -7.818 l 3.496,14.418 h 7.818 z m 31.343,14.418 c 4.267,0 7.726,3.46 7.726,7.727 0,4.267 -3.459,7.726 -7.726,7.726 h -8.198 l 4.53,18.682 c 1.005,4.147 -1.541,8.324 -5.689,9.33 -4.146,1.005 -8.324,-1.541 -9.33,-5.688 L 7.243,29.871 h -7.818 l 4.53,18.682 c 1.005,4.147 -1.541,8.324 -5.687,9.33 -4.148,1.005 -8.325,-1.541 -9.331,-5.688 l -5.414,-22.324 h -11.917 c -4.267,0 -7.726,-3.459 -7.726,-7.726 0,-4.267 3.459,-7.727 7.726,-7.727 h 8.17 L -23.72,0 h -11.879 c -4.268,0 -7.726,-3.459 -7.726,-7.726 0,-4.267 3.458,-7.727 7.726,-7.727 h 8.132 l -4.646,-19.161 c -1.005,-4.147 1.541,-8.324 5.688,-9.329 0.612,-0.149 1.224,-0.221 1.827,-0.221 3.483,0 6.646,2.373 7.503,5.908 l 5.53,22.803 h 7.818 l -4.647,-19.161 c -1.004,-4.147 1.541,-8.324 5.688,-9.329 0.612,-0.149 1.225,-0.221 1.827,-0.221 3.483,0 6.647,2.373 7.503,5.908 l 5.53,22.803 h 11.984 c 4.267,0 7.725,3.46 7.725,7.727 0,4.267 -3.458,7.726 -7.725,7.726 h -8.237 l 3.496,14.418 z"
             style="fill:#fe646f;fill-opacity:1;fill-rule:nonzero;stroke:none"
             id="path2573" /></g><g
           id="g2575"
           transform="translate(465.7852,325.5522)"><path
             d="m 0,0 h -11.607 v 11.606 c 0,4.268 -3.458,7.727 -7.726,7.727 -4.268,0 -7.727,-3.459 -7.727,-7.727 V 0 h -11.605 c -4.268,0 -7.727,-3.459 -7.727,-7.727 0,-4.267 3.459,-7.726 7.727,-7.726 h 11.605 v -11.606 c 0,-4.268 3.459,-7.727 7.727,-7.727 4.268,0 7.726,3.459 7.726,7.727 v 11.606 H 0 c 4.268,0 7.726,3.459 7.726,7.726 C 7.726,-3.459 4.268,0 0,0"
             style="fill:#ffe177;fill-opacity:1;fill-rule:nonzero;stroke:none"
             id="path2577" /></g></g></g></g></svg>
