<svg viewBox="0 0 513.869 513.869" xmlns="http://www.w3.org/2000/svg"><g><circle cx="467.238" cy="143.332" fill="#3fa459" r="45.257"></circle><path d="M507.363 164.271c-7.548 14.454-22.684 24.318-40.126 24.318-24.99 0-45.255-20.265-45.255-45.255 0-17.442 9.864-32.579 24.318-40.126-3.278 6.255-5.128 13.379-5.128 20.937 0 24.99 20.265 45.255 45.255 45.255 7.557-.001 14.681-1.851 20.936-5.129z" fill="#388b4d"></path><circle cx="306.443" cy="144.707" fill="#3fa459" r="46.63"></circle><path d="M347.581 166.66c-7.858 14.682-23.336 24.669-41.14 24.669-25.755 0-46.63-20.875-46.63-46.63 0-17.804 9.988-33.282 24.669-41.14a46.409 46.409 0 0 0-5.48 21.95c0 25.755 20.875 46.63 46.63 46.63a46.418 46.418 0 0 0 21.951-5.479z" fill="#388b4d"></path><circle cx="386.106" cy="54.198" fill="#3fa459" r="54.198"></circle><path d="M432.818 81.713c-9.429 15.974-26.82 26.685-46.702 26.685-29.942 0-54.208-24.266-54.208-54.198 0-19.882 10.711-37.273 26.685-46.702-4.756 8.065-7.486 17.473-7.486 27.513 0 29.932 24.256 54.198 54.198 54.198 10.05 0 19.448-2.73 27.513-7.496z" fill="#388b4d"></path><path d="M489.506 136.407a7.753 7.753 0 0 0-7.754 7.754v8.628c0 .331-.27.6-.601.6h-5.122v-36.575a7.754 7.754 0 1 0-15.508 0v25.016h-6.525a.6.6 0 0 1-.6-.6v-11.084a7.753 7.753 0 0 0-7.754-7.754 7.753 7.753 0 0 0-7.754 7.754v11.084c0 8.882 7.226 16.108 16.108 16.108h6.525v68.939a7.753 7.753 0 0 0 7.754 7.754 7.753 7.753 0 0 0 7.754-7.754v-57.379h5.122c8.883 0 16.109-7.226 16.109-16.108v-8.628a7.753 7.753 0 0 0-7.754-7.755zM328.945 141.211a7.753 7.753 0 0 0-7.754 7.754v8.123c0 .061-.05.111-.111.111h-6.886v-36.735c0-4.284-3.471-7.754-7.754-7.754s-7.754 3.471-7.754 7.754v24.494h-6.392a.11.11 0 0 1-.111-.111v-14.7c0-4.284-3.471-7.754-7.754-7.754s-7.754 3.471-7.754 7.754v14.7c0 8.613 7.007 15.619 15.619 15.619h6.392v65.81c0 4.284 3.471 7.754 7.754 7.754s7.754-3.471 7.754-7.754v-53.568h6.886c8.613 0 15.619-7.007 15.619-15.619v-8.123a7.753 7.753 0 0 0-7.754-7.755zM408.678 46.014a7.753 7.753 0 0 0-7.754 7.754v12.521a4.376 4.376 0 0 1-4.37 4.37h-2.689v-48.59c0-4.284-3.471-7.754-7.754-7.754s-7.754 3.471-7.754 7.754V51.79h-4.766a4.375 4.375 0 0 1-4.37-4.37v-9.35a7.753 7.753 0 0 0-7.754-7.754 7.753 7.753 0 0 0-7.754 7.754v9.35c0 10.962 8.918 19.879 19.879 19.879h4.766v158.79c0 4.284 3.471 7.754 7.754 7.754s7.754-3.471 7.754-7.754V86.168h2.689c10.962 0 19.879-8.918 19.879-19.879V53.768a7.756 7.756 0 0 0-7.756-7.754z" fill="#894f13"></path><path d="M204.229 103.425v122.85H41.82v-122.85l27.565-27.616 53.64-53.743z" fill="#7cb8e6"></path><path d="M69.385 75.809v150.466H41.82v-122.85z" fill="#5fa8dd"></path><path d="M3.273 126.424a6.459 6.459 0 0 1 0-9.135l95.6-95.6-.036-.036 17.057-17.005c3.942-3.93 10.321-3.93 14.263 0l17.057 17.005-.036.036 95.6 95.6a6.459 6.459 0 0 1 0 9.135l-15.018 15.018a6.459 6.459 0 0 1-9.135 0l-91.033-91.034a6.459 6.459 0 0 0-9.135 0l-91.034 91.034a6.459 6.459 0 0 1-9.135 0L3.273 126.424z" fill="#1c70b1"></path><path d="m242.773 126.419-8.209 8.22-87.387-87.387.031-.041-17.049-17.008c-3.939-3.929-10.319-3.929-14.268 0l-17.05 17.008.031.041-87.387 87.387-8.209-8.22a6.451 6.451 0 0 1 0-9.129l95.596-95.596-.031-.041L115.89 4.644c3.95-3.929 10.329-3.929 14.268 0l17.049 17.008-.031.041 95.596 95.596a6.452 6.452 0 0 1 .001 9.13z" fill="#297fc2"></path><path d="M68.139 128.915h43.672a3.02 3.02 0 0 1 3.02 3.02v94.342H65.12v-94.342a3.019 3.019 0 0 1 3.019-3.02z" fill="#297fc2"></path><path d="M81.285 128.911a3.022 3.022 0 0 0-3.019 3.019v94.345H65.115V131.93a3.024 3.024 0 0 1 3.029-3.019h13.141z" fill="#1c70b1"></path><path d="M145.929 187.972h30.692a5.105 5.105 0 0 0 5.105-5.105v-30.89a5.106 5.106 0 0 0-5.105-5.105h-30.692a5.106 5.106 0 0 0-5.105 5.105v30.89a5.104 5.104 0 0 0 5.105 5.105z" fill="#c3dff6"></path><path d="M181.73 177.309v5.563c0 2.812-2.295 5.097-5.108 5.097h-30.697a5.1 5.1 0 0 1-5.097-5.097v-30.894a5.103 5.103 0 0 1 5.097-5.108h4.601v25.331a5.106 5.106 0 0 0 5.108 5.108h26.096z" fill="#97c8ed"></path><path d="M491.861 419.273H27.765c-11.2 0-20.279-9.079-20.279-20.279V246.557c0-11.2 9.08-20.279 20.279-20.279h464.096c11.2 0 20.279 9.08 20.279 20.279v152.437c0 11.199-9.079 20.279-20.279 20.279z" fill="#787781"></path><path d="M444.678 275.808h35.319v95.462h-35.319z" fill="#ef785a"></path><path d="M444.678 275.798h11.58v95.472h-11.58z" fill="#ec6349"></path><path d="M317.123 306.609h56.726v58.892h-56.726z" fill="#ef785a"></path><path d="M484.297 375.987v96.992H317.122v-96.992l15.674-14.444 67.919-62.562z" fill="#ef785a"></path><path d="M317.123 306.609h15.674v58.892h-15.674z" fill="#ec6349"></path><path d="M332.796 361.543v111.436h-15.674v-96.992z" fill="#ec6349"></path><path d="M487.232 284.398h-49.787a4.341 4.341 0 0 1-4.341-4.341v-20.841a4.341 4.341 0 0 1 4.341-4.341h49.787a4.341 4.341 0 0 1 4.341 4.341v20.841a4.34 4.34 0 0 1-4.341 4.341z" fill="#cd2e17"></path><path d="M491.575 269.648v10.412a4.341 4.341 0 0 1-4.342 4.342H437.45a4.341 4.341 0 0 1-4.342-4.342v-10.412a4.341 4.341 0 0 0 4.342 4.342h49.783a4.34 4.34 0 0 0 4.342-4.342z" fill="#ab2817"></path><path d="M446.47 476.821h-35.003a3.013 3.013 0 0 1-3.014-3.014V397.49a3.013 3.013 0 0 1 3.014-3.014h35.003a3.013 3.013 0 0 1 3.014 3.014v76.317a3.016 3.016 0 0 1-3.014 3.014z" fill="#ec6349"></path><path d="M424.319 476.825h-12.852a3.022 3.022 0 0 1-3.019-3.019v-76.314a3.022 3.022 0 0 1 3.019-3.019h12.852a3.013 3.013 0 0 0-3.009 3.019v76.314a3.013 3.013 0 0 0 3.009 3.019z" fill="#ea532f"></path><path d="M378.355 438.897h-27.629a6.7 6.7 0 0 1-6.701-6.701v-25.847a6.7 6.7 0 0 1 6.701-6.701h27.629a6.7 6.7 0 0 1 6.701 6.701v25.847a6.703 6.703 0 0 1-6.701 6.701z" fill="#f7bbac"></path><path d="M385.051 431.084v1.117c0 3.691-2.998 6.7-6.7 6.7h-27.626a6.706 6.706 0 0 1-6.7-6.7v-25.848c0-3.701 2.998-6.7 6.7-6.7h1.117v24.721c0 3.701 2.998 6.71 6.7 6.71h26.509z" fill="#f2927a"></path><path d="M505.36 472.348H290.972a3.883 3.883 0 0 0-3.883 3.883v25.281a3.883 3.883 0 0 0 3.883 3.883H505.36a3.883 3.883 0 0 0 3.883-3.883v-25.281a3.883 3.883 0 0 0-3.883-3.883z" fill="#aa6216"></path><path d="M509.245 485.624v15.891a3.88 3.88 0 0 1-3.888 3.877H290.974a3.88 3.88 0 0 1-3.888-3.877v-15.891a3.88 3.88 0 0 0 3.888 3.877h214.383a3.88 3.88 0 0 0 3.888-3.877z" fill="#894f13"></path><path d="M393.684 321.604h-97c-3.903 0-6.022-4.565-3.502-7.546l18.993-20.837a5.756 5.756 0 0 1 4.251-1.878h77.258v30.261z" fill="#ea532f"></path><path d="M393.684 311.78v9.822h-97.002c-3.898 0-6.017-4.56-3.495-7.548l2.233-2.45c.393.114.817.176 1.261.176h97.003z" fill="#e73e1f"></path><path d="m495.835 374.87-88.956-88.956a8.67 8.67 0 0 0-12.259-.003l-89.033 88.958c-3.753 3.753-3.753 9.84 0 13.593l3.613 3.613c3.753 3.753 9.84 3.754 13.593 0l73.024-73.024a6.923 6.923 0 0 1 9.791 0l73.024 73.025c3.754 3.753 9.84 3.753 13.593 0l3.612-3.613c3.751-3.753 3.751-9.839-.002-13.593z" fill="#891f12"></path><path d="m495.835 388.466-.455.465-88.504-88.504c-3.381-3.381-8.871-3.381-12.262 0l-88.566 88.504-.465-.465c-3.753-3.753-3.753-9.843 0-13.596l89.031-88.958c3.391-3.381 8.881-3.381 12.262 0l88.958 88.958c3.754 3.753 3.754 9.843.001 13.596z" fill="#ab2817"></path><path d="M99.006 336.057h-66.37a4.959 4.959 0 0 1-4.959-4.959v-19.665a4.959 4.959 0 0 1 4.959-4.959h66.37a4.959 4.959 0 0 1 4.959 4.959v19.665a4.96 4.96 0 0 1-4.959 4.959zM263.699 336.057h-66.37a4.959 4.959 0 0 1-4.959-4.959v-19.665a4.959 4.959 0 0 1 4.959-4.959h66.37a4.959 4.959 0 0 1 4.959 4.959v19.665a4.96 4.96 0 0 1-4.959 4.959z" fill="#d8d7da"></path><circle cx="208.81" cy="411.262" fill="#3fa459" r="45.257"></circle><circle cx="48.004" cy="412.627" fill="#3fa459" r="46.63"></circle><circle cx="127.679" cy="322.128" fill="#3fa459" r="54.198"></circle><path d="M248.935 432.201c-7.558 14.454-22.695 24.318-40.126 24.318-25 0-45.255-20.265-45.255-45.255 0-17.442 9.864-32.579 24.318-40.126-3.278 6.255-5.128 13.379-5.128 20.937 0 24.99 20.254 45.255 45.255 45.255 7.557-.001 14.681-1.851 20.936-5.129zM89.153 434.589c-7.858 14.682-23.336 24.669-41.15 24.669-25.745 0-46.619-20.875-46.619-46.63 0-17.804 9.988-33.282 24.669-41.14a46.409 46.409 0 0 0-5.48 21.95c0 25.755 20.875 46.63 46.619 46.63a46.467 46.467 0 0 0 21.961-5.479zM174.379 349.643c-9.429 15.974-26.82 26.685-46.702 26.685-29.932 0-54.198-24.266-54.198-54.198 0-19.893 10.711-37.283 26.685-46.702-4.766 8.065-7.496 17.473-7.496 27.513 0 29.932 24.266 54.198 54.198 54.198 10.05 0 19.449-2.73 27.513-7.496z" fill="#388b4d"></path><path d="M231.073 404.337a7.753 7.753 0 0 0-7.754 7.754v8.628a.6.6 0 0 1-.6.6h-5.122v-35.345c0-4.284-3.471-7.754-7.754-7.754s-7.754 3.471-7.754 7.754v22.342h-6.525c-.331 0-.6-.27-.6-.601v-11.084a7.753 7.753 0 0 0-7.754-7.754 7.753 7.753 0 0 0-7.754 7.754v11.084c0 8.883 7.226 16.109 16.108 16.109h6.525v82.289c0 4.284 3.471 7.754 7.754 7.754s7.754-3.471 7.754-7.754V436.826h5.122c8.882 0 16.108-7.226 16.108-16.108v-8.628a7.752 7.752 0 0 0-7.754-7.753zM70.513 409.142a7.753 7.753 0 0 0-7.754 7.754v8.124a.11.11 0 0 1-.111.111h-6.885v-35.503a7.753 7.753 0 0 0-7.754-7.754 7.754 7.754 0 0 0-7.754 7.754v23.261h-6.393a.112.112 0 0 1-.111-.112v-8.744c0-4.284-3.471-7.754-7.754-7.754s-7.754 3.471-7.754 7.754v8.744c0 8.613 7.007 15.62 15.619 15.62h6.393v77.718a7.753 7.753 0 0 0 7.754 7.754 7.753 7.753 0 0 0 7.754-7.754v-65.477h6.885c8.613 0 15.619-7.007 15.619-15.619v-8.124a7.752 7.752 0 0 0-7.754-7.753zM150.246 313.943a7.753 7.753 0 0 0-7.754 7.754v12.522c0 2.409-1.96 4.37-4.37 4.37h-2.688v-47.471a7.753 7.753 0 0 0-7.754-7.754 7.753 7.753 0 0 0-7.754 7.754v28.601h-4.766a4.374 4.374 0 0 1-4.369-4.369v-8.877a7.754 7.754 0 1 0-15.508 0v8.877c0 10.961 8.918 19.878 19.878 19.878h4.767v170.7a7.753 7.753 0 0 0 7.754 7.754 7.754 7.754 0 0 0 7.754-7.754V354.098h2.688c10.962 0 19.879-8.918 19.879-19.879v-12.522a7.758 7.758 0 0 0-7.757-7.754z" fill="#894f13"></path></g></svg>