<svg viewBox="0 0 512 512" xmlns="http://www.w3.org/2000/svg"><g><path d="M256 0c-79.978 0-114.759 50.406-114.759 84.039s17.655 92.513 17.655 92.513a497.873 497.873 0 0 1 8.828 61.793c0 16.949 0 25.688 15.625 42.019-1.589 9.004-4.414 23.217-7.239 37.694l1.589 17.39A216.72 216.72 0 0 0 256 353.103a216.726 216.726 0 0 0 78.301-17.655l1.589-17.39c-2.825-14.477-5.65-28.69-7.239-37.694 15.625-16.331 15.625-25.07 15.625-42.019a497.685 497.685 0 0 1 8.828-61.793s17.655-58.88 17.655-92.513S335.448 0 256 0z" fill="#fdd7ad"></path><path d="M370.759 84.039c0 33.633-17.655 92.513-17.655 92.513a209.996 209.996 0 0 1-15.713-44.668c-4.237-20.568-16.243-34.428-37.252-34.781-11.564-.177-26.483 0-26.483 0C256 97.103 256 70.621 256 70.621h-2.119c-38.442.833-71.433 27.61-80.154 65.059a213.787 213.787 0 0 1-14.83 40.872s-17.655-58.88-17.655-92.513S176.022 0 256 0c79.448 0 114.759 50.406 114.759 84.039z" fill="#cb8252"></path><path d="m335.89 318.058-1.589.353c-7.062 4.149-46.345 25.865-78.301 25.865s-71.239-21.716-78.301-25.865l-1.589-.353c2.825-14.477 5.65-28.69 7.239-37.694.618.706 1.324 1.412 2.03 2.119l34.516 14.301a127.393 127.393 0 0 1 16.066 8.563 26.28 26.28 0 0 0 13.33 3.619h13.418a26.295 26.295 0 0 0 13.33-3.619 127.66 127.66 0 0 1 16.066-8.563l34.516-14.301c.706-.706 1.412-1.412 2.03-2.119 1.589 9.004 4.414 23.217 7.239 37.694z" fill="#cbb292"></path><path d="M512 467.862V512H0v-44.138c1.163-32.379 22.424-60.585 53.23-70.621 31.073-10.328 88.806-22.334 114.494-35.31 1.766-10.24 5.12-27.277 8.386-43.873l1.589.353c7.062 4.149 46.345 25.865 78.301 25.865s71.239-21.716 78.301-25.865l1.589-.353c3.266 16.596 6.621 33.633 8.386 43.873 25.688 12.977 83.421 24.982 114.494 35.31 30.806 10.036 52.067 38.242 53.23 70.621z" fill="#35495e"></path><path d="m347.189 363.343-.265.53-1.854.353c-8.033 4.149-52.701 25.865-89.07 25.865s-81.037-21.716-89.07-25.865l-1.854-.353-.265-.53c.971-.441 1.942-.971 2.913-1.412 1.766-10.24 5.12-27.277 8.386-43.873l1.589.353c7.062 4.149 46.345 25.865 78.301 25.865s71.239-21.716 78.301-25.865l1.589-.353c3.266 16.596 6.621 33.633 8.386 43.873.971.441 1.942.971 2.913 1.412z" fill="#2c3e50"></path><path d="M264.828 512v-52.966h17.655a8.828 8.828 0 0 0 0-17.656h-17.655v-17.655a8.828 8.828 0 0 0-17.656 0v17.655h-17.655a8.828 8.828 0 0 0 0 17.656h17.655V512h17.656z" fill="#f0c419"></path><path d="M289.28 385.412a136.884 136.884 0 0 1-33.28 4.679 136.884 136.884 0 0 1-33.28-4.679l.441-1.854 4.855-43.697a104.394 104.394 0 0 0 27.983 4.414c9.485-.192 18.9-1.677 27.983-4.414l4.855 43.697.443 1.854z" fill="#ffffff"></path><path d="M167.724 361.931V512h-52.966V379.939a325.81 325.81 0 0 0 52.966-18.008zM397.241 379.939V512h-52.966V361.931a325.875 325.875 0 0 0 52.966 18.008z" fill="#e64c3c"></path></g></svg>