<svg viewBox="0 0 58 59" xmlns="http://www.w3.org/2000/svg"><g><g fill="none"><path d="M45.95 45h-.14a2.665 2.665 0 0 1-1.7-.8L38 38.08l-2.46 2.46L32 40l.01-2.99 3.16-3.17a4.008 4.008 0 0 1 5.66 0l6.89 6.89A2.5 2.5 0 0 1 45.95 45zM19 22a6 6 0 0 1-4.44 5.79C14.15 27.62 13.44 29 13 29l-3-1-2.97-6.6v-.01A6 6 0 0 1 19 22z" fill="#fdd7ad"></path><path d="M35.54 40.54 31.09 45h-8.81l-2.41-2.4 5.66-4.24.44.44a3 3 0 0 0 4.24 0l1.8-1.79z" fill="#d75e72"></path><path d="M25.53 38.36 19.87 45l-9.05-9.01-.02.01-5.68-6c-.14-.14-.3-2.39-.47-2.5l-2.38-2.38a3 3 0 1 1 4.24-4.24l.52.51v.01l6.15 6.14h.08c.445-.002.887.083 1.3.25.443.176.844.442 1.18.78l.84.84.72.72.71.71 3.97 3.97.72.72.7.71h.01z" fill="#f9c795"></path><path d="M18.01 30.84a.983.983 0 0 1-.15.12l-1.3.87A.969.969 0 0 1 16 32a1 1 0 0 1-.56-1.83l1.14-.76.72.72zM23.4 36.24a.526.526 0 0 1-.14.12l-.7.47A.969.969 0 0 1 22 37a1 1 0 0 1-.56-1.83l.54-.36.72.72z" fill="#cb8252"></path><path d="M47.9 10a7 7 0 1 0-8.71 10.87A6.907 6.907 0 0 0 43 22a7 7 0 0 0 4.9-12z" fill="#f3d55b"></path><g fill="#f0c419"><path d="M43 4a1 1 0 0 1-1-1V1a1 1 0 0 1 2 0v2a1 1 0 0 1-1 1zM43 30a1 1 0 0 1-1-1v-2a1 1 0 0 1 2 0v2a1 1 0 0 1-1 1zM57 16h-2a1 1 0 0 1 0-2h2a1 1 0 0 1 0 2zM31 16h-2a1 1 0 0 1 0-2h2a1 1 0 0 1 0 2zM51.485 7.515a1 1 0 0 1-.707-1.707l1.414-1.414a1 1 0 1 1 1.414 1.414l-1.414 1.414a1 1 0 0 1-.707.293zM33.1 25.9a1 1 0 0 1-.707-1.707l1.414-1.414a1 1 0 0 1 1.414 1.414l-1.414 1.414a1 1 0 0 1-.707.293zM52.9 25.9a1 1 0 0 1-.707-.293l-1.414-1.414a1 1 0 0 1 1.414-1.414l1.414 1.414A1 1 0 0 1 52.9 25.9zM34.515 7.515a1 1 0 0 1-.707-.293l-1.414-1.414a1 1 0 0 1 1.414-1.414l1.414 1.414a1 1 0 0 1-.707 1.707z" fill="#f0c419"></path><path d="M43 4a1 1 0 0 1-1-1V1a1 1 0 0 1 2 0v2a1 1 0 0 1-1 1zM57 16h-2a1 1 0 0 1 0-2h2a1 1 0 0 1 0 2zM31 16h-2a1 1 0 0 1 0-2h2a1 1 0 0 1 0 2zM51.485 7.515a1 1 0 0 1-.707-1.707l1.414-1.414a1 1 0 1 1 1.414 1.414l-1.414 1.414a1 1 0 0 1-.707.293zM33.1 25.9a1 1 0 0 1-.707-1.707l1.414-1.414a1 1 0 0 1 1.414 1.414l-1.414 1.414a1 1 0 0 1-.707.293zM52.9 25.9a1 1 0 0 1-.707-.293l-1.414-1.414a1 1 0 0 1 1.414-1.414l1.414 1.414A1 1 0 0 1 52.9 25.9zM34.515 7.515a1 1 0 0 1-.707-.293l-1.414-1.414a1 1 0 0 1 1.414-1.414l1.414 1.414a1 1 0 0 1-.707 1.707z" fill="#f0c419"></path></g><path d="M58 47v2a2.006 2.006 0 0 1-2 2H19.76L.88 32.12A3 3 0 0 1 3 27c.587 0 1.162.173 1.65.5.17.11.327.237.47.38l5.69 5.69.01-.02 9.05 9.05 2.41 2.4H56a2.006 2.006 0 0 1 2 2z" fill="#cb8252"></path><path d="M19.76 51H7a3 3 0 0 1 0-6h6.76z" fill="#805333"></path><circle cx="50" cy="55" fill="#805333" r="4"></circle><path d="M10 51h5v6a2 2 0 0 1-2 2h-1a2 2 0 0 1-2-2z" fill="#603e26"></path><circle cx="50" cy="55" fill="#2c2f38" r="2"></circle></g></g></svg>