<svg viewBox="0 0 64 64" xmlns="http://www.w3.org/2000/svg"><g><path d="m62 44-7 6v-3h-9.82a10 10 0 0 1-8.944-5.528l-4.854-9.708A5 5 0 0 0 26.91 29H21v-6h6.82a10 10 0 0 1 8.944 5.528l4.854 9.708A5 5 0 0 0 46.09 41H55v-3z" fill="#f96177"></path><path d="m62 21-7-6v3h-9.82a10 10 0 0 0-8.944 5.528l-4.854 9.708A5 5 0 0 1 26.91 36H21v6h6.82a10 10 0 0 0 8.944-5.528l4.854-9.708A5 5 0 0 1 46.09 24H55v3z" fill="#f94660"></path><path d="M19.521 14.706c.148-.413.516-.706.955-.706H22v-4h-1.524c-.439 0-.807-.293-.955-.706a7.953 7.953 0 0 0-.289-.699c-.187-.397-.134-.864.177-1.175l1.077-1.077-2.828-2.828-1.078 1.077c-.31.31-.778.364-1.175.177a7.778 7.778 0 0 0-.699-.289c-.413-.149-.706-.517-.706-.956V2h-4v1.524c0 .439-.293.807-.706.955a7.908 7.908 0 0 0-.699.29c-.397.187-.864.133-1.175-.177L6.343 3.515 3.515 6.343 4.592 7.42c.31.31.364.778.177 1.175a7.908 7.908 0 0 0-.29.699c-.148.413-.516.706-.955.706H2v4h1.524c.439 0 .807.293.955.706.086.239.182.472.289.699.187.397.134.864-.177 1.175l-1.077 1.077 2.828 2.828 1.077-1.077c.31-.31.778-.364 1.175-.177.227.107.461.204.699.289.414.149.707.517.707.956V22h4v-1.524c0-.439.293-.807.706-.955.239-.086.472-.182.699-.289.397-.187.864-.134 1.175.177l1.077 1.077 2.828-2.828-1.077-1.077c-.31-.31-.364-.778-.177-1.175.108-.229.204-.462.29-.7zM12 16a4 4 0 1 1 0-8 4 4 0 0 1 0 8zM19.521 54.706c.148-.413.516-.706.955-.706H22v-4h-1.524c-.439 0-.807-.293-.955-.706a7.953 7.953 0 0 0-.289-.699c-.187-.397-.134-.864.177-1.175l1.077-1.077-2.828-2.828-1.077 1.077c-.31.31-.778.364-1.175.177a7.778 7.778 0 0 0-.699-.289c-.414-.149-.707-.517-.707-.956V42h-4v1.524c0 .439-.293.807-.706.955a7.953 7.953 0 0 0-.699.289c-.397.187-.864.134-1.175-.177l-1.077-1.077-2.828 2.828 1.077 1.077c.31.31.364.778.177 1.175a7.778 7.778 0 0 0-.289.699c-.149.414-.517.707-.956.707H2v4h1.524c.439 0 .807.293.955.706.086.239.182.472.289.699.187.397.134.864-.177 1.175l-1.077 1.077 2.828 2.828 1.077-1.077c.31-.31.778-.364 1.175-.177.227.107.461.204.699.289.414.149.707.517.707.956V62h4v-1.524c0-.439.293-.807.706-.955.239-.086.472-.182.699-.289.397-.187.864-.134 1.175.177l1.077 1.077 2.828-2.828-1.077-1.077c-.31-.31-.364-.778-.177-1.175.108-.229.204-.462.29-.7zM12 56a4 4 0 1 1 0-8 4 4 0 0 1 0 8z" fill="#777777"></path><path d="M16 27h2v2h-2zM12 27h2v2h-2zM16 36h2v2h-2zM12 36h2v2h-2zM8 27h2v2H8zM4 27h2v2H4zM8 36h2v2H8zM4 36h2v2H4z" fill="#545454"></path></g></svg>