<svg viewBox="0 0 512 512" xmlns="http://www.w3.org/2000/svg"><g><path d="M460.004 350.875h-46.433s8.325-124.659 71.463-170.264c.77-.556 1.824.114 1.621 1.042-2.817 12.885-27.975 92.386-26.651 169.222z" fill="#7cb342"></path><path d="M362.605 350.875h46.433s4.861-180.709-58.199-259.483c-.686-.857-1.939-.204-1.792.941 2.624 20.542 14.899 124.312 13.558 258.542z" fill="#8bc34a"></path><path d="M328.603 350.875h46.433s-5.826-115.317-68.963-160.922c-.77-.556-1.824.114-1.621 1.042 2.816 12.886 25.476 83.044 24.151 159.88z" fill="#7cb342"></path><path d="M428.004 350.875h-46.433s-4.861-153.56 58.207-220.489c.696-.738 1.929-.153 1.778.85-2.637 17.554-14.891 105.676-13.552 219.639z" fill="#9ccc65"></path><path d="M512 398.974v-83.161c-21.337 0-21.337 17.622-42.673 17.622s-21.337-17.622-42.673-17.622c-21.334 0-21.334 17.622-42.667 17.622-21.334 0-21.334-17.622-42.668-17.622-21.333 0-21.333 17.622-42.667 17.622-21.333 0-21.333-17.622-42.666-17.622-21.33 0-21.33 17.622-42.661 17.622-21.333 0-21.333-17.622-42.665-17.622-21.333 0-21.333 17.622-42.667 17.622-21.333 0-21.333-17.622-42.666-17.622-21.332 0-21.332 17.622-42.664 17.622-21.331 0-21.331-17.622-42.663-17.622v83.161z" fill="#9ccc65"></path><g fill="#8bc34a"><path d="M182.42 333.434c6.905 0 11.57-1.851 15.452-4.349-8.11-5.218-12.785-13.273-27.212-13.273-6.906 0-11.571 1.851-15.453 4.348 8.11 5.219 12.785 13.274 27.213 13.274zM267.746 333.434c6.905 0 11.571-1.85 15.453-4.348-8.111-5.218-12.786-13.274-27.213-13.274-6.905 0-11.57 1.851-15.452 4.349 8.11 5.218 12.785 13.273 27.212 13.273zM353.081 333.434c6.905 0 11.57-1.85 15.452-4.348-8.111-5.218-12.787-13.274-27.216-13.274-6.905 0-11.57 1.85-15.452 4.348 8.112 5.218 12.788 13.274 27.216 13.274zM438.422 333.434c6.905 0 11.571-1.85 15.453-4.347-8.114-5.218-12.789-13.275-27.22-13.275-6.905 0-11.57 1.85-15.452 4.347 8.112 5.219 12.788 13.275 27.219 13.275zM97.087 333.434c6.906 0 11.571-1.851 15.453-4.348-8.111-5.218-12.786-13.274-27.213-13.274-6.905 0-11.57 1.851-15.452 4.348 8.11 5.219 12.785 13.274 27.212 13.274zM481.095 331.097v67.876H512v-83.161c-16.471.001-20.234 10.496-30.905 15.285zM11.757 333.434c6.906 0 11.571-1.851 15.453-4.349-8.109-5.218-12.784-13.273-27.21-13.273V331.1c3.15 1.414 6.897 2.334 11.757 2.334z" fill="#8bc34a"></path></g><path d="M204.012 398.973h-46.433s8.325-133.695 71.463-179.346c.77-.557 1.824.114 1.621 1.043-2.817 12.899-27.976 101.391-26.651 178.303z" fill="#7cb342"></path><path d="M106.613 398.974h46.433s4.861-189.801-58.199-268.654c-.686-.858-1.939-.204-1.792.942 2.624 20.562 14.899 133.347 13.558 267.712z" fill="#8bc34a"></path><path d="M72.61 398.973h46.433s-5.826-124.344-68.963-169.994c-.77-.557-1.824.114-1.621 1.043 2.817 12.899 25.476 92.039 24.151 168.951z" fill="#7cb342"></path><path d="M172.012 398.974h-46.433s-4.861-162.625 58.207-229.621c.696-.739 1.929-.153 1.778.851-2.638 17.571-14.891 114.692-13.552 228.77z" fill="#9ccc65"></path><path d="M496.539 421H15.461C6.922 421 0 414.078 0 405.539v-15.477h512v15.477c0 8.539-6.922 15.461-15.461 15.461z" fill="#d67b42"></path><path d="M481.095 390.063v15.469c0 8.543-6.918 15.469-15.453 15.469h30.905c8.534 0 15.453-6.926 15.453-15.469v-15.469z" fill="#be652b"></path></g></svg>