<svg viewBox="0 0 464 464" xmlns="http://www.w3.org/2000/svg"><g><path d="m359.89 364.47.01-.02c51.73-44.33 56.06-109.7 25.1-157.92-33.07-51.5-28.59-103.28-29-106.53C356 44.78 311.23 0 256 0h-48c-55.23 0-100 44.78-100 100-.41 3.25 4.07 55.03-29 106.53-30.96 48.22-26.63 113.59 25.1 157.92l.01.02A54.091 54.091 0 0 0 78 410.77V456a8 8 0 0 0 8 8h292c4.42 0 8-3.58 8-8v-45.23c0-19.21-10.14-36.66-26.11-46.3z" fill="#ffd9ad"></path><path d="M265.357 312.206c-21.67 6.561-45.006 6.573-66.713 0-3.91-1.184-6.244-5.132-5.525-9.154 1.121-6.274.71-9.361.851-9.502 24.201 10.094 51.799 10.119 76.06 0 .106.106-.179 3.735.851 9.502.719 4.021-1.614 7.97-5.524 9.154z" fill="#ffca8c"></path><path d="M244.507 284.587c8.988 1.604 8.691 14.683-.37 15.801C185.049 307.679 133 261.532 133 202.13v-52.058c0-3.979 3.102-7.28 7.075-7.497 4.631-.253 9.204-.749 13.708-1.482 4.84-.788 9.217 2.999 9.217 7.903v38.135c0 48.948 35.404 89.229 81.507 97.456z" fill="#ffebd2"></path><path d="M207.25 248.744a8 8 0 0 1 11.319-11.309c7.419 7.427 19.44 7.429 26.86 0a8 8 0 0 1 11.319 11.309c-13.673 13.688-35.821 13.689-49.498 0z" fill="#ffca8c"></path><path d="M257 199a8 8 0 0 1-8-8v-14a8 8 0 0 1 16 0v14a8 8 0 0 1-8 8zM207 199a8 8 0 0 1-8-8v-14a8 8 0 0 1 16 0v14a8 8 0 0 1-8 8z" fill="#585966"></path><path d="M232 157.252c-10.434 0-16.318-11.949-10.175-20.229l3.756-5.049c3.195-4.294 9.639-4.298 12.837 0l3.756 5.049c6.143 8.279.259 20.229-10.174 20.229z" fill="#ff6d7a"></path><path d="M349.585 359.62c-37.814-13.401-43.098-14.316-49.645-17.62-18.13-9.05-29.82-27.61-29.94-48.13l-.1-.26c35.87-14.87 61.1-50.23 61.1-91.48v-52.059a7.509 7.509 0 0 0-7.102-7.497c-33.111-1.814-63.374-16.172-86.465-40.357a7.506 7.506 0 0 0-10.866 0c-23.053 24.143-53.296 38.541-86.465 40.357A7.508 7.508 0 0 0 133 150.07v52.058c0 41.25 25.23 76.61 61.1 91.48l-.1.26c-.136 23.308-15.112 43.544-36.49 50.89-44.879 15.61-46.122 15.275-53.4 19.71l-.01-.02C52.37 320.12 48.04 254.75 79 206.53c33.07-51.5 28.59-103.28 29-106.53C108 44.78 152.77 0 208 0h48c55.23 0 100 44.78 100 100 .41 3.25-4.07 55.03 29 106.53 30.96 48.22 26.63 113.59-25.1 157.92-.1.199-2.909-2.205-10.315-4.83z" fill="#585966"></path><path d="M285.198 4.332c8.783 2.678 6.978 15.586-2.204 15.672-8.794.083-19.856.111-34.994-.004-55.228-.418-100 44.78-100 100-.128.981.196 6.405-.205 14.915-.186 3.951-3.238 7.416-7.694 7.66a7.508 7.508 0 0 0-7.102 7.496v52.058c0 41.25 25.23 76.61 61.1 91.48l-.1.26c-.136 23.309-15.113 43.544-36.49 50.89-46.159 15.988-46.479 15.492-53.4 19.71l-.01-.02C52.37 320.12 48.04 254.75 79 206.53c33.07-51.5 28.59-103.28 29-106.53C108 44.78 152.77 0 208 0h48a99.943 99.943 0 0 1 29.198 4.332z" fill="#6e6f80"></path><path d="M349.585 359.62c-47.502-16.308-45.461-15.508-49.645-17.62v.01c-14.73 30.98-39.98 52.58-67.95 62.88-27.97-10.31-53.21-31.91-67.93-62.88 0-.12-1.966 1.175-6.55 2.75-44.813 15.587-46.018 15.212-53.4 19.71A54.091 54.091 0 0 0 78 410.77V456a8 8 0 0 0 8 8h292c4.42 0 8-3.58 8-8v-45.23c0-23.872-15.526-43.978-36.415-51.15z" fill="#ffe773"></path><path d="M171.167 354.99c2.738 4.376.731 10.152-4.149 11.835-15.667 5.402-22.529 7.705-22.629 7.805-21.189 7.335-36.39 27.501-36.39 51.14V456a8 8 0 0 1-8 8H86a8 8 0 0 1-8-8v-45.23c0-23.656 15.218-43.811 36.39-51.14.1-.1 31.642-10.878 43.12-14.87 2.27-.78 4.45-1.7 6.55-2.76 0 .215 3.348 6.982 7.107 12.99z" fill="#fff0a6"></path><path d="M386 410.77V456c0 4.42-3.58 8-8 8H124.12c-3.123-31.801 22.338-57.723 56.87-53.12 44.955 5.996 95.324-19.18 118.95-68.87 0-.12 1.966 1.175 6.55 2.75 1.52.52 45.48 15.73 46.63 16.22 19.604 8.39 32.88 27.748 32.88 49.79z" fill="#ff6d7a"></path><path d="M326.87 351.785c4.872 1.673 6.906 7.443 4.19 11.821-25.525 41.143-70.893 61.766-112.071 56.274-26.831-3.576-50.714 11.604-56.075 37.699-.767 3.731-4.026 6.421-7.835 6.421h-30.96c-3.123-31.801 22.338-57.723 56.87-53.12 44.955 5.996 95.324-19.18 118.95-68.87V342c3.613 1.823 3.494 1.737 26.931 9.785z" fill="#ff8c95"></path><path d="M349.452 359.573c2.06.723 3.169 2.967 2.468 5.034a253.913 253.913 0 0 1-29.43 59.632 7.98 7.98 0 0 1-6.66 3.56c-6.254 0-10.245-7.061-6.64-12.44 12.263-18.394 21.362-37.456 27.578-55.912a4 4 0 0 1 5.099-2.494c3.885 1.344 6.103 2.101 7.585 2.62z" fill="#e84857"></path></g></svg>