<svg id="male" height="512" viewBox="0 0 128 128" width="512" xmlns="http://www.w3.org/2000/svg"><path d="m71 73c-20.9867 0-38 14.5827-38 32.5714v17.4286h76v-17.4286c0-17.9887-17.0132-32.5714-38-32.5714z" fill="#3c4c8c"/><path d="m94 79.6486a42.07 42.07 0 0 0 -23-6.6486 42.07 42.07 0 0 0 -23 6.6486l-4 17.3514v26h54v-26z" fill="#82543a"/><path d="m58 77 13 33 13-33z" fill="#3c4c8c"/><path d="m71 110 4.295-10.904-1.295-8.096h-6l-1.295 8.096z" fill="#373737"/><path d="m74 91h-6l-3-8h12z" fill="#464646"/><path d="m71 83a8 8 0 0 1 -8-8v-11h16v11a8 8 0 0 1 -8 8z" fill="#f7b991"/><path d="m67 6h8a22 22 0 0 1 22 22v8a26 26 0 0 1 -26 26 26 26 0 0 1 -26-26v-8a22 22 0 0 1 22-22z" fill="#673821"/><path d="m90.5 53.25h3a6.0176 6.0176 0 0 0 6-6 6.0176 6.0176 0 0 0 -6-6h-3a6.0176 6.0176 0 0 0 -6 6 6.0176 6.0176 0 0 0 6 6z" fill="#f7b991"/><path d="m51.5 53.25h-3a6.0176 6.0176 0 0 1 -6-6 6.0176 6.0176 0 0 1 6-6h3a6.0176 6.0176 0 0 1 6 6 6.0176 6.0176 0 0 1 -6 6z" fill="#f7b991"/><rect fill="#fdcba8" height="51" rx="22" width="44" x="49" y="21"/><path d="m77 60a6 6 0 0 1 -12 0z" fill="#e62626"/><path d="m71 56a2 2 0 0 1 -2-2v-4a2 2 0 0 1 2-2 2 2 0 0 1 2 2v4a2 2 0 0 1 -2 2z" fill="#f7b991"/><circle cx="59" cy="44" fill="#673821" r="3"/><circle cx="83" cy="44" fill="#673821" r="3"/><path d="m81 88-10-5 8-11 6 3z" fill="#465aa0"/><path d="m61 88 10-5-8-11-6 3z" fill="#465aa0"/><g fill="#673821"><path d="m88.0873 38.6941a8.4177 8.4177 0 0 0 -10.1746 0 1.2388 1.2388 0 0 1 -1.5626.0518 1.1267 1.1267 0 0 1 .3636-1.6314 10.4019 10.4019 0 0 1 12.5727 0 1.1268 1.1268 0 0 1 .3635 1.6314 1.2387 1.2387 0 0 1 -1.5626-.0518z"/><path d="m64.0873 38.6941a8.4177 8.4177 0 0 0 -10.1746 0 1.2388 1.2388 0 0 1 -1.5626.0518 1.1268 1.1268 0 0 1 .3635-1.6314 10.4021 10.4021 0 0 1 12.5728 0 1.1268 1.1268 0 0 1 .3635 1.6314 1.2387 1.2387 0 0 1 -1.5626-.0518z"/><path d="m72 16.3-19-.3c0 11.0457 10 19 20 19 0 0-6-7-1-18.7z"/><path d="m73.2154 11h-3.2154v5.468c0 10.2795 6.314 18.732 14.4 19.732a16.7892 16.7892 0 0 1 -5.1558-4.6981 20.6855 20.6855 0 0 0 11.5404 3.4981h3.2154v-3.2154a20.7846 20.7846 0 0 0 -20.7846-20.7846z"/></g><path d="m22 113v7h27v-2a5 5 0 0 0 -5-5z" fill="#e6e6e6"/><path d="m49 118v2h27v-7h-22a5 5 0 0 0 -5 5z" fill="#e6e6e6"/><path d="m19 120h60v3h-60z" fill="#e62626"/><path d="m44 120a5 5 0 0 0 10 0z" fill="#e62626"/><path d="m47 118v2a2 2 0 0 0 4 0v-2z" fill="#e6e6e6"/></svg>