<svg viewBox="0 0 59 56" xmlns="http://www.w3.org/2000/svg"><g><g fill="none" transform="translate(-1)"><path d="M58.56 44c-2-3-4.5-3-12.56-3s-21-7-23-14c-.91-3.19-2.86-8.14-5-6-9-.32-15 2-15 3a11.36 11.36 0 0 1 1 10c-2 6-3 8-3 13 .17-.51-.43 6.52 1 7a30.11 30.11 0 0 0 6.83.91 192.72 192.72 0 0 0 31.23-.47c4.44-.37 16.8-3.06 18.5-6.44a4.83 4.83 0 0 0 0-4z" fill="#e64c3c"></path><path d="M56 21.87c2.08-6.25 3-7.87 3-13.11 0-.95.29-6.48-1-6.89A29 29 0 0 0 51.17 1a192.72 192.72 0 0 0-31.23.46c-4.44.37-16.8 3.06-18.5 6.45a4.83 4.83 0 0 0 0 4c2 3 4.5 3 12.56 3s21 7 23 14 3.94 7 5 6c9.08.35 16.48-2 15-3a11.29 11.29 0 0 1-1-10.04z" fill="#e64c3c"></path><path d="M58.56 48c-1.7 3.38-14.06 6.07-18.5 6.44a192.72 192.72 0 0 1-31.23.47A30.11 30.11 0 0 1 2 54c-1.26-.42-.94-6-1-6.89C1.72 50 30.16 52 43 49c1.47-.34 2.8-.66 4-1 9.53-2.45 11.55-4 11.55-4a4.83 4.83 0 0 1 .01 4zM1 47.1a.15.15 0 0 1 0-.1v.1z" fill="#ecf0f1"></path><path d="M47 48s-14-3-22-8-11-15-11-15l4-4c1-1 3-1 5 6s15 14 23 14c0 0-3 3 1 7z" fill="#c03a2b"></path><path d="M58.56 44s-2 1.57-11.55 4c-4-4-1-7-1-7 8.05 0 10.55 0 12.55 3z" fill="#95a5a5"></path><circle cx="22" cy="46.99" fill="#35495e" r="1"></circle><g fill="#ecf0f1"><circle cx="19" cy="25.99" fill="#ecf0f1" r="1"></circle><circle cx="21" cy="29.99" fill="#ecf0f1" r="1"></circle><circle cx="23" cy="32.99" fill="#ecf0f1" r="1"></circle><circle cx="26" cy="35.99" fill="#ecf0f1" r="1"></circle><circle cx="29" cy="37.99" fill="#ecf0f1" r="1"></circle><circle cx="32" cy="39.99" fill="#ecf0f1" r="1"></circle><circle cx="36" cy="41.99" fill="#ecf0f1" r="1"></circle><circle cx="40" cy="42.99" fill="#ecf0f1" r="1"></circle></g><circle cx="28" cy="46.99" fill="#35495e" r="1"></circle><circle cx="11" cy="37.99" fill="#d1d4d1" r="5"></circle><path d="m11 33.74.95 2.94h3.09l-2.5 1.81.95 2.93L11 39.61l-2.49 1.81.95-2.93-2.5-1.81h3.09z" fill="#2980ba"></path><path d="m18 21-4 4a14.29 14.29 0 0 1-10.9-.94L3 24c0-1 5.93-3.29 15-3z" fill="#35495e"></path><path d="M59 8.76c-.69-2.94-29.13-4.85-42-1.89-1.47.34-2.8.66-4 1-9.53 2.45-11.55 4-11.55 4a4.83 4.83 0 0 1 0-4c1.7-3.39 14.06-6.08 18.5-6.45A192.72 192.72 0 0 1 51.17 1a29 29 0 0 1 6.83.87c1.26.41.94 5.94 1 6.89zM59 8.87v-.11a.15.15 0 0 1 0 .11z" fill="#ecf0f1"></path><path d="m46 30.87-4 4c-1 1-3 .85-5-6s-15-14-23-14c0 0 3-3-1-7 0 0 14 3 22 8s11 15 11 15z" fill="#c03a2b"></path><path d="M14 14.87c-8.06 0-10.56 0-12.56-3 0 0 2-1.57 11.55-4 4.01 4 1.01 7 1.01 7z" fill="#95a5a5"></path><circle cx="38" cy="8.87" fill="#35495e" r="1"></circle><circle cx="41" cy="29.87" fill="#ecf0f1" r="1"></circle><circle cx="39" cy="25.87" fill="#ecf0f1" r="1"></circle><circle cx="37" cy="22.87" fill="#ecf0f1" r="1"></circle><circle cx="34" cy="19.87" fill="#ecf0f1" r="1"></circle><circle cx="31" cy="17.87" fill="#ecf0f1" r="1"></circle><circle cx="28" cy="15.87" fill="#ecf0f1" r="1"></circle><circle cx="24" cy="13.87" fill="#ecf0f1" r="1"></circle><circle cx="20" cy="12.87" fill="#ecf0f1" r="1"></circle><circle cx="32" cy="8.87" fill="#35495e" r="1"></circle><circle cx="49" cy="17.87" fill="#d1d4d1" r="5"></circle><path d="m49 22.11-.95-2.93h-3.08l2.49-1.81-.95-2.94L49 16.25l2.49-1.82-.95 2.94 2.49 1.81h-3.08z" fill="#2980ba"></path><path d="M42 34.91c.1 0 .75-.74 4-4a14.29 14.29 0 0 1 11 1c1.43.95-6 3.35-15 3z" fill="#35495e"></path></g></g></svg>