<svg viewBox="0 0 512 512" xmlns="http://www.w3.org/2000/svg"><g><path d="M368 200h104v288H368z" fill="#f49971"></path><path d="M440 312h-40v-80h40z" fill="#575757"></path><path d="M40 200h104v288H40z" fill="#f49971"></path><circle cx="336" cy="64" fill="#f49971" r="40"></circle><path d="M64 88 24 200h160V88zM448 88l40 112H328V88z" fill="#6e6e6e"></path><path d="M144 168h224v320H144z" fill="#d8765b"></path><path d="M256 24 128 136v32h256v-32z" fill="#575757"></path><path d="M232 88h48v48h-48z" fill="#8c8c8c"></path><path d="M72 240h40v80H72zM72 360h40v80H72z" fill="#575757"></path><path d="m59.3 297.579 56.018-39.984 9.296 13.024-56.019 39.984z" fill="#6e6e6e"></path><path d="M208 208a24 24 0 0 1 24 24v88h-48v-88a24 24 0 0 1 24-24z" fill="#575757"></path><path d="m163.682 238.855 8.224-13.713 79.954 47.954-8.225 13.713z" fill="#6e6e6e"></path><path d="m179.638 297.275 47.997-32.017 8.88 13.312-47.997 32.017z" fill="#6e6e6e"></path><path d="M304 208a24 24 0 0 1 24 24v88h-48v-88a24 24 0 0 1 24-24z" fill="#575757"></path><path d="m259.116 297.707 80.014-64.032 10 12.496-80.014 64.032z" fill="#6e6e6e"></path><path d="M184 360h144v128H184z" fill="#575757"></path><path d="m264 344-98.624 82.187L184 450.667l99.861-83.218z" fill="#6e6e6e"></path><path d="M440 440h-40v-80h40z" fill="#575757"></path><path d="m387.358 417.692 56.019-39.984 9.296 13.024-56.019 39.984z" fill="#6e6e6e"></path><path d="m180.72 116.673-3.875 7.749a8 8 0 0 0 3.577 10.733l16 8 7.156-14.31-8.845-4.423 4.422-8.844a8 8 0 0 0-4.625-11.168l-22.034-7.344-13.958 12.213zM322.349 82.055l-17.005 25.507a7.999 7.999 0 0 0-.5 8.016l5.422 10.842-11.923 11.923 11.314 11.314 16-16a8 8 0 0 0 1.498-9.235l-5.924-11.847 13.263-19.893z" fill="#353535"></path><path d="M455.887 110.084 419.2 137.6a8 8 0 0 0-2.355 9.978l5.421 10.842-11.923 11.923 11.314 11.314 16-16a8 8 0 0 0 1.498-9.235l-5.014-10.028 27.38-20.535zM93.706 110.98l-19.363 19.363a8.004 8.004 0 0 0-1.932 3.127l-8 24a8 8 0 0 0 1.932 8.187l16 16 11.314-11.314-12.504-12.504 5.84-17.518 22.664-22.664a8 8 0 0 0 1-10.094L97.614 88h-19.23z" fill="#575757"></path><path d="m472 229.755-44.998 35.998a8 8 0 0 0-2.157 9.825l4.422 8.844-24.845 12.423a8 8 0 0 0-4.011 9.685l8 24 15.178-5.06-5.805-17.417 25.794-12.898a8 8 0 0 0 3.577-10.733l-5.107-10.215L472 250.245z" fill="#e28160"></path><path d="M16 480h480v16H16z" fill="#d8765b"></path><path d="M253.712 389.458 232 408l72 80 21.949-18.279z" fill="#6e6e6e"></path></g></svg>