<?xml version="1.0" encoding="iso-8859-1"?>
<!-- Generator: Adobe Illustrator 21.0.0, SVG Export Plug-In . SVG Version: 6.00 Build 0)  -->
<svg version="1.1" id="Capa_1" xmlns="http://www.w3.org/2000/svg" xmlns:xlink="http://www.w3.org/1999/xlink" x="0px" y="0px"
	 viewBox="0 0 512 512" style="enable-background:new 0 0 512 512;" xml:space="preserve">
<path style="fill:#5CC45C;" d="M510.291,177.129L275.026,412.394c-2.279,2.279-5.974,2.279-8.253,0L135.06,280.681
	c-2.279-2.279-2.279-5.974,0-8.253L370.324,37.163c2.279-2.279,5.974-2.279,8.253,0L510.29,168.876
	C512.57,171.155,512.57,174.85,510.291,177.129z"/>
<path style="fill:#4EAD4E;" d="M510.291,168.876l-35.48-35.48L231.293,376.914l35.48,35.48c2.279,2.279,5.974,2.279,8.253,0
	l235.265-235.265C512.57,174.85,512.57,171.155,510.291,168.876z"/>
<path style="fill:#A0E557;" d="M185.617,291.83c5.133-9.497,5.133-21.053,0-30.551c-0.689-1.275-0.49-2.844,0.535-3.869
	L355.307,88.255c1.025-1.025,2.594-1.224,3.869-0.534c9.495,5.133,21.052,5.133,30.551-0.001c1.275-0.689,2.844-0.49,3.869,0.534
	l65.603,65.603c1.025,1.025,1.224,2.594,0.534,3.869c-5.134,9.498-5.134,21.053,0,30.551c0.689,1.275,0.49,2.844-0.534,3.869
	L290.043,361.302c-1.025,1.025-2.594,1.224-3.869,0.535c-9.498-5.133-21.054-5.133-30.55,0c-1.275,0.689-2.844,0.49-3.869-0.535
	l-65.603-65.603C185.127,294.674,184.928,293.104,185.617,291.83z"/>
<path style="fill:#93CC4A;" d="M459.733,188.277c-5.134-9.498-5.134-21.053,0-30.551c0.689-1.275,0.49-2.844-0.534-3.869
	l-37.774-37.774c-6.786,10.539-6.786,24.204,0,34.743L248.722,323.528c-10.539-6.785-24.205-6.784-34.742,0l37.774,37.774
	c1.025,1.025,2.594,1.223,3.869,0.534c9.496-5.132,21.052-5.133,30.55,0.001c1.275,0.689,2.844,0.49,3.869-0.535l169.156-169.156
	C460.223,191.122,460.422,189.552,459.733,188.277z"/>
<ellipse transform="matrix(0.7071 -0.7071 0.7071 0.7071 -64.4293 294.0033)" style="fill:#F3E8D7;" cx="322.679" cy="224.775" rx="47.98" ry="47.98"/>
<path style="fill:#FCD7C3;" d="M265.779,338.712l72.389-72.389c8.342-8.342,11.889-18.32,3.547-26.662
	c-13.148-16.327-61.143-3.234-83.91,19.533c-11.038,11.038-23.574,23.576-30.483,30.49c-3.381,3.382-7.963,5.282-12.804,5.282
	h-0.249c-7.987,0-17.342-7.734-19.402-15.451l-0.005-66.89l11.945-11.945l13.124-13.124l52.124-52.124
	c-21.444-2.403-42.768-3.703-51.04-4.694c-9.196-1.102-17.04,3.019-24.177,8.923l-66.729,52.644
	c-9.417,7.791-16.206,18.289-19.458,30.071c-7.285,26.388-22.63,73.065-32.369,91.627L29.63,362.655l84.23,84.23l23.426-23.426
	c4.403-4.403,9.847-7.621,15.827-9.355l48.925-16.474c15.369-5.273,28.899-14.853,38.978-27.599L265.779,338.712z"/>
<path style="fill:#FFCDAC;" d="M241.016,370.031l24.763-31.318l72.389-72.389c8.342-8.342,11.889-18.32,3.547-26.662
	c-4.833-6.002-14.375-8.027-25.642-7.058c-16.502,1.419-31.88,8.963-43.592,20.675l-46.068,46.068l-24.763,31.318
	c-10.078,12.746-23.608,22.326-38.978,27.599l-48.925,16.474c-5.98,1.734-11.425,4.952-15.828,9.355l-23.426,23.426l39.366,39.366
	l23.426-23.426c4.403-4.403,9.847-7.621,15.827-9.355l48.925-16.474C217.408,392.356,230.938,382.776,241.016,370.031z"/>
<path style="fill:#464C50;" d="M100.198,473.837L2.71,376.348c-3.613-3.613-3.613-9.47,0-13.083l17.156-17.156
	c3.613-3.613,9.47-3.613,13.083,0l97.489,97.489c3.613,3.613,3.613,9.47,0,13.083l-17.156,17.155
	C109.669,477.45,103.811,477.45,100.198,473.837z"/>
<path style="fill:#33393A;" d="M130.437,443.598l-33.065-33.065l-30.239,30.239l33.065,33.065c3.613,3.613,9.47,3.613,13.083,0
	l17.155-17.155C134.05,453.069,134.05,447.211,130.437,443.598z"/>
<path style="fill:#EFEFEF;" d="M335.307,264.069c-9.607-9.607-25.184-9.607-34.791,0l-10.93,10.93
	c-4.946,4.946-4.946,12.964,0,17.91l10.998,10.998l37.28-37.28L335.307,264.069z"/>
<g>
</g>
<g>
</g>
<g>
</g>
<g>
</g>
<g>
</g>
<g>
</g>
<g>
</g>
<g>
</g>
<g>
</g>
<g>
</g>
<g>
</g>
<g>
</g>
<g>
</g>
<g>
</g>
<g>
</g>
</svg>
