<svg viewBox="0 0 512 512" xmlns="http://www.w3.org/2000/svg"><g><g fill-rule="evenodd"><path d="M173.711 83.904a5 5 0 0 1 0-10h83.614l6.181-10.707a4.979 4.979 0 0 1 4.316-2.499v-.021h60.728a5 5 0 0 1 0 10h-57.867l-5.948 10.302a5 5 0 0 1-4.55 2.924h-86.476z" fill="#7986bf"></path><path d="M119.756 174.986c0 7.017-5.742 12.759-12.759 12.759H60.015c-7.017 0-12.759-5.742-12.759-12.759v-6.77c0-35.116-36.25-44.98-36.25-92.171 0-43.298 36.25-64.947 72.5-64.947s72.5 21.649 72.5 64.948c0 47.191-36.25 57.055-36.25 92.171v6.77z" fill="#fcdb35"></path><path d="M119.756 174.986c0 7.017-5.742 12.759-12.759 12.759h-30.11c-7.017 0-12.759-5.742-12.759-12.759v-6.771c0-35.115-36.25-44.979-36.25-92.171 0-39.933 30.834-61.451 64.064-64.555 33.231 3.104 64.064 24.622 64.064 64.555 0 47.191-36.25 57.055-36.25 92.171z" fill="#ffeb87"></path><path d="M88.487 168.263a4.98 4.98 0 1 1-9.96 0v-37.994h-.02c0-.7.005-1.389.015-2.071-2.898-1.079-5.652-2.923-8.145-5.413-5.628-5.622-10.138-14.802-11.863-25.883a4.98 4.98 0 0 1 9.843-1.523c1.389 8.919 4.823 16.113 9.051 20.336a17.298 17.298 0 0 0 1.754 1.54c1.512-14.124 5.432-22.957 9.485-27.389 2.81-3.073 5.951-4.481 8.915-4.431 3.516.06 6.432 1.963 8.198 5.451 2.144 4.235 2.389 11.462-1.193 20.48-3.112 7.834-7.181 12.861-11.643 15.531a17.156 17.156 0 0 1-4.409 1.882c-.005.491-.008.986-.008 1.489h-.02v37.994zm7.503-71.678c-2.851 3.117-5.611 9.728-6.83 20.784 2.187-1.849 4.292-4.998 6.149-9.674 2.316-5.83 2.562-9.941 1.661-12.066-.245.193-.571.509-.979.955z" fill="#f9ac00"></path><path d="M309.188 93.478a5 5 0 0 1 0 10h-83.603l-13.829 23.952a4.987 4.987 0 0 1-4.316 2.489v.012h-47.728a5 5 0 0 1 0-10h44.855l13.646-23.636a5 5 0 0 1 4.499-2.816h86.476z" fill="#7986bf"></path><path d="M255.95 230.97h20.915c45.943 15.1 66.122.845 82.71-28.723 7.548-13.454 29.345-2.491 22.604 11.625-13.698 28.687-32.995 54.135-76.947 56.727a7.995 7.995 0 0 0-7.533 7.988v70.82h-83.62v-70.829a7.995 7.995 0 0 0-7.525-7.988c-43.871-2.629-63.148-28.057-76.834-56.719-6.74-14.116 15.056-25.079 22.604-11.625 16.589 29.568 36.767 43.822 82.71 28.723h20.915z" fill="#0e82f5"></path><path d="M255.95 230.97h20.915c45.943 15.1 66.122.845 82.71-28.723 7.548-13.454 29.345-2.491 22.604 11.625-13.698 28.687-32.995 54.135-76.947 56.727a7.995 7.995 0 0 0-7.533 7.988v70.82h-71.32v-75.092c0-6.924-5.41-12.623-12.325-12.984-40.953-2.14-61.996-16.151-82.207-60.81 5.383-5.541 15.739-6.721 20.478 1.726 16.589 29.568 36.767 43.822 82.71 28.723z" fill="#2a92fa"></path><path d="M221.656 234.623c5.056-1.293 9.83-2.487 13.378-3.653h41.83c3.548 1.166 8.323 2.36 13.378 3.653l-2.31 3.167c-7.582 10.397-18.903 17.256-31.984 17.256s-24.402-6.859-31.984-17.256l-2.309-3.167z" fill="#0062d9"></path><path d="M232.045 231.898c5.235-2.861 10.036-8.446 10.036-19.13v-2.119h27.737v2.119c0 10.685 4.801 16.269 10.036 19.13-5.76 7.898-14.15 13.148-23.904 13.148s-18.145-5.25-23.904-13.148z" fill="#e6b17c"></path><path d="M269.818 210.649v2.119c0 10.685 4.801 16.269 10.036 19.13-5.76 7.898-14.15 13.148-23.904 13.148-6.2 0-11.849-2.122-16.621-5.696 4.768-3.616 9.953-10.467 9.953-19.533v-9.169h20.537z" fill="#f2c496"></path><path d="M255.949 223.001c-37.298-2.419-47.148-76.413 0-76.413s37.299 73.995 0 76.413z" fill="#f2c496"></path><path d="M255.949 223.001a27.885 27.885 0 0 1-4.499-.672c-19.236-16.231-23.679-58.678-4.031-74.823 2.607-.593 5.443-.918 8.53-.918 47.148 0 37.299 73.995 0 76.413z" fill="#fdd7ad"></path><path d="M276.439 148.641c4.257-1.769 11.336.389 13.703 9.961 1.434 5.802.809 20.223-2.777 28.011-3.888-4.177-4.715-8.824-7.287-12.723-2.01-3.045-5.556-2.159-10.876-.314-14.466 5.021-29.346-3.323-36.575-2.023-5.867 1.055-7.135 9.914-8.092 15.06-6.086-6.788-6.712-25.71-2.027-40.761 24.401 3.766 44.266-14.713 53.932 2.789z" fill="#1a1a1a"></path></g><path d="M250.95 245.046h10v93.773h-10z" fill="#0062d9"></path><path d="m297.7 335.385 7.217 148.191h-36.351l-8.423-87.798c-.208-2.168-2.014-3.81-4.193-3.81s-3.985 1.642-4.194 3.81l-8.423 87.798h-36.351l7.097-148.191z" fill="#ab733a" fill-rule="evenodd"></path><path d="m297.7 335.385 7.217 148.191h-26.751l-8.423-87.798c-1.206-12.569-16.578-14.686-17.986 0l-8.423 87.798h-24.051l7.097-148.191h71.321z" fill="#ba8047" fill-rule="evenodd"></path><path d="M218.138 476.019h14.322c6.876 0 12.501 5.625 12.501 12.501v12.502h-39.325V488.52c0-6.876 5.625-12.501 12.501-12.501zM279.638 476.019h14.322c6.876 0 12.501 5.625 12.501 12.501v12.502h-39.324V488.52c0-6.876 5.625-12.501 12.501-12.501z" fill="#525d91" fill-rule="evenodd"></path><path d="M64.116 176.82h38.78v18.019c0 5.37-4.395 9.765-9.765 9.765H73.882c-5.37 0-9.765-4.394-9.765-9.765V176.82z" fill="#5d689e" fill-rule="evenodd"></path><path d="M75.817 176.82h27.079v18.019c0 5.37-4.395 9.765-9.765 9.765h-7.549c-5.37 0-9.765-4.394-9.765-9.765z" fill="#7986bf" fill-rule="evenodd"></path><path d="M119.756 174.986c0 7.017-5.742 12.759-12.759 12.759H60.015c-7.017 0-12.759-5.742-12.759-12.759v-6.771h72.5z" fill="#7986bf" fill-rule="evenodd"></path><path d="M119.756 174.986c0 7.012-5.733 12.75-12.743 12.759H76.886c-7.017 0-12.759-5.742-12.759-12.759v-6.771h55.629z" fill="#909cd1" fill-rule="evenodd"></path><path d="m431.532 28.573 18.627 7.727 14.905-9.995 20.603 20.603-9.995 14.904 7.727 18.628 17.595 3.469v29.137l-17.595 3.47-7.727 18.628 9.995 14.904-20.603 20.603-14.905-9.995-18.627 7.727-3.47 17.595h-29.137l-3.469-17.595-18.628-7.727-14.904 9.995-20.603-20.603 9.995-14.904-7.727-18.628-17.595-3.47V83.909l17.595-3.469 7.727-18.628-9.995-14.904 20.603-20.603 14.904 9.995 18.628-7.727 3.469-17.595h29.137z" fill="#a3a3cc" fill-rule="evenodd"></path><path d="m431.532 28.573 6.969 2.891.118.049 11.54 4.787.009-.006 3.957 1.639 13.508-9.059 18.034 18.034-9.995 14.904 7.727 18.628 17.595 3.469v29.138l-17.595 3.469-7.727 18.628 9.995 14.904-18.034 18.035-13.508-9.059-3.957 1.638-.009-.006-18.627 7.727-3.47 17.595h-24.581l-3.634-18.428-20.573-8.534-2.446 1.64-11.074 7.426-18.034-18.034 9.996-14.904-9.291-22.462-16.031-3.161V87.435l16.031-3.161 9.291-22.462-9.996-14.904 18.035-18.034 13.519 9.066 20.573-8.534 3.634-18.428h24.581z" fill="#bcbee2" fill-rule="evenodd"></path><circle cx="419.14" cy="98.478" fill="#a3a3cc" r="44.794" transform="rotate(-67.48 419.197 98.36)"></circle><circle cx="413.494" cy="98.478" fill="#f3f3ff" r="44.793" transform="rotate(-13.34 412.912 98.75)"></circle></g></svg>