<svg viewBox="0 0 64 64" xmlns="http://www.w3.org/2000/svg"><g><path d="M63 49c0 4.64-2.94 8-7 8h-9c-5.7 0-10-4.73-10-11V19a2.845 2.845 0 0 1 3-3c13.06 0 23 21.99 23 33zM27 19v27c0 6.27-4.3 11-10 11H8c-4.06 0-7-3.36-7-8 0-11.01 9.94-33 23-33a2.845 2.845 0 0 1 3 3z" fill="#f49a8e"></path><path d="M45 30v4a1 1 0 0 1-1 1c-3.63 0-8.67-1.27-10.86-3.62A12.326 12.326 0 0 1 32 29.95a13.489 13.489 0 0 1-1.14 1.43C28.67 33.73 23.63 35 20 35a1 1 0 0 1-1-1v-4a.99.99 0 0 1 .29-.71A1.033 1.033 0 0 1 20 29c2.23 0 5.48-.71 6.33-1.63 2.12-2.26 2.57-6.53 2.67-8.26a16.167 16.167 0 0 0 0-2.21V6a1 1 0 0 1 1-1h4a1 1 0 0 1 1 1v10.82a17.435 17.435 0 0 0 0 2.29c.1 1.73.55 6 2.67 8.26.85.92 4.1 1.63 6.33 1.63a1.033 1.033 0 0 1 .71.29.99.99 0 0 1 .29.71z" fill="#e5867f"></path><circle cx="48" cy="40" fill="#cb4b57" r="1"></circle><circle cx="56" cy="52" fill="#cb4b57" r="1"></circle><circle cx="54" cy="37" fill="#7d443d" r="1"></circle><circle cx="42" cy="25" fill="#7d443d" r="1"></circle><circle cx="16" cy="34" fill="#cb4b57" r="1"></circle><circle cx="22" cy="21" fill="#7d443d" r="1"></circle><circle cx="12" cy="52" fill="#7d443d" r="1"></circle><circle cx="7" cy="42" fill="#7d443d" r="1"></circle><circle cx="12" cy="38" fill="#e5867f" r="3"></circle><circle cx="8" cy="48" fill="#cb4b57" r="3"></circle><circle cx="49" cy="33" fill="#cb4b57" r="3"></circle><circle cx="55" cy="44" fill="#e5867f" r="3"></circle><path d="M5 25H2a1 1 0 0 1 0-2h3a1 1 0 0 1 0 2zM20 25h-3a1 1 0 0 1 0-2h3a1 1 0 0 1 0 2zM11 19a1 1 0 0 1-1-1v-3a1 1 0 0 1 2 0v3a1 1 0 0 1-1 1zM11 34a1 1 0 0 1-1-1v-3a1 1 0 0 1 2 0v3a1 1 0 0 1-1 1z" fill="#a852a5"></path><circle cx="11" cy="24" fill="#8557a7" r="7"></circle><path d="M18 24a7.008 7.008 0 0 1-7 7 6.9 6.9 0 0 1-4.06-1.31 6.993 6.993 0 0 0 6.12-12.38A7.01 7.01 0 0 1 18 24z" fill="#64417d" opacity=".3"></path><g fill="#55c58f"><circle cx="11" cy="21" fill="#55c58f" r="1"></circle><circle cx="11" cy="27" fill="#55c58f" r="1"></circle><circle cx="11" cy="24" fill="#55c58f" r="1"></circle><circle cx="14" cy="24" fill="#55c58f" r="1"></circle><circle cx="8" cy="24" fill="#55c58f" r="1"></circle></g><path d="M14.536 21.464a1 1 0 0 1-.707-1.707l2.121-2.121a1 1 0 0 1 1.414 1.414l-2.121 2.121a1 1 0 0 1-.707.293zM5.343 30.657a1 1 0 0 1-.707-1.707l2.121-2.121a1 1 0 0 1 1.414 1.414L6.05 30.364a1 1 0 0 1-.707.293zM7.464 21.464a1 1 0 0 1-.707-.293L4.636 19.05a1 1 0 0 1 1.414-1.414l2.121 2.121a1 1 0 0 1-.707 1.707zM16.657 30.657a1 1 0 0 1-.707-.293l-2.121-2.121a1 1 0 0 1 1.414-1.414l2.121 2.121a1 1 0 0 1-.707 1.707z" fill="#714e8a"></path><path d="M16 47h-3a1 1 0 0 1 0-2h3a1 1 0 0 1 0 2zM31 47h-3a1 1 0 0 1 0-2h3a1 1 0 0 1 0 2zM22 41a1 1 0 0 1-1-1v-3a1 1 0 0 1 2 0v3a1 1 0 0 1-1 1zM22 56a1 1 0 0 1-1-1v-3a1 1 0 0 1 2 0v3a1 1 0 0 1-1 1z" fill="#a852a5"></path><circle cx="22" cy="46" fill="#8557a7" r="7"></circle><path d="M29 46a7.008 7.008 0 0 1-7 7 6.9 6.9 0 0 1-4.06-1.31 6.993 6.993 0 0 0 6.12-12.38A7.01 7.01 0 0 1 29 46z" fill="#64417d" opacity=".3"></path><circle cx="22" cy="43" fill="#55c58f" r="1"></circle><circle cx="22" cy="49" fill="#55c58f" r="1"></circle><circle cx="22" cy="46" fill="#55c58f" r="1"></circle><circle cx="25" cy="46" fill="#55c58f" r="1"></circle><circle cx="19" cy="46" fill="#55c58f" r="1"></circle><path d="M25.536 43.464a1 1 0 0 1-.707-1.707l2.121-2.121a1 1 0 0 1 1.414 1.414l-2.121 2.121a1 1 0 0 1-.707.293zM16.343 52.657a1 1 0 0 1-.707-1.707l2.121-2.121a1 1 0 0 1 1.414 1.414l-2.121 2.121a1 1 0 0 1-.707.293zM18.464 43.464a1 1 0 0 1-.707-.293l-2.121-2.121a1 1 0 0 1 1.414-1.414l2.121 2.121a1 1 0 0 1-.707 1.707zM27.657 52.657a1 1 0 0 1-.707-.293l-2.121-2.121a1 1 0 0 1 1.414-1.414l2.121 2.121a1 1 0 0 1-.707 1.707z" fill="#714e8a"></path><path d="M37 50h-3a1 1 0 0 1 0-2h3a1 1 0 0 1 0 2zM52 50h-3a1 1 0 0 1 0-2h3a1 1 0 0 1 0 2zM43 44a1 1 0 0 1-1-1v-3a1 1 0 0 1 2 0v3a1 1 0 0 1-1 1zM43 59a1 1 0 0 1-1-1v-3a1 1 0 0 1 2 0v3a1 1 0 0 1-1 1z" fill="#a852a5"></path><circle cx="43" cy="49" fill="#8557a7" r="7"></circle><path d="M50 49a7.008 7.008 0 0 1-7 7 6.9 6.9 0 0 1-4.06-1.31 6.993 6.993 0 0 0 6.12-12.38A7.01 7.01 0 0 1 50 49z" fill="#64417d" opacity=".3"></path><circle cx="43" cy="46" fill="#55c58f" r="1"></circle><circle cx="43" cy="52" fill="#55c58f" r="1"></circle><circle cx="43" cy="49" fill="#55c58f" r="1"></circle><circle cx="46" cy="49" fill="#55c58f" r="1"></circle><circle cx="40" cy="49" fill="#55c58f" r="1"></circle><path d="M46.536 46.464a1 1 0 0 1-.707-1.707l2.121-2.121a1 1 0 0 1 1.414 1.414l-2.121 2.121a1 1 0 0 1-.707.293zM37.343 55.657a1 1 0 0 1-.707-1.707l2.121-2.121a1 1 0 0 1 1.414 1.414l-2.121 2.121a1 1 0 0 1-.707.293zM39.464 46.464a1 1 0 0 1-.707-.293l-2.121-2.121a1 1 0 0 1 1.414-1.414l2.121 2.121a1 1 0 0 1-.707 1.707zM48.657 55.657a1 1 0 0 1-.707-.293l-2.121-2.121a1 1 0 0 1 1.414-1.414l2.121 2.121a1 1 0 0 1-.707 1.707z" fill="#714e8a"></path><path d="M46 21h-3a1 1 0 0 1 0-2h3a1 1 0 0 1 0 2zM61 21h-3a1 1 0 0 1 0-2h3a1 1 0 0 1 0 2zM52 15a1 1 0 0 1-1-1v-3a1 1 0 0 1 2 0v3a1 1 0 0 1-1 1zM52 30a1 1 0 0 1-1-1v-3a1 1 0 0 1 2 0v3a1 1 0 0 1-1 1z" fill="#a852a5"></path><circle cx="52" cy="20" fill="#8557a7" r="7"></circle><path d="M59 20a7.008 7.008 0 0 1-7 7 6.9 6.9 0 0 1-4.06-1.31 6.993 6.993 0 0 0 6.12-12.38A7.01 7.01 0 0 1 59 20z" fill="#64417d" opacity=".3"></path><circle cx="52" cy="17" fill="#55c58f" r="1"></circle><circle cx="52" cy="23" fill="#55c58f" r="1"></circle><circle cx="52" cy="20" fill="#55c58f" r="1"></circle><circle cx="55" cy="20" fill="#55c58f" r="1"></circle><circle cx="49" cy="20" fill="#55c58f" r="1"></circle><path d="M55.536 17.464a1 1 0 0 1-.707-1.707l2.121-2.121a1 1 0 0 1 1.414 1.414l-2.121 2.121a1 1 0 0 1-.707.293zM46.343 26.657a1 1 0 0 1-.707-1.707l2.121-2.121a1 1 0 0 1 1.414 1.414l-2.121 2.121a1 1 0 0 1-.707.293zM48.464 17.464a1 1 0 0 1-.707-.293l-2.121-2.121a1 1 0 0 1 1.414-1.414l2.121 2.121a1 1 0 0 1-.707 1.707zM57.657 26.657a1 1 0 0 1-.707-.293l-2.121-2.121a1 1 0 0 1 1.414-1.414l2.121 2.121a1 1 0 0 1-.707 1.707z" fill="#714e8a"></path><path d="M32 5v24.95a12.326 12.326 0 0 0 1.14 1.43C35.33 33.73 40.37 35 44 35a1 1 0 0 0 1-1v-4a.99.99 0 0 0-.29-.71A1.033 1.033 0 0 0 44 29c-2.23 0-5.48-.71-6.33-1.63-2.12-2.26-2.57-6.53-2.67-8.26a17.435 17.435 0 0 1 0-2.29V6a1 1 0 0 0-1-1z" fill="#d37a76"></path></g></svg>