<svg viewBox="0 0 682.667 682.667" xmlns="http://www.w3.org/2000/svg"><g><defs><clippath clippathunits="userSpaceOnUse" id="a"><path d="M0 512h512V0H0Z" fill="#000000"></path></clippath></defs><path d="M310.146 67.291h-130.64v91.399h130.64z" fill="#01d0fb" transform="matrix(1.33333 0 0 -1.33333 0 682.667)"></path><g clip-path="url(#a)" transform="matrix(1.33333 0 0 -1.33333 0 682.667)"><path d="M0 0c-58.224 0-105.423-47.2-105.423-105.423v-42.101c0-5.534 4.486-10.02 10.02-10.02H95.403c5.534 0 10.02 4.486 10.02 10.02v42.101C105.423-47.2 58.224 0 0 0" fill="#9be69d" transform="translate(357.89 178.518)"></path><path d="M0 0c-42.338-13.689-72.949-53.417-72.949-100.313v-52.118h-54.916c-5.534 0-10.02 4.486-10.02 10.02v40.752c0 58.348 46.831 106.633 105.179 106.763C-21.296 5.129-10.292 3.335 0 0" fill="#6fd7a3" transform="translate(390.353 173.405)"></path><path d="M0 0c-21.077 0-38.163 17.086-38.163 38.163v38.164h76.326V38.163C38.163 17.086 21.077 0 0 0" fill="#ffdfcf" transform="translate(358.268 97.537)"></path><path d="M0 0c21.83 0 39.526 17.697 39.526 39.527 0 15.689-9.14 29.243-22.386 35.627 8.935 7.247 14.65 18.309 14.65 30.71 0 21.83-17.696 39.527-39.526 39.527-.577 0-1.15-.019-1.72-.044a39.523 39.523 0 0 1 1.72 11.552c0 21.83-17.698 39.527-39.528 39.527-11.027 0-20.995-4.52-28.165-11.803-3.57 18.159-19.571 31.86-38.777 31.86s-35.206-13.701-38.777-31.86c-7.169 7.283-17.138 11.803-28.165 11.803-21.831 0-39.527-17.697-39.527-39.527 0-4.02.604-7.897 1.719-11.552-.57.025-1.142.044-1.719.044-21.83 0-39.527-17.697-39.527-39.527 0-12.401 5.715-23.463 14.651-30.71-13.246-6.384-22.387-19.938-22.387-35.627 0-21.83 17.697-39.527 39.527-39.527" fill="#ffe177" transform="translate(472.474 274.544)"></path><path d="M0 0a39.34 39.34 0 0 1 0-3.493h-116.066c-21.832 0-39.521 17.688-39.521 39.52 0 15.688 9.143 29.247 22.39 35.637-8.935 7.247-14.662 18.299-14.662 30.701 0 21.832 17.701 39.534 39.533 39.534.571 0 1.143-.026 1.714-.052a39.938 39.938 0 0 0-1.714 11.558c0 21.832 17.701 39.521 39.52 39.521A39.25 39.25 0 0 0-48 187.003c-1.987-4.701-3.078-9.883-3.078-15.312 0-11.026 4.519-21 11.805-28.169-18.169-3.571-31.858-19.572-31.858-38.78 0-19.208 13.689-35.208 31.858-38.78-7.286-7.169-11.805-17.13-11.805-28.156 0-21.832 17.688-39.533 39.519-39.533C-7.532-1.727-3.662-1.117 0 0" fill="#ffc344" transform="translate(360.12 278.034)"></path><path d="M0 0h-237.986c-15.696 0-28.42 12.724-28.42 28.419 0 15.696 12.724 28.42 28.42 28.42H0c15.695 0 28.419-12.724 28.419-28.42C28.419 12.724 15.695 0 0 0" fill="#ffcebf" transform="translate(477.259 231.391)"></path><path d="M0 0v-44.183C0-102.612-47.364-149.99-105.807-149.99c-58.429 0-105.794 47.378-105.794 105.807V0c21.767 0 39.416 17.65 39.416 39.416a39.088 39.088 0 0 1-4.636 18.533 40.922 40.922 0 0 1 5.389-.376c17.884 0 32.975 11.922 37.793 28.247 7.13-7.117 16.975-11.507 27.832-11.507 10.87 0 20.702 4.39 27.831 11.507 4.831-16.325 19.923-28.247 37.806-28.247 1.818 0 3.624.142 5.377.376a39.23 39.23 0 0 1-4.623-18.533C-39.416 17.65-21.767 0 0 0" fill="#ffdfcf" transform="translate(464.068 288.235)"></path><path d="M0 0c-6.51-1.25-13.24-1.9-20.11-1.9-58.43 0-105.79 47.37-105.79 105.8v44.19c21.76 0 39.41 17.64 39.41 39.41 0 6.7-1.67 13.01-4.63 18.53 1.75-.23 3.54-.37 5.36-.37V103.9C-85.76 52.32-48.851 9.36 0 0" fill="#ffcebf" transform="translate(378.37 140.15)"></path><path d="M0 0a7.726 7.726 0 0 0-7.727 7.726v21.637A7.726 7.726 0 0 0 0 37.089a7.726 7.726 0 0 0 7.727-7.726V7.726A7.726 7.726 0 0 0 0 0" fill="#596c76" transform="translate(329.663 258.868)"></path><path d="M0 0a7.726 7.726 0 0 0-7.727 7.726v21.637A7.726 7.726 0 0 0 0 37.089a7.726 7.726 0 0 0 7.727-7.726V7.726A7.726 7.726 0 0 0 0 0" fill="#596c76" transform="translate(386.868 258.868)"></path><path d="M0 0c-14.993 0-29.089 5.839-39.691 16.44a7.727 7.727 0 0 0 10.927 10.927C-21.08 19.684-10.865 15.453 0 15.453c10.865 0 21.08 4.231 28.763 11.914A7.726 7.726 0 1 0 39.69 16.44C29.089 5.839 14.993 0 0 0" fill="#ed74b7" transform="translate(358.266 202.26)"></path><path d="M0 0c-58.224 0-105.423-47.2-105.423-105.423v-42.101c0-5.534 4.486-10.02 10.02-10.02H95.403c5.534 0 10.02 4.486 10.02 10.02v42.101C105.423-47.2 58.224 0 0 0" fill="#01d0fb" transform="translate(147.044 178.524)"></path><path d="M0 0c-42.338-13.688-72.95-53.417-72.95-100.313v-52.118h-54.915c-5.534 0-10.021 4.486-10.021 10.02v40.752c0 58.348 46.832 106.633 105.179 106.763C-21.296 5.129-10.293 3.335 0 0" fill="#01c0fa" transform="translate(179.507 173.411)"></path><path d="M0 0c-21.077 0-38.164 17.086-38.164 38.163v38.164h76.327V38.163C38.163 17.086 21.077 0 0 0" fill="#eb9c8d" transform="translate(147.422 97.543)"></path><path d="M0 0h-156.823c-14.92 0-27.015-12.095-27.015-27.015v-157.077H27.015v157.077C27.015-12.095 14.919 0 0 0" fill="#7a8c98" transform="translate(225.446 450.694)"></path><path d="M0 0c-14.922 0-27.013-12.104-27.013-27.013v-157.081h-58.443v157.081C-85.456-12.104-73.365 0-58.442 0Z" fill="#596c76" transform="translate(127.064 450.692)"></path><path d="M0 0h-237.986c-15.696 0-28.419 12.724-28.419 28.419 0 15.696 12.723 28.42 28.419 28.42H0c15.696 0 28.42-12.724 28.42-28.42C28.42 12.724 15.696 0 0 0" fill="#d78878" transform="translate(266.405 231.399)"></path><path d="M0 0v-44.182c0-58.43-47.364-105.808-105.794-105.808-58.442 0-105.807 47.378-105.807 105.808V0l5.572 2.325a51.72 51.72 0 0 1 23.13 19.039 51.712 51.712 0 0 1 8.675 28.676c0 6.597 5.39 11.766 11.741 11.766.662 0 1.325-.052 2-.169a323.547 323.547 0 0 1 54.689-4.662 323.28 323.28 0 0 1 54.676 4.662c.676.117 1.338.169 2 .169 6.351 0 11.754-5.169 11.754-11.766 0-20.871 12.532-39.689 31.793-47.715z" fill="#eb9c8d" transform="translate(253.209 288.241)"></path><path d="M0 0c-6.84-1.39-13.92-2.12-21.16-2.12-58.45 0-105.81 47.38-105.81 105.81v44.18l5.57 2.33a51.689 51.689 0 0 1 23.13 19.04 51.713 51.713 0 0 1 8.68 28.67c0 4.01 1.99 7.49 4.97 9.6V103.69C-84.62 52.52-48.28 9.82 0 0" fill="#d78878" transform="translate(168.58 140.37)"></path><path d="M0 0a7.727 7.727 0 0 0-7.727 7.726v21.637a7.727 7.727 0 0 0 15.453 0V7.726A7.726 7.726 0 0 0 0 0" fill="#596c76" transform="translate(118.81 258.875)"></path><path d="M0 0a7.727 7.727 0 0 0-7.727 7.726v21.637a7.727 7.727 0 0 0 15.453 0V7.726A7.726 7.726 0 0 0 0 0" fill="#596c76" transform="translate(176.015 258.875)"></path><path d="M0 0c-14.374 0-28.748 5.471-39.69 16.414a7.726 7.726 0 1 0 10.926 10.927c15.861-15.861 41.667-15.861 57.528 0A7.726 7.726 0 1 0 39.69 16.414C28.748 5.471 14.374 0 0 0" fill="#d78878" transform="translate(147.413 202.294)"></path><path d="M0 0c-11.99 0-21.709-9.719-21.709-21.709v-10.933c0-11.989 9.719-21.709 21.709-21.709s21.709 9.72 21.709 21.709v10.933C21.709-9.719 11.99 0 0 0" fill="#ffdfcf" transform="translate(47.38 144.072)"></path><path d="M0 0a21.365 21.365 0 0 0-8.29-1.65C-20.28-1.65-30 8.07-30 20.06v10.93c0 11.99 9.72 21.71 21.71 21.71 2.94 0 5.74-.58 8.29-1.65-7.88-3.25-13.42-11.01-13.42-20.06V20.06C-13.42 11.01-7.88 3.25 0 0" fill="#ffcebf" transform="translate(55.671 91.374)"></path><path d="M0 0c-11.989 0-21.709-9.719-21.709-21.709v-10.933c0-11.989 9.72-21.709 21.709-21.709 11.989 0 21.709 9.72 21.709 21.709v10.933C21.709-9.719 11.989 0 0 0" fill="#eb9c8d" transform="translate(455.874 144.072)"></path><path d="M0 0a21.369 21.369 0 0 0-8.29-1.65C-20.28-1.65-30 8.07-30 20.06v10.93c0 11.99 9.72 21.71 21.71 21.71 2.939 0 5.74-.58 8.29-1.65-7.88-3.25-13.42-11.01-13.42-20.06V20.06C-13.42 11.01-7.88 3.25 0 0" fill="#d78878" transform="translate(464.165 91.374)"></path></g></g></svg>