<svg id="Capa_1" enable-background="new 0 0 512 512" height="512" viewBox="0 0 512 512" width="512" xmlns="http://www.w3.org/2000/svg"><g><g><path d="m367.64 479.256h-209.47c2.217-23.407 5.174-44.429 6.988-56.431 1.058-6.895 5.115-13.001 11.103-16.587 11.405-6.837 23.449-12.254 34.804-16.503 20.988-7.878 39.642-11.767 47.662-13.211 2.772-.504 5.585-.504 8.348 0 8.021 1.445 26.674 5.333 47.662 13.211 11.355 4.25 23.399 9.667 34.804 16.503 5.988 3.586 10.045 9.692 11.103 16.587 1.814 12.002 4.771 33.024 6.996 56.431z" fill="#95d6a4"/><path d="m194.972 396.42c-4.628 3.88-7.769 10.414-8.592 17.788-1.495 13.656-3.989 38.138-5.762 65.048h-22.45c2.217-23.407 5.174-44.429 6.988-56.431 1.058-6.895 5.115-13.001 11.103-16.587 6.124-3.67 12.431-6.929 18.713-9.818z" fill="#78c2a4"/><path d="m389.7 248.135-38.118 43.656-148.019-41.014-75.938 1.08s-38.138-55.763-26.58-110.263c11.559-54.487 81.744-21.464 81.744-21.464s38.177-58.288 88.538-58.288c74.832 0 106.332 71.5 140.188 45.909.001.001 44.4 83.931-21.815 140.384z" fill="#9d6b6b"/><path d="m203.564 250.777-48.369 34.637-27.569-33.557s-38.138-55.763-26.58-110.263c11.559-54.487 81.744-21.464 81.744-21.464s-24.068 40.234 19.551 72.346c14.07 10.349 11.363 32.737 1.223 58.301z" fill="#8b5e5e"/><path d="m288.683 337.902v43.055c0 14.235-11.543 25.779-25.779 25.779-14.243 0-25.787-11.543-25.787-25.779v-43.055z" fill="#ffddce"/><path d="m271.323 405.331c-2.638.908-5.469 1.404-8.417 1.404-14.243 0-25.787-11.543-25.787-25.779v-43.055h16.834v43.055c0 11.295 7.262 20.892 17.37 24.375z" fill="#ffcbbe"/><path d="m155.198 302.051c-18.589 0-33.658-15.069-33.658-33.658 0-2.558.285-5.05.826-7.445 4.366-19.337 32.831-16.166 32.831 3.658h215.408c0-19.824 28.465-22.996 32.831-3.658.541 2.395.826 4.887.826 7.445 0 18.589-15.069 33.658-33.658 33.658" fill="#ffcbbe"/><path d="m155.205 284.776c-2.402 0-4.766-1.127-6.259-3.232-.133-.18-4.455-5.904-8.367-4.328-3.925 1.583-8.39-.315-9.972-4.239-1.583-3.924.314-8.389 4.239-9.972 6.474-2.613 13.492-1.588 19.75 2.887 4.098 2.928 6.611 6.445 6.884 6.836 2.421 3.47 1.572 8.247-1.899 10.669-1.333.932-2.863 1.379-4.376 1.379z" fill="#eaac9d"/><path d="m370.598 284.809c-1.518 0-3.053-.451-4.396-1.388-3.47-2.422-4.302-7.223-1.881-10.693.273-.391 2.787-3.908 6.884-6.836 6.26-4.475 13.276-5.5 19.75-2.887 3.925 1.583 5.823 6.048 4.239 9.972-1.583 3.924-6.049 5.823-9.972 4.239-3.949-1.594-8.327 4.272-8.37 4.332-1.484 2.128-3.847 3.261-6.254 3.261z" fill="#eaac9d"/><path d="m237.117 337.902h51.565v39.665h-51.565z" fill="#ffcbbe"/><path d="m370.605 225.07v60.345c0 43.358-35.145 78.503-78.503 78.503h-58.405c-43.358 0-78.503-35.145-78.503-78.503v-60.345c27.816 0 50.374-22.545 50.374-50.361 0 0 .404.378 1.198 1.067 8.435 7.276 61.607 49.294 163.839 49.294z" fill="#ffddce"/><path d="m285.269 363.917h-51.571c-43.358 0-78.503-35.145-78.503-78.503v-60.344c27.816 0 50.374-22.545 50.374-50.361 0 0 .404.378 1.198 1.067v109.638c-.001 43.358 35.144 78.503 78.502 78.503z" fill="#ffcbbe"/><g fill="#eaafa5"><ellipse cx="333.952" cy="291.791" rx="17.63" ry="10.72"/><ellipse cx="191.851" cy="291.791" rx="17.63" ry="10.72"/></g><g fill="#2b4d66"><path d="m310.103 279.258c-9.142 0-18.284-3.48-25.243-10.439-2.993-2.992-2.993-7.844-.001-10.836 2.993-2.992 7.845-2.992 10.836 0 7.947 7.945 20.872 7.943 28.816 0 2.992-2.992 7.844-2.992 10.836 0s2.992 7.844-.001 10.836c-6.958 6.959-16.1 10.439-25.243 10.439z"/><path d="m215.696 279.275c-9.536 0-18.501-3.713-25.244-10.456-2.992-2.992-2.992-7.844.001-10.836 2.991-2.992 7.843-2.992 10.836 0 3.848 3.848 8.964 5.967 14.407 5.967 5.442 0 10.559-2.119 14.408-5.968 2.991-2.992 7.843-2.992 10.836 0 2.992 2.992 2.992 7.844-.001 10.836-6.743 6.744-15.708 10.457-25.243 10.457z"/></g><path d="m273.95 331.872h-22.1c-4.232 0-7.662-3.431-7.662-7.662s3.43-7.662 7.662-7.662h22.1c4.232 0 7.662 3.431 7.662 7.662s-3.43 7.662-7.662 7.662z" fill="#d57080"/></g><g><g fill="#ecf4ff"><path d="m50.009 452.663c30.713 7.778 62.737 8.881 93.913 3.235l48.51-8.786 22.599 8.578 22.601-12.157c14.251 4.826 24.843 18.295 24.843 34.617v25.499h-212.466z"/><path d="m474.94 452.663c-30.713 7.778-62.737 8.881-93.913 3.235l-75.528-13.679c-22.408-4.058-43.024 13.159-43.024 35.932v25.499h212.465z"/></g><path d="m237.63 443.54v35.747l-22.016-12.025-23.181 12.025v-32.171l27.022-4.894c6.344-1.144 12.545-.593 18.175 1.318z" fill="#d57080"/></g><path d="m128.525 161.745c-20.83.643-41.659.643-62.489 0-34.4-1.062-62.197-28.751-62.997-63.159-.189-8.145-.189-16.291 0-24.436.8-34.407 28.597-62.097 62.997-63.159 20.83-.643 41.659-.643 62.489 0 34.4 1.062 62.197 28.751 62.997 63.159.189 8.145.189 16.291 0 24.436-.801 34.407-28.597 62.097-62.997 63.159z" fill="#e0f1f4"/><circle cx="105.369" cy="204.957" fill="#e0f1f4" r="20.769"/><g fill="#d57080"><path d="m156.727 49.03c0-4.232-3.43-7.662-7.662-7.662h-46.256c-3.433 0-6.448 2.284-7.377 5.589l-15.06 53.594-12.838-23.851c-1.337-2.483-3.928-4.031-6.747-4.031h-16.911c-4.232 0-7.662 3.431-7.662 7.662 0 4.232 3.43 7.662 7.662 7.662h12.334l19.66 36.525c1.347 2.501 3.95 4.031 6.745 4.031.279 0 .561-.015.843-.046 3.105-.343 5.691-2.536 6.536-5.543l18.621-66.268h40.451c4.231 0 7.661-3.43 7.661-7.662z"/><path d="m161.085 88.795c0-13.438-10.932-24.37-24.37-24.37s-24.37 10.932-24.37 24.37 10.932 24.37 24.37 24.37c.099 0 .197-.006.296-.008-4.383 6.406-8.763 9.835-8.926 9.96-3.371 2.531-4.066 7.314-1.546 10.7 1.504 2.022 3.814 3.09 6.154 3.09 1.589 0 3.194-.493 4.567-1.515.826-.614 20.143-15.284 23.524-42.78.196-1.243.301-2.518.301-3.817zm-33.415 0c0-4.988 4.058-9.045 9.045-9.045s9.045 4.058 9.045 9.045c0 4.988-4.058 9.045-9.045 9.045s-9.045-4.057-9.045-9.045z"/></g><g fill="#f6e781"><path d="m455.553 133.47-.666-2.161c-2.349-7.621 1.605-15.759 9.047-18.623l22.892-8.811c8.2-3.156 17.357 1.293 19.945 9.689l1.655 5.369c2.588 8.396-2.477 17.228-11.031 19.235l-23.881 5.603c-7.764 1.821-15.613-2.68-17.961-10.301z"/><path d="m427.3 79.932-1.657-1.538c-5.844-5.426-6.49-14.45-1.477-20.652l15.419-19.077c5.523-6.833 15.678-7.559 22.117-1.581l4.118 3.823c6.439 5.978 6.468 16.159.064 22.173l-17.88 16.793c-5.813 5.458-14.86 5.484-20.704.059z"/><path d="m372.359 54.695-2.204-.504c-7.774-1.777-12.845-9.269-11.605-17.147l3.815-24.231c1.367-8.679 9.798-14.385 18.363-12.428l5.477 1.252c8.565 1.957 13.681 10.759 11.142 19.171l-7.087 23.482c-2.305 7.635-10.127 12.181-17.901 10.405z"/></g><path d="m45.917 512c-4.226 0-7.655-3.423-7.662-7.65-.007-4.232 3.418-7.668 7.65-7.675h433.111.012c4.226 0 7.655 3.423 7.662 7.65.007 4.232-3.418 7.668-7.65 7.675h-433.111c-.004 0-.008 0-.012 0z" fill="#d57080"/></g></svg>