<svg viewBox="0 0 512 512" xmlns="http://www.w3.org/2000/svg"><g><path d="m311.649 102.171.031 95.178.008 32.806-3.241 13.583c.01 7.009 10.563 19.203 14.119 25.23a78.45 78.45 0 0 1 10.865 40.11v16.788l-.01 59.931 106.632-4.745 1.261-90.799a27.766 27.766 0 0 1 3.256-10.286 27.64 27.64 0 0 1 6.978-8.291c11.961-9.521 21.254-20.965 26.402-46.612l4.662-21.285c3.256-13.739 7.836-20.572 14.504-27.395l9.841-9.717c1.881-1.861 2.398-4.59 1.54-6.937a6.525 6.525 0 0 0-1.406-2.285c-6.533-6.905-11.123-7.764-19.714-4.879-.357.12-2.77-.791-3.108-.666-2.836 1.047-5.097 2.312-8.108 4.584-8.632 6.523-18.577 18.37-26.009 33.339a127.56 127.56 0 0 0-2.657 5.748 15.639 15.639 0 0 1-3.101 4.662l-2.714-8.444 1.935-121.775c-.01-4.672-1.56-8.026-4.609-11.096a16.56 16.56 0 0 0-2.853-2.305c-2.605-1.685-5.189-2.304-8.528-2.304-3.259 0-6.316-.585-8.893 1.028-4.657 2.915-7.861 8.009-8.007 13.899-.01.145-.089-.07-.089.074l-1.619-14.205c0-9.356-5.662-14.909-14.966-14.909-3.319 0-6.593-1.219-9.2.452-4.692 3.007-7.813 8.276-7.806 14.29l.049 14.741c0-4.683-2.652-7.18-5.691-10.25-3.05-3.07-6.387-5.406-11.039-5.406-3.302-.004-6.541-.273-9.14 1.38a16.961 16.961 0 0 0-7.848 14.338l-.041 32.439c0-.784-1.242.442-1.35-.301-1.104-7.6-6.477-14.88-14.454-14.88-3.826 0-7.372.621-10.109 2.897-3.522 2.927-5.773 7.321-5.773 12.275z" fill="#d98556"></path><g fill="#cb6d49"><path d="M511.598 159.73a6.525 6.525 0 0 0-1.406-2.285c-6.533-6.905-16.292-8.797-24.882-5.913-.358.12-.702.243-1.041.368a22.832 22.832 0 0 1 8.191 5.545 6.525 6.525 0 0 1 1.406 2.285c.858 2.347.341 5.076-1.54 6.937l-9.841 9.717c-6.668 6.823-11.247 13.656-14.504 27.395l-4.662 21.285c-5.148 25.648-14.442 37.091-26.402 46.612a27.628 27.628 0 0 0-6.978 8.291 27.736 27.736 0 0 0-3.256 10.286l.031 85.835 17.474-.748.227-24.199v-60.888a27.754 27.754 0 0 1 3.256-10.286 27.64 27.64 0 0 1 6.978-8.291c11.961-9.521 21.254-20.964 26.402-46.612l4.662-21.285c3.256-13.739 7.836-20.572 14.504-27.395l9.841-9.717c1.881-1.861 2.398-4.59 1.54-6.937zM418.731 55.336c1.034.661 2.12 1.514 2.978 2.383A17 17 0 0 1 426.65 69.7l.01 115.305v15.227c1.282-1.334 13.447-7.506 17.733-12.997l-.01-117.535a17.005 17.005 0 0 0-4.941-11.981 16.56 16.56 0 0 0-2.853-2.305 16.59 16.59 0 0 0-9.045-2.667c-3.26 0-6.236.976-8.813 2.589.06.038-.059-.038 0 0z" fill="#cb6d49"></path></g><path d="M395.921 239.805c.01 4.28 3.473 7.753 7.753 7.753h.01a7.743 7.743 0 0 0 7.743-7.764c0-19.228 13.863-35.861 32.966-39.562v-15.227a7.644 7.644 0 0 0-2.946 0c-26.381 5.108-45.526 28.161-45.526 54.8z" fill="#cb6d49"></path><g fill="#cb6d49"><path d="M410.724 54.484v99.759a8.823 8.823 0 0 1-8.823 8.823 8.823 8.823 0 0 1-8.823-8.823v-96.1c0-6.42-2.739-12.55-7.515-16.85l-.712-.645a16.609 16.609 0 0 1 9.054-2.653c9.148 0 16.592 7.34 16.819 16.489zM377.094 69.235v83.543a8.823 8.823 0 0 1-8.823 8.823 8.823 8.823 0 0 1-8.823-8.823V72.895c0-6.42-2.74-12.55-7.515-16.85l-.703-.631a16.59 16.59 0 0 1 9.045-2.667c9.148 0 16.591 7.34 16.819 16.488zM343.333 102.181l-.036 63.159a8.826 8.826 0 0 1-17.652-.005v-57.924c0-6.42-2.739-12.55-7.515-16.85l-.711-.664c1.986-1.737 6.144-3.664 9.483-3.664 10.017-.001 16.204 6.799 16.431 15.948z" fill="#cb6d49"></path></g><path d="m196.561 69.374-2.476 94.595-.01 31.604a78.554 78.554 0 0 1-2.755 20.552 77.98 77.98 0 0 1-8.06 19.072 78.01 78.01 0 0 0-10.805 39.891v16.697l.451 25.141-105.463.006-.226-.011v-60.556a27.584 27.584 0 0 0-3.239-10.23 27.46 27.46 0 0 0-6.94-8.245c-11.895-9.469-21.138-20.85-26.258-46.358l-4.637-21.169c-3.239-13.664-7.793-20.459-14.424-27.245l-9.788-9.664c-1.871-1.851-2.385-4.565-1.532-6.899a6.49 6.49 0 0 1 1.398-2.272c6.498-6.868 16.203-8.749 24.747-5.881 3.331 1.121 5.747 2.395 9.099 4.925 8.585 6.487 18.475 18.27 25.867 33.157a127.16 127.16 0 0 1 2.642 5.716 15.554 15.554 0 0 0 3.084 4.637l10.281-7.763-11.217-7.381.01-113.049c0-5.773 2.817-10.489 5.85-13.542a16.434 16.434 0 0 1 2.838-2.293c2.591-1.676 5.62-.464 8.941-.464 9.099 0 14.714 4.484 14.941 13.582.01.144 1.841.876 1.841 1.02l.021-14.601c0-5.815 3.088-11.062 7.543-14.094 2.673-1.819 6.141-.622 9.611-.622 9.243 0 14.725 6.768 14.714 16.072l1.558 12.351c0-4.657 1.931-7.859 4.953-10.912.758-.763 1.685-1.591 2.576-2.197 2.673-1.817 6.797-.828 10.267-.828 9.243-.01 13.922 5.852 13.922 15.167l1.631 32.088c0-5.475 3.072-10.416 7.264-13.27 2.515-1.713 5.609-1.586 8.875-1.586 8.7.003 12.905 6.1 12.905 14.859z" fill="#ffd9c4"></path><path d="M183.506 53.447c-3.19 0-6.243 1.017-8.723 2.657 4.286 2.835 7.212 7.657 7.212 13.206l-.031 94.658-.01 31.604a78.554 78.554 0 0 1-2.755 20.552 77.98 77.98 0 0 1-8.06 19.072 78.01 78.01 0 0 0-10.805 39.891v16.697l.01 29.127 17.262.739-.01-29.866v-16.697a78.029 78.029 0 0 1 10.805-39.891 77.886 77.886 0 0 0 8.06-19.072 78.512 78.512 0 0 0 2.755-20.552l.01-31.604.031-94.658c0-8.759-7.053-15.863-15.751-15.863zM115.445 206.193c-.01 4.256-3.454 7.711-7.711 7.711h-.01a7.702 7.702 0 0 1-7.701-7.721c0-19.123-13.787-35.665-32.786-39.346v-15.144a7.6 7.6 0 0 1 2.93 0c26.238 5.079 45.278 28.006 45.278 54.5z" fill="#ffc2ab"></path><path d="M61.45 506.515a4.111 4.111 0 0 1-4.112-4.109l-.047-60.339A343.197 343.197 0 0 1 67.48 358.56l-.032-36.909 108.098-.004.006 36.913.042.171c6.756 27.2 12.232 55.131 10.184 83.169l-2.047 58.446c2.057 2.271.215 4.113-2.056 4.113l-17.241 2.056h-1.028z" fill="#5e5d5d"></path><path d="M187.835 441.899a345.44 345.44 0 0 0-10.184-83.169l-.042-.171-.006-36.913-110.159-4.721.001.871 89.833 3.85.006 36.913.042.171a345.44 345.44 0 0 1 10.184 83.169l.009 60.503a4.113 4.113 0 0 1-4.112 4.113h20.325a4.112 4.112 0 0 0 4.112-4.113z" fill="#4f4d4d"></path><path d="M442.447 447.347a8.066 8.066 0 0 0-.01 7.186l2.025 4.061 3.352 6.734a8.049 8.049 0 0 1 .843 3.598l-.082 31.429a4.112 4.112 0 0 1-4.112 4.102l-10.261 2.056H340.84l-8.472-12.183v-93.024h116.351l-.01 31.656a7.989 7.989 0 0 1-.853 3.598l-3.31 6.611z" fill="#46def2"></path><path d="m448.656 443.173 3.311-6.611a7.989 7.989 0 0 0 .853-3.598l.01-31.656h-15.402l-.01 31.656a7.989 7.989 0 0 1-.853 3.598l-3.31 6.611-2.097 4.174a8.066 8.066 0 0 0-.01 7.186l2.025 4.061 3.352 6.734a8.049 8.049 0 0 1 .843 3.598l-.082 33.485a4.112 4.112 0 0 1-4.112 4.102h15.402a4.112 4.112 0 0 0 4.112-4.102l.082-33.485a8.049 8.049 0 0 0-.843-3.598l-3.352-6.734-2.025-4.061a8.066 8.066 0 0 1 .01-7.186z" fill="#31cbf4"></path><path d="M364.969 406.062h73.488l13.869-2.056a5.074 5.074 0 0 0 5.074-5.074v-24.448a5.074 5.074 0 0 0-5.074-5.074l-13.869-2.056h-73.488z" fill="#31cbf4"></path><path d="M454.382 367.353h-16.954a5.074 5.074 0 0 1 5.074 5.074v28.56a5.074 5.074 0 0 1-5.074 5.074h16.954a5.074 5.074 0 0 0 5.074-5.074v-28.56a5.074 5.074 0 0 0-5.074-5.074z" fill="#2ab9f2"></path><path d="m178.263 356.503-19.951 2.056H64.568a6.17 6.17 0 0 1-6.169-6.169v-54.44a6.17 6.17 0 0 1 6.169-6.169h96.793l16.902 2.056a6.17 6.17 0 0 1 6.169 6.169v50.327a6.17 6.17 0 0 1-6.169 6.17z" fill="#707070"></path><path d="m180.319 291.782-19.986.001c3.407 0 5.829 2.76 5.829 6.167v54.44c0 3.407-5.472 6.169-8.878 6.169h23.035a6.17 6.17 0 0 0 6.169-6.169v-54.44a6.169 6.169 0 0 0-6.169-6.168z" fill="#5e5d5d"></path><path d="m436.268 454.533 2.025 4.061h-18.547a7.714 7.714 0 0 1-7.711-7.711 7.713 7.713 0 0 1 7.711-7.711h18.629l-2.097 4.174a8.068 8.068 0 0 0-.01 7.187z" fill="#31cbf4"></path><path d="m431.147 454.533 2.025 4.061h15.402l-2.025-4.061a8.066 8.066 0 0 1 .01-7.186l2.097-4.174h-15.402l-2.097 4.174a8.066 8.066 0 0 0-.01 7.186z" fill="#2ab9f2"></path><g fill="#ffc2ab"><path d="M100.723 36.555v83.087a8.775 8.775 0 0 1-17.55 0V40.194a22.574 22.574 0 0 0-7.474-16.758L75 22.809a16.499 16.499 0 0 1 8.996-2.653c9.098 0 16.501 7.3 16.727 16.399zM134.169 21.884v99.214a8.775 8.775 0 0 1-17.55 0V25.523a22.574 22.574 0 0 0-7.474-16.758l-.859-.513c2.591-1.676 5.835-2.767 9.156-2.767 9.099 0 16.501 7.3 16.727 16.399zM167.519 36.555v95.578a8.775 8.775 0 0 1-17.55 0V40.194a22.574 22.574 0 0 0-7.474-16.758l-.796-.49c2.591-1.676 5.772-2.79 9.093-2.79 9.098 0 16.501 7.3 16.727 16.399z" fill="#ffc2ab"></path></g><path d="m213.114 277.582.031 94.658.01 31.604c.01 6.97.936 13.88 2.755 20.552a77.98 77.98 0 0 0 8.06 19.072 78.01 78.01 0 0 1 10.805 39.891v16.697l.041 2.418a4.112 4.112 0 0 0 4.112 4.042h88.604l13.955-10.281.582-31.597a27.584 27.584 0 0 1 3.239-10.23 27.46 27.46 0 0 1 6.94-8.245c11.895-9.469 21.138-20.85 26.258-46.358l4.637-21.169c3.239-13.664 7.793-20.459 14.424-27.245l9.788-9.664c1.871-1.851 2.385-4.565 1.532-6.899a6.49 6.49 0 0 0-1.398-2.272c-6.498-6.868-11.062-7.721-19.606-4.853-.355.119-2.755-.786-3.091-.662-2.821 1.042-5.069 2.299-8.064 4.559-8.585 6.487-18.475 18.27-25.867 33.157a127.16 127.16 0 0 0-2.642 5.716 15.535 15.535 0 0 1-3.084 4.637l-2.7-8.398 1.924-121.11c-.01-4.647-1.551-7.982-4.584-11.036a16.434 16.434 0 0 0-2.838-2.293c-2.591-1.676-5.16-2.291-8.481-2.291-3.241 0-6.281-.582-8.844 1.022-4.632 2.899-7.818 7.965-7.963 13.823-.01.144-.089-.07-.089.074l-1.61-14.127c0-9.304-5.631-14.827-14.884-14.827-3.301 0-6.557-1.212-9.15.449-4.667 2.991-7.77 8.231-7.764 14.212l.049 14.661c0-4.657-2.637-7.14-5.66-10.194-3.033-3.053-6.353-5.376-10.979-5.376-3.284-.004-6.505-.272-9.09 1.373a16.867 16.867 0 0 0-7.805 14.259l-.041 32.262c0-.78-1.236.439-1.343-.299-1.098-7.559-6.442-14.799-14.375-14.799-3.805 0-7.331.618-10.054 2.881-3.5 2.909-5.74 7.279-5.74 12.206z" fill="#ffd9c4"></path><g fill="#ffc2ab"><path d="M411.972 334.827a6.49 6.49 0 0 0-1.398-2.272c-6.498-6.868-16.203-8.749-24.747-5.881-.356.12-.698.241-1.035.366a22.7 22.7 0 0 1 8.146 5.515 6.49 6.49 0 0 1 1.398 2.272c.853 2.334.339 5.048-1.532 6.899l-9.788 9.664c-6.631 6.786-11.186 13.581-14.424 27.245l-4.637 21.169c-5.12 25.508-14.363 36.889-26.258 46.357-2.868 2.293-5.213 5.099-6.94 8.245s-2.838 6.621-3.239 10.23l.015 41.878h13.304c2.263 0 4.1-1.828 4.112-4.09l.204-37.788a27.584 27.584 0 0 1 3.239-10.23 27.46 27.46 0 0 1 6.94-8.245c11.895-9.469 21.138-20.85 26.258-46.357l4.637-21.169c3.239-13.664 7.793-20.46 14.424-27.245l9.788-9.664c1.872-1.851 2.386-4.565 1.533-6.899zM319.612 231.003c1.028.658 2.108 1.506 2.962 2.37a16.91 16.91 0 0 1 4.914 11.916l.01 114.676v15.144c1.275-1.326 13.373-7.465 17.636-12.926l-.01-116.894a16.911 16.911 0 0 0-4.914-11.916 16.434 16.434 0 0 0-2.838-2.293 16.499 16.499 0 0 0-8.996-2.653c-3.241.001-6.201.972-8.764 2.576.06.038-.059-.038 0 0z" fill="#ffc2ab"></path></g><path d="M296.926 414.465c.01 4.256 3.454 7.711 7.711 7.711h.01a7.702 7.702 0 0 0 7.701-7.721c0-19.123 13.787-35.665 32.786-39.346v-15.144a7.6 7.6 0 0 0-2.93 0c-26.237 5.078-45.278 28.005-45.278 54.5z" fill="#ffc2ab"></path><g fill="#ffc2ab"><path d="M311.649 230.155v99.214a8.775 8.775 0 0 1-17.55 0v-95.574a22.574 22.574 0 0 0-7.474-16.758l-.708-.641a16.518 16.518 0 0 1 9.005-2.639c9.098 0 16.5 7.299 16.727 16.398zM278.202 244.826v83.087a8.775 8.775 0 0 1-17.55 0v-79.447a22.574 22.574 0 0 0-7.474-16.758l-.699-.627a16.499 16.499 0 0 1 8.996-2.653c9.098 0 16.501 7.3 16.727 16.398zM244.626 277.592l-.036 62.814a8.777 8.777 0 0 1-17.554-.005v-57.608a22.574 22.574 0 0 0-7.474-16.758l-.707-.661c1.975-1.728 6.111-3.644 9.432-3.644 9.959 0 16.113 6.763 16.339 15.862z" fill="#ffc2ab"></path></g></g></svg>