<svg viewBox="0 0 128 128" xmlns="http://www.w3.org/2000/svg"><g><path d="M88.13 64.61a43.625 43.625 0 0 1-7.151-1.642H47.021a44.581 44.581 0 0 1-7.15 1.642A13.33 13.33 0 0 0 28.563 77.8v13.513H38.5a13.227 13.227 0 0 1 22.453-7.581L64 86.783l2.725-2.737A13.524 13.524 0 0 1 84.88 82.94a13.147 13.147 0 0 1 4.62 8.373h9.933V77.8A13.33 13.33 0 0 0 88.13 64.61z" fill="#ecebfd"></path><path d="M70 56.388H57.991a24.925 24.925 0 0 1-10.97 6.58C49.012 66.391 55.86 68.93 64 68.93s14.988-2.539 16.979-5.962A24.912 24.912 0 0 1 70 56.388z" fill="#ffbe9c"></path><path d="M70.61 22.108c-5.241 7.736-25.579 5.24-25.579 5.24v11.06a18.947 18.947 0 0 0 12.96 17.98 18.912 18.912 0 0 0 12.006 0 18.947 18.947 0 0 0 12.962-17.981V27.732c-9.73 1.754-12.349-5.624-12.349-5.624z" fill="#ffd3bc"></path><path d="M64 6.964a18.964 18.964 0 0 0-18.971 18.959v1.424s20.338 2.5 25.579-5.24c0 0 2.619 7.378 12.349 5.624v-1.808A18.966 18.966 0 0 0 64 6.964z" fill="#696eaf"></path><path d="M84.88 82.94a13.524 13.524 0 0 0-18.155 1.106L64 86.783l-3.051-3.051A13.212 13.212 0 0 0 38.5 91.313l6.359 13.613 15.478 14.65a5.333 5.333 0 0 0 7.333 0l15.468-14.649L89.5 91.313a13.147 13.147 0 0 0-4.62-8.373z" fill="#ff7a8c"></path><g fill="#ffd3bc"><path d="M40.767 91.313h-12.2v11.04a3.809 3.809 0 0 0 3.808 3.808h8.4a7.321 7.321 0 0 0 4.088-1.235 6.961 6.961 0 0 0 1.164-.943 7.427 7.427 0 0 0 2.166-5.252 7.234 7.234 0 0 0-.757-3.249 7.393 7.393 0 0 0-6.669-4.169zM80.572 95.482a7.234 7.234 0 0 0-.757 3.249 7.417 7.417 0 0 0 7.418 7.43h8.4a3.809 3.809 0 0 0 3.808-3.808v-11.04h-12.2a7.393 7.393 0 0 0-6.669 4.169z" fill="#ffd3bc"></path></g></g></svg>