<svg viewBox="0 0 497 497" xmlns="http://www.w3.org/2000/svg"><g><path d="M248 470.5c-59.432 0-115.307-23.144-157.331-65.169C48.644 363.307 25.5 307.432 25.5 248S48.644 132.693 90.669 90.669C132.693 48.644 188.568 25.5 248 25.5s115.307 23.144 157.331 65.169C447.356 132.693 470.5 188.568 470.5 248s-23.144 115.307-65.169 157.331C363.307 447.356 307.432 470.5 248 470.5zm0-410C144.612 60.5 60.5 144.612 60.5 248S144.612 435.5 248 435.5 435.5 351.388 435.5 248 351.388 60.5 248 60.5z" fill="#dc4955"></path><path d="M43.5 248c0-59.43 23.14-115.31 65.17-157.33 39.89-39.9 92.27-62.78 148.33-64.99-2.99-.12-5.99-.18-9-.18-59.43 0-115.31 23.14-157.33 65.17C48.64 132.69 25.5 188.57 25.5 248s23.14 115.31 65.17 157.33c42.02 42.03 97.9 65.17 157.33 65.17 3.01 0 6.01-.06 9-.18-56.06-2.21-108.44-25.09-148.33-64.99C66.64 363.31 43.5 307.43 43.5 248z" fill="#d82f3c"></path><path d="M248.5 353.5c-57.6 0-104.462-47.102-104.462-105s46.861-105 104.462-105 104.462 47.102 104.462 105-46.862 105-104.462 105zm0-174c-37.771 0-68.5 30.954-68.5 69s30.729 69 68.5 69 68.5-30.954 68.5-69-30.729-69-68.5-69z" fill="#dc4955"></path><path d="M161.04 248.5c0-55.02 42.32-100.3 95.96-104.65-2.81-.23-5.64-.35-8.5-.35-57.6 0-104.46 47.1-104.46 105s46.86 105 104.46 105c2.86 0 5.69-.12 8.5-.35-53.64-4.35-95.96-49.63-95.96-104.65z" fill="#d82f3c"></path><g fill="#30579d"><path d="M248.5 286.5c9.665 0 17.5 7.835 17.5 17.5v62c0 9.665-7.835 17.5-17.5 17.5S231 375.665 231 366v-62c0-9.665 7.835-17.5 17.5-17.5zM248.5 112.5c9.665 0 17.5 7.835 17.5 17.5v62c0 9.665-7.835 17.5-17.5 17.5S231 201.665 231 192v-62c0-9.665 7.835-17.5 17.5-17.5zM248.5 0c9.665 0 17.5 7.835 17.5 17.5v51c0 9.665-7.835 17.5-17.5 17.5S231 78.165 231 68.5v-51C231 7.835 238.835 0 248.5 0zM248.5 411c9.665 0 17.5 7.835 17.5 17.5v51c0 9.665-7.835 17.5-17.5 17.5s-17.5-7.835-17.5-17.5v-51c0-9.665 7.835-17.5 17.5-17.5z" fill="#30579d"></path></g><path d="M244 372.5c0 4.16 1.46 7.98 3.89 10.99-4.59-.16-8.72-2.08-11.76-5.12A17.436 17.436 0 0 1 231 366v-62c0-9.46 7.51-17.17 16.89-17.49A17.436 17.436 0 0 0 244 297.5zM244 198.5c0 4.16 1.46 7.98 3.89 10.99-4.59-.16-8.72-2.08-11.76-5.12A17.436 17.436 0 0 1 231 192v-62c0-9.46 7.51-17.17 16.89-17.49A17.436 17.436 0 0 0 244 123.5zM244 80.5c0 1.77.26 3.48.76 5.09-3.33-.72-6.3-2.39-8.63-4.72A17.436 17.436 0 0 1 231 68.5v-51c0-8.38 5.89-15.38 13.76-17.09-.5 1.61-.76 3.32-.76 5.09zM244 491.5c0 1.77.26 3.48.76 5.09-3.33-.72-6.3-2.39-8.63-4.72A17.436 17.436 0 0 1 231 479.5v-51c0-8.38 5.89-15.38 13.76-17.09-.5 1.61-.76 3.32-.76 5.09z" fill="#30569f"></path><path d="M497 248.5c0 9.665-7.835 17.5-17.5 17.5h-51c-9.665 0-17.5-7.835-17.5-17.5s7.835-17.5 17.5-17.5h51c9.665 0 17.5 7.835 17.5 17.5zM86 248.5c0 9.665-7.835 17.5-17.5 17.5h-51C7.835 266 0 258.165 0 248.5S7.835 231 17.5 231h51c9.665 0 17.5 7.835 17.5 17.5zM212 249.5c0 9.665-7.835 17.5-17.5 17.5h-62c-9.665 0-17.5-7.835-17.5-17.5s7.835-17.5 17.5-17.5h62c9.665 0 17.5 7.835 17.5 17.5zM382 249.5c0 9.665-7.835 17.5-17.5 17.5h-62c-9.665 0-17.5-7.835-17.5-17.5s7.835-17.5 17.5-17.5h62c9.665 0 17.5 7.835 17.5 17.5z" fill="#30579d"></path><path d="M496.59 252.24c-1.71 7.87-8.71 13.76-17.09 13.76h-51c-8.38 0-15.38-5.89-17.09-13.76 1.61.5 3.32.76 5.09.76h75c1.77 0 3.48-.26 5.09-.76zM85.59 252.24C83.88 260.11 76.88 266 68.5 266h-51c-8.38 0-15.38-5.89-17.09-13.76 1.61.5 3.32.76 5.09.76h75c1.77 0 3.48-.26 5.09-.76zM211.97 250.51c-.52 9.19-8.15 16.49-17.47 16.49h-62c-9.32 0-16.95-7.3-17.47-16.49 2.82 2.19 6.37 3.49 10.22 3.49h76.5c3.85 0 7.4-1.3 10.22-3.49zM381.94 250.86c-.69 9.03-8.24 16.14-17.44 16.14h-62c-9.2 0-16.75-7.11-17.44-16.14 2.67 1.98 5.97 3.14 9.54 3.14h77.8c3.57 0 6.87-1.16 9.54-3.14z" fill="#30569f"></path></g></svg>