<svg viewBox="0 0 512 512" xmlns="http://www.w3.org/2000/svg"><g><path d="M451 75v30c0 8.401-6.599 15-15 15s-15-6.599-15-15V75c0-8.401 6.599-15 15-15s15 6.599 15 15z" fill="#4d6699"></path><path d="M436 120V60c8.401 0 15 6.599 15 15v30c0 8.401-6.599 15-15 15z" fill="#404b80"></path><path d="M451 467v30c0 8.401-6.599 15-15 15s-15-6.599-15-15v-30c0-8.401 6.599-15 15-15s15 6.599 15 15z" fill="#4d6699"></path><path d="M451 467v30c0 8.401-6.599 15-15 15v-60c8.401 0 15 6.599 15 15z" fill="#404b80"></path><path d="M211 15v30c0 8.401-6.599 15-15 15s-15-6.599-15-15V15c0-8.401 6.599-15 15-15s15 6.599 15 15z" fill="#4d6699"></path><path d="M211 15v30c0 8.401-6.599 15-15 15V0c8.401 0 15 6.599 15 15z" fill="#404b80"></path><path d="M346 60H46c-8.291 0-15 6.709-15 15v422c0 8.291 6.709 15 15 15h300c8.291 0 15-6.709 15-15V75c0-8.291-6.709-15-15-15z" fill="#ffbe40"></path><path d="M361 497V75c0-8.291-6.709-15-15-15H196v452h150c8.291 0 15-6.709 15-15z" fill="#ff9f40"></path><path d="m241 90-23.289-15h-43.343L151 90H61v392h270V90z" fill="#f9f4f3"></path><path d="M331 90h-90l-23.289-15H196v407h135z" fill="#f0e6e1"></path><path d="m157.211 406 10.605-10.605c5.859-5.859 5.859-15.352 0-21.211s-15.352-5.859-21.211 0L136 384.789l-10.605-10.605c-5.859-5.859-15.352-5.859-21.211 0s-5.859 15.352 0 21.211L114.789 406l-10.605 10.605c-5.859 5.859-5.859 15.352 0 21.211s15.351 5.86 21.211 0L136 427.211l10.605 10.605c5.859 5.859 15.351 5.86 21.211 0 5.859-5.859 5.859-15.352 0-21.211z" fill="#ff6673"></path><g fill="#b3ccff"><path d="M286 241h-30c-8.291 0-15-6.709-15-15s6.709-15 15-15h30c8.291 0 15 6.709 15 15s-6.709 15-15 15zM286 331h-60c-8.291 0-15-6.709-15-15s6.709-15 15-15h60c8.291 0 15 6.709 15 15s-6.709 15-15 15zM286 421h-60c-8.291 0-15-6.709-15-15s6.709-15 15-15h60c8.291 0 15 6.709 15 15s-6.709 15-15 15z" fill="#b3ccff"></path></g><path d="M125.395 236.605c2.93 2.93 6.768 4.395 10.605 4.395s7.676-1.465 10.605-4.395L196 187.211l10.605-10.605c5.859-5.859 5.859-15.352 0-21.211-2.93-2.93-6.768-4.395-10.605-4.395s-7.676 1.465-10.605 4.395L136 204.789l-19.395-19.395c-5.859-5.859-15.352-5.859-21.211 0s-5.859 15.352 0 21.211zM196 241a14.948 14.948 0 0 0-10.605 4.395L136 294.789l-19.395-19.395c-5.859-5.859-15.352-5.859-21.211 0s-5.859 15.352 0 21.211l30 30c2.93 2.93 6.768 4.395 10.605 4.395s7.676-1.465 10.605-4.395L196 277.211l10.605-10.605c5.859-5.859 5.859-15.352 0-21.211A14.948 14.948 0 0 0 196 241z" fill="#7ed96c"></path><path d="M206.605 155.395A14.952 14.952 0 0 0 196 151v36.211l10.605-10.605c5.86-5.86 5.86-15.352 0-21.211zM206.605 245.395A14.952 14.952 0 0 0 196 241v36.211l10.605-10.605c5.86-5.86 5.86-15.352 0-21.211z" fill="#48b348"></path><path d="M226 30h-60c-16.569 0-30 13.431-30 30v15c0 8.284 6.716 15 15 15h90c8.284 0 15-6.716 15-15V60c0-16.569-13.431-30-30-30z" fill="#4d6699"></path><path d="M256 75V60c0-16.569-13.431-30-30-30h-30v60h45c8.284 0 15-6.716 15-15z" fill="#404b80"></path><path d="M481 271v122.701c0 30.899-12.599 61.899-34.501 83.798C443.8 480.5 439.9 482 436 482s-7.8-1.5-10.499-4.501C403.599 455.6 391 424.6 391 393.701V271l30-15h30z" fill="#cde2ff"></path><path d="M481 271v122.701c0 30.899-12.599 61.899-34.501 83.798C443.8 480.5 439.9 482 436 482V256h15z" fill="#b3ccff"></path><path d="M481 136v105l-30 15h-30l-30-15V136c0-24.901 20.099-46 45-46s45 21.099 45 46z" fill="#cde2ff"></path><path d="M481 136v105l-30 15h-15V90c24.901 0 45 21.099 45 46z" fill="#b3ccff"></path><path d="M391 241h90v30h-90z" fill="#4d6699"></path><path d="M436 241h45v30h-45z" fill="#404b80"></path></g></svg>