<svg viewBox="0 0 512 512" xmlns="http://www.w3.org/2000/svg"><g><path d="M5.185 351.859h501.632c3.338 0 5.805-3.11 5.045-6.361l-33.909-145.057a20.604 20.604 0 0 0-20.063-15.914h-29.988a5.183 5.183 0 0 1-4.88-3.439l-15.62-43.735a20.604 20.604 0 0 0-19.403-13.674h-33.77a5.182 5.182 0 0 1-4.967-3.705l-18.423-61.969a20.603 20.603 0 0 0-19.749-14.732h-92.74a20.605 20.605 0 0 0-18.938 12.487l-25.899 60.432a5.18 5.18 0 0 1-4.762 3.14h-47.466a20.602 20.602 0 0 0-19.307 13.411L66.941 226.79a5.18 5.18 0 0 1-4.855 3.373H48.627a20.604 20.604 0 0 0-19.811 14.943L.203 345.254c-.946 3.31 1.539 6.605 4.982 6.605z" fill="#d78878"></path><path d="m41.925 345.254 28.614-100.147a20.604 20.604 0 0 1 19.811-14.943h13.457c2.164 0 4.1-1.345 4.855-3.372l35.037-94.047a20.604 20.604 0 0 1 19.307-13.41h-41.722a20.603 20.603 0 0 0-19.307 13.41L66.94 226.792a5.18 5.18 0 0 1-4.855 3.372H48.627a20.604 20.604 0 0 0-19.811 14.943L.203 345.254c-.946 3.31 1.54 6.605 4.982 6.605h41.722c-3.443 0-5.928-3.295-4.982-6.605z" fill="#ca6e59"></path><path d="M207.612 213.338h100.132v138.521H207.612z" fill="#54469c"></path><path d="M207.612 213.338h25.756v138.521h-25.756z" fill="#463b84"></path><path d="M175.63 213.338h32.982v138.521H175.63z" fill="#e9b665"></path><path d="M175.63 213.338h17.513v138.521H175.63z" fill="#d8aa5e"></path><path d="M306.745 213.338h32.982v138.521h-32.982z" fill="#e9b665"></path><path d="M306.745 213.338h17.247v138.521h-17.247z" fill="#d8aa5e"></path><path d="M345.947 214.338H169.41a5.18 5.18 0 0 1-5.181-5.181v-22.62a5.18 5.18 0 0 1 5.181-5.181h176.537a5.18 5.18 0 0 1 5.181 5.181v22.62a5.18 5.18 0 0 1-5.181 5.181z" fill="#fccd7f"></path><path d="M207.581 209.157v-22.619a5.182 5.182 0 0 1 5.181-5.182H169.41a5.181 5.181 0 0 0-5.181 5.182v22.619a5.18 5.18 0 0 0 5.181 5.181h43.353a5.182 5.182 0 0 1-5.182-5.181z" fill="#fbc56d"></path><path d="M106.194 284.222c1.06 0 1.993.678 2.32 1.687l4.455 13.712 3.383-10.411a2.434 2.434 0 0 1 2.321-1.687h21.056l-9.055-27.87a3.44 3.44 0 0 0-3.272-2.377h-29.37c-1.49 0-2.811.96-3.272 2.377l-7.983 24.569z" fill="#fed402"></path><path d="M148.043 287.522c1.06 0 1.993.678 2.32 1.687l3.099 9.538 4.172-12.839a2.435 2.435 0 0 1 2.321-1.687h19.073l-6.492-19.982a3.44 3.44 0 0 0-3.272-2.377h-29.37c-1.49 0-2.811.96-3.272 2.377l-7.565 23.283zM117.021 308.852l-7.555-23.252a3.44 3.44 0 0 0-3.272-2.377h-29.37c-1.49 0-2.811.96-3.272 2.377l-7.555 23.252z" fill="#fac600"></path><path d="m200.153 308.852-7.555-23.252a3.44 3.44 0 0 0-3.272-2.377h-29.37c-1.49 0-2.811.96-3.272 2.377l-7.555 23.252z" fill="#fed402"></path><path d="m157.798 308.852-6.483-19.952a3.44 3.44 0 0 0-3.272-2.377h-29.37c-1.49 0-2.811.96-3.272 2.377l-6.483 19.952z" fill="#fee45a"></path><path d="M216.065 307.852H54.671c-3.809 0-6.56 3.646-5.513 7.309l18.404 64.414a18.914 18.914 0 0 1 8.406-1.979c10.514 0 19.068 8.554 19.068 19.067 0 .369-.035.729-.055 1.093h80.777c-.021-.364-.055-.724-.055-1.093 0-10.514 8.554-19.067 19.068-19.067 3.019 0 5.866.724 8.406 1.979l18.404-64.414c1.044-3.663-1.706-7.309-5.516-7.309z" fill="#fe9901"></path><path d="M106.594 393.597 84.183 315.16c-1.046-3.663 1.704-7.309 5.513-7.309H54.671c-3.809 0-6.56 3.646-5.513 7.309l18.404 64.414a18.914 18.914 0 0 1 8.406-1.979c10.514 0 19.068 8.554 19.068 19.067 0 .369-.035.729-.055 1.093h17.128a5.733 5.733 0 0 1-5.515-4.158z" fill="#fb8801"></path><circle cx="75.967" cy="396.663" fill="#54469c" r="20.068"></circle><path d="M72.669 396.663c0-8.086 4.793-15.037 11.683-18.215a19.96 19.96 0 0 0-8.385-1.853c-11.083 0-20.068 8.985-20.068 20.068s8.985 20.068 20.068 20.068c2.997 0 5.831-.676 8.385-1.853-6.89-3.178-11.683-10.129-11.683-18.215z" fill="#463b84"></path><circle cx="194.769" cy="396.663" fill="#54469c" r="20.068"></circle><path d="M192.17 396.663c0-7.948 4.632-14.796 11.333-18.046a19.953 19.953 0 0 0-8.734-2.022c-11.083 0-20.068 8.985-20.068 20.068s8.985 20.068 20.068 20.068c3.135 0 6.091-.74 8.734-2.022-6.701-3.25-11.333-10.098-11.333-18.046z" fill="#463b84"></path><path d="M184.104 343.9H86.632c-4.142 0-7.5-3.357-7.5-7.5s3.358-7.5 7.5-7.5h97.473a7.5 7.5 0 1 1-.001 15zM163.838 370.972h-56.94c-4.142 0-7.5-3.357-7.5-7.5s3.358-7.5 7.5-7.5h56.94c4.142 0 7.5 3.357 7.5 7.5s-3.358 7.5-7.5 7.5z" fill="#fdb441"></path><path d="M345.211 410.583h-91.272c-4.142 0-7.5-3.357-7.5-7.5s3.358-7.5 7.5-7.5h91.272c4.142 0 7.5 3.357 7.5 7.5s-3.357 7.5-7.5 7.5z" fill="#fccd7f"></path><path d="M206.337 468.726H90.141c-4.142 0-7.5-3.357-7.5-7.5s3.358-7.5 7.5-7.5h116.196c4.142 0 7.5 3.357 7.5 7.5s-3.358 7.5-7.5 7.5z" fill="#e9b665"></path><path d="M58.205 468.726H17.614c-4.142 0-7.5-3.357-7.5-7.5s3.358-7.5 7.5-7.5h40.591c4.142 0 7.5 3.357 7.5 7.5s-3.358 7.5-7.5 7.5z" fill="#fccd7f"></path><path d="m476.411 454.727-15.032-29.546a5.75 5.75 0 0 0-1.841-2.112l-27.748-19.288a5.747 5.747 0 0 0-3.279-1.028h-35.025a5.747 5.747 0 0 0-5.022 2.954l-8.873 15.966a5.745 5.745 0 0 1-2.86 2.532l-32.632 13.249a5.744 5.744 0 0 0-3.169 3.179l-5.668 14.093h141.149z" fill="#d78878"></path><path d="m375.27 454.727 5.668-14.093a5.741 5.741 0 0 1 3.169-3.179l32.632-13.249a5.74 5.74 0 0 0 2.86-2.532l8.873-15.966a5.73 5.73 0 0 1 2.541-2.378 5.747 5.747 0 0 0-2.503-.576h-35.025a5.747 5.747 0 0 0-5.022 2.954l-8.873 15.966a5.745 5.745 0 0 1-2.86 2.532l-32.632 13.249a5.744 5.744 0 0 0-3.169 3.179l-5.668 14.093z" fill="#ca6e59"></path><path d="M498.676 468.726H313.688c-4.142 0-7.5-3.357-7.5-7.5s3.358-7.5 7.5-7.5h184.987c4.142 0 7.5 3.357 7.5 7.5s-3.357 7.5-7.499 7.5z" fill="#e9b665"></path><path d="M422.092 277.234h-43.664a10.36 10.36 0 0 0-8.678 4.699l-17.417 26.686a5.181 5.181 0 0 1-4.339 2.349H321.88a10.364 10.364 0 0 0-9.206 5.604l-18.24 35.286h168.823V330.65c0-2.163-.677-4.271-1.935-6.03l-30.802-43.053a10.366 10.366 0 0 0-8.428-4.333z" fill="#ca6e59"></path><path d="M370.34 310.968c1.75 0 3.382-.884 4.339-2.349l17.417-26.686a10.36 10.36 0 0 1 8.678-4.699h-22.347a10.36 10.36 0 0 0-8.678 4.699l-17.417 26.686a5.181 5.181 0 0 1-4.339 2.349h.354zM344.226 310.968h-22.347a10.364 10.364 0 0 0-9.206 5.604l-18.24 35.286h22.347l18.24-35.286a10.364 10.364 0 0 1 9.206-5.604zM263.254 122.607h-61.141c-4.142 0-7.5-3.357-7.5-7.5s3.358-7.5 7.5-7.5h61.141c4.142 0 7.5 3.357 7.5 7.5s-3.358 7.5-7.5 7.5zM266.363 88.41h73.515l-4.459-15h-69.056c-4.142 0-7.5 3.357-7.5 7.5s3.358 7.5 7.5 7.5zM90.31 164.059h51.699c4.142 0 7.5-3.357 7.5-7.5s-3.358-7.5-7.5-7.5H95.898zM436.313 221.055h-34.197c-4.142 0-7.5-3.357-7.5-7.5s3.358-7.5 7.5-7.5h34.197c4.142 0 7.5 3.357 7.5 7.5s-3.357 7.5-7.5 7.5zM128.537 235.562h-16.581c-4.142 0-7.5-3.357-7.5-7.5s3.358-7.5 7.5-7.5h16.581c4.142 0 7.5 3.357 7.5 7.5s-3.358 7.5-7.5 7.5z" fill="#bb5d4c"></path><path d="M416.624 323.646H392.79c-4.142 0-7.5-3.357-7.5-7.5s3.358-7.5 7.5-7.5h23.834c4.142 0 7.5 3.357 7.5 7.5s-3.358 7.5-7.5 7.5z" fill="#d78878"></path><path d="M440.298 441.783H417.5c-4.142 0-7.5-3.357-7.5-7.5s3.358-7.5 7.5-7.5h22.798c4.142 0 7.5 3.357 7.5 7.5s-3.358 7.5-7.5 7.5z" fill="#bb5d4c"></path></g></svg>