<svg viewBox="0 0 68 68" xmlns="http://www.w3.org/2000/svg"><g><path d="M46.449 30.309v-3.321H5.239a3.24 3.24 0 0 1-3.24-3.24v-9.654a3.24 3.24 0 0 1 3.24-3.24h41.21V7.533c0-2.155 2.478-3.353 4.163-2.025L65.03 16.912a2.561 2.561 0 0 1 0 4.018L50.612 32.334c-1.685 1.328-4.163.13-4.163-2.025z" fill="#8dd1fe"></path><path d="M21.551 60.467v-3.32h41.21a3.24 3.24 0 0 0 3.24-3.24v-9.655a3.24 3.24 0 0 0-3.24-3.24h-41.21v-3.32c0-2.155-2.478-3.354-4.163-2.026L2.97 47.07a2.561 2.561 0 0 0 0 4.018l14.417 11.404c1.685 1.328 4.163.13 4.163-2.025z" fill="#f14f4a"></path></g></svg>