<svg viewBox="0 0 512 512" xmlns="http://www.w3.org/2000/svg"><g><path d="M341.801 307.386H154.559l-11.865-2.783c-7.387 0-10.787-6.607-10.787-13.993V18.032c0-7.387 5.988-13.375 13.375-13.375L154.559 0h187.243c7.387 0 13.375 5.988 13.375 13.375v280.636c-.001 7.387-5.989 13.375-13.376 13.375z" fill="#f2fbff"></path><path d="M154.559 0v307.384H139.02c-7.382 0-13.371-5.989-13.371-13.371V13.371C125.649 5.989 131.637 0 139.02 0z" fill="#dff6fd"></path><path d="m292.361 154.139-51.951 11.114-51.951-11.114V66.991a4.13 4.13 0 0 1 4.13-4.13h95.641a4.13 4.13 0 0 1 4.13 4.13v87.148z" fill="#fe99a0"></path><path d="M260.776 116.244h-40.731a7.744 7.744 0 1 1 0-15.488h40.731a7.744 7.744 0 1 1 0 15.488z" fill="#f2fbff"></path><path d="M288.231 245.416H192.59a4.13 4.13 0 0 1-4.13-4.13v-87.148h103.901v87.148a4.13 4.13 0 0 1-4.13 4.13z" fill="#fd8087"></path><path d="M408 322.389c0-11.879-9.007-21.649-20.564-22.864 0 0-1.853 1.441-2.675 1.441 0 0-22.752 8.722-22.752 21.422v-16.967c0-13.064-10.3-23.722-23.222-24.297 0 0-1.094 1.42-1.462 1.42 0 0-23.959 9.445-23.959 22.878v-8.844c0-13.066-10.303-23.723-23.227-24.296 0 0-.805 1.721-1.172 1.721 0 0-24.245 9.142-24.245 22.574v-91.434c0-12.919-10.072-23.486-22.791-24.276l-1.532.505c-13.433 0-22.546 12.317-22.546 25.749l1.099 163.129c0 6.015-6.406 9.797-13.187 8.825-1.916-.065-3.863-.698-5.609-2.014l-18.07-13.616a111.644 111.644 0 0 0-34.672-17.641h-.001c-10.912-3.323-22.306-1.095-30.985 5.204-3.709 4.326-6.915 7.41-9.505 13.374 0 0 .058 10.743 4.979 12.996l19.25 6.508c8.725 3.995 17.681 10.829 22.828 18.927l16.078 27.37c7.329 11.531 18.255 20.477 30.733 26.044 19.462 8.683 31.457 28.569 30.06 49.834l.314 2.638a1.613 1.613 0 0 0 1.609 1.718l18.115 1.582 127.046-.009c.93 0 1.667-.785 1.609-1.713v-.001a115.22 115.22 0 0 1 14.773-64.023A105.122 105.122 0 0 0 408 394.391z" fill="#ffcebf"></path><g fill="#f7bab0"><path d="m250.935 492.026-.045 19.973-21.161.001a1.612 1.612 0 0 1-1.613-1.719l.046-.745c.076-1.126.107-2.236.107-3.362 0-19.974-11.744-38.243-30.166-46.473a69.548 69.548 0 0 1-30.364-26.226l-17.661-27.762a49.7 49.7 0 0 0-21.252-18.529l-19.015-8.701a9.955 9.955 0 0 1-4.99-13.006 35.112 35.112 0 0 1 11.607-14.467l35.216 17.92a49.7 49.7 0 0 1 21.252 18.529l15.882 24.979a80.957 80.957 0 0 0 32.143 29.01l1.4.7a51.952 51.952 0 0 1 28.614 49.878zM217.026 382.345l-12.779-3.442c5.796 1.156 11.837-3.175 11.837-9.777l-.015-163.981c0-6.709 2.723-12.794 7.119-17.205 4.412-4.396 10.481-7.119 17.205-7.119.517 0 1.034.016 1.536.047l.014 182.38c.001 13.013-12.351 22.48-24.917 19.097zM289.042 272.254c.365 0 .73.013 1.095.028v77.494c0 7.013-5.689 12.702-12.702 12.702h-.015c-7.013 0-12.702-5.689-12.702-12.702v-53.197c0-6.724 2.723-12.793 7.119-17.205 4.412-4.397 10.481-7.12 17.205-7.12zM337.691 281.108c.365 0 .73.015 1.096.03v68.638c0 7.013-5.689 12.702-12.702 12.702h-.015c-7.013 0-12.702-5.689-12.702-12.702v-44.359a24.252 24.252 0 0 1 7.119-17.19c4.411-4.396 10.48-7.119 17.204-7.119zM387.436 299.525v50.251c0 7.013-5.674 12.702-12.702 12.702h-.015c-7.013 0-12.702-5.689-12.702-12.702v-27.382a22.975 22.975 0 0 1 6.724-16.262c4.168-4.168 9.903-6.739 16.262-6.739.82 0 1.626.041 2.433.132z" fill="#f7bab0"></path></g></g></svg>