<svg viewBox="0 0 512 512" xmlns="http://www.w3.org/2000/svg"><g><path d="M458.695 245.177a7.611 7.611 0 0 1-5.848-12.479l35.243-42.365a37.634 37.634 0 0 0 8.686-24.024c0-20.712-16.851-37.563-37.563-37.563h-82.174c-35.495 0-64.373-28.878-64.373-64.373C312.666 28.878 341.544 0 377.039 0h127.349a7.612 7.612 0 1 1 0 15.222H377.039c-27.102 0-49.15 22.049-49.15 49.15s22.048 49.15 49.15 49.15h82.174c29.107 0 52.786 23.68 52.786 52.786a52.885 52.885 0 0 1-12.207 33.759l-35.243 42.365a7.587 7.587 0 0 1-5.854 2.745z" fill="#a79ba7"></path><g fill="#b5adb6"><path d="m443.146 275.422-21.524-21.518 25.592-25.581c5.943-5.94 15.575-5.94 21.517.001 5.945 5.943 5.945 15.582-.001 21.525zM144.58 360.47l-21.518 21.524-25.581-25.592c-5.94-5.943-5.94-15.575.001-21.517 5.943-5.945 15.582-5.945 21.525.001zM360.85 418.293h-83.66v-29.219a8.062 8.062 0 0 1 8.062-8.062h67.536a8.062 8.062 0 0 1 8.062 8.062z" fill="#b5adb6"></path></g><path d="m504.041 426.385-49.295-169.189c-3.206-11.002-13.666-18.251-25.099-17.417-55.182 4.028-128.3 17.073-205.461 54.493a550.132 550.132 0 0 0-78.297 46.356A406.476 406.476 0 0 0 37.943 463.262l-7.703 13.472-10.196 15.223 429.354-15.223 5.866-12.549a42.467 42.467 0 0 1 38.475-24.482c6.965 0 12.054-6.578 10.302-13.318zm-85.382-20.544-150.457 9.89c-21.091 1.386-38.962-15.341-38.962-36.471v-.001c0-13.282 7.196-25.527 18.82-31.962a532.964 532.964 0 0 1 57.965-27.668 533.35 533.35 0 0 1 88.308-27.145c8.564-1.839 17.041 3.434 19.111 11.943l19.828 81.518c2.366 9.73-4.619 19.239-14.613 19.896z" fill="#fee97d"></path><path d="m504.041 426.385-49.295-169.189c-3.197-10.973-13.615-18.254-25.013-17.423a597.63 597.63 0 0 0-6.019.472c.212.566.415 1.139.586 1.728l49.295 169.189c1.75 6.731-3.324 13.301-10.277 13.318-16.163.039-31.076 8.596-37.92 23.239a23.92 23.92 0 0 1-21.671 13.792H38.973c-.34.586-.694 1.163-1.031 1.751l-7.703 13.472-10.196 15.223 429.354-15.223 6.447-13.792c7.097-14.128 21.757-23.2 37.92-23.239 6.952-.017 12.026-6.587 10.277-13.318z" fill="#fedf30"></path><path d="M452.077 512H0c0-19.477 15.789-35.266 35.266-35.266h416.811c9.739 0 17.633 7.895 17.633 17.633S461.816 512 452.077 512z" fill="#b5adb6"></path><path d="M452.077 476.734h-30.446c9.739 0 17.633 7.894 17.633 17.633S431.37 512 421.631 512h30.446c9.739 0 17.633-7.894 17.633-17.633s-7.894-17.633-17.633-17.633z" fill="#a79ba7"></path><path d="m260.871 415.478-.004-.001c-17.738-2.392-31.627-17.59-31.627-36.215v-.001c0-13.283 7.196-25.527 18.82-31.962a532.778 532.778 0 0 1 146.273-54.813 16.15 16.15 0 0 1 11.641 1.895l.013-.003c-12.725-16.688-23.272-18.56-28.116-18.677-2.456-.059-6.297.498-13.984 1.562-20.917 2.896-31.695 4.203-88.308 27.145a533.054 533.054 0 0 0-57.965 27.668c-11.624 6.435-18.82 18.679-18.82 31.962 1.105 6.483 3.797 16.45 11.017 26.145 17.485 23.481 46.443 25.109 51.06 25.295z" fill="#fedf30"></path></g></svg>