<svg viewBox="0 0 58 59" xmlns="http://www.w3.org/2000/svg"><g><g fill="none" fill-rule="nonzero"><path d="M39.213 22.22c-1.27-.65-2.541 1.28-2.541 1.28l-.079-.01a82.714 82.714 0 0 0 0-8.99C36 1.64 21.193 1 21.193 1h-2.38S4 1.64 3.412 14.5a82.714 82.714 0 0 0 0 8.99l-.079.01s-1.27-1.93-2.541-1.28c-1.259.63-.639 6.42-.639 6.42s.63 4.46 4.38 6.4c-.16 3.72-.44 7.1 3.62 10.96.482.455.94.936 1.37 1.44v9.52a2 2 0 0 0 1.99 2h16.979a2 2 0 0 0 1.99-2v-9.52c.43-.504.888-.985 1.37-1.44 4.06-3.86 3.781-7.24 3.62-10.96 3.75-1.94 4.38-6.4 4.38-6.4s.62-5.79-.639-6.42Z" fill="#285680"></path><path d="M4.593 33.14c0 .65-.02 1.28-.06 1.9-3.75-1.94-4.38-6.4-4.38-6.4s-.62-5.79.639-6.42c1.271-.65 2.541 1.28 2.541 1.28l.079-.01c.32 4.96 1.181 6.53 1.181 9.65Z" fill="#285680"></path><path d="M36.593 23.49c-.32 4.96-1.181 6.53-1.181 9.65 0 .65.021 1.28.06 1.9.161 3.72.44 7.1-3.62 10.96-.482.455-.94.936-1.37 1.44C27.063 51.41 26.6 55 22.373 55h-4.74c-4.23 0-4.69-3.59-8.11-7.56-.43-.504-.888-.985-1.37-1.44-4.06-3.86-3.78-7.24-3.62-10.96.04-.62.06-1.25.06-1.9 0-3.12-.861-4.69-1.181-9.65a82.714 82.714 0 0 1 0-8.99C4 1.64 18.813 1 18.813 1h2.38s14.81.64 15.4 13.5a82.714 82.714 0 0 1 0 8.99Z" fill="#4482c3"></path><path d="M58 19s-8.507 11-19 11-19-11-19-11S28.507 8 39 8s19 11 19 11Z" fill="#f09372"></path><path d="M50 19a10.945 10.945 0 0 1-1.27 5.13A27.8 27.8 0 0 1 39 26a27.8 27.8 0 0 1-9.73-1.87 11 11 0 0 1 0-10.26A27.8 27.8 0 0 1 39 12a27.8 27.8 0 0 1 9.73 1.87A10.945 10.945 0 0 1 50 19Z" fill="#67b9cc"></path><path d="M29.27 13.87a11 11 0 0 0 0 10.26A35.593 35.593 0 0 1 20 19a35.593 35.593 0 0 1 9.27-5.13ZM48.73 24.13a11 11 0 0 0 0-10.26A35.593 35.593 0 0 1 58 19a35.593 35.593 0 0 1-9.27 5.13Z" fill="#ecf0f1"></path><circle cx="39" cy="19" fill="#2fa8cc" r="7"></circle><circle cx="39" cy="19" fill="#2c3e50" r="3"></circle><path d="M39 38a1 1 0 0 1-1-1v-3a1 1 0 0 1 2 0v3a1 1 0 0 1-1 1ZM48 35.588a1 1 0 0 1-.867-.5l-1.5-2.6a1 1 0 1 1 1.732-1l1.5 2.6a1 1 0 0 1-.865 1.5ZM46.5 7.01a1 1 0 0 1-.865-1.5l1.5-2.6a1 1 0 1 1 1.732 1l-1.5 2.6a1 1 0 0 1-.867.5ZM39 5a1 1 0 0 1-1-1V1a1 1 0 0 1 2 0v3a1 1 0 0 1-1 1ZM31.5 7.01a1 1 0 0 1-.867-.5l-1.5-2.6a1 1 0 1 1 1.732-1l1.5 2.6a1 1 0 0 1-.865 1.5ZM30 35.588a1 1 0 0 1-.865-1.5l1.5-2.6a1 1 0 1 1 1.732 1l-1.5 2.6a1 1 0 0 1-.867.5Z" fill="#f0c419"></path><circle cx="35" cy="16" fill="#ecf0f1" r="3"></circle><circle cx="43" cy="23" fill="#ecf0f1" r="1"></circle></g></g></svg>