<svg clip-rule="evenodd" fill-rule="evenodd" height="512" stroke-linejoin="round" stroke-miterlimit="2" viewBox="0 0 267 267" width="512" xmlns="http://www.w3.org/2000/svg"><path d="m204.252 154.138c-.969.256-1.618 1.166-1.545 2.166.003.044.005.088.005.132v35.436c0 .632.286 1.23.779 1.625.493.396 1.138.546 1.755.409 7.57-1.68 10.048-1.284 13.327-.538 3.601.82 8.081 1.993 19.911 1.525 5.127-.143 9.227-4.36 9.227-9.513.012-7.471.012-11.217.012-19.44 0-2.741-1.18-5.349-3.24-7.159-2.059-1.809-4.798-2.643-7.516-2.291-.024.004-.048.007-.072.011-9.248 1.529-12.936-.019-16.248-1.474-3.877-1.704-7.316-3.29-16.395-.889z" fill="#e63934"/><path d="m194.99 209.278c0 1.151.933 2.084 2.083 2.084h7.722c1.15 0 2.083-.933 2.083-2.084v-52.842c0-3.28-2.663-5.944-5.944-5.944s-5.944 2.664-5.944 5.944z" fill="#581537"/><circle cx="53.552" cy="82.742" fill="#fcc369" r="38.969"/><path d="m102.243 204.066c-.539-.254-1.161-.265-1.709-.03s-.969.693-1.156 1.259c-1.128 3.401-3.408 6.279-6.376 8.171-.622.397-.988 1.093-.961 1.831.026.738.441 1.406 1.089 1.758 6.889 3.73 14.773 5.849 23.148 5.849h103.879c4.335 0 7.855-3.52 7.855-7.855 0-4.334-3.52-7.854-7.855-7.854h-103.879c-5.017 0-9.774-1.121-14.035-3.129zm41.777-75.812c.222-.637.122-1.342-.268-1.893-.391-.55-1.024-.877-1.699-.877h-25.775c-26.883 0-48.71 21.826-48.71 48.71 0 5.216.822 10.241 2.343 14.954.227.703.81 1.233 1.531 1.394.721.16 1.473-.074 1.977-.615 2.368-2.544 5.583-4.289 9.194-4.782.591-.081 1.118-.411 1.45-.906.331-.495.435-1.109.284-1.686-.699-2.671-1.07-5.472-1.07-8.359 0-18.214 14.788-33.001 33.001-33.001h25.775c.675 0 1.308-.327 1.699-.877.39-.551.49-1.256.268-1.893-.556-1.592-.858-3.303-.858-5.084 0-1.782.302-3.493.858-5.085zm103.268-50.725c-.227-.703-.81-1.233-1.531-1.394-.721-.16-1.473.074-1.977.615-2.368 2.544-5.583 4.289-9.194 4.783-.591.08-1.118.41-1.45.905-.331.496-.435 1.109-.284 1.686.698 2.671 1.07 5.472 1.07 8.359 0 18.214-14.788 33.001-33.001 33.001h-25.775c-.675 0-1.308.327-1.699.877-.39.551-.49 1.256-.268 1.893.556 1.592.858 3.303.858 5.085 0 1.781-.302 3.492-.858 5.084-.222.637-.122 1.342.268 1.893.391.55 1.024.877 1.699.877h25.775c26.883 0 48.709-21.826 48.709-48.71 0-5.215-.821-10.241-2.342-14.954zm-32.332-14.918c.539.254 1.161.265 1.709.03s.969-.693 1.156-1.259c1.128-3.401 3.408-6.279 6.376-8.171.622-.397.988-1.093.961-1.831-.026-.738-.441-1.406-1.09-1.758-6.888-3.73-14.772-5.849-23.147-5.849h-103.88c-4.335 0-7.854 3.52-7.854 7.855s3.519 7.854 7.854 7.854h103.88c5.017 0 9.774 1.122 14.035 3.129z" fill="#569fd7"/><circle cx="53.552" cy="82.742" fill="#daeeff" r="30.424"/><path d="m64.431 86.224c-.457-.392-2.059-1.753-3.77-3.049-.415-.314-.834-.623-1.236-.914-.043-.9-.144-2.812-.222-3.779-.356-4.373-.907-9.319-.984-10.005-.063-2.49-2.13-4.516-4.667-4.516-2.545 0-4.617 2.04-4.67 4.572-.084.724-.628 5.618-.98 9.949-.1 1.231-.186 2.409-.22 3.438-.062 1.843-.019 3.192-.01 3.444v.013c.017 2.083 1.134 4.003 2.94 5.045.035.021.071.04.108.058 0 0 2.218 1.113 4.521 2.083 1.979.835 3.962 1.542 4.527 1.741 2.179 1.139 4.923.355 6.178-1.819 1.251-2.166.567-4.922-1.515-6.261z" fill="#545ea1"/><circle cx="84.72" cy="200.439" fill="#fec110" r="19.604"/><circle cx="158.599" cy="133.339" fill="#e63934" r="19.604"/><circle cx="232.479" cy="66.238" fill="#66bc6a" r="19.604"/></svg>