<svg viewBox="0 0 512.001 512.001" xmlns="http://www.w3.org/2000/svg"><g><path d="M209.226 491.191 84.564 511.356c-27.059 4.377-52.543-14.011-56.92-41.07L7.479 345.624c-4.377-27.059 14.011-52.543 41.07-56.92l124.661-20.165c27.059-4.377 52.543 14.011 56.92 41.07l20.165 124.661c4.378 27.06-14.01 52.544-41.069 56.921z" fill="#73e7e6"></path><path d="M250.296 434.271 230.131 309.61c-4.377-27.059-29.861-45.447-56.92-41.07l-46.577 7.534c24.914-.899 47.182 16.863 51.266 42.11l20.379 125.99c3.647 22.543-8.348 43.993-27.991 53.315l38.937-6.298c27.06-4.377 45.448-29.861 41.071-56.92z" fill="#65d1cb"></path><path d="m270.843 253.798-121.271-35.22c-26.323-7.645-41.465-35.182-33.82-61.505l35.22-121.271c7.645-26.323 35.182-41.465 61.505-33.82l121.271 35.22c26.323 7.645 41.465 35.182 33.82 61.505l-35.22 121.271c-7.645 26.323-35.182 41.465-61.505 33.82z" fill="#f26666"></path><path d="M333.747 37.202 289.562 24.37c22.235 10.053 34.28 35.173 27.277 59.287L281.47 205.438c-7.062 24.317-31.029 39.116-55.4 35.357l44.773 13.003c26.323 7.645 53.86-7.497 61.505-33.82l35.22-121.271c7.645-26.323-7.497-53.86-33.821-61.505z" fill="#dd5b5b"></path><path d="M455.533 498.384H329.251c-27.411 0-49.632-22.221-49.632-49.632V322.47c0-27.411 22.221-49.632 49.632-49.632h126.282c27.411 0 49.632 22.221 49.632 49.632v126.282c0 27.411-22.221 49.632-49.632 49.632z" fill="#ff9f40"></path><path d="M455.533 272.838h-40.439c22.129 5.253 38.595 25.129 38.595 48.865v127.816c0 23.735-16.466 43.612-38.595 48.865h40.439c27.411 0 49.632-22.221 49.632-49.632V322.47c0-27.411-22.221-49.632-49.632-49.632z" fill="#f49138"></path><path d="M195.762 155.482c.089-.251.394-.709.697-1.167l52.283-70.406c2.468-3.367 7.739-3.476 12.387-1.826 4.773 1.694 8.797 5.102 8.59 9.271l-3.798 87.614c-.053.547-.061.968-.195 1.345-1.382 3.894-8.311 4.688-12.707 3.127-2.764-.981-4.587-2.618-4.368-5.227l1.156-18.4-28.765-10.209-10.702 15.012c-1.475 2.164-3.922 2.285-6.686 1.304-4.395-1.56-9.318-6.419-7.892-10.438zm55.076-9.731 2.758-42.441-24.614 34.684 21.856 7.757zM90.164 358.636c-.914-3.481 2.222-6.234 5.96-7.216l24.88-6.535c13.408-3.522 27.063-2.422 31.872 15.883 2.777 10.572.48 18.616-5.574 23.376 8.676 1.029 15.411 4.634 18.797 17.525l.711 2.707c5.282 20.112-4.037 30.276-18.605 34.102l-27.33 7.178c-4.512 1.185-7.992-.519-8.703-3.226l-22.008-83.794zm24.859 26.959 14.438-3.792c6.961-1.828 9.128-7.222 7.401-13.796-1.761-6.704-6.712-9.813-13.287-8.087l-14.309 3.758 5.757 21.917zm25.842 39.102c7.864-2.065 11.387-7.538 8.814-17.336l-.542-2.062c-2.641-10.055-8.23-12.446-16.094-10.38l-14.567 3.826 7.821 29.779 14.568-3.827zM396.908 350.771c-8.93 0-13.995 4.932-13.995 15.329v37.187c0 10.396 5.065 15.329 14.261 15.329 12.13 0 13.196-8.664 13.595-14.262.267-4.132 3.999-5.465 8.53-5.465 5.998 0 8.797 1.733 8.797 8.53 0 16.128-13.196 26.39-31.856 26.39-16.794 0-30.656-8.263-30.656-30.522V366.1c0-22.259 13.995-30.523 30.789-30.523 18.527 0 31.723 9.863 31.723 25.325 0 6.931-2.799 8.53-8.664 8.53-4.931 0-8.53-1.466-8.664-5.464-.265-4.133-1.198-13.197-13.86-13.197z" fill="#ffffff"></path></g></svg>