<svg viewBox="0 0 512 512" xmlns="http://www.w3.org/2000/svg"><g><path d="M448.266 0H256l-60 224.133 60 224.133h96.665L448.266 512v-63.734c35.199 0 63.734-28.535 63.734-63.734V63.734C512 28.535 483.465 0 448.266 0z" fill="#f5e29e"></path><path d="M334.734 203.162V143.87H241v78.734h63.734v10.559c0 26.872-21.862 48.734-48.734 48.734h-15v30h15c43.414 0 78.734-35.32 78.734-78.734v-30.001zM443.468 203.162V143.87h-78.734v78.734h48.734v10.559c0 26.872-21.862 48.734-48.734 48.734v30c43.414 0 78.734-35.32 78.734-78.734a150010 150010 0 0 0 0-30.001z" fill="#2c2c2f"></path><path d="M63.734 0C28.535 0 0 28.535 0 63.734v320.797c0 35.2 28.535 63.734 63.734 63.734H256V0z" fill="#f6f6a8"></path><g fill="#48484c"><path d="M196 281.896h30v30h-30zM136 281.896h30v30h-30zM76 281.896h30v30H76z" fill="#48484c"></path></g></g></svg>