<svg viewBox="0 0 512 512" xmlns="http://www.w3.org/2000/svg"><g><path d="M488 108a83.99 83.99 0 0 1-84 84h-24a83.72 83.72 0 0 1-35.87-8.02L296 192l13.02-39.06A84.005 84.005 0 0 1 380 24h24a84.002 84.002 0 0 1 84 84z" fill="#eedc9a"></path><path d="M392 144a8 8 0 0 1-8-8 46.323 46.323 0 0 1 13.656-32.97l8.687-8.687a20.284 20.284 0 0 0-28.62-28.752l-3.726 3.92a9.95 9.95 0 0 1-.142.146 6.158 6.158 0 0 0-.767 7.75 6.142 6.142 0 0 0 9.453.936l3.802-3.802a8 8 0 0 1 11.314 11.314l-3.802 3.802a22.142 22.142 0 0 1-31.393-31.234l3.74-3.935a10 10 0 0 1 .141-.145 36.284 36.284 0 0 1 51.314 51.314l-8.687 8.687A30.427 30.427 0 0 0 400 136a8 8 0 0 1-8 8z" fill="#e44b4d"></path><circle cx="392" cy="160" fill="#e44b4d" r="8"></circle><path d="M104 232h29.39v48H104a24 24 0 0 1-24-24 24 24 0 0 1 24-24zM264 280h-29.389v-48h29.39a24 24 0 0 1 24 24 24 24 0 0 1-24 24z" fill="#f2c194"></path><path d="M344 493.85V496H24v-2.15a176.611 176.611 0 0 1 1.33-21.69 178.736 178.736 0 0 1 3.97-21.36 109.286 109.286 0 0 1 83.26-80.39 107.35 107.35 0 0 1 11.96-1.87q5.385-.54 10.83-.54h.65a24.021 24.021 0 0 0 24-23.99V336h48v8.01A24.021 24.021 0 0 0 232 368h.65q5.445 0 10.83.54a107.35 107.35 0 0 1 11.96 1.87q3.705.78 7.35 1.83a109.316 109.316 0 0 1 75.91 78.56 177.51 177.51 0 0 1 5.3 43.05z" fill="#f4ceaf"></path><path d="M344 493.85V496H24v-2.15a176.611 176.611 0 0 1 1.33-21.69 178.736 178.736 0 0 1 3.97-21.36 109.286 109.286 0 0 1 83.26-80.39 107.35 107.35 0 0 1 11.96-1.87 70.825 70.825 0 0 0 7.25 8.96 71.92 71.92 0 0 0 111.71-8.96c2.21.22 4.4.51 6.59.86q2.7.435 5.37 1.01 3.705.78 7.35 1.83a109.316 109.316 0 0 1 75.91 78.56 177.51 177.51 0 0 1 5.3 43.05z" fill="#c4d4e0"></path><path d="m243.68 389.76-31.22 41.63a31.51 31.51 0 0 1 2.71 7.67 32.071 32.071 0 0 1-5.14 25.2L187.59 496H49.27l73.52-105.03 8.98-13.47a71.92 71.92 0 0 0 111.71-8.96c2.21.22 4.4.51 6.59.86a31.857 31.857 0 0 1-6.39 20.36z" fill="#a6b2bc"></path><path d="M243.48 368.54a71.92 71.92 0 0 1-111.71 8.96 70.825 70.825 0 0 1-7.25-8.96c2.02-.2 4.04-.35 6.07-.43 1.58-.08 3.17-.11 4.76-.11h.65a23.86 23.86 0 0 0 14.93-5.22 47.973 47.973 0 0 0 66.14 0A23.86 23.86 0 0 0 232 368h.65q5.445 0 10.83.54z" fill="#a6b2bc"></path><path d="M344 493.85V496H232a210.55 210.55 0 0 1 5.4-47.39l7.11-30.81 10.93-47.39q3.705.78 7.35 1.83a109.316 109.316 0 0 1 75.91 78.56 177.51 177.51 0 0 1 5.3 43.05zM136 496H24v-2.15a176.611 176.611 0 0 1 1.33-21.69 178.736 178.736 0 0 1 3.97-21.36 109.28 109.28 0 0 1 83.26-80.39l6.1 26.46 4.83 20.93 7.11 30.81A210.55 210.55 0 0 1 136 496z" fill="#396795"></path><path d="M256 224v48a72 72 0 0 1-144 0v-48l96-40z" fill="#f4ceaf"></path><path d="M222.68 332.74a72.041 72.041 0 0 1-78.09-.48 30.657 30.657 0 0 1 26.89-1.78 31.987 31.987 0 0 1 44.44-3.37z" fill="#f2c194"></path><path d="M152 256h-16a8 8 0 0 1 0-16h16a8 8 0 0 1 0 16zM232 256h-16a8 8 0 0 1 0-16h16a8 8 0 0 1 0 16z" fill="#ad7d4d"></path><path d="M191.999 288.002a8.003 8.003 0 0 1-7.588-5.472l-8-24a8 8 0 1 1 15.178-5.06l8 24a8.004 8.004 0 0 1-7.59 10.532z" fill="#f2c194"></path><circle cx="144" cy="264" fill="#966342" r="8"></circle><circle cx="224" cy="264" fill="#966342" r="8"></circle><path d="M272 203.31V232h-18.75a31.995 31.995 0 0 1-22.62-9.37L208 200a109.253 109.253 0 0 1-77.25 32h-9.78A40.97 40.97 0 0 1 80 191.03V184a9.933 9.933 0 0 1 10.01-9.96 9.738 9.738 0 0 1 6.96 2.93 9.946 9.946 0 0 0 14.06 0l21.17-21.17a67.598 67.598 0 0 1 95.6 0l5.13 5.13a10.007 10.007 0 0 1 0 14.14l-.93.93h12.69A27.314 27.314 0 0 1 272 203.31z" fill="#ad7d4d"></path><path d="M192 320h-16a8 8 0 0 1 0-16h16a8 8 0 0 1 0 16z" fill="#f2c194"></path><path d="M243.48 368.54a71.92 71.92 0 0 1-111.71 8.96l1.77-2.65-1.13-2.26a30.705 30.705 0 0 1-1.82-4.48c1.58-.08 3.17-.11 4.76-.11h.65a23.86 23.86 0 0 0 14.93-5.22 47.973 47.973 0 0 0 66.14 0A23.86 23.86 0 0 0 232 368h.65q5.445 0 10.83.54z" fill="#808393"></path><g fill="#26507a"><path d="M280 378.79V432l-35.49-14.2 10.93-47.39q3.705.78 7.35 1.83a108.842 108.842 0 0 1 17.21 6.55zM123.49 417.8l-27.06 10.83L88 432v-53.21a108.943 108.943 0 0 1 24.56-8.38l6.1 26.46z" fill="#26507a"></path><path d="M136 496H49.27l69.39-99.13 4.83 20.93 7.11 30.81A210.55 210.55 0 0 1 136 496z" fill="#26507a"></path></g><path d="m118.66 396.87 4.83 20.93-27.06 10.83z" fill="#214569"></path><path d="M145.923 354.232a14.679 14.679 0 0 0 .796 11.206L152 376l-16 24 56 32 38.88-51.84a16 16 0 0 0-2.557-21.891l-22.644-18.87a16 16 0 0 0-23.556 3.416L176 352l-8.01-5.34a14.679 14.679 0 0 0-22.067 7.572z" fill="#f4ceaf"></path><path d="m168 496 28.96-40.967a16 16 0 0 0-5.126-23.128L136 400l-67.2 96z" fill="#396795"></path><path d="M272 203.31V232h-18.75a31.995 31.995 0 0 1-22.62-9.37L208 200l24-24h12.69A27.314 27.314 0 0 1 272 203.31z" fill="#966342"></path></g></svg>