<svg viewBox="0 0 415.999 415.999" xmlns="http://www.w3.org/2000/svg"><g><path d="M61.602 125.852h12.772v92.303H61.602z" fill="#74a0c3" transform="scale(-1) rotate(-23.296 -834.345 329.796)"></path><path d="M111.979 274.154c-17.969 7.737-38.809-.557-46.547-18.525l-10.176-23.631c-2.631-6.108.188-13.192 6.297-15.822l42.951-18.497c6.108-2.631 13.192.188 15.823 6.297l10.177 23.631c7.738 17.969-.556 38.809-18.525 46.547z" fill="#92bee2"></path><path d="M398.688 288.638c-70.806-50.563-184.531-43.403-184.531-43.403s-113.725-7.159-184.531 43.403c-24.048 17.173-19.163 53.549 8.549 63.81 7.411 2.744 16.346 4.939 27.117 6.232 0 0 36.367 4.604 61.416 26.529 8.668 7.588 18.074 14.34 28.579 19.066 14.272 6.423 34.619 12.608 58.87 11.62 24.251.988 44.599-5.197 58.871-11.62 10.506-4.727 19.91-11.479 28.579-19.066 25.048-21.926 61.416-26.529 61.416-26.529 10.771-1.293 19.706-3.488 27.117-6.232 27.713-10.261 32.597-46.637 8.548-63.81z" fill="#facfa8"></path><path d="M414.019 315.168c-.975-11.432-16.116-14.447-21.409-4.269-5.427 10.438-16.694 19.968-39.451 21.639-40.052 2.939-58.772 13.271-70.908 22.835-10.168 8.014-21.894 13.854-34.383 17.259l-.3.081a127.918 127.918 0 0 1-66.819 0l-.3-.081c-12.49-3.405-24.215-9.245-34.383-17.259-12.136-9.564-30.856-19.896-70.908-22.835-22.758-1.671-34.024-11.2-39.451-21.639-5.293-10.18-20.435-7.163-21.409 4.269-1.304 15.295 7.106 31.069 23.878 37.279 7.411 2.744 16.346 4.939 27.117 6.232 0 0 36.487 4.618 61.539 26.637 8.609 7.567 17.988 14.247 28.439 18.952 14.273 6.425 34.627 12.615 58.887 11.627 24.253.988 44.602-5.198 58.874-11.621 10.503-4.727 19.907-11.477 28.573-19.063 25.049-21.928 61.419-26.531 61.419-26.531 10.771-1.293 19.706-3.488 27.117-6.232 16.77-6.211 25.18-21.985 23.878-37.28z" fill="#e8ab79"></path><path d="M79.696 280.998c2.557-1.395 9.15-4.742 17.621-7.147 2.777-.788 5.267 1.96 4.148 4.622-1.441 3.43-3.174 7.687-4.421 11.186a3.402 3.402 0 0 0 1.923 4.286c2.046.844 8.073 3.791 10.948 5.04 2.864 1.242 2.712 5.356-.236 6.385-4.885 1.704-14.266 2.1-19.092 3.74a3.335 3.335 0 0 0-2.288 3.045c-.078 1.967-.377 5.169-1.347 9.429-.721 3.167-5.063 3.662-6.448.724a165.14 165.14 0 0 0-2.954-5.973c-3.13-5.988-9.086-9.925-15.809-10.613-2.966-.304-6.313-.529-9.643-.517-3.127.013-4.631-3.907-2.282-5.971 2.632-2.312 6.232-4.897 10.975-7.179 2.098-1.009 2.654-3.74 1.048-5.426a146.687 146.687 0 0 0-2.341-2.4c-2.343-2.348-.358-6.331 2.921-5.83 4.954.755 10.642 1.755 14.806 2.875.848.228 1.701.144 2.471-.276z" fill="#feaa3a"></path><path d="M53.085 75.69 8.256 94.996c-5.59 2.407-7.975 9.343-5.327 15.491l11.244 26.109c2.647 6.148 9.325 9.182 14.914 6.774l44.83-19.306c5.59-2.407 7.975-9.343 5.327-15.491L68.001 82.464c-2.648-6.148-9.326-9.181-14.916-6.774zm14.535 31.241c1.376 3.197.136 6.803-2.77 8.054l-36.129 15.559c-2.906 1.251-6.379-.325-7.755-3.522l-6.414-14.893c-1.376-3.196-.136-6.803 2.77-8.054l36.129-15.559c2.906-1.251 6.378.326 7.755 3.522l6.414 14.893z" fill="#92bee2"></path><path d="M214.369 0h40.033c3.718 0 5.37 4.082 2.514 6.186-4.094 3.017-9.078 7.369-14.432 13.539-13.782 15.88-28.115 18.055-28.115 18.055V0z" fill="#f27070"></path><path d="M279.111 159.977H149.204c-16.766 0-30.355 13.59-30.355 30.355v91.713c0 6.116 4.957 11.074 11.073 11.074h168.471c6.115 0 11.073-4.958 11.073-11.074v-91.713c.001-16.765-13.59-30.355-30.355-30.355z" fill="#facfa8"></path><path d="M215.341 218.686h-2.367c-15.545 0-28.146 14.909-28.146 33.3v41.134h58.659v-41.134c0-18.391-12.602-33.3-28.146-33.3zM268.937 192.943h5.146a5.345 5.345 0 0 0 5.344-5.344v-5.146a5.345 5.345 0 0 0-5.344-5.344h-5.146a5.345 5.345 0 0 0-5.344 5.344v5.146a5.343 5.343 0 0 0 5.344 5.344zM232.997 192.943h5.146a5.345 5.345 0 0 0 5.344-5.344v-5.146a5.345 5.345 0 0 0-5.344-5.344h-5.146a5.345 5.345 0 0 0-5.344 5.344v5.146a5.344 5.344 0 0 0 5.344 5.344z" fill="#e8ab79"></path><path d="M260.37 81.639H167.945c-12.451 0-22.545 10.094-22.545 22.545v55.793h137.515v-55.793c0-12.452-10.094-22.545-22.545-22.545z" fill="#facfa8"></path><path d="M214.157 104.931a7.31 7.31 0 0 0-7.309 7.309v26.677h14.619V112.24a7.31 7.31 0 0 0-7.31-7.309z" fill="#e8ab79"></path><path d="M251.562 48.835c-.108-3.811-3.241-6.82-7.054-6.82h-7.821a7.06 7.06 0 0 0-7.06 7.06 5.237 5.237 0 0 1-5.238 5.237h-20.462a5.237 5.237 0 0 1-5.237-5.237 7.06 7.06 0 0 0-7.06-7.06h-7.821c-3.813 0-6.945 3.009-7.054 6.82-.26 9.094-1.311 24.954-5.393 32.804H256.955c-4.083-7.85-5.134-23.71-5.393-32.804z" fill="#facfa8"></path><path d="M210.379 0h7.971v54.31h-7.971z" fill="#92bee2"></path><path d="M159.379 192.943h-5.146a5.345 5.345 0 0 1-5.344-5.344v-5.146a5.345 5.345 0 0 1 5.344-5.344h5.146a5.345 5.345 0 0 1 5.344 5.344v5.146a5.344 5.344 0 0 1-5.344 5.344zM195.317 192.943h-5.146a5.345 5.345 0 0 1-5.344-5.344v-5.146a5.345 5.345 0 0 1 5.344-5.344h5.146a5.345 5.345 0 0 1 5.344 5.344v5.146a5.343 5.343 0 0 1-5.344 5.344zM173.812 104.931a7.31 7.31 0 0 0-7.309 7.309v26.677h14.618V112.24a7.309 7.309 0 0 0-7.309-7.309zM254.503 104.931a7.31 7.31 0 0 1 7.31 7.309v26.677h-14.618V112.24a7.308 7.308 0 0 1 7.308-7.309zM255.622 78.493a43.81 43.81 0 0 1-1.078-3.61c-2.113-8.25-2.784-19.102-2.982-26.041-.108-3.811-3.242-6.828-7.054-6.828h-5.517v22.77l.01.14c.313 5.414-4.092 9.939-9.514 9.939h-55.711c-.657 2.572-1.445 4.91-2.415 6.775H256.954c-.488-.937-.927-2.003-1.332-3.145z" fill="#e8ab79"></path><path d="M260.37 81.639h-2.136c4.23 3.949 9.304 11.691 9.304 26.245v32.342l-.001.141c-.061 6.557-5.806 11.659-12.363 11.659H145.4v7.952h137.515v-55.793c0-12.452-10.094-22.546-22.545-22.546z" fill="#e8ab79"></path><path d="M279.111 159.977h-15.836c7.075 4.184 20.885 5.049 21.955 29.425v75.224c-.038 6.476-5.66 11.548-12.136 11.548H118.849v5.871c0 6.116 4.957 11.074 11.073 11.074h168.471c6.115 0 11.073-4.958 11.073-11.074v-91.713c.001-16.765-13.59-30.355-30.355-30.355z" fill="#e8ab79"></path></g></svg>