<svg viewBox="0 0 256 256" xmlns="http://www.w3.org/2000/svg"><g><path d="M204.464 37.85c-1.274 0-2.453-.4-3.425-1.077v201.875c0 5.627 1.533 7.161 3.425 7.161s3.425-1.533 3.425-7.161V36.772a5.965 5.965 0 0 1-3.425 1.078z" fill="#58595b"></path><path d="M177.755 75.306c2.307-2.865 6.459-7.131 11.1-7.682 6.635-.79 14.267 4.978 15.609 6.04 1.342-1.063 8.974-6.83 15.609-6.04 4.641.551 8.793 4.817 11.1 7.682a188.066 188.066 0 0 1 1.828-4.048c1.106-2.387.072-5.213-2.34-6.264l-13.206-5.759a4.12 4.12 0 0 1-2.473-3.777v-7.536a2.324 2.324 0 0 0-2.324-2.324H196.27a2.325 2.325 0 0 0-2.324 2.324v7.536a4.12 4.12 0 0 1-2.473 3.777l-13.206 5.759c-2.411 1.051-3.446 3.877-2.34 6.264a183.288 183.288 0 0 1 1.828 4.048z" fill="#ffd2c0"></path><path d="M209.982 47.923v7.536a4.12 4.12 0 0 0 2.473 3.777l13.206 5.759c2.411 1.051 3.446 3.877 2.34 6.264l-.203.441a32.022 32.022 0 0 1 3.375 3.607 188.066 188.066 0 0 1 1.828-4.048c1.106-2.387.072-5.213-2.34-6.264l-13.206-5.759a4.12 4.12 0 0 1-2.473-3.777v-7.536a2.324 2.324 0 0 0-2.324-2.324h-5a2.323 2.323 0 0 1 2.324 2.324z" fill="#fcc4ae"></path><path d="M241.906 160.855c-3.589-10.794-4.166-20.716-8.145-30.222-4.812-11.495-12.217-19.115-12.217-19.115s1.643-10.988 4.751-19.233c2.136-5.665 4.981-11.079 6.197-13.304a1.982 1.982 0 0 0-.128-2.114c-1.786-2.488-6.686-8.578-12.291-9.243-6.635-.79-14.267 4.978-15.609 6.04-1.342-1.062-8.974-6.83-15.609-6.04-5.604.666-10.505 6.755-12.291 9.243a1.982 1.982 0 0 0-.128 2.114c1.216 2.225 4.061 7.639 6.197 13.304 3.107 8.245 4.751 19.233 4.751 19.233s-7.406 7.62-12.217 19.115c-3.979 9.506-4.555 19.428-8.145 30.222-4.365 13.123-9.661 23.289-11.701 26.992a1.985 1.985 0 0 0 .609 2.597c4.672 3.212 20.566 12.523 48.534 13.118 27.968-.594 43.862-9.906 48.534-13.118a1.985 1.985 0 0 0 .609-2.597c-2.04-3.703-7.336-13.868-11.701-26.992z" fill="#e63950"></path><path d="M253.609 187.851c-2.038-3.7-7.337-13.868-11.703-26.996-3.589-10.794-4.166-20.715-8.145-30.222-4.812-11.495-12.217-19.115-12.217-19.115s1.643-10.988 4.751-19.232c2.135-5.663 4.98-11.076 6.196-13.302a1.983 1.983 0 0 0-.132-2.119c-.836-1.161-2.35-3.104-4.294-4.915-.181.317-4.048 7.114-6.771 14.336-3.107 8.245-4.751 19.232-4.751 19.232s7.406 7.62 12.217 19.115c3.979 9.506 4.555 19.428 8.145 30.222 4.366 13.128 9.665 23.296 11.703 26.996a1.979 1.979 0 0 1-.607 2.59c-4.667 3.209-20.562 12.526-48.538 13.121-21.836-.464-36.312-6.242-43.833-10.282l-.308.565a1.987 1.987 0 0 0 .61 2.6c4.674 3.213 20.568 12.522 48.532 13.117 27.976-.594 43.871-9.911 48.538-13.121a1.979 1.979 0 0 0 .607-2.59z" fill="#d10028"></path><path d="M223.681 100.954h-38.433c1.404 5.689 2.137 10.565 2.137 10.565h34.16c-.001-.001.732-4.877 2.136-10.565z" fill="#ffc91d"></path><circle cx="204.464" cy="31.849" fill="#d1d3d4" r="6"></circle><path d="M231.783 244.994c-7.963 0-14.441-6.478-14.441-14.44a6.728 6.728 0 0 0-6.72-6.721h-12.315a6.728 6.728 0 0 0-6.72 6.72c0 7.963-6.478 14.441-14.441 14.441a3 3 0 1 1 0-6c4.654 0 8.441-3.786 8.441-8.44 0-7.015 5.706-12.721 12.72-12.721h12.315c7.014 0 12.72 5.706 12.72 12.72 0 4.654 3.787 8.441 8.441 8.441a3 3 0 1 1 0 6z" fill="#58595b"></path><path d="M139.524 83.896H34.585V62.662c0-28.978 23.491-52.469 52.469-52.469s52.469 23.491 52.469 52.469v21.234z" fill="#995222"></path><path d="M87.055 10.192c-.839 0-1.671.024-2.5.063 27.817 1.305 49.969 24.267 49.969 52.406v21.234h5V62.662c0-28.979-23.491-52.47-52.469-52.47z" fill="#8c3f0a"></path><path d="M52.143 149.814h69.824a49.76 49.76 0 0 1 26.23 7.433c-.392-21.555-6.593-43.909-15.267-65.285-1.656 23.9-21.555 42.777-45.875 42.777S42.836 115.862 41.18 91.962c-8.674 21.376-14.875 43.729-15.267 65.285a49.758 49.758 0 0 1 26.23-7.433z" fill="#7c3108"></path><path d="M148.197 157.247c-.392-21.555-6.593-43.909-15.267-65.285a45.83 45.83 0 0 1-1.528 8.995c6.48 17.686 10.994 35.858 11.713 53.548a49.937 49.937 0 0 1 5.082 2.742z" fill="#6d2e03"></path><path d="M133.055 71.147v17.592c0 3.325-.361 6.564-1.031 9.689.342.025.683.052 1.031.052 7.548 0 13.667-6.119 13.667-13.667s-6.119-13.666-13.667-13.666z" fill="#ffd2c0"></path><path d="M141.664 74.205a13.605 13.605 0 0 1 3.058 8.609c0 7.092-5.402 12.92-12.316 13.599a45.915 45.915 0 0 1-.38 2.009c.342.025.681.059 1.03.059 7.548 0 13.667-6.119 13.667-13.667a13.64 13.64 0 0 0-5.059-10.609z" fill="#fcc4ae"></path><path d="M133.055 77.814v10.925c0 1.033-.046 2.054-.113 3.069.038.001.075.006.113.006a7 7 0 1 0 0-14z" fill="#f2ad97"></path><path d="M41.055 88.739V71.147c-7.548 0-13.667 6.119-13.667 13.667S33.507 98.48 41.055 98.48c.348 0 .69-.026 1.031-.052a46.155 46.155 0 0 1-1.031-9.689z" fill="#ffd2c0"></path><path d="M41.055 88.739V77.814a7 7 0 1 0 0 14c.038 0 .075-.005.113-.006a46.507 46.507 0 0 1-.113-3.069z" fill="#f2ad97"></path><path d="M161.967 245.808H12.143c-5.523 0-10-4.477-10-10v-35.994c0-27.614 22.386-50 50-50h69.824c27.614 0 50 22.386 50 50v35.994c0 5.523-4.477 10-10 10z" fill="#76a34f"></path><circle cx="87.055" cy="205.109" fill="#5a7a39" r="4.833"></circle><circle cx="87.055" cy="225.109" fill="#5a7a39" r="4.833"></circle><path d="M8.143 201.814a2 2 0 0 1-2-2 45.993 45.993 0 0 1 10.967-29.783 2 2 0 0 1 3.046 2.593 41.984 41.984 0 0 0-10.013 27.189 2 2 0 0 1-2 2.001zm16.197-34.077a2 2 0 0 1-1.251-3.562l1.25 1.562-1.246-1.564c.813-.746 2.046-.661 2.791.153.747.813.657 2.108-.157 2.855-.033.03-.104.09-.138.117-.37.296-.811.439-1.249.439z" fill="#91b56b"></path><path d="M151.967 159.814a49.773 49.773 0 0 1 10 30v35.994c0 5.523-4.477 10-10 10H2.143c0 5.523 4.477 10 10 10h149.824c5.523 0 10-4.477 10-10v-35.994c0-16.357-7.856-30.878-20-40z" fill="#648940"></path><path d="M154.724 162.057c7.62 8.775 12.243 20.223 12.243 32.757v35.994c0 5.523-4.477 10-10 10H7.143a9.954 9.954 0 0 1-4.11-.89c1.569 3.471 5.053 5.89 9.11 5.89h149.824c5.523 0 10-4.477 10-10v-35.994c0-15.08-6.685-28.59-17.243-37.757z" fill="#5a7a39"></path><path d="M120.222 149.814H53.888v12.852a16.2 16.2 0 0 0 7.834 13.872l19.198 11.577a11.88 11.88 0 0 0 12.269 0l19.198-11.577a16.2 16.2 0 0 0 7.834-13.872v-12.852z" fill="#fcc4ae"></path><path d="M68.888 224.934H61.81a2 2 0 0 1-2-2v-73.12h11.078v73.12a2 2 0 0 1-2 2z" fill="#ffc91d"></path><path d="M70.888 157.776h-3.039a1.5 1.5 0 0 1 0-3h3.039zM70.888 167.776h-7.039a1.5 1.5 0 0 1 0-3h7.039zM70.888 177.776h-3.039a1.5 1.5 0 0 1 0-3h3.039zM70.888 187.776h-3.039a1.5 1.5 0 0 1 0-3h3.039zM70.888 197.776h-3.039a1.5 1.5 0 0 1 0-3h3.039zM70.888 207.776h-3.039a1.5 1.5 0 0 1 0-3h3.039z" fill="#414042"></path><path d="M105.222 224.934h7.078a2 2 0 0 0 2-2v-73.12h-11.078v73.12a2 2 0 0 0 2 2z" fill="#ffc91d"></path><path d="M103.222 157.776h3.039a1.5 1.5 0 0 0 0-3h-3.039zM103.222 207.776h7.039a1.5 1.5 0 0 0 0-3h-7.039zM103.222 177.776h3.039a1.5 1.5 0 0 0 0-3h-3.039zM103.222 187.776h3.039a1.5 1.5 0 0 0 0-3h-3.039zM103.222 197.776h3.039a1.5 1.5 0 0 0 0-3h-3.039zM103.222 167.776h3.039a1.5 1.5 0 0 0 0-3h-3.039z" fill="#414042"></path><path d="M87.055 134.739a45.89 45.89 0 0 1-16.167-2.929v18.004h32.333V131.81a45.885 45.885 0 0 1-16.166 2.929z" fill="#fcc4ae"></path><path d="M87.055 134.739a45.89 45.89 0 0 1-16.167-2.929v5a45.886 45.886 0 0 0 16.167 2.929c5.69 0 11.136-1.04 16.167-2.929v-5a45.895 45.895 0 0 1-16.167 2.929z" fill="#f2ad97"></path><path d="M54.634 64.576c23.77 0 44.026-12.392 51.855-29.784 14.95 1.705 26.566 14.392 26.566 29.799V88.74c0 25.405-20.595 46-46 46s-46-20.595-46-46V64.59c0-.475.014-.947.036-1.416a66.378 66.378 0 0 0 13.543 1.402z" fill="#ffd2c0"></path><path d="M121.609 41.026a29.847 29.847 0 0 1 6.445 18.565V83.74c0 25.405-20.595 46-46 46-11.43 0-21.877-4.178-29.922-11.078 8.437 9.837 20.947 16.078 34.922 16.078 25.405 0 46-20.595 46-46V64.59c.001-9.562-4.476-18.073-11.445-23.564z" fill="#fcc4ae"></path><circle cx="107.055" cy="78.106" fill="#995222" r="5.292"></circle><circle cx="67.055" cy="78.106" fill="#995222" r="5.292"></circle><path d="M87.055 112.231c6.259 0 11.333-3.026 11.333-6.76H75.722c0 3.733 5.074 6.76 11.333 6.76z" fill="#995222"></path></g></svg>