<svg id="Layer_3" height="512" viewBox="0 0 64 64" width="512" xmlns="http://www.w3.org/2000/svg" data-name="Layer 3"><rect fill="#4c6cb5" height="30" rx="15" width="60" x="2" y="17"/><path d="m17 21h30v22h-30z" fill="#78a0d4"/><path d="m17 21v16h13a2 2 0 0 0 2-2v-14z" fill="#93bee5"/><circle cx="17" cy="32" fill="#e2e7f6" r="11"/><path d="m25 31a10.99 10.99 0 0 0 -6.061-9.819 10.99 10.99 0 0 0 -6.878 20.638 10.955 10.955 0 0 0 12.939-10.819z" fill="#f2f2f2"/><circle cx="47" cy="32" fill="#e2e7f6" r="11"/><path d="m55 31a10.99 10.99 0 0 0 -6.061-9.819 10.99 10.99 0 0 0 -6.878 20.638 10.955 10.955 0 0 0 12.939-10.819z" fill="#f2f2f2"/><g fill="#f9d266"><path d="m16 24h2v4h-2z"/><path d="m16 36h2v4h-2z"/><path d="m21 31h4v2h-4z"/><path d="m9 31h4v2h-4z"/><path d="m20.355 34.514h2v3.683h-2z" transform="matrix(.707 -.707 .707 .707 -19.45 25.741)"/><path d="m11.645 25.804h2v3.683h-2z" transform="matrix(.707 -.707 .707 .707 -15.842 17.033)"/><path d="m19.514 26.645h3.683v2h-3.683z" transform="matrix(.707 -.707 .707 .707 -13.293 23.197)"/><path d="m10.793 35.329h3.758v2h-3.758z" transform="matrix(.707 -.707 .707 .707 -21.977 19.601)"/></g><path d="m48.414 26a5.581 5.581 0 0 1 -7.414 7.414 6.095 6.095 0 1 0 7.414-7.414z" fill="#9da1bf"/><circle cx="17" cy="32" fill="#f4a93c" r="5"/><path d="m12 32a4.969 4.969 0 0 0 1.851 3.855 4.977 4.977 0 0 0 4.3-8.71 4.958 4.958 0 0 0 -6.151 4.855z" fill="#f6b940"/></svg>