<svg id="Capa_1" enable-background="new 0 0 512 512" height="512" viewBox="0 0 512 512" width="512" xmlns="http://www.w3.org/2000/svg" xmlns:xlink="http://www.w3.org/1999/xlink"><linearGradient id="lg1"><stop offset="0" stop-color="#f89580"/><stop offset="1" stop-color="#c4573a"/></linearGradient><linearGradient id="SVGID_1_" gradientTransform="matrix(.707 .707 -.707 .707 -201.689 -202.017)" gradientUnits="userSpaceOnUse" x1="609.128" x2="674.712" xlink:href="#lg1" y1="164.969" y2="193.484"/><linearGradient id="SVGID_00000145056756166443448690000006635420436103633814_" gradientTransform="matrix(.707 .707 -.707 .707 -201.689 -202.017)" gradientUnits="userSpaceOnUse" x1="628.048" x2="667.256" xlink:href="#lg1" y1="255.973" y2="282.349"/><linearGradient id="SVGID_00000144321107928156221790000002734524887284211646_" gradientTransform="matrix(.707 .707 -.707 .707 -201.689 -202.017)" gradientUnits="userSpaceOnUse" x1="639.647" x2="640.036" xlink:href="#lg1" y1="220.05" y2="200.59"/><linearGradient id="SVGID_00000068649569646644882400000002307923053829690559_" gradientTransform="matrix(.707 .707 -.707 .707 -201.689 -202.017)" gradientUnits="userSpaceOnUse" x1="639.987" x2="638.459" xlink:href="#lg1" y1="184.92" y2="166.581"/><linearGradient id="SVGID_00000008132876284402715990000003465246561012108220_" gradientTransform="matrix(.707 .707 -.707 .707 -201.689 -202.017)" gradientUnits="userSpaceOnUse" x1="636.124" x2="634.699" xlink:href="#lg1" y1="150.048" y2="136.504"/><linearGradient id="SVGID_00000109742957195420020730000009791763193096472741_" gradientTransform="matrix(.707 .707 -.707 .707 -201.689 -202.017)" gradientUnits="userSpaceOnUse" x1="474.992" x2="526.794" xlink:href="#lg1" y1="74.71" y2="88.017"/><linearGradient id="SVGID_00000038374267472130556180000018337872815496983714_" gradientTransform="matrix(.707 .707 -.707 .707 -204.698 -205.026)" gradientUnits="userSpaceOnUse" x1="500.45" x2="539.657" xlink:href="#lg1" y1="164.62" y2="190.996"/><linearGradient id="SVGID_00000003808664175227812000000010298386961077864861_" gradientTransform="matrix(-.707 -.707 -.707 .707 -13.836 -14.164)" gradientUnits="userSpaceOnUse" x1="-242.501" x2="-242.112" xlink:href="#lg1" y1="128.697" y2="109.237"/><linearGradient id="SVGID_00000035494831870571144390000007034815195061815478_" gradientTransform="matrix(-.707 -.707 -.707 .707 -13.836 -14.164)" gradientUnits="userSpaceOnUse" x1="-242.161" x2="-243.689" xlink:href="#lg1" y1="93.566" y2="75.228"/><linearGradient id="SVGID_00000183957580631814605770000010120176490821830546_" gradientTransform="matrix(-.707 -.707 -.707 .707 -13.836 -14.164)" gradientUnits="userSpaceOnUse" x1="-246.023" x2="-247.449" xlink:href="#lg1" y1="58.695" y2="45.15"/><linearGradient id="SVGID_00000094592126120476109790000006649815428648060836_" gradientTransform="matrix(.707 .707 -.707 .707 -201.689 -202.017)" gradientUnits="userSpaceOnUse" x1="609.128" x2="674.712" xlink:href="#lg1" y1="-58.16" y2="-29.645"/><linearGradient id="SVGID_00000163062096456348551130000010117746727400620179_" gradientTransform="matrix(.707 .707 -.707 .707 -201.689 -202.017)" gradientUnits="userSpaceOnUse" x1="628.048" x2="667.256" xlink:href="#lg1" y1="32.844" y2="59.221"/><linearGradient id="SVGID_00000095339581076677424200000001622409063225266588_" gradientTransform="matrix(.707 .707 -.707 .707 -201.689 -202.017)" gradientUnits="userSpaceOnUse" x1="639.647" x2="640.036" xlink:href="#lg1" y1="-3.078" y2="-22.539"/><linearGradient id="SVGID_00000134970869220148995730000016848496632540996500_" gradientTransform="matrix(.707 .707 -.707 .707 -201.689 -202.017)" gradientUnits="userSpaceOnUse" x1="639.987" x2="638.459" xlink:href="#lg1" y1="-38.209" y2="-56.548"/><linearGradient id="SVGID_00000037656460100723445160000008105128040567035787_" gradientTransform="matrix(.707 .707 -.707 .707 -201.689 -202.017)" gradientUnits="userSpaceOnUse" x1="636.124" x2="634.699" xlink:href="#lg1" y1="-73.08" y2="-86.625"/><linearGradient id="SVGID_00000107549898096741586010000003785109929689572518_" gradientTransform="matrix(.707 .707 -.707 .707 -201.689 -202.017)" gradientUnits="userSpaceOnUse" x1="474.992" x2="526.794" xlink:href="#lg1" y1="-148.418" y2="-135.111"/><linearGradient id="SVGID_00000081645274835333597460000002932038701288463271_" gradientTransform="matrix(.707 .707 -.707 .707 -204.698 -205.026)" gradientUnits="userSpaceOnUse" x1="500.45" x2="539.657" xlink:href="#lg1" y1="-58.509" y2="-32.133"/><linearGradient id="SVGID_00000142890794710979953480000015305459299450046621_" gradientTransform="matrix(-.707 -.707 -.707 .707 -13.836 -14.164)" gradientUnits="userSpaceOnUse" x1="-242.501" x2="-242.112" xlink:href="#lg1" y1="-94.432" y2="-113.892"/><linearGradient id="SVGID_00000136391977559306566320000008461735569452716161_" gradientTransform="matrix(-.707 -.707 -.707 .707 -13.836 -14.164)" gradientUnits="userSpaceOnUse" x1="-242.161" x2="-243.689" xlink:href="#lg1" y1="-129.562" y2="-147.901"/><linearGradient id="SVGID_00000038402458790155537050000006496203834132645815_" gradientTransform="matrix(-.707 -.707 -.707 .707 -13.836 -14.164)" gradientUnits="userSpaceOnUse" x1="-246.023" x2="-247.449" xlink:href="#lg1" y1="-164.434" y2="-177.978"/><linearGradient id="SVGID_00000037671922171114569000000007767659926763360697_" gradientTransform="matrix(.707 .707 -.707 .707 -201.689 -202.017)" gradientUnits="userSpaceOnUse" x1="609.128" x2="674.712" xlink:href="#lg1" y1="-281.289" y2="-252.774"/><linearGradient id="SVGID_00000103241341427347047760000010196169314674724252_" gradientTransform="matrix(.707 .707 -.707 .707 -201.689 -202.017)" gradientUnits="userSpaceOnUse" x1="628.048" x2="667.256" xlink:href="#lg1" y1="-190.284" y2="-163.908"/><linearGradient id="SVGID_00000059998057050535353530000016139791221655138487_" gradientTransform="matrix(.707 .707 -.707 .707 -201.689 -202.017)" gradientUnits="userSpaceOnUse" x1="639.647" x2="640.036" xlink:href="#lg1" y1="-226.207" y2="-245.667"/><linearGradient id="SVGID_00000125569004952061971750000008565899578345356986_" gradientTransform="matrix(.707 .707 -.707 .707 -201.689 -202.017)" gradientUnits="userSpaceOnUse" x1="639.987" x2="638.459" xlink:href="#lg1" y1="-261.338" y2="-279.677"/><linearGradient id="SVGID_00000165936318731845819620000007730620259634414008_" gradientTransform="matrix(.707 .707 -.707 .707 -201.689 -202.017)" gradientUnits="userSpaceOnUse" x1="636.124" x2="634.699" xlink:href="#lg1" y1="-296.209" y2="-309.754"/><linearGradient id="lg2"><stop offset="0" stop-color="#444"/><stop offset="1" stop-color="#0b1b4c"/></linearGradient><linearGradient id="SVGID_00000058587189719198110330000008807306968002473863_" gradientTransform="matrix(-.707 .707 .707 .707 2708.821 -1274.234)" gradientUnits="userSpaceOnUse" x1="2797.999" x2="2833.834" xlink:href="#lg2" y1="-366.094" y2="-366.094"/><linearGradient id="SVGID_00000001643126189535350180000001393685385219135393_" gradientTransform="matrix(-1 0 0 1 993.228 89.188)" gradientUnits="userSpaceOnUse" x1="509.903" x2="519.511" xlink:href="#lg2" y1="394.136" y2="384.528"/><linearGradient id="SVGID_00000183223877156024895230000013344317208923577787_" gradientTransform="matrix(-1 0 0 1 993.228 89.188)" gradientUnits="userSpaceOnUse" x1="527.545" x2="537.153" xlink:href="#lg2" y1="376.494" y2="366.887"/><linearGradient id="SVGID_00000180342475287171591250000006541472884477983915_" gradientTransform="matrix(-1 0 0 1 993.228 89.188)" gradientUnits="userSpaceOnUse" x1="545.187" x2="554.795" xlink:href="#lg2" y1="358.853" y2="349.245"/><linearGradient id="lg3"><stop offset="0" stop-color="#0b1b4c" stop-opacity="0"/><stop offset=".2811" stop-color="#0c1b48" stop-opacity=".281"/><stop offset=".5663" stop-color="#101b3c" stop-opacity=".566"/><stop offset=".8525" stop-color="#161a28" stop-opacity=".853"/><stop offset="1" stop-color="#1a1a1a"/></linearGradient><linearGradient id="SVGID_00000053518716973038893350000003928510168125027739_" gradientTransform="matrix(-.707 .707 .707 .707 2708.821 -1274.234)" gradientUnits="userSpaceOnUse" x1="2817.162" x2="2819.977" xlink:href="#lg3" y1="-390.276" y2="-417.618"/><linearGradient id="SVGID_00000103228317698715730300000011893979860281853109_" gradientTransform="matrix(-.707 .707 .707 .707 2708.821 -1274.234)" gradientUnits="userSpaceOnUse" x1="2810.866" x2="2829.918" xlink:href="#lg2" y1="-470.42" y2="-470.42"/><linearGradient id="SVGID_00000010294869207298625320000001931743777591838376_" gradientTransform="matrix(-.707 .707 .707 .707 2708.821 -1274.234)" gradientUnits="userSpaceOnUse" x1="2816.445" x2="2816.445" xlink:href="#lg3" y1="-479.467" y2="-457.955"/><linearGradient id="SVGID_00000101823428432918286700000014263387488960072585_" gradientTransform="matrix(-.707 .707 .707 .707 2708.821 -1274.234)" gradientUnits="userSpaceOnUse" x1="2816.445" x2="2816.445" xlink:href="#lg2" y1="-451.79" y2="-423.632"/><linearGradient id="SVGID_00000115486593944077687180000018022291938555181478_" gradientUnits="userSpaceOnUse" x1="122.497" x2="358.87" y1="122.5" y2="358.874"><stop offset="0" stop-color="#fff"/><stop offset="1" stop-color="#fff" stop-opacity="0"/></linearGradient><linearGradient id="lg4"><stop offset="0" stop-color="#b9acac"/><stop offset="1" stop-color="#766e6e"/></linearGradient><linearGradient id="SVGID_00000112594658474898965100000011643710895819823000_" gradientUnits="userSpaceOnUse" x1="218.879" x2="388.085" xlink:href="#lg4" y1="234.296" y2="348.125"/><linearGradient id="SVGID_00000044180075666594103300000013309526937151393159_" gradientUnits="userSpaceOnUse" x1="369.341" x2="139.896" xlink:href="#lg4" y1="369.345" y2="139.901"/><g><g><g><g><path d="m144.131 410.056-23.732 23.732c-2.92 2.92-7.655 2.92-10.575 0l-42.458-42.458c-2.92-2.92-2.92-7.655 0-10.575l23.732-23.732c8.836-8.836 16.65-18.411 23.388-28.591 6.267-9.468 17.537-14.339 28.741-12.496 30.291 4.982 44.401 40.355 25.916 64.863-8.296 11-16.931 21.176-25.012 29.257z" fill="url(#SVGID_1_)"/></g><path d="m99.042 445.607-43.495-43.495c-2.634-2.634-6.904-2.634-9.538 0l-10.549 10.549c-9.097 9.097-9.097 23.845 0 32.941l20.092 20.092c9.097 9.097 23.845 9.097 32.941 0l10.549-10.549c2.634-2.634 2.634-6.904 0-9.538z" fill="url(#SVGID_00000145056756166443448690000006635420436103633814_)"/><path d="m135.814 418.374-13.865 13.864-53.033-53.033 12.608-12.608z" fill="url(#SVGID_00000144321107928156221790000002734524887284211646_)"/><path d="m162.232 389.661-57.602-47.749c-3.842 4.788-7.945 9.41-12.302 13.85l56.851 49.038c4.294-4.614 8.684-9.713 13.053-15.139z" fill="url(#SVGID_00000068649569646644882400000002307923053829690559_)"/><path d="m171.899 376.66-59.899-44.569c.841-1.209 1.669-2.433 2.482-3.656 2.602-3.932 6.067-7.071 10.034-9.256l52.849 39.329c-.332 6.173-2.086 12.382-5.466 18.152z" fill="url(#SVGID_00000008132876284402715990000003465246561012108220_)"/></g><g><g><path d="m62.46 199.192-23.732 23.732c-2.92 2.92-2.92 7.655 0 10.575l42.458 42.458c2.92 2.92 7.655 2.92 10.575 0l23.732-23.732c8.836-8.836 18.411-16.65 28.591-23.388 9.468-6.267 14.339-17.537 12.496-28.741-4.982-30.291-40.355-44.401-64.863-25.916-11 8.296-21.176 16.931-29.257 25.012z" fill="url(#SVGID_00000109742957195420020730000009791763193096472741_)"/></g><path d="m70.404 287.777-43.495-43.495c-2.634-2.634-6.904-2.634-9.538 0l-10.549 10.548c-9.097 9.097-9.097 23.845 0 32.941l20.092 20.092c9.097 9.096 23.845 9.096 32.941 0l10.549-10.549c2.634-2.634 2.634-6.904 0-9.537z" fill="url(#SVGID_00000038374267472130556180000018337872815496983714_)"/><path d="m54.143 207.509-13.865 13.865 53.033 53.033 12.608-12.608z" fill="url(#SVGID_00000003808664175227812000000010298386961077864861_)"/><path d="m82.855 181.091 47.749 57.602c-4.788 3.842-9.41 7.945-13.85 12.302l-49.038-56.851c4.614-4.294 9.713-8.684 15.139-13.053z" fill="url(#SVGID_00000035494831870571144390000007034815195061815478_)"/><path d="m95.857 171.424 44.569 59.899c1.209-.841 2.433-1.669 3.656-2.482 3.932-2.602 7.071-6.067 9.256-10.034l-39.329-52.849c-6.174.332-12.382 2.086-18.152 5.466z" fill="url(#SVGID_00000183957580631814605770000010120176490821830546_)"/></g><g><g><path d="m301.907 252.281-23.732 23.732c-2.92 2.92-7.655 2.92-10.575 0l-42.458-42.458c-2.92-2.92-2.92-7.655 0-10.575l23.732-23.732c8.836-8.836 16.65-18.411 23.388-28.591 6.267-9.468 17.537-14.339 28.741-12.496 30.291 4.982 44.401 40.355 25.916 64.863-8.297 11-16.931 21.175-25.012 29.257z" fill="url(#SVGID_00000094592126120476109790000006649815428648060836_)"/></g><path d="m256.818 287.832-43.495-43.495c-2.634-2.634-6.904-2.634-9.538 0l-10.549 10.549c-9.097 9.097-9.097 23.845 0 32.941l20.092 20.092c9.097 9.096 23.845 9.096 32.941 0l10.549-10.549c2.633-2.635 2.633-6.905 0-9.538z" fill="url(#SVGID_00000163062096456348551130000010117746727400620179_)"/><path d="m293.59 260.598-13.865 13.864-53.033-53.033 12.608-12.607z" fill="url(#SVGID_00000095339581076677424200000001622409063225266588_)"/><path d="m320.008 231.885-57.602-47.749c-3.842 4.788-7.945 9.41-12.302 13.85l56.851 49.038c4.294-4.614 8.684-9.713 13.053-15.139z" fill="url(#SVGID_00000134970869220148995730000016848496632540996500_)"/><path d="m329.675 218.884-59.899-44.569c.841-1.209 1.669-2.433 2.482-3.656 2.602-3.932 6.067-7.071 10.034-9.256l52.849 39.329c-.332 6.173-2.086 12.382-5.466 18.152z" fill="url(#SVGID_00000037656460100723445160000008105128040567035787_)"/></g><g><g><path d="m220.236 41.416-23.732 23.732c-2.92 2.92-2.92 7.655 0 10.575l42.458 42.458c2.92 2.92 7.655 2.92 10.575 0l23.732-23.732c8.836-8.836 18.411-16.65 28.591-23.388 9.468-6.267 14.339-17.537 12.496-28.741-4.982-30.29-40.356-44.401-64.864-25.916-10.999 8.297-21.175 16.931-29.256 25.012z" fill="url(#SVGID_00000107549898096741586010000003785109929689572518_)"/></g><path d="m228.18 130.001-43.495-43.495c-2.634-2.634-6.904-2.634-9.538 0l-10.549 10.549c-9.097 9.097-9.097 23.845 0 32.941l20.092 20.092c9.097 9.097 23.845 9.097 32.941 0l10.549-10.549c2.634-2.634 2.634-6.904 0-9.538z" fill="url(#SVGID_00000081645274835333597460000002932038701288463271_)"/><path d="m211.918 49.733-13.864 13.865 53.033 53.033 12.608-12.608z" fill="url(#SVGID_00000142890794710979953480000015305459299450046621_)"/><path d="m240.631 23.315 47.749 57.602c-4.788 3.842-9.41 7.945-13.85 12.302l-49.038-56.851c4.614-4.294 9.713-8.684 15.139-13.053z" fill="url(#SVGID_00000136391977559306566320000008461735569452716161_)"/><path d="m253.633 13.648 44.569 59.899c1.209-.842 2.433-1.669 3.656-2.482 3.932-2.602 7.071-6.067 9.256-10.034l-39.33-52.849c-6.173.332-12.381 2.086-18.151 5.466z" fill="url(#SVGID_00000038402458790155537050000006496203834132645815_)"/></g><g><g><path d="m459.683 94.505-23.732 23.732c-2.92 2.92-7.655 2.92-10.575 0l-42.458-42.458c-2.92-2.92-2.92-7.655 0-10.575l23.732-23.732c8.836-8.836 16.65-18.411 23.388-28.591 6.267-9.468 17.537-14.339 28.741-12.496 30.291 4.982 44.401 40.355 25.916 64.863-8.297 11-16.931 21.176-25.012 29.257z" fill="url(#SVGID_00000037671922171114569000000007767659926763360697_)"/></g><path d="m414.593 130.056-43.495-43.496c-2.634-2.634-6.904-2.634-9.538 0l-10.549 10.549c-9.097 9.097-9.097 23.845 0 32.941l20.092 20.092c9.097 9.097 23.845 9.097 32.941 0l10.549-10.549c2.634-2.633 2.634-6.904 0-9.537z" fill="url(#SVGID_00000103241341427347047760000010196169314674724252_)"/><path d="m451.365 102.822-13.864 13.864-53.033-53.033 12.608-12.607z" fill="url(#SVGID_00000059998057050535353530000016139791221655138487_)"/><path d="m477.784 74.11-57.602-47.749c-3.842 4.788-7.945 9.41-12.302 13.85l56.851 49.038c4.294-4.615 8.684-9.714 13.053-15.139z" fill="url(#SVGID_00000125569004952061971750000008565899578345356986_)"/><path d="m487.451 61.108-59.899-44.569c.842-1.209 1.669-2.433 2.482-3.656 2.602-3.932 6.067-7.071 10.034-9.256l52.849 39.329c-.332 6.173-2.086 12.382-5.466 18.152z" fill="url(#SVGID_00000165936318731845819620000007730620259634414008_)"/></g></g><g><g><path d="m479.595 437.257c10.002 10.002 18.939 20.121 26.54 29.857 8.629 11.054 7.627 26.816-2.289 36.732-9.916 9.916-25.678 10.918-36.732 2.289-9.737-7.601-19.855-16.539-29.857-26.54-17.193-17.193-31.241-34.731-40.761-50.08l33.019-33.019c15.349 9.52 32.887 23.569 50.08 40.761z" fill="url(#SVGID_00000058587189719198110330000008807306968002473863_)"/><g><path d="m465.478 490.422c2.998 2.998 7.858 2.998 10.856 0l14.088-14.088c2.998-2.998 2.998-7.858 0-10.856-2.998-2.998-7.858-2.998-10.856 0l-14.088 14.088c-2.998 2.998-2.998 7.858 0 10.856z" fill="url(#SVGID_00000001643126189535350180000001393685385219135393_)"/><path d="m447.836 472.78c2.998 2.998 7.858 2.998 10.856 0l14.088-14.088c2.998-2.998 2.998-7.858 0-10.856-2.998-2.998-7.858-2.998-10.856 0l-14.088 14.088c-2.998 2.998-2.998 7.859 0 10.856z" fill="url(#SVGID_00000183223877156024895230000013344317208923577787_)"/><path d="m430.194 455.139c2.998 2.998 7.858 2.998 10.856 0l14.088-14.088c2.998-2.998 2.998-7.858 0-10.856-2.998-2.998-7.858-2.998-10.856 0l-14.088 14.088c-2.997 2.998-2.997 7.858 0 10.856z" fill="url(#SVGID_00000180342475287171591250000006541472884477983915_)"/></g><path d="m449.41 447.563-21.893 21.893c-12.785-13.85-23.369-27.603-31.021-39.941l33.019-33.019c12.338 7.653 26.091 18.236 39.941 31.021z" fill="url(#SVGID_00000053518716973038893350000003928510168125027739_)"/><path d="m375.558 422.187 46.629-46.629-23.474-23.474c-2.738-2.738-7.178-2.738-9.916 0l-36.713 36.713c-2.738 2.738-2.738 7.178 0 9.916z" fill="url(#SVGID_00000103228317698715730300000011893979860281853109_)"/><path d="m375.558 422.187 46.629-46.629-23.474-23.474c-2.738-2.738-7.178-2.738-9.916 0l-36.713 36.713c-2.738 2.738-2.738 7.178 0 9.916z" fill="url(#SVGID_00000010294869207298625320000001931743777591838376_)"/><path d="m405.329 433.145 27.816-27.816c8.178-8.178 8.178-21.438 0-29.617l-11.061-11.061c-1.346-1.346-3.528-1.346-4.873 0l-52.56 52.56c-1.346 1.346-1.346 3.528 0 4.873l11.061 11.061c8.178 8.178 21.438 8.178 29.617 0z" fill="url(#SVGID_00000101823428432918286700000014263387488960072585_)"/></g><g><circle cx="265.977" cy="265.981" fill="url(#SVGID_00000115486593944077687180000018022291938555181478_)" r="151.003"/><g><path d="m265.977 102.711c-90.171 0-163.27 73.099-163.27 163.27s73.099 163.27 163.27 163.27 163.278-73.099 163.278-163.27-73.107-163.27-163.278-163.27zm0 301.325c-76.245 0-138.055-61.811-138.055-138.055s61.811-138.055 138.055-138.055 138.055 61.811 138.055 138.055-61.811 138.055-138.055 138.055z" fill="url(#SVGID_00000112594658474898965100000011643710895819823000_)"/><path d="m265.977 114.98c-83.398 0-151.001 67.603-151.001 151.001s67.603 151.001 151.001 151.001 151.001-67.603 151.001-151.001-67.603-151.001-151.001-151.001zm0 289.056c-76.245 0-138.055-61.811-138.055-138.055s61.811-138.055 138.055-138.055 138.055 61.811 138.055 138.055-61.811 138.055-138.055 138.055z" fill="url(#SVGID_00000044180075666594103300000013309526937151393159_)"/></g></g></g></g></svg>