<svg id="fLAT" enable-background="new 0 0 64 64" height="512" viewBox="0 0 64 64" width="512" xmlns="http://www.w3.org/2000/svg"><g><path d="m58 40.04v18.96h-4.5c.69 0 1.32-.28 1.77-.73s.73-1.08.73-1.77c0-.82-.39-1.54-1-2v-3c0-1.83-1.11-3.41-2.68-4.11 2.2-4.91 5.25-7.07 5.68-7.35z" fill="#f2f2f2"/><path d="m58 4v35.98c-3.72-1.36-6.74-3.28-9.21-5.55-.28-1.02-.83-1.94-1.55-2.67-.57-.57-1.26-1.03-2.03-1.33-1.87-2.54-3.26-5.28-4.29-8.01v-.01c-1.36-3.59-2.1-7.16-2.49-10.18-.63-4.8-.38-8.23-.38-8.23z" fill="#f2f2f2"/><path d="m11.96 47.85c-.02.4 0 .78.07 1.15 0 0-4.75 1.09-2 10h-4.03v-19s3.56 2.22 5.93 7.85z" fill="#f2f2f2"/><path d="m17.03 31c-.69 0-1.35.12-1.97.33l-3.09-2.61c-.7-.59-1.76-.01-1.64.9l.83 6.1h.01c-.09.41-.14.84-.14 1.28 0 .2.01.41.03.6h-.03c-1.52.92-3.19 1.73-5.03 2.4v-36h20s1.12 15.75-7.59 27l-.04.15c-.43-.1-.88-.15-1.34-.15z" fill="#f2f2f2"/><path d="m19.03 59h-4-5c-2.75-8.91 2-10 2-10-.07-.37-.09-.75-.07-1.15.11-2.67 2.05-5.66 2.05-5.66v-.01c.89.52 1.92.82 3.02.82 1.09 0 2.12-.29 3-.81 0 0 2.55 3.94 1.98 6.81 0 0 1.23.28 2.08 1.74.39.66.69 1.58.76 2.84.08 1.37-.13 3.14-.84 5.42z" fill="#f2883e"/><path d="m17.03 43c-1.1 0-2.13-.3-3.02-.82-1.62-.94-2.75-2.62-2.95-4.58-.02-.19-.03-.4-.03-.6 0-.44.05-.87.14-1.28.44-2.05 1.93-3.71 3.89-4.39.62-.21 1.28-.33 1.97-.33.46 0 .91.05 1.34.15.21.05.42.11.62.18 1.96.68 3.46 2.34 3.9 4.39.09.41.14.84.14 1.28 0 2.22-1.21 4.15-3 5.19-.88.52-1.91.81-3 .81z" fill="#ef9659"/><path d="m23.03 37c0 2.22-1.21 4.15-3 5.19-.33.19-.67.35-1.04.48-.61.22-1.27.33-1.96.33-.71 0-1.39-.12-2.02-.35-.35-.13-.68-.29-1-.47-1.62-.94-2.75-2.62-2.95-4.58-.02-.19-.03-.4-.03-.6 0-.44.05-.87.14-1.28.44-2.05 1.93-3.71 3.89-4.39.62-.21 1.28-.33 1.97-.33.46 0 .91.05 1.34.15.21.05.42.11.62.18 1.96.68 3.46 2.34 3.9 4.39.09.41.14.84.14 1.28z" fill="#ef9659"/><path d="m20 39.5c0-.828-.672-1.5-1.5-1.5-.658 0-1.211.427-1.413 1.017-.03-.003-.057-.017-.087-.017s-.057.014-.087.017c-.202-.59-.755-1.017-1.413-1.017-.828 0-1.5.672-1.5 1.5 0 .755.56 1.374 1.286 1.478-.148.5-.249 1.061-.276 1.672.63.23 1.31.35 2.02.35.69 0 1.35-.11 1.96-.33-.024-.618-.126-1.186-.275-1.692.726-.105 1.285-.723 1.285-1.478z" fill="#ffd5c2"/><path d="m49 39.04v3c0 1.12-.54 2.16-1.37 3h-9.26c-.83-.84-1.37-1.88-1.37-3v-3c3-1 4-3 4-3s3 2 8 3z" fill="#ffd5c2"/><path d="m48.073 38.838c-.134-.032-.261-.066-.393-.099-.23-.058-.462-.116-.68-.18v.001c-3.786-1.05-6-2.521-6-2.521s-1 2-4 3v2c1.24-.413 2.138-.998 2.766-1.541.88-.762 2.127-.906 3.182-.416.869.404 2.014.868 3.394 1.287.386.119.658.47.658.874v.797c0 1.12-.54 2.16-1.37 3h2c.83-.84 1.37-1.88 1.37-3v-1-2c-.319-.063-.626-.131-.927-.202z" fill="#ffa180"/><g><path d="m40.54 40.624c-.703 0-1.231.258-1.264.274-.247.124-.347.424-.224.671.124.246.421.346.668.225.022-.011.807-.375 1.555-.001.247.123.547.023.671-.224s.023-.547-.224-.671c-.41-.205-.819-.274-1.182-.274z" fill="#7c4d4d"/></g><g><path d="m45.54 40.624c-.703 0-1.231.258-1.264.274-.247.124-.347.424-.224.671.124.246.421.346.668.225.022-.011.807-.375 1.555-.001.247.123.547.023.671-.224s.023-.547-.224-.671c-.41-.205-.82-.274-1.182-.274z" fill="#7c4d4d"/></g><g><path d="m41 36.04s-1 2-4 3v-3c0-3.3 2.7-6 6-6 .78 0 1.53.15 2.21.43.77.3 1.46.76 2.03 1.33.72.73 1.27 1.65 1.55 2.67.14.5.21 1.03.21 1.57v3c-5-1-8-3-8-3z" fill="#9e7059"/><path d="m48.825 39.002c.059.012.115.026.175.038v-3c0-.54-.07-1.07-.21-1.57-.28-1.02-.83-1.94-1.55-2.67-.57-.57-1.26-1.03-2.03-1.33-.68-.28-1.43-.43-2.21-.43 3.307 2.646 4.86 5.73 5.825 8.962z" fill="#995b3f"/><g fill="#bfa599"><path d="m38.6 34.48c0 .11 0 .22-.01.33-.48-.08-.95-.18-1.38-.3.03-.16.08-.32.14-.47.39.17.81.32 1.25.44z"/><path d="m39.336 34.666c-.003.082-.005.164-.007.246.694.082 1.423.127 2.178.127.265 0 .523-.007.78-.014-1.038-.025-2.029-.151-2.951-.359z"/><path d="m46.224 33.544c-1.221.391-2.603.631-4.08.668.258.007.516.014.78.014 1.179 0 2.295-.11 3.308-.302-.002-.127-.004-.253-.008-.38z"/><path d="m48.35 33.34c-.42.16-.88.3-1.37.42 0-.16 0-.32-.01-.48.37-.15.73-.31 1.06-.49.12.17.22.36.32.55z"/></g></g><path d="m55 51.54v3c-.42-.31-.94-.5-1.5-.5h-1.5v-5.86c.1-.26.21-.51.32-.75 1.57.7 2.68 2.28 2.68 4.11z" fill="#02af9e"/><g><path d="m34 56.04h18v3h-18z" fill="#938686"/><path d="m52 56.04h-18v-11h18zm-6-5.5c0-.83-1.34-1.5-3-1.5s-3 .67-3 1.5 1.34 1.5 3 1.5 3-.67 3-1.5z" fill="#dad4d4"/><path d="m52 56.04h-5.68c-1.016 1.133-2.172 2.14-3.452 3h9.132z" fill="#686060"/><path d="m52 45.04h-.964c-.366 4.207-2.05 8.028-4.716 11h5.68z" fill="#d3bebe"/><ellipse cx="43" cy="50.54" fill="#ffe5a8" rx="3" ry="1.5"/></g><g><path d="m53.5 54.04c.56 0 1.08.19 1.5.5.61.46 1 1.18 1 2 0 .69-.28 1.32-.73 1.77s-1.08.73-1.77.73h-1.5v-3-2z" fill="#ffd5c2"/><path d="m34 56.04v3h-1.5c-1.38 0-2.5-1.12-2.5-2.5 0-.69.28-1.32.73-1.77.08-.08.17-.16.27-.23.41-.31.94-.5 1.5-.5h1.5z" fill="#ffd5c2"/><g fill="#ffa180"><path d="m56 56.54c0 .69-.28 1.32-.73 1.77s-1.08.73-1.77.73h-1.5v-2h1.5c.69 0 1.32-.28 1.77-.73.22-.22.4-.48.52-.77.14.31.21.64.21 1z"/><path d="m34 57.04v2h-1.5c-1.38 0-2.5-1.12-2.5-2.5 0-.35.07-.69.21-1 .38.88 1.26 1.5 2.29 1.5z"/></g></g><path d="m34 47.3v6.74h-1.5c-.56 0-1.09.19-1.5.5v-3c0-1.95 1.26-3.62 3-4.24z" fill="#02af9e"/><g fill="#b7b7b7"><path d="m58 41.83c-.897.953-1.974 2.31-2.963 4.144-.396.734-.203 1.638.423 2.187.941.825 1.54 2.034 1.54 3.379v3c.61.46 1 1.18 1 2 0 .69-.28 1.32-.73 1.77s-1.08.73-1.77.73h-2c.69 0 1.32-.28 1.77-.73s.73-1.08.73-1.77c0-.82-.39-1.54-1-2v-3c0-1.83-1.11-3.41-2.68-4.11 2.2-4.91 5.25-7.07 5.68-7.35z"/><path d="m58 38.24v1.78c-3.72-1.36-6.74-3.28-9.21-5.55-.28-1.02-.83-1.94-1.55-2.67-.57-.57-1.26-1.03-2.03-1.33-8.25-11.21-7.16-26.43-7.16-26.43h2s-1.09 14.81 7.16 25.71c.77.29 1.46.74 2.03 1.29.72.71 1.27 1.61 1.55 2.6 2.01 1.8 4.39 3.37 7.21 4.6z"/><path d="m10.03 59.04h-2c-2.75-8.91 1.9-11.15 1.9-11.15-1.21-2.88-2.73-4.86-3.93-6.12v-1.73s3.56 2.22 5.93 7.85h.03c-.02.4 0 .78.07 1.15 0 0-4.75 1.09-2 10z"/><path d="m11.03 37.04c0 .2.01.41.03.6h-.03c-1.52.92-3.19 1.73-5.03 2.4v-2c1.84-.67 3.51-1.48 5.03-2.4h.03c-.02-.19-.03-.4-.03-.6 0-.05 0-.11.01-.16l.12.88h.01c-.09.41-.14.84-.14 1.28z"/><path d="m18.41 31.04-.04.15c-.43-.1-.88-.15-1.34-.15-.21 0-.42.01-.63.04l.01-.04c8.71-11.25 7.59-27 7.59-27h2s1.12 15.75-7.59 27z"/></g><path d="m40.92 22.41v.01c-1.41 3.27-4.73 5.58-8.63 5.58-1.01 0-1.98-.15-2.9-.44 3.74-1.18 6.43-4.57 6.43-8.56s-2.69-7.38-6.43-8.56c.92-.29 1.89-.44 2.9-.44 2.35 0 4.5.84 6.14 2.23.39 3.02 1.13 6.59 2.49 10.18z" fill="#ffca3a"/><path d="m34.35 26.237c1.866-1.906 2.971-4.47 2.971-7.237 0-2.766-1.104-5.33-2.97-7.236.965.252 1.873.681 2.674 1.267.466 3.296 1.229 6.423 2.271 9.312-1.017 1.94-2.822 3.339-4.946 3.894z" fill="#fcd060"/><path d="m22.08 28.72c.7-.59 1.76-.01 1.64.9l-.83 6.1c-.44-2.05-1.94-3.71-3.9-4.39z" fill="#f2883e"/><path d="m22.187 31.983c-.321-.33-.674-.629-1.053-.894l1.326-1.121z" fill="#ffd5c2"/><path d="m27.19 46.11c.17 1.54.68 3.12.24 4.66 0 0-.32 2.04-2.57 2.81h-.01c-.07-1.26-.37-2.18-.76-2.84 1.42-2.33-.16-4.92-.36-7.34-.1-1.21.16-3.16 1.75-3.14 2.31.03 1.56 4.47 1.71 5.85z" fill="#ef9659"/><path d="m27.19 44.255c.024-1.783-.089-3.974-1.71-3.995-1.461-.018-1.795 1.621-1.762 2.827 1.295.311 2.196 1.34 3.472 1.168z" fill="#ffd5c2"/><path d="m63 59v4h-62v-4h2 3 4.03 5 4 4.98 8.49 1.5 18 1.5 4.5 3z" fill="#bfa599"/><g fill="#4d4d4d"><path d="m48.79 34.43c.14.5.21 1.03.21 1.57v3 3c0 1.12-.54 2.16-1.37 3h4.37v2.26c.11.04.22.08.32.13 2.2-4.91 5.25-7.07 5.68-7.35v-.06c-3.72-1.36-6.74-3.28-9.21-5.55z"/><path d="m32.29 28c-1.01 0-1.98-.15-2.9-.44 3.74-1.18 6.43-4.57 6.43-8.56s-2.69-7.38-6.43-8.56c.92-.29 1.89-.44 2.9-.44 2.35 0 4.5.84 6.14 2.23-.63-4.8-.38-8.23-.38-8.23h-12.05s1.12 15.75-7.59 27l-.04.15c.21.05.42.11.62.18l3.09-2.61c.7-.59 1.76-.01 1.64.9l-.83 6.1c.09.41.14.84.14 1.28 0 2.22-1.21 4.15-3 5.19 0 0 2.55 3.94 1.98 6.81 0 0 1.23.28 2.08 1.74 1.42-2.33-.16-4.92-.36-7.34-.1-1.21.16-3.16 1.75-3.14 2.31.03 1.56 4.47 1.71 5.85.17 1.54.68 3.12.24 4.66 0 0-.32 2.04-2.57 2.81h-.01c.08 1.37-.13 3.14-.84 5.42h8.49c-1.38 0-2.5-1.12-2.5-2.5 0-.69.28-1.32.73-1.77.08-.08.17-.16.27-.23v-3c0-1.95 1.26-3.62 3-4.24v-2.26h4.37c-.83-.84-1.37-1.88-1.37-3v-3-3c0-3.3 2.7-6 6-6 .78 0 1.53.15 2.21.43-1.87-2.54-3.26-5.28-4.29-8.01-1.41 3.27-4.73 5.58-8.63 5.58z"/><path d="m11.06 37.6h-.03c-1.52.92-3.19 1.73-5.03 2.4 0 0 3.56 2.22 5.93 7.85h.03c.11-2.67 2.05-5.66 2.05-5.66v-.01c-1.62-.94-2.75-2.62-2.95-4.58z"/></g><path d="m15.06 31.33c-1.96.68-3.45 2.34-3.89 4.39h-.01l-.83-6.1c-.12-.91.94-1.49 1.64-.9z" fill="#f2883e"/><path d="m11.589 29.969 1.328 1.122c-.38.266-.732.566-1.054.898z" fill="#ffd5c2"/><path d="m6 4v36 19h-3v-58h58v58h-3v-18.96c.03-.03.05-.04.05-.04-.02-.01-.03-.01-.05-.02v-35.98h-19.95-12.05z" fill="#9e7059"/><g><path d="m15.065 36.942c-.567 0-1.079-.279-1.389-.588-.195-.195-.195-.512 0-.707.195-.194.511-.195.704-.003.155.149.708.591 1.296.003.195-.195.512-.195.707 0s.195.512 0 .707c-.427.428-.889.588-1.318.588z" fill="#e25b00"/></g><g><path d="m19.065 36.942c-.567 0-1.079-.279-1.389-.588-.195-.195-.195-.512 0-.707.194-.194.51-.195.704-.003.155.149.707.591 1.296.003.195-.195.512-.195.707 0s.195.512 0 .707c-.427.428-.889.588-1.318.588z" fill="#e25b00"/></g><g><path d="m18.051 40.781c-.28 0-.533-.069-.756-.207-.101-.063-.188-.135-.265-.214-.076.079-.164.151-.265.214-.506.313-1.166.27-1.959-.127-.247-.124-.347-.424-.224-.671.124-.248.424-.345.671-.224.449.225.798.286.984.172.216-.131.29-.546.292-.727.001-.275.225-.498.5-.498.271 0 .492.216.5.485v.002.001.001.003.003.003c.002.178.076.593.292.725.187.114.536.053.984-.172.249-.123.547-.024.671.224.123.247.023.547-.224.671-.442.224-.845.336-1.201.336z" fill="#e25b00"/></g><path d="m19.71 43.79c0 1.48-1.2 2.68-2.68 2.68s-2.68-1.2-2.68-2.68c0-.46.12-.9.32-1.28.11.05.22.1.34.14.63.23 1.31.35 2.02.35.69 0 1.35-.11 1.96-.33.14-.05.27-.1.4-.16.2.38.32.82.32 1.28z" fill="#ffccb8"/><g><path d="m15.021 58.874c-.758 0-1.375-.589-1.375-1.313v-10.311c0-.207.168-.375.375-.375s.375.168.375.375v10.311c0 .31.28.563.625.563s.625-.252.625-.563v-10.311c0-.207.168-.375.375-.375s.375.168.375.375v10.311c0 .724-.617 1.313-1.375 1.313z" fill="#ef8035"/></g><g><path d="m19.051 58.874c-.758 0-1.375-.589-1.375-1.313v-10.311c0-.207.168-.375.375-.375s.375.168.375.375v10.311c0 .31.28.563.625.563s.625-.252.625-.563v-10.311c0-.207.168-.375.375-.375s.375.168.375.375v10.311c0 .724-.617 1.313-1.375 1.313z" fill="#ef8035"/></g><path d="m13.634 56.54v1.188c0 .654.617 1.188 1.371 1.188s1.371-.535 1.371-1.188v-1.188c-.873 0-1.869 0-2.742 0z" fill="#ffd5c2"/><path d="m17.664 56.54v1.188c0 .654.617 1.188 1.371 1.188s1.371-.535 1.371-1.188v-1.188c-.874 0-1.87 0-2.742 0z" fill="#ffd5c2"/></g></svg>