<svg viewBox="0 0 497 497" xmlns="http://www.w3.org/2000/svg"><g><path d="M270.069 103.151c-22.671-47.88-32.758-62.131-85.441-60.105 0 0-10.807-18.912-35.797-18.912s-35.797 18.912-35.797 18.912C63.822 41.153 0 77.709 0 418.926h414.246z" fill="#e9edf1"></path><path d="M402.376 237.019a90.734 90.734 0 0 0 13.028 4.593c21.434 5.783 57.647 12.308 62.211 17.317 6.629 7.274 19.385 63.91 19.385 168.777 0 21.46-47.04 58-47.04 58H348.91C206.756 443.33 194.356 266.203 200.985 258.928c4.564-5.009 40.777-11.533 62.211-17.317a90.561 90.561 0 0 0 13.582-4.84c17.683-7.956 107.538-7.729 125.598.248z" fill="#766d78"></path><path d="M432.984 410.086c1.442-3.15.48-14.745-.891-31.48-28.093 23.993-158.46 107.1-231.109-119.678-6.629 7.275-19.385 63.911-19.385 168.778 0 21.46 47.04 58 47.04 58h120.27c.001 0 79.778-66.229 84.075-75.62z" fill="#544f56"></path><path d="M302.927 188.398v29.574c0 70.919-17.083 128.33 36.373 128.33s36.373-57.411 36.373-128.33v-29.574z" fill="#e9edf1"></path><path d="M350.186 219.694s8.487 95.7 8.563 95.844c-9.494 20.205-4.83 30.763-19.449 30.763s-9.955-10.558-19.449-30.763c.057-.108 8.556-95.844 8.556-95.844z" fill="#df646e"></path><path d="m402.293 237.206-.002-.232c-17.998-7.974-26.619-19.003-26.619-19.003v18.912c0 70.919-36.373 109.418-36.373 109.418s-36.373-38.499-36.373-109.418v-18.912c-.001.002-8.469 10.843-26.15 18.798v.436s-11.953 35.906-11.953 53.593c0 29.068 74.711 87.807 74.711 87.807s74.711-58.739 74.711-87.807c.001-17.685-11.952-53.592-11.952-53.592z" fill="#544f56"></path><path d="M339.3 11.294c-38.235 0-69.23 26.386-69.23 51.437v40.42h138.46v-40.42c0-25.051-30.995-51.437-69.23-51.437z" fill="#523939"></path><path d="M408.53 103.151s-29.381-10.463-29.381-37.103c-16.927 0-36.28 4.015-53.278.499-14.201-2.937-23.075-11.575-26.421-25.646v25.147c0 26.64-29.381 37.103-29.381 37.103-13.1 0-16.886 8.136-16.886 18.839 0 10.704 8.312 24.672 17.775 24.672 5.311 39.688 33.884 74.194 68.341 74.194s63.03-34.505 68.341-74.194c10.553 0 17.775-13.968 17.775-24.672.001-10.704-3.785-18.839-16.885-18.839z" fill="#e3a76f"></path><path d="M107.245 485.706s-58.995-30.621-65.349-45.291-10.837-92.519-6.173-112.017c6.969-29.134 21.468-40.228 54.873-51.4 4.68-1.565 8.561-2.726 11.771-3.833 11.704-4.037 81.226-4.037 92.93 0 3.21 1.107 7.091 2.268 11.771 3.833 33.404 11.172 47.903 22.266 54.873 51.4 4.664 19.498.181 97.347-6.173 112.017-2.299 5.309-11.493 12.707-22.29 19.986-23.038-.195-43.059 25.305-43.059 25.305z" fill="#e0aea2"></path><path d="M207.067 409.58c-2.552 0-58.236 55.427-58.236 55.427s41.587-5.76 41.587 20.7c0 0 24.022-12.469 43.059-25.305 10.797-7.28 9.686-50.822-26.41-50.822zM116.844 246.18c0 19.624-2.774 22.949-14.478 26.986 0 0 14.907 16.833 46.465 16.833s46.465-16.833 46.465-16.833c-11.704-4.037-14.478-7.362-14.478-26.986z" fill="#d79b8c"></path><path d="M215.526 402.599s9.266-50.779 9.266-53.33c0-21.262-16.154-38.499-36.081-38.499-14.277 0-31.346 12.086-39.879 18.574-8.532-6.488-25.602-18.574-39.879-18.574-19.927 0-36.081 17.237-36.081 38.499 0 2.551 9.266 53.33 9.266 53.33zM90.907 421.655l57.925 43.351 57.924-43.351z" fill="#e9edf1"></path><path d="M215.526 402.599c0 13.867-11.241 25.107-25.107 25.107h-83.173c-13.867 0-25.107-11.241-25.107-25.107s11.241-25.107 25.107-25.107c6.347 0 12.14 2.36 16.56 6.244a25.157 25.157 0 0 1-.081-1.93c0-13.866 11.241-25.107 25.107-25.107s25.107 11.241 25.107 25.107c0 .65-.033 1.292-.081 1.93a25.005 25.005 0 0 1 16.56-6.244c13.867-.001 25.108 11.241 25.108 25.107z" fill="#df646e"></path><path d="M79.601 254.116a7.5 7.5 0 0 1-7.5-7.5c0-4.177-1.486-5.507-5.785-8.735-4.689-3.522-11.776-8.846-11.776-20.729s7.087-17.206 11.776-20.729c4.298-3.229 5.785-4.558 5.785-8.734 0-4.143 3.358-7.5 7.5-7.5s7.5 3.357 7.5 7.5c0 11.882-7.086 17.205-11.776 20.728-4.299 3.229-5.785 4.559-5.785 8.735s1.486 5.507 5.785 8.735c4.689 3.522 11.776 8.846 11.776 20.729a7.5 7.5 0 0 1-7.5 7.5z" fill="#523939"></path><path d="M218.062 144.177s-30.995-69.23-69.23-69.23-69.23 69.23-69.23 69.23c-13.1 0-16.886 8.136-16.886 18.839s8.312 24.672 17.775 24.672c5.311 39.688 33.884 67.469 68.341 67.469s63.03-27.781 68.341-67.469c9.463 0 17.775-13.969 17.775-24.672s-3.786-18.839-16.886-18.839z" fill="#e0aea2"></path><path d="M218.062 135.088c0-38.235-30.995-69.23-69.23-69.23s-69.23 30.995-69.231 69.23v9.089l.889 21.756s6.385-13.392 17.173-22.052 24.782-18.302 24.782-43.231c0 24.929 31.595 34.571 55.953 43.231s38.774 16.627 38.774 43.808l.889-43.512.001-9.089z" fill="#523939"></path><path d="M339.3 195.152c-.001 0 0 0 0 0-10.83 0-20.961-4.685-28.526-13.19a7.5 7.5 0 1 1 11.208-9.969c4.68 5.262 10.831 8.159 17.318 8.159s12.639-2.897 17.319-8.159a7.498 7.498 0 0 1 10.588-.619 7.5 7.5 0 0 1 .62 10.588c-7.566 8.505-17.698 13.19-28.527 13.19z" fill="#c27e4e"></path><path d="M310.408 140.008a22.848 22.848 0 0 1-16.262-6.737c-2.929-2.929-2.928-7.678.001-10.606s7.678-2.929 10.606.001c1.51 1.511 3.518 2.343 5.654 2.343s4.144-.832 5.654-2.343a7.5 7.5 0 0 1 10.607 10.605 22.836 22.836 0 0 1-16.26 6.737zM368.192 140.008a22.848 22.848 0 0 1-16.262-6.737c-2.929-2.929-2.928-7.678.001-10.606s7.678-2.929 10.606.001c1.51 1.511 3.518 2.343 5.654 2.343s4.144-.832 5.654-2.343a7.497 7.497 0 0 1 10.606-.001 7.5 7.5 0 0 1 .001 10.606 22.837 22.837 0 0 1-16.26 6.737z" fill="#523939"></path><path d="M148.832 235.115c-.001 0 0 0 0 0-9.057 0-17.52-3.908-23.832-11.005a7.5 7.5 0 0 1 11.209-9.969c3.426 3.853 7.908 5.974 12.623 5.974s9.197-2.121 12.623-5.974a7.5 7.5 0 0 1 11.209 9.969c-6.312 7.096-14.776 11.005-23.832 11.005z" fill="#d5717f"></path><path d="M119.94 187.807c-5.89 0-11.778-2.241-16.261-6.725a7.5 7.5 0 0 1 10.606-10.607c3.117 3.119 8.191 3.119 11.31 0a7.5 7.5 0 0 1 10.607 10.607c-4.484 4.483-10.374 6.725-16.262 6.725zM177.723 187.807c-5.889 0-11.778-2.242-16.261-6.725a7.5 7.5 0 0 1 10.606-10.607c3.119 3.12 8.192 3.12 11.309 0a7.501 7.501 0 0 1 10.606 10.607c-4.482 4.483-10.371 6.725-16.26 6.725z" fill="#523939"></path><g fill="#444145"><circle cx="339.3" cy="452.203" fill="#444145" r="8.5"></circle><circle cx="339.3" cy="412.203" fill="#444145" r="8.5"></circle></g></g></svg>