<svg viewBox="0 0 512 512" xmlns="http://www.w3.org/2000/svg"><g><path d="M328 152h16l-8-16V72a32 32 0 0 0-32-32h-32v24l24 8v48a32 32 0 0 0 32 32z" fill="#61311c"></path><path d="m200 288 8 48-8 32h112l-8-32 8-48z" fill="#fec093"></path><path d="m200 368-16 40-106.082 12.48A33.876 33.876 0 0 0 48 454.124 33.876 33.876 0 0 0 81.876 488h348.248A33.876 33.876 0 0 0 464 454.124a33.876 33.876 0 0 0-29.918-33.644L328 408l-16-40z" fill="#b03b8d"></path><path d="M248 328h16v40h-16z" fill="#f5a76e"></path><path d="M392 396a11.984 11.984 0 0 1-12 12h-4l-80 40-64.23 14.6L120 488H80.55a32.55 32.55 0 0 1-1.12-65.08l144.89-5L280 416l4.12-16.48a16 16 0 0 1 19.4-11.64L320 392l32-8h28a12 12 0 0 1 12 12z" fill="#f7b488"></path><path d="M231.77 462.6 120 488H80.55a32.55 32.55 0 0 1-1.12-65.08l144.89-5z" fill="#bc4598"></path><path d="M463.98 456.614C463.363 474.238 448.442 488 430.807 488H392l-111.77-25.4L216 448l-80-40h-4a12 12 0 0 1-12-12 12 12 0 0 1 12-12h28l32 8 16.478-4.119a16 16 0 0 1 19.4 11.641L232 416l55.68 1.92 144.89 5a32.543 32.543 0 0 1 31.41 33.694z" fill="#fec093"></path><path d="M464 455.45A32.546 32.546 0 0 1 431.45 488H392l-111.77-25.4 7.45-44.68 144.89 5A32.541 32.541 0 0 1 464 455.45z" fill="#bc4598"></path><path d="M488 400v24l-24 8-12.55-4.18-8.6-2.87-2.04-.68-13.9-4.63L416 416l-24-28.8-2.67-3.2L336 320l-16-88-24 24h-80l-24-24-16 88-53.33 64-2.67 3.2L96 416l-10.91 3.64-13.9 4.63-2.04.68-8.6 2.87L48 432l-24-8v-24l32-16a16 16 0 0 1-16-16h48l48-64 19.11-101.9a31.993 31.993 0 0 1 31.45-26.1H232v-56h48v56h45.44a31.993 31.993 0 0 1 31.45 26.1L376 304l48 64h48a16 16 0 0 1-16 16z" fill="#fec093"></path><path d="M280 120v40.04a40.161 40.161 0 0 1-48 0V120z" fill="#f5a76e"></path><path d="M214 112h14V84.333h-14a13.918 13.918 0 0 0-14 13.834A13.917 13.917 0 0 0 214 112zM299 84.333h-13V112h13c7.18 0 13-6.193 13-13.833 0-7.64-5.82-13.834-13-13.834z" fill="#f7b488"></path><path d="M256 152c-17.631 0-33-11.345-37.276-27.517l-1.194-4.516a45.937 45.937 0 0 1-1.53-11.748v-22.4C216 64.932 233.909 48 256 48s40 16.932 40 37.818v22.4a45.937 45.937 0 0 1-1.53 11.748l-1.194 4.516C289 140.655 273.631 152 256 152z" fill="#fec093"></path><path d="M265.6 52.255S275.2 71.092 301.32 96A117.512 117.512 0 0 0 304 71.092C304 45.084 282.51 24 256 24s-48 21.084-48 47.092a117.542 117.542 0 0 0 .905 14.494c14.789-5.269 35.862-7.513 56.695-33.331z" fill="#6e3c26"></path><path d="M312 288a40.98 40.98 0 0 0 0-64l-8-48h-16l-3.293 16.466A29.276 29.276 0 0 1 256 216a29.276 29.276 0 0 1-28.707-23.534L224 176h-16l-8 48a40.98 40.98 0 0 0 0 64z" fill="#c378cb"></path></g></svg>