<svg viewBox="0 0 512 512" xmlns="http://www.w3.org/2000/svg"><g><path d="M437.019 74.981c-99.974-99.974-262.064-99.974-362.038 0s-99.974 262.064 0 362.038 262.064 99.974 362.038 0 99.975-262.064 0-362.038zM137.983 200.624c4.641-6.674 13.81-8.319 20.48-3.683 1.568 1.09 3.116 2.197 4.663 3.302 12.021 8.593 21.517 15.38 42.152 15.38 20.637 0 30.132-6.781 42.151-15.368 13.682-9.773 29.188-20.849 59.257-20.849 30.056 0 45.566 11.078 59.251 20.852a379.154 379.154 0 0 0 4.39 3.107c6.674 4.635 8.328 13.803 3.693 20.477-4.635 6.675-13.803 8.329-20.477 3.693a421.36 421.36 0 0 1-4.711-3.333c-12.022-8.588-21.52-15.371-42.146-15.371-20.637 0-30.132 6.781-42.152 15.368-13.682 9.773-29.188 20.849-59.255 20.849-30.07 0-45.581-11.085-59.264-20.867-1.442-1.031-2.885-2.063-4.348-3.08-6.673-4.637-8.321-13.806-3.684-20.477zM374.027 311.36c-4.629 6.68-13.795 8.341-20.474 3.711a409.968 409.968 0 0 1-4.741-3.349c-12.019-8.573-21.514-15.345-42.127-15.345-20.637 0-30.132 6.781-42.152 15.368-13.682 9.773-29.188 20.849-59.255 20.849-30.046 0-45.55-11.066-59.229-20.828-1.451-1.036-2.901-2.072-4.373-3.093-6.677-4.633-8.332-13.801-3.7-20.477 4.633-6.677 13.801-8.332 20.477-3.7 1.579 1.096 3.135 2.207 4.691 3.316 12.018 8.578 21.511 15.353 42.133 15.353 20.637 0 30.132-6.781 42.151-15.368 13.682-9.773 29.188-20.849 59.257-20.849 30.033 0 45.536 11.059 59.215 20.815a428.559 428.559 0 0 0 4.415 3.121c6.68 4.631 8.341 13.797 3.712 20.476z" fill="#2ba5f7"></path><path d="M117.164 74.979C161.778 30.36 218.769 5.672 277.088.88 204.733-5.066 130.335 19.622 74.985 74.979c-99.977 99.977-99.977 262.06 0 362.037 55.349 55.358 129.747 80.045 202.103 74.099-58.319-4.792-115.31-29.48-159.924-74.099-99.977-99.977-99.977-262.059 0-362.037z" fill="#2197d8"></path></g></svg>