<svg viewBox="0 0 495.998 496.003" xmlns="http://www.w3.org/2000/svg"><g><path d="m166.632 38.214-6.66-7.49c-33.52-37.75-91.5-41.19-129.25-7.67s-41.19 91.51-7.66 129.25l21.12 23.79c7.82 8.8 21.34 9.6 30.15 1.78 8.8-7.82 9.61-21.34 1.79-30.15l-21.12-23.78c-17.89-20.14-16.05-51.07 4.08-68.95 20.14-17.88 51.07-16.05 68.95 4.09l8.36 9.41 15.31-.03c18.268-5.055 23.384-15.234 14.93-30.25z" fill="#604533"></path><path d="M328.182 326.103c-6.88-5.5-13.74-10.17-20.38-14.1h-119.6c-6.64 3.93-13.5 8.6-20.38 14.1-5.206 45.334-16.035 85.79-31.7 122.05l-12.919 19.085 12.919 28.765h223.76l9.792-28.575-9.792-19.275c-13.474-37.299-24.213-77.781-31.7-122.05z" fill="#ffc05a"></path><path d="M282.852 323.963c9.844-3.91 15.866-.674 18.84 8.26-3.67 9.98-8.21 19.36-13.7 27.76-14.849 5.187-23.588 1.135-23.61-15.95h-.01c-4.724-8.311-3.438-13.385 5.61-14.3 1.124-9.473 7.099-11.602 12.87-5.77z" fill="#604533"></path><path d="M252.502 359.023v-.01h-9v.01c-12.371-.088-18.319 6.809-15.45 23.54 5.99 4.82 12.63 8.77 19.95 11.67 7.32-2.9 13.96-6.85 19.95-11.67 5.166-14.951.153-22.89-15.45-23.54zM226.022 329.733l-18.16-27.77h-.01c-3.802 10.117-10.125 14.315-19.65 10.04 10.196 5.312 12.509 11.969 6.072 20.119 3.682 10.018 8.239 19.429 13.738 27.861 10.89 2.433 18.659-3.076 23.61-15.95h.01c5.351-6.341 4.752-11.427-5.61-14.3z" fill="#604533"></path><path d="M267.952 382.563c-3.12-9.58-8.27-17.43-15.45-23.54v-.01c-1.788-11.55 2.971-15.634 11.87-14.98h.01c9.68 3.16 17.54 8.48 23.61 15.95-5.64 8.7-12.3 16.36-20.04 22.58zM243.502 359.013v.01c-7.18 6.11-12.33 13.96-15.45 23.54-7.74-6.22-14.4-13.88-20.04-22.58 6.07-7.47 13.93-12.79 23.61-15.95h.01c10.083-1.749 13.698 3.521 11.87 14.98z" fill="#ffdbac"></path><path d="M375.922 89.633c0-9.29-7.1-19.9-19.38-21.83-3.73-.59-8.04-.58-12.24.66-56.479-11.695-47.358 92.125 1.94 83.53l11.7 7.04s15.46-9.99 17.21-21.6c1.76-11.6-5.34-20.36-5.34-26.35 0-5.98 6.11-12.16 6.11-21.45zM139.462 67.804c-1.06.17-2.09.4-3.07.69-10.39 3.07-16.31 12.65-16.31 21.14 0 9.29 6.11 15.47 6.11 21.45 0 5.99-7.1 14.75-5.34 26.35 1.75 11.61 17.21 21.6 17.21 21.6l11.7-7.04c42.288 14.515 105.852-90.094 1.94-83.53-4.2-1.241-8.51-1.251-12.24-.66z" fill="#e4e4e4"></path><path d="M357.942 159.033c6.06 7.25 7.92 18.7 3.96 29.55-4.68 12.81-15.96 20.7-26.75 19.4h-.01c-28.177-17.912-30.39-38.182 11.1-55.99 1.21.24 2.35.55 3.53 1.02 3.23 1.29 5.98 3.38 8.17 6.02zM160.862 207.983h-.01c-10.79 1.3-22.07-6.59-26.75-19.4-3.96-10.85-2.1-22.3 3.96-29.55 2.19-2.64 4.94-4.73 8.17-6.02 1.18-.47 2.32-.78 3.53-1.02 41.056 16.334 38.91 36.832 11.1 55.99z" fill="#f7b6ad"></path><path d="M412.002 496.003h-52.12v-28.57c14.388-14.408 30.181-14.36 45.25-9.62 2.8 11.871 5.11 24.59 6.87 38.19zM136.122 467.434v28.57h-52.12c1.76-13.6 4.07-26.32 6.87-38.19 19.768-3.452 33.943 1.026 45.25 9.62z" fill="#fec4b9"></path><path d="M348.732 345.233c-13.324 32.855-6.355 67.438 11.15 102.92 17.523 10.501 30.079 4.622 40.21-9.22h.01c-12.54-41.83-31.27-72.01-51.37-93.7zM95.902 438.933h.01c7.205 15.611 20.365 19.369 40.21 9.22 10.616-37.077 17.988-72.851 11.15-102.92-20.1 21.69-38.83 51.87-51.37 93.7z" fill="#e7f2f1"></path><path d="M248.002 321.174c10.707-1.809 17.937 1.178 21.98 8.56-1.41 5.06-3.22 9.85-5.61 14.3-2.96 5.53-6.81 10.56-11.87 14.98a56.32 56.32 0 0 1-4.5 3.55 56.32 56.32 0 0 1-4.5-3.55c-5.06-4.42-8.91-9.45-11.87-14.98-2.39-4.45-4.2-9.24-5.61-14.3 5.442-7.005 12.631-10.161 21.98-8.56z" fill="#c3ddda"></path><g fill="#604533"><path d="M136.122 448.153v19.28c-17.96.75-32.96-2.57-45.25-9.62 1.53-6.55 3.22-12.84 5.03-18.88h.01c12.49 5.97 25.72 9.6 40.21 9.22zM400.102 438.933c1.81 6.04 3.5 12.33 5.03 18.88-12.29 7.05-27.29 10.37-45.25 9.62v-19.28c14.49.38 27.72-3.25 40.21-9.22zM350.432 397.633c1.5 17.45 4.3 34.2 9.45 50.52-14.25-11.69-22.19-28.31-26.55-49.17 4.258-8.152 9.847-9.194 17.1-1.35zM348.892 365.333h-.01c-8.635 12.006-15.067 9.804-19.89-2.77-.63-11.38-.81-23.55-.81-36.46 6.88 5.5 13.8 11.83 20.55 19.13 0 6.82.04 13.52.16 20.1z" fill="#604533"></path><path d="M162.672 398.983c-4.36 20.86-12.3 37.48-26.55 49.17 5.15-16.32 7.95-33.07 9.45-50.52 7.436-7.51 13.158-7.158 17.1 1.35zM167.822 326.103c0 12.91-.18 25.08-.81 36.46-5.47 8.075-11.973 9.783-19.89 2.77h-.01c.12-6.58.16-13.28.16-20.1 6.75-7.3 13.67-13.63 20.55-19.13z" fill="#604533"></path></g><path d="M491.032 369.523c-13.15-9.1-27.91-13.41-43.14-14.59l-31.94 28.36c-.63 15.26 1.91 30.44 9.39 44.57 3.47 6.57 12.16 8.18 17.71 3.25l49.12-43.62c5.55-4.929 4.97-13.75-1.14-17.97z" fill="#655f68"></path><path d="M329.402 221.503h-.01l-29.04 31.63 115.6 130.16c6.86-2.99 12.96-6.85 18.28-11.58 5.32-4.72 9.88-10.32 13.66-16.78z" fill="#604533"></path><path d="M326.052 94.383c2.33-16.41 10.08-23.49 18.25-25.92-12.11-37.85-41.69-68.46-96.3-68.46-38.93 0-65.15 15.56-81.37 38.21-6.54 9.12-11.45 19.38-14.93 30.25 8.17 2.43 15.92 9.51 18.25 25.92 3.56 25.11-20.19 57.61-20.19 57.61 2.09 21.43 5.97 41.14 11.1 55.99 2.17 6.29 4.57 11.71 7.15 16.01 9.24 15.4 30.34 35.55 55.99 44v14c-.716 19.01 7.912 31.641 24 39.18 15.446-7.018 24.485-19.235 24-39.18v-14c10.35-3.41 19.96-8.73 28.35-14.86 12.4-9.08 22.13-19.95 27.64-29.14.48-.79.95-1.62 1.4-2.49 2.06-3.84 3.98-8.39 5.75-13.52 5.13-14.85 9.01-34.56 11.1-55.99 0 0-23.75-32.5-20.19-57.61z" fill="#fec4b9"></path><path d="M288.002 298.423c-1.58-12-16-16.43-16-16.43l-24 39.18 21.98 8.56c5.15 2.01 10.96-.59 12.87-5.77 7.02-5.224 9.434-12.296 5.29-22 .05-1.25 0-2.44-.14-3.54zM224.002 281.993s-14.42 4.43-16 16.43c-.14 1.1-.19 2.29-.14 3.54-5.1 9.394-3.908 16.898 5.29 22 1.91 5.18 7.72 7.78 12.87 5.77l21.98-8.56z" fill="#e7f2f1"></path><path d="m350.432 397.633-17.1 1.35c-2.31-10.99-3.62-23.16-4.34-36.42l19.89 2.77h.01c.2 11.06.64 21.81 1.54 32.3zM147.122 365.333l19.89-2.77c-.72 13.26-2.03 25.43-4.34 36.42l-17.1-1.35c.9-10.49 1.34-21.24 1.54-32.3zM307.802 312.003c-1.68 6.93-3.71 13.71-6.11 20.22l-18.84-8.26c2.39-6.51 5.08-15.21 5.29-22h.01c6.19 2.67 12.8 5.97 19.65 10.04zM213.152 323.963l-18.88 8.16c-2.38-6.49-4.4-13.23-6.07-20.12 6.85-4.07 13.46-7.37 19.65-10.04h.01c.21 6.79 2.9 15.49 5.29 22z" fill="#ffdbac"></path><path d="M272.002 267.993v14l-2.09 3.41c-26.13 9.51-45.91-4.77-45.91-4.77v-12.64c7.66 2.52 15.72 4 24 4s16.34-1.48 24-4z" fill="#f7b6ad"></path><path d="m147.262 345.243.01-.01c0 6.82-.04 13.52-.16 20.1-.2 11.06-.64 21.81-1.54 32.3-1.5 17.45-4.3 34.2-9.45 50.52-5.84.15-11.48-.35-16.94-1.39 8.09-51.04 27.7-100.55 28.08-101.52z" fill="#d6eae8"></path><path d="M136.122 448.153v19.28c-6.91.29-13.38-.03-19.43-.93.59-6.54 1.44-13.15 2.49-19.74 5.46 1.04 11.1 1.54 16.94 1.39z" fill="#543927"></path><path d="M136.122 467.433v28.57h-20.1c-.56-9.4-.26-19.36.67-29.5 6.05.9 12.52 1.22 19.43.93zM381.902 466.083c.97 10.21 1.25 20.3.6 29.92h-22.62v-28.57c7.91.33 15.24-.13 22.02-1.35z" fill="#f7b6ad"></path><path d="M379.272 446.263c1.11 6.59 2.01 13.23 2.63 19.82-6.78 1.22-14.11 1.68-22.02 1.35v-19.28c6.72.18 13.17-.51 19.39-1.89z" fill="#543927"></path><path d="M348.742 345.243c.41.95 21.86 49.59 30.53 101.02-6.22 1.38-12.67 2.07-19.39 1.89-5.15-16.32-7.95-33.07-9.45-50.52-.9-10.49-1.34-21.24-1.54-32.3-.12-6.58-.16-13.28-.16-20.1l.01.01z" fill="#d6eae8"></path><path d="M276.416 110.796a4.006 4.006 0 0 0 4.619 3.259c.104-.019 10.554-1.727 17.782 3.368a3.999 3.999 0 1 0 4.609-6.539c-9.985-7.038-23.211-4.809-23.769-4.71a3.996 3.996 0 0 0-3.241 4.622zM194.905 118.154c.796 0 1.601-.237 2.301-.73 7.229-5.094 17.679-3.387 17.782-3.368a4.001 4.001 0 0 0 1.378-7.881c-.559-.1-13.784-2.328-23.769 4.71a4 4 0 0 0 2.308 7.269z" fill="#e4e4e4"></path><path d="M258.914 166.447c-7.194 2.053-14.609 2.053-21.805 0a4 4 0 1 0-2.194 7.693 47.79 47.79 0 0 0 13.097 1.854c4.38 0 8.786-.624 13.098-1.854a4 4 0 1 0-2.196-7.693z" fill="#ad6a6a"></path><path d="M220.645 77.86c.105-.041 10.707-4.076 27.366-4.076 16.66 0 27.261 4.035 27.367 4.076a4.001 4.001 0 0 0 2.915-7.451c-.481-.188-11.995-4.626-30.282-4.626s-29.8 4.438-30.281 4.626c-2.054.807-3.063 3.121-2.261 5.176s3.122 3.074 5.176 2.275zM248.012 83.194c-13.846 0-22.627 3.719-22.994 3.877a4 4 0 1 0 3.168 7.346c.075-.032 7.613-3.223 19.826-3.223 12.079 0 19.762 3.195 19.838 3.228a4.001 4.001 0 0 0 3.156-7.351c-.367-.158-9.148-3.877-22.994-3.877zM225.697 149.763c-9.46 6.543-13.354 16.038-11.573 28.22a4.002 4.002 0 0 0 4.536 3.379 4 4 0 0 0 3.379-4.537c-1.323-9.047 1.361-15.747 8.208-20.481a4 4 0 0 0-4.55-6.581z" fill="#f7b6ad"></path><path d="M216.79 144.193a4 4 0 0 0 .205-7.998c-17.21-.465-23.532 9.069-25.829 17.121a4 4 0 1 0 7.694 2.195c2.274-7.975 7.991-11.571 17.93-11.318z" fill="#543927"></path><path d="m173.981 144.017 7.63 2.271a4.003 4.003 0 0 0 4.976-2.693 4 4 0 0 0-2.693-4.975l-7.63-2.271a3.996 3.996 0 0 0-4.975 2.693 3.999 3.999 0 0 0 2.692 4.975zM183.762 157.397a4.001 4.001 0 0 0-5.287-2.013l-6.6 2.96a3.999 3.999 0 1 0 3.273 7.298l6.6-2.96a3.999 3.999 0 0 0 2.014-5.285zM193.211 167.048a4.001 4.001 0 0 0-5.584.906l-5.58 7.74a4 4 0 1 0 6.489 4.678l5.58-7.74a3.999 3.999 0 0 0-.905-5.584zM270.307 149.763a4 4 0 1 0-4.55 6.58c6.846 4.734 9.531 11.435 8.208 20.481a4 4 0 1 0 7.915 1.158c1.781-12.181-2.113-21.676-11.573-28.219z" fill="#f7b6ad"></path><path d="M304.839 153.316c-2.297-8.052-8.655-17.558-25.829-17.121a4 4 0 0 0-3.896 4.101c.056 2.209 1.911 3.948 4.101 3.897 9.957-.269 15.657 3.343 17.932 11.318a4.001 4.001 0 0 0 4.944 2.749 4 4 0 0 0 2.748-4.944z" fill="#543927"></path><path d="M313.25 146.455c.377 0 .762-.054 1.143-.167l7.63-2.271a4 4 0 0 0-2.282-7.668l-7.63 2.271a4 4 0 0 0 1.139 7.835zM324.129 158.344l-6.6-2.96c-2.018-.907-4.383-.003-5.287 2.013a4 4 0 0 0 2.013 5.286l6.6 2.96a3.992 3.992 0 0 0 5.286-2.012 4 4 0 0 0-2.012-5.287zM308.376 167.955a4 4 0 1 0-6.489 4.678l5.58 7.74a3.993 3.993 0 0 0 3.248 1.661 4 4 0 0 0 3.241-6.339z" fill="#f7b6ad"></path></g></svg>