<svg id="Layer_1" height="512" viewBox="0 0 64 64" width="512" xmlns="http://www.w3.org/2000/svg" data-name="Layer 1"><path d="m7.47 15.32 4.79 8.19c.18.31.51.5.86.5h.06c.38-.02.71-.26.86-.6l3.63-8.44-10.2.36z" fill="#f69e53"/><path d="m16.96 15.17 6.36 6.91c.19.21.46.32.74.32.07 0 .14 0 .21-.02.35-.07.63-.33.74-.66l2.7-8.1-10.75 1.56z" fill="#b7ce63"/><path d="m26.93 13.8 6.35 6.89c.19.21.46.32.74.32.08 0 .16 0 .24-.03.35-.09.63-.36.73-.71l2.5-9.03-10.54 2.55z" fill="#f69e53"/><path d="m36.69 11.43 6.11 5.97c.19.19.44.29.7.29.09 0 .17-.01.26-.03.34-.09.61-.36.7-.7l2.5-9.05-10.27 3.53z" fill="#b7ce63"/><path d="m46.23 8.05 7.08 5.85c.18.15.41.23.64.23.13 0 .26-.03.39-.08.34-.14.58-.47.61-.84l.8-9.45z" fill="#f69e53"/><path d="m6.43 26.42 1.82 9.31c.07.37.35.67.71.77.09.03.18.04.27.04.28 0 .54-.11.74-.32l6.21-6.77z" fill="#7f95d1"/><path d="m15.44 29.4 3.73 8.62c.14.32.44.55.79.6h.12c.31 0 .6-.14.79-.39l5.22-6.76-10.66-2.07z" fill="#ff82a9"/><path d="m25.3 31.4 3.72 8.6c.14.33.46.56.82.6h.1c.33 0 .63-.16.82-.43l5.33-7.7-10.8-1.07z" fill="#7f95d1"/><path d="m35.3 32.38 3.79 7.65c.16.32.47.53.82.55h.07c.33 0 .63-.16.82-.43l5.35-7.72-10.86-.05z" fill="#ff82a9"/><path d="m45.42 32.34 4.76 7.86c.18.3.51.48.86.48h.06c.37-.02.7-.25.85-.59l3.87-8.66z" fill="#7f95d1"/><path d="m8.51 53.17 4.59 8.31c.18.32.51.52.88.52h.04c.38-.01.71-.24.87-.58l3.83-8.35z" fill="#feda6a"/><path d="m18 53.25 6.19 7.06c.19.22.47.34.75.34.06 0 .12 0 .19-.02.35-.07.63-.31.75-.64l2.9-8.03z" fill="#a3daff"/><path d="m28 52.14 6.18 7.04c.19.22.47.34.75.34.07 0 .14 0 .21-.02.36-.08.64-.34.75-.69l2.72-8.97-10.6 2.29z" fill="#feda6a"/><path d="m37.82 50.01 5.96 6.12c.19.2.45.3.72.3.08 0 .16 0 .24-.03.34-.08.62-.34.72-.68l2.72-8.99-10.35 3.27z" fill="#a3daff"/><path d="m47.44 46.87 6.94 6.02c.18.16.42.24.66.24.12 0 .25-.02.37-.07.35-.14.59-.45.63-.82l1.03-9.43-9.62 4.06z" fill="#feda6a"/><path d="m11.12 10.5-.81-.77c-.28-.27-.67-.39-1.06-.33-1 .17-2.04-.15-2.77-.85l-.81-.77 1.38-1.45.81.77c.28.27.67.39 1.06.32 1-.17 2.03.15 2.77.85l.81.77-1.38 1.45z" fill="#369"/><path d="m22.56 7.83-1.12-1.65.92-.63c.32-.22.52-.58.54-.97.05-1.01.57-1.96 1.41-2.52l.92-.63 1.13 1.65-.92.63c-.32.22-.52.58-.54.96-.05 1.01-.58 1.96-1.41 2.53l-.92.63z" fill="#ffc857"/><path d="m57.76 19.83-1.12-1.65.92-.63c.32-.22.52-.58.54-.97.05-1.01.58-1.96 1.41-2.53l.92-.63 1.13 1.65-.92.63c-.32.22-.52.58-.54.97-.05 1.01-.57 1.96-1.41 2.53l-.92.63z" fill="#369"/><path d="m50.38 28-.13-2 1.12-.07c.39-.02.74-.23.96-.56.56-.85 1.49-1.39 2.5-1.46l1.12-.07.13 2-1.12.07c-.39.02-.74.23-.96.56-.55.85-1.49 1.39-2.5 1.46z" fill="#ffc857"/><path d="m44.16 24.44-.61-.94c-.21-.32-.57-.53-.96-.56-1.01-.07-1.94-.61-2.5-1.46l-.61-.94 1.68-1.09.61.94c.21.32.57.53.95.56 1.01.07 1.95.61 2.5 1.46l.61.94z" fill="#369"/><path d="m32.42 27.81-.91-.65c-.32-.23-.73-.29-1.09-.17-.97.31-2.04.14-2.86-.45l-.91-.65 1.16-1.63.91.65c.32.23.72.29 1.09.17.96-.31 2.03-.14 2.86.45l.91.65z" fill="#ffc857"/><path d="m3.68 38.81-1.75-.97.54-.98c.19-.34.2-.75.05-1.1-.42-.92-.37-2 .12-2.89l.54-.98 1.75.97-.54.98c-.19.34-.2.75-.04 1.1.42.92.37 2.01-.12 2.89l-.54.98z" fill="#ffc857"/><path d="m8.52 48.94-.7-1.88 1.05-.39c.36-.13.65-.44.76-.81.29-.97 1.03-1.76 1.98-2.11l1.05-.39.7 1.88-1.05.39c-.36.13-.65.44-.76.81-.29.97-1.03 1.76-1.98 2.11z" fill="#369"/><path d="m46.52 60.94-.7-1.88 1.05-.39c.36-.13.65-.44.76-.81.29-.97 1.03-1.76 1.98-2.11l1.05-.39.7 1.88-1.05.39c-.36.13-.65.44-.76.81-.29.97-1.03 1.76-1.98 2.11z" fill="#ffc857"/><path d="m2.52 61.94-.7-1.88 1.05-.39c.36-.13.65-.44.76-.81.29-.97 1.03-1.76 1.98-2.11l1.05-.39.7 1.88-1.05.39c-.36.13-.65.44-.76.81-.29.97-1.03 1.76-1.98 2.11z" fill="#369"/><path d="m26.57 45.39-1.01-.49c-.35-.17-.76-.16-1.11.01-.9.46-1.98.48-2.89.04l-1.01-.49.87-1.8 1.01.49c.35.17.76.16 1.11-.01.9-.46 1.98-.48 2.89-.04l1.01.49z" fill="#ffc857"/><path d="m42.59 45.68-1.18-1.61.9-.66c.31-.23.5-.6.51-.98.01-1.01.51-1.97 1.33-2.57l.9-.66 1.18 1.61-.9.66c-.31.23-.5.6-.51.98-.01 1.01-.51 1.98-1.32 2.57l-.9.66z" fill="#369"/><path d="m38.65 4c-.32 0-.65-.05-.96-.15l-1.07-.33.6-1.91 1.07.33c.37.11.78.05 1.09-.18.82-.59 1.89-.76 2.86-.46l1.07.33-.6 1.91-1.07-.33c-.37-.12-.78-.05-1.09.18-.56.4-1.22.61-1.89.61z" fill="#ffc857"/><g fill="#354458"><path d="m9.79 15.82c-1.29 0-2.58-.03-3.88-.08-.56-.02-.99-.5-.96-1.06.03-.55.49-.96 1.04-.94 17.54.7 34.81-3.48 50.09-12.12.48-.27 1.08-.11 1.35.36.28.48.11 1.11-.37 1.38-14.48 8.2-30.71 12.46-47.27 12.46z"/><path d="m40.05 33.02c-12.01 0-23.94-2.26-35.23-6.72-.52-.2-.77-.8-.56-1.32.21-.51.78-.75 1.29-.55 16.32 6.45 34.01 8.2 51.29 5.07.54-.1 1.05.25 1.16.79.11.55-.26 1.08-.81 1.18-5.69 1.03-11.42 1.54-17.13 1.54z"/><path d="m13.2 53.76c-2.08 0-4.17-.07-6.26-.2-.56-.04-.98-.52-.93-1.08.04-.55.51-.95 1.06-.92 17.52 1.14 34.89-2.61 50.38-10.88.48-.26 1.08-.08 1.34.4.27.49.09 1.11-.41 1.37-13.96 7.45-29.43 11.31-45.17 11.31z"/></g><rect fill="#a3e7fc" height="2" rx="1" width="2" x="3" y="4"/><rect fill="#f17d80" height="2" rx="1" width="2" x="17" y="9"/><rect fill="#de3c3c" height="2" rx="1" width="2" x="14" y="2"/><rect fill="#de3c3c" height="2" rx="1" width="2" x="30" y="6"/><rect fill="#a3e7fc" height="2" rx="1" width="2" x="51" y="16"/><rect fill="#a3e7fc" height="2" rx="1" width="2" x="18" y="24"/><rect fill="#de3c3c" height="2" rx="1" width="2" x="3" y="19"/><rect fill="#de3c3c" height="2" rx="1" width="2" x="33" y="43"/><rect fill="#f17d80" height="2" rx="1" width="2" x="20" y="48"/><rect fill="#a3e7fc" height="2" rx="1" width="2" x="2" y="51"/><rect fill="#f17d80" height="2" rx="1" width="2" x="55" y="56"/><rect fill="#a3e7fc" height="2" rx="1" width="2" x="40" y="60"/><rect fill="#f17d80" height="2" rx="1" width="2" x="29" y="58"/><rect fill="#b7ce63" height="2" rx="1" width="2" x="13" y="38"/><rect fill="#b7ce63" height="2" rx="1" width="2" x="2" y="41"/><rect fill="#de3c3c" height="2" rx="1" width="2" x="58" y="24"/><rect fill="#de3c3c" height="2" rx="1" width="2" x="40" y="27"/><rect fill="#f17d80" height="2" rx="1" width="2" x="28" y="20"/><rect fill="#f17d80" height="2" rx="1" width="2" x="45" y="2"/><rect fill="#b7ce63" height="2" rx="1" width="2" x="60" y="47"/></svg>