<svg viewBox="0 0 59 45" xmlns="http://www.w3.org/2000/svg"><g><g fill="none"><path d="M47 33.9c-.34.49-6.3 9-17 10-11 1-8.5-4.44-19.5-6-5.3-.75-8.11.15-9.13.81a.89.89 0 0 1-1.1-1.39c2-1.88 6.87-4.95 11.73-8.42L33 21z" fill="#464f5d"></path><path d="M41 4.63c0-.48.1-.86.1-1.07 0-3.2-5.64-3.59-6-.31l-.09.84z" fill="#2c3e50"></path><path d="M58.16 26.11c0 9.82-1.91 8.48-7.46 8-7-.61-6.71.5-25.7-4.25-4-1-9.63-1.68-13-1 0 0 .76-9.45 5.38-16.06C23.61 3.88 38 3.88 38 3.88a29 29 0 0 1 10.87 4.25c6.31 4.11 9.29 10.43 9.29 17.98z" fill="#33907c"></path><path d="M38 3.88C23.93 6.38 21.44 25 21.06 29.09a28.32 28.32 0 0 0-9.06-.21s.76-9.45 5.38-16.06C23.61 3.88 38 3.88 38 3.88z" fill="#26b99a"></path><path d="M42 33.51c-8.17-1-16-3.69-20.95-4.42C21.44 25 23.93 6.38 38 3.88c11 5.69 5 26.37 4 29.63z" fill="#14a085"></path></g></g></svg>