<svg viewBox="0 0 24 24" xmlns="http://www.w3.org/2000/svg"><g><g fill="#4285f4"><path d="M6.735 22.2A6 6 0 0 1 2.5 11.957l8.485-8.485A1 1 0 0 1 12.4 4.886l-8.489 8.485a4 4 0 0 0 5.657 5.657l10.96-10.96a2.5 2.5 0 0 0-3.536-3.536l-8.839 8.839a1 1 0 0 0 .708 1.707.986.986 0 0 0 .707-.293l5.657-5.656a1 1 0 1 1 1.414 1.414L10.982 16.2a3 3 0 0 1-4.243 0 3 3 0 0 1 0-4.242l8.839-8.839a4.5 4.5 0 0 1 6.364 6.364l-10.96 10.96A5.956 5.956 0 0 1 6.739 22.2z" fill="#4285f4"></path><path d="M6.739 21.946a5.746 5.746 0 0 1-4.065-9.812l8.485-8.486a.75.75 0 1 1 1.061 1.061l-8.486 8.485A4.25 4.25 0 0 0 9.745 19.2l10.96-10.96a2.75 2.75 0 0 0 0-3.89 2.757 2.757 0 0 0-3.89 0l-8.838 8.844a1.25 1.25 0 0 0 1.768 1.768L15.4 9.306a.75.75 0 1 1 1.061 1.06l-5.656 5.656a2.75 2.75 0 0 1-3.89-3.888l8.84-8.834a4.25 4.25 0 1 1 6.011 6.011l-10.96 10.96a5.732 5.732 0 0 1-4.067 1.675z" fill="#4285f4"></path></g></g></svg>