<svg id="Capa_1" enable-background="new 0 0 497 497" height="512" viewBox="0 0 497 497" width="512" xmlns="http://www.w3.org/2000/svg"><g><path d="m462 476.587h-437c-13.807 0-25-11.193-25-25v-314.336c0-13.807 11.193-25 25-25h181.483l52.017 10 52.017-10h151.483c13.807 0 25 11.193 25 25v314.335c0 13.808-11.193 25.001-25 25.001z" fill="#efedef"/><path d="m250.238 436.587h-31.689l-72.378-10-72.377 10h-31.689v-234.749h208.133z" fill="#8ac9fe"/><path d="m206.483 112.252v17.857c0 28.728 23.289 52.017 52.017 52.017 28.728 0 52.017-23.289 52.017-52.017v-17.857z" fill="#d7d0d6"/><g><path d="m454.895 209.339h-162.641c-4.143 0-7.5-3.358-7.5-7.5s3.357-7.5 7.5-7.5h162.641c4.143 0 7.5 3.358 7.5 7.5s-3.358 7.5-7.5 7.5z" fill="#b5adb6"/></g><g><path d="m454.895 265.507h-162.641c-4.143 0-7.5-3.358-7.5-7.5s3.357-7.5 7.5-7.5h162.641c4.143 0 7.5 3.358 7.5 7.5s-3.358 7.5-7.5 7.5z" fill="#b5adb6"/></g><g><path d="m454.895 321.675h-162.641c-4.143 0-7.5-3.358-7.5-7.5s3.357-7.5 7.5-7.5h162.641c4.143 0 7.5 3.358 7.5 7.5 0 4.143-3.358 7.5-7.5 7.5z" fill="#b5adb6"/></g><path d="m472 112.252h-30c13.807 0 25 11.193 25 25v314.335c0 13.807-11.193 25-25 25h30c13.807 0 25-11.193 25-25v-314.335c0-13.808-11.193-25-25-25z" fill="#d7d0d6"/><ellipse cx="411.451" cy="393.143" fill="#6fd7a3" rx="43.444" ry="43.444" transform="matrix(.707 -.707 .707 .707 -157.483 406.089)"/><path d="m218.549 436.587h-144.755v-53.847c0-13.807 11.193-25 25-25h94.755c13.807 0 25 11.193 25 25z" fill="#685e68"/><path d="m146.171 387.74c-11.445 0-20.722-9.278-20.722-20.723v-57.193h41.445v57.193c0 11.445-9.278 20.723-20.723 20.723z" fill="#ffbd86"/><path d="m146.171 348.74c-23.249 0-42.096-18.847-42.096-42.096v-16.71c0-23.249 18.847-42.096 42.096-42.096 23.249 0 42.096 18.847 42.096 42.096v16.71c0 23.249-18.847 42.096-42.096 42.096z" fill="#fed2a4"/><path d="m248.5 164.695c-23.205 0-42.017-18.811-42.017-42.017v-92.265c0-5.523 4.477-10 10-10h62.033c5.523 0 10 4.477 10 10v92.265c.001 23.205-16.811 42.017-40.016 42.017z" fill="#fd8087"/><path d="m280.517 20.413h-20c5.523 0 10 4.477 10 10v92.265c0 19.758-13.641 36.322-32.017 40.809 3.206.783 6.553 1.207 10 1.207 23.205 0 42.017-18.811 42.017-42.017v-92.264c0-5.522-4.478-10-10-10z" fill="#fe646f"/><path d="m248.5 78.978c-8.284 0-15-6.716-15-15 0-8.284 6.716-15 15-15 8.284 0 15 6.716 15 15 0 8.284-6.716 15-15 15z" fill="#685e68"/><g><path d="m399.799 412.295c-1.919 0-3.839-.732-5.304-2.197-2.929-2.929-2.929-7.678 0-10.606l23.304-23.304c2.93-2.929 7.678-2.929 10.608 0 2.929 2.929 2.929 7.678 0 10.606l-23.304 23.304c-1.465 1.464-3.385 2.197-5.304 2.197z" fill="#efedef"/></g></g></svg>