<svg viewBox="0 0 512 512" xmlns="http://www.w3.org/2000/svg"><g><path d="m253.553 276.268 22.727-22.727a5.712 5.712 0 0 0 0-8.077l-15.998-15.998c-1.908-1.908-2.205-4.882-.743-7.15a123.33 123.33 0 0 0 16.892-40.82c.57-2.64 2.883-4.536 5.584-4.536h22.641a5.711 5.711 0 0 0 5.711-5.711v-32.14a5.711 5.711 0 0 0-5.711-5.711h-22.641c-2.701 0-5.013-1.896-5.584-4.536a123.33 123.33 0 0 0-16.892-40.82c-1.462-2.268-1.165-5.242.743-7.15l15.998-15.998a5.712 5.712 0 0 0 0-8.077L253.553 34.09a5.712 5.712 0 0 0-8.077 0l-15.998 15.998c-1.908 1.908-4.882 2.205-7.15.743a123.33 123.33 0 0 0-40.82-16.892c-2.64-.57-4.536-2.883-4.536-5.584V5.714a5.711 5.711 0 0 0-5.711-5.711h-32.14a5.711 5.711 0 0 0-5.711 5.711v22.641c0 2.701-1.896 5.013-4.536 5.584a123.342 123.342 0 0 0-40.82 16.892c-2.268 1.462-5.242 1.165-7.15-.743L64.903 34.087a5.712 5.712 0 0 0-8.077 0L34.099 56.814a5.712 5.712 0 0 0 0 8.077l15.998 15.998c1.908 1.908 2.205 4.882.743 7.15a123.33 123.33 0 0 0-16.892 40.82c-.57 2.64-2.883 4.536-5.584 4.536H5.723a5.711 5.711 0 0 0-5.711 5.711v32.14a5.711 5.711 0 0 0 5.711 5.711h22.641c2.701 0 5.013 1.896 5.584 4.536a123.35 123.35 0 0 0 16.892 40.82c1.462 2.268 1.165 5.242-.743 7.15l-15.998 15.998a5.712 5.712 0 0 0 0 8.077l22.727 22.727a5.712 5.712 0 0 0 8.077 0l15.998-15.998c1.908-1.908 4.882-2.205 7.15-.743a123.33 123.33 0 0 0 40.82 16.892c2.64.57 4.536 2.883 4.536 5.584v22.641a5.711 5.711 0 0 0 5.711 5.711h32.14a5.711 5.711 0 0 0 5.711-5.711V282c0-2.701 1.896-5.013 4.536-5.584a123.342 123.342 0 0 0 40.82-16.892c2.268-1.462 5.242-1.165 7.15.743l15.998 15.998a5.713 5.713 0 0 0 8.08.003z" fill="#596c76"></path><path d="m205.999 259.917 5.208 5.979a123.189 123.189 0 0 1-29.696 10.523c-2.646.566-4.541 2.883-4.541 5.581v22.643a5.715 5.715 0 0 1-5.715 5.715h-18.946a5.697 5.697 0 0 0 1.503-3.872v-28.74a5.785 5.785 0 0 1 4.582-5.653c14.457-3.12 27.547-4.659 40.377-12.928a5.779 5.779 0 0 1 7.228.752zM280.896 133.283h-20.841a5.785 5.785 0 0 1-5.653-4.582 124.734 124.734 0 0 0-17.082-41.29c-1.483-2.286-1.184-5.303.752-7.228l16.176-16.176a5.786 5.786 0 0 0 0-8.176l-15.26-15.26 6.487-6.487a5.73 5.73 0 0 1 8.083 0l22.725 22.735c2.224 2.224 2.224 5.838 0 8.073l-16.001 16.001c-1.905 1.905-2.204 4.881-.741 7.146a123.246 123.246 0 0 1 16.887 40.817 5.746 5.746 0 0 0 4.468 4.427z" fill="#465a61"></path><circle cx="155.189" cy="155.177" fill="#fdf6ec" r="50.81"></circle><path d="M191.118 191.11c-19.039 19.039-49.414 19.811-69.38 2.306 17.196 4.953 36.471.649 50.012-12.892 19.842-19.842 19.842-52.009 0-71.862a47.054 47.054 0 0 0-2.482-2.306 50.539 50.539 0 0 1 21.85 12.891c19.842 19.843 19.842 52.021 0 71.863z" fill="#fef1da"></path><path d="m441.691 469.823 28.12-28.12a7.066 7.066 0 0 0 0-9.994l-19.795-19.795c-2.361-2.361-2.728-6.041-.919-8.847a152.606 152.606 0 0 0 20.901-50.507c.706-3.267 3.567-5.612 6.909-5.612h28.014a7.067 7.067 0 0 0 7.067-7.067v-39.768a7.067 7.067 0 0 0-7.067-7.067h-28.014c-3.342 0-6.203-2.346-6.909-5.612a152.59 152.59 0 0 0-20.901-50.507c-1.809-2.806-1.442-6.486.919-8.847l19.795-19.795a7.066 7.066 0 0 0 0-9.994l-28.12-28.12a7.066 7.066 0 0 0-9.994 0l-19.795 19.795c-2.361 2.361-6.041 2.728-8.847.919a152.606 152.606 0 0 0-50.507-20.901c-3.267-.706-5.612-3.567-5.612-6.909v-28.014a7.067 7.067 0 0 0-7.067-7.067h-39.768a7.067 7.067 0 0 0-7.067 7.067v28.014c0 3.342-2.346 6.203-5.612 6.909a152.59 152.59 0 0 0-50.507 20.901c-2.806 1.809-6.486 1.442-8.847-.919l-19.795-19.795a7.066 7.066 0 0 0-9.994 0l-28.12 28.12a7.066 7.066 0 0 0 0 9.994l19.795 19.795c2.361 2.361 2.728 6.041.919 8.847a152.603 152.603 0 0 0-20.901 50.508c-.706 3.267-3.567 5.612-6.909 5.612h-28.014a7.067 7.067 0 0 0-7.067 7.067v39.768a7.067 7.067 0 0 0 7.067 7.067h28.014c3.342 0 6.203 2.346 6.909 5.612a152.59 152.59 0 0 0 20.901 50.507c1.809 2.806 1.442 6.486-.919 8.847l-19.795 19.795a7.066 7.066 0 0 0 0 9.994l28.12 28.12a7.066 7.066 0 0 0 9.994 0l19.795-19.795c2.361-2.361 6.041-2.728 8.847-.919a152.606 152.606 0 0 0 50.507 20.901c3.267.706 5.612 3.567 5.612 6.909v28.014a7.067 7.067 0 0 0 7.067 7.067h39.768a7.067 7.067 0 0 0 7.067-7.067V476.92c0-3.342 2.346-6.203 5.612-6.909a152.603 152.603 0 0 0 50.508-20.901c2.806-1.809 6.486-1.442 8.847.919l19.795 19.795a7.066 7.066 0 0 0 9.993-.001z" fill="#9facba"></path><g fill="#8d9ca8"><path d="M449.094 403.069c-1.802 2.801-1.442 6.487.927 8.845l19.79 19.791a7.071 7.071 0 0 1 0 9.998l-28.121 28.121a7.073 7.073 0 0 1-9.998 0l-6.806-6.806 22.612-22.622a7.071 7.071 0 0 0 0-9.998l-19.79-19.791a7.084 7.084 0 0 1-.916-8.855c10.111-15.692 17.082-29.521 20.892-47.201.71-3.264 3.573-5.612 6.909-5.612h17.412a7.143 7.143 0 0 0-2.008 3.625c-3.82 17.679-10.781 34.813-20.903 50.505zM472.829 291.729h-18.236c-3.336 0-6.199-2.337-6.909-5.612a152.503 152.503 0 0 0-20.892-50.506c-1.812-2.801-1.442-6.487.916-8.845l19.79-19.801a7.06 7.06 0 0 0 0-9.988l-21.304-21.304 5.499-5.509a7.071 7.071 0 0 1 9.998 0l28.121 28.121a7.071 7.071 0 0 1 0 9.998l-19.79 19.79c-2.368 2.368-2.729 6.044-.927 8.855 10.122 15.692 17.082 32.826 20.903 50.506a7.081 7.081 0 0 0 2.831 4.295zM511.987 300.111v39.766c0 3.903-3.161 7.074-7.064 7.074h-17.412a6.984 6.984 0 0 0 2.162-5.077v-43.071a7.071 7.071 0 0 0-2.965-5.756h18.215a7.062 7.062 0 0 1 7.064 7.064z" fill="#8d9ca8"></path></g><circle cx="319.984" cy="319.996" fill="#596c76" r="91.404"></circle><path d="M384.616 384.627c-28.018 28.018-69.699 34.052-103.596 18.081 29.325 6.312 61.153-1.925 83.94-24.712 35.699-35.699 35.699-93.567 0-129.266-7.681-7.681-16.382-13.715-25.68-18.081 16.619 3.563 32.425 11.8 45.337 24.712 35.698 35.699 35.698 93.567-.001 129.266z" fill="#465a61"></path><circle cx="319.984" cy="319.996" fill="#fdf6ec" r="52.491"></circle><path d="M357.103 357.114c-20.501 20.501-53.739 20.501-74.23 0a56.592 56.592 0 0 1-1.874-1.967c19.296 8.639 42.742 5.045 58.579-10.801 19.852-19.852 20.48-51.639 1.884-72.253a52.375 52.375 0 0 1 15.641 10.791c20.501 20.491 20.501 53.729 0 74.23z" fill="#fef1da"></path></g></svg>