<svg viewBox="0 0 512 512" xmlns="http://www.w3.org/2000/svg"><g><path d="m186 40-12 436 304 4-6-439z" fill="#fbf3db"></path><path d="M439.886 40.888 186 40l-12 436 263.08 3.462z" fill="#913b35"></path><path d="M45 10 34 502l380 10L402 0z" fill="#ecc97e"></path><g fill="#913b35"><path d="m124 356 191-3 2 35-196 3zM155 422l-3 33 132-2-2-33z" fill="#913b35"></path></g><path d="M271 140c-44 0-80 44-80 44 0 91 68 125 68 125s96-25 96-114c0 0-32-55-84-55zm-1 52s-5 16-14 16-18-13-18-13zm-1 54c-12-3-41-1-41-1s21-22 44-18c19.63 3.414 33 34 33 34s-24-12-36-15zm27-28c-5.906-5.062-1-21-1-21l26 22s-18 5-25-1z" fill="#913b35"></path><path d="M271 125s-6 123-96 139l-84-26 51-147z" fill="#ecc97e"></path><path d="M168 81c-52 0-84 55-84 55 0 89 96 114 96 114s68-34 68-125c0 0-36-44-80-44zm-32 55c12 0 18 11 18 11l-32 13s2-24 14-24zm37 71c-27 0-44-29-44-29s26 1 38 1 39-13 39-13-13 41-33 41zm4-63s7-12 16-12 18 20 18 20z" fill="#913b35"></path></g></svg>