<svg viewBox="0 0 64 64" xmlns="http://www.w3.org/2000/svg"><g><g><path d="M36.769 51h-9.538a12.158 12.158 0 0 0-11.288 7.643l-.05.124a2.009 2.009 0 0 0 1.5 2.713 70.989 70.989 0 0 0 29.229 0 2 2 0 0 0 1.493-2.7l-.051-.129A12.166 12.166 0 0 0 36.769 51z" fill="#62b5e8"></path><path d="M48.1 58.754a70.442 70.442 0 0 1-27.714-.274 2.009 2.009 0 0 1-1.5-2.713l.05-.124a12.142 12.142 0 0 1 1.314-2.437 12.144 12.144 0 0 0-4.314 5.437l-.05.124a2.009 2.009 0 0 0 1.5 2.713 70.989 70.989 0 0 0 29.229 0 2 2 0 0 0 1.493-2.7z" fill="#44a7d8"></path><path d="M35 45h-6v6l.106.211A3.236 3.236 0 0 0 32 53a3.236 3.236 0 0 0 2.894-1.789L35 51z" fill="#f7d1c6"></path><path d="M29 49.709A16.035 16.035 0 0 0 32 50a16.027 16.027 0 0 0 3-.291V45h-6z" fill="#f4b19f"></path><path d="M51 31H13l-1-6 4-9h32l4 9z" fill="#b26049"></path><path d="M15 28h2v8h-2a4 4 0 0 1-4-4 4 4 0 0 1 4-4zM49 36h-2v-8h2a4 4 0 0 1 4 4 4 4 0 0 1-4 4z" fill="#f4b19f"></path><path d="M32 49a16 16 0 0 1-16-16V16h32v17a16 16 0 0 1-16 16z" fill="#f7d1c6"></path><path d="M16 26.5a16.874 16.874 0 0 0 7.95-4.449L26 20l-.46 3.221a2 2 0 0 0 2.874 2.072 10.879 10.879 0 0 0 4.19-3.7L35 18l-.594 5.346a2 2 0 0 0 2.882 2.01l.413-.207a10.886 10.886 0 0 0 3.841-3.205L43 20a7 7 0 0 0 5 6.706V16H16z" fill="#f4b19f"></path><path d="M32 1a20.3 20.3 0 0 0-20.147 22.822L12 25a16.9 16.9 0 0 0 11.95-4.95L26 18l-.46 3.221a2 2 0 0 0 2.874 2.072 10.879 10.879 0 0 0 4.19-3.7L35 16l-.594 5.346a2 2 0 0 0 2.882 2.01l.413-.207a10.886 10.886 0 0 0 3.841-3.205L43 18a7 7 0 0 0 7 7h2l.147-1.178A20.3 20.3 0 0 0 32 1z" fill="#c67a60"></path><ellipse cx="25.5" cy="31" fill="#7a838b" rx="1.5" ry="2"></ellipse><ellipse cx="38.5" cy="31" fill="#7a838b" rx="1.5" ry="2"></ellipse><ellipse cx="32" cy="43" fill="#f96464" rx="4" ry="6"></ellipse><path d="M38 15h-3a18 18 0 0 1-15.832-9.429 20.262 20.262 0 0 0-7.315 18.251L12 25a16.9 16.9 0 0 0 11.95-4.95L26 18l-.46 3.221a2 2 0 0 0 2.874 2.072 10.879 10.879 0 0 0 4.19-3.7L35 16l-.594 5.346a2 2 0 0 0 2.882 2.01l.413-.207a10.886 10.886 0 0 0 3.841-3.205L43 18a7 7 0 0 0 7 7h2l.147-1.178A20.171 20.171 0 0 0 49.433 10.9 17.924 17.924 0 0 1 38 15z" fill="#b26049"></path><ellipse cx="32" cy="46" fill="#ea5050" rx="3.461" ry="3"></ellipse><g fill="#c67a60"><path d="M29 26a1 1 0 0 0-1-1 18.03 18.03 0 0 0-8.025 1.9l-.422.21a1 1 0 0 0 .894 1.79l.422-.211A16.021 16.021 0 0 1 28 27a1 1 0 0 0 1-1zM36 27a16.021 16.021 0 0 1 7.131 1.684l.422.211a1 1 0 1 0 .894-1.79l-.422-.21A18.03 18.03 0 0 0 36 25a1 1 0 0 0 0 2z" fill="#c67a60"></path></g></g></g></svg>