<svg viewBox="0 0 64 64" xmlns="http://www.w3.org/2000/svg"><g><g><path d="M63 59v4c-13 0-19-3-19-3s-3 2-15 2S4 52 4 52H1v-3l10-39 17-9 7 9-3.16 2.81-3.15 2.8L26 18l-2-3c0 2-5 2-5 2l2.53 17.68c8.62-5.14 14.27-2.37 17.6 1.15C49.12 22.1 63 34 63 34z" fill="#ffdaaa"></path><path d="m23 6 6.745 8.672 2.095-1.862L35 10l-7-9-17 9-.698 2.723zM39.13 35.83c-3.33-3.52-8.98-6.29-17.6-1.15l-1.983-13.86L19 17c0 2-5 5-5 5l2.53 17.68c8.62-5.14 14.27-2.37 17.6 1.15C44.12 27.1 58 39 58 39v23.838c1.538.1 3.2.162 5 .162V34s-13.88-11.9-23.87 1.83z" fill="#ffb680"></path><path d="M29 59c-7.278 0-13.384-5.019-13.641-5.231l1.281-1.538C16.7 52.279 22.459 57 29 57a34.8 34.8 0 0 0 11.63-1.929l.741 1.858A36.162 36.162 0 0 1 29 59zM63 60a35.1 35.1 0 0 1-14.447-3.1l.893-1.79A33.7 33.7 0 0 0 63 58zM44.8 38.6l-1.6-1.2c.338-.451 3.4-4.4 6.8-4.4a8.646 8.646 0 0 1 5.707 2.293l-1.414 1.414A6.715 6.715 0 0 0 50 35c-2.042 0-4.446 2.6-5.2 3.6z" fill="#eb975d"></path><g fill="#f2f6fc"><path d="M38 20h2v6h-2z" fill="#f2f6fc"></path><path d="M36 22h6v2h-6zM42 5h2v6h-2z" fill="#f2f6fc"></path><path d="M40 7h6v2h-6zM56 21h2v6h-2z" fill="#f2f6fc"></path><path d="M54 23h6v2h-6z" fill="#f2f6fc"></path></g></g></g></svg>