<svg id="Capa_1" enable-background="new 0 0 512 512" height="512" viewBox="0 0 512 512" width="512" xmlns="http://www.w3.org/2000/svg"><g><g><path d="m489.521 283.557c-2.805-5.987-2.471-12.972.892-18.664l1.8-3.046c3.944-6.674 3.676-15.026-.687-21.434l-.178-.261c-6.86-10.076-10.529-21.984-10.529-34.173v-49.476l-105.871-43.615-83.618 43.615-7.297 49.476c0 12.19-10.35 34.434-10.35 34.434-4.363 6.408-4.63 14.76-.687 21.434l1.8 3.046c3.363 5.692 3.697 12.677.892 18.664 0 0-11.643 28.491 3.006 28.491h192.712c14.65 0 24.33-15.227 18.115-28.491z" fill="#a0522d"/></g><g><path d="m282.629 283.557c2.805-5.986 2.471-12.972-.892-18.664l-1.8-3.046c-3.944-6.674-3.676-15.026.687-21.434l.178-.261c6.86-10.076 10.529-21.983 10.529-34.173v-49.476l-7.647-9.101-14.401 9.101v49.476c0 12.19-3.669 24.097-10.529 34.173l-.178.261c-4.363 6.408-4.63 14.76-.687 21.434l1.8 3.046c3.363 5.692 3.697 12.678.892 18.664-6.215 13.265 3.465 28.491 18.114 28.491h22.048c-14.648 0-24.329-15.227-18.114-28.491z" fill="#783e22"/></g><g><g><path d="m403.278 308.862h-41.714l-5.373-43.861 47.087 5.198z" fill="#d29771"/></g><g><path d="m346.824 234.137v74.725h14.74v-25.734c0-6.35 5.147-11.497 11.497-11.497h16.179c4.81 0 9.505-.495 14.038-1.432v-36.062z" fill="#ba7e5d"/></g><g><path d="m512 454.14v-102.269c0-11.311-6.638-21.57-16.956-26.205l-91.766-41.225-12.658 10.951c-8.939 7.733-22.199 7.733-31.137 0l-12.658-10.951-93.431 17.043 28.799 35.585 12.308 138.849h144.537l9.738-23.118 5.715 23.118h35.731c12.027.001 21.778-9.75 21.778-21.778z" fill="#f37c7c"/></g><g><path d="m294.501 351.871c0-19.39-11.429-37.053-29.116-44.999l-11.991-5.387-35.759 6.523 20.468 167.911h56.398z" fill="#eb5468"/></g><g><path d="m165.175 308.862h-41.713l-6.01-43.861 47.723 5.198z" fill="#ffcdbe"/></g><g><path d="m108.722 234.137v74.725h14.74v-25.734c0-6.35 5.147-11.497 11.497-11.497h16.179c4.81 0 9.505-.495 14.038-1.432v-36.062z" fill="#ebae9d"/></g><g><path d="m273.897 475.919v-124.048c0-11.311-6.638-21.57-16.956-26.205l-91.766-41.225-12.658 10.951c-8.634 7.47-21.301 7.724-30.21.763-.314-.245-85.972 31.095-85.972 31.095-10.318 4.635-16.956 14.894-16.956 26.205l-4.419 100.685c0 12.028 13.222 21.779 25.25 21.779h17.3l7.726-26.976 7.726 26.976h127.972l7.726-36.445 7.726 36.445z" fill="#69d6f4"/></g><g><path d="m22.796 454.14v-94.706c0-11.311 6.638-21.57 16.956-26.205l82.571-37.094c-.315-.246-.637-.479-.942-.743l-12.658-10.951-91.766 41.225c-10.319 4.635-16.957 14.893-16.957 26.205v102.269c0 12.028 9.751 21.779 21.779 21.779h22.796c-12.029 0-21.779-9.751-21.779-21.779z" fill="#51c1ed"/></g><g><g><path d="m57.51 475.918v-56.084c0-4.267 3.459-7.726 7.726-7.726s7.726 3.459 7.726 7.726v56.084z" fill="#51c1ed"/></g><g><path d="m200.935 475.918v-56.084c0-4.267 3.459-7.726 7.726-7.726s7.726 3.459 7.726 7.726v56.084z" fill="#51c1ed"/></g></g><g><path d="m439.038 475.918v-56.084c0-4.267 3.459-7.726 7.726-7.726s7.726 3.459 7.726 7.726v56.084z" fill="#eb5468"/></g><g><path d="m59.5 280.782h10.337c6.726 0 12.179 5.453 12.179 12.179v15.962c0 10.151-7.552 18.538-17.344 19.849-.877.117-11.266-1.915-11.266-1.915-11.06 0-10.258-8.966-10.258-20.027v-15.962c-.001-6.727 9.625-10.086 16.352-10.086z" fill="#d29771"/></g><g><path d="m47.321 308.923v-15.962c0-6.726 5.453-12.179 12.179-12.179h-19.464c-6.726 0-12.179 5.453-12.179 12.179v15.962c0 11.06 8.966 20.027 20.027 20.027h14.105c.911 0 1.801-.082 2.679-.2-9.79-1.313-17.347-9.678-17.347-19.827z" fill="#ba7e5d"/></g></g><g><path d="m383.461 259.502-11.643-1.069c-36.551 0-52.013-28.376-52.013-64.927v-43.68c0-36.551 15.276-66.181 51.827-66.181h6.838c36.551 0 66.181 29.63 66.181 66.181v43.68c0 36.551-30.858 65.059-61.19 65.996z" fill="#d29771"/></g><g><path d="m322.811 193.506v-43.68c0-34.778 26.831-63.27 60.92-65.954-1.738-.137-3.488-.227-5.261-.227h-6.838c-36.551 0-66.181 29.63-66.181 66.181v43.68c0 36.551 29.63 66.181 66.181 66.181h6.838c1.773 0 3.523-.09 5.261-.227-34.088-2.684-60.92-31.176-60.92-65.954z" fill="#ba7e5d"/></g><g><path d="m345.976 186.411h-3.336c-4.268 0-7.726-3.459-7.726-7.726s3.459-7.726 7.726-7.726h3.336c4.268 0 7.726 3.459 7.726 7.726s-3.459 7.726-7.726 7.726z" fill="#a0522d"/></g><g><path d="m407.463 186.411h-3.336c-4.268 0-7.726-3.459-7.726-7.726s3.459-7.726 7.726-7.726h3.336c4.268 0 7.726 3.459 7.726 7.726s-3.459 7.726-7.726 7.726z" fill="#a0522d"/></g><g><path d="m480.82 144.991v11.51h-54.037c-13.564 0-26.348-6.338-34.56-17.134l-9.411-12.372c-3.902-5.13-11.62-5.13-15.522 0l-9.411 12.372c-8.212 10.796-20.996 17.134-34.56 17.134h-31.989l-4.491-11.51c0-55.21 24.549-82.994 81.4-98.742l16.828-1.138c49.549-.087 95.753 44.67 95.753 99.88z" fill="#a0522d"/></g><g><path d="m386.075 45.159c-1.73-.089-3.471-.135-5.222-.135h-11.603c-55.21 0-99.967 44.757-99.967 99.967v11.51h22.048v-11.51c0-53.458 41.962-97.115 94.744-99.832z" fill="#783e22"/></g><g><path d="m374.015 231.553c-6.403 0-12.815-1.552-18.617-4.675l-1.651-.89c-3.756-2.025-5.159-6.711-3.134-10.468 2.025-3.755 6.707-5.16 10.468-3.134l1.646.887c7.445 4.009 16.553 3.752 23.766-.673 3.636-2.23 8.393-1.09 10.626 2.547 2.23 3.637 1.091 8.394-2.547 10.626-6.269 3.846-13.408 5.78-20.557 5.78z" fill="#a0522d"/></g><g><path d="m72.168 191.695h-18.162c-10.193 0-18.456-8.263-18.456-18.456v-4.633c0-10.193 8.263-18.456 18.456-18.456l18.163-20.643v62.188z" fill="#ebae9d"/></g><g><path d="m201.729 120.389 18.163 29.762c10.193 0 18.456 8.263 18.456 18.456v4.633c0 10.193-8.263 18.456-18.456 18.456h-18.163z" fill="#ebae9d"/></g><g><path d="m144.327 257-10.919-1c-36.551 0-51.641-28.525-51.641-65.076l-1.392-44.173c0-36.551 16.408-66.181 52.959-66.181h7.227c36.551 0 66.181 29.63 66.181 66.181v44.173c.001 36.551-31.25 66.181-62.415 66.076z" fill="#ffcdbe"/></g><g><path d="m83.533 190.924v-44.173c0-35.011 27.191-63.653 61.605-66.006-1.514-.103-3.036-.175-4.576-.175h-7.227c-36.551 0-66.181 29.63-66.181 66.181v44.173c0 36.551 29.63 66.181 66.181 66.181h7.227c1.54 0 3.062-.072 4.576-.175-34.414-2.353-61.605-30.995-61.605-66.006z" fill="#ebae9d"/></g><g><path d="m107.792 178.791h-3.346c-4.267 0-7.726-3.459-7.726-7.726s3.459-7.726 7.726-7.726h3.346c4.267 0 7.726 3.459 7.726 7.726s-3.459 7.726-7.726 7.726z" fill="#a0522d"/></g><g><path d="m169.45 178.791h-3.345c-4.267 0-7.726-3.459-7.726-7.726s3.459-7.726 7.726-7.726h3.345c4.267 0 7.726 3.459 7.726 7.726s-3.459 7.726-7.726 7.726z" fill="#a0522d"/></g><g><path d="m182.226 122.016 7.062 19.562c1.857 5.144 6.739 8.572 12.208 8.572h19.602v-74.36c0-21.93-17.778-39.709-39.709-39.709h-68.727c-21.93 0-45.508 17.778-45.508 39.709 0 0 7.945 74.146 9.2 73.744 3.767-1.205 6.862-4.098 8.255-7.956l7.062-19.562c2.338-6.478 8.486-10.795 15.373-10.795h59.809c6.887 0 13.035 4.317 15.373 10.795z" fill="#8e868e"/></g><g><path d="m76.399 75.79c0-21.93 17.778-39.709 39.709-39.709h-23.6c-21.93 0-39.709 17.778-39.709 39.709v74.36h19.602c1.383 0 2.729-.221 3.998-.632z" fill="#766d78"/></g><g><path d="m136.992 224.833c-6.405 0-12.816-1.553-18.618-4.677l-1.646-.886c-3.757-2.022-5.163-6.708-3.141-10.465 2.022-3.759 6.707-5.167 10.466-3.141l1.646.886c7.449 4.008 16.557 3.755 23.769-.67 3.637-2.23 8.395-1.09 10.626 2.547s1.091 8.394-2.546 10.626c-6.27 3.845-13.409 5.78-20.556 5.78z" fill="#a0522d"/></g></g></svg>