<svg viewBox="0 0 64 64" xmlns="http://www.w3.org/2000/svg"><g><path d="m29 4 2 9h6l-5-9z" fill="#55d5f2"></path><path d="m56.38 18.405-.38-.38-2.719-2.72A11.276 11.276 0 0 0 45.306 12H13l6 6.004.247.246A12.79 12.79 0 0 0 28.293 22h26.598a2.106 2.106 0 0 0 1.488-3.595z" fill="#ed4720"></path><path d="M53.281 15.306A11.276 11.276 0 0 0 45.306 12H13l6 6.004 37 .022z" fill="#beedfc"></path><path d="M13 31h4v5h-4z" fill="#ed4720"></path><path d="M22 35H8L6 46h18z" fill="#c8f0fc"></path><path d="M15 35.5c0-.169.016-.334.025-.5H8L6 46h18l-.275-1.514A8.994 8.994 0 0 1 15 35.5z" fill="#78e6f9"></path><path d="M11 38h8v2h-8z" fill="#a7adaf"></path><path d="M18 2h-5v10h8z" fill="#78deef"></path><path d="M32 40h20v18H32z" fill="#4fb8c9"></path><path d="M10.674 61c2.167 0 2.167-2 4.335-2 2.165 0 2.165 2 4.33 2 1.746 0 2.1-1.286 3.3-1.79L27 47l-12-4-12 4 4.36 12.207C8.57 59.707 8.92 61 10.674 61z" fill="#606668"></path><path d="M16 43.333 15 43l-1 .333V59h2z" fill="#8c9193"></path><path d="M59 44h-7v14h10v-8z" fill="#78e6f9"></path><circle cx="55" cy="58" fill="#3f4e56" r="3"></circle><g fill="#8c9193"><path d="M24 15h1.999v2H24zM28 15h1.999v2H28zM32 15h1.999v2H32zM36 15h1.999v2H36zM53.982 16.007l-.7-.701c-.108-.108-.226-.203-.338-.306H44v2h9.982z" fill="#8c9193"></path></g><path d="m30.989 20-3.997 9 2.998 1 6.996-10z" fill="#55d5f2"></path><path d="M28 62a3.88 3.88 0 0 1-2.844-1.265 1.871 1.871 0 0 0-2.973 0 3.828 3.828 0 0 1-5.688 0 1.874 1.874 0 0 0-2.975 0 3.834 3.834 0 0 1-5.692 0 1.88 1.88 0 0 0-2.982 0A3.883 3.883 0 0 1 2 62v-2a1.943 1.943 0 0 0 1.49-.735 3.835 3.835 0 0 1 5.694 0 1.877 1.877 0 0 0 2.98 0 3.83 3.83 0 0 1 5.689 0 1.871 1.871 0 0 0 2.972 0 3.829 3.829 0 0 1 5.688 0A1.935 1.935 0 0 0 28 60z" fill="#4a98d3"></path><path d="M40.001 15H42v2h-1.999z" fill="#8c9193"></path><path d="M56 44v6h6l-3-6z" fill="#c8f0fc"></path><path d="M36 41c0-.338.032-.667.05-1H32v18h16.126A17.993 17.993 0 0 1 36 41z" fill="#1493b0"></path><path d="M15 5a7.968 7.968 0 0 1 .587-3H13v10h6.13A7.995 7.995 0 0 1 15 5z" fill="#55d5f2"></path><path d="M15.358 38H11v2h5.217a8.914 8.914 0 0 1-.86-2z" fill="#8c9193"></path><circle cx="40" cy="58" fill="#3f4e56" r="3"></circle></g></svg>