<svg viewBox="0 0 512 512" xmlns="http://www.w3.org/2000/svg"><g><path d="M478.261 261.244c0 9.209-7.463 16.676-16.67 16.676h-5.556v11.117H55.964V277.92h-5.556c-9.206 0-16.67-7.466-16.67-16.676s7.463-16.676 16.67-16.676h250.359a50.746 50.746 0 0 1-.314-5.559c0-27.628 22.39-50.026 50.009-50.026s50.009 22.397 50.009 50.026c0 1.88-.112 3.732-.314 5.559h61.437c9.204.001 16.667 7.466 16.667 16.676zm-33.339-105.609c-18.412 0-33.339 14.933-33.339 33.35 0 18.419 14.927 33.35 33.339 33.35 18.409 0 33.339-14.931 33.339-33.35 0-18.418-14.93-33.35-33.339-33.35zM417.14 88.934c9.205 0 16.67-7.466 16.67-16.675s-7.465-16.676-16.67-16.676c-9.206 0-16.67 7.466-16.67 16.676 0 9.209 7.464 16.675 16.67 16.675zm44.452-55.584c9.205 0 16.67-7.466 16.67-16.676C478.261 7.466 470.796 0 461.592 0c-9.206 0-16.67 7.466-16.67 16.676 0 9.208 7.465 16.674 16.67 16.674z" fill="#d19b3f"></path><path d="M389.357 233.452c0 12.279-9.951 22.233-22.226 22.233-12.275 0-22.226-9.954-22.226-22.233s9.951-22.233 22.226-22.233c12.275 0 22.226 9.954 22.226 22.233zm61.122-66.7c-9.206 0-16.67 7.466-16.67 16.676s7.464 16.674 16.67 16.674c9.205 0 16.67-7.466 16.67-16.674 0-9.21-7.465-16.676-16.67-16.676z" fill="#e9b84c"></path><path d="M5.565 345.218v15.718c0 19.38 15.761 35.148 35.133 35.148h15.265v72.669c0 23.787 19.455 43.246 43.233 43.246h313.608c23.779 0 43.232-19.46 43.232-43.246v-72.669H471.3c19.374 0 35.134-15.767 35.134-35.148v-15.718c0-19.38-15.762-35.148-35.134-35.148h-15.264v-43.268H55.964v43.268H40.698c-19.372.001-35.133 15.768-35.133 35.148zm450.471 28.632v-41.547H471.3c7.118 0 12.909 5.793 12.909 12.914v15.718c0 7.12-5.791 12.914-12.909 12.914h-15.264v.001zM27.792 345.218c0-7.12 5.79-12.914 12.908-12.914h15.264v41.547H40.698c-7.117 0-12.908-5.793-12.908-12.914v-15.72h.002z" fill="#8c9096"></path><path d="M5.565 345.218v15.718c0 19.38 15.761 35.148 35.133 35.148h15.265v72.669c0 23.787 19.455 43.246 43.233 43.246h313.608c23.779 0 43.232-19.46 43.232-43.246v-72.669H471.3c19.374 0 35.134-15.767 35.134-35.148v-15.718c0-19.38-15.762-35.148-35.134-35.148h-15.264v-43.268H189.321V444.67c0 12.279-9.951 22.233-22.226 22.233h-44.453c-12.276 0-22.226-9.954-22.226-22.233V266.802H55.964v43.268H40.698c-19.372.001-35.133 15.768-35.133 35.148zm450.471-12.913H471.3c7.118 0 12.909 5.793 12.909 12.914v15.718c0 7.12-5.791 12.914-12.909 12.914h-15.264v-41.546zM27.792 345.218c0-7.12 5.79-12.914 12.908-12.914h15.264v41.547H40.698c-7.117 0-12.908-5.793-12.908-12.914v-15.72h.002zM456.979 117.064c-1.412-5.975-7.401-9.675-13.371-8.261l-144.303 34.129-2.971-12.57c-4.458-18.861-23.424-30.575-42.278-26.115l-15.289 3.616c-9.109 2.155-16.846 7.748-21.787 15.752-4.941 8.003-6.476 17.428-4.323 26.537l2.97 12.57-144.304 34.132c-5.974 1.412-9.67 7.402-8.258 13.377 1.209 5.114 5.77 8.562 10.805 8.562.846 0 1.706-.098 2.566-.302l372.285-88.05c5.974-1.414 9.67-7.402 8.258-13.377zm-222.692 27.974c-.788-3.33-.218-6.79 1.604-9.739 1.822-2.951 4.659-5.009 7.991-5.797l15.29-3.616c6.924-1.638 13.894 2.666 15.534 9.596l2.971 12.568-40.418 9.56-2.972-12.572z" fill="#4d515a"></path></g></svg>