<svg viewBox="0 0 512 512" xmlns="http://www.w3.org/2000/svg"><g><path d="M402.7 230.414c0-9.832 7.968-17.805 17.804-17.805 9.832 0 17.805 7.973 17.805 17.805v4.133c0 22.629-14.27 42.797-35.61 50.328H179.617c-21.34-7.531-35.61-27.7-35.61-50.328v-4.133c0-9.832 7.97-17.805 17.806-17.805 9.832 0 17.804 7.973 17.804 17.805" fill="#e8b182"></path><path d="M334.75 395.672c57.7 15.101 103.55 59.5 120.715 116.328h-328.61c17.165-56.828 63.016-101.227 120.715-116.328" fill="#cee9f0"></path><path d="M268.652 395.672c-29.785 15.101-53.464 59.5-62.324 116.328h-79.473c17.165-56.828 63.016-101.227 120.715-116.328zm0 0" fill="#82c3d9"></path><path d="M335.148 323.762v65.984c0 24.297-19.699 43.988-43.988 43.988-24.297 0-43.988-19.691-43.988-43.988V337.38" fill="#e8b182"></path><path d="M405.316 79.734V259.79c0 31.524-12.777 60.063-33.43 80.727-20.663 20.656-49.202 33.433-80.73 33.433-63.047 0-114.16-51.113-114.16-114.16v-76.023c0-21.02 10.79-39.528 27.129-50.293" fill="#ffd0a6"></path><path d="m324.676 75.543-122.54 30.375 3.118 27.25-1.129.3C187.785 144.235 177 162.743 177 183.763v76.027c0 63.047 51.11 114.156 114.16 114.156-43.676 0-79.074-51.11-79.074-114.156v-66.941c0-19.903 31.621-47.422 85.2-36.282 53.573 11.145 27.39-81.023 27.39-81.023zm0 0" fill="#e8b182"></path><path d="M473.395 86.406c0 38.57-18.872 71.25-68.075 82.352-11.656 2.629-24.078 4.05-36.96 4.05-39.84 0-75.212-13.57-97.426-34.55-8.735 3.937-18.579 6.168-29 6.168-14.106 0-27.157-4.051-37.809-10.953C187.789 144.238 177 162.746 177 183.766v28.843c-16.41-26.886-21.879-46.43-21.879-61.718 0-30.575 21.879-44.082 21.879-65.063 0-32.363 29.074-58.598 64.934-58.598 10.757 0 20.894 2.38 29.828 6.555C294.027 13.238 329.012 0 368.359 0c67.27 0 105.036 38.688 105.036 86.406zm0 0" fill="#66486b"></path><path d="M301.11 272.828h-19.9a7.854 7.854 0 1 1 0-15.707h19.9a7.856 7.856 0 0 1 7.855 7.856c0 4.336-3.52 7.851-7.856 7.851zM291.16 319.945c-16.215 0-32.43-5.023-46.27-15.078a7.86 7.86 0 0 1-1.738-10.972 7.856 7.856 0 0 1 10.973-1.735c22.152 16.09 51.914 16.09 74.066 0a7.856 7.856 0 0 1 10.973 1.735 7.857 7.857 0 0 1-1.738 10.972c-13.836 10.055-30.051 15.078-46.266 15.078zm0 0" fill="#e8b182"></path><path d="M264.691 240.29a7.834 7.834 0 0 1-4.613-1.5 23.436 23.436 0 0 0-27.625 0 7.857 7.857 0 0 1-9.234-12.712 39.111 39.111 0 0 1 46.094 0 7.854 7.854 0 0 1 1.738 10.973 7.838 7.838 0 0 1-6.36 3.238zM354.477 240.29a7.814 7.814 0 0 1-4.61-1.5 23.442 23.442 0 0 0-27.629 0 7.857 7.857 0 0 1-9.234-12.712 39.117 39.117 0 0 1 46.098 0 7.857 7.857 0 0 1 1.734 10.973 7.833 7.833 0 0 1-6.36 3.238zm0 0" fill="#4f3554"></path><path d="M49.457 149.86s13.934-34.833 38.703-20.9c24.766 13.935 4.64 57.278-38.703 78.95-43.344-21.672-63.469-65.015-38.7-78.95 24.766-13.933 38.7 20.9 38.7 20.9zM87.16 259.707s8.965-22.414 24.906-13.445c15.938 8.965 2.989 36.855-24.906 50.804-27.89-13.949-40.844-41.84-24.902-50.804 15.937-8.969 24.902 13.445 24.902 13.445zm0 0" fill="#ffdee9"></path><path d="M270.934 138.258c-8.735 3.937-18.579 6.168-29 6.168-14.106 0-27.157-4.051-37.809-10.953C187.789 144.238 177 162.746 177 183.766v28.843c-16.41-26.886-21.879-46.43-21.879-61.718 0-30.575 21.879-44.082 21.879-65.063 0-32.363 29.074-58.598 64.934-58.598 10.757 0 20.894 2.38 29.828 6.555 15.355-14.168 36.761-24.863 61.48-30.14-38.847 9.582-78.781 72.894-62.308 134.613zm0 0" fill="#4f3554"></path><path d="M462.398 364.61s13.934-34.833 38.704-20.9c24.765 13.935 4.64 57.278-38.704 78.95-43.343-21.672-63.468-65.015-38.699-78.95 24.77-13.933 38.7 20.9 38.7 20.9zm0 0" fill="#ffdee9"></path><path d="M371.105 253.59h-13.964c-6.555 0-11.871 5.316-11.871 11.87 0 6.556 5.316 11.872 11.87 11.872h13.965c6.555 0 11.868-5.316 11.868-11.871 0-6.555-5.313-11.871-11.868-11.871zM225.176 253.59H211.21c-6.555 0-11.871 5.316-11.871 11.87 0 6.556 5.316 11.872 11.87 11.872h13.966c6.554 0 11.867-5.316 11.867-11.871 0-6.555-5.313-11.871-11.867-11.871zm0 0" fill="#ff7266"></path><path d="M300.234 345.164h-18.152a7.856 7.856 0 0 1 0-15.71h18.152a7.856 7.856 0 0 1 0 15.71zm0 0" fill="#e8b182"></path><path d="M143.723 37.621s21.668-54.176 60.195-32.504c38.523 21.672 7.223 89.086-60.195 122.793C76.305 94.203 45.008 26.785 83.53 5.117c38.52-21.672 60.192 32.504 60.192 32.504zm0 0" fill="#ffdee9"></path></g></svg>