<svg viewBox="0 0 497 497" xmlns="http://www.w3.org/2000/svg"><g><path d="M112 280c13 6 45.074 92.608 45.074 92.608 11.374 34.399 2.404 79.797-11.66 119.104-.697 1.948.758 3.993 2.826 3.993l13.289.977h152.722c1.424 0 2.654-1 2.938-2.396 6.151-30.155 16.101-71.945 62.252-65.69 21.879 2.965 43.38 6.569 53.764 4.869 14.8-2.422 29.552-8.927 33.88-26.509 2.807-11.404-1.309-17.867-4.328-23.263-1.627-2.908-.182-6.761 2.164-8.386 2.335-1.617 5.003-2.747 7.094-3.475 3.342-1.163 5.566-4.435 5.313-7.964-.214-2.991-1.684-6.606-6.159-10.113-.464-.363-.541-1.005-.157-1.452 1.341-1.562 4.698-5.207 10.366-9.727.069-.055.136-.109.202-.164 3.966-3.28 3.758-9.44-.351-12.541-6.474-4.887-21.232-17.989-2.272-23.819 12.293-3.781 18.021-9.757 18.042-18.906.017-7.844-4.975-12.346-11.519-17.383-11.231-8.647-20.62-17.706-28.102-31.025-1.873-3.333-2.143-7.384-.644-10.901 3.609-8.469 12.758-17.275 10.761-25.85-1.639-7.039-8.895-15.172-9.993-32.005-4.613-70.743-57.021-113.352-122.248-126.366-7.264-1.449-14.624-2.379-22.013-2.905l-5.461-.389L296.5 44.5 219 34z" fill="#c6805d"></path><path d="M359.08 169.86c0-50.05-19.5-95.628-51.3-129.538L219 34 112 280c9.592 4.427 25.16 52.735 32.664 77.761l-.004.009.007.001c2.664 8.886 4.313 14.839 4.313 14.839 11.38 34.4 8.09 80.77-5.97 120.08-.7 1.95.76 3.99 2.83 3.99l15.69.003c16.562-44.175 18.73-88.544 6.16-129.616-1.162-3.796 1.672-7.635 5.641-7.704 102.189-1.784 185.884-86.282 185.749-189.503z" fill="#ba7052"></path><path d="M339.079 169.857C339.079 76.223 263.174.318 169.54.318c-48.42 0-92.099 20.298-122.992 52.849 0 0-5.399 7.01-8.356 10.695C14.895 92.896 4.734 129.735 4.734 169.857c0 93.634 71.132 163.005 164.766 163.005 50.769 0 95.205-16.43 126.277-51.787 2.17-2.47 6.004-6.28 8.545-8.928a48.642 48.642 0 0 0 2.593-2.912c20.234-27.924 32.164-62.258 32.164-99.378z" fill="#f9f8f9"></path><path d="M307.05 269.05c-30.8 42.62-80.92 70.35-137.51 70.35C75.91 339.4 0 263.49 0 169.86c0-45.47 17.9-86.75 47.03-117.19C26.88 80.56 15 114.82 15 151.86c0 93.63 75.91 169.54 169.54 169.54 48.17 0 91.65-20.09 122.51-52.35z" fill="#e8e8e8"></path><path d="M264.799 108.111c1.265-7.494.509-15.674-3.03-24.01-4.191-9.872-12.446-17.552-22.561-21.115-11.947-4.209-23.535-3.016-33.022 1.749a1.931 1.931 0 0 1-2.471-.675c-7.299-11.149-19.894-18.517-34.215-18.517-14.315 0-26.906 7.363-34.206 18.504a1.933 1.933 0 0 1-2.493.664c-2.705-1.392-5.4-2.421-8.063-3.119 0 0-1.349.122-1.792.024-26.06-5.776-48.055 19.73-44.116 48.687a1.997 1.997 0 0 1-1.245 2.134c-15.255 6.092-26.048 20.995-26.048 38.431 0 17.759 9.641 27.196 25.367 33.058.883.326 1.59 2.463 1.532 3.404l-.302 1.271c-1.209 33.493 35.331 53.351 59.821 35.693 2.984-2.162 5.763-4.857 8.239-8.121 5.171 5.948 12.742 2.773 20.667 3.412 4.182.337 12.53 5.261 12.53 5.261 4.557-1.308 8.785-3.582 12.199-6.825.811-.77 2.096-.728 2.824.121 23.006 26.808 70.781 10.882 69.469-25.806l-.159-2.682c-.052-.873.487-1.659 1.307-1.963 15.796-5.84 27.589-21.001 27.589-38.795 0-17.644-11.051-32.698-26.605-38.644a1.953 1.953 0 0 1-1.216-2.141z" fill="#91dafa"></path><path d="M135.5 183.96c-15.044 0-28.348 7.595-36.285 19.149-.984 1.433-3.178 1.024-3.596-.663-.77-3.107-1.129-6.474-.999-10.106l.15-2.53c.06-.94-.49-1.82-1.38-2.15-15.72-5.86-27.01-21-27.01-38.76 0-17.44 10.79-32.34 26.05-38.43a2 2 0 0 0 1.24-2.14c-3.01-22.16 11.85-41.579 31.07-46.739-27.43-7.39-55.08 17.249-51.07 46.739a2 2 0 0 1-1.24 2.14c-15.26 6.09-26.05 20.99-26.05 38.43 0 17.76 11.29 32.9 27.01 38.76.89.33 1.44 1.21 1.38 2.15l-.15 2.53c-.518 14.488 6.68 25.724 16.999 32.381l.004.001c13.54 8.738 32.438 9.587 46.336-.432 2.98-2.16 5.76-4.85 8.23-8.12 7.9 9.09 21.622 12.016 33.202 8.676-1.609-22.81-20.681-40.886-43.891-40.886z" fill="#75cff9"></path><circle cx="135.5" cy="227.958" fill="#91dafa" r="27"></circle><circle cx="201.5" cy="275.958" fill="#91dafa" r="17.5"></circle><g fill="#f9f8f9"><circle cx="169.5" cy="147.542" fill="#f9f8f9" r="15"></circle><circle cx="229.5" cy="147.542" fill="#f9f8f9" r="15"></circle><circle cx="109.5" cy="147.542" fill="#f9f8f9" r="15"></circle></g></g></svg>