<svg viewBox="0 0 512 512" xmlns="http://www.w3.org/2000/svg"><g><path d="m223.567 105.874 15.92-1.664 40.153 384.148-15.92 1.664z" fill="#655a56"></path><path d="m399.888 107.592-1.57-13.311a48 48 0 0 0-37.933-41.376L226.079 25.082a16 16 0 0 0-10.05 1.186L91.891 84.593a48 48 0 0 0-27.258 49.07l1.571 13.311A16 16 0 0 0 83.97 160.99l47.67-5.626a16 16 0 0 0 14.014-17.765 16 16 0 0 0 17.765 14.014l55.614-6.564a16 16 0 0 0 14.014-17.765 16 16 0 0 0 17.765 14.015l55.614-6.564a16 16 0 0 0 14.014-17.765 16 16 0 0 0 17.765 14.014l47.67-5.626a16 16 0 0 0 14.014-17.765z" fill="#a06d5d"></path><path d="M16 384h480v16H16z" fill="#e7dcd5"></path><g fill="#776e6b"><path d="M344 440h16v40h-16zM408 440h16v40h-16zM311.845 494.998l7.96-79.997 15.92 1.584-7.96 79.997zM432.269 416.565l15.92-1.6 8.04 79.997-15.92 1.6zM55.97 494.988l7.96-79.997 15.92 1.584-7.96 79.997zM176.279 416.692l15.92-1.6 8.04 79.997-15.92 1.6zM96 440h16v40H96zM144 440h16v40h-16z" fill="#776e6b"></path></g><path d="M64 288v128a32 32 0 0 0 32 32h64a32 32 0 0 0 32-32V288z" fill="#b8c2c2"></path><path d="M142.31 194.02a32 32 0 0 0-28.62 0A32 32 0 0 0 96 222.643v6.968a32 32 0 0 0 9.373 22.628l6.627 6.627h32l6.627-6.627A32 32 0 0 0 160 229.61v-6.968a32 32 0 0 0-17.69-28.621z" fill="#a59f99"></path><path d="M64 312h128v16H64z" fill="#a7b2b1"></path><path d="M320 288v128a32 32 0 0 0 32 32h64a32 32 0 0 0 32-32V288z" fill="#b8c2c2"></path><path d="M320 312h128v16H320z" fill="#a7b2b1"></path><path d="M248 480h40v16h-40z" fill="#655a56"></path><path d="m320.44 116.969-2.813-23.835-87.394 10.314 2.813 23.835a16 16 0 0 0 17.765 14.015l55.614-6.564a16 16 0 0 0 14.015-17.765z" fill="#c69079"></path><path d="M472 64h-64V48h64a8 8 0 0 0 0-16h-16V16h16a24 24 0 0 1 0 48zM480 80h16v16h-16zM424 80h40v16h-40z" fill="#d6d8d3"></path><path d="M187.774 238.356 146.53 224.61a8 8 0 0 0-5.06 15.18l41.244 13.747a13.603 13.603 0 0 1 8.747 16.737 12.89 12.89 0 0 1-2.677 4.938 13.507 13.507 0 0 1-12.049 4.684l-25.727-3.216a7.98 7.98 0 0 1-2.775-.88L144 258.865h-32l-4.233 16.934a7.98 7.98 0 0 1-2.775.88l-25.727 3.216h-1.531a13.767 13.767 0 0 1-9.073-3.235A13.41 13.41 0 0 1 64 266.42a13.561 13.561 0 0 1 9.286-12.883l41.244-13.748a8 8 0 0 0-5.06-15.18l-41.244 13.748a29.58 29.58 0 0 0 13.024 57.415l25.727-3.215a23.894 23.894 0 0 0 6.312-1.69h29.422a23.894 23.894 0 0 0 6.312 1.69l25.727 3.215a29.58 29.58 0 0 0 13.024-57.415z" fill="#e8cbbf"></path><path d="M398.31 194.02a32 32 0 0 0-28.62 0A32 32 0 0 0 352 222.643v6.968a32 32 0 0 0 9.373 22.628l6.627 6.627h32l6.627-6.627A32 32 0 0 0 416 229.61v-6.968a32 32 0 0 0-17.69-28.621z" fill="#a59f99"></path><path d="M443.774 238.356 402.53 224.61a8 8 0 0 0-5.06 15.18l41.244 13.747a13.603 13.603 0 0 1 8.747 16.737 12.89 12.89 0 0 1-2.677 4.938 13.507 13.507 0 0 1-12.049 4.684l-25.727-3.216a7.98 7.98 0 0 1-2.775-.88L400 258.865h-32l-4.233 16.934a7.98 7.98 0 0 1-2.775.88l-25.727 3.216h-1.531a13.767 13.767 0 0 1-9.073-3.235A13.41 13.41 0 0 1 320 266.42a13.561 13.561 0 0 1 9.286-12.883l41.244-13.748a8 8 0 0 0-5.06-15.18l-41.244 13.749a29.58 29.58 0 0 0 13.024 57.415l25.727-3.216a23.894 23.894 0 0 0 6.312-1.69h29.422a23.894 23.894 0 0 0 6.312 1.69l25.727 3.216a29.58 29.58 0 0 0 13.024-57.415z" fill="#e8cbbf"></path><circle cx="384" cy="224" fill="#c79a75" r="48"></circle><circle cx="384" cy="224" fill="#e0b594" r="16"></circle><path d="m317.626 93.134 78.267-9.237a48.001 48.001 0 0 0-35.508-30.992L226.079 25.082c-.263-.055-.527-.09-.79-.13zM224.063 24.81c-.25-.02-.502-.039-.753-.047l-80.47 89 87.393-10.315zM145.653 137.598l-.105-.89-2.708-22.945L64.573 123a47.986 47.986 0 0 0 .06 10.663l1.571 13.311a16 16 0 0 0 17.765 14.014l47.67-5.626a16 16 0 0 0 14.014-17.764z" fill="#c69079"></path></g></svg>