<svg viewBox="0 0 38 38" xmlns="http://www.w3.org/2000/svg"><g><path d="m34.436 25.712-1.351 2.303-2.902 4.427c-.094.158-.291.169-.392.07l-.011-.011c-.105-.107-.032.097-.307-5.009l-.077-1.545-.11-1.596 3.618-5.102.309.967 1.362 4.26c.13.413.082.863-.14 1.236z" fill="#dd8536"></path><path d="m29.872 32.564-13.619-4.092c-17.826-5.097-11.68-3.34-13.014-3.72a.77.77 0 0 1-.511-.952l1.822-6.206c.1.03 12.726 3.658 12.61 3.625L29.31 24.71l.188 2.753.35 5.049z" fill="#f3a250"></path><path d="m15.62 20.777.186 7.566L3.24 24.751a.77.77 0 0 1-.511-.951l1.822-6.206z" fill="#ffb961"></path><path d="m4.774 18.126 23.776 6.807a1.344 1.344 0 0 0 1.512-.585l2.772-4.416a.77.77 0 0 0-.451-1.154c-31.05-8.256-19.801-5.265-22.344-5.94a1.08 1.08 0 0 0-1.071.288l-4.36 4.386a.37.37 0 0 0 .166.614z" fill="#ffd475"></path><path d="m32.831 19.93-2.768 4.421a.963.963 0 0 1-.22.254c-.331.33-.827.452-1.29.33l-8.062-2.304c-.1-.03-5.18-1.492-4.863-1.4-1.42-.409-11.496-3.297-10.851-3.11a.362.362 0 0 1-.276-.353.1.1 0 0 1 .011-.055l.022-.1c.011-.01.011-.022.022-.022.011-.033.033-.055.055-.077l4.356-4.389a1.076 1.076 0 0 1 1.07-.287c9.576 2.55-3.312-.877 22.342 5.944a.76.76 0 0 1 .452 1.147z" fill="#ffd475"></path><path d="M7.14 18.803c7.024 2.29 13.696 4.151 20.807 6.102.486.113 1.043.395 1.7-.009.26-.151.45-.413.576-.653l1.262-2.162-.933 1.384c-.337.433-.557 1.006-1.013 1.245-.578.315-1.002.07-1.516-.073l-1.595-.488c-5.73-1.667-11.345-3.38-19.288-5.346z" fill="#ffffff"></path><path d="M5.513 16.608c.04.077.092.145.188.167l21.347 6.35c.509.148 1.078-.119 1.386-.683l2.307-4.103-20.702-5.502a1.08 1.08 0 0 0-1.071.29z" fill="#ffffff" opacity=".3"></path><g opacity=".5"><path d="m11.832 13.31 9.91 9.678 6.808 1.945c.468.129.96.002 1.295-.329l-9.163-8.933zM8.646 13.45l8.392 8.193 3.452.983-9.875-9.636-.576-.153a1.08 1.08 0 0 0-1.071.29z" fill="#ffffff"></path></g><path d="M32.897 19.234 6.894 21.286l.011-.022c-.11.033-.243-.034-.287-.177l-1.51-2.878-.298-.54-.122-.232 4.28-4.312a1.076 1.076 0 0 1 1.069-.287c12.67 3.375 6.536 1.747 22.133 5.878.132.064.54.072.727.518z" fill="#51383c" opacity=".3"></path><path d="m3.952 12.608.81 2.544c.04.104 1.97 5.267 1.855 4.958.083.254.426.243.477.002l1.722-6.163.46-1.533A14063728.422 14063728.422 0 0 1 6.87 6.642l-2.782 4.73c-.218.375-.27.825-.136 1.236z" fill="#dd8536"></path><path d="m6.894 20.299 14.185-.99 13.515-.762a.77.77 0 0 0 .708-.816l-.41-6.454-25.72 1.485-.791 2.644-1.453 4.848z" fill="#f3a250"></path><path d="m23.393 11.942-1.85 7.339 13.05-.734a.77.77 0 0 0 .709-.816l-.41-6.454z" fill="#ffb961"></path><path d="m34.556 11.746-24.691 1.4a1.344 1.344 0 0 1-1.346-.904L6.79 7.324a.77.77 0 0 1 .694-1.026l23.103-.871a1.08 1.08 0 0 1 .981.518l3.287 5.238a.37.37 0 0 1-.298.563z" fill="#ffd475"></path><path d="M34.556 11.746c-14.728.836-14.405.825-24.691 1.4a1.334 1.334 0 0 1-1.191-.606c-.166-.221-.042-.02-1.886-5.216a.77.77 0 0 1 .695-1.026l1.698-.066c1.278-.048 22.776-.858 21.405-.805a1.08 1.08 0 0 1 .981.518c.064.1 2.942 4.688 2.879 4.588l.408.65a.37.37 0 0 1-.298.563z" fill="#ffd475"></path><path d="M32.1 11.885c-7.356.686-14.274 1.031-21.64 1.367-.5.003-1.105.155-1.658-.384-.34-.318-.385-.705-.668-1.56l-.503-1.59.605 1.555c.233.497.322 1.104.713 1.437.192.17.435.278.686.304.69.06 10.543-.887 22.464-1.129z" fill="#ffffff"></path><path d="M34.17 10.103c-.055.066-.121.12-.22.12l-22.221 1.49c-.53.033-1.026-.353-1.202-.97L9.18 6.231l21.405-.805a1.08 1.08 0 0 1 .981.518z" fill="#ffffff" opacity=".3"></path><g opacity=".5"><path d="m28.733 5.493-11.8 7.256-7.068.397a1.334 1.334 0 0 1-1.191-.606L19.58 5.846zM31.81 6.331l-9.991 6.143-3.584.198L29.99 5.449l.596-.022a1.08 1.08 0 0 1 .981.518z" fill="#ffffff"></path></g><path d="M30.125 14.404c.897 1.108.754 1.122-.121.122-.17 1.932-.448 2.213-.309-.011-1.037.86-1.186.808-.1-.144-2.047-.154-2.134-.42.023-.287-.87-1.018-.82-1.2.121-.12.18-2.045.442-2.109.309.021 1.158-.96 1.05-.685.088.133 2.199.214 2.008.438-.01.286z" fill="#ffffff"></path></g></svg>