<svg viewBox="0 0 58 58" xmlns="http://www.w3.org/2000/svg"><g><g fill="none" fill-rule="evenodd"><path d="M40 31v19L8 18h19z" fill="#805333"></path><path d="M40 42.59v2.82l-6.71-6.7a1.004 1.004 0 1 1 1.42-1.42zM31 36a1 1 0 0 1-.707-.293l-9-9a1 1 0 0 1 1.414-1.414l9 9A1 1 0 0 1 31 36zM19.71 23.71a1.014 1.014 0 0 1-1.42 0L12.59 18h2.82l4.3 4.29c.39.393.39 1.027 0 1.42zM40 35.59v2.82l-9.71-9.7a1.004 1.004 0 0 1 1.42-1.42zM28.71 25.71a1.014 1.014 0 0 1-1.42 0L19.59 18h2.82l6.3 6.29c.39.393.39 1.027 0 1.42z" fill="#603e26"></path><path d="M40 0v18H1a1 1 0 0 1-1-1V1a1 1 0 0 1 1-1z" fill="#cb8252"></path><g fill="#a56a43"><path d="M13 4a1 1 0 0 1-1 1H0V3h12a1 1 0 0 1 1 1zM21 5h-5a1 1 0 0 1 0-2h5a1 1 0 0 1 0 2zM40 3v2H25a1 1 0 0 1 0-2zM27 9a1 1 0 0 1-1 1H0V8h26a1 1 0 0 1 1 1zM40 8v2H30a1 1 0 0 1 0-2zM32 15H11a1 1 0 0 1 0-2h21a1 1 0 0 1 0 2zM8 14a1 1 0 0 1-1 1H0v-2h7a1 1 0 0 1 1 1zM40 13v2h-4a1 1 0 0 1 0-2zM58 1v56a1 1 0 0 1-1 1H41a1 1 0 0 1-1-1V0h17a1 1 0 0 1 1 1z" fill="#a56a43"></path></g><path d="M45 44.02V58h-2V44.02a1 1 0 0 1 2 0zM44 41.021a1 1 0 0 1-1-1v-5.992a1 1 0 0 1 2 0v5.992a1 1 0 0 1-1 1zM45 0v30.03a1 1 0 0 1-2 0V0zM50 29.04V58h-2V29.04a1 1 0 0 1 2 0zM50 0v25.04a1 1 0 0 1-2 0V0zM54 48.014a1 1 0 0 1-1-1v-24.97a1 1 0 0 1 2 0v24.97a1 1 0 0 1-1 1zM55 51.01V58h-2v-6.99a1 1 0 0 1 2 0zM55 0v18.05a1 1 0 0 1-2 0V0z" fill="#805333"></path></g></g></svg>