<svg viewBox="0 0 512.006 512.006" xmlns="http://www.w3.org/2000/svg"><g><path d="M280.937 33.357a7.95 7.95 0 1 1-11.242-11.244 7.95 7.95 0 0 1 11.242 11.244zM208.535 135.417c-10.248.001-20.486-3.797-28.355-11.355-14.949-14.359-16.82-37.64-4.351-54.153a41.308 41.308 0 0 1 3.751-4.309 7.5 7.5 0 0 1 10.605 10.609 26.19 26.19 0 0 0-2.386 2.74c-7.892 10.452-6.701 25.196 2.772 34.295 9.749 9.363 25.239 9.617 35.268.58 5.35-4.822 8.399-11.432 8.585-18.61.187-7.184-2.505-13.934-7.578-19.006a7.5 7.5 0 0 1 0-10.607l24.713-24.713a7.5 7.5 0 0 1 10.607 10.607l-19.889 19.889c4.868 7.054 7.37 15.432 7.142 24.22-.294 11.331-5.102 21.76-13.538 29.363-7.744 6.977-17.549 10.45-27.346 10.45zM354.181 512.006c10.176 0 17.949-8.992 16.6-19.077-9.323-69.697-69.016-123.453-141.265-123.453S97.574 423.231 88.251 492.928c-1.349 10.086 6.424 19.077 16.6 19.077h249.33z" fill="#8fd9a9"></path><path d="m286.171 463.446-15.315-35.703 22.389-3.264c6.822 15.378 29.147 34.867 70.854 40.493-19.432-55.606-72.348-95.497-134.583-95.497s-115.152 39.89-134.583 95.497c41.706-5.626 64.031-25.115 70.854-40.493l22.389 3.264-15.315 35.703c-2.063 4.81-.331 10.439 4.131 13.174 14.318 8.776 26.225 26.791 30.52 35.386h44.009c4.295-8.594 16.202-26.609 30.52-35.386 4.462-2.735 6.194-8.364 4.13-13.174z" fill="#6ac65e"></path><path d="M222.015 452.733h15v59.272h-15z" fill="#8fd9a9"></path><ellipse cx="66.249" cy="291.347" fill="#ffd3bd" rx="62.45" ry="51.057"></ellipse><ellipse cx="392.782" cy="291.347" fill="#ffbe9d" rx="62.45" ry="51.057"></ellipse><path d="M408.139 303.551c0 88.749-79.973 149.182-178.624 149.182S50.891 392.299 50.891 303.551s79.972-160.694 178.624-160.694 178.624 71.945 178.624 160.694z" fill="#ffd3bd"></path><path d="M229.516 452.733c25.065 0 48.919-3.909 70.567-11.185-237.915-25.135-200.706-212.01-125.536-290.926-71.752 20.858-123.655 81.436-123.655 152.929 0 88.748 79.972 149.182 178.624 149.182z" fill="#ffbe9d"></path><g fill="#eda1ab"><ellipse cx="138.71" cy="332.809" fill="#eda1ab" rx="33.506" ry="26.682"></ellipse><ellipse cx="320.322" cy="332.809" fill="#eda1ab" rx="33.506" ry="26.682"></ellipse></g><g fill="#4e5660"><path d="M158.237 314.624a7.5 7.5 0 0 1-7.5-7.5v-13.696c0-4.143 3.358-7.5 7.5-7.5s7.5 3.357 7.5 7.5v13.696a7.5 7.5 0 0 1-7.5 7.5zM300.795 314.624a7.5 7.5 0 0 1-7.5-7.5v-13.696c0-4.143 3.358-7.5 7.5-7.5s7.5 3.357 7.5 7.5v13.696a7.5 7.5 0 0 1-7.5 7.5z" fill="#4e5660"></path><path d="M158.237 289.629a32.37 32.37 0 0 1-16.667-4.612 7.5 7.5 0 0 1 7.725-12.857c2.689 1.615 5.781 2.47 8.941 2.47s6.252-.854 8.941-2.47a7.5 7.5 0 1 1 7.726 12.857 32.361 32.361 0 0 1-16.666 4.612zM248.305 322.779c-.945 0-1.906-.18-2.835-.56-10.975-4.486-27.528-4.448-34.613-4.485h-.133c-4.142 0-7.5-3.357-7.5-7.5s3.358-7.5 7.5-7.5h.133c8.621-.026 26.586-.001 40.289 5.601a7.502 7.502 0 0 1-2.841 14.444z" fill="#4e5660"></path></g><path d="M93.082 128.877c22.385.315 36.131 7.195 52.09 17.858 3.546 2.37 8.207 2.11 11.495-.606 39.523-32.654 115.789-51.109 169.255-51.533 41.28-.327 76.043 33.001 75.899 74.281-.142 40.762-33.23 73.763-74.026 73.763-38.52 0-135.052-6.828-189.012-36.061-3.891-2.108-8.711-1.199-11.663 2.098-8.762 9.786-21.488 15.946-35.659 15.946-26.249 0-47.564-21.123-47.875-47.298-.321-27.09 22.407-48.83 49.496-48.448z" fill="#cb9d82"></path><g fill="#b7856b"><path d="M284.61 210.73c-28.797 0-63.553-6.608-76.071-11.399a7.5 7.5 0 0 1 5.361-14.01c14.038 5.373 60.328 13.063 86.754 9.466 4.105-.567 7.884 2.316 8.443 6.42a7.499 7.499 0 0 1-6.42 8.443c-5.517.751-11.645 1.08-18.067 1.08zM347.088 149.975a7.486 7.486 0 0 1-5.799-2.738c-9.253-11.26-32.503-8.242-41.257-7.106-4.104.546-7.87-2.365-8.402-6.473a7.5 7.5 0 0 1 6.473-8.402c12.042-1.564 40.246-5.223 54.775 12.458a7.501 7.501 0 0 1-5.79 12.261z" fill="#b7856b"></path></g><path d="M442.445 75.979a7.949 7.949 0 0 1-4.751 10.188 7.95 7.95 0 1 1 4.751-10.188zM467.298 208.397c-14.758 0-28.878-8.007-36.147-21.71a41.41 41.41 0 0 1-2.32-5.22 7.5 7.5 0 1 1 14.095-5.131c.414 1.14.911 2.258 1.476 3.323 6.138 11.569 20.003 16.72 32.253 11.981 12.606-4.879 19.384-18.811 15.43-31.719-2.109-6.887-6.81-12.443-13.238-15.646-6.433-3.205-13.687-3.618-20.429-1.164-3.892 1.413-8.196-.59-9.613-4.482l-11.953-32.842a7.5 7.5 0 0 1 4.483-9.613 7.503 7.503 0 0 1 9.613 4.482l9.62 26.431c8.45-1.429 17.101-.157 24.969 3.763 10.145 5.056 17.565 13.82 20.891 24.68 6.245 20.391-4.455 42.397-24.36 50.1a40.863 40.863 0 0 1-14.77 2.767z" fill="#6ac65e"></path><circle cx="20.456" cy="134.906" fill="#6ac65e" r="7.949"></circle><path d="M31.282 112.664a7.5 7.5 0 0 1-7.048-10.067l9.62-26.431c-7.393-4.336-13.201-10.871-16.708-18.932-4.522-10.395-4.572-21.878-.14-32.334C25.328 5.265 47.671-4.717 67.87 2.18c19.617 6.696 31.151 27.005 26.829 47.24a41.231 41.231 0 0 1-1.578 5.49 7.5 7.5 0 0 1-14.095-5.131 26.319 26.319 0 0 0 1.004-3.489c2.736-12.813-4.574-25.672-17.005-29.915-12.79-4.365-26.94 1.95-32.208 14.379-2.811 6.632-2.781 13.911.083 20.495 2.867 6.59 8.159 11.57 14.9 14.023a7.5 7.5 0 0 1 4.482 9.613L38.33 107.727a7.504 7.504 0 0 1-7.048 4.937z" fill="#6ac65e"></path></g></svg>