<svg viewBox="0 0 497 497" xmlns="http://www.w3.org/2000/svg"><g><path d="M183.639 11.741C203.813 4.151 225.672 0 248.5 0c101.759 0 184.251 82.492 184.251 184.251V433.32L313.5 472.792 197.514 433.32l-66.633-14.273-49.654-163.464 37.08-187.959z" fill="#a4e7ff"></path><path d="M125.333 212.393c0-73.829 21.392-142.66 58.31-200.641C113.886 37.993 64.249 105.32 64.249 184.251V433.32l66.633 31.84 66.633-31.84c-45.381-61.907-72.182-138.286-72.182-220.927z" fill="#2ecefb"></path><path d="M271.791 173.647c27.745-11.787 42.559-45.156 33.336-76.065a90.95 90.95 0 0 0-.396-1.292c-7.062-23.185-24.093-45.872-49.555-60.768a5.972 5.972 0 0 0-6.093 0C223.62 50.418 206.59 73.105 199.528 96.29c-.135.43-.267.861-.396 1.291-9.223 30.909 5.591 64.278 33.336 76.065 12.646 5.373 26.677 5.373 39.323.001z" fill="#ff5d9c"></path><path d="M231.908 261.671h33.183v171.648h-33.183z" fill="#8ce09f"></path><path d="M288.292 207.256c11.056-26.626-.166-59.056-25.855-75.494-.888.427-1.769.861-2.636 1.312-.402.205-.802.412-1.199.622-28.527 15.053-41.984 48.993-30.977 77.056 4.573 11.659 13.147 21.001 24.237 26.556a54.965 54.965 0 0 0 8.351-2.523c12.792-5.017 22.811-14.84 28.079-27.529z" fill="#ff5d9c"></path><path d="M248.5 193.165c25.828 0 46.765 20.937 46.765 46.765 0 19.818-12.328 36.757-29.733 43.567l-22.295-1.536-22.669-26.816 4.423-38.151z" fill="#8ce09f"></path><path d="M235.788 239.93c0-19.818 12.334-36.744 29.739-43.554a46.622 46.622 0 0 0-17.026-3.211c-25.827 0-46.765 20.937-46.765 46.765s20.937 46.765 46.765 46.765c6.01 0 11.748-1.146 17.026-3.211-17.406-6.81-29.739-23.737-29.739-43.554zM261.722 356.743c10.848 8.518 31.537 7.197 47.092-3.185.217-.145.433-.291.648-.438 11.645-7.845 21.449-19.559 25.641-32.951.314-1.002-.046-1.913-.958-2.432-12.199-6.933-27.359-8.812-41.226-6.605-.258.039-.516.08-.773.122-18.456 3.019-34.486 16.165-36.608 29.794-.967 6.212 1.24 11.812 6.184 15.695z" fill="#55d47b"></path><path d="M244.741 122.695a65.614 65.614 0 0 0-5.848-3.649 79.426 79.426 0 0 0-1.187-.645c-21.275-11.611-49.318-15.888-77.928-8.699a5.97 5.97 0 0 0-4.351 4.266c-7.753 28.462-4.031 56.585 7.158 78.084.205.402.412.802.622 1.199 11.362 21.533 33.484 34.479 55.718 34.8z" fill="#ff83b4"></path><path d="M268.341 196.699c10.728-25.837.48-57.139-23.608-73.992-.822.4-1.638.808-2.444 1.227a96.59 96.59 0 0 0-1.32.684c-31.396 16.567-46.207 53.92-34.092 84.806 2.772 7.068 6.879 13.365 12.048 18.619 7.223.104 14.457-1.115 21.338-3.815 12.79-5.017 22.809-14.84 28.078-27.529z" fill="#ff5d9c"></path><path d="M255.155 238.83c27.84 11.56 62.039-1.224 77.653-29.448.218-.393.433-.789.645-1.187 11.611-21.275 15.888-49.318 8.699-77.928a5.97 5.97 0 0 0-4.266-4.351c-28.462-7.753-56.585-4.031-78.084 7.158-.402.205-.802.412-1.199.622-28.527 15.053-41.984 48.993-30.977 77.056 5.016 12.79 14.839 22.809 27.529 28.078z" fill="#ff83b4"></path><path d="M256.647 497h190.822c17.585 0 31.84-14.255 31.84-31.84s-14.255-31.84-31.84-31.84H197.514l-1.12 50.643z" fill="#928cd9"></path><path d="M197.514 433.32H49.531c-17.585 0-31.84 14.255-31.84 31.84S31.946 497 49.531 497h207.116a376.265 376.265 0 0 1-59.133-63.68z" fill="#736acc"></path></g></svg>