<svg fill-rule="evenodd" viewBox="0 0 1707 1707" xmlns="http://www.w3.org/2000/svg"><g><path d="M617 1345H20c-15 0-24-16-17-29l232-429c9-16 46-10 79-10 6-12 27-48 55-96 18 0 33 2 40 0l110-47 8 112c0 10 9 18 20 18 6 0 2 17 5 11l54-186c6-12 71-293 68-311l-3-6 158 318c29 0 72-5 82 8l88 111c5 7 6 17 0 24l-366 504c-3 5-9 8-16 8z" fill="#007aa0"></path><path d="M437 1345H95l224-332c9-13 27-12 34 1l64 118c27-13 49-31 64-20 6 5 9 13 7 20 0 0-29 147-51 213z" fill="#005f7e"></path><path d="M369 781c77-133 203-353 208-357l63-57c12-12 35-3 33 16-3 38-22 337-29 347l-92 145c-10 16-35 10-36-9l-8-112-99 27c-5 1-20 1-40 0z" fill="#cfdde1"></path><path d="M597 1345c0-4 1-9 4-13l219-301 176-48 8 103c1 19 26 25 37 9l86-135c5-8 21-218 29-330l-4-8 204 380c-2-2-4-6-6-12l6 12 175 167c14 13 36 0 34-18l-9-70 148 253c2 4 2 8 2 11z" fill="#005f7e"></path><path d="m1350 990 6 12c-2-2-4-6-6-12zm6 12 141-2c7 0 14 4 17 10l42 71 9 70c2 18-20 31-34 18zM820 1031l298-411c14-19 36-1 38 10-8 112-24 322-29 330l-86 135c-11 16-36 10-37-9l-8-103z" fill="#cfdde1"></path></g></svg>