<svg viewBox="0 0 512 512" xmlns="http://www.w3.org/2000/svg"><g><path d="M496.984 450.416H47.665c-8.293 0-15.016-6.723-15.016-15.016v-36.213c0-8.293 6.723-15.016 15.016-15.016h449.319c8.293 0 15.016 6.723 15.016 15.016V435.4c0 8.293-6.723 15.016-15.016 15.016z" fill="#c3cee6"></path><path d="M496.984 450.416h-143.47V384.17h143.469c8.293 0 15.016 6.723 15.016 15.016v36.213c.001 8.294-6.722 15.017-15.015 15.017z" fill="#ff8b5c"></path><path d="M58.367 178.317c32.183 0 58.366-26.183 58.366-58.366S90.551 61.584 58.367 61.584c-8.293 0-15.016 6.723-15.016 15.016s6.723 15.016 15.016 15.016c15.623 0 28.334 12.71 28.334 28.334s-12.71 28.334-28.334 28.334C26.184 148.284 0 174.468 0 206.651s26.184 58.366 58.367 58.366c15.623 0 28.334 12.71 28.334 28.334 0 15.623-12.71 28.335-28.334 28.335-8.293 0-15.016 6.723-15.016 15.016s6.723 15.016 15.016 15.016c32.183 0 58.366-26.184 58.366-58.367s-26.183-58.366-58.366-58.366c-15.623 0-28.335-12.71-28.335-28.334s12.712-28.334 28.335-28.334zM135.027 158.246c-8.293 0-15.016 6.723-15.016 15.016s6.723 15.016 15.016 15.016c10.13 0 18.372 8.241 18.372 18.373 0 10.13-8.241 18.372-18.372 18.372-8.293 0-15.016 6.723-15.016 15.016s6.723 15.016 15.016 15.016c26.69 0 48.404-21.714 48.404-48.404 0-26.691-21.714-48.405-48.404-48.405z" fill="#c3cee6"></path><path d="M32.648 399.186V435.4c0 8.293 6.723 15.016 15.016 15.016h33.544V384.17H47.665c-8.294-.001-15.017 6.723-15.017 15.016z" fill="#e64e86"></path><path d="M512 417.293v-18.107c0-8.293-6.723-15.016-15.016-15.016H47.665c-8.293 0-15.016 6.723-15.016 15.016v18.107H512z" fill="#f9f7ff"></path><path d="M512 417.293v-18.107c0-8.293-6.723-15.016-15.016-15.016h-143.47v33.123H512z" fill="#ffba73"></path><path d="M81.209 417.293V384.17H47.665c-8.293 0-15.016 6.723-15.016 15.016v18.107h48.56z" fill="#ff76a8"></path></g></svg>