<svg viewBox="0 0 512 512" xmlns="http://www.w3.org/2000/svg"><g><path d="M166.5 232.898H497v196.67H166.5z" fill="#ffc73b"></path><path d="M166.5 402.068H497v27.5H166.5z" fill="#ffa73e"></path><path d="M311.36 202.598c.09 2.05-.66 4.03-2.08 5.51h-53.06a7.506 7.506 0 0 1-2.08-5.51l5-120.48h47.22z" fill="#d4efff"></path><path d="M311.36 202.598c.09 2.05-.66 4.03-2.08 5.51h-18a7.466 7.466 0 0 0 2.08-5.51l-5-120.48h18z" fill="#b7d4e2"></path><path d="M326.37 202.918v29.98h-87.24v-29.98c0-4.15 3.36-7.5 7.5-7.5h72.24c4.14 0 7.5 3.35 7.5 7.5z" fill="#ff5a39"></path><path d="M326.37 202.918v29.98h-21.99v-29.98c0-4.15-3.36-7.5-7.5-7.5h21.99c4.14 0 7.5 3.35 7.5 7.5z" fill="#ff2727"></path><path d="M308.87 74.929h-52.237a7.5 7.5 0 0 0 0 15h52.237a7.5 7.5 0 0 0 0-15z" fill="#364c59"></path><path d="M423.36 202.598c.09 2.05-.66 4.03-2.08 5.51h-53.06a7.506 7.506 0 0 1-2.08-5.51l5-120.48h47.22z" fill="#d4efff"></path><path d="M423.36 202.598c.09 2.05-.66 4.03-2.08 5.51h-18a7.466 7.466 0 0 0 2.08-5.51l-5-120.48h18z" fill="#b7d4e2"></path><path d="M438.37 202.918v29.98h-87.24v-29.98c0-4.15 3.36-7.5 7.5-7.5h72.24c4.14 0 7.5 3.35 7.5 7.5z" fill="#ff5a39"></path><path d="M438.37 202.918v29.98h-21.99v-29.98c0-4.15-3.36-7.5-7.5-7.5h21.99c4.14 0 7.5 3.35 7.5 7.5z" fill="#ff2727"></path><path d="M420.869 74.929h-52.237a7.5 7.5 0 0 0 0 15h52.237a7.5 7.5 0 0 0 0-15z" fill="#364c59"></path><path d="M166.5 232.898H497v27.5H166.5z" fill="#668fa3"></path><path d="M504.5 225.396H174.002a7.5 7.5 0 0 0 0 15H504.5a7.5 7.5 0 0 0 0-15z" fill="#364c59"></path><g fill="#d4efff"><path d="M211.194 299.913h39.404a7.5 7.5 0 0 0 0-15h-39.404a7.5 7.5 0 0 0 0 15zM258.1 322.408v107.16h-54.41v-107.16c0-4.14 3.36-7.5 7.5-7.5h39.41c4.14 0 7.5 3.36 7.5 7.5z" fill="#d4efff"></path></g><path d="M258.1 322.408v30h-54.41v-30c0-4.14 3.36-7.5 7.5-7.5h39.41c4.14 0 7.5 3.36 7.5 7.5z" fill="#668fa3"></path><g fill="#d4efff"><path d="M283.431 299.913h39.404a7.5 7.5 0 0 0 0-15h-39.404a7.5 7.5 0 0 0 0 15zM330.34 322.408v107.16h-54.41v-107.16c0-4.14 3.36-7.5 7.5-7.5h39.41c4.14 0 7.5 3.36 7.5 7.5z" fill="#d4efff"></path></g><path d="M330.338 322.408v30h-54.41v-30c0-4.14 3.36-7.5 7.5-7.5h39.41c4.14 0 7.5 3.36 7.5 7.5z" fill="#668fa3"></path><g fill="#d4efff"><path d="M355.668 299.913h39.404a7.5 7.5 0 0 0 0-15h-39.404a7.5 7.5 0 0 0 0 15zM402.57 322.408v107.16h-54.41v-107.16c0-4.14 3.36-7.5 7.5-7.5h39.41c4.14 0 7.5 3.36 7.5 7.5z" fill="#d4efff"></path></g><path d="M402.574 322.408v30h-54.41v-30c0-4.14 3.36-7.5 7.5-7.5h39.41c4.14 0 7.5 3.36 7.5 7.5z" fill="#668fa3"></path><g fill="#d4efff"><path d="M427.905 299.913h39.404a7.5 7.5 0 0 0 0-15h-39.404a7.5 7.5 0 0 0 0 15zM474.81 322.408v107.16H420.4v-107.16c0-4.14 3.36-7.5 7.5-7.5h39.41c4.14 0 7.5 3.36 7.5 7.5z" fill="#d4efff"></path></g><path d="M474.811 322.408v30h-54.41v-30c0-4.14 3.36-7.5 7.5-7.5h39.41c4.14 0 7.5 3.36 7.5 7.5z" fill="#668fa3"></path><g fill="#b7d4e2"><path d="M203.69 402.068h54.41v27.5h-54.41zM275.93 402.068h54.41v27.5h-54.41zM348.16 402.068h54.41v27.5h-54.41zM420.4 402.068h54.41v27.5H420.4z" fill="#b7d4e2"></path></g><path d="M15 148.738h166.5v280.83H15z" fill="#ff5a39"></path><path d="M15 402.068h166.5v27.5H15z" fill="#ff2727"></path><path d="M15 148.738h166.5v27.5H15z" fill="#668fa3"></path><g fill="#d4efff"><path d="M90.3 372.948v56.62h-15v-56.62c0-4.14 3.36-7.5 7.5-7.5s7.5 3.36 7.5 7.5zM120.97 372.948v56.62h-15v-56.62c0-4.14 3.35-7.5 7.5-7.5 4.14 0 7.5 3.36 7.5 7.5zM52.486 201.634a7.5 7.5 0 0 0-7.5 7.5v21.561a7.5 7.5 0 0 0 15 0v-21.561a7.5 7.5 0 0 0-7.5-7.5zM83.153 201.634a7.5 7.5 0 0 0-7.5 7.5v21.561a7.5 7.5 0 0 0 15 0v-21.561a7.5 7.5 0 0 0-7.5-7.5zM113.82 201.634a7.5 7.5 0 0 0-7.5 7.5v21.561a7.5 7.5 0 0 0 15 0v-21.561a7.5 7.5 0 0 0-7.5-7.5zM144.487 201.634a7.5 7.5 0 0 0-7.5 7.5v21.561a7.5 7.5 0 0 0 15 0v-21.561a7.5 7.5 0 0 0-7.5-7.5zM52.251 292.725a7.5 7.5 0 0 0 7.5-7.5v-21.561a7.5 7.5 0 0 0-15 0v21.561a7.5 7.5 0 0 0 7.5 7.5zM82.917 292.725a7.5 7.5 0 0 0 7.5-7.5v-21.561a7.5 7.5 0 0 0-15 0v21.561a7.5 7.5 0 0 0 7.5 7.5zM113.584 292.725a7.5 7.5 0 0 0 7.5-7.5v-21.561a7.5 7.5 0 0 0-15 0v21.561a7.5 7.5 0 0 0 7.5 7.5zM144.251 292.725a7.5 7.5 0 0 0 7.5-7.5v-21.561a7.5 7.5 0 0 0-15 0v21.561a7.5 7.5 0 0 0 7.5 7.5zM52.369 310.922a7.5 7.5 0 0 0-7.5 7.5v21.561a7.5 7.5 0 0 0 15 0v-21.561a7.5 7.5 0 0 0-7.5-7.5zM83.036 310.922a7.5 7.5 0 0 0-7.5 7.5v21.561a7.5 7.5 0 0 0 15 0v-21.561a7.5 7.5 0 0 0-7.5-7.5zM113.702 310.922a7.5 7.5 0 0 0-7.5 7.5v21.561a7.5 7.5 0 0 0 15 0v-21.561a7.5 7.5 0 0 0-7.5-7.5zM144.369 310.922a7.5 7.5 0 0 0-7.5 7.5v21.561a7.5 7.5 0 0 0 15 0v-21.561a7.5 7.5 0 0 0-7.5-7.5zM52.133 365.451a7.5 7.5 0 0 0-7.5 7.5v21.561a7.5 7.5 0 0 0 15 0v-21.561a7.5 7.5 0 0 0-7.5-7.5zM144.133 365.451a7.5 7.5 0 0 0-7.5 7.5v21.561a7.5 7.5 0 0 0 15 0v-21.561a7.5 7.5 0 0 0-7.5-7.5z" fill="#d4efff"></path></g><path d="M75.3 402.068h15v27.5h-15zM105.97 402.068h15v27.5h-15z" fill="#b7d4e2"></path><path d="M504.5 422.071H7.5a7.5 7.5 0 0 0 0 15h497a7.5 7.5 0 0 0 0-15zM189.002 141.242H7.5a7.5 7.5 0 0 0 0 15h181.502a7.5 7.5 0 0 0 0-15z" fill="#364c59"></path></g></svg>