<svg id="Layer_1" height="512" viewBox="0 0 512 512" width="512" xmlns="http://www.w3.org/2000/svg" data-name="Layer 1"><path d="m73.422 319.643h373.381v159.756h-373.381z" fill="#e5e5e5"/><path d="m446.817 457.1v22.265h-373.395v-159.723h22.266c-.121 41.461 19.21 81.9 51.656 107.321a133.972 133.972 0 0 0 53.215 26.2 107.82 107.82 0 0 0 14.769 2.746c2.707 2.651 222.577.543 231.489 1.191z" fill="#d6d6d6"/><path d="m105.943 462.982a7.422 7.422 0 0 1 -7.422-7.422v-110.027a7.422 7.422 0 1 1 14.843 0v110.027a7.422 7.422 0 0 1 -7.421 7.422z" fill="#fdb62f"/><path d="m139.95 462.982a7.422 7.422 0 0 1 -7.422-7.422v-110.027a7.422 7.422 0 0 1 14.844 0v110.027a7.422 7.422 0 0 1 -7.422 7.422z" fill="#fdb62f"/><path d="m173.953 462.982a7.422 7.422 0 0 1 -7.421-7.422v-110.027a7.422 7.422 0 1 1 14.843 0v110.027a7.422 7.422 0 0 1 -7.422 7.422z" fill="#fdb62f"/><path d="m207.979 463a7.391 7.391 0 0 1 -7.422-7.385v-88.77a7.422 7.422 0 0 1 14.844 0v88.693a7.453 7.453 0 0 1 -7.422 7.462z" fill="#fdb62f"/><path d="m113.352 387.107v68.43a7.422 7.422 0 1 1 -14.844 0v-108.211a135.661 135.661 0 0 0 14.844 39.781z" fill="#fdab11"/><path d="m147.344 426.963v28.574c.021 9.713-14.817 9.731-14.844 0v-42.231a117.881 117.881 0 0 0 14.844 13.657z" fill="#fdab11"/><path d="m181.41 447v8.535c-.028 9.728-14.866 9.716-14.843 0v-15.584a118.257 118.257 0 0 0 14.843 7.049z" fill="#fdab11"/><path d="m215.328 455.908c-1.412 11.194-16.539 8.308-14.769-2.746a107.82 107.82 0 0 0 14.769 2.746z" fill="#fdab11"/><g fill="#fdb62f"><path d="m241.972 463a7.391 7.391 0 0 1 -7.422-7.385v-61.753a7.422 7.422 0 1 1 14.844 0v61.676a7.454 7.454 0 0 1 -7.422 7.462z"/><path d="m275.964 463a7.391 7.391 0 0 1 -7.421-7.385v-53.291a7.422 7.422 0 1 1 14.843 0v53.214a7.453 7.453 0 0 1 -7.422 7.462z"/><path d="m309.957 463a7.391 7.391 0 0 1 -7.422-7.385v-48.467a7.422 7.422 0 1 1 14.844 0v48.39a7.453 7.453 0 0 1 -7.422 7.462z"/><path d="m344.022 463a7.391 7.391 0 0 1 -7.421-7.385v-88.77a7.422 7.422 0 0 1 14.843 0v88.693a7.453 7.453 0 0 1 -7.422 7.462z"/><path d="m378.015 463a7.391 7.391 0 0 1 -7.422-7.385v-96.191a7.422 7.422 0 0 1 14.844 0v96.114a7.453 7.453 0 0 1 -7.422 7.462z"/><path d="m412.008 463a7.391 7.391 0 0 1 -7.422-7.385v-107.621a7.422 7.422 0 0 1 14.844 0v107.544a7.453 7.453 0 0 1 -7.422 7.462z"/></g><path d="m194.101 319.642v25.903h-116.449l-1.187-25.903z" fill="#8c421c"/><path d="m455.426 319.642v25.903h-116.449l-1.188-25.903z" fill="#8c421c"/><path d="m443.848 455.537v23.676h-360.11l-1.632-23.676z" fill="#8c421c"/><path d="m98.237 345.545h-20.568l-1.645-25.903h20.568z" fill="#733617"/><path d="m98.582 479.213h-14.844l-1.632-23.676h15.437z" fill="#733617"/><path d="m84.352 493.314h-65.852v-295.562h52.418z" fill="#fd9133"/><path d="m18.5 197.775h22.266v295.539h-22.266z" fill="#fd8115"/><path d="m429.004 455.537h14.844v23.676h-14.844z" fill="#733617"/><path d="m429.004 319.642h26.422v25.902h-26.422z" fill="#733617"/><path d="m443.841 310.341h49.659v182.974h-49.659z" fill="#fd9133"/><path d="m478.656 310.365h14.844v182.949h-14.844z" fill="#fd8115"/><path d="m443.841 345.533c-49.815 17.346-94.546 19.223-117.671 70.782-66.1-7.187-118.762-13.147-152.215-70.782 81.418-117.484 173.401-89.692 269.886 0z" fill="#4398d1"/><path d="m330.887 407a100.017 100.017 0 0 0 -4.75 9.352c-66.055-7.2-118.75-13.211-152.149-70.805 30.8-44.457 63.161-68.133 96.633-75.481-14.284 6.418-28.338 16.116-42.122 29.428-24.363 23.531-20.464 63.622 8.263 81.566 26.121 16.313 57.866 21.708 94.125 25.94z" fill="#3089c5"/><path d="m243.28 321.531c-7.217.275-10.3-10.23-3.808-13.8 35.619-21.251 67.405-24.444 94.476-9.469a7.421 7.421 0 1 1 -7.183 12.988c-22.425-12.4-48.5-9.386-79.691 9.23a7.378 7.378 0 0 1 -3.794 1.051z" fill="#347cb3"/><path d="m244.471 18.688h249.029v199.917h-249.029z" fill="#8c421c"/><path d="m493.5 196.365v22.266h-249v-199.945h22.266a176.075 176.075 0 0 0 28.426 96.261 127.151 127.151 0 0 0 8.683 12.321c2.746 3.636 5.641 7.125 8.758 10.539a126.829 126.829 0 0 0 10.465 10.613 177.046 177.046 0 0 0 121.348 47.945z" fill="#733617"/><path d="m274.184 48.373h94.777v140.57h-94.777z" fill="#e5e5e5"/><path d="m368.961 48.373h94.852v140.57h-94.852z" fill="#e5e5e5"/><path d="m393.676 188.943h-24.715v-9.351a167.645 167.645 0 0 0 24.715 9.351z" fill="#d6d6d6"/><path d="m400.542 163.24c-6.263.211-9.942-8.075-5.371-12.542l38.077-39.929c6.72-6.983 17.418 3.183 10.741 10.242l-38.077 39.928a7.4 7.4 0 0 1 -5.37 2.301z" fill="#bfbfbf"/><path d="m394.153 128.849c-6.263.21-9.942-8.076-5.371-12.543l38.077-39.928c6.72-6.977 17.419 3.18 10.741 10.241l-38.077 39.929a7.4 7.4 0 0 1 -5.37 2.301z" fill="#bfbfbf"/><path d="m305.706 163.24c-6.266.212-9.939-8.08-5.366-12.546l38.131-39.929c6.71-6.988 17.416 3.194 10.733 10.249l-38.131 39.929a7.386 7.386 0 0 1 -5.367 2.297z" fill="#bfbfbf"/><path d="m299.306 128.849c-6.267.214-9.94-8.082-5.366-12.546l38.134-39.933c6.717-6.986 17.415 3.2 10.734 10.253l-38.135 39.932a7.4 7.4 0 0 1 -5.367 2.294z" fill="#bfbfbf"/><path d="m305.706 163.24c-6.266.212-9.939-8.08-5.366-12.546l38.131-39.929c6.71-6.988 17.416 3.194 10.733 10.249l-38.131 39.929a7.386 7.386 0 0 1 -5.367 2.297z" fill="#bfbfbf"/><path d="m299.306 128.849c-6.267.214-9.94-8.082-5.366-12.546l38.134-39.933c6.717-6.986 17.415 3.2 10.734 10.253l-38.135 39.932a7.4 7.4 0 0 1 -5.367 2.294z" fill="#bfbfbf"/><path d="m368.961 179.592v9.351h-94.777v-119.492a170.353 170.353 0 0 0 21 45.5 127.151 127.151 0 0 0 8.683 12.321c2.746 3.636 5.641 7.125 8.758 10.539a126.829 126.829 0 0 0 10.465 10.613 176.417 176.417 0 0 0 45.871 31.168z" fill="#d6d6d6"/><path d="m323.094 148.42-12.024 12.543a7.614 7.614 0 0 1 -5.343 2.3c-6.309.223-9.946-8.089-5.419-12.543l12.321-12.913a126.829 126.829 0 0 0 10.465 10.613z" fill="#bfbfbf"/><path d="m303.871 127.268a7.491 7.491 0 0 1 -4.6 1.558c-6.235.223-9.872-8.09-5.344-12.543l1.262-1.336a127.151 127.151 0 0 0 8.682 12.321z" fill="#bfbfbf"/><path d="m364.81 48.373h6.759v140.57h-6.759z" fill="#bfbfbf"/><path d="m129.63 201.22a85.684 85.684 0 0 1 -85.03-77.185 104.676 104.676 0 0 1 -.03-16.07c12.023-102.254 157.53-102.919 170.095-.271a98.219 98.219 0 0 1 .037 15.8 85.5 85.5 0 0 1 -85.072 77.726z" fill="#77a226"/><path d="m201.342 115.838c0 2.322-.136 4.576-.273 6.83a72.145 72.145 0 0 1 -16.118 38.793l-.342.341a71.792 71.792 0 0 1 -48.149 25.475h-.41a73.414 73.414 0 0 1 -12.84 0h-.41a71.783 71.783 0 0 1 -41.388-18.372l-5.054-5.122a71.573 71.573 0 0 1 -18.167-41.115 90.8 90.8 0 0 1 0-13.66 72.118 72.118 0 0 1 64.609-64.608 90.8 90.8 0 0 1 13.66 0 72.117 72.117 0 0 1 64.609 64.609c.137 2.253.273 4.507.273 6.829z" fill="#e5e5e5"/><path d="m201.1 122.665v.223a73.239 73.239 0 0 1 -16.032 38.445c-.1.1-.34.34-.445.445a72.123 72.123 0 0 1 -47.943 25.532h-.594a74.2 74.2 0 0 1 -12.84 0h-.668a71.511 71.511 0 0 1 -38.371-16.032 76.624 76.624 0 0 1 -10.019-10.019 72.082 72.082 0 0 1 -16.032-38.371v-.223a105.13 105.13 0 0 1 0-13.657v-.222c3.388-33.626 30.685-61.16 64.422-64.422h.223a104.761 104.761 0 0 1 13.656 0h.223c33.847 3.309 61.018 30.715 64.422 64.422v.222a101.7 101.7 0 0 1 -.002 13.657z" fill="#e5e5e5"/><path d="m190.191 154.134c-10.75 17.659-31.845 31.232-53.511 33.176h-.594a74.2 74.2 0 0 1 -12.84 0h-.668a71.511 71.511 0 0 1 -38.371-16.032 74.283 74.283 0 0 1 -10.019-10.019 72.082 72.082 0 0 1 -16.032-38.371v-.223a105.13 105.13 0 0 1 0-13.657v-.222a72.512 72.512 0 0 1 33.325-53.586c-42.345 64.45 35.748 138.518 98.71 98.934z" fill="#b8b8b8"/><path d="m136.68 187.31h-.594a74.2 74.2 0 0 1 -12.84 0h-.668c-.148-6.457-1.41-15.661 7.051-15.883 8.461.222 7.199 9.426 7.051 15.883z" fill="#a1a1a1"/><path d="m129.629 60.247c-8.461-.223-7.2-9.426-7.051-15.883h.223a104.761 104.761 0 0 1 13.656 0h.223c.148 6.457 1.41 15.66-7.051 15.883z" fill="#bfbfbf"/><path d="m201.1 122.665v.223c-6.457.222-15.66 1.41-15.883-7.051.223-8.461 9.426-7.2 15.883-7.051v.222a101.7 101.7 0 0 1 0 13.657z" fill="#bfbfbf"/><path d="m74.039 115.837c-.148 8.461-9.426 7.273-15.883 7.051v-.223a105.13 105.13 0 0 1 0-13.657v-.222c6.457-.149 15.661-1.41 15.883 7.051z" fill="#a1a1a1"/><path d="m185.07 161.333c-.1.1-.34.34-.445.445a71.189 71.189 0 0 1 -9.5 9.426c-4.75-4.379-11.949-10.094-6.16-16.031 6.012-5.789 11.652 1.41 16.105 6.16z" fill="#bfbfbf"/><path d="m90.368 76.5c-6.012 5.789-11.727-1.41-16.106-6.086a70.554 70.554 0 0 1 9.945-10.014c4.676 4.449 11.949 10.238 6.161 16.1z" fill="#bfbfbf"/><path d="m84.207 171.278a76.624 76.624 0 0 1 -10.019-10.019c4.453-4.75 10.242-11.875 16.18-6.086 5.714 6.011-1.411 11.652-6.161 16.105z" fill="#a1a1a1"/><path d="m185.07 70.415-6.085 6.085a7.056 7.056 0 0 1 -10.02 0c-5.863-5.938 1.484-11.727 6.16-16.106a74.6 74.6 0 0 1 9.945 10.021z" fill="#bfbfbf"/><path d="m185.07 161.333c-.1.1-.34.34-.445.445a71.189 71.189 0 0 1 -9.5 9.426c-2.449-2.227-5.566-4.9-7.125-7.719a60.037 60.037 0 0 0 14.324-5.047c.965.965 1.856 1.93 2.673 2.821z" fill="#a1a1a1"/><path d="m86.953 62.993a65.861 65.861 0 0 0 -5.417 14.25c-2.673-1.633-5.122-4.527-7.274-6.828a72.482 72.482 0 0 1 8.461-8.758c.445-.445.965-.816 1.484-1.262.843.851 1.827 1.679 2.746 2.598z" fill="#a1a1a1"/><path d="m113.79 138.945c-5.8.2-9.161-7.5-4.892-11.595l13.936-14.31v-33.285c.036-8.916 13.621-8.942 13.659 0v36.059a6.827 6.827 0 0 1 -1.937 4.765l-15.874 16.3a6.809 6.809 0 0 1 -4.892 2.066z" fill="#77a226"/></svg>