<svg viewBox="0 0 512 512" xmlns="http://www.w3.org/2000/svg"><g><path d="m332.824 90.184-12.24 72.216H191.416l-12.24-72.216a13.361 13.361 0 0 0 10.512-7.776L234.4 104.8l17.064-51.12a14.648 14.648 0 0 0 9.072 0L277.6 104.8l44.712-22.392a13.361 13.361 0 0 0 10.512 7.776z" fill="#ffcc66"></path><path d="M260.536 53.68a14.648 14.648 0 0 1-9.072 0C237.208 49.288 238.72 25.96 256 25.6c17.28.36 18.792 23.688 4.536 28.08zM189.688 82.408a13.361 13.361 0 0 1-10.512 7.776 12.137 12.137 0 0 1-2.376.216c-18.936-.36-18.936-28.44 0-28.8 12.384.216 16.7 12.312 12.888 20.808zM335.2 90.4a12.137 12.137 0 0 1-2.376-.216 13.361 13.361 0 0 1-10.512-7.776c-3.816-8.5.5-20.592 12.888-20.808 18.936.36 18.936 28.44 0 28.8z" fill="#ffba55"></path><path d="M414.328 270.4H306.4l64.8-79.2z" fill="#9fdbf3"></path><path d="m371.2 191.2-64.8 79.2-50.4-79.2z" fill="#b2e5fb"></path><path d="m256 191.2-50.4 79.2-64.8-79.2z" fill="#b2e5fb"></path><path d="M205.6 270.4h-108l43.2-79.2z" fill="#9fdbf3"></path><path d="M306.4 270.4H205.6l50.4-79.2z" fill="#8bd1ea"></path><path d="m256 486.4-158.4-216h108zM414.4 270.4 256 486.4l50.4-216z" fill="#b2e5fb"></path><path d="m306.4 270.4-50.4 216-50.4-216z" fill="#9fdbf3"></path><g fill="#ffde76"><path d="m436.007 133.597 10.77 18.023 18.023 10.778-18.023 10.769-10.77 18.031-10.777-18.031-18.023-10.769 18.023-10.778zM410.803 371.199l9.43 15.772 15.771 9.428-15.771 9.428-9.43 15.773-9.43-15.773-15.771-9.428 15.771-9.428zM118.823 385.599l10.775 18.025 18.025 10.775-18.025 10.775-10.775 18.026-10.776-18.026-18.025-10.775 18.025-10.775zM76 83.197l10.775 18.031 18.026 10.769-18.026 10.777L76 140.797l-10.775-18.023L47.2 111.997l18.025-10.769z" fill="#ffde76"></path></g></g></svg>