<svg viewBox="0 0 512 512" xmlns="http://www.w3.org/2000/svg"><g><path d="M466.775 474.138c-55.137 48.351-139.331 42.031-187.999-12.827L26.28 176.694C-11.286 134.35-8.384 69.245 33.744 31.437c42.301-37.964 107.59-34.2 145.259 8.261L358.668 242.22c26.125 29.448 24.288 74.743-4.906 101.153-29.479 26.668-75.145 24.103-101.466-5.566L95.524 161.091c-6.483-7.307-5.814-18.486 1.494-24.968 7.307-6.483 18.486-5.814 24.969 1.494l156.322 176.208c13.094 14.759 35.733 16.867 50.796 4.127 15.518-13.125 17.121-36.454 3.707-51.573L153.219 63.937c-24.475-27.588-66.807-31.176-94.766-7.124-28.457 24.48-31.284 67.58-6.46 95.562l253.39 285.624c35.632 40.165 97.269 45.039 137.777 9.798 40.904-35.586 44.856-97.842 8.957-138.309L246.55 77.772c-6.483-7.307-5.814-18.486 1.494-24.969 7.307-6.483 18.486-5.814 24.969 1.494l205.565 231.715c48.802 55.012 43.561 139.575-11.803 188.126z" fill="#cfd0d3"></path><path d="M115.766 136.123c.75-.666 1.55-1.237 2.373-1.753-6.482-4.062-15.109-3.581-21.121 1.753-7.308 6.483-7.975 17.662-1.494 24.969l156.772 176.715c16.355 18.435 40.177 26.396 62.945 23.392-16.495-2.152-32.317-10.001-44.197-23.392L114.273 161.091c-6.482-7.307-5.814-18.485 1.493-24.968zM452.116 309.488c35.9 40.467 31.949 102.724-8.957 138.309-15.757 13.708-34.713 21.319-54.09 23.171 25.595 2.437 52.008-5.05 72.838-23.171 40.904-35.586 44.856-97.842 8.957-138.309L265.299 77.772c-6.483-7.307-5.814-18.486 1.494-24.968a17.696 17.696 0 0 1 2.373-1.753c-6.482-4.062-15.109-3.581-21.121 1.753-7.307 6.483-7.975 17.661-1.494 24.968l205.565 231.716z" fill="#c0c1c4"></path><path d="m153.219 63.937 179.594 202.441c13.413 15.119 11.811 38.449-3.708 51.574a35.22 35.22 0 0 1-13.689 7.153c11.021 2.899 23.163.692 32.437-7.153 15.518-13.125 17.121-36.456 3.708-51.574L171.967 63.937c-15.726-17.726-38.82-25.524-60.74-22.469 15.683 2.176 30.729 9.774 41.992 22.469z" fill="#c0c1c4"></path><path d="M297.524 461.31 45.028 176.694C7.462 134.35 10.365 69.245 52.492 31.437c17.06-15.311 37.861-23.83 59.079-25.766-27.408-2.489-55.749 5.951-77.827 25.766-42.127 37.808-45.03 102.913-7.464 145.257L278.777 461.31c28.808 32.472 70.064 47.935 110.374 45.12-34.044-2.381-67.281-17.677-91.627-45.12z" fill="#c0c1c4"></path></g></svg>