<svg viewBox="0 0 512 512" xmlns="http://www.w3.org/2000/svg"><g><path d="M478.602 58.138h-36.343a7.734 7.734 0 1 1 0-15.468h36.343a7.734 7.734 0 1 1 0 15.468zM478.602 22.682h-36.343a7.734 7.734 0 1 1 0-15.468h36.343a7.734 7.734 0 1 1 0 15.468z" fill="#bed8fb"></path><path d="M181.579 223.271H106.34c-54.679 0-99.164-44.485-99.164-99.164s44.485-99.164 99.164-99.164h275.723a7.734 7.734 0 1 1 0 15.468H106.34c-46.15 0-83.696 37.546-83.696 83.696s37.545 83.696 83.696 83.696h75.239a7.734 7.734 0 1 1 0 15.468z" fill="#ffe07d"></path><path d="M153.743 432.218v63.232c0 9.143-7.406 16.549-16.535 16.549H83.159c-9.129 0-16.535-7.406-16.535-16.549v-63.232z" fill="#407093"></path><g fill="#365e7d"><path d="M66.624 432.218h87.118v43.896H66.624z" fill="#365e7d"></path><path d="M106.223 512H83.157c-9.129 0-16.535-7.406-16.535-16.549V432.22h23.052v63.232c0 9.142 7.406 16.548 16.549 16.548z" fill="#365e7d"></path></g><path d="M466.493 432.218v63.232c0 9.143-7.406 16.549-16.535 16.549H395.91c-9.129 0-16.535-7.406-16.535-16.549v-63.232z" fill="#407093"></path><g fill="#365e7d"><path d="M379.375 432.218h87.118v43.896h-87.118z" fill="#365e7d"></path><path d="M418.973 512h-23.066c-9.129 0-16.535-7.406-16.535-16.549V432.22h23.052v63.232c0 9.142 7.406 16.548 16.549 16.548z" fill="#365e7d"></path></g><path d="M455.511 283.931s4.495-66.357-36.597-142.585a16.411 16.411 0 0 0-10.08-8.034c-17.513-4.836-68.306-16.798-142.274-16.798s-124.761 11.962-142.274 16.798a16.417 16.417 0 0 0-10.08 8.034c-41.092 76.228-36.597 142.585-36.597 142.585z" fill="#95d6a4"></path><path d="M163.434 124.811a19.767 19.767 0 0 0-4.901 5.884c-35.709 66.261-42.267 126.221-43.236 153.232H77.608s-4.497-66.355 36.598-142.581a16.384 16.384 0 0 1 10.085-8.039c7.379-2.046 20.683-5.345 39.143-8.496z" fill="#78c2a4"></path><path d="m423.334 267.28-125.884-.633-100.583-.512-86.445-.431 1.293-14.084c2.935-22.136 10.166-54.237 27.819-88.963 21.409-5.346 59.933-12.092 108.191-13.532a572.57 572.57 0 0 1 18.837-.296c30.296 0 57.442 2.208 79.847 5.157 19.767 2.626 35.857 5.844 47.181 8.671 17.653 34.726 24.883 66.854 27.819 88.963z" fill="#b1e4f9"></path><path d="M346.408 153.986 297.45 266.647l-100.583-.512 50.857-117.011a572.57 572.57 0 0 1 18.837-.296c30.296 0 57.442 2.209 79.847 5.158z" fill="#d3effb"></path><path d="M182.145 154.626c-20.79 41.136-29.34 79.12-32.814 105.337l-.539 5.938-38.375-.189 1.293-14.098c2.922-22.123 10.166-54.237 27.819-88.963 10.421-2.599 24.91-5.534 42.616-8.025z" fill="#90d8f9"></path><path d="M422.167 265.581a7.735 7.735 0 0 1-7.666-6.79l-.767-6.235c-2.635-19.832-9.205-50.193-25.453-83.234-16.456-3.856-61.039-12.755-121.719-12.755-60.704 0-105.271 8.898-121.718 12.754-16.246 33.03-22.804 63.285-25.441 83.148l-.552 6.064a7.73 7.73 0 0 1-8.403 7.001 7.733 7.733 0 0 1-7.001-8.403l.566-6.221c.009-.104.021-.208.034-.312 2.864-21.689 10.15-55.161 28.591-91.454a7.732 7.732 0 0 1 5.022-4c13.202-3.295 61.515-14.045 128.902-14.045 67.359 0 115.691 10.75 128.901 14.045a7.734 7.734 0 0 1 5.023 4c18.399 36.21 25.703 69.716 28.59 91.448l.776 6.309a7.733 7.733 0 0 1-7.685 8.68z" fill="#78c2a4"></path><path d="M441.386 258.424a5433.581 5433.581 0 0 0-349.652 0c-28.509.917-52.22 22.419-55.558 50.747a272.678 272.678 0 0 0 0 64.035c3.338 28.328 27.049 49.83 55.558 50.747a5433.581 5433.581 0 0 0 349.652 0c28.509-.918 52.22-22.419 55.558-50.747a272.678 272.678 0 0 0 0-64.035c-3.338-28.328-27.049-49.83-55.558-50.747z" fill="#95d6a4"></path><path d="M127.212 424.984a5186.849 5186.849 0 0 1-35.48-1.023c-28.505-.916-52.217-22.419-55.557-50.75a272.39 272.39 0 0 1 0-64.039c3.339-28.317 27.051-49.82 55.557-50.736a5172.75 5172.75 0 0 1 35.426-1.01c-20.642 7.985-36.019 26.755-38.739 49.78a289.945 289.945 0 0 0 0 67.985c2.721 23.038 18.125 41.821 38.793 49.793z" fill="#78c2a4"></path><g fill="#ecf4ff"><circle cx="107.327" cy="341.189" fill="#ecf4ff" r="35.676"></circle><circle cx="425.793" cy="341.189" fill="#ecf4ff" r="35.676"></circle></g><g fill="#ddeafb"><path d="M117.998 375.228a35.404 35.404 0 0 1-10.678 1.629c-19.699 0-35.669-15.969-35.669-35.669 0-19.713 15.969-35.682 35.669-35.682 3.716 0 7.311.566 10.678 1.629-14.488 4.538-24.991 18.057-24.991 34.053 0 15.984 10.503 29.503 24.991 34.04zM436.472 375.228a35.472 35.472 0 0 1-10.678 1.629c-19.713 0-35.682-15.969-35.682-35.669 0-19.713 15.97-35.682 35.682-35.682 3.716 0 7.298.566 10.678 1.629-14.502 4.538-25.004 18.057-25.004 34.053-.001 15.984 10.502 29.503 25.004 34.04z" fill="#ddeafb"></path></g><path d="M480.772 403.087H52.348c-13.284 0-24.052 10.768-24.052 24.052 0 13.284 10.768 24.052 24.052 24.052h428.424c13.284 0 24.052-10.768 24.052-24.052 0-13.284-10.769-24.052-24.052-24.052z" fill="#ecf4ff"></path><path d="M500.365 441.088c-4.363 6.113-11.513 10.099-19.592 10.099H52.344c-6.652 0-12.657-2.693-17.006-7.042s-7.042-10.355-7.042-17.006c0-13.29 10.759-24.048 24.048-24.048h38.537a23.948 23.948 0 0 0-4.457 13.95c0 6.652 2.693 12.657 7.042 17.006s10.368 7.042 17.006 7.042h389.893z" fill="#ddeafb"></path><path d="M258.726 382.529a7.735 7.735 0 0 1-6.738-11.52l19.027-33.909-12.223.092h-.058a7.737 7.737 0 0 1-6.746-11.518l25.546-45.528a7.735 7.735 0 0 1 13.491 7.569l-19.027 33.909 12.223-.092c2.777-.002 5.316 1.428 6.718 3.801s1.434 5.314.086 7.717l-25.546 45.528a7.736 7.736 0 0 1-6.753 3.951z" fill="#ffe07d"></path><path d="M447.415 0h-46.179c-10.589 0-19.173 8.584-19.173 19.173v27.006c0 10.589 8.584 19.173 19.173 19.173h46.179z" fill="#407093"></path><path d="M447.415 42.033v23.319h-46.18c-10.586 0-19.171-8.586-19.171-19.172V22.862c0 10.586 8.585 19.171 19.171 19.171z" fill="#365e7d"></path></g></svg>