<svg viewBox="0 0 512 512" xmlns="http://www.w3.org/2000/svg"><g><path d="M253.594 394.133a7.111 7.111 0 0 0-6.827 5.12l-16.893 57.92a7 7 0 0 0 6.72 8.96h34a7 7 0 0 0 6.72-8.96l-16.893-57.92a7.113 7.113 0 0 0-6.827-5.12z" fill="#82aa41"></path><path d="M245.594 466.133h16v32h-16z" fill="#aa5a28"></path><path d="M53.594 394.133a7.111 7.111 0 0 0-6.827 5.12l-16.893 57.92a7 7 0 0 0 6.72 8.96h34a7 7 0 0 0 6.72-8.96l-16.893-57.92a7.113 7.113 0 0 0-6.827-5.12z" fill="#82aa41"></path><path d="M45.594 466.133h16v32h-16z" fill="#aa5a28"></path><path d="M133.594 242.133a8 8 0 0 0-8 8v8h-8c0-8.836-7.164-16-16-16v48h24v8a8 8 0 0 0 8 8h40v-64z" fill="#f0915a"></path><path d="M85.594 242.133h16a8 8 0 0 1 8 8v32a8 8 0 0 1-8 8h-16a8 8 0 0 1-8-8v-32a8 8 0 0 1 8-8z" fill="#fab991"></path><path d="M260.221 299.506c-12.496-12.497-32.758-12.497-45.254 0l-64 64a31.997 31.997 0 0 0-9.373 22.627v64c-17.673 0-32 14.327-32 32 0 8.836 7.164 16 16 16h64c8.836 0 16-7.164 16-16v-82.745l54.627-54.627c12.497-12.497 12.497-32.758 0-45.255z" fill="#f0915a"></path><path d="M413.593 450.133c0-8.189-3.124-16.379-9.373-22.627l-54.627-54.627v-66.745c0-17.673-14.327-32-32-32s-32 14.327-32 32v80a31.996 31.996 0 0 0 9.373 22.627l41.373 41.373h-2.746c-17.673 0-32 14.327-32 32 0 8.836 7.164 16 16 16h80c8.836 0 16-7.164 16-16z" fill="#fab991"></path><path d="M173.594 418.133c-8.189 0-16.379-3.124-22.628-9.373-12.496-12.497-12.496-32.758 0-45.255l64-64c12.498-12.497 32.758-12.497 45.256 0 12.496 12.497 12.496 32.758 0 45.255l-64 64c-6.249 6.249-14.439 9.373-22.628 9.373z" fill="#aa5a28"></path><path d="M317.594 418.133c-17.673 0-32-14.327-32-32v-80c0-17.673 14.327-32 32-32s32 14.327 32 32v80c0 17.673-14.328 32-32 32z" fill="#d76e28"></path><path d="M349.594 354.133h-176c-8.837 0-16-7.163-16-16v-24a8 8 0 0 1 8-8h192a8 8 0 0 1 8 8v24c0 8.837-7.164 16-16 16zM357.594 274.133h-192a8 8 0 0 1-8-8v-120h208v120a8 8 0 0 1-8 8z" fill="#faa51e"></path><path d="M357.594 306.133h-192a8 8 0 0 1-8-8v-16a8 8 0 0 1 8-8h192a8 8 0 0 1 8 8v16a8 8 0 0 1-8 8z" fill="#aa5a28"></path><path d="M218.927 274.133h40v32h-40z" fill="#463c4b"></path><path d="M333.594 34.133v32a8 8 0 0 0 8 8h8v8h32v-48z" fill="#f0915a"></path><path d="M253.594 34.133h144v24h-144zM133.594 66.133h112a8 8 0 0 0 8-8v-24a8 8 0 0 0-8-8h-112a8 8 0 0 0-8 8v24a8 8 0 0 0 8 8z" fill="#aa5a28"></path><path d="M405.594 66.133a8 8 0 0 0 8-8v-24a8 8 0 0 0-16 0v24a8 8 0 0 0 8 8z" fill="#463c4b"></path><path d="M333.594 66.133v-20a4 4 0 0 1 4-4c6.627 0 12 5.373 12 12v4c8.837 0 16 7.164 16 16h-24a8 8 0 0 1-8-8zM373.594 26.133h-32a8 8 0 0 0 0 16h32a8 8 0 0 0 0-16zM389.594 82.133h-48a8 8 0 0 0-8 8v56c-17.673 0-32 14.327-32 32s14.327 32 32 32h32c17.673 0 32-14.327 32-32v-88a8 8 0 0 0-8-8z" fill="#fab991"></path><path d="M229.594 218.133h-56c-17.673 0-32-14.327-32-32v-64c0-17.673 14.327-32 32-32h80c17.673 0 32 14.327 32 32v24c0 13.255-10.745 24-24 24v16c0 17.673-14.327 32-32 32z" fill="#f0915a"></path><path d="M205.594 218.133h-32c-17.673 0-32-14.327-32-32v-64c0-17.673 14.327-32 32-32h32c17.673 0 32 14.327 32 32v64c0 17.673-14.327 32-32 32zM245.594 170.133h-8v-16c0-8.837 7.163-16 16-16h8v16c0 8.837-7.164 16-16 16z" fill="#fab991"></path><path d="M157.594 186.133h40v8h-40z" fill="#f0697d"></path><path d="M157.594 178.133v16h8v-8a8 8 0 0 0-8-8zM197.594 178.133v16h-8v-8a8 8 0 0 1 8-8z" fill="#d7e6f0"></path><path d="M149.594 18.133c1.666 0 3.222.833 4.146 2.219l3.854 5.781h-16l3.854-5.781a4.983 4.983 0 0 1 4.146-2.219zM189.594 18.133c1.666 0 3.222.833 4.146 2.219l3.854 5.781h-16l3.854-5.781a4.983 4.983 0 0 1 4.146-2.219zM229.594 18.133c1.666 0 3.222.833 4.146 2.219l3.854 5.781h-16l3.854-5.781a4.983 4.983 0 0 1 4.146-2.219zM149.594 74.133a4.983 4.983 0 0 0 4.146-2.219l3.854-5.781h-16l3.854 5.781a4.98 4.98 0 0 0 4.146 2.219zM189.594 74.133a4.983 4.983 0 0 0 4.146-2.219l3.854-5.781h-16l3.854 5.781a4.98 4.98 0 0 0 4.146 2.219zM229.594 74.133a4.983 4.983 0 0 0 4.146-2.219l3.854-5.781h-16l3.854 5.781a4.98 4.98 0 0 0 4.146 2.219z" fill="#aac3d7"></path><circle cx="149.594" cy="46.133" fill="#aac3d7" r="8"></circle><circle cx="189.594" cy="46.133" fill="#aac3d7" r="8"></circle><circle cx="229.594" cy="46.133" fill="#aac3d7" r="8"></circle><path d="M93.594 170.133a7.112 7.112 0 0 0-6.827 5.12l-16.893 57.92a7 7 0 0 0 6.72 8.96h34a7 7 0 0 0 6.72-8.96l-16.893-57.92a7.113 7.113 0 0 0-6.827-5.12zM453.594 394.133a7.112 7.112 0 0 0-6.827 5.12l-16.893 57.92a7 7 0 0 0 6.72 8.96h34a7 7 0 0 0 6.72-8.96l-16.893-57.92a7.113 7.113 0 0 0-6.827-5.12z" fill="#82aa41"></path><path d="M85.594 290.133h16v8h-16z" fill="#aa5a28"></path><path d="M85.594 290.133v4a4 4 0 0 1-4 4 4 4 0 0 0 0 8h24a4 4 0 0 0 0-8 4 4 0 0 1-4-4v-4zM445.594 466.133h16v32h-16z" fill="#aa5a28"></path><circle cx="101.594" cy="330.133" fill="#aa5a28" r="8"></circle><circle cx="85.594" cy="394.133" fill="#aa5a28" r="8"></circle></g></svg>