<svg viewBox="0 0 504.5 504.5" xmlns="http://www.w3.org/2000/svg"><g><path d="M269.75 177.5c-53.762 0-97.5 43.738-97.5 97.5 0 4.143 3.358 7.5 7.5 7.5s7.5-3.357 7.5-7.5c0-45.49 37.009-82.5 82.5-82.5h60v-15z" fill="#a45e43"></path><path d="M389.75 177.5h-60v15h60c45.491 0 82.5 37.01 82.5 82.5 0 4.143 3.358 7.5 7.5 7.5s7.5-3.357 7.5-7.5c0-53.762-43.738-97.5-97.5-97.5z" fill="#85453d"></path><g fill="#4f4f4f"><path d="M262.25 434.5c-4.143 0-7.5 3.357-7.5 7.5s3.357 7.5 7.5 7.5h30v-15zM232.25 449.5h-15c-4.142 0-7.5-3.357-7.5-7.5s3.358-7.5 7.5-7.5h15c4.142 0 7.5 3.357 7.5 7.5s-3.358 7.5-7.5 7.5zM187.25 449.5h-15c-4.142 0-7.5-3.357-7.5-7.5s3.358-7.5 7.5-7.5h15c4.142 0 7.5 3.357 7.5 7.5s-3.358 7.5-7.5 7.5zM142.25 434.5h-30v15h30c4.142 0 7.5-3.357 7.5-7.5s-3.358-7.5-7.5-7.5z" fill="#4f4f4f"></path></g><path d="M292.25 285v196.592l-24.87 8.29a7.5 7.5 0 0 0 4.743 14.231l29.998-10a7.5 7.5 0 0 0 5.128-7.115V285z" fill="#a45e43"></path><path d="M367.25 285v196.592l24.87 8.29a7.5 7.5 0 0 1-4.743 14.231l-29.998-10a7.5 7.5 0 0 1-5.128-7.115V285z" fill="#85453d"></path><path d="M277.25 427h45v30h-45z" fill="#696969"></path><path d="M369.75 165h-30l-40 150 75-30v-45c8.964-4.993 15-14.315 15-25v-30c0-11.046-8.954-20-20-20z" fill="#85453d"></path><path d="M339.75 165h-50c-11.046 0-20 8.954-20 20v30c0 10.685 6.036 20.007 15 25v45l60 15v-60c8.964-4.993 15-14.315 15-25v-30c0-11.046-8.954-20-20-20z" fill="#a45e43"></path><circle cx="359.75" cy="195.417" fill="#60312c" r="7.5"></circle><circle cx="299.75" cy="195.417" fill="#85453d" r="7.5"></circle><path d="m329.75 275-15 10-15-10-15 10v60c0 8.284 6.716 15 15 15s15-6.716 15-15v-17.571c4.693 1.659 9.739 2.571 15 2.571s10.307-.912 15-2.571l15-21.215-15-21.215z" fill="#fff0d3"></path><path d="m359.751 275-15.001 10v60c0 8.284 6.716 15 15 15s15-6.716 15-15v-60z" fill="#ffe2a8"></path><path d="M397.25 67.5c0-5.023-2.478-9.458-6.268-12.18 2.46-3.966 3.052-9.011 1.13-13.651s-5.908-7.79-10.452-8.854c.755-4.605-.629-9.493-4.18-13.044-3.552-3.552-8.439-4.936-13.044-4.18-1.065-4.543-4.214-8.53-8.854-10.452s-9.686-1.33-13.651 1.13C339.208 2.478 334.773 0 329.75 0s-9.458 2.478-12.18 6.268c-3.966-2.46-9.011-3.052-13.651-1.13s-7.79 5.908-8.854 10.452c-4.605-.755-9.493.629-13.044 4.18-3.552 3.552-4.936 8.439-4.18 13.044-4.543 1.065-8.53 4.214-10.452 8.854s-1.33 9.686 1.13 13.651c-3.79 2.722-6.268 7.157-6.268 12.18s2.478 9.458 6.268 12.18c-2.46 3.966-3.052 9.011-1.13 13.651s5.908 7.79 10.452 8.854c-.755 4.605.629 9.493 4.18 13.044 3.693 3.693 8.833 5.058 13.596 4.094h68.268c4.762.964 9.902-.401 13.596-4.094 3.552-3.552 4.936-8.439 4.18-13.044 4.543-1.065 8.53-4.214 10.452-8.854s1.33-9.686-1.13-13.651c3.789-2.721 6.267-7.156 6.267-12.179z" fill="#40211d"></path><path d="M329.75 45v90c24.853 0 45-20.147 45-45s-20.147-45-45-45z" fill="#85453d"></path><path d="M344.75 90c0-24.853-6.716-45-15-45-24.853 0-45 20.147-45 45s20.147 45 45 45c8.284 0 15-20.147 15-45z" fill="#a45e43"></path><path d="M72.25 387v110c30.376 0 55-24.624 55-55s-24.624-55-55-55z" fill="#353535"></path><path d="M97.25 442c0-30.376-11.193-55-25-55-30.376 0-55 24.624-55 55s24.624 55 55 55c13.807 0 25-24.624 25-55z" fill="#4f4f4f"></path></g></svg>