<svg viewBox="0 0 50 50" xmlns="http://www.w3.org/2000/svg"><g><path d="m11.1 31-7.9 3.3c1.2 2.9 2.9 5.5 5.1 7.6l6-6c-1.3-1.4-2.4-3.1-3.2-4.9z" fill="#8cf2ed"></path><path d="M10 25.2H1.5c0 3.2.6 6.2 1.8 9l7.9-3.3c-.8-1.7-1.2-3.6-1.2-5.7z" fill="#6cd8d5"></path><path d="M10 25.2c0-2 .4-4 1.1-5.7l-7.9-3.3c-1.1 2.8-1.8 5.8-1.8 9z" fill="#50c9c3"></path><path d="M38.9 31c-.8 1.8-1.9 3.5-3.2 4.9l6 6c2.2-2.2 3.9-4.8 5.1-7.6z" fill="#ed2f58"></path><path d="m14.4 14.6-6-6c-2.2 2.2-3.9 4.8-5.1 7.6l7.9 3.3c.7-1.8 1.8-3.5 3.2-4.9z" fill="#6eb0ff"></path><path d="M40 25.2h8.5c0-3.2-.6-6.2-1.8-9l-7.9 3.3c.8 1.8 1.2 3.7 1.2 5.7z" fill="#ff6989"></path><path d="m35.6 14.6 6-6c-2.2-2.2-4.8-3.9-7.6-5.1l-3.3 7.9c1.9.7 3.5 1.8 4.9 3.2z" fill="#fecd04"></path><path d="m38.9 31 7.9 3.3c1.1-2.8 1.8-5.8 1.8-9h-8.5c-.1 2-.5 3.9-1.2 5.7z" fill="#fa4968"></path><path d="m38.9 19.5 7.9-3.3c-1.2-2.9-2.9-5.5-5.1-7.6l-6 6c1.3 1.4 2.4 3.1 3.2 4.9z" fill="#eabe06"></path><path d="M19.2 11.3 16 3.5c-2.9 1.2-5.5 2.9-7.6 5.1l6 6c1.4-1.4 3-2.5 4.8-3.3z" fill="#559aff"></path><path d="M25 10.2c2 0 4 .4 5.8 1.1L34 3.5c-2.8-1.2-5.8-1.8-9-1.8z" fill="#ffd731"></path><path d="M25 10.2V1.7c-3.2 0-6.2.6-9 1.8l3.3 7.9c1.7-.8 3.7-1.2 5.7-1.2z" fill="#3a8bed"></path><path d="M27.4 25.2c0 1.3-1.1 2.4-2.4 2.4s-2.4-1.1-2.4-2.4 1.1-10.9 2.4-10.9 2.4 9.6 2.4 10.9z" fill="#6e9583"></path><circle cx="25" cy="25.2" fill="#9ab2a5" r="4.3"></circle><path d="m25 34.2 1.9 3.8 4.1.6-3 3 .7 4.1-3.7-1.9-3.7 1.9.7-4.1-3-3 4.1-.6z" fill="#ffb95c"></path><path d="m35.5 40.9 1.2 2.5 2.6.4-1.9 1.8.5 2.7-2.4-1.2-2.4 1.2.4-2.7-1.9-1.8 2.7-.4z" fill="#c6cc4a"></path><path d="m14.5 40.9 1.2 2.5 2.7.4-1.9 1.8.4 2.7-2.4-1.2-2.4 1.2.5-2.7-1.9-1.8 2.6-.4z" fill="#ffa49f"></path></g></svg>