<svg viewBox="0 0 512 512" xmlns="http://www.w3.org/2000/svg"><g><path d="m457.859 432.652-23.536 23.536c-5.858 5.858-15.355 5.858-21.213 0L308.449 351.527l44.749-44.749 104.661 104.661c5.858 5.858 5.858 15.355 0 21.213z" fill="#9d6b6b"></path><path d="M457.856 411.435 353.198 306.778l-18.602 18.602 87.011 87.011c5.332 5.332 5.332 13.978 0 19.31l-16.493 16.493 7.992 7.992c5.86 5.86 15.36 5.86 21.22 0l23.529-23.53c5.861-5.861 5.861-15.361.001-21.221z" fill="#785252"></path><circle cx="258.362" cy="256.69" fill="#b3d8fb" r="145.374"></circle><path d="M361.157 153.895a145.411 145.411 0 0 0-33.123-24.828c30.151 55.174 21.882 125.757-24.828 172.467s-117.293 54.979-172.467 24.828a145.36 145.36 0 0 0 24.828 33.123c56.772 56.772 148.818 56.772 205.59 0s56.772-148.818 0-205.59z" fill="#89c6fc"></path><path d="M258.362 409.495c-39.149 0-78.296-14.901-108.1-44.704-59.606-59.607-59.606-156.594 0-216.201 59.608-59.606 156.593-59.606 216.201 0 59.605 59.607 59.605 156.594 0 216.201-29.805 29.803-68.952 44.704-108.101 44.704zm0-290.612c-35.306 0-70.612 13.44-97.49 40.318-53.757 53.756-53.757 141.224 0 194.979 53.755 53.757 141.225 53.757 194.979 0 53.756-53.756 53.756-141.224 0-194.979-26.877-26.879-62.183-40.318-97.489-40.318z" fill="#785252"></path><path d="M352.828 245.648c6.727 6.386 6.727 17.124 0 23.51-17.424 16.541-53.129 44.688-94.344 44.688s-76.92-28.147-94.344-44.688c-6.727-6.386-6.727-17.124 0-23.51 17.424-16.541 53.129-44.688 94.344-44.688s76.92 28.147 94.344 44.688z" fill="#fceed9"></path><path d="M352.828 245.648c-5.406-5.132-12.574-11.38-21.117-17.559 1.201 5.368-.335 11.23-4.638 15.315-17.424 16.541-53.129 44.688-94.344 44.688-28.429 0-54.233-13.392-73.227-27.129a16.1 16.1 0 0 0 4.638 8.196c17.424 16.541 53.128 44.688 94.344 44.688s76.92-28.147 94.344-44.688c6.727-6.387 6.727-17.125 0-23.511z" fill="#fad59a"></path><circle cx="258.484" cy="257.403" fill="#7c8b96" r="29.314"></circle><path d="M268.108 229.714a29.263 29.263 0 0 1 1.625 9.625c0 16.19-13.124 29.314-29.314 29.314-3.373 0-6.609-.577-9.625-1.625 3.983 11.46 14.872 19.689 27.689 19.689 16.19 0 29.314-13.124 29.314-29.314.001-12.817-8.228-23.706-19.689-27.689z" fill="#465961"></path><path d="M388.236 122.39a7.503 7.503 0 0 1-5.305-12.808l35.435-35.435c4.363-4.361 11.46-4.362 15.822-.001l14.134 14.134 48.146-48.148a7.503 7.503 0 0 1 10.611 10.611l-50.845 50.846c-4.367 4.359-11.461 4.359-15.822.001l-14.134-14.134-32.736 32.737a7.484 7.484 0 0 1-5.306 2.197z" fill="#1690fb"></path><path d="M503.435 79.464a7.501 7.501 0 0 1-7.502-7.502V51.669H475.64c-4.144 0-7.502-3.358-7.502-7.502s3.358-7.502 7.502-7.502h27.796a7.501 7.501 0 0 1 7.502 7.502v27.796a7.502 7.502 0 0 1-7.503 7.501zM39.574 101.905C18.272 101.905.94 84.574.94 63.271s17.331-38.634 38.634-38.634 38.634 17.331 38.634 38.634-17.332 38.634-38.634 38.634zm0-62.263c-13.029 0-23.629 10.6-23.629 23.629S26.544 86.9 39.574 86.9s23.629-10.6 23.629-23.629-10.6-23.629-23.629-23.629z" fill="#1690fb"></path><path d="M39.574 101.905C18.272 101.905.94 84.574.94 63.271s17.331-38.634 38.634-38.634 38.634 17.331 38.634 38.634c0 4.144-3.358 7.502-7.502 7.502s-7.502-3.358-7.502-7.502c0-13.029-10.6-23.629-23.629-23.629s-23.629 10.6-23.629 23.629S26.544 86.9 39.574 86.9a7.503 7.503 0 0 1 0 15.005z" fill="#f9c301"></path><path d="M40.721 204.891c-21.302 0-38.634-17.331-38.634-38.634s17.331-38.634 38.634-38.634 38.634 17.331 38.634 38.634-17.331 38.634-38.634 38.634zm0-62.263c-13.029 0-23.629 10.6-23.629 23.629s10.6 23.629 23.629 23.629 23.629-10.6 23.629-23.629-10.599-23.629-23.629-23.629z" fill="#1690fb"></path><path d="M18.595 195.659a7.48 7.48 0 0 1-5.332-2.224c-7.206-7.282-11.175-16.933-11.175-27.177 0-21.302 17.331-38.634 38.634-38.634 4.144 0 7.502 3.358 7.502 7.502s-3.358 7.502-7.502 7.502c-13.029 0-23.629 10.6-23.629 23.629a23.483 23.483 0 0 0 6.834 16.621 7.502 7.502 0 0 1-5.332 12.781z" fill="#d82e3d"></path><path d="M40.721 306.673c-21.302 0-38.634-17.331-38.634-38.634s17.331-38.634 38.634-38.634 38.634 17.331 38.634 38.634-17.331 38.634-38.634 38.634zm0-62.263c-13.029 0-23.629 10.6-23.629 23.629s10.6 23.629 23.629 23.629 23.629-10.6 23.629-23.629c.001-13.029-10.599-23.629-23.629-23.629z" fill="#1690fb"></path><path d="M71.853 275.542a7.501 7.501 0 0 1-7.502-7.502c0-13.029-10.6-23.629-23.629-23.629-4.144 0-7.502-3.358-7.502-7.502s3.358-7.502 7.502-7.502c21.302 0 38.634 17.331 38.634 38.634a7.503 7.503 0 0 1-7.503 7.501z" fill="#f9c301"></path><path d="M175.085 51.615H108.69c-4.144 0-7.502-3.358-7.502-7.502s3.358-7.502 7.502-7.502h66.395c4.144 0 7.502 3.358 7.502 7.502s-3.358 7.502-7.502 7.502zM141.887 83.586h-33.198c-4.144 0-7.502-3.358-7.502-7.502s3.358-7.502 7.502-7.502h33.198c4.144 0 7.502 3.358 7.502 7.502s-3.358 7.502-7.502 7.502zM504.498 157.779h-36.636c-4.144 0-7.502-3.358-7.502-7.502s3.358-7.502 7.502-7.502h36.636c4.144 0 7.502 3.358 7.502 7.502s-3.358 7.502-7.502 7.502z" fill="#1690fb"></path><circle cx="440.041" cy="150.472" fill="#1690fb" r="8.333"></circle><path d="M504.498 188.361h-36.636c-4.144 0-7.502-3.358-7.502-7.502s3.358-7.502 7.502-7.502h36.636c4.144 0 7.502 3.358 7.502 7.502s-3.358 7.502-7.502 7.502z" fill="#1690fb"></path><circle cx="440.041" cy="181.053" fill="#1690fb" r="8.333"></circle><path d="M306.187 455.756h-36.636c-4.144 0-7.502-3.358-7.502-7.502s3.358-7.502 7.502-7.502h36.636a7.501 7.501 0 0 1 7.502 7.502 7.502 7.502 0 0 1-7.502 7.502z" fill="#1690fb"></path><circle cx="241.73" cy="448.448" fill="#1690fb" r="8.333"></circle><path d="M306.187 486.337h-36.636c-4.144 0-7.502-3.358-7.502-7.502s3.358-7.502 7.502-7.502h36.636c4.144 0 7.502 3.358 7.502 7.502s-3.358 7.502-7.502 7.502z" fill="#1690fb"></path><circle cx="241.73" cy="479.03" fill="#1690fb" r="8.333"></circle><path d="M504.498 219.006h-36.636c-4.144 0-7.502-3.358-7.502-7.502s3.358-7.502 7.502-7.502h36.636c4.144 0 7.502 3.358 7.502 7.502s-3.358 7.502-7.502 7.502zM504.498 249.587h-36.636c-4.144 0-7.502-3.358-7.502-7.502s3.358-7.502 7.502-7.502h36.636c4.144 0 7.502 3.358 7.502 7.502s-3.358 7.502-7.502 7.502z" fill="#1690fb"></path><circle cx="440.041" cy="242.28" fill="#1690fb" r="8.333"></circle><path d="M504.498 280.169h-36.636c-4.144 0-7.502-3.358-7.502-7.502s3.358-7.502 7.502-7.502h36.636c4.144 0 7.502 3.358 7.502 7.502s-3.358 7.502-7.502 7.502zM504.498 310.751h-36.636c-4.144 0-7.502-3.358-7.502-7.502s3.358-7.502 7.502-7.502h36.636a7.501 7.501 0 0 1 7.502 7.502 7.502 7.502 0 0 1-7.502 7.502z" fill="#1690fb"></path><circle cx="440.041" cy="303.443" fill="#1690fb" r="8.333"></circle><path d="M42.525 443.676H15.311a4 4 0 0 0-4 4v31.213h35.213v-31.213c.001-2.209-1.79-4-3.999-4zM101.981 397.637H74.767a4 4 0 0 0-4 4v77.253h35.213v-77.253c.001-2.21-1.79-4-3.999-4zM162.895 424.492h-27.213a4 4 0 0 0-4 4v50.398h35.213v-50.398a4 4 0 0 0-4-4z" fill="#1690fb"></path><path d="M42.523 443.677H27.428a4 4 0 0 1 4.001 4.001v31.212h15.095v-31.212a4 4 0 0 0-4.001-4.001zM101.979 397.637H86.884a4.001 4.001 0 0 1 4.001 4.001v77.252h15.095v-77.252a4 4 0 0 0-4.001-4.001zM162.893 424.492h-15.095a4.001 4.001 0 0 1 4.001 4.001v50.396h15.095v-50.396a4 4 0 0 0-4.001-4.001z" fill="#0571f9"></path><path d="M202.468 486.392H7.502c-4.144 0-7.502-3.358-7.502-7.502s3.358-7.502 7.502-7.502h194.966c4.144 0 7.502 3.358 7.502 7.502s-3.358 7.502-7.502 7.502z" fill="#1690fb"></path></g></svg>