<svg viewBox="0 0 48 48" xmlns="http://www.w3.org/2000/svg"><g><path d="M7 28a4 4 0 0 1 0-8zm34 0a4 4 0 0 0 0-8z" fill="#f2d6ad"></path><path d="M3.107 24.892A4.032 4.032 0 0 1 3 24a4 4 0 0 1 4-4v1zM44.64 22.36A3.994 3.994 0 0 0 41 20v6z" fill="#fcf6f2"></path><circle cx="24" cy="24" fill="#f2d6ad" r="18" transform="rotate(-80.8 23.995 24.003)"></circle><path d="M24 6.001c-9.941 0-18 8.059-18 18 0 5.992 2.939 11.285 7.442 14.557l25.114-25.114C35.285 8.94 29.992 6.001 24 6.001z" fill="#fcf6f2"></path><circle cx="24" cy="36" fill="#5e5e5e" r="3"></circle><path d="m21.879 38.122 4.242-4.243a3 3 0 1 0-4.242 4.243z" fill="#919191"></path><circle cx="31" cy="24" fill="#cccccc" r="4"></circle><path d="M33.828 21.171a4 4 0 0 0-5.656 5.657z" fill="#efefef"></path><path d="M20.999 24a4 4 0 1 1-7.999.001A4 4 0 0 1 21 24z" fill="#cccccc"></path><path d="M19.828 21.171a4 4 0 0 0-5.657 5.657z" fill="#efefef"></path><circle cx="24" cy="28" fill="#d3b48d" r="2"></circle><path d="M24 26a2 2 0 0 0-1.414 3.414l2.828-2.828A1.994 1.994 0 0 0 24 26z" fill="#e2d8d3"></path><path d="M24 6.001c-9.941 0-18 8.059-18 18 0 1.581.225 3.105.606 4.565C7.126 16.125 20.875 22.875 31 15c5.624 6.749 10.393 4.501 10.394 13.561C41.776 27.103 42 25.58 42 24c0-9.94-8.059-17.999-18-17.999z" fill="#f99f10"></path><path d="m30.998 15.002 4.682-4.682A17.914 17.914 0 0 0 24 6C14.059 6 6 14.059 6 24c0 1.581.225 3.105.606 4.565.519-12.44 14.267-5.69 24.392-13.563z" fill="#f9c900"></path><g fill="#828282"><circle cx="31" cy="24" fill="#828282" r="1"></circle><circle cx="17" cy="24" fill="#828282" r="1"></circle></g></g></svg>