<svg viewBox="0 0 512 512" xmlns="http://www.w3.org/2000/svg"><g><g clip-rule="evenodd" fill-rule="evenodd"><circle cx="398.185" cy="377.57" fill="#8ac9fe" r="97.815" transform="rotate(-45 398.146 377.672)"></circle><path d="M398.185 279.756c54.022 0 97.815 43.793 97.815 97.814s-43.793 97.815-97.815 97.815c-1.677 0-3.344-.043-5-.126C444.883 472.656 486 429.915 486 377.571s-41.116-95.085-92.814-97.688a98.622 98.622 0 0 1 4.999-.127z" fill="#60b7ff"></path><path d="m385.338 386.198 47.562-48.036c5.63-5.686 14.815-5.702 20.484-.064 5.669 5.637 5.687 14.796.063 20.472-19.287 19.465-38.443 39.059-57.819 58.436-5.664 5.665-14.853 5.664-20.517 0l-32.146-32.146c-5.664-5.664-5.664-14.853 0-20.517 5.664-5.665 14.853-5.665 20.518 0z" fill="#eceff1"></path><path d="M162.892 337.915H26.003c-5.509 0-10.003 4.493-10.003 10.003V472.06c0 5.509 4.493 10.003 10.003 10.003h38.529c-4.06-6.675-6.48-8.757-6.48-24.192s13.744-39.376 30.698-39.376 30.698 23.941 30.698 39.376-2.42 17.517-6.479 24.192h49.923c5.509 0 10.002-4.493 10.002-10.003v-37.853c6.675 4.059 15.07 6.48 24.192 6.48 21.749 0 39.376-13.744 39.376-30.698s-17.627-30.698-39.376-30.698c-9.122 0-17.517 2.42-24.192 6.48v-37.853c.001-5.51-4.493-10.003-10.002-10.003z" fill="#6cf5c2"></path><path d="M162.892 337.915H26.003c-5.509 0-10.003 4.493-10.003 10.003V472.06c0 5.508 4.492 10.001 10 10.003V357.918c0-5.509 4.493-10.003 10.003-10.003H172.894c-.001-5.508-4.494-10-10.002-10z" fill="#00e499"></path><path d="M289.128 266.413c3.772-64.177 31.585-61.574 31.585-105.114 0-43.296-35.099-78.395-78.395-78.395-43.297 0-78.395 35.098-78.395 78.395 0 43.54 27.813 40.937 31.585 105.114l.001 12.741c0 7.007 5.733 12.739 12.739 12.739h68.141c7.006 0 12.738-5.732 12.738-12.739z" fill="#ffe177"></path><path d="M289.128 266.413c3.772-64.177 31.585-61.574 31.585-105.114 0-43.296-35.099-78.395-78.395-78.395-1.73 0-3.446.062-5.148.173 40.896 2.652 73.247 36.656 73.247 78.222 0 43.54-27.813 40.937-31.585 105.114l-.001 12.741c0 7.007-5.732 12.739-12.738 12.739h10.296c7.006 0 12.738-5.732 12.738-12.739z" fill="#ffd064"></path><path d="M220.78 266.418v-78.322h-10.218c-7.218 0-13.775-2.947-18.523-7.695-4.748-4.747-7.695-11.304-7.695-18.522s2.947-13.775 7.695-18.523 11.305-7.695 18.523-7.695 13.775 2.947 18.523 7.695 7.695 11.305 7.695 18.523v10.218h11.076v-10.218c0-7.218 2.947-13.775 7.695-18.523s11.305-7.695 18.523-7.695 13.775 2.947 18.522 7.695c4.748 4.748 7.695 11.305 7.695 18.523s-2.947 13.775-7.695 18.523-11.305 7.695-18.523 7.695h-10.218v78.322h-16v-78.322H236.78v78.322h-16zm0-94.322v-10.218c0-2.801-1.152-5.354-3.008-7.21s-4.409-3.008-7.21-3.008-5.354 1.152-7.21 3.008-3.008 4.409-3.008 7.21 1.152 5.354 3.008 7.21 4.409 3.008 7.21 3.008zm43.077 0h10.218c2.802 0 5.355-1.152 7.21-3.008 1.856-1.856 3.008-4.409 3.008-7.21s-1.152-5.354-3.008-7.21c-1.855-1.856-4.409-3.008-7.21-3.008s-5.354 1.152-7.21 3.008-3.008 4.409-3.008 7.21z" fill="#ffc338"></path><path d="M250.318 56.404a8 8 0 0 1-16 0V37.938a8 8 0 0 1 16 0zm98.415 66.035a7.981 7.981 0 0 1-8-13.812l15.992-9.233a7.981 7.981 0 0 1 8 13.812zm-40.379-46.192a7.981 7.981 0 0 1-13.812-8l9.233-15.992a7.981 7.981 0 0 1 13.812 8zm-164.45 32.379a7.981 7.981 0 0 1-8 13.812l-15.992-9.233a7.981 7.981 0 0 1 8-13.812zm46.192-40.379a7.981 7.981 0 0 1-13.812 8l-9.233-15.992a7.981 7.981 0 0 1 13.812-8z" fill="#ffe177"></path><path d="M263.75 312.228h-42.011v17.884c0 7.006 5.733 12.739 12.739 12.739h16.533c7.006 0 12.739-5.732 12.739-12.739z" fill="#b1b1b5"></path><path d="M264.076 317.372c7.006 0 12.738-5.731 12.738-12.739v-17.644h-68.14v17.644c0 7.007 5.732 12.739 12.74 12.739z" fill="#d1d1d6"></path><path d="M264.076 317.372c7.006 0 12.738-5.731 12.738-12.739v-17.644h-7.702v17.644c0 7.007-5.732 12.739-12.738 12.739z" fill="#b1b1b5"></path><path d="M289.128 266.413h-93.619v12.741c0 7.007 5.733 12.739 12.739 12.739h68.141c7.006 0 12.738-5.732 12.738-12.739z" fill="#eceff1"></path><path d="M289.128 266.413h-10.296l-.001 12.741c0 7.007-5.732 12.739-12.738 12.739h10.296c7.006 0 12.738-5.732 12.738-12.739z" fill="#d1d1d6"></path></g></g></svg>