<svg id="Layer_1" enable-background="new 0 0 512 512" height="512" viewBox="0 0 512 512" width="512" xmlns="http://www.w3.org/2000/svg"><g><path d="m359.6504 10.7763c75.9224 36.8707 132.8609 106.6784 152.2449 190.8523.5326 2.3126-1.0219 4.5862-3.3745 4.8974l-110.2985 14.5898c-1.9673.2602-3.8084-.9649-4.3759-2.8665-12.646-42.3748-41.9023-77.5695-80.2176-98.0329-1.8046-.9638-2.5641-3.1555-1.7821-5.046l42.3268-102.3319c.8857-2.1416 3.3922-3.0746 5.4769-2.0622z" fill="#98db7c"/><path d="m236.34 100.9283c13.0909 0 25.8243 1.5508 38.0472 4.4336 1.914.4514 3.8761-.5245 4.6272-2.3418l24.6726-59.6953c.9183-2.2218-.3146-4.7389-2.6275-5.3947-20.5618-5.8303-42.2813-8.9769-64.7195-8.9769-130.5211-.0001-236.34 105.819-236.34 236.3398s105.8189 236.3399 236.34 236.3399c4.8151 0 9.597-.1505 14.3456-.4387 2.3283-.1413 4.0548-2.2168 3.7491-4.5293l-8.4148-63.6539c-.269-2.0345-2.0308-3.5449-4.0818-3.4757-1.8557.0626-3.7217.094-5.598.094-90.7715 0-164.3363-73.5652-164.3363-164.3363s73.5647-164.3647 164.3362-164.3647z" fill="#ff4755"/><path d="m467.7119 247.1982-63.6442 8.4135c-2.0414.2699-3.5536 2.0422-3.4751 4.0998.0705 1.8501.1122 3.7107.1122 5.5815 0 74.4281-49.4949 137.301-117.3662 157.5281-1.8751.5588-3.0492 2.4199-2.7932 4.3597l8.4481 64.0177c.3146 2.3838 2.6408 3.9438 4.9731 3.3591 102.6674-25.741 178.7132-118.6284 178.7132-229.2646 0-4.8153-.1504-9.5972-.4385-14.3457-.1414-2.3283-2.2169-4.0548-4.5294-3.7491z" fill="#48b3d8"/><g><g fill="#ef4156"><path d="m307.9339 193.6995c-3.1301-3.1291-8.2028-3.1291-11.3329 0l-131.8548 131.8544c-3.1291 3.1301-3.1291 8.2028 0 11.3329 1.565 1.5641 3.6152 2.3466 5.6664 2.3466s4.1014-.7825 5.6664-2.3466l131.8549-131.8553c3.1291-3.1292 3.1291-8.2029 0-11.332z"/><path d="m278.7302 275.0539c-17.9921 0-32.6292 14.6371-32.6292 32.6292s14.6371 32.6292 32.6292 32.6292 32.6292-14.6371 32.6292-32.6292-14.6371-32.6292-32.6292-32.6292zm0 49.2323c-9.1545 0-16.6031-7.4477-16.6031-16.6031 0-9.1555 7.4486-16.6031 16.6031-16.6031s16.6031 7.4476 16.6031 16.6031-7.4486 16.6031-16.6031 16.6031z"/><path d="m193.9499 255.5319c17.9921 0 32.6292-14.6371 32.6292-32.6292 0-17.9916-14.6371-32.6292-32.6292-32.6292-17.9765 0-32.6008 14.6376-32.6008 32.6292 0 17.9922 14.6243 32.6292 32.6008 32.6292zm0-49.2323c9.1555 0 16.6031 7.4481 16.6031 16.6031 0 9.1555-7.4476 16.6031-16.6031 16.6031-9.1389 0-16.5748-7.4476-16.5748-16.6031 0-9.155 7.4359-16.6031 16.5748-16.6031z"/></g></g><path d="m511.8951 201.6284c-19.384-84.1739-76.3222-153.9814-152.2449-190.8522-2.0844-1.0124-4.5909-.0794-5.4767 2.0621l-16.1547 39.0559c64.1452 30.6203 112.3216 89.3043 128.6294 160.1704l41.8722-5.5388c2.3531-.3111 3.9073-2.5847 3.3747-4.8974z" fill="#91cc75"/><path d="m236.34 64.2634c-111.0178 0-201.0156 89.9977-201.0156 201.0154s89.9979 201.0155 201.0156 201.0155c4.7122 0 9.3834-.1752 14.0145-.4942l-4.3347-32.789c-.269-2.0345-2.0306-3.545-4.0818-3.4757-1.8556.0626-3.7219.094-5.598.094-90.7715 0-164.3363-73.5652-164.3363-164.3363s73.5648-164.3648 164.3363-164.3648c13.0911 0 25.8242 1.5507 38.0472 4.4336 1.9142.4514 3.8759-.5245 4.6271-2.3419l12.8109-30.9957c-17.6243-5.0508-36.2376-7.7609-55.4852-7.7609z" fill="#ef4156"/><path d="m472.2409 250.9473c-.1408-2.3284-2.2165-4.0549-4.5288-3.7491l-30.8499 4.0783c.3184 4.6273.4935 9.2941.4935 14.0024 0 94.2633-64.8881 173.3592-152.4308 195.09l4.0686 30.8297c.3145 2.3838 2.6405 3.9439 4.9729 3.3591 102.6673-25.7409 178.7132-118.6284 178.7132-229.2646 0-4.8154-.1502-9.5973-.4387-14.3458z" fill="#40a9c6"/></g></svg>