<svg viewBox="0 0 512 512" xmlns="http://www.w3.org/2000/svg"><g><path d="m468.658 168.427-17.444-33.168a7.494 7.494 0 0 0-4.114-3.569l-30.251-10.786-18.593-34.736a7.482 7.482 0 0 0-2.729-2.876l-24.482-14.799-14.685-31.079a7.492 7.492 0 0 0-6.773-4.291h-38.369l-23-30.173A7.494 7.494 0 0 0 282.26 0H49.972a7.492 7.492 0 0 0-7.492 7.492v164.422a7.488 7.488 0 0 0 7.492 7.492h102.265a7.492 7.492 0 0 0 7.492-7.492c0-53.084 43.186-96.27 96.271-96.27 53.083 0 96.27 43.187 96.27 96.271a7.492 7.492 0 0 0 7.492 7.492h102.265a7.49 7.49 0 0 0 6.413-3.619 7.488 7.488 0 0 0 .218-7.361z" fill="#904f15"></path><path d="M216.335 75.642c-53.085 0-96.271 43.187-96.271 96.27a7.492 7.492 0 0 1-7.492 7.492h39.664a7.492 7.492 0 0 0 7.492-7.492c0-46.287 32.837-85.045 76.439-94.211a96.297 96.297 0 0 0-19.832-2.059zM468.658 168.427l-17.444-33.168a7.494 7.494 0 0 0-4.114-3.569l-30.251-10.786-18.593-34.736a7.482 7.482 0 0 0-2.729-2.876l-24.482-14.799-14.685-31.079a7.492 7.492 0 0 0-6.773-4.291h-38.369l-23-30.173A7.494 7.494 0 0 0 282.26 0h-39.664a7.492 7.492 0 0 1 5.958 2.95l22.998 30.172h38.369a7.49 7.49 0 0 1 6.773 4.291l14.685 31.079 24.482 14.799a7.475 7.475 0 0 1 2.729 2.876l18.593 34.736 30.251 10.786a7.494 7.494 0 0 1 4.114 3.569l17.444 33.168a7.491 7.491 0 0 1-6.631 10.98h39.665a7.49 7.49 0 0 0 6.413-3.619 7.483 7.483 0 0 0 .219-7.36z" fill="#773f12"></path><path d="M129.245 94.953 98.892 72.772l-5.515-18.751a7.49 7.49 0 0 0-4.971-5.042L42.481 34.756v15.685l37.655 11.662 5.098 17.333a7.482 7.482 0 0 0 2.768 3.934l32.402 23.679a7.448 7.448 0 0 0 4.414 1.443 7.49 7.49 0 0 0 4.427-13.539z" fill="#3f2f25"></path><path d="M462.027 231.258H363.56a7.492 7.492 0 0 0-7.492 7.492v198.922a7.492 7.492 0 0 0 7.492 7.492h98.468a7.492 7.492 0 0 0 7.492-7.492V238.75a7.493 7.493 0 0 0-7.493-7.492z" fill="#904f15"></path><path d="M462.027 231.258h-29.502v213.905h29.502a7.492 7.492 0 0 0 7.492-7.492V238.75a7.492 7.492 0 0 0-7.492-7.492z" fill="#773f12"></path><path d="M479.787 197.84H345.801a7.492 7.492 0 0 0-7.492 7.492v33.418a7.492 7.492 0 0 0 7.492 7.492h133.986a7.492 7.492 0 0 0 7.492-7.492v-33.418a7.492 7.492 0 0 0-7.492-7.492z" fill="#6b563e"></path><path d="M479.787 197.84h-29.966v48.401h29.966a7.492 7.492 0 0 0 7.492-7.492v-33.418a7.491 7.491 0 0 0-7.492-7.491z" fill="#544332"></path><path d="m469.519 380.42-30.917-8.298-3.766-25.996a7.492 7.492 0 0 0-4.503-5.828l-24.617-10.385a7.492 7.492 0 0 0-5.824 13.804l20.721 8.741 3.866 26.694a7.49 7.49 0 0 0 5.472 6.161l39.566 10.619V380.42h.002z" fill="#3f2f25"></path><path d="M504.089 164.422h-182.59a7.492 7.492 0 0 0-7.492 7.492v33.418a7.492 7.492 0 0 0 7.492 7.492h182.59a7.492 7.492 0 0 0 7.492-7.492v-33.418a7.493 7.493 0 0 0-7.492-7.492z" fill="#957856"></path><path d="M148.439 231.258H49.972a7.492 7.492 0 0 0-7.492 7.492v198.922a7.492 7.492 0 0 0 7.492 7.492h98.467a7.492 7.492 0 0 0 7.492-7.492V238.75a7.493 7.493 0 0 0-7.492-7.492z" fill="#904f15"></path><path d="M148.44 445.164a7.492 7.492 0 0 0 7.491-7.492V238.75a7.492 7.492 0 0 0-7.492-7.492h-29.966v213.905h29.967z" fill="#773f12"></path><path d="m155.931 274.165-41.724 30.141a7.489 7.489 0 0 0-3.104 6.073v13.323l-24.244 26.89a7.492 7.492 0 0 0 11.128 10.033l26.171-29.027a7.49 7.49 0 0 0 1.928-5.016V314.21l29.845-21.561v-18.484z" fill="#3f2f25"></path><path d="M504.089 164.422h-29.966v48.401h29.966a7.492 7.492 0 0 0 7.492-7.492v-33.418a7.493 7.493 0 0 0-7.492-7.491z" fill="#806749"></path><path d="M166.199 430.181H32.213a7.492 7.492 0 0 0-7.492 7.492v33.418a7.492 7.492 0 0 0 7.492 7.492H166.2a7.492 7.492 0 0 0 7.492-7.492v-33.418a7.493 7.493 0 0 0-7.493-7.492zM166.199 197.84H32.213a7.492 7.492 0 0 0-7.492 7.492v33.418a7.492 7.492 0 0 0 7.492 7.492H166.2a7.492 7.492 0 0 0 7.492-7.492v-33.418a7.493 7.493 0 0 0-7.493-7.492z" fill="#6b563e"></path><path d="M166.199 430.181h-29.966v48.401h29.966a7.492 7.492 0 0 0 7.492-7.492v-33.418a7.491 7.491 0 0 0-7.492-7.491zM166.208 246.242a7.49 7.49 0 0 0 7.483-7.491v-33.418a7.492 7.492 0 0 0-7.492-7.492h-29.966v48.401h29.975z" fill="#544332"></path><path d="M479.787 430.181H345.801a7.492 7.492 0 0 0-7.492 7.492v33.418a7.492 7.492 0 0 0 7.492 7.492h133.986a7.492 7.492 0 0 0 7.492-7.492v-33.418a7.492 7.492 0 0 0-7.492-7.492z" fill="#6b563e"></path><path d="M190.5 463.599H7.911a7.492 7.492 0 0 0-7.492 7.492v33.418a7.492 7.492 0 0 0 7.492 7.492H190.5a7.492 7.492 0 0 0 7.492-7.492V471.09a7.492 7.492 0 0 0-7.492-7.491zM190.5 164.422H7.911a7.492 7.492 0 0 0-7.492 7.492v33.418a7.492 7.492 0 0 0 7.492 7.492H190.5a7.492 7.492 0 0 0 7.492-7.492v-33.418a7.492 7.492 0 0 0-7.492-7.492z" fill="#957856"></path><path d="M190.5 463.599h-29.966V512H190.5a7.492 7.492 0 0 0 7.492-7.492V471.09a7.492 7.492 0 0 0-7.492-7.491zM190.5 164.422h-29.966v48.401H190.5a7.492 7.492 0 0 0 7.492-7.492v-33.418a7.492 7.492 0 0 0-7.492-7.491z" fill="#806749"></path><path d="M479.787 430.181h-29.966v48.401h29.966a7.492 7.492 0 0 0 7.492-7.492v-33.418a7.491 7.491 0 0 0-7.492-7.491z" fill="#544332"></path><path d="M504.089 463.599h-182.59a7.492 7.492 0 0 0-7.492 7.492v33.418a7.492 7.492 0 0 0 7.492 7.492h182.59a7.492 7.492 0 0 0 7.492-7.492V471.09a7.493 7.493 0 0 0-7.492-7.491z" fill="#957856"></path><path d="M504.089 463.599h-29.966V512h29.966a7.492 7.492 0 0 0 7.492-7.492V471.09a7.493 7.493 0 0 0-7.492-7.491z" fill="#806749"></path></g></svg>