<svg viewBox="0 0 512 512" xmlns="http://www.w3.org/2000/svg"><g><path d="M56.125 402.318h117.712v41.626H56.125z" fill="#dff6fd"></path><path d="M56.125 443.944h117.712V502c0 5.523-4.477 10-10 10H55.719c-5.523 0-10-4.477-10-10v-47.65c0-5.747 4.659-10.406 10.406-10.406z" fill="#fd8087"></path><path d="M140.537 443.944V512h23.301c5.523 0 10-4.477 10-10v-58.056z" fill="#fe646f"></path><path d="M140.537 402.318h33.301v41.626h-33.301z" fill="#c8effe"></path><path d="M157.992 198.369c-9.562-.45-17.455 7.169-17.455 16.631v-20.343c0-8.966-6.89-16.68-15.845-17.102-9.562-.45-17.455 7.169-17.455 16.631v-20.343c0-8.966-6.89-16.68-15.846-17.102-9.562-.45-17.455 7.169-17.455 16.631v20.813c0-9.463-7.894-17.082-17.455-16.631-8.956.422-15.846 8.136-15.846 17.102v103.639l-9.812-15.899c-4.773-7.735-14.868-10.213-22.68-5.567-7.996 4.755-10.545 15.139-5.659 23.055l49.92 80.893a24.974 24.974 0 0 1 3.721 13.116v8.423h117.712V215.469c.001-8.964-6.889-16.678-15.845-17.1z" fill="#ca6e59"></path><path d="M157.992 198.369a16.583 16.583 0 0 0-10.872 3.38c4.099 3.161 6.717 8.201 6.717 13.721v186.847h20V215.471c.001-8.966-6.889-16.68-15.845-17.102z" fill="#bb5d4c"></path><path d="M394.288 339.879H512v41.626H394.288z" fill="#dff6fd"></path><path d="M394.288 381.505H512V502c0 5.523-4.477 10-10 10H393.881c-5.523 0-10-4.477-10-10V391.911c0-5.747 4.659-10.406 10.407-10.406z" fill="#ffe177"></path><path d="M478.699 381.505V512H502c5.523 0 10-4.477 10-10V381.505z" fill="#ffd15b"></path><path d="M478.699 339.879H512v41.626h-33.301z" fill="#c8effe"></path><path d="M496.154 135.93c-9.562-.45-17.455 7.169-17.455 16.631v-20.343c0-8.966-6.89-16.68-15.846-17.102-9.562-.45-17.455 7.169-17.455 16.631v-20.343c0-8.966-6.89-16.68-15.846-17.102-9.562-.45-17.455 7.169-17.455 16.631v20.813c0-9.463-7.894-17.082-17.455-16.631-8.956.422-15.845 8.136-15.845 17.102v103.639l-9.812-15.899c-4.773-7.735-14.868-10.213-22.68-5.567-7.996 4.755-10.545 15.139-5.659 23.055l49.92 80.893a24.974 24.974 0 0 1 3.721 13.116v8.423H512V153.03c0-8.964-6.89-16.678-15.846-17.1z" fill="#ea9b58"></path><path d="M496.155 135.93a16.58 16.58 0 0 0-10.872 3.38c4.099 3.161 6.717 8.2 6.717 13.721v186.847h20V153.032c0-8.966-6.89-16.68-15.845-17.102z" fill="#d88a55"></path><path d="M220.453 245.593h117.712v41.626H220.453z" fill="#dff6fd"></path><path d="M220.453 287.219h117.712V502c0 5.523-4.477 10-10 10H220.047c-5.523 0-10-4.477-10-10V297.626c0-5.747 4.659-10.407 10.406-10.407z" fill="#528fd8"></path><path d="M304.865 287.219V512h23.301c5.523 0 10-4.477 10-10V287.219z" fill="#0573ce"></path><path d="M304.865 245.593h33.301v41.626h-33.301z" fill="#c8effe"></path><path d="M322.32 41.645c-9.562-.45-17.455 7.169-17.455 16.631V37.934c0-8.966-6.89-16.68-15.845-17.102-9.562-.45-17.455 7.169-17.455 16.631V17.121c0-8.966-6.89-16.68-15.846-17.102-9.562-.45-17.455 7.169-17.455 16.631v20.813c0-9.463-7.894-17.082-17.455-16.631-8.956.422-15.846 8.136-15.846 17.102v103.639l-9.812-15.899c-4.773-7.735-14.868-10.213-22.68-5.567-7.996 4.755-10.545 15.139-5.659 23.055l49.92 80.893a24.974 24.974 0 0 1 3.721 13.116v8.423h117.712V58.747c.001-8.966-6.889-16.68-15.845-17.102z" fill="#fed2a4"></path><path d="M322.32 41.645a16.58 16.58 0 0 0-10.872 3.38c4.099 3.161 6.717 8.2 6.717 13.721v186.847h20V58.747c.001-8.966-6.889-16.68-15.845-17.102z" fill="#ffbd86"></path><path d="m61.02 321.904 18.578 7.518c7.485 3.029 13.162 9.504 15.186 17.321a7.503 7.503 0 0 0 7.256 5.623 7.5 7.5 0 0 0 7.266-9.381c-3.208-12.396-12.21-22.664-24.08-27.467L66.646 308a10.433 10.433 0 0 1-4.996-4.219l-21.016-34.055v28.563l8.251 13.371a25.334 25.334 0 0 0 12.135 10.244z" fill="#bb5d4c"></path><g fill="#bb5d4c"><path d="M66.442 276.81a7.5 7.5 0 0 0 7.5-7.5l-.007-75.123c0-8.634-6.578-15.712-14.993-16.547v91.67a7.5 7.5 0 0 0 7.5 7.5zM133.044 276.81a7.5 7.5 0 0 0 7.5-7.5l-.007-74.652c0-8.677-6.459-16.161-14.993-17.018v91.67a7.5 7.5 0 0 0 7.5 7.5zM99.743 276.81a7.5 7.5 0 0 0 7.5-7.5l-.007-95.465c0-8.677-6.459-16.161-14.993-17.018V269.31a7.5 7.5 0 0 0 7.5 7.5z" fill="#bb5d4c"></path></g><circle cx="140.537" cy="472.769" fill="#ffe177" r="8.325"></circle><path d="M410.48 255.172c7.484 3.03 13.162 9.505 15.186 17.322a7.503 7.503 0 0 0 9.141 5.381 7.501 7.501 0 0 0 5.381-9.141c-3.21-12.395-12.211-22.663-24.08-27.466l-18.578-7.519a10.427 10.427 0 0 1-4.996-4.219l-13.736-22.258v28.563l.971 1.573a25.332 25.332 0 0 0 12.135 10.246z" fill="#d88a55"></path><g fill="#d88a55"><path d="M404.598 214.371a7.5 7.5 0 0 0 7.5-7.5v-75.122c0-8.637-6.582-15.716-15-16.548v91.67a7.5 7.5 0 0 0 7.5 7.5zM471.199 214.371a7.5 7.5 0 0 0 7.5-7.5v-74.652c0-8.679-6.463-16.165-15-17.018v91.67a7.5 7.5 0 0 0 7.5 7.5zM437.898 214.371a7.5 7.5 0 0 0 7.5-7.5v-95.465c0-8.679-6.463-16.165-15-17.018v112.483a7.5 7.5 0 0 0 7.5 7.5z" fill="#d88a55"></path></g><circle cx="478.699" cy="410.33" fill="#528fd8" r="8.325"></circle><circle cx="478.699" cy="443.63" fill="#528fd8" r="8.325"></circle><path d="M242.163 169.826c7.484 3.029 13.161 9.504 15.186 17.321a7.503 7.503 0 0 0 9.141 5.381 7.501 7.501 0 0 0 5.381-9.141c-3.21-12.396-12.212-22.663-24.08-27.466l-18.577-7.518a10.438 10.438 0 0 1-4.997-4.22l-19.253-31.198v28.563l6.488 10.513a25.34 25.34 0 0 0 12.135 10.246z" fill="#ffbd86"></path><g fill="#ffbd86"><path d="M264.064 120.086a7.5 7.5 0 0 0 7.5-7.5V17.121c0-8.679-6.463-16.165-15-17.018v112.484a7.5 7.5 0 0 0 7.5 7.499zM230.763 120.086a7.5 7.5 0 0 0 7.5-7.5V37.463c0-8.637-6.582-15.716-15-16.548v91.671a7.5 7.5 0 0 0 7.5 7.5zM297.365 120.086a7.5 7.5 0 0 0 7.5-7.5V37.932c-.001-8.678-6.464-16.164-15-17.017v91.671a7.5 7.5 0 0 0 7.5 7.5z" fill="#ffbd86"></path></g><g fill="#ffe177"><circle cx="304.865" cy="321.063" fill="#ffe177" r="8.325"></circle><circle cx="304.865" cy="354.363" fill="#ffe177" r="8.325"></circle></g></g></svg>