<svg viewBox="0 0 512 512" xmlns="http://www.w3.org/2000/svg"><g><path d="M359.165.178c-51.498-3.464-89.96 44.797-89.96 44.797l.687-27.6c-32.271 10.302-52.758 28.669-52.758 28.669-28.973-5.019-71.242-1.232-84.949 38.013-13.393 38.345 6.525 99.244 6.525 99.244l226.567 5.81C414.988 61.45 359.165.178 359.165.178z" fill="#ca6e59"></path><path d="M359.165.178c-10.677-.718-20.79.791-30.119 3.629 10.704 14.821 45.816 75.238 3.582 184.467l32.649.837C414.988 61.45 359.165.178 359.165.178z" fill="#bb5d4c"></path><g fill="#ffb09e"><path d="M403.134 446.001c0-46.052-37.332-83.384-83.384-83.384h-18.608c-8.535 0-15.453-6.919-15.453-15.453v-45.33h-59.753v45.33c0 8.535-6.919 15.453-15.453 15.453h-18.608c-46.052 0-83.384 37.332-83.384 83.384z" fill="#ffb09e"></path><path d="M255.812 324.499c-51.208 0-92.721-41.512-92.721-92.72v-96.256c16.903 5.987 35.668-.972 44.581-16.532l.406-.708s10.815 15.739 26.099 19.733c49.329 12.891 114.355-31.924 114.355-31.924V231.78c0 51.206-41.512 92.719-92.72 92.719zM143.719 163.783c-11.935 1.816-15.331 18.121-13.754 36.545s10.149 29.905 20.708 29.905c5.827 0 9.821-3.296 12.418-8.716v-45.828c-4.411-9.224-11.837-13.053-19.372-11.906z" fill="#ffb09e"></path><path d="M367.904 163.783c-7.535-1.147-14.961 2.682-19.372 11.906v45.828c2.597 5.42 6.591 8.716 12.418 8.716 10.56 0 19.131-11.48 20.708-29.905 1.578-18.425-1.819-34.729-13.754-36.545z" fill="#ffb09e"></path></g><path d="M262.059 237.959c-6.129 0-11.621-2.457-15.463-6.919a19.57 19.57 0 0 1-4.54-15.69 7.726 7.726 0 1 1 15.282 2.292 4.14 4.14 0 0 0 .968 3.315c.609.707 1.755 1.549 3.754 1.549a7.726 7.726 0 1 1-.001 15.453zM255.812 274.509c-7.685 0-15.369-2.097-22.224-6.291a7.727 7.727 0 0 1 8.067-13.182c8.602 5.264 19.716 5.263 28.314.002a7.726 7.726 0 1 1 8.065 13.181c-6.853 4.193-14.539 6.29-22.222 6.29z" fill="#d78878"></path><g fill="#d78878"><path d="M214.958 191.543a7.726 7.726 0 0 1-7.727-7.727v-8.536a7.727 7.727 0 0 1 15.454 0v8.536a7.728 7.728 0 0 1-7.727 7.727zM296.666 191.543a7.726 7.726 0 0 1-7.727-7.727v-8.536a7.727 7.727 0 0 1 15.454 0v8.536a7.728 7.728 0 0 1-7.727 7.727z" fill="#d78878"></path></g><path d="m382.318 512 20.816-65.999c0-46.052-37.332-83.384-83.384-83.384h-18.608l-13.998 13.898c-17.022 16.901-44.426 17.117-61.712.486l-14.95-14.384h-18.608c-46.052 0-83.384 37.332-83.384 83.384L129.603 512z" fill="#ffe177"></path><path d="M321.372 320.61h-35.657v40.977c0 3.228-.776 6.357-2.082 9.355-10.423 23.938-45.194 23.938-55.616 0-1.305-2.998-2.082-6.127-2.082-9.355V320.61h-35.657c-28.472 0-48.152 27.28-43.757 55.41 35.543 28.377 72.422 38.966 109.302 38.967s73.76-10.586 109.306-38.967c4.395-28.13-15.285-55.41-43.757-55.41zM76.232 512s3.438-69.417 53.45-121.569L129.603 512zM435.768 512s-3.438-69.417-53.45-121.569V512z" fill="#7a6d79"></path><g fill="#a79ba7"><path d="M300.455 382.704a7.726 7.726 0 0 0-7.727 7.727v63.705a7.727 7.727 0 0 0 15.454 0v-63.705a7.728 7.728 0 0 0-7.727-7.727zM211.169 382.704a7.726 7.726 0 0 0-7.727 7.727v63.705a7.727 7.727 0 0 0 15.454 0v-63.705a7.726 7.726 0 0 0-7.727-7.727z" fill="#a79ba7"></path></g></g></svg>