<svg viewBox="0 0 512 512" xmlns="http://www.w3.org/2000/svg"><g><path d="M105.414 483.604c-1.035 5.37-1.032 10.319-5.018 14.489-9.872-5.613-12.257-19.14-5.014-27.793L83.84 484.339c-6.385 7.755-17.855 9.41-25.844 3.299-8.385-6.405-9.714-18.424-3.076-26.504l-12.577 15.297c-6.385 7.765-17.856 9.42-25.834 3.309-8.385-6.405-9.725-18.424-3.076-26.504l12.313-14.983c18.85-25.844 45.791-47.77 76.305-62.184a100.344 100.344 0 0 1 12.618-4.964c14.891 6.833 28.139 18.941 39.244 27.264-22.373 22.15-42.439 53.706-48.499 85.235z" fill="#d7ddf5"></path><path d="m224.644 386.504-88.983 93.165-11.369 13.826c-5.877 7.156-16.079 9.116-23.895 4.598a50.873 50.873 0 0 1 .518-16.059c6.06-31.529 21.672-60.154 44.045-82.304a184.008 184.008 0 0 1-30.29-28.626c21.053-6.72 43.872-6.497 65.077.528z" fill="#c5cff1"></path><path d="M495.49 479.74c-7.978 6.111-19.449 4.456-25.834-3.309l-12.577-15.297c6.638 8.08 5.309 20.099-3.076 26.504-7.989 6.111-19.459 4.456-25.844-3.299L416.618 470.3c7.243 8.653 4.857 22.181-5.014 27.793-3.915-2.165-7.949-10.168-8.984-15.538-6.06-31.519-26.009-63.893-48.382-86.042 11.105-8.324 23.308-20.257 43.094-25.408a100.404 100.404 0 0 1 12.618 4.964c30.514 14.414 57.454 36.34 76.305 62.184l12.313 14.983c6.647 8.081 5.307 20.099-3.078 26.504z" fill="#f3f5fc"></path><path d="M411.603 498.093c-7.816 4.517-18.018 2.558-23.895-4.598l-11.369-13.826-88.983-93.165 44.897-14.871c21.205-7.024 44.024-7.248 65.077-.528a184.05 184.05 0 0 1-30.29 28.626c22.372 22.149 37.985 50.775 44.045 82.293a50.935 50.935 0 0 1 .518 16.069z" fill="#d7ddf5"></path><path d="M361.184 512H336.01c-46.639-16.232-76.515-46.826-79.979-78.639 29.569-.01 38.005-10.08 53.536-36.848h.467c36.361 17.043 63.352 50.734 71.148 91.267 2.415 12.567-7.208 24.22-19.998 24.22z" fill="#2ecefb"></path><path d="M336.01 512H150.816c-12.79 0-22.413-11.653-19.997-24.22 7.796-40.533 34.787-74.223 71.148-91.267h.467c9.308 23.479 23.976 36.848 53.566 36.848 21.266 29.021 47.821 55.678 80.01 78.639z" fill="#00bdfd"></path><path d="M309.566 396.513c0 25.469-17.774 46.786-41.598 52.226-24.981-15.377-37.985-30.576-35.427-52.226z" fill="#ffcbbe"></path><path d="M267.968 448.74A54.06 54.06 0 0 1 256 450.08c-29.59 0-53.566-23.987-53.566-53.566h30.108a340.975 340.975 0 0 0 35.426 52.226z" fill="#ffb2a6"></path><circle cx="409.983" cy="251.479" fill="#ffcbbe" r="37.365"></circle><circle cx="102.018" cy="251.479" fill="#ffcbbe" r="37.365"></circle><path d="M410.649 251.579c0 85.41-69.239 154.649-154.649 154.649a157.72 157.72 0 0 1-18.546-1.096c-87.99-94.813-84.347-235.813-24.616-302.091 13.694-3.979 28.179-6.111 43.162-6.111 85.41-.001 154.649 69.239 154.649 154.649z" fill="#ffddcf"></path><path d="M237.454 405.131c-76.67-9.166-136.103-74.416-136.103-153.553 0-70.427 47.08-129.861 111.487-148.538-36.36 92.516-31.488 206.855 24.616 302.091z" fill="#ffcbbe"></path><path d="M437.387 226.079a112.377 112.377 0 0 1-29.539-3.928c-7.481-25.55-22.718-47.242-42.015-63.088s-42.654-25.834-66.367-28.006c.183 12.039-2.771 25.854-9.085 39.467-14.699 31.671-42.005 50.206-60.997 41.395-9.014-4.182-14.526-13.775-16.262-26.078-6.68 6.205-14.871 11.756-22.525 15.318-15.355-56.251 9.145-128.755 52.389-156.009A183.97 183.97 0 0 1 256 44.693c100.179 0 181.387 81.207 181.387 181.386z" fill="#f9ee80"></path><path d="M242.986 45.15c-30.026 44.826-48.054 99.154-52.389 156.009-18.789 8.872-37.284 8.638-46.176-2.101-8.781-10.628-5.685-28.575 6.243-45.212-20.19 12.486-36.289 33.397-46.522 68.356-9.491 2.944-19.206 3.878-29.529 3.878.001-95.805 74.264-174.261 168.373-180.93z" fill="#f9d171"></path><path d="M282.45 1.15c-7.893 1.203-15.607 6.404-15.63 14.03 59.19 2.01 95.07 20.22 95.07 33.49 0 14.05-40.28 33.66-105.89 33.66-11.97 0-23.1-.65-33.29-1.81-5.532 2.007-8.218 8.508-6.47 14.19 12.93 1.74 26.44 2.62 39.76 2.62 58.61 0 120.89-17.06 120.89-48.66 0-26.86-44.97-43.21-94.44-47.52z" fill="#2ecefb"></path><path d="M282.45 1.15c-5.17 4.2-10.42 8.82-15.63 14.03-3.52-.12-7.13-.18-10.82-.18-65.61 0-105.89 19.61-105.89 33.67 0 11.49 26.92 26.69 72.6 31.85-2.27 4.66-4.43 9.4-6.47 14.19-43.95-5.89-81.13-21.62-81.13-46.04C135.11 17.06 197.39 0 256 0c8.81 0 17.7.39 26.45 1.15z" fill="#00bdfd"></path><ellipse cx="175.243" cy="294.491" fill="#ffa1ac" rx="29.798" ry="23.73"></ellipse><ellipse cx="336.757" cy="294.491" fill="#ffa1ac" rx="29.798" ry="23.73"></ellipse><path d="M192.608 279.148a7.5 7.5 0 0 1-7.5-7.5v-12.181c0-4.142 3.357-7.5 7.5-7.5s7.5 3.358 7.5 7.5v12.181a7.5 7.5 0 0 1-7.5 7.5zM319.391 279.148a7.5 7.5 0 0 1-7.5-7.5v-12.181c0-4.142 3.357-7.5 7.5-7.5s7.5 3.358 7.5 7.5v12.181a7.5 7.5 0 0 1-7.5 7.5zM256 286.4a29.664 29.664 0 0 1-22.367-10.187 7.5 7.5 0 0 1 .727-10.582 7.5 7.5 0 0 1 10.582.727c2.792 3.204 6.822 5.041 11.059 5.041s8.267-1.837 11.059-5.041a7.501 7.501 0 0 1 11.309 9.855A29.672 29.672 0 0 1 256 286.4z" fill="#495560"></path></g></svg>