<svg fill-rule="evenodd" viewBox="0 0 1707 1707" xmlns="http://www.w3.org/2000/svg"><g><path d="M1178 1693H130c-71 0-130-58-130-130V295c0-8 5-15 12-18L647 13h531c71 0 130 59 130 130v1420c0 72-59 130-130 130z" fill="#d8ecfe"></path><g fill="#a4ccff"><path d="M0 308c0-12-2-25 12-31L647 13 428 395c-23 39-72 49-115 33zM1086 545H515c-11 0-20-9-20-20V392c0-11 9-20 20-20h571c11 0 20 9 20 20v133c0 11-9 20-20 20zM1086 742H222c-26 0-26-40 0-40h864c26 0 26 40 0 40zM1086 940H222c-26 0-26-40 0-40h864c26 0 26 40 0 40zM1086 1137H222c-26 0-26-40 0-40h864c26 0 26 40 0 40zM1086 1335H222c-26 0-26-40 0-40h864c26 0 26 40 0 40z" fill="#a4ccff"></path></g><path d="m1418 1354-1-953h290l-1 953h-288z" fill="#187d96"></path><path d="M1562 1370c-11 0-20-9-20-20V381c0-26 40-26 40 0v969c0 11-9 20-20 20z" fill="#167187"></path><path d="m1420 1360 124 218c8 14 28 14 35 0l125-219 2-5h-288z" fill="#ffc3a1"></path><path d="M1417 401V255h290v146z" fill="#f8fafb"></path><path d="M1417 204v51h290v-51c0-47-39-86-86-86h-118c-48 0-86 39-86 86z" fill="#fd4755"></path><path d="m1482 1468 62 110c8 14 28 14 35 0l63-110z" fill="#273941"></path></g></svg>