<svg viewBox="0 0 512 512" xmlns="http://www.w3.org/2000/svg"><g><path d="M97 116.499 15 177.4 100.901 286z" fill="#68544f"></path><path d="M415 116.499 411.099 286 497 177.4z" fill="#53433f"></path><path d="M421 15v368.5c0 8.401-6.599 15-15 15H106c-8.401 0-15-6.599-15-15V15c0-8.401 6.599-15 15-15h300c8.401 0 15 6.599 15 15z" fill="#f7f0eb"></path><path d="M421 15v368.5c0 8.401-6.599 15-15 15H256V0h150c8.401 0 15 6.599 15 15z" fill="#efe2dd"></path><path d="M361 106c0 8.401-6.599 15-15 15H166c-8.401 0-15-6.599-15-15s6.599-15 15-15h180c8.401 0 15 6.599 15 15zM361 166c0 8.401-6.599 15-15 15H166c-8.401 0-15-6.599-15-15s6.599-15 15-15h180c8.401 0 15 6.599 15 15zM271 226c0 8.401-6.599 15-15 15h-90c-8.401 0-15-6.599-15-15s6.599-15 15-15h90c8.401 0 15 6.599 15 15z" fill="#e1d3ce"></path><path d="M256 241v-30c8.401 0 15 6.599 15 15s-6.599 15-15 15zM346 181h-90v-30h90c8.401 0 15 6.599 15 15s-6.599 15-15 15zM346 121h-90V91h90c8.401 0 15 6.599 15 15s-6.599 15-15 15z" fill="#cdbfba"></path><path d="M506.6 184.6c-.3 0-9.6-7.2-9.6-7.2L472.099 196 265 350.501c-2.699 2.098-6 3.3-9 3.3s-6.301-1.201-9-3.3L39.901 196 15 177.4s-9.3 7.2-9.6 7.2C2.1 187.301 0 191.499 0 196v271c0 24.901 20.099 45 45 45h422c24.901 0 45-20.099 45-45V196c0-4.501-2.1-8.699-5.4-11.4z" fill="#fdbf00"></path><path d="M512 196v271c0 24.901-20.099 45-45 45H256V353.8c2.999 0 6.301-1.201 9-3.3L472.099 196 497 177.4s9.3 7.2 9.6 7.2c3.3 2.701 5.4 6.899 5.4 11.4z" fill="#ff9f00"></path></g></svg>