<svg viewBox="0 0 464.001 464" xmlns="http://www.w3.org/2000/svg"><g><path d="M320 16c0-8.836-7.164-16-16-16H102.629a16.002 16.002 0 0 0-11.313 4.688L4.687 91.311C1.688 94.317 0 98.382 0 102.63v329.375c0 8.836 7.164 16 16 16L304 448c8.836 0 16-7.164 16-16zm0 0" fill="#efefef"></path><path d="M224 152h224c8.836 0 16 7.164 16 16v280c0 8.836-7.164 16-16 16H224c-8.836 0-16-7.164-16-16V168c0-8.836 7.164-16 16-16zm0 0" fill="#ffd04a"></path><path d="M256 184h160c8.836 0 16 7.164 16 16v24c0 8.836-7.164 16-16 16H256c-8.836 0-16-7.164-16-16v-24c0-8.836 7.164-16 16-16zm0 0" fill="#73c97c"></path><path d="M80 96c8.836 0 16-7.164 16-16V1.488a15.888 15.888 0 0 0-4.684 3.2L4.687 91.311A15.906 15.906 0 0 0 1.489 96zm0 0" fill="#d6d6d6"></path><path d="M160 192c0 30.93-25.07 56-56 56-30.926 0-56-25.07-56-56 0-30.926 25.074-56 56-56 30.93 0 56 25.074 56 56zm0 0" fill="#ff675b"></path><path d="M104 176v-40c-30.926 0-56 25.074-56 56h40c8.836 0 16-7.164 16-16zm0 0" fill="#cc5249"></path><path d="M140 40h24a4 4 0 0 1 4 4v24c0 2.21-1.79 4-4 4h-24a4 4 0 0 1-4-4V44c0-2.207 1.793-4 4-4zm0 0" fill="#ffd04a"></path><path d="M192 32h16v16h-16zM224 32h72v16h-72zM192 64h16v16h-16zM224 64h72v16h-72zM128 96h16v16h-16zM160 96h104v16H160zM280 96h16v16h-16zm0 0" fill="#bcbcbc"></path><path d="M172 312h-24a4 4 0 0 1-4-4v-24c0-2.207 1.793-4 4-4h24a4 4 0 0 1 4 4v24c0 2.21-1.79 4-4 4zm0 0" fill="#75c1ff"></path><path d="M104 272h16v16h-16zM24 272h64v16H24zM104 304h16v16h-16zM24 304h64v16H24zm0 0" fill="#bcbcbc"></path><path d="M36 376h24a4 4 0 0 1 4 4v24c0 2.21-1.79 4-4 4H36a4 4 0 0 1-4-4v-24c0-2.207 1.793-4 4-4zm0 0" fill="#73c97c"></path><path d="M88 368h16v16H88zM120 368h64v16h-64zM88 400h16v16H88zM120 400h64v16h-64zM168 336h16v16h-16zM56 336h96v16H56zM24 336h16v16H24zm0 0" fill="#bcbcbc"></path><g fill="#efefef"><path d="M264 272h16a8 8 0 0 1 8 8v16a8 8 0 0 1-8 8h-16a8 8 0 0 1-8-8v-16a8 8 0 0 1 8-8zM328 272h16a8 8 0 0 1 8 8v16a8 8 0 0 1-8 8h-16a8 8 0 0 1-8-8v-16a8 8 0 0 1 8-8zM392 272h16a8 8 0 0 1 8 8v16a8 8 0 0 1-8 8h-16a8 8 0 0 1-8-8v-16a8 8 0 0 1 8-8zM264 336h16a8 8 0 0 1 8 8v16a8 8 0 0 1-8 8h-16a8 8 0 0 1-8-8v-16a8 8 0 0 1 8-8zM328 336h16a8 8 0 0 1 8 8v16a8 8 0 0 1-8 8h-16a8 8 0 0 1-8-8v-16a8 8 0 0 1 8-8zM392 336h16a8 8 0 0 1 8 8v16a8 8 0 0 1-8 8h-16a8 8 0 0 1-8-8v-16a8 8 0 0 1 8-8zM264 400h16a8 8 0 0 1 8 8v16a8 8 0 0 1-8 8h-16a8 8 0 0 1-8-8v-16a8 8 0 0 1 8-8zM328 400h16a8 8 0 0 1 8 8v16a8 8 0 0 1-8 8h-16a8 8 0 0 1-8-8v-16a8 8 0 0 1 8-8zM392 400h16a8 8 0 0 1 8 8v16a8 8 0 0 1-8 8h-16a8 8 0 0 1-8-8v-16a8 8 0 0 1 8-8zm0 0" fill="#efefef"></path></g></g></svg>