<svg viewBox="0 0 512 512" xmlns="http://www.w3.org/2000/svg"><g><path d="M427.641 63.591c0 85.42-82.047 102.698-61.783 229.545 16.533 103.492-56.999 175.902-92.105 203.99-5.877 4.702-14.369-.562-12.819-7.927C282.91 384.81 252.083 327.71 177.5 261.583 84.186 178.849 84.186 63.591 84.186 63.591z" fill="#9facba"></path><path d="M427.641 63.591h-30c0 85.42-82.047 102.698-61.783 229.545 13.939 87.256-36.138 152.404-73.235 187.536a388.128 388.128 0 0 1-1.697 8.533c-1.548 7.366 6.943 12.629 12.82 7.926 35.103-28.084 108.646-100.496 92.112-203.996-20.264-126.846 61.783-144.124 61.783-229.544z" fill="#8d9ca8"></path><ellipse cx="255.913" cy="63.591" fill="#b6c4cf" rx="171.728" ry="50.508"></ellipse><ellipse cx="255.913" cy="63.591" fill="#7a8c98" rx="113.002" ry="18.17"></ellipse><path d="M322.073 151.65a7.501 7.501 0 0 1-.585-14.977c47.5-3.766 77.817-14.721 87.212-19.987 3.606-2.022 8.176-.751 10.209 2.847 2.032 3.598.782 8.157-2.81 10.201-1.207.687-30.293 16.888-93.426 21.893a7.574 7.574 0 0 1-.6.023zM190.117 159.614a7.34 7.34 0 0 1-.553-.021c-67.42-4.912-96.962-22.721-98.187-23.477a7.5 7.5 0 0 1 7.856-12.779c.455.273 28.381 16.702 91.421 21.295a7.501 7.501 0 0 1-.537 14.982zM264.441 159.614h-32.234c-4.143 0-7.5-3.358-7.5-7.5s3.357-7.5 7.5-7.5h32.234c4.143 0 7.5 3.358 7.5 7.5s-3.357 7.5-7.5 7.5zM314.804 192.649a7.5 7.5 0 0 1-7.464-6.869 7.5 7.5 0 0 1 6.841-8.105c.115-.01 11.622-.995 19.52-2.618a7.5 7.5 0 1 1 3.019 14.692c-8.777 1.804-20.771 2.829-21.276 2.872-.215.02-.428.028-.64.028zM262.512 267.067c-8.3 0-13.979-.268-14.557-.297a7.499 7.499 0 0 1-7.121-7.858c.203-4.137 3.719-7.31 7.858-7.124.345.018 34.794 1.631 59.698-3.368a7.5 7.5 0 0 1 2.953 14.706c-16.339 3.281-35.81 3.941-48.831 3.941zM300.807 334.616a7.5 7.5 0 0 1-1.009-14.931c11.461-1.57 27.92-4.382 41.249-8.855a7.501 7.501 0 0 1 4.773 14.221c-14.436 4.845-31.888 7.838-43.985 9.496a7.797 7.797 0 0 1-1.028.069z" fill="#7a8c98"></path><path d="M138.603 373.927H60.224c-4.143 0-7.5-3.358-7.5-7.5s3.357-7.5 7.5-7.5h78.379c9.232 0 16.744-7.511 16.744-16.744 0-9.232-7.512-16.744-16.744-16.744a16.793 16.793 0 0 0-12.367 5.456 7.501 7.501 0 0 1-11.075-10.118 31.826 31.826 0 0 1 23.441-10.338c17.504 0 31.744 14.24 31.744 31.744.001 17.504-14.24 31.744-31.743 31.744zM134.742 406.252H35.385c-4.143 0-7.5-3.358-7.5-7.5s3.357-7.5 7.5-7.5h99.357c4.143 0 7.5 3.358 7.5 7.5s-3.357 7.5-7.5 7.5z" fill="#91dafa"></path><path d="M85.063 341.602H35.385c-4.143 0-7.5-3.358-7.5-7.5s3.357-7.5 7.5-7.5h49.679a7.5 7.5 0 1 1-.001 15zM28.274 373.927H7.5c-4.143 0-7.5-3.358-7.5-7.5s3.357-7.5 7.5-7.5h20.774c4.143 0 7.5 3.358 7.5 7.5s-3.357 7.5-7.5 7.5zM480.256 455.247h-78.379c-4.143 0-7.5-3.358-7.5-7.5s3.357-7.5 7.5-7.5h78.379c9.232 0 16.744-7.511 16.744-16.744 0-9.232-7.512-16.744-16.744-16.744a16.788 16.788 0 0 0-12.367 5.456 7.501 7.501 0 0 1-11.075-10.117 31.823 31.823 0 0 1 23.441-10.338c17.504 0 31.744 14.24 31.744 31.744.001 17.503-14.239 31.743-31.743 31.743zM476.396 487.572h-19.024c-4.143 0-7.5-3.358-7.5-7.5s3.357-7.5 7.5-7.5h19.024a7.5 7.5 0 0 1 0 15zM425.241 487.572h-48.203c-4.143 0-7.5-3.358-7.5-7.5s3.357-7.5 7.5-7.5h48.203c4.143 0 7.5 3.358 7.5 7.5s-3.357 7.5-7.5 7.5z" fill="#91dafa"></path><g fill="#7a8c98"><path d="M403.21 139.529c-2.572 4.301-5.211 8.594-7.857 12.939l.974.407c15.133 6.755 23.81 14.38 23.81 20.924 0 7.994-14.172 20.916-54.111 31.024-30.542 7.728-69.648 11.984-110.116 11.984-20.714 0-40.938-1.087-60.111-3.23a7.498 7.498 0 0 0-8.286 6.621 7.5 7.5 0 0 0 6.62 8.287c19.725 2.205 40.51 3.323 61.777 3.323 41.672 0 82.086-4.418 113.796-12.442 54.08-13.688 65.432-32.334 65.432-45.566-.001-13.13-10.746-24.656-31.928-34.271z" fill="#7a8c98"></path><path d="M277.719 179.416c-.376.009-37.855.906-57.441-.057-47.896-2.353-90.938-8.861-121.197-18.325-27.175-8.5-43.398-19.253-43.398-28.766 0-9.431 17.382-19.01 34.019-24.984a293.362 293.362 0 0 1-2.738-14.908l-1.021.327a6.378 6.378 0 0 0-.195.066c-20.559 7.215-45.064 19.924-45.064 39.5 0 17.396 18.142 31.891 53.921 43.082 31.438 9.833 75.809 16.578 124.938 18.991 7.182.353 16.489.468 25.565.468 16.366 0 31.975-.374 32.978-.398a7.5 7.5 0 0 0 7.315-7.68c-.103-4.142-3.539-7.453-7.682-7.316zM312.76 289.233a7.502 7.502 0 0 0-8.877-5.804c-19.363 4.053-42.259 6.195-66.213 6.195-70.831 0-109.471-17.772-109.471-26.903 0-2.955 5.941-10.309 28.386-16.987l3.54-1.032a266.567 266.567 0 0 1-10.95-12.375c-17.111 5.499-35.976 15.043-35.976 30.393 0 16.416 21.559 26.203 39.644 31.521 22.762 6.694 52.887 10.381 84.827 10.381 24.97 0 48.929-2.252 69.285-6.514a7.496 7.496 0 0 0 5.805-8.875zM413.202 305.684c-1.64-19.333-26.721-29.893-47.483-35.35l-2.562-.669c.345 5.111.885 10.433 1.615 15.96 20.381 5.749 32.833 13.64 33.486 21.328.597 7.036-8.998 16.315-25.667 24.824-19.025 9.71-46.962 18.371-78.666 24.386a7.5 7.5 0 0 0 2.796 14.738c58.051-11.016 119.137-33.932 116.481-65.217z" fill="#7a8c98"></path><path d="M391.14 388.675c-1.059-4.004-5.163-6.396-9.167-5.335-18.035 4.765-41.435 7.389-65.887 7.389-26.412 0-51.147-2.997-69.648-8.438-19.87-5.844-24.342-12.16-24.342-13.912 0-1.963 5.193-8.935 28.236-14.996l1.587-.409a182.28 182.28 0 0 0-7.033-13.655c-24.728 6.787-37.79 16.816-37.79 29.06 0 11.928 11.812 21.451 35.109 28.303 19.837 5.834 46.075 9.048 73.881 9.048 25.709 0 50.469-2.801 69.719-7.887a7.501 7.501 0 0 0 5.335-9.168z" fill="#7a8c98"></path></g></g></svg>