<?xml version="1.0" encoding="UTF-8" standalone="no"?>
<!-- Created with Inkscape (http://www.inkscape.org/) -->

<svg
   version="1.1"
   id="svg8067"
   xml:space="preserve"
   width="682.66669"
   height="682.66669"
   viewBox="0 0 682.66669 682.66669"
   xmlns="http://www.w3.org/2000/svg"
   xmlns:svg="http://www.w3.org/2000/svg"><defs
     id="defs8071"><clipPath
       clipPathUnits="userSpaceOnUse"
       id="clipPath8081"><path
         d="M 0,512 H 512 V 0 H 0 Z"
         id="path8079" /></clipPath></defs><g
     id="g8073"
     transform="matrix(1.3333333,0,0,-1.3333333,0,682.66667)"><g
       id="g8075"><g
         id="g8077"
         clip-path="url(#clipPath8081)"><g
           id="g8083"
           transform="translate(403.8545,330.293)"><path
             d="m 0,0 v -96.414 h -42.71 v 83.174 c 0,2.845 -2.307,5.151 -5.151,5.151 H -247.85 c -2.845,0 -5.151,-2.306 -5.151,-5.151 v -83.174 h -42.711 V 0 c 0,17.261 13.993,31.254 31.254,31.254 H -31.253 C -13.992,31.254 0,17.261 0,0"
             style="fill:#fb4a59;fill-opacity:1;fill-rule:nonzero;stroke:none"
             id="path8085" /></g><g
           id="g8087"
           transform="translate(403.8516,330.2969)"><path
             d="M 0,0 V -96.415 H -29.689 V 0 c 0,17.256 -13.991,31.245 -31.256,31.245 h 29.7 C -13.99,31.245 0,17.256 0,0"
             style="fill:#f82f41;fill-opacity:1;fill-rule:nonzero;stroke:none"
             id="path8089" /></g><g
           id="g8091"
           transform="translate(194.6963,356.3916)"><path
             d="M 0,0 V -52.307 C 0,-60.543 6.677,-67.22 14.913,-67.22 h 6.552 c 8.237,0 14.913,6.677 14.913,14.913 v 3.427 c 0,-8.236 6.677,-14.913 14.914,-14.913 h 6.552 c 8.236,0 14.913,6.677 14.913,14.913 v 3.426 c 0,-8.236 6.677,-14.913 14.913,-14.913 h 6.553 c 8.236,0 14.913,6.678 14.913,14.913 v 6.822 c 0,-8.236 6.677,-14.913 14.913,-14.913 h 6.553 c 8.236,0 14.913,6.677 14.913,14.913 v 55.563 c 0,17.92 -3.272,35.689 -9.654,52.434 l -12.104,31.764 c -0.224,0.586 -0.338,1.208 -0.338,1.834 v 47.494 c 0,2.846 -2.306,5.151 -5.15,5.151 H 1.044 c -2.845,0 -5.151,-2.305 -5.151,-5.151 V 94.486 c 0,-1.19 -0.413,-2.344 -1.168,-3.266 L -30.467,60.502 C -36.09,53.646 -39.164,45.051 -39.164,36.183 V 5.151 H -5.151 C -2.306,5.151 0,2.845 0,0"
             style="fill:#fdb0a0;fill-opacity:1;fill-rule:nonzero;stroke:none"
             id="path8093" /></g><g
           id="g8095"
           transform="translate(340.2148,373.3184)"><path
             d="m 0,0 v -55.559 c 0,-8.238 -6.679,-14.917 -14.917,-14.917 h -6.554 c -4.22,0 -8.035,1.754 -10.752,4.583 2.581,2.672 4.165,6.316 4.165,10.334 V 0 c 0,17.928 -3.27,35.696 -9.653,52.436 l -11.205,29.391 c -0.814,2.162 -1.233,4.437 -1.233,6.746 v 50.104 h 22.894 c 2.845,0 5.151,-2.307 5.151,-5.152 V 86.036 c 0,-0.628 0.115,-1.249 0.337,-1.836 L -9.654,52.436 C -3.271,35.696 0,17.928 0,0"
             style="fill:#f89f8e;fill-opacity:1;fill-rule:nonzero;stroke:none"
             id="path8097" /></g><g
           id="g8099"
           transform="translate(231.0801,318.8311)"><path
             d="m 0,0 v -14.742 c 0,-8.241 -6.686,-14.917 -14.917,-14.917 h -0.536 V 0 c 0,4.265 3.451,7.726 7.726,7.726 C -3.461,7.726 0,4.265 0,0"
             style="fill:#f89f8e;fill-opacity:1;fill-rule:nonzero;stroke:none"
             id="path8101" /></g><g
           id="g8103"
           transform="translate(267.4561,322.1992)"><path
             d="m 0,0 v -14.69 c 0,-8.231 -6.676,-14.907 -14.917,-14.907 h -0.536 V 0 c 0,4.275 3.461,7.727 7.726,7.727 C -3.462,7.727 0,4.275 0,0"
             style="fill:#f89f8e;fill-opacity:1;fill-rule:nonzero;stroke:none"
             id="path8105" /></g><g
           id="g8107"
           transform="translate(303.8311,329.04)"><path
             d="m 0,0 v -18.101 c 0,-8.241 -6.676,-14.917 -14.917,-14.917 h -0.535 V 0 c 0,4.265 3.461,7.726 7.725,7.726 C -3.461,7.726 0,4.265 0,0"
             style="fill:#f89f8e;fill-opacity:1;fill-rule:nonzero;stroke:none"
             id="path8109" /></g><g
           id="g8111"
           transform="translate(441.7686,5.6611)"><path
             d="m 0,0 h -371.541 c -4.044,0 -7.594,2.692 -8.685,6.587 l -22.005,78.579 c -1.611,5.751 2.712,11.451 8.685,11.451 H 22.006 c 5.973,0 10.296,-5.7 8.685,-11.451 L 8.686,6.587 C 7.595,2.692 4.045,0 0,0"
             style="fill:#e5e1e5;fill-opacity:1;fill-rule:nonzero;stroke:none"
             id="path8113" /></g><g
           id="g8115"
           transform="translate(45.7715,68.5664)"><path
             d="m 0,0 h 420.454 l 6.234,22.261 c 1.611,5.751 -2.712,11.451 -8.685,11.451 H 2.451 c -5.972,0 -10.296,-5.7 -8.685,-11.451 z"
             style="fill:#c9c0c7;fill-opacity:1;fill-rule:nonzero;stroke:none"
             id="path8117" /></g><g
           id="g8119"
           transform="translate(472.458,90.8281)"><path
             d="m 0,0 -22.005,-78.579 c -1.088,-3.897 -4.636,-6.589 -8.68,-6.589 h -31.169 c 4.043,0 7.591,2.692 8.679,6.589 L -31.159,0 c 1.604,5.754 -2.714,11.445 -8.691,11.445 H -8.68 C -2.714,11.445 1.615,5.754 0,0"
             style="fill:#c9c0c7;fill-opacity:1;fill-rule:nonzero;stroke:none"
             id="path8121" /></g><g
           id="g8123"
           transform="translate(472.7666,102.2764)"><path
             d="m 0,0 h -433.536 l 21.056,110.362 c 1.408,7.382 7.863,12.721 15.378,12.721 h 360.668 c 7.515,0 13.97,-5.339 15.378,-12.721 z"
             style="fill:#e5e1e5;fill-opacity:1;fill-rule:nonzero;stroke:none"
             id="path8125" /></g><g
           id="g8127"
           transform="translate(472.7637,102.2734)"><path
             d="m 0,0 h -31.159 l -21.065,110.361 c -1.404,7.381 -7.856,12.724 -15.374,12.724 h 31.17 c 7.507,0 13.97,-5.343 15.373,-12.724 z"
             style="fill:#c9c0c7;fill-opacity:1;fill-rule:nonzero;stroke:none"
             id="path8129" /></g><g
           id="g8131"
           transform="translate(469.4805,93.1504)"><path
             d="m 0,0 h -426.963 c -8.308,0 -15.042,6.734 -15.042,15.042 0,8.308 6.734,15.042 15.042,15.042 H 0 c 8.308,0 15.042,-6.734 15.042,-15.042 C 15.042,6.734 8.308,0 0,0"
             style="fill:#ffe8d8;fill-opacity:1;fill-rule:nonzero;stroke:none"
             id="path8133" /></g><g
           id="g8135"
           transform="translate(484.5244,108.1973)"><path
             d="m 0,0 c 0,-4.15 -1.679,-7.92 -4.403,-10.644 -2.724,-2.713 -6.483,-4.403 -10.643,-4.403 h -26.999 c 4.149,0 7.908,1.69 10.633,4.403 2.724,2.724 4.402,6.494 4.402,10.644 0,8.299 -6.736,15.035 -15.035,15.035 h 26.999 C -6.736,15.035 0,8.299 0,0"
             style="fill:#fcca9f;fill-opacity:1;fill-rule:nonzero;stroke:none"
             id="path8137" /></g><g
           id="g8139"
           transform="translate(411.877,225.1875)"><path
             d="m 0,0 v -214.628 c 0,-5.831 -4.729,-10.559 -10.56,-10.559 h -290.645 c -5.831,0 -10.559,4.728 -10.559,10.559 v 93.839 L -180.416,10.56 H -10.56 C -4.729,10.56 0,5.831 0,0"
             style="fill:#fddbbf;fill-opacity:1;fill-rule:nonzero;stroke:none"
             id="path8141" /></g><g
           id="g8143"
           transform="translate(411.8799,225.1895)"><path
             d="m 0,0 v -214.631 c 0,-5.828 -4.73,-10.558 -10.56,-10.558 h -29.596 c 5.84,0 10.559,4.73 10.559,10.558 V 0 c 0,5.828 -4.719,10.559 -10.559,10.559 H -10.56 C -4.73,10.559 0,5.828 0,0"
             style="fill:#fcca9f;fill-opacity:1;fill-rule:nonzero;stroke:none"
             id="path8145" /></g><g
           id="g8147"
           transform="translate(241.7627,235.7471)"><path
             d="m 0,0 -141.65,-141.65 v 52.724 L -52.972,0 Z"
             style="fill:#845152;fill-opacity:1;fill-rule:nonzero;stroke:none"
             id="path8149" /></g><g
           id="g8151"
           transform="translate(199.0806,235.7432)"><path
             d="m 0,0 h -88.405 c -5.831,0 -10.558,-4.727 -10.558,-10.559 v -88.675 z"
             style="fill:#83d167;fill-opacity:1;fill-rule:nonzero;stroke:none"
             id="path8153" /></g><g
           id="g8155"
           transform="translate(201.2153,48.4082)"><path
             d="M 0,0 4.186,9.084 8.371,0 Z m 11.203,30.78 c -1.262,2.739 -4.002,4.492 -7.017,4.492 -3.016,0 -5.756,-1.753 -7.018,-4.492 l -18.929,-41.083 c -1.786,-3.875 -0.092,-8.465 3.783,-10.25 3.875,-1.786 8.466,-0.091 10.251,3.783 l 0.607,1.318 h 22.611 l 0.607,-1.318 c 1.303,-2.829 4.099,-4.495 7.022,-4.495 1.082,0 2.182,0.229 3.229,0.712 3.875,1.785 5.569,6.375 3.783,10.25 z"
             style="fill:#b88081;fill-opacity:1;fill-rule:nonzero;stroke:none"
             id="path8157" /></g><g
           id="g8159"
           transform="translate(303.4863,48.4082)"><path
             d="M 0,0 4.186,9.084 8.371,0 Z m 11.203,30.78 c -1.262,2.739 -4.002,4.492 -7.017,4.492 -3.015,0 -5.756,-1.753 -7.017,-4.492 l -18.93,-41.083 c -1.786,-3.875 -0.092,-8.465 3.783,-10.25 3.877,-1.787 8.466,-0.091 10.251,3.783 l 0.607,1.318 h 22.611 l 0.608,-1.318 c 1.302,-2.829 4.099,-4.495 7.021,-4.495 1.082,0 2.182,0.229 3.229,0.712 3.875,1.785 5.569,6.375 3.784,10.25 z"
             style="fill:#b88081;fill-opacity:1;fill-rule:nonzero;stroke:none"
             id="path8161" /></g><g
           id="g8163"
           transform="translate(277.2158,83.4795)"><path
             d="m 0,0 c -4.151,0.964 -8.309,-1.617 -9.275,-5.774 l -2.033,-8.736 -2.032,8.736 c -0.813,3.499 -3.932,5.975 -7.525,5.975 -3.593,0 -6.712,-2.476 -7.525,-5.975 l -2.033,-8.736 -2.033,8.736 c -0.966,4.157 -5.116,6.744 -9.276,5.774 -4.156,-0.967 -6.741,-5.119 -5.774,-9.275 l 9.558,-41.082 c 0.814,-3.499 3.932,-5.977 7.525,-5.977 3.592,0 6.711,2.478 7.525,5.977 l 2.033,8.735 2.032,-8.735 c 0.814,-3.5 3.933,-5.977 7.525,-5.977 3.593,0 6.712,2.478 7.526,5.977 L 5.775,-9.275 C 6.742,-5.119 4.156,-0.967 0,0"
             style="fill:#b88081;fill-opacity:1;fill-rule:nonzero;stroke:none"
             id="path8165" /></g><g
           id="g8167"
           transform="translate(377.875,70.2188)"><path
             d="M 0,0 C 2.604,3.38 1.974,8.23 -1.407,10.836 -4.789,13.44 -9.641,12.808 -12.243,9.428 L -25.052,-7.203 -37.86,9.428 c -2.603,3.38 -7.453,4.012 -10.836,1.408 C -52.077,8.232 -52.707,3.38 -50.104,0 l 17.326,-22.496 v -13.872 c 0,-4.269 3.459,-7.727 7.726,-7.727 4.268,0 7.726,3.458 7.726,7.727 v 13.872 z"
             style="fill:#b88081;fill-opacity:1;fill-rule:nonzero;stroke:none"
             id="path8169" /></g><g
           id="g8171"
           transform="translate(186.3901,133.8252)"><path
             d="m 0,0 h 11.204 v -33.357 c 0,-4.268 3.459,-7.727 7.726,-7.727 4.267,0 7.727,3.459 7.727,7.727 V 0 H 37.86 c 4.267,0 7.726,3.459 7.726,7.727 0,4.267 -3.459,7.725 -7.726,7.725 H 0 c -4.267,0 -7.726,-3.458 -7.726,-7.725 C -7.726,3.459 -4.267,0 0,0"
             style="fill:#b88081;fill-opacity:1;fill-rule:nonzero;stroke:none"
             id="path8173" /></g><g
           id="g8175"
           transform="translate(254.8193,114.0039)"><path
             d="m 0,0 h -8.372 l 4.186,9.085 z m -26.35,-20.553 c 3.876,-1.786 8.465,-0.091 10.251,3.783 l 0.607,1.318 H 7.12 l 0.607,-1.318 c 1.302,-2.829 4.099,-4.495 7.022,-4.495 1.081,0 2.181,0.229 3.229,0.712 3.875,1.785 5.569,6.375 3.783,10.25 L 2.832,30.781 c -1.263,2.739 -4.002,4.492 -7.018,4.492 -3.016,0 -5.755,-1.753 -7.017,-4.492 l -18.93,-41.084 c -1.786,-3.875 -0.092,-8.465 3.783,-10.25"
             style="fill:#b88081;fill-opacity:1;fill-rule:nonzero;stroke:none"
             id="path8177" /></g><g
           id="g8179"
           transform="translate(288.9844,91.999)"><path
             d="m 0,0 c 4.268,0 7.726,3.459 7.726,7.727 v 17.07 L 8.789,25.482 24.404,3.281 c 1.505,-2.138 3.897,-3.282 6.326,-3.282 1.537,0 3.087,0.457 4.439,1.407 3.49,2.456 4.329,7.275 1.875,10.765 l -15.256,21.688 13.121,8.455 c 3.587,2.313 4.62,7.094 2.31,10.681 -2.313,3.587 -7.093,4.619 -10.68,2.31 L 7.726,43.181 v 5.629 c 0,4.267 -3.458,7.726 -7.726,7.726 -4.269,0 -7.727,-3.459 -7.727,-7.726 V 7.727 C -7.727,3.459 -4.269,0 0,0"
             style="fill:#b88081;fill-opacity:1;fill-rule:nonzero;stroke:none"
             id="path8181" /></g><g
           id="g8183"
           transform="translate(340.1191,92.7412)"><path
             d="m 0,0 h 31.715 c 4.267,0 7.726,3.459 7.726,7.727 0,4.267 -3.459,7.726 -7.726,7.726 H 7.726 v 5.088 H 19.26 c 4.267,0 7.726,3.459 7.726,7.727 0,4.267 -3.459,7.726 -7.726,7.726 H 7.726 v 5.09 h 23.989 c 4.267,0 7.726,3.459 7.726,7.727 0,4.267 -3.459,7.725 -7.726,7.725 L 0,56.536 c -4.268,0 -7.727,-3.458 -7.727,-7.725 V 7.727 C -7.727,3.459 -4.268,0 0,0"
             style="fill:#b88081;fill-opacity:1;fill-rule:nonzero;stroke:none"
             id="path8185" /></g><g
           id="g8187"
           transform="translate(385.2256,41.5762)"><path
             d="m 0,0 h -7.973 c -4.267,0 -7.726,-3.458 -7.726,-7.726 0,-4.268 3.459,-7.726 7.726,-7.726 H 0 c 4.268,0 7.727,3.458 7.727,7.726 C 7.727,-3.458 4.268,0 0,0"
             style="fill:#b88081;fill-opacity:1;fill-rule:nonzero;stroke:none"
             id="path8189" /></g><g
           id="g8191"
           transform="translate(402.9902,391.7061)"><path
             d="m 0,0 c -1.985,0 -3.97,0.761 -5.48,2.28 -3.008,3.026 -2.993,7.918 0.033,10.926 l 7.722,7.677 C 5.302,23.89 10.194,23.875 13.202,20.85 16.21,17.823 16.195,12.931 13.169,9.923 L 5.446,2.247 C 3.939,0.749 1.97,0 0,0"
             style="fill:#fb4a59;fill-opacity:1;fill-rule:nonzero;stroke:none"
             id="path8193" /></g><g
           id="g8195"
           transform="translate(380.4717,407.666)"><path
             d="M 0,0 C -0.623,0 -1.254,0.075 -1.886,0.234 -6.025,1.272 -8.538,5.47 -7.5,9.608 l 2.68,10.68 c 1.039,4.138 5.235,6.653 9.374,5.613 4.138,-1.038 6.651,-5.235 5.613,-9.374 L 7.488,5.848 C 6.607,2.341 3.459,0 0,0"
             style="fill:#fb4a59;fill-opacity:1;fill-rule:nonzero;stroke:none"
             id="path8197" /></g><g
           id="g8199"
           transform="translate(418.8213,369.0947)"><path
             d="m 0,0 c -3.479,0 -6.636,2.364 -7.499,5.893 -1.015,4.144 1.523,8.326 5.669,9.34 L 8.867,17.85 c 4.146,1.016 8.326,-1.525 9.341,-5.669 C 19.222,8.036 16.684,3.854 12.539,2.84 L 1.842,0.224 C 1.225,0.072 0.607,0 0,0"
             style="fill:#fb4a59;fill-opacity:1;fill-rule:nonzero;stroke:none"
             id="path8201" /></g><g
           id="g8203"
           transform="translate(96.6475,391.7061)"><path
             d="m 0,0 c -1.97,0 -3.94,0.749 -5.447,2.247 l -7.722,7.676 c -3.026,3.009 -3.041,7.9 -0.032,10.927 3.008,3.025 7.9,3.04 10.926,0.033 L 5.447,13.206 C 8.473,10.197 8.488,5.306 5.479,2.28 3.97,0.761 1.985,0 0,0"
             style="fill:#fb4a59;fill-opacity:1;fill-rule:nonzero;stroke:none"
             id="path8205" /></g><g
           id="g8207"
           transform="translate(119.166,407.666)"><path
             d="m 0,0 c -3.46,0 -6.609,2.341 -7.489,5.849 l -2.678,10.679 c -1.038,4.139 1.476,8.336 5.615,9.373 4.141,1.043 8.336,-1.476 9.374,-5.614 L 7.5,9.607 C 8.538,5.469 6.024,1.271 1.885,0.234 1.254,0.075 0.622,0 0,0"
             style="fill:#fb4a59;fill-opacity:1;fill-rule:nonzero;stroke:none"
             id="path8209" /></g><g
           id="g8211"
           transform="translate(80.8169,369.0947)"><path
             d="M 0,0 C -0.607,0 -1.226,0.072 -1.842,0.224 L -12.539,2.84 c -4.145,1.014 -6.683,5.196 -5.669,9.341 1.014,4.146 5.194,6.686 9.341,5.669 L 1.83,15.233 C 5.975,14.219 8.513,10.037 7.499,5.893 6.636,2.364 3.478,0 0,0"
             style="fill:#fb4a59;fill-opacity:1;fill-rule:nonzero;stroke:none"
             id="path8213" /></g></g></g></g></svg>
