<svg viewBox="0 0 512 512" xmlns="http://www.w3.org/2000/svg"><g><path d="M473.609 230.624h-4.094a212.955 212.955 0 0 0-22.595-73.565l26.18-26.185a4 4 0 0 0-1.8-6.692l-42.254-11.3 7.091-7.091a21.138 21.138 0 0 0-14.975-36.089h-.023A20.957 20.957 0 0 0 406.2 75.9l-7.059 7.058L387.818 40.7a4 4 0 0 0-6.693-1.793l-26.171 26.18a212.923 212.923 0 0 0-73.578-22.573V38.39a25.376 25.376 0 1 0-50.752 0v4.12C132.365 54.075 54.075 132.365 42.51 230.624h-4.119a25.376 25.376 0 1 0 0 50.752h4.119c11.566 98.276 89.856 176.577 188.114 188.143v4.091a25.376 25.376 0 1 0 50.752 0v-4.091c98.274-11.567 176.576-89.869 188.143-188.143h4.09a25.376 25.376 0 1 0 0-50.752zM281.376 418.29v-.665a25.376 25.376 0 1 0-50.752 0v.667A163.95 163.95 0 0 1 93.71 281.376h.665a25.376 25.376 0 1 0 0-50.752h-.665A164 164 0 0 1 230.624 93.71v.665a25.376 25.376 0 1 0 50.752 0v-.652a163.4 163.4 0 0 1 35.329 9.627l-13.532 13.536a4 4 0 0 0-1.035 3.862l12.5 46.715-18.249 18.249.457-.793a81.871 81.871 0 1 0 30.27 30.243l-.812.466 18.257-18.257 46.72 12.519a4 4 0 0 0 3.864-1.036l13.524-13.529a163.059 163.059 0 0 1 9.61 35.3h-.652a25.376 25.376 0 0 0 0 50.752h.667A163.952 163.952 0 0 1 281.376 418.29z" fill="#fe646f"></path><path d="M119.766 256.014a25.405 25.405 0 0 1-25.391 25.362H38.391a25.376 25.376 0 1 1 0-50.752h55.984a25.42 25.42 0 0 1 25.391 25.39zM256.015 13a25.419 25.419 0 0 0-25.391 25.39v55.985a25.376 25.376 0 1 0 50.752 0V38.39A25.4 25.4 0 0 0 256.015 13zm217.594 217.624h-55.984a25.376 25.376 0 0 0 0 50.752h55.984a25.376 25.376 0 1 0 0-50.752zM256.015 392.235a25.419 25.419 0 0 0-25.391 25.39v55.985a25.376 25.376 0 1 0 50.752 0v-55.985a25.4 25.4 0 0 0-25.361-25.39z" fill="#837683"></path><g fill="#685e68"><path d="M94.375 230.624h-14a25.376 25.376 0 1 1 0 50.752h14a25.376 25.376 0 1 0 0-50.752zM256.015 392.235a25.305 25.305 0 0 0-7 .99 25.425 25.425 0 0 1 18.365 24.4v55.985a25.425 25.425 0 0 1-18.365 24.4 25.347 25.347 0 0 0 32.365-24.4v-55.985a25.4 25.4 0 0 0-25.365-25.39zM256.015 13a25.268 25.268 0 0 0-7 .991 25.425 25.425 0 0 1 18.365 24.4v55.984a25.425 25.425 0 0 1-18.365 24.4 25.35 25.35 0 0 0 32.365-24.4V38.39A25.4 25.4 0 0 0 256.015 13zM473.609 230.624h-14a25.376 25.376 0 1 1 0 50.752h14a25.376 25.376 0 1 0 0-50.752z" fill="#685e68"></path></g><path d="M451.425 230.624h18.09a212.97 212.97 0 0 0-22.594-73.567l-12.3 12.3a212.466 212.466 0 0 1 16.804 61.267zM354.955 65.086a212.948 212.948 0 0 0-73.579-22.572v3.808a212.536 212.536 0 0 1 66.688 25.657zM281.376 465.714v3.805c98.274-11.567 176.576-89.869 188.143-188.143h-18.1C440.54 373.5 371.117 447.683 281.376 465.714z" fill="#fd4755"></path><path d="M436.136 75.892a21.031 21.031 0 0 0-14.975-6.187h-.023A20.957 20.957 0 0 0 406.2 75.9L241.056 241.043a21.138 21.138 0 0 0 14.924 36.095h.02a21.031 21.031 0 0 0 14.975-6.187l165.161-165.157a21.209 21.209 0 0 0 0-29.9z" fill="#837683"></path><path d="m291.438 190.66 4.949-4.948.457-.793a81.8 81.8 0 0 0-40.829-10.885c-2.36 0-4.691.123-7 .32a81.524 81.524 0 0 1 42.423 16.306zM327.114 215.162l-.812.466-8.688 8.688a81.952 81.952 0 0 1-68.6 113.359c2.31.2 4.641.319 7 .319a82.011 82.011 0 0 0 71.1-122.832z" fill="#fd4755"></path><path d="M436.136 75.892a21.057 21.057 0 0 0-6.913-4.609 21.242 21.242 0 0 1-2.646 26.678L261.421 263.117a21.034 21.034 0 0 1-14.975 6.188h-.024a21.161 21.161 0 0 1-8.028-1.578 21.229 21.229 0 0 0 17.586 9.411h.02a21.031 21.031 0 0 0 14.975-6.187l165.161-165.157a21.209 21.209 0 0 0 0-29.9z" fill="#685e68"></path><path d="M302.138 120.748a4 4 0 0 1 1.035-3.862l77.952-77.98a4 4 0 0 1 6.693 1.793l11.323 42.258-84.5 84.506zm171.991 6.262a4 4 0 0 0-2.83-2.828l-42.254-11.3-84.486 84.486 46.72 12.519a4 4 0 0 0 3.864-1.036l77.952-77.98a4 4 0 0 0 1.034-3.861z" fill="#ffc338"></path><path d="M474.129 127.01a4 4 0 0 0-2.83-2.828l-11.341-3.032a3.995 3.995 0 0 1 1.7 6.661l-77.951 77.98a4 4 0 0 1-3.863 1.036l11.431 3.063a4 4 0 0 0 3.864-1.036l77.952-77.98a4 4 0 0 0 1.038-3.864zM387.709 79.894l-54.729 54.729-21.404 21.404 3.06 11.436 84.505-84.506-3.063-11.432z" fill="#efb135"></path></g></svg>