<svg viewBox="0 0 512 512" xmlns="http://www.w3.org/2000/svg"><g><path d="M170.629 234.676h30v153.676h-30zm0 0" fill="#e1ebf0"></path><path d="M185.629 373.352v39.433l185.629-158.39-22.63-10.008-23.589 10.008zm0 0" fill="#b4d2d7"></path><path d="m46.219 254.395-21.09-10.008L0 254.395l185.629 158.39v-39.433zm0 0" fill="#e1ebf0"></path><path d="m185.629 373.352-20.016 69.324L185.63 512h45.047l15-10.008 15 10.008h30.023V373.352h-30.023l-15 10.007-15-10.007zm0 0" fill="#dbad5c"></path><path d="M80.555 373.352V512h30.023l15-10.008 15 10.008h45.05V373.352h-45.05l-15 10.007-15-10.007zm0 0" fill="#e7c994"></path><path d="M110.578 373.352h30V512h-30zm0 0" fill="#1865a1"></path><path d="M230.676 373.352h30V512h-30zm0 0" fill="#04303e"></path><path d="M371.258 185.629C371.258 83.269 287.984 0 185.628 0l-20.015 127.57 20.016 126.825h185.629zm0 0" fill="#7ed8f6"></path><path d="M0 185.629v68.766h185.629V0C83.273 0 0 83.27 0 185.629zm0 0" fill="#beebfa"></path></g></svg>