<svg viewBox="0 0 512 512" xmlns="http://www.w3.org/2000/svg"><g><path d="M329.143 297.147h36.571v73.143h-36.571z" fill="#ecbd83"></path><path d="m409.077 338.263-25.287-10.115a18.286 18.286 0 0 0-16.934 1.763l-9.285 6.189c-.329.219-.661.43-1 .626l-9.072 10.522-30.631-11.625-37.643 17.345v90.408l13.345 18.286h45.714l9.214-6.202 9.072 6.202H416l4.571-106.421a18.286 18.286 0 0 0-11.494-16.978z" fill="#dad8db"></path><path d="M330.339 287.995V269.71l7.946-18.286h18.286c10.099 0 18.286 8.187 18.286 18.286v18.286c0 11.865-7.534 21.971-18.08 25.794.001 0-26.438-2.062-26.438-25.795z" fill="#ffe09f"></path><path d="M338.286 287.995v-36.571c-10.099 0-18.286 8.186-18.286 18.286v18.286c0 15.148 12.28 27.429 27.429 27.429 3.223 0 6.476-.613 9.349-1.635-10.629-3.779-18.492-13.869-18.492-25.795z" fill="#f6d190"></path><path d="M338.286 336.57c-.34-.139-.686-.261-.999-.47l-9.285-6.19a18.286 18.286 0 0 0-16.934-1.763l-25.287 10.116a18.286 18.286 0 0 0-11.494 16.978L251 443.376l41.571 18.286V367.64a18.285 18.285 0 0 1 11.518-16.987l13.289-5.294c10.021-3.992 20.907 3.389 20.907 14.176v102.128h18.286V336.726c-5.676 3.302-12.608 3.146-18.285-.156z" fill="#c8c5c9"></path><path d="M146.286 297.147h36.571v73.143h-36.571z" fill="#e2a975"></path><path d="m226.22 338.263-25.287-10.115a18.286 18.286 0 0 0-16.934 1.763l-9.285 6.189c-.329.219-.661.43-1 .626l-9.072 10.522-30.631-11.625-37.643 17.345v90.408l13.345 18.286h45.714l9.214-6.202 9.072 6.202h84.619l-20.619-106.421a18.284 18.284 0 0 0-11.493-16.978z" fill="#dad8db"></path><path d="M147.482 287.995V269.71l7.946-18.286h18.286c10.099 0 18.286 8.187 18.286 18.286v18.286c0 11.865-7.534 21.971-18.08 25.794 0 0-26.438-2.062-26.438-25.795z" fill="#f6d190"></path><path d="M155.429 287.995v-36.571c-10.099 0-18.286 8.186-18.286 18.286v18.286c0 15.148 12.28 27.429 27.429 27.429 3.223 0 6.476-.613 9.349-1.635-10.63-3.779-18.492-13.869-18.492-25.795z" fill="#ecbd83"></path><path d="M155.429 336.57c-.34-.139-.686-.261-.999-.47l-9.285-6.19a18.286 18.286 0 0 0-16.934-1.763l-25.287 10.116a18.286 18.286 0 0 0-11.494 16.978v88.135c0 10.099 8.187 18.286 18.286 18.286V367.64a18.285 18.285 0 0 1 11.518-16.987l13.289-5.294c10.021-3.992 20.907 3.389 20.907 14.176v102.128h18.286V336.726c-5.679 3.302-12.61 3.146-18.287-.156z" fill="#c8c5c9"></path><path d="M246.857 77.71h18.286v256h-18.286z" fill="#f6d190"></path><path d="M91.429 178.281h18.286V397.71H91.429z" fill="#e2a975"></path><path d="M192 178.281H18.286a9.143 9.143 0 0 1-9.143-9.143v-45.714a9.143 9.143 0 0 1 9.143-9.143H192a9.143 9.143 0 0 1 9.143 9.143v45.714a9.143 9.143 0 0 1-9.143 9.143z" fill="#ff8086"></path><path d="M36.571 169.138c-10.099 0-18.286-8.187-18.286-18.286v-36.571H9.143A9.143 9.143 0 0 0 0 123.424v54.857a9.143 9.143 0 0 0 9.143 9.143H192a9.143 9.143 0 0 0 9.143-9.143v-9.143z" fill="#e5646e"></path><path d="M402.286 178.281h18.286V397.71h-18.286z" fill="#e2a975"></path><path d="M502.857 178.281H329.143a9.143 9.143 0 0 1-9.143-9.143v-45.714a9.143 9.143 0 0 1 9.143-9.143h173.714a9.143 9.143 0 0 1 9.143 9.143v45.714a9.142 9.142 0 0 1-9.143 9.143z" fill="#b3e59f"></path><path d="M347.429 169.138c-10.099 0-18.286-8.187-18.286-18.286v-36.571H320a9.143 9.143 0 0 0-9.143 9.143v54.857a9.143 9.143 0 0 0 9.143 9.143h182.857a9.143 9.143 0 0 0 9.143-9.143v-9.143z" fill="#95d6a4"></path><path d="M329.143 77.71H192a9.143 9.143 0 0 1-9.143-9.143V41.138A9.143 9.143 0 0 1 192 31.995h137.143a9.143 9.143 0 0 1 9.143 9.143v27.429a9.144 9.144 0 0 1-9.143 9.143z" fill="#dad8db"></path><path d="M210.286 68.567C200.187 68.567 192 60.38 192 50.281V31.995h-9.143a9.143 9.143 0 0 0-9.143 9.143V77.71a9.143 9.143 0 0 0 9.143 9.143h146.286a9.143 9.143 0 0 0 9.143-9.143v-9.143z" fill="#c8c5c9"></path><path d="M54.857 361.147h36.571v73.143H54.857z" fill="#ecbd83"></path><path d="m134.791 402.263-25.287-10.115a18.286 18.286 0 0 0-16.934 1.763l-9.285 6.19c-.329.219-.661.43-1 .626l-9.071 10.522-30.631-11.625L4.94 416.969v44.75l13.345 18.286H64l9.214-6.202 9.072 6.202H128c10.099 0 18.286-8.187 18.286-18.286v-42.478a18.285 18.285 0 0 0-11.495-16.978z" fill="#95d6a4"></path><path d="M56.054 351.995V333.71L64 315.424h18.286c10.099 0 18.286 8.187 18.286 18.286v18.286c0 11.865-7.534 21.971-18.08 25.794 0 0-26.438-2.062-26.438-25.795z" fill="#ffe09f"></path><path d="M64 351.995v-36.571c-10.099 0-18.286 8.186-18.286 18.286v18.286c0 15.148 12.28 27.429 27.429 27.429 3.223 0 6.476-.613 9.349-1.635C71.863 374.011 64 363.921 64 351.995z" fill="#f6d190"></path><path d="M64 400.57c-.34-.139-.686-.261-.999-.47l-9.285-6.19a18.286 18.286 0 0 0-16.934-1.763l-25.287 10.116A18.286 18.286 0 0 0 0 419.241v42.478c0 10.099 8.187 18.286 18.286 18.286V431.64a18.285 18.285 0 0 1 11.518-16.987l13.289-5.294C53.114 405.366 64 412.748 64 423.534v56.47h18.286v-79.278c-5.677 3.302-12.609 3.146-18.286-.156z" fill="#78c2a4"></path><path d="M420.571 361.147h36.571v73.143h-36.571z" fill="#9f6e50"></path><path d="m500.506 402.263-25.287-10.115a18.286 18.286 0 0 0-16.934 1.763L449 400.1c-.329.219-.661.43-1 .626l-9.071 10.522-30.631-11.625-37.643 17.345v44.75L384 480.005h45.714l9.214-6.202 9.072 6.202h45.714c10.099 0 18.286-8.187 18.286-18.286v-42.478a18.286 18.286 0 0 0-11.494-16.978z" fill="#8bb3ea"></path><path d="M421.768 351.995V333.71l7.946-18.286H448c10.099 0 18.286 8.187 18.286 18.286v18.286c0 11.865-7.534 21.971-18.08 25.794 0 0-26.438-2.062-26.438-25.795z" fill="#d19a6e"></path><path d="M429.714 351.995v-36.571c-10.099 0-18.286 8.186-18.286 18.286v18.286c0 15.148 12.28 27.429 27.429 27.429 3.223 0 6.476-.613 9.349-1.635-10.629-3.779-18.492-13.869-18.492-25.795z" fill="#b57f5f"></path><path d="M429.714 400.57c-.34-.139-.686-.261-.999-.47l-9.285-6.19a18.286 18.286 0 0 0-16.934-1.763l-25.287 10.116a18.286 18.286 0 0 0-11.494 16.978v42.478c0 10.099 8.187 18.286 18.286 18.286V431.64a18.285 18.285 0 0 1 11.518-16.987l13.289-5.294c10.021-3.992 20.907 3.389 20.907 14.176v56.47H448v-79.278c-5.677 3.301-12.609 3.145-18.286-.157z" fill="#739ad6"></path><path d="M296.169 379.608c-1.919-4.478-3.597-10.634-3.597-18.469v-18.286c0-5.799-1.8-11.178-4.871-15.608l-68.328 36.349c-.306 6.677-1.828 12.014-3.541 16.013-2.045 4.772.648 10.198 5.739 11.216L256 397.71l34.43-6.886c5.09-1.018 7.783-6.445 5.739-11.216z" fill="#4b3f4e"></path><path d="m234.691 401.352-24.405 14.643L256 452.567l45.714-36.572-24.405-14.643z" fill="#b57f5f"></path><path d="M256 406.853c7.741 0 14.92-2.105 21.309-5.501l-3.156-1.893a9.142 9.142 0 0 1-4.439-7.84v-30.48h-27.429v30.48a9.143 9.143 0 0 1-4.439 7.84l-3.156 1.893c6.39 3.396 13.569 5.501 21.31 5.501z" fill="#9f6e50"></path><path d="M256 387.579c-15.148 0-21.196-11.292-21.196-26.441v-18.286c0-10.099 8.187-18.286 18.286-18.286h12.054c10.099 0 18.286 8.187 18.286 18.286v18.286c0 11.871-7.541 21.98-18.094 25.799-2.915 1.055-6.058.642-9.336.642z" fill="#d19a6e"></path><path d="M246.857 361.138v-36.571c-10.099 0-18.286 8.186-18.286 18.286v18.286c0 15.148 12.28 27.429 27.429 27.429 3.223 0 6.462-.608 9.335-1.629-10.629-3.78-18.478-13.875-18.478-25.801z" fill="#b57f5f"></path><path d="m304.839 408.414-15.514-7.757a9.144 9.144 0 0 0-10.554 1.712l-16.306 16.305a9.143 9.143 0 0 1-12.929 0l-7.336-7.335-40.408 11.681v38.69l8.494 18.286h91.429c10.099 0 18.286-8.187 18.286-18.286v-28.764a27.43 27.43 0 0 0-15.162-24.532zM246.857 315.424c-15.148 0-27.429 12.28-27.429 27.429v18.286c0 .882-.015 1.616-.056 2.456 33.581-13.134 55.583-26.893 68.328-36.349-4.952-7.142-13.209-11.821-22.558-11.821h-18.285z" fill="#5d5360"></path><path d="m215.34 424.768 26.859-13.43-8.97-8.97a9.144 9.144 0 0 0-10.554-1.712l-15.513 7.757A27.43 27.43 0 0 0 192 432.947v28.763c0 10.099 8.187 18.286 18.286 18.286v-47.049a9.095 9.095 0 0 1 5.054-8.179z" fill="#4b3f4e"></path></g></svg>