<svg viewBox="0 0 512 512" xmlns="http://www.w3.org/2000/svg"><g><path d="M407.271 119.471H287.739V14.982c0-8.274-6.716-14.982-15-14.982h-33.478c-8.284 0-15 6.708-15 14.982v104.489H104.729c-8.284 0-15 6.708-15 14.982v33.438c0 8.274 6.716 14.982 15 14.982h119.532v314.145c0 8.274 6.716 14.982 15 14.982h33.478c8.284 0 15-6.708 15-14.982V182.873h119.532c8.284 0 15-6.708 15-14.982v-33.438c0-8.274-6.716-14.982-15-14.982z" fill="#a56032"></path><path d="M407.271 119.471H287.739V14.982c0-8.274-6.716-14.982-15-14.982h-16.74v512h16.74c8.284 0 15-6.708 15-14.982V182.873h119.532c8.284 0 15-6.708 15-14.982v-33.438c0-8.274-6.716-14.982-15-14.982z" fill="#854d29"></path></g></svg>