<svg viewBox="0 0 36 36" xmlns="http://www.w3.org/2000/svg"><g><path d="M9.4 32.8c0 .7 3.9 1.3 8.6 1.3 4.8 0 8.6-.6 8.6-1.3v-1.6c0 .7-3.9 1.3-8.6 1.3-4.8 0-8.6-.6-8.6-1.3z" fill="#df3260"></path><path d="M9.4 31.2c0-.7 3.9-1.3 8.6-1.3 4.8 0 8.6.6 8.6 1.3s-3.9 1.3-8.6 1.3c-4.8 0-8.6-.6-8.6-1.3z" fill="#f45170"></path><path d="M18.1 31.7c-6.4 0-6.3-.8 0-.8s6.4.8 0 .8z" fill="#cc104a"></path><path d="M22 26.4v4.9c-2.6.2-5.6.2-8 0v-4.9z" fill="#5ec363"></path><path d="M22 26.4v3.4c-.6-.3-.9-.6-1.5-.8-1.5-.4-3.1 1.4-6.6-.6v-2z" fill="#48a35d"></path><path d="M27.3 17c-.3.8-.9 1.5-1.6 2.1-.3.3-1.4 1.5-1.4 3.5 0 2.3-1.9 3.9-3.9 5.4-1.4 1-3.4 1-4.9 0-1.9-1.3-3.9-3.1-3.9-5.4 0-1.3-.5-2.6-1.4-3.5-2.2-1.8-2.8-5.1-.6-8.6 3.8-5.9 13-5.9 16.7.1 1.4 2.2 1.8 4.6 1 6.4z" fill="#5ec363"></path><path d="M25 19.2v-.1h.1z" fill="#ffabff"></path><path d="M11.1 19.6c2.8 1.6 6.1.1 5.6-2.7-.3-1.4-1.3-2.8-2.7-3.6-2-1.2-4.2-.8-5.1.8-1.1 2 .2 4.4 2.2 5.5zM19.6 18.8c1.8 2.8 6.4 1.4 7.7-1.9 1.3-3.2-2.1-5.5-5.3-3.6-1.8 1.2-3.4 3.9-2.4 5.5zM15.9 28.2c-1.8-1.2-4-3-4.2-5.2 1 .7 2.6-.1 3.4 1 .3.5.2 1.2.3 1.8.3.8 1.1 1.5.5 2.4zM20.1 28.2c1.8-1.2 4-3 4.2-5.2-1 .7-2.7-.1-3.4 1-.3.5-.2 1.2-.3 1.8-.3.8-1.1 1.5-.5 2.4z" fill="#50b069"></path><path d="M18.9 25c0-.1-.4-.3-.9-.3s-.9.2-.9.3c0 .2-.2.3-.4.2-.5-.1-.2-1.2 1.3-1.2s1.8 1.1 1.3 1.2c-.2.1-.4 0-.4-.2zM10.9 18.3c1.7 1 4.1 1.3 4.8.1.7-1.1-.5-3.2-2.2-4.2-3.7-2.3-6.4 1.8-2.6 4.1z" fill="#1d2943"></path><path d="M15.2 18.9c-1 .5-2.9.2-4.3-.6-2.3-1.4-2.3-3.6-.8-4.4-.9 2.4 2.7 5 5.1 5z" fill="#111d33"></path><path d="M12.4 15.4c.5.3 1.2.3 1.3 0 .2-.3-.3-.8-.7-1.1-1.2-.5-1.8.5-.6 1.1z" fill="#ffffff" opacity=".9"></path><path d="M12.9 18.4c-1.7.1-2.5-1.4-2.3-1.2 1 .9 1.9 1 2.3 1.2z" fill="#ffffff" opacity=".8"></path><path d="M14.7 16c-.1.1-.3.1-.5 0s-.2-.3-.1-.4c.2-.3.8.2.6.4z" fill="#ffffff" opacity=".9"></path><path d="M25.1 18.3c-1.7 1-4.1 1.3-4.8.1-.7-1.1.5-3.2 2.2-4.2 3.7-2.3 6.4 1.8 2.6 4.1z" fill="#1d2943"></path><path d="M20.8 18.9c1 .5 2.9.2 4.3-.6 2.3-1.4 2.3-3.6.8-4.4.9 2.4-2.6 5-5.1 5z" fill="#111d33"></path><path d="M23.6 15.4c-.5.3-1.2.3-1.3 0-.2-.3.3-.8.7-1.1 1.2-.5 1.8.5.6 1.1z" fill="#ffffff" opacity=".9"></path><path d="M23.1 18.4c1.7.1 2.5-1.4 2.3-1.2-1 .9-1.8 1-2.3 1.2z" fill="#ffffff" opacity=".8"></path><path d="M21.3 16c.1.1.3.1.5 0s.2-.3.1-.4c-.2-.3-.8.2-.6.4z" fill="#ffffff" opacity=".9"></path><path d="M21.9 11.7c-.7-.2-1.6 0-2.2.4s-1 .8-1.7.8c-.8 0-1.2-.5-1.7-.8-.6-.4-1.5-.6-2.2-.4-.4.1-.6-.5-.2-.6 1-.2 2 0 3 .7.3.3.6.5 1.1.5s.8-.3 1.1-.5c1-.8 2.1-1 3-.7.4.1.2.7-.2.6z" fill="#50b069"></path><path d="M13.9 9c.9-.2 2 0 2.7.5.2.2.5.4.7.5.7.4 1.2.2 1.8-.3 1-.8 2.1-1 3-.7.4.1.3.7-.2.6-.8-.2-1.6-.1-2.4.6-1 .9-1.9.9-3 0-.8-.7-1.7-.8-2.4-.6-.4.1-.6-.5-.2-.6z" fill="#50b069"></path><path d="M22.8 24.1c.1.3-.1.7-.6 1-.5.2-.9.2-1.1-.1-.1-.3.1-.7.6-1 .4-.3.9-.2 1.1.1zM13.2 24.1c-.1.3.1.7.6 1 .5.2.9.2 1.1-.1.1-.3-.1-.7-.6-1-.4-.3-.9-.2-1.1.1z" fill="#4aa35f"></path><path d="M16.5 22c-.1.1-.3-.4-.2-.8.2-.5.8-.6 1.2-.1-.6-.4-1.3.2-1 .9zM19.1 21.3c.2.2.2.6 0 .9-.6.7-1.4 0-.9-.7.3-.3.7-.4.9-.2z" fill="#1d2943"></path><path d="M19.2 22.3c-.3.4-.8.4-1 0 .5 0 .9-.6.7-1 .4-.1.6.5.3 1z" fill="#111d33"></path><path d="M19.5 22c.3-.7-.4-1.4-1-.9-.1 0 .5-.6 1-.2.2.4.2.8 0 1.1zM17.7 21.5c.5.7-.3 1.5-.9.7-.2-.3-.2-.7 0-.9.3-.2.7-.1.9.2z" fill="#1d2943"></path><path d="M17.8 22.3c-.1.4-.7.4-1 0s-.2-1 .3-1c-.2.4.2 1 .7 1z" fill="#111d33"></path><path d="M26.6 31.2c-.1 1.5-12.3 2-16.4.6-.5-.2-.9-.4-.9-.6-3.7-2.6-6.1-7-6.1-12C3.3 11 9.9 4.4 18 4.4c5.1 0 9.5 2.5 12.2 6.4 4.4 6.5 3 15.7-3.6 20.4z" fill="#d0cef2" opacity=".4"></path><path d="M26.6 31.2c-.2 1.9-17.1 1.9-17.3 0-1.1-.8-2-1.7-2.9-2.7 4 .7 11.4-.3 17.7-3.8 7.3-4.1 8.3-9.6 6-13.8 4.5 6.4 3.1 15.6-3.5 20.3z" fill="#d0cef2" opacity=".4"></path><path d="m31.7 5.3-3.4 3.3c-.3-.3-.7-.7-1.1-1l3.4-3.4c.3-.3.7-.3 1 0s.3.8.1 1.1z" fill="#4c5c75"></path><path d="M34 4.4c-.1.8-.5 1.5-1.1 1.9-1.8 1.2-4.2-.6-3.6-2.7.2-.5.5-1 1-1.3 1.7-1.1 3.8.2 3.7 2.1z" fill="#ffd475"></path><path d="M34 4.5c0 .7-.4 1.4-1.1 1.8-1.8 1.2-4.2-.6-3.6-2.7C30.5 5.9 33 6 34 4.5z" fill="#ffb961"></path><path d="M31.9 3.5c-.6-.1-1-.2-1-.6-.1-.4.4-.8 1-.8.7 0 1.2.6 1.1 1-.1.5-.6.5-1.1.4z" fill="#ffffff" opacity=".3"></path><path d="M31.6 2.6c0-.3.8-.2.7.1 0 .1-.8.1-.7-.1z" fill="#ffffff" opacity=".7"></path><path d="M8.8 7.6c-.4.3-.8.6-1.1 1L4.3 5.3c-.2-.3-.2-.8 0-1.1.3-.3.8-.3 1.1 0z" fill="#4c5c75"></path><path d="M3.1 6.3c-.7-.4-1-1.1-1.1-1.9 0-.4.1-1 .4-1.4 1.1-1.7 3.7-1.4 4.3.6.6 2.1-1.7 3.8-3.6 2.7z" fill="#ffd475"></path><path d="M3.1 6.3c-.7-.4-1-1.1-1.1-1.9C3 6 5.5 6 6.7 3.6 7.3 5.7 5 7.4 3.1 6.3z" fill="#ffb961"></path><path d="M4.1 3.5c.6-.1 1-.2 1-.6.1-.4-.4-.8-1-.8-.7 0-1.2.6-1.1 1 .1.5.6.5 1.1.4z" fill="#ffffff" opacity=".3"></path><path d="M4.4 2.6c0-.3-.8-.2-.7.1 0 .2.8.1.7-.1z" fill="#ffffff" opacity=".7"></path><path d="M28.1 16.1c-.1 0-.3.1-.2.3.8 1.6.8 1.8-.2.1-.1-.1-.3-.1-.3 0-1.2 3.7-1.4 3.8-.4-.1 0-.1-.1-.3-.3-.2-1.7.9-1.8.8-.1-.2.1-.1.1-.3 0-.3-3.7-1.2-3.8-1.4.1-.4.1 0 .3-.1.2-.3-.9-1.7-.8-1.7.2-.1.1.1.3.1.3 0 1.2-3.7 1.4-3.8.4.1 0 .1.1.3.3.2 1.7-.9 1.7-.8.1.2-.1.1-.1.3 0 .3 3.8 1.2 3.8 1.4-.1.4z" fill="#ffffff"></path></g></svg>