<svg viewBox="0 0 512 512" xmlns="http://www.w3.org/2000/svg"><g><path d="M318.032 38.944h-.005a7.725 7.725 0 0 0-7.724 7.719l-.13 217.127a7.724 7.724 0 0 0 7.719 7.729h.005a7.725 7.725 0 0 0 7.724-7.719l.13-217.127a7.724 7.724 0 0 0-7.719-7.729z" fill="#6b7790"></path><path d="M224.973 62.233h-.005a7.725 7.725 0 0 0-7.724 7.719l-.13 217.126a7.724 7.724 0 0 0 7.719 7.729h.005a7.725 7.725 0 0 0 7.724-7.719l.13-217.126a7.723 7.723 0 0 0-7.719-7.729z" fill="#525e77"></path><path d="M509.911 276.196 454.878 70.811a7.717 7.717 0 0 0-9.46-5.461 7.722 7.722 0 0 0-5.461 9.46l56.197 209.728z" fill="#6b7790"></path><path d="M66.582 65.35c-4.121-1.109-8.356 1.341-9.46 5.461L2.055 276.578a7.723 7.723 0 0 0 5.461 9.46c.67.18 1.343.266 2.004.266a7.727 7.727 0 0 0 7.456-5.727L72.044 74.81a7.724 7.724 0 0 0-5.462-9.46z" fill="#525e77"></path><path d="M403.799 93.219 232.2 93.117c-8.284-.005-14.996-6.725-14.991-15.009l.038-63.028c.005-8.284 6.725-14.996 15.009-14.991l171.599.103c8.284.005 14.996 6.725 14.991 15.009l-.038 63.028c-.005 8.283-6.725 14.995-15.009 14.99z" fill="#f9d171"></path><path d="m271.981 124.214-94.109-.056c-8.284-.005-14.996-6.725-14.991-15.009l.028-47.54c.005-8.284 6.725-14.996 15.009-14.991l94.109.056c8.284.005 14.996 6.725 14.991 15.009l-.028 47.54c-.005 8.284-6.725 14.996-15.009 14.991z" fill="#deddf5"></path><path d="m500.879 90.598-90.867 24.348c-8.002 2.144-16.227-2.605-18.371-10.607l-12.306-45.925c-2.144-8.002 2.605-16.227 10.607-18.371l90.867-24.348c8.002-2.144 16.227 2.605 18.371 10.607l12.306 45.925c2.143 8.002-2.605 16.227-10.607 18.371z" fill="#ff6e80"></path><path d="M217.224 232.748V387.84H96.613l-11.216-23.265v-47.53c0-7.806-9.434-11.72-14.954-6.199l-.154.154c-12.05 12.05-31.608 12.019-43.627-.072l-22.019-22.02c-6.231-6.231-6.056-16.448.546-22.442 6.169-5.623 15.788-5.088 21.7.824l17.982 17.982a5.153 5.153 0 0 0 7.281 0l29.26-29.26 3.986-23.265h131.826z" fill="#af602d"></path><path d="M157.902 232.748h59.322V387.84h-77.541v-31.021c0-24.058 7.305-46.416 19.818-64.96.887-1.315 1.167-2.957.674-4.465a100.784 100.784 0 0 1-4.981-31.382c0-8.001.937-15.797 2.708-23.264z" fill="#a05423"></path><path d="M201.714 217.237c0 16.52-5.737 31.7-15.335 43.647l-15.16 2.029-12.699 18.868c-8.198 3.388-17.179 5.253-26.592 5.253-38.549 0-69.797-31.247-69.797-69.796 0-38.539 31.247-69.786 69.797-69.786 24.573 0 46.18 12.709 58.611 31.906 7.066 10.906 11.175 23.914 11.175 37.879z" fill="#ffbf9d"></path><path d="M190.54 179.357c7.065 10.907 11.174 23.914 11.174 37.88 0 29.136-17.848 54.09-43.194 64.544a100.77 100.77 0 0 1-3.327-25.768c.001-30.691 13.709-58.179 35.347-76.656z" fill="#ffac89"></path><path d="M178.459 364.575v93.113c0 8.538-6.921 15.448-15.448 15.448h-23.358l-7.724-3.893-7.724 3.893h-23.358c-8.528 0-15.448-6.911-15.448-15.448v-93.113z" fill="#525e77"></path><path d="m507.357 288.908-22.019 22.019c-12.019 12.091-31.577 12.122-43.627.072l-.154-.154c-5.52-5.521-14.954-1.607-14.954 6.199v47.53l-7.776 23.265H294.776V232.748h131.827l3.986 23.265 29.26 29.26a5.153 5.153 0 0 0 7.281 0l17.982-17.982c5.912-5.912 15.531-6.447 21.7-.824 6.601 5.993 6.776 16.21.545 22.441z" fill="#c76d33"></path><path d="M372.317 356.819v31.021h-77.541V232.748h59.322a100.752 100.752 0 0 1 2.708 23.265c0 10.955-1.751 21.503-4.981 31.382-.493 1.508-.213 3.15.674 4.465 12.513 18.543 19.818 40.902 19.818 64.959z" fill="#af602d"></path><path d="M449.868 217.237c0 38.549-31.247 69.796-69.797 69.796-9.413 0-18.394-1.864-26.592-5.253l-16.334-19.125-11.525-1.772c-9.598-11.947-15.335-27.127-15.335-43.647 0-13.965 4.11-26.973 11.174-37.88 12.431-19.197 34.038-31.906 58.611-31.906 38.551.001 69.798 31.249 69.798 69.787z" fill="#ffd4bd"></path><path d="M356.806 256.013c0 8.909-1.154 17.539-3.327 25.768-25.346-10.453-43.194-35.408-43.194-64.544 0-13.965 4.11-26.973 11.174-37.88 21.639 18.477 35.347 45.965 35.347 76.656z" fill="#ffbf9d"></path><path d="M426.602 364.575v93.113c0 8.538-6.921 15.448-15.448 15.448h-23.358l-7.724-2.842-7.724 2.842H348.99c-8.528 0-15.448-6.911-15.448-15.448v-93.113z" fill="#6b7790"></path><path d="M341.296 356.819v54.348c0 8.528-6.911 15.448-15.448 15.448H186.153c-8.538 0-15.448-6.921-15.448-15.448v-54.348c0-47.107 38.188-85.296 85.296-85.296 23.554 0 44.883 9.547 60.311 24.985 15.437 15.428 24.984 36.757 24.984 60.311z" fill="#00d2b4"></path><path d="M224.917 364.575v62.041h-9.938l-5.51-22.235v-39.805a7.727 7.727 0 0 1 7.724-7.724 7.718 7.718 0 0 1 7.724 7.723zM302.531 364.575v39.805l-6.674 22.235h-8.775v-62.041a7.72 7.72 0 0 1 7.724-7.724 7.728 7.728 0 0 1 7.725 7.725z" fill="#00c5a3"></path><path d="M325.786 256.013c0 38.549-31.236 69.786-69.786 69.786-.669 0-1.339-.01-2.008-.031L197.78 294.5h-.01c-7.302-11.03-11.555-24.264-11.555-38.487 0-37.447 29.475-67.994 66.5-69.704a57.873 57.873 0 0 1 3.285-.082c38.549 0 69.786 31.237 69.786 69.786z" fill="#ffd4bd"></path><path d="M253.992 325.768c-37.622-1.061-67.777-31.876-67.777-69.755 0-37.447 29.475-67.994 66.5-69.704-10.227 17.849-38.446 77.778 1.277 139.459z" fill="#ffbf9d"></path><path d="M302.531 404.38v92.083c0 8.532-6.917 15.448-15.448 15.448h-23.358L256 508.338l-7.724 3.573h-23.358c-8.532 0-15.448-6.917-15.448-15.448V404.38c0-.569.461-1.03 1.03-1.03h91.002a1.03 1.03 0 0 1 1.029 1.03z" fill="#6b7790"></path><path d="M139.653 411.105v62.031h-15.448v-62.031a7.727 7.727 0 0 1 7.724-7.724 7.728 7.728 0 0 1 7.724 7.724z" fill="#3b4456"></path><path d="M387.796 411.105v62.031h-15.448v-62.031c0-4.263 3.461-7.724 7.724-7.724s7.724 3.461 7.724 7.724zM263.724 449.881v62.03h-15.448v-62.03c0-4.274 3.46-7.724 7.724-7.724s7.724 3.45 7.724 7.724z" fill="#525e77"></path><path d="m11.121 90.598 90.867 24.348c8.002 2.144 16.227-2.605 18.371-10.607l12.306-45.925c2.144-8.002-2.605-16.227-10.607-18.371L31.192 15.695C23.19 13.551 14.965 18.3 12.82 26.302L.515 72.227c-2.144 8.002 2.604 16.227 10.606 18.371z" fill="#59c2e8"></path></g></svg>