<svg viewBox="0 0 682.667 682.667" xmlns="http://www.w3.org/2000/svg"><g><defs><clippath clippathunits="userSpaceOnUse" id="a"><path d="M0 512h512V0H0Z" fill="#000000"></path></clippath></defs><g clip-path="url(#a)" transform="matrix(1.33333 0 0 -1.33333 0 682.667)"><path d="M0 0H-123.354c-22.503 0-40.745-18.242-40.745-40.745v-66.768H40.744v66.768C40.744-18.242 22.502 0 0 0" fill="#f07181" transform="translate(434.158 181.352)"></path><path d="M0 0H-123.354c-22.503 0-40.745-18.242-40.745-40.745v-66.768H40.745v66.768C40.745-18.242 22.502 0 0 0" fill="#ffc344" transform="translate(198.243 181.352)"></path><path d="M0 0h15.081v56.777c0 29.988-24.31 54.297-54.297 54.297h-15.081V54.297C-54.297 24.31-29.987 0 0 0" fill="#5a5a5a" transform="translate(496.92 159.87)"></path><path d="M0 0h-15.081v-1.233c24.46-5.279 42.793-27.026 42.793-53.064v-55.544a54.438 54.438 0 0 1 11.504-1.233h15.081v56.777C54.297-24.31 29.987 0 0 0" fill="#444444" transform="translate(457.703 270.943)"></path><path d="M0 0h-15.081v56.777c0 29.988 24.31 54.297 54.297 54.297h15.081V54.297C54.297 24.31 29.987 0 0 0" fill="#5a5a5a" transform="translate(15.08 159.87)"></path><path d="M0 0h26.395c7.304 0 13.226-5.921 13.226-13.227 0-7.304-5.922-13.226-13.226-13.226H0z" fill="#f07181" transform="translate(468.218 293.547)"></path><path d="M0 0h-26.394c-7.305 0-13.227 5.922-13.227 13.227 0 7.305 5.922 13.226 13.227 13.226H0z" fill="#ffe177" transform="translate(44.13 267.094)"></path><path d="M0 0h-33.371C-10.869 0 7.374-18.242 7.374-40.745v-66.768h33.371v66.768C40.745-18.242 22.502 0 0 0" fill="#eb5569" transform="translate(437.111 181.352)"></path><path d="M0 0c-19.6 0-35.489 15.889-35.489 35.489v85.405h70.977V35.489C35.488 15.889 19.6 0 0 0" fill="#ffaf9e" transform="translate(373.822 138.44)"></path><path d="M0 0a85.252 85.252 0 0 1 35.411-7.671A85.258 85.258 0 0 1 70.977.07v81.388H0Z" fill="#ffa78f" transform="translate(338.334 177.875)"></path><path d="M0 0h-44.585c-16.046 0-29.054 13.008-29.054 29.055 0 16.046 13.008 29.053 29.054 29.053H0z" fill="#ffaf9e" transform="translate(332.593 259.35)"></path><path d="M0 0h46.165C62.21 0 75.219 13.008 75.219 29.055c0 16.046-13.009 29.053-29.054 29.053H0Z" fill="#ffa78f" transform="translate(413.209 259.35)"></path><path d="M0 0c-47.282 0-85.612 38.33-85.612 85.612v29.729c0 47.282 38.33 85.612 85.612 85.612 47.283 0 85.612-38.33 85.612-85.612V85.612C85.612 38.33 47.283 0 0 0" fill="#ffcebf" transform="translate(373.744 187.928)"></path><path d="M0 0h-16.28a8.825 8.825 0 0 0-8.826 8.826 8.825 8.825 0 0 0 8.826 8.826H0a8.825 8.825 0 0 0 8.826-8.826A8.825 8.825 0 0 0 0 0" fill="#fe8f83" transform="translate(325.88 241.004)"></path><path d="M0 0c-4.011 0-7.951-.298-11.815-.831C29.872-6.59 61.981-42.342 61.981-85.612v-29.729c0-43.271-32.109-79.023-73.796-84.782A86.374 86.374 0 0 1 0-200.953c47.282 0 85.612 38.33 85.612 85.612v29.729C85.612-38.33 47.282 0 0 0" fill="#ffaf9e" transform="translate(373.744 388.88)"></path><path d="M0 0a9.067 9.067 0 0 1-9.067-9.066A9.067 9.067 0 0 1-18.134 0c-54.038 0-97.844-43.806-97.844-97.843v-22.829h57.095c27.512 0 49.815 22.303 49.816 49.815.001-27.512 22.304-49.815 49.816-49.815h57.094v22.829C97.843-43.806 54.037 0 0 0" fill="#5a5a5a" transform="translate(382.758 438.16)"></path><path d="M0 0a9.026 9.026 0 0 1-6.586-2.849c42.71-10.506 74.395-49.042 74.395-94.994v-22.829h30.034v22.829C97.843-43.806 54.037 0 0 0" fill="#444444" transform="translate(382.758 438.16)"></path><path d="M0 0h-16.279a8.826 8.826 0 1 0 0 17.652H0A8.826 8.826 0 1 0 0 0" fill="#fe8f83" transform="translate(438.315 241.004)"></path><path d="M0 0h-33.371C-10.868 0 7.374-18.242 7.374-40.745v-66.768h33.371v66.768C40.745-18.242 22.503 0 0 0" fill="#f6ab31" transform="translate(201.196 181.352)"></path><path d="M0 0c19.6 0 35.489 15.889 35.489 35.489v85.405h-70.977V35.489C-35.488 15.889-19.6 0 0 0" fill="#ffaf9e" transform="translate(138.178 138.44)"></path><path d="M0 0a85.252 85.252 0 0 0-35.411-7.671A85.258 85.258 0 0 0-70.977.07v81.388H0Z" fill="#ffa78f" transform="translate(173.667 177.875)"></path><path d="M0 0h-44.585C-60.631 0-73.64 13.008-73.64 29.055c0 16.046 13.009 29.053 29.055 29.053H0z" fill="#ffaf9e" transform="translate(97.212 259.35)"></path><path d="M0 0h46.164C62.21 0 75.218 13.008 75.218 29.055c0 16.046-13.008 29.053-29.054 29.053H0Z" fill="#ffa78f" transform="translate(177.828 259.35)"></path><path d="M0 0c-47.283 0-85.613 38.33-85.613 85.612v29.729c0 47.282 38.33 85.612 85.613 85.612 47.282 0 85.612-38.33 85.612-85.612V85.612C85.612 38.33 47.282 0 0 0" fill="#ffcebf" transform="translate(138.363 187.928)"></path><path d="M0 0c-4.012 0-7.951-.298-11.816-.831C29.872-6.59 61.981-42.342 61.981-85.612v-29.729c0-43.271-32.109-79.023-73.797-84.782A86.389 86.389 0 0 1 0-200.953c47.282 0 85.612 38.33 85.612 85.612v29.729C85.612-38.33 47.282 0 0 0" fill="#ffaf9e" transform="translate(138.363 388.88)"></path><path d="M0 0a9.068 9.068 0 0 1-9.067-9.066A9.066 9.066 0 0 1-18.134 0c-54.037 0-97.844-43.806-97.844-97.843v-22.829h57.095c27.512 0 49.815 22.303 49.816 49.815.001-27.512 22.304-49.815 49.816-49.815h57.094v22.829C97.843-43.806 54.038 0 0 0" fill="#5a5a5a" transform="translate(147.376 438.16)"></path><path d="M0 0a9.028 9.028 0 0 1-6.586-2.849C36.124-13.355 67.81-51.891 67.81-97.843v-22.829h30.033v22.829C97.843-43.806 54.038 0 0 0" fill="#444444" transform="translate(147.376 438.16)"></path><path d="M0 0h16.279a8.826 8.826 0 1 1 0 17.652H0A8.826 8.826 0 1 1 0 0" fill="#fe8f83" transform="translate(73.686 241.004)"></path><path d="M0 0h16.28a8.825 8.825 0 0 1 8.826 8.826 8.825 8.825 0 0 1-8.826 8.826H0a8.825 8.825 0 0 1-8.826-8.826A8.825 8.825 0 0 1 0 0" fill="#fe8f83" transform="translate(186.12 241.004)"></path><path d="M0 0c-14.339 0-26.005 11.665-26.005 26.005a7.815 7.815 0 0 0 15.631 0c0-5.721 4.654-10.374 10.374-10.374 5.721 0 10.375 4.653 10.375 10.374a7.815 7.815 0 0 0 15.631 0C26.006 11.665 14.34 0 0 0" fill="#ffa799" transform="translate(138.042 221.52)"></path><path d="M0 0a7.815 7.815 0 0 0-7.816 7.815v10.286a7.817 7.817 0 0 0 .034 15.631H0a7.814 7.814 0 0 0 7.815-7.815V7.815A7.814 7.814 0 0 0 0 0" fill="#5a5a5a" transform="translate(96.9 265.774)"></path><path d="M0 0a7.814 7.814 0 0 0-7.815 7.815v18.102A7.814 7.814 0 0 0 0 33.732h7.783a7.815 7.815 0 0 0 .032-15.631V7.815A7.814 7.814 0 0 0 0 0" fill="#5a5a5a" transform="translate(179.772 265.774)"></path><path d="M0 0c-14.34 0-26.006 11.665-26.006 26.005a7.815 7.815 0 0 0 15.631 0c0-5.721 4.654-10.374 10.375-10.374s10.375 4.653 10.375 10.374a7.815 7.815 0 0 0 15.631 0C26.006 11.665 14.339 0 0 0" fill="#ffa799" transform="translate(373.397 221.52)"></path><path d="M0 0a7.814 7.814 0 0 0-7.815 7.815v10.286a7.816 7.816 0 0 0 .033 15.631H0a7.814 7.814 0 0 0 7.815-7.815V7.815A7.814 7.814 0 0 0 0 0" fill="#5a5a5a" transform="translate(332.254 265.774)"></path><path d="M0 0a7.814 7.814 0 0 0-7.815 7.815v18.102A7.814 7.814 0 0 0 0 33.732h7.783a7.814 7.814 0 0 0 7.815-7.815 7.815 7.815 0 0 0-7.783-7.816V7.815A7.814 7.814 0 0 0 0 0" fill="#5a5a5a" transform="translate(415.127 265.774)"></path></g></g></svg>