<svg viewBox="0 0 76 76" xmlns="http://www.w3.org/2000/svg"><g><path d="M35.54 69.25H23.6c-.89 0-1.61-.75-1.58-1.64.09-2.73.38-3.3.38-3.3l6.52-3.13 5.72 3.69c.66.43 1.42.66 2.2.76 1.36.16 2.06.61 2.42 1.02s.59 2.6-3.72 2.6z" fill="#e85d04"></path><path d="M47 21.07C45.6 17.18 41.53 9.75 30.44 7.4c-2.85-.6-6.18-1.1-11.65 0 0 0-15.19 2.79-11.32 15.12 1.68 5.38 5.24 6.51 6.34 9.08 1.77 4.09.65 5.48 4.18 13.17-.43 2.63-.26 5.13.88 7.46 0 0 .19 2.71 2.42 6.89 1.7 3.16 1.1 5.19 1.1 5.19 3.14.65 5.4-.25 6.52-3.13 0 0-2.11-2.12-1.83-7.48.17-3.22-.32-6.31-.74-8.26-.28-1.29-.31-2.62-.15-3.93.26-2.2-.23-3.65-.23-3.65v-.01c.69-1.28 1.4-2.53 2.2-3.67.31-.44.77-.73 1.3-.83 1.27-.27 3.96-.97 6.82-2.63.34-.19.72-.3 1.11-.28 1.04.02 3.36-.06 5.42-1.24 1.05-.59 2.37-.24 2.94.82.28.54.51 1.19.55 1.91l5.13-6.64s-3.04-.34-4.43-4.22zm-13.94 4.57c-3.02.51-5.63 1.95-7.17 2.99-.52.35-.98.77-1.37 1.25 0 0-.81-4.4-1.62-8.25-.8-3.85 1.82-3.39 1.82-3.39s4.08-.39 6.82 4.52c0 0-.1 2.14 1.97 2.8-.15.03-.3.05-.45.08z" fill="#faa307"></path><path d="M43.69 28.93c.82-.08 1.64.31 2.06 1.09.28.54.51 1.19.55 1.91l5.13-6.64c-3.12-1.36-7.94 1.15-7.74 3.64z" fill="#f48c06"></path><path d="M28.91 61.18c-1.12 2.88-3.38 3.78-6.52 3.13 0 0 .6-2.03-1.1-5.19-2.23-4.18-2.42-6.89-2.42-6.89l-.88-7.46c-3.53-7.69-2.41-9.08-4.18-13.17-1.1-2.57-4.66-3.7-6.34-9.08C3.6 10.19 18.79 7.4 18.79 7.4s6.27 3.86 5.93 10.84c0 0-2.62-.46-1.82 3.39.81 3.85 1.62 8.25 1.62 8.25l1.44 7.98s.49 1.45.23 3.65c-.16 1.31-.13 2.64.15 3.93.42 1.95.91 5.04.74 8.26-.28 5.36 1.83 7.48 1.83 7.48z" fill="#dc2f02"></path><path d="M25.28 64.42c-.86.15-1.82.11-2.89-.11 0 0 .6-2.03-1.1-5.19-2.23-4.18-2.42-6.89-2.42-6.89l-.88-7.46c-3.53-7.69-2.41-9.08-4.18-13.17-1.1-2.57-4.66-3.7-6.34-9.08C3.6 10.19 18.79 7.4 18.79 7.4s.24.15.62.43C15.57 8.98 6.7 12.76 9.76 22.52c1.68 5.38 5.24 6.51 6.34 9.08 1.77 4.09.65 5.48 4.18 13.17l.88 7.46s.19 2.71 2.42 6.89c1.7 3.16 1.1 5.19 1.1 5.19.21.04.41.08.6.11z" fill="#c42405"></path><path d="M54.61 36.96c-.47.08-.88.12-1.38.12-3.86 0-6.99-2.68-6.99-5.98 0-3.31 3.13-6 6.99-6 4.56-.53 5.94 11.33 1.38 11.86z" fill="#faa307"></path><path d="M69.12 31.45c-.8 6.59-9.65 6.62-5.55 14.63-4.69-2.44-4.13-8.97-.31-12.33 1.1-.97 2.1-3.91.02-4.49-1.32-.59-2.23.65-3.24 1.33l-.78-2.7c2.63-4.79 10.53-1.93 9.86 3.56z" fill="#353535"></path><path d="M24.41 49.95c.84 1.17-.44 2.74-2.16 1.22-1.72-1.53-3.38 1.06-3.38 1.06-2.29.78-1.14-1.67-1.14-1.67-1.86.17-.49-2-.49-2s-1.45.3-.05-2.07c1.39-2.37 2.5-7.61 4.1-10.55.95-1.73 2.96-5.19 3.54-6.41l3.33 4.65c-2.27 3.25-3.87 7.42-6.08 10.28-1.51 2.62 1.45 4.3 2.33 5.49z" fill="#faa307"></path><path d="M30.92 21.78c.22.3.42.63.62.98 0 0-.1 2.14 1.97 2.8-.15.03-.3.05-.45.08-3.02.51-5.63 1.95-7.17 2.99-.52.35-.98.77-1.37 1.25 0 0-.01-.08-.04-.21L23 32.88c1.42-1.79 4.46-3.91 5.15-4.43 1.28-.97 9.33-3.37 9.33-3.37v-1.31z" fill="#f48c06"></path><path d="m60.49 30.82-.03.44c-.17 1.4-.73 2.73-1.62 3.83-1.21 1.48-2.78 2.51-3.78 2.65-.34.05-.6-.27-.56-.61.43-3.07-2.07-6.09-1.01-6.43 1.13-.36 1.5-2.8-.22-3.24S50.41 25 50.41 25c1.08-.45 2.21-.67 3.42-.56 3.86.22 6.85 3.08 6.66 6.38z" fill="#353535"></path><path d="M30.16 20.6c2.07-4.31 8.43-9.97 8.43-9.97 2.06 1.36 3.72 2.81 4.91 4.35-2.78-.59-8.03 7.52-6.01 8.78-4.78 3.53-6.41 1.52-7.33-3.16z" fill="#440ae5"></path></g></svg>