<svg viewBox="0 0 512 512" xmlns="http://www.w3.org/2000/svg"><g><path d="M487.227 231.226C487.227 358.928 356.339 512 256 512S24.774 358.928 24.774 231.226 128.298 0 256 0s231.227 103.523 231.227 231.226z" fill="#ffe17d"></path><path d="M305.548 495.484c-100.338 0-231.226-161.33-231.226-289.032 0-80.667 41.334-151.65 103.951-193.022-89.459 31.93-153.5 117.368-153.5 217.796C24.774 358.928 155.662 512 256 512c20.459 0 42.186-6.45 63.817-17.665-4.806.685-9.58 1.149-14.269 1.149z" fill="#ffd164"></path><path d="M256 445.935c-27.365 0-49.548-22.184-49.548-49.548v-41.29c0-27.365 22.184-49.548 49.548-49.548 27.365 0 49.548 22.184 49.548 49.548v41.29c0 27.365-22.183 49.548-49.548 49.548z" fill="#9c6846"></path><path d="M79.418 324.349c-15.681 3.136-25.324 18.954-20.892 34.319 8.493 29.445 20.373 78.341 23.354 129.8C82.644 501.641 93.387 512 106.582 512h54.9c15.539 0 27.253-14.085 24.36-29.352-7.559-39.882-28.431-111.037-84.322-153.173-6.313-4.76-14.35-6.677-22.102-5.126zM432.582 324.349c15.681 3.136 25.324 18.954 20.892 34.319-8.493 29.445-20.373 78.341-23.354 129.8-.764 13.173-11.507 23.532-24.702 23.532h-54.9c-15.539 0-27.253-14.085-24.36-29.352 7.559-39.882 28.431-111.037 84.322-153.173 6.313-4.76 14.35-6.677 22.102-5.126z" fill="#ffd164"></path><path d="M256 165.161c91.791 0 173.526 42.84 226.471 109.558 3.041-14.647 4.755-29.231 4.755-43.494C487.227 103.523 383.703 0 256 0S24.774 103.523 24.774 231.226c0 14.263 1.714 28.847 4.755 43.494C82.474 208.001 164.209 165.161 256 165.161z" fill="#c4deff"></path><path d="M74.323 206.452c0-80.667 41.334-151.65 103.951-193.022-89.459 31.93-153.5 117.368-153.5 217.796 0 14.263 1.714 28.846 4.754 43.493l.001.001c13.567-17.097 29.049-32.595 46.082-46.236-.813-7.426-1.288-14.788-1.288-22.032z" fill="#a5cdff"></path><path d="M327.147 150.969c28.37-8.603 58.342 7.421 66.945 35.79l9.586 31.611c8.603 28.369-7.421 58.342-35.79 66.945-28.369 8.603-58.342-7.421-66.945-35.79l-9.586-31.611c-8.604-28.369 7.42-58.342 35.79-66.945zM184.853 150.969c-28.37-8.603-58.342 7.421-66.945 35.79l-9.586 31.611c-8.603 28.369 7.421 58.342 35.79 66.945 28.369 8.603 58.342-7.421 66.945-35.79l9.586-31.611c8.604-28.369-7.42-58.342-35.79-66.945z" fill="#ffffff"></path><path d="M136.826 487.226c-12.35 0-22.404-8.638-23.118-19.622-2.79-42.906-13.908-83.675-21.857-108.227-3.539-10.93 2.558-22.077 13.525-26.756-1.297-1.04-2.519-2.14-3.855-3.148-6.312-4.759-14.349-6.676-22.101-5.125-15.681 3.137-25.324 18.954-20.892 34.319 8.493 29.445 20.372 78.342 23.354 129.8.762 13.174 11.505 23.533 24.7 23.533h54.9c13.963 0 24.74-11.39 24.702-24.774h-49.358zM396.414 487.226c-15.539 0-27.253-12.981-24.36-27.05 6.938-33.737 25.178-91.702 71.338-131.032-3.113-2.288-6.745-3.982-10.81-4.795-7.752-1.55-15.789.367-22.101 5.125-55.891 42.137-76.764 113.291-84.322 153.174C323.266 497.915 334.981 512 350.52 512h54.9c13.196 0 23.938-10.359 24.701-23.533.024-.417.073-.825.098-1.241h-33.805z" fill="#ffc350"></path><path d="M256 305.548c-27.365 0-49.548 22.183-49.548 49.548v33.032c0-27.365 22.183-49.548 49.548-49.548s49.548 22.183 49.548 49.548v-33.032c0-27.364-22.183-49.548-49.548-49.548z" fill="#7d5046"></path></g></svg>