<svg viewBox="0 0 512 512" xmlns="http://www.w3.org/2000/svg"><g><path d="m356.616 494.928-27.45-143.646H182.834l-27.45 143.646c-1.673 8.754 5.02 16.874 13.932 16.903l51.911.169a14.23 14.23 0 0 0 13.531-9.682L256 439.355l21.242 62.963A14.232 14.232 0 0 0 290.773 512l51.911-.169c8.912-.029 15.605-8.149 13.932-16.903z" fill="#4e6665"></path><path d="m306.304 511.949 36.38-.118c8.912-.029 15.605-8.149 13.932-16.903l-27.45-143.646h-53.565l30.703 160.667z" fill="#3f4f4f"></path><path d="M484.893 87.013H394.04a7.726 7.726 0 1 1 0-15.452h90.854a7.726 7.726 0 1 1-.001 15.452z" fill="#a1ccce"></path><path d="M504.11 115.097H490.7a7.867 7.867 0 0 1-7.867-7.867V51.343a7.867 7.867 0 0 1 7.867-7.867h13.41a7.867 7.867 0 0 1 7.867 7.867v55.886a7.867 7.867 0 0 1-7.867 7.868zM388.233 115.097h-13.41a7.867 7.867 0 0 1-7.867-7.867V51.343a7.867 7.867 0 0 1 7.867-7.867h13.41a7.867 7.867 0 0 1 7.867 7.867v55.886a7.868 7.868 0 0 1-7.867 7.868z" fill="#4e6665"></path><path d="M440.123 65.198c-10.69 0-19.356 8.645-19.356 19.308v66.539h-44.113v38.616h49.987c18.106 0 32.837-14.695 32.837-32.757V84.506c0-10.663-8.666-19.308-19.355-19.308z" fill="#ffe6cf"></path><path d="M117.96 87.013H27.107a7.726 7.726 0 1 1 0-15.452h90.854a7.726 7.726 0 1 1-.001 15.452z" fill="#a1ccce"></path><path d="M7.89 115.097H21.3a7.867 7.867 0 0 0 7.867-7.867V51.343a7.867 7.867 0 0 0-7.867-7.867H7.89a7.867 7.867 0 0 0-7.867 7.867v55.886a7.867 7.867 0 0 0 7.867 7.868zM123.767 115.097h13.41a7.867 7.867 0 0 0 7.867-7.867V51.343a7.867 7.867 0 0 0-7.867-7.867h-13.41a7.867 7.867 0 0 0-7.867 7.867v55.886a7.868 7.868 0 0 0 7.867 7.868z" fill="#4e6665"></path><path d="M71.877 65.198c10.69 0 19.356 8.645 19.356 19.308v66.539h44.113v38.616H85.359c-18.106 0-32.837-14.695-32.837-32.757V84.506c0-10.663 8.666-19.308 19.355-19.308z" fill="#ffe6cf"></path><path d="M307.884 140.592c-5.06 0-9.657 2.937-11.771 7.523-6.979 15.138-22.314 25.649-40.113 25.649s-33.134-10.511-40.113-25.649a12.956 12.956 0 0 0-11.771-7.523H129.76c-4.608 0-8.344 3.726-8.344 8.323v45.576c0 4.597 3.736 8.323 8.344 8.323h32.599c5.936 0 10.748 4.8 10.748 10.721v125.25c0 10.977 8.92 19.875 19.924 19.875h125.938c11.004 0 19.924-8.898 19.924-19.875v-125.25c0-5.921 4.812-10.721 10.748-10.721h32.599c4.608 0 8.344-3.726 8.344-8.323v-45.576c0-4.597-3.736-8.323-8.344-8.323h-74.356z" fill="#f4567f"></path><path d="M382.24 140.592h-53.221c4.608 0 8.344 3.726 8.344 8.323v45.576c0 4.597-3.736 8.323-8.344 8.323H296.42c-5.936 0-10.748 4.8-10.748 10.721v125.25c0 10.977-8.92 19.875-19.924 19.875h53.221c11.004 0 19.924-8.898 19.924-19.875v-125.25c0-5.921 4.812-10.721 10.748-10.721h32.599c4.608 0 8.344-3.726 8.344-8.323v-45.576c0-4.597-3.736-8.323-8.344-8.323z" fill="#ef0f44"></path><ellipse cx="256" cy="62.671" fill="#ffe6cf" rx="55.916" ry="62.671"></ellipse><path d="M256 0c-9.493 0-18.428 2.66-26.259 7.338 17.643 10.54 29.657 31.36 29.657 55.333s-12.014 44.792-29.657 55.333c7.83 4.678 16.766 7.338 26.259 7.338 30.881 0 55.916-28.059 55.916-62.671S286.881 0 256 0z" fill="#efd0b6"></path></g></svg>