<svg viewBox="0 0 512 512" xmlns="http://www.w3.org/2000/svg"><g><path d="M456 351H276c-8.284 0-15-6.716-15-15v-50c0-57.897 47.103-105 105-105s105 47.103 105 105v50c0 8.284-6.716 15-15 15z" fill="#a2e786"></path><path d="M456 351c8.284 0 15-6.716 15-15v-50c0-57.897-47.103-105-105-105v170z" fill="#00cb75"></path><path d="M366 211c-35.841 0-65-29.159-65-65s29.159-65 65-65 65 29.159 65 65-29.159 65-65 65z" fill="#ffd5b2"></path><path d="M431 146c0-35.841-29.159-65-65-65v130c35.841 0 65-29.159 65-65z" fill="#fac394"></path><path d="M176 512H56c-8.284 0-15-6.716-15-15V377c0-8.284 6.716-15 15-15h120c8.284 0 15 6.716 15 15v120c0 8.284-6.716 15-15 15z" fill="#f5f5ff"></path><path d="M176 362h-60v150h60c8.284 0 15-6.716 15-15V377c0-8.284-6.716-15-15-15z" fill="#e2e7fa"></path><path d="M176 331H56c-8.284 0-15-6.716-15-15V196c0-8.284 6.716-15 15-15h120c8.284 0 15 6.716 15 15v120c0 8.284-6.716 15-15 15z" fill="#f5f5ff"></path><path d="M176 181h-60v150h60c8.284 0 15-6.716 15-15V196c0-8.284-6.716-15-15-15z" fill="#e2e7fa"></path><path d="M176 150H56c-8.284 0-15-6.716-15-15V15c0-8.284 6.716-15 15-15h120c8.284 0 15 6.716 15 15v120c0 8.284-6.716 15-15 15z" fill="#f5f5ff"></path><path d="M176 0h-60v150h60c8.284 0 15-6.716 15-15V15c0-8.284-6.716-15-15-15z" fill="#e2e7fa"></path><g fill="#6b61b1"><path d="M134.284 470a14.946 14.946 0 0 1-10.606-4.394l-28.284-28.284c-5.858-5.858-5.858-15.355 0-21.213 5.857-5.858 15.355-5.858 21.213 0l17.678 17.677 45.962-45.961c5.857-5.858 15.355-5.858 21.213 0s5.858 15.355 0 21.213l-56.568 56.568A14.954 14.954 0 0 1 134.284 470zM134.284 289a14.946 14.946 0 0 1-10.606-4.394l-28.284-28.284c-5.858-5.858-5.858-15.355 0-21.213 5.857-5.858 15.355-5.858 21.213 0l17.678 17.677 45.962-45.961c5.857-5.858 15.355-5.858 21.213 0s5.858 15.355 0 21.213l-56.568 56.568A14.954 14.954 0 0 1 134.284 289zM134.284 108a14.946 14.946 0 0 1-10.606-4.394L95.394 75.322c-5.858-5.858-5.858-15.355 0-21.213 5.857-5.858 15.355-5.858 21.213 0l17.678 17.677 45.962-45.961c5.857-5.858 15.355-5.858 21.213 0s5.858 15.355 0 21.213l-56.568 56.568A14.954 14.954 0 0 1 134.284 108z" fill="#6b61b1"></path></g><path d="M134.284 470c3.839 0 7.678-1.464 10.606-4.394l56.568-56.568c5.858-5.858 5.858-15.355 0-21.213-5.857-5.858-15.355-5.858-21.213 0l-45.962 45.961-17.678-17.677c-.195-.195-.404-.366-.607-.548v42.368l7.678 7.678A14.96 14.96 0 0 0 134.284 470zM134.284 289c3.839 0 7.678-1.464 10.606-4.394l56.568-56.568c5.858-5.858 5.858-15.355 0-21.213-5.857-5.858-15.355-5.858-21.213 0l-45.962 45.961-17.678-17.677c-.195-.195-.404-.366-.607-.548v42.368l7.678 7.678A14.96 14.96 0 0 0 134.284 289zM134.284 108c3.839 0 7.678-1.464 10.606-4.394l56.568-56.568c5.858-5.858 5.858-15.355 0-21.213-5.857-5.858-15.355-5.858-21.213 0l-45.962 45.961-17.678-17.677c-.195-.195-.404-.366-.607-.548v42.368l7.678 7.678A14.96 14.96 0 0 0 134.284 108z" fill="#453d81"></path></g></svg>