<svg viewBox="0 0 512 512" xmlns="http://www.w3.org/2000/svg"><g><path d="M408 56v432H104V56l40-32h224z" fill="#e9eef2"></path><path d="M104 56 24 200l80 48zM408 56l80 144-80 48z" fill="#dadcde"></path><g fill="#c7a552"><path d="M256 112a48 48 0 1 0-64 45.258V216a16 16 0 0 0 16 16 16 16 0 0 0 16-16v-24a32 32 0 0 0 32-32zM280 320v8a32 32 0 0 0 63 7.975c.333.013.667.025 1 .025a24 24 0 1 0-19.786-37.58A31.9 31.9 0 0 0 312 296h-8a24 24 0 1 0-24 24z" fill="#c7a552"></path><circle cx="336" cy="408" fill="#c7a552" r="16"></circle><path d="M192 416a24.006 24.006 0 0 1-46.92 7.15 39.974 39.974 0 0 1-41.08 5.51v-73.32A40 40 0 0 1 160 392c0 .46-.02.92-.03 1.38A24.008 24.008 0 0 1 192 416z" fill="#c7a552"></path></g><path d="M360 24a104 104 0 0 1-208 0z" fill="#dadcde"></path><path d="M328 24a72 72 0 0 1-144 0z" fill="#9aa3a8"></path></g></svg>