<svg viewBox="0 0 500 500" xmlns="http://www.w3.org/2000/svg"><g><g clip-rule="evenodd" fill-rule="evenodd"><path d="m305.6 191.5-42.8 64.4-4.5-29.5-151.1 63.5 3.8-31.1-23.4-20.1 159.1-45.3-14.7-25.8z" fill="#f26344"></path><path d="m305.6 191.5-42.8 64.4-4.5-29.5-151.1 63.5 3.8-30.7z" fill="#c02026"></path><path d="m395.8 96.8 23.3 42.2 47.3 9.1-32.9 35.2 5.9 47.8-43.6-20.4-43.7 20.4 6-47.8-32.9-35.2 47.3-9.1z" fill="#ffc60b"></path><path d="M115.8 352.3c13.8-1.1 27.2-7.8 39.7-18.2 47.9-40 57.9-28.2 138.7-20.2 34.2 3.4 23.9 41.2-10.5 40.4-19.9-.5-39.8-.9-59.6-1.4-7.6 19.1 85.7 40.1 123.8 26.3l71.6-25.8c31.9-13 60.4 9.5 30.8 27-36.9 22-124.7 79.2-156.3 86.2l-178.2-10.3z" fill="#ffd389"></path><path d="M374.8 426.4c-32.1 19-64.2 36.5-80.8 40.2l-178.2-10.3v-60.5z" fill="#e0b85a"></path><path d="M62.5 336h53.3v136.8H21z" fill="#78756a"></path><path d="M115.8 395.9v76.9H21l23.3-76.9z" fill="#676156"></path><path d="m111.1 67 19.1 34.5L169 109l-27 28.8 4.9 39.2-35.8-16.7L75.4 177l4.8-39.2L53.3 109l38.7-7.5z" fill="#ffc60b"></path></g><path d="M465.4 53.7c3.1-3.1 8.2-3.1 11.3 0s3.1 8.2 0 11.3l-16.1 16.1c-3.1 3.1-8.2 3.1-11.3 0s-3.1-8.2 0-11.3zM314.9 65.1c-3.1-3.1-3.1-8.2 0-11.3s8.2-3.1 11.3 0l16.1 16.1c3.1 3.1 3.1 8.2 0 11.3s-8.2 3.1-11.3 0zm72.9-29.9c0-4.4 3.6-8 8-8s8 3.6 8 8V58c0 4.4-3.6 8-8 8s-8-3.6-8-8z" fill="#ffc60b"></path></g></svg>