<svg viewBox="0 0 60 60" xmlns="http://www.w3.org/2000/svg"><g><path d="m15.41 19.9-2.11-7.52a1.99 1.99 0 0 1 1.95-2.56l7.17.17a1.98 1.98 0 0 0 1.87-1.2l2.85-6.58a1.99 1.99 0 0 1 3.15-.71l5.38 4.73a1.98 1.98 0 0 0 2.2.29l6.409-3.22a2 2 0 0 1 2.87 1.49l1.08 7.09a2 2 0 0 0 1.5 1.64l6.98 1.66a1.98 1.98 0 0 1 1.24 2.97l-3.73 6.12a2 2 0 0 0 .11 2.23l4.28 5.75a1.987 1.987 0 0 1-.97 3.07l-6.79 2.29a2.016 2.016 0 0 0-1.36 1.78l-.41 7.16a2 2 0 0 1-2.72 1.74L36.18 43.83z" fill="#fde05e"></path><path d="m3.682 40.682-2.138 2.135A1.847 1.847 0 0 0 1 44.124V57.16A1.848 1.848 0 0 0 2.845 59h12.147a1.848 1.848 0 0 0 1.309-.543l2.6-2.595z" fill="#2d629b"></path><path d="M40.84 39.92c-6.55 6.24-10.8 7.35-12.76 7.45a3.828 3.828 0 0 0-2.49 1.14l-1.55 1.54L9.6 35.64l2.82-2.81a3.914 3.914 0 0 0 1.15-2.57l.43-6.87a5.574 5.574 0 0 1 5.8-5.36l4.3.21a5.664 5.664 0 0 1 2.95.97L37 25z" fill="#eabea3"></path><path d="m24.593 52.818-1.107 1.1a1.567 1.567 0 0 1-2.222 0 1.575 1.575 0 0 1 0 2.217l-1.107 1.113a1.584 1.584 0 0 1-2.223 0L2.383 41.741a1.559 1.559 0 0 1 0-2.217L3.49 38.41a1.584 1.584 0 0 1 2.223 0 1.573 1.573 0 0 1 0-2.217l1.107-1.1a1.584 1.584 0 0 1 2.223 0L24.593 50.6a1.558 1.558 0 0 1 0 2.218z" fill="#3778c6"></path><g fill="#eabea3"><path d="m27.051 19.212 7.809-5.618a3.134 3.134 0 0 1 4.06 4.748 2.878 2.878 0 0 1-.389.332L29.617 25.1l-.005.006zM47.17 26.25a3.284 3.284 0 0 1-1.39 2.67l-1.67 1.21-1.36.99-4.55 3.3c-.08.05-.15.1-.23.15-.01 0-.01.01-.02.01a3.136 3.136 0 0 1-3.43-5.25l6.31-4.57 1.27-.92a3.221 3.221 0 0 1 4.5.62 3.023 3.023 0 0 1 .57 1.79z" fill="#eabea3"></path><path d="M42.6 23.43a4.158 4.158 0 0 1-.39.32l-1.33.96-.05.04-6.7 4.83-.08.06-1.22.87a3.123 3.123 0 0 1-2.84.42l-.38-5.83.01-.01 7.53-5.42 1.38-1a3.142 3.142 0 0 1 4.07 4.76zM48.96 32.75a3.151 3.151 0 0 1-1.3 2.55l-1.38.99-4.35 3.13a3.139 3.139 0 0 1-3.98-4.84c.01 0 .01-.01.02-.01a3.112 3.112 0 0 1 .28-.23l4.41-3.17 1.32-.96c.01-.01.02-.01.03-.02a.53.53 0 0 1 .1-.06 3.133 3.133 0 0 1 4.85 2.62z" fill="#eabea3"></path></g><path d="M18.487 52.155a1 1 0 0 1-.706-.292l-10-9.972A1 1 0 0 1 9.2 40.475l10 9.972a1 1 0 0 1-.706 1.708z" fill="#2d629b"></path><path d="m41.93 39.42-1.38 1a3.156 3.156 0 0 1-4.39-.71 3.124 3.124 0 0 1 .56-4.25 3.189 3.189 0 0 1-4.4-.68 3.059 3.059 0 0 1-.3-3.07l-.51.35a1.534 1.534 0 0 1-1.65.02c-.3-.29.13-1.15.13-1.15a3.123 3.123 0 0 0 2.84-.42l1.69-1.18a3.136 3.136 0 0 0 3.43 5.25 3.139 3.139 0 0 0 3.98 4.84z" fill="#d8ac93"></path><path d="M30.59 34.07a4.352 4.352 0 0 1-1.28 3.34 4.27 4.27 0 0 1-2.69 1.24c-.13.01-.26.02-.38.02a4.343 4.343 0 0 1-4.26-3.49l-1.71-8.38a1 1 0 1 1 1.96-.4l1.71 8.38a2.353 2.353 0 0 0 2.52 1.88A2.3 2.3 0 0 0 27.9 36a2.363 2.363 0 0 0 .69-1.81l-.65-9.79a4.606 4.606 0 0 0-2.02-3.54 5.806 5.806 0 0 0-2.42-.65L19.2 20a5.524 5.524 0 0 0-5.16 3 5.556 5.556 0 0 1 5.76-4.97l4.3.21a5.63 5.63 0 0 1 2.94.97 6.554 6.554 0 0 1 2.89 5.06z" fill="#d8ac93"></path></g></svg>