<svg viewBox="0 0 512 512" xmlns="http://www.w3.org/2000/svg"><g><path d="M367.1 59.89 425.74 0H271l-15 15v105h171.21z" fill="#ff641a"></path><path d="M512 512H0l147.29-213.71h217.42z" fill="#596c76"></path><path d="M512 512H256V298.29h108.71z" fill="#465a61"></path><path d="m271 162-15-7.84-15 7.84-93.71 136.29L196 347l30-30 30 30 30-30 30 30 48.71-48.71z" fill="#d9f2ff"></path><path d="m271 162-15-7.84V347l30-30 30 30 48.71-48.71z" fill="#ccddff"></path><path d="M241 0h30v162h-30z" fill="#596c76"></path><path d="M256 0h15v162h-15z" fill="#465a61"></path></g></svg>