<svg viewBox="0 0 512 512" xmlns="http://www.w3.org/2000/svg"><g><ellipse cx="83.851" cy="338.002" fill="#ffd4be" rx="66.619" ry="55.098"></ellipse><path d="M98.985 369.114a7.49 7.49 0 0 1-6.355-3.508c-8.957-14.237-26.082-19.769-39.122-20.196a7.5 7.5 0 0 1-7.25-7.742 7.484 7.484 0 0 1 7.742-7.25c16.889.555 39.242 7.992 51.326 27.202a7.5 7.5 0 0 1-6.341 11.494z" fill="#ffbf9e"></path><ellipse cx="428.149" cy="338.002" fill="#ffbf9e" rx="66.619" ry="55.098"></ellipse><path d="M413.016 369.114a7.5 7.5 0 0 1-6.341-11.494c12.085-19.21 34.437-26.647 51.326-27.202 4.17-.171 7.605 3.11 7.742 7.25a7.5 7.5 0 0 1-7.25 7.742c-13.04.428-30.165 5.959-39.121 20.196a7.498 7.498 0 0 1-6.356 3.508z" fill="#ffd4be"></path><ellipse cx="256" cy="338.002" fill="#ffd4be" rx="184.374" ry="173.998"></ellipse><path d="M347.405 489.141c-230.973 2.388-245.283-198.633-186.134-300.435-53.702 30.412-89.645 85.89-89.645 149.296C71.626 434.098 154.173 512 256 512c33.261 0 64.463-8.316 91.405-22.859z" fill="#ffbf9e"></path><path d="M252.175 220.598c49.737 49.105 129.045 79.443 183.823 79.609-18.29-77.921-91.926-136.202-179.998-136.202-88.055 0-161.681 58.259-179.988 136.158 54.307-.481 128.7-32.704 176.163-79.565z" fill="#4e5660"></path><path d="M145.26 82.098c-1.511-20.813-17.878-37.868-38.611-40.236a43.852 43.852 0 0 0-18.9 1.953C79.772 30.09 64.562 21.088 47.331 22.06 25.144 23.311 7.211 41.406 6.125 63.601a43.674 43.674 0 0 0 3.926 20.421A49.65 49.65 0 0 0 .003 114.628c.306 26.639 22.01 48.631 48.643 49.268 10.008.24 19.364-2.475 27.267-7.326l15.324 15.324c9.517 9.517 25.79 2.777 25.79-10.683v-34.857c17.521-6.606 29.696-24.113 28.233-44.256zM366.74 82.098c1.511-20.813 17.878-37.868 38.611-40.236a43.852 43.852 0 0 1 18.9 1.953c7.977-13.725 23.187-22.727 40.418-21.755 22.187 1.251 40.12 19.346 41.206 41.541a43.674 43.674 0 0 1-3.926 20.421 49.65 49.65 0 0 1 10.048 30.606c-.306 26.639-22.01 48.631-48.643 49.268-10.008.24-19.364-2.475-27.267-7.326l-15.324 15.324c-9.517 9.517-25.79 2.777-25.79-10.683v-34.857c-17.521-6.606-29.696-24.113-28.233-44.256z" fill="#fcf2d0"></path><path d="M463.353 163.896c9.168-.219 17.751-2.969 25.079-7.568-48.854 1.253-59.962-48.981-40.899-66.548-18.368-6.931-23.164-41.297-12.736-58.173-4.219 3.382-7.814 7.509-10.546 12.209a43.837 43.837 0 0 0-18.9-1.953c-20.733 2.368-37.1 19.423-38.611 40.236-1.463 20.143 10.712 37.651 28.232 44.257v34.857c0 13.459 16.273 20.2 25.79 10.683l15.324-15.324c7.903 4.849 17.259 7.563 27.267 7.324zM91.238 171.894c7.408 7.408 18.905 4.964 23.639-2.829-15.957-1.706-24.496-13.236-26.96-24.63-39.207-1.041-42.248-41.862-27.063-57.596-31.57-1.627-38.935-46.36-27.86-61.449-15.137 6.379-26.03 21.068-26.869 38.211a43.674 43.674 0 0 0 3.926 20.421A49.65 49.65 0 0 0 .003 114.628c.306 26.639 22.01 48.631 48.643 49.268 10.008.24 19.364-2.475 27.267-7.326z" fill="#f6e3a3"></path><path d="M62.85 238.123a7.477 7.477 0 0 1-5.303-2.196l-30.385-30.385a7.5 7.5 0 0 1 10.606-10.607l30.385 30.385a7.5 7.5 0 0 1-5.303 12.803zM449.15 238.123a7.476 7.476 0 0 1-5.304-2.197 7.498 7.498 0 0 1 .001-10.606l30.385-30.385a7.5 7.5 0 0 1 10.606 10.608l-30.385 30.385a7.48 7.48 0 0 1-5.303 2.195z" fill="#e26e7e"></path><path d="M287.005 16.956C278.904 6.637 266.325 0 252.188 0c-14.964 0-28.183 7.435-36.193 18.804-16.82 2.576-29.703 17.107-29.703 34.647 0 19.359 15.694 35.053 35.053 35.053 3.481 0 6.84-.515 10.014-1.459l11.543 27.868c3.138 7.575 13.867 7.575 17.005 0l12.313-29.727a35.047 35.047 0 0 0 10.524 1.61c19.36 0 35.053-15.694 35.053-35.053.001-17.917-13.443-32.684-30.792-34.787z" fill="#fcf2d0"></path><path d="M252.045 81.798c-12.339-1.857-20.378-25.012-5.746-36.589-16.298-4.445-17.703-32.767-4.993-43.859-10.389 2.63-19.312 8.938-25.311 17.453-16.82 2.576-29.703 17.107-29.703 34.647 0 19.359 15.694 35.053 35.054 35.053 3.481 0 6.84-.515 10.014-1.459l11.543 27.868c3.138 7.575 13.867 7.575 17.005 0l.126-.305c-8.623-6.726-10.158-21.604-7.989-32.809z" fill="#f6e3a3"></path><path d="M179.739 147.066a7.5 7.5 0 0 1-7.5-7.5v-12.022c0-4.143 3.358-7.5 7.5-7.5s7.5 3.357 7.5 7.5v12.022a7.5 7.5 0 0 1-7.5 7.5zM331.956 135.045a7.499 7.499 0 0 1-7.5-7.5v-19.306c0-4.143 3.357-7.5 7.5-7.5a7.5 7.5 0 0 1 7.5 7.5v19.306c0 4.143-3.357 7.5-7.5 7.5z" fill="#e26e7e"></path><path d="M161.271 188.706c-42.69 24.18-74.154 64.202-85.26 111.456 17.158-.152 36.323-3.48 56.008-9.43 1.926-37.354 12.717-73.567 29.252-102.026z" fill="#383c43"></path><ellipse cx="144.172" cy="385.233" fill="#eda1ab" rx="41.262" ry="32.859"></ellipse><ellipse cx="367.828" cy="385.233" fill="#eda1ab" rx="41.262" ry="32.859"></ellipse><g fill="#4e5660"><path d="M279.145 371.143a7.483 7.483 0 0 1-5.657-2.572A23.2 23.2 0 0 0 256 360.599a23.198 23.198 0 0 0-17.489 7.972 7.5 7.5 0 1 1-11.308-9.855A38.194 38.194 0 0 1 256 345.6a38.197 38.197 0 0 1 28.797 13.116 7.5 7.5 0 0 1-5.652 12.427zM186.778 323.497l-33.827-9.064a7.5 7.5 0 1 0-3.882 14.489l13.807 3.699a7.474 7.474 0 0 0-2.158 5.26v14.571c0 4.143 3.358 7.5 7.5 7.5s7.5-3.357 7.5-7.5v-14.571c0-.653-.092-1.282-.249-1.886l7.426 1.99c.65.175 1.303.258 1.946.258a7.504 7.504 0 0 0 7.24-5.561 7.498 7.498 0 0 0-5.303-9.185zM368.233 319.736c-1.072-4.001-5.185-6.378-9.185-5.303l-33.826 9.064a7.502 7.502 0 0 0 1.936 14.746c.643 0 1.296-.083 1.946-.258l7.424-1.989a7.473 7.473 0 0 0-.249 1.886v14.571c0 4.143 3.357 7.5 7.5 7.5s7.5-3.357 7.5-7.5v-14.571c0-2.05-.824-3.906-2.157-5.26l13.808-3.7a7.498 7.498 0 0 0 5.303-9.186z" fill="#4e5660"></path></g></g></svg>