<svg viewBox="0 0 512 512" xmlns="http://www.w3.org/2000/svg"><g><path d="M201.281 403.575c11.608 7.739 18.821 14.053 32.382 14.053h255.602l-3.736-46.633c-4.956-59.125-54.391-104.59-113.723-104.59h-44.032c-46.758 0-84.663-37.905-84.663-84.663v-71.589H17.027v286.963h162.921a38.462 38.462 0 0 1 21.333 6.459z" fill="#a86d38"></path><path d="M17.03 110.15h20.605v286.96H17.03zM371.806 266.405h-32.774c-16.936 17.937-27.339 42.109-27.339 68.726v82.497h177.572l-3.736-46.633c-4.955-59.125-54.39-104.59-113.723-104.59z" fill="#995f30"></path><path d="M359.638 266.405h-20.605c-16.937 17.937-27.339 42.109-27.339 68.726v82.496h20.605v-82.496c-.001-26.616 10.402-50.789 27.339-68.726z" fill="#8e552b"></path><path d="M44.119 303.298H17.027v93.818h91.758v-29.152c0-35.714-28.952-64.666-64.666-64.666z" fill="#995f30"></path><path d="M17.03 303.3h20.605v93.82H17.03z" fill="#8e552b"></path><path d="M243.111 19.51H17.027C7.662 19.51 0 27.172 0 36.538v58.649c0 9.365 7.662 17.027 17.027 17.027h226.084c9.365 0 17.027-7.662 17.027-17.027V36.538c0-9.366-7.662-17.028-17.027-17.028z" fill="#a86d38"></path><path d="M20.605 95.186V36.538c0-9.365 7.662-17.027 17.027-17.027H17.027C7.662 19.51 0 27.172 0 36.538v58.649c0 9.365 7.662 17.027 17.027 17.027h20.605c-9.365 0-17.027-7.662-17.027-17.028z" fill="#995f30"></path><path d="M0 76.268v18.919c0 9.365 7.662 17.027 17.027 17.027h226.084c9.365 0 17.027-7.662 17.027-17.027V76.268H0z" fill="#b78046"></path><path d="M20.605 95.186V76.268H0v18.919c0 9.365 7.661 17.027 17.027 17.027h20.605c-9.365 0-17.027-7.662-17.027-17.028z" fill="#a86d38"></path><path d="M0 445.969v38.185a8.336 8.336 0 0 0 8.337 8.336h142.898a7.686 7.686 0 0 0 7.686-7.686v-6.915c0-5.48 6.409-7.893 12.267-3.988l18.195 12.13a38.462 38.462 0 0 0 21.333 6.459h284.848c9.078 0 16.436-7.359 16.436-16.436v-30.085H0z" fill="#4d5370"></path><path d="M20.605 484.153v-38.185H0v38.185a8.336 8.336 0 0 0 8.337 8.336h20.605a8.335 8.335 0 0 1-8.337-8.336z" fill="#444a63"></path><path d="M512 448.029v-9.727c0-12.556-10.179-22.734-22.734-22.734H233.663c-23.767 0-29.428-20.512-53.715-20.512H8.928A8.928 8.928 0 0 0 0 403.983v44.047h512v-.001z" fill="#616584"></path><path d="M20.605 403.983a8.928 8.928 0 0 1 8.928-8.927H8.927A8.927 8.927 0 0 0 0 403.983v44.047h20.605v-44.047z" fill="#4d5370"></path><path d="M253.147 168.658H204.8a7.727 7.727 0 0 1 0-15.454h48.347a7.727 7.727 0 0 1 0 15.454zM206.28 210.745a7.727 7.727 0 0 1-.576-15.431l48.209-3.65a7.721 7.721 0 0 1 8.288 7.121 7.726 7.726 0 0 1-7.121 8.288l-48.209 3.65a7.82 7.82 0 0 1-.591.022zM217.179 254.558a7.728 7.728 0 0 1 3.566-10.33l42.848-20.858a7.728 7.728 0 0 1 6.764 13.895l-42.848 20.858a7.728 7.728 0 0 1-10.33-3.565zM260.019 297.327a7.728 7.728 0 0 1-1.993-10.744l25.942-37.755a7.728 7.728 0 0 1 12.738 8.751l-25.942 37.755a7.727 7.727 0 0 1-10.745 1.993z" fill="#e1f1fb"></path></g></svg>