<svg viewBox="0 0 64 64" xmlns="http://www.w3.org/2000/svg"><g><path d="M38.07 43.11A27.774 27.774 0 0 1 27.09 59.8a6.093 6.093 0 0 1-5.33.86C15.46 58.73.9 51.59 1 26.93c.01-1.37 1.35-2.35 2.66-1.92 3.1 1.02 8.71 2.31 15.27 1.25 2.64-.43 5.02-1.17 7.09-2.04.38 2.31.99 4.39 1.75 6.25-3.27 1.51-4.22 5.32-4.22 5.32 3.74 1.32 6.05 1.27 7.48.56 2.36 3.26 5.04 5.44 7.04 6.76z" fill="#ffb900"></path><path d="M13 49c-3.773-6.602-4.874-14.983-3.309-22.627A33.29 33.29 0 0 1 3.66 25.01c-1.31-.43-2.65.55-2.66 1.92-.1 24.66 14.46 31.8 20.76 33.73 1.82.56 3.78.24 5.33-.86a27.276 27.276 0 0 0 2.918-2.409C23.534 58.216 16.625 54.438 13 49z" fill="#ff9700"></path><path d="M26.02 24.22c-.81-4.8-.65-10.6 1.14-17.54.51-1.95 2.75-2.88 4.46-1.83 2.87 1.76 7.51 3.99 13.36 4.64 5.84.65 10.86-.51 14.05-1.59 1.9-.65 3.88.76 3.94 2.76C63.7 34.22 49.91 41.8 43.84 44c-1.78.64-3.75.42-5.34-.6-.14-.09-.29-.18-.43-.29-2-1.32-4.68-3.5-7.04-6.76a27.1 27.1 0 0 1-3.26-5.88c-.76-1.86-1.37-3.94-1.75-6.25z" fill="#e03946"></path><path d="M35 10c.494-.988 1.479-1.73 2.708-2.23a33.786 33.786 0 0 1-6.088-2.92c-1.71-1.05-3.95-.12-4.46 1.83-1.79 6.94-1.95 12.74-1.14 17.54.38 2.31.99 4.39 1.75 6.25a27.1 27.1 0 0 0 3.26 5.88c2.36 3.26 5.04 5.44 7.04 6.76.14.11.29.2.43.29a6.074 6.074 0 0 0 5.34.6c.13-.047.268-.1.405-.152C33.729 36.591 28.709 21.683 35 10z" fill="#c41432"></path><circle cx="57" cy="52" fill="#f7b704" r="2"></circle><circle cx="50" cy="58" fill="#e03946" r="3"></circle><circle cx="18" cy="8" fill="#e03946" r="2"></circle><path d="m10.96 9.02-2.39 1.59L6.98 13l-1.59-2.39L3 9.02l2.39-1.59 1.59-2.39 1.59 2.39z" fill="#f7b704"></path><circle cx="13" cy="16" fill="#e03946" r="3"></circle><g fill="#edf0f4"><path d="M6.87 34.38c6.53-4.14 10.67 2.39 10.67 2.39-10.05 7.79-10.67-2.39-10.67-2.39zM31.03 36.35c-1.43.71-3.74.76-7.48-.56 0 0 .95-3.81 4.22-5.32a27.1 27.1 0 0 0 3.26 5.88zM31.84 48.85c-4.17-.35-9.18.46-9.18.46s-5.01.81-8.86 2.46c0 0 2.87-7.67 7.88-8.48s10.16 5.56 10.16 5.56zM40.83 19.24c-11.77 4.82-9.64-5.16-9.64-5.16 7.4-2.24 9.64 5.16 9.64 5.16zM46.88 19.92s3.81-6.73 10.54-2.92c0 0-.12 10.2-10.54 2.92zM42.73 29.67s6.05.67 10.2.11c0 0-5.83 6.5-10.87 5.94-5.05-.56-9.31-8.18-9.31-8.18 3.93 1.45 9.98 2.13 9.98 2.13z" fill="#edf0f4"></path></g><path d="M12 5a1 1 0 1 0 0-2 1 1 0 0 0 0 2z" fill="#f7b704"></path><circle cx="20" cy="14" fill="#f7b704" r="1"></circle><circle cx="5" cy="18" fill="#e03946" r="1"></circle><circle cx="53" cy="44" fill="#e03946" r="1"></circle><path d="M51 50a1 1 0 1 0-2 0 1 1 0 0 0 2 0z" fill="#f7b704"></path><circle cx="58" cy="59" fill="#e03946" r="1"></circle></g></svg>