<svg viewBox="0 0 512 512" xmlns="http://www.w3.org/2000/svg"><g><path d="M158.474.077H96.913C44.876.077 4.932 46.213 12.38 97.714l13.253 91.646h204.122l13.253-91.646C250.455 46.213 210.511.077 158.474.077z" fill="#665e66"></path><path d="m93.37 97.715 13.256 91.64H25.624l-13.245-91.64C4.929 46.212 44.865.079 96.905.079h61.559c3.289 0 6.533.19 9.721.548C121 5.941 86.389 49.467 93.37 97.715z" fill="#544f57"></path><path d="M224.978 218.666H30.409c-15.624 0-28.29-12.666-28.29-28.29 0-15.624 12.666-28.29 28.29-28.29h194.569c15.624 0 28.29 12.666 28.29 28.29 0 15.624-12.666 28.29-28.29 28.29z" fill="#8b5e5e"></path><path d="M209.596 114.656v112.985c0 45.159-36.12 82.592-81.278 82.929-45.519.34-82.528-36.46-82.528-81.9V114.656h9.192c17.794 0 32.219-14.425 32.219-32.219 20.45 26.526 60.465 26.526 80.915 0 0 17.794 14.425 32.219 32.219 32.219h9.192" fill="#aa8080"></path><path d="M153.673 306.303a80.559 80.559 0 0 1-25.36 4.273c-45.518.336-82.523-36.457-82.523-81.908V114.656h9.184c17.798 0 32.228-14.419 32.228-32.217a51.231 51.231 0 0 0 10.739 10.392v135.838c.001 36.088 23.336 66.716 55.732 77.634z" fill="#9d6b6b"></path><path d="M127.693 234.127c-13.579 0-26.343-5.288-35.945-14.889a7.726 7.726 0 0 1 .001-10.927 7.726 7.726 0 0 1 10.927 0c6.682 6.683 15.566 10.363 25.017 10.363s18.336-3.68 25.019-10.363a7.726 7.726 0 1 1 10.926 10.927c-9.601 9.601-22.367 14.889-35.945 14.889z" fill="#df75a5"></path><g fill="#544f57"><path d="M106.322 179.971a7.725 7.725 0 0 1-7.726-7.726V155.7a7.726 7.726 0 1 1 15.452 0v16.545a7.726 7.726 0 0 1-7.726 7.726zM149.064 179.971a7.725 7.725 0 0 1-7.726-7.726V155.7a7.726 7.726 0 1 1 15.452 0v16.545a7.725 7.725 0 0 1-7.726 7.726z" fill="#544f57"></path></g><path d="M404.505 201.425h-36.159c-51.742 0-93.687 41.945-93.687 93.687v102.999h223.532V295.112c.001-51.742-41.944-93.687-93.686-93.687z" fill="#aa8080"></path><path d="M425.8 203.852c-41.479 9.654-72.388 46.849-72.388 91.259v103.005h-78.753V295.112c0-51.738 41.938-93.687 93.687-93.687h36.155c7.327 0 14.453.839 21.299 2.427z" fill="#9d6b6b"></path><path d="M483.71 420.009H289.141c-15.624 0-28.29-12.666-28.29-28.29 0-15.624 12.666-28.29 28.29-28.29H483.71c15.624 0 28.29 12.666 28.29 28.29 0 15.624-12.666 28.29-28.29 28.29z" fill="#eaac9d"></path><path d="M468.328 315.999v112.985c0 45.159-36.12 82.592-81.278 82.929-45.519.34-82.528-36.46-82.528-81.9V315.999c0-.225.001-41.173.003-41.397 0 0 63.38 73.65 163.803 41.397z" fill="#ffddce"></path><path d="M410.828 508.173a81.016 81.016 0 0 1-23.783 3.748c-45.518.336-82.523-36.457-82.523-81.908V274.61s17.608 20.46 48.963 35.092v120.311c.001 36.691 24.108 67.723 57.343 78.16z" fill="#ffcbbe"></path><g fill="#544f57"><path d="M365.055 381.314a7.725 7.725 0 0 1-7.726-7.726v-16.545a7.726 7.726 0 1 1 15.452 0v16.545a7.726 7.726 0 0 1-7.726 7.726zM407.796 381.314a7.725 7.725 0 0 1-7.726-7.726v-16.545a7.726 7.726 0 1 1 15.452 0v16.545a7.725 7.725 0 0 1-7.726 7.726z" fill="#544f57"></path></g><path d="M386.426 435.463c-13.579 0-26.344-5.288-35.946-14.889a7.726 7.726 0 0 1 .001-10.927 7.726 7.726 0 0 1 10.927 0c6.682 6.683 15.566 10.363 25.018 10.363 9.45 0 18.335-3.68 25.017-10.363a7.726 7.726 0 0 1 10.927 0 7.726 7.726 0 0 1 .001 10.927c-9.602 9.601-22.367 14.889-35.945 14.889zM431.905 40.823l-1.155 11.059c32.032 18.326 56.549 46.986 69.72 81.864 5.369 14.219-1.805 30.099-16.024 35.468s-30.099-1.805-35.468-16.024c-5.486-14.529-13.989-27.401-24.844-37.939l-.326 3.126c-1.494 14.306-17.915 21.63-29.557 13.183l-63.105-45.787c-11.641-8.446-9.775-26.327 3.36-32.187l71.202-31.768c13.136-5.86 27.69 4.698 26.197 19.005z" fill="#df75a5"></path><path d="M394.253 104.764c11.636 8.453 28.058 1.129 29.559-13.182.128-1.266 1.677-1.791 2.563-.877 9.788 10.103 17.505 22.177 22.606 35.696 5.361 14.221 21.241 21.388 35.462 16.015a27.385 27.385 0 0 0 14.469-12.618 119.49 119.49 0 0 1 1.558 3.95c5.372 14.221-1.806 30.101-16.027 35.473-14.221 5.361-30.101-1.806-35.462-16.027-5.485-14.526-13.995-27.403-24.853-37.945l-.316 3.126c-1.501 14.311-17.923 21.636-29.559 13.182L331.14 85.78c-9.774-7.099-10.022-20.868-2.054-28.532a19.26 19.26 0 0 0 2.054 1.727z" fill="#dd5790"></path><path d="m70.35 473.772 1.155-11.059c-32.032-18.326-56.549-46.986-69.72-81.864-5.369-14.219 1.805-30.099 16.024-35.468s30.099 1.805 35.468 16.024c5.486 14.529 13.989 27.401 24.844 37.939l.326-3.126c1.494-14.306 17.915-21.63 29.557-13.183l63.105 45.787c11.641 8.446 9.775 26.327-3.36 32.187l-71.202 31.768c-13.136 5.86-27.691-4.698-26.197-19.005z" fill="#df75a5"></path><path d="M3.343 358.008c-3.679 6.783-4.503 15.056-1.558 22.844 13.171 34.875 37.685 63.542 69.716 81.86l-1.151 11.061c-1.49 14.311 13.058 24.864 26.196 19.006l71.205-31.771c12.291-5.485 14.717-21.489 5.429-30.451-1.512 1.479-3.329 2.72-5.429 3.657l-71.205 31.771c-13.137 5.858-27.685-4.695-26.196-19.006l1.151-11.061C40.689 418.289 16.83 391.1 3.343 358.008z" fill="#dd5790"></path></g></svg>