<svg viewBox="0 0 512 512" xmlns="http://www.w3.org/2000/svg"><g><path d="M395.82 182.616 207.1 371.336l-12.91 1.72-9.35 20.54-34.31 34.31-11.01-.73-11.25 22.99-56.48 56.48c-2.93 2.93-6.77 4.39-10.61 4.39s-7.68-1.46-10.61-4.39l-22.62-22.62h-.01l-22.62-22.63c-5.86-5.86-5.86-15.36 0-21.22l77.63-77.63 16.6-7.03 5.66-15.23 34.31-34.31 14.84-4.92 7.42-17.34 167.57-167.57 33.24 33.24z" fill="#ff6666"></path><path d="M395.82 116.146v66.47L207.1 371.336l-12.91 1.72-9.35 20.54-34.31 34.31-11.01-.73-11.25 22.99-56.48 56.48c-2.93 2.93-6.77 4.39-10.61 4.39s-7.68-1.46-10.61-4.39l-22.62-22.62 334.64-334.64z" fill="#e62e6b"></path><path d="m506.61 209.006-69.14-69.13 43.05-88.38c2.8-5.75 1.65-12.65-2.88-17.17a14.987 14.987 0 0 0-17.17-2.88l-88.38 43.05-69.13-69.14a15.004 15.004 0 0 0-16.56-3.16 15.013 15.013 0 0 0-9.04 14.24l2.86 90.45-85.37 57.83c-4.91 3.32-7.4 9.22-6.36 15.04a15.01 15.01 0 0 0 11.15 11.94l96.62 24.01 24.01 96.62a15.01 15.01 0 0 0 14.56 11.38c4.92 0 9.6-2.42 12.42-6.59l57.83-85.37 90.45 2.86c6.14.19 11.79-3.39 14.24-9.04a15.004 15.004 0 0 0-3.16-16.56z" fill="#fabe2c"></path><path d="m296.26 215.706 24.01 96.62a15.01 15.01 0 0 0 14.56 11.38c4.92 0 9.6-2.42 12.42-6.59l57.83-85.37 90.45 2.86c6.14.19 11.79-3.39 14.24-9.04a15.004 15.004 0 0 0-3.16-16.56l-69.14-69.13 43.05-88.38c2.8-5.75 1.65-12.65-2.88-17.17z" fill="#fd9025"></path><path d="M465 416.966c-25.92 0-47 21.08-47 47s21.08 47 47 47 47-21.08 47-47-21.08-47-47-47z" fill="#fabe2c"></path><path d="M104 28.966H91v-13c0-8.284-6.716-15-15-15s-15 6.716-15 15v13H48c-8.284 0-15 6.716-15 15s6.716 15 15 15h13v13c0 8.284 6.716 15 15 15s15-6.716 15-15v-13h13c8.284 0 15-6.716 15-15s-6.716-15-15-15zM207.1 371.336l-22.26 22.26-45.32-87.62 22.26-22.26z" fill="#fed843"></path><path d="m184.84 393.596 22.26-22.26-22.66-43.81-22.265 22.265z" fill="#fabe2c"></path><path d="m150.53 427.906-22.26 22.26-45.32-87.62 22.26-22.26z" fill="#fed843"></path><path d="m128.27 450.166 22.26-22.26-22.655-43.815-22.26 22.26z" fill="#fabe2c"></path><circle cx="15" cy="119.969" fill="#5ed8d3" r="15"></circle><circle cx="128" cy="199.969" fill="#d599ed" r="15"></circle><circle cx="192" cy="63.964" fill="#ff6666" r="15"></circle><circle cx="328" cy="415.967" fill="#31bebe" r="15"></circle><circle cx="440" cy="327.967" fill="#ad77e3" r="14.999"></circle></g></svg>