<svg viewBox="0 0 512 512" xmlns="http://www.w3.org/2000/svg"><g><g fill="#99340d"><path d="M504 512h-88a8 8 0 0 1-7.93-6.942l-41.5-311.215 15.859-2.115L423 496h71.644L432.1 97.239l15.8-2.478 64 408A8 8 0 0 1 504 512z" fill="#99340d"></path><path d="M384 168h68.549v16H384zM387.2 280h82.917v16H387.2zM394.667 336h84.235v16h-84.235zM402.134 392H488v16h-85.866zM410 448h86v16h-86z" fill="#99340d"></path></g><path d="M440 96H254.515L8.427 504H208z" fill="#e84700"></path><path d="m361.74 66.444-21.856 67.68a40.959 40.959 0 0 1-50.809 27.816l-36.551-10.689a40.959 40.959 0 0 1-27.816-50.809l15.449-52.828z" fill="#ffc880"></path><path d="m282.544 187.691-37.677-12.674 6.737-24.035 38.392 11.227z" fill="#ffc880"></path><path d="M121.07 251.52S112 224 96 232s-40 48-40 48H8s32 24 40 32z" fill="#fcb765"></path><circle cx="305.243" cy="95.82" fill="#472020" r="12" transform="rotate(-73.69 305.22 95.771)"></circle><circle cx="259.172" cy="82.347" fill="#472020" r="12" transform="rotate(-73.69 259.152 82.305)"></circle><path d="M278.221 141.092a24.034 24.034 0 0 1-23.068-30.747l15.357 4.491a8 8 0 0 0 15.356 4.49l15.357 4.49a24.034 24.034 0 0 1-23 17.275z" fill="#e84700"></path><path d="m152 272 23.98 23.568L283.478 327S248 384 200 368l-83.672-41z" fill="#4ba013"></path><path d="M160 176s-40 16-56-8l-16-24-24 24s42.14 70.234 114.14 38.234" fill="#ffc880"></path><path d="m368 216-153.846-50.965L160 176l24 40h15.249l-23.269 79.568 107.498 31.436 24.626-85.636L328 248z" fill="#56bc13"></path><path d="M339.536 238.772S384 280 416 256s40-40 40-40l-24-16-32 32s-10.667 10.133-34.667-13.867M152 272s-24-32-40-16-48 56-48 56H16l48 40 56-64 12.791 12" fill="#ffc880"></path><path d="m136.982 460.3 40.03-71.986 13.983 7.775-40.03 71.987zM80.96 460.29l40.03-71.986 13.983 7.775-40.03 71.987zM361.143 139.895l56.014-96.024 13.824 8.064-56.014 96.024z" fill="#d6d5d2"></path><path d="m234.391 25.574 5.767 22.04 84.462 24.7 23.98 32.017 26.941-25.461 3.729-12.751A18.715 18.715 0 0 0 366.561 42.9l-115.3-33.72a13.513 13.513 0 0 0-16.87 16.394z" fill="#f4bb03"></path><path d="M248.186 163.174a95.146 95.146 0 0 0 40.42 3.786l1.39-4.751-38.396-11.228z" fill="#ea9734"></path></g></svg>