<svg viewBox="0 0 468 468" xmlns="http://www.w3.org/2000/svg"><g><path d="M467.918 254.04c-.556-5.135-3.881-9.396-8.677-11.121-26.043-9.366-54.973-7.224-79.438 5.918l-89.836 52.407-.359.259c-6.248 5.471-14.005 8.484-21.845 8.484h-76.081v-18.562h76.081c11.181 0 17.364-13.451 17.364-22.749 0-12.182-7.566-22.384-16.929-22.743l-79.983-.894c-29.205-.32-46.856-17.134-76.438-1.974-28.861 14.793-41.551 48.264-44.752 58.171l-.257.796 38.826 97.411h145.254l210.958-132.638c4.329-2.721 6.671-7.613 6.112-12.765z" fill="#f9d298"></path><path d="M120.298 421.974 78.37 444.848c-8.078 4.407-18.201 1.229-22.31-7.005L1.713 328.96c-3.903-7.82-.918-17.326 6.754-21.511l41.928-22.874c8.078-4.407 18.201-1.229 22.31 7.005l54.347 108.883c3.903 7.819.918 17.326-6.754 21.511z" fill="#4c97e3"></path><path d="M293.873 56.237c-42.111-95.016-205.457 19.049-.683 151.132l-.107-.483c214.698-132.083 35.927-242.671.79-150.649z" fill="#f56c61"></path></g></svg>