<svg viewBox="0 0 511.964 511.964" xmlns="http://www.w3.org/2000/svg"><g><path d="M158.02 141.056h-40.76l28.822-28.822a7.5 7.5 0 0 0 0-10.606 7.5 7.5 0 0 0-10.606 0l-28.822 28.822V89.69a7.5 7.5 0 0 0-15 0v40.76l-28.822-28.822a7.498 7.498 0 0 0-10.606 0 7.5 7.5 0 0 0 0 10.606l28.822 28.822H40.287a7.5 7.5 0 0 0 0 15h40.76l-28.822 28.822a7.5 7.5 0 0 0 5.303 12.803 7.474 7.474 0 0 0 5.303-2.197l28.822-28.822v40.76a7.5 7.5 0 0 0 15 0v-40.76l28.822 28.822c1.464 1.465 3.384 2.197 5.303 2.197s3.839-.732 5.303-2.197a7.5 7.5 0 0 0 0-10.606l-28.822-28.822h40.76a7.5 7.5 0 0 0 .001-15zM449.94 438.097h-40.76l28.822-28.822a7.5 7.5 0 0 0 0-10.606 7.5 7.5 0 0 0-10.606 0l-28.822 28.822v-40.76a7.5 7.5 0 0 0-15 0v40.76l-28.822-28.822a7.5 7.5 0 0 0-10.606 0 7.5 7.5 0 0 0 0 10.606l28.822 28.822h-40.76a7.5 7.5 0 0 0 0 15h40.76l-28.822 28.822a7.5 7.5 0 0 0 5.303 12.803 7.474 7.474 0 0 0 5.303-2.197l28.822-28.822v40.76a7.5 7.5 0 0 0 15 0v-40.76l28.822 28.822c1.464 1.464 3.384 2.197 5.303 2.197s3.839-.732 5.303-2.197a7.5 7.5 0 0 0 0-10.606l-28.822-28.822h40.76a7.5 7.5 0 0 0 0-15zM491.685 58.867h-40.76l28.822-28.822a7.5 7.5 0 0 0 0-10.606 7.5 7.5 0 0 0-10.606 0L440.318 48.26V7.5a7.5 7.5 0 0 0-15 0v40.76l-28.822-28.822a7.5 7.5 0 0 0-10.606 0 7.5 7.5 0 0 0 0 10.606l28.822 28.822h-40.76a7.5 7.5 0 0 0 0 15h40.76l-28.822 28.822a7.5 7.5 0 0 0 5.303 12.803 7.474 7.474 0 0 0 5.303-2.197l28.822-28.822v40.76a7.5 7.5 0 0 0 15 0v-40.76l28.822 28.822c1.464 1.464 3.384 2.197 5.303 2.197s3.839-.732 5.303-2.197a7.5 7.5 0 0 0 0-10.606l-28.822-28.822h40.76a7.5 7.5 0 0 0 .001-14.999z" fill="#d4e8ed"></path><g fill="#889daa"><path d="M121 148.556c0 12.065-9.781 21.846-21.846 21.846-7.259 0-13.692-3.541-17.665-8.99a21.748 21.748 0 0 1-4.182-12.857c0-11.323 8.614-20.634 19.647-21.737a22.193 22.193 0 0 1 2.199-.109c12.066.001 21.847 9.782 21.847 21.847zM412.92 445.597c0 12.065-9.781 21.846-21.846 21.846-7.257 0-13.687-3.538-17.66-8.983a21.744 21.744 0 0 1-4.186-12.863c0-11.323 8.614-20.634 19.647-21.737a22.193 22.193 0 0 1 2.199-.109c12.065 0 21.846 9.781 21.846 21.846zM454.665 66.367c0 12.065-9.781 21.846-21.846 21.846-7.253 0-13.68-3.534-17.653-8.974a21.746 21.746 0 0 1-4.193-12.872c0-11.335 8.632-20.653 19.68-21.74a22.14 22.14 0 0 1 2.166-.106c12.065-.001 21.846 9.78 21.846 21.846z" fill="#889daa"></path></g><path d="M120.996 148.556c0 12.07-9.778 21.847-21.847 21.847-7.246 0-13.667-3.53-17.64-8.965 11.069-1.071 19.712-10.401 19.712-21.75a21.74 21.74 0 0 0-4.203-12.877c.701-.07 1.41-.104 2.131-.104 12.069.002 21.847 9.78 21.847 21.849zM412.918 445.593c0 12.07-9.778 21.847-21.847 21.847-7.246 0-13.668-3.523-17.641-8.958 11.069-1.081 19.713-10.408 19.713-21.747 0-4.791-1.548-9.227-4.167-12.83l-.038-.052c.701-.07 1.413-.098 2.133-.098 12.07 0 21.847 9.778 21.847 21.838zM454.662 66.371c0 12.06-9.778 21.837-21.847 21.837-7.246 0-13.668-3.524-17.641-8.958 11.069-1.081 19.712-10.407 19.712-21.746a21.75 21.75 0 0 0-4.2-12.881c.701-.07 1.408-.099 2.128-.099 12.07 0 21.848 9.778 21.848 21.847z" fill="#728d9a"></path><path d="M46.276 294.689c1.658-.693 2.637-2.42 2.433-4.206a30.09 30.09 0 0 1-.194-3.402c0-16.949 13.74-30.689 30.689-30.689 4.963 0 9.642 1.19 13.787 3.286 1.715.868 3.786.386 5.004-1.101 11.045-13.497 27.825-22.118 46.626-22.118 4.727 0 9.327.545 13.739 1.575 20.524 4.791 37.007 20.081 43.499 39.897.767 2.342 3.416 3.502 5.633 2.427a37.094 37.094 0 0 1 16.216-3.71c20.587 0 37.276 16.689 37.276 37.276v.05c-.004 2.454 2.058 4.366 4.502 4.145a45.8 45.8 0 0 1 4.145-.187c18.355 0 34.195 10.769 41.546 26.333 3.024 6.403 4.612 13.617 4.348 21.227-.841 24.185-20.762 43.79-44.956 44.276a45.79 45.79 0 0 1-15.671-2.416c-2.255-.765-4.729.49-5.303 2.801-4.033 16.226-18.691 28.254-36.166 28.254-13.935 0-26.081-7.648-32.476-18.975-1.38-2.443-4.72-2.905-6.604-.825-11.019 12.159-26.931 19.8-44.633 19.8-33.268 0-60.237-26.969-60.237-60.237 0-2.677.181-5.31.525-7.893.356-2.672-1.992-4.876-4.665-4.529a37.338 37.338 0 0 1-9.45.014c-17.672-2.211-31.444-17.037-32.376-34.822-.855-16.279 8.789-30.412 22.763-36.251z" fill="#889daa"></path><path d="M311.143 344.196c-8.447 3.783-17.67 5.761-27.208 5.761-19.696 0-38.27-8.787-50.83-23.509a66.59 66.59 0 0 1-16.483.911c-33.557-2.222-60.268-29.223-62.119-62.82a66.874 66.874 0 0 1 3.892-26.496c20.516 4.794 36.98 20.081 43.465 39.887.761 2.342 3.413 3.503 5.634 2.432a36.982 36.982 0 0 1 16.213-3.713c20.586 0 37.28 16.693 37.28 37.28v.05a4.114 4.114 0 0 0 4.494 4.143c1.371-.13 2.752-.19 4.153-.19 18.325-.001 34.144 10.741 41.509 26.264z" fill="#728d9a"></path><path d="M413.757 185.539a47.275 47.275 0 0 0 .762-14.093c-2.104-22.241-20.216-40.138-42.478-41.999-8.502-.711-16.579.858-23.686 4.162a4.734 4.734 0 0 1-5.467-1.056c-8.522-9.088-20.639-14.766-34.08-14.766-19.613 0-36.402 12.087-43.325 29.219a4.806 4.806 0 0 1-5.929 2.804c-5.747-1.791-11.971-2.503-18.434-1.896-22.178 2.083-40.04 20.051-42.006 42.24-.719 8.12.642 15.857 3.609 22.738.994 2.305-.126 4.925-2.373 6.042-16.109 8.013-26.938 25.053-25.863 44.501 1.289 23.322 20.152 42.41 43.458 43.955 6.983.463 13.665-.611 19.741-2.915a4.685 4.685 0 0 1 5.757 2.049c8.068 13.996 23.182 23.418 40.498 23.418 12.904 0 24.586-5.233 33.04-13.693 1.771-1.772 4.665-1.798 6.487-.079 8.365 7.893 19.643 12.732 32.052 12.732 24.307 0 40.686-18.897 42.499-42.659.19-2.488 2.235-4.422 4.731-4.414l5.774.017c25.46-.769 41.126-20.57 41.126-46.369 0-20.935-13.772-38.653-32.751-44.589a4.587 4.587 0 0 1-3.142-5.349z" fill="#d4e8ed"></path><path d="M416.905 190.887c-2.298-.712-3.633-2.995-3.144-5.353a47.24 47.24 0 0 0 .756-14.087c-2.106-22.242-20.211-40.139-42.482-41.993-8.407-.712-16.414.816-23.473 4.063.575-.265 12.52 11.82 13.716 13.079 8.143 8.573 9.693 22.652 6.751 33.74-.969 3.654-3.406 6.906-4.589 10.592a5.765 5.765 0 0 0-.16.607 4.583 4.583 0 0 0 3.141 5.352c12.21 3.791 26.581 7.727 31.391 20.91 5.835 15.99.097 32.443-13.818 42.554-4.809 3.494-10.544 5.579-16.52 5.549l-5.783-.03c-2.491 0-5.086 1.957-4.73 4.419 4.715 31.984-6.406 47.568-21.412 54.582a46.31 46.31 0 0 0 18.965 4.033c24.303 0 40.688-18.906 42.497-42.66.193-2.491 2.239-4.419 4.73-4.419l5.783.015c25.46-.771 41.118-20.566 41.118-46.367.003-20.935-13.757-38.654-32.737-44.586z" fill="#c0d4de"></path><path d="M325.955 168.457c-8.388 0-16.211 4.514-20.416 11.779a7.5 7.5 0 0 0 12.984 7.513c1.532-2.647 4.38-4.292 7.432-4.292s5.9 1.645 7.432 4.291a7.497 7.497 0 0 0 10.248 2.733 7.499 7.499 0 0 0 2.733-10.248c-4.204-7.264-12.026-11.776-20.413-11.776z" fill="#b2c5d1"></path><path d="M140.181 367.276c3.528 2.108 8.191.819 10.236-2.716a8.614 8.614 0 0 1 7.433-4.292c3.052 0 5.9 1.644 7.432 4.291a7.498 7.498 0 0 0 10.248 2.733 7.499 7.499 0 0 0 2.733-10.248c-4.205-7.264-12.027-11.776-20.414-11.776-8.389 0-16.211 4.514-20.416 11.78-2.168 3.748-.575 8.242 2.748 10.228z" fill="#4f6c77"></path><path d="M280.428 253.108a7.484 7.484 0 0 0 10.248-2.734c1.533-2.648 4.381-4.293 7.433-4.293s5.9 1.644 7.432 4.291a7.497 7.497 0 0 0 10.248 2.733 7.499 7.499 0 0 0 2.733-10.248c-4.205-7.264-12.027-11.776-20.414-11.776-8.388 0-16.211 4.514-20.416 11.779a7.502 7.502 0 0 0 2.736 10.248z" fill="#b2c5d1"></path><path d="M209.608 82.63c5.254 0 8.907-5.501 6.92-10.365-1.337-3.272-4.924-5.176-8.389-4.494-3.504.745-6.03 3.764-6.03 7.36-.001 4.024 3.483 7.499 7.499 7.499zM240.975 114.01c5.254 0 8.907-5.501 6.92-10.365-1.337-3.272-4.924-5.176-8.389-4.494-3.504.745-6.03 3.764-6.03 7.36-.001 4.024 3.483 7.499 7.499 7.499zM189.764 121.509c5.254 0 8.907-5.501 6.92-10.365-1.337-3.272-4.924-5.176-8.389-4.494-3.504.745-6.03 3.764-6.03 7.36-.001 4.024 3.482 7.499 7.499 7.499zM37.384 71.85c5.254 0 8.907-5.501 6.92-10.365-1.337-3.272-4.924-5.176-8.389-4.494-3.504.745-6.03 3.764-6.03 7.36-.001 4.024 3.482 7.499 7.499 7.499zM27.199 235.715c-1.337-3.272-4.924-5.176-8.389-4.494-3.504.745-6.03 3.764-6.03 7.36 0 4.025 3.483 7.5 7.5 7.5 5.253 0 8.906-5.502 6.919-10.366z" fill="#728d9a"></path><path d="M130.859 291.43c-3.504.745-6.03 3.764-6.03 7.36 0 4.025 3.483 7.5 7.5 7.5 5.254 0 8.907-5.501 6.92-10.365-1.338-3.273-4.924-5.177-8.39-4.495zM232.518 375.064c-1.337-3.272-4.924-5.176-8.389-4.494-3.504.745-6.03 3.764-6.03 7.36 0 4.025 3.483 7.5 7.5 7.5 5.254 0 8.907-5.502 6.919-10.366z" fill="#4f6c77"></path><g fill="#728d9a"><path d="M32.829 420.821c-3.504.745-6.03 3.764-6.03 7.36 0 4.025 3.483 7.5 7.5 7.5 5.254 0 8.907-5.501 6.92-10.365-1.338-3.273-4.924-5.177-8.39-4.495zM25.839 460.081c-3.504.745-6.03 3.764-6.03 7.36 0 4.025 3.483 7.5 7.5 7.5 5.254 0 8.907-5.501 6.92-10.365-1.338-3.273-4.924-5.177-8.39-4.495zM86.619 460.081c-3.504.745-6.03 3.764-6.03 7.36 0 4.025 3.483 7.5 7.5 7.5 5.254 0 8.907-5.501 6.92-10.365-1.338-3.273-4.925-5.177-8.39-4.495zM268.489 463.815c-3.504.745-6.03 3.764-6.03 7.36 0 4.025 3.483 7.5 7.5 7.5 5.254 0 8.907-5.501 6.92-10.365-1.338-3.273-4.924-5.177-8.39-4.495zM431.364 345.409c-3.504.745-6.03 3.764-6.03 7.36 0 4.025 3.483 7.5 7.5 7.5 5.254 0 8.907-5.501 6.92-10.365-1.338-3.272-4.924-5.176-8.39-4.495zM465.329 379.371c-3.504.745-6.03 3.764-6.03 7.36 0 4.025 3.483 7.5 7.5 7.5 5.254 0 8.907-5.501 6.92-10.365-1.338-3.273-4.924-5.177-8.39-4.495zM466.499 326.599c5.254 0 8.907-5.501 6.92-10.365-1.337-3.272-4.924-5.176-8.389-4.494-3.504.745-6.03 3.764-6.03 7.36-.001 4.024 3.482 7.499 7.499 7.499z" fill="#728d9a"></path></g><path d="M336.834 260.135c-3.504.745-6.03 3.764-6.03 7.36 0 4.025 3.483 7.5 7.5 7.5 5.254 0 8.907-5.501 6.92-10.365-1.337-3.273-4.924-5.177-8.39-4.495zM364.764 235.833c5.254 0 8.907-5.501 6.92-10.365-1.337-3.272-4.924-5.176-8.389-4.494-3.504.745-6.03 3.764-6.03 7.36-.001 4.024 3.482 7.499 7.499 7.499zM246.99 209.006c-3.504.745-6.03 3.764-6.03 7.36 0 4.025 3.483 7.5 7.5 7.5 5.254 0 8.907-5.501 6.92-10.365-1.337-3.273-4.924-5.177-8.39-4.495z" fill="#b2c5d1"></path></g></svg>