<svg viewBox="0 0 512 512" xmlns="http://www.w3.org/2000/svg"><g><path d="M345.683 389.218c18.479 0 33.46-14.98 33.46-33.46 0-4.474-.885-8.739-2.478-12.64 2.072.356 4.2.553 6.374.553 20.631 0 37.355-16.725 37.355-37.355 0-9.296-3.403-17.792-9.022-24.329 17.191-4.861 29.792-20.654 29.792-39.4 0-14.061-7.089-26.463-17.886-33.838 13.393-8.95 22.216-24.202 22.216-41.52 0-26.277-20.314-47.796-46.092-49.746a40.776 40.776 0 0 0 4.261-18.189c0-22.617-18.335-40.953-40.952-40.953a41.2 41.2 0 0 0-7.063.619c.132-1.277.201-2.573.201-3.885 0-20.631-16.725-37.356-37.356-37.356-10.514 0-20.007 4.35-26.795 11.34C288.283 12.473 273.599 0 256 0s-32.284 12.473-35.7 29.06c-6.788-6.99-16.281-11.34-26.795-11.34-20.631 0-37.356 16.725-37.356 37.356 0 1.312.069 2.607.201 3.885a41.2 41.2 0 0 0-7.063-.619c-22.617 0-40.953 18.335-40.953 40.953a40.762 40.762 0 0 0 4.261 18.189c-25.778 1.951-46.092 23.469-46.092 49.746 0 17.317 8.823 32.57 22.216 41.52-10.796 7.374-17.886 19.776-17.886 33.838 0 18.747 12.601 34.54 29.792 39.4-5.619 6.537-9.022 15.033-9.022 24.329 0 20.631 16.725 37.355 37.355 37.355a37.51 37.51 0 0 0 6.374-.553 33.354 33.354 0 0 0-2.478 12.64c0 18.479 14.98 33.46 33.46 33.46h179.369z" fill="#935b44"></path><path d="M441.169 242.587c0 18.748-12.602 34.536-29.798 39.398 5.622 6.537 9.025 15.038 9.025 24.329 0 20.629-16.723 37.352-37.352 37.352a38.33 38.33 0 0 1-6.383-.545 33.356 33.356 0 0 1 2.275 16.414c-1.913 17.032-16.74 29.685-33.879 29.685h-23.808c18.563 0 35.386-28.823 32.915-53.371-.284-2.818-.564-5.569-1.13-8.197-.461-2.141 1.226-4.085 3.414-3.988a36.82 36.82 0 0 0 1.632.036c8.825 0 19.504 1.114 27.141-4.271 9.318-6.571 10.38-15.134 7.655-25.584-1.178-4.521-4.414-10.934-6.536-14.872-.965-1.792-.126-4.043 1.795-4.713 15.68-5.464 28.903-16.806 29.054-32.384.122-12.554-5.594-23.787-14.473-31.334-1.638-1.392-1.584-3.942.146-5.218 11.341-8.364 18.386-18.002 18.386-33.777 0-24.837-18.143-38.577-41.854-41.755-2.199-.295-3.464-2.641-2.563-4.668 2.79-6.273 6.034-15.835 4.076-25.938-3.753-19.36-17.564-27.21-40.29-27.21-1.102 0-2.191.047-3.268.135-1.976.162-3.631-1.392-3.629-3.375v-.039c0-15.449-11.578-43.945-24.909-49.701 4.251-1.148 8.815-1.553 13.53-1.082 20.33 2.034 35.324 20.479 33.333 40.814l-.023.231c3.21-.561 6.54-.76 9.991-.511 20.234 1.459 36.606 17.845 37.93 38.088.494 7.56-1.061 14.695-4.165 20.95 25.779 1.943 46.089 23.466 46.089 49.738 0 17.319-8.819 32.573-22.212 41.526 10.793 7.369 17.885 19.775 17.885 33.837z" fill="#87523e"></path><path d="M342.761 212.92h11.872c10.196 0 18.461-8.265 18.461-18.461 0-10.196-8.265-18.461-18.461-18.461h-11.872zM356.161 511.996H153.045V386.589c0-36.856 15.625-62.309 43.899-81.672 2.221-1.521 2.902-10.031 5.239-11.386 15.826-9.172 34.208-14.423 53.817-14.423 19.829 0 38.403 5.369 54.349 14.734 1.956 1.149 4.738 9.809 6.612 11.076 28.589 19.315 39.201 44.572 39.201 81.672v125.406z" fill="#f6a96c"></path><path d="M363.482 386.585V512h-19.817V386.585c0-56.024-42.857-102.022-97.569-107.015 3.264-.305 6.568-.457 9.903-.457 29.679 0 56.553 12.028 76.003 31.479s31.48 46.314 31.48 75.993z" fill="#ea9b58"></path><path d="M357.927 386.585V512h-209.41V386.585c0-39.756 21.586-74.458 53.665-93.055 2.176 27.971 25.562 49.985 54.092 49.985 14.987 0 28.561-6.07 38.383-15.892 8.805-8.805 14.601-20.63 15.689-33.777 7.921 4.646 15.159 15.587 21.615 22.043 6.162 6.162 10.758 13.724 15.284 21.228 9.76 16.182 10.682 29.192 10.682 49.468z" fill="#fedf30"></path><path d="M363.482 386.585V512h-19.817V386.585c0-31.865-13.869-60.498-35.902-80.162a53.269 53.269 0 0 0 2.583-12.578 107.746 107.746 0 0 1 21.657 16.746c19.451 19.452 31.479 46.315 31.479 75.994z" fill="#fac600"></path><g fill="#e8b800"><path d="M232.513 434.632c-4.502 4.081-10.803 6.28-17.72 6.28-1.429 0-2.878-.093-4.348-.288a31.9 31.9 0 0 1-2.2-.36v71.734h-15.418v-78.477c-5.715-4.153-10.32-9.806-13.002-16.384-5.191-12.673-2.95-27.691 5.684-38.247 2.693-3.289 7.555-3.782 10.844-1.079a7.704 7.704 0 0 1 1.09 10.844c-5.026 6.147-6.373 15.243-3.351 22.654 3.012 7.359 10.381 13.002 18.327 14.03 4.05.524 7.688-.278 9.744-2.138 3.156-2.857 8.028-2.611 10.885.535 2.857 3.156 2.621 8.039-.535 10.896zM332.174 417.138c-2.683 6.578-7.288 12.232-13.002 16.384v78.477h-15.418v-71.734a31.9 31.9 0 0 1-2.2.36c-1.47.195-2.919.288-4.348.288-6.918 0-13.218-2.2-17.72-6.28-3.155-2.857-3.392-7.74-.534-10.895 2.857-3.155 7.729-3.392 10.885-.535 2.056 1.86 5.694 2.662 9.744 2.138 7.945-1.028 15.315-6.671 18.327-14.03 3.022-7.411 1.675-16.508-3.351-22.654a7.703 7.703 0 0 1 1.09-10.844 7.694 7.694 0 0 1 10.844 1.079c8.633 10.555 10.874 25.572 5.683 38.246z" fill="#e8b800"></path></g><path d="M255.879 297.857c-48.551 0-87.909-39.358-87.909-87.909v-68.429l111.307-59.508 64.511 69.422v58.515c.001 48.551-39.358 87.909-87.909 87.909z" fill="#f6a96c"></path><path d="M343.789 151.436v58.516c0 48.546-39.357 87.903-87.913 87.903a87.27 87.27 0 0 1-10.279-.606c43.715-5.078 77.634-42.225 77.634-87.296v-80.636z" fill="#ea9b58"></path><path d="M169.239 212.92h-11.872c-10.196 0-18.461-8.265-18.461-18.461 0-10.196 8.265-18.461 18.461-18.461h11.872z" fill="#f6a96c"></path><path d="M213.003 216.857a7.71 7.71 0 0 1-7.709-7.709v-16.419a7.71 7.71 0 0 1 15.418 0v16.419a7.71 7.71 0 0 1-7.709 7.709zM298.756 216.857a7.708 7.708 0 0 1-7.709-7.709v-16.419a7.71 7.71 0 0 1 15.418 0v16.419a7.71 7.71 0 0 1-7.709 7.709zM256.184 255.472a30.208 30.208 0 0 1-21.103-8.534 7.708 7.708 0 1 1 10.718-11.082 14.863 14.863 0 0 0 10.385 4.199c3.693 0 7.239-1.358 9.982-3.823a7.71 7.71 0 0 1 10.305 11.468 30.303 30.303 0 0 1-20.287 7.772zM357.611 146.952c0 13.068-10.197 24.173-23.259 24.583-8.281.26-15.655-3.674-20.168-9.835-4.372 5.968-11.429 9.847-19.395 9.847s-15.022-3.878-19.395-9.847c-4.372 5.968-11.429 9.847-19.395 9.847s-15.022-3.878-19.395-9.847c-4.373 5.968-11.429 9.847-19.395 9.847s-15.022-3.878-19.395-9.847c-4.513 6.161-11.887 10.095-20.168 9.835-13.062-.41-23.258-11.515-23.258-24.583v-3.921l.834-8.505c9.649-46.806 51.068-82.005 100.718-82.062v-.001l.06.001.06-.001v.001c49.65.057 91.068 35.256 100.718 82.061l.834 8.505v3.922z" fill="#935b44"></path></g></svg>