<svg viewBox="0 0 512 512" xmlns="http://www.w3.org/2000/svg"><g><circle cx="256" cy="359.992" fill="#68ca44" r="108.906"></circle><path d="M206.982 360.989a7.5 7.5 0 0 1-7.5-7.5v-15.023c0-4.142 3.357-7.5 7.5-7.5s7.5 3.358 7.5 7.5v15.023a7.5 7.5 0 0 1-7.5 7.5zM304.673 360.989a7.5 7.5 0 0 1-7.5-7.5v-15.023c0-4.142 3.357-7.5 7.5-7.5s7.5 3.358 7.5 7.5v15.023a7.5 7.5 0 0 1-7.5 7.5zM304.673 399.819h-97.69c-4.143 0-7.5-3.358-7.5-7.5s3.357-7.5 7.5-7.5h97.69a7.5 7.5 0 0 1 0 15z" fill="#444444"></path><circle cx="108.906" cy="152.008" fill="#fac600" r="108.906"></circle><circle cx="403.094" cy="152.008" fill="#fb2b3a" r="108.906"></circle><path d="M364.905 359.991c0 60.149-48.756 108.905-108.905 108.905-35.698 0-67.387-17.171-87.252-43.708 18.826 15.525 42.957 24.851 69.258 24.851 60.149 0 108.905-48.756 108.905-108.905 0-24.44-8.051-46.998-21.633-65.177 24.204 19.967 39.627 50.196 39.627 84.034z" fill="#4fc123"></path><path d="M217.813 152.01c0 60.149-48.756 108.905-108.905 108.905-35.698 0-67.387-17.171-87.251-43.708 18.826 15.526 42.957 24.851 69.258 24.851 60.149 0 108.905-48.756 108.905-108.905 0-24.44-8.051-46.998-21.633-65.177 24.204 19.968 39.626 50.196 39.626 84.034z" fill="#e0ae10"></path><path d="M511.997 152.01c0 60.149-48.756 108.905-108.905 108.905-35.698 0-67.387-17.171-87.252-43.708 18.826 15.526 42.958 24.851 69.259 24.851 60.149 0 108.905-48.756 108.905-108.905 0-24.44-8.051-46.998-21.633-65.177 24.203 19.968 39.626 50.196 39.626 84.034z" fill="#e41f2d"></path><g fill="#444"><path d="M60.061 153.005a7.5 7.5 0 0 1-7.5-7.5v-15.023c0-4.142 3.357-7.5 7.5-7.5s7.5 3.358 7.5 7.5v15.023a7.5 7.5 0 0 1-7.5 7.5zM157.751 153.005a7.5 7.5 0 0 1-7.5-7.5v-15.023c0-4.142 3.357-7.5 7.5-7.5s7.5 3.358 7.5 7.5v15.023a7.5 7.5 0 0 1-7.5 7.5zM108.588 212.858a55.887 55.887 0 0 1-45.765-23.802 7.5 7.5 0 0 1 12.275-8.622c7.813 11.125 20.568 17.605 34.153 17.418a40.945 40.945 0 0 0 33.364-18.19A7.5 7.5 0 0 1 155.083 188c-10.208 15.265-27.252 24.555-45.591 24.85-.3.006-.603.008-.904.008zM354.249 153.005a7.5 7.5 0 0 1-7.5-7.5v-15.023c0-4.142 3.357-7.5 7.5-7.5s7.5 3.358 7.5 7.5v15.023a7.5 7.5 0 0 1-7.5 7.5zM451.939 153.005a7.5 7.5 0 0 1-7.5-7.5v-15.023c0-4.142 3.357-7.5 7.5-7.5s7.5 3.358 7.5 7.5v15.023a7.5 7.5 0 0 1-7.5 7.5zM363.479 207.248a7.456 7.456 0 0 1-4.162-1.267 7.499 7.499 0 0 1-2.065-10.403c10.208-15.265 27.251-24.555 45.591-24.851 18.553-.301 35.996 8.597 46.671 23.795a7.5 7.5 0 0 1-12.275 8.621c-7.813-11.125-20.539-17.633-34.154-17.418a40.946 40.946 0 0 0-33.363 18.19 7.498 7.498 0 0 1-6.243 3.333z" fill="#444444"></path></g></g></svg>