<svg id="Capa_1" enable-background="new 0 0 512.004 512.004" height="512" viewBox="0 0 512.004 512.004" width="512" xmlns="http://www.w3.org/2000/svg"><g><g><path d="m256.003 172.004 58.705 117.35-58.705 222.65c-3.32 0-6.64-1.1-9.38-3.29l-63.46-50.85h-70.61c-34.49 0-62.55-28.06-62.55-62.55v-160.76c0-34.49 28.06-62.55 62.55-62.55z" fill="#66e6ff"/></g><path d="m462.003 234.554v160.76c0 34.49-28.06 62.55-62.55 62.55h-70.61l-63.46 50.85c-2.74 2.19-6.06 3.29-9.38 3.29v-340h143.45c34.49 0 62.55 28.06 62.55 62.55z" fill="#4da6ff"/><g><g><g fill="#624d8c"><path d="m256.003 232.144 13.105 13.779-13.105 16.231c-8.38-.01-15.56 6.18-16.72 14.51-.11.77-.16 1.57-.16 2.37 0 8.28-6.72 15-15 15-8.29 0-15-6.72-15-15 0-2.18.15-4.38.45-6.52 3.231-23.17 23.11-40.37 46.43-40.37z"/><path d="m256.003 295.914 17.959 18.111-17.959 45.239c-8.28 0-15-6.72-15-15v-33.35c0-8.28 6.72-15 15-15z"/></g></g></g><circle cx="256.003" cy="404.859" fill="#3d2866" r="15"/><path d="m256.003.004 7.55 62.846-7.55 68.154c-8.24-.05-14.9-6.75-14.9-15v-37.23h-39.9v37.23c0 8.28-6.71 15-15 15-8.28 0-15-6.72-15-15v-101c0-8.28 6.72-15 15-15 8.29 0 15 6.72 15 15v33.77h39.9v-33.77c0-8.25 6.66-14.95 14.9-15z" fill="#624d8c"/><path d="m127.353.478c-8.126-1.619-16.022 3.658-17.64 11.784l-9.87 49.594-15.794-51.268c-2.438-7.917-10.837-12.359-18.751-9.919-5.31 1.636-9.044 5.956-10.199 11.009l-15.535 50.189-9.846-49.774c-1.607-8.127-9.498-13.411-17.626-11.804-8.126 1.608-13.411 9.499-11.803 17.626l19.679 99.483c1.612 7.884 8.843 13.649 16.862 13.606 7.527.01 14.247-4.925 16.487-12.11l16.392-52.958 16.318 52.968c.062.204.13.406.2.606 2.448 6.888 8.98 11.495 16.282 11.495 8.036.041 15.249-5.731 16.871-13.618l19.757-99.269c1.616-8.125-3.659-16.023-11.784-17.64z" fill="#624d8c"/><g fill="#3d2866"><path d="m411.213 110.704-37.58-99.58c-.05-.14-.11-.27-.17-.41-2.67-6.51-8.95-10.71-15.98-10.71-.01 0-.02 0-.02 0-7.04.01-13.32 4.22-15.98 10.74-.05.11-.1.23-.14.34l-37.92 99.58c-2.95 7.74.93 16.41 8.67 19.36 7.75 2.95 16.41-.94 19.36-8.68l5.77-15.14h40.22l5.7 15.1c2.27 6 7.97 9.7 14.04 9.7 1.76 0 3.55-.31 5.29-.97 7.75-2.92 11.66-11.58 8.74-19.33zm-62.57-34.5 8.78-23.05 8.7 23.05z"/><path d="m512.003 15.004c0 8.28-6.72 15-15 15h-13.56v88c0 8.28-6.71 15-15 15-8.28 0-15-6.72-15-15v-88h-13.32c-8.29 0-15-6.72-15-15s6.71-15 15-15h56.88c8.281 0 15 6.72 15 15z"/><path d="m271.103 15.004v101c0 8.28-6.72 15-15 15h-.1v-131h.1c8.28 0 15 6.72 15 15z"/><path d="m290.003 311.314c-5.28 5.55-11.84 9.69-19 12.12v20.83c0 8.28-6.72 15-15 15v-63.35c4.67 0 9.02-1.87 12.24-5.26s4.86-7.85 4.62-12.54c-.45-8.77-7.7-15.78-16.5-15.96h-.36v-30.01c24.785-.031 45.56 19.68 46.82 44.42.67 12.99-3.88 25.33-12.82 34.75z"/></g></g></svg>