<svg class="hovered-paths" viewBox="0 0 512 512" xmlns="http://www.w3.org/2000/svg"><g><g clip-rule="evenodd" fill-rule="evenodd"><path class="" d="M136.35 9.66h239.3c8.11 0 14.74 6.63 14.74 14.74v334.71c0 8.11-6.63 14.74-14.74 14.74h-239.3c-8.11 0-14.74-6.63-14.74-14.74V24.4c0-8.11 6.63-14.74 14.74-14.74z" fill="#edf6ff"></path><path class="" d="M136.35 9.66h19.19c-8.11 0-14.74 6.63-14.74 14.74v334.71c0 8.11 6.63 14.74 14.74 14.74h-19.19c-8.11 0-14.74-6.63-14.74-14.74V24.4c0-8.11 6.63-14.74 14.74-14.74z" fill="#d5dde6"></path><path class="hovered-path" d="m40.68 418.81 27.38 5.84c106.16 11.25 161.91 131.78 328.65 10.09L461 421l-27.41-141.45-52.64 11.25c-100.57-58.11-181.05-22.99-254.66-1.02l-28.12-6.01-25.99-5.56z" fill="#f9c295"></path><path class="" d="m433.59 279.55-52.64 11.25c-44.48-26.96-98.08-39.69-167.24-25.88l-52.92 49.35c-39.77 36.77 28.35 41.16 72.79-3.17 33.28 63.58 118.26 65.54 163.13 123.65L461 421zM136.63 455.41l26.53-23.39c8.31-7.34 9.13-20.15 1.79-28.46-7.31-8.31-20.13-9.13-28.43-1.79l-26.53 23.39c-8.33 7.34-9.13 20.13-1.79 28.46 7.31 8.31 20.13 9.1 28.43 1.79zM183.55 467.77l26.53-23.39c8.31-7.31 9.13-20.13 1.79-28.43-7.31-8.33-20.13-9.13-28.43-1.79l-26.53 23.39c-8.33 7.31-9.13 20.13-1.79 28.43 7.31 8.34 20.12 9.13 28.43 1.79zM221.56 488.01l26.53-23.41c8.33-7.31 9.13-20.13 1.79-28.43-7.31-8.31-20.13-9.13-28.43-1.79l-26.53 23.39c-8.31 7.34-9.13 20.13-1.79 28.46 7.31 8.3 20.12 9.09 28.43 1.78zM252.66 460.6l-7.37 6.49c-8.33 7.34-9.13 20.13-1.79 28.46 7.31 8.31 20.13 9.1 28.43 1.79l7.37-6.49c8.31-7.34 9.13-20.15 1.79-28.46-7.32-8.31-20.13-9.13-28.43-1.79z" fill="#f29f5c"></path><path d="M205.51 146.49c29.14 0 52.92-23.78 52.92-52.92 0-29.17-23.78-52.95-52.92-52.95-29.17 0-52.92 23.78-52.92 52.95 0 29.14 23.76 52.92 52.92 52.92z" fill="#2ebd33"></path></g><path d="M289.56 48.89c-4.56 0-8.28-3.71-8.28-8.28 0-4.56 3.71-8.25 8.28-8.25h69.68c4.56 0 8.25 3.68 8.25 8.25 0 4.56-3.69 8.28-8.25 8.28zM289.56 94.76c-4.56 0-8.28-3.68-8.28-8.25 0-4.56 3.71-8.28 8.28-8.28h69.68c4.56 0 8.25 3.71 8.25 8.28 0 4.56-3.69 8.25-8.25 8.25zM289.56 140.65c-4.56 0-8.28-3.71-8.28-8.28s3.71-8.25 8.28-8.25h69.68c4.56 0 8.25 3.69 8.25 8.25s-3.69 8.28-8.25 8.28zM152.59 186.52c-4.56 0-8.28-3.68-8.28-8.25 0-4.56 3.71-8.25 8.28-8.25h206.65c4.56 0 8.25 3.68 8.25 8.25 0 4.56-3.69 8.25-8.25 8.25zM152.59 232.41c-4.56 0-8.28-3.71-8.28-8.28 0-4.56 3.71-8.25 8.28-8.25h206.65c4.56 0 8.25 3.68 8.25 8.25 0 4.56-3.69 8.28-8.25 8.28z" fill="#2ebd33"></path><path class="" d="M223.74 74.15c3.23-3.23 8.45-3.23 11.68 0s3.23 8.45 0 11.68l-27.16 27.13c-3.2 3.23-8.45 3.23-11.68 0L175.6 91.98c-3.23-3.23-3.23-8.45 0-11.68s8.45-3.23 11.68 0l15.14 15.17z" fill="#edf6ff"></path><path clip-rule="evenodd" d="m.021 410.133 30.109-140.89 68.069 14.546L68.09 424.68zM413.882 283.812l68.04-14.54 30.108 140.89-68.04 14.54z" fill="#5c9cee" fill-rule="evenodd"></path><path clip-rule="evenodd" d="m72.2 405.21-4.14 19.44L0 410.11l4.17-19.44zM439.8 405.21l4.17 19.44L512 410.11l-4.14-19.44z" fill="#538cd6" fill-rule="evenodd"></path><path clip-rule="evenodd" d="m439.8 405.21-58.88 12.56c5.67 5.1 10.97 10.71 15.79 16.98l47.25-10.09z" fill="#da8f53" fill-rule="evenodd"></path><path clip-rule="evenodd" d="M282.48 487.27c32.09-4.39 69.08-19.59 114.24-52.53-4.82-6.26-10.12-11.85-15.79-16.98l-5.07 1.11c-35.01 25.54-65.14 40.39-91.84 47.85 3.25 6.55 2.68 14.51-1.54 20.55zM68.06 424.65c12.81 1.36 24.89 4.31 36.51 8.25 1.13-2.89 2.95-5.56 5.41-7.74l10.4-9.18c-11.74-4-23.92-7-36.85-8.36l-11.34-2.41z" fill="#e0af86" fill-rule="evenodd"></path><path clip-rule="evenodd" d="m40.68 418.81 27.38 5.84z" fill="#e7635e" fill-rule="evenodd"></path></g></svg>