<svg viewBox="0 0 512 512" xmlns="http://www.w3.org/2000/svg"><g><g clip-rule="evenodd" fill-rule="evenodd"><path d="M88.729 451.402h156.288c17.765 0 32.3-14.534 32.3-32.299v-45.846c0-17.765-14.535-32.299-32.3-32.299H88.729c-17.766 0-32.3 14.534-32.3 32.299v45.846c0 17.765 14.534 32.299 32.3 32.299z" fill="#a56832"></path><path d="M22.5 390.971h288.745c7.7 0 13.999 6.3 13.999 14v48.557c0 7.7-6.299 14-13.999 14H22.5c-7.7 0-14-6.3-14-14v-48.557c0-7.7 6.3-14 14-14z" fill="#915a24"></path><path d="m275.359 158.069 213.127 123.05c14.324 8.27 19.277 26.755 11.008 41.078-8.271 14.324-26.756 19.277-41.079 11.008l-213.127-123.05c-14.323-8.271-19.276-26.756-11.007-41.08 8.27-14.322 26.755-19.275 41.078-11.006z" fill="#a56832"></path><path d="m205.227 117.575 126.849 73.239-30.072 52.084-126.849-73.239z" fill="#b77442"></path><path d="m222.348 51.64 105.219 60.75a2.49 2.49 0 0 1 .91 3.393L237.57 273.238a2.492 2.492 0 0 1-3.395.908l-105.219-60.749a2.49 2.49 0 0 1-.909-3.393L218.954 52.55a2.492 2.492 0 0 1 3.394-.91z" fill="#a56832"></path><path d="m126.379 192.784 126.938 73.288c3.212 1.854 4.322 5.999 2.469 9.211l-9.82 17.01c-1.855 3.211-6 4.321-9.211 2.467l-126.938-73.288c-3.212-1.854-4.322-5.998-2.468-9.211l9.82-17.009c1.854-3.212 5.999-4.322 9.21-2.468zm85.109-147.413 126.938 73.287c3.212 1.854 4.322 5.999 2.468 9.21l-9.819 17.01c-1.855 3.211-6 4.322-9.211 2.468L194.926 74.058c-3.212-1.854-4.322-5.998-2.468-9.209l9.82-17.01c1.855-3.212 5.998-4.322 9.21-2.468z" fill="#b77442"></path></g></g></svg>