<svg viewBox="0 0 512 512" xmlns="http://www.w3.org/2000/svg"><g><path d="M497.989 42.15v414.39c0 22.34-18.124 40.46-40.491 40.46H55.582c-22.367 0-40.491-18.12-40.491-40.46V42.15l14.931 51.42h451.954z" fill="#bcfbff"></path><path d="M497.989 42.15v414.39c0 22.34-18.124 40.46-40.491 40.46H256.535V93.57h225.442z" fill="#45f6ff"></path><path d="M512 57.15c0 34.84-28.352 63.2-63.208 63.2-19.295 0-36.598-8.69-48.197-22.36-11.609 13.67-28.902 22.36-48.197 22.36s-36.598-8.69-48.197-22.36c-11.499 13.54-28.592 22.2-47.666 22.35-.18.01-.35.01-.53.01-19.295 0-36.598-8.69-48.207-22.36-11.599 13.67-28.902 22.36-48.197 22.36-19.285 0-36.588-8.69-48.197-22.36-11.599 13.67-28.902 22.36-48.197 22.36C28.352 120.35 0 91.99 0 57.15c0-8.29 6.725-15 15.011-15s15.011 6.71 15.011 15c0 18.3 14.891 33.2 33.185 33.2 18.304 0 33.185-14.9 33.185-33.2 0-8.29 6.725-15 15.011-15 8.296 0 15.011 6.71 15.011 15 0 18.3 14.891 33.2 33.185 33.2 18.304 0 33.185-14.9 33.185-33.2 0-8.29 6.725-15 15.011-15 8.296 0 15.011 6.71 15.011 15 0 18.3 14.891 33.2 33.195 33.2.18 0 .36 0 .53-.01 18.054-.28 32.655-15.07 32.655-33.19 0-8.29 6.715-15 15.011-15 8.286 0 15.011 6.71 15.011 15 0 18.3 14.881 33.2 33.185 33.2 18.294 0 33.185-14.9 33.185-33.2 0-8.29 6.725-15 15.011-15s15.011 6.71 15.011 15c0 18.3 14.891 33.2 33.185 33.2 18.304 0 33.185-14.9 33.185-33.2 0-8.29 6.725-15 15.011-15 8.304 0 15.019 6.71 15.019 15z" fill="#45f6ff"></path><path d="M512 57.15c0 34.84-28.352 63.2-63.208 63.2-19.295 0-36.598-8.69-48.197-22.36-11.609 13.67-28.902 22.36-48.197 22.36s-36.598-8.69-48.197-22.36c-11.499 13.54-28.592 22.2-47.666 22.35v-30c18.054-.28 32.655-15.07 32.655-33.19 0-8.29 6.715-15 15.011-15 8.286 0 15.011 6.71 15.011 15 0 18.3 14.881 33.2 33.185 33.2 18.294 0 33.185-14.9 33.185-33.2 0-8.29 6.725-15 15.011-15s15.011 6.71 15.011 15c0 18.3 14.891 33.2 33.185 33.2 18.304 0 33.185-14.9 33.185-33.2 0-8.29 6.725-15 15.011-15 8.3 0 15.015 6.71 15.015 15z" fill="#5ecbf1"></path><path d="M496.989 0c-8.286 0-15.011 6.72-15.011 15v447.04c0 11-8.947 19.96-19.945 19.96H49.968c-10.998 0-19.945-8.96-19.945-19.96V15.49c0-8.28-6.725-15-15.011-15S0 7.21 0 15.49v446.55C0 489.59 22.417 512 49.968 512h412.064C489.583 512 512 489.59 512 462.04V15c0-8.28-6.715-15-15.011-15z" fill="#145481"></path><path d="M512 15v447.04c0 27.55-22.417 49.96-49.968 49.96H256.535v-30h205.497c10.998 0 19.945-8.96 19.945-19.96V15c0-8.28 6.725-15 15.011-15C505.285 0 512 6.72 512 15z" fill="#002659"></path><path d="M90.228 424.137h-17.56c-8.284 0-15 6.716-15 15s6.716 15 15 15h17.56c8.284 0 15-6.716 15-15s-6.716-15-15-15zM129.228 354.137h-17.56c-8.284 0-15 6.716-15 15s6.716 15 15 15h17.56c8.284 0 15-6.716 15-15s-6.716-15-15-15z" fill="#45f6ff"></path><g fill="#5ecbf1"><path d="M418.942 145.185h-17.56c-8.284 0-15 6.716-15 15s6.716 15 15 15h17.56c8.284 0 15-6.716 15-15s-6.716-15-15-15zM377.337 245.185h17.56c8.284 0 15-6.716 15-15s-6.716-15-15-15h-17.56c-8.284 0-15 6.716-15 15s6.715 15 15 15zM418.942 285.256h-17.56c-8.284 0-15 6.716-15 15s6.716 15 15 15h17.56c8.284 0 15-6.716 15-15s-6.716-15-15-15zM418.942 424.137h-17.56c-8.284 0-15 6.716-15 15s6.716 15 15 15h17.56c8.284 0 15-6.716 15-15s-6.716-15-15-15zM409.897 370.256c0-8.284-6.716-15-15-15h-17.56c-8.284 0-15 6.716-15 15s6.716 15 15 15h17.56c8.284 0 15-6.716 15-15z" fill="#5ecbf1"></path></g><path d="M72.668 315.066h17.56c8.284 0 15-6.716 15-15s-6.716-15-15-15h-17.56c-8.284 0-15 6.716-15 15s6.716 15 15 15zM129.228 214.256h-17.56c-8.284 0-15 6.716-15 15s6.716 15 15 15h17.56c8.284 0 15-6.716 15-15s-6.716-15-15-15zM72.668 175.185h17.56c8.284 0 15-6.716 15-15s-6.716-15-15-15h-17.56c-8.284 0-15 6.716-15 15s6.716 15 15 15z" fill="#45f6ff"></path><path d="M315.345 371.58c5.85 5.86 5.85 15.36-.01 21.21l-47.95 47.91a14.947 14.947 0 0 1-10.6 4.39c-.08 0-.17 0-.25-.01-3.76-.05-7.49-1.51-10.36-4.38l-47.94-47.91c-5.86-5.85-5.87-15.35-.01-21.21 5.85-5.86 15.35-5.86 21.21-.01l22.35 22.33V206.39l-22.35 22.33c-5.86 5.86-15.36 5.85-21.21-.01-5.86-5.86-5.85-15.35.01-21.21l47.94-47.91c2.87-2.87 6.6-4.33 10.36-4.38 3.92-.07 7.86 1.39 10.85 4.38l47.95 47.91c5.86 5.86 5.86 15.35.01 21.21-2.93 2.94-6.77 4.4-10.61 4.4s-7.68-1.46-10.61-4.39l-22.34-22.33V393.9l22.34-22.33c5.86-5.85 15.36-5.85 21.22.01z" fill="#ff8659"></path><path d="M315.345 371.58c5.85 5.86 5.85 15.36-.01 21.21l-47.95 47.91a14.947 14.947 0 0 1-10.6 4.39c-.08 0-.17 0-.25-.01V155.21c3.92-.07 7.86 1.39 10.85 4.38l47.95 47.91c5.86 5.86 5.86 15.35.01 21.21-2.93 2.94-6.77 4.4-10.61 4.4s-7.68-1.46-10.61-4.39l-22.34-22.33V393.9l22.34-22.33c5.86-5.85 15.36-5.85 21.22.01z" fill="#ff405c"></path></g></svg>