<svg viewBox="0 0 512 512" xmlns="http://www.w3.org/2000/svg"><g><path d="M405.68 180.66v-59.139a7.925 7.925 0 0 0-7.925-7.925H218.119a7.925 7.925 0 0 0-7.925 7.925v59.139z" fill="#dbedff"></path><path d="M262.899 113.596h-44.78a7.925 7.925 0 0 0-7.925 7.925v59.139h46.195v-56.129c-.001-4.702 2.639-8.815 6.51-10.935zM445.522 7.425c-4.065-7.081-13.101-9.524-20.178-5.46L364.47 36.91c-10.794 6.197-17.5 17.778-17.5 30.225v113.508h29.562V67.135a5.3 5.3 0 0 1 2.655-4.586l60.874-34.946c7.08-4.064 9.525-13.098 5.461-20.178z" fill="#b5dcff"></path><path d="M375.039 30.843 364.47 36.91c-10.794 6.197-17.5 17.778-17.5 30.225v113.508h15.195V57.864c0-10.551 4.831-20.467 12.874-27.021z" fill="#8bcaff"></path><path d="m220.764 476.78 1.53 29.785A28.847 28.847 0 0 0 239.181 512h137.513c16.009 0 28.987-12.978 28.987-28.987v-6.233z" fill="#ff9b00"></path><path d="m220.764 476.78 1.53 29.785A28.847 28.847 0 0 0 239.181 512h23.718c-3.87-2.119-6.511-6.233-6.511-10.935V476.78z" fill="#fc8900"></path><path d="M210.193 178.583v92.36c55.74 11.133 97.744 60.332 97.744 119.346 0 34.906-14.699 66.375-38.238 88.569H405.68V178.583z" fill="#ffb640"></path><path d="M405.68 178.583H210.193v92.359l10.677 207.916h184.81z" fill="#ffb640"></path><path d="M210.193 178.583v92.359l10.677 207.916h35.518V178.583z" fill="#ff9b00"></path><circle cx="186.225" cy="390.289" fill="#ffd086" r="121.711"></circle><path d="M131.475 390.288c0-55.607 37.292-102.503 88.231-117.046a121.785 121.785 0 0 0-33.481-4.665c-67.219 0-121.712 54.492-121.712 121.711 0 67.22 54.492 121.712 121.712 121.712 11.612 0 22.844-1.628 33.481-4.665-50.938-14.543-88.231-61.439-88.231-117.047z" fill="#ffc365"></path><circle cx="186.225" cy="390.289" fill="#ffc365" r="93.485"></circle><path d="M174.402 297.545c-46.048 5.812-81.662 45.118-81.662 92.744s35.614 86.932 81.662 92.744c-26.255-22.325-42.927-55.58-42.927-92.744s16.672-70.42 42.927-92.744z" fill="#ffb640"></path><path d="M186.226 289.077c-55.783 0-101.212 45.402-101.212 101.212 0 55.743 45.356 101.211 101.212 101.211 55.743 0 101.211-45.355 101.211-101.211 0-55.746-45.358-101.212-101.211-101.212zm-85.04 90.232c1.981-15.438 8.076-29.604 17.157-41.357a2.894 2.894 0 0 1 4.335-.285l41.026 41.026c1.428 1.428.417 3.869-1.603 3.869H104.05a2.89 2.89 0 0 1-2.864-3.253zm17.157 63.316c-9.081-11.753-15.176-25.919-17.157-41.357a2.89 2.89 0 0 1 2.865-3.253h58.051c2.019 0 3.03 2.441 1.603 3.869l-41.026 41.026a2.895 2.895 0 0 1-4.336-.285zm60.156 29.838a2.89 2.89 0 0 1-3.253 2.865c-15.438-1.981-29.604-8.076-41.357-17.157a2.894 2.894 0 0 1-.285-4.335l41.026-41.026c1.428-1.428 3.869-.417 3.869 1.602zm0-106.298c0 2.019-2.441 3.03-3.869 1.602l-41.026-41.026a2.894 2.894 0 0 1 .285-4.335c11.753-9.082 25.919-15.176 41.357-17.158a2.89 2.89 0 0 1 3.253 2.865zm75.609-28.212c9.081 11.753 15.176 25.919 17.157 41.357a2.89 2.89 0 0 1-2.865 3.253h-58.05c-2.019 0-3.03-2.441-1.603-3.869l41.026-41.026a2.893 2.893 0 0 1 4.335.285zm-60.156-29.839a2.89 2.89 0 0 1 3.253-2.865c15.438 1.981 29.603 8.076 41.357 17.157a2.894 2.894 0 0 1 .285 4.335l-41.026 41.026c-1.428 1.428-3.869.417-3.869-1.603zm44.609 150.057c-11.753 9.081-25.918 15.176-41.356 17.157a2.89 2.89 0 0 1-3.253-2.865v-58.05c0-2.019 2.441-3.03 3.869-1.602l41.026 41.025a2.893 2.893 0 0 1-.286 4.335zm32.704-56.903c-1.981 15.438-8.076 29.603-17.157 41.356a2.894 2.894 0 0 1-4.335.285l-41.026-41.026c-1.428-1.428-.417-3.869 1.603-3.869h58.05a2.89 2.89 0 0 1 2.865 3.254z" fill="#ffb640"></path><path d="M85.014 390.289c0 55.531 45.012 100.859 100.575 101.203a122.292 122.292 0 0 1-21.55-18.375 85.465 85.465 0 0 1-30.149-14.947 2.894 2.894 0 0 1-.285-4.335l10.171-10.171a120.933 120.933 0 0 1-6.287-15.566l-14.81 14.81a2.894 2.894 0 0 1-4.335-.285c-9.081-11.753-15.176-25.919-17.157-41.357a2.89 2.89 0 0 1 2.865-3.253h27.692c-.16-2.557-.268-5.129-.268-7.727s.108-5.169.268-7.726h-27.692a2.89 2.89 0 0 1-2.865-3.253c1.981-15.438 8.076-29.604 17.157-41.357a2.894 2.894 0 0 1 4.335-.285l14.81 14.81a120.933 120.933 0 0 1 6.287-15.566l-10.171-10.171a2.894 2.894 0 0 1 .285-4.335 85.47 85.47 0 0 1 30.15-14.947 122.334 122.334 0 0 1 21.55-18.375c-55.492.348-100.576 45.61-100.576 101.208z" fill="#ff9b00"></path></g></svg>