<svg viewBox="0 0 512 512" xmlns="http://www.w3.org/2000/svg"><g><path d="M202.699 34.113h106.602v266.781H202.699z" fill="#e5e3e5"></path><path d="m264.662 79.443 31.327 205.877h-79.978l31.327-205.877-14.391-27.951 9.299-17.379h27.508l9.299 17.379z" fill="#f96464"></path><path d="m127.868 249.696-22.973 214.946a11.069 11.069 0 0 1-11.476 9.883l-38.142-1.619c-6.271-.266-11.066-5.687-10.565-11.944L75.563 75.846c1.384-11.9 8.358-22.361 18.819-28.117z" fill="#5b5b5b"></path><path d="m260.704 300.893-5.535 81.473s-4.04 37.969-12.011 75.827c-5.756 27.066-16.771 47.434-32.379 52.194-17.741 5.365-54.126-4.416-69.776-9.962-8.9-3.154-14.675-11.729-14.207-21.16l2.976-59.92a1225.376 1225.376 0 0 0 .498-110.513l-2.403-59.138L93.33 49.5l.996-1.771c30.637-11.132 68.593-28.888 97.315-44.096 6.603-3.496 14.675.46 16.019 7.81l6.274 34.293z" fill="#6d6d6d"></path><path d="m155.744 112.859 27.416-33.415-16.79-10.517c-6.265-3.925-6.996-12.77-1.46-17.67l36.626-32.419c4.317 8.966 8.469 17.933 12.398 26.899l46.77 255.157-105.878-175.29a11.071 11.071 0 0 1 .918-12.745zM384.132 249.696l22.973 214.946a11.069 11.069 0 0 0 11.476 9.883l38.142-1.619c6.271-.266 11.066-5.687 10.565-11.944L436.437 75.846c-1.384-11.9-8.358-22.361-18.819-28.117z" fill="#5b5b5b"></path><path d="m251.296 300.893 5.535 81.473s4.04 37.969 12.011 75.827c5.756 27.066 16.771 47.434 32.379 52.194 17.741 5.365 54.126-4.416 69.776-9.962 8.9-3.154 14.675-11.729 14.207-21.16l-2.976-59.92a1225.376 1225.376 0 0 1-.498-110.513l2.403-59.138L418.67 49.5l-.996-1.771C387.037 36.596 349.08 18.84 320.358 3.633c-6.603-3.496-14.675.46-16.019 7.81l-6.274 34.293z" fill="#6d6d6d"></path><path d="m382.199 419.339 2.996 59.913c.49 9.423-5.283 18.028-14.216 21.188a121.465 121.465 0 0 1-6.263 2.07l-2.451-48.966a1462.097 1462.097 0 0 1-.599-133.825l2.887-71.624 35.73-207.083c5.937 2.397 11.765 4.684 17.375 6.7l1.035 1.797-34.586 200.165-2.397 59.151a1246.397 1246.397 0 0 0 .489 110.514z" fill="#000000" opacity=".08"></path><path d="m356.256 112.859-27.417-33.415 16.79-10.517c6.265-3.925 6.996-12.77 1.46-17.67l-36.626-32.419c-4.317 8.966-8.469 17.933-12.398 26.899l-46.77 255.157 105.878-175.29a11.07 11.07 0 0 0-.917-12.745z" fill="#5b5b5b"></path><path d="M309.545 5.282c-.272-4.918-6.297-7.031-9.622-3.397-4.002 4.375-9.263 9.592-15.404 14.433-12.144 9.567-25.834 16.272-28.518 17.553-2.686-1.281-16.376-7.986-28.523-17.553-6.139-4.841-11.399-10.058-15.401-14.433-3.325-3.635-9.349-1.523-9.622 3.396-.515 9.274-.627 22.27 1.228 35.58 1.602 11.514 5.32 26.148 8.167 36.432 1.442 5.207 8.248 6.434 11.442 2.076l32.709-44.624 32.705 44.624c3.194 4.358 10 3.131 11.442-2.076 2.848-10.284 6.567-24.919 8.171-36.433 1.852-13.308 1.74-26.304 1.226-35.578z" fill="#f2f0f0"></path><path d="M267.907 325.833A11.843 11.843 0 0 1 256 337.74c-6.523 0-11.907-5.281-11.907-11.907 0-6.523 5.384-11.907 11.907-11.907 6.626 0 11.907 5.384 11.907 11.907z" fill="#5b5b5b"></path><path d="M167.655 298.968v22.767a8.66 8.66 0 0 1-8.66 8.66 8.66 8.66 0 0 1-8.66-8.66v-22.767a8.66 8.66 0 0 1 8.66-8.66 8.66 8.66 0 0 1 8.66 8.66z" fill="#ffffff" opacity=".4"></path></g></svg>