<svg viewBox="0 0 64 64" xmlns="http://www.w3.org/2000/svg"><g><path d="M4 8h56v54H4z" fill="#f5f5f5"></path><path d="M56 62V8l-22 6v42z" fill="#94a4ad"></path><path d="M38 53.15 52 57V13l-14 3.85z" fill="#e0e0e0"></path><path d="M49 13.825 38 16.85V49h8a3 3 0 0 0 3-3z" fill="#f5f5f5"></path><path d="M56 8h4v54h-4zM4 8h4v54H4z" fill="#d1d8dc"></path><g fill="#b3bec4"><path d="M1 61h62v2H1zM2 2h60v6H2zM34 31h5v8h-5z" fill="#b3bec4"></path></g><path d="M2 2v4h52a2 2 0 0 0 2-2V2z" fill="#d1d8dc"></path><path d="M8 62V8l22 6v42z" fill="#94a4ad"></path><path d="M26 53.15 12 57V13l14 3.85z" fill="#e0e0e0"></path><path d="m15 13.825 11 3.025V49h-8a3 3 0 0 1-3-3z" fill="#f5f5f5"></path><path d="M25 31h5v8h-5z" fill="#b3bec4"></path></g></svg>