<svg viewBox="0 0 64 64" xmlns="http://www.w3.org/2000/svg"><g><g fill="#5a647d"><path d="M5 44.25A1.75 1.75 0 0 0 3.25 46v16h3.5V46A1.75 1.75 0 0 0 5 44.25zM32 44.25A1.75 1.75 0 0 0 30.25 46v16h3.5V46A1.75 1.75 0 0 0 32 44.25zM59 44.25A1.75 1.75 0 0 0 57.25 46v16h3.5V46A1.75 1.75 0 0 0 59 44.25z" fill="#5a647d"></path></g><path d="M18.5 53.75c-5.3 0-10.419-2.625-14.811-7.591a1.75 1.75 0 0 1 2.622-2.318c3.709 4.192 7.923 6.409 12.189 6.409s8.48-2.217 12.189-6.409a1.75 1.75 0 0 1 2.622 2.318C28.919 51.125 23.8 53.75 18.5 53.75z" fill="#fad446"></path><path d="M45.5 53.75c-5.3 0-10.419-2.625-14.811-7.591a1.75 1.75 0 1 1 2.622-2.318c3.709 4.192 7.923 6.409 12.189 6.409s8.48-2.217 12.189-6.409a1.75 1.75 0 0 1 2.622 2.318C55.919 51.125 50.8 53.75 45.5 53.75z" fill="#fad446"></path><circle cx="5" cy="45" fill="#ffe96e" r="4.75"></circle><path d="M8 63.75H2a1.75 1.75 0 0 1 0-3.5h6a1.75 1.75 0 0 1 0 3.5z" fill="#6e7d91"></path><circle cx="32" cy="45" fill="#ffe96e" r="4.75"></circle><path d="M35 63.75h-6a1.75 1.75 0 0 1 0-3.5h6a1.75 1.75 0 0 1 0 3.5z" fill="#6e7d91"></path><circle cx="59" cy="45" fill="#ffe96e" r="4.75"></circle><path d="M62 63.75h-6a1.75 1.75 0 0 1 0-3.5h6a1.75 1.75 0 0 1 0 3.5zM7 2h50v33H7z" fill="#6e7d91"></path><path d="M57 35v-6.916L49.4 17.95a1.749 1.749 0 0 0-2.8 0L33.813 35z" fill="#68dd8c"></path><circle cx="18.5" cy="11.5" fill="#ffe96e" r="4.25"></circle><path d="M16.928 21.989a1.75 1.75 0 0 0-2.856 0L7 31.972V35h19.145z" fill="#68dd8c"></path><path d="M28.581 15.975 14.841 35h30.318l-13.74-19.025a1.751 1.751 0 0 0-2.838 0z" fill="#8aecac"></path><path d="M57 36.75H7A1.75 1.75 0 0 1 5.25 35V2A1.75 1.75 0 0 1 7 .25h50A1.75 1.75 0 0 1 58.75 2v33A1.75 1.75 0 0 1 57 36.75zm-48.25-3.5h46.5V3.75H8.75z" fill="#f0aa78"></path></g></svg>