<svg viewBox="0 0 64 64" xmlns="http://www.w3.org/2000/svg"><g><g><path d="M37 41h6a12 12 0 0 1 12 12v9H9v-9a12 12 0 0 1 12-12h6" fill="#e2e7f6"></path><path d="m28 52-2 4 2.571 6h6.858L38 56l-2-4 7-3-6-8-1.586 1.586a4.828 4.828 0 0 1-6.828 0L27 41l-6 8z" fill="#78a0d4"></path><path d="M27 36.484V41l1.586 1.586A4.828 4.828 0 0 0 32 44a4.828 4.828 0 0 0 3.414-1.414L37 41v-4.516A8.953 8.953 0 0 1 32 38a8.953 8.953 0 0 1-5-1.516z" fill="#f2b9a1"></path><path d="M42 23V13a3 3 0 0 0-3-3H25a3 3 0 0 0-3 3v10h3a2 2 0 0 0 2-2v-3h6l1 1 3-1v3a2 2 0 0 0 2 2z" fill="#976947"></path><path d="M37 18v3a2 2 0 0 0 2 2h2v6a9 9 0 0 1-9 9 9 9 0 0 1-9-9v-6h2a2 2 0 0 0 2-2v-3h6l1 1z" fill="#fbe1ca"></path><path d="M23 28h-1.5a2.5 2.5 0 0 1-2.5-2.5 2.5 2.5 0 0 1 2.5-2.5H23M41 28h1.5a2.5 2.5 0 0 0 2.5-2.5 2.5 2.5 0 0 0-2.5-2.5H41M27.707 29.707l-1.414-1.414L27.586 27l-1.293-1.293 1.414-1.414 2 2a1 1 0 0 1 0 1.414zM36.293 29.707l-2-2a1 1 0 0 1 0-1.414l2-2 1.414 1.414L36.414 27l1.293 1.293zM35.293 34.707l-.586-.586a3.923 3.923 0 0 0-5.414 0l-.586.586-1.414-1.414.586-.586a5.828 5.828 0 0 1 8.242 0l.586.586z" fill="#f2b9a1"></path><g fill="#c13633"><path d="m46.707 15.707-1.414-1.414L49.586 10l-2.293-2.293a1 1 0 0 1 0-1.414l5-5 1.414 1.414L49.414 7l2.293 2.293a1 1 0 0 1 0 1.414zM60.293 34.707 56 30.414l-2.293 2.293a1 1 0 0 1-1.414 0l-5-5 1.414-1.414L53 30.586l2.293-2.293a1 1 0 0 1 1.414 0l5 5zM3.707 34.707l-1.414-1.414 5-5a1 1 0 0 1 1.414 0L11 30.586l4.293-4.293 1.414 1.414-5 5a1 1 0 0 1-1.414 0L8 30.414zM17.293 15.707l-5-5a1 1 0 0 1 0-1.414L14.586 7l-4.293-4.293 1.414-1.414 5 5a1 1 0 0 1 0 1.414L14.414 10l4.293 4.293zM60 24h-7a1 1 0 0 1-1-1v-3h-6v-2h7a1 1 0 0 1 1 1v3h6zM11 24H4v-2h6v-3a1 1 0 0 1 1-1h7v2h-6v3a1 1 0 0 1-1 1z" fill="#c13633"></path></g></g></g></svg>