<svg viewBox="0 0 60 60" xmlns="http://www.w3.org/2000/svg"><g><path d="M51.08 34.62h-2.53c0 1.35.46 2.24.91 2.79.5.6.43 1.5-.18 1.96-.35.26-1.17.53-1.96.62.14-.01.45-.03.59-.03.89.05 1.04 1.08.53 1.65-.41.44-.77 1.06-.77 1.86v2.51c0 1.06-.41 2.09-1.21 2.78-3.31 2.88-8.7-1.74-8.7-1.74C37.57 47.49 37 49 37 52v4.7a2.3 2.3 0 0 1-2.3 2.3H14.19c-1.36 0-2.42-1.17-2.29-2.53l1.93-19.4A17.604 17.604 0 0 1 7 23.12C7 10.9 14.85 1 29 1c10.1 0 18.67 7.28 20.26 16.93.14.83.09 1.68-.17 2.48-.18.56-.36 1.41-.45 2.69-.08 1.1.18 2.28.68 3.15l3.39 5.44c.79 1.28-.13 2.93-1.63 2.93z" fill="#e9c7b0"></path><path d="M20 59s1.02-8.65 3.05-17.6c1.18-5.2 6.93-7.91 11.73-5.58C39.11 37.93 43.47 40 47 40c.11 0 .21 0 .32-.01-3.31.34-6.27 3.35-13.29 1.31-.02-.01-.05-.02-.07-.03-3.06-1-6.33.84-6.96 3.99-.58 2.87-.38 7.63 0 13.74" fill="#c96361"></path></g></svg>