<svg viewBox="0 0 512 512" xmlns="http://www.w3.org/2000/svg"><g><path d="M452.796 67.683v285.432L442.04 363.87h-77.604c-5.645 0-10.199 4.574-10.199 10.209v77.593l-10.765 10.765H79.777c-5.635 0-10.209-4.574-10.209-10.199V67.683c0-5.625 4.574-10.199 10.209-10.199h362.809c5.636 0 10.21 4.574 10.21 10.199z" fill="#d9ecfd"></path><path d="M141.278 352.599a7.725 7.725 0 0 0 7.726 7.726h15.107a7.725 7.725 0 0 0 7.726-7.726c0-4.209-3.366-7.625-7.553-7.718V143.689c4.187-.093 7.553-3.508 7.553-7.718a7.725 7.725 0 0 0-7.726-7.726h-15.107a7.725 7.725 0 0 0-7.726 7.726c0 4.209 3.366 7.625 7.553 7.718v201.192c-4.187.093-7.553 3.508-7.553 7.718zM227.238 386.655H114.503a7.726 7.726 0 1 0 0 15.452h112.735c4.268 0 7.726-3.459 7.726-7.726s-3.458-7.726-7.726-7.726zM227.238 413.888H114.503a7.726 7.726 0 1 0 0 15.452h112.735c4.268 0 7.726-3.459 7.726-7.726s-3.458-7.726-7.726-7.726z" fill="#b5dbfd"></path><path d="M336.354 139.024H214.203a7.725 7.725 0 0 0-7.726 7.726v171.966a7.725 7.725 0 0 0 7.726 7.726h78.89a7.726 7.726 0 1 0 0-15.452H221.93V154.477h37.321v35.202a7.725 7.725 0 0 0 7.726 7.726c25.736 0 47.035-18.334 51.406-42.929h17.971c4.268 0 7.726-3.459 7.726-7.726s-3.458-7.726-7.726-7.726zm-61.651 42.127v-26.674h27.879a36.592 36.592 0 0 1-27.879 26.674z" fill="#f8f6f6"></path><path d="M361.068 57.484v59.081a5.104 5.104 0 0 1-5.099 5.099H106.572v250.87a5.104 5.104 0 0 1-5.099 5.099H69.568V67.683c0-5.625 4.574-10.199 10.209-10.199zM452.796 172.628v64.973L360.1 330.297a47.33 47.33 0 0 1-24.879 13.073l-26.692 4.914c-6.088 1.113-11.404-4.203-10.281-10.281l4.914-26.692a47.22 47.22 0 0 1 13.073-24.879l125.177-125.188zM313.546 462.438l40.692-40.692v29.927l-10.765 10.765z" fill="#b5dbfd"></path><path d="M452.796 67.683v285.432L442.04 363.87h-29.927l10.755-10.755V67.683c0-5.625-4.564-10.199-10.199-10.199h29.927c5.626 0 10.2 4.574 10.2 10.199z" fill="#b5dbfd"></path><path d="M452.794 353.12 343.479 462.435V363.32c0-5.631 4.56-10.2 10.2-10.2z" fill="#8dcafc"></path><path d="M452.794 353.12 343.479 462.435v-29.927l79.388-79.388z" fill="#64b9fc"></path><path d="M355.966 95.393H67.341v-78.46h288.626c2.815 0 5.1 2.285 5.1 5.1v68.26c0 2.815-2.285 5.1-5.101 5.1z" fill="#fbcc85"></path><path d="M361.068 22.036v68.26a5.104 5.104 0 0 1-5.099 5.099H67.343V16.936h288.626a5.098 5.098 0 0 1 5.099 5.1z" fill="#fbcc85"></path><path d="M361.065 22.03v68.26c0 2.815-2.285 5.1-5.1 5.1h-27.204c2.815 0 5.1-2.285 5.1-5.1V22.03c0-2.815-2.285-5.1-5.1-5.1h27.204c2.815 0 5.1 2.285 5.1 5.1z" fill="#e8b66b"></path><path d="M40.135 16.93h27.204v78.46H40.135z" fill="#fbcc85"></path><path d="M133.061 95.393h-65.72v-78.46h65.72c6.885 11.475 10.843 24.899 10.843 39.23a76.073 76.073 0 0 1-10.843 39.23z" fill="#e8b66b"></path><path d="M106.572 57.628v288.626a5.097 5.097 0 0 1-5.099 5.099h-68.26a5.098 5.098 0 0 1-5.099-5.099V57.628z" fill="#fbcc85"></path><path d="M67.341 132.736c-14.331 0-27.755-3.958-39.23-10.843V57.631h78.46v64.261c-11.475 6.886-24.899 10.844-39.23 10.844z" fill="#e8b66b"></path><circle cx="67.341" cy="56.165" fill="#64b9fc" r="56.165"></circle><circle cx="67.341" cy="56.165" fill="#1785f8" r="17.565"></circle><path d="M123.503 56.166c0 31.019-25.144 56.163-56.163 56.163a55.882 55.882 0 0 1-14.872-1.999c23.807-6.508 41.291-28.295 41.291-54.163S76.276 8.511 52.469 2.003A55.841 55.841 0 0 1 67.341.004c31.018 0 56.162 25.144 56.162 56.162z" fill="#31a7fb"></path><path d="m457.362 201.607 40.876-40.876a8.828 8.828 0 0 0 0-12.484l-31.385-31.385a8.828 8.828 0 0 0-12.484 0l-40.876 40.876z" fill="#fc9aa1"></path><path d="m498.24 160.728-40.878 40.878-16.029-16.029 40.878-40.878a8.83 8.83 0 0 0 0-12.484l16.029 16.029c3.445 3.446 3.445 9.038 0 12.484z" fill="#fb8189"></path><path d="M474.975 183.99 349.798 309.178a47.323 47.323 0 0 1-24.879 13.063l-13.743 2.534-20.851-20.851 2.534-13.743a47.26 47.26 0 0 1 13.073-24.879L431.11 140.125z" fill="#fbcc85"></path><path d="M474.975 183.99 349.798 309.178a47.282 47.282 0 0 1-24.879 13.063l-13.743 2.534-16.03-16.03 13.743-2.534a47.282 47.282 0 0 0 24.879-13.063L458.945 167.96z" fill="#e8b66b"></path><path d="m292.857 290.184-4.915 26.695c-1.12 6.081 4.199 11.399 10.28 10.28l26.695-4.915z" fill="#838383"></path><path d="m324.914 322.243-26.69 4.919c-6.086 1.117-11.404-4.201-10.28-10.28l1.292-7.047 19.65-3.62z" fill="#5a5a5a"></path><path d="m274.91 425.033-48.084 48.084-56.095-56.095c-7.341-7.341-7.341-19.243 0-26.584l21.501-21.501c7.341-7.341 19.243-7.341 26.584 0z" fill="#f8f6f6"></path><path d="m218.817 368.936 56.093 56.093-17.988 17.988-56.093-56.093c-7.342-7.342-19.243-7.342-26.586 0l17.988-17.988c7.343-7.343 19.244-7.343 26.586 0z" fill="#e2e2e2"></path><path d="m310.805 465.737-43.276 43.276c-3.983 3.983-10.442 3.983-14.425 0l-62.174-62.174c-3.983-3.983-3.983-10.442 0-14.425l43.276-43.276c3.983-3.983 10.442-3.983 14.425 0l62.174 62.174c3.984 3.983 3.984 10.441 0 14.425z" fill="#fb6672"></path><path d="m248.627 389.138 62.173 62.173a10.19 10.19 0 0 1 0 14.425l-17.981 17.981c3.981-3.981 3.989-10.437 0-14.425l-62.173-62.173c-3.981-3.981-10.444-3.981-14.425 0l17.981-17.981a10.198 10.198 0 0 1 14.425 0z" fill="#fb4a59"></path><g fill="#e8b66b"><path d="M336.158 16.936v16.452a7.73 7.73 0 0 1-7.726 7.726 7.722 7.722 0 0 1-7.726-7.726V16.936zM303.512 16.936v16.452c0 4.265-3.461 7.726-7.726 7.726s-7.726-3.461-7.726-7.726V16.936zM270.876 16.936v16.452a7.729 7.729 0 0 1-7.726 7.726 7.722 7.722 0 0 1-7.726-7.726V16.936zM238.229 16.936v16.452a7.722 7.722 0 0 1-7.726 7.726 7.729 7.729 0 0 1-7.726-7.726V16.936zM205.593 16.936v16.452a7.73 7.73 0 0 1-7.726 7.726 7.729 7.729 0 0 1-7.726-7.726V16.936zM172.947 16.936v16.452a7.722 7.722 0 0 1-7.726 7.726 7.729 7.729 0 0 1-7.726-7.726V16.936zM52.282 318.717a7.722 7.722 0 0 1-7.726 7.726H28.114V310.99h16.442a7.724 7.724 0 0 1 7.726 7.727zM52.282 286.071a7.716 7.716 0 0 1-7.726 7.726H28.114v-15.453h16.442a7.724 7.724 0 0 1 7.726 7.727zM52.282 253.435a7.722 7.722 0 0 1-7.726 7.726H28.114v-15.453h16.442a7.723 7.723 0 0 1 7.726 7.727zM52.282 220.799a7.722 7.722 0 0 1-7.726 7.726H28.114v-15.453h16.442a7.716 7.716 0 0 1 7.726 7.727zM52.282 188.152a7.722 7.722 0 0 1-7.726 7.726H28.114v-15.453h16.442a7.724 7.724 0 0 1 7.726 7.727zM52.282 155.516a7.722 7.722 0 0 1-7.726 7.726H28.114V147.79h16.442a7.716 7.716 0 0 1 7.726 7.726z" fill="#e8b66b"></path></g></g></svg>