<svg id="Layer_1" enable-background="new 0 0 512 512" viewBox="0 0 512 512" xmlns="http://www.w3.org/2000/svg"><g><g><g><path clip-rule="evenodd" d="m58.511 355.397 92.577-53.636c17.374-10.066 35.042-17.204 54.139-11.008 21.292 6.904 56.06 21.731 91.517 28.126 13.161 4.267 21.366 17.446 17.785 30.808-3.581 13.364-14.873 20.255-30.807 17.79l12.395 1.984c14.203 2.272 27.247.327 39.678-6.912l89.008-51.842c69.188-40.296 79.351 21.697 56.346 35.86l-161.528 99.462c-14.856 9.146-31.112 11.28-47.964 6.763l-117.161-31.393-43.389 25.051c-8.342 4.816-19.075 1.941-23.891-6.401l-35.086-60.771c-4.81-8.337-1.946-19.057 6.381-23.881z" fill="#f6dccd" fill-rule="evenodd"/></g><g><path clip-rule="evenodd" d="m312.418 355.23c-4.947 9.669-15.142 14.343-28.696 12.247-19.191-5.075-38.361-10.278-57.537-15.416-5.136-1.376-8.184-6.656-6.808-11.792s6.655-8.184 11.791-6.808z" fill="#f1cbbc" fill-rule="evenodd"/></g><g><path clip-rule="evenodd" d="m58.511 355.397 92.577-53.636c17.374-10.066 35.042-17.204 54.139-11.008 11.391 3.694 26.641 9.655 43.789 15.38l-179.336 103.539-17.549-30.396c-4.812-8.335-1.947-19.054 6.38-23.879z" fill="#f1cbbc" fill-rule="evenodd"/></g><g><path clip-rule="evenodd" d="m69.261 328.717 73.421 129.73c3.55 6.273 1.322 14.31-4.951 17.86l-24.974 14.134c-6.273 3.55-14.31 1.322-17.86-4.95l-73.421-129.73c-3.55-6.273-1.322-14.31 4.95-17.86l24.973-14.134c6.275-3.55 14.312-1.322 17.862 4.95z" fill="#d1d1d6" fill-rule="evenodd"/></g><g><path clip-rule="evenodd" d="m107.877 417.85 12.995 22.962 12.851 22.706c3.543 6.26 1.331 14.277-4.912 17.838l8.921-5.049c6.272-3.55 8.5-11.587 4.95-17.86l-12.894-22.783-25.891-45.747-25.92-45.798-8.716-15.401c-3.075-5.434-9.518-7.831-15.264-6.068l15.091 26.665 25.891 45.747 12.894 22.783z" fill="#b1b1b5" fill-rule="evenodd"/></g><g><path clip-rule="evenodd" d="m50.958 345.571c-4.873.712-8.245 5.24-7.533 10.112s5.24 8.245 10.113 7.533c4.872-.712 8.245-5.24 7.533-10.112-.713-4.873-5.24-8.246-10.113-7.533z" fill="#685e68" fill-rule="evenodd"/></g></g><g><g><g><g><path clip-rule="evenodd" d="m374.783 54.472c11.415 2.716 22.317 7.242 32.308 13.394l20.993-9.324 24.744 24.742-9.321 20.987c6.154 9.993 10.679 20.899 13.396 32.316l21.419 8.245v34.991l-21.424 8.247c-2.716 11.414-7.242 22.317-13.394 32.307l9.324 20.993-24.742 24.744-20.987-9.321c-9.993 6.154-20.899 10.679-32.316 13.396l-8.244 21.419h-34.992l-8.247-21.424c-11.415-2.716-22.317-7.242-32.308-13.394l-20.993 9.324-24.744-24.743 9.321-20.987c-6.154-9.993-10.679-20.9-13.396-32.317l-21.419-8.244v-34.991l21.422-8.246c2.716-11.415 7.242-22.319 13.395-32.31l-9.323-20.991 24.743-24.744 20.994 9.325c9.991-6.152 20.893-10.678 32.308-13.394l8.247-21.424h34.991z" fill="#a79ba7" fill-rule="evenodd"/></g><g><path clip-rule="evenodd" d="m290.992 256.791-20.993 9.324-3.249-3.249 19.675-8.738c1.502.924 3.025 1.812 4.567 2.663zm83.791-202.319c11.26 2.68 22.022 7.12 31.902 13.146.131.088.266.172.405.248l-5.997 2.664c-9.991-6.152-25.46-13.341-36.875-16.058l-8.246-21.424h10.565zm-108.034 7.319 3.249-3.249 20.994 9.325c-1.542.851-3.065 1.738-4.568 2.664zm154.02.001 7.316-3.249 24.744 24.742-9.321 20.987c6.154 9.993 10.679 20.899 13.396 32.316l21.419 8.245v34.991l-21.424 8.247c-2.716 11.414-7.242 22.317-13.394 32.307l9.324 20.993-24.742 24.744-7.316-3.249 21.493-21.494-9.324-20.993c6.152-9.991 10.678-20.893 13.394-32.307l21.423-8.247v-34.991l-21.418-8.245c-2.717-11.417-7.242-22.323-13.396-32.316l9.321-20.987zm-14.079 195.252c-9.881 6.026-20.646 10.466-31.908 13.146l-8.244 21.419h-10.565l8.244-21.419c11.417-2.717 26.89-9.906 36.883-16.06l5.998 2.664c-.138.076-.275.16-.408.25z" fill="#837683" fill-rule="evenodd"/></g></g><g><g><circle clip-rule="evenodd" cx="349.041" cy="162.328" fill="#eceff1" fill-rule="evenodd" r="75.163"/></g><g><path clip-rule="evenodd" d="m349.041 87.166c1.776 0 3.537.066 5.283.187-39.045 2.711-69.88 35.241-69.88 74.975s30.835 72.264 69.88 74.975c-1.746.121-3.506.187-5.283.187-41.511 0-75.163-33.653-75.163-75.163.001-41.509 33.653-75.161 75.163-75.161z" fill="#d1d1d6" fill-rule="evenodd"/></g></g></g><g><path clip-rule="evenodd" d="m308.961 152.761c4.711-4.711 12.42-4.712 17.131 0l12.274 12.274 33.209-33.209c4.711-4.711 12.42-4.711 17.131 0 4.711 4.711 4.711 12.42 0 17.131l-41.538 41.538c-6.006 6.006-14.04 3.565-19.366-1.761l-18.842-18.841c-4.71-4.712-4.71-12.421.001-17.132z" fill="#8ac9fe" fill-rule="evenodd"/></g></g><g><g><path clip-rule="evenodd" d="m145.738 160.162 10.993 28.954c.331.87 1.1 1.429 2.03 1.475l30.934 1.508c2.104.102 2.965 2.753 1.323 4.072l-24.14 19.403c-.725.583-1.019 1.487-.775 2.386l8.125 29.885c.553 2.033-1.701 3.671-3.464 2.517l-25.913-16.962c-.779-.51-1.729-.51-2.508 0l-25.912 16.962c-1.762 1.154-4.017-.484-3.464-2.517l8.125-29.886c.244-.898-.05-1.803-.775-2.386l-24.14-19.402c-1.642-1.319-.78-3.97 1.323-4.072l30.934-1.508c.93-.045 1.699-.604 2.03-1.475l10.993-28.954c.743-1.957 3.538-1.957 4.281 0z" fill="#ffe177" fill-rule="evenodd"/></g><g><path clip-rule="evenodd" d="m179.917 191.622 9.778.477c2.104.102 2.965 2.753 1.323 4.072l-24.14 19.403c-.726.583-1.019 1.487-.775 2.385l8.125 29.886c.553 2.032-1.701 3.67-3.464 2.517l-6.705-4.389-7.746-28.49c-.244-.898.05-1.802.775-2.385l24.14-19.402c1.638-1.32.783-3.962-1.311-4.074zm-34.179-31.46 10.993 28.954c.328.863 1.087 1.42 2.007 1.473l-9.768-.476c-.93-.045-1.699-.604-2.03-1.474l-8.148-21.461 2.664-7.016c.744-1.957 3.539-1.957 4.282 0zm-.887 73.237c-.779-.51-1.73-.51-2.508 0l-25.912 16.962c-1.763 1.154-4.017-.484-3.464-2.517l.695-2.557 23.421-15.332c.779-.51 1.73-.509 2.508 0z" fill="#ffd064" fill-rule="evenodd"/></g></g><g><g><path clip-rule="evenodd" d="m145.738 21.337 10.993 28.954c.331.87 1.1 1.429 2.03 1.475l30.934 1.508c2.104.102 2.965 2.753 1.323 4.072l-24.14 19.403c-.725.583-1.019 1.487-.775 2.386l8.125 29.885c.553 2.033-1.701 3.671-3.464 2.517l-25.913-16.963c-.779-.51-1.729-.51-2.508 0l-25.912 16.963c-1.762 1.154-4.017-.484-3.464-2.517l8.125-29.886c.244-.898-.05-1.803-.775-2.386l-24.14-19.402c-1.642-1.319-.78-3.97 1.323-4.072l30.934-1.508c.93-.045 1.699-.604 2.03-1.475l10.993-28.954c.742-1.957 3.538-1.957 4.281 0z" fill="#ffe177" fill-rule="evenodd"/></g><g><path clip-rule="evenodd" d="m179.917 52.797 9.778.476c2.104.102 2.965 2.753 1.323 4.072l-24.14 19.403c-.726.583-1.019 1.487-.775 2.385l8.125 29.886c.553 2.033-1.701 3.67-3.464 2.517l-6.705-4.389-7.746-28.49c-.244-.898.05-1.802.775-2.385l24.14-19.403c1.638-1.317.783-3.959-1.311-4.072zm-34.179-31.46 10.993 28.954c.328.864 1.087 1.42 2.008 1.473l-9.768-.476c-.93-.045-1.699-.604-2.03-1.474l-8.148-21.461 2.664-7.016c.742-1.957 3.538-1.957 4.281 0zm-.887 73.237c-.779-.51-1.73-.51-2.508 0l-25.912 16.963c-1.763 1.154-4.017-.484-3.464-2.517l.695-2.557 23.421-15.332c.779-.51 1.73-.509 2.508 0z" fill="#ffd064" fill-rule="evenodd"/></g></g></g></svg>