<svg viewBox="0 0 512 512" xmlns="http://www.w3.org/2000/svg"><g><path d="M406.012 50.332H105.988c-15.871 0-28.737 12.866-28.737 28.737v176.639c0 15.871 12.866 28.737 28.737 28.737h300.025c15.871 0 28.737-12.866 28.737-28.737V79.069c-.001-15.871-12.867-28.737-28.738-28.737z" fill="#ebebeb"></path><path d="M466.682 128.043v200.638c0 18.708-15.164 33.872-33.872 33.872H79.19c-18.708 0-33.872-15.164-33.872-33.872V128.043c0-18.708 15.164-33.872 33.872-33.872h353.62c18.708 0 33.872 15.164 33.872 33.872z" fill="#f9f7f8"></path><path d="M466.682 196.066v132.615c0 18.708-15.164 33.872-33.872 33.872H79.19c-18.708 0-33.872-15.164-33.872-33.872V196.066h79.994c11.311 0 21.181 7.675 23.952 18.646l5.645 22.314c2.771 10.961 12.64 18.646 23.952 18.646h154.28c11.311 0 21.181-7.685 23.952-18.646l5.645-22.314c2.771-10.972 12.64-18.646 23.952-18.646z" fill="#ebebeb"></path><path d="M512 264.13v158.246c0 21.7-17.591 39.291-39.291 39.291H39.291C17.591 461.668 0 444.076 0 422.376V264.13c0-21.7 17.591-39.291 39.291-39.291h86.021c11.31 0 21.176 7.68 23.95 18.645l5.647 22.317a24.704 24.704 0 0 0 23.95 18.645h154.282c11.31 0 21.176-7.68 23.95-18.645l5.647-22.317a24.704 24.704 0 0 1 23.95-18.645h86.021c21.7 0 39.291 17.591 39.291 39.291z" fill="#fe9738"></path><g fill="#fe7d43"><path d="m396.145 265.801 5.647-22.317a24.704 24.704 0 0 1 23.95-18.645h-39.054a24.704 24.704 0 0 0-23.95 18.645l-5.647 22.317a24.704 24.704 0 0 1-23.95 18.645h39.054a24.707 24.707 0 0 0 23.95-18.645zM39.054 422.376V264.13c0-21.7 17.591-39.291 39.291-39.291H39.291C17.591 224.839 0 242.43 0 264.13v158.246c0 21.7 17.591 39.291 39.291 39.291h39.054c-21.7.001-39.291-17.59-39.291-39.291z" fill="#fe7d43"></path></g><g fill="#7a6d79"><path d="M328.714 156.513H98.502a7.726 7.726 0 1 1 0-15.452h230.212a7.726 7.726 0 1 1 0 15.452zM234.163 194.539H98.502a7.726 7.726 0 1 1 0-15.452h135.661a7.726 7.726 0 1 1 0 15.452zM429.988 178.958l-20.329-53.87a8.934 8.934 0 0 0-8.374-5.765h-.012a8.932 8.932 0 0 0-8.355 5.746l-20.516 53.867a7.725 7.725 0 0 0 7.219 10.478 7.73 7.73 0 0 0 7.222-4.978l3.214-8.439h22.297l3.176 8.417a7.727 7.727 0 0 0 14.458-5.456zm-34.046-18.414 5.314-13.953 5.266 13.953z" fill="#7a6d79"></path></g><g fill="#f9f7f8"><path d="M72.5 336.971c-.027-.07-.054-.14-.083-.21a9.555 9.555 0 0 0-8.87-5.944h-.01a9.558 9.558 0 0 0-8.868 5.962c-.024.057-.046.115-.068.173l-30.885 81.093a7.726 7.726 0 0 0 14.44 5.5l5.797-15.22H82.91l5.736 15.198a7.728 7.728 0 0 0 9.956 4.501 7.727 7.727 0 0 0 4.501-9.957zm-22.661 55.901 13.683-35.925 13.558 35.925zM213.131 413.068h-26.614v-25.297H210.6a7.726 7.726 0 1 0 0-15.452h-24.082v-25.298h26.614a7.726 7.726 0 1 0 0-15.452h-34.341a7.726 7.726 0 0 0-7.726 7.726v81.501a7.726 7.726 0 0 0 7.726 7.726h34.341c4.267 0 7.726-3.459 7.726-7.726s-3.46-7.728-7.727-7.728zM150.44 372.318h-34.943a7.726 7.726 0 1 0 0 15.452h34.943a7.726 7.726 0 1 0 0-15.452z" fill="#f9f7f8"></path></g></g></svg>