<svg viewBox="0 0 60 60" xmlns="http://www.w3.org/2000/svg"><g><path d="M22.93 39.56a1.22 1.22 0 0 1-.09 1.61L10.37 53.64a1.214 1.214 0 0 1-1.74-.02 29.029 29.029 0 0 1 .86-40.13L12 14l11 11 .64 2.64a8.978 8.978 0 0 0-.71 11.92z" fill="#e02b4e"></path><path d="M50.51 13.49 51 15 38 28l-1.8-.2-1.41-1.41a8.967 8.967 0 0 0-11.15 1.25L9.49 13.49a29.019 29.019 0 0 1 41.02 0z" fill="#f7cb14"></path><path d="M59 34a28.9 28.9 0 0 1-7.63 19.62 1.214 1.214 0 0 1-1.74.02L37.16 41.17a1.22 1.22 0 0 1-.09-1.61 8.962 8.962 0 0 0 .54-10.35L36.2 27.8l14.31-14.31A28.907 28.907 0 0 1 59 34z" fill="#39c463"></path><circle cx="30" cy="15" fill="#e8b615" r="6"></circle><circle cx="11" cy="34" fill="#ba2550" r="6"></circle><circle cx="49" cy="34" fill="#2ea04c" r="6"></circle><path d="m30.09 31.09 11-11a1.994 1.994 0 0 1 2.82 2.82l-11 11z" fill="#e2e2ed"></path><circle cx="30" cy="34" fill="#1e1e4c" r="4"></circle><g fill="#c18123"><path d="M31 18h-2a1 1 0 0 1 0-2h2a1 1 0 0 1 0 2zM28 14.172a1 1 0 0 1-1-1V13a1 1 0 0 1 2 0v.172a1 1 0 0 1-1 1zM32 14.172a1 1 0 0 1-1-1V13a1 1 0 0 1 2 0v.172a1 1 0 0 1-1 1z" fill="#c18123"></path></g><path d="M11.013 37.381a2.6 2.6 0 0 1-1.689-.644 1 1 0 0 1 1.336-1.488.53.53 0 0 0 .719-.033 1 1 0 1 1 1.242 1.568 2.552 2.552 0 0 1-1.608.597zM9 33.172a1 1 0 0 1-1-1V32a1 1 0 0 1 2 0v.172a1 1 0 0 1-1 1zM13 33.172a1 1 0 0 1-1-1V32a1 1 0 0 1 2 0v.172a1 1 0 0 1-1 1z" fill="#822942"></path><path d="M48 37a1 1 0 0 1-.622-1.784 2.51 2.51 0 0 1 3.3.047 1 1 0 0 1-1.336 1.488.53.53 0 0 0-.719.033A.994.994 0 0 1 48 37zM47 33.172a1 1 0 0 1-1-1V32a1 1 0 0 1 2 0v.172a1 1 0 0 1-1 1zM51 33.172a1 1 0 0 1-1-1V32a1 1 0 0 1 2 0v.172a1 1 0 0 1-1 1z" fill="#257c3a"></path></g></svg>