<svg viewBox="0 0 512 512" xmlns="http://www.w3.org/2000/svg"><g><path d="M244.139 46.663A94.735 94.735 0 0 1 256 45.901a95.1 95.1 0 0 1 9.023.433l-21.78-21.78a7.5 7.5 0 0 0-10.607 10.606z" fill="#554e56"></path><path d="m76.915 209.487 49.153-41.442a4.108 4.108 0 0 1 5.59.291l1.768 1.814v-67.686c0-7.17 5.834-13.004 13.004-13.004.207 0 .408.021.612.031l-28.658-49.638a5.15 5.15 0 0 0-7.036-1.885L15.714 93.181a5.15 5.15 0 0 0-1.885 7.036z" fill="#efedef"></path><path d="m97.519 51.506 34.876 60.408v-9.45c0-7.75 6.283-14.033 14.033-14.033l-28.046-48.577a5.15 5.15 0 0 0-7.036-1.885L92.211 49.016c2.058-.344 4.203.576 5.308 2.49z" fill="#e5e1e5"></path><path d="m378.573 170.148 1.768-1.813a4.112 4.112 0 0 1 2.964-1.252c.959 0 1.891.342 2.627.961l73.861 62.274 7.809 2.092a5.152 5.152 0 0 0 6.309-3.642l34.325-128.102a5.152 5.152 0 0 0-3.642-6.309l-106.666-28.58a5.152 5.152 0 0 0-6.309 3.642l-13.046 48.687z" fill="#efedef"></path><path d="m448.4 219.366 13.735 11.58 5.467 1.465a5.152 5.152 0 0 0 6.309-3.642l34.325-128.102a5.152 5.152 0 0 0-3.642-6.309l-22.681-6.077a5.128 5.128 0 0 1 .552 3.96z" fill="#e5e1e5"></path><path d="M469.23 126.847a7.516 7.516 0 0 1-1.946-.257l-53.163-14.245a7.5 7.5 0 0 1 3.883-14.489l53.163 14.245a7.5 7.5 0 0 1-1.937 14.746zM462.645 151.428a7.516 7.516 0 0 1-1.946-.257l-53.163-14.245a7.5 7.5 0 0 1 3.883-14.489l53.163 14.245a7.5 7.5 0 0 1-1.937 14.746zM456.058 176.009a7.516 7.516 0 0 1-1.946-.257l-53.163-14.245a7.5 7.5 0 0 1 3.883-14.489l53.163 14.245a7.5 7.5 0 0 1-1.937 14.746zM451.408 185.843l-47.25-12.661a7.503 7.503 0 0 0-8.286 3.243l17.501 14.756 34.152 9.151a7.501 7.501 0 0 0 9.185-5.304 7.498 7.498 0 0 0-5.302-9.185z" fill="#b5adb6"></path><path d="M160.463 102.463c0-7.75-6.283-14.033-14.033-14.033s-14.033 6.283-14.033 14.033v66.694l20.944 24.84-.31-5.137c0-7.175 2.833-13.696 7.432-18.518zM365.571 88.43c-7.75 0-14.033 6.283-14.033 14.033v67.878c4.599 4.822 7.432 11.344 7.432 18.518l-.31 5.137 20.944-24.84v-66.694c0-7.749-6.283-14.032-14.033-14.032z" fill="#ffcebf"></path><path d="m498.579 261.673-111.984-94.417a5.15 5.15 0 0 0-7.258.618l-20.596 24.427a26.746 26.746 0 0 1-6.026 13.764l83.565 70.456H333.843c-8.956 8.096-20.819 13.035-33.814 13.035H280.53c-.999 12.664-11.615 22.664-24.53 22.664s-23.531-10.001-24.529-22.664h-19.499c-12.996 0-24.858-4.939-33.814-13.035h-60.743a9.187 9.187 0 0 1-2.594 5.117l-19.668 19.668c-1.752 1.751-4.079 2.715-6.556 2.715s-4.805-.964-6.556-2.715l-19.668-19.668c-1.752-1.751-2.715-4.079-2.715-6.556s.964-4.805 2.715-6.556l19.668-19.668c1.752-1.751 4.079-2.715 6.556-2.715s4.805.964 6.556 2.715l6.12 6.12 58.013-48.913a26.755 26.755 0 0 1-6.027-13.764l-20.596-24.427a5.151 5.151 0 0 0-7.258-.618L13.42 261.673c-12.419 10.47-16.709 27.199-10.8 42.408 5.669 14.59 20.03 23.949 35.682 23.949h99.226a5.15 5.15 0 0 1 5.151 5.151v116.516h226.64V333.182a5.15 5.15 0 0 1 5.151-5.151h99.226c15.652 0 30.013-9.36 35.682-23.949 5.911-15.21 1.621-31.939-10.799-42.409z" fill="#99e6fc"></path><path d="m153.258 192.301-20.596-24.427a5.151 5.151 0 0 0-7.258-.618l-14.427 12.164 16.895 19.408c3.668 4.35 3.114 10.849-1.235 14.517L88.94 245.129a10.255 10.255 0 0 1 6.94 3.001l6.182 6.182 57.223-48.247a26.739 26.739 0 0 1-6.027-13.764zM498.579 261.673l-111.984-94.417a5.15 5.15 0 0 0-7.258.618l-9.735 11.546 97.557 82.253c12.419 10.47 16.71 27.199 10.8 42.408-5.669 14.59-20.03 23.949-35.682 23.949h31.421c15.652 0 30.013-9.36 35.682-23.949 5.909-15.209 1.619-31.938-10.801-42.408z" fill="#62dbfb"></path><path d="M225.094 347.71a3.09 3.09 0 0 0-3.09 3.091v15.134H305.5c3.584 0 6.5 2.916 6.5 6.5s-2.916 6.5-6.5 6.5h-83.496v10.694H305.5c3.584 0 6.5 2.916 6.5 6.5s-2.916 6.5-6.5 6.5h-83.496v20.285h71.362l.297-.52c7.783-13.659 22.365-22.144 38.055-22.144a43.439 43.439 0 0 1 17.613 3.699l1.446.636v-24.939a4.125 4.125 0 0 1 4.121-4.121h9.271V347.71z" fill="#efedef"></path><path d="M331.203 350.801v49.466c.172-.002.343-.017.515-.017a43.439 43.439 0 0 1 17.613 3.699l1.446.636v-24.939a4.125 4.125 0 0 1 4.121-4.121h9.272V347.71h-36.056a3.09 3.09 0 0 1 3.089 3.091z" fill="#e5e1e5"></path><path d="M173.585 421.883v27.815H288.32l-.121-1.138c-.18-1.707-.264-3.146-.264-4.528a43.51 43.51 0 0 1 6.038-22.149z" fill="#ffe177"></path><path d="M288.199 448.56c-.18-1.707-.264-3.146-.264-4.528a43.51 43.51 0 0 1 6.038-22.149H263.21v27.815h25.109z" fill="#ffd15b"></path><path d="M158.133 405.4v-32.966a5.15 5.15 0 0 0-5.151-5.151h-38.117a5.15 5.15 0 0 0-5.151 5.151V405.4z" fill="#fe646f"></path><path d="M152.982 367.284h-20.604a5.15 5.15 0 0 1 5.151 5.151V405.4h20.604v-32.966a5.15 5.15 0 0 0-5.151-5.15z" fill="#fd4755"></path><path d="M50.994 409.521a4.125 4.125 0 0 1 4.121-4.121h15.453v-21.634a5.15 5.15 0 0 0-5.151-5.151H27.3a5.15 5.15 0 0 0-5.151 5.151v65.932h28.845z" fill="#05e39c"></path><path d="M49.964 409.521a5.15 5.15 0 0 1 5.151-5.151h15.453v-20.604a5.15 5.15 0 0 0-5.151-5.151H44.813a5.15 5.15 0 0 1 5.151 5.151z" fill="#0ed290"></path><path d="m81.311 302.035-19.668-19.668c-4.023-4.023-4.023-10.546 0-14.569l19.668-19.668c4.023-4.023 10.546-4.023 14.569 0l19.668 19.668c4.023 4.023 4.023 10.546 0 14.569L95.88 302.035c-4.023 4.023-10.546 4.023-14.569 0z" fill="#26a6fe"></path><path d="M115.548 267.798 95.88 248.13c-4.023-4.023-10.546-4.023-14.569 0l-5.488 5.488 14.18 14.18c4.023 4.023 4.023 10.546 0 14.569l-14.18 14.18 5.488 5.488c4.023 4.023 10.546 4.023 14.569 0l19.668-19.668c4.023-4.023 4.023-10.546 0-14.569z" fill="#0593fc"></path><path d="M350.777 403.471a44.624 44.624 0 0 0-19.058-4.252c-24.75 0-44.813 20.063-44.813 44.813 0 1.921.135 3.809.369 5.666h63.502z" fill="#fe646f"></path><path d="M350.777 449.698v-46.227c-5.784-2.723-12.242-4.252-19.058-4.252s-13.274 1.529-19.058 4.252c15.217 7.163 25.755 22.628 25.755 40.561a45.26 45.26 0 0 1-.369 5.666z" fill="#fd4755"></path><path d="M391.984 375.525v-22.664a4.125 4.125 0 0 1 4.121-4.121h1.03v-26.785a5.15 5.15 0 0 0-5.151-5.151H368.29a5.15 5.15 0 0 0-5.151 5.151v53.569h28.845z" fill="#26a6fe"></path><path d="M391.984 316.805h-16.483a5.15 5.15 0 0 1 5.151 5.151v53.569h11.332v-22.664a4.125 4.125 0 0 1 4.121-4.121h1.03v-26.785a5.15 5.15 0 0 0-5.151-5.15z" fill="#0593fc"></path><path d="M424.95 375.525v-22.664a5.15 5.15 0 0 0-5.151-5.151h-23.694a5.15 5.15 0 0 0-5.151 5.151v22.664z" fill="#ffe177"></path><path d="M419.799 347.71h-14.423a5.15 5.15 0 0 1 5.151 5.151v22.664h14.423v-22.664a5.15 5.15 0 0 0-5.151-5.151z" fill="#ffd15b"></path><path d="M405.376 420.853a4.125 4.125 0 0 1 4.121-4.121h28.845v-37.087a5.15 5.15 0 0 0-5.151-5.151h-78.294a5.15 5.15 0 0 0-5.151 5.151v70.052h55.63z" fill="#bd80e1"></path><path d="M412.587 379.646v37.087h25.755v-37.087a5.15 5.15 0 0 0-5.151-5.151h-25.755a5.15 5.15 0 0 1 5.151 5.151z" fill="#af66da"></path><path d="M484.7 449.698v-28.845a5.15 5.15 0 0 0-5.151-5.151h-70.052a5.15 5.15 0 0 0-5.151 5.151v28.845z" fill="#ffe177"></path><path d="M479.549 415.702h-30.905a5.15 5.15 0 0 1 5.151 5.151v28.845H484.7v-28.845a5.15 5.15 0 0 0-5.151-5.151z" fill="#ffd15b"></path><path d="M174.616 449.698v-40.177a5.15 5.15 0 0 0-5.151-5.151H55.115a5.15 5.15 0 0 0-5.151 5.151v40.177z" fill="#26a6fe"></path><path d="M169.465 404.37H138.56a5.15 5.15 0 0 1 5.151 5.151v40.177h30.905v-40.177a5.15 5.15 0 0 0-5.151-5.151z" fill="#0593fc"></path><path d="M256 44.901c-24.195 0-46.284 8.998-63.117 23.825L179.216 53.2a7.501 7.501 0 0 0-11.26 9.911l14.446 16.411c-13.702 16.536-21.94 37.764-21.94 60.917v91.717l-15.088 11.638a7.5 7.5 0 1 0 8.866 12.099l7.488-5.487c5.163 22.995 25.69 40.18 50.244 40.18h19.602a24.641 24.641 0 0 1-.187-2.98v-20.324c7.867 3.041 16.14 4.581 24.614 4.581s16.746-1.541 24.614-4.581v20.324c0 1.009-.068 2.002-.187 2.98h19.602c28.448 0 51.509-23.061 51.509-51.509v-98.639c-.001-52.764-42.775-95.537-95.539-95.537z" fill="#554e56"></path><path d="m363.684 241.833-12.146-9.572v-91.823c0-24.417-9.165-46.69-24.236-63.58l10.779-10.779a7.5 7.5 0 0 0-10.607-10.606l-11.002 11.002C300 52.993 278.946 44.901 256 44.901a96.55 96.55 0 0 0-11.109.646c33.901 13.353 58.782 44.614 63.005 82.128 9.492 1.84 16.662 10.187 16.662 20.217v55.412c0 16.888-6.118 32.339-16.242 44.287-1.66 18.672-12.793 34.615-28.565 42.994h20.277c24.567 0 45.104-17.204 50.253-40.219l4.12 3.247a7.466 7.466 0 0 0 4.637 1.61 7.5 7.5 0 0 0 4.646-13.39z" fill="#433f43"></path><path d="M256 270.833a67.14 67.14 0 0 1-25.644-5.072v21.845c0 14.163 11.481 25.644 25.644 25.644s25.644-11.481 25.644-25.644v-21.845A67.14 67.14 0 0 1 256 270.833z" fill="#ffb09e"></path><path d="M256 270.833c-.765 0-1.522-.031-2.281-.057v16.83c0 9.012-4.652 16.932-11.682 21.505A25.518 25.518 0 0 0 256 313.25c14.163 0 25.644-11.481 25.644-25.644v-21.845A67.14 67.14 0 0 1 256 270.833z" fill="#f89580"></path><path d="M188.472 203.304v-38.4c0-1.347.137-2.663.398-3.934h-8.981c-15.402 0-27.888 12.486-27.888 27.888s12.486 27.888 27.888 27.888h9.931a67.515 67.515 0 0 1-1.348-13.442z" fill="#ffb09e"></path><path d="M332.112 160.971h-8.584v42.334c0 4.602-.466 9.097-1.348 13.443h9.932c15.402 0 27.888-12.486 27.888-27.888s-12.486-27.889-27.888-27.889z" fill="#f89580"></path><path d="M270.423 135.795a17.648 17.648 0 0 1-15.095 8.506h-47.283c-11.379 0-20.604 9.225-20.604 20.604v38.4c0 37.864 30.695 68.559 68.559 68.559s68.559-30.695 68.559-68.559v-55.412c0-11.379-9.225-20.604-20.604-20.604h-18.438a17.645 17.645 0 0 0-15.094 8.506z" fill="#ffcebf"></path><path d="M303.955 127.289h-12.55c6.822 3.547 11.49 10.666 11.49 18.887v57.252c0 32.538-21.946 59.933-51.838 68.238 1.634.117 3.279.197 4.943.197 37.864 0 68.559-30.695 68.559-68.559v-55.412c0-11.378-9.225-20.603-20.604-20.603z" fill="#ffb09e"></path><path d="M275.243 243.7h-38.485c-5.666 0-10.302-4.636-10.302-10.302v-4.613c0-9.095 7.441-16.536 16.536-16.536h26.017c9.095 0 16.536 7.441 16.536 16.536v4.613c-.001 5.666-4.636 10.302-10.302 10.302z" fill="#fe99a0"></path><path d="M269.008 212.249H252.55c5.742 3.358 9.631 9.576 9.631 16.672v5.388c0 3.79-1.781 7.18-4.542 9.39h17.603c5.666 0 10.302-4.636 10.302-10.302v-4.613c0-9.094-7.441-16.535-16.536-16.535z" fill="#fd8087"></path><path d="M501.698 492.917H10.302C4.612 492.917 0 488.305 0 482.616V458.97c0-5.69 4.612-10.302 10.302-10.302h491.396c5.69 0 10.302 4.612 10.302 10.302v23.646c0 5.689-4.612 10.301-10.302 10.301z" fill="#f6a96c"></path><path d="M501.698 448.668h-41.722v12.338c0 5.69-4.612 10.302-10.302 10.302H0v11.308c0 5.689 4.612 10.302 10.302 10.302h491.396c5.69 0 10.302-4.612 10.302-10.302V458.97c0-5.69-4.612-10.302-10.302-10.302z" fill="#ea9b58"></path><circle cx="365.714" cy="34.02" fill="#05e39c" r="14.938"></circle><path d="M365.714 19.083c-2.832 0-5.47.802-7.726 2.171 4.317 2.619 7.211 7.349 7.211 12.766s-2.894 10.148-7.211 12.766a14.842 14.842 0 0 0 7.726 2.171c8.25 0 14.938-6.688 14.938-14.938s-6.688-14.936-14.938-14.936z" fill="#0ed290"></path><circle cx="476.974" cy="367.799" fill="#05e39c" r="14.938"></circle><path d="M476.974 352.861c-2.411 0-4.68.584-6.696 1.599 4.883 2.457 8.241 7.5 8.241 13.339s-3.358 10.882-8.241 13.339a14.853 14.853 0 0 0 6.696 1.599c8.25 0 14.938-6.688 14.938-14.938-.001-8.25-6.688-14.938-14.938-14.938z" fill="#0ed290"></path><circle cx="23.694" cy="196.789" fill="#fe646f" r="14.938"></circle><path d="M23.694 181.851c-2.207 0-4.296.491-6.181 1.35 5.162 2.352 8.757 7.545 8.757 13.587 0 6.043-3.595 11.235-8.757 13.587a14.862 14.862 0 0 0 6.181 1.35c8.25 0 14.938-6.688 14.938-14.938 0-8.248-6.688-14.936-14.938-14.936z" fill="#fd4755"></path><path d="M56.35 115.665a7.5 7.5 0 0 1-3.757-13.996l47.665-27.519a7.5 7.5 0 0 1 7.5 12.99l-47.665 27.519a7.465 7.465 0 0 1-3.743 1.006zM69.074 137.704a7.5 7.5 0 0 1-3.757-13.996l47.664-27.519a7.5 7.5 0 0 1 7.5 12.99l-47.664 27.519a7.47 7.47 0 0 1-3.743 1.006zM81.798 159.742a7.5 7.5 0 0 1-3.757-13.996l21.742-12.553a7.5 7.5 0 0 1 7.5 12.99l-21.742 12.553a7.465 7.465 0 0 1-3.743 1.006z" fill="#b5adb6"></path><g fill="#cbc4cc"><path d="M305.5 364.935h-83.496v15H305.5c4.143 0 7.5-3.358 7.5-7.5s-3.357-7.5-7.5-7.5zM305.5 388.629h-83.496v15H305.5c4.143 0 7.5-3.358 7.5-7.5s-3.357-7.5-7.5-7.5z" fill="#cbc4cc"></path></g><path d="M256 198.173c-9.403 0-17.054-7.65-17.054-17.054s7.65-17.054 17.054-17.054c4.143 0 7.5 3.358 7.5 7.5s-3.357 7.5-7.5 7.5c-1.133 0-2.054.921-2.054 2.054s.921 2.054 2.054 2.054c4.143 0 7.5 3.358 7.5 7.5s-3.357 7.5-7.5 7.5zM225.207 182.415a7.5 7.5 0 0 1-7.5-7.5v-10.458c0-4.142 3.357-7.5 7.5-7.5s7.5 3.358 7.5 7.5v10.458a7.5 7.5 0 0 1-7.5 7.5zM286.793 182.415a7.5 7.5 0 0 1-7.5-7.5v-10.458c0-4.142 3.357-7.5 7.5-7.5s7.5 3.358 7.5 7.5v10.458a7.5 7.5 0 0 1-7.5 7.5z" fill="#f89580"></path></g></svg>