<svg viewBox="0 0 53 53" xmlns="http://www.w3.org/2000/svg"><g><path d="M50.44 38.589v1.23l-7.89 4.55-.83-.48v.96l-7.89 4.55-31.24-18.15-.01-1.23 2.77-2.4-.01-3.5-2.78-1.61v-1.21l4.7-2.71-.86-.5-.01-1.22 2.77-2.4-.01-3.5-2.78-1.62v-1.2l7.89-4.55 31.24 18.16.01 1.2-2.76 2.41v.05l7.66 4.45.01 1.21-2.76 2.41.01 3.5z" fill="#c9cee2"></path><path d="M47.68 39.39 16.433 21.23l2.758-.799 31.246 18.159z" fill="#e3e7f0"></path><path d="M42.553 44.37 11.306 26.21l-.003-1.225 31.246 18.159z" fill="#b0b8cf"></path><path d="M42.55 43.145 11.302 24.986l2.762-2.398 31.247 18.158z" fill="#e3e7f0"></path><path d="M45.312 40.746 14.065 22.588l-.017-5.898 31.247 18.158z" fill="#b0b8cf"></path><path d="M42.528 35.631 11.282 17.473l-.004-1.204 31.247 18.159z" fill="#9ea9c9"></path><path d="M42.525 34.428 11.278 16.269l7.888-4.554 31.247 18.159z" fill="#e3e7f0"></path><path d="m50.413 29.874.003 1.203-2.753 2.415.017 5.898 2.757-.8.004 1.226-7.888 4.554-.004-1.225 2.763-2.399-.017-5.898-2.767.783-.003-1.203z" fill="#c9cee2"></path><path d="M38.961 44.424 7.714 26.265l2.758-.799 31.246 18.159z" fill="#e3e7f0"></path><path d="M33.834 49.404 2.587 31.245l-.003-1.225L33.83 48.18z" fill="#b0b8cf"></path><path d="M33.83 48.179 2.584 30.02l2.762-2.398L36.593 45.78z" fill="#e3e7f0"></path><path d="M36.593 45.78 5.346 27.622l-.017-5.898 31.247 18.158z" fill="#b0b8cf"></path><path d="M33.81 40.665 2.562 22.507l-.004-1.204 31.247 18.159z" fill="#9ea9c9"></path><path d="M33.806 39.462 2.559 21.303l7.888-4.554 31.247 18.159z" fill="#e3e7f0"></path><path d="m41.694 34.908.003 1.203-2.753 2.415.017 5.898 2.757-.8.004 1.226-7.888 4.554-.004-1.225 2.763-2.399-.017-5.898-2.767.783-.003-1.203z" fill="#c9cee2"></path><path d="M42.772 31.27 11.525 13.113l2.758-.799 31.246 18.159z" fill="#e3e7f0"></path><path d="M37.645 36.25 6.398 18.093l-.003-1.225L37.64 35.026z" fill="#b0b8cf"></path><path d="M37.641 35.026 6.395 16.867l2.762-2.398 31.247 18.158z" fill="#e3e7f0"></path><path d="M40.404 32.627 9.157 14.47 9.14 8.57l31.247 18.158z" fill="#b0b8cf"></path><path d="M37.62 27.512 6.373 9.354 6.37 8.15 37.617 26.31z" fill="#9ea9c9"></path><path d="M37.617 26.309 6.37 8.15l7.888-4.554 31.246 18.159z" fill="#e3e7f0"></path><path d="M37.617 26.309 6.37 8.15l7.888-4.554 31.246 18.159z" fill="#e3e7f0"></path><path d="m45.504 21.755.004 1.203-2.753 2.415.017 5.898 2.757-.8.004 1.226-7.888 4.554-.004-1.225 2.763-2.399-.017-5.898-2.767.783-.003-1.203z" fill="#c9cee2"></path></g></svg>