<svg viewBox="0 0 512 512" xmlns="http://www.w3.org/2000/svg"><g><path d="M278.985 64.252a42.16 42.16 0 0 0-45.977 0C232.861 64.347 1.3 215.104 1.15 215.203l-.292.208v284.093C.858 506.36 6.454 512 13.376 512h485.239c6.861 0 12.528-5.621 12.528-12.497V215.4L278.985 64.252z" fill="#eebf00"></path><path d="M511.145 215.402v284.104c0 6.877-5.667 12.492-12.533 12.492H13.378c-6.928 0-12.523-5.636-12.523-12.492V215.412c19.916 12.947 219.784 142.9 230.146 149.632a45.868 45.868 0 0 0 50.008 0c9.814-6.38 225.017-146.312 230.136-149.642z" fill="#ffde55"></path><path d="M508.143 507.574c-.375.448-.781.865-1.218 1.249a12.54 12.54 0 0 1-3.697 2.29c-1.614.542-3.259.885-4.613.885H13.376a11.3 11.3 0 0 1-1.302-.073c-.23-.021-.458-.052-.677-.083-.166-.021-.323-.052-.489-.084a12.598 12.598 0 0 1-6.904-3.989l3.155-2.551 197.23-157.469 26.608 17.298a45.88 45.88 0 0 0 50.008 0c36.821-23.933 24.12-15.679 26.868-17.465l198.094 158.157 2.176 1.835z" fill="#ffeb99"></path><path d="M466.452 172.374c-63.711 47.567-128.423 95.854-247.56 184.791-3.422-2.211-143.629-93.377-162.413-105.601h-.01a24913.35 24913.35 0 0 1-24.26-15.77L341.462 4.966c11.054-8.252 26.69-5.987 34.942 5.067 101.974 136.596 95.498 127.841 96.294 129.136 6.773 10.827 4.306 25.286-6.246 33.205z" fill="#5eac24"></path><circle cx="350.307" cy="36.132" fill="#47821c" r="9.237"></circle><path d="M417.767 127.867c-10.652 12.124-13.654 29.162-8.335 43.98 1.698 4.835-.083 10.069-4.074 13.05-14.586 10.886-125.753 93.848-146.706 109.489 0 .01-.01.01-.01.01-76.036 56.744 54.775-40.896-63.462 47.361a801403.881 801403.881 0 0 0-110.182-71.641 44.238 44.238 0 0 0 .434-30.96c-1.696-4.736.031-10.041 4.064-13.05l83.719-62.479L312.094 59.969c4.043-3.009 9.607-3.164 13.671-.186 12.916 9.466 30.001 11.181 44.538 4.509 4.995-2.306 10.92-.827 14.219 3.588l33.846 45.334c3.287 4.405 3.018 10.506-.601 14.653z" fill="#4e901e"></path><path d="M475.996 238.018c-121.182 65.166-71.059 38.213-240.766 129.467-3.172-1.624-174.859-113.387-178.752-115.921h-.01c-.474-.308-20.783-13.498-21.188-13.774C303.046 93.82 192.606 153.2 377.024 54.033c12.15-6.535 27.279-1.996 33.815 10.155 81.026 150.665 75.724 140.738 76.222 141.907 5.321 12.187-.004 26.094-11.065 31.923z" fill="#7ed63e"></path><circle cx="381.174" cy="86.16" fill="#4e901e" r="9.237"></circle><path d="M434.385 186.83c-12.631 10.769-17.723 27.187-14.715 42.263.972 4.943-1.51 9.927-5.946 12.316l-117.958 63.42h-.01l-35.769 19.234h-.01l-50.36 27.072c-19.482-12.56-121.975-79.304-122.167-79.428 2.862-7.81 3.388-16.176 1.841-23.753-.982-4.943 1.51-9.927 5.946-12.316l104.722-56.306 139.922-75.23c4.436-2.389 9.958-1.706 13.547 1.83 11.435 11.328 28.168 15.451 43.38 11.023 5.284-1.541 10.93.786 13.547 5.636l26.793 49.833c2.604 4.841 1.435 10.839-2.763 14.406z" fill="#5eac24"></path><path d="M437.477 124.041c-3.557-10.351-13.236-16.856-23.608-16.856-5.054 0-8.556 1.567-9.193 1.737-5.561 1.913-370.031 127.235-371.143 127.74 1.36.874 10.219 6.645 22.936 14.901h.01c15.494 10.082 174.764 113.648 174.884 113.708 14.843 9.491 34.297 9.741 49.646-.228 5.727-3.72 191.128-124.274 195.618-127.192-19.664-57.17-18.531-53.879-39.15-113.81z" fill="#a4e276"></path><circle cx="404.658" cy="140.925" fill="#4e901e" r="9.237"></circle><path d="m445.967 235.101-18.396-53.504c-1.799-5.201-6.99-8.417-12.461-7.745-16.091 1.939-31.75-5.122-41.032-17.89-2.957-4.074-8.304-5.625-13.071-3.992L97.366 242.65c-3.847 1.313-6.711 4.519-7.58 8.355-.836 3.499.864 9.606-3.195 20.144 1.149.765 130.089 84.564 140.894 91.61l121.102-41.653c110.897-72.114 49.587-32.238 72.934-47.413 3.112-10.139 9.92-19.119 19.399-24.818 4.716-2.843 6.836-8.572 5.047-13.774z" fill="#5eac24"></path><circle cx="254.54" cy="271.023" fill="#47821c" r="53.297"></circle><path d="m257.267 262.395.001-.012c-7.722-.373-13.252.666-15.168-4.908-1.678-4.879 1.656-7.605 6.535-9.283 6.989-2.404 9.499.262 12.711-.843 3.752-1.291 4.469-5.703 3.544-8.392-1.898-5.517-10.17-4.82-15.68-3.672l-.841-2.445a6.593 6.593 0 0 0-8.369-4.086 6.593 6.593 0 0 0-4.086 8.369l1.106 3.218c-7.503 5.251-9.96 12.959-6.915 21.814 4.363 12.684 14.656 12.975 22.928 13.207 7.836.22 12.566.354 14.866 7.039 1.879 5.462-.162 9.133-6.239 11.224-9.608 3.304-11.61-3.714-16.57-2.008-3.285 1.13-4.647 5.455-3.628 8.421 1.528 4.446 8.766 8.07 18.419 6.774l.824 2.396c1.181 3.433 4.936 5.267 8.369 4.086s5.267-4.936 4.086-8.369l-.873-2.537c8.399-5.364 11.173-14.292 7.605-24.667-4.799-13.954-15.489-15.09-22.625-15.326z" fill="#6dc82a"></path><path d="M158.264 317.745c-6.763-4.395-13.743-8.935-20.847-13.547 2.591-13.355 21.363-14.733 25.821-1.779a13.394 13.394 0 0 1-4.974 15.326z" fill="#47821c"></path><circle cx="353.44" cy="237.012" fill="#47821c" r="13.409"></circle><path d="M421.521 273.693a37.13 37.13 0 0 0-.672 2.399l-6.453 2.223c2.389-1.55 4.767-3.091 7.125-4.622z" fill="#ffde55"></path><path d="M501.683 209.239c.021.01.041.021.052.031h-.01c-.011-.01-.032-.021-.042-.031zM501.735 209.27c.052.031.103.062.155.103-.01-.01-.021-.021-.041-.021-.021-.021-.031-.031-.041-.031-.032-.02-.053-.041-.073-.051zM501.983 209.425c.01.01.031.021.041.031-.01 0-.021-.01-.041-.021v-.01zM502.107 209.508c.041.031.093.062.134.093h-.01c-.052-.041-.093-.062-.124-.093zM502.242 209.601c.083.052.155.093.228.145-.062-.041-.124-.072-.176-.103-.021-.021-.042-.032-.052-.042zM508.622 213.748c.062.041.134.093.196.134-.052-.021-.093-.052-.134-.083-.021-.02-.042-.031-.062-.051z" fill="#eebf00"></path><path d="M511.145 480.976v18.531c0 6.877-5.667 12.492-12.533 12.492H13.378c-6.928 0-12.523-5.636-12.523-12.492V215.412c4.105 2.668 15.873 10.32 32.057 20.847v232.224c0 6.856 5.594 12.492 12.523 12.492h465.71z" fill="#ffd422"></path><path d="M501.683 209.239c.021.01.041.021.052.031h-.01c-.011-.01-.032-.021-.042-.031zM501.735 209.27c.052.031.103.062.155.103-.01-.01-.021-.021-.041-.021-.021-.021-.031-.031-.041-.031-.032-.02-.053-.041-.073-.051zM501.983 209.425c.01.01.031.021.041.031-.01 0-.021-.01-.041-.021v-.01zM502.107 209.508c.041.031.093.062.134.093h-.01c-.052-.041-.093-.062-.124-.093zM502.242 209.601c.083.052.155.093.228.145-.062-.041-.124-.072-.176-.103-.021-.021-.042-.032-.052-.042zM508.622 213.748c.062.041.134.093.196.134-.052-.021-.093-.052-.134-.083-.021-.02-.042-.031-.062-.051z" fill="#eebf00"></path><path d="m505.964 505.742-31.023-24.766H45.435a12.59 12.59 0 0 1-5.998-1.52L7.163 505.225l-3.164 2.544c1.226 1.342 2.625 2.423 4.333 3.164.207.093.424.186.641.259.273.182 2.37.807 4.405.807h485.234c.176 0 .341 0 .517-.021.155-.01.31-.01.465-.031 1.086-.103 2.285-.383 3.485-.776.103-.041.217-.083.331-.134.041-.021.083-.031.134-.052.155-.072.321-.145.476-.227.155-.072.3-.145.445-.217a12.363 12.363 0 0 0 3.185-2.42c.176-.176.331-.362.496-.548l-2.182-1.831z" fill="#ffeb99"></path><path d="M508.146 507.572c-2.296 2.689-5.698 4.426-9.534 4.426H13.378c-2.192 0-4.198-.662-4.405-.807-1.458-.486-3.34-1.634-4.974-3.423a60509.947 60509.947 0 0 1 35.107-28.044v-.01c.01-.01.093-.072.155-.114.01-.021.031-.031.041-.041.01-.01.031-.021.062-.041l.041-.041c.01 0 .021-.01.031-.021a12.59 12.59 0 0 0 5.998 1.52h429.507c6.497 5.204-16.956-13.583 33.205 26.596z" fill="#ffde55"></path></g></svg>