<svg viewBox="0 0 511.999 511.999" xmlns="http://www.w3.org/2000/svg"><g><path d="M449.267 149.615c0 26.568 19.457 26.568 19.457 53.127 0 16.781-7.768 22.963-13.487 31.938a6.143 6.143 0 0 1-5.187 2.823H245.891a6.145 6.145 0 0 1-5.187-2.823c-5.719-8.975-13.487-15.157-13.487-31.938 0-26.558 19.457-26.558 19.457-53.127z" fill="#ffc344"></path><path d="M271.66 237.499h-25.77c-2.09 0-4.06-1.05-5.19-2.82-5.71-8.97-13.48-15.16-13.48-31.94 0-26.56 19.46-26.56 19.46-53.12h25.76c0 26.56-19.46 26.56-19.46 53.12 0 16.78 7.77 22.96 13.49 31.94a6.14 6.14 0 0 0 5.19 2.82z" fill="#feb137"></path><path d="M432.016 156.407H263.921c-13.613 0-24.649-11.036-24.649-24.649v-2.578c0-13.613 11.036-24.649 24.649-24.649h168.095c13.613 0 24.649 11.036 24.649 24.649v2.578c0 13.614-11.036 24.649-24.649 24.649z" fill="#f6a96c"></path><path d="M345.598 237.505h4.74c42.801 0 77.498-34.697 77.498-77.498v-51.989c0-25.487-20.662-46.149-46.149-46.149H314.25c-25.487 0-46.149 20.662-46.149 46.149v51.989c0 42.802 34.697 77.498 77.497 77.498z" fill="#fed2a4"></path><path d="M356.45 237.269c-2.01.16-4.05.24-6.11.24h-4.74c-42.8 0-77.5-34.7-77.5-77.5v-51.99c0-25.49 20.66-46.15 46.15-46.15h14.29c-20.29 5.84-35.12 24.54-35.12 46.7v49.24c0 38.66 26.91 71.06 63.03 79.46z" fill="#ffbd86"></path><path d="M441.496 83.479H254.441a.373.373 0 0 1-.373-.373l8.396-54.126c3.045-19.634 22.118-32.553 41.48-28.099l40.534 9.324c2.297.528 4.684.528 6.981 0L391.993.881c19.363-4.454 38.435 8.466 41.48 28.099l8.396 54.126a.372.372 0 0 1-.373.373z" fill="#f79595"></path><path d="M441.87 83.109c0 .2-.17.37-.37.37H254.44a.37.37 0 0 1-.37-.37l8.39-54.13c3.05-19.63 22.12-32.55 41.48-28.1l5 1.15c-10.93 4.38-19.4 14.23-21.35 26.82l-3.33 21.48a4.169 4.169 0 0 0 4.12 4.81h149.15z" fill="#f47c7c"></path><path d="M226.1 83.053a722.04 722.04 0 0 1 243.737 0c7.452 1.274 12.365 8.147 10.997 15.184l-.635 3.326c-1.369 7.04-8.217 11.635-15.317 10.421a692.691 692.691 0 0 0-233.829 0c-7.1 1.214-13.948-3.38-15.317-10.421l-.635-3.326c-1.367-7.035 3.547-13.91 10.999-15.184z" fill="#f79595"></path><path d="M248.09 109.299c-5.69.82-11.37 1.72-17.04 2.69-7.1 1.21-13.94-3.39-15.31-10.43-.21-1.1-.43-2.21-.64-3.32-1.37-7.04 3.55-13.91 11-15.19 6.61-1.13 13.23-2.17 19.87-3.12-5.56 2.83-8.72 8.94-7.51 15.16.23 1.21.46 2.42.7 3.63.97 4.99 4.47 8.86 8.93 10.58z" fill="#f47c7c"></path><path d="M215.087 156.407H46.991c-13.613 0-24.649-11.036-24.649-24.649v-2.578c0-13.613 11.036-24.649 24.649-24.649h168.095c13.613 0 24.649 11.036 24.649 24.649v2.578c.001 13.614-11.035 24.649-24.648 24.649z" fill="#d78878"></path><path d="M128.551 237.505h4.74c42.801 0 77.498-34.697 77.498-77.498V95c0-25.487-20.662-46.149-46.149-46.149H97.202c-25.487 0-46.149 20.662-46.149 46.149v65.008c0 42.801 34.697 77.497 77.498 77.497z" fill="#f1b0a2"></path><path d="M138.96 237.299c-1.87.14-3.76.21-5.67.21h-4.74c-42.8 0-77.5-34.7-77.5-77.5v-65.01c0-25.49 20.66-46.15 46.15-46.15h13.82c-20.04 5.99-34.65 24.56-34.65 46.55v62.55c0 38.51 26.69 70.8 62.59 79.35z" fill="#eb9c8d"></path><path d="M204.722 45.328c-.183 0-.379.005-.584.015-3.542.172-6.562-2.536-6.698-6.079l-.009-.235c-.562-14.579-12.958-26.507-27.548-26.507-2.789.107-6.581 1.431-9.542 2.658-2.452 1.016-5.326.131-6.678-2.153C148.866 4.92 139.894-.368 129.821.02c-9.339.36-17.361 5.511-21.796 12.995-1.349 2.278-4.132 3.245-6.585 2.251-3.233-1.31-7.538-2.772-10.661-2.772-14.639 0-26.507 11.867-26.507 26.507 0 3.574-2.953 6.381-6.527 6.329a26.884 26.884 0 0 0-3.693.201c-13.358 1.652-23.202 13.35-23.202 26.81v9.208c0 14.174 10.9 26.271 25.054 27.027 10.126.541 19.092-4.607 23.999-12.533 1.614-2.607 5.087-3.209 7.594-1.445a32.779 32.779 0 0 0 18.931 5.984c8.076 0 15.47-2.907 21.201-7.729a5.293 5.293 0 0 1 6.822 0 32.815 32.815 0 0 0 21.201 7.729 32.781 32.781 0 0 0 18.931-5.984c2.507-1.764 5.98-1.162 7.594 1.445 4.907 7.926 13.873 13.073 23.998 12.533 14.154-.755 25.054-12.853 25.054-27.027v-9.715c0-14.639-11.868-26.506-26.507-26.506z" fill="#7a6d79"></path><g fill="#685e68"><path d="M102.96 15.639a27.646 27.646 0 0 0-4.33 3.52c-4.93 4.93-7.98 11.73-7.98 19.25 0 3.64-2.97 6.5-6.6 6.5h-.1c-1.25-.01-2.51.06-3.79.21-13.73 1.7-23.84 13.71-23.84 27.54v9.47c0 9.85 5.13 18.72 12.95 23.66a26.393 26.393 0 0 1-13.37 2.79c-14.15-.76-25.05-12.86-25.05-27.03v-9.21c0-13.46 9.84-25.16 23.2-26.81 1.25-.15 2.48-.22 3.7-.2h.09c3.53 0 6.43-2.78 6.43-6.33 0-7.32 2.97-13.94 7.77-18.74 4.79-4.8 11.42-7.76 18.74-7.76 3.12 0 7.43 1.46 10.66 2.77.5.2 1.01.32 1.52.37zM382.541 144.182a7.5 7.5 0 0 1-7.5-7.5v-8.245c0-4.143 3.358-7.5 7.5-7.5s7.5 3.357 7.5 7.5v8.245a7.5 7.5 0 0 1-7.5 7.5zM313.396 144.182a7.5 7.5 0 0 1-7.5-7.5v-8.245c0-4.143 3.358-7.5 7.5-7.5s7.5 3.357 7.5 7.5v8.245a7.5 7.5 0 0 1-7.5 7.5z" fill="#685e68"></path></g><path d="M347.968 163.529a18.739 18.739 0 0 1-11.032-3.595 7.5 7.5 0 0 1 8.815-12.137 3.765 3.765 0 0 0 4.434 0A7.5 7.5 0 0 1 359 159.934a18.741 18.741 0 0 1-11.032 3.595z" fill="#ffbd86"></path><path d="M165.612 143.151a7.5 7.5 0 0 1-7.5-7.5v-8.244c0-4.143 3.358-7.5 7.5-7.5s7.5 3.357 7.5 7.5v8.244a7.5 7.5 0 0 1-7.5 7.5zM96.466 143.151a7.5 7.5 0 0 1-7.5-7.5v-8.244c0-4.143 3.358-7.5 7.5-7.5s7.5 3.357 7.5 7.5v8.244a7.5 7.5 0 0 1-7.5 7.5z" fill="#685e68"></path><path d="M131.039 163.529a18.739 18.739 0 0 1-11.032-3.595 7.5 7.5 0 0 1 8.815-12.137 3.765 3.765 0 0 0 4.434 0 7.5 7.5 0 0 1 8.815 12.137 18.746 18.746 0 0 1-11.032 3.595z" fill="#ca6e59"></path><path d="M131.039 205.855c-7.731 0-15.459-2.828-21.484-8.485-3.02-2.835-3.168-7.581-.333-10.601s7.583-3.17 10.602-.333c6.289 5.904 16.142 5.907 22.432-.001a7.5 7.5 0 0 1 10.268 10.936c-6.024 5.654-13.756 8.484-21.485 8.484zM347.968 205.855c-7.731 0-15.459-2.828-21.484-8.485-3.02-2.835-3.168-7.581-.333-10.601s7.583-3.17 10.602-.333c6.289 5.904 16.142 5.907 22.432-.001a7.5 7.5 0 0 1 10.268 10.936c-6.024 5.654-13.755 8.484-21.485 8.484z" fill="#f79595"></path><path d="M27.987 408.664H239.74v-25.757c0-56.689-45.956-102.645-102.645-102.645h-6.463c-56.689 0-102.645 45.956-102.645 102.645v25.757z" fill="#7a6d79"></path><path d="M146.63 280.729c-22.4 3.8-42.44 14.54-57.83 29.94-19.45 19.44-31.48 46.31-31.48 75.98v22.01H27.99v-25.84c0-56.64 45.91-102.56 102.55-102.56h6.28c3.31 0 6.58.16 9.81.47z" fill="#685e68"></path><path d="M51.177 432.871h165.005c13.008 0 23.554-10.545 23.554-23.554v-1.441c0-13.008-10.545-23.554-23.554-23.554H51.177c-13.008 0-23.554 10.545-23.554 23.554v1.441c0 13.009 10.545 23.554 23.554 23.554z" fill="#ffcebf"></path><path d="m90.577 347.631 6.793 21.899c.822 2.651 3.899 3.847 6.296 2.447l27.604-16.122c2.751-1.607 6.235.22 6.477 3.397l.538 7.05c.272 3.56 4.504 5.268 7.171 2.893l30.677-27.321c2.598-2.314 6.343-2.865 9.471-1.342 15.461 7.528 26.119 23.382 26.119 41.735v51.805c0 43.038-34.89 77.928-77.928 77.928s-77.928-34.89-77.928-77.928v-51.805c0-16.668 8.791-31.276 21.987-39.457 4.77-2.958 11.059-.541 12.723 4.821z" fill="#ffeee6"></path><path d="M141.84 511.589c-2.65.27-5.33.41-8.05.41-21.51 0-40.99-8.72-55.1-22.82-14.1-14.11-22.82-33.59-22.82-55.11v-51.8c0-16.67 8.79-31.28 21.98-39.46 4.77-2.96 11.06-.54 12.73 4.82l1.19 3.83c-6.62 8.14-10.58 18.51-10.58 29.83v52.94c0 21.99 8.92 41.91 23.33 56.32 10.13 10.13 22.96 17.53 37.32 21.04z" fill="#ffdfcf"></path><path d="M99.946 420.219a7.5 7.5 0 0 1-7.5-7.5v-8.245c0-4.143 3.358-7.5 7.5-7.5s7.5 3.357 7.5 7.5v8.245a7.5 7.5 0 0 1-7.5 7.5zM167.412 420.219a7.5 7.5 0 0 1-7.5-7.5v-8.245c0-4.143 3.358-7.5 7.5-7.5s7.5 3.357 7.5 7.5v8.245a7.5 7.5 0 0 1-7.5 7.5z" fill="#685e68"></path><path d="M133.679 439.951c-3.81 0-7.621-1.182-10.873-3.544a7.5 7.5 0 0 1 8.818-12.135 3.478 3.478 0 0 0 4.109 0 7.5 7.5 0 0 1 8.818 12.135 18.463 18.463 0 0 1-10.872 3.544z" fill="#ffdfcf"></path><path d="M133.679 481.377c-7.731 0-15.459-2.828-21.484-8.485-3.02-2.835-3.168-7.581-.333-10.601s7.583-3.17 10.602-.333c6.289 5.904 16.142 5.907 22.432-.001a7.5 7.5 0 0 1 10.268 10.936c-6.024 5.655-13.756 8.484-21.485 8.484z" fill="#f79595"></path><path d="M475.46 511.999h3.879c5.698 0 10.317-4.619 10.317-10.317V385.575c0-34.21-27.733-61.942-61.942-61.942h-3.879v136.741c0 28.512 23.114 51.625 51.625 51.625z" fill="#bc7c63"></path><path d="M451.85 328.509v177.78c-16.64-8.56-28.01-25.91-28.01-45.92v-136.74h3.87c8.57 0 16.72 1.74 24.14 4.88z" fill="#aa6a51"></path><path d="M239.736 408.664h212.113v-25.846c0-56.64-45.916-102.556-102.556-102.556h-7.002c-56.64 0-102.555 45.916-102.555 102.556z" fill="#bc7c63"></path><path d="M358.7 280.689c-50.84 8.5-89.58 52.71-89.58 105.96v22.01h-29.38v-25.84c0-56.64 45.91-102.56 102.55-102.56h7c3.17 0 6.31.14 9.41.43z" fill="#aa6a51"></path><path d="M263.29 432.871h165.005c13.008 0 23.554-10.545 23.554-23.554v-1.441c0-13.008-10.545-23.554-23.554-23.554H263.29c-13.008 0-23.554 10.545-23.554 23.554v1.441c0 13.009 10.545 23.554 23.554 23.554z" fill="#f6a96c"></path><path d="M348.22 511.999h-4.625c-41.761 0-75.615-33.854-75.615-75.615v-50.726c0-24.868 20.16-45.028 45.028-45.028h65.8c24.868 0 45.028 20.16 45.028 45.028v50.726c-.001 41.761-33.855 75.615-75.616 75.615z" fill="#fed2a4"></path><path d="M293.31 434.239v-48.07c0-21.59 14.43-39.81 34.17-45.54h-14.47c-24.87 0-45.03 20.16-45.03 45.03v50.72c0 41.77 33.85 75.62 75.62 75.62h4.62c2.12 0 4.23-.09 6.31-.26-35.1-8.32-61.22-39.85-61.22-77.5z" fill="#ffbd86"></path><path d="M312.059 419.985a7.5 7.5 0 0 1-7.5-7.5v-8.244c0-4.143 3.358-7.5 7.5-7.5s7.5 3.357 7.5 7.5v8.244a7.5 7.5 0 0 1-7.5 7.5zM379.525 419.985a7.5 7.5 0 0 1-7.5-7.5v-8.244c0-4.143 3.358-7.5 7.5-7.5s7.5 3.357 7.5 7.5v8.244a7.5 7.5 0 0 1-7.5 7.5z" fill="#685e68"></path><path d="M345.792 439.951a18.466 18.466 0 0 1-10.873-3.544 7.5 7.5 0 0 1 8.818-12.135 3.488 3.488 0 0 0 4.11 0 7.5 7.5 0 0 1 8.817 12.135 18.463 18.463 0 0 1-10.872 3.544z" fill="#ffbd86"></path><path d="M345.792 481.377c-7.731 0-15.459-2.828-21.484-8.485-3.02-2.835-3.168-7.581-.333-10.601s7.583-3.17 10.602-.333c6.289 5.904 16.142 5.907 22.432-.001a7.5 7.5 0 0 1 10.268 10.936c-6.024 5.655-13.756 8.484-21.485 8.484z" fill="#f79595"></path></g></svg>