<svg viewBox="0 0 512 512" xmlns="http://www.w3.org/2000/svg"><g><path d="M465.19 285.054c0 61.607-40.062 146.747-88.501 193.258C355.207 498.967 332.069 512 310.042 512c-13.922 0-27.808-2.236-39.754-5.843a86.447 86.447 0 0 0-50.143 0C208.2 509.764 194.315 512 180.392 512c-23.076 0-47.388-14.318-69.736-36.715-47.042-47.104-85.412-129.947-85.412-190.232 0-88.945 53.207-142.683 103.238-155.654 23.966-6.214 51.774-2.211 74.232 3.632a168.295 168.295 0 0 0 70.884 3.039 172.75 172.75 0 0 0 14.12-3.039c22.459-5.843 50.254-9.846 74.232-3.632 50.034 12.972 103.24 66.71 103.24 155.655z" fill="#f94848"></path><path d="M376.687 478.307c-59.444 10.504-105.23 7.594-139.729-.76-56.335-13.641-98.243-61.156-105.227-118.696-17.493-144.11 76.667-186.066 76.667-186.066 27.598 12.539 58.63 5.843 58.63 5.843-19.803-19.79 6.572-42.558 6.572-42.558a168.294 168.294 0 0 1-70.884-3.039c-22.459-5.843-50.266-9.846-74.232-3.632-50.033 12.972-103.239 66.71-103.239 155.655C25.245 373.987 108.742 512 180.392 512c13.922 0 27.808-2.236 39.754-5.843a86.447 86.447 0 0 1 50.143 0c11.946 3.607 25.831 5.843 39.754 5.843 22.026 0 45.164-13.033 66.647-33.688-.003-.003 0 0-.003-.005z" fill="#e23d3d"></path><path d="M486.756 5.506s-12.354 86.116-77.419 111.182c-62.2 23.966-117.643-40.828-140.385-35.726a9.106 9.106 0 0 0-2.866 1.112c-.037.012-.049.025-.049.025l.012-.049c.766-2.322 25.708-76.616 89.761-81.484 65.064-4.943 100.47 24.706 130.946 4.94z" fill="#c7f492"></path><path d="M486.756 5.506s-39.531 48.179-95.122 48.179c-48.883 0-108.909 21.965-122.683 27.277-1.655.63-2.631 1.025-2.866 1.112-.037.012-.049.025-.049.025l.012-.049c.766-2.322 25.708-76.616 89.761-81.484 65.065-4.943 100.471 24.706 130.947 4.94z" fill="#a3e261"></path><ellipse cx="393.878" cy="247.459" fill="#fc8181" rx="44.464" ry="28.771" transform="rotate(-95.676 393.877 247.458)"></ellipse><path d="M291.289 166.437c0 10.118-15.887 18.543-36.974 20.457-2.94.272-5.979.408-9.092.408-3.249 0-6.411-.148-9.463-.432-20.89-1.989-36.591-10.377-36.591-20.433h92.12z" fill="#e23d3d"></path><path d="m280.368 81.012-33.787 51.316c2.532 10.402 4.719 21.866 6.14 34.108a256.134 256.134 0 0 1 1.594 20.457c-2.94.272-5.979.408-9.092.408-3.249 0-6.411-.148-9.463-.432-.272-7.017-.877-13.836-1.705-20.433-6.053-47.969-24.559-83.3-24.781-83.695-2.397-4.521-.679-10.13 3.842-12.526 4.521-2.409 10.13-.692 12.526 3.83.544 1.038 7.35 14.046 14.219 34.8l25.041-38.024c2.804-4.274 8.561-5.448 12.823-2.631 4.274 2.804 5.46 8.548 2.643 12.822z" fill="#b25719"></path></g></svg>