<svg viewBox="0 0 512 512" xmlns="http://www.w3.org/2000/svg"><g><g><g><circle cx="256" cy="256" fill="#f24d6e" r="256"></circle><g fill="#fff"><path d="M205.41 127.28v257.44H140.3v-183q-10.78 2.22-21.76 4.65T96.78 211v-60.28q26.77-5.94 54.31-11.72t54.32-11.72zM247.07 384.72v-59.15q14.88-14.15 29.76-28.83t29.76-28.84q17.12-16.74 26-27t12.47-17.3a29.44 29.44 0 0 0 3.53-13q0-12.27-14.13-17.67T298 189.78q-22.32 2.24-47.62 12.28v-62.13q37.2-12.27 67.52-12.27t52.1 9.85q21.76 9.87 33.48 27.35t11.72 40.55a82.3 82.3 0 0 1-12.2 43.34q-12.33 20.25-37.63 44.82-8.19 7.81-16.37 16t-16.37 16h80.73v59.15z" fill="#ffffff"></path></g></g></g></g></svg>