<svg viewBox="0 0 512 512" xmlns="http://www.w3.org/2000/svg"><g><path d="M245.002 21.996C109.691 21.996 0 131.687 0 266.998c0 22.608 3.074 44.494 8.809 65.277l19.38 48.874a245.25 245.25 0 0 0 12.42 20.959c16.61-5.203 44.455-10.659 73.733-2.163 46.484 13.488 56.714 17.653 77.801 19.018 21.088 1.366 57.082-18.174 101.985-9.984 36.529 6.663 90.536-25.002 158.107-11.258 23.914-37.832 37.767-82.657 37.767-130.723.002-135.311-109.689-245.002-245-245.002z" fill="#88ce65"></path><path d="M294.13 407.979c-26.601-4.852-50.074.028-69.175 4.528-2.09 4.848-3.278 10.104-2.653 15.456 1.221 10.451 9.122 19.199 23.483 26.002 17.783 8.424 26.456 18.775 25.082 29.936-1.266 10.281-11.298 20.401-26.656 28.093.264.001.526.006.791.006 87.621 0 164.484-46.006 207.791-115.17-67.832-14.032-122.034 17.83-158.663 11.149z" fill="#56415e"></path><path d="M246.428 452.61c-25.233-11.952-25.574-27.742-19.615-40.537-13.956 3.251-25.673 6.473-34.669 5.89-21.088-1.366-31.317-5.53-77.801-19.018-29.598-8.588-57.738-2.919-74.28 2.333C83.843 467.958 159.273 512 245.002 512c.878 0 1.754-.012 2.63-.022 29.636-16.006 36.951-41.294-1.204-59.368z" fill="#47354f"></path><path d="M194.566 401.275c-.762-4.271-2.414-7.976-4.978-11.074-3.952-4.775-9.374-7.329-14.27-8.69a13.854 13.854 0 0 1-4.565 7.094c-7.521 6.201-21.051 18.569-29.363 33.321-.77 1.366-1.657 2.662-2.708 3.825l-5.686 6.291c-3.442 3.808-2.775 9.769 1.423 12.722l27.675 19.47a7.418 7.418 0 0 0 10.191-1.595c2.983-3.951 6.171-9.271 5.474-13.277-.823-4.728-8.537-9.53-13.781-12.289-2.275-1.197-2.66-4.286-.74-5.995 7.797-6.943 24.53-22.054 31.328-29.803z" fill="#bc6242"></path><path d="M168.17 339.497c4.858 14.068 6.813 28.618 7.578 37.189a13.782 13.782 0 0 1-.912 6.268c7.709 2.123 16.756 7.283 18.443 19.749 1.47-1.594 2.641-2.968 3.376-4.013 2.944-4.185 7.269-17.57 9.475-32.722-7.513-6.845-16.557-13.757-26.275-18.302-5.124-2.397-8.898-5.208-11.685-8.169zM163.247 314.448c-1.928-17.349 4.144-33.948 12.87-47.867-5.327 3.798-10.297 7.886-14.345 12.174-13.188 13.969-16.619 25.693-17.449 31.895-.34 2.539-2.497 4.449-5.058 4.428-4.655-.038-11.504.665-15.257 4.641-6.046 6.405.286 9.961.367 12.763.049 1.7-1.486 2.182-4.161 2.341-4.773.283-6.571 6.717-2.458 9.156.84.498 1.854.787 3.076.752 6.848-.197 25.074-.198 36.377-18.801a140.011 140.011 0 0 1 5.234-7.953c.336-2.19.804-3.529.804-3.529z" fill="#ad563b"></path><path d="M487.688 263.716a6.68 6.68 0 0 1-2.602-3.683 3.939 3.939 0 0 0-5.065-2.692l-8.532 2.896a7.363 7.363 0 0 1-5.604-.367c-7.496-3.664-15.024-8.747-21.731-13.895-4.064 1.563-8.383 4.18-10.377 8.514-1.607 3.496-1.46 7.557.415 12.125a208.617 208.617 0 0 0 22.809 7.961c1.955.553 3.67 1.681 5.071 3.152 4.303 4.518 9.922 7.722 14.062 9.678 6.977 3.295 15.377.127 18.328-7.003.043-.104.086-.208.128-.314 3.165-7.978-3.442-13.921-6.902-16.372z" fill="#ffaa7b"></path><path d="M445.578 247.058c-10.089-7.594-18.511-15.537-22.484-19.441-1.512-1.486-2.462-3.448-2.626-5.561-.536-6.902-2.113-13.779-4.178-20.233-.482 4.371-1.586 9.009-3.49 13.906-5.579 14.346-6.192 27.723-5.815 36.007 8.911 6.626 19.692 11.857 29.207 15.7-5.929-12.348 2.394-17.933 9.386-20.378z" fill="#fc9460"></path><path d="M40.236 374.789c.231.847.59 1.663 1.04 2.455l.075-.373c3.674 1.384 12.382 3.962 19.442.599 2.359-1.124 4.288-2.814 5.805-5.017-4.2-3.388-6.769-7.336-6.049-12.647 1.129-8.324.686-13.711-.198-17.165-7.11-1.685-13.602-5.342-18.449-11.806-3.099-4.131-5.686-8.935-7.37-14.001-9.037 2.542-17.711 8.214-25.725 15.435a243.392 243.392 0 0 0 19.406 48.94c6.623-4.677 12.023-6.42 12.023-6.42z" fill="#bc6242"></path><path d="M305.298 199.801c-2.339-2.339-1.445-5.236.281-7.742 1.911-2.773.752-6.609-2.406-7.776-4.492-1.659-10.198-4.6-15.361-9.764-3.025-3.025-4.966-6.05-6.194-8.829-.115-.26-.25-.507-.375-.76-9.74 4.358-25.083 13.529-23.691 27.65 0 2.558-2.112 4.583-4.669 4.525-1.758-.04-3.848.574-5.969 2.694-5.421 5.421 2.491 16.24 16.609 16.24 12.116 0 10.944 15.587 25.717 21.191 10.045-1.344 17.575-6.439 20.787-11.848 5.916-9.963.565-20.287-4.729-25.581zM219.909 318.472c4.177-5.401 10.204-13.81 15.481-23.496-6.682-8.89-12.529-19.42-17.089-28.736-1.996 3.314-4.415 8.69-3.984 14.851.228 3.264-.765 6.486-2.571 9.214-4.35 6.569-10.74 18.446-5.615 25.387 3.903 5.287 8.762 8.456 12.476 10.28-.795-2.491-.406-5.292 1.302-7.5z" fill="#ffc7ab"></path><path d="M500.317 446.487c-6.585 1.024-6.68 1.134-12.026.942-6.6-.238-12.292-4.676-14.088-11.031-4.517-15.983-13.498-47.531-20.103-69.233-6.921-22.74-30.493-59.522-41.668-76.237a28.715 28.715 0 0 1-4.626-19.525c.751-6.01.962-12.07.574-18.115-.521-8.1-.212-22.28 5.73-37.559 9.178-23.6 0-41.301-9.833-51.134s-5.682-25.786-5.682-25.786 1.513.642 3.813 1.402l-3.098-2.775-.373-.087c-15.537-3.643-20.821-15.014-20.871-15.125l-.224-.502-14.313-6.912c.181 7.037 1.849 12.856 4.199 15.695 8.968 10.829 2.786 28.025 2.786 28.025l-13.439 62.443 8.522 64.573c-10.163 34.885 37.374 74.297 53.042 86.15 2.987 2.26 5.008 5.579 5.566 9.283 4.521 29.975 21.372 52.726 26.615 57.969 5.572 5.572-.328 12.456 3.278 21.961 3.606 9.506 19.667 7.539 29.5 5.245 9.834-2.294 22.453-1.803 25.895-5.245s5.574-16.717-9.176-14.422z" fill="#ffaa7b"></path><path d="M421.758 141.212c5.75-3.485 6.082-16.817 5.98-22.077a2.842 2.842 0 0 1 1.895-2.748c3.276-1.142 8.931-3.89 3.161-7.954-7.758-5.463-6.883-16.061-7.867-23.889-.983-7.827-9.506-19.023-9.506-19.023-42.311 0-53.032 31.219-51.817 50.99l13.091 6.322s5.38 12.103 21.899 15.975c.001 0 15.953 6.775 23.164 2.404z" fill="#ffc7ab"></path><path d="M360.635 451.203c-4.088.086-4.213-.174-7.96-.596a5.404 5.404 0 0 1-4.723-4.546 15.096 15.096 0 0 1 1.914-9.964c6.622-11.245 18.282-31.123 28.368-48.718-.702-4.125-2.277-7.762-4.736-10.875-5.827-7.376-15.105-10.015-20.99-10.965-16.179 23.035-20.491 48.408-20.647 55.425-.175 7.878-9.228 8.373-13.605 17.549-3.283 6.882 2.941 14.367 9.825 20.008l5.768 4.847c3.041 2.556 6.87 4.005 10.842 4.04 10.273.09 19.914 1.759 23.123-.69 3.87-2.955 7.746-15.829-7.179-15.515z" fill="#ffaa7b"></path><path d="m374.742 325.312-.315-.036a12.984 12.984 0 0 1-10.894-8.88c-1.351-4.173-2.889-10.447-2.546-16.637.124-2.238-.307-4.379-1.248-6.192l-.289-.56c-4.489 22.36-2.523 47.117-1.233 58.224.443 3.817-.697 7.61-3.038 10.657a106.074 106.074 0 0 0-3.626 5.028c7.955 1.173 23.766 5.639 25.455 22.598a2013.245 2013.245 0 0 0 8.993-15.802c3.414-6.074 6.71-14.021 9.776-22.708-7.461-7.415-15.08-16.135-20.867-25.425z" fill="#fc9460"></path><path d="M386.171 156.704c4.247 2.666 8.446 7.095 10.805 14.452a19.268 19.268 0 0 1 .232 10.916c-2.686 9.897-10.188 33.182-24.792 49.209-1.428 1.567-2.207 3.603-2.255 5.722-.203 9.07-.139 34.063 5.796 53.271a7.366 7.366 0 0 0 3.57 4.335l7.953 4.234a3.938 3.938 0 0 1 1.507 5.535 6.68 6.68 0 0 0-.902 4.418c.583 4.2.776 13.085-7.206 16.241-.106.042-.212.083-.317.122-7.216 2.731-15.277-1.221-17.653-8.561-1.411-4.356-2.922-10.645-2.577-16.875.112-2.028-.24-4.051-1.175-5.854-4.442-8.558-17.258-35.104-18.061-57.971-.052-1.472.148-2.942.518-4.368l1.587-6.122c.278-1.071.426-2.16.444-3.266.114-7.002 1.854-36.428 22.321-61.907 4.87-6.062 13.619-7.665 20.205-3.531z" fill="#ffc7ab"></path><path d="M412.909 36.662c-1.318-1.747-3.904-1.823-5.423-.248-1.716 1.779-4.394 3.622-8.126 3.622 0 0-25.111 2.392-33.652 18.594a12.213 12.213 0 0 1-1.426 2.134c.356 5.803 2.384 10.732 5.961 14.326 4.021 4.04 9.845 6.205 17.286 6.495 5.565-4.863 14.492-10.962 26.869-13.34 1.28-.246 2.355-1.125 2.764-2.362 1.601-4.848 4.497-17.621-4.253-29.221z" fill="#56415e"></path><path d="M362.46 62.508c-5.227 3.961-17.797 15.727-12.815 34.345 4.113 15.37 11.447 27.546 15.954 34.044 2.132 3.074 6.379 3.835 9.43 1.671 4.146-2.941 8.895-7.161 7.613-10.366-2.185-5.463-16.259-10.271-13.156-20.541 1.917-6.343 7.112-5.101 10.806-3.224 1.324.673 2.796-.56 2.427-2-.949-3.704-1.461-8.79 1.57-11.821a65.05 65.05 0 0 1 4.954-4.471h-.004c-24.122 0-23.532-19.31-23.532-21.513-.796 1.51-1.885 2.843-3.247 3.876z" fill="#47354f"></path><path d="M220.393 381.846a40.435 40.435 0 0 0-.074-1.883c-.392-5.897 1.039-10.322 4.251-13.151 6.371-5.611 17.832-3.453 17.946-3.432l.317.062.609-.142c-5.461-12.05-13.299-25.227-22.511-33.683a8.39 8.39 0 0 1-2.541-4.455c-3.58-1.83-8.112-4.899-11.759-9.838-4.908-6.65 1.422-18.314 5.633-24.673 1.951-2.946 2.901-6.356 2.674-9.603-.376-5.372 1.477-10.156 3.32-13.486 5.545 11.208 11.173 20.585 16.802 28.022 7.644-13.872 13.842-30.475 10.815-44.665-2.595-12.166-1.072-17.931 1.749-20.44-8.12-3.529-13.897-8.052-17.015-13.405-4.164-7.148-2.275-13.257-2.193-13.513l.231-.7-1.356-1.98c-2.656 19.734-3.546 23.055-15.256 28.655-14.325 6.851-54.601 43.806-50.034 84.912 0 0-7.889 22.422 17.855 34.463 17.234 8.061 32.397 23.566 40.537 32.935z" fill="#d1714b"></path><path d="M226.99 203.096v.001a352.495 352.495 0 0 1-.551 3.874c-.148 5.768 2.223 16.783 20.128 24.705 4.102-5.827 13.01-1.103 13.01-1.103 11.534 6.591 22.269 7.938 30.971 6.46-7.771-2.54-11.281-7.77-14.44-12.517-3.114-4.679-6.054-9.098-12.587-9.098-9.244 0-15.371-4.627-17.152-8.926-.995-2.401-.646-4.622.984-6.251 1.712-1.712 3.568-2.586 5.515-2.512a5.133 5.133 0 0 0 3.762-1.479c.995-.973 1.543-2.276 1.54-3.73-1.348-13.673 13.76-22.698 23.357-27.011-3.564-7.833-11.933-12.273-20.348-10.391-13.158 2.943-28.892 10.534-31.706 29.885-1.066 7.336-1.818 13.249-2.483 18.093zM287.608 312.372c-12.273-7.95-22.954-17.961-28.643-23.676a20.089 20.089 0 0 1-5.393-9.927c-1.919-8.832-6.764-26.508-16.463-37.135-4.652-5.098-12.147-6.455-18.373-3.477-7.693 3.679-11.095 12.807-7.644 20.605 6.185 13.974 16.821 35.023 29.492 47.693 13.584 13.584 25.205 17.351 31.38 18.359 2.528.413 4.376 2.624 4.281 5.183-.172 4.652.334 11.518 4.2 15.384 6.228 6.228 9.965 0 12.768 0 1.701 0 2.139 1.548 2.22 4.226.146 4.78 6.526 6.762 9.081 2.72.522-.826.84-1.83.84-3.054.001-6.849.524-25.067-17.746-36.901z" fill="#e58b6c"></path><path d="M104.155 303.325a46.335 46.335 0 0 0-8.642-3.461c-6.021-1.739-10.05-6.76-12.719-12.142-9.382.389-19.966 3.829-22.389 12.631-1.189 4.326-1.312 8.027-.366 10.999.175.551-.426 1.164-1.03.909-6.562-2.794-11.462-2.083-14.171 2.056-6.06 9.267 8.717 21.148 21.322 17.149 3.623-1.151 6.211-.181 7.477 2.806 1.293 3.054.915 7.44-.502 10.728 10.879-.762 21.705-4.636 29.37-9.173a43.71 43.71 0 0 0 4.249-2.849c10.198-7.77 8.761-23.709-2.599-29.653z" fill="#ffc7ab"></path><path d="M73.878 344.937c2.681-6.676 1.247-17.012-7.918-14.104-12.071 3.829-26.224-7.493-20.563-16.15 3.131-4.788 8.858-3.72 13.353-1.808a1.424 1.424 0 0 0 1.688-.46c.274-.361.374-.832.236-1.263-.766-2.405-.949-5.81.374-10.621 2.76-10.036 15.82-11.848 22.093-12.132a42.82 42.82 0 0 1-1.871-4.123c-3.223-8.221-12.209-12.627-20.701-10.203-37.368 10.669-33.218 40.469-20.001 58.093 8.106 10.806 20.79 13.811 33.31 12.771z" fill="#e58b6c"></path><path d="M138.335 158.326c-3.22-6.278-10.975-8.674-17.414-5.788-30.446 13.647-62.966 20.839-95.7 21.492-7.27.145-12.994 6.255-12.763 13.522.227 7.14 6.13 12.838 13.272 12.697 36.374-.723 72.512-8.739 106.328-23.963 6.813-3.067 9.729-11.23 6.277-17.96z" fill="#bec8f7"></path><path d="M209.733 85.076c-24.073 29.072-53.829 51.713-88.44 67.295-6.604 2.973-9.547 10.737-6.574 17.34s10.736 9.547 17.34 6.574c38.294-17.24 71.223-42.3 97.875-74.481 4.618-5.578 3.841-13.846-1.737-18.463-5.559-4.604-13.826-3.861-18.464 1.735z" fill="#d3dcfb"></path><path d="M246.194 25.61a247.622 247.622 0 0 1-36.461 59.468c-4.619 5.578-3.842 13.844 1.737 18.463 5.578 4.618 13.845 3.842 18.463-1.738a273.826 273.826 0 0 0 40.325-65.761c2.88-6.646-.171-14.367-6.816-17.247-6.645-2.882-14.369.172-17.248 6.815z" fill="#deeeff"></path><path d="M212.113 32.799c2.413 6.829 9.903 10.409 16.732 7.996l31-10.949 10.95 30.998c2.413 6.829 9.903 10.409 16.732 7.996 6.832-2.405 10.409-9.903 7.997-16.731L280.206 8.746A13.113 13.113 0 0 0 263.474.75L220.11 16.068c-6.798 2.383-10.417 9.881-7.997 16.731z" fill="#deeeff"></path><path d="M261.136 463.096a7.418 7.418 0 0 0 7.417-7.168c.166-4.947-.288-11.133-3.163-14.008-3.393-3.393-12.466-2.882-18.341-2.121-2.55.33-4.641-1.974-4.055-4.478 2.686-11.465 8.694-37.981 8.694-45.719 0-4.55-3.294-15.679-8.883-27.694-.017-.003-25.521-5.025-23.982 18.154v.001a181.42 181.42 0 0 1 3.105 3.572 13.837 13.837 0 0 1 2.773 12.623c-2.583 9.399-6.533 27.3-4.843 44.147.157 1.56.177 3.131-.013 4.687l-1.031 8.417c-.624 5.094 3.351 9.586 8.484 9.586h33.838z" fill="#e58b6c"></path><path d="M98.359 424.557c3.788-2.797 7.462-8.698 5.479-21.13-2.765-17.346-27.542-22.168-38.375-31.942-7.744 11.497-25.227 3.304-25.227 3.304 3.996 14.652 42.649 20.671 48.617 26.64 3.012 3.012.922 7.31-1.886 10.828-2.967 3.716-2.42 9.111 1.328 12.037 2.934 2.289 7.071 2.473 10.064.263z" fill="#d1714b"></path></g></svg>