<svg viewBox="0 0 512 512" xmlns="http://www.w3.org/2000/svg"><g><g fill="#73d3e6"><path d="M497 302h-90c-8.28 0-15 6.72-15 15v90c0 8.28 6.72 15 15 15h73.49c-3.8 18.63-14.53 34.78-29.37 45.61C438.73 476.66 423.48 482 407 482c-8.28 0-15 6.72-15 15s6.72 15 15 15c15.75 0 30.69-3.48 44.11-9.73C487.03 485.58 512 449.15 512 407v-90c0-8.28-6.72-15-15-15zM347 302h-90c-8.28 0-15 6.72-15 15v90c0 8.28 6.72 15 15 15h73.49c-3.72 18.26-14.1 34.14-28.49 44.96-12.54 9.44-28.13 15.04-45 15.04-8.28 0-15 6.72-15 15s6.72 15 15 15c16.1 0 31.36-3.64 45-10.15 35.45-16.87 60-53.05 60-94.85v-90c0-8.28-6.72-15-15-15zM255 90h-73.49c3.72-18.26 14.1-34.14 28.49-44.96C222.54 35.6 238.13 30 255 30c8.28 0 15-6.72 15-15s-6.72-15-15-15c-16.1 0-31.36 3.64-45 10.15-35.45 16.87-60 53.05-60 94.85v90c0 8.28 6.72 15 15 15h90c8.28 0 15-6.72 15-15v-90c0-8.28-6.72-15-15-15zM105 90H31.51C35.23 71.74 45.61 55.86 60 45.04 72.54 35.6 88.13 30 105 30c8.28 0 15-6.72 15-15s-6.72-15-15-15C88.9 0 73.64 3.64 60 10.15 24.55 27.02 0 63.2 0 105v90c0 8.28 6.72 15 15 15h90c8.28 0 15-6.72 15-15v-90c0-8.28-6.72-15-15-15z" fill="#73d3e6"></path></g><path d="M270 195v-90c0-8.284-6.716-15-15-15h-45v120h45c8.284 0 15-6.716 15-15zM120 195v-90c0-8.284-6.716-15-15-15H60v120h45c8.284 0 15-6.716 15-15z" fill="#5cb8e6"></path><g fill="#5cb8e6"><path d="M512 317v90c0 42.15-24.97 78.58-60.89 95.27 0-11.5 0-23.81.01-34.66 14.84-10.83 25.57-26.98 29.37-45.61h-29.21c.26-61.08.72-120 .72-120h45c8.28 0 15 6.72 15 15zM362 317v90c0 41.8-24.55 77.98-60 94.85v-34.89c14.39-10.82 24.77-26.7 28.49-44.96H302V302h45c8.28 0 15 6.72 15 15zM120 15c0 8.28-6.72 15-15 15-16.87 0-32.46 5.6-45 15.04V10.15C73.64 3.64 88.9 0 105 0c8.28 0 15 6.72 15 15zM270 15c0 8.28-6.72 15-15 15-16.87 0-32.46 5.6-45 15.04V10.15C223.64 3.64 238.9 0 255 0c8.28 0 15 6.72 15 15z" fill="#5cb8e6"></path></g></g></svg>