<svg viewBox="0 0 512 512" xmlns="http://www.w3.org/2000/svg"><g><path d="M160 92v16h-32c-17.645 0-32 14.355-32 32v16.667c0 35.29 28.71 64 64 64h24.706c17.57 19.473 43.001 31.714 71.294 31.714 53.019 0 96-42.98 96-96V92zm0 96.667c-17.645 0-32-14.355-32-32V140h32v16.381a95.827 95.827 0 0 0 5.571 32.286z" fill="#fbbe18"></path><path d="M324.762 388c0-12.729-10.319-23.048-23.048-23.048-19.093 0-34.571-15.478-34.571-34.571v-83.762h-23.048v83.762c0 19.093-15.478 34.571-34.571 34.571-12.729 0-23.048 10.319-23.048 23.048z" fill="#fbbe18"></path><path d="M324.762 388c0-12.729-10.319-23.048-23.048-23.048-19.093 0-34.571-15.478-34.571-34.571v-83.762h-23.048v28.81h11.524V388zM352 92H160c-8.837 0-16-7.163-16-16s7.163-16 16-16h192c8.837 0 16 7.163 16 16s-7.163 16-16 16z" fill="#f68820"></path><path d="M256 92h-96c-8.837 0-16-7.163-16-16s7.163-16 16-16h96c8.837 0 16 7.163 16 16s-7.163 16-16 16z" fill="#fbbe18"></path><path d="M384 108h-32V92H160v16h96v48.381c0 35.533-19.306 66.555-48 83.154 14.121 8.169 30.514 12.846 48 12.846 28.293 0 53.724-12.242 71.294-31.714H352c35.29 0 64-28.71 64-64V140c0-17.645-14.355-32-32-32zm0 48.667c0 17.645-14.355 32-32 32h-5.571A95.822 95.822 0 0 0 352 156.381V140h32z" fill="#f68820"></path><circle cx="208" cy="156" fill="#fbd301" r="16"></circle><path d="M224 300h-16v-8c0-13.255-10.745-24-24-24h-40c-17.673 0-32 14.327-32 32v136a54.626 54.626 0 0 0 38.627 16H224c17.673 0 32-14.327 32-32v-88c0-17.673-14.327-32-32-32z" fill="#464646"></path><path d="M64 428V308a8 8 0 0 1 8-8h40v136H72a8 8 0 0 1-8-8z" fill="#323232"></path><path d="M64 364v-56a8 8 0 0 1 8-8h24v64z" fill="#464646"></path><path d="M160 296a4 4 0 0 0 4 4h44v-8h-44a4 4 0 0 0-4 4z" fill="#323232"></path><path d="M224 332h-56a8 8 0 0 1 0-16h56a8 8 0 0 1 0 16z" fill="#58595b"></path><path d="M80 326.667V364h16v-37.333a8 8 0 0 0-16 0z" fill="#d7e6f0"></path><path d="M80 364v45.333a8 8 0 0 0 16 0V364z" fill="#8caac8"></path><path d="M64 428H16V308h48z" fill="#fab991"></path><path d="M64 428H16v-64h48z" fill="#f0915a"></path><path d="M368 268h-40c-13.255 0-24 10.745-24 24v8h-16c-17.673 0-32 14.327-32 32v88c0 17.673 14.327 32 32 32h73.373A54.624 54.624 0 0 0 400 436V300c0-17.673-14.327-32-32-32z" fill="#f04b37"></path><path d="M344 332h-56a8 8 0 0 1 0-16h56a8 8 0 0 1 0 16z" fill="#ff6955"></path><path d="M448 428V308a8 8 0 0 0-8-8h-40v136h40a8 8 0 0 0 8-8z" fill="#be281e"></path><path d="M448 364v-56a8 8 0 0 0-8-8h-24v64z" fill="#f04b37"></path><path d="M352 296a4 4 0 0 1-4 4h-44v-8h44a4 4 0 0 1 4 4z" fill="#be281e"></path><path d="M432 326.667V364h-16v-37.333a8 8 0 0 1 16 0z" fill="#d7e6f0"></path><path d="M432 364v45.333a8 8 0 0 1-16 0V364z" fill="#8caac8"></path><path d="M448 308h48v120h-48z" fill="#fab991"></path><path d="M448 364h48v64h-48z" fill="#f0915a"></path><path d="M416 236h-16v-16a8 8 0 0 1 16 0zM440 244a8 8 0 0 1-8 8h-16v-16h16a8 8 0 0 1 8 8zM400 252h16v16a8 8 0 0 1-16 0zM376 244a8 8 0 0 1 8-8h16v16h-16a8 8 0 0 1-8-8zM112 236H96v-16a8 8 0 0 1 16 0zM136 244a8 8 0 0 1-8 8h-16v-16h16a8 8 0 0 1 8 8zM96 252h16v16a8 8 0 0 1-16 0zM72 244a8 8 0 0 1 8-8h16v16H80a8 8 0 0 1-8-8z" fill="#fabe19"></path></g></svg>