<svg viewBox="0 0 512.001 512" xmlns="http://www.w3.org/2000/svg"><g><path d="M404.941 491.715 368.18 366.73l-30.16-34-59.204 47.7 43.7 111.285zm0 0" fill="#faccae"></path><path d="m371.656 378.559-3.476-11.829-30.16-34-59.204 47.7 17.676 45.015c27.211-15.226 52.278-30.87 75.164-46.886zm0 0" fill="#f6af8c"></path><path d="M107.059 491.715 143.82 366.73l30.16-34 59.208 47.7-43.704 111.285zm0 0" fill="#faccae"></path><path d="m140.344 378.559 3.476-11.829 30.16-34 59.204 47.7-17.676 45.015c-27.211-15.226-52.278-30.87-75.164-46.886zm0 0" fill="#f6af8c"></path><path d="M256 53.617C78.996-119.367-214.207 160.375 247.305 407.63a18.434 18.434 0 0 0 17.39 0C726.207 160.375 433.004-119.367 256 53.617zm0 0" fill="#ed697f"></path><path d="M154.504 1.422C-1.937-20-131.375 204.75 247.304 407.629a18.434 18.434 0 0 0 17.391 0c4.028-2.16 7.993-4.32 11.91-6.484C-54.313 218.28 21.668 20.03 154.504 1.422zm0 0" fill="#e43c55"></path><g fill="#3a484a"><path d="M160.195 215.64a7.726 7.726 0 0 1-7.726-7.726v-17.336c0-4.27 3.46-7.726 7.726-7.726a7.724 7.724 0 0 1 7.727 7.726v17.336a7.724 7.724 0 0 1-7.727 7.727zM351.805 215.64a7.724 7.724 0 0 1-7.727-7.726v-17.336a7.724 7.724 0 0 1 7.727-7.726 7.726 7.726 0 0 1 7.726 7.726v17.336c0 4.27-3.46 7.727-7.726 7.727zM256 224.898c-11.445 0-22.184-4.777-29.465-13.105a7.725 7.725 0 0 1 .735-10.902 7.725 7.725 0 0 1 10.902.734c4.344 4.969 10.84 7.82 17.828 7.82 6.984 0 13.484-2.851 17.828-7.82a7.725 7.725 0 0 1 10.902-.734c3.211 2.808 3.543 7.691.73 10.902-7.276 8.328-18.015 13.105-29.46 13.105zm0 0" fill="#3a484a"></path></g><path d="M400.45 491.715h59.597l-70.395-179.262c-5.597-14.258-21.695-21.277-35.953-15.68-14.258 5.602-21.277 21.7-15.68 35.957zM111.55 491.715H51.954l70.395-179.262c5.597-14.258 21.695-21.277 35.957-15.68 14.257 5.602 21.277 21.7 15.675 35.957zm0 0" fill="#faccae"></path></g></svg>