<svg viewBox="0 0 340 340" xmlns="http://www.w3.org/2000/svg"><g><path d="m117.268 259.597 212.541.426-.135 67.724-212.541-.426z" fill="#95bcf4"></path><path d="m117.241 285.295-.08 42.015 212.541.407.081-42.422z" fill="#6997e0"></path><path d="M268.21 153.962a80.05 80.05 0 0 1 3.181-41.443 73.989 73.989 0 0 1 21.358-30.676c35.295-30.741 32.032-63.951 32-64.283l4.969-.555c.163 1.461 3.571 36.164-33.679 68.608A69 69 0 0 0 276.1 114.2a75.119 75.119 0 0 0-2.97 38.886z" fill="#e6e6e6"></path><path d="m68.6 164.039 30.971-4.762a22.014 22.014 0 0 0 10.663-4.74c4.429-3.647 15.459-9.789 25.4-4.792l-11.883 22.768-51.167 12.92-10.208-12.107z" fill="#e5897a"></path><path d="M121.09 169.905S153.625 31.28 325.91 12.307a3.945 3.945 0 0 1 4.388 3.919 3.931 3.931 0 0 1-3.37 3.887c-22.114 3.151-147.156 26.56-191.34 157.22z" fill="#72645a"></path><path d="M93.684 56.27s2.67 24.73-7.611 43.595c-4.919 9.026-16.24 12.756-25.221 7.753a27.052 27.052 0 0 1-1.017-.6l-.022 11.078s14.042 15.6 14.006 34.457l-.085 44.31-42.857 22.667.143-74.512a54.664 54.664 0 0 1 2.567-16.445l.32-1.006a54.622 54.622 0 0 0 2.567-16.444l.056-29.3.049-25.658z" fill="#f9beac"></path><path d="m36.579 56.161-.016 8.787h57.425a80.523 80.523 0 0 0-.3-8.678z" fill="#e5897a"></path><path d="M19.83 56.129S17.666 83.28 36.806 94.1l3.111-2.564a7.142 7.142 0 0 0 1.593-9.257 5.289 5.289 0 0 1-.121-.2C37.14 75.06 45.041 66.716 52.145 70.82a14.9 14.9 0 0 1 4.585 4.347s11.567-9.453 8.9-24.128l-40.717-.079z" fill="#313847"></path><path d="m90.769 56.265 22.26.042a8.277 8.277 0 0 0 8.294-8.262 8.278 8.278 0 0 0-8.262-8.294L87.807 39.7z" fill="#f96262"></path><path d="m19.83 56.129 73.854.141s1.532-28.323-21.626-38.062a37.917 37.917 0 0 0-34.952 2.954c-8.615 5.495-17.24 15.786-17.276 34.967zM30.877 219.53s3.352 23.755 28.137 23.8l59.944.114.067-35.159-45.291-11.43z" fill="#f96262"></path><path d="M73.779 171.613c-2.317-1.468-3.977-5.164-3.977-5.164l-8.65-22.684c-4.685-13.879-16.684-10.6-16.684-10.6l5.748 33.483 12.16 17.693 11.37 6.5z" fill="#e5897a"></path><path d="m119.025 208.288 30.389 7.669a17.5 17.5 0 0 1 13.186 18.035l-3.281 53.926a12.664 12.664 0 0 0 4.805 10.718l8.825 6.952a8.5 8.5 0 0 1 2.813 9.329 8.5 8.5 0 0 1-11.858 4.949l-17.25-8.593a14.811 14.811 0 0 1-8.206-13.285l.086-45.139a9.363 9.363 0 0 0-9.345-9.382l-10.234-.02z" fill="#f9beac"></path><path d="M261.246 155.8c-6.28 12.664-11.354 32.465 3.46 51.269 0 0-12.682 12.352-6.522 27.272l14.086-11.224 13.761 11.278s7.066-17.708-8.069-27.679c0 0 17.9-25.871 2.417-51.756a10.948 10.948 0 0 0-19.133.84z" fill="#b7dff4"></path><path d="m9.841 243.24 119.2.239a9.566 9.566 0 0 1 9.547 9.585l-.148 74.3-128.766-.257.167-83.866z" fill="#ffe4d2"></path><path d="M135.588 177.333a249.902 249.902 0 0 1 5.581-14.881c-4.508-6.015-11.479-6.915-15.4-6.887a125.462 125.462 0 0 0-4.679 14.335z" fill="#564941"></path><path d="m73.734 196.858-19.9 10.529A27.519 27.519 0 0 0 83 216.266l30.869-9.278z" fill="#d34242"></path><path d="m73.752 187.607-9.2.529L40.934 147l-9.919.706-.023 11.922 19.064 41.722a27.519 27.519 0 0 0 3.774 6.037l19.9-10.529z" fill="#e5897a"></path><path d="M52.674 136.625c2.219 2.066 4.01 6.027 6.249 11.438l8.3 22.206a12.083 12.083 0 0 0 13.522 7.649l23.925-4.439a21.964 21.964 0 0 0 12.588-7.206 12.248 12.248 0 0 1 15.895-2.268 12.249 12.249 0 0 1 4 16.357 27.369 27.369 0 0 1-16.469 12.826c-9.879 2.738-26.167 6.673-41.251 9.374a27.113 27.113 0 0 1-27.618-12.207C45.67 180.7 37.938 167.513 32.462 154.6a17.2 17.2 0 0 1-.151-13.448q.182-.425.387-.849a12.528 12.528 0 0 1 19.976-3.678z" fill="#f9beac"></path><path d="M277.962 206.715a57 57 0 0 0 8.1-21.393c-5.126 7.568-13 15.193-24.525 17.222a49.538 49.538 0 0 0 3.167 4.524s-12.682 12.352-6.522 27.272l14.086-11.224 13.761 11.278s7.071-17.708-8.067-27.679zM265.09 169.73c1.2 3.67 3.207 8.109 6.376 10.747a35.053 35.053 0 0 0 5.957-10.221.988.988 0 0 0-1.647-1.018 40.75 40.75 0 0 1-1.653 1.682 4.075 4.075 0 0 1-5.868-.247c-.48-.543-.99-1.152-1.5-1.811a.953.953 0 0 0-1.665.868z" fill="#92b9cb"></path><path d="M52.265 101.237a1.268 1.268 0 0 0-1.848 1.676l9.4 15.178.021-11.078z" fill="#e5897a"></path><path d="M80.065 23a18.234 18.234 0 0 1-4.143 12.872 2.37 2.37 0 0 0 1.854 3.838h13.4A35.709 35.709 0 0 0 80.065 23z" fill="#d34242"></path><path d="M76.214 80.951a4.012 4.012 0 1 1 2.83-1.18 3.993 3.993 0 0 1-2.83 1.18z" fill="#313847"></path><g fill="#fff"><path d="M273.954 276.933H250.1a4.014 4.014 0 0 1 0-8.028h23.859a4.014 4.014 0 1 1 0 8.028zM214.121 306.377h-20.778a4 4 0 0 1 0-8h20.778a4 4 0 1 1 0 8zM222.769 276.933h-12.822a4.014 4.014 0 0 1 0-8.028h12.822a4.014 4.014 0 0 1 0 8.028zM299.161 306.506h-2.787a4.014 4.014 0 0 1 0-8.028h2.787a4.014 4.014 0 0 1 0 8.028zM259.862 306.377h-17.778a4 4 0 0 1 0-8h17.778a4 4 0 0 1 0 8z" fill="#ffffff"></path></g></g></svg>