<svg viewBox="0 0 512 512" xmlns="http://www.w3.org/2000/svg"><g><circle cx="449.866" cy="419.635" fill="#475959" r="29.422"></circle><circle cx="37.92" cy="88.83" fill="#617881" r="25.888"></circle><path d="M479.225 189.135c-3.736-3.085-5.54-7.883-4.938-12.691.367-2.935.533-5.932.482-8.977-.559-33.315-27.53-60.739-60.832-61.82-21.736-.705-41.103 9.616-52.932 25.795a13.868 13.868 0 0 1-15.099 5.103 87.811 87.811 0 0 0-24.961-3.599c-10.943 0-21.418 2.002-31.08 5.66-7.483 2.833-15.91-1.256-18.329-8.883-11.512-36.295-45.978-62.372-86.351-61.182-31.416.926-58.794 18.596-73.548 44.292-2.047 3.565-5.925 5.68-10.035 5.603a34.492 34.492 0 0 0-3.995.159c-16.326 1.597-29.228 15.192-30.043 31.575a33.514 33.514 0 0 0 1.607 12.112c1.849 5.654-1.096 11.698-6.591 13.979C25.085 191.827-1.055 229.234.033 272.607c1.356 54.025 45.551 97.873 99.584 98.827 14.187.25 27.724-2.412 40.052-7.429 6.996-2.847 15.109.652 18.101 7.587 10.214 23.675 33.765 40.246 61.188 40.246 22.094 0 41.676-10.758 53.793-27.321 4.595-6.281 13.479-7.739 19.702-3.067 12.952 9.724 29.049 15.486 46.491 15.486 29.486 0 55.126-16.465 68.229-40.702a14.263 14.263 0 0 1 12.875-7.504c.793.016 1.588.022 2.386.017 49.307-.287 89.577-40.813 89.566-90.121-.006-27.973-12.763-52.969-32.775-69.491z" fill="#617881"></path><path d="M479.225 189.135c-3.736-3.085-5.54-7.883-4.938-12.691.367-2.935.533-5.932.482-8.977-.54-32.189-25.737-58.878-57.477-61.62 9.884 10.941 16.007 25.325 16.27 41.017a63.553 63.553 0 0 1-.482 8.977c-.602 4.808 1.202 9.606 4.938 12.691 20.012 16.522 32.768 41.518 32.775 69.494.011 49.308-40.259 89.834-89.566 90.121a90.223 90.223 0 0 1-2.386-.017 14.263 14.263 0 0 0-12.875 7.504c-13.102 24.237-38.743 40.702-68.229 40.702-17.443 0-33.54-5.762-46.492-15.486-6.223-4.673-15.107-3.214-19.702 3.067-12.117 16.563-31.699 27.321-53.793 27.321-2.481 0-4.93-.136-7.34-.401 12.15 12.929 29.405 21.004 48.548 21.004 22.094 0 41.676-10.758 53.793-27.321 4.595-6.281 13.479-7.739 19.702-3.067 12.952 9.724 29.049 15.486 46.492 15.486 29.486 0 55.126-16.465 68.229-40.702a14.263 14.263 0 0 1 12.875-7.504c.793.016 1.588.022 2.386.017 49.307-.287 89.577-40.813 89.566-90.121-.007-27.976-12.764-52.972-32.776-69.494z" fill="#475959"></path><path d="M393.399 330.798c-8.887 0-17.536-2.369-25.154-6.91a7.727 7.727 0 0 1 7.912-13.274c5.7 3.397 12.256 5.017 18.957 4.688 16.726-.825 30.428-14.002 31.872-30.651.032-.369.059-.741.079-1.112.355-6.461 3.557-12.367 8.787-16.207 5.59-4.105 8.653-10.698 8.196-17.638a19.894 19.894 0 0 0-3.402-9.841 7.726 7.726 0 0 1 12.788-8.674 35.362 35.362 0 0 1 6.033 17.499c.806 12.234-4.603 23.864-14.469 31.109-1.469 1.078-2.405 2.798-2.504 4.597-.029.53-.067 1.065-.113 1.602-2.108 24.309-22.101 43.546-46.505 44.752-.827.039-1.653.06-2.477.06zm-204.232-23.617a7.727 7.727 0 1 0-11.39-10.443 35.786 35.786 0 0 1-26.31 11.575c-9.268 0-18.05-3.536-24.728-9.958-7.018-6.746-17.014-9.356-26.747-6.976-2.14.524-4.357.79-6.589.79-7.527 0-14.562-2.974-19.808-8.374-5.244-5.398-8.013-12.524-7.794-20.065a7.727 7.727 0 0 0-7.5-7.947c-4.305-.136-7.823 3.234-7.947 7.5-.34 11.752 3.978 22.86 12.157 31.28 8.182 8.422 19.152 13.059 30.892 13.059 3.469 0 6.922-.414 10.262-1.232 4.494-1.099 9.23.093 12.365 3.106 9.571 9.202 22.157 14.271 35.438 14.271 14.294-.001 28.035-6.046 37.699-16.586z" fill="#475959"></path><path d="M432.133 311.887c-14.475 10.141-32.028 16.149-50.906 16.259a90.223 90.223 0 0 1-2.386-.017c-.455-.009-.906.004-1.354.036a49.157 49.157 0 0 0 15.912 2.633c.824 0 1.65-.021 2.477-.061 14.645-.724 27.701-7.941 36.257-18.85z" fill="#404a4a"></path><path d="M368.244 294.643h-28.802a7.726 7.726 0 0 1-6.143-12.413l25.499-33.426a8.44 8.44 0 0 0 1.72-5.092c0-3.681-2.994-6.675-6.675-6.675s-6.675 2.994-6.675 6.675a7.726 7.726 0 1 1-15.452 0c0-12.201 9.927-22.128 22.128-22.128s22.127 9.927 22.127 22.128a23.978 23.978 0 0 1-4.888 14.465l-16.029 21.012h13.191c4.267 0 7.726 3.459 7.726 7.726s-3.46 7.728-7.727 7.728zM185.427 272.903c-11.168 0-22.336-4.25-30.839-12.753-17.004-17.004-17.004-44.672-.001-61.677 17.005-17.004 44.673-17.005 61.677-.001a7.727 7.727 0 1 1-10.927 10.928c-10.979-10.979-28.844-10.981-39.823 0-10.979 10.979-10.979 28.844 0 39.823 10.98 10.98 28.845 10.981 39.823 0a7.727 7.727 0 1 1 10.927 10.928c-8.501 8.502-19.669 12.752-30.837 12.752zM277.801 272.923c-24.048 0-43.612-19.564-43.612-43.612s19.564-43.612 43.612-43.612 43.612 19.564 43.612 43.612-19.564 43.612-43.612 43.612zm0-71.77c-15.527 0-28.159 12.632-28.159 28.159s12.632 28.159 28.159 28.159 28.159-12.632 28.159-28.159-12.632-28.159-28.159-28.159z" fill="#9bb9c1"></path></g></svg>