<svg viewBox="0 0 64 64" xmlns="http://www.w3.org/2000/svg"><g><path d="M43 4v16.5a.984.984 0 0 1-.29.7L37 26.96 32 32l-.41-.41L27 26.96l-5.71-5.76a.984.984 0 0 1-.29-.7V4z" fill="#e81e25"></path><path d="M40.68 49.66a1.654 1.654 0 0 0-.47 1.46l1.19 6.95a1.651 1.651 0 0 1-2.39 1.74l-6.24-3.28a1.618 1.618 0 0 0-1.54 0l-1.22.64-2.87 1.51-2.15 1.13a1.651 1.651 0 0 1-2.39-1.74l1.19-6.95a1.654 1.654 0 0 0-.47-1.46l-5.05-4.92a1.647 1.647 0 0 1 .91-2.81l6.99-1.01a1.694 1.694 0 0 0 1.24-.9l3.11-6.33a1.654 1.654 0 0 1 2.96 0l2.1 4.27 1.01 2.06a1.688 1.688 0 0 0 .66.69 1.5 1.5 0 0 0 .58.21l6.99 1.01a1.647 1.647 0 0 1 .91 2.81z" fill="#fbc926"></path><path d="m32.746 40.72 1.578 3.2a.832.832 0 0 0 .627.455l3.529.513a.832.832 0 0 1 .461 1.42L36.388 48.8a.832.832 0 0 0-.24.736l.6 3.515a.832.832 0 0 1-1.207.877l-3.157-1.659a.834.834 0 0 0-.774 0l-3.157 1.659a.832.832 0 0 1-1.207-.877l.6-3.515a.832.832 0 0 0-.24-.736l-2.553-2.489a.832.832 0 0 1 .461-1.42l3.529-.513a.832.832 0 0 0 .627-.455l1.578-3.2a.832.832 0 0 1 1.498-.003z" fill="#ffe89b"></path><path d="M37 4v22.96L32 32l-5-5.04V4z" fill="#d30d1c"></path><path d="M40.68 49.66a1.654 1.654 0 0 0-.47 1.46l1.19 6.95a1.651 1.651 0 0 1-2.39 1.74l-6.24-3.28a1.618 1.618 0 0 0-1.54 0l-1.22.64-2.87 1.51a62.179 62.179 0 0 0 10.11-17.97 1.5 1.5 0 0 0 .58.21l6.99 1.01a1.647 1.647 0 0 1 .91 2.81zM43 4v16.5a.984.984 0 0 1-.29.7L37 26.96 32 32l-.41-.41A144.932 144.932 0 0 0 38.05 4z" fill="#000000" opacity=".2"></path></g></svg>