<svg viewBox="0 0 256 256" xmlns="http://www.w3.org/2000/svg"><g><path d="M231.732 67.644A62.4 62.4 0 0 0 240 36a63.54 63.54 0 0 0-6.29-28 2.179 2.179 0 0 0-2.043 1.47 40.058 40.058 0 0 1-28.044 25.362A119.493 119.493 0 0 0 128 8a119.492 119.492 0 0 0-75.623 26.832A40.059 40.059 0 0 1 24.333 9.47 2.179 2.179 0 0 0 22.29 8 63.54 63.54 0 0 0 16 36a62.4 62.4 0 0 0 8.268 31.644A119.437 119.437 0 0 0 8 128v20a100 100 0 0 0 100 100h40a100 100 0 0 0 100-100v-20a119.437 119.437 0 0 0-16.268-60.356z" fill="#f15143"></path><path d="M248 128v20a100 100 0 0 1-100 100h-40a100.026 100.026 0 0 1-93.13-63.51A99.923 99.923 0 0 0 100 232h40a100 100 0 0 0 100-100v-20a119.53 119.53 0 0 0-8.92-45.46A119.346 119.346 0 0 1 248 128z" fill="#d43232"></path><g fill="#4f3816"><path d="M184 76a20 20 0 0 1 20 20v2a18 18 0 0 1-18 18h-4a18 18 0 0 1-18-18v-2a20 20 0 0 1 20-20zM72 76a20 20 0 0 1 20 20v2a18 18 0 0 1-18 18h-4a18 18 0 0 1-18-18v-2a20 20 0 0 1 20-20zM148.341 112.9a1.973 1.973 0 0 1 3.532 1.625l-.028.094a20.1 20.1 0 0 1-5.179 8.508 21.481 21.481 0 0 1-8.935 5.163 22.019 22.019 0 0 1-5.2.852c-.469.043-.822.036-1.189.041l-1.106.012-2.213.024-2.213-.021-1.106-.012c-.367-.005-.719 0-1.189-.037a22.322 22.322 0 0 1-5.2-.849 21.474 21.474 0 0 1-8.939-5.164 20.069 20.069 0 0 1-5.182-8.512l-.044-.152a1.973 1.973 0 0 1 3.532-1.624 20.926 20.926 0 0 0 5.678 5.421 19.5 19.5 0 0 0 6.773 2.665 17.1 17.1 0 0 0 3.55.317c.267.015.652.012 1.023.006l1.106-.012 2.213-.021 2.213.024 1.106.012c.371.006.756.008 1.023 0a17.5 17.5 0 0 0 3.552-.314 19.476 19.476 0 0 0 6.777-2.665 20.857 20.857 0 0 0 5.645-5.381z" fill="#4f3816"></path><path d="M205.164 69.025c2.519-.281 3.9 1.9 1.826 2.876-2.23 1.048-4.523 2-6.842 2.9-4.609 1.77-9.365 3.307-14.247 4.647s-9.894 2.474-15.054 3.376c-2.632.444-5.29.847-8.013 1.148-2.517.278-3.9-1.9-1.826-2.876 2.243-1.057 4.551-2.012 6.885-2.926a148.967 148.967 0 0 1 14.252-4.639c4.887-1.332 9.9-2.466 15.059-3.368 2.616-.436 5.256-.836 7.96-1.138zM49.01 71.9c-2.078-.976-.693-3.157 1.826-2.876 2.7.3 5.345.7 7.96 1.143 5.16.9 10.173 2.035 15.059 3.368a148.967 148.967 0 0 1 14.252 4.639c2.334.914 4.642 1.869 6.885 2.926 2.073.977.691 3.154-1.826 2.876-2.723-.3-5.381-.7-8.013-1.148q-7.74-1.353-15.054-3.376c-4.882-1.339-9.638-2.877-14.247-4.647-2.318-.905-4.612-1.857-6.842-2.905z" fill="#4f3816"></path></g></g></svg>