<svg viewBox="0 0 512 512" xmlns="http://www.w3.org/2000/svg"><g><path d="m210.85 298.895-101.771 30.148C60.35 344.554 27.61 389.333 27.61 440.47V512h86.499l15-16.145 15 16.145H256l45.15-68.505L256 254.029z" fill="#ff608b"></path><path d="M402.922 329.043 301.15 298.895l-41.23-48.762-3.92 3.895V512h111.892l15-15.484 15 15.484h86.499v-71.529c0-51.138-32.741-95.917-81.469-111.428zM114.108 439.301h30V512h-30z" fill="#ea2a78"></path><path d="M367.892 439.301h30V512h-30z" fill="#ca005e"></path><path d="M210.85 235.351v69.125c0 24.936 20.214 45.15 45.15 45.15l28.92-53.763L256 235.351z" fill="#ffd1c3"></path><path d="M256 235.351v114.275c24.936 0 45.15-20.215 45.15-45.15v-69.125z" fill="#ffbab1"></path><path d="M146.546 109.455v54.498c0 60.354 49.101 109.455 109.454 109.455l52.259-122.462L256 0c-60.354 0-109.454 49.101-109.454 109.455z" fill="#ffe0d3"></path><path d="M256 0v273.407c60.354 0 109.454-49.101 109.454-109.455v-54.498C365.454 49.101 316.354 0 256 0z" fill="#ffd1c3"></path><path d="M241 120.546v47.61h15l7.575-23.805L256 120.546zM210.85 105.396h30c0-8.354 6.797-15.15 15.15-15.15L271.013 79.3 256 60.246c-24.896 0-45.15 20.254-45.15 45.15z" fill="#53d6d6"></path><path d="M256 60.246v30c8.354 0 15.15 6.796 15.15 15.15s-6.797 15.15-15.15 15.15v47.61h15v-20.171c17.545-6.198 30.15-22.949 30.15-42.589 0-24.896-20.254-45.15-45.15-45.15z" fill="#33c0d7"></path><path d="M241 206.269c.364 8.127 6.591 15 15 15l11.009-15-11.009-15c-7.846 0-15.363 6.899-15 15z" fill="#53d6d6"></path><path d="M271 206.269c-.364-8.127-6.591-15-15-15v30c7.846 0 15.363-6.9 15-15z" fill="#33c0d7"></path></g></svg>