<svg height="512" viewBox="0 0 128 128" width="512" xmlns="http://www.w3.org/2000/svg"><g><path d="m93.83 47.89v10.59a29.224 29.224 0 0 1 -29.25 29.25h-1.16a29.224 29.224 0 0 1 -29.25-29.25v-10.59a29.224 29.224 0 0 1 29.25-29.25h1.16a29.249 29.249 0 0 1 29.25 29.25z" fill="#ffe2da"/><path d="m93.829 44.216h1.527a8.087 8.087 0 0 1 8.087 8.086v1.761a8.087 8.087 0 0 1 -8.087 8.086h-1.527c-11.088 0-11.088-17.933 0-17.933z" fill="#ffe2da"/><path d="m74.63 57.208h-.053a1.75 1.75 0 0 1 -1.7-1.8l.136-4.552a1.774 1.774 0 0 1 1.8-1.7 1.75 1.75 0 0 1 1.7 1.8l-.136 4.553a1.749 1.749 0 0 1 -1.747 1.699z" fill="#57565c"/><path d="m53.235 57.208h-.054a1.75 1.75 0 0 1 -1.7-1.8l.137-4.552a1.75 1.75 0 1 1 3.5.105l-.137 4.552a1.749 1.749 0 0 1 -1.746 1.695z" fill="#57565c"/><path d="m77 39.81s-3.32.04-7.33.11c-.34 0-.68.01-1.02.01a12.583 12.583 0 0 1 -12.77-12.59v-7.69a28 28 0 0 1 7.54-1.01h1.16a28.228 28.228 0 0 1 9.81 1.72c-.31 7.39-.11 14.59 2.61 19.45z" fill="#dd9f82"/><path d="m63.649 68.243a14.3 14.3 0 0 1 -6.011-1.363 1.75 1.75 0 0 1 1.462-3.18 10.78 10.78 0 0 0 9.762-.263 1.75 1.75 0 0 1 1.538 3.14 15.213 15.213 0 0 1 -6.751 1.666z" fill="#57565c"/><path d="m87.123 64.307a4.056 4.056 0 0 0 -4.076-4.056l-2.678.013a4.054 4.054 0 0 0 -4.037 4.054 4.058 4.058 0 0 0 4.076 4.057l2.678-.012a4.055 4.055 0 0 0 4.037-4.055z" fill="#ffc2e1"/><path d="m51.668 64.307a4.056 4.056 0 0 0 -4.076-4.056l-2.679.013a4.054 4.054 0 0 0 -4.036 4.054 4.058 4.058 0 0 0 4.076 4.057l2.678-.012a4.056 4.056 0 0 0 4.037-4.055z" fill="#ffc2e1"/><path d="m99.18 109.36h-70.36a21.633 21.633 0 0 1 21.64-21.63h27.08a21.633 21.633 0 0 1 21.64 21.63z" fill="#cdf7ff"/><path d="m74.23 86.1v1.63c0 2.98-4.58 5.41-10.23 5.41s-10.23-2.43-10.23-5.41v-1.63a29.091 29.091 0 0 0 9.65 1.63h1.16a29.091 29.091 0 0 0 9.65-1.63z" fill="#ffe2da"/></g><path d="m34.171 44.216h-1.527a8.087 8.087 0 0 0 -8.087 8.084v1.761a8.087 8.087 0 0 0 8.087 8.086h1.527c12.091 0 12.091-17.933 0-17.933z" fill="#ffe2da"/></svg>