<svg id="Capa_1" enable-background="new 0 0 510 510" height="512" viewBox="0 0 510 510" width="512" xmlns="http://www.w3.org/2000/svg" xmlns:xlink="http://www.w3.org/1999/xlink"><linearGradient id="lg1"><stop offset="0" stop-color="#8c6239"/><stop offset=".5765" stop-color="#704721"/><stop offset="1" stop-color="#603813"/></linearGradient><linearGradient id="SVGID_1_" gradientUnits="userSpaceOnUse" x1="255" x2="255" xlink:href="#lg1" y1="116.703" y2="195.895"/><linearGradient id="SVGID_2_" gradientUnits="userSpaceOnUse" x1="241.67" x2="253.03" xlink:href="#lg1" y1="91.624" y2="162.456"/><linearGradient id="SVGID_3_" gradientTransform="matrix(-1 0 0 1 510 0)" gradientUnits="userSpaceOnUse" x1="428.573" x2="428.573" xlink:href="#lg1" y1="258.88" y2="427.232"/><linearGradient id="SVGID_4_" gradientUnits="userSpaceOnUse" x1="86.055" x2="86.055" xlink:href="#lg1" y1="205.396" y2="266.737"/><linearGradient id="SVGID_5_" gradientUnits="userSpaceOnUse" x1="107.739" x2="66.222" xlink:href="#lg1" y1="311.241" y2="269.724"/><linearGradient id="SVGID_6_" gradientUnits="userSpaceOnUse" x1="78.044" x2="87.95" xlink:href="#lg1" y1="281.546" y2="291.452"/><linearGradient id="SVGID_7_" gradientUnits="userSpaceOnUse" x1="51.219" x2="9.702" xlink:href="#lg1" y1="287.459" y2="245.942"/><linearGradient id="SVGID_8_" gradientUnits="userSpaceOnUse" x1="21.524" x2="31.43" xlink:href="#lg1" y1="257.765" y2="267.67"/><linearGradient id="SVGID_9_" gradientUnits="userSpaceOnUse" x1="171.442" x2="129.925" xlink:href="#lg1" y1="326.44" y2="284.923"/><linearGradient id="SVGID_10_" gradientUnits="userSpaceOnUse" x1="141.748" x2="151.653" xlink:href="#lg1" y1="296.746" y2="306.651"/><linearGradient id="lg2"><stop offset="0" stop-color="#ffda2d"/><stop offset="1" stop-color="#fdbf00"/></linearGradient><linearGradient id="SVGID_11_" gradientTransform="matrix(-1 0 0 1 510 0)" gradientUnits="userSpaceOnUse" x1="199.288" x2="314.158" xlink:href="#lg2" y1="250.434" y2="365.304"/><linearGradient id="SVGID_12_" gradientTransform="matrix(1 .017 .017 -1 -4.216 505.713)" gradientUnits="userSpaceOnUse" x1="206.805" x2="307.934" xlink:href="#lg2" y1="154.813" y2="255.943"/><linearGradient id="SVGID_13_" gradientTransform="matrix(-1 0 0 1 510 0)" gradientUnits="userSpaceOnUse" x1="168.854" x2="168.854" xlink:href="#lg1" y1="262.042" y2="436.723"/><linearGradient id="SVGID_14_" gradientUnits="userSpaceOnUse" x1="274.792" x2="233.274" xlink:href="#lg1" y1="332.458" y2="290.94"/><linearGradient id="SVGID_15_" gradientUnits="userSpaceOnUse" x1="245.097" x2="255.002" xlink:href="#lg1" y1="302.763" y2="312.668"/><linearGradient id="SVGID_16_" gradientUnits="userSpaceOnUse" x1="347.244" x2="305.727" xlink:href="#lg1" y1="332.458" y2="290.94"/><linearGradient id="SVGID_17_" gradientUnits="userSpaceOnUse" x1="317.55" x2="327.455" xlink:href="#lg1" y1="302.763" y2="312.668"/><linearGradient id="SVGID_18_" gradientUnits="userSpaceOnUse" x1="209.638" x2="209.638" y1="306.814" y2="323.533"><stop offset="0" stop-color="#fdbf00"/><stop offset="1" stop-color="#ff9100"/></linearGradient><linearGradient id="SVGID_19_" gradientUnits="userSpaceOnUse" x1="340.685" x2="340.685" xlink:href="#lg1" y1="210.602" y2="282.359"/><linearGradient id="lg3"><stop offset="0" stop-color="#42210b" stop-opacity="0"/><stop offset="1" stop-color="#42210b"/></linearGradient><linearGradient id="SVGID_20_" gradientUnits="userSpaceOnUse" x1="457.554" x2="390.898" xlink:href="#lg3" y1="281.988" y2="293.515"/><linearGradient id="SVGID_21_" gradientUnits="userSpaceOnUse" x1="405.123" x2="462.257" xlink:href="#lg1" y1="274.595" y2="326.382"/><linearGradient id="SVGID_22_" gradientUnits="userSpaceOnUse" x1="432.739" x2="441.76" xlink:href="#lg1" y1="220.954" y2="267.73"/><linearGradient id="SVGID_23_" gradientUnits="userSpaceOnUse" x1="456.634" x2="411.862" xlink:href="#lg3" y1="290.051" y2="295.397"/><linearGradient id="SVGID_24_" gradientUnits="userSpaceOnUse" x1="371.639" x2="431.78" xlink:href="#lg1" y1="293.636" y2="294.638"/><g><path d="m96.283 222.872c42.82-9.304 98.209-14.918 158.717-14.918s115.897 5.614 158.717 14.918c53.226-11.565 87.027-28.834 87.027-48.131 0-34.822-110.023-63.05-245.744-63.05s-245.744 28.228-245.744 63.05c0 19.297 33.8 36.566 87.027 48.131z" fill="url(#SVGID_1_)"/><path d="m255 122.383c128.734 0 234.332 25.398 244.865 57.729.582-1.77.879-3.561.879-5.37 0-34.822-110.023-63.05-245.744-63.05s-245.744 28.227-245.744 63.049c0 1.809.297 3.6.879 5.37 10.533-32.33 116.131-57.728 244.865-57.728z" fill="url(#SVGID_2_)"/><path d="m18.618 325.471c37.919 19.145 85.39 33.699 138.644 41.798-12.439-41.547-12.158-83.505.852-125.042 1.042-3.328 2.666-6.385 4.741-9.041-36.375-3.779-68.43-9.723-93.709-17.21-37.307-11.036-59.89-25.459-59.89-41.236l-9.152 117.654c-1.072 13.752 6.195 26.863 18.514 33.077z" fill="url(#SVGID_3_)"/><g><path d="m9.256 187.043c0 15.777 22.583 30.201 59.89 41.236 23.984 7.104 54.075 12.815 88.16 16.609.266-.887.53-1.775.808-2.662 1.042-3.328 2.666-6.385 4.741-9.041-36.375-3.779-68.43-9.723-93.709-17.21-37.307-11.036-59.89-25.459-59.89-41.236v12.304z" fill="url(#SVGID_4_)"/></g><g><circle cx="81.427" cy="284.929" fill="url(#SVGID_5_)" r="20.214"/><circle cx="81.427" cy="284.929" fill="url(#SVGID_6_)" r="13.201"/></g><g><circle cx="24.907" cy="261.148" fill="url(#SVGID_7_)" r="20.214"/><circle cx="24.907" cy="261.148" fill="url(#SVGID_8_)" r="13.201"/></g><g><circle cx="145.131" cy="300.128" fill="url(#SVGID_9_)" r="20.214"/><circle cx="145.131" cy="300.128" fill="url(#SVGID_10_)" r="13.201"/></g><g><path d="m155.107 370.065c3.007 9.592 10.825 16.9 20.628 19.155 52.643 12.118 105.887 12.118 158.531 0 9.803-2.255 17.621-9.562 20.628-19.155 13.301-42.459 13.301-85.369 0-127.839-3.007-9.592-10.825-16.899-20.628-19.155-52.643-12.118-105.887-12.118-158.531 0-9.803 2.255-17.621 9.562-20.628 19.155-13.302 42.47-13.302 85.38 0 127.839zm24.707-15.816c-10.013-31.955-10.013-64.25 0-96.205 2.265-7.227 8.149-12.73 15.526-14.424 39.623-9.121 79.696-9.121 119.319 0 7.377 1.694 13.261 7.197 15.526 14.424 10.013 31.955 10.013 64.25 0 96.205-2.265 7.227-8.149 12.73-15.526 14.424-39.623 9.121-79.696 9.121-119.319 0-7.377-1.695-13.26-7.198-15.526-14.424z" fill="url(#SVGID_11_)"/><path d="m343.871 251.349c-2.505-8.483-9.283-15.042-17.879-17.17-46.154-11.436-93.037-12.218-139.547-2.327-8.662 1.84-15.655 8.17-18.441 16.564-12.329 37.177-12.959 74.95-1.876 112.527 2.505 8.483 9.283 15.042 17.879 17.17 46.154 11.436 93.037 12.218 139.547 2.327 8.662-1.841 15.655-8.17 18.441-16.564 12.329-37.187 12.959-74.95 1.876-112.527zm-14.498 104.146c-2.385 7.188-8.36 12.592-15.765 14.163-39.769 8.46-79.837 7.791-119.302-1.989-7.348-1.817-13.139-7.417-15.284-14.681-9.479-32.117-8.941-64.408 1.604-96.191 2.385-7.188 8.36-12.592 15.765-14.163 39.769-8.459 79.837-7.791 119.302 1.989 7.348 1.817 13.139 7.417 15.284 14.681 9.479 32.117 8.941 64.408-1.604 96.191z" fill="url(#SVGID_12_)"/></g><path d="m179.022 352.986c2.145 7.267 7.939 12.87 15.286 14.684 11.978 2.967 24.016 5.102 36.084 6.385 8.129.301 16.328.451 24.607.451 11.767 0 23.395-.301 34.841-.892 16.99-.882 33.589-2.386 49.706-4.481 58.607-7.618 110.819-22.954 151.835-43.662 12.319-6.215 19.586-19.325 18.513-33.077l-9.151-117.655c0 15.777-22.583 30.201-59.89 41.236-29.539 8.74-68.32 15.386-112.443 18.934-11.607.932-23.585 1.654-35.864 2.145-5.954.231-12.95.401-20.388.501-12.91.17-27.153.14-39.633-.08-12.058.882-24.106 2.606-36.134 5.162-7.407 1.564-13.381 6.966-15.767 14.163-10.542 31.785-11.084 64.071-1.602 96.186z" fill="url(#SVGID_13_)"/><g><circle cx="248.48" cy="306.146" fill="url(#SVGID_14_)" r="20.214"/><circle cx="248.48" cy="306.146" fill="url(#SVGID_15_)" r="13.201"/></g><g><circle cx="320.932" cy="306.146" fill="url(#SVGID_16_)" r="20.214"/><circle cx="320.932" cy="306.146" fill="url(#SVGID_17_)" r="13.201"/></g><path d="m248.986 318.174h-78.696c-6.643 0-12.028-5.385-12.028-12.028 0-6.643 5.385-12.028 12.028-12.028h78.696c6.643 0 12.028 5.385 12.028 12.028 0 6.643-5.385 12.028-12.028 12.028z" fill="url(#SVGID_18_)"/><path d="m232.527 249.78c12.479.22 26.722.251 39.633.08 7.437-.1 14.434-.271 20.388-.501 12.279-.491 24.257-1.213 35.864-2.145 44.123-3.548 82.904-10.194 112.443-18.934 37.307-11.036 59.89-25.459 59.89-41.236v-12.305c0 15.777-22.583 30.201-59.89 41.236-29.539 8.74-68.32 15.386-112.443 18.934-11.607.932-23.585 1.654-35.864 2.145-5.954.231-12.95.401-20.388.501-12.91.17-27.153.14-39.633-.08-12.058.882-24.106 2.606-36.134 5.162-7.407 1.564-13.381 6.966-15.767 14.163 0 .001 2.966-7.02 51.901-7.02z" fill="url(#SVGID_19_)"/><path d="m407.022 224.245c-4.287.867-8.687 1.698-13.198 2.491v132.754c36.679-8.373 69.703-19.955 97.558-34.019 3.684-1.859 6.905-4.344 9.597-7.269z" fill="url(#SVGID_20_)"/><g><path d="m481.749 265.283-47.04-33.991c-3.116-1.257-6.277-1.364-9.146-.611l-.009-.052-36.984 6.6 21.576 120.897 36.984-6.6-.009-.052c2.952-.286 5.881-1.48 8.37-3.737l32.378-48.164c7.536-11.211 4.829-26.378-6.12-34.29z" fill="url(#SVGID_21_)"/><path d="m421.047 237.201.01.056c3.063-.803 6.438-.69 9.765.653l50.225 36.293c5.696 4.116 9.295 10.072 10.566 16.48 1.944-9.39-1.626-19.447-9.863-25.399l-47.04-33.991c-3.116-1.257-6.277-1.364-9.146-.611l-.009-.052-36.984 6.6.998 5.59z" fill="url(#SVGID_22_)"/></g><path d="m485.65 302.873-70.404-70.404-26.675 4.761 21.576 120.897 36.984-6.6-.009-.052c2.952-.286 5.881-1.48 8.369-3.737z" fill="url(#SVGID_23_)"/><path d="m421.729 361.668-34.033 6.281c-6.389 1.179-12.525-3.044-13.704-9.434l-21.879-118.543c-1.179-6.389 3.044-12.525 9.434-13.704l34.033-6.281c6.389-1.179 12.525 3.044 13.704 9.434l21.879 118.543c1.179 6.39-3.044 12.525-9.434 13.704z" fill="url(#SVGID_24_)"/></g></svg>