<svg viewBox="0 0 512 512" xmlns="http://www.w3.org/2000/svg"><g><path clip-rule="evenodd" d="M227.718 226.247c-11.243 24-11.301 48.146-13.725 77.652 0 22.806-26.807 43.719-47.483 43.719l-21.902 50.855 21.902 59.214h68.917c47.103 0 89.592-38.447 89.592-85.428L339.62 263.82c0-25.398-22.31-36.292-38.897-29.156l40.007-140.36c9.315-32.68-29.465-46.34-44.942-13.34z" fill="#fed2a4" fill-rule="evenodd"></path><path clip-rule="evenodd" d="M0 340.94v131.726a2.06 2.06 0 0 0 2.06 2.06h126.954V338.88H2.06A2.06 2.06 0 0 0 0 340.94z" fill="#ff646f" fill-rule="evenodd"></path><path clip-rule="evenodd" d="M391.162 24.604v462.764c0 13.194 10.805 23.971 24.033 23.971h72.772c13.229 0 24.033-10.777 24.033-23.971V24.604C512 11.439 501.195.662 487.967.662h-72.772c-13.228 0-24.033 10.776-24.033 23.942z" fill="#ab695d" fill-rule="evenodd"></path><path clip-rule="evenodd" d="M24.179 174.685v40.356a2.06 2.06 0 0 0 2.06 2.06h81.487v18.32c0 1.662 1.867 2.64 3.233 1.694l58.565-40.545a2.06 2.06 0 0 0 .001-3.388l-58.565-40.571c-1.366-.947-3.234.031-3.234 1.694v18.319H26.24a2.062 2.062 0 0 0-2.061 2.061zM92.921 40.412v40.385a2.06 2.06 0 0 0 2.06 2.06h81.487v18.291c0 1.662 1.867 2.64 3.233 1.694l58.565-40.545a2.06 2.06 0 0 0 .001-3.388l-58.565-40.571c-1.366-.947-3.234.031-3.234 1.694v18.319H94.981a2.06 2.06 0 0 0-2.06 2.061z" fill="#bbf49b" fill-rule="evenodd"></path><path clip-rule="evenodd" d="M303.731 345.288c0 46.981-19.595 85.428-66.698 85.428h-80.481l9.958 26.971h68.917c47.103 0 89.592-38.447 89.592-85.428L339.62 263.82c0-16.952-9.899-27.408-21.434-30.408.088 1.107.146 2.243.146 3.408z" fill="#ffbd86" fill-rule="evenodd"></path><path clip-rule="evenodd" d="m331.414 64.711-60.857 163.4-23.04 91.632c-1.285 22.806 18.28 27.059 25.785 9.291l10.308-69.613c1.898-13.078 8.79-21.175 17.112-24.758L340.73 94.304c4.059-14.243-1.022-24.875-9.316-29.593z" fill="#ffbd86" fill-rule="evenodd"></path><path clip-rule="evenodd" d="M129.015 474.726v-33.408H0v31.348a2.06 2.06 0 0 0 2.06 2.06z" fill="#fb4455" fill-rule="evenodd"></path><path clip-rule="evenodd" d="M512 487.367V24.604C512 11.439 501.195.662 487.967.662h-49.731c13.229 0 24.033 10.777 24.033 23.942v462.764c0 13.194-10.805 23.971-24.033 23.971h49.731c13.228-.001 24.033-10.777 24.033-23.972z" fill="#935b50" fill-rule="evenodd"></path><path clip-rule="evenodd" d="M113.07 338.88v143.099c0 3.786 3.095 6.903 6.892 6.903h39.656c3.796 0 6.892-3.117 6.892-6.903V331.657c0-3.816-3.095-6.903-6.892-6.903h-39.656c-3.796 0-6.892 3.087-6.892 6.903z" fill="#faf7f7" fill-rule="evenodd"></path><path clip-rule="evenodd" d="M166.51 481.979V445.6c0 3.786-3.095 6.903-6.892 6.903h-39.656c-3.796 0-6.892-3.117-6.892-6.903V481.98c0 3.786 3.095 6.903 6.892 6.903h39.656c3.797-.001 6.892-3.118 6.892-6.904z" fill="#dedbee" fill-rule="evenodd"></path></g></svg>