<svg id="Flat" height="512" viewBox="0 0 64 64" width="512" xmlns="http://www.w3.org/2000/svg"><path d="m46 37h9a3 3 0 0 1 3 3 3 3 0 0 1 -3 3h-9" fill="#fcd3b9"/><path d="m56.722 27.7a.749.749 0 0 1 -.418-.974 27.263 27.263 0 0 0 1.946-10.117v-2.359h1.5v2.357a28.741 28.741 0 0 1 -2.05 10.671.749.749 0 0 1 -.978.422z" fill="#ffb950"/><path d="m52.722 27.7a.751.751 0 0 1 -.419-.975l.143-.358a25.315 25.315 0 0 0 1.8-9.386v-.731h1.5v.75a26.711 26.711 0 0 1 -1.9 9.886l-.156.392a.751.751 0 0 1 -.968.422z" fill="#ffb950"/><path d="m40.971 37 3.865-9.088a4.031 4.031 0 0 0 -2.331-5.365 2 2 0 0 0 -2.368.8l-7.012 10.964a8 8 0 0 1 -6.74 3.689h-25.385v20h25a10.242 10.242 0 0 0 7.243 3h15.757v-24z" fill="#fde5d5"/><path d="m40.12 39 4.716-11.088a3.992 3.992 0 0 0 .247-2.293 3.989 3.989 0 0 0 -1.578-1.072 2 2 0 0 0 -2.368.8l-7.012 10.964a8 8 0 0 1 -6.74 3.689h-24.385v18h23a10.242 10.242 0 0 0 7.243 3h15.757v-22z" fill="#fcd3b9"/><path d="m46 43h11a3 3 0 0 1 3 3 3 3 0 0 1 -3 3h-11" fill="#fcd3b9"/><path d="m57 43h-10a1 1 0 0 0 0 2h10a2.99 2.99 0 0 1 2.816 2 2.962 2.962 0 0 0 .184-1 3 3 0 0 0 -3-3z" fill="#fde5d5"/><path d="m55 37h-8a1 1 0 0 0 0 2h8a2.99 2.99 0 0 1 2.816 2 2.962 2.962 0 0 0 .184-1 3 3 0 0 0 -3-3z" fill="#fde5d5"/><path d="m46 49h9a3 3 0 0 1 3 3 3 3 0 0 1 -3 3h-9" fill="#fcd3b9"/><path d="m55 49h-8a1 1 0 0 0 0 2h8a2.99 2.99 0 0 1 2.816 2 2.962 2.962 0 0 0 .184-1 3 3 0 0 0 -3-3z" fill="#fde5d5"/><path d="m46 55h7a3 3 0 0 1 3 3 3 3 0 0 1 -3 3h-7" fill="#fcd3b9"/><path d="m53 55h-6a1 1 0 0 0 0 2h6a2.99 2.99 0 0 1 2.816 2 2.962 2.962 0 0 0 .184-1 3 3 0 0 0 -3-3z" fill="#fde5d5"/><circle cx="56" cy="10" fill="#ffd75f" r="7"/><circle cx="56" cy="10" fill="#ffb950" r="4"/><rect fill="#95839f" height="24" rx="2" width="6" x="15" y="36"/><rect fill="#7e7687" height="22" rx="2" width="6" x="15" y="38"/><rect fill="#9ef1ff" height="12" rx="2" width="10" x="13" y="42"/><g fill="#386b81"><path d="m21 54.75h-6a2.752 2.752 0 0 1 -2.75-2.75v-8a2.752 2.752 0 0 1 2.75-2.75h6a2.752 2.752 0 0 1 2.75 2.75v8a2.752 2.752 0 0 1 -2.75 2.75zm-6-12a1.252 1.252 0 0 0 -1.25 1.25v8a1.252 1.252 0 0 0 1.25 1.25h6a1.252 1.252 0 0 0 1.25-1.25v-8a1.252 1.252 0 0 0 -1.25-1.25z"/><path d="m18 48.75h-2a.75.75 0 0 1 0-1.5h1.25v-2.25a.75.75 0 0 1 1.5 0v3a.75.75 0 0 1 -.75.75z"/></g></svg>