<svg viewBox="0 0 512 512" xmlns="http://www.w3.org/2000/svg"><g><path clip-rule="evenodd" d="M436.041.086H151.883a8.873 8.873 0 0 0-8.877 8.877v428.745l336.983 28.939h23.127c4.877 0 8.877-4.001 8.877-8.877V79.837l-51.949-29.29z" fill="#f9f7f8" fill-rule="evenodd"></path><path clip-rule="evenodd" d="M418.023 437.622h-39.421l-22.544 34.726L378.602 512h39.421l17.232-37.194zM143.006 437.622V35.977h-42.721c-4.877 0-8.877 4.001-8.877 8.877V441.535l1.402-.467c5.198-1.986 7.038-2.833 9.082-3.183 1.898-.35 4.001-.263 9.228-.263z" fill="#a1d4ff" fill-rule="evenodd"></path><path clip-rule="evenodd" d="M378.602 437.622H111.118c-5.227 0-7.33-.088-9.228.263l-16.904 36.926 16.904 36.926c.876.175 1.84.234 3.125.263h273.587z" fill="#ffe07d" fill-rule="evenodd"></path><path clip-rule="evenodd" d="M511.993 79.751 436.041 0v70.873c0 4.877 4.001 8.877 8.877 8.877h67.075z" fill="#a1d4ff" fill-rule="evenodd"></path><path d="M117.206 35.977h25.799v402.264h-25.799z" fill="#80b4fb"></path><path clip-rule="evenodd" d="m101.861 474.826.029-36.941c-2.044.35-3.884 1.197-9.082 3.183l-1.402.467-40.619 13.696-11.13 19.575 11.13 19.585 42.021 14.163c5.198 1.986 7.038 2.833 9.082 3.183z" fill="#ffe5c1" fill-rule="evenodd"></path><path clip-rule="evenodd" d="M50.788 455.231 4.475 470.883c-2.949 1.11-4.468 2.511-4.468 3.913v.058c0 1.372 1.518 2.774 4.468 3.884l46.313 15.652z" fill="#375e7d" fill-rule="evenodd"></path><path clip-rule="evenodd" d="M479.988 496.873v-44.125c0-8.323-6.804-15.127-15.126-15.127h-46.839V512h46.839c8.323 0 15.126-6.804 15.126-15.127z" fill="#eb5468" fill-rule="evenodd"></path><path clip-rule="evenodd" d="M511.993 79.837h-67.075c-4.877 0-8.877-4.001-8.877-8.877V.086h-68.389c116.134 158.655 85.209 385.263 65.294 437.622h31.917c8.322 0 15.126 6.804 15.126 15.127v13.813h23.127c4.877 0 8.877-4.001 8.877-8.877z" fill="#dddaec" fill-rule="evenodd"></path><path d="m334.878 188.108-.069-.001a7.726 7.726 0 0 1-7.659-7.793c.037-4.216.074-8.903.11-13.786h-28.798a7.728 7.728 0 0 1-6.764-11.46c4.117-7.458 24.869-44.929 29.087-50.133 3.721-4.552 8.737-6.378 13.434-4.911 4.736 1.479 8.085 6.06 8.534 11.671.224 2.608.169 21.705.065 39.38h1.577a7.727 7.727 0 0 1 0 15.454h-1.682c-.047 6.273-.09 11.344-.112 13.921a7.725 7.725 0 0 1-7.723 7.658zm-23.285-37.034h15.77c.061-10.501.102-20.627.096-27.836-4.084 6.938-9.91 17.179-15.866 27.836z" fill="#2b4d66"></path><path d="M248.937 176.719h-.06a7.729 7.729 0 0 1-6.911-4.392l-25.962-54.275h-23.427a7.727 7.727 0 0 1 0-15.454h28.296a7.726 7.726 0 0 1 6.97 4.392l21.228 44.379 37.611-75.615a7.728 7.728 0 0 1 6.918-4.285h86.419a7.727 7.727 0 0 1 0 15.454h-81.633l-42.534 85.511a7.72 7.72 0 0 1-6.915 4.285z" fill="#2b4d66"></path><g fill="#2b4d66"><path d="M401.585 219.422a7.725 7.725 0 0 0-9.827 4.778l-12.293 35.565-12.632-35.623a7.726 7.726 0 0 0-14.564 5.164l19.103 53.873-6.917 20.012a7.728 7.728 0 0 0 14.605 5.049l27.303-78.992a7.725 7.725 0 0 0-4.778-9.826zM266.388 251.689l15.321-20.312a7.727 7.727 0 1 0-12.338-9.305l-12.689 16.822-12.773-16.839a7.728 7.728 0 0 0-12.312 9.34l15.414 20.321-17.442 23.124a7.728 7.728 0 0 0 12.338 9.306l14.81-19.635 15.616 20.587a7.713 7.713 0 0 0 6.162 3.057 7.728 7.728 0 0 0 6.15-12.397zM338.322 244.434h-12.948v-12.919a7.727 7.727 0 0 0-15.454 0v12.919h-13.415a7.727 7.727 0 0 0 0 15.454h13.415v13.445a7.727 7.727 0 0 0 15.454 0v-13.445h12.948a7.727 7.727 0 0 0 0-15.454z" fill="#2b4d66"></path></g><path d="M211.384 306.668a7.7 7.7 0 0 1-5.463-2.263c-13.577-13.577-21.054-31.627-21.054-50.825 0-19.2 7.479-37.243 21.057-50.806a7.726 7.726 0 1 1 10.921 10.933c-10.656 10.644-16.525 24.805-16.525 39.874 0 15.07 5.87 29.24 16.528 39.898a7.725 7.725 0 0 1-5.464 13.189zM419.94 306.668a7.725 7.725 0 0 1-5.463-13.19c10.658-10.659 16.528-24.828 16.528-39.898 0-15.069-5.869-29.229-16.525-39.874a7.726 7.726 0 0 1-.006-10.927 7.725 7.725 0 0 1 10.927-.006c13.579 13.563 21.057 31.607 21.057 50.806 0 19.198-7.477 37.248-21.054 50.825a7.7 7.7 0 0 1-5.464 2.264zM259.245 349.829h-53.613a7.727 7.727 0 0 1 0-15.454h53.613a7.727 7.727 0 0 1 0 15.454zM259.245 383.061h-53.613a7.727 7.727 0 0 1 0-15.454h53.613a7.727 7.727 0 0 1 0 15.454z" fill="#2b4d66"></path><path clip-rule="evenodd" d="M378.602 484.054H105.015c-1.285-.029-2.248-.088-3.125-.263v27.946c.876.175 1.84.234 3.125.263h273.587z" fill="#ffd064" fill-rule="evenodd"></path><path clip-rule="evenodd" d="M378.602 484.054h39.422V512h-39.422z" fill="#80b4fb" fill-rule="evenodd"></path><path clip-rule="evenodd" d="M479.988 496.873v-27.947c0 8.323-6.804 15.127-15.126 15.127h-46.839V512h46.839c8.323 0 15.126-6.804 15.126-15.127z" fill="#e5384f" fill-rule="evenodd"></path><path clip-rule="evenodd" d="M101.89 511.737v-27.946c-2.044-.35-3.884-1.197-9.082-3.183l-42.021-14.163v27.946l42.021 14.163c5.198 1.986 7.038 2.833 9.082 3.183z" fill="#fed1a3" fill-rule="evenodd"></path><path clip-rule="evenodd" d="M50.788 494.391v-27.946l-16.586-5.607-29.727 10.045c-2.949 1.11-4.468 2.511-4.468 3.913v.058c0 1.372 1.518 2.774 4.468 3.884z" fill="#2b4d66" fill-rule="evenodd"></path></g></svg>