<svg fill-rule="evenodd" viewBox="0 0 64 64" xmlns="http://www.w3.org/2000/svg"><g><path d="M42.63 28.07C52.57 26.49 62 34.17 62 44.67c0 8.42-6.23 15.53-14.57 16.64-6.97.93-14.02.91-20.96-.04z" fill="#e29a6c" fill-rule="nonzero"></path><path d="M51.264 29.005C57.412 31.399 62 37.351 62 44.675c0 8.42-6.23 15.53-14.57 16.64-6.97.93-14.02.91-20.96-.04l1.641-3.372a78.108 78.108 0 0 0 13.256-.63 16.782 16.782 0 0 0 14.57-16.64c0-4.596-1.807-8.652-4.673-11.628z" fill="#d48c64" fill-rule="nonzero"></path><path d="M20.52 62h-1.4C9.66 62 2 54.34 2 44.89c0-3.2.84-6.35 2.43-9.13l4.58-8.02c.63-1.11.76-2.43.36-3.63C5.74 13.23 13.84 2 25.3 2c8.42 0 15.53 6.23 16.64 14.57 1.36 10.18.69 20.54-1.95 30.47A20.15 20.15 0 0 1 20.52 62z" fill="#e29a6c" fill-rule="nonzero"></path><path d="M34.675 4.859A16.765 16.765 0 0 1 41.94 16.57c1.36 10.18.69 20.54-1.95 30.47A20.15 20.15 0 0 1 20.52 62h-1.4c-6.663 0-12.432-3.8-15.262-9.348a17.048 17.048 0 0 0 9.636 2.964h1.4c9.13 0 17.12-6.14 19.47-14.96a78.286 78.286 0 0 0 1.95-30.47 16.777 16.777 0 0 0-1.639-5.327z" fill="#d48c64" fill-rule="nonzero"></path><g fill="#c48563"><path d="M14.707 16.707a1.834 1.834 0 0 1 2.586 0 1 1 0 0 0 1.414-1.414 3.84 3.84 0 0 0-5.414 0 1 1 0 0 0 1.414 1.414zM32.707 30.707a1.834 1.834 0 0 1 2.586 0 1 1 0 0 0 1.414-1.414 3.84 3.84 0 0 0-5.414 0 1 1 0 0 0 1.414 1.414zM12.707 38.707a1.834 1.834 0 0 1 2.586 0 1 1 0 0 0 1.414-1.414 3.84 3.84 0 0 0-5.414 0 1 1 0 0 0 1.414 1.414zM26.707 52.707a1.834 1.834 0 0 1 2.586 0 1 1 0 0 0 1.414-1.414 3.84 3.84 0 0 0-5.414 0 1 1 0 0 0 1.414 1.414zM52.463 36.707a1.834 1.834 0 0 1 0 2.586 1 1 0 0 0 1.414 1.414 3.84 3.84 0 0 0 0-5.414 1 1 0 0 0-1.414 1.414zM42.463 54.707a1.834 1.834 0 0 1 0 2.586 1 1 0 0 0 1.414 1.414 3.84 3.84 0 0 0 0-5.414 1 1 0 0 0-1.414 1.414z" fill="#c48563"></path></g></g></svg>