<svg viewBox="0 0 60 60" xmlns="http://www.w3.org/2000/svg"><g><path d="M5.56 14.13A25.928 25.928 0 0 1 1.01 2.34a1.164 1.164 0 0 1 1.98-.99 23.38 23.38 0 0 0 4.99 3.84z" fill="#eabea3"></path><path d="M14.82 7.92 12.3 19.09a14.369 14.369 0 0 1-6.74-4.96 16.462 16.462 0 0 1 2.42-8.94 25.545 25.545 0 0 0 6.84 2.73z" fill="#f9d2b6"></path><path d="M54.437 14.13a25.928 25.928 0 0 0 4.55-11.79 1.164 1.164 0 0 0-1.98-.99 23.38 23.38 0 0 1-4.99 3.84z" fill="#eabea3"></path><path d="M45.177 7.92 47.7 19.09a14.369 14.369 0 0 0 6.74-4.96 16.462 16.462 0 0 0-2.42-8.94 25.545 25.545 0 0 1-6.843 2.73z" fill="#f9d2b6"></path><path d="M45.84 39.37a4.654 4.654 0 0 0 5.38 1.25 4.626 4.626 0 0 0 2.54-5.71 32.169 32.169 0 0 0-6.45-11.58zM12.69 23.33a32.169 32.169 0 0 0-6.45 11.58 4.626 4.626 0 0 0 2.54 5.71 4.469 4.469 0 0 0 1.82.38 4.447 4.447 0 0 0 3.56-1.63z" fill="#4ab591"></path><path d="M32 49a2 2 0 0 1 2 2v4.79A3.286 3.286 0 0 0 37.21 59a3.151 3.151 0 0 0 2.82-1.68c1.61-3.1 5.406-11.189 6.59-23.871L47.99 13.3A6 6 0 0 0 42 7H18a6 6 0 0 0-5.99 6.3l1.37 20.149c1.184 12.682 4.98 20.771 6.59 23.871A3.151 3.151 0 0 0 22.79 59 3.247 3.247 0 0 0 26 55.79V51a2 2 0 0 1 2-2z" fill="#5acca6"></path><circle cx="30" cy="21" fill="#ffffff" r="10"></circle><path d="M41.87 34.27C39.91 39.4 35.34 43 30 43s-9.91-3.6-11.87-8.73a1.59 1.59 0 0 1 2.25-2.04A19.776 19.776 0 0 0 27 34.66a17.8 17.8 0 0 0 3 .34 17.8 17.8 0 0 0 3-.34 19.776 19.776 0 0 0 6.62-2.43 1.59 1.59 0 0 1 2.25 2.04z" fill="#427c67"></path><path d="M33 34.66V37a2.006 2.006 0 0 1-2 2h-2a2.006 2.006 0 0 1-2-2v-2.34a17.8 17.8 0 0 0 3 .34 17.8 17.8 0 0 0 3-.34z" fill="#ffffff"></path><circle cx="30" cy="21" fill="#3778c6" r="7"></circle><path d="M34.78 19.51s.01 0 0 .01A5.2 5.2 0 0 1 35 21a5 5 0 1 1-5-5 5.2 5.2 0 0 1 1.48.22c.01-.01.01 0 .01 0z" fill="#2c4359"></path><circle cx="32.5" cy="18.5" fill="#ffffff" r="2.5"></circle></g></svg>