<svg viewBox="0 0 512 512" xmlns="http://www.w3.org/2000/svg"><g><path d="M405 421H285c-8.29 0-15 6.71-15 15v61c0 8.29 6.71 15 15 15h120c8.29 0 15-6.71 15-15v-61c0-8.29-6.71-15-15-15Zm0 0" fill="#ffa78f"></path><path d="M225 412.973 105 421c-8.29 0-15 6.71-15 15v61c0 8.29 6.71 15 15 15h120c8.29 0 15-6.71 15-15v-69.027c0-8.29-6.71-15-15-15Zm0 0" fill="#ffbfab"></path><path d="M511 30v150.7c-.3 45-23.2 87.902-61.3 118.5l-29.7 24V361H270v-75c0-20.102 7.8-39 21.898-53.102l76.801-76.8c11.7-11.7 30.903-11.7 42.602 0 11.097 11.101 12 30 .297 42.004L364.5 245.5c-6 5.7-6 15.3 0 21 5.7 6 15.297 6 21 0l60-60c3-2.7 4.5-6.602 4.5-10.5V30c0-16.5 14.5-30 31-30s30 13.5 30 30Zm0 0" fill="#ffa78f"></path><path d="M0 30v150.7c.3 45 22.2 87.902 60.3 118.5l29.7 24V361h150v-75c0-20.102-7.8-39-21.898-53.102l-76.801-76.8c-11.7-11.7-30.903-11.7-42.602 0-11.097 11.101-12 30-.297 42.004L145.5 245.5c6 5.7 6 15.3 0 21-5.7 6-15.297 6-21 0l-60-60c-3-2.7-4.5-6.602-4.5-10.5V30C60 13.5 46.5 0 30 0S0 13.5 0 30Zm0 0" fill="#ffbfab"></path><path d="M450 361c0 16.5-13.5 30-30 30l-165 30-165-30c-16.5 0-30-13.5-30-30s13.5-30 30-30h330c16.5 0 30 13.5 30 30Zm0 0" fill="#99503d"></path><path d="M450 421c0 16.5-13.5 30-30 30H90c-16.5 0-30-13.5-30-30s13.5-30 30-30h330c16.5 0 30 13.5 30 30Zm0 0" fill="#b35f49"></path><path d="M450 361c0 16.5-13.5 30-30 30l-165 30v-90h165c16.5 0 30 13.5 30 30Zm0 0" fill="#804231"></path><path d="M450 421c0 16.5-13.5 30-30 30H255v-60h165c16.5 0 30 13.5 30 30Zm0 0" fill="#99503d"></path><path d="M330 321.098c0 5.101-1.2 10.203-3.898 15l-71.102 123-3.898 6.902c-8.403 14.398-26.704 19.2-41.102 11.102-14.398-8.403-19.2-26.704-11.102-41.102L255 338.8l18.898-32.702c8.403-14.399 26.704-19.2 41.102-11.098 9.602 5.7 15 15.898 15 26.098Zm0 0" fill="#c6715a"></path><path d="M330 321.098c0 5.101-1.2 10.203-3.898 15l-71.102 123V338.8l18.898-32.703c8.403-14.399 26.704-19.2 41.102-11.098 9.602 5.7 15 15.898 15 26.098Zm0 0" fill="#b35f49"></path></g></svg>