<svg height="512" viewBox="0 0 64 64" width="512" xmlns="http://www.w3.org/2000/svg"><g id="flat"><path d="m17.042 30.287-3.537-11.792 2.453 1.218 3.319 11.064z" fill="#98d085"/><path d="m56 30h-2v-4a1 1 0 0 1 1-1h4v2h-3z" fill="#98d085"/><path d="m50 54h-34l-11-7v-7h54v6z" fill="#4d5b4d"/><circle cx="32" cy="49" fill="#98b398" r="5"/><circle cx="32" cy="49" fill="#143441" r="2"/><circle cx="44" cy="49" fill="#98b398" r="5"/><circle cx="44" cy="49" fill="#143441" r="2"/><circle cx="20" cy="49" fill="#98b398" r="5"/><circle cx="20" cy="49" fill="#143441" r="2"/><circle cx="11" cy="46" fill="#98b398" r="4"/><path d="m10 45h2v2h-2z" fill="#143441"/><circle cx="53" cy="46" fill="#98b398" r="4"/><path d="m52 45h2v2h-2z" fill="#143441"/><path d="m3 36h58v4h-58z" fill="#98b398"/><path d="m57 36h-51l5-6h46z" fill="#758975"/><path d="m48 30h-20l-4-6h28z" fill="#4d5b4d"/><path d="m52 24h-28l2-6h24z" fill="#98b398"/><path d="m32 14h12v4h-12z" fill="#758975"/><path d="m24 24-5-2 2-6 5 2z" fill="#758975"/><path d="m21 16-16-7-2 6 16 7z" fill="#394d5c"/><path d="m27 11h2v7h-2z" fill="#98d085"/><path d="m34 18h4v6h-4z" fill="#98d085"/><path d="m38 18h4v6h-4z" fill="#394d5c"/><circle cx="23" cy="32" fill="#98d085" r="2"/><circle cx="45" cy="32" fill="#98d085" r="2"/><g fill="#f4f4e6"><path d="m30 33h2v3h-2z"/><path d="m34 33h2v3h-2z"/></g></g></svg>