<svg viewBox="0 0 504.5 504.5" xmlns="http://www.w3.org/2000/svg"><g><path d="M476.04 437.346h-41.046c-3.281 0-5.868-2.69-5.864-5.971v-.061c0-24.844-20.14-44.983-44.983-44.983-16.96 0-31.721 9.389-39.386 23.249a33.22 33.22 0 0 0-1.379-.035c-13.582 0-25.264 8.115-30.472 19.76-2.175 4.862-6.944 8.041-12.27 8.041h-3.669c-10.916 0-20.187 8.933-19.982 19.848.198 10.584 8.84 19.104 19.472 19.104h180.09c10.632 0 19.274-8.519 19.472-19.104.204-10.914-9.067-19.848-19.983-19.848zM328.688 73.63h-14.434c.196-1.124.318-2.275.318-3.456 0-11.061-8.967-20.028-20.028-20.028a19.903 19.903 0 0 0-10.571 3.04c-5.956-14.65-20.324-24.984-37.113-24.984-15.102 0-28.247 8.361-35.072 20.703a29.425 29.425 0 0 0-1.228-.031c-16.692 0-30.17 13.761-29.709 30.556.444 16.188 14.133 28.885 30.327 28.885h117.965c9.467 0 17.162-7.586 17.339-17.01.182-9.72-8.073-17.675-17.794-17.675z" fill="#99e6fc"></path><path d="m140.015 239.651-58.557-67.18a10.103 10.103 0 0 0-7.617-3.465H25.735c-7.591 0-12.472 8.057-8.956 14.785l34.929 66.839 57.689 13.901z" fill="#cbc4cc"></path><path d="m140.015 239.651-58.557-67.18a10.103 10.103 0 0 0-7.617-3.465H25.735c-7.591 0-12.472 8.057-8.956 14.785l34.929 66.839 57.689 13.901z" fill="#cbc4cc"></path><path d="m140.015 239.651-58.557-67.18a10.103 10.103 0 0 0-7.617-3.465H25.735c-7.591 0-12.472 8.057-8.956 14.785l34.929 66.839 57.689 13.901z" fill="#685e68"></path><path d="M142.316 227.559h166.433l17.672 10.967 113.073 27.81 47.818 17.301a26.05 26.05 0 0 1 17.188 24.498c0 14.388-11.664 26.052-26.052 26.052H161.654a95.291 95.291 0 0 1-61.274-22.312l-62.574-52.537a10.06 10.06 0 0 1 4.805-17.627l69.194-11.61a184.449 184.449 0 0 1 30.511-2.542z" fill="#918291"></path><path d="m487.311 283.637-13.938-5.043a26.002 26.002 0 0 1 1.126 7.541c0 14.388-11.664 26.052-26.052 26.052H131.654a95.287 95.287 0 0 1-43.333-10.436l12.058 10.124a95.291 95.291 0 0 0 61.274 22.312h316.794c14.388 0 26.052-11.664 26.052-26.052a26.05 26.05 0 0 0-17.188-24.498z" fill="#7a6d79"></path><path d="M184.356 266.336h-26.299a254.813 254.813 0 0 1-78.532-12.403l-.549-.178c-14.766-4.784-14.766-25.674 0-30.458l.549-.178a254.813 254.813 0 0 1 78.532-12.403h26.299a8.985 8.985 0 0 1 8.985 8.985v37.649a8.985 8.985 0 0 1-8.985 8.986z" fill="#e2dee2"></path><path d="M242.178 352.647h-41.697a25.735 25.735 0 0 1-24.673-18.419l-4.242-19.667c-.666-2.246 1.017-4.5 3.359-4.5H303.17c5.191 0 7.558 6.478 3.589 9.824l-18.789 16.034a71.042 71.042 0 0 1-45.792 16.728z" fill="#cbc4cc"></path><path d="M420.76 259.558a137.43 137.43 0 0 1-24.801-11.902 137.338 137.338 0 0 0-71.527-20.096h-15.683v8.386c0 16.785 13.607 30.391 30.391 30.391h100.353z" fill="#99e6fc"></path><path d="M54.491 211.357H7.5a7.5 7.5 0 0 1 0-15h46.991a7.5 7.5 0 0 1 0 15z" fill="#433f43"></path><path d="M230.39 273.836a7.5 7.5 0 0 1-7.5-7.5v-11.207a7.5 7.5 0 0 1 15 0v11.207a7.5 7.5 0 0 1-7.5 7.5zM269.535 273.836a7.5 7.5 0 0 1-7.5-7.5v-11.207a7.5 7.5 0 0 1 15 0v11.207a7.5 7.5 0 0 1-7.5 7.5z" fill="#fafbfb"></path><g fill="#e2dee2"><path d="M115.362 393.831H54.491a7.5 7.5 0 0 1 0-15h60.871a7.5 7.5 0 0 1 0 15zM91.563 427.516H19.185a7.5 7.5 0 0 1 0-15h72.378a7.5 7.5 0 0 1 0 15z" fill="#e2dee2"></path></g></g></svg>