<svg viewBox="0 0 70 70" xmlns="http://www.w3.org/2000/svg"><g><path d="m66.581 59.721-7.499-9.125c-.216-.257-.473-.39-.75-.39H11.668c-.278 0-.535.133-.751.39l-7.5 9.125c-.833 1.019-.339 3.014.752 3.014h28.414c.366 0 .722-.146.961-.424A1.872 1.872 0 0 1 35 61.638c.794 0 1.235.313 1.474.604.253.308.62.493 1.018.493H65.83c1.09 0 1.585-1.995.751-3.014z" fill="#dba660"></path><path d="m66.581 59.721-7.499-9.125c-.216-.257-.473-.39-.75-.39l.175 1.138c-9.728 8.154-36.505 10.499-55.48 9.953.089.763.51 1.438 1.143 1.438h28.414c.366 0 .722-.146.961-.424A1.872 1.872 0 0 1 35 61.638c.794 0 1.235.313 1.474.604.253.308.62.493 1.018.493H65.83c1.09 0 1.585-1.995.751-3.014z" fill="#bf7d5a"></path><path d="M54.717 42.096 35 50.233v9.472c1.488-1.565 9.229-5.76 21.597-2.95 2.048.464 5.627 2.765 7.124 1.516 0 0-8.667-11.682-9.004-16.175z" fill="#b0b8cf"></path><path d="M63.721 58.27c-2.077.43-6.565-2.04-6.565-2.04C42.299 48.072 35 59.706 35 59.706c.205.361.448.758.675 1.117.357.564 1.129.633 1.604.165 4.713-4.639 15.127-2.956 18.412-1.696 3.5 1.342 9.679 1.18 9.679 1.18z" fill="#9ea9c9"></path><path d="M54.717 37.985 35 50.233v9.472c1.734-2.186 11.41-13.05 27.558-6.747 0 0-7.504-10.551-7.84-14.973z" fill="#c9cee2"></path><path d="M54.812 36.304C47.716 37.334 40.954 37.628 35 46.06v13.646c1.734-2.276 11.41-16.325 27.558-10.86 0 0-7.41-8.135-7.746-12.54z" fill="#e3e7f0"></path><path d="M15.282 42.096 35 50.233v9.472c-1.488-1.565-9.23-5.76-21.597-2.95-2.048.464-5.627 2.765-7.125 1.516 0 0 8.668-11.682 9.004-16.175z" fill="#c9cee2"></path><path d="M12.844 56.23s-4.488 2.47-6.566 2.04L4.63 60.472s6.178.162 9.678-1.18c3.285-1.26 13.7-2.943 18.412 1.696.476.468 1.248.4 1.604-.165.228-.36.47-.756.676-1.117 0 0-7.299-11.634-22.156-3.474z" fill="#9ea9c9"></path><path d="M15.282 37.985 35 50.233v9.472c-1.735-2.186-11.411-13.05-27.559-6.747 0 0 7.505-10.551 7.841-14.973z" fill="#b0b8cf"></path><path d="M15.188 36.304c7.096 1.03 13.857 1.324 19.812 9.755v13.646C33.265 57.43 23.589 43.38 7.44 48.845c0 0 7.41-8.135 7.747-12.54z" fill="#c9cee2"></path><path d="M34.713 21.255c.693 0 1.254-.562 1.254-1.255v-4.989a1.254 1.254 0 1 0-2.508 0v4.99c0 .692.561 1.254 1.254 1.254zM48.871 32.544c.347.6 1.114.805 1.713.459l4.321-2.495a1.254 1.254 0 1 0-1.254-2.172l-4.32 2.495a1.254 1.254 0 0 0-.46 1.713zM43.286 24.28c.6.346 1.367.14 1.713-.46l2.495-4.32a1.254 1.254 0 1 0-2.172-1.254l-2.495 4.32c-.346.6-.14 1.367.459 1.714zM26.065 24.28c.6-.347.806-1.114.46-1.714l-2.495-4.32a1.254 1.254 0 1 0-2.173 1.254l2.495 4.32c.346.6 1.113.806 1.713.46zM20.48 32.544c.346-.6.14-1.367-.46-1.713l-4.32-2.495a1.254 1.254 0 1 0-1.254 2.172l4.32 2.495c.6.346 1.368.14 1.714-.46z" fill="#ffd06c"></path><path d="M34.713 13.757c-.225 0-.426.075-.608.18.379.215.646.607.646 1.074v4.99c0 .467-.267.858-.646 1.074.182.104.383.18.608.18.693 0 1.254-.562 1.254-1.255v-4.989c0-.693-.561-1.254-1.254-1.254zM55.364 28.795a1.254 1.254 0 0 0-1.713-.459l-.004.002c.199.107.38.248.5.457.347.6.142 1.367-.458 1.713L49.372 33c.37.2.822.228 1.212.003l4.321-2.495c.6-.346.806-1.113.46-1.713zM47.035 17.786c-.391-.225-.844-.196-1.214.003.597.347.802 1.112.456 1.71l-2.495 4.322c-.12.208-.301.35-.5.456.002 0 .003.002.004.003.6.346 1.367.14 1.713-.46l2.495-4.32c.346-.6.14-1.367-.46-1.714zM24.03 18.245a1.254 1.254 0 0 0-1.714-.459l-.002.003c.198.106.378.248.499.456l2.495 4.321a1.253 1.253 0 0 1-.456 1.71c.37.2.823.23 1.213.004.6-.347.805-1.114.46-1.714zM20.02 30.83l-4.32-2.494c-.39-.226-.843-.197-1.213.002l4.317 2.493c.6.346.806 1.113.46 1.713-.122.21-.303.35-.501.456l.004.003a1.254 1.254 0 1 0 1.254-2.172z" fill="#febc1f"></path><path d="M59.879 18.33c-1.393-.4-2.34-1.281-2.837-2.643a.306.306 0 0 0-.584.021c-.4 1.393-1.282 2.338-2.643 2.836a.306.306 0 0 0 .02.584c1.394.4 2.34 1.281 2.838 2.643.103.283.5.269.584-.021.4-1.393 1.281-2.338 2.643-2.836a.306.306 0 0 0-.021-.584z" fill="#986ff9"></path><path d="M59.9 18.914a.306.306 0 0 0-.021-.584c-.928-.267-1.656-.748-2.187-1.44.232 1.293.07 2.86-1.404 4.07.148.249.277.518.385.81a.304.304 0 0 0 .55.05c.053-.171.112-.337.178-.497.45-1.16 1.281-1.964 2.499-2.409z" fill="#7e5af2"></path><path d="M45.091 10.112c-1.393-.4-2.339-1.282-2.837-2.643a.306.306 0 0 0-.584.02c-.4 1.394-1.282 2.34-2.643 2.837a.306.306 0 0 0 .02.584c1.394.4 2.34 1.281 2.838 2.642.103.283.5.27.584-.02.4-1.393 1.281-2.338 2.643-2.836a.306.306 0 0 0-.02-.584z" fill="#fa5f7f"></path><path d="M45.112 10.696a.306.306 0 0 0-.02-.584c-.929-.267-1.657-.748-2.188-1.44.232 1.293.07 2.86-1.404 4.07.149.249.278.518.385.81a.304.304 0 0 0 .55.05c.053-.172.112-.338.179-.497.449-1.16 1.28-1.964 2.498-2.41z" fill="#f34b58"></path><path d="M30.304 10.112c-1.394-.4-2.34-1.282-2.838-2.643a.306.306 0 0 0-.584.02c-.4 1.394-1.281 2.34-2.643 2.837a.306.306 0 0 0 .021.584c1.393.4 2.34 1.281 2.837 2.642.104.283.501.27.584-.02.4-1.393 1.282-2.338 2.643-2.836a.306.306 0 0 0-.02-.584z" fill="#5094ff"></path><path d="M30.324 10.696a.306.306 0 0 0-.02-.584c-.928-.267-1.657-.748-2.187-1.44.232 1.293.07 2.86-1.405 4.07.149.249.278.518.385.81a.304.304 0 0 0 .551.05c.052-.172.112-.338.178-.497.45-1.16 1.281-1.964 2.498-2.41z" fill="#497bfe"></path><path d="M15.516 19.033c-1.393-.4-2.34-1.282-2.837-2.643a.306.306 0 0 0-.584.02c-.4 1.394-1.282 2.339-2.643 2.837a.306.306 0 0 0 .02.584c1.394.4 2.34 1.281 2.838 2.642.103.283.5.27.584-.02.4-1.393 1.281-2.338 2.643-2.836a.306.306 0 0 0-.021-.584z" fill="#78e75a"></path><path d="M15.537 19.617a.306.306 0 0 0-.021-.584c-.928-.267-1.656-.748-2.187-1.44.232 1.293.07 2.86-1.404 4.07.148.248.277.518.385.81a.304.304 0 0 0 .55.05c.053-.172.112-.338.178-.497.45-1.16 1.281-1.964 2.499-2.41z" fill="#72d561"></path><path d="M39.375 32.54c-2.167-.622-3.638-1.992-4.412-4.11a.476.476 0 0 0-.909.033c-.623 2.166-1.993 3.636-4.11 4.41a.476.476 0 0 0 .032.908c2.167.624 3.638 1.993 4.413 4.11.16.44.778.419.908-.032.623-2.166 1.993-3.636 4.11-4.41a.476.476 0 0 0-.032-.908z" fill="#ffd06c"></path><path d="M39.407 33.449a.476.476 0 0 0-.032-.908c-1.443-.415-2.575-1.163-3.401-2.24.361 2.011.109 4.449-2.184 6.33a7.4 7.4 0 0 1 .599 1.26c.146.4.664.415.856.079.082-.268.174-.527.277-.774.698-1.805 1.992-3.055 3.885-3.747z" fill="#febc1f"></path><path d="M49.754 39.1c-3.13.932-6.113 1.976-8.934 3.646 2.4-2.235 5.697-3.403 8.934-3.645zM16.131 38.596c-1.71 4.913-3.001 6.384-3.188 6.738l.331-.324c2.778-2.723 2.968-6.695 3.01-6.852z" fill="#ffffff"></path></g></svg>