<svg viewBox="0 0 512.003 512.003" xmlns="http://www.w3.org/2000/svg"><g><path d="m331.002 48.54 76.673 182.376L331.002 512h-123.98c-8.17.167-15.323-7.139-15-15.3l2.87-145.37c-25.98-25.52-43.09-57.44-49.62-92.73l71.065-181.563s51.439-36.275 114.665-28.497z" fill="#ffcccc"></path><path d="M510.592 318.01a36.708 36.708 0 0 1-19.67 23.14l-19.9 9.37v35.91c0 32.85-26.73 59.57-59.57 59.57h-17.36l-1.08 51.31c-.17 8.16-6.83 14.69-14.99 14.69h-47.02V48.54c5.79.59 11.57 1.48 17.31 2.66 33.69 6.94 65.05 23.87 88.29 47.67 25.79 26.4 39.42 58.61 39.42 93.13v34.7c0 9.73 2.79 19.18 8.08 27.33l22 33.95a36.71 36.71 0 0 1 4.49 30.03z" fill="#ffb3b3"></path><path d="m182.912 8.84 45.179 151.443-45.179 127.377H25.022c-5.14 0-9.87-2.79-12.35-7.29-2.49-4.5-2.33-9.99.41-14.33l157.9-250.61c2.58-4.1 7.09-6.59 11.93-6.59z" fill="#e62e6b"></path><path d="M353.152 280.37c-2.48 4.5-7.21 7.29-12.35 7.29h-157.89V8.84c4.85 0 9.35 2.49 11.93 6.59l157.9 250.61c2.74 4.34 2.9 9.83.41 14.33z" fill="#b32453"></path><path d="M182.912 0a15 15 0 0 0-12.69 7L2.312 273.51a14.973 14.973 0 0 0-.44 15.24 14.98 14.98 0 0 0 13.13 7.76h167.91l15-16.24-15-13.76H42.182l140.73-223.37 10.273-15.956z" fill="#ff6666"></path><path d="m182.912 113.13 12.424 45.275-12.424 27.975c-8.28 0-15-6.71-15-15v-43.25c0-8.29 6.72-15 15-15z" fill="#e6f7ff"></path><circle cx="182.912" cy="231.38" fill="#e6f7ff" r="15"></circle><path d="M197.912 128.13v43.25c0 8.29-6.72 15-15 15v-73.25c8.28 0 15 6.71 15 15z" fill="#cceeff"></path><path d="M363.962 288.75a14.996 14.996 0 0 1-13.14 7.76h-167.91v-30h140.73L182.912 43.14V0a15 15 0 0 1 12.69 7l167.91 266.51c2.92 4.62 3.08 10.46.45 15.24z" fill="#e62e6b"></path></g></svg>