<svg viewBox="0 0 64 64" xmlns="http://www.w3.org/2000/svg"><g><path d="m55.11 40.45-2.01 1c-.67.34-1.1 1.03-1.1 1.79V50c0 5.57-7.35 4.11-13 3.11-.64-.11-1.22.42-1.17 1.07l.175 1.82H18v-8.99c0-2.15-.783-4.31-2-5.99-2.56-3.65-4-7.74-4-13.02 0-11.422 9.456-20.369 20.73-19.99C43.57 8.4 52 17.63 52 28.48v3.049c0 .309.072.614.21.891l3.34 6.69c.25.49.05 1.09-.44 1.34z" fill="#f2c8a0"></path><path d="M38 26v6c0 .55-.45 1-1 1h-1.59c-.27.93-.64 1.82-1.09 2.66l1.12 1.12c.39.39.39 1.02 0 1.41l-4.25 4.24c-.39.4-1.02.4-1.41 0l-1.12-1.11c-.84.45-1.73.82-2.66 1.09V44c0 .55-.45 1-1 1h-6c-.55 0-1-.45-1-1v-1.59c-.49-.14-.98-.31-1.44-.51-.16-.3-.35-.59-.56-.88-2.56-3.65-4-7.74-4-13.02 0-4.29 1.33-8.23 3.6-11.45.76-.39 1.56-.72 2.4-.96V14a.997.997 0 0 1 1-1h6c.55 0 1 .45 1 1v1.59c.93.27 1.82.64 2.66 1.09l1.12-1.12a.996.996 0 0 1 1.41 0l4.25 4.25c.39.39.39 1.02 0 1.41l-1.12 1.12c.45.84.82 1.73 1.09 2.66H37c.55 0 1 .45 1 1z" fill="#d2aa82"></path><path d="M37 24h-1.587a13.922 13.922 0 0 0-1.096-2.66l1.118-1.118a.999.999 0 0 0 0-1.414l-4.243-4.243a.999.999 0 0 0-1.414 0l-1.118 1.118A13.922 13.922 0 0 0 26 14.587V13a1 1 0 0 0-1-1h-6a1 1 0 0 0-1 1v1.587c-.93.277-1.822.642-2.66 1.096l-1.118-1.118a.999.999 0 0 0-1.414 0l-4.243 4.243a.999.999 0 0 0 0 1.414l1.118 1.118c-.454.838-.819 1.73-1.096 2.66H7a1 1 0 0 0-1 1v6a1 1 0 0 0 1 1h1.587c.277.93.642 1.822 1.096 2.66l-1.118 1.118a.999.999 0 0 0 0 1.414l4.243 4.243a.999.999 0 0 0 1.414 0l1.118-1.118c.838.454 1.73.819 2.66 1.096V43a1 1 0 0 0 1 1h6a1 1 0 0 0 1-1v-1.587c.93-.277 1.822-.642 2.66-1.096l1.118 1.118a.999.999 0 0 0 1.414 0l4.243-4.243a.999.999 0 0 0 0-1.414l-1.118-1.118c.454-.838.819-1.73 1.096-2.66H37a1 1 0 0 0 1-1v-6a1 1 0 0 0-1-1z" fill="#0a5078"></path><circle cx="22" cy="28" fill="#fab400" r="11"></circle><circle cx="22" cy="28" fill="#f0f0f0" r="10"></circle><path d="M21 31.5c-.384 0-.768-.146-1.061-.439l-2-2a1.5 1.5 0 1 1 2.121-2.121l2 2A1.5 1.5 0 0 1 21 31.5z" fill="#0082aa"></path><path d="M21 31.5a1.5 1.5 0 0 1-1.061-2.56l4-4a1.5 1.5 0 1 1 2.121 2.121l-4 4A1.491 1.491 0 0 1 21 31.5z" fill="#c80a50"></path><path d="M47 34a1 1 0 0 1-1-1v-2a1 1 0 0 1 2 0v2a1 1 0 0 1-1 1zM52 45v2h-1.17c-2.09 0-4.06-.81-5.54-2.29-.39-.39-.39-1.03 0-1.42s1.03-.39 1.42 0c1.1 1.1 2.56 1.71 4.12 1.71z" fill="#00143c"></path><circle cx="22" cy="20" fill="#c80a50" r=".5"></circle><circle cx="22" cy="36" fill="#c80a50" r=".5"></circle><circle cx="22" cy="20" fill="#00325a" r=".5"></circle><circle cx="22" cy="36" fill="#00325a" r=".5"></circle><circle cx="27.657" cy="22.343" fill="#00325a" r=".5"></circle><circle cx="16.343" cy="33.657" fill="#00325a" r=".5"></circle><circle cx="30" cy="28" fill="#00325a" r=".5"></circle><circle cx="14" cy="28" fill="#00325a" r=".5"></circle><circle cx="27.657" cy="33.657" fill="#00325a" r=".5"></circle><circle cx="16.343" cy="22.343" fill="#00325a" r=".5"></circle></g></svg>