<svg viewBox="0 0 64 64" xmlns="http://www.w3.org/2000/svg"><g><path d="M3 33v19h29V33l3-3H6a3 3 0 0 0-3 3z" fill="#fcd841"></path><path d="M35.924 29.617A1 1 0 0 0 35 29H6a4.004 4.004 0 0 0-4 4v19a1 1 0 0 0 1 1h1V33a2.002 2.002 0 0 1 2-2h26.586l-1.293 1.293A1 1 0 0 0 31 33v20h1a1 1 0 0 0 1-1V33.414l2.707-2.707a.999.999 0 0 0 .217-1.09z" fill="#ffe675"></path><path d="m35.363 21.894 11.258-9.006a3.306 3.306 0 0 0 .272-4.92 3.306 3.306 0 0 0-4.676 0l-10.39 10.39z" fill="#a7aebb"></path><path d="M35 30h9a3 3 0 0 1 3 3v19H32V33a3 3 0 0 1 3-3z" fill="#fff0aa"></path><path d="M44 29h-9a4.004 4.004 0 0 0-4 4v19a1 1 0 0 0 1 1h1V33a2.002 2.002 0 0 1 2-2h9a2.002 2.002 0 0 1 2 2v20h1a1 1 0 0 0 1-1V33a4.004 4.004 0 0 0-4-4z" fill="#fff0aa"></path><path d="M39 48h20v4H39z" fill="#ffe675"></path><path d="M41 50h18v2H41z" fill="#fcd841"></path><path d="M42 44h20v4H42z" fill="#ffe675"></path><path d="M44 46h18v2H44z" fill="#fcd841"></path><path d="m35.305 21.836-3.478-3.477-19.32 19.319a1.254 1.254 0 0 0 .774 2.136 11.553 11.553 0 0 0 8.882-3.016L26 33.256V29h4.611l4.636-4.28a2 2 0 0 0 .058-2.884z" fill="#bbc2cc"></path><path d="M1 52h62v5H1z" fill="#cd9d67"></path><path d="M3 54h60v3H3z" fill="#be8959"></path></g></svg>