<svg viewBox="0 0 512 512" xmlns="http://www.w3.org/2000/svg"><g><path d="M308.608 362.32 192.336 480.032H512L395.728 362.32c-24.064-24.352-63.056-24.352-87.12 0z" fill="#df9d27"></path><path d="M145.344 332.88 0 480.032h399.6L254.256 332.896c-30.08-30.448-78.832-30.448-108.912-.016z" fill="#e8af2a"></path><path d="M108.112 297.504c-6.528 0-11.824 5.296-11.824 11.824v22.16H77.232v-53.616c0-8.112-6.576-14.688-14.688-14.688s-14.688 6.576-14.688 14.688v102.704H27.984V358.4c0-6.528-5.296-11.824-11.824-11.824S4.336 351.872 4.336 358.4v33.984c0 6.528 5.296 11.824 11.824 11.824h31.68v70.368h29.392v-119.44h30.88c6.528 0 11.824-5.296 11.824-11.824v-33.984c0-6.528-5.296-11.824-11.824-11.824z" fill="#7fb241"></path><path d="M512 500.32v-68.976c-170.672-31.808-341.328 57.152-512 28.528v40.448h512z" fill="#f3c432"></path><path d="M495.328 381.328h-17.952a4.65 4.65 0 0 1-4.656-4.656 4.65 4.65 0 0 1 4.656-4.656h13.296v-8.736c0-2.576 2.08-4.656 4.656-4.656s4.656 2.08 4.656 4.656v13.392a4.65 4.65 0 0 1-4.656 4.656zM477.376 400.672h-18.272a4.65 4.65 0 0 1-4.656-4.656v-13.392a4.65 4.65 0 0 1 4.656-4.656 4.65 4.65 0 0 1 4.656 4.656v8.736h13.616c2.576 0 4.656 2.08 4.656 4.656s-2.08 4.656-4.656 4.656z" fill="#7fb241"></path><path d="M483.168 444.992V350.88a5.79 5.79 0 0 0-5.792-5.792 5.79 5.79 0 0 0-5.792 5.792v94.096h11.584v.016z" fill="#7fb241"></path><circle cx="107.456" cy="77.536" fill="#fff100" r="65.856"></circle></g></svg>