<svg viewBox="0 0 512 512" xmlns="http://www.w3.org/2000/svg"><g><path d="m256 15-20.016 241L256 497c133.101 0 241-107.899 241-241S389.101 15 256 15z" fill="#e1ebf0"></path><path d="M15 256c0 133.101 107.899 241 241 241V15C122.899 15 15 122.9 15 256z" fill="#fff5f5"></path><g fill="#00aa63"><path d="M437.02 74.98C388.667 26.629 324.38 0 256 0l-10.008 15L256 30c60.367 0 117.12 23.508 159.806 66.194 39.13 39.13 62.13 90.085 65.692 144.806h-30.067C443.744 139.906 359.028 60 256 60l-10.008 14.55L256 90c40.377 0 77.428 14.497 106.237 38.551l-21.31 21.31C317.638 131.188 288.103 120 256 120l-10.008 14.55L256 150c58.449 0 106 47.552 106 106s-47.551 106-106 106l-10.008 13.88L256 392c74.991 0 136-61.01 136-136 0-32.103-11.188-61.638-29.86-84.927l21.31-21.31C407.503 178.572 422 215.623 422 256c0 91.533-74.467 166-166 166l-10.008 35.207L256 512c68.38 0 132.667-26.629 181.02-74.98C485.371 388.667 512 324.38 512 256s-26.629-132.667-74.98-181.02zm-21.214 340.826c-39.131 39.131-90.086 62.13-144.806 65.692v-30.067c96.142-7.31 173.121-84.289 180.431-180.431h30.067c-3.562 54.721-26.562 105.675-65.692 144.806z" fill="#00aa63"></path><path d="M284.785 185.662C275.633 181.905 265.948 180 256 180l-10.008 13.88L256 210a45.57 45.57 0 0 1 17.393 3.414zM332 256c0-9.948-1.905-19.634-5.662-28.786l-27.753 11.391A45.58 45.58 0 0 1 302 256c0 25.364-20.636 46-46 46l-10.008 15.209L256 332c41.907 0 76-34.094 76-76z" fill="#00aa63"></path></g><path d="M90.685 271h30.132c2.686 24.646 11.996 47.835 27.335 67.777l23.779-18.291C157.584 301.833 150 279.533 150 256c0-23.826 7.904-45.84 21.225-63.562l21.509 21.51C184.697 225.999 180 240.459 180 256c0 41.906 34.093 76 76 76v-30c-25.364 0-46-20.636-46-46s20.636-46 46-46v-30c-15.541 0-30.002 4.697-42.053 12.734l-21.509-21.509C210.159 157.904 232.173 150 256 150v-30c-69.921 0-127.678 53.042-135.169 121H90.669c1.81-20.362 7.321-39.953 16.464-58.412L80.25 169.272C66.813 196.4 60 225.58 60 256c0 103.029 79.906 187.745 181 195.431v30.067c-54.72-3.562-105.676-26.561-144.806-65.692C53.508 373.12 30 316.367 30 256S53.508 138.88 96.194 96.194a228.378 228.378 0 0 1 34.034-28.039l15.117 26.184a196.678 196.678 0 0 0-36.652 32.491l22.545 19.791C162.828 110.638 208.301 90 256 90V60c-29.629 0-58.523 6.748-84.688 19.316l-15.123-26.194C186.853 38.002 220.809 30 256 30V0C187.62 0 123.333 26.629 74.98 74.98 26.629 123.333 0 187.62 0 256s26.629 132.667 74.98 181.02C123.333 485.371 187.62 512 256 512v-90c-86.476 0-157.707-66.47-165.315-151z" fill="#70da40"></path><path d="M187.984 373.743C208.59 385.687 232.109 392 256 392v-30c-18.614 0-36.931-4.914-52.972-14.212z" fill="#70da40"></path></g></svg>