<svg viewBox="0 0 512 512" xmlns="http://www.w3.org/2000/svg"><g><path d="M134.57 283.793H0l20.887-32.375L0 219.043h149.191" fill="#cccccc"></path><path d="m105.727 316.313-51.38 51.378-8.124-37.656-37.66-8.125 68.906-68.906" fill="#cccccc"></path><path d="M344.547 446.719V512H58.32v-65.281c0-28.051 22.739-50.785 50.778-50.785h184.664c28.05 0 50.785 22.734 50.785 50.785zm0 0" fill="#3b485b"></path><path d="M344.547 446.719V512H75.719v-65.281c0-28.051 22.734-50.785 50.785-50.785h167.258c28.05 0 50.785 22.734 50.785 50.785zm0 0" fill="#515f75"></path><path d="m110.527 395.941-3.082 78.094 32.832 8.211-29.476 29.473h181.265l-29.476-29.473 32.828-8.21-3.078-78.095" fill="#3b485b"></path><path d="m264.02 395.941-33.067 116.055h-59.031l-33.067-116.055" fill="#f2f2f2"></path><path d="m160.988 424.434 40.45 50.629 40.046-50.438-40.047-7.484z" fill="#f74866"></path><path d="m157.438 461.14 44-44 44 44 18.582-65.199H138.855zm0 0" fill="#e6e6e6"></path><path d="M239.059 330.734v65.211l-37.621 21.196-11.625-6.547-25.997-14.649v-65.25l25.996.012zm0 0" fill="#f9c2af"></path><path d="m172.125 511.996 29.313-36.933 29.515 36.933" fill="#f74866"></path><path d="m189.813 330.707-25.997-.012v65.246l25.996 14.653v-30.172c3.844.379 7.735.594 11.676.594 13.133 0 25.774-2.145 37.57-6.106v-44.176zm0 0" fill="#ea9e8f"></path><path d="M319.59 129.09V247.19c0 5.996-.45 11.875-1.305 17.63-8.512 56.863-57.562 100.464-116.797 100.464-32.601 0-62.136-13.222-83.504-34.59-17.437-17.437-29.449-40.32-33.28-65.863a119.901 119.901 0 0 1-1.306-17.64V129.09zm0 0" fill="#f9c2af"></path><path d="M200.652 365.281c-32.28-.219-61.472-13.394-82.668-34.582-21.37-21.379-34.59-50.894-34.59-83.508V129.094h53.172V247.19c0 32.614 7.262 62.13 19.012 83.508 11.567 21.04 27.477 34.172 45.074 34.582zm0 0" fill="#ea9e8f"></path><path d="M319.59 129.09v29.597c-8.094 5.797-17.774 10.883-29.274 15.028-42.796 15.414-84.222 10.222-113.515 2.058 0 0-.012 0-.012-.011-25.523-7.102-41.836-16.48-41.836-16.48s-10.765 51.831-51.558 51.831V129.09zm0 0" fill="#ea9e8f"></path><path d="M290.313 161.184c-42.79 15.418-84.22 10.226-113.52 2.062 0 0-.008 0-.008-.012-25.515-7.109-41.828-16.488-41.828-16.488s-10.773 51.832-51.562 51.832c0 0-27.137-48.004-26.286-92.418.442-23.031 19.43-40.254 41.016-40.254 4.031 0 8.156.594 12.262 1.875 11.562-31.043 42.101-50.691 75.168-48.68 5.152.32 10.332.731 15.53 1.2.997.086 2.005.176 2.997.27.106.007.207.019.309.027C258.367 25.668 313.035 35.539 345.156 0c0 0 53.094 122.3-54.844 161.184zm0 0" fill="#515f75"></path><path d="M185.555 19.102c5.152.32 10.332.73 15.535 1.199-47.625-2.008-85.461 102.87-24.305 142.933-25.515-7.109-41.828-16.488-41.828-16.488s-10.773 51.832-51.562 51.832c0 0-27.137-48.004-26.286-92.418.442-23.031 19.43-40.254 41.016-40.254 4.031 0 8.156.594 12.262 1.875 11.562-31.043 42.101-50.687 75.168-48.68zm0 0" fill="#3b485b"></path><path d="M204.414 20.61c-.113-.02-.219-.028-.328-.04.101.012.203.02.305.032zm0 0" fill="#f4af9d"></path><path d="M201.488 308.66c-12.496 0-24.996-4.758-34.508-14.273a7.83 7.83 0 0 1 0-11.075 7.83 7.83 0 0 1 11.075 0c12.922 12.922 33.949 12.922 46.867 0 3.062-3.058 8.02-3.058 11.078 0s3.059 8.016 0 11.075c-9.516 9.515-22.012 14.273-34.512 14.273zm0 0" fill="#e06e86"></path><path d="M319.59 205.21v41.981c0 5.996-.45 11.875-1.305 17.63-.074 0-.156 0-.238-.012a1365.3 1365.3 0 0 0-233.125.011c-.07.012-.145.012-.219.012a119.901 119.901 0 0 1-1.305-17.64V205.21a1425.176 1425.176 0 0 1 236.192 0zm0 0" fill="#ea9e8f"></path><path d="M329.93 205.383v35.719c0 6.578-5.325 11.902-11.903 11.902H84.945c-6.57 0-11.894-5.324-11.894-11.902v-35.72c0-6.577 5.324-11.902 11.894-11.902h233.082c6.578 0 11.903 5.325 11.903 11.903zm0 0" fill="#cccccc"></path><path d="M329.93 205.383v35.719c0 6.578-5.325 11.902-11.903 11.902H138.203c-6.566 0-11.894-5.324-11.894-11.902v-35.72c0-6.577 5.328-11.902 11.894-11.902h179.824c6.578 0 11.903 5.325 11.903 11.903zm0 0" fill="#e6e6e6"></path></g></svg>