<svg height="512" viewBox="0 0 512 512" width="512" xmlns="http://www.w3.org/2000/svg" xmlns:xlink="http://www.w3.org/1999/xlink"><linearGradient id="New_Gradient_Swatch_1" gradientUnits="userSpaceOnUse" x1="114.522" x2="270.52" y1="197.478" y2="41.48"><stop offset="0" stop-color="#5d99ca"/><stop offset="1" stop-color="#7ed7de"/></linearGradient><linearGradient id="New_Gradient_Swatch_1-2" x1="179.216" x2="335.215" xlink:href="#New_Gradient_Swatch_1" y1="262.173" y2="106.174"/><linearGradient id="New_Gradient_Swatch_3" gradientUnits="userSpaceOnUse" x1="212.686" x2="396.686" y1="500.686" y2="316.686"><stop offset="0" stop-color="#fc8450"/><stop offset="1" stop-color="#f0d160"/></linearGradient><g id="_20-assign" data-name="20-assign"><g id="flat"><g fill="#c1f1ea"><circle cx="432" cy="72" r="56"/><path d="m464 128h-64a48.055 48.055 0 0 0 -48 48v64a16 16 0 0 0 16 16h128a16 16 0 0 0 16-16v-64a48.055 48.055 0 0 0 -48-48z"/><circle cx="80" cy="72" r="56"/><path d="m112 128h-64a48.055 48.055 0 0 0 -48 48v64a16 16 0 0 0 16 16h128a16 16 0 0 0 16-16v-64a48.055 48.055 0 0 0 -48-48z"/></g><circle cx="256" cy="56" fill="url(#New_Gradient_Swatch_1)" r="56"/><path d="m288 112h-64a48.055 48.055 0 0 0 -48 48v64a16 16 0 0 0 16 16h128a16 16 0 0 0 16-16v-64a48.055 48.055 0 0 0 -48-48z" fill="url(#New_Gradient_Swatch_1-2)"/><path d="m320 288a32 32 0 0 1 32 32v160a0 0 0 0 1 0 0h-64a0 0 0 0 1 0 0v-160a32 32 0 0 1 32-32z" fill="#f0d160"/><path d="m384 304a32 32 0 0 1 32 32v128a0 0 0 0 1 0 0h-64a0 0 0 0 1 0 0v-128a32 32 0 0 1 32-32z" fill="#f0d160"/><path d="m448 336a32 32 0 0 1 32 32v96a0 0 0 0 1 0 0h-64a0 0 0 0 1 0 0v-96a32 32 0 0 1 32-32z" fill="#f0d160"/><path d="m224 512h-64v-168a8 8 0 0 1 8-8h8a48 48 0 0 1 48 48z" fill="#f0d160"/><path d="m288 376v-152a32 32 0 0 0 -32-32 32 32 0 0 0 -32 32v288h256v-112z" fill="url(#New_Gradient_Swatch_3)"/></g></g></svg>