<svg viewBox="0 0 497.003 497.003" xmlns="http://www.w3.org/2000/svg"><g><path d="M496.205 19.776c2.383-7.135-.82-14.057-6.343-17.501L302.323 189.814l87.285 2.432a441.297 441.297 0 0 0 106.597-172.47z" fill="#91603d"></path><path d="m368.396 171.033-66.072 18.781 2.432-82.42A441.295 441.295 0 0 1 477.226.798c4.589-1.534 9.093-.75 12.636 1.478 1.047 2.362.742 5.777-1.414 9.744-30.512 56.136-71.616 110.576-120.052 159.013z" fill="#aa7e4e"></path><path d="m57.374 439.542 53.025-53.025 42.42 42.42-53.025 53.025z" fill="#ffb352"></path><path d="m14.955 397.117 53.025-53.025 63.63 63.63-53.025 53.025zM110.457 471.398l-21.213-21.213-21.213 21.213 21.213 21.213c5.855 5.855 15.358 5.855 21.213 0 5.862-5.862 5.855-15.358 0-21.213z" fill="#ffcd5e"></path><path d="M89.244 450.185c5.855 5.855 5.862 15.351 0 21.213-5.855 5.855-15.358 5.855-21.213 0l-63.64-63.64c-5.855-5.855-5.855-15.358 0-21.213 5.862-5.862 15.358-5.855 21.213 0z" fill="#ffe669"></path><path d="m389.609 192.246-63.64 63.64-42.426-42.427 84.853-42.426z" fill="#ffb352"></path><path d="m241.075 171.047 63.63-63.63 63.63 63.63-63.63 63.63zM330.325 268.387l16.857-33.715-21.213-21.213-204.905 204.906v21.213l15.91 15.91a7.5 7.5 0 0 0 10.607 0l171.502-171.502a60.022 60.022 0 0 0 11.242-15.599z" fill="#ffcd5e"></path><path d="M297.869 262.773 121.064 439.578l-10.607-10.607-63.64-63.64-5.303-5.303a7.5 7.5 0 0 1 0-10.607L213.016 177.92a60.019 60.019 0 0 1 15.599-11.243l33.715-16.857 63.64 63.64-16.857 33.715a60.08 60.08 0 0 1-11.244 15.598z" fill="#ffe669"></path></g></svg>