<svg viewBox="0 0 511 511" xmlns="http://www.w3.org/2000/svg"><g><path d="M255.5 21c-135.31 0-245 109.69-245 245 0 90.891 49.494 170.221 123 212.511h1v-63.86c0-21.505 17.495-39 39-39h164c21.505 0 39 17.495 39 39v63.86h1c73.506-42.29 123-121.62 123-212.511 0-135.31-109.69-245-245-245z" fill="#6cf5c2"></path><path d="M255.5 66c-110.281 0-200 89.719-200 200 0 64.841 31.025 122.564 79 159.132v-10.48c0-21.505 17.495-39 39-39h164c21.505 0 39 17.495 39 39v10.48c47.975-36.568 79-94.291 79-159.132 0-110.281-89.719-200-200-200z" fill="#05e39c"></path><path d="M394.501 415.654a6 6 0 0 1-4.173-10.311C428.485 368.413 449.5 318.927 449.5 266c0-106.972-87.028-194-194-194s-194 87.028-194 194c0 51.294 19.916 99.693 56.08 136.282a6 6 0 0 1-8.535 8.435C70.646 371.868 49.5 320.473 49.5 266c0-113.589 92.411-206 206-206s206 92.411 206 206c0 56.206-22.312 108.755-62.827 147.966a5.983 5.983 0 0 1-4.172 1.688z" fill="#fef0ae"></path><path d="M142.927 390.481c7.149-9.024 18.193-14.83 30.573-14.83h164c12.381 0 23.424 5.806 30.573 14.83 33.968-30.747 55.341-75.164 55.341-124.481 0-92.589-75.326-167.914-167.914-167.914S87.586 173.411 87.586 266c0 49.317 21.373 93.734 55.341 124.481z" fill="#0ed290"></path><path d="M125.78 378.5a5.99 5.99 0 0 1-4.637-2.188C95.635 345.299 81.586 306.123 81.586 266c0-95.896 78.018-173.914 173.914-173.914a6 6 0 0 1 0 12c-89.279 0-161.914 72.635-161.914 161.914 0 37.349 13.078 73.817 36.825 102.688a6 6 0 0 1-4.631 9.812z" fill="#6cf5c2"></path><path d="M175.338 375.651h160.324c33.746-24.713 55.667-64.619 55.667-109.651 0-75.016-60.813-135.829-135.829-135.829S119.671 190.984 119.671 266c0 45.032 21.921 84.939 55.667 109.651z" fill="#00c285"></path><path d="M359.381 359.5a6.002 6.002 0 0 1-4.584-9.868c19.689-23.346 30.532-53.047 30.532-83.632 0-71.588-58.241-129.829-129.829-129.829S125.671 194.412 125.671 266a6 6 0 0 1-12 0c0-78.205 63.624-141.829 141.829-141.829S397.329 187.795 397.329 266c0 33.412-11.847 65.861-33.358 91.368a5.99 5.99 0 0 1-4.59 2.132z" fill="#6cf5c2"></path><path d="M366 243v16.5c0 8.284 6.716 15 15 15h20.5c8.284 0 15-6.716 15-15V243z" fill="#cbc4cc"></path><path d="M391.5 259.5V243H366v16.5c0 8.284 6.716 15 15 15h20.5c.854 0 1.685-.088 2.5-.225-7.092-1.192-12.5-7.344-12.5-14.775z" fill="#b5adb6"></path><path d="M295.793 219.772v23.354c10.53.701 18.889 9.468 18.889 20.172v10.913h10.658c3.155 0 6.126.782 8.75 2.144v-35.596c0-25.981-21.062-47.042-47.042-47.042h-3.038c7.218 6.375 11.783 15.69 11.783 26.055z" fill="#554e56"></path><path d="M185.66 274.211h10.658v-10.913c0-11.16 9.08-20.24 20.24-20.24h77.883c.797 0 1.579.058 2.351.148v-23.434c0-19.756-16.016-35.772-35.772-35.772h-71.966c-6.708 0-12.145 5.437-12.145 12.145v80.21a18.941 18.941 0 0 1 8.751-2.144z" fill="#685e68"></path><path d="M185.66 274.211h10.658v-10.913c0-9.093 6.029-16.802 14.299-19.347v-47.806c0-6.707 5.438-12.145 12.145-12.145h-33.707c-6.708 0-12.145 5.437-12.145 12.145v80.21a18.934 18.934 0 0 1 8.75-2.144z" fill="#554e56"></path><g fill="#918291"><path d="M185.66 274.211h10.658v-10.913c0-3.179.757-6.178 2.069-8.857H176.91v21.914a18.934 18.934 0 0 1 8.75-2.144zM314.682 263.298v10.913h10.658c3.155 0 6.126.782 8.75 2.144v-21.914h-21.478a20.076 20.076 0 0 1 2.07 8.857z" fill="#918291"></path></g><path d="M337.5 374.651h-164c-22.091 0-40 17.909-40 40v63.86c30.954 17.809 66.169 29.043 103.737 31.812l1.486-3.892 8.598-70.039 3.652 4.083c1.149 1.286 2.8 2.024 4.526 2.024s3.377-.738 4.527-2.025l3.651-4.082 8.599 70.04 1.486 3.89c37.568-2.769 72.783-14.003 103.737-31.812v-63.86c.001-22.09-17.908-39.999-39.999-39.999z" fill="#dff6fd"></path><path d="M166.5 414.651c0-22.091 17.909-40 40-40h-33c-22.091 0-40 17.909-40 40v63.86a243.86 243.86 0 0 0 33 15.814z" fill="#c8effe"></path><path d="M259.281 439.809c-.961 1.075-2.34 1.691-3.781 1.691s-2.82-.616-3.781-1.691l-5.121-5.725-9.361 76.24c6.03.444 12.119.677 18.263.677s12.233-.233 18.263-.677l-9.361-76.24z" fill="#01d0fb"></path><path d="m251.719 439.809-5.121-5.725-9.361 76.24c3.066.226 6.148.396 9.244.51l8.516-69.359a5.086 5.086 0 0 1-3.278-1.666z" fill="#01c0fa"></path><path d="M258.073 401.233a4.002 4.002 0 0 0-5.146 0l-21.154 17.775 19.201 21.468a6.072 6.072 0 0 0 9.052 0l19.201-21.468z" fill="#01c0fa"></path><path d="m259.63 433.476-19.341-21.624-8.517 7.156 19.202 21.468a6.072 6.072 0 0 0 9.052 0l4.466-4.993a6.049 6.049 0 0 1-4.862-2.007z" fill="#08a9f1"></path><path d="M273.361 361.421h-35.723c-.296 0-.588-.016-.882-.022L219.6 374.652v48.07c0 3.096 3.617 4.781 5.987 2.789l27.982-23.512a3 3 0 0 1 3.86 0l27.982 23.512c2.37 1.992 5.987.307 5.987-2.789v-48.07l-17.156-13.253c-.293.006-.585.022-.881.022z" fill="#c8effe"></path><path d="m236.5 374.651 17.127-13.23h-15.988c-.296 0-.588-.016-.882-.022l-17.156 13.253v48.07c0 3.096 3.617 4.781 5.987 2.789l10.912-9.169z" fill="#99e6fc"></path><path d="M273.361 361.207h-35.722c-2.23 0-4.416-.185-6.551-.528v12.515c0 .966.384 1.893 1.067 2.576l20.768 20.768a3.644 3.644 0 0 0 5.153 0l20.768-20.768a3.644 3.644 0 0 0 1.067-2.576v-12.515c-2.134.343-4.32.528-6.55.528z" fill="#ffbd86"></path><path d="M249.744 373.665a3.644 3.644 0 0 1-1.067-2.576v-9.882h-11.038c-2.23 0-4.416-.185-6.551-.528v12.515c0 .966.384 1.893 1.067 2.576l20.768 20.768a3.644 3.644 0 0 0 5.153 0l7.27-7.27z" fill="#f6a96c"></path><path d="M325.34 273.211h-10.658v46.729h10.658c11.089 0 20.079-8.99 20.079-20.079v-6.571c0-11.09-8.99-20.079-20.079-20.079z" fill="#ffbd86"></path><path d="M196.318 273.211H185.66c-11.089 0-20.079 8.99-20.079 20.079v6.571c0 11.089 8.99 20.079 20.079 20.079h10.658z" fill="#f6a96c"></path><path d="M273.361 362.421h-35.722c-23.373 0-42.321-18.948-42.321-42.321v-56.802c0-11.731 9.51-21.241 21.241-21.241h77.882c11.731 0 21.241 9.51 21.241 21.241V320.1c0 23.373-18.948 42.321-42.321 42.321z" fill="#fed2a4"></path><path d="M220.5 320.1v-56.802c0-11.731 9.51-21.241 21.241-21.241h-25.182c-11.731 0-21.24 9.51-21.24 21.241V320.1c0 23.373 18.948 42.321 42.321 42.321h25.182c-23.374 0-42.322-18.948-42.322-42.321z" fill="#ffbd86"></path><path d="M255.5 348.338a30.13 30.13 0 0 1-19.239-6.916 7.5 7.5 0 0 1 9.561-11.559c5.609 4.641 13.748 4.641 19.357 0a7.5 7.5 0 0 1 9.561 11.559 30.135 30.135 0 0 1-19.24 6.916zM222.34 299.059a7.499 7.499 0 0 1-7.5-7.5v-9.301c0-4.143 3.357-7.5 7.5-7.5s7.5 3.357 7.5 7.5v9.301a7.5 7.5 0 0 1-7.5 7.5zM288.66 299.059a7.499 7.499 0 0 1-7.5-7.5v-9.301c0-4.143 3.357-7.5 7.5-7.5s7.5 3.357 7.5 7.5v9.301a7.5 7.5 0 0 1-7.5 7.5zM255.496 318.069a7.462 7.462 0 0 1-4.827-1.764l-8.697-7.324a7.5 7.5 0 0 1-1.802-9.237l8.697-16.479a7.501 7.501 0 0 1 13.266 7.002l-5.877 11.135 4.075 3.432a7.498 7.498 0 0 1-4.835 13.235z" fill="#d88a55"></path><path d="M387.839.065c-45.912 1.744-84.23 41.765-84.089 87.711.098 31.967 17.342 59.896 43.015 75.083 3.835 2.269 6.524 6.059 7.276 10.451l2.514 14.69h69.335l2.413-14.532c.736-4.431 3.443-8.257 7.312-10.537 25.814-15.214 43.136-43.299 43.136-75.431-.001-49.457-41.033-89.33-90.912-87.435z" fill="#fed402"></path><path d="M371.516 162.859c-25.674-15.187-42.917-43.116-43.015-75.083-.132-42.962 33.365-80.736 75.252-86.888A88.543 88.543 0 0 0 387.84.065c-45.912 1.744-84.23 41.765-84.089 87.711.098 31.967 17.342 59.896 43.015 75.083 3.835 2.269 6.524 6.059 7.276 10.451l2.513 14.69h24.75l-2.513-14.691c-.752-4.392-3.441-8.182-7.276-10.45z" fill="#fac600"></path><circle cx="391.25" cy="87.5" fill="#fac600" r="53"></circle><path d="M370.5 87.5c0-23.647 15.49-43.67 36.875-50.494A52.944 52.944 0 0 0 391.25 34.5c-29.271 0-53 23.729-53 53s23.729 53 53 53c5.624 0 11.039-.883 16.125-2.506C385.99 131.17 370.5 111.147 370.5 87.5z" fill="#e8b800"></path><path d="M374.524 188h12.175l-14.081-82h36.764l-14.081 82h12.175l14.937-86.984A6 6 0 0 0 416.5 94h-51a6 6 0 0 0-5.913 7.016z" fill="#ffffff"></path><path d="M428.5 244H354a5 5 0 0 1-5-5v-47a5 5 0 0 1 5-5h74.5a5 5 0 0 1 5 5v47a5 5 0 0 1-5 5z" fill="#918291"></path><path d="M382 223.5a5 5 0 0 1-5-5V187h-23a5 5 0 0 0-5 5v47a5 5 0 0 0 5 5h74.5a5 5 0 0 0 5-5v-15.5z" fill="#7a6d79"></path><path d="M458.031 52.564c-13.942 3.529-18.721 8.307-22.249 22.249-.569 2.248-3.777 2.248-4.346 0-3.529-13.942-8.307-18.721-22.249-22.249-2.248-.569-2.248-3.777 0-4.347 13.942-3.529 18.721-8.307 22.249-22.249.569-2.248 3.777-2.248 4.346 0 3.529 13.942 8.307 18.721 22.249 22.249 2.249.57 2.249 3.778 0 4.347z" fill="#ffffff"></path><path d="M419.435 44.499c-2.741 1.491-6.08 2.663-10.249 3.718-2.248.569-2.248 3.777 0 4.346 13.942 3.529 18.721 8.307 22.249 22.249.569 2.248 3.777 2.248 4.346 0 1.055-4.169 2.226-7.512 3.717-10.254-3.338-12.049-8.01-16.72-20.063-20.059z" fill="#f2fbff"></path></g></svg>