<svg viewBox="0 0 512 512" xmlns="http://www.w3.org/2000/svg"><g><path d="M443.146 463.694H162.074c-62.731 0-113.766-51.035-113.766-113.766v-1.417c0-62.731 51.035-113.766 113.766-113.766h187.852c40.072 0 72.673-32.601 72.673-72.673S389.998 89.4 349.926 89.4H68.855c-11.348 0-20.547-9.199-20.547-20.547s9.199-20.547 20.547-20.547h281.071c62.731 0 113.767 51.035 113.767 113.766s-51.036 113.766-113.767 113.766H162.074c-40.072 0-72.673 32.601-72.673 72.673v1.417c0 40.072 32.601 72.673 72.673 72.673h281.072c11.348 0 20.547 9.199 20.547 20.547s-9.199 20.546-20.547 20.546z" fill="#756e78"></path><g fill="#665e66"><path d="M349.926 234.745h24.865c40.072 0 72.673-32.601 72.673-72.673S414.863 89.4 374.791 89.4h-24.865c40.072 0 72.673 32.601 72.673 72.673s-32.601 72.672-72.673 72.672zM73.173 349.928v-1.417c0-62.731 51.035-113.766 113.766-113.766h-24.865c-62.731 0-113.766 51.035-113.766 113.766v1.417c0 62.731 51.035 113.766 113.766 113.766h24.865c-62.731 0-113.766-51.035-113.766-113.766z" fill="#665e66"></path></g><path d="M102.637 137.705H35.072c-19.369 0-35.07-15.701-35.07-35.07V35.07C.002 15.701 15.703 0 35.072 0h67.566c19.369 0 35.07 15.701 35.07 35.07v67.566c-.001 19.368-15.702 35.069-35.071 35.069z" fill="#dd636e"></path><path d="M64.365 137.709h-29.29c-19.376 0-35.073-15.698-35.073-35.073V35.078C.002 15.702 15.7.005 35.075.005h29.289c-19.365 0-35.063 15.698-35.063 35.073v67.558c.001 19.375 15.698 35.073 35.064 35.073z" fill="#da4a54"></path><path d="M476.928 511.996h-67.566c-19.369 0-35.07-15.701-35.07-35.07V409.36c0-19.368 15.701-35.07 35.07-35.07h67.566c19.368 0 35.07 15.701 35.07 35.07v67.566c0 19.369-15.701 35.07-35.07 35.07z" fill="#dd636e"></path><path d="M438.656 512h-29.289c-19.376 0-35.073-15.698-35.073-35.073v-67.558c0-19.376 15.698-35.073 35.073-35.073h29.289c-19.365 0-35.063 15.698-35.063 35.073v67.558c0 19.375 15.697 35.073 35.063 35.073z" fill="#da4a54"></path><path d="M289.078 137.705h-67.566c-19.369 0-35.07-15.701-35.07-35.07V35.07c0-19.369 15.701-35.07 35.07-35.07h67.566c19.369 0 35.07 15.701 35.07 35.07v67.566c0 19.368-15.701 35.069-35.07 35.069z" fill="#b3e59f"></path><path d="M250.806 137.709h-29.289c-19.376 0-35.073-15.698-35.073-35.073V35.078c0-19.376 15.698-35.073 35.073-35.073h29.289c-19.365 0-35.063 15.698-35.063 35.073v67.558c0 19.375 15.697 35.073 35.063 35.073z" fill="#95d6a4"></path><path d="M289.078 324.144h-67.566c-19.369 0-35.07-15.701-35.07-35.07v-67.566c0-19.369 15.701-35.07 35.07-35.07h67.566c19.369 0 35.07 15.701 35.07 35.07v67.566c0 19.369-15.701 35.07-35.07 35.07z" fill="#dd636e"></path><path d="M250.806 324.148h-29.289c-19.376 0-35.073-15.698-35.073-35.073v-67.558c0-19.376 15.698-35.073 35.073-35.073h29.289c-19.365 0-35.063 15.698-35.063 35.073v67.558c0 19.375 15.697 35.073 35.063 35.073z" fill="#da4a54"></path><path d="M289.078 509.858h-67.566c-19.369 0-35.07-15.701-35.07-35.07v-67.566c0-19.368 15.701-35.07 35.07-35.07h67.566c19.369 0 35.07 15.701 35.07 35.07v67.566c0 19.369-15.701 35.07-35.07 35.07z" fill="#ffe07d"></path><path d="M250.806 509.862h-29.289c-19.376 0-35.073-15.698-35.073-35.073v-67.558c0-19.376 15.698-35.073 35.073-35.073h29.289c-19.365 0-35.063 15.698-35.063 35.073v67.558c0 19.375 15.697 35.073 35.063 35.073z" fill="#ffd064"></path><path d="M76.778 113.653a7.726 7.726 0 0 1-7.726-7.726V39.509h-8.121a7.726 7.726 0 1 1 0-15.452h15.848a7.726 7.726 0 0 1 7.726 7.726v74.144a7.727 7.727 0 0 1-7.727 7.726zM441.559 488.515c-10.666.001-20.632-5.635-26.121-14.815a7.727 7.727 0 0 1 13.262-7.931 15.014 15.014 0 0 0 13.157 7.29c7.794-.157 14.214-6.369 14.617-14.141.216-4.152-1.235-8.092-4.088-11.096-2.854-3.006-6.704-4.661-10.841-4.661-5.885 0-8.296.887-11.302 2.239-.334.15-.547.255-.609.286a7.751 7.751 0 0 1-8.079-.653 7.724 7.724 0 0 1-3.067-7.485l5.518-33.309a7.727 7.727 0 0 1 7.623-6.464h27.857a7.726 7.726 0 1 1 0 15.452H438.18l-2.445 14.759c1.733-.184 3.644-.279 5.81-.279 8.295 0 16.331 3.453 22.047 9.475 5.799 6.107 8.751 14.111 8.314 22.536-.821 15.823-13.882 28.47-29.737 28.79-.203.005-.407.007-.61.007z" fill="#f9f6f9"></path><path d="m268.931 485.806-.067-.001a7.727 7.727 0 0 1-7.66-7.792c.037-4.308.075-9.1.112-14.09h-29.299a7.725 7.725 0 0 1-6.765-11.458c4.173-7.563 25.205-45.56 29.496-50.824 3.711-4.555 8.743-6.403 13.458-4.943 4.761 1.475 8.14 6.081 8.611 11.737.221 2.655.163 22.088.057 40.036h1.703a7.726 7.726 0 1 1 0 15.452h-1.807c-.047 6.411-.091 11.595-.113 14.223a7.73 7.73 0 0 1-7.726 7.66zm-23.789-37.336h16.274c.063-10.878.106-21.361.1-28.718-4.175 7.076-10.21 17.684-16.374 28.718z" fill="#707dd3"></path><path d="M251.821 114.395c-14.285 0-15.348-.354-16.386-.7-2.563-.855-4.477-2.793-5.253-5.317-1.33-4.325.588-6.838 5.223-12.906 3.768-4.934 10.782-14.117 22.533-30.907 3.443-4.919 5.662-9.311 6.603-13.063l.242-1.899c-.226-6.003-5.18-10.817-11.237-10.817-5.363 0-10.004 3.809-11.035 9.057a7.727 7.727 0 0 1-15.163-2.977c2.451-12.476 13.468-21.532 26.198-21.532 14.721 0 26.698 11.977 26.698 26.698-.038 1.152-.361 3.476-.565 4.613-1.337 5.764-4.391 12.082-9.08 18.782-8.282 11.834-14.256 19.958-18.418 25.501 6.823-.006 15.361-.069 23.384-.17l.099-.001a7.724 7.724 0 0 1 7.723 7.629 7.726 7.726 0 0 1-7.629 7.823c-10.585.131-18.293.186-23.937.186z" fill="#ffe07d"></path><path d="M255.295 300.964c-13.245 0-24.613-9.881-26.441-22.984a26.897 26.897 0 0 1-.257-3.714 7.726 7.726 0 1 1 15.452 0c0 .53.037 1.06.109 1.578.769 5.512 5.557 9.668 11.137 9.668 6.201 0 11.246-5.045 11.246-11.246s-5.045-11.245-11.246-11.245a7.726 7.726 0 1 1 0-15.452c6.201 0 11.246-5.045 11.246-11.246s-5.045-11.245-11.246-11.245c-5.363 0-10.004 3.809-11.034 9.057a7.727 7.727 0 0 1-15.163-2.977c2.451-12.477 13.468-21.532 26.197-21.532 14.722 0 26.699 11.977 26.699 26.698 0 7.413-3.036 14.13-7.932 18.972 4.895 4.842 7.932 11.559 7.932 18.972 0 14.719-11.977 26.696-26.699 26.696z" fill="#f9f6f9"></path></g></svg>