<svg viewBox="0 0 512 512" xmlns="http://www.w3.org/2000/svg"><g><path clip-rule="evenodd" d="M491.552 33.699H20.419c-8.906 0-16.207 7.68-16.207 17.054v313.046l264.096 16.645 239.48-16.645V50.753c0-9.374-7.3-17.054-16.236-17.054z" fill="#f9f3f1" fill-rule="evenodd"></path><path clip-rule="evenodd" d="m327.558 412.041-71.573-18.28-58.986 18.28-42.546 50.432 104.891 20.617 110.76-20.617z" fill="#9facba" fill-rule="evenodd"></path><path clip-rule="evenodd" d="M475.608 50.753v320.172l32.18-7.125V50.753c0-9.374-7.3-17.054-16.236-17.054h-32.18c16.236-.014 16.236 7.68 16.236 17.054z" fill="#dddaec" fill-rule="evenodd"></path><path clip-rule="evenodd" d="M308.572 436.104c.911 0 1.775.402 2.362 1.097l21.325 25.272 11.301 12.352 26.544-12.352-42.546-50.432-67.78-22.118-62.779 22.118-20.295 24.062h131.868z" fill="#8696a5" fill-rule="evenodd"></path><path clip-rule="evenodd" d="m315.753 235.281 125.836 78.32h5.436a3.091 3.091 0 0 0 3.091-3.091V121.943a3.091 3.091 0 0 0-3.091-3.091h-20.884z" fill="#b1e4f9" fill-rule="evenodd"></path><path clip-rule="evenodd" d="M426.141 118.852v179.33l.029 9.327 15.418 6.092h8.527V121.943a3.091 3.091 0 0 0-3.091-3.091z" fill="#75cef8" fill-rule="evenodd"></path><path clip-rule="evenodd" d="m131.5 183.769-35.8-11.681-31.888 11.681v64.916l31.274 17.521 36.414-17.521 11.681-29.407z" fill="#eb5468" fill-rule="evenodd"></path><path clip-rule="evenodd" d="m131.5 183.769-22.047-7.184v82.7l22.047-10.6 12.148-30.633z" fill="#e5384f" fill-rule="evenodd"></path><path clip-rule="evenodd" d="M370.104 462.473H130.712c-13.608 0-24.733 11.155-24.733 24.763v14.221c0 5.782 4.731 10.542 10.542 10.542h291.546c5.811 0 10.542-4.76 10.542-10.542v-14.221c0-13.608-11.155-24.763-24.763-24.763z" fill="#b6c4cf" fill-rule="evenodd"></path><path clip-rule="evenodd" d="M370.104 462.473h-13.929c13.52.088 24.587 11.214 24.587 24.763v14.221c0 5.782-4.76 10.542-10.542 10.542h37.845c5.811 0 10.542-4.76 10.542-10.542v-14.221c0-13.608-11.155-24.763-24.763-24.763z" fill="#9facba" fill-rule="evenodd"></path><path clip-rule="evenodd" d="M507.788 363.799H4.212v31.188c0 9.374 7.3 17.054 16.207 17.054H491.552c8.936 0 16.236-7.68 16.236-17.054z" fill="#b6c4cf" fill-rule="evenodd"></path><path clip-rule="evenodd" d="M507.788 363.799h-32.18v31.188c0 9.374-7.3 17.054-16.236 17.054h32.18c8.936 0 16.236-7.68 16.236-17.054z" fill="#9facba" fill-rule="evenodd"></path><path clip-rule="evenodd" d="m131.5 183.769 11.681-27.538-11.681-37.379H66.902a3.091 3.091 0 0 0-3.091 3.091v61.826z" fill="#7fdbae" fill-rule="evenodd"></path><path clip-rule="evenodd" d="M131.5 248.685H63.812v61.826a3.091 3.091 0 0 0 3.091 3.091H131.5z" fill="#fec165" fill-rule="evenodd"></path><path clip-rule="evenodd" d="M109.453 183.769H131.5l11.681-27.538-11.681-37.379h-22.047z" fill="#26bb9e" fill-rule="evenodd"></path><path clip-rule="evenodd" d="M109.453 248.685H131.5v64.916h-22.047z" fill="#fdb441" fill-rule="evenodd"></path><path clip-rule="evenodd" d="M131.5 183.769v64.916c1.518-1.548 118.324 18.543 178.624-10.396 40.94-19.624 53-72.071 53.701-119.436H131.5z" fill="#b1e4f9" fill-rule="evenodd"></path><path clip-rule="evenodd" d="m363.125 235.281-40.969-39.715c-13.52-8.644-31.8-7.096-43.568 4.672l-38.254 38.167-75.281 75.195h276.536z" fill="#7fdbae" fill-rule="evenodd"></path><path clip-rule="evenodd" d="M240.334 238.406 201.7 199.83c-5.869-5.84-15.447-5.84-21.288 0L131.5 248.685v64.916h33.552z" fill="#7fdbae" fill-rule="evenodd"></path><path clip-rule="evenodd" d="M363.125 235.281a62.037 62.037 0 0 1-18.397 4.293c8.147 16.674 14.717 35.101 19.244 54.871a269.256 269.256 0 0 1 3.65 19.157h73.967l-15.448-15.419zM165.053 313.601l75.281-75.195-30.048-29.99c-4.263 36.795-30.866 75.663-72.273 105.186h27.04z" fill="#26bb9e" fill-rule="evenodd"></path><path clip-rule="evenodd" d="M476.883 0h-55.464c-1.199 0-2.29.694-2.799 1.779l-17.184 36.68-30.836 65.938 23.507 18.689 27.624 5.227 4.409-9.461 37.611-80.393L479.683 4.4c.958-2.049-.538-4.4-2.8-4.4z" fill="#eb5468" fill-rule="evenodd"></path><path clip-rule="evenodd" d="m401.7 124.547 20.032 3.767 4.409-9.461L479.681 4.4c.959-2.049-.537-4.4-2.799-4.4h-16.926L408.27 110.501z" fill="#e5384f" fill-rule="evenodd"></path><path clip-rule="evenodd" d="m403.978 166.218-21.755-19.157-29.347-4.76c-19.623 5.957-26.427 24.939-28.413 41.35-.526 4.293-1.256 8.264-2.307 11.914-3.243 11.507-9.414 19.993-20.903 27.178-1.95 1.22-1.931 4.052.024 5.264 22.271 13.803 44.06 14.383 61.849 7.273 28.003-11.183 46.166-41.407 40.852-69.062z" fill="#fec165" fill-rule="evenodd"></path><path clip-rule="evenodd" d="M421.732 128.314 370.6 104.397l-6.774 14.455-10.951 23.45 51.103 23.916z" fill="#375e7d" fill-rule="evenodd"></path><path clip-rule="evenodd" d="M386.106 157.837c5.285 27.684-12.849 57.908-40.853 69.092-12.965 5.169-28.033 6.278-43.86 1.168 22.222 13.725 43.948 14.28 61.732 7.184 28.004-11.184 46.167-41.409 40.853-69.063l-4.059-13.404z" fill="#fdb441" fill-rule="evenodd"></path><path clip-rule="evenodd" d="m386.106 157.837 17.872 8.381 17.754-37.904-17.9-8.352z" fill="#2b4d66" fill-rule="evenodd"></path><path d="M224.098 90.66H63.812a7.726 7.726 0 1 1 0-15.452h160.286a7.726 7.726 0 1 1 0 15.452z" fill="#2b4d66"></path></g></svg>