<svg viewBox="0 0 512 512" xmlns="http://www.w3.org/2000/svg"><g><path d="M168.973 164.506h309.106v136.02H168.973z" fill="#d35f05"></path><path d="M323.526 164.506h154.553v136.02H323.526z" fill="#a14603"></path><path d="M259.385 0h64.141v322.647h-64.141z" fill="#f9ebd7"></path><path d="M291.456 0h32.07v322.647h-32.07z" fill="#f3d6ae"></path><path d="M259.385 0h64.141v80.554h-64.141z" fill="#fcbe00"></path><path d="M291.456 0h32.07v80.554h-32.07z" fill="#ff8600"></path><path d="M195.244 80.554h64.141v322.647h-64.141z" fill="#f9ebd7"></path><path d="M227.315 80.554h32.07v322.647h-32.07z" fill="#f3d6ae"></path><path d="M195.244 80.554h64.141v80.554h-64.141z" fill="#fcbe00"></path><path d="M227.315 80.554h32.07v80.554h-32.07z" fill="#ff8600"></path><path d="M323.526 80.554h64.141v322.647h-64.141z" fill="#f9ebd7"></path><path d="M355.596 80.554h32.07v322.647h-32.07z" fill="#f3d6ae"></path><path d="M323.526 80.554h64.141v80.554h-64.141z" fill="#fcbe00"></path><path d="M355.596 80.554h32.07v80.554h-32.07z" fill="#ff8600"></path><path d="M387.667 80.554h64.141v322.647h-64.141z" fill="#f9ebd7"></path><path d="M419.737 80.554h32.07v322.647h-32.07z" fill="#f3d6ae"></path><path d="M387.667 80.554h64.141v80.554h-64.141z" fill="#fcbe00"></path><path d="M419.737 80.554h32.07v80.554h-32.07z" fill="#ff8600"></path><path d="M387.667 248.54H259.385l-90.412-84.034V512h309.106V164.506z" fill="#edba75"></path><path d="M387.667 248.54h-64.141V512h154.553V164.506z" fill="#d35f05"></path><path d="m168.973 449.326 154.553-112.722 154.553 119.317V512H168.973z" fill="#ff4b00"></path><path d="m323.526 336.604 154.553 119.317V512H323.526z" fill="#cc0000"></path><path d="M33.921 447.859h322.647V512H33.921z" fill="#f9ebd7"></path><path d="M33.921 479.93h322.647V512H33.921z" fill="#f3d6ae"></path><path d="M33.921 447.859h80.554V512H33.921z" fill="#fcbe00"></path><path d="M33.921 479.93h80.554V512H33.921z" fill="#ff8600"></path></g></svg>