<svg viewBox="0 0 512 512" xmlns="http://www.w3.org/2000/svg"><g><path d="M363.083 300.918c-8.853-7.368-20.232-11.803-32.65-11.803h-226.02a50.828 50.828 0 0 0-26.173 7.215v132.923a43.792 43.792 0 0 1 18.845 20.23h265.997V300.918z" fill="#0593fc"></path><path d="M220.021 323.231a4.003 4.003 0 0 1-5.197.001l-4.902-4.188v130.439h15V319.044z" fill="#0172fb"></path><path d="M104.413 289.115a50.819 50.819 0 0 0-25.172 6.64v132.903a44.676 44.676 0 0 1 18.956 20.826h7.274V340.191c0-28.208 22.867-51.076 51.076-51.076z" fill="#0182fc"></path><g fill="#cbc4cc"><path d="M76.617 370.854H38.03l-2.287 1v57.975c6.404-3.713 13.829-5.85 21.749-5.85s15.345 2.137 21.749 5.85v-57.975zM58.353 257.944a53.677 53.677 0 0 1-22.609-4.601v58.287l2.54 1h38.3l2.657-1v-58.274a53.54 53.54 0 0 1-20.888 4.588z" fill="#cbc4cc"></path></g><path d="M326.959 449.484v-40.906a3.091 3.091 0 0 0-3.091-3.091h-54.6a3.091 3.091 0 0 0-3.091 3.091v40.906z" fill="#0182fc"></path><path d="M293.993 405.487h-24.724a3.091 3.091 0 0 0-3.091 3.091v40.906h24.724v-40.906a3.092 3.092 0 0 1 3.091-3.091z" fill="#0172fb"></path><path d="m275.589 280.792-16.803-10.486a59.278 59.278 0 0 1-27.209 6.593h-28.31a59.268 59.268 0 0 1-27.209-6.593l-16.802 10.486a3.19 3.19 0 0 0-1.501 2.706v66.064c0 2.676 3.096 4.163 5.184 2.49l52.489-42.04a3.188 3.188 0 0 1 3.988 0l52.489 42.04c2.088 1.673 5.184.186 5.184-2.49v-66.064a3.187 3.187 0 0 0-1.5-2.706z" fill="#0182fc"></path><path d="M203.268 276.898a59.268 59.268 0 0 1-27.209-6.593l-16.802 10.486a3.19 3.19 0 0 0-1.501 2.706v66.064c0 2.676 3.096 4.163 5.184 2.49l19.794-15.853v-43.35c0-1.101.567-2.123 1.501-2.706l21.221-13.244z" fill="#0172fb"></path><path d="M231.578 276.898h-28.31a59.56 59.56 0 0 1-14.411-1.77v24.93a5 5 0 0 0 1.752 3.802l23.566 20.132a4.999 4.999 0 0 0 6.495 0l23.566-20.132a5 5 0 0 0 1.752-3.802v-24.93a59.546 59.546 0 0 1-14.41 1.77z" fill="#ea9b58"></path><path d="M213.869 300.059v-22.16h-10.601a60.79 60.79 0 0 1-14.411-1.737v23.897a5 5 0 0 0 1.752 3.802l23.566 20.132a4.999 4.999 0 0 0 6.495 0l9.258-7.909-14.308-12.223a5.005 5.005 0 0 1-1.751-3.802zM143.604 149.497h-29.86c-5.847 4.972-9.56 12.377-9.56 20.653v13.306c0 14.97 12.136 27.106 27.106 27.106h12.314z" fill="#d88a55"></path><path d="M321.102 149.497h-29.86v61.065h12.315c14.97 0 27.106-12.136 27.106-27.106V170.15c-.001-8.276-3.715-15.681-9.561-20.653z" fill="#ea9b58"></path><path d="M142.604 149.497v67.738c0 33.504 27.16 60.664 60.664 60.664h28.31c33.504 0 60.664-27.16 60.664-60.664v-67.738z" fill="#f6a96c"></path><path d="M177.583 217.235v-67.738h-34.978v67.738c0 33.504 27.16 60.664 60.664 60.664h28.31c1.119 0 2.23-.035 3.334-.095-31.953-1.732-57.33-28.185-57.33-60.569z" fill="#ea9b58"></path><path d="M178.329 181.597a7.5 7.5 0 0 1-7.5-7.5v-13.481c0-4.143 3.358-7.5 7.5-7.5s7.5 3.357 7.5 7.5v13.481a7.5 7.5 0 0 1-7.5 7.5zM256.518 181.597a7.5 7.5 0 0 1-7.5-7.5v-13.481c0-4.143 3.358-7.5 7.5-7.5s7.5 3.357 7.5 7.5v13.481a7.5 7.5 0 0 1-7.5 7.5zM217.423 249.064c-10.655 0-20.678-4.154-28.221-11.698a7.5 7.5 0 1 1 10.607-10.605c4.709 4.71 10.965 7.304 17.613 7.304 6.649 0 12.904-2.594 17.614-7.304a7.5 7.5 0 0 1 10.607 10.605c-7.542 7.544-17.564 11.698-28.22 11.698zM217.417 213.95a7.458 7.458 0 0 1-4.494-1.5l-10.785-8.088c-6.281-4.713-7.559-13.656-2.849-19.937l12.133-16.178a7.5 7.5 0 0 1 12 9l-11.677 15.569 10.177 7.633a7.5 7.5 0 0 1-4.505 13.501z" fill="#ca6e59"></path><path d="M242.956 11.715c-.027.129-.044.258-.077.387l-13.716 52.93a4 4 0 0 1-3.872 2.997h-15.737a4 4 0 0 1-3.872-2.997l-13.716-52.93c-.033-.128-.05-.258-.077-.387-44.918 11.375-78.155 52.063-78.155 100.517v10.875h207.377v-10.875c0-48.454-33.237-89.142-78.155-100.517z" fill="#fac600"></path><path d="M157.699 122.107v-9.875c0-32.484 14.944-61.471 38.326-80.48l-5.027-19.399c-.033-.129-.048-.257-.076-.386-44.427 11.711-77.188 52.16-77.188 100.265v9.875z" fill="#e8b800"></path><path d="M325.432 150.497H109.414c-7.84 0-14.195-6.355-14.195-14.195s6.356-14.195 14.195-14.195h216.017c7.84 0 14.195 6.356 14.195 14.195.001 7.84-6.354 14.195-14.194 14.195z" fill="#fed402"></path><path d="M139.211 136.302c0-7.84 6.355-14.195 14.195-14.195h-43.992c-7.84 0-14.195 6.356-14.195 14.195 0 7.84 6.356 14.195 14.195 14.195h43.992c-7.84 0-14.195-6.355-14.195-14.195z" fill="#fac600"></path><path d="m230.132 65.282 13.716-52.93C245.468 6.099 240.747 0 234.288 0h-33.73c-6.459 0-11.18 6.099-9.559 12.352l13.716 52.93a5 5 0 0 0 4.84 3.746h15.737a5 5 0 0 0 4.84-3.746z" fill="#fedf30"></path><path d="m222.214 65.282-13.716-52.93C206.878 6.099 211.598 0 218.058 0h-17.5c-6.459 0-11.18 6.099-9.559 12.352l13.716 52.93a5 5 0 0 0 4.84 3.746h15.737c.3 0 .594-.03.881-.081a5.003 5.003 0 0 1-3.959-3.665z" fill="#fed402"></path><path d="M237.173 101.627h-39.5c-4.142 0-7.5-3.357-7.5-7.5s3.358-7.5 7.5-7.5h39.5c4.142 0 7.5 3.357 7.5 7.5s-3.358 7.5-7.5 7.5z" fill="#fedf30"></path><g fill="#b5adb6"><path d="M52.931 257.743a53.665 53.665 0 0 1-17.188-4.399v58.287h17.188zM35.743 371.854v57.975a43.19 43.19 0 0 1 17.188-5.61v-52.366H35.743z" fill="#b5adb6"></path></g><path d="M35.743 311.63h43.498v60.224H35.743z" fill="#fac600"></path><path d="M35.743 311.63h17.188v60.224H35.743z" fill="#e8b800"></path><path d="M87.683 157.477c-1.638-1.072-3.815.125-3.815 2.082v41.297a8.115 8.115 0 0 1-4.486 7.259l-18.26 9.134a8.12 8.12 0 0 1-7.263 0l-18.26-9.134a8.117 8.117 0 0 1-4.486-7.259V159.56c0-1.961-2.181-3.153-3.822-2.08-15.243 9.977-25.255 27.287-25.021 46.92.363 30.403 25.696 55.017 56.098 54.544 30.096-.468 54.35-25.011 54.35-55.219 0-19.357-9.96-36.387-25.035-46.248z" fill="#a79ba7"></path><path d="M28.211 204.4a55.188 55.188 0 0 1 2.905-18.387v-26.452c0-1.961-2.181-3.153-3.822-2.08C12.048 167.457 2.036 184.767 2.27 204.4c.363 30.403 25.696 55.017 56.098 54.544a55.266 55.266 0 0 0 12.117-1.547c-23.895-5.825-41.968-27.351-42.274-52.997z" fill="#918291"></path><path d="M57.492 422.98c-24.582 0-44.51 19.928-44.51 44.51S32.91 512 57.492 512s44.51-19.928 44.51-44.51-19.928-44.51-44.51-44.51zm0 61.138c-9.184 0-16.628-7.445-16.628-16.628s7.445-16.628 16.628-16.628 16.628 7.445 16.628 16.628-7.444 16.628-16.628 16.628z" fill="#a79ba7"></path><path d="M39.114 467.49c0-20.035 13.239-36.974 31.444-42.557a44.5 44.5 0 0 0-13.066-1.953c-24.582 0-44.51 19.928-44.51 44.51S32.91 512 57.492 512a44.5 44.5 0 0 0 13.066-1.953c-18.206-5.583-31.444-22.522-31.444-42.557z" fill="#918291"></path><path d="m369.476 289.476-7.393 1v159.008h52.006c5.873 0 10.633-4.761 10.633-10.633V289.476z" fill="#0593fc"></path><path d="M362.083 290.476h25.859v159.008h-25.859z" fill="#0182fc"></path><path d="m445.028 246.078-15.488 15.488h-50.305c-9.473 0-17.153 7.68-17.153 17.153v11.757h72.007a17.22 17.22 0 0 0 12.605-5.487l18.295-19.65c5.089-5.466 4.937-13.98-.344-19.261-5.416-5.418-14.199-5.418-19.617 0z" fill="#f6a96c"></path><path d="M405.405 261.565h-26.17c-9.473 0-17.153 7.68-17.153 17.153v11.757h26.17v-11.757c0-9.473 7.68-17.153 17.153-17.153z" fill="#ea9b58"></path><path d="M506.598 129.341h-15.971a3.15 3.15 0 0 1-3.024-2.312 54.496 54.496 0 0 0-4.905-11.848 3.15 3.15 0 0 1 .503-3.775l11.291-11.291a3.135 3.135 0 0 0 0-4.435l-13.395-13.395a3.135 3.135 0 0 0-4.435 0l-11.291 11.291a3.15 3.15 0 0 1-3.775.503 54.496 54.496 0 0 0-11.848-4.905 3.15 3.15 0 0 1-2.312-3.024V70.18a3.136 3.136 0 0 0-3.136-3.136h-18.944a3.136 3.136 0 0 0-3.136 3.136v15.971a3.15 3.15 0 0 1-2.312 3.024 54.496 54.496 0 0 0-11.848 4.905 3.15 3.15 0 0 1-3.775-.503l-11.291-11.291a3.135 3.135 0 0 0-4.435 0l-13.395 13.395a3.135 3.135 0 0 0 0 4.435l11.291 11.291a3.15 3.15 0 0 1 .503 3.775 54.496 54.496 0 0 0-4.905 11.848 3.15 3.15 0 0 1-3.024 2.312h-15.971a3.136 3.136 0 0 0-3.136 3.136v18.944a3.136 3.136 0 0 0 3.136 3.136h15.971a3.15 3.15 0 0 1 3.024 2.312 54.496 54.496 0 0 0 4.905 11.848 3.15 3.15 0 0 1-.503 3.775l-11.291 11.291a3.135 3.135 0 0 0 0 4.435l13.395 13.395a3.135 3.135 0 0 0 4.435 0l11.291-11.291a3.15 3.15 0 0 1 3.775-.503 54.496 54.496 0 0 0 11.848 4.905 3.15 3.15 0 0 1 2.312 3.024v15.971a3.136 3.136 0 0 0 3.136 3.136H444.3a3.136 3.136 0 0 0 3.136-3.136v-15.971a3.15 3.15 0 0 1 2.312-3.024 54.496 54.496 0 0 0 11.848-4.905 3.15 3.15 0 0 1 3.775.503l11.291 11.291a3.135 3.135 0 0 0 4.435 0l13.395-13.395a3.135 3.135 0 0 0 0-4.435l-11.291-11.291a3.15 3.15 0 0 1-.503-3.775 54.496 54.496 0 0 0 4.905-11.848 3.15 3.15 0 0 1 3.024-2.312h15.971a3.136 3.136 0 0 0 3.136-3.136v-18.944a3.136 3.136 0 0 0-3.136-3.137zm-71.769 36.601c-13.251 0-23.993-10.742-23.993-23.993s10.742-23.993 23.993-23.993 23.993 10.742 23.993 23.993-10.742 23.993-23.993 23.993z" fill="#cbc4cc"></path><path d="M416.134 167.273c-7.757-5.742-12.798-14.955-12.798-25.325s5.04-19.583 12.798-25.324a63.39 63.39 0 0 1 31.303-31.966V70.18a3.136 3.136 0 0 0-3.136-3.136h-18.944a3.136 3.136 0 0 0-3.136 3.136v15.971a3.15 3.15 0 0 1-2.312 3.024 54.496 54.496 0 0 0-11.848 4.905 3.15 3.15 0 0 1-3.775-.503l-11.291-11.291a3.135 3.135 0 0 0-4.435 0l-13.395 13.395a3.135 3.135 0 0 0 0 4.435l11.291 11.291a3.15 3.15 0 0 1 .503 3.775 54.496 54.496 0 0 0-4.905 11.848 3.15 3.15 0 0 1-3.024 2.312h-15.971a3.136 3.136 0 0 0-3.136 3.136v18.944a3.136 3.136 0 0 0 3.136 3.136h15.971a3.15 3.15 0 0 1 3.024 2.312 54.496 54.496 0 0 0 4.905 11.848 3.15 3.15 0 0 1-.503 3.775l-11.291 11.291a3.135 3.135 0 0 0 0 4.435l13.395 13.395a3.135 3.135 0 0 0 4.435 0l11.291-11.291a3.15 3.15 0 0 1 3.775-.503 54.496 54.496 0 0 0 11.848 4.905 3.15 3.15 0 0 1 2.312 3.024v15.971a3.136 3.136 0 0 0 3.136 3.136h18.944a3.136 3.136 0 0 0 3.136-3.136v-14.478a63.404 63.404 0 0 1-31.303-31.969z" fill="#b5adb6"></path><path d="M434.829 173.441c-17.365 0-31.493-14.128-31.493-31.493s14.127-31.492 31.493-31.492 31.493 14.127 31.493 31.492-14.128 31.493-31.493 31.493zm0-47.985c-9.094 0-16.493 7.398-16.493 16.492 0 9.095 7.398 16.493 16.493 16.493s16.493-7.398 16.493-16.493c0-9.094-7.399-16.492-16.493-16.492z" fill="#918291"></path></g></svg>