<svg id="Capa_1" enable-background="new 0 0 497 497" height="512" viewBox="0 0 497 497" width="512" xmlns="http://www.w3.org/2000/svg"><g><path d="m299.93 101.65v128.26h-96.18c-9.71 0-18.42-4.32-24.3-11.13-4.85-5.62-7.78-12.94-7.78-20.95v-59.98c0-20 16.2-36.2 36.2-36.2z" fill="#ffb09e"/><path d="m299.93 101.65v128.26h-96.18c-9.71 0-18.42-4.32-24.3-11.13h.26c5.83-.01 11.52-1.76 16.34-5.03l1.63-1.12c12.46-8.47 20.38-22.17 21.49-37.2l3.08-41.46c.74-10-1.19-20.01-5.6-29.02l-1.62-3.3z" fill="#f99e8a"/><path d="m424.787 303.188-67.379-152.273-60.327-112.104c-14.326-24.066-40.263-38.811-68.27-38.811h-86.719c-13.566 0-26.906 3.474-38.749 10.09l-12.333 6.89c-17.054 9.528-20.273 32.716-6.46 46.529 10.24 13.648 29.186 17.256 43.726 8.329 5.046-3.099 10.832-4.785 16.753-4.885l59.828-.661c13.228-.222 25.392 7.221 31.216 19.1l9.59 19.562c4.413 9.001 6.348 19.016 5.605 29.014l-3.08 41.458c-1.116 15.03-9.029 28.729-21.491 37.206l-1.635 1.112c-4.817 3.277-10.509 5.03-16.335 5.03l-21.16.002c-6.977.001-13.722-2.51-19-7.073l-8.355-7.223-58.106-50.233c-19.293-13.457-45.453-11.12-62.061 5.524-4.793 3.475-7.226 8.808-7.226 14.164 0 4.925 2.061 9.874 6.243 13.373l39.677 33.292c3.631 3.044 6.842 6.555 9.551 10.449l51.389 73.666c9.18 13.16 22.683 22.685 38.16 26.917l8.646 2.364 21.864 5.979c7.646 2.091 12.948 9.038 12.948 16.965v89.272h220.274v-63.616c0-27.349-5.717-54.397-16.784-79.408z" fill="#ffcebf"/><path d="m424.787 303.188-67.379-152.274-60.327-112.103c-14.326-24.066-40.263-38.811-68.27-38.811h-29.016c28.006 0 53.944 14.745 68.269 38.811l51.174 95.782 76.532 168.595c11.067 25.011 16.784 52.06 16.784 79.41v63.616h29.016v-63.616c.001-27.35-5.716-54.399-16.783-79.41z" fill="#ffb09e"/><path d="m451.429 497h-243.623c-7.043 0-12.752-5.709-12.752-12.752v-57.012c0-7.043 5.709-12.752 12.752-12.752h243.623c7.043 0 12.752 5.709 12.752 12.752v57.012c0 7.043-5.71 12.752-12.752 12.752z" fill="#cde2ff"/><path d="m451.429 414.484h-27.016c7.043 0 12.752 5.709 12.752 12.752v57.012c0 7.043-5.709 12.752-12.752 12.752h27.016c7.043 0 12.752-5.709 12.752-12.752v-57.012c0-7.043-5.71-12.752-12.752-12.752z" fill="#b3dafe"/><circle cx="254.612" cy="455.742" fill="#26a6fe" r="15.191"/></g></svg>