<svg viewBox="0 0 512 512" xmlns="http://www.w3.org/2000/svg"><g><path d="M124.965 340.784a7.73 7.73 0 0 1-7.49-5.858L64.364 122.085a7.726 7.726 0 0 1 5.626-9.367 7.725 7.725 0 0 1 9.367 5.626l53.111 212.841a7.727 7.727 0 0 1-7.503 9.599z" fill="#5b5555"></path><path d="M172.653 241.059 39.658 274.246c-5.653 1.411-11.379-2.028-12.789-7.681L.316 160.155c-1.411-5.653 2.028-11.379 7.681-12.789l132.994-33.187c5.653-1.411 11.379 2.028 12.789 7.681l26.553 106.41c1.412 5.652-2.027 11.378-7.68 12.789z" fill="#f8f3f1"></path><path d="m153.785 121.863 26.552 106.404c1.412 5.66-2.031 11.379-7.681 12.789l-26.488 6.61a10.54 10.54 0 0 0 7.681-12.789l-26.552-106.404a10.54 10.54 0 0 0-12.789-7.681l26.488-6.61c5.649-1.41 11.376 2.021 12.789 7.681z" fill="#efe2dd"></path><path d="M394.912 328.321a7.726 7.726 0 0 1-7.58-9.265l43.642-214.983a7.726 7.726 0 1 1 15.144 3.074L402.476 322.13a7.729 7.729 0 0 1-7.564 6.191z" fill="#5b5555"></path><path d="m477.532 258.066-134.333-27.27c-5.71-1.159-9.398-6.727-8.239-12.437l21.819-107.48c1.159-5.71 6.727-9.398 12.437-8.239l134.333 27.27c5.71 1.159 9.398 6.727 8.239 12.437l-21.819 107.48c-1.16 5.709-6.728 9.398-12.437 8.239z" fill="#fb3a82"></path><path d="m511.783 142.347-21.817 107.474a10.54 10.54 0 0 1-12.437 8.239l-27.468-5.576c5.707 1.158 11.276-2.522 12.437-8.239l21.817-107.474c1.158-5.707-2.533-11.278-8.239-12.437l27.468 5.576c5.717 1.161 9.398 6.73 8.239 12.437z" fill="#fb1466"></path><path d="M213.013 252.233a7.727 7.727 0 0 1-7.727-7.726l-.019-219.368a7.727 7.727 0 0 1 15.453-.001l.019 219.368a7.727 7.727 0 0 1-7.726 7.727z" fill="#5b5555"></path><path d="m281.542 166.785-137.073.012c-5.826 0-10.549-4.722-10.55-10.548l-.009-109.673c0-5.826 4.722-10.549 10.548-10.55l137.073-.012c5.826 0 10.549 4.722 10.55 10.548l.009 109.673c.001 5.827-4.722 10.55-10.548 10.55z" fill="#fcb44d"></path><path d="m292.077 46.565.009 109.667a10.539 10.539 0 0 1-10.548 10.55l-28.029.002c5.823 0 10.549-4.716 10.548-10.55l-.009-109.667c0-5.823-4.727-10.549-10.55-10.548l28.029-.002c5.834-.001 10.55 4.725 10.55 10.548z" fill="#fb9927"></path><path d="M111.858 158.36c-9.576-5.752-20.82-7.429-31.658-4.725-22.374 5.583-36.034 28.328-30.451 50.702 2.705 10.839 9.468 19.975 19.044 25.726 6.589 3.957 13.966 5.986 21.458 5.986 3.397 0 6.819-.418 10.2-1.261 10.839-2.705 19.975-9.468 25.726-19.044 5.752-9.576 7.43-20.819 4.725-31.657-2.704-10.839-9.468-19.975-19.044-25.727zm4.051 29.468c.639 2.561.89 5.157.763 7.721l-20.293-8.991-4.661-18.68a26.238 26.238 0 0 1 12.184 3.729c6.037 3.627 10.302 9.387 12.007 16.221zm-26.974 32.728a26.114 26.114 0 0 1-9.722-2.431l6.914-8.823zm-12.21-48.934 4.661 18.677-13.69 17.471a26.462 26.462 0 0 1-2.954-7.174c-2.87-11.499 2.324-23.151 11.983-28.974zm27.203 45.192-2.808-11.254 10.248 4.54a26.101 26.101 0 0 1-7.44 6.714z" fill="#21c1f8"></path><path d="M458.237 157.255c-6.169-9.312-15.597-15.665-26.544-17.887-10.948-2.222-22.106-.049-31.418 6.121s-15.665 15.597-17.887 26.544c-4.588 22.599 10.066 44.717 32.665 49.305 2.796.567 5.583.841 8.332.841 19.47 0 36.952-13.702 40.972-33.506 2.223-10.948.05-22.105-6.12-31.418zm-60.705 17.852c1.401-6.902 5.406-12.846 11.278-16.736 4.37-2.895 9.384-4.394 14.509-4.394 1.761 0 3.535.177 5.3.535a26.242 26.242 0 0 1 11.662 5.595l-42.132 27.913a26.214 26.214 0 0 1-.617-12.913zm51.682 10.492c-1.401 6.902-5.406 12.846-11.278 16.736-5.871 3.889-12.905 5.261-19.808 3.86a26.201 26.201 0 0 1-11.344-5.359l41.935-27.783a26.225 26.225 0 0 1 .495 12.546z" fill="#efe2dd"></path><path d="M255.489 101.995h-1.167V78.296a7.714 7.714 0 0 0 3.689-6.578 7.726 7.726 0 0 0-7.726-7.726h-29.558v-.91a7.726 7.726 0 1 0-15.452 0v.91h-29.558a7.726 7.726 0 0 0-7.726 7.726 7.713 7.713 0 0 0 3.689 6.578v23.699h-1.167a7.726 7.726 0 1 0 0 15.452h17.786a7.726 7.726 0 1 0 0-15.452h-1.167V79.444h18.143v48.272h-10.85a7.726 7.726 0 1 0 0 15.452h37.153a7.726 7.726 0 1 0 0-15.452h-10.85V79.444h18.143v22.551h-1.167a7.726 7.726 0 1 0 0 15.452h17.786a7.726 7.726 0 1 0-.001-15.452z" fill="#444444"></path><path d="M412.806 484.281H267.131L277.71 358.39a41.207 41.207 0 0 1 28.427-35.772l33.832-10.899 33.832 10.899a41.207 41.207 0 0 1 28.427 35.772z" fill="#fcb44d"></path><path d="M412.804 484.286H388.45l-10.58-132.934c-1.143-14.361-8.901-26.97-20.387-33.986l16.318 5.254a41.2 41.2 0 0 1 28.423 35.768z" fill="#fb9927"></path><path d="M353.61 290.432V320.4c0 7.534-6.107 13.641-13.641 13.641s-13.641-6.107-13.641-13.641v-29.968z" fill="#c86f5c"></path><path d="M339.969 215.913c-19.978 0-36.174 16.196-36.174 36.174v15.717c0 18.51 16.196 35.71 36.174 35.71s36.174-17.2 36.174-35.71v-15.717c0-19.978-16.196-36.174-36.174-36.174z" fill="#d5887a"></path><path d="M376.144 252.091v15.712c0 18.512-16.2 35.706-36.172 35.706a34.66 34.66 0 0 1-11.269-1.887c14.465-4.94 24.902-18.948 24.902-33.819v-15.712c0-16.047-10.438-29.66-24.902-34.397a36.32 36.32 0 0 1 11.269-1.785c19.973 0 36.172 16.199 36.172 36.182z" fill="#c86f5c"></path><path d="M339.97 303.512a34.71 34.71 0 0 1-13.64-2.792v16.349a49.984 49.984 0 0 0 27.28 0V300.72a34.71 34.71 0 0 1-13.64 2.792z" fill="#c16253"></path><path d="M267.131 484.281H121.456l10.579-125.891a41.207 41.207 0 0 1 28.427-35.772l33.832-10.899 33.832 10.899a41.207 41.207 0 0 1 28.427 35.772z" fill="#27d1b3"></path><path d="M267.136 484.286h-24.364l-10.58-132.934c-1.143-14.361-8.89-26.96-20.367-33.986l16.297 5.254c15.824 5.099 27.042 19.203 28.433 35.768z" fill="#20b69f"></path><path d="M207.935 290.432V320.4c0 7.534-6.107 13.641-13.641 13.641s-13.641-6.107-13.641-13.641v-29.968z" fill="#fdb0a0"></path><path d="M194.294 215.913c-19.978 0-36.174 16.196-36.174 36.174v15.717c0 18.51 16.196 35.71 36.174 35.71s36.174-17.2 36.174-35.71v-15.717c0-19.978-16.196-36.174-36.174-36.174z" fill="#ffcec0"></path><path d="M230.469 252.091v15.712c0 18.512-16.2 35.706-36.172 35.706a34.66 34.66 0 0 1-11.269-1.887c14.465-4.94 24.902-18.948 24.902-33.819v-15.712c0-16.047-10.438-29.66-24.902-34.397a36.32 36.32 0 0 1 11.269-1.785c19.973 0 36.172 16.199 36.172 36.182z" fill="#fdb0a0"></path><path d="M194.292 303.512c-4.832 0-9.426-.999-13.64-2.782v16.339a50.023 50.023 0 0 0 27.28 0V300.73a34.838 34.838 0 0 1-13.64 2.782z" fill="#f9a395"></path><path d="M181.831 494.583H61.082c-6.467 0-11.335-5.889-10.118-12.24l6.695-34.944a34.413 34.413 0 0 1 23.247-26.28l40.551-13.063 40.551 13.063a34.413 34.413 0 0 1 23.247 26.28l6.695 34.944c1.216 6.351-3.652 12.24-10.119 12.24z" fill="#fb3a82"></path><path d="M181.831 494.588h-11.429l-9.035-53.188c-1.813-10.642-7.448-19.779-15.35-25.435l15.988 5.151a34.441 34.441 0 0 1 23.251 26.28l6.692 34.954c1.217 6.35-3.651 12.238-10.117 12.238z" fill="#fb1466"></path><path d="M135.097 386.768v29.968c0 7.534-6.107 13.641-13.641 13.641s-13.641-6.107-13.641-13.641v-29.968z" fill="#873f30"></path><path d="M121.456 312.248c-19.978 0-36.174 16.196-36.174 36.174v15.717c0 18.51 16.196 35.71 36.174 35.71s36.174-17.2 36.174-35.71v-15.717c0-19.978-16.195-36.174-36.174-36.174z" fill="#a34f41"></path><path d="M157.632 348.427v15.713c0 18.512-16.2 35.706-36.172 35.706-3.936 0-7.719-.669-11.269-1.887 14.465-4.94 24.902-18.948 24.902-33.819v-15.713c0-16.047-10.438-29.66-24.902-34.397a36.32 36.32 0 0 1 11.269-1.785c19.972-.001 36.172 16.199 36.172 36.182z" fill="#873f30"></path><path d="M121.458 399.844c-4.832 0-9.436-.999-13.64-2.782v16.339a50.023 50.023 0 0 0 27.28 0v-16.339a34.878 34.878 0 0 1-13.64 2.782z" fill="#7f362a"></path><path d="M327.506 494.583H206.757c-6.467 0-11.335-5.889-10.118-12.24l6.695-34.944a34.413 34.413 0 0 1 23.247-26.28l40.551-13.063 40.551 13.063a34.413 34.413 0 0 1 23.247 26.28l6.695 34.944c1.216 6.351-3.652 12.24-10.119 12.24z" fill="#21c1f8"></path><path d="M327.506 494.588H316.08l-9.035-53.188c-1.813-10.642-7.448-19.779-15.35-25.435l15.988 5.151a34.412 34.412 0 0 1 23.241 26.28l6.699 34.952c1.218 6.35-3.65 12.24-10.117 12.24z" fill="#1faaee"></path><path d="M280.772 386.768v29.968c0 7.534-6.107 13.641-13.641 13.641s-13.641-6.107-13.641-13.641v-29.968z" fill="#fdb0a0"></path><path d="M267.131 312.248c-19.978 0-36.174 16.196-36.174 36.174v15.717c0 18.51 16.196 35.71 36.174 35.71s36.174-17.2 36.174-35.71v-15.717c.001-19.978-16.195-36.174-36.174-36.174z" fill="#ffcec0"></path><path d="M303.307 348.427v15.713c0 18.512-16.2 35.706-36.172 35.706-3.936 0-7.719-.669-11.269-1.887 14.465-4.94 24.902-18.948 24.902-33.819v-15.713c0-16.047-10.438-29.66-24.902-34.397a36.32 36.32 0 0 1 11.269-1.785c19.972-.001 36.172 16.199 36.172 36.182z" fill="#fdb0a0"></path><path d="M267.136 399.844c-4.832 0-9.436-.999-13.65-2.792v16.349a50.041 50.041 0 0 0 27.29 0v-16.349a34.707 34.707 0 0 1-13.64 2.792z" fill="#f9a395"></path><path d="M473.181 494.583H352.432c-6.467 0-11.335-5.889-10.118-12.24l6.695-34.944a34.413 34.413 0 0 1 23.247-26.28l40.551-13.063 40.551 13.063a34.413 34.413 0 0 1 23.247 26.28l6.695 34.944c1.216 6.351-3.652 12.24-10.119 12.24z" fill="#bcea73"></path><path d="M473.184 494.588h-11.426l-9.045-53.188c-1.803-10.642-7.438-19.779-15.339-25.435l15.988 5.151a34.45 34.45 0 0 1 23.241 26.28l6.699 34.952c1.217 6.35-3.651 12.24-10.118 12.24z" fill="#a3e440"></path><path d="M426.447 386.768v29.968c0 7.534-6.107 13.641-13.641 13.641s-13.641-6.107-13.641-13.641v-29.968z" fill="#f69583"></path><path d="M412.806 312.248c-19.978 0-36.174 16.196-36.174 36.174v15.717c0 18.51 16.196 35.71 36.174 35.71s36.174-17.2 36.174-35.71v-15.717c.001-19.978-16.195-36.174-36.174-36.174z" fill="#fdb0a0"></path><path d="M448.982 348.427v15.713c0 18.512-16.2 35.706-36.172 35.706-3.936 0-7.719-.669-11.269-1.887 14.465-4.94 24.902-18.948 24.902-33.819v-15.713c0-16.047-10.438-29.66-24.902-34.397a36.32 36.32 0 0 1 11.269-1.785c19.972-.001 36.172 16.199 36.172 36.182z" fill="#f69583"></path><path d="M412.804 399.844a34.71 34.71 0 0 1-13.64-2.792v16.349a50.023 50.023 0 0 0 27.28 0v-16.339a34.845 34.845 0 0 1-13.64 2.782z" fill="#ef897b"></path></g></svg>