<svg viewBox="0 0 58 58" xmlns="http://www.w3.org/2000/svg"><g><g fill="none" fill-rule="nonzero"><path d="M42 21.86V58H6a6 6 0 0 1-6-6V6a6 6 0 0 1 6-6h36z" fill="#f0c419"></path><path d="M26.7 12H6A6 6 0 0 0 6 0h36a6 6 0 0 1 6 6c0 .174-.01.347-.03.52zM42 58a6 6 0 0 0 0-12H6a6 6 0 1 1 0 12z" fill="#f3d55b"></path><path d="M58 4.53s-.69 11.02-7.08 13.07a37.933 37.933 0 0 0-6.02 2.26c-.793.395-1.54.874-2.23 1.43a11.126 11.126 0 0 0-3.01 3.68 13.394 13.394 0 0 1-1.23 1.99 12.734 12.734 0 0 1-1.58 1.81c-4.2 3.96-9.82 3.72-12.38 1.58l-1.06-1.41c-.96-2-3.25-8.3 2.06-15.42-.01-.01-.01-.01 0-.02a22.27 22.27 0 0 1 2.09-2.43 1 1 0 0 1 .1-.11 15.3 15.3 0 0 1 7.18-4.24c.817-.216 1.65-.37 2.49-.46h.01a32.691 32.691 0 0 1 5.51-.04c.94.05 1.89.12 2.83.18.01.01.01.01.01 0 4.15.27 8.3.36 12.31-1.87z" fill="#67b9cc"></path><g fill="#2fa8cc"><path d="M27.34 16.94a1 1 0 0 1-1.28-.6c-.322-.91-.52-1.858-.59-2.82-.01-.01-.01-.01 0-.02a22.27 22.27 0 0 1 2.09-2.43 9.133 9.133 0 0 0 .38 4.59 1 1 0 0 1-.6 1.28zM37.33 6.26A8.752 8.752 0 0 0 36 11a1 1 0 0 1-2 0 10.856 10.856 0 0 1 .84-4.28c.817-.216 1.65-.37 2.49-.46zM45.68 6.4a9.8 9.8 0 0 0-2.8 3.07 1 1 0 0 1-1.76-.94 9.824 9.824 0 0 1 1.73-2.31c.94.05 1.89.12 2.83.18zM44.9 19.86c-.793.395-1.54.874-2.23 1.43a6.881 6.881 0 0 1-2.39-1.6 1 1 0 1 1 1.44-1.38 5.662 5.662 0 0 0 3.18 1.55zM38.43 26.96a12.734 12.734 0 0 1-1.58 1.81 14.218 14.218 0 0 1-5.38-1.92 1.002 1.002 0 0 1 1.06-1.7 13.076 13.076 0 0 0 5.9 1.81z" fill="#2fa8cc"></path></g><path d="M16 39H8a1 1 0 0 0 0 2h11.117v-2zM8 36h8a1 1 0 0 0 0-2H8a1 1 0 0 0 0 2zM8 31h10a1 1 0 0 0 0-2H8a1 1 0 0 0 0 2zM8 26h10a1 1 0 0 0 0-2H8a1 1 0 0 0 0 2zM8 21h10a1 1 0 0 0 0-2H8a1 1 0 0 0 0 2z" fill="#35495e"></path><path d="M19.117 41a1 1 0 0 1-.988-1.153 35.962 35.962 0 0 1 7.291-15.561l.027-.034c8.123-10.064 14.3-12.493 24.274-13.877A1 1 0 0 1 50 12.356c-9.612 1.333-15.216 3.544-22.93 13.068a33.049 33.049 0 0 0-2.388 11.247 1 1 0 0 1-.41.8l-4.564 3.341a1 1 0 0 1-.591.188z" fill="#3f5c6c"></path></g></g></svg>