<svg viewBox="0 0 64 64" xmlns="http://www.w3.org/2000/svg"><g><g><path d="M47 16a1 1 0 0 1-1-1v-3a1 1 0 0 1 2 0v3a1 1 0 0 1-1 1zM47 51a1 1 0 0 1-1-1V28a1 1 0 0 1 2 0v22a1 1 0 0 1-1 1z" fill="#ef5350"></path><path d="M33 28a14 14 0 0 1 28 0z" fill="#95d5b2"></path><path d="M61 28H33a13.857 13.857 0 0 1 1.46-6.22A16.632 16.632 0 0 0 43 24c6.18 0 11.34-2.98 12.67-6.98A13.915 13.915 0 0 1 61 28z" fill="#52b788"></path><path d="M41 28c0-7.732 2.686-14 6-14s6 6.268 6 14z" fill="#fcea42"></path><path d="M53 28H41a31.332 31.332 0 0 1 .26-4.08c.57.05 1.15.08 1.74.08a16.158 16.158 0 0 0 9.27-2.7A29.513 29.513 0 0 1 53 28z" fill="#fdc741"></path><path d="m43.97 42.243-1.94-.486 1-4A1 1 0 0 1 44 37h10.857v2H44.781z" fill="#0096c7"></path><path d="m57 34-5 7H37l-5 11h5l3-7h12v6h4v-8l4-7z" fill="#48cae4"></path><path d="m60 36-4 7v8h-4v-6H40l-3 7h-5l1.84-4.04a3.859 3.859 0 0 0 3.1-2.46 3.86 3.86 0 0 1 3.6-2.5h11.08a3.832 3.832 0 0 0 3.44-2.13l3.06-6.12z" fill="#00b4d8"></path><path d="M42.888 50.31a26.934 26.934 0 0 1-15.406-1.234l-2.035-.791a26.933 26.933 0 0 0-17.162-.795L3 49v12h58v-9l-5.936-1.484a26.936 26.936 0 0 0-12.176-.206z" fill="#efad1b"></path><path d="M47.27 50.31h-4.382a26.845 26.845 0 0 1-6.738.567 6.25 6.25 0 0 0-2.717.469l-.2.087a5.808 5.808 0 0 1-4.013.248q-.876-.271-1.734-.6l-2.035-.791a26.933 26.933 0 0 0-17.166-.8L3 51v10h58v-9a68.257 68.257 0 0 0-13.73-1.69z" fill="#d8950f"></path><path d="m21 61 6.794-4.529a47.292 47.292 0 0 1 31.185-7.684L61 49v12z" fill="#fdc741"></path><path d="M52.113 49.706a12.177 12.177 0 0 1-3.808.973c-7.744.635-13.764 3.294-20.511 7.792L24 61h37V49l-2.021-.213q-.356-.038-.712-.069a12.681 12.681 0 0 0-6.154.988z" fill="#efad1b"></path><path d="m22.085 54.011-9.849-1.736-.068-12.9a24 24 0 0 1 6.372-16.412l2.76-2.988a2 2 0 0 1 3.313.584l1.573 3.753a24 24 0 0 1 .373 17.6z" fill="#ef5350"></path><path d="m26.56 41.92-4.48 12.09-9.84-1.74-.03-5.02a11.939 11.939 0 0 0 9.11-7.62l1-2.71a24.023 24.023 0 0 0-.3-17.44 2 2 0 0 1 2.59 1.08l1.58 3.75a24.018 24.018 0 0 1 .37 17.61z" fill="#e53935"></path><path d="m25.067 45.967-1.608 4.336-5.083-4.054-6.163 2.071-.028-4.625 7.059-2.37z" fill="#52b788"></path><path d="m25.07 45.97-1.61 4.33-5.08-4.05-6.17 2.07v-1.06a11.967 11.967 0 0 0 7.9-5.24z" fill="#40916c"></path><path d="m24.06 19.8-5.7 32.31-2.01-.14 5.74-32.52a2.032 2.032 0 0 1 1.97.35z" fill="#ade8f4"></path><path d="m20.15 41.95-1.79 10.16-2.01-.14 1.27-7.18a11.854 11.854 0 0 0 2.53-2.84zM24.06 19.8l-.72 4.07a22.507 22.507 0 0 0-1.28-4.27l.03-.15a2.032 2.032 0 0 1 1.97.35z" fill="#48cae4"></path><path d="M42.888 55.31a26.934 26.934 0 0 1-15.406-1.234l-2.035-.791a26.933 26.933 0 0 0-17.162-.795L3 54v7h58v-4l-5.936-1.484a26.936 26.936 0 0 0-12.176-.206z" fill="#fcea42"></path><path d="M61 57v4H3v-4l5.29-1.51a26.841 26.841 0 0 1 17.16.8l2.03.79a26.927 26.927 0 0 0 15.41 1.23c.44-.1.89-.18 1.34-.25a8.252 8.252 0 0 0 3.07-1.148 9.885 9.885 0 0 1 7.523-1.45l.236.058z" fill="#fdc741"></path><path d="M11 3a2.369 2.369 0 0 0 4 1.072A2.368 2.368 0 0 0 17.928 7 2.369 2.369 0 0 0 19 11a2.369 2.369 0 0 0-1.072 4A2.368 2.368 0 0 0 15 17.928 2.369 2.369 0 0 0 11 19a2.369 2.369 0 0 0-4-1.072A2.368 2.368 0 0 0 4.072 15 2.369 2.369 0 0 0 3 11a2.369 2.369 0 0 0 1.072-4A2.368 2.368 0 0 0 7 4.072 2.369 2.369 0 0 0 11 3z" fill="#fcea42"></path><path d="M11 15.859a4.382 4.382 0 0 0-2.308-.654h-.12a4.392 4.392 0 0 0-1.781-1.776A4.351 4.351 0 0 0 6.14 11a4.35 4.35 0 0 0 .651-2.43 4.4 4.4 0 0 0 1.781-1.777h.12A4.382 4.382 0 0 0 11 6.141a4.382 4.382 0 0 0 2.308.654h.12a4.392 4.392 0 0 0 1.781 1.776A4.351 4.351 0 0 0 15.86 11a4.35 4.35 0 0 0-.651 2.43 4.4 4.4 0 0 0-1.781 1.777h-.12a4.382 4.382 0 0 0-2.308.652z" fill="#fdc741"></path><circle cx="11" cy="11" fill="#ef5350" r="3"></circle><g fill="#fcea42"><path d="M25 16a.976.976 0 0 1-.244-.03l-4-1a1 1 0 0 1 .486-1.94l4 1A1 1 0 0 1 25 16zM21 9a1 1 0 0 1-.242-1.97l4-1a1 1 0 1 1 .486 1.94l-4 1A.976.976 0 0 1 21 9zM11 28a1 1 0 0 1-1-1v-5a1 1 0 0 1 2 0v5a1 1 0 0 1-1 1zM4 26a1 1 0 0 1-.894-1.447l2-4a1 1 0 0 1 1.79.894l-2 4A1 1 0 0 1 4 26zM18 26a1 1 0 0 1-.9-.553l-2-4a1 1 0 0 1 1.79-.894l2 4A1 1 0 0 1 18 26zM24 22a.994.994 0 0 1-.514-.143l-5-3a1 1 0 0 1 1.03-1.714l5 3A1 1 0 0 1 24 22z" fill="#fcea42"></path></g></g></g></svg>