<svg viewBox="0 0 53 53" xmlns="http://www.w3.org/2000/svg"><g><path d="M50.5 7.577v37.846a5.078 5.078 0 0 1-5.077 5.077H7.577A5.085 5.085 0 0 1 2.5 45.423V7.577C2.5 4.767 4.78 2.5 7.577 2.5h37.846A5.07 5.07 0 0 1 50.5 7.577z" fill="#666666"></path><path d="M45.423 2.5h-2.189v13.309c0 15.568-12.62 28.189-28.189 28.189H2.5v1.425c0 2.792 2.285 5.077 5.077 5.077h37.846a5.077 5.077 0 0 0 5.077-5.077V7.577A5.077 5.077 0 0 0 45.423 2.5z" fill="#5b5959"></path><path d="M38.092 6.946v5.1a4.961 4.961 0 0 1-4.961 4.961H19.87a4.961 4.961 0 0 1-4.962-4.961v-5.1c0-.72.584-1.305 1.305-1.305h20.573c.72 0 1.305.584 1.305 1.305z" fill="#d3dcfd"></path><path d="M17.31 16.276a9.239 9.239 0 0 1 9.24-9.239h11.542v-.09c0-.722-.584-1.306-1.305-1.306H16.214c-.72 0-1.305.584-1.305 1.305v5.1c0 1.8.968 3.36 2.402 4.23z" fill="#c4d1f2"></path><path d="M23.73 17.007a2.771 2.771 0 0 1 5.541 0z" fill="#ff6666"></path><path d="m28.38 16.073-1.566-1.136 3.9-3.728z" fill="#ff6666"></path><path d="M26.086 6.152h.828v1.611h-.828zM23.565 6.589l.8-.215.417 1.556-.8.215zM21.238 7.673l.717-.414.805 1.395-.717.414zM19.269 9.319l.585-.586 1.14 1.14-.586.585zM17.798 11.415l.414-.717 1.395.806-.414.717zM16.923 13.823l.214-.8 1.557.417-.215.8zM34.318 13.433l1.556-.417.214.8-1.556.417zM33.392 11.502l1.395-.805.414.717-1.395.805zM32.001 9.872l1.14-1.139.584.586-1.139 1.139zM30.241 8.654l.806-1.395.717.414-.806 1.395zM28.229 7.933l.417-1.556.8.214-.417 1.556z" fill="#666666"></path><path d="M25.872 17.007h1.257V50.5h-1.257z" fill="#ffffff"></path><path d="M6.475 11.897v14.41c0 .67-.54 1.21-1.2 1.21s-1.2-.54-1.2-1.21v-14.41c0-.66.54-1.2 1.2-1.2s1.2.54 1.2 1.2z" fill="#ffffff" opacity=".3"></path><path d="M11.112 50.5c.413-.378.793-.756 1.105-1.13.56-.675.727-1.593.507-2.441-1.368-5.295-4.62-7.98-4.809-15.925-.63-2.261-.47-3.997.477-3.714-.625-1.592-.243-2.522.926-2.417.02-1.279.7-1.983 1.491-1.988-.24-.741-.012-1.481.859-1.808.47-.176.937 0 1.31.362-.02-.736.363-1.45 1.265-1.762 1.371-.475 3.026.198 3.456 2.733.312 1.835.885 3.506 1.848 6.441 1.162 3.541.587 6.85 1.073 9.298.88 4.7 3.897 9.862 2.704 12.351H11.112z" fill="#ffcccc"></path><g fill="#f2bbbb"><path d="M12.978 21.439c.274.818.572 1.602.897 2.399.143.405.285.818.363 1.245.083.427.107.862.088 1.292a11.55 11.55 0 0 0-.685-2.45c-.14-.401-.3-.802-.416-1.218a7.328 7.328 0 0 1-.247-1.268zM10.81 22.885c.35.77.608 1.569.874 2.366.238.805.483 1.608.636 2.44-.35-.77-.61-1.568-.875-2.365-.237-.806-.482-1.61-.636-2.441zM9.318 24.873c.393.79.696 1.612 1.006 2.432.283.83.573 1.657.77 2.517-.393-.79-.695-1.612-1.005-2.432-.282-.83-.571-1.658-.77-2.517zM8.392 27.29c.342.605.57 1.26.768 1.923.17.67.31 1.35.316 2.046-.21-.661-.361-1.325-.557-1.98-.168-.662-.378-1.311-.527-1.99zM16.33 21.888l-1.82.698c-.21.081-.456-.028-.517-.245a3.856 3.856 0 0 1-.145-.942.39.39 0 0 1 .208-.343l1.327-.739a.386.386 0 0 1 .454.047c.265.256.51.593.712.993.102.202-.007.45-.218.53zM12.707 22.617l-1.182.454c-.137.052-.297-.019-.336-.16-.059-.212-.09-.42-.094-.61a.253.253 0 0 1 .135-.223l.861-.48a.25.25 0 0 1 .295.03c.172.166.331.385.462.645.067.131-.004.291-.141.344zM10.953 24.621l-.961.37c-.112.042-.242-.016-.273-.13a2.037 2.037 0 0 1-.077-.498.205.205 0 0 1 .11-.181l.7-.39a.204.204 0 0 1 .24.024c.14.135.27.313.377.525.053.107-.004.237-.116.28zM9.318 26.081l-.736.283c-.085.032-.185-.012-.21-.1a1.559 1.559 0 0 1-.058-.38.157.157 0 0 1 .084-.139l.537-.299a.156.156 0 0 1 .183.02c.108.103.207.239.288.4.041.083-.003.182-.088.215zM8.406 28.324l-.476.183c-.055.02-.12-.008-.135-.065a1.008 1.008 0 0 1-.038-.246c0-.037.022-.071.054-.09l.347-.192a.1.1 0 0 1 .119.012c.07.067.133.155.186.26.027.052-.002.117-.057.138z" fill="#f2bbbb"></path></g><path d="M41.888 50.5a11.946 11.946 0 0 1-1.105-1.13c-.56-.675-.727-1.593-.507-2.441 1.368-5.295 4.62-7.98 4.809-15.925.63-2.261.47-3.997-.477-3.714.625-1.592.243-2.522-.926-2.417-.02-1.279-.7-1.983-1.491-1.988.24-.741.012-1.481-.859-1.808-.47-.176-.937 0-1.31.362.02-.736-.363-1.45-1.265-1.762-1.371-.475-3.026.198-3.456 2.733-.312 1.835-.885 3.506-1.848 6.441-1.162 3.541-.587 6.85-1.073 9.298-.88 4.7-3.897 9.862-2.704 12.351h12.212z" fill="#ffcccc"></path><g fill="#f2bbbb"><path d="M40.022 21.439a39.798 39.798 0 0 1-.897 2.399c-.143.405-.285.818-.363 1.245a5.454 5.454 0 0 0-.088 1.292c.148-.85.36-1.66.685-2.45.14-.401.3-.802.416-1.218.12-.415.202-.84.247-1.268zM42.19 22.885c-.35.77-.608 1.569-.874 2.366-.238.805-.483 1.608-.636 2.44.35-.77.61-1.568.875-2.365.237-.806.482-1.61.636-2.441zM43.682 24.873c-.393.79-.696 1.612-1.006 2.432-.283.83-.573 1.657-.77 2.517.393-.79.695-1.612 1.005-2.432.282-.83.571-1.658.77-2.517zM44.608 27.29c-.342.605-.57 1.26-.768 1.923-.17.67-.31 1.35-.316 2.046.21-.661.361-1.325.557-1.98.168-.662.378-1.311.527-1.99zM36.67 21.888l1.82.698c.21.081.456-.028.517-.245.09-.328.139-.648.145-.942a.39.39 0 0 0-.208-.343l-1.327-.739a.386.386 0 0 0-.454.047 3.69 3.69 0 0 0-.712.993c-.102.202.007.45.218.53zM40.293 22.617l1.182.454c.137.052.297-.019.336-.16.059-.212.09-.42.094-.61a.253.253 0 0 0-.135-.223l-.861-.48a.25.25 0 0 0-.295.03 2.396 2.396 0 0 0-.462.645c-.067.131.004.291.141.344zM42.047 24.621l.961.37c.112.042.242-.016.273-.13.049-.174.074-.343.077-.498a.205.205 0 0 0-.11-.181l-.7-.39a.204.204 0 0 0-.24.024 1.95 1.95 0 0 0-.377.525c-.053.107.004.237.116.28zM43.682 26.081l.736.283c.085.032.185-.012.21-.1a1.56 1.56 0 0 0 .058-.38.157.157 0 0 0-.084-.139l-.537-.299a.156.156 0 0 0-.183.02c-.108.103-.207.239-.288.4-.041.083.003.182.088.215zM44.594 28.324l.476.183c.055.02.12-.008.135-.065.024-.085.036-.169.038-.246a.102.102 0 0 0-.054-.09l-.347-.192a.1.1 0 0 0-.119.012.964.964 0 0 0-.186.26c-.027.052.002.117.057.138z" fill="#f2bbbb"></path></g></g></svg>