<svg viewBox="0 0 496 496" xmlns="http://www.w3.org/2000/svg"><g><path d="M319.879 271.863a7.994 7.994 0 0 1-7.192-4.488c-1.933-3.969-.296-8.758 3.672-10.703l16.121-7.887c3.97-1.945 8.758-.289 10.704 3.672a8.007 8.007 0 0 1-3.672 10.703l-16.121 7.887a7.849 7.849 0 0 1-3.512.816zm0 0" fill="#434a54"></path><path d="M335.984 288a7.965 7.965 0 0 1-3.593-.855l-16.118-8.13c-3.945-1.984-5.53-6.8-3.539-10.742a7.978 7.978 0 0 1 10.746-3.539l16.122 8.13c3.941 1.984 5.527 6.8 3.535 10.745a8.014 8.014 0 0 1-7.153 4.391zm0 0" fill="#434a54"></path><path d="M144 328H0v-8.078c0-13.203 10.719-24 24-24V296h24v8h48v-8h24v-.078c13.281 0 24 10.797 24 24zm0 0" fill="#e6e9ed"></path><path d="M0 328h144v32H0zm0 0" fill="#656d78"></path><path d="M215.84 376v-15.512c9.594 4.809 20.48 7.52 32 7.52 11.441 0 22.398-2.719 32-7.52V376l-32 40zm0 0" fill="#eac6bb"></path><path d="m215.84 376 32 40h-96c0-22.078 17.914-40 40-40zm0 0" fill="#e6e9ed"></path><path d="M343.84 416v24c0 4.398-3.52 8-8 8h-176c-4.406 0-8-3.602-8-8v-24zm0 0" fill="#656d78"></path><path d="M327.832 416v24c0 4.398-3.52 8-8 8h16.016c4.48 0 8-3.602 8-8v-24zm0 0" fill="#545c66"></path><path d="M343.84 416h-96l32-40h24c22.16 0 40 17.922 40 40zm0 0" fill="#e6e9ed"></path><path d="M303.84 376h-16.016c22.16 0 40 17.922 40 40h16.016c0-22.078-17.84-40-40-40zm0 0" fill="#ccd1d9"></path><path d="M352 328h144v32H352zm0 0" fill="#656d78"></path><path d="M496 319.922V328H352v-8.078c0-13.203 10.719-24 24-24V296h24v8h48v-8h24v-.078c13.281 0 24 10.797 24 24zm0 0" fill="#e6e9ed"></path><path d="M472 295.922V296h-15.238c12.91.426 23.222 10.984 23.222 23.922V328v-.031H496V328v-8.078c0-13.203-10.719-24-24-24zm0 0" fill="#ccd1d9"></path><path d="M448 296v8h-48v-21.512c-18.96-8.953-32-28.23-32-50.55v-24.083c0-30.878 25.04-56 56-56s56 25.122 56 56v24.083c0 22.32-13.04 41.597-32 50.55zm0 0" fill="#656d78"></path><path d="M424 151.848c-2.727 0-5.383.257-8.008.64 27.153 3.887 47.992 27.192 47.992 55.36v24.082c0 22.316-13.039 41.597-32 50.55V304H448v-21.512c18.96-8.953 32-28.23 32-50.55v-24.083c0-30.886-25.04-56.007-56-56.007zm0 0" fill="#545c66"></path><path d="M247.84 0c35.36 0 64 28.64 64 64s-28.64 64-64 64c-35.281 0-64-28.64-64-64s28.719-64 64-64zm0 0" fill="#ed5565"></path><path d="M319.36 247.93H176.32c3.918-36 34.48-63.922 71.602-63.922 37.039 0 67.52 27.922 71.437 63.922zM319.84 296.008c0 28.238-16.32 52.719-40 64.48-9.602 4.809-20.559 7.52-32 7.52-11.52 0-22.406-2.719-32-7.52-23.602-11.68-39.84-36-40-64.082v-8.398H240l8-8 8 8h63.84zm0 0" fill="#eac6bb"></path><path d="M319.36 247.93c-3.919-36-34.4-63.922-71.438-63.922-2.723 0-5.387.191-8.02.488 33.344 3.688 59.809 30.07 63.442 63.441.32 2.637.488 5.278.488 8v40.079c0 28.242-16.32 52.718-40 64.48-7.336 3.672-15.48 6.106-24.008 7.055 2.633.289 5.305.472 8.024.472 11.441 0 22.398-2.718 32-7.52 23.68-11.76 40-36.23 40-64.48v-40.078a67.633 67.633 0 0 0-.489-8.015zm0 0" fill="#d3b1a9"></path><path d="M48 282.488c-18.96-8.953-32-28.23-32-50.55v-24.083c0-30.878 25.04-56 56-56s56 25.122 56 56v24.082c0 22.32-13.04 41.598-32 50.551V304H48zM176.32 247.93h143.04c.32 2.636.488 5.277.488 8v32.078H256l-8-8-8 8h-64.16V255.93c0-2.723.16-5.364.48-8zm0 0" fill="#656d78"></path><path d="M319.36 247.93h-16.016c.32 2.636.488 5.277.488 8v32.078h16.016V255.93a67.572 67.572 0 0 0-.489-8zM479.984 327.969H496V360h-16.016zm0 0" fill="#545c66"></path><path d="M120 295.922V296h-15.238c12.91.426 23.222 10.984 23.222 23.922V328v-.031H144V328v-8.078c0-13.203-10.719-24-24-24zm0 0" fill="#ccd1d9"></path><path d="M72 151.848c-2.727 0-5.383.257-8.008.64 27.153 3.887 47.992 27.192 47.992 55.36v24.082c0 22.316-13.039 41.597-32 50.55V304H96v-21.512c18.96-8.953 32-28.23 32-50.55v-24.083c0-30.886-25.04-56.007-56-56.007zM127.984 327.969H144V360h-16.016zm0 0" fill="#545c66"></path><g fill="#eac6bb"><path d="M447.992 224.008H440a7.99 7.99 0 0 1-8-8c0-4.422 3.574-8 8-8h7.992c4.422 0 8 3.578 8 8 0 4.426-3.578 8-8 8zM407.992 224.008H400a7.99 7.99 0 0 1-8-8c0-4.422 3.574-8 8-8h7.992c4.422 0 8 3.578 8 8 0 4.426-3.578 8-8 8zM95.992 224.008H88a7.99 7.99 0 0 1-8-8c0-4.422 3.574-8 8-8h7.992c4.422 0 8 3.578 8 8 0 4.426-3.578 8-8 8zM55.992 224.008H48a7.99 7.99 0 0 1-8-8c0-4.422 3.574-8 8-8h7.992c4.422 0 8 3.578 8 8 0 4.426-3.578 8-8 8zM224 272h-16c-4.426 0-8-3.574-8-8s3.574-8 8-8h16c4.426 0 8 3.574 8 8s-3.574 8-8 8zM287.871 272h-16c-4.422 0-8-3.574-8-8s3.578-8 8-8h16c4.426 0 8 3.574 8 8s-3.574 8-8 8zm0 0" fill="#eac6bb"></path></g><path d="M247.871 72.016c-4.422 0-8-3.575-8-8v-32c0-4.422 3.578-8 8-8 4.426 0 8 3.578 8 8v32c0 4.425-3.574 8-8 8zM248.121 96.016c-4.426 0-8.043-3.575-8.043-8 0-4.422 3.54-8 7.953-8h.09a8 8 0 0 1 0 16zm0 0" fill="#f5f7fa"></path><path d="M200 256h32v8h-32zM263.871 256h32v8h-32zm0 0" fill="#eac6bb"></path></g></svg>