<svg height="512" viewBox="0 0 512 512" width="512" xmlns="http://www.w3.org/2000/svg"><g id="flat"><path d="m288 174.942-82.633-22.863-22.639-10.356a30.911 30.911 0 0 1 -16.051-16.35 74.1 74.1 0 0 1 -4.214-45.05 74.207 74.207 0 0 1 45.737-53.25l5.217-2.015a86.422 86.422 0 0 1 38.078-5.538l.867.069a90.325 90.325 0 0 1 72.449 47.335c7.517 14.019 15.5 28.9 21.683 40.4a92.817 92.817 0 0 0 29.854 33.022l9.638 6.5a92.877 92.877 0 0 1 40.925 76.988 92.88 92.88 0 0 1 -13.154 47.648l-6.526 10.919z" fill="#7a4922"/><path d="m311.955 197.051 6.789-7.588a43.915 43.915 0 0 1 -10.846-9.491 43.933 43.933 0 0 1 -8.766-17.67l-56.084 16.9 13.209 24.577a43.861 43.861 0 0 0 55.698-6.728z" fill="#f6bb92"/><path d="m302.76 172.1-1.6.91-12.95 7.87a54.353 54.353 0 0 1 -39.23 6.8c-.52-.11-1.04-.22-1.56-.34l-4.37-8.14 56.08-16.9a44.023 44.023 0 0 0 3.36 9.28c.09.17.17.35.27.52z" fill="#f6bb92"/><path d="m404.685 237.611a63.035 63.035 0 0 0 -42.9-35.576l-30.111-7.188a43.934 43.934 0 0 1 -12.926-5.384l-6.789 7.588a43.861 43.861 0 0 1 -55.7 6.728l-56.44 15.121a52.38 52.38 0 0 0 -33.153 26.9l-1.866 3.678-28.8 97.453 78.771 86.046-4.451 54.023 175.357 1-5.36-121.2 26.912-84.395a63.034 63.034 0 0 0 -2.544-44.794z" fill="#ff8aa0"/><path d="m321.287 349.593a63.943 63.943 0 0 0 -17.993-32.7l-1.706-1.66a63.948 63.948 0 0 0 -21.788-13.911l-36.119-13.782-32.234 25.65-9.38 30.334 107.377 41.668 11.843-35.6" fill="#e6e5e0"/><path d="m288 305.15v71.72l-32-12.42v-72.21l23.8 9.08a63.645 63.645 0 0 1 8.2 3.83z" fill="#e6e5e0"/><path d="m136 346.931-15.089 55.646a32.456 32.456 0 0 0 6.574 26.519 32.456 32.456 0 0 0 29.715 11.804l101.925-13.751z" fill="#f6bb92"/><path d="m259.12 427.15-13.13 1.77-86.32-37.7a60.05 60.05 0 0 1 -27.63-24.45l-.97-1.65 4.93-18.19z" fill="#f6bb92"/><path d="m302.76 172.1-1.6.91-12.95 7.87a54.353 54.353 0 0 1 -39.23 6.8c-.52-.11-1.04-.22-1.56-.34l-4.37-8.14 56.08-16.9a44.023 44.023 0 0 0 3.36 9.28c.09.17.17.35.27.52z" fill="#e6af89"/><path d="m191.768 250.752 24.343 4.6a33.234 33.234 0 0 1 23.189 20.561l4.382 11.627-.594.572a207.288 207.288 0 0 0 -41.02 55.412l-22.855-61.118z" fill="#f6bb92"/><path d="m288 305.15v71.72l-32-12.42v-72.21l23.8 9.08a63.645 63.645 0 0 1 8.2 3.83z" fill="#d6d5d0"/><path d="m66.521 160.986.345-.23a19.255 19.255 0 0 1 24.3 2.406l4.834 4.838 4.153-4.745a19.255 19.255 0 0 1 26.157-2.636 24.59 24.59 0 0 1 9.69 19.562 24.591 24.591 0 0 1 -9.229 19.2l-30.771 24.619-31.133-24.906a23.629 23.629 0 0 1 -8.867-18.449 23.627 23.627 0 0 1 10.521-19.659z" fill="#e42a3c"/><path d="m259.12 427.15-13.13 1.77-86.32-37.7a60.05 60.05 0 0 1 -27.63-24.45l-.97-1.65 4.93-18.19z" fill="#e6af89"/><path d="m202.067 343.524a120.36 120.36 0 0 0 -16.277-60.441l-1.79-3.083 7.768-29.248-13.8-1.274a35.115 35.115 0 0 0 -23.091 8.661 35.111 35.111 0 0 0 -11.929 23.9l-1.748 36.528 23.871 28.364z" fill="#7a4922"/><g fill="#f6bb92"><path d="m340.455 291.977-31.011 93.215-107.377-41.668-8.3-10.267a12 12 0 0 0 -17.249-1.479l-4.27 3.746-14.168-13.462a26 26 0 0 0 -34.676-1.017l-1.056.892a6.66 6.66 0 0 0 -1.437 8.479l19.117 32.333a60 60 0 0 0 27.628 24.445l128.063 55.946a52.238 52.238 0 0 0 20.89 4.368 52.238 52.238 0 0 0 49.815-36.445l37.559-118.421z"/><path d="m299.132 162.3a43.916 43.916 0 0 1 -.593-17.467l2.905-17.31a138.223 138.223 0 0 1 -88.005-31.636l-10.13-8.364-4.9 11.273a52.256 52.256 0 0 0 6.959 53.282l6.044 7.632a54.379 54.379 0 0 0 31.636 19.49 54.375 54.375 0 0 0 39.237-6.8l12.948-7.875z"/></g></g></svg>