<svg id="Icons" height="512" viewBox="0 0 60 60" width="512" xmlns="http://www.w3.org/2000/svg"><rect fill="#ea3957" height="14" rx="2" width="40" x="1" y="1"/><path d="m38 37h-28c-1.1 0-2-.9-2-2v-10c0-1.1.9-2 2-2h28z" fill="#fccc60"/><rect fill="#346de0" height="14" rx="2" width="40" x="1" y="45"/><path d="m58.81 28.5c-.11-.45-.49-.78-.95-.86l-1.42-.23c-.26-1.06-.68-2.05-1.22-2.96l.84-1.18c.26-.37.3-.87.06-1.27-.2-.34-.5-.76-.93-1.19s-.85-.73-1.19-.93c-.4-.24-.9-.2-1.27.07l-1.18.83c-.91-.54-1.9-.96-2.96-1.22l-.23-1.42c-.08-.46-.41-.84-.86-.95-.38-.1-.9-.19-1.5-.19s-1.12.09-1.5.19c-.45.11-.78.49-.86.95l-.23 1.42c-1.06.26-2.05.68-2.96 1.22l-1.18-.83c-.37-.27-.87-.31-1.27-.07-.34.2-.76.5-1.19.93s-.73.85-.93 1.19c-.24.4-.2.9.06 1.27l.84 1.18c-.54.91-.96 1.9-1.22 2.96l-1.42.23c-.46.08-.84.41-.95.86-.1.38-.19.9-.19 1.5s.09 1.12.19 1.5c.11.45.49.78.95.86l1.42.23c.26 1.06.68 2.05 1.22 2.96l-.84 1.18c-.26.37-.3.87-.06 1.27.2.34.5.76.93 1.19s.85.73 1.19.93c.4.24.9.2 1.27-.07l1.18-.83c.91.54 1.9.96 2.96 1.22l.23 1.42c.08.46.41.84.86.95.38.1.9.19 1.5.19s1.12-.09 1.5-.19c.45-.11.78-.49.86-.95l.23-1.42c1.06-.26 2.05-.68 2.96-1.22l1.18.83c.37.27.87.31 1.27.07.34-.2.76-.5 1.19-.93s.73-.85.93-1.19c.24-.4.2-.9-.06-1.27l-.84-1.18c.54-.91.96-1.9 1.22-2.96l1.42-.23c.46-.08.84-.41.95-.86.1-.38.19-.9.19-1.5s-.09-1.12-.19-1.5zm-12.81 7.5c-3.31 0-6-2.69-6-6s2.69-6 6-6 6 2.69 6 6-2.69 6-6 6z" fill="#2f377f"/><g fill="#fff"><path d="m15 32h-1.466c.151-.135.339-.28.565-.45.802-.602 1.9-1.425 1.9-3.05 0-1.379-1.121-2.5-2.5-2.5-1.343 0-2.188 1.011-2.281 1.126-.345.431-.274 1.061.157 1.405.431.346 1.062.274 1.405-.157.003-.003.337-.374.719-.374.275 0 .5.225.5.5 0 .568-.318.863-1.1 1.45-.802.602-1.9 1.425-1.9 3.05 0 .553.447 1 1 1h3c.553 0 1-.447 1-1s-.447-1-1-1z"/><path d="m8 10v-5c0-.404-.243-.77-.617-.924-.375-.155-.804-.069-1.09.217l-1 1c-.391.391-.391 1.023 0 1.414.195.195.451.293.707.293v3c-.553 0-1 .447-1 1s.447 1 1 1h2c.553 0 1-.447 1-1s-.447-1-1-1z"/><path d="m6.5 48c-1.287 0-2.166.989-2.262 1.103-.355.417-.304 1.038.109 1.397.414.358 1.043.315 1.407-.094.094-.105.432-.406.745-.406.275 0 .5.225.5.5 0 .46-.242.495-.346.511-.49.072-.854.493-.854.989s.364.917.854.989c.104.016.346.051.346.511 0 .275-.225.5-.5.5-.313 0-.649-.299-.744-.405-.359-.414-.987-.463-1.403-.106-.421.357-.472.988-.114 1.409.096.113.975 1.103 2.262 1.103 1.379 0 2.5-1.121 2.5-2.5 0-.573-.158-1.088-.44-1.5.282-.412.44-.927.44-1.5 0-1.379-1.121-2.5-2.5-2.5z"/></g><path d="m33 7h-19c-.553 0-1-.447-1-1s.447-1 1-1h19c.553 0 1 .447 1 1s-.447 1-1 1z" fill="#aa2b46"/><path d="m26 11h-12c-.553 0-1-.447-1-1s.447-1 1-1h12c.553 0 1 .447 1 1s-.447 1-1 1z" fill="#aa2b46"/><path d="m33 51h-19c-.553 0-1-.447-1-1s.447-1 1-1h19c.553 0 1 .447 1 1s-.447 1-1 1z" fill="#214d93"/><path d="m26 55h-12c-.553 0-1-.447-1-1s.447-1 1-1h12c.553 0 1 .447 1 1s-.447 1-1 1z" fill="#214d93"/><path d="m29 29h-8c-.553 0-1-.447-1-1s.447-1 1-1h8c.553 0 1 .447 1 1s-.447 1-1 1z" fill="#ea9453"/><path d="m27 33h-6c-.553 0-1-.447-1-1s.447-1 1-1h6c.553 0 1 .447 1 1s-.447 1-1 1z" fill="#ea9453"/><path d="m46 37c-3.859 0-7-3.141-7-7s3.141-7 7-7 7 3.141 7 7-3.141 7-7 7zm0-12c-2.757 0-5 2.243-5 5s2.243 5 5 5 5-2.243 5-5-2.243-5-5-5z" fill="#20295e"/></svg>