<svg viewBox="0 0 128 128" xmlns="http://www.w3.org/2000/svg"><g><path d="M3 61h122v64H3z" fill="#66bb6a"></path><path d="M116 23a1 1 0 1 0 0-2h-7.586l8.293-8.293a1 1 0 1 0-1.414-1.414L105.586 21H94.08l6.7-8.375a1 1 0 0 0-1.562-1.25L91.52 21H79.477l3.452-8.629a1 1 0 1 0-1.858-.742L77.323 21H65v-9a1 1 0 1 0-2 0v9H50.677l-3.748-9.371a1 1 0 1 0-1.858.742L48.523 21H36.48l-7.7-9.625a1 1 0 0 0-1.562 1.25L33.92 21H22.414l-9.707-9.707a1 1 0 1 0-1.414 1.414L19.586 21H12a1 1 0 1 0 0 2h9v8h-9a1 1 0 1 0 0 2h9v8h-9a1 1 0 1 0 0 2h9v8h-9a1 1 0 1 0 0 2h9v8h-9a1 1 0 1 0 0 2h104a1 1 0 1 0 0-2h-9v-8h9a1 1 0 1 0 0-2h-9v-8h9a1 1 0 1 0 0-2h-9v-8h9a1 1 0 1 0 0-2h-9v-8zM49 33v8H37v-8zm-12-2v-8h12v8zm28 12h12v8H65zm-2 8H51v-8h12zm2-10v-8h12v8zm-2 0H51v-8h12zm-14 2v8H37v-8zm0 10v8H37v-8zm2 0h12v8H51zm14 0h12v8H65zm14 0h12v8H79zm0-2v-8h12v8zm0-10v-8h12v8zm0-10v-8h12v8zm-2-8v8H65v-8zm-14 8H51v-8h12zm-40-8h12v8H23zm0 10h12v8H23zm0 10h12v8H23zm0 10h12v8H23zm82 8H93v-8h12zm0-10H93v-8h12zm0-10H93v-8h12zm0-10H93v-8h12z" fill="#bdbdbd"></path><path d="M108 73H20a1 1 0 1 1 0-2h88a1 1 0 1 1 0 2zM64 83c-11.58 0-21 9.42-21 21s9.42 21 21 21 21-9.42 21-21-9.42-21-21-21z" fill="#e0e0e0"></path><path d="m80.663 91.22-1.155-1.502-2.993 9.165-4.096 1.33L65 94.82v-4.31l7.798-5.662-1.78-.639c-4.471-1.604-9.565-1.604-14.036 0l-1.78.639L63 90.51v4.31l-7.419 5.393-4.096-1.33-2.993-9.165-1.155 1.503A20.796 20.796 0 0 0 43 104c0 .207.002.427.026.635l.196 1.7 7.64-5.553 4.105 1.334 2.834 8.716-2.541 3.498h-9.63l1.076 1.566a21 21 0 0 0 11.331 8.243l1.821.537-2.98-9.172 2.538-3.494h9.167l2.54 3.494-2.981 9.172 1.82-.537a20.94 20.94 0 0 0 11.333-8.244l1.07-1.565H72.74l-2.54-3.498 2.833-8.715 4.106-1.335 7.64 5.554.195-1.701A5.53 5.53 0 0 0 85 104c0-4.668-1.5-9.088-4.337-12.78z" fill="#607d8b"></path><path d="M86 125H52a1 1 0 1 1 0-2h34a1 1 0 1 1 0 2zM46 125h-4a1 1 0 1 1 0-2h4a1 1 0 1 1 0 2z" fill="#e0e0e0"></path><path d="M124 3H4a1 1 0 0 0-1 1v68a1 1 0 0 0 1 1h8a1 1 0 0 0 1-1V13h102v59a1 1 0 0 0 1 1h8a1 1 0 0 0 1-1V4a1 1 0 0 0-1-1z" fill="#607d8b"></path></g></svg>