<svg viewBox="0 0 512.002 512.002" xmlns="http://www.w3.org/2000/svg"><g><path d="M468.822 133.555c-27.929-28.615-65.199-44.569-104.944-44.925-6.956-.063-13.642.341-19.939 1.202-12.549-34.366-9.105-80.911-9.067-81.4a7.496 7.496 0 0 0-7.474-8.085h-73.766a7.498 7.498 0 0 0-7.38 6.174c-.136.756-11.617 77.316 26.022 142.844-7.703 23.17-9.683 52.369-6.059 89.093 4.243 43-2.102 71.69-18.348 82.968-10.258 7.121-30.634 11.612-69.48-7.362-10.604-6.025-31.927-16.312-57.033-18.507-25.55-2.238-47.618 4.368-65.566 19.624-19.34 16.439-34.368 46.147-44.667 88.299-3.578 14.644-8.375 38.291-10.906 67.789l-.07.809c-1.773 19.928 13.005 37.615 32.951 39.429 1.107.1 2.222.15 3.317.15 18.888-.002 34.45-14.209 36.197-33.048 3.329-35.886 14.147-94.258 30.301-107.991a9.502 9.502 0 0 1 1.831-1.215c2.395-1.22 4.889-1.353 7.412-.393 3.382 1.286 6.308 4.37 7.827 8.25 13.764 35.157 42.145 62.254 82.076 78.359 37.031 14.935 81.222 18.856 124.429 11.042 49.714-8.991 94.848-33.108 127.091-67.907 37.258-40.212 57.454-94.381 58.405-156.653.625-40.842-14.703-79.391-43.16-108.546z" fill="#f77474"></path><path d="M102.911 370.617a9.502 9.502 0 0 1 4.033-2.012l.084-.229a127.49 127.49 0 0 1-7.845-16.456c-1.519-3.881-4.445-6.966-7.827-8.25-2.523-.96-5.017-.827-7.412.393-.668.34-1.208.857-1.831 1.215-14.724 8.435-40.252 82.415-47.639 133.33-1.709 11.78-7.671 21.869-17.096 27.671a36.42 36.42 0 0 0 5.436 2.745c.067.027.136.052.204.078a36.61 36.61 0 0 0 1.616.596c.155.053.312.103.467.154a34.475 34.475 0 0 0 1.998.59c.443.117.89.224 1.34.324.215.048.43.098.647.143.463.095.931.176 1.401.253.199.033.395.071.595.1a36.015 36.015 0 0 0 5.333.393c18.888-.002 34.45-14.209 36.197-33.048 3.327-35.884 14.145-94.257 30.299-107.99zM468.822 133.555c-27.929-28.615-65.199-44.569-104.944-44.925-6.956-.063-13.642.341-19.939 1.202-12.549-34.366-9.105-80.911-9.067-81.4a7.496 7.496 0 0 0-7.474-8.085h-38.135a7.498 7.498 0 0 1 7.474 8.085c-.038.489-3.481 47.034 9.067 81.4 6.298-.861 12.983-1.265 19.939-1.202 39.745.356 77.015 16.31 104.944 44.925 28.457 29.155 43.786 67.703 43.161 108.545-.952 62.272-21.148 116.442-58.405 156.653-32.243 34.799-77.377 58.916-127.091 67.907a246.78 246.78 0 0 1-24.428 3.168c20.469 1.642 41.631.618 62.564-3.168 49.714-8.991 94.848-33.108 127.091-67.907 37.258-40.212 57.454-94.381 58.405-156.653.623-40.841-14.705-79.39-43.162-108.545z" fill="#e55555"></path><path d="M107.958 302.731c43.673 44.239 109.63 90.966 147.958 71.737 17.577-8.818 17.379-71.24 12.496-118.201a130.794 130.794 0 0 1-.926 6.609c-.027 29.518-6.678 49.565-19.621 58.55-10.258 7.121-30.634 11.612-69.48-7.362-10.604-6.025-31.927-16.312-57.033-18.507-6.52-.572-12.811-.559-18.867.019a162.433 162.433 0 0 0 5.473 7.155z" fill="#e55555"></path></g></svg>