<svg viewBox="0 0 512 512" xmlns="http://www.w3.org/2000/svg"><g><path d="M471.735 0H38.988C19.939 0 4.441 15.498 4.441 34.548v395.33c0 4.2 3.404 7.604 7.604 7.604s7.604-3.404 7.604-7.604v-68.96l26.221-26.22v51.584c0 4.2 3.404 7.604 7.604 7.604s7.604-3.404 7.604-7.604V56.637H449.91v329.645c0 4.2 3.404 7.604 7.604 7.604s7.604-3.404 7.604-7.604v-52.507l26.221 26.221v69.882c0 4.2 3.404 7.604 7.604 7.604s7.604-3.404 7.604-7.604V34.811C506.546 15.616 490.93 0 471.735 0zM45.869 313.188l-26.221 26.22v-45.507l26.221-26.22v45.507zm0-67.016-26.221 26.22v-45.507l26.221-26.22v45.507zm0-67.016-26.221 26.22v-45.507l26.221-26.22v45.507zm7.604-137.727a7.603 7.603 0 0 0-7.604 7.604v63.108l-26.221 26.22V34.548c0-10.664 8.675-19.34 19.34-19.34h102.721l-25.24 26.221H53.473zm84.104 0 25.24-26.221h45.908l-25.24 26.221h-45.908zm67.016 0 25.24-26.221h52.335l25.24 26.221H204.593zm123.922 0-25.24-26.221h45.908l25.24 26.221h-45.908zm162.823 297.057-26.221-26.221v-45.507l26.221 26.221v45.507zm0-67.016-26.221-26.221v-45.507l26.221 26.221v45.507zm0-67.016-26.221-26.221v-45.507l26.221 26.221v45.507zm0-67.015-26.221-26.221V49.033c0-4.2-3.404-7.604-7.604-7.604h-61.982l-25.24-26.221h101.443c10.809 0 19.603 8.794 19.603 19.603v102.628z" fill="#e7e8f7"></path><path d="M92.867 215.784 53.473 88.519l-.245-.313V49.033h39.731L322.915 178.44v141.94H93.782V215.952" fill="#feec96"></path><path d="M418.027 49.033h39.731v39.173l-.245.313-39.394 124.326-.569 26.116-173.271-101.386z" fill="#8adff8"></path><path d="M92.867 429.877V316.691h325.252v113.186" fill="#f0eef0"></path><path d="M386.59 316.691h31.529v113.186H386.59z" fill="#dfdde0"></path><path d="M53.473 88.519 20.222 55.268c-10.904-10.904-10.904-28.582 0-39.486 10.904-10.904 28.582-10.904 39.486 0l33.251 33.251-39.486 39.486z" fill="#5d5e69"></path><path d="m39.24 36.76 32.996 32.996 20.723-20.723-33.251-33.251c-10.904-10.904-28.582-10.904-39.486 0a27.784 27.784 0 0 0-7.497 13.633c9.195-2.29 19.327.157 26.515 7.345z" fill="#484854"></path><path d="m418.027 49.033 33.251-33.251c10.904-10.904 28.582-10.904 39.486 0 10.904 10.904 10.904 28.582 0 39.486l-33.251 33.251-39.486-39.486z" fill="#5d5e69"></path><path d="M469.786 34.799 436.79 67.796l20.723 20.723 33.251-33.251c10.904-10.904 10.904-28.582 0-39.486a27.784 27.784 0 0 0-13.633-7.497c2.289 9.195-.157 19.326-7.345 26.514z" fill="#484854"></path><path d="M191.814 316.691H92.867V152.448c0-5.599 4.539-10.139 10.139-10.139h78.67c5.599 0 10.139 4.539 10.139 10.139v164.243z" fill="#bdbfce"></path><path d="M181.676 142.309h-31.529c5.599 0 10.139 4.539 10.139 10.139v164.243h31.529V152.448c-.001-5.6-4.54-10.139-10.139-10.139z" fill="#abacba"></path><circle cx="142.341" cy="197.661" fill="#5d5e69" r="21.063"></circle><circle cx="142.341" cy="268.197" fill="#5d5e69" r="21.063"></circle><path d="M319.172 316.691V152.448c0-5.599 4.539-10.139 10.139-10.139h78.67c5.599 0 10.139 4.539 10.139 10.139v164.243h-98.948z" fill="#bdbfce"></path><path d="M407.98 142.309h-31.742c5.599 0 10.139 4.539 10.139 10.139v164.243h31.742V152.448c0-5.6-4.539-10.139-10.139-10.139z" fill="#abacba"></path><circle cx="368.645" cy="197.661" fill="#5d5e69" r="21.063"></circle><circle cx="368.645" cy="268.197" fill="#5d5e69" r="21.063"></circle><path d="M4.055 426.332c0 23.482 18.8 42.518 41.991 42.518s41.991-19.036 41.991-42.518v1.466c0-23.482-18.8-42.518-41.991-42.518S4.055 404.316 4.055 427.798" fill="#5d5e69"></path><path d="M88.037 426.332c0 23.482 18.8 42.518 41.991 42.518s41.991-19.036 41.991-42.518v1.466c0-23.482-18.8-42.518-41.991-42.518s-41.991 19.036-41.991 42.518" fill="#484854"></path><path d="M172.018 426.332c0 23.482 18.8 42.518 41.991 42.518S256 449.814 256 426.332v1.466c0-23.482-18.8-42.518-41.991-42.518s-41.991 19.036-41.991 42.518" fill="#f9b04d"></path><path d="M256 426.332c0 23.482 18.8 42.518 41.991 42.518s41.991-19.036 41.991-42.518v1.466c0-23.482-18.8-42.518-41.991-42.518S256 404.316 256 427.798" fill="#484854"></path><path d="M339.982 426.332c0 23.482 18.8 42.518 41.991 42.518s41.991-19.036 41.991-42.518v1.466c0-23.482-18.8-42.518-41.991-42.518s-41.991 19.036-41.991 42.518" fill="#5d5e69"></path><path d="M423.963 426.332c0 23.482 18.8 42.518 41.991 42.518s41.991-19.036 41.991-42.518v1.466c0-23.482-18.8-42.518-41.991-42.518s-41.991 19.036-41.991 42.518" fill="#bc6c59"></path><path d="M46.469 468.48c0 23.482 18.8 42.518 41.991 42.518s41.991-19.036 41.991-42.518v1.466c0-23.482-18.8-42.518-41.991-42.518s-41.991 19.036-41.991 42.518" fill="#f9b04d"></path><path d="M130.45 468.48c0 23.482 18.8 42.518 41.991 42.518s41.991-19.036 41.991-42.518v1.466c0-23.482-18.8-42.518-41.991-42.518s-41.991 19.036-41.991 42.518" fill="#bc6c59"></path><path d="M214.432 468.48c0 23.482 18.8 42.518 41.991 42.518s41.991-19.036 41.991-42.518v1.466c0-23.482-18.8-42.518-41.991-42.518s-41.991 19.036-41.991 42.518" fill="#5d5e69"></path><path d="M298.413 468.48c0 23.482 18.8 42.518 41.991 42.518s41.991-19.036 41.991-42.518v1.466c0-23.482-18.8-42.518-41.991-42.518s-41.991 19.036-41.991 42.518" fill="#bc6c59"></path><path d="M382.395 468.48c0 23.482 18.8 42.518 41.991 42.518s41.991-19.036 41.991-42.518v1.466c0-23.482-18.8-42.518-41.991-42.518s-41.991 19.036-41.991 42.518" fill="#f9b04d"></path><path d="M87.988 512c.018-.404.024-.812.03-1.219-.388-23.143-19.024-41.785-41.972-41.785S4.461 487.639 4.073 510.781c.007.407.012.815.03 1.219h83.885z" fill="#bc6c59"></path><path d="M171.97 512c.018-.404.024-.812.03-1.219-.388-23.143-19.025-41.785-41.973-41.785s-41.585 18.643-41.973 41.785c.007.407.012.815.03 1.219h83.886z" fill="#5d5e69"></path><path d="M255.951 512c.018-.404.024-.812.03-1.219-.388-23.143-19.024-41.785-41.973-41.785-22.948 0-41.584 18.643-41.972 41.785.007.407.012.815.03 1.219h83.885zM339.933 512c.018-.404.024-.812.03-1.219-.388-23.143-19.024-41.785-41.972-41.785s-41.585 18.643-41.973 41.785c.007.407.012.815.03 1.219h83.885z" fill="#484854"></path><path d="M423.914 512c.018-.404.023-.812.03-1.219-.388-23.143-19.025-41.785-41.973-41.785s-41.585 18.643-41.973 41.785c.007.407.012.815.03 1.219h83.886z" fill="#5d5e69"></path><path d="M507.896 512c.018-.404.024-.812.03-1.219-.388-23.143-19.024-41.785-41.973-41.785-22.948 0-41.584 18.643-41.972 41.785.007.407.012.814.03 1.219h83.885z" fill="#bc6c59"></path></g></svg>