<svg viewBox="0 0 512 512" xmlns="http://www.w3.org/2000/svg"><g><path d="M256 106.668c-11.797 0-21.332 9.555-21.332 21.332v128c0 11.777 9.535 21.332 21.332 21.332h128c11.797 0 21.332-9.555 21.332-21.332s-9.535-21.332-21.332-21.332H277.332V128c0-11.777-9.535-21.332-21.332-21.332zm0 0" fill="#4caf50"></path><path d="M256 0C188.16 0 122.453 27.094 73.645 72.34L27.309 26.027a15.98 15.98 0 0 0-17.43-3.476A16.01 16.01 0 0 0 0 37.332V176c0 8.832 7.168 16 16 16h138.668a15.987 15.987 0 0 0 14.781-9.879 15.972 15.972 0 0 0-3.476-17.43L104 102.7c40.852-37.418 95.445-60.031 152-60.031 117.633 0 213.332 95.7 213.332 213.332S373.632 469.332 256 469.332c-57.047 0-110.57-22.227-150.7-62.547-8.32-8.363-21.843-8.387-30.163-.066-8.364 8.32-8.407 21.824-.086 30.187C123.266 485.332 187.52 512 256 512c141.164 0 256-114.836 256-256S397.164 0 256 0zm0 0" fill="#607d8b"></path></g></svg>