<svg viewBox="0 0 512 512" xmlns="http://www.w3.org/2000/svg"><g><path d="M322.063 240.167c-16.781 17.145-40.177 27.79-66.063 27.79-51.053 0-92.439-41.387-92.439-92.439 0-8.12 1.051-15.994 3.017-23.497h-59.439a151.793 151.793 0 0 0-1.827 23.497c0 83.223 67.466 150.689 150.689 150.689 41.971 0 79.928-17.165 107.252-44.851zM257 83.09V24.84c-.334-.002-.666-.013-1-.013-15.801 0-31.032 2.437-45.343 6.948V94.95c13.397-7.556 28.865-11.873 45.343-11.873.334.001.667.01 1 .013z" fill="#05e39c"></path><path d="M351.069 176.518h52.691l2.928-1c0-83.223-67.466-150.689-150.689-150.689v58.25c51.053 0 92.439 41.387 92.439 92.439z" fill="#ffd15b"></path><path d="M256 24.828v3.464c67.741 14.756 118.471 75.061 118.471 147.225h32.218c0-83.223-67.466-150.689-150.689-150.689z" fill="#ffc344"></path><path d="M345.818 263.921c-24.417 33.644-62.403 56.801-105.927 61.427 5.293.563 10.667.858 16.109.858 41.971 0 79.928-17.165 107.252-44.851z" fill="#0ed290"></path><path d="M348.439 175.517c0 25.526-10.347 48.636-27.075 65.365l41.189 41.189c27.269-27.269 44.136-64.942 44.136-106.553h-58.25z" fill="#fd8087"></path><path d="M374.471 175.517c0 33.392-10.869 64.241-29.251 89.22l17.333 17.333c27.269-27.269 44.136-64.942 44.136-106.553z" fill="#fe646f"></path><path d="M343.11 97.785a7.5 7.5 0 0 1-5.304-12.803l63.315-63.315a17.69 17.69 0 0 1 12.589-5.214h60.356c4.143 0 7.5 3.357 7.5 7.5s-3.357 7.5-7.5 7.5H413.71c-.749 0-1.452.292-1.981.821l-63.315 63.315a7.481 7.481 0 0 1-5.304 2.196z" fill="#8379c1"></path><path d="M474.067 61.637H428.48c-4.143 0-7.5-3.357-7.5-7.5s3.357-7.5 7.5-7.5h45.587c4.143 0 7.5 3.357 7.5 7.5s-3.357 7.5-7.5 7.5zM474.067 91.821H428.48c-4.143 0-7.5-3.357-7.5-7.5s3.357-7.5 7.5-7.5h45.587c4.143 0 7.5 3.357 7.5 7.5s-3.357 7.5-7.5 7.5zM98.289 334.582H37.933c-4.143 0-7.5-3.357-7.5-7.5s3.357-7.5 7.5-7.5h60.356a2.79 2.79 0 0 0 1.983-.821l63.313-63.315a7.5 7.5 0 0 1 10.607 10.607l-63.315 63.316a17.69 17.69 0 0 1-12.588 5.213z" fill="#8379c1"></path><path d="M83.52 304.397H37.933c-4.143 0-7.5-3.357-7.5-7.5s3.357-7.5 7.5-7.5H83.52c4.143 0 7.5 3.357 7.5 7.5s-3.358 7.5-7.5 7.5zM83.52 274.213H37.933c-4.143 0-7.5-3.357-7.5-7.5s3.357-7.5 7.5-7.5H83.52c4.143 0 7.5 3.357 7.5 7.5s-3.358 7.5-7.5 7.5z" fill="#8379c1"></path><path d="M150.922 364.832H48.235c-5.69 0-10.302 4.612-10.302 10.302v33.353c0 5.69 4.612 10.302 10.302 10.302h102.687z" fill="#ffd15b"></path><path d="M149.891 364.832h85.505v53.956h-85.505z" fill="#26a6fe"></path><path d="M474.067 408.487v-33.353c0-5.69-4.612-10.302-10.302-10.302H234.366v53.956h229.399c5.69 0 10.302-4.612 10.302-10.301z" fill="#bfbfbf"></path><path d="M463.765 364.832h-32.634c5.69 0 10.302 4.612 10.302 10.302v33.353c0 5.69-4.612 10.302-10.302 10.302h32.634c5.69 0 10.302-4.612 10.302-10.302v-33.353c0-5.69-4.612-10.302-10.302-10.302z" fill="#acacac"></path><path d="M326.45 458.044H48.235c-5.69 0-10.302 4.612-10.302 10.302v33.353c0 5.69 4.612 10.302 10.302 10.302H326.45z" fill="#fe646f"></path><path d="M463.765 458.044H325.419V512h138.346c5.69 0 10.302-4.612 10.302-10.302v-33.353c0-5.689-4.612-10.301-10.302-10.301z" fill="#bfbfbf"></path><path d="M463.765 458.044h-32.333c5.69 0 10.302 4.612 10.302 10.302v33.353c0 5.69-4.612 10.302-10.302 10.302h32.333c5.69 0 10.302-4.612 10.302-10.302v-33.353c0-5.69-4.612-10.302-10.302-10.302z" fill="#acacac"></path><path d="M37.933 35.982v108.794a8.273 8.273 0 0 0 8.274 8.274h157.206a8.273 8.273 0 0 0 8.274-8.274V35.982z" fill="#f9f3f1"></path><path d="M179.42 35.982v108.794a8.273 8.273 0 0 1-8.274 8.274h32.267a8.273 8.273 0 0 0 8.274-8.274V35.982z" fill="#f3eae6"></path><path d="M211.687 36.81H37.933V8.274A8.273 8.273 0 0 1 46.207 0h157.206a8.273 8.273 0 0 1 8.274 8.274z" fill="#26a6fe"></path><path d="M203.413 0h-32.267a8.273 8.273 0 0 1 8.274 8.274V36.81h32.267V8.274A8.273 8.273 0 0 0 203.413 0z" fill="#0593fc"></path><path d="M87.204 115.772V80.417c0-4.143-3.357-7.5-7.5-7.5s-7.5 3.357-7.5 7.5v35.355z" fill="#ffc344"></path><path d="M117.685 115.772V88.959c0-4.143-3.357-7.5-7.5-7.5s-7.5 3.357-7.5 7.5v26.813z" fill="#fd8087"></path><path d="M148.164 115.772v-52.44c0-4.143-3.357-7.5-7.5-7.5s-7.5 3.357-7.5 7.5v52.44z" fill="#0ed290"></path><path d="M178.645 115.772V97.501c0-4.143-3.357-7.5-7.5-7.5s-7.5 3.357-7.5 7.5v18.271z" fill="#fd8087"></path><path d="M187.305 129.772H63.544c-4.143 0-7.5-3.357-7.5-7.5s3.357-7.5 7.5-7.5h123.761c4.143 0 7.5 3.357 7.5 7.5s-3.358 7.5-7.5 7.5z" fill="#bfbfbf"></path><path d="M450.164 210.14h-63.737a5.218 5.218 0 0 0-5.218 5.218v110.627a5.218 5.218 0 0 0 5.218 5.218h82.423a5.218 5.218 0 0 0 5.218-5.218v-91.942c0-1.384-.55-2.711-1.528-3.69l-18.685-18.685a5.227 5.227 0 0 0-3.691-1.528z" fill="#ffd15b"></path><path d="m472.538 230.354-18.685-18.685a5.217 5.217 0 0 0-3.69-1.528h-32.491c1.384 0 2.711.55 3.69 1.528l18.685 18.685a5.217 5.217 0 0 1 1.528 3.69v91.942a5.218 5.218 0 0 1-5.218 5.218h32.492a5.218 5.218 0 0 0 5.218-5.218v-91.942c0-1.385-.55-2.712-1.529-3.69z" fill="#ffc344"></path><path d="M444.352 253.272h-33.429c-4.143 0-7.5-3.357-7.5-7.5s3.357-7.5 7.5-7.5h33.429c4.143 0 7.5 3.357 7.5 7.5s-3.358 7.5-7.5 7.5zM444.352 280.392h-33.429c-4.143 0-7.5-3.357-7.5-7.5s3.357-7.5 7.5-7.5h33.429c4.143 0 7.5 3.357 7.5 7.5s-3.358 7.5-7.5 7.5zM426.918 307.51h-15.995c-4.143 0-7.5-3.357-7.5-7.5s3.357-7.5 7.5-7.5h15.995c4.143 0 7.5 3.357 7.5 7.5s-3.357 7.5-7.5 7.5z" fill="#eca026"></path></g></svg>