<svg viewBox="0 0 512 512" xmlns="http://www.w3.org/2000/svg"><g><path d="M239.484 363.355h-82.581l-8.258 57.806h99.097z" fill="#c7cfe2"></path><path d="m243.023 388.129-3.539-24.774h-82.581l-3.539 24.774z" fill="#afb9d2"></path><path d="M379.871 371.613H16.516C7.395 371.613 0 364.217 0 355.096v-256C0 89.974 7.395 82.58 16.516 82.58h363.355c9.122 0 16.516 7.395 16.516 16.516v256c0 9.121-7.394 16.517-16.516 16.517z" fill="#d5dced"></path><path d="M16.516 82.581C7.395 82.581 0 89.975 0 99.097v256c0 9.121 7.395 16.516 16.516 16.516h272.516L107.355 82.581H16.516z" fill="#c7cfe2"></path><path d="M379.871 82.581H16.516C7.395 82.581 0 89.975 0 99.097v231.226h396.387V99.097c0-9.122-7.395-16.516-16.516-16.516z" fill="#5b5d6e"></path><path d="M0 99.097v231.226h263.078L107.355 82.581H16.516C7.395 82.581 0 89.975 0 99.097z" fill="#464655"></path><path d="M363.355 305.548H33.032a8.258 8.258 0 0 1-8.258-8.258V115.613a8.258 8.258 0 0 1 8.258-8.258h330.323a8.258 8.258 0 0 1 8.258 8.258V297.29a8.258 8.258 0 0 1-8.258 8.258z" fill="#00aaf0"></path><path d="M429.423 222.968H313.806c-9.122 0-16.516 7.395-16.516 16.516v173.419c0 9.122 7.395 16.516 16.516 16.516H429.42c9.121 0 16.516-7.394 16.516-16.516l.003-173.42c0-9.121-7.395-16.515-16.516-16.515z" fill="#afb9d2"></path><path d="M297.29 239.484v173.419c0 9.121 7.395 16.516 16.516 16.516h115.613L313.806 222.968c-9.121 0-16.516 7.394-16.516 16.516z" fill="#959cb5"></path><path d="M433.548 404.645H309.677a4.13 4.13 0 0 1-4.129-4.129V251.871a4.13 4.13 0 0 1 4.129-4.129h123.871a4.13 4.13 0 0 1 4.129 4.129v148.645a4.128 4.128 0 0 1-4.129 4.129z" fill="#00c3ff"></path><path d="M355.097 338.581h148.645a8.258 8.258 0 0 1 8.258 8.258v74.323a8.258 8.258 0 0 1-8.258 8.258H355.097a8.258 8.258 0 0 1-8.258-8.258v-74.323a8.258 8.258 0 0 1 8.258-8.258z" fill="#5b5d6e"></path><path d="M355.097 338.581a8.258 8.258 0 0 0-8.258 8.258v74.323a8.258 8.258 0 0 0 8.258 8.258h99.097l-49.548-90.839h-49.549z" fill="#464655"></path><path d="M264.258 429.419H132.129c-4.565 0-8.258-3.698-8.258-8.258s3.694-8.258 8.258-8.258h132.129c4.565 0 8.258 3.698 8.258 8.258s-3.693 8.258-8.258 8.258z" fill="#d5dced"></path><path d="M206.452 359.226h-16.516a8.258 8.258 0 0 1-8.258-8.258 8.258 8.258 0 0 1 8.258-8.258h16.516a8.258 8.258 0 0 1 0 16.516z" fill="#959cb5"></path><path d="M483.097 421.161H375.742a4.13 4.13 0 0 1-4.129-4.129v-66.065a4.13 4.13 0 0 1 4.129-4.129h107.355a4.13 4.13 0 0 1 4.129 4.129v66.065a4.129 4.129 0 0 1-4.129 4.129z" fill="#00d2ff"></path></g></svg>