<svg viewBox="0 0 64 64" xmlns="http://www.w3.org/2000/svg"><g><g><g fill="#95a7b1"><path d="M52 33s0-2 3-2c11 0 5 13 8 16l-11-9zM28 44l-3 20h-7c0-2 3-4 3-4l1-18zM18 22l4-5h-7zM52 44v5l3 2 3 13h-7a3.552 3.552 0 0 1 2-3l-3-7a19.545 19.545 0 0 1-10-17z" fill="#95a7b1"></path></g><path d="M2.501 22.201 6 25s2 22 28 22c16 0 23-3 23-3s0-15-16-15-19-4-19-4l4-5h-7l-3.357-2.685A6 6 0 0 0 11.895 16H9l-8-4v7.077a4 4 0 0 0 1.501 3.124z" fill="#bdccd4"></path><path d="m32 44-3 20h-7c0-2 3-4 3-4l1-18zM57 44v5l1.678 1.119a4 4 0 0 1 1.68 2.429L63 64h-7a3.552 3.552 0 0 1 2-3l-3-7a19.545 19.545 0 0 1-10-17z" fill="#bdccd4"></path><path d="M18 34a8.476 8.476 0 0 1-6.832-3.445 1 1 0 0 1 1.662-1.114 6.445 6.445 0 0 0 3.73 2.403l-.509-1.528A1 1 0 0 1 17 29h2.586l-1.293-1.293a1 1 0 0 1 1.414-1.414l3 3A1 1 0 0 1 22 31h-3.613l.562 1.684A1 1 0 0 1 18 34z" fill="#95a7b1"></path><path d="M11 19h2v2h-2z" fill="#77594b"></path></g></g></svg>