<svg viewBox="0 0 512 512" xmlns="http://www.w3.org/2000/svg"><g><path d="m351.814 370.976 10.367-2.789 30.296 113.065c1.495 5.581-3.77 10.61-9.276 8.859l-42.627-13.55-30.139 33.05c-3.893 4.269-10.967 2.548-12.463-3.033l-28.498-106.329zM160.469 371.14l82.017 29.235-28.457 106.202c-1.496 5.581-8.57 7.303-12.463 3.034l-30.138-33.049-42.628 13.549c-5.507 1.75-10.772-3.278-9.276-8.86l30.274-112.96 10.671 2.849z" fill="#f07281"></path><path d="m402.962 357.224-49.256 13.243a7.315 7.315 0 0 0-3.276 1.895l-36.036 36.097a7.31 7.31 0 0 1-7.06 1.898l-49.279-13.159a7.313 7.313 0 0 0-3.784.003l-49.256 13.243a7.311 7.311 0 0 1-7.063-1.886l-36.097-36.036a7.305 7.305 0 0 0-3.279-1.889l-49.279-13.159a7.312 7.312 0 0 1-5.174-5.165L90.88 303.054a7.315 7.315 0 0 0-1.895-3.276l-36.097-36.036a7.31 7.31 0 0 1-1.898-7.06l13.159-49.279a7.313 7.313 0 0 0-.003-3.784l-13.243-49.256a7.311 7.311 0 0 1 1.886-7.063l36.036-36.097a7.305 7.305 0 0 0 1.889-3.279l13.159-49.279a7.312 7.312 0 0 1 5.165-5.174l49.256-13.243a7.315 7.315 0 0 0 3.276-1.895l36.036-36.097a7.31 7.31 0 0 1 7.06-1.898l49.279 13.159c1.24.331 2.545.33 3.784-.003L306.985.251a7.311 7.311 0 0 1 7.063 1.886l36.097 36.036a7.305 7.305 0 0 0 3.279 1.889l49.279 13.159a7.312 7.312 0 0 1 5.174 5.165l13.243 49.256a7.315 7.315 0 0 0 1.895 3.276l36.097 36.036a7.31 7.31 0 0 1 1.898 7.06l-13.159 49.279a7.313 7.313 0 0 0 .003 3.784l13.243 49.256a7.311 7.311 0 0 1-1.886 7.063l-36.036 36.097a7.305 7.305 0 0 0-1.889 3.279l-13.159 49.279a7.31 7.31 0 0 1-5.165 5.173z" fill="#ffc344"></path><circle cx="256" cy="205.348" fill="#fee97d" r="156.655"></circle><path d="M292.553 357.712A156.77 156.77 0 0 1 256 362.004c-86.516 0-156.655-70.14-156.655-156.655S169.484 48.694 256 48.694a156.77 156.77 0 0 1 36.553 4.292c-68.886 16.459-120.102 78.432-120.102 152.363s51.215 135.904 120.102 152.363z" fill="#fee45a"></path><path d="M319.041 266.447h8.034c8.874 0 16.067 7.193 16.067 16.067s-7.193 16.067-16.067 16.067H240.9c-4.34 0-8.539-1.47-11.983-4.111-9.083-6.965-18.695-8.44-30.378-9.134V183.167c27.475-31.392 62.293-34.342 59.856-81.252-.422-8.117 6.047-14.933 14.175-14.933 6.217 0 11.745 4.035 13.56 9.982 7.374 24.171 9.218 48.159-.517 73.081h58.757c8.874 0 16.067 7.193 16.067 16.067s-7.193 16.067-16.067 16.067h-19.988 14.547c8.874 0 16.067 7.193 16.067 16.067s-7.193 16.067-16.067 16.067h-14.547 9.206c8.874 0 16.067 7.193 16.067 16.067s-7.193 16.067-16.067 16.067z" fill="#fff3de"></path><path d="M198.539 172.128v11.039l5.222 4.25v92.165l-5.222 5.754v10.183a7.31 7.31 0 0 1-7.311 7.311H133.37c-21.305-26.757-34.026-60.636-34.026-97.481 0-14.015 1.838-27.603 5.295-40.532h86.588a7.31 7.31 0 0 1 7.312 7.311z" fill="#8ac9fe"></path><path d="M319.041 266.447h8.034c8.874 0 16.067 7.193 16.067 16.067s-7.193 16.067-16.067 16.067H240.9c-4.34 0-8.539-1.47-11.983-4.111-9.083-6.965-18.695-8.44-30.378-9.134V183.167c27.475-31.392 62.293-34.342 59.856-81.252-.422-8.117 6.047-14.933 14.175-14.933 6.217 0 11.745 4.035 13.56 9.982 7.374 24.171 9.218 48.159-.517 73.081h58.757c8.874 0 16.067 7.193 16.067 16.067s-7.193 16.067-16.067 16.067h-19.988 14.547c8.874 0 16.067 7.193 16.067 16.067s-7.193 16.067-16.067 16.067h-14.547 9.206c8.874 0 16.067 7.193 16.067 16.067s-7.193 16.067-16.067 16.067z" fill="#f1b0a2"></path><path d="M292.056 141.529c-10.694 12.465-26.941 20.621-41.997 35.382-3.771 3.697-5.924 8.739-5.924 14.019v77.099c0 9.081 6.14 17.116 14.972 19.225 7.19 1.717 13.692 4.927 20.059 11.326h-38.268c-4.338 0-8.537-1.469-11.98-4.108-9.084-6.962-18.697-8.439-30.378-9.134V183.17c27.494-31.415 62.342-34.346 59.847-81.355-.423-8.077 6.09-14.832 14.18-14.832 3.107 0 6.051 1.01 8.435 2.762s4.221 4.24 5.126 7.217c4.528 14.838 6.971 29.605 5.928 44.567z" fill="#eb9c8d"></path><g fill="#eb5569"><path d="m362.64 389.691-39.767 39.835a7.31 7.31 0 0 0-1.888 7.057l12.726 47.498-23.277 25.529c-3.893 4.27-10.968 2.548-12.463-3.033l-28.498-106.328 37.858 10.109a7.318 7.318 0 0 0 7.06-1.901l36.041-36.093a7.331 7.331 0 0 1 3.279-1.901l8.47-2.277 5.41 20.177zM242.486 400.374l-6.245 23.3-38.685 10.411a5.09 5.09 0 0 1-4.92-1.314c-2.771-2.768-7.499-1.5-8.514 2.284l-11.484 42.843-1.211-1.337-42.627 13.55c-5.507 1.75-10.772-3.278-9.276-8.86l30.274-112.96 8.783 2.339a7.281 7.281 0 0 1 3.269 1.89l36.104 36.041a7.32 7.32 0 0 0 7.06 1.88z" fill="#eb5569"></path></g></g></svg>