<svg viewBox="0 0 64 64" xmlns="http://www.w3.org/2000/svg"><g><g><path d="M25 27C35 17 31 9 36 9c8 0 1 16 1 16h15a2.8 2.8 0 0 1 3 3 2.8 2.8 0 0 1-3 3 3.7 3.7 0 0 1 2 3 2.8 2.8 0 0 1-3 3 3.7 3.7 0 0 1 2 3 2.8 2.8 0 0 1-3 3 3.7 3.7 0 0 1 2 3 2.8 2.8 0 0 1-3 3H33.172a6 6 0 0 1-3.841-1.391L25 44z" fill="#ffc19e"></path><path d="M13 27h12v22H13z" fill="#407ad6"></path><path d="m1 8 9-7 11 18zM56 1l7 9-14 7zM63 58l-5 5-5-8zM1 60l5 3 5-10z" fill="#e6294f"></path><path d="m37 55 3-1 3 3-3 3zM5 26l-1-3 3-5 3 5zM43 5l3-2 3 3-3 3z" fill="#fac437"></path><g fill="#32addb"><path d="M7 34H5v-2a1 1 0 0 0-2 0v2H1a1 1 0 0 0 0 2h2v2a1 1 0 0 0 2 0v-2h2a1 1 0 0 0 0-2zM58 24a1 1 0 0 0 2 0v-1h1a1 1 0 0 0 0-2h-1v-1a1 1 0 0 0-2 0v1h-1a1 1 0 0 0 0 2h1zM27 58h-1v-1a1 1 0 0 0-2 0v1h-1a1 1 0 0 0 0 2h1v1a1 1 0 0 0 2 0v-1h1a1 1 0 0 0 0-2zM63 42h-1v-1a1 1 0 0 0-2 0v1h-1a1 1 0 0 0 0 2h1v1a1 1 0 0 0 2 0v-1h1a1 1 0 0 0 0-2zM29 6h-2V4a1 1 0 0 0-2 0v2h-2a1 1 0 0 0 0 2h2v2a1 1 0 0 0 2 0V8h2a1 1 0 0 0 0-2z" fill="#32addb"></path></g></g></g></svg>