<svg viewBox="0 0 96 96" xmlns="http://www.w3.org/2000/svg"><g><lineargradient gradientunits="userSpaceOnUse" id="a" x1="39.303" x2="59.63" y1="75.785" y2="75.785"><stop offset="0" stop-color="#e44365"></stop><stop offset=".017" stop-color="#ed4f65"></stop><stop offset=".041" stop-color="#ff6665"></stop><stop offset=".972" stop-color="#ff6665"></stop></lineargradient><g fill="#ffd140"><path d="m16.65 20.258-.92 5.922c-.115.632-.517 1.207-1.092 1.495l-4.37 2.069c1.667-3.449 3.794-6.669 6.382-9.486zM85.704 29.744l-4.312-2.069c-.575-.288-1.035-.863-1.093-1.495l-.919-5.865a37.193 37.193 0 0 1 6.324 9.429z" fill="#ffd140"></path><path d="M89.959 48.029c0 23.171-18.802 41.915-41.972 41.915-23.114 0-41.916-18.744-41.916-41.915 0-3.795.517-7.417 1.495-10.925l6.899 3.508c.632.287 1.035.862 1.092 1.494l1.38 10.407c.23 1.668 2.301 2.358 3.45 1.15l7.417-7.417c.46-.46 1.15-.691 1.782-.576l10.349 1.898c1.61.287 2.932-1.437 2.128-2.932l-4.773-9.315a2.188 2.188 0 0 1 0-1.896l5.003-9.258c.804-1.437-.46-3.22-2.071-2.932l-10.407 1.668c-.632.115-1.322-.115-1.782-.576l-6.497-6.784c7.187-5.922 16.387-9.486 26.449-9.486s19.261 3.564 26.448 9.429l-6.496 6.842a2.01 2.01 0 0 1-1.783.576l-10.35-1.668c-1.667-.288-2.875 1.495-2.069 2.932l4.944 9.258c.345.574.345 1.322.058 1.896l-4.83 9.315c-.747 1.495.517 3.219 2.185 2.932l10.292-1.898c.69-.115 1.322.115 1.84.576l7.36 7.417a2.021 2.021 0 0 0 3.45-1.15l1.38-10.407c.115-.632.518-1.207 1.092-1.494l6.958-3.565a40.842 40.842 0 0 1 1.495 10.981z" fill="#ffd140"></path></g><path d="M42.064 44.637c.804 1.495-.518 3.219-2.128 2.932l-10.349-1.898c-.632-.115-1.322.115-1.782.576l-7.417 7.417c-1.15 1.208-3.22.517-3.45-1.15l-1.38-10.407c-.058-.632-.46-1.207-1.092-1.494l-6.899-3.508-2.473-1.265c-1.495-.747-1.437-2.875.058-3.622l5.117-2.473 4.37-2.069c.575-.288.977-.863 1.092-1.495l.92-5.922.69-4.485c.288-1.61 2.3-2.3 3.45-1.035l.747.804 6.497 6.784c.46.46 1.15.691 1.782.576l10.407-1.668c1.61-.288 2.875 1.495 2.071 2.932l-5.003 9.258a2.188 2.188 0 0 0 0 1.896zM90.879 35.839l-2.415 1.207-6.958 3.565c-.574.287-.977.862-1.092 1.494l-1.38 10.407a2.02 2.02 0 0 1-3.45 1.15l-7.36-7.417c-.517-.46-1.15-.691-1.84-.576l-10.292 1.898c-1.668.287-2.932-1.437-2.185-2.932l4.83-9.315c.288-.574.288-1.322-.058-1.896l-4.944-9.258c-.806-1.437.402-3.22 2.069-2.932l10.35 1.668a2.008 2.008 0 0 0 1.783-.576l6.496-6.842.748-.747c1.15-1.265 3.219-.576 3.449 1.035l.691 4.485.058.058.919 5.865c.058.632.518 1.207 1.093 1.495l4.312 2.069 5.175 2.473c1.496.748 1.496 2.875.001 3.622z" fill="#fc8332"></path><path d="M47.878 59.85c9.236 0 22.636-2.858 22.636-2.013 0 12.238-9.944 22.141-22.232 22.141S26.05 70.075 26.05 57.837c0-.846 12.792 2.013 21.828 2.013z" fill="#ad3d68"></path><path d="M49.397 71.616c-3.981-.265-7.539 1.846-9.829 4.756-.525.667-.24 1.654.569 1.91 2.06.65 5.747 1.695 8.149 1.695 4.153 0 8.027-1.115 11.344-3.094 0 0-1.449-4.682-10.233-5.267z" fill="url(#a)"></path></g></svg>