<svg viewBox="0 0 512 512" xmlns="http://www.w3.org/2000/svg"><g><path d="M368 24h-64a64 64 0 0 0-64 64v64h192V88a64 64 0 0 0-64-64z" fill="#414649"></path><path d="M296 344H184v-16a64 64 0 0 1 64-64h48v80zM376 264h48a64 64 0 0 1 64 64v16H376v-80z" fill="#e9eef2"></path><g fill="#e0b999"><path d="M272 120a32 32 0 0 0-32 32 32 32 0 0 0 32 32h24v-64zM296 216h80v48a16 16 0 0 1-16 16h-48a16 16 0 0 1-16-16v-48zM400 120h-24v64h24a32 32 0 0 0 32-32 32 32 0 0 0-32-32z" fill="#e0b999"></path></g><path d="M272 88v80a64 64 0 0 0 64 64 64 64 0 0 0 64-64V88a32 32 0 0 1-32 32h-64a32 32 0 0 1-32-32z" fill="#f7cca9"></path><circle cx="304" cy="152" fill="#414649" r="8"></circle><circle cx="368" cy="152" fill="#414649" r="8"></circle><path d="M264 344h144v112H264z" fill="#8c5237"></path><path d="M264 264h32v80h-32zM376 264h32v80h-32z" fill="#d49073"></path><path d="M336 176a8 8 0 0 1-8-8v-16a8 8 0 0 1 16 0v16a8 8 0 0 1-8 8z" fill="#e0b999"></path><path d="M352 440h-24a8 8 0 0 1-8-8v-32a8 8 0 0 1 8-8h24a24 24 0 0 1 0 48zm-16-16h16a8 8 0 0 0 0-16h-16z" fill="#dadcde"></path><path d="M488 344v48a64 64 0 0 1-64 64h-32a16 16 0 0 1-16-16v-16a16 16 0 0 1 16-16h16a32 32 0 0 0 32-32v-32z" fill="#f7cca9"></path><path d="m48 328 8 32-8 32h80l-8-32 8-32z" fill="#8c5237"></path><path d="m56 392-16 32a32 32 0 0 0 32 32h32a32 32 0 0 0 32-32l-16-32z" fill="#e9eef2"></path><path d="M136 424a32 32 0 0 1-32 32H72a31.991 31.991 0 0 1-32-32z" fill="#8c5237"></path><path d="M136 296H40l16 32h64z" fill="#e9eef2"></path><path d="M120 368H56a8 8 0 0 1 0-16h64a8 8 0 0 1 0 16z" fill="#d49073"></path><path d="M24 456h464v32H24z" fill="#596063"></path><path d="M296 264h80v80h-80zM264 392h80v32a32 32 0 0 1-32 32h-16a32 32 0 0 1-32-32v-32z" fill="#e9eef2"></path><path d="M184 344v48a64 64 0 0 0 64 64h32a16 16 0 0 0 16-16v-16a16 16 0 0 0-16-16h-16a32 32 0 0 1-32-32v-32z" fill="#f7cca9"></path></g></svg>