<svg height="512" viewBox="0 0 64 64" width="512" xmlns="http://www.w3.org/2000/svg"><path d="m40.683 30.9-.683.6v-.5a1 1 0 0 0 -2 0v2.25l-2 1.75v6l7.317-6.4a2 2 0 0 0 .683-1.508v-.684a2 2 0 0 0 -3.317-1.508z" fill="#f0c8a0"/><path d="m29.131 41.01a4 4 0 0 1 -2.631.99h-2.5l-4 6-4-6-6.894 3.447a2 2 0 0 0 -1.106 1.789v12.764h20v-10.185a4 4 0 0 1 1.366-3.01l8.634-7.555v-6z" fill="#64c8f0"/><path d="m16 42v-4.343h8v4.343l-4 6z" fill="#d2aa82"/><path d="m30 28h-2v-6a2 2 0 0 0 -2-2h-12a2 2 0 0 0 -2 2v6h-2a2 2 0 0 0 -2 2v.764a2 2 0 0 0 1.106 1.789l2.894 1.447v.343a4 4 0 0 0 1.172 2.829l1.656 1.656a4 4 0 0 0 2.829 1.172h4.686a4 4 0 0 0 2.829-1.172l1.656-1.656a4 4 0 0 0 1.172-2.829v-.343l2.894-1.447a2 2 0 0 0 1.106-1.789v-.764a2 2 0 0 0 -2-2z" fill="#f0c8a0"/><path d="m15.172 37.172a4 4 0 0 1 -1.172-2.829v-.343l-2.894-1.447a2 2 0 0 1 -1.106-1.789v-.764a2 2 0 0 1 2-2h-2a2 2 0 0 0 -2 2v.764a2 2 0 0 0 1.106 1.789l2.894 1.447v.343a4 4 0 0 0 1.172 2.829l1.656 1.656a4 4 0 0 0 2.829 1.172h2a4 4 0 0 1 -2.829-1.172z" fill="#d2aa82"/><path d="m26 20h2a2 2 0 0 1 2 2v8a0 0 0 0 1 0 0 4 4 0 0 1 -4-4v-6a0 0 0 0 1 0 0z" fill="#dc9600"/><path d="m24 16h-8a6 6 0 0 0 -6 6v4a2 2 0 0 0 2 2h5.029a12 12 0 0 0 8.486-3.515l1.313-1.313a4 4 0 0 0 1.172-2.829v-.343a4 4 0 0 0 -4-4z" fill="#fab400"/><path d="m12 26v-4a6 6 0 0 1 6-6h-2a6 6 0 0 0 -6 6v4a2 2 0 0 0 2 2h2a2 2 0 0 1 -2-2z" fill="#dc9600"/><g fill="#be7800"><path d="m18 30.5h-4a.5.5 0 0 1 0-1h4a.5.5 0 0 1 0 1z"/><circle cx="17" cy="31" r="1"/><path d="m26 30.5h-4a.5.5 0 0 1 0-1h4a.5.5 0 0 1 0 1z"/><circle cx="23" cy="31" r="1"/></g><path d="m13.106 45.447 3.894-1.947-1-1.5-6.894 3.447a2 2 0 0 0 -1.106 1.789v12.764h4v-12.764a2 2 0 0 1 1.106-1.789z" fill="#46aad2"/><path d="m18 36h4a0 0 0 0 1 0 0 2 2 0 0 1 -2 2 2 2 0 0 1 -2-2 0 0 0 0 1 0 0z" fill="#be7800"/><path d="m18 34h4v2h-4z" fill="#f0f0f0"/><path d="m34 8v18l3.414-3.414a2 2 0 0 1 1.414-.586h13.172a4 4 0 0 0 4-4v-10a4 4 0 0 0 -4-4h-14a4 4 0 0 0 -4 4z" fill="#f0f0f0"/><path d="m36 8a4 4 0 0 1 4-4h-2a4 4 0 0 0 -4 4v18l2-2z" fill="#d2d2d2"/><rect fill="#fab400" height="14.043" rx="7.021" width="14.043" x="38" y="6"/><path d="m39.4 13.021a7.023 7.023 0 0 1 6.319-6.986c-.231-.022-.465-.035-.7-.035a7.022 7.022 0 0 0 0 14.043c.237 0 .471-.013.7-.036a7.021 7.021 0 0 1 -6.319-6.986z" fill="#dc9600"/><path d="m45.021 16.327a4.714 4.714 0 0 1 -2.107-.494l-.925-.463a.5.5 0 0 1 .448-.894l.924.462a3.73 3.73 0 0 0 3.321 0l.924-.462a.5.5 0 0 1 .448.894l-.925.463a4.715 4.715 0 0 1 -2.108.494z" fill="#be7800"/><rect fill="#be7800" height="1.404" rx=".702" width="1.404" x="42.213" y="10.213"/><rect fill="#be7800" height="1.404" rx=".702" width="1.404" x="46.426" y="10.213"/></svg>