<svg viewBox="0 0 64 64" xmlns="http://www.w3.org/2000/svg"><g><g><path d="M54 26V2H22v6.667L34 13l3 8 6 5-11-1-3.381-6.639L22 17.158V26a15.993 15.993 0 0 0 14 15.862V53a5 5 0 0 1-5 5 4 4 0 0 0-4 4h22a4 4 0 0 0-4-4 5 5 0 0 1-5-5V41.862A15.993 15.993 0 0 0 54 26z" fill="#c7e2fb"></path><path d="M22 2v6.667L34 13l3 8 6 5-11-1-3.381-6.639L22 17.158V26a15.882 15.882 0 0 0 2.159 8H38a11 11 0 0 0 11-11V2z" fill="#ddeefd"></path><g fill="#fff"><path d="M40.586 12h-9.355L34 13l.375 1h6.211l2.707 2.707A1 1 0 0 0 44 17h5v-2h-4.586l-2-2 3.293-3.293A1 1 0 0 0 46 9V2h-2v6.586zM30 29h2v2h-2zM45 20h2v2h-2z" fill="#ffffff"></path><path d="M34 7h2v2h-2z" fill="#ffffff"></path></g><path d="m16 9-2-5 4-2zM12 16l5 2 2-4z" fill="#c7e2fb"></path><path d="M16 22h2v2h-2zM10 10h2v2h-2z" fill="#ddeefd"></path></g></g></svg>