<svg viewBox="0 0 24 24" xmlns="http://www.w3.org/2000/svg"><g><path d="M19.25 19H2.75A2.753 2.753 0 0 1 0 16.25v-9.5A2.753 2.753 0 0 1 2.75 4h16.5A2.753 2.753 0 0 1 22 6.75V7h.241c.965 0 1.75.785 1.75 1.75v5.5c0 .965-.785 1.75-1.75 1.75H22v.25A2.753 2.753 0 0 1 19.25 19z" fill="#607d8b"></path><path d="M2.75 5.5c-.689 0-1.25.561-1.25 1.25v9.5c0 .689.561 1.25 1.25 1.25h16.5c.689 0 1.25-.561 1.25-1.25v-1a.75.75 0 0 1 .75-.75h.991a.25.25 0 0 0 .25-.25v-5.5a.25.25 0 0 0-.25-.25h-.991a.75.75 0 0 1-.75-.75v-1c0-.689-.561-1.25-1.25-1.25z" fill="#fafafa"></path><path d="M23.991 11.5h-1.5v2.75a.25.25 0 0 1-.25.25h-.991a.75.75 0 0 0-.75.75v1c0 .689-.561 1.25-1.25 1.25H2.75c-.689 0-1.25-.561-1.25-1.25V11.5H0v4.75A2.753 2.753 0 0 0 2.75 19h16.5A2.753 2.753 0 0 0 22 16.25V16h.241c.965 0 1.75-.785 1.75-1.75z" fill="#546d79"></path><path d="M22.491 11.5H19v3.75a.75.75 0 0 1-.75.75h-2.5a.75.75 0 0 1-.75-.75V11.5h-2v3.75a.75.75 0 0 1-.75.75h-2.5a.75.75 0 0 1-.75-.75V11.5H7v3.75a.75.75 0 0 1-.75.75h-2.5a.75.75 0 0 1-.75-.75V11.5H1.5v4.75c0 .689.561 1.25 1.25 1.25h16.5c.689 0 1.25-.561 1.25-1.25v-1a.75.75 0 0 1 .75-.75h.991a.25.25 0 0 0 .25-.25z" fill="#dadada"></path><g fill="#4caf50"><path d="M6.25 7h-2.5a.75.75 0 0 0-.75.75v7.5c0 .414.336.75.75.75h2.5a.75.75 0 0 0 .75-.75v-7.5A.75.75 0 0 0 6.25 7zM12.25 7h-2.5a.75.75 0 0 0-.75.75v7.5c0 .414.336.75.75.75h2.5a.75.75 0 0 0 .75-.75v-7.5a.75.75 0 0 0-.75-.75zM18.25 7h-2.5a.75.75 0 0 0-.75.75v7.5c0 .414.336.75.75.75h2.5a.75.75 0 0 0 .75-.75v-7.5a.75.75 0 0 0-.75-.75z" fill="#4caf50"></path></g><path d="M5 7H3.75a.75.75 0 0 0-.75.75v7.5c0 .414.336.75.75.75H5zM11 7H9.75a.75.75 0 0 0-.75.75v7.5c0 .414.336.75.75.75H11zM17 7h-1.25a.75.75 0 0 0-.75.75v7.5c0 .414.336.75.75.75H17z" fill="#429846"></path></g></svg>