<svg viewBox="0 0 60 60" xmlns="http://www.w3.org/2000/svg"><g><path d="M54.82 32.93a25.01 25.01 0 0 0-40.91-16.07 2.007 2.007 0 0 0-.11 2.94l2.06 2.06 3.54 3.54 2.24 2.24a1.988 1.988 0 0 0 2.55.22 10 10 0 0 1 13.1 14.98l5.7.66 5.29.61 5.16.6a25.263 25.263 0 0 0 1.38-11.78z" fill="#e64c3c"></path><path d="M45 36a14.884 14.884 0 0 1-2.01 7.5l-5.7-.66a10 10 0 0 0-13.1-14.98 1.988 1.988 0 0 1-2.55-.22L19.4 25.4A14.991 14.991 0 0 1 45 36z" fill="#3b97d3"></path><path d="M50 36a19.781 19.781 0 0 1-1.72 8.11l-5.29-.61A14.994 14.994 0 0 0 19.4 25.4l-3.54-3.54A20 20 0 0 1 50 36z" fill="#f0c419"></path><path d="M30 55v-6.268a6 6 0 0 0-6.688-5.96L5.771 44.8A2 2 0 0 0 4 46.783V50zM30 55v-6.268a6 6 0 0 1 6.688-5.96L54.229 44.8A2 2 0 0 1 56 46.783V50z" fill="#ecf0f1"></path><path d="M35 50a5 5 0 0 0-5 5 5 5 0 0 0-5-5H3a2 2 0 0 0-2 2v2a2 2 0 0 0 2 2h23a3 3 0 0 0 3 3h2a3 3 0 0 0 3-3h23a2 2 0 0 0 2-2v-2a2 2 0 0 0-2-2z" fill="#cb8252"></path><g fill="#f3d55b"><path d="M20.707 30.293a1 1 0 0 0-1.414 0l-.793.793-.793-.793a1 1 0 0 0-1.414 1.414l.793.793-.793.793a1 1 0 1 0 1.414 1.414l.793-.793.793.793a1 1 0 0 0 1.414-1.414l-.793-.793.793-.793a1 1 0 0 0 0-1.414zM7.293 21.707a1 1 0 0 0 1.414-1.414l-.793-.793.793-.793a1 1 0 0 0-1.414-1.414l-.793.793-.793-.793a1 1 0 0 0-1.414 1.414l.793.793-.793.793a1 1 0 1 0 1.414 1.414l.793-.793zM10.707 27.293a1 1 0 0 0-1.414 0l-.793.793-.793-.793a1 1 0 0 0-1.414 1.414l.793.793-.793.793a1 1 0 1 0 1.414 1.414l.793-.793.793.793a1 1 0 0 0 1.414-1.414l-.793-.793.793-.793a1 1 0 0 0 0-1.414zM57.914 18.5l.793-.793a1 1 0 0 0-1.414-1.414l-.793.793-.793-.793a1 1 0 0 0-1.414 1.414l.793.793-.793.793a1 1 0 1 0 1.414 1.414l.793-.793.793.793a1 1 0 0 0 1.414-1.414zM49.707 7.293a1 1 0 0 0-1.414 0l-.793.793-.793-.793a1 1 0 1 0-1.414 1.414l.793.793-.793.793a1 1 0 1 0 1.414 1.414l.793-.793.793.793a1 1 0 0 0 1.414-1.414l-.793-.793.793-.793a1 1 0 0 0 0-1.414z" fill="#f3d55b"></path></g><circle cx="15" cy="28" fill="#f29c1f" r="1"></circle><circle cx="55" cy="11" fill="#f29c1f" r="1"></circle><circle cx="8" cy="35" fill="#f29c1f" r="1"></circle><circle cx="3" cy="26" fill="#f29c1f" r="1"></circle></g></svg>