<svg viewBox="0 0 133 133" xmlns="http://www.w3.org/2000/svg"><g><path d="M59.347 12.993c.98.341 1.933.737 2.857 1.186.581.282 1.27.222 1.805-.142l6.67-4.55a1.82 1.82 0 0 1 2.313.216l6.072 6.073c.618.618.71 1.59.216 2.312l-4.55 6.67a1.807 1.807 0 0 0-.142 1.805c.449.925.845 1.879 1.186 2.859.215.618.752 1.07 1.396 1.191l7.919 1.497a1.82 1.82 0 0 1 1.482 1.788v8.588a1.82 1.82 0 0 1-1.482 1.789l-7.92 1.496a1.834 1.834 0 0 0-1.395 1.192c-.34.98-.737 1.933-1.185 2.856a1.807 1.807 0 0 0 .141 1.805l4.55 6.67a1.82 1.82 0 0 1-.216 2.313l-6.072 6.072a1.82 1.82 0 0 1-2.313.217l-6.67-4.55a1.807 1.807 0 0 0-1.805-.142c-.924.449-1.877.845-2.857 1.185a1.834 1.834 0 0 0-1.191 1.396l-1.497 7.92a1.82 1.82 0 0 1-1.789 1.481h-8.589a1.82 1.82 0 0 1-1.788-1.482l-1.497-7.919a1.834 1.834 0 0 0-1.191-1.396c-.98-.34-1.934-.736-2.857-1.185a1.807 1.807 0 0 0-1.805.142l-6.67 4.55a1.82 1.82 0 0 1-2.313-.217l-6.072-6.072a1.82 1.82 0 0 1-.217-2.313l4.55-6.67a1.807 1.807 0 0 0 .142-1.805 26.392 26.392 0 0 1-1.185-2.856 1.834 1.834 0 0 0-1.396-1.192l-7.919-1.496a1.82 1.82 0 0 1-1.482-1.789v-8.588a1.82 1.82 0 0 1 1.482-1.788l7.92-1.497a1.834 1.834 0 0 0 1.395-1.191c.34-.98.737-1.934 1.185-2.859a1.807 1.807 0 0 0-.141-1.804l-4.55-6.67a1.82 1.82 0 0 1 .216-2.313l6.072-6.073a1.82 1.82 0 0 1 2.313-.216l6.67 4.55a1.807 1.807 0 0 0 1.805.142 26.398 26.398 0 0 1 2.857-1.186 1.834 1.834 0 0 0 1.19-1.395l1.498-7.92a1.82 1.82 0 0 1 1.788-1.481h8.59a1.82 1.82 0 0 1 1.788 1.482l1.497 7.919c.121.643.573 1.18 1.191 1.395z" fill="#ffc863"></path><circle cx="50.576" cy="38.191" fill="#ffffff" r="15.19" transform="rotate(-80.8 50.568 38.198)"></circle><path d="m34.968 87.326.181.281a17.607 17.607 0 0 1 2.818 9.554v29.927c0 2.755 2.896 4.55 5.363 3.322l17.797-8.854a3.71 3.71 0 0 0 2.058-3.322V97.161c0-3.39.978-6.707 2.817-9.554l.181-.28z" fill="#d8524f"></path><path d="M35.062 87.472H66.09l25.784-39.917c2.843-4.433-.335-10.246-5.604-10.246H14.882c-5.269 0-8.448 5.813-5.604 10.246z" fill="#e4686a"></path><path d="M98.596 97.553a14.522 14.522 0 0 1 1.572-.65.994.994 0 0 0 .647-.757l.825-4.365c.09-.473.502-.815.984-.815h4.724c.481 0 .895.342.984.815l.825 4.365c.066.35.31.64.647.757.534.185 1.059.402 1.573.65.324.158.708.124 1.006-.079l3.663-2.498a1.001 1.001 0 0 1 1.272.12l3.34 3.34c.341.34.391.875.12 1.272l-2.498 3.663a1.009 1.009 0 0 0-.08 1.007c.249.513.466 1.038.65 1.572a.994.994 0 0 0 .758.647l4.365.825c.473.089.815.502.815.984v4.724c0 .481-.342.894-.815.984l-4.365.825a.994.994 0 0 0-.757.647 14.52 14.52 0 0 1-.65 1.572c-.158.324-.124.709.079 1.006l2.498 3.663c.271.398.221.932-.119 1.272l-3.341 3.342c-.34.34-.875.39-1.273.119l-3.663-2.498a1.009 1.009 0 0 0-1.006-.08 14.52 14.52 0 0 1-1.572.65.994.994 0 0 0-.647.757l-.825 4.365c-.09.473-.503.816-.984.816h-4.724c-.482 0-.895-.343-.984-.816l-.825-4.365a.994.994 0 0 0-.647-.757 14.519 14.519 0 0 1-1.572-.65 1.009 1.009 0 0 0-1.007.08l-3.662 2.498a1.001 1.001 0 0 1-1.273-.12l-3.34-3.34c-.34-.34-.39-.875-.12-1.272l2.499-3.663c.203-.298.236-.682.08-1.006a14.554 14.554 0 0 1-.652-1.574.994.994 0 0 0-.757-.646L86 114.114a1.001 1.001 0 0 1-.815-.984v-4.724c0-.482.342-.895.815-.984l4.365-.825a.994.994 0 0 0 .757-.647c.185-.534.402-1.059.65-1.573a1.009 1.009 0 0 0-.079-1.006l-2.498-3.663a1.001 1.001 0 0 1 .119-1.272l3.341-3.341c.34-.34.875-.39 1.273-.12l3.662 2.499c.298.203.682.236 1.007.08z" fill="#a9d075"></path><circle cx="104.986" cy="110.768" fill="#ffffff" r="8.357" transform="rotate(-35.8 104.901 110.729)"></circle><path d="M86.449 69.675c.33-.16.668-.299 1.011-.418a.64.64 0 0 0 .416-.487l.53-2.807a.644.644 0 0 1 .633-.524h3.038c.31 0 .576.22.633.524l.53 2.807a.64.64 0 0 0 .416.487c.344.12.682.259 1.012.419.209.1.456.08.647-.051l2.356-1.607a.644.644 0 0 1 .818.077l2.148 2.148a.644.644 0 0 1 .077.818l-1.607 2.356a.649.649 0 0 0-.05.647c.159.33.298.668.417 1.01a.64.64 0 0 0 .487.417l2.807.53a.644.644 0 0 1 .524.633v3.038c0 .31-.22.575-.524.633l-2.807.53a.64.64 0 0 0-.487.416c-.119.343-.258.681-.418 1.011-.1.209-.08.456.051.648l1.607 2.355c.174.256.142.6-.077.818l-2.149 2.149a.644.644 0 0 1-.818.077l-2.355-1.607a.649.649 0 0 0-.647-.051c-.33.16-.668.3-1.012.418a.64.64 0 0 0-.416.487l-.53 2.807a.644.644 0 0 1-.633.524H89.04a.644.644 0 0 1-.632-.524l-.53-2.807a.64.64 0 0 0-.417-.487 9.337 9.337 0 0 1-1.011-.418.649.649 0 0 0-.647.051l-2.356 1.607a.644.644 0 0 1-.818-.077l-2.148-2.148a.644.644 0 0 1-.077-.819l1.607-2.355a.649.649 0 0 0 .05-.647c-.159-.33-.298-.668-.418-1.012a.64.64 0 0 0-.486-.416l-2.807-.53a.644.644 0 0 1-.525-.633v-3.038c0-.31.22-.575.525-.633l2.807-.53a.64.64 0 0 0 .486-.416 9.34 9.34 0 0 1 .419-1.011.649.649 0 0 0-.052-.647l-1.606-2.356a.644.644 0 0 1 .076-.818l2.15-2.149a.644.644 0 0 1 .817-.076l2.356 1.606c.191.13.438.152.647.051z" fill="#606076"></path><circle cx="90.558" cy="78.173" fill="#ffffff" r="5.374" transform="rotate(-35.8 90.489 78.15)"></circle><path d="M57.953 97.946a11.48 11.48 0 0 1 1.243-.514.786.786 0 0 0 .511-.598l.652-3.45a.792.792 0 0 1 .778-.645h3.735c.38 0 .707.27.777.644l.652 3.45a.786.786 0 0 0 .512.6c.422.146.837.317 1.243.514.256.124.56.097.796-.063l2.895-1.975a.792.792 0 0 1 1.006.094l2.64 2.64a.792.792 0 0 1 .095 1.007l-1.975 2.895a.797.797 0 0 0-.063.795c.197.406.368.822.514 1.243.092.266.322.46.598.512l3.45.652c.375.07.645.397.645.778v3.734c0 .38-.27.707-.644.778l-3.45.652a.786.786 0 0 0-.599.511 11.48 11.48 0 0 1-.514 1.243.797.797 0 0 0 .063.796l1.975 2.895a.792.792 0 0 1-.095 1.006l-2.64 2.641a.792.792 0 0 1-1.006.094L68.85 118.9a.797.797 0 0 0-.795-.063c-.406.197-.821.368-1.243.515a.786.786 0 0 0-.512.598l-.652 3.45a.792.792 0 0 1-.777.645h-3.735a.792.792 0 0 1-.778-.645l-.652-3.45a.786.786 0 0 0-.511-.598 11.478 11.478 0 0 1-1.243-.515.797.797 0 0 0-.796.063l-2.895 1.975a.792.792 0 0 1-1.006-.094l-2.64-2.64a.792.792 0 0 1-.095-1.007l1.975-2.895a.797.797 0 0 0 .063-.795 11.504 11.504 0 0 1-.514-1.244.786.786 0 0 0-.599-.511l-3.45-.652a.792.792 0 0 1-.645-.778v-3.734c0-.38.27-.708.645-.778l3.45-.652a.786.786 0 0 0 .599-.512c.146-.421.317-.837.514-1.243a.797.797 0 0 0-.063-.795L50.52 99.65a.792.792 0 0 1 .094-1.006l2.641-2.641a.792.792 0 0 1 1.006-.095l2.895 1.975c.236.16.54.187.796.063z" fill="#6dbcf7"></path><circle cx="63.004" cy="108.392" fill="#ffffff" r="6.606" transform="rotate(-35.8 62.944 108.344)"></circle></g></svg>