<svg id="Layer_1" enable-background="new 0 0 512 512" height="512" viewBox="0 0 512 512" width="512" xmlns="http://www.w3.org/2000/svg"><g><g><path d="m434.3 71.2-107.8-25.6h-.6c-7.2 0-13.4 4.7-15.8 11.4-7.9 21.9-28.8 37.5-53.4 37.5-24.5 0-45.4-15.6-53.4-37.4-2.5-6.9-9.1-11.5-16.5-11.5l-107.9 25.6c-12.7 3-21.2 14.9-19.9 27.8l5 52.2c1.4 14.9 15.1 25.6 29.9 23.3l36-5.5c-27.5 81.5-23.1 173.8-7.6 272.4 2.2 14.3 14.5 24.8 28.9 24.8h24.2c13.4 0 25.2-9 28.3-22 7.1-29.7 28.1-51.3 52.8-51.3 24.8 0 45.8 21.6 52.8 51.3 3.1 13 15 22 28.3 22h24.2c14.4 0 26.7-10.6 28.9-24.8 15.5-98.6 19.9-190.9-7.6-272.4l36 5.5c14.8 2.3 28.5-8.4 29.9-23.3l5-52.2c1.5-12.9-7-24.7-19.7-27.8z" fill="#bbe0f4"/></g><g enable-background="new" opacity=".7"><path d="m373.8 80.5c-.5 0-1-.1-1.5-.2l-9.6-2.3c-3.4-.8-5.5-4.2-4.7-7.6s4.2-5.5 7.6-4.7l9.6 2.3c3.4.8 5.5 4.2 4.7 7.6-.7 3-3.2 4.9-6.1 4.9z" fill="#fff"/></g><g enable-background="new" opacity=".7"><path d="m397.3 86.1c-.5 0-1-.1-1.5-.2l-3.4-.8c-3.4-.8-5.5-4.2-4.7-7.6s4.2-5.5 7.6-4.7l3.4.8c3.4.8 5.5 4.2 4.7 7.6-.6 3-3.2 4.9-6.1 4.9z" fill="#fff"/></g><g><g><circle cx="195.4" cy="208.2" fill="#d7a283" r="24.4"/></g><g><circle cx="323.9" cy="208.2" fill="#d7a283" r="24.4"/></g></g><g><path d="m335.8 250.9c0-42-34.1-69.5-76.1-69.5s-76.1 27.5-76.1 69.5 34.1 72.8 76.1 72.8 76.1-30.8 76.1-72.8z" fill="#d7a283"/></g><g enable-background="new" opacity=".7"><path d="m278.5 206.8c-.5 0-1-.1-1.5-.2-1.9-.5-4-.9-5.9-1.2-3.4-.6-5.7-3.9-5.1-7.3s3.9-5.7 7.3-5.1c2 .4 4.4.8 6.7 1.4 3.4.8 5.4 4.3 4.6 7.7-.7 2.8-3.3 4.7-6.1 4.7z" fill="#fff"/></g><g><path d="m294.3 302.5c0-19.1-15.5-33-34.7-33s-34.7 13.9-34.7 33 15.5 28.1 34.7 28.1 34.7-8.9 34.7-28.1z" fill="#ffce56"/></g><g><path d="m266.3 290.2 6.7-5.9c6.9-6.1 2.6-17.5-6.6-17.5h-13.4c-9.2 0-13.6 11.4-6.6 17.5l6.7 5.9c3.7 3.3 9.4 3.3 13.2 0z" fill="#73796b"/></g><g><path d="m259.6 322.3c-6 0-12-.9-16.3-2.6-2.7-1.1-4-4.1-2.9-6.8s4.1-4 6.8-2.9c6.3 2.5 18.5 2.5 24.8 0 2.7-1.1 5.8.2 6.8 2.9 1.1 2.7-.2 5.8-2.9 6.8-4.3 1.7-10.3 2.6-16.3 2.6z" fill="#73796b"/></g><g><g><circle cx="286.6" cy="252.5" fill="#757575" r="8"/></g><g><circle cx="232.7" cy="252.5" fill="#757575" r="8"/></g></g><g><g><path d="m151.2 466.3h24.2c11 0 21-6.2 25.9-15.6h-76c5.1 9.4 14.8 15.6 25.9 15.6z" fill="#9cc6ff"/></g><g><path d="m311.8 450.7c4.9 9.5 14.9 15.6 25.9 15.6h24.3c11.1 0 20.9-6.3 25.8-15.6z" fill="#9cc6ff"/></g></g><g enable-background="new" opacity=".7"><path d="m217.1 125.5c-.9 0-1.9-.2-2.7-.6-2.7-1.3-5.6-2.9-9-5-3-1.8-3.9-5.7-2.1-8.7s5.7-3.9 8.7-2.1c3.1 1.9 5.6 3.3 8 4.4 3.1 1.5 4.5 5.3 2.9 8.4-1.2 2.3-3.5 3.6-5.8 3.6z" fill="#fff"/></g><g><path d="m325.1 59.8v3.5c-.2 1-.4 2-.6 3-11.4 27.1-38.2 45.1-67.8 45.1s-56.5-18-67.9-45.2c-.2-1-.4-2-.6-3v-3.4c0-8.5 11.9-10.9 15-3 0 .1.1.2.1.4 8 21.8 28.8 37.4 53.4 37.4s45.5-15.7 53.4-37.5c0-.1 0-.1.1-.2 2.9-8 14.9-5.6 14.9 2.9z" fill="#9cc6ff"/></g><g><path d="m77.8 71.6c-12 3.4-20 15-18.8 27.5l5 52.2c1.2 12.3 10.6 21.6 22.2 23.3z" fill="#9cc6ff"/></g><g><path d="m435.4 71.6c12 3.4 20 15 18.8 27.5l-5 52.2c-1.2 12.3-10.6 21.6-22.2 23.3z" fill="#9cc6ff"/></g><g opacity=".08"><g><path d="m110.1 312.2c.6 41.5 5.3 84.8 12.2 129.3 2.2 14.3 14.5 24.8 28.9 24.8h24.2c13.4 0 25.2-9 28.3-22 5-21.1 17-38 32.4-46.1-47.8-24.6-90.3-53.8-126-86z" fill="#757575"/></g><g><path d="m383.8 453.8c-27.6-7.1-54.3-15.6-79.8-25.4 2.3 4.9 4.1 10.3 5.4 15.9 3.1 13 15 22 28.3 22h24.3c9.6 0 18.3-4.7 23.6-12.1-.6-.1-1.2-.3-1.8-.4z" fill="#757575"/></g></g></g></svg>