<svg id="Icon" height="512" viewBox="0 0 64 64" width="512" xmlns="http://www.w3.org/2000/svg"><path d="m55.32 26.32c0 2.983-3.133 5.322-4.209 7.916-1.115 2.689-.595 6.548-2.622 8.574s-5.885 1.506-8.574 2.621c-2.594 1.076-4.933 4.209-7.916 4.209s-5.322-3.133-7.916-4.209c-2.689-1.115-6.548-.595-8.574-2.622s-1.506-5.885-2.621-8.574c-1.076-2.594-4.209-4.933-4.209-7.916s3.133-5.322 4.209-7.916c1.115-2.689.595-6.548 2.622-8.574s5.885-1.506 8.574-2.621c2.594-1.076 4.933-4.209 7.916-4.209s5.322 3.133 7.916 4.209c2.689 1.115 6.548.595 8.574 2.622s1.506 5.885 2.621 8.574c1.076 2.594 4.209 4.933 4.209 7.916z" fill="#ffcb29"/><circle cx="32" cy="26.32" fill="#faa629" r="15"/><path d="m24.084 45.431c-2.689-1.115-6.548-.595-8.574-2.622-1.312-1.312-1.557-3.392-1.869-5.425l-10.641 12.682 10.372.871 2.658 10.063 11.304-13.472c-1.083-.805-2.144-1.638-3.25-2.097z" fill="#3d82c4"/><path d="m50.359 37.385c-.312 2.033-.557 4.113-1.869 5.425-2.026 2.026-5.885 1.506-8.574 2.621-1.107.459-2.167 1.292-3.25 2.097l11.304 13.472 2.658-10.063 10.372-.871-10.641-12.682z" fill="#3d82c4"/><path d="m32 17.76 2.781 5.636 6.219.903-4.5 4.387 1.062 6.194-5.562-2.925-5.562 2.925 1.062-6.194-4.5-4.387 6.219-.903z" fill="#ffcb29"/></svg>