<svg viewBox="0 0 256 256" xmlns="http://www.w3.org/2000/svg"><g><path d="M128 8a120 120 0 0 1 120 120v20a100 100 0 0 1-100 100h-40A100 100 0 0 1 8 148v-20A120 120 0 0 1 128 8z" fill="#ffed4c"></path><path d="M248 128v20a100 100 0 0 1-100 100h-40a100.026 100.026 0 0 1-93.13-63.51A99.923 99.923 0 0 0 100 232h40a100 100 0 0 0 100-100v-20a119.53 119.53 0 0 0-8.92-45.46A119.346 119.346 0 0 1 248 128z" fill="#f5b13b"></path><g fill="#4f3816"><path d="m93.46 90.369-.026-.011Q88.011 88.1 82.5 86.023c-3.687-1.359-7.384-2.7-11.143-3.912s-7.539-2.383-11.382-3.423c-1.926-.51-3.853-1.02-5.813-1.461l-.808-.185a1.009 1.009 0 0 0-.878 1.8l.687.434c1.659 1.058 3.35 2.049 5.043 3.038 3.394 1.96 6.845 3.8 10.33 5.577s7.019 3.447 10.568 5.088c1.037.47 2.082.924 3.124 1.384-1.134.61-2.27 1.215-3.4 1.839q-5.321 2.928-10.514 6.073c-3.457 2.1-6.88 4.265-10.24 6.531-1.676 1.14-3.35 2.283-4.986 3.491l-.52.379a1.017 1.017 0 0 0 1.034 1.731l.626-.2c1.983-.625 3.927-1.316 5.87-2.009 3.877-1.4 7.692-2.906 11.472-4.469q5.656-2.368 11.2-4.927c3.7-1.7 7.347-3.482 10.975-5.3a4.029 4.029 0 0 0 2.272-3.331 3.911 3.911 0 0 0-2.557-3.802zM162.54 90.369l.026-.011q5.423-2.259 10.936-4.335c3.687-1.359 7.384-2.7 11.143-3.912s7.539-2.383 11.382-3.423c1.926-.51 3.853-1.02 5.813-1.461l.808-.185a1.009 1.009 0 0 1 .878 1.8l-.687.434c-1.659 1.058-3.35 2.049-5.043 3.038-3.394 1.96-6.845 3.8-10.33 5.577s-7.019 3.447-10.568 5.088c-1.037.47-2.082.924-3.124 1.384 1.134.61 2.27 1.215 3.4 1.839q5.321 2.928 10.514 6.073c3.457 2.1 6.88 4.265 10.24 6.531 1.676 1.14 3.35 2.283 4.986 3.491l.52.379a1.017 1.017 0 0 1-1.034 1.731l-.626-.2c-1.983-.625-3.927-1.316-5.87-2.009-3.877-1.4-7.692-2.906-11.472-4.469q-5.656-2.368-11.2-4.927c-3.7-1.7-7.347-3.482-10.975-5.3a4.029 4.029 0 0 1-2.272-3.331 3.911 3.911 0 0 1 2.555-3.802zM179.4 132.55l-3.38 4.25a86.591 86.591 0 0 1-16.03 15.79c-20.46 15.22-43.52 15.22-63.98 0a86.591 86.591 0 0 1-16.03-15.79l-3.38-4.25c-1.18-1.49-.49-4.8.95-4.54q9.225 1.68 18.45 2.75a276.2 276.2 0 0 0 64 0q9.225-1.065 18.45-2.75c1.44-.26 2.13 3.05.95 4.54z" fill="#4f3816"></path></g><path d="M160 130.76V152c0 .2 0 .39-.01.59a32 32 0 0 1-63.98 0c-.01-.2-.01-.39-.01-.59v-21.24a276.2 276.2 0 0 0 64 0z" fill="#f15143"></path></g></svg>