<svg viewBox="0 0 64 64" xmlns="http://www.w3.org/2000/svg"><g><circle cx="49.997" cy="20.003" fill="#c80a50" r="10"></circle><path d="m48.619 29.909-2.855-7.423a1.01 1.01 0 0 0-.527-.555 1.01 1.01 0 0 0-.766-.02l-3.877 1.491a10 10 0 0 0 8.025 6.507z" fill="#a00028"></path><circle cx="49.997" cy="27.003" fill="#a00028" r="1"></circle><path d="M49.997 15.003c-2.206 0-4 1.794-4 4a1 1 0 1 0 2 0c0-1.103.897-2 2-2s2 .897 2 2-.897 2-2 2a1 1 0 0 0-1 1v2a1 1 0 1 0 2 0v-1.127a4.006 4.006 0 0 0 3-3.873c0-2.207-1.794-4-4-4z" fill="#a00028"></path><circle cx="49.997" cy="26.003" fill="#fab400" r="1"></circle><path d="M49.997 24.003a1 1 0 0 1-1-1v-2a1 1 0 0 1 1-1c1.103 0 2-.897 2-2s-.897-2-2-2-2 .897-2 2a1 1 0 1 1-2 0c0-2.206 1.794-4 4-4s4 1.794 4 4a4.005 4.005 0 0 1-3 3.873v1.127a1 1 0 0 1-1 1z" fill="#fab400"></path><g fill="#00a0c8"><path d="M11 22H5a1 1 0 0 0-1 1v30a1 1 0 0 0 1 1h6a1 1 0 0 0 1-1V23a1 1 0 0 0-1-1zM23 22h-6a1 1 0 0 0-1 1v30a1 1 0 0 0 1 1h6a1 1 0 0 0 1-1V23a1 1 0 0 0-1-1zM35 22h-6a1 1 0 0 0-1 1v30a1 1 0 0 0 1 1h6a1 1 0 0 0 1-1V23a1 1 0 0 0-1-1z" fill="#00a0c8"></path></g><path d="m55.533 50.486-10.77-28c-.096-.247-.285-.446-.527-.555s-.518-.113-.766-.02l-5.601 2.154a1.01 1.01 0 0 0-.555.527 1.011 1.011 0 0 0-.02.766l10.771 28A1.01 1.01 0 0 0 49 54c.122 0 .243-.022.359-.066l5.6-2.154c.515-.199.772-.778.574-1.294z" fill="#0a5078"></path><path d="M4 37.5h8v1H4zM16 37.5h8v1h-8zM28 37.5h8v1h-8z" fill="#0082aa"></path></g></svg>