<svg viewBox="0 0 512 512" xmlns="http://www.w3.org/2000/svg"><g><path d="M401.385 326.56c-5.36-6.24-15.44-6.08-22.56-2-.16.08-.32.16-.48.32v-.08c-1.04-8.24-2.32-15.68-3.52-22.16-2-10.4-3.84-19.68-5.76-28 6.64-28.08 2.72-49.52-.32-60.8-6.16-22.32-17.92-38.56-19.92-41.28-4.96-6.72-9.92-11.92-14.48-16.32.88-.72 1.76-1.44 2.8-2 3.04-1.76 6.24-4.24 6.72-8 .4-2.64-.8-5.2-1.6-7.68-1.52-4.32-2-10.88-1.92-18.32 2.24.08 21.84.56 31.36-14.56 5.6-9.04 4.88-19.04 4.16-28.4-.4-5.2-1.68-19.92-11.76-34.16-2.4-3.44-13.12-20.8-31.2-22.56-16.48-1.68-24.08 5.68-36.32-1.2a24.28 24.28 0 0 1-4.96-3.84c-4.96-4.88-11.52-7.52-18.4-7.52h-2.64c-4.64 0-9.12 1.2-13.04 3.44h-.08c-3.92-2.24-8.4-3.44-13.12-3.44h-2.56c-6.96 0-13.52 2.64-18.4 7.52-1.36 1.28-2.8 2.48-5.12 3.84-12.08 6.88-19.76-.48-36.16 1.2-18.08 1.76-28.8 19.12-31.28 22.64-10.08 14.16-11.36 28.88-11.76 34.08-.72 9.44-1.44 19.36 4.16 28.4 9.52 15.12 29.2 14.72 31.44 14.64 0 7.44-.48 13.92-1.92 18.24-.88 2.48-2 5.04-1.68 7.68.56 3.76 3.76 6.24 6.8 8 1.04.64 1.92 1.28 2.8 2-4.56 4.32-9.52 9.6-14.56 16.32-2 2.64-13.76 18.96-19.84 41.28-3.04 11.28-7.04 32.72-.4 60.88-1.84 8.32-3.68 17.52-5.68 27.92-1.28 6.48-2.48 13.92-3.52 22.24-.16-.08-.4-.24-.56-.32-7.12-4.08-17.2-4.16-22.56 1.92-3.44 4-4.24 9.76-4 15.12.96 16.24 10.08 29.28 23.84 35.68.16 20.88 2 44.56 6.64 70.4-.08.48-.24.96-.32 1.44-2.48 10.24-4.56 19.6-7.04 29.92-2.96 4.32-5.52 8.88-7.84 13.52-2.56 5.28 1.44 11.44 7.28 11.44h106c5.28 0 9.12-5.12 7.68-10.24-3.84-13.52-8.08-25.44-12.24-35.68 0-10.4.8-20.96 2.72-31.44 2.4-12.8 6-22.08 9.52-31.12 2.8-7.12 6.56-16.08 11.68-25.92 5.2 9.92 8.96 18.72 11.68 25.92 3.52 9.04 7.2 18.32 9.52 31.12 1.92 10.48 2.8 21.04 2.72 31.44-4.16 10.24-8.4 22.16-12.24 35.68-1.44 5.12 2.4 10.24 7.68 10.24h106c5.84 0 9.84-6.16 7.28-11.44-2.32-4.64-4.88-9.2-7.84-13.52-2.48-10.32-4.56-19.68-6.96-29.92-.08-.48-.24-.96-.32-1.44 4.64-25.76 6.4-49.36 6.56-70.32v-.08c13.76-6.32 22.88-19.36 23.84-35.68.24-5.28-.48-11.04-4-15.04z" fill="#e96088"></path><path d="M401.385 326.56c3.52 4 4.24 9.76 4 15.04-.96 16.32-10.08 29.36-23.84 35.68-4 1.92-8.4 3.2-13.12 3.84-27.12 3.68-40.88 7.12-77.68 4.56l-24.8-31.52c9.52-15.12 20.48-29.2 32.64-41.84 4.72 6.88 9.36 12.96 13.76 18.24 3.92 4.64 9.28 7.44 15.12 7.76 9.6.64 16.4 1.2 22.08 1.76 6.64.64 13.44-1.44 18-6.4 3.12-3.36 6.72-6.4 10.8-8.8.16-.16.32-.24.48-.32 7.12-4.08 17.2-4.24 22.56 2z" fill="#e8cdbf"></path><path d="M390.105 492.56c2.56 5.28-1.44 11.44-7.28 11.44h-106c-5.28 0-9.12-5.12-7.68-10.24 3.84-13.52 8.08-25.44 12.24-35.68 9.84 3.52 27.52 8.32 49.6 5.76 19.84-2.24 34.88-9.44 43.68-14.56l.64-.16c2.4 10.24 4.48 19.6 6.96 29.92 2.96 4.32 5.52 8.88 7.84 13.52z" fill="#524e60"></path><path d="M381.545 377.28v.08c-.16 20.96-1.92 44.56-6.56 70.32.08.48.24.96.32 1.44l-.64.16c-8.8 5.12-23.84 12.32-43.68 14.56-22.08 2.56-39.76-2.24-49.6-5.76.08-10.4-.8-20.96-2.72-31.44-2.32-12.8-6-22.08-9.52-31.12-2.72-7.2-6.48-16-11.68-25.92-2.48-4.88-5.28-10-8.48-15.36l8.48-10.8 8.48 10.72 24.8 31.52c36.8 2.56 50.56-.88 77.68-4.56 4.72-.64 9.12-1.92 13.12-3.84zM378.345 324.8v.08c-4.08 2.4-7.68 5.44-10.8 8.8-4.56 4.96-11.36 7.04-18 6.4-5.68-.56-12.48-1.12-22.08-1.76-5.84-.32-11.2-3.12-15.12-7.76-4.4-5.28-9.04-11.36-13.76-18.24-4.8-7.04-9.68-14.88-14.32-23.6-12.88-24-19.92-46.4-24-63.28 7.6 1.2 21.12 1.76 34.8-5.92 12.48-6.96 18.8-17.28 21.12-21.92 10 7.68 19.6 13.84 28.96 24.48 13.04 14.72 18.88 30.56 23.92 52.56 1.92 8.32 3.76 17.6 5.76 28 1.2 6.48 2.48 13.92 3.52 22.16z" fill="#6a95ba"></path><path d="M375.865 77.28c.72 9.36 1.44 19.36-4.16 28.4-9.52 15.12-29.12 14.64-31.36 14.56.08-9.28.96-19.76 1.84-29.04.72-6.88-6.24-11.52-11.68-7.84-3.92 2.64-8 5.04-12.32 6.96-9.36 4.08-20 5.68-29.52 2.08l-11.84 14.72c-2-10.88-12.56-19.12-22.72-17.6-10.16 1.44-18.4 12.32-17.68 23.44.4 7.04 4.32 13.36 9.76 17.12-3.2 9.84-9.52 24.88-20.64 40.4-9.28 12.8-18.24 20.56-26.8 27.2-10 7.68-19.6 13.76-28.96 24.4-13.04 14.72-18.88 30.56-23.92 52.64-6.64-28.16-2.64-49.6.4-60.88 6.08-22.32 17.84-38.64 19.84-41.28 5.04-6.72 10-12 14.56-16.32 11.92-11.44 21.12-16.96 20.88-28.48-.08-5.68-1.6-7.6-5.04-25.36-.64-3.6-1.2-7.76-1.52-13.04-.16-.96-.16-2-.24-3.04-.32-7.28-.64-20.64 7.28-33.36 6.56-10.48 16.08-16.24 18.8-17.84 9.68-5.76 11.92-3.12 20.16-8.56 4.32-2.88 6.8-5.68 8.72-8.32 2.08-2.8 4.8-5.12 7.76-6.8h.08c3.92-2.24 8.4-3.44 13.04-3.44h2.64c6.88 0 13.44 2.64 18.4 7.52a24.28 24.28 0 0 0 4.96 3.84c12.24 6.88 19.84-.48 36.32 1.2 18.08 1.76 28.8 19.12 31.2 22.56 10.08 14.24 11.36 28.96 11.76 34.16zM368.745 213.84c3.04 11.28 6.96 32.72.32 60.8-5.04-22-10.88-37.84-23.92-52.56-9.36-10.64-18.96-16.8-28.96-24.48-3.28-2.48-6.64-5.2-10-8.4a20.98 20.98 0 0 0 6.32-2.8c11.04-7.28 12.08-22.08 21.84-30.16 4.56 4.4 9.52 9.6 14.48 16.32 2 2.72 13.76 18.96 19.92 41.28z" fill="#524e60"></path><path d="M275.145 185.52c-7.04 12-12.08 25.12-15.12 38.88-4.08 1.04-22 5.2-40.08-4.88-12.56-7.04-18.8-17.28-21.2-21.84 8.56-6.64 17.52-14.4 26.8-27.2 11.12-15.52 17.44-30.56 20.64-40.4-5.44-3.76-9.36-10.08-9.76-17.12-.72-11.12 7.52-22 17.68-23.44 10.16-1.52 20.72 6.72 22.72 17.6l11.84-14.72c9.52 3.6 20.16 2 29.52-2.08 4.32-1.92 8.4-4.32 12.32-6.96 5.44-3.68 12.4.96 11.68 7.84-.88 9.28-1.76 19.76-1.84 29.04-.08 7.44.4 14 1.92 18.32.8 2.48 2 5.04 1.6 7.68-.48 3.76-3.68 6.24-6.72 8-1.04.56-1.92 1.28-2.8 2-9.76 8.08-10.8 22.88-21.84 30.16a20.98 20.98 0 0 1-6.32 2.8c-5.2 1.44-10.48.88-15.44.4-5.84-.56-11.12-2.08-15.6-4.08z" fill="#e8cdbf"></path><path d="M306.185 189.2c3.36 3.2 6.72 5.92 10 8.4-2.32 4.64-8.64 14.96-21.12 21.92-13.68 7.68-27.2 7.12-34.8 5.92-.08-.4-.16-.72-.24-1.04 3.04-13.76 8.08-26.88 15.12-38.88 4.48 2 9.76 3.52 15.6 4.08 4.96.48 10.24 1.04 15.44-.4z" fill="#e5aaaa"></path><path d="M223.865 300.64c-7.12 11.84-14.48 21.76-21.28 29.84-3.84 4.72-9.28 7.52-15.12 7.92-9.6.48-16.4 1.12-22.08 1.6-6.64.72-13.44-1.36-17.92-6.24-3.2-3.44-6.8-6.4-10.8-8.88 1.04-8.32 2.24-15.76 3.52-22.24 2-10.4 3.84-19.6 5.68-27.92 5.04-22.08 10.88-37.92 23.92-52.64 9.36-10.64 18.96-16.72 28.96-24.4 2.4 4.56 8.64 14.8 21.2 21.84 18.08 10.08 36 5.92 40.08 4.88.08.32.16.64.24 1.04 4.08 16.88 11.12 39.28 24 63.28 4.64 8.72 9.52 16.56 14.32 23.6-12.16 12.64-23.12 26.72-32.64 41.84l-8.48-10.72z" fill="#e96088"></path><path d="m223.865 300.64 33.6 42.8-8.48 10.8-24.8 31.52c-36.8 2.48-50.48-.96-77.6-4.64-4.72-.64-9.2-1.92-13.2-3.84-13.76-6.4-22.88-19.44-23.84-35.68-.24-5.36.56-11.12 4-15.12 5.36-6.08 15.44-6 22.56-1.92.16.08.4.24.56.32 4 2.48 7.6 5.44 10.8 8.88 4.48 4.88 11.28 6.96 17.92 6.24 5.68-.48 12.48-1.12 22.08-1.6 5.84-.4 11.28-3.2 15.12-7.92 6.8-8.08 14.16-18 21.28-29.84z" fill="#e5aaaa"></path><path d="M248.985 354.24c3.2 5.36 6 10.48 8.48 15.36-5.12 9.84-8.88 18.8-11.68 25.92-3.52 9.04-7.12 18.32-9.52 31.12-1.92 10.48-2.72 21.04-2.72 31.44-9.76 3.52-27.52 8.32-49.6 5.76-19.76-2.24-34.88-9.44-43.68-14.56l-.56-.16c.08-.48.24-.96.32-1.44-4.64-25.84-6.48-49.52-6.64-70.4 4 1.92 8.48 3.2 13.2 3.84 27.12 3.68 40.8 7.12 77.6 4.64z" fill="#e96088"></path><path d="M257.465 11.44c-2.96 1.68-5.68 4-7.76 6.8-1.92 2.64-4.4 5.44-8.72 8.32-8.24 5.44-10.48 2.8-20.16 8.56-2.72 1.6-12.24 7.36-18.8 17.84-7.92 12.72-7.6 26.08-7.28 33.36.08 1.04.08 2.08.24 3.04-3.68-1.68-7.12-3.68-10.56-6-5.44-3.6-12.4.96-11.68 7.92.96 9.28 1.84 19.84 1.92 29.04-2.24.08-21.92.48-31.44-14.64-5.6-9.04-4.88-18.96-4.16-28.4.4-5.2 1.68-19.92 11.76-34.08 2.48-3.52 13.2-20.88 31.28-22.64 16.4-1.68 24.08 5.68 36.16-1.2 2.32-1.36 3.76-2.56 5.12-3.84 4.88-4.88 11.44-7.52 18.4-7.52h2.56c4.72 0 9.2 1.2 13.12 3.44z" fill="#524e60"></path><path d="M245.785 493.76c1.44 5.12-2.4 10.24-7.68 10.24h-106c-5.84 0-9.84-6.16-7.28-11.44 2.32-4.64 4.88-9.2 7.84-13.52 2.48-10.32 4.56-19.68 7.04-29.92l.56.16c8.8 5.12 23.92 12.32 43.68 14.56 22.08 2.56 39.84-2.24 49.6-5.76 4.16 10.24 8.4 22.16 12.24 35.68z" fill="#6a95ba"></path><path d="M201.545 127.76c.24 11.52-8.96 17.04-20.88 28.48-.88-.72-1.76-1.36-2.8-2-3.04-1.76-6.24-4.24-6.8-8-.32-2.64.8-5.2 1.68-7.68 1.44-4.32 1.92-10.8 1.92-18.24-.08-9.2-.96-19.76-1.92-29.04-.72-6.96 6.24-11.52 11.68-7.92 3.44 2.32 6.88 4.32 10.56 6 .32 5.28.88 9.44 1.52 13.04 3.44 17.76 4.96 19.68 5.04 25.36z" fill="#e5aaaa"></path><ellipse cx="315.515" cy="126.524" fill="#524e60" rx="12.149" ry="6.154" transform="rotate(-71.46 315.405 126.577)"></ellipse></g></svg>