<svg viewBox="0 0 512 512" xmlns="http://www.w3.org/2000/svg"><g><path d="M7.117 258.572c116.904 196.641 380.861 196.641 497.766 0 .94-1.58.94-3.564 0-5.144-116.905-196.641-380.861-196.641-497.766 0a5.044 5.044 0 0 0 0 5.144z" fill="#e6eaee"></path><path d="M504.886 258.568c-63.522 106.848-170.451 155.64-273.624 146.367 86.711-7.773 170.763-56.565 224.148-146.367a5 5 0 0 0 0-5.135c-53.384-89.802-137.437-138.594-224.148-146.367 103.173-9.273 210.102 39.519 273.624 146.367a5.046 5.046 0 0 1 0 5.135z" fill="#cdd3d9"></path><circle cx="256.002" cy="256.002" fill="#63cff1" r="147.061"></circle><path d="M403.062 256c0 81.224-65.839 147.062-147.062 147.062a147.83 147.83 0 0 1-24.134-1.974C301.61 389.58 354.803 329.008 354.803 256S301.61 122.42 231.865 110.912a147.83 147.83 0 0 1 24.134-1.974c81.225 0 147.063 65.838 147.063 147.062z" fill="#33bddd"></path><circle cx="253.042" cy="261.812" fill="#5c6d7d" r="49.47"></circle><path d="M302.524 261.818c0 27.326-22.151 49.477-49.477 49.477-4.329 0-8.528-.554-12.525-1.601 21.265-5.548 36.952-24.879 36.952-47.876s-15.687-42.328-36.952-47.876a49.376 49.376 0 0 1 12.525-1.601c27.326 0 49.477 22.151 49.477 49.477z" fill="#53616d"></path><circle cx="280.892" cy="228.242" fill="#edebed" r="27.532"></circle><path d="M308.424 228.241c0 15.208-12.327 27.535-27.535 27.535-2.409 0-4.746-.308-6.971-.891 11.834-3.087 20.565-13.846 20.565-26.644 0-12.798-8.73-23.557-20.565-26.644a27.467 27.467 0 0 1 6.971-.891c15.208 0 27.535 12.328 27.535 27.535z" fill="#edebed"></path><path d="M256 42.816a7.55 7.55 0 0 1-7.551-7.551V7.551a7.55 7.55 0 1 1 15.102 0v27.714A7.55 7.55 0 0 1 256 42.816zM256 512a7.55 7.55 0 0 1-7.551-7.551v-27.714a7.55 7.55 0 1 1 15.102 0v27.714A7.55 7.55 0 0 1 256 512zM145.64 72.392a7.55 7.55 0 0 1-6.547-3.777l-13.857-24.001a7.551 7.551 0 1 1 13.079-7.551l13.857 24.001a7.551 7.551 0 0 1-6.532 11.328zM380.231 478.716a7.55 7.55 0 0 1-6.547-3.777l-13.857-24.001a7.55 7.55 0 0 1 2.764-10.315 7.55 7.55 0 0 1 10.315 2.764l13.857 24.001a7.55 7.55 0 0 1-2.764 10.315 7.502 7.502 0 0 1-3.768 1.013zM64.832 153.186a7.516 7.516 0 0 1-3.769-1.013l-24.001-13.857a7.552 7.552 0 0 1 7.551-13.079l24.001 13.857a7.552 7.552 0 0 1-3.782 14.092zM471.157 387.777a7.516 7.516 0 0 1-3.769-1.013l-24.001-13.857a7.55 7.55 0 0 1-2.764-10.315 7.55 7.55 0 0 1 10.315-2.764l24.001 13.857a7.55 7.55 0 0 1-3.782 14.092zM40.843 387.777a7.55 7.55 0 0 1-3.783-14.092l24.001-13.857a7.55 7.55 0 0 1 10.315 2.764 7.55 7.55 0 0 1-2.764 10.315l-24.001 13.857a7.505 7.505 0 0 1-3.768 1.013zM447.169 153.186a7.55 7.55 0 0 1-3.783-14.092l24.001-13.857a7.551 7.551 0 1 1 7.551 13.079l-24.001 13.857a7.512 7.512 0 0 1-3.768 1.013zM131.769 478.716a7.552 7.552 0 0 1-6.533-11.328l13.857-24.001a7.552 7.552 0 0 1 13.079 7.551l-13.857 24.001a7.547 7.547 0 0 1-6.546 3.777zM366.361 72.392a7.551 7.551 0 0 1-6.533-11.328l13.857-24.001a7.551 7.551 0 1 1 13.079 7.551l-13.857 24.001a7.549 7.549 0 0 1-6.546 3.777z" fill="#ffd071"></path></g></svg>