<svg viewBox="0 0 60 60" xmlns="http://www.w3.org/2000/svg"><g><path d="M39.67 17.92a6.223 6.223 0 0 0-2.61-6.72L23.17 2.044a6.244 6.244 0 0 0-8.611 1.68l-9.47 13.9A6.254 6.254 0 0 0 6.8 26.358l13.89 9.158a6.232 6.232 0 0 0 8.54-1.6.55.55 0 0 0 .07-.09L39 22z" fill="#243266"></path><g fill="#3f54ea"><path d="m55.035 16.651-1.08 1.679a6 6 0 1 1-10.08-6.508l1.09-1.68a6 6 0 0 1 10.07 6.509z" fill="#3f54ea"></path><path d="m46.545 24.259-7.6 11.757 4.88 7.608a4.722 4.722 0 0 1-.01 5.119l-5.35 8.807a3 3 0 0 1-2.58 1.45 2.939 2.939 0 0 1-1.62-.48 3.01 3.01 0 0 1-.95-4.069l4.22-7.028a2.044 2.044 0 0 0-.03-2.25l-3.93-5.848-3.87 7.918a23.145 23.145 0 0 1-2 3.349l-5.29 7.338a3.187 3.187 0 1 1-4.75-4.249l6.46-8.708a8.358 8.358 0 0 0 1.14-2.1l2.2-5.909a8.854 8.854 0 0 1 1-1.929l7.92-11.627-2.02-.03a1.78 1.78 0 0 0-1.31.53l-5.6 5.313a2.586 2.586 0 0 1-3.26.37 2.883 2.883 0 0 1-.39-.3 2.6 2.6 0 0 1-.13-3.619l6.364-6.463a3.625 3.625 0 0 1 2.47-1.18c1.98-.12 6.29-.12 8.37-.1a4.846 4.846 0 0 1 2.61.79l2.17 1.4a2.99 2.99 0 0 1 .886 4.14z" fill="#3f54ea"></path></g></g></svg>