<svg viewBox="0 0 128 128" xmlns="http://www.w3.org/2000/svg"><g><path d="M110 102.223a13 13 0 0 0-9.908-11.269l-24.171-5.773-.958-11.273A36.492 36.492 0 0 1 70 76.972a13.191 13.191 0 0 1-11.992 0 36.372 36.372 0 0 1-4.963-3.063l-.957 11.272-24.182 5.773A13 13 0 0 0 18 102.223l-2.072 19.47h96.146z" fill="#ffe17d"></path><path d="M75.921 121.693V85.181a11.921 11.921 0 0 1-23.842 0v36.512z" fill="#e6646e"></path><path d="m43.899 87.135-4.658 22.471 12.838-4.502V85.181zM84.101 87.135l4.658 22.471-12.838-4.502V85.181z" fill="#ffd164"></path><path d="m39.241 44.792 4.05-4.085a12.21 12.21 0 0 0 3.438-7.026l.832-6.417A71.31 71.31 0 0 0 64 29.015a71.31 71.31 0 0 0 16.439-1.751l.832 6.417a12.2 12.2 0 0 0 3.438 7.026l4.05 4.085a8.157 8.157 0 0 1 3.748-.7V32.663c0-26.356-24.829-26.356-24.829-26.356H38.15c0 6.8 6.16 10.065 6.16 10.065a13.259 13.259 0 0 0-8.816 12.493v15.228a8.157 8.157 0 0 1 3.747.699z" fill="#cd916e"></path><path d="M39.241 44.792s-5.592-2.682-7.473 2.264c-1.452 3.82 1.087 11.13 9.107 9.594h46.25c8.019 1.536 10.559-5.774 9.107-9.594-1.881-4.946-7.473-2.264-7.473-2.264z" fill="#feb983"></path><path d="m39.241 44.792 4.05-4.085a12.21 12.21 0 0 0 3.438-7.026l.832-6.417A71.31 71.31 0 0 0 64 29.015a71.31 71.31 0 0 0 16.439-1.751l.832 6.417a12.2 12.2 0 0 0 3.438 7.026l4.05 4.085c0 19.472-11.435 28.436-18.763 32.18a13.191 13.191 0 0 1-11.992 0c-7.328-3.744-18.763-12.708-18.763-32.18z" fill="#fcd0a3"></path><path d="M74.96 73.908A36.492 36.492 0 0 1 70 76.972a13.191 13.191 0 0 1-11.992 0 36.372 36.372 0 0 1-4.963-3.063l-.957 11.272a11.921 11.921 0 0 0 23.842 0l-.958-11.273z" fill="#feb983"></path><g fill="#cd916e"><path d="M64 66.093a15.836 15.836 0 0 1-7.318-1.593 1.75 1.75 0 0 1 1.724-3.047A12.686 12.686 0 0 0 64 62.593a12.658 12.658 0 0 0 5.6-1.147 1.751 1.751 0 0 1 1.718 3.054A15.841 15.841 0 0 1 64 66.093zM58.215 43.954a1.752 1.752 0 0 1-1.153-.433 5.361 5.361 0 0 0-5.651 0 1.766 1.766 0 0 1-2.456-.183 1.735 1.735 0 0 1 .13-2.432 7.837 7.837 0 0 1 5.153-1.691 7.837 7.837 0 0 1 5.153 1.691 1.75 1.75 0 0 1-1.176 3.046zM56.653 48.207a2.415 2.415 0 1 1-2.415-2.415 2.414 2.414 0 0 1 2.415 2.415zM77.737 43.954a1.75 1.75 0 0 1-1.152-.433 5.359 5.359 0 0 0-5.65 0 1.769 1.769 0 0 1-2.456-.183 1.734 1.734 0 0 1 .13-2.432 8.7 8.7 0 0 1 10.305 0 1.75 1.75 0 0 1-1.177 3.046zM76.176 48.207a2.415 2.415 0 1 1-2.414-2.415 2.414 2.414 0 0 1 2.414 2.415z" fill="#cd916e"></path></g></g></svg>