<svg viewBox="0 0 511.946 511.946" xmlns="http://www.w3.org/2000/svg"><g><path d="M311.959.039 191.288 0C123.484-.034 68.322 55.129 68.322 122.932v31.144a104.503 104.503 0 0 0-22.424 64.727V415.09c0 8.284 6.716 15 15 15h195.076c8.284 0 15-6.716 15-15V100.606c7.178 6.9 16.821 10.82 26.829 10.82h28.407l1.998 7.39c5.59 20.675 24.451 35.115 45.867 35.115h33.55c2.757 0 5-2.243 5-5v-35.927C412.624 55.285 369.259 6.295 311.959.039z" fill="#fef79c"></path><path d="M457.674 511.946H54.272c-8.284 0-15-6.716-15-15v-22.053c0-79.362 64.336-143.698 143.699-143.698H396.06c42.314 0 76.615 34.302 76.615 76.615v89.136c-.001 8.284-6.717 15-15.001 15z" fill="#ceabfb"></path><path d="M196.417 401.974h59.556v-70.78H182.97c-14.735 0-28.95 2.222-42.334 6.342v8.658c.001 30.807 24.974 55.78 55.781 55.78z" fill="#fecdbf"></path><path d="M396.059 331.195H255.973v180.751h201.701c8.284 0 15-6.716 15-15v-89.137c0-42.245-34.369-76.614-76.615-76.614z" fill="#30b3b2"></path><path d="m255.982 84.383-13.295 14.5a38.797 38.797 0 0 1-28.524 12.544h-28.426l-1.998 7.39c-5.59 20.675-24.451 35.115-45.867 35.115h-8.637v59.409c0 69.884 56.854 126.739 126.738 126.739l30-125.05-24.544-124.707z" fill="#feded0"></path><path d="M203.553 213.339c-11.19.1-18.603-12.234-13.23-22.06 5.878-11.12 22.312-10.294 27.08 1.321 4.156 9.665-3.336 20.866-13.85 20.739z" fill="#293565"></path><path d="M367.808 223.19c-2.757 0-5-2.243-5-5v-59.331c0-1.335.52-2.591 1.464-3.535a5.033 5.033 0 0 1 3.536-1.465h34.665c19.114 0 34.665 15.551 34.665 34.665 0 19.115-15.551 34.666-34.665 34.666z" fill="#8a3000"></path><path d="M311.959.039h-55.986v84.353l.009-.009 13.295 14.499a38.796 38.796 0 0 0 28.525 12.545h28.407l1.998 7.39c5.59 20.675 24.451 35.115 45.867 35.115h33.55c2.757 0 5-2.243 5-5v-35.927c0-57.72-43.365-106.705-100.665-112.966z" fill="#293565"></path><path d="M374.075 153.931c-21.416 0-40.277-14.44-45.867-35.115l-1.998-7.39h-28.407a38.796 38.796 0 0 1-28.525-12.545l-13.295-14.499-.009.009v255.687c69.884 0 126.738-56.855 126.738-126.739V153.93h-8.637z" fill="#b35324"></path><path d="M308.553 213.339c-10.509.147-18.032-11.089-13.85-20.74 5.063-12.281 22.622-12.266 27.7 0 4.156 9.659-3.336 20.875-13.85 20.74z" fill="#0f133f"></path></g></svg>