<svg viewBox="0 0 512 512" xmlns="http://www.w3.org/2000/svg"><g><path d="M451 512H61V30h150v30h90V30h150z" fill="#e6f2ff"></path><path d="M451 30H301v30h-45v452h195z" fill="#ccddff"></path><path d="M355.302 151H271v-30h-30v30h-84.302L121 222.4v3.6c0 24.899 20.098 45 45 45s45-20.101 45-45v-3.6L190.302 181H241v120h-60v30h150v-30h-60V181h50.698L301 222.4v3.6c0 24.899 20.098 45 45 45s45-20.101 45-45v-3.6zM151.3 228.999 166 199.6l14.7 29.399zm180 0L346 199.6l14.7 29.399zM121 361h270v30H121zM121 421h270v30H121z" fill="#485866"></path><path d="M331 90H181V0h150z" fill="#3e6dcc"></path><path d="M256 0h75v90h-75z" fill="#364bb3"></path><g fill="#363d4d"><path d="M256 421h135v30H256zM256 361h135v30H256zM256 121v210h75v-30h-60V181h50.698L301 222.4v3.6c0 24.899 20.098 45 45 45s45-20.101 45-45v-3.6L355.302 151H271v-30zm90 78.6 14.7 29.399h-29.4z" fill="#363d4d"></path></g></g></svg>