<svg viewBox="0 0 64 64" xmlns="http://www.w3.org/2000/svg"><g><path d="M31.54 9.01c-4.83 0-9.45 1.66-13.03 4.681-.85.72-1.12 1.92-.66 2.939l1.73 3.84c.33.721.96 1.24 1.72 1.41.76.18 1.56-.01 2.16-.51 1.27-1.061 3.86-2.83 6.96-2.83.5 0 1.04.03 1.58.11V9.02c-.15-.01-.31-.01-.46-.01zM21.67 43.2l-4.28 4.149c-.48.471-.75 1.12-.75 1.79v3.351c0 1.38 1.11 2.5 2.5 2.5H32V32.51c-2.31 2.88-5.69 6.28-10.33 10.69z" fill="#3abfef"></path><path d="M44.86 45.46h-11.9c7.69-7.49 13.41-14.03 13.41-22.229 0-6.971-4.45-14-14.37-14.211v9.631c1.97.319 3.92 1.46 3.92 5.229-.03 2.69-1.25 5.311-3.92 8.63v22.48h12.86c1.39 0 2.5-1.12 2.5-2.5v-4.53c0-1.38-1.11-2.5-2.5-2.5z" fill="#0cb3e8"></path></g></svg>