<svg viewBox="0 0 400 400" xmlns="http://www.w3.org/2000/svg"><g><path d="M231.984 348.345c-.607 0-1.189-.021-1.744-.063-15.77-1.119-27.214-17.006-28.467-18.813-3.146-4.539-2.018-10.77 2.521-13.916 4.531-3.141 10.746-2.021 13.898 2.496 2.802 3.973 9.021 9.986 13.484 10.285.689.045 2.51.168 5.327-2.869 3.456-3.725 7.335-8.967 11.442-14.518 7.159-9.676 15.273-20.643 24.596-28.221 12.582-10.227 25.308-12.6 37.828-7.047 18.662 8.273 22.285 27.188 16.22 41.598-6.218 14.773-22.831 25.615-42.553 17.746-5.13-2.047-7.629-7.863-5.583-12.992 2.047-5.131 7.866-7.631 12.994-5.584 8.713 3.477 14.447-1.559 16.709-6.93.766-1.82 4.086-11.131-5.893-15.555-11.768-5.211-23.772 9.326-38.241 28.879-4.446 6.012-8.647 11.688-12.858 16.227-6.943 7.488-14.268 9.277-19.68 9.277z" fill="#8e9597"></path><path d="M154.263 243.556s-34.694 97.672-10.362 114.586c24.334 16.916 48.772-16.225 74.091-3.359 25.316 12.867 56.113 13.473 57.23-12.604 1.119-26.078-20.859-92.484-39.518-94.975s-81.441-3.648-81.441-3.648z" fill="#acb9b6"></path><path d="M134.242 60.45S43.23 29.794 33.172 42.727C23.112 55.659 41.315 166.79 63.35 170.622c22.034 3.83 77.598-75.205 70.892-110.172z" fill="#8e9597"></path><path d="M117.125 82.067C100.336 74.38 65.799 59.776 60.188 66.95c-5.852 7.486 1.195 59.547 12.395 83.008 15.784-3.189 40.275-40.385 44.542-67.891z" fill="#ffcfd3"></path><path d="M267.269 60.45s91.011-30.656 101.07-17.723c10.059 12.932-8.145 124.063-30.178 127.895-22.033 3.83-77.598-75.205-70.892-110.172z" fill="#8e9597"></path><path d="M284.385 82.067c16.789-7.688 51.327-22.291 56.938-15.117 5.853 7.486-1.195 59.547-12.395 83.008-15.786-3.189-40.277-40.385-44.543-67.891z" fill="#ffcfd3"></path><path d="M348.838 180.69c0 77.908-67.126 102.109-149.93 102.109-82.803 0-149.93-24.201-149.93-102.109 0-77.91 67.127-154.954 149.93-154.954 82.804 0 149.93 77.044 149.93 154.954z" fill="#c2c9c9"></path><ellipse cx="199.866" cy="225.321" fill="#ffcfd3" rx="9.101" ry="5.75"></ellipse><path d="M49.333 170.989c7.329 4.775 126.075 80.521 121.594-28.604-1.994-48.557-10.45-83.709-19.423-108C95.028 55.454 53.496 112.06 49.333 170.989zM348.838 170.989c-7.328 4.775-126.074 80.521-121.594-28.604 1.994-48.557 10.449-83.709 19.423-108 56.476 21.069 98.008 77.675 102.171 136.604z" fill="#8e9597"></path><ellipse cx="102.725" cy="234.036" fill="#ffcfd3" rx="21.768" ry="13.748"></ellipse><ellipse cx="294.488" cy="235.388" fill="#ffcfd3" rx="21.768" ry="13.748"></ellipse><circle cx="139.027" cy="184.958" fill="#231f20" r="41.776"></circle><g fill="#fff"><circle cx="143.748" cy="194.843" fill="#ffffff" r="19.255"></circle><circle cx="118.079" cy="180.06" fill="#ffffff" r="6.414"></circle><circle cx="149.16" cy="162.692" fill="#ffffff" r="8.584"></circle></g><circle cx="260.704" cy="184.958" fill="#231f20" r="41.776"></circle><g fill="#fff"><circle cx="255.983" cy="194.843" fill="#ffffff" r="19.255"></circle><circle cx="281.652" cy="180.06" fill="#ffffff" r="6.414"></circle><circle cx="250.57" cy="162.692" fill="#ffffff" r="8.584"></circle></g><g fill="#fff"><path d="M101.917 204.138s-13.146-3.127-14.314 4.359c-1.169 7.488 5.875 5.594 9.648 7.271 3.772 1.68-8.324 4.672-2.555 10.727s13.023-5.023 19.464.236 17.35 9.734 22.664 5.818c5.314-3.914 14.713-7.832 20.921-4.195s22.71 2.326 19.354-3.031c-3.356-5.359 8.95-2.27 5.314-11.227-3.636-8.955-8.391-12.031-22.655-5.6-14.264 6.434-18.74 9.801-26.291 5.6s-9.75-10.912-16.342-9.234-9.28 3.586-15.208-.724zM294.069 204.138s13.146-3.127 14.314 4.359c1.169 7.488-5.876 5.594-9.647 7.271-3.773 1.68 8.323 4.672 2.555 10.727s-13.023-5.023-19.465.236-17.35 9.734-22.663 5.818c-5.313-3.914-14.713-7.832-20.921-4.195-6.209 3.637-22.711 2.326-19.354-3.031 3.356-5.359-8.95-2.27-5.313-11.227 3.636-8.955 8.391-12.031 22.654-5.6 14.264 6.434 18.74 9.801 26.291 5.6s9.75-10.912 16.342-9.234 9.279 3.586 15.207-.724z" fill="#ffffff" opacity=".7"></path><ellipse cx="104.554" cy="131.941" fill="#ffffff" rx="18.599" ry="10.953" transform="rotate(-28.6 104.516 131.843)"></ellipse><ellipse cx="289.877" cy="131.941" fill="#ffffff" rx="18.599" ry="10.953" transform="rotate(-151.4 289.884 131.89)"></ellipse></g><path d="M195.232 259.427c4.678 13.129-3.947 28.197-19.266 33.658-15.318 5.459-31.53-.76-36.209-13.889-4.679-13.133 3.947-28.201 19.265-33.66 15.319-5.461 31.53.758 36.21 13.891zM202.584 259.427c-4.678 13.129 3.947 28.197 19.266 33.658 15.318 5.459 31.531-.76 36.21-13.889 4.679-13.133-3.946-28.201-19.265-33.66-15.319-5.461-31.531.758-36.211 13.891z" fill="#8e9597"></path></g></svg>