<svg viewBox="0 0 150 150" xmlns="http://www.w3.org/2000/svg"><g><path d="M74.906 41.688 59.659 31.113l.473 6.238a41.733 41.733 0 0 0-26.008 56.143l10.5-6.062a29.561 29.561 0 0 1 16.45-37.638l.381 5.021z" fill="#3e6b82"></path><path d="M113.464 85.006a41.258 41.258 0 0 0 .776-7.834A41.719 41.719 0 0 0 76.3 35.636V47.7a29.732 29.732 0 0 1 25.98 29.472 28.15 28.15 0 0 1-.4 4.613l-5.592-1.556 7.772 17.113L119.19 86.6z" fill="#029bc5"></path><path d="M96.46 94.8a29.687 29.687 0 0 1-42.963 5.23l3.772-2.13-17.595-6.606-3.1 18.294 6.009-3.394a41.689 41.689 0 0 0 64.305-5.375z" fill="#fe7058"></path></g></svg>