<svg viewBox="0 0 512 512" xmlns="http://www.w3.org/2000/svg"><g><path d="M466.581 512h-33.033V368.976h41.795V501.03z" fill="#e29a6c"></path><path d="m433.548 383.519 14.59-4.863c9.073-3.024 18.442 3.729 18.442 13.292V512c9.121 0 16.516-7.395 16.516-16.516V338.581h-49.548z" fill="#d48c64"></path><path d="m453.214 251.707-48.242-13.156-109.688-7.415c-.7.059-1.408.089-2.123.089H177.548v231.226L251.871 512H425.29l16.516-148.645 33.032-11.011 8.802-13.404v-47.397c.001-18.62-12.462-34.936-30.426-39.836z" fill="#7ad7ee"></path><path d="m460.928 247.701-48.242-13.156-4.348 15.935 48.242 13.157c10.75 2.931 18.258 12.758 18.258 23.899v64.807l5.223-1.741a16.517 16.517 0 0 0 11.293-15.669v-47.397c.001-18.619-12.462-34.936-30.426-39.835z" fill="#4bc3ef"></path><path d="M394.221 233.338v-16.29l-77.058-4.441c-2.571 10.035-11.281 17.619-21.879 18.529 7.27 28.587 33.092 49.638 63.942 49.638 24.463 0 45.769-13.321 57.173-33.087z" fill="#e29a6c"></path><path d="M400.516 218.611v-45.192h-82.581v33.032c0 2.123-.268 4.194-.773 6.156 12.603 6.619 26.839 10.36 42.063 10.36 3.377 0 6.706-.196 9.981-.57 7.275-.83 14.687 2.734 17.621 9.443 3.909 8.939 11.678 15.955 21.511 18.639l5.215 1.422c3.173-4.637 5.905-9.603 7.829-14.986l-8.696-2.371a16.514 16.514 0 0 1-12.17-15.933z" fill="#d48c64"></path><path d="m318.729 51.004-42.084 50.384c-4.916 2.861-8.258 8.127-8.258 14.225 0 9.122 7.395 16.516 16.516 16.516 0 41.047 33.275 74.323 74.323 74.323.321 0 .641-.002.961-.006 0 0 52.279-7.967 59.447-87.134l-10.945-68.308z" fill="#f4aa73"></path><path d="m441.806 101.388-28.146-51.84h-13.144v90.839c0 28.762-16.429 53.702-40.33 66.058 40.571-.553 73.362-33.614 73.362-74.316 9.121 0 16.516-7.395 16.516-16.516 0-6.098-3.342-11.365-8.258-14.225z" fill="#e29a6c"></path><path d="M359.226 173.419c-8.742 0-17.097-4.125-22.927-11.315-2.879-3.544-2.331-8.742 1.21-11.617 3.556-2.867 8.75-2.319 11.613 1.214 5.452 6.71 14.758 6.71 20.21 0 2.863-3.532 8.065-4.081 11.613-1.214 3.54 2.875 4.089 8.073 1.21 11.617-5.832 7.19-14.187 11.315-22.929 11.315z" fill="#ffffff"></path><path d="M326.194 132.129a8.256 8.256 0 0 1-8.258-8.258v-8.258a8.256 8.256 0 0 1 8.258-8.258 8.256 8.256 0 0 1 8.258 8.258v8.258a8.256 8.256 0 0 1-8.258 8.258zM392.258 132.129a8.256 8.256 0 0 1-8.258-8.258v-8.258c0-4.56 3.694-8.258 8.258-8.258s8.258 3.698 8.258 8.258v8.258a8.256 8.256 0 0 1-8.258 8.258z" fill="#4e3d4d"></path><path d="M367.484 0h-33.032c-31.926 0-57.806 25.881-57.806 57.807v43.581c2.429-1.405 5.249-2.291 8.258-2.291 0 0 25.723-1.055 49.287-13.151l28.805 3.27c12.035-1.472 25.716-6.831 37.521-20.576l12.566-46.813C411.205 10.004 398.456 0 367.484 0z" fill="#615260"></path><path d="M45.419 512h8.258l8.237-7.278V371.613H28.903v123.871c0 9.121 7.395 16.516 16.516 16.516z" fill="#ffd18d"></path><path d="M70.193 512H53.677V371.613H87z" fill="#fbbd80"></path><path d="M186.008 251.8v-5.796h-74.524v117.351h132.33v-45.206c0-22.122-14.665-41.564-35.936-47.642l-9.891-2.826a16.516 16.516 0 0 1-11.979-15.881z" fill="#ffd18d"></path><path d="M206.043 267.68a16.516 16.516 0 0 1-11.979-15.88v-37.09h-82.581v31.294c12.398 6.346 26.406 9.996 41.29 9.996 2.163 0 4.302-.087 6.419-.255 9.419-.745 18.022 4.025 22.665 12.254 4.17 7.39 11.122 13.124 19.642 15.562l9.886 2.822 3.455-16.188z" fill="#fbbd80"></path><path d="m220.17 275.643-13.031 9.522c-11.896 17.292-31.786 28.642-54.365 28.642-15.634 0-29.976-5.46-41.29-14.538l-63.659-20.12a41.291 41.291 0 0 0-27.179 38.805v50.014c0 7.109 4.549 13.42 11.293 15.668l21.739 7.246 8.78-5.182 7.736 10.687V512h165.161l8.894-9.667V318.148c0-17.716-9.406-33.714-24.079-42.505z" fill="#98db7c"></path><path d="m215.934 270.507-1.093-.312a65.686 65.686 0 0 1-7.702 14.971l4.264 1.222c14.097 4.032 23.952 17.093 23.952 31.762V512h16.516v-96.164l-3.224-3.475 3.224-3.258v-90.954c0-22.123-14.665-41.565-35.937-47.642z" fill="#77cc7d"></path><path d="m247.289 416.596 15.759-15.873-1.75-14.588-11.679-11.678a33.033 33.033 0 0 0-28.029-9.343l-4.088.583a41.292 41.292 0 0 1-35.036-11.678l-71.422-71.422a24.773 24.773 0 0 1-7.256-17.518l7.695-17.336v-16.517h-23.64c-17.264 0-33.594 9.991-39.706 26.136-5.921 15.64-1.872 32.518 9.254 43.642l150.214 150.214a33.032 33.032 0 0 0 37.026 6.714l14.238-6.472a16.513 16.513 0 0 0 4.869-3.361z" fill="#f4aa73"></path><path d="M208.846 75.161H93.082L70.194 134.42c-4.916 2.861-8.258 8.127-8.258 14.225 0 9.122 7.395 16.516 16.516 16.516 0 41.047 33.275 74.323 74.323 74.323.342 0 .684-.002 1.024-.007 0 0 55.048-4.51 55.048-74.316v-90z" fill="#ffe09c"></path><path d="m235.355 134.42-32.373-51.839h-8.917v90.839c0 28.762-16.365 53.701-40.266 66.058 40.571-.553 73.298-33.614 73.298-74.316 9.121 0 16.516-7.395 16.516-16.516 0-6.099-3.342-11.365-8.258-14.226z" fill="#ffd18d"></path><path d="M152.774 206.452c-8.742 0-17.097-4.125-22.927-11.315-2.879-3.544-2.331-8.742 1.21-11.617 3.556-2.867 8.75-2.319 11.613 1.214 5.452 6.71 14.758 6.71 20.21 0 2.863-3.532 8.065-4.081 11.613-1.214 3.54 2.875 4.089 8.073 1.21 11.617-5.832 7.19-14.187 11.315-22.929 11.315z" fill="#ffffff"></path><path d="M119.742 165.161a8.256 8.256 0 0 1-8.258-8.258v-8.258a8.256 8.256 0 0 1 8.258-8.258 8.256 8.256 0 0 1 8.258 8.258v8.258a8.256 8.256 0 0 1-8.258 8.258zM185.806 165.161a8.256 8.256 0 0 1-8.258-8.258v-8.258c0-4.56 3.694-8.258 8.258-8.258s8.258 3.698 8.258 8.258v8.258a8.255 8.255 0 0 1-8.258 8.258z" fill="#af6e4d"></path><path d="M161.032 33.032H128c-31.926 0-57.806 25.881-57.806 57.807v43.581c2.429-1.405 5.25-2.291 8.258-2.291h9.746a8.257 8.257 0 0 0 8.098-6.639l5.077-25.384c.958-4.792 5.781-7.625 10.472-6.257 11.248 3.281 25.452 5.248 40.93 5.248 15.477 0 29.682-1.967 40.929-5.248a8.08 8.08 0 0 1 .362-.097l6.967-4.739V47.312c-.001 0-11.734-14.28-40.001-14.28z" fill="#c6805d"></path><path d="M218.447 53.917c-1.877-11.822-12.032-20.885-24.382-20.885h-33.032c18.243 0 33.032 14.789 33.032 33.032v27.687c4.574-1.122 9.176 1.678 10.109 6.346l5.078 25.393a8.258 8.258 0 0 0 8.098 6.639h9.746c3.009 0 5.829.886 8.259 2.291V82.581c0-12.356-6.863-22.999-16.908-28.664z" fill="#af6e4d"></path><path d="M70.193 396.387v-33.032c0-4.561-3.697-8.258-8.258-8.258s-8.258 3.697-8.258 8.258v27.527z" fill="#77cc7d"></path><path d="M424.898 20.885C423.021 9.062 412.866 0 400.516 0h-33.032c18.243 0 33.032 14.789 33.032 33.032V68.64c.183-.213.375-.384.557-.601 3.184-3.794 9.356-2.183 10.32 2.675l4.31 21.744a8.258 8.258 0 0 0 8.098 6.639h9.746c3.009 0 5.829.886 8.259 2.291v-51.84c0-12.355-6.862-22.998-16.908-28.663zM362.995 89.215c3.571-6.419 6.135-12.801 7.97-18.499 1.722-5.347-4.754-9.396-8.752-5.451-6.911 6.818-16.374 14.642-28.023 20.68 4.736 1.914 15.821 4.844 28.805 3.27z" fill="#4e3d4d"></path><path d="m107.064 291.452 65.495 65.495a57.755 57.755 0 0 0 49.029 16.332l4.085-.585a16.515 16.515 0 0 1 14.02 4.67l23.357 23.357c6.447-6.45 6.447-16.905-.002-23.354l-11.679-11.678a33.033 33.033 0 0 0-28.027-9.343l-4.09.584a41.294 41.294 0 0 1-35.038-11.681l-65.475-65.475a24.775 24.775 0 0 1-7.256-17.518v-14.512h-2.011c-8.011 0-14.505 6.494-14.505 14.505a41.308 41.308 0 0 0 12.097 29.203zM222.191 394.917a8.254 8.254 0 0 0 0 11.677l41.548 41.505c6.169-6.16 6.652-16.576.039-23.271l-29.909-29.911a8.255 8.255 0 0 0-11.678 0z" fill="#e29a6c"></path><path d="M444.505 222.968h-7.058a33.033 33.033 0 0 0-29.545 18.26l-3.693 7.386c-5.491 10.981 2.495 23.902 14.772 23.902h27.184l.295-.001 23.671-25.645c5.491-10.981.543-23.902-25.626-23.902z" fill="#f4aa73"></path><path d="M425.29 512h16.516V322.065a8.258 8.258 0 0 0-8.258-8.258 8.258 8.258 0 0 0-8.258 8.258z" fill="#4bc3ef"></path><path d="M464.631 222.968h-20.126c12.278 0 20.263 12.921 14.772 23.902l-12.817 25.645a33.045 33.045 0 0 0 29.25-18.259l3.693-7.386c5.492-10.981-2.494-23.902-14.772-23.902z" fill="#e29a6c"></path></g></svg>