<svg viewBox="0 0 512.049 512.049" xmlns="http://www.w3.org/2000/svg"><g><path d="M434.461 194.501h-59.556c-8.284 0-15-6.716-15-15v-59.555c0-8.284 6.716-15 15-15h59.556c8.284 0 15 6.716 15 15v59.555c0 8.284-6.716 15-15 15z" fill="#fd3897"></path><path d="M344.461 89.556h-59.556c-8.284 0-15-6.716-15-15V15c0-8.284 6.716-15 15-15h59.556c8.284 0 15 6.716 15 15v59.556c0 8.284-6.716 15-15 15z" fill="#ceabfb"></path><path d="M95.562 89.558H36.007c-8.284 0-15-6.716-15-15V15.002c0-8.284 6.716-15 15-15h59.555c8.284 0 15 6.716 15 15v59.556c0 8.284-6.716 15-15 15z" fill="#fd6d9d"></path><path d="M226.461 194.501h-78.776c-8.284 0-15-6.716-15-15v-78.775c0-8.284 6.716-15 15-15h78.776c8.284 0 15 6.716 15 15v78.775c0 8.284-6.716 15-15 15z" fill="#fff6a4"></path><path d="M187.076 47.612c-10.4.224-18.084-11.21-13.85-20.74 4.921-12.248 22.771-12.236 27.7 0 4.216 9.539-3.439 20.954-13.85 20.74z" fill="#807f8d"></path><path d="M300.556 147.583c-11.033.264-18.67-12.447-13.23-22.061 5.672-11.067 22.526-10.246 27.08 1.331 4.249 9.432-3.514 21.037-13.85 20.73z" fill="#fd6d9d"></path><path d="M434.466 60.123c-11.096.199-18.651-12.361-13.23-22.061 5.336-10.477 21.115-10.461 26.449 0 5.418 9.696-2.127 22.253-13.219 22.061z" fill="#fee387"></path><path d="M78.038 178.501c-8.013 0-14.676 6.294-14.986 14.301a196.372 196.372 0 0 0-.147 7.569c0 46.047 16.026 91.017 45.126 126.626 18.232 22.312 27.704 49.618 26.67 76.887-.635 16.729-4.271 32.71-10.811 47.499-3.975 8.417 1.602 19.156 10.771 20.756l142.344 28.539 10-212.667-10-109.511H78.038z" fill="#99f0ff"></path><path d="M476.892 294.086c-14.596-18.122-18.895-42.096-15.113-64.755 1.748-12.045 2.377-24.255 1.908-36.515-.307-8.012-6.969-14.316-14.987-14.316H277.006v322.178l55.021 11.031c9.287 2.133 18.788-6.124 17.92-15.647-1.168-18.393 2.771-30.103 5.779-36.174h27.969c33.245 0 62.278-23.611 69.034-56.141l7.688-37.018 16.383-12.681c16.008-11.861 19.057-36.526 6.415-51.925z" fill="#73e5ff"></path></g></svg>