<svg viewBox="0 0 512 512" xmlns="http://www.w3.org/2000/svg"><g><path d="M437.02 74.983C388.666 26.63 324.379 0 256 0 187.618.002 123.331 26.631 74.979 74.982S0 187.622 0 256.003c0 68.38 26.628 132.666 74.979 181.018C123.33 485.372 187.617 512 255.997 512c68.381 0 132.669-26.628 181.021-74.979S512 324.383 512 256.003c0-68.379-26.629-132.667-74.98-181.02z" fill="#54e360"></path><path d="M256.001 0v512c68.38-.001 132.666-26.629 181.018-74.979C485.371 388.669 512 324.383 512 256.003c0-68.379-26.629-132.667-74.98-181.02C388.666 26.63 324.38 0 256.001 0z" fill="#00b44b"></path><path d="m368.468 208.87-65.333-.003v-65.331c0-25.989-21.145-47.133-47.135-47.133-12.589 0-24.425 4.902-33.327 13.806-8.902 8.902-13.804 20.738-13.802 33.324l-.001 65.337h-65.335c-12.59 0-24.427 4.902-33.328 13.804-8.903 8.903-13.806 20.74-13.805 33.327-.001 12.589 4.9 24.425 13.802 33.327s20.737 13.806 33.331 13.806h65.334l-.002 65.337c.001 25.987 21.142 47.129 47.13 47.129h.01c25.986 0 47.128-21.143 47.128-47.13v-65.336h65.332c25.989 0 47.133-21.145 47.133-47.134 0-25.987-21.141-47.13-47.132-47.13z" fill="#e7f0ef"></path><path d="m368.468 208.87-65.333-.003v-65.331c0-25.989-21.145-47.133-47.134-47.133V415.6h.006c25.986 0 47.128-21.143 47.128-47.13v-65.336h65.332c25.989 0 47.133-21.145 47.133-47.134 0-25.987-21.141-47.13-47.132-47.13z" fill="#c5e1e6"></path></g></svg>