<svg viewBox="0 0 512 512" xmlns="http://www.w3.org/2000/svg"><g><path d="m321.054 367.936 65.027-143.059c1.969-4.333-2.488-8.79-6.821-6.821l-143.059 65.027z" fill="#024c67"></path><circle cx="256" cy="356.137" fill="#017297" r="88"></circle><path d="M277.027 270.665c21.867 16.01 36.067 41.871 36.067 71.049 0 48.601-39.399 88-88 88a88.206 88.206 0 0 1-21.027-2.528c14.556 10.658 32.509 16.951 51.933 16.951 48.601 0 88-39.399 88-88 0-41.354-28.525-76.046-66.973-85.472z" fill="#025f80"></path><path d="M511.996 317.689c-.262 44.176-11.714 85.699-31.663 121.88-1.396 2.532-4.596 3.433-7.101 1.987l-32.664-18.859a5.137 5.137 0 0 1-1.945-6.913c15.906-29.088 25.064-62.393 25.371-97.81.005-.613.008-1.225.008-1.836l32-16 16 16-.006 1.551z" fill="#ca2c2c"></path><path d="M477.607 188.192 464 204.137l-27.993 8.073c-18.283-31.479-44.582-57.796-76.073-76.091L368 108.137l15.949-13.614c38.785 22.503 71.163 54.892 93.658 93.669z" fill="#fe7701"></path><path d="M512 316.137h-48c-.004-37.773-10.202-73.294-27.993-103.927l41.601-24.018c21.862 37.686 34.39 81.405 34.392 127.945z" fill="#e94444"></path><path d="m383.949 94.523-24.016 41.596c-30.481-17.708-65.826-27.9-103.472-27.982h-.462l-16-32 16-16c46.571 0 90.282 12.53 127.95 34.386z" fill="#fe9738"></path><path d="M.004 317.689c.262 44.176 11.714 85.699 31.663 121.88 1.396 2.532 4.596 3.433 7.101 1.987l32.664-18.859a5.137 5.137 0 0 0 1.945-6.913c-15.906-29.088-25.064-62.393-25.371-97.81a281.91 281.91 0 0 1-.006-1.837l-32-16-16 16c0 .517.001 1.034.004 1.552z" fill="#80d261"></path><path d="M34.393 188.192 48 204.137l27.993 8.073c18.283-31.479 44.582-57.796 76.073-76.091L144 108.137l-15.949-13.614c-38.785 22.503-71.163 54.892-93.658 93.669z" fill="#ffc344"></path><path d="m260.717 301.174-37.737 60.38c-.915 1.464.137 3.364 1.864 3.364h14.648a7.726 7.726 0 0 1 7.726 7.726v37.291c0 2.209 2.892 3.038 4.063 1.165l37.737-60.379c.915-1.464-.138-3.364-1.864-3.364h-14.648a7.726 7.726 0 0 1-7.726-7.726V302.34c0-2.21-2.892-3.039-4.063-1.166z" fill="#fe9738"></path><path d="M0 316.137h48c.004-37.773 10.202-73.294 27.993-103.927l-41.601-24.018C12.53 225.878.002 269.597 0 316.137z" fill="#02c7dd"></path><path d="m128.051 94.523 24.016 41.596c30.481-17.708 65.826-27.9 103.472-27.982h.462v-48c-46.571 0-90.282 12.53-127.95 34.386z" fill="#feb237"></path><path d="M144 420.411h-32a7.726 7.726 0 1 0 0 15.452h32a7.726 7.726 0 1 0 0-15.452z" fill="#80d261"></path><path d="M400 420.411h-8.274v-8.274a7.726 7.726 0 1 0-15.452 0v8.274H368a7.726 7.726 0 1 0 0 15.452h8.274v8.274a7.726 7.726 0 1 0 15.452 0v-8.274H400a7.726 7.726 0 1 0 0-15.452z" fill="#e94444"></path></g></svg>