<svg viewBox="0 0 512 512" xmlns="http://www.w3.org/2000/svg"><g><path d="M133.578 512c-13.476 0-24.4-10.924-24.4-24.4V292.571c0-13.476 10.924-24.4 24.4-24.4s24.4 10.924 24.4 24.4V487.6c0 13.476-10.924 24.4-24.4 24.4z" fill="#55696e"></path><path d="M74.237 512c-13.476 0-24.4-10.924-24.4-24.4V292.571c0-13.476 10.924-24.4 24.4-24.4s24.4 10.924 24.4 24.4V487.6c0 13.476-10.924 24.4-24.4 24.4z" fill="#748488"></path><circle cx="103.911" cy="42.141" fill="#ba6746" r="42.141"></circle><path d="M.384 195.43v99.642c0 11.23 9.103 20.333 20.333 20.333s20.333-9.103 20.333-20.333V195.43l-20.333-7.3z" fill="#ba6746"></path><path d="M165.667 98.481c0-.085.02-.157.024-.24a49.696 49.696 0 0 0-7.2-.528H49.332C22.475 97.713.518 119.19.384 145.692v49.737H41.05v-49.635c.02-3.881 3.967-7.415 8.282-7.415h.505V292.57h108.141l-.189-154.191h.702c2.956 0 5.735 1.691 7.176 3.984z" fill="#ffda52"></path><path d="M266.69 512c-13.476 0-24.4-10.924-24.4-24.4V292.571c0-13.476 10.924-24.4 24.4-24.4s24.4 10.924 24.4 24.4V487.6c0 13.476-10.924 24.4-24.4 24.4z" fill="#414b82"></path><path d="M207.349 512c-13.476 0-24.4-10.924-24.4-24.4V292.571c0-13.476 10.924-24.4 24.4-24.4s24.4 10.924 24.4 24.4V487.6c0 13.476-10.924 24.4-24.4 24.4z" fill="#5f6e9b"></path><circle cx="237.023" cy="42.141" fill="#ffb69e" r="42.141"></circle><path d="M299.805 195.43v99.642c0 11.23 9.103 20.333 20.333 20.333s20.333-9.103 20.333-20.333V195.43l-20.333-7.3z" fill="#ffb69e"></path><path d="M340.47 195.43v-49.839c-.132-26.399-22.054-47.877-48.868-47.877H182.559l.39 40.666v154.191H291.09l-.189-154.191h.702c4.274 0 8.183 3.534 8.202 7.313v49.737z" fill="#64afff"></path><path d="M281.457 205.798H201.75l-.86-10.745-20.864-5.666-19.873 5.666 2.614 32.668c.845 10.552 9.654 18.684 20.239 18.684h98.452c11.214 0 20.304-9.09 20.304-20.304s-9.091-20.303-20.305-20.303z" fill="#ba6746"></path><path d="m156.948 155.008 3.204 40.045h40.738l-3.464-43.284a58.962 58.962 0 0 0-2.802-13.832s-56.921.244-55.904.244c9.466 0 17.473 7.392 18.228 16.827z" fill="#ffda52"></path><path d="m153.996 118.434-18.207-14.143-28.485 8.787-67.586-44.03c-9.397-6.12-21.975-3.466-28.095 5.93-6.121 9.396-3.466 21.974 5.93 28.095l75.561 49.226a20.307 20.307 0 0 0 17.068 2.389l37.579-11.593z" fill="#ffb69e"></path><path d="M176.5 97.646a150.979 150.979 0 0 0-39.965 6.43l11.226 39.019a110.435 110.435 0 0 1 28.74-4.841l37.495 2.015-31.437-42.555z" fill="#64afff"></path><path d="M437.835 512c-13.476 0-24.4-10.924-24.4-24.4V292.571c0-13.476 10.924-24.4 24.4-24.4s24.4 10.924 24.4 24.4V487.6c0 13.476-10.924 24.4-24.4 24.4z" fill="#55696e"></path><path d="M378.494 512c-13.476 0-24.4-10.924-24.4-24.4V292.571c0-13.476 10.924-24.4 24.4-24.4s24.4 10.924 24.4 24.4V487.6c0 13.476-10.925 24.4-24.4 24.4z" fill="#748488"></path><circle cx="408.168" cy="42.141" fill="#80391b" r="42.141"></circle><path d="M470.949 195.43v99.642c0 11.23 9.103 20.333 20.333 20.333s20.333-9.103 20.333-20.333V195.43l-20.333-7.3z" fill="#80391b"></path><path d="M511.615 195.43v-49.839c-.132-26.399-22.054-47.877-48.868-47.877H353.704l.39 40.666v154.191h108.141l-.189-154.191h.702c4.274 0 8.183 3.534 8.202 7.313v49.737z" fill="#e64937"></path><path d="m325.141 118.434-18.207-14.143-28.485 8.787-67.587-44.031c-9.397-6.12-21.975-3.466-28.095 5.93-6.121 9.396-3.466 21.974 5.93 28.095l75.561 49.226a20.307 20.307 0 0 0 17.068 2.389l37.579-11.593z" fill="#80391b"></path><path d="M347.645 97.646a150.979 150.979 0 0 0-39.965 6.43l11.226 39.019a110.435 110.435 0 0 1 28.74-4.841l37.495 2.015-31.437-42.555z" fill="#e64937"></path></g></svg>