<svg viewBox="0 0 512 512" xmlns="http://www.w3.org/2000/svg"><g><path d="M431 0h-65l-15 19-15-19h-65l-15 20-15-20h-65l-15 19-15-19H81c-8.284 0-15 6.716-15 15v482c0 8.284 6.716 15 15 15h65l15-19 15 19h65l15-20 15 20h65l15-19 15 19h65c8.284 0 15-6.716 15-15V15c0-8.284-6.716-15-15-15z" fill="#7f6d67"></path><path d="M271 512h65l15-19 15 19h65c8.284 0 15-6.716 15-15V15c0-8.284-6.716-15-15-15h-65l-15 19-15-19h-65l-15 20v472z" fill="#504541"></path><path d="M476 0h-45v512h45c8.284 0 15-6.716 15-15V15c0-8.284-6.716-15-15-15z" fill="#00ee8a"></path><path d="M241 0h30v512h-30z" fill="#fff5f5"></path><path d="M256 0h15v512h-15z" fill="#e1ebf0"></path><path d="M36 0c-8.284 0-15 6.716-15 15v482c0 8.284 6.716 15 15 15h45V0z" fill="#ccfc5c"></path><path d="M351 403c-8.284 0-15-6.716-15-15v-48c0-8.284 6.716-15 15-15 8.284 0 15 6.716 15 15v48c0 8.284-6.716 15-15 15zM351 295c-8.284 0-15-6.716-15-15v-48c0-8.284 6.716-15 15-15 8.284 0 15 6.716 15 15v48c0 8.285-6.716 15-15 15zM366 512h-30v-64c0-8.284 6.716-15 15-15 8.284 0 15 6.716 15 15zM351 187c-8.284 0-15-6.716-15-15v-48c0-8.284 6.716-15 15-15 8.284 0 15 6.716 15 15v48c0 8.284-6.716 15-15 15zM351 79c-8.284 0-15-6.716-15-15V0h30v64c0 8.284-6.716 15-15 15z" fill="#e1ebf0"></path><g fill="#fff5f5"><path d="M161 403c-8.284 0-15-6.716-15-15v-48c0-8.284 6.716-15 15-15 8.284 0 15 6.716 15 15v48c0 8.284-6.716 15-15 15zM161 295c-8.284 0-15-6.716-15-15v-48c0-8.284 6.716-15 15-15 8.284 0 15 6.716 15 15v48c0 8.285-6.716 15-15 15zM176 512h-30v-64c0-8.284 6.716-15 15-15 8.284 0 15 6.716 15 15zM161 187c-8.284 0-15-6.716-15-15v-48c0-8.284 6.716-15 15-15 8.284 0 15 6.716 15 15v48c0 8.284-6.716 15-15 15zM161 79c-8.284 0-15-6.716-15-15V0h30v64c0 8.284-6.716 15-15 15z" fill="#fff5f5"></path></g></g></svg>