<svg viewBox="0 0 512 512" xmlns="http://www.w3.org/2000/svg"><g><path d="M428.66 474.455c20.491 0 34.592-20.803 26.757-39.737-7.09-17.133-17.734-29.622-4.74-58.744 22.961-51.459 10.602-78.75-9.714-111.79-34.441-56.012-9.261-84.62-22.653-133.142-48.223-174.717-323.296-174.728-371.523 0-13.393 48.522 11.788 77.129-22.653 133.142-20.316 33.04-32.675 60.331-9.714 111.79 12.994 29.122 2.35 41.612-4.74 58.744-7.835 18.934 6.266 39.737 26.757 39.737z" fill="#735351"></path><path d="M450.677 375.974c22.961-51.459 10.602-78.75-9.714-111.79-34.441-56.013-9.261-84.62-22.653-133.142C392.659 38.11 302.829-5.395 217.092.534c75.454 5.217 147.738 48.721 170.312 130.508 13.393 48.522-11.788 77.129 22.653 133.142 20.316 33.04 32.675 60.331 9.714 111.79-12.994 29.122-2.35 41.612 4.74 58.744 7.835 18.934-6.266 39.737-26.757 39.737h30.905c20.491 0 34.592-20.804 26.757-39.737-7.089-17.133-17.733-29.623-4.739-58.744z" fill="#664442"></path><ellipse cx="372.886" cy="271.048" fill="#fac8a2" rx="31.298" ry="31.444"></ellipse><ellipse cx="92.21" cy="271.048" fill="#fac8a2" rx="31.298" ry="31.444"></ellipse><path d="M88.081 512v-23.24c0-79.666 64.582-144.248 144.248-144.248h.439c79.666 0 144.248 64.582 144.248 144.248V512z" fill="#ff80b3"></path><path d="M232.767 344.512h-.439c-5.145 0-10.227.27-15.233.796C289.6 352.918 346.11 414.24 346.11 488.76V512h30.905v-23.24c0-79.666-64.582-144.248-144.248-144.248z" fill="#ff6ba7"></path><path d="M232.604 454.528h-.111c-20.21 0-36.594-16.384-36.594-36.594v-59.226h73.298v59.226c0 20.21-16.383 36.594-36.593 36.594z" fill="#ffd8ba"></path><path d="M157.892 100.439c-4.633 47.132-28.565 52.383-43.343 57.509-7.086 2.458-11.818 9.18-11.818 16.711v89.116c0 72.03 58.121 130.421 129.818 130.421 71.696 0 129.818-58.392 129.818-130.421v-82.906c0-10.037-8.296-17.981-18.283-17.687-15.63.459-41.584.577-61.692-19.332-25.633-25.379-40.459-16.343-67.21-16.954-33.445-.764-47.285-16.346-52.895-27.297-1.071-2.087-4.165-1.496-4.395.84z" fill="#ffd8ba"></path><g fill="#fff"><path d="M178.234 213.119c-20.086 0-36.368 16.358-36.368 36.537 0 9 3.245 17.234 8.615 23.602a126.383 126.383 0 0 1 55.505 0 36.48 36.48 0 0 0 8.616-23.602c0-20.179-16.283-36.537-36.368-36.537zM286.862 213.119c-20.086 0-36.368 16.358-36.368 36.537 0 9 3.245 17.234 8.615 23.602a126.383 126.383 0 0 1 55.505 0 36.48 36.48 0 0 0 8.616-23.602c0-20.179-16.282-36.537-36.368-36.537z" fill="#ffffff"></path></g><path d="M188.535 247.081c9.943 0 9.96-15.453 0-15.453-9.943 0-9.959 15.453 0 15.453zM297.164 247.081c9.943 0 9.96-15.453 0-15.453-9.943 0-9.96 15.453 0 15.453z" fill="#735351"></path><g fill="#735351"><path d="M155.673 196.818a7.71 7.71 0 0 1-6.077-2.945c-2.631-3.346-2.072-8.18 1.263-10.823.624-.495 15.51-12.12 34.848-12.581 4.248-.097 7.807 3.274 7.908 7.54s-3.274 7.807-7.54 7.908c-14.047.335-25.526 9.171-25.64 9.261a7.719 7.719 0 0 1-4.762 1.64zM309.433 196.832a7.697 7.697 0 0 1-4.776-1.657c-.261-.202-11.681-8.925-25.636-9.258a7.726 7.726 0 0 1-7.54-7.908c.101-4.266 3.632-7.663 7.908-7.54 19.338.461 34.223 12.086 34.848 12.581a7.726 7.726 0 0 1-4.804 13.782z" fill="#735351"></path></g><path d="M180.651 381.348c0 20.577 30.972 20.424 30.972 0v18.78c0 19.539 30.061 19.81 30.061 0v-73.965h-60.729z" fill="#99d6ff"></path><path d="M290.484 314.061c-1.486 31.18-36.371 34.345-57.937 34.345-21.586 0-56.45-3.165-57.937-34.345 0-7.471 6.056-13.527 13.527-13.527h88.818c7.473-.001 13.529 6.056 13.529 13.527z" fill="#ffffff"></path><circle cx="409.28" cy="104.763" fill="#f5f5f5" r="100.678"></circle><path d="M409.28 4.085c-5.255 0-10.415.403-15.453 1.179 48.267 7.435 85.225 49.151 85.225 99.499s-36.958 92.064-85.225 99.499a101.443 101.443 0 0 0 15.453 1.179c55.603 0 100.678-45.075 100.678-100.678S464.882 4.085 409.28 4.085z" fill="#e8e8e8"></path><g fill="#f0b07f"><path d="M458.565 89.076h-98.572c0-17.11 13.87-30.98 30.98-30.98h36.612c17.11.001 30.98 13.871 30.98 30.98zM359.994 120.45h98.572c0 17.11-13.87 30.98-30.98 30.98h-36.612c-17.11 0-30.98-13.871-30.98-30.98z" fill="#f0b07f"></path></g><path d="M460.848 120.45H357.711c-8.664 0-15.687-7.023-15.687-15.687s7.023-15.687 15.687-15.687h103.136c8.664 0 15.687 7.023 15.687 15.687s-7.023 15.687-15.686 15.687z" fill="#e86d6d"></path></g></svg>