<svg viewBox="0 0 64 64" xmlns="http://www.w3.org/2000/svg"><g><path d="M40.708 9.633A11.425 11.425 0 0 1 46 19.272c0 3.636-1.589 7.09-4.349 9.455A9.438 9.438 0 0 1 35.508 31c-2.318 0-4.614-.442-6.766-1.303a9.751 9.751 0 0 0-9.284 1.118l-.826.59A13.924 13.924 0 0 1 10.536 34 8.536 8.536 0 0 1 4.5 31.5l-.003-.003A8.524 8.524 0 0 1 2 25.469v-.109a14.905 14.905 0 0 1 7.133-12.719l3.841-2.347A29.264 29.264 0 0 1 28.234 6c4.419 0 8.746 1.26 12.474 3.633z" fill="#893b20"></path><path d="M40.708 9.633a23.184 23.184 0 0 0-3.651-1.876A23.19 23.19 0 0 0 31.234 7a29.266 29.266 0 0 0-15.259 4.293l-3.841 2.347A14.907 14.907 0 0 0 5 26.359v.109c0 2.261.898 4.43 2.497 6.028l.003.004a8.519 8.519 0 0 0 1.877 1.411c.383.053.768.089 1.159.089 2.904 0 5.735-.907 8.097-2.595l.826-.59a9.747 9.747 0 0 1 9.283-1.118A18.216 18.216 0 0 0 35.508 31a9.442 9.442 0 0 0 6.143-2.272A12.455 12.455 0 0 0 46 19.273c0-3.907-1.996-7.543-5.292-9.64z" fill="#a34b33"></path><path d="M30 35.5a16.76 16.76 0 0 0-4.062-.5 6.37 6.37 0 0 0-5.698 3.522l-1.226 2.451a9.599 9.599 0 0 0 4.034 12.745A35.818 35.818 0 0 0 40.031 58c3.263 0 6.477-.798 9.361-2.325l3.519-1.863A17.08 17.08 0 0 0 62 38.715a8.509 8.509 0 0 0-3.999-7.215 16.463 16.463 0 0 0-8.72-2.5 9.309 9.309 0 0 0-7.068 3.251A10.736 10.736 0 0 1 34.062 36c-1.37 0-2.734-.168-4.062-.5z" fill="#893b20"></path><path d="m52.392 52.675 3.519-1.863c.889-.47 1.717-1.02 2.495-1.625A17.073 17.073 0 0 0 62 38.715a8.509 8.509 0 0 0-3.999-7.215 16.463 16.463 0 0 0-8.72-2.5 9.307 9.307 0 0 0-7.068 3.251A10.736 10.736 0 0 1 34.062 36c-1.369 0-2.734-.168-4.062-.5a16.76 16.76 0 0 0-4.062-.5c-.975 0-1.91.232-2.757.639l-1.167 2.334a9.599 9.599 0 0 0 4.034 12.745A35.818 35.818 0 0 0 43.031 55c3.263 0 6.477-.798 9.361-2.325z" fill="#a34b33"></path><path d="M30 38c0 1.657 2.686 3 6 3s6-1.343 6-3c0-1.28-1.604-2.373-3.862-2.804l-.053.005a10.705 10.705 0 0 1-4.023.799c-.745 0-1.488-.054-2.225-.153l-.019.002C30.697 36.394 30 37.156 30 38z" fill="#ffd997"></path><path d="M26 28.414A3.414 3.414 0 0 0 22.586 25a6.722 6.722 0 0 0-3.004.709l-.975.488a2.905 2.905 0 0 0-.756 4.654l.644.644c.045-.031.093-.058.137-.09l.826-.59A9.752 9.752 0 0 1 25.123 29c.291 0 .582.016.871.042L26 29.04z" fill="#f9cb6e"></path></g></svg>