<svg viewBox="0 0 497 497" xmlns="http://www.w3.org/2000/svg"><g><path d="M136.916 0h-16.831a7.5 7.5 0 0 0-7.437 6.529L101.75 90l26.75 30 26.75-30-10.898-83.471A7.5 7.5 0 0 0 136.916 0z" fill="#ffba48"></path><path d="m173.5 90-30 90h60v-60c0-16.569-13.431-30-30-30z" fill="#ff5a35"></path><path d="m143.5 90-30 90h60V90z" fill="#ff7a3c"></path><path d="m113.5 90-30 90h60V90z" fill="#ff9a42"></path><path d="m83.5 90-30 90h60V90z" fill="#ff7a3c"></path><path d="M53.5 120v60h30V90c-16.569 0-30 13.431-30 30zM203.5 150h-30v347h30c16.569 0 30-13.431 30-30V180c0-16.569-13.431-30-30-30z" fill="#ff9a42"></path><path d="M203.5 467V180c0-16.569-13.431-30-30-30h-120c-16.569 0-30 13.431-30 30v287c0 16.569 13.431 30 30 30h120c16.569 0 30-13.431 30-30z" fill="#ffba48"></path><path d="M376.916 0h-16.831a7.5 7.5 0 0 0-7.437 6.529L341.75 90l26.75 30 26.75-30-10.898-83.471A7.5 7.5 0 0 0 376.916 0zM413.5 90l-30 90h60v-60c0-16.569-13.431-30-30-30z" fill="#ff3a2f"></path><path d="m383.5 90-30 90h60V90z" fill="#ff5a35"></path><path d="m353.5 90-30 90h60V90z" fill="#ff7a3c"></path><path d="m323.5 90-30 90h60V90z" fill="#ff5a35"></path><path d="M293.5 120v60h30V90c-16.569 0-30 13.431-30 30z" fill="#ff7a3c"></path><path d="M443.5 150h-30v347h30c16.569 0 30-13.431 30-30V180c0-16.569-13.431-30-30-30z" fill="#db2116"></path><path d="M443.5 467V180c0-16.569-13.431-30-30-30h-120c-16.569 0-30 13.431-30 30v287c0 16.569 13.431 30 30 30h120c16.569 0 30-13.431 30-30z" fill="#ff3a2f"></path></g></svg>