<svg viewBox="0 0 512 512" xmlns="http://www.w3.org/2000/svg"><g><g clip-rule="evenodd" fill-rule="evenodd"><path d="M386.625 157.139a7.966 7.966 0 0 1 13.813-7.937l13.785 23.877a7.966 7.966 0 0 1-13.813 7.937zm-215.983 78.402a8 8 0 0 1 0 16h-27.571a8 8 0 0 1 0-16zm-17.948-51.082a7.966 7.966 0 0 1 7.937 13.813l-23.877 13.785a7.966 7.966 0 0 1-7.937-13.813zm-41.132-35.288-13.785 23.877a7.981 7.981 0 0 0 13.812 8l13.785-23.877a7.981 7.981 0 0 0-13.812-8zm229.794 102.368a8 8 0 0 1 0-16h27.571a8 8 0 0 1 0 16zm10.012-53.268 23.877 13.785a7.966 7.966 0 0 0 7.937-13.813l-23.877-13.785a7.967 7.967 0 0 0-7.937 13.813z" fill="#ffe177"></path><path d="m412.013 286.41 7.718 2.068.431-1.608c-14.812-8.752-24.749-24.879-24.749-43.33 0-27.777 22.517-50.295 50.294-50.295 27.776 0 50.294 22.518 50.294 50.295 0 27.624-22.27 50.043-49.834 50.29l-.433 1.615 7.716 2.067c-24.272 90.583 18.823 46.103-.957 119.925l-99.611-26.691c19.779-73.821 34.86-13.756 59.131-104.336z" fill="#9facba"></path><path d="M451.949 193.629C476.78 196.704 496 217.876 496 243.54c0 27.624-22.27 50.043-49.834 50.29l-.433 1.615 7.716 2.067c-24.272 90.583 18.823 46.103-.957 119.925l-13.367-3.582c19.781-73.823-23.314-29.342.957-119.925l-7.716-2.068.433-1.615c27.564-.247 49.835-22.666 49.834-50.29 0-20.819-12.651-38.684-30.684-46.328z" fill="#8d9ca8"></path><path d="m466.49 291.807-62.917-16.859c-5.894-1.579-12.009 1.951-13.588 7.845-1.579 5.895 1.951 12.009 7.845 13.588l62.917 16.859c5.895 1.579 12.009-1.951 13.589-7.846 1.579-5.894-1.951-12.008-7.846-13.587z" fill="#8192a5"></path><path d="M389.763 283.815c-.941 5.563 2.513 11.078 8.067 12.566l62.917 16.859c5.895 1.579 12.009-1.951 13.589-7.845 1.488-5.554-1.561-11.303-6.849-13.27-.058.341-.131.682-.222 1.022-1.579 5.894-7.694 9.425-13.589 7.845l-62.917-16.859a10.6 10.6 0 0 1-.996-.318z" fill="#65788e"></path><path d="M460.622 407.075 351.02 377.707a4.012 4.012 0 0 0-4.899 2.828l-3.641 13.589a4.01 4.01 0 0 0 2.828 4.899L454.91 428.39a4.011 4.011 0 0 0 4.899-2.829l3.641-13.589a4.009 4.009 0 0 0-2.828-4.897z" fill="#8192a5"></path><path d="m460.622 407.075-3.85-1.031-2.527 9.431a4.012 4.012 0 0 1-4.899 2.829l-105.751-28.336-1.114 4.157a4.01 4.01 0 0 0 2.828 4.899l109.601 29.367a4.011 4.011 0 0 0 4.899-2.829l3.641-13.589a4.01 4.01 0 0 0-2.828-4.898z" fill="#65788e"></path><path d="m99.987 286.41-7.718 2.068-.431-1.608c14.812-8.752 24.749-24.879 24.749-43.33 0-27.777-22.517-50.295-50.294-50.295C38.517 193.244 16 215.762 16 243.54c0 27.624 22.27 50.043 49.834 50.29l.433 1.615-7.716 2.067c24.272 90.583-18.823 46.103.957 119.925l99.611-26.691c-19.78-73.821-34.861-13.756-59.132-104.336z" fill="#9facba"></path><path d="M60.051 193.629C35.22 196.704 16 217.876 16 243.54c0 27.624 22.27 50.043 49.834 50.29l.433 1.615-7.716 2.067c24.272 90.583-18.823 46.103.957 119.925l13.367-3.582c-19.781-73.823 23.314-29.342-.957-119.925l7.716-2.068-.433-1.615c-27.564-.247-49.834-22.666-49.834-50.29 0-20.819 12.651-38.684 30.684-46.328z" fill="#8d9ca8"></path><path d="m45.51 291.807 62.917-16.859c5.894-1.579 12.009 1.951 13.588 7.845 1.579 5.895-1.951 12.009-7.845 13.588L51.253 313.24c-5.895 1.579-12.009-1.951-13.588-7.846-1.58-5.894 1.95-12.008 7.845-13.587z" fill="#8192a5"></path><path d="M122.237 283.815c.941 5.563-2.513 11.078-8.067 12.566L51.253 313.24c-5.895 1.579-12.009-1.951-13.588-7.845-1.488-5.554 1.561-11.303 6.849-13.27.058.341.131.682.222 1.022 1.579 5.894 7.694 9.425 13.588 7.845l62.917-16.859c.34-.09.672-.197.996-.318z" fill="#65788e"></path><path d="m51.378 407.075 109.602-29.368a4.012 4.012 0 0 1 4.899 2.828l3.641 13.589a4.01 4.01 0 0 1-2.828 4.899L57.089 428.391a4.011 4.011 0 0 1-4.899-2.829l-3.641-13.589a4.01 4.01 0 0 1 2.829-4.898z" fill="#8192a5"></path><path d="m51.378 407.075 3.85-1.031 2.527 9.431a4.011 4.011 0 0 0 4.899 2.829l105.751-28.336 1.114 4.157a4.01 4.01 0 0 1-2.828 4.899L57.089 428.391a4.011 4.011 0 0 1-4.899-2.829l-3.641-13.589a4.01 4.01 0 0 1 2.829-4.898z" fill="#65788e"></path><path d="M226.397 189.578c-21.968-21.968-26.044-62.669-26.044-87.402 25.247 37.069 36.115 22.86 55.648-18.703 19.533 41.563 30.4 55.772 55.648 18.703 0 24.733-4.076 65.434-26.044 87.402H256z" fill="#ffc338"></path><path d="M226.397 189.578c-21.968-21.968-26.044-62.669-26.044-87.402 3.755 5.514 7.191 9.884 10.386 13.208 1.418 24.288 7.269 55.804 25.659 74.194zm3.652-67.143c11.314 4.91 19.913-6.404 30.952-28.585a511.505 511.505 0 0 1-5-10.377c-9.873 21.006-17.531 35.021-25.952 38.962zm61.904 0c5.668-2.459 12.016-8.983 19.696-20.259 0 4.028-.109 8.482-.385 13.208-7.429 7.725-13.549 9.749-19.311 7.051z" fill="#f5b829"></path><path d="M313.668 157.063c0 32.028-20.459 30.113-23.234 77.322h-68.866c-2.775-47.209-23.234-45.294-23.234-77.322z" fill="#ffe177"></path><path d="M313.668 157.063c0 32.028-20.459 30.113-23.234 77.322h-13.385c2.775-47.209 23.234-45.294 23.234-77.322z" fill="#ffd064"></path><path d="M307.562 337.686c-9.571-40.326-16.588-72.065-17.93-103.302h-67.266c-1.342 31.237-8.359 62.976-17.929 103.302v18.909l103.125 6.419z" fill="#ffe177"></path><path d="M307.562 337.686c-9.571-40.326-16.588-72.065-17.93-103.302h-13.385c1.342 31.237 8.359 62.976 17.93 103.302v24.496l13.385.833z" fill="#ffd064"></path><path d="M204.437 337.686h103.125v50.705H204.437z" fill="#ffd064"></path><path d="M294.177 337.686h13.385v50.705h-13.385z" fill="#ffc338"></path><path d="M217.181 222.747h77.639c3.455 0 6.281 2.826 6.281 6.281v9.627c0 3.455-2.826 6.281-6.281 6.281h-77.639c-3.455 0-6.281-2.826-6.281-6.281v-9.627c0-3.455 2.826-6.281 6.281-6.281z" fill="#9facba"></path><path d="M291.1 222.747h3.719c3.455 0 6.281 2.826 6.281 6.281v9.627c0 3.455-2.826 6.281-6.281 6.281H217.18c-3.455 0-6.281-2.826-6.281-6.281v-3.719h73.919c3.455 0 6.281-2.826 6.281-6.281v-5.908z" fill="#8d9ca8"></path><path d="M199.266 377.357h113.468c2.201 0 4 1.8 4 4v14.068c0 2.201-1.8 4-4 4H199.266c-2.201 0-4-1.8-4-4v-14.068c0-2.2 1.799-4 4-4z" fill="#9facba"></path><path d="M306.734 377.357h6c2.201 0 4 1.8 4 4v14.068c0 2.201-1.8 4-4 4H199.266c-2.201 0-4-1.8-4-4v-6h107.467c2.201 0 4-1.8 4-4v-8.068z" fill="#8d9ca8"></path></g></g></svg>