<svg viewBox="0 0 512 512" xmlns="http://www.w3.org/2000/svg"><g><path clip-rule="evenodd" d="M266.302 375.658h76.295v29.929h-76.295z" fill="#445ea0" fill-rule="evenodd"></path><path clip-rule="evenodd" d="M266.302 375.658h22.964v29.929h-22.964z" fill="#2e4c89" fill-rule="evenodd"></path><path clip-rule="evenodd" d="M116.277 61.242H492.62c10.666 0 19.38 8.714 19.38 19.38v275.686c0 10.637-8.714 19.35-19.38 19.35H116.277c-10.637 0-19.35-8.714-19.35-19.35V80.622c0-10.666 8.714-19.38 19.35-19.38z" fill="#445ea0" fill-rule="evenodd"></path><path clip-rule="evenodd" d="M124.408 88.753H484.49v259.424H124.408z" fill="#e9e9ff" fill-rule="evenodd"></path><path clip-rule="evenodd" d="M403.533 450.758v-22.585c0-12.415-10.171-22.585-22.585-22.585H227.95c-12.414 0-22.585 10.171-22.585 22.585v22.585z" fill="#293d7c" fill-rule="evenodd"></path><path d="M280.523 112.504h82.123a7.195 7.195 0 0 1 7.198 7.198v82.123c0 3.963-3.235 7.198-7.198 7.198h-82.123a7.195 7.195 0 0 1-7.198-7.198v-82.123a7.176 7.176 0 0 1 7.198-7.198z" fill="#43cb8e"></path><path d="M280.523 227.878h82.123c3.963 0 7.198 3.235 7.198 7.198v82.152c0 3.963-3.235 7.198-7.198 7.198h-82.123a7.195 7.195 0 0 1-7.198-7.198v-82.152a7.195 7.195 0 0 1 7.198-7.198z" fill="#ed524e"></path><path d="M385.639 144.501h79.179v14.397h-79.179zm0-31.998V126.9h79.179v-14.397zm0 161.769h79.179v-14.397h-79.179zm0-31.998h79.179v-14.397h-79.179z" fill="#cfcfff"></path><path d="M312.347 184.369a7.198 7.198 0 0 1-5.731-2.841l-14.994-19.718 11.46-8.715 9.692 12.747 28.077-31.646 10.769 9.554-33.89 38.198a7.196 7.196 0 0 1-5.383 2.421zM345.694 262.241l-10.174-10.184-13.935 13.921-13.935-13.921-10.175 10.184 13.925 13.911-13.925 13.911 10.175 10.184 13.935-13.921 13.935 13.921 10.174-10.184-13.924-13.911z" fill="#e9e9ff"></path><g clip-rule="evenodd" fill-rule="evenodd"><path d="M249.283 405.587H227.95c-12.414 0-22.585 10.171-22.585 22.585v22.585h21.361v-22.585c.001-12.414 10.142-22.585 22.557-22.585z" fill="#1a2b63"></path><path d="M285.39 201.825v-82.123a7.195 7.195 0 0 1 7.198-7.198h-12.065a7.176 7.176 0 0 0-7.198 7.198v82.123a7.195 7.195 0 0 0 7.198 7.198h12.065c-3.963 0-7.198-3.235-7.198-7.198z" fill="#00ba66"></path><path d="M280.523 227.878a7.195 7.195 0 0 0-7.198 7.198v82.152a7.195 7.195 0 0 0 7.198 7.198h12.065c-3.963 0-7.198-3.235-7.198-7.198v-82.152c0-3.963 3.235-7.198 7.198-7.198z" fill="#c0433f"></path><path d="M510.339 364.118c-3.031 6.79-9.85 11.54-17.718 11.54H116.277c-10.637 0-19.35-8.714-19.35-19.35V80.622c0-7.694 4.517-14.367 11.016-17.485a19.475 19.475 0 0 0-1.661 7.839v275.657c0 10.666 8.743 19.38 19.38 19.38h376.343a19.121 19.121 0 0 0 8.334-1.895z" fill="#2e4c89"></path><path d="M130.441 133.544a87.948 87.948 0 0 1 27.685 11.482l15.562-15.562a111.828 111.828 0 0 1 27.947 27.976l-15.533 15.533a89.195 89.195 0 0 1 11.482 27.714h21.973c1.166 6.411 1.778 12.997 1.778 19.758s-.612 13.347-1.778 19.758h-21.973a89.195 89.195 0 0 1-11.482 27.714l15.533 15.533a111.832 111.832 0 0 1-27.947 27.977l-15.562-15.562a87.948 87.948 0 0 1-27.685 11.482v22.002a113.275 113.275 0 0 1-19.788 1.748c-6.732 0-13.347-.612-19.758-1.748v-22.002a87.948 87.948 0 0 1-27.685-11.482l-15.562 15.562a111.815 111.815 0 0 1-27.947-27.977l15.533-15.533a89.195 89.195 0 0 1-11.482-27.714H1.778C.612 233.794 0 227.207 0 220.446s.612-13.347 1.778-19.758h21.973a89.195 89.195 0 0 1 11.482-27.714L19.7 157.441a111.811 111.811 0 0 1 27.947-27.976l15.562 15.562a87.948 87.948 0 0 1 27.685-11.482v-22.002a113.19 113.19 0 0 1 19.758-1.749c6.761 0 13.377.612 19.788 1.749v22.001z" fill="#0cb4fb"></path><path d="M110.653 159.306c33.776 0 61.17 27.365 61.17 61.14s-27.394 61.14-61.17 61.14c-33.747 0-61.14-27.365-61.14-61.14s27.393-61.14 61.14-61.14z" fill="#e9e9ff"></path></g><path d="m95.159 237.611-10.18 10.179-22.226-22.224a7.195 7.195 0 0 1 .004-10.184l22.23-22.192 10.171 10.188-17.131 17.102zm63.423-22.283-22.226-22.225-10.18 10.179 17.131 17.132-17.131 17.101 10.171 10.188 22.23-22.191a7.198 7.198 0 0 0 .005-10.184zm-45.911-30.215-17.913 66.946 13.907 3.721 17.913-66.946z" fill="#293d7c"></path><path clip-rule="evenodd" d="M110.653 159.306c1.574 0 3.118.058 4.634.146-31.619 2.39-56.507 28.763-56.507 60.995s24.887 58.605 56.507 60.995c-1.515.087-3.06.146-4.634.146-33.747 0-61.14-27.365-61.14-61.14s27.393-61.142 61.14-61.142z" fill="#cfcfff" fill-rule="evenodd"></path></g></svg>