<svg viewBox="0 0 511.999 511.999" xmlns="http://www.w3.org/2000/svg"><g><path d="M463.972 147.686a7.74 7.74 0 0 1-7.74-7.74v-20.123a7.74 7.74 0 0 1 15.48 0v20.123a7.74 7.74 0 0 1-7.74 7.74zM463.972 201.866a7.74 7.74 0 0 1-7.74-7.74v-20.124a7.74 7.74 0 0 1 15.48 0v20.123a7.741 7.741 0 0 1-7.74 7.741zM501.123 164.715h-20.124a7.74 7.74 0 0 1 0-15.48h20.124a7.74 7.74 0 0 1 0 15.48zM446.943 164.715H426.82a7.74 7.74 0 0 1 0-15.48h20.124a7.74 7.74 0 1 1-.001 15.48z" fill="#f9d366"></path><path d="M48.598 35.604a7.74 7.74 0 0 1-7.74-7.74V7.74a7.74 7.74 0 0 1 15.48 0v20.123a7.74 7.74 0 0 1-7.74 7.741zM48.598 89.783a7.74 7.74 0 0 1-7.74-7.74V61.92a7.74 7.74 0 0 1 15.48 0v20.123a7.74 7.74 0 0 1-7.74 7.74zM85.75 52.631H65.627a7.74 7.74 0 0 1 0-15.48H85.75a7.74 7.74 0 0 1 0 15.48zM31.571 52.631H11.447a7.74 7.74 0 0 1 0-15.48H31.57a7.74 7.74 0 0 1 .001 15.48z" fill="#dd8833"></path><path d="M360.748 268.611v201.298c0 23.25-60.358 42.09-134.814 42.09-21.383 0-41.608-1.557-59.566-4.325-44.586-6.857-75.248-21.191-75.248-37.765V286.202l75.248-.41 194.38-17.181z" fill="#4e4f75"></path><path d="M166.368 285.792v221.882c-44.586-6.857-75.248-21.191-75.248-37.765V255.195l75.248 30.597z" fill="#32314c"></path><path d="M360.748 284.727v28.23c-37.446 8.879-84.154 14.151-134.814 14.151s-97.368-5.273-134.814-14.151v-26.755l75.248-.41 194.38-1.065z" fill="#32314c"></path><ellipse cx="225.931" cy="228.759" fill="#4e4f75" rx="223.114" ry="69.662"></ellipse><path d="M225.931 247.426c-44.359 0-87.867-4.491-122.51-12.647l-.251-.059c-6.272-1.481-6.272-10.435 0-11.917l.251-.059c34.644-8.156 78.151-12.647 122.51-12.647s87.866 4.491 122.51 12.647l.251.059c6.272 1.481 6.272 10.435 0 11.917l-.251.059c-34.644 8.156-78.152 12.647-122.51 12.647z" fill="#32314c"></path><path d="M238.276 108.758h287.92v30.959h-287.92z" fill="#f777ce" transform="rotate(145.115 382.24 124.237)"></path><path d="M233.845 110.141h287.92v15.479h-287.92z" fill="#ed4596" transform="rotate(145.115 377.808 117.88)"></path><path d="m335.092 80.753 16.299-3.305c7.695-1.56 7.695-12.557 0-14.117l-16.299-3.305a40.787 40.787 0 0 1-31.87-31.87l-3.305-16.299c-1.56-7.695-12.557-7.695-14.117 0l-3.305 16.299a40.787 40.787 0 0 1-31.87 31.87l-16.299 3.305c-7.695 1.56-7.695 12.557 0 14.117l16.299 3.305a40.787 40.787 0 0 1 31.87 31.87l3.305 16.299c1.56 7.695 12.557 7.695 14.117 0l3.305-16.299a40.787 40.787 0 0 1 31.87-31.87z" fill="#dd8833"></path><path d="m197.312 133.871 19.736-4.001c9.318-1.89 9.318-15.206 0-17.094l-19.736-4.001a49.393 49.393 0 0 1-38.594-38.594l-4.001-19.736c-1.89-9.318-15.206-9.318-17.094 0l-4.001 19.736a49.393 49.393 0 0 1-38.594 38.594l-19.736 4.001c-9.318 1.89-9.318 15.206 0 17.094l19.736 4.001a49.393 49.393 0 0 1 38.594 38.594l4.001 19.736c1.89 9.318 15.206 9.318 17.094 0l4.001-19.736a49.397 49.397 0 0 1 38.594-38.594z" fill="#f9d366"></path></g></svg>