<svg viewBox="0 0 512 512" xmlns="http://www.w3.org/2000/svg"><g><path d="M442.46 447.045H337.003a7.642 7.642 0 0 1 0-15.284H442.46a7.642 7.642 0 0 1 0 15.284zM165.827 447.045h-102.4a7.642 7.642 0 0 1 0-15.284h102.4a7.642 7.642 0 0 1 0 15.284z" fill="#f9996e"></path><path d="M458.438 156.657c0-35.076-26.263-63.997-60.194-68.224-71.672 0-71.672 136.448 0 136.448 33.931-4.227 60.194-33.148 60.194-68.224z" fill="#fb8798"></path><path d="M366.714 156.657c0-28.626 12.565-53.772 31.53-68.224a69.445 69.445 0 0 0-8.582-.552c-37.985 0-68.776 30.791-68.776 68.776s30.791 68.776 68.776 68.776a69.42 69.42 0 0 0 8.582-.552c-18.965-14.452-31.53-39.598-31.53-68.224z" fill="#fb6276"></path><path d="M175.761 355.349c0-32.649-25.996-61.574-62.971-61.03-44.184 8.726-50.298 77.333-9.77 83.082 33.9 2.143 72.741-5.206 72.741-22.052z" fill="#5a6cd9"></path><path d="M112.791 294.319c-6.889.101-13.492 1.329-19.479 3.717-23.251 8.65-39.819 31.046-39.819 57.313 0 13.042 23.283 20.392 49.528 22.051-4.273-9.793-6.734-21.295-6.734-33.599 0-19.856 6.415-37.614 16.504-49.482z" fill="#415fca"></path><path d="M175.761 240.722c0-29.953-21.541-54.854-49.975-60.1-69.848.002-69.845 120.201.003 120.199 28.426-5.249 49.972-30.15 49.972-60.099z" fill="#ffdfcf"></path><path d="M125.786 180.622c-37.842-6.982-72.294 22.083-72.294 60.1s34.467 67.084 72.297 60.099c-41.366-26.443-41.422-93.725-.003-120.199z" fill="#ffcebf"></path><path d="m450.866 355.343-5.37-64.466c-1.284-15.396-14.153-27.235-29.599-27.235h-29.099c-25.85 0-30.326 13.769-31.179 24.347l-5.37 66.674c0 10.876 24.199 19.671 58.427 19.671 23.095-2.195 42.19-8.523 42.19-18.991z" fill="#d5d4ff"></path><path d="m366.169 354.663 5.37-66.674c.853-10.578 6.821-19.527 15.259-24.347h-23.231c-15.447 0-28.315 11.84-29.599 27.235l-5.37 64.466c0 16.023 44.728 22.351 80.079 18.991-23.238-2.241-42.508-8.795-42.508-19.671z" fill="#babbf2"></path><path d="M473.791 489.075V385.401h-29.209v103.674c0 7.434 4.882 17.015 18.765 17.015 6.195-3.158 10.444-9.581 10.444-17.015z" fill="#f38054"></path><path d="M452.904 489.075V385.401h-17.321v103.674c0 10.556 8.549 19.104 19.104 19.104 3.122 0 6.059-.763 8.661-2.089-6.196-3.158-10.444-9.581-10.444-17.015z" fill="#e56948"></path><path d="M343.881 489.075V385.401h-29.209v103.674c0 7.434 4.882 17.015 18.765 17.015 6.195-3.158 10.444-9.581 10.444-17.015z" fill="#f38054"></path><path d="M322.993 489.075V385.401h-17.321v103.674c0 10.556 8.549 19.104 19.104 19.104 3.122 0 6.059-.763 8.661-2.089-6.195-3.158-10.444-9.581-10.444-17.015z" fill="#e56948"></path><path d="M504.358 378.269c0-12.665-10.26-22.925-22.925-22.925H328.544c-17.948 0-24.74 12.788-24.74 22.925 0 10.148 5.095 22.925 24.739 22.925h152.89c12.675 0 22.925-10.276 22.925-22.925z" fill="#f9996e"></path><path d="M315.323 378.269c0-10.138 5.407-18.889 13.221-22.925H298.03c-12.675 0-22.925 10.276-22.925 22.925 0 12.665 10.26 22.925 22.925 22.925h30.513c-7.81-4.033-13.22-12.777-13.22-22.925zM198.687 489.075V385.401h-29.209v103.674c0 7.434 4.882 17.015 18.765 17.015 6.195-3.158 10.444-9.581 10.444-17.015z" fill="#f38054"></path><path d="M177.799 489.075V385.401h-17.321v103.674c0 10.556 8.549 19.104 19.104 19.104 3.122 0 6.059-.763 8.661-2.089-6.195-3.158-10.444-9.581-10.444-17.015z" fill="#e56948"></path><path d="M68.776 489.075V385.401H39.567v103.674c0 7.434 4.882 17.015 18.765 17.015 6.195-3.158 10.444-9.581 10.444-17.015z" fill="#f38054"></path><path d="M47.889 489.075V385.401H30.567v103.674c0 10.556 8.549 19.104 19.104 19.104 3.122 0 6.059-.763 8.661-2.089-6.195-3.158-10.443-9.581-10.443-17.015z" fill="#e56948"></path><path d="M229.254 378.269c0-12.665-10.26-22.925-22.925-22.925H53.44c-17.948 0-24.74 12.788-24.74 22.925 0 10.148 5.095 22.925 24.739 22.925h152.89c12.674 0 22.925-10.276 22.925-22.925z" fill="#f9996e"></path><path d="M40.219 378.269c0-10.138 5.407-18.889 13.221-22.925H22.926C10.25 355.343 0 365.619 0 378.269c0 12.665 10.26 22.925 22.925 22.925h30.513c-7.809-4.033-13.219-12.777-13.219-22.925z" fill="#f38054"></path><path d="M183.403 72.597c0-35.076-26.263-63.997-60.194-68.224-71.672 0-71.672 136.448 0 136.448 33.931-4.227 60.194-33.148 60.194-68.224z" fill="#05dbb7"></path><path d="M91.679 72.597c0-28.626 12.565-53.772 31.53-68.224a69.445 69.445 0 0 0-8.582-.552c-37.985 0-68.776 30.791-68.776 68.776s30.791 68.776 68.776 68.776a69.42 69.42 0 0 0 8.582-.552c-18.965-14.452-31.53-39.598-31.53-68.224z" fill="#0bc997"></path><path d="M389.731 179.582a7.642 7.642 0 0 1-7.642-7.642v-7.642a7.642 7.642 0 0 1 7.642-7.642c8.427 0 15.284-6.856 15.284-15.284s-6.856-15.284-15.284-15.284-15.284 6.856-15.284 15.284a7.642 7.642 0 0 1-15.284 0c0-16.855 13.712-30.567 30.567-30.567s30.567 13.712 30.567 30.567c0 14.217-9.756 26.199-22.925 29.6v.967a7.64 7.64 0 0 1-7.641 7.643z" fill="#fce299"></path><g fill="#f0edff"><path d="M481.433 103.164a7.616 7.616 0 0 1-5.403-2.238 7.64 7.64 0 0 1 0-10.807l7.642-7.642a7.642 7.642 0 0 1 10.807 10.807l-7.642 7.642a7.62 7.62 0 0 1-5.404 2.238zM504.358 141.373h-15.284a7.642 7.642 0 0 1 0-15.284h15.284a7.642 7.642 0 0 1 0 15.284zM298.03 103.164a7.616 7.616 0 0 1-5.403-2.238l-7.642-7.642a7.642 7.642 0 0 1 10.807-10.807l7.642 7.642a7.64 7.64 0 0 1-5.404 13.045zM290.388 141.373h-15.284a7.642 7.642 0 0 1 0-15.284h15.284a7.642 7.642 0 0 1 0 15.284zM405.015 317.134h-30.567a7.642 7.642 0 0 1 0-15.284h30.567a7.642 7.642 0 0 1 0 15.284zM101.582 100.926 78.656 78a7.64 7.64 0 0 1 .169-10.971c3.046-2.868 7.907-2.568 10.865.391l14.122 14.122a4.487 4.487 0 0 0 6.345 0l29.406-29.406c2.959-2.959 7.819-3.259 10.865-.391a7.643 7.643 0 0 1 .169 10.971l-38.209 38.209a7.64 7.64 0 0 1-10.806.001z" fill="#f0edff"></path></g><circle cx="389.731" cy="194.866" fill="#fce299" r="7.642"></circle></g></svg>