<svg viewBox="0 0 512 512" xmlns="http://www.w3.org/2000/svg"><g><path d="M342.154 27.078h151.114c10.345 0 18.732 8.386 18.732 18.732v108.228c0 10.345-8.386 18.732-18.732 18.732h-17.771c4.757 19.275 17.716 35.694 34.902 44.484 2.728 1.395 1.757 5.502-1.307 5.502-36.121 0-67.499-20.239-83.459-49.986h-83.478c-10.345 0-18.732-8.386-18.732-18.732V45.81c0-10.345 8.386-18.732 18.731-18.732z" fill="#6cf5c2"></path><path d="M323.423 64.409v89.629c0 10.345 8.386 18.732 18.732 18.732h31.22v-38.921c-.001-32.247-20.953-59.681-49.952-69.44z" fill="#00f2a6"></path><path d="M169.846 0H18.732C8.386 0 0 8.386 0 18.732V126.96c0 10.345 8.386 18.732 18.732 18.732h17.771c-4.757 19.275-17.716 35.694-34.902 44.484-2.728 1.395-1.757 5.502 1.307 5.502 36.121 0 67.499-20.239 83.459-49.986h83.478c10.345 0 18.732-8.386 18.732-18.732V18.732C188.577 8.386 180.191 0 169.846 0z" fill="#ffd15b"></path><path d="M138.626 140.282v5.41h31.22c10.345 0 18.732-8.386 18.732-18.732V50.962c-29.949 18.492-49.952 51.612-49.952 89.32z" fill="#ffc344"></path><path d="m414.437 496.899-27.483-128.453c-4.108-19.199-21.072-32.917-40.705-32.917h-18.371L256 384.466l-71.878-48.937h-18.371c-19.633 0-36.597 13.718-40.705 32.917L97.563 496.899C95.901 504.672 101.826 512 109.775 512h51.407l7.5-4.962 7.5 4.962h159.637l7.5-5.337 7.5 5.337h51.407c7.948 0 13.873-7.328 12.211-15.101z" fill="#fe7ab6"></path><path d="m414.437 496.899-27.483-128.453c-4.108-19.199-21.072-32.917-40.705-32.917h-18.37l-.639.435c17.022 2.456 31.054 15.26 34.739 32.482l27.483 128.453c1.663 7.773-4.263 15.101-12.212 15.101h24.976c7.948 0 13.873-7.328 12.211-15.101z" fill="#fe5ca7"></path><path d="M286.252 325.529v-20.252h-60.504v20.252c0 5.523-4.477 10-10 10h-31.626c0 39.634 32.244 71.878 71.878 71.878s71.878-32.244 71.878-71.878h-31.626c-5.523 0-10-4.477-10-10z" fill="#f6a96c"></path><path d="M186.672 159.058v35.294l-12.176 22.689 12.176 22.689v3.781c0 34.023 24.516 62.302 56.841 68.185l4.094.267 12.53-.845 16.19-4.083 8.635-1.83 1.286.699c23.132-11.235 39.081-34.95 39.081-62.394v-84.454H186.672z" fill="#fed2a4"></path><path d="M300.352 159.058v84.454c0 34.023-24.515 62.301-56.84 68.184A69.626 69.626 0 0 0 256 312.839c38.289 0 69.328-31.039 69.328-69.328v-3.781l17.823-22.689-17.823-22.689v-35.294z" fill="#ffbd86"></path><path d="M344.235 172.77 323.422 96.4v-.007a43.902 43.902 0 0 0-23.305-6.661l-3.02-3.02a75.761 75.761 0 0 0-53.572-22.19c-41.842 0-75.761 33.92-75.761 75.761v62.894h14.052l4.855-8.823 2.628-7.228a10.085 10.085 0 0 1 9.477-6.638h28.23a126.05 126.05 0 0 0 55.072-12.667l13.48-6.547a6 6 0 0 1 7.504 1.91l22.265 31.171 5.715 8.823h13.192V172.77z" fill="#685e68"></path><path d="M301.81 89.773c6.966 7.801 11.206 18.088 11.206 29.37v57.973l12.312 17.237 5.715 8.824h13.192v-69.328c0-23.799-18.845-43.185-42.425-44.076z" fill="#554e56"></path><path d="M340.454 239.731h-15.126v-45.378h15.126c12.531 0 22.689 10.158 22.689 22.689 0 12.53-10.158 22.689-22.689 22.689zM171.546 239.731h15.126v-45.378h-15.126c-12.531 0-22.689 10.158-22.689 22.689 0 12.53 10.158 22.689 22.689 22.689z" fill="#f6a96c"></path><g fill="#fe3d97"><path d="M343.318 439.979a7.499 7.499 0 0 0-7.5 7.5V512h15v-64.521a7.5 7.5 0 0 0-7.5-7.5zM168.682 439.979a7.499 7.499 0 0 0-7.5 7.5V512h15v-64.521a7.5 7.5 0 0 0-7.5-7.5z" fill="#fe3d97"></path></g><path d="M276.249 283.129a7.481 7.481 0 0 1-5.304-2.196c-8.24-8.242-21.65-8.242-29.891 0a7.5 7.5 0 0 1-10.607-10.607c14.09-14.088 37.016-14.088 51.105 0a7.5 7.5 0 0 1-5.303 12.803z" fill="#f6a96c"></path><g fill="#f9f3f1"><path d="M438.467 75.773h-5.909l1.897-14.416a7.5 7.5 0 0 0-6.457-8.414c-4.103-.544-7.875 2.351-8.414 6.457l-2.155 16.373h-18.172l1.897-14.416a7.5 7.5 0 0 0-6.457-8.414 7.496 7.496 0 0 0-8.414 6.457l-2.155 16.373h-5.094c-4.143 0-7.5 3.357-7.5 7.5s3.357 7.5 7.5 7.5h3.121l-2.408 18.301h-7.882c-4.143 0-7.5 3.357-7.5 7.5s3.357 7.5 7.5 7.5h5.908l-1.897 14.416a7.5 7.5 0 0 0 14.871 1.957l2.155-16.373h18.172l-1.897 14.416a7.5 7.5 0 0 0 14.871 1.957l2.155-16.373h5.095c4.143 0 7.5-3.357 7.5-7.5s-3.357-7.5-7.5-7.5h-3.122l2.408-18.301h7.883c4.143 0 7.5-3.357 7.5-7.5s-3.358-7.5-7.5-7.5zm-25.419 33.301h-18.172l2.408-18.301h18.172zM471.883 52.88a7.499 7.499 0 0 0-7.5 7.5v45.788c0 4.143 3.357 7.5 7.5 7.5s7.5-3.357 7.5-7.5V60.38a7.5 7.5 0 0 0-7.5-7.5zM106.719 48.695h-5.908l1.897-14.416a7.5 7.5 0 0 0-6.457-8.414c-4.107-.545-7.874 2.351-8.414 6.457l-2.154 16.373H67.51l1.897-14.416a7.5 7.5 0 0 0-6.457-8.414c-4.103-.545-7.875 2.351-8.414 6.457l-2.154 16.373h-5.095c-4.143 0-7.5 3.357-7.5 7.5s3.357 7.5 7.5 7.5h3.121L48 81.996h-7.882c-4.143 0-7.5 3.357-7.5 7.5s3.357 7.5 7.5 7.5h5.908l-1.897 14.415A7.5 7.5 0 0 0 59 113.368l2.154-16.372h18.172l-1.897 14.415a7.5 7.5 0 0 0 14.871 1.957l2.154-16.372h5.095c4.143 0 7.5-3.357 7.5-7.5s-3.357-7.5-7.5-7.5h-3.121l2.408-18.301h7.882c4.143 0 7.5-3.357 7.5-7.5s-3.357-7.5-7.499-7.5zM81.3 81.996H63.128l2.408-18.301h18.172zM140.135 86.59c4.143 0 7.5-3.357 7.5-7.5V33.301c0-4.143-3.357-7.5-7.5-7.5s-7.5 3.357-7.5 7.5V79.09a7.5 7.5 0 0 0 7.5 7.5z" fill="#f9f3f1"></path><circle cx="140.135" cy="112.39" fill="#f9f3f1" r="7.5"></circle><circle cx="471.883" cy="139.469" fill="#f9f3f1" r="7.5"></circle></g></g></svg>