<svg viewBox="0 0 512 512" xmlns="http://www.w3.org/2000/svg"><g><path d="M432.934 84.715s27.187 20.918 64.824 20.918c0 0-27.184 50.183-95.149 25.094 0 0 21.965 28.23 44.965 35.546 0 0-58.035 40.778-93.054-8.363 0 0-30.325 46-80.512 6.27h-36.016c-50.187 39.73-80.512-6.27-80.512-6.27-35.02 49.14-93.054 8.363-93.054 8.363 23-7.316 44.965-35.546 44.965-35.546-67.965 25.09-95.149-25.094-95.149-25.094 37.637 0 64.824-20.918 64.824-20.918C4.824 90.996 0 32.437 0 32.437c23.492 6.532 53.68 6.489 85.887 3.067 14.199-1.496 28.789-3.664 43.363-6.203 65.871-11.5 70.055 83.648 108.742 83.648h36.016c38.687 0 42.86-95.148 108.742-83.648 47.652 8.316 95.398 12.543 129.25 3.137 0 0-4.824 58.558-79.066 52.277zm0 0" fill="#fcb52f"></path><path d="m252.977 112.95-13.059 35.628c-103.418 0-60.223-76.71-122.691-81.723-34.102-2.742-31.34-31.34-31.34-31.34v-.011c14.199-1.496 28.789-3.664 43.363-6.203 65.871-11.5 70.055 83.648 108.742 83.648zM259.023 112.95l13.059 35.628c103.418 0 60.223-76.71 122.691-81.723 34.102-2.742 31.34-31.34 31.34-31.34v-.011c-14.199-1.496-28.789-3.664-43.363-6.203-65.871-11.5-70.055 83.648-108.742 83.648zm0 0" fill="#f99830"></path><path d="M274.008 42.273v451.95c0 6.718-3.89 12.535-9.555 15.308a16.938 16.938 0 0 1-7.492 1.727c-9.414 0-17.043-7.63-17.043-17.035V42.273zm0 0" fill="#f99830"></path><path d="M274.008 42.273v451.95c0 6.718-3.89 12.535-9.555 15.308-5.648-2.785-9.543-8.59-9.543-15.308V42.273zm0 0" fill="#fcb52f"></path><path d="M372.402 358.168c-4.972 18.723-33.183 45.824-95.59 61.625-52.832 13.371-72.261 35.805-66.917 57.238.964 3.88 2.753 7.73 5.296 11.489 0 0-32.074-18.04-24.882-52.141 10.66-50.555 141.011-48.586 141.011-92.43 0-52.926-218.308-23.699-218.308-131.531 0-83.898 73.383-85.637 90.71-68.781 1.516 1.465 2.606 3.078 3.18 4.793 7.106 21.336-3.558 54.508-42.66 59.246 0 0-26.465 37.527 101.512 58.863 95.566 15.926 116.91 52.926 106.648 91.629zm0 0" fill="#79a879"></path><path d="M182.594 343.95c0 43.843 130.351 41.874 141.015 92.429 7.188 34.101-24.886 52.14-24.886 52.14 16.586-24.484.785-52.925-61.621-68.726s-90.618-42.902-95.586-61.625c-10.266-38.703 11.078-75.703 106.648-91.629 127.973-21.336 101.508-58.863 101.508-58.863-39.102-4.738-49.766-37.91-42.649-59.246 1.079-3.223 3.977-6.098 8.118-8.328 23.254-12.567 85.765-5.118 85.765 72.316 0 107.832-218.312 78.605-218.312 131.531zm0 0" fill="#79a879"></path><g fill="#5d895d"><path d="M298.723 488.52c16.586-24.485.785-52.926-61.621-68.727s-90.618-42.902-95.586-61.625c-7.106-26.797.941-52.777 38.285-71.52 11.824 4.282 24.445 7.797 37.148 10.883-58.129 18.125-55.992 30.89-55.992 47.067 0 20.445 20.824 43.937 79.086 60 58.254 16.05 94.469 48.132 58.68 83.922zM302.816 274.75c-10.87-3.148-23.187-5.898-37.062-8.21a657.747 657.747 0 0 1-8.793-1.532c117.941-21.555 92.71-57.332 92.71-57.332-39.1-4.738-49.765-37.91-42.648-59.246 1.079-3.223 3.977-6.098 8.118-8.328 0 18.363 25.804 51.085 53.765 56.535 0 0 23.074 49.035-66.09 78.113zm0 0" fill="#5d895d"></path><path d="M209.445 411.305c7.336 2.699 15.32 5.234 23.996 7.535-3.382 1.351-6.332 2.617-8.738 3.82-24.633 12.317-24.297 31.434-14.808 54.371 1.55 3.735 3.34 7.563 5.296 11.489 0 0-32.074-18.04-24.882-52.141 2.156-10.234 9.226-18.324 19.125-25.074zM283.613 400.246c-8.39-3.61-17.484-6.855-26.652-9.973 36.562-12.39 74.36-22.718 74.36-46.324 0-33.472-87.333-34.09-151.52-57.3h-.008c-37.297-13.489-66.781-34.606-66.781-74.231 0-83.898 73.383-85.637 90.71-68.781-31.82 2.511-73.113 15.226-73.113 64.261 0 89.653 227.383 66.47 221.766 138.91-2.434 31.368-33.52 39.364-68.762 53.438zm0 0" fill="#5d895d"></path></g><path d="M299.227 42.273c0 18.7-12.137 34.563-28.977 40.141a42.17 42.17 0 0 1-13.29 2.133c-23.343 0-42.272-18.926-42.272-42.274C214.688 18.93 233.618 0 256.96 0c4.648 0 9.117.754 13.289 2.133 16.84 5.578 28.977 21.441 28.977 40.14zm0 0" fill="#f99830"></path><path d="M299.227 42.273c0 18.7-12.137 34.563-28.977 40.141-16.824-5.578-28.973-21.441-28.973-40.14 0-18.7 12.149-34.563 28.973-40.141 16.84 5.578 28.977 21.441 28.977 40.14zm0 0" fill="#fcb52f"></path><path d="M162.906 173.813c-3.21 0-6.168-2.04-7.324-5.028-1.187-3.086-.266-6.633 2.223-8.789 2.566-2.223 6.433-2.473 9.289-.664 2.707 1.711 4.136 5.016 3.504 8.16-.727 3.617-3.989 6.32-7.692 6.32zM351.016 173.813c-3.282 0-6.286-2.125-7.391-5.211-1.102-3.075-.121-6.637 2.406-8.704 2.586-2.113 6.356-2.359 9.176-.566 2.758 1.75 4.191 5.152 3.457 8.348-.812 3.53-4 6.132-7.648 6.132zm0 0" fill="#3b3d4d"></path><path d="M284.016 42.273c0-7.058-4.121-12.78-9.204-12.78s-9.203 5.722-9.203 12.78c0 7.063 4.121 12.786 9.204 12.786s9.203-5.723 9.203-12.786zm0 0" fill="#ffffff"></path></g></svg>