<svg viewBox="0 0 512 512.1" xmlns="http://www.w3.org/2000/svg"><g><path d="M302.348 97.617c-3.305-12.773-17.399-30.875-70.809-30.875-82.52 0-94.266 12.219-116.227-8.883-18.53-17.808-29.41 67.887-4.707 95.102-10.425 38.543-2.085 77.148-2.085 77.148h232.164s19.488-90.18-38.336-132.492zm0 0" fill="#333399"></path><path d="M131.96 234.16s-10.007-18.332-30.023-18.332c-20.019 0-34.199 88.008 30.024 73.336zM317.238 234.16s10.008-18.332 30.028-18.332c20.015 0 34.195 88.008-30.028 73.336zm0 0" fill="#ffe4d1"></path><path d="M224.602 116.23c-153.364 0-124.04 251.524 0 251.524 124.039 0 153.363-251.524 0-251.524zm0 0" fill="#ffefe4"></path><path d="M224.602 102.54S120.285 87.823 120.285 221.667c0 0 13.137-55.32 43.266-70.406 14.035-7.028 19.176 10.773 61.05 10.773 41.872 0 47.012-17.8 61.047-10.773 30.133 15.086 43.266 70.406 43.266 70.406 0-133.844-104.312-119.129-104.312-119.129zm0 0" fill="#333399"></path><path d="m284.21 381.996-.335-38.055c-15.758 14.18-35.363 22.97-58.293 23.172-22.93.203-42.687-8.242-58.691-22.14l.324 36.722a21.82 21.82 0 0 1-15.024 20.93l-94.207 30.898c-28.214 9.254-47.289 35.59-47.289 65.282v13.297h430.028v-13.325c0-29.68-19.063-56.004-47.258-65.27l-94.242-30.968a21.82 21.82 0 0 1-15.012-20.543zm0 0" fill="#ff8354"></path><path d="M222.348 485.004c48.324 0 89.543-30.332 105.71-72.988l-28.835-9.477a21.82 21.82 0 0 1-15.012-20.543l-.336-38.058c-15.758 14.183-35.363 22.972-58.293 23.175-22.93.2-42.687-8.242-58.691-22.144l.324 36.722a21.825 21.825 0 0 1-15.024 20.934l-34.765 11.406c16.691 41.59 57.363 70.973 104.922 70.973zm0 0" fill="#ffe4d1"></path><g fill="#69ebfc"><path d="M109.988 451.313H14.051c-7.735 0-14-6.266-14-14V337.94c0-7.734 6.265-14 14-14 7.73 0 14 6.266 14 14v85.375h81.937c7.735 0 14 6.27 14 14s-6.265 13.997-14 13.997zM14.05 117.36c-7.734 0-14-6.266-14-14V14c0-7.73 6.266-14 14-14h95.938c7.735 0 14 6.27 14 14s-6.265 14-14 14H28.051v75.36c0 7.734-6.266 14-14 14zM437.367 451.313h-95.941c-7.73 0-14-6.266-14-14 0-7.731 6.27-14 14-14h81.941V337.94c0-7.734 6.266-14 14-14 7.73 0 14 6.266 14 14v99.375c0 7.73-6.27 13.997-14 13.997zM437.367 123.938c-7.734 0-14-6.266-14-14V28h-81.941c-7.73 0-14-6.27-14-14s6.27-14 14-14h95.941c7.73 0 14 6.27 14 14v95.938c0 7.734-6.27 14-14 14zm0 0" fill="#69ebfc"></path></g><path d="M14.05 10h95.938c5.969 0 11.051 3.738 13.067 9a13.97 13.97 0 0 0 .933-5c0-7.73-6.265-14-14-14H14.051c-7.735 0-14 6.27-14 14v10c0-7.73 6.265-14 14-14zM437.367 0h-95.941c-7.73 0-14 6.27-14 14 0 1.766.34 3.445.937 5 2.012-5.262 7.094-9 13.063-9h95.941c7.73 0 14 6.27 14 14V14c0-7.73-6.27-14-14-14zm0 0" fill="#a1f1fc"></path><path d="M336.246 230.11c0-6.126-4.273-11.239-10-12.548l-9.55-37.386a12.872 12.872 0 0 0 6.671-11.285c0-7.114-5.765-12.88-12.879-12.88-5.386 0-9.996 3.305-11.918 8l-63.261-6.136c-1.282-5.762-6.414-10.074-12.563-10.074-6.152 0-11.289 4.32-12.566 10.086l-62.239 6.039c-1.945-4.649-6.53-7.914-11.886-7.914-7.114 0-12.88 5.765-12.88 12.879 0 4.53 2.345 8.507 5.884 10.804l-9.602 37.575c-6.727.43-12.05 6.003-12.05 12.835 0 7.07 5.698 12.805 12.753 12.875l9.965 31.68c-3.008 2.36-4.95 6.016-4.95 10.133 0 6.879 5.391 12.477 12.177 12.844l6.761 21.492c-3.261 2.336-5.398 6.152-5.398 10.469 0 7.113 5.765 12.879 12.883 12.879 3.484 0 6.64-1.387 8.96-3.637l49.508 26.074c-.12.715-.199 1.445-.199 2.195 0 7.114 5.766 12.88 12.88 12.88 7.112 0 12.878-5.766 12.878-12.88 0-.726-.074-1.433-.188-2.129l50.68-26.695c2.356 2.57 5.73 4.192 9.492 4.192 7.114 0 12.88-5.766 12.88-12.88 0-4.874-2.712-9.12-6.708-11.304l6.489-20.633c.074 0 .144.012.214.012 7.118 0 12.883-5.766 12.883-12.879a12.86 12.86 0 0 0-5.691-10.688l9.851-31.316c6.082-1.023 10.72-6.305 10.72-12.68zm-36.937 45.656-62.282-24.309 75.305-14.73a12.903 12.903 0 0 0 5.191 4.847l-9.55 30.367a12.816 12.816 0 0 0-8.664 3.825zm11.238-46.844-76.563 14.976a12.897 12.897 0 0 0-7.234-5.96l.047-65.04a12.905 12.905 0 0 0 7.742-7.058l63.457 6.152c1.262 5.082 5.527 8.969 10.813 9.656l9.375 36.672c-4.188 1.844-7.204 5.848-7.637 10.602zm-91.762 96.68h-54.953c-1.672-5.11-6.441-8.809-12.098-8.872l-6.648-21.152a12.85 12.85 0 0 0 5.816-10.191l62.18-26.707a12.904 12.904 0 0 0 5.664 3.738zm-85.722-97.07a12.858 12.858 0 0 0-5.86-9.278l9.59-37.52c5.742-.328 10.469-4.406 11.773-9.832l62.383-6.05a12.906 12.906 0 0 0 7.848 7.09l-.043 64.992a12.888 12.888 0 0 0-7.25 5.96zm-5.278 12.034a12.956 12.956 0 0 0 3.746-4.183l77.73 15.226-60.523 25.996a12.87 12.87 0 0 0-10.687-5.69c-.137 0-.266.019-.403.022zm91.008 93.036.012 21.25a12.83 12.83 0 0 0-5 3l-46.035-24.25zm12.937 24.293a12.852 12.852 0 0 0-4.925-2.997l-.012-21.293h51.059zm62.118-41.04a12.881 12.881 0 0 0-10.48 8.747h-56.579l-.039-63.192a12.884 12.884 0 0 0 5.945-4.058l63.059 24.609c-.09.601-.149 1.21-.149 1.836 0 4.183 2.008 7.894 5.102 10.246zm0 0" fill="#69ebfc"></path><path d="M440.695 498.102H10.723c-.004.234-.028.468-.028.703v13.297h430.028v-13.325c0-.226-.024-.449-.028-.675zm0 0" fill="#e0734a"></path></g></svg>