<svg viewBox="0 0 497 497" xmlns="http://www.w3.org/2000/svg"><g><path d="m235.932 228.246 32.774 32.775-65.535 65.535-32.775-32.775z" fill="#7a6d79"></path><path d="M487 156.604c0 86.49-60.114 156.604-146.604 156.604s-156.604-70.114-156.604-156.604C183.793 70.114 253.906 0 340.396 0S487 70.114 487 156.604z" fill="#5f99d7"></path><path d="M340.396 0c-5.032 0-10.006.247-14.917.711 79.492 7.513 141.687 74.435 141.687 155.893 0 81.457-62.195 148.379-141.687 155.892 4.911.464 9.885.712 14.917.712 86.49 0 156.604-70.114 156.604-156.604S426.886 0 340.396 0z" fill="#3c87d0"></path><path d="M340.396 44.836c61.727 0 101.767 50.04 101.767 111.767s-40.04 111.768-101.767 111.768-111.767-50.04-111.767-111.767c0-61.728 50.04-111.768 111.767-111.768z" fill="#f4efed"></path><path d="M419.428 77.572c-25.38-25.38-59.926-35.972-92.982-31.836 23.792 2.977 46.814 13.568 65.082 31.836 43.648 43.648 43.648 114.415 0 158.063-18.268 18.268-41.289 28.86-65.082 31.836 33.055 4.135 67.601-6.456 92.982-31.836 43.648-43.648 43.648-114.415 0-158.063z" fill="#d7d0d6"></path><path d="m184.557 280.788 30.655 30.655c6.462 6.462 6.462 16.938 0 23.4L65.456 484.598c-15.203 15.203-38.851 16.203-54.054 1-15.203-15.203-15.203-39.852 0-55.054l23.248-23.248 7.436-3.436 3.17-7.17 87.745-87.745 7.64-3.64 2.966-6.966 17.549-17.549c6.463-6.464 16.94-6.464 23.401-.002z" fill="#ffe177"></path><path d="m216.212 312.443-17.755-17.755c6.462 6.462 6.462 16.938 0 23.4L48.702 467.843c-12.095 12.095-30.166 14.557-44.705 7.406a38.84 38.84 0 0 0 7.406 10.349c15.203 15.203 39.851 15.203 55.054 0l23.248-23.248-3.565-9.435 14.171-1.171 87.745-87.745 2.768-15.768 7.839 5.162 17.549-17.549c6.462-6.463 6.461-16.94 0-23.401z" fill="#ffd15b"></path><path d="m132.954 308.93 10.605-10.605 54.045 54.046L187 362.976z" fill="#f4efed"></path><path d="m170.246 346.226 10.605-10.605 17.752 17.752-10.605 10.605z" fill="#d7d0d6"></path><path d="m34.603 407.26 10.605-10.606L99.253 450.7l-10.605 10.605z" fill="#f4efed"></path><path d="M71.894 444.558 82.5 433.953l17.752 17.752-10.605 10.605z" fill="#d7d0d6"></path><path d="M347.98 206.743a7.583 7.583 0 1 1-15.166 0 7.583 7.583 0 0 1 15.166 0zM340.507 183.465a7.5 7.5 0 0 1-7.5-7.5V98.88a7.5 7.5 0 0 1 7.5-7.5c4.143 0 7.5 3.357 7.5 7.5v77.085c0 4.143-3.357 7.5-7.5 7.5z" fill="#fe646f"></path></g></svg>