<svg viewBox="0 0 501.611 501.611" xmlns="http://www.w3.org/2000/svg"><g><path d="m466.106 300.33-62.764-62.764a7.628 7.628 0 0 0-.817-.697v-90.427a7.5 7.5 0 0 0-15 0v89.8a7.49 7.49 0 0 0-1.79 1.323l-62.764 62.764a7.5 7.5 0 0 0 5.303 12.803 7.474 7.474 0 0 0 5.303-2.197l53.947-53.947v46.061a7.5 7.5 0 0 0 15 0v-45.088l52.974 52.974c1.464 1.464 3.384 2.197 5.303 2.197s3.839-.732 5.303-2.197a7.496 7.496 0 0 0 .002-10.605zM398.949 120.363c-.92 0-1.856-.17-2.765-.531L150.901 22.471a7.5 7.5 0 0 1-4.204-9.738 7.496 7.496 0 0 1 9.738-4.204l245.283 97.361a7.5 7.5 0 0 1-2.769 14.473z" fill="#c5d3dd"></path><path d="M163.707 121.955h-38.685l-10 332.738h58.685z" fill="#fdb441"></path><path d="M155.965 144.518c-.11.125-.224.245-.326.38l-25.036 33.203.98-33.584h-15.006l-9.05 309.95a7.5 7.5 0 0 0 7.496 7.725h58.685a7.497 7.497 0 0 0 7.496-7.725l-9.315-309.95h-15.924zm8.322 246.415-33.129-24.002 31.235-39.022zm-2.755-91.668-28.051-20.323 26.346-36.39zm-3.967-132.007 1.383 46.005-23.333-16.894zm-27.91 43.315 22.837 16.534-24.299 33.562zm-2.404 82.379 27.792 20.135-29.453 36.796zm-4.376 149.996 1.814-62.18 30.354 21.992zm15.816 4.245 26.3-32.856.987 32.856z" fill="#fe9901"></path><path d="M153.669 7.5h-18.647l-10 114.455h38.647z" fill="#fdb441"></path><path d="M162.675 116.74a7.5 7.5 0 0 1-7.463-6.848L146.795 15h-4.9l-10.4 95.702a7.501 7.501 0 0 1-14.944-1.306L127.55 6.847A7.501 7.501 0 0 1 135.022 0h18.646a7.501 7.501 0 0 1 7.472 6.847l9.016 101.74a7.501 7.501 0 0 1-7.481 8.153z" fill="#fe9901"></path><path d="M198.783 501.611H89.946c-6.846 0-12.395-5.549-12.395-12.395v-22.554c0-10.683 8.661-19.344 19.344-19.344h94.939c10.683 0 19.344 8.661 19.344 19.344v22.554c0 6.845-5.55 12.395-12.395 12.395z" fill="#fb8801"></path><path d="M299.57 206.291h-67.574c-6.593 0-11.938-5.345-11.938-11.938v-51.91h91.451v51.911c-.001 6.592-5.345 11.937-11.939 11.937z" fill="#855151"></path><path d="M277.812 142.443v50.44c0 7.406-6.003 13.409-13.409 13.409h33.696c7.406 0 13.409-6.004 13.409-13.409v-50.44z" fill="#704444"></path><path d="m477.945 336.81-78.891 10-88.948-10a6.329 6.329 0 0 1-6.329-6.329v-21.519a6.33 6.33 0 0 1 6.329-6.329h167.839a6.329 6.329 0 0 1 6.329 6.329v21.519a6.329 6.329 0 0 1-6.329 6.329z" fill="#7a8c98"></path><path d="M494.458 360.81H289.293a6.817 6.817 0 0 1-6.817-6.817v-14.108a6.817 6.817 0 0 1 6.817-6.817h205.164a6.817 6.817 0 0 1 6.817 6.817v14.108a6.817 6.817 0 0 1-6.816 6.817z" fill="#9b5e5e"></path><path d="m452.16 138.838-30-38.581a7.501 7.501 0 0 0-5.921-2.896H61.557a7.5 7.5 0 0 0-7.5 7.5v38.581a7.5 7.5 0 0 0 7.5 7.5h384.682a7.501 7.501 0 0 0 5.921-12.104z" fill="#fe9901"></path><path d="m452.16 138.838-30-38.581a7.501 7.501 0 0 0-5.921-2.896h-30c2.315 0 4.5 1.069 5.921 2.896l30 38.581a7.5 7.5 0 0 1-5.921 12.104h30a7.501 7.501 0 0 0 5.921-12.104z" fill="#fb8801"></path><path d="M58.315 171.988h-47.52c-5.776 0-10.458-4.682-10.458-10.458V87.846c0-5.776 4.682-10.458 10.458-10.458h47.521c5.776 0 10.458 4.682 10.458 10.458v73.684c0 5.776-4.683 10.458-10.459 10.458z" fill="#855151"></path><path d="M55.521 77.388H17.503c7.319 0 13.253 5.933 13.253 13.253v68.094c0 7.32-5.934 13.253-13.253 13.253H55.52c7.319 0 13.253-5.934 13.253-13.253V90.641c.001-7.32-5.933-13.253-13.252-13.253z" fill="#704444"></path></g></svg>