<svg viewBox="0 0 512 512" xmlns="http://www.w3.org/2000/svg"><g><path d="M72 8 8 72v432h384V8z" fill="#c8e1ff"></path><path d="M8 72h64V8z" fill="#aaccfa"></path><g fill="#5f6473"><path d="M345.544 291.274H58.223a8 8 0 0 1 0-16h287.321a8 8 0 0 1 0 16zM217.3 344.057H58.223a8 8 0 0 1 0-16H217.3a8 8 0 0 1 0 16zM190.181 396.839H58.223a8 8 0 0 1 0-16h131.958a8 8 0 0 1 0 16zM207.13 451.425H58.223a8 8 0 0 1 0-16H207.13a8 8 0 0 1 0 16z" fill="#5f6473"></path></g><circle cx="201.883" cy="151.32" fill="#ffe180" r="79.173"></circle><path d="M193.445 194.586c-1.6 0-3.21-.478-4.605-1.462l-25.119-17.707a8 8 0 0 1 9.218-13.077l19.188 13.526 40.559-47.042a8.002 8.002 0 0 1 11.282-.835 7.999 7.999 0 0 1 .835 11.283l-45.296 52.537a7.988 7.988 0 0 1-6.062 2.776z" fill="#5f6473"></path><path d="M375.026 369.54c-47.533-27.443-92.813-38.002-101.137-23.584l-30.144 52.212 171.917 99.75 30.358-52.582c8.324-14.418-23.461-48.353-70.993-75.796z" fill="#ffd36c"></path><path d="M478.525 190.827c-24.368-14.069-55.527-5.72-69.595 18.648a50.75 50.75 0 0 0-6.722 22.045s-1.547 38.757-20.772 72.057c-17.786 30.806-50.409 44.996-50.409 44.996l-1.746 2.532c13.855 5.093 29.057 12.262 44.246 21.031 15.313 8.841 29.282 18.531 40.815 28.224l1.321-2.923s-4.022-35.349 13.763-66.154c19.226-33.3 52.027-54.025 52.027-54.025a50.74 50.74 0 0 0 15.721-16.837c14.069-24.368 5.72-55.527-18.648-69.596z" fill="#e64b73"></path><path d="M375.026 369.54c-47.533-27.443-92.813-38.002-101.137-23.584l-30.144 52.212 2.595 1.506.003-.006c2.363-4.093 9.042-4.951 14.228-4.951 19.421 0 51.152 11.354 82.812 29.633 22.74 13.13 42.541 28.129 55.753 42.235 12.068 12.885 17.354 23.898 14.143 29.463-.071.123-.158.233-.236.35l2.62 1.52 30.358-52.582c8.324-14.418-23.461-48.353-70.993-75.796z" fill="#fa5f87"></path><ellipse cx="329.81" cy="447.858" fill="#5f6473" rx="30.145" ry="99.38" transform="rotate(-60 329.81 447.872)"></ellipse></g></svg>