<svg viewBox="0 0 60 60" xmlns="http://www.w3.org/2000/svg"><g><path d="M55 9.741v17.791c0 14.518-9.968 27.286-24.444 31.391a2.04 2.04 0 0 1-1.112 0C14.968 54.818 5 42.05 5 27.532V9.741a2.664 2.664 0 0 1 2.526-2.666c11.31-.462 18.351-3.99 21.124-5.692a2.569 2.569 0 0 1 2.7 0c2.773 1.7 9.814 5.23 21.124 5.692A2.664 2.664 0 0 1 55 9.741z" fill="#f4aa51"></path><path d="M49.2 10.86a48.145 48.145 0 0 1-18.27-5.11 1.922 1.922 0 0 0-1.86 0 48.02 48.02 0 0 1-18.27 5.11A1.99 1.99 0 0 0 9 12.85V27.5c0 .5.01 1 .04 1.5.64 11.65 8.74 21.87 20.33 25.64a2.034 2.034 0 0 0 1.26 0C42.22 50.87 50.32 40.65 50.96 29c.03-.5.04-1 .04-1.5V12.85a1.99 1.99 0 0 0-1.8-1.99z" fill="#ffd37b"></path><g fill="#f9c55d"><path d="M30 29v25.74a1.975 1.975 0 0 1-.63-.1C17.78 50.87 9.68 40.65 9.04 29zM51 12.85V27.5c0 .5-.01 1-.04 1.5H30V5.51a1.924 1.924 0 0 1 .93.24 48.145 48.145 0 0 0 18.27 5.11 1.99 1.99 0 0 1 1.8 1.99z" fill="#f9c55d"></path></g></g></svg>