<svg viewBox="0 0 512 512" xmlns="http://www.w3.org/2000/svg"><g><path d="M368.862 197.984H128.409v143.618c0 18.086 14.656 32.743 32.743 32.743h17.337v87.392H340.97v-87.392h8.984c6.903 0 13.382-1.891 18.907-5.188 10.846-6.449 18.1-18.277 18.1-31.804V197.984h-18.099z" fill="#f9c295"></path><path d="M368.862 197.984h-8.675v117.572c0 13.528-7.255 25.356-18.1 31.804-5.526 3.298-12.004 5.188-18.907 5.188h-8.984v109.188h26.775v-87.392h8.984a36.81 36.81 0 0 0 18.907-5.188c10.846-6.449 18.1-18.277 18.1-31.805V197.984h-18.1z" fill="#e59f6a"></path><path d="M106.905 434.818c0 4.085-.862 7.655-2.373 10.778-10.476 21.68-52.089 21.68-52.089 21.68l7.454-28.115-23.045-16.598s49.985 0 54.17-28.54c9.246 13.116 15.883 26.144 15.883 40.795z" fill="#5c9cee"></path><path d="M104.533 445.596c1.511-3.123 2.373-6.693 2.373-10.778 0-14.651-6.637-27.678-15.882-40.796a256.068 256.068 0 0 0-6.962-9.357c0-.011-.011-.022-.022-.034-6.245-13.52-10.375-28.686-10.375-46.314 0-28.462 6.973-48.283 18.042-62.016-19.643 37.327 48.406 118.225 12.826 169.295z" fill="#3580d3"></path><path d="M405.094 434.818c0 4.085.862 7.655 2.373 10.778 10.476 21.68 52.089 21.68 52.089 21.68l-7.454-28.115 23.045-16.598s-49.985 0-54.171-28.54c-9.245 13.116-15.882 26.144-15.882 40.795z" fill="#5c9cee"></path><path d="M407.467 445.596c-1.511-3.123-2.373-6.693-2.373-10.778 0-14.651 6.637-27.678 15.882-40.796 2.194-3.1 4.522-6.223 6.962-9.357 0-.011.011-.022.022-.034 6.245-13.52 10.375-28.686 10.375-46.314 0-28.462-6.973-48.283-18.042-62.016 19.643 37.327-48.406 118.225-12.826 169.295z" fill="#3580d3"></path><path d="M476.725 282.614c0-108.822-103.719-122.376-151.476-122.376H186.751c-47.757 0-151.476 13.554-151.476 122.376 0 45.788 27.801 74.921 48.765 102.017-6.245-13.52-10.375-28.686-10.375-46.314 0-28.462 6.973-48.283 18.042-62.016.011 0 .011-.011.011-.011 31.215-38.747 94.977-29.122 126.372-29.122h75.822c31.394 0 95.156-9.625 126.371 29.122 0 0 0 .011.011.011 11.069 13.733 18.042 33.554 18.042 62.016 0 17.628-4.13 32.793-10.375 46.314 20.963-27.096 48.764-56.229 48.764-102.017z" fill="#5c9cee"></path><path d="M158.464 132.587c-16.6 0-30.056 13.456-30.056 30.056v63.602c0 16.6 13.456 30.056 30.056 30.056s30.056-13.456 30.056-30.056v-63.602c0-16.6-13.456-30.056-30.056-30.056z" fill="#f4b07d"></path><path d="M218.576 132.587c-16.6 0-30.056 13.456-30.056 30.056v63.602c0 16.6 13.456 30.056 30.056 30.056s30.056-13.456 30.056-30.056v-63.602c0-16.6-13.456-30.056-30.056-30.056z" fill="#fcd0ae"></path><path d="M278.688 132.587c-16.599 0-30.056 13.456-30.056 30.056v63.602c0 16.6 13.456 30.056 30.056 30.056s30.056-13.456 30.056-30.056v-63.602c0-16.6-13.456-30.056-30.056-30.056z" fill="#ef9e67"></path><path d="M338.8 132.587c-16.6 0-30.056 13.456-30.056 30.056v63.602c0 16.6 13.456 30.056 30.056 30.056 16.599 0 30.056-13.456 30.056-30.056v-63.602c0-16.6-13.456-30.056-30.056-30.056z" fill="#fcd0ae"></path><path d="M386.955 213.124V197.32c0-13.442-10.897-24.338-24.338-24.338H259.859c-6.2 0-11.227 5.026-11.227 11.227v14.549c0 19.672 15.947 35.619 35.619 35.619h39.821v28.957c0 6.153-4.988 11.141-11.141 11.141h-5.991c-28.987 0-52.485 23.499-52.485 52.485v8.616c0 15.22 17.232 38.769 52.485 38.769h43.015c6.903 0 13.382-1.891 18.907-5.188 10.846-6.449 18.1-18.277 18.1-31.804V213.124h-.007z" fill="#f9a973"></path><path d="M386.955 213.124v-15.803c0-13.442-10.897-24.339-24.339-24.339h-26.638c13.442 0 24.339 10.897 24.339 24.339v.663h-.129v117.572c0 13.528-7.255 25.356-18.1 31.804-5.526 3.298-12.004 5.188-18.907 5.188a8.984 8.984 0 0 0-8.984 8.984v12.811h35.759a37.033 37.033 0 0 0 5.074-.345c.417-.057.828-.142 1.242-.214.416-.072.837-.13 1.248-.215.725-.15 1.44-.33 2.15-.522.151-.041.303-.081.454-.124.69-.196 1.372-.41 2.045-.645.111-.039.221-.082.332-.122.615-.222 1.225-.46 1.827-.714.107-.045.215-.087.322-.133a36.348 36.348 0 0 0 1.916-.899c.138-.069.274-.141.411-.212a36.817 36.817 0 0 0 1.888-1.044c10.846-6.449 18.1-18.277 18.1-31.805V213.124h-.01z" fill="#e88d4f"></path><path d="M346.009 419.528H173.095c-11.086 0-20.105 9.02-20.105 20.105v52.262c0 11.086 9.02 20.105 20.105 20.105h172.914c11.086 0 20.104-9.019 20.104-20.105v-52.262c0-11.086-9.018-20.105-20.104-20.105z" fill="#ed5575"></path><path d="M346.009 419.528h-26c11.086 0 20.104 9.02 20.104 20.105v52.262c0 11.086-9.019 20.105-20.104 20.105h26c11.086 0 20.104-9.019 20.104-20.105v-52.262c0-11.086-9.018-20.105-20.104-20.105z" fill="#cc3a60"></path><circle cx="203.81" cy="465.76" fill="#ebeef2" r="14.359"></circle><path d="M238.991 40.797c-18.797 6.017-25.916 13.137-31.934 31.934-1.01 3.156-5.486 3.156-6.496 0-6.017-18.797-13.137-25.916-31.934-31.934-3.156-1.01-3.156-5.486 0-6.496 18.797-6.017 25.916-13.137 31.934-31.934 1.01-3.156 5.486-3.156 6.496 0 6.017 18.797 13.137 25.916 31.934 31.934 3.156 1.01 3.156 5.486 0 6.496z" fill="#f2df33"></path><path d="M135.955 121.243c-18.797 6.017-25.916 13.137-31.934 31.934-1.01 3.156-5.486 3.156-6.496 0-6.017-18.797-13.137-25.916-31.934-31.934-3.156-1.01-3.156-5.486 0-6.496 18.797-6.017 25.916-13.137 31.934-31.934 1.01-3.156 5.486-3.156 6.496 0 6.017 18.797 13.137 25.916 31.934 31.934 3.156 1.01 3.156 5.485 0 6.496z" fill="#5c9cee"></path><path d="M445.145 107.793c-18.797 6.017-25.916 13.137-31.934 31.934-1.01 3.156-5.486 3.156-6.496 0-6.017-18.797-13.137-25.916-31.934-31.934-3.156-1.01-3.156-5.486 0-6.496 18.797-6.017 25.916-13.137 31.934-31.934 1.01-3.156 5.486-3.156 6.496 0 6.017 18.797 13.137 25.916 31.934 31.934 3.156 1.01 3.156 5.486 0 6.496z" fill="#ebeef2"></path></g></svg>