<svg viewBox="0 0 512 512" xmlns="http://www.w3.org/2000/svg"><g><path clip-rule="evenodd" d="M110.375 337.122c-37.417 13.168-44.728 42.487-44.728 72.957v46.975L79.5 473.876c0 17.243-.296 16.335 16.725 17.517h319.55c17.021-1.181 30.579 5.136 30.579-12.107v-69.207c0-30.5-7.312-59.789-44.728-72.957l-93.453-32.832H203.827z" fill="#6fd7a3" fill-rule="evenodd"></path><path clip-rule="evenodd" d="M255.985 274.145c-9.65 0-18.975-2.273-27.974-5.669-8.377-3.13-16.488-7.352-24.125-12.43l-.059 48.244v3.159c0 46.768 104.376 46.768 104.346 0v-3.159l.059-48.333c-7.756 5.167-15.985 9.478-24.51 12.637-10.035 3.691-18.886 5.551-27.737 5.551z" fill="#ffbd86" fill-rule="evenodd"></path><path clip-rule="evenodd" d="m203.886 256.046-.03 40.951c7.637 5.078 15.718 9.3 24.125 12.43l.266.118c10.005 3.691 18.856 5.551 27.707 5.551s17.702-1.86 27.707-5.551c5.091-1.89 5.654.768 5.624 5.698v10.393c0 3.838-.71 7.352-1.983 10.54 12.255-5.698 20.869-15.294 20.869-28.728V276.092l.059-20.136c-7.756 5.167-15.985 9.478-24.51 12.637-10.035 3.691-18.886 5.551-27.737 5.551-8.821 0-17.672-1.86-27.707-5.551-8.612-3.217-16.753-7.469-24.39-12.547zM149.952 208.894c10.627-19.723 8.348-39.859-4.588-59.109h-5.328c-44.344 0-36.795 62.623 9.916 59.109z" fill="#f6a96c" fill-rule="evenodd"></path><path clip-rule="evenodd" d="M145.364 149.785c20.573-2.48 64.147-13.522 57.368-57.515-18.294-16.121-18.708-49.041-10.449-68.292-40.821 7.145-46.919 38.235-46.919 80.102z" fill="#554e56" fill-rule="evenodd"></path><path clip-rule="evenodd" d="M198.084 107.21c42.034 52.407 127.642 55.685 168.552 42.575V94.484c0-23.856-3.138-40.686-16.281-55.832C307.67-10.625 209.57-9.651 192.282 23.978c-8.259 19.251-12.521 67.111 5.802 83.232z" fill="#554e56" fill-rule="evenodd"></path><path clip-rule="evenodd" d="M362.048 208.894c46.711 3.514 54.26-59.109 9.917-59.109h-5.328c-12.789 15.766-13.943 35.135-4.589 59.109z" fill="#f6a96c" fill-rule="evenodd"></path><path clip-rule="evenodd" d="M217.083 101.985c-5.451 8.758-20.288 16.506-28.139 17.98h-.01c-23.739-21.05-25.481-62.708-16.012-89.61 5.389-2.895 11.787-5.049 19.36-6.378-8.263 19.247-7.841 52.177 10.448 68.292 4.493 3.379 9.294 6.615 14.353 9.716zM366.636 149.785V94.484c0-23.856-3.138-40.686-16.281-55.832C326.052 10.603 283.81-1.177 248.732.092c25.161 5.078 49.908 16.593 66.397 35.637 13.114 15.146 16.281 31.946 16.281 55.832v63.391c13.706 2.864 30.046 1.417 35.226-5.167z" fill="#433f43" fill-rule="evenodd"></path><path clip-rule="evenodd" d="M366.64 149.783v33.487c0 8.233-1.597 16.918-4.595 25.625-8.552 25.151-28.325 50.694-53.105 67.437-7.965 5.368-16.455 9.83-25.213 13.075-10.036 3.72-18.886 5.585-27.737 5.585-8.83 0-17.681-1.865-27.717-5.585-8.789-3.246-17.248-7.707-25.213-13.075-24.78-16.743-44.553-42.286-53.105-67.437-2.999-8.707-4.595-17.392-4.595-25.625v-33.487c8.315-6.368 29.334-14.662 43.574-29.819h.01c6.278-6.668 11.241-14.675 13.239-24.428.305-1.488 2.013-2.17 3.246-1.281a188.786 188.786 0 0 0 11.654 7.73c47.304 28.984 116.225 45.552 149.557 47.798z" fill="#fed2a4" fill-rule="evenodd"></path><path clip-rule="evenodd" d="M308.943 276.33c24.777-16.741 44.551-42.28 53.105-67.436 2.99-8.71 4.588-17.39 4.588-25.628v-33.482c-9.354-.62-21.52-2.392-35.226-5.226v33.452c0 8.238-1.628 16.918-4.588 25.657-8.555 25.126-28.358 50.665-53.135 67.406-4.411 2.982-8.999 5.698-13.706 8.06a107.355 107.355 0 0 1-11.397 4.99c-.059.03-.089.03-.118.059-7.282 2.687-13.972 4.399-20.455 5.137l.266.089c10.035 3.72 18.886 5.58 27.707 5.58 8.851 0 17.702-1.86 27.737-5.58 8.763-3.246 17.259-7.704 25.222-13.078z" fill="#ffbd86" fill-rule="evenodd"></path><path clip-rule="evenodd" d="M192.075 457.054H65.646v22.232c0 17.243 13.558 31.533 30.579 32.714h159.76V396.438c0-20.491-28.24-25.244-33.065 2.657l-9.976 57.958h-20.869zM255.985 396.438V512h159.79c17.021-1.181 30.579-15.471 30.579-32.714v-22.232H299.056l-10.005-57.958c-4.796-27.902-33.066-23.148-33.066-2.658z" fill="#fed2a4" fill-rule="evenodd"></path><path clip-rule="evenodd" d="m287.304 336.177 93.453 32.862c37.417 13.139 34.279 42.457 34.279 72.927v15.087h31.319v-46.975c0-30.5-7.312-59.789-44.728-72.957l-93.453-32.832v3.159c-.001 13.435-8.615 23.031-20.87 28.729z" fill="#3ec3a4" fill-rule="evenodd"></path><path clip-rule="evenodd" d="M415.035 457.054v22.232c0 17.243-13.558 31.533-30.579 32.714h31.319c17.021-1.181 30.579-15.471 30.579-32.714v-22.232zM229.729 384.422c2.694 2.893 4.44 7.027 4.44 12.105V512h21.816V396.438c0-15.559-16.31-22.055-26.256-12.016z" fill="#ffbd86" fill-rule="evenodd"></path><path d="M208.889 191.467a7.728 7.728 0 0 1-7.728-7.728v-10.068c0-4.268 3.459-7.728 7.728-7.728s7.728 3.46 7.728 7.728v10.068a7.727 7.727 0 0 1-7.728 7.728zM303.111 191.467a7.728 7.728 0 0 1-7.728-7.728v-10.068a7.728 7.728 0 0 1 15.456 0v10.068a7.729 7.729 0 0 1-7.728 7.728z" fill="#433f43"></path><path d="M272.467 250.341a7.696 7.696 0 0 1-3.894-1.058c-6.697-3.916-18.448-3.916-25.145 0a7.728 7.728 0 1 1-7.802-13.342c11.425-6.681 29.325-6.681 40.75 0a7.728 7.728 0 0 1-3.909 14.4z" fill="#f6a96c"></path></g></svg>