<svg viewBox="0 0 512 512" xmlns="http://www.w3.org/2000/svg"><g><path d="M308.965 370.485v-35.037H203.034v35.036a26.48 26.48 0 0 1-16.648 24.588l-27.49 10.997v52.966h194.207v-52.966l-27.49-10.996a26.483 26.483 0 0 1-16.648-24.588z" fill="#e6af78"></path><path d="m186.388 395.073-10.399 4.16c97.666 15.663 132.977-46.13 132.977-46.13v-17.655H203.034v35.036a26.483 26.483 0 0 1-16.646 24.589z" fill="#d29b6e"></path><path d="M423.724 185.379h-17.655c0 92.483-67.319 167.724-150.069 167.724s-150.069-75.241-150.069-167.724H88.276c0 98.926 70.527 179.763 158.897 184.885v35.805a8.829 8.829 0 0 0 17.656 0v-35.805c88.368-5.122 158.895-85.957 158.895-184.885z" fill="#a06e5f"></path><path d="m400.482 415.273-67.334-24.486c-3.74-1.359-7.919-.085-10.202 3.175-7.615 10.877-26.763 35.258-54.604 50.422-7.644 4.163-17.039 4.163-24.683 0-27.841-15.165-46.989-39.546-54.604-50.422-2.283-3.26-6.463-4.534-10.202-3.175l-67.334 24.486a35.31 35.31 0 0 0-23.243 33.184v45.888c0 9.751 7.904 17.655 17.655 17.655h300.138c9.751 0 17.655-7.904 17.655-17.655v-45.888a35.31 35.31 0 0 0-23.242-33.184z" fill="#a7a5ac"></path><path d="M385.765 196.237c0 64.501-77.209 142.742-129.766 142.742s-129.766-78.241-129.766-142.742S198.666 79.448 256 79.448s129.765 52.288 129.765 116.789z" fill="#504b5a"></path><path d="M355.125 234.505c-44.204-4.025-80.567-27.736-93.781-59.435-1.954-4.687-8.733-4.687-10.687 0-13.214 31.698-49.577 55.41-93.781 59.435-13.338.663-15.135 10.879-12.867 19.946l8.467 33.869a9.013 9.013 0 0 0 8.745 6.827c1.11 0 2.173-.215 3.16-.586l1.905 13.331a43.256 43.256 0 0 0 23.476 32.572l46.894 23.447a43.254 43.254 0 0 0 38.689 0l46.894-23.447a43.256 43.256 0 0 0 23.476-32.572l1.905-13.331a8.972 8.972 0 0 0 3.16.586 9.014 9.014 0 0 0 8.745-6.827l8.467-33.869c2.267-9.067.471-19.284-12.867-19.946z" fill="#f0c087"></path><path d="M215.69 318.548c-2.536-6.865-6.76-32.25-9.769-57.795-.686-5.825 1.543-11.609 6.07-15.339 8.681-7.149 17.838-15.574 26.061-24.789 4.989-5.59 12.13-8.762 19.623-8.762h34.124c-13.887-9.954-24.52-22.556-30.455-36.792-1.954-4.689-8.734-4.689-10.688 0-13.214 31.698-49.577 55.409-93.781 59.435-13.338.663-15.135 10.879-12.868 19.946l8.467 33.869a9.015 9.015 0 0 0 8.745 6.828c1.11 0 2.173-.215 3.16-.586l1.905 13.33a43.263 43.263 0 0 0 23.477 32.573l46.894 23.447a43.252 43.252 0 0 0 14.42 4.284c-9.993-6.856-24.864-21.165-35.385-49.649z" fill="#e6af78"></path><path d="M483.933 186.255 265.366 3.495C262.58 1.165 259.293 0 256.005 0v194.207h225.644c3.731 0 5.293-5.436 2.284-7.952z" fill="#ffcf65"></path><path d="M28.068 186.255 246.635 3.495C249.42 1.165 252.708 0 255.995 0v194.207H30.351c-3.732 0-5.293-5.436-2.283-7.952z" fill="#ffb450"></path><path d="M265.366 3.495c-5.571-4.659-13.15-4.659-18.722 0l-1.878 1.571-115.395 189.141h253.266L267.244 5.065l-1.878-1.57z" fill="#ffcf65"></path><path d="m267.244 5.065-1.878-1.571C262.58 1.165 259.293 0 256.005 0v194.207h126.633L267.244 5.065z" fill="#ffdc78"></path><path d="m140.652 468.755-46.7-39.354c-3.583 5.571-5.676 12.12-5.676 19.057v45.888c0 9.751 7.904 17.655 17.655 17.655h44.138v-22.995a26.48 26.48 0 0 0-9.417-20.251zM371.349 468.755l46.7-39.354c3.583 5.571 5.676 12.12 5.676 19.057v45.888c0 9.751-7.904 17.655-17.655 17.655h-44.138v-22.995a26.474 26.474 0 0 1 9.417-20.251zM169.585 394.157c2.578 5.786 35.346 49.236 65.631 65.731 12.81 6.983 28.75 6.983 41.578 0 30.276-16.495 63.044-59.946 65.622-65.731l-9.267-3.37c-3.74-1.359-7.919-.085-10.202 3.175-7.615 10.876-26.763 35.258-54.604 50.422-7.644 4.163-17.039 4.163-24.683 0-27.84-15.165-46.989-39.546-54.604-50.422-2.283-3.26-6.463-4.534-10.202-3.175l-9.269 3.37z" fill="#8d8a94"></path></g></svg>