<svg viewBox="0 0 512 512" xmlns="http://www.w3.org/2000/svg"><g><path d="M110.454 321.37a4.944 4.944 0 0 1 6.201-.36c22.824 16.41 35.684 67.186 23.434 92.476a4.943 4.943 0 0 1-5.624 2.636c-42.897-10.734-56.624-64.881-24.011-94.752z" fill="#9cdd05"></path><path d="M124.302 328.222c-2.466-2.901-5.036-5.334-7.648-7.212a4.944 4.944 0 0 0-6.201.36c-32.608 29.866-18.892 84.017 24.01 94.752a4.943 4.943 0 0 0 5.624-2.636c.407-.841.781-1.732 1.138-2.648-29.787-16.46-37.923-55.634-16.923-82.616z" fill="#94c609"></path><path d="M337.625 212.314a7.563 7.563 0 1 0-12.458-8.58c-19.493 28.304-43.492 60.076-72.147 92.853l-2.542-30.875a7.563 7.563 0 1 0-15.075 1.241l3.721 45.196C172.176 385.546 93.558 449.444 4.053 496.37a7.564 7.564 0 0 0 7.023 13.398c63.84-33.47 124.784-76.962 181.511-129.479 5.891-2.031 32.15-10.225 68.671-8.819 4.156.167 7.689-3.09 7.85-7.266a7.563 7.563 0 0 0-7.267-7.849c-18.678-.721-34.824.89-47.384 3.036 45.231-44.606 86.669-94.081 123.168-147.077z" fill="#83aa2e"></path><path d="M329.58 413.715c30.055 1.827 57.188-13.413 71.993-37.343 1.738-2.81 1.253-6.495-1.142-8.771-13.04-12.394-37.78-21.675-66.625-23.428s-54.527 4.464-68.972 15.187c-2.653 1.969-3.581 5.568-2.196 8.568 11.8 25.547 36.887 43.96 66.942 45.787z" fill="#9cdd05"></path><path d="M282.808 367.928c-1.385-2.999-.457-6.598 2.196-8.568 11.067-8.216 28.734-13.781 49.361-15.149-.187-.012-.372-.027-.559-.039-28.845-1.753-54.527 4.464-68.972 15.188-2.653 1.969-3.581 5.568-2.196 8.568 11.799 25.547 36.886 43.96 66.941 45.787 5.063.308 10.04.12 14.892-.501-27.696-3.533-50.562-21.25-61.663-45.286z" fill="#94c609"></path><path d="M370.677 231.945a54.394 54.394 0 0 1-24.516-14.205c-5.085-5.106-8.742-10.981-11.143-17.242-6.645.902-13.554.516-20.475-1.491a54.4 54.4 0 0 1-24.234-14.68c-12.216 1.01-22.611 4.593-28.859 9.642a3.868 3.868 0 0 0-.999 4.772c7.157 13.821 21.478 23.41 38.131 23.745a43.378 43.378 0 0 0 30.031-11.178 43.37 43.37 0 0 0 4.621 31.709c8.293 14.445 23.583 22.401 39.142 22.039a3.866 3.866 0 0 0 3.705-3.168c1.428-7.906-.423-18.744-5.404-29.943z" fill="#9cdd05"></path><path d="M290.129 213.048a3.869 3.869 0 0 1 .999-4.772c5.414-4.375 13.943-7.646 24.07-9.099-.219-.06-.437-.108-.655-.171a54.4 54.4 0 0 1-24.234-14.68c-12.216 1.01-22.611 4.593-28.859 9.642a3.868 3.868 0 0 0-.999 4.772c6.874 13.274 20.363 22.621 36.174 23.638a43.982 43.982 0 0 1-6.496-9.33z" fill="#94c609"></path><path d="M508.212 99.848c-2.666-4.581-27.324-44.843-71.558-48.206a97.304 97.304 0 0 0-12.816.176l-1.148.092.471 1.051c7.005 15.648 9.002 31.447 7.106 48.307l.877.04c11.782.538 23.679 3.513 35.362 8.841l.367.168.355-.188c10.841-5.728 22.445-6.783 35.477-3.225 4.222 1.154 7.692-3.305 5.507-7.056z" fill="#f37d79"></path><path d="M452.476 54.541a76.606 76.606 0 0 0-15.823-2.899 97.304 97.304 0 0 0-12.816.176l-1.148.092.471 1.051c7.005 15.648 9.002 31.447 7.106 48.307l.877.04c9.334.426 18.74 2.407 28.055 5.851 1.842-18.307-.414-35.969-6.722-52.618z" fill="#d86666"></path><path d="M418.642 40.96c-24.19-37.169-71.346-39.455-76.643-39.593-4.34-.114-6.582 5.071-3.543 8.22 9.38 9.721 14.029 20.406 14.212 32.665l.005.402.324.242c13.637 10.194 23.714 22.558 29.944 36.731 4.198 10.201 6.37 19.468 7.545 29.411l.996-.402c8.962-3.617 18.525-6.008 28.405-7.105a85.202 85.202 0 0 1 11.274-.223l.762.035c2.455-21.845-1.752-41.72-13.281-60.383z" fill="#f37d79"></path><path d="M410.508 102.996c1.913-24.115-3.587-46.833-16.413-67.596-9.597-14.746-22.207-24.898-35.017-31.915-8.778-1.775-15.298-2.071-17.079-2.118-4.34-.114-6.582 5.071-3.543 8.22 9.38 9.721 14.029 20.406 14.212 32.665l.005.402.324.242c13.637 10.194 23.714 22.558 29.944 36.731 4.114 9.997 6.35 19.307 7.516 29.167.339-.051.676-.105 1.016-.154l.009-.003c6.093-2.459 12.467-4.337 19.026-5.641z" fill="#d86666"></path><path d="M343.8 146.676c13.018-17.726 29.06-30.524 47.682-38.039l.576-.232c-1.161-9.857-3.49-19.395-7.611-29.408-20.694-47.084-74.317-58.577-80.363-59.731-4.853-.927-8.31 4.471-5.489 8.546 21.533 31.149 7.895 59.383-14.633 90.009l.071.029c-16.953 26.497-7.863 61.237 18.513 76.865a55.302 55.302 0 0 0 12.806 5.537c6.757 1.959 13.752 2.469 20.787 1.514l1.017-.138-.367-.959c-6.462-16.852-3.709-38.044 7.011-53.993z" fill="#f37d79"></path><path d="m313.91 131.702-.071-.029c22.829-31.392 38.597-61.765 17.161-94.276-1.286-1.948-1.267-4.419.05-6.449a5.997 5.997 0 0 1 1.983-1.908c-14.308-6.729-26.277-9.266-28.949-9.776-4.853-.927-8.31 4.471-5.489 8.546 21.533 31.149 7.895 59.383-14.633 90.009l.071.029c-16.953 26.497-7.863 61.237 18.513 76.865a55.302 55.302 0 0 0 12.806 5.537c.929.269 1.863.505 2.801.72-16.438-18.652-18.482-46.921-4.243-69.268z" fill="#d86666"></path><path d="M510.726 141.7c-3.917-4.747-39.75-46.26-91.009-41.792-21.664 2.405-52.653 12.308-77.277 45.856-13.392 19.922-16.495 52.272 4.132 72.986a55.315 55.315 0 0 0 11.008 8.573c26.325 15.597 61.186 6.961 76.309-20.683l.077.062c15.307-34.399 34.961-59.933 71.9-56.082 4.936.516 8.001-5.113 4.86-8.92z" fill="#f37d79"></path><path d="M370.903 162.627c27.904-38.017 75.307-57.751 121.144-38.743-16.072-12.613-41.381-26.674-72.329-23.977-21.664 2.405-52.653 12.308-77.277 45.856-13.392 19.922-16.495 52.272 4.132 72.986a55.315 55.315 0 0 0 11.008 8.573 55.096 55.096 0 0 0 15.515 6.228c-18.472-20.748-15.149-51.651-2.193-70.923z" fill="#d86666"></path></g></svg>