<svg viewBox="0 0 128 128" xmlns="http://www.w3.org/2000/svg"><g><path d="M9.216 24.793C7.037 49.107 40.84 69.653 40.84 69.653l8.129-18.448c-24.133-7.7-22.716-28.151-30.358-30.87s-9.395 4.458-9.395 4.458z" fill="#f2f2f2"></path><path d="m40.839 69.653 2.112-4.137-1.1-.612S10.5 45.862 10.134 22.733a8.158 8.158 0 0 0-.915 2.06c-2.185 24.316 31.62 44.86 31.62 44.86z" fill="#e6e6e6"></path><path d="M95.372 120.827s-5.986-6.213-8.789-5.753c-2.786.466-4.278 13.26-15.354 7.942s-9.222-9.724-16.691-8.875c0 0 2.3 2.9 1.472 5.045-.15.358-.847.654-2 .852-5.634 1.067-21.762.069-29.957-5.3-9.854-6.445.305-11.655 3.04-24.807.961-4.56 2.823-10.471 2.975-16.973C31.208 23.98 43.494-2.855 77.057 3.385c0 0 17.914 4.216 21.863 19.794 3.322 13.075-2.732 34.661-3.367 51.511a17.95 17.95 0 0 0 1.98 9.3c.882 1.7 1.748 3.2 2.569 4.547l.013.02c7.89 13 12.007 10.878 13.924 18.041 2.132 7.92-6.99 16.494-18.667 14.229z" fill="#f2f2f2"></path><path d="M95.372 120.827s-5.986-6.213-8.789-5.753c-2.786.466-4.756 14.158-15.354 7.942-9.045-5.306-8.215-6.813-16.691-8.875 0 0 2.3 2.9 1.472 5.045-.15.358-.847.654-2 .852-5.634 1.067-21.762.069-29.957-5.3-9.854-6.445.305-11.655 3.04-24.807.961-4.56 1.921-10.555 2.975-16.973 0 0 .435 11.981-3.83 29.36-.444 1.81-.532 3.916.863 5.476 1.6 1.8 4.7 2.084 6.828 1.194a10.534 10.534 0 0 0 4.611-4.474c4.578-7.134 6.972-15.3 9.314-23.351-1.048 7.838-2.95 18.471 1.28 23.43 1.255 1.471 3.8.522 5.083-.632 7.257-6.417.857-9.733 4.095-23.02 1.278 12.062 6.908 23.21 19.112 28.477 2.408 1.037 5.833 1.6 6.956-.294.736-1.264-3.067-10.494-3.581-21.981 4.564 11.487 13.132 19.184 23.064 21.6.137-2.419-2.22-4.5-3.419-6.825-7.256-14.055-7.4-23.848-4.889-27.235a17.95 17.95 0 0 0 1.98 9.3c.882 1.7 1.748 3.2 2.569 4.547l.013.02c7.89 13 12.007 10.878 13.924 18.041 2.13 7.927-6.992 16.501-18.669 14.236z" fill="#e6e6e6"></path><path d="M95.372 120.827s-5.985-6.208-8.793-5.751c0 0 5.585-6.031 8.449-2.224s.344 7.975.344 7.975zM54.008 120.042c-5.412-.811-8.541-4.519-6.09-5.645 2.783-1.305 6.62-.256 6.62-.256s2.292 2.905 1.47 5.041c-.141.36-.847.657-2 .86z" fill="#cccccc"></path><path d="M125.379 31.872c-.169 24.412-35.792 41.61-35.792 41.61L83.27 54.337c24.763-5.345 25.319-25.835 33.187-27.806s8.922 5.341 8.922 5.341z" fill="#f2f2f2"></path><path d="m89.587 73.482-1.7-4.321 1.156-.5s33.033-15.938 35.625-38.924a8.167 8.167 0 0 1 .712 2.138c-.167 24.411-35.793 41.607-35.793 41.607z" fill="#e6e6e6"></path><g fill="#333"><path d="M75.168 29.617c-2.016-.606-4.245.882-4.979 3.323s.305 4.911 2.321 5.517 4.246-.881 4.98-3.322-.306-4.912-2.322-5.518zM53.319 26.5c-2.092-.24-4.023 1.618-4.313 4.151s1.169 4.78 3.261 5.02 4.022-1.619 4.313-4.151-1.17-4.782-3.261-5.02z" fill="#333333"></path><ellipse cx="59.017" cy="51.86" fill="#333333" rx="8.043" ry="7.146" transform="rotate(-78.87 58.995 51.871)"></ellipse></g></g></svg>