<svg viewBox="0 0 511.973 511.973" xmlns="http://www.w3.org/2000/svg"><g><path d="M511.944 395.44c.001 6.237-7.541 9.361-11.951 4.95L323.89 224.214a7.387 7.387 0 0 1 0-10.447l22.388-38.328 26.619-10.679 111.177 85.252 27.858 49.803z" fill="#808b95"></path><path d="m511.932 299.815-.004-39.143-27.854-10.66-63.515-75.556L397.103 151a7.387 7.387 0 0 0-10.447 0l-17.017 10.3 3.257 3.46z" fill="#5e6b75"></path><path d="M500.913 255.987c-6.342-6.969-14.441-9.163-21.027-2.577l-.002-.002c5.061-7.021 8.816-16.784 1.017-24.36-5.404-5.404-13.26-5.945-19.428-2.13l-.712-1.025c3.152-5.227 7.236-15.193-.948-23.093-4.872-4.872-11.391-5.568-17.05-2.802l-.57-.82c6.24-6.24 2.013-13.989-3.927-20.516-6.342-6.969-17.744-4.169-24.33 2.417l-55.397 55.397c-6.182 6.182-18.786 11.954-27.294 9.393l-20.399-8.037-4.696 4.676a27.253 27.253 0 0 0-7.707 23.132l5.782 26.985a32.04 32.04 0 0 1-9.061 27.197l-54.228 54.228 68.9 68.9 81.384-81.384a44.059 44.059 0 0 1 17.222-10.644c16.375-5.459 33.493-12.416 45.699-24.621l41.91-41.911c6.242-6.24 10.803-21.876 4.862-28.403z" fill="#ffece4"></path><path d="M116.277 511.963c-6.232 0-9.357-7.53-4.957-11.943l164.015-164.483c2.885-2.885 8.344-6.864 12.291-3.783l62.767 62.767c4.634 4.385-.292 12.403-3.177 15.288l-10.526 10.765-75.554 63.517-10.66 27.872z" fill="#9dcffd"></path><path d="m360.957 385.861-62.767-62.767a7.387 7.387 0 0 0-10.447 0l-12.408 12.443a7.39 7.39 0 0 1 9.114 1.058l62.767 62.767a7.387 7.387 0 0 1 0 10.447l13.74-13.501a7.388 7.388 0 0 0 .001-10.447z" fill="#84c4f4"></path><path d="m333.019 428.663-64.954-64.954c-6.182-6.182.425-21.357 6.607-27.539l5.333-5.53-18.017-18.017a27.253 27.253 0 0 0-23.132-7.707l-26.985 5.782a32.037 32.037 0 0 1-27.196-9.061l-55.051-53.206L68.2 309.855l81.384 81.384a44.059 44.059 0 0 1 10.644 17.222c5.459 16.375 12.416 33.493 24.621 45.699l52.783 52.783c6.24 6.24 16.406 6.814 22.932.874 6.969-6.342 7.16-17.139.573-23.726l4.477 4.477c6.401 6.401 16.778 6.401 23.179 0 6.4-6.401 6.4-16.778 0-23.179l2.238 2.239c6.401 6.4 16.778 6.4 23.178 0 6.401-6.4 6.401-16.778 0-23.178l1.911 1.911c4.013 4.013 9.649 5.683 14.897 4.784 2.913-.499 8.588-15.896 2.002-22.482z" fill="#ffdacc"></path><g fill="#fcccb9"><path d="m123.721 255.987 58.475 58.356a32.039 32.039 0 0 0 27.196 9.06l26.985-5.782a27.252 27.252 0 0 1 23.132 7.706l13.165 13.279a15.855 15.855 0 0 1 1.998-2.437l11.986-11.986-18.017-18.017a27.253 27.253 0 0 0-23.132-7.707l-26.985 5.782a32.037 32.037 0 0 1-27.196-9.061L137.1 240.952zM339.626 423.509l-64.954-64.954c-4.685-4.685-5.819-11.576-3.403-17.329l-9.975 9.975c-6.182 6.182-6.182 16.204 0 22.386l64.954 64.954a16.348 16.348 0 0 1 4.769 12.602 15.86 15.86 0 0 0 8.036-3.909c6.968-6.341 7.16-17.138.573-23.725z" fill="#fcccb9"></path></g><path d="m0 132.178 120.269 108.777 56.752 68.286-51.733 51.733a7.387 7.387 0 0 1-10.447 0L91.387 337.52l-63.514-75.557L0 249.156z" fill="#fd8087"></path><path d="M188.054 287.76 11.953 111.465C7.544 107.051 0 110.173 0 116.412v15.766l176.487 176.468c.191.191.368.389.534.595l11.034-11.034a7.388 7.388 0 0 0-.001-10.447z" fill="#fe646f"></path><path d="m202.108 69.025-81.384 81.384a44.059 44.059 0 0 1-17.222 10.644c-16.375 5.458-33.493 12.416-45.699 24.621L5.021 238.456c-6.24 6.24-6.814 16.406-.874 22.932 6.342 6.969 17.139 7.16 23.726.573l-4.477 4.477c-6.401 6.401-6.401 16.778 0 23.179 6.399 6.399 16.774 6.4 23.175.004l-2.235 2.235c-6.4 6.401-6.4 16.778 0 23.179s16.778 6.401 23.178 0l-1.911 1.911c-6.24 6.24-6.814 16.406-.874 22.932 6.342 6.969 12.822-.027 19.408-6.613l65.632-65.365c6.182-6.182 22.737-4.591 28.919 1.591l8.202 8.2 13.454-13.454c6.067-6.067 5.901-18.467 4.685-26.961l-5.782-26.985c-1.43-9.986 8.078-18.97 15.212-26.103l50.924-51.89z" fill="#ffece4"></path><path d="m271.009 137.925-68.9-68.9-7.939 7.939 55.511 55.511-54.228 54.228a32.04 32.04 0 0 0-9.061 27.197l5.782 26.985a27.252 27.252 0 0 1-7.706 23.132l.235.282-11.986-11.986c-6.182-6.182-16.204-6.182-22.386 0l-83.206 82.69a16.389 16.389 0 0 1-3.928 2.904c.451.687.961 1.346 1.531 1.973 6.342 6.969 17.139 7.16 23.726.573l64.954-64.954c6.182-6.182 16.204-6.182 22.386 0l11.986 11.986 18.017-18.017a27.253 27.253 0 0 0 7.707-23.132l-5.782-26.985a32.037 32.037 0 0 1 9.061-27.196z" fill="#ffdacc"></path><path d="m382.518.01-67.642 87.472-111.338 91.179-52.548-52.548a7.387 7.387 0 0 1 0-10.447l24.265-24.265 75.553-63.518L261.468.011z" fill="#abdc94"></path><path d="m382.518.01-178.98 178.651 10.219 10.219a7.387 7.387 0 0 0 10.447 0l177.24-176.915C405.86 7.557 402.738.011 396.499.011h-13.981z" fill="#8ccf75"></path><path d="M342.265 112.787c-5.458-16.375-4.616-30.473-16.822-42.678L272.66 17.326c-13.538-14.891-24.168-9.96-25.056-8.1-2.911 6.093-1.843 13.611 3.203 18.657l-4.477-4.477c-6.401-6.401-16.778-6.401-23.178 0-6.401 6.401-6.401 16.778 0 23.179l-2.239-2.239c-6.4-6.4-16.778-6.4-23.178 0-6.4 6.4-6.4 16.777 0 23.178l-1.911-1.911c-6.24-6.24-16.406-6.814-22.933-.874-6.969 6.342-7.16 17.139-.573 23.726l64.954 64.954c3.667 3.667 8.614 12.469 7.93 17.236-.469 3.268-5.415 2.636-7.93 5.15l-11.986 11.986 18.017 18.017a27.253 27.253 0 0 0 23.132 7.707l26.985-5.782c9.736-1.394 21.196 3.4 28.375 10.251a7.352 7.352 0 0 1 2.094-4.215l49.339-49.339c-5.865-9.242-29.074-45.978-30.963-51.643zM197.898 67.688l2.075 2.075z" fill="#ffdacc"></path><path d="m331.459 120.735 41.438 44.025 13.76-13.76a7.353 7.353 0 0 1 3.921-2.048l-28.217-28.217a44.059 44.059 0 0 1-10.644-17.222c-5.459-16.375-12.416-33.493-24.621-45.699L274.313 5.031c-6.24-6.24-16.406-6.814-22.933-.874a16.409 16.409 0 0 0-3.776 5.068l48.589 48.589c12.205 12.205 19.163 29.323 24.621 45.699a44.065 44.065 0 0 0 10.645 17.222zM264.405 475.993l-39.313-39.313a7.726 7.726 0 0 0-10.927 10.926l21.359 21.36.009.009 25.056 25.056a7.7 7.7 0 0 0 5.334 2.261 16.346 16.346 0 0 0-4.789-12.201l4.477 4.477a16.313 16.313 0 0 0 6.966 4.138 7.729 7.729 0 0 0-1.063-9.601zM320.134 439.007l-.02-.02-45.544-45.544a7.727 7.727 0 0 0-10.927 10.926l43.287 43.286.019.019 4.477 4.477a7.707 7.707 0 0 0 5.463 2.263 7.79 7.79 0 0 0 2.012-.265 16.323 16.323 0 0 0-4.691-9.699l1.911 1.911a17.129 17.129 0 0 0 7.367 4.348 7.729 7.729 0 0 0-1.135-9.484z" fill="#fcccb9"></path><path d="m108.035 264.028-45.544 45.544-.02.02-2.219 2.219a7.727 7.727 0 0 0-1.889 7.843 16.315 16.315 0 0 0 9.149-4.619l-1.911 1.911a17.128 17.128 0 0 0-4.162 6.763 7.709 7.709 0 0 0 4.276 1.29 7.701 7.701 0 0 0 5.463-2.263l4.477-4.477.019-.019 43.287-43.286a7.726 7.726 0 0 0-10.926-10.926z" fill="#ffdacc"></path><g fill="#fcccb9"><path d="M249.183 118.531a7.726 7.726 0 0 0 0-10.926l-45.544-45.544-.02-.019-2.219-2.219a7.728 7.728 0 0 0-8.323-1.717 16.32 16.32 0 0 0 4.656 9.417l-1.911-1.911a17.146 17.146 0 0 0-6.622-4.115 7.73 7.73 0 0 0 1.272 9.25l2.219 2.219.02.02 2.238 2.238.001.001 43.305 43.305a7.707 7.707 0 0 0 5.463 2.263 7.705 7.705 0 0 0 5.465-2.262zM262.69 93.407a7.726 7.726 0 0 0 5.463-13.189l-31.985-31.985-9.35-9.351a7.728 7.728 0 0 0-8.323-1.716 16.315 16.315 0 0 0 4.657 9.417l-2.239-2.239a16.319 16.319 0 0 0-6.228-3.902 7.727 7.727 0 0 0 1.206 9.365l2.223 2.223.015.015 39.097 39.097a7.705 7.705 0 0 0 5.464 2.265zM259.346 25.055l-7.112-7.112a7.713 7.713 0 0 0-6.217-2.226 16.346 16.346 0 0 0 4.79 12.166l-4.477-4.477a16.344 16.344 0 0 0-6.229-3.903 7.729 7.729 0 0 0 1.206 9.366l25.056 25.056.009.009 21.36 21.36c1.509 1.508 3.487 2.263 5.463 2.263s3.954-.754 5.463-2.263a7.726 7.726 0 0 0 0-10.926zM237.788 153.959c5.58 6.124 5.492 15.568-.265 21.588l11.093 11.093c1.509 1.509 3.486 2.263 5.463 2.263s3.954-.754 5.463-2.263a7.726 7.726 0 0 0 0-10.926z" fill="#fcccb9"></path></g><path d="M91.575 245.058a7.727 7.727 0 0 0-10.927 0l-39.097 39.097a7.729 7.729 0 0 0-1.206 9.366 16.32 16.32 0 0 0 6.225-3.899l-2.235 2.235a16.398 16.398 0 0 0-2.608 3.393 7.705 7.705 0 0 0 5.288 2.094 7.701 7.701 0 0 0 5.463-2.263l39.097-39.097a7.726 7.726 0 0 0 0-10.926zM64.798 214.551l-39.313 39.314a7.726 7.726 0 0 0-.486 10.392 16.417 16.417 0 0 0 2.873-2.295l-2.603 2.603a7.707 7.707 0 0 0 5.679 2.488 7.703 7.703 0 0 0 5.463-2.263l39.313-39.314a7.726 7.726 0 1 0-10.926-10.925z" fill="#ffdacc"></path><path d="m294.711 459.942-.015-.015-39.097-39.097a7.727 7.727 0 0 0-10.927 10.926l31.985 31.985 9.35 9.351a7.701 7.701 0 0 0 5.463 2.263 7.79 7.79 0 0 0 2.012-.265 16.323 16.323 0 0 0-4.691-9.699l2.238 2.239a16.313 16.313 0 0 0 6.966 4.138 7.729 7.729 0 0 0-1.062-9.601z" fill="#fcccb9"></path><path d="M508.773 251.758c-6.01-7.944-17.64-8.805-24.699-1.746 7.243-7.245 6.281-5.99 8.569-11.288 1.702-5.603.339-11.938-4.091-16.368a16.356 16.356 0 0 0-13.182-4.723c-2.934.3-5.528 1.291-7.765 2.854a16.53 16.53 0 0 0-2.227 1.866c1.778-2.021 4.802-4.021 6.325-9.041l.001-.004c1.702-5.603.339-11.938-4.091-16.368-6.476-6.476-16.859-6.329-23.178 0 1.046-1.265 3.993-3.191 5.791-7.883 2.196-5.699 1.242-12.293-3.006-16.961-6.342-6.968-17.139-7.16-23.726-.573l-64.954 64.954c-6.182 6.182-16.204 6.182-22.386 0l-11.986-11.986-13.321 13.342 11.985 11.985c6.182 6.182 16.204 6.182 22.386 0l64.954-64.954c6.586-6.586 17.384-6.395 23.725.573l.061.067c3.06 3.401 2.766 8.659-.469 11.894L394.1 236.787c-3.081 3.081-3.25 8.293-.092 11.297a7.7 7.7 0 0 0 5.322 2.125 7.701 7.701 0 0 0 5.463-2.263l37.383-37.383c3.388-3.388 8.972-3.53 12.305-.088l.229.241c3.188 3.428 3.024 8.794-.287 12.105l-32.938 32.938c-3.079 3.08-3.249 8.29-.095 11.293a7.704 7.704 0 0 0 5.326 2.129 7.701 7.701 0 0 0 5.463-2.263l30.936-30.936c3.388-3.388 8.972-3.53 12.305-.089l.229.241c3.188 3.428 3.024 8.794-.287 12.104l-38.027 38.027c-3.079 3.08-3.249 8.29-.095 11.293a7.704 7.704 0 0 0 5.326 2.129 7.701 7.701 0 0 0 5.463-2.263l28.183-28.184c10.899-10.899 28.331 4.243 18.64 16.229-.245.303-.502.6-.772.893l12.843-12.843c5.837-5.836 6.828-15.181 1.85-21.761z" fill="#ffdacc"></path></g></svg>