<svg viewBox="0 0 512 512" xmlns="http://www.w3.org/2000/svg"><g><path d="M391.202 214.869 270.404 335.667l.001 90.134h241.594l.001-90.134z" fill="#54d8ff"></path><path d="M120.798 214.869 0 335.667l.001 90.134h241.594l.001-90.134z" fill="#8de5ff"></path><path d="M391.201 305.003H211v165.798l300.998-45z" fill="#282e34"></path><path d="M256 305.003H120.798L.001 425.801l255.999 45z" fill="#3f4852"></path><path d="M256 512h255.998v-86.199H256l-45 43.1z" fill="#449370"></path><path d="M.001 425.801H256V512H.001z" fill="#48a763"></path><path d="m301.067 305.003 45.067 45.067 45.067-45.067L256 169.803l-30 90.133 30 90.133z" fill="#c2f1ff"></path><path d="M255.999 169.802 120.798 305.003l45.067 45.067 45.067-45.067L256 350.07z" fill="#e6faff"></path><path d="M346.133 0c-21.032 0-40.805 8.19-55.675 23.062L256 57.521l-15 42.426h15l55.672-55.672C320.876 35.069 333.115 30 346.133 30c26.872 0 48.734 21.862 48.734 48.734l15 15 15-15C424.868 35.32 389.547 0 346.133 0z" fill="#68a3ff"></path><path d="M200.326 113.194c-9.204 9.205-21.442 14.274-34.461 14.274-26.872 0-48.734-21.862-48.734-48.734l-15-15-15 15c0 43.414 35.32 78.734 78.734 78.734 21.033 0 40.805-8.19 55.675-23.062L256 99.946V57.521z" fill="#5ebdff"></path><path d="M311.672 113.194c9.204 9.205 21.442 14.274 34.461 14.274 26.872 0 48.734-21.862 48.734-48.734h30c0 43.414-35.32 78.734-78.734 78.734-21.033 0-40.805-8.19-55.675-23.062l-34.46-34.46-15-42.426h15z" fill="#7288ff"></path><path d="M165.865 0c21.032 0 40.805 8.19 55.675 23.062l34.458 34.458v42.426l-55.672-55.672C191.122 35.069 178.884 30 165.865 30c-26.872 0-48.734 21.862-48.734 48.734h-30C87.131 35.32 122.451 0 165.865 0z" fill="#68a3ff"></path></g></svg>