<svg viewBox="0 0 512 512" xmlns="http://www.w3.org/2000/svg"><g><path d="M504.486 184.629a7.469 7.469 0 0 1-3.4-.819c-12-6.117-24.852-9.397-38.198-9.75-4.141-.11-7.409-3.555-7.299-7.696s3.579-7.384 7.696-7.299c15.597.413 30.607 4.242 44.613 11.381a7.5 7.5 0 0 1-3.412 14.183zM423.536 95.959a7.474 7.474 0 0 1-5.303-2.197 7.5 7.5 0 0 1 0-10.606L447.388 54a7.5 7.5 0 0 1 10.606 0 7.5 7.5 0 0 1 0 10.606l-29.156 29.156a7.47 7.47 0 0 1-5.302 2.197zM345.404 56.409a7.5 7.5 0 0 1-7.494-7.301c-.355-13.427-3.633-26.274-9.742-38.183a7.5 7.5 0 0 1 3.25-10.096 7.498 7.498 0 0 1 10.096 3.25c7.142 13.924 10.974 28.94 11.39 44.631a7.5 7.5 0 0 1-7.5 7.699zM177.135 512a7.5 7.5 0 0 1-6.688-4.096c-7.139-14.007-10.968-29.018-11.381-44.614a7.5 7.5 0 0 1 7.299-7.696c4.129-.079 7.586 3.158 7.696 7.299.353 13.346 3.633 26.198 9.75 38.199A7.5 7.5 0 0 1 177.135 512zM59.309 460.197A7.474 7.474 0 0 1 54.006 458a7.5 7.5 0 0 1 0-10.606l29.155-29.156a7.498 7.498 0 0 1 10.606 0 7.5 7.5 0 0 1 0 10.606L64.612 458a7.476 7.476 0 0 1-5.303 2.197zM48.918 352.911l-.203-.002c-15.691-.416-30.706-4.249-44.63-11.391a7.5 7.5 0 0 1 6.847-13.347c11.908 6.109 24.754 9.387 38.181 9.742a7.501 7.501 0 0 1-.195 14.998z" fill="#e5e4ec"></path><path clip-rule="evenodd" d="m170.59 317.283-4.312-23.502-19.818-.628-16.334 16.334c-16.448 16.449-39.378 24.273-62.423 21.646l-13.079-1.485c-3.255-.343-3.941.171-4.34 3.512l-1.371 12.251-1.399 12.251c-.428 3.741.885 5.626 4.74 6.054l11.594 1.314c33.324 3.798 66.62-7.682 90.407-31.412l14.735-2.142z" fill="#ffd772" fill-rule="evenodd"></path><path clip-rule="evenodd" d="m218.821 365.514-4.969-21.474-19.132-2.656-12.422 5.511-3.941 10.851-.143.143c-23.701 23.788-35.038 56.97-31.268 90.238l1.314 11.622c.428 3.827 2.342 5.14 6.054 4.712l12.25-1.371 12.25-1.399c3.37-.371 3.884-1.085 3.512-4.341l-1.485-13.05c-2.627-23.045 5.197-46.004 21.645-62.453zM448.123 146.943c-33.267-3.769-66.449 7.567-90.236 31.269l-.143.143-10.594 4.598-5.74 11.765-.171 19.333 24.272 4.769 16.334-16.334c16.448-16.449 39.407-24.273 62.451-21.646l13.05 1.485c3.255.371 3.969-.143 4.34-3.512l1.399-12.251 1.371-12.251c.428-3.712-.885-5.626-4.712-6.054z" fill="#4fc9af" fill-rule="evenodd"></path><path clip-rule="evenodd" d="M333.614 154.254c23.787-23.816 35.209-57.056 31.411-90.41l-1.314-11.594c-.428-3.855-2.313-5.169-6.054-4.74l-12.25 1.399-12.25 1.371c-3.341.4-3.855 1.085-3.512 4.341L331.13 67.7c2.627 23.045-5.197 45.976-21.645 62.424l-16.334 16.334.4 26.5 23.73-2.37 16.248-4.255z" fill="#ffd772" fill-rule="evenodd"></path><path clip-rule="evenodd" d="m408.716 79.122-75.101 75.132-16.334 16.334.114 23.216 24.015.914 16.477-16.506 74.959-74.961a3.879 3.879 0 0 0 0-5.483l-9.309-9.309-9.338-9.338a3.932 3.932 0 0 0-5.483.001zM154.085 333.76c.2-.2.143-.143 0 0zm40.635 7.624v-20.532l-24.13-3.57-91.464 91.438a3.931 3.931 0 0 0 0 5.483l9.338 9.338 9.309 9.309a3.879 3.879 0 0 0 5.483 0l91.464-91.466z" fill="#f37c7c" fill-rule="evenodd"></path><path clip-rule="evenodd" d="m317.281 170.588-24.13-24.13-3.655-3.655c-3.341-3.341-9.052-3.056-12.679.6L143.405 276.789c-3.655 3.655-3.912 9.366-.6 12.708l3.655 3.655 24.13 24.13 24.13 24.102 24.101 24.13 3.684 3.655c3.312 3.341 9.024 3.056 12.679-.6l133.384-133.387c3.655-3.655 3.941-9.367.6-12.679l-3.655-3.684-24.101-24.102z" fill="#375e7d" fill-rule="evenodd"></path><path clip-rule="evenodd" d="m182.326 457.352-1.485-13.05c-2.627-23.045 5.197-46.004 21.645-62.453l16.334-16.334-12.051-12.051-16.334 16.334c-27.528 27.528-28.299 69.392-21.274 92.98l9.652-1.085c3.371-.372 3.885-1.086 3.513-4.341zM381.845 202.486c16.448-16.449 39.407-24.273 62.451-21.646l13.05 1.485c3.255.371 3.969-.143 4.34-3.512l.942-8.224-30.412-1.799c-23.044-2.627-45.975 5.197-62.423 21.646l-16.334 16.334 12.05 12.051z" fill="#26bb9e" fill-rule="evenodd"></path><path clip-rule="evenodd" d="m341.41 194.718 16.477-16.506 74.959-74.961a3.879 3.879 0 0 0 0-5.483l-9.309-9.309-2.713-2.713c1.456 1.513 1.456 3.969-.029 5.454l-74.959 74.961-16.505 16.477zM103.256 432.85l74.959-74.961.143-.143 16.362-16.363-12.079-12.051L91.205 420.8a3.931 3.931 0 0 1-5.483 0l2.741 2.741 9.309 9.309a3.878 3.878 0 0 0 5.484 0z" fill="#e6646e" fill-rule="evenodd"></path><path clip-rule="evenodd" d="M142.177 321.566c.029-.029-.114.086-.086.086 0-.029.029-.029.029-.029v-.029c.057-.029.057-.029.029 0 0 0-.029 0-.029.029l.057-.057zm28.413-4.283-12.079-12.079-16.334 16.363-.057.057-.029.029c-.029 0-.029.029-.057.057-23.758 23.616-59.453 32.583-92.72 28.785l-.971-.114-.828 7.282c-.428 3.741.885 5.626 4.74 6.054l11.594 1.314c33.324 3.798 66.62-7.682 90.407-31.412zM333.614 154.254c23.787-23.816 35.209-57.056 31.411-90.41l-1.314-11.594c-.428-3.855-2.313-5.169-6.054-4.74l-7.282.828.114.971c3.798 33.354-5.14 69.078-28.927 92.866L305.2 158.509l12.079 12.079z" fill="#fbba58" fill-rule="evenodd"></path><path clip-rule="evenodd" d="m235.183 368.57 133.384-133.387c3.655-3.655 3.941-9.367.6-12.679l-3.655-3.684-12.05-12.051-8.367-8.367c3.284 3.341 2.998 9.024-.628 12.65l-3.055 3.056-129.645 129.646-.714.714c-3.655 3.655-9.366 3.912-12.679.6l8.395 8.396 12.051 12.051 3.684 3.655c3.313 3.341 9.024 3.055 12.679-.6z" fill="#2b4d66" fill-rule="evenodd"></path></g></svg>