<svg viewBox="0 0 512 512" xmlns="http://www.w3.org/2000/svg"><g><path d="M143.013 57.445c.664.049 1.329.102 1.993.158 59.211 5.017 104.922 54.369 105.905 113.784.01.58.016 1.16.02 1.74.248 38.236-14.08 75.136-39.276 103.897l-35.656 40.7a119.718 119.718 0 0 0-29.669 78.891c0 32.18-26.087 58.267-58.267 58.267-32.18 0-58.267-26.087-58.267-58.267V372.63a29.088 29.088 0 0 0-14.898-25.392A29.093 29.093 0 0 1 0 321.844v-6.997a29.088 29.088 0 0 1 14.898-25.392l5.88-3.286c9.008-5.034 14.731-14.46 14.898-24.777.259-15.998-7.114-35.292-13.187-58.151C2.022 126.193 63.51 51.572 143.013 57.445z" fill="#ffdfcf"></path><g fill="#ffcebf"><path d="M250.91 171.387c-.983-59.415-46.694-108.767-105.905-113.784-.664-.056-1.329-.109-1.993-.158-7.317-.54-14.48-.394-21.442.369 58.151 6.027 102.759 54.888 103.73 113.573.01.58.016 1.16.02 1.74.248 38.236-14.08 75.136-39.276 103.897l-35.656 40.7a119.718 119.718 0 0 0-29.669 78.891c0 27.778-19.445 51-45.462 56.838a58.407 58.407 0 0 0 12.805 1.429c32.18 0 58.267-26.087 58.267-58.267a119.725 119.725 0 0 1 29.669-78.891l35.656-40.7c25.196-28.761 39.525-65.661 39.276-103.897-.003-.58-.01-1.16-.02-1.74z" fill="#ffcebf"></path><path d="M90.269 226.835s37.53 8.98 19.556 35.413c-9.344 13.741-14.045 31.269-16.405 44.932-2.951 17.088-19.229 28.611-36.33 25.732l-.396-.067s7.757 10.874 16.875 13.136c0 0 11.666 3.932 22.639-2.806 0 0 16.554-11.4 16.142-35.061 0 0 10.665-35.122 27.418-54.767 0 0 10.266-23.479-9.046-35.483.001-.001-20.184-14.106-40.453 8.971zM53.352 211.237s-3.873-109.786 111.854-85.249c0 0-37.994-38.688-89.949-6.371 0 .001-43.311 22.283-21.905 91.62z" fill="#ffcebf"></path></g><path d="M206.694 106.271c-19.145-20.6-45.15-31.267-72.464-31.267-30.409 0-58.599 13.976-77.339 38.345-27.034 35.152-28.287 88.91 1.607 116.347 12.096 11.104 31.104 10.421 42.369-1.522.444-.327 5.254-6.878 14.706-7.015l.291-.002c5.178 0 10.036 2.011 13.706 5.682a19.372 19.372 0 0 1 2.922 23.689l-13.485 22.492c-9.215 15.372-15.123 32.17-17.558 49.927-1.787 13.034-14.45 15.615-14.631 15.729-7.373 2.279-15.357-.322-20.333-6.628-3.874-4.909-8.755-8.778-14.505-11.496a7.723 7.723 0 0 0-10.287 3.683 7.726 7.726 0 0 0 3.683 10.287c3.625 1.714 6.561 4.035 8.978 7.098 8.963 11.361 23.498 16 37.027 11.82.163-.106 22.177-5.074 25.377-28.393 2.15-15.678 7.365-30.509 15.502-44.08l13.485-22.492a34.803 34.803 0 0 0-5.247-42.561c-6.717-6.719-15.626-10.355-25.15-10.204-16.529.24-25.204 11.489-25.719 11.861-5.501 5.828-14.777 6.164-20.681.743-21.47-19.707-21.164-55.541-3.129-78.994 12.158-15.809 30.418-24.875 50.097-24.875 18.824 0 35.32 7.617 47.079 20.27a63.824 63.824 0 0 1 17.096 42.458 7.727 7.727 0 0 0 7.722 7.599l.131-.001a7.727 7.727 0 0 0 7.598-7.853 79.258 79.258 0 0 0-21.227-52.721c-22.683-24.407-56.466-30.43-84.007-20.908 12.971-8.311 28.092-12.829 43.924-12.829 24.454 0 45.881 9.91 61.145 26.333 35.97 38.706 24.886 99.817-8.796 138.265l-35.656 40.7c-24.776 28.282-38.246 64.022-37.933 100.64.058 6.8-2.586 13.181-7.445 17.969-4.857 4.786-11.314 7.346-18.082 7.173-13.416-.314-24.331-11.746-24.331-25.485a7.726 7.726 0 1 0-15.452 0c0 36.103 43.161 54.493 68.712 29.319 7.865-7.751 12.146-18.088 12.051-29.109-.283-32.821 11.829-64.898 34.104-90.324l35.656-40.7c38.718-44.202 50.203-114.087 8.489-158.97z" fill="#ffb09e"></path><path d="m364.707 210.552 12.247 17.972c26.908 39.486 27.921 91.148 2.582 131.659h56.561l64.855-62.518-31.39-50.389-64.844-30.977z" fill="#685e68"></path><path d="M394.397 275.099h35.156c12.972 0 23.487-10.516 23.487-23.487V215.06h-82.13v36.551c0 12.972 10.516 23.488 23.487 23.488z" fill="#f9f7f8"></path><path d="M512 293.51c0-26.075-60.653-113.135-137.725-121.508-6.57-.714-12.498 3.99-13.355 10.543l-.349 2.672c-2.78 21.268 10.067 41.286 30.398 48.121 37.953 12.759 78.805 45.16 93.392 56.527 2.552 1.989 2.941 5.729.8 8.155-23.238 26.333-55.385 42.919-91.629 54.832-21.86 7.185-35.593 28.808-32.611 51.625.856 6.553 6.785 11.256 13.355 10.543C451.346 406.645 512 319.586 512 293.51z" fill="#fe76a8"></path><path d="M374.275 172.002c-6.068-.659-11.579 3.307-13.062 9.078 75.909 12.842 134.347 88.982 134.347 112.43s-58.438 99.588-134.347 112.429c1.483 5.772 6.994 9.738 13.062 9.078C451.346 406.645 512 319.586 512 293.51s-60.654-113.135-137.725-121.508z" fill="#fe5694"></path><path d="M291.574 318.456a7.728 7.728 0 0 1-7.212-4.951c-5.299-13.757-5.668-29.051-1.04-43.065 4.629-14.015 14.034-26.08 26.484-33.975a7.727 7.727 0 0 1 8.276 13.05c-9.442 5.987-16.574 15.139-20.086 25.771s-3.232 22.232.787 32.664a7.728 7.728 0 0 1-7.209 10.506z" fill="#8ac9fe"></path><path d="M317.766 308.384a7.728 7.728 0 0 1-7.211-4.951c-2.979-7.728-3.186-16.321-.586-24.193s7.883-14.65 14.877-19.086a7.727 7.727 0 0 1 8.276 13.05c-4.043 2.564-6.976 6.327-8.481 10.882-1.504 4.554-1.389 9.323.332 13.791a7.726 7.726 0 0 1-4.432 9.987 7.677 7.677 0 0 1-2.775.52z" fill="#8ac9fe"></path></g></svg>