<svg viewBox="0 0 68 68" xmlns="http://www.w3.org/2000/svg"><g><path d="m41.743 22.924-15.807-6.086c-5.26-2.02-11.1.125-13.88 4.82a1.632 1.632 0 0 0 .82 2.353l17.95 6.906z" fill="#488ff7"></path><path d="M46.85 35.633a50.676 50.676 0 0 1-7.489 3.145L9.204 48.747a2.989 2.989 0 0 1-3.375-1.095 2.99 2.99 0 0 1 .208-3.76l.984-1.087c.348-.385.407-.948.148-1.4l-4.862-8.392a2.048 2.048 0 0 1 .947-2.9 8.495 8.495 0 0 1 9.036 1.347l3.293 2.856c.393.34.963.385 1.407.119l24.999-15.216c13.846-7.956 21.424-6.298 23.555-2.043 2.487 4.98-6.186 11.982-18.693 18.457z" fill="#dbdbdb"></path><path d="m65.781 17.754-7.778 2.257a3.46 3.46 0 0 1-3.878-1.45l-2.427-3.767c7.77-2.465 12.278-.74 13.846 2.382.097.193.17.385.237.578z" fill="#488ff7"></path><path d="M48.078 21.695a.5.5 0 0 1-.258-.929l2.544-1.526a.5.5 0 1 1 .515.857l-2.544 1.527a.498.498 0 0 1-.257.07zM42.906 24.761a.5.5 0 0 1-.258-.928l2.544-1.527a.5.5 0 1 1 .514.858l-2.544 1.526a.498.498 0 0 1-.256.071zM37.733 27.828a.5.5 0 0 1-.258-.93l2.544-1.525a.5.5 0 0 1 .515.857l-2.544 1.526a.498.498 0 0 1-.257.072zM32.561 30.894a.5.5 0 0 1-.257-.929l2.544-1.526a.5.5 0 1 1 .514.857l-2.544 1.527a.498.498 0 0 1-.257.07zM27.389 33.96a.5.5 0 0 1-.258-.929l2.544-1.526a.5.5 0 1 1 .515.858l-2.544 1.526a.498.498 0 0 1-.257.071zM22.217 37.027a.5.5 0 0 1-.258-.93l2.544-1.525a.5.5 0 0 1 .514.857l-2.544 1.526a.498.498 0 0 1-.256.072z" fill="#304056"></path><path d="M41.225 33.55c.954-.072 1.7.824 1.455 1.749l-3.837 14.538c-1.443 5.447-6.6 8.926-12.033 8.43a1.632 1.632 0 0 1-1.428-2.043l4.8-18.171c.072-.275.223-.528.44-.712 2.728-2.32 6.35-3.468 10.603-3.79zM16.99 34.434c-3.7 8.94-9.97 8.37-9.97 8.37.35-.38.41-.95.15-1.4l-4.86-8.39c-.62-1.05-.17-2.41.94-2.9 2.96-1.32 6.5-.87 9.04 1.35l3.29 2.85c.4.34.97.39 1.41.12z" fill="#488ff7"></path><path d="M4.709 56.948a.5.5 0 0 1-.222-.949l8.46-4.175a.5.5 0 1 1 .442.897l-8.46 4.175a.497.497 0 0 1-.22.052zM15.355 51.693a.5.5 0 0 1-.221-.948l2.186-1.08a.5.5 0 0 1 .443.898l-2.187 1.079a.5.5 0 0 1-.22.051zM4.157 62.435a.5.5 0 0 1-.222-.949l3.45-1.702a.5.5 0 0 1 .442.897l-3.45 1.702a.5.5 0 0 1-.22.052zM10.03 59.537a.5.5 0 0 1-.223-.948l6.962-3.436a.5.5 0 0 1 .442.897l-6.961 3.436a.5.5 0 0 1-.22.051zM10.247 65.602a.5.5 0 0 1-.221-.949l7.294-3.6a.5.5 0 1 1 .443.897l-7.295 3.6a.496.496 0 0 1-.22.052zM20.114 60.732a.5.5 0 0 1-.222-.948l2.967-1.464a.5.5 0 1 1 .443.896l-2.967 1.465a.496.496 0 0 1-.22.051z" fill="#b9b9b9"></path><path d="M20.406 8.523a3.072 3.072 0 0 0-2.938-2.205h-.05a3.081 3.081 0 0 0-3.03-3.63c-.84 0-1.59.33-2.15.86-.76-.72-1.8-1.15-2.94-1.15-2.25 0-4.1 1.72-4.31 3.92h-.02c-1.394 0-2.56.934-2.938 2.205h18.376zM59.281 10.023a3.072 3.072 0 0 0-2.938-2.205h-.05a3.081 3.081 0 0 0-3.03-3.63c-.84 0-1.59.33-2.15.86-.76-.72-1.8-1.15-2.94-1.15-2.25 0-4.1 1.72-4.31 3.92h-.02c-1.394 0-2.56.934-2.938 2.205H59.28z" fill="#dbdbdb"></path></g></svg>