<svg viewBox="0 0 511.585 511.585" xmlns="http://www.w3.org/2000/svg"><g><path d="m25.585 379.115 177.088-69.867-3.231 33.538-162.847 64.237z" fill="#8a4534"></path><path d="m0 331.356 161.728-92.188 25.861 19.823-172.736 98.43zM174.192 237.617 206.99 97.572l128.336 43.13-11.265 27.805-95.853-29.97-24.805 105.919z" fill="#b36a38"></path><path d="m306.933 414.014-.001-30.001h59.323v-84.567l29.463 7.183v107.384z" fill="#8a4534"></path><path d="m335.326 140.702-173.598 98.466 18.857 51.809 121.96-17.437 62.977-49.874z" fill="#ffdd32"></path><path d="m395.718 306.629-30.196-82.963-184.937 67.311 18.857 51.809z" fill="#ffbb33"></path><path d="M409.951 126.906c-39.239 14.282-59.543 57.824-45.261 97.062l78.979-10.872 63.344-40.929c-14.281-39.239-57.823-59.543-97.062-45.261z" fill="#b36a38"></path><path d="m507.014 172.167-142.323 51.801c14.282 39.239 57.824 59.543 97.062 45.261s59.542-57.823 45.261-97.062z" fill="#8a4534"></path></g></svg>