<svg viewBox="0 0 512 512" xmlns="http://www.w3.org/2000/svg"><g><path d="M390.385 469.94c-4.484 0-8.118-3.634-8.118-8.118s3.634-8.118 8.118-8.118c13.921 0 25.247-11.326 25.247-25.247V309.326c0-4.484 3.634-8.118 8.118-8.118s8.118 3.634 8.118 8.118v119.131c0 22.874-18.609 41.483-41.483 41.483z" fill="#afb9d2"></path><path d="M442.231 275.776H405.27c-8.221 0-14.885-6.664-14.885-14.885v-39.445h66.731v39.444c0 8.222-6.664 14.886-14.885 14.886z" fill="#515262"></path><path d="M432.37 221.447v39.444c0 8.221-6.664 14.885-14.885 14.885h24.746c8.221 0 14.885-6.664 14.885-14.885v-39.444H432.37z" fill="#373842"></path><path d="M512 96.124c0-49.158-40.192-88.928-89.508-88.241-47.355.659-86.077 39.176-86.975 86.526-.505 26.598 10.762 50.574 28.94 67.073 10.096 9.163 15.805 22.196 15.805 35.831v13.019c0 9.092 7.371 16.463 16.463 16.463h54.049c9.092 0 16.463-7.371 16.463-16.463v-13.019c0-13.698 5.816-26.726 15.94-35.953C500.886 145.221 512 121.972 512 96.124z" fill="#ffc06c"></path><path d="M422.493 7.884a87.584 87.584 0 0 0-15.316 1.588c40.708 7.842 71.458 43.656 71.458 86.653 0 25.847-11.114 49.097-28.822 65.236-10.124 9.227-15.94 22.255-15.94 35.953v13.019c0 9.092-7.371 16.463-16.463 16.463h33.366c9.092 0 16.463-7.371 16.463-16.463v-13.019c0-13.698 5.816-26.726 15.94-35.953C500.886 145.221 512 121.972 512 96.124c0-49.157-40.192-88.927-89.507-88.24z" fill="#ffa75f"></path><path d="m295.729 388.855-115.208-17.503-111.297 17.301C29.383 394.847 0 429.151 0 469.47v34.655h365.232v-34.411c0-40.426-29.536-74.787-69.503-80.859z" fill="#bbd7ff"></path><path d="M197.694 456.377h-26.806l-5.864 47.748h38.534z" fill="#5b5d6e"></path><path d="M205.233 440.461c0 11.566-9.376 20.942-20.942 20.942s-20.942-9.376-20.942-20.942v-13.822h41.884v13.822z" fill="#515262"></path><path d="M280.477 292.749H266.07v-48.586h14.406c6.25 0 11.318 5.067 11.318 11.318v25.951c0 6.25-5.067 11.317-11.317 11.317z" fill="#e89f8e"></path><path d="M248.374 426.639H123.559l-8.62-87.06 138.686-1.319z" fill="#f4ab98"></path><path d="m251.917 367.001-5.497 7.003c-13.129 8.474-25.039 11.611-33.438 12.845-53.862 7.914-94.791-43.104-98.034-47.27l138.685-1.319-1.716 28.741z" fill="#f29d86"></path><path d="M85.561 292.749h15.381v-48.586H85.561c-6.25 0-11.318 5.067-11.318 11.318v25.951c0 6.25 5.067 11.317 11.318 11.317z" fill="#f7b89c"></path><path d="m246.219 345.305-34.78 19.511a51.121 51.121 0 0 1-25.009 6.536h-6.093a51.121 51.121 0 0 1-24.779-6.407l-35.511-19.681a43.582 43.582 0 0 1-22.456-38.119v-143.54h170.888v143.69a43.581 43.581 0 0 1-22.26 38.01z" fill="#f7b89c"></path><path d="m239.179 163.605-3.37-7.12-103.036 4.188s5.445 14.66 11.548 23.036c6.103 8.377 26.986 16.754 43.321 18.429l2.803.287c25.73 2.628 45.305 24.299 45.305 50.163v48.784a43.583 43.583 0 0 1-22.259 38.01l-34.78 19.511a51.114 51.114 0 0 1-22.383 6.462 51.109 51.109 0 0 0 24.01 5.997h6.093a51.116 51.116 0 0 0 25.009-6.536l34.781-19.511a43.581 43.581 0 0 0 22.259-38.01v-143.69h-29.301z" fill="#f4ab98"></path><path d="m218.937 96.622-65.27-4.466c-11.28-.772-20.838 8.206-20.773 19.513-35.228 0-63.785 28.558-63.785 63.785v21.139c0 3.111.583 6.195 1.719 9.091l15.093 38.479h11.67v-38.254h5.434c18.946 0 34.305-15.359 34.305-34.305 7.439 9.411 18.948 15.457 31.875 15.457h68.353c17.077 0 30.92 13.843 30.92 30.92v26.182h11.69l9.858-31.703a42.254 42.254 0 0 0 1.908-12.555v-25.12c0-41.194-31.9-75.351-72.997-78.163z" fill="#515262"></path><path d="m218.937 96.622-65.27-4.466c-11.28-.772-20.838 8.206-20.773 19.513-8.498 15.497-10.173 39.371 4.435 59.935 7.439 9.411 18.948 15.457 31.875 15.457h68.353c17.077 0 30.92 13.843 30.92 30.92v26.182h11.69l9.858-31.703a42.254 42.254 0 0 0 1.908-12.555v-25.12c.001-41.194-31.899-75.351-72.996-78.163z" fill="#464754"></path><path d="M130.224 187.061c-2.909 0-6.122-.783-9.356-1.995-10.783-4.044-22.891-.871-30.132 8.085-4.877 6.032-11.758 10.377-19.63 12.024l-.278.51 15.093 38.479h11.67V205.91h5.434c13.384 0 24.969-7.669 30.623-18.848h-3.424v-.001zM218.937 96.622l-65.27-4.466a19.347 19.347 0 0 0-9.98 1.984l36.268 2.482c41.097 2.812 72.997 36.969 72.997 78.163v16.385c9.276 5.338 15.526 15.341 15.526 26.811v26.182h11.69l9.858-31.703a42.254 42.254 0 0 0 1.908-12.555v-25.12c0-41.194-31.9-75.351-72.997-78.163z" fill="#373842"></path><path d="m118.212 368.105 65.53 58.534-41.998 30.892c-2.892 2.209-7.084 1.189-8.639-2.101L99.34 383.972l11.824-15.226a4.84 4.84 0 0 1 7.048-.641zM249.537 368.15l-65.795 58.489 42.334 30.892c2.892 2.209 7.084 1.189 8.639-2.101l33.764-70.715-11.85-15.846a4.84 4.84 0 0 0-7.092-.719z" fill="#859fff"></path><path d="M235.809 239.387h-23.096a6.283 6.283 0 0 1 0-12.566h23.096a6.283 6.283 0 0 1 0 12.566zM155.869 239.387h-23.096a6.283 6.283 0 0 1 0-12.566h23.096a6.283 6.283 0 0 1 0 12.566z" fill="#515262"></path><circle cx="144.32" cy="259.17" fill="#515262" r="7.726"></circle><circle cx="224.26" cy="258.84" fill="#515262" r="7.726"></circle><path d="M185.245 325.263a32.993 32.993 0 0 1-24.135-10.496 6.283 6.283 0 0 1 9.187-8.573 20.417 20.417 0 0 0 15.724 6.488c5.621-.213 10.775-2.646 14.512-6.853a6.282 6.282 0 0 1 8.869-.524 6.282 6.282 0 0 1 .524 8.869c-6.034 6.791-14.355 10.721-23.431 11.064-.417.017-.835.025-1.25.025z" fill="#515262"></path><path d="M21.444 414.283C8.06 428.922 0 448.367 0 469.47v34.655h63.804v-47.483c0-23.394-18.965-42.359-42.36-42.359zM301.428 455.357v48.768h63.804v-34.411c0-21.223-8.15-40.767-21.666-55.431h-1.064c-22.685 0-41.074 18.39-41.074 41.074z" fill="#859fff"></path><path d="M429.531 105.753H417.968a6.046 6.046 0 0 1-6.039-6.039v-6.725a6.046 6.046 0 0 1 6.039-6.039h12.81a4.795 4.795 0 0 1 4.79 4.791c0 4.484 3.634 8.118 8.118 8.118s8.118-3.634 8.118-8.118c0-11.226-8.851-20.399-19.938-20.971v-5.918c0-4.484-3.634-8.118-8.118-8.118s-8.118 3.634-8.118 8.118v5.987c-11.188 1.172-19.938 10.657-19.938 22.15v6.725c0 12.283 9.992 22.275 22.275 22.275H429.53a6.046 6.046 0 0 1 6.039 6.039v6.725a6.046 6.046 0 0 1-6.039 6.039h-12.809a4.796 4.796 0 0 1-4.792-4.791c0-4.484-3.634-8.118-8.118-8.118s-8.118 3.634-8.118 8.118c0 11.226 8.851 20.399 19.938 20.971v5.918c0 4.484 3.634 8.118 8.118 8.118s8.118-3.634 8.118-8.118v-5.987c11.188-1.172 19.938-10.657 19.938-22.15v-6.725c.001-12.283-9.991-22.275-22.274-22.275z" fill="#464754"></path></g></svg>