<svg viewBox="0 0 511.989 511.989" xmlns="http://www.w3.org/2000/svg"><g><path d="m369.85 353.85 50-18.671s-4.391-58.296-5.516-58.483c-1.14-.187-41.14-70.842-41.14-70.842l-87.998-43.999-50.67-9.344-60.671 27.344-55.999 57.998-21.859 93.327 40.53 11.328 3.328-53.327 19.343-49.999 46.655-33.999 48.343-5.625 48.999 2.953 35.999 30 30.655 47.342v39.999l.001 33.998z" fill="#a0d468"></path><path d="m460.521 330.509-4-40.656-20-70.67-26.671-35.624-48-44.374-81.326-24.671h-33.998l-39.999 7.343-47.327 19.328-31.203 13.999-31.999 40L64.53 260.51l-16.672 40.671 32.672 34 15.468-30.939 13.859-57.731 39.999-59.858 57.343-26.14 77.997-6.658 61.327 29.704 37.468 23.624 25.203 48 10.656 44.669v35.329z" fill="#fc6e51"></path><path d="M153.184 343.102a106.134 106.134 0 0 1-3.859-28.438c0-58.826 47.843-106.669 106.669-106.669 58.812 0 106.653 47.843 106.653 106.669a106.18 106.18 0 0 1-3.859 28.438h22a127.417 127.417 0 0 0 3.203-28.438c0-70.592-57.42-128.012-127.997-128.012-70.592 0-127.997 57.42-127.997 128.012a127.42 127.42 0 0 0 3.188 28.438h21.999z" fill="#5d9cec"></path><path d="M109.357 343.102a150.733 150.733 0 0 1-2.703-28.438c0-39.89 15.531-77.389 43.733-105.606 28.218-28.202 65.718-43.733 105.607-43.733 39.874 0 77.373 15.531 105.591 43.733 28.203 28.218 43.734 65.717 43.734 105.606 0 9.656-.922 19.156-2.703 28.438h21.688a173.428 173.428 0 0 0 2.344-28.438c0-45.592-17.75-88.45-49.984-120.684-32.233-32.234-75.092-49.983-120.669-49.983-45.592 0-88.451 17.749-120.685 49.983-32.233 32.233-49.983 75.092-49.983 120.684 0 9.625.796 19.125 2.359 28.438h21.671z" fill="#ffce54"></path><path d="M66.077 343.102c-1.391-9.328-2.078-18.828-2.078-28.438 0-51.295 19.968-99.513 56.233-135.777 36.249-36.249 84.467-56.233 135.762-56.233 51.28 0 99.497 19.984 135.747 56.233 36.265 36.265 56.249 84.482 56.249 135.777 0 9.609-.703 19.109-2.094 28.438h21.531a214.644 214.644 0 0 0 1.891-28.438c0-56.982-22.188-110.56-62.483-150.855-40.297-40.296-93.873-62.482-150.841-62.482-56.982 0-110.56 22.187-150.856 62.482-40.295 40.296-62.482 93.874-62.482 150.856 0 9.594.641 19.078 1.891 28.438h21.53v-.001z" fill="#ed5564"></path><path d="M149.325 325.32h-23.281c-4.484-12.266-16.312-21.078-30.046-21.078-6.641 0-12.937 2.016-18.218 5.672-7.5-3.891-15.828-5.922-24.453-5.922C23.921 303.992 0 327.914 0 357.319s23.921 53.343 53.327 53.343h95.998c23.515 0 42.671-19.141 42.671-42.671s-19.156-42.671-42.671-42.671zM458.646 303.992c-8.625 0-16.938 2.031-24.453 5.922a31.872 31.872 0 0 0-18.202-5.672c-13.75 0-25.578 8.812-30.062 21.078h-23.281c-23.53 0-42.654 19.141-42.654 42.671s19.124 42.671 42.654 42.671h95.999c29.405 0 53.342-23.938 53.342-53.343s-23.937-53.327-53.343-53.327z" fill="#e6e9ed"></path></g></svg>