<svg viewBox="0 0 512 512" xmlns="http://www.w3.org/2000/svg"><g><path d="m267.774 72.317-24.976-24.976c-6.503-6.502-17.045-6.502-23.548 0-5.45 5.45-6.313 13.73-2.628 20.099h-11.054c-48.177 0-91.712 30.383-108.33 75.603l-11.155 30.355c-3.172 8.631 1.254 18.2 9.885 21.372a16.623 16.623 0 0 0 5.742 1.026c6.782-.001 13.154-4.175 15.63-10.912l11.155-30.355c11.823-32.173 42.797-53.789 77.073-53.789h11.054c-3.685 6.369-2.822 14.649 2.628 20.099 3.252 3.251 7.513 4.877 11.774 4.877s8.522-1.626 11.774-4.877l24.976-24.976c6.502-6.501 6.502-17.044 0-23.546z" fill="#99e6fc"></path><path d="M47.4 478.699h-.305l5.469-5.469a21.525 21.525 0 0 0 6.305-15.22v-42.154l-49.666-22.92v7.971c0 3.914.551 7.808 1.636 11.568l12.405 42.981-13.836 13.835A32.12 32.12 0 0 0 0 492.004v9.59C0 507.341 4.659 512 10.407 512H47.87c9.463 0 17.082-7.894 16.631-17.455-.421-8.956-8.136-15.846-17.101-15.846z" fill="#444444"></path><path d="m245.807 462.192-48.34-60.636v-53.098a47.863 47.863 0 0 0-14.02-33.846l-1.566-1.566h15.149a22.982 22.982 0 0 0 21.33-14.426l.291-.724a18.115 18.115 0 0 0-4.446-19.982l-2.936-2.744a41.862 41.862 0 0 0 1.225-12.985c-1.261-20.677-17.945-37.502-38.612-38.919-24.317-1.667-44.56 17.565-44.56 41.525 0 2.526.237 4.995.669 7.397-10.296-1.119-20.988 2.259-28.881 10.152l-78.694 78.694c-7.268 7.268-13.214 21.624-13.214 31.902a18.942 18.942 0 0 0 10.55 16.982l75.988 37.556v54.119c0 5.747 4.659 10.407 10.407 10.407h37.463c9.463 0 17.082-7.894 16.631-17.455-.422-8.956-8.136-15.846-17.102-15.846H129.04v-35.127a35.793 35.793 0 0 0-10.482-25.307l-16.709-16.709 60.257-45.956-5.921 46.583a20.125 20.125 0 0 0 4.862 15.84l53.436 60.675h-.755c-8.966 0-16.68 6.89-17.102 15.846-.45 9.562 7.169 17.455 16.631 17.455h12.576a18.38 18.38 0 0 0 17.722-13.504l4.146-15.067a30.469 30.469 0 0 0-1.894-21.236z" fill="#9c9c9c"></path><g fill="#838383"><path d="M143.14 478.699h-14.099v-35.127a35.793 35.793 0 0 0-10.482-25.307l-10.572-10.572c-8.702 12.941-18.199 23.764-28.057 31.967l15.811 7.814v54.119c0 5.747 4.659 10.407 10.407 10.407h37.463c9.463 0 17.082-7.894 16.631-17.455-.422-8.956-8.137-15.846-17.102-15.846zM245.807 462.192l-48.34-60.636v-53.098a47.863 47.863 0 0 0-14.02-33.846l-1.566-1.566h15.149a22.982 22.982 0 0 0 21.33-14.426l.291-.724a18.115 18.115 0 0 0-4.446-19.982l-2.936-2.744a41.862 41.862 0 0 0 1.225-12.985c-1.261-20.677-17.945-37.502-38.612-38.919-8.408-.576-16.327 1.349-23.093 5.101 3.359 27.376 1.552 59.472-6.318 92.736-5.846 24.709-14.397 47.336-24.666 66.758l42.299-32.26-5.921 46.583a20.125 20.125 0 0 0 4.862 15.84l53.436 60.675h-.755c-8.966 0-16.68 6.89-17.102 15.846-.45 9.562 7.169 17.455 16.631 17.455h12.576a18.38 18.38 0 0 0 17.722-13.504l4.146-15.067a30.454 30.454 0 0 0-1.892-21.237zM113.674 392.537a7.5 7.5 0 0 0-1.186-1.557l-11.321-11.321a7.5 7.5 0 0 0-10.607 10.607l11.289 11.289z" fill="#838383"></path></g><path d="m426.481 170.713-60.796-46.872-21.604 28.021 65.575 50.557a20.815 20.815 0 0 0 15.377 4.158l71.542-9.252c9.69-1.253 16.529-10.124 15.276-19.814-1.253-9.69-10.124-16.529-19.814-15.276z" fill="#ffbd86"></path><path d="m426.481 170.713-60.796-46.872-21.604 28.021 65.575 50.557a20.815 20.815 0 0 0 15.377 4.158l71.542-9.252c9.69-1.253 16.529-10.124 15.276-19.814-1.253-9.69-10.124-16.529-19.814-15.276zM453.015 478.699h-7.852v-96.384c0-3.323-.498-6.627-1.477-9.802L404.64 245.909l-84.41 29.999 86.56 119.916-1.174 105.77c0 5.747 4.659 10.407 10.407 10.407h37.463c9.463 0 17.082-7.894 16.631-17.455-.422-8.957-8.137-15.847-17.102-15.847z" fill="#f6a96c"></path><path d="M379.304 96.077c14.287-6.606 24.201-21.064 24.181-37.844 0-4.518.023-11.907.023-16.425.098-22.865-18.241-41.47-41.004-41.803-23.234-.34-42.248 19.166-42.248 42.403l-.023 15.876c0 10.764 4.086 20.574 10.792 27.963l-3.035 11.054c-10.779 5.513-18.163 16.72-18.163 29.658l-.004 351.74.052 22.894c0 5.747 4.659 10.407 10.406 10.407h36.993c8.966 0 16.68-6.89 17.102-15.845.45-9.562-7.169-17.455-16.631-17.455h-8.374l24.758-150.766a41.22 41.22 0 0 1 10.874-21.798l17.103-17.896a42.541 42.541 0 0 0 11.786-29.391V143.61c0-22.226-14.52-41.051-34.588-47.533z" fill="#fed2a4"></path><path d="M407.581 210.481c-25.001 58.752-61.353 105.125-97.756 129.755l-.001 138.464.052 22.894c0 5.747 4.659 10.407 10.406 10.407h36.993c8.966 0 16.68-6.89 17.102-15.845.45-9.562-7.169-17.455-16.631-17.455h-8.374l24.758-150.766a41.22 41.22 0 0 1 10.874-21.798l17.103-17.896a42.541 42.541 0 0 0 11.786-29.391v-64.144a399.607 399.607 0 0 1-6.312 15.775zM326.287 210.689l35.57-68.029-31.355-16.394-38.366 73.377a20.812 20.812 0 0 0-1.417 15.866l21.568 68.838c2.921 9.324 12.848 14.514 22.171 11.593 9.324-2.921 14.514-12.848 11.593-22.171z" fill="#ffbd86"></path><path d="m326.287 210.689 35.57-68.029-31.355-16.394-38.366 73.377a20.812 20.812 0 0 0-1.417 15.866l21.568 68.838c2.921 9.324 12.848 14.514 22.171 11.593 9.324-2.921 14.514-12.848 11.593-22.171z" fill="#fed2a4"></path><g fill="#f6a96c"><path d="m313.826 125.787-4 7.65v32.218L327 132.659a7.304 7.304 0 0 0-3.094-9.843l-.225-.117a7.303 7.303 0 0 0-9.855 3.088zM358.844 149.278l-32.556 61.411 19.633 62.662c2.926 9.338-2.008 19.542-11.322 22.543a17.694 17.694 0 0 1-5.435.859c-7.528 0-14.507-4.843-16.877-12.407l-2.462-7.857v28.965c5.46 4.003 12.172 6.299 19.339 6.299 3.312 0 6.602-.505 9.779-1.5 8.507-2.665 15.434-8.549 19.446-16.536 3.89-7.743 4.38-16.761 1.789-25.03l-17.719-56.554 29.308-56.052a7.303 7.303 0 0 0-12.923-6.803z" fill="#f6a96c"></path></g></g></svg>