<svg viewBox="0 0 512 512" xmlns="http://www.w3.org/2000/svg"><g><path d="M271 168.89v39.12c0 8.29-6.72 15-15 15s-15-6.71-15-15v-39.12c0-8.29 6.72-15 15-15s15 6.71 15 15zM271 303.99v39.12c0 8.29-6.72 15-15 15s-15-6.71-15-15v-39.12c0-8.29 6.72-15 15-15s15 6.71 15 15z" fill="#47568c"></path><path d="M256 223.01v-69.12c8.28 0 15 6.71 15 15v39.12c0 8.29-6.72 15-15 15zM256 358.11v-69.12c8.28 0 15 6.71 15 15v39.12c0 8.29-6.72 15-15 15z" fill="#2c3b73"></path><path d="M208.012 271h-39.126c-8.284 0-15-6.716-15-15s6.716-15 15-15h39.126c8.284 0 15 6.716 15 15s-6.716 15-15 15z" fill="#47568c"></path><path d="M343.114 271h-39.126c-8.284 0-15-6.716-15-15s6.716-15 15-15h39.126c8.284 0 15 6.716 15 15s-6.716 15-15 15z" fill="#2c3b73"></path><circle cx="256" cy="256" fill="#979fef" r="56.76"></circle><path d="M497 241h-27.74C461.88 135.05 376.95 50.12 271 42.74V15c0-8.28-6.72-15-15-15s-15 6.72-15 15v27.74C135.05 50.12 50.12 135.05 42.74 241H15c-8.28 0-15 6.72-15 15s6.72 15 15 15h27.74C50.12 376.95 135.05 461.88 241 469.26V497c0 8.28 6.72 15 15 15s15-6.72 15-15v-27.74c105.95-7.38 190.88-92.31 198.26-198.26H497c8.28 0 15-6.72 15-15s-6.72-15-15-15zm-84.42 30h26.59C431.92 360.4 360.4 431.92 271 439.17v-26.59c0-8.29-6.72-15-15-15s-15 6.71-15 15v26.59C151.6 431.92 80.08 360.4 72.83 271h26.59c8.29 0 15-6.72 15-15s-6.71-15-15-15H72.83C80.08 151.6 151.6 80.08 241 72.83v26.59c0 8.29 6.72 15 15 15s15-6.71 15-15V72.83C360.4 80.08 431.92 151.6 439.17 241h-26.59c-8.29 0-15 6.72-15 15s6.71 15 15 15z" fill="#47568c"></path><path d="M312.76 256c0 31.29-25.47 56.76-56.76 56.76V199.24c31.29 0 56.76 25.47 56.76 56.76z" fill="#737ee6"></path><path d="M512 256c0 8.28-6.72 15-15 15h-27.74C461.88 376.95 376.95 461.88 271 469.26V497c0 8.28-6.72 15-15 15V397.58c8.28 0 15 6.71 15 15v26.59c89.4-7.25 160.92-78.77 168.17-168.17h-26.59c-8.29 0-15-6.72-15-15s6.71-15 15-15h26.59C431.92 151.6 360.4 80.08 271 72.83v26.59c0 8.29-6.72 15-15 15V0c8.28 0 15 6.72 15 15v27.74C376.95 50.12 461.88 135.05 469.26 241H497c8.28 0 15 6.72 15 15z" fill="#2c3b73"></path></g></svg>