<svg viewBox="0 0 512 512" xmlns="http://www.w3.org/2000/svg"><g><path d="M256 512C114.84 512 0 397.16 0 256S114.84 0 256 0s256 114.84 256 256-114.84 256-256 256zm0 0" fill="#ffdc64"></path><path d="M512 256C512 114.84 397.16 0 256 0v512c141.16 0 256-114.84 256-256zm0 0" fill="#ffbc4b"></path><path d="M256 447.734c-105.723 0-191.734-86.011-191.734-191.734S150.277 64.266 256 64.266 447.734 150.277 447.734 256 361.723 447.734 256 447.734zm0 0" fill="#fff095"></path><path d="M447.734 256c0-105.723-86.011-191.734-191.734-191.734v383.468c105.723 0 191.734-86.011 191.734-191.734zm0 0" fill="#ffdc64"></path><path d="M299.387 304.824A65.22 65.22 0 0 1 256 321.332c-36.023 0-65.332-29.309-65.332-65.332s29.309-65.332 65.332-65.332c17.434 0 33.836 6.8 46.184 19.144 5.855 5.86 15.351 5.86 21.21 0s5.86-15.355 0-21.21c-14.421-14.426-32.64-23.653-52.394-26.762V143.53c0-8.281-6.715-15-15-15s-15 6.719-15 15v18.32c-45.465 7.215-80.332 46.684-80.332 94.149s34.867 86.934 80.332 94.148v18.32c0 8.282 6.715 15 15 15s15-6.718 15-15v-18.343a95.165 95.165 0 0 0 48.328-22.887c6.188-5.504 6.742-14.984 1.235-21.175-5.5-6.192-14.985-6.747-21.176-1.239zm0 0" fill="#ffbc4b"></path><g fill="#ff9c32"><path d="M302.184 209.813c5.855 5.859 15.351 5.859 21.21 0s5.86-15.356 0-21.211c-14.421-14.426-32.64-23.653-52.394-26.762V143.53c0-8.281-6.715-15-15-15v62.133c17.434.004 33.836 6.8 46.184 19.149zM271 368.469v-18.344a95.165 95.165 0 0 0 48.328-22.887c6.188-5.504 6.742-14.984 1.235-21.175-5.5-6.188-14.985-6.747-21.176-1.239A65.203 65.203 0 0 1 256 321.336v62.133c8.285 0 15-6.719 15-15zm0 0" fill="#ff9c32"></path></g></g></svg>