<svg fill-rule="evenodd" viewBox="0 0 7111 7111" xmlns="http://www.w3.org/2000/svg"><g><path d="M3514 5902c-123-2-244-14-362-34 6 1 11 2 17 3-274-228-447-705-531-1273 268 45 550 74 834 86v1217c14 0 28 1 42 1zm-383-38c-10-2-20-4-29-6 9 2 19 4 29 6zm-48-9c-10-2-19-5-29-7 10 3 19 5 29 7zm-48-11-27-6zm-50-12c-8-2-15-4-23-6 8 2 15 4 23 6zm-49-13c-6-1-13-3-20-5 7 2 14 4 20 5zm-47-13c-795-236-1415-883-1614-1694 279 202 702 355 1185 453 71 502 211 945 427 1240zm751-1118c281 5 562-8 828-40-86 546-258 1002-528 1223l7-1c-115 19-232 30-352 32 15 0 30-1 45-1zm1002-63c471-73 886-207 1166-411-223 763-823 1365-1584 1591 208-283 345-703 418-1180zm-421 1181c-8 3-15 5-22 7 7-2 14-4 22-7zm-45 13c-8 2-16 4-24 7 8-3 16-5 24-7zm-43 12c-10 2-19 4-29 7 10-3 19-5 29-7zm-45 10c-10 3-20 5-31 7 11-2 21-4 31-7zm-45 10c-11 3-22 5-33 7 11-2 22-4 33-7zm-47 10c-10 2-21 4-31 6 10-2 21-4 31-6zM1229 3863c-10-73-16-148-19-224h1196c-4 253 7 504 32 745-544-107-996-284-1209-521zm1349-224h894v861c-293-10-584-39-857-84-28-249-40-512-37-777zm1062 0h894c4 280-9 559-40 821-272 34-563 48-854 44zm1065 0h1196c-3 97-13 193-28 286-217 259-666 425-1206 511 30-257 42-526 38-797zm-3495-1c0-11-1-22-1-33 0 11 1 22 1 33zm-1-132c0-11 1-22 1-33 0 11-1 22-1 33zm1-35c3-75 9-150 19-223 219-242 690-426 1255-537-39 246-63 502-74 760zm1448-791c260-43 536-71 814-83v874h-889c10-269 35-537 75-791zm982-88c273-5 546 5 803 34 46 269 75 557 87 845h-890zm977 56c560 80 1029 250 1254 522 16 98 27 199 30 301H4701c-11-280-40-559-84-823zm-3340 342c209-839 869-1501 1708-1712-214 294-374 746-471 1260-504 93-948 245-1237 452zm1786-1730c5-1 9-2 14-3-5 1-9 2-14 3zm46-9c6-1 12-2 19-4-7 2-13 3-19 4zm47-9 21-3-21 3zm48-7c7-2 14-3 21-4-7 1-14 2-21 4zm31-5c92-12 185-20 279-21-14 0-28 0-42 1v1228c-266 9-531 33-784 71 108-575 295-1056 547-1279zm361-21c94 1 186 8 277 21 247 218 432 684 543 1244-251-29-513-42-776-39V1210c-15-1-30-1-44-1zm282 21 21 3-21-3zm47 7c7 1 14 3 22 4-8-1-15-3-22-4zm48 8c7 2 13 3 20 4-7-1-13-2-20-4zm49 10c5 1 11 2 16 3-5-1-11-2-16-3zm48 10c4 1 9 2 13 3-4-1-9-2-13-3zm47 11c819 202 1469 834 1698 1642-291-210-729-348-1226-422-98-496-254-932-463-1218zm1784 2197c1 11 1 22 1 33 0-11 0-22-1-33zm1 132c0 11 0 22-1 33 1-11 1-22 1-33z" fill="#5b5b5b"></path><g fill="#e2e3e3"><path d="M3169 5871c-96-16-190-38-282-66-716-976-594-3579 98-4527 82-20 165-36 250-48-790 698-935 3920-66 4641zm704-4641c86 11 171 28 253 48 692 948 814 3551 98 4528-93 27-187 49-284 65 880-720 721-3944-67-4641zM3556 5903c-29 0-56-1-84-2V1210c58-2 109-2 168 0v4691c-28 1-56 2-84 2z" fill="#e2e3e3"></path><path d="M1275 4112c-20-81-35-164-46-249 694 771 3929 914 4645 62-16 99-38 195-65 289-977 710-3589 583-4534-102zm-47-864c12-87 28-173 49-258 949-680 3568-773 4538-72 23 82 42 166 56 252-721-872-3949-689-4643 78zM1210 3639c-2-59-2-109 0-168h4691c2 59 2 109 0 168z" fill="#e2e3e3"></path></g><path d="M3154 6715c-5 0-10-1-15-1-554-69-1079-291-1522-631-53-41-61-119-16-169 99-113 93-285-13-391s-278-111-391-12c-50 44-128 36-169-17-340-443-558-969-631-1522-8-67 42-127 109-131 150-10 267-135 267-286 0-150-118-275-267-285-68-4-117-64-109-131 72-554 291-1079 631-1522 41-53 119-61 169-17 113 99 285 93 391-13s112-277 13-390c-45-50-37-128 16-169 443-340 969-558 1522-631 67-9 127 41 132 108 9 150 134 268 285 268 150 0 275-118 285-268 4-67 64-116 131-108 553 72 1079 291 1522 631 53 41 61 119 17 169-99 113-94 284 12 391 106 106 278 112 391 13 50-45 128-37 169 16 340 443 559 969 631 1522 8 67-41 127-109 131-149 10-267 135-267 286 0 150 118 275 268 285 67 4 116 64 108 131-72 553-291 1079-631 1522-41 53-119 61-169 16-113-99-284-93-391 13-106 106-111 278-13 391 45 50 37 128-16 169-443 340-969 558-1522 630-67 9-127-41-131-108-10-150-135-267-286-267-150 0-275 118-285 267-4 62-55 110-116 110zm2110-752c-102-199-65-445 94-605 160-160 406-196 605-94 257-361 429-777 503-1214-213-68-361-268-361-494 0-227 148-427 361-495-74-437-246-853-503-1214-199 103-445 66-605-94s-196-406-94-605c-361-257-777-429-1214-503-68 213-268 361-494 361-227 0-427-148-495-361-437 74-853 246-1214 503 103 199 66 445-94 605s-406 197-605 94c-257 361-429 777-503 1214 213 68 361 268 361 495 0 226-148 426-361 494 74 437 246 853 503 1214 199-102 445-66 605 94s197 406 94 605c361 257 777 429 1214 503 68-213 268-361 495-361 226 0 426 148 494 361 437-74 853-246 1214-503z" fill="#e0e0e0"></path><path d="M3556 973c-268 0-486-218-486-486S3288 1 3556 1c267 0 485 218 485 486s-218 486-485 486z" fill="#7c7c7d"></path><path d="M5725 1871c-268 0-485-217-485-485 0-269 217-486 485-486 130 0 252 50 344 142 189 190 189 498 0 687-92 92-214 142-344 142z" fill="#747475"></path><path d="M6624 4041c-268 0-485-218-485-485 0-268 217-486 485-486s486 218 486 486c0 267-218 485-486 485z" fill="#717172"></path><path d="M5725 6211c-129 0-251-51-343-142-190-190-190-498 0-687 190-190 497-190 687 0 189 189 189 497 0 687-92 92-214 142-344 142z" fill="#999999"></path><path d="M3556 7110c-268 0-486-218-486-486s218-485 486-485c267 0 485 217 485 485s-218 486-485 486z" fill="#797979"></path><path d="M1386 6211c-130 0-252-51-344-142-189-190-189-498 0-687 190-190 497-190 687 0 190 189 190 497 0 687-92 92-214 142-343 142z" fill="#8b8b8b"></path><path d="M487 4041c-268 0-486-218-486-485 0-268 218-486 486-486s486 218 486 486c0 267-218 485-486 485z" fill="#888888"></path><path d="M1386 1871c-130 0-252-50-344-142-189-189-189-497 0-687 190-189 498-189 687 0 190 190 190 497 0 687-92 92-214 142-343 142z" fill="#525253"></path></g></svg>