<svg viewBox="0 0 512 512" xmlns="http://www.w3.org/2000/svg"><g><path d="M198.194 291.194h115.613v113.451H198.194z" fill="#e2a975"></path><path d="M272.516 512h-33.032l-16.516-115.613h66.064z" fill="#f4dbb3"></path><path d="M148.645 330.323 99.03 348.364l-3.093 1.49C73.093 358.161 66.5 390 66.5 403.844v91.64L74.323 512h41.29l8.721-8 7.796 8h107.355v-83.905z" fill="#ff8086"></path><path d="M198.194 291.194c17.264 9.132 36.916 14.354 57.806 14.354s40.542-5.222 57.806-14.354V256H198.194z" fill="#d19a6e"></path><path d="M148.645 82.581h-82.58a8.258 8.258 0 0 0-8.258 8.258 8.258 8.258 0 0 0 8.258 8.258h82.581V82.581z" fill="#db4655"></path><path d="M367.484 148.645h-4.129V99.097H163.667L160 189.936C164.23 245.354 199.498 288 256 288c5.724 0 11.343.584 16.823-.279 48.611-7.659 86.313-47.981 90.115-97.785h4.546c11.402 0 20.645-9.244 20.645-20.645 0-11.403-9.243-20.646-20.645-20.646z" fill="#ecbd83"></path><path d="M181.677 181.677v-82.58h-33.032v49.548h-4.129c-11.402 0-20.645 9.243-20.645 20.645s9.243 20.645 20.645 20.645h4.546c4.23 55.419 50.435 99.097 106.938 99.097 5.649 0 11.412-.47 16.823-1.312-51.454-7.94-91.146-52.366-91.146-106.043z" fill="#e2a975"></path><path d="m148.645 82.581 33.034 62.792c55.607-11.046 90.837-46.276 90.837-46.276l6.253 25.012c1.13 4.519 5.723 7.229 10.205 5.965 13.307-3.752 39.918-13.031 57.864-30.977v33.032c0 9.122 7.395 16.516 16.516 16.516s16.516-7.394 16.516-16.516V99.097l-14.12-16.516z" fill="#6e4848"></path><path d="M181.677 82.581h-33.032l-16.516 16.516v33.032c0 8.978 7.194 16.497 16.172 16.515a168.504 168.504 0 0 0 33.377-3.271V82.581z" fill="#643c3e"></path><path d="M378.224 66.064C370.573 28.37 337.243 0 297.29 0h-33.032C189 0 166.5 36.973 166.5 82.581l15.177 16.516h140.387z" fill="#ff8086"></path><path d="M214.71 173.419a8.253 8.253 0 0 1-8.258-8.258v-8.258a8.256 8.256 0 0 1 8.258-8.258 8.256 8.256 0 0 1 8.258 8.258v8.258a8.253 8.253 0 0 1-8.258 8.258zM297.29 173.419a8.253 8.253 0 0 1-8.258-8.258v-8.258c0-4.56 3.694-8.258 8.258-8.258s8.258 3.698 8.258 8.258v8.258a8.253 8.253 0 0 1-8.258 8.258z" fill="#785353"></path><path d="M239.484 381.938c0-7.476-3.438-14.532-9.24-19.246-19.826-16.111-31.687-33.556-36.962-42.628a8.233 8.233 0 0 0-10.201-3.516l-34.436 13.775s26.299 57.303 90.839 97.773z" fill="#f5ebcd"></path><path d="M256 231.226c-13.137 0-25.452-3.274-35.629-9.46-3.895-2.371-5.137-7.452-2.766-11.347s7.452-5.145 11.347-2.766c14.968 9.097 39.129 9.097 54.097 0a8.264 8.264 0 0 1 11.347 2.766c2.371 3.895 1.129 8.976-2.766 11.347-10.178 6.186-22.493 9.46-35.63 9.46z" fill="#c38c66"></path><g fill="#e5646e"><path d="M264.258 0H214.71c-45.608 0-82.581 36.972-82.581 82.581v16.516h49.548V82.581C181.677 36.972 218.65 0 264.258 0zM378.224 66.065h-39.643c-9.121 0-16.516 7.394-16.516 16.516v16.516h57.806V82.581c0-5.657-.564-11.179-1.647-16.516zM74.323 395.586c0-19.152 9.53-36.58 24.708-47.222l-3.172 1.153c-22.845 8.307-38.052 30.018-38.052 54.327v91.64c0 9.121 7.395 16.516 16.516 16.516zM132.129 512h-16.516v-57.806a8.258 8.258 0 0 1 8.258-8.258 8.258 8.258 0 0 1 8.258 8.258z" fill="#e5646e"></path></g><path d="m363.355 330.323 52.787 19.195c22.845 8.307 38.052 30.018 38.052 54.326v91.64c0 9.122-7.395 16.516-16.516 16.516h-41.29l-8.637-6.5-7.879 6.5H272.516v-83.905z" fill="#ff8086"></path><path d="M272.516 381.938c0-7.476 3.438-14.532 9.24-19.246 19.826-16.111 31.687-33.556 36.962-42.628a8.233 8.233 0 0 1 10.201-3.516l34.436 13.775s-26.299 57.303-90.839 97.773z" fill="#f5ebcd"></path><path d="M379.871 512h16.516v-57.806a8.258 8.258 0 0 0-8.258-8.258 8.258 8.258 0 0 0-8.258 8.258z" fill="#e5646e"></path></g></svg>