<svg viewBox="0 0 512 512" xmlns="http://www.w3.org/2000/svg"><g><path d="M481.276 404.705H470.2v-82.349a84.119 84.119 0 0 0-82.7-84L304.234 94.145a80.874 80.874 0 0 0-140.074 0L23.956 337.016a80.84 80.84 0 0 0 70.023 121.273H495a4 4 0 0 0 4-4V422.4a17.73 17.73 0 0 0-17.724-17.695z" fill="#ffe177"></path><path d="M481.276 404.705h-190.23a17.716 17.716 0 0 0-17.7 17.7v31.887a4 4 0 0 0 4 4H495a4 4 0 0 0 4-4V422.4a17.73 17.73 0 0 0-17.724-17.695z" fill="#837683"></path><path d="M481.276 404.705h-7.81a17.564 17.564 0 0 1 3.416 10.4v31.887a4 4 0 0 1-4 4H273.35v3.293a4 4 0 0 0 4 4H495a4 4 0 0 0 4-4V422.4a17.73 17.73 0 0 0-17.724-17.695z" fill="#685e68"></path><path d="M470.2 404.705v-82.349a84.037 84.037 0 1 0-168.073 0v82.349z" fill="#f97888"></path><path d="M234.211 186.689c12.687 0 23.654 10.412 23.1 23.127l-3.554 80.819c-.528 10.744-8.8 19.573-19.545 19.573-10.773 0-19.1-8.829-19.574-19.573l-3.553-80.819c-.555-12.715 10.411-23.127 23.127-23.127zm0 145.424a19.6 19.6 0 1 0 19.573 19.6 19.6 19.6 0 0 0-19.573-19.6z" fill="#fe646f"></path><path d="M234.211 186.689a23.377 23.377 0 0 0-6.748 1c9.582 2.892 16.818 11.739 16.364 22.126l-3.553 80.819a20.5 20.5 0 0 1-12.815 18.318 18.9 18.9 0 0 0 6.752 1.254c10.744 0 19.017-8.828 19.545-19.572l3.553-80.819c.556-12.715-10.409-23.126-23.098-23.126zM234.211 332.113a19.515 19.515 0 0 0-6.749 1.217 19.58 19.58 0 0 1 0 36.767 19.589 19.589 0 1 0 6.749-37.984z" fill="#fd4755"></path><path d="M333.9 324.85a8 8 0 0 1-7.966-8.85 60.616 60.616 0 0 1 42.7-51.611 8 8 0 1 1 4.671 15.3 45.227 45.227 0 0 0-31.457 38 8 8 0 0 1-7.948 7.161z" fill="#f299a8"></path><g fill="#f97888"><path d="M305.606 244.093a7.978 7.978 0 0 1-5.654-2.34l-20.412-20.384a8 8 0 1 1 11.307-11.322l20.412 20.384a8 8 0 0 1-5.653 13.662zM386.161 214.483a8 8 0 0 1-8-8v-32.609a8 8 0 1 1 16 0v32.608a8 8 0 0 1-8 8.001zM466.745 244.093a8 8 0 0 1-5.657-13.658l20.383-20.384a8 8 0 1 1 11.315 11.314L472.4 241.749a7.977 7.977 0 0 1-5.655 2.344z" fill="#f97888"></path></g><path d="M409.363 404.705v-62.859a23.188 23.188 0 0 0-46.376 0v62.859zM386.161 238.319c-2.7 0-5.366.141-8 .391a84.145 84.145 0 0 1 76.039 83.646v82.349h16v-82.349a84.132 84.132 0 0 0-84.039-84.037z" fill="#fe646f"></path><path d="M386.161 318.672a23.07 23.07 0 0 0-8 1.423 23.214 23.214 0 0 1 15.2 21.751v62.859h16v-62.859a23.215 23.215 0 0 0-23.2-23.174z" fill="#fd4755"></path><path d="m350.074 246.476-7.314-12.661-70.1-121.437a43.384 43.384 0 0 0-38.45-22.228 46.929 46.929 0 0 0-6.726.491 43.229 43.229 0 0 1 31.752 21.735l80.722 139.833a84.086 84.086 0 0 1 10.116-5.733z" fill="#efce67"></path><path d="M273.35 454.288V422.4c0-.186.022-.366.028-.551H93.979a44.4 44.4 0 0 1-38.447-66.6l140.2-242.874a44.389 44.389 0 0 1 76.922 0l70.1 121.437 7.314 12.661a83.528 83.528 0 0 1 36.087-8.157c.447 0 .887.027 1.333.034L304.234 94.145a80.874 80.874 0 0 0-140.074 0L23.956 337.016a80.84 80.84 0 0 0 70.023 121.273h183.372a4 4 0 0 1-4.001-4.001z" fill="#fe646f"></path><path d="M370.123 239.873a84.026 84.026 0 0 1 16.038-1.554c.447 0 .887.027 1.333.034l-83.26-144.208a80.036 80.036 0 0 0-70.024-40.434 83.336 83.336 0 0 0-9.131.509A80 80 0 0 1 286 94.145z" fill="#fd4755"></path></g></svg>