<svg viewBox="0 0 512 512" xmlns="http://www.w3.org/2000/svg"><g><path d="M135.664 465.915c-2.82-1.61-11.994 9.285-14.754 7.565C48.32 428.31 0 347.8 0 256 0 114.62 114.62 0 256 0s256 114.62 256 256c0 66.2-25.13 126.53-66.37 171.97-10.68 11.77-45.021-.041-57.701 9.579z" fill="#3c3c99"></path><circle cx="256" cy="232.542" fill="#5e5ebc" r="205.921"></circle><path d="m383.05 469.88-12.77-7.435c-35.368 20.263-63.258 48.17-106.63 49.443-2.541.075-5.091.112-7.65.112-21.832 0-43.027-2.734-63.261-7.878-22.491-5.718-34.986-23.22-54.653-34.448l-8.806.206c0-70.07 56.81-126.88 126.88-126.88 70.08 0 126.89 56.81 126.89 126.88z" fill="#98e565"></path><path d="M283.84 346.03c-56.77 12.62-99.22 63.28-99.22 123.85v32.03a254.727 254.727 0 0 1-55.34-23.43v-8.6c0-70.07 56.8-126.88 126.88-126.88 9.51 0 18.77 1.05 27.68 3.03z" fill="#81cc50"></path><path d="M405.809 149.899V302.38c0 22.363-18.116 40.479-40.468 40.479h-220.21c-21.607 0-39.118-17.511-39.118-39.118V151.516C106.013 68.661 172.555.257 255.422.001a150.486 150.486 0 0 1 32.684 3.467c.012.012.023.012.035.012 2.967.64 5.899 1.385 8.796 2.199 31.427 8.924 58.642 27.832 78.003 53.092 19.362 25.249 30.869 56.838 30.869 91.128z" fill="#ffd939"></path><path d="M288.141 3.48c-67.613 14.893-117.948 76.13-117.948 148.234v191.145H145.13c-21.607 0-39.118-17.511-39.118-39.118V151.516C106.012 68.661 172.554.257 255.421.001a150.486 150.486 0 0 1 32.684 3.467c.013.012.025.012.036.012z" fill="#ffc23b"></path><path d="M296.752 292.402v72.525c0 22.345-18.128 40.472-40.457 40.472-5.49 0-10.72-1.089-15.49-3.067-14.661-6.089-24.983-20.535-24.983-37.405v-72.525z" fill="#ce6a52"></path><path d="M240.803 339.235v63.092c-14.659-6.083-24.975-20.535-24.975-37.392v-45.097zM351.163 271.858H161.415c-30.278 0-54.824-24.546-54.824-54.824 0-18.934 15.349-34.283 34.283-34.283h230.829c18.934 0 34.283 15.349 34.283 34.283.001 30.279-24.545 54.824-54.823 54.824z" fill="#c1593d"></path><path d="M161.415 253.376c-20.039 0-36.341-16.303-36.341-36.342 0-8.712 7.088-15.801 15.801-15.801h230.83c8.712 0 15.801 7.088 15.801 15.801 0 20.039-16.303 36.342-36.341 36.342z" fill="#b24d36"></path><path d="M362.581 164.425v78.177c0 29.351-11.899 55.926-31.131 75.168-19.232 19.232-45.806 31.131-75.158 31.131-58.712 0-106.299-47.587-106.299-106.299v-78.177c0-2.501.085-4.991.265-7.449 13.542 8.085 29.372 12.726 46.283 12.726.233 0 .456 0 .699-.011 38.188-.286 70.718-24.254 83.677-57.939 9.558 20.916 30.643 35.465 55.141 35.465 8.593 0 16.774-1.791 24.18-5.022a105.945 105.945 0 0 1 2.343 22.23z" fill="#ce6a52"></path><path d="M219.51 260.921c0 19.629 16.466 35.541 36.777 35.541s36.777-15.912 36.777-35.541" fill="#fcf8f2"></path><path d="M283.757 345.309a106.249 106.249 0 0 1-27.465 3.592c-58.712 0-106.299-47.587-106.299-106.299v-78.177c0-2.501.085-4.991.265-7.449 13.542 8.085 29.372 12.726 46.283 12.726.233 0 .456 0 .699-.011a91.555 91.555 0 0 0 7.672-.381v73.292c.001 49.218 33.452 90.617 78.845 102.707zM267.312 135.519v101.732c0 6.093-4.938 11.02-11.02 11.02a11.011 11.011 0 0 1-11.02-11.02v-81.822a90.554 90.554 0 0 0 22.04-19.91z" fill="#c1593d"></path><path d="m393.408 171.238-8.513 55.846a11.829 11.829 0 0 1-11.694 10.046h-87.333a11.942 11.942 0 0 1-11.263-7.972l-10.5-29.787c-2.697-7.65-13.516-7.65-16.212 0l-10.5 29.787a11.942 11.942 0 0 1-11.263 7.972h-87.333a11.83 11.83 0 0 1-11.694-10.046l-8.513-55.846c-1.091-7.16 4.451-13.611 11.694-13.611h251.429c7.245-.001 12.787 6.45 11.695 13.611z" fill="#fcf8f2"></path><path d="M151.34 237.127h-12.545a11.83 11.83 0 0 1-11.69-10.043l-8.513-55.847c-1.089-7.162 4.453-13.614 11.69-13.614h12.545c-7.244 0-12.786 6.452-11.697 13.614l8.513 55.847a11.83 11.83 0 0 0 11.697 10.043z" fill="#eae6e1"></path><path d="M140.881 208.643v-22.534c0-6.216 5.039-11.254 11.254-11.254h70.229c7.763 0 13.195 7.674 10.614 14.996l-7.943 22.534a11.254 11.254 0 0 1-10.614 7.513h-62.286c-6.216-.001-11.254-5.039-11.254-11.255z" fill="#5cb5f2"></path><path d="M371.117 208.643v-22.534c0-6.216-5.039-11.254-11.254-11.254h-70.229c-7.763 0-13.195 7.674-10.614 14.996l7.943 22.534a11.254 11.254 0 0 0 10.614 7.513h62.286c6.215-.001 11.254-5.039 11.254-11.255z" fill="#ff645c"></path><path d="M164.675 219.899H152.13c-6.21 0-11.249-5.039-11.249-11.256V186.11c0-6.217 5.039-11.256 11.249-11.256h12.545c-6.217 0-11.256 5.039-11.256 11.256v22.533c0 6.217 5.039 11.256 11.256 11.256z" fill="#4ba9dd"></path><path d="M310.116 219.899h-12.545c-4.77 0-9.023-3.012-10.615-7.513l-7.941-22.533c-2.578-7.32 2.854-14.999 10.615-14.999h12.538c-7.761 0-13.193 7.679-10.615 14.999l7.948 22.533a11.253 11.253 0 0 0 10.615 7.513z" fill="#ff4c48"></path><path d="M416.288 446.412c11.899 0 21.544-9.646 21.544-21.544 0-11.899-9.646-21.544-21.544-21.544-.918 0-1.82.064-2.707.175.198-.926.304-1.886.304-2.871 0-7.566-6.133-13.699-13.699-13.699-2.12 0-4.127.482-5.919 1.342-2.074-9.732-10.717-17.033-21.067-17.033-3.268 0-6.364.731-9.139 2.034-2.187-4.659-6.918-7.887-12.405-7.887s-10.219 3.228-12.405 7.887a21.457 21.457 0 0 0-9.139-2.034c-10.351 0-18.993 7.301-21.067 17.033a13.642 13.642 0 0 0-5.919-1.342c-7.566 0-13.699 6.133-13.699 13.699 0 .985.106 1.945.304 2.871a21.771 21.771 0 0 0-2.707-.175c-11.899 0-21.544 9.646-21.544 21.544s9.646 21.544 21.544 21.544" fill="#ffd939"></path><path d="M330.113 371.235c2.498 0 4.9.435 7.139 1.213-8.363 4.634-12.564 14.211-10.584 23.359a13.694 13.694 0 0 0-5.95 1.207c-6.897 3.108-9.969 11.218-6.861 18.115a13.53 13.53 0 0 0 1.454 2.492c-.857.265-1.702.579-2.541.953-10.632 4.791-15.484 17.138-11.079 27.836h-14.67c-11.9 0-21.543-9.643-21.543-21.543s9.643-21.543 21.543-21.543c.917 0 1.822.06 2.709.175a13.695 13.695 0 0 1-.308-2.872c0-7.567 6.137-13.698 13.704-13.698 2.118 0 4.128.477 5.92 1.34 2.071-9.733 10.712-17.034 21.067-17.034zM339.249 373.268a21.576 21.576 0 0 0-1.997-.821 20.662 20.662 0 0 1 1.629-.821 22.075 22.075 0 0 1 1.78-.712 13.877 13.877 0 0 0-1.412 2.354z" fill="#ffc23b"></path><path d="M445.63 427.97a257.486 257.486 0 0 1-35.122 32.157c-8.731 6.62-15.405-3.154-24.962 2.318-4.184 2.397-10.937 20.523-15.265 22.686a254.477 254.477 0 0 1-36.652 14.884c-5.883 1.871-11.859-10.425-17.918-8.977-5.357 1.28-10.779 16.351-16.261 17.288a256.529 256.529 0 0 1-35.8 3.554l-13.01-64.37h.01a20.56 20.56 0 0 1-.38-3.87c0-11.2 9.08-20.28 20.28-20.28s20.28 9.08 20.28 20.28c0-11.2 9.07 1.35 20.27 1.35 5.6 0 3.13-10.93 6.8-7.26s13.48.31 13.48 5.91c0-11.2 9.08-20.28 20.28-20.28 5.6 0 10.66 2.27 14.33 5.94s5.94 8.74 5.94 14.34c0-11.2 10.72.32 21.91.32 5.6 0 2.84-11.22 6.51-7.56 3.67 3.67 12.13 1.64 12.13 7.24 0-11.2 9.08-20.28 20.28-20.28 4.89 0 9.37 1.73 12.87 4.61z" fill="#fcf8f2"></path><path d="M286.48 510.2c-7.51.89-15.13 1.46-22.83 1.68l-13.01-64.37h.01a20.56 20.56 0 0 1-.38-3.87c0-11.2 9.08-20.28 20.28-20.28 4.31 0 8.3 1.35 11.59 3.63-5.26 3.67-8.7 9.76-8.7 16.65 0 1.32.14 2.62.38 3.87h-.01z" fill="#eae6e1"></path><g fill="#ff645c"><path d="M333.63 500.02a254.945 254.945 0 0 1-35.04 8.45l-7.76-64.83c0-11.2 9.07-20.28 20.27-20.28 5.6 0 10.67 2.27 14.34 5.94s5.94 8.74 5.94 14.34zM412.48 443.64l-1.97 16.49c-8.73 6.62-17.9 12.69-27.46 18.16-4.18 2.4-8.44 4.68-12.77 6.84l1.65-41.49c0-11.2 9.08-20.28 20.28-20.28 5.6 0 10.67 2.27 14.33 5.94 3.67 3.67 5.94 8.74 5.94 14.34z" fill="#ff645c"></path></g><path d="M192.74 504.12a254.727 254.727 0 0 1-63.46-25.64c-2.82-1.61-5.61-3.28-8.37-5l-7.71-40.61 63.71-12.1z" fill="#ce6a52"></path><path d="M148.04 488.18c-6.41-2.98-12.66-6.22-18.76-9.7-2.82-1.61-5.61-3.28-8.37-5l-7.71-40.61 23.49-4.46z" fill="#c1593d"></path><path d="M118.866 437.109a10.325 10.325 0 0 1-6.504-2.221l-38.535-30.339c-4.498-3.542-5.273-10.059-1.732-14.558 3.541-4.498 10.058-5.273 14.558-1.732l38.535 30.339c4.498 3.542 5.273 10.059 1.732 14.558a10.35 10.35 0 0 1-8.054 3.953z" fill="#c1593d"></path><g fill="#ce6a52"><path d="m141.834 443.415-77.217-16.231c-5.603-1.178-9.19-6.674-8.012-12.277s6.674-9.19 12.277-8.012l77.217 16.231c5.603 1.178 9.19 6.674 8.012 12.277s-6.675 9.19-12.277 8.012z" fill="#ce6a52"></path><path d="M141.834 443.415c-22.162-4.658-36.402-26.478-31.744-48.64s26.478-36.402 48.64-31.744c5.603 1.178 9.19 6.674 8.012 12.277s-6.674 9.19-12.277 8.012c-10.974-2.307-21.779 4.745-24.086 15.719s4.745 21.779 15.719 24.086l8.012 12.277z" fill="#ce6a52"></path></g><circle cx="164.507" cy="373.817" fill="#ffd939" r="19.654"></circle><path d="M171.683 392.107c-2.22.88-4.64 1.36-7.17 1.36-10.86 0-19.66-8.8-19.66-19.65 0-10.86 8.8-19.66 19.66-19.66 2.53 0 4.95.48 7.17 1.35-7.31 2.86-12.49 9.98-12.49 18.31 0 8.32 5.18 15.44 12.49 18.29z" fill="#ffc23b"></path><path d="M146.098 423.126c10.974 2.307 21.779-4.745 24.086-15.719a20.18 20.18 0 0 0-1.295-12.397c-2.318-5.235.046-11.358 5.281-13.676 5.234-2.318 11.357.047 13.676 5.281 3.502 7.908 4.41 16.572 2.627 25.056-4.658 22.162-26.478 36.402-48.64 31.744z" fill="#ce6a52"></path></g></svg>