<svg viewBox="0 0 60 60" xmlns="http://www.w3.org/2000/svg"><g><path d="M44.82 15.67C45.32 13.36 47.22 1 30 1S14.68 13.36 15.18 15.67z" fill="#a65a47"></path><path d="M51.22 30.75C53.98 29.7 57 25.48 57 22c0-4-2-8-6-8s-6 2-6 2L30 28 15 16s-2-2-6-2-6 4-6 8c0 3.48 3.02 7.7 5.78 8.75z" fill="#a65a47"></path><path d="M15.95 25.23c-.52-1.53-.95-3.56-.95-6.15 0-4.38.57-8.32 4-10.88 0 0 5.17-4.27 9.92-.91.64.45 1.52.45 2.16 0C35.83 3.93 41 8.2 41 8.2c3.44 2.57 4 6.57 4 10.88 0 2.59-.43 4.62-.95 6.15z" fill="#f9c795"></path><path d="M23.001 22.802c-3.451.715-6.589 1.988-9.251 3.671-2.739 1.72-4.955 3.884-6.477 6.332C5.818 35.151 5 37.759 5 40.515c0 10.204 11.193 18.484 25 18.484s25-8.28 25-18.484c0-2.756-.818-5.364-2.273-7.71-1.523-2.449-3.739-4.612-6.477-6.332-2.662-1.683-5.8-2.956-9.251-3.671H23z" fill="#fdd7ad"></path><path d="M29.951 53c9 0 13-3.68 13-3.68 5.555-3.65 6.072-10.777 6.049-13.564a1.984 1.984 0 0 0-1.071-1.74C45.58 32.777 39.275 30 29.951 30H30c-9.323 0-15.629 2.777-17.978 4.016a1.985 1.985 0 0 0-1.071 1.74c-.023 2.787.494 9.913 6.049 13.564 0 0 4 3.68 13 3.68" fill="#603e26"></path><path d="M25 17c-.552 0-1-.448-1-1s-.449-1-1-1-1 .449-1 1-.448 1-1 1-1-.448-1-1c0-1.654 1.346-3 3-3s3 1.346 3 3a1 1 0 0 1-1 1zM39 17c-.552 0-1-.448-1-1s-.449-1-1-1-1 .449-1 1-.448 1-1 1-1-.448-1-1c0-1.654 1.346-3 3-3s3 1.346 3 3a1 1 0 0 1-1 1z" fill="#35495e"></path><path d="M13.558 22.467c-.005 1.191-.388 2.383-1.12 3.211-.258.291-.553.55-.876.766-.763.511-1.717.588-2.404-.102-1.815-1.822-2.803-4.489-1.684-6.949.403-.886 1.091-1.405 2.081-1.392.918.011 1.869.404 2.569.991.975.817 1.44 2.146 1.434 3.476zM47.876 18.991c.7-.587 1.651-.98 2.569-.991.991-.012 1.678.506 2.081 1.392 1.119 2.461.131 5.127-1.684 6.949-.687.69-1.641.613-2.404.102a4.567 4.567 0 0 1-.876-.766c-.732-.828-1.115-2.02-1.12-3.211-.006-1.33.459-2.659 1.434-3.476z" fill="#fdd7ad"></path><path d="M33.597 26c.266 0 .535-.047.779-.154 1.605-.703 2.624-1.785 2.624-3C37 20.721 33.87 19 30 19s-7 1.721-7 3.846c0 1.215 1.019 2.298 2.624 3 .244.107.513.154.779.154h7.193z" fill="#f09372"></path><path d="M28 24h-1a1 1 0 0 1 0-2h1a1 1 0 0 1 0 2zM33 24h-1a1 1 0 0 1 0-2h1a1 1 0 0 1 0 2z" fill="#c03a2b"></path><path d="M43.77 48.72c-.26.21-.53.41-.82.6 0 0-3.98 3.67-12.95 3.68h-.05C20.98 52.99 17 49.32 17 49.32c-.27-.18-.53-.37-.78-.57C16.88 46.5 19.5 42 30 42s13.1 4.46 13.77 6.72z" fill="#fb7b76"></path><g fill="#fff"><path d="M19.83 31.22c-.37 1.01-.61 2.29-.76 3.52-.23 1.9-2.76 2.46-3.71.79-.54-.94-.83-1.83-.98-2.53l-.03-.07c1.41-.58 3.24-1.22 5.47-1.75zM25.82 30.19v.02c-.12.58-.21 1.19-.29 1.79-.23 1.91-2.78 2.41-3.72.74-.37-.64-.61-1.25-.78-1.8l-.01-.04c1.46-.3 3.06-.55 4.8-.71zM45.64 32.95l-.02.05c-.15.7-.44 1.59-.98 2.53-.95 1.67-3.48 1.11-3.71-.79-.15-1.23-.39-2.51-.75-3.52l.01-.03c2.22.54 4.05 1.18 5.45 1.76zM38.98 30.92v.02c-.18.55-.42 1.16-.79 1.8-.94 1.67-3.49 1.17-3.72-.74-.08-.6-.17-1.21-.28-1.79v-.01c1.74.16 3.34.41 4.79.72z" fill="#ffffff"></path></g></g></svg>