<svg viewBox="0 0 512 512" xmlns="http://www.w3.org/2000/svg"><g><path d="M128 24h256v280H128z" fill="#663c28"></path><path d="m384 280-32 32v64l32 32z" fill="#ad6643"></path><path d="M120 280h272v208H120z" fill="#eb423f"></path><path d="m120 488 32-32V280h-32zM392 488l-32-32V312h32z" fill="#d13330"></path><path d="m120 280 40 48 248 32-16-80z" fill="#f7cca9"></path><path d="M152 456h208l32 32H120z" fill="#962523"></path><path d="M160 56h64v64h-64zM288 56h64v64h-64z" fill="#8c5237"></path><g fill="#ad6643"><path d="m256 24-32 32v64l32 32zM128 24l32 32h64l32-32zM384 24l-32 32v64l32 32zM256 24l32 32h64l32-32z" fill="#ad6643"></path></g><path d="M160 184h64v64h-64zM288 184h64v64h-64z" fill="#8c5237"></path><path d="m256 152-32 32v64l32 32zM128 152l32 32h64l32-32zM384 152l-32 32v64l32 32zM256 152l32 32h64l32-32z" fill="#ad6643"></path></g></svg>