<svg viewBox="0 0 511 512" xmlns="http://www.w3.org/2000/svg"><g><path d="M391.309 347.688v155.957a8.358 8.358 0 0 1-8.36 8.355H8.855C4.246 512 .5 508.254.5 503.645V347.688a8.367 8.367 0 0 1 4.285-7.305l38.563-21.477c7.242-4.039 15.027-5.047 22.226-3.695a33.987 33.987 0 0 1 16.016 7.762c6.117 5.34 14.648 6.953 22.383 4.484l24.242-7.73a222.888 222.888 0 0 1 135.375 0l24.258 7.73c7.73 2.469 16.25.855 22.37-4.484a33.98 33.98 0 0 1 15.993-7.762c7.21-1.352 15.004-.344 22.258 3.695l14.515 8.082 24.036 13.395a8.347 8.347 0 0 1 4.289 7.305zm0 0" fill="#fe9d7f"></path><path d="M357.129 413.898h-18.457l-.871-7.27a7.72 7.72 0 0 0-3.707-5.71l-34.828-20.836a7.732 7.732 0 0 0-10.598 2.664c-2.191 3.66-.996 8.406 2.664 10.598l31.574 18.886 3.403 28.43a7.73 7.73 0 0 0 8.59 6.754 7.725 7.725 0 0 0 6.753-8.59l-1.132-9.476h16.609a7.725 7.725 0 1 0 0-15.45zM99.227 362.793a7.726 7.726 0 0 0-10.73 2.059l-22.813 33.636-31.176 7.274a7.726 7.726 0 0 0-5.77 9.277 7.731 7.731 0 0 0 7.516 5.977c.582 0 1.172-.067 1.766-.207l9.746-2.274 4.382 12.688a7.733 7.733 0 0 0 7.305 5.207 7.728 7.728 0 0 0 7.3-10.254l-3.858-11.168 9.246-2.156a7.718 7.718 0 0 0 4.636-3.188l24.508-36.137a7.73 7.73 0 0 0-2.058-10.734zm0 0" fill="#38aaff"></path><path d="M326.215 315.215c-4.492 20.316-9.758 46.687-14.66 72.215a4101.48 4101.48 0 0 0-3.09 16.164 7736.91 7736.91 0 0 0-10.14 54.61c-1.555 8.53-6.067 16.3-12.743 21.862s-15.113 8.622-23.785 8.622c-18.45 0-33.871-13.227-36.688-31.473l-14.687-95.137a14.698 14.698 0 0 0-8.262-11.043 14.537 14.537 0 0 0-6.254-1.39c-7.293 0-13.39 5.222-14.496 12.421l-14.7 95.16a37.176 37.176 0 0 1-12.538 22.52 37.185 37.185 0 0 1-24.156 8.934c-.403 0-.825 0-1.227-.024-17.348-.554-32.234-13.586-35.398-30.957a7468.052 7468.052 0 0 0-10.59-56.926c-1.328-7.058-2.719-14.257-4.11-21.46-.289-1.485-.578-2.965-.863-4.45-5.223-26.765-9.21-45.925-12.25-59.648a33.865 33.865 0 0 1 16.008 7.758c6.121 5.336 14.648 6.953 22.387 4.48l24.242-7.726a222.829 222.829 0 0 1 135.375 0l24.262 7.726c7.722 2.473 16.246.856 22.363-4.48a33.964 33.964 0 0 1 16-7.758zm0 0" fill="#fe825e"></path><path d="m299.262 380.086 12.293 7.344c-1.051 5.449-2.094 10.86-3.094 16.164l-17.133-10.25a7.744 7.744 0 0 1-2.668-10.602c2.195-3.656 6.945-4.851 10.602-2.656zM101.281 373.523l-18.48 27.247a4652.08 4652.08 0 0 0-4.11-21.458l9.805-14.464c2.39-3.535 7.203-4.45 10.727-2.059a7.72 7.72 0 0 1 2.058 10.734zm0 0" fill="#2081f6"></path><path d="M391.309 347.688v155.957c0 4.605-3.739 8.355-8.356 8.355H282.832c25.063-19.379 42.496-42.082 54.547-65.313a213.927 213.927 0 0 0 8.008-17.34 222.777 222.777 0 0 0 5.625-15.452c10.847-33.493 12.566-65.313 11.968-86.907l24.047 13.395a8.35 8.35 0 0 1 4.282 7.305zm0 0" fill="#fe825e"></path><path d="m340.027 219.676-18.53 62.695c-.02.082-.044.137-.063.2-8.594 28.214-27.446 129.718-35.399 173.398a24.553 24.553 0 0 1-8.445 14.515 24.624 24.624 0 0 1-15.793 5.715c-12.149 0-22.5-8.867-24.344-20.879l-14.7-95.148a27.213 27.213 0 0 0-15.28-20.442 27.12 27.12 0 0 0-11.567-2.574c-13.402 0-24.808 9.766-26.847 23.016l-7.149 46.336-2.496 16.144-5.047 32.668a24.57 24.57 0 0 1-8.324 14.946 24.596 24.596 0 0 1-16.844 5.914c-11.703-.38-21.426-9.188-23.527-20.715-3.637-19.977-9.488-51.695-15.586-82.992-7.336-37.582-15.031-74.567-19.707-89.907-.024-.058-.031-.113-.063-.195l-18.535-62.695c-2.152-7.285-3.172-14.559-3.172-21.688 0-40.523 32.852-75.86 76.047-75.86 7.348 0 14.453 1.052 21.172 2.985 32.637 9.457 67.508 9.457 100.152 0a76.484 76.484 0 0 1 21.172-2.984c15.946 0 30.473 4.82 42.465 12.926 26.207 17.722 40.301 51.21 30.41 84.62zm0 0" fill="#e5fcf9"></path><g fill="#cde8e3"><path d="m161.91 406.508-2.496 16.144-22.32-11.25a7.698 7.698 0 0 1-4.278-6.574l-1.945-44.535-26.98-29.41c-2.883-3.145-2.68-8.028.472-10.91 3.145-2.883 8.028-2.68 10.91.472l7.48 8.14 11.24-11.437 10.808-25.64c1.656-3.934 6.187-5.778 10.113-4.121a7.729 7.729 0 0 1 4.121 10.129l-11.383 27a7.933 7.933 0 0 1-1.605 2.41l-12.836 13.062 10.95 11.942a7.68 7.68 0 0 1 2.019 4.882l1.875 42.793zM195.902 170.863a187.537 187.537 0 0 1-52.218-7.422c-4.102-1.187-6.461-5.472-5.274-9.57s5.473-6.46 9.57-5.27a172.03 172.03 0 0 0 95.848-.003c4.094-1.184 8.387 1.175 9.57 5.273a7.725 7.725 0 0 1-5.273 9.57 187.564 187.564 0 0 1-52.223 7.422zm0 0" fill="#cde8e3"></path><path d="m169.254 358.895-7.344 47.617h-.012l-2.48 16.14-5.05 32.668a24.604 24.604 0 0 1-8.321 14.938 24.601 24.601 0 0 1-16.68 5.933c-11.797-.308-21.605-9.218-23.715-20.828-3.629-19.988-9.48-51.644-15.566-82.89 14.668-.184 28.383-1.43 41.156-3.614a224.581 224.581 0 0 0 15.328-3.132 210.065 210.065 0 0 0 22.684-6.832zM340.027 219.676l-18.53 62.695c-.02.082-.044.137-.063.2-8.594 28.214-27.446 129.718-35.399 173.398a24.553 24.553 0 0 1-8.445 14.515 24.624 24.624 0 0 1-15.793 5.715c-12.149 0-22.5-8.867-24.344-20.879l-1.039-6.726-2.976-19.297-10.684-69.125a27.193 27.193 0 0 0-15.277-20.438l10.949-7.605c71.226-54.277 87.554-149.457 91.191-197.074 26.207 17.722 40.301 51.21 30.41 84.62zm0 0" fill="#cde8e3"></path></g><path d="M313.96 280.645c0 .003 0 .007-.003.011.004-.004.004-.008.004-.011zm.005-.012v.004zm0 0" fill="#000000"></path><path d="M333.059 117.793a7.709 7.709 0 0 1-6.317-3.266c-2.46-3.488-1.633-8.308 1.852-10.77l27.219-19.234-10.399-5.02a7.726 7.726 0 0 1-4.344-6.315 7.727 7.727 0 0 1 3.243-6.95l26.003-18.375c3.485-2.465 8.305-1.633 10.77 1.852a7.73 7.73 0 0 1-1.852 10.77l-15.293 10.804 10.403 5.016a7.72 7.72 0 0 1 4.34 6.32 7.724 7.724 0 0 1-3.239 6.95l-37.933 26.804a7.69 7.69 0 0 1-4.453 1.414zM63.223 117.793a7.698 7.698 0 0 1-4.453-1.414L20.84 89.574a7.727 7.727 0 0 1 1.101-13.27L32.34 71.29 17.05 60.48a7.717 7.717 0 0 1-1.85-10.765 7.725 7.725 0 0 1 10.769-1.852l26.004 18.371a7.737 7.737 0 0 1 3.238 6.95 7.719 7.719 0 0 1-4.344 6.32l-10.398 5.02 27.218 19.234a7.717 7.717 0 0 1 1.852 10.765 7.708 7.708 0 0 1-6.316 3.27zm0 0" fill="#ffdb29"></path><path d="m270.035 397.105-13.875 4.583v22.984c0 1.976-.75 3.871-2.11 5.305l-17.12 18.12c-.168.176-.34.34-.516.497l-2.977-19.297 7.274-7.695V374.09c0-4.266 3.46-7.727 7.723-7.727a7.729 7.729 0 0 1 7.726 7.727v11.32l9.024-2.984c4.05-1.34 8.418.863 9.757 4.914 1.348 4.047-.855 8.414-4.906 9.765zm0 0" fill="#b5d9d3"></path><path d="M232.11 68.691h-42.688l41.855-58.32C234.387 6.035 231.29 0 225.953 0h-41.207c-4.95 0-9.422 2.95-11.355 7.504-13.375 31.469-29.489 70.777-29.489 76.77 0 8.523 6.907 15.43 15.43 15.43h47.809l-51.286 103.605c-2.707 5.464-.207 11.629 5.73 13.03a8.946 8.946 0 0 0 9.688-4l74.391-120.624c2.371-3.875 3.145-9.05.95-13.992-2.5-5.63-8.344-9.032-14.505-9.032zm0 0" fill="#ffdb29"></path><path d="M341.656 438.824a7.723 7.723 0 0 1-4.277 7.864 213.927 213.927 0 0 0 4.195-8.575zM364.855 421.621a7.729 7.729 0 0 1-7.726 7.727h-11.742a222.777 222.777 0 0 0 5.625-15.453h6.117a7.729 7.729 0 0 1 7.726 7.726zm0 0" fill="#2081f6"></path><path d="m161.91 406.508-2.496 16.144-22.32-11.25a7.698 7.698 0 0 1-4.278-6.574l-1.574-35.973a224.581 224.581 0 0 0 15.328-3.132l1.485 33.882 13.843 6.903zm0 0" fill="#b5d9d3"></path></g></svg>