<svg id="Smooth" enable-background="new 0 0 128 128" height="512" viewBox="0 0 128 128" width="512" xmlns="http://www.w3.org/2000/svg" xmlns:xlink="http://www.w3.org/1999/xlink"><linearGradient id="lg1"><stop offset="0" stop-color="#6c6f73"/><stop offset="1" stop-color="#56585b"/></linearGradient><linearGradient id="SVGID_1_" gradientUnits="userSpaceOnUse" x1="-145.117" x2="-89.914" xlink:href="#lg1" y1="-12.043" y2="8.128"/><linearGradient id="lg2"><stop offset=".0399" stop-color="#fa9d4b"/><stop offset=".8094" stop-color="#f27e3e"/></linearGradient><linearGradient id="SVGID_2_" gradientUnits="userSpaceOnUse" x1="1.43" x2="4.467" xlink:href="#lg2" y1="-368.503" y2="-289.533"/><linearGradient id="SVGID_3_" gradientUnits="userSpaceOnUse" x1="54.145" x2="61.184" xlink:href="#lg2" y1="113.705" y2="115.798"/><linearGradient id="SVGID_4_" gradientUnits="userSpaceOnUse" x1="22.014" x2="57" y1="89.5" y2="89.5"><stop offset="0" stop-color="#58595b"/><stop offset="1" stop-color="#414042"/></linearGradient><linearGradient id="SVGID_5_" gradientUnits="userSpaceOnUse" x1="-138.607" x2="-86.607" xlink:href="#lg1" y1="14.134" y2="33.134"/><linearGradient id="SVGID_6_" gradientUnits="userSpaceOnUse" x1="32.165" x2="65.236" y1="9.708" y2="34.244"><stop offset="0" stop-color="#cfd2d2"/><stop offset="1" stop-color="#a9adb0"/></linearGradient><linearGradient id="lg3"><stop offset="0" stop-color="#7c7e80"/><stop offset="1" stop-color="#6d6e71"/></linearGradient><linearGradient id="SVGID_7_" gradientUnits="userSpaceOnUse" x1="149.806" x2="174.239" xlink:href="#lg3" y1="-41.587" y2="-75.022"/><linearGradient id="lg4"><stop offset="0" stop-color="#f4a419"/><stop offset=".9973" stop-color="#ffaf54"/></linearGradient><linearGradient id="SVGID_8_" gradientUnits="userSpaceOnUse" x1="53.951" x2="56.951" xlink:href="#lg4" y1="52.491" y2="53.074"/><linearGradient id="lg5"><stop offset="0" stop-color="#947e7f"/><stop offset="1" stop-color="#373638"/></linearGradient><linearGradient id="SVGID_9_" gradientUnits="userSpaceOnUse" x1="55.061" x2="57.478" xlink:href="#lg5" y1="48" y2="49.042"/><linearGradient id="SVGID_10_" gradientUnits="userSpaceOnUse" x1="53.037" x2="55.454" xlink:href="#lg5" y1="52.696" y2="53.737"/><linearGradient id="SVGID_11_" gradientUnits="userSpaceOnUse" x1="56.574" x2="58.991" xlink:href="#lg5" y1="44.489" y2="45.531"/><linearGradient id="SVGID_12_" gradientUnits="userSpaceOnUse" x1="54.807" x2="57.224" xlink:href="#lg5" y1="48.589" y2="49.631"/><linearGradient id="SVGID_14_" gradientUnits="userSpaceOnUse" x1="16.367" x2="45.2" xlink:href="#lg1" y1="47.961" y2="52.127"/><linearGradient id="SVGID_15_" gradientUnits="userSpaceOnUse" x1="7.641" x2="35.586" xlink:href="#lg3" y1="51.545" y2="72.278"/><linearGradient id="SVGID_16_" gradientUnits="userSpaceOnUse" x1="52.69" x2="79.128" xlink:href="#lg4" y1="9.097" y2="28.712"/><g><path d="m10 64 33 2 21-21-33-2z" fill="url(#SVGID_1_)"/><path d="m37 96-5-5c-.089-.471-30-9-30 35 44 0 35.472-29.987 35-30z" fill="url(#SVGID_2_)"/><path d="m32 91s-21 3-21 26c23 0 26-21 26-21z" fill="url(#SVGID_3_)"/><path d="m32 72-8 8c-2.343 2.141-2.938 5.25 0 8l17 17c3.137 2.932 5.462 2.388 8 0l8-8z" fill="url(#SVGID_4_)"/><path d="m86 98-2-33-19 23v31z" fill="url(#SVGID_5_)"/><path d="m126 2c-13 0-28 0-46 18l-52 52c-1.332 1.591-1.335 4.466 0 6l23 23c1.562 1.333 4.438 1.333 6 0l51-53c18-18 17.997-33.943 18-46z" fill="url(#SVGID_6_)"/><path d="m80 20 28 28c18-18 17.997-33.943 18-46-13 0-28 0-46 18z" fill="url(#SVGID_7_)"/><circle cx="72" cy="56" fill="url(#SVGID_8_)" r="13"/><path d="m63 57 9-1-4-8s-5 2.094-5 9z" fill="url(#SVGID_9_)"/><path d="m68 64c1.194.586 2.58 1 4 1s2.806-.414 4-1l-4-8z" fill="url(#SVGID_10_)"/><path d="m81 57-9-1 4-8s5 2.094 5 9z" fill="url(#SVGID_11_)"/><circle cx="72" cy="56" fill="url(#SVGID_12_)" r="3"/><path d="m72 60c-2.206 0-4-1.794-4-4s1.794-4 4-4 4 1.794 4 4-1.794 4-4 4zm0-6c-1.103 0-2 .897-2 2s.897 2 2 2 2-.897 2-2-.897-2-2-2z" fill="url(#SVGID_8_)"/><path d="m72 70c-7.72 0-14-6.28-14-14s6.28-14 14-14 14 6.28 14 14-6.28 14-14 14zm0-26c-6.617 0-12 5.383-12 12s5.383 12 12 12 12-5.383 12-12-5.383-12-12-12z" fill="url(#SVGID_14_)"/><path d="m41 59-13 13c-1.332 1.591-1.335 4.466 0 6l23 23c1.562 1.333 4.438 1.333 6 0l12.75-13.25z" fill="url(#SVGID_15_)"/><path d="m101.548 54.705 6.452-6.705-28-28-6.926 6.926z" fill="url(#SVGID_16_)"/></g></svg>