<svg viewBox="0 0 512 512" xmlns="http://www.w3.org/2000/svg"><g><circle cx="256" cy="256" fill="#9b5de5" r="235.68"></circle><path d="M332.41 216.94c3 3.33 2.85 8.45-.39 11.54-10.01 9.57-24.66 17.47-40.15 17.47-17.4 0-28.8-6.9-38.4-11.1-9-3.6-19.2-10.2-34.2-10.2-10.79 0-21.4 5.69-29.38 12.18-3.51 2.86-8.68 2.32-11.58-1.16l-.19-.23c-2.82-3.38-2.53-8.39.7-11.38 10.02-9.3 24.72-17.41 40.46-17.41 17.7 0 28.5 6.9 38.4 10.8 9 3.9 18.9 10.2 33.9 10.2 10.76 0 21.33-5.83 29.02-12.1 3.42-2.78 8.42-2.37 11.38.9zm1.27 59.16c2.98 3.31 2.83 8.4-.36 11.5-10.08 9.79-25 17.75-40.54 17.75-17.1 0-28.2-6.9-38.1-10.8-9-3.6-19.2-10.2-34.5-10.2-10.28 0-20.92 5.46-28.95 11.98-3.58 2.91-8.86 2.3-11.72-1.32l-.19-.24c-2.67-3.38-2.33-8.26.82-11.21 9.91-9.26 24.81-17.21 40.34-17.21 17.7 0 28.5 6.6 38.4 10.8 9 3.6 19.2 10.2 33.9 10.2 11.03 0 21.69-5.5 29.4-12.06 3.4-2.9 8.5-2.52 11.5.81z" fill="#ffffff"></path></g></svg>