<svg viewBox="0 0 512 512" xmlns="http://www.w3.org/2000/svg"><g><path d="m131.537 11.284-30.5 101.16h-77.73c-11.49 0-20.81-9.32-20.81-20.81v-42.36c0-19.82 11.7-36.9 28.56-44.72 1.71-.8 3.47-1.49 5.27-2.08a49.005 49.005 0 0 1 15.44-2.47h7.69z" fill="#f6a96c"></path><path d="m131.537 11.284-30.5 101.16h-30.9v-63.17c0-13.61-5.52-25.93-14.44-34.84a49.223 49.223 0 0 0-19.37-11.96 49.005 49.005 0 0 1 15.44-2.47h7.69z" fill="#ea9b58"></path><path d="M437.207 49.274V491.19c0 11.497-9.313 20.81-20.81 20.81H121.848c-11.497 0-20.81-9.313-20.81-20.81V49.274C101.039 22.056 78.982 0 51.765 0h336.179c27.207 0 49.263 22.056 49.263 49.274z" fill="#ffe5c2"></path><path d="M387.944 0h-30.905c27.207 0 49.263 22.056 49.263 49.274v119.383c0 6.272-1.898 12.408-5.504 17.539a251.073 251.073 0 0 0-13.183 20.86l-20.274 35.861a97.752 97.752 0 0 0-7.406 79.707c1.623 4.751 6.537 7.508 11.444 6.448a97.775 97.775 0 0 0 34.923-15.133V491.19c0 11.497-9.313 20.81-20.81 20.81h30.905c11.493 0 20.81-9.317 20.81-20.81V49.273C437.207 22.056 415.151 0 387.944 0z" fill="#fed2a4"></path><path d="M347.487 92.402H190.699a8.185 8.185 0 0 1-8.185-8.185V60.506a8.185 8.185 0 0 1 8.185-8.185h156.788a8.185 8.185 0 0 1 8.185 8.185v23.711a8.186 8.186 0 0 1-8.185 8.185z" fill="#d9b1ee"></path><path d="M403.937 326.774c0 4.27-3.45 7.73-7.72 7.73h-254.25c-4.27 0-7.73-3.46-7.73-7.73 0-4.26 3.46-7.72 7.73-7.72h254.25c.53 0 1.04.05 1.54.16 3.53.71 6.18 3.83 6.18 7.56z" fill="#4f66d0"></path><path d="M397.757 319.214a97.46 97.46 0 0 1-26.38 9.86c-4.91 1.06-9.82-1.7-11.44-6.45-.4-1.18-.79-2.37-1.14-3.57h37.42c.53 0 1.04.05 1.54.16z" fill="#314dc9"></path><path d="M403.94 359.712a7.722 7.722 0 0 1-7.726 7.726H141.965c-4.265 0-7.726-3.461-7.726-7.726s3.461-7.726 7.726-7.726h254.249a7.723 7.723 0 0 1 7.726 7.726zM403.94 392.647a7.722 7.722 0 0 1-7.726 7.726H141.965c-4.265 0-7.726-3.461-7.726-7.726s3.461-7.726 7.726-7.726h254.249a7.722 7.722 0 0 1 7.726 7.726zM403.94 425.582a7.722 7.722 0 0 1-7.726 7.726h-66.169v-15.453h66.169a7.724 7.724 0 0 1 7.726 7.727zM293.875 433.312H141.962a7.726 7.726 0 1 1 0-15.452h151.912a7.726 7.726 0 0 1 .001 15.452zM231.443 466.248h-89.48a7.726 7.726 0 1 1 0-15.452h89.48a7.726 7.726 0 1 1 0 15.452z" fill="#4f66d0"></path><path d="M509.502 124.945a251.566 251.566 0 0 1-6.717 54.579 252.282 252.282 0 0 1-25.919 66.251s-22.005 18.502-46.657 27.578c-5.738 2.102-11.62 3.709-17.4 4.44-12.465-28.248-4.419-70.732-4.419-70.732a252.007 252.007 0 0 1 62.274-73.04 250.576 250.576 0 0 1 24.343-17.183c6.357-3.936 14.588.627 14.495 8.107z" fill="#e1f0ff"></path><path d="M509.502 124.945a251.566 251.566 0 0 1-6.717 54.579 252.282 252.282 0 0 1-25.919 66.251s-22.005 18.502-46.657 27.578l15.587-27.578a252.282 252.282 0 0 0 25.919-66.251c4.213-17.843 4.914-18.09 5.151-36.53.062-4.316-2.668-7.654-6.202-8.952v-.021a250.576 250.576 0 0 1 24.343-17.183c6.357-3.936 14.588.627 14.495 8.107z" fill="#cae4f9"></path><path d="m476.869 245.77-20.272 35.864a97.765 97.765 0 0 1-72.808 48.875 97.767 97.767 0 0 1 4.327-87.585l20.272-35.864 13.005 56.923z" fill="#4f66d0"></path><path d="m438.71 258.297-13.191 23.336a97.743 97.743 0 0 1-44.82 40.958 97.96 97.96 0 0 0 3.089 7.918 97.764 97.764 0 0 0 72.808-48.875l20.272-35.864z" fill="#314dc9"></path><path d="M269.09 263.731a7.726 7.726 0 0 1-7.726-7.726V133.441a7.726 7.726 0 1 1 15.452 0v122.563a7.727 7.727 0 0 1-7.726 7.727z" fill="#fec165"></path><path d="M210.383 208.531a7.726 7.726 0 0 1-7.726-7.726V167.46a7.726 7.726 0 1 1 15.452 0v33.344a7.726 7.726 0 0 1-7.726 7.727zM327.952 208.531a7.726 7.726 0 0 1-7.726-7.726V167.46a7.726 7.726 0 1 1 15.452 0v33.344a7.726 7.726 0 0 1-7.726 7.727z" fill="#d9b1ee"></path><path d="M228.146 178.014c-12.577 0-26.302-3.327-39.115-13.363-3.36-2.631-3.95-7.487-1.318-10.847s7.488-3.95 10.847-1.318c11.842 9.275 26.408 12.119 43.298 8.452 13.282-2.884 23.055-8.871 23.152-8.931 3.622-2.241 8.385-1.133 10.634 2.485 2.25 3.618 1.154 8.37-2.459 10.628-1.245.778-21.048 12.894-45.039 12.894z" fill="#fec165"></path><path d="M310.034 178.014c-23.994 0-43.794-12.116-45.039-12.894a7.727 7.727 0 0 1 8.178-13.111c.221.135 9.954 6.063 23.149 8.929 16.888 3.667 31.455.823 43.298-8.452a7.726 7.726 0 1 1 9.529 12.165c-12.81 10.033-26.54 13.363-39.115 13.363z" fill="#fec165"></path><path d="M330.039 433.313a7.727 7.727 0 0 1-6.72-11.529L444.044 208.21a7.727 7.727 0 0 1 13.453 7.603L336.772 429.387a7.724 7.724 0 0 1-6.733 3.926zM307.309 285.319H230.87c-4.076 0-6.985-3.95-5.776-7.842l2.744-8.833A17.97 17.97 0 0 1 245 256.005h48.179a17.97 17.97 0 0 1 17.161 12.639l2.744 8.833c1.21 3.892-1.699 7.842-5.775 7.842z" fill="#9c9c9c"></path></g></svg>