<svg viewBox="0 0 512 512" xmlns="http://www.w3.org/2000/svg"><g><path d="M454.112 253.814c0 20.21 2.248 20.282-2.192 39.132-6.87 29.3-18.77 56.65-34.75 81.11-10.21 15.62 31.22 51.845 17.94 64.845C388.94 484.12 325.72 512 256 512c-12.75 0-25.29-.93-37.55-2.74h-.01c-18.69-2.75-36.72-51.161-53.86-57.721a251.73 251.73 0 0 1-31.51-14.58c-14.38-7.88-27.92 26.531-40.45 16.12C36.04 406.13 0 335.27 0 256c0-22.06 2.79-43.47 8.04-63.89a253.423 253.423 0 0 1 19.59-51.9C69.9 57.01 156.29 0 256 0c42.06 0 81.75 10.14 116.75 28.12h.01c41.96 21.54 77.19 54.33 101.72 94.39v.01c20.5 33.48 33.52 72.04 36.74 113.34v.02c.52 6.64-57.108 11.164-57.108 17.934z" fill="#2b3890"></path><path d="M512 256c0 20.21-2.34 39.87-6.78 58.72-6.87 29.3-18.77 56.65-34.75 81.11a257.274 257.274 0 0 1-35.36 43.07l-68.76 22.33-16.31-16.98-1.53 22.77-130.06 42.24h-.01a254.064 254.064 0 0 1-53.86-14.08h-.01c-10.88-4.15-21.4-9.03-31.5-14.58a255.294 255.294 0 0 1-40.45-27.52L8.04 192.11 1 170.39c-3.48-10.76 2.41-22.32 13.17-25.81l13.46-4.37L372.75 28.12h.01l44.85-14.56c10.77-3.5 22.34 2.4 25.83 13.17l31.04 95.78v.01l36.74 113.34v.02c.52 6.64.78 13.35.78 20.12z" fill="#eab14d"></path><path d="M505.22 314.72c-6.87 29.3-18.77 56.65-34.75 81.11-.01.01-.01.01-.02.01l-305.87 99.34h-.01c-10.88-4.15-21.4-9.03-31.5-14.58-.01-.01-.01-.01-.01-.02L32.48 170.2l162.6-52.8c65.68-21.33 123.7-3.51 138.3 51.57 28.69 108.18 140.44 48.84 166.38 128.89z" fill="#f6e266"></path><path d="m417.839 45.055 81.924 252.804c-25.939-80.043-157.471.402-186.159-107.785-14.6-55.078-52.846-94.006-118.526-72.676z" fill="#93d8e4"></path><path d="M105.419 236.322c27.313-53.6 104.512-52.634 138.988 14.948s123.586 62.678 121.584 112.064-137.907 110.866-198.52 64.471c-54.026-41.352-87.327-141.882-62.052-191.483z" fill="#c8ea73"></path><path d="M138.065 293.672c6.966-39.771 47.485-56.668 85.068-18.135s94.082 52.228 102.695 78.807c8.613 26.58-65.511 54.511-111.687 30.932s-79.903-69.757-76.076-91.604z" fill="#aad540"></path><path d="m362.098 124.858 8.447-2.744 21.582 66.424-8.447 2.745z" fill="#845c47"></path><path d="M350.334 134.91 386 123.321l2.878 8.859-35.667 11.589zM349.587 153.4l47.864-15.552 2.879 8.859-47.865 15.552zM414.124 150.704l6.104 18.835a5.557 5.557 0 0 1-3.567 6.999l7.816 24.12-46.152 14.988c-10.235 3.324-21.22-2.286-24.537-12.522l-4.277-13.198 41.425-13.453a6.319 6.319 0 0 0 4.055-7.958l-3.401-10.493z" fill="#845c47"></path><path d="m412.865 170.303-7.241 2.352-3.134-9.67a3.807 3.807 0 0 1 7.242-2.347zM359.02 193.465l7.68-2.496 2.498 7.687-7.68 2.496zM386.553 184.52l7.68-2.496 2.498 7.687-7.68 2.495zM372.786 188.993l7.68-2.496 2.498 7.687-7.68 2.496zM400.163 180.098l7.68-2.496 2.498 7.687-7.68 2.496z" fill="#242e7a"></path><g fill="#c63d4f"><path d="M347.878 244.017a6 6 0 0 1-1.983.29c-.037-.001-3.734-.074-9.485.287a6.003 6.003 0 0 1-6.364-5.619c-.207-3.311 2.308-6.165 5.613-6.37 6.306-.396 10.333-.311 10.501-.308a6.003 6.003 0 0 1 5.864 6.14 6.006 6.006 0 0 1-4.146 5.58zM151.999 385.253a6 6 0 0 1-6.541-1.966 324.792 324.792 0 0 1-12.036-16.049 6.01 6.01 0 0 1 1.465-8.367 5.995 5.995 0 0 1 8.358 1.466 311.8 311.8 0 0 0 11.589 15.451 6.011 6.011 0 0 1-2.835 9.465zm167.302-57.995a6 6 0 0 1-6.874-2.434 6.01 6.01 0 0 1 1.747-8.312c4.568-2.983 7.602-7.033 9.017-12.038.902-3.193 4.219-5.047 7.407-4.144s5.042 4.223 4.139 7.415c-2.196 7.768-7.039 14.278-14.007 18.828a5.968 5.968 0 0 1-1.429.685zm-20.531 5.938a6.018 6.018 0 0 1-1.719.291c-7.516.169-15.023-1.278-21.708-4.185a6.01 6.01 0 0 1-3.113-7.902 5.998 5.998 0 0 1 7.894-3.116c5.104 2.22 10.864 3.324 16.657 3.193a6.003 6.003 0 0 1 6.134 5.87 6.008 6.008 0 0 1-4.145 5.849zm-35.437-17.459a6 6 0 0 1-6.988-2.619 37.064 37.064 0 0 1-3.483-7.658c-1.467-4.527-2.103-9.427-1.887-14.564a6.002 6.002 0 0 1 6.246-5.749 6.004 6.004 0 0 1 5.743 6.253c-.155 3.705.286 7.189 1.312 10.353a25.012 25.012 0 0 0 2.35 5.171 6.01 6.01 0 0 1-3.293 8.813zm66.937-25.335a5.999 5.999 0 0 1-7.68-4.261 69.137 69.137 0 0 0-1.339-4.659c-1.302-4.016-3.037-8.232-5.16-12.533a6.01 6.01 0 0 1 2.721-8.046 5.992 5.992 0 0 1 8.038 2.724c2.379 4.82 4.336 9.58 5.816 14.146a81.18 81.18 0 0 1 1.569 5.467 6.008 6.008 0 0 1-3.965 7.162zM128.484 351.28a6 6 0 0 1-7.033-2.697c-3.513-6.047-6.657-12.101-9.346-17.993a6.01 6.01 0 0 1 2.965-7.959 5.996 5.996 0 0 1 7.95 2.968c2.525 5.536 5.487 11.237 8.804 16.944a6.01 6.01 0 0 1-3.34 8.737zm136.396-74.981a5.98 5.98 0 0 1-4.937-.56 6.01 6.01 0 0 1-2.064-8.239c3.622-6.053 8.67-11.448 15.007-16.036 2.684-1.945 6.436-1.342 8.378 1.346s1.34 6.443-1.345 8.387c-5.012 3.629-8.963 7.827-11.745 12.476a5.985 5.985 0 0 1-3.294 2.626zm47.299-22.865a6 6 0 0 1-6.75-2.249c-.307-.436-.618-.871-.932-1.305a104.298 104.298 0 0 0-6.851 2.221c-3.104 1.134-6.557-.478-7.687-3.596a6.007 6.007 0 0 1 3.593-7.695c.98-.356 1.987-.706 3.003-1.043a164.88 164.88 0 0 0-2.984-3.408 6.011 6.011 0 0 1 .443-8.483 5.995 5.995 0 0 1 8.474.443 176.793 176.793 0 0 1 6.752 7.965c1.38-.308 2.778-.6 4.193-.874a6 6 0 0 1 7.031 4.755 5.999 5.999 0 0 1-4.17 6.896 6.007 6.007 0 0 1-4.115 6.373zm-200.415 60.125-.147.046a5.999 5.999 0 0 1-7.459-4.049c-2.028-6.842-3.47-13.637-4.285-20.197-.41-3.292 1.928-6.295 5.213-6.702a6.001 6.001 0 0 1 6.695 5.219c.734 5.907 2.04 12.051 3.881 18.262a6.007 6.007 0 0 1-3.898 7.421zm172.661-90.668a5.992 5.992 0 0 1-5.776-1.164 154.412 154.412 0 0 0-15.062-11.494 6.01 6.01 0 0 1-1.66-8.33 5.996 5.996 0 0 1 8.321-1.662 166.286 166.286 0 0 1 16.239 12.389 6.01 6.01 0 0 1-2.062 10.261zm-177.049 49.843a6.004 6.004 0 0 1-7.816-6.339c.738-7.09 2.298-14.004 4.636-20.551 1.115-3.124 4.549-4.751 7.669-3.635s4.746 4.554 3.631 7.678c-2.015 5.644-3.361 11.618-4 17.754a6.01 6.01 0 0 1-4.12 5.093zm142.531-72.392a5.976 5.976 0 0 1-4.354-.255c-5.828-2.679-11.719-4.807-17.51-6.325a6.007 6.007 0 0 1-4.285-7.332 6 6 0 0 1 7.324-4.29c6.465 1.694 13.019 4.059 19.48 7.029a6.01 6.01 0 0 1-.655 11.173zm-128.285 34.066a5.987 5.987 0 0 1-5.295-.79 6.01 6.01 0 0 1-1.477-8.365c3.923-5.615 8.583-10.906 13.849-15.726a5.995 5.995 0 0 1 8.477.38 6.01 6.01 0 0 1-.38 8.486c-4.618 4.227-8.694 8.851-12.114 13.745a5.964 5.964 0 0 1-3.06 2.27zm88.429-43.828a6.013 6.013 0 0 1-1.994.29 77.135 77.135 0 0 0-13.144.805c-1.696.253-3.416.548-5.11.879a6 6 0 0 1-7.037-4.747 6.006 6.006 0 0 1 4.742-7.045c1.87-.365 3.767-.691 5.64-.97a89.143 89.143 0 0 1 15.193-.933 6.002 6.002 0 0 1 5.856 6.147 6.01 6.01 0 0 1-4.146 5.574zm-58.046 16.287a5.997 5.997 0 0 1-7.015-2.667 6.01 6.01 0 0 1 2.123-8.224c5.836-3.443 12.1-6.457 18.618-8.959a5.997 5.997 0 0 1 7.751 3.457 6.008 6.008 0 0 1-3.454 7.759c-5.898 2.264-11.558 4.987-16.822 8.093-.388.227-.79.407-1.201.541zM172.896 409.319a5.997 5.997 0 0 1-6.233-1.605 447.944 447.944 0 0 1-6.852-7.481 6.012 6.012 0 0 1 .464-8.482 5.995 5.995 0 0 1 8.472.465 440.216 440.216 0 0 0 6.669 7.281 6.01 6.01 0 0 1-2.52 9.822z" fill="#c63d4f"></path></g><path d="m193.286 431.255 6.34-12.442c2.266-4.447.502-9.892-3.941-12.16-4.443-2.269-9.881-.502-12.147 3.945l-6.34 12.442-12.429-6.347c-4.443-2.269-9.881-.502-12.147 3.945s-.502 9.892 3.941 12.16l12.429 6.347-6.34 12.442c-2.266 4.447-.502 9.892 3.941 12.16 4.443 2.269 9.881.502 12.147-3.945l6.34-12.442 12.429 6.347c4.443 2.269 9.881.502 12.147-3.945s.502-9.892-3.941-12.16z" fill="#ac3345"></path><ellipse cx="413.43" cy="341.314" fill="#c8ea73" rx="17.937" ry="30.712" transform="rotate(-69.27 413.493 341.428)"></ellipse><ellipse cx="451.226" cy="314.906" fill="#c8ea73" rx="11.89" ry="20.358" transform="rotate(-69.27 451.3 315.017)"></ellipse><g fill="#eab14d"><ellipse cx="233.036" cy="150.272" fill="#eab14d" rx="11.89" ry="20.358" transform="rotate(-69.27 233.075 150.327)"></ellipse><ellipse cx="97.164" cy="176.073" fill="#eab14d" rx="11.89" ry="20.358" transform="rotate(-69.27 97.17 176.121)"></ellipse><ellipse cx="196.764" cy="159.154" fill="#eab14d" rx="6.939" ry="11.88" transform="rotate(-69.27 196.794 159.208)"></ellipse><ellipse cx="263.504" cy="139.797" fill="#eab14d" rx="6.939" ry="11.88" transform="rotate(-69.27 263.551 139.852)"></ellipse><ellipse cx="467.683" cy="351.81" fill="#eab14d" rx="6.939" ry="11.88" transform="rotate(-69.27 467.757 351.932)"></ellipse><ellipse cx="152.353" cy="476.014" fill="#eab14d" rx="6.939" ry="11.88" transform="rotate(-69.27 152.345 476.135)"></ellipse><ellipse cx="91.282" cy="206.826" fill="#eab14d" rx="6.939" ry="11.88" transform="rotate(-69.27 91.284 206.881)"></ellipse><ellipse cx="409.305" cy="301.692" fill="#eab14d" rx="6.939" ry="11.88" transform="rotate(-69.27 409.37 301.796)"></ellipse><ellipse cx="189.865" cy="133.953" fill="#eab14d" rx="6.939" ry="11.88" transform="rotate(-69.27 189.896 134)"></ellipse></g><ellipse cx="413.43" cy="341.314" fill="#aad540" rx="11.89" ry="20.358" transform="rotate(-69.27 413.493 341.428)"></ellipse><g fill="#2b3890"><path d="m92.773 102.623 51.385 68.834-25.693-98.015M200.579 68.368l50.356 54.081-11.402-65.5M25.941 263.458l57.23-2.552-50.69 36.952zM268.856 52.72l30.104 24.529 6.125-36.37" fill="#2b3890"></path><path d="m225.757 62.658 30.104 24.529 6.125-36.37" fill="#2b3890"></path></g></g></svg>