<svg viewBox="0 0 512 512" xmlns="http://www.w3.org/2000/svg"><g><path d="M292.905 312.262a10.344 10.344 0 0 1-7.334-3.037l-77.716-77.716c-4.05-4.05-4.05-10.617 0-14.667 4.05-4.049 10.617-4.049 14.667 0l77.716 77.716c4.05 4.05 4.05 10.617 0 14.667a10.342 10.342 0 0 1-7.333 3.037zM259.818 330.509a10.344 10.344 0 0 1-7.334-3.037l-56.988-56.989c-4.05-4.05-4.05-10.617 0-14.667 4.05-4.049 10.617-4.049 14.667 0l56.989 56.989c4.05 4.05 4.05 10.617 0 14.667a10.344 10.344 0 0 1-7.334 3.037zM454.956 150.21a10.344 10.344 0 0 1-7.334-3.037L375.25 74.8c-4.05-4.05-4.05-10.617.001-14.667 4.05-4.049 10.616-4.048 14.667 0l72.372 72.373c4.05 4.05 4.05 10.617-.001 14.667a10.336 10.336 0 0 1-7.333 3.037zM421.87 168.458a10.344 10.344 0 0 1-7.334-3.037l-56.988-56.989c-4.05-4.05-4.05-10.617 0-14.667 4.05-4.049 10.617-4.049 14.667 0l56.988 56.988c4.05 4.05 4.05 10.617 0 14.667a10.338 10.338 0 0 1-7.333 3.038zM307.836 275.86a10.344 10.344 0 0 1-7.334-3.037l-59.562-59.562c-4.05-4.05-4.05-10.617 0-14.667 4.05-4.049 10.617-4.049 14.667 0l59.562 59.562c4.05 4.05 4.05 10.617 0 14.667a10.34 10.34 0 0 1-7.333 3.037zM130.9 474.266a10.344 10.344 0 0 1-7.334-3.037L49.69 397.353c-4.05-4.05-4.05-10.617 0-14.667 4.05-4.049 10.617-4.049 14.667 0l73.876 73.876c4.05 4.05 4.05 10.617 0 14.667a10.34 10.34 0 0 1-7.333 3.037zM145.832 437.863a10.344 10.344 0 0 1-7.334-3.037l-54.609-54.609c-4.05-4.05-4.05-10.617 0-14.667 4.05-4.049 10.617-4.049 14.667 0l54.609 54.609c4.05 4.05 4.05 10.617 0 14.667a10.337 10.337 0 0 1-7.333 3.037z" fill="#6280cc"></path><path d="M115.155 503.977c-10.698-10.698-10.698-28.043 0-38.741 42.455-42.456 38.182-83.541 33.233-131.114-4.85-46.628-10.347-99.477 36.316-146.141 46.207-46.207 96.749-39.585 141.341-33.743 47.494 6.223 88.512 11.596 135.913-35.805 10.698-10.699 28.043-10.698 38.741 0s10.698 28.043 0 38.741c-66.492 66.492-130.411 58.118-181.771 51.388-43.662-5.72-69.625-7.697-95.483 18.16-26.9 26.9-25.447 54.776-20.562 101.731 5.311 51.065 11.922 114.616-48.986 175.524-10.699 10.697-28.044 10.698-38.742 0z" fill="#ef8bbd"></path><path d="M397.212 155.846h-.003c-23.177 4.674-46.283 1.651-71.165-1.608-44.592-5.842-95.134-12.464-141.341 33.743-46.663 46.663-41.166 99.513-36.316 146.141 2.451 23.56 4.733 45.528 1.259 66.86v.003c18.186 1.09 36.306 3.556 54.382 6.554l.001-.005c4.155-28.082 1.362-54.974-1.146-79.081-4.883-46.94-6.336-74.814 20.538-101.706l.024-.025.054-.051c25.84-25.802 51.797-23.825 95.429-18.109 25.492 3.341 54.079 7.081 84.538 1.876l.016-.003c-1.954-18.214-3.937-36.424-6.27-54.589z" fill="#e068bd"></path><path d="M11.302 404.264c-10.698-10.698-10.698-28.043 0-38.741 66.491-66.492 130.411-58.117 181.772-51.389 43.662 5.72 69.625 7.698 95.483-18.16 26.899-26.899 25.446-54.776 20.562-101.731-5.312-51.064-11.923-114.615 48.986-175.523 10.698-10.698 28.043-10.698 38.741 0s10.699 28.043 0 38.741c-42.455 42.455-38.182 83.541-33.233 131.114 4.85 46.628 10.348 99.477-36.315 146.14-46.207 46.207-96.75 39.586-141.342 33.743-47.494-6.223-88.511-11.596-135.913 35.805-10.698 10.699-28.043 10.699-38.741.001z" fill="#8bb6ef"></path><circle cx="302.21" cy="485.027" fill="#ef8bbd" r="19.235" transform="rotate(-84.32 302.393 485.118)"></circle><circle cx="95.215" cy="80.002" fill="#ef8bbd" r="8.146" transform="rotate(-82.3 95.2 80)"></circle><g fill="#f7c4db"><path d="m60.949 167.103 6.534 18.374c.28.786.833 1.41 1.532 1.725l16.324 7.355c2.306 1.039 2.306 4.714 0 5.753l-16.324 7.355c-.699.315-1.253.938-1.532 1.725l-6.534 18.374c-.923 2.596-4.188 2.596-5.111 0l-6.534-18.374c-.28-.787-.833-1.41-1.533-1.725l-16.324-7.355c-2.306-1.039-2.306-4.714 0-5.753l16.324-7.355c.699-.315 1.253-.938 1.533-1.725l6.534-18.374c.923-2.596 4.188-2.596 5.111 0zM465.707 245.403l6.534 18.374c.28.786.834 1.41 1.533 1.725l16.324 7.355c2.306 1.039 2.306 4.714 0 5.753l-16.324 7.355c-.699.315-1.253.938-1.533 1.725l-6.534 18.374c-.923 2.596-4.188 2.596-5.111 0l-6.534-18.374c-.28-.787-.833-1.41-1.533-1.725l-16.324-7.355c-2.306-1.039-2.306-4.714 0-5.753l16.324-7.355c.699-.315 1.253-.938 1.533-1.725l6.534-18.374c.923-2.596 4.188-2.596 5.111 0zM430.071 377.209l6.534 18.374c.28.787.833 1.41 1.532 1.725l16.324 7.355c2.306 1.039 2.306 4.714 0 5.753l-16.324 7.355c-.699.315-1.253.938-1.532 1.725l-6.534 18.374c-.923 2.596-4.188 2.596-5.111 0l-6.534-18.374c-.28-.787-.833-1.41-1.533-1.725l-16.324-7.355c-2.306-1.039-2.306-4.714 0-5.753l16.324-7.355c.699-.315 1.253-.938 1.533-1.725l6.534-18.374c.923-2.596 4.188-2.596 5.111 0zM192.004 2.624l8.979 24.769c.384 1.06 1.146 1.901 2.106 2.325l22.431 9.915c3.169 1.401 3.169 6.354 0 7.755l-22.431 9.915c-.96.424-1.722 1.265-2.106 2.325l-8.979 24.769c-1.269 3.5-5.754 3.5-7.023 0l-8.979-24.769c-.384-1.06-1.145-1.901-2.106-2.325l-22.431-9.915c-3.169-1.401-3.169-6.354 0-7.755l22.431-9.915c.96-.425 1.721-1.265 2.106-2.325l8.979-24.769c1.268-3.499 5.754-3.499 7.023 0z" fill="#f7c4db"></path></g></g></svg>