<svg viewBox="0 0 512 512" xmlns="http://www.w3.org/2000/svg"><g><path d="m80 480-32-16 8-24h48l29.94 29.461z" fill="#3a840b"></path><path d="m384 256-38.349-11.529-31.567 107.946 36.634 7.327z" fill="#f29d40"></path><path d="M343.486 393.873a8.006 8.006 0 0 1-7.714-10.137L352.29 324.1q.051-.183.11-.364l12.572-38.236L456.4 5.517a8 8 0 0 1 15.21 4.967l-91.429 280-12.522 38.066-16.467 59.456a8 8 0 0 1-7.706 5.867zM137.819 339.686a8 8 0 0 1-7.366-11.114l24.9-58.946 17.694-51.714L242.4 5.517a8 8 0 0 1 15.21 4.967L188.235 222.93l-.036.106L170.4 275.07q-.091.264-.2.522l-25 59.2a8 8 0 0 1-7.381 4.894z" fill="#872d0e"></path><path d="m238.154 213.035-8.424-3.642a22.121 22.121 0 0 0-29.63 12.922l-1.633 4.611-11.861 33.734 21.953 56.608z" fill="#f29d40"></path><path d="m192 352-64-24-16 40 48 16 112.816 24.245L352 432l16-40-62.066-15.516z" fill="#ad441a"></path><path d="m160 264 16 48 30.949 7.737 1.61-5.502-16.951-67.802" fill="#f4ae5b"></path><path d="m200 400-32-24 31.98-32.432L242.493 356z" fill="#4ba013"></path><path d="m200.093 343.602 38.216-130.56 107.52 31.472-38.216 130.56z" fill="#e84700"></path><path d="m275.593 199.109 38.4 11.24-6.744 23.04-38.4-11.24zM372.6 152.331l-8.713 29.793a40.959 40.959 0 0 1-50.809 27.816l-36.551-10.689a40.959 40.959 0 0 1-27.816-50.809l15.449-52.828 84.462 24.7z" fill="#ffc880"></path><circle cx="329.243" cy="143.82" fill="#472020" r="12" transform="rotate(-73.69 329.222 143.763)"></circle><circle cx="283.172" cy="130.347" fill="#472020" r="12" transform="matrix(.281 -.96 .96 .281 78.583 365.55)"></circle><path d="M302.222 189.091a24.1 24.1 0 0 1-6.771-.976 24 24 0 0 1-16.3-29.771l15.356 4.491a8 8 0 1 0 15.356 4.491l15.357 4.49a24.033 24.033 0 0 1-23 17.275z" fill="#e84700"></path><path d="M307.478 375.004 248 432l-48-40 38.372-37.205z" fill="#4ba013"></path><path d="m258.391 73.574 5.767 22.04 84.462 24.7 23.98 32.017 26.944-25.461 3.729-12.751A18.715 18.715 0 0 0 390.561 90.9l-115.3-33.72a13.513 13.513 0 0 0-16.87 16.394z" fill="#f4bb03"></path><path d="m104 440 64-64 31.98 23.985L136 464h-8z" fill="#f9b25d"></path><path d="M204.364 395.636 136 464l32 24 66.909-66.909z" fill="#ffc880"></path><path d="m88 464-8 16 72 24 16-16-32-24z" fill="#4ba013"></path><path d="M368 480v-16c11.583 0 20.141-3.17 25.437-9.421 9.388-11.083 6.7-29.085 6.672-29.264l15.782-2.63c.171 1.028 4.033 25.379-10.246 42.235C397.168 474.927 384.5 480 368 480zM66.605 389.446c-.848-.606-20.8-15.094-22.62-37.11-1.082-13.069 4.287-25.612 15.956-37.282l11.313 11.313c-8.19 8.19-12 16.483-11.324 24.648 1.2 14.475 15.827 25.305 15.975 25.411z" fill="#754444"></path><path d="m182.545 272.212-30.077-10.927L168.39 216l30.077 10.927z" fill="#ffc880"></path><path d="m360 288-32 16-13.743 47.823 36.461 7.921 21.879-65.724z" fill="#f4ae5b"></path><path d="M360 288h32v48h-32z" fill="#ffc880"></path><path d="M271.791 212.018a76.136 76.136 0 0 0 40.055 5.541l2.15-7.35-38.396-11.228z" fill="#dd8f3a"></path></g></svg>