<svg viewBox="0 0 512 512" xmlns="http://www.w3.org/2000/svg"><g><path d="M317.727 16H256v48h61.727c4.39 0 7.011-4.895 4.574-8.547L312 40l10.3-15.453c2.438-3.652-.183-8.547-4.573-8.547zm0 0" fill="#ff8086"></path><path d="M256 16h24v48h-24zm0 0" fill="#e5646e"></path><path d="m83 396 96.68-195.273c2.234-4.516 8.043-5.868 12.043-2.793L225 223.5l-74 161zm0 0" fill="#e2a975"></path><path d="M273.86 153.352c-5.95-13.063-24.497-13.09-30.485-.043L166.93 319.832a56.01 56.01 0 0 1-21.86 25.469l-69.586 43.355a47.963 47.963 0 0 0-17.039 18.281L24 472h344V360zm0 0" fill="#e2a975"></path><path d="M373.852 300.777c-6.473-9.707-20.825-9.449-26.938.489l-40.598 65.968a55.982 55.982 0 0 1-28.855 23.387l-75.356 26.91a104.003 104.003 0 0 0-32.703 18.98L128 472h360zm0 0" fill="#d19a6e"></path><path d="M256 168.969c-4.422 0-8-3.582-8-8V8c0-4.418 3.578-8 8-8s8 3.582 8 8v152.969c0 4.418-3.578 8-8 8zm0 0" fill="#e2a975"></path><path d="M273.86 153.352c-5.95-13.063-24.497-13.09-30.485-.043l-50.758 110.57 30.778 42.348c7.05 9.753 22.062 8.015 26.699-3.09l12.433-29.758c4.5-10.774 18.883-12.82 26.211-3.73 5.746 7.132 16.41 7.703 22.89 1.226l11.02-10.426zm0 0" fill="#eceaec"></path><path d="M257.484 143.691c-5.73.38-11.304 3.504-14.109 9.618L166.93 319.832a56.01 56.01 0 0 1-21.86 25.469l-69.586 43.355a47.963 47.963 0 0 0-17.039 18.281L24 472h144.734zm0 0" fill="#d19a6e"></path><path d="m243.375 153.309-50.758 110.57 23.602 32.473 41.289-152.786c-5.735.375-11.324 3.63-14.133 9.743zm0 0" fill="#dad8db"></path><path d="M357.242 293.992a15.886 15.886 0 0 0-10.332 7.274l-40.594 65.968a55.982 55.982 0 0 1-28.855 23.387l-75.356 26.91a104.003 104.003 0 0 0-32.703 18.98L128 472h174.563zm0 0" fill="#c38c66"></path><path d="M504 480H8c-4.422 0-8-3.582-8-8s3.578-8 8-8h496c4.422 0 8 3.582 8 8s-3.578 8-8 8zm0 0" fill="#d19a6e"></path></g></svg>