<svg viewBox="0 0 512 512" xmlns="http://www.w3.org/2000/svg"><g><path d="m336.11 249.2-82.755-16.09v-53.84H176.75v53.84L93.996 249.2c-31.246 9.198-52.703 25.523-52.703 58.097v116.496c0 11.707 9.492 21.2 21.203 21.2H367.61c11.711 0 21.204-9.49 21.204-21.2V307.297c0-32.574-21.458-48.899-52.704-58.098zm0 0" fill="#fff3de"></path><path d="m336.11 249.2-82.755-16.09c0 21.152-17.148 38.3-38.3 38.3-21.157 0-38.305-17.148-38.305-38.3L93.996 249.2c-31.246 9.198-52.703 25.523-52.703 58.097v23h57.238v114.695h233.043V330.297h57.238v-23c0-32.574-21.457-48.899-52.703-58.098zm0 0" fill="#ff9838"></path><path d="M253.355 233.11v-53.844h-31.25v91.484c17.786-3.309 31.25-18.898 31.25-37.64zm0 0" fill="#ffe5c2"></path><path d="m336.11 249.2-1.165-.227c13.903 9.89 22.274 23.898 22.274 44.246v37.078h31.594v-23c0-32.574-21.458-48.899-52.704-58.098zm0 0" fill="#ff8709"></path><path d="M98.531 248.316v196.676h233.043V248.316l-37.488-7.289v49.996c0 8.5-6.89 15.391-15.39 15.391H151.41c-8.5 0-15.39-6.89-15.39-15.39v-49.997zm0 0" fill="#2dd2e3"></path><path d="M291.227 109.586h-4.864v-19.36c0-19.269-7.91-37.94-22.511-50.515-11.45-9.856-27.54-18.461-48.797-18.7-21.258.239-37.352 8.844-48.801 18.7-14.602 12.574-22.512 31.246-22.512 50.516v19.359h-4.863c-7.129 0-12.906 5.777-12.906 12.906v14.305c0 7.129 5.777 12.906 12.906 12.906h4.883c.398 18.73 8.273 36.762 22.492 49.004 11.45 9.86 27.543 18.465 48.8 18.7 21.259-.235 37.348-8.84 48.798-18.7 14.218-12.242 22.093-30.273 22.496-49.004h4.879c7.128 0 12.906-5.777 12.906-12.906v-14.305c0-7.129-5.778-12.906-12.906-12.906zm0 0" fill="#fff3de"></path><path d="M291.227 109.586h-4.864v-19.36c0-19.269-7.91-37.94-22.511-50.515a82.673 82.673 0 0 0-8.914-6.68l-.012 125.598c-.403 18.73-8.274 36.762-22.492 49.004a80.572 80.572 0 0 1-13.895 9.648c19.54-1.082 34.5-9.265 45.313-18.574 14.222-12.246 22.093-30.273 22.496-49.008h4.882c7.125 0 12.907-5.777 12.907-12.906v-14.3c-.004-7.13-5.782-12.907-12.91-12.907zm0 0" fill="#ffe5c2"></path><path d="M218.75 0h-7.395c-44.914 0-81.324 36.41-81.324 81.328v23.414h170.047V81.328C300.074 36.41 263.664 0 218.75 0zm0 0" fill="#ff9838"></path><g fill="#ff8709"><path d="M218.75 0h-7.395c-3.992 0-7.914.3-11.753.855 39.343 5.7 69.57 39.551 69.57 80.473v23.414h30.902V81.328C300.074 36.41 263.664 0 218.75 0zm0 0" fill="#ff8709"></path><path d="M303.566 117.277H126.54c-6.562 0-11.887-5.324-11.887-11.89 0-6.567 5.325-11.89 11.887-11.89h177.027c6.567 0 11.887 5.323 11.887 11.89 0 6.566-5.32 11.89-11.887 11.89zM215.535 58.71c4.27 0 7.727-3.46 7.727-7.726V.133A82.175 82.175 0 0 0 218.746 0h-7.39c-1.188 0-2.368.04-3.547.09v50.894c.004 4.266 3.46 7.727 7.726 7.727zM248.32 40.258c4.27 0 7.727-3.461 7.727-7.727V9.063a80.99 80.99 0 0 0-15.453-6.07v29.534a7.73 7.73 0 0 0 7.726 7.73zM181.785 40.258c4.27 0 7.727-3.461 7.727-7.727V2.992a80.99 80.99 0 0 0-15.453 6.07v23.465c0 4.27 3.457 7.73 7.726 7.73zm0 0" fill="#ff8709"></path></g><path d="M470.707 416.46H284.242v-79.94a6.225 6.225 0 0 1 6.227-6.223h174.015a6.222 6.222 0 0 1 6.223 6.223zm0 0" fill="#eab765"></path><path d="M464.484 330.297H433.32a6.222 6.222 0 0 1 6.223 6.223v79.94h31.164v-79.94a6.222 6.222 0 0 0-6.223-6.223zm0 0" fill="#d9ab5e"></path><path d="M461.367 503.621H50.633C22.668 503.621 0 480.953 0 452.988c0-27.96 22.668-50.629 50.633-50.629h410.734c27.965 0 50.633 22.668 50.633 50.63 0 27.964-22.668 50.632-50.633 50.632zm0 0" fill="#8ebac5"></path><path d="M461.367 402.36h-30.902c27.96 0 50.629 22.667 50.629 50.628 0 27.965-22.668 50.633-50.63 50.633h30.903c27.965 0 50.633-22.668 50.633-50.633 0-27.96-22.668-50.629-50.633-50.629zm0 0" fill="#7ca1b1"></path><path d="M50.633 474.738c-11.992 0-21.75-9.758-21.75-21.75s9.758-21.746 21.75-21.746h410.734c11.992 0 21.75 9.754 21.75 21.746 0 11.992-9.758 21.75-21.75 21.75zm0 0" fill="#384949"></path><path d="M483.117 452.988c0 12.012-9.738 21.75-21.75 21.75-12.008 0-21.746-9.738-21.746-21.75s9.738-21.746 21.746-21.746c12.012 0 21.75 9.735 21.75 21.746zM72.379 452.988c0 12.012-9.738 21.75-21.746 21.75-12.012 0-21.75-9.738-21.75-21.75s9.738-21.746 21.75-21.746c12.008 0 21.746 9.735 21.746 21.746zM201.766 452.988c0 12.012-9.735 21.75-21.746 21.75s-21.75-9.738-21.75-21.75 9.738-21.746 21.75-21.746 21.746 9.735 21.746 21.746zM353.73 452.988c0 12.012-9.738 21.75-21.75 21.75s-21.746-9.738-21.746-21.75 9.735-21.746 21.746-21.746 21.75 9.735 21.75 21.746zm0 0" fill="#deecf1"></path></g></svg>