<svg viewBox="0 0 32 32" xmlns="http://www.w3.org/2000/svg"><g><lineargradient gradientunits="userSpaceOnUse" id="a" x1="16" x2="16" y1="30" y2="22.76"><stop offset=".14" stop-color="#3758c0"></stop><stop offset=".24" stop-color="#446bcf"></stop><stop offset=".4" stop-color="#5582e2"></stop><stop offset=".55" stop-color="#5f90ee"></stop><stop offset=".68" stop-color="#6295f2"></stop></lineargradient><g><path d="m26.67 7.26-5.56-5a1 1 0 0 0-.67-.26H8.22A3.13 3.13 0 0 0 5 5v22a3.13 3.13 0 0 0 3.22 3h15.56A3.13 3.13 0 0 0 27 27V8a1 1 0 0 0-.33-.74zM15.83 11h.34a3.83 3.83 0 0 1 2.71 6.54l-1.34 1.34a1.78 1.78 0 0 0-.54 1.29 1 1 0 0 1-2 0 3.84 3.84 0 0 1 1.12-2.71l1.34-1.34a1.78 1.78 0 0 0 .54-1.29A1.83 1.83 0 0 0 16.17 13h-.34A1.83 1.83 0 0 0 14 14.83a1 1 0 0 1-2 0A3.84 3.84 0 0 1 15.83 11zM15 23a1.23 1.23 0 0 1 0-.19.6.6 0 0 1 .06-.19.76.76 0 0 1 .09-.18 1.58 1.58 0 0 1 .12-.15 1 1 0 0 1 .33-.21 1 1 0 0 1 1.09.21 1.58 1.58 0 0 1 .12.15.76.76 0 0 1 .09.18.6.6 0 0 1 .06.19A1.23 1.23 0 0 1 17 23a1.05 1.05 0 0 1-.29.71l-.15.12a.76.76 0 0 1-.18.09l-.18.08H16a1 1 0 0 1-.38-.08 1 1 0 0 1-.33-.21A1.05 1.05 0 0 1 15 23z" fill="#6295f2"></path><path d="M27 8v2h-6a3 3 0 0 1-3-3V2h2.44a1 1 0 0 1 .67.26l5.56 5A1 1 0 0 1 27 8z" fill="#98b8fe"></path><path d="M26.88 22.8a.06.06 0 0 1 .12 0V27a3.13 3.13 0 0 1-3.22 3H8.22A3.13 3.13 0 0 1 5 27v-4.18a.06.06 0 0 1 .12 0A3.2 3.2 0 0 0 8.22 25h15.56a3.2 3.2 0 0 0 3.1-2.2z" fill="url(#a)"></path></g></g></svg>