<svg viewBox="0 0 512 512" xmlns="http://www.w3.org/2000/svg"><g><path d="M96 336h32v48H96zM176 304H32c-8.837 0-16 7.163-16 16s7.163 16 16 16h144c8.837 0 16-7.163 16-16s-7.163-16-16-16z" fill="#463c4b"></path><path d="M88 304H32c-8.837 0-16 7.163-16 16s7.163 16 16 16h56c8.837 0 16-7.163 16-16s-7.163-16-16-16z" fill="#555a6e"></path><path d="M112 480h208c8.837 0 16-7.163 16-16V336H128c-17.673 0-32 14.327-32 32v96c0 8.837 7.163 16 16 16z" fill="#e1322d"></path><path d="M176 336c-17.673 0-32 14.327-32 32v64c-17.673 0-32 14.327-32 32 0 8.837 7.164 16 16 16h96V336z" fill="#555a6e"></path><path d="M224 336c-17.673 0-32 14.327-32 32v64c-17.673 0-32 14.327-32 32 0 8.837 7.164 16 16 16h96V336z" fill="#463c4b"></path><path d="M288 480h192c8.837 0 16-7.163 16-16V224c0-17.673-14.327-32-32-32H304c-17.673 0-32 14.327-32 32v240c0 8.837 7.163 16 16 16z" fill="#f04b37"></path><path d="M400 336H272V224c0-17.673 14.327-32 32-32h96z" fill="#a5c3dc"></path><path d="M320 240c8.837 0 16-7.163 16-16 0-17.673 14.327-32 32-32h-32c-17.673 0-32 14.327-32 32 0 8.837 7.163 16 16 16zM296 192h72v-80c0-17.673-14.327-32-32-32h-24c-17.673 0-32 14.327-32 32v64c0 8.837 7.163 16 16 16z" fill="#f0915a"></path><path d="M328 192h-32c-8.837 0-16-7.163-16-16v-64c0-17.673 14.327-32 32-32 17.673 0 32 14.327 32 32v64c0 8.837-7.163 16-16 16z" fill="#fab991"></path><path d="M336 152a8 8 0 0 1-8-8v-24a8 8 0 0 0-8-8h-40c0-17.673 14.327-32 32-32h32c17.673 0 32 14.327 32 32v52c0 6.627-5.373 12-12 12s-12-5.373-12-12v-12z" fill="#463c4b"></path><path d="M344 160a8 8 0 0 1-8-8v-16a8 8 0 0 1 8-8c8.837 0 16 7.163 16 16s-7.163 16-16 16z" fill="#f0915a"></path><circle cx="144" cy="128" fill="#d7e6f0" r="96"></circle><path d="M184 176a7.974 7.974 0 0 1-5.657-2.343l-40-40A8.002 8.002 0 0 1 136 128V48a8 8 0 0 1 16 0v76.687l37.657 37.656A8 8 0 0 1 184 176z" fill="#f06423"></path><circle cx="144" cy="128" fill="#faa019" r="16"></circle><path d="M224 136h-8a8 8 0 0 1 0-16h8a8 8 0 0 1 0 16zM72 136h-8a8 8 0 0 1 0-16h8a8 8 0 0 1 0 16zM144 216a8 8 0 0 1-8-8v-8a8 8 0 0 1 16 0v8a8 8 0 0 1-8 8z" fill="#a5c3dc"></path><path d="M400 336h-64c-17.673 0-32-14.327-32-32s14.327-32 32-32h32v-48c0-17.673 14.327-32 32-32s32 14.327 32 32v80c0 17.673-14.327 32-32 32z" fill="#d7e6f0"></path><path d="M464 192c-17.673 0-32 14.327-32 32v112H272c-17.673 0-32 14.327-32 32v96c0 8.837 7.164 16 16 16h224c8.836 0 16-7.163 16-16V224c0-17.673-14.327-32-32-32z" fill="#e1322d"></path><path d="M256 480h32c8.837 0 16-7.163 16-16v-96c0-17.673-14.327-32-32-32-17.673 0-32 14.327-32 32v96c0 8.837 7.163 16 16 16z" fill="#f04b37"></path><path d="M304 336h32v-64h-24a8 8 0 0 0-8 8z" fill="#d7e6f0"></path><path d="M208 336h64v-64h-56a8 8 0 0 0-8 8z" fill="#87a5be"></path><path d="M248 336h56v-48h-32c-17.673 0-32 14.327-32 32v8a8 8 0 0 0 8 8z" fill="#fab991"></path><path d="M152 336h56v-48h-32c-17.673 0-32 14.327-32 32v8a8 8 0 0 0 8 8z" fill="#f0915a"></path><path d="M104 240H72a8 8 0 0 0-8 8v48a8 8 0 0 0 8 8h32a8 8 0 0 0 8-8v-48a8 8 0 0 0-8-8z" fill="#23aae6"></path><path d="M88 248a8 8 0 0 1 8-8H72a8 8 0 0 0-8 8v48h24z" fill="#5ad7ff"></path><path d="M120 296h-8v-16h8v-16h-8v-16h8c8.822 0 16 7.178 16 16v16c0 8.822-7.178 16-16 16z" fill="#2387c3"></path></g></svg>