<svg viewBox="0 0 512 512.001" xmlns="http://www.w3.org/2000/svg"><g><g fill-rule="evenodd"><path d="M336.336 328.945c19.676-43.543 22.418-117.308 1.344-156.148-4.344-8.004-14.84-14.895-18.864-2.89-3.351 9.956-5.129 18.34-7.023 22.34-11.34 23.683-45.414 23.972-46.348-22.02C262.97 48.449 181.32-.145 135.996 0c-39.879.117 59.727 71.313-3.789 174.11-9.621 15.593-22.066 5.956-35.156-5.696-15.477-13.785-45.383-21.492-62.844-8.762-7.898 1.957 3.555 13.082 8.363 22.868 23.203 47.105 24.836 46.812 7.961 86.675-8.687 20.5-6.27 43.368-1.195 60.39l142.656 77.243zm0 0" fill="#f78411"></path><path d="M53.121 477.355c-2.125-17.203-15.71-29.613-30.312-27.746-1.575.207-3.122.559-4.579 1.082C6.191 454.84-1.62 468.77.305 484.071c2.129 17.202 15.71 29.613 30.285 27.741 1.05-.113 2.039-.32 3.031-.582l4.434-1.695c10.406-5.254 16.816-18.133 15.066-32.18zm0 0" fill="#fcc368"></path><path d="m191.988 450.723-14.222-33.262h-72.758L18.23 450.69c1.457-.523 3.004-.875 4.579-1.082 14.601-1.867 28.187 10.543 30.312 27.746 1.75 14.047-4.664 26.926-15.066 32.18zm0 0" fill="#b5722f"></path><path d="M255.07 360.047c22.473-65.797 3.293-118.8-35.972-149.406-18.422-14.368-45.676-14.16-31.743 13.785 12.739 25.496 6.532 61.035-.175 80.222-5.977 17.114-24.25 25.903-38.301 3.649-4.488-7.156-9.617-25.027-20.23-27.656-15.157-3.735-23.669 40.273-11.02 75.082l74.36 51.105zm0 0" fill="#fcc368"></path><path d="M336.336 328.945c19.676-43.543 22.418-117.308 1.344-156.148-4.344-8.004-14.84-14.895-18.864-2.89-3.351 9.956-5.129 18.34-7.023 22.34-.613 1.226-1.254 2.421-1.953 3.503 15.683 40.563 11.894 105.8-6.149 145.691zm0 0" fill="#f74311"></path><path d="m191.988 450.723-15.07-12.121-24.805-3.125-99.601 38.285c.261 1.168.465 2.367.61 3.593 1.75 14.047-4.665 26.926-15.067 32.18zm0 0" fill="#91561a"></path><path d="M365.777 450.664 279 417.461l-87.012-33.262L40.59 326.258c-37.313-14.281-56.93 44.855-23.348 57.676l87.766 33.527 86.98 33.262 153.938 58.812c-10.375-5.254-16.817-18.133-15.04-32.18 2.13-17.203 15.712-29.613 30.286-27.746a24.29 24.29 0 0 1 4.605 1.055zm0 0" fill="#b5722f"></path><path d="M383.703 484.07c1.926-15.3-5.887-29.23-17.926-33.379v-.027a23.987 23.987 0 0 0-4.605-1.05c-14.574-1.872-28.16 10.542-30.285 27.741-1.782 14.047 4.66 26.926 15.039 32.184l4.46 1.691c.962.266 1.981.47 3.032.586 14.574 1.868 28.156-10.546 30.285-27.746zm0 0" fill="#fcc368"></path><path d="M331.613 473.238 2.871 343.547c-6.121 14.836-2.945 33.758 14.371 40.387l87.766 33.527c80.308 30.691 160.613 61.383 240.918 92.074-10.375-5.254-16.817-18.133-15.04-32.18a38.23 38.23 0 0 1 .727-4.117zm0 0" fill="#91561a"></path><path d="M366.77 383.934c33.578-12.82 13.93-71.957-23.38-57.676l-151.402 57.937 20.23 42.348L279 417.461zm0 0" fill="#b5722f"></path><path d="M366.77 383.934c16.03-6.133 19.937-22.809 15.562-37l-143.5 55.164L279 417.46zm0 0" fill="#91561a"></path></g></g></svg>