<svg viewBox="0 0 512.003 512.003" xmlns="http://www.w3.org/2000/svg"><g><path d="M426.617 123.141 259.485 35.475a7.503 7.503 0 0 0-6.968 0L184.89 70.947l-6.205 14.65-26.205 2.35-67.095 35.193a7.443 7.443 0 0 0-2.882 2.702c-.135.219 173.498 295.481 173.498 295.481l174.632-104.09V129.782a7.496 7.496 0 0 0-4.016-6.641z" fill="#d8ab8c"></path><path d="m256.001 408.833-.261-187.599a7.499 7.499 0 0 0-4.016-6.631L101.37 135.738l-8.746 198.269s162.731 96.341 163.378 96.342a7.471 7.471 0 0 0 3.484-.853l167.132-87.666a7.5 7.5 0 0 0 4.016-6.642v-17.956z" fill="#c38778"></path><path d="M101.369 323.189V135.738l-18.873-9.9a7.487 7.487 0 0 0-1.127 3.944v205.407a7.5 7.5 0 0 0 4.016 6.642l167.132 87.666a7.498 7.498 0 0 0 3.484.858v-21.521l-150.616-79.002a7.502 7.502 0 0 1-4.016-6.643z" fill="#b1705b"></path><path d="m152.48 87.947 181.976 95.452 25.066-20.852-174.632-91.6z" fill="#fff0af"></path><path d="M327.112 179.547v64.079c0 2.213 2.315 3.665 4.307 2.7l23.871-11.556a7.5 7.5 0 0 0 4.232-6.751v-65.472z" fill="#ffe07d"></path><g fill="#909ba6"><path d="M329.863 477.386a7.476 7.476 0 0 1-3.478-.86l-42.895-22.5a7.5 7.5 0 1 1 6.967-13.283l19.82 10.396 158.486-83.131-10.642-5.582a7.5 7.5 0 0 1 6.967-13.283l42.895 22.5a7.5 7.5 0 1 1-6.967 13.283l-16.107-8.449-158.486 83.131 6.929 3.635a7.5 7.5 0 0 1-3.489 14.143zM182.14 477.386a7.5 7.5 0 0 1-6.648-4.019 7.5 7.5 0 0 1 3.158-10.125l6.929-3.635-158.487-83.13-16.107 8.449a7.5 7.5 0 1 1-6.967-13.283l42.895-22.5a7.5 7.5 0 1 1 6.967 13.283l-10.642 5.582 158.486 83.131 19.82-10.396a7.498 7.498 0 0 1 10.125 3.158 7.5 7.5 0 0 1-3.158 10.125l-42.895 22.5a7.463 7.463 0 0 1-3.476.86zM50.39 331.165a7.476 7.476 0 0 1-3.478-.86L4.018 307.806A7.5 7.5 0 0 1 .86 297.681a7.498 7.498 0 0 1 10.125-3.158l8.627 4.525.325-197.555L4.37 93.328a7.5 7.5 0 1 1 6.967-13.283l42.895 22.5a7.5 7.5 0 0 1-6.967 13.283l-12.34-6.473-.325 197.554 19.28 10.113a7.5 7.5 0 0 1-3.49 14.143z" fill="#909ba6"></path></g></g></svg>