<svg viewBox="0 0 512 512" xmlns="http://www.w3.org/2000/svg"><g><path d="M151.62 222.326v-25.371c0-10.886 5.451-20.922 14.581-26.849l21.06-13.669h-25.117c-6.812 0-12.912-3.101-16.967-7.964-.628.07-1.263.114-1.909.114-9.406 0-17.059-7.653-17.059-17.06h-2c0 9.406-7.652 17.06-17.059 17.06s-17.06-7.653-17.06-17.06h-2c0 9.309-7.496 16.902-16.769 17.057-9.541.16-17.348-7.966-17.348-17.508v-3.433h-1v63.882a44.966 44.966 0 0 0 12.003 30.585l19.258 20.758a12.849 12.849 0 0 1 3.429 8.738V470.97c0 5.523 4.477 10 10 10h69.83c5.523 0 10-4.477 10-10V252.374a12.84 12.84 0 0 1 4.186-9.474l-9.468.023c-11.354 0-20.591-9.24-20.591-20.597z" fill="#ffa78f"></path><path d="M151.62 222.326v-25.371c0-10.886 5.451-20.922 14.581-26.849l21.06-13.669h-25.117c-6.812 0-12.912-3.101-16.967-7.964-.628.07-1.263.114-1.909.114-9.406 0-17.059-7.653-17.059-17.06h-2c0 9.406-7.652 17.06-17.059 17.06s-17.06-7.653-17.06-17.06h-2c0 9.309-7.496 16.902-16.769 17.057-9.541.16-17.348-7.966-17.348-17.508v-3.433h-1v63.882a44.966 44.966 0 0 0 12.003 30.585l19.258 20.758a12.849 12.849 0 0 1 3.429 8.738V470.97c0 5.523 4.477 10 10 10h69.83c5.523 0 10-4.477 10-10V252.374a12.84 12.84 0 0 1 4.186-9.474l-9.468.023c-11.354 0-20.591-9.24-20.591-20.597z" fill="#d78878"></path><path d="M140.057 134.352v-2.238c0-5.399 4.394-9.793 9.793-9.793h47.594V80.599c0-9.724-7.473-18.091-17.186-18.548-10.37-.488-18.931 7.775-18.931 18.038 0-9.974-8.085-18.059-18.059-18.059s-18.059 8.085-18.059 18.059c0-9.974-8.085-18.059-18.059-18.059s-18.059 8.085-18.059 18.059v.509c-.001-9.723-7.473-18.09-17.186-18.547-10.37-.488-18.931 7.775-18.931 18.038v51.439c0 9.974 8.085 18.059 18.059 18.059 9.973 0 18.059-8.085 18.059-18.059 0 9.974 8.085 18.059 18.059 18.059 9.973 0 18.059-8.085 18.059-18.059 0 9.974 8.085 18.059 18.059 18.059.919 0 1.814-.091 2.696-.223-3.663-3.944-5.908-9.22-5.908-15.012zM158.437 237.591a12.687 12.687 0 0 0-.943 4.782v184.429c0 5.523-4.477 10-10 10h-59.83v34.167c0 5.523 4.477 10 10 10h69.83c5.523 0 10-4.477 10-10V252.374a12.84 12.84 0 0 1 4.186-9.474l-9.468.023c-5.299 0-10.122-2.03-13.775-5.332z" fill="#c96e59"></path><g fill="#bb5d4c"><path d="M181.117 80.598v41.722h16.326V80.598c0-9.724-7.473-18.091-17.186-18.548a17.998 17.998 0 0 0-9.1 1.965c5.951 3.096 9.96 9.469 9.96 16.583zM145 80.598v43.019a9.719 9.719 0 0 1 4.85-1.297h11.476V80.598c0-9.724-7.473-18.091-17.186-18.548a17.998 17.998 0 0 0-9.1 1.965c5.95 3.096 9.96 9.469 9.96 16.583zM108.022 62.05a17.998 17.998 0 0 0-9.1 1.965c5.951 3.095 9.96 9.469 9.96 16.583v50.929c0 7.032-4.028 13.111-9.896 16.094a17.961 17.961 0 0 0 8.163 1.965c9.974 0 18.059-8.085 18.059-18.059V80.598c0-9.723-7.472-18.09-17.186-18.548zM71.905 62.05a17.998 17.998 0 0 0-9.1 1.965c5.951 3.095 9.96 9.469 9.96 16.583v50.929c0 7.032-4.028 13.111-9.896 16.094a17.961 17.961 0 0 0 8.163 1.965c9.974 0 18.059-8.085 18.059-18.059V80.598c0-9.723-7.473-18.09-17.186-18.548z" fill="#bb5d4c"></path></g><path d="M203.804 121.321h-53.955c-5.961 0-10.793 4.832-10.793 10.793v2.238c0 12.751 10.336 23.087 23.087 23.087h21.74l-18.226 11.83a33.008 33.008 0 0 0-15.037 27.687v25.372c0 12.023 9.819 21.731 21.841 21.595l8.298-.094c.343-.385.705-.755 1.096-1.1l22.877-20.124A44.969 44.969 0 0 0 220 188.841v-51.323c0-8.946-7.251-16.197-16.196-16.197z" fill="#eb9c8d"></path><path d="M203.804 121.321h-5.037c.792 1.909 1.233 4 1.233 6.196v51.323a44.965 44.965 0 0 1-15.268 33.764l-22.877 20.124c-.205.18-.383.382-.573.575a12.922 12.922 0 0 0-3.222 5.326 21.507 21.507 0 0 0 14.401 5.293l8.298-.094c.343-.385.705-.755 1.096-1.1l22.877-20.124A44.969 44.969 0 0 0 220 188.84v-51.323c0-8.945-7.251-16.196-16.196-16.196z" fill="#d78878"></path><path d="M401.62 191.326v-25.371c0-10.886 5.451-20.922 14.581-26.849l21.06-13.669h-25.117c-6.812 0-12.912-3.101-16.967-7.964-.628.07-1.263.114-1.909.114-9.406 0-17.059-7.653-17.059-17.06h-2c0 9.406-7.652 17.06-17.059 17.06s-17.06-7.653-17.06-17.06h-2c0 9.406-7.652 17.06-17.059 17.06s-17.059-7.653-17.059-17.06v-3.884h-1v63.882a44.972 44.972 0 0 0 12.002 30.585l19.258 20.758a12.849 12.849 0 0 1 3.429 8.738V470.97c0 5.523 4.477 10 10 10h69.83c5.523 0 10-4.477 10-10V221.374a12.84 12.84 0 0 1 4.186-9.474l-9.468.023c-11.352 0-20.589-9.24-20.589-20.597z" fill="#ffa78f"></path><path d="M401.62 191.326v-25.371c0-10.886 5.451-20.922 14.581-26.849l21.06-13.669h-25.117c-6.812 0-12.912-3.101-16.967-7.964-.628.07-1.263.114-1.909.114-9.406 0-17.059-7.653-17.059-17.06h-2c0 9.406-7.652 17.06-17.059 17.06s-17.06-7.653-17.06-17.06h-2c0 9.406-7.652 17.06-17.059 17.06s-17.059-7.653-17.059-17.06v-3.884h-1v63.882a44.972 44.972 0 0 0 12.002 30.585l19.258 20.758a12.849 12.849 0 0 1 3.429 8.738V470.97c0 5.523 4.477 10 10 10h69.83c5.523 0 10-4.477 10-10V221.374a12.84 12.84 0 0 1 4.186-9.474l-9.468.023c-11.352 0-20.589-9.24-20.589-20.597z" fill="#ffa78f"></path><path d="M390.057 103.352v-2.238c0-5.399 4.394-9.793 9.793-9.793h47.594V49.599c0-9.724-7.473-18.091-17.186-18.548-10.37-.488-18.931 7.775-18.931 18.038 0-9.974-8.085-18.059-18.059-18.059s-18.059 8.085-18.059 18.059c0-9.974-8.085-18.059-18.059-18.059s-18.059 8.085-18.059 18.059v.509c-.001-9.723-7.473-18.09-17.186-18.547-10.37-.488-18.931 7.775-18.931 18.038v51.439c0 9.974 8.085 18.059 18.059 18.059 9.973 0 18.059-8.085 18.059-18.059 0 9.974 8.085 18.059 18.059 18.059 9.973 0 18.059-8.085 18.059-18.059 0 9.974 8.085 18.059 18.059 18.059.919 0 1.814-.091 2.696-.223-3.663-3.944-5.908-9.22-5.908-15.012z" fill="#ffb09e"></path><g fill="#f89580"><path d="M408.437 206.591a12.687 12.687 0 0 0-.943 4.782v215.429c0 5.523-4.477 10-10 10h-59.83v34.167c0 5.523 4.477 10 10 10h69.83c5.523 0 10-4.477 10-10V221.374a12.84 12.84 0 0 1 4.186-9.474l-9.468.023c-5.299 0-10.122-2.03-13.775-5.332zM431.117 49.598V91.32h16.326V49.598c0-9.724-7.473-18.091-17.186-18.548a17.998 17.998 0 0 0-9.1 1.965c5.951 3.096 9.96 9.469 9.96 16.583zM395 49.598v43.019a9.719 9.719 0 0 1 4.85-1.297h11.476V49.598c0-9.724-7.473-18.091-17.186-18.548a17.998 17.998 0 0 0-9.1 1.965c5.95 3.096 9.96 9.469 9.96 16.583zM358.022 31.05a17.998 17.998 0 0 0-9.1 1.965c5.951 3.095 9.96 9.469 9.96 16.583v50.929c0 7.032-4.028 13.111-9.896 16.094a17.961 17.961 0 0 0 8.163 1.965c9.974 0 18.059-8.085 18.059-18.059V49.598c0-9.723-7.472-18.09-17.186-18.548zM321.905 31.05a17.998 17.998 0 0 0-9.1 1.965c5.951 3.095 9.96 9.469 9.96 16.583v50.929c0 7.032-4.028 13.111-9.896 16.094a17.961 17.961 0 0 0 8.163 1.965c9.974 0 18.059-8.085 18.059-18.059V49.598c0-9.723-7.473-18.09-17.186-18.548z" fill="#f89580"></path></g><path d="M453.804 90.321h-53.955c-5.961 0-10.793 4.832-10.793 10.793v2.238c0 12.751 10.336 23.087 23.087 23.087h21.74l-18.226 11.83a33.008 33.008 0 0 0-15.037 27.687v25.372c0 12.023 9.819 21.731 21.841 21.595l8.298-.094c.343-.385.705-.755 1.096-1.1l22.877-20.124A44.969 44.969 0 0 0 470 157.841v-51.323c0-8.946-7.251-16.197-16.196-16.197z" fill="#ffcebf"></path><path d="M453.804 90.321h-5.037c.792 1.909 1.233 4 1.233 6.196v51.323a44.965 44.965 0 0 1-15.268 33.764l-22.877 20.124c-.205.18-.383.382-.573.575a12.922 12.922 0 0 0-3.222 5.326 21.507 21.507 0 0 0 14.401 5.293l8.298-.094c.343-.385.705-.755 1.096-1.1l22.877-20.124A44.969 44.969 0 0 0 470 157.84v-51.323c0-8.945-7.251-16.196-16.196-16.196z" fill="#ffb09e"></path><g fill="#7a6d79"><path d="M7.5 294.128h32.144v.098c0 4.143 3.357 7.5 7.5 7.5s7.5-3.357 7.5-7.5v-.098h152.085v.098c0 4.143 3.357 7.5 7.5 7.5s7.5-3.357 7.5-7.5v-.098h68.543v.098c0 4.143 3.357 7.5 7.5 7.5s7.5-3.357 7.5-7.5v-.098h152.085v.098c0 4.143 3.357 7.5 7.5 7.5s7.5-3.357 7.5-7.5v-.098H504.5c4.143 0 7.5-3.357 7.5-7.5s-3.357-7.5-7.5-7.5h-32.144v-.098c0-4.143-3.357-7.5-7.5-7.5s-7.5 3.357-7.5 7.5v.098H305.271v-.098c0-4.143-3.357-7.5-7.5-7.5s-7.5 3.357-7.5 7.5v.098h-68.543v-.098c0-4.143-3.357-7.5-7.5-7.5s-7.5 3.357-7.5 7.5v.098H54.644v-.098c0-4.143-3.357-7.5-7.5-7.5s-7.5 3.357-7.5 7.5v.098H7.5c-4.143 0-7.5 3.357-7.5 7.5s3.357 7.5 7.5 7.5zM504.5 353.848h-32.144v-.098c0-4.143-3.357-7.5-7.5-7.5s-7.5 3.357-7.5 7.5v.098h-68.543v-.098c0-4.143-3.357-7.5-7.5-7.5s-7.5 3.357-7.5 7.5v.098h-68.542v-.098c0-4.143-3.357-7.5-7.5-7.5s-7.5 3.357-7.5 7.5v.098h-68.543v-.098c0-4.143-3.357-7.5-7.5-7.5s-7.5 3.357-7.5 7.5v.098h-68.542v-.098c0-4.143-3.357-7.5-7.5-7.5s-7.5 3.357-7.5 7.5v.098H54.644v-.098c0-4.143-3.357-7.5-7.5-7.5s-7.5 3.357-7.5 7.5v.098H7.5c-4.143 0-7.5 3.357-7.5 7.5s3.357 7.5 7.5 7.5h32.144v.099c0 4.143 3.357 7.5 7.5 7.5s7.5-3.357 7.5-7.5v-.099h68.543v.099c0 4.143 3.357 7.5 7.5 7.5s7.5-3.357 7.5-7.5v-.099h68.542v.099c0 4.143 3.357 7.5 7.5 7.5s7.5-3.357 7.5-7.5v-.099h68.543v.099c0 4.143 3.357 7.5 7.5 7.5s7.5-3.357 7.5-7.5v-.099h68.542v.099c0 4.143 3.357 7.5 7.5 7.5s7.5-3.357 7.5-7.5v-.099h68.543v.099c0 4.143 3.357 7.5 7.5 7.5s7.5-3.357 7.5-7.5v-.099H504.5c4.143 0 7.5-3.357 7.5-7.5s-3.357-7.5-7.5-7.5zM504.5 428.652h-32.144v-.098c0-4.143-3.357-7.5-7.5-7.5s-7.5 3.357-7.5 7.5v.098h-68.543v-.098c0-4.143-3.357-7.5-7.5-7.5s-7.5 3.357-7.5 7.5v.098h-68.542v-.098c0-4.143-3.357-7.5-7.5-7.5s-7.5 3.357-7.5 7.5v.098h-68.543v-.098c0-4.143-3.357-7.5-7.5-7.5s-7.5 3.357-7.5 7.5v.098h-68.542v-.098c0-4.143-3.357-7.5-7.5-7.5s-7.5 3.357-7.5 7.5v.098H54.644v-.098c0-4.143-3.357-7.5-7.5-7.5s-7.5 3.357-7.5 7.5v.098H7.5c-4.143 0-7.5 3.357-7.5 7.5s3.357 7.5 7.5 7.5h32.144v.098c0 4.143 3.357 7.5 7.5 7.5s7.5-3.357 7.5-7.5v-.098h68.543v.098c0 4.143 3.357 7.5 7.5 7.5s7.5-3.357 7.5-7.5v-.098h68.542v.098c0 4.143 3.357 7.5 7.5 7.5s7.5-3.357 7.5-7.5v-.098h68.543v.098c0 4.143 3.357 7.5 7.5 7.5s7.5-3.357 7.5-7.5v-.098h68.542v.098c0 4.143 3.357 7.5 7.5 7.5s7.5-3.357 7.5-7.5v-.098h68.543v.098c0 4.143 3.357 7.5 7.5 7.5s7.5-3.357 7.5-7.5v-.098H504.5c4.143 0 7.5-3.357 7.5-7.5s-3.357-7.5-7.5-7.5z" fill="#7a6d79"></path></g></g></svg>