<svg viewBox="0 0 512 512" xmlns="http://www.w3.org/2000/svg"><g><path d="M499.871 270.129C499.871 403.71 391.582 512 258 512S16.129 403.71 16.129 270.129C16.129 136.55 124.418 28.262 258 28.262S499.871 136.55 499.871 270.129zm0 0" fill="#88c116"></path><path d="M456.902 386.316c-5.265-26.882-29.91-34.789-29.91-34.789l-69.5-20.5c-3.375 9.457-11.789 33.04-17.406 48.774-1.848 5.187-8.188 7.113-12.61 3.832l-19.246-14.274h-36.718l-.153-.117.051.117-19.246 14.274c-4.422 3.281-10.758 1.355-12.61-3.832l-17.406-48.774c-3.714 1.094-69.683 20.5-69.683 20.5-9.043 3.371-25.45 12.453-29.91 34.79l-12.578 75.097c110.511 85.64 271.691 60 349.789-57.883-1.598-9.746-2.692-16.344-2.864-17.215zm0 0" fill="#f6e6cb"></path><path d="m122.555 386.316-12.575 75.098a242.02 242.02 0 0 0 24.56 16.727l15.745-100.63c3.758-18.827 16.008-28.238 25.18-32.745-12.692 3.73-23 6.765-23 6.765-9.04 3.371-25.45 12.45-29.91 34.785zm0 0" fill="#edd4b0"></path><path d="M192.566 154.063v-14.157c0-6.12 7.723-6.59 7.723-6.59l-.008-.015c51.453-2.04 109.832-23.492 132.746-32.352 5.875-2.281 12.508-1.426 18.188 2.996l31.719 26.22s4.25 3.804 4.25 10.956v13.383c8.527-.75 18.246 2.012 23.66 6.793v-40.328C410.844 54.266 356.578 0 289.875 0S168.902 54.266 168.902 120.969v40.168c5.407-4.84 15.118-7.688 23.664-7.075zm0 0" fill="#8c4f25"></path><path d="M212.645 132.45v-11.481c0-59.235 42.8-108.66 99.101-118.985A121.237 121.237 0 0 0 289.875 0c-66.707 0-120.973 54.266-120.973 120.969v40.168c5.407-4.844 15.118-7.688 23.664-7.075v-14.156c0-6.12 7.723-6.59 7.723-6.59l-.008-.015c4.086-.16 8.215-.457 12.364-.852zm0 0" fill="#773c15"></path><path d="M191.586 148.285c-16.14-1.23-30.441 10.63-30.441 25.09 0 14.395 14.222 26.324 30.44 25.09zM388.16 148.75V198c16.172 1.504 30.442-10.324 30.442-24.625.003-14.363-14.348-26.117-30.442-24.625zm0 0" fill="#f59d6b"></path><path d="M164.16 162.207c-1.922 3.379-3.015 7.172-3.015 11.168 0 14.395 14.222 26.324 30.44 25.09v-22.332c-11.726.894-22.405-5.098-27.425-13.926zM388.16 175.672V198c16.172 1.504 30.442-10.324 30.442-24.625 0-4.004-1.114-7.8-3.07-11.164-5.048 8.7-15.716 14.543-27.372 13.46zm0 0" fill="#f28b51"></path><path d="m331.598 313.516-23.364 55.843 19.243 14.274c4.425 3.281 10.761 1.355 12.613-3.828l17.406-48.778zm0 0" fill="#edd4b0"></path><path d="M294.578 296.945c-16.73.782-32.621-2.687-46.719-9.422v25.993c1.141 2.691-6.047-14.282 23.657 55.843h36.718l23.368-55.843v-25.63c-11.344 5.262-23.848 8.442-37.024 9.06zm0 0" fill="#f59d6b"></path><path d="M277.598 332.926a103.918 103.918 0 0 1-8.18-38.055 97.483 97.483 0 0 1-21.559-7.348v25.993c1.141 2.691-6.047-14.282 23.657 55.843h21.527c-21.164-49.925-13.867-32.707-15.445-36.433zm0 0" fill="#f28b51"></path><path d="m271.516 369.36-9.403 6.898 14.196 24.41h26.582l14.308-24.656-8.965-6.653h-36.718zm0 0" fill="#e74242"></path><path d="M302.89 400.668H276.31L259.5 511.672c1.617-.125 25.219 1.379 58.86-7.266zm0 0" fill="#ff5252"></path><path d="M174.742 422.191a7.339 7.339 0 0 0-7.34 7.34v64.914a240.1 240.1 0 0 0 14.68 5.383v-70.297a7.339 7.339 0 0 0-7.34-7.34zM404.2 422.191a7.339 7.339 0 0 0-7.34 7.34v38.649a242.916 242.916 0 0 0 14.675-11.157v-27.492a7.338 7.338 0 0 0-7.336-7.34zm0 0" fill="#edd4b0"></path><path d="m384.89 127.227-33.675-26.215c-5.68-4.426-12.313-5.278-18.188-2.996-22.914 8.855-83.25 30.308-134.703 32.347l.008.016s-7.723.473-7.723 6.59v62.344c0 56.882 47.149 103.218 103.97 100.566 52.636-2.453 94.562-45.902 94.562-99.156v-62.54c0-7.152-4.25-10.953-4.25-10.956zm0 0" fill="#f9ae85"></path><path d="M212.625 199.313V129.34c-4.816.488-9.598.84-14.3 1.027l.007.012s-7.723.473-7.723 6.594v62.34c0 56.886 47.149 103.218 103.97 100.57 2.144-.102 4.269-.278 6.374-.512-49.578-5.59-88.328-48.488-88.328-100.058zm0 0" fill="#f59d6b"></path><path d="M271.516 369.36c-5.52 4.046-3.84 2.816-9.403 6.898l14.196 24.41h26.582c-17.504-14.172-9.848-31.309-9.848-31.309h-21.527zm0 0" fill="#ce3232"></path><path d="m308.242 436.574-5.351-35.906h-26.582l-5.461 36.074c9.988 11.438 27.554 11.309 37.394-.168zm0 0" fill="#e74242"></path><path d="M339.945 354.535c-9.691 0-17.547-7.855-17.547-17.547 0-.566.032-1.129.086-1.683l-14.25 34.054 19.243 14.274c4.425 3.281 10.761 1.36 12.613-3.828l10.238-28.692a17.458 17.458 0 0 1-10.383 3.422zM247.86 313.516l23.55 55.843-19.242 14.274c-4.426 3.281-10.762 1.355-12.613-3.828l-17.407-48.778zm0 0" fill="#e0c096"></path><path d="M244.223 122.11c0-67.122-54.16-121.598-121.164-122.106C56.387-.504 1.207 53.223.019 119.887c-.917 51.605 30.184 96.054 74.758 114.812 3.13 1.32 6.004 3.188 8.434 5.563l52.57 51.36c3.196 3.12 8.567.858 8.567-3.606v-40.137c0-3.227 2.199-6.067 5.343-6.793 54.157-12.5 94.532-61.02 94.532-118.977zm0 0" fill="#5085fe"></path><path d="M78.113 180.695c-40.445-53.007-30.52-129.379 22.075-170.36A122.959 122.959 0 0 1 115.418.192C52.218 3.661 1.16 55.785.02 119.887c-.918 51.605 30.183 96.054 74.757 114.812 3.133 1.32 6.004 3.188 8.434 5.563l52.57 51.36c3.196 3.12 8.567.858 8.567-3.606v-40.137c0-3.227 2.199-6.067 5.343-6.793a121.25 121.25 0 0 0 32.184-12.492c-38.914 2.09-78.215-14.418-103.762-47.899zm0 0" fill="#3c78ef"></path><g fill="#7da8ff"><path d="M149.582 179.855H63.254a7.341 7.341 0 0 1 0-14.68h86.328c4.055 0 7.34 3.286 7.34 7.34s-3.285 7.34-7.34 7.34zM179.012 148.652H63.254a7.341 7.341 0 0 1 0-14.68h115.758c4.05 0 7.34 3.286 7.34 7.34a7.344 7.344 0 0 1-7.34 7.34zM179.012 117.445H63.254a7.338 7.338 0 1 1 0-14.675h115.758c4.05 0 7.34 3.285 7.34 7.34a7.343 7.343 0 0 1-7.34 7.335zM179.012 86.242h-56.903a7.338 7.338 0 0 1-7.336-7.34 7.337 7.337 0 0 1 7.336-7.336h56.903a7.34 7.34 0 0 1 7.34 7.336 7.344 7.344 0 0 1-7.34 7.34zm0 0" fill="#7da8ff"></path></g></g></svg>