<svg viewBox="0 0 511.996 511.996" xmlns="http://www.w3.org/2000/svg"><g><path d="M476.205.279c-11.451 0-22.021 5.285-28.187 14.093L388.122 97.17l26.425 26.425 82.798-59.896c15.855-11.451 19.378-33.472 7.927-49.326C498.226 5.564 487.656.279 476.205.279zM14.651 447.74c-15.855 11.451-19.378 33.472-7.927 49.326 11.451 15.855 33.472 19.378 49.326 7.927 2.642-1.762 5.285-4.404 7.927-7.927l59.896-82.798-26.425-26.425-82.797 59.897z" fill="#d68033"></path><path d="M44.14 192.987h423.675v124.196H44.14z" fill="#f09e3e" transform="rotate(134.999 255.979 255.086)"></path><path d="m83.355 382.559 66.943 66.943L449.781 150.02l-42.28-42.28C325.584 226.652 213.718 321.782 83.355 382.559z" fill="#f09235"></path><path d="M370.199 69.972h17.616v124.196h-17.616z" fill="#d68033" transform="rotate(134.999 379.01 132.07)"></path><path d="M123.584 316.61H141.2v124.196h-17.616z" fill="#d68033" transform="rotate(134.999 132.394 378.709)"></path></g></svg>