<svg viewBox="0 0 512 512" xmlns="http://www.w3.org/2000/svg"><g><path d="M285.938 285.938H512V512H285.937zm0 0" fill="#5be167"></path><path d="M389.84 244.316c67.36 0 122.16-54.8 122.16-122.16C512 54.801 457.2 0 389.84 0S267.684 54.8 267.684 122.16s54.8 122.156 122.156 122.156zm0 0" fill="#ffda2d"></path><path d="M0 231.313h262.7L131.351 0zm0 0" fill="#ff0059"></path><path d="M63.648 291.512 0 401.758 63.648 512h127.297l63.649-110.242-63.649-110.246zm0 0" fill="#00d7df"></path><path d="M398 285.938h114V512H398zm0 0" fill="#1fc974"></path><path d="M389.84 244.316c67.36 0 122.16-54.8 122.16-122.16C512 54.801 457.2 0 389.84 0zm0 0" fill="#fdbf00"></path><path d="M131.203 231.313H262.7L131.352 0zm0 0" fill="#d20041"></path><path d="M190.945 291.512H127V512h63.945l63.649-110.242zm0 0" fill="#00aadf"></path></g></svg>