<svg id="Flat" height="512" viewBox="0 0 128 128" width="512" xmlns="http://www.w3.org/2000/svg"><path d="m39.094 54.107c1.7-1.613 21.45-18.945 22.3-45.767.1-3.286.531-7.029 3.49-7.325 0 0 24-1.832 9.5 35.58-3.61 9.31-3.73 14.65.5 13.31 8.688-2.755 48.956-10.86 40.5 16.06 0 0 7.3 9.05-1.021 19.121 0 0 6.714 11.822-5.839 19.12 0 0 16.662 28.483-70.917 16.076a7.039 7.039 0 0 1 -6.05-6.965s-11.995.847-13.075-1.784c-3.907-9.518-1.623-27.323-1.623-35.266 0-1.317 14.7-3.536 14.7-3.536-.009-11.869 6.085-17.246 7.535-18.624z" fill="#f4c17f"/><path d="m108.52 104.21s16.66 28.48-70.92 16.07a7.033 7.033 0 0 1 -6.05-6.96v-.83a7 7 0 0 0 4.76 2.92c87.58 12.4 70.92-16.08 70.92-16.08 6.88-4 7.97-9.36 7.55-13.38 1.24 2.84 4.26 12.14-6.26 18.26z" opacity=".1"/><rect fill="#4f5c7f" height="69.67" rx="2.968" width="21.893" x="9.659" y="57.33"/></svg>