<svg viewBox="0 0 64 64" xmlns="http://www.w3.org/2000/svg"><g><path d="M57 27a4.92 4.92 0 0 0-1.173-3.195 3.079 3.079 0 0 1-.585-2.949 4.936 4.936 0 0 0-2.454-5.913 3.085 3.085 0 0 1-1.679-2.515 4.936 4.936 0 0 0-4.52-4.535 3.077 3.077 0 0 1-2.5-1.672 4.941 4.941 0 0 0-5.917-2.446 3.082 3.082 0 0 1-2.966-.592 4.939 4.939 0 0 0-6.4-.01 3.078 3.078 0 0 1-2.949.585 4.936 4.936 0 0 0-5.913 2.454 3.085 3.085 0 0 1-2.515 1.679 4.936 4.936 0 0 0-4.535 4.519 3.077 3.077 0 0 1-1.672 2.5 4.941 4.941 0 0 0-2.446 5.917 3.082 3.082 0 0 1-.592 2.966 4.939 4.939 0 0 0-.01 6.4 3.078 3.078 0 0 1 .585 2.949 4.936 4.936 0 0 0 2.454 5.913 3.083 3.083 0 0 1 1.679 2.515 4.936 4.936 0 0 0 4.519 4.535 3.077 3.077 0 0 1 2.5 1.672 4.941 4.941 0 0 0 5.917 2.446 3.082 3.082 0 0 1 2.966.592 4.939 4.939 0 0 0 6.4.01 3.078 3.078 0 0 1 2.949-.585 4.936 4.936 0 0 0 5.913-2.454 3.083 3.083 0 0 1 2.515-1.679 4.936 4.936 0 0 0 4.535-4.52 3.077 3.077 0 0 1 1.672-2.5 4.941 4.941 0 0 0 2.446-5.917 3.082 3.082 0 0 1 .592-2.966A4.926 4.926 0 0 0 57 27z" fill="#f9d266"></path><path d="m32 52-9 10-3-7-14 3 10.956-11.952c.15.027.3.047.454.059a3.077 3.077 0 0 1 2.5 1.672 4.941 4.941 0 0 0 5.917 2.446 3.082 3.082 0 0 1 2.966.592A4.926 4.926 0 0 0 32 52zM32 52l9 10 3-7 14 3-10.956-11.952c-.15.027-.3.047-.454.059a3.077 3.077 0 0 0-2.5 1.672 4.941 4.941 0 0 1-5.917 2.446 3.082 3.082 0 0 0-2.966.592A4.926 4.926 0 0 1 32 52z" fill="#f0ae42"></path><circle cx="32" cy="27" fill="#f2f2f2" r="19"></circle><ellipse cx="30.5" cy="27" fill="#ffffff" rx="17.5" ry="18.924"></ellipse><path d="m32 42 .226-.139A26.843 26.843 0 0 0 45 19a15.219 15.219 0 0 1-11.556-5.315L32 12l-1.444 1.684A15.218 15.218 0 0 1 19 19a26.845 26.845 0 0 0 12.775 22.862z" fill="#559b2d"></path><path d="m25 29 4 4 10-10-2-2-8 8-2-2z" fill="#fce797"></path></g></svg>