<svg viewBox="0 0 512 512" xmlns="http://www.w3.org/2000/svg"><g><path d="M272.066 447.738c-10.945 0-17.472-10.843-14.097-20.129l64.265-176.734c2.832-7.785 11.442-11.8 19.227-8.973 7.785 2.832 11.8 11.442 8.969 19.227l-64.266 176.73c-2.219 6.094-7.969 9.88-14.098 9.88zm0 0" fill="#3ab4fb"></path><path d="M432.734 447.738c-6.109 0-11.851-3.761-14.082-9.832l-64.91-176.734c-2.855-7.777 1.137-16.395 8.91-19.25 7.774-2.86 16.395 1.133 19.25 8.906l64.91 176.734c3.657 9.954-3.843 20.176-14.078 20.176zm0 0" fill="#1d9cfd"></path><path d="M464.871 0H239.93c-26.028 0-47.13 21.102-47.13 47.129V223.87c0 26.027 21.102 47.129 47.13 47.129H464.87C490.898 271 512 249.898 512 223.871V47.13C512 21.102 490.898 0 464.871 0zm0 0" fill="#eff6fe"></path><path d="M464.871 0H350.43v271H464.87C490.898 271 512 249.898 512 223.871V47.13C512 21.102 490.898 0 464.871 0zm0 0" fill="#d9e4ef"></path><path d="M160.664 95.336c0 36.082-29.25 65.332-65.332 65.332S30 131.418 30 95.336C30 59.25 59.25 30 95.332 30s65.332 29.25 65.332 65.336zm0 0" fill="#ffcfbe"></path><path d="M241.258 253.352c-7.41-3.707-10.41-12.715-6.707-20.125l40.168-80.336c3.707-7.41 12.719-10.41 20.125-6.707 7.41 3.707 10.41 12.714 6.707 20.125l-40.168 80.332c-3.711 7.422-12.727 10.41-20.125 6.71zm0 0" fill="#ffb826"></path><path d="M160.672 95.336c0 36.082-29.25 65.332-65.344 65.332V29.996c36.094 0 65.344 29.25 65.344 65.34zm0 0" fill="#f9bcaa"></path><path d="M432.734 86.238H272.066c-8.285 0-15-6.718-15-15 0-8.285 6.715-15 15-15h160.668c8.282 0 15 6.715 15 15 0 8.282-6.714 15-15 15zm0 0" fill="#3ab4fb"></path><g fill="#1d9cfd"><path d="M432.734 150.5H365.43c-8.285 0-15-6.715-15-15s6.715-15 15-15h67.304c8.286 0 15 6.715 15 15s-6.714 15-15 15zM432.734 214.766H365.43c-8.285 0-15-6.72-15-15 0-8.286 6.715-15 15-15h67.304c8.286 0 15 6.714 15 15 0 8.28-6.714 15-15 15zM432.734 56.238H350.43v30h82.304c8.286 0 15-6.718 15-15 0-8.285-6.714-15-15-15zm0 0" fill="#1d9cfd"></path></g><path d="M143.531 447.734H47.133c-8.285 0-15-6.714-15-15v-83.847C13.473 342.609 0 324.949 0 304.199V256c0-25.504 9.926-49.45 27.945-67.422 17.68-17.726 42.25-27.91 67.39-27.91h13.255c26.312 0 41.734 9.637 63.347 20.383 23.801 11.836 53.497 26.601 72.434 36.035 17.473 8.684 25.84 29.047 19.55 47.48l-.058.176c-3.785 11.195-12.27 20.215-23.281 24.746-11.047 4.496-23.426 4.02-34.027-1.281-15.118-7.562-33.801-16.902-48.02-24.008v168.535c-.004 8.286-6.719 15-15.004 15zm0 0" fill="#ff7579"></path><path d="M244.371 217.086c-18.937-9.434-48.633-24.2-72.437-36.035-21.61-10.746-37.032-20.383-63.344-20.383H95.328v287.066h48.203c8.285 0 15-6.714 15-15V264.2c14.223 7.106 32.906 16.446 48.024 24.008 10.597 5.3 22.98 5.773 34.023 1.281 11.012-4.531 19.5-13.55 23.285-24.75l.059-.176c6.289-18.43-2.078-38.792-19.55-47.476zm0 0" fill="#fe4a60"></path></g></svg>