<svg viewBox="0 0 512 512" xmlns="http://www.w3.org/2000/svg"><g><path d="M512 150.07v247.172c-44.137 0-44.137 44.137-79.45 52.965-64.527 8.031-77.417-42.812-79.183-71.855 8.035-43.258-17.918-60.559-17.918-60.559l.266-1.414 4.058.707a9.024 9.024 0 0 0 7.68-2.469l21.188-21.187a8.943 8.943 0 0 1 5.03-2.563l52.173-7.414a8.832 8.832 0 0 0 7.504-7.68l7.062-56.144a8.822 8.822 0 0 1 8.738-7.766h30.543a8.831 8.831 0 0 0 8.122-5.386zm0 0" fill="#c9ced1"></path><path d="M512 397.242V512s-8.828-70.621-79.45-61.793c35.313-8.828 35.313-52.965 79.45-52.965zm0 0" fill="#a5b4b4"></path><path d="M512 512H326.621c0-17.656-26.484-35.309-17.656-61.793s35.312-26.484 44.14-70.621c.086-.441.176-.883.262-1.234 1.766 29.043 14.656 79.886 79.184 71.855C503.17 441.379 512 512 512 512zm0 0" fill="#919d9e"></path><path d="M353.367 378.352c-.086.351-.176.793-.262 1.234-8.828 44.137-35.312 44.137-44.14 70.621S264.828 476.691 264.828 512H0l102.137-93.574a8.548 8.548 0 0 1 8.738-1.852l68.68 22.864a9.016 9.016 0 0 0 9.707-2.825l98.781-123.586a8.94 8.94 0 0 1 8.387-3.18l39.285 6.532-.266 1.414s25.953 17.3 17.918 60.559zm0 0" fill="#a5b4b4"></path><path d="M326.621 512h-61.793c0-35.309 35.309-35.309 44.137-61.793-8.828 26.484 17.656 44.137 17.656 61.793zm0 0" fill="#586270"></path><path d="M252.762 109.012C146.008-8.676 70.622.148 70.622.148c67.026 34.52 147.253 136.68 147.253 136.68s97.703 93.988 125.52 164.086c0 0 16.125-74.21-90.633-191.902zm0 0" fill="#bddcf3"></path><path d="M252.762 109.012a591.261 591.261 0 0 1 11.652 13.242l6.75-6.125c7.223-6.555 7.762-17.719 1.211-24.942-6.57-7.199-17.734-7.714-24.938-1.144l-6.753 6.125c3.992 4.098 8 8.352 12.078 12.844zm0 0" fill="#dc6c33"></path><path d="M282.484 273.656S256 256 238.344 256c-17.653 0-8.828 44.137-8.828 44.137s35.312-26.48 52.968-26.48zM370.758 247.172s17.656-26.48 8.828-44.137c0 0 26.484 17.656 26.484 35.309 0 17.656-35.312 8.828-35.312 8.828zm0 0" fill="#a5b4b4"></path><path d="M344.277 158.898a8.829 8.829 0 0 1-8.828-8.828v-17.656a8.829 8.829 0 0 1 17.656 0v17.656a8.829 8.829 0 0 1-8.828 8.828zM370.758 176.55a8.819 8.819 0 0 1-7.504-4.187 8.822 8.822 0 0 1-.387-8.586l8.828-17.652a8.832 8.832 0 1 1 15.8 7.89l-8.827 17.657a8.816 8.816 0 0 1-7.91 4.879zm0 0" fill="#f6db6d"></path><path d="M217.875 136.828s-4.293-5.445-11.645-14.195L31.672 285.73c-7.223 6.555-7.766 17.72-1.211 24.942 6.55 7.226 17.719 7.77 24.941 1.215l174.496-163.078c-7.441-7.567-12.023-11.98-12.023-11.98zm0 0" fill="#dc6c33"></path></g></svg>