<svg viewBox="0 0 512 512" xmlns="http://www.w3.org/2000/svg"><g><path clip-rule="evenodd" d="m184.296 428.044-6.922 19.878 8.63 19.437h80.674c5.802-24.877 2.886-49.549-18.556-60.017zM293.099 395.256l-3.858 51.813 29.307 20.29h47.715c46.625 0 .353-135.796-73.164-72.103z" fill="#918291" fill-rule="evenodd"></path><path clip-rule="evenodd" d="M355.306 405.136c-.766 34.523-5.714 53.225 10.957 62.223 16.082 8.734 61.176 5.205 51.191-34.64l-9.514-37.992c-11.075-8.646-47.097-3.294-52.634 10.409z" fill="#ffbc85" fill-rule="evenodd"></path><path clip-rule="evenodd" d="m134.46 422.633-39.315 13.226-20.594 31.001-.707.5h79.378s8.747-12.797 7.571-18.002c-1.329-5.881-26.333-26.725-26.333-26.725zM106.096 262.988c-39.292 10.174-68.156 45.991-68.156 88.276v59.341l195.957-12.645 162.468-72.809c-9.749-32.846-37.23-56.4-71.691-62.164H106.096z" fill="#918291" fill-rule="evenodd"></path><path clip-rule="evenodd" d="M104.299 124.428c-24.889 0-22.562 50.343 5.626 50.343h8.689c14.108-19.643 10.103-34.787-3.917-50.343zM313.216 174.771h9.749c28.187 0 30.485-50.343 5.626-50.343H317.31c-13.224 14.732-15.375 30.112-4.094 50.343z" fill="#f5a96c" fill-rule="evenodd"></path><path clip-rule="evenodd" d="M143.002 216.027c-20.323 8.292-37.112 28.259-37.112 51.431 0 30.582 25.036 55.577 55.639 55.577l46.154-.029c15.198-40.169-21.826-125.093-64.681-106.979zM242.733 230.407c-27.834 2.882-15.935 59.076-18.939 92.599l45.418-.029c30.632 0 55.668-24.995 55.668-55.548 0-1.5-.059-2.97-.206-4.44-1.915-21.231-17.437-39.169-36.376-46.961-17.289-2.5-20.588 11.791-45.565 14.379z" fill="#c6d0da" fill-rule="evenodd"></path><path clip-rule="evenodd" d="M167.125 271.251c0 27.994 18.144 50.99 40.558 51.754h16.111c22.326-.882 40.352-23.848 40.352-51.754V237.14c-35.787-23.436-63.915-21.613-97.021.265z" fill="#ffbc85" fill-rule="evenodd"></path><path clip-rule="evenodd" d="M143.002 216.027c7.069 7.998 15.228 15.291 24.123 21.378 7.805 5.322 16.17 9.733 24.948 12.909 8.424 3.029 15.905 4.734 23.298 5.087 7.393-.353 14.904-2.058 23.328-5.087 8.895-3.205 17.466-7.734 25.448-13.174 8.866-6.028 17.024-13.233 24.152-21.113 11.428-12.645 20.176-27.053 24.918-41.256L256.9 154.04c-13.902-5.117-27.127-13.997-41.53-12.939-10.78.794-20.765 9.527-31.457 12.939l-65.299 20.731c4.654 14.203 13.195 28.612 24.388 41.256zM317.31 100.521c-3.682-134.473-202.643-133.738-202.614.471v6.087l106.211 17.35 96.403-17.35z" fill="#918291" fill-rule="evenodd"></path><path clip-rule="evenodd" d="M215.37 161.862c14.403-1.059 26.715 12.909 41.53 12.909h56.316a85.211 85.211 0 0 0 2.091-7.322 76.558 76.558 0 0 0 2.003-17.32v-43.051H114.697v45.197c0 4.911.619 10.027 1.856 15.203a75.128 75.128 0 0 0 2.062 7.293h65.299c11.221 0 20.676-12.115 31.456-12.909z" fill="#fed1a3" fill-rule="evenodd"></path><path clip-rule="evenodd" d="M213.338.012c39.881 9.88 74.077 42.256 75.579 97.275v9.793h28.394v-6.558C315.455 32.711 263.94-.694 213.338.012z" fill="#685d68" fill-rule="evenodd"></path><path clip-rule="evenodd" d="M288.917 121.193v25.701c0 6.116-.766 12.056-2.003 17.32a7.995 7.995 0 0 0-.206.794c-.53 2.176-1.178 4.352-1.885 6.528-.383 1.088-.766 2.147-1.149 3.235h29.542a85.211 85.211 0 0 0 2.091-7.322 76.558 76.558 0 0 0 2.003-17.32v-43.051h-28.394V121.193z" fill="#ffbc85" fill-rule="evenodd"></path><path clip-rule="evenodd" d="M283.674 174.771c-4.948 13.144-13.225 26.318-23.769 37.992a137.774 137.774 0 0 1-14.668 14.027 120.004 120.004 0 0 1-5.272 4.117 108.32 108.32 0 0 1-4.212 2.999 98.557 98.557 0 0 1-4.713 3.058c-6.598 4.087-13.578 7.528-20.736 10.116-4.094 1.47-7.953 2.617-11.723 3.47a55.28 55.28 0 0 1-3.711.735 86.85 86.85 0 0 0 4.772 1.47c5.478 1.529 10.633 2.411 15.728 2.647 3.152-.147 6.333-.559 9.602-1.176 4.359-.853 8.895-2.176 13.726-3.911 8.895-3.205 17.466-7.734 25.448-13.174 8.866-6.028 17.024-13.233 24.152-21.113 11.428-12.645 20.176-27.053 24.918-41.256h-29.542z" fill="#685d68" fill-rule="evenodd"></path><path clip-rule="evenodd" d="M276.782 227.348c11.634 8.528 20.441 21.202 22.974 35.64.236 1.353.412 2.705.53 4.087.147 1.47.206 2.941.206 4.44 0 23.201-14.432 43.168-34.756 51.46h3.476c30.632 0 55.668-24.995 55.668-55.548 0-1.5-.059-2.97-.206-4.44-1.915-21.231-17.437-39.169-36.376-46.961a134.748 134.748 0 0 1-11.516 11.322z" fill="#a0aab7" fill-rule="evenodd"></path><path clip-rule="evenodd" d="M167.125 237.405v29.7c0 12.056 55.668 23.584 76.963 9.675 1.738-1.147 3.387-.206 3.299 3.852v15.144c0 6.91-1.09 13.497-3.093 19.526 11.899-9.145 19.852-25.495 19.852-44.05v-34.111c-7.982 5.44-16.553 9.969-25.448 13.174-4.83 1.735-9.366 3.058-13.726 3.911-3.269.618-6.45 1.029-9.602 1.176-5.096-.235-10.25-1.117-15.728-2.647a87.999 87.999 0 0 1-4.772-1.47 64.528 64.528 0 0 1-2.798-.97c-8.777-3.176-17.142-7.587-24.947-12.91z" fill="#f5a96c" fill-rule="evenodd"></path><path clip-rule="evenodd" d="M83.652 272.163c2.533 34.581 31.634 66.751 66.86 66.751 43.238-.029 86.477-.059 129.715-.059 24.27-.029 45.624-15.173 57.406-35.934 4.124-7.322 1.502-8.351 8.836-2.97a86.848 86.848 0 0 1 25.595 29.7l24.241-4.47.059-.029c-7.511-25.289-25.507-45.05-49.129-55.46-7.069-3.117-14.639-5.381-22.562-6.705.147 1.47.206 2.941.206 4.44 0 30.553-25.036 55.548-55.668 55.548h-3.476c-34.756.029-69.482.029-104.208.059-30.603 0-55.639-24.995-55.639-55.577 0-1.5.059-2.999.206-4.47a90.568 90.568 0 0 0-22.442 9.176z" fill="#685d68" fill-rule="evenodd"></path><path clip-rule="evenodd" d="m426.732 302.128 3.122 16.85 26.98 4.146 25.949-13.909-3.122-16.85c-.884-4.764-5.508-7.94-10.279-7.057l-35.551 6.528c-4.772.882-7.983 5.528-7.099 10.292z" fill="#918291" fill-rule="evenodd"></path><path clip-rule="evenodd" d="m7.543 420.927 10.221 80.102c.324 2.529 3.358 5.234 5.42 3.735l51.368-37.904 59.909-44.226 18.762-15.291-11.31-15.909L37.94 410.606l-26.656 4.911c-2.533.47-4.065 2.881-3.741 5.41zM145.623 434.807c8.394 19.996 11.752 51.401 2.327 75.25-.412 1.029.972 2 2.062 1.941l35.787-1.529c1.119-.059 2.003-.97 1.944-2.058l-1.738-41.051-1.708-39.316-17.731-8.998z" fill="#e7a561" fill-rule="evenodd"></path><path clip-rule="evenodd" d="m339.077 335.739-2.828 17.144 8.1 11.233c-.972 7.94 42.856.912 69.305-9.292l79.408-14.674c18.703-3.44 12.842-35.199-5.891-31.758l-90.865 16.791zM329.302 492.767l-39.853 13.846c-1.237.412-2.207-.433-3.011-1.432-6.094-8.005-13.25-22.087-19.756-37.818-8.517-20.501-15.941-43.793-18.56-60.018l18.467-15.35 26.51 3.266c1.516 7.325 3.949 16.091 6.981 25.373a381.533 381.533 0 0 0 5.073 14.587 437.353 437.353 0 0 0 4.939 12.795 414.1 414.1 0 0 0 6.094 14.237 360.57 360.57 0 0 0 2.361 5.11c4.186 8.88 8.362 16.699 12.198 22.437.702 1.05-.236 2.554-1.443 2.967z" fill="#c6d0da" fill-rule="evenodd"></path><path clip-rule="evenodd" d="m144.298 381.435-2.386 9.998-7.452 31.2-1.237 5.234c-1.237 5.117 1.856 8.763 7.069 7.851l5.331-.912 38.673-6.763 16.141-2.823 47.686-17.879 19.94-7.469 18.173-23.878c6.863-7.263 8.983-17.026-9.484-28.759L152.014 370.23c-5.213.972-6.509 6.059-7.716 11.205z" fill="#c6d0da" fill-rule="evenodd"></path><path clip-rule="evenodd" d="m262.231 368.409 5.096 27.524.736 3.94c21.619-3.999 43.238-7.969 64.858-11.968 0-.029-.059-.059-.029-.088 10.486-6.94 14.698-8.087 11.458-23.701l-5.272-28.377-51.279 9.439-10.957 2.029c-9.869 1.882-16.437 11.321-14.611 21.202z" fill="#e7a561" fill-rule="evenodd"></path><path clip-rule="evenodd" d="m342.228 352.765 2.121 11.351 61.176-11.292a10.28 10.28 0 0 1 8.129 2l79.408-14.674c12.312-2.264 13.991-16.791 8.335-25.495-1.119 5.264-4.654 9.733-11.045 10.91zM135.786 417.134l-1.325 5.499-1.237 5.234c-1.237 5.117 1.856 8.763 7.069 7.851l5.331-.912 38.673-6.763 16.141-2.823 47.686-17.879 19.94-7.469-.736-3.94-.736-3.94-1.09-5.881z" fill="#a0aab7" fill-rule="evenodd"></path><path clip-rule="evenodd" d="m266.591 391.992.736 3.94.736 3.94 25.036-4.617 3.829-.706 35.993-6.646c0-.029-.059-.059-.029-.088l-1.767-9.557-.236-1.264a9.98 9.98 0 0 1-.059-3.235c-.177.088-.324.206-.471.294-.029.029 0 .059 0 .088l-26.509 4.911-23.21 4.264-15.139 2.794zM14.818 477.975l2.945 23.054c.324 2.529 3.358 5.234 5.42 3.735l50.661-37.404.707-.5 59.909-44.226.177-.676 5.096-21.408z" fill="#e28424" fill-rule="evenodd"></path><path clip-rule="evenodd" d="M339.106 365.086c-5.537 1.029-9.219 6.381-8.218 11.909l2.003 10.821.029.088c2.003 10.645 11.782 17.967 22.385 17.232l52.634-10.41c8.306-4.087 13.284-13.35 11.516-22.878l-2.003-10.821a10.143 10.143 0 0 0-3.8-6.205 10.28 10.28 0 0 0-8.129-2l-61.176 11.292z" fill="#fed1a3" fill-rule="evenodd"></path><path clip-rule="evenodd" d="M398.22 375.76c1.001 5.322-.118 10.616-2.739 14.997-2.062 3.47-5.096 6.352-8.748 8.175l21.207-4.205c8.306-4.087 13.284-13.35 11.516-22.878l-2.003-10.821a10.143 10.143 0 0 0-3.8-6.205 10.28 10.28 0 0 0-8.129-2l-21.207 3.94a10.06 10.06 0 0 1 8.1 1.97 11.487 11.487 0 0 1 2.121 2.176 10.017 10.017 0 0 1 1.679 4.029z" fill="#ffbc85" fill-rule="evenodd"></path><path clip-rule="evenodd" d="M355.306 405.136c-.147 7.44-.53 14.144-.825 20.172l5.007-1c10.338-2.029 20.677-4.087 31.015-6.116 6.391-1.264 7.187 4.94 8.689 10.998l6.48 25.877c.943 3.793 1.414 7.263 1.414 10.439 9.042-5.705 14.58-16.026 10.368-32.788l-9.514-37.992c-17.525 3.471-35.08 6.941-52.634 10.41z" fill="#f5a96c" fill-rule="evenodd"></path><path clip-rule="evenodd" d="m184.296 428.044.501 11.645.295 6.675 67.95-17.849c-.177-.559-.324-1.117-.471-1.647-1.973-7.116-3.505-13.762-4.448-19.526l-47.686 17.879zM293.099 395.256c1.208 5.881 3.034 12.703 5.272 19.967.118.441.236.853.383 1.264l47.833-12.586c-6.833-2.47-12.223-8.381-13.667-15.997l-35.993 6.646z" fill="#685d68" fill-rule="evenodd"></path><path clip-rule="evenodd" d="M149.423 445.864c.913 3.293 1.679 6.734 2.327 10.292l7.305-1.735c9.278-2.205 13.166 2.97 13.46 13.527l1.738 41.021c.059 1.117-.825 2.029-1.915 2.088l13.46-.588c1.119-.059 2.003-.97 1.944-2.058l-1.738-41.051c-.383-13.644-1.149-26.201-1.708-39.316l-38.673 6.763c1.443 3.382 2.71 7.116 3.8 11.057z" fill="#e28424" fill-rule="evenodd"></path><path clip-rule="evenodd" d="m268.063 399.873-19.94 7.469c.707 4.47 1.797 9.498 3.181 14.85 7.658-2.029 15.846-5.087 23.004-6.91 7.54-1.911 8.483 5.705 10.81 13.086 1.708 5.411 2.415 8.322 4.477 13.968.825 2.235 1.649 4.499 2.504 6.734 3.593 9.322 7.511 18.585 11.428 26.877 4.006 8.498 8.041 16.026 11.723 21.702l14.05-4.881c1.208-.412 2.15-1.911 1.443-2.97-3.829-5.734-8.012-13.556-12.194-22.437-1.856-3.882-3.682-7.969-5.478-12.174a422.782 422.782 0 0 1-10.515-27.23c-1.355-3.882-2.651-7.734-3.8-11.468a16.084 16.084 0 0 1-.383-1.264c-2.238-7.263-4.065-14.085-5.272-19.967z" fill="#a0aab7" fill-rule="evenodd"></path><path clip-rule="evenodd" d="m461.9 295.658 3.122 16.82 17.761-3.264-3.122-16.85c-.884-4.764-5.508-7.94-10.279-7.057l-17.79 3.264c4.8-.882 9.424 2.294 10.308 7.087z" fill="#685d68" fill-rule="evenodd"></path><path d="M256.068 148.506a7.726 7.726 0 0 1-1.649-15.275l19.057-4.176c4.169-.911 8.295 1.723 9.21 5.892a7.726 7.726 0 0 1-5.897 9.202l-19.057 4.176a7.784 7.784 0 0 1-1.664.181zM179.886 148.506a7.72 7.72 0 0 1-1.664-.181l-19.057-4.176c-4.172-.914-6.813-5.034-5.897-9.202a7.734 7.734 0 0 1 9.21-5.892l19.057 4.176c4.172.914 6.813 5.034 5.897 9.202-.792 3.61-3.993 6.073-7.546 6.073zM305.154 435.221c-.103.041-.206.082-.32.113l-16.147 4.976a7.593 7.593 0 0 1-2.279.34c-3.3 0-6.362-2.133-7.383-5.45a7.728 7.728 0 0 1 5.114-9.663l15.941-4.904a379.892 379.892 0 0 0 5.074 14.588zM316.186 462.253a7.13 7.13 0 0 1-.835.319l-16.116 4.965a7.608 7.608 0 0 1-2.279.35c-3.3 0-6.362-2.132-7.383-5.45-1.268-4.08 1.021-8.406 5.104-9.663l15.415-4.759a414.162 414.162 0 0 0 6.094 14.238z" fill="#685d68"></path></g></svg>