<svg viewBox="0 0 512 512" xmlns="http://www.w3.org/2000/svg"><g><path d="M71.349 406.129v79.191a5.15 5.15 0 0 0 5.151 5.151h359a5.15 5.15 0 0 0 5.151-5.151v-79.191z" fill="#fe9901"></path><path d="M118.986 485.32v-78.191H71.349v78.191a5.15 5.15 0 0 0 5.151 5.151h47.637a5.15 5.15 0 0 1-5.151-5.151z" fill="#fb8801"></path><path d="M117.455 165.286c1.347.552 2.08 2.016 1.792 3.443L102.633 250.9l73.515 54.413 30.144-74.698-60.759-68.843c-.973-1.103-1.076-2.758-.173-3.92 4.849-6.237 6.554-14.789 3.561-22.964-3.862-10.547-14.828-17.051-25.931-15.353-14.335 2.193-23.209 16.21-19.562 29.822 2.008 7.494 7.364 13.195 14.027 15.929z" fill="#fee45a"></path><path d="M117.455 165.286c1.347.552 2.08 2.016 1.792 3.443l-16.395 81.089 14.097 10.434 19.812-97.985c.288-1.427-.445-2.891-1.792-3.443-6.663-2.733-12.019-8.435-14.027-15.928-2.356-8.793.518-17.75 6.709-23.585a23.283 23.283 0 0 0-4.66.224c-14.335 2.193-23.209 16.21-19.562 29.822 2.007 7.494 7.363 13.195 14.026 15.929zM366.486 161.75l-60.778 68.864 30.144 74.698 73.515-54.413-16.608-82.139c-.291-1.44.444-2.923 1.803-3.482 7.048-2.897 12.63-9.117 14.33-17.265 2.445-11.724-4.402-23.67-15.755-27.48-13.19-4.426-27.177 3.221-30.723 16.455-2.016 7.523-.206 15.169 4.235 20.875.897 1.153.802 2.793-.163 3.887z" fill="#fedf30"></path><path d="m366.486 161.75-60.037 68.026 7.168 17.762 72.623-82.286c.966-1.094 1.06-2.735.163-3.886-4.442-5.706-6.251-13.352-4.235-20.875 2.296-8.57 8.974-14.792 16.976-16.915a23.403 23.403 0 0 0-6.006-3.042c-13.19-4.426-27.177 3.221-30.723 16.455-2.016 7.523-.206 15.169 4.235 20.875.896 1.152.801 2.792-.164 3.886zM485.553 169.75c-11.056 1.146-19.999 10.054-21.196 21.105-.463 4.274.208 8.349 1.744 11.967.922 2.171.201 4.691-1.695 6.094l-128.941 95.438 41.474 102.774h63.711l40.841-185.732a5.143 5.143 0 0 1 5.312-4.029 23.86 23.86 0 0 0 4.564-.188c11.05-1.516 19.74-10.723 20.565-21.846 1.104-14.873-11.421-27.134-26.379-25.583z" fill="#fed402"></path><path d="M485.553 169.75c-11.056 1.146-19.999 10.054-21.196 21.105-.463 4.275.208 8.349 1.744 11.968.922 2.171.201 4.691-1.695 6.094l-128.11 94.823 5.807 14.389 137.392-101.694c1.896-1.403 2.616-3.923 1.695-6.094-1.536-3.619-2.207-7.693-1.744-11.968 1.197-11.051 10.14-19.958 21.196-21.105 1.7-.176 3.366-.166 4.986-.002-4.894-5.275-12.142-8.338-20.075-7.516z" fill="#fac600"></path><path d="m135.06 407.129 41.474-102.774-128.941-95.438c-1.896-1.403-2.616-3.923-1.695-6.094 1.536-3.619 2.207-7.693 1.744-11.967-1.196-11.052-10.141-19.96-21.198-21.106C11.483 168.2-1.044 180.468.069 195.348c.831 11.121 9.523 20.321 20.572 21.833 1.549.212 3.07.268 4.555.187a5.142 5.142 0 0 1 5.312 4.029l40.841 185.732z" fill="#fed402"></path><path d="M43.234 209.912a5.143 5.143 0 0 0-5.312-4.029 23.929 23.929 0 0 1-4.555-.187c-11.049-1.512-19.741-10.713-20.572-21.833a23.854 23.854 0 0 1 2.517-12.649C5.823 174.869-.75 184.397.069 195.348c.831 11.121 9.524 20.321 20.572 21.834 1.549.212 3.07.268 4.555.187a5.142 5.142 0 0 1 5.312 4.029L71.349 407.13h16.752z" fill="#fac600"></path><path d="M378.019 407.129 271.996 144.403a5.152 5.152 0 0 1 1.134-5.57l22.463-22.463a5.15 5.15 0 0 0 0-7.284l-35.951-35.951a5.15 5.15 0 0 0-7.285 0l-35.951 35.951a5.15 5.15 0 0 0 0 7.284l22.463 22.463a5.15 5.15 0 0 1 1.134 5.57L133.981 407.129z" fill="#fee45a"></path><path d="m263.136 138.834-22.463-22.463a5.15 5.15 0 0 1 0-7.285l27.46-27.46-8.491-8.491a5.15 5.15 0 0 0-7.284 0l-35.951 35.951a5.15 5.15 0 0 0 0 7.285l22.463 22.463a5.15 5.15 0 0 1 1.134 5.57L133.981 407.129h24.267L264.27 144.403a5.148 5.148 0 0 0-1.134-5.569z" fill="#fedf30"></path><path d="m253.093 264.834-29.916 41.497a3.584 3.584 0 0 0-.023 4.16l29.916 42.462c1.428 2.026 4.432 2.026 5.859 0l29.916-42.462c.88-1.25.871-2.92-.023-4.16l-29.916-41.497c-1.429-1.984-4.383-1.984-5.813 0z" fill="#925cb4"></path><path d="M248.186 310.49a3.584 3.584 0 0 1 .023-4.16l20.307-28.168-9.609-13.329c-1.43-1.984-4.384-1.984-5.814 0l-29.916 41.497a3.584 3.584 0 0 0-.023 4.16l29.916 42.462c1.428 2.026 4.432 2.026 5.859 0l9.587-13.607z" fill="#814ba2"></path><circle cx="121" cy="447.386" fill="#fed402" r="7.5"></circle><circle cx="175" cy="447.386" fill="#fed402" r="7.5"></circle><circle cx="229" cy="447.386" fill="#fed402" r="7.5"></circle><circle cx="283" cy="447.386" fill="#fed402" r="7.5"></circle><circle cx="337" cy="447.386" fill="#fed402" r="7.5"></circle><circle cx="391" cy="447.386" fill="#fed402" r="7.5"></circle><path d="M174.558 23.718c5.287 15.173 11.455 21.341 26.628 26.628 2.919 1.017 2.919 5.134 0 6.151-15.173 5.287-21.341 11.455-26.628 26.628-1.017 2.919-5.134 2.919-6.151 0-5.287-15.173-11.455-21.341-26.628-26.628-2.919-1.017-2.919-5.134 0-6.151 15.173-5.287 21.341-11.455 26.628-26.628 1.017-2.919 5.134-2.919 6.151 0z" fill="#fe9901"></path><path d="M155.557 43.535c-3.6 2.688-8.045 4.813-13.779 6.811-2.919 1.017-2.919 5.134 0 6.151 15.173 5.287 21.341 11.455 26.628 26.628 1.017 2.919 5.134 2.919 6.151 0 1.973-5.662 4.069-10.067 6.709-13.643-5.161-14.61-11.247-20.769-25.709-25.947z" fill="#fb8801"></path><path d="M344.623 51.533c5.287 15.173 11.455 21.341 26.628 26.628 2.919 1.017 2.919 5.134 0 6.151-15.173 5.287-21.341 11.455-26.628 26.628-1.017 2.919-5.134 2.919-6.151 0-5.287-15.173-11.455-21.341-26.628-26.628-2.919-1.017-2.919-5.134 0-6.151 15.173-5.287 21.341-11.455 26.628-26.628 1.018-2.919 5.134-2.919 6.151 0z" fill="#fe9901"></path><path d="M326.123 70.951c-3.689 2.874-8.27 5.117-14.279 7.21-2.919 1.017-2.919 5.134 0 6.151 15.173 5.287 21.341 11.455 26.628 26.628 1.017 2.919 5.134 2.919 6.151 0 2.051-5.886 4.242-10.405 7.032-14.055-5.142-14.586-11.195-20.764-25.532-25.934z" fill="#fb8801"></path></g></svg>