<svg viewBox="0 0 2048 2048" xmlns="http://www.w3.org/2000/svg"><g><g fill="#feaf38"><path d="M1751.69 998.87v.56c0 26.63-21.59 48.22-48.23 48.22h-532.57c-26.63 0-48.22-21.59-48.22-48.22v-.56c0-26.63 21.59-48.23 48.22-48.23h532.57c26.64 0 48.23 21.6 48.23 48.23zM1170.37 726.79c0 6.64-1.47 12.95-4.11 18.59-5.23 11.22-15.06 19.87-27.07 23.52-4.06 1.24-8.37 1.9-12.82 1.9-24.31 0-44.02-19.7-44.02-44.01s19.71-44.02 44.02-44.02 44 19.71 44 44.02zM1437.18 527.95c24.31 0 44.02 19.71 44.02 44.02 0 15.6-8.11 29.29-20.36 37.11-6.82 4.37-14.95 6.89-23.66 6.89s-16.84-2.53-23.66-6.89c-12.24-7.82-20.35-21.52-20.35-37.11 0-24.32 19.7-44.02 44.01-44.02zM1708.09 745.38a43.797 43.797 0 0 1-4.11-18.59c0-24.31 19.71-44.02 44.01-44.02 24.31 0 44.02 19.71 44.02 44.02s-19.71 44.01-44.02 44.01c-4.46 0-8.77-.66-12.82-1.9-12.01-3.65-21.84-12.3-27.08-23.52z" fill="#feaf38"></path></g><path d="m1735.16 768.9-55.37 181.74h-485.23l-55.37-181.74c12.01-3.65 21.84-12.3 27.07-23.52l123.66 57.64 123.59-193.95c6.82 4.37 14.95 6.89 23.66 6.89s16.83-2.53 23.66-6.89l123.6 193.95 123.65-57.64c5.25 11.22 15.08 19.87 27.08 23.52z" fill="#ffdd66"></path><path d="m1392.78 819.93 44.4-83.1 44.39 83.1-44.39 52.48z" fill="#ff725c"></path><path d="M498.01 689.17c-10.34-23.92-12.16-51.11-13.81-77.57-1.42-22.76-2.74-46.33 2.58-68.63 5.64-23.64 22.24-47.46 36.8-65.27 3.2-3.9 6.51-7.69 9.93-11.35 48.62-52.01 128.69-79.25 169.42-88.61 32.99-7.58 67.86-11.43 101.95-8.81 19 1.46 38.9 4.14 57.37 9.32 15.18 4.25 30.22 12.31 39.34 26.4 9.82 15.18 12.2 34.36 23.96 48.27 12.83 15.18 30.34 24.24 43.47 39.06 17.56 19.83 35.04 51.03 37.58 79 2.28 25.2-7.7 48.99-19.19 69.99-1.96 3.58-22.39 43.97-27 48.19h-462.4z" fill="#a85936"></path><path d="M841.61 1023.4s-3.35 18.28-3.04 32.94c.89 39.41 12.42 75.4 24.44 102.36v194.09H590.16v-194.33c10.34-25.39 20.35-60.3 21.16-96.5.49-22.41-2.99-32.24-6.5-47.71V879.89h236.8v143.51z" fill="#f0c0aa"></path><path d="M1190.41 1218.57v461.32H256v-461.32c0-51.34 34.96-96.07 84.76-108.48l218.57-54.48.01.01 49.04 38.1v.01l64.91 50.44 49.93 38.79.07-.06 25.71-19.98 92.97-72.24h.01l45.11-35.06 218.57 54.48c49.8 12.4 84.75 57.14 84.75 108.47z" fill="#4b5b80"></path><path d="M416.16 1299.86v380.03h-28.21v-380.03c0-7.79 6.31-14.11 14.11-14.11 7.78.01 14.1 6.32 14.1 14.11zM1058.47 1299.86v380.03h-28.21v-380.03c0-7.79 6.31-14.11 14.11-14.11 7.79.01 14.1 6.32 14.1 14.11z" fill="#3c4a66"></path><path d="M799.6 1679.89H656.91l28.96-327.09 5.06-57.05h74.75l5.04 57.05z" fill="#ff725c"></path><path d="M960.42 689.17v108.15c0 141.36-103.51 255.96-231.2 255.96-127.69 0-231.2-114.6-231.2-255.96V689.17s53.87-18.63 84.8-52.87c0 0 122.79 97.04 319.8 4.21 0-.01 29.57 31.24 57.8 48.66z" fill="#f9c7b2"></path><path d="M782.46 1136.92v79.65l-16.77 79.18h-74.74l-17.67-82.33v-69.25l49.93 38.79z" fill="#e66753"></path><g fill="#ebebeb"><path d="m887.08 1055.62-33.85 194.23-130.02-66.89zM559.34 1055.62 595.91 1250l127.3-67.04z" fill="#ebebeb"></path></g></g></svg>