<svg id="Flat" height="512" viewBox="0 0 64 64" width="512" xmlns="http://www.w3.org/2000/svg"><path d="m57.4487 17-4.7-7.52a5.5425 5.5425 0 0 1 4.7-8.48 5.5425 5.5425 0 0 1 4.7 8.48z" fill="#ca404b"/><circle cx="57.449" cy="6.552" fill="#fff" r="2"/><path d="m6.5513 63-4.7-7.52a5.5425 5.5425 0 0 1 4.7-8.48 5.5425 5.5425 0 0 1 4.7 8.48z" fill="#ca404b"/><circle cx="6.551" cy="52.552" fill="#fff" r="2"/><path d="m32 16a1 1 0 0 1 -1-1v-8.4487a1 1 0 0 1 1-1h16a1 1 0 0 1 0 2h-15v7.4487a1 1 0 0 1 -1 1z" fill="#5a5a60"/><path d="m32 58.4482h-16a1 1 0 0 1 0-2h15v-7.4482a1 1 0 0 1 2 0v8.4482a.9994.9994 0 0 1 -1 1z" fill="#5a5a60"/><path d="m48.725 21.0494-11.7611-8.4031a19.7252 19.7252 0 0 0 -14.1568 1.6037l-7.8071 14.75 6.4725 19.9821a19.854 19.854 0 0 0 14.3981 2.636l15.7468-15.7429a19.9133 19.9133 0 0 0 -2.8924-14.8258z" fill="#baffe5"/><path d="m52 32a19.8927 19.8927 0 0 0 -3.275-10.9506l-2.1269-1.52a19.9772 19.9772 0 0 1 -25.6752 27.7559l.55 1.6968a19.854 19.854 0 0 0 14.3981 2.636l15.7464-15.7429a20.0706 20.0706 0 0 0 .3826-3.8752z" fill="#a5fad7"/><g fill="#5ba187"><path d="m12 32a19.9831 19.9831 0 0 0 9.4555 16.9931c2.5986-1.6162 7.0981-5.47 3.4016-11.2788-3.8305-6.0194-.1149-8.685 1.8328-9.6026a6.1007 6.1007 0 0 0 2.6572-2.33c.897-1.49 1.1053-3.3651-3.0614-3.7818-5.2359-.5236-4.331-5.2659-3.4746-7.7625a19.9936 19.9936 0 0 0 -10.8111 17.7626z"/><path d="m34.1429 19.1429c4.5833 2.9167 4.0625 4.8611 2.8327 5.9751a3.27 3.27 0 0 0 -.4153 4.6029c.973 1.082 2.3347 1.39 4.0111-1.2923a21.36 21.36 0 0 1 8.1594-7.3822 20.0273 20.0273 0 0 0 -11.72-8.4132c-3.4874.961-8.302 3.0516-2.8679 6.5097z"/><path d="m45.77 31.59a5.288 5.288 0 0 0 -3.66 4.624c-.156 1.8791-1.1185 4.3574-5.11 4.3574-6.4286 0-2.8571 7.8572-2.8571 7.8572l1.73 3.1933a20.0174 20.0174 0 0 0 15.7471-15.7398c-1.0055-2.5454-2.8121-5.2127-5.85-4.2921z"/></g><path d="m16.4533 44.5639a20.1133 20.1133 0 0 0 5.0022 4.4292 15.0123 15.0123 0 0 0 1.3879-.98 19.9979 19.9979 0 0 1 -6.3901-3.4492z" fill="#508d76"/><path d="m47.5933 21.6744c.4052-.241.7938-.4592 1.1375-.6281a20.1177 20.1177 0 0 0 -4.1414-4.5587 20.0338 20.0338 0 0 1 3.0039 5.1868z" fill="#508d76"/><path d="m48.7632 31.92a19.987 19.987 0 0 1 -14.6674 16.4c.0291.0687.0471.1087.0471.1087l1.73 3.1934a20.0174 20.0174 0 0 0 15.7471-15.7401 8.0023 8.0023 0 0 0 -2.8568-3.962z" fill="#508d76"/></svg>