<svg viewBox="0 0 512 512" xmlns="http://www.w3.org/2000/svg"><g><path d="M12.336 178.545c-6.02-22.199-12.046-46.281-6.507-69.22 6.772-28.046 26.044-52.818 52.995-63.739 27.128-10.994 58.667-7.765 84.223 5.918a103.97 103.97 0 0 1 16.84 11.237s8.89-2.679 10.23-3.132c15.79-5.344 33.37-2.223 46.907 7.311 19.438 13.689 26.877 37.568 25.563 60.502-1.059 18.481-8.372 34.09-14.294 51.257z" fill="#537983"></path><path d="M242.591 127.42c-1.063 18.486-8.381 34.093-14.296 51.258l-19.818-.01c5.636-15.699 11.983-30.346 12.954-47.46 1.311-22.935-6.121-46.809-25.557-60.496-8.732-6.142-19.136-9.62-29.664-9.878 1.796-.557 3.396-1.053 3.901-1.228 15.792-5.347 33.37-2.219 46.913 7.308 19.436 13.697 26.878 37.572 25.567 60.506z" fill="#3e5959"></path><path d="M209.162 210.7h12.117c10.406 0 18.842-8.436 18.842-18.842 0-10.406-8.436-18.842-18.842-18.842h-12.117zM214.791 473.024H25.629v-90.216c0-28.986 12.578-55.034 32.574-72.984 1.658-1.488-.627-2.921 1.13-4.294 16.639-13.013 37.588-20.768 60.349-20.768 22.759 0 43.707 7.755 60.346 20.766 1.294 1.012 1.772 6.716 3.013 7.79 20.762 17.978 31.75 39.87 31.75 69.49z" fill="#fed2a4"></path><path d="M214.791 382.809v90.212h-14.555v-90.212c0-27.074-10.972-51.588-28.705-69.331-15.823-15.823-37.024-26.259-60.62-28.333a98.555 98.555 0 0 1 8.773-.392c22.758 0 43.707 7.76 60.346 20.772.381.298 1.479 2.769 1.855 3.073 2.742 2.21 4.676 5.043 7.163 7.53 17.733 17.742 25.743 39.607 25.743 66.681z" fill="#ffbd86"></path><path d="M29.957 173.016v34.651c0 49.554 40.171 89.725 89.725 89.725 49.554 0 89.725-40.171 89.725-89.725v-34.651l-7.885-20.755-68.356-61.577-72.875 40.675z" fill="#fed2a4"></path><path d="M209.407 173.012v34.65c0 24.783-10.043 47.212-26.279 63.448s-38.676 26.279-63.448 26.279c-3.53 0-7.019-.206-10.446-.609 20.602-2.384 39.078-11.746 53.002-25.67 16.236-16.236 26.279-38.665 26.279-63.448V140.55l13.006 11.715z" fill="#ffbd86"></path><path d="M30.959 210.7H18.842C8.436 210.7 0 202.264 0 191.858c0-10.406 8.436-18.842 18.842-18.842h12.117z" fill="#fed2a4"></path><path d="M75.921 214.365a7.514 7.514 0 0 1-7.515-7.515v-16.758a7.515 7.515 0 1 1 15.03 0v16.758a7.516 7.516 0 0 1-7.515 7.515zM163.444 214.365a7.514 7.514 0 0 1-7.515-7.515v-16.758a7.515 7.515 0 1 1 15.03 0v16.758a7.515 7.515 0 0 1-7.515 7.515zM119.994 253.778a30.477 30.477 0 0 1-21.294-8.611 7.514 7.514 0 0 1-.177-10.626 7.513 7.513 0 0 1 10.625-.178 15.52 15.52 0 0 0 10.845 4.385c3.857 0 7.559-1.418 10.424-3.992a7.515 7.515 0 1 1 10.045 11.18 30.57 30.57 0 0 1-20.468 7.842zM29.285 173.016h.99c9.094-1.177 79.84-11.811 109.542-57.225 0 0 23.873 53.162 69.59 57.225l-.246-61.683-73.721-32.335-106.155 36.793z" fill="#537983"></path><path d="M483.232 473.024H294.978v-90.216c0-29.514 13.041-55.982 33.674-73.957 1.311-1.142-.243-2.25 1.128-3.322 16.639-13.013 37.588-20.768 60.349-20.768 22.759 0 43.707 7.755 60.346 20.766 1.418 1.109-2.139 2.256-.785 3.439 20.557 17.973 33.542 44.391 33.542 73.842z" fill="#fed2a4"></path><path d="M487.134 382.809v90.212h-16.452v-90.212c0-27.074-10.972-51.588-28.705-69.331-15.823-15.823-37.024-26.259-60.62-28.333a98.555 98.555 0 0 1 8.773-.392c22.758 0 43.707 7.76 60.346 20.772.792.619 1.907 3.165 2.679 3.807 2.305 1.919 3.154 2.027 5.273 4.146 17.734 17.743 28.706 42.257 28.706 69.331z" fill="#ffbd86"></path><path d="M483.232 382.809v90.212H292.086v-90.212c0-31.389 14.75-59.33 37.695-77.279 9.754 23.73 33.102 40.43 60.351 40.43 27.25 0 50.587-16.701 60.341-40.43a96.63 96.63 0 0 1 8.99 7.948c1.289 1.289 1.929 6.884 3.145 8.243 15.521 17.345 20.624 35.981 20.624 61.088z" fill="#ee6161"></path><path d="M488.168 382.809v90.212h-17.485v-90.212c0-25.629-9.826-48.956-25.928-66.431a64.323 64.323 0 0 0 5.718-10.848c.011.01.021.021.041.021a99.02 99.02 0 0 1 8.949 7.927c17.733 17.743 28.705 42.257 28.705 69.331z" fill="#e94444"></path><path d="M343.681 401.523v71.5h-15.029v-71.5a7.511 7.511 0 0 1 7.515-7.515 7.518 7.518 0 0 1 7.514 7.515zM451.612 401.523v71.5h-15.029v-71.5a7.512 7.512 0 0 1 7.515-7.515 7.518 7.518 0 0 1 7.514 7.515z" fill="#d83131"></path><path d="M281.599 178.545c-6.02-22.199-12.046-46.281-6.507-69.22 6.772-28.046 26.044-52.818 52.995-63.739 27.128-10.994 58.667-7.765 84.223 5.918a103.97 103.97 0 0 1 16.84 11.237s8.89-2.679 10.23-3.132c15.79-5.344 33.37-2.223 46.907 7.311 19.438 13.689 26.877 37.568 25.563 60.502-1.059 18.481-8.372 34.09-14.294 51.257z" fill="#dc8758"></path><path d="M511.854 127.42c-1.063 18.486-8.381 34.093-14.296 51.258l-19.818-.01c5.636-15.699 11.983-30.346 12.954-47.46 1.311-22.935-6.121-46.809-25.557-60.496-8.732-6.142-19.136-9.62-29.664-9.878 1.796-.557 3.396-1.053 3.901-1.228 15.792-5.347 33.37-2.219 46.913 7.308 19.436 13.697 26.878 37.572 25.567 60.506z" fill="#c86d36"></path><path d="M477.423 210.7h12.117c10.406 0 18.842-8.436 18.842-18.842 0-10.406-8.436-18.842-18.842-18.842h-12.117z" fill="#fed2a4"></path><path d="M299.22 173.016v34.651c0 49.554 40.171 89.725 89.725 89.725 49.554 0 89.725-40.171 89.725-89.725v-34.651l-7.885-20.755-68.356-61.577-72.875 40.675z" fill="#fed2a4"></path><path d="M478.669 173.012v34.65c0 24.783-10.043 47.212-26.279 63.448s-38.676 26.279-63.448 26.279c-3.53 0-7.019-.206-10.446-.609 20.602-2.384 39.078-11.746 53.002-25.67 16.236-16.236 26.279-38.665 26.279-63.448V140.55l13.006 11.715z" fill="#ffbd86"></path><path d="M300.222 210.7h-12.117c-10.406 0-18.842-8.436-18.842-18.842 0-10.406 8.436-18.842 18.842-18.842h12.117z" fill="#fed2a4"></path><path d="M345.183 214.365a7.514 7.514 0 0 1-7.515-7.515v-16.758a7.515 7.515 0 1 1 15.03 0v16.758a7.515 7.515 0 0 1-7.515 7.515zM432.707 214.365a7.514 7.514 0 0 1-7.515-7.515v-16.758a7.515 7.515 0 1 1 15.03 0v16.758a7.515 7.515 0 0 1-7.515 7.515zM389.256 253.778a30.482 30.482 0 0 1-21.294-8.611 7.515 7.515 0 0 1 10.448-10.805 15.525 15.525 0 0 0 10.845 4.386c3.857 0 7.559-1.418 10.424-3.992a7.514 7.514 0 0 1 10.612.567 7.515 7.515 0 0 1-.567 10.613 30.57 30.57 0 0 1-20.468 7.842z" fill="#537983"></path><path d="M299.22 173.016s.346-.038 1.002-.124c9.192-1.204 79.202-11.757 108.858-57.101 0 0 23.873 53.162 69.59 57.225v-61.192l-73.967-32.825-105.483 36.792z" fill="#dc8758"></path><path d="M214.791 382.809v90.212H21.639v-90.212c0-31.389 14.75-59.33 37.695-77.279 9.754 23.73 33.102 40.43 60.351 40.43 27.25 0 50.587-16.701 60.341-40.43a96.63 96.63 0 0 1 8.99 7.948c1.832 1.832 2.372 7.629 4.056 9.602 14.617 17.124 21.719 35.451 21.719 59.729z" fill="#8ac9fe"></path><path d="M217.721 382.809v90.212h-17.485v-90.212c0-25.629-9.826-48.956-25.928-66.431a64.323 64.323 0 0 0 5.718-10.848c.011.01.021.021.041.021a99.02 99.02 0 0 1 8.949 7.927c17.733 17.743 28.705 42.257 28.705 69.331z" fill="#60b7ff"></path><path d="M73.233 401.523v71.5H58.204v-71.5a7.517 7.517 0 0 1 7.515-7.515 7.519 7.519 0 0 1 7.514 7.515zM181.164 401.523v71.5h-15.029v-71.5a7.517 7.517 0 0 1 7.515-7.515 7.519 7.519 0 0 1 7.514 7.515z" fill="#26a6fe"></path></g></svg>