<svg viewBox="0 0 512 512" xmlns="http://www.w3.org/2000/svg"><g><path d="m486 170.34-35.13 19.21-19.21 35.13-19.21-35.13-35.13-19.21 35.13-19.21L431.66 116l19.21 35.13zM186 420.34l-35.13 19.21-19.21 35.13-19.21-35.13-35.13-19.21 35.13-19.21L131.66 366l19.21 35.13z" fill="#f7d694"></path><path d="m334.68 240.34-60.99 33.35-33.35 60.99-33.35-60.99L146 240.34l60.99-33.35L240.34 146l33.35 60.99z" fill="#fcd884"></path><g fill="#ffcd02"><path d="m416 431.66-35.13 19.21L361.66 486l-19.21-35.13-35.13-19.21 35.13-19.21 19.21-35.13 19.21 35.13zM134.68 80.34 99.55 99.55l-19.21 35.13-19.21-35.13L26 80.34l35.13-19.21L80.34 26l19.21 35.13z" fill="#ffcd02"></path></g></g></svg>