<svg height="512" viewBox="0 0 128 128" width="512" xmlns="http://www.w3.org/2000/svg"><g><path d="m118.756 105.961h-11.549a5.143 5.143 0 0 0 3.6-1.484 5.072 5.072 0 0 0 -3.6-8.646h-97.573a5.087 5.087 0 0 0 -5.071 5.06 5.077 5.077 0 0 0 5.071 5.07h15.709a4.686 4.686 0 0 0 0 9.372h16.317a4.325 4.325 0 0 0 -2.189 8.06 4.153 4.153 0 0 0 2.189.607h52.893a4.029 4.029 0 0 0 .715-.065 4.284 4.284 0 0 0 2.361-1.213 4.336 4.336 0 0 0 -3.076-7.389h24.2a4.7 4.7 0 0 0 4.681-4.692 4.7 4.7 0 0 0 -4.681-4.68z" fill="#30c3ef"/><path d="m77.386 14.63v8.345h-26.772v-8.345h-12.848l-11.526 85.986h17.416l1.835-15.213h37.018l1.835 15.213h17.416l-11.526-85.986z" fill="#fdcb71"/><rect fill="#fdb158" height="10.63" rx="4.906" width="66.198" x="30.901" y="4"/><path d="m74.609 52.308-8.972-15.54a1.89 1.89 0 0 0 -3.274 0l-8.972 15.54-8.972 15.539a1.891 1.891 0 0 0 1.638 2.836h35.886a1.891 1.891 0 0 0 1.638-2.836z" fill="#f4677f"/><g fill="#fdcb71"><path d="m64 45.014a1.749 1.749 0 0 0 -1.75 1.75v11.089a1.75 1.75 0 1 0 3.5 0v-11.089a1.749 1.749 0 0 0 -1.75-1.75z"/><path d="m64 61.116a1.749 1.749 0 0 0 -1.75 1.75v1.593a1.75 1.75 0 0 0 3.5 0v-1.593a1.749 1.749 0 0 0 -1.75-1.75z"/></g></g></svg>