<svg viewBox="0 0 64 64" xmlns="http://www.w3.org/2000/svg"><g><g><path d="m55.692 8.19 6.6 37.422-23.637 4.168-5.209-29.544 5.388-4 7.067-.23-.7-3.94 2.26-4.46 5.909-1.042a2.006 2.006 0 0 1 2.322 1.626z" fill="#dbe6fd"></path><path d="M54 11.11a1 1 0 0 1-.983-.826l-.278-1.573a1 1 0 0 1 1.969-.348l.277 1.574a1 1 0 0 1-.81 1.158 1.043 1.043 0 0 1-.175.015z" fill="#ffffff"></path><path d="m37.53 27.053-1.536-8.707-2.548 1.89 5.209 29.544 23.636-4.168-.791-4.507-3.114.549A18 18 0 0 1 37.53 27.053z" fill="#bbcff2"></path><path d="m46.5 42.3 5.91-1.044 1.045 5.91-5.91 1.044z" fill="#a7d0e1"></path><path d="m53.427 47.175-.966-5.475c-.417-.066-.835-.129-1.244-.224l-4.74.836 1.042 5.909 2.954-.521z" fill="#80bbce"></path><path d="m38.095 23.472 5.91-1.044 1.044 5.91-5.91 1.044zM47.945 21.73l5.91-1.044 1.044 5.91-5.91 1.044zM39.835 33.32l5.91-1.043 1.044 5.91-5.91 1.044z" fill="#a7d0e1"></path><path d="M44.77 38.547a17.986 17.986 0 0 1-4.86-5.235l-.094.016 1.042 5.909z" fill="#80bbce"></path><path d="m49.685 31.58 5.91-1.044 1.044 5.91-5.91 1.044z" fill="#a7d0e1"></path><path d="M27.106 16.934 21.2 50.417 1.5 46.944 8.451 7.552a2.006 2.006 0 0 1 2.317-1.622l4.924.868 1.275 4.287 3.245 4.633z" fill="#dbe6fd"></path><path d="m8.179 28.292 3.9-22.131-1.311-.231a2.006 2.006 0 0 0-2.317 1.622L1.505 46.944l19.7 3.473.613-3.474-.657-.115A16 16 0 0 1 8.179 28.292z" fill="#bbcff2"></path><path d="m9.427 42.263 5.91 1.044-1.044 5.91-5.91-1.044z" fill="#a7d0e1"></path><path d="M15.148 44.44a15.905 15.905 0 0 1-1.948-1.526l-3.758-.663L8.4 48.16l2.954.521 2.955.521z" fill="#80bbce"></path><path d="m7.864 33.861 11.82 2.088-.696 3.94-11.82-2.088z" fill="#a7d0e1"></path><path d="m8.205 33.91-.329-.058-.7 3.939 2.463.434a15.954 15.954 0 0 1-1.434-4.315z" fill="#80bbce"></path><path d="m9.256 25.982 11.82 2.088-.696 3.94-11.82-2.088zM10.65 18.102l11.82 2.088-.697 3.94-11.82-2.088z" fill="#a7d0e1"></path><path d="M63 45v18H1V47l21 2 1 1v2l3 3v4l3-3v-3l-1-1v-3z" fill="#fcab68"></path><path d="M4 48v-.714L1 47v16h62v-3H16A12 12 0 0 1 4 48z" fill="#ea8e49"></path><path d="M29.06 18.4 23 14.9l-1.466-5.467.266-4.464 9.526 5.5a2 2 0 0 1 .734 2.731z" fill="#dbe6fd"></path><path d="m23.712 8.1-.094-.349a1.986 1.986 0 0 1-.064-.637l.065-1.091L21.8 4.969l-.268 4.464L23 14.9l6.062 3.5 1.366-2.366-1.128-.652A12 12 0 0 1 23.712 8.1z" fill="#bbcff2"></path><g fill="#dbe6fd"><path d="M16.293 3.707a1 1 0 0 0 1.414-1.414l-1-1a1 1 0 0 0-1.414 1.414zM23 4a1 1 0 0 0 .707-.293l1-1a1 1 0 0 0-1.414-1.414l-1 1A1 1 0 0 0 23 4zM41.293 10.707a1 1 0 0 0 1.414-1.414l-1-1a1 1 0 0 0-1.414 1.414zM36 14h1a1 1 0 0 0 0-2h-1a1 1 0 0 0 0 2zM31.293 34.707a1 1 0 0 0 1.414-1.414l-1-1a1 1 0 0 0-1.414 1.414zM30.707 27.293a1 1 0 0 0-1.414 0l-1 1a1 1 0 1 0 1.414 1.414l1-1a1 1 0 0 0 0-1.414z" fill="#dbe6fd"></path></g><path d="M5 61a1 1 0 0 0 .707-.293l1.622-1.622 4.475.895A.948.948 0 0 0 12 60a1 1 0 0 0 .2-1.98l-3.168-.634 4.679-4.679a1 1 0 0 0 0-1.414L10.3 47.886l-3.126-.3L11.586 52l-7.293 7.293A1 1 0 0 0 5 61zM50.71 58.71 49 60.41V63h-2v-2.59L45.59 59H44a1 1 0 0 1 0-2h1v-2a1 1 0 0 1 2 0v2.59l1 1 1.29-1.3a1 1 0 0 1 1.42 1.42zM63 50v2h-4.59l-1.7 1.71A1.033 1.033 0 0 1 56 54h-3a1 1 0 0 1 0-2h2.59l1.7-1.71A1.033 1.033 0 0 1 58 50z" fill="#ea8e49"></path></g></g></svg>