<svg viewBox="0 0 512 512" xmlns="http://www.w3.org/2000/svg"><g><g clip-rule="evenodd" fill-rule="evenodd"><path d="M256 4c69.586 0 132.587 28.207 178.19 73.81S508 186.414 508 256s-28.207 132.587-73.81 178.19S325.586 508 256 508s-132.587-28.207-178.19-73.81S4 325.586 4 256 32.207 123.413 77.81 77.81 186.414 4 256 4zm161.221 90.779C375.962 53.52 318.961 28 256 28c-62.962 0-119.962 25.52-161.221 66.779S28 193.038 28 256c0 62.961 25.52 119.962 66.779 161.221S193.038 484 256 484c62.961 0 119.962-25.52 161.221-66.779S484 318.961 484 256c0-62.962-25.52-119.962-66.779-161.221z" fill="#606669"></path><circle cx="256" cy="255.999" fill="#eb423f" r="99.999"></circle></g></g></svg>