<svg viewBox="0 0 512 512" xmlns="http://www.w3.org/2000/svg"><g><g clip-rule="evenodd" fill-rule="evenodd"><path d="M256 0c141.2 0 256 114.8 256 256S397.2 512 256 512 0 397.2 0 256 114.8 0 256 0z" fill="#f34235"></path><path d="M266.5 187.9c5-2.9 11.1-2.9 16 0l94 54.3c5 2.9 8 8.1 8 13.9s-3.1 11-8 13.9l-94 54.3c-2.5 1.4-5.2 2.1-8 2.1s-5.5-.7-8-2.1c-5-2.9-8-8.1-8-13.9V201.6c0-5.7 3.1-11 8-13.7zm-131 0c5-2.9 11.1-2.9 16 0l94 54.3c5 2.9 8 8.1 8 13.9s-3.1 11-8 13.9l-94 54.3c-2.5 1.4-5.2 2.1-8 2.1s-5.5-.7-8-2.1c-5-2.9-8-8.1-8-13.9V201.6c0-5.7 3-11 8-13.7zm155 94.5 46-26.5-46-26.5zm-131 0 46-26.5-46-26.5z" fill="#ffffff"></path></g></g></svg>