<svg viewBox="0 0 496.884 496.884" xmlns="http://www.w3.org/2000/svg"><g><path d="m459.647 413.39 1.163 77.503a5.34 5.34 0 0 1-5.26 5.42l-37.994.57a5.34 5.34 0 0 1-5.42-5.26l-.941-62.696v-46.319h49.616z" fill="#fcd89f"></path><path d="m438.83 491.624-.941-62.696v-46.319h-26.694v46.319l.941 62.696a5.34 5.34 0 0 0 5.42 5.259l24.671-.37a5.336 5.336 0 0 1-3.397-4.889z" fill="#fbce85"></path><path d="M85.293 428.56v62.703a5.34 5.34 0 0 1-5.341 5.34H41.953a5.34 5.34 0 0 1-5.341-5.34V368.252h48.68v60.308z" fill="#fcd89f"></path><path d="M60.953 491.263V368.252h-24.34v123.011a5.34 5.34 0 0 0 5.341 5.34h24.34a5.34 5.34 0 0 1-5.341-5.34z" fill="#fbce85"></path><path d="m413.983 187.323-24.974-26.687-8.57-3.018h-32.755v114.123h32.755c0 6.584 5.39 11.92 11.974 11.92h16.04c6.585 0 11.923-5.338 11.923-11.922v-68.23c0-6.01-2.285-11.797-6.393-16.186z" fill="#f5aa72"></path><path d="M167.159 173.04c8.885 0 16.087 7.204 16.085 16.089l-.026 114.161c-.55 10.49-9.23 18.82-19.86 18.82h-25.92c-10.99 0-19.89-8.9-19.89-19.88V189.125c0-8.884 7.202-16.085 16.085-16.085z" fill="#ffbe8a"></path><path d="M158.039 302.425V189.32c0-7.833 5.602-14.352 13.017-15.785a16.053 16.053 0 0 0-3.897-.495h-33.526c-8.884 0-16.085 7.202-16.085 16.085V302.23c0 10.98 8.9 19.88 19.89 19.88h25.92c2.476 0 4.838-.449 7.025-1.275-7.243-2.971-12.344-10.1-12.344-18.41z" fill="#f5aa72"></path><path d="M248.938 187.351V302.23c0 10.979-8.901 19.88-19.88 19.88h-25.93c-10.62 0-19.3-8.33-19.85-18.82-.01-.04-.06-.04-.06 0V187.351c0-7.904 6.407-14.311 14.311-14.311h37.098c7.904 0 14.311 6.407 14.311 14.311z" fill="#ffbe8a"></path><path d="M215.393 303.29c-.01-.04-.06-.04-.06 0V187.351c0-7.904 6.407-14.311 14.311-14.311h-32.115c-7.904 0-14.311 6.407-14.311 14.311V303.29c0-.04.05-.04.06 0 .55 10.49 9.23 18.82 19.85 18.82h25.93c1.052 0 2.078-.085 3.086-.243-9.161-1.438-16.255-9.131-16.751-18.577z" fill="#f5aa72"></path><path d="M314.638 187.884V302.23c0 10.979-8.901 19.88-19.88 19.88h-25.93c-10.985 0-19.89-8.905-19.89-19.89V187.884c0-8.198 6.646-14.844 14.844-14.844h36.012c8.198 0 14.844 6.646 14.844 14.844z" fill="#ffbe8a"></path><path d="M281.788 302.22V187.884c0-8.198 6.646-14.844 14.844-14.844h-32.85c-8.198 0-14.844 6.646-14.844 14.844V302.22c0 10.985 8.905 19.89 19.89 19.89h25.93c1.182 0 2.329-.101 3.454-.299-9.332-1.64-16.424-9.789-16.424-19.591z" fill="#f5aa72"></path><path d="M380.728 301.68c.18 11.23-8.88 20.43-20.12 20.43h-26.08c-10.99 0-19.89-8.9-19.89-19.88V186.621c0-7.501 6.08-13.581 13.581-13.581h38.538c7.501 0 13.581 6.08 13.581 13.581v50.589s0 39.35.39 64.47z" fill="#ffbe8a"></path><path d="M348.715 302.23V186.621c0-7.5 6.08-13.581 13.581-13.581h-34.077c-7.501 0-13.581 6.081-13.581 13.581V302.23c0 10.98 8.9 19.88 19.89 19.88h26.08c1.37 0 2.707-.141 4-.402-9.073-1.849-15.893-9.866-15.893-19.478z" fill="#f5aa72"></path><path d="M389.002 134.503v90.74c0 5.52-5.42 9.38-10.64 7.61-20.18-6.88-40.08-5.68-59.73 2.58-2.52 1.06-5.36.91-7.78-.35-18.01-9.39-37.34-8.57-57.71.29-2.52 1.1-5.38.99-7.83-.26-18.5-9.46-38.05-8.62-58.44.41a9.029 9.029 0 0 1-7.24.04c-20.26-8.82-40.43-9.33-60.54-2.58-5.21 1.75-10.61-2.11-10.61-7.62v-90.86c0-6.9 1.87-13.69 5.43-19.67l34.34-57.75c2.55-4.28 3.89-9.14 3.89-14.09V12.507c0-6.906 5.598-12.504 12.501-12.507h168.191c6.909.003 12.507 5.602 12.507 12.507v30.486c0 4.95 1.34 9.81 3.89 14.09l34.34 57.75a38.434 38.434 0 0 1 5.431 19.67z" fill="#918291"></path><path d="M158.152 145.246c0-6.9 1.87-13.69 5.43-19.67l34.34-57.75c2.55-4.28 3.89-9.14 3.89-14.09V0h-37.16c-6.906 0-12.504 5.598-12.504 12.504V42.99c0 4.95-1.34 9.81-3.89 14.09l-34.34 57.75a38.442 38.442 0 0 0-5.43 19.67v90.86c0 5.51 5.4 9.37 10.61 7.62 12.99-4.36 25.998-5.687 39.047-3.706z" fill="#7a6d79"></path><path d="M321.765 182.157H174.731a9.168 9.168 0 0 1-9.168-9.168v-30.741a9.168 9.168 0 0 1 9.168-9.168h147.035a9.168 9.168 0 0 1 9.168 9.168v30.741a9.17 9.17 0 0 1-9.169 9.168z" fill="#7a6d79"></path><path d="M207.575 463.76 8.967 403.341c-6.61-2.011-10.369-8.898-8.396-15.384l12.47-40.991c1.973-6.485 8.931-10.113 15.541-8.102l198.608 60.419c2.81.855 3.925 4.195 2.164 6.485l-18.319 23.822 1.95 29.988c.186 2.883-2.6 5.037-5.41 4.182z" fill="#fbc773"></path><path d="M211.699 439.81 53.82 391.781c-6.61-2.011-10.369-8.898-8.396-15.384l9.024-29.664-25.867-7.869c-6.61-2.011-13.568 1.616-15.541 8.102L.57 387.957c-1.973 6.485 1.786 13.373 8.396 15.384l198.608 60.419c2.81.855 5.596-1.299 5.409-4.182z" fill="#e8b86b"></path><path d="m289.309 463.76 198.608-60.419c6.61-2.011 10.369-8.898 8.396-15.384l-12.47-40.991c-1.973-6.485-8.931-10.113-15.541-8.102l-198.608 60.419c-2.81.855-3.925 4.195-2.164 6.485l18.319 23.822-1.95 29.988c-.186 2.883 2.6 5.037 5.41 4.182z" fill="#fbc773"></path><path d="m313.334 452.033 1.95-29.987-18.319-23.822c-1.277-1.661-1.036-3.871.262-5.288l2.512-2.792-3.199.973-26.845 8.167c-2.81.855-3.925 4.195-2.164 6.485l18.319 23.822-1.95 29.988c-.187 2.883 2.599 5.037 5.409 4.182l26.065-7.929c-1.283-.748-2.147-2.153-2.04-3.799z" fill="#e8b86b"></path><g fill="#fbc773"><path d="m59.126 303.58-37.194-13.66c-1.979-.727-3.097-2.862-2.499-4.884 4.863-16.427 15.495-27.086 31.894-31.976 2.065-.616 4.258.443 5.001 2.466l13.66 37.192c2.487 6.769-4.092 13.348-10.862 10.862zM451.216 312.204l30.013-11.023c1.597-.587 2.499-2.309 2.016-3.941-3.924-13.255-12.503-21.856-25.736-25.802-1.667-.497-3.436.357-4.035 1.99l-11.022 30.012c-2.007 5.462 3.301 10.771 8.764 8.764z" fill="#fbc773"></path></g></g></svg>