<svg viewBox="0 0 60 60" xmlns="http://www.w3.org/2000/svg"><g><path d="M37.222 25.141A19.957 19.957 0 0 1 44.99 40.03a1 1 0 0 0 .99.97h12.009A1 1 0 0 0 59 39.98a29.018 29.018 0 0 0-58 0A1 1 0 0 0 2.011 41h2a1.01 1.01 0 0 0 1-.97A20 20 0 0 1 25 21a19.644 19.644 0 0 1 8.4 1.837z" fill="#e64c3c"></path><path d="M59 39.98A1 1 0 0 1 57.99 41H45.98a1 1 0 0 1-.99-.97 19.81 19.81 0 0 0-3.56-10.45l9.08-9.08A28.8 28.8 0 0 1 59 39.98z" fill="#4fba6f"></path><path d="m50.51 20.5-9.08 9.08a19.493 19.493 0 0 0-4.21-4.44l-3.82-2.3a18.59 18.59 0 0 0-3.4-1.21V12a28.9 28.9 0 0 1 20.51 8.5z" fill="#f0c419"></path><path d="M30 12v9.63a19.518 19.518 0 0 0-5-.63 19.905 19.905 0 0 0-11.43 3.58L9.49 20.5A28.9 28.9 0 0 1 30 12z" fill="#f29c1f"></path><path d="M38.136 22.281c-2.3 7.27-6.263 19.227-8.47 22.794a6.3 6.3 0 0 1-8.618 2A6.117 6.117 0 0 1 18.9 38.6c2.2-3.577 11.151-12.527 16.647-17.878a1.56 1.56 0 0 1 2.589 1.559z" fill="#547580"></path><circle cx="24.5" cy="41.5" fill="#3f5c6c" r="2.5"></circle></g></svg>