<svg viewBox="0 0 64 64" xmlns="http://www.w3.org/2000/svg"><g><path d="M24 8h8v5h-8z" fill="#474747"></path><circle cx="28" cy="35" fill="#78a0d4" r="23"></circle><circle cx="28" cy="35" fill="#e2e7f6" r="19"></circle><path d="M43 33a18.976 18.976 0 0 0-8.52-15.842 18.987 18.987 0 0 0-16.96 33.684A18.956 18.956 0 0 0 43 33z" fill="#f2f2f2"></path><path d="M15.014 16.014 12 13l-6 6 3.014 3.014a23.16 23.16 0 0 1 6-6zM46.986 22.014 50 19l-6-6-3.014 3.014a23.16 23.16 0 0 1 6 6z" fill="#93bee5"></path><g fill="#474747"><path d="M27 24h2v9h-2zM27 19h2v2h-2zM27 49h2v2h-2zM12 34h2v2h-2zM42 34h2v2h-2z" fill="#474747"></path></g><path d="M21 2h14v6H21z" fill="#78a0d4"></path><path d="M21 2v3h9a2 2 0 0 0 2-2V2z" fill="#93bee5"></path><circle cx="49" cy="52" fill="#3b5892" r="10"></circle><path d="M57 51a9.984 9.984 0 0 0-4.543-8.373 9.991 9.991 0 0 0-8.914 17.746A9.976 9.976 0 0 0 57 51z" fill="#4c6cb5"></path><path d="M50 56h-2v-.5a6.89 6.89 0 0 1 2.358-5.036 1.991 1.991 0 0 0 .609-1.839 2.025 2.025 0 0 0-1.6-1.6A2 2 0 0 0 47 49h-2a4 4 0 0 1 4.717-3.937 4 4 0 0 1 2 6.873A4.914 4.914 0 0 0 50 55.5zM48 57h2v2h-2z" fill="#f2f2f2"></path><circle cx="28" cy="35" fill="#3b5892" r="3"></circle><path d="M25 35a2.965 2.965 0 0 0 .446 1.554A2.965 2.965 0 0 0 27 37a3 3 0 0 0 3-3 2.965 2.965 0 0 0-.446-1.554A2.965 2.965 0 0 0 28 32a3 3 0 0 0-3 3z" fill="#4c6cb5"></path></g></svg>