<svg viewBox="0 0 512 512" xmlns="http://www.w3.org/2000/svg"><g><path d="M512 256c0 141.385-114.615 256-256 256S0 397.385 0 256C0 152.691 61.2 63.666 149.326 23.218 181.802 8.307 217.924 0 256 0c82.829 0 156.473 39.34 203.274 100.352C492.345 143.485 512 197.454 512 256z" fill="#c6813c"></path><path d="M459.274 100.352C458 189.816 385.076 261.945 295.309 261.945c-90.561 0-163.976-73.415-163.976-163.976 0-26.927 6.489-52.339 17.993-74.752C181.802 8.307 217.924 0 256 0c82.829 0 156.473 39.34 203.274 100.352z" fill="#d69051"></path><path d="m373.596 140.453-14.253 20.345c-15.124 21.588-44.885 26.827-66.472 11.703l-84.487-59.191 69.023-98.52 84.487 59.191c21.587 15.124 26.826 44.885 11.702 66.472z" fill="#ffe461"></path><path d="M309.237 149.14 224.75 89.949l-16.366 23.361 84.487 59.191c21.588 15.124 51.348 9.885 66.472-11.703l14.253-20.345c.354-.506.686-1.02 1.018-1.534-15.427 20.332-44.297 24.991-65.377 10.221z" fill="#e8ca4d"></path><path d="M385.894 113.948h21.086v115.336h-21.086z" fill="#ffe461" transform="rotate(125.016 396.436 171.617)"></path><path d="m441.517 185.347-16.783 23.956c-5.775 8.243-3.774 19.606 4.469 25.382l12.876 9.022 37.696-53.806-12.876-9.021c-8.243-5.777-19.606-3.776-25.382 4.467zM256.426 5.112l-64.305 91.786c-3.798 5.422-2.483 12.897 2.939 16.695 5.422 3.798 12.897 2.483 16.695-2.939l64.306-91.786c3.798-5.422 2.483-12.897-2.939-16.695-5.422-3.8-12.896-2.484-16.696 2.939z" fill="#ffe461"></path><path d="M216.35 83.206c-5.422-3.798-6.739-11.273-2.939-16.695l-21.289 30.387c-3.798 5.422-2.483 12.897 2.939 16.695 5.422 3.798 12.897 2.483 16.695-2.939l21.289-30.387c-3.799 5.422-11.273 6.737-16.695 2.939z" fill="#e8ca4d"></path><path d="m418.657 178.625-64.472 163.308-26.992-10.654-10.287-4.071L381.361 163.9c4.071-10.287 15.714-15.349 26.02-11.278 2.164.862 4.108 2.035 5.757 3.503a20.015 20.015 0 0 1 5.519 22.5z" fill="#e5bfa3"></path><path d="m418.657 178.625-64.472 163.308-26.992-10.654 64.216-162.722c3.52-8.875 12.67-13.863 21.73-12.432a20.017 20.017 0 0 1 5.518 22.5z" fill="#f9d6b9"></path><path d="m354.19 341.925-37.289-14.72-42.92 69.022 31.792 67.054z" fill="#34abe0"></path><path d="M305.768 394.689v112.473a253.628 253.628 0 0 1-17.93 2.873h-63.687a254.026 254.026 0 0 1-77.427-22.465 255.093 255.093 0 0 1-11.588-5.841 256.914 256.914 0 0 1-28.327-17.669c2.581-37.898 33.479-68.023 71.711-69.371a57.073 57.073 0 0 1 2.696-.063l124.552.063z" fill="#34abe0"></path><path d="M305.768 438.094v69.068C289.667 510.339 273.032 512 256 512c-39.09 0-76.142-8.756-109.275-24.43v-49.476c0-3.772.481-7.429 1.379-10.909 3.877-14.984 15.538-26.833 30.417-30.96 3.709-1.055 7.617-1.599 11.672-1.599h72.119c4.044 0 7.952.543 11.672 1.599 18.337 5.089 31.784 21.912 31.784 41.869z" fill="#34abe0"></path><path d="m316.901 327.205-33.83 53.188a30.782 30.782 0 0 1-26 14.264c-26.759-.023-75.851-.033-75.851-.033-.908 0-1.815.021-2.702.064v3.508c0 26.31 20.896 48.368 47.203 48.654 21.823.237 40.347-14.244 46.27-34.11a57.216 57.216 0 0 0 26.762-25.79l28.194-55.082-10.046-4.663z" fill="#279fc9"></path><path d="M209.721 394.627c-.909 0-1.818.021-2.706.063-24.482.867-45.965 13.542-58.911 32.496-8.182 11.964-12.967 26.436-12.967 42.026v12.518a256.914 256.914 0 0 1-28.327-17.669c2.581-37.898 33.479-68.023 71.711-69.371a57.073 57.073 0 0 1 2.696-.063h28.504z" fill="#279fc9"></path><path d="M261.309 361.457v37.663c0 19.364-15.697 35.061-35.061 35.061s-35.061-15.698-35.061-35.061v-37.663h70.122z" fill="#e5bfa3"></path><circle cx="150.559" cy="299.844" fill="#e5bfa3" r="21.67"></circle><circle cx="301.944" cy="299.844" fill="#e5bfa3" r="21.67"></circle><path d="m304.314 237.988-156.131-8.311v87.09c0 43.115 34.951 78.065 78.065 78.065 43.115 0 78.065-34.951 78.065-78.065v-78.779z" fill="#f9d6b9"></path><path d="M226.249 323.838a7.896 7.896 0 0 1-7.896-7.896v-61.924h15.793v61.924a7.897 7.897 0 0 1-7.897 7.896zM179.334 316.766v-85.431l-31.15-1.658v87.09c0 43.115 34.951 78.065 78.065 78.065a78.35 78.35 0 0 0 15.575-1.558c-35.651-7.22-62.49-38.729-62.49-76.508z" fill="#e5bfa3"></path><path d="M313.812 235.071v39.326a11.54 11.54 0 0 1-3.388 8.185 11.528 11.528 0 0 1-8.45 3.388c-6.329-.142-11.312-5.477-11.312-11.806v-5.944c0-4.709-1.908-8.968-4.995-12.056a16.99 16.99 0 0 0-12.056-4.995c-7.346 0-14.494 2.466-20.221 7.073a43.155 43.155 0 0 1-27.143 9.55 43.158 43.158 0 0 1-27.139-9.55 30.718 30.718 0 0 0-3.068-2.177c-.012-.011-.027-.02-.04-.028a32.018 32.018 0 0 0-6.396-3.059 32.662 32.662 0 0 0-10.726-1.809c-9.411 0-17.042 7.642-17.042 17.058v6.174c0 3.194-1.295 6.091-3.392 8.185a11.536 11.536 0 0 1-8.185 3.388c-6.392 0-11.573-5.181-11.573-11.576v-39.325c0-34.434 27.911-62.348 62.345-62.348h50.431c34.435-.002 62.35 27.912 62.35 62.346z" fill="#5c5e70"></path><path d="M241.577 172.721c-34.437 0-62.339 27.918-62.339 62.354v16.111c-.124-.016-.234-.016-.358-.016-9.42 0-17.046 7.642-17.046 17.062v6.161c0 3.197-1.295 6.098-3.384 8.188a11.576 11.576 0 0 1-8.188 3.384c-6.395 0-11.572-5.177-11.572-11.572v-39.318c0-34.437 27.902-62.354 62.339-62.354h40.548z" fill="#474a59"></path><path d="M255.556 332.138c0 2.892-.424 5.685-1.272 8.304a27.333 27.333 0 0 1-6.184 10.723c-5.112 5.561-12.468 9.027-20.597 9.027s-15.485-3.466-20.597-9.027a27.333 27.333 0 0 1-6.184-10.723c-.847-2.619-1.272-5.411-1.272-8.304h56.106z" fill="#ffffff"></path><path d="M273.924 301.611c0-7.848-6.362-14.211-14.211-14.211-7.848 0-14.211 6.362-14.211 14.211M206.995 301.611c0-7.848-6.362-14.211-14.211-14.211-7.848 0-14.211 6.362-14.211 14.211" fill="#5c5e70"></path><path d="M429.017 171.496c0 17.276-13.996 31.273-31.273 31.273-1.82 0-3.617-.157-5.347-.471-14.715-2.516-25.904-15.344-25.904-30.801 0-17.254 13.996-31.251 31.251-31.251a31.095 31.095 0 0 1 24.826 12.289 30.966 30.966 0 0 1 6.447 18.961z" fill="#e5bfa3"></path><path d="M429.017 171.496c0 17.276-13.996 31.273-31.273 31.273-1.82 0-3.617-.157-5.347-.471a31.027 31.027 0 0 1-6.448-18.984c0-17.276 13.996-31.251 31.251-31.251 1.842 0 3.639.157 5.37.471a30.97 30.97 0 0 1 6.447 18.962z" fill="#f9d6b9"></path><path d="m312.065 336.522 38.016 15.703 4.109-10.3-37.289-14.72" fill="#279fc9"></path><path d="M352.003 97.789a8.68 8.68 0 0 1-12.091 2.128l-59.925-41.983a8.68 8.68 0 0 1-2.128-12.091 8.68 8.68 0 0 1 12.091-2.128l59.925 41.983a8.682 8.682 0 0 1 2.128 12.091z" fill="#fceba7"></path></g></svg>