<svg viewBox="0 0 497 497" xmlns="http://www.w3.org/2000/svg"><g><path d="M341.693 39.753a31.695 31.695 0 0 1-25.907 23.29l-46.307 7.019a89.413 89.413 0 0 0-48.908 24.275l-71.23 69.21-48.491-53.397 86.042-78.153A89.413 89.413 0 0 1 235.293 9.64L306.928.277c22.318-2.917 40.48 17.707 34.765 39.476z" fill="#ffb09e"></path><path d="m306.928.277-11.105 1.451c14.928 5.168 24.708 21.25 20.304 38.025a31.695 31.695 0 0 1-25.907 23.29l-46.307 7.019a89.413 89.413 0 0 0-48.908 24.275l-57.648 56.013 11.984 13.197 71.23-69.209a89.413 89.413 0 0 1 48.908-24.275l46.307-7.019a31.697 31.697 0 0 0 25.907-23.29C347.408 17.983 329.246-2.64 306.928.277z" fill="#f99e8a"></path><path d="M424.379 236.152c-.672 4.853-3.377 9.448-7.975 12.325l-43.631 27.389a53.208 53.208 0 0 0-10.835 8.993l-51.97 59.551a64.844 64.844 0 0 1-39.8 21.573c-17.089 2.411-29.795 17.035-29.795 34.294l-38.279-107.768 68.411-29.257 88.292-55.946c20.844-10.628 46.299-4.759 60.394 13.905 4.249 4.078 5.918 9.664 5.188 14.941z" fill="#ffcebf"></path><path d="M419.191 221.211c-12.089-16.009-32.535-22.593-51.261-17.439a48.129 48.129 0 0 1 25.695 17.439c4.249 4.078 5.919 9.663 5.188 14.941-.672 4.853-3.377 9.448-7.975 12.325l-43.631 27.389a53.24 53.24 0 0 0-10.835 8.993l-51.97 59.551a64.85 64.85 0 0 1-39.8 21.573 34.521 34.521 0 0 0-14.448 5.524l10.219 28.77c0-17.258 12.706-31.883 29.795-34.293a64.85 64.85 0 0 0 39.8-21.573l51.97-59.551a53.121 53.121 0 0 1 10.835-8.993l43.631-27.389c4.598-2.877 7.303-7.472 7.975-12.325.73-5.278-.939-10.864-5.188-14.942z" fill="#ffb09e"></path><path d="M37.514 441.917V209.502a92.598 92.598 0 0 1 29.417-67.695l33.918-31.656a36.18 36.18 0 0 1 31.857-9.012l114.864 23.23 27.243 164.978-34.441 80.841v71.73H37.514z" fill="#ffcebf"></path><path d="m242.012 366.35-1.64 3.84v71.73h-25.57v-44.25c0-15.761 11.604-29.118 27.21-31.32z" fill="#ffb09e"></path><path d="m32.473 497 210.756-.379c7.027.016 12.737-5.667 12.754-12.695l.824-50.139c.016-7.027-5.667-12.737-12.695-12.754l-210.756.379c-7.027-.016-12.737 5.667-12.754 12.695l-.824 50.139c-.015 7.028 5.668 12.738 12.695 12.754z" fill="#cde2ff"></path><path d="m256.812 433.79-.83 50.14c-.02 7.02-5.73 12.71-12.75 12.69l-21.01.04c4.78-2.09 8.18-7.31 8.2-12.73l.82-50.14c.01-6.75-5.22-12.26-11.85-12.71l24.72-.05c7.03.02 12.71 5.73 12.7 12.76z" fill="#b3dafe"></path><path d="M418.151 192.828c3.537-17.015-7.341-33.69-24.338-37.31L247.57 124.369l-67.464 56.794 194.264 40.378c20.018 4.161 39.62-8.695 43.781-28.713z" fill="#ffcebf"></path><path d="M418.15 192.83c-4.16 20.02-23.76 32.87-43.78 28.71l-5.98-1.24a37.257 37.257 0 0 0 15.53-10.31c4.22-4.7 7.29-10.53 8.66-17.16 3.53-16.98-5.38-38.52-22.3-42.21l23.53 4.9c17 3.62 27.88 20.29 24.34 37.31z" fill="#ffb09e"></path><path d="m240.814 157.849-127.965-27.735-.237 90.414 72.993 15.821-1.2 13.012c-4.107 18.949 7.925 37.64 26.874 41.747l17.83 3.864c18.949 4.107 37.64-7.925 41.747-26.874l2.747-12.676 7.562-34.889c6.167-28.452-11.899-56.517-40.351-62.684z" fill="#ffcebf"></path><path d="m247.99 235.95-5.68 26.22-3.66 16.89c-3.6 16.62-20.01 27.18-36.63 23.58l-15.65-3.39c-9.46-2.05-16.95-8.25-20.99-16.27a30.71 30.71 0 0 1-2.59-20.37l3.66-16.88-85.13-18.45 14.32-66.08 16.08 3.48 20.94 4.54 84.11 18.23c22.01 4.77 35.99 26.49 31.22 48.5z" fill="#ffcebf"></path><path d="m281.16 220.53-7.56 34.89-2.75 12.68c-.09.4-.18.79-.28 1.18h-.01c-4.59 18.27-22.9 29.71-41.45 25.69l-3.09-.67c11.85-3.55 21.46-13.26 24.27-26.2l2.75-12.68 7.56-34.89c4.786-27.732-2.719-43.452-26.33-48.75l-67.18-14.56c-6.29-1.36-11.98-4.87-16.04-9.87-2.61-3.21-2.12-7.94 1.1-10.55 3.22-2.6 7.94-2.12 10.55 1.1 1.91 2.36 4.6 4.02 7.57 4.66l67.18 14.56c17.34 3.76 31.31 14.68 39.5 28.98a52.542 52.542 0 0 1 4.21 34.43z" fill="#ffb09e"></path><circle cx="62.196" cy="457.804" fill="#26a6fe" r="7.397"></circle><path d="m216.77 187.45-84.11-18.23c-3.35-.73-6.34-2.64-8.4-5.38-2.48-3.31-7.19-3.98-10.5-1.49-.86.65-1.55 1.45-2.04 2.33a7.53 7.53 0 0 0 .55 8.17 29.334 29.334 0 0 0 17.21 11.03l80.47 17.44c18.03 3.15 20.33 17.69 17.47 34.63l-5.68 26.22-3.66 16.89c-.06.276-.124.55-.191.823-1.386 5.622-6.93 9.322-12.594 8.118l-.095-.021-15.65-3.39c-11.62-2.53-19.091-15.374-18.011-26.934l1.431-6.586 17.19-7.51c3.79-1.66 5.52-6.08 3.87-9.88-1.66-3.79-6.09-5.53-9.88-3.87l-18.47 8.08h-.01l-51.47-11.16c-4.04-.88-8.04 1.69-8.92 5.74s1.7 8.04 5.74 8.92l46.51 10.08-2.05 9.46c0 .03-.01.06-.02.09-.04.2-.07.4-.1.6-.01.03-.16 1.17-.52 3.12-.69 3.9-2.15 11.04-4.7 19.04-4.85 15.19-11.4 26.63-18.94 33.08-3.15 2.69-3.52 7.43-.83 10.57a7.488 7.488 0 0 0 5.71 2.63c1.72 0 3.45-.59 4.87-1.8 10.49-8.97 17.45-22.79 21.94-35.36a151.098 151.098 0 0 0 2.92-9.121c4.127 7.629 11.419 13.49 20.56 15.471l15.65 3.39c16.62 3.6 33.03-6.96 36.63-23.58l3.66-16.89 5.68-26.22c4.77-22.01-9.21-43.73-31.22-48.5z" fill="#ffb09e"></path><path d="M423.533 102.746a7.5 7.5 0 0 1-5.303-12.803l29.144-29.144a7.501 7.501 0 0 1 10.606 10.607l-29.144 29.144a7.477 7.477 0 0 1-5.303 2.196zM387.369 81.186a7.5 7.5 0 0 1-7.5-7.5V48.598c0-4.143 3.358-7.5 7.5-7.5s7.5 3.357 7.5 7.5v25.088a7.5 7.5 0 0 1-7.5 7.5zM469.721 138.45h-25.088c-4.142 0-7.5-3.357-7.5-7.5s3.358-7.5 7.5-7.5h25.088c4.142 0 7.5 3.357 7.5 7.5s-3.358 7.5-7.5 7.5z" fill="#eb5569"></path></g></svg>