<svg viewBox="0 0 512 512" xmlns="http://www.w3.org/2000/svg"><g><path d="m433.704 294.936-70-14.977c-2.893-.619-4.167-4.029-2.386-6.391 25.425-33.716 45.423-70.256 45.423-102.662C406.741 65.164 318.714 0 256 0S105.259 65.164 105.259 170.907c0 32.406 19.998 68.945 45.423 102.662 1.781 2.362.507 5.772-2.386 6.391l-70 14.977c-16.174 3.46-27.731 17.751-27.731 34.291v90.374c0 5.895 4.779 10.673 10.674 10.673h389.523c5.895 0 10.673-4.779 10.673-10.673v-90.375c0-16.539-11.557-30.831-27.731-34.291z" fill="#fd8087"></path><path d="m433.704 294.936-70-14.977c-2.893-.619-4.167-4.029-2.386-6.391 25.425-33.716 45.423-70.256 45.423-102.662C406.741 65.164 318.714 0 256 0c-7.977 0-16.366 1.06-24.929 3.118 75.032 14.031 127.438 74.768 127.438 166.983 0 34.031-28.517 78.783-55.751 113.876l105.052 27.53c16.174 3.46 27.731 17.751 27.731 34.291v73.803c0 5.895-4.779 10.673-10.673 10.673h25.894c5.895 0 10.673-4.779 10.673-10.673v-90.375c0-16.539-11.557-30.829-27.731-34.29z" fill="#eb5569"></path><g fill="#eb5569"><path d="M113.358 430.275v-72.894c0-4.291-3.478-7.768-7.768-7.768s-7.768 3.477-7.768 7.768v72.894zM414.18 357.381c0-4.291-3.477-7.768-7.768-7.768s-7.768 3.477-7.768 7.768v72.894h15.536z" fill="#eb5569"></path></g><path d="M256 96.728c-43.901 0-105.522 7.103-105.522 81.625 0 28.753 22.185 62.605 46.211 91.254h118.622c24.025-28.649 46.211-62.501 46.211-91.254 0-74.522-61.621-81.625-105.522-81.625z" fill="#465a61"></path><path d="M250.205 325.806c3.245 3.236 8.344 3.236 11.589 0 10.279-10.25 32.595-31.252 53.517-56.199l-2.424-.519a10.673 10.673 0 0 1-8.44-10.437v-48.82h-96.893v48.82c0 5.034-3.518 9.384-8.441 10.437l-2.424.519c20.921 24.947 43.238 45.949 53.516 56.199z" fill="#fed2a4"></path><path d="M312.887 269.088a10.673 10.673 0 0 1-8.44-10.437v-48.82h-96.893v40.527c10.516 7.822 21.788 14.164 28.969 16.651 9.202 3.193 29.763 3.193 38.966 0 .44-.153.897-.32 1.368-.502 1.772-.685 3.685.615 3.685 2.515 0 5.034 3.518 9.384 8.44 10.437l13.776 4.52c4.169-4.6 8.389-9.405 12.553-14.371z" fill="#ffbd86"></path><path d="M275.488 241.081c16.687-5.779 55.475-35.47 55.475-53.132v-74.973C309.331 98.854 280.014 96.728 256 96.728c-24.015 0-53.331 2.126-74.963 16.248v74.973c0 17.661 38.798 47.353 55.485 53.132 9.203 3.193 29.764 3.193 38.966 0z" fill="#fed2a4"></path><g fill="#9b5e5e"><path d="M256 192.745a7.768 7.768 0 0 1-7.768-7.768v-11.043c0-3.764 1.674-7.286 4.594-9.661l10.7-8.71a3.668 3.668 0 0 0 1.357-2.855v-11.397a8.807 8.807 0 0 0-2.753-6.429c-1.773-1.692-4.105-2.556-6.571-2.444-4.655.218-8.443 4.41-8.443 9.343v6.765c0 4.291-3.478 7.768-7.768 7.768s-7.768-3.477-7.768-7.768v-6.765c0-13.327 10.212-24.248 23.249-24.862 6.756-.325 13.15 2.069 18.026 6.721a24.532 24.532 0 0 1 7.565 17.67v11.397a19.142 19.142 0 0 1-7.085 14.904l-9.567 7.786v9.579a7.767 7.767 0 0 1-7.768 7.769zM256 219.578a7.768 7.768 0 0 1-7.768-7.768v-1.068a7.768 7.768 0 0 1 7.768-7.768 7.767 7.767 0 0 1 7.768 7.768v1.068a7.767 7.767 0 0 1-7.768 7.768z" fill="#9b5e5e"></path></g><path d="m388.107 510.547-65.044-50.818 35.247-45.114 65.044 50.818a6.854 6.854 0 0 1 1.181 9.621l-26.807 34.311a6.855 6.855 0 0 1-9.621 1.182z" fill="#c68d7a"></path><path d="m415.106 487.123-70.446-55.038 13.649-17.47 65.044 50.818a6.854 6.854 0 0 1 1.181 9.621z" fill="#b87d72"></path><circle cx="256" cy="371.007" fill="#eaf6ff" r="89.091" transform="rotate(-66.92 256.169 371.062)"></circle><path d="M310.85 300.803c-22.568-17.632-50.962-22.649-76.733-16.136 19.087.06 38.299 6.205 54.504 18.866 38.773 30.293 45.648 86.282 15.355 125.055-12.661 16.205-29.816 26.815-48.321 31.491 26.581.084 52.918-11.653 70.55-34.22 30.292-38.775 23.418-94.763-15.355-125.056z" fill="#c4e2ff"></path><circle cx="256" cy="371.007" fill="#5f99d7" r="54.856" transform="rotate(-60.33 256.139 371.027)"></circle><path d="M289.772 327.78c-14.73-11.509-33.494-14.293-50.089-9.139a54.586 54.586 0 0 1 30.609 11.53c23.874 18.652 28.107 53.126 9.454 77a54.584 54.584 0 0 1-26.91 18.593c17.349.987 34.882-6.254 46.39-20.985 18.653-23.872 14.42-58.346-9.454-76.999z" fill="#3c87d0"></path><path d="m337.053 404.448-28.997 37.114c-5.865 7.506-4.534 18.345 2.973 24.21s18.345 4.534 24.21-2.973l28.997-37.114c5.865-7.506 4.533-18.345-2.973-24.21s-18.346-4.533-24.21 2.973z" fill="#596c76"></path></g></svg>