<svg viewBox="0 0 512 512" xmlns="http://www.w3.org/2000/svg"><g><g fill-rule="evenodd"><path d="M177.439 311.363c-37.019-4.537-65.8 16.515-119.245 17.224l-23.703.139-.151 115.683 23.854.101c55.854-15.088 114.445 3.074 163.636 8.542 27.412 3.047 39.102 3.983 74.06-11.016l168.073-72.972c13.189-6.176 28.249-14.381 34.551-19.268 9.895-22.77-9.257-44.886-66.202-23.625-37.587 14.033-84.685 27.948-106.084 31.904 1.639-3.672 2.414-7.898 2.139-12.757-.789-13.961-11.83-23.656-36.571-24.315-39.391-1.049-74.763-4.788-114.356-9.639z" fill="#e6b17c"></path><path d="M177.439 311.363c-37.019-4.537-65.8 16.515-119.245 17.224l-23.703.139-.135 103.383 23.838.073c55.854-15.088 114.445 3.074 163.636 8.542 27.412 3.047 39.102 3.983 74.06-11.016l168.073-72.973c11.273-5.279 23.914-12.041 31.284-16.946.865-.576 3.647-2.431 5.585-3.757-2.053-16.339-23.443-26.691-68.519-9.862-37.587 14.033-84.685 27.948-106.084 31.904 1.639-3.672 2.414-7.898 2.139-12.757-.789-13.961-11.83-23.656-36.571-24.315-39.391-1.049-74.763-4.788-114.356-9.639z" fill="#f9c795"></path><path d="M338.9 355.312c-4.828 1.166-9.109 2.103-12.673 2.762l.003-.006c-7.292 12.423-28.123 16.824-49.807 18.05-17.432.986-35.539-.111-48.455-.893-3.954-.239-7.414-.449-10.633-.573a5.343 5.343 0 1 0-.377 10.679c2.529.097 6.192.319 10.381.573 13.16.797 31.609 1.914 49.67.893 29.156-1.649 56.973-8.891 61.89-31.484z" fill="#e6b17c"></path></g><path d="M20.109 319.219h28.977c5.027 0 9.108 4.081 9.108 9.108V447.17c0 5.027-4.081 9.108-9.108 9.108H20.108c-5.027 0-9.108-4.081-9.108-9.108V328.327c0-5.027 4.081-9.109 9.109-9.109z" fill="#2a93fc"></path><path d="M32.438 319.219h16.648c5.027 0 9.108 4.081 9.108 9.108V447.17c0 5.027-4.082 9.109-9.109 9.109H32.437c-5.027 0-9.108-4.081-9.108-9.108V328.328c0-5.027 4.081-9.108 9.108-9.108z" fill="#43a2ff"></path><g fill-rule="evenodd"><path d="M211.249 55.721h157.596c16.51 0 30.018 13.508 30.018 30.018V202.06c0 16.51-13.508 30.018-30.018 30.018h-65.263l-50.655 50.656v-50.656H211.25c-16.51 0-30.018-13.508-30.018-30.018V85.739c0-16.51 13.508-30.018 30.018-30.018z" fill="#3fc977"></path><path d="M226.249 55.721h142.596c16.51 0 30.018 13.508 30.018 30.018V202.06c0 16.51-13.508 30.018-30.018 30.018h-65.263l-35.655 35.656v-35.656H226.25c-16.51 0-30.018-13.508-30.018-30.018V85.739c0-16.51 13.508-30.018 30.018-30.018z" fill="#4fe88e"></path><path d="M348.673 115.177a60.356 60.356 0 0 1 4.886 11.967 60.447 60.447 0 0 1 2.377 16.756c0 16.7-6.77 31.821-17.715 42.765-10.945 10.945-26.065 17.715-42.765 17.715s-31.821-6.77-42.765-17.715c-10.945-10.945-17.715-26.066-17.715-42.765s6.77-31.821 17.715-42.765c10.945-10.945 26.065-17.715 42.765-17.715a60.405 60.405 0 0 1 37.669 13.173 4.991 4.991 0 0 1-6.21 7.813 50.394 50.394 0 0 0-14.789-8.186c-5.189-1.813-10.797-2.799-16.669-2.799-13.94 0-26.561 5.65-35.695 14.785s-14.785 21.755-14.785 35.695 5.65 26.561 14.785 35.695c9.134 9.135 21.755 14.785 35.695 14.785s26.561-5.65 35.695-14.785c9.135-9.135 14.785-21.755 14.785-35.695 0-4.918-.679-9.621-1.947-14.022a49.616 49.616 0 0 0-2.734-7.283l-43.462 43.462-.015-.014a4.978 4.978 0 0 1-7.837-1.04l-17.825-30.874a4.978 4.978 0 1 1 8.633-4.961l14.565 25.228 66.973-66.973a5 5 0 0 1 7.07 7.07l-20.684 20.684z" fill="#3fc977"></path><path d="M343.264 115.177a60.356 60.356 0 0 1 4.886 11.967 60.447 60.447 0 0 1 2.377 16.756c0 16.7-6.77 31.821-17.714 42.765-10.945 10.945-26.065 17.715-42.766 17.715s-31.821-6.77-42.765-17.715c-10.945-10.945-17.715-26.066-17.715-42.765s6.77-31.821 17.715-42.765c10.945-10.945 26.065-17.715 42.765-17.715a60.405 60.405 0 0 1 37.669 13.173 4.991 4.991 0 0 1-6.211 7.813 50.394 50.394 0 0 0-14.789-8.186c-5.189-1.813-10.798-2.799-16.669-2.799-13.94 0-26.561 5.65-35.695 14.785s-14.785 21.755-14.785 35.695 5.65 26.561 14.785 35.695c9.134 9.135 21.755 14.785 35.695 14.785s26.561-5.65 35.695-14.785c9.135-9.135 14.785-21.755 14.785-35.695 0-4.918-.679-9.621-1.947-14.022a49.616 49.616 0 0 0-2.734-7.283l-43.462 43.462-.015-.014a4.978 4.978 0 0 1-7.837-1.04l-17.825-30.874a4.978 4.978 0 1 1 8.633-4.961l14.565 25.228 66.973-66.973a5 5 0 0 1 7.07 7.07l-20.684 20.684z" fill="#ffffff"></path></g></g></svg>