<svg viewBox="0 0 48 48" xmlns="http://www.w3.org/2000/svg"><g><path d="M17 9.08c0 21.54.2 20.66-.49 21.92A4 4 0 0 1 13 33.08H5a4 4 0 0 1-4-4v-20a4 4 0 0 1 3-3.87c.66-.19.45-.13 9-.13a4 4 0 0 1 4 4z" fill="#db5669"></path><path d="M17 9.08c0 21.54.2 20.66-.49 21.92a12.37 12.37 0 0 1-5.43-1.24A2 2 0 1 0 8 27.7a12.5 12.5 0 0 1-4-9.21V5.21c.66-.19.45-.13 9-.13a4 4 0 0 1 4 4z" fill="#f26674"></path><circle cx="11" cy="27.08" fill="#dad7e5" r="2"></circle><path d="M12.82 27.9a2 2 0 0 1-2.64-2.64 2 2 0 0 1 2.64 2.64z" fill="#edebf2"></path><path d="M46.12 19a3 3 0 0 0-2.12-.92 3 3 0 1 0 0-6A3 3 0 0 0 46.12 7c-1.2-1.2-.75-.88-17.12-.88l-12 3v18a18.89 18.89 0 0 1 6.75 4.79c1.18 1.39 3.08 5.83 3.65 8.12l.3 1.19c.83 3.26 6.3 1.78 6.3-2.14 0-2.35-1.23-6.78-2-9 12.76 0 12.93.31 14.12-.88A3 3 0 0 0 44 24.08 3 3 0 0 0 46.12 19z" fill="#f6ccaf"></path><path d="M31.68 40.42A4.61 4.61 0 0 1 30.4 38c-.57-2.29-2.47-6.73-3.65-8.12C23 25.51 20 26.29 20 23.6V8.33l-3 .75v18a18.89 18.89 0 0 1 6.75 4.79c1.18 1.39 3.08 5.83 3.65 8.12l.3 1.19c.66 2.62 4.36 2.3 5.75-.22a1.83 1.83 0 0 1-1.77-.54z" fill="#edb996"></path></g></svg>