<svg viewBox="0 0 512 512" xmlns="http://www.w3.org/2000/svg"><g><path d="M81.545 57.978H63.053c2.27 0 4.109 1.84 4.109 4.109v371.387h18.492V62.088c0-2.27-1.839-4.11-4.109-4.11zM458.193 57.978h-18.492c2.27 0 4.109 1.84 4.109 4.109v371.387h18.492V62.088c0-2.27-1.839-4.11-4.109-4.11z" fill="#9c9c9c"></path><path d="M67.162 62.088a4.109 4.109 0 0 0-4.109-4.109h-9.247a4.109 4.109 0 0 0-4.109 4.109v371.387h17.465zM443.81 62.088a4.109 4.109 0 0 0-4.109-4.109h-9.247a4.109 4.109 0 0 0-4.109 4.109v371.387h17.465z" fill="#acacac"></path><path d="M178.436 192.302 278.93 91.808h-84.746L93.691 192.302z" fill="#fdb441"></path><path d="M271.42 192.302 371.914 91.808H278.93L178.436 192.302z" fill="#5a5a5a"></path><path d="M356.166 192.302 456.66 91.808h-84.746L271.42 192.302zM101.2 91.808H8.925a8.22 8.22 0 0 0-8.219 8.219v84.057c0 2.269.92 4.324 2.407 5.811z" fill="#fdb441"></path><path d="M101.2 91.808 3.114 189.895a8.194 8.194 0 0 0 5.812 2.407h84.765L194.184 91.808zM489.12 152.331V92.739l-11.679-.852a8.137 8.137 0 0 0-1.077-.079H456.66L356.166 192.302h92.984l39.97-39.971z" fill="#5a5a5a"></path><path d="M449.15 192.302h27.217c.819 0 1.608-.124 2.355-.347l10.399-1.533v-38.09l-39.971 39.97z" fill="#fdb441"></path><path d="M510.924 97.583a8.185 8.185 0 0 0-1.034-2.151 8.21 8.21 0 0 0-6.815-3.623h-26.711a8.219 8.219 0 0 1 8.219 8.219v56.842l26.711-26.711v-30.131c0-.853-.13-1.673-.37-2.445z" fill="#444444"></path><path d="M484.583 184.083a8.22 8.22 0 0 1-8.217 8.219h26.71c1.135 0 2.216-.23 3.199-.646a8.225 8.225 0 0 0 4.915-6.325c.062-.408.105-.823.105-1.248v-53.925l-26.711 26.711v27.214z" fill="#f6ab31"></path><path d="M178.436 321.747 278.93 221.253h-84.746L93.691 321.747z" fill="#fdb441"></path><path d="m271.42 321.747 100.494-100.494H278.93L178.436 321.747z" fill="#5a5a5a"></path><path d="M356.166 321.747 456.66 221.253h-84.746L271.42 321.747zM101.2 221.253H8.925a8.22 8.22 0 0 0-8.219 8.219v84.057c0 2.269.92 4.324 2.407 5.811z" fill="#fdb441"></path><path d="M101.2 221.253 3.114 319.339a8.194 8.194 0 0 0 5.812 2.407h84.765l100.494-100.494H101.2zM489.12 281.776v-59.592l-11.679-.852a8.137 8.137 0 0 0-1.077-.079H456.66L356.166 321.747h92.984l39.97-39.971z" fill="#5a5a5a"></path><path d="M449.15 321.747h27.217c.819 0 1.608-.124 2.355-.347l10.399-1.534v-38.09l-39.971 39.971z" fill="#fdb441"></path><path d="M510.924 227.027a8.185 8.185 0 0 0-1.034-2.151 8.21 8.21 0 0 0-6.815-3.623h-26.711a8.219 8.219 0 0 1 8.219 8.219v56.842l26.711-26.711v-30.131c0-.852-.13-1.673-.37-2.445z" fill="#444444"></path><path d="M484.583 313.528a8.22 8.22 0 0 1-8.217 8.219h26.71c1.135 0 2.216-.23 3.199-.646a8.225 8.225 0 0 0 4.915-6.325c.062-.408.105-.823.105-1.248v-53.925l-26.711 26.711v27.214z" fill="#f6ab31"></path><path d="M129.188 412.928h-24.656a6.164 6.164 0 0 1 6.164 6.164v28.766a6.164 6.164 0 0 1-6.164 6.164h24.656a6.164 6.164 0 0 0 6.164-6.164v-28.766a6.164 6.164 0 0 0-6.164-6.164zM505.836 454.022a6.164 6.164 0 0 0 6.164-6.164v-28.766a6.164 6.164 0 0 0-6.164-6.164h-24.655a6.164 6.164 0 0 1 6.163 6.164v28.766a6.164 6.164 0 0 1-6.164 6.164z" fill="#acacac"></path><g fill="#bfbfbf"><path d="M6.164 412.928A6.164 6.164 0 0 0 0 419.092v28.766a6.164 6.164 0 0 0 6.164 6.164h98.369a6.164 6.164 0 0 0 6.163-6.164v-28.766a6.164 6.164 0 0 0-6.164-6.164zM382.812 412.928a6.164 6.164 0 0 0-6.164 6.164v28.766a6.164 6.164 0 0 0 6.164 6.164h98.369a6.164 6.164 0 0 0 6.163-6.164v-28.766a6.164 6.164 0 0 0-6.163-6.164z" fill="#bfbfbf"></path></g></g></svg>