<svg viewBox="0 0 512 512" xmlns="http://www.w3.org/2000/svg"><g><path d="M312.011 360a7.992 7.992 0 0 1-7.164-4.422L256 257.887l-48.844 97.691a8 8 0 1 1-14.312-7.156l56-112c2.719-5.422 11.594-5.422 14.312 0l56 112A8 8 0 0 1 312.011 360zM136.011 360a7.992 7.992 0 0 1-7.164-4.422L80 257.887l-48.841 97.691a8 8 0 1 1-14.312-7.156l56-112c2.719-5.422 11.594-5.422 14.312 0l56 112A8 8 0 0 1 136.011 360z" fill="#95573a"></path><path d="M216 464a32 32 0 0 0-32-32h-32a32 32 0 0 0-32 32 32 32 0 0 0-32 32h160a32 32 0 0 0-32-32z" fill="#ffb531"></path><path d="M216 464a32 32 0 0 0-32-32h-32a31.727 31.727 0 0 0-8 1.131A31.926 31.926 0 0 1 168 464a32 32 0 0 1 32 32h48a32 32 0 0 0-32-32z" fill="#ffa912"></path><path d="M16 352h128a32 32 0 0 1-32 32H48a32 32 0 0 1-32-32z" fill="#ffb531"></path><path d="M112 352c0 17.673-22.327 32-40 32h40a32 32 0 0 0 32-32z" fill="#ffa912"></path><path d="M168 247.969a51.807 51.807 0 0 1-21.406-4.578l-18.047-8.219a36.176 36.176 0 0 0-31.758 1.1 51.94 51.94 0 0 1-39.766 4l-3.351-1.016 4.656-15.313 3.344 1.016a35.8 35.8 0 0 0 27.445-2.723 51.819 51.819 0 0 1 46.063-1.625l18.047 8.219a36.086 36.086 0 0 0 29.554 0l18.032-8.219a51.8 51.8 0 0 1 46.07 1.625 35.818 35.818 0 0 0 27.453 2.723l3.336-1.016 4.656 15.313-3.344 1.016a51.94 51.94 0 0 1-39.773-4 36.191 36.191 0 0 0-31.766-1.1l-18.031 8.219A51.843 51.843 0 0 1 168 247.969z" fill="#f7a116"></path><path d="M192 216a24 24 0 1 0-40 17.771V432h32V233.771A23.849 23.849 0 0 0 192 216z" fill="#ffb531"></path><rect fill="#f7a116" rx="8"></rect><path d="M296 264v-56h80v56l24 24-64 168-64-168z" fill="#fec9a3"></path><path d="m400 288-64 168-64-168 24-24 40 40 40-40z" fill="#bfbfbd"></path><path d="m272 288 64 168 64-168-24-24-40 40-40-40z" fill="#bfbfbd"></path><path d="M352 288v168h-32V288l16 16z" fill="#95573a"></path><path d="M352 383.25V456h-32v-44.37c10.91-8.9 21.58-18.3 32-28.38z" fill="#8f4d2e"></path><path d="m336 304-40.09 46.77L272 288l24-24zM400 288l-23.91 62.77L336 304l40-40z" fill="#e0e0de"></path><path d="M376 243.859V224h-80v19.859a71.963 71.963 0 0 0 80 0zM408 109.586h8a24 24 0 0 1 24 24 24 24 0 0 1-24 24h-8v-48zM264 109.586h-8a24.071 24.071 0 0 0-24 24 24.071 24.071 0 0 0 24 24h8.48" fill="#feb784"></path><path d="M408 104v64a72 72 0 1 1-144 0v-64a72.006 72.006 0 0 1 72-72c.2 0 .4 0 .6.01A71.993 71.993 0 0 1 408 104z" fill="#fec9a3"></path><path d="M408 104v64a72.039 72.039 0 0 1-95.71 68A88.026 88.026 0 0 0 374 152v-48a88.031 88.031 0 0 0-37.4-71.99A71.993 71.993 0 0 1 408 104z" fill="#fec093"></path><circle cx="300" cy="124" fill="#7a432a" r="12"></circle><circle cx="372" cy="124" fill="#7a432a" r="12"></circle><path d="M408 77.59v32a194.348 194.348 0 0 1-29.08-48h-.01a120.136 120.136 0 0 1-13.62 4.19A122.4 122.4 0 0 1 336 69.33a122.749 122.749 0 0 1-42.91-7.74 194.682 194.682 0 0 1-29.09 48v-32A54.761 54.761 0 0 1 270.7 51 43.1 43.1 0 0 1 288 33.61a124.343 124.343 0 0 1 35.95-9.02q6.015-.6 12.05-.59a124.6 124.6 0 0 1 48 9.61c14.12 7.41 24 24.3 24 43.98z" fill="#7a432a"></path><path d="M326.891 184H312v-16h14.891c10.951 0 21.549-2.519 29.078-6.91l8.062 13.82c-10.049 5.862-23.238 9.09-37.14 9.09z" fill="#f7a468"></path><path d="M488 343.23V496H184V343.23a39.994 39.994 0 0 1 30.3-38.8L248 296l24-8 64 168 64-168 24 8 33.7 8.43a39.994 39.994 0 0 1 30.3 38.8z" fill="#3d4d63"></path><path d="M488 345.82V496H271.89c73.3-21.25 162.1-64.11 216.11-150.18z" fill="#374559"></path><g fill="#22303d"><path d="M328 456h16v40h-16zM296 464h16v16h-16zM232 424h16v72h-16zM424 424h16v72h-16z" fill="#22303d"></path></g><path d="m248 296-8 80h32l-8 32 72 48-64-168zM424 296l8 80h-32l8 32-72 48 64-168z" fill="#4c5d72"></path><path d="M408 77.59v32a194.348 194.348 0 0 1-29.08-48h-.01a120.136 120.136 0 0 1-13.62 4.19 88.422 88.422 0 0 0-41.34-41.19q6.015-.6 12.05-.59a124.6 124.6 0 0 1 48 9.61c14.12 7.41 24 24.3 24 43.98z" fill="#743b20"></path></g></svg>