<svg viewBox="0 0 512 512" xmlns="http://www.w3.org/2000/svg"><g><path d="M155.184 225.273c-4.954-10.843-.172-23.652 10.671-28.601l164.66-75.16c10.844-4.953 23.653-.172 28.602 10.672 4.95 10.847.172 23.656-10.676 28.605l-164.656 75.16c-10.777 4.918-23.62.242-28.601-10.676zm0 0" fill="#f0a289"></path><path d="M361.547 512c-14.277 0-25.867-11.55-25.906-25.832V279.734c-.04-14.308 10.984-25.941 25.293-25.98h.074c14.273 0 26.402 11.55 26.445 25.832V486.02c.04 14.308-11.523 25.94-25.832 25.98h-.074zm0 0" fill="#5f6e9b"></path><path d="M299.012 512h-.004c-14.309 0-25.906-11.602-25.903-25.906V271.57c0-14.304 11.618-25.902 25.922-25.902 14.309.004 25.891 11.602 25.891 25.91v214.52C324.914 500.402 313.316 512 299.012 512zm0 0" fill="#414b82"></path><path d="M273.105 294.57h114.348V139.5c0-16.691-13.531-30.227-30.226-30.227h-53.899c-16.691 0-30.223 13.536-30.223 30.227zm0 0" fill="#64afff"></path><path d="M88.445 512c-14.308 0-25.906-11.598-25.91-25.902V271.574c0-14.304 11.582-25.906 25.89-25.906 14.305 0 25.923 11.598 25.923 25.902v214.524c0 14.304-11.594 25.906-25.903 25.906zm0 0" fill="#55696e"></path><path d="M25.906 512h-.066C11.535 511.965-.035 500.336 0 486.027V270.418c.035-14.285 12.172-25.84 26.445-25.84h.067c14.308.035 25.336 11.664 25.3 25.973v215.61C51.773 500.444 40.184 512 25.907 512zm0 0" fill="#748488"></path><path d="M114.348 294.57H0V139.5c0-16.691 13.531-30.227 30.223-30.227h53.902c16.691 0 30.223 13.536 30.223 30.227zm0 0" fill="#fa503c"></path><path d="M101.68 44.742c0 24.711-20.032 44.742-44.743 44.742-24.707 0-44.742-20.03-44.742-44.742C12.195 20.032 32.23 0 56.937 0c24.711 0 44.743 20.031 44.743 44.742zM171.445 234.258l-75.199-8.824a21.57 21.57 0 0 1-12.7-6.125l-62.323-61.926c-8.457-8.406-8.5-22.074-.098-30.531 8.402-8.457 22.07-8.5 30.531-.098l57.032 56.668 67.789 7.953c11.84 1.387 20.312 12.113 18.925 23.953-1.382 11.79-12.062 20.324-23.957 18.93zm0 0" fill="#80391b"></path><path d="M374.254 44.742c0 24.711-20.031 44.742-44.742 44.742s-44.742-20.03-44.742-44.742C284.77 20.032 304.8 0 329.512 0c24.71 0 44.742 20.031 44.742 44.742zM356.348 330.754c-11.774-1.89-19.786-12.965-17.895-24.738l11.617-72.329-29.843-84.277c-3.98-11.238 1.902-23.574 13.14-27.555 11.235-3.98 23.578 1.907 27.559 13.145l31.683 89.469a21.648 21.648 0 0 1 .965 10.629l-12.488 77.765c-1.895 11.77-12.969 19.785-24.738 17.89zm0 0" fill="#ffb69e"></path><path d="M51.656 126.754c-8.46-8.402-22.129-8.36-30.531.098-8.402 8.457-8.36 22.125.098 30.53l37.222 36.985 31.977-29.094a669616.53 669616.53 0 0 1-38.766-38.52zm0 0" fill="#e83e29"></path><path d="m337.16 197.234 40.727-14.34L360.926 135c-3.98-11.242-16.324-17.125-27.559-13.145-11.238 3.98-17.12 16.317-13.144 27.555zm0 0" fill="#4699f2"></path></g></svg>