<svg viewBox="0 0 512 512" xmlns="http://www.w3.org/2000/svg"><g><path d="M497.402 321.89 251.285 75.773l-136.717 38.794-38.795 136.718L321.89 497.402c9.464 9.464 24.809 9.464 34.273 0l141.239-141.239c9.464-9.464 9.464-24.809 0-34.273zM173.384 173.384c-9.757 9.757-25.576 9.757-35.333 0s-9.757-25.576 0-35.333 25.576-9.757 35.333 0 9.757 25.576 0 35.333z" fill="#fac3a0"></path><path d="m263.944 391.281 127.26-127.26 56.56 56.56-127.26 127.26z" fill="#fafafa"></path><path d="m126.088 253.394 127.26-127.26 53.025 53.025-127.26 127.26z" fill="#dd636e"></path><path d="M173.384 138.052c9.757 9.757 9.757 25.576 0 35.333l253.398 253.398 70.619-70.619c9.464-9.464 9.464-24.809 0-34.273L251.285 75.773l-136.717 38.794 23.484 23.484c9.756-9.756 25.575-9.756 35.332.001z" fill="#e6af8c"></path><path d="m327.58 327.653 63.63-63.63 56.56 56.56-63.63 63.63z" fill="#e6e6e6"></path><path d="m189.723 189.766 63.63-63.63 53.025 53.025-63.63 63.63z" fill="#c94f5a"></path><path d="M320.575 455.354a7.478 7.478 0 0 1-5.304-2.197l-56.568-56.568a7.5 7.5 0 0 1 10.607-10.606l56.568 56.568a7.5 7.5 0 0 1 0 10.606 7.474 7.474 0 0 1-5.303 2.197zM320.575 412.928a7.478 7.478 0 0 1-5.304-2.197l-35.355-35.355a7.5 7.5 0 0 1 10.607-10.606l35.355 35.355a7.5 7.5 0 0 1 0 10.606 7.474 7.474 0 0 1-5.303 2.197zM341.789 391.715a7.478 7.478 0 0 1-5.304-2.197l-35.355-35.355a7.5 7.5 0 0 1 10.607-10.606l35.355 35.355a7.5 7.5 0 0 1-5.303 12.803zM384.215 391.715a7.478 7.478 0 0 1-5.304-2.197l-56.568-56.568a7.5 7.5 0 0 1 10.607-10.606l56.568 56.568a7.5 7.5 0 0 1-5.303 12.803z" fill="#818181"></path><path d="M384.215 349.288a7.478 7.478 0 0 1-5.304-2.197l-35.355-35.355a7.5 7.5 0 0 1 10.607-10.606l35.355 35.355a7.5 7.5 0 0 1-5.303 12.803zM405.428 328.075a7.478 7.478 0 0 1-5.304-2.197l-35.355-35.355a7.5 7.5 0 0 1 10.607-10.606l35.355 35.355a7.5 7.5 0 0 1-5.303 12.803zM447.854 328.075a7.478 7.478 0 0 1-5.304-2.197l-56.568-56.568a7.5 7.5 0 0 1 10.607-10.606l56.568 56.568a7.5 7.5 0 0 1-5.303 12.803z" fill="#6d6d6d"></path><path d="M200.367 335.146a7.5 7.5 0 0 1-5.304-12.803l79.55-79.549A7.5 7.5 0 0 1 285.22 253.4l-79.55 79.549a7.474 7.474 0 0 1-5.303 2.197zM221.58 356.36a7.5 7.5 0 0 1-5.304-12.803l127.279-127.279a7.5 7.5 0 0 1 10.607 10.606L226.883 354.163a7.478 7.478 0 0 1-5.303 2.197z" fill="#818181"></path><g fill="#6d6d6d"><path d="M389.518 389.518a7.5 7.5 0 0 0 0-10.607l-56.568-56.568a7.5 7.5 0 0 0-10.607 0zM269.31 269.31l15.91-15.91a7.5 7.5 0 0 0-10.607-10.606l-15.91 15.91zM290.523 290.523l63.64-63.64a7.5 7.5 0 0 0-10.607-10.606l-63.639 63.639z" fill="#6d6d6d"></path></g><path d="M61.217 26.371c17.445 6.234 36.392 19.007 53.35 35.965 16.959 16.958 29.731 35.905 35.966 53.35 5.49 15.36 5.118 27.689-1.02 33.827-3.55 3.551-9.023 5.182-16.266 4.839a7.409 7.409 0 0 0-2.488.303 24.952 24.952 0 0 0 4.044 14.734c.067 0 .137.005.204.005 10.376 0 19.022-3.184 25.112-9.275 10.558-10.557 12.169-28.129 4.538-49.481-6.966-19.493-20.988-40.414-39.483-58.909-18.496-18.496-39.417-32.518-58.909-39.484-21.351-7.63-38.924-6.02-49.481 4.538C6.227 27.341 4.616 44.914 12.246 66.265c6.966 19.492 20.988 40.413 39.483 58.908 15.636 15.637 32.782 27.94 49.697 35.701l4.149-14.623c-14.499-7.032-29.716-18.16-43.24-31.685C26.353 78.583 15.038 39.743 27.391 27.39c6.137-6.136 18.466-6.508 33.826-1.019z" fill="#818181"></path><path d="M27.391 27.391c6.137-6.137 18.466-6.509 33.826-1.019 17.445 6.234 36.392 19.007 53.35 35.965 16.959 16.958 29.731 35.905 35.966 53.35 5.49 15.36 5.118 27.689-1.019 33.826l10.606 10.606c10.557-10.557 12.169-28.129 4.538-49.481-6.966-19.493-20.988-40.414-39.483-58.909-18.496-18.496-39.417-32.518-58.909-39.484-21.35-7.63-38.924-6.02-49.481 4.537z" fill="#6d6d6d"></path></g></svg>