<svg viewBox="0 0 512 512" xmlns="http://www.w3.org/2000/svg"><g><path d="m368.002 166.383-21.717 19.781-28.604-26.616 23.824-23.104z" fill="#b56e5a"></path><path d="M342.009 125.166c0 18.229-3.896 35.547-10.902 51.168 0 0-12.792 15.602-19.591 23.983-22.948 28.29-55.408 41.113-94.673 41.113-69.127 0-116.783-47.137-116.783-116.264 0-37.226 10.96-69.232 36.755-92.159 5.257-4.673 8.928-7.856 13.816-14.069C169.837 6.94 192.528 0 216.843 0c69.127 0 125.166 56.039 125.166 125.166z" fill="#c4e2ff"></path><path d="M331.107 176.334c-19.563 43.62-63.359 73.998-114.264 73.998-69.129 0-125.166-56.037-125.166-125.166 0-44.81 23.556-84.124 58.953-106.228-7.022 15.621-10.914 32.944-10.914 51.18 0 69.129 56.037 125.166 125.166 125.166 24.319 0 47.012-6.934 66.225-18.95z" fill="#a7d7fc"></path><path d="m248.892 271.433-29.381-7.607-19.1-22.008 7.901 1.695c36.704-15.445 67.108-36.849 95.601-64.669l8.083-14.162 34.289 21.482-.406 5.525a73.89 73.89 0 0 1-17.523 39.756 113.32 113.32 0 0 1-64.604 37.174z" fill="#ffe17c"></path><path d="m247.862 481.095-15.189 4.668-15.053-4.668 24.87-57.364c7.195-15.502 20.67-29.14 33.485-40.448l13.413-11.835a2.061 2.061 0 0 0-.358-3.344l-102.584-56.828a35.389 35.389 0 0 1-18.129-31.307c.17-14.6 7.127-23.379 20.798-28.506l11.296-9.645 48.481 29.614 71.935 62.4c17.174 14.897 19.038 40.889 4.165 58.085z" fill="#7c7a79"></path><g fill="#f2fbff"><path d="M222.123 82.034a9.41 9.41 0 0 0-8.759-6.055c-3.859 0-7.375 2.423-8.749 6.03l-19.822 52.048a7.726 7.726 0 1 0 14.44 5.5l3.142-8.249h21.828l3.105 8.227a7.727 7.727 0 0 0 14.458-5.456zm-13.864 33.822 5.078-13.335 5.032 13.335zM300.478 133.053l-14.045-25.261 11.922-21.412a7.726 7.726 0 0 0-13.501-7.517l-7.258 13.035-7.245-13.031a7.727 7.727 0 0 0-13.507 7.51l11.905 21.412-14.065 25.262a7.726 7.726 0 0 0 6.744 11.486 7.724 7.724 0 0 0 6.758-3.969l9.401-16.884 9.385 16.88a7.723 7.723 0 0 0 10.507 2.998 7.728 7.728 0 0 0 2.999-10.509zM171.288 74.897h-32.09a7.726 7.726 0 1 0 0 15.452h8.258v46.456a7.726 7.726 0 1 0 15.452 0V90.35h8.379a7.726 7.726 0 0 0 7.726-7.726 7.725 7.725 0 0 0-7.725-7.727z" fill="#f2fbff"></path></g><g fill="#dfeef4"><path d="M141.352 90.347h-2.153c-4.265 0-7.726-3.461-7.726-7.726s3.461-7.726 7.726-7.726h.618c.185 5.243.7 10.394 1.535 15.452zM161.687 140.97a7.706 7.706 0 0 1-6.5 3.564 7.722 7.722 0 0 1-7.726-7.726v-23.251a124.699 124.699 0 0 0 14.226 27.413z" fill="#dfeef4"></path></g><path d="m331.214 176.728-11.198 10.941a317.395 317.395 0 0 1-98.671 65.478l-1.473.556-15.777-3.37-3.683-8.518 1.71-.721a317.552 317.552 0 0 0 98.671-65.468l11.208-10.941z" fill="#ffc871"></path><path d="m295.364 386.699-13.413 11.826c-10.745 9.488-19.244 20.882-25.281 33.883l-23.406 48.686-11.572 4.668-10.34-4.668 26.63-57.36a123.458 123.458 0 0 1 30.339-40.651l13.413-11.837c1.071-.938.886-2.648-.361-3.348l-100.927-56.372a35.384 35.384 0 0 1-11.713-51.22 35.377 35.377 0 0 1 16.545-12.815l15.133-5.676 19.46 11.888-27.362 13.083c-5.759 2.163-9.519 7.52-9.591 13.671a14.787 14.787 0 0 0 7.572 13.083l100.937 56.371a22.704 22.704 0 0 1 11.476 17.379 22.677 22.677 0 0 1-7.539 19.409z" fill="#6b6867"></path><path d="m125.402 193.019 195.255-30.338c12.422-1.93 23.976 6.803 25.508 19.281 1.548 12.608-7.753 23.952-20.419 24.906l-197.04 14.842c-7.696.58-14.489-4.99-15.429-12.65-.951-7.743 4.416-14.843 12.125-16.041z" fill="#c38678"></path><path d="M295.754 512h-62.49l-9.414-2.555c-5.69 0-10.302-4.612-10.302-10.302l.145-15.125 19.571-2.923h44.977c11.379 0 20.604 9.225 20.604 20.604v7.211a3.09 3.09 0 0 1-3.091 3.09z" fill="#f2fbff"></path><path d="M233.264 481.095V512h-11.61c-5.687 0-10.302-4.615-10.302-10.302v-20.604h21.912z" fill="#dfeef4"></path><path d="M419.799 138.25c-1.968 11.538-9.601 23.055-25.126 32.028-17.956 10.364-34.542 15.267-48.367-8.684-4.687-8.118-6.181-19.285-4.368-30.287l9.484-3.696c1.401.227 1.818.34 3.219.34a25.848 25.848 0 0 0 16.813-6.202c9.21-7.86 22.643-8.293 32.348-1.051z" fill="#c38678"></path><path d="m419.799 138.25-16.874-12.609c-9.704-7.242-23.138-6.81-32.348 1.051a25.85 25.85 0 0 1-16.813 6.202c-1.401 0-2.802-.113-4.203-.34l-7.623-1.246c2.194-13.331 9.261-26.404 21.438-33.429 17.956-10.364 40.919-4.213 51.282 13.743 4.626 8.013 6.728 17.326 5.141 26.628z" fill="#7c7a79"></path></g></svg>