<svg viewBox="0 0 512 512.127" xmlns="http://www.w3.org/2000/svg"><g><path d="M476.754 300.266c0 116.964-106.727 211.859-238.348 211.859C106.79 512.125.062 417.23.062 300.265a188.777 188.777 0 0 1 11.477-64.91 114.643 114.643 0 0 0 6.79-30.898C26.828 89.199 122.811.02 238.382 0c115.574-.02 211.586 89.133 220.125 204.387a114.794 114.794 0 0 0 6.77 30.898 189.28 189.28 0 0 1 11.476 64.98zm0 0" fill="#f0c419"></path><path d="M229.582 150.195c0 58.504-47.43 105.93-105.934 105.93-58.503 0-105.93-47.426-105.93-105.93 0-58.504 47.427-105.93 105.93-105.93 58.504 0 105.934 47.426 105.934 105.93zM388.477 141.367c0 34.13-27.664 61.793-61.793 61.793-34.125 0-61.793-27.664-61.793-61.793 0-34.125 27.668-61.793 61.793-61.793 34.128 0 61.793 27.668 61.793 61.793zm0 0" fill="#e6e7e8"></path><path d="M132.477 123.71c0 19.505-15.809 35.313-35.309 35.313-19.504 0-35.313-15.808-35.313-35.312 0-19.5 15.81-35.309 35.313-35.309 19.5 0 35.309 15.809 35.309 35.309zM361.996 150.195c0 14.625-11.86 26.485-26.484 26.485s-26.485-11.86-26.485-26.485 11.86-26.484 26.485-26.484 26.484 11.86 26.484 26.484zm0 0" fill="#2c2f38"></path><path d="M344.34 150.195a8.829 8.829 0 1 1-17.658-.001 8.829 8.829 0 0 1 17.658.001zm0 0" fill="#e6e7e8"></path><path d="m187.914 334.781-5.648 27.63a17.655 17.655 0 0 1-20.832 13.773l-17.305-3.532a17.647 17.647 0 0 1-11.2-7.566 17.64 17.64 0 0 1-2.57-13.27l3.973-19.683a214.141 214.141 0 0 0 53.582 2.648zm0 0" fill="#ffffff"></path><path d="M406.133 238.473v123.586c0 9.75-7.906 17.652-17.656 17.652s-17.657-7.902-17.657-17.652v-35.313c0-9.75-7.902-17.652-17.652-17.652s-17.656 7.902-17.656 17.652c0 1.238-.09 11.211-.352 12.36-1.805 8.89-10.055 14.964-19.078 14.054-9.023-.914-15.89-8.515-15.879-17.586V269.81c26.395-19.067 53.934-31.336 105.93-31.336zm0 0" fill="#2fa8cc"></path><path d="M172.324 344.332c-58.527 0-119.172-25.602-122.773-27.129a8.823 8.823 0 0 1-4.52-11.539 8.825 8.825 0 0 1 11.477-4.684c1.183.512 119.773 50.493 176.773 9.711 13.735-9.808 25.059-19.015 36.004-27.921 37.977-30.829 65.344-53.125 136.848-53.125a8.829 8.829 0 0 1 0 17.656c-65.2 0-89.266 19.578-125.707 49.21-10.59 8.653-22.703 18.462-36.89 28.594a121.441 121.441 0 0 1-71.212 19.227zm0 0" fill="#802d40"></path><path d="M105.996 119.3c0 7.313-5.93 13.24-13.242 13.24s-13.242-5.927-13.242-13.24c0-7.316 5.93-13.241 13.242-13.241s13.242 5.925 13.242 13.242zm0 0" fill="#e6e7e8"></path></g></svg>