<svg viewBox="0 0 60 60" xmlns="http://www.w3.org/2000/svg"><g><g fill="#b9bfcc"><path d="m20.745 44.35 1.248-7.506 1.972.328-1.248 7.507zM36.114 37.117l1.98-.28 1.061 7.508-1.98.28zM6.018 36.746l11.428-7.587 1.106 1.665-11.429 7.587zM41.436 30.83l1.106-1.665 11.428 7.587-1.105 1.666z" fill="#b9bfcc"></path></g><path d="M38.34 7.77 33 14h-6l-5.34-6.23a1.007 1.007 0 0 1 .15-1.46 12.566 12.566 0 0 1 2.25-1.27 19.135 19.135 0 0 1 1.87-.72l-.55-1.38a.994.994 0 0 1 .6-1.32 13.343 13.343 0 0 1 8.04 0 .994.994 0 0 1 .6 1.32l-.55 1.38a19.135 19.135 0 0 1 1.87.72 12.566 12.566 0 0 1 2.25 1.27 1.007 1.007 0 0 1 .15 1.46zM44 29.789C44 38.51 37.732 39 30 39s-14-.49-14-9.211S22.268 14 30 14s14 7.069 14 15.789z" fill="#9e785f"></path><circle cx="38" cy="46" fill="#eebd91" r="3"></circle><path d="M38 49a5 5 0 0 1 5 5v4a1 1 0 0 1-1 1h-8a1 1 0 0 1-1-1v-4a5 5 0 0 1 5-5z" fill="#31b791"></path><circle cx="54" cy="38" fill="#a87e48" r="3"></circle><path d="M54 41a5 5 0 0 1 5 5v4a1 1 0 0 1-1 1h-8a1 1 0 0 1-1-1v-4a5 5 0 0 1 5-5z" fill="#ec3a48"></path><circle cx="22" cy="46" fill="#a87e48" r="3"></circle><path d="M22 49a5 5 0 0 1 5 5v4a1 1 0 0 1-1 1h-8a1 1 0 0 1-1-1v-4a5 5 0 0 1 5-5z" fill="#f5ab01"></path><circle cx="6" cy="38" fill="#eebd91" r="3"></circle><path d="M6 41a5 5 0 0 1 5 5v4a1 1 0 0 1-1 1H2a1 1 0 0 1-1-1v-4a5 5 0 0 1 5-5z" fill="#346d92"></path><path d="M33 29a3 3 0 0 0-3-3 1 1 0 1 1 .867-1.5 1 1 0 0 0 1.731-1A2.993 2.993 0 0 0 31 22.2V22a1 1 0 0 0-2 0v.184A2.993 2.993 0 0 0 30 28a1 1 0 1 1-.867 1.5 1 1 0 0 0-1.731 1 2.993 2.993 0 0 0 1.6 1.3v.2a1 1 0 0 0 2 0v-.184A3 3 0 0 0 33 29z" fill="#6b503e"></path><path d="M26.44 8.3a.937.937 0 0 1-.37.07 1.015 1.015 0 0 1-.93-.63l-1.08-2.7a19.135 19.135 0 0 1 1.87-.72L27 7a.994.994 0 0 1-.56 1.3zM35.94 5.04l-1.08 2.7a1.015 1.015 0 0 1-.93.63.937.937 0 0 1-.37-.07A.994.994 0 0 1 33 7l1.07-2.68a19.135 19.135 0 0 1 1.87.72z" fill="#80624b"></path><path d="M37 15H23a1 1 0 0 1 0-2h14a1 1 0 0 1 0 2z" fill="#fcc10a"></path></g></svg>