<svg viewBox="0 0 64 64" xmlns="http://www.w3.org/2000/svg"><g><g fill="#4aabf4"><path d="m46.1 11.1-3.2 4.5c-.5.7-1.4 1-2.2.7-11.2-4.1-26.2 1.8-26.2 17.8H18c1.6 0 2.5 1.8 1.6 3.1l-1.7 2.3-5.5 7.5-.9 1.2c-.8 1.1-2.3 1.1-3.1 0l-8-11.1C-.5 35.8.4 34 2 34h3.5c0-4.1.7-7.8 1.9-11 5.9-15.6 24.2-20.6 38-14.9 1.1.6 1.5 2 .7 3zM17.9 53l3.2-4.5c.5-.7 1.4-1 2.2-.7C34.5 51.9 49.5 46 49.5 30H46c-1.6 0-2.5-1.8-1.6-3.1l1.7-2.3 5.5-7.6.9-1.2c.8-1.1 2.3-1.1 3.1 0l8 11.1c.9 1.3 0 3.1-1.6 3.1h-3.5c0 4.1-.7 7.8-1.9 11-5.9 15.6-24.2 20.6-38.1 14.9-1-.5-1.4-1.9-.6-2.9z" fill="#4aabf4"></path></g></g></svg>