<svg viewBox="0 0 512 512" xmlns="http://www.w3.org/2000/svg"><g><path d="M121.92 14a109.1 109.1 0 1 1-109.1 109.1A109.09 109.09 0 0 1 121.92 14z" fill="#f9f48e"></path><path d="M390.09 14A109.1 109.1 0 1 1 281 123.1 109.09 109.09 0 0 1 390.09 14z" fill="#61a2f9"></path><path d="M350.85 81.85a15.9 15.9 0 0 1 15.9 15.9v8.34a15.91 15.91 0 1 1-31.81 0v-8.34a15.9 15.9 0 0 1 15.91-15.9zM429.33 81.85a15.9 15.9 0 0 1 15.9 15.9v8.34a15.91 15.91 0 1 1-31.81 0v-8.34a15.9 15.9 0 0 1 15.91-15.9z" fill="#1a78f6"></path><path d="M121.92 279.81A109.1 109.1 0 1 1 12.82 388.9a109.09 109.09 0 0 1 109.1-109.09z" fill="#e49542"></path><path d="M331.47 296.9a109 109 0 1 1-39 43.3z" fill="#dd636e"></path><path d="M82.68 353.85a15.9 15.9 0 0 1 15.9 15.9v8.34a15.91 15.91 0 1 1-31.81 0v-8.34a15.9 15.9 0 0 1 15.91-15.9zM161.15 353.85a15.9 15.9 0 0 1 15.91 15.9v8.34a15.91 15.91 0 1 1-31.81 0v-8.34a15.9 15.9 0 0 1 15.9-15.9z" fill="#ca761d"></path><path d="M335.67 315.63a28.67 28.67 0 0 1-57.33 0c0-15.83 19.83-59.69 28.67-59.69s28.66 43.86 28.66 59.69z" fill="#61a2f9"></path><g fill-rule="evenodd"><path d="M357.83 369.86s-10.31 15.67-25.74 14.14a7.5 7.5 0 0 0-1.46 15c23.44 2.29 39.57-20.61 39.57-20.61a7.5 7.5 0 0 0-12.37-8.48zM410 378.34s16.14 22.9 39.57 20.61a7.5 7.5 0 1 0-1.49-14.95c-15.43 1.51-25.73-14.16-25.73-14.16a7.5 7.5 0 0 0-12.35 8.5z" fill="#d33342"></path><path d="M158.59 171a73.18 73.18 0 0 1-73.34 0 7.5 7.5 0 1 0-7.52 13 88.17 88.17 0 0 0 88.37 0 7.5 7.5 0 1 0-7.51-13zM169.67 105.21a5 5 0 0 0-6 0l-10.23 7.58a7.5 7.5 0 0 1-8.93-12.05l17.69-13.13a7.52 7.52 0 0 1 8.93 0l17.71 13.13a7.5 7.5 0 0 1-8.94 12.05zM80.18 105.34a5 5 0 0 0-6 0l-10.23 7.58a7.5 7.5 0 1 1-8.93-12L72.7 87.75a7.49 7.49 0 0 1 8.93 0l17.71 13.12a7.5 7.5 0 1 1-8.93 12s-6.33-4.63-10.23-7.53z" fill="#e49542"></path><path d="M430.52 170h-80.86a7.5 7.5 0 0 0 0 15h80.86a7.5 7.5 0 0 0 0-15z" fill="#1a78f6"></path><path d="m163.39 423.25-76.6 25.89a7.5 7.5 0 1 0 4.81 14.21l76.6-25.89a7.5 7.5 0 0 0-4.81-14.21z" fill="#ca761d"></path><path d="M434.27 441.48a88.17 88.17 0 0 0-88.37 0 7.5 7.5 0 1 0 7.52 13 73.18 73.18 0 0 1 73.34 0 7.5 7.5 0 0 0 7.51-13z" fill="#d33342"></path></g></g></svg>