<svg viewBox="0 0 512 512" xmlns="http://www.w3.org/2000/svg"><g><path d="m237.219 415.557 37.562-7.294v86.457c0 9.543-7.737 17.28-17.28 17.28h-3.002c-9.543 0-17.28-7.737-17.28-17.28z" fill="#e49280"></path><g fill="#e49280"><path d="m174.188 415.557 18.87-7.296 18.691 7.296-36.585 85.932A17.28 17.28 0 0 1 159.265 512c-12.388 0-20.752-12.651-15.899-24.049zM337.812 415.557l-26.411-10.39-11.151 10.39 36.585 85.932A17.28 17.28 0 0 0 352.734 512c12.388 0 20.752-12.651 15.899-24.049z" fill="#e49280"></path></g><g fill="#dd7f66"><path d="M274.779 408.26v86.456c0 9.549-7.732 17.282-17.282 17.282h-2.994c-3.221 0-6.225-.878-8.806-2.406 5.069-3.014 8.476-8.548 8.476-14.876v-79.162zM211.753 415.554l-36.587 85.935a17.286 17.286 0 0 1-15.898 10.51c-3.954 0-7.495-1.29-10.324-3.407a17.107 17.107 0 0 0 5.606-7.103l36.587-85.935 9.356-4.392zM370.036 494.737c0 9.105-7.361 17.261-17.303 17.261a17.191 17.191 0 0 1-10.282-3.407c4.305-3.221 6.979-8.362 6.979-13.854 0-2.24-.444-4.532-1.404-6.783l-30.827-72.4 9.443-4.392 11.173 4.392 30.816 72.4a17.205 17.205 0 0 1 1.405 6.783z" fill="#dd7f66"></path></g><path d="M60.929 43.755h390.142v328.047H60.929z" fill="#eaf6ff"></path><path d="M430.328 43.755h20.743v328.047h-20.743z" fill="#d8ecfe"></path><path d="M468.639 53.121H43.361c-8.115 0-14.693-6.578-14.693-14.693V14.693C28.668 6.578 35.246 0 43.361 0h425.278c8.115 0 14.693 6.578 14.693 14.693v23.735c0 8.115-6.578 14.693-14.693 14.693zM468.639 415.557H43.361c-8.115 0-14.693-6.578-14.693-14.693v-23.735c0-8.115 6.578-14.693 14.693-14.693h425.278c8.115 0 14.693 6.578 14.693 14.693v23.735c0 8.114-6.578 14.693-14.693 14.693z" fill="#978ecb"></path><path d="M483.328 14.695v23.734c0 8.114-6.576 14.691-14.691 14.691h-25.902c8.114 0 14.691-6.576 14.691-14.691V14.695c0-8.115-6.576-14.691-14.691-14.691h25.902c8.115 0 14.691 6.576 14.691 14.691zM483.328 377.129v23.734c0 8.114-6.576 14.691-14.691 14.691h-25.902c8.114 0 14.691-6.576 14.691-14.691v-23.734c0-8.114-6.576-14.691-14.691-14.691h25.902c8.115 0 14.691 6.577 14.691 14.691z" fill="#8379c1"></path><path d="M277.962 143.437a7.726 7.726 0 0 1-5.908-12.701l16.614-19.743a24.17 24.17 0 0 1 18.534-8.627h92.721a7.725 7.725 0 0 1 7.726 7.726 7.725 7.725 0 0 1-7.726 7.726h-92.721a8.753 8.753 0 0 0-6.711 3.124l-16.614 19.743a7.709 7.709 0 0 1-5.915 2.752z" fill="#d8ecfe"></path><path d="m295.852 170.324-58.553 19.027c-3.04.988-6.158-1.278-6.158-4.474v-61.545a4.558 4.558 0 0 1 4.86-4.545c28.478 1.879 52.478 20.151 62.651 45.465.989 2.463-.276 5.252-2.8 6.072z" fill="#60b7ff"></path><path d="m200.02 280.442-49.982 21.903c-23.001-16.745-37.96-43.886-37.96-74.527 0-9.931 1.569-19.501 4.48-28.473l63.79-25.644 23.837 54.117z" fill="#8ebac5"></path><path d="M204.185 140.378v87.439l-87.628-28.473c11.531-35.495 44.036-61.547 82.892-63.516 2.583-.13 4.736 1.965 4.736 4.55z" fill="#cb97e7"></path><path d="M258.333 302.344c-15.196 11.057-33.913 17.581-54.148 17.581s-38.941-6.525-54.148-17.581l54.148-74.527 41.512 25.957z" fill="#fee45a"></path><g fill="#8ebac5"><path d="M364.525 204.502h-27.611a7.726 7.726 0 1 1 0-15.452h27.611c4.268 0 7.726 3.459 7.726 7.726s-3.458 7.726-7.726 7.726zM399.924 237.068h-63.009a7.726 7.726 0 1 1 0-15.452h63.009a7.726 7.726 0 1 1 0 15.452zM399.924 269.636h-63.009a7.726 7.726 0 1 1 0-15.452h63.009a7.726 7.726 0 1 1 0 15.452zM399.924 302.202h-63.009a7.726 7.726 0 1 1 0-15.452h63.009a7.726 7.726 0 1 1 0 15.452z" fill="#8ebac5"></path></g><path d="M296.293 227.817c0 30.641-14.949 57.782-37.96 74.527l-54.148-74.527 83.186-27.03c2.456-.798 5.115.597 5.784 3.091a92.276 92.276 0 0 1 3.138 23.939z" fill="#fe76a8"></path></g></svg>