<svg viewBox="0 0 512.162 512" xmlns="http://www.w3.org/2000/svg"><g><path d="M.082 207.61a135.746 135.746 0 0 0 39.723 100.722c42.46 42.11 117.406 62.59 216.277 62.59 98.867 0 173.813-20.48 216.273-62.59a135.765 135.765 0 0 0 39.727-100.723zm0 0" fill="#f29c1f"></path><path d="M512.082 207.61c0 6.269-6.18 12.273-17.566 17.656-22.07 10.77-63.559 19.597-116.086 24.98a1195.952 1195.952 0 0 1-122.348 5.918c-40.86.117-81.695-1.855-122.352-5.918-52.523-5.383-94.011-14.21-116.082-24.98C6.262 219.883.082 213.879.082 207.609c0-19.242 58.79-35.84 144.152-43.695 2.473-.176 4.946-.441 7.504-.617h208.684c2.562.176 5.031.441 7.504.617 85.363 7.856 144.156 24.453 144.156 43.695zm0 0" fill="#d25627"></path><path d="M512.082 207.61c0 6.269-6.18 12.273-17.566 17.656-23.57-11.387-69.036-20.746-126.59-26.043H144.234C86.68 204.52 41.22 213.879 17.648 225.266 6.262 219.883.082 213.879.082 207.609c0-19.242 58.79-35.84 144.152-43.695 2.473-.176 4.946-.441 7.504-.617h208.684c2.562.176 5.031.441 7.504.617 85.363 7.856 144.156 24.453 144.156 43.695zm0 0" fill="#e57e25"></path><path d="M472.355 308.332c-42.46 42.11-117.406 62.59-216.273 62.59-98.871 0-173.816-20.48-216.277-62.59a411.422 411.422 0 0 0 34.074-28.953 8.602 8.602 0 0 1 11.742-.266l50.492 43.168a8.753 8.753 0 0 0 10.86.442l49.609-35.399a8.824 8.824 0 0 1 11.828 1.41l40.961 47.848a8.826 8.826 0 0 0 13.418 0l40.961-47.848a8.824 8.824 0 0 1 11.828-1.41l49.613 35.399a8.747 8.747 0 0 0 10.856-.442l50.496-43.168a8.597 8.597 0 0 1 11.738.266 412.708 412.708 0 0 0 34.074 28.953zm0 0" fill="#e64c3c"></path><path d="M378.43 250.246a1195.952 1195.952 0 0 1-122.348 5.918c-40.86.117-81.695-1.855-122.352-5.918l10.504-51.023h.09l6.266-30.364 1.148-5.562 17.742-85.54 1.766-8.476C179.508 29 214.961.082 256.082.082c41.121 0 76.57 28.918 84.832 69.2l1.766 8.476 17.742 85.539 1.148 5.562 6.27 30.364h.086zm0 0" fill="#f0c419"></path><path d="M378.43 250.246a1195.952 1195.952 0 0 1-122.348 5.918v-256C297.195.098 332.668 29 340.914 69.281l1.766 8.477 17.742 85.539 1.148 5.562 6.27 30.364h.086zm0 0" fill="#f3d55b"></path><path d="M361.57 168.86c-27.894 16.683-105.488 16.683-105.488 16.683s-77.594 0-105.492-16.684l6.355-30.898h.09l40.961-20.48a8.59 8.59 0 0 1 9.531 1.148l42.903 35.75a8.829 8.829 0 0 0 11.3 0l42.903-35.75a8.595 8.595 0 0 1 9.535-1.149l40.957 20.48h.09zm0 0" fill="#e64c3c"></path><path d="m355.125 137.96-40.957-20.48a8.595 8.595 0 0 0-9.535 1.149l-42.903 35.75a8.829 8.829 0 0 1-11.3 0l-42.903-35.75a8.59 8.59 0 0 0-9.53-1.149l-40.962 20.48 12.445-60.202c11.743 4.941 36.286 10.68 86.602 10.68s74.855-5.739 86.598-10.68zm0 0" fill="#24ae5f"></path><path d="M220.77 61.797h-.282a8.696 8.696 0 0 1-8.547-8.668c0-9.164 7.383-26.484 35.313-26.484a8.829 8.829 0 0 1 0 17.656c-16.242 0-17.559 7.566-17.656 9.082a8.979 8.979 0 0 1-8.828 8.414zm0 0" fill="#f9eab0"></path></g></svg>