<svg viewBox="0 0 480 480" xmlns="http://www.w3.org/2000/svg"><g><path d="M472 194.336V192c0-70.691-57.309-128-128-128H136C65.309 64 8 121.309 8 192v112c0 70.691 57.309 128 128 128h208c70.691 0 128-57.309 128-128zm0 0" fill="#c3c5c7"></path><path d="M136 64h208c70.691 0 128 57.309 128 128s-57.309 128-128 128H136C65.309 320 8 262.691 8 192S65.309 64 136 64zm0 0" fill="#d1d4d6"></path><path d="M136 288c-53.02 0-96-42.98-96-96s42.98-96 96-96h208c53.02 0 96 42.98 96 96s-42.98 96-96 96zm0 0" fill="#4398d1"></path><g fill="#d1d4d6"><path d="M232 0h16v80h-16zM152 0h16v80h-16zM392 8h16v80h-16zM312 0h16v80h-16zM72 8h16v80H72zm0 0" fill="#d1d4d6"></path></g><path d="M248 0h32v32h-32zM168 0h32v32h-32zM408 8h32v32h-32zM328 0h32v32h-32zM88 8h32v32H88zm0 0" fill="#e3584b"></path><path d="M476.281 255.078A135.847 135.847 0 0 0 480 224a8 8 0 0 0-16 0 119.787 119.787 0 0 1-48 95.777V304a8 8 0 0 0-16 0v26.047A119.182 119.182 0 0 1 344 344h-96v-24a8 8 0 0 0-16 0v24h-96a119.182 119.182 0 0 1-56-13.953V304a8 8 0 0 0-16 0v15.777A119.787 119.787 0 0 1 16 224a8 8 0 0 0-16 0 135.847 135.847 0 0 0 3.719 31.078A7.874 7.874 0 0 0 0 261.664V264c.043 46.867 24.23 90.402 64 115.2V416a8 8 0 0 0 16 0v-28.207A135.078 135.078 0 0 0 136 400h208a135.078 135.078 0 0 0 56-12.207V416a8 8 0 0 0 16 0v-36.8c39.77-24.798 63.957-68.333 64-115.2v-2.336a7.874 7.874 0 0 0-3.719-6.586zm-456.09 39.867A136.804 136.804 0 0 0 64 339.2v20.61a120.19 120.19 0 0 1-43.809-64.864zM344 384H136a119.182 119.182 0 0 1-56-13.953v-22.254A135.078 135.078 0 0 0 136 360h208a135.078 135.078 0 0 0 56-12.207v22.254A119.182 119.182 0 0 1 344 384zm72-24.223V339.2a136.823 136.823 0 0 0 43.809-44.222 120.19 120.19 0 0 1-43.809 64.8zm0 0" fill="#b1b3b5"></path><path d="M120 352h240v112H120zm0 0" fill="#c3c5c7"></path><path d="M120 344h240v48H120zm0 0" fill="#d1d4d6"></path><path d="M240 424c8.836 0 16 7.164 16 16v24h-32v-24c0-8.836 7.164-16 16-16zM304 424c8.836 0 16 7.164 16 16v24h-32v-24c0-8.836 7.164-16 16-16zM176 424c8.836 0 16 7.164 16 16v24h-32v-24c0-8.836 7.164-16 16-16zm0 0" fill="#a5a6a8"></path><path d="M136 288h208a95.947 95.947 0 0 0 79.145-41.77c15.996-32.753 9.96-72.003-15.145-98.437v-27.145a96.17 96.17 0 0 0-16-11.656v25.344a87.69 87.69 0 0 0-16-8.223v-24.511a94.246 94.246 0 0 0-16-4.153v24.078A87.991 87.991 0 0 0 344 120V96h-16v24h-16V96h-16v24h-16V96h-16v24h-16V96h-16v24h-16V96h-16v24h-16V96h-16v24h-16V96h-16v24a87.991 87.991 0 0 0-16 1.527V97.45a94.246 94.246 0 0 0-16 4.153v24.511a87.69 87.69 0 0 0-16 8.223v-25.344a96.17 96.17 0 0 0-16 11.656v27.145c-25.105 26.434-31.14 65.684-15.145 98.437A95.947 95.947 0 0 0 136 288zM72 175.2V224h16v-69.512a71.719 71.719 0 0 1 16-10.886V176h16v-38.145A71.85 71.85 0 0 1 136 136v24h16v-24h16v24h16v-24h16v24h16v-24h16v24h16v-24h16v24h16v-24h16v24h16v-24h16v24h16v-24a71.85 71.85 0 0 1 16 1.855V184h16v-40.398a71.719 71.719 0 0 1 16 10.886V224h16v-48.8a71.879 71.879 0 0 1-2.555 70.382A71.869 71.869 0 0 1 344 280H136a71.869 71.869 0 0 1-61.445-34.418A71.879 71.879 0 0 1 72 175.199zm0 0" fill="#3181bd"></path><path d="M136 288c-35.348 0-64-28.652-64-64s28.652-64 64-64h208c35.348 0 64 28.652 64 64s-28.652 64-64 64zm0 0" fill="#fd6d2f"></path><path d="M144 192h192v96H144zm0 0" fill="#88b337"></path><path d="M336 184H144a8 8 0 0 0-8 8v96h16v-88h80v16.8a39.865 39.865 0 0 0-15.754 71.2h47.508A39.865 39.865 0 0 0 248 216.8V200h80v88h16v-96a8 8 0 0 0-8-8zm-104 94.527a23.856 23.856 0 0 1 0-45.054zM264 256a24.003 24.003 0 0 1-16 22.527v-45.054A24.003 24.003 0 0 1 264 256zm0 0" fill="#dee1e3"></path></g></svg>