<svg viewBox="0 0 511.999 511" xmlns="http://www.w3.org/2000/svg"><g><path d="M219.477 405.86v103.722h19.546L256 502.207l16.977 7.375h19.546V405.859zm0 0" fill="#e8e8e8"></path><path d="M333.82 427.164c6.172 7.965 12.64 18.149 17.809 30.555a130.134 130.134 0 0 1 7.644 25.34c1.614 8.199 2.54 17.039 2.54 26.523h-50.77l-18.52-41.207zM178.184 427.164c-6.176 7.965-12.645 18.149-17.809 30.555a129.598 129.598 0 0 0-7.645 25.34c-1.617 8.199-2.542 17.039-2.542 26.523h50.773l18.516-41.207zm0 0" fill="#a17b56"></path><path d="M99.332 251.094c0 21.758-17.637 39.394-39.394 39.394s-39.399-17.636-39.399-39.394c0-21.762 17.64-39.399 39.398-39.399s39.395 17.637 39.395 39.399zM491.46 251.094c0 21.758-17.636 39.394-39.394 39.394-21.757 0-39.398-17.636-39.398-39.394 0-21.762 17.64-39.399 39.398-39.399 21.758 0 39.395 17.637 39.395 39.399zm0 0" fill="#f5cdb6"></path><path d="M333.82 427.164s-4.765 14.117-20.03 30.555c-5.587 6.031-12.583 12.36-21.267 18.426v-70.286h20.247s10.042 7.11 21.039 21.286zM178.184 427.164s4.761 14.117 20.03 30.555c5.587 6.031 12.583 12.36 21.263 18.426v-70.286H199.23s-10.039 7.11-21.039 21.286zm0 0" fill="#f3c44b"></path><path d="m272.977 509.582-7.133-67.727H246.16l-7.137 67.727zm0 0" fill="#8c6a5a"></path><path d="M256.516 473.117c4.28 0 8.46-.805 12.37-2.36l-3.042-28.902H246.16l-3 28.47a33.39 33.39 0 0 0 13.356 2.792zm0 0" fill="#816253"></path><path d="M270.738 403.297h-28.445l-1.734 29.05a9.623 9.623 0 0 0 4.113 8.473l7.414 5.157a7.76 7.76 0 0 0 8.86 0l7.413-5.157a9.623 9.623 0 0 0 4.114-8.472zm0 0" fill="#8c6a5a"></path><path d="M444.902 167.16c5 17.035 7.676 35.035 7.676 53.653 0 106.722-88.012 193.238-196.578 193.238S59.422 327.535 59.422 220.813c0-18.614 2.68-36.618 7.676-53.649zm0 0" fill="#a17b56"></path><path d="M59.512 215.188c9.918 2.847 20.258 4.308 30.812 4.308h331.352c10.554 0 20.894-1.46 30.812-4.309-.484-16.617-3.093-32.714-7.586-48.027l-377.804.004c-4.493 15.313-7.102 31.406-7.586 48.024zm0 0" fill="#876748"></path><path d="M406.445 178.746c3.989 13.598 6.012 27.75 6.012 42.066 0 6.329-.398 12.57-1.168 18.696-4.14 32.894-32.21 57.52-65.363 57.52-13.332 0-26.324-4.071-37.328-11.598-11.918-8.153-30.418-17.614-52.082-17.614s-40.164 9.461-52.086 17.614c-11 7.527-23.993 11.597-37.325 11.597-33.152 0-61.222-24.625-65.363-57.52a150.001 150.001 0 0 1-1.168-18.695c0-14.316 2.024-28.472 6.012-42.066zm0 0" fill="#f5cdb6"></path><g fill="#394048"><path d="M349.445 257.969a7.726 7.726 0 0 1-7.726-7.727v-18.168a7.729 7.729 0 0 1 7.726-7.726 7.729 7.729 0 0 1 7.727 7.726v18.168c0 4.27-3.461 7.727-7.727 7.727zM162.559 257.969a7.724 7.724 0 0 1-7.727-7.727v-18.168a7.725 7.725 0 1 1 15.45 0v18.168a7.723 7.723 0 0 1-7.723 7.727zM256 314.512c-8.742 0-16.953-3.657-22.531-10.035a7.725 7.725 0 0 1 .734-10.903c3.211-2.808 8.09-2.48 10.902.73 2.641 3.02 6.61 4.755 10.895 4.755s8.258-1.735 10.898-4.754c2.805-3.215 7.688-3.54 10.903-.73 3.21 2.804 3.539 7.687.73 10.902-5.574 6.378-13.789 10.035-22.531 10.035zm0 0" fill="#394048"></path></g><path d="M329.559 476.145s-3.602 17.492-18.52 33.437h-18.516v-33.437c8.684-6.067 15.68-12.395 21.266-18.426zm0 0" fill="#e0b545"></path><path d="M395.672 38.14C386.934 15.46 365.137.5 340.832.5H171.168c-24.305 0-46.102 14.96-54.836 37.64L75.355 144.505v22.66h361.29v-22.66zm0 0" fill="#8c6a5a"></path><path d="M297.082 67.504c1.828-1.781.82-4.883-1.707-5.25l-23.7-3.445a3.084 3.084 0 0 1-2.316-1.684l-10.597-21.477c-1.13-2.285-4.39-2.285-5.52 0l-10.597 21.477a3.075 3.075 0 0 1-2.32 1.684l-23.7 3.445c-2.523.367-3.531 3.469-1.703 5.25l17.148 16.715a3.084 3.084 0 0 1 .887 2.722l-4.05 23.606c-.43 2.512 2.206 4.43 4.464 3.242l21.2-11.144a3.09 3.09 0 0 1 2.863 0l21.195 11.144c2.258 1.188 4.898-.73 4.469-3.242l-4.051-23.606a3.073 3.073 0 0 1 .887-2.722zm0 0" fill="#f3c44b"></path><path d="M182.441 476.145s3.602 17.492 18.52 33.437h18.516v-33.437c-8.68-6.067-15.676-12.395-21.262-18.426zm0 0" fill="#e0b545"></path><path d="M412.434 219.496c-.121-13.867-2.121-27.57-5.989-40.75h-299.86c-3.866 13.18-5.866 26.883-5.987 40.75zm0 0" fill="#e2b3a3"></path><path d="M421.68 193.742H90.324c-18.402 0-35.965-5.762-50.793-16.664L9.437 154.95c-10.3-7.574-12.511-22.062-4.937-32.36 7.574-10.3 22.062-12.51 32.36-4.937l30.097 22.13c6.82 5.011 14.898 7.663 23.367 7.663h331.352c8.465 0 16.547-2.652 23.367-7.664l30.094-22.129c10.297-7.574 24.789-5.363 32.363 4.934 7.57 10.3 5.363 24.789-4.938 32.363l-30.093 22.13c-14.824 10.901-32.387 16.663-50.79 16.663zm0 0" fill="#816253"></path></g></svg>