<svg viewBox="0 0 512.037 512.037" xmlns="http://www.w3.org/2000/svg"><g><path d="M349.962 492.918 303.34 383.561h68.865l36.534 85.7c16.093 37.762-42.665 61.409-58.777 23.657z" fill="#5ad6ff"></path><path d="M139.832 383.561h68.865l-46.621 109.356c-16.121 37.772-74.9 14.116-58.779-23.656z" fill="#00bdfd"></path><path d="M465.469 232.725c0 80.817-45.766 150.95-112.808 185.877 0 0-216.823 27.852-270.357-136.677C28.78 117.396 231.013 24.759 231.013 24.759c125.229-14.966 234.456 82.877 234.456 207.966z" fill="#e7896e"></path><path d="M352.661 418.602C214.425 490.675 46.569 390.524 46.569 232.725c0-107.213 80.549-195.613 184.445-207.966-60.191 68.968-193.131 266.58 121.647 393.843z" fill="#dd6642"></path><path d="M408.617 289.886c-15.125 40.357-45.787 73.11-84.711 90.965l-99.424 3.112c-27.489-10.664-59.871-32.774-90.698-77.2-21.237-30.619-32.356-64.508-26.911-101.083 10.86-72.963 80.294-120.527 80.497-120.731l65.074 19.638 62.045-23.965c39.574 15.228 71.709 45.457 89.43 83.722 18.374 39.658 19.825 85.188 4.698 125.542z" fill="#fcec78"></path><path d="m277.531 382.304-80.034 2.504c-40.532-15.599-73.254-46.941-90.667-86.535 3.569-73.661 3.962-43.605-2.545-124.965 15.31-39.059 45.251-70.761 83.084-88.359-68.256 118.119-40.802 221.095 90.162 297.355z" fill="#ffcf6b"></path><path d="m234.568 241.782-14.187 6.275-54.091 23.923c-65.579-23.305-14.713-80.261-14.713-80.261l68.402 26.623 14.465 5.636z" fill="#8dd470"></path><path d="m166.29 271.98-59.459 26.293c-17.466-39.68-18.215-85.02-2.545-124.965l47.291 18.411c-1.7 26.098 2.236 53.226 14.713 80.261z" fill="#6dc847"></path><path d="M408.617 289.886 292.44 246.099l-14.527-5.471-.907-17.968 126.913-58.315c18.374 39.657 19.825 85.187 4.698 125.541zM323.905 380.852a161.283 161.283 0 0 1-30.27 10.416c-76.273 4.307-77.983-53.741-77.983-53.741l26.345-68.628 5.564-14.496 18.144-.515 6.47 14.115z" fill="#8dd470"></path><path d="M293.635 391.268c-31.385 7.418-65.155 5.479-96.138-6.46l18.154-47.281c20.143 18.546 45.797 36.597 77.984 53.741z" fill="#6dc847"></path><path d="m314.488 80.622-44.643 115.857-5.574 14.476-17.639.474-6.254-14.208L187.37 84.949c39.485-17.402 87.448-19.592 127.118-4.327z" fill="#ff8a98"></path><circle cx="256.019" cy="232.727" fill="#7293df" r="38.788"></circle><path d="M283.504 0h-54.969c-8.247 0-13.711 8.915-10.244 16.712l27.485 61.803c2.021 4.546 6.132 6.819 10.244 6.818 4.111 0 8.222-2.273 10.243-6.818l27.484-61.803C297.214 8.915 291.75 0 283.504 0z" fill="#5ad6ff"></path></g></svg>