<svg viewBox="0 0 50 50" xmlns="http://www.w3.org/2000/svg"><g><path d="M10.1 35.1c-.8.2-1.5.5-2.1 1.1-.2.2-.4.4-.5.6-1.5-2.3-2.6-5-3.1-7.8-2.2-.4-3.8-2.5-3.3-4.9.3-1.5 1.5-2.7 3-3.1 2.7-.6 5.1 1.4 5.1 4 0 .4-.1.8-.2 1.2-.9 3-.6 6.2 1.1 8.9z" fill="#d9baa8"></path><path d="M42.9 37.6c.6 1.5.3 3.2-.9 4.4-1.6 1.6-4.2 1.6-5.8 0s-1.6-4.2 0-5.8c.4-.4.9-.7 1.4-.9 2.9-1.1 5.2-3.3 5.9-6.3v-.1c.5.2.9.3 1.5.3s1.2-.1 1.7-.4c-.6 3.2-1.9 6.2-3.8 8.8z" fill="#6cd8d5"></path><path d="M49 25c0 2.3-1.8 4.1-4.1 4.1s-4.1-1.8-4.1-4.1c0-.7.2-1.3.5-1.9 1.4-2.6 1.1-5.9-.6-8.3v-.1h.1l.6-.3c.2-.2.4-.3.6-.5.4-.4.7-.8.9-1.3 1.8 2.6 3.2 5.5 3.7 8.8 1.4.5 2.4 2 2.4 3.6z" fill="#ffb95c"></path><path d="M37.5 42.8c-2.5 1.7-5.5 2.9-8.6 3.4-.6 1.8-2.4 3-4.5 2.7-1.8-.3-3.3-1.8-3.5-3.6-.3-2.5 1.7-4.5 4.1-4.5.6 0 1.2.1 1.7.4 2.8 1.2 6 1 8.6-.6h.1c.2.5.5 1 .9 1.4.3.3.7.6 1.2.8z" fill="#ff8c83"></path><path d="M20.9 44.9c0 .4.1.8.2 1.1-2.9-.6-5.6-1.8-8-3.5-1.6 1-3.7.8-5.1-.6-1.6-1.6-1.6-4.2 0-5.8s4.2-1.6 5.8 0c.4.4.7.8.9 1.3.9 2.2 2.4 4 4.7 4.8l2.1.6c-.4.7-.6 1.4-.6 2.1z" fill="#559aff"></path><path d="M14.4 13.2c-.4.6-1 1.1-1.6 1.4-2.4 1.3-4.5 3.2-5.1 5.9l-.3 1.2c-.7-.5-1.5-.7-2.4-.7-.2 0-.4 0-.7.1.5-2.8 1.6-5.4 3.2-7.7-1.1-1.6-.9-3.8.5-5.2 1.8-1.8 4.9-1.6 6.4.8.9 1.1.8 2.9 0 4.2z" fill="#6e9583"></path><path d="M29.1 5.1c0 2.3-1.8 4.1-4.1 4.1-.5 0-1-.1-1.4-.3-2.5-.9-5.3-1-7.6.4-.4.2-.7.5-1.1.7-.2-.7-.5-1.4-1.1-2-.2-.2-.5-.4-.7-.6 2.3-1.7 5-2.9 7.9-3.5.5-1.7 2-3 3.9-3 2.4.1 4.2 1.9 4.2 4.2z" fill="#525f70"></path><circle cx="25" cy="5.1" fill="#f4f4f4" r="1.5"></circle><circle cx="25" cy="45" fill="#f4f4f4" r="1.5"></circle><circle cx="45" cy="25" fill="#f4f4f4" r="1.5"></circle><circle cx="5.1" cy="25" fill="#f4f4f4" r="1.5"></circle><path d="M42.9 12.5c-.2.5-.5 1-.9 1.3-.2.2-.4.4-.6.5l-.6.3h-.1c-1.5.6-3.2.3-4.5-.9-.4-.4-.7-.9-.9-1.3C34.2 9.8 32 7.6 29.1 7c-.1 0-.3 0-.5-.1.3-.6.5-1.2.5-1.9 0-.4-.1-.8-.2-1.2 3.1.5 6.1 1.7 8.6 3.4 1.5-.6 3.3-.4 4.5.9 1.2 1.2 1.5 2.9.9 4.4z" fill="#abb734"></path><path d="M39.1 12.5c-.4 0-.8-.2-1.1-.5-.6-.6-.6-1.6 0-2.2.3-.3.7-.5 1.1-.5.4 0 .8.2 1.1.5s.5.7.5 1.1-.2.8-.5 1.1-.7.5-1.1.5zM11 40.7c-.4 0-.8-.2-1.1-.5-.6-.6-.6-1.6 0-2.2.3-.3.7-.5 1.1-.5s.8.2 1.1.5.5.7.5 1.1-.2.8-.5 1.1-.7.5-1.1.5zM39.1 40.7c-.4 0-.8-.2-1.1-.5-.6-.6-.6-1.6 0-2.2.3-.3.7-.5 1.1-.5s.8.2 1.1.5.5.7.5 1.1-.2.8-.5 1.1-.7.5-1.1.5zM11 12.5c-.4 0-.8-.2-1.1-.5-.6-.6-.6-1.6 0-2.2.3-.3.7-.5 1.1-.5.4 0 .8.2 1.1.5s.5.7.5 1.1-.2.8-.5 1.1-.7.5-1.1.5z" fill="#f4f4f4"></path><ellipse cx="25.7" cy="24.6" fill="#fa4968" rx="9.3" ry="9.4"></ellipse><path d="m19.8 21.3-.9-.5c.3-.6.8-1.2 1.3-1.7.9-.9 2-1.6 3.1-1.9l.3 1c-1 .3-2 .9-2.7 1.7-.4.4-.8.9-1.1 1.4zM26.3 17.9h-1.1l-.1-1h1.2z" fill="#ffffff" opacity=".3"></path><path d="m22.7 21.6-2.9 2.9 6 6 11.6-11.6-2.9-2.9-8.7 8.7z" fill="#ffb95c"></path><g opacity=".3"><path d="m33.512 18.937.71.704-2.957 2.982-.71-.704zM29.14 23.36l.71.704-.563.568-.71-.704z" fill="#ffffff"></path></g></g></svg>