<svg viewBox="0 0 512 512" xmlns="http://www.w3.org/2000/svg"><g><path d="M256 249.145c-8.291 0-15 6.709-15 15V497c0 8.291 6.709 15 15 15s15-6.709 15-15V264.145c0-8.291-6.709-15-15-15z" fill="#59c36a"></path><path d="M271 497V264.145c0-8.291-6.709-15-15-15V512c8.291 0 15-6.709 15-15z" fill="#00a66c"></path><path d="M376 362c-52.566 0-97.714 30.494-120 74.451C233.714 392.494 188.566 362 136 362c-8.291 0-15 6.709-15 15 0 74.443 60.557 135 135 135s135-60.557 135-135c0-8.291-6.709-15-15-15z" fill="#8cd96b"></path><path d="M391 377c0-8.291-6.709-15-15-15-52.566 0-97.714 30.494-120 74.451V512c74.443 0 135-60.557 135-135z" fill="#59c36a"></path><path d="M427.196 125.38a15.025 15.025 0 0 0-12.026-10.21l-100.371-15.103-45.381-92.442C266.869 2.542 261.435 0 256 0s-10.869 2.542-13.418 7.625l-45.381 92.443L96.83 115.17a15.023 15.023 0 0 0-12.026 10.21c-1.758 5.391-.308 11.323 3.735 15.322l72.319 71.221-16.64 100.107a14.967 14.967 0 0 0 5.977 14.59c4.57 3.34 10.664 3.765 15.732 1.187L256 281.049l90.073 46.758a14.996 14.996 0 0 0 15.732-1.187 14.968 14.968 0 0 0 5.977-14.59l-16.641-100.107 72.319-71.221c4.044-3.999 5.494-9.931 3.736-15.322z" fill="#fed843"></path><path d="M361.806 326.62a14.968 14.968 0 0 0 5.977-14.59l-16.641-100.107 72.319-71.221c4.043-3.999 5.493-9.932 3.735-15.322a15.025 15.025 0 0 0-12.026-10.21l-100.371-15.103-45.381-92.442C266.869 2.542 261.435 0 256 0v281.049l90.073 46.758a15 15 0 0 0 15.733-1.187z" fill="#fabe2c"></path><circle cx="256" cy="181" fill="#fabe2c" r="45"></circle><path d="M301 181c0-24.814-20.186-45-45-45v90c24.814 0 45-20.186 45-45z" fill="#ff9100"></path><path d="M376 482H136c-8.291 0-15 6.709-15 15s6.709 15 15 15h240c8.291 0 15-6.709 15-15s-6.709-15-15-15z" fill="#61729b"></path><path d="M391 497c0-8.291-6.709-15-15-15H256v30h120c8.291 0 15-6.709 15-15z" fill="#47568c"></path></g></svg>