<svg viewBox="0 0 512 512" xmlns="http://www.w3.org/2000/svg"><g><path d="M485.218 134.097 385.164 34.042l-47.376 47.376 100.056 100.056c6.53 6.53 15.109 9.796 23.688 9.796s17.157-3.266 23.688-9.796c6.328-6.327 9.813-14.74 9.813-23.688s-3.488-17.362-9.815-23.689z" fill="#99e6fc"></path><path d="m474.612 144.705-74.918-74.919H349.42l-1.026 1.026 100.055 100.055c7.213 7.213 18.949 7.213 26.162 0h.001c3.494-3.494 5.418-8.14 5.418-13.081s-1.924-9.587-5.418-13.081z" fill="#fac600"></path><path d="m385.87 34.749-47.376 47.376c-3.905 3.905-10.237 3.905-14.142 0l-17.678-17.678c-3.905-3.905-3.905-10.237 0-14.142L354.05 2.929c3.905-3.905 10.237-3.905 14.142 0l17.678 17.678c3.905 3.905 3.905 10.236 0 14.142z" fill="#dff6fd"></path><path d="M331.875 64.447c-3.905-3.905-3.905-10.237 0-14.142l41.847-41.847-5.529-5.529c-3.905-3.905-10.237-3.905-14.142 0l-47.376 47.376c-3.905 3.905-3.905 10.237 0 14.142l17.677 17.678c3.905 3.905 10.237 3.905 14.142 0l5.53-5.529z" fill="#c8effe"></path><g fill="#62dbfb"><path d="m440.341 152.223-15.875 15.875 10.607 10.607 15.875-15.875a7.5 7.5 0 0 0-10.607-10.607zM419.341 131.223l-15.875 15.875 10.607 10.607 15.875-15.875a7.5 7.5 0 0 0-10.607-10.607zM398.341 110.223l-15.875 15.875 10.607 10.607 15.875-15.875a7.5 7.5 0 0 0-10.607-10.607zM377.341 89.223l-15.875 15.875 10.607 10.607 15.875-15.875a7.5 7.5 0 0 0-10.607-10.607z" fill="#62dbfb"></path></g><path d="m300.566 79.62-12.495 21.642c-6.698 11.601 1.674 26.103 15.07 26.103s21.768-14.501 15.07-26.103L305.717 79.62c-1.144-1.983-4.006-1.983-5.151 0z" fill="#fac600"></path><path d="m304.663 101.262 6.774-11.734-5.721-9.908c-1.144-1.983-4.006-1.983-5.151 0l-12.495 21.642c-6.698 11.601 1.674 26.102 15.07 26.102 3.071 0 5.874-.769 8.296-2.084-8.14-4.42-11.935-15.077-6.773-24.018z" fill="#e8b800"></path><path d="M363.115 485.5c13.875-18.768 22.088-41.976 22.088-67.108 0-45.082-26.4-83.992-64.581-102.13-5.199-2.47-8.479-7.746-8.479-13.501v-54.372h-79.909v54.372c0 5.756-3.281 11.032-8.479 13.501-38.181 18.138-64.58 57.048-64.58 102.13 0 25.132 8.213 48.34 22.089 67.108z" fill="#dff6fd"></path><path d="M209.475 485.5c-10.441-17.12-16.463-37.23-16.463-58.75 0-45.082 26.4-83.992 64.581-102.13 5.199-2.469 8.479-7.745 8.479-13.501V248.39h-33.838v54.372c0 5.756-3.281 11.032-8.479 13.501-38.181 18.138-64.581 57.048-64.581 102.13 0 25.132 8.213 48.34 22.089 67.108h28.212z" fill="#c8effe"></path><path d="M186.868 421.519a85.36 85.36 0 0 0 30.276 62.141 3.012 3.012 0 0 0 1.943.704h106.204c.709 0 1.401-.246 1.943-.704 18.348-15.487 29.396-37.999 30.276-62.141a3.012 3.012 0 0 0-3.004-3.127H189.872a3.012 3.012 0 0 0-3.004 3.127z" fill="#fe3d97"></path><path d="M230.125 421.519a3.012 3.012 0 0 1 3.004-3.127h-43.257a3.012 3.012 0 0 0-3.004 3.127 85.358 85.358 0 0 0 30.277 62.141 3.017 3.017 0 0 0 1.943.704h43.257a3.012 3.012 0 0 1-1.943-.704c-18.349-15.487-29.397-37.999-30.277-62.141z" fill="#e41e7f"></path><circle cx="238.001" cy="372.5" fill="#fe5ca7" r="19"></circle><circle cx="306.377" cy="358" fill="#fe5ca7" r="12.5"></circle><circle cx="305.189" cy="426" fill="#fe5ca7" r="19"></circle><path d="M402.159 512h-259.94a5 5 0 0 1-5-5v-17.5a5 5 0 0 1 5-5h259.94a5 5 0 0 1 5 5V507a5 5 0 0 1-5 5z" fill="#05e39c"></path><path d="M197.752 507v-17.5a5 5 0 0 1 5-5H142.22a5 5 0 0 0-5 5V507a5 5 0 0 0 5 5h60.532a5 5 0 0 1-5-5z" fill="#0ed290"></path><path d="m250.696 139.17-14.036 24.311c-7.524 13.032 1.881 29.323 16.929 29.323 15.048 0 24.454-16.29 16.93-29.323l-14.036-24.311c-1.286-2.227-4.501-2.227-5.787 0z" fill="#05e39c"></path><path d="m253.618 163.482 8.451-14.637-5.586-9.675c-1.286-2.227-4.501-2.227-5.787 0l-14.036 24.312c-7.524 13.032 1.881 29.323 16.93 29.323 3.101 0 5.956-.7 8.479-1.912-9.722-4.672-14.425-17.064-8.451-27.411z" fill="#0ed290"></path><path d="M319.174 249.388h-93.969a5.527 5.527 0 0 1-5.527-5.527v-24.334a5.527 5.527 0 0 1 5.527-5.527h93.969a5.527 5.527 0 0 1 5.527 5.527v24.334a5.527 5.527 0 0 1-5.527 5.527z" fill="#99e6fc"></path><path d="M262.718 243.861v-24.334a5.527 5.527 0 0 1 5.527-5.527h-43.04a5.527 5.527 0 0 0-5.527 5.527v24.334a5.528 5.528 0 0 0 5.527 5.527h43.04a5.526 5.526 0 0 1-5.527-5.527z" fill="#62dbfb"></path><path d="M96.746 245a22.35 22.35 0 0 1-15.91-6.591L23.56 181.135c-4.25-4.25-6.59-9.9-6.59-15.91a22.35 22.35 0 0 1 6.591-15.91L145.182 27.691c4.873-4.872 12.804-4.872 17.677-.001l82.393 82.392a10.5 10.5 0 0 1-5.176 17.682l-19.348 4.247a7.488 7.488 0 0 0-3.695 2.022L112.656 238.41a22.354 22.354 0 0 1-15.91 6.59z" fill="#dff6fd"></path><path d="M96.746 245a22.35 22.35 0 0 1-15.91-6.591L23.56 181.135c-4.25-4.25-6.59-9.9-6.59-15.91a22.35 22.35 0 0 1 6.591-15.91L145.182 27.691c4.873-4.872 12.804-4.872 17.677-.001l82.393 82.392a10.5 10.5 0 0 1-5.176 17.682l-19.348 4.247a7.488 7.488 0 0 0-3.695 2.022L112.656 238.41a22.354 22.354 0 0 1-15.91 6.59z" fill="#dff6fd"></path><path d="M102.048 227.804c-1.416 1.416-3.3 2.196-5.303 2.196s-3.887-.78-5.303-2.197l-57.275-57.275c-1.417-1.416-2.197-3.3-2.197-5.303s.78-3.887 2.197-5.303L56.589 137.5h32.816l91.631-91.633-18.177-18.177c-4.873-4.871-12.804-4.871-17.677.001L23.561 149.314a22.35 22.35 0 0 0-6.591 15.91c0 6.01 2.34 11.66 6.59 15.91l57.275 57.274c4.249 4.25 9.899 6.591 15.91 6.591s11.661-2.341 15.91-6.59l3.105-3.105-10.607-10.607z" fill="#c8effe"></path><path d="M31.97 165.225c0 2.003.78 3.887 2.197 5.303l57.275 57.275c1.416 1.417 3.3 2.197 5.303 2.197s3.887-.78 5.303-2.196l90.303-90.304H56.589l-22.422 22.422a7.452 7.452 0 0 0-2.197 5.303z" fill="#05e39c"></path><path d="M31.97 165.225c0 2.003.78 3.887 2.197 5.303l57.275 57.275c1.416 1.417 3.3 2.197 5.303 2.197s3.887-.78 5.303-2.196l10.997-10.997-40.976-40.976c-5.858-5.858-5.858-15.355 0-21.213L89.187 137.5H56.589l-22.422 22.422a7.452 7.452 0 0 0-2.197 5.303z" fill="#0ed290"></path><g fill="#99e6fc"><path d="m121.707 51.167 18.471 18.471c1.464 1.464 3.384 2.196 5.303 2.196s3.839-.732 5.304-2.197a7.498 7.498 0 0 0-.001-10.606l-18.47-18.47zM119.178 90.638c1.464 1.464 3.384 2.196 5.303 2.196s3.839-.732 5.304-2.197a7.498 7.498 0 0 0-.001-10.606l-18.47-18.47-10.606 10.607zM98.178 111.638c1.464 1.464 3.384 2.196 5.303 2.196s3.839-.732 5.304-2.197a7.498 7.498 0 0 0-.001-10.606l-18.47-18.469-10.607 10.605z" fill="#99e6fc"></path></g></g></svg>