<svg viewBox="0 0 512 512" xmlns="http://www.w3.org/2000/svg"><g><path d="M391.936 57.597V5.179c0-3.367-3.164-5.838-6.431-5.022l-229.772 57.44 133.505 9z" fill="#e69644"></path><path d="m81.195 76.23 189.058 9 121.683-9V57.597H155.733z" fill="#d48339"></path><path d="M430.805 493.367V81.406a5.176 5.176 0 0 0-5.176-5.176H81.195v417.137l170.145 9z" fill="#f1cd65"></path><path d="M86.371 512h339.257a5.176 5.176 0 0 0 5.176-5.176v-13.457H81.195v13.457A5.176 5.176 0 0 0 86.371 512z" fill="#ebb34f"></path><path d="M205.035 253.416c6.12 0 11.72-1.395 16.501-4.09l25.967 25.967-52.077 52.077c-3.038 3.038-3.038 7.963 0 11.001s7.963 3.038 11.001 0l52.077-52.077 52.077 52.077a7.779 7.779 0 1 0 11.001-11.001l-52.077-52.077 21.445-21.445c4.52 2.658 9.621 4.036 15.091 4.036.476 0 .955-.011 1.435-.031 27.235-1.176 56.469-35.051 59.713-38.909a7.779 7.779 0 0 0-11.907-10.015c-7.612 9.034-31.162 32.642-48.489 33.381a15.972 15.972 0 0 1-3.981-.325l43.234-43.234a7.779 7.779 0 1 0-11.001-11.001l-43.238 43.238a15.825 15.825 0 0 1-.321-3.985c.739-17.327 24.347-40.877 33.378-48.485a7.781 7.781 0 0 0 .949-10.961 7.78 7.78 0 0 0-10.961-.949c-3.859 3.244-37.733 32.478-38.909 59.713-.26 6.014 1.111 11.617 4.001 16.53l-21.441 21.441-25.967-25.967c3.708-6.576 4.951-14.706 3.498-23.598-1.69-10.344-6.828-20.866-14.468-29.627-9.473-10.864-21.331-17.074-33.391-17.486-10.179-.34-19.72 3.384-26.844 10.508s-10.856 16.658-10.508 26.844c.412 12.06 6.622 23.918 17.486 33.391 8.762 7.64 19.284 12.778 29.628 14.468 2.428.395 4.799.591 7.098.591z" fill="#315771"></path><g fill="#c23756"><path d="M334.969 398.396a7.78 7.78 0 0 0 0-15.558H177.031a7.78 7.78 0 0 0 0 15.558zM205.036 424.098a7.78 7.78 0 0 0 0 15.558h101.929a7.78 7.78 0 0 0 0-15.558z" fill="#c23756"></path></g></g></svg>