<svg viewBox="0 0 64 64" xmlns="http://www.w3.org/2000/svg"><g><path d="M35 12a1 1 0 0 1-1-1V7a1 1 0 0 1 2 0v4a1 1 0 0 1-1 1z" fill="#8fefdd"></path><path d="M37 10h-4a1 1 0 0 1 0-2h4a1 1 0 0 1 0 2zM8 24a1 1 0 0 1-1-1v-4a1 1 0 0 1 2 0v4a1 1 0 0 1-1 1z" fill="#8fefdd"></path><path d="M10 22H6a1 1 0 0 1 0-2h4a1 1 0 0 1 0 2z" fill="#8fefdd"></path><path d="M38 9a1 1 0 0 1-1 1 1 1 0 0 0-1-1h-1V8a1 1 0 0 0-1-1 1 1 0 0 1 2 0v1h1a1 1 0 0 1 1 1zM11 21a1 1 0 0 1-1 1 1 1 0 0 0-1-1H8v-1a1 1 0 0 0-1-1 1 1 0 0 1 2 0v1h1a1 1 0 0 1 1 1z" fill="#8fdbcd"></path><path d="M56 22a1 1 0 0 1-1-1v-4a1 1 0 0 1 2 0v4a1 1 0 0 1-1 1z" fill="#8fefdd"></path><path d="M58 20h-4a1 1 0 0 1 0-2h4a1 1 0 0 1 0 2z" fill="#8fefdd"></path><path d="M1 33h62v25H1z" fill="#ffd29d"></path><g fill="#ffc08d"><path d="M20 41h-8a1 1 0 0 1 0-2h8a1 1 0 0 1 0 2zM12 47H4a1 1 0 0 1 0-2h8a1 1 0 0 1 0 2zM28 47h-8a1 1 0 0 1 0-2h8a1 1 0 0 1 0 2zM44 47h-8a1 1 0 0 1 0-2h8a1 1 0 0 1 0 2zM60 47h-8a1 1 0 0 1 0-2h8a1 1 0 0 1 0 2zM1 39h3a1 1 0 0 1 0 2H1zM52 41h-8a1 1 0 0 1 0-2h8a1 1 0 0 1 0 2zM36 41h-8a1 1 0 0 1 0-2h8a1 1 0 0 1 0 2zM63 41h-3a1 1 0 0 1 0-2h3zM36 53h-8a1 1 0 0 1 0-2h8a1 1 0 0 1 0 2zM20 53h-8a1 1 0 0 1 0-2h8a1 1 0 0 1 0 2zM1 51h3a1 1 0 0 1 0 2H1zM52 53h-8a1 1 0 0 1 0-2h8a1 1 0 0 1 0 2zM63 53h-3a1 1 0 0 1 0-2h3z" fill="#ffc08d"></path></g><path d="M21 40a.966.966 0 0 1-.14.5.984.984 0 0 0-.86-.5h-8a.984.984 0 0 0-.86.5.966.966 0 0 1-.14-.5 1 1 0 0 1 1-1h8a1 1 0 0 1 1 1zM13 46a.966.966 0 0 1-.14.5.984.984 0 0 0-.86-.5H4a.984.984 0 0 0-.86.5A.966.966 0 0 1 3 46a1 1 0 0 1 1-1h8a1 1 0 0 1 1 1zM29 46a.966.966 0 0 1-.14.5.984.984 0 0 0-.86-.5h-8a.984.984 0 0 0-.86.5.966.966 0 0 1-.14-.5 1 1 0 0 1 1-1h8a1 1 0 0 1 1 1zM45 46a.966.966 0 0 1-.14.5.984.984 0 0 0-.86-.5h-8a.984.984 0 0 0-.86.5.966.966 0 0 1-.14-.5 1 1 0 0 1 1-1h8a1 1 0 0 1 1 1zM61 46a.966.966 0 0 1-.14.5.984.984 0 0 0-.86-.5h-8a.984.984 0 0 0-.86.5.966.966 0 0 1-.14-.5 1 1 0 0 1 1-1h8a1 1 0 0 1 1 1zM5 40a.966.966 0 0 1-.14.5A.984.984 0 0 0 4 40H1v-1h3a1 1 0 0 1 1 1zM53 40a.966.966 0 0 1-.14.5.984.984 0 0 0-.86-.5h-8a.984.984 0 0 0-.86.5.966.966 0 0 1-.14-.5 1 1 0 0 1 1-1h8a1 1 0 0 1 1 1zM37 40a.966.966 0 0 1-.14.5.984.984 0 0 0-.86-.5h-8a.984.984 0 0 0-.86.5.966.966 0 0 1-.14-.5 1 1 0 0 1 1-1h8a1 1 0 0 1 1 1zM63 39v1h-3a.984.984 0 0 0-.86.5.966.966 0 0 1-.14-.5 1 1 0 0 1 1-1zM37 52a.966.966 0 0 1-.14.5.984.984 0 0 0-.86-.5h-8a.984.984 0 0 0-.86.5.966.966 0 0 1-.14-.5 1 1 0 0 1 1-1h8a1 1 0 0 1 1 1zM21 52a.966.966 0 0 1-.14.5.984.984 0 0 0-.86-.5h-8a.984.984 0 0 0-.86.5.966.966 0 0 1-.14-.5 1 1 0 0 1 1-1h8a1 1 0 0 1 1 1zM5 52a.966.966 0 0 1-.14.5A.984.984 0 0 0 4 52H1v-1h3a1 1 0 0 1 1 1zM53 52a.966.966 0 0 1-.14.5.984.984 0 0 0-.86-.5h-8a.984.984 0 0 0-.86.5.966.966 0 0 1-.14-.5 1 1 0 0 1 1-1h8a1 1 0 0 1 1 1zM63 51v1h-3a.984.984 0 0 0-.86.5.966.966 0 0 1-.14-.5 1 1 0 0 1 1-1z" fill="#ffae67"></path><path d="M1 26h62v7H1z" fill="#ffc08d"></path><path d="M14 13c5.833 0 7 9 7 9s1.167-9 7-9c-5.833 0-7-9-7-9s-1.167 9-7 9z" fill="#8fefdd"></path><path d="M28 13a5.069 5.069 0 0 0-2.65.73c-3.02-1.01-4.42-4.74-5-6.98A17.769 17.769 0 0 0 21 4s1.17 9 7 9z" fill="#8fdbcd"></path><path d="M39 17c5 0 6 7 6 7s1-7 6-7c-5 0-6-7-6-7s-1 7-6 7z" fill="#8fefdd"></path><path d="M51 17a4.6 4.6 0 0 0-2.56.74c-2.44-.83-3.6-3.56-4.11-5.28A12.793 12.793 0 0 0 45 10s1 7 6 7zM59 19a1 1 0 0 1-1 1 1 1 0 0 0-1-1h-1v-1a1 1 0 0 0-1-1 1 1 0 0 1 2 0v1h1a1 1 0 0 1 1 1z" fill="#8fdbcd"></path></g></svg>