<svg viewBox="0 0 512 512" xmlns="http://www.w3.org/2000/svg"><g><path d="M224 72v8c0 8.837 7.163 16 16 16h240c8.837 0 16-7.163 16-16v-8c0-17.673-14.327-32-32-32H192c17.673 0 32 14.327 32 32z" fill="#f5871e"></path><path d="M160 440V224c0-17.673 14.327-32 32-32-17.673 0-32-14.327-32-32V72c0-17.673 14.327-32 32-32h272c-17.673 0-32 14.327-32 32v56c0 17.673-14.327 32-32 32 17.673 0 32 14.327 32 32v16c0 8.837-7.163 16-16 16 8.837 0 16 7.163 16 16v112c0 17.673-14.327 32-32 32 17.673 0 32 14.327 32 32v24c0 17.673-14.327 32-32 32H128c17.673 0 32-14.327 32-32z" fill="#fabe19"></path><path d="M368 440v-8c0-8.837-7.163-16-16-16H112c-8.837 0-16 7.163-16 16v8c0 17.673 14.327 32 32 32h272c-17.673 0-32-14.327-32-32zM376 224H216c-8.837 0-16-7.163-16-16s7.163-16 16-16h160c8.837 0 16 7.163 16 16s-7.163 16-16 16zM272 288h-56c-8.837 0-16-7.163-16-16s7.163-16 16-16h56c8.837 0 16 7.163 16 16s-7.163 16-16 16zM376 288h-56c-8.837 0-16-7.163-16-16s7.163-16 16-16h56c8.837 0 16 7.163 16 16s-7.163 16-16 16zM312 352h-96c-8.837 0-16-7.163-16-16s7.163-16 16-16h96c8.837 0 16 7.163 16 16s-7.163 16-16 16zM376 352h-16c-8.837 0-16-7.163-16-16s7.163-16 16-16h16c8.837 0 16 7.163 16 16s-7.163 16-16 16zM312 160h-96c-8.837 0-16-7.163-16-16s7.163-16 16-16h96c8.837 0 16 7.163 16 16s-7.163 16-16 16zM376 160h-16c-8.837 0-16-7.163-16-16s7.163-16 16-16h16c8.837 0 16 7.163 16 16s-7.163 16-16 16z" fill="#f5871e"></path><path d="M288 112v228.686c0 6.248-5.065 11.314-11.314 11.314h-32a11.313 11.313 0 0 1-8-3.314L192 304H48c-17.673 0-32-14.327-32-32V112c0-17.673 14.327-32 32-32h208c17.673 0 32 14.327 32 32z" fill="#463c4b"></path><path d="M256 112v228.686c0 6.248-5.065 11.314-11.314 11.314a11.313 11.313 0 0 1-8-3.314L192 304H48c-17.673 0-32-14.327-32-32V112c0-17.673 14.327-32 32-32h176c17.673 0 32 14.327 32 32z" fill="#555a6e"></path><path d="M192 160c0-30.582-24.514-55.438-54.965-55.991-30.654-.556-56.383 24.143-57.023 54.795-.355 17.031 6.901 32.368 18.594 42.864 3.408 3.059 5.394 7.392 5.394 11.971V232h64v-18.362c0-4.569 1.972-8.901 5.373-11.951C184.804 191.436 192 176.562 192 160z" fill="#f5871e"></path><path d="M152 264h-32c-8.837 0-16-7.163-16-16v-16h64v16c0 8.836-7.163 16-16 16z" fill="#b9af9b"></path><path d="M136 264h-16c-8.837 0-16-7.163-16-16v-16h32z" fill="#f0e1cd"></path><path d="M136 280c-8.837 0-16-7.163-16-16h32c0 8.836-7.163 16-16 16z" fill="#b9af9b"></path><path d="M136 128v-23.983c-30.194.013-55.355 24.482-55.988 54.788-.008.401.008.796.008 1.196H104c17.673-.001 32-14.328 32-32.001zM224 168h-8a8 8 0 0 1 0-16h8a8 8 0 0 1 0 16zM208 136a8 8 0 0 1-5.657-13.656l8-8a7.999 7.999 0 0 1 11.314 0 8 8 0 0 1 0 11.313l-8 8A7.974 7.974 0 0 1 208 136zM216 208a7.974 7.974 0 0 1-5.657-2.343l-8-8a8 8 0 0 1 0-11.313 7.999 7.999 0 0 1 11.314 0l8 8A8 8 0 0 1 216 208zM56 168h-8a8 8 0 0 1 0-16h8a8 8 0 0 1 0 16zM64 136a7.974 7.974 0 0 1-5.657-2.343l-8-8a8 8 0 0 1 0-11.313 7.999 7.999 0 0 1 11.314 0l8 8A8 8 0 0 1 64 136zM56 208a8 8 0 0 1-5.657-13.656l8-8a7.999 7.999 0 0 1 11.314 0 8 8 0 0 1 0 11.313l-8 8A7.974 7.974 0 0 1 56 208z" fill="#fabe19"></path></g></svg>