<svg viewBox="0 0 24 24" xmlns="http://www.w3.org/2000/svg"><g><g><path d="M10.22 1.39a10.73 10.73 0 0 0-7.64 15.77.3.3 0 0 1 0 .2L1.81 20a1.78 1.78 0 0 0 .44 1.74 1.75 1.75 0 0 0 1.75.44l2.65-.79a.26.26 0 0 1 .2 0A10.62 10.62 0 0 0 12 22.75a11.47 11.47 0 0 0 2.31-.24 10.76 10.76 0 0 0-4.09-21.12z" fill="#0db561"></path><g fill="#fff"><path d="M13.94 6.05a2.1 2.1 0 0 0-1.54-.67h-.8a2.07 2.07 0 0 0-2.08 2.25l.4 4.83a2.09 2.09 0 0 0 4.16 0l.4-4.83a2.09 2.09 0 0 0-.54-1.58z" fill="#ffffff"></path><circle cx="12" cy="16.88" fill="#ffffff" r="1.75"></circle></g></g></g></svg>