<svg viewBox="0 0 3325.921 3325.921" xmlns="http://www.w3.org/2000/svg"><g><path clip-rule="evenodd" d="m895.239 2500.082 945.634 179.35L1705.54 159.083H915.304c-11.084 0-20.065 8.981-20.065 20.065z" fill="#f4eafa" fill-rule="evenodd"></path><path clip-rule="evenodd" d="m895.239 1984.601 601.022-442.684c18.63-15.548 28.131-31.849 27.372-48.721.759-17.06-8.741-33.18-27.372-48.916l-601.022-442.49-26.418-19.526c-19.007-12.699-52.654-7.586-52.654 32.608v174.23H156.795c-30.22 0-54.743 24.646-54.743 54.601V1742.5c0 30.142 24.523 54.601 54.743 54.601h659.373v174.418c0 40.194 33.647 45.12 52.654 32.42z" fill="#ee6161" fill-rule="evenodd"></path><path clip-rule="evenodd" d="M1705.533 159.083H1353.51V2498.946l484.884 133.848z" fill="#d2cfe9" fill-rule="evenodd"></path><path clip-rule="evenodd" d="m1353.51 1339.251-213.646-157.163a652.815 652.815 0 0 1 9.883 113.186c0 210.816-99.98 397.941-254.515 515.675-25.088 19.15-51.512 36.21-79.072 51.57v109.013c0 40.194 33.647 45.12 52.654 32.42l26.418-19.338 458.277-337.649 142.744-105.029c18.63-15.548 28.131-31.849 27.372-48.721.759-17.06-8.741-33.18-27.372-48.916z" fill="#e94444" fill-rule="evenodd"></path><path clip-rule="evenodd" d="M1705.533 159.083v2339.863l380.153 567.81 1120.175-115.872c10.227-1.058 18.001-9.676 18.001-19.961V128.648c0-10.519-8.124-19.254-18.618-20.013L1727.045 1.763c-11.622-.837-21.512 8.358-21.512 20.013z" fill="#016a74" fill-rule="evenodd"></path><path clip-rule="evenodd" d="M2988.362 92.918v2880.561l217.514-22.589c10.227-1.064 17.994-9.676 17.994-19.955V128.641c0-10.519-8.124-19.254-18.618-20.013z" fill="#01525a" fill-rule="evenodd"></path><path clip-rule="evenodd" d="M2185.666 1331.665c-77.358 0-140.084 72.232-140.084 161.524 0 89.104 62.725 161.524 140.084 161.524 77.365 0 140.278-72.42 140.278-161.524.001-89.292-62.913-161.524-140.278-161.524z" fill="#f4eafa" fill-rule="evenodd"></path><path clip-rule="evenodd" d="M2123.512 1348.349c46.191 26.541 77.93 81.33 77.93 144.84 0 63.322-31.739 118.299-77.93 144.652 18.624 10.805 39.916 16.872 62.154 16.872 77.365 0 140.278-72.42 140.278-161.524 0-89.292-62.913-161.524-140.278-161.524-22.238 0-43.522 6.068-62.154 16.684z" fill="#d2cfe9" fill-rule="evenodd"></path><path d="M1705.539 2549.108c-27.703 0-50.162-22.459-50.162-50.162V2282.25c0-11.142-9.494-20.552-20.74-20.552h-382.626c-11.246 0-20.74 9.41-20.74 20.552v216.696c0 27.703-22.459 50.162-50.162 50.162s-50.162-22.459-50.162-50.162V2282.25c0-66.651 54.309-120.875 121.064-120.875h382.626c66.749 0 121.057 54.224 121.057 120.875v216.696c.001 27.702-22.452 50.162-50.155 50.162z" fill="#fec165"></path><path clip-rule="evenodd" d="M2085.713 2608.179V3214.99c0 51.032-35.38 94.036-82.933 106.009a109.725 109.725 0 0 1-26.418 3.212H910.275c-9.163 0-18.06-1.135-26.418-3.212-47.553-11.973-82.868-54.977-82.868-106.009v-606.811c0-55.042 40.999-100.72 94.237-108.079 4.951-.805 9.896-1.135 15.048-1.135h1066.087c60.131-.006 109.352 49.085 109.352 109.214z" fill="#ab695d" fill-rule="evenodd"></path><path clip-rule="evenodd" d="M1900.555 2608.147v606.862c0 60.097-49.227 109.201-109.292 109.201h185.132c9.124 0 18.059-1.136 26.418-3.225 47.521-11.947 82.874-54.977 82.874-105.976v-606.862c0-60.097-49.228-109.201-109.292-109.201h-185.132c14.257 0 27.748 2.842 40.298 7.774 40.291 16.113 68.994 55.548 68.994 101.427z" fill="#935b50" fill-rule="evenodd"></path><path d="M2085.687 2859.645H800.963c-27.703 0-50.162-22.459-50.162-50.162s22.459-50.162 50.162-50.162h1284.73c27.703 0 50.162 22.459 50.162 50.162-.007 27.702-22.466 50.162-50.168 50.162z" fill="#d2cfe9"></path><path d="M1670.374 2956.529c-27.703 0-50.162-22.459-50.162-50.162v-157.546c0-27.703 22.459-50.162 50.162-50.162s50.162 22.459 50.162 50.162v157.546c-.006 27.703-22.459 50.162-50.162 50.162zM1209.436 2956.529c-27.703 0-50.162-22.459-50.162-50.162v-157.546c0-27.703 22.459-50.162 50.162-50.162s50.162 22.459 50.162 50.162v157.546c0 27.703-22.459 50.162-50.162 50.162z" fill="#fec165"></path></g></svg>