<svg viewBox="0 0 512 512" xmlns="http://www.w3.org/2000/svg"><g><path clip-rule="evenodd" d="m382.868 122.396 52.609-52.473c24.055-23.992-10.037-57.996-34.063-34.004L259.912 177.055l-12.431-51.351c-7.239-29.976-33.89-49.74-51.34-51.782-12.172-1.438-20.305 5.696-15.979 18.728l15.056 45.338c6.028 18.095.202 30.063-4.124 49.28-8.162 36.276 19.065 55.119-11.537 85.671l-17.594 17.548 107.813 107.506c47.042-46.921 62.156-19.764 113.495-72.006 17.738-17.692 53.301-53.163 53.272-53.163z" fill="#fed2a4" fill-rule="evenodd"></path><path clip-rule="evenodd" d="M456.099 253.319c23.997-23.935-9.922-57.852-33.948-34.119l-12.085 3.884-7.586 15.736c-23.853 23.964 10.124 57.824 34.121 33.975 6.49-6.502 13.008-12.975 19.498-19.476zM397.52 194.431l4.99-23.647 13.037-12.974 1.413-1.41c24.026-23.992-10.037-57.996-34.092-34.004l-48.484 48.359c-24.026 23.964 10.008 57.91 34.034 34.032.028 0 29.102-10.356 29.102-10.356z" fill="#ffbd86" fill-rule="evenodd"></path><path clip-rule="evenodd" d="M269.776 397.993c47.042-46.921 62.156-19.764 113.495-72.006l53.272-53.163c-4.067-3.711-14.508-18.584-37.293-1.784l-34.842 34.752c-51.34 52.243-67.145 25.805-114.187 72.697z" fill="#ffbd86" fill-rule="evenodd"></path><path clip-rule="evenodd" d="M399.25 271.04c7.932 10.529 24.112 14.844 37.293 1.784l19.555-19.505c16.123-16.081 6.115-36.65-9.46-41.253 4.903 8.515 4.759 19.965-5.047 29.746l-19.469 19.418c-6.605 6.588-15.373 9.954-24.603 7.25.52.891 1.097 1.754 1.731 2.56zM416.959 156.399c16.094-16.081 6.115-36.65-9.489-41.253 4.903 8.487 4.788 19.965-5.019 29.746-16.181 16.139-32.361 32.249-48.542 48.388-7.903 7.854-16.902 9.465-24.545 7.192 7.124 12.313 24.833 18.44 39.053 4.344l24.718-11.133 9.374-22.899c4.817-4.805 9.634-9.58 14.45-14.385z" fill="#f6a96c" fill-rule="evenodd"></path><path clip-rule="evenodd" d="M258.412 251.046c10.239-28.624 4.759-55.896 1.5-73.991l-12.431-51.351c-7.239-29.976-33.89-49.74-51.34-51.782-6.23-.719-11.422.777-14.392 4.171 17.277 4.286 33.14 23.273 39.831 51.034l12.431 51.351c2.798 16.484 5.797 39.297.202 66.684-.519 2.417 7.846 17.577 24.199 3.884z" fill="#ffbd86" fill-rule="evenodd"></path><path clip-rule="evenodd" d="m250.221 459.729 35.995-35.874c2.596-2.618 2.596-6.876 0-9.465l-16.44-16.398-19.555-19.505-88.258-88.001-16.411-16.398c-2.625-2.618-6.893-2.589-9.489 0l-35.995 35.874 65.501 98.415z" fill="#faf7f7" fill-rule="evenodd"></path><path clip-rule="evenodd" d="m250.221 459.729 35.995-35.874c2.596-2.618 2.596-6.876 0-9.465l-16.44-16.398-8.739-8.688c3.259 3.222 2.625 6.847 0 9.436l-42.11 42.03z" fill="#dedbee" fill-rule="evenodd"></path><path clip-rule="evenodd" d="m197.814 512 52.407-52.271-150.154-149.766-52.378 52.271z" fill="#9be69d" fill-rule="evenodd"></path><path clip-rule="evenodd" d="m197.814 512 52.407-52.271-25.151-25.086-52.407 52.271z" fill="#6fd7a3" fill-rule="evenodd"></path><path clip-rule="evenodd" d="M436.515 204.873c24.026-23.964-9.951-57.91-34.005-34.09l-34.092 34.004c-23.766 23.82 10.297 57.737 34.149 33.946l19.469-19.418 14.479-14.442z" fill="#ffbd86" fill-rule="evenodd"></path><path clip-rule="evenodd" d="M363.457 234.476c7.095 12.313 24.805 18.44 39.024 4.344 6.461-6.588 13.123-13.089 19.671-19.62l12.979-12.946 1.384-1.381c16.123-16.081 6.115-36.679-9.46-41.253 4.903 8.487 4.759 19.936-5.047 29.717-11.335 11.335-22.699 22.64-34.034 33.975-7.904 7.825-16.903 9.407-24.517 7.164z" fill="#f6a96c" fill-rule="evenodd"></path><path d="M291.091 45.66a7.612 7.612 0 0 1-7.612-7.611V7.611c0-4.204 3.408-7.611 7.612-7.611s7.612 3.408 7.612 7.611v30.437a7.613 7.613 0 0 1-7.612 7.612zM333.424 58.606a7.611 7.611 0 0 1-6.382-11.749l14.681-22.669c2.285-3.529 6.997-4.537 10.526-2.252s4.537 6.998 2.252 10.526L339.82 55.131a7.605 7.605 0 0 1-6.396 3.475zM248.786 58.606a7.602 7.602 0 0 1-6.395-3.475L227.71 32.462a7.611 7.611 0 1 1 12.778-8.274l14.681 22.669a7.611 7.611 0 0 1-6.383 11.749z" fill="#554e56"></path></g></svg>