<svg viewBox="0 0 512 512" xmlns="http://www.w3.org/2000/svg"><g><path d="M261.905 132.548c0 64.92 52.628 117.548 117.548 117.548l20-141.095-20-94C314.532 15 261.905 67.628 261.905 132.548z" fill="#fff5f5"></path><path d="M379.452 15v235.095c64.92 0 117.548-52.628 117.548-117.548C497 67.628 444.372 15 379.452 15z" fill="#ebe5f1"></path><path d="M45.719 299.681C20.469 299.681 0 320.15 0 345.4s20.469 45.719 45.719 45.719h17.224v-91.438z" fill="#ffbb85"></path><path d="M307.681 299.681h-17.224v91.438h17.224c25.25 0 45.719-20.469 45.719-45.719s-20.469-45.719-45.719-45.719z" fill="#f5a86c"></path><path d="M52.942 197.814v189.011c0 68.439 54.954 124.977 123.393 125.174.122 0 .242-.004.364-.004l20-157.089-20-134.9z" fill="#fdd1a3"></path><path d="M176.7 220.007v291.989c68.349 0 123.758-55.404 123.758-123.753V242.2z" fill="#ffbb85"></path><path d="M167.434 159.71a82.49 82.49 0 0 1-61.965-28.04l-2.543-2.894H78.72c-31.321 0-56.712 25.391-56.712 56.712 0 31.321 25.391 56.712 56.712 56.712h97.98l20-41.245-20-41.245z" fill="#c6715a"></path><path d="M300.458 221.578c0-34.168-27.699-61.867-61.867-61.867H176.7v82.49h123.758z" fill="#99503d"></path><path d="M164.518 327.364h-30c0-4.575-3.722-8.296-8.296-8.296s-8.296 3.722-8.296 8.296h-30c0-21.117 17.18-38.296 38.296-38.296 21.116-.001 38.296 17.179 38.296 38.296z" fill="#f5a86c"></path><path d="M265.475 327.364h-30c0-4.575-3.722-8.296-8.296-8.296-4.575 0-8.296 3.722-8.296 8.296h-30c0-21.117 17.18-38.296 38.296-38.296 21.115-.001 38.296 17.179 38.296 38.296z" fill="#e99958"></path><path d="M145.107 392.319h-30c0 33.962 27.63 61.592 61.592 61.592l10-16.911-10-13.089c-17.419 0-31.592-14.172-31.592-31.592z" fill="#f5a86c"></path><path d="M238.292 392.319h-30c0 17.42-14.172 31.592-31.592 31.592v30c33.962 0 61.592-27.63 61.592-61.592z" fill="#e99958"></path><path d="M276.904 132.548C276.904 76.003 322.907 30 379.452 30l10-15-10-15c-73.087 0-132.548 59.461-132.548 132.548s59.461 132.547 132.548 132.547l10-15-10-15c-56.545 0-102.548-46.002-102.548-102.547z" fill="#fe5860"></path><path d="M379.452 0v30C435.997 30 482 76.003 482 132.548s-46.003 102.547-102.548 102.547v30c73.087 0 132.548-59.46 132.548-132.547S452.539 0 379.452 0z" fill="#f8006a"></path><path d="M364.452 70.681v46.867h-46.867v30h46.867v46.867h15l10-61.867-10-61.867z" fill="#fe5860"></path><path d="M394.452 117.548V70.681h-15v123.734h15v-46.867h46.867v-30z" fill="#f8006a"></path></g></svg>