<svg viewBox="0 0 512 512" xmlns="http://www.w3.org/2000/svg"><g><path d="m510.933 58.667-52.266-8.534L450.133 0l-7.466 51.2-49.067 7.467 49.067 7.466 7.466 51.2 8.534-50.133zM88.533 0 86.4 20.267l-21.333 3.2 20.266 3.2 3.2 20.266L92.8 26.667l20.267-3.2-21.334-3.2z" fill="#ffd15c"></path><path d="M59.733 65.067 54.4 28.8l-5.333 36.267-35.2 5.333 35.2 6.4 5.333 36.267L59.733 76.8l37.334-6.4z" fill="#cdd6e0"></path><path d="M336 215.467 270.933 91.733h-26.666l-72.534 123.734z" fill="#84dbff"></path><path d="M419.2 91.733H270.933L336 215.467z" fill="#54c0eb"></path><path d="M508.8 215.467 420.267 91.733H419.2L336 215.467z" fill="#84dbff"></path><path d="M254.933 512 336 215.467H171.733z" fill="#f2f2f2"></path><path d="M244.267 91.733h-153.6l81.066 123.734z" fill="#54c0eb"></path><path d="M90.667 91.733H89.6L1.067 215.467h170.666z" fill="#84dbff"></path><path d="M508.8 215.467 254.933 512 1.067 215.467h170.666L254.933 512 336 215.467z" fill="#54c0eb"></path><path d="m336 182.4-4.267 27.733-28.8 4.267 28.8 4.267L336 248.533l4.267-29.866 28.8-4.267-28.8-4.267zM126.933 120.533l-4.266 27.734-28.8 4.266L121.6 156.8l5.333 29.867 4.267-28.8 28.8-5.334-28.8-4.266z" fill="#ffffff"></path></g></svg>