<svg viewBox="0 0 512 512" xmlns="http://www.w3.org/2000/svg"><g><path d="M214.374 266.406h-99.902v-91.661a8.24 8.24 0 0 1 8.241-8.241h83.42a8.24 8.24 0 0 1 8.241 8.241z" fill="#ecc373"></path><path d="M214.374 266.406h-24.976v-99.902h16.734a8.24 8.24 0 0 1 8.241 8.241v91.661z" fill="#dab46b"></path><path d="M174.892 199.805h-20.939a6.18 6.18 0 0 1-6.181-6.181v-27.12h33.301v27.12a6.18 6.18 0 0 1-6.181 6.181z" fill="#f4e2c1"></path><path d="M297.626 266.406h99.902v-91.661a8.24 8.24 0 0 0-8.241-8.241h-83.42a8.24 8.24 0 0 0-8.241 8.241z" fill="#ecc373"></path><path d="M397.528 266.406h-24.976v-99.902h16.734a8.24 8.24 0 0 1 8.241 8.241v91.661z" fill="#dab46b"></path><path d="M337.108 199.805h20.939a6.18 6.18 0 0 0 6.181-6.181v-27.12h-33.301v27.12a6.18 6.18 0 0 0 6.181 6.181z" fill="#f4e2c1"></path><path d="M72.846 266.406h366.309v33.301H72.846z" fill="#dddaec"></path><path d="M72.846 266.406h24.976v33.301H72.846zM414.179 266.406h24.976v33.301h-24.976z" fill="#d0cee7"></path><path d="M72.846 99.902h366.309v33.301H72.846z" fill="#dddaec"></path><path d="M72.846 99.902h24.976v33.301H72.846zM414.179 99.902h24.976v33.301h-24.976z" fill="#d0cee7"></path><path d="M64.604 512H47.786a8.24 8.24 0 0 1-8.241-8.241v-37.547h33.301v37.547A8.242 8.242 0 0 1 64.604 512zM464.214 512h-16.818a8.24 8.24 0 0 1-8.241-8.241v-37.547h33.301v37.547a8.243 8.243 0 0 1-8.242 8.241z" fill="#407093"></path><path d="M72.846 466.211H39.545V8.241A8.241 8.241 0 0 1 47.786 0h16.818a8.24 8.24 0 0 1 8.241 8.241v457.97zM472.455 466.211h-33.301V8.241A8.24 8.24 0 0 1 447.395 0h16.818a8.24 8.24 0 0 1 8.241 8.241v457.97z" fill="#c17d4f"></path><path d="M206.049 432.911h-99.902V341.25a8.24 8.24 0 0 1 8.241-8.241h83.42a8.24 8.24 0 0 1 8.241 8.241z" fill="#ecc373"></path><path d="M206.049 432.911h-24.976v-99.902h16.734a8.24 8.24 0 0 1 8.241 8.241v91.661z" fill="#dab46b"></path><path d="M166.567 366.309h-20.939a6.18 6.18 0 0 1-6.181-6.181v-27.12h33.301v27.12a6.18 6.18 0 0 1-6.181 6.181z" fill="#f4e2c1"></path><path d="M405.854 432.911h-99.902V341.25a8.24 8.24 0 0 1 8.241-8.241h83.42a8.24 8.24 0 0 1 8.241 8.241z" fill="#ecc373"></path><path d="M405.854 432.911h-24.976v-99.902h16.734a8.24 8.24 0 0 1 8.241 8.241v91.661z" fill="#dab46b"></path><path d="M366.372 366.309h-20.939a6.18 6.18 0 0 1-6.181-6.181v-27.12h33.301v27.12a6.181 6.181 0 0 1-6.181 6.181z" fill="#f4e2c1"></path><path d="M206.049 432.911h99.902V341.25a8.24 8.24 0 0 0-8.241-8.241h-83.42a8.24 8.24 0 0 0-8.241 8.241z" fill="#ecc373"></path><path d="M305.951 432.911h-24.976v-99.902h16.734a8.24 8.24 0 0 1 8.241 8.241v91.661z" fill="#dab46b"></path><path d="M245.531 366.309h20.939a6.18 6.18 0 0 0 6.181-6.181v-27.12H239.35v27.12a6.18 6.18 0 0 0 6.181 6.181z" fill="#f4e2c1"></path><path d="M206.049 99.902h-99.902V8.241A8.24 8.24 0 0 1 114.388 0h83.42a8.24 8.24 0 0 1 8.241 8.241z" fill="#ecc373"></path><path d="M206.049 99.902h-24.976V0h16.734a8.24 8.24 0 0 1 8.241 8.241v91.661z" fill="#dab46b"></path><path d="M166.567 33.301h-20.939a6.18 6.18 0 0 1-6.181-6.181V0h33.301v27.12a6.181 6.181 0 0 1-6.181 6.181z" fill="#f4e2c1"></path><path d="M405.854 99.902h-99.902V8.241A8.24 8.24 0 0 1 314.193 0h83.42a8.24 8.24 0 0 1 8.241 8.241z" fill="#ecc373"></path><path d="M405.854 99.902h-24.976V0h16.734a8.24 8.24 0 0 1 8.241 8.241v91.661z" fill="#dab46b"></path><path d="M366.372 33.301h-20.939a6.18 6.18 0 0 1-6.181-6.181V0h33.301v27.12a6.182 6.182 0 0 1-6.181 6.181z" fill="#f4e2c1"></path><path d="M206.049 99.902h99.902V8.241A8.24 8.24 0 0 0 297.71 0h-83.42a8.24 8.24 0 0 0-8.241 8.241z" fill="#ecc373"></path><path d="M305.951 99.902h-24.976V0h16.734a8.24 8.24 0 0 1 8.241 8.241v91.661z" fill="#dab46b"></path><path d="M245.531 33.301h20.939a6.18 6.18 0 0 0 6.181-6.181V0H239.35v27.12a6.181 6.181 0 0 0 6.181 6.181z" fill="#f4e2c1"></path><path d="M72.846 432.911h366.309v33.301H72.846z" fill="#dddaec"></path><g fill="#d0cee7"><path d="M414.179 432.911h24.976v33.301h-24.976zM72.846 432.911h24.976v33.301H72.846z" fill="#d0cee7"></path></g></g></svg>