<svg viewBox="0 0 512 512" xmlns="http://www.w3.org/2000/svg"><g><path d="M256 22C120.69 22 11 131.69 11 267c0 63.497 24.157 121.351 63.781 164.877l1.051-.332 18.854-145.828C97.834 261.364 118.726 243 143.281 243h225.438c24.556 0 45.447 18.364 48.595 42.717l18.854 145.828 1.051.332C476.843 388.351 501 330.497 501 267c0-135.31-109.69-245-245-245z" fill="#c8effe"></path><path d="M418.306 285.589C415.083 260.661 393.855 242 368.719 242H143.281c-25.136 0-46.364 18.661-49.587 43.589L74.781 431.877C119.593 481.102 184.188 512 256 512s136.407-30.898 181.219-80.123z" fill="#ffd15b"></path><path d="M117.913 275.589c1.758-13.601 8.885-25.327 19.074-33.184-22.307 2.813-40.343 20.368-43.293 43.184L74.781 431.877a245.21 245.21 0 0 0 20.556 20.057z" fill="#ffc344"></path><path d="M143.281 484.573C177.025 502.091 215.353 512 256 512s78.975-9.909 112.719-27.427V242H143.281z" fill="#ffe177"></path><path d="M276.838 226.039h-41.676c-4.001 0-7.901-.44-11.662-1.253V252.5c0 17.949 14.551 32.5 32.5 32.5 17.949 0 32.5-14.551 32.5-32.5v-27.715a55.072 55.072 0 0 1-11.662 1.254z" fill="#ffa78f"></path><path d="M248 252.5v-26.461h-12.838c-4.001 0-7.901-.44-11.662-1.253V252.5c0 17.949 14.551 32.5 32.5 32.5 4.335 0 8.468-.856 12.25-2.396-11.876-4.838-20.25-16.49-20.25-30.104z" fill="#f89580"></path><path d="M272.084 307.36 256 323.443l-16.084-16.084c-14.85-14.85-38.928-14.85-53.778 0-14.85 14.85-14.85 38.928 0 53.778L256 431l69.862-69.862c14.85-14.85 14.85-38.928 0-53.778-14.85-14.851-38.928-14.851-53.778 0z" fill="#fe646f"></path><path d="M226.138 361.138c-14.85-14.851-14.85-38.928 0-53.778a38.101 38.101 0 0 1 6.889-5.45c-14.665-9.086-34.163-7.276-46.889 5.45-14.85 14.85-14.85 38.928 0 53.778L256 431l20-20z" fill="#fb2b3a"></path><path d="M331.401 382.45a8.104 8.104 0 0 0-11.461 0l-18.697 18.697-1.994-1.994 29.465-29.465c3.165-3.165 3.165-8.296 0-11.461s-8.296-3.165-11.461 0l-29.465 29.465-1.994-1.994 31.858-31.858a8.104 8.104 0 0 0 0-11.461 8.104 8.104 0 0 0-11.461 0l-31.858 31.858-1.994-1.994 21.688-21.688c3.165-3.165 3.165-8.296 0-11.461s-8.296-3.165-11.461 0l-39.912 39.912v-15.797c0-5.281-4.281-9.561-9.561-9.561s-9.561 4.281-9.561 9.561v34.919l-6.356 6.356L269 456.308l40.46-40.46 21.94-21.94a8.1 8.1 0 0 0 .001-11.458z" fill="#ffb09e"></path><path d="M236.613 401.408v-34.919c0-3.489 1.875-6.533 4.667-8.202-1.674-2.775-4.708-4.637-8.184-4.637a9.56 9.56 0 0 0-9.561 9.561v34.919l-6.356 6.356 8.178 8.178z" fill="#ffa78f"></path><path d="M167.898 116.076h12.152V93.844c0-13.462 10.952-24.414 24.414-24.414h103.073c13.462 0 24.414 10.952 24.414 24.414v22.232h12.151c3.015 0 5.907.54 8.584 1.526V66.367C352.686 29.714 322.972 0 286.318 0H167.947a8.633 8.633 0 0 0-8.633 8.633v108.969a24.79 24.79 0 0 1 8.584-1.526z" fill="#3e5959"></path><path d="M210 8.633A8.633 8.633 0 0 1 218.633 0h-50.686a8.633 8.633 0 0 0-8.633 8.633v108.969a24.786 24.786 0 0 1 8.584-1.526h12.152V93.844c0-13.462 10.952-24.414 24.414-24.414H210z" fill="#384949"></path><path d="M344.102 115.076H331.95v55.851c0 3.453-.335 6.828-.945 10.107h13.097c14.303 0 25.898-11.595 25.898-25.898v-14.161c0-14.304-11.595-25.899-25.898-25.899z" fill="#ffa78f"></path><path d="M179.05 93.844v77.083c0 30.99 25.122 56.112 56.112 56.112h41.675c30.99 0 56.112-25.122 56.112-56.112V93.844c0-14.036-11.378-25.414-25.414-25.414H204.464c-14.036 0-25.414 11.378-25.414 25.414z" fill="#ffcebf"></path><path d="M180.05 170.927v-55.851h-12.152c-14.303 0-25.898 11.595-25.898 25.898v14.161c0 14.303 11.595 25.898 25.898 25.898h13.097a55.091 55.091 0 0 1-.945-10.106z" fill="#f89580"></path><path d="M213 170.927V93.844c0-14.035 11.378-25.414 25.414-25.414h-33.95c-14.036 0-25.414 11.378-25.414 25.414v77.083c0 30.99 25.122 56.112 56.112 56.112h33.95c-30.99 0-56.112-25.122-56.112-56.112z" fill="#ffb09e"></path><path d="M256.003 168.582a7.481 7.481 0 0 1-5.608-2.517l-13.029-14.657a7.5 7.5 0 0 1-.635-9.143l13.029-19.542a7.5 7.5 0 0 1 12.48 8.32l-9.817 14.726 9.183 10.331a7.499 7.499 0 0 1-5.603 12.482zM214.563 143.896a7.5 7.5 0 0 1-7.5-7.5v-15.539a7.5 7.5 0 0 1 15 0v15.539a7.5 7.5 0 0 1-7.5 7.5zM297.437 143.896a7.5 7.5 0 0 1-7.5-7.5v-15.539c0-4.142 3.357-7.5 7.5-7.5s7.5 3.358 7.5 7.5v15.539a7.5 7.5 0 0 1-7.5 7.5zM312.112 104.796H285.35c-4.143 0-7.5-3.358-7.5-7.5s3.357-7.5 7.5-7.5h26.762c4.143 0 7.5 3.358 7.5 7.5s-3.357 7.5-7.5 7.5zM226.649 104.796h-26.761a7.5 7.5 0 0 1 0-15h26.761a7.5 7.5 0 0 1 0 15z" fill="#f89580"></path><path d="m271.517 457.412-56.929-56.929a5 5 0 0 0-7.071 0L130.54 477.46c28.529 17.041 60.805 28.457 95.308 32.692l45.669-45.669a5 5 0 0 0 0-7.071z" fill="#ffd15b"></path><path d="M206.977 434.464a5 5 0 0 1 7.071 0l43.744 43.744 13.725-13.725a5 5 0 0 0 0-7.071l-56.929-56.929a5 5 0 0 0-7.071 0L130.54 477.46a244.607 244.607 0 0 0 21.849 11.592z" fill="#ffc344"></path><path d="M281.5 195.5h-51a7.5 7.5 0 0 1 0-15h51c4.143 0 7.5 3.358 7.5 7.5s-3.357 7.5-7.5 7.5z" fill="#f89580"></path></g></svg>