<svg id="Layer_1" enable-background="new 0 0 512 512" height="512" viewBox="0 0 512 512" width="512" xmlns="http://www.w3.org/2000/svg"><g><g><g><path d="m435.728 474.455c20.491 0 34.592-20.803 26.757-39.737-7.09-17.133-17.734-29.622-4.74-58.744 0 0 10.602-78.75-9.714-111.79-34.441-56.012-9.261-84.62-22.653-133.142-48.223-174.717-323.296-174.728-371.523 0-13.393 48.522 11.788 77.129-22.653 133.142-20.316 33.04-32.675 60.331-9.714 111.79 12.994 29.122 2.35 41.612-4.74 58.744-7.835 18.934 6.266 39.737 26.757 39.737z" fill="#735351"/><path d="m462.485 434.718c-7.09-17.133-17.734-29.622-4.74-58.744 0 0 10.602-78.75-9.714-111.79-34.441-56.013-9.261-84.62-22.653-133.142-25.651-92.932-115.481-136.437-201.217-130.508 75.454 5.217 147.738 48.721 170.312 130.508 13.393 48.522-11.788 77.129 22.653 133.142 20.316 33.04 9.714 111.79 9.714 111.79-12.994 29.122-2.35 41.612 4.74 58.744 7.835 18.934-6.266 39.737-26.757 39.737h30.905c20.491 0 34.591-20.803 26.757-39.737z" fill="#664442"/><g><g><ellipse cx="379.954" cy="271.048" fill="#fac8a2" rx="31.298" ry="31.444"/></g><g><ellipse cx="99.278" cy="271.048" fill="#fac8a2" rx="31.298" ry="31.444"/></g></g><g><path d="m95.149 512v-23.24c0-79.666 64.582-144.248 144.248-144.248h.439c79.666 0 144.248 64.582 144.248 144.248v23.24z" fill="#ff80b3"/><path d="m239.835 344.512h-.439c-5.145 0-10.227.27-15.233.796 72.505 7.61 129.015 68.932 129.015 143.452v23.24h30.905v-23.24c0-79.666-64.582-144.248-144.248-144.248z" fill="#ff6ba7"/><path d="m239.672 454.528h-.111c-20.21 0-36.594-16.384-36.594-36.594v-59.226h73.298v59.226c0 20.21-16.383 36.594-36.593 36.594z" fill="#ffd8ba"/></g><g><path d="m164.96 100.439c-4.633 47.132-28.565 52.383-43.343 57.509-7.086 2.458-11.818 9.18-11.818 16.711v89.116c0 72.03 58.121 130.421 129.818 130.421 71.696 0 129.817-58.392 129.817-130.421v-82.906c0-10.037-8.296-17.981-18.283-17.687-15.63.459-41.584.577-61.692-19.332-25.633-25.379-40.459-16.343-67.211-16.954-33.445-.764-47.285-16.346-52.895-27.297-1.069-2.087-4.163-1.496-4.393.84z" fill="#ffd8ba"/></g></g><g fill="#735351"><path d="m153.45 204.043c-4.181 0-7.62-3.339-7.72-7.542-.102-4.266 3.275-7.807 7.54-7.908 14.047-.335 25.526-9.171 25.641-9.261 3.352-2.618 8.206-2.04 10.838 1.305 2.632 3.346 2.073 8.18-1.263 10.823-.625.495-15.51 12.12-34.848 12.581-.062.002-.126.002-.188.002z"/><path d="m325.782 204.043c-.063 0-.126-.001-.188-.002-19.338-.461-34.223-12.086-34.848-12.581-3.344-2.65-3.907-7.51-1.257-10.854 2.645-3.338 7.491-3.904 10.834-1.273.207.161 11.65 8.926 25.639 9.259 4.266.102 7.642 3.642 7.54 7.908-.1 4.204-3.539 7.543-7.72 7.543z"/></g></g><g fill="#f0b07f"><path d="m187.823 270.185c-13.324 0-26.647-5.072-36.791-15.215-3.017-3.017-3.017-7.909 0-10.927 3.018-3.017 7.909-3.017 10.928 0 14.26 14.26 37.466 14.262 51.725 0 3.018-3.017 7.909-3.017 10.928 0 3.017 3.017 3.017 7.909 0 10.927-10.144 10.143-23.467 15.215-36.79 15.215z"/><path d="m291.409 270.185c-13.323 0-26.646-5.072-36.79-15.215-3.017-3.017-3.017-7.909 0-10.927 3.018-3.017 7.909-3.017 10.928 0 14.26 14.261 37.466 14.259 51.725 0 3.018-3.017 7.909-3.017 10.928 0 3.017 3.017 3.017 7.909 0 10.927-10.144 10.143-23.467 15.215-36.791 15.215z"/></g><circle cx="239.616" cy="330.488" fill="#fff" r="23.4"/><path d="m299.415 330.487 58.478-17.1c-6.045-24.253 19.946-45.564 42.511-34.886.315-17.133 14.783-30.807 32.21-29.801 14.39.83 26.43 11.958 28.341 26.244.658 4.918.114 9.634-1.347 13.925.539-.021 1.079-.041 1.623-.041 23.007 0 41.658 18.651 41.658 41.658 0 23.259-20.081 42.511-43.281 41.617 1.461 4.293 2.005 9.011 1.346 13.931-1.914 14.286-13.956 25.412-28.347 26.24-17.424 1.002-31.889-12.671-32.204-29.802-22.553 10.672-48.554-10.642-42.511-34.886z" fill="#f5f5f5"/><path d="m461.231 288.83c-.544 0-1.084.02-1.623.041 1.46-4.292 2.005-9.007 1.347-13.925-1.912-14.286-13.952-25.414-28.341-26.244-6.33-.365-12.269 1.207-17.282 4.177 7.815 4.631 13.46 12.665 14.718 22.067.658 4.919.114 9.634-1.347 13.925.539-.021 1.079-.041 1.623-.041 23.007 0 41.658 18.651 41.658 41.658 0 23.259-20.081 42.511-43.281 41.617 1.461 4.293 2.005 9.011 1.346 13.931-1.259 9.4-6.904 17.432-14.717 22.062 5.011 2.97 10.948 4.542 17.276 4.178 14.39-.827 26.433-11.953 28.347-26.24.659-4.92.115-9.637-1.346-13.931 23.2.894 43.281-18.358 43.281-41.617-.001-23.008-18.652-41.658-41.659-41.658z" fill="#e8e8e8"/></g></svg>