<svg viewBox="0 0 512 512" xmlns="http://www.w3.org/2000/svg"><g><path d="M338.878 425.921c10.52 0 19.015 8.495 19.015 18.989 0 10.52-8.495 19.015-19.015 19.015 10.52 0 19.015 8.521 19.015 19.015s-8.495 19.015-19.015 19.015H224.905c-14.308 0-28.431-2.893-41.634-8.469a106.486 106.486 0 0 0-41.66-8.469h-30.614V356.672h53.548c33.665 0 62.333-24.565 67.514-57.861l4.892-31.403c.912-6.273 6.392-11.283 13.15-11.283 20.831 0 37.426 17.49 36.269 38.32-1.025 17.858-3.209 38.767-7.943 55.415h60.451c10.52 0 19.015 8.521 19.015 19.015s-8.495 19.015-19.015 19.015c10.52 0 19.015 8.522 19.015 19.016s-8.495 19.015-19.015 19.015z" fill="#f1b2a3"></path><path d="M338.879 425.943c10.522 0 19.004 8.482 19.004 18.958a18.971 18.971 0 0 1-19.004 19.005c10.522 0 19.004 8.529 19.004 19.05 0 10.476-8.482 19.005-19.004 19.005h-113.98c-14.323 0-28.414-2.92-41.624-8.483a106.34 106.34 0 0 0-41.671-8.482h-30.592v-44.313c21.832 15.667 48.67 24.891 77.594 24.891 67.721 0 123.622-50.384 132.29-115.695h17.985a18.971 18.971 0 0 1 19.004 19.005c0 10.476-8.482 19.004-19.004 19.004 10.522 0 19.004 8.529 19.004 19.005-.001 10.521-8.484 19.05-19.006 19.05z" fill="#000000" opacity=".12"></path><path d="M139.187 347.887v141.998c0 8.715-7.065 15.78-15.78 15.78H44.452c-8.715 0-15.78-7.065-15.78-15.78V347.887c0-8.715 7.065-15.78 15.78-15.78h78.955c8.715 0 15.78 7.065 15.78 15.78z" fill="#f78721"></path><path d="M139.191 347.887v141.998c0 8.705-7.075 15.78-15.78 15.78H44.456c-8.732 0-15.78-7.075-15.78-15.78v-11.704c46.684 0 84.53-37.846 84.53-84.53 0-24.249-10.205-46.105-26.564-61.544h36.768c8.707 0 15.781 7.075 15.781 15.78z" fill="#000000" opacity=".12"></path><path d="M320.951 212.979v89.714c0 10.402 12.805 15.35 19.799 7.651l24.192-26.627 24.147 26.603c6.992 7.704 19.803 2.757 19.803-7.647v-89.694z" fill="#f14f4a"></path><path d="m464.175 167.591.014.044c5.163 15.893-6.684 32.198-23.395 32.198h-.089a24.599 24.599 0 0 0-23.397 17.005l-.016.049c-5.16 15.9-24.336 22.132-37.858 12.305l-.04-.029a24.597 24.597 0 0 0-28.923 0l-.04.029c-13.522 9.828-32.698 3.595-37.858-12.305l-.011-.033a24.599 24.599 0 0 0-23.419-17.005h-.05c-16.717.015-28.58-16.291-23.419-32.192l.019-.06a24.598 24.598 0 0 0-8.936-27.492l-.094-.069c-13.51-9.818-13.517-29.958-.015-39.786l.124-.09a24.599 24.599 0 0 0 8.919-27.488l-.025-.077c-5.16-15.884 6.671-32.184 23.373-32.198h.137a24.596 24.596 0 0 0 23.375-17.005l.013-.04c5.163-15.907 24.352-22.136 37.873-12.294l.026.019a24.6 24.6 0 0 0 28.942.008l.047-.034c13.529-9.837 32.719-3.593 37.869 12.322a24.599 24.599 0 0 0 23.382 17.025h.121c16.702.015 28.533 16.314 23.373 32.198l-.028.087a24.598 24.598 0 0 0 8.908 27.48l.132.096c13.489 9.829 13.481 29.952-.015 39.771l-.098.072a24.598 24.598 0 0 0-8.921 27.489z" fill="#fdcf17"></path><path d="m473.212 140.039-.092.046c-8.622 6.304-12.237 17.382-8.946 27.487v.046c5.191 15.899-6.675 32.215-23.362 32.215h-.093a24.601 24.601 0 0 0-23.408 17.012v.046c-5.191 15.899-24.335 22.11-37.87 12.284h-.046a24.628 24.628 0 0 0-28.924 0h-.046c-13.535 9.826-32.678 3.615-37.87-12.284v-.046a24.602 24.602 0 0 0-23.408-17.012h-.046c-10.8.046-19.561-6.721-23.037-15.806 11.264 3.291 23.13 5.006 35.413 5.006 70.641 0 127.886-57.245 127.886-127.84 0-8.576-.834-16.966-2.457-25.077 3.94 2.735 8.761 4.265 13.813 4.265h.093c16.733.046 28.553 16.316 23.408 32.215l-.046.093c-3.291 10.104.324 21.183 8.9 27.487l.139.093c13.488 9.826 13.488 29.942-.001 39.77z" fill="#000000" opacity=".12"></path><circle cx="364.933" cy="120.107" fill="#4955a1" r="68.462" transform="rotate(-80.8 364.9 120.157)"></circle><path d="m387.757 134.031 1.961 11.429c1.062 6.19-5.434 10.912-10.994 7.991l-10.266-5.392a7.58 7.58 0 0 0-7.049 0l-10.266 5.392c-5.56 2.921-12.056-1.801-10.994-7.991l1.961-11.429a7.58 7.58 0 0 0-2.181-6.71l-8.296-8.083c-4.499-4.384-2.019-12.024 4.198-12.929l11.462-1.668a7.58 7.58 0 0 0 5.704-4.144l5.136-10.399c2.782-5.633 10.815-5.63 13.593.004l5.125 10.392a7.58 7.58 0 0 0 5.707 4.148l11.476 1.669c6.217.904 8.698 8.545 4.199 12.929l-8.295 8.082a7.58 7.58 0 0 0-2.181 6.709z" fill="#fdcf17"></path></g></svg>