<?xml version="1.0" encoding="UTF-8"?>
<svg xmlns="http://www.w3.org/2000/svg" xmlns:xlink="http://www.w3.org/1999/xlink" width="512" height="512" viewBox="0 0 58 44" version="1.1"><!-- Generator: Sketch 51.3 (57544) - http://www.bohemiancoding.com/sketch --><title>027 - Utilities</title><desc>Created with Sketch.</desc><defs/><g id="Page-1" stroke="none" stroke-width="1" fill="none" fill-rule="evenodd"><g id="027---Utilities" fill-rule="nonzero"><path d="M36.5585,19.2845 C36.5296333,19.4009 36.4993,19.5168333 36.4675,19.6323 C35.4038,23.4973 31.7225,26 27.3345,26 C24.970387,25.9983025 22.7076017,25.0398743 21.0615,23.343 C19.367593,21.5642798 18.657903,19.0656668 19.1639,16.6621 C19.6769703,14.5794087 20.9457776,12.7617354 22.7239,11.5621 C23.7860321,10.964454 24.6309891,10.0450193 25.137,8.9363 C25.4719791,7.85110997 25.509005,6.69581239 25.2442,5.5914 C24.83,3.6 23.9359,1.17 22,0 C26.4440617,1.23959192 29.8886382,4.75683269 31.0352,9.2258 C31.2242005,8.67934878 31.3848808,8.12350992 31.5166,7.5605 C31.7984,6.4022 31.7894,5.2033 32.0231,4.0597 C33.1685447,4.68512383 34.1299279,5.60002739 34.8113,6.7131 C35.9221358,8.49946376 36.6242917,10.509326 36.8675,12.5988 C37.2043489,14.8260448 37.0993519,17.0978208 36.5585,19.2845 Z" id="Shape" fill="#E64C3C"/><path d="M27.335,26 C25.4455369,25.9928397 23.6570449,25.1460739 22.4540079,23.6890825 C21.2509708,22.2320912 20.7579135,20.3156856 21.1084,18.459 C21.4827143,16.7636361 22.4305975,15.2493753 23.792,14.1719 C24.650638,13.5113264 25.4138588,12.7352506 26.06,11.8657 L27.2969,10.07 L28.98,11.4565 C30.1038059,12.3793099 30.957444,13.5885759 31.4507,14.9565 C31.6887111,14.8970307 31.9205483,14.815131 32.1431,14.7119 L35.106,13.2334 L35.056,16.5342 C35.0308012,17.7613604 34.8888612,18.983337 34.6321,20.1836 L34.5579,20.5117 C34.2468522,21.8501706 33.5501413,23.0680501 32.554,24.0146 L32.4427,24.1201 L30.9378,25.1567 L30.804,25.2222 C29.7225793,25.7439622 28.5356685,26.0100848 27.335,26 Z" id="Shape" fill="#E57E25"/><path d="M29.8889,19.0469 C30.9754233,19.1555629 32.0709135,18.9635373 33.0557,18.4918 C33.03327,19.5917711 32.9064001,20.6871245 32.6768,21.7631 L32.6074,22.0673 C32.386299,23.0201105 31.8901987,23.8869909 31.1807,24.5603 L29.9258,25.4253 C29.1173122,25.8118918 28.2311217,26.0084696 27.335,26 C26.0298721,25.9764844 24.7999078,25.3849096 23.9668,24.38 C23.1707179,23.3813566 22.8449366,22.0874553 23.0732,20.8309 C23.364643,19.5913835 24.0710261,18.4887272 25.0752,17.7058 C26.0751217,16.9318679 26.9610857,16.0209927 27.707,15 C28.9384558,16.0093262 29.7224188,17.4633891 29.8889,19.0469 Z" id="Shape" fill="#F29C1F"/><path d="M58,18 C58,22.418278 54.418278,26 50,26 C45.581722,26 42,22.418278 42,18 C42,13.5817 50,1 50,1 C50,1 58,13.5817 58,18 Z" id="Shape" fill="#2FA8CC"/><path d="M57.36,16.64 C57.36,20.7048158 54.0648158,24 50,24 C45.9351842,24 42.64,20.7048158 42.64,16.64 C42.64,12.5752 50,1 50,1 C50,1 57.36,12.5752 57.36,16.64 Z" id="Shape" fill="#67B9CC"/><path d="M15.34,9.82 L4.73,22.87 C4.57914396,23.0585219 4.3147195,23.1115414 4.10284593,22.99575 C3.89097235,22.8799586 3.79279846,22.6287749 3.87,22.4 L6.78,13.66 C6.83287786,13.5079673 6.80881918,13.3397379 6.71544771,13.2086206 C6.62207625,13.0775032 6.47096563,12.9997502 6.31,13 L0.68,13 C0.520569373,13.0000993 0.370570539,12.924461 0.275861868,12.7962097 C0.181153197,12.6679584 0.152996508,12.5023444 0.2,12.35 L3.89,0.35 C3.9569891,0.141455503 4.1509604,1.81007043e-05 4.37,1.77635684e-15 L14.15,1.77635684e-15 C14.3263349,0.000700197107 14.4893725,0.0938688008 14.5794937,0.245436195 C14.6696148,0.39700359 14.6736031,0.584742073 14.59,0.74 L10.41,8.26 C10.3263969,8.41525793 10.3303852,8.60299641 10.4205063,8.7545638 C10.5106275,8.9061312 10.6736651,8.9992998 10.85,9 L14.95,9 C15.1430553,9.00203098 15.3180797,9.1138917 15.4010027,9.28824264 C15.4839257,9.46259358 15.4602519,9.66895707 15.34,9.82 Z" id="Shape" fill="#F0C419"/><rect id="Rectangle-path" fill="#9BC8C2" x="2" y="32" width="12" height="12" rx="1"/><rect id="Rectangle-path" fill="#9BC8C2" x="23" y="32" width="12" height="12" rx="1"/><rect id="Rectangle-path" fill="#9BC8C2" x="44" y="32" width="12" height="12" rx="1"/><path d="M6,41 C5.5956041,40.9999137 5.23106595,40.7562725 5.07632202,40.3826546 C4.92157809,40.0090366 5.00709208,39.5789943 5.293,39.293 L9.293,35.293 C9.68537889,34.9140278 10.3090848,34.9194476 10.6948186,35.3051814 C11.0805524,35.6909152 11.0859722,36.3146211 10.707,36.707 L6.707,40.707 C6.51971353,40.8948577 6.26526713,41.0003072 6,41 Z" id="Shape" fill="#527F72"/><path d="M10,41 C9.73473287,41.0003072 9.48028647,40.8948577 9.293,40.707 L5.293,36.707 C4.91402779,36.3146211 4.91944763,35.6909152 5.30518142,35.3051814 C5.69091522,34.9194476 6.31462111,34.9140278 6.707,35.293 L10.707,39.293 C10.9929079,39.5789943 11.0784219,40.0090366 10.923678,40.3826546 C10.7689341,40.7562725 10.4043959,40.9999137 10,41 Z" id="Shape" fill="#527F72"/><path d="M27,41 C26.5956041,40.9999137 26.2310659,40.7562725 26.076322,40.3826546 C25.9215781,40.0090366 26.0070921,39.5789943 26.293,39.293 L30.293,35.293 C30.6853789,34.9140278 31.3090848,34.9194476 31.6948186,35.3051814 C32.0805524,35.6909152 32.0859722,36.3146211 31.707,36.707 L27.707,40.707 C27.5197135,40.8948577 27.2652671,41.0003072 27,41 Z" id="Shape" fill="#527F72"/><path d="M31,41 C30.7347329,41.0003072 30.4802865,40.8948577 30.293,40.707 L26.293,36.707 C25.9140278,36.3146211 25.9194476,35.6909152 26.3051814,35.3051814 C26.6909152,34.9194476 27.3146211,34.9140278 27.707,35.293 L31.707,39.293 C31.9929079,39.5789943 32.0784219,40.0090366 31.923678,40.3826546 C31.7689341,40.7562725 31.4043959,40.9999137 31,41 Z" id="Shape" fill="#527F72"/><path d="M48,41 C47.5956041,40.9999137 47.2310659,40.7562725 47.076322,40.3826546 C46.9215781,40.0090366 47.0070921,39.5789943 47.293,39.293 L51.293,35.293 C51.6853789,34.9140278 52.3090848,34.9194476 52.6948186,35.3051814 C53.0805524,35.6909152 53.0859722,36.3146211 52.707,36.707 L48.707,40.707 C48.5197135,40.8948577 48.2652671,41.0003072 48,41 Z" id="Shape" fill="#527F72"/><path d="M52,41 C51.7347329,41.0003072 51.4802865,40.8948577 51.293,40.707 L47.293,36.707 C46.9140278,36.3146211 46.9194476,35.6909152 47.3051814,35.3051814 C47.6909152,34.9194476 48.3146211,34.9140278 48.707,35.293 L52.707,39.293 C52.9929079,39.5789943 53.0784219,40.0090366 52.923678,40.3826546 C52.7689341,40.7562725 52.4043959,40.9999137 52,41 Z" id="Shape" fill="#527F72"/><circle id="Oval" fill="#9FC9D3" cx="48" cy="19" r="3"/></g></g></svg>
