<svg viewBox="0 0 512 512" xmlns="http://www.w3.org/2000/svg"><g><path d="M381.375 149.679c-31.349 14.487-75.914 23.545-125.375 23.545s-94.026-9.058-125.375-23.545C96.416 168.79 49.728 194.138 0 206.57c39.642 9.911 77.349 29.155 108.346 44.983 11.746-32.912 42.119-57.578 79.287-59.31 17.632-.822 37.084 3.46 57.158 16.879a20.11 20.11 0 0 0 22.417 0c20.074-13.419 39.526-17.7 57.158-16.879 37.169 1.732 67.541 26.398 79.287 59.31C434.651 235.725 472.358 216.48 512 206.57c-49.728-12.432-96.416-37.78-130.625-56.891z" fill="#7b6c79"></path><path d="M122.483 218.791c-11.11-4.295-11.109-20.014.04-24.204 18.386-6.909 38.73-17.989 57.579-29.01-18.653-3.987-35.401-9.393-49.478-15.898C96.416 168.79 49.728 194.138 0 206.57c39.642 9.911 77.349 29.155 108.346 44.983a90.602 90.602 0 0 1 18.735-30.951 402.698 402.698 0 0 0-4.598-1.811z" fill="#665e68"></path><path d="M495.831 166.975c-27.68-28.243-85.137-85.346-126.301-115.913-47.08-34.961-86.132-12.014-103.635 2.738-5.706 4.81-14.085 4.81-19.791 0-17.503-14.752-56.555-37.699-103.635-2.738-41.164 30.567-98.621 87.67-126.301 115.913A56.562 56.562 0 0 0 0 206.57c57.08-14.27 110.16-41.486 144.952-62.029 24.145-14.257 53.868-15.411 78.985-2.946l.893.441a70.61 70.61 0 0 0 62.341 0l.893-.441c25.117-12.465 54.84-11.311 78.985 2.946C401.84 165.084 454.92 192.3 512 206.57a56.555 56.555 0 0 0-16.169-39.595z" fill="#ed5469"></path><path d="M73.119 166.975c27.68-28.243 85.137-85.346 126.301-115.913 7.506-5.573 14.806-9.67 21.849-12.568-20.188-8.357-47.746-10.491-78.799 12.568-41.164 30.567-98.621 87.67-126.301 115.913A56.559 56.559 0 0 0 0 206.57c20.989-5.247 41.432-12.248 60.628-20.02a56.537 56.537 0 0 1 12.491-19.575z" fill="#e63850"></path><path d="M103.578 287.873a89.933 89.933 0 0 1 4.768-39.411C77.349 232.635 39.642 216.48 0 206.57a56.56 56.56 0 0 0 16.169 39.595c21.685 22.126 61.646 61.964 97.731 92.88-5.077-17.258-8.644-34.655-10.322-51.172z" fill="#ed5469"></path><path d="M103.387 285.682a2210.549 2210.549 0 0 1-39.714-39.517 56.551 56.551 0 0 1-13.92-23.838C33.78 216.267 17.072 210.838 0 206.57a56.56 56.56 0 0 0 16.169 39.595c21.685 22.126 61.646 61.963 97.731 92.88-5.077-17.258-8.644-34.655-10.322-51.172a86.373 86.373 0 0 1-.191-2.191z" fill="#e63850"></path><path d="M403.654 248.462a89.933 89.933 0 0 1 4.768 39.411c-1.678 16.517-5.245 33.914-10.322 51.172 36.085-30.917 76.046-70.754 97.731-92.88A56.56 56.56 0 0 0 512 206.57c-39.642 9.91-77.349 26.065-108.346 41.892z" fill="#ed5469"></path><path d="M256 180.435c51.599 0 97.88-9.853 129.374-25.449a691.893 691.893 0 0 1-18.327-10.445c-24.145-14.257-53.868-15.411-78.985-2.946l-.893.441a70.61 70.61 0 0 1-62.341 0l-.893-.441c-25.117-12.465-54.84-11.311-78.985 2.946a691.498 691.498 0 0 1-18.327 10.445c31.497 15.596 77.778 25.449 129.377 25.449z" fill="#e8f9fc"></path><path d="M221.987 140.665c-24.695-11.462-53.511-10.014-77.035 3.875a691.498 691.498 0 0 1-18.327 10.445c12.659 6.269 27.711 11.607 44.532 15.753 18.99-10.796 37.036-22.17 50.83-30.073z" fill="#d9e7ec"></path><path d="M387.348 219.438c-16.142-18.723-38.501-29.661-62.958-30.801-19.909-.927-39.241 4.781-57.468 16.965a19.593 19.593 0 0 1-21.844 0c-18.227-12.185-37.56-17.893-57.468-16.965-24.457 1.14-46.816 12.078-62.958 30.801-16.228 18.823-24.096 43.785-21.586 68.487 6.862 67.536 43.579 143.58 83.591 173.122 18.241 13.468 39.739 19.374 60.062 18.133a152.883 152.883 0 0 1 18.563 0c12.245.747 36.334-.614 60.062-18.133 40.012-29.542 76.729-105.586 83.591-173.122 2.509-24.701-5.359-49.663-21.587-68.487z" fill="#f78b98"></path><path d="M247.666 461.047c-40.012-29.542-76.729-105.586-83.591-173.122-2.51-24.702 5.359-49.664 21.586-68.487 10.092-11.705 22.614-20.368 36.56-25.496-11.263-4.062-22.836-5.854-34.612-5.305-24.457 1.14-46.816 12.078-62.958 30.801-16.228 18.823-24.096 43.785-21.586 68.487 6.862 67.536 43.579 143.58 83.591 173.122 18.241 13.468 39.74 19.374 60.062 18.133a152.883 152.883 0 0 1 18.563 0c5.23.319 12.626.248 21.227-1.297-13.514-2.445-26.879-8.004-38.842-16.836z" fill="#f27182"></path><path d="M263.528 207.409a19.43 19.43 0 0 1-15.056-.001l-.713-.297v153.226c0 4.544 3.697 8.241 8.241 8.241s8.241-3.697 8.241-8.241V207.111z" fill="#f27182"></path></g></svg>