<svg viewBox="0 0 512 512.435" xmlns="http://www.w3.org/2000/svg"><g><path d="M511.512 253.605a265.547 265.547 0 0 1-15.184 100.196c-12.887 31.601-38.223 55.347-61.617 79.094a243.7 243.7 0 0 1-81.215 54.554c-30.012 12.625-60.996 24.805-95.426 24.805a257.363 257.363 0 0 1-99.133-15.887 263.254 263.254 0 0 1-83.066-57.91 263.947 263.947 0 0 1-53.762-85.629A264.186 264.186 0 0 1 .22 253.605c0-34.957 14.652-66.558 27.097-96.925A254.776 254.776 0 0 1 78.52 71.492a255.486 255.486 0 0 1 81.566-57.73C190.098 1.137 223.555.254 258.07.254a242.474 242.474 0 0 1 75.918 8.562 52.732 52.732 0 0 0-7.148 26.75 44.134 44.134 0 0 0 23.922 39.196 43.663 43.663 0 0 0-6.27 22.597c0 24.375 19.762 44.137 44.14 44.137.263 0 0 5.828 0 8.828 0 24.38 19.763 44.137 44.138 44.137a43.66 43.66 0 0 0 22.597-6.266 44.141 44.141 0 0 0 39.195 23.922 23.176 23.176 0 0 0 16.157-6.355 269.995 269.995 0 0 1 .793 47.843zm0 0" fill="#fab153"></path><g fill="#7f5f4a"><path d="M273.871 97.36c0 24.374-19.758 44.136-44.137 44.136-24.375 0-44.136-19.762-44.136-44.137 0-24.379 19.761-44.136 44.136-44.136 24.38 0 44.137 19.757 44.137 44.136zM432.77 273.91c0 24.38-19.762 44.137-44.137 44.137-24.38 0-44.14-19.758-44.14-44.137 0-24.375 19.76-44.137 44.14-44.137 24.375 0 44.137 19.762 44.137 44.137zM185.598 326.875c0 24.379-19.762 44.14-44.141 44.14-24.375 0-44.137-19.761-44.137-44.14 0-24.375 19.762-44.137 44.137-44.137 24.379 0 44.14 19.762 44.14 44.137zM141.457 220.945c0 14.625-11.855 26.485-26.48 26.485s-26.485-11.86-26.485-26.485 11.86-26.484 26.485-26.484 26.48 11.86 26.48 26.484zM265.047 229.773c0 14.625-11.86 26.48-26.485 26.48s-26.484-11.855-26.484-26.48 11.86-26.484 26.484-26.484 26.485 11.86 26.485 26.484zM335.664 423.98c0 14.625-11.855 26.48-26.48 26.48s-26.485-11.855-26.485-26.48 11.86-26.484 26.485-26.484 26.48 11.86 26.48 26.484zM335.664 176.809c0 9.75-7.902 17.652-17.652 17.652s-17.657-7.902-17.657-17.652c0-9.754 7.907-17.657 17.657-17.657s17.652 7.903 17.652 17.657zM141.457 123.84c0 9.754-7.902 17.656-17.652 17.656s-17.657-7.902-17.657-17.656c0-9.75 7.907-17.653 17.657-17.653s17.652 7.903 17.652 17.653zM220.906 423.98c0 9.75-7.902 17.657-17.652 17.657-9.754 0-17.656-7.907-17.656-17.657s7.902-17.656 17.656-17.656c9.75 0 17.652 7.906 17.652 17.656zM291.527 326.875c0 14.629-11.855 26.484-26.48 26.484-14.629 0-26.485-11.855-26.485-26.484 0-14.625 11.856-26.48 26.485-26.48 14.625 0 26.48 11.855 26.48 26.48zM406.285 388.668c0 14.629-11.855 26.484-26.48 26.484s-26.485-11.855-26.485-26.484c0-14.625 11.86-26.48 26.485-26.48s26.48 11.855 26.48 26.48zm0 0" fill="#7f5f4a"></path></g><path d="M511.512 253.605a265.547 265.547 0 0 1-15.184 100.196c-12.887 31.601-38.223 55.347-61.617 79.094a243.7 243.7 0 0 1-81.215 54.554 393.373 393.373 0 0 1-51.816 18.715c8.386-3.09 16.683-6.445 24.804-9.887a243.7 243.7 0 0 0 81.215-54.554c23.395-23.746 48.727-47.493 61.617-79.094A265.559 265.559 0 0 0 484.5 262.434a269.626 269.626 0 0 0-.797-47.844 23.16 23.16 0 0 1-16.152 6.355 44.141 44.141 0 0 1-39.196-23.922 43.67 43.67 0 0 1-22.597 6.266c-24.38 0-44.14-19.762-44.14-44.137 0-3 .265-8.828 0-8.828-24.376 0-44.138-19.761-44.138-44.136a43.626 43.626 0 0 1 6.27-22.598 44.137 44.137 0 0 1-23.926-39.195 52.774 52.774 0 0 1 7.153-26.75 242.474 242.474 0 0 0-75.918-8.563 333.671 333.671 0 0 0-73.446 5.738c.793-.351 1.676-.707 2.473-1.058C190.098 1.137 223.555.254 258.07.254a242.474 242.474 0 0 1 75.918 8.562 52.732 52.732 0 0 0-7.148 26.75 44.134 44.134 0 0 0 23.922 39.196 43.663 43.663 0 0 0-6.27 22.597c0 24.375 19.762 44.137 44.14 44.137.263 0 0 5.828 0 8.828 0 24.38 19.763 44.137 44.138 44.137a43.66 43.66 0 0 0 22.597-6.266 44.141 44.141 0 0 0 39.195 23.922 23.176 23.176 0 0 0 16.157-6.355 269.995 269.995 0 0 1 .793 47.843zm0 0" fill="#f2a149"></path><path d="M185.598 326.875a44.149 44.149 0 0 1-25.301 39.934 44.145 44.145 0 0 1-46.91-5.86 44.8 44.8 0 0 0 10.418 1.238c18.632.008 35.265-11.69 41.558-29.226 6.297-17.54.899-37.145-13.488-48.988 19.777 4.832 33.703 22.543 33.723 42.902zM432.77 273.91a44.139 44.139 0 0 1-72.211 34.074 44.8 44.8 0 0 0 10.418 1.239c18.632.004 35.265-11.692 41.558-29.23 6.297-17.536.899-37.141-13.488-48.985 19.781 4.832 33.703 22.543 33.723 42.902zM273.871 97.36a44.126 44.126 0 0 1-25.3 39.93 44.13 44.13 0 0 1-46.907-5.856 44.95 44.95 0 0 0 10.414 1.234c18.637.008 35.266-11.688 41.563-29.227 6.293-17.539.894-37.14-13.489-48.984 19.778 4.828 33.7 22.543 33.72 42.902zM265.047 229.773c0 14.625-11.86 26.48-26.485 26.48a26.168 26.168 0 0 1-22.597-12.71 26.083 26.083 0 0 0 13.77 3.887c14.624 0 26.484-11.86 26.484-26.485a26.083 26.083 0 0 0-3.887-13.77 26.175 26.175 0 0 1 12.715 22.598zM291.527 326.875c0 14.629-11.855 26.484-26.48 26.484a26.183 26.183 0 0 1-22.602-12.71 26.102 26.102 0 0 0 13.774 3.882c14.625 0 26.48-11.855 26.48-26.484a26.063 26.063 0 0 0-3.883-13.77 26.168 26.168 0 0 1 12.711 22.598zM335.664 423.98c0 14.625-11.855 26.48-26.48 26.48a26.168 26.168 0 0 1-22.598-12.71 26.083 26.083 0 0 0 13.77 3.887c14.624 0 26.484-11.86 26.484-26.485a26.083 26.083 0 0 0-3.887-13.77 26.163 26.163 0 0 1 12.711 22.598zM406.285 388.668c0 14.629-11.855 26.484-26.48 26.484a26.163 26.163 0 0 1-22.598-12.71 26.079 26.079 0 0 0 13.77 3.882c14.625 0 26.48-11.855 26.48-26.484a26.063 26.063 0 0 0-3.883-13.77 26.168 26.168 0 0 1 12.711 22.598zM141.457 220.945c0 14.625-11.855 26.485-26.48 26.485a26.18 26.18 0 0 1-22.598-12.715 26.083 26.083 0 0 0 13.77 3.887c14.624 0 26.484-11.86 26.484-26.485a26.083 26.083 0 0 0-3.887-13.77 26.168 26.168 0 0 1 12.711 22.598zM335.664 176.809c-.035 8.289-5.84 15.437-13.95 17.18a17.65 17.65 0 0 1-19.769-9.942 16.787 16.787 0 0 0 7.239 1.59c9.738-.032 17.625-7.918 17.656-17.657a16.663 16.663 0 0 0-1.59-7.238 17.645 17.645 0 0 1 10.414 16.067zM220.906 423.98a17.646 17.646 0 0 1-13.949 17.18 17.65 17.65 0 0 1-19.77-9.941 16.663 16.663 0 0 0 7.239 1.59c9.738-.032 17.625-7.918 17.652-17.657.02-2.5-.523-4.976-1.586-7.238a17.652 17.652 0 0 1 10.414 16.066zM141.457 123.84a17.654 17.654 0 0 1-33.719 7.242 16.727 16.727 0 0 0 7.239 1.586c9.738-.027 17.625-7.914 17.656-17.652a16.662 16.662 0 0 0-1.59-7.239 17.644 17.644 0 0 1 10.414 16.063zm0 0" fill="#704e3c"></path><path d="M379.805 282.738a8.829 8.829 0 0 1-8.828-8.828c0-9.75 7.902-17.656 17.656-17.656 4.875 0 8.824 3.953 8.824 8.828s-3.95 8.828-8.824 8.828a8.829 8.829 0 0 1-8.828 8.828zM132.633 335.703a8.829 8.829 0 0 1-8.828-8.828c0-9.75 7.902-17.652 17.652-17.652a8.823 8.823 0 0 1 8.828 8.824 8.824 8.824 0 0 1-8.828 8.828c0 4.875-3.95 8.828-8.824 8.828zM220.906 106.188a8.829 8.829 0 0 1-8.828-8.829c0-9.75 7.906-17.656 17.656-17.656a8.829 8.829 0 0 1 0 17.656 8.829 8.829 0 0 1-8.828 8.829zm0 0" fill="#a38671"></path></g></svg>