<svg viewBox="0 0 682.667 682.667" xmlns="http://www.w3.org/2000/svg"><g><defs><clippath clippathunits="userSpaceOnUse" id="a"><path d="M0 512h512V0H0Z" fill="#000000"></path></clippath></defs><g clip-path="url(#a)" transform="matrix(1.33333 0 0 -1.33333 0 682.667)"><path d="M0 0c0-141.385-114.615-256-256-256S-512-141.385-512 0s114.615 256 256 256S0 141.385 0 0" fill="#f74b4b" transform="translate(512 256)"></path><path d="M309.296 100.5H202.705v172.519h106.591z" fill="#e2e6e7"></path><path d="M0 0c-7 116.662-95 223.226-185 223.226S-363 116.662-370 0s141-216.662 185-216.662S7-116.662 0 0" fill="#3e4852" transform="translate(441 288.662)"></path><path d="M0 0c0-71.878-58.268-130.146-130.146-130.146-71.877 0-130.146 58.268-130.146 130.146 0 71.878 58.269 130.146 130.146 130.146C-58.268 130.146 0 71.878 0 0" fill="#2e3b43" transform="translate(386.146 321.148)"></path><path d="M0 0h-235.579c-36.535 0-68.271-22.262-81.676-54.48 46.925-58.26 118.835-95.549 199.465-95.549 80.631 0 152.541 37.289 199.466 95.549C68.271-22.262 36.535 0 0 0" fill="#3e4852" transform="translate(373.79 150.029)"></path><path d="M0 0c-3.126-52.102 24.67-100.871 60.304-138.903-33.589-2.604-62.216-24.041-74.769-54.211 39.187-48.653 95.806-82.661 160.37-92.56 5.826 32.608 28.59 53.561 44.103 64.366 5.751 4.006 5.058 12.663-1.253 15.714C128.588-176.511 34.382-93.627 40 0c6.48 107.992 82.368 207.317 165 221.486l-.002.001c-1.562.267-3.127.5-4.693.708l-.651.082a97.896 97.896 0 0 1-3.746.414c-.443.039-.886.084-1.33.121-1.232.103-2.466.181-3.7.245-.387.02-.774.048-1.161.064-1.571.065-3.144.105-4.717.105C95 223.226 7 116.662 0 0" fill="#2e3b43" transform="translate(71 288.662)"></path><path d="M0 0c0 77.351-62.704 140.057-140.054 140.061-77.623.003-141.183-64.527-140.052-142.142.412-28.309 9.228-54.582 24.058-76.443 2.322-3.422 6.156-5.512 10.291-5.512h34.856c6.805 0 12.321-5.517 12.321-12.321v-37.511c0-6.804 5.516-12.32 12.32-12.32h92.398c6.805 0 12.321 5.516 12.321 12.32v37.511c0 6.804 5.516 12.321 12.321 12.321h34.854c4.13 0 7.965 2.082 10.284 5.499C-8.884-56.138 0-29.108 0 0" fill="#fbfcf7" transform="translate(396.06 324.212)"></path><path d="M0 0c-14.831 21.862-23.646 48.134-24.059 76.443-1.057 72.572 54.444 133.698 125.114 141.334-4.948.529-9.972.808-15.062.808C8.37 218.589-55.19 154.058-54.059 76.443-53.646 48.134-44.831 21.862-30 0c2.321-3.422 6.156-5.512 10.291-5.512h30C6.156-5.512 2.321-3.422 0 0" fill="#e2e6e7" transform="translate(170.013 245.687)"></path><path d="M0 0c0-21.41-17.357-38.767-38.767-38.767-21.41 0-38.767 17.357-38.767 38.767 0 21.41 17.357 38.767 38.767 38.767C-17.357 38.767 0 21.41 0 0" fill="#3e4852" transform="translate(236.256 316.957)"></path><path d="M0 0c0-21.41-17.357-38.767-38.767-38.767-21.41 0-38.767 17.357-38.767 38.767 0 21.41 17.357 38.767 38.767 38.767C-17.357 38.767 0 21.41 0 0" fill="#3e4852" transform="translate(353.31 316.957)"></path><path d="M0 0a7.5 7.5 0 0 1-7.5-7.5v-54.652h15V-7.5A7.5 7.5 0 0 1 0 0" fill="#c1ccd0" transform="translate(223 240.175)"></path><path d="M0 0a7.5 7.5 0 0 1-7.5-7.5v-54.652h15V-7.5A7.5 7.5 0 0 1 0 0" fill="#c1ccd0" transform="translate(256 240.175)"></path><path d="M0 0a7.5 7.5 0 0 1-7.5-7.5v-54.652h15V-7.5A7.5 7.5 0 0 1 0 0" fill="#c1ccd0" transform="translate(289 240.175)"></path></g></g></svg>