<svg viewBox="0 0 512 512" xmlns="http://www.w3.org/2000/svg"><g><path d="M236.224 386.148c15.18 6.012 30.362 12.017 45.552 18.004l48.522-62.635c7.084-9.144 4.75-22.402-5.031-28.578a19.602 19.602 0 0 0-24.906 3.321z" fill="#ea806f"></path><path d="M277.992 390.394a30295.283 30295.283 0 0 0 44.162 21.185l52.836-59.041c7.714-8.62 6.324-22.01-2.994-28.862a19.6 19.6 0 0 0-25.078 1.549z" fill="#f89f8e"></path><path d="M310.1 405.854a29298.587 29298.587 0 0 0 43.124 23.225l55.536-56.509c8.108-8.25 7.346-21.69-1.643-28.97-7.364-5.965-17.941-5.806-25.123.376z" fill="#fdb0a0"></path><path d="M460.881 372.532c-5.336-8.068-15.917-10.827-24.759-6.906l-66.123 29.319c-1.891-12.564-12.731-22.196-25.822-22.196h-56.333c-11.091 0-22.11-1.795-32.627-5.316l-47.535-15.913a42.566 42.566 0 0 0-25.407-.506l-30.868 8.984a42.563 42.563 0 0 0-25.871 21.236 86.945 86.945 0 0 1-29.884 32.875L52.6 441.985c-5.54 3.588-6.363 11.37-1.696 16.037l50.94 50.94a10.37 10.37 0 0 0 13.63.906l62.112-47.481 133.705 8.988a40.403 40.403 0 0 0 22.104-4.869l120.544-65.973c10.074-5.513 13.258-18.452 6.942-28.001z" fill="#ffcec0"></path><g fill="#fdb0a0"><path d="M453.939 400.528 333.396 466.5a40.438 40.438 0 0 1-22.099 4.876l-133.713-8.992-62.109 47.483a10.37 10.37 0 0 1-13.631-.906l-14.525-14.525 72.375-55.322a7.208 7.208 0 0 1 4.86-1.465l131 8.806a40.447 40.447 0 0 0 22.107-4.868l120.543-65.973a19.507 19.507 0 0 0 9.387-11.635 19.623 19.623 0 0 1 13.154 8.348c6.495 9.566 3.34 22.658-6.806 28.201z" fill="#fdb0a0"></path><path d="M385.968 398.866c0 18.686-15.202 33.889-33.889 33.889h-67.871a139.26 139.26 0 0 0-32.551 3.858c-4.179 1.006-8.379-1.566-9.385-5.745s1.576-8.379 5.745-9.374a154.736 154.736 0 0 1 36.191-4.293h67.871c10.111 0 18.334-8.223 18.334-18.334a18.24 18.24 0 0 0-.415-3.868l14.383-6.388a33.818 33.818 0 0 1 1.587 10.255z" fill="#fdb0a0"></path></g><path d="M417.735 134.84h27.762c8.782 0 13.595-10.363 7.812-16.971-13.735-15.694-31.164-20.13-35.574-21.036z" fill="#f8c52d"></path><path d="M341.403 232.225V10.303c0-7.713-8.174-12.686-15.018-9.13-27.86 14.476-84.742 64.435-84.742 231.052z" fill="#8dcafc"></path><path d="M341.399 10.302v221.923h-27.824V24.697c0-4.689-3.023-8.37-6.93-9.727 7.3-6.498 14.107-10.868 19.742-13.799 6.837-3.557 15.012 1.419 15.012 9.131z" fill="#64b9fc"></path><path d="M306.382 85.096a7.77 7.77 0 0 1-6.662-3.753c-12.793-21.15-11.564-39.677-8.28-51.496 3.518-12.662 9.947-20.314 10.669-21.145A7.778 7.778 0 0 1 313.88 18.87c-.858 1.015-19.459 23.658-.85 54.422a7.777 7.777 0 0 1-6.648 11.804zM291.522 118.454a7.746 7.746 0 0 1-5.379-2.162c-29.109-27.89-16.887-64.271-16.353-65.806a7.776 7.776 0 0 1 9.902-4.787 7.777 7.777 0 0 1 4.797 9.876c-.413 1.222-9.333 28.65 12.414 49.487a7.776 7.776 0 0 1-5.381 13.392z" fill="#31a7fb"></path><path d="M424.908 197.278v-83.603c0-27.315-22.143-49.458-49.458-49.458-27.315 0-49.458 22.143-49.458 49.458v28c0 34.705-24.952 64.386-59.141 70.349L196.81 224.24a144.729 144.729 0 0 0-17.546 4.202L83.35 257.844c-7.41 2.271-9.738 11.612-4.263 17.096l54.685 54.767c3.979 3.985 10.422 4.028 14.454.097l47.664-46.471s57.543 81.427 144.084 53.564c104.301-33.581 90.468-113.733 85.945-131.611a32.675 32.675 0 0 1-1.011-8.008z" fill="#b5dbfd"></path><g fill="#8dcafc"><path d="M339.969 336.899c-18.426 5.933-35.546 6.91-51.072 4.771 6.735-.915 13.686-2.468 20.842-4.771 104.293-33.582 90.464-113.732 85.939-131.613a32.888 32.888 0 0 1-1.008-8.01V113.68c0-22.045-14.426-40.718-34.343-47.113a49.372 49.372 0 0 1 15.125-2.355c27.31 0 49.458 22.148 49.458 49.468v83.595c0 2.704.35 5.388 1.008 8.01 4.525 17.881 18.355 98.032-85.949 131.614zM118.675 322.362a7.754 7.754 0 0 1-5.739-2.527 7.777 7.777 0 0 1 .487-10.988l40.994-37.516a7.778 7.778 0 0 1 10.501 11.475l-40.994 37.516a7.751 7.751 0 0 1-5.249 2.04zM94.92 298.565a7.778 7.778 0 0 1-4.34-14.237l25.816-17.322a7.778 7.778 0 0 1 8.667 12.917l-25.816 17.322a7.742 7.742 0 0 1-4.327 1.32z" fill="#8dcafc"></path></g><path d="M306.671 163.298 184.792 41.419c-5.449-5.449-14.745-3.201-17.069 4.146-9.467 29.924-14.389 105.478 103.451 223.318l35.497-35.497c19.354-19.354 19.354-50.734 0-70.088z" fill="#b5dbfd"></path><g fill="#64b9fc"><path d="M207.416 121.354a7.824 7.824 0 0 1-1.865-.227c-24.001-5.909-36.233-19.879-42.268-30.558-6.465-11.44-7.33-21.397-7.408-22.495a7.777 7.777 0 0 1 7.211-8.305c4.265-.296 7.979 2.906 8.302 7.171.11 1.317 2.965 30.487 37.881 39.083a7.778 7.778 0 0 1-1.853 15.331zM222.827 167.031c-39.242 0-55.909-33.539-56.608-34.984a7.78 7.78 0 0 1 3.617-10.388 7.78 7.78 0 0 1 10.376 3.593c.575 1.162 13.35 26.223 42.659 26.223.369 0 .737-.004 1.11-.012 4.311-.11 7.85 3.315 7.942 7.609a7.776 7.776 0 0 1-7.609 7.942c-.496.012-.997.017-1.487.017z" fill="#64b9fc"></path></g><path d="M388.556 122.42a7.777 7.777 0 0 1-7.777-7.777v-3.821a7.777 7.777 0 0 1 15.554 0v3.821a7.776 7.776 0 0 1-7.777 7.777z" fill="#3f5959"></path><path d="M195.88 291.105a7.744 7.744 0 0 1-6.102-2.961c-1.163-1.478-11.254-14.784-7.55-26.899 1.308-4.278 4.812-10.001 14.08-12.976a7.777 7.777 0 1 1 4.754 14.81c-1.58.507-3.548 1.388-3.956 2.705-.916 2.963 2.322 9.425 4.91 12.758 2.628 3.385 2.031 8.269-1.344 10.908a7.757 7.757 0 0 1-4.792 1.655zM293.514 257.469l.11.11a7.7 7.7 0 0 0 10.874-.018l13.174-13.174c23.156-23.156 25.188-59.554 6.097-85.043a70.65 70.65 0 0 1-7.28 17.919c8.638 18.375 5.361 40.951-9.82 56.122l-13.175 13.175c-3.014 3.013-3.003 7.902.02 10.909z" fill="#8dcafc"></path></g></svg>