<svg viewBox="0 0 512 512" xmlns="http://www.w3.org/2000/svg"><g><path d="M256 22C120.69 22 11 131.69 11 267c0 43.586 11.396 84.506 31.35 119.965l2.215 1H97V286h107.668a56.474 56.474 0 0 1-6.168-25.701v-31.161c0-7.244 5.894-13.138 13.138-13.138h51.307c5.321 0 10.312-2.843 13.022-7.42a13.194 13.194 0 0 1 11.303-6.44h13.093c7.244 0 13.138 5.894 13.138 13.138V219H406v168.965h61.595l2.055-1C489.604 351.506 501 310.586 501 267c0-135.31-109.69-245-245-245z" fill="#fef0ae"></path><path d="M407 386.965V218h-93.5v42.299c0 31.342-25.499 56.841-56.841 56.841h-1.318c-22.495 0-41.978-13.136-51.186-32.14H96v101.965H42.35c28.48 50.612 74.42 90.089 129.65 110.252l1-.7v-27.604c4.898 2.049 10.106 3.086 15.503 3.086h134.995c5.396 0 10.604-1.037 15.502-3.086v27.604l1 .7c55.23-20.163 101.17-59.641 129.65-110.252z" fill="#6cf5c2"></path><path d="M323.498 471H188.503c-5.836 0-11.43-1.266-16.503-3.62v29.837C198.2 506.78 226.49 512 256 512s57.8-5.22 84-14.782v-29.837c-5.072 2.353-10.666 3.619-16.502 3.619z" fill="#978ecb"></path><path d="M204 471h-15.497c-5.836 0-11.43-1.266-16.503-3.62v29.837a243.273 243.273 0 0 0 32 9.238z" fill="#8379c1"></path><path d="m161.698 386.336.128-.412A25.986 25.986 0 0 0 163 378.2v-40.328L77.837 190.367c1.017-3.633 1.205-7.496.441-11.279l6.601-24.636a6.264 6.264 0 1 0-12.102-3.242l-2.897 10.812-20.321-35.197c-1.49-2.58-4.787-3.464-7.368-1.974s-3.465 4.788-1.975 7.368l14.711 25.48-3.822 2.206-19.614-33.973a5.393 5.393 0 1 0-9.342 5.394l19.614 33.973-3.823 2.208-19.614-33.973a5.394 5.394 0 1 0-9.342 5.394l19.614 33.973-3.821 2.206-14.711-25.479a5.394 5.394 0 0 0-9.343 5.394l25.96 44.964c3.097 5.365 7.943 9.082 13.4 10.869l95.085 164.691z" fill="#ffbd86"></path><path d="M157.387 384.583 57.084 210.852c-5.457-1.787-10.303-5.504-13.4-10.869l-15.499-26.845-3.408 1.967-14.711-25.479a5.394 5.394 0 0 0-9.343 5.394l25.96 44.964c3.097 5.365 7.943 9.082 13.4 10.869l95.085 164.691z" fill="#f6a96c"></path><path d="M509.303 147.652a5.394 5.394 0 0 0-7.369 1.974l-14.711 25.479-3.821-2.206 19.614-33.973a5.395 5.395 0 0 0-1.974-7.369 5.392 5.392 0 0 0-7.368 1.975l-19.614 33.973-3.823-2.208 19.614-33.973c1.49-2.58.606-5.878-1.974-7.368s-5.879-.606-7.368 1.974l-19.614 33.973-3.822-2.206 14.711-25.48a5.394 5.394 0 0 0-9.343-5.394L442.12 162.02l-2.897-10.812a6.266 6.266 0 0 0-12.102 3.242l6.601 24.636c-.764 3.782-.576 7.645.441 11.279L349 337.873V372h29.878l93.039-161.148c5.457-1.787 10.303-5.504 13.4-10.869l25.96-44.964a5.395 5.395 0 0 0-1.974-7.367z" fill="#ffbd86"></path><path d="m448.245 185.853-6.126-23.832-2.829-10.558c-.888-3.314-4.216-5.519-7.554-4.731a6.264 6.264 0 0 0-4.616 7.719l6.601 24.636c-.764 3.782-.576 7.645.441 11.279L349 337.873v29.341l97.725-170.156a14.997 14.997 0 0 0 1.52-11.205z" fill="#f6a96c"></path><path d="M336 333V201.426c0-31.014-25.142-56.155-56.155-56.155a51.39 51.39 0 0 0-29.235-9.078h-7.146c-37.259 0-67.463 30.204-67.463 67.463V333z" fill="#d88a55"></path><path d="M212 333V203.656c0-31.964 22.238-58.717 52.081-65.68a51.596 51.596 0 0 0-13.472-1.783h-7.146c-37.259 0-67.463 30.204-67.463 67.463V333z" fill="#c57a44"></path><path d="m361.809 419.958-10.681-34.33a25.004 25.004 0 0 1-1.129-7.427V337a5 5 0 0 0-5-5H167a5 5 0 0 0-5 5v41.201c0 2.518-.38 5.022-1.129 7.427l-10.681 34.33C142.156 445.784 161.455 472 188.503 472h134.995c27.047 0 46.346-26.216 38.311-52.042z" fill="#8379c1"></path><path d="m175.543 419.958 10.68-34.33a25.004 25.004 0 0 0 1.129-7.427V337a5 5 0 0 1 5-5H167a5 5 0 0 0-5 5v41.201c0 2.518-.38 5.022-1.129 7.427l-10.68 34.33C142.156 445.784 161.455 472 188.503 472h25.352c-27.048 0-46.347-26.216-38.312-52.042z" fill="#6e61b6"></path><path d="M278.5 322v-9.23a56.523 56.523 0 0 1-21.841 4.37h-1.318a56.523 56.523 0 0 1-21.841-4.37V322c0 5.523-4.477 10-10 10h-17v26.305c0 13.639 11.056 24.695 24.695 24.695h49.609c13.639 0 24.695-11.056 24.695-24.695V332h-17c-5.522 0-9.999-4.477-9.999-10z" fill="#ffbd86"></path><g fill="#f6a96c"><path d="M221 358.305V332h-14.5v26.305c0 13.639 11.056 24.695 24.695 24.695h14.5C232.056 383 221 371.944 221 358.305zM233.5 312.77V322c0 5.523-4.477 10-10 10H240c5.523 0 10-4.477 10-10v-5.119a56.413 56.413 0 0 1-16.5-4.111z" fill="#f6a96c"></path></g><path d="M321.941 231H313.5v29.299c0 5.127-.694 10.094-1.973 14.822h10.414c10.47 0 18.958-8.488 18.958-18.958v-6.205c0-10.47-8.487-18.958-18.958-18.958z" fill="#ffbd86"></path><path d="M198.5 260.299V231h-8.441c-10.47 0-18.958 8.488-18.958 18.958v6.205c0 10.47 8.488 18.958 18.958 18.958h10.414a56.681 56.681 0 0 1-1.973-14.822z" fill="#f6a96c"></path><path d="M275.107 208.07a14.137 14.137 0 0 1-12.162 6.93h-51.307c-7.808 0-14.138 6.33-14.138 14.138v31.161c0 31.945 25.896 57.841 57.841 57.841h1.319c31.945 0 57.841-25.896 57.841-57.841v-45.022c0-7.808-6.33-14.138-14.138-14.138H287.27a14.141 14.141 0 0 0-12.163 6.931z" fill="#fed2a4"></path><path d="M226 260.299v-31.161c0-7.808 6.33-14.138 14.138-14.138h-28.5c-7.808 0-14.138 6.33-14.138 14.138v31.161c0 31.945 25.896 57.841 57.841 57.841h1.319c4.683 0 9.23-.571 13.591-1.621-25.385-6.116-44.251-28.958-44.251-56.22z" fill="#ffbd86"></path><path d="M224.815 246.859a7.499 7.499 0 0 1-7.5-7.5V230c0-4.143 3.357-7.5 7.5-7.5s7.5 3.357 7.5 7.5v9.359c0 4.143-3.357 7.5-7.5 7.5zM287.184 246.859a7.499 7.499 0 0 1-7.5-7.5V230c0-4.143 3.357-7.5 7.5-7.5s7.5 3.357 7.5 7.5v9.359a7.5 7.5 0 0 1-7.5 7.5zM255.993 266.86a7.46 7.46 0 0 1-3.968-1.141l-10.847-6.779a7.5 7.5 0 0 1-2.413-10.291l10.847-17.626a7.5 7.5 0 0 1 12.775 7.861l-6.943 11.283 4.53 2.831a7.5 7.5 0 0 1-3.981 13.862z" fill="#ea9b58"></path><path d="M256 306c-14.202 0-25.714-11.513-25.714-25.714a6.286 6.286 0 0 1 6.286-6.286h38.857a6.286 6.286 0 0 1 6.286 6.286C281.714 294.487 270.202 306 256 306z" fill="#fea3c6"></path><path d="M247 280.286a6.286 6.286 0 0 1 6.286-6.286h-16.714a6.286 6.286 0 0 0-6.286 6.286C230.286 294.487 241.798 306 256 306a25.68 25.68 0 0 0 8.357-1.396C254.26 301.134 247 291.561 247 280.286z" fill="#fe93bb"></path><path d="m384.521 182.839-97.2-56.118a3.56 3.56 0 0 1-1.303-4.863l23.138-40.077a3.56 3.56 0 0 1 4.863-1.303l97.2 56.119a3.56 3.56 0 0 1 1.303 4.863l-23.138 40.077a3.56 3.56 0 0 1-4.863 1.302z" fill="#05e39c"></path><path d="m306.75 133.816 23.236-40.246a3.568 3.568 0 0 1 3.736-1.717l-19.703-11.375a3.56 3.56 0 0 0-4.863 1.303l-23.138 40.076a3.56 3.56 0 0 0 1.303 4.863l20.693 11.948a3.572 3.572 0 0 1-1.264-4.852z" fill="#0ed290"></path><path d="m299.896 119.181 13.882-24.044a2.136 2.136 0 0 1 2.918-.782l81.167 46.862a2.136 2.136 0 0 1 .782 2.918l-13.882 24.044a2.136 2.136 0 0 1-2.918.782l-81.167-46.862a2.136 2.136 0 0 1-.782-2.918z" fill="#00f2a6"></path><circle cx="349.27" cy="131.658" fill="#6cf5c2" r="13.882"></circle><path d="m215.231 108.947-95.459 59.032a3.56 3.56 0 0 1-4.9-1.155l-24.34-39.358a3.56 3.56 0 0 1 1.155-4.9l95.459-59.032a3.56 3.56 0 0 1 4.9 1.155l24.34 39.358a3.558 3.558 0 0 1-1.155 4.9z" fill="#05e39c"></path><path d="m135.084 154.708-24.547-39.694a3.584 3.584 0 0 1 .532-4.434l-19.381 11.985a3.559 3.559 0 0 0-1.155 4.9l24.34 39.359a3.56 3.56 0 0 0 4.9 1.155l18.762-11.602a3.582 3.582 0 0 1-3.451-1.669z" fill="#0ed290"></path><path d="m119.088 153.334-14.603-23.613a2.136 2.136 0 0 1 .693-2.94l79.713-49.295a2.136 2.136 0 0 1 2.94.693l14.603 23.613c.62 1.003.31 2.32-.693 2.94l-79.713 49.295c-1.003.62-2.32.31-2.94-.693z" fill="#00f2a6"></path><circle cx="153.46" cy="115.756" fill="#6cf5c2" r="13.882"></circle><path d="M344.038 59H220.023a3.934 3.934 0 0 1-3.934-3.934V3.934A3.934 3.934 0 0 1 220.023 0h124.015a3.934 3.934 0 0 1 3.934 3.934v51.132A3.935 3.935 0 0 1 344.038 59z" fill="#05e39c"></path><path d="M241.118 55.066V3.934A3.934 3.934 0 0 1 245.052 0h-25.029a3.934 3.934 0 0 0-3.934 3.934v51.133a3.934 3.934 0 0 0 3.934 3.934h25.029a3.935 3.935 0 0 1-3.934-3.935z" fill="#0ed290"></path><path d="M227.89 44.839V14.161a2.36 2.36 0 0 1 2.36-2.36h103.56a2.36 2.36 0 0 1 2.36 2.36v30.677a2.36 2.36 0 0 1-2.36 2.36H230.251a2.36 2.36 0 0 1-2.361-2.359z" fill="#00f2a6"></path><circle cx="282.03" cy="29.5" fill="#6cf5c2" r="15.339"></circle><path d="m476.387 302.606-108.413 29.049a3.56 3.56 0 0 1-4.36-2.517l-11.977-44.7a3.56 3.56 0 0 1 2.517-4.36l108.413-29.049a3.56 3.56 0 0 1 4.36 2.517l11.977 44.7a3.56 3.56 0 0 1-2.517 4.36z" fill="#05e39c"></path><path d="m387.839 323.171-12.211-45.573c-.354-1.321.081-2.656 1.001-3.543l-22.475 6.022a3.56 3.56 0 0 0-2.517 4.36l11.977 44.699a3.56 3.56 0 0 0 4.36 2.517l22.278-5.969a3.616 3.616 0 0 1-2.413-2.513z" fill="#0ed290"></path><path d="m371.535 317.432-7.186-26.818a2.136 2.136 0 0 1 1.51-2.616l90.53-24.258a2.136 2.136 0 0 1 2.616 1.51l7.186 26.818a2.136 2.136 0 0 1-1.51 2.616l-90.53 24.258a2.134 2.134 0 0 1-2.616-1.51z" fill="#00f2a6"></path><circle cx="415.27" cy="291.342" fill="#6cf5c2" r="13.882"></circle><path d="M202.095 459.338 98.132 417.043a3.56 3.56 0 0 1-1.956-4.639l17.438-42.865a3.56 3.56 0 0 1 4.639-1.956l103.963 42.295a3.56 3.56 0 0 1 1.956 4.639l-17.438 42.865a3.56 3.56 0 0 1-4.639 1.956z" fill="#05e39c"></path><path d="m119.09 422.274 17.779-43.702a3.61 3.61 0 0 1 2.937-2.22l-21.553-8.768a3.56 3.56 0 0 0-4.639 1.956l-17.438 42.865a3.56 3.56 0 0 0 1.956 4.639l21.364 8.692a3.624 3.624 0 0 1-.406-3.462z" fill="#0ed290"></path><path d="m109.557 407.855 10.462-25.717a2.137 2.137 0 0 1 2.784-1.174l86.815 35.318a2.137 2.137 0 0 1 1.174 2.784l-10.462 25.717a2.137 2.137 0 0 1-2.784 1.174l-86.815-35.318a2.137 2.137 0 0 1-1.174-2.784z" fill="#00f2a6"></path><circle cx="160.174" cy="413.46" fill="#6cf5c2" r="13.882"></circle><path d="M145.002 274.825 35.761 249.068a3.56 3.56 0 0 1-2.648-4.282l10.62-45.041a3.56 3.56 0 0 1 4.282-2.648l109.242 25.757a3.56 3.56 0 0 1 2.648 4.282l-10.62 45.041a3.562 3.562 0 0 1-4.283 2.648z" fill="#05e39c"></path><path d="m55.59 250.995 10.872-46.111a3.642 3.642 0 0 1 2.913-2.751l-21.361-5.037a3.56 3.56 0 0 0-4.282 2.648l-10.62 45.041a3.56 3.56 0 0 0 2.648 4.282l20.369 4.803a3.624 3.624 0 0 1-.539-2.875z" fill="#0ed290"></path><path d="m45.632 238.227 6.371-27.023a2.136 2.136 0 0 1 2.569-1.589l91.222 21.509a2.136 2.136 0 0 1 1.589 2.569l-6.371 27.023a2.136 2.136 0 0 1-2.569 1.589l-91.222-21.509a2.136 2.136 0 0 1-1.589-2.569z" fill="#00f2a6"></path><circle cx="96.508" cy="235.96" fill="#6cf5c2" r="13.882"></circle><path d="M408.066 430H284.051a3.934 3.934 0 0 1-3.934-3.934v-51.133a3.934 3.934 0 0 1 3.934-3.934h124.015a3.934 3.934 0 0 1 3.934 3.934v51.133a3.934 3.934 0 0 1-3.934 3.934z" fill="#05e39c"></path><path d="M309 426.066v-51.133a3.934 3.934 0 0 1 3.934-3.934h-28.882a3.934 3.934 0 0 0-3.934 3.934v51.133a3.934 3.934 0 0 0 3.934 3.934h28.882a3.934 3.934 0 0 1-3.934-3.934z" fill="#0ed290"></path><path d="M291.919 415.839v-30.677a2.36 2.36 0 0 1 2.36-2.36h103.559a2.36 2.36 0 0 1 2.36 2.36v30.677a2.36 2.36 0 0 1-2.36 2.36H294.279a2.36 2.36 0 0 1-2.36-2.36z" fill="#00f2a6"></path><circle cx="346.059" cy="400.5" fill="#6cf5c2" r="15.339"></circle><circle cx="402.048" cy="68.952" fill="#fedf30" r="34.952"></circle><path d="M402.048 94.297c-13.997 0-25.344-11.347-25.344-25.344s11.347-25.344 25.344-25.344c.348 0 .692.012 1.037.026a34.974 34.974 0 0 1 11.511-7.304 34.843 34.843 0 0 0-12.548-2.33c-19.303 0-34.952 15.649-34.952 34.952s15.649 34.952 34.952 34.952c4.424 0 8.652-.83 12.548-2.33a34.953 34.953 0 0 1-11.511-7.304c-.345.013-.689.026-1.037.026z" fill="#fed402"></path><circle cx="402.048" cy="68.952" fill="#fee45a" r="25.344"></circle><path d="M393.407 68.952c0-11.07 7.1-20.477 16.993-23.929a25.296 25.296 0 0 0-8.352-1.415c-13.997 0-25.344 11.347-25.344 25.344s11.347 25.344 25.344 25.344c2.927 0 5.736-.502 8.352-1.415-9.893-3.452-16.993-12.859-16.993-23.929z" fill="#fedf30"></path><path d="M402.048 97.297c-15.629 0-28.344-12.716-28.344-28.345s12.715-28.345 28.344-28.345 28.344 12.716 28.344 28.345-12.715 28.345-28.344 28.345zm0-50.69c-12.321 0-22.344 10.023-22.344 22.345s10.023 22.345 22.344 22.345 22.344-10.023 22.344-22.345-10.023-22.345-22.344-22.345z" fill="#fac600"></path><path d="M405.141 65.952h-.094v-5.825h.19c1.338 0 2.469.907 2.808 2.139.122.443.488.773.948.773h4.086c.6 0 1.075-.528 1-1.123-.554-4.386-4.308-7.789-8.842-7.789h-.19v-2.728a1 1 0 0 0-1-1h-4a1 1 0 0 0-1 1v2.728h-.096c-4.091 0-7.775 2.722-8.738 6.698-1.422 5.869 3.008 11.127 8.644 11.127h.19v5.825h-.19a2.917 2.917 0 0 1-2.808-2.139c-.122-.443-.488-.773-.948-.773h-4.086c-.6 0-1.075.528-1 1.123.554 4.386 4.308 7.789 8.842 7.789h.19v2.728a1 1 0 0 0 1 1h4a1 1 0 0 0 1-1v-2.728h.19c5.637 0 10.068-5.26 8.644-11.128-.964-3.976-4.649-6.697-8.74-6.697zm-6.283 0a2.917 2.917 0 0 1-2.913-2.913 2.916 2.916 0 0 1 2.913-2.912h.19v5.825zm6.38 11.825h-.19v-5.825h.19a2.917 2.917 0 0 1 2.913 2.913 2.916 2.916 0 0 1-2.913 2.912z" fill="#fac600"></path><circle cx="391.952" cy="207.048" fill="#fedf30" r="34.952"></circle><path d="M391.952 232.392c-13.997 0-25.344-11.347-25.344-25.344s11.347-25.344 25.344-25.344c.348 0 .692.012 1.037.026a34.974 34.974 0 0 1 11.511-7.304 34.843 34.843 0 0 0-12.548-2.33c-19.303 0-34.952 15.649-34.952 34.952S372.649 242 391.952 242c4.424 0 8.652-.83 12.548-2.33a34.953 34.953 0 0 1-11.511-7.304c-.345.014-.689.026-1.037.026z" fill="#fed402"></path><circle cx="391.952" cy="207.048" fill="#fee45a" r="25.344"></circle><path d="M383.311 207.048c0-11.07 7.1-20.477 16.993-23.929a25.296 25.296 0 0 0-8.352-1.415c-13.997 0-25.344 11.347-25.344 25.344s11.347 25.344 25.344 25.344c2.927 0 5.736-.502 8.352-1.415-9.893-3.453-16.993-12.859-16.993-23.929z" fill="#fedf30"></path><path d="M391.952 235.393c-15.629 0-28.344-12.716-28.344-28.345s12.715-28.345 28.344-28.345 28.344 12.716 28.344 28.345-12.715 28.345-28.344 28.345zm0-50.69c-12.321 0-22.344 10.023-22.344 22.345s10.023 22.345 22.344 22.345 22.344-10.023 22.344-22.345-10.023-22.345-22.344-22.345z" fill="#fac600"></path><path d="M395.046 204.048h-.094v-5.825h.19c1.338 0 2.469.907 2.808 2.139.122.443.488.773.948.773h4.086c.6 0 1.075-.528 1-1.123-.554-4.386-4.308-7.789-8.842-7.789h-.19v-2.728a1 1 0 0 0-1-1h-4a1 1 0 0 0-1 1v2.728h-.096c-4.091 0-7.775 2.722-8.738 6.698-1.422 5.869 3.008 11.127 8.644 11.127h.19v5.825h-.19a2.917 2.917 0 0 1-2.808-2.139c-.122-.443-.488-.773-.948-.773h-4.086c-.6 0-1.075.528-1 1.123.554 4.386 4.308 7.789 8.842 7.789h.19v2.728a1 1 0 0 0 1 1h4a1 1 0 0 0 1-1v-2.728h.19c5.637 0 10.068-5.26 8.644-11.128-.965-3.976-4.649-6.697-8.74-6.697zm-6.284 0a2.917 2.917 0 0 1-2.913-2.913 2.916 2.916 0 0 1 2.913-2.912h.19v5.825zm6.38 11.825h-.19v-5.825h.19a2.917 2.917 0 0 1 2.913 2.913 2.916 2.916 0 0 1-2.913 2.912z" fill="#fac600"></path><circle cx="456.952" cy="363.952" fill="#fedf30" r="34.952"></circle><path d="M456.952 389.297c-13.997 0-25.344-11.347-25.344-25.344s11.347-25.344 25.344-25.344c.348 0 .692.012 1.037.026a34.974 34.974 0 0 1 11.511-7.304 34.843 34.843 0 0 0-12.548-2.33C437.649 329 422 344.649 422 363.952s15.649 34.952 34.952 34.952c4.424 0 8.652-.83 12.548-2.33a34.953 34.953 0 0 1-11.511-7.304 25.49 25.49 0 0 1-1.037.027z" fill="#fed402"></path><circle cx="456.952" cy="363.952" fill="#fee45a" r="25.344"></circle><path d="M448.311 363.952c0-11.07 7.1-20.477 16.993-23.929a25.296 25.296 0 0 0-8.352-1.415c-13.997 0-25.344 11.347-25.344 25.344s11.347 25.344 25.344 25.344c2.927 0 5.736-.502 8.352-1.415-9.893-3.452-16.993-12.859-16.993-23.929z" fill="#fedf30"></path><path d="M456.952 392.297c-15.629 0-28.344-12.716-28.344-28.345s12.715-28.345 28.344-28.345 28.344 12.716 28.344 28.345-12.715 28.345-28.344 28.345zm0-50.69c-12.321 0-22.344 10.023-22.344 22.345s10.023 22.345 22.344 22.345 22.344-10.023 22.344-22.345-10.023-22.345-22.344-22.345z" fill="#fac600"></path><path d="M460.046 360.952h-.094v-5.825h.19c1.338 0 2.469.907 2.808 2.139.122.443.488.773.948.773h4.086c.6 0 1.075-.528 1-1.123-.554-4.386-4.308-7.789-8.842-7.789h-.19v-2.728a1 1 0 0 0-1-1h-4a1 1 0 0 0-1 1v2.728h-.096c-4.091 0-7.775 2.722-8.738 6.698-1.422 5.869 3.008 11.127 8.644 11.127h.19v5.825h-.19a2.917 2.917 0 0 1-2.808-2.139c-.122-.443-.488-.773-.948-.773h-4.086c-.6 0-1.075.528-1 1.123.554 4.386 4.308 7.789 8.842 7.789h.19v2.728a1 1 0 0 0 1 1h4a1 1 0 0 0 1-1v-2.728h.19c5.637 0 10.068-5.26 8.644-11.128-.965-3.976-4.649-6.697-8.74-6.697zm-6.284 0a2.917 2.917 0 0 1-2.913-2.913 2.916 2.916 0 0 1 2.913-2.912h.19v5.825zm6.38 11.825h-.19v-5.825h.19c1.606 0 2.913 1.307 2.913 2.913s-1.307 2.912-2.913 2.912z" fill="#fac600"></path><circle cx="83.048" cy="323.048" fill="#fedf30" r="34.952"></circle><path d="M83.048 348.392c-13.997 0-25.344-11.347-25.344-25.344s11.347-25.344 25.344-25.344c.348 0 .692.012 1.037.026a34.974 34.974 0 0 1 11.511-7.304 34.843 34.843 0 0 0-12.548-2.33c-19.303 0-34.952 15.649-34.952 34.952S63.744 358 83.048 358c4.424 0 8.652-.83 12.548-2.33a34.953 34.953 0 0 1-11.511-7.304c-.345.014-.689.026-1.037.026z" fill="#fed402"></path><circle cx="83.048" cy="323.048" fill="#fee45a" r="25.344"></circle><path d="M74.407 323.048c0-11.07 7.1-20.477 16.993-23.929a25.296 25.296 0 0 0-8.352-1.415c-13.997 0-25.344 11.347-25.344 25.344s11.347 25.344 25.344 25.344c2.927 0 5.736-.502 8.352-1.415-9.893-3.453-16.993-12.859-16.993-23.929z" fill="#fedf30"></path><path d="M83.048 351.393c-15.629 0-28.344-12.716-28.344-28.345s12.715-28.345 28.344-28.345 28.344 12.716 28.344 28.345-12.715 28.345-28.344 28.345zm0-50.69c-12.321 0-22.344 10.023-22.344 22.345s10.023 22.345 22.344 22.345 22.344-10.023 22.344-22.345-10.023-22.345-22.344-22.345z" fill="#fac600"></path><path d="M86.141 320.048h-.093v-5.825h.19c1.338 0 2.469.907 2.808 2.139.122.443.488.773.948.773h4.086c.6 0 1.075-.528 1-1.123-.554-4.386-4.308-7.789-8.842-7.789h-.19v-2.728a1 1 0 0 0-1-1h-4a1 1 0 0 0-1 1v2.728h-.096c-4.091 0-7.775 2.722-8.738 6.698-1.422 5.869 3.008 11.127 8.644 11.127h.19v5.825h-.19a2.917 2.917 0 0 1-2.808-2.139c-.122-.443-.488-.773-.948-.773h-4.086c-.6 0-1.075.528-1 1.123.554 4.386 4.308 7.789 8.842 7.789h.19v2.728a1 1 0 0 0 1 1h4a1 1 0 0 0 1-1v-2.728h.19c5.637 0 10.068-5.26 8.644-11.128-.965-3.976-4.65-6.697-8.741-6.697zm-6.283 0a2.917 2.917 0 0 1-2.913-2.913 2.916 2.916 0 0 1 2.913-2.912h.19v5.825zm6.38 11.825h-.19v-5.825h.19a2.917 2.917 0 0 1 2.913 2.913 2.917 2.917 0 0 1-2.913 2.912z" fill="#fac600"></path><circle cx="97.952" cy="58.952" fill="#fedf30" r="34.952"></circle><path d="M97.952 84.297c-13.997 0-25.344-11.347-25.344-25.344s11.347-25.344 25.344-25.344c.348 0 .692.012 1.037.026a34.974 34.974 0 0 1 11.511-7.304 34.843 34.843 0 0 0-12.548-2.33C78.649 24 63 39.649 63 58.952s15.649 34.952 34.952 34.952c4.424 0 8.652-.83 12.548-2.33a34.953 34.953 0 0 1-11.511-7.304 25.49 25.49 0 0 1-1.037.027z" fill="#fed402"></path><circle cx="97.952" cy="58.952" fill="#fee45a" r="25.344"></circle><path d="M89.311 58.952c0-11.07 7.1-20.477 16.993-23.929a25.296 25.296 0 0 0-8.352-1.415c-13.997 0-25.344 11.347-25.344 25.344s11.347 25.344 25.344 25.344c2.927 0 5.736-.502 8.352-1.415-9.893-3.452-16.993-12.859-16.993-23.929z" fill="#fedf30"></path><path d="M97.952 87.297c-15.629 0-28.344-12.716-28.344-28.345s12.715-28.345 28.344-28.345 28.344 12.716 28.344 28.345-12.715 28.345-28.344 28.345zm0-50.69c-12.321 0-22.344 10.023-22.344 22.345s10.023 22.345 22.344 22.345 22.344-10.023 22.344-22.345-10.023-22.345-22.344-22.345z" fill="#fac600"></path><path d="M101.046 55.952h-.093v-5.825h.19c1.338 0 2.469.907 2.808 2.139.122.443.488.773.948.773h4.086c.6 0 1.075-.528 1-1.123-.554-4.386-4.308-7.789-8.842-7.789h-.19v-2.728a1 1 0 0 0-1-1h-4a1 1 0 0 0-1 1v2.728h-.096c-4.091 0-7.775 2.722-8.738 6.698-1.422 5.869 3.008 11.127 8.644 11.127h.19v5.825h-.19a2.917 2.917 0 0 1-2.808-2.139c-.122-.443-.488-.773-.948-.773H86.92c-.6 0-1.075.528-1 1.123.554 4.386 4.308 7.789 8.842 7.789h.19v2.728a1 1 0 0 0 1 1h4a1 1 0 0 0 1-1v-2.728h.19c5.637 0 10.068-5.26 8.644-11.128-.965-3.976-4.649-6.697-8.74-6.697zm-6.284 0a2.917 2.917 0 0 1-2.913-2.913 2.916 2.916 0 0 1 2.913-2.912h.19v5.825zm6.38 11.825h-.19v-5.825h.19c1.606 0 2.913 1.307 2.913 2.913s-1.307 2.912-2.913 2.912z" fill="#fac600"></path></g></svg>