<svg viewBox="0 0 58 59" xmlns="http://www.w3.org/2000/svg"><g><g fill="none" fill-rule="evenodd"><path d="M29 8.32V45c0 6-2 7-4 8a12.376 12.376 0 0 0-3 2c-.33 0-.66-.01-.97-.02C11.93 54.47 11 47 11 47c9-5 8-13 8-17a14.129 14.129 0 0 1 2.18-6.74c.542-.91.877-1.927.98-2.98l.72-7.91 1.59-4.78c.26-.776.91-1.357 1.71-1.53.164-.04.332-.06.5-.06A2.322 2.322 0 0 1 29 8.32z" fill="#f9c795"></path><path d="M28 8.32V45c0 6-2 7-4 8a12.51 12.51 0 0 0-2.97 1.98C11.93 54.47 11 47 11 47c9-5 8-13 8-17a14.129 14.129 0 0 1 2.18-6.74c.542-.91.877-1.927.98-2.98l.72-7.91 1.59-4.78c.26-.776.91-1.357 1.71-1.53A2.308 2.308 0 0 1 28 8.32z" fill="#fdd7ad"></path><path d="M29 2.61v5.71a2.325 2.325 0 0 0-4.53-.73l-1.59 4.78.9-9.99A2.6 2.6 0 0 1 26.39 0 2.612 2.612 0 0 1 29 2.61z" fill="#f9c795"></path><path d="M22 55v1.01a2 2 0 0 1-1.99 2l-18 .07a2 2 0 0 1-2.01-2v-4.93a2 2 0 0 1 1.04-1.75 63.374 63.374 0 0 1 8.62-3.92 1 1 0 0 1 1.34.94V47s1 8 11 8z" fill="#3b97d3"></path><path d="m35.12 12.37-1.59-4.78a2.325 2.325 0 0 0-4.53.73V2.61A2.612 2.612 0 0 1 31.61 0a2.6 2.6 0 0 1 2.61 2.38z" fill="#f9c795"></path><path d="M47 47s-.93 7.47-10.03 7.98c-.31.01-.64.02-.97.02a12.376 12.376 0 0 0-3-2c-2-1-4-2-4-8V8.32A2.322 2.322 0 0 1 31.32 6c.168 0 .336.02.5.06.8.173 1.45.754 1.71 1.53l1.59 4.78.72 7.91a7.191 7.191 0 0 0 .98 2.98A14.129 14.129 0 0 1 39 30c0 4-1 12 8 17z" fill="#f9c795"></path><path d="M47 47s-.93 7.47-10.03 7.98A12.51 12.51 0 0 0 34 53c-2-1-4-2-4-8V8.32a2.308 2.308 0 0 1 1.82-2.26c.8.173 1.45.754 1.71 1.53l1.59 4.78.72 7.91a7.191 7.191 0 0 0 .98 2.98A14.129 14.129 0 0 1 39 30c0 4-1 12 8 17z" fill="#fdd7ad"></path><path d="M58 51.15v4.93a2 2 0 0 1-2.01 2l-18-.07a2 2 0 0 1-1.99-2V55c10 0 11-8 11-8v-.58a1 1 0 0 1 1.34-.94 63.374 63.374 0 0 1 8.62 3.92A2 2 0 0 1 58 51.15z" fill="#3b97d3"></path></g></g></svg>