<svg viewBox="0 0 512 512" xmlns="http://www.w3.org/2000/svg"><g><path d="M473.827 23.994h-35.641l-8.084 7.204 4.595 7.638V180.06l-28.065 26.876a21.221 21.221 0 0 1 5.619 8.381l9.521 26.096c2.136 5.854 10.416 5.854 12.552 0l9.521-26.096a21.257 21.257 0 0 1 19.97-13.972h10.012c21.082 0 38.173-17.091 38.173-38.174V62.168c0-21.083-17.091-38.174-38.173-38.174z" fill="#ffe559"></path><path d="M382.714 30.601v147.743l-10.645 9.76 2.273 13.242h17.938c6.378 0 12.26 2.857 16.222 7.541 20.035-4.643 34.972-22.589 34.972-44.036V45.215a45.005 45.005 0 0 0-5.288-21.221h-50.6z" fill="#ffd500"></path><path d="M128.6 172.849V31.713l-4.186-7.719h-59.45l-10.338 4.628-10.845 21.119v136.5l25.048 15.968 38.219 3.344a21.22 21.22 0 0 1 12.673-4.208h17.937v-10.64z" fill="#6b7ed9"></path><path d="M98.786 201.346H88.774c-21.083 0-38.173-17.091-38.173-38.174V62.168c0-21.082 17.091-38.173 38.173-38.173H38.173C17.091 23.994 0 41.085 0 62.168v101.004c0 21.083 17.091 38.174 38.173 38.174h10.012c8.931 0 16.91 5.582 19.971 13.972l9.521 26.096c2.136 5.854 10.416 5.854 12.552 0l9.521-26.096a21.231 21.231 0 0 1 9.503-11.203 21.2 21.2 0 0 0-10.467-2.769z" fill="#4d66d2"></path><path d="M347.658 0H194.3l-13.504 6.302-16.483 23.351v157.362l14.165 15.71 17.73 7.341h17.426a25.145 25.145 0 0 1 15.705 5.51l39.796-1.777 10.266 4.9a25.166 25.166 0 0 1 18.964-8.633h49.293c24.972 0 45.215-20.243 45.215-45.215V45.215C392.873 20.243 372.63 0 347.658 0z" fill="#60b9fe"></path><path d="M264.235 210.066h-49.293c-24.972 0-45.215-20.243-45.215-45.215V45.215C169.728 20.243 189.971 0 214.943 0h-50.601c-24.971 0-45.215 20.243-45.215 45.215v119.636c0 24.972 20.244 45.215 45.215 45.215h49.293a25.18 25.18 0 0 1 23.655 16.55l11.277 30.909c2.53 6.934 12.338 6.934 14.868 0l11.277-30.909a25.12 25.12 0 0 1 6.59-9.869 25.16 25.16 0 0 0-17.067-6.681z" fill="#1ca8ff"></path><path d="M418.067 390.028h-14.489l-13.911 5.343-15.71 14.938-4.893 16.225v59.236l8.877 6.658h71.717c6.77 0 12.258-5.488 12.258-12.258v-46.294c-.001-24.217-19.633-43.848-43.849-43.848z" fill="#ffe559"></path><path d="M180.779 420.158c-5.76-17.495-22.223-30.13-41.646-30.13h-13.328l-10.254 2.939-15.453 12.019-8.07 15.281v61.811l3.606 7.555 4.318 2.794h70.77c1.965 0 3.815-.474 5.461-1.296l7.36-9.912v-54.943z" fill="#6b7ed9"></path><g fill="#ffcebe"><path d="M413.367 315.893h-5.929l-17.341 20.069s-5.781 21.291-5.294 22.149c.487.859 10.37 16.655 10.665 16.998s8.537 7.555 8.537 7.555l9.363 3.038c12.662-6.507 21.33-19.689 21.33-34.904s-8.669-28.398-21.331-34.905zM273.899 298.282h-4.507l-17.857 11.239s-8.07 18.2-8.413 19.745 0 21.532 0 21.532 4.121 14.353 4.121 14.869c0 .515 8.757 10.645 8.757 10.645l8.928 7.383 8.971 1.775c17.146-7.048 29.223-23.907 29.223-43.594s-12.076-36.546-29.223-43.594zM134.432 315.893h-6.863l-16.096 20.756-2.104 18.2 2.104 13.049 9.228 13.049 13.731 4.755c12.662-6.507 21.33-19.689 21.33-34.904 0-15.216-8.668-28.398-21.33-34.905z" fill="#ffcebe"></path></g><path d="M113.102 350.798c0-15.215 8.668-28.398 21.33-34.904a39.039 39.039 0 0 0-17.9-4.325c-21.666 0-39.23 17.564-39.23 39.23s17.564 39.23 39.23 39.23a39.051 39.051 0 0 0 17.9-4.325c-12.662-6.508-21.33-19.691-21.33-34.906zM392.037 350.798c0-15.215 8.668-28.398 21.33-34.904a39.039 39.039 0 0 0-17.9-4.325c-21.666 0-39.23 17.564-39.23 39.23s17.564 39.23 39.23 39.23a39.051 39.051 0 0 0 17.9-4.325c-12.662-6.508-21.33-19.691-21.33-34.906zM244.676 341.876c0-19.687 12.077-36.546 29.223-43.594a46.967 46.967 0 0 0-17.9-3.529c-26.025 0-47.123 21.098-47.123 47.123s21.098 47.123 47.123 47.123c6.338 0 12.38-1.26 17.9-3.529-17.146-7.048-29.223-23.907-29.223-43.594z" fill="#ffb1a0"></path><path d="M371.639 480.169v-46.294c0-24.216 19.631-43.847 43.847-43.847h-42.619c-19.424 0-35.887 12.635-41.647 30.13l-3.365 5.603v57.691l7.96 7.68a12.187 12.187 0 0 0 5.462 1.296h42.619c-6.769-.001-12.257-5.489-12.257-12.259z" fill="#ffd500"></path><path d="M93.869 480.169v-46.294c0-24.216 19.631-43.847 43.847-43.847H93.933c-24.216 0-43.847 19.631-43.847 43.847v46.294c0 6.77 5.488 12.258 12.258 12.258h43.783c-6.77 0-12.258-5.488-12.258-12.258z" fill="#4d66d2"></path><path d="M283.147 388.999h-24.78c-6.441 1.789-11.896 3.281-11.896 3.281l-22.061 15.71-9.102 20.346v77.007L226.819 512h94.273c8.132 0 14.724-6.592 14.724-14.724v-55.608c0-29.088-23.581-52.669-52.669-52.669z" fill="#60b9fe"></path><path d="M219.967 497.277v-55.608c0-29.088 23.581-52.669 52.669-52.669h-43.783c-29.088 0-52.669 23.581-52.669 52.669v55.608c0 8.132 6.592 14.724 14.724 14.724h43.783c-8.132-.001-14.724-6.593-14.724-14.724z" fill="#1ca8ff"></path><g fill="#dbedff"><circle cx="186.125" cy="113.029" fill="#dbedff" r="18.334"></circle><circle cx="256" cy="113.029" fill="#dbedff" r="18.334"></circle><circle cx="325.875" cy="113.029" fill="#dbedff" r="18.334"></circle></g></g></svg>