<svg viewBox="0 0 64 64" xmlns="http://www.w3.org/2000/svg"><g><path d="M41 1.576a5.289 5.289 0 0 1-2.222.57c-1.9.046-2.74-1.06-4.445-1.141A5.222 5.222 0 0 0 31 2.147V20h1.5V8.174a4.436 4.436 0 0 1 1.833-.318c1.705.082 2.545 1.188 4.445 1.143A5.288 5.288 0 0 0 41 8.428z" fill="#cc7070"></path><path d="M31 2.147V20h1.5V1.322a6.84 6.84 0 0 0-1.5.825z" fill="#a1b1bf"></path><path d="M28 8.576a5.289 5.289 0 0 1-2.222.57c-1.9.046-2.74-1.06-4.445-1.141A5.222 5.222 0 0 0 18 9.147V24h1.5v-8.826a4.436 4.436 0 0 1 1.833-.318c1.705.082 2.545 1.188 4.445 1.143A5.288 5.288 0 0 0 28 15.428z" fill="#e6c15c"></path><path d="M18 9.147V24h1.5V8.322a6.84 6.84 0 0 0-1.5.825z" fill="#a1b1bf"></path><path d="M54 8.576a5.289 5.289 0 0 1-2.222.57c-1.9.046-2.74-1.06-4.445-1.141A5.222 5.222 0 0 0 44 9.147V24h1.5v-8.826a4.436 4.436 0 0 1 1.833-.318c1.705.082 2.545 1.188 4.445 1.143A5.288 5.288 0 0 0 54 15.428z" fill="#7d8cb3"></path><path d="M44 9.147V24h1.5V8.322a6.84 6.84 0 0 0-1.5.825z" fill="#a1b1bf"></path><circle cx="9" cy="47" fill="#5c89cc" r="4"></circle><path d="M13 51H5a4 4 0 0 0-4 4v8h16v-8a4 4 0 0 0-4-4z" fill="#5c89cc"></path><path d="M13.5 54h1v9h-1zM3.5 54h1v9h-1z" fill="#5374a6"></path><circle cx="32" cy="47" fill="#5c89cc" r="4"></circle><path d="M36 51h-8a4 4 0 0 0-4 4v8h16v-8a4 4 0 0 0-4-4z" fill="#5c89cc"></path><path d="M36.5 54h1v9h-1zM26.5 54h1v9h-1z" fill="#5374a6"></path><circle cx="55" cy="47" fill="#5c89cc" r="4"></circle><path d="M59 51h-8a4 4 0 0 0-4 4v8h16v-8a4 4 0 0 0-4-4z" fill="#5c89cc"></path><path d="M59.5 54h1v9h-1zM49.5 54h1v9h-1z" fill="#5374a6"></path><path d="M58 39c-2.076-11.352-12.931-20-26-20S8.076 27.648 6 39z" fill="#e6f2ff"></path><path d="M18.432 30.338c.15.03.29.068.442.097a66.855 66.855 0 0 0 11.876 1.132v-6.456a43.895 43.895 0 0 1-7.678-.768 20.336 20.336 0 0 0-4.64 5.995z" fill="#56bf89"></path><path d="M32.25 39h14.725a27.475 27.475 0 0 0-1.661-7.294 67.66 67.66 0 0 1-13.064 1.359z" fill="#5ab370"></path><path d="M6 39h8.606a29.254 29.254 0 0 1 1.675-7.597 48.41 48.41 0 0 1-6.117-1.85A22.629 22.629 0 0 0 6 39z" fill="#56bf89"></path><path d="M40.032 24.32a43.754 43.754 0 0 1-7.782.79v6.455A66.326 66.326 0 0 0 44.67 30.3a20.627 20.627 0 0 0-4.638-5.981z" fill="#5ab370"></path><path d="M16.114 39H30.75v-5.933a68.407 68.407 0 0 1-12.16-1.159c-.282-.054-.546-.122-.823-.18A27.302 27.302 0 0 0 16.114 39zM16.897 30.003a22.11 22.11 0 0 1 4.377-6.062 24.317 24.317 0 0 1-3.47-1.147 25.717 25.717 0 0 0-6.64 5.523 48.05 48.05 0 0 0 5.733 1.686z" fill="#56bf89"></path><path d="M46.797 31.379A29.382 29.382 0 0 1 48.484 39H58a22.678 22.678 0 0 0-4.393-9.76 46.785 46.785 0 0 1-6.81 2.139z" fill="#5ab370"></path><path d="M31.5 23.628a36.497 36.497 0 0 0 12.513-1.98 28.538 28.538 0 0 0-24.45.208A37.515 37.515 0 0 0 31.5 23.628z" fill="#8c9aa6"></path><path d="M41.802 23.919a22.257 22.257 0 0 1 4.383 6.066 46.412 46.412 0 0 0 6.415-1.95 25.846 25.846 0 0 0-6.838-5.498 22.945 22.945 0 0 1-3.96 1.382z" fill="#5ab370"></path></g></svg>