<svg viewBox="0 0 52 52" xmlns="http://www.w3.org/2000/svg"><g><path d="M47.655 27.325v10.193H30.92V27.063l8.236-8.242z" fill="#e4e3ff"></path><path d="M47.66 26.406v10.193H30.925V26.143l8.236-8.241z" fill="#e4e3ff"></path><path d="M47.66 26.407v1.78l-8.499-8.503-8.236 8.241v-1.78l8.236-8.242z" fill="#d0d0f7"></path><path d="M48.567 36.067v1.011a.576.576 0 0 1-.576.576H30.579a.576.576 0 0 1-.576-.576v-1.011c0-.318.258-.576.576-.576h17.412c.318 0 .576.258.576.576z" fill="#fc6559"></path><path d="M48.568 36.066v1.013a.575.575 0 0 1-.575.575H30.577a.575.575 0 0 1-.575-.575v-.206h17.204a.58.58 0 0 0 .575-.58v-.802h.212c.318 0 .575.257.575.575z" fill="#f05543"></path><path d="M49.667 27.201a1.188 1.188 0 0 1-.868.364c-.317 0-.633-.117-.868-.364l-1.22-1.207-7.538-7.551-5.1 5.112-3.413 3.412a1.26 1.26 0 0 1-1.747 0 1.239 1.239 0 0 1 0-1.747l2.217-2.228 2.943-2.931 2.673-2.673 1.547-1.56c.235-.234.551-.363.88-.363.328 0 .645.129.867.363l1.548 1.548 8.079 8.078c.492.481.492 1.267 0 1.747z" fill="#fc6559"></path><g opacity=".3"><path d="M33.638 21.612a.252.252 0 0 1 0-.357l.334-.334a.252.252 0 1 1 .357.356l-.335.335a.252.252 0 0 1-.356 0zM34.461 20.788a.252.252 0 0 1 0-.357l2.183-2.183a.252.252 0 1 1 .357.357l-2.183 2.183a.252.252 0 0 1-.357 0z" fill="#ffffff"></path></g><path d="M38.97 25.882v3.153a.344.344 0 0 1-.344.345h-3.153a.344.344 0 0 1-.345-.345v-3.153c0-.191.154-.345.345-.345h3.153c.191 0 .345.154.345.345z" fill="#a2a2f9"></path><path d="M38.969 25.836c-.015-.003-.032-.003-.047-.003h-3.15a.348.348 0 0 0-.348.348v3.15c0 .015 0 .03.003.044a.346.346 0 0 1-.3-.34V25.88c0-.192.156-.345.347-.345h3.15c.177 0 .324.13.345.3z" fill="#7979f7"></path><path d="M43.458 25.882v3.153a.344.344 0 0 1-.345.345H39.96a.344.344 0 0 1-.345-.345v-3.153c0-.191.154-.345.345-.345h3.153c.192 0 .345.154.345.345z" fill="#a2a2f9"></path><path d="M43.456 25.836c-.014-.003-.032-.003-.047-.003h-3.15a.348.348 0 0 0-.348.348v3.15c0 .015 0 .03.003.044a.346.346 0 0 1-.3-.34V25.88c0-.192.156-.345.347-.345h3.151c.177 0 .324.13.344.3z" fill="#7979f7"></path><path d="M38.97 30.323v3.153a.344.344 0 0 1-.344.345h-3.153a.344.344 0 0 1-.345-.345v-3.153c0-.191.154-.345.345-.345h3.153c.191 0 .345.154.345.345z" fill="#a2a2f9"></path><path d="M38.969 30.278c-.015-.003-.032-.003-.047-.003h-3.15a.348.348 0 0 0-.348.347v3.15c0 .015 0 .03.003.045a.346.346 0 0 1-.3-.342v-3.153c0-.191.156-.344.347-.344h3.15c.177 0 .324.129.345.3z" fill="#7979f7"></path><path d="M43.458 30.323v3.153a.344.344 0 0 1-.345.345H39.96a.344.344 0 0 1-.345-.345v-3.153c0-.191.154-.345.345-.345h3.153c.192 0 .345.154.345.345z" fill="#a2a2f9"></path><path d="M43.456 30.278c-.014-.003-.032-.003-.047-.003h-3.15a.348.348 0 0 0-.348.347v3.15c0 .015 0 .03.003.045a.346.346 0 0 1-.3-.342v-3.153c0-.191.156-.344.347-.344h3.151c.177 0 .324.129.344.3z" fill="#7979f7"></path><path d="M30.568 2.587a5.904 5.904 0 0 0-3.267 6.69c.105.452-.079.922-.454 1.197l-13.227 9.69a1.64 1.64 0 0 0 1.936 2.644l1.49-1.09 2.047 2.795a1.41 1.41 0 0 0 1.974.304 1.41 1.41 0 0 0 .305-1.974l-2.048-2.795 1.2-.88 1.547 2.112a1.41 1.41 0 0 0 1.975.305 1.41 1.41 0 0 0 .304-1.974l-1.547-2.112 5.98-4.381c.37-.271.87-.316 1.264-.082a5.898 5.898 0 0 0 6.503-.308 5.92 5.92 0 0 0 .43-9.2c-1.724-1.564-4.308-1.938-6.412-.94zm4.782 7.427a3.08 3.08 0 0 1-5.09-.78 3.07 3.07 0 0 1 .533-3.37 3.083 3.083 0 0 1 4.557 4.15z" fill="#f9b938"></path><path d="M30.57 2.587a5.896 5.896 0 0 0-3.263 6.69c.098.458-.078.922-.46 1.202l-13.224 9.688a1.643 1.643 0 0 0-.36 2.288c.418.572 1.15.79 1.792.599a1.5 1.5 0 0 1-.408-.385 1.636 1.636 0 0 1 .345-2.291l13.233-9.695c.373-.272.558-.743.45-1.195a5.916 5.916 0 0 1 3.264-6.69 5.799 5.799 0 0 1 2.702-.541 5.839 5.839 0 0 0-4.07.33z" fill="#ecb021"></path><path d="M37.143 3.68a5.736 5.736 0 0 1 7.754 5.363c0 3.17-2.57 5.752-5.73 5.752a5.76 5.76 0 0 1-5.753-5.753c0-1.425.457-2.662 1.325-3.665.336.245.56.413.844.823-.423.69-.994 1.977-.994 2.842a4.584 4.584 0 0 0 4.579 4.579c2.512 0 4.555-2.054 4.555-4.579a4.56 4.56 0 0 0-5.766-4.393" fill="#474646"></path><path d="M41.588 17.376c-.246.363-.668.61-1.149.61h-2.544c-.481 0-.903-.235-1.15-.598l1.548-1.56c.235-.234.551-.363.88-.363.328 0 .645.129.867.363z" fill="#f05543"></path><path d="M41.117 13.918V16.6a.681.681 0 0 1-.681.681H37.9a.687.687 0 0 1-.705-.681v-2.68c0-.4.305-.705.705-.705h2.536c.375 0 .68.305.68.704z" fill="#b75f25"></path><path d="M41.12 13.929v2.68a.681.681 0 0 1-.681.682h-2.536a.687.687 0 0 1-.704-.681v-.4h2.16c.375 0 .68-.305.68-.68v-2.306h.4c.376 0 .68.306.68.705z" fill="#aa5821"></path><path d="M39.966 15.623c0 .446-.352.822-.798.822a.817.817 0 0 1-.822-.822c0-.446.352-.822.822-.822.446 0 .798.376.798.822z" fill="#e4e3ff"></path><path d="m36.726 38.9 9.633-4.442c1.667-.807 3.603.407 3.603 2.259a2.51 2.51 0 0 1-1.279 2.187s-14.82 10.682-21.418 11.053c-4.284.24-15.806-6.688-15.806-6.688V30.916s3.704-.104 8.064 0c3.149.075 6.555 1.67 9.175 4.033l5.871-.001a2.565 2.565 0 1 1 0 5.13H23.226z" fill="#f7c9a9"></path><path d="M49.964 36.72c0 .9-.49 1.74-1.28 2.18 0 0-14.82 10.69-21.42 11.06-2.7.15-8.28-2.55-12.03-4.56-.29-.16-.57-.31-.83-.45-.24-.13-.47-.26-.69-.38-1.37-.77-2.26-1.3-2.26-1.3V30.92s1.54-.05 3.79-.05v11.11c0 1.12.62 2.15 1.62 2.66 3.59 1.84 8.07 3.83 10.4 3.7 6.6-.38 21.42-11.06 21.42-11.06.55-.31.95-.8 1.14-1.38.09.25.14.53.14.82z" fill="#f0b68e"></path><path d="M13.704 30.17V45.2a2 2 0 0 1-2 2h-7.74c-1.11 0-2-.89-2-2V30.17c0-1.1.9-2 2-2h7.74c1.1 0 2 .9 2 2z" fill="#8666c6"></path><path d="M37.135 37.513c.084.643-.132 1.33-.556 1.87a2.78 2.78 0 0 1-1.805.971c-1.321.089-2.573.084-3.863.098-1.28-.009-2.562-.018-3.843-.086-1.28-.06-2.562-.133-3.843-.289 1.281-.156 2.562-.228 3.843-.288 1.281-.068 2.562-.078 3.843-.087 1.272.006 2.583.028 3.823.08 1.148.002 2.261-.974 2.4-2.27z" fill="#f0b68e"></path><path d="M11.46 43.72c0 .88-.7 1.58-1.58 1.58-.87 0-1.58-.7-1.58-1.58 0-.87.71-1.58 1.58-1.58.88 0 1.58.71 1.58 1.58z" fill="#e4e3ff"></path><path d="M11.456 43.721c0 .88-.7 1.58-1.58 1.58-.64 0-1.2-.38-1.45-.94.2.09.42.14.65.14.88 0 1.58-.7 1.58-1.58 0-.23-.05-.45-.14-.65.56.25.94.81.94 1.45z" fill="#d0d0f7"></path><path d="M13.704 30.17V45.2a2 2 0 0 1-2 2h-7.74c-.78 0-1.45-.44-1.78-1.08.27.14.59.22.92.22h7.74a2 2 0 0 0 2-2V29.31c0-.33-.08-.64-.22-.91.64.33 1.08 1 1.08 1.77z" fill="#7553aa"></path><path d="M22.438 33.457a.485.485 0 0 1-.156-.025c-.973-.32-1.917-.492-2.808-.512-1.146-.03-2.244-.043-3.24-.048a.5.5 0 0 1 .004-1h.003c1 .005 2.104.019 3.257.048.988.022 2.03.212 3.096.562a.5.5 0 0 1-.156.975z" fill="#ffffff" opacity=".3"></path></g></svg>