<svg viewBox="0 0 512 512" xmlns="http://www.w3.org/2000/svg"><g><g fill="#ccc4cc"><path d="M256 22h48.88v6.75h32.57l-11.38 16.92 11.38 16.92h-48.88v-6.75H256z" fill="#ccc4cc" fill-rule="evenodd"></path><path d="M99.52 258.76h43.21v180.3H99.52zM234.39 258.76h43.21v180.3h-43.21zM369.27 258.76h43.21v180.3h-43.21z" fill="#ccc4cc"></path></g><path d="M40.21 467.53h431.57V496H40.21z" fill="#837683"></path><path d="M64.25 439.06h383.5v28.47H64.25z" fill="#ccc4cc"></path><g fill="#837683"><path d="M88.28 410.59h65.69v28.47H88.28zM358.03 410.59h65.69v28.47h-65.69zM223.16 410.59h65.69v28.47h-65.69zM88.28 230.29h65.69v28.47H88.28zM223.16 230.29h65.69v28.47h-65.69zM358.03 230.29h65.69v28.47h-65.69z" fill="#837683"></path></g><path d="M52.23 201.82h407.54v28.47H52.23z" fill="#ccc4cc"></path><path d="m256 102.96 191.75 70.39v28.47H64.25v-28.47z" fill="#837683" fill-rule="evenodd"></path><path d="M262.15 114.8c0 8.14-12.29 8.14-12.29 0V22.19c0-3.42 2.75-6.19 6.15-6.19s6.15 2.77 6.15 6.19v92.61z" fill="#837683" fill-rule="evenodd"></path><circle cx="256" cy="154.65" fill="#ccc4cc" r="24.35" transform="rotate(-9.25 256.156 155)"></circle></g></svg>