<svg viewBox="0 0 96 96" xmlns="http://www.w3.org/2000/svg"><g><circle cx="48" cy="48" fill="#ffd140" r="44"></circle><g fill="#6d5544"><path d="M57.275 70.767H38.529a2.349 2.349 0 0 1 0-4.698h18.746a2.349 2.349 0 0 1 0 4.698zM65.111 50.537a2.349 2.349 0 0 1-2.346-2.349v-5.89c0-1.295 1.05-2.349 2.346-2.349s2.346 1.054 2.346 2.349v5.89a2.348 2.348 0 0 1-2.346 2.349zM71.91 31.293a2.342 2.342 0 0 1-1.904-.974c-2.214-3.071-7.595-3.065-9.81 0a2.346 2.346 0 0 1-3.805-2.75c1.985-2.75 5.241-4.394 8.71-4.394 3.468 0 6.723 1.644 8.708 4.394a2.345 2.345 0 0 1-.529 3.277 2.34 2.34 0 0 1-1.37.447zM30.905 50.537a2.349 2.349 0 0 1-2.346-2.349v-5.89c0-1.295 1.05-2.349 2.346-2.349s2.346 1.054 2.346 2.349v5.89a2.348 2.348 0 0 1-2.346 2.349z" fill="#6d5544"></path><path d="M37.706 40.568a2.342 2.342 0 0 1-1.904-.974c-2.213-3.065-7.594-3.077-9.81 0a2.346 2.346 0 0 1-3.805-2.75c3.972-5.5 13.449-5.5 17.418 0a2.345 2.345 0 0 1-.529 3.277 2.34 2.34 0 0 1-1.37.447z" fill="#6d5544"></path></g></g></svg>