<svg viewBox="0 0 68 68" xmlns="http://www.w3.org/2000/svg"><g><path d="M43.963 45.186a54.775 54.775 0 0 1-1.626 1.561 55.914 55.914 0 0 1-5.035 4.17c-.62.454-1.247.89-1.878 1.308-3.858 2.545-7.897 4.363-11.99 5.113-1.184.22-2.376.345-3.567.376a20.794 20.794 0 0 1-7.88-1.32c-.38-.141-.756-.295-1.134-.46-.165-.379-.32-.755-.461-1.135a20.794 20.794 0 0 1-1.32-7.88c.031-1.191.157-2.382.377-3.567.75-4.093 2.567-8.132 5.112-11.99.418-.63.855-1.259 1.309-1.878a55.914 55.914 0 0 1 4.169-5.034 72.335 72.335 0 0 1 6.35-6.04c.575-.49 1.156-.97 1.747-1.44a86.84 86.84 0 0 1 7.208-5.182 85.192 85.192 0 0 1 7.875-4.515 71.02 71.02 0 0 1 4.3-1.991 56.027 56.027 0 0 1 2.078-.835c.8-.304 1.582-.582 2.352-.835.21-.067.42-.132.628-.197 3.274-1.018 6.202-1.515 8.519-1.398a3.778 3.778 0 0 1 1.626.452c.678.36 1.235.917 1.595 1.595.265.487.424 1.042.452 1.626.118 2.318-.38 5.245-1.397 8.52-.066.208-.13.416-.198.627-.252.77-.53 1.552-.835 2.352a56.028 56.028 0 0 1-.835 2.078 74.451 74.451 0 0 1-3.085 6.393A85.21 85.21 0 0 1 55 31.442a86.83 86.83 0 0 1-5.182 7.208c-.47.591-.95 1.172-1.44 1.748a72.335 72.335 0 0 1-4.414 4.788z" fill="#ffd80c"></path><path d="m8.038 47.954 44.54-44.54a54.137 54.137 0 0 0-5.059 1.868L6.442 46.358zM14.233 54.149 64.317 4.064a3.864 3.864 0 0 0-1.595-1.595L12.637 52.553zM20.428 60.344l41.076-41.077a54.142 54.142 0 0 0 1.868-5.058l-44.54 44.54z" fill="#ffbe00"></path><path d="M62.34 17.19 49.596 4.446c.8-.304 1.582-.582 2.352-.835l11.225 11.225c-.252.77-.53 1.552-.835 2.352zM58.42 25.66 41.126 8.366c.7-.378 1.398-.745 2.093-1.093l16.294 16.294a74.452 74.452 0 0 1-1.093 2.093zM53.73 33.36 33.426 13.056c.637-.432 1.278-.856 1.917-1.27L55 31.443c-.413.64-.837 1.28-1.27 1.917zM48.377 40.398 26.388 18.409c.576-.49 1.157-.97 1.748-1.44l21.68 21.681c-.47.591-.95 1.172-1.439 1.748zM43.963 45.186a54.775 54.775 0 0 1-1.626 1.561L20.039 24.45a54.744 54.744 0 0 1 1.56-1.626zM37.302 50.916c-.62.455-1.247.892-1.878 1.309L14.561 31.362c.418-.63.855-1.259 1.309-1.878z" fill="#ffbe00"></path><path d="M59.509 45.808c-.367.315-.867.42-1.348.365-3.589-.402-7.977 1.2-13.353 5.272a33.146 33.146 0 0 0-2.608 2.2c-10.265 9.564-19.792 17.2-31.502 8.633a17.625 17.625 0 0 1-3.834-3.834C3.643 54.02 2.53 49.297 3.621 44.337c.352-1.604.935-3.235 1.752-4.887.372-.75.826-1.456 1.32-2.132 5.114-7.01 8.397-13.831 9.888-20.465.135-.596.45-1.15.945-1.515.944-.687 2.222-.6 2.943.804.074.143.124.298.168.454 2.604 9.66 2.208 21.211-.613 27.98-.411.989.567 1.989 1.565 1.591 11.336-4.502 22.045-7.469 30.89-5.824 2.417.448 4.695 1.244 6.808 2.444.463.263.796.726.865 1.252.087.673-.15 1.34-.643 1.769z" fill="#4cc66e"></path><path d="M59.509 45.808c-.367.315-.867.42-1.348.365-3.589-.402-7.977 1.2-13.353 5.272a33.146 33.146 0 0 0-2.608 2.2c-10.012 9.329-19.324 16.824-30.64 9.233l-1.781 1.78a2.28 2.28 0 0 1-3.224-.001L4.42 62.52a2.28 2.28 0 0 1-.002-3.224L6.214 57.5c-2.72-4.15-3.608-8.552-2.593-13.162 13.627 30.364 48.858-3.994 48.858-3.994 2.417.448 4.695 1.244 6.808 2.444.463.263.796.726.865 1.252.087.673-.15 1.34-.643 1.769z" fill="#14a142"></path></g></svg>