<svg viewBox="0 0 512 512" xmlns="http://www.w3.org/2000/svg"><g><path d="M396.261 512H115.739c-17.108 0-31.105-13.997-31.105-31.105V31.105C84.634 13.997 98.632 0 115.739 0H396.26c17.108 0 31.105 13.997 31.105 31.105v449.79c.001 17.108-13.997 31.105-31.104 31.105z" fill="#666666"></path><path d="M280.339 277.583h-48.675c-6.8 0-12.363-5.563-12.363-12.363v-48.675c0-6.8 5.563-12.363 12.363-12.363h48.675c6.8 0 12.363 5.563 12.363 12.363v48.675c-.001 6.799-5.565 12.363-12.363 12.363zM378.077 277.583h-48.676c-6.8 0-12.363-5.563-12.363-12.363v-48.675c0-6.8 5.563-12.363 12.363-12.363h48.676c6.8 0 12.363 5.563 12.363 12.363v48.675c0 6.799-5.562 12.363-12.363 12.363zM280.339 375.978h-48.675c-6.8 0-12.363-5.563-12.363-12.363V314.94c0-6.8 5.563-12.363 12.363-12.363h48.675c6.8 0 12.363 5.563 12.363 12.363v48.675c-.001 6.8-5.565 12.363-12.363 12.363zM378.077 375.978h-48.676c-6.8 0-12.363-5.563-12.363-12.363V314.94c0-6.8 5.563-12.363 12.363-12.363h48.676c6.8 0 12.363 5.563 12.363 12.363v48.675c0 6.8-5.562 12.363-12.363 12.363zM182.598 474.52h-48.676c-6.8 0-12.363-5.563-12.363-12.363v-48.676c0-6.8 5.563-12.363 12.363-12.363h48.676c6.8 0 12.363 5.563 12.363 12.363v48.676c0 6.8-5.563 12.363-12.363 12.363zM280.339 474.52h-48.675c-6.8 0-12.363-5.563-12.363-12.363v-48.676c0-6.8 5.563-12.363 12.363-12.363h48.675c6.8 0 12.363 5.563 12.363 12.363v48.676c-.001 6.8-5.565 12.363-12.363 12.363z" fill="#f4f4f4"></path><path d="M378.077 474.52h-48.676c-6.8 0-12.363-5.563-12.363-12.363v-48.676c0-6.8 5.563-12.363 12.363-12.363h48.676c6.8 0 12.363 5.563 12.363 12.363v48.676c0 6.8-5.562 12.363-12.363 12.363z" fill="#f94a46"></path><path d="M110.133 480.895V31.105C110.133 13.997 124.13 0 141.238 0h-25.499C98.632 0 84.634 13.997 84.634 31.105v449.79c0 17.108 13.997 31.105 31.105 31.105h25.499c-17.108 0-31.105-13.997-31.105-31.105z" fill="#4f4d4d"></path><path d="M182.598 277.583h-48.676c-6.8 0-12.363-5.563-12.363-12.363v-48.675c0-6.8 5.563-12.363 12.363-12.363h48.676c6.8 0 12.363 5.563 12.363 12.363v48.675c0 6.799-5.563 12.363-12.363 12.363z" fill="#f4f4f4"></path><path d="M158.26 265.22v-48.676c0-6.8 5.563-12.363 12.363-12.363h-36.701c-6.8 0-12.363 5.563-12.363 12.363v48.676c0 6.799 5.563 12.363 12.363 12.363h36.701c-6.799 0-12.363-5.564-12.363-12.363z" fill="#e6e6e6"></path><path d="M182.598 375.978h-48.676c-6.8 0-12.363-5.563-12.363-12.363V314.94c0-6.8 5.563-12.363 12.363-12.363h48.676c6.8 0 12.363 5.563 12.363 12.363v48.675c0 6.8-5.563 12.363-12.363 12.363z" fill="#f4f4f4"></path><path d="M134.261 241.025c0-19.99 23.167-31.195 38.84-18.844 3.352 2.642 3.927 7.5 1.285 10.852s-7.5 3.927-10.851 1.286c-5.551-4.378-13.82-.456-13.82 6.707 0 7.119 8.238 11.109 13.818 6.709a7.727 7.727 0 0 1 9.569 12.134c-15.654 12.347-38.841 1.168-38.841-18.844z" fill="#cccccc"></path><path d="M381.9 72.781H130.1a8.54 8.54 0 0 0-8.54 8.54v79.707a8.54 8.54 0 0 0 8.54 8.54h251.8a8.54 8.54 0 0 0 8.54-8.54V81.321a8.54 8.54 0 0 0-8.54-8.54z" fill="#70b5e8"></path><path d="M147.139 161.027V81.321a8.54 8.54 0 0 1 8.54-8.54H130.1a8.54 8.54 0 0 0-8.54 8.54v79.706a8.54 8.54 0 0 0 8.54 8.54h25.58a8.54 8.54 0 0 1-8.541-8.54z" fill="#4aa5d3"></path><path d="M382.199 44.736h-65.16a7.727 7.727 0 0 1 0-15.454h65.16a7.727 7.727 0 0 1 0 15.454z" fill="#ffb70d"></path><path d="M158.26 363.615V314.94c0-6.799 5.563-12.363 12.363-12.363h-36.701c-6.8 0-12.363 5.563-12.363 12.363v48.676c0 6.8 5.563 12.363 12.363 12.363h36.701c-6.799-.001-12.363-5.564-12.363-12.364zM158.26 462.157v-48.676c0-6.8 5.563-12.363 12.363-12.363h-36.701c-6.8 0-12.363 5.563-12.363 12.363v48.676c0 6.8 5.563 12.363 12.363 12.363h36.701c-6.799 0-12.363-5.563-12.363-12.363zM256 265.22v-48.676c0-6.8 5.563-12.363 12.363-12.363h-36.701c-6.8 0-12.363 5.563-12.363 12.363v48.676c0 6.799 5.563 12.363 12.363 12.363h36.701c-6.8 0-12.363-5.564-12.363-12.363zM256 363.615V314.94c0-6.799 5.563-12.363 12.363-12.363h-36.701c-6.8 0-12.363 5.563-12.363 12.363v48.676c0 6.8 5.563 12.363 12.363 12.363h36.701c-6.8-.001-12.363-5.564-12.363-12.364zM256 462.157v-48.676c0-6.8 5.563-12.363 12.363-12.363h-36.701c-6.8 0-12.363 5.563-12.363 12.363v48.676c0 6.8 5.563 12.363 12.363 12.363h36.701c-6.8 0-12.363-5.563-12.363-12.363zM353.74 265.22v-48.676c0-6.8 5.563-12.363 12.363-12.363h-36.701c-6.8 0-12.363 5.563-12.363 12.363v48.676c0 6.799 5.563 12.363 12.363 12.363h36.701c-6.8 0-12.363-5.564-12.363-12.363zM353.74 363.615V314.94c0-6.799 5.563-12.363 12.363-12.363h-36.701c-6.8 0-12.363 5.563-12.363 12.363v48.676c0 6.8 5.563 12.363 12.363 12.363h36.701c-6.8-.001-12.363-5.564-12.363-12.364z" fill="#e6e6e6"></path><path d="M353.74 462.157v-48.676c0-6.8 5.563-12.363 12.363-12.363h-36.701c-6.8 0-12.363 5.563-12.363 12.363v48.676c0 6.8 5.563 12.363 12.363 12.363h36.701c-6.8 0-12.363-5.563-12.363-12.363z" fill="#ea3939"></path><path d="M143.569 353.97a7.726 7.726 0 0 1 0-10.927l18.455-18.456a7.727 7.727 0 0 1 10.927 10.926l-18.455 18.456a7.726 7.726 0 0 1-10.927.001zM140.053 331.991c-5.398-5.359-.479-14.554 6.975-13.033 3.617.699 6.212 3.914 6.212 7.573 0 2.475-1.228 4.964-3.441 6.418a7.803 7.803 0 0 1-2.771 1.154c-.506.103-5.233-.357-6.975-2.112zM165.541 357.489a7.855 7.855 0 0 1-1.669-2.503c-.812-1.961-.754-4.131 0-5.914.814-1.93 2.213-3.349 4.182-4.183a7.713 7.713 0 0 1 7.243.711c1.733 1.143 2.871 2.923 3.286 4.915a7.445 7.445 0 0 1 0 3.018 7.76 7.76 0 0 1-1.154 2.782c-1.144 1.733-2.921 2.872-4.914 3.286-.494.104-5.134-.271-6.974-2.112zM158.26 462.717c-13 0-23.576-11.169-23.576-24.898 0-13.728 10.576-24.897 23.576-24.897s23.576 11.169 23.576 24.897c0 13.729-10.576 24.898-23.576 24.898zm0-34.341c-4.479 0-8.122 4.237-8.122 9.443 0 5.208 3.644 9.444 8.122 9.444 4.479 0 8.122-4.237 8.122-9.444.001-5.206-3.643-9.443-8.122-9.443zM269.05 248.752h-26.1a7.727 7.727 0 0 1 0-15.454h26.099a7.727 7.727 0 0 1 .001 15.454zM241.309 353.97a7.726 7.726 0 0 1 0-10.927l18.455-18.456a7.727 7.727 0 0 1 10.927 10.926l-18.455 18.456a7.726 7.726 0 0 1-10.927.001z" fill="#cccccc"></path><path d="m259.764 353.969-18.455-18.456a7.726 7.726 0 1 1 10.927-10.926l18.455 18.456a7.726 7.726 0 1 1-10.927 10.926zM248.867 434.86c2.685-6.352 11.6-6.308 14.269 0 1.906 4.506-.949 9.654-5.625 10.53-6.075 1.236-11.021-4.912-8.644-10.53zM251.71 229.42c-1.741-1.148-2.874-2.937-3.286-4.915-.418-2.003.029-4.091 1.154-5.8 1.087-1.651 2.823-2.849 4.914-3.287 4.812-.94 9.231 2.738 9.231 7.583 0 3.579-2.468 6.795-6.213 7.572-.494.093-4.132-.058-5.8-1.153zM248.867 262.006a7.615 7.615 0 0 1 0-5.904c.759-1.839 2.174-3.341 4.172-4.182 2.315-.958 4.996-.773 7.253.71 1.686 1.112 2.861 2.871 3.286 4.915 1.4 7.465-11.178 13.018-14.711 4.461zM366.337 434.169h-26.1a7.727 7.727 0 0 1 0-15.454h26.1a7.727 7.727 0 0 1 0 15.454zM366.337 248.609h-26.1a7.727 7.727 0 0 1 0-15.454h26.1a7.727 7.727 0 0 1 0 15.454zM366.337 347.005h-26.1a7.727 7.727 0 0 1 0-15.454h26.1a7.727 7.727 0 0 1 0 15.454z" fill="#cccccc"></path><path d="M353.287 360.054a7.727 7.727 0 0 1-7.727-7.727v-26.099a7.727 7.727 0 0 1 15.454 0v26.099a7.727 7.727 0 0 1-7.727 7.727zM366.337 456.147h-26.1a7.727 7.727 0 0 1 0-15.454h26.1a7.727 7.727 0 0 1 0 15.454z" fill="#cccccc"></path></g></svg>