<svg viewBox="0 0 64 64" xmlns="http://www.w3.org/2000/svg"><g><path d="M40 15h12v2H40zM1 27h9v2H1zM7 19h8v2H7zM3 19h2v2H3zM49 21h6v2h-6z" fill="#4ab8e4"></path><path d="M23.547 14.906 23 16h-6a3.643 3.643 0 0 0-3.074 1.687l-5.563 8.742A2.323 2.323 0 0 0 10.323 30a3.133 3.133 0 0 0 2.607-1.395L18 21h2l-7 16H6v6h13l3-6 5 4 4 9h6l-5-14-7-5 3-7 3.932 3.146a3.897 3.897 0 0 0 3.668.654l7.102-2.367A1.9 1.9 0 0 0 44 23.631a2.631 2.631 0 0 0-3.354-2.53L34 23l-6-6v-1.084z" fill="#fbe1d7"></path><path d="m32.4 21.4-1.95 4.56L28 24l-3 7h-9.37L20 21h-2v-5h5l.55-1.09L28 15.92V17z" fill="#1a5097"></path><path d="M28 17v-1.08l-3.457-.785L17.8 31H25l3-7 2.45 1.96 1.95-4.56z" fill="#205fa6"></path><path d="M37 50h-6l-4-9-5-4-3 6H6v-6h7l2.62-6H25l7 5z" fill="#347e62"></path><path d="m32 36-7-5h-7.2l-5.1 12H19l3-6 5 4 4 9h6z" fill="#3c9271"></path><path d="M25.928 19c.657 0 1.257-.371 1.551-.959L28 17v-1.084l-4.453-1.01L23 16l1.485 2.228c.322.482.863.772 1.443.772z" fill="#e8c2bf"></path><path d="M6 39a2 2 0 0 0-2-2H2v8a4.162 4.162 0 0 0 3.949-2.846L6 42M33 50a2 2 0 0 0-2 2v2h8a4.162 4.162 0 0 0-2.846-3.949L36 50" fill="#3d2f23"></path><path d="M27 2a6 6 0 0 0-6 6v2a6 6 0 1 0 12 0V8a6 6 0 0 0-6-6z" fill="#fbe1d7"></path><path d="M27 7h5.91A5.996 5.996 0 0 0 21 8v2c0 1.7.71 3.231 1.846 4.323L27 11z" fill="#424344"></path><circle cx="47" cy="47" fill="#134681" r="15"></circle><path d="M47 32a14.938 14.938 0 0 0-9.559 3.441A14.938 14.938 0 0 0 34 45c0 8.284 6.716 15 15 15 3.633 0 6.964-1.292 9.559-3.441A14.938 14.938 0 0 0 62 47c0-8.284-6.716-15-15-15z" fill="#1a5097"></path><circle cx="47" cy="47" fill="#b3b4b8" r="11"></circle><path d="M46 37a10.944 10.944 0 0 0-7.254 2.746A10.944 10.944 0 0 0 36 47c0 6.075 4.925 11 11 11 2.783 0 5.317-1.042 7.254-2.746A10.944 10.944 0 0 0 57 48c0-6.075-4.925-11-11-11z" fill="#dbdcde"></path><path d="M46 39h2v7h-2zM47.39 48.37l1.03-1.715 4.146 2.489-1.03 1.716z" fill="#205fa6"></path><path d="M47 49c-1.103 0-2-.897-2-2s.897-2 2-2 2 .897 2 2-.897 2-2 2zm0-2.001V47z" fill="#424344"></path></g></svg>