<svg viewBox="0 0 512 512" xmlns="http://www.w3.org/2000/svg"><g><path d="M444.836 326.427 346.91 404.55 259.264 512H463.98a2.362 2.362 0 0 0 2.362-2.362V372.983c.001-18.645-8.345-35.341-21.506-46.556zM405.202 311.842h-55.745s-98.856 77.337-102.898 73.295l-84.016-73.295h-55.745c-33.767 0-61.141 27.374-61.141 61.141v136.654a2.362 2.362 0 0 0 2.362 2.362h159.735l177.319-147.08 22.782-53.021a63.098 63.098 0 0 0-2.653-.056z" fill="#dd5790"></path><g fill="#da387d"><path d="M45.657 491.396v18.241a2.362 2.362 0 0 0 2.362 2.362h174.106l6.233-20.604H45.657zM444.836 326.427l-19.988 19.988a61.87 61.87 0 0 1 .287 5.964v85.315c0 29.659-24.043 53.702-53.702 53.702h-91.566L250.486 512H463.98a2.362 2.362 0 0 0 2.362-2.362V372.983c.001-18.645-8.345-35.341-21.506-46.556z" fill="#da387d"></path><path d="M126.926 416.364V512h-15.453v-95.636a7.727 7.727 0 0 1 15.453 0zm265.874-7.726a7.726 7.726 0 0 0-7.726 7.726V512h15.453v-95.636a7.727 7.727 0 0 0-7.727-7.726z" fill="#da387d"></path></g><path d="M126.926 491.396V512h-15.453v-20.604zm258.148-1.747V512h15.453v-29.159a53.442 53.442 0 0 1-15.453 6.808z" fill="#d80a61"></path><path d="m263.318 397.981 86.139-86.139H316.64a8.75 8.75 0 0 1-8.75-8.75V267.85c-18.191 12.444-85.59 12.444-103.782 0v35.243a8.75 8.75 0 0 1-8.749 8.75h-32.816l86.139 86.139c4.042 4.041 10.594 4.041 14.636-.001z" fill="#f1f1f4"></path><path d="M316.64 311.842a8.75 8.75 0 0 1-8.75-8.75V267.85c-7.43 5.083-18.498 6.623-25.991 9.808-6.206 2.638-8.916 7.238-14.449 8.419a8.751 8.751 0 0 0 7.982 5.161c12.11 0 18.175 14.642 9.612 23.205l-59.95 59.95 23.587 23.587c4.042 4.042 10.595 4.042 14.636 0l86.139-86.139H316.64z" fill="#dfdde2"></path><path d="M354.687 192.011h-3.154l-9.421-64.724h31.311c12.041 0 21.802 9.761 21.802 21.802v2.385c-.001 22.388-18.15 40.537-40.538 40.537z" fill="#df9380"></path><path d="M157.313 192.011h3.155l4.937-64.724h-26.827c-12.041 0-21.802 9.761-21.802 21.802v2.385c0 22.388 18.149 40.537 40.537 40.537z" fill="#eaac9d"></path><path d="M256 0c-59.222 0-105.968 50.315-101.618 109.377l6.928 94.074c3.653 49.598 64.798 83.969 94.69 83.969s91.037-34.371 94.69-83.969l6.928-94.074C361.968 50.315 315.222 0 256 0z" fill="#ffcbbe"></path><path d="M279.747 2.776c24.439 20.255 39.193 51.647 36.663 85.997l-6.928 94.074c-3.653 49.598-64.797 83.969-94.69 83.969-4.491 0-9.688-.776-15.289-2.263 19.325 14.474 41.726 22.867 56.497 22.867 29.892 0 91.037-34.371 94.69-83.969l6.928-94.074c3.748-50.896-30.446-95.296-77.871-106.601z" fill="#eaac9d"></path><path d="M256 196.45c-7.112 0-12.877-5.766-12.877-12.877v-31.558c0-9.842 7.374-18.224 17.153-19.498 17.027-2.22 29.437-17.45 28.25-34.67-1.129-16.362-13.823-29.057-30.186-30.185-9.18-.632-17.906 2.451-24.582 8.683-6.683 6.238-10.364 14.705-10.364 23.842 0 7.112-5.765 12.877-12.877 12.877s-12.877-5.766-12.877-12.877c0-16.116 6.759-31.668 18.544-42.669 11.952-11.157 27.559-16.679 43.927-15.55 14.085.971 27.303 6.968 37.222 16.886 9.918 9.919 15.915 23.138 16.886 37.221 1.998 28.974-17.589 54.8-45.342 61.045v26.453c0 7.111-5.765 12.877-12.877 12.877z" fill="#756e78"></path><circle cx="256" cy="235.081" fill="#756e78" r="12.877"></circle><path d="M407.856 311.899 207.755 512h51.509l185.573-185.573c-10.046-8.56-22.897-13.927-36.981-14.528z" fill="#f1f1f4"></path><path d="M409.925 312.023c8.236 9.367 13.653 21.273 14.923 34.393l19.988-19.988c-9.551-8.14-21.638-13.391-34.911-14.405zM228.358 491.396 207.755 512h51.509l20.603-20.604z" fill="#dfdde2"></path></g></svg>