<svg viewBox="0 0 512.001 512.001" xmlns="http://www.w3.org/2000/svg"><g><path d="M501.487 341.489c-12.448-10.441-31.002-8.811-41.44 3.636a55.468 55.468 0 0 1-5.574 5.755c-10.032 8.934-22.898 13.464-38.241 13.464-41.857 0-75.91-34.053-75.91-75.909s34.053-75.909 75.91-75.909c15.215 0 29.884 4.477 42.42 12.947 13.463 9.095 31.747 5.554 40.842-7.907 9.095-13.462 5.555-31.747-7.907-40.842-22.3-15.066-48.357-23.03-75.355-23.03-74.296 0-134.741 60.444-134.741 134.74s60.445 134.74 134.741 134.74c29.782 0 56.535-9.807 77.37-28.363a114.3 114.3 0 0 0 11.522-11.883c10.438-12.447 8.811-31-3.637-41.439z" fill="#528fd8"></path><path d="M429.151 422.533c-4.237.431-8.547.641-12.921.641-74.298 0-134.739-60.452-134.739-134.74 0-74.298 60.441-134.739 134.739-134.739 4.374 0 8.726.21 13.037.62-68.211 6.571-121.724 64.216-121.724 134.119 0 69.862 53.45 127.475 121.608 134.099z" fill="#0573ce"></path><path d="M295.291 141.599a77.403 77.403 0 0 0 11.081-39.991c0-42.946-34.94-77.886-77.886-77.886h-61.189c-16.246 0-29.415 13.17-29.415 29.415v210.649a29.414 29.414 0 0 0 29.415 29.415h.131c.563-.003 56.457-.25 71.744-.25 47.485 0 86.116-38.632 86.116-86.116.001-26.057-11.65-49.431-29.997-65.236zm-66.804-59.045c10.507 0 19.055 8.548 19.055 19.055s-8.548 19.055-19.055 19.055c-4.553 0-13.039.024-22.278.057h-9.495V82.554zm10.685 151.568c-7.852 0-26.232.064-42.459.128v-54.662l9.716-.036h32.743c15.045 0 27.285 12.24 27.285 27.285.001 15.044-12.24 27.285-27.285 27.285z" fill="#9be69d"></path><path d="M162.116 263.784V53.138c0-16.243 13.173-29.416 29.416-29.416h-24.233c-16.243 0-29.416 13.173-29.416 29.416v210.646a29.398 29.398 0 0 0 8.663 20.848 29.408 29.408 0 0 0 20.753 8.569h.126c.231 0 9.735-.042 21.92-.095a29.338 29.338 0 0 1-18.567-8.474 29.442 29.442 0 0 1-8.662-20.848z" fill="#6fd7a3"></path><path d="M144.877 240.774c-.102-.27-.207-.538-.317-.805-5.294-12.871-17.702-21.183-31.618-21.183h-.032c-13.928.013-26.337 8.351-31.612 21.242a30.16 30.16 0 0 0-.265.671L1.934 448.382c-5.783 15.182 1.837 32.176 17.02 37.958 15.178 5.781 32.176-1.838 37.958-17.02l12.484-32.778h86.481l12.338 32.694c4.446 11.78 15.638 19.038 27.526 19.038a29.362 29.362 0 0 0 10.381-1.903c15.2-5.736 22.872-22.707 17.135-37.906zM91.803 377.712l21.032-55.222 20.84 55.222z" fill="#fd8087"></path><path d="M112.945 218.79h-.042c-13.92.011-26.336 8.348-31.603 21.237-.095.221-.179.452-.273.673L1.934 448.382c-5.782 15.181 1.84 32.182 17.021 37.964 7.538 2.87 15.518 2.439 22.362-.589-14.235-6.255-21.216-22.667-15.612-37.375L104.808 240.7c.084-.221.168-.452.263-.673 3.711-9.063 10.944-15.865 19.744-19.113a33.942 33.942 0 0 0-11.87-2.124z" fill="#fe646f"></path></g></svg>