<svg viewBox="0 0 511 511.999" xmlns="http://www.w3.org/2000/svg"><g><path d="M424.18 293.941v100.133c0 6.348-5.149 11.496-11.496 11.496h-232.72v94.91c0 10.243-12.382 15.372-19.624 8.13L3.867 352.136c-4.492-4.492-4.492-11.766 0-16.258l156.477-156.473c7.242-7.242 19.625-2.113 19.625 8.13v94.91h232.715c6.347 0 11.496 5.152 11.496 11.495zm0 0" fill="#ff6672"></path><path d="M424.18 293.941v100.133c0 6.348-5.149 11.496-11.496 11.496H387.96c6.344 0 11.496-5.148 11.496-11.496V293.941c0-6.347-5.152-11.496-11.496-11.496h24.723c6.347 0 11.496 5.153 11.496 11.496zM384.508 282.445l-61.078 61.078c-5.11 5.098-11.848 7.914-18.977 7.914-14.906 0-27.031-12.093-27.031-26.972v-42.02zm0 0" fill="#f92f41"></path><path d="M468.973 176.121 312.5 332.594c-7.242 7.242-19.625 2.113-19.625-8.13v-94.91H60.156c-6.343 0-11.496-5.148-11.496-11.495V117.926c0-6.348 5.153-11.496 11.496-11.496h232.719V11.52c0-10.243 12.383-15.372 19.625-8.13l156.473 156.473c4.492 4.492 4.492 11.766 0 16.258zm0 0" fill="#65bafc"></path><path d="M468.973 176.121 312.5 332.594c-7.242 7.242-19.625 2.113-19.625-8.13v-6.581l149.89-149.89-149.89-149.891V11.52c0-10.243 12.383-15.372 19.625-8.13l156.473 156.473c4.492 4.492 4.492 11.766 0 16.258zM195.418 187.535v42.02H88.344l61.078-61.078c5.098-5.102 11.836-7.915 18.965-7.915 14.906 0 27.031 12.098 27.031 26.973zm0 0" fill="#0097fa"></path><path d="M179.965 244.668v-57.133c0-10.242-12.383-15.37-19.625-8.129l-65.258 65.262zm0 0" fill="#ff6672"></path></g></svg>