<svg height="512" viewBox="0 0 58 58" width="512" xmlns="http://www.w3.org/2000/svg"><g id="Page-1" fill="none" fill-rule="evenodd"><g id="036---Dividends" fill-rule="nonzero" transform="translate(0 -1)"><path id="Shape" d="m36 36.39c-.0516993 4.7221853-1.9771712 9.2304227-5.3528299 12.5329421-3.3756588 3.3025195-7.9249852 5.1287932-12.6471701 5.0770579-4.7221849.0517353-9.2715113-1.7745384-12.64717005-5.0770579-3.37565875-3.3025194-5.30113065-7.8107568-5.35282995-12.5329421.10024989-4.2018961 1.31501522-8.3017291 3.52-11.88.76845272-1.2985697 1.65916274-2.5207845 2.66-3.65 1.84267099-2.1522719 4.1841295-3.8208187 6.82-4.86h10c2.6358705 1.0391813 4.977329 2.7077281 6.82 4.86 1.0008373 1.1292155 1.8915473 2.3514303 2.66 3.65 2.2049848 3.5782709 3.4197501 7.6781039 3.52 11.88z" fill="#cb8252"/><path id="Shape" d="m25.91 5.59-3.2 10.41h-9.42l-3.2-10.41c-.17268929-.55949741-.0915178-1.16656937.2220978-1.66104303s.8281706-.82667595 1.4079022-.90895697c.0928761-.01199509.1863619-.01867265.28-.02h2c.0007292-.00767857.0042946-.01480953.01-.02.8696263-1.33799085 2.3985056-2.09668283 3.99-1.98 1.6009333-.12607978 3.1403038.64360549 4 2h2c.1 0 .2.01.3.02.5760779.08745211 1.0853745.42178417 1.3947112.91557005.3093366.49378587.3879521 1.09792204.2152888 1.65442995z" fill="#cb8252"/><path id="Shape" d="m28 17h-20c-.55228475 0-1-.4477153-1-1s.44771525-1 1-1h20c.5522847 0 1 .4477153 1 1s-.4477153 1-1 1z" fill="#a56a43"/><path id="Shape" d="m18 33c-1.1045695 0-2-.8954305-2-2s.8954305-2 2-2 2 .8954305 2 2c0 .5522847.4477153 1 1 1s1-.4477153 1-1c-.0068148-1.8184116-1.2393149-3.4034067-3-3.858v-1.142c0-.5522847-.4477153-1-1-1s-1 .4477153-1 1v1.142c-1.9482742.5014457-3.2190002 2.3742805-2.9650329 4.3699561.2539674 1.9956755 1.953264 3.4905487 3.9650329 3.4880439 1.1045695 0 2 .8954305 2 2s-.8954305 2-2 2-2-.8954305-2-2c0-.5522847-.4477153-1-1-1s-1 .4477153-1 1c.0068148 1.8184116 1.2393149 3.4034067 3 3.858v1.142c0 .5522847.4477153 1 1 1s1-.4477153 1-1v-1.142c1.9482742-.5014457 3.2190002-2.3742805 2.9650329-4.3699561-.2539674-1.9956755-1.953264-3.4905487-3.9650329-3.4880439z" fill="#fff"/><path id="Shape" d="m15.9 8.89c-.1419375.07398195-.2999485.11176719-.46.11-.388322.00448796-.746857-.20754885-.93-.55l-2.79-5.43c.0928761-.01199509.1863619-.01867265.28-.02h2c.0007292-.00767857.0042946-.01480953.01-.02l2.35 4.57c.1194243.23825359.1379587.51453942.0514272.76660934s-.2708497.45871978-.5114272.57339066z" fill="#a56a43"/><path id="Shape" d="m24.3 3.02-2.8 5.43c-.1789134.34168169-.5343329.55416075-.92.55-.1600515.00176719-.3180625-.03601805-.46-.11-.2421537-.1129569-.4279583-.319535-.5147153-.57226191s-.0670056-.52986903.0547153-.76773809l2.34-4.55h2c.1 0 .2.01.3.02z" fill="#a56a43"/><path id="Shape" d="m52.962 40h-12.962c-.5522847 0-1 .4477153-1 1v12.962c-.0016727.2824756-.1215641.551342-.3305828.741359-.2090186.1900169-.4880608.2838175-.7694172.258641-7.9771145-.5868715-14.090403-7.329812-13.8949547-15.326097s6.630867-14.4325051 14.6271276-14.6289491c7.9962606-.1964441 14.7399623 5.9160047 15.3278271 13.8930461.0251496.281012-.0683867.559734-.2579632.7686861-.1895766.2089521-.4579104.329085-.7400368.3313139z" fill="#4fba6f"/><path id="Shape" d="m58 45.1c-.5479079 7.4380017-6.4619983 13.3520921-13.9 13.9-.2811433.024247-.5596584-.0698747-.7684598-.2596942s-.3289625-.4581306-.3315402-.7403058v-13c0-.5522847.4477153-1 1-1h13c.2821752.0025777.5504863.1227388.7403058.3315402s.2839412.4873165.2596942.7684598z" fill="#f29c1f"/><g fill="#fff"><circle id="Oval" cx="36" cy="30" r="1"/><circle id="Oval" cx="41" cy="35" r="1"/><path id="Shape" d="m36 36c-.4043959-.0000863-.7689341-.2437275-.923678-.6173454-.1547439-.373618-.0692299-.8036603.216678-1.0896546l5-5c.3923789-.3789722 1.0160848-.3735524 1.4018186.0121814s.3911536 1.0094397.0121814 1.4018186l-5 5c-.1874927.1875494-.4418052.2929434-.707.293z"/></g></g></g></svg>