<svg viewBox="0 0 337.178 337.178" xmlns="http://www.w3.org/2000/svg"><g><path d="M168.573 131.845c51.548 0 93.494 41.933 93.494 93.489h52.106c0-80.404-65.19-145.592-145.6-145.592-80.407 0-145.595 65.188-145.595 145.592h52.106c.001-51.556 41.944-93.489 93.489-93.489z" fill="#fcc153"></path><path d="M168.591 79.737c-80.433 0-145.595 65.195-145.595 145.592h21.458c0-68.447 55.665-124.137 124.137-124.137 68.447 0 124.14 55.69 124.14 124.137h21.455c0-80.399-65.2-145.592-145.595-145.592z" fill="#eda024"></path><path d="M0 225.347h337.178v52.106H0z" fill="#fcc153"></path><path d="M0 255.99h337.178v21.453H0z" fill="#eda024"></path><path d="M320.922 268.79h1.833v8.648h-1.833zM290.253 268.79h1.838v8.648h-1.838zM259.61 268.79h1.841v8.648h-1.841zM228.966 268.79h1.841v8.648h-1.841zM198.298 268.79h1.838v8.648h-1.838zM167.654 268.79h1.843v8.648h-1.843zM137.011 268.79h1.841v8.648h-1.841zM106.342 268.79h1.833v8.648h-1.833zM75.702 268.79h1.841v8.648h-1.841zM45.053 268.79h1.836v8.648h-1.836zM14.395 268.79h1.838v8.648h-1.838zM305.587 268.79h1.838v8.648h-1.838zM274.944 268.79h1.836v8.648h-1.836zM244.275 268.79h1.838v8.648h-1.838zM213.632 268.79h1.841v8.648h-1.841zM182.989 268.79h1.841v8.648h-1.841zM152.32 268.79h1.841v8.648h-1.841zM121.677 268.79h1.843v8.648h-1.843zM91.034 268.79h1.838v8.648h-1.838zM60.375 268.79h1.836v8.648h-1.836zM29.724 268.79h1.841v8.648h-1.841z" fill="#32373c"></path><path d="M166.784 41.641h3.592v12.585h-3.592z" fill="#efefef"></path><path d="M166.016 53.299h5.146v5.12h-5.146z" fill="#4a5054"></path><path d="M112.038 174.224h113.075v3.599H112.038z" fill="#32373c"></path><path d="M166.016 160.604h5.146v30.822h-5.146z" fill="#efefef"></path><path d="M168.573 105.856c-15.03 0-27.238-12.214-27.238-27.231 0-15.025 12.209-27.246 27.238-27.246 15.02 0 27.233 12.219 27.233 27.246.001 15.017-12.216 27.231-27.233 27.231zm0-51.387c-13.325 0-24.159 10.829-24.159 24.159 0 13.317 10.834 24.151 24.159 24.151 13.317 0 24.154-10.831 24.154-24.151 0-13.33-10.839-24.159-24.154-24.159z" fill="#32373c"></path><path d="M231.311 328.249a.81.81 0 0 0 .458.023l.417-.102a.735.735 0 0 0 .535-.711l-.046-4.595-3.973 1.075 2.26 4.001a.78.78 0 0 0 .349.309z" fill="#4a5054"></path><path d="m230.241 313.785-3.97 1.067 2.432 9.088 3.973-1.075z" fill="#32373c"></path><path d="m226.056 287.076 7.109 26.552a5.125 5.125 0 0 1-.509 3.899 5.162 5.162 0 0 1-3.118 2.394l-.497.133a2.6 2.6 0 0 1-1.956-.259 2.601 2.601 0 0 1-1.201-1.556l-7.777-29.041 7.949-2.122z" fill="#efefef"></path><path d="m194.145 199.747 10.816 40.381 14.889-3.986-40.811-152.32-5.21 1.393-5.256 19.105 13.597 50.76 5.178-1.388 11.963 44.68z" fill="#4a5054"></path><path d="m204.961 240.128 20.101 75.047 3.753-1.012 4.624-27.33-13.589-50.691z" fill="#32373c"></path><circle cx="228.89" cy="289.731" fill="#efefef" r="10.266"></circle><path d="M231.37 289.052a2.564 2.564 0 0 1-1.818 3.146 2.578 2.578 0 0 1-3.146-1.815 2.562 2.562 0 0 1 1.815-3.146 2.567 2.567 0 0 1 3.149 1.815z" fill="#4a5054"></path><path d="M208.322 212.848h1.544v25.702h-1.544z" fill="#32373c" transform="scale(-1) rotate(-14.821 -1735.291 1607.624)"></path><path d="M216.427 212.816h5.146v20.557h-5.146z" fill="#efefef" transform="rotate(164.972 218.999 223.094)"></path><path d="M199.61 225.434h2.061v5.146h-2.061z" fill="#efefef" transform="rotate(165.016 200.642 228.008)"></path><path d="m108.104 314.112-2.681 9.987-.056 4.173 2.043-3.646 2.678-9.979z" fill="#cdd3da"></path><path d="m108.621 304.233-3.19 11.912a3.06 3.06 0 0 0 .312 2.342 3.076 3.076 0 0 0 4.209 1.119 3.043 3.043 0 0 0 1.434-1.871l3.19-11.912-5.955-1.59z" fill="#efefef"></path><path d="m137.825 198.372 11.973-44.68 5.172 1.388 13.603-50.76-5.255-19.105-5.215-1.393-54.395 203.011 4.616 27.338 3.743 1.004 30.932-115.428z" fill="#4a5054"></path><circle cx="168.576" cy="104.32" fill="#efefef" r="10.266"></circle><circle cx="168.576" cy="104.32" fill="#4a5054" r="2.56"></circle><path d="M141.286 176.031a2.56 2.56 0 0 1-2.575 2.563 2.555 2.555 0 0 1-2.56-2.563 2.572 2.572 0 0 1 2.56-2.575 2.578 2.578 0 0 1 2.575 2.575zM200.993 176.031a2.556 2.556 0 0 1-2.568 2.563 2.555 2.555 0 0 1-2.568-2.563 2.572 2.572 0 0 1 2.568-2.575 2.574 2.574 0 0 1 2.568 2.575z" fill="#32373c"></path><path d="M127.567 173.456h5.146v5.146h-5.146zM204.442 173.456h5.146v5.146h-5.146z" fill="#efefef"></path><path d="M175.767 35.932 172.168 50h-7.196l-3.592-14.068z" fill="#4a5054"></path><path d="M161.382 8.883h14.387v27.046h-14.387z" fill="#32373c"></path></g></svg>