<svg viewBox="0 0 512 512" xmlns="http://www.w3.org/2000/svg"><g><path d="M352 64h80v256h-80z" fill="#4182c3"></path><path d="M352 64h40v256h-40z" fill="#64afe1"></path><path d="M360 360h64v24h-64z" fill="#a5c3dc"></path><path d="M360 368h32v16h-32z" fill="#d7e6f0"></path><path d="M432 320h-80a8 8 0 0 0-8 8v24a8 8 0 0 0 8 8h80a8 8 0 0 0 8-8v-24a8 8 0 0 0-8-8z" fill="#64afe1"></path><path d="M392 320h-40a8 8 0 0 0-8 8v24a8 8 0 0 0 8 8h40a8 8 0 0 0 8-8v-24a8 8 0 0 0-8-8z" fill="#78d2f0"></path><path d="M448 400c-8.836 0-16-7.164-16-16v-8a8 8 0 0 0-16 0v8h-56a8 8 0 0 0-8 8v48a8 8 0 0 0 8 8h112a8 8 0 0 0 8-8v-8c0-17.673-14.327-32-32-32z" fill="#e1322d"></path><path d="M384 440v-48a8 8 0 0 1 8-8h-32a8 8 0 0 0-8 8v48a8 8 0 0 0 8 8h32a8 8 0 0 1-8-8zM448 168a8 8 0 0 1-5.657-13.656l16-16a8 8 0 0 1 11.314 0l2.343 2.343 10.343-10.343a8 8 0 0 1 11.314 11.313l-16 16a8 8 0 0 1-11.314 0L464 155.313l-10.343 10.343A7.971 7.971 0 0 1 448 168zM488 256a7.974 7.974 0 0 1-5.657-2.343L472 243.313l-2.343 2.343a8 8 0 0 1-11.314 0l-16-16a8 8 0 1 1 11.314-11.313L464 228.687l2.343-2.343a8 8 0 0 1 11.314 0l16 16A8 8 0 0 1 488 256z" fill="#f04b37"></path><path d="M240 288h-80v32c0 8.836 7.164 16 16 16h48v24h-12c-11.046 0-20 8.954-20 20s8.954 20 20 20h28c17.673 0 32-14.327 32-32v-48c0-17.673-14.327-32-32-32z" fill="#f0915a"></path><path d="M392 160h-32v-16c0-13.255-10.745-24-24-24h-48c-8.837 0-16 7.163-16 16v8H16v144h32l10.912 10.912a71.968 71.968 0 0 0 24.274 15.961L47.029 351.03A23.999 23.999 0 0 0 40 368v56c0 13.255 10.745 24 24 24h28c11.046 0 20-8.954 20-20s-8.954-20-20-20h-4v-30.059l56.971-56.97c.312-.312.586-.646.877-.971h39.264c30.821 0 54.863-25.206 54.888-56.027.015-17.661 14.336-31.973 32-31.973h104c13.255 0 24-10.745 24-24v-40a8 8 0 0 0-8-8z" fill="#fab991"></path><path d="M272 160h88v-16c0-13.255-10.745-24-24-24h-48c-8.837 0-16 7.163-16 16z" fill="#f0915a"></path><path d="M232 224c-22.092 0-40-17.909-40-40 0-35.346 28.654-64 64-64h32c-8.837 0-16 7.163-16 16v48c0 22.091-17.909 40-40 40zM304 144a8 8 0 1 1-8-8zM344 144a8 8 0 0 1-16 0l8-8a8 8 0 0 1 8 8z" fill="#463c4b"></path><path d="M376 168v16c0 13.255-10.745 24-24 24h-48c-13.255 0-24 10.745-24 24h96c13.255 0 24-10.745 24-24v-40a8 8 0 0 0-8-8h-8a8 8 0 0 0-8 8z" fill="#f0915a"></path><path d="M388 184c6.627 0 12-5.373 12-12v-4a8 8 0 0 0-8-8h-8a8 8 0 0 0-8 8v4c0 6.627 5.373 12 12 12z" fill="#463c4b"></path><path d="M308 200h92v8h-92a4 4 0 0 1 0-8z" fill="#d7e6f0"></path><path d="M352 208h80v24h-80z" fill="#4182c3"></path></g></svg>