<svg height="512" viewBox="0 0 58 58" width="512" xmlns="http://www.w3.org/2000/svg"><g id="Page-1" fill="none" fill-rule="evenodd"><g id="039---Handing-Over-Copy" fill-rule="nonzero"><path id="Shape" d="m37 56c-.0032948 1.1032019-.8967981 1.9967052-2 2h-33c-1.10320187-.0032948-1.9967052-.8967981-2-2v-46l10-10h25c1.1032019.0032948 1.9967052.89679813 2 2z" fill="#8697cb"/><path id="Shape" d="m0 10 10-10v8c-.0032948 1.10320187-.89679813 1.9967052-2 2z" fill="#556080"/><g fill="#fff"><path id="Shape" d="m12 17h-6c-.55228475 0-1-.4477153-1-1s.44771525-1 1-1h6c.5522847 0 1 .4477153 1 1s-.4477153 1-1 1z"/><path id="Shape" d="m32 17h-16c-.5522847 0-1-.4477153-1-1s.4477153-1 1-1h16c.5522847 0 1 .4477153 1 1s-.4477153 1-1 1z"/><path id="Shape" d="m22 22h-16c-.55228475 0-1-.4477153-1-1s.44771525-1 1-1h16c.5522847 0 1 .4477153 1 1s-.4477153 1-1 1z"/><path id="Shape" d="m12 27h-6c-.55228475 0-1-.4477153-1-1s.44771525-1 1-1h6c.5522847 0 1 .4477153 1 1s-.4477153 1-1 1z"/><path id="Shape" d="m22.53 27h-6.53c-.5522847 0-1-.4477153-1-1s.4477153-1 1-1h6.53c.5522847 0 1 .4477153 1 1s-.4477153 1-1 1z"/><path id="Shape" d="m20.62 32h-14.62c-.55228475 0-1-.4477153-1-1s.44771525-1 1-1h14.62c.5522847 0 1 .4477153 1 1s-.4477153 1-1 1z"/><path id="Shape" d="m12 37h-6c-.55228475 0-1-.4477153-1-1s.44771525-1 1-1h6c.5522847 0 1 .4477153 1 1s-.4477153 1-1 1z"/><path id="Shape" d="m19.46 37h-3.46c-.5522847 0-1-.4477153-1-1s.4477153-1 1-1h3.46c.5522847 0 1 .4477153 1 1s-.4477153 1-1 1z"/><path id="Shape" d="m21.84 42h-15.84c-.55228475 0-1-.4477153-1-1s.44771525-1 1-1h15.84c.5522847 0 1 .4477153 1 1s-.4477153 1-1 1z"/><path id="Shape" d="m12 47h-6c-.55228475 0-1-.4477153-1-1s.44771525-1 1-1h6c.5522847 0 1 .4477153 1 1s-.4477153 1-1 1z"/><path id="Shape" d="m32 47h-16c-.5522847 0-1-.4477153-1-1s.4477153-1 1-1h16c.5522847 0 1 .4477153 1 1s-.4477153 1-1 1z"/><path id="Shape" d="m32 52h-6c-.5522847 0-1-.4477153-1-1s.4477153-1 1-1h6c.5522847 0 1 .4477153 1 1s-.4477153 1-1 1z"/><path id="Shape" d="m22 52h-16c-.55228475 0-1-.4477153-1-1s.44771525-1 1-1h16c.5522847 0 1 .4477153 1 1s-.4477153 1-1 1z"/></g><path id="Shape" d="m51.75 28v22h-6.03c-.9991874-.0055251-1.9761828.2945521-2.8.86-1.7542592 1.2070022-3.7967792 1.9280946-5.92 2.09v-16.83c-.03-.13-.06-.27-.08-.4-.0055228 0-.01-.0044772-.01-.01-.1746531-1.076294-.1746531-2.173706 0-3.25l-4.25-2.13-2.45 6.42c-.526318 1.3489304-1.8220589 2.2404952-3.27 2.25-.2390777.0030642-.4775987-.0238114-.71-.08-.1846801-.0312939-.3656383-.08156-.54-.15-1.3553237-.5182209-2.2503423-1.8189813-2.25-3.27-.0023-.4273944.07572-.8514163.23-1.25l.86-2.25 2.52-6.63.5-1.32c.1096509-.2936134.2612222-.56981.45-.82.9185866-1.2374755 2.5341073-1.7354931 3.99-1.23l5.01 1.93 7 2.69c1.6899583.8348423 3.5365729 1.3050136 5.42 1.38z" fill="#fdd7ad"/><path id="Shape" d="m42.99 41.12c-.0605761.501169-.4851853.8785995-.99.88-.0402597.0016438-.0805677-.0017152-.12-.01-1.8116056-.1436406-3.5260015-.8778798-4.88-2.09v-3.78c-.03-.13-.06-.27-.08-.4.0212403.05522.0379619.1120735.05.17.56 2.38 2.29 3.76 5.15 4.12.5459565.0677005.9346967.5636794.87 1.11z" fill="#f9c795"/><rect id="Rectangle-path" fill="#ff5364" height="26" rx="2" width="7" x="51" y="26"/></g></g></svg>