<svg fill-rule="evenodd" viewBox="0 0 267 267" xmlns="http://www.w3.org/2000/svg"><g><path d="M252.083 133.333c0-8.053-3.167-17.735-8.643-28.044-8.018-15.092-20.978-31.607-35.717-46.345-14.738-14.739-31.253-27.699-46.346-35.717-10.308-5.477-19.99-8.644-28.044-8.644-8.053 0-17.735 3.167-28.044 8.644-15.092 8.018-31.607 20.978-46.345 35.717-14.739 14.738-27.699 31.253-35.717 46.345-5.477 10.309-8.644 19.991-8.644 28.044 0 8.054 3.167 17.736 8.644 28.044 8.018 15.093 20.978 31.608 35.717 46.346 14.738 14.739 31.253 27.699 46.345 35.717 10.309 5.476 19.991 8.643 28.044 8.643 8.054 0 17.736-3.167 28.044-8.643 15.093-8.018 31.608-20.978 46.346-35.717 14.739-14.738 27.699-31.253 35.717-46.346 5.476-10.308 8.643-19.99 8.643-28.044z" fill="#616ecc"></path><path d="M230.74 133.333c0-5.228-2.594-11.338-6.149-18.03-7.152-13.464-18.812-28.12-31.96-41.267-13.148-13.148-27.804-24.808-41.267-31.96-6.692-3.556-12.802-6.149-18.031-6.149-5.228 0-11.338 2.593-18.03 6.149-13.464 7.152-28.12 18.812-41.267 31.96-13.148 13.147-24.808 27.803-31.96 41.267-3.556 6.692-6.149 12.802-6.149 18.03 0 5.229 2.593 11.339 6.149 18.031 7.152 13.463 18.812 28.119 31.96 41.267 13.147 13.148 27.803 24.808 41.267 31.96 6.692 3.555 12.802 6.149 18.03 6.149 5.229 0 11.339-2.594 18.031-6.149 13.463-7.152 28.119-18.812 41.267-31.96s24.808-27.804 31.96-41.267c3.555-6.692 6.149-12.802 6.149-18.031z" fill="#d9defb"></path><path d="M133.986 166.632c-8.633 0-15.642 7.009-15.642 15.642 0 8.634 7.009 15.643 15.642 15.643 8.634 0 15.643-7.009 15.643-15.643 0-8.633-7.009-15.642-15.643-15.642zm13.656-92.657c-.831-1.423-2.348-2.636-4.353-3.507-2.536-1.103-5.9-1.697-9.244-1.717-3.369-.021-6.71.544-9.175 1.658-1.994.901-3.452 2.183-4.186 3.716-10.96 22.876-7.669 51.883-.11 76.096.63 2.02 2.141 3.553 4.268 4.567 2.614 1.246 6.243 1.693 9.833 1.476 4.156-.251 8.234-1.39 10.579-2.931 1.403-.922 2.269-2.038 2.591-3.156 4.883-16.956 6.308-41.456 4.359-58.67-.864-7.637-2.426-13.874-4.562-17.532z" fill="#616ecc"></path></g></svg>