<svg viewBox="0 0 60 60" xmlns="http://www.w3.org/2000/svg"><g><path d="M57 59H3a2 2 0 0 1-2-2V36l1-1h56l1 1v21a2 2 0 0 1-2 2z" fill="#299989"></path><path d="M50.76 22a2 2 0 0 1 1.79 1.11L59 36H1l6.45-12.89A2 2 0 0 1 9.24 22z" fill="#31b5a5"></path><path d="M16.64 26H14a3 3 0 0 0 0 6h32a3 3 0 0 0 0-6z" fill="#299989"></path><path d="M45.89 6.71 42 32H17.84L12.02 2.83a.987.987 0 0 1 .73-1.16A31.237 31.237 0 0 1 19.68 1a36.069 36.069 0 0 1 7.38.7.99.99 0 0 1 .77 1.16l-.32 1.75c.65-.11 1.34-.21 2.09-.29A45.5 45.5 0 0 1 35 4c5.85 0 9.03 1.07 10.31 1.65a.975.975 0 0 1 .58 1.06z" fill="#d6dbe3"></path><g fill="#257c6d"><path d="M15 55h-2a1 1 0 0 1 0-2h2a1 1 0 0 1 0 2zM59 55H19a1 1 0 0 1 0-2h40zM1 53h8a1 1 0 0 1 0 2H1zM47 42h-2a1 1 0 0 1 0-2h2a1 1 0 0 1 0 2zM1 40h40a1 1 0 0 1 0 2H1zM59 42h-8a1 1 0 0 1 0-2h8z" fill="#257c6d"></path></g><path d="m29.6 4.32-1.63 9a1 1 0 0 1-.98.82 1.1 1.1 0 0 1-.18-.02 1 1 0 0 1-.81-1.16l1.51-8.35c.65-.11 1.34-.21 2.09-.29z" fill="#b9bfcc"></path></g></svg>