<svg viewBox="0 0 512 512" xmlns="http://www.w3.org/2000/svg"><g><path d="M399.391 373.364H112.609c-25.185 0-45.602 20.417-45.602 45.602v82.732c0 5.69 4.612 10.302 10.302 10.302h150.055l1.536-2.682 14.442-74.868 8.792 9.988a5.152 5.152 0 0 0 7.732 0l8.792-9.987 14.443 74.87 1.535 2.679h150.056c5.69 0 10.302-4.612 10.302-10.302v-82.732c-.001-25.186-20.418-45.602-45.603-45.602z" fill="#eaf9fa"></path><path d="M128.258 501.698v-82.733c0-25.185 20.417-45.602 45.602-45.602h-61.251c-25.185 0-45.602 20.417-45.602 45.602v82.733c0 5.69 4.612 10.302 10.302 10.302h61.251c-5.69 0-10.302-4.612-10.302-10.302z" fill="#d4f2f6"></path><path d="M259.115 443.777a4.15 4.15 0 0 1-6.231 0l-10.139-11.518L227.364 512h57.272l-15.382-79.74z" fill="#fe646f"></path><path d="M259.991 389.369a5.996 5.996 0 0 0-7.984 0l-27.092 24.148 27.219 30.922a5.151 5.151 0 0 0 7.733 0l27.219-30.921z" fill="#fb2b3a"></path><path d="m303.327 347.562-18.703-14.23a47.164 47.164 0 0 1-3.291.129h-50.666c-1.108 0-2.202-.053-3.291-.129l-18.703 14.23a13.592 13.592 0 0 0-5.362 10.818v64.241c0 4.448 5.258 6.805 8.578 3.845l40.784-36.351a5 5 0 0 1 6.654 0l40.784 36.351c3.32 2.959 8.578.603 8.578-3.845V358.38c0-4.246-1.984-8.247-5.362-10.818z" fill="#d4f2f6"></path><path d="M227.365 358.538v-24.204c-.397-.027-.794-.053-1.187-.09l-17.504 13.318a13.592 13.592 0 0 0-5.362 10.818v64.241c0 4.448 5.258 6.805 8.578 3.845l17.326-15.443v-50.636z" fill="#a6e7f0"></path><path d="M281.333 333.461h-50.666c-1.111 0-2.21-.053-3.302-.13v23.135c0 1.327.527 2.599 1.466 3.537l23.635 23.616a5 5 0 0 0 7.068 0l23.635-23.616a4.998 4.998 0 0 0 1.466-3.537v-23.135c-1.092.077-2.191.13-3.302.13z" fill="#ffa78f"></path><path d="M252.466 383.619a5 5 0 0 0 7.068 0l13.731-13.719-18.47-18.455a4.998 4.998 0 0 1-1.466-3.537v-14.447h-22.662c-1.111 0-2.21-.053-3.302-.13v23.135c0 1.327.527 2.599 1.466 3.537z" fill="#f89580"></path><path d="M310.13 146.046v36.063h2.731c8.29 0 15.034 6.744 15.034 15.034v26.553h11.802c5.012 0 9.72 1.317 13.805 3.615v-62.239c0-19.298-15.644-34.941-34.941-34.941h-12.406a33.72 33.72 0 0 1 3.975 15.915z" fill="#704444"></path><path d="M184.104 223.696v-26.553c0-8.29 6.744-15.034 15.034-15.034v-2h-3.337c-18.545 0-34.545-13.792-37.304-32.113v79.315a28.078 28.078 0 0 1 13.806-3.615z" fill="#855151"></path><path d="M311.13 181.11H195.801c-19.239 0-35.561-14.123-38.325-33.162l-1.216-8.37c-2.181-15.015 9.463-28.473 24.636-28.473h95.292c19.298 0 34.941 15.644 34.941 34.941v35.064z" fill="#855151"></path><path d="m200.819 147.948-1.216-8.37c-2.181-15.016 9.463-28.473 24.636-28.473h-43.344c-15.173 0-26.817 13.457-24.636 28.473l1.216 8.37c2.765 19.039 19.087 33.162 38.325 33.162h43.344c-19.238 0-35.56-14.123-38.325-33.162z" fill="#704444"></path><path d="M184.104 286.898v-64.202h-11.801c-16.162 0-29.264 13.102-29.264 29.264v5.682c0 16.162 13.102 29.264 29.264 29.264h11.801v-.008z" fill="#f89580"></path><path d="M339.697 222.696h-11.801v64.209h11.802c16.162 0 29.264-13.102 29.264-29.264v-5.682c-.002-16.161-13.103-29.263-29.265-29.263z" fill="#ffb09e"></path><path d="M281.333 334.461h-50.666c-26.268 0-47.562-21.294-47.562-47.562v-89.755c0-8.855 7.179-16.034 16.034-16.034h113.724c8.855 0 16.034 7.179 16.034 16.034v89.755c-.002 26.267-21.296 47.562-47.564 47.562z" fill="#ffcebf"></path><path d="M217.883 286.899v-89.755c0-8.855 7.179-16.034 16.034-16.034h-34.779c-8.855 0-16.034 7.179-16.034 16.034v89.755c0 26.268 21.294 47.562 47.562 47.562h34.779c-26.267 0-47.562-21.294-47.562-47.562z" fill="#ffb09e"></path><path d="M292.081 241.714a30.823 30.823 0 0 1-18.146-5.914 7.499 7.499 0 0 1-1.659-10.476 7.502 7.502 0 0 1 10.476-1.66 15.832 15.832 0 0 0 18.657 0 7.5 7.5 0 0 1 8.817 12.136 30.822 30.822 0 0 1-18.145 5.914zM219.919 241.715a30.819 30.819 0 0 1-18.145-5.915 7.5 7.5 0 1 1 8.817-12.135 15.83 15.83 0 0 0 18.657 0 7.5 7.5 0 0 1 8.817 12.135 30.822 30.822 0 0 1-18.146 5.915zM255.993 279.348a7.465 7.465 0 0 1-3.921-1.112l-17.836-10.969a7.498 7.498 0 0 1-1.565-11.493l17.836-19.196a7.502 7.502 0 0 1 10.6-.39 7.501 7.501 0 0 1 .389 10.6l-11.609 12.495 10.043 6.177a7.5 7.5 0 0 1-3.937 13.888zM276.73 308.744h-41.46a13.255 13.255 0 0 1-11.484-6.664l-2.933-5.133a7.498 7.498 0 0 1 2.791-10.232 7.498 7.498 0 0 1 10.232 2.791l2.422 4.238h39.403l2.423-4.239a7.501 7.501 0 0 1 13.023 7.443l-2.934 5.132a13.253 13.253 0 0 1-11.483 6.664z" fill="#ec806b"></path><path d="m429.105 180.62-42.884 33.8a3.09 3.09 0 0 0 0 4.854l42.884 33.8c2.027 1.598 5.004.154 5.004-2.427V237.2a3.091 3.091 0 0 1 3.091-3.091h68.847a3.091 3.091 0 0 0 3.091-3.091v-28.345a3.091 3.091 0 0 0-3.091-3.091H437.2a3.091 3.091 0 0 1-3.091-3.091v-13.447c-.001-2.578-2.977-4.022-5.004-2.424z" fill="#05e39c"></path><g fill="#0ed290"><path d="m429.105 240.075-37.717-29.727-5.167 4.073a3.09 3.09 0 0 0 0 4.854l42.884 33.8c2.027 1.598 5.004.154 5.004-2.427v-13c-.001 2.581-2.977 4.024-5.004 2.427zM506.046 221.11h-68.847a3.09 3.09 0 0 0-3.09 3.091v13a3.09 3.09 0 0 1 3.09-3.091h68.847a3.091 3.091 0 0 0 3.091-3.091v-13a3.091 3.091 0 0 1-3.091 3.091z" fill="#0ed290"></path></g><path d="m382.504 58.808-6.423 54.224a3.091 3.091 0 0 0 3.433 3.433l54.224-6.423c2.563-.304 3.647-3.429 1.822-5.254l-9.508-9.508a3.09 3.09 0 0 1 0-4.371l35.65-35.65a3.09 3.09 0 0 0 0-4.371l-20.043-20.043a3.09 3.09 0 0 0-4.371 0l-35.65 35.65a3.09 3.09 0 0 1-4.371 0l-9.508-9.508c-1.826-1.826-4.952-.742-5.255 1.821z" fill="#6cf5c2"></path><g fill="#05e39c"><path d="M407.661 76.555a3.09 3.09 0 0 0 4.371 0l35.65-35.649a3.089 3.089 0 0 1 3.368-.668l-9.392-9.392a3.09 3.09 0 0 0-4.371 0l-35.649 35.65a3.09 3.09 0 0 1-3.368.669zM392.898 68.868c.253-2.136 2.464-3.237 4.25-2.492l-9.391-9.391c-1.825-1.825-4.951-.741-5.254 1.822l-6.423 54.224a3.091 3.091 0 0 0 3.433 3.433l7.857-.931z" fill="#05e39c"></path></g><path d="m129.496 58.808 6.423 54.224a3.091 3.091 0 0 1-3.433 3.433l-54.224-6.423c-2.563-.304-3.647-3.429-1.822-5.254l9.508-9.508a3.09 3.09 0 0 0 0-4.371L50.3 55.258a3.09 3.09 0 0 1 0-4.371l20.043-20.043a3.09 3.09 0 0 1 4.371 0l35.65 35.65a3.09 3.09 0 0 0 4.371 0l9.508-9.508c1.824-1.825 4.95-.741 5.253 1.822z" fill="#6cf5c2"></path><g fill="#05e39c"><path d="m96.508 79.921-35.65-35.65a3.082 3.082 0 0 1-.714-3.228L50.3 50.887a3.09 3.09 0 0 0 0 4.371l35.649 35.649a3.09 3.09 0 0 1 .679 3.347l9.879-9.963a3.089 3.089 0 0 0 .001-4.37zM134.911 104.514l-46.089-5.46c-2.128-.252-3.23-2.448-2.5-4.231a3.06 3.06 0 0 1-.372.455l-9.508 9.508c-1.825 1.825-.741 4.951 1.822 5.254l54.224 6.423a3.091 3.091 0 0 0 3.433-3.433z" fill="#05e39c"></path></g><path d="m129.496 382.439 6.423-54.224a3.091 3.091 0 0 0-3.433-3.433l-54.224 6.423c-2.563.304-3.647 3.429-1.822 5.254l9.508 9.508a3.09 3.09 0 0 1 0 4.371l-35.65 35.65a3.09 3.09 0 0 0 0 4.371l20.043 20.043a3.09 3.09 0 0 0 4.371 0l35.65-35.65a3.09 3.09 0 0 1 4.371 0l9.508 9.508c1.826 1.826 4.952.743 5.255-1.821z" fill="#6cf5c2"></path><g fill="#05e39c"><path d="m59.222 394.911 35.65-35.65a3.09 3.09 0 0 0 0-4.371l-8.922-8.922a3.09 3.09 0 0 1 0 4.371l-35.65 35.65a3.09 3.09 0 0 0 0 4.371l8.922 8.922a3.09 3.09 0 0 1 0-4.371zM85.363 345.383c-1.825-1.825-.741-4.951 1.822-5.254l47.997-5.686.738-6.227a3.091 3.091 0 0 0-3.433-3.433l-54.224 6.423c-2.563.304-3.647 3.429-1.822 5.254z" fill="#05e39c"></path></g><path d="m382.504 382.439-6.423-54.224a3.091 3.091 0 0 1 3.433-3.433l54.224 6.423c2.563.304 3.647 3.429 1.822 5.254l-9.508 9.508a3.09 3.09 0 0 0 0 4.371l35.65 35.65a3.09 3.09 0 0 1 0 4.371l-20.043 20.043a3.09 3.09 0 0 1-4.371 0l-35.65-35.65a3.09 3.09 0 0 0-4.371 0l-9.508 9.508c-1.826 1.826-4.952.743-5.255-1.821z" fill="#6cf5c2"></path><path d="m391.855 373.088-5.628-47.51-6.714-.795a3.091 3.091 0 0 0-3.433 3.433l6.423 54.224c.304 2.563 3.429 3.647 5.254 1.822l9.351-9.351c-1.824 1.824-4.949.74-5.253-1.823z" fill="#05e39c"></path><path d="m406.771 365.249-.012.011z" fill="#ffc344"></path><path d="M451.009 401.051a3.09 3.09 0 0 1-4.371 0l-35.649-35.649a3.09 3.09 0 0 0-4.37 0l-9.352 9.352a3.09 3.09 0 0 1 4.371 0l35.649 35.649a3.09 3.09 0 0 0 4.371 0l9.65-9.649z" fill="#05e39c"></path><path d="m451.307 400.753.701-.701z" fill="#ffc344"></path><path d="m82.895 253.075 42.884-33.8a3.09 3.09 0 0 0 0-4.854l-42.884-33.8c-2.027-1.598-5.004-.154-5.004 2.427v13.447a3.091 3.091 0 0 1-3.091 3.091H5.954a3.091 3.091 0 0 0-3.091 3.091v28.345a3.091 3.091 0 0 0 3.091 3.091h68.847a3.091 3.091 0 0 1 3.091 3.091v13.447c0 2.578 2.976 4.021 5.003 2.424z" fill="#05e39c"></path><g fill="#0ed290"><path d="m82.895 193.669 37.686 29.703 5.199-4.097a3.09 3.09 0 0 0 0-4.854l-42.884-33.8c-2.027-1.598-5.004-.154-5.004 2.427v13.049c0-2.582 2.976-4.026 5.003-2.428zM74.801 199.584H5.954a3.091 3.091 0 0 0-3.091 3.091v13.049a3.091 3.091 0 0 1 3.091-3.091h68.847a3.091 3.091 0 0 0 3.091-3.091V196.493a3.09 3.09 0 0 1-3.091 3.091z" fill="#0ed290"></path></g><path d="m219.773 80.032 33.8 42.884a3.091 3.091 0 0 0 4.855 0l33.8-42.884c1.598-2.027.154-5.004-2.427-5.004h-13.447a3.091 3.091 0 0 1-3.091-3.091V3.091A3.091 3.091 0 0 0 270.172 0h-28.345a3.091 3.091 0 0 0-3.091 3.091v68.847a3.091 3.091 0 0 1-3.091 3.091H222.2c-2.581-.001-4.025 2.976-2.427 5.003z" fill="#05e39c"></path><g fill="#0ed290"><path d="M251.198 73.935a3.091 3.091 0 0 0 3.091-3.091V1.997c0-.766.289-1.457.75-1.997h-13.211a3.091 3.091 0 0 0-3.091 3.091v68.847c0 .766-.289 1.457-.75 1.997zM235.324 78.938c-.985-1.25-.811-2.859.07-3.91H222.2c-2.581 0-4.025 2.977-2.427 5.004l33.8 42.884a3.09 3.09 0 0 0 4.854 0l5.78-7.333z" fill="#0ed290"></path></g></g></svg>