<svg viewBox="0 0 512 512" xmlns="http://www.w3.org/2000/svg"><g><path clip-rule="evenodd" d="M123.902 53.98c-34.614 9.079-50.462 36.199-44.07 75.542l6.275 38.579h230.129l5.568-38.579C338.713 12.816 156.336-25.205 123.902 53.98z" fill="#554e56" fill-rule="evenodd"></path><path clip-rule="evenodd" d="M80.598 168.101c-46.132 0-38.266 65.082 10.281 61.468 9.78-21.302 7.365-42.017-4.772-61.468zM316.236 168.101c-17.822 19.921-21.681 40.812-4.772 61.468 48.547 3.614 56.413-61.468 10.31-61.468z" fill="#f6a96c" fill-rule="evenodd"></path><path clip-rule="evenodd" d="M152.712 23.041c61.156-4.437 137.777 36.228 131.06 111.094a101.741 101.741 0 0 1-.707 5.847L279 168.101h37.235l5.568-38.579C335.767 33.177 213.897-9.544 152.712 23.041z" fill="#433f43" fill-rule="evenodd"></path><path clip-rule="evenodd" d="m200.818 132.666-63.777.088c-27.956.059-33.936 3.526-50.934 35.347v34.789c0 8.58 1.709 17.6 4.772 26.679 3.977 11.665 10.31 23.447 18.353 34.436l90.172 24.152 93.707-24.152c8.072-10.989 14.376-22.771 18.353-34.436 3.093-9.079 4.772-18.099 4.772-26.679v-34.789c-16.997-31.821-23.655-35.288-51.641-35.347z" fill="#fed2a4" fill-rule="evenodd"></path><path clip-rule="evenodd" d="M241.942 132.725c55.559.147 60.832 54.534 46.456 96.815-2.916 8.521-7.07 23.006-12.255 34.465a87.705 87.705 0 0 1-2.445 4.995l17.734-4.554 1.679-.441c8.072-10.989 14.376-22.771 18.353-34.436 3.093-9.079 4.772-18.099 4.772-26.679v-34.789c-16.997-31.821-23.655-35.288-51.641-35.347z" fill="#ffbd86" fill-rule="evenodd"></path><path d="M219.96 200.922a7.683 7.683 0 0 1-3.333-.761c-10.69-5.122-20.224-5.122-30.912 0a7.727 7.727 0 0 1-6.677-13.936c14.893-7.137 29.373-7.137 44.266 0a7.727 7.727 0 0 1-3.344 14.697z" fill="#554e56"></path><path clip-rule="evenodd" d="M236.58 168.101c-9.132 0-16.615 7.463-16.615 16.572v18.1c0 9.109 7.482 16.572 16.615 16.572h15.348c9.132 0 16.615-7.463 16.615-16.572v-18.099c0-9.109-7.482-16.572-16.615-16.572H236.58zM150.415 168.101c-9.132 0-16.615 7.463-16.615 16.572v18.099c0 9.109 7.482 16.572 16.615 16.572h15.348c9.132 0 16.615-7.463 16.615-16.572v-18.1c0-9.109-7.482-16.572-16.615-16.572h-15.348zM47.281 369.222C7.718 383.12 0 414.089 0 446.292v47.335c0 3.379 2.769 6.141 6.127 6.141h64.219l30.666-60.41-31.786-77.863zM333.145 361.495l-36.381 79.92 35.232 58.353h64.219c3.388 0 6.157-2.762 6.157-6.141v-47.335c0-32.203-7.748-63.172-47.281-77.07z" fill="#99e6fc" fill-rule="evenodd"></path><path clip-rule="evenodd" d="M293.111 264.005H84.84c-8.602 0-15.613 7.022-15.613 15.573v177.851h263.918V279.578c0-8.55-7.041-15.573-15.642-15.573z" fill="#7a6d79" fill-rule="evenodd"></path><path clip-rule="evenodd" d="M333.145 457.428H54.675c-4.154 0-7.541 3.379-7.541 7.522v11.665c0 12.723 10.458 23.153 23.213 23.153h261.65c12.785 0 23.213-10.431 23.213-23.153V464.95c0-4.143-3.388-7.522-7.541-7.522z" fill="#554e56" fill-rule="evenodd"></path><path clip-rule="evenodd" d="M303.392 361.495v95.933h29.753V279.577c0-8.55-7.041-15.573-15.642-15.573H287.75c8.602 0 15.642 7.022 15.642 15.573z" fill="#685e68" fill-rule="evenodd"></path><path clip-rule="evenodd" d="M333.145 457.428h-15.23c4.154 0 7.541 3.379 7.541 7.522v11.665c0 12.723-10.428 23.153-23.213 23.153h29.753c12.785 0 23.213-10.431 23.213-23.153V464.95c0-4.143-3.388-7.522-7.541-7.522z" fill="#433f43" fill-rule="evenodd"></path><path clip-rule="evenodd" d="M333.145 361.495v23.976c33.288 15.014 44.188 27.325 44.188 53.946v60.351h18.883c3.388 0 6.157-2.762 6.157-6.141v-47.335c0-32.203-7.748-63.172-47.281-77.07z" fill="#62dbfb" fill-rule="evenodd"></path><path clip-rule="evenodd" d="M185.529 307.902a55.288 55.288 0 0 0-22.388 12.899l-7.865-4.525c-2.386-1.381-5.479-.558-6.864 1.822l-10.605 18.335c-1.385 2.38-.56 5.465 1.826 6.846l7.865 4.525c-1.002 4.143-1.532 8.462-1.532 12.899s.53 8.756 1.532 12.899l-7.865 4.525c-2.386 1.381-3.211 4.466-1.826 6.846l10.605 18.335c1.385 2.409 4.478 3.232 6.864 1.851l7.865-4.525c6.275 5.906 13.904 10.401 22.388 12.899v9.05c0 2.762 2.268 5.024 5.037 5.024h21.21c2.769 0 5.037-2.262 5.037-5.024v-9.05c8.484-2.498 16.143-6.993 22.388-12.899l7.865 4.525c2.386 1.381 5.479.558 6.864-1.851l10.605-18.335c1.385-2.38.56-5.465-1.826-6.846l-7.865-4.525c1.002-4.143 1.532-8.462 1.532-12.899s-.53-8.756-1.532-12.899l7.865-4.525c2.386-1.381 3.211-4.466 1.856-6.846l-10.634-18.335c-1.385-2.38-4.478-3.203-6.864-1.822l-7.865 4.525a55.098 55.098 0 0 0-22.388-12.899v-9.05c0-2.762-2.268-5.024-5.037-5.024h-21.21c-2.769 0-5.037 2.262-5.037 5.024v9.05zm15.642 29.029c13.168 0 23.832 10.636 23.832 23.77s-10.664 23.77-23.832 23.77-23.832-10.636-23.832-23.77c.001-13.133 10.664-23.77 23.832-23.77z" fill="#faf7f7" fill-rule="evenodd"></path><path d="M165.763 227.069h-15.348c-13.422 0-24.341-10.9-24.341-24.298v-18.1c0-13.397 10.92-24.298 24.341-24.298h15.348c13.422 0 24.341 10.9 24.341 24.298v18.1c-.001 13.398-10.92 24.298-24.341 24.298zm-15.349-51.242c-4.901 0-8.888 3.968-8.888 8.845v18.1c0 4.877 3.987 8.845 8.888 8.845h15.348c4.901 0 8.888-3.968 8.888-8.845v-18.1c0-4.877-3.987-8.845-8.888-8.845zM251.928 227.069H236.58c-13.422 0-24.341-10.9-24.341-24.298v-18.1c0-13.397 10.92-24.298 24.341-24.298h15.348c13.421 0 24.341 10.9 24.341 24.298v18.1c0 13.398-10.92 24.298-24.341 24.298zm-15.348-51.242c-4.901 0-8.888 3.968-8.888 8.845v18.1c0 4.877 3.987 8.845 8.888 8.845h15.348c4.901 0 8.888-3.968 8.888-8.845v-18.1c0-4.877-3.987-8.845-8.888-8.845z" fill="#433f43"></path><path clip-rule="evenodd" d="M496.816 278.284c28.869 45.396 15.348 105.512-30.165 134.277-34.702 21.949-78.006 19.334-109.409-3.291l-27.161-1.293-31.485-1.474c-2.079-.097-3.43-2.231-2.628-4.152l12.108-29.015 10.428-25.034c-7.129-37.991 8.955-78.186 43.687-100.135 45.513-28.765 105.785-15.278 134.625 30.117z" fill="#faf7f7" fill-rule="evenodd"></path><path clip-rule="evenodd" d="M472.218 278.578c28.869 45.396 15.348 105.541-30.165 134.306-12.107 7.669-25.275 12.341-38.62 14.192 21.357 2.439 43.657-2.145 63.218-14.515 45.513-28.765 59.035-88.881 30.165-134.277-21.151-33.32-59.241-49.45-96.005-44.308 28.309 3.232 54.969 18.716 71.407 44.602z" fill="#dedbee" fill-rule="evenodd"></path><path d="M372.803 366.666a7.723 7.723 0 0 1-6.687-3.844l-15.082-25.945a7.727 7.727 0 0 1 .068-7.881l15.082-24.946a7.726 7.726 0 1 1 13.224 7.996l-12.712 21.025 12.781 21.984a7.727 7.727 0 0 1-6.674 11.611zM402.665 369.37a7.726 7.726 0 0 1-7.175-10.589l22.447-56.297a7.727 7.727 0 0 1 14.354 5.722l-22.447 56.297a7.73 7.73 0 0 1-7.179 4.867zM457.334 366.666a7.682 7.682 0 0 1-3.876-1.048 7.725 7.725 0 0 1-2.796-10.562l12.781-21.984-12.713-21.025a7.728 7.728 0 0 1 13.224-7.996l15.083 24.946a7.722 7.722 0 0 1 .067 7.881l-15.083 25.945a7.724 7.724 0 0 1-6.687 3.843z" fill="#433f43"></path></g></svg>