<svg height="512" viewBox="0 0 64 64" width="512" xmlns="http://www.w3.org/2000/svg"><g id="Layer_2" data-name="Layer 2"><path d="m34 31v-4h-4v4a2 2 0 0 1 -2 2h-3v4h14v-4h-3a2 2 0 0 1 -2-2z" fill="#ffd3b6"/><path d="m30 30.769a8.774 8.774 0 0 0 4 0v-3.769h-4z" fill="#f9b995"/><path d="m23 11h18a0 0 0 0 1 0 0v9a9 9 0 0 1 -9 9 9 9 0 0 1 -9-9v-9a0 0 0 0 1 0 0z" fill="#ffd3b6"/><path d="m35 26a9 9 0 0 1 -9-9v-6h-3v9a8.993 8.993 0 0 0 16.678 4.678 8.944 8.944 0 0 1 -4.678 1.322z" fill="#f9b995"/><path d="m22 15h1a0 0 0 0 1 0 0v4a0 0 0 0 1 0 0h-1a2 2 0 0 1 -2-2 2 2 0 0 1 2-2z" fill="#f9b995"/><path d="m43 15h1a0 0 0 0 1 0 0v4a0 0 0 0 1 0 0h-1a2 2 0 0 1 -2-2 2 2 0 0 1 2-2z" fill="#ffd3b6" transform="matrix(-1 0 0 -1 85 34)"/><path d="m32 1a9 9 0 0 0 -9 9v5h10.172a2 2 0 0 0 1.414-.586l1.414-1.414 1.414 1.414a2 2 0 0 0 1.414.586h2.172v-5a9 9 0 0 0 -9-9z" fill="#7a838b"/><path d="m33.5 1.135a8.951 8.951 0 0 0 -10.5 8.865v5h3v-5a8.995 8.995 0 0 1 7.5-8.865z" fill="#5d6972"/><path d="m36.9 33a5 5 0 0 1 -9.8 0h-6.066a8 8 0 0 0 -7.692 5.8l-2.342 8.2h6v16h30v-16h6l-2.342-8.2a8 8 0 0 0 -7.692-5.8z" fill="#a7d0e1"/><path d="m20 46a2 2 0 0 0 -2-2 3.017 3.017 0 0 1 -2.9-3.846l1.242-4.354a7.945 7.945 0 0 1 .768-1.757 7.984 7.984 0 0 0 -3.768 4.757l-2.342 8.2h6v16h30v-3h-13a14 14 0 0 1 -14-14z" fill="#80bbce"/><path d="m43.605 45.647a3.17 3.17 0 0 1 -1.014-1.139 2.981 2.981 0 0 0 -2.591-1.508 2.922 2.922 0 0 0 -1.09.211 3.592 3.592 0 0 1 -1.926.186c-.107-.018-.215-.036-.324-.052a3.824 3.824 0 0 1 -2.374-1.272 2.972 2.972 0 0 0 -4.572 0 3.824 3.824 0 0 1 -2.374 1.272c-.109.016-.217.034-.324.052a3.592 3.592 0 0 1 -1.926-.186 2.922 2.922 0 0 0 -1.09-.211 2.981 2.981 0 0 0 -2.591 1.508 3.17 3.17 0 0 1 -1.009 1.139c-1.515.953-2.4 2.11-2.4 3.353 0 3.314 6.268 6 14 6s14-2.686 14-6c0-1.243-.885-2.4-2.395-3.353z" fill="#80bbce"/><path d="m11 47h6v10h-6z" fill="#f9b995"/><path d="m47 47h6v10h-6z" fill="#f9b995"/><path d="m1 57h62v6h-62z" fill="#f8c460"/><path d="m4 57h-3v6h62v-3h-56a3 3 0 0 1 -3-3z" fill="#eaac47"/><path d="m43.605 47.647a3.17 3.17 0 0 1 -1.014-1.139 2.981 2.981 0 0 0 -2.591-1.508 2.922 2.922 0 0 0 -1.09.211 3.592 3.592 0 0 1 -1.926.186c-.107-.018-.215-.036-.324-.052a3.824 3.824 0 0 1 -2.374-1.272 2.972 2.972 0 0 0 -4.572 0 3.824 3.824 0 0 1 -2.374 1.272c-.109.016-.217.034-.324.052a3.592 3.592 0 0 1 -1.926-.186 2.922 2.922 0 0 0 -1.09-.211 2.981 2.981 0 0 0 -2.591 1.508 3.17 3.17 0 0 1 -1.009 1.139c-1.515.953-2.4 2.11-2.4 3.353 0 3.314 6.268 6 14 6s14-2.686 14-6c0-1.243-.885-2.4-2.395-3.353z" fill="#f8c460"/><path d="m18 51c0 1.539 1.363 2.938 3.586 4h20.828c2.223-1.062 3.586-2.461 3.586-4a3.136 3.136 0 0 0 -.81-2h-26.38a3.136 3.136 0 0 0 -.81 2z" fill="#eaac47"/><path d="m21 51c0-1.243.885-2.4 2.395-3.353a3.17 3.17 0 0 0 1.014-1.139 3.017 3.017 0 0 1 1.176-1.145 3.213 3.213 0 0 1 -.5-.152 2.922 2.922 0 0 0 -1.085-.211 2.981 2.981 0 0 0 -2.591 1.508 3.17 3.17 0 0 1 -1.009 1.139c-1.515.953-2.4 2.11-2.4 3.353 0 3.314 6.268 6 14 6 .507 0 1.007-.013 1.5-.035-7.026-.322-12.5-2.865-12.5-5.965z" fill="#eaac47"/><path d="m51 51h-38l2.813 4.219a4 4 0 0 0 3.328 1.781h25.718a4 4 0 0 0 3.328-1.781z" fill="#7a838b"/><path d="m47.859 54h-25.718a4 4 0 0 1 -3.328-1.781l-.813-1.219h-5l2.813 4.219a4 4 0 0 0 3.328 1.781h25.718a4 4 0 0 0 3.329-1.781l.959-1.439a3.982 3.982 0 0 1 -1.288.22z" fill="#5d6972"/><path d="m51 37h4v14h-4z" fill="#f8c460"/><path d="m51 37h4v6h-4z" fill="#eaac47"/><path d="m9 39h4v12h-4z" fill="#f8c460"/><path d="m9 47h4v4h-4z" fill="#eaac47"/><path d="m51 47h4v4h-4z" fill="#eaac47"/><path d="m9 39h4v4h-4z" fill="#eaac47"/><rect fill="#ffd3b6" height="8" rx="3" width="8" x="49" y="49"/><rect fill="#ffd3b6" height="8" rx="3" width="8" x="7" y="49"/><path d="m10 49a3 3 0 0 0 -3 3v2a3 3 0 0 0 3 3h2a3 3 0 0 0 3-3 5 5 0 0 1 -5-5z" fill="#f9b995"/><path d="m52 49a3 3 0 0 0 -3 3v2a3 3 0 0 0 3 3h2a3 3 0 0 0 3-3 5 5 0 0 1 -5-5z" fill="#f9b995"/><path d="m16 31v8a2.006 2.006 0 0 1 -2 2h-6a2.006 2.006 0 0 1 -2-2v-8h2v6a1 1 0 0 0 2 0v-6h2v6a1 1 0 0 0 1 1 .972.972 0 0 0 .77-.37.94.94 0 0 0 .23-.63v-6z" fill="#f8c460"/><path d="m16 38v1a2.006 2.006 0 0 1 -2 2h-6a2.006 2.006 0 0 1 -2-2v-8h2v6a1 1 0 0 0 2 0v-2.4a6.933 6.933 0 0 0 2 2.14v.26a1 1 0 0 0 1 1 .972.972 0 0 0 .77-.37 6.863 6.863 0 0 0 2.23.37z" fill="#eaac47"/><rect fill="#f8c460" height="10" rx="4" width="8" x="49" y="31"/><g fill="#eaac47"><path d="m56 38a4 4 0 0 1 -4-4v-2a3.974 3.974 0 0 1 .108-.892 4 4 0 0 0 -3.108 3.892v2a4 4 0 0 0 7.892.892 3.974 3.974 0 0 1 -.892.108z"/><path d="m32.293 46.293-1 1a1 1 0 1 0 1.414 1.414l1-1a1 1 0 0 0 -1.414-1.414z"/><path d="m27 47h-1a1 1 0 0 0 0 2h1a1 1 0 0 0 0-2z"/><path d="m39 49h1a1 1 0 0 0 0-2h-1a1 1 0 0 0 0 2z"/></g><path d="m36 20a1 1 0 0 0 1-1v-1a1 1 0 0 0 -2 0v1a1 1 0 0 0 1 1z" fill="#7a838b"/><path d="m28 17a1 1 0 0 0 -1 1v1a1 1 0 0 0 2 0v-1a1 1 0 0 0 -1-1z" fill="#7a838b"/><path d="m45 54h-2a1 1 0 0 1 0-2h2a1 1 0 0 1 0 2z" fill="#fff"/></g></svg>