<svg viewBox="0 0 512 512" xmlns="http://www.w3.org/2000/svg"><g><path d="M512 256c0 141.385-114.615 256-256 256-30.351 0-59.469-5.282-86.484-14.977-.426-.153-1.006-1.805-1.431-1.959-4.153-1.516-7.035-2.321-11.085-4.042-.212-.09-1.491.502-1.702.412C63.978 452.322 0 361.632 0 256 0 114.615 114.615 0 256 0s256 114.615 256 256z" fill="#51489a"></path><path d="M461 256c0 113.218-91.782 205-205 205S51 369.218 51 256 142.782 51 256 51s205 91.782 205 205z" fill="#5f55af"></path><path d="M428.043 330.208c-59.451 59.451-148.817 73.638-231.283 45.032-28.606-82.466-14.419-171.832 45.032-231.283s178.555-103.375 261.021-74.77c28.606 82.466-15.318 201.569-74.77 261.021zM4.379 234.841c-13.981 40.305 7.487 98.515 36.543 127.571s72.733 35.99 113.037 22.009c13.981-40.304 7.047-83.981-22.009-113.037S44.683 220.86 4.379 234.841z" fill="#aacf58"></path><path d="M428.043 330.208a198.074 198.074 0 0 1-12.446 11.428c-.439.16-.879.318-1.319.475-80.691 28.767-158.781-49.323-130.016-130.015 10.869-30.487 28.55-59.161 53.029-83.639 26.579-26.579 64.046-51.087 104.04-68.191 21.649-.394 42.532 2.349 61.48 8.922 28.608 82.465-15.316 201.569-74.768 261.02zM131.95 271.384c-29.056-29.056-87.267-50.523-127.571-36.543C.11 247.147-.854 261.123.694 275.428c6.669 12.99 14.844 24.601 23.728 33.484 29.056 29.057 72.733 35.99 113.037 22.009 5.068-14.609 7.387-29.663 6.901-44.302a96.394 96.394 0 0 0-12.41-15.235z" fill="#b9e746"></path><path d="M417.334 159.558c-59.835 31.381-113.282 75.919-154.564 128.802-58.948 75.512-83.276 153.965-93.253 208.664a254.432 254.432 0 0 1-14.218-5.591 497.383 497.383 0 0 1 9.245-39.863c.117-.423-.322-2.784-.464-3.637-4.405-26.378-15.858-65.766-45.404-103.614-19.844-25.42-45.536-46.829-74.3-61.914a7.5 7.5 0 0 1-3.158-10.125 7.495 7.495 0 0 1 10.125-3.158c30.639 16.067 58.011 38.879 79.157 65.967 23.564 30.186 36.326 61.28 43.222 86.792 15.209-44.293 39.253-94.109 77.224-142.751 42.585-54.551 97.713-100.491 159.422-132.854a7.5 7.5 0 1 1 6.966 13.282z" fill="#94be36"></path><path d="M392.787 274.821a7.511 7.511 0 0 1 5.675-7.282 43.48 43.48 0 0 0-2.144-8.019 7.51 7.51 0 0 1-7.29-12.607 44.102 44.102 0 0 0-5.869-5.869 7.51 7.51 0 0 1-12.606-7.29 43.48 43.48 0 0 0-8.019-2.144c-.818 3.26-3.768 5.675-7.281 5.675s-6.464-2.415-7.281-5.675a43.48 43.48 0 0 0-8.019 2.144 7.51 7.51 0 0 1-12.606 7.29 44.11 44.11 0 0 0-5.869 5.87 7.51 7.51 0 0 1-7.29 12.606 43.501 43.501 0 0 0-2.144 8.019 7.509 7.509 0 0 1 0 14.563 43.48 43.48 0 0 0 2.144 8.019 7.51 7.51 0 0 1 7.29 12.607 44.102 44.102 0 0 0 5.869 5.869 7.51 7.51 0 0 1 12.606 7.289 43.482 43.482 0 0 0 8.019 2.145 7.51 7.51 0 0 1 14.562 0 43.403 43.403 0 0 0 8.019-2.145 7.508 7.508 0 0 1 12.606-7.289 44.102 44.102 0 0 0 5.869-5.869 7.51 7.51 0 0 1 7.29-12.607 43.48 43.48 0 0 0 2.144-8.019 7.51 7.51 0 0 1-5.675-7.281zm-37.536 20.853c-11.517 0-20.853-9.336-20.853-20.853s9.336-20.853 20.853-20.853 20.853 9.336 20.853 20.853c0 11.516-9.336 20.853-20.853 20.853z" fill="#7fa32f"></path><path d="M399.853 400.729v3.219a8.4 8.4 0 0 1-8.4 8.4h-3.38a71.857 71.857 0 0 1-4.583 17.143l2.919 1.685a8.4 8.4 0 0 1 3.074 11.475l-1.609 2.788a8.4 8.4 0 0 1-11.475 3.075l-2.932-1.693a72.739 72.739 0 0 1-12.544 12.543l1.693 2.933a8.4 8.4 0 0 1-3.075 11.475l-2.788 1.609a8.4 8.4 0 0 1-11.475-3.074l-1.685-2.919a71.81 71.81 0 0 1-17.143 4.583v3.38a8.4 8.4 0 0 1-8.4 8.4h-3.219a8.4 8.4 0 0 1-8.4-8.4v-3.38a71.857 71.857 0 0 1-17.143-4.583l-1.685 2.919a8.4 8.4 0 0 1-11.475 3.074l-2.788-1.609a8.4 8.4 0 0 1-3.075-11.475l1.693-2.933a72.774 72.774 0 0 1-12.544-12.543l-2.933 1.693a8.4 8.4 0 0 1-11.475-3.075l-1.609-2.788a8.4 8.4 0 0 1 3.075-11.475l2.919-1.685a71.81 71.81 0 0 1-4.583-17.143h-3.38a8.4 8.4 0 0 1-8.4-8.4v-3.219a8.4 8.4 0 0 1 8.4-8.4h3.38a71.865 71.865 0 0 1 4.583-17.144l-2.919-1.685a8.4 8.4 0 0 1-3.075-11.475l1.609-2.788a8.4 8.4 0 0 1 11.475-3.075l2.933 1.693a72.745 72.745 0 0 1 12.544-12.544l-1.693-2.933a8.4 8.4 0 0 1 3.075-11.475l2.788-1.609a8.4 8.4 0 0 1 11.475 3.075l1.685 2.918a71.81 71.81 0 0 1 17.143-4.583v-3.381a8.4 8.4 0 0 1 8.4-8.4h3.219a8.4 8.4 0 0 1 8.4 8.4v3.381a71.81 71.81 0 0 1 17.143 4.583l1.685-2.918a8.4 8.4 0 0 1 11.475-3.075l2.788 1.609a8.4 8.4 0 0 1 3.075 11.475l-1.693 2.933a72.745 72.745 0 0 1 12.544 12.544l2.932-1.693a8.4 8.4 0 0 1 11.475 3.075l1.609 2.788a8.4 8.4 0 0 1-3.074 11.475l-2.919 1.685a71.771 71.771 0 0 1 4.583 17.144h3.38a8.4 8.4 0 0 1 8.4 8.4z" fill="#ffea06"></path><path d="M359.747 402.339c0 23.917-19.389 43.307-43.306 43.307s-43.306-19.389-43.306-43.307 19.389-43.306 43.306-43.306 43.306 19.388 43.306 43.306z" fill="#51489a"></path><path d="M316.44 351.532c-28.015 0-50.807 22.792-50.807 50.807s22.792 50.806 50.807 50.806 50.807-22.792 50.807-50.806-22.792-50.807-50.807-50.807zm0 86.613c-19.744 0-35.807-16.063-35.807-35.806s16.063-35.807 35.807-35.807 35.807 16.063 35.807 35.807-16.063 35.806-35.807 35.806z" fill="#eac23f"></path><path d="M260 15v170c0 8.284-6.716 15-15 15h-15v23.615a6.385 6.385 0 0 1-11.86 3.285L202 200H15c-8.284 0-15-6.716-15-15V15C0 6.716 6.716 0 15 0h230c8.284 0 15 6.716 15 15z" fill="#f76937"></path><path d="M51 200H15c-8.284 0-15-6.716-15-15V15C0 6.716 6.716 0 15 0h36c-8.284 0-15 6.716-15 15v170c0 8.284 6.716 15 15 15z" fill="#d1462a"></path><path d="M141.55 51.04v-21.6c0-4.143-3.357-7.5-7.5-7.5s-7.5 3.357-7.5 7.5V32H46.51v-2.56c0-4.143-3.357-7.5-7.5-7.5s-7.5 3.357-7.5 7.5v21.6c0 21.307 12.174 39.824 29.932 48.96-17.758 9.136-29.932 27.653-29.932 48.96v21.6c0 4.143 3.357 7.5 7.5 7.5s7.5-3.357 7.5-7.5V168h80.04v2.56c0 4.143 3.357 7.5 7.5 7.5s7.5-3.357 7.5-7.5v-21.6c0-21.307-12.174-39.824-29.933-48.96 17.758-9.136 29.933-27.653 29.933-48.96zm-15-4.04v4.04c0 4.199-.651 8.249-1.856 12.055A7.584 7.584 0 0 0 123.5 63H48.335a39.87 39.87 0 0 1-1.825-11.96V47zM46.51 153v-4.04c0-3.799.532-7.476 1.526-10.96H123.5c.507 0 1.002-.051 1.481-.146a39.893 39.893 0 0 1 1.568 11.106V153zm70.453-30H56.096c7.346-8.599 18.264-14.06 30.433-14.06 12.17 0 23.088 5.461 30.434 14.06zM86.529 91.06c-11.691 0-22.226-5.04-29.55-13.06h59.101c-7.323 8.02-17.86 13.06-29.551 13.06z" fill="#fff5f5"></path><path d="M161 38.25a7.5 7.5 0 0 1 7.5-7.5h55a7.5 7.5 0 0 1 0 15h-55a7.5 7.5 0 0 1-7.5-7.5zm9.5 37H203a7.5 7.5 0 0 0 0-15h-32.5a7.5 7.5 0 0 0 0 15zm0 94H203a7.5 7.5 0 0 0 0-15h-32.5a7.5 7.5 0 0 0 0 15z" fill="#ffc5ae"></path></g></svg>