<svg viewBox="0 0 682.667 682.667" xmlns="http://www.w3.org/2000/svg"><g><defs><clippath clippathunits="userSpaceOnUse" id="a"><path d="M0 512h512V0H0Z" fill="#000000"></path></clippath></defs><g clip-path="url(#a)" transform="matrix(1.33333 0 0 -1.33333 0 682.667)"><path d="M0 0h260c75.409 44.542 126 126.637 126 220.561 0 141.385-114.615 256-256 256s-256-114.615-256-256C-126 126.637-75.409 44.542 0 0" fill="#bec8f7" transform="translate(126 35.439)"></path><path d="M0 0h260c75.409 44.542 126 126.637 126 220.561 0 10.443-.641 20.736-1.856 30.852C368.906 124.578 260.941 26.264 130 26.264s-238.906 98.314-254.144 225.149A258.594 258.594 0 0 1-126 220.561C-126 126.637-75.409 44.542 0 0" fill="#abbaef" transform="translate(126 35.439)"></path><path d="M0 0h30a5 5 0 0 0 5-5v-10a5 5 0 0 0-5-5H0a5 5 0 0 0-5 5v10a5 5 0 0 0 5 5" fill="#abbaef" transform="translate(372 300.75)"></path><path d="M0 0h30a5 5 0 0 0 5-5v-10a5 5 0 0 0-5-5H0a5 5 0 0 0-5 5v10a5 5 0 0 0 5 5" fill="#abbaef" transform="translate(111 278.61)"></path><path d="M0 0h-30a5 5 0 0 0-5 5v10a5 5 0 0 0 5 5H0a5 5 0 0 0 5-5V5a5 5 0 0 0-5-5" fill="#abbaef" transform="translate(87.5 190.207)"></path><path d="M0 0h-30a5 5 0 0 0-5 5v10a5 5 0 0 0 5 5H0a5 5 0 0 0 5-5V5a5 5 0 0 0-5-5" fill="#abbaef" transform="translate(171 415.75)"></path><path d="M0 0h-31.68l22.523-99.435a9.39 9.39 0 0 1 18.314 0L31.68 0Z" fill="#934a2e" transform="translate(72.5 379.5)"></path><path d="M0 0h49.075C63.52 12.27 77.668 30.539 66.306 49.658c-19.659 33.08-35.99 25.836-28.732 60.785.248 1.199-.805 2.268-2.005 2.021-5.965-1.231-20.78-6.385-25.455-27.503-.363-1.64-2.624-1.835-3.246-.275a20.631 20.631 0 0 0-1.323 5.235c-.19 1.607-2.294 2.08-3.141.703-6.408-10.415-20.269-35.246-21.896-57.585C-20.47 19.608-10.763 8.299 0 0" fill="#ff4155" transform="translate(47.06 379.5)"></path><path d="M0 0c12.442 30.875-6.762 47.23-13.914 52.032-1.06.712-2.492.037-2.636-1.232a18.932 18.932 0 0 0-2.065-6.738c-2.447-4.632-3.813-4.209-3.203.994 1.796 15.339-5.038 23.908-9.509 27.778-1.177 1.019-2.984.058-2.806-1.489.569-4.961.28-13.691-6.502-21.653C-50.695 37.881-62.147 19.226-48.152 0Z" fill="#ffdd40" transform="translate(95.478 379.5)"></path><path d="M0 0c-.142 1.229-1.682 1.697-2.514.781-2.589-2.851-5.93-7.647-4.314-12.122 2.151-5.955 9.815-10.636 10.405-16.709.115-1.187 1.567-1.7 2.435-.883 2.482 2.338 5.693 6.204 5.518 10.442C11.278-12.396.953-8.287 0 0" fill="#ff4155" transform="translate(105.763 477.737)"></path><path d="M0 0h-82.5c-6.213 0-11.25 5.037-11.25 11.25S-88.713 22.5-82.5 22.5H0c6.213 0 11.25-5.037 11.25-11.25S6.213 0 0 0" fill="#b76c4e" transform="translate(113.75 368.25)"></path><path d="M0 0h-45c-6.213 0-11.25 5.037-11.25 11.25S-51.213 22.5-45 22.5H0c6.213 0 11.25-5.037 11.25-11.25S6.213 0 0 0" fill="#b76c4e" transform="translate(95 322.25)"></path><path d="M0 0c0 6.213 5.037 11.25 11.25 11.25H-22.5c-6.213 0-11.25-5.037-11.25-11.25s5.037-11.25 11.25-11.25h33.75C5.037-11.25 0-6.213 0 0" fill="#a05838" transform="translate(72.5 333.5)"></path><path d="M0 0c0 6.213 5.037 11.25 11.25 11.25h-52.5C-47.463 11.25-52.5 6.213-52.5 0s5.037-11.25 11.25-11.25h52.5C5.037-11.25 0-6.213 0 0" fill="#a05838" transform="translate(72.5 379.5)"></path><path d="M0 0h-31.68l22.523-99.435a9.39 9.39 0 0 1 18.314 0L31.68 0Z" fill="#934a2e" transform="translate(439.5 379.5)"></path><path d="M0 0h49.075C63.52 12.27 77.668 30.539 66.306 49.658c-19.659 33.08-35.99 25.836-28.732 60.785.248 1.199-.805 2.268-2.005 2.021-5.965-1.231-20.78-6.385-25.455-27.503-.363-1.64-2.624-1.835-3.246-.275a20.631 20.631 0 0 0-1.323 5.235c-.19 1.607-2.294 2.08-3.141.703-6.408-10.415-20.269-35.246-21.896-57.585C-20.47 19.608-10.763 8.299 0 0" fill="#ff4155" transform="translate(414.06 379.5)"></path><path d="M0 0c12.442 30.875-6.762 47.23-13.914 52.032-1.06.712-2.492.037-2.636-1.232a18.932 18.932 0 0 0-2.065-6.738c-2.447-4.632-3.813-4.209-3.203.994 1.796 15.339-5.038 23.908-9.509 27.778-1.177 1.019-2.984.058-2.806-1.489.569-4.961.28-13.691-6.502-21.653C-50.695 37.881-62.147 19.226-48.152 0Z" fill="#ffdd40" transform="translate(462.478 379.5)"></path><path d="M0 0c-.142 1.229-1.682 1.697-2.514.781-2.589-2.851-5.93-7.647-4.314-12.122 2.151-5.955 9.815-10.636 10.405-16.709.115-1.187 1.567-1.7 2.435-.883 2.482 2.338 5.693 6.204 5.518 10.442C11.278-12.396.953-8.287 0 0" fill="#ff4155" transform="translate(472.763 477.737)"></path><path d="M0 0h-82.5c-6.213 0-11.25 5.037-11.25 11.25S-88.713 22.5-82.5 22.5H0c6.213 0 11.25-5.037 11.25-11.25S6.213 0 0 0" fill="#b76c4e" transform="translate(480.75 368.25)"></path><path d="M0 0h-45c-6.213 0-11.25 5.037-11.25 11.25S-51.213 22.5-45 22.5H0c6.213 0 11.25-5.037 11.25-11.25S6.213 0 0 0" fill="#b76c4e" transform="translate(462 322.25)"></path><path d="M0 0c0 6.213 5.037 11.25 11.25 11.25H-22.5c-6.213 0-11.25-5.037-11.25-11.25s5.037-11.25 11.25-11.25h33.75C5.037-11.25 0-6.213 0 0" fill="#a05838" transform="translate(439.5 333.5)"></path><path d="M0 0c0 6.213 5.037 11.25 11.25 11.25h-52.5C-47.463 11.25-52.5 6.213-52.5 0s5.037-11.25 11.25-11.25h52.5C5.037-11.25 0-6.213 0 0" fill="#a05838" transform="translate(439.5 379.5)"></path><path d="M0 0a255.223 255.223 0 0 1 30.035 15.167v255.311c0 71.682-58.318 130-130 130s-130-58.318-130-130V15.167A255.223 255.223 0 0 1-199.93 0Z" fill="#e9efff" transform="translate(355.965 20.273)"></path><path d="M0 0c-8.284 0-15 6.716-15 15 0 8.284 6.716 15 15 15-71.682 0-130-58.318-130-130v-255.311a255.376 255.376 0 0 1 30.035-15.167H0Z" fill="#dae2fe" transform="translate(256 390.75)"></path><path d="M0 0v-270.478a254.278 254.278 0 0 1 37.947-12.697c2.472-.616 4.959 5.804 7.459 5.261 2.501-.543 5.014-8.05 7.542-8.52a256.84 256.84 0 0 1 39.552-4.208c2.491-.072 4.991 6.892 7.5 6.892 2.509 0 5.009-6.964 7.5-6.892a256.866 256.866 0 0 1 39.553 4.209c2.512.467 5.011 7.97 7.497 8.51 2.515.546 5.017-5.871 7.504-5.252A254.227 254.227 0 0 1 200-270.478V0L100 40Z" fill="#2d3c6b" transform="translate(156 290.75)"></path><path d="M0 0a7.5 7.5 0 0 1-7.5-7.5v-308.549c2.492-.072 4.991-.118 7.5-.118 2.509 0 5.008.046 7.5.118V-7.5A7.5 7.5 0 0 1 0 0" fill="#e9efff" transform="translate(256 316.166)"></path><path d="M0 0a7.5 7.5 0 0 1-7.5-7.5v-304.336c5.054.94 10.055 2.027 15 3.259V-7.5A7.5 7.5 0 0 1 0 0" fill="#e9efff" transform="translate(310.55 316.166)"></path><path d="M0 0a7.5 7.5 0 0 1-7.5-7.5v-301.078a254.652 254.652 0 0 1 15-3.258V-7.5A7.5 7.5 0 0 1 0 0" fill="#e9efff" transform="translate(201.45 316.166)"></path><path d="M0 0h-210a7.5 7.5 0 0 0 0 15H0A7.5 7.5 0 0 0 0 0" fill="#ffffff" transform="translate(361 162.526)"></path><path d="M0 0h-210a7.5 7.5 0 0 0 0 15H0A7.5 7.5 0 0 0 0 0" fill="#ffffff" transform="translate(361 41.802)"></path><path d="M0 0h-210a7.5 7.5 0 0 0 0 15H0A7.5 7.5 0 0 0 0 0" fill="#ffffff" transform="translate(361 102.164)"></path><path d="M0 0h-210a7.5 7.5 0 0 0 0 15H0A7.5 7.5 0 0 0 0 0" fill="#ffffff" transform="translate(361 222.888)"></path><path d="M0 0h30a5 5 0 0 0 5-5v-10a5 5 0 0 0-5-5H0a5 5 0 0 0-5 5v10a5 5 0 0 0 5 5" fill="#abbaef" transform="translate(413.25 137.164)"></path><path d="M0 0h30a5 5 0 0 0 5-5v-10a5 5 0 0 0-5-5H0a5 5 0 0 0-5 5v10a5 5 0 0 0 5 5" fill="#abbaef" transform="translate(77.5 137.164)"></path><path d="M0 0h30a5 5 0 0 0 5-5v-10a5 5 0 0 0-5-5H0a5 5 0 0 0-5 5v10a5 5 0 0 0 5 5" fill="#abbaef" transform="translate(444.5 240.388)"></path><path d="M0 0h30a5 5 0 0 0 5-5v-10a5 5 0 0 0-5-5H0a5 5 0 0 0-5 5v10a5 5 0 0 0 5 5" fill="#abbaef" transform="translate(193.95 480.75)"></path><path d="M0 0h30a5 5 0 0 0 5-5v-10a5 5 0 0 0-5-5H0a5 5 0 0 0-5 5v10a5 5 0 0 0 5 5" fill="#abbaef" transform="translate(303.05 460.75)"></path><path d="M0 0c-55.229 0-100-44.771-100-100h200C100-44.771 55.229 0 0 0" fill="#dae2fe" transform="translate(256 390.75)"></path><path d="M0 0a100.078 100.078 0 0 1-26.475 3.55c-55.229 0-100-44.772-100-100h52.95C-73.525-50.388-42.379-11.606 0 0" fill="#bec8f7" transform="translate(282.475 387.2)"></path></g></g></svg>