<svg viewBox="0 0 64 64" xmlns="http://www.w3.org/2000/svg"><g><path d="M25 4c-6.075 0-11 4.925-11 11a11 11 0 0 0 .414 3H18a6.01 6.01 0 0 1 5.789 4.423 4.004 4.004 0 0 1 2.21 3.531C31.606 25.449 36 20.738 36 15c0-6.075-4.925-11-11-11z" fill="#fa6450"></path><path d="M46 18h3.586A11 11 0 0 0 50 15c0-6.075-4.925-11-11-11S28 8.925 28 15c0 5.738 4.394 10.449 10.001 10.954C38.025 21.564 41.604 18 46 18z" fill="#64c8f0"></path><path d="M28 15c0 3.416 1.557 6.468 4 8.486 2.443-2.018 4-5.07 4-8.486s-1.557-6.468-4-8.486c-2.443 2.018-4 5.07-4 8.486z" fill="#fab400"></path><path d="M18 48h-8l-6 2.25V60h24v-3.228c0-1.661.709-3.21 1.867-4.322z" fill="#3cc8b4"></path><path d="M4 51.75 14 48h-4l-6 2.25z" fill="#1eaa96"></path><path d="M18 48v-6h-8v6l1.172 1.172a4 4 0 0 0 5.657 0z" fill="#d2aa82"></path><path d="M24 32h-2v-4.187a4 4 0 0 0-4.063-4l-8 .125a4 4 0 0 0-3.937 4V32H4v5l2 1v2.343c0 1.061.421 2.078 1.172 2.828l1.657 1.657A3.995 3.995 0 0 0 11.657 46h4.686a3.995 3.995 0 0 0 2.828-1.172l1.657-1.657A4.001 4.001 0 0 0 22 40.343V38l2.894-1.447A2 2 0 0 0 26 34.764V34a2 2 0 0 0-2-2z" fill="#f0c8a0"></path><path d="M60 50.25 54 48h-8l-13.404 5.027A3.999 3.999 0 0 0 30 56.772V60h30z" fill="#fa6450"></path><g fill="#be7800"><path d="M12 34.5H8a.5.5 0 0 1 0-1h4a.5.5 0 0 1 0 1z" fill="#be7800"></path><circle cx="11" cy="35" fill="#be7800" r="1"></circle><path d="M20 34.5h-4a.5.5 0 0 1 0-1h4a.5.5 0 0 1 0 1z" fill="#be7800"></path><circle cx="17" cy="35" fill="#be7800" r="1"></circle></g><path d="M24 34a4 4 0 0 1-4-4v-6h2a2 2 0 0 1 2 2z" fill="#dc9600"></path><path d="M4 30v-4a6 6 0 0 1 6-6h8a4 4 0 0 1 2.4 7.2l-3.2 2.4A12 12 0 0 1 10 32H6a2 2 0 0 1-2-2z" fill="#fab400"></path><path d="M8 30v-4a6 6 0 0 1 6-6h-4a6 6 0 0 0-6 6v4a2 2 0 0 0 2 2h4a2 2 0 0 1-2-2z" fill="#dc9600"></path><path d="M24 58h2v2h-2z" fill="#1eaa96"></path><path d="M36.596 53.027 50 48h-4l-13.404 5.027A3.999 3.999 0 0 0 30 56.772V60h4v-3.228a3.999 3.999 0 0 1 2.596-3.745z" fill="#dc4632"></path><path d="M54 48v-6h-8v6l1.172 1.172a4 4 0 0 0 5.657 0z" fill="#d2aa82"></path><path d="M60 32h-2v-4.187a4 4 0 0 0-4.063-4l-8 .125a4 4 0 0 0-3.937 4V32h-2a2 2 0 0 0-2 2v.764a2 2 0 0 0 1.106 1.789L42 38v2.343c0 1.061.421 2.078 1.172 2.828l1.657 1.657A4.001 4.001 0 0 0 47.657 46h4.686a3.995 3.995 0 0 0 2.828-1.172l1.657-1.657A4.001 4.001 0 0 0 58 40.343V38l2-1z" fill="#f0c8a0"></path><path d="M45.172 43.172A4 4 0 0 1 44 40.343V38l-2.894-1.447A2 2 0 0 1 40 34.764V34a2 2 0 0 1 2-2h-2a2 2 0 0 0-2 2v.764a2 2 0 0 0 1.106 1.789L42 38v2.343c0 1.061.421 2.078 1.172 2.828l1.657 1.657A4.001 4.001 0 0 0 47.657 46h2a3.995 3.995 0 0 1-2.828-1.172z" fill="#d2aa82"></path><path d="M48 34.5h-4a.5.5 0 0 1 0-1h4a.5.5 0 0 1 0 1z" fill="#be7800"></path><circle cx="47" cy="35" fill="#be7800" r="1"></circle><path d="M56 34.5h-4a.5.5 0 0 1 0-1h4a.5.5 0 0 1 0 1z" fill="#be7800"></path><circle cx="53" cy="35" fill="#be7800" r="1"></circle><path d="M60 34a4 4 0 0 1-4-4v-6h2a2 2 0 0 1 2 2z" fill="#d2d2d2"></path><path d="M40 32v-6a6 6 0 0 1 6-6h8a4 4 0 0 1 2.4 7.2l-3.2 2.4A12 12 0 0 1 46 32z" fill="#f0f0f0"></path><path d="M50 20h-4a6 6 0 0 0-6 6v6h4v-6a6 6 0 0 1 6-6z" fill="#d2d2d2"></path><path d="M38 58h2v2h-2z" fill="#dc4632"></path><path d="M50 41.858c-.668 0-1.296-.26-1.768-.732l-.585-.585a.5.5 0 1 1 .706-.707l.586.585c.567.566 1.555.566 2.122 0l.586-.585a.5.5 0 0 1 .706.707l-.586.585a2.476 2.476 0 0 1-1.767.732z" fill="#be7800"></path><path d="M6 32H4v2a2 2 0 0 1 2-2zM10.828 44.828l-1.657-1.657A3.999 3.999 0 0 1 8 40.343V38l-2.894-1.447A2 2 0 0 1 4 34.764V37l2 1v2.343c0 1.061.421 2.078 1.172 2.828l1.657 1.657A3.995 3.995 0 0 0 11.657 46h2a4 4 0 0 1-2.829-1.172z" fill="#d2aa82"></path><path d="M14 41.672c-.668 0-1.296-.26-1.768-.732l-.586-.586a.5.5 0 0 1 .707-.707l.586.586c.566.566 1.555.566 2.121 0l.586-.586a.5.5 0 0 1 .707.707l-.586.586a2.48 2.48 0 0 1-1.767.732z" fill="#be7800"></path></g></svg>