<svg viewBox="0 0 494.618 494.618" xmlns="http://www.w3.org/2000/svg"><g><path d="m183.912 109.085-7.86-36.158a26.04 26.04 0 0 0-7.511-13.348l-23.038-21.886a21.845 21.845 0 0 1-6.061-21.465C143.697.271 163.439-5.375 175.488 5.921l5.746 5.387a21.844 21.844 0 0 0 19.678 5.388l63.056-14.012c42.271-7.972 65.617 16.517 65.617 16.517a68.696 68.696 0 0 1 25.643 63.759c-1.222 8.579-7.841 15.603-16.428 16.764-.364.049-.73.089-1.098.118-11.027.882-20.705-7.288-21.685-18.307l-.795-8.942a28.516 28.516 0 0 0-37.786-24.401l-33.976 11.84a34.013 34.013 0 0 0-22.573 28.026l-2.549 21.026-15.99 10z" fill="#ab7b64"></path><path d="M329.584 19.201S306.736-4.733 265.339 2.454c22.286 4.213 34.245 16.747 34.245 16.747a68.696 68.696 0 0 1 25.643 63.759 20.172 20.172 0 0 1-4.374 9.952c4.057 4.689 10.199 7.462 16.848 6.93.368-.029.735-.069 1.098-.118 8.587-1.162 15.207-8.185 16.428-16.764a68.696 68.696 0 0 0-25.643-63.759z" fill="#9a6a53"></path><path d="M207.047 494.618h-13.356c-5.401 0-9.779-4.378-9.779-9.779V141.085l16.457-10 16.457 10v343.754c0 5.401-4.378 9.779-9.779 9.779z" fill="#ab7b64"></path><path d="M222.295 141.085h-43.852a6.526 6.526 0 0 1-6.526-6.526v-18.948a6.526 6.526 0 0 1 6.526-6.526h43.852a6.526 6.526 0 0 1 6.526 6.526v18.948a6.526 6.526 0 0 1-6.526 6.526z" fill="#edc472"></path></g></svg>