<svg id="Capa_1" enable-background="new 0 0 512 512" height="512" viewBox="0 0 512 512" width="512" xmlns="http://www.w3.org/2000/svg"><g><path d="m512 337.2-109.596 37.228-93.294-37.228v-46c0-8.28 6.72-15 15-15h51.24v-32.8c0-5.89 3.45-11.24 8.82-13.67s11.66-1.48 16.09 2.41l106.65 93.8c3.23 2.84 5.09 6.95 5.09 11.26z" fill="#ff4d88"/><path d="m203.092 270.699c-26.74 0-48.494 21.755-48.494 48.494v36.012c0 26.739 21.754 48.494 48.494 48.494s48.494-21.755 48.494-48.494v-36.012c0-26.739-21.754-48.494-48.494-48.494zm18.494 84.506c0 10.197-8.296 18.494-18.494 18.494s-18.494-8.297-18.494-18.494v-36.012c0-10.197 8.296-18.494 18.494-18.494s18.494 8.297 18.494 18.494z" fill="#4da6ff"/><path d="m110.957 322.199h-30.811c-8.284 0-15 6.716-15 15s6.716 15 15 15h13.872c-4.542 15.582-16.331 21.5-27.517 21.5-20.126 0-36.5-16.374-36.5-36.5s16.374-36.5 36.5-36.5c7.315 0 14.369 2.152 20.397 6.226 6.865 4.64 16.189 2.832 20.826-4.032 4.638-6.865 2.833-16.189-4.032-20.827-11.007-7.436-23.867-11.366-37.191-11.366-36.668 0-66.5 29.832-66.5 66.5s29.832 66.5 66.5 66.5c35.007 0 59.457-27.346 59.457-66.5-.001-8.285-6.717-15.001-15.001-15.001z" fill="#4da6ff"/><path d="m12.476 198.9c1.062.182 1.8.308 13.418.308 5.54 0 13.556-.029 25.257-.094 8.284-.046 14.962-6.8 14.917-15.083-.046-8.284-6.774-14.972-15.083-14.917-7.162.04-14.713.069-20.984.081v-87.996c0-8.284-6.716-15-15-15s-15 6.716-15 15v102.914c-.001 7.311 5.269 13.556 12.475 14.787z" fill="#66e6ff"/><path d="m169.158 184.199c0-8.284-6.716-15-15-15h-28.4v-21.5h25.2c8.284 0 15-6.716 15-15s-6.716-15-15-15h-25.2v-21.5h28.4c8.284 0 15-6.716 15-15s-6.716-15-15-15h-43.4c-8.284 0-15 6.716-15 15v103c0 8.284 6.716 15 15 15h43.4c8.284 0 15-6.715 15-15z" fill="#66e6ff"/><path d="m410.609 199.199c22.738 0 41.845-14.588 45.434-34.687 2.715-15.207-4.081-35.035-31.299-45.074-12.285-4.531-23.749-9.459-27.643-11.159-1.689-1.504-1.715-3.47-1.555-4.58.203-1.414 1.263-4.881 6.702-6.52 13.526-4.07 26.273 6.072 26.4 6.175 7.057 4.639 16.422 2.831 20.98-3.58 4.097-5.762 3.464-14.054-1.778-19.469-15.883-13.901-36.292-17.262-54.256-11.851-15.02 4.524-25.65 16.396-27.745 30.981-1.972 13.737 3.985 26.953 15.546 34.49.663.432 1.358.811 2.081 1.133.599.268 14.845 6.608 30.885 12.525 3.132 1.155 13.263 5.409 12.148 11.655-.855 4.789-7.178 9.959-15.901 9.959-9.647 0-18.91-3.865-24.778-10.341-5.563-6.138-15.049-6.604-21.188-1.041-6.138 5.562-6.604 15.049-1.042 21.188 11.632 12.836 28.766 20.196 47.009 20.196z" fill="#4da6ff"/><path d="m242.29 66.2 11.777 12.235-11.777 120.765h-.12c-8.28 0-15-6.72-15-15v-88h-13.32c-8.29 0-15-6.72-15-15s6.71-15 15-15z" fill="#66e6ff"/><path d="m325.886 118.544c8.284 0 15-6.716 15-15v-22.345c0-8.284-6.716-15-15-15s-15 6.716-15 15v22.345c0 8.284 6.716 15 15 15z" fill="#4da6ff"/><path d="m285.73 81.2c0 8.28-6.72 15-15 15h-13.56v88c0 8.24-6.64 14.93-14.88 15v-133h28.44c8.28 0 15 6.72 15 15z" fill="#4da6ff"/><path d="m512 337.2c0 4.31-1.86 8.42-5.09 11.26l-106.65 93.8c-4.447 3.915-10.752 4.819-16.09 2.41-5.37-2.43-8.82-7.78-8.82-13.67v-32.8h-51.24c-8.28 0-15-6.72-15-15v-46z" fill="#e62e6b"/></g></svg>