<svg viewBox="0 0 512 512" xmlns="http://www.w3.org/2000/svg"><g><path d="M39.706 207.662h66.168c20.117-67.003 82.318-115.979 155.766-116.06l22.767-32.667-22.767-31.48c-109.235.085-200.401 77.349-221.934 180.207z" fill="#939ef0"></path><path d="m512 231.637-.156-160.75h-64.148v53.323c-41.041-58.504-108.981-96.756-185.874-96.756l-.182.002v64.148l.182-.002c57.831 0 108.703 30.316 137.583 75.888h-48.311v64.148l160.75.156v-.156z" fill="#8080ff"></path><path d="M250.061 420.399c-57.831 0-108.703-30.316-137.583-75.888h48.311v-64.187H0v160.789h64.187V387.79c41.041 58.504 108.981 96.756 185.874 96.756l.21-.002 29.94-31.728-29.94-32.42-.21.003z" fill="#45e6d1"></path><path d="M472.177 304.338h-66.168c-20.114 66.995-82.302 115.966-155.738 116.059v64.148c109.223-.099 200.374-77.358 221.906-180.207z" fill="#29cccc"></path></g></svg>