<svg viewBox="0 0 512 512" xmlns="http://www.w3.org/2000/svg"><g><path d="M464 504a15.947 15.947 0 0 1-11.314-4.687l-168-168a16 16 0 0 1 22.627-22.626l168 168A16 16 0 0 1 464 504z" fill="#d13330"></path><path d="M272 232v-32h-24a100.344 100.344 0 0 0-16-40l24-24-24-24-24 24a100.344 100.344 0 0 0-40-16V88h-32v32a100.344 100.344 0 0 0-40 16l-24-24-24 24 24 24a100.344 100.344 0 0 0-16 40H32v32h24a100.344 100.344 0 0 0 16 40l-24 24 24 24 24-24a100.344 100.344 0 0 0 40 16v32h32v-32a100.344 100.344 0 0 0 40-16l24 24 24-24-24-24a100.344 100.344 0 0 0 16-40zm-120 32a48 48 0 1 1 48-48 48 48 0 0 1-48 48z" fill="#7e8589"></path><path d="M303.994 72a7.973 7.973 0 0 1-3.572-.847l-16-8a8 8 0 0 1 7.156-14.31l16 8A8 8 0 0 1 303.994 72z" fill="#ffd33a"></path><path d="M344 176h48v32h-48z" fill="#c3c6c7"></path><g fill="#ffd33a"><path d="M416 112c0 .43-24 64-24 64h-48l-24-64c0-30.93 17.07-48 48-48s48 17.07 48 48zM368 40a8 8 0 0 1-8-8V16a8 8 0 0 1 16 0v16a8 8 0 0 1-8 8zM328.006 48a8 8 0 0 1-7.161-4.424l-8-16a8 8 0 0 1 14.31-7.156l8 16A8 8 0 0 1 328.006 48zM407.994 48a8 8 0 0 1-7.149-11.58l8-16a8 8 0 1 1 14.31 7.156l-8 16A8 8 0 0 1 407.994 48zM432.006 72a8 8 0 0 1-3.584-15.157l16-8a8 8 0 1 1 7.156 14.31l-16 8a7.973 7.973 0 0 1-3.572.847z" fill="#ffd33a"></path></g><circle cx="296" cy="319.999" fill="#eb423f" r="120"></circle><circle cx="296" cy="319.999" fill="#e9eef2" r="88"></circle><path d="M296 384a64.072 64.072 0 0 1-64-64 8 8 0 0 1 16 0 48.053 48.053 0 0 0 48 48 8 8 0 0 1 0 16z" fill="#d0d2d4"></path></g></svg>