<svg viewBox="0 0 512 512" xmlns="http://www.w3.org/2000/svg"><g><path d="M491.679 307.01c-3.683 0-7.111-.496-9.516-1.071-24.182-5.806-29.214-31.436-32.889-50.15l-1.103-5.536c-10.54-50.484-33.071-75.48-75.357-83.583-4.405-.841-7.294-5.099-6.452-9.508.841-4.413 5.103-7.309 9.516-6.452 49.071 9.401 76.277 39.079 88.198 96.225l1.151 5.722c3.921 19.972 7.698 34.349 20.73 37.476 3.754.897 8.127.71 10.079.139 1-3.595 4.262-6.182 8.27-5.94 4.476.238 7.921 4.067 7.682 8.548-.222 4.048-2.167 7.647-5.5 10.131-4.071 3.038-9.69 3.999-14.809 3.999z" fill="#ffc88c"></path><path d="M321.014 260.963c.563 23.619 13.206 103.957 13.206 103.957h-7.096a16.252 16.252 0 0 0-13.902 7.833l-5.223 8.625c-2.107 3.478.398 7.923 4.464 7.923h21.545c5.235 0 10.15-2.522 13.203-6.775l11.202-15.602c1.888-2.63 2.872-5.736 2.989-8.972.917-25.323 8.484-54.1 12.437-66.174l-32.508-40.635-20.317 9.82zM203.173 275.524h-48.762l34.19 89.396a16.252 16.252 0 0 0-14.38 8.678l-4.519 8.577c-1.705 3.236.642 7.125 4.3 7.125h18.399a16.253 16.253 0 0 0 14.969-9.921l7.708-18.218a16.252 16.252 0 0 0 1.057-9.045l-12.962-76.592z" fill="#d26437"></path><path d="M145.703 226.762v62.496c98.79-.955 159.595-17.96 187.501-28.246v-34.25H145.703z" fill="#ffc88c"></path><path d="M415.997 218.446V195.76c0-20.411-13.651-38.386-33.375-43.634-.159-.042-8.275-1.743-8.275-1.743-52.924-10.142-150.911 9.069-176.398 9.651-33.527.765-62.534-18.606-90.114-27.003-12.239-3.726-25.28-3.934-37.826-1.428l-16.026 3.202c-20.991 3.98-28.247 8.805-35.987 21.601C10.405 168.953 0 201.394 0 201.394s24.381 32.798 32.508 24.671c9.492-9.492 18.963-15.238 30.476-15.674 7.184-.272 15.896 2.927 23.626-.936 39.543 58.07-5.34 154.767-5.34 154.767h-2.328a16.253 16.253 0 0 0-14.606 9.124l-4.178 8.559c-1.509 3.093.742 6.697 4.184 6.697h20.172c3.543 0 7.052-1.05 9.819-3.263 38.322-30.637 69.259-106.356 78.744-131.427 1.976-5.223 6.457-9.106 11.933-10.2 1-.2 2.076-.408 3.223-.622l33.56-4.247c26.939-1.841 61.552-.375 91.743 12.994 5.352 2.37 10.053 6.089 13.413 10.882 15.573 22.217 39.083 30.025 66.192 51.217 24.042 18.794 24.921 50.285 24.921 50.285a16.255 16.255 0 0 0-15.42 11.114l-2.38 7.139c-1.005 3.014 1.239 6.127 4.416 6.127h26.781a8.127 8.127 0 0 0 8.091-7.362l6.956-73.55a8.026 8.026 0 0 0-1.596-5.645c-6.716-8.86-28.913-41.35-28.913-83.598z" fill="#eb874b"></path><path d="M67.145 123.628c-4.119 2.612-10.03 7.514-14.295 15.866-1.834 3.591.661 7.884 4.687 8.092l18.213.939c3.651.188 6.502-3.127 5.745-6.703-1.012-4.784-2.852-11.15-6.076-16.314a5.986 5.986 0 0 0-8.274-1.88zM100.69 351.592c32.028-61.24 18.72-118.542 9.844-143.796-2.12-6.033-9.607-8.32-14.621-4.351-2.764 2.188-5.911 4.276-9.303 6.011 39.543 58.07-5.34 154.767-5.34 154.767 8.215-.535 15.605-5.335 19.42-12.631z" fill="#d26437"></path><path d="M32.508 226.065c9.492-9.492 18.963-15.238 30.476-15.673 7.184-.272 15.896 2.927 23.626-.936-1.341.544-2.828.249-4.464-.582-6.121-3.111-14.328-13.738-24.749-16.142C44.19 189.683 22.349 219.369 0 201.394c0 0 24.381 32.798 32.508 24.671z" fill="#ffc88c"></path><path d="M274.922 220.671a8.167 8.167 0 0 1-2.722-.472c-4.23-1.504-6.436-6.151-4.936-10.381l10.833-30.476c1.5-4.23 6.159-6.432 10.381-4.936 4.23 1.504 6.436 6.151 4.936 10.381l-10.833 30.476a8.134 8.134 0 0 1-7.659 5.408zM369.056 226.429a8.15 8.15 0 0 1-2.698-.464c-4.23-1.488-6.46-6.127-4.968-10.361l10.833-30.817c1.484-4.242 6.111-6.456 10.365-4.972 4.23 1.488 6.46 6.127 4.968 10.361l-10.833 30.817a8.132 8.132 0 0 1-7.667 5.436zM194.661 219.655a8.121 8.121 0 0 1-7.833-6.004l-5.421-19.98a8.128 8.128 0 0 1 5.714-9.972c4.341-1.159 8.802 1.385 9.968 5.718l5.421 19.98a8.128 8.128 0 0 1-7.849 10.258z" fill="#8b534f"></path><circle cx="36.571" cy="165.81" fill="#4b3f4e" r="4.063"></circle><path d="M14.391 207.461c0-6.733-5.458-12.19-12.19-12.19-.058 0-.112.016-.17.017C.775 198.985 0 201.394 0 201.394s5.217 6.993 11.616 13.723c1.709-2.098 2.775-4.739 2.775-7.656z" fill="#5d5360"></path><path d="M64.341 388.603h20.172c3.544 0 7.053-1.051 9.821-3.264 7.113-5.687 13.968-12.936 20.482-21.117H78.941a16.256 16.256 0 0 0-14.607 9.124l-4.178 8.559c-1.508 3.094.744 6.698 4.185 6.698zM418.062 364.223a16.254 16.254 0 0 0-15.42 11.114l-2.38 7.139c-1.005 3.015 1.239 6.128 4.417 6.128h26.781a8.127 8.127 0 0 0 8.091-7.362l1.609-17.019h-23.098z" fill="#ffc88c"></path><path d="M334.22 364.92h-7.096a16.252 16.252 0 0 0-13.902 7.833l-5.223 8.624c-2.107 3.478.398 7.923 4.464 7.923h21.544c5.236 0 10.15-2.522 13.203-6.775l11.202-15.602c.444-.619.671-1.337 1.016-2.004l-25.208.001zM188.601 364.92a16.252 16.252 0 0 0-14.38 8.678l-4.519 8.577c-1.705 3.236.642 7.125 4.3 7.125h18.399a16.253 16.253 0 0 0 14.969-9.921l6.118-14.46-24.887.001z" fill="#ffbe82"></path><path d="M115.09 135.481v39.135c0 4.488 3.635 8.127 8.127 8.127s8.127-3.639 8.127-8.127V141.96c-5.495-2.324-10.906-4.545-16.254-6.479z" fill="#8b534f"></path><path d="m155.144 151.653-31.586 105.28c-1.286 4.302 1.151 8.833 5.452 10.123a8.092 8.092 0 0 0 2.333.345c3.5 0 6.73-2.274 7.786-5.794l31.518-105.055c-5.265-1.367-10.431-3.035-15.503-4.899zM227.137 209.318a8.134 8.134 0 0 0 7.817 5.936c.73 0 1.468-.099 2.206-.306 4.317-1.214 6.841-5.698 5.627-10.02l-13.504-48.134c-6.057.769-11.483 1.435-16.327 1.978l14.181 50.546zM332.212 147.506l-16.775 70.256a8.13 8.13 0 0 0 7.913 10.016c3.675 0 7.008-2.508 7.897-6.238l17.622-73.805a310.884 310.884 0 0 0-16.657-.229zM416.052 220.148l-40.654 33.531c-3.46 2.857-3.952 7.98-1.095 11.44a8.116 8.116 0 0 0 6.278 2.956 8.099 8.099 0 0 0 5.167-1.857l32.131-26.501a125.178 125.178 0 0 1-1.827-19.569z" fill="#734650"></path><path d="m425.52 266.948-16.297 10.988a8.128 8.128 0 0 0-2.198 11.282 8.118 8.118 0 0 0 6.746 3.583 8.054 8.054 0 0 0 4.532-1.389l14.051-9.474a153.99 153.99 0 0 1-6.834-14.99z" fill="#8b534f"></path></g></svg>