<svg viewBox="0 0 497 497" xmlns="http://www.w3.org/2000/svg"><g><path d="M482 108.719H22.5L10 378.281l487-12.5V123.719c0-8.284-6.716-15-15-15z" fill="#ff8086"></path><path d="M22.5 298.281V108.719H15c-8.284 0-15 6.716-15 15v249.563c0 8.284 6.716 15 15 15h467c8.284 0 15-6.716 15-15v-7.5H90c-2.108 0-60-7.5-60-7.5s-7.5-57.967-7.5-60.001z" fill="#d16161"></path><path d="M90 365.781H30a7.5 7.5 0 0 1-7.5-7.5v-60c0-4.143 3.358-7.5 7.5-7.5s7.5 3.357 7.5 7.5v52.5H90c4.142 0 7.5 3.357 7.5 7.5s-3.358 7.5-7.5 7.5z" fill="#f9c8dc"></path><g fill="#ae3244"><path d="M343.871 310.186a7.5 7.5 0 0 1-4.495-13.508c.336-.255 15.453-11.902 26.057-33.639a38.643 38.643 0 0 1-14.013 2.614c-21.416 0-38.839-17.423-38.839-38.839s17.423-38.839 38.839-38.839 38.839 17.423 38.839 38.839a38.98 38.98 0 0 1-.451 5.925c-5.842 48.949-40.011 74.882-41.467 75.965a7.465 7.465 0 0 1-4.47 1.482zm7.55-107.21c-13.145 0-23.839 10.694-23.839 23.839s10.694 23.839 23.839 23.839c11.836 0 21.686-8.672 23.529-19.995l.017-.149a7.5 7.5 0 0 1 .091-.588c.133-1.017.202-2.054.202-3.106 0-13.146-10.694-23.84-23.839-23.84zM198.743 310.186c-21.416 0-38.839-17.423-38.839-38.839 0-2.015.154-3.992.451-5.925 5.842-48.949 40.011-74.882 41.468-75.965a7.5 7.5 0 0 1 8.965 12.026c-.336.255-15.453 11.902-26.057 33.639a38.642 38.642 0 0 1 14.012-2.614c21.416 0 38.839 17.423 38.839 38.839 0 21.417-17.423 38.839-38.839 38.839zm-23.638-41.945a23.962 23.962 0 0 0-.202 3.107c0 13.145 10.694 23.839 23.839 23.839s23.839-10.694 23.839-23.839-10.694-23.839-23.839-23.839c-11.837 0-21.686 8.672-23.529 19.995a7.427 7.427 0 0 1-.108.737zM137.404 310.186a7.5 7.5 0 0 1-7.5-7.5V201.813H114.24c-4.142 0-7.5-3.357-7.5-7.5s3.358-7.5 7.5-7.5h23.164a7.5 7.5 0 0 1 7.5 7.5v108.373a7.5 7.5 0 0 1-7.5 7.5z" fill="#ae3244"></path><circle cx="275.082" cy="267.759" fill="#ae3244" r="8"></circle><circle cx="275.082" cy="237.759" fill="#ae3244" r="8"></circle></g><path d="M467 206.219a7.5 7.5 0 0 1-7.5-7.5v-52.5H407c-4.142 0-7.5-3.357-7.5-7.5s3.358-7.5 7.5-7.5h60a7.5 7.5 0 0 1 7.5 7.5v60a7.5 7.5 0 0 1-7.5 7.5z" fill="#f9c8dc"></path></g></svg>