<svg viewBox="0 0 456 456" xmlns="http://www.w3.org/2000/svg"><g><path d="m376 368-64-128-8.184-20.457.59.05-2.87-5.753-6.606-13.215-4.801-9.656c-13.832-27.664-47.469-38.875-75.133-25.043-27.664 13.828-38.875 47.469-25.043 75.129L200 261.207V368zM267.312 216.734l-24.32 14.188L257.902 216zm0 0" fill="#da922a"></path><path d="m236.434 280.406-14.313 7.16c-7.906 3.954-17.516.746-21.465-7.16-3.949-7.902-.746-17.511 7.16-21.46l14.305-7.153zM293.68 251.793l14.312-7.16c7.903-3.953 11.102-13.563 7.153-21.465-3.95-7.906-13.56-11.117-21.465-7.168l-14.313 7.152zm0 0" fill="#ecccb6"></path><path d="M317.473 317.266 328 336l-53.465 2.727-24-48 42.938-21.461zm0 0" fill="#f9d7c0"></path><path d="m301.223 284.8-7.75-15.503-42.938 21.465 8 15.949a31.614 31.614 0 0 0 42.688-21.91zm0 0" fill="#ecccb6"></path><path d="M292.352 320h39.304C387.074 320.004 432 364.934 432 420.352V456H192v-35.648C192 364.93 236.93 320 292.352 320zm0 0" fill="#dc4d41"></path><path d="M279.367 294.719c-15.808 7.906-35.031 1.5-42.933-14.313l-14.442-28.55L256 216h19.785l17.895 35.793c7.902 15.805 1.492 35.023-14.313 42.926zm0 0" fill="#f9d7c0"></path><path d="M232 408h16v48h-16zM376 408h16v48h-16zm0 0" fill="#b94137"></path><path d="M108.352 320h39.304C203.074 320.004 248 364.934 248 420.352V456H8v-35.648C8 364.93 52.93 320 108.352 320zm0 0" fill="#6b9777"></path><path d="M152 256h24c8.836 0 16-7.164 16-16s-7.164-16-16-16h-24zm0 0" fill="#ecccb6"></path><path d="M104 272h48v48h-48zm0 0" fill="#f5d3bd"></path><path d="M104 292.96c6.004 7.005 14.773 11.04 24 11.04s17.996-4.035 24-11.04V272h-48zm0 0" fill="#ecccb6"></path><path d="M72 232h24l16-24 72 24v-32c0-30.93-25.07-56-56-56s-56 25.07-56 56zm0 0" fill="#8f563b"></path><path d="M48 408h16v48H48zM184 408h16v48h-16zm0 0" fill="#5e8569"></path><path d="M240.406 75.328 191.672 120l-48.734-44.672a23.412 23.412 0 0 1-5.122-27.734l1.063-2.137a23.43 23.43 0 0 1 20.953-12.945 23.427 23.427 0 0 1 18.29 8.8l13.55 16.934 13.55-16.934a23.433 23.433 0 0 1 18.29-8.8 23.43 23.43 0 0 1 20.953 12.945l1.062 2.137a23.429 23.429 0 0 1-5.12 27.734zm0 0" fill="#f55648"></path><g fill="#f7ba61"><path d="M312 0h16v16h-16zM312 48h16v16h-16zM288 24h16v16h-16zM336 24h16v16h-16zM32 64h16v16H32zM32 128h16v16H32zM0 96h16v16H0zM64 96h16v16H64zm0 0" fill="#f7ba61"></path></g><path d="M104 256H80c-8.836 0-16-7.164-16-16s7.164-16 16-16h24zm0 0" fill="#ecccb6"></path><path d="M128 288c-17.672 0-32-14.328-32-32v-40l16-8 48 16v32c0 17.672-14.328 32-32 32zm0 0" fill="#f9d7c0"></path></g></svg>