<svg viewBox="0 0 64 64" xmlns="http://www.w3.org/2000/svg"><g><path d="M20.185 26.093h23.63V46.5h-23.63z" fill="#596c80"></path><path d="M20.185 31.971A6.13 6.13 0 0 0 26.93 30.4a7.459 7.459 0 0 0 10.142 0 6.127 6.127 0 0 0 6.743 1.571v-5.878h-23.63z" fill="#475666"></path><path d="M45.576 25.137 41.667 17.5H22.333l-3.909 7.637a4.137 4.137 0 1 0 7.969 2.223l.312-1.117a5.454 5.454 0 0 0 10.59 0l.312 1.117a4.137 4.137 0 1 0 7.969-2.223z" fill="#d9575d"></path><path d="M18.272 26.093a4.138 4.138 0 0 0 8.121 1.267l.312-1.117a5.454 5.454 0 0 0 10.59 0l.312 1.117a4.138 4.138 0 0 0 8.121-1.267z" fill="#cc5257"></path><path d="M25.556 34.685h12.889v7.519H25.556z" fill="#bad5f8"></path><path d="M32 30.389a5.459 5.459 0 0 0 5.385-6.357L35.222 17.5h-6.444l-2.163 6.532A5.459 5.459 0 0 0 32 30.389z" fill="#f2f2f2"></path><path d="M26.671 26.093a5.453 5.453 0 0 0 10.658 0z" fill="#e6e6e6"></path><path d="m38.036 34.685-7.518 7.519h-4.554l7.518-7.519z" fill="#dfeaf8"></path><g fill="#7a8899"><path d="m46.142 16.444 1.414 1.414 10.961-10.96 2.446 2.447 1.352-7.66-7.66 1.352 2.447 2.446zM17.151 48.263l-1.414-1.414L5.483 57.102l-2.446-2.447-1.352 7.66 7.66-1.352-2.447-2.446zM31 14h2V7.5h3.46L32 1.128 27.54 7.5H31zM33 50h-2v6.5h-3.46L32 62.872l4.46-6.372H33zM50 31v2h6.5v3.46L62.872 32 56.5 27.54V31zM14 33v-2H7.5v-3.46L1.128 32 7.5 36.46V33zM48.263 46.849l-1.414 1.414 10.253 10.254-2.447 2.446 7.66 1.352-1.352-7.66-2.446 2.447zM16.444 17.858l1.414-1.414L6.898 5.483l2.447-2.446-7.66-1.352 1.352 7.66 2.446-2.447z" fill="#7a8899"></path></g></g></svg>