<svg viewBox="0 0 497 497" xmlns="http://www.w3.org/2000/svg"><g><path d="M16.567 95.5v268.968c0 18.299 14.834 33.132 33.132 33.132h364.467V95.499H16.567z" fill="#ecf0f9"></path><path d="M391.166 95.5h23v302.101h-23z" fill="#d8e4f0"></path><circle cx="381.033" cy="397.6" fill="#4c9cd6" r="99.4"></circle><g fill="#595a66"><path d="M184.994 182.233h-33.133a8.283 8.283 0 0 1-8.283-8.283v-33.133a8.283 8.283 0 0 1 8.283-8.283h33.133a8.283 8.283 0 0 1 8.283 8.283v33.133a8.282 8.282 0 0 1-8.283 8.283zM278.872 182.233h-33.133a8.283 8.283 0 0 1-8.283-8.283v-33.133a8.282 8.282 0 0 1 8.283-8.283h33.133a8.283 8.283 0 0 1 8.283 8.283v33.133a8.282 8.282 0 0 1-8.283 8.283zM372.75 182.233h-33.133a8.283 8.283 0 0 1-8.283-8.283v-33.133a8.283 8.283 0 0 1 8.283-8.283h33.133a8.283 8.283 0 0 1 8.283 8.283v33.133a8.282 8.282 0 0 1-8.283 8.283zM91.4 265.067H57.7a8 8 0 0 1-8-8v-33.7a8 8 0 0 1 8-8h33.7a8 8 0 0 1 8 8v33.7a8 8 0 0 1-8 8z" fill="#595a66"></path></g><path d="M185.278 265.067h-33.7a8 8 0 0 1-8-8v-33.7a8 8 0 0 1 8-8h33.7a8 8 0 0 1 8 8v33.7a8 8 0 0 1-8 8z" fill="#f04d4e"></path><path d="M279.156 265.067h-33.7a8 8 0 0 1-8-8v-33.7a8 8 0 0 1 8-8h33.7a8 8 0 0 1 8 8v33.7a8 8 0 0 1-8 8zM185.278 347.9h-33.7a8 8 0 0 1-8-8v-33.7a8 8 0 0 1 8-8h33.7a8 8 0 0 1 8 8v33.7a8 8 0 0 1-8 8zM373.033 265.067h-33.7a8 8 0 0 1-8-8v-33.7a8 8 0 0 1 8-8h33.7a8 8 0 0 1 8 8v33.7a8 8 0 0 1-8 8zM91.4 347.9H57.7a8 8 0 0 1-8-8v-33.7a8 8 0 0 1 8-8h33.7a8 8 0 0 1 8 8v33.7a8 8 0 0 1-8 8z" fill="#595a66"></path><path d="M414.166 99.4V49.7c0-18.299-14.834-33.132-33.133-33.132H49.699c-18.299 0-33.132 14.834-33.132 33.132v49.7z" fill="#f04d4e"></path><path d="M82.833 49.7c0 9.149 7.417 16.567 16.567 16.567s16.567-7.417 16.567-16.567V16.567C115.967 7.417 108.55 0 99.4 0S82.833 7.417 82.833 16.567zM198.8 49.7c0 9.149 7.417 16.567 16.567 16.567s16.567-7.417 16.567-16.567V16.567c0-9.15-7.417-16.567-16.567-16.567S198.8 7.417 198.8 16.567zM314.767 49.7c0 9.149 7.417 16.567 16.567 16.567s16.567-7.417 16.567-16.567V16.567C347.9 7.417 340.483 0 331.333 0s-16.567 7.417-16.567 16.567V49.7z" fill="#ecf0f9"></path><path d="M414.166 49.7c0-18.299-14.834-33.132-33.133-33.132h-23c18.299 0 33.133 14.834 33.133 33.132v49.7h23z" fill="#db343f"></path><circle cx="381.033" cy="397.6" fill="#4c9cd6" r="99.4"></circle><path d="M381.033 298.2c-3.89 0-7.726.231-11.5.666 49.479 5.701 87.9 47.727 87.9 98.734s-38.421 93.033-87.9 98.734c3.774.435 7.61.666 11.5.666 54.897 0 99.4-44.503 99.4-99.4s-44.503-99.4-99.4-99.4z" fill="#3689c9"></path><circle cx="381.033" cy="397.6" fill="#ecf0f9" r="66.267"></circle><path d="M414.167 405.1h-33.133a7.5 7.5 0 0 1-7.5-7.5v-33.133c0-4.143 3.358-7.5 7.5-7.5s7.5 3.357 7.5 7.5V390.1h25.633a7.5 7.5 0 0 1 0 15z" fill="#595a66"></path><path d="M381.033 331.333c-3.925 0-7.763.361-11.5 1.015 31.113 5.447 54.767 32.578 54.767 65.252 0 32.673-23.654 59.804-54.767 65.252a66.628 66.628 0 0 0 11.5 1.015c36.598 0 66.267-29.669 66.267-66.267s-29.669-66.267-66.267-66.267z" fill="#d8e4f0"></path></g></svg>