<svg viewBox="0 0 512 512" xmlns="http://www.w3.org/2000/svg"><g><path d="M492 154.45V377.5c0 24.37-19.82 44.19-44.19 44.19H64.19C39.82 421.69 20 401.87 20 377.5V154.45z" fill="#af5f49"></path><path d="M492 154.45V377.5c0 24.37-19.82 44.19-44.19 44.19H256V154.45z" fill="#804231"></path><path d="M343.23 39.39v45.99h-30V39.39c0-5.18-4.21-9.39-9.39-9.39h-95.68c-5.18 0-9.39 4.21-9.39 9.39v45.99h-30V39.39C168.77 17.67 186.44 0 208.16 0h95.68c21.72 0 39.39 17.67 39.39 39.39z" fill="#ffb54c"></path><path d="M303.84 30H256V0h47.84c21.72 0 39.39 17.67 39.39 39.39v45.99h-30V39.39c0-5.18-4.21-9.39-9.39-9.39z" fill="#ff9100"></path><path d="M376.5 391.51C376.5 457.95 322.44 512 256 512s-120.5-54.05-120.5-120.49c0-1.23.03-2.44.06-3.66 1.96-64.88 55.05-116.84 120.44-116.84 66.86 0 120.5 54.26 120.5 120.5z" fill="#ff5959"></path><path d="M170 183.94v60c0 8.29-6.72 15-15 15H95c-8.29 0-15-6.71-15-15v-60c0-8.28 6.71-15 15-15h60c8.28 0 15 6.72 15 15z" fill="#ffdd46"></path><path d="M432 183.94v60c0 8.29-6.71 15-15 15h-60c-8.28 0-15-6.71-15-15v-60c0-8.28 6.72-15 15-15h60c8.29 0 15 6.72 15 15z" fill="#ffb54c"></path><path d="M288.365 102.058 256 70H64.19C39.83 70 20 89.83 20 114.2v40.25c0 24.54 19.96 44.49 44.49 44.49H256l32.365-37.529z" fill="#c2715a"></path><path d="M492 114.2v40.25c0 24.54-19.96 44.49-44.49 44.49H256V70h191.81C472.17 70 492 89.83 492 114.2z" fill="#af5f49"></path><path d="M376.5 391.51C376.5 457.95 322.44 512 256 512V271.01c66.86 0 120.5 54.26 120.5 120.5z" fill="#e63a57"></path><path d="m256 370.29-21.79-21.79c-5.85-5.85-15.35-5.85-21.21 0-5.86 5.86-5.86 15.36 0 21.22l21.79 21.78L213 413.29c-5.86 5.86-5.86 15.36 0 21.22 5.86 5.85 15.35 5.85 21.21 0L256 412.72l4.918-21.215z" fill="#e6f0f2"></path><path d="M299 413.29c5.86 5.86 5.86 15.36 0 21.22-5.86 5.85-15.35 5.85-21.21 0L256 412.72v-42.43l21.79-21.79c5.86-5.85 15.35-5.85 21.21 0 5.86 5.86 5.86 15.36 0 21.22l-21.79 21.78z" fill="#cfdfe6"></path></g></svg>