<svg viewBox="0 0 512 512" xmlns="http://www.w3.org/2000/svg"><g><circle cx="256" cy="311.592" fill="#da387d" r="144.843"></circle><path d="M299.281 173.327c36.552 26.293 60.354 69.198 60.354 117.661 0 79.995-64.848 144.843-144.843 144.843-15.076 0-29.614-2.304-43.281-6.578 23.781 17.106 52.958 27.181 84.489 27.181 79.995 0 144.843-64.848 144.843-144.843 0-64.917-42.709-119.86-101.562-138.264z" fill="#d80a61"></path><path d="M330.843 392.455a14.881 14.881 0 0 1-10.557-4.373c-17.171-17.172-40.002-26.628-64.286-26.628s-47.115 9.456-64.286 26.628c-5.831 5.831-15.283 5.831-21.114 0-5.83-5.83-5.83-15.283 0-21.114 22.811-22.811 53.14-35.373 85.399-35.373s62.589 12.562 85.399 35.373c5.83 5.831 5.83 15.283 0 21.114a14.877 14.877 0 0 1-10.555 4.373z" fill="#b10a4f"></path><path d="M330.843 392.454c3.82 0 7.642-1.458 10.557-4.372 5.83-5.83 5.83-15.283 0-21.114a125.064 125.064 0 0 0-2.053-2.006 145.4 145.4 0 0 1-17.971 24.107 14.876 14.876 0 0 0 9.467 3.385z" fill="#a20847"></path><path d="m178.022 263.522 32.936 8.825v-2.305c0-8.22 6.431-15.271 14.649-15.422 8.373-.154 15.21 6.589 15.21 14.927v11.223c0 7.371-3.257 14.483-9.144 18.919-4.037 3.042-8.835 4.627-13.743 4.627-1.995 0-4.008-.262-5.996-.794l-41.64-11.158c-7.964-2.134-12.691-10.321-10.557-18.285 2.134-7.965 10.321-12.691 18.285-10.557zM333.978 263.522l-32.936 8.825v-2.305c0-8.22-6.431-15.271-14.649-15.422-8.373-.154-15.21 6.589-15.21 14.927v11.223c0 7.371 3.257 14.483 9.144 18.919 4.037 3.042 8.835 4.627 13.743 4.627 1.995 0 4.008-.262 5.996-.794l41.64-11.158c7.964-2.134 12.691-10.321 10.557-18.285-2.134-7.965-10.321-12.691-18.285-10.557z" fill="#b10a4f"></path><path d="M437.039 130.554c-16.046-16.046-33.847-29.7-52.97-40.783l-34.221 30.311-3.39 34.834c53.053 30.749 89.135 87.667 90.456 152.964.042 2.068 1.753 3.713 3.822 3.713h67.437c2.124 0 3.859-1.732 3.827-3.856-.982-66.945-27.513-129.736-74.961-177.183z" fill="#b3e59f"></path><path d="M127.931 89.771c-19.123 11.083-36.924 24.737-52.97 40.783a259.29 259.29 0 0 0-27.75 32.75l-9.223 28.002-14.887 13.617C8.471 236.823.529 271.677 0 307.737c-.031 2.124 1.703 3.856 3.827 3.856h67.437c2.069 0 3.78-1.645 3.822-3.713 1.321-65.297 37.403-122.214 90.456-152.963l-4.59-36.81z" fill="#da387d"></path><path d="M32.913 148.218 2.971 200.081c-1.425 2.468.422 5.54 3.27 5.439l56.425-1.998c2.678-.095 4.332-2.96 3.076-5.327L39.259 148.33c-1.337-2.517-4.921-2.58-6.346-.112z" fill="#f6f9f9"></path><path d="M256 55.565c-45.694 0-89.562 11.89-128.069 34.206l37.611 65.145c26.627-15.433 57.529-24.274 90.457-24.274s63.83 8.842 90.457 24.274l37.611-65.145C345.562 67.455 301.694 55.565 256 55.565z" fill="#ffe07d"></path></g></svg>