<svg viewBox="0 0 511.996 511.996" xmlns="http://www.w3.org/2000/svg"><g><path d="m285.359 32.568 58.147 241.541-58.147 139.279-63.01 61.75a14.99 14.99 0 0 1-15.63 3.38 14.992 14.992 0 0 1-9.79-12.63l-8.27-84.64-169.63 47.29c-6.7 1.87-13.81-1.11-17.16-7.2a14.99 14.99 0 0 1 3.06-18.36l128.63-116.56-68.57-49.06a15 15 0 0 1-6.05-14.8 15.01 15.01 0 0 1 10.75-11.85l84.97-23.69-21.97-85.43c-1.44-5.59.46-11.52 4.89-15.23a15.012 15.012 0 0 1 15.84-2.17l80.32 36.48 38.09-79.57c2.49-5.21 7.75-8.53 13.53-8.53z" fill="#ffea80"></path><path d="m505.729 237.358-71.75 51.33 49.87 72.76c3.26 4.77 3.5 10.98.61 15.98-2.88 5.01-8.39 7.9-14.14 7.46l-87.96-6.8-8.57 87.79a14.988 14.988 0 0 1-9.8 12.64 14.977 14.977 0 0 1-15.63-3.38l-63-61.75V32.568c5.77 0 11.03 3.32 13.53 8.53l38.08 79.57 80.33-36.48c5.25-2.38 11.42-1.54 15.84 2.17s6.32 9.64 4.88 15.23l-21.97 85.43 84.98 23.69c5.56 1.55 9.74 6.16 10.74 11.85 1 5.68-1.35 11.44-6.04 14.8z" fill="#ffc34d"></path><path d="m285.359 168.988 11.13 54.706-11.13 62.585c-8.29 0-15-6.71-15-15v-87.29c0-8.281 6.71-15.001 15-15.001zM285.359 315.818l9.31 15-9.31 15c-8.28 0-15-6.71-15-15 0-8.28 6.72-15 15-15z" fill="#8c4d8c"></path><g fill="#5e3373"><path d="M300.359 330.818c0 8.29-6.72 15-15 15v-30c8.28 0 15 6.72 15 15zM300.359 183.988v87.29c0 8.29-6.72 15-15 15v-117.29c8.28 0 15 6.72 15 15z" fill="#5e3373"></path></g></g></svg>