<svg viewBox="0 0 64 64" xmlns="http://www.w3.org/2000/svg"><g><path d="M41.99 16.97a1.941 1.941 0 0 1-.68 0 53.274 53.274 0 0 0-5.34-.64 52.611 52.611 0 0 0-7.94 0 53.274 53.274 0 0 0-5.34.64 1.941 1.941 0 0 1-.68 0L22 17l.25 1.12.71 3.18a5.286 5.286 0 0 0 .24.8 5.972 5.972 0 0 0 4.81 3.84 5.287 5.287 0 0 0 .8.06h6.38a5.287 5.287 0 0 0 .8-.06 5.972 5.972 0 0 0 4.81-3.84 5.286 5.286 0 0 0 .24-.8l.71-3.18L42 17z" fill="#eef2fa"></path><path d="M42 45a2.015 2.015 0 0 0 2 2h-1a2.006 2.006 0 0 0-2 2 2.015 2.015 0 0 0 2 2h1a2.006 2.006 0 0 0-2 2 1.955 1.955 0 0 0 .59 1.41 1.661 1.661 0 0 0 .14.13A19 19 0 0 1 32 58a19 19 0 0 1-10.73-3.46 1.661 1.661 0 0 0 .14-.13A1.955 1.955 0 0 0 22 53a2.006 2.006 0 0 0-2-2h1a2.015 2.015 0 0 0 2-2 2.006 2.006 0 0 0-2-2h-1a2.015 2.015 0 0 0 2-2 1.981 1.981 0 0 0-.73-1.54A19 19 0 0 1 32 40a19 19 0 0 1 10.73 3.46A1.981 1.981 0 0 0 42 45z" fill="#ad726a"></path><path d="M39 26v1a7 7 0 0 1-14 0v-1l.06-.19A18.888 18.888 0 0 1 28 27a4 4 0 0 0 8 0 18.888 18.888 0 0 1 2.94-1.19z" fill="#e9edf5"></path><path d="M35.19 26a5.287 5.287 0 0 0 .8-.06L36 26v1a4 4 0 1 1-8 0v-1l.01-.06a5.287 5.287 0 0 0 .8.06z" fill="#faa68e"></path><path d="M34 8a2.006 2.006 0 0 1 2 2v1.14a59.327 59.327 0 0 0-8 0V10a2.006 2.006 0 0 1 2-2z" fill="#e9edf5"></path><path d="M30 1h4v7h-4z" fill="#6f3ff3"></path><path d="m21 12 .34-3.72A8 8 0 0 1 29.31 1H30v7a2.006 2.006 0 0 0-2 2v1.14a58.237 58.237 0 0 0-6.32.74 2.189 2.189 0 0 0-.64.21zM42.32 11.88a58.237 58.237 0 0 0-6.32-.74V10a2.006 2.006 0 0 0-2-2V1h.69a8 8 0 0 1 7.97 7.28L43 12l-.04.09a2.189 2.189 0 0 0-.64-.21z" fill="#2b8ffc"></path><path d="M36 11.14a58.237 58.237 0 0 1 6.32.74 2.189 2.189 0 0 1 .64.21 1.668 1.668 0 0 1 1 1.86c-.14.56-.27 1.12-.41 1.68a1.846 1.846 0 0 1-1.56 1.34 1.941 1.941 0 0 1-.68 0 53.274 53.274 0 0 0-5.34-.64 52.611 52.611 0 0 0-7.94 0 53.274 53.274 0 0 0-5.34.64 1.941 1.941 0 0 1-.68 0 1.846 1.846 0 0 1-1.56-1.34c-.14-.56-.27-1.12-.41-1.68a1.668 1.668 0 0 1 1-1.86 2.189 2.189 0 0 1 .64-.21 58.237 58.237 0 0 1 6.32-.74 59.327 59.327 0 0 1 8 0z" fill="#9863fc"></path><path d="M7.11 30.21 11 38l-3 2-3-6-.19-.08a13 13 0 0 1 2.3-3.71zM13.01 26.02 17 34l-3 2-4-8-.17-.24a15.869 15.869 0 0 1 3.18-1.74zM54.17 27.76 54 28l-4 8-3-2 3.99-7.98a15.869 15.869 0 0 1 3.18 1.74zM59.19 33.92 59 34l-3 6-3-2 3.89-7.79a13 13 0 0 1 2.3 3.71z" fill="#cdd6de"></path><path d="m47 55-2 8H19l-2-8h3a1.978 1.978 0 0 0 1.27-.46A19 19 0 0 0 32 58a19 19 0 0 0 10.73-3.46A1.978 1.978 0 0 0 44 55zM45 43h-1a1.978 1.978 0 0 0-1.27.46A19 19 0 0 0 32 40a19 19 0 0 0-10.73 3.46A1.978 1.978 0 0 0 20 43h-1l.71-1.41a1.789 1.789 0 1 0-3.2-1.6L15 43v.18a2.943 2.943 0 0 0-1.84 1.88L13 45H7c-2.21 0-3-3.68-3-7a10.8 10.8 0 0 1 .81-4.08L5 34l3 6 3-2-3.89-7.79a15.464 15.464 0 0 1 2.72-2.45L10 28l4 8 3-2-3.99-7.98A13.368 13.368 0 0 1 18 25a22.258 22.258 0 0 1 7.06.81L25 26v1a7 7 0 0 0 14 0v-1l-.06-.19A22.258 22.258 0 0 1 46 25a13.368 13.368 0 0 1 4.99 1.02L47 34l3 2 4-8 .17-.24a15.464 15.464 0 0 1 2.72 2.45L53 38l3 2 3-6 .19-.08A10.8 10.8 0 0 1 60 38c0 3.32-.79 7-3 7h-6l-.16.06A2.943 2.943 0 0 0 49 43.18V43l-1.51-3.01a1.789 1.789 0 1 0-3.2 1.6z" fill="#2b8ffc"></path><path d="M18.11 39a1.791 1.791 0 0 1 1.6 2.59L19 43h-3a2.772 2.772 0 0 0-1 .18V43l1.51-3.01a1.777 1.777 0 0 1 1.6-.99zM49 43v.18a2.772 2.772 0 0 0-1-.18h-3l-.71-1.41a1.789 1.789 0 1 1 3.2-1.6z" fill="#cdd2e1"></path><path d="M13 46v5a4.251 4.251 0 0 0 .87 2.87l-6.31 1.91a5.189 5.189 0 0 1-1.5.22A5.029 5.029 0 0 1 1 51.02a4.968 4.968 0 0 1 2.8-4.45L7 45h6l.16.06A2.653 2.653 0 0 0 13 46zM60.2 46.57a4.968 4.968 0 0 1 2.8 4.45A5.029 5.029 0 0 1 57.94 56a5.189 5.189 0 0 1-1.5-.22l-6.31-1.91A4.251 4.251 0 0 0 51 51v-5a2.653 2.653 0 0 0-.16-.94L51 45h6z" fill="#faa68e"></path><path d="M22 43v12l-.01.02C18.93 53.08 17 50.61 17 49s1.93-4.08 4.99-6.02zM42 55V43l.01-.02C45.07 44.92 47 47.39 47 49s-1.93 4.08-4.99 6.02z" fill="#ad726a"></path><path d="M42 43v12l.01.02A18.885 18.885 0 0 1 32 58a18.885 18.885 0 0 1-10.01-2.98L22 55V43l-.01-.02A18.885 18.885 0 0 1 32 40a18.885 18.885 0 0 1 10.01 2.98z" fill="#ad726a"></path><path d="M42.01 42.98c-.324-.206-.662-.4-1.01-.6v13.239q.523-.288 1.01-.6c.346-.22.674-.448.99-.679V43.659a18.45 18.45 0 0 0-.99-.679zM21 43.659v10.682c.316.231.644.459.99.679q.486.31 1.01.6V42.382a18.292 18.292 0 0 0-2 1.277zM39.133 44.518a28.644 28.644 0 0 0-2.633-.582V42a.5.5 0 0 0-1 0v1.783a25.3 25.3 0 0 0-3-.26V42a.5.5 0 0 0-1 0v1.515a24.119 24.119 0 0 0-3 .318V42a.5.5 0 0 0-1 0v2c-.924.164-1.817.342-2.6.508a.5.5 0 0 0 .206.978 81.082 81.082 0 0 1 2.4-.469V47a.5.5 0 0 0 1 0v-2.154a23.93 23.93 0 0 1 3-.331V47a.5.5 0 0 0 1 0v-2.477a24.466 24.466 0 0 1 3 .267V47a.5.5 0 0 0 1 0v-2.046c.822.15 1.622.322 2.367.528A.513.513 0 0 0 39 45.5a.5.5 0 0 0 .133-.982z" fill="#f6fafd"></path><path d="M42.01 50.682a22.772 22.772 0 0 1-20.02 0 12.19 12.19 0 0 1-4.45-3.37A3.687 3.687 0 0 0 17 49c0 1.61 1.93 4.08 4.99 6.02A18.885 18.885 0 0 0 32 58a18.885 18.885 0 0 0 10.01-2.98C45.07 53.08 47 50.61 47 49a3.687 3.687 0 0 0-.54-1.688 12.19 12.19 0 0 1-4.45 3.37z" fill="#8c5956"></path><path d="M41 51.148v4.471q.523-.288 1.01-.6c.346-.22.674-.448.99-.679v-4.186c-.316.18-.644.357-.99.528q-.486.242-1.01.466zM21 50.154v4.187c.316.231.644.459.99.679q.486.31 1.01.6v-4.472q-.523-.225-1.01-.466a19.023 19.023 0 0 1-.99-.528z" fill="#afb4c8"></path><path d="M13 51v-5a2.653 2.653 0 0 1 .16-.94A2.943 2.943 0 0 1 15 43.18a2.772 2.772 0 0 1 1-.18h4a2.01 2.01 0 0 1 2 2 2.015 2.015 0 0 1-2 2h1a2.006 2.006 0 0 1 2 2 2.015 2.015 0 0 1-2 2h-1a2.006 2.006 0 0 1 2 2 1.955 1.955 0 0 1-.59 1.41 1.661 1.661 0 0 1-.14.13A1.978 1.978 0 0 1 20 55h-3a3.939 3.939 0 0 1-3.13-1.13A4.251 4.251 0 0 1 13 51zM42.73 43.46A1.978 1.978 0 0 1 44 43h4a2.772 2.772 0 0 1 1 .18 2.943 2.943 0 0 1 1.84 1.88A2.653 2.653 0 0 1 51 46v5a4.251 4.251 0 0 1-.87 2.87A3.939 3.939 0 0 1 47 55h-3a1.978 1.978 0 0 1-1.27-.46 1.661 1.661 0 0 1-.14-.13A1.955 1.955 0 0 1 42 53a2.006 2.006 0 0 1 2-2h-1a2.015 2.015 0 0 1-2-2 2.006 2.006 0 0 1 2-2h1a2.015 2.015 0 0 1-2-2 1.981 1.981 0 0 1 .73-1.54z" fill="#e9edf5"></path><path d="M28.03 18.33a52.611 52.611 0 0 1 7.94 0 53.274 53.274 0 0 1 5.34.64 2.042 2.042 0 0 0 .245.021l.2-.871L42 17l-.01-.03a1.941 1.941 0 0 1-.68 0 53.274 53.274 0 0 0-5.34-.64 52.611 52.611 0 0 0-7.94 0 53.274 53.274 0 0 0-5.34.64 1.941 1.941 0 0 1-.68 0L22 17l.25 1.12.2.871a2.042 2.042 0 0 0 .245-.021 53.274 53.274 0 0 1 5.335-.64z" fill="#cdd2e1"></path><path d="M35.99 25.94a5.287 5.287 0 0 1-.8.06H35c0 2.21-1.343 4-3 4a2.7 2.7 0 0 1-2.122-1.17A4.786 4.786 0 0 1 29 26h-.19a5.287 5.287 0 0 1-.8-.06L28 26v1a4 4 0 0 0 8 0v-1z" fill="#e68d79"></path><path d="M42.085 14.97c-1.918-.3-3.846-.52-5.785-.64a61.708 61.708 0 0 0-8.6 0c-1.939.12-3.867.34-5.785.64a2.4 2.4 0 0 1-1.721-.389c.085.35.169.7.256 1.049a1.846 1.846 0 0 0 1.56 1.34 1.941 1.941 0 0 0 .68 0 53.274 53.274 0 0 1 5.34-.64 52.611 52.611 0 0 1 7.94 0 53.274 53.274 0 0 1 5.34.64 1.941 1.941 0 0 0 .68 0 1.846 1.846 0 0 0 1.56-1.34c.087-.35.171-.7.256-1.049a2.4 2.4 0 0 1-1.721.389z" fill="#6f3ff3"></path><path d="M7.42 38.841c.089-.34.189-.674.3-1a14.072 14.072 0 0 1 1.592-3.213L7.11 30.21a13 13 0 0 0-2.3 3.71L5 34zM11.858 31.715c.118-.105.226-.225.347-.326a13.766 13.766 0 0 1 2.636-1.708L13.01 26.02a15.869 15.869 0 0 0-3.18 1.74L10 28zM51.8 31.389c.121.1.229.221.347.326L54 28l.17-.24a15.869 15.869 0 0 0-3.18-1.74l-1.831 3.661a13.766 13.766 0 0 1 2.641 1.708zM56.277 37.838c.114.329.214.663.3 1L59 34l.19-.08a13 13 0 0 0-2.3-3.71l-2.2 4.415a14.072 14.072 0 0 1 1.587 3.213z" fill="#ebf5f7"></path><g fill="#2cb5ff"><path d="M48.955 29.568c.07.033.135.079.2.113l1.835-3.661A13.368 13.368 0 0 0 46 25a22.258 22.258 0 0 0-7.06.81L39 26v1a7 7 0 0 1-.358 2.2 17.819 17.819 0 0 1 5.858-.7 10.437 10.437 0 0 1 4.455 1.068zM52.142 31.715a14.727 14.727 0 0 1 2.081 2.239c.162.217.312.444.462.671l2.2-4.415a15.464 15.464 0 0 0-2.72-2.45L54 28zM15.045 29.568A10.437 10.437 0 0 1 19.5 28.5a17.819 17.819 0 0 1 5.858.7A7 7 0 0 1 25 27v-1l.06-.19A22.258 22.258 0 0 0 18 25a13.368 13.368 0 0 0-4.99 1.02l1.831 3.661c.069-.034.134-.081.204-.113zM59.19 33.92 59 34l-2.42 4.841a12.941 12.941 0 0 1 .42 3.268A22.8 22.8 0 0 1 56.822 45H57c2.21 0 3-3.68 3-7a10.8 10.8 0 0 0-.81-4.08zM7.42 38.841 5 34l-.19-.08A10.8 10.8 0 0 0 4 38c0 3.32.79 7 3 7h.178A22.8 22.8 0 0 1 7 42.109a12.941 12.941 0 0 1 .42-3.268zM9.777 33.954a14.727 14.727 0 0 1 2.081-2.239L10 28l-.17-.24a15.464 15.464 0 0 0-2.72 2.45l2.2 4.415c.155-.225.305-.454.467-.671z" fill="#2cb5ff"></path></g><path d="M44.893 39.316a1.783 1.783 0 0 0-2.6 2.274L43 43h2l-.71-1.41a1.787 1.787 0 0 1 .603-2.274zM20.11 39a1.783 1.783 0 0 0-1 .316 1.787 1.787 0 0 1 .6 2.274L19 43h2l.71-1.41a1.791 1.791 0 0 0-1.6-2.59zM44 55a1.978 1.978 0 0 1-1.27-.46A19 19 0 0 1 32 58a19 19 0 0 1-10.73-3.46A1.978 1.978 0 0 1 20 55h-3l.75 3H20a1.978 1.978 0 0 0 1.27-.46A19 19 0 0 0 32 61a19 19 0 0 0 10.73-3.46A1.978 1.978 0 0 0 44 58h2.25l.75-3z" fill="#2864f0"></path><path d="M20 47h1v-.279A1.959 1.959 0 0 1 20 47zM20 51a1.975 1.975 0 0 1 1 .279V51z" fill="#694240"></path><path d="M24.41 47.41A1.955 1.955 0 0 0 25 46a2.01 2.01 0 0 0-2-2v4a1.955 1.955 0 0 0 1.41-.59z" fill="#8c5956"></path><path d="M26 50a2.006 2.006 0 0 0-2-2h-1v3.148c.57.246 1.179.469 1.809.678A2.023 2.023 0 0 0 26 50z" fill="#8c5956"></path><path d="M22 44v1a1.955 1.955 0 0 1-.59 1.41 1.911 1.911 0 0 1-.41.311V47a1.975 1.975 0 0 1 1 .279A2 2 0 0 1 23 49v-5z" fill="#9da3b5"></path><path d="M23 51.148V52h1a1.974 1.974 0 0 0 .809-.174A22.338 22.338 0 0 1 23 51.148zM23.567 55.91a2 2 0 0 0 .7-.37 1.661 1.661 0 0 0 .14-.13A1.955 1.955 0 0 0 25 54a2.006 2.006 0 0 0-2-2v3.619c.183.102.378.195.567.291z" fill="#694240"></path><path d="M22.41 50.41a1.939 1.939 0 0 1-.376.293l-.034.018A1.959 1.959 0 0 1 21 51v.279A2 2 0 0 1 22 53a1.955 1.955 0 0 1-.59 1.41 2.044 2.044 0 0 1-.131.122c.233.164.462.33.711.488q.486.309 1.01.6V49a1.955 1.955 0 0 1-.59 1.41z" fill="#9da3b5"></path><path d="M44 47a1.959 1.959 0 0 1-1-.279V47zM44 51h-1v.279A1.975 1.975 0 0 1 44 51z" fill="#694240"></path><path d="M41.59 50.41A1.955 1.955 0 0 1 41 49v2.148q.5-.215.966-.445a1.939 1.939 0 0 1-.376-.293z" fill="#9da3b5"></path><path d="M41 49v-1h-1a2.006 2.006 0 0 0-2 2 2.023 2.023 0 0 0 1.191 1.826c.63-.209 1.239-.432 1.809-.678zM39.73 44.46A1.981 1.981 0 0 0 39 46a2.015 2.015 0 0 0 2 2v-4a1.978 1.978 0 0 0-1.27.46z" fill="#8c5956"></path><path d="M42.59 46.41A1.955 1.955 0 0 1 42 45v-1h-1v5a2 2 0 0 1 1-1.721A1.975 1.975 0 0 1 43 47v-.279a1.911 1.911 0 0 1-.41-.311z" fill="#9da3b5"></path><path d="M39 54a1.955 1.955 0 0 0 .59 1.41 1.661 1.661 0 0 0 .14.13 2 2 0 0 0 .7.37c.189-.1.384-.189.567-.291V52A2.006 2.006 0 0 0 39 54zM41 51.148c-.57.246-1.179.469-1.809.678A1.974 1.974 0 0 0 40 52h1z" fill="#694240"></path><path d="M43 51.279V51a1.959 1.959 0 0 1-1-.279l-.034-.018q-.467.23-.966.445v4.471q.523-.289 1.01-.6c.249-.158.478-.324.711-.488a2.044 2.044 0 0 1-.131-.122A1.955 1.955 0 0 1 42 53a2 2 0 0 1 1-1.721z" fill="#9da3b5"></path><path d="M42 53a1.955 1.955 0 0 0 .59 1.41c.047.047.086.084.131.122.092-.064.19-.126.279-.191v-3.062A2 2 0 0 0 42 53z" fill="#e9edf5"></path><path d="M50 51h-6a2.006 2.006 0 0 0-2 2h6a2 2 0 0 0 2-2z" fill="#f7faff"></path><path d="M48 49h-7a2.015 2.015 0 0 0 2 2h7a2 2 0 0 0-2-2z" fill="#e9edf5"></path><path d="M48 53h-6a1.955 1.955 0 0 0 .59 1.41 1.661 1.661 0 0 0 .14.13A1.978 1.978 0 0 0 44 55h3a3.939 3.939 0 0 0 3.13-1.13A4.251 4.251 0 0 0 51 51h-1a2 2 0 0 1-2 2z" fill="#dce1eb"></path><path d="M50.84 45.06A2.943 2.943 0 0 0 49 43.18a2.772 2.772 0 0 0-1-.18h-4a2.01 2.01 0 0 0-2 2h6a2 2 0 0 1 2 2h1v-1a2.653 2.653 0 0 0-.16-.94zM44 47h-1a2.006 2.006 0 0 0-2 2h7a2 2 0 0 1 2 2h1v-4zM14 51h6a2.006 2.006 0 0 1 2 2h-6a2 2 0 0 1-2-2z" fill="#f7faff"></path><path d="M16 49h7a2.015 2.015 0 0 1-2 2h-7a2 2 0 0 1 2-2z" fill="#e9edf5"></path><path d="M16 53h6a1.955 1.955 0 0 1-.59 1.41 1.661 1.661 0 0 1-.14.13A1.978 1.978 0 0 1 20 55h-3a3.939 3.939 0 0 1-3.13-1.13A4.251 4.251 0 0 1 13 51h1a2 2 0 0 0 2 2z" fill="#dce1eb"></path><path d="M13.16 45.06A2.943 2.943 0 0 1 15 43.18a2.772 2.772 0 0 1 1-.18h4a2.01 2.01 0 0 1 2 2h-6a2 2 0 0 0-2 2h-1v-1a2.653 2.653 0 0 1 .16-.94zM20 47h1a2.006 2.006 0 0 1 2 2h-7a2 2 0 0 0-2 2h-1v-4z" fill="#f7faff"></path><path d="M13 46a2.653 2.653 0 0 1 .16-.94L13 45H7a2 2 0 0 0 2 2 1 1 0 0 1 1 1v2.646A2 2 0 0 1 8.743 52.5L7.5 53a14 14 0 0 1-5.2 1h-.273a5.107 5.107 0 0 0 4.033 2 5.189 5.189 0 0 0 1.5-.22l6.31-1.91A4.251 4.251 0 0 1 13 51zM61.7 54a14 14 0 0 1-5.2-1l-1.24-.5A2 2 0 0 1 54 50.646V48a1 1 0 0 1 1-1 2 2 0 0 0 2-2h-6l-.16.06A2.653 2.653 0 0 1 51 46v5a4.251 4.251 0 0 1-.87 2.87l6.31 1.91a5.189 5.189 0 0 0 1.5.22 5.107 5.107 0 0 0 4.033-2z" fill="#e68d79"></path><path d="m18.456 40.632.475-1.425A1.756 1.756 0 0 0 18.11 39a1.777 1.777 0 0 0-1.6.99L15.5 42h1.056a2 2 0 0 0 1.9-1.368zM47.442 42H48.5l-1.01-2.01a1.777 1.777 0 0 0-1.6-.99 1.756 1.756 0 0 0-.821.207l.475 1.425A2 2 0 0 0 47.442 42z" fill="#dce1eb"></path><path d="M38.94 25.81c-.3.093-.628.217-.946.335C37.927 29.947 35.274 33 32 33s-5.927-3.053-5.994-6.855c-.318-.118-.641-.242-.946-.335L25 26v1a7 7 0 0 0 14 0v-1zM34 8h-4a2.006 2.006 0 0 0-2 2v1a2.006 2.006 0 0 1 2-2h4a2.006 2.006 0 0 1 2 2v-1a2.006 2.006 0 0 0-2-2z" fill="#cdd2e1"></path><path d="M30 1h1v7h-1zM33 1h1v7h-1z" fill="#dce1eb"></path><path d="M30 1h4v3h-4z" fill="#9863fc"></path><path d="M29.065 4H30V1h-.69a8 8 0 0 0-7.97 7.28A8.859 8.859 0 0 1 29.065 4zM34.182 4h.753a8.859 8.859 0 0 1 7.725 4.282A8 8 0 0 0 34.69 1H34v3z" fill="#2cb5ff"></path><path d="M30 1h1v3h-1zM33 1h1v3h-1z" fill="#f7faff"></path><path d="m41.491 16.986-.171.77a14.62 14.62 0 0 1-5.065.716l.21-2.1c-.165-.013-.33-.036-.5-.047s-.335-.018-.5-.029l-.218 2.187c-.947.017-2.02.017-3.247.017s-2.3 0-3.249-.012l-.218-2.188c-.168.011-.336.016-.5.029s-.33.034-.5.047l.21 2.1a14.62 14.62 0 0 1-5.065-.716l-.171-.77a1.931 1.931 0 0 1-.5-.016 2.015 2.015 0 0 1-.472-.137.484.484 0 0 0-.026.275l.124.561.177.795.655 2.946c.026.118.074.224.106.339a6.758 6.758 0 0 0 .221.707 6.453 6.453 0 0 0 6.021 4.04h6.374a6.453 6.453 0 0 0 6.018-4.044 6.758 6.758 0 0 0 .221-.707c.032-.115.08-.221.106-.339l.655-2.946.177-.795.124-.561a.484.484 0 0 0-.026-.275 2.015 2.015 0 0 1-.472.137 1.931 1.931 0 0 1-.499.016zm-18.047 4.207-.508-2.286a18.38 18.38 0 0 0 4.909.566l.3 3a11.011 11.011 0 0 1-4.531-.739 5.621 5.621 0 0 1-.17-.541zm.78 1.834a15.14 15.14 0 0 0 4.021.451l.2 1.991a5.439 5.439 0 0 1-4.221-2.442zM34.547 25.5h-5.094l-.2-2.007c.793.007 1.7.007 2.748.007s1.955 0 2.748-.007zm.3-3.008c-.811.008-1.747.008-2.847.008s-2.036 0-2.848-.008l-.3-3c.932.01 1.969.011 3.148.011s2.216 0 3.148-.011zm.708 2.977.2-1.991a15.14 15.14 0 0 0 4.021-.451 5.439 5.439 0 0 1-4.22 2.442zm5-4.276a5.621 5.621 0 0 1-.17.543 11.011 11.011 0 0 1-4.531.739l.3-3a18.38 18.38 0 0 0 4.909-.566z" fill="#333940"></path><path d="M28 10a2 2 0 0 1 2-2h4a2 2 0 0 1 2 2v1.14c.334.021.666.063 1 .089V10a3 3 0 0 0-3-3h-4a3 3 0 0 0-3 3v1.229c.334-.026.666-.068 1-.089z" fill="#414952"></path><path d="M42 14.5a.973.973 0 0 1-.316-.052 14.814 14.814 0 0 0-1.849-.4 1 1 0 0 1 .33-1.973 15.527 15.527 0 0 1 2.151.478A1 1 0 0 1 42 14.5zM22 14.5a1 1 0 0 1-.318-1.948c.13-.044 3.237-1.052 10.318-1.052 1.811 0 3.522.067 5.084.2a1 1 0 1 1-.167 1.993A58.17 58.17 0 0 0 32 13.5c-6.7 0-9.658.94-9.687.949A.991.991 0 0 1 22 14.5z" fill="#cb5fff"></path><ellipse cx="45.684" cy="28.695" fill="#f6fafd" rx="1.642" ry="2.286" transform="rotate(-45 45.706 28.709)"></ellipse><ellipse cx="41.682" cy="29.708" fill="#f6fafd" rx=".825" ry="1.148" transform="rotate(-45 41.702 29.724)"></ellipse><ellipse cx="37.682" cy="5.708" fill="#f6fafd" rx=".825" ry="1.148" transform="rotate(-45 37.7 5.711)"></ellipse><ellipse cx="38.427" cy="43.208" fill="#f6fafd" rx=".413" ry=".574" transform="rotate(-45 38.446 43.23)"></ellipse></g></svg>