<svg viewBox="0 0 320 495.974" xmlns="http://www.w3.org/2000/svg"><g><path d="m5.42 489.714.01.01c72.091 3.806 141.364 1.958 120.41-180.95-39.73 15.82-102.22 59.74-120.42 180.94zM194.16 308.774c-6.997 155.701 46.1 189.789 120.41 180.95l.01-.01c-18.2-121.2-80.69-165.12-120.42-180.94z" fill="#5d5560"></path><path d="M197.08 473.964c-5.946 6.072-7.875 13.339-5.08 22.01h32.87c9.263-19.33 0-26.667-27.79-22.01zM122.93 473.984l-.01-.02c-20.941-7.119-27.654 3.373-27.79 22.01H128c4.129-9.286 2.133-16.513-5.07-21.99z" fill="#5d5560"></path><path d="m204 343.974 11.94-8.18c-6.5-10.78-15.2-20.45-21.78-27.02-5.52-5.5-9.55-8.83-9.55-8.83l-12.904 40.96 15.484 53.56c22.657 13.849 32.47 11.653 25.53-11.47l.01-.03c1.9-11.44 3.27-18.99 3.27-18.99-4-8-12-20-12-20zM135.39 299.944s-4.03 3.33-9.55 8.83c-6.58 6.57-15.28 16.24-21.78 27.02l11.94 8.18s-8 12-12 20c0 0 1.37 7.53 3.27 18.97l.01.05c-3.333 21.065 6.053 24.146 25.48 13.03l14.375-54.98z" fill="#655f68"></path><path d="m180.2 460.964-4.2 35.01h-32l-4.2-35.01c-.296-4.775 1.622-6.426 5.85-4.82l14.35 11.62 14.35-11.62c6.062-1.321 7.797.439 5.85 4.82zM134.27 341.044l12.425-16.773 7.977 19.703-9.273 69.37c-.13-6.25-7.65-10.41-13.81-5.54 3.32-3.26 3.23-8.21 1.17-11.78zM188.41 407.804c-6.16-4.87-13.68-.71-13.81 5.54l-8.695-69.37 7.31-18.99 12.516 15.92 1.46 53.56c-2.971 3.49-3.341 9.33 1.219 13.34z" fill="#d6eae8"></path><path d="M220 43.974s-12.38-20.67-27.72-23.83c-6.85-1.41-13.37-4.15-19.31-7.85-15.7-9.78-45.41-22.36-70.71.95a10.259 10.259 0 0 1-5.81 2.66c-8.37.92-29.99 5.4-35.51 27.07-.77 3.03-2.96 5.44-5.79 6.75-18.88 8.69-11.16 31.28-35.15 42.25 0 0 22.18 5.89 34.34-8.39l.04.01c-3.86 15.56-3.97 45.39 7.43 72.76h196.38C276 87.974 252.33 43.974 220 43.974z" fill="#ad6a6a"></path><path d="M261.78 157.374c12.1 4.81 17.53 20.63 12.13 35.32-4.67 12.71-15.93 20.4-26.71 19.12h-.01c-13.881-18.469-13.489-38.655 11-55.46 1.21.23 2.41.55 3.59 1.02zM61.81 156.354c-1.21.23-2.41.55-3.59 1.02-12.1 4.81-17.53 20.63-12.13 35.32 4.67 12.71 15.93 20.4 26.71 19.12h.01c14.374-22.153 10.536-40.605-11-55.46z" fill="#f7b6ad"></path><path d="M189.12 69.274c-4.9-1.44-9.96-4.68-13.77-8.09a33.845 33.845 0 0 0-4.26-3.22c-29.14 9.29-44.69 7.11-61.29 4.53-3.35 2.93-6.57 6.43-9.64 10.33-23.62 30-38.35 83.53-38.35 83.53 1.5 15.17 3.89 29.47 6.98 41.78 1.23 4.9 2.57 9.48 4.02 13.68 2.18 6.35 4.59 11.82 7.19 16.15 9.24 15.41 30.35 35.56 56.02 44l-.02.07-.61 27.91c4.458 9.668 12.763 15.579 24.61 18.03 12.269-.259 20.095-6.803 24.61-18.03l-.61-27.91-.02-.07c25.67-8.44 46.78-28.59 56.02-44 2.6-4.33 5.01-9.8 7.19-16.15 5.07-14.74 8.9-34.25 11-55.46 0 0-15.13-71.18-69.07-87.08z" fill="#fec4b9"></path><path d="M105.02 479.284c4.857-27.134-3.451-42.607-35.05-37.45-2.11-1.21-4.7-.98-6.65.46-2.62 1.94-5.61 4.12-8.85 6.49-14.96 10.96-35.22 26.06-49.04 40.94-1.96 2.09-3.77 4.18-5.43 6.25h95.13l9.25-10.55c1.33-1.77 1.59-4.14.64-6.14zM314.57 489.724c-13.82-14.88-34.08-29.98-49.04-40.94-3.24-2.37-6.23-4.55-8.85-6.49-1.95-1.44-4.54-1.67-6.65-.46-30.127-6.852-38.355 9.253-35.05 37.45-.01.01-.01.03-.02.04-.93 1.99-.66 4.34.66 6.1l9.25 10.55H320c-1.66-2.07-3.47-4.16-5.43-6.25zM197.08 473.964l-5.08 22.01h-16l4.2-35.01 10.05 8.29c2.15 1.76 4.43 3.34 6.83 4.71zM139.8 460.964l4.2 35.01h-16l-5.07-21.99-.01-.02c2.4-1.37 4.68-2.95 6.83-4.71z" fill="#655f68"></path><path d="M168 343.974c-6.31-6.205-11.644-6.205-16 0l-6.6 69.37c-14.197 12.601-12.561 27.049.25 42.8l14.35 19.83 14.35-19.83c16.764-7.755 21.465-30.886.25-42.8z" fill="#5d5560"></path><path d="M173.32 329.834v.01l-5.32 14.13h-16l-5.23-14.14c-.723-8.658 3.815-12.495 13.23-11.86 8.36-.904 14.023 1.533 13.32 11.86z" fill="#655f68"></path><path d="m185.73 340.904-12.41-11.06v-.01L160 317.974l24.61-18.03z" fill="#e7f2f1"></path><path d="M272 235.974c0 21 20 24 20 24s-20 3-20 24c0-21-20-24-20-24s20-3 20-24z" fill="#ffc05a"></path><circle cx="200.01" cy="159.974" fill="#543927" r="8"></circle><path d="m146.77 329.834-12.5 11.21 1.12-41.1 24.61 18.03z" fill="#e7f2f1"></path><circle cx="120.01" cy="159.974" fill="#543927" r="8"></circle><path d="M48 267.974c0 21 20 24 20 24s-20 3-20 24c0-21-20-24-20-24s20-3 20-24z" fill="#ffc05a"></path><path d="M179.24 422.034c-3.38-2.92-4.7-6-4.64-8.69.13-6.25 7.65-10.41 13.81-5.54-4.56-4.01-4.19-9.85-1.22-13.34 2.71-3.17 7.55-4.41 12.8-.63l8.04 6.34c-3.91-4.73-3.73-9.77-2.23-13.6 1.12-2.87 4.16-4.23 6.92-3.58.87.2 1.71.6 2.45 1.22 5.99 4.94 14.15 11.23 18.1 14.46 2.2 1.81 3.98 4.07 5.25 6.63 9.21 18.62 10.17 16.59 11.51 36.53-6.64 3.82-25.18 16.63-35.05 37.45-.01.01-.01.03-.02.04l-.07-.03c-.57.05-3.69.19-9.23-1.56-2.99-.95-5.86-2.22-8.58-3.77-2.4-1.37-4.68-2.95-6.83-4.71l-10.05-8.29-5.85-4.82c-5.28-4.17-10.92-12.35-.49-19.87-6.91-9.28.94-18.19 5.38-14.24zM131.59 407.804c6.16-4.87 13.68-.71 13.81 5.54.06 2.69-1.26 5.77-4.64 8.69 4.44-3.95 12.29 4.96 5.38 14.24l.02.02c10.41 7.51 4.77 15.68-.51 19.85l-5.85 4.82-10.05 8.29a49.644 49.644 0 0 1-6.83 4.71 44.621 44.621 0 0 1-8.58 3.77c-6.15 1.94-9.32 1.55-9.32 1.55-9.87-20.82-28.41-33.63-35.05-37.45 1.34-19.94 2.3-17.91 11.51-36.53 1.27-2.56 3.05-4.82 5.25-6.63 3.95-3.23 12.11-9.52 18.1-14.46.74-.62 1.58-1.02 2.45-1.22 2.76-.65 5.8.71 6.92 3.58 1.5 3.83 1.68 8.87-2.23 13.6l8.04-6.34c5.39-4.24 10.39-1.94 12.75 2.19 2.06 3.57 2.15 8.52-1.17 11.78z" fill="#fec4b9"></path><path d="M296.32 472.604c-10.45-8.83-21.62-17.1-30.79-23.82l-1.282-30.832a5.74 5.74 0 0 1 5.734-5.978c2.952 0 5.431 2.238 5.712 5.177 1.133 11.856 5.407 41.059 20.626 55.453zM55.771 417.493l-1.301 31.292c-8.85 6.49-19.56 14.42-29.7 22.91 15.49-16.916 19.445-43.985 20.431-54.913a5.29 5.29 0 0 1 5.275-4.807 5.298 5.298 0 0 1 5.295 5.518z" fill="#524956"></path><path d="m184 272.034.3 13.96c-28.35 10.43-48.3-3.32-48.3-3.32l-.23-.01.23-10.63.02-.07c7.65 2.52 15.71 4 23.98 4s16.33-1.48 23.98-4z" fill="#f7b6ad"></path><path d="M149.902 53.785c-.281 0-.565-.03-.851-.092-8.324-1.804-18.098-2.719-29.051-2.719a4 4 0 0 1 0-8c11.521 0 21.866.976 30.745 2.9a4 4 0 0 1-.843 7.911zM182.794 48.398a4 4 0 0 1-3.474-2.011c-4.29-7.48-9.494-11.054-9.546-11.089-1.824-1.234-2.315-3.715-1.09-5.544s3.691-2.33 5.525-1.113c.274.182 6.765 4.55 12.05 13.768a3.998 3.998 0 0 1-3.465 5.989zM93.864 64.318a4 4 0 0 1-.392-.019 129.05 129.05 0 0 0-14.922-.605c-2.192.055-4.031-1.72-4.07-3.929a4 4 0 0 1 3.929-4.07c5.255-.095 10.437.117 15.837.641a4 4 0 0 1-.382 7.982zM71.14 89.954a4 4 0 0 1-2.84-6.817c5.952-6.002 11.249-7.475 16.164-8.468a4 4 0 0 1 1.585 7.841c-4.154.839-7.68 1.833-12.068 6.259a3.986 3.986 0 0 1-2.841 1.185z" fill="#a35757"></path><g fill="#f7b6ad"><path d="M115.003 424.614a4 4 0 0 1-2.448-7.166l9.415-7.27a4 4 0 1 1 4.89 6.332l-9.415 7.27a3.985 3.985 0 0 1-2.442.834zM103.282 411.024a4 4 0 0 1-2.478-7.142l4.34-3.42a4.001 4.001 0 0 1 4.951 6.285l-4.34 3.42a3.986 3.986 0 0 1-2.473.857zM126.882 437.214a4.001 4.001 0 0 1-2.512-7.116l7.39-5.953a4.001 4.001 0 0 1 5.019 6.231l-7.39 5.953a3.98 3.98 0 0 1-2.507.885zM136.062 449.634a4 4 0 0 1-2.628-7.017l5.495-4.785a4 4 0 0 1 5.254 6.034l-5.495 4.785a3.989 3.989 0 0 1-2.626.983zM204.997 424.614a3.983 3.983 0 0 1-2.442-.834l-11.147-8.607a4 4 0 1 1 4.89-6.332l11.147 8.607a4 4 0 0 1-2.448 7.166zM216.717 411.024c-.866 0-1.739-.28-2.473-.858l-4.471-3.522a4.001 4.001 0 0 1 4.951-6.285l4.471 3.522a4.001 4.001 0 0 1-2.478 7.143zM193.118 437.214c-.881 0-1.768-.29-2.507-.885l-8.153-6.567a4.001 4.001 0 0 1 5.019-6.231l8.153 6.567a4.001 4.001 0 0 1-2.512 7.116zM183.938 449.634a3.986 3.986 0 0 1-2.625-.983l-4.888-4.257a4.001 4.001 0 0 1 5.254-6.034l4.888 4.257a4.001 4.001 0 0 1-2.629 7.017z" fill="#f7b6ad"></path></g><path d="M144 187.974a4 4 0 0 1 0-8c12.786 0 22.817-3.685 29.009-10.656a4 4 0 0 1 5.981 5.313c-5.406 6.087-15.865 13.343-34.99 13.343z" fill="#e15c63"></path><path d="M213.117 126.124a3.983 3.983 0 0 1-2.298-.729c-7.23-5.088-17.681-3.377-17.785-3.36a4.003 4.003 0 0 1-4.619-3.258 3.996 3.996 0 0 1 3.241-4.622c.558-.098 13.781-2.328 23.766 4.698a4 4 0 0 1-2.305 7.271zM106.903 126.124a4 4 0 0 1-2.305-7.272c9.985-7.026 23.208-4.795 23.766-4.698a4.001 4.001 0 0 1-1.379 7.881c-.148-.024-10.569-1.715-17.784 3.36a3.973 3.973 0 0 1-2.298.729z" fill="#ad6a6a"></path></g></svg>