<svg viewBox="0 0 60 59" xmlns="http://www.w3.org/2000/svg"><g><g fill="none" fill-rule="nonzero"><path d="M16 17V7a2.006 2.006 0 0 1 2-2h24a2.006 2.006 0 0 1 2 2v10" fill="#3b97d3"></path><path d="M12 33.22V19a2.006 2.006 0 0 1 2-2h32a2.006 2.006 0 0 1 2 2v14.22z" fill="#d1d4d1"></path><path d="M52.67 37.26 39.93 56.67c-1.72-.02-3.434.206-5.09.67a18 18 0 0 1-9.66 0h-.01a18.1 18.1 0 0 0-5.1-.67L7.33 37.26a1.988 1.988 0 0 1 1.12-3.01L30 28l21.55 6.25a1.988 1.988 0 0 1 1.12 3.01z" fill="#c03a2b"></path><g fill="#3b97d3"><circle cx="34" cy="23" fill="#3b97d3" r="2"></circle><circle cx="26" cy="23" fill="#3b97d3" r="2"></circle><circle cx="18" cy="23" fill="#3b97d3" r="2"></circle></g><circle cx="38" cy="11" fill="#b0d3f0" r="2"></circle><circle cx="30" cy="11" fill="#b0d3f0" r="2"></circle><circle cx="22" cy="11" fill="#b0d3f0" r="2"></circle><circle cx="42" cy="23" fill="#3b97d3" r="2"></circle><path d="M27 0h6a1 1 0 0 1 1 1v4h-8V1a1 1 0 0 1 1-1z" fill="#285680"></path><path d="m52.67 37.26-6.18 9.41L30 41V28l21.55 6.25a1.988 1.988 0 0 1 1.12 3.01zM43.88 50.65l-3.95 6.02c-1.72-.02-3.434.206-5.09.67a18.2 18.2 0 0 1-4.83.66H30V46z" fill="#e64c3c"></path><path d="M30 41v5l-13.88 4.65-2.61-3.98z" fill="#d1d4d1"></path><path d="m46.49 46.67-2.61 3.98L30 46v-5z" fill="#ffffff"></path><path d="M10.667 59a19.029 19.029 0 0 1-5.09-.7L.733 56.964a1 1 0 1 1 .534-1.928l4.843 1.339c2.983.837 6.139.837 9.122 0a18.889 18.889 0 0 1 10.206 0 16.9 16.9 0 0 0 9.132 0 18.871 18.871 0 0 1 10.2 0c2.987.839 6.146.839 9.133 0l4.829-1.337a1 1 0 1 1 .534 1.928L54.437 58.3a18.856 18.856 0 0 1-10.2 0 16.893 16.893 0 0 0-9.13 0 18.867 18.867 0 0 1-10.2 0 16.9 16.9 0 0 0-9.131 0 19.107 19.107 0 0 1-5.109.7z" fill="#2fa8cc"></path></g></g></svg>