<svg id="Capa_1" enable-background="new 0 0 512 512" height="512" viewBox="0 0 512 512" width="512" xmlns="http://www.w3.org/2000/svg"><g><g><path d="m239.655 504.035-.138-91.553h29.226l7.861 43.631v51.765c0 2.276-1.845 4.121-4.121 4.121h-16.483l-12.224-3.844c-2.276.001-4.121-1.844-4.121-4.12z" fill="#7e7d89"/><path d="m276.604 416.605v39.509l-14.043.175c-3.636.045-6.561 3.006-6.561 6.643v49.068h-16.483c-2.276 0-4.121-1.845-4.121-4.121v-91.274c0-2.276 1.845-4.121 4.121-4.121h32.966c2.276 0 4.121 1.845 4.121 4.121z" fill="#717182"/></g><path d="m469.763 213.763c0 54.684-20.534 104.572-54.311 142.375-2.986 3.341-6.758 6.052-9.946 9.199-38.605 38.12-90.965 54.636-149.505 54.636-118.058 0-202.937-88.152-202.937-206.21 0-51.557 9.455-98.646 39.85-135.567 6.82-8.284 12.222-16.251 20.196-23.421 37.863-34.054 87.956-54.775 142.89-54.775 118.058 0 213.763 95.705 213.763 213.763z" fill="#f2f2f0"/><path d="m416.142 355.361c-39.168 44.267-96.394 72.164-160.142 72.164-118.059 0-213.763-95.704-213.763-213.763 0-63.748 27.897-120.974 72.164-160.142-33.368 37.694-53.621 87.287-53.621 141.598 0 118.059 95.704 213.763 213.763 213.763 54.311.001 103.904-20.253 141.599-53.62z" fill="#e4e5e1"/><path d="m433.706 213.763c0 36.804-11.549 71.514-30.71 99.876-43.519 46.739-85.656 64.06-146.997 64.06-98.144 0-167.256-65.792-167.256-163.936 0-42.365 7.057-80.501 31.802-111.037 5.794-7.15 10.428-14.383 16.272-20.775 31.525-28.521 73.324-45.895 119.183-45.895 98.144 0 177.706 79.562 177.706 177.707z" fill="#26a6fe"/><path d="m402.997 313.639c-31.967 46.976-85.876 77.83-146.997 77.83-98.145 0-177.706-79.561-177.706-177.706 0-52.292 22.582-99.299 58.525-131.812-19.388 28.464-30.71 62.841-30.71 99.876 0 98.145 79.561 177.706 177.706 177.706 45.864 0 87.658-17.369 119.182-45.894z" fill="#0593fc"/><path d="m308.086 164.003-42.325-63.487c-4.644-6.965-14.879-6.965-19.522 0l-42.325 63.487c-2.599 3.898.196 9.119 4.881 9.119h17.233c2.276 0 4.121 1.845 4.121 4.121v150.87c0 2.276 1.845 4.121 4.121 4.121h43.461c2.276 0 4.121-1.845 4.121-4.121v-150.87c0-2.276 1.845-4.121 4.121-4.121h17.233c4.684 0 7.478-5.221 4.88-9.119z" fill="#f2f2f0"/></g></svg>