<svg viewBox="0 0 512 512" xmlns="http://www.w3.org/2000/svg"><g><path d="m111.805 465.968 46.521-420.309H445.01v420.309zM66.986 466.349c0-.397 0-.784.01-1.181v1.17l-.01.011z" fill="#e5e9ea"></path><path d="M158.321 45.662v420.687c0-25.234-20.438-45.673-45.662-45.673-24.816 0-45.035 19.801-45.662 44.492V45.662h-.01C66.986 20.449 87.446 0 112.659 0c25.224 0 45.662 20.449 45.662 45.662z" fill="#f4f4f4"></path><path d="M112.659 0v420.677c-24.816 0-45.035 19.801-45.662 44.492V45.662h-.01C66.986 20.449 87.446 0 112.659 0z" fill="#d1d1d1"></path><path d="m445.014 465.972-2.79 6.604-1.912 4.524-3.051 7.199-1.672 3.95-.24.575-1.526 3.605-3.187 7.544-1.766 4.18-3.323 7.847H112.662c-25.213 0-45.673-20.438-45.673-45.652 0-25.224 20.459-45.673 45.673-45.673 25.224 0 45.662 20.449 45.662 45.673l286.69-.376z" fill="#d1d1d1"></path><path d="M146.287 466.34v33.63h-33.63c-18.58 0-33.63-15.05-33.63-33.63 0-18.566 15.05-33.63 33.63-33.63 18.566 0 33.63 15.064 33.63 33.63z" fill="#b2b2b2"></path><path d="M280.508 304.244h-96.721a7.837 7.837 0 0 1-7.837-7.837 7.837 7.837 0 0 1 7.837-7.837h96.721a7.837 7.837 0 0 1 0 15.674zM280.508 337.053h-96.721c-4.329 0-7.837-3.509-7.837-7.837s3.508-7.837 7.837-7.837h96.721c4.329 0 7.837 3.509 7.837 7.837s-3.508 7.837-7.837 7.837zM280.508 369.863h-96.721c-4.329 0-7.837-3.509-7.837-7.837s3.508-7.837 7.837-7.837h96.721c4.329 0 7.837 3.509 7.837 7.837s-3.508 7.837-7.837 7.837zM280.508 402.673h-96.721a7.837 7.837 0 0 1-7.837-7.837 7.837 7.837 0 0 1 7.837-7.837h96.721a7.837 7.837 0 0 1 0 15.674zM280.508 435.483h-96.721c-4.329 0-7.837-3.509-7.837-7.837s3.508-7.837 7.837-7.837h96.721c4.329 0 7.837 3.509 7.837 7.837s-3.508 7.837-7.837 7.837zM409.947 107.384h-96.721a7.837 7.837 0 0 1-7.837-7.837 7.837 7.837 0 0 1 7.837-7.837h96.721a7.837 7.837 0 0 1 7.837 7.837 7.837 7.837 0 0 1-7.837 7.837zM409.947 140.194h-96.721c-4.329 0-7.837-3.509-7.837-7.837s3.508-7.837 7.837-7.837h96.721c4.329 0 7.837 3.509 7.837 7.837s-3.508 7.837-7.837 7.837zM409.947 173.004h-96.721c-4.329 0-7.837-3.509-7.837-7.837s3.508-7.837 7.837-7.837h96.721c4.329 0 7.837 3.509 7.837 7.837s-3.508 7.837-7.837 7.837zM409.947 402.673h-96.721a7.837 7.837 0 0 1-7.837-7.837 7.837 7.837 0 0 1 7.837-7.837h96.721a7.837 7.837 0 0 1 0 15.674zM409.947 435.483h-96.721c-4.329 0-7.837-3.509-7.837-7.837s3.508-7.837 7.837-7.837h96.721c4.329 0 7.837 3.509 7.837 7.837s-3.508 7.837-7.837 7.837z" fill="#566368"></path><path d="M183.787 99.548h96.716v164.049h-96.716z" fill="#fa3f68"></path><path d="M242.646 218.845h-20.898l-2.518 44.752h-35.443V161.542s37.46 0 55.139-10.083l3.72 67.386z" fill="#ffffff"></path><path d="M313.23 194.926h96.716v164.049H313.23z" fill="#53bce9"></path><path d="M247.525 142.044c-1.097 3.845-4.253 6.938-8.6 9.415-17.68 10.083-55.139 10.083-55.139 10.083V99.548h51.2c.001 0 18.109 22.987 12.539 42.496z" fill="#fcb65f"></path><path d="M409.948 271.142v87.834h-96.716v-31.409l34.607-39.706 24.074 21.316z" fill="#566368"></path><path d="M409.948 342.643v16.332h-96.716v-31.41l34.607-39.707 24.073 21.318.043-.042z" fill="#435054"></path><circle cx="354.106" cy="242.699" fill="#fcb65f" r="21.943"></circle><path d="M208.864 190.108a7.835 7.835 0 0 1-7.338-5.088 7.839 7.839 0 0 1 4.586-10.09l11.146-4.18a7.837 7.837 0 1 1 5.504 14.676l-11.146 4.18a7.812 7.812 0 0 1-2.752.502z" fill="#435054"></path><path d="M66.986 466.349c0-.397 0-.784.01-1.181v1.17l-.01.011z" fill="#e5e9ea"></path><path d="m433.823 492.43-3.187 7.543-1.766 4.18H161.26V492.43zM442.224 472.577l-1.913 4.524-3.051 7.199H172.41v-11.723z" fill="#b2b2b2"></path></g></svg>