<svg viewBox="0 0 512 512" xmlns="http://www.w3.org/2000/svg"><g><path d="M282.656 460.088h-52.077l-9.157 8.276v13.357c0 16.723 13.556 30.279 30.28 30.279h8.596c16.723 0 30.28-13.557 30.28-30.279v-13.357z" fill="#6b7ed9"></path><path d="M268.096 407.291h-52.712l-8.929 7.756v36.334c0 9.463 7.672 17.135 17.135 17.135h53.312z" fill="#9be8fd"></path><path d="M297.083 407.291h-26.755l-10.56 8.144v35.945c0 9.463 7.67 17.134 17.132 17.135h11.51c9.463 0 17.135-7.672 17.135-17.135v-36.334z" fill="#c9f0fe"></path><path d="M264.465 415.435h-53.531c-14.495 0-26.247-11.751-26.247-26.247v-19.824c0-11.54-4.885-22.623-13.65-30.13-28.504-24.415-46.606-60.625-46.731-101.07-.226-72.857 58.843-132.993 131.694-134.006a132.626 132.626 0 0 1 24.553 2.642l16.53 18.334v260.523z" fill="#fbc700"></path><path d="M280.553 106.8c-47.931 12.403-84.184 66.899-84.027 131.365.048 19.586 3.409 38.172 9.395 54.913h15.502v31.109c3.6 5.402 7.53 10.436 11.753 15.047 6.874 7.507 10.705 18.59 10.705 30.13v19.824c0 14.496 9.216 26.247 20.584 26.247h36.601c14.496 0 26.247-11.751 26.247-26.247v-19.824c0-11.54 4.886-22.623 13.65-30.13 28.504-24.415 46.606-60.625 46.731-101.07.2-64.465-46.025-118.961-107.141-131.364z" fill="#ffe02f"></path><path d="M224.68 204.515a7.726 7.726 0 0 1-7.726-7.726v-36.521a7.726 7.726 0 1 1 15.452 0v36.521a7.727 7.727 0 0 1-7.726 7.726zM256 204.515a7.726 7.726 0 0 1-7.726-7.726v-36.521a7.726 7.726 0 1 1 15.452 0v36.521a7.726 7.726 0 0 1-7.726 7.726zM287.32 204.515a7.726 7.726 0 0 1-7.726-7.726v-36.521a7.726 7.726 0 1 1 15.452 0v36.521a7.727 7.727 0 0 1-7.726 7.726zM224.68 339.213a7.726 7.726 0 0 1-7.726-7.726v-33.74a7.726 7.726 0 1 1 15.452 0v33.74a7.726 7.726 0 0 1-7.726 7.726zM256 339.213a7.726 7.726 0 0 1-7.726-7.726v-33.74a7.726 7.726 0 1 1 15.452 0v33.74a7.725 7.725 0 0 1-7.726 7.726zM287.32 339.213a7.726 7.726 0 0 1-7.726-7.726v-33.74a7.726 7.726 0 1 1 15.452 0v33.74a7.726 7.726 0 0 1-7.726 7.726zM205.598 284.924h-35.207a7.726 7.726 0 1 1 0-15.452h35.207a7.726 7.726 0 1 1 0 15.452zM205.598 253.604h-35.207a7.726 7.726 0 1 1 0-15.452h35.207a7.726 7.726 0 1 1 0 15.452zM205.598 222.284h-35.207a7.726 7.726 0 1 1 0-15.452h35.207a7.726 7.726 0 1 1 0 15.452zM341.61 284.923h-32.65a7.726 7.726 0 1 1 0-15.452h32.65a7.726 7.726 0 1 1 0 15.452zM341.61 253.604h-32.65a7.726 7.726 0 1 1 0-15.452h32.65a7.726 7.726 0 1 1 0 15.452zM341.61 222.284h-32.65a7.726 7.726 0 1 1 0-15.452h32.65a7.726 7.726 0 1 1 0 15.452z" fill="#ff7c42"></path><path d="M359.659 119.525a7.726 7.726 0 0 1-7.726-7.726v-24.48a7.726 7.726 0 0 1 7.726-7.726h56.903V29.897a7.726 7.726 0 1 1 15.452 0v57.422a7.726 7.726 0 0 1-7.726 7.726h-56.903v16.753a7.726 7.726 0 0 1-7.726 7.727zM152.341 119.525a7.726 7.726 0 0 1-7.726-7.726V95.045H87.711a7.726 7.726 0 0 1-7.726-7.726V29.897a7.726 7.726 0 1 1 15.452 0v49.695h56.903a7.726 7.726 0 0 1 7.726 7.726v24.48a7.725 7.725 0 0 1-7.725 7.727zM207.191 87.846a7.726 7.726 0 0 1-7.726-7.726V29.897a7.726 7.726 0 1 1 15.452 0V80.12a7.726 7.726 0 0 1-7.726 7.726zM304.809 87.846a7.726 7.726 0 0 1-7.726-7.726V29.897a7.726 7.726 0 1 1 15.452 0V80.12a7.725 7.725 0 0 1-7.726 7.726zM438.827 167.994h-35.734a7.726 7.726 0 1 1 0-15.452h32.284l41.144-45.899a7.725 7.725 0 0 1 10.91-.596 7.725 7.725 0 0 1 .596 10.91l-43.447 48.469a7.734 7.734 0 0 1-5.753 2.568zM108.907 167.994H73.173a7.724 7.724 0 0 1-5.753-2.569l-43.447-48.469a7.725 7.725 0 0 1 .596-10.91 7.724 7.724 0 0 1 10.91.596l41.144 45.899h32.284a7.726 7.726 0 0 1 7.726 7.726 7.726 7.726 0 0 1-7.726 7.727zM27.74 286.263a7.727 7.727 0 0 1-5.751-12.884l45.431-50.682a7.724 7.724 0 0 1 5.753-2.569h23.076a7.726 7.726 0 1 1 0 15.452H76.624l-43.127 48.112a7.706 7.706 0 0 1-5.757 2.571zM87.711 397.539a7.726 7.726 0 0 1-7.726-7.726v-89.008a7.726 7.726 0 0 1 7.726-7.726h21.196a7.726 7.726 0 1 1 0 15.452h-13.47v81.282a7.725 7.725 0 0 1-7.726 7.726zM482.276 284.05a7.709 7.709 0 0 1-5.756-2.569l-41.144-45.899h-19.625a7.726 7.726 0 1 1 0-15.452h23.076c2.196 0 4.288.934 5.753 2.569l43.447 48.468a7.725 7.725 0 0 1-5.751 12.883zM424.289 397.539a7.726 7.726 0 0 1-7.726-7.726V308.53h-13.47a7.726 7.726 0 1 1 0-15.452h21.196a7.726 7.726 0 0 1 7.726 7.726v89.008a7.727 7.727 0 0 1-7.726 7.727z" fill="#00d2fc"></path><path d="M299.23 187.264h-88.184c-7.987 0-14.521 6.535-14.521 14.521v88.184c0 7.987 6.535 14.521 14.521 14.521h88.184c7.987 0 14.521-6.535 14.521-14.521v-88.184c0-7.987-6.534-14.521-14.521-14.521z" fill="#6b7ed9"></path><circle cx="255.138" cy="245.877" fill="#8896e0" r="26.006"></circle><g fill="#6b7ed9"><circle cx="490.804" cy="103.938" fill="#6b7ed9" r="21.196"></circle><circle cx="424.288" cy="21.196" fill="#6b7ed9" r="21.196"></circle><circle cx="21.196" cy="103.938" fill="#6b7ed9" r="21.196"></circle><circle cx="87.712" cy="21.196" fill="#6b7ed9" r="21.196"></circle><circle cx="207.191" cy="21.196" fill="#6b7ed9" r="21.196"></circle><circle cx="304.809" cy="21.196" fill="#6b7ed9" r="21.196"></circle><circle cx="21.196" cy="284.185" fill="#6b7ed9" r="21.196"></circle><circle cx="87.712" cy="394.003" fill="#6b7ed9" r="21.196"></circle><circle cx="490.804" cy="284.185" fill="#6b7ed9" r="21.196"></circle><circle cx="424.288" cy="394.003" fill="#6b7ed9" r="21.196"></circle></g></g></svg>