<svg viewBox="0 0 503.922 503.922" xmlns="http://www.w3.org/2000/svg"><g><path d="M409.049 502.922h-66.563c-6.566 0-10.434-5.094-8.984-11.497l4.19-18.503 16.046-10 15.53 10h20.08c11.387 0 21.055 7.348 24.511 17.555.88 2.599.357 5.383.357 8.279-.001 2.852-2.314 4.166-5.167 4.166z" fill="#8face0"></path><path d="M356.569 490.475c-3.207 0-5.585-2.977-4.877-6.104l2.046-11.449-8.634-10-8.412 10-4.19 18.503c-1.45 6.404 3.418 12.497 9.984 12.497h67.563c2.808 0 5.058-2.246 5.166-5.051.086-2.209-.553-6.183-1.352-8.395h-57.294z" fill="#688ed5"></path><path d="m87.104 135.4-60.912-14.935c-7.826-2.234-12.048-9.595-8.917-17.107l.098-1.2c4.265-10.234 11.974-15.971 20.95-16.711 5.14-.424 10.713.684 16.249 3.792l43.209 24.264 4.75 12.597z" fill="#8face0"></path><path d="M42.288 111.612c-7.826-2.234-11.95-10.795-8.819-18.307a29.105 29.105 0 0 1 4.854-7.858c-10.566.755-20.433 7.252-24.854 17.858-3.131 7.512.994 16.073 8.819 18.307l64.392 18.527 11.531-4.015-5.626-10.153z" fill="#688ed5"></path><path d="M369.268 472.921h-29.574l2.486-99.514a98.798 98.798 0 0 0-1.924-22.025l-27.764-122.629 49.025-9.824 24.977 123.743a98.81 98.81 0 0 1 .234 37.903z" fill="#cf9875"></path><path d="m362.255 351.381-24.764-122.629 24.887-5.554-.862-4.271-49.025 9.824 24.764 122.629a98.808 98.808 0 0 1 1.924 22.025l-2.486 99.514h17l10.486-99.514a98.745 98.745 0 0 0-1.924-22.024z" fill="#c27e4e"></path><path d="m97.781 113.502-9.145 21.941L293.4 239.267l27.685-59.829z" fill="#cf9875"></path><path d="M291.742 208.294 92.584 125.97l-5.904 14.169 206.72 99.128 27.685-59.829-6.92-2.043z" fill="#c27e4e"></path><path d="m444.418 106.311-40.991-26.118c-9.688-6.626-.221-17.845-11.28-21.539a126.397 126.397 0 0 0-25.715-5.696L246.208 39.234l-13.308.253-3.054 26.894 128.622 27.73c6.422 1.385 9.086 11.076 4.893 16.127l-45.216 54.458 55.937 49.725 44.162-19.339 9.902-10.406c13.389 1.3 26.377 2.913 39.766 4.213l-3.345-84.765c-.049-1.271-20.099 3.458-20.149 2.187z" fill="#cf9875"></path><path d="M363.771 141.144a6 6 0 0 1-.385-8.108l19.76-23.679c8.681-9.702 3.447-24.128-7.404-26.553l-126.84-25.097a5 5 0 0 1-4.005-5.404l1.309-13.06-15.306-1.756-11.468 14.372 8.414 15.523 128.622 27.73c6.422 1.385 9.086 9.076 4.893 14.127l-45.216 54.458 67.831 67.396 19.448-20.485 14.778-15.566z" fill="#c27e4e"></path><path d="M183.747 84.549h-12.328c-6.665 0-9.068-3.395-9.068-10.051v-11.64c0-9.902 3.125-18.42 11.852-21.902a23.608 23.608 0 0 1 7.886-1.661l48.811-1.809-3.054 29.894-26.934 1.698a5.436 5.436 0 0 0-5.051 4.723c-.029.228-1.044.461-1.044.697-.001 6.656-4.405 10.051-11.07 10.051z" fill="#8face0"></path><path d="M177.351 73.805a5 5 0 0 1-5-5V50.114c0-3.244.661-6.338 1.852-9.157-8.727 3.482-14.852 11.999-14.852 21.901v11.64c0 6.655 5.395 12.051 12.051 12.051h12.001c6.7 0 12.539-5.311 12.414-12.009-.005-.252.035-.492.067-.735z" fill="#688ed5"></path><path d="m440.451 154.804 4.781 14.001-15.259-5.968-10.316 3.909-19.66-17.005c-5.213-5.135-6.204-12.922-.367-17.337l7.644-6.45c5.77-4.365 14.123-4.569 16.878.548z" fill="#8face0"></path><path d="M410.685 143.835a5 5 0 0 1 .493-7.55l12.962-9.805c-2.767-5.1-11.046-6.772-16.809-2.414l-9.7 7.337c-5.834 4.413-6.393 12.976-1.182 18.11l22.268 21.936 15.891 5.489-4.639-14.106z" fill="#688ed5"></path><path d="m383.976 231.092-24.009-43.791-43.822-23.605s-24.357-8.396-42.815-14.756c-3.502-1.207-6.791-1.34-9.661-2.329-5.673-1.954-9.771 1.495-11.028 7.362l-14.045 63.551a10 10 0 0 0 6.715 11.614l40.378 12.995c9.425 2.381 16.341 10.411 17.285 20.073l4.071 41.629c.469 4.789 2.287 7.563 7.087 7.985l75.138 5.412c6.619.477 10.859-3.509 9.51-10.007l-1.144-10.327z" fill="#8face0"></path><path d="m397.636 296.899-65.504-4.342c-4.801-.405-8.619-4.016-9.087-8.599-1.017-9.943-2.784-24.24-4.071-36.837-.945-9.246-7.86-16.931-17.285-19.209l-33.378-10.435c-4.888-1.505-7.79-6.309-6.715-11.114l11.735-57.423-9.661-3.328c-5.673-1.954-11.771 1.495-13.028 7.362l-14.045 65.551a10 10 0 0 0 6.715 11.614l40.378 12.995c9.425 2.381 16.341 10.411 17.285 20.073l4.071 41.629a10.004 10.004 0 0 0 9.087 8.985l75.138 5.412c6.62.477 11.859-5.509 10.51-12.007z" fill="#688ed5"></path><path d="m377.785 217.102-53.021-51.106 21.122-15.755 18.473 18.291-2.829 13.805 13.489-3.25 30.07 29.775-11.396 12.013z" fill="#766d78"></path><path d="m339.067 160.179 7.606-9.161-10.976-10.869-19.551 23.548 26.693 26.522 10.817-.22-.176 10.793 30.497 30.301 9.71-10.224-54.297-53.949a5 5 0 0 1-.323-6.741z" fill="#655e67"></path><path d="m454.503 170.677-14.052-15.872-12.935 9.902 25.323 53.263c4.326 6.03 12.282 8.226 19.095 5.27l.319 1.332c5.016-2.176 8.225-6.126 9.002-11.532l10.005-69.631c1.677-14.976-5.374-29.592-18.155-37.632l-5.193-3.267-14.92-3.386z" fill="#cf9875"></path><path d="m463.317 209.741-33.348-46.909-11.252 8.618 34.122 48.519c4.326 6.03 12.282 8.226 19.095 5.27a15.74 15.74 0 0 0 8.678-9.497c-6.495 2.154-13.246-.357-17.295-6.001z" fill="#c27e4e"></path><path d="m355.464 191.768-2.648-2.567-.044-8.993 11.596-11.685 10.648 10.567-11.597 11.684z" fill="#ca4646"></path><path d="m342.727 190.06 9.931-10.017 10.65 10.56-9.931 10.016z" fill="#ba3434"></path><path d="M467.913 102.509c-8.71 4.4-21.399 8.702-30.429 8.702-6.56 0-12.73-1.32-18.33-3.93-10.57-4.91-18.54-14.07-23.06-26.48-2.48-6.81-3.79-14.4-3.95-22.14a125.64 125.64 0 0 1 31.28 15.53c13.67 8.711 44.489 28.318 44.489 28.318z" fill="#c27e4e"></path><path d="M479 69.495a7.493 7.493 0 0 1-2.751-.525c-10.696-4.22-14.967-10.209-18.398-15.021-2.975-4.172-5.125-7.187-11.69-9.777-6.57-2.593-10.21-1.86-15.247-.847-5.801 1.167-13.019 2.621-23.711-1.599-10.696-4.221-14.968-10.209-18.399-15.022-2.976-4.172-5.126-7.187-11.693-9.778-6.571-2.593-10.211-1.861-15.249-.848-5.801 1.168-13.021 2.619-23.713-1.6A7.5 7.5 0 0 1 343.654.525c6.571 2.593 10.211 1.861 15.249.848 5.801-1.167 13.021-2.619 23.713 1.6 10.696 4.221 14.968 10.209 18.399 15.022 2.976 4.172 5.126 7.187 11.693 9.778 6.569 2.592 10.208 1.859 15.246.847 5.802-1.167 13.021-2.62 23.711 1.599 10.695 4.22 14.966 10.209 18.397 15.021 2.975 4.172 5.125 7.187 11.691 9.777a7.5 7.5 0 0 1 4.224 9.729A7.497 7.497 0 0 1 479 69.495z" fill="#ae3030"></path><path d="M483.993 64.777c9.741-20.832 1.632-45.163-18.113-54.344-19.745-9.182-43.649.263-53.39 21.095s-6.758 52.972 12.988 62.153 48.774-8.072 58.515-28.904z" fill="#cf9875"></path><path d="M483.987 72.278a7.464 7.464 0 0 1-4.351-1.396l-63.3-45.177a7.5 7.5 0 0 1 8.713-12.209l63.3 45.177a7.5 7.5 0 0 1-4.362 13.605z" fill="#ca4646"></path></g></svg>