<svg viewBox="0 0 512 512" xmlns="http://www.w3.org/2000/svg"><g><path d="m324.891 167.266 16.262 94.815L256 217.314l-85.153 44.767 16.262-94.815-68.891-67.16 95.205-13.833L256 0l42.577 86.273 95.205 13.833z" fill="#ffa91e"></path><path d="M409.944 253.46v87.673L256.9 403.303l-.9-.36-153.944-61.76V253.46L256 315.219z" fill="#ffa91e"></path><path d="M409.944 362.157v87.673L256.9 512l-.9-.36-153.944-61.76v-87.723L256 423.916z" fill="#ffa91e"></path><path d="M341.153 262.081 256 217.314V0l42.577 86.273 95.205 13.833-68.891 67.16zM409.944 253.46v87.673L256.9 403.303l-.9-.36v-87.724zM256 423.916l153.944-61.759v87.673L256.9 512l-.9-.36z" fill="#ff8900"></path></g></svg>