<svg viewBox="0 0 512 512" xmlns="http://www.w3.org/2000/svg"><g><path d="M213.3 177c-50.2-41.5-122.3-38.9-169.2 3.5-1.2 1.3-2.3 2.6-3.4 3.9-45.6 55.2-37.9 136.9 17.4 182.5 50.1 41.4 122.2 38.9 169.1-3.2l.3-.3c1.2-1.2 2.2-2.5 3.3-3.9 3.3-4 6.3-8.2 9.1-12.5.7-1.1 1.4-2.1 2-3.3 32.6-53.9 21.6-125.3-28.6-166.7zm-13.1 177.2c-37.6 33.9-95.4 36.1-135.7 2.8C20.3 320.5 14 255 50.6 210.7c3.7-4.6 7.9-8.8 12.2-12.5 37.7-32.6 94.5-34.3 134.2-1.5 40.2 33.2 49 90.4 22.9 133.8-2.6 4.4-5.6 8.5-8.9 12.6-.6.7-1.1 1.3-1.7 2-3 3.3-5.9 6.3-9.1 9.1z" fill="#38c674"></path><path d="M312.5 249.3h-55.1c1.3 6.1 2.2 12.3 2.6 18.6h28.6c2.3 12.2 12.9 21.3 25.7 21.3s23.4-9.1 25.6-21.3h163.8c3.9 0 7.2-3.2 7.2-7.1V21.5c0-4-3.3-7.1-7.2-7.1h-15.4v230.9c0 2.2-1.8 4-4 4H320.4c-2.2 0-4-1.8-4-4 0 2.2-1.7 4-3.9 4zM121.9 21.5v126c7.5-.6 15-.4 22.6.4V14.4h-15.4c-4 0-7.2 3.2-7.2 7.1z" fill="#ff4155"></path><path d="M332.3 249.3h-11.9c-2.2 0-4-1.8-4-4V9.7c0-2.2 1.8-4 4-4h11.9c-2.2 0-4 1.8-4 4v235.7c.1 2.2 1.8 3.9 4 3.9z" fill="#d3dcfb"></path><path d="M488.4 9.7v235.7c0 2.2-1.8 4-3.9 4H332.3c-2.2 0-4-1.8-4-4V9.7c0-2.2 1.8-4 4-4h152.1c2.2 0 4 1.8 4 4z" fill="#e9efff"></path><path d="M160.3 5.7c-2.1 0-3.9 1.8-3.9 4v140.2c-4-.8-7.9-1.4-12-1.8V9.7c0-2.2 1.8-4 4-4z" fill="#d3dcfb"></path><path d="M316.4 9.7v235.7c0 2.2-1.8 4-3.9 4h-55.1c-3.7-16.9-10.7-33.1-21-47.5-6.4-9-14.2-17.4-23.1-24.9-17-14.1-36.6-23.1-56.9-27.1V9.7c0-2.2 1.8-4 3.9-4h152.1c2.2 0 4 1.8 4 4z" fill="#e9efff"></path><path d="M398.7 485.7c-1.3 3-3 5.8-5.1 8.4-11.8 14.3-32.9 16.3-47.2 4.5l-84.5-69.9c-7.5-6.2-8.7-17.3-2.4-24.9l9.6-11.6c-4 7.3-2.4 16.6 4.3 22l84.5 69.9c12 10 28.8 10.2 40.8 1.6z" fill="#24b55e"></path><path d="M398.7 485.7c-12.1 8.6-28.8 8.4-40.8-1.5l-41.8-34.6-22.6-18.7-20.1-16.6c-6.7-5.5-8.3-14.8-4.3-22l10.6-12.8c6.2-7.5 17.3-8.7 24.9-2.4l19.8 16.4 22.6 18.7 42.1 34.8c11.7 9.6 15.2 25.4 9.6 38.7z" fill="#38c674"></path><path d="M219.8 330.6c-2.6 4.4-5.6 8.5-8.9 12.6-3.3 4-6.9 7.7-10.6 11.1-37.6 33.9-95.4 36.1-135.7 2.8-27.8-23-40.6-57.5-37.1-90.9 2.8 26 15.4 51 37.1 68.9 40.3 33.3 98.1 31.1 135.7-2.8 3.7-3.4 7.3-7.1 10.6-11.1s6.3-8.2 8.9-12.6c8-13.2 12.7-27.8 14.3-42.5 2.3 22-2.3 44.7-14.3 64.5z" fill="#d3dcfb"></path><path d="M234.1 266.1c-1.5 14.8-6.3 29.3-14.3 42.5-2.6 4.4-5.6 8.5-8.9 12.6-3.3 4-6.9 7.7-10.6 11.1-37.6 33.9-95.4 36-135.7 2.8-21.8-18-34.3-42.9-37.1-68.9v-.2c2-19.6 9.7-38.9 23.2-55.3 36.6-44.3 102.1-50.5 146.4-13.9 21.7 18.1 34.3 43.1 37 69.3z" fill="#e9efff"></path><path d="M227.1 363.7c-2.2 2.5-4.5 4.8-6.9 7.1-.9.9-1.9 1.8-2.8 2.6-46.9 42.3-119.1 45-169.3 3.5-55.2-45.6-63-127.3-17.4-182.5 4.2-5.1 8.7-9.7 13.4-13.9-1.2 1.3-2.3 2.6-3.4 3.9-45.6 55.2-37.9 136.9 17.4 182.5 50.1 41.5 122.1 38.9 169-3.2z" fill="#24b55e"></path><path d="m279.4 379.8-9.7 11.8-9.9 11.9-39.6-32.7c3.5-3.3 6.8-6.8 9.9-10.6l.6-.6c3.3-4 6.3-8.2 9.1-12.5z" fill="#ffe98d"></path><path d="m281.754 445.36 11.72-14.186 22.668 18.728-11.721 14.186z" fill="#ffdd40"></path><path d="m347 412.2-30.9 37.4-22.6-18.7 30.9-37.4z" fill="#ffe98d"></path><path d="M376.2 51.4c0 3-2.5 5.5-5.5 5.5h-29.5c-3 0-5.5-2.5-5.5-5.5 0-.6.1-1.1.3-1.6.7 2.3 2.8 3.9 5.2 3.9h29.5c2.5 0 4.6-1.7 5.2-3.9.2.5.3 1.1.3 1.6zM469.2 51.4c0 3-2.5 5.5-5.5 5.5h-74.5c-3 0-5.5-2.5-5.5-5.5 0-.6.1-1.1.3-1.6.7 2.3 2.8 3.9 5.2 3.9h74.5c2.5 0 4.6-1.7 5.2-3.9.2.5.3 1.1.3 1.6zM469.2 89.5c0 3.1-2.5 5.5-5.5 5.5h-29.5c-3 0-5.5-2.4-5.5-5.5 0-.6.1-1.1.3-1.6.7 2.3 2.8 3.9 5.2 3.9h29.5c2.5 0 4.6-1.7 5.2-3.9.2.4.3 1 .3 1.6zM421.2 89.5c0 3.1-2.5 5.5-5.5 5.5h-74.5c-3 0-5.5-2.4-5.5-5.5 0-.6.1-1.1.3-1.6.7 2.3 2.8 3.9 5.2 3.9h74.5c2.5 0 4.6-1.7 5.2-3.9.1.4.3 1 .3 1.6zM376.2 127.5c0 3.1-2.5 5.5-5.5 5.5h-29.5c-3 0-5.5-2.4-5.5-5.5 0-.6.1-1.1.3-1.6.7 2.3 2.8 3.9 5.2 3.9h29.5c2.5 0 4.6-1.7 5.2-3.9.2.5.3 1 .3 1.6zM469.2 127.5c0 3.1-2.5 5.5-5.5 5.5h-74.5c-3 0-5.5-2.4-5.5-5.5 0-.6.1-1.1.3-1.6.7 2.3 2.8 3.9 5.2 3.9h74.5c2.5 0 4.6-1.7 5.2-3.9.2.5.3 1 .3 1.6zM376.2 165.5c0 3.1-2.5 5.5-5.5 5.5h-29.5c-3 0-5.5-2.4-5.5-5.5 0-.6.1-1.1.3-1.6.7 2.3 2.8 3.9 5.2 3.9h29.5c2.5 0 4.6-1.7 5.2-3.9.2.5.3 1 .3 1.6zM469.2 165.5c0 3.1-2.5 5.5-5.5 5.5h-74.5c-3 0-5.5-2.4-5.5-5.5 0-.6.1-1.1.3-1.6.7 2.3 2.8 3.9 5.2 3.9h74.5c2.5 0 4.6-1.7 5.2-3.9.2.5.3 1 .3 1.6zM469.2 203.5c0 3.1-2.5 5.5-5.5 5.5h-29.5c-3 0-5.5-2.4-5.5-5.5 0-.6.1-1.1.3-1.6.7 2.3 2.8 3.9 5.2 3.9h29.5c2.5 0 4.6-1.7 5.2-3.9.2.5.3 1.1.3 1.6zM421.2 203.5c0 3.1-2.5 5.5-5.5 5.5h-74.5c-3 0-5.5-2.4-5.5-5.5 0-.6.1-1.1.3-1.6.7 2.3 2.8 3.9 5.2 3.9h74.5c2.5 0 4.6-1.7 5.2-3.9.1.5.3 1.1.3 1.6zM204.3 51.4c0 3-2.5 5.5-5.5 5.5h-29.5c-3.1 0-5.5-2.5-5.5-5.5 0-.6.1-1.1.3-1.6.7 2.3 2.8 3.9 5.2 3.9h29.5c2.5 0 4.5-1.6 5.2-3.9.1.5.3 1 .3 1.6zM297.3 51.4c0 3-2.5 5.5-5.5 5.5h-74.5c-3.1 0-5.5-2.5-5.5-5.5 0-.6.1-1.1.3-1.6.7 2.3 2.8 3.9 5.2 3.9h74.5c2.5 0 4.5-1.6 5.2-3.9.2.5.3 1 .3 1.6zM297.3 89.4c0 3-2.5 5.5-5.5 5.5h-29.5c-3.1 0-5.5-2.5-5.5-5.5 0-.6.1-1.1.3-1.6.7 2.3 2.8 3.9 5.2 3.9h29.5c2.5 0 4.5-1.6 5.2-3.9.2.5.3 1 .3 1.6zM249.2 89.4c0 3-2.5 5.5-5.5 5.5h-74.5c-3.1 0-5.5-2.5-5.5-5.5 0-.6.1-1.1.3-1.6.7 2.3 2.8 3.9 5.2 3.9h74.5c2.5 0 4.5-1.6 5.2-3.9.2.5.3 1 .3 1.6z" fill="#1c2e7a"></path><path d="M375.9 49.8c-.7 2.3-2.8 3.9-5.2 3.9h-29.5c-2.5 0-4.6-1.7-5.2-3.9.7-2.3 2.8-3.9 5.2-3.9h29.5c2.5 0 4.5 1.7 5.2 3.9zM468.9 49.8c-.7 2.3-2.8 3.9-5.2 3.9h-74.5c-2.5 0-4.6-1.7-5.2-3.9.7-2.3 2.8-3.9 5.2-3.9h74.5c2.5 0 4.6 1.7 5.2 3.9zM468.9 87.9c-.7 2.3-2.8 3.9-5.2 3.9h-29.5c-2.5 0-4.6-1.7-5.2-3.9.7-2.3 2.8-3.9 5.2-3.9h29.5c2.5-.1 4.6 1.6 5.2 3.9zM420.9 87.9c-.7 2.3-2.8 3.9-5.2 3.9h-74.5c-2.5 0-4.6-1.7-5.2-3.9.7-2.3 2.8-3.9 5.2-3.9h74.5c2.4-.1 4.5 1.6 5.2 3.9zM375.9 125.9c-.7 2.3-2.8 3.9-5.2 3.9h-29.5c-2.5 0-4.6-1.7-5.2-3.9.7-2.3 2.8-3.9 5.2-3.9h29.5c2.5 0 4.5 1.6 5.2 3.9zM468.9 125.9c-.7 2.3-2.8 3.9-5.2 3.9h-74.5c-2.5 0-4.6-1.7-5.2-3.9.7-2.3 2.8-3.9 5.2-3.9h74.5c2.5 0 4.6 1.6 5.2 3.9zM375.9 163.9c-.7 2.3-2.8 3.9-5.2 3.9h-29.5c-2.5 0-4.6-1.7-5.2-3.9.7-2.3 2.8-3.9 5.2-3.9h29.5c2.5 0 4.5 1.6 5.2 3.9zM468.9 163.9c-.7 2.3-2.8 3.9-5.2 3.9h-74.5c-2.5 0-4.6-1.7-5.2-3.9.7-2.3 2.8-3.9 5.2-3.9h74.5c2.5 0 4.6 1.6 5.2 3.9zM468.9 201.9c-.7 2.3-2.8 3.9-5.2 3.9h-29.5c-2.5 0-4.6-1.7-5.2-3.9.7-2.3 2.8-3.9 5.2-3.9h29.5c2.5 0 4.6 1.7 5.2 3.9zM420.9 201.9c-.7 2.3-2.8 3.9-5.2 3.9h-74.5c-2.5 0-4.6-1.7-5.2-3.9.7-2.3 2.8-3.9 5.2-3.9h74.5c2.4 0 4.5 1.7 5.2 3.9zM204 49.8c-.7 2.3-2.8 3.9-5.2 3.9h-29.5c-2.5 0-4.6-1.6-5.2-3.9.7-2.3 2.7-3.9 5.2-3.9h29.5c2.4 0 4.5 1.6 5.2 3.9zM297 49.8c-.7 2.3-2.8 3.9-5.2 3.9h-74.5c-2.5 0-4.6-1.6-5.2-3.9.7-2.3 2.7-3.9 5.2-3.9h74.5c2.4 0 4.5 1.6 5.2 3.9zM297 87.8c-.7 2.3-2.8 3.9-5.2 3.9h-29.5c-2.5 0-4.6-1.6-5.2-3.9.7-2.3 2.7-3.9 5.2-3.9h29.5c2.4 0 4.5 1.6 5.2 3.9zM248.9 87.8c-.7 2.3-2.8 3.9-5.2 3.9h-74.5c-2.5 0-4.6-1.6-5.2-3.9.7-2.3 2.7-3.9 5.2-3.9h74.5c2.5 0 4.6 1.6 5.2 3.9z" fill="#335296"></path><path d="m269.7 391.6-9.9 11.9-39.6-32.7c3.5-3.3 6.8-6.8 9.9-10.6z" fill="#ffdd40"></path></g></svg>