<svg viewBox="0 0 513.261 513.261" xmlns="http://www.w3.org/2000/svg"><g><circle cx="256.631" cy="219.827" fill="#dad2ff" r="219.827"></circle><path d="m338.118 138.32-13.184-4.088a60.465 60.465 0 0 1-39.847-39.847l-4.088-13.184a3.074 3.074 0 0 0-5.874 0l-4.088 13.184a60.465 60.465 0 0 1-39.847 39.847l-13.184 4.088a3.074 3.074 0 0 0 0 5.874l13.184 4.088a60.465 60.465 0 0 1 39.847 39.847l4.088 13.184a3.074 3.074 0 0 0 5.874 0l4.088-13.184a60.465 60.465 0 0 1 39.847-39.847l13.184-4.088a3.074 3.074 0 0 0 0-5.874zM352.541 88.04c1.851-1.22 1.851-3.928 0-5.148a87.658 87.658 0 0 1-13.527-10.99 87.2 87.2 0 0 1-11.075-13.424c-1.229-1.837-3.958-1.837-5.187 0a87.19 87.19 0 0 1-11.075 13.424 87.592 87.592 0 0 1-13.526 10.99c-1.851 1.22-1.851 3.928 0 5.148a87.658 87.658 0 0 1 13.527 10.99 87.2 87.2 0 0 1 11.075 13.424c1.229 1.837 3.958 1.837 5.187 0a87.19 87.19 0 0 1 11.075-13.424 87.603 87.603 0 0 1 13.526-10.99zM213.987 244.03l-11.329-3.512a51.956 51.956 0 0 1-34.24-34.239l-3.512-11.329a2.641 2.641 0 0 0-5.046 0l-3.512 11.329a51.956 51.956 0 0 1-34.239 34.24l-11.329 3.512a2.641 2.641 0 0 0 .001 5.046l11.329 3.512a51.956 51.956 0 0 1 34.24 34.239l3.512 11.329a2.641 2.641 0 0 0 5.046-.001l3.512-11.329a51.956 51.956 0 0 1 34.239-34.24l11.329-3.512a2.641 2.641 0 0 0-.001-5.045zM395.508 255.423l-9.747-3.022a44.697 44.697 0 0 1-29.457-29.457l-3.022-9.746a2.274 2.274 0 0 0-4.342 0l-3.022 9.747a44.697 44.697 0 0 1-29.457 29.457l-9.746 3.022a2.274 2.274 0 0 0 0 4.342l9.747 3.022a44.697 44.697 0 0 1 29.457 29.457l3.022 9.746a2.274 2.274 0 0 0 4.342 0l3.022-9.746a44.697 44.697 0 0 1 29.457-29.457l9.746-3.022a2.274 2.274 0 0 0 0-4.343zM239.865 312.49a2.715 2.715 0 0 0 0-4.538c-4.212-2.775-8.211-6.003-11.924-9.688s-6.966-7.653-9.763-11.833c-1.083-1.62-3.489-1.62-4.573 0-2.796 4.18-6.049 8.148-9.762 11.833s-7.711 6.913-11.924 9.688a2.715 2.715 0 0 0 0 4.538c4.212 2.775 8.211 6.003 11.924 9.688s6.966 7.653 9.763 11.833c1.083 1.62 3.489 1.62 4.573 0 2.796-4.18 6.049-8.148 9.762-11.833s7.712-6.913 11.924-9.688zM152.309 331.285a2.715 2.715 0 0 0 0-4.538c-4.212-2.775-8.211-6.003-11.924-9.688s-6.966-7.653-9.763-11.833c-1.083-1.62-3.489-1.62-4.573 0-2.796 4.18-6.049 8.148-9.762 11.833s-7.711 6.913-11.924 9.688a2.715 2.715 0 0 0 0 4.538c4.212 2.775 8.211 6.003 11.924 9.688s6.966 7.653 9.763 11.833c1.083 1.62 3.489 1.62 4.573 0 2.796-4.18 6.049-8.148 9.762-11.833s7.711-6.913 11.924-9.688z" fill="#c3b9f9"></path><path d="M476.453 219.826c.001 121.409-98.412 219.823-219.822 219.824-112.994.001-206.066-85.236-218.43-194.925 28.613 69.864 97.284 119.086 177.453 119.086 105.857 0 191.674-85.818 191.674-191.675 0-69.938-37.451-131.123-93.399-164.592 93.62 25.211 162.524 110.69 162.524 212.282z" fill="#c3b9f9"></path><path d="M476.453 219.826c.001 121.409-98.412 219.823-219.822 219.824-84.16 0-157.276-47.29-194.209-116.752 43.796 41.589 102.985 67.108 168.162 67.108 123.69-.001 225.904-91.953 242.036-211.219 2.524 13.292 3.833 27.007 3.833 41.039z" fill="#ab97f2"></path><path d="m417.16 482.621-321.056.002c-5.831 0-10.558-4.727-10.558-10.558v-42.049c0-11.662 9.454-21.117 21.116-21.117l299.94-.001c11.662 0 21.117 9.454 21.117 21.116v42.049c-.001 5.831-4.728 10.558-10.559 10.558z" fill="#b55434"></path><path d="M427.718 430.009v42.053c0 5.828-4.73 10.558-10.558 10.558l-108.93.001c37.239-5.744 66.39-35.972 70.497-73.729h27.874c11.667.001 21.117 9.461 21.117 21.117z" fill="#a1412b"></path><path d="M427.718 430.009v42.053c0 5.828-4.73 10.558-10.558 10.558l-108.93.001a83.152 83.152 0 0 0 31.569-11.762 54.85 54.85 0 0 0 17.843 2.956c30.44 0 55.103-24.675 55.103-55.104 0-3.104-.253-6.155-.75-9.122 9.05 2.387 15.723 10.622 15.723 20.42z" fill="#7f392c"></path><path d="M331.988 430.796c0-12.094-9.804-21.898-21.898-21.898l-118.658.001c-12.094 0-21.898 9.804-21.898 21.898s9.804 21.898 21.898 21.898l118.658-.001c12.094 0 21.898-9.804 21.898-21.898z" fill="#db765a"></path><path d="M279.982 408.898h-40.765c-12.094 0-21.898 9.804-21.898 21.898s9.804 21.898 21.898 21.898h40.765c12.094 0 21.898-9.804 21.898-21.898s-9.804-21.899-21.898-21.898z" fill="#ef927d"></path><path d="m429.234 513.256-345.204.002c-12.875 0-23.313-10.437-23.313-23.313 0-12.875 10.437-23.313 23.313-23.313l345.205-.002c12.875 0 23.313 10.437 23.313 23.313-.001 12.876-10.438 23.313-23.314 23.313z" fill="#ffc751"></path><path d="m293.092 466.631-154.88.001c-12.875 0-23.313 10.438-23.313 23.313 0 12.875 10.438 23.313 23.313 23.313l154.88-.001c12.875 0 23.313-10.438 23.313-23.313 0-12.875-10.437-23.313-23.313-23.313z" fill="#ffe059"></path><path d="M218.37 466.631h-43.679c-12.875 0-23.313 10.438-23.313 23.313 0 12.875 10.438 23.313 23.313 23.313h43.679c12.875 0 23.313-10.438 23.313-23.313 0-12.875-10.438-23.313-23.313-23.313z" fill="#fff370"></path><path d="M452.551 489.948a23.198 23.198 0 0 1-6.831 16.481 23.203 23.203 0 0 1-16.482 6.831h-71.025c22.299-7.623 40.164-24.791 48.726-46.636h22.299c12.871.001 23.313 10.443 23.313 23.324z" fill="#ffaf40"></path><circle cx="144.916" cy="437.353" fill="#ffc751" r="10.542"></circle><circle cx="142.773" cy="435.534" fill="#ffe059" r="7.722"></circle><circle cx="368.348" cy="437.352" fill="#ffc751" r="10.542"></circle><circle cx="366.205" cy="435.533" fill="#ffe059" r="7.722"></circle><path d="M88.818 161.708c22.028-63.435 79.069-110.631 147.886-118.349 10.681-1.198 18.752-10.233 18.752-20.981 0-12.65-11.036-22.391-23.607-20.981-85.204 9.559-155.667 67.817-182.915 146.294-4.109 11.834 3.001 24.619 15.202 27.459 10.447 2.431 21.164-3.31 24.682-13.442z" fill="#eae9ff"></path><path d="M131.452 93.992c21.261-21.149 47.834-36.963 77.519-45.242 9.938-2.772 16.449-12.269 15.303-22.523l-.047-.42c-1.438-12.86-14.081-21.25-26.549-17.787-36.701 10.193-69.534 29.67-95.819 55.74-7.923 7.858-8.411 20.503-1.012 28.856l.284.321c7.942 8.966 21.829 9.502 30.321 1.055z" fill="#fafaff"></path><path d="m326.23 126.15-13.184-4.088a60.465 60.465 0 0 1-39.847-39.847l-4.088-13.184a3.074 3.074 0 0 0-5.874 0l-4.088 13.184a60.465 60.465 0 0 1-39.847 39.847l-13.184 4.088a3.074 3.074 0 0 0 0 5.874l13.184 4.088a60.465 60.465 0 0 1 39.847 39.847l4.088 13.184a3.074 3.074 0 0 0 5.874 0l4.088-13.184a60.465 60.465 0 0 1 39.847-39.847l13.184-4.088a3.074 3.074 0 0 0 0-5.874z" fill="#ffe059"></path><path d="M328.39 129.081c0 1.349-.875 2.54-2.167 2.941l-13.172 4.089a60.43 60.43 0 0 0-39.846 39.846l-4.089 13.186a3.08 3.08 0 0 1-5.882 0l-4.089-13.186a59.945 59.945 0 0 0-8.939-17.763c20.734-3.688 36.46-21.81 36.459-43.591 0-3.63-.43-7.16-1.263-10.546a60.429 60.429 0 0 0 27.65 18.007l13.172 4.089a3.064 3.064 0 0 1 2.166 2.928z" fill="#ffc751"></path><path d="M349.675 75.976c1.851-1.22 1.851-3.928 0-5.148a87.658 87.658 0 0 1-13.527-10.99 87.2 87.2 0 0 1-11.075-13.424c-1.229-1.837-3.958-1.837-5.187 0-3.172 4.742-6.862 9.244-11.075 13.424s-8.748 7.843-13.526 10.99c-1.851 1.22-1.851 3.928 0 5.148a87.658 87.658 0 0 1 13.527 10.99 87.2 87.2 0 0 1 11.075 13.424c1.229 1.837 3.958 1.837 5.187 0 3.172-4.742 6.862-9.244 11.075-13.424s8.747-7.842 13.526-10.99z" fill="#fafaff"></path><path d="M349.676 75.974c-4.778 3.148-9.313 6.809-13.527 10.991s-7.903 8.683-11.075 13.424c-1.23 1.834-3.955 1.834-5.185 0a87.274 87.274 0 0 0-12.743-15.033c.744.062 1.496.093 2.256.093 14.459 0 26.247-11.395 26.733-25.628l.016.016a87.643 87.643 0 0 0 13.527 10.991c1.846 1.22 1.846 3.925-.002 5.146z" fill="#eae9ff"></path><path d="m202.099 231.86-11.329-3.512a51.956 51.956 0 0 1-34.24-34.239l-3.512-11.329a2.641 2.641 0 0 0-5.046 0l-3.512 11.329a51.956 51.956 0 0 1-34.239 34.24L98.89 231.86a2.641 2.641 0 0 0 .001 5.046l11.329 3.512a51.956 51.956 0 0 1 34.24 34.239l3.512 11.329a2.641 2.641 0 0 0 5.046-.001l3.512-11.329a51.956 51.956 0 0 1 34.239-34.24l11.329-3.512a2.641 2.641 0 0 0 .001-5.044z" fill="#fafaff"></path><path d="M203.955 234.379a2.644 2.644 0 0 1-1.862 2.527l-11.318 3.514a51.925 51.925 0 0 0-34.238 34.239l-3.514 11.331a2.645 2.645 0 0 1-5.055 0l-3.514-11.331a51.542 51.542 0 0 0-7.681-15.264c17.816-3.169 31.329-18.741 31.329-37.457 0-3.119-.37-6.152-1.085-9.062a51.925 51.925 0 0 0 23.759 15.473l11.318 3.514a2.632 2.632 0 0 1 1.861 2.516z" fill="#eae9ff"></path><path d="m383.62 243.253-9.746-3.022a44.697 44.697 0 0 1-29.457-29.457l-3.022-9.746a2.274 2.274 0 0 0-4.342 0l-3.022 9.747a44.697 44.697 0 0 1-29.457 29.457l-9.746 3.022a2.274 2.274 0 0 0 0 4.342l9.747 3.022a44.697 44.697 0 0 1 29.457 29.457l3.022 9.746a2.274 2.274 0 0 0 4.342 0l3.022-9.746a44.697 44.697 0 0 1 29.457-29.457l9.746-3.022a2.274 2.274 0 0 0-.001-4.343z" fill="#fafaff"></path><path d="M385.217 245.42c0 .997-.647 1.877-1.602 2.174l-9.737 3.023a44.674 44.674 0 0 0-29.456 29.456l-3.023 9.748a2.275 2.275 0 0 1-4.348 0l-3.023-9.748a44.321 44.321 0 0 0-6.608-13.132c15.327-2.726 26.953-16.123 26.953-32.225 0-2.684-.318-5.293-.933-7.796a44.678 44.678 0 0 0 20.44 13.312l9.737 3.023a2.267 2.267 0 0 1 1.6 2.165z" fill="#eae9ff"></path><path d="M236.999 300.426a2.715 2.715 0 0 0 0-4.538c-4.212-2.775-8.211-6.003-11.924-9.688s-6.966-7.653-9.763-11.833c-1.083-1.62-3.489-1.62-4.573 0-2.796 4.18-6.049 8.148-9.762 11.833s-7.711 6.913-11.924 9.688a2.715 2.715 0 0 0 0 4.538c4.212 2.775 8.211 6.003 11.924 9.688s6.966 7.653 9.763 11.833c1.083 1.62 3.489 1.62 4.573 0 2.796-4.18 6.049-8.148 9.762-11.833s7.712-6.913 11.924-9.688z" fill="#ffe059"></path><path d="M237 300.424a77.19 77.19 0 0 0-11.924 9.689 76.854 76.854 0 0 0-9.763 11.834c-1.084 1.617-3.487 1.617-4.571 0a76.847 76.847 0 0 0-11.234-13.251c.656.055 1.319.082 1.989.082 12.746 0 23.137-10.045 23.565-22.591l.014.014A77.295 77.295 0 0 0 237 295.89c1.63 1.074 1.63 3.458 0 4.534z" fill="#ffc751"></path><path d="M149.443 319.221a2.715 2.715 0 0 0 0-4.538c-4.212-2.775-8.211-6.003-11.924-9.688s-6.966-7.653-9.763-11.833c-1.083-1.62-3.489-1.62-4.573 0-2.796 4.18-6.049 8.148-9.762 11.833s-7.711 6.913-11.924 9.688a2.715 2.715 0 0 0 0 4.538c4.212 2.775 8.211 6.003 11.924 9.688s6.966 7.653 9.763 11.833c1.083 1.62 3.489 1.62 4.573 0 2.796-4.18 6.049-8.148 9.762-11.833s7.711-6.913 11.924-9.688z" fill="#ffe059"></path><path d="M149.444 319.219a77.19 77.19 0 0 0-11.924 9.689 76.854 76.854 0 0 0-9.763 11.834c-1.084 1.617-3.487 1.617-4.571 0a76.847 76.847 0 0 0-11.234-13.251c.656.055 1.319.082 1.989.082 12.746 0 23.137-10.045 23.565-22.591l.014.014a77.295 77.295 0 0 0 11.924 9.689c1.629 1.074 1.629 3.458 0 4.534z" fill="#ffc751"></path></g></svg>