<svg viewBox="0 0 512 512" xmlns="http://www.w3.org/2000/svg"><g><path d="M204.883 416.05c0 53.449-43.697 96.683-97.311 95.941-52.327-.731-94.757-43.944-94.571-96.281.124-35.375 19.392-66.24 47.991-82.769V47.981c0-13.254 5.366-25.242 14.057-33.923C83.731 5.376 95.729 0 108.973 0c26.498 0 47.981 21.483 47.981 47.981v284.991c28.65 16.59 47.929 47.589 47.929 83.078z" fill="#e3f4fe"></path><path d="m490.938 243.214-29.203-16.86 7.419-2.861c8.681-4.095 11.761-11.04 9.238-20.837-3.203-8.305-12.532-12.442-20.837-9.239l-31.697 12.224-49.651-28.666 50.295-29.038 31.697 12.223c8.306 3.203 17.634-.934 20.837-9.238 3.203-8.307-.933-17.635-9.238-20.837l-7.419-2.861 28.56-16.489c7.709-4.451 10.35-14.308 5.9-22.017-4.451-7.709-14.308-10.35-22.017-5.899l-28.56 16.489 1.232-7.857c1.379-8.793-4.631-17.039-13.426-18.419-8.794-1.379-17.041 4.632-18.419 13.426l-5.263 33.563-50.295 29.038V90.982l26.434-21.339c6.926-5.592 8.009-15.738 2.418-22.665-5.593-6.927-15.739-8.01-22.665-2.418l-6.187 4.995V16.577c0-8.902-7.216-16.118-16.118-16.118s-16.118 7.216-16.118 16.118v32.978l-6.188-4.995c-6.925-5.591-17.072-4.509-22.665 2.418-5.591 6.926-4.509 17.074 2.418 22.665l26.435 21.339v58.075l-50.295-29.038-5.263-33.562c-1.379-8.794-9.626-14.805-18.419-13.426-8.796 1.38-14.806 9.626-13.426 18.419l1.232 7.856-28.56-16.489c-7.709-4.451-17.566-1.81-22.017 5.9-4.451 7.709-1.81 17.566 5.899 22.017l28.56 16.489-7.42 2.861c-8.304 3.202-12.441 12.53-9.239 20.837 3.203 8.305 12.532 12.442 20.837 9.238l31.698-12.224 50.296 29.038-49.653 28.667-31.697-12.224c-8.305-3.203-17.634.934-20.837 9.239-3.202 8.305.933 17.633 9.239 20.837l7.42 2.862-29.204 16.861c-7.709 4.451-10.35 14.308-5.899 22.017s14.308 10.35 22.017 5.9l29.203-16.86-1.232 7.855c-.795 9.566 3.681 15.706 13.426 18.419 8.794 1.379 17.041-4.632 18.419-13.426l5.262-33.562 49.652-28.667v57.333l-26.435 21.338c-6.926 5.591-8.008 15.738-2.418 22.665 5.592 6.925 15.737 8.009 22.665 2.418l6.188-4.995v33.721c0 8.902 7.216 16.118 16.118 16.118s16.118-7.216 16.118-16.118V303.65l6.187 4.995c7.887 5.471 15.442 4.665 22.665-2.418 5.591-6.926 4.509-17.074-2.418-22.665l-26.434-21.338V204.89l49.652 28.666 5.262 33.563c1.379 8.794 9.626 14.805 18.419 13.426 8.793-1.38 14.804-9.625 13.426-18.419l-1.232-7.857 29.204 16.861c7.709 4.451 17.566 1.81 22.017-5.899 4.45-7.709 1.809-17.566-5.9-22.017zM156.954 312.591v15.448h-32.049a7.726 7.726 0 0 1-7.724-7.724 7.72 7.72 0 0 1 7.724-7.724zM156.954 248.699v15.448h-32.049a7.72 7.72 0 0 1-7.724-7.724 7.726 7.726 0 0 1 7.724-7.724zM156.954 184.817v15.448h-32.049a7.726 7.726 0 0 1-7.724-7.724 7.727 7.727 0 0 1 7.724-7.724zM156.954 120.935v15.448h-32.049a7.726 7.726 0 0 1-7.724-7.724 7.72 7.72 0 0 1 7.724-7.724z" fill="#86ebf9"></path><path d="M172.917 416.101c0 36.344-30.288 65.602-67.002 63.913-32.79-1.514-59.402-28.146-60.885-60.936-1.411-31.101 19.392-57.579 47.888-64.932V48.794c0-4.428 1.792-8.424 4.696-11.328a15.954 15.954 0 0 1 11.328-4.696c8.846 0 16.024 7.178 16.024 16.024v305.351c27.58 7.117 47.951 32.163 47.951 61.956z" fill="#bcdff4"></path><path d="M172.92 416.1c0 30-20.64 55.17-48.5 62.09-5.89 1.47-12.1 2.11-18.51 1.82-32.79-1.51-59.4-28.14-60.88-60.93-1.41-31.1 19.39-57.58 47.89-64.93v-33.84h32.05v33.84c27.58 7.11 47.95 32.16 47.95 61.95z" fill="#43a3f8"></path><path d="M75.93 419.08c1.28 28.54 21.61 52.42 48.49 59.11-5.89 1.47-12.1 2.11-18.51 1.82-32.79-1.51-59.4-28.14-60.88-60.93-1.41-31.1 19.39-57.58 47.89-64.93v-33.84h32.05v33.84c-28.5 7.35-50.46 33.83-49.04 64.93z" fill="#3079bf"></path></g></svg>