<svg viewBox="0 0 53 53" xmlns="http://www.w3.org/2000/svg"><g><path d="M28.708 5.5v32.16a3 3 0 0 1-3 3H5.5a3 3 0 0 1-3-3V5.5a3 3 0 0 1 3-3h20.208a3 3 0 0 1 3 3z" fill="#dbdbdb"></path><g fill="#f34624"><path d="M23.238 19.762c0 3.631-4.388 6.94-7.634 8.63-3.226-1.639-7.634-5.027-7.634-8.63 0-2.758 1.898-4.994 4.24-4.994 1.875 0 3.394 1.789 3.394 3.994 0-.316.031-.624.091-.918.352-1.763 1.696-3.076 3.301-3.076 2.342 0 4.242 2.236 4.242 4.994zM8.976 5.964c0 1.065-1.286 2.034-2.238 2.53C5.793 8.014 4.5 7.02 4.5 5.964c0-.809.557-1.464 1.244-1.464.55 0 .994.524.994 1.17 0-.092.01-.182.027-.268.103-.517.497-.902.968-.902.687 0 1.243.655 1.243 1.464zM26.707 36.13c0 1.065-1.286 2.035-2.238 2.53-.945-.48-2.238-1.473-2.238-2.53 0-.809.557-1.464 1.244-1.464.55 0 .994.524.994 1.171 0-.093.01-.183.027-.27.103-.516.497-.9.968-.9.687 0 1.243.655 1.243 1.463z" fill="#f34624"></path></g><path d="M36.258 50.342 17.11 43.88a3 3 0 0 1-1.884-3.802L25.51 9.607a3 3 0 0 1 3.802-1.883l19.147 6.46a3 3 0 0 1 1.884 3.802L40.059 48.458a3 3 0 0 1-3.801 1.884z" fill="#ededed"></path><g fill="#2c3642"><path d="m32.734 31.836-.78 2.311 2.274.767a1.062 1.062 0 0 1-.68 2.013l-6.168-2.081a1.063 1.063 0 0 1 .68-2.013l2.272.767.78-2.311c-.62.342-1.328.44-1.994.216-3.144-1.061-4.183-7.793 5.973-9.33 1.998 2.07 4.446 5.662 3.53 8.378-.696 2.062-2.679 3.254-4.43 2.663-.667-.225-1.17-.732-1.457-1.38zM29.11 14.112l-.323.96.944.32a.441.441 0 0 1-.282.836l-2.563-.865a.442.442 0 0 1 .282-.837l.944.319.324-.96a1.024 1.024 0 0 1-.828.09c-1.307-.442-1.738-3.239 2.482-3.878.83.861 1.847 2.353 1.467 3.482-.29.857-1.113 1.352-1.841 1.107a1.025 1.025 0 0 1-.605-.574zM36.417 46.283l-.324.96.944.32a.441.441 0 0 1-.282.836l-2.563-.865a.442.442 0 0 1 .282-.836l.945.318.324-.96a1.024 1.024 0 0 1-.829.09c-1.307-.441-1.738-3.238 2.482-3.877.83.86 1.848 2.353 1.467 3.481-.29.857-1.113 1.352-1.841 1.107a1.025 1.025 0 0 1-.605-.574z" fill="#2c3642"></path></g></g></svg>