<svg viewBox="0 0 64 64" xmlns="http://www.w3.org/2000/svg"><g><path d="M52.98 46.501a1 1 0 0 1-.449-1.895l2-1a1 1 0 1 1 .895 1.79l-2 1a1.001 1.001 0 0 1-.447.105z" fill="#aab2bd"></path><g fill="#ccd1d9"><path d="M54.979 45.501a1 1 0 0 1-1-1 1 1 0 0 0-2 0 1 1 0 0 1-2 0 3 3 0 0 1 6 0 1 1 0 0 1-1 1zM52.979 50.501a3.003 3.003 0 0 1-3-3 1 1 0 0 1 2 0 1 1 0 0 0 2 0 1 1 0 0 1 2 0 3.003 3.003 0 0 1-3 3z" fill="#ccd1d9"></path><path d="M54.979 48.345a1 1 0 0 1-1-1v-2.932a1 1 0 0 1 2 0v2.932a1 1 0 0 1-1 1zM50.979 48.501a1 1 0 0 1-1-1v-3a1 1 0 0 1 2 0v3a1 1 0 0 1-1 1z" fill="#ccd1d9"></path></g><path d="M38.99 26.5a15 15 0 1 1-30 0v-2a2.996 2.996 0 0 1 3 3 9 9 0 0 0 9 9l1-1h4l1 1a9 9 0 0 0 9-9 2.996 2.996 0 0 1 3-3z" fill="#965353"></path><path d="M53.98 53.5h3v7h-3z" fill="#ccd1d9"></path><path d="M38.99 14.5v6l-4-4a23.864 23.864 0 0 1-11 3 23.864 23.864 0 0 1-11-3l-4 4v-5a12.987 12.987 0 0 1 13-13h10v5a6.995 6.995 0 0 1 7 7z" fill="#965353"></path><path d="M30.99 39.77v5.73l-3 2-4-1-4 1-3-2v-5.73a15.027 15.027 0 0 0 14 0z" fill="#87bcf4"></path><path d="m60.98 35.5.03 26h-4.03v-28z" fill="#e6e9ed"></path><path d="M56.98 33.5v20h-3v-8.09a2.027 2.027 0 0 0-1.12-1.71c-.03-.01-.07-.03-.1-.04L40.98 38.5v-6l2-1 11 5a2.996 2.996 0 0 0 3-3z" fill="#656d78"></path><path d="M44.99 53.5v8h-42v-8a7.998 7.998 0 0 1 8-8h6l3 2 4-1 4 1 3-2h6a7.998 7.998 0 0 1 8 8z" fill="#5d9cec"></path><path d="M38.99 20.5v4a2.996 2.996 0 0 0-3 3 9 9 0 0 1-9 9l-1-1h-4l-1 1a9 9 0 0 1-9-9 2.996 2.996 0 0 0-3-3v-4l4-4a23.864 23.864 0 0 0 11 3 23.864 23.864 0 0 0 11-3z" fill="#eac6bb"></path><path d="M41.979 40.501a1 1 0 0 1-1-1v-5a1 1 0 0 1 2 0v5a1 1 0 0 1-1 1z" fill="#656d78"></path><path d="M24.006 53.5a1 1 0 0 1-.01-2h.01a1 1 0 0 1 0 2zM24.006 59.5a1 1 0 0 1-.01-2h.01a1 1 0 0 1 0 2z" fill="#87bcf4"></path></g></svg>