<svg viewBox="0 0 60 58" xmlns="http://www.w3.org/2000/svg"><g><g fill="none" fill-rule="nonzero"><path d="M48 23a10.018 10.018 0 0 1-10 10 9.92 9.92 0 0 1-6.26-2.21l1.22-4.4A1.106 1.106 0 0 0 31.88 25h-3.76a1.106 1.106 0 0 0-1.08 1.39l1.22 4.4A9.92 9.92 0 0 1 22 33a9.667 9.667 0 0 1-2.54-.33A10 10 0 0 1 22 13h16a10.006 10.006 0 0 1 10 10z" fill="#c7804c"></path><path d="M47 37a16.942 16.942 0 0 1-3.13 9.83 10.343 10.343 0 0 1-6.97 4.08c-.3.04-.6.07-.9.09.13-.14.25-.28.38-.42A20.547 20.547 0 0 0 41 37.24a22.7 22.7 0 0 0-.46-4.57 9.908 9.908 0 0 0 4.83-2.92A16.787 16.787 0 0 1 47 37z" fill="#a1693e"></path><path d="M41 37.24a20.547 20.547 0 0 1-4.62 13.34c-.13.14-.25.28-.38.42-.12.01-11.88.01-12 0-.12-.13-.25-.27-.37-.41A20.453 20.453 0 0 1 19 37.24a22.7 22.7 0 0 1 .46-4.57A9.667 9.667 0 0 0 22 33a9.92 9.92 0 0 0 6.26-2.21l.66 2.4a1.125 1.125 0 0 0 2.16 0l.66-2.4A9.92 9.92 0 0 0 38 33a9.667 9.667 0 0 0 2.54-.33 22.7 22.7 0 0 1 .46 4.57z" fill="#f4edc7"></path><path d="M24 51c-.3-.02-.6-.05-.9-.09a10.343 10.343 0 0 1-6.97-4.08 16.975 16.975 0 0 1-1.5-17.08 9.908 9.908 0 0 0 4.83 2.92 22.7 22.7 0 0 0-.46 4.57 20.453 20.453 0 0 0 4.63 13.35c.12.14.25.28.37.41z" fill="#a1693e"></path><path d="M38 54a2.987 2.987 0 0 1-5.19 2.03 2.989 2.989 0 0 1-5.62 0A2.987 2.987 0 0 1 22 54s0-2.13 1.1-3.09c.3.04.6.07.9.09.12.01 11.88.01 12 0 .3-.02.6-.05.9-.09C38 51.87 38 54 38 54z" fill="#a1693e"></path><path d="M39 6.62v6.43c-.33-.03-.66-.05-1-.05H22c-.34 0-.67.02-1 .05V6.62z" fill="#393f4b"></path><path d="M44.75 11.55a1 1 0 0 1-.83.45.939.939 0 0 1-.55-.17A3.047 3.047 0 0 1 42 9.28V5.81l1.26-.34A.971.971 0 0 0 44 4.5v4.78c0 .359.18.693.48.89a.986.986 0 0 1 .27 1.38zM27.61 25.13a6.033 6.033 0 1 0-.59 1.15" fill="#f1d24b"></path><path d="M22 30a7 7 0 1 1 6.545-4.516.928.928 0 0 1-.045.1l-.59 1.15a.9.9 0 0 1-.053.091A6.973 6.973 0 0 1 22 30zm0-12a5 5 0 1 0 4.155 7.775l.538-1.049A5 5 0 0 0 22 18z" fill="#5f3e23"></path><circle cx="22" cy="23" fill="#2c2f38" r="2"></circle><path d="M32.98 26.28a5.927 5.927 0 1 0-.59-1.15" fill="#f1d24b"></path><circle cx="38" cy="23" fill="#2c2f38" r="2"></circle><path d="M59 52H1a1 1 0 0 1 0-2h58a1 1 0 0 1 0 2z" fill="#5f3e23"></path><path d="M44 4.5a.971.971 0 0 1-.74.97L42 5.81l-3 .81-8.75 2.35c-.164.04-.336.04-.5 0L21 6.62l-4.26-1.15a1 1 0 0 1 0-1.94L29.75.03c.164-.04.336-.04.5 0L42 3.19l1.26.34a.971.971 0 0 1 .74.97z" fill="#464f5e"></path><path d="M32.143 26.827a.9.9 0 0 1-.053-.091l-.59-1.15a.928.928 0 0 1-.045-.1 7.032 7.032 0 1 1 .688 1.343zM33 23c0 .589.103 1.173.307 1.726l.538 1.049A5 5 0 1 0 33 23z" fill="#5f3e23"></path><path d="m32.96 26.39-1.22 4.4-.66 2.4a1.125 1.125 0 0 1-2.16 0l-.66-2.4-1.22-4.4A1.106 1.106 0 0 1 28.12 25h3.76a1.106 1.106 0 0 1 1.08 1.39z" fill="#ed9a00"></path></g></g></svg>