<svg viewBox="0 0 512 512" xmlns="http://www.w3.org/2000/svg"><g><path d="M105.377 294.88a15 15 0 0 1 14.998 15v25.125H256c8.284 0 15 6.716 15 15v60.25c0 8.284-6.716 15-15 15H120.375v25.125a15.001 15.001 0 0 1-24.206 11.843l-90.375-70.25a15.003 15.003 0 0 1 0-23.686l90.375-70.25a14.998 14.998 0 0 1 9.208-3.157z" fill="#1181f8"></path><path d="M271 45.12v180.76c0 8.28-6.72 15-15 15H15c-8.28 0-15-6.72-15-15V45.12c0-3.48 1.19-6.68 3.18-9.22h264.64c1.99 2.54 3.18 5.74 3.18 9.22z" fill="#ffe45c"></path><path d="M406.623 220.75a15 15 0 0 1-14.998-15v-25.125H256c-8.284 0-15-6.716-15-15v-60.25c0-8.284 6.716-15 15-15h135.625V65.25a15.001 15.001 0 0 1 24.206-11.843l90.375 70.25a15.002 15.002 0 0 1 0 23.686l-90.375 70.25a15 15 0 0 1-9.208 3.157z" fill="#f71446"></path><path d="M135.5 35.9v204.98H256c8.28 0 15-6.72 15-15V45.12c0-3.48-1.19-6.68-3.18-9.22z" fill="#ffd15e"></path><path d="M267.82 35.9 135.5 139.13 3.18 35.9c2.74-3.52 7.02-5.78 11.82-5.78h241c4.8 0 9.08 2.26 11.82 5.78z" fill="#ffd15e"></path><path d="M256 30.12H135.5v109.01L267.82 35.9A14.947 14.947 0 0 0 256 30.12z" fill="#ffac5a"></path><path d="M512 286.12v180.76c0 8.28-6.72 15-15 15H256c-8.28 0-15-6.72-15-15V286.12c0-3.48 1.19-6.68 3.18-9.22h264.64c1.99 2.54 3.18 5.74 3.18 9.22z" fill="#ffe45c"></path><path d="M376.5 276.9v204.98H497c8.28 0 15-6.72 15-15V286.12c0-3.48-1.19-6.68-3.18-9.22z" fill="#ffd15e"></path><path d="M508.82 276.9 376.5 380.13 244.18 276.9c2.74-3.52 7.02-5.78 11.82-5.78h241c4.8 0 9.08 2.26 11.82 5.78z" fill="#ffd15e"></path><path d="M497 271.12H376.5v109.01L508.82 276.9a14.947 14.947 0 0 0-11.82-5.78z" fill="#ffac5a"></path></g></svg>