<svg viewBox="0 0 512 512" xmlns="http://www.w3.org/2000/svg"><g><path d="M250.319 52.167a83.22 83.22 0 0 1 24.598-3.702h49.257a83.189 83.189 0 0 1 24.598 3.703c1.227-.284 2.442-.275 3.645.151V40.937C352.417 18.328 334.088 0 311.479 0h-23.867c-22.609 0-40.938 18.328-40.938 40.937v11.381c1.203-.426 2.419-.435 3.645-.151z" fill="#883f2e"></path><path d="M274.917 47.465h14.416v-6.528c0-19.374 13.464-35.594 31.542-39.841A41.035 41.035 0 0 0 311.479 0h-23.867c-22.609 0-40.938 18.328-40.938 40.937v11.381a84.349 84.349 0 0 1 28.243-4.853z" fill="#6d3326"></path><path d="M204.771 176.651h15.483v-2.125c0-5.651 4.598-10.25 10.249-10.25h33.665c18.626 0 35.356-10.372 43.662-27.067 1.764-3.546 5.288-5.749 9.198-5.749h51.56c5.651 0 10.249 4.598 10.249 10.25v34.94h15.483c4.929 0 9.42 1.865 12.843 4.908h1.499v-49.606c0-46.661-37.827-84.488-84.488-84.488h-49.257c-46.661 0-84.488 37.826-84.488 84.488v49.606h1.498c3.423-3.042 7.914-4.907 12.844-4.907z" fill="#a44f3e"></path><path d="M204.771 175.651h14.483v-1.125c0-6.213 5.036-11.249 11.249-11.249h2.998v-31.324c0-46.661 37.827-84.488 84.488-84.488h-43.072c-46.661 0-84.488 37.826-84.488 84.488v49.606a20.307 20.307 0 0 1 14.342-5.908z" fill="#883f2e"></path><path d="M375.784 305.195h-26.239v41.243c0 3.434-3.15 5.631-6.128 5.058V367.5a5.148 5.148 0 0 1-1.159 3.255l-38.721 47.481c-2.061 2.527-5.923 2.527-7.984 0l-38.721-47.481a5.148 5.148 0 0 1-1.159-3.255v-16.005c-2.978.574-6.128-1.623-6.128-5.058v-41.243h-26.239c-40.524 0-73.374 32.851-73.374 73.374V512h294.076a5.15 5.15 0 0 0 5.151-5.151v-128.28c0-40.523-32.851-73.374-73.375-73.374z" fill="#554e6f"></path><path d="M223.307 305.195c-27.589 0-51.61 15.235-64.141 37.743 9.19 3.31 15.761 12.104 15.761 22.435v5.887h13.784c1.99 0 3.703 1.112 4.606 2.736 2.009-32.628 25.334-59.476 56.23-66.802v-1.999z" fill="#433f5c"></path><path d="m341.103 350.4-38.266-31.791a5.151 5.151 0 0 0-6.583 0L257.988 350.4a5.095 5.095 0 0 1-2.314 1.095V367.5c0 1.186.409 2.336 1.159 3.255l38.721 47.481c2.061 2.527 5.923 2.527 7.984 0l38.721-47.481a5.148 5.148 0 0 0 1.159-3.255v-16.005a5.09 5.09 0 0 1-2.315-1.095z" fill="#e2defb"></path><path d="M276.604 356.865v-21.93L257.988 350.4a5.095 5.095 0 0 1-2.314 1.095V367.5c0 1.186.409 2.336 1.159 3.255l38.721 47.481c2.061 2.527 5.923 2.527 7.984 0l10.81-13.255-36.584-44.861a5.143 5.143 0 0 1-1.16-3.255z" fill="#cbc4e5"></path><path d="m347.432 282.864-2.094-1.529h-2.374a60.779 60.779 0 0 1-25.295 5.498h-36.245a60.779 60.779 0 0 1-25.295-5.498h-2.374l-2.094 1.529a5.153 5.153 0 0 0-2.114 4.16v59.414c0 4.363 5.086 6.75 8.443 3.962l38.266-31.791a5.151 5.151 0 0 1 6.583 0l38.266 31.791c3.356 2.788 8.443.401 8.443-3.962v-59.414a5.16 5.16 0 0 0-2.116-4.16z" fill="#f3f0ff"></path><path d="M272.592 287.197h.004a61.689 61.689 0 0 1-18.843-5.863l-2.094 1.529a5.153 5.153 0 0 0-2.114 4.16v59.414c0 4.363 5.086 6.75 8.443 3.962l12.434-10.33v-46.657c0-1.645.785-3.19 2.114-4.16l.898-.656z" fill="#e2defb"></path><path d="M220.254 225.664v-50.012h-15.483c-11.253 0-20.376 9.123-20.376 20.376V209.6c0 11.253 9.123 20.376 20.376 20.376h15.652a61.56 61.56 0 0 1-.169-4.312z" fill="#ea9b58"></path><path d="M394.321 175.651h-15.484v50.012a61.56 61.56 0 0 1-.169 4.312h15.653c11.253 0 20.376-9.123 20.376-20.376v-13.572c-.001-11.253-9.123-20.376-20.376-20.376z" fill="#f6a96c"></path><path d="M317.668 287.832h-36.245a62.73 62.73 0 0 1-8.831-.635l22.539 37.477c2.002 3.328 6.826 3.328 8.828 0l22.539-37.477c-2.885.411-5.83.635-8.83.635z" fill="#ea9b58"></path><path d="M317.028 130.461c-4.293 0-8.182 2.459-10.094 6.303-7.816 15.713-24.026 26.513-42.766 26.513h-33.665c-6.213 0-11.249 5.036-11.249 11.249v51.137c0 34.335 27.834 62.169 62.169 62.169h36.245c34.335 0 62.169-27.834 62.169-62.169V141.71c0-6.213-5.036-11.249-11.249-11.249z" fill="#ffbd86"></path><path d="M251.879 225.664v-51.137c0-6.213 5.036-11.249 11.249-11.249h-32.625c-6.213 0-11.249 5.036-11.249 11.249v51.137c0 34.335 27.834 62.169 62.169 62.169h32.625c-34.335-.001-62.169-27.834-62.169-62.169z" fill="#f6a96c"></path><path d="M256.39 207.156a7.5 7.5 0 0 1-7.5-7.5v-14.182c0-4.142 3.357-7.5 7.5-7.5s7.5 3.358 7.5 7.5v14.182a7.5 7.5 0 0 1-7.5 7.5zM342.702 207.156a7.5 7.5 0 0 1-7.5-7.5v-14.182c0-4.142 3.357-7.5 7.5-7.5s7.5 3.358 7.5 7.5v14.182a7.5 7.5 0 0 1-7.5 7.5zM299.545 257.578c-12.92 0-25.84-4.917-35.675-14.753a7.5 7.5 0 0 1 10.606-10.606c13.824 13.824 36.317 13.822 50.138 0a7.5 7.5 0 0 1 10.607 0 7.498 7.498 0 0 1-.001 10.606c-9.834 9.836-22.754 14.753-35.675 14.753zM305.606 216.898h-12.122a7.5 7.5 0 0 1-7.5-7.5v-20.203c0-4.142 3.357-7.5 7.5-7.5s7.5 3.358 7.5 7.5v12.703h4.622c4.143 0 7.5 3.358 7.5 7.5s-3.357 7.5-7.5 7.5z" fill="#a44f3e"></path><path d="M415.19 465.46h-68.063a3.091 3.091 0 0 1-3.091-3.091v-37.423a3.091 3.091 0 0 1 3.091-3.091h68.063a3.091 3.091 0 0 1 3.091 3.091v37.423a3.092 3.092 0 0 1-3.091 3.091z" fill="#ffffff"></path><path d="M376.46 462.37v-37.423a3.091 3.091 0 0 1 3.091-3.091h-32.424a3.091 3.091 0 0 0-3.091 3.091v37.423a3.091 3.091 0 0 0 3.091 3.091h32.424a3.091 3.091 0 0 1-3.091-3.091z" fill="#f3f0ff"></path><circle cx="299.546" cy="352.805" fill="#554e6f" r="7.5"></circle><circle cx="299.546" cy="384.805" fill="#554e6f" r="7.5"></circle><path d="M393.521 405.665h-24.725c-4.143 0-7.5-3.358-7.5-7.5s3.357-7.5 7.5-7.5h24.725a7.5 7.5 0 0 1 0 15z" fill="#cbc4e5"></path><path d="M223.261 385.803H78.91a5.15 5.15 0 0 0-5.151 5.151v60.923h25.342a4.185 4.185 0 0 1 4.18 4.18V512h125.132V390.954a5.152 5.152 0 0 0-5.152-5.151z" fill="#ffee9a"></path><path d="M113.46 397.706a5.289 5.289 0 0 1-5.289-5.289v-6.614H78.909a5.15 5.15 0 0 0-5.151 5.151v59.923H99.1a5.18 5.18 0 0 1 5.18 5.18V512h12.645V397.706z" fill="#fcdd66"></path><path d="M174.927 371.605v-6.233c0-13.167-10.674-23.842-23.842-23.842-13.167 0-23.842 10.674-23.842 23.842v6.233z" fill="#f3f0ff"></path><path d="M148.861 371.605v-6.233c0-9.275 5.3-17.307 13.033-21.249a23.731 23.731 0 0 0-10.809-2.593c-13.167 0-23.842 10.674-23.842 23.842v6.233z" fill="#e2defb"></path><path d="M188.711 397.706h-75.25a5.289 5.289 0 0 1-5.289-5.289v-15.868a5.289 5.289 0 0 1 5.289-5.289h75.25a5.289 5.289 0 0 1 5.289 5.289v15.868a5.289 5.289 0 0 1-5.289 5.289z" fill="#cbc4e5"></path><path d="M141.256 392.417v-15.868a5.289 5.289 0 0 1 5.289-5.289H113.46a5.289 5.289 0 0 0-5.289 5.289v15.868a5.289 5.289 0 0 0 5.289 5.289h33.085a5.289 5.289 0 0 1-5.289-5.289z" fill="#b5adcf"></path><path d="M104.28 512H70.776a7.935 7.935 0 0 1-7.935-7.935v-45.253a7.935 7.935 0 0 1 7.935-7.935H99.1a5.18 5.18 0 0 1 5.18 5.18z" fill="#ffbd86"></path><path d="M83.96 504.065v-45.253a7.935 7.935 0 0 1 7.935-7.935H70.776a7.935 7.935 0 0 0-7.935 7.935v45.253A7.935 7.935 0 0 0 70.776 512h21.119a7.935 7.935 0 0 1-7.935-7.935z" fill="#f6a96c"></path></g></svg>