<svg viewBox="0 0 512 512" xmlns="http://www.w3.org/2000/svg"><g><path d="M387.457 0c-30.277 0-58.996 9.188-85.355 27.309-16.707 11.484-32.192 26.32-46.133 44.183a240.421 240.421 0 0 0-10.418-12.437C210.863 20.422 169.02 0 124.543 0 55.871 0 0 57.57 0 128.336c0 70.762 55.871 128.336 124.543 128.336 30.281 0 58.996-9.188 85.355-27.309 16.707-11.484 32.192-26.32 46.137-44.187 3.38 4.32 6.863 8.48 10.414 12.437 34.688 38.637 76.531 59.059 121.008 59.059 68.672 0 124.543-57.574 124.543-128.336C512 57.57 456.129 0 387.457 0zm63.719 128.336c0 37.226-28.582 67.512-63.719 67.512-17.105 0-60.285-6.676-96.883-67.578 36.258-60.786 79.664-67.446 96.883-67.446 35.137 0 63.719 30.285 63.719 67.512zm-229.79 0c-36.597 60.84-79.75 67.512-96.843 67.512-35.137 0-63.719-30.286-63.719-67.512 0-37.227 28.582-67.512 63.719-67.512 17.094 0 60.246 6.672 96.844 67.512zm0 0" fill="#ff3d43"></path><g fill="#d72e2e"><path d="M221.387 128.336c-6.266 10.414-12.727 19.242-19.211 26.723 6.414 11.703 20.52 36.656 32.234 54.203 7.555-7.274 14.774-15.313 21.621-24.086-13.219-18.387-24.312-37.895-25.05-39.531-1.516-3.375-9.594-17.31-9.594-17.31zM290.574 128.27c6.633-11.118 13.504-20.418 20.406-28.204-8.68-13.011-23.746-35.289-34.96-51.125-6.985 6.868-13.684 14.387-20.055 22.551 13.223 18.387 25.086 39.367 25.828 41.004.152.328 8.781 15.774 8.781 15.774zm0 0" fill="#d72e2e"></path></g></g></svg>