<svg fill-rule="evenodd" viewBox="0 0 7111 7111" xmlns="http://www.w3.org/2000/svg"><g><g fill="#c2e6f7"><path d="M2829 1487c-46 0-83-37-83-83v-306c0-99-81-180-180-180h-284c-46 0-83-37-83-83s37-83 83-83h284c191 0 346 155 346 346v306c0 46-37 83-83 83zM4282 1487c-46 0-83-37-83-83v-306c0-191 155-346 346-346h284c46 0 83 37 83 83s-37 83-83 83h-284c-99 0-179 81-179 180v306c0 46-38 83-84 83zM3556 1364c-46 0-84-37-84-83V530c0-46 38-84 84-84s83 38 83 84v751c0 46-37 83-83 83zM5937 2836h-306c-46 0-83-38-83-84s37-83 83-83h306c99 0 180-80 180-179v-284c0-46 37-83 83-83s83 37 83 83v284c0 191-155 346-346 346zM6505 3563h-751c-46 0-83-38-83-84s37-83 83-83h751c46 0 84 37 84 83s-38 84-84 84zM4653 6207h-108c-191 0-346-155-346-346v-306c0-46 37-84 83-84s84 38 84 84v306c0 99 80 179 179 179h108c46 0 84 38 84 84s-38 83-84 83zM2566 6207h-284c-46 0-83-37-83-83s37-84 83-84h284c99 0 180-80 180-179v-306c0-46 37-84 83-84s83 38 83 84v306c0 191-155 346-346 346zM3556 6512c-46 0-84-37-84-83v-751c0-46 38-84 84-84s83 38 83 84v751c0 46-37 83-83 83zM911 4836c-46 0-83-37-83-83v-284c0-191 155-346 346-346h306c46 0 83 37 83 83s-37 83-83 83h-306c-99 0-180 81-180 180v284c0 46-37 83-83 83zM1480 2836h-306c-191 0-346-155-346-346v-284c0-46 37-83 83-83s83 37 83 83v284c0 99 81 179 180 179h306c46 0 83 37 83 83s-37 84-83 84zM1357 3563H606c-46 0-83-38-83-84s37-83 83-83h751c46 0 83 37 83 83s-37 84-83 84z" fill="#c2e6f7"></path></g><path d="M3556 5761c-1259 0-2282-1023-2282-2282 0-1258 1023-2282 2282-2282 1459 0 2538 1355 2229 2770-12 55-72 82-121 56L4609 5386c37 40 25 105-24 130-321 163-667 245-1029 245z" fill="#2882b0"></path><path d="M2059 695c-77 0-139 63-139 140s62 139 139 139 140-62 140-139-63-140-140-140z" fill="#000000"></path><path d="M2059 1141c-169 0-306-137-306-306s137-306 306-306 307 137 307 306-138 306-307 306z" fill="#2882b0"></path><path d="M5052 1141c-169 0-306-137-306-306s137-306 306-306 306 137 306 306-137 306-306 306z" fill="#a3d14a"></path><path d="M3556 613c-169 0-307-137-307-306S3387 0 3556 0c168 0 306 138 306 307s-138 306-306 306z" fill="#ffcc00"></path><path d="M6200 2289c-169 0-306-137-306-306s137-306 306-306 306 137 306 306-137 306-306 306z" fill="#80b4fb"></path><path d="M6728 3786c-169 0-306-138-306-307s137-306 306-306 306 137 306 306-137 307-306 307z" fill="#a3d14a"></path><path d="M2059 6430c-169 0-306-138-306-306 0-169 137-307 306-307s307 138 307 307c0 168-138 306-307 306z" fill="#2882b0"></path><path d="M3556 6958c-169 0-307-137-307-306s138-306 307-306c168 0 306 137 306 306s-138 306-306 306zM911 5282c-169 0-306-138-306-306 0-169 137-307 306-307s306 138 306 307c0 168-137 306-306 306z" fill="#ffcc00"></path><path d="M911 2289c-169 0-306-137-306-306s137-306 306-306 306 137 306 306-137 306-306 306z" fill="#80b4fb"></path><path d="M383 3786c-169 0-306-138-306-307s137-306 306-306 306 137 306 306-137 307-306 307z" fill="#a3d14a"></path><path d="M4430 3159c-46 0-83-38-83-84v-211c0-425-317-770-706-770h-170c-390 0-706 345-706 770v211c0 46-38 84-84 84s-83-38-83-84v-211c0-517 392-937 873-937h170c481 0 872 421 872 937v211c0 46-37 84-83 84z" fill="#4a5254"></path><path d="M3748 5031h-385c-532 0-965-432-965-964v-790c0-157 128-285 285-285h1744c158 0 286 128 286 285v790c0 532-433 964-965 964z" fill="#ffb800"></path><path d="M3556 4181c-183 0-332-148-332-331s149-332 332-332c182 0 331 149 331 332s-149 331-331 331z" fill="#4a5254"></path><path d="M3556 4505c-46 0-84-37-84-83v-324c0-46 38-83 84-83s83 37 83 83v324c0 46-37 83-83 83z" fill="#4a5254"></path><path d="M5705 7113c-9 0-17-1-25-4-330-97-636-298-861-565-231-272-358-591-358-898V4642c0-35 21-66 53-80 365-155 853-414 1131-675 34-32 86-32 120 0 278 261 766 520 1131 675 32 14 53 45 53 80v1004c0 665-584 1282-1219 1463-9 3-17 4-25 4z" fill="#335f8c"></path><path d="M5705 6716c-10 0-19-1-28-4-464-152-887-602-887-1089v-747c0-34 20-65 51-79 189-84 544-258 808-474 33-26 79-26 111 0 264 216 620 390 808 474 31 14 52 45 52 79v747c0 488-421 934-888 1089-9 3-18 4-27 4z" fill="#5684b9"></path><path d="M5403 5931c-37 0-71-25-83-61l-113-357c-14-46 11-95 57-109 46-15 94 11 109 56l75 237 642-509c38-30 92-23 122 14 30 38 24 93-14 122l-740 588c-16 12-35 19-55 19z" fill="#ffffff"></path></g></svg>