<svg viewBox="0 0 512 512" xmlns="http://www.w3.org/2000/svg"><g><path d="M0 256C0 114.724 114.439.177 255.673 0c140.22-.175 255.112 113.534 256.317 253.75.704 81.919-37.073 155.042-96.344 202.385-3.954 3.158-9.511 3.428-13.665.539C360.573 427.88 310.258 411 256 411c-54.143 0-104.361 16.808-145.719 45.492-4.314 2.992-10.079 2.725-14.177-.557C37.519 409.021 0 336.892 0 256z" fill="#3493f8"></path><path d="M457.31 273.997c0 111.18-90.129 201.31-201.31 201.31s-201.31-90.13-201.31-201.31S144.82 72.687 256 72.687s201.31 90.129 201.31 201.31z" fill="#55a4f9"></path><path d="M300.936 244.665C290.248 248.128 278.842 250 267 250h-22c-60.751 0-110-49.249-110-110v-30C135 49.249 184.249 0 245 0h22l.355.001c10.221.032 14.09 13.281 5.645 19.037-29.052 19.799-48.128 53.153-48.128 90.962v30c0 48.909 31.92 90.362 76.064 104.665z" fill="#784132"></path><path d="M377 110v30c0 48.7-31.648 90.009-75.5 104.481C257.648 230.009 226 188.7 226 140v-30c0-31.136 12.936-59.251 33.727-79.262 23.366-22.49 60.179-22.49 83.545 0C364.064 50.749 377 78.864 377 110z" fill="#915041"></path><path d="M100.452 290.877a5 5 0 0 1 0 7.071 5 5 0 0 1-7.071 0L66.104 270.67a5 5 0 0 1 0-7.071 5 5 0 0 1 7.071 0zm23.952-30.785a5 5 0 0 0-5 5v17.81a5 5 0 0 0 10 0v-17.81a5 5 0 0 0-5-5zm-38.998 56.807h-17.81a5 5 0 0 0 0 10h17.81a5 5 0 0 0 0-10zm360.49-53.3a5 5 0 0 0-7.071 0l-27.278 27.278a5 5 0 0 0 0 7.071 5 5 0 0 0 7.071 0l27.278-27.278a5 5 0 0 0 0-7.071zm-58.3-3.507a5 5 0 0 0-5 5v17.81a5 5 0 0 0 10 0v-17.81a5 5 0 0 0-5-5zm56.808 56.807h-17.81a5 5 0 0 0 0 10h17.81a5 5 0 0 0 0-10z" fill="#a7d0fc"></path><path d="M146 209c-13.807 0-25-11.193-25-25v-10c0-13.807 11.193-25 25-25s25 11.193 25 25v10c0 13.807-11.193 25-25 25z" fill="#ffbeaa"></path><path d="M136 169v20c0 8.178 3.927 15.439 9.998 20-13.806-.001-24.998-11.194-24.998-25v-10c0-13.806 11.192-24.999 24.998-25-6.071 4.561-9.998 11.822-9.998 20zm230-20v-20c0-60.751-49.249-110-110-110S146 68.249 146 129v40c0 50.351 33.83 92.801 80 105.859V299h-43.909c-2.246 0-3.154 2.876-1.331 4.186 15.685 11.268 32.693 19.122 50.586 22.912C236.765 333.896 245.786 339 256 339s19.235-5.104 24.653-12.901c17.935-3.799 34.981-11.681 50.696-22.991 1.789-1.288.898-4.107-1.305-4.107H286V274.86c33.586-9.499 60.641-34.551 72.895-66.883a25.02 25.02 0 0 0 7.105 1.024c13.807 0 25-11.193 25-25v-10C391 160.193 379.807 149 366 149z" fill="#faa68e"></path><path d="M366 129v40c0 50.792-34.425 93.543-81.216 106.195a52.827 52.827 0 0 1-27.568 0C210.425 262.543 176 219.792 176 169v-40c0-55.663 41.345-101.669 95-108.985 53.655 7.316 95 53.322 95 108.985z" fill="#ffbeaa"></path><path d="M286 208a7.5 7.5 0 0 1-7.5 7.5h-45a7.5 7.5 0 0 1 0-15h45a7.5 7.5 0 0 1 7.5 7.5zm-30-26.26a20.374 20.374 0 0 0 14.5-6.009 7.5 7.5 0 0 0-10.606-10.607c-1.042 1.042-2.424 1.616-3.893 1.616s-2.851-.574-3.893-1.616a7.501 7.501 0 0 0-10.606 10.607A20.366 20.366 0 0 0 256 181.74z" fill="#e09380"></path><path d="M223.5 136.5c0 8.284-6.716 15-15 15s-15-6.716-15-15 6.716-15 15-15 15 6.716 15 15zm80-15c-8.284 0-15 6.716-15 15s6.716 15 15 15 15-6.716 15-15-6.716-15-15-15z" fill="#0a3575"></path><path d="M226 129a7.5 7.5 0 1 1-15 0 7.5 7.5 0 0 1 15 0zm87.5-7.5a7.5 7.5 0 1 0 0 15 7.5 7.5 0 0 0 0-15z" fill="#fff5f5"></path><path d="M190.222 75.411A110.56 110.56 0 0 1 156.25 45C176.268 17.714 208.565 0 245 0h22c20.415 0 39.531 5.562 55.915 15.252 1.577.933 1.071 3.318-.749 3.522a154.047 154.047 0 0 0-18.102 3.136l-29.699 6.984c-31.05 7.302-57.632 23.61-77.634 45.509a5.266 5.266 0 0 1-6.509 1.008z" fill="#784132"></path><path d="M355.75 45C335.732 72.286 303.435 90 267 90h-22c-20.04 0-38.829-5.36-55.011-14.723 16.508-29.438 46.163-50.51 81.011-55.262 21.636-3.602 38.395-4.818 51.815-4.821A110.56 110.56 0 0 1 355.75 45z" fill="#915041"></path><path d="M416 369v67.926c-43.827 35.133-99.459 56.148-160 56.148-51.955 0-100.295-15.477-140.661-42.073-6.67-4.395-8.211-82.002-8.211-82.002 0-38.66 12.276-54 58.872-67.447L182.681 299c22.498 15.182 47.283 23.59 73.319 23.59s50.821-8.408 73.319-23.59H346c38.66 0 70 31.34 70 70z" fill="#f44545"></path><path d="M130 369v69.436c0 8.177-9.121 13.067-15.923 8.527a256.586 256.586 0 0 1-14.053-10.079A10.281 10.281 0 0 1 96 428.739V369c0-38.66 31.34-70 70-70h16.681c.799.54-52.681 17.149-52.681 70z" fill="#d63030"></path><path d="M416 430v25.852a255.927 255.927 0 0 1-60 35.881V430zM96 455.852a255.927 255.927 0 0 0 60 35.881V430H96z" fill="#faa68e"></path><path d="M425.362 433a7.5 7.5 0 0 1-7.5 7.5h-63.723a7.5 7.5 0 0 1 0-15h63.723a7.5 7.5 0 0 1 7.5 7.5zm-267.5-7.5H94.138a7.5 7.5 0 0 0 0 15h63.723a7.5 7.5 0 0 0 .001-15z" fill="#fb5858"></path><path d="M361 512H151a5 5 0 0 1-5-5V365a5 5 0 0 1 5-5h210a5 5 0 0 1 5 5v142a5 5 0 0 1-5 5z" fill="#ffe7c0"></path><path d="M167.696 512H151a5 5 0 0 1-5-5V365a5 5 0 0 1 5-5h16.696a5 5 0 0 0-5 5v142a5 5 0 0 0 5 5z" fill="#ffde91"></path><path d="M315.5 406a5 5 0 0 1-5 5h-109a5 5 0 0 1 0-10h109a5 5 0 0 1 5 5zM288 431a5 5 0 0 0 0-10h-63a5 5 0 0 0 0 10zm0 30h-63a5 5 0 0 0 0 10h63a5 5 0 0 0 0-10zm9.5-20h-83a5 5 0 0 0 0 10h83a5 5 0 0 0 0-10z" fill="#ffc14f"></path><path d="M385 450v30c0 5.523-4.477 10-10 10h-26.5a7.5 7.5 0 0 1-4.714-13.333c-1.699-1.375-2.786-3.477-2.786-5.833s1.087-4.458 2.786-5.833a7.486 7.486 0 0 1-2.786-5.833 7.486 7.486 0 0 1 2.786-5.833 7.5 7.5 0 0 1 4.714-13.333H375c5.523-.002 10 4.475 10 9.998zm-214-2.5a7.5 7.5 0 0 0-7.5-7.5H137c-5.523 0-10 4.477-10 10v30c0 5.523 4.477 10 10 10h26.5a7.5 7.5 0 0 0 4.714-13.333c1.699-1.375 2.786-3.477 2.786-5.833s-1.087-4.458-2.786-5.833a7.486 7.486 0 0 0 2.786-5.833 7.486 7.486 0 0 0-2.786-5.833A7.493 7.493 0 0 0 171 447.5z" fill="#ffbeaa"></path><path d="M171 482.5a7.5 7.5 0 0 1-7.5 7.5H137c-5.523 0-10-4.477-10-10v-11.681c0 5.523 4.477 10 10 10h26.5c2.086 0 3.67-.67 4.714-1.653A7.49 7.49 0 0 1 171 482.5zm204-4.181h-25.128c-4.075 0-5.601-1.503-6.086-1.653a7.5 7.5 0 0 0 4.714 13.333H375c5.523 0 10-4.477 10-10v-11.681c0 5.524-4.477 10.001-10 10.001z" fill="#faa68e"></path></g></svg>