<svg viewBox="0 0 512 512" xmlns="http://www.w3.org/2000/svg"><g><path d="M240 120v48a24.006 24.006 0 0 1-24 24h-48a24 24 0 0 1 0-48 24 24 0 0 1 0-48 23.993 23.993 0 0 1 47.03-6.72A23.335 23.335 0 0 1 216 96a24.006 24.006 0 0 1 24 24z" fill="#349b66"></path><path d="M160 192h336v296H160z" fill="#8ccee9"></path><path d="M416 192h80v296h-80z" fill="#37a0c5"></path><path d="M480 95.21V192H368V95.21a71.65 71.65 0 0 1 43.39-65.81 31.994 31.994 0 0 1 25.22 0A71.597 71.597 0 0 1 480 95.21z" fill="#af7d4d"></path><path d="M416 80a15.978 15.978 0 0 1-16 16h-32v-.79A71.408 71.408 0 0 1 375.17 64H400a15.995 15.995 0 0 1 16 16zM368 128h32a16 16 0 0 1 16 16 16 16 0 0 1-16 16h-32v-32z" fill="#f0de9c"></path><path d="M240 120v48a24.006 24.006 0 0 1-24 24h-13.15a31.96 31.96 0 0 1 .01-48 31.983 31.983 0 0 1 12.17-54.72A23.335 23.335 0 0 1 216 96a24.006 24.006 0 0 1 24 24z" fill="#008251"></path><path d="M296 120v48a24.006 24.006 0 0 1-24 24h-48a24 24 0 0 1 0-48 24 24 0 0 1 0-48 24 24 0 0 1 48 0 24.006 24.006 0 0 1 24 24z" fill="#349b66"></path><path d="M240 96h16v96h-16z" fill="#008251"></path><path d="M328 304v160a24 24 0 0 1-24 24h-80a24 24 0 0 1-24-24V304a24 24 0 0 1 24-24h16v-24h48v24h16a24 24 0 0 1 24 24z" fill="#e64042"></path><path d="M264 264h24v16h-24z" fill="#d3393b"></path><path d="M224 224h80v32h-80zM200 328h128v112H200z" fill="#f0de9c"></path><circle cx="176" cy="416" fill="#ea8804" r="72"></circle><path d="m168.668 380.394 39.98-79.962 14.305 7.152-39.981 79.962z" fill="#af7d4d"></path><path d="m204.422 399.155-12.815-6.407a25.946 25.946 0 0 1-29.333-10.667l-13.852-6.926 7.156-14.31 16 8a8 8 0 0 1 3.577 3.577 9.898 9.898 0 0 0 13.267 4.423 7.997 7.997 0 0 1 7.156 0l16 8z" fill="#e4792e"></path><path d="M184 320h-20.247a32 32 0 0 1-31.678-27.475L128 264l28.525 4.075A32 32 0 0 1 184 299.753z" fill="#349b66"></path><path d="m149.04 296.39 11.312-11.311 45.248 45.248-11.312 11.312z" fill="#986342"></path><path d="M168 432a16 16 0 0 1-16 16l-1.144 2.861A59.081 59.081 0 0 1 96 488a59.081 59.081 0 0 1-54.856-37.139L40 448a16 16 0 0 1-16-16 16 16 0 0 1 16-16l1.144-2.861A59.081 59.081 0 0 1 96 376a59.081 59.081 0 0 1 54.856 37.139L152 416a16 16 0 0 1 16 16z" fill="#a4c52a"></path><g fill="#68ba40"><path d="M64 408h16v16H64zM80 440h16v16H80zM112 424h16v16h-16z" fill="#68ba40"></path></g><path d="M336 120h-48a96.568 96.568 0 0 1-28.284 68.284L256 192h112l-3.716-3.716A96.568 96.568 0 0 1 336 120z" fill="#f0c033"></path><path d="M280 72h64v48h-64z" fill="#f0de9c"></path></g></svg>