<svg viewBox="0 0 512 511" xmlns="http://www.w3.org/2000/svg"><g><path d="M317.633 218.172c0 36.2-29.344 65.543-65.54 65.543-36.198 0-65.542-29.344-65.542-65.543 0-36.195 29.344-65.543 65.543-65.543 36.195 0 65.539 29.348 65.539 65.543zm0 0" fill="#cb7a6f"></path><path d="M320.43 420.23c-32.309 15.043-66.801 22.614-101.414 22.614-27.801 0-55.684-4.875-82.582-14.688C76.047 406.133 27.855 361.922.723 303.656c-1.762-3.812-.211-8.554 3.691-10.105 25.379-10.074 106.461 96.691 269.305 57.496 97.105-23.371 95.988-121.117 75.832-164.414-32.942-70.746-125.16-67.176-161.14-6.871-15.286 25.62-3.298 77.097 18.75 85.136 22.042 8.036 29.663 6.457 52.652 1.711.375-.082.75-.16 1.113-.254 22.136-4.144 38.879-23.554 38.879-46.882 0-26.352-21.364-47.707-47.715-47.707-5.02 0-9.852.77-14.395 2.218-.078.008-.172.008-.254.02-4.175.375-8.32.121-10.093-3.68-1.774-3.808-.121-8.332 3.68-10.094 16.632-7.753 35.292-8.554 52.53-2.27 17.231 6.294 30.993 18.911 38.739 35.544 9.465 20.332 10.437 43.125 2.758 64.2-7.684 21.07-23.11 37.882-43.442 47.35-24.953 11.614-52.937 12.821-78.793 3.395-25.863-9.437-46.5-28.367-58.113-53.32-14.312-30.73-15.805-65.192-4.187-97.047 11.613-31.844 34.937-57.266 65.668-71.566 78.343-36.489 171.773-2.422 208.25 75.933 45.152 96.985 2.976 212.63-94.008 257.781zm0 0" fill="#3f22a8"></path><path d="M506.668 179.082c-4.016 1.258-8.27-.984-9.527-4.988-17.942-57.477-153.836-123.051-247.746-94.664-45.723 13.828-69.043 18.5-91.22 60.804-22.187 42.305-20.382 64.801-12.843 96.286 8.809 36.765 53.211 79.59 111.488 68.726 29.332-5.469 78.043-40.348 62.332-99.64-6.007-22.684-26.195-38.676-51.859-41.149-13.27-1.277-22.703 6.559-29.852 9.547-.16.07-.332.14-.496.215-18.922 6.332-32.562 24.203-32.562 45.254 0 26.351 21.363 47.707 47.707 47.707 2.562 0 5.066-.203 7.52-.59.07.012.14.012.202.02 4.165.476 8.27.984 9.516 4.995a7.593 7.593 0 0 1-4.984 9.52c-17.516 5.46-36.114 3.781-52.36-4.734-16.246-8.524-28.207-22.856-33.68-40.38-6.679-21.406-4.62-44.128 5.798-63.991 10.41-19.868 27.933-34.48 49.34-41.16 26.277-8.2 54.171-5.676 78.546 7.105 24.387 12.777 42.324 34.285 50.524 60.566 10.097 32.364 6.996 66.711-8.754 96.742-15.742 30.02-42.227 52.118-74.586 62.211-15.406 4.813-31.188 7.196-46.879 7.196-25.012 0-49.813-6.063-72.598-18-37.074-19.442-64.37-52.157-76.836-92.121-15.445-49.48-10.691-102 13.38-147.895C120.3 60.762 160.8 26.98 210.268 11.547c61.36-19.149 126.5-13.258 183.418 16.59 56.922 29.847 98.82 80.07 117.965 141.43 1.25 4-.98 8.269-4.984 9.515zm0 0" fill="#7925a5"></path><path d="M232.27 364.676c-25.012 0-49.813-6.055-72.594-17.996-37.082-19.442-64.367-52.16-76.84-92.125C67.398 205.082 72.148 152.559 96.21 106.66c24.066-45.898 64.566-79.68 114.039-95.117 61.355-19.148 126.496-13.254 183.418 16.59 56.926 29.847 98.82 80.074 117.965 141.43a7.6 7.6 0 0 1-4.992 9.519 7.595 7.595 0 0 1-9.52-4.988c-17.937-57.48-57.184-104.535-110.512-132.496-53.328-27.961-114.351-33.477-171.832-15.54-45.593 14.227-82.918 45.36-105.101 87.665-22.176 42.3-26.559 90.707-12.328 136.304 11.261 36.086 35.902 65.633 69.386 83.188 33.48 17.555 71.797 21.015 107.883 9.758 28.485-8.891 51.801-28.336 65.656-54.766 13.856-26.426 16.594-56.664 7.704-85.148-6.989-22.399-22.286-40.735-43.067-51.63-20.781-10.898-44.562-13.046-66.96-6.058-17.532 5.473-31.884 17.441-40.41 33.707-8.528 16.266-10.212 34.879-4.74 52.41 4.255 13.637 13.567 24.801 26.22 31.438 12.652 6.633 27.132 7.941 40.77 3.687a7.6 7.6 0 0 1 9.519 4.992 7.6 7.6 0 0 1-4.993 9.52c-17.511 5.465-36.109 3.781-52.355-4.734-16.25-8.52-28.211-22.86-33.676-40.371-6.68-21.41-4.625-44.137 5.79-64 10.413-19.864 27.94-34.48 49.347-41.16 26.277-8.2 54.172-5.676 78.55 7.105 24.376 12.781 42.317 34.293 50.516 60.566 10.098 32.36 6.992 66.715-8.75 96.739-15.742 30.023-42.23 52.12-74.59 62.218-15.41 4.805-31.183 7.188-46.878 7.188zm0 0" fill="#aa27ff"></path><path d="M219.012 442.844c-27.801 0-55.68-4.88-82.575-14.688C76.052 406.136 27.856 361.918.727 303.652a7.603 7.603 0 0 1 13.785-6.418c25.414 54.586 70.562 96.008 127.133 116.637 56.57 20.629 117.785 17.992 172.37-7.422 43.301-20.16 76.16-55.976 92.524-100.847 16.363-44.875 14.274-93.434-5.887-136.735-32.941-70.754-117.297-101.512-188.047-68.574-27.05 12.594-47.578 34.969-57.8 63-10.223 28.035-8.914 58.367 3.68 85.418 9.902 21.273 27.495 37.414 49.542 45.453 22.043 8.04 45.899 7.012 67.168-2.89 16.653-7.754 29.285-21.524 35.578-38.778 6.293-17.254 5.489-35.926-2.261-52.578-6.032-12.95-16.746-22.777-30.164-27.672-13.422-4.894-27.95-4.27-40.899 1.762a7.603 7.603 0 0 1-6.418-13.785c16.633-7.743 35.285-8.547 52.524-2.262 17.234 6.285 30.992 18.91 38.738 35.543 9.465 20.328 10.445 43.129 2.762 64.2-7.68 21.066-23.11 37.882-43.442 47.347-24.953 11.62-52.937 12.824-78.797 3.394-25.859-9.43-46.5-28.363-58.117-53.316-14.308-30.73-15.789-65.195-4.18-97.043 11.614-31.848 34.934-57.27 65.669-71.574 78.347-36.477 171.769-2.414 208.246 75.937 45.156 96.988 2.984 212.63-94 257.781-32.313 15.047-66.805 22.614-101.422 22.614zm0 0" fill="#6831ff"></path><path d="M283.633 218.172c0 17.418-14.121 31.539-31.54 31.539s-31.538-14.121-31.538-31.54 14.12-31.538 31.539-31.538 31.539 14.12 31.539 31.539zm0 0" fill="#fff75b"></path><path d="M241.281 357.04c0 8.397-6.804 15.202-15.203 15.202-8.394 0-15.203-6.805-15.203-15.203 0-8.394 6.809-15.203 15.203-15.203 8.399 0 15.203 6.809 15.203 15.203zm0 0" fill="#ffffff"></path><path d="M433.133 182.598c0 11.586-9.39 20.976-20.973 20.976-11.586 0-20.976-9.39-20.976-20.976 0-11.582 9.39-20.973 20.976-20.973 11.582 0 20.973 9.39 20.973 20.973zm0 0" fill="#ff7ae5"></path><path d="M116.926 121.79c0 11.585-9.39 20.976-20.973 20.976s-20.973-9.391-20.973-20.977c0-11.582 9.391-20.973 20.973-20.973s20.973 9.391 20.973 20.973zM437.086 403.3h-4.477v-4.476a7.6 7.6 0 0 0-7.601-7.601 7.6 7.6 0 0 0-7.602 7.601v4.477h-4.476a7.6 7.6 0 0 0-7.602 7.601 7.6 7.6 0 0 0 7.602 7.602h4.476v4.476a7.6 7.6 0 0 0 7.602 7.602 7.6 7.6 0 0 0 7.601-7.602v-4.476h4.477a7.6 7.6 0 0 0 7.601-7.602 7.6 7.6 0 0 0-7.601-7.601zm0 0" fill="#fff75b"></path><path d="M403.266 71.832h-4.48v-4.48a7.603 7.603 0 0 0-15.203 0v4.48h-4.478a7.6 7.6 0 1 0 0 15.2h4.477v4.48a7.603 7.603 0 0 0 15.203 0v-4.48h4.48a7.603 7.603 0 0 0 7.602-7.602c0-4.196-3.406-7.598-7.601-7.598zm0 0" fill="#ffffff"></path><path d="M81.578 50.785a7.6 7.6 0 0 1-7.601-7.601v-24.16c0-4.2 3.402-7.602 7.601-7.602s7.602 3.402 7.602 7.601v24.16a7.6 7.6 0 0 1-7.602 7.602zm0 0" fill="#ff73b1"></path><path d="M93.656 38.707H69.5c-4.2 0-7.602-3.402-7.602-7.602s3.403-7.601 7.602-7.601h24.156c4.2 0 7.602 3.402 7.602 7.601s-3.403 7.602-7.602 7.602zm0 0" fill="#ff73b1"></path><g fill="#fff"><path d="M87.059 328.188h-4.477v-4.477a7.603 7.603 0 0 0-15.203 0v4.476h-4.48a7.603 7.603 0 0 0 0 15.204h4.48v4.476a7.603 7.603 0 0 0 15.203 0v-4.476h4.477a7.6 7.6 0 0 0 7.601-7.602 7.6 7.6 0 0 0-7.601-7.601zM296.012 262.375c0 5.04-4.082 9.121-9.121 9.121s-9.121-4.082-9.121-9.121 4.082-9.121 9.12-9.121 9.122 4.082 9.122 9.121zM261.215 107.063a9.122 9.122 0 0 1-18.242 0 9.119 9.119 0 0 1 9.12-9.122 9.122 9.122 0 0 1 9.122 9.121zM326.754 372.242a9.119 9.119 0 0 1-9.121 9.121 9.122 9.122 0 1 1 9.12-9.12zm0 0" fill="#ffffff"></path></g><path d="M57.156 203.574a9.122 9.122 0 0 1-18.242 0c0-5.039 4.082-9.125 9.121-9.125 5.04 0 9.121 4.086 9.121 9.125zm0 0" fill="#6831ff"></path><path d="M476.758 212.695a9.119 9.119 0 0 1-9.121 9.121 9.119 9.119 0 0 1-9.121-9.12 9.119 9.119 0 0 1 9.12-9.122 9.119 9.119 0 0 1 9.122 9.121zm0 0" fill="#000000"></path></g></svg>