<svg viewBox="0 0 512 512" xmlns="http://www.w3.org/2000/svg"><g><path d="M484.262 215.41c-6-4.933-15.07-12.39-16.106-16.262-1.16-4.347 2.918-15.28 5.895-23.265 5.765-15.469 12.304-33.004 3.672-47.926-8.739-15.102-27.352-18.2-43.778-20.934-7.824-1.304-19.648-3.273-22.672-6.296-3.023-3.024-4.992-14.848-6.296-22.672-2.735-16.426-5.836-35.04-20.938-43.778-14.914-8.632-32.453-2.093-47.926 3.672-7.98 2.977-18.918 7.047-23.261 5.89-3.872-1.034-11.329-10.105-16.266-16.105C285.898 14.738 273.78 0 256 0s-29.898 14.738-40.59 27.738c-4.933 6-12.39 15.07-16.262 16.106-4.351 1.156-15.28-2.918-23.265-5.895-15.469-5.765-33.004-12.304-47.926-3.672-15.102 8.739-18.2 27.352-20.934 43.778-1.304 7.824-3.273 19.648-6.296 22.672-3.024 3.023-14.848 4.992-22.672 6.296-16.426 2.735-35.04 5.836-43.778 20.938-8.632 14.918-2.093 32.453 3.672 47.926 2.977 7.98 7.051 18.918 5.89 23.261-1.034 3.872-10.105 11.329-16.105 16.266C14.738 226.102 0 238.22 0 256s14.738 29.898 27.738 40.59c6 4.933 15.07 12.39 16.106 16.262 1.16 4.347-2.918 15.28-5.895 23.265-5.765 15.469-12.304 33.004-3.672 47.926 8.739 15.102 27.352 18.2 43.778 20.934 7.824 1.304 19.648 3.273 22.672 6.296 3.023 3.024 4.992 14.848 6.296 22.672 2.735 16.426 5.836 35.04 20.938 43.778 14.914 8.632 32.453 2.093 47.926-3.672 7.98-2.977 18.922-7.047 23.261-5.89 3.872 1.034 11.329 10.105 16.266 16.105C226.102 497.262 238.22 512 256 512s29.898-14.738 40.59-27.738c4.933-6 12.39-15.07 16.262-16.106 4.351-1.152 15.28 2.918 23.265 5.895 15.469 5.761 33.004 12.304 47.926 3.672 15.102-8.739 18.2-27.352 20.934-43.778 1.304-7.824 3.273-19.648 6.296-22.672 3.024-3.023 14.848-4.992 22.672-6.296 16.426-2.735 35.04-5.836 43.778-20.938 8.632-14.918 2.093-32.453-3.672-47.926-2.977-7.98-7.051-18.918-5.89-23.261 1.034-3.872 10.105-11.329 16.105-16.266C497.262 285.898 512 273.78 512 256s-14.738-29.898-27.738-40.59zm0 0" fill="#00ee8a"></path><path d="M373.758 191.355c-1.488-10.414-6.942-19.628-15.36-25.937-8.414-6.313-18.785-8.969-29.199-7.484-10.414 1.488-19.625 6.945-25.937 15.359l-61.371 81.824-26.965-26.965c-15.356-15.355-40.34-15.355-55.7 0-15.355 15.356-15.355 40.344 0 55.7l59.079 59.074c7.437 7.441 17.328 11.535 27.847 11.535a39.35 39.35 0 0 0 31.508-15.754l88.617-118.152c6.313-8.418 8.97-18.785 7.48-29.2zm0 0" fill="#00aa63"></path><path d="M484.262 215.41c-6-4.933-15.07-12.39-16.106-16.262-1.16-4.347 2.918-15.28 5.895-23.265 5.765-15.469 12.304-33.004 3.672-47.926-8.739-15.102-27.352-18.2-43.778-20.934-7.824-1.304-19.648-3.273-22.672-6.296-3.023-3.024-4.992-14.848-6.296-22.672-2.735-16.426-5.836-35.04-20.938-43.778-14.914-8.632-32.453-2.093-47.926 3.672-7.98 2.977-18.918 7.047-23.261 5.89-3.872-1.034-11.329-10.105-16.266-16.105C285.898 14.738 273.78 0 256 0v512c17.781 0 29.898-14.738 40.59-27.738 4.933-6 12.39-15.07 16.262-16.106 4.351-1.152 15.28 2.918 23.265 5.895 15.469 5.761 33.004 12.304 47.926 3.672 15.102-8.739 18.2-27.352 20.934-43.778 1.304-7.824 3.273-19.648 6.296-22.672 3.024-3.023 14.848-4.992 22.672-6.296 16.426-2.735 35.04-5.836 43.778-20.938 8.632-14.918 2.093-32.453-3.672-47.926-2.977-7.98-7.051-18.918-5.89-23.261 1.034-3.872 10.105-11.329 16.105-16.266C497.262 285.898 512 273.78 512 256s-14.738-29.898-27.738-40.59zm0 0" fill="#00cc76"></path><path d="M373.758 191.355c-1.488-10.414-6.942-19.628-15.36-25.937-8.414-6.313-18.785-8.969-29.199-7.484-10.414 1.488-19.625 6.945-25.937 15.359L256 236.309v116.89a39.328 39.328 0 0 0 21.66-14.488l88.617-118.156c6.313-8.418 8.97-18.785 7.48-29.2zm0 0" fill="#009959"></path></g></svg>