<svg viewBox="0 0 512 512" xmlns="http://www.w3.org/2000/svg"><g><path d="M394.378 465.692H117.622c-14.854 0-26.896-12.042-26.896-26.896V148.757C90.726 66.601 157.327 0 239.483 0h33.033c82.156 0 148.757 66.601 148.757 148.757v290.039c.001 14.855-12.041 26.896-26.895 26.896z" fill="#e49542"></path><path d="M272.517 0h-31.201c82.156 0 148.757 66.601 148.757 148.757v290.039c0 14.854-12.042 26.896-26.896 26.896h31.201c14.854 0 26.896-12.042 26.896-26.896V148.757C421.274 66.601 354.673 0 272.517 0z" fill="#e27d47"></path><path d="M303.152 347.718h-94.303c-38.542 0-69.786 31.244-69.786 69.786v85.608a8.888 8.888 0 0 0 8.888 8.888H364.05a8.888 8.888 0 0 0 8.888-8.888v-85.608c0-38.542-31.244-69.786-69.786-69.786z" fill="#ffe07d"></path><path d="M303.152 347.718h-34.004c38.542 0 69.786 31.244 69.786 69.786v85.608a8.888 8.888 0 0 1-8.888 8.888h34.004a8.888 8.888 0 0 0 8.888-8.888v-85.608c0-38.542-31.244-69.786-69.786-69.786z" fill="#ffd064"></path><path d="m275.45 296.259-37.314-2.195c-9.527 0-9.945 44.635-9.945 44.635v27.325c0 15.344 12.439 27.784 27.784 27.784 15.344 0 27.784-12.439 27.784-27.784V338.7c-.001 0 1.218-42.441-8.309-42.441z" fill="#eaac9d"></path><path d="M256 347.718c-74.046 0-134.073-60.026-134.073-134.072v-81.091a3.529 3.529 0 0 1 3.53-3.522c62.052-.114 116.894-9.002 165.813-40.613 1.462-.944 3.415-.643 4.462.747 22.091 29.327 52.22 37.443 90.826 39.677a3.716 3.716 0 0 1 3.514 3.703v81.1c0 74.044-60.026 134.071-134.072 134.071z" fill="#ffcbbe"></path><path d="M386.559 128.843c-11.36-.657-21.98-1.831-31.883-3.898v88.7c0 68.046-50.694 124.246-116.374 132.908A135.265 135.265 0 0 0 256 347.717c74.046 0 134.072-60.026 134.072-134.072v-81.1a3.716 3.716 0 0 0-3.513-3.702z" fill="#eaac9d"></path><ellipse cx="199.073" cy="204.81" fill="#f6f9f9" rx="22.256" ry="24.316"></ellipse><path d="M199.073 215.261a7.725 7.725 0 0 1-7.726-7.726v-5.448a7.726 7.726 0 1 1 15.452 0v5.448a7.725 7.725 0 0 1-7.726 7.726z" fill="#365e7d"></path><ellipse cx="312.927" cy="204.81" fill="#f6f9f9" rx="22.256" ry="24.316"></ellipse><path d="M312.927 215.261a7.725 7.725 0 0 1-7.726-7.726v-5.448a7.725 7.725 0 0 1 7.726-7.726 7.725 7.725 0 0 1 7.726 7.726v5.448a7.725 7.725 0 0 1-7.726 7.726z" fill="#365e7d"></path><path d="M317.884 272.488H194.116c-6.6 0-11.951-5.35-11.951-11.951 0-6.6 5.35-11.951 11.951-11.951h123.767c6.6 0 11.951 5.35 11.951 11.951 0 6.6-5.35 11.951-11.95 11.951z" fill="#efa5c3"></path><path d="M294.689 293.607h-77.377a7.726 7.726 0 1 1 0-15.452h77.377a7.726 7.726 0 1 1 0 15.452z" fill="#da4a54"></path><path d="M368.135 113.75c0 16.32-13.23 29.55-29.55 29.55s-29.55-13.23-29.55-29.55 13.23-42.942 29.55-42.942c16.321 0 29.55 26.622 29.55 42.942z" fill="#80b4fb"></path><path d="M338.586 70.808c-3.984 0-7.781 1.595-11.25 4.23 10.739 8.162 18.3 26.376 18.3 38.712s-7.561 22.901-18.3 27.327a29.461 29.461 0 0 0 11.25 2.223c16.32 0 29.55-13.23 29.55-29.55s-13.231-42.942-29.55-42.942z" fill="#61a2f9"></path></g></svg>