<svg viewBox="0 0 512 512" xmlns="http://www.w3.org/2000/svg"><g><path d="m438.237 138.847 43.39 43.39H334.102v-52.068H256V43.39h130.169v52.068h95.458z" fill="#285680"></path><path d="M256 43.39h130.169v86.78H256z" fill="#4482c3"></path><path d="m386.169 130.169-52.067 52.068v-52.068z" fill="#2c3e50"></path><path d="M507.661 512H4.339l4.165-9.98 68.122-162.278 16.922-40.353v-.087l19.178-45.646a17.188 17.188 0 0 1 15.967-10.674h254.612c2.745.014 5.449.668 7.897 1.909a17.331 17.331 0 0 1 8.07 8.765l65.172 155.249 8.331 19.873L507.661 512z" fill="#71c285"></path><path d="M464.445 408.906C419.84 490.392 285.852 510.525 275.786 512h73.416c42.696-14.319 94.069-39.745 123.574-83.222l-8.331-19.872zM222.677 242.983h-45.299a391.517 391.517 0 0 0-83.829 56.32v.087l-16.922 40.353a369.28 369.28 0 0 1 146.05-96.76zM386.169 364.475c0-25.167-19.2-47.665-50.497-62.018a147.569 147.569 0 0 1 55.53-57.564 17.665 17.665 0 0 0-7.897-1.909h-20.22a160.092 160.092 0 0 0-43.706 53.104 188.293 188.293 0 0 0-27.211-6.719 8.68 8.68 0 0 0-9.596 11.57 8.68 8.68 0 0 0 6.68 5.54c46.848 7.966 79.56 31.814 79.56 57.996 0 32.928-51.661 60.746-112.814 60.746s-112.814-27.818-112.814-60.746c0-26.182 32.712-50.03 79.56-57.996a8.68 8.68 0 0 0 5.222-14.095 8.677 8.677 0 0 0-8.138-3.015c-56.221 9.559-94 39.742-94 75.106 0 28.197 23.775 52.397 60.137 66.103-45.63 37.94-151.074 65.186-177.463 71.442L4.339 512h35.493c46.758-12.882 129.33-39.498 165.163-75.441A211.948 211.948 0 0 0 256 442.576c72.991 0 130.169-34.305 130.169-78.101z" fill="#4c8056"></path><ellipse cx="256" cy="364.475" fill="#4c8056" rx="43.39" ry="26.034"></ellipse><path d="M256 364.475a8.677 8.677 0 0 1-8.678-8.678V8.678A8.678 8.678 0 0 1 256 0a8.678 8.678 0 0 1 8.678 8.678v347.119a8.677 8.677 0 0 1-8.678 8.678z" fill="#95a5a5"></path></g></svg>