<svg viewBox="0 0 64 64" xmlns="http://www.w3.org/2000/svg"><g><path d="M34.398 20.5a1 1 0 0 1-1-1V9a1 1 0 0 1 1-1h7.584a2 2 0 0 1 1.977 2.311c-.919 4.078-3.563 7.405-7.268 9.192l-1.858.897a.993.993 0 0 1-.435.1zm1-10.509v7.916l.424-.204a11.355 11.355 0 0 0 6.173-7.767zM29.602 20.5a.996.996 0 0 1-.435-.1l-1.858-.896a13.34 13.34 0 0 1-7.255-9.128c-.104-.643.063-1.229.443-1.675S21.432 8 22.018 8h7.584a1 1 0 0 1 1 1v10.5a1 1 0 0 1-1 1zM22.018 10c.758 3.352 3.008 6.183 6.16 7.703l.424.204V10z" fill="#dc9600"></path><path d="M25 5v8.464c0 2.264.899 4.435 2.5 6.036a8.536 8.536 0 0 1 2.5 6.036V28h4v-2.725c0-2.109.781-4.143 2.191-5.71l.118-.131a8.532 8.532 0 0 0 2.191-5.71V5z" fill="#fab400"></path><path d="m32.661 9.324.578.73c.092.116.21.205.344.261l.879.364c.507.21.697.852.39 1.321l-.485.74a.91.91 0 0 0-.147.459l-.04.954c-.024.577-.566.976-1.1.81l-.834-.259a.826.826 0 0 0-.492 0l-.834.259c-.534.166-1.076-.233-1.1-.81l-.04-.954a.91.91 0 0 0-.147-.459l-.485-.74c-.307-.468-.117-1.111.39-1.321l.879-.364a.854.854 0 0 0 .344-.261l.578-.73a.836.836 0 0 1 1.322 0z" fill="#f0f0f0"></path><path d="M26 27.5h12V30H26z" fill="#dc9600"></path><path d="M53 42h3V27.5a1.5 1.5 0 0 0-3 0zM41 52.1h2V60h-2z" fill="#f0c8a0"></path><path d="M56 39v21H43v-7.9h-2V50c0-2.21 1.79-4 4-4h5v-7z" fill="#f0f0f0"></path><path d="M54 42.24V47c0 .55-.45 1-1 1h-2.04c-.56.38-1.23.6-1.96.6s-1.4-.22-1.96-.6H45c-.55 0-1-.45-1-1v-.87c.32-.09.65-.13 1-.13h5v-7h2.9c.69.9 1.1 2.04 1.1 3.24zM42 52.101h1V50a1 1 0 0 0-1 1z" fill="#d2d2d2"></path><path d="M42 52.1h1V60h-1z" fill="#d2aa82"></path><path d="M11 42H8V27.5a1.5 1.5 0 0 1 3 0zM21 52.1h2V60h-2z" fill="#f0c8a0"></path><path d="M8 39v21h13v-7.9h2V50c0-2.21-1.79-4-4-4h-5v-7z" fill="#00a0c8"></path><path d="M19.5 47.15c.29.17.5.48.5.85v2c0 .55-.45 1-1 1s-1-.45-1-1v-2c0-.31.15-.57.37-.76l-.57-.06c-.63.86-1.65 1.42-2.8 1.42-1.43 0-2.66-.86-3.2-2.09-.38-.05-.18-.02-.91-.11-.51-.06-.89-.49-.89-.99V42c0-1.13.37-2.17 1-3h3v7h5c.35 0 .68.04 1 .13v.17c0 .38-.21.68-.5.85zM22 52.101h-1V50a1 1 0 0 1 1 1z" fill="#0082aa"></path><path d="M21 52.1h1V60h-1z" fill="#d2aa82"></path><path d="M27.5 44h-3V28.5a1.5 1.5 0 0 1 3 0zM36.5 44h3V28.5a1.5 1.5 0 0 0-3 0z" fill="#f0c8a0"></path><path d="M36.5 41h3v9h-3zM24.5 41h3v9h-3z" fill="#c80a50"></path><path d="M24.5 44h15v16h-15z" fill="#c80a50"></path><path d="M37.5 44.5c0 .83-.67 1.5-1.5 1.5 0 2.21-1.79 4-4 4s-4-1.79-4-4c-.83 0-1.5-.67-1.5-1.5 0-.18.03-.34.09-.5h10.82c.06.16.09.32.09.5z" fill="#a00028"></path><path d="M20 41.243v4.06c0 .6-.52 1.06-1.11 1l-.42-.05-6.97-.78-.61-.07c-.51-.06-.89-.49-.89-.99v-3.41a5 5 0 0 1 4.82-5c2.85-.1 5.18 2.39 5.18 5.24z" fill="#0a5078"></path><path d="M19 50a1 1 0 0 1-1-1v-2a1 1 0 0 1 2 0v2a1 1 0 0 1-1 1z" fill="#0a5078"></path><path d="M15 47.601a3.5 3.5 0 0 0 3.5-3.5V41.5a1 1 0 0 0-1-1h-5a1 1 0 0 0-1 1v2.601a3.5 3.5 0 0 0 3.5 3.5z" fill="#f0c8a0"></path><path d="M13 44.101a2 2 0 1 0 4 0z" fill="#c80a50"></path><circle cx="17" cy="42.101" fill="#0a5078" r=".5"></circle><circle cx="13" cy="42.101" fill="#0a5078" r=".5"></circle><path d="M15 43.601a.5.5 0 0 0 .5-.5v-1a.5.5 0 0 0-1 0v1a.5.5 0 0 0 .5.5z" fill="#d2aa82"></path><path d="M54 41.243V46a1 1 0 0 1-1 1h-8a1 1 0 0 1-1-1v-4.997a5 5 0 0 1 4.82-5c2.85-.1 5.18 2.39 5.18 5.24z" fill="#0a5078"></path><path d="M49 47.601a3.5 3.5 0 0 0 3.5-3.5V41.5a1 1 0 0 0-1-1h-5a1 1 0 0 0-1 1v2.601a3.5 3.5 0 0 0 3.5 3.5z" fill="#f0c8a0"></path><path d="M47 44.101a2 2 0 1 0 4 0z" fill="#c80a50"></path><circle cx="51" cy="42.101" fill="#0a5078" r=".5"></circle><circle cx="47" cy="42.101" fill="#0a5078" r=".5"></circle><path d="M49 43.601a.5.5 0 0 0 .5-.5v-1a.5.5 0 0 0-1 0v1a.5.5 0 0 0 .5.5z" fill="#d2aa82"></path><path d="M32 49a4 4 0 0 0 4-4v-5.5h-8V45a4 4 0 0 0 4 4z" fill="#f0c8a0"></path><path d="M29 41h-1v4a1 1 0 0 0 1-1zM36 41h-1v3a1 1 0 0 0 1 1z" fill="#d2aa82"></path><path d="M36 41.5h-4v-2a2 2 0 1 1 4 0zM32 41.5h-4v-2a2 2 0 1 1 4 0z" fill="#0a5078"></path><path d="M36 42v3a1.5 1.5 0 0 0 0-3zM26.5 43.5A1.5 1.5 0 0 0 28 45v-3a1.5 1.5 0 0 0-1.5 1.5z" fill="#f0c8a0"></path><path d="M30 45a2 2 0 1 0 4 0z" fill="#c80a50"></path><circle cx="34" cy="43.101" fill="#0a5078" r=".5"></circle><circle cx="30" cy="43.101" fill="#0a5078" r=".5"></circle><path d="M32 44.5a.5.5 0 0 0 .5-.5v-1a.5.5 0 0 0-1 0v1a.5.5 0 0 0 .5.5z" fill="#d2aa82"></path><path d="M23.75 5a1 1 0 0 0 1 1h14.5a1 1 0 0 0 0-2h-14.5a1 1 0 0 0-1 1z" fill="#dc9600"></path><path d="M51 11h-2a1 1 0 1 0 0 2h2a1 1 0 1 0 0-2z" fill="#fab400"></path><path d="m47.707 6.293-1.414 1.415a.999.999 0 1 0 1.414 1.414l1.414-1.415a.999.999 0 1 0-1.414-1.414z" fill="#00a0c8"></path><path d="M46.293 14.879a.999.999 0 0 0 0 1.414l1.414 1.414a.999.999 0 1 0 1.414-1.414l-1.414-1.414a.999.999 0 0 0-1.414 0z" fill="#c80a50"></path><path d="M13 11h2a1 1 0 1 1 0 2h-2a1 1 0 1 1 0-2z" fill="#fab400"></path><path d="m16.293 6.293 1.414 1.415a.999.999 0 1 1-1.414 1.414l-1.414-1.415a.999.999 0 1 1 1.414-1.414z" fill="#00a0c8"></path><path d="M17.707 14.879a.999.999 0 0 1 0 1.414l-1.414 1.414a.999.999 0 1 1-1.414-1.414l1.414-1.414a.999.999 0 0 1 1.414 0z" fill="#c80a50"></path></g></svg>