<svg viewBox="0 0 512 512" xmlns="http://www.w3.org/2000/svg"><g><path d="M63.111 262.329v27.453a.05.05 0 0 1-.049.049l-31.507 18.844L.049 289.831a.05.05 0 0 1-.049-.049v-26.768c0-17.269 13.585-31.855 30.849-32.233 8.988-.197 17.15 3.373 23.016 9.238 5.712 5.712 9.246 13.601 9.246 22.31z" fill="#ffccbd"></path><path d="m245.23 367.495-12.49-29.265h-7.47c-16.93 0-33.2 2.88-48.33 8.18l-.25.09-113.51 40.63c-.03-.02-.04-.03-.07-.05v-97.2c0-.03-.02-.05-.05-.05H.05c-.03 0-.05.02-.05.05v114.15c0 38.38 37.97 65.21 74.14 52.38l43.12-13.66c.03.02.03.03.06.04l-.81 53.98c-.13 8.38 6.62 15.23 15 15.23l101.23-.02 12.49-27.093z" fill="#7ee780"></path><path d="M356.73 447.29v49.66c0 8.29-6.71 15-15 15l-18.58.005-15-23.096-15 23.104-60.41.017V338.23h14.93c60.23 0 109.06 48.83 109.06 109.06z" fill="#00cb71"></path><path d="m241.667 217.667-8.937-23.927c-34.37 0-61.93 28.544-61.93 62.91v19.78c0 34.21 27.72 61.95 61.93 61.98l8.937-21.077z" fill="#ffccbd"></path><path d="M294.67 255.67v20.81c0 34.11-27.59 61.79-61.67 61.93h-.27V193.74c34.12-.01 61.94 27.63 61.94 61.93z" fill="#ffb4a2"></path><path d="M323.15 444.99V512h-30v-67.01c0-8.29 6.71-15 15-15 8.28 0 15 6.71 15 15z" fill="#00aa5e"></path><path d="M512 41.48v88.84c0 22.84-18.59 41.43-41.43 41.43h-49.15l-70.33 69.85c-9.465 9.398-25.65 2.685-25.65-10.67v-59.18h-18.57c-22.84 0-41.43-18.59-41.43-41.43V41.48C265.44 18.61 284.05 0 306.92 0h163.6C493.39 0 512 18.61 512 41.48z" fill="#7995ff"></path><path d="M457 100.87h-43.28c-8.284 0-15-6.716-15-15s6.716-15 15-15H457c8.284 0 15 6.716 15 15s-6.716 15-15 15zM363.72 100.87h-43.28c-8.284 0-15-6.716-15-15s6.716-15 15-15h43.28c8.284 0 15 6.716 15 15s-6.716 15-15 15z" fill="#d0e8ff"></path></g></svg>