<svg viewBox="0 0 480 480.004" xmlns="http://www.w3.org/2000/svg"><g><path d="M424.004 119.5h-96c-33.281 6.45-56 19.281-56 34.105 0 21.2 46.558 38.399 104 38.399 57.437 0 104-17.207 104-38.399 0-14.824-22.723-27.656-56-34.105zm0 0" fill="#cfcfcf"></path><path d="M424.004 407.5h-96c-33.281 6.45-56 19.281-56 34.105 0 21.2 46.558 38.399 104 38.399 57.437 0 104-17.207 104-38.399 0-14.824-22.723-27.656-56-34.105zm0 0" fill="#495867"></path><path d="M152.004 239.5h-96c-33.281 6.45-56 19.281-56 34.105 0 21.2 46.559 38.399 104 38.399 57.437 0 104-17.207 104-38.399 0-14.824-22.723-27.656-56-34.105zm0 0" fill="#577399"></path><g fill="#a7bccf"><path d="M208.004.004h16v16h-16zM208.004 32.004h16v16h-16zM208.004 64.004h16v16h-16zM208.004 96.004h16v16h-16zM208.004 128.004h16v16h-16zM208.004 160.004h16v16h-16zM208.004 192.004h16v16h-16zM240.004 208.004h16v16h-16zM272.004 240.004h16v16h-16zM304.004 240.004h16v16h-16zM336.004 240.004h16v16h-16zM368.004 240.004h16v16h-16zM400.004 240.004h16v16h-16zM432.004 240.004h16v16h-16zM464.004 240.004h16v16h-16zM240.004 240.004h16v16h-16zM240.004 272.004h16v16h-16zM240.004 304.004h16v16h-16zM240.004 336.004h16v16h-16zM208.004 336.004h16v16h-16zM176.004 336.004h16v16h-16zM144.004 336.004h16v16h-16zM112.004 336.004h16v16h-16zM112.004 368.004h16v16h-16zM112.004 400.004h16v16h-16zM80.004 400.004h16v16h-16zM48.004 400.004h16v16h-16zM48.004 432.004h16v16h-16zM48.004 464.004h16v16h-16zm0 0" fill="#a7bccf"></path></g><path d="m376.004 71.02-20.961-16c-14.93 0-27.04 12.105-27.04 27.039v68.96h96V82.06c0-14.926-12.105-27.04-27.042-27.04zm0 0" fill="#bdd5ea"></path><path d="m355.043 56.004 20.96 16 20.958-16c8.504-7.43 13.176-19.129 10.074-31.91-2.777-11.418-12.105-20.649-23.562-23.25-20.918-4.727-39.47 11.047-39.47 31.16 0 9.617 4.329 18.137 11.04 24zm0 0" fill="#ffdbac"></path><path d="m376.004 72.004-16 24 16 32 16-32zm0 0" fill="#577399"></path><path d="m376.004 359.02-20.961-16c-14.93 0-27.04 12.105-27.04 27.039v68.96h96v-68.96c0-14.926-12.105-27.04-27.042-27.04zm0 0" fill="#bdd5ea"></path><path d="m355.043 344.004 20.96 16 20.958-16c8.504-7.43 13.176-19.129 10.074-31.91-2.777-11.418-12.105-20.649-23.562-23.25-20.918-4.727-39.47 11.047-39.47 31.16 0 9.617 4.329 18.137 11.04 24zm0 0" fill="#ffdbac"></path><path d="m376.004 360.004-16 24 16 32 16-32zm0 0" fill="#577399"></path><path d="m104.004 191.02-20.961-16c-14.93 0-27.04 12.105-27.04 27.039v68.96h96v-68.96c0-14.926-12.105-27.04-27.042-27.04zm0 0" fill="#bdd5ea"></path><path d="m83.043 176.004 20.96 16 20.958-16c8.504-7.43 13.176-19.129 10.074-31.91-2.777-11.418-12.105-20.649-23.562-23.25-20.918-4.727-39.47 11.047-39.47 31.16 0 9.617 4.329 18.137 11.04 24zm0 0" fill="#ffdbac"></path><path d="m104.004 192.004-16 24 16 32 16-32zm0 0" fill="#577399"></path></g></svg>