<svg viewBox="0 0 497 497" xmlns="http://www.w3.org/2000/svg"><g><path d="m94.441 278.994-71.728 68.251L179.991 415.5 244.3 313.957z" fill="#bed0e0"></path><path d="M351.436 445.318 488.151 210.43c5.625-9.619 8.849-20.814 8.849-32.762 0-35.897-29.1-64.998-64.998-64.998-7.962 0-17.448 2.547-24.497 5.167L294.5 212.5l-58.874 111.308z" fill="#bed0e0"></path><path d="M432.003 112.671c-6.124 0-13.145 1.508-19.27 3.396C438.461 124.723 457 149.022 457 177.668c0 11.948-3.224 23.142-8.849 32.762l-121.55 208.831 24.834 26.056L488.151 210.43c5.625-9.62 8.849-20.814 8.849-32.762 0-35.897-29.1-64.997-64.997-64.997z" fill="#aec2d4"></path><path d="m251.257 305.956 167.794-202.019h.001c8.133-10.853 12.951-24.334 12.951-38.94C432.002 29.1 402.902 0 367.005 0c-17.102 0-32.661 6.605-44.266 17.403l.003.003-201.201 165.163z" fill="#bed0e0"></path><path d="M367.005 0a64.901 64.901 0 0 0-19.993 3.152c26.105 8.439 44.991 32.931 44.991 61.846 0 14.606-4.818 28.086-12.951 38.939h-.001l-150.14 180.764 22.346 21.255 167.794-202.019h.001c8.133-10.853 12.951-24.333 12.951-38.939C432.003 29.1 402.902 0 367.005 0z" fill="#aec2d4"></path><circle cx="179.991" cy="251.001" fill="#e8f4ff" r="89.995"></circle><ellipse cx="179.991" cy="251.001" fill="#889aa8" rx="64.996" ry="64.995" transform="rotate(-80.8 179.946 251.018)"></ellipse><path d="M179.991 186.005a64.736 64.736 0 0 0-20 3.162c26.08 8.456 44.995 32.972 44.995 61.833s-18.915 53.377-44.995 61.833a64.736 64.736 0 0 0 20 3.162c35.839 0 64.996-29.157 64.996-64.996-.001-35.837-29.157-64.994-64.996-64.994z" fill="#768a99"></path><circle cx="89.995" cy="407.004" fill="#e8f4ff" r="89.995"></circle><ellipse cx="89.995" cy="407.004" fill="#889aa8" rx="64.996" ry="64.995" transform="rotate(-80.8 89.93 407.002)"></ellipse><path d="M89.995 342.009a64.736 64.736 0 0 0-20 3.162c26.08 8.457 44.995 32.972 44.995 61.833s-18.915 53.377-44.995 61.833a64.736 64.736 0 0 0 20 3.162c35.839 0 64.996-29.157 64.996-64.996s-29.157-64.994-64.996-64.994z" fill="#768a99"></path><circle cx="269.987" cy="407.004" fill="#e8f4ff" r="89.995"></circle><ellipse cx="269.987" cy="407.004" fill="#889aa8" rx="64.995" ry="64.996" transform="rotate(-22.48 269.976 406.58)"></ellipse><path d="M269.987 342.009a64.736 64.736 0 0 0-20 3.162c26.08 8.457 44.995 32.972 44.995 61.833s-18.915 53.377-44.995 61.833a64.736 64.736 0 0 0 20 3.162c35.838 0 64.995-29.157 64.995-64.996s-29.157-64.994-64.995-64.994z" fill="#768a99"></path></g></svg>