<svg viewBox="0 0 64 64" xmlns="http://www.w3.org/2000/svg"><g><path d="m63 32-10.71 5.441 6.558 10.065-11.999-.656.657 11.999L37.44 52.29 32 63l-5.441-10.71-10.065 6.558.656-11.999-11.999.657L11.71 37.44 1 32l10.71-5.441-6.558-10.065 11.999.656-.657-11.999L26.56 11.71 32 1l5.441 10.71 10.065-6.558-.656 11.999 11.999-.657L52.29 26.56z" fill="#fac437"></path><path d="M40.5 44H35a3 3 0 1 1 0-6h5.5c.827 0 1.5-.673 1.5-1.5s-.673-1.5-1.5-1.5h-1c-4.136 0-7.5-3.364-7.5-7.5s3.364-7.5 7.5-7.5H45a3 3 0 1 1 0 6h-5.5c-.827 0-1.5.673-1.5 1.5s.673 1.5 1.5 1.5h1c4.136 0 7.5 3.364 7.5 7.5S44.636 44 40.5 44z" fill="#ba2140"></path><path d="M26 44a3.001 3.001 0 0 1-2.796-1.913l-6.999-17.998a3 3 0 0 1 5.592-2.175l4.204 10.81 4.204-10.81a3 3 0 0 1 5.592 2.175l-6.999 17.998A3 3 0 0 1 26.002 44zM11 7H9V5a1 1 0 1 0-2 0v2H5a1 1 0 1 0 0 2h2v2a1 1 0 1 0 2 0V9h2a1 1 0 1 0 0-2zM59 55h-2v-2a1 1 0 1 0-2 0v2h-2a1 1 0 1 0 0 2h2v2a1 1 0 1 0 2 0v-2h2a1 1 0 1 0 0-2z" fill="#e6294f"></path><g fill="#2564c4"><path d="m56.414 7.879 1.414-1.414a.999.999 0 1 0-1.414-1.414L55 6.465l-1.414-1.414a.999.999 0 1 0-1.414 1.414l1.414 1.414-1.414 1.414a.999.999 0 1 0 1.414 1.414L55 9.293l1.414 1.414a.997.997 0 0 0 1.414 0 .999.999 0 0 0 0-1.414zM9.535 56.121l1.414-1.414a.999.999 0 1 0-1.414-1.414l-1.414 1.414-1.414-1.414a.999.999 0 1 0-1.414 1.414l1.414 1.414-1.414 1.414a.999.999 0 1 0 1.414 1.414l1.414-1.414 1.414 1.414a.997.997 0 0 0 1.414 0 .999.999 0 0 0 0-1.414z" fill="#2564c4"></path></g></g></svg>