<svg viewBox="0 0 64 64" xmlns="http://www.w3.org/2000/svg"><g><path d="M44 60H12a4 4 0 0 1-4-4V12a4 4 0 0 1 4-4h32a4 4 0 0 1 4 4v44a4 4 0 0 1-4 4z" fill="#0a5078"></path><path d="M36 36c0 6.627 5.373 12 12 12V24c-6.627 0-12 5.373-12 12z" fill="#00325a"></path><path d="M44 59H12a2 2 0 0 1-2-2V13a2 2 0 0 1 2-2h32a2 2 0 0 1 2 2v44a2 2 0 0 1-2 2z" fill="#00325a"></path><path d="M44 58H12a2 2 0 0 1-2-2V12a2 2 0 0 1 2-2h32a2 2 0 0 1 2 2v44a2 2 0 0 1-2 2z" fill="#f0f0f0"></path><path d="M46 24.167c-5.675.952-10 5.887-10 11.833s4.325 10.881 10 11.833zM34 9V8a3 3 0 0 0-3-3h-6a3 3 0 0 0-3 3v1h-2a2 2 0 0 0-2 2v2a2 2 0 0 0 2 2h16a2 2 0 0 0 2-2v-2a2 2 0 0 0-2-2z" fill="#d2d2d2"></path><path d="M34 8V7a3 3 0 0 0-3-3h-6a3 3 0 0 0-3 3v1h-2a2 2 0 0 0-2 2v2a2 2 0 0 0 2 2h16a2 2 0 0 0 2-2v-2a2 2 0 0 0-2-2z" fill="#fab400"></path><circle cx="21" cy="11" fill="#be7800" r="1"></circle><circle cx="35" cy="11" fill="#be7800" r="1"></circle><circle cx="18" cy="20" fill="#d2d2d2" r="4"></circle><path d="M41 21H25a1 1 0 0 1 0-2h16a1 1 0 0 1 0 2z" fill="#d2d2d2"></path><circle cx="18" cy="30" fill="#d2d2d2" r="4"></circle><path d="M41 31H25a1 1 0 0 1 0-2h16a1 1 0 0 1 0 2z" fill="#d2d2d2"></path><circle cx="18" cy="40" fill="#d2d2d2" r="4"></circle><path d="M41 41H25a1 1 0 0 1 0-2h16a1 1 0 0 1 0 2z" fill="#d2d2d2"></path><circle cx="18" cy="50" fill="#d2d2d2" r="4"></circle><path d="M41 51H25a1 1 0 0 1 0-2h16a1 1 0 0 1 0 2z" fill="#d2d2d2"></path><circle cx="48" cy="35" fill="#c80a50" r="12"></circle><circle cx="48" cy="35" fill="#f0f0f0" r="10"></circle><path d="M54 34h-5v-5a1 1 0 0 0-2 0v6a1 1 0 0 0 1 1h6a1 1 0 0 0 0-2z" fill="#0a5078"></path><circle cx="48" cy="35" fill="#c80a50" r="2"></circle><g fill="#00a0c8"><path d="M48 25c-.338 0-.671.017-1 .05V26a1 1 0 0 0 2 0v-.95c-.329-.033-.662-.05-1-.05zM48 43a1 1 0 0 0-1 1v.95a10.008 10.008 0 0 0 2 0V44a1 1 0 0 0-1-1zM38.05 36H39a1 1 0 0 0 0-2h-.95a10.008 10.008 0 0 0 0 2zM56 35a1 1 0 0 0 1 1h.95a10.008 10.008 0 0 0 0-2H57a1 1 0 0 0-1 1z" fill="#00a0c8"></path></g><path d="M18 22a.997.997 0 0 1-.707-.293l-2-2a.999.999 0 1 1 1.414-1.414L18 19.586l3.293-3.293a.999.999 0 1 1 1.414 1.414l-4 4A.997.997 0 0 1 18 22zM18 32a.997.997 0 0 1-.707-.293l-2-2a.999.999 0 1 1 1.414-1.414L18 29.586l3.293-3.293a.999.999 0 1 1 1.414 1.414l-4 4A.997.997 0 0 1 18 32zM18 42a.997.997 0 0 1-.707-.293l-2-2a.999.999 0 1 1 1.414-1.414L18 39.586l3.293-3.293a.999.999 0 1 1 1.414 1.414l-4 4A.997.997 0 0 1 18 42z" fill="#c80a50"></path></g></svg>