<svg viewBox="0 0 511.99 511.99" xmlns="http://www.w3.org/2000/svg"><g><circle cx="255.995" cy="265.526" fill="#ffd93b" r="246.464"></circle><path d="M502.459 265.526c0 136.176-110.368 246.464-246.464 246.464-77.472 0-146.64-35.728-191.856-91.728 42.288 34.192 96.112 54.608 154.736 54.608 136.096 0 246.448-110.288 246.448-246.448 0-58.608-20.416-112.448-54.608-154.736 55.92 45.2 91.744 114.368 91.744 191.84z" fill="#f4c534"></path><path d="M429.243 361.83c-37.792 68.096-101.248 113.056-173.296 113.056S120.443 429.91 82.651 361.83c-5.744-10.624 2.368-24.368 12.48-21.456 107.328 30.192 214.48 30.192 321.632 0 10.112-2.912 18.384 10.832 12.48 21.456z" fill="#3e4347"></path><path d="M255.947 474.902c36.672 0 71.088-11.712 101.056-32.128-2.448-3.952-5.152-7.776-8.304-11.344-19.776-22.448-55.632-29.168-86.8-20.08-12.336 3.728-26.448 5.392-42.528 4.528-3.12-.16-6.224-.48-9.312-.784-20.144-2.352-40.224 3.664-51.184 17.392-2.272 2.8-4.224 5.792-6.016 8.832 30.448 21.312 65.568 33.584 103.088 33.584z" fill="#e24b4b"></path><circle cx="353.275" cy="219.222" fill="#f4c534" r="93.552"></circle><ellipse cx="353.275" cy="219.238" fill="#ffffff" rx="76.768" ry="76.688"></ellipse><path d="M158.219 130.23c-51.472 0-93.104 41.76-93.104 93.104 0 26.336 10.944 50.048 28.48 66.976 8.816-3.456 18.816-5.488 30.128-5.488 27.36 0 47.328 11.36 60.096 27.952 38.864-11.136 67.344-46.88 67.344-89.44.016-51.344-41.616-93.104-92.944-93.104z" fill="#f4c534"></path><path d="M166.107 146.454c-42.32 0-80.096 34.48-84.448 76.88-1.92 18.736 2.976 35.872 12.656 49.2 8.704-2.448 18.176-3.888 28.592-3.888 26.912 0 48.048 8.928 63.52 22.896 25.792-12.8 45.184-38.496 48.24-68.192 4.336-42.416-26.352-76.896-68.56-76.896z" fill="#ffffff"></path><ellipse cx="179.483" cy="197.862" fill="#3e4347" rx="38.288" ry="38.352"></ellipse><ellipse cx="193.295" cy="184.097" fill="#ffffff" rx="11.712" ry="7.504" transform="rotate(-134.999 193.296 184.099)"></ellipse><ellipse cx="340.091" cy="246.934" fill="#3e4347" rx="38.288" ry="38.352"></ellipse><ellipse cx="337.418" cy="267.278" fill="#ffffff" rx="13.568" ry="8.688" transform="rotate(-134.999 337.42 267.28)"></ellipse><path d="M484.379 135.254c-110.256-77.552-134.896-104.4-191.936-53.136-31.968 26.992-56 18.256-64.08 3.392-9.296-16.752-8.608-37.952-14.016-54.528-4.272-14.032-12.256-9.072-26.032-1.392-44.912 25.6-120.144 79.968-152.032 100.736 34.72-34.64 97.168-91.04 141.712-118.288 15.408-8.144 42.816-27.616 57.616 11.856 2.48 7.552 8.992 48.448 15.088 52.528 24.864 4.176 36.72-33.184 77.024-39.12 48.672-9.104 96.528 38.48 139.856 80.096 9.872 9.84 15.568 16.32 16.8 17.856z" fill="#3e4347"></path><path d="M140.267 351.062c36.656 7.552 73.168 11.408 109.68 11.712l-5.552 41.744c-.928 4.304-4.928 7.232-9.088 6.624-13.088-1.696-27.264-5.392-34.96-7.552-3.392-1.088-5.696-4.016-6-7.552l-2.16-31.264-6.928 29.264c-1.072 4.624-5.696 7.392-10.16 6.32-12.784-3.088-26.64-9.088-34.048-12.64-3.392-1.536-5.232-5.088-4.768-8.784l3.984-27.872zM366.075 352.134v36.8c0 3.232-1.84 6.16-4.784 7.552-12.016 5.696-26.8 9.392-35.888 11.392-4.624 1.088-9.088-2.16-9.856-6.784l-4.16-40.976c18.192-1.824 36.512-4.448 54.688-7.984zM161.371 412.518c-3.696-.784-7.232 1.536-8.016 5.232l-4.512 20.704c17.872 13.152 37.456 23.12 58.272 29.264v-31.184c0-1.84-.608-3.696-2-4.928-11.712-10.768-33.12-16.624-43.744-19.088zM358.459 427.974c-.384-1.808-1.76-3.36-3.808-3.568-15.728-1.808-37.84 2.144-46.576 3.84-1.952.544-3.6 2.304-3.36 4.288l.48 26.016-2.944-24.016c-.256-2.128-1.808-3.808-4.032-4-17.792-2.16-43.04 2.32-52.912 4.304-2.288.592-4.064 2.672-3.792 4.816l2.32 34.768c4.016.272 8.048.48 12.112.48 38.16 0 73.856-12.704 104.64-34.688l-2.128-12.24z" fill="#ffffff"></path></g></svg>