<svg viewBox="0 0 64 64" xmlns="http://www.w3.org/2000/svg"><g><g><path d="M50 58v-3h6v3M8 42h6v16H8z" fill="#a3c8be"></path><g fill="#377582"><path d="m7.182 46.764 7.059-1.412A1.471 1.471 0 0 1 16 46.794a1.47 1.47 0 0 1-1.182 1.442l-7.059 1.412A1.471 1.471 0 0 1 6 48.206a1.47 1.47 0 0 1 1.182-1.442zM7.182 52.764l7.059-1.412A1.471 1.471 0 0 1 16 52.794a1.47 1.47 0 0 1-1.182 1.442l-7.059 1.412A1.471 1.471 0 0 1 6 54.206a1.47 1.47 0 0 1 1.182-1.442zM60 50v5H46v-5a24.538 24.538 0 0 1 6-.95 16.693 16.693 0 0 1 2 0 24.538 24.538 0 0 1 6 .95z" fill="#377582"></path></g><path d="M1 58h62v5H1z" fill="#ad9990"></path><path d="M18 37v5H4v-5a24.538 24.538 0 0 1 6-.95 16.693 16.693 0 0 1 2 0 24.538 24.538 0 0 1 6 .95z" fill="#377582"></path><path d="m26 27 1.277-1.7a3.31 3.31 0 0 0-.307-4.327 3.311 3.311 0 0 1-.97-2.344v-14.8A2.83 2.83 0 0 1 28.829 1h6.342A2.83 2.83 0 0 1 38 3.829v14.8a3.311 3.311 0 0 1-.97 2.341 3.31 3.31 0 0 0-.307 4.327L38 27z" fill="#94350f"></path><path d="M32 27h6v5H26v-5h3z" fill="#ffd799"></path><path d="M29 32v14l-2 3 2 9h6l2-9-2-3V32z" fill="#cccccc"></path><path d="M54 49.05V51a1 1 0 0 1-2 0v-1.95a16.693 16.693 0 0 1 2 0zM12 36.05V38a1 1 0 0 1-2 0v-1.95a16.693 16.693 0 0 1 2 0z" fill="#a3c8be"></path><path d="M30 19a1 1 0 0 1-1-1V5a1 1 0 0 1 2 0v13a1 1 0 0 1-1 1zM34 19a1 1 0 0 1-1-1V5a1 1 0 0 1 2 0v13a1 1 0 0 1-1 1z" fill="#6f280b"></path></g></g></svg>