<svg fill-rule="evenodd" viewBox="0 0 512 512" xmlns="http://www.w3.org/2000/svg"><g><path d="m334 200-4 80 69 17 74-17c-4-3-8-7-10-10-11-16-21-37-27-50-8-17-10-20-15-20z" fill="#49a7fe"></path><path d="M505 381h-42c-2 0-4-1-5-2H358c-1 1-3 2-5 2h-47c-3 0-6-2-6-6V206c0-2 1-3 2-5 1-1 2-1 4-1h35v80h132c4 3 8 5 12 7 4 3 7 4 8 6 1 1 1 3 1 4v50h11c4 0 7 3 7 7v20c0 4-3 7-7 7z" fill="#ecb982"></path><path d="M408 436c-34 0-61-27-61-61 0-33 27-60 61-60 33 0 61 27 61 60 0 34-28 61-61 61z" fill="#572c0e"></path><path d="M408 401c-14 0-26-11-26-26 0-14 12-26 26-26s26 12 26 26c0 15-12 26-26 26z" fill="#916e54"></path><path d="M306 381H162c-3 0-6-2-6-6 0-21-14-40-35-46-4-2-9-2-14-2h-2c-27 0-49 21-49 48 0 4-3 6-6 6H20c-11 0-20-8-20-19V166c0-11 9-20 20-20h272c11 0 20 9 20 20v209c0 4-3 6-6 6z" fill="#e9ab66"></path><path d="M107 436c-34 0-61-27-61-61 0-33 27-60 61-60 33 0 61 27 61 60 0 34-28 61-61 61z" fill="#572c0e"></path><path d="M107 401c-14 0-26-11-26-26 0-14 12-26 26-26s26 12 26 26c0 15-12 26-26 26z" fill="#916e54"></path><path d="M462 436H53c-4 0-6-3-6-6s2-6 6-6h409c3 0 6 3 6 6s-3 6-6 6z" fill="#523e30"></path><g fill="#c75c5c"><path d="M68 125c-3 0-6-3-6-6V82c0-3 3-6 6-6 4 0 7 3 7 6v37c0 3-3 6-7 6z" fill="#c75c5c"></path><path d="M68 125c-1 0-3-1-4-2l-14-14c-2-3-2-7 0-9s6-2 9 0l9 10 10-10c3-2 6-2 9 0 2 2 2 6 0 9l-14 14c-1 1-3 2-5 2zM160 125c-4 0-6-3-6-6V82c0-3 2-6 6-6 3 0 6 3 6 6v37c0 3-3 6-6 6z" fill="#c75c5c"></path><path d="M160 125c-2 0-4-1-5-2l-14-14c-2-3-2-7 0-9 3-2 7-2 9 0l10 10 9-10c3-2 7-2 9 0s3 6 0 9l-14 14c-1 1-3 2-4 2zM251 125c-4 0-6-3-6-6V82c0-3 2-6 6-6 3 0 6 3 6 6v37c0 3-3 6-6 6z" fill="#c75c5c"></path><path d="M251 125c-2 0-3-1-5-2l-14-14c-2-3-2-7 0-9 3-2 7-2 9 0l10 10 10-10c2-2 6-2 8 0 3 2 3 6 0 9l-14 14c-1 1-2 2-4 2z" fill="#c75c5c"></path></g><path d="M291 224h-80c-2 0-3-1-3-3v-60c0-2 1-3 3-3h80c1 0 3 1 3 3v60c0 2-2 3-3 3z" fill="#e8931c"></path><g fill="#5a6163"><path d="M240 158h21v20c0 2-1 3-2 3h-16c-1 0-3-1-3-3zM283 209h-20c-1 0-2-1-2-2s1-2 2-2h20c1 0 2 1 2 2s-1 2-2 2zM283 216h-41c-1 0-2-1-2-2s1-2 2-2h41c1 0 2 1 2 2s-1 2-2 2z" fill="#5a6163"></path></g><path d="M199 224h-79c-2 0-3-1-3-3v-60c0-2 1-3 3-3h79c2 0 4 1 4 3v60c0 2-2 3-4 3z" fill="#e8931c"></path><g fill="#5a6163"><path d="M149 158h21v20c0 2-1 3-3 3h-15c-2 0-3-1-3-3zM192 209h-20c-1 0-2-1-2-2s1-2 2-2h20c1 0 2 1 2 2s-1 2-2 2zM192 216h-41c-1 0-2-1-2-2s1-2 2-2h41c1 0 2 1 2 2s-1 2-2 2z" fill="#5a6163"></path></g><path d="M108 224H29c-2 0-4-1-4-3v-60c0-2 2-3 4-3h79c2 0 3 1 3 3v60c0 2-1 3-3 3z" fill="#e8931c"></path><g fill="#5a6163"><path d="M58 158h21v20c0 2-1 3-3 3H61c-2 0-3-1-3-3zM101 209H81c-1 0-2-1-2-2s1-2 2-2h20c1 0 2 1 2 2s-1 2-2 2zM101 216H60c-2 0-2-1-2-2s0-2 2-2h41c1 0 2 1 2 2s-1 2-2 2z" fill="#5a6163"></path></g><path d="M291 305h-80c-2 0-3-2-3-4v-59c0-2 1-4 3-4h80c1 0 3 2 3 4v59c0 2-2 4-3 4z" fill="#e8931c"></path><g fill="#5a6163"><path d="M240 238h21v21c0 1-1 2-2 2h-16c-1 0-3-1-3-2zM283 290h-20c-1 0-2-1-2-2s1-2 2-2h20c1 0 2 1 2 2s-1 2-2 2zM283 297h-41c-1 0-2-1-2-3 0-1 1-2 2-2h41c1 0 2 1 2 2 0 2-1 3-2 3z" fill="#5a6163"></path></g><path d="M199 305h-79c-2 0-3-2-3-4v-59c0-2 1-4 3-4h79c2 0 4 2 4 4v59c0 2-2 4-4 4z" fill="#e8931c"></path><g fill="#5a6163"><path d="M149 238h21v21c0 1-1 2-3 2h-15c-2 0-3-1-3-2zM192 290h-20c-1 0-2-1-2-2s1-2 2-2h20c1 0 2 1 2 2s-1 2-2 2zM192 297h-41c-1 0-2-1-2-3 0-1 1-2 2-2h41c1 0 2 1 2 2 0 2-1 3-2 3z" fill="#5a6163"></path></g><path d="M108 305H29c-2 0-4-2-4-4v-59c0-2 2-4 4-4h79c2 0 3 2 3 4v59c0 2-1 4-3 4z" fill="#e8931c"></path><g fill="#5a6163"><path d="M58 238h21v21c0 1-1 2-3 2H61c-2 0-3-1-3-2zM101 290H81c-1 0-2-1-2-2s1-2 2-2h20c1 0 2 1 2 2s-1 2-2 2zM101 297H60c-2 0-2-1-2-3 0-1 0-2 2-2h41c1 0 2 1 2 2 0 2-1 3-2 3z" fill="#5a6163"></path></g></g></svg>