<svg viewBox="0 0 512 512" xmlns="http://www.w3.org/2000/svg"><g><g clip-rule="evenodd" fill-rule="evenodd"><path d="M117.408 425.672a7.965 7.965 0 0 1-8.937-13.187l.212-.144h-54.65a8 8 0 0 1 0-16h54.65l-.212-.144a7.965 7.965 0 0 1 8.937-13.187l21.58 14.642a7.965 7.965 0 0 1 .14 13.282z" fill="#6cf5c2"></path><path d="M71.283 432.486a7.964 7.964 0 0 1 11.062 2.125 7.964 7.964 0 0 1-2.125 11.062l-.212.144h54.65a8 8 0 0 1 0 16h-54.65l.212.144a7.965 7.965 0 0 1-8.937 13.187l-21.58-14.642a7.964 7.964 0 0 1-.14-13.282zM403.53 412.485a7.965 7.965 0 0 1-8.937 13.187l-21.72-14.737a7.965 7.965 0 0 1 .14-13.282l21.58-14.642a7.965 7.965 0 0 1 8.937 13.187l-.212.144h54.65a8 8 0 0 1 0 16h-54.65z" fill="#fe646f"></path><path d="M431.78 445.673a7.965 7.965 0 0 1 8.937-13.187l21.72 14.737a7.965 7.965 0 0 1-.14 13.282l-21.58 14.642a7.964 7.964 0 0 1-11.062-2.125 7.964 7.964 0 0 1 2.125-11.062l.212-.144h-54.65a8 8 0 0 1 0-16h54.65z" fill="#6cf5c2"></path><path d="M360.195 141.739h24.432v160.614h-24.432zm-232.823 0h24.432v160.614h-24.432zm77.608 0h24.432v160.614H204.98zm77.607 0h24.432v160.614h-24.432z" fill="#b1b1b5"></path><path d="M374.627 141.739h10v160.614h-10zm-232.823 0h10v160.614h-10zm77.607 0h10v160.614h-10zm77.608 0h10v160.614h-10z" fill="#9c9c9e"></path><path d="M118.405 292.243h42.367c4.164 0 7.56 3.396 7.56 7.56v25.89c0 4.164-3.396 7.56-7.56 7.56h-42.367c-4.164 0-7.56-3.396-7.56-7.56v-25.89c-.001-4.164 3.396-7.56 7.56-7.56zm232.823 0h42.367c4.164 0 7.56 3.396 7.56 7.56v25.89c0 4.164-3.396 7.56-7.56 7.56h-42.367c-4.164 0-7.56-3.396-7.56-7.56v-25.89c0-4.164 3.396-7.56 7.56-7.56zm-77.608 0h42.367c4.164 0 7.56 3.396 7.56 7.56v25.89c0 4.164-3.396 7.56-7.56 7.56H273.62c-4.164 0-7.56-3.396-7.56-7.56v-25.89c0-4.164 3.396-7.56 7.56-7.56zm-77.608 0h42.367c4.164 0 7.56 3.396 7.56 7.56v25.89c0 4.164-3.396 7.56-7.56 7.56h-42.367c-4.164 0-7.56-3.396-7.56-7.56v-25.89c0-4.164 3.396-7.56 7.56-7.56z" fill="#eceff1"></path><path d="M150.771 292.243h10c4.164 0 7.56 3.396 7.56 7.56v25.89c0 4.164-3.396 7.56-7.56 7.56h-10c4.164 0 7.56-3.396 7.56-7.56v-25.89c0-4.164-3.396-7.56-7.56-7.56zm232.824 0h10c4.164 0 7.56 3.396 7.56 7.56v25.89c0 4.164-3.396 7.56-7.56 7.56h-10c4.164 0 7.56-3.396 7.56-7.56v-25.89c0-4.164-3.396-7.56-7.56-7.56zm-77.608 0h10c4.164 0 7.56 3.396 7.56 7.56v25.89c0 4.164-3.396 7.56-7.56 7.56h-10c4.164 0 7.56-3.396 7.56-7.56v-25.89c0-4.164-3.396-7.56-7.56-7.56zm-77.608 0h10c4.164 0 7.56 3.396 7.56 7.56v25.89c0 4.164-3.396 7.56-7.56 7.56h-10c4.164 0 7.56-3.396 7.56-7.56v-25.89c0-4.164-3.396-7.56-7.56-7.56z" fill="#d1d1d6"></path><path d="M101.182 312.938h309.635c4.164 0 7.56 3.396 7.56 7.56v22.555H93.622v-22.555c0-4.164 3.396-7.56 7.56-7.56z" fill="#d1d1d6"></path><path d="M400.817 312.938h10c4.164 0 7.56 3.396 7.56 7.56v22.555h-10v-22.555c0-4.164-3.396-7.56-7.56-7.56z" fill="#b1b1b5"></path><path d="M77.351 359.942h357.298c1.652 0 3-1.348 3-3v-12.585c0-4.164-3.396-7.56-7.56-7.56H81.911c-4.164 0-7.56 3.396-7.56 7.56v12.585c0 1.652 1.347 3 3 3z" fill="#b1b1b5"></path><path d="M424.648 359.942h10c1.652 0 3-1.348 3-3v-12.585c0-4.164-3.396-7.56-7.56-7.56h-10c4.164 0 7.56 3.396 7.56 7.56v12.585c0 1.652-1.347 3-3 3z" fill="#9c9c9e"></path><path d="M351.228 124.844h42.367c4.164 0 7.56 3.397 7.56 7.56v23.566c0 4.164-3.396 7.56-7.56 7.56h-42.367c-4.164 0-7.56-3.396-7.56-7.56v-23.566c0-4.164 3.396-7.56 7.56-7.56zm-232.823 0h42.367c4.164 0 7.56 3.397 7.56 7.56v23.566c0 4.164-3.396 7.56-7.56 7.56h-42.367c-4.164 0-7.56-3.396-7.56-7.56v-23.566c-.001-4.164 3.396-7.56 7.56-7.56zm77.607 0h42.367c4.164 0 7.56 3.397 7.56 7.56v23.566c0 4.164-3.396 7.56-7.56 7.56h-42.367c-4.164 0-7.56-3.396-7.56-7.56v-23.566c0-4.164 3.396-7.56 7.56-7.56zm77.608 0h42.367c4.164 0 7.56 3.397 7.56 7.56v23.566c0 4.164-3.396 7.56-7.56 7.56H273.62c-4.164 0-7.56-3.396-7.56-7.56v-23.566c0-4.164 3.396-7.56 7.56-7.56z" fill="#eceff1"></path><path d="M383.595 124.844h10c4.164 0 7.56 3.397 7.56 7.56v23.566c0 4.164-3.396 7.56-7.56 7.56h-10c4.164 0 7.56-3.396 7.56-7.56v-23.566c0-4.163-3.396-7.56-7.56-7.56zm-232.824 0h10c4.164 0 7.56 3.397 7.56 7.56v23.566c0 4.164-3.396 7.56-7.56 7.56h-10c4.164 0 7.56-3.396 7.56-7.56v-23.566c0-4.163-3.396-7.56-7.56-7.56zm77.608 0h10c4.164 0 7.56 3.397 7.56 7.56v23.566c0 4.164-3.396 7.56-7.56 7.56h-10c4.164 0 7.56-3.396 7.56-7.56v-23.566c0-4.163-3.396-7.56-7.56-7.56zm77.608 0h10c4.164 0 7.56 3.397 7.56 7.56v23.566c0 4.164-3.396 7.56-7.56 7.56h-10c4.164 0 7.56-3.396 7.56-7.56v-23.566c0-4.163-3.396-7.56-7.56-7.56z" fill="#d1d1d6"></path><path d="M105.878 142.836h309.635c4.164 0 7.56-3.396 7.56-7.56v-20.682H98.318v20.682c0 4.164 3.396 7.56 7.56 7.56z" fill="#d1d1d6"></path><path d="M405.513 142.836h10c4.164 0 7.56-3.396 7.56-7.56v-20.682h-10v20.682c0 4.164-3.396 7.56-7.56 7.56z" fill="#b1b1b5"></path><path d="m259.874 17.889 176.849 97.887c.809.448 1.199 1.355.968 2.25s-1.012 1.5-1.936 1.5H76.245c-.924 0-1.705-.605-1.936-1.5s.159-1.802.968-2.25l176.849-97.887c2.481-1.373 5.266-1.373 7.748 0z" fill="#b1b1b5"></path><path d="m259.874 17.889 176.849 97.887c.809.448 1.199 1.355.968 2.25s-1.012 1.5-1.936 1.5h-22.681c.924 0 1.705-.605 1.936-1.5s-.159-1.802-.968-2.25L244.659 22.022l7.466-4.133c2.482-1.373 5.267-1.373 7.749 0z" fill="#9c9c9e"></path><path d="M256 94.287c11.036 0 20.037-9.001 20.037-20.037S267.036 54.213 256 54.213s-20.038 9.001-20.038 20.037S244.964 94.287 256 94.287z" fill="#eceff1"></path><path d="M256 54.213c-11.066 0-20.037 8.971-20.037 20.037S244.934 94.287 256 94.287c.991 0 1.964-.073 2.917-.212-9.684-1.412-17.121-9.75-17.121-19.825s7.437-18.413 17.121-19.825a20.202 20.202 0 0 0-2.917-.212z" fill="#d1d1d6"></path><circle cx="256.001" cy="404.341" fill="#ffd064" r="90.8" transform="rotate(-45 255.947 404.42)"></circle><path d="M252.171 313.62c48.372 2.007 86.971 41.856 86.971 90.721s-38.599 88.714-86.971 90.721c1.269.052 2.546.079 3.829.079 50.147 0 90.8-40.652 90.8-90.8 0-50.147-40.652-90.8-90.8-90.8-1.283 0-2.559.026-3.829.079z" fill="#f5b829"></path><circle cx="256" cy="404.341" fill="#ffc338" r="69.335"></circle><path d="M194.935 404.341c0-36.905 28.832-67.075 65.2-69.214a69.937 69.937 0 0 0-4.135-.121c-38.293 0-69.335 31.042-69.335 69.335 0 38.292 31.042 69.335 69.335 69.335a70.83 70.83 0 0 0 4.135-.121c-36.368-2.139-65.2-32.31-65.2-69.214z" fill="#f5b829"></path><path d="M283.923 380.044a7.999 7.999 0 0 1-14.75 6.188c-1.799-4.285-5.214-6.759-8.962-7.709a16.722 16.722 0 0 0-7.36-.182c-2.271.457-4.353 1.374-5.968 2.687-1.903 1.547-3.111 3.771-2.978 6.521.118 2.429 1.407 4.109 3.204 5.283 2.726 1.779 6.563 2.78 10.235 3.383 5.647.927 11.825 2.483 17.037 5.629 6.144 3.709 10.779 9.297 11.824 17.898.078.639.127 1.428.149 2.353.189 7.926-3.416 13.824-8.835 17.936-3.894 2.955-8.7 4.859-13.52 5.828v2.649a8 8 0 0 1-16 0v-2.809c-3.836-.877-7.486-2.383-10.692-4.518-5.476-3.647-9.673-9.032-11.449-16.158a7.981 7.981 0 0 1 15.5-3.812c.726 2.911 2.473 5.133 4.762 6.658 2.941 1.958 6.737 2.892 10.604 2.799a25.77 25.77 0 0 0 2.378-.196c3.29-.399 6.54-1.418 8.792-3.126 1.544-1.171 2.572-2.786 2.522-4.874a12.234 12.234 0 0 0-.087-.853c-.344-2.838-1.996-4.756-4.198-6.085-3.134-1.892-7.365-2.913-11.35-3.567-5.479-.899-11.442-2.548-16.36-5.758-5.845-3.816-10.045-9.469-10.454-17.908-.405-8.347 3.187-15.039 8.853-19.646 3.19-2.594 7.048-4.47 11.179-5.54v-2.939a8 8 0 0 1 16 0v2.828l.086.021c8.311 2.104 15.87 7.566 19.838 17.019z" fill="#ffe177"></path></g></g></svg>