<svg viewBox="0 0 513.053 513.053" xmlns="http://www.w3.org/2000/svg"><g><path d="M285.784 373.448c-15.07 89.413 11.057 138.079 11.057 138.079h122.834c21.031-30.645 67.532-191.688-18.259-333.751-4.835-7.736-11.591-22.572-14.224-35.028-6.693-31.663-3.153-61.231 3.535-92.894l10.208-48.326H112.373l10.208 48.327c6.689 31.664 9.168 62.292 2.475 93.954-2.633 12.456-8.328 26.232-13.164 33.968C26.101 319.838 62 480.882 83.031 511.526h123.435s30.007-48.665 14.937-138.079l32.909-12.473z" fill="#ffdecf"></path><path d="M401.415 177.776c-4.835-7.737-11.591-22.572-14.224-35.028-6.693-31.663-3.153-61.231 3.535-92.894l10.208-48.326H254.312v359.448l31.472 12.473c-15.07 89.413 11.057 138.079 11.057 138.079h122.834c21.03-30.646 67.531-191.69-18.26-333.752z" fill="#ffccb3"></path><path d="M238.979 87.524h30v29.534h-30z" fill="#ffccb3"></path><path d="m435.673 255.058-.857 1.005-149.033 117.385H221.4L78.494 256.063l-1.45-2c6.021-18.453 13.649-37.023 23.151-55.402l.148-.011 153.968 50.642 158.645-50.642h.074a340.073 340.073 0 0 1 22.643 56.408z" fill="#ff8597"></path><path d="m448.232 171.4 38.286-73.506 26.61 13.86-38.286 73.506z" fill="#00abe9"></path><path d="m452.854 196.494-22.918-59.138 27.972-10.839 13.19 34.032 34.191-9.16 7.764 28.978z" fill="#008adf"></path><path d="m.232 111.559 26.609-13.86 38.286 73.506-26.61 13.86z" fill="#64c0ee"></path><path d="M60.199 196.494 0 180.367l7.763-28.978 34.192 9.16 13.19-34.032 27.972 10.839z" fill="#00abe9"></path><path d="M254.312 87.524h14.666v29.534h-14.666z" fill="#ffbb99"></path><path d="M413.03 198.651h-.074l-158.645 50.642v124.155h31.471l149.034-117.385.857-1.005a340.03 340.03 0 0 0-22.643-56.407z" fill="#ff637b"></path></g></svg>