<svg viewBox="0 0 511 512" xmlns="http://www.w3.org/2000/svg"><g><path d="M469.625 504.68a7.836 7.836 0 0 1-7.574-5.848l-49.832-190.008c-2.653-10.113-13.04-16.187-23.153-13.531a18.837 18.837 0 0 0-11.562 8.773 18.835 18.835 0 0 0-1.973 14.383 7.833 7.833 0 0 1-5.59 9.563 7.837 7.837 0 0 1-9.566-5.59c-2.344-8.945-1.066-18.274 3.602-26.262 4.668-7.984 12.164-13.676 21.113-16.023 18.469-4.848 37.437 6.242 42.281 24.715l49.832 190.003a7.835 7.835 0 0 1-7.578 9.825zm0 0" fill="#3b3d4c"></path><path d="m226.973 328.777-21.582 76.649-46.72 34.418c-11.901 8.781-14.44 25.535-5.671 37.426 5.242 7.12 13.348 10.89 21.57 10.89 5.512 0 11.07-1.691 15.856-5.215l51.344-37.843 33.882-81.961-18.515-41.297zm0 0" fill="#1895b7"></path><path d="M295.293 380.582v104.652c0 14.786-11.977 26.766-26.762 26.766s-26.765-11.98-26.765-26.766V373.105" fill="#34abe0"></path><path d="M275.297 511.133a26.7 26.7 0 0 1-6.766.867c-14.785 0-26.765-11.98-26.765-26.766V373.105l13.53 1.887v110.242c.005 12.454 8.493 22.91 20 25.899zm0 0" fill="#1895b7"></path><path d="M324.07 291.938h-.011v-82.122c0-30.671-24.856-55.539-55.528-55.539s-55.539 24.868-55.539 55.54v82.12c0 35.243-25.402 88.645-25.402 88.645s37.152 23.492 80.941 23.492c43.785 0 80.942-23.492 80.942-23.492s-25.403-53.402-25.403-88.644zm0 0" fill="#4bc999"></path><path d="M268.535 154.277c-14.25 0-25.789 24.868-25.789 55.54v82.12c0 28.754-7.848 86.747-10.738 107.13-26.09-6.895-44.418-18.489-44.418-18.489s25.406-53.398 25.406-88.64v-82.122c0-30.671 24.867-55.539 55.54-55.539zm0 0" fill="#3aaf80"></path><path d="m277.125 197.563 37.445 49.93 29.903-4.376s27.875 6.113 30.015 20.738c2.14 14.63-20.199 31.922-20.199 31.922l-47.707 6.98a26.777 26.777 0 0 1-25.29-10.422l-46.991-62.655" fill="#4bc999"></path><path d="m354.29 295.781-47.712 6.98a27.64 27.64 0 0 1-3.875.282 26.788 26.788 0 0 1-21.414-10.707l-46.984-62.656 8.23-6.176 38.758 51.691a26.775 26.775 0 0 0 21.41 10.707c1.285 0 2.578-.097 3.875-.289l44.602-6.527 13.34 6.086zm0 0" fill="#3aaf80"></path><path d="m364.965 294.215-10.676 1.562-9.816-52.66 12.738-1.863c14.637-2.14 28.223 7.976 30.363 22.598 2.14 14.625-7.988 28.218-22.61 30.363zm0 0" fill="#ffc48f"></path><path d="m364.965 294.215-10.672 1.562-3.117-16.699 13.789-2.015c10.289-1.508 18.36-8.692 21.484-17.907a26.86 26.86 0 0 1 1.125 4.7c2.14 14.62-7.984 28.218-22.61 30.359zm0 0" fill="#e59a5c"></path><path d="M404.496 70.203c-3.262 12.934-11.773 23.152-22.683 28.95l-42.91-32.27-4.614-3.473 17.984-48.855a45.073 45.073 0 0 1 19.34.62 45.126 45.126 0 0 1 25.305 16.919c7.832 10.539 11.035 24.375 7.578 38.11zm0 0" fill="#e6e6e6"></path><path d="M396.918 32.094c-15.36-12.922-29.145 3.789-42.969 43.617l-19.66-12.3 17.984-48.856a45.073 45.073 0 0 1 19.34.62 45.112 45.112 0 0 1 25.305 16.919zM245.938 51.738c-19.067-4.804-38.418 6.758-43.223 25.828-4.805 19.067 6.758 38.422 25.828 43.223 19.066 4.805 38.418-6.758 43.223-25.828 4.804-19.066-6.758-38.418-25.829-43.223zm0 0" fill="#cccccc"></path><path d="M332.543 35.867c-34.902-8.793-70.328 12.371-79.121 47.278s12.375 70.328 47.277 79.125c34.906 8.792 70.332-12.375 79.125-47.282 8.793-34.902-12.375-70.328-47.281-79.12zm0 0" fill="#ffc48f"></path><path d="M317.836 164.246a65.27 65.27 0 0 1-17.133-1.976c-34.902-8.793-56.07-44.223-47.277-79.122 8.797-34.902 44.222-56.07 79.125-47.277a65.137 65.137 0 0 1 16.023 6.379c-28.71.504-54.648 20.078-62 49.25-7.351 29.168 6.219 58.7 31.262 72.746zm0 0" fill="#e59a5c"></path><path d="M333.46 121.14a7.91 7.91 0 0 1-1.917-.238c-4.195-1.058-6.742-5.316-5.684-9.511l1.356-5.383c1.058-4.195 5.312-6.742 9.508-5.684a7.832 7.832 0 0 1 5.683 9.512l-1.355 5.383a7.839 7.839 0 0 1-7.59 5.922zM356.469 126.938a7.839 7.839 0 0 1-7.602-9.75l1.356-5.383c1.058-4.196 5.316-6.743 9.511-5.684s6.739 5.317 5.684 9.512l-1.355 5.383a7.847 7.847 0 0 1-7.594 5.921zm0 0" fill="#3b3d4c"></path><path d="M330.871 90.219c-14.058 10.453-30.953 14.402-47.07 12.347a65.065 65.065 0 0 1-31.227-12.734c-9.918-26.488-1.683-57.379 22.149-75.11 20.023-14.894 45.773-16.566 66.859-6.574a65.99 65.99 0 0 1 11.45 6.961c9.906 26.485 1.667 57.387-22.16 75.11zm0 0" fill="#e6e6e6"></path><path d="m341.578 8.148-.012.008s-69.879 25.008-57.765 94.41c-11.192-1.418-21.996-5.718-31.227-12.734-9.918-26.492-1.683-57.383 22.149-75.113 20.023-14.89 45.773-16.563 66.855-6.57zm0 0" fill="#cccccc"></path><path d="m77.766 333.238-21.059 74.785-45.578 33.579c-11.617 8.566-14.09 24.91-5.535 36.515 5.117 6.945 13.023 10.621 21.043 10.621 5.379 0 10.8-1.648 15.468-5.086L92.2 446.73l33.059-79.964-18.063-40.293zm0 0" fill="#3b3d4c"></path><path d="M172.488 217.176v80.12H64.125v-80.12c0-29.926 24.262-54.188 54.188-54.188s54.175 24.262 54.175 54.188zm0 0" fill="#e3f4fc"></path><path d="M172.488 297.297c0 14.957-6.066 28.515-15.863 38.312a54.444 54.444 0 0 1-12.2 9.168v141.11c0 14.425-11.687 26.113-26.113 26.113S92.2 500.312 92.2 485.887V344.789c-16.73-9.223-28.074-27.031-28.074-47.492zm0 0" fill="#5c5e70"></path><path d="m117.293 279.707-21.508-28.672 8.031-6.023 13.477 17.972" fill="#bdd9e5"></path><path d="M127.598 163.781c-25.508 4.399-44.914 26.633-44.914 53.395v80.12H64.125v-80.12c0-29.926 24.262-54.188 54.188-54.188 3.164 0 6.277.27 9.285.793zm0 0" fill="#bdd9e5"></path><path d="M127.598 510.297a26.054 26.054 0 0 1-9.285 1.703c-14.426 0-26.114-11.688-26.114-26.113V344.789c-16.73-9.223-28.074-27.031-28.074-47.492h18.559c0 20.46 11.343 38.27 28.078 47.492v141.098c0 11.156 6.996 20.683 16.836 24.41zm0 0" fill="#3b3d4c"></path><path d="m151.04 237.672 12.19 16.258 41.606-6.086c14.273-2.09 27.531 7.785 29.617 22.054 2.09 14.27-7.785 27.528-22.055 29.618l-56.96 8.336a26.38 26.38 0 0 1-3.786.277 26.118 26.118 0 0 1-20.886-10.445l-21.508-28.676" fill="#ffc48f"></path><path d="m212.402 299.52-56.964 8.335a26.12 26.12 0 0 1-24.672-10.172l-21.508-28.671 8.035-6.028 13.473 17.977a26.12 26.12 0 0 0 20.89 10.445c1.254 0 2.516-.094 3.781-.281l56.965-8.336c10.04-1.473 17.914-8.48 20.961-17.473a26.394 26.394 0 0 1 1.098 4.582c2.09 14.27-7.793 27.536-22.059 29.622zm0 0" fill="#e59a5c"></path><path d="M166.363 48.914c15.153 11.621 24.914 29.906 24.914 50.477 0 35.125-28.468 63.593-63.593 63.593-35.114 0-63.582-28.468-63.582-63.593V54.187l41.125-32.226zm0 0" fill="#ffc48f"></path><path d="M141.89 161.398a63.725 63.725 0 0 1-14.202 1.59c-35.114 0-63.583-28.468-63.583-63.593V54.19l41.13-32.23 18.175 8.012-30.902 24.215v45.207c0 30.242 21.097 55.546 49.383 62.003zm0 0" fill="#e59a5c"></path><path d="M64.105 54.188v45.207c17.899 0 32.41-14.512 32.41-32.41v-16.36h56.794c27.96 0 50.625-22.664 50.625-50.625h-85.645C88.363 0 64.105 24.262 64.105 54.188zm0 0" fill="#ffce33"></path><path d="M153.566 0c-28.73 0-52.242 22.36-54.07 50.625h-2.98V66.98c0 8.957-3.63 17.051-9.496 22.918-5.868 5.868-13.961 9.497-22.918 9.497V54.19C64.102 24.266 88.367 0 118.293 0zm0 0" fill="#ff9d33"></path><g fill="#3b3d4c"><path d="M138.492 96.734a7.835 7.835 0 0 1-7.832-7.836V74.082a7.835 7.835 0 0 1 15.668 0v14.816a7.835 7.835 0 0 1-7.836 7.836zM164.422 96.734a7.832 7.832 0 0 1-7.832-7.836V74.082c0-4.324 3.504-7.832 7.832-7.832s7.832 3.508 7.832 7.832v14.816a7.832 7.832 0 0 1-7.832 7.836zm0 0" fill="#3b3d4c"></path></g></g></svg>