<svg viewBox="0 0 512 512" xmlns="http://www.w3.org/2000/svg"><g><path d="m54.386 68.383-32.51 18.296L9.889 49.793l36.675-5.171a4 4 0 0 1 4.362 2.724l5.302 16.316a4 4 0 0 1-1.842 4.721z" fill="#766e6e"></path><path d="M46.564 44.622 35.85 46.133l3.38 10.4a3.998 3.998 0 0 1-1.842 4.721L17.289 72.565l4.587 14.114 32.51-18.296a3.999 3.999 0 0 0 1.842-4.721l-5.302-16.316a4 4 0 0 0-4.362-2.724z" fill="#5b5353"></path><path d="M50.244 181.476a7.502 7.502 0 0 1-7.129-5.182L.369 44.764a7.498 7.498 0 0 1 14.262-4.636l42.745 131.53a7.498 7.498 0 0 1-7.132 9.818z" fill="#5b5353"></path><path d="m107.479 213.476-51.43 16.714-29.43-90.559c-1.921-5.912 3.803-11.444 9.646-9.323l43.788 15.894a13.745 13.745 0 0 1 8.381 8.671z" fill="#766e6e"></path><path d="m80.053 146.201-20.076-7.287 10.804 33.245c1.798 5.533-1.23 11.475-6.762 13.273l-20.365 6.618 12.394 38.139 51.43-16.714-19.045-58.604a13.742 13.742 0 0 0-8.38-8.67z" fill="#5b5353"></path><path d="m159.705 350.84-65.153 21.173a6.8 6.8 0 0 1-8.569-4.365L38.329 221.009a6.8 6.8 0 0 1 4.365-8.569l65.153-21.173a6.8 6.8 0 0 1 8.569 4.365l47.654 146.639a6.8 6.8 0 0 1-4.365 8.569z" fill="#c56e37"></path><path d="m107.849 191.267-27.719 9.008a6.8 6.8 0 0 1 8.567 4.364l47.655 146.642a6.8 6.8 0 0 1-4.364 8.567l27.719-9.008a6.798 6.798 0 0 0 4.364-8.567l-47.655-146.642a6.798 6.798 0 0 0-8.567-4.364z" fill="#8f4e24"></path><path d="M24.139 477.054H507a5 5 0 0 0 5-5v-36.538c0-56.623-45.902-102.525-102.525-102.525H121.663c-56.623 0-102.525 45.902-102.525 102.525v36.538a5.001 5.001 0 0 0 5.001 5z" fill="#c9beb9"></path><path d="M409.498 332.991h-55.031c56.61 0 102.502 45.892 102.502 102.502v36.561a4.999 4.999 0 0 1-4.999 4.999h55.031a4.999 4.999 0 0 0 4.999-4.999v-36.561c0-56.61-45.892-102.502-102.502-102.502z" fill="#9e9595"></path><path d="M224.647 477.054h93.848L444.3 351.248c6.737-6.737 1.966-18.257-7.562-18.257H368.71z" fill="#f9f6f6"></path><path d="M436.737 332.991H403.15c9.528 0 14.3 11.52 7.562 18.257L284.908 477.054h33.587L444.3 351.248c6.737-6.737 1.965-18.257-7.563-18.257z" fill="#eedfda"></path><path d="M383.35 288.132V131.434c0-53.204-43.131-96.335-96.335-96.335H244.33c-53.204 0-96.335 43.131-96.335 96.335v156.697c0 23.183-17.471 42.286-39.966 44.86l-.051.006a5.793 5.793 0 0 0-5.138 5.756v2.361c0 48.004 38.915 79.091 86.918 79.091h151.828c45.897 0 83.486-35.575 86.696-80.654.237-3.324-2.201-6.214-5.508-6.624l-.057-.007c-22.205-2.842-39.367-21.811-39.367-44.788z" fill="#766e6e"></path><path d="m422.775 332.926-.058-.007c-22.205-2.841-39.367-21.81-39.367-44.787V131.434c0-53.204-43.131-96.335-96.335-96.335H244.33c-1.588 0-3.166.041-4.735.117 51.005 2.469 91.6 44.601 91.6 96.218v156.697c0 22.977 17.162 41.946 39.367 44.787 3.364.424 5.801 3.414 5.554 6.795-3.289 45.002-40.842 80.491-86.684 80.491h52.154c45.897 0 83.486-35.575 86.696-80.655.237-3.323-2.2-6.213-5.507-6.623z" fill="#5b5353"></path><path d="M248.848 202.509c-7.048 16.367-28.541 22.84-48.004 14.458s-29.528-28.445-22.479-44.812c7.048-16.367 24.806-14.167 44.269-5.785s33.262 19.772 26.214 36.139z" fill="#ffcbbe"></path><path d="M222.634 166.37c-12.238-5.27-23.798-8.092-32.449-5.396 5.098 1.094 10.548 2.987 16.14 5.396 19.463 8.382 33.263 19.772 26.214 36.139-3.945 9.16-12.415 15.218-22.521 17.31 16.63 3.274 32.878-3.491 38.83-17.31 7.048-16.367-6.751-27.757-26.214-36.139z" fill="#ffa68d"></path><path d="M279.97 202.509c7.049 16.367 28.541 22.84 48.004 14.458s29.528-28.445 22.479-44.812c-7.048-16.367-24.806-14.167-44.269-5.785s-33.262 19.772-26.214 36.139z" fill="#ffcbbe"></path><path d="M350.453 172.155c-4.935-11.46-15.124-13.81-27.469-11.316 5.324 1.521 9.589 5.058 12.284 11.316 7.048 16.367-3.016 36.43-22.479 44.812a45.255 45.255 0 0 1-9.761 2.956c7.816 1.501 16.568.652 24.946-2.956 19.464-8.383 29.528-28.446 22.479-44.812z" fill="#ffa68d"></path><circle cx="315.402" cy="190.283" fill="#873e2f" r="10.536"></circle><circle cx="213.415" cy="190.283" fill="#873e2f" r="10.536"></circle><path d="M228.78 294.847c-6.199 0-12.332-2.76-16.43-8.035-7.044-9.066-5.404-22.125 3.662-29.169 12.595-9.786 30.658-15.398 49.557-15.398 18.9 0 36.962 5.612 49.557 15.398 9.066 7.044 10.705 20.103 3.661 29.169-7.045 9.067-20.103 10.705-29.169 3.661-4.139-3.216-12.631-6.653-24.05-6.653-11.418 0-19.91 3.437-24.051 6.653a20.685 20.685 0 0 1-12.737 4.374z" fill="#ffcbbe"></path><path d="M315.127 257.644c-12.595-9.786-30.658-15.398-49.557-15.398-3.547 0-7.064.198-10.521.583 14.965 1.67 28.805 6.865 39.037 14.814 9.066 7.044 10.705 20.103 3.661 29.169a20.72 20.72 0 0 1-5.887 5.158c8.871 5.22 20.444 3.188 26.928-5.158 7.044-9.065 5.405-22.124-3.661-29.168z" fill="#ffa68d"></path><path d="M286.664 271.78c2.352 0 3.303-3.073 1.337-4.363-6.21-4.078-13.987-6.505-22.432-6.505s-16.222 2.427-22.432 6.505c-1.966 1.291-1.015 4.363 1.337 4.363z" fill="#da4a54"></path></g></svg>