<svg viewBox="0 0 512 512" xmlns="http://www.w3.org/2000/svg"><g><g fill-rule="evenodd"><path d="M387.636 14.009c-46.51 0-84.214 33.325-84.214 74.434s37.704 74.434 84.214 74.434c9.251 0 18.152-1.322 26.479-3.758l33.894 33.894-11.736-43.799c21.526-13.484 35.576-35.676 35.576-60.771 0-41.109-37.704-74.434-84.214-74.434z" fill="#2dd62d"></path><path d="M379.031 14.393c-42.468 3.809-75.609 35.509-75.609 74.05s33.141 70.241 75.609 74.05c42.468-3.809 75.609-35.509 75.609-74.05s-33.141-70.241-75.609-74.05z" fill="#43f043"></path><path d="M61.34 283.314h81.011a46.272 46.272 0 0 1 45.384 66.816l-4.728 6.313v141.548H28.464L21.909 369.71c-3.611-10.532-12.428-30.098-10.677-44.303a46.274 46.274 0 0 1 50.109-42.094z" fill="#4eb1fc"></path><path d="M142.352 283.314a46.272 46.272 0 0 1 45.384 66.816l-4.728 6.313v141.548h-31.006c-.967-108.976 1.125-191.565-26.25-206.347l16.599-8.33z" fill="#2a92fa"></path><path d="m160.007 268.565-26.918 100.458 4.322-3.453c6.529-5.216 16.139-4.141 21.354 2.388 5.216 6.529 4.141 16.139-2.388 21.354l-30.272 24.183h94.099l38.834-144.93z" fill="#cfe8ff"></path><path d="M208.923 413.495h11.281l38.835-144.93h-11.282z" fill="#b6dbff"></path><path d="M61.34 283.314c9.119-4.934 15.086-11.503 15.086-21.577v-29.164h50.838v29.164c0 10.074 5.967 16.643 15.087 21.577-27.789 19.949-68.899 11.388-81.011 0z" fill="#f29988"></path><path d="M61.34 283.314c9.119-4.934 15.086-11.503 15.086-21.577v-29.164h33.213v33.095c0 14.414 7.846 21.164 16.112 25.976-25.467 8.338-54.55.941-64.412-8.33z" fill="#fdb0a0"></path><path d="M101.846 252.534c-68.364-4.434-86.418-140.058 0-140.058s68.364 135.624 0 140.058z" fill="#fdb0a0"></path><path d="M101.846 252.534c-68.364-4.434-86.418-140.058 0-140.058 5.437 0 10.458.539 15.081 1.546 42.104 29.586 32.066 109.135-9.659 137.852-1.773.306-3.575.54-5.422.66z" fill="#ffcec0"></path><path d="M278.453 14.009c46.51 0 84.214 33.325 84.214 74.434s-37.704 74.434-84.214 74.434c-9.252 0-18.152-1.322-26.479-3.758l-33.894 33.894 11.736-43.799c-21.526-13.484-35.576-35.676-35.576-60.771 0-41.109 37.704-74.434 84.214-74.434z" fill="#fdc72e"></path><path d="M270.549 162.552a93.442 93.442 0 0 1-18.575-3.434l-33.894 33.894 11.736-43.799c-21.526-13.484-35.576-35.676-35.576-60.771 0-38.761 33.522-70.597 76.338-74.107 42.816 3.51 76.339 35.346 76.339 74.107s-33.537 70.611-76.368 74.11z" fill="#fcdb35"></path><path d="M239.588 124.53a7 7 0 1 1 0-14h76.572a7 7 0 1 1 0 14zm0-29.087a7 7 0 1 1 0-14h76.572a7 7 0 1 1 0 14zm0-29.088a7 7 0 1 1 0-14h76.572a7 7 0 1 1 0 14zM384.56 95.443a7 7 0 1 1 0-14h2.691a7 7 0 1 1 0 14zm60.096 0a7 7 0 1 1 0-14h2.691a7 7 0 1 1 0 14zm-30.048 0a7 7 0 1 1 0-14h2.691a7 7 0 1 1 0 14z" fill="#f3f3ff"></path></g><path d="M369.996 378.341c68.621 0 124.959 52.545 131 119.593H238.997c6.04-67.048 62.379-119.593 131-119.593z" fill="#29b933" fill-rule="evenodd"></path><path d="M464.506 497.934H238.997c5.676-63.008 55.773-113.204 118.739-119.025 56.22 10.775 99.945 58.968 106.771 119.025z" fill="#2dd62d" fill-rule="evenodd"></path><circle cx="369.997" cy="315.269" fill="#fdb0a0" r="62.649"></circle><path d="M357.314 376.633c-28.52-5.864-49.966-31.109-49.966-61.364s21.446-55.501 49.966-61.364c28.52 5.864 49.967 31.109 49.967 61.364s-21.447 55.5-49.967 61.364z" fill="#ffcec0" fill-rule="evenodd"></path><path d="M72.552 341.806 61.34 283.313a46.272 46.272 0 0 0-45.384 66.816l52.401 69.97c10.149 13.552 29.39 16.436 43.066 6.454l47.373-34.575c4.271-3.118 6.808-7.361 7.531-12.599 2.167-15.695-15.31-27.612-29.067-18.784l-41.402 26.571-23.305-45.361z" fill="#4eb1fc" fill-rule="evenodd"></path><path d="m11.098 332.013 62.836 83.903c3.922 5.237 9.61 8.414 15.644 9.318 6.068.909 12.459-.457 17.742-4.313l47.373-34.575c1.354-.988 2.426-2.143 3.209-3.454.771-1.289 1.275-2.774 1.505-4.442l.004-.027h-.004a11.757 11.757 0 0 0-1.759-8.035 12.82 12.82 0 0 0-3.811-3.844l-.019-.012-.008.012a12.296 12.296 0 0 0-4.979-1.865c-2.528-.349-5.249.16-7.799 1.796L99.63 393.046a6.986 6.986 0 0 1-10.187-3.109l-23.098-44.959a6.97 6.97 0 1 1 12.414-6.344l19.784 38.508 34.942-22.426c5.555-3.565 11.586-4.658 17.26-3.874 3.814.527 7.457 1.922 10.667 3.997l-.008.013c3.203 2.074 5.957 4.8 8.003 7.988 3.16 4.924 4.737 10.974 3.837 17.496h-.004c-.494 3.558-1.62 6.806-3.361 9.719-1.733 2.9-4.065 5.426-6.983 7.555l-47.373 34.575a37.816 37.816 0 0 1-27.969 6.884c-9.542-1.43-18.549-6.471-24.777-14.787l-33.615-44.885-7.255-9.687c-3.077-8.975-9.934-24.51-10.81-37.698z" fill="#2a92fa" fill-rule="evenodd"></path></g></svg>