<svg viewBox="0 0 58 58" xmlns="http://www.w3.org/2000/svg"><g><g fill="none" fill-rule="nonzero"><path d="M11.52 19.29h-.01A27.082 27.082 0 0 1 11 13.8c0-8.28 9-11.04 18-11.04 8.1 0 7.2-2.76 7.2-2.76S47 4.6 47 13.8a26.281 26.281 0 0 1-.52 5.49z" fill="#a56a43"></path><path d="M37.017 44.973c-2.146-1.433-2.745-4.262-2.937-5.843H23.92c-.18 1.488-.722 4.082-2.576 5.577L29 51zM43.78 27H45a4 4 0 0 0 1.48-7.71A3.866 3.866 0 0 0 45 19H13a3.866 3.866 0 0 0-1.48.29A4 4 0 0 0 13 27z" fill="#f9c795"></path><path d="M23.587 39.016a15.381 15.381 0 0 0 10.826 0c.958-.35 1.887-.772 2.779-1.264 5.224-3.016 7.208-9.585 6.7-15.08-.029-.315-.2-3.047-.391-5.011a2.342 2.342 0 0 0-2.165-2.1c-3.013-.221-8.97-1.064-11.719-4.274a.8.8 0 0 0-1.23 0c-2.749 3.21-8.706 4.053-11.719 4.274a2.342 2.342 0 0 0-2.165 2.1c-.194 1.964-.362 4.7-.391 5.011-.51 5.5 1.474 12.064 6.7 15.08.891.492 1.819.915 2.775 1.264z" fill="#fdd7ad"></path><path d="M28.827 54.928c.419-6.795.59-9.361-5.827-11.928-.07-.03-.13-.05-.2-.08-4.228-1.696-12.962-5.32-15.85-6.52a1 1 0 0 0-1.314.575L3.48 42.72z" fill="#f9eab0"></path><path d="M29.176 54.989c-.42-6.84-.612-9.415 5.824-11.989.07-.03.13-.05.2-.08 4.228-1.7 12.962-5.323 15.85-6.525a1 1 0 0 1 1.314.575l2.156 5.75z" fill="#f5efca"></path><path d="M21.49 54.29C16.73 57 12.86 57 9 57v-9zM36.51 54.29C41.27 57 45.14 57 49 57v-8z" fill="#f9c795"></path><circle cx="23" cy="25" fill="#ecf0f1" r="3"></circle><path d="M38 25a3 3 0 1 1-5.93-.64A3 3 0 0 1 38 25z" fill="#ecf0f1"></path><path d="M29 36a5.311 5.311 0 0 1-3.707-1.293 1 1 0 0 1 1.4-1.424A3.471 3.471 0 0 0 29 34a3.469 3.469 0 0 0 2.3-.718 1.006 1.006 0 0 1 1.408.029.993.993 0 0 1-.006 1.4A5.311 5.311 0 0 1 29 36z" fill="#802d40"></path><path d="M30 31h-2a1 1 0 0 1 0-2h2a1 1 0 0 1 0 2z" fill="#f9c795"></path><path d="M19 22a1 1 0 0 1-.894-1.447C19.367 18.029 22.853 18 23 18a1 1 0 0 1 0 2c-.046 0-2.416.062-3.108 1.447A1 1 0 0 1 19 22zM39 22a1 1 0 0 1-.9-.553C37.4 20.04 35.023 20 35 20a1 1 0 0 1 0-2c.147 0 3.633.029 4.9 2.553A1 1 0 0 1 39 22z" fill="#a56a43"></path><circle cx="23.5" cy="25.75" fill="#3f5c6c" r="1.75"></circle><circle cx="34.5" cy="25.75" fill="#3f5c6c" r="1.75"></circle><path d="M25 29h-4a1 1 0 0 1 0-2h4a1 1 0 0 1 0 2zM37 29h-4a1 1 0 0 1 0-2h4a1 1 0 0 1 0 2z" fill="#f9c795"></path><circle cx="22" cy="25" fill="#ecf0f1" r="1"></circle><circle cx="33" cy="25" fill="#ecf0f1" r="1"></circle><path d="M4.81 47.98.64 46.4a1.006 1.006 0 0 1-.53-1.39l1.09-2.19a1 1 0 0 1 1.26-.49l1.02.39L25 51h8l21.52-8.28 1.02-.39a1 1 0 0 1 1.26.49l1.09 2.19a1.006 1.006 0 0 1-.53 1.39l-4.17 1.58-8.53 3.23-8.15 3.08-3.17 1.2h-8.68l-3.17-1.2-8.15-3.08z" fill="#a56a43"></path><path d="M30.459 58h-2.918c-1.853 0-3.264-1.942-2.959-4.075L25 51h8l.418 2.925C33.723 56.058 32.312 58 30.459 58z" fill="#805333"></path><g fill="#fdd7ad"><path d="m6.623 47.787 5.58 2.196a1.999 1.999 0 0 1 1.128 2.592l-.732 1.86a3.998 3.998 0 0 1-5.184 2.256l-1.86-.732a3.998 3.998 0 0 1-2.256-5.184l.732-1.86a1.999 1.999 0 0 1 2.592-1.128zM52.507 55.99l-1.86.732a3.998 3.998 0 0 1-5.184-2.256l-.732-1.86a1.999 1.999 0 0 1 1.128-2.592l5.58-2.196a1.999 1.999 0 0 1 2.592 1.128l.732 1.86a3.998 3.998 0 0 1-2.256 5.184z" fill="#fdd7ad"></path></g></g></g></svg>