<svg viewBox="0 0 512 512" xmlns="http://www.w3.org/2000/svg"><g><path d="M75 452a14.948 14.948 0 0 1-10.605-4.395c-5.859-5.859-5.859-15.352 0-21.211l362-362c5.859-5.859 15.352-5.859 21.211 0s5.859 15.352 0 21.211l-362 362A14.952 14.952 0 0 1 75 452z" fill="#384949"></path><path d="M426.395 64.395 256 234.789v42.422L447.605 85.605c5.859-5.859 5.859-15.352 0-21.211s-15.351-5.859-21.21.001z" fill="#293939"></path><path d="M497 90h-60c-8.291 0-15-6.709-15-15V15c0-8.291 6.709-15 15-15h60c8.291 0 15 6.709 15 15v60c0 8.291-6.709 15-15 15z" fill="#a24bdb"></path><path d="M75 512H15c-8.291 0-15-6.709-15-15v-60c0-8.291 6.709-15 15-15h60c8.291 0 15 6.709 15 15v60c0 8.291-6.709 15-15 15z" fill="#b760ea"></path></g></svg>