<svg viewBox="0 0 512 512" xmlns="http://www.w3.org/2000/svg"><g><g fill="#8d9ca8"><path d="M52.535 147.595a7.61 7.61 0 0 1-3.061-14.577L152.308 87.89a7.608 7.608 0 1 1 6.115 13.934L55.588 146.952a7.594 7.594 0 0 1-3.053.643zM157.73 165.896a7.608 7.608 0 0 1-7.608-7.608v-38.174a7.608 7.608 0 1 1 15.216 0v38.174a7.608 7.608 0 0 1-7.608 7.608zM382.764 148.712h-41.408a7.608 7.608 0 1 1 0-15.216h41.408a7.608 7.608 0 0 1 7.608 7.608 7.607 7.607 0 0 1-7.608 7.608zM382.764 192.688h-41.408a7.608 7.608 0 1 1 0-15.216h41.408a7.608 7.608 0 0 1 7.608 7.608 7.607 7.607 0 0 1-7.608 7.608z" fill="#8d9ca8"></path></g><path d="M382.766 451.943a7.61 7.61 0 0 1-7.609-7.608v-93.717a7.61 7.61 0 0 1 15.216 0v93.717a7.606 7.606 0 0 1-7.607 7.608zM123.492 451.943a7.607 7.607 0 0 1-7.607-7.608v-93.717a7.61 7.61 0 0 1 15.216 0v93.717a7.61 7.61 0 0 1-7.609 7.608z" fill="#fe99a0"></path><path d="M433.089 287.709h-37.894a8.674 8.674 0 0 1-7.655-4.595l-28.504-53.491a49.711 49.711 0 0 0-43.87-26.333H134.704a30.32 30.32 0 0 0-28.569 20.169l-20.775 58.48a8.676 8.676 0 0 1-8.174 5.771H36.395c-5.858 0-10.607 4.749-10.607 10.607v90.189c0 5.858 4.749 10.607 10.607 10.607H76.65c2.184 0 4.121-1.476 4.621-3.603 4.503-19.154 21.697-33.415 42.226-33.415s37.722 14.261 42.226 33.415c.5 2.126 2.437 3.603 4.621 3.603h165.574c2.184 0 4.121-1.476 4.621-3.603 4.503-19.154 21.697-33.415 42.226-33.415s37.722 14.261 42.226 33.415c.5 2.126 2.437 3.603 4.621 3.603h45.996c5.858 0 10.607-4.749 10.607-10.607v-47.672c-16.206-22.866-26.161-36.139-44.225-52.382a53.424 53.424 0 0 0-8.901-.743z" fill="#8795de"></path><path d="M441.987 288.451a53.477 53.477 0 0 0-8.898-.742h-37.894a8.674 8.674 0 0 1-7.655-4.595l-28.504-53.491a49.711 49.711 0 0 0-43.87-26.333h-20.289a49.708 49.708 0 0 1 43.87 26.333l36.62 66.679a8.675 8.675 0 0 0 7.655 4.595h38.877c24.314 0 44.025 19.711 44.025 44.025v43.583c0 5.858-4.749 10.607-10.607 10.607h20.289c5.858 0 10.607-4.749 10.607-10.607v-35.65z" fill="#6c7fd8"></path><path d="M441.985 288.465c-7.853 12.818-8.703 29.398-.777 43.409 9.226 16.31 27.559 24.219 45.004 20.98v-12.022c0-26.305-19.125-48.132-44.227-52.367z" fill="#99e6fc"></path><path d="M486.212 352.855v-12.022c0-26.306-19.125-48.133-44.228-52.367a42.936 42.936 0 0 0-5.632 14.872c17.212 5.982 29.57 22.335 29.57 41.585v6.77a42.8 42.8 0 0 0 20.29 1.162z" fill="#62dbfb"></path><path d="M3.908 437.927v23.03a5.072 5.072 0 0 0 5.072 5.072h494.04a5.072 5.072 0 0 0 5.072-5.072v-23.03a5.072 5.072 0 0 0-5.072-5.072H8.98a5.072 5.072 0 0 0-5.072 5.072z" fill="#8d9ca8"></path><path d="M503.02 432.855h-20a5.072 5.072 0 0 1 5.072 5.072v23.03a5.072 5.072 0 0 1-5.072 5.072h20a5.072 5.072 0 0 0 5.072-5.072v-23.03a5.072 5.072 0 0 0-5.072-5.072z" fill="#7a8c98"></path><path d="M387.027 146.562h75.95v33.059h-75.95z" fill="#8d9ca8"></path><path d="M393.817 123.299h-16.801a8.552 8.552 0 0 0-8.552 8.552v62.483a8.552 8.552 0 0 0 8.552 8.552h16.801a8.552 8.552 0 0 0 8.552-8.552V131.85a8.551 8.551 0 0 0-8.552-8.551z" fill="#fe99a0"></path><path d="M443.559 63.23v114.618c0 10.598 8.591 19.189 19.189 19.189 10.597 0 19.188-8.591 19.188-19.189V63.23z" fill="#fee45a"></path><path d="M463.676 63.23v114.618c0 7.292-4.068 13.634-10.058 16.881a19.098 19.098 0 0 0 9.13 2.308c10.597 0 19.188-8.591 19.188-19.189V63.23z" fill="#fac600"></path><path d="M137.497 94.002v32.181a4.071 4.071 0 0 0 4.071 4.071h32.327a4.071 4.071 0 0 0 4.071-4.071V94.002c0-11.175-9.059-20.234-20.234-20.234s-20.235 9.059-20.235 20.234z" fill="#fe99a0"></path><path d="M46.221 160.726c-9.687 0-17.54-7.853-17.54-17.54V53.579h35.08v89.607c0 9.687-7.853 17.54-17.54 17.54z" fill="#fee45a"></path><path d="M46.516 53.579v89.607c0 6.55-3.597 12.252-8.917 15.264a17.439 17.439 0 0 0 8.623 2.276c9.687 0 17.54-7.853 17.54-17.54V53.579z" fill="#fac600"></path><g fill="#99e6fc"><path d="M221.896 235.111h-82.315a5.406 5.406 0 0 0-5.094 3.596l-15.162 42.678c-1.096 3.084 1.191 6.324 4.464 6.324h98.107a6 6 0 0 0 6-6v-40.598a6 6 0 0 0-6-6zM351.583 283.301l-21.035-39.474a16.451 16.451 0 0 0-14.519-8.715h-66.916a6 6 0 0 0-6 6v40.598a6 6 0 0 0 6 6h99.824c2.263-.001 3.711-2.412 2.646-4.409z" fill="#99e6fc"></path></g><path d="M504.392 70.838h-83.288a7.608 7.608 0 1 1 0-15.216h83.288a7.608 7.608 0 1 1 0 15.216zM84.834 61.188H7.608a7.609 7.609 0 0 1 0-15.217h77.225c4.202 0 7.608 3.406 7.608 7.608s-3.405 7.609-7.607 7.609z" fill="#8d9ca8"></path></g></svg>