<svg viewBox="0 0 512 512" xmlns="http://www.w3.org/2000/svg"><g><path d="m376.655 396.303-101.461-60.084c-6.201-3.675-8.249-11.681-4.575-17.882l6.186-10.443-24.464-14.472c-16.138-9.261-23.685-10.974-38.244-5.345l-15.868 6.134a33.78 33.78 0 0 1-29.398-2.445l-42.471-25.042-60.323 101.821 54.384 32.099a33.776 33.776 0 0 1 9.534 8.436l18.326 23.767c10.122 11.839 31.012 27.195 44.413 35.134l41.898 24.822a18.997 18.997 0 0 0 21.443-1.425z" fill="#f9eae2"></path><path d="m396.114 407.826-44.268-26.216a1.177 1.177 0 0 0-1.597.387 1.18 1.18 0 0 0-.004 1.233c3.802 6.401 3.921 14.701-.601 21.41-5.684 8.433-17.178 10.642-25.927 5.459l-6.621-3.922a2.877 2.877 0 0 0-3.953 1.028 2.868 2.868 0 0 0-.162 2.562c2.192 5.165 1.717 12.368-.751 17.852-3.541 7.87-12.785 13.27-22.671 7.414l-2.875-1.703a5.437 5.437 0 0 0-6.228.481c-1.849 0-2.859 1.428-2.348 3.205a19.96 19.96 0 0 1-2.179 16.005c-5.762 9.392-18.223 12.106-27.703 6.49l-7.801-4.622a3.45 3.45 0 0 0-4.479.847 3.407 3.407 0 0 0-.62 2.944c1.277 4.967.665 10.418-2.156 15.179-3.209 5.417-8.574 8.759-14.354 9.6l43.421 25.724c9.065 5.37 20.961 2.895 26.649-5.973 5.972-9.31 2.993-21.634-6.442-27.223l21.451 12.709c9.065 5.37 20.961 2.895 26.65-5.973 5.972-9.31 2.993-21.634-6.441-27.223l14.568 8.631c9.232 5.47 21.151 2.419 26.62-6.813 5.469-9.232 2.419-21.151-6.813-26.62l17.428 10.325c9.064 5.37 20.959 2.895 26.647-5.973 5.972-9.312 2.994-21.635-6.44-27.224z" fill="#f5dbcc"></path><path d="m385.641 272.805-32.62 18.96a33.781 33.781 0 0 1-29.399 2.445l-17.896-7.03a28.764 28.764 0 0 0-17.573-1.113l-27.419 6.939c-12.764 3.23-21.705 14.716-21.705 27.882v36.601c0 5.175 4.194 9.384 9.369 9.388 15.606.01 28.26-12.638 28.26-28.241v-1.55l117.362 69.501a33.759 33.759 0 0 1 7.409-5.943l44.532-26.018z" fill="#ecb784"></path><g fill="#ecb784"><path d="m144.255 422.207-11.003 15.326c-6.256 8.715-18.393 10.707-27.107 4.451-8.715-6.256-10.707-18.393-4.451-27.107l11.003-15.326c6.256-8.715 18.393-10.707 27.107-4.451 8.715 6.257 10.707 18.393 4.451 27.107zM187.957 427.949 164.81 460.19c-6.256 8.715-18.393 10.707-27.107 4.451-8.715-6.256-10.707-18.393-4.451-27.107l23.146-32.241c6.256-8.715 18.393-10.707 27.107-4.451 8.715 6.256 10.708 18.392 4.452 27.107z" fill="#ecb784"></path><path d="m219.515 450.605-23.146 32.241c-6.256 8.715-18.393 10.707-27.107 4.451-8.715-6.256-10.707-18.393-4.451-27.107l23.146-32.241c6.256-8.715 18.393-10.707 27.107-4.451 8.714 6.256 10.707 18.393 4.451 27.107z" fill="#ecb784"></path><path d="m240.788 487.587-7.697 10.721c-6.256 8.715-18.393 10.707-27.107 4.451-8.715-6.256-10.707-18.393-4.451-27.107l7.697-10.721c6.256-8.715 18.393-10.707 27.107-4.451 8.715 6.256 10.708 18.393 4.451 27.107z" fill="#ecb784"></path></g><g fill="#407093"><path d="M414.442 378.568a76.184 76.184 0 0 0 37.177-65.442v-91.42l-5.656-8.937-85.995 51.259c-7.777 4.636-10.336 14.691-5.722 22.48l56.005 94.534zM428.317 400.995c2.203.455 4.502.461 6.751-.02-2.096.085-4.373.09-6.751.02z" fill="#407093"></path></g><path d="M445.963 212.769v100.357a76.188 76.188 0 0 1-37.177 65.442l8.716 14.713c4.632 7.819 14.734 10.39 22.541 5.737l60.398-36.002a22.717 22.717 0 0 0 11.085-19.513V189.084c0-6.787-7.395-10.988-13.225-7.513z" fill="#365e7d"></path><path d="m13.698 181.571 138.333 82.456c7.777 4.636 10.336 14.691 5.721 22.48L94.498 393.28c-4.632 7.819-14.734 10.39-22.541 5.737l-60.398-36.002A22.717 22.717 0 0 1 .474 343.502V189.084c0-6.787 7.394-10.988 13.224-7.513z" fill="#407093"></path><path d="M294.13 59.507a7.711 7.711 0 0 1-7.712-7.712V25.471c0-5.54-4.505-10.047-10.043-10.047h-40.749c-5.538 0-10.043 4.507-10.043 10.047v26.324c0 4.26-3.453 7.712-7.712 7.712s-7.712-3.452-7.712-7.712V25.471C210.158 11.427 221.583 0 235.625 0h40.749c14.042 0 25.467 11.427 25.467 25.471v26.324a7.71 7.71 0 0 1-7.711 7.712z" fill="#365e7d"></path><path d="M184.909 106.812c-21.336 0-38.632-17.296-38.632-38.632v103.738c0 11.774 9.545 21.319 21.319 21.319h117.666c11.774 0 21.319-9.545 21.319-21.319v-65.106z" fill="#ddb7a0"></path><path d="M327.091 106.812h-26.422v65.106c0 11.774-9.545 21.319-21.319 21.319h65.053c11.774 0 21.319-9.545 21.319-21.319V68.18c.001 21.335-17.295 38.632-38.631 38.632z" fill="#d6a889"></path><path d="M285.323 45.403H167.597c-11.774 0-21.318 9.544-21.319 21.318v9.126c0 21.336 17.296 38.632 38.632 38.632h121.733V66.722c0-11.775-9.545-21.319-21.32-21.319z" fill="#cc9675"></path><path d="M300.669 66.722v47.756h26.422c21.336 0 38.632-17.296 38.632-38.632V66.72c-.001-11.774-9.545-21.318-21.319-21.318H279.35c11.774.001 21.319 9.545 21.319 21.32z" fill="#c4845c"></path><path d="M198.657 138.385a7.712 7.712 0 0 1-7.712-7.712v-32.39c0-4.26 3.453-7.712 7.712-7.712s7.712 3.452 7.712 7.712v32.391a7.711 7.711 0 0 1-7.712 7.711zM313.343 138.385a7.711 7.711 0 0 1-7.712-7.712v-32.39c0-4.26 3.452-7.712 7.712-7.712s7.712 3.452 7.712 7.712v32.391a7.71 7.71 0 0 1-7.712 7.711z" fill="#f4fbff"></path></g></svg>