<svg viewBox="0 0 512 512" xmlns="http://www.w3.org/2000/svg"><g><path d="M512 171.614v105.962l-31.395 4.777a4.058 4.058 0 0 1-4.059-4.059l-2.833-106.68zM447.759 171.614l2.065 107.164a4.058 4.058 0 0 1-4.059 4.059l-66.028-.472c-15.192 0-24.996-16.076-18.054-29.583l45.269-81.169h40.807z" fill="#f2f2f0"></path><path d="M147.525 291.535s-9.215 9.12 8.409 26.745c17.625 17.625 32.758 20.249 32.758 20.249l41.311-6.065 3.007-4.375c7.716-12.847 4.471-29.448-7.515-38.443l-6.728-5.049-33.752 14.914z" fill="#7e7d89"></path><path d="M189.589 305.362c-1.727 0-3.462-.118-5.195-.359l-34.195-5.253c-4.164-.578-7.604-2.17-7.026-6.333.578-4.165 2.196-3.228 6.358-2.645l23.383-.914 14.555 2.019a22.907 22.907 0 0 0 19.635-6.832l23.583-24.646c6.039-6.309 15.968-7.263 23.097-2.215l19.159 13.572a7.61 7.61 0 0 1 1.812 10.61 7.61 7.61 0 0 1-10.61 1.812l-19.159-13.571a2.551 2.551 0 0 0-3.3.317l-23.583 24.645a38.02 38.02 0 0 1-13.819 9.184c-4.35 1.676-9.983.609-14.695.609z" fill="#26a6fe"></path><path d="M204.284 304.753a37.91 37.91 0 0 1-13.711 2.557c-1.725 0-3.461-.112-5.196-.355l-35.713-4.953c-4.161-.578-7.074-4.425-6.495-8.586s8.447-6.517 8.447-6.517l21.298 2.955a9.575 9.575 0 0 0 6.992 8.241z" fill="#0593fc"></path><path d="M57.353 233.383c-10.276-12.391-28.246-22.004-44.984-28.07v73.204l40.308 9.962 42.107-9.962z" fill="#f2f2f0"></path><path d="M24.815 210.422v68.097L0 257.204l.002-55.814c7.774 2.1 16.41 5.145 24.813 9.032z" fill="#e4e5e1"></path><path d="M275.03 368.558v43.355c0 5.924-4.803 10.727-10.727 10.727h-130.44L6.065 391.676 3.773 278.519l14.136-6.278 15.053 6.278h2.55l14.491 3.655 7.268-3.655h25.465c.859 0 1.33-1.001.781-1.663l-32.021-38.617c-7.466-9.001-16.461-16.364-26.569-21.815-6.063-5.314-11.324-7.014-18.098-8.848-4.059-1.106-5.49-3.868-4.394-7.928 1.096-4.049 4.155-4.927 8.214-3.821 5.239 1.421 14.166 3.603 14.166 3.603 14.818 6.558 27.901 16.439 38.392 29.096l41.198 51.144c.16.199.39.33.642.367l46.565 6.863a32.16 32.16 0 0 0-.061 1.979c0 13.823 9.235 26.072 22.723 29.766l41.975 11.468 43.193 27.949 5.277.193c5.693.002 10.311 4.61 10.311 10.303z" fill="#26a6fe"></path><path d="M24.815 278.519v113.157l-12.407 9.703-12.406-9.703V278.519l11.794-6.851zM24.815 199.431v16.928a90.868 90.868 0 0 0-19.191-7.622 7.627 7.627 0 0 1-5.359-9.347 7.604 7.604 0 0 1 9.337-5.348 106.816 106.816 0 0 1 15.213 5.389z" fill="#0593fc"></path><path d="M512 277.575v24.509l-6.958 7.611 6.958 7.611v72.695l-105.434 11.955-89.146-11.955v-44.745c0-2.243.7-4.425 1.999-6.241l18.257-25.473a10.732 10.732 0 0 0 1.766-8.484l-6.678-31.146a40.563 40.563 0 0 1 3.735-27.351l39.275-74.948h31.177l-39.295 76.379c-6.942 13.508 2.862 29.583 18.054 29.583h57.99a4.058 4.058 0 0 0 4.059-4.059V171.614h32.12v101.902a4.058 4.058 0 0 0 4.059 4.059z" fill="#ffd15b"></path><path d="M357.71 305.058a10.732 10.732 0 0 1-1.766 8.484l-18.257 25.473a10.73 10.73 0 0 0-1.999 6.241v44.745l-11.363 11.955-10.964-11.955v-44.745c0-1.121.175-2.228.513-3.28.337-1.053 6.603-3.16 7.252-4.068l16.19-23.64c.835-1.168-2.28-3.202-1.967-4.571.346-1.509.365-3.091.035-4.639l-6.678-31.146a40.563 40.563 0 0 1 3.735-27.351l39.275-74.948h22.327l-39.275 74.948a40.563 40.563 0 0 0-3.735 27.351z" fill="#fec165"></path><path d="M512 389.997H335.688l-25.494 4.267a5.354 5.354 0 0 0-5.354 5.354l.382 15.176a5.354 5.354 0 0 0 5.354 5.354l25.112 1.971H509.97a2.03 2.03 0 0 0 2.03-2.03z" fill="#fec165"></path><path d="M335.688 390.002v32.12h-29.827c-2.953 0-5.348-2.405-5.348-5.358V395.35a5.349 5.349 0 0 1 5.348-5.348z" fill="#fea95c"></path><path d="M366.53 309.696h-21.512c-5.3 10.87-10.336 21.673-15.991 32.121h24.483c8.87 0 16.065-7.195 16.065-16.065V312.74a3.048 3.048 0 0 0-3.045-3.044z" fill="#fc7a86"></path><path d="M357.67 309.696a10.779 10.779 0 0 1-1.725 3.846l-18.257 25.473a10.26 10.26 0 0 0-1.421 2.801H313.94c0-.01.01-.03.01-.041.325-.984.802-1.908 1.411-2.76l18.257-25.473a10.761 10.761 0 0 0 1.725-3.846z" fill="#fe646f"></path><path d="M512 302.084v15.223h-18.207a7.613 7.613 0 0 1-7.611-7.611 7.607 7.607 0 0 1 7.611-7.611H512z" fill="#7e7d89"></path><path d="M244.584 398.06h-14.538a7.61 7.61 0 1 1 0-15.222h14.538a7.61 7.61 0 1 1 0 15.222z" fill="#0593fc"></path><path d="M264.719 358.257h-28.173c-11.214 0-20.297-9.093-20.297-20.297v-7.845l23.393-1.563a9.121 9.121 0 0 1 9.235 6.109l5.622 16.126a10.705 10.705 0 0 0 3.897 5.399 10.71 10.71 0 0 0 6.323 2.071z" fill="#ffd15b"></path><path d="M479.99 406.546c0 4.003-.496 7.889-1.414 11.608-11.732 19.829-24.918 32.368-47.587 32.368-26.671 0-43.849-18.553-43.849-45.224 0-18.931 8.783-31.821 24.643-39.738 2.279-1.138 5.505-5.111 5.505-5.111a48.275 48.275 0 0 1 14.41-2.195c26.671 0 48.292 21.621 48.292 48.292z" fill="#7e7d89"></path><path d="M478.576 418.154c-5.196 21.069-24.204 36.687-46.877 36.687-26.671 0-48.297-21.627-48.297-48.297 0-21.647 14.249-39.975 33.886-46.095a47.97 47.97 0 0 0-1.411 11.59c0 26.671 21.627 48.297 48.297 48.297 5.014 0 9.855-.761 14.402-2.182z" fill="#717182"></path><path d="M447.795 406.546a16.02 16.02 0 0 1-3.207 9.639s-7.616 3.962-12.89 3.962c-8.89 0-14.47-5.959-14.47-14.85 0-4.924.973-6.92 4.069-11.034a16.033 16.033 0 0 1 10.401-3.816c8.89.002 16.097 7.209 16.097 16.099z" fill="#f2f2f0"></path><path d="M444.588 416.185c-2.933 3.917-7.611 6.455-12.889 6.455-8.89 0-16.096-7.206-16.096-16.096 0-4.922 2.212-9.327 5.693-12.28a48.309 48.309 0 0 0 23.292 21.921z" fill="#e4e5e1"></path><path d="M213.901 221.307a7.569 7.569 0 0 1-3.613-.917l-52.79-28.533a7.613 7.613 0 0 1 1.016-13.849l47.065-17.13 6.997-62.097a7.61 7.61 0 0 1 12.809-4.662l45.274 43.07 47.066-17.13a7.609 7.609 0 0 1 9.679 9.955l-22.098 55.791a7.61 7.61 0 0 1-9.88 4.274 7.611 7.611 0 0 1-4.274-9.879l15.86-40.042-35.58 12.95a7.615 7.615 0 0 1-7.849-1.638l-37.596-35.766-5.81 51.566a7.61 7.61 0 0 1-4.96 6.3l-35.577 12.95 37.887 20.479a7.61 7.61 0 0 1-3.626 14.308zM283.268 103.117a7.575 7.575 0 0 1-3.212-.716 7.612 7.612 0 0 1-3.682-10.115l14.33-30.731a7.61 7.61 0 0 1 10.115-3.681 7.61 7.61 0 0 1 3.681 10.115L290.17 98.72a7.608 7.608 0 0 1-6.902 4.397zM169.119 144.664a7.575 7.575 0 0 1-3.212-.716l-30.732-14.33a7.611 7.611 0 1 1 6.433-13.796l30.732 14.33a7.611 7.611 0 0 1-3.221 14.512z" fill="#ffd15b"></path><path d="M82.936 315.389v82.671c0 4.202-3.4 7.611-7.611 7.611a7.613 7.613 0 0 1-7.611-7.611v-82.671c0-3.359-1.36-6.637-3.755-9.012l-28.447-27.858H57.27l17.374 17.019c5.288 5.237 8.292 12.463 8.292 19.851z" fill="#0593fc"></path><path d="M32.961 278.516H0v-21.312a9.134 9.134 0 0 1 9.134-9.134h9.62c11.163 0 20.297 9.134 20.297 20.297v4.059a6.09 6.09 0 0 1-6.09 6.09z" fill="#0182fc"></path><path d="M512 179.228H357.225a7.61 7.61 0 1 1 0-15.222h151.73a3.045 3.045 0 0 1 3.045 3.045z" fill="#fec165"></path><path d="M133.862 391.676v30.963H24.815l-19.691-2.492a3.045 3.045 0 0 1-3.045-3.045l1.12-25.427h130.663z" fill="#0593fc"></path><path d="M24.815 391.676v30.963H3.046a3.04 3.04 0 0 1-3.045-3.045v-27.919h24.814z" fill="#0182fc"></path><path d="M202.359 406.546c0 4.003-.496 7.889-1.414 11.608-11.732 19.829-24.918 32.368-47.587 32.368-26.671 0-43.849-18.553-43.849-45.224 0-18.931 8.783-31.821 24.643-39.738 2.279-1.138 5.505-5.111 5.505-5.111a48.27 48.27 0 0 1 14.41-2.195c26.671 0 48.292 21.621 48.292 48.292z" fill="#7e7d89"></path><path d="M200.945 418.154c-5.196 21.069-24.204 36.687-46.877 36.687-26.671 0-48.297-21.627-48.297-48.297 0-21.647 14.249-39.975 33.886-46.095a47.97 47.97 0 0 0-1.411 11.59c0 26.671 21.627 48.297 48.297 48.297 5.014 0 9.855-.761 14.402-2.182z" fill="#717182"></path><path d="M170.164 406.546a16.02 16.02 0 0 1-3.207 9.639s-7.616 3.962-12.89 3.962c-8.89 0-14.47-5.959-14.47-14.85 0-4.924.973-6.92 4.069-11.034a16.033 16.033 0 0 1 10.401-3.816c8.89.002 16.097 7.209 16.097 16.099z" fill="#f2f2f0"></path><path d="M166.957 416.185c-2.933 3.917-7.611 6.455-12.889 6.455-8.89 0-16.096-7.206-16.096-16.096 0-4.922 2.212-9.327 5.693-12.28a48.309 48.309 0 0 0 23.292 21.921z" fill="#e4e5e1"></path></g></svg>