<svg viewBox="0 0 478.457 478" xmlns="http://www.w3.org/2000/svg"><g><path d="m85.96 408.23 152 64 152-64v-168l-152 64-152-64zm0 0" fill="#ffaf1c"></path><path d="M389.96 408.23v-168l-152 64v168zm0 0" fill="#e89b20"></path><path d="m5.957 304.23 152 72 80-72-160-64zM317.957 376.23l152-72-72-64-160 64zm0 0" fill="#31cccc"></path><path d="m237.957 184.23-160 56 160 64 160-64zm0 0" fill="#d85b55"></path><path d="m249.805 246.594-14.961-5.672a303.569 303.569 0 0 1 40.472-73.86c14.668-19.68 29.09-33.183 44.473-41.484 3.64-6.887 8.887-12.34 13.05-16.25 20.446-19.203 47.044-31.652 74.895-35.047l1.938 15.883c-22.234 2.711-43.559 11.977-60.758 26.297 4.711-.305 9.156.148 13.274 1.305 10.875 3.058 19.214 11.472 21.253 21.437 1.149 5.625.38 11.668-2.234 17.477-6.977 15.5-25.805 23.86-41.977 18.61-12.414-4.017-21.406-15.446-23.363-28.071-9.242 7.14-18.355 16.836-27.722 29.406a287.51 287.51 0 0 0-38.34 69.969zm82.37-109.29a20.579 20.579 0 0 0-.382 1.54c-1.77 8.601 4.012 18.52 12.367 21.226 8.352 2.692 18.852-1.953 22.457-9.957 1.207-2.683 1.613-5.422 1.149-7.703-.825-4.035-4.899-7.832-9.907-9.238-4.93-1.395-11.015-.965-18.078 1.242a69.265 69.265 0 0 0-7.605 2.89zm0 0" fill="#fcb138"></path><path d="M181.164 240.969c-11.363-23.785-25.55-42.864-42.172-56.715-18.965-15.8-41.387-24.723-63.129-25.125-19.617-.414-36.836 6.867-45.89 19.355-4.97 6.844-7.075 16.52-5.5 25.25 1.273 7.055 4.793 12.817 9.918 16.22l-8.852 13.327c-8.789-5.836-14.758-15.32-16.812-26.707-2.36-13.066.742-27.082 8.293-37.488 12.125-16.715 34.257-26.352 59.14-25.957 25.371.473 51.32 10.71 73.074 28.836 18.403 15.332 34.004 36.23 46.368 62.105zm0 0" fill="#7ac174"></path><path d="M197.879 149.21c-5.25-6.468-5.871-14.163-6.418-20.956-.117-1.453-.23-2.899-.402-4.313-.602-5.03-3.047-9.03-4.75-9.113-.914-.191-2.41.504-3.926 1.035-1.371.48-2.75.95-4.145 1.297-7.043 1.738-15.715-.441-18.687-8-1.61-4.11-.73-7.941-.203-10.226l6.16-26.743c-4.184.25-8.176 1.145-12.348 2.082-5.351 1.204-10.883 2.446-16.824 2.594-5.293.254-9.297-1.52-11.836-4.894-3.176-4.235-2.363-9.141-2.098-10.75.79-4.707 2.34-9.012 3.84-13.172 2.153-5.98 4.012-11.145 3.02-15.688.004-.008-.016-.015-.04-.015-.175 0-.382.004-.62.015-10.157.45-19.926 6.914-24.309 16.086l-14.438-6.898c6.97-14.578 21.903-24.457 38.043-25.172 2.997-.129 7.493.031 11.364 3.008 2.832 2.18 4.726 5.398 5.633 9.57 1.972 9.035-.989 17.258-3.602 24.516-.89 2.476-1.75 4.859-2.379 7.152 3.668-.371 7.129-1.148 10.738-1.96 6.067-1.368 12.282-2.778 19.145-2.583 8.012.223 11.246 4.445 12.457 6.941 1.902 3.895 1.016 7.692.594 9.52l-6.653 28.863c.64-.195 1.274-.422 1.907-.644 2.695-.946 6.066-2.102 10-1.914 11.855.582 18.511 12.07 19.843 23.191.196 1.621.332 3.273.465 4.93.395 4.906.77 9.543 2.89 12.156zm0 0" fill="#7cd5ed"></path><path d="M127.285 130.617a98.332 98.332 0 0 0-39.7-30.781c-15.456-6.555-31.077-8.082-43.983-4.313-14.29 4.168-25.489 15.508-27.875 28.223L0 120.793c3.527-18.777 18.883-34.727 39.121-40.629 16.453-4.8 35.875-3.039 54.707 4.938a114.322 114.322 0 0 1 46.168 35.804zm0 0" fill="#d85b55"></path><g fill="#3f4f4f"><path d="m213.992 56.629 14.672-6.371 19.316 44.457-14.671 6.37zM271.762 110.98l-14.399-6.976a165.365 165.365 0 0 1 27.664-40.473l11.727 10.883a149.472 149.472 0 0 0-24.992 36.566zM248.492 59.773c-.972-16.351 3.543-32.832 12.715-46.41l13.258 8.953C267.254 33 263.699 45.965 264.46 58.828zM455.41 169.832l-2.906-15.734c8.445-1.559 16.84-2.606 24.953-3.114l1 15.97c-7.477.468-15.23 1.437-23.047 2.878zM309 254.344l-12.242-10.305c31.305-37.176 79.644-68.375 129.305-83.469l4.648 15.313c-46.82 14.226-92.32 43.558-121.711 78.46zM197.96.23h16v16h-16zM341.957 16.23h16v16h-16zM445.957 96.23h16v16h-16zM21.96 16.23h16v16h-16zM157.96 144.23h16v16h-16zM69.96 192.23h16v16h-16zm0 0" fill="#3f4f4f"></path></g></g></svg>