<svg viewBox="0 0 512 512" xmlns="http://www.w3.org/2000/svg"><g><path d="M288 16.3S281 5 235 5s-71 42-71 76-28 49.3-28 95.3S177.7 245 256 245s120-13.7 120-55.2-28-76.1-28-106.8-28-73.2-60-66.7z" fill="#d84861"></path><path d="M278.1 210h-44.2v28.1L159 273.2c-14.1 6.6-23 20.7-23 36.2V398h240v-88.6c0-15.5-9-29.6-23-36.2l-74.9-35.1z" fill="#1f3e75"></path><path d="M376 398v-88.6c0-15.5-9-29.6-23-36.2L316.2 256s-24.7 79-180.2 79v63z" fill="#14294d"></path><g fill="#ef917b"><path d="M320 161c25.8 0 28-20 28-29.3s-7.1-12.8-22.1-12.8H320zM192 161c-25.8 0-28-20-28-29.3s7.1-12.8 22.1-12.8h5.9zM106 358h300v149H106z" fill="#ef917b"></path></g><path d="M106 358h300v60H106z" fill="#e96b4e"></path><path d="M251 271h10v113h-10z" fill="#ebeae0"></path><path d="M256 245c-9.4 0-17 7.6-17 17v18c0 9.4 7.6 17 17 17s17-7.6 17-17v-18c0-9.4-7.6-17-17-17z" fill="#d84861"></path><path d="M165 268h10v115h-10z" fill="#ebeae0"></path><path d="M188.4 252.6c-6.6-6.6-17.4-6.6-24 0l-12.7 12.7c-6.6 6.6-6.6 17.4 0 24 6.6 6.6 17.4 6.6 24 0l12.7-12.7c6.6-6.6 6.6-17.3 0-24z" fill="#d84861"></path><path d="M337 268h10v115h-10z" fill="#ebeae0"></path><path d="M323.6 252.6c6.6-6.6 17.4-6.6 24 0l12.7 12.7c6.6 6.6 6.6 17.4 0 24-6.6 6.6-17.4 6.6-24 0l-12.7-12.7c-6.6-6.6-6.6-17.3 0-24z" fill="#d84861"></path><path d="M326 99v28.5s-2.5 49.9-17.7 70.4C292.8 218.7 256 229 256 229s-36.8-10.3-52.3-31.1c-15.2-20.5-17.7-70.4-17.7-70.4V99c70.3 0 102-48 102-48s13.7 48 38 48z" fill="#f5b7a9"></path><path d="M288 51s-31.7 48-102 48v19.6l.1.4s58.6 8.7 96.9-36c0 0 9.9 36 42.9 36h.1V99c-24.3 0-38-48-38-48z" fill="#ef917b"></path><path d="M300.9 138c-2-1.3-6.6-4-13.1-4-6.3 0-10.9 2.7-12.8 4l-3 8h21c4.4 0 8-3.6 7.9-8zM271 183.8c-.6-.8-6-7.9-15.2-7.8-9 .1-14.2 6.9-14.8 7.8 0 0-.3 12.2 15 12.2s15-12.2 15-12.2z" fill="#ebeae0"></path><path d="M301.6 122.4c-2.9-1.6-7.6-3.4-13.6-3.4h-.2c-6 0-10.6 1.9-13.5 3.4l-4.8-8.8c3.8-2.1 10.1-4.6 18.2-4.6 8.2 0 14.7 2.5 18.6 4.6zM237.6 122.4c-2.9-1.6-7.7-3.4-13.8-3.4-6 0-10.6 1.9-13.5 3.4l-4.8-8.8c3.8-2.1 10.1-4.6 18.2-4.6h.2c8.1 0 14.5 2.5 18.4 4.6zM298.2 142.2c-2.2-1.4-5.7-3.2-10.2-3.2h-.1c-4.5 0-8 1.7-10.1 3.2l-5.5-8.3c3.3-2.2 8.6-4.8 15.6-4.8h.2c7 0 12.4 2.6 15.8 4.8z" fill="#1f3e75"></path><path d="M283 134h10v12h-10z" fill="#1f3e75"></path><path d="M211.1 138c2-1.3 6.6-4 13.1-4 6.3 0 10.9 2.7 12.8 4l3 8h-21c-4.4 0-8-3.6-7.9-8z" fill="#ebeae0"></path><path d="m213.8 142.2-5.5-8.3c3.3-2.2 8.7-4.8 15.8-4.8h.2c6.9 0 12.3 2.7 15.6 4.8l-5.5 8.3c-2.1-1.4-5.6-3.2-10.1-3.2h-.1c-4.7 0-8.3 1.7-10.4 3.2z" fill="#1f3e75"></path><path d="M219 134h10v12h-10z" fill="#1f3e75"></path><path d="M75 358h362v40H75z" fill="#ef917b"></path><path d="M75 358h154v40H75z" fill="#f5b7a9"></path></g></svg>