<svg viewBox="0 0 453.54 453.54" xmlns="http://www.w3.org/2000/svg"><g><path d="M128.631 18.028c-15.579 7.573-29.66 17.975-41.123 32.004C76.261 63.8 66.682 82.853 62.409 100.15c-5.467 22.145-4.641 44.919-9.009 67.045-2.281 11.549-25.119 32.246-30.625 42.772-14.3 27.343-3.551 39.028 11.316 59.836 7.142 9.995 14.91 21.299 14.493 34.167-.566 17.301-18.359 27.019-21.413 43.527-2.438 13.184 2.136 25.614 9.834 36.246 23.33 32.219 64.294 26.6 99.019 24.091 27.172-1.964 54.688-2.357 81.582 2.606 22.256 4.108 45.784 13.598 68.723 9.025 20.588-4.103 33.035-20.595 48.828-32.766 23.364-18 58.688-13.812 81.874-32.138 39.517-31.238-29.313-69.805-2.039-102.505 21.814-26.156 34.562-55.36 5.887-81.333-28.273-25.609-33.92-69.138-51.138-101.208-16.449-30.644-47.116-50.64-79.818-60.644-18.819-5.756-38.98-8.043-58.607-8.69-34.267-1.127-71.484 2.687-102.685 17.847z" fill="#eca074"></path><path d="M342.854 453.542c-3.269-67.532-52.084-121.148-111.843-121.148-59.755 0-108.571 53.616-111.839 121.148z" fill="#f6c6b1"></path><path d="M262.235 337.455c16.235 5.387 30.938 14.887 43.229 27.426-8.099 11.888-12.837 26.246-12.837 41.715 0 17.813 6.284 34.158 16.746 46.946H152.652c10.466-12.788 16.746-29.134 16.746-46.946 0-15.469-4.737-29.827-12.833-41.715 12.15-12.398 26.656-21.825 42.671-27.242l27.533 26.842z" fill="#afa6d2"></path><path d="M388.134 159.937c0 86.777-70.345 157.118-157.122 157.118-86.773 0-157.118-70.341-157.118-157.118 0-86.776 70.345-157.12 157.118-157.12 86.777-.001 157.122 70.343 157.122 157.12z" fill="#eca074"></path><path d="M119.942 217.49c0 15.831-12.84 28.668-28.672 28.668-15.831 0-28.668-12.837-28.668-28.668 0-15.833 12.837-28.668 28.668-28.668 15.833 0 28.672 12.835 28.672 28.668z" fill="#f7bbac"></path><circle cx="370.754" cy="217.49" fill="#f7bbac" r="28.669"></circle><circle cx="231.013" cy="195.931" fill="#fbd3c2" r="148.39"></circle><path d="M187.834 224.226c0 11.113-12.077 20.124-26.978 20.124-14.903 0-26.98-9.011-26.98-20.124 0-11.111 12.077-20.12 26.98-20.12 14.901-.001 26.978 9.008 26.978 20.12zM328.151 224.226c0 11.113-12.078 20.124-26.978 20.124-14.903 0-26.98-9.011-26.98-20.124 0-11.111 12.077-20.12 26.98-20.12 14.9-.001 26.978 9.008 26.978 20.12z" fill="#f39e9c"></path><circle cx="172.239" cy="191.541" fill="#2f271e" r="10.26"></circle><circle cx="289.789" cy="191.541" fill="#2f271e" r="10.26"></circle><path d="M231.012 227.759c-9.269 0-17.876-4.875-22.464-12.722a3.535 3.535 0 0 1 6.101-3.568c3.327 5.69 9.597 9.224 16.363 9.224 6.771 0 13.04-3.533 16.366-9.224a3.535 3.535 0 0 1 6.101 3.568c-4.587 7.847-13.197 12.722-22.467 12.722z" fill="#2f271e"></path><path d="M279.619 22.459C172.33-17.061 110.775 65.01 110.775 65.01c-32.332 53.785-28.061 125.143-28.061 125.143l28.109-69.408c.001-.001 215.742 8.163 168.796-98.286z" fill="#eca074"></path><path d="M258.479 16.061c50.985-.528 92.77 48.949 92.77 48.949 32.332 53.785 28.061 125.143 28.061 125.143l-15.817-41.238c-.002-.001-105.035-47.989-105.014-132.854z" fill="#eca074"></path><path d="m226.77 364.48-27.533-26.842s-21.415 10.939 0 30.964c-.001.001 16.573 21.202 27.533-4.122z" fill="#ffffff"></path><path d="m226.77 364.48 35.466-27.025s19.882 9.358-.656 27.909c-.001 0-16.785 22.084-34.81-.884z" fill="#ffffff"></path></g></svg>