<svg viewBox="0 0 512 512" xmlns="http://www.w3.org/2000/svg"><g><path d="M52.879 199.348 3.577 123.29c-6.748-10.41-3.665-24.329 6.848-30.915l106.37-66.647c10.349-6.484 23.992-3.401 30.546 6.904l56.396 88.666 98.794 126.433L75.264 355.194l-20.582-71.965a90.145 90.145 0 0 1-2.435-38.444l4.326-28.229a24.736 24.736 0 0 0-3.694-17.208z" fill="#ffbd86"></path><path d="m509.414 267.476-56.248-101.154c-5.841-10.508-19.44-13.743-29.381-6.995l-43.819 29.701a79.992 79.992 0 0 1-23.79 10.946l-201.886 55.17a72.145 72.145 0 0 0-23.849 12.847 72.312 72.312 0 0 0-17.431 20.748L53.322 393.817c-6.84 12.043-4.687 26.403 3.781 35.943 3.379 3.822 7.778 6.871 13.011 8.695-7.531 16.534.556 36.005 17.729 42.382l.711.268c13.403 4.976 28.464-.103 36.128-12.166l65.942-103.863 128.701-21.695 4.564 10.487c7.561 17.338 4.152 37.519-8.684 51.416l-33.501 34.872c-10.807 11.25-10.889 29-.175 40.342a29.221 29.221 0 0 0 21.273 9.169 29.214 29.214 0 0 0 17.4-5.749l58.535-43.36a85.932 85.932 0 0 0 31.338-42.485l17.863-53.302a28.855 28.855 0 0 1 13.372-16.081l60.142-33.368c9.899-5.481 13.464-17.967 7.962-27.846z" fill="#ffe5c2"></path><path d="m509.414 267.475-56.248-101.154c-5.841-10.508-19.44-13.743-29.381-6.995l-5.769 3.904a20.434 20.434 0 0 1 2.102 3.091l56.258 101.154c5.501 9.89 1.926 22.365-7.963 27.846l-59.875 33.222a29.689 29.689 0 0 0-13.748 16.531l-17.754 52.997a85.95 85.95 0 0 1-31.348 42.485l-58.535 43.36c-.288.216-.587.422-.886.629a29.218 29.218 0 0 0 16.534 5.12 29.14 29.14 0 0 0 17.4-5.749l58.535-43.36a85.932 85.932 0 0 0 31.338-42.485l17.864-53.299a28.881 28.881 0 0 1 13.37-16.075l60.143-33.376c9.9-5.481 13.465-17.956 7.963-27.846z" fill="#fed2a4"></path><path d="M296.739 303.812c-7.018-13.775-30.536-11.713-30.536-11.713-10.914 7.96-14.748 22.882-8.419 35.304l-48.513-23.723c-10.83 7.98-14.726 22.924-8.419 35.303l.695 1.364c-7.018-13.775-41.464-9.887-41.464-9.887-10.776 7.992-14.712 22.951-8.419 35.303l18.256 35.83c-15.549-8.85-41.292-9.57-41.292-9.57-10.914 7.96-14.747 22.882-8.419 35.303l12.293 24.144c7.018 13.775 23.875 19.252 37.649 12.233 13.766-7.014 19.244-23.852 12.247-37.622 7.027 13.755 23.869 19.22 37.635 12.206 13.775-7.018 19.252-23.875 12.234-37.649 7.018 13.775 23.875 19.252 37.649 12.234 13.775-7.018 19.252-23.875 12.233-37.649 7.018 13.775 23.875 19.252 37.649 12.233 13.776-7.016-23.059-83.644-23.059-83.644z" fill="#ffbd86"></path><g fill="#f6a96c"><path d="m232.267 400.641-30.719-60.292c-7.018-13.775-23.875-19.252-37.649-12.233a28.19 28.19 0 0 0-3.815 2.346 27.87 27.87 0 0 1 8.422 9.887l30.719 60.292c6.328 12.421 2.494 27.343-8.419 35.303 8.25 6.021 19.504 7.3 29.228 2.346 13.774-7.018 19.251-23.875 12.233-37.649zM282.15 375.225l-31.415-61.656c-7.018-13.775-23.875-19.252-37.649-12.233a28.19 28.19 0 0 0-3.815 2.346 27.87 27.87 0 0 1 8.422 9.887l31.415 61.656c6.328 12.421 2.494 27.343-8.419 35.303 8.25 6.022 19.504 7.3 29.228 2.346 13.774-7.018 19.251-23.875 12.233-37.649zM332.033 349.809l-24.365-47.821c-7.018-13.775-23.875-19.252-37.649-12.234a28.19 28.19 0 0 0-3.815 2.346 27.865 27.865 0 0 1 8.422 9.888l24.365 47.821c6.328 12.421 2.494 27.343-8.419 35.303 8.25 6.022 19.504 7.3 29.228 2.346 13.774-7.018 19.251-23.875 12.233-37.649zM182.385 426.056l-12.293-24.144c-7.018-13.775-23.875-19.252-37.649-12.233a28.19 28.19 0 0 0-3.815 2.346 27.87 27.87 0 0 1 8.422 9.887l12.293 24.144c6.328 12.421 2.494 27.344-8.419 35.304 8.25 6.021 19.504 7.3 29.228 2.346 13.774-7.019 19.252-23.875 12.233-37.65z" fill="#f6a96c"></path></g><path d="m203.738 121.298 65.743 40.716a48.938 48.938 0 0 1 20.135 24.635l25.277 68.366c4.659 12.601-1.847 26.585-14.487 31.137a24.182 24.182 0 0 1-27.632-8.365l-43.113-58.252-46.403-1.423a58.015 58.015 0 0 1-44.475-22.969l-28.656-37.85z" fill="#ffbd86"></path><path d="m314.893 255.015-25.277-68.366a48.943 48.943 0 0 0-20.135-24.635l-65.744-40.716-56.397-88.666c-6.554-10.305-20.197-13.388-30.546-6.904l-5.319 3.333c.849.874 39.708 61.682 54.009 84.075a42.51 42.51 0 0 0 13.452 13.265l57.502 35.612a48.936 48.936 0 0 1 20.135 24.636l25.277 68.365c3.479 9.41.73 19.59-6.148 26.039 6.537 6.116 16.055 8.214 24.704 5.099 12.641-4.552 19.147-18.535 14.487-31.137z" fill="#f6a96c"></path><path d="m128.082 312.278-.649 1.401c-13.877 30.236-47.254 102.936-57.319 124.775-5.233-1.823-9.632-4.873-13.011-8.695 11.126-24.168 42.856-93.252 56.289-122.53l.649-1.401c1.782-3.884 6.367-5.584 10.24-3.802a7.727 7.727 0 0 1 3.801 10.252z" fill="#fed2a4"></path><path d="m223.254 236.297-7.436-9.154-42.659-1.308c-19.97-.613-38.34-10.1-50.398-26.028l-28.656-37.849a7.726 7.726 0 1 1 12.32-9.328l28.656 37.849c9.224 12.185 23.276 19.443 38.552 19.911l46.403 1.423a7.722 7.722 0 0 1 5.973 3.126l12.892 17.082z" fill="#f6a96c"></path></g></svg>