<svg viewBox="0 0 512 512" xmlns="http://www.w3.org/2000/svg"><g><path d="M487.461 120.032v34.633H24.529v-34.633a28.588 28.588 0 0 1 17.647-26.414L247.367 8.597a22.558 22.558 0 0 1 17.256 0l205.192 85.021a28.589 28.589 0 0 1 17.646 26.414z" fill="#e1f0ff"></path><g fill="#cae4f9"><path d="M487.461 120.036v34.633h-51.509v-34.633a28.588 28.588 0 0 0-17.647-26.414L230.245 15.7l17.122-7.098a22.558 22.558 0 0 1 17.256 0l205.192 85.021a28.587 28.587 0 0 1 17.646 26.413zM102.373 154.665H71.639v-28.39c0-7.106 5.913-12.815 12.991-12.815l30.553.004z" fill="#cae4f9"></path></g><g fill="#d9b1ee"><path d="M338.55 202.02h115.14V458.8H338.55zM198.43 202.02h115.14V458.8H198.43zM60.8 202.02h115.14V458.8H60.8z" fill="#d9b1ee"></path></g><path d="M142.54 202.02h33.4V458.8h-33.4zM281.14 202.02h32.43V458.8h-32.43z" fill="#cb97e7"></path><path d="M301.684 446.193 256 458.8l-45.753-12.607-6.483-50.465 6.483-44.041a20.734 20.734 0 0 1 7.523-15.98l27.907-22.934s12.821-2.602 19.748 3.133l24.81 27.01 23.334 61.259z" fill="#9c9c9c"></path><path d="m301.689 351.672 11.882 52.502-11.882 42.017-13.237 3.653-7.367-3.653v-94.519a20.752 20.752 0 0 0-7.52-15.968l-26.228-21.716a15.622 15.622 0 0 0-1.659-1.216 18.736 18.736 0 0 1 22.262 1.216l26.228 21.716a20.75 20.75 0 0 1 7.521 15.968z" fill="#838383"></path><path d="m195.808 450.93-9.11 2.99-23.56-7.73V220.14l23.56-9.75 10.08 4.17z" fill="#e1f0ff"></path><path d="M210.248 220.14v226.05l-14.44 4.74-6.16-4.74V220.14l7.13-5.58z" fill="#cae4f9"></path><path d="M256 453.917a7.726 7.726 0 0 1-7.726-7.726V354.78a7.725 7.725 0 0 1 7.726-7.726 7.725 7.725 0 0 1 7.726 7.726v91.411a7.725 7.725 0 0 1-7.726 7.726z" fill="#838383"></path><path d="m334.416 450.93-9.11 2.99-23.56-7.73V220.14l23.56-9.75 10.08 4.17z" fill="#e1f0ff"></path><path d="M348.856 220.14v226.05l-14.44 4.74-6.16-4.74V220.14l7.13-5.58z" fill="#cae4f9"></path><path d="M419.75 202.02h33.94V458.8h-33.94z" fill="#cb97e7"></path><path d="M487.46 220.14v226.05l-14.44 4.74-9.11 2.99-23.56-7.73V220.14l23.56-9.75 10.08 4.17z" fill="#e1f0ff"></path><path d="M487.46 220.14v226.05l-14.44 4.74-6.16-4.74V220.14l7.13-5.58z" fill="#cae4f9"></path><path d="m57.201 450.93-9.11 2.99-23.56-7.73V220.14l23.56-9.75 10.08 4.17z" fill="#e1f0ff"></path><path d="M71.641 220.14v226.05l-14.44 4.74-6.16-4.74V220.14l7.13-5.58z" fill="#cae4f9"></path><path d="m466.857 174.985 12.836 22.582-12.836 22.582-85.731-.004-175.109-7.994-134.378 7.994h-47.11v-45.164z" fill="#9c9c9c"></path><g fill="#838383"><path d="M466.857 174.985h20.604v45.164h-20.604zM71.639 174.981h309.487v45.164H71.639z" fill="#838383"></path></g><path d="M512 153.77v21.428a6.805 6.805 0 0 1-6.799 6.799H6.799A6.805 6.805 0 0 1 0 175.198V153.77a6.799 6.799 0 0 1 6.799-6.799h498.402A6.799 6.799 0 0 1 512 153.77z" fill="#4f66d0"></path><path d="M512 153.775v21.428a6.805 6.805 0 0 1-6.799 6.799h-51.509a6.805 6.805 0 0 0 6.799-6.799v-21.428a6.799 6.799 0 0 0-6.799-6.799h51.509a6.798 6.798 0 0 1 6.799 6.799zM71.639 146.971h309.487v35.026H71.639z" fill="#314dc9"></path><path d="M396.812 250.535h-281.63c-7.074 0-12.809-5.735-12.809-12.809V126.272c0-7.074 5.735-12.809 12.809-12.809h281.63c7.074 0 12.809 5.735 12.809 12.809v111.454c0 7.074-5.735 12.809-12.809 12.809z" fill="#4f66d0"></path><path d="M409.621 126.269v111.455c0 7.077-5.738 12.815-12.805 12.815H365.91c7.067 0 12.805-5.738 12.805-12.815V126.269c0-7.067-5.738-12.805-12.805-12.805h30.905c7.068 0 12.806 5.738 12.806 12.805z" fill="#314dc9"></path><path d="M368.317 250.533H115.182c-7.074 0-12.809-5.735-12.809-12.809V126.27c0-7.074 5.735-12.809 12.809-12.809h253.135c7.074 0 26.623 5.735 26.623 12.809v111.454c.001 7.074-19.548 12.809-26.623 12.809z" fill="#4f66d0"></path><path d="M396.812 113.461h-28.495c7.074 0 12.809 5.735 12.809 12.809v111.454c0 7.074-5.735 12.809-12.809 12.809h28.495c7.074 0 12.809-5.735 12.809-12.809V126.27c0-7.074-5.735-12.809-12.809-12.809z" fill="#314dc9"></path><g fill="#e1f0ff"><path d="M205.055 174.27h-20.958a7.726 7.726 0 1 0 0 15.452h12.476c-2.052 10.195-8.485 19.578-21.758 19.578-15.055 0-27.304-12.248-27.304-27.305 0-15.055 12.248-27.304 27.304-27.304 5.473 0 10.75 1.611 15.261 4.659a7.727 7.727 0 0 0 8.651-12.804c-7.075-4.78-15.344-7.307-23.911-7.307-23.576 0-42.757 19.18-42.757 42.757s19.181 42.758 42.757 42.758c22.354 0 37.966-17.582 37.966-42.758a7.727 7.727 0 0 0-7.727-7.726zM374.645 139.763a7.727 7.727 0 0 0-9.768 4.896l-17.168 51.68-18.018-51.906c-1.399-4.032-5.805-6.171-9.832-4.766a7.726 7.726 0 0 0-4.766 9.832l23.972 69.063a9.316 9.316 0 0 0 8.771 6.191l.064-.001c3.958-.026 7.474-2.562 8.766-6.362l22.875-68.86a7.725 7.725 0 0 0-4.896-9.767zM266.654 139.24c-23.576 0-42.757 19.18-42.757 42.757s19.181 42.758 42.757 42.758 42.757-19.181 42.757-42.758-19.181-42.757-42.757-42.757zm0 70.062c-15.056 0-27.304-12.248-27.304-27.305 0-15.055 12.248-27.304 27.304-27.304 15.055 0 27.304 12.248 27.304 27.304s-12.249 27.305-27.304 27.305z" fill="#e1f0ff"></path></g><path d="M243.529 84.927a7.727 7.727 0 0 1-5.463-13.191l24.937-24.937a7.73 7.73 0 0 1 10.928 0 7.729 7.729 0 0 1 0 10.928l-24.938 24.937a7.705 7.705 0 0 1-5.464 2.263z" fill="#cae4f9"></path><path d="M394.941 309.364a7.725 7.725 0 0 1-7.726-7.726v-18.957a7.726 7.726 0 1 1 15.452 0v18.957a7.726 7.726 0 0 1-7.726 7.726zM394.941 362.506a7.725 7.725 0 0 1-7.726-7.726v-18.957a7.726 7.726 0 1 1 15.452 0v18.957a7.726 7.726 0 0 1-7.726 7.726zM394.941 415.649a7.725 7.725 0 0 1-7.726-7.726v-18.958a7.726 7.726 0 1 1 15.452 0v18.958a7.726 7.726 0 0 1-7.726 7.726zM118.371 309.364a7.726 7.726 0 0 1-7.726-7.726v-18.957a7.726 7.726 0 1 1 15.452 0v18.957a7.726 7.726 0 0 1-7.726 7.726zM118.371 362.506a7.726 7.726 0 0 1-7.726-7.726v-18.957a7.726 7.726 0 1 1 15.452 0v18.957a7.726 7.726 0 0 1-7.726 7.726zM118.371 415.649a7.726 7.726 0 0 1-7.726-7.726v-18.958a7.726 7.726 0 1 1 15.452 0v18.958a7.726 7.726 0 0 1-7.726 7.726z" fill="#cb97e7"></path><path d="M24.532 446.193h462.93v29.462l-235.484 17.604-227.446-17.604z" fill="#4f66d0"></path><path d="M487.461 446.192v29.463l-47.107 3.853v-33.316z" fill="#314dc9"></path><path d="M6.804 475.655h498.392a6.804 6.804 0 0 1 6.804 6.804v15.854a6.804 6.804 0 0 1-6.804 6.804H6.804A6.804 6.804 0 0 1 0 498.313v-15.854a6.804 6.804 0 0 1 6.804-6.804z" fill="#e1f0ff"></path><path d="M512 482.464v15.844c0 3.76-3.049 6.81-6.799 6.81h-51.509c3.75 0 6.799-3.049 6.799-6.81v-15.844c0-3.76-3.049-6.809-6.799-6.809h51.509c3.75 0 6.799 3.049 6.799 6.809z" fill="#cae4f9"></path></g></svg>