<svg viewBox="0 0 64 64" xmlns="http://www.w3.org/2000/svg"><g><path d="m2 43 10-28h40l10 28z" fill="#93622c"></path><path d="M8.022 26.137c6.172 1.795 15.011 2.921 24.833 2.921a98.044 98.044 0 0 0 23.274-2.5L52 15H12z" fill="#a56c34"></path><path d="M2 43h60v6H2z" fill="#c48857"></path><g fill="#754317"><path d="m27.753 15.658.576-.658h-2.815a12.56 12.56 0 0 1-8.171 3h-6.414l-.715 2h7.129a14.587 14.587 0 0 0 10.41-4.342zM27.447 22.9a18.023 18.023 0 0 1 8.025-1.9h18.671l-.714-2H35.472a20.048 20.048 0 0 0-8.919 2.105A18.023 18.023 0 0 1 18.528 23H9.143l-.714 2h10.1a20.048 20.048 0 0 0 8.918-2.1zM49.28 36H59.5l-.714-2H49.28a8.692 8.692 0 0 1-7.839-5H57l-.714-2H37.359A9.041 9.041 0 0 1 43 25h12.571l-.714-2H43a11.043 11.043 0 0 0-8.461 4H7.714L7 29h32.279a10.7 10.7 0 0 0 10.001 7zM46.472 38a18.023 18.023 0 0 1-8.025-1.9 20.048 20.048 0 0 0-8.919-2.1H5.214L4.5 36h25.028a18.023 18.023 0 0 1 8.025 1.9 20.048 20.048 0 0 0 8.919 2.1h14.457l-.715-2zM30.8 42.4A11.054 11.054 0 0 0 22 38H3.786l-.715 2H22a9.039 9.039 0 0 1 6.69 3h2.471l-.3-.509a1.11 1.11 0 0 0-.061-.091z" fill="#754317"></path></g></g></svg>