<svg viewBox="0 0 512 512" xmlns="http://www.w3.org/2000/svg"><g><path d="M237.945 387.2h55.727c28.566 0 51.723 23.152 51.723 51.722v58.871H53.867v-58.871c0-28.57 23.156-51.723 51.723-51.723h55.726" fill="#fc445f"></path><path d="M163.059 387.2c-28.567 0-51.723 23.152-51.723 51.722v62.7H53.867v-62.7c0-28.57 23.156-51.723 51.723-51.723zm0 0" fill="#db0e35"></path><path d="M239.336 361.91v14.84c0 16.332-9.852 30.352-23.938 36.457a39.63 39.63 0 0 1-15.77 3.25c-21.921 0-39.702-17.777-39.702-39.707v-14.84zm0 0" fill="#edc59d"></path><path d="M239.336 373.867v2.883c0 16.332-9.852 30.355-23.938 36.457-13.113-5.684-22.57-18.234-23.8-33.125 2.652.18 5.328.262 8.035.262 13.887 0 27.238-2.278 39.703-6.477zm0 0" fill="#ffdcb6"></path><path d="M75.344 237.664h-.95c-17.484 0-31.66-14.176-31.66-31.66s14.176-31.66 31.66-31.66h250.481c17.484 0 31.66 14.176 31.66 31.66s-14.176 31.66-31.66 31.66h-.95" fill="#edc59d"></path><path d="M323.926 119.805v124.293c0 68.644-55.649 124.293-124.29 124.293-68.644 0-124.292-55.649-124.292-124.293V119.805" fill="#ffdcb6"></path><path d="M198.754 368.383c-33.977-.227-64.7-14.094-87.008-36.395-22.492-22.5-36.402-53.562-36.402-87.89V107.223H131.3v136.875c0 34.324 7.644 65.39 20.012 87.89 12.175 22.145 28.917 35.965 47.44 36.395zm0 0" fill="#edc59d"></path><path d="M254.668 224.023a7.839 7.839 0 0 1-7.836-7.84V188.11c0-4.328 3.508-7.836 7.836-7.836s7.836 3.508 7.836 7.836v28.075a7.839 7.839 0 0 1-7.836 7.84zM144.602 224.023a7.839 7.839 0 0 1-7.836-7.84V188.11a7.835 7.835 0 0 1 7.836-7.836 7.835 7.835 0 0 1 7.835 7.836v28.075a7.839 7.839 0 0 1-7.835 7.84zm0 0" fill="#212c33"></path><path d="M.008 0h284.27c30.386 0 30.081 24.633 30.081 55.02l23.024 22.699-23.024 42.086H113.34C50.747 119.805.009 69.066.009 6.473zm0 0" fill="#3e4c56"></path><path d="M210.754 119.809H113.34C50.738 119.809 0 69.066 0 6.477V0h97.426v6.477c0 62.59 50.738 113.332 113.328 113.332zm0 0" fill="#212c33"></path><path d="M211.645 278.191h-24.02c-10.852 0-19.648 8.797-19.648 19.649v14.05h63.316v-14.05c0-10.852-8.797-19.649-19.648-19.649zm0 0" fill="#fc445f"></path><path d="M20.57 465.758h358.121v46.238H20.571zm0 0" fill="#ba7e56"></path><path d="M512 40.313v117.015c0 22.258-18.055 40.313-40.313 40.313h-30.824l-53.101 44.804v-44.804h-33.09c-22.27 0-40.313-18.055-40.313-40.313V40.312C314.36 18.047 332.402 0 354.672 0h117.015C493.945 0 512 18.047 512 40.313zm0 0" fill="#5eb3dd"></path><path d="M481 103.438c-14.898 21.46-39.715 35.515-67.824 35.515-28.098 0-52.914-14.055-67.813-35.516a82.837 82.837 0 0 1 32.059-27.374c10.824-5.227 22.953-8.141 35.754-8.141 12.82 0 24.965 2.926 35.789 8.152A82.804 82.804 0 0 1 481 103.438zm0 0" fill="#ffffff"></path><path d="M449.883 84.203c0 20.25-16.426 36.676-36.695 36.676-20.25 0-36.676-16.426-36.676-36.676 0-2.8.312-5.52.91-8.14 10.824-5.227 22.953-8.141 35.754-8.141 12.82 0 24.965 2.926 35.789 8.152.605 2.61.918 5.336.918 8.13zm0 0" fill="#212c33"></path></g></svg>