<svg viewBox="0 0 512 512" xmlns="http://www.w3.org/2000/svg"><g><path d="M256 22C120.69 22 11 131.69 11 267c0 97.731 57.23 182.086 140 221.409l1-.633v-23.242c.97.31 1.974.466 3 .466h202c1.026 0 2.03-.156 3-.466v23.242l1 .633C443.77 449.086 501 364.731 501 267c0-135.31-109.69-245-245-245z" fill="#cb97e7"></path><path d="M466.945 391.663C464.634 277.134 371.082 185 256 185S47.366 277.134 45.055 391.663c24.808 41.881 61.73 75.74 105.945 96.746l1-.633v-23.242c.97.31 1.974.466 3 .466h202c1.026 0 2.03-.156 3-.466v23.242l1 .633c44.215-21.006 81.137-54.865 105.945-96.746z" fill="#bc80e0"></path><path d="M357 464H155a8.92 8.92 0 0 1-4-.95v25.359C182.825 503.529 218.422 512 256 512s73.175-8.471 105-23.591V463.05a8.92 8.92 0 0 1-4 .95z" fill="#3e5959"></path><path d="M191 464h-36a8.92 8.92 0 0 1-4-.95v25.359a243.552 243.552 0 0 0 40 14.844z" fill="#384949"></path><g fill="#fff"><path d="M173.161 184.336v155.078L256 422.253l82.839-82.839V184.336h-41.944v44.033c0 1.738-1.461 2.814-2.814 2.814-.486 0-.955-.127-1.392-.378l-34.295-19.673a4.812 4.812 0 0 0-4.788 0l-34.295 19.673c-.437.25-.905.378-1.392.378-1.354 0-2.814-1.076-2.814-2.814v-44.033zM145 389.586V455c0 5.523 4.477 10 10 10h65.414zM291.586 465H357c5.523 0 10-4.477 10-10v-65.414z" fill="#ffffff"></path></g><path d="M169 455V205.291c0-11.573 8.726-20.955 19.49-20.955h-24c-10.764 0-19.49 9.382-19.49 20.955V455c0 5.523 4.477 10 10 10h24c-5.523 0-10-4.477-10-10z" fill="#eaf9fa"></path><path d="M258.394 211.132a4.812 4.812 0 0 0-4.788 0l-20.669 11.857 13.16 24.613 1.179 1h17.447l1.179-1 13.16-24.613z" fill="#678d98"></path><path d="m254.084 220.574 10.384-5.957-6.075-3.485a4.812 4.812 0 0 0-4.788 0l-20.669 11.857 13.16 24.613 1.179 1h16.937l-1.179-1-10.872-20.333a5.002 5.002 0 0 1 1.923-6.695z" fill="#537983"></path><path d="m256 422.253 25.14-25.14-15.238-149.512h-19.804L230.86 397.113z" fill="#3e5959"></path><path d="m248.201 392.387 14.756-144.785h-16.86L230.86 397.113l25.14 25.14 8.43-8.43-13.352-13.352a9.999 9.999 0 0 1-2.877-8.084z" fill="#384949"></path><path d="M293.196 166.063a41.484 41.484 0 0 1-21.324 5.876h-31.744a41.484 41.484 0 0 1-21.324-5.876c-2.819 1.768-4.698 4.895-4.698 8.468v53.837c0 2.927 3.165 4.76 5.704 3.304l34.296-19.673a3.81 3.81 0 0 1 3.79 0l34.296 19.673c2.539 1.456 5.704-.377 5.704-3.304v-53.837c-.001-3.573-1.881-6.699-4.7-8.468z" fill="#eaf9fa"></path><path d="M239.211 174.531c0-.904.122-1.779.348-2.611a41.478 41.478 0 0 1-20.755-5.857c-2.819 1.768-4.698 4.895-4.698 8.468v53.837c0 2.927 3.165 4.76 5.704 3.304l19.402-11.129v-46.012z" fill="#dff6fd"></path><path d="M271.872 171.939h-31.744c-3.049 0-6.019-.337-8.884-.961v3.443a3.81 3.81 0 0 0 1.375 2.93l20.947 17.402a3.81 3.81 0 0 0 4.868 0l20.947-17.402a3.81 3.81 0 0 0 1.375-2.93v-3.443a41.693 41.693 0 0 1-8.884.961z" fill="#ffb09e"></path><path d="M249.375 177.35a3.81 3.81 0 0 1-1.375-2.93v-2.481h-7.872c-3.049 0-6.019-.337-8.884-.961v3.443a3.81 3.81 0 0 0 1.375 2.93l20.947 17.402a3.81 3.81 0 0 0 4.868 0l5.944-4.938z" fill="#f89580"></path><path d="M292 50.553v19.494c11.919.726 21.412 10.555 21.605 22.608h10.908c1.787 0 3.511.273 5.135.777V58.616c0-27.92-22.633-50.553-50.553-50.553h-11.183C282.331 16.737 292 32.535 292 50.553z" fill="#384949"></path><path d="M187.487 92.656h10.908C198.595 80.13 208.841 70 221.413 70h69.173c.815 0 1.62.044 2.414.127V50.553C293 22.633 270.367 0 242.447 0h-53.518a6.576 6.576 0 0 0-6.576 6.576v86.857a17.252 17.252 0 0 1 5.134-.777z" fill="#3e5959"></path><path d="M212.02 6.576A6.576 6.576 0 0 1 218.595 0h-29.667a6.576 6.576 0 0 0-6.576 6.576v86.857a17.258 17.258 0 0 1 5.135-.777h10.908c.147-9.19 5.71-17.069 13.624-20.624V6.576z" fill="#384949"></path><path d="M198.386 130.198v-37.17c0-.461.018-.918.044-1.372h-10.943c-10.12 0-18.323 8.203-18.323 18.323v6.698c0 10.12 8.203 18.323 18.323 18.323h11.184a41.835 41.835 0 0 1-.285-4.802z" fill="#f89580"></path><path d="M324.513 91.656H313.57c.027.454.044.911.044 1.372v37.17c0 1.625-.103 3.225-.285 4.802h11.184c10.12 0 18.323-8.203 18.323-18.323v-6.698c0-10.12-8.204-18.323-18.323-18.323z" fill="#ffb09e"></path><path d="M197.386 93.028v37.17c0 23.606 19.136 42.742 42.742 42.742h31.745c23.606 0 42.742-19.136 42.742-42.742v-37.17c0-13.27-10.758-24.028-24.028-24.028h-69.173c-13.271 0-24.028 10.758-24.028 24.028z" fill="#ffcebf"></path><path d="M222.771 130.198v-37.17c0-13.27 10.758-24.028 24.028-24.028h-25.386c-13.27 0-24.028 10.758-24.028 24.028v37.17c0 23.606 19.136 42.742 42.742 42.742h25.386c-23.605 0-42.742-19.136-42.742-42.742z" fill="#ffb09e"></path><path d="M255.996 138.5a7.469 7.469 0 0 1-4.754-1.702l-9.924-8.143a7.5 7.5 0 0 1-.779-10.858l9.924-10.857a7.501 7.501 0 0 1 11.073 10.12l-4.587 5.018 3.809 3.125a7.499 7.499 0 0 1-4.762 13.297zM224.437 128.336a7.5 7.5 0 0 1-7.5-7.5V109c0-4.142 3.357-7.5 7.5-7.5s7.5 3.358 7.5 7.5v11.836a7.5 7.5 0 0 1-7.5 7.5zM287.563 128.336a7.5 7.5 0 0 1-7.5-7.5V109c0-4.142 3.357-7.5 7.5-7.5s7.5 3.358 7.5 7.5v11.836a7.5 7.5 0 0 1-7.5 7.5zM271 159.5h-30c-4.143 0-7.5-3.358-7.5-7.5s3.357-7.5 7.5-7.5h30c4.143 0 7.5 3.358 7.5 7.5s-3.357 7.5-7.5 7.5z" fill="#f89580"></path><path d="M360.346 184.336h-22.507V339l-82.546 82.546 29.439 29.439c4.675 4.675 6.3 11.245 4.917 17.258l.055.055 96.904-96.904a15 15 0 0 0 4.393-10.607V214.99c-.001-16.93-13.725-30.654-30.655-30.654z" fill="#eaf9fa"></path><path d="M337.839 184.336V339L256 420.839l12.832 12.832 86.007-86.007V184.336z" fill="#dff6fd"></path><path d="m285.439 450.278-22.561-22.561-2.32.907-37.32 37.319-.941 2.355 22.561 22.561c7.616 7.616 19.965 7.616 27.581 0l13-13c7.616-7.617 7.616-19.965 0-27.581z" fill="#ffcebf"></path><path d="m270.561 490.858-15.49-15.49c-3.905-3.905-3.905-10.237 0-14.142l20.658-20.658-12.852-12.852-2.32.907-37.32 37.319-.941 2.355 22.561 22.561c7.314 7.314 18.982 7.584 26.642.849-.315-.278-.636-.547-.938-.849z" fill="#ffb09e"></path><path d="M214.003 98.502a7.501 7.501 0 0 1-2.913-14.414l19-8a7.5 7.5 0 0 1 5.82 13.824l-19 8c-.95.401-1.936.59-2.907.59zM297.997 98.502a7.457 7.457 0 0 1-2.907-.59l-19-8a7.5 7.5 0 0 1 5.82-13.824l19 8a7.5 7.5 0 0 1-2.913 14.414z" fill="#f89580"></path><path d="M262.878 427.717 174.161 339V184.336h-22.507c-16.93 0-30.654 13.724-30.654 30.654v145.797c0 3.978 1.58 7.794 4.393 10.607l96.904 96.904z" fill="#eaf9fa"></path><path d="M150.516 363.096a15 15 0 0 1-4.393-10.607V206.693c0-8.82 3.73-16.764 9.693-22.357h-4.161c-16.93 0-30.654 13.724-30.654 30.654v145.797c0 3.978 1.58 7.794 4.393 10.607l96.904 96.904 16.71-16.71z" fill="#dff6fd"></path><path d="m387.682 40.422-25.118 43.714C349.559 106.77 365.897 135 392 135s42.441-28.23 29.436-50.863l-25.118-43.714c-1.914-3.333-6.722-3.333-8.636-.001z" fill="#62dbfb"></path><path d="m392.668 84.137 14.384-25.034-10.734-18.681c-1.915-3.332-6.722-3.332-8.636 0l-25.118 43.715C349.559 106.77 365.897 135 392 135c5.518 0 10.592-1.273 15.052-3.476-16.639-8.22-24.64-29.539-14.384-47.387z" fill="#01d0fb"></path><path d="m124.67 81.035-20.453 35.596c-10.59 18.43 2.714 41.418 23.97 41.418 21.255 0 34.559-22.988 23.97-41.418l-20.453-35.596c-1.561-2.713-5.475-2.713-7.034 0z" fill="#62dbfb"></path><path d="m128.73 116.631 11.713-20.385-8.741-15.212c-1.559-2.713-5.473-2.713-7.032 0l-20.453 35.596c-10.59 18.43 2.714 41.417 23.97 41.417 4.493 0 8.625-1.036 12.257-2.83-13.551-6.692-20.065-24.052-11.714-38.586z" fill="#01d0fb"></path></g></svg>