<svg viewBox="0 0 512 512" xmlns="http://www.w3.org/2000/svg"><g><path clip-rule="evenodd" d="M325.314 47.863c-44.899 8.294-91.056 9.783-146.281 5.957-10.676-.759-19.247 12.09-15.824 21.639 40.541 112.985 61.923 280.344 207.707 278.154 8.629.759 14.245.175 21.324-3.942 80.614-41.088 96.146-115 97.199-194.314.263-19.507-.351-39.365-1.082-59.164-.907-24.238-2.018-48.359-1.901-71.575.029-2.979.058-5.928.117-8.878.174-10.133-12.843-19.04-22.524-14.543-36.68 17.025-69.85 29.641-102.581 38.46a473.764 473.764 0 0 1-36.154 8.206z" fill="#fece85" fill-rule="evenodd"></path><path clip-rule="evenodd" d="M435.588 172.119c-53.177 38.869-109.718 48.359-169.301 31.247-5.353-1.519-9.185 6.074-8.219 11.272 9.126 49.381 58.91 81.592 111.181 71.926 52.241-9.637 87.195-57.5 78.04-106.881-.937-5.169-7.196-10.864-11.701-7.564z" fill="#fbf8f8" fill-rule="evenodd"></path><path clip-rule="evenodd" d="M435.588 172.119c-8.278 6.045-16.643 11.389-25.068 16.032 7.108 42.811-18.779 84.191-60.139 100.135 6.201 0 12.519-.555 18.866-1.723 52.241-9.637 87.195-57.5 78.04-106.881-.935-5.168-7.194-10.863-11.699-7.563z" fill="#e0d2ce" fill-rule="evenodd"></path><path clip-rule="evenodd" d="M486.571 15.74c.176-10.133-12.841-19.04-22.522-14.543-3.071 1.402-6.113 2.803-9.126 4.176-.029 1.635-.029 3.3-.029 4.964-.146 24.355 1.024 49.644 1.96 75.08.79 20.734 1.433 41.555 1.141 62.026-1.112 83.169-17.404 160.643-101.908 203.717a35.81 35.81 0 0 1-3.452 1.811c5.879.526 11.963.73 18.281.642 8.629.759 14.245.175 21.324-3.942 80.614-41.088 96.146-115 97.199-194.314.263-19.507-.351-39.365-1.082-59.164-.907-24.238-2.018-48.359-1.901-71.575.028-2.979.057-5.929.115-8.878z" fill="#fdb440" fill-rule="evenodd"></path><path clip-rule="evenodd" d="M187.077 201.147c-45.66 0-91.32-6.892-144.936-20.705-10.325-2.657-21.09 8.41-19.481 18.427 19.276 118.475 9.828 286.915 153.564 311.211 8.336 2.336 13.982 2.774 21.704 0 86.727-25.757 115.48-95.609 130.954-173.405 3.832-19.157 6.845-38.81 9.711-58.376 3.539-24.005 6.845-47.921 11.203-70.758.527-2.92 1.112-5.811 1.697-8.673 2.048-9.929-9.126-21.084-19.481-18.427-39.166 10.104-74.091 16.499-107.875 19.215a464.639 464.639 0 0 1-37.06 1.491z" fill="#99e6fc" fill-rule="evenodd"></path><path clip-rule="evenodd" d="M272.897 343.363c-59.378 28.589-116.709 27.626-172.197 0-4.973-2.482-10.121 4.322-10.121 9.578 0 50.228 43.086 90.937 96.234 90.937 53.119 0 96.204-40.708 96.204-90.937.001-5.256-5.118-12.002-10.12-9.578z" fill="#fbf8f8" fill-rule="evenodd"></path><path clip-rule="evenodd" d="M272.897 343.363c-9.243 4.439-18.428 8.177-27.583 11.214-.79 43.395-33.784 79.372-77.367 87.549a102.787 102.787 0 0 0 18.866 1.752c53.119 0 96.204-40.708 96.204-90.937.001-5.256-5.118-12.002-10.12-9.578z" fill="#e0d2ce" fill-rule="evenodd"></path><path clip-rule="evenodd" d="M351.493 198.869c2.048-9.929-9.126-21.084-19.481-18.427a785.613 785.613 0 0 1-9.74 2.453 291.9 291.9 0 0 0-.936 4.906c-4.563 23.917-8.044 49.002-11.729 74.174-3.013 20.529-6.172 41.117-10.179 61.208-16.234 81.563-46.391 154.803-137.33 181.815a35.566 35.566 0 0 1-3.715 1.139c5.675 1.577 11.612 2.891 17.843 3.942 8.336 2.336 13.982 2.774 21.704 0 86.727-25.757 115.48-95.609 130.954-173.405 3.832-19.157 6.845-38.81 9.711-58.376 3.539-24.005 6.845-47.921 11.203-70.758.525-2.918 1.11-5.809 1.695-8.671z" fill="#2ed1e2" fill-rule="evenodd"></path><path d="M154.082 293.823a7.712 7.712 0 0 1-5.465-2.261c-14.212-14.188-37.337-14.19-51.549 0a7.736 7.736 0 0 1-10.934-.005 7.723 7.723 0 0 1 .005-10.927c20.238-20.205 53.169-20.205 73.408 0a7.723 7.723 0 0 1 .005 10.927 7.713 7.713 0 0 1-5.47 2.266zM279.537 293.823a7.712 7.712 0 0 1-5.465-2.261c-14.212-14.188-37.337-14.19-51.549 0a7.736 7.736 0 0 1-10.934-.005 7.723 7.723 0 0 1 .005-10.927c20.239-20.205 53.169-20.205 73.408 0a7.723 7.723 0 0 1 .005 10.927 7.713 7.713 0 0 1-5.47 2.266zM246.887 156.427a7.702 7.702 0 0 1-4.38-1.365 7.723 7.723 0 0 1-1.979-10.746c16.227-23.53 48.616-29.502 72.199-13.316a7.723 7.723 0 0 1 1.996 10.743c-2.417 3.518-7.23 4.409-10.751 1.995-16.567-11.37-39.315-7.178-50.711 9.346a7.728 7.728 0 0 1-6.374 3.343zM370.236 133.648a7.7 7.7 0 0 1-4.38-1.365 7.723 7.723 0 0 1-1.979-10.746c16.237-23.544 48.628-29.516 72.203-13.312a7.723 7.723 0 0 1 1.988 10.745c-2.419 3.514-7.235 4.403-10.752 1.987-16.558-11.38-39.302-7.186-50.707 9.348a7.725 7.725 0 0 1-6.373 3.343z" fill="#746e6e"></path></g></svg>