<svg fill-rule="evenodd" viewBox="0 0 1706.66 1706.66" xmlns="http://www.w3.org/2000/svg"><g><path d="M1590.13 1670.69c-7.78 0-14.86-4.44-18.06-11.53-11.68-25.4-98.47-203.97-98.47-214.44v-844.3c0-64.31 52.22-116.53 116.53-116.53s116.53 52.22 116.53 116.53v844.3c0 10.42-86.84 189.66-98.47 214.44-3.33 7.09-10.28 11.53-18.06 11.53z" fill="#fbe201"></path><path d="M1588.47 1391.66c-10.97 0-20-9.03-20-20V737.22c0-26.33 40-26.33 40 0v634.44c0 11.11-9.03 20-20 20z" fill="#fbcb01"></path><path d="M1473.61 684.16v-83.74c0-64.31 52.22-116.53 116.53-116.53s116.53 52.22 116.53 116.53v83.74z" fill="#fa3c48"></path><path d="M1590.13 1670.69c-7.78 0-14.86-4.44-18.06-11.53-11.68-25.4-98.47-203.97-98.47-214.44v-19.99h233.06v19.99c0 10.42-86.84 189.66-98.47 214.44-3.33 7.09-10.28 11.53-18.06 11.53z" fill="#f7ceb2"></path><path d="M1590.13 1670.69c-7.78 0-14.86-4.44-18.06-11.53-3.96-8.61-16.55-34.83-31.47-66.13 22.29-14.12 66.31-18.21 99.28-.27-15.03 31.54-27.74 57.94-31.7 66.39-3.33 7.09-10.28 11.53-18.06 11.53z" fill="#4a5254"></path><path d="M135.59 1673.33c-74.61 0-135.2-60.72-135.2-135.2v-202.46c0-10.54 8.54-19.22 19.22-19.22h231.96c10.68 0 19.22 8.67 19.22 19.22v202.46c0 74.47-60.59 135.2-135.2 135.2zM1561.92 390.21h-231.96c-10.55 0-19.22-8.54-19.22-19.22V168.53c0-74.61 60.72-135.2 135.2-135.2 74.47 0 135.2 60.73 135.2 135.2v202.46c0 10.67-8.54 19.22-19.22 19.22z" fill="#ff9c83"></path><path d="M1238.93 1673.33H135.59c74.61 0 135.2-60.72 135.2-135.2v-202.46c0-22.63-24.94-19.22-38.44-19.22V143.57c0-60.72 49.38-110.24 110.24-110.24h1103.34c-74.47 0-135.2 60.59-135.2 135.2v202.46c0 22.64 24.96 19.22 38.44 19.22v1172.88c0 60.86-49.52 110.24-110.24 110.24z" fill="#ffad92"></path><g fill="#fff"><path d="M1153.75 1366.66H673.34c-26.33 0-26.33-40 0-40h480.41c26.3 0 26.3 40 0 40zM1153.75 1139.3H673.34c-26.33 0-26.33-40 0-40h480.41c26.3 0 26.3 40 0 40zM1153.75 911.94H673.34c-26.33 0-26.33-40 0-40h480.41c26.3 0 26.3 40 0 40zM481.81 962.63c-5.28 0-10.42-2.08-14.17-5.83l-48.33-48.33c-18.49-18.49 9.43-47.07 28.33-28.33l34.17 34.17 87.08-87.08c18.54-18.54 46.97 9.53 28.33 28.33L495.97 956.81c-3.75 3.61-8.89 5.84-14.17 5.84zM481.81 1189.99c-5.28 0-10.42-2.08-14.17-5.83l-48.33-48.33c-18.49-18.49 9.43-47.07 28.33-28.33l34.17 34.17 87.08-87.08c18.54-18.54 46.97 9.53 28.33 28.33l-101.25 101.25c-3.75 3.62-8.89 5.84-14.17 5.84zM481.81 1417.35c-5.28 0-10.42-2.08-14.17-5.83l-48.33-48.33c-18.49-18.49 9.43-47.07 28.33-28.33l34.17 34.17 87.08-87.08c18.49-18.49 47.07 9.43 28.33 28.33l-101.25 101.25c-3.75 3.76-8.89 5.84-14.17 5.84z" fill="#ffffff"></path></g><path d="m998.58 616.69-356.55-8.5c-9.52-.23-17.99-6.2-20.87-15.42l-90.53-309.42c-4.13-13.72-16.89-18.48-1.82-18.48h517.39c49.58 0 59.16 37 47.47 77.41l-74.24 258.54c-2.57 9.52-11.19 15.87-20.87 15.87z" fill="#fbe201"></path><path d="m574.61 510.45-38.39-125.24c-4.13-13.73 5.8-28.12 20.87-28.12h532.34l-12.5 43.54h-490.5l24.65 80.44h442.76l-12.5 43.54H595.05c-9.07 0-17.2-5.63-20.43-14.16z" fill="#fbb701"></path><path d="M624.68 616.69c-9.22 0-17.84-6.05-20.86-15.27L478.63 199.24H369.76c-28.7 0-28.7-43.54 0-43.54h124.89c9.52 0 17.99 6.2 20.87 15.27L645.4 588.42c4.53 14.44-6.72 28.27-20.72 28.27z" fill="#4a5254"></path><path d="M998.58 701.96H616.82c-84.78 0-84.78-128.81 0-128.81h381.76c28.63 0 28.63 43.54 0 43.54H616.82c-27.45 0-27.45 41.73 0 41.73h381.76c28.63 0 28.63 43.54 0 43.54z" fill="#4a5254"></path><path d="M694.68 799.19c-92.61 0-92.44-140.61 0-140.61 92.5 0 92.5 140.61 0 140.61zm0-97.22c-35.25 0-35.25 53.52 0 53.52s35.25-53.52 0-53.52zM919.81 799.19c-92.61 0-92.44-140.61 0-140.61 92.5 0 92.5 140.61 0 140.61zm0-97.22c-35.25 0-35.25 53.52 0 53.52s35.25-53.52 0-53.52z" fill="#4a5254"></path></g></svg>