<svg viewBox="0 0 64 64" xmlns="http://www.w3.org/2000/svg"><g><g><path d="M57 40v4h-8v-4z" fill="#adb3c8"></path><path d="M29 59v4H13v-4h14z" fill="#cbd0e1"></path><path d="M26 30.17V35H16v-3l-.03-.16z" fill="#bcc2d2"></path><path d="M57 35v5h-8l-22 5v-8l23-4h5a2.006 2.006 0 0 1 2 2zM27 45v14H15V35h12v2z" fill="#e7ecf5"></path><path d="m41.25 18 .75 2.93L39.36 22l-1.36.55v-2.67a5.925 5.925 0 0 1 .52-2.43L41 17l.25.98" fill="#bcc2d2"></path><path d="M46.41 22.59A1.955 1.955 0 0 1 47 24a2.006 2.006 0 0 1-2 2h-7v-3.45l1.36-.55H45a1.955 1.955 0 0 1 1.41.59z" fill="#ffad9a"></path><path d="M44 18a2.015 2.015 0 0 1 2 2 2.006 2.006 0 0 1-2 2h-4.64L42 20.93 41.25 18z" fill="#ffad9a"></path><path d="M43 16a2 2 0 0 1-1.75 1.98L41 17l-2.48.45a5.927 5.927 0 0 1 1.73-2.25l1.37-1.1a1.842 1.842 0 0 1 .38.17l.16.1c.04.03.07.06.11.09a1.661 1.661 0 0 1 .14.13A2.3 2.3 0 0 1 43 16zM31.28 15.72a2.464 2.464 0 0 1 .72 1.74v1.15l-15.15 2.7-1.93-.89 13.59-5.19a2.448 2.448 0 0 1 2.77.49z" fill="#fa8e6f"></path><path d="M30.54 16a2.451 2.451 0 0 1 1.158.3 2.435 2.435 0 0 0-3.188-1.07l-13.59 5.19 1.639.756L29.51 16.23a2.456 2.456 0 0 1 1.03-.23z" fill="#e87e60"></path><path d="m41.62 14.1-1.37 1.1A6.036 6.036 0 0 0 38 19.88V27a3 3 0 0 1-6 0v-9.54a2.453 2.453 0 0 0-3.49-2.23l-13.59 5.19-2.55.98a7.067 7.067 0 0 1-2.87.6 2.5 2.5 0 0 1-1.18-4.71L23 11l3-3 7-7h17v.73a11.926 11.926 0 0 1-.84 4.38 11.847 11.847 0 0 1-3.59 4.83z" fill="#ffc2b4"></path><path d="M50 44h6v19h-6z" fill="#4ec3f2"></path><path d="M44.5 21a1.5 1.5 0 0 1-1.5-1.5V18h-1.75l.75 2.93L39.36 22H44a2.006 2.006 0 0 0 2-2 2.071 2.071 0 0 0-.025-.251A1.5 1.5 0 0 1 44.5 21zM45 25h-3.764a1.236 1.236 0 0 1-.553-2.342L42 22h-2.64l-1.36.55V26h7a2.006 2.006 0 0 0 2-2 1.966 1.966 0 0 0-.071-.5A2 2 0 0 1 45 25z" fill="#fa8e6f"></path><path d="M48 1v1.977a4.208 4.208 0 0 1-.781 2.505 19.391 19.391 0 0 1-5.369 4.443A7.482 7.482 0 0 0 38 16.233v3.647a6.036 6.036 0 0 1 2.25-4.68l1.37-1.1 3.95-3.16a11.847 11.847 0 0 0 3.59-4.83A11.926 11.926 0 0 0 50 1.73V1zM34 28V17a3.988 3.988 0 0 0-2.942-3.84 1.971 1.971 0 0 0-1.735-.2L9.677 20.036a1.994 1.994 0 0 1-2.566-1.256A2.49 2.49 0 0 0 9.5 22a7.067 7.067 0 0 0 2.87-.6l2.55-.98 13.59-5.19A2.456 2.456 0 0 1 32 17.46V27a2.973 2.973 0 0 0 3.548 2.944A2 2 0 0 1 34 28z" fill="#ffad9a"></path><path d="M19.779 32.8 26 32.111V30.17l-10.03 1.67.03.16v3h2v-.21a2 2 0 0 1 1.779-1.99z" fill="#898fa0"></path><path d="M16 59a2 2 0 0 0 2 2h11v2H13v-4z" fill="#9ba2b5"></path><path d="M33.458 41.422A2 2 0 0 1 31 39.475V36.3l-4 .7v8l22-5h8v-2h-9z" fill="#cbd0e1"></path><path d="M57 40h-8v4h2v-1a2 2 0 0 1 2-2h4z" fill="#9ba2b5"></path><path d="M19 35v19a2 2 0 0 0 2 2h6v3H15V35z" fill="#dae0eb"></path><rect fill="#f8fbff" rx="1.5"></rect><rect fill="#f8fbff" rx="1.5"></rect><path d="M32 24v1h-.05L27 27v3l-12 2-2-10 19-3.39z" fill="#e7ecf5"></path><path d="M40.316 20.561A1 1 0 0 1 39 19.613v-2.25l-.48.087a5.925 5.925 0 0 0-.52 2.43v2.67l1.36-.55L42 20.93l-.219-.857z" fill="#adb3c8"></path><path d="M27 26.162V27l4.95-2H32v-2.667l-2.949.983A3 3 0 0 0 27 26.162zM16.476 24.8l-.419-3.349L13 22l2 10 12-2v-2.818l-5.84 1.062a4 4 0 0 1-4.684-3.444z" fill="#bcc2d2"></path><path d="M56 36.5a.5.5 0 0 1-.5-.5v-1a.5.5 0 0 0-.5-.5h-1a.5.5 0 0 1 0-1h1a1.5 1.5 0 0 1 1.5 1.5v1a.5.5 0 0 1-.5.5z" fill="#f8fbff"></path><path d="M56 44h-6v6a1 1 0 0 0 1 1 1 1 0 0 0 1-1v-2a2 2 0 0 1 2-2h2z" fill="#499bf6"></path><rect fill="#63e9f0" rx="1"></rect><rect fill="#63e9f0" rx="1"></rect><path d="M51 55a1 1 0 0 1 1 1v7h-2v-7a1 1 0 0 1 1-1z" fill="#499bf6"></path><path d="M50 17a1 1 0 0 1-.275-1.961C55.928 13.266 56 6.072 56 6a1 1 0 0 1 2 0c0 .087-.088 8.779-7.725 10.961A.977.977 0 0 1 50 17z" fill="#bcc2d2"></path><path d="M49 14a1 1 0 0 1-.242-1.97c3.31-.828 4.248-6.142 4.257-6.2a1 1 0 0 1 1.972.331c-.045.271-1.16 6.659-5.743 7.805A.976.976 0 0 1 49 14z" fill="#bcc2d2"></path><g fill="#ffded7"><path d="M35 25a2 2 0 0 0-2 2v2.224a2.958 2.958 0 0 0 4 0V27a2 2 0 0 0-2-2zM7.894 19.553l2.212-1.106a1 1 0 0 0 .447-1.341l-.318-.636-1.915.82A2.511 2.511 0 0 0 7 19.5v.035a.979.979 0 0 0 .894.018z" fill="#ffded7"></path></g></g></g></svg>