<svg viewBox="0 0 64 64" xmlns="http://www.w3.org/2000/svg"><g><circle cx="32" cy="32" fill="#1e88e5" r="28"></circle><g fill="#fafafa"><path d="M37.062 12.522a1.001 1.001 0 0 0-.637-.732L27.56 8.563a1 1 0 0 0-1.32 1.147l.63 2.959a20.088 20.088 0 0 0-14.868 19.332 1 1 0 0 0 1 .999h2.001a1 1 0 0 0 1-1 16.082 16.082 0 0 1 11.699-15.412l.617 2.904a1 1 0 0 0 1.673.511l6.785-6.554a1 1 0 0 0 .285-.927zM42.365 47.953l-1-1.734a1 1 0 0 0-1.367-.366 16.08 16.08 0 0 1-19.196-2.425l2.206-1.986a1 1 0 0 0-.394-1.705l-9.068-2.6a1 1 0 0 0-1.26 1.135l1.637 9.291a1 1 0 0 0 1.654.57l2.248-2.024a20.077 20.077 0 0 0 14.22 5.87A19.852 19.852 0 0 0 42 49.32a1.001 1.001 0 0 0 .365-1.366zM54.855 38.916a1 1 0 0 0-.672-.76l-2.876-.934a20.09 20.09 0 0 0-9.309-22.541 1.001 1.001 0 0 0-1.365.367l-1.001 1.733a1 1 0 0 0 .366 1.366 16.082 16.082 0 0 1 7.498 17.837l-2.822-.918a1 1 0 0 0-1.28 1.193l2.282 9.154a1 1 0 0 0 1.613.524l7.228-6.063a1 1 0 0 0 .339-.957z" fill="#fafafa"></path></g></g></svg>