<svg viewBox="0 0 256 256" xmlns="http://www.w3.org/2000/svg"><g><path d="M84.44 100.465 73.588 240.362a5 5 0 0 0 4.984 5.387l98.855.016a5 5 0 0 0 4.986-5.385l-10.807-139.913a5 5 0 0 0-4.985-4.615H89.425a4.999 4.999 0 0 0-4.985 4.613z" fill="#58595b"></path><path d="m182.413 240.38-10.807-139.913a5 5 0 0 0-4.97-4.614l10.777 139.527a5 5 0 0 1-4.986 5.385l-98.849-.016a4.997 4.997 0 0 0 4.994 5l98.855.016a5 5 0 0 0 4.986-5.385z" fill="#414042"></path><path d="M124.537 111.963h6.962v23.796h-6.962zM124.53 158.911h6.962v23.796h-6.962zM124.522 205.859h6.962v23.796h-6.962z" fill="#ffffff"></path><path d="M232.227 18.186v4.728a2 2 0 0 1-2 2H25.772a2 2 0 0 1-2-2v-4.728a2 2 0 0 1 2-2h204.455a2 2 0 0 1 2 2z" fill="#808285"></path><path d="M232.227 18.186v4.728a2 2 0 0 1-2 2H25.772a2 2 0 0 1-2-2v-4.728a2 2 0 0 1 2-2h204.455a2 2 0 0 1 2 2z" fill="#808285"></path><path d="M23.772 38.864v91.282a5 5 0 0 0 5 5H49.03c2.501 0 4.643-1.845 4.952-4.327C58.569 94.01 89.949 65.521 128 65.521s69.431 28.489 74.018 65.297c.309 2.482 2.451 4.327 4.952 4.327h20.258a5 5 0 0 0 5-5V38.864a5 5 0 0 0-5-5H28.772a5 5 0 0 0-5 5z" fill="#ffa91a"></path><path d="M29.772 99.569a2 2 0 0 1-2-2v-46a2 2 0 0 1 4 0v46a2 2 0 0 1-2 2zm0-54a2 2 0 0 1-2-2v-1a2 2 0 0 1 4 0v1a2 2 0 0 1-2 2z" fill="#ffc91d"></path><path d="M118 55.521c-38.051 0-69.431 28.489-74.018 65.297-.309 2.482-2.451 4.327-4.952 4.327H23.772v5a5 5 0 0 0 5 5H49.03c2.501 0 4.643-1.845 4.952-4.327C58.569 94.01 89.949 65.521 128 65.521c18.036 0 34.566 6.408 47.461 17.061C161.781 66.059 141.13 55.521 118 55.521zM227.228 33.864h-5v86.282a5 5 0 0 1-5 5H201.07a74.55 74.55 0 0 1 .948 5.673c.309 2.482 2.451 4.327 4.952 4.327h20.258a5 5 0 0 0 5-5V38.864a5 5 0 0 0-5-5z" fill="#f79219"></path><path d="M227.228 33.864v91.282a5 5 0 0 1-5 5H201.97c-.018 0-.035-.005-.052-.005.031.227.072.45.101.678.309 2.482 2.451 4.327 4.952 4.327h20.258a5 5 0 0 0 5-5V38.864a5.002 5.002 0 0 0-5.001-5zM123 60.521c-38.051 0-69.431 28.489-74.018 65.297-.309 2.482-2.451 4.327-4.952 4.327H23.772a5 5 0 0 0 5 5H49.03c2.501 0 4.643-1.845 4.952-4.327C58.569 94.01 89.949 65.521 128 65.521c19.31 0 36.894 7.347 50.138 19.385C164.497 69.931 144.855 60.521 123 60.521z" fill="#ef7816"></path><path d="M42.5 33.864h-8.728V12.235a2 2 0 0 1 2-2H40.5a2 2 0 0 1 2 2zM87.432 33.864h-8.728V12.235a2 2 0 0 1 2-2h4.728a2 2 0 0 1 2 2zM222.228 33.864H213.5V12.235a2 2 0 0 1 2-2h4.728a2 2 0 0 1 2 2zM132.364 33.864h-8.728V12.235a2 2 0 0 1 2-2h4.728a2 2 0 0 1 2 2zM177.296 33.864h-8.728V12.235a2 2 0 0 1 2-2h4.728a2 2 0 0 1 2 2z" fill="#939598"></path></g></svg>