<svg viewBox="0 0 512.018 512.018" xmlns="http://www.w3.org/2000/svg"><g><path d="M275.918 483.696 256 469.309c-39.03 0-77.2-10.63-110.4-30.75-7.08-4.29-16.31-2.03-20.6 5.06-4.29 7.08-2.03 16.3 5.06 20.6 37.88 22.96 81.43 35.09 125.94 35.09zM256 12.709c-41.41 0-82.31 10.59-118.25 30.63-7.24 4.03-9.84 13.17-5.8 20.4 4.03 7.24 13.17 9.84 20.4 5.8 31.5-17.55 67.34-26.83 103.65-26.83l24.283-15.166z" fill="#47568c"></path><path d="M388.76 442.359c4.36 7.05 2.19 16.29-4.85 20.65-38.35 23.75-82.58 36.3-127.91 36.3v-30c39.74 0 78.51-11 112.11-31.8 7.05-4.36 16.29-2.19 20.65 4.85zM398.31 76.849c-2.92 4.2-7.59 6.45-12.34 6.45-2.95 0-5.93-.87-8.54-2.67-35.76-24.81-77.75-37.92-121.43-37.92v-30c49.82 0 97.73 14.96 138.53 43.26 6.81 4.73 8.5 14.07 3.78 20.88z" fill="#29376d"></path><path d="M60.634 389.182c-5.073 0-10.021-2.573-12.842-7.228C24.835 344.073 12.7 300.522 12.7 256.009c0-41.414 10.591-82.305 30.628-118.253 4.033-7.236 13.17-9.834 20.405-5.799 7.236 4.033 9.833 13.169 5.799 20.405C51.979 183.855 42.7 219.696 42.7 256.009c0 39.03 10.632 77.204 30.748 110.396 4.293 7.085 2.031 16.309-5.054 20.603a14.934 14.934 0 0 1-7.76 2.174z" fill="#47568c"></path><path d="M450.236 391.021c-2.695 0-5.422-.726-7.882-2.249-7.043-4.361-9.218-13.606-4.857-20.65 20.806-33.603 31.803-72.372 31.803-112.113 0-34.371-8.361-68.513-24.179-98.734-3.842-7.34-1.006-16.404 6.333-20.246 7.341-3.842 16.405-1.006 20.246 6.333 18.056 34.497 27.6 73.449 27.6 112.646 0 45.326-12.551 89.555-36.296 127.906-2.838 4.585-7.746 7.107-12.768 7.107z" fill="#29376d"></path><path d="M350.99 326.499v3.32c0 8.29-6.72 15-15 15H176.01c-8.28 0-15-6.71-15-15v-3.32c0-42.82 34.71-77.53 77.53-77.53h34.92c42.82 0 77.53 34.71 77.53 77.53z" fill="#7995ff"></path><path d="M301.39 190.589v12.99c0 25.07-20.32 45.4-45.39 45.4-12.54 0-23.88-5.08-32.1-13.3-8.21-8.21-13.29-19.57-13.29-32.1v-12.99c0-25.07 20.32-45.39 45.39-45.39s45.39 20.32 45.39 45.39z" fill="#c76e59"></path><path d="M82.66.009h-.01C37.07.019 0 37.089 0 82.669c0 45.57 37.07 82.64 82.65 82.65h.01l26.717-96.069z" fill="#ffb54c"></path><path d="M436.51 361.019h-60.5c-8.29 0-15 6.71-15 15v120.99c0 8.28 6.71 15 15 15h60.5l30.764-69.995z" fill="#ffe370"></path><path d="M92.2 327.609c-3.84 0-7.68 1.46-10.6 4.39l-77.21 77.2c-5.84 5.84-5.86 15.35 0 21.21l77.21 77.21c2.93 2.93 6.77 4.39 10.6 4.39 0 0 17.934-86.278 23.855-92.2z" fill="#7ee780"></path><path d="M417.35.019c-5.02 0-10.04 2.46-12.93 7.38l-79.65 135.31c-5.86 9.95 1.31 22.61 12.93 22.61h79.65l27.268-82.655z" fill="#ff6666"></path><path d="M350.99 326.499v3.32c0 8.29-6.72 15-15 15H256v-95.85h17.46c42.82 0 77.53 34.71 77.53 77.53z" fill="#3d6aec"></path><path d="M301.39 190.589v12.99c0 25.07-20.32 45.4-45.39 45.4v-103.78c25.07 0 45.39 20.32 45.39 45.39z" fill="#b95d4c"></path><path d="M165.31 82.669c0 45.57-37.08 82.65-82.65 82.65h-.01V.009h.01c45.57 0 82.65 37.08 82.65 82.66z" fill="#ff8756"></path><path d="m180.01 430.409-77.2 77.21a14.96 14.96 0 0 1-10.61 4.39v-184.4c3.84 0 7.68 1.46 10.61 4.39l77.2 77.2c5.86 5.86 5.86 15.36 0 21.21z" fill="#00cb71"></path><path d="M497 165.319h-79.65V.019c5.02 0 10.03 2.46 12.92 7.38l79.66 135.31c5.87 9.97-1.33 22.61-12.93 22.61z" fill="#e53950"></path><path d="M512 376.019v120.99c0 8.28-6.72 15-15 15h-60.49v-150.99H497c8.28 0 15 6.71 15 15z" fill="#ffb54c"></path></g></svg>