<svg viewBox="0 0 512 512" xmlns="http://www.w3.org/2000/svg"><g><g><path d="M257.508.001C241.753-.124 228.85 8.75 219.46 20.146s-16.48 25.688-23.22 40.441c-13.481 29.507-26.59 60.794-41.143 71.635-14.552 10.842-46.86 13.552-78.074 17.307-15.607 1.877-30.973 4.258-44.457 9.871-13.484 5.613-25.587 15.478-30.438 30.64-4.85 15.163-.877 30.3 6.606 43.098 7.483 12.798 18.366 24.286 29.758 35.534 22.783 22.494 47.177 44.84 52.691 62.994 5.514 18.153-2.107 51.263-8.312 83.287-3.103 16.012-5.65 31.877-4.707 46.772.943 14.894 6.015 29.717 18.552 39.36 12.537 9.645 28.147 10.451 42.295 6.952 14.148-3.499 27.996-10.752 41.79-18.57 27.587-15.636 55.718-32.8 73.357-32.66 17.638.14 45.524 17.75 72.879 33.822 13.677 8.035 27.414 15.508 41.507 19.23 14.094 3.723 29.715 3.163 42.397-6.285 12.682-9.448 17.974-24.194 19.135-39.072 1.16-14.878-1.155-30.781-4.024-46.84-5.736-32.118-12.873-65.35-7.095-83.408 5.777-18.058 30.491-40.013 53.601-62.145 11.555-11.066 22.607-22.38 30.277-35.06 7.671-12.681 11.862-27.759 7.235-42.993-4.628-15.234-16.579-25.284-29.977-31.11-13.398-5.824-28.727-8.449-44.304-10.573-31.155-4.25-63.418-7.468-77.819-18.545-14.4-11.078-27.05-42.571-40.097-72.287-6.524-14.859-13.404-29.257-22.625-40.8C286.025 9.2 273.264.128 257.508.002z" fill="#ffca28"></path><path d="M257.508.001a40.717 40.717 0 0 0-11.38 1.532c10.94 3.044 20.07 10.387 27.119 19.209 9.22 11.542 16.1 25.94 22.625 40.798 13.047 29.717 25.697 61.21 40.097 72.288 14.4 11.077 46.664 14.295 77.819 18.544 15.577 2.125 30.906 4.75 44.304 10.575 13.398 5.825 25.35 15.875 29.977 31.11 4.627 15.233.436 30.31-7.235 42.991-7.67 12.68-18.722 23.995-30.277 35.06-23.11 22.132-47.824 44.087-53.601 62.145-5.778 18.058 1.359 51.29 7.095 83.409 2.869 16.058 5.185 31.961 4.024 46.84-1.161 14.878-6.453 29.624-19.135 39.072-4.976 3.707-10.41 6.007-16.022 7.255 12.891 2.513 26.637 1.227 38.022-7.255 12.682-9.448 17.974-24.194 19.135-39.073 1.16-14.878-1.155-30.78-4.024-46.84-5.736-32.117-12.873-65.35-7.095-83.408 5.777-18.058 30.491-40.013 53.601-62.144 11.555-11.066 22.607-22.38 30.277-35.06 7.671-12.681 11.862-27.76 7.235-42.993-4.628-15.234-16.579-25.284-29.977-31.11-13.398-5.824-28.727-8.449-44.304-10.574-31.155-4.249-63.418-7.467-77.819-18.544-14.4-11.078-27.05-42.571-40.097-72.288-6.524-14.858-13.404-29.256-22.625-40.798C286.025 9.199 273.264.127 257.508.002z" fill="#ffc107"></path></g></g></svg>