<svg viewBox="0 0 512 512" xmlns="http://www.w3.org/2000/svg"><g><path d="M256 0C167.63 0 96 71.63 96 160c0 45.69 19.12 86.94 49.87 116.06C175.05 303.68 192.69 343.33 192 384l64 32 17.944-8.972z" fill="#ffe33b"></path><path d="M416 160c0 45.69-19.12 86.94-49.87 116.06C336.95 303.68 319.31 343.33 320 384l-64 32V0c88.37 0 160 71.63 160 160z" fill="#ffc64d"></path><path d="M277.944 479.004 256 428.83 196.5 448l15.81 64H256z" fill="#7d316b"></path><path d="m315.5 448-15.82 64H256v-83.17z" fill="#501c5a"></path><path d="M256 384h-80v64h80l17.944-32z" fill="#a35179"></path><path d="M256 384h80v64h-80z" fill="#7d316b"></path><path d="m438.936 122.654 36.146-18.073 13.41 26.82-36.146 18.073zM438.915 197.565l13.41-26.82 36.146 18.073-13.41 26.82z" fill="#ffc64d"></path><path d="m23.234 131.254 13.41-26.82 36.146 18.073-13.41 26.82zM23.211 188.667l36.146-18.073 13.41 26.82-36.146 18.073z" fill="#ffe33b"></path><path d="M222.47 75.25c-18.52 0-33.54 15.01-33.54 33.53 0 5.27 1.22 10.24 3.38 14.67a42.344 42.344 0 0 0-24.85 12.13c-16.59 16.59-16.59 43.5 0 60.09a42.344 42.344 0 0 0 24.85 12.13 33.36 33.36 0 0 0-3.38 14.67c0 18.52 15.02 33.53 33.54 33.53S256 240.99 256 222.47V108.78c0-18.52-15.01-33.53-33.53-33.53z" fill="#ff6663"></path><path d="M344.54 135.58a42.344 42.344 0 0 0-24.85-12.13 33.36 33.36 0 0 0 3.38-14.67c0-18.52-15.02-33.53-33.54-33.53S256 90.26 256 108.78v113.69c0 18.52 15.01 33.53 33.53 33.53s33.54-15.01 33.54-33.53c0-5.27-1.22-10.24-3.38-14.67a42.344 42.344 0 0 0 24.85-12.13c16.59-16.59 16.59-43.5 0-60.09z" fill="#e9296a"></path><path d="M268.422 161.88 256 73.75c-8.72-8.35-20.53-13.5-33.53-13.5-28.01-.07-50.94 24.48-48.33 52.84a57.449 57.449 0 0 0-17.29 11.88c-22.41 22.42-22.41 58.89 0 81.31 5.12 5.11 11 9.07 17.29 11.88-2.61 28.35 20.32 52.91 48.33 52.84 13 0 24.81-5.15 33.53-13.5zM241 222.47c0 10.22-8.31 18.53-18.53 18.53-10.12 0-18.35-8.14-18.52-18.22a57.15 57.15 0 0 0 26.27-9.87l-17.08-24.66c-10.92 7.57-25.66 6.22-35.07-3.18-11.1-10.77-9.9-29.36 0-38.89 9.41-9.41 24.16-10.75 35.06-3.18l17.1-24.66a57.325 57.325 0 0 0-26.28-9.86c.16-10.08 8.4-18.23 18.52-18.23 10.22 0 18.53 8.31 18.53 18.53z" fill="#ff9960"></path><path d="M355.15 124.97c-5.12-5.12-11-9.08-17.29-11.88 2.61-28.36-20.32-52.91-48.33-52.84-13 0-24.81 5.15-33.53 13.5V257.5c8.72 8.35 20.53 13.5 33.53 13.5 28.2.26 51.12-25.25 48.33-52.84a57.63 57.63 0 0 0 17.29-11.88c22.41-22.42 22.41-58.89 0-81.31zm-21.22 60.1c-9.41 9.41-24.15 10.75-35.06 3.18l-17.09 24.66a57.262 57.262 0 0 0 26.27 9.87c-.17 10.08-8.4 18.22-18.52 18.22-10.22 0-18.53-8.31-18.53-18.53V108.78c0-10.22 8.31-18.53 18.53-18.53 10.12 0 18.36 8.15 18.52 18.23a57.213 57.213 0 0 0-26.28 9.86l17.1 24.66c10.91-7.57 25.65-6.23 35.06 3.18 11.11 10.77 9.9 29.36 0 38.89z" fill="#ff6663"></path></g></svg>