<svg viewBox="0 0 512 512" xmlns="http://www.w3.org/2000/svg"><g><path d="M484.75 434.2v27.01H320v-91h14.12v33.99c0 16.5 13.5 30 30 30zM484.75 102.65v13.87h-40.38l-.08-.78a7.5 7.5 0 0 0-7.46-6.72h-68.92a7.5 7.5 0 0 0-7.46 6.72l-.08.78H192.18V94.55h17.93c5.37 5.02 12.56 8.1 20.44 8.1z" fill="#505a5d"></path><path d="M484.75 94.551v8.1h-254.2c-7.88 0-15.07-3.08-20.44-8.1z" fill="#5b6a70"></path><path d="M245.88 205.521v15.96h-53.7v-53.7h8.37v7.74c0 16.5 13.5 30 30 30z" fill="#505a5d"></path><path d="M245.88 167.78v37.74h-15.33c-16.5 0-30-13.5-30-30v-7.74z" fill="#5b6a70"></path><path d="M211.53 116.521h15v51.26h-15z" fill="#4a4a60"></path><path d="M422.32 83.15v11.4H192.18l102.46-22.82c5.51 6.95 14.01 11.42 23.51 11.42z" fill="#5b6a70"></path><path d="M422.32 43.29v39.86H318.15c-9.5 0-18-4.47-23.51-11.42z" fill="#7a8d9a"></path><path d="M271.69 450.75c0 4.141-3.36 7.5-7.5 7.5-7.64 0-11.12 1.9-15.52 4.311-5.01 2.74-11.25 6.149-22.73 6.149-11.47 0-17.71-3.409-22.72-6.149-4.4-2.41-7.88-4.311-15.52-4.311s-11.12 1.9-15.52 4.311c-5.01 2.74-11.24 6.149-22.71 6.149h-.01c-11.48 0-17.71-3.409-22.72-6.149-4.4-2.41-7.88-4.311-15.52-4.311s-11.12 1.9-15.52 4.311c-5.01 2.74-11.24 6.149-22.72 6.149-11.47 0-17.71-3.409-22.72-6.149-4.4-2.41-7.87-4.311-15.51-4.311-4.15 0-7.5-3.359-7.5-7.5 0-4.14 3.35-7.5 7.5-7.5 11.47 0 17.71 3.41 22.72 6.15 4.4 2.41 7.87 4.31 15.51 4.31 7.65 0 11.12-1.899 15.52-4.31 1.2-.65 2.46-1.35 3.86-2.03 4.43-2.149 10.13-4.12 18.86-4.12 11.48 0 17.71 3.41 22.72 6.15 2.64 1.45 4.95 2.71 8.03 3.49 2.05.51 4.44.819 7.49.819 3.06 0 5.46-.31 7.51-.829 3.07-.78 5.37-2.04 8.01-3.48 5.01-2.74 11.24-6.15 22.72-6.15 8.74 0 14.44 1.98 18.87 4.131 1.39.67 2.66 1.369 3.85 2.02 4.4 2.41 7.88 4.31 15.52 4.31 7.65 0 11.13-1.899 15.53-4.31 5.01-2.74 11.24-6.15 22.72-6.15a7.501 7.501 0 0 1 7.5 7.499z" fill="#99bce3"></path><path d="M200.55 280.24v42.55l-51.08-34.189-51.09 34.189v-42.55z" fill="#f58659"></path><path d="M200.55 322.79v24.061l-32.48-21.731-18.6-12.45-18.6 12.45-32.49 21.74v-24.07l51.09-34.189z" fill="#dc593a"></path><path d="M156.97 240.141v40.1h-15v-40.1c0-4.15 3.36-7.5 7.5-7.5s7.5 3.349 7.5 7.5z" fill="#4a4a60"></path><path d="m212.19 434.2-5.62 13.181c-4.43-2.15-10.13-4.131-18.87-4.131-11.48 0-17.71 3.41-22.72 6.15-2.64 1.44-4.94 2.7-8.01 3.48V352.42c0-4.149-3.36-7.5-7.5-7.5s-7.5 3.351-7.5 7.5v100.471c-3.08-.78-5.39-2.04-8.03-3.49-5.01-2.74-11.24-6.15-22.72-6.15-8.73 0-14.43 1.971-18.86 4.12l-5.61-13.17h14.12c16.5 0 30-13.5 30-30v-79.08l18.6-12.45 18.6 12.45v79.08c0 16.5 13.5 30 30 30h14.12z" fill="#4063ae"></path><path d="m238.56 372.29-26.37 61.91h-14.12c-16.5 0-30-13.5-30-30v-79.08l32.48 21.73v.01zM130.87 325.12v79.08c0 16.5-13.5 30-30 30H86.75l-26.37-61.91 38-25.43z" fill="#547dbf"></path><path d="M156.97 352.42v100.461c-2.05.52-4.45.829-7.51.829-3.05 0-5.44-.31-7.49-.819V352.42c0-4.149 3.36-7.5 7.5-7.5s7.5 3.351 7.5 7.5z" fill="#505a5d"></path><path d="M469.41 358.17c-10.23-1.92-10.42-13.25-10.42-13.25L437.32 123.9c-.34-4.29-3.75-6.38-6.55-7.38-2.01-.72-3.7-.87-3.7-.87l-36.25-6.63h46.01a7.5 7.5 0 0 1 7.46 6.72l.08.78z" fill="#ec594c"></path><path d="M469.41 358.17c-10.23-1.92-10.42-13.25-10.42-13.25L437.32 123.9c-.34-4.29-3.75-6.38-6.55-7.38-2.01-.72-3.7-.87-3.7-.87l-36.25-6.63h-22.91a7.5 7.5 0 0 0-7.46 6.72l-.08.78-26.21 252.91c-.03.26-.04.52-.04.77v.01a7.49 7.49 0 0 0 1.93 5.021 7.494 7.494 0 0 0 5.57 2.479h121.5c.01 0 .02 0 .03-.01.31 0 .62-.02.92-.06.06-.01.12-.021.17-.021.3-.05.59-.109.88-.189.01 0 .02 0 .03-.011 3.17-.88 5.49-3.77 5.49-7.21 0-.459-1.23-12.039-1.23-12.039zm-33.19-174.76 6.69 64.57-68.29-34.01zm-61.54-59.389h55.39l3.63 35.07-59.58-29.671zm-2.22 21.33 53.26 26.52-59.04 29.29zm-8.3 80.17 70.8 35.25-78.51 39.1zM349.94 362.71l3.99-38.51 77.31 38.51zm14.47-50.04 81.03-40.359 8.82 85.1z" fill="#e73125"></path><path d="M484.75 370.21v63.99H364.12c-16.5 0-30-13.5-30-30v-33.99a7.49 7.49 0 0 0 1.93 5.021 7.494 7.494 0 0 0 5.57 2.479h121.5c.01 0 .02 0 .03-.01.31 0 .62-.02.92-.06.06-.01.12-.021.17-.021.3-.05.59-.109.88-.189.01 0 .02 0 .03-.011 3.17-.88 5.49-3.77 5.49-7.21h14.11z" fill="#5b6a70"></path></g></svg>