<svg viewBox="0 0 512 512" xmlns="http://www.w3.org/2000/svg"><g><path d="M229.516 0C107.633 0 8.828 98.809 8.828 220.691c0 77.75 40.254 146.067 101.012 185.38h4.918v8.827h229.52v-8.828h4.913c60.762-39.312 101.016-107.629 101.016-185.379C450.207 98.81 351.398 0 229.516 0zm0 0" fill="#c6e2f7"></path><path d="M79.45 406.07h300.136v44.137H79.449zm0 0" fill="#7383bf"></path><path d="M132.422 88.277a8.81 8.81 0 0 1-7.254-3.789c-2.793-4-1.8-9.496 2.195-12.289 26.828-18.687 61.23-27.832 102.164-28.062 4.88.011 8.828 3.965 8.817 8.847a8.82 8.82 0 0 1-8.828 8.809h-.387c-37.11 0-67.953 8.379-91.676 24.895a8.808 8.808 0 0 1-5.031 1.59zM61.793 229.516c-4.871 0-8.828-3.946-8.828-8.825-.008-35.754 8.625-64.504 27.992-93.222 2.727-4.043 8.211-5.094 12.254-2.383 4.043 2.73 5.11 8.219 2.383 12.262-17.285 25.617-24.98 51.324-24.973 83.343 0 4.871-3.957 8.825-8.828 8.825zm0 0" fill="#8aacc1"></path><g fill="#fff"><path d="m344.277 206.688-38.964-38.965 38.964-38.965 38.965 38.965zm-14.004-38.965 14.004 14.004 14-14.004-14-14zm0 0" fill="#ffffff"></path><path d="M344.277 150.07a8.826 8.826 0 0 1-8.828-8.828v-17.656a8.824 8.824 0 0 1 8.828-8.828 8.823 8.823 0 0 1 8.825 8.828v17.656a8.826 8.826 0 0 1-8.825 8.828zM388.414 176.55h-17.656a8.826 8.826 0 0 1-8.828-8.827c0-4.88 3.957-8.825 8.828-8.825h17.656c4.871 0 8.828 3.946 8.828 8.825a8.826 8.826 0 0 1-8.828 8.828zM344.277 220.691a8.826 8.826 0 0 1-8.828-8.828v-17.656a8.824 8.824 0 0 1 8.828-8.828 8.823 8.823 0 0 1 8.825 8.828v17.656a8.826 8.826 0 0 1-8.825 8.828zM317.793 176.55h-17.656a8.826 8.826 0 0 1-8.828-8.827c0-4.88 3.957-8.825 8.828-8.825h17.656c4.871 0 8.828 3.946 8.828 8.825a8.826 8.826 0 0 1-8.828 8.828zM229.516 347.93l-38.965-38.965L229.516 270l38.964 38.965zm-14-38.965 14 14 14.004-14-14.004-14zm0 0" fill="#ffffff"></path><path d="M229.516 291.309a8.822 8.822 0 0 1-8.825-8.825v-17.656a8.823 8.823 0 0 1 8.825-8.828 8.824 8.824 0 0 1 8.828 8.828v17.656a8.823 8.823 0 0 1-8.828 8.825zM273.656 317.793H256a8.826 8.826 0 0 1-8.828-8.828 8.826 8.826 0 0 1 8.828-8.828h17.656a8.826 8.826 0 0 1 8.828 8.828 8.826 8.826 0 0 1-8.828 8.828zM229.516 361.93a8.823 8.823 0 0 1-8.825-8.828v-17.653a8.823 8.823 0 0 1 8.825-8.828 8.824 8.824 0 0 1 8.828 8.828v17.653a8.824 8.824 0 0 1-8.828 8.828zM203.035 317.793H185.38a8.826 8.826 0 0 1-8.828-8.828 8.826 8.826 0 0 1 8.828-8.828h17.656a8.826 8.826 0 0 1 8.828 8.828 8.826 8.826 0 0 1-8.828 8.828zm0 0" fill="#ffffff"></path></g><path d="M423.723 485.516H35.309v-26.383c0-9.809 7.945-17.754 17.753-17.754h352.989c9.765 0 17.672 7.91 17.672 17.672zm0 0" fill="#556080"></path><path d="M0 476.691h459.035V512H0zm0 0" fill="#7383bf"></path></g></svg>