<svg viewBox="0 0 497 497" xmlns="http://www.w3.org/2000/svg"><g><path d="M497 248.502c0 136.13-109.46 246.69-245.17 248.48-3.056.033-7.283.033-12.88-.16C106.14 491.802 0 382.542 0 248.502 0 114.152 106.62 4.712 239.85.152c2.87-.1 5.76-.15 8.65-.15 1.07 0-.05 0 3.33.02C387.54 1.812 497 112.372 497 248.502z" fill="#bbec6c"></path><path d="M497 248.502c0 136.13-109.46 246.69-245.17 248.48-3.056.033-7.283.033-12.88-.16 129.46-8.63 235.55-116.72 235.55-248.32 0-131.75-105-239.93-234.65-248.35 2.87-.1 5.76-.15 8.65-.15 1.07 0-.05 0 3.33.02C387.54 1.812 497 112.372 497 248.502z" fill="#a2e62e"></path><path d="M14.995 250.799c0-57.184 22.268-110.945 62.704-151.38s94.197-62.704 151.38-62.704 110.945 22.268 151.38 62.704 62.704 94.197 62.704 151.38c0 48.843-16.884 100.62-47.543 138.531-30.199 37.343-72.491 63.719-119.086 74.269-12.778 2.893-25.482-9.12-28.375-21.898-2.895-12.779 5.12-25.482 17.898-28.375 36.238-8.205 69.149-28.743 92.671-57.829 24.199-29.923 36.989-66.127 36.989-104.697 0-91.886-74.754-166.639-166.639-166.639S62.439 158.914 62.439 250.799c0 38.64 12.832 74.895 37.109 104.845 23.601 29.117 56.605 49.633 92.933 57.768 12.784 2.863 20.831 15.553 17.965 28.332-2.862 12.785-15.548 20.828-28.332 17.965-46.711-10.46-89.122-36.808-119.423-74.19-30.758-37.945-47.696-85.789-47.696-134.72z" fill="#a2e62e"></path><path d="M460.16 250.802c0 48.84-16.88 96.62-47.54 134.53-30.2 37.34-72.49 63.72-119.09 74.27-2.22.5-4.42.67-6.58.55-.03-.01-.07-.01-.1-.01-3.37-.2-6.62-1.13-9.53-2.66-2.52-1.3-4.79-3.06-6.69-5.19l-.01-.01h-.01c-2.6-2.9-4.53-6.5-5.45-10.58-2.9-12.78 5.12-25.48 17.9-28.38 36.24-8.2 69.15-28.74 92.67-57.83 24.2-29.92 36.99-66.12 36.99-104.69 0-91.89-74.76-166.64-166.64-166.64-91.89 0-166.64 74.75-166.64 166.64 0 38.64 12.83 74.89 37.11 104.84 23.6 29.12 56.6 49.64 92.93 57.77 12.78 2.86 20.83 15.55 17.97 28.33-2.87 12.79-15.55 20.83-28.34 17.97-46.71-10.46-89.12-36.81-119.42-74.19-30.76-37.95-47.7-85.79-47.7-134.72 0-57.19 22.27-110.95 62.71-151.38 38.99-39 90.39-61.1 145.29-62.62 2.02-.06 4.05-.09 6.09-.09 57.18 0 110.94 22.27 151.38 62.71 40.43 40.43 62.7 94.19 62.7 151.38z" fill="#4fc123"></path><path d="M209.481 413.412c-36.327-8.135-69.332-28.651-92.933-57.768-24.276-29.95-37.109-66.205-37.109-104.845 0-88.033 68.621-160.33 155.181-166.238a168.516 168.516 0 0 0-11.458-.401c-91.885 0-166.639 74.754-166.639 166.639 0 38.64 12.832 74.895 37.109 104.845 23.601 29.117 56.605 49.633 92.933 57.768 12.784 2.863 20.831 15.553 17.965 28.332-1.643 7.339-6.526 13.11-12.804 16.158 2.451.643 4.913 1.252 7.389 1.807 12.784 2.863 25.47-5.18 28.332-17.965 2.865-12.779-5.182-25.468-17.966-28.332zM397.46 99.422c-40.44-40.44-94.2-62.71-151.38-62.71-2.04 0-4.07.03-6.09.09-1.8.05-3.59.13-5.37.22 52.88 2.77 102.2 24.67 139.92 62.4 40.44 40.43 62.71 94.19 62.71 151.38 0 48.84-16.89 96.62-47.55 134.53-26.246 32.459-62.99 56.575-102.618 69.262-10.056 1.275-16.138-2.123-16.452-2.302a23.662 23.662 0 0 0 8.864 6.193c2.081.778 4.287 1.481 7.456 1.667 2.16.12 4.36-.05 6.58-.55 46.6-10.55 88.89-36.93 119.09-74.27 30.66-37.91 47.54-85.69 47.54-134.53 0-57.19-22.27-110.95-62.7-151.38z" fill="#47a920"></path><g fill="#0268b4"><path d="M357.723 204.446a7.501 7.501 0 0 0-9.818 4.014l-31.829 75.842a7.5 7.5 0 1 0 13.832 5.804l31.829-75.842a7.502 7.502 0 0 0-4.014-9.818zM262.499 203.523c-16.692 0-30.273 13.581-30.273 30.274v36.422c0 16.692 13.581 30.273 30.273 30.273 16.693 0 30.274-13.581 30.274-30.273v-36.422c0-16.693-13.581-30.274-30.274-30.274zm15.274 66.697c0 8.422-6.853 15.273-15.274 15.273s-15.273-6.852-15.273-15.273v-36.422c0-8.422 6.852-15.274 15.273-15.274s15.274 6.853 15.274 15.274zM192.82 203.523c-16.693 0-30.274 13.581-30.274 30.274v36.422c0 16.692 13.581 30.273 30.274 30.273 16.692 0 30.273-13.581 30.273-30.273v-36.422c.001-16.693-13.58-30.274-30.273-30.274zm15.274 66.697c0 8.422-6.852 15.273-15.273 15.273s-15.274-6.852-15.274-15.273v-36.422c0-8.422 6.853-15.274 15.274-15.274s15.273 6.853 15.273 15.274zM145.327 205.235h-17.056c-4.143 0-7.5 3.357-7.5 7.5s3.357 7.5 7.5 7.5h9.556v72.298c0 4.143 3.357 7.5 7.5 7.5s7.5-3.357 7.5-7.5v-79.798a7.5 7.5 0 0 0-7.5-7.5zM326.284 212.735a8.724 8.724 0 0 0-17.448 0 8.725 8.725 0 0 0 17.448 0zM360.004 275.243a8.724 8.724 0 1 0 0 17.449 8.724 8.724 0 0 0 8.724-8.725 8.723 8.723 0 0 0-8.724-8.724z" fill="#0268b4"></path></g></g></svg>