<svg viewBox="0 0 512 512" xmlns="http://www.w3.org/2000/svg"><g><path d="M432.444 278.569c-19.598 42.298-50.168 75.395-89.753 97.634l-47.128-17.986 10.582-43.664c27.294-14.921 47.845-37.058 61.292-66.092 8.31-17.951 29.607-25.759 47.558-17.449 17.951 8.309 25.759 29.607 17.449 47.557z" fill="#fed2a4"></path><path d="M28.369 439.481c24.419-86.253 88.566-105.893 88.566-105.893l92.506 2.62.154.102.01-.082-.164-.021c.297.031 30.252 2.149 65.038-8.453 11.391-3.469 21.952-7.88 31.664-13.202l36.546 61.65c-15.433 8.668-32.227 15.689-50.28 20.96a271.946 271.946 0 0 1-28.359 6.622V512H93.633z" fill="#5f66a5"></path><path d="M9.354 210.349v-73.297c0-51.294 41.581-92.875 92.875-92.875h24.869S139.133-6.789 226.338.764c84.125 7.276 98.504 76.142 51.621 128.295a16.325 16.325 0 0 1-5.24 3.715z" fill="#fd8aa4"></path><path d="M152.459 384.358c52.187 0 99.076-23.098 130.997-59.601a181.127 181.127 0 0 1-8.975 2.997c-34.786 10.603-64.741 8.484-65.038 8.453l.164.021-.01.082-.154-.103-92.506-2.62s-22.528 6.899-45.965 30.47c24.324 12.949 52.061 20.301 81.487 20.301z" fill="#4c578c"></path><path d="M56.586 177.485c0-51.975 20.922-99.059 54.794-133.308h-9.151c-51.294 0-92.875 41.581-92.875 92.875v73.297l48.148-14.182a191.926 191.926 0 0 1-.916-18.682z" fill="#f47090"></path><path d="M295.562 210.349c0 79.038-64.076 143.104-143.104 143.104-79.038 0-143.104-64.066-143.104-143.104l16.242-28.553c16.733-29.413 47.967-47.579 81.802-47.579h158.568a16.53 16.53 0 0 0 6.754-1.443c14.461 22.351 22.842 48.98 22.842 77.575zM93.633 439.481V512H19.067c0-28.267 3.551-52.235 9.303-72.519z" fill="#fed2a4"></path><path d="M279.945 169.914c-19.819 0-35.886 16.067-35.886 35.886 0 19.819 16.067 35.886 35.886 35.886h78.417v-71.771h-78.417z" fill="#cd8b84"></path><path d="M292.857 205.799a89.131 89.131 0 0 0 7.505 35.886h58v-71.772h-58a89.131 89.131 0 0 0-7.505 35.886z" fill="#c5807c"></path><path d="M414.995 231.011c-17.951-8.31-39.248-.502-47.558 17.449-6.579 14.205-14.87 26.746-24.807 37.612 12.017 5.993 25.556 9.372 39.872 9.372h41.268a229.581 229.581 0 0 0 8.675-16.874c8.309-17.951.501-39.248-17.45-47.559z" fill="#ffbd86"></path><path d="M382.502 264.538c-32.441 0-58.739-26.298-58.739-58.739s26.298-58.739 58.739-58.739h61.405v117.478z" fill="#cd8b84"></path><circle cx="443.907" cy="205.799" fill="#fade98" r="58.739"></circle><circle cx="443.907" cy="205.799" fill="#5f66a5" r="21.888"></circle><ellipse cx="111.44" cy="239.643" fill="#fd8aa4" rx="31.584" ry="25.152"></ellipse><path d="M197.038 230.843a31.22 31.22 0 0 1-23.539-10.72 7.727 7.727 0 0 1 11.65-10.153 15.775 15.775 0 0 0 11.889 5.42c4.554 0 8.888-1.976 11.891-5.421a7.726 7.726 0 1 1 11.649 10.153 31.22 31.22 0 0 1-23.54 10.721zM141.719 222.505a7.726 7.726 0 0 1-7.726-7.726 6.526 6.526 0 0 0-6.519-6.518 6.525 6.525 0 0 0-6.518 6.518 7.726 7.726 0 1 1-15.452 0c0-12.115 9.856-21.971 21.971-21.971s21.971 9.856 21.971 21.971a7.727 7.727 0 0 1-7.727 7.726z" fill="#303646"></path><path d="M56.586 177.485c0-10.143.806-20.098 2.34-29.809a94.042 94.042 0 0 0-33.33 34.12L9.354 210.349c0 79.038 64.066 143.104 143.104 143.104 6.695 0 13.279-.471 19.73-1.361-67.944-28.827-115.602-96.151-115.602-174.607z" fill="#ffbd86"></path></g></svg>