<svg viewBox="0 0 512 512" xmlns="http://www.w3.org/2000/svg"><g><path d="M87.747 436.897h-4.756c-10.358 9.887-35.484 36.634-49.5 74.783H16.863l.543-1.578c15.573-45.371 45.183-75.838 57.192-86.823a7.82 7.82 0 0 1 5.299-2.059h7.839l.011 15.677z" fill="#ef4152"></path><path d="M495.137 21.459v60.837c0 11.851-9.607 21.459-21.459 21.459h-92.627v50.169l-38.672-50.169h-36.91c-11.851 0-21.459-9.607-21.459-21.459V21.459C284.01 9.607 293.618 0 305.469 0h168.209c11.852 0 21.459 9.607 21.459 21.459z" fill="#d6c8b0"></path><path d="M309.095 70.158v60.837c0 11.851-9.607 21.459-21.459 21.459h-4.672l-38.672 50.169v-50.169H119.427c-11.851 0-21.459-9.607-21.459-21.459V70.158c0-11.851 9.607-21.459 21.459-21.459h168.209c11.851-.001 21.459 9.608 21.459 21.459z" fill="#f9eed7"></path><path d="M454.375 44.701H333.134a7.839 7.839 0 1 1 0-15.678h121.241a7.839 7.839 0 1 1 0 15.678zM454.375 73.966h-78.389a7.839 7.839 0 1 1 0-15.678h78.389a7.839 7.839 0 1 1 0 15.678z" fill="#494b5b"></path><path d="M194.265 92.257h-62.329a7.839 7.839 0 1 1 0-15.678h62.329a7.839 7.839 0 1 1 0 15.678zM268.334 92.257h-47.936a7.839 7.839 0 1 1 0-15.678h47.936a7.839 7.839 0 1 1 0 15.678zM268.334 121.522h-88.188a7.839 7.839 0 1 1 0-15.678h88.188a7.839 7.839 0 1 1 0 15.678z" fill="#5c5e70"></path><path d="M68.904 511.68c0-10.264-2.059-20.047-5.79-28.952-8.121-19.43-4.411-41.985 10.546-56.816 13.598-13.483 32.317-21.813 52.98-21.813s39.382 8.33 52.98 21.813c14.957 14.831 18.667 37.386 10.546 56.816-3.731 8.905-5.79 18.688-5.79 28.952" fill="#ff525d"></path><path d="M126.639 404.1c-12.155 0-23.172 8.33-31.178 21.813-8.8 14.831-10.985 37.386-6.208 56.816 2.205 8.905 3.407 18.688 3.407 28.952H68.904c0-10.264-2.059-20.047-5.79-28.952-8.121-19.43-4.411-41.985 10.546-56.816 13.597-13.483 32.316-21.813 52.979-21.813z" fill="#ef4152"></path><path d="m187.503 264.725 24.697 76.611h-24.697v13.99c0 27.225-22.07 49.296-49.296 49.296h-1.641c-28.132 0-50.937-22.805-50.937-50.937v-88.96l59.546-28.438 42.328 28.438z" fill="#ffdc8d"></path><circle cx="88.569" cy="317.223" fill="#ffdc8d" r="29.788"></circle><path d="M174.53 421.303c-13.013 10.744-29.694 17.204-47.89 17.204s-34.878-6.459-47.89-17.204c13.013-10.744 29.694-17.204 47.89-17.204s34.877 6.46 47.89 17.204z" fill="#ffdc8d"></path><path d="M170.174 316.256a7.839 7.839 0 0 1-7.839-7.839v-10.302a7.839 7.839 0 1 1 15.678 0v10.302a7.838 7.838 0 0 1-7.839 7.839z" fill="#494b5b"></path><path d="M157.58 371.551c-16.665 0-30.224-13.558-30.224-30.224a7.839 7.839 0 1 1 15.678 0c0 8.021 6.525 14.546 14.546 14.546a7.839 7.839 0 1 1 0 15.678z" fill="#ffffff"></path><path d="M216.611 212.831H97.719c-23.705 0-43.668 17.705-46.511 41.243L33.19 392.885l75.253 10.453v-71.584l-.002.004c-7.291 7.291-19.242 7.085-26.27-.621-6.237-6.839-6.237-17.598 0-24.436 7.028-7.705 18.977-7.912 26.27-.621l.002.004c0-22.841 18.516-41.359 41.359-41.359h14.916c28.659 0 51.893-23.234 51.893-51.894z" fill="#5c5e70"></path><path d="M78.38 254.074c2.843-23.537 22.806-41.243 46.511-41.243H97.719c-23.705 0-43.668 17.705-46.511 41.243L33.19 392.885l29.023 4.031L78.38 254.074z" fill="#494b5b"></path><path d="M126.638 467.093c-6.915 0-10.394-8.699-5.43-13.486 2.654-2.559 6.889-2.897 9.915-.785 2.545 1.776 3.829 5.002 3.184 8.04-.76 3.584-3.997 6.231-7.669 6.231zM126.638 493.222c-3.417 0-6.502-2.304-7.497-5.564-.921-3.016.115-6.377 2.564-8.358 5.218-4.224 13.261-.062 12.748 6.659-.309 4.043-3.749 7.263-7.815 7.263z" fill="#ffffff"></path><path d="m350.355 239.016-24.697 76.611h24.697v13.99c0 27.225 22.07 49.296 49.296 49.296h1.641c28.132 0 50.937-22.805 50.937-50.937v-88.96l-59.546-28.438-42.328 28.438z" fill="#ffdc8d"></path><path d="M389.058 377.767c3.407.753 6.95 1.15 10.588 1.15h1.641c28.136 0 50.942-22.806 50.942-50.942V239.02l-22.994-10.985v99.94c0 24.447-17.214 44.859-40.177 49.792z" fill="#e8c57e"></path><path d="M404.803 187.313c28.554 0 51.703 23.148 51.703 51.703v40.463c-22.347 0-40.463-18.116-40.463-40.463h-65.562c-28.554 0-51.703-23.148-51.703-51.703h106.025z" fill="#f4a14e"></path><path d="M427.241 239.016c0-28.554-23.148-51.703-51.703-51.703h29.265c28.554 0 51.703 23.148 51.703 51.703v40.463c-11.514 0-21.897-4.817-29.265-12.537v-27.926z" fill="#e28d40"></path><path d="M440.847 284.565c7.091-7.091 18.586-7.091 25.677 0s7.091 18.586 0 25.677-18.586 7.091-25.677 0" fill="#e8c57e"></path><path d="M374.793 346.366c16.665 0 30.224-13.558 30.224-30.224a7.84 7.84 0 0 0-15.678 0c0 8.021-6.525 14.546-14.546 14.546a7.84 7.84 0 0 0 0 15.678z" fill="#ffffff"></path><path d="M372.913 290.549a7.84 7.84 0 0 0 7.839-7.839v-10.302a7.84 7.84 0 0 0-15.678 0v10.302a7.84 7.84 0 0 0 7.839 7.839z" fill="#494b5b"></path><path d="M326.007 454.191c0 10.671 2.216 32.003 6.229 57.809h138.11c4.013-25.806 6.229-47.138 6.229-57.809 0-41.577-33.707-75.274-75.284-75.274-41.577 0-75.284 33.697-75.284 75.274z" fill="#34abe0"></path><path d="M441.907 454.191c0 10.671-1.191 32.003-3.355 57.809h31.794c4.013-25.806 6.229-47.138 6.229-57.809 0-41.577-33.707-75.274-75.284-75.274 22.43 0 40.616 33.697 40.616 75.274z" fill="#279fc9"></path><path d="M446.518 394.009c-12.594-9.48-28.251-15.092-45.225-15.092l23.391 45.863 21.834-30.771zM356.058 394.009v.01l21.844 30.76 23.391-45.863c-16.973.001-32.641 5.614-45.235 15.093z" fill="#78caef"></path><path d="M401.998 439.844c7.092 0 10.504-9.145 5.117-13.777-2.643-2.272-6.573-2.516-9.476-.584-2.496 1.661-3.828 4.709-3.397 7.67.553 3.79 3.927 6.691 7.756 6.691z" fill="#ffffff"></path></g></svg>