<svg id="Layer_1" height="512" viewBox="0 0 64 64" width="512" xmlns="http://www.w3.org/2000/svg" data-name="Layer 1"><g fill="#212121"><rect height="10" rx="1" width="2" x="4" y="27"/><rect height="34" rx="1" width="2" x="10" y="15"/><rect height="18" rx="1" width="2" x="7" y="23"/><rect height="4" rx="1" width="2" x="13" y="30"/><rect height="14" rx="1" width="2" x="19" y="25"/><rect height="26" rx="1" width="2" x="25" y="19"/><rect height="16" rx="1" width="2" x="31" y="24"/><rect height="30" rx="1" width="2" x="37" y="17"/><rect height="14" rx="1" width="2" x="43" y="25"/><rect height="24" rx="1" width="2" x="49" y="20"/><rect height="14" rx="1" width="2" x="55" y="25"/><rect height="26" rx="1" width="2" x="16" y="19"/><rect height="8" rx="1" width="2" x="22" y="28"/><rect height="10" rx="1" width="2" x="28" y="27"/><rect height="36" rx="1" width="2" x="34" y="14"/><rect height="22" rx="1" width="2" x="40" y="21"/><rect height="6" rx="1" width="2" x="46" y="29"/><rect height="32" rx="1" width="2" x="52" y="16"/><rect height="4" rx="1" width="2" x="58" y="30"/></g></svg>