<svg viewBox="0 0 64 64" xmlns="http://www.w3.org/2000/svg"><g><path d="M3 57a4 4 0 0 0 4 4h36a4 4 0 0 0 4-4V33H3z" fill="#d7e3f9"></path><path d="M43 23H7a4 4 0 0 0-4 4v6h44v-6a4 4 0 0 0-4-4z" fill="#ed69ab"></path><g fill="#618bf2"><path d="M7 39h6v6H7zM17 39h6v6h-6zM27 39h6v6h-6zM37 39h6v6h-6zM7 49h6v6H7zM17 49h6v6h-6zM27 49h6v6h-6zM37 49h6v6h-6z" fill="#618bf2"></path></g><path d="M11 28a2 2 0 0 1-2-2v-6a2 2 0 1 1 4 0v6a2 2 0 0 1-2 2zM20 28a2 2 0 0 1-2-2v-6a2 2 0 1 1 4 0v6a2 2 0 0 1-2 2zM29 28a2 2 0 0 1-2-2v-6a2 2 0 1 1 4 0v6a2 2 0 0 1-2 2zM37 20l-6 21 18-14z" fill="#3162a8"></path><path d="M61 16c0 3.75-1.59 7.13-4.13 9.49C54.55 27.67 51.43 29 48 29s-6.55-1.33-8.87-3.51A12.919 12.919 0 0 1 35 16c0-7.18 5.82-13 13-13s13 5.82 13 13z" fill="#4577d8"></path><circle cx="48" cy="13" fill="#ffbb4d" r="5"></circle><path d="M56.87 25.49C54.55 27.67 51.43 29 48 29s-6.55-1.33-8.87-3.51C39.85 21.24 43.55 18 48 18c2.48 0 4.74 1.01 6.36 2.64a8.953 8.953 0 0 1 2.51 4.85z" fill="#ffbb4d"></path></g></svg>