<svg viewBox="0 0 64 64" xmlns="http://www.w3.org/2000/svg"><g><g><circle cx="45" cy="45" fill="#ffd54f" r="16"></circle><path d="M61 45a16.004 16.004 0 0 1-27.49 11.14 16.003 16.003 0 0 0 18.98-25.28A15.991 15.991 0 0 1 61 45Z" fill="#ffca28"></path><circle cx="45" cy="45" fill="#ffb74d" r="12"></circle><path d="M50.28 55.78a12.001 12.001 0 1 1-7.56-22.56A12.002 12.002 0 0 0 48 56a11.45 11.45 0 0 0 2.28-.22Z" fill="#ffa726"></path><circle cx="19.08" cy="19.08" fill="#ffd54f" r="16"></circle><path d="M35.08 19.08A16.004 16.004 0 0 1 7.59 30.22a16.002 16.002 0 0 0 23.49-14.14 15.963 15.963 0 0 0-4.51-11.14 15.991 15.991 0 0 1 8.51 14.14Z" fill="#ffca28"></path><circle cx="19.08" cy="19.08" fill="#ffb74d" r="12"></circle><path d="M24.36 29.86A12.001 12.001 0 1 1 16.8 7.3a12.002 12.002 0 0 0 5.28 22.78 11.45 11.45 0 0 0 2.28-.22Z" fill="#ffa726"></path><path d="M45 44a2 2 0 1 1 2-2 1 1 0 0 0 2 0 3.996 3.996 0 0 0-3-3.858V37a1 1 0 0 0-2 0v1.142A3.992 3.992 0 0 0 45 46a2 2 0 1 1-2 2 1 1 0 0 0-2 0 3.996 3.996 0 0 0 3 3.858V53a1 1 0 0 0 2 0v-1.142A3.992 3.992 0 0 0 45 44ZM22.33 22.886A4.176 4.176 0 0 1 19.5 24a4.352 4.352 0 0 1-3.577-2H20a1 1 0 0 0 0-2h-4.909a5.54 5.54 0 0 1 0-2H20a1 1 0 0 0 0-2h-4.077a4.352 4.352 0 0 1 3.577-2 4.176 4.176 0 0 1 2.83 1.114 1 1 0 1 0 1.34-1.485A6.227 6.227 0 0 0 19.5 12a6.488 6.488 0 0 0-5.864 4H12a1 1 0 0 0 0 2h1.074a6.78 6.78 0 0 0 0 2H12a1 1 0 0 0 0 2h1.636a6.488 6.488 0 0 0 5.864 4 6.227 6.227 0 0 0 4.17-1.63 1 1 0 1 0-1.34-1.484Z" fill="#eeeeee"></path><path d="M24 54h-3a9.01 9.01 0 0 1-9-9v-.586l2.293 2.293a1 1 0 1 0 1.414-1.414l-4-4a1 1 0 0 0-1.414 0l-4 4a1 1 0 0 0 1.414 1.414L10 44.414V45a11.012 11.012 0 0 0 11 11h3a1 1 0 0 0 0-2ZM57.707 17.293a1 1 0 0 0-1.414 0L54 19.586V19A11.012 11.012 0 0 0 43 8h-3a1 1 0 0 0 0 2h3a9.01 9.01 0 0 1 9 9v.586l-2.293-2.293a1 1 0 0 0-1.414 1.414l4 4a1 1 0 0 0 1.414 0l4-4a1 1 0 0 0 0-1.414Z" fill="#757575"></path></g></g></svg>