<svg viewBox="0 0 512 512" xmlns="http://www.w3.org/2000/svg"><g><path d="m470.784 212.921-94.792-31.498-85.195-28.498c-4.499-1.8-9.597-.899-13.498 1.8-3.9 3.001-6.301 7.499-6.301 12.3v329.976c0 8.398 6.599 14.999 14.999 14.999h179.987c8.4 0 14.999-6.601 14.999-14.999v-269.98c.001-6.601-4.2-12.3-10.199-14.1z" fill="#c4cad9"></path><path d="M480.984 227.021v269.98c0 8.398-6.599 14.999-14.999 14.999h-89.993V181.424l94.792 31.498c5.999 1.799 10.2 7.498 10.2 14.099z" fill="#b8bfcc"></path><path d="M405.989 512h-59.996c-8.29 0-14.999-6.709-14.999-14.999v-89.993c0-8.29 6.709-14.999 14.999-14.999h59.996c8.29 0 14.999 6.709 14.999 14.999v89.993c0 8.291-6.708 14.999-14.999 14.999z" fill="#4db5ff"></path><path d="M405.989 392.009h-29.998V512h29.998c8.29 0 14.999-6.709 14.999-14.999v-89.993c0-8.291-6.708-14.999-14.999-14.999z" fill="#4d97ff"></path><path d="M291.397 90.93 166.006 43.833 51.414.936c-4.799-1.8-9.9-.899-13.8 1.8-4.199 2.701-6.599 7.499-6.599 12.3v481.965c0 8.398 6.599 14.999 14.999 14.999h239.983c8.4 0 14.999-6.601 14.999-14.999V105.03c.001-6.301-3.9-12-9.599-14.1z" fill="#e6eeff"></path><path d="M300.997 105.03v391.972c0 8.398-6.599 14.999-14.999 14.999H166.007V43.833L291.398 90.93c5.698 2.1 9.599 7.799 9.599 14.1z" fill="#dae2f2"></path><path d="M226.002 512H106.011c-8.29 0-14.999-6.709-14.999-14.999v-89.993c0-8.29 6.709-14.999 14.999-14.999h119.991c8.29 0 14.999 6.709 14.999 14.999v89.993c0 8.291-6.708 14.999-14.999 14.999z" fill="#4db5ff"></path><path d="M226.002 392.009h-59.996V512h59.996c8.29 0 14.999-6.709 14.999-14.999v-89.993c0-8.291-6.708-14.999-14.999-14.999z" fill="#4d97ff"></path><path d="M136.009 362.011h-29.998c-8.29 0-14.999-6.709-14.999-14.999s6.709-14.999 14.999-14.999h29.998c8.29 0 14.999 6.709 14.999 14.999s-6.709 14.999-14.999 14.999z" fill="#4db5ff"></path><path d="M226.002 362.011h-29.998c-8.29 0-14.999-6.709-14.999-14.999s6.709-14.999 14.999-14.999h29.998c8.29 0 14.999 6.709 14.999 14.999s-6.708 14.999-14.999 14.999z" fill="#4d97ff"></path><path d="M136.009 302.015h-29.998c-8.29 0-14.999-6.709-14.999-14.999s6.709-14.999 14.999-14.999h29.998c8.29 0 14.999 6.709 14.999 14.999s-6.709 14.999-14.999 14.999z" fill="#4db5ff"></path><path d="M226.002 302.015h-29.998c-8.29 0-14.999-6.709-14.999-14.999s6.709-14.999 14.999-14.999h29.998c8.29 0 14.999 6.709 14.999 14.999s-6.708 14.999-14.999 14.999z" fill="#4d97ff"></path><path d="M405.989 362.011h-59.996c-8.29 0-14.999-6.709-14.999-14.999s6.709-14.999 14.999-14.999h59.996c8.29 0 14.999 6.709 14.999 14.999s-6.708 14.999-14.999 14.999zM405.989 302.015h-59.996c-8.29 0-14.999-6.709-14.999-14.999s6.709-14.999 14.999-14.999h59.996c8.29 0 14.999 6.709 14.999 14.999s-6.708 14.999-14.999 14.999zM136.009 242.02h-29.998c-8.29 0-14.999-6.709-14.999-14.999s6.709-14.999 14.999-14.999h29.998c8.29 0 14.999 6.709 14.999 14.999s-6.709 14.999-14.999 14.999z" fill="#4db5ff"></path><path d="M226.002 242.02h-29.998c-8.29 0-14.999-6.709-14.999-14.999s6.709-14.999 14.999-14.999h29.998c8.29 0 14.999 6.709 14.999 14.999s-6.708 14.999-14.999 14.999z" fill="#4d97ff"></path><path d="M136.009 182.024h-29.998c-8.29 0-14.999-6.709-14.999-14.999s6.709-14.999 14.999-14.999h29.998c8.29 0 14.999 6.709 14.999 14.999s-6.709 14.999-14.999 14.999z" fill="#4db5ff"></path><path d="M226.002 182.024h-29.998c-8.29 0-14.999-6.709-14.999-14.999s6.709-14.999 14.999-14.999h29.998c8.29 0 14.999 6.709 14.999 14.999s-6.708 14.999-14.999 14.999z" fill="#4d97ff"></path><path d="M121.011 422.01h89.993v59.996h-89.993z" fill="#2ee6c7"></path><path d="M166.008 422.01h44.997v59.996h-44.997z" fill="#29ccb1"></path><path d="M166.007 512c-8.29 0-14.999-6.709-14.999-14.999v-89.993c0-8.29 6.709-14.999 14.999-14.999 8.29 0 14.999 6.709 14.999 14.999v89.993c-.001 8.291-6.709 14.999-14.999 14.999z" fill="#4db5ff"></path><path d="M181.005 497.001v-89.993c0-8.29-6.709-14.999-14.999-14.999V512c8.291 0 14.999-6.708 14.999-14.999z" fill="#4d97ff"></path><path d="M496.983 512H15.018C6.735 512 .019 505.284.019 497.001c0-8.283 6.716-14.999 14.999-14.999h481.965c8.283 0 14.999 6.716 14.999 14.999 0 8.284-6.716 14.999-14.999 14.999z" fill="#5c5f66"></path><path d="M496.983 482.002H166.007V512h330.976c8.283 0 14.999-6.716 14.999-14.999 0-8.284-6.717-14.999-14.999-14.999z" fill="#53565c"></path><path d="M405.989 332.013h-29.998v29.998h29.998c8.29 0 14.999-6.709 14.999-14.999s-6.708-14.999-14.999-14.999zM405.989 272.018h-29.998v29.998h29.998c8.29 0 14.999-6.709 14.999-14.999s-6.708-14.999-14.999-14.999z" fill="#4d97ff"></path></g></svg>