<svg viewBox="0 0 64 64" xmlns="http://www.w3.org/2000/svg"><g><path d="m20.846 18-1.643-2.957a8.104 8.104 0 0 1 .986-9.274A8.103 8.103 0 0 1 26.289 3h4.206c2.339 0 4.625.692 6.571 1.989l1.243.828a2.21 2.21 0 0 0 2.215.138 3.295 3.295 0 0 1 4.046.889 5.696 5.696 0 0 1 1.008 5.193L43.788 18 43 21H23z" fill="#7b828e"></path><path d="M44.783 12a3.565 3.565 0 0 1-2.853-1.427 3.566 3.566 0 0 0-4.688-.918 5.682 5.682 0 0 1-4.722.518l-4.207-1.402a5.89 5.89 0 0 1-3.404-2.952l-.012-.024a5.872 5.872 0 0 1-.612-2.533 8.095 8.095 0 0 0-4.097 2.506 8.106 8.106 0 0 0-.986 9.274L20.846 18 23 21h20l.788-3 1.789-5.963c.004-.012.005-.025.009-.037z" fill="#656b76"></path><path d="M38.185 37h-12.37A12.816 12.816 0 0 0 13 49.815V61h38V49.815A12.814 12.814 0 0 0 38.185 37z" fill="#a2bdcd"></path><path d="M46 52v-1a2.002 2.002 0 0 0-2.336-1.973c-.983.16-1.664 1.084-1.664 2.08V57c-7.18 0-13-5.82-13-13v-7h-3.185A12.816 12.816 0 0 0 13 49.815V61h38v-4a5 5 0 0 1-5-5z" fill="#769fb6"></path><path d="M38.185 37H37v-9H27v9h-1.185c-.581 0-1.156.052-1.726.13C24.639 41.012 27.966 44 32 44s7.361-2.988 7.911-6.87a12.72 12.72 0 0 0-1.726-.13z" fill="#f6b98d"></path><path d="M29 37a9.98 9.98 0 0 0 8-4.008V28H27v9h-1.185c-.581 0-1.156.052-1.726.13A8.008 8.008 0 0 0 29 43.412z" fill="#f3a268"></path><path d="M32 35c-5.523 0-10-4.477-10-10v-7.106a6.024 6.024 0 0 1 8.258-5.591l2.803 1.121A6.433 6.433 0 0 0 40 12l.801 1.201A7.14 7.14 0 0 1 42 17.162V25c0 5.523-4.477 10-10 10z" fill="#f9cdae"></path><path d="M22 23.5h-.5A4.5 4.5 0 0 1 17 19a2.5 2.5 0 1 1 5 0zM42 24h.5a4.5 4.5 0 0 0 4.5-4.5 2.5 2.5 0 1 0-5 0z" fill="#f6b98d"></path><path d="M40.801 13.201 40 12a6.433 6.433 0 0 1-6.939 1.424l-2.803-1.121A6.022 6.022 0 0 0 22 17.894V25c0 5.523 4.477 10 10 10 3.53 0 6.627-1.834 8.406-4.596A9.924 9.924 0 0 1 35 32c-5.523 0-10-4.477-10-10v-6.309a6.015 6.015 0 0 1 5.258-.388l2.803 1.121A6.433 6.433 0 0 0 40 15l.801 1.201A7.14 7.14 0 0 1 42 20.162v-3a7.14 7.14 0 0 0-1.199-3.961z" fill="#f6b98d"></path><path d="M44 20v-2.95a2.5 2.5 0 0 0-2 2.45V24h.5a4.485 4.485 0 0 0 3.182-1.318A2.99 2.99 0 0 1 44 20zM20 19.5v-2.95A2.5 2.5 0 0 1 22 19v4.5h-.5a4.485 4.485 0 0 1-3.182-1.318A2.99 2.99 0 0 0 20 19.5z" fill="#f3a268"></path><circle cx="27" cy="21" fill="#656b76" r="1"></circle><path d="M26.721 19.591a4.84 4.84 0 0 1-2.168-.51 1 1 0 0 1 .895-1.789 2.864 2.864 0 0 0 2.858-.178l1.14-.76a1 1 0 1 1 1.11 1.664l-1.14.76a4.86 4.86 0 0 1-2.695.813z" fill="#656b76"></path><circle cx="37" cy="21" fill="#656b76" r="1"></circle><path d="M37.279 19.591a4.854 4.854 0 0 1-2.694-.813l-1.14-.76a1 1 0 0 1 1.11-1.664l1.14.76c.85.566 1.945.635 2.858.178a1 1 0 1 1 .895 1.789 4.848 4.848 0 0 1-2.169.51z" fill="#656b76"></path><path d="M32 27a.997.997 0 0 1-.707-.293l-1-1a1 1 0 0 1-.188-1.154l1-2a1 1 0 1 1 1.789.895l-.678 1.355.49.49A.999.999 0 0 1 32 27zM37 24.827c-.98 0-1.961-.373-2.707-1.12a.999.999 0 1 1 1.414-1.414 1.83 1.83 0 0 0 2.586 0 .999.999 0 1 1 1.414 1.414A3.814 3.814 0 0 1 37 24.827zM27 24.827c-.98 0-1.961-.373-2.707-1.12a.999.999 0 1 1 1.414-1.414 1.83 1.83 0 0 0 2.586 0 .999.999 0 1 1 1.414 1.414A3.814 3.814 0 0 1 27 24.827z" fill="#f6b98d"></path><path d="M24 10a1 1 0 0 1-1-1V7a1 1 0 0 1 2 0v2a1 1 0 0 1-1 1zM28 15a1 1 0 0 1-1-1V7a1 1 0 0 1 2 0v7a1 1 0 0 1-1 1zM32 16a1 1 0 0 1-1-1V7a1 1 0 0 1 2 0v8a1 1 0 0 1-1 1zM36 11a1 1 0 0 1-1-1V5a1 1 0 0 1 2 0v5a1 1 0 0 1-1 1z" fill="#545a63"></path><path d="M35 31a.997.997 0 0 1-.707-.293l-.49-.49-1.355.678a1 1 0 0 1-.895 0l-1.355-.678-.49.49a.999.999 0 1 1-1.414-1.414l1-1a1.004 1.004 0 0 1 1.154-.188l1.552.777 1.553-.776a.999.999 0 0 1 1.154.188l1 1A.999.999 0 0 1 35 31z" fill="#f15574"></path><path d="M9.001 50a1 1 0 0 1-.896-.553l-1-2a1 1 0 0 1 .188-1.154l1.563-1.563-.805-2.414a1 1 0 0 1 .632-1.265L11 40.279V37a1 1 0 0 1 1-1h2.279l.772-2.316a.999.999 0 0 1 1.396-.578l2 1a1 1 0 0 1-.895 1.789l-.969-.484-.635 1.906A.998.998 0 0 1 15 38h-2v3a1 1 0 0 1-.684.949l-2.051.684.684 2.051a.999.999 0 0 1-.242 1.023l-1.49 1.49.678 1.355A1 1 0 0 1 9.001 50zM54.999 50a1 1 0 0 1-.893-1.447l.678-1.355-1.49-1.49a1.001 1.001 0 0 1-.242-1.023l.684-2.051-2.051-.684A1.002 1.002 0 0 1 51 41v-3h-2a1 1 0 0 1-.949-.684l-.635-1.906-.969.484a1 1 0 1 1-.895-1.789l2-1a1.002 1.002 0 0 1 1.396.578L49.721 36H52a1 1 0 0 1 1 1v3.279l2.316.772a1 1 0 0 1 .632 1.265l-.805 2.414 1.563 1.563a1 1 0 0 1 .188 1.154l-1 2a.998.998 0 0 1-.895.553z" fill="#656b76"></path><g fill="#545a63"><path d="M51 17a1 1 0 0 1-1-1V9a1 1 0 0 1 2 0v7a1 1 0 0 1-1 1zM55 21a1 1 0 0 1-1-1V5a1 1 0 0 1 2 0v15a1 1 0 0 1-1 1zM59 18a1 1 0 0 1-1-1V9a1 1 0 0 1 2 0v8a1 1 0 0 1-1 1zM5 17a1 1 0 0 1-1-1V9a1 1 0 0 1 2 0v7a1 1 0 0 1-1 1zM9 21a1 1 0 0 1-1-1V5a1 1 0 0 1 2 0v15a1 1 0 0 1-1 1zM13 18a1 1 0 0 1-1-1V9a1 1 0 0 1 2 0v8a1 1 0 0 1-1 1z" fill="#545a63"></path></g><path d="M55.001 61a1 1 0 0 1-.449-1.895l.759-.379-1.019-1.019a1 1 0 0 1-.125-1.262l1.372-2.058-.987-.493a1 1 0 0 1 .895-1.789l2 1a1 1 0 0 1 .385 1.45l-1.545 2.318 1.42 1.42a1 1 0 0 1-.26 1.601l-2 1a.99.99 0 0 1-.446.106zM8.999 61c-.15 0-.303-.034-.446-.105l-2-1a1 1 0 0 1-.26-1.601l1.42-1.42-1.545-2.318a1 1 0 0 1 .385-1.45l2-1a1 1 0 1 1 .895 1.789l-.988.493 1.372 2.058a1 1 0 0 1-.125 1.262l-1.019 1.019.759.379A1 1 0 0 1 8.999 61z" fill="#656b76"></path><path d="M19 61V51a1 1 0 0 1 2 0v10zM43 61V51a1 1 0 0 1 2 0v10z" fill="#608ea9"></path></g></svg>