<svg viewBox="0 0 512 512" xmlns="http://www.w3.org/2000/svg"><g><path d="M378.854 512h-139.88a4 4 0 0 1-3.929-3.247L187.92 262.762l142.785-27.354 52.077 271.839a4 4 0 0 1-3.928 4.753z" fill="#ffc39c"></path><path d="M330.705 235.408 187.92 262.762l20.586 107.459 91.668-10.559c12.927-1.489 24.816 7.242 27.265 20.022L352.787 512h26.066a4 4 0 0 0 3.929-4.753z" fill="#fdaa8e"></path><path d="M159.029 297.443c6.73 35.132 40.685 58.165 75.847 51.429l94.282-18.062c29.506-5.653 48.851-34.15 43.201-63.64l-46.44-242.415c-1.397-7.291-5.613-13.322-11.317-17.19a26.815 26.815 0 0 0-20.165-4.157c-14.59 2.795-24.157 16.888-21.364 31.471l27.286 142.433-105.691 20.248c-.363-1.955-20.118-105.073-20.118-105.073a26.812 26.812 0 0 0-11.317-17.19 26.796 26.796 0 0 0-20.165-4.157c-14.59 2.795-24.159 16.878-21.364 31.471z" fill="#ffc39c"></path><g fill="#fdaa8e"><path d="M143.645 92.487s9.434 49.242 15.383 80.315c2.618 13.675 15.826 22.633 29.501 20.013l5.05-.967c-4.195-21.934-19.028-99.361-19.028-99.361a26.812 26.812 0 0 0-11.317-17.19 26.796 26.796 0 0 0-20.165-4.157 26.81 26.81 0 0 0-10.396 4.403c5.514 3.867 9.604 9.802 10.972 16.944zM372.36 267.17 325.92 24.755c-1.397-7.291-5.613-13.322-11.317-17.19a26.815 26.815 0 0 0-20.165-4.157 26.787 26.787 0 0 0-10.394 4.404c5.526 3.875 9.603 9.802 10.971 16.943l46.44 242.415c5.65 29.49-13.695 57.987-43.201 63.64l-90.823 17.399a64.586 64.586 0 0 0 27.446.663l94.282-18.062c29.505-5.653 48.85-34.15 43.201-63.64z" fill="#fdaa8e"></path><path d="M325.793 187.359s-72.007 19.984-78.445 69.376c-8.831 67.757 57.289 73.99 96.535 26.439z" fill="#fdaa8e"></path></g><path d="M288.43 249.446c10.639-21.516 30.726-35.268 52.763-38.717 7.616-1.192 14.219-5.918 17.624-12.839l31.23-63.475c7.333-14.905 25.358-21.042 40.231-13.697 14.852 7.334 20.931 25.334 13.578 40.203l-34.225 69.214-29.6 59.86c-24.417 49.334-55.238 45.781-94.785 49.225 0 0-11.249-24.172-11.711-49.464-.294-16.208 14.895-40.31 14.895-40.31z" fill="#ffc39c"></path><path d="M430.279 120.717c-9.494-4.689-20.269-3.876-28.731 1.197 13.25 7.953 18.386 24.888 11.404 39.007l-63.825 129.074c-17.896 36.159-40.468 40.828-66.158 43.743.647 1.551 2.279 5.482 2.279 5.482 39.547-3.444 70.367.109 94.785-49.225l63.825-129.074c7.352-14.87 1.273-32.87-13.579-40.204z" fill="#fdaa8e"></path><path d="m249.796 199.276 52.589-10.79-31.808-166.638C267.781 7.254 253.684-2.31 239.091.486c-14.594 2.796-24.158 16.893-21.362 31.486z" fill="#ffc39c"></path><path d="m298.118 177.741 2.137-.409-29.678-155.484C267.781 7.254 253.684-2.31 239.091.485a26.786 26.786 0 0 0-10.395 4.405c5.522 3.874 9.607 9.809 10.976 16.958l27.145 134.869c2.899 14.408 16.867 23.789 31.301 21.024z" fill="#fdaa8e"></path><path d="m196.947 209.401 52.849-10.124-28.234-147.379c-2.796-14.594-16.893-24.158-31.486-21.362-14.594 2.796-24.158 16.893-21.362 31.486z" fill="#ffc39c"></path><path d="m244.551 188.003 2.976-.57-25.965-135.535c-2.796-14.594-16.893-24.158-31.487-21.362a26.786 26.786 0 0 0-10.395 4.405c5.522 3.873 9.607 9.809 10.976 16.958l22.568 114.955c2.841 14.471 16.844 23.924 31.327 21.149z" fill="#fdaa8e"></path><g fill="#f74f68"><path d="M506.971 37.538c-24.3-8.486-49.691-14.515-75.469-17.92a7.5 7.5 0 1 0-1.963 14.871c24.765 3.271 49.153 9.061 72.488 17.21a7.478 7.478 0 0 0 2.473.421c3.1 0 6.001-1.937 7.081-5.029a7.504 7.504 0 0 0-4.61-9.553zM493.629 65.993c-19.114-6.54-39.014-11.45-59.146-14.594a7.5 7.5 0 0 0-2.314 14.82c19.271 3.009 38.315 7.708 56.605 13.966a7.492 7.492 0 0 0 2.428.406 7.501 7.501 0 0 0 2.427-14.598zM79.749 12.115C54.316 16.195 29.11 22.951 4.833 32.194a7.5 7.5 0 1 0 5.338 14.018c23.321-8.88 47.53-15.369 71.954-19.288a7.499 7.499 0 0 0 6.217-8.593c-.657-4.089-4.509-6.873-8.593-6.216zM77.348 44.199c-20.342 3.667-40.55 9.213-60.063 16.485a7.5 7.5 0 0 0 5.238 14.056c18.679-6.961 38.02-12.27 57.485-15.779a7.499 7.499 0 0 0 6.05-8.711c-.734-4.078-4.635-6.782-8.71-6.051z" fill="#f74f68"></path></g></g></svg>