<svg viewBox="0 0 50 50" xmlns="http://www.w3.org/2000/svg"><g><path d="M45.7 44.6c0 .4 0 .9-.1 1.4-.3 1.4-1.5 2.5-3 2.5h-6.4c-1.4 0-2.7-1-3-2.5-.1-.5-.1-1-.1-1.4 0-2.7 1.6-3.6 3.9-3.9l2.5 2.1 2.5-2.1c2.1.3 3.7 1.3 3.7 3.9z" fill="#559aff"></path><path d="M42.6 47h-6.4c-.7 0-1.4-.5-1.5-1.2-.1-.4-.1-.8-.1-1.1h1c0 .3 0 .6.1 1 0 .2.3.4.5.4h6.4c.2 0 .5-.2.5-.4.1-.3.1-.7.1-1h1c0 .3 0 .7-.1 1.1-.1.6-.8 1.2-1.5 1.2z" fill="#ffffff" opacity=".3"></path><ellipse cx="39.4" cy="36.9" fill="#559aff" rx="3" ry="3.1"></ellipse><path d="M31.3 44.6c0 .4 0 .9-.1 1.4-.3 1.4-1.5 2.5-3 2.5h-6.4c-1.4 0-2.7-1-3-2.5-.1-.5-.1-1-.1-1.4 0-2.7 1.6-3.6 3.9-3.9l2.5 2.1 2.5-2.1c2.1.3 3.7 1.3 3.7 3.9z" fill="#8cf2ed"></path><path d="M28.2 47h-6.4c-.7 0-1.4-.5-1.5-1.2-.1-.4-.1-.8-.1-1.1h1c0 .3 0 .6.1 1 0 .2.3.4.5.4h6.4c.2 0 .5-.2.5-.4.1-.3.1-.7.1-1h1c0 .3 0 .7-.1 1.1-.1.6-.7 1.2-1.5 1.2z" fill="#ffffff" opacity=".3"></path><ellipse cx="25" cy="36.9" fill="#8cf2ed" rx="3" ry="3.1"></ellipse><ellipse cx="10.6" cy="36.9" fill="#fa4968" rx="3" ry="3.1"></ellipse><path d="M17 44.6c0 .4 0 .9-.1 1.4-.3 1.4-1.5 2.5-3 2.5H7.4c-1.4 0-2.7-1-3-2.5-.1-.5-.1-1-.1-1.4 0-2.7 1.6-3.6 3.9-3.9l2.5 2.1 2.5-2.1c2.2.3 3.8 1.3 3.8 3.9z" fill="#fa4968"></path><path d="M13.8 47H7.4c-.7 0-1.4-.5-1.5-1.2-.1-.4-.1-.8-.1-1.1h1c0 .3 0 .6.1 1 0 .2.3.4.5.4h6.4c.2 0 .5-.2.5-.4.1-.3.1-.7.1-1h1c0 .3 0 .7-.1 1.1-.1.6-.7 1.2-1.5 1.2z" fill="#ffffff" opacity=".3"></path><path d="M4.1 27.4c.2 1.8 1.4 3.1 2.9 3.1h36c1.5 0 2.6-1.3 2.9-3.1z" fill="#525f70"></path><path d="M40.1 4.5H9.9c-1 0-1.8.8-1.8 1.8v21.2h33.7V6.3c.1-1-.7-1.8-1.7-1.8z" fill="#f4f4f4"></path><path d="M28.8 27.4c2.6 0 4.8-2 4.8-4.6 0-4.7-3.9-5.5-8.6-5.5s-8.6.8-8.6 5.5c0 2.5 2.2 4.6 4.8 4.6z" fill="#e5e5e5"></path><path d="M33.6 22.8c0 2.6-2.2 4.6-4.8 4.6h-7.7c-2.6 0-4.8-2-4.8-4.6 0-4.7 3.9-5.5 8.6-5.5.7 0 1.4 0 2.1.1s1.4.1 2.1.3c2.7.6 4.5 1.9 4.5 5.1z" fill="#616b77"></path><path d="M23.4 12.7s-.4 4.7-.4 5.2c0 1.1.9 2 2 2s2-.9 2-2c0-.4-.4-5.2-.4-5.2z" fill="#d9baa8"></path><path d="M31.6 10.7c-.3.9-.9 1.4-1.9 1.1s-2-1.3-1.7-2.2 2.1-1.3 3.1-1c.9.3.8 1.2.5 2.1zM18.4 10.7c.3.9.9 1.4 1.9 1.1s2-1.3 1.7-2.2-2.1-1.3-3.1-1c-.9.3-.8 1.2-.5 2.1z" fill="#c9a28f"></path><path d="M30.1 8c0 3.6-1.4 8.1-5.1 8.1s-5.1-4.5-5.1-8.1 1.4-4.9 5.1-4.9 5.1 1.3 5.1 4.9z" fill="#e8cec1"></path><path d="M17.3 6.7c3.3-.9 2.7-7 5.9-4.3 2 1.7-2.3 7.2-5.9 4.3z" fill="#894d47"></path><path d="M30.2 8.3c-2.4-3.7-9.1-.4-7.4-5.5C24-.4 32 2.6 30.2 8.3z" fill="#894d47"></path><path d="m24.3 19.9-.9 4.9 1.5 1.1 1.5-1.1-.9-4.9z" fill="#fa4968"></path><path d="M29.1 17.7 27 21.4l-2-1.6 2.1-2.4c.7.1 1.4.2 2 .3zM20.9 17.7l2.1 3.7 2-1.6-2.1-2.4c-.7.1-1.4.2-2 .3z" fill="#ddedeb"></path></g></svg>