<svg viewBox="0 0 512 512" xmlns="http://www.w3.org/2000/svg"><g><path d="M357.979 112.084H282.26c-38.869-42.505-19.862-86.782 11.013-73.565 0 0-2.658-38.127 26.404-38.508.144-.011.288-.011.443-.011 29.535 0 26.847 38.518 26.847 38.518 30.884-13.217 49.881 31.06 11.012 73.566z" fill="#f6f1f1"></path><path d="M314.711 112.084H282.26c-38.869-42.505-19.862-86.782 11.013-73.565 0 0-2.658-38.127 26.404-38.508-20.388 1.102-10.374 78.128-4.966 112.073z" fill="#eadfda"></path><path d="M480.128 291.638c0-88.37-71.638-192.113-160.007-192.113S160.113 203.269 160.113 291.638 231.751 419.54 320.121 419.54s160.007-39.532 160.007-127.902z" fill="#f6f1f1"></path><path d="M320.12 419.541c-88.369 0-160.008-39.538-160.008-127.907S231.751 99.526 320.12 99.526c-44.473 0-80.519 103.739-80.519 192.108s36.046 127.907 80.519 127.907z" fill="#eadfda"></path><path d="M498.231 368.831h-.009L365.333 475.427a52.02 52.02 0 0 1-38.84 11.054l-179.104-21.797-47.722 17.653c-25.636-26.365-15.101-106.044-15.101-106.044l11.365-8.261c-.986-15.186 6.176-30.265 19.469-38.894a42.419 42.419 0 0 1 4.621-2.621l76.801-37.507 39.498-19.291a37.108 37.108 0 0 1 6.576-2.479c16.51-4.523 34.433 2.737 42.883 18.305 9.588 17.674 3.545 39.764-13.702 50.099l-63.845 38.263 107.439 18.714a52.033 52.033 0 0 0 37.25-7.624l106.853-69.363c14.333-9.312 33.402-6.078 43.879 7.438a32.879 32.879 0 0 1 5.722 11.418c3.358 12.26-.614 25.891-11.144 34.341z" fill="#f1d0a5"></path><path d="M326.2 457.85c-73.577 9.557-124.303-33.589-154.991-74.181-15.217-20.128-10.086-48.916 11.157-62.533 74.092-47.493 93.257-45.748 103.413-35.592-8.451-15.568-26.374-22.828-42.883-18.305a37.216 37.216 0 0 0-6.576 2.479l-39.498 19.291-62.249 30.401-.008.012-14.544 7.095c-16.235 7.926-25.183 24.65-24.09 41.515l-33.175 8.356s11.276 79.584 36.912 105.949l47.722-17.653 179.104 21.797a52.018 52.018 0 0 0 38.84-11.054l132.888-106.595C452.3 356.373 375.757 450.271 326.2 457.85z" fill="#f1b986"></path><path d="M243.963 333.609a19.464 19.464 0 0 1-16.214-8.668c-8.257-12.33-10.694-24.679-10.794-25.198a7.725 7.725 0 0 1 15.171-2.934c.034.169 2.043 9.949 8.462 19.534 1.155 1.722 3.519 2.293 5.391 1.295l9.577-5.108a7.725 7.725 0 0 1 10.453 3.182 7.725 7.725 0 0 1-3.181 10.453l-9.577 5.108a19.709 19.709 0 0 1-9.288 2.336z" fill="#f1b986"></path><ellipse cx="59.473" cy="436.231" fill="#df6b57" rx="47.963" ry="96.693" transform="rotate(-19.44 59.639 436.46)"></ellipse><path d="M114.231 489.398c-19.646 12.269-40.96 19.8-63.954 22.602a1262.326 1262.326 0 0 1-13.207-33.1c23.952-2.957 46.193-10.734 66.725-23.344a1250.883 1250.883 0 0 1 10.436 33.842z" fill="#da387d"></path><path d="M72.142 485.545c-4.49 0-8.545-3.03-9.849-7.314-1.27-4.173.308-8.818 3.851-11.364 3.349-2.407 7.924-2.531 11.426-.372 3.609 2.225 5.513 6.599 4.678 10.758-.955 4.754-5.252 8.292-10.106 8.292z" fill="#ffffff"></path><path d="M386.731 238.225a374.706 374.706 0 0 1-9.338-3.43v-47.299c8.62 1.506 13.789 5.955 14.168 6.291a7.726 7.726 0 0 0 10.433-11.399c-.528-.487-9.671-8.715-24.602-10.506v-10.441a7.726 7.726 0 1 0-15.452 0v11.055a55.236 55.236 0 0 0-5.385 1.329c-12.788 3.852-22.347 14.814-24.947 28.608-2.36 12.525 1.617 24.575 10.378 31.447 4.979 3.905 11.237 7.479 19.954 11.295v58.811c-8.462-.389-13.763-2.032-22.922-8.022a7.726 7.726 0 1 0-8.459 12.931c12.189 7.974 20.363 10.092 31.38 10.543v11.658a7.726 7.726 0 1 0 15.452 0v-12.213c21.014-3.504 33.279-20.551 35.954-36.46 3.355-19.948-7.092-37.297-26.614-44.198zm-35.207-16.503c-4.205-3.298-6.017-9.592-4.729-16.426 1.196-6.351 5.56-14.066 14.217-16.674.313-.094.619-.173.929-.258v39.749c-4.301-2.168-7.7-4.26-10.417-6.391zm46.583 58.141c-1.625 9.666-8.678 19.976-20.714 23.201V251.29c1.357.495 2.743.995 4.187 1.505 18.461 6.525 17.318 22.368 16.527 27.068z" fill="#736e6e"></path><circle cx="133.806" cy="151.268" fill="#df6b57" r="124.617"></circle><path d="M78.902 239.385c20.099 20.099 45.359 31.894 71.505 35.387-37.169 4.976-76.151-6.82-104.718-35.387-48.666-48.666-48.666-127.567 0-176.233 28.567-28.567 67.549-40.362 104.718-35.387-26.146 3.492-51.406 15.288-71.505 35.387-48.666 48.666-48.666 127.567 0 176.233z" fill="#da387d"></path><path d="M133.807 283.611c-35.35 0-68.585-13.766-93.581-38.763-24.996-24.996-38.763-58.23-38.763-93.58S15.23 82.683 40.226 57.687c24.997-24.996 58.231-38.762 93.581-38.762s68.585 13.766 93.58 38.762 38.762 58.231 38.762 93.581-13.766 68.584-38.762 93.58c-24.996 24.997-58.23 38.763-93.58 38.763zm0-249.234c-31.222 0-60.576 12.159-82.654 34.236-22.078 22.078-34.237 51.432-34.237 82.654s12.159 60.576 34.237 82.654c22.077 22.078 51.432 34.236 82.654 34.236s60.576-12.159 82.653-34.236c22.078-22.078 34.236-51.431 34.236-82.654s-12.158-60.576-34.236-82.654c-22.077-22.077-51.431-34.236-82.653-34.236z" fill="#da387d"></path><g fill="#fff"><path d="M106.377 225.08a7.726 7.726 0 0 1-7.122-10.718L155.94 79.293a7.726 7.726 0 1 1 14.25 5.979L113.505 220.34a7.73 7.73 0 0 1-7.128 4.74zM95.529 141.925c-18.071 0-32.774-16.523-32.774-36.831s14.702-36.831 32.774-36.831c18.07 0 32.773 16.523 32.773 36.831s-14.703 36.831-32.773 36.831zm0-58.21c-9.55 0-17.321 9.591-17.321 21.379s7.771 21.379 17.321 21.379 17.32-9.591 17.32-21.379-7.77-21.379-17.32-21.379zM172.084 234.273c-18.07 0-32.773-16.523-32.773-36.831 0-20.309 14.702-36.832 32.773-36.832s32.773 16.523 32.773 36.832-14.702 36.831-32.773 36.831zm0-58.21c-9.55 0-17.32 9.591-17.32 21.379s7.77 21.379 17.32 21.379 17.32-9.591 17.32-21.379c0-11.789-7.769-21.379-17.32-21.379z" fill="#ffffff"></path></g></g></svg>