<svg viewBox="0 0 512 512" xmlns="http://www.w3.org/2000/svg"><g><g fill="#fdb441"><path d="M481.666 205.049a1.237 1.237 0 0 1-1.308-.915c-12.448-46.534-39.507-88.565-77.056-119.338-41.209-33.773-93.298-52.372-146.672-52.372V60.74c90.126 0 169.711 60.338 194.925 145.554a1.253 1.253 0 0 1-1.088 1.599l-23.68 2.159a1.245 1.245 0 0 0-.904 1.958l46.357 65.683a1.245 1.245 0 0 0 2.148-.196l33.715-72.983a1.245 1.245 0 0 0-1.244-1.762zM127.009 143.365l33.705-72.988a1.245 1.245 0 0 0-1.244-1.762l-80.063 7.294a1.245 1.245 0 0 0-.904 1.958l14.586 20.669a1.236 1.236 0 0 1-.139 1.59c-34.075 34.047-56.946 78.496-64.822 126.401-8.643 52.575 1.294 106.986 27.981 153.209l24.523-14.158c-45.063-78.052-32.601-177.143 28.59-241.588.541-.57 1.475-.5 1.929.143l13.71 19.428a1.245 1.245 0 0 0 2.148-.196zM208.271 459.869l9.97-21.586a1.245 1.245 0 0 0-1.244-1.762l-80.062 7.305a1.245 1.245 0 0 0-.904 1.958l46.348 65.689a1.245 1.245 0 0 0 2.148-.196l10.607-22.966a1.238 1.238 0 0 1 1.447-.676c19.54 5.245 39.679 7.86 59.837 7.86 27.831 0 55.696-4.988 82.04-14.923 49.853-18.802 92.005-54.613 118.692-100.836l-24.522-14.158c-45.064 78.052-137.11 116.805-223.516 96.032a1.252 1.252 0 0 1-.841-1.741z" fill="#fdb441"></path></g><path d="M309.636 108.692H203.623a1.339 1.339 0 0 1-1.339-1.339V1.339c0-.739.599-1.339 1.339-1.339h106.014c.739 0 1.339.599 1.339 1.339v106.014a1.34 1.34 0 0 1-1.34 1.339z" fill="#fe646f"></path><path d="M141.711 412.444H5.122A1.339 1.339 0 0 1 4 410.375l68.295-104.899a1.339 1.339 0 0 1 2.244 0l68.295 104.899a1.34 1.34 0 0 1-1.123 2.069z" fill="#8ac9fe"></path><path d="M443.058 440.889c-32.158 0-58.228-26.069-58.228-58.228 0-32.158 26.069-58.228 58.228-58.228 32.158 0 58.228 26.069 58.228 58.228-.001 32.159-26.07 58.228-58.228 58.228z" fill="#6fd7a3"></path><path d="M309.636 0h-39.87v56.41c0 17.495-14.182 31.677-31.677 31.677h-35.806v19.265c0 .739.599 1.339 1.339 1.339h106.014c.739 0 1.339-.6 1.339-1.339V1.339c0-.74-.599-1.339-1.339-1.339z" fill="#fd4755"></path><path d="M142.833 410.375 74.539 305.476a1.339 1.339 0 0 0-2.244 0L59.52 325.099l23.953 36.792c8.392 12.89-.858 29.95-16.239 29.95H16.067L4 410.375a1.338 1.338 0 0 0 1.122 2.069h136.589a1.338 1.338 0 0 0 1.122-2.069z" fill="#60b7ff"></path><path d="M446.369 324.526c8.553 10.135 13.707 23.231 13.707 37.53 0 32.158-26.069 58.228-58.228 58.228-1.111 0-2.215-.031-3.311-.093 10.681 12.657 26.662 20.697 44.52 20.697 32.158 0 58.228-26.069 58.228-58.228 0-31.046-24.298-56.417-54.916-58.134z" fill="#3ec3a4"></path><path d="m370.037 249.393-23.634-5.908a.747.747 0 0 1-.533-.508 92.55 92.55 0 0 0-6.817-16.444.748.748 0 0 1 .018-.736l12.537-20.896a.755.755 0 0 0-.113-.921l-28.424-28.424a.753.753 0 0 0-.921-.113l-20.896 12.538a.746.746 0 0 1-.736.018 92.51 92.51 0 0 0-16.443-6.817.748.748 0 0 1-.508-.533l-5.908-23.634a.754.754 0 0 0-.731-.571h-40.197a.753.753 0 0 0-.731.571l-5.909 23.634a.747.747 0 0 1-.508.533 92.51 92.51 0 0 0-16.443 6.817.746.746 0 0 1-.736-.018l-20.896-12.538a.755.755 0 0 0-.921.113l-28.424 28.424a.753.753 0 0 0-.113.921l12.537 20.896a.746.746 0 0 1 .018.736 92.588 92.588 0 0 0-6.818 16.443.748.748 0 0 1-.533.508l-23.634 5.909a.754.754 0 0 0-.571.731v40.197c0 .346.235.647.571.731l23.634 5.909a.747.747 0 0 1 .533.508 92.48 92.48 0 0 0 6.818 16.444.748.748 0 0 1-.018.736l-12.537 20.896a.755.755 0 0 0 .113.921l28.424 28.424a.753.753 0 0 0 .921.113l20.896-12.538a.746.746 0 0 1 .736-.018 92.51 92.51 0 0 0 16.443 6.817.745.745 0 0 1 .507.533l5.909 23.634a.754.754 0 0 0 .731.571h40.197a.753.753 0 0 0 .731-.571l5.908-23.634a.747.747 0 0 1 .508-.533 92.51 92.51 0 0 0 16.443-6.817.746.746 0 0 1 .736.018L322.151 365a.755.755 0 0 0 .921-.113l28.424-28.424a.753.753 0 0 0 .113-.921l-12.537-20.896a.746.746 0 0 1-.018-.736 92.52 92.52 0 0 0 6.817-16.444.748.748 0 0 1 .533-.508l23.634-5.909a.754.754 0 0 0 .571-.731v-40.197a.754.754 0 0 0-.572-.728zM256.83 311.489c-23.564 0-42.667-19.103-42.667-42.667s19.102-42.667 42.667-42.667 42.667 19.103 42.667 42.667-19.103 42.667-42.667 42.667z" fill="#685e68"></path><path d="m370.037 249.393-23.634-5.908a.747.747 0 0 1-.533-.508 92.55 92.55 0 0 0-6.817-16.444.744.744 0 0 1 .018-.735l12.537-20.896a.755.755 0 0 0-.113-.921l-28.424-28.424a.755.755 0 0 0-.921-.113l-20.896 12.538a.746.746 0 0 1-.736.018 92.51 92.51 0 0 0-16.443-6.817.748.748 0 0 1-.508-.533l-5.908-23.634a.753.753 0 0 0-.731-.571h-40.197a.753.753 0 0 0-.731.571l-.387 1.548c41.106 9.126 71.844 45.8 71.844 89.654 0 50.72-41.117 91.837-91.837 91.837-17.643 0-34.124-4.975-48.117-13.599l-5.453 9.088a.755.755 0 0 0 .113.921l28.424 28.424a.755.755 0 0 0 .921.113l20.896-12.538a.748.748 0 0 1 .736-.018 92.51 92.51 0 0 0 16.443 6.817.748.748 0 0 1 .508.533L236 383.43a.753.753 0 0 0 .731.571h40.197a.753.753 0 0 0 .731-.571l5.908-23.634a.747.747 0 0 1 .508-.533 92.51 92.51 0 0 0 16.443-6.817.746.746 0 0 1 .736.018L322.151 365a.755.755 0 0 0 .921-.113l28.424-28.424a.755.755 0 0 0 .113-.921l-12.537-20.896a.746.746 0 0 1-.018-.736 92.51 92.51 0 0 0 6.817-16.443.748.748 0 0 1 .533-.508l23.634-5.909a.753.753 0 0 0 .571-.731v-40.197a.754.754 0 0 0-.572-.729z" fill="#554e56"></path></g></svg>