<svg viewBox="0 0 464.274 464.274" xmlns="http://www.w3.org/2000/svg"><g><path d="m309.24 198.845-9.597 6.083c64.067 56.335 38.507 96.58 38.507 96.58l9.178 5.272c-.001-.001 31.076-41.349-38.088-107.935z" fill="#404077"></path><path d="M283.586 145.047s29.43 23.62 44.103 52.8-9.023 41.811-41.164 6.869-58.162-96.886-2.939-59.669zM248.927 86.544l-48.48 57.92-80.61 96.31-3.32 3.97c-4.69 2.18-9.14 3.99-13.36 5.47-4.04 1.41-7.87 2.52-11.5 3.35h-.01c-58.55 13.38-64.22-45.97-44.88-63.33 21.8-19.55 41.1-43.84 21.18-74.05-19.93-30.22-45.47-99.82 7.62-111.62 3.22-.71 6.3-1.19 9.24-1.46 32.14-3.04 48.23 17.87 48.23 17.87 7.15-4.61 14.76-6.72 21.94-7.4 17.01-1.62 31.56 4.78 31.56 4.78 42.19-25.49 70.77-24.77 80.29 4.29 11.47 35.05-17.9 63.9-17.9 63.9z" fill="#52528c"></path><path d="m236.137 82.814-35.69 61.65-80.61 96.31c-5.9 3.8-11.65 7.13-16.68 9.44-4.56 2.09-8.53 3.35-11.5 3.35h-.01c-2.97 0-4.94-1.25-5.51-4.16-4-20.46 60.97-81.09 5.45-157.17-42.75-58.58-19.66-81.63-6.78-89.13 32.14-3.04 48.23 17.87 48.23 17.87 7.15-4.61 14.76-6.72 21.94-7.4l-.01.01c-47.83 46.1 14.17 69.23 31.57 37.23 17.39-32 60.93-55.67 61.6-27.95s-12 59.95-12 59.95z" fill="#404077"></path><path d="M119.457 34.118s-13.694 36.125 12.006 50.069c0 0-19.178 18.506-33.984-3.43-17.205-25.49 7.344-42.789 21.978-46.639z" fill="#fae26b"></path><path d="m234.059 213.83-114.58.268s-82.687 19.449-64.693 123.575l220.163-53.2c-3.833-44.076-40.89-70.643-40.89-70.643z" fill="#c5c5fe"></path><ellipse cx="177.79" cy="208.145" fill="#a3a3f5" rx="61.75" ry="24"></ellipse><path d="M209.357 160.174s1.51 18.31 5.85 34.89c1.12 4.31 2.43 8.5 3.96 12.22-15.83 7.07-32.63 8.03-47.21 6.58-16.85-1.67-30.73-6.55-36.74-8.94 3.31-6.08 15.54-31.39 14.39-72.19-4.86 1.52-11.07 1.14-18.14-4.42-11.12-8.76-11.71-32.2-1.08-43.51 5.92-6.3 15.33-8.85 28.36-2.95 0 0 3.46 1.27 6.56 3.48 3.01-.49 5.88-1.13 8.63-1.88 1.77-.49 3.48-1.02 5.14-1.6 26.86-9.33 40.13-29.98 44.49-38.17 54.94 53.65 12.45 110.961-14.21 116.49z" fill="#ffebd4"></path><path d="M215.207 195.064c-17.53-14.82-29-36.93-29-36.93 5.09 1.59 10.96 2.65 17.56 2.65 1.77 0 3.64-.21 5.58-.62l.01.01s1.51 18.31 5.85 34.89zM171.957 213.864c-16.85-1.67-30.73-6.55-36.74-8.94 3.31-6.08 15.54-31.39 14.39-72.19-4.86 1.52-11.07 1.14-18.14-4.42-11.12-8.76-11.71-32.2-1.08-43.51 5.92-6.3 15.33-8.85 28.36-2.95 0 0 3.46 1.27 6.56 3.48 3.01-.49 5.88-1.13 8.63-1.88 1.77-.49 3.48-1.02 5.14-1.6-7.36 23.38-20.93 78.271-7.12 132.01z" fill="#ffd5b8"></path><path d="m140.553 92.236 10.469 26.554c13.066-19.915-10.469-26.554-10.469-26.554z" fill="#ffc7a1"></path><path d="M464.137 249.404v74.12l-106.61 115.741H28.567l-28.43-23.35 1.6-2.59 93.2-151.25z" fill="#d68f67"></path><path d="M464.137 249.404v74.12l-355.36 7.111-80.21 108.63-26.83-25.94 93.2-151.25z" fill="#f0b48f"></path><path d="m372.757 355.004-4 109.27H88.417l-1.98-41.25 39.6-59.889.01-.01z" fill="#f0b48f"></path><g fill="#e2a27f"><path d="M132.157 464.274h-43.74l-1.98-41.25 39.6-59.889zM108.777 330.635l-80.21 108.63-26.83-25.94 93.2-151.25z" fill="#e2a27f"></path></g></g></svg>