<svg viewBox="0 0 60 60" xmlns="http://www.w3.org/2000/svg"><g><path d="M24 9a6 6 0 0 0 12 0V7a6 6 0 0 0-12 0z" fill="#3f54ea"></path><path d="M47 23c-.01-.01-10.02-7.52-10.02-7.52a2.529 2.529 0 0 0-1.47-.48H24.49a2.529 2.529 0 0 0-1.47.48S13.01 22.99 13 23a2.543 2.543 0 0 0 .08 4.1s4.39 3.43 6.8 5.33a2.525 2.525 0 0 0 1.57.55 2.566 2.566 0 0 0 2.08-1.08 2.547 2.547 0 0 0-.41-3.4l-4.27-3.57L23.99 21l.01 9.43v.08a13.782 13.782 0 0 1-.31 2.94l-4.62 21.93a2.986 2.986 0 0 0 2.31 3.55 2.7 2.7 0 0 0 .63.07 3.008 3.008 0 0 0 2.93-2.38l4.65-17.35 6.17 2.85A2.045 2.045 0 0 1 37 44v10h6V42.05a4.739 4.739 0 0 0-2.77-4.31L36 35.55v-5.07a2.548 2.548 0 0 0 4.12 1.95c2.41-1.9 6.8-5.33 6.8-5.33A2.543 2.543 0 0 0 47 23zm-10.12 5.5a2.539 2.539 0 0 0-.88 1.82l.01-9.32 5.14 3.93z" fill="#3f54ea"></path><path d="M34 53h12a2 2 0 0 1 2 2v3a1 1 0 0 1-1 1H33a1 1 0 0 1-1-1v-3a2 2 0 0 1 2-2z" fill="#243266"></path></g></svg>