<svg viewBox="0 0 512 512" xmlns="http://www.w3.org/2000/svg"><g><path d="m187.732 206.248 13.963-34.574c3.253-7.854-6.286-26.812 0-31.898l-3.066-17.29c-.134-.117-.306-.001-.485-.001l-19.72.001c-.178 0-61.979 31.366-61.979 31.366 8.226 16.19 53.102 48.349 71.287 52.396z" fill="#dd636e"></path><path d="M177.94 137.131a.735.735 0 0 1 .484-.18h19.72c.178 0 .351.063.485.18l3.066 2.645s19.98 6.71 31.542 6.71l3.925-17.786a15.024 15.024 0 0 1-9.811-3.646L216.853 116a28.354 28.354 0 0 0-5.633-3.783c-5.429-2.769-8.986-8.197-8.985-14.292l.001-4.871c0-14.261-8.206-27.207-20.905-32.98-6.419-2.918-10.282-9.37-9.844-16.435.514-8.288 7.409-15.182 15.696-15.697 5.894-.347 11.404 2.219 14.951 7.205 2.02 2.839 2.935 6.289 2.98 9.774.099 7.739 6.5 13.96 14.307 13.766 7.639-.19 13.716-7.029 13.591-14.67-.197-12.038-5.31-23.622-14.097-31.88-9.09-8.544-20.976-12.824-33.461-12.045-22.447 1.393-40.425 19.371-41.819 41.818-1.162 18.716 9.101 35.817 26.146 43.567 2.764 1.257 4.549 4.231 4.549 7.578l.001 4.871c.001 6.094-3.556 11.523-8.985 14.292a28.332 28.332 0 0 0-5.634 3.783l-10.497 9.054a15.021 15.021 0 0 1-9.81 3.646h-12.811s-5.609 13.052-4.567 17.548c1.133 4.885 11.225 10.357 11.225 10.357h6.153a42.928 42.928 0 0 0 28.036-10.42z" fill="#d09080"></path><path d="m140.71 271.275 34.115-82.361c-27.597-6.141-48.229-30.769-48.229-60.216H97.858c-19.905 0-38.147 11.936-45.908 30.675L5.599 271.275a3.174 3.174 0 0 0 1.718 4.147l57.339 23.751v207.125a5.703 5.703 0 0 0 5.703 5.703h129.408V299.173l-57.339-23.751a3.173 3.173 0 0 1-1.718-4.147z" fill="#e4989d"></path><g fill="#e28086"><path d="m136.277 161.89-24.717 59.671c-7.33 17.697 1.073 37.985 18.77 45.315l6.819 2.825a34.836 34.836 0 0 1 3.512 1.691l29.605-43.461 4.558-39.016c-16.145-3.593-29.906-13.514-38.547-27.025zM149.474 278.341a34.674 34.674 0 0 1 9.085 23.402v148.456c0 22.752-18.445 41.197-41.197 41.197H64.656v14.901A5.703 5.703 0 0 0 70.359 512h129.408l18.975-212.827zM64.656 299.173V195.998a7.726 7.726 0 1 0-15.452 0v96.774z" fill="#e28086"></path></g><path d="M336.762 128.699h-26.735c-.241 0-61.238 26.645-61.238 26.645 13.809 27.179 42.033 45.801 74.606 45.801s60.797-18.622 74.606-45.801c0 0-60.997-26.645-61.239-26.645z" fill="#f1cb86"></path><path d="M274.517 156.604a42.928 42.928 0 0 0 28.036-10.42l10.497-9.054a.735.735 0 0 1 .484-.18h19.72c.178 0 .35.063.485.18l10.498 9.054a42.928 42.928 0 0 0 28.036 10.42h6.152s12.297-4.479 13.366-8.099c1.637-5.546-6.708-19.806-6.708-19.806h-12.81a15.026 15.026 0 0 1-9.811-3.646l-10.498-9.054a28.354 28.354 0 0 0-5.633-3.783c-5.429-2.769-8.986-8.197-8.985-14.292l.001-4.871c0-14.261-8.206-27.207-20.905-32.98-6.419-2.918-10.282-9.37-9.844-16.435.514-8.288 7.409-15.182 15.696-15.697 5.894-.347 11.404 2.219 14.951 7.205 2.02 2.839 2.935 6.289 2.98 9.774.099 7.739 6.5 13.96 14.307 13.766 7.639-.19 13.716-7.029 13.591-14.67-.197-12.038-5.31-23.622-14.097-31.88C344.936 3.592 333.05-.688 320.565.091c-22.447 1.393-40.425 19.371-41.819 41.818-1.162 18.716 9.101 35.817 26.146 43.567 2.764 1.257 4.549 4.231 4.549 7.578l.001 4.871c.001 6.094-3.556 11.523-8.985 14.292a28.332 28.332 0 0 0-5.634 3.783l-10.497 9.054a15.021 15.021 0 0 1-9.81 3.646h-12.811s-5.214 10.395-4.291 14.637c1.128 5.186 10.949 13.268 10.949 13.268h6.154z" fill="#d09080"></path><path d="M460.295 159.374c-7.767-18.751-26.016-30.675-45.908-30.675h-29.304c0 34.07-27.619 61.688-61.689 61.688s-61.688-27.619-61.688-61.688h-28.737c-19.905 0-38.147 11.936-45.908 30.675L140.71 271.275a3.174 3.174 0 0 0 1.718 4.147l57.339 23.751V512h242.12a5.703 5.703 0 0 0 5.703-5.703V299.173l57.334-23.749 1.721-4.154z" fill="#f4d8a5"></path><path d="m506.644 271.27-46.349-111.896c-7.767-18.751-26.016-30.675-45.908-30.675h-.914a49.696 49.696 0 0 1 5.615 10.071l41.796 100.905c3.173 7.66-.498 16.524-8.159 19.697l-17.607 7.293a46.55 46.55 0 0 0-28.736 43.007v140.527c0 22.752-18.444 41.197-41.197 41.197H199.766V512h242.12a5.703 5.703 0 0 0 5.703-5.703V299.173l57.334-23.748 1.721-4.155z" fill="#f1cb86"></path><path d="M356.603 236.025v31.487a32.617 32.617 0 0 0 65.232 0v-31.487a4.044 4.044 0 0 0-4.044-4.044h-57.143a4.044 4.044 0 0 0-4.045 4.044z" fill="#f6e266"></path><path d="M420.683 276.102a46.602 46.602 0 0 0-11.258 17.013 32.623 32.623 0 0 0 11.258-17.013z" fill="#ecbe6b"></path><path d="M199.766 299.173V195.998a7.726 7.726 0 1 0-15.452 0v96.774zM455.315 188.272a7.725 7.725 0 0 0-7.726 7.726v103.175l15.453-6.401v-96.774a7.726 7.726 0 0 0-7.727-7.726z" fill="#f1cb86"></path><path d="M463.042 195.998a7.725 7.725 0 0 0-7.726-7.726 7.725 7.725 0 0 0-7.726 7.726v11.581l13.295 32.097c3.173 7.66-.498 16.524-8.159 19.697l-5.136 2.127v37.672l15.453-6.401v-96.773z" fill="#ecbe6b"></path></g></svg>