<svg viewBox="0 0 512 512" xmlns="http://www.w3.org/2000/svg"><g><path d="M224 68v24a44 44 0 1 1-88 0V68a44 44 0 0 1 43.1-43.99c.3-.01.6-.01.9-.01a44.009 44.009 0 0 1 44 44z" fill="#fec9a3"></path><path d="M224 68v24a44.028 44.028 0 0 1-55.31 42.53 60.336 60.336 0 0 0 22.64-47.18V60.47a60.174 60.174 0 0 0-12.23-36.46c.3-.01.6-.01.9-.01a44.009 44.009 0 0 1 44 44z" fill="#fec093"></path><path d="M462.04 215.94 432 256v48h-88v-41.75a8 8 0 0 0-6.06-7.76l-5.83-1.46A26.559 26.559 0 0 1 312 227.27a26.907 26.907 0 0 1 .79-6.44l2.8-11.2 3.89-15.57.52-2.06-16-24 32-16 1.51-5.28a69.939 69.939 0 0 1 136.23 7.72l1.34 8.04a69.941 69.941 0 0 1-13.04 53.46z" fill="#fec9a3"></path><path d="M351.668 199.337a7.99 7.99 0 0 1-4.863 11.253 50.588 50.588 0 0 1-14.065 2 51.113 51.113 0 0 1-16.24-2.66l-.91-.3 3.89-15.57 2.08.69a34.869 34.869 0 0 0 20.83.455 7.947 7.947 0 0 1 9.278 4.132z" fill="#f7a468"></path><path d="M78.689 154.765A45.73 45.73 0 0 0 56 194.267 45.733 45.733 0 0 0 101.733 240h5.151a45.737 45.737 0 0 0 24.238-6.951l13.349-8.343L92.48 146.72z" fill="#e0e0de"></path><path d="M158.81 112a25.189 25.189 0 0 0-12.692 3.431L92.48 146.72l51.991 77.986 13.209-8.256A56 56 0 0 0 184 168.962V137.19A25.19 25.19 0 0 0 158.81 112z" fill="#45a7d1"></path><path d="M184 72h16v16h-16z" fill="#92563a"></path><path d="M104 216v26.334a48 48 0 0 1-26.534 42.933L56 296l-4.821 14.463A13.947 13.947 0 0 1 37.947 320 13.947 13.947 0 0 1 24 306.053V272l32-24v-32a24 24 0 0 1 24-24 24 24 0 0 1 24 24z" fill="#fec9a3"></path><path d="m344 304-56 184h144l18.787-79.845A132.894 132.894 0 0 0 432 304z" fill="#e64d40"></path><path d="m232 264-64-128-40 16 57.536 165.416a40 40 0 0 0 25.131 24.806l85.214 28.405 28.287-80.82z" fill="#fec093"></path><path d="m324.168 289.807-28.287 80.82 81.761 27.254A41.318 41.318 0 0 0 390.7 400a41.3 41.3 0 0 0 41.3-41.3v-7.379a41.3 41.3 0 0 0-30.163-39.769z" fill="#f35244"></path><path d="M184 184v-47.46c0-13.455-11.011-24.791-24.464-24.536A24 24 0 0 0 136 136v38.311a48 48 0 0 0 21.374 39.939l24.539 16.359 25.044-31.309z" fill="#4db7e5"></path><path d="m181.913 230.609 10.369 6.912a19.969 19.969 0 0 0 27.052-4.633 19.967 19.967 0 0 0-4.9-28.6l-7.479-4.987z" fill="#fec9a3"></path><path d="M488 160.88a82.816 82.816 0 0 1-20.49 54.54L432 256l-9.46-37.84L416 192l2.56-1.28a19.677 19.677 0 1 0-17.6-35.2L392 160l-5.29-13.22A35.547 35.547 0 0 1 400 104a27.3 27.3 0 0 1-17.86-32.54L384 64l50.91 19.58a82.842 82.842 0 0 1 53.09 77.3z" fill="#7a432a"></path><path d="M488 160.88a82.816 82.816 0 0 1-20.49 54.54L432 256l-9.46-37.84c24.51-26.25 44.65-56.77 57.84-91.97a82.659 82.659 0 0 1 7.62 34.69z" fill="#6e3c26"></path><path d="M352 152h16v16h-16z" fill="#7a432a"></path></g></svg>