<svg viewBox="0 0 90 90" xmlns="http://www.w3.org/2000/svg"><g><path clip-rule="evenodd" d="M53.736 17.404h5.571v4.98h-5.571z" fill="#cccccc" fill-rule="evenodd"></path><path clip-rule="evenodd" d="M56.521 22.035c15.322 0 27.743 12.442 27.743 27.789 0 15.349-12.421 27.792-27.743 27.792-7.566 0-12.577-2.508-22.846-6l2.859-2.879c1.284-1.296.025-3.657-1.871-2.925-8.623 3.317-13.649-.225-16.1-8.226 3.709 2.357 8.831.732 10.436-.877 2.487-2.489 1.516-5.368-4.082-3.518-7.179 2.367-14.747-1.776-18.383-12.023 10.984 5.518 11.793-5.838 23.395-2.812-.987-3.981-3.663-5.294-9.792-5.137 6.078-7.66 14.918-3.694 24.241-8.381a27.534 27.534 0 0 1 12.143-2.803z" fill="#fd6b65" fill-rule="evenodd"></path><path clip-rule="evenodd" d="M76.415 49.823c0 11.006-8.904 19.927-19.894 19.927a19.866 19.866 0 0 1-14.068-5.837 19.951 19.951 0 0 1 0-28.183 19.882 19.882 0 0 1 14.068-5.836c10.99 0 19.894 8.925 19.894 19.929z" fill="#f2f2f2" fill-rule="evenodd"></path><g fill="gray"><path d="M56.223 32.7a1.05 1.05 0 0 0-1.029 1.061v1.505c0 1.39 2.09 1.39 2.09 0v-1.505a1.042 1.042 0 0 0-1.061-1.061zM56.223 63.327a1.044 1.044 0 0 0-1.029 1.061v1.5c0 1.395 2.09 1.395 2.09 0v-1.5c.01-.59-.47-1.072-1.061-1.061zM70.777 48.779c-1.39 0-1.39 2.091 0 2.091h1.5c1.389 0 1.389-2.091 0-2.091zM40.196 48.779c-1.389 0-1.389 2.091 0 2.091h1.505c1.39 0 1.39-2.091 0-2.091zM66.507 59.067c-.94 0-1.4 1.14-.727 1.792l1.056 1.062a1.047 1.047 0 0 0 1.505.027 1.04 1.04 0 0 0-.032-1.5l-1.056-1.061a1.034 1.034 0 0 0-.746-.32zM44.884 37.413c-.937 0-1.395 1.14-.726 1.793l1.061 1.056c.401.433 1.086.45 1.505.03a1.048 1.048 0 0 0-.032-1.505l-1.056-1.055a1.048 1.048 0 0 0-.752-.319zM67.558 37.413a1.028 1.028 0 0 0-.721.319l-1.056 1.055a1.048 1.048 0 0 0-.032 1.505 1.046 1.046 0 0 0 1.505-.03l1.056-1.056c.685-.664.199-1.824-.752-1.793zM45.939 59.067c-.271.011-.534.12-.721.32l-1.061 1.061a1.041 1.041 0 0 0-.027 1.5 1.046 1.046 0 0 0 1.505-.027l1.056-1.062c.685-.662.2-1.817-.752-1.792z" fill=""></path><path clip-rule="evenodd" d="M56.521 48.261c.873 0 1.563.686 1.563 1.563 0 .879-.689 1.563-1.563 1.563a1.548 1.548 0 0 1-1.563-1.563c0-.878.691-1.563 1.563-1.563zm7.049-6.87a1.035 1.035 0 0 0-.716.308l-4.812 4.824a3.563 3.563 0 0 0-1.521-.35c-2.001 0-3.642 1.651-3.642 3.651 0 2.001 1.641 3.654 3.642 3.654s3.643-1.653 3.643-3.654c0-.705-.21-1.357-.559-1.917l4.723-4.734c.669-.664.188-1.804-.758-1.782z" fill="" fill-rule="evenodd"></path></g></g></svg>