<svg viewBox="0 0 53 53" xmlns="http://www.w3.org/2000/svg"><g><path d="M47.976 19.547v23.916H5.026V19.547a4.442 4.442 0 0 1 4.449-4.439h34.062a4.433 4.433 0 0 1 4.439 4.44z" fill="#5b5e8b"></path><path d="M47.98 40.517v2.95H5.03V19.55a4.435 4.435 0 0 1 3.222-4.268c-.131.413-.202.855-.202 1.318v18.131a5.785 5.785 0 0 0 5.786 5.785H47.98z" fill="#312e4b"></path><path d="M45.637 48.313H7.364a4.819 4.819 0 0 1-4.818-4.818v-.032h47.91v.032a4.819 4.819 0 0 1-4.82 4.818z" fill="#5b5e8b"></path><path d="M11.442 48.318H7.396a4.854 4.854 0 0 1-4.851-4.852H6.59a4.854 4.854 0 0 0 4.851 4.852z" fill="#312e4b"></path><path d="M8.049 38.48V20.09c0-1.086.88-1.965 1.965-1.965h32.98c1.085 0 1.965.88 1.965 1.965v18.39c0 1.085-.88 1.965-1.965 1.965h-32.98A1.965 1.965 0 0 1 8.05 38.48z" fill="#65b9ff"></path><path d="M11.775 40.447h-1.762a1.965 1.965 0 0 1-1.963-1.963v-18.39c0-1.087.876-1.973 1.963-1.973h1.762a1.967 1.967 0 0 0-1.963 1.973v18.39c0 1.087.876 1.963 1.963 1.963z" fill="#3e7fff"></path><path d="M31.97 45.888a.942.942 0 0 1-.938.937h-9.068a.935.935 0 0 1-.928-.937c0-.513.415-.937.928-.937h9.068c.514 0 .937.424.937.937zM42.188 6.935v26.057a2.253 2.253 0 0 1-2.253 2.253H13.069a2.253 2.253 0 0 1-2.253-2.253V6.935a2.253 2.253 0 0 1 2.253-2.253h26.866a2.253 2.253 0 0 1 2.253 2.253z" fill="#deddff"></path><path d="M15.274 35.243h-2.208a2.255 2.255 0 0 1-2.253-2.253V6.938a2.255 2.255 0 0 1 2.253-2.253h2.208a2.25 2.25 0 0 0-2.253 2.253V32.99a2.25 2.25 0 0 0 2.253 2.253z" fill="#c6c6f7"></path><path d="M42.189 6.938v3.128H10.813V6.938a2.255 2.255 0 0 1 2.253-2.253h26.87a2.25 2.25 0 0 1 2.253 2.253z" fill="#fcb73e"></path><path d="M15.274 4.685a2.25 2.25 0 0 0-2.253 2.253v3.128h-2.208V6.938a2.255 2.255 0 0 1 2.253-2.253z" fill="#e87f21"></path><circle cx="15.127" cy="7.103" fill="#deddff" r=".855"></circle><circle cx="18.013" cy="7.103" fill="#deddff" r=".855"></circle><circle cx="20.898" cy="7.103" fill="#deddff" r=".855"></circle><path d="m14.554 16.54-.008-2.852a1.302 1.302 0 0 1 1.302-1.306h3.733c.72 0 1.303.583 1.303 1.303v2.852c0 .72-.583 1.303-1.303 1.303h-3.725c-.718 0-1.3-.581-1.302-1.3z" fill="#e83d62"></path><path d="m14.554 24.465-.008-2.852a1.302 1.302 0 0 1 1.302-1.306h3.733c.72 0 1.303.583 1.303 1.302v2.853c0 .719-.583 1.302-1.303 1.302h-3.725c-.718 0-1.3-.58-1.302-1.299z" fill="#65b9ff"></path><path d="m14.554 32.39-.008-2.853a1.302 1.302 0 0 1 1.302-1.306h3.733c.72 0 1.303.583 1.303 1.302v2.853c0 .72-.583 1.303-1.303 1.303h-3.725c-.718 0-1.3-.581-1.302-1.3z" fill="#46cc6b"></path><path d="M17.208 17.84h-1.35a1.304 1.304 0 0 1-1.302-1.303l-.01-2.853c0-.718.585-1.302 1.303-1.302h1.35c-.718 0-1.302.584-1.302 1.302l.01 2.853c0 .718.583 1.302 1.301 1.302z" fill="#ce2955"></path><path d="M17.208 25.768h-1.35a1.304 1.304 0 0 1-1.302-1.303l-.01-2.853c0-.718.585-1.302 1.303-1.302h1.35c-.718 0-1.302.584-1.302 1.302l.01 2.853c0 .719.583 1.303 1.301 1.303z" fill="#3e7fff"></path><path d="M17.208 33.686h-1.35a1.295 1.295 0 0 1-1.302-1.292l-.01-2.854c0-.728.585-1.312 1.303-1.312h1.35c-.718 0-1.302.584-1.302 1.312l.01 2.854c0 .718.583 1.292 1.301 1.292z" fill="#179c5f"></path><path d="M24.948 16.493v-.041c0-.213.174-.384.383-.384h.069c.21 0 .383.173.383.384v.04c0 .21-.172.384-.383.384h-.069a.384.384 0 0 1-.383-.383z" fill="#5b5e8b"></path><path d="M25.4 16.976h-.07a.484.484 0 0 1-.482-.483v-.041c0-.263.214-.484.483-.484h.068c.27 0 .484.222.484.484v.04c0 .261-.212.484-.484.484zm-.07-.807a.285.285 0 0 0-.282.283v.04c0 .152.125.284.283.284h.068a.285.285 0 0 0 .284-.283v-.041a.285.285 0 0 0-.284-.283zM26.515 15.11c0-1.12.83-1.812 1.826-1.812.37 0 .71.07 1.115.328.165.108.178.299.058.428-.092.102-.215.107-.331.045-.365-.188-.523-.22-.787-.22-.81 0-1.259.517-1.259 1.232 0 .711.445 1.231 1.259 1.231.266 0 .425-.033.787-.219.116-.063.238-.057.331.045.12.13.107.32-.058.427-.409.26-.75.329-1.115.329-.994 0-1.826-.693-1.826-1.813z" fill="#5b5e8b"></path><path d="M28.342 17.024c-1.054 0-1.927-.743-1.927-1.913 0-1.16.861-1.913 1.927-1.913.391 0 .752.079 1.168.344.215.14.24.405.078.58-.12.13-.29.151-.453.065-.343-.176-.481-.207-.739-.207-.756 0-1.159.471-1.159 1.131 0 .653.396 1.131 1.16 1.131.25 0 .397-.03.74-.208a.358.358 0 0 1 .45.066c.16.172.14.437-.076.579-.42.266-.773.345-1.17.345zm0-3.626c-.955 0-1.728.662-1.728 1.713 0 1.063.79 1.712 1.728 1.712.354 0 .675-.066 1.061-.312.11-.072.115-.19.038-.274-.061-.068-.132-.069-.21-.026-.368.19-.545.232-.835.232-.87 0-1.358-.566-1.358-1.332 0-.765.485-1.332 1.358-1.332.288 0 .46.04.832.231.086.046.152.044.212-.023.079-.086.074-.204-.038-.276a1.834 1.834 0 0 0-1.06-.313zM30.133 15.11c0-1.072.673-1.812 1.752-1.812 1.082 0 1.751.76 1.751 1.813 0 1.062-.679 1.813-1.751 1.813-1.077 0-1.752-.739-1.752-1.813zm2.88-.006c0-.796-.504-1.238-1.128-1.238-.64 0-1.129.433-1.129 1.238 0 .822.503 1.252 1.129 1.252.606 0 1.128-.436 1.128-1.252z" fill="#5b5e8b"></path><path d="M31.884 17.024c-1.127 0-1.85-.779-1.85-1.913 0-1.136.724-1.913 1.85-1.913 1.119 0 1.852.785 1.852 1.913 0 1.122-.728 1.913-1.852 1.913zm0-3.626c-1.033 0-1.65.708-1.65 1.713 0 1.015.626 1.712 1.65 1.712s1.653-.715 1.653-1.712c0-.991-.622-1.713-1.653-1.713zm0 3.058c-.686 0-1.228-.48-1.228-1.352 0-1.802 2.457-1.786 2.457 0 0 .88-.576 1.352-1.229 1.352zm0-2.49c-.6 0-1.029.405-1.029 1.138 0 1.554 2.059 1.537 2.059 0 0-.732-.452-1.138-1.03-1.138zM34.504 16.582v-2.935c0-.173.132-.315.308-.315.173 0 .315.14.315.315v.28c.351-.502.739-.629 1.163-.629.516 0 .894.319 1.046.705.283-.47.702-.705 1.259-.705.745 0 1.142.618 1.142 1.314v1.97a.308.308 0 0 1-.314.307.303.303 0 0 1-.308-.307v-1.847c0-.554-.157-.862-.698-.862-.343 0-.661.122-.985.656v2.053a.308.308 0 0 1-.315.307.302.302 0 0 1-.307-.307v-1.847c0-.557-.16-.862-.698-.862-.344 0-.662.123-.985.656v2.053a.308.308 0 0 1-.315.307.302.302 0 0 1-.308-.307z" fill="#5b5e8b"></path><path d="M39.423 16.99a.4.4 0 0 1-.408-.408v-1.847c0-.611-.21-.762-.598-.762-.304 0-.585.103-.885.585v2.024c0 .528-.822.548-.822 0v-1.847c0-.613-.211-.762-.598-.762-.305 0-.586.104-.886.585v2.024c0 .528-.821.55-.821 0v-2.935c0-.556.821-.537.821 0v.002c.3-.313.599-.451 1.064-.451a1.2 1.2 0 0 1 1.06.604c.297-.4.715-.604 1.244-.604.802 0 1.243.661 1.243 1.414v1.97c0 .236-.19.407-.414.407zm-1.006-3.217c.603 0 .798.357.798.962v1.847c0 .283.422.27.422 0v-1.97c0-.635-.352-1.214-1.043-1.214-.523 0-.907.214-1.172.656l-.105.174-.074-.189a1.01 1.01 0 0 0-.953-.64c-.401 0-.755.119-1.081.586l-.182.259v-.597c0-.273-.423-.293-.423 0v2.935c0 .285.423.265.423 0v-2.08l.014-.024c.338-.56.69-.705 1.071-.705.604 0 .797.359.797.962v1.847c0 .284.424.266.424 0v-2.08l.013-.024c.339-.56.692-.705 1.07-.705zM24.965 24.784v-.042c0-.218.178-.397.396-.397h.071c.219 0 .397.178.397.397v.042c0 .22-.179.397-.397.397h-.07a.397.397 0 0 1-.397-.397z" fill="#5b5e8b"></path><path d="M25.432 25.281h-.07a.498.498 0 0 1-.497-.497v-.042c0-.277.226-.497.496-.497h.071c.27 0 .496.22.496.497v.042a.496.496 0 0 1-.496.497zm-.07-.2h.07a.297.297 0 0 0 .297-.297v-.042a.298.298 0 0 0-.297-.296h-.07a.298.298 0 0 0-.298.296v.042c0 .162.132.297.297.297zM26.877 24.877v-3.039c0-.18.137-.325.318-.325.179 0 .326.144.326.325v.29c.466-.513.879-.65 1.317-.65.8 0 1.268.623 1.268 1.387v2.012c0 .185-.15.318-.326.318a.313.313 0 0 1-.319-.318v-1.94c0-.577-.259-.865-.778-.865-.495 0-.854.293-1.162.68v2.125a.32.32 0 0 1-.326.318.313.313 0 0 1-.318-.318z" fill="#5b5e8b"></path><path d="M29.78 25.296a.412.412 0 0 1-.418-.42v-1.94c0-.52-.216-.763-.68-.763-.452 0-.777.265-1.061.614v2.09c0 .545-.844.563-.844 0v-3.038c0-.565.844-.558.844 0v.046c.407-.375.768-.507 1.218-.507.846 0 1.367.658 1.367 1.487v2.012c0 .239-.192.419-.426.419zm-1.098-3.324c.402 0 .88.168.88.964v1.94c0 .294.445.287.445 0v-2.011c0-.697-.415-1.287-1.168-1.287-.402 0-.796.121-1.244.618l-.173.192v-.55c0-.296-.446-.3-.446 0v3.039c0 .3.446.28.446 0v-2.16l.021-.027c.329-.413.713-.718 1.24-.718zM30.97 23.354c0-1.042.59-1.876 1.692-1.876 1.055 0 1.686.8 1.686 1.784a.308.308 0 0 1-.326.319h-2.4c.074.656.488 1.048 1.238 1.048.337 0 .623-.053.957-.22a.293.293 0 0 1 .325.05c.12.11.136.325-.099.46-.442.25-.76.311-1.24.311-1.15 0-1.833-.68-1.833-1.876zm2.74-.298c-.042-.671-.527-1.033-1.048-1.033-.536 0-1 .362-1.04 1.033z" fill="#5b5e8b"></path><path d="M32.803 25.33c-1.172 0-1.933-.693-1.933-1.976 0-1.091.627-1.976 1.792-1.976 1.113 0 1.785.846 1.785 1.884a.407.407 0 0 1-.425.418h-2.284c.11.588.522.849 1.122.849.332 0 .6-.052.911-.21a.398.398 0 0 1 .439.066c.165.152.183.447-.117.62-.456.257-.784.326-1.29.326zm-.141-3.752c-1.037 0-1.593.783-1.593 1.776 0 1.128.631 1.777 1.734 1.777.467 0 .767-.06 1.192-.3.162-.093.161-.222.08-.299a.195.195 0 0 0-.215-.033c-.344.173-.645.23-1 .23-.81 0-1.259-.44-1.338-1.138l-.013-.11h2.513c.146 0 .226-.096.226-.22 0-.931-.587-1.683-1.586-1.683zm1.155 1.578h-2.302l.007-.106c.089-1.503 2.194-1.503 2.288 0zm-2.085-.2H33.6c-.156-1.104-1.723-1.12-1.868 0zM35.41 24.296V22.1h-.503c-.127 0-.19-.162-.07-.256l.962-.941c.127-.127.255-.037.255.078v.566h.8c.16 0 .277.113.277.276 0 .145-.11.277-.276.277h-.8v2.138c0 .184.043.301.13.35.227.13.49.06.673.019a.268.268 0 0 1 .258.067c.117.11.117.323-.084.428-.184.085-.38.127-.588.127-.69 0-1.034-.31-1.034-.934z" fill="#5b5e8b"></path><path d="M36.444 25.33c-.742 0-1.134-.357-1.134-1.034V22.2h-.403c-.225 0-.326-.284-.132-.435l.954-.933c.189-.19.425-.054.425.15v.465h.7c.21 0 .376.155.376.376a.371.371 0 0 1-.376.377h-.7v2.038c0 .14.03.234.081.264.227.129.495.022.596.008a.373.373 0 0 1 .354.091c.16.152.16.45-.107.59a1.498 1.498 0 0 1-.634.139zm-.522-4.384c-.017 0-.032.008-.051.028l-.964.943c-.058.046-.035.084 0 .084h.602v2.295c0 .57.297.835.935.835.194 0 .373-.039.546-.119.13-.067.129-.198.058-.265a.181.181 0 0 0-.17-.041c-.1.012-.44.143-.743-.03-.12-.068-.18-.215-.18-.437v-2.238h.9a.173.173 0 0 0 .176-.177c0-.109-.075-.176-.177-.176h-.9v-.666a.046.046 0 0 0-.013-.033.06.06 0 0 0-.02-.003zM24.954 31.563v-.042c0-.216.175-.388.388-.388h.07c.214 0 .388.175.388.388v.042a.389.389 0 0 1-.388.387h-.07a.388.388 0 0 1-.388-.387z" fill="#5b5e8b"></path><path d="M25.412 32.05h-.07a.486.486 0 0 1-.487-.487v-.042c0-.273.22-.488.487-.488h.07c.267 0 .487.217.487.488v.042a.488.488 0 0 1-.487.487zm-.07-.817c-.16 0-.288.13-.288.288v.042c0 .158.129.287.288.287h.07c.16 0 .288-.13.288-.287v-.042a.289.289 0 0 0-.288-.288zM26.54 30.163c0-1.085.68-1.836 1.775-1.836 1.085 0 1.773.758 1.773 1.836 0 1.074-.685 1.836-1.773 1.836-1.106 0-1.774-.763-1.774-1.836zm2.918-.007c0-.81-.504-1.254-1.143-1.254-.642 0-1.144.441-1.144 1.254 0 .825.512 1.268 1.144 1.268.62 0 1.143-.444 1.143-1.268z" fill="#5b5e8b"></path><path d="M28.314 32.099c-1.162 0-1.873-.81-1.873-1.936 0-1.137.721-1.936 1.873-1.936 1.137 0 1.874.797 1.874 1.936 0 1.133-.731 1.936-1.874 1.936zm0-3.672c-1.042 0-1.674.714-1.674 1.736 0 1.019.629 1.736 1.674 1.736 1.032 0 1.675-.716 1.675-1.736 0-1.017-.64-1.736-1.675-1.736zm0 3.097c-.685 0-1.242-.485-1.242-1.368 0-1.822 2.485-1.808 2.485 0 0 .874-.564 1.368-1.243 1.368zm0-2.522c-.58 0-1.043.386-1.043 1.154 0 1.577 2.087 1.559 2.087 0 0-.739-.446-1.154-1.044-1.154zM30.968 31.652V28.68c0-.172.13-.318.312-.318.176 0 .319.14.319.318v.298c.323-.434.686-.651 1.087-.651h.035a.3.3 0 0 1 .305.312c0 .18-.137.298-.318.298h-.036c-.455 0-.831.241-1.073.61v2.105a.312.312 0 0 1-.319.312.306.306 0 0 1-.312-.312z" fill="#5b5e8b"></path><path d="M31.28 32.065a.406.406 0 0 1-.411-.412V28.68c0-.556.829-.549.829 0v.022c.298-.316.629-.475.988-.475h.035a.4.4 0 0 1 .405.412c0 .238-.186.398-.418.398h-.035c-.406 0-.746.209-.975.54v2.076c0 .236-.19.412-.418.412zm0-3.603c-.125 0-.212.099-.212.218v2.973c0 .278.43.28.43 0v-2.137l.017-.025c.263-.396.667-.654 1.158-.654h.035c.124 0 .218-.073.218-.198 0-.113-.077-.212-.205-.212h-.035c-.367 0-.706.206-1.008.61l-.18.243v-.6a.218.218 0 0 0-.218-.218zM33.684 33.232c-.147-.09-.168-.307-.045-.44.077-.083.186-.112.322-.059.352.176.733.264 1.144.264.706 0 1.06-.377 1.06-1.13v-.464a1.563 1.563 0 0 1-1.185.527c-.869 0-1.677-.669-1.677-1.802 0-1.122.813-1.801 1.677-1.801.462 0 .857.175 1.185.526v-.173c0-.171.13-.318.312-.318.177 0 .319.143.319.318v3.097c0 1.106-.532 1.816-1.629 1.816-.569 0-1.154-.171-1.483-.36zm2.48-2.39v-1.428c-.402-.413-.724-.512-1.052-.512-.674 0-1.178.413-1.178 1.226 0 .807.497 1.227 1.178 1.227.33 0 .654-.102 1.053-.513z" fill="#5b5e8b"></path><path d="M35.168 33.693c-.597 0-1.2-.181-1.534-.374-.206-.126-.23-.42-.068-.595.109-.114.246-.157.433-.083.343.17.713.256 1.106.256.654 0 .96-.327.96-1.03v-.23a1.643 1.643 0 0 1-1.085.393c-.912 0-1.776-.698-1.776-1.902 0-1.184.864-1.901 1.776-1.901.411 0 .777.133 1.088.396.067-.512.827-.458.827.057v3.098c0 1.148-.566 1.915-1.727 1.915zm-1.455-.832c-.08.083-.071.228.023.286.32.184.892.346 1.432.346 1.032 0 1.528-.658 1.528-1.715V28.68c0-.288-.432-.292-.432 0v.427l-.172-.185a1.454 1.454 0 0 0-1.112-.495c-.78 0-1.577.598-1.577 1.701 0 1.089.778 1.702 1.577 1.702.82 0 1.153-.575 1.284-.68v.717c0 .805-.4 1.23-1.159 1.23-.425 0-.825-.092-1.188-.274-.076-.03-.15-.023-.204.038zm1.399-1.406c-.724 0-1.277-.452-1.277-1.327 0-.873.551-1.326 1.277-1.326.362 0 .709.115 1.124.542l.028.03v1.509l-.028.029c-.417.428-.763.543-1.124.543zm0-2.453c-.617 0-1.078.363-1.078 1.126 0 .76.457 1.127 1.078 1.127.299 0 .581-.086.953-.454v-1.346c-.37-.366-.654-.453-.953-.453z" fill="#5b5e8b"></path><path d="m17.278 15.767-.658-.658a.343.343 0 1 1 .485-.485l.415.415 1.073-1.073a.343.343 0 1 1 .485.486l-1.315 1.315a.343.343 0 0 1-.485 0zM17.278 23.957l-.658-.658a.343.343 0 1 1 .485-.485l.415.415 1.073-1.073a.343.343 0 1 1 .485.485l-1.315 1.316a.343.343 0 0 1-.485 0zM17.278 32.146l-.658-.657a.343.343 0 1 1 .485-.485l.415.415 1.073-1.073a.343.343 0 1 1 .485.485l-1.315 1.315a.343.343 0 0 1-.485 0z" fill="#deddff"></path></g></svg>