<svg fill-rule="evenodd" viewBox="0 0 4335 4335" xmlns="http://www.w3.org/2000/svg"><g><path d="M1028 3470h2279V1471H1028z" fill="#000000"></path><path d="M3366 3589H969c-33 0-59-27-59-59V1411c0-32 26-59 59-59h2397c33 0 59 27 59 60v2118c0 32-26 59-59 59z" fill="#ffe4af"></path><path d="M3019 3209H1316c-33 0-59-26-59-59V1791c0-33 26-59 59-59h1703c33 0 59 26 59 59v1359c0 33-26 59-59 59z" fill="#ffa721"></path><path d="M2706 2964H1629c-70 0-127-56-127-127v-734c0-70 57-127 127-127h1077c70 0 127 57 127 127v734c0 70-57 127-127 127z" fill="#603814"></path><path d="M2706 2922c47 0 85-38 85-85v-734c0-46-38-84-85-84H1629c-47 0-85 38-85 84v734c0 47 38 85 85 85z" fill="#563212"></path><path d="M2706 2880c24 0 43-19 43-43v-734c0-23-19-42-43-42H1629c-23 0-42 19-42 42v734c0 24 19 43 42 43z" fill="#1aa1ff"></path><path d="M2706 2880c24 0 43-19 43-43v-734c0-23-19-42-43-42h-575l1 5c10 89 35 186 85 261 32 48 84 99 145 97-1 28-11 77-14 94l-2 8c-18 102 77 210 145 276 28 27 58 53 89 78zm-651-819h-426c-23 0-42 19-42 42v734c0 24 19 43 42 43h128c24-19 48-39 70-59 67-62 153-159 139-257-2-20-9-39-20-56-2-3-9-15-9-19-1-11 34-63 41-72 15-23 30-45 44-69 43-69 44-204 33-287z" fill="#71c138"></path><path d="M2706 2880c24 0 43-19 43-43v-734c0-23-19-42-43-42h-532c26 217 121 323 188 320 23-1 34 4 37 7 14 17-1 96-10 138l-1 7c-22 112 150 264 262 347zm-694-819h-383c-23 0-42 19-42 42v734c0 24 19 43 42 43h57c119-85 292-238 224-350-27-43-21-56 33-137 13-19 28-42 43-67 32-52 40-171 26-265z" fill="#7dd63e"></path><path d="M4274 3994c-9 0-17-2-24-6l-896-399V1352l896-399c30-14 64 0 78 30v2976c-10 22-32 35-54 35z" fill="#ffcd9e"></path><path d="M3366 1234H969c-10 0-19-2-28-7L34 738c-19-11-31-31-31-53V400c0-32 27-59 59-59h4211c32 0 59 27 59 59v285c0 22-12 42-31 53l-907 489c-9 5-18 7-28 7z" fill="#ffe4af"></path><path d="M3242 1097H1093c-30 0-60-7-87-22L537 822c-74-40-111-124-90-206 20-81 93-138 177-138h3087c84 0 157 57 177 138 21 82-16 166-90 206l-469 253c-27 15-57 22-87 22z" fill="#c06000"></path><g fill="#c06000"><path d="M1093 587h115v402h-115zM1601 587h115v402h-115zM2110 587h115v402h-115zM2618 587h115v402h-115zM3126 587h115v402h-115z" fill="#c06000"></path></g><g fill="#ffa721"><path d="M1601 970V605h-392v365zM3126 970V605h-393v365zM2618 970V605h-393v365zM2110 970V605h-393v365zM3269 964l469-253c22-13 34-38 27-64-6-25-28-42-54-42h-469v365c9 0 18-2 27-6zM1093 970V605H624c-26 0-48 17-54 42-7 26 5 51 27 64l469 253c9 4 18 6 27 6z" fill="#ffa721"></path></g><path d="M57 3994c8 0 16-2 23-6l897-399V1352L80 953c-29-14-64 0-78 30l1 2976c9 22 31 35 54 35z" fill="#ffcd9e"></path></g></svg>