<svg viewBox="0 0 60 60" xmlns="http://www.w3.org/2000/svg"><g><path d="M59.01 14.73v41.72c0 .93-.64 1.75-1.55 1.95-1.26.28-3.2.6-5.45.6s-4.19-.32-5.45-.6a1.98 1.98 0 0 1-1.55-1.94c0-3.42 0-12.01.01-20.6 0-5.58-.47-10.82-1.23-14.25-.23-1.06-.49-1.94-.78-2.61-.29.67-.55 1.56-.79 2.63-.75 3.43-1.22 8.66-1.22 14.23.01 8.59.01 17.18.01 20.6 0 .93-.64 1.74-1.55 1.94-1.26.28-3.2.6-5.45.6s-4.19-.32-5.45-.6c-.91-.2-1.55-1.02-1.55-1.95V14.73c0-4.41.95-7.87 1.92-10.25.07-.18.15-.35.22-.52s.15-.33.22-.48c.14-.32.29-.6.42-.86.6-1.15 1.85-1.78 3.12-1.58.22.04.47.08.74.12.23.04.48.08.75.13.2.03.4.07.61.1.3.04.61.09.94.13.33.05.68.1 1.05.14.42.05.85.09 1.32.13.28.03.58.05.88.07.23.02.47.04.72.05.2.02.41.03.63.04.46.02.95.03 1.45.04.33.01.66.01 1.01.01.34 0 .67 0 .99-.01.49-.01.96-.02 1.42-.04.45-.02.89-.05 1.3-.08.19-.01.37-.02.54-.04l.34-.03c.3-.02.59-.05.87-.08l.53-.06c.69-.08 1.31-.17 1.86-.25.05-.01.09-.01.13-.02.86-.13 1.56-.26 2.12-.35 1.27-.2 2.52.43 3.12 1.58.13.26.28.54.42.86.07.15.15.31.22.48s.15.34.22.52c.97 2.38 1.92 5.84 1.92 10.25z" fill="#4482c3"></path><path d="M57.09 4.48c-1.56.3-3.67.64-6.09.91a71.63 71.63 0 0 1-7 .46c-.33.01-.67.01-1 .01s-.67 0-1-.01a71.31 71.31 0 0 1-7-.46c-2.41-.27-4.5-.61-6.07-.91.29-.72.59-1.34.86-1.86.6-1.15 1.85-1.78 3.12-1.58.56.09 1.25.21 2.1.35.59.09 1.25.18 1.99.27 1.38.16 3.03.3 5 .33.33.01.66.01 1.01.01.34 0 .67 0 .99-.01 1.97-.03 3.62-.17 5-.33.74-.08 1.4-.18 1.99-.27.86-.13 1.56-.26 2.12-.35 1.27-.2 2.52.43 3.12 1.58.27.52.57 1.14.86 1.86z" fill="#285680"></path><path d="M44 1.99V21a1 1 0 0 1-.21.61c-.23-1.06-.49-1.94-.78-2.61-.29.67-.55 1.56-.79 2.63A.985.985 0 0 1 42 21V1.99c.33.01.66.01 1.01.01.34 0 .67 0 .99-.01z" fill="#285680"></path><path d="M37 1.66V5.5c0 .03 0 .06-.01.09-.04.51-.47.91-.99.91-.55 0-1-.45-1-1V1.52c0-.04 0-.09.01-.13.59.09 1.25.18 1.99.27zM51 1.53V5.5c0 .55-.45 1-1 1-.52 0-.95-.4-.99-.91C49 5.56 49 5.53 49 5.5V1.66c.74-.08 1.4-.18 1.99-.27.01.04.01.09.01.14z" fill="#4482c3"></path><path d="M27.01 22.386c-.44.281-.863.598-1.26.954l-7.776 6.851-6.354 5.599-5.896 5.206 7.272 6.061c.553-1.213 1.345-2.433 2.793-3.718l11.22-9.754V22.386z" fill="#84b5cb"></path><path d="M12.977 25.389a12.175 12.175 0 0 0 1.728 1.921l21.952 19.35c.521.46.433 1.3-.167 1.63l-.531.3a9.851 9.851 0 0 1-11.458-1.28l-7.613-6.83-6.285-5.62-4.535-4.072 6.908-5.398z" fill="#9fc9d3"></path><circle cx="17" cy="34.86" fill="#547580" r="1"></circle><g fill="#ecf0f1"><path d="M29 33.86h-1.99a1 1 0 1 1 0-2H29a1 1 0 1 1 0 2zM35 33.86h-2a1 1 0 1 1 0-2h2a1 1 0 1 1 0 2zM41.05 33.86H39a1 1 0 1 1 0-2h2.05a1 1 0 1 1 0 2z" fill="#ecf0f1"></path></g><path d="M7 18.86c-3.31 0-6 2.69-6 6s2.69 6 6 6 6-2.69 6-6-2.69-6-6-6zm0 8c-1.1 0-2-.9-2-2s.9-2 2-2 2 .9 2 2-.9 2-2 2z" fill="#84b5cb"></path><path d="M7 40.86c-3.31 0-6 2.69-6 6s2.69 6 6 6 6-2.69 6-6-2.69-6-6-6zm0 8c-1.1 0-2-.9-2-2s.9-2 2-2 2 .9 2 2-.9 2-2 2z" fill="#9fc9d3"></path><path d="M47 5.74v6.16c0 .7-.37 1.37-.98 1.72-.76.44-1.48.52-2.02.48V5.85c1.02-.02 2.02-.06 3-.11z" fill="#d1d4d1"></path></g></svg>