<svg viewBox="0 0 512 512" xmlns="http://www.w3.org/2000/svg"><g><path d="M19.826 103.889h471.105v326.599H19.826z" fill="#f9f3f1"></path><path d="M455.975 116.974h20.279v313.515h-20.279z" fill="#f3eae6"></path><path d="M34.525 512H5.127a1.351 1.351 0 0 1-1.351-1.351V116.974h32.1V510.65c0 .745-.605 1.35-1.351 1.35z" fill="#e19974"></path><path d="M508.353 116.974H3.639V99.235c0-30.856 25.014-55.87 55.87-55.87h392.975c30.856 0 55.87 25.014 55.87 55.87v17.739z" fill="#c1e9af"></path><path d="M508.35 100.017v16.954h-16.047v-16.954c0-31.291-28.162-56.65-59.453-56.65h18.85c11.173-.268 21.271 2.624 29.758 8.089 4.146 2.67 8.238 5.75 11.614 9.232 2.445 2.522 4.383 5.253 6.329 8.201 5.901 8.94 9.174 19.201 8.949 31.128z" fill="#ade194"></path><path d="M380.296 6.32v64.53c0 .22-.01.43-.03.64a6.221 6.221 0 0 1-6.19 5.67h-236.16c-3.43 0-6.22-2.79-6.22-6.23V6.23c0-3.44 2.79-6.23 6.22-6.23h236.07c.22 0 .43.01.64.03 2.97.3 5.34 2.67 5.64 5.65.02.21.03.42.03.64z" fill="#e1d3ce"></path><path d="M380.296 6.32v64.53c0 .22-.01.43-.03.64a6.32 6.32 0 0 1-6.28 5.66h-20.27c3.47 0 6.3-2.82 6.3-6.3V6.32c0-3.49-2.83-6.32-6.3-6.32h20.27c.22 0 .43.01.64.03 2.97.3 5.34 2.67 5.64 5.65.02.21.03.42.03.64z" fill="#cdbfba"></path><path d="M507.003 512h-29.398a1.351 1.351 0 0 1-1.351-1.351V116.974h32.1V510.65a1.352 1.352 0 0 1-1.351 1.35z" fill="#e19974"></path><path d="M508.35 116.97v393.66c0 .76-.608 1.369-1.369 1.369H490.93c.76 0 1.369-.608 1.369-1.369V116.97z" fill="#dc8758"></path><path d="M122.093 512a7.605 7.605 0 0 1-7.605-7.605V332.933c0-4.2 3.404-7.605 7.605-7.605 4.2 0 7.605 3.404 7.605 7.605v171.462a7.604 7.604 0 0 1-7.605 7.605zM389.899 512a7.605 7.605 0 0 1-7.605-7.605V332.933c0-4.2 3.404-7.605 7.605-7.605s7.605 3.404 7.605 7.605v171.462a7.604 7.604 0 0 1-7.605 7.605z" fill="#c86d36"></path><path d="M346.903 46.185H165.089c-4.2 0-7.605-3.404-7.605-7.605s3.404-7.605 7.605-7.605h181.814c4.2 0 7.605 3.404 7.605 7.605s-3.405 7.605-7.605 7.605z" fill="#b5adb6"></path><path d="M423.348 355.682H88.644a5.284 5.284 0 0 1-5.284-5.284v-63.031a5.284 5.284 0 0 1 5.284-5.284h334.704a5.284 5.284 0 0 1 5.284 5.284v63.031a5.284 5.284 0 0 1-5.284 5.284zM425.965 455.217H86.027a4.283 4.283 0 0 1-4.283-4.283v-31.078c0-7.785 6.311-14.096 14.096-14.096h320.312c7.785 0 14.096 6.311 14.096 14.096v31.078a4.283 4.283 0 0 1-4.283 4.283z" fill="#e19974"></path><g fill="#dc8758"><path d="M428.633 287.437v62.886c0 2.961-2.403 5.364-5.354 5.364h-20.888a5.357 5.357 0 0 0 5.354-5.364v-62.886a5.355 5.355 0 0 0-5.354-5.354h20.888a5.362 5.362 0 0 1 5.354 5.354zM430.245 420.053v30.824a4.339 4.339 0 0 1-4.34 4.34h-20.878a4.345 4.345 0 0 0 4.34-4.34v-30.824c0-7.889-6.398-14.297-14.297-14.297h20.888c7.889 0 14.287 6.408 14.287 14.297z" fill="#dc8758"></path></g></g></svg>