<svg viewBox="0 0 512 512" xmlns="http://www.w3.org/2000/svg"><g><path d="M302.4 43.109 145.472 1.061c-16.488-4.418-33.435 5.367-37.853 21.854L65.57 179.843c-4.418 16.488 5.367 33.435 21.854 37.853l156.928 42.048c16.488 4.418 33.435-5.367 37.853-21.854l42.049-156.928c4.419-16.487-5.366-33.434-21.854-37.853z" fill="#ff5368"></path><path d="M316.254 51.112c-10.304 2.771-18.893 10.803-21.852 21.851L261.019 197.55c-4.786 17.862-23.146 28.462-41.008 23.676L95.424 187.843c-11.052-2.963-22.298.462-29.85 7.999 2.772 10.304 10.802 18.895 21.851 21.854l156.928 42.048c16.488 4.418 33.435-5.367 37.853-21.854l42.049-156.928c2.961-11.048-.464-22.298-8.001-29.85z" fill="#c5324f"></path><path d="m446.43 431.037-42.048-156.928c-4.418-16.488-21.366-26.272-37.853-21.854l-156.928 42.048c-16.488 4.418-26.272 21.365-21.854 37.853l42.049 156.928c4.418 16.488 21.365 26.272 37.853 21.854l156.928-42.049c16.485-4.416 26.271-21.364 21.853-37.852z" fill="#ff5368"></path><path d="M404.381 274.109c-2.961-11.048-11.55-19.078-21.854-21.85-7.537 7.553-10.961 18.802-8 29.85l33.383 124.586c4.786 17.862-5.814 36.221-23.676 41.008l-124.587 33.384c-11.048 2.96-19.078 11.549-21.85 21.853 7.553 7.537 18.802 10.961 29.85 8.001l156.928-42.049c16.488-4.418 26.272-21.365 21.854-37.853l-42.048-156.93z" fill="#c5324f"></path><circle cx="349.852" cy="324.814" fill="#fff9eb" r="23.18"></circle><circle cx="284.286" cy="438.368" fill="#fff9eb" r="23.18"></circle><circle cx="317.087" cy="381.6" fill="#fff9eb" r="23.18"></circle><circle cx="162.123" cy="73.631" fill="#fff9eb" r="23.18"></circle><circle cx="251.693" cy="97.62" fill="#fff9eb" r="23.18"></circle><circle cx="138.13" cy="163.185" fill="#fff9eb" r="23.18"></circle><circle cx="227.685" cy="187.192" fill="#fff9eb" r="23.18"></circle></g></svg>