<svg viewBox="0 0 512 512" xmlns="http://www.w3.org/2000/svg"><g><path d="M357.814 405.585a5.492 5.492 0 0 1-5.492-5.492V267.594h-47.941v39.803c0 2.55-2.145 4.129-4.132 4.129-.768 0-1.5-.214-2.174-.635l-46.15-28.864a3 3 0 0 0-3.182 0l-46.151 28.864a4.041 4.041 0 0 1-2.174.635c-1.987 0-4.132-1.579-4.132-4.129v-39.803H140.46c-38.886 0-70.409 31.523-70.409 70.409v17.21h159.241c1.415 0 2.823.212 4.176.629l1.13.349 3.284-26.335h24.902l22.127 177.438 1.594 4.705h128.657c8.534 0 15.453-6.918 15.453-15.453v-90.963h-72.801z" fill="#c8effe"></path><path d="m263.668 328.856-1.444-1h-24.002l-1.223 1-3.376 27.075c5.654 1.832 9.756 7.143 9.756 13.398v127.554c0 7.767-6.319 14.086-14.086 14.086V512h57.213z" fill="#9e9797"></path><path d="M263.668 328.856h-21.234L265.272 512h21.234z" fill="#766e6e"></path><path d="M388.893 406.615v89.933c0 8.534-6.918 15.453-15.453 15.453h41.722c8.534 0 15.453-6.918 15.453-15.453v-89.933z" fill="#99e6fc"></path><path d="m248.743 282.028-24.484 15.313-1.551 2.185L237 328.856h26.668l14.291-29.331-1.55-2.185-24.484-15.313a3.001 3.001 0 0 0-3.182.001z" fill="#b9acac"></path><path d="M251.925 283.243a3 3 0 0 0-3.182 0l-9.027 5.645c9.67 6.048 13.217 18.418 8.221 28.671l-5.504 11.297h21.235l4.844-9.942 9.447-19.389z" fill="#9e9797"></path><path d="M274.175 246.081h-47.682c-11.432 0-22.121-3.177-31.236-8.692v70.008c0 4.046 4.451 6.513 7.882 4.367l45.604-28.522a3 3 0 0 1 3.182 0l45.604 28.521c3.431 2.146 7.882-.321 7.882-4.367v-70.008c-9.115 5.517-19.804 8.693-31.236 8.693z" fill="#99e6fc"></path><path d="M274.175 246.081h-47.682c-1.43 0-2.843-.067-4.248-.165v6.626c0 1.818.751 3.555 2.074 4.801l23.959 22.55a3 3 0 0 0 4.112 0l23.959-22.55a6.592 6.592 0 0 0 2.074-4.801v-6.626a60.932 60.932 0 0 1-4.248.165z" fill="#f89580"></path><path d="M303.163 40.599v41.676h7.129c13.178 0 23.9 10.722 23.9 23.901v14.839h13.232a31.976 31.976 0 0 1 19.179 6.365V81.253c0-33.395-27.072-60.467-60.467-60.467h-8.321a39.266 39.266 0 0 1 5.348 19.813z" fill="#a44f3e"></path><path d="M188.086 80.113h-22.723c-12.73 0-24.067-6.057-31.298-15.435v62.701a31.977 31.977 0 0 1 19.179-6.364h13.231v-14.839c0-13.079 10.561-23.732 23.603-23.893l.297-1.089z" fill="#c96e59"></path><path d="M166.476 119.934h-13.231c-18.352 0-33.228 14.877-33.228 33.228 0 18.352 14.877 33.228 33.228 33.228h13.231z" fill="#ffb09e"></path><path d="M190.079 82.275h113.084l1.082-1.081V40.599C304.244 18.177 286.068 0 263.646 0h-98.282c-22.421 0-40.597 18.176-40.597 40.597 0 22.421 18.176 40.597 40.597 40.597h25.013z" fill="#bb5d4c"></path><path d="M274.365 248.042h-48.062c-33.639 0-60.908-27.27-60.908-60.908v-80.958c0-13.797 11.185-24.982 24.982-24.982h119.914c13.797 0 24.982 11.185 24.982 24.982v80.958c0 33.638-27.269 60.908-60.908 60.908z" fill="#ffcebf"></path><path d="M310.291 81.194h-31.986c13.797 0 24.982 11.185 24.982 24.982v80.958c0 33.639-27.27 60.908-60.909 60.908h31.986c33.639 0 60.908-27.27 60.908-60.908v-80.958c.001-13.797-11.184-24.982-24.981-24.982z" fill="#ffb09e"></path><g fill="#ec806b"><path d="M209.837 114.12a7.5 7.5 0 0 0-7.5 7.5v14.135a7.5 7.5 0 0 0 15 0V121.62a7.5 7.5 0 0 0-7.5-7.5zM290.831 114.12a7.5 7.5 0 0 0-7.5 7.5v14.135a7.5 7.5 0 0 0 15 0V121.62a7.5 7.5 0 0 0-7.5-7.5zM249.615 175.615a7.5 7.5 0 0 0 1.412-14.933c-1.833-.173-2.762-1.194-2.762-3.036s.929-2.862 2.762-3.036a7.5 7.5 0 0 0 6.761-8.173 7.498 7.498 0 0 0-8.173-6.761c-9.474.896-16.35 8.453-16.35 17.969s6.876 17.074 16.35 17.97zM271.092 199.654h-41.516a7.5 7.5 0 0 0 0 15h41.516a7.5 7.5 0 0 0 0-15z" fill="#ec806b"></path></g><path d="M347.423 119.934h-13.231v66.457h13.231c18.352 0 33.229-14.877 33.229-33.228 0-18.352-14.877-33.229-33.229-33.229z" fill="#f89580"></path><path d="M438.48 234.585h-80.665a6.523 6.523 0 0 0-6.523 6.523v158.983a6.523 6.523 0 0 0 6.523 6.523h117.787a6.523 6.523 0 0 0 6.523-6.523V275.529c0-1.73-.687-3.389-1.91-4.612l-32.51-32.51a13.046 13.046 0 0 0-9.225-3.822z" fill="#ffe177"></path><path d="m480.214 270.916-32.51-32.51a13.045 13.045 0 0 0-9.225-3.821h-31.421c3.46 0 6.778 1.374 9.225 3.821l32.51 32.51a6.523 6.523 0 0 1 1.911 4.612v124.563a6.523 6.523 0 0 1-6.523 6.523h31.421a6.522 6.522 0 0 0 6.523-6.523V275.529c0-1.73-.687-3.389-1.911-4.613z" fill="#ffd15b"></path><g fill="#d78878"><path d="M388.3 282.327h56.816a7.5 7.5 0 0 0 0-15H388.3a7.5 7.5 0 0 0 0 15zM445.116 297.92H388.3a7.5 7.5 0 0 0 0 15h56.816a7.5 7.5 0 0 0 0-15zM445.116 328.513H388.3a7.5 7.5 0 0 0 0 15h56.816a7.5 7.5 0 0 0 0-15zM421.695 359.106H388.3a7.5 7.5 0 0 0 0 15h33.395a7.5 7.5 0 0 0 0-15z" fill="#d78878"></path></g><path d="M102.889 355.213v-12.438c0-10.164 8.269-18.432 18.432-18.432h31.643c10.164 0 18.432 8.269 18.432 18.432v12.438h15v-12.438c0-18.464-14.968-33.432-33.432-33.432h-31.643c-18.464 0-33.432 14.968-33.432 33.432v12.438z" fill="#a44f3e"></path><path d="M229.293 354.213H44.992c-8.349 0-15.116 6.768-15.116 15.116v127.554c0 8.349 6.768 15.116 15.116 15.116h184.302c8.349 0 15.116-6.768 15.116-15.116V369.33c0-8.349-6.768-15.117-15.117-15.117z" fill="#bb5d4c"></path><path d="M229.293 354.213h-48.16c8.349 0 15.116 6.768 15.116 15.116v127.554c0 8.349-6.768 15.116-15.116 15.116h48.16c8.349 0 15.116-6.768 15.116-15.116V369.33c.001-8.349-6.767-15.117-15.116-15.117z" fill="#a44f3e"></path><path d="M229.293 354.213H44.992c-8.348 0-15.116 6.768-15.116 15.116v23.921c0 25.136 20.376 45.512 45.512 45.512h123.511c25.136 0 45.512-20.376 45.512-45.512v-23.92c-.001-8.349-6.769-15.117-15.118-15.117z" fill="#d78878"></path><path d="M196.249 369.33v69.433h2.648c25.135 0 45.512-20.376 45.512-45.512V369.33c0-8.349-6.768-15.116-15.116-15.116h-48.16c8.349-.001 15.116 6.767 15.116 15.116z" fill="#c96e59"></path><path d="M155.828 399.084h-37.371a7.5 7.5 0 0 1 0-15h37.371a7.5 7.5 0 0 1 0 15z" fill="#ffb09e"></path></g></svg>