<svg viewBox="0 0 512 512" xmlns="http://www.w3.org/2000/svg"><g><path d="M176.743 327.502a7.613 7.613 0 0 1-7.452-9.195l11.074-52.115a7.614 7.614 0 0 1 9.028-5.863 7.613 7.613 0 0 1 5.863 9.028l-11.074 52.115a7.616 7.616 0 0 1-7.439 6.03zM157.105 419.92a7.613 7.613 0 0 1-7.452-9.195l11.146-52.454a7.613 7.613 0 0 1 14.891 3.165l-11.146 52.454a7.616 7.616 0 0 1-7.439 6.03zM137.539 512a7.613 7.613 0 0 1-7.452-9.195l11.074-52.116c.874-4.111 4.915-6.732 9.028-5.863a7.613 7.613 0 0 1 5.863 9.028l-11.074 52.116a7.618 7.618 0 0 1-7.439 6.03zM44.164 512a7.613 7.613 0 0 1-7.452-9.195l10.547-49.634a7.614 7.614 0 0 1 9.028-5.863 7.613 7.613 0 0 1 5.863 9.028L51.603 505.97a7.617 7.617 0 0 1-7.439 6.03zM65.784 410.257a7.613 7.613 0 0 1-7.452-9.195l11.073-52.111a7.613 7.613 0 0 1 9.028-5.863 7.613 7.613 0 0 1 5.863 9.028l-11.073 52.111a7.617 7.617 0 0 1-7.439 6.03zM87.93 306.036a7.613 7.613 0 0 1-7.452-9.195l10.547-49.634a7.614 7.614 0 0 1 9.028-5.863 7.613 7.613 0 0 1 5.863 9.028l-10.547 49.634a7.618 7.618 0 0 1-7.439 6.03zM230.913 512a7.613 7.613 0 0 1-7.452-9.195l15.87-74.684a7.613 7.613 0 0 1 14.891 3.165l-15.87 74.684a7.615 7.615 0 0 1-7.439 6.03zm25.152-118.361a7.613 7.613 0 0 1-7.452-9.195l21.093-99.267a7.613 7.613 0 0 1 14.891 3.165l-21.094 99.266a7.617 7.617 0 0 1-7.438 6.031zM236.831 337.677a7.613 7.613 0 0 1-7.452-9.195l10.547-49.634a7.614 7.614 0 0 1 9.028-5.863 7.613 7.613 0 0 1 5.863 9.028l-10.547 49.634a7.617 7.617 0 0 1-7.439 6.03zM218.285 424.96a7.613 7.613 0 0 1-7.452-9.195l10.598-49.876a7.613 7.613 0 0 1 9.028-5.863 7.613 7.613 0 0 1 5.863 9.028l-10.598 49.876a7.62 7.62 0 0 1-7.439 6.03zM199.788 512a7.613 7.613 0 0 1-7.452-9.195l10.547-49.634a7.613 7.613 0 0 1 14.891 3.165l-10.548 49.634a7.613 7.613 0 0 1-7.438 6.03zM75.289 512a7.613 7.613 0 0 1-7.452-9.195l21.093-99.267a7.614 7.614 0 0 1 9.028-5.863 7.613 7.613 0 0 1 5.863 9.028L82.728 505.97a7.616 7.616 0 0 1-7.439 6.03zM107.164 361.997a7.613 7.613 0 0 1-7.452-9.195l21.093-99.267c.874-4.112 4.914-6.733 9.028-5.863a7.613 7.613 0 0 1 5.863 9.028l-21.093 99.267a7.616 7.616 0 0 1-7.439 6.03zM168.664 512a7.613 7.613 0 0 1-7.452-9.195l48.934-230.285c.874-4.111 4.914-6.732 9.028-5.863a7.613 7.613 0 0 1 5.863 9.028L176.103 505.97a7.617 7.617 0 0 1-7.439 6.03zM106.414 512a7.613 7.613 0 0 1-7.452-9.195l7.066-33.255a7.613 7.613 0 0 1 14.891 3.165l-7.066 33.255a7.617 7.617 0 0 1-7.439 6.03zM124.795 425.503a7.613 7.613 0 0 1-7.452-9.195l14.863-69.947a7.613 7.613 0 0 1 14.891 3.165l-14.863 69.947a7.619 7.619 0 0 1-7.439 6.03zM150.971 302.312a7.613 7.613 0 0 1-7.452-9.195l7.066-33.255a7.612 7.612 0 0 1 14.891 3.165l-7.066 33.255a7.614 7.614 0 0 1-7.439 6.03z" fill="#87f8f4"></path><path d="M472.407 166.8c8.699-40.94-1.419-83.076-27.761-115.603C418.306 18.669 379.192.015 337.335.015c-64.799 0-121.604 46.004-135.07 109.386l-5.034 23.688 44.671 9.493 5.034-23.689c9.012-42.42 47.031-73.209 90.399-73.209 28.014 0 54.192 12.486 71.821 34.255 17.63 21.77 24.402 49.971 18.58 77.371l-73.748 347.08h46.688l71.731-337.59z" fill="#8b9ba9"></path><path d="M314.501 1.945c0 11.545 9.359 20.904 20.904 20.904h1.93c34.936 0 67.581 15.571 89.567 42.719 21.985 27.148 30.431 62.316 23.171 96.487L377.332 504.39h23.344l71.731-337.59c8.699-40.94-1.419-83.076-27.761-115.603-31.8-39.269-81.614-57.491-130.145-49.252z" fill="#6c7a88"></path><path d="M323.474 245.44c0-72.304-58.614-130.917-130.917-130.917-62.971 0-115.549 44.461-128.077 103.702l256.153 54.431a131.422 131.422 0 0 0 2.841-27.216z" fill="#8b9ba9"></path><path d="m322.073 226.274-.005-.001c-6.105-41.603-31.769-76.849-67.364-96.084 9.992 18.49 15.667 39.656 15.667 62.149v.23c-.02 11.722-10.958 20.391-22.424 17.955L82.029 175.266a130.907 130.907 0 0 0-2.621 4.312l-.009-.002a130.672 130.672 0 0 0-14.919 38.648l256.153 54.432v-.001a132.016 132.016 0 0 0 1.44-46.381z" fill="#6c7a88"></path><path d="M320.656 295.494a22.93 22.93 0 0 1-4.769-.503L59.733 240.56c-12.335-2.621-20.21-14.746-17.589-27.082 2.621-12.335 14.747-20.209 27.082-17.589l256.153 54.431c12.335 2.621 20.211 14.746 17.589 27.082-2.281 10.734-11.761 18.092-22.312 18.092z" fill="#8b9ba9"></path><path d="M298.25 267.941 42.051 213.982c-2.305 12.16 5.516 23.992 17.683 26.578 273.892 58.2 257.351 54.934 260.922 54.934 10.55 0 20.031-7.358 22.312-18.093 2.619-12.329-5.247-24.447-17.571-27.077l-.058-.012c-2.622 12.342-14.743 20.229-27.089 17.629z" fill="#6c7a88"></path></g></svg>