<svg viewBox="0 0 46 58" xmlns="http://www.w3.org/2000/svg"><g><g fill="none" fill-rule="nonzero" transform="translate(0 -1)"><path d="M45.99 56.22A3.111 3.111 0 0 1 42.83 59H21.5a5.63 5.63 0 0 1-5.5-5.5 5.5 5.5 0 0 1 1.88-4.14l5.44-4.76c.432-.383.68-.933.68-1.51V24a5 5 0 0 1 5-5h3a5 5 0 0 1 5 5v20a5 5 0 0 1-1.68 3.74l-4 3.57a.965.965 0 0 0 .64 1.69H43a3.04 3.04 0 0 1 2.99 3.22z" fill="#4fba6f"></path><path d="M24.54 51.11A4.5 4.5 0 0 0 23 54.5a4.614 4.614 0 0 0 4.5 4.5h-4.63A6.413 6.413 0 0 1 21 54.5a6.483 6.483 0 0 1 2.22-4.89l6.12-5.36a1 1 0 1 1 1.32 1.5z" fill="#24ae5f"></path><circle cx="30.002" cy="10" fill="#fdd7ad" r="9.001"></circle><path d="M12.22 19a3 3 0 0 1 2.634 1.564l4.061 7.445a1.9 1.9 0 0 0 2.858.575L27.8 23.7a3.2 3.2 0 0 1 5.183 2.854A3.2 3.2 0 0 1 31.8 28.7l-5.769 4.675a7.414 7.414 0 0 1-11.138-2.238l-3.325-6.1A2 2 0 0 0 9.813 24H7.5a2.5 2.5 0 0 1 0-5z" fill="#fdd7ad"></path><path d="M2 10h12a2 2 0 0 1 2 2v1a6 6 0 0 1-6 6H6a6 6 0 0 1-6-6v-1a2 2 0 0 1 2-2z" fill="#f0c419"></path></g></g></svg>