<svg viewBox="0 0 58 58" xmlns="http://www.w3.org/2000/svg"><g><g fill="none" fill-rule="evenodd"><path d="M8 22h4v8H8zM46 22h4v8h-4z" fill="#e57e25" fill-rule="nonzero"></path><path d="m27 18-3.54 1.57-3.68 1.64a2.96 2.96 0 0 0-1.64 1.84L18 23H7a1 1 0 0 1-1-1v-3a1 1 0 0 1 1-1zM52 19v3a1 1 0 0 1-1 1H40l-.14.05a2.96 2.96 0 0 0-1.64-1.84l-3.68-1.64L31 18h20a1 1 0 0 1 1 1zM22 40h14v6H22z" fill="#f29c1f" fill-rule="nonzero"></path><path d="M8 45v11a2 2 0 1 1-4 0V45zM54 45v11a2 2 0 1 1-4 0V45z" fill="#d25627" fill-rule="nonzero"></path><path d="M8 33h4v9H8zM46 33h4v9h-4z" fill="#e57e25" fill-rule="nonzero"></path><path d="M31.38 15.5 32 18v2l-3 2-3-2v-2l.62-2.5z" fill="#f9c795" fill-rule="nonzero"></path><path d="M34.91 11A6.019 6.019 0 0 1 29 16a5.9 5.9 0 0 1-2.38-.5 5.969 5.969 0 0 1-3.53-4.5A2.009 2.009 0 0 0 25 9V7a2.02 2.02 0 0 0-1.91-2 5.993 5.993 0 0 1 11.82 0A2.009 2.009 0 0 0 33 7v2a2.009 2.009 0 0 0 1.91 2z" fill="#fdd7ad" fill-rule="nonzero"></path><path d="M25 7v2a2.009 2.009 0 0 1-1.91 2H23a2.006 2.006 0 0 1-2-2V7a2.006 2.006 0 0 1 2-2h.09A2.02 2.02 0 0 1 25 7zM37 7v2a2.006 2.006 0 0 1-2 2h-.09A2.009 2.009 0 0 1 33 9V7a2.009 2.009 0 0 1 1.91-2H35a2.015 2.015 0 0 1 2 2z" fill="#bdc3c7" fill-rule="nonzero"></path><path d="M22 31h-1M36 31h1" fill="" stroke="#000" stroke-linecap="round" stroke-linejoin="round" stroke-width="2"></path><g fill-rule="nonzero"><path d="M19 41v5H1a1 1 0 0 1-1-1v-3a1 1 0 0 1 1-1zM58 42v3a1 1 0 0 1-1 1H39v-5h18a1 1 0 0 1 1 1zM18 29v5H7a1 1 0 0 1-1-1v-3a1 1 0 0 1 1-1zM52 30v3a1 1 0 0 1-1 1H40v-5h11a1 1 0 0 1 1 1z" fill="#f29c1f"></path><path d="M28 36h-9a2.006 2.006 0 0 1-2-2V23.95a3.01 3.01 0 0 1 1.78-2.74l3.68-1.64L29 22l6.54-2.43 3.68 1.64A3.01 3.01 0 0 1 41 23.95V34a2.006 2.006 0 0 1-2 2z" fill="#3b97d3"></path><path d="M34 41H24l-3-5h16z" fill="#805333"></path><path d="M28 33h-6a1 1 0 0 1-1-1v-5a1 1 0 0 1 2 0v4h5a1 1 0 0 1 0 2zM36 33h-5a1 1 0 0 1 0-2h4v-4a1 1 0 0 1 2 0v5a1 1 0 0 1-1 1z" fill="#2980ba"></path><path d="M31 31v5h-3a2.006 2.006 0 0 1-2-2v-1a2.006 2.006 0 0 1 2-2z" fill="#fdd7ad"></path><path d="M24 39v15.77a2.965 2.965 0 0 0-2-.77h-2a2.965 2.965 0 0 0-2 .77V39a3 3 0 0 1 6 0zM40 39v15.77a2.965 2.965 0 0 0-2-.77h-2a2.965 2.965 0 0 0-2 .77V39a3 3 0 0 1 6 0z" fill="#a56a43"></path><path d="M25 56v1a1 1 0 0 1-1 1h-6a1 1 0 0 1-1-1v-1a3.011 3.011 0 0 1 3-3h2a3.011 3.011 0 0 1 3 3zM41 56v1a1 1 0 0 1-1 1h-6a1 1 0 0 1-1-1v-1a3.011 3.011 0 0 1 3-3h2a3.011 3.011 0 0 1 3 3z" fill="#805333"></path><path d="m29 22-2.43 1.85a.714.714 0 0 1-1-.13l-3.11-4.15L26 18zM35.54 19.57l-3.11 4.15a.714.714 0 0 1-1 .13L29 22l3-4z" fill="#84b5cb"></path></g></g></g></svg>