<svg id="Icons" height="512" viewBox="0 0 60 60" width="512" xmlns="http://www.w3.org/2000/svg"><path d="m57 36v21a2 2 0 0 1 -2 2 2 2 0 0 1 -2-2v-21z" fill="#b1cbdd"/><path d="m12 46-.66 1-4.31 10.66a2.036 2.036 0 0 1 -3.95-.69 2.147 2.147 0 0 1 .12-.7l3.8-9.27v-1z" fill="#9fbace"/><path d="m24 47h-17.341a3 3 0 0 1 -2.978-2.641l-2.663-22.099a2 2 0 0 1 3.961-.52l2.543 19.518a2 2 0 0 0 1.983 1.742h5.495v-1h9z" fill="#c0daf0"/><path d="m59 33v3a1 1 0 0 1 -1 1h-32a1 1 0 0 1 -1-1v-3a1 1 0 0 1 1-1v-1h19l.5 1h12.5a1 1 0 0 1 1 1z" fill="#c0daf0"/><path d="m25 32a5 5 0 0 0 -5 5h6a3 3 0 0 1 3 3v15.83a3.111 3.111 0 0 1 -2.78 3.16 3 3 0 0 1 -3.22-2.99v-12a1 1 0 0 0 -1-1h-7a4.014 4.014 0 0 1 -4-4.04c.01-4.12 1.69-8.86 4.4-11.56a14.916 14.916 0 0 1 10.6-4.4h3a3.009 3.009 0 0 1 3 3v1h1v5z" fill="#3f54ea"/><path d="m46 27v1h-14v-1a6 6 0 0 1 6-6h2a6 6 0 0 1 6 6z" fill="#3f54ea"/><rect fill="#3149bc" height="5" rx="2.5" width="21" x="27" y="27"/><g fill="#e1c53a"><path d="m38 18h-4a1 1 0 0 1 -.707-1.707l2.293-2.293h-1.586a1 1 0 0 1 0-2h4a1 1 0 0 1 .707 1.707l-2.293 2.293h1.586a1 1 0 0 1 0 2z"/><path d="m48 13h-6a1 1 0 0 1 -.707-1.707l4.293-4.293h-3.586a1 1 0 0 1 0-2h6a1 1 0 0 1 .707 1.707l-4.293 4.293h3.586a1 1 0 0 1 0 2z"/><path d="m59 9h-7a1 1 0 0 1 -.707-1.707l5.293-5.293h-4.586a1 1 0 0 1 0-2h7a1 1 0 0 1 .707 1.707l-5.293 5.293h4.586a1 1 0 0 1 0 2z"/></g></svg>