<svg viewBox="0 0 512 512" xmlns="http://www.w3.org/2000/svg"><g><path d="M223.96 402.62c-1.4 48.05-42.73 85.38-90.8 85.38h-18.32c-44.57 0-83.36-32.1-89.87-75.08a83.164 83.164 0 0 1-.93-10.3 87.638 87.638 0 0 1 17.72-55.63c14.66-19.36 17.99-44.35 14.69-68.41a48.035 48.035 0 0 1-.39-8.93C57.29 243.74 79.98 224 105.92 224h36.16a51.131 51.131 0 0 1 37.54 16.42 46.387 46.387 0 0 1 12.32 29.23 48.035 48.035 0 0 1-.39 8.93c-3.3 24.06.03 49.05 14.69 68.41a87.638 87.638 0 0 1 17.72 55.63z" fill="#ffb531"></path><path d="M223.96 402.62c-1.4 48.05-42.73 85.38-90.8 85.38h-18.32c-44.57 0-83.36-32.1-89.87-75.08 57.59-28.53 119.27-79.92 154.65-172.5a46.387 46.387 0 0 1 12.32 29.23 48.035 48.035 0 0 1-.39 8.93c-3.3 24.06.03 49.05 14.69 68.41a87.638 87.638 0 0 1 17.72 55.63z" fill="#ffa912"></path><path d="M104 32h40v304h-40z" fill="#8f4d2e"></path><circle cx="124" cy="324" fill="#6e3c24" r="36"></circle><path d="M144 112h-40l-8-24V24h56v64z" fill="#95573a"></path><g fill="#ffb531"><path d="M152 32h24v16h-24zM152 64h24v16h-24zM72 32h24v16H72zM72 64h24v16H72z" fill="#ffb531"></path></g><path d="M88 408h72v32H88z" fill="#95573a"></path><path d="M88 424h72v16H88z" fill="#8f4d2e"></path><path d="m455.372 313.882-88.847-16.658A8 8 0 0 1 360 289.36V216h-80v73.36a8 8 0 0 1-6.526 7.864l-88.845 16.658A40 40 0 0 0 152 353.2V456h336V353.2a40 40 0 0 0-32.628-39.318z" fill="#fec9a3"></path><path d="M488 353.29V456H152V353.29a39.995 39.995 0 0 1 32.74-39.33l70.97-13.1 4.98 20.49a61.028 61.028 0 0 0 118.62 0l4.98-20.49 58.38 10.78 12.59 2.32A39.995 39.995 0 0 1 488 353.29z" fill="#4d5e78"></path><path d="M488 353.29V456H253.99c65.05-24.72 138.81-68.18 188.68-144.36l12.59 2.32A39.995 39.995 0 0 1 488 353.29z" fill="#44546c"></path><path d="M360 275.856V216h-80v59.856a71.963 71.963 0 0 0 80 0zM400 144h-8v48h8a24 24 0 0 0 0-48zM240.4 144h-.4a24 24 0 0 0 0 48h8v-48z" fill="#feb784"></path><path d="M392 136v64a72.006 72.006 0 0 1-72 72c-1.16 0-2.32-.03-3.46-.08A72.009 72.009 0 0 1 248 200v-64a72 72 0 0 1 71-71.99c.33-.01.67-.01 1-.01a72.006 72.006 0 0 1 72 72z" fill="#fec9a3"></path><path d="M392 136v64a72.006 72.006 0 0 1-72 72c-1.16 0-2.32-.03-3.46-.08a71.975 71.975 0 0 0 40.16-64.59v-80A72.1 72.1 0 0 0 319 64.01c.33-.01.67-.01 1-.01a72.006 72.006 0 0 1 72 72z" fill="#fec093"></path><path d="M248 136h144v16H248z" fill="#fec093"></path><circle cx="284" cy="163.996" fill="#7a432a" r="12"></circle><circle cx="356" cy="163.996" fill="#7a432a" r="12"></circle><path d="M285.8 116.613a174.36 174.36 0 0 0 68.4 0l5.8-1.159L392 152v-16a72 72 0 0 0-144 0v16l32-36.546z" fill="#7a3b1d"></path><path d="M339.969 201.09c-7.531 4.39-18.125 6.91-29.078 6.91H296v16h14.891c13.9 0 27.086-3.227 37.14-9.09z" fill="#f7a468"></path><path d="m400 416 48-32h40v72h-32l-24 16h-48l-160 16h-48a24 24 0 0 1-24-24v-48z" fill="#feb784"></path><path d="m240 416-48-32h-40v72h32l24 16h48l160 16h48a24 24 0 0 0 24-24v-48z" fill="#fec9a3"></path><path d="M392 128H248s.1-5.78.29-14.18c.07-2.99.16-6.31.25-9.82.28-10.24.66-22.09 1.14-32 .42-8.49.91-15.56 1.48-18.98a34.732 34.732 0 0 1 63.15-13.56 6.845 6.845 0 0 0 11.38 0 34.742 34.742 0 0 1 42.16-12.83 35.137 35.137 0 0 1 4.3 2.14 34.746 34.746 0 0 1 16.69 24.25q1.575 9.45 2.36 18.98a.17.17 0 0 1 .01.07c.28 3.31.48 18.31.61 31.93.12 12.58.18 24 .18 24z" fill="#7a432a"></path><path d="M392 128H248s.1-5.78.29-14.18c41.46-11.41 91.99-35.67 119.56-87.19a35.137 35.137 0 0 1 4.3 2.14 34.746 34.746 0 0 1 16.69 24.25q1.575 9.45 2.36 18.98a.17.17 0 0 1 .01.07c.28 3.31.48 18.31.61 31.93.12 12.58.18 24 .18 24z" fill="#6e3c24"></path><path d="M216 104h208a32 32 0 0 1-32 32H248a32 32 0 0 1-32-32z" fill="#7a432a"></path><path d="M391.82 104H248.54c.28-10.24.66-22.09 1.14-32H391.2a.17.17 0 0 1 .01.07c.28 3.31.48 18.31.61 31.93z" fill="#95573a"></path><path d="M367.851 104a157.708 157.708 0 0 1-43.081 32H392a32 32 0 0 0 32-32z" fill="#6e3c24"></path><path d="M391.82 104h-39.99V72h39.37a.17.17 0 0 1 .01.07c.28 3.31.48 18.31.61 31.93z" fill="#8f4d2e"></path></g></svg>