<svg viewBox="0 0 60 60" xmlns="http://www.w3.org/2000/svg"><g><path d="M55.16 9.01A3.985 3.985 0 0 1 59 13v42a4 4 0 0 1-4 4H5a4 4 0 0 1-4-4V13a3.991 3.991 0 0 1 3.8-3.99z" fill="#cb8252"></path><g fill="#a56a43"><circle cx="9" cy="51" fill="#a56a43" r="3"></circle><circle cx="24" cy="30" fill="#a56a43" r="3"></circle><circle cx="49" cy="27" fill="#a56a43" r="3"></circle><circle cx="34" cy="45" fill="#a56a43" r="3"></circle><circle cx="45" cy="35" fill="#a56a43" r="2"></circle><circle cx="52" cy="52" fill="#a56a43" r="2"></circle><circle cx="14" cy="28" fill="#a56a43" r="2"></circle><circle cx="8" cy="42" fill="#a56a43" r="2"></circle><circle cx="32" cy="52" fill="#a56a43" r="1"></circle><circle cx="15" cy="55" fill="#a56a43" r="1"></circle><circle cx="17" cy="51" fill="#a56a43" r="1"></circle><circle cx="8" cy="36" fill="#a56a43" r="1"></circle><circle cx="12" cy="38" fill="#a56a43" r="1"></circle><circle cx="31" cy="25" fill="#a56a43" r="1"></circle><circle cx="7" cy="22" fill="#a56a43" r="1"></circle><circle cx="5" cy="26" fill="#a56a43" r="1"></circle><circle cx="36" cy="27" fill="#a56a43" r="1"></circle><circle cx="53" cy="36" fill="#a56a43" r="1"></circle><circle cx="47" cy="54" fill="#a56a43" r="1"></circle><circle cx="50" cy="39" fill="#a56a43" r="1"></circle><circle cx="28" cy="50" fill="#a56a43" r="1"></circle><circle cx="27" cy="46" fill="#a56a43" r="1"></circle></g><path d="M59 13v4l-2.03 2.54a2.611 2.611 0 0 1-4.02.07l-1.9-2.22a2.585 2.585 0 0 0-1.98-.91 2.618 2.618 0 0 0-2.04.98 2.592 2.592 0 0 1-4.06 0 2.611 2.611 0 0 0-4.02-.07l-1.9 2.22a2.611 2.611 0 0 1-4.02-.07l-.04-.05a2.6 2.6 0 0 0-4.03-.04l-.92 1.1a2.6 2.6 0 0 1-4.03-.04l-.19-.24a2.609 2.609 0 0 0-3.88-.21l-1.99 1.99a2.6 2.6 0 0 1-3.79-.12l-4.32-4.86a2.6 2.6 0 0 0-3.79-.12l-.21.21a2.6 2.6 0 0 1-3.68 0L1 16v-3a3.991 3.991 0 0 1 3.8-3.99h50.36A3.985 3.985 0 0 1 59 13z" fill="#4fba6f"></path><path d="M23 11c2-4-1-8-1-8 7 1 8 8 8 8a11.429 11.429 0 0 1 7-10 14.817 14.817 0 0 0 0 10zM41 11a7.272 7.272 0 0 1 5-5 13.382 13.382 0 0 0 1 5zM51 11a10.27 10.27 0 0 1 6-7 13.834 13.834 0 0 0-2 7zM15 11a13.834 13.834 0 0 1 2-7 10.27 10.27 0 0 0-6 7C9 3 2 3 2 3c3 3 3 8 3 8z" fill="#4fba6f"></path></g></svg>