<svg viewBox="0 0 512 512" xmlns="http://www.w3.org/2000/svg"><g><path d="M24.924 492.87c-25.507-25.507-25.507-66.862 0-92.37l18.002-18.002c8.047-8.047 21.094-8.047 29.14 0l63.229 63.229c8.047 8.047 8.047 21.094 0 29.14l-18.002 18.002c-25.506 25.508-66.861 25.508-92.369.001zM262.215 243.067l-.679-.679c-21.677-21.677-56.823-21.677-78.5 0l-92.213 92.213c-8.047 8.047-8.047 21.094 0 29.141l64.871 64.871c7.376 7.376 19.102 8.076 27.303 1.63l71.392-56.111c41.366-32.512 45.029-93.862 7.826-131.065z" fill="#7a6d79"></path><g fill="#685e68"><path d="M95.323 405.756c-8.063-7.929-21.016-7.888-29.017.114l-18.008 17.998c-21.471 21.481-24.862 54.179-10.182 79.206a65.303 65.303 0 0 1-13.191-10.203c-25.503-25.513-25.503-66.863 0-92.376l17.998-17.997c8.053-8.053 21.099-8.053 29.141 0zM273.593 257.02c-21.254-12.384-48.969-9.479-67.183 8.735l-92.21 92.221c-8.001 8.001-8.043 20.954-.114 29.017l-23.259-23.259c-8.053-8.042-8.053-21.088 0-29.141l92.21-92.21c21.678-21.678 56.825-21.678 78.503 0l.672.682a88.504 88.504 0 0 1 11.381 13.955z" fill="#685e68"></path></g><path d="m371.302 25.708.679.679c21.677 21.677 21.677 56.823 0 78.5L279.767 197.1c-8.047 8.047-21.094 8.047-29.14 0l-64.871-64.871c-7.376-7.376-8.076-19.102-1.63-27.303l56.111-71.392c32.512-41.366 93.862-45.029 131.065-7.826z" fill="#7a6d79"></path><path d="M380.734 37.72c-37.205-24.459-88.406-17.336-117.113 19.197l-56.112 71.391c-6.451 8.198-5.748 19.931 1.623 27.301l-23.373-23.373c-7.371-7.381-8.074-19.104-1.633-27.301l56.112-71.401c32.511-41.36 93.864-45.02 131.069-7.826l.682.682a55.144 55.144 0 0 1 8.745 11.33z" fill="#685e68"></path><path d="M494.989 469.976c-15.769 15.769-41.623 14.782-56.144-2.144L310.207 317.886l32.691-32.691 149.947 128.639c16.926 14.519 17.913 40.373 2.144 56.142z" fill="#bc7c63"></path><path d="M502.425 459.513a38.33 38.33 0 0 1-7.44 10.464c-15.767 15.767-41.617 14.776-56.14-2.145L310.21 317.882l17.904-17.904L456.756 449.92c11.619 13.556 30.506 16.892 45.669 9.593z" fill="#ab695d"></path><circle cx="241.742" cy="216.729" fill="#ffe177" r="165.317"></circle><path d="M331.968 306.955c-19.424 19.424-43.552 31.281-68.713 35.561-39.396 6.709-48.993-37.491-79.396-67.903-26.371-26.361-71.129-29.052-69.588-63.579 1.354-30.733 13.77-61.063 37.246-84.53 49.827-49.837 130.624-49.837 180.451 0 49.837 49.827 49.837 130.624 0 180.451z" fill="#c8effe"></path><path d="M193.58 306.955c19.548 19.548 43.841 31.426 69.178 35.644-50.822-5.048-65.407-20.911-95.686-51.2-26.371-26.361-40.841-59.34-52.802-80.366 1.354-30.733 13.77-61.063 37.246-84.53 30.278-30.289 72.011-42.167 111.262-35.644-25.337 4.207-49.651 16.085-69.199 35.644-23.477 23.466-35.892 53.796-37.246 84.53-1.539 34.528 10.876 69.561 37.247 95.922z" fill="#99e6fc"></path><path d="m274.657 331.258-11.402 11.258c-.165.031-.331.052-.496.083h-.01c-39.251 6.523-80.963-5.365-111.231-35.644-26.371-26.361-38.786-61.394-37.246-95.922l61.798-61.798c29.948-29.958 78.513-29.958 108.461 0l.941.931c51.396 51.409 46.341 136.176-10.815 181.092z" fill="#918291"></path><path d="M262.748 342.599c-39.251 6.523-80.963-5.365-111.231-35.644-26.371-26.361-38.786-61.394-37.246-95.922l60.278-60.278c-11.216 18.535-17.295 39.313-18.215 60.278-1.54 34.527 10.875 69.561 37.246 95.922 19.548 19.548 43.831 31.426 69.168 35.644z" fill="#7a6d79"></path><path d="M298.071 164.939c-29.772-19.765-70.316-16.519-96.562 9.738l-81.232 81.232a127.907 127.907 0 0 1-6.006-44.875l61.797-61.798c29.948-29.958 78.513-29.958 108.461 0l.941.93a121.337 121.337 0 0 1 12.601 14.773z" fill="#7a6d79"></path><g fill="#685e68"><path d="M290.224 271.052c-.438 0-.881-.038-1.327-.115l-26.981-4.673a7.727 7.727 0 0 1-6.295-6.294l-3.744-21.616-21.613-3.742a7.726 7.726 0 0 1-6.295-6.295l-3.742-21.614-21.613-3.742a7.726 7.726 0 0 1-6.295-6.295l-4.671-26.978a7.726 7.726 0 0 1 15.226-2.636l3.741 21.612 21.613 3.742a7.726 7.726 0 0 1 6.295 6.295l3.742 21.614 21.613 3.742a7.726 7.726 0 0 1 6.295 6.294l3.744 21.617 21.616 3.743a7.727 7.727 0 0 1-1.309 15.341zM257.178 304.099c-.438 0-.881-.038-1.328-.115l-26.981-4.674a7.726 7.726 0 0 1-6.294-6.295l-3.743-21.615-21.614-3.742a7.726 7.726 0 0 1-6.295-6.295l-3.742-21.614-21.613-3.741a7.726 7.726 0 0 1-6.295-6.295l-4.671-26.979a7.726 7.726 0 0 1 15.226-2.636l3.741 21.613 21.613 3.741a7.726 7.726 0 0 1 6.295 6.295l3.742 21.614 21.613 3.742a7.726 7.726 0 0 1 6.295 6.295l3.743 21.616 21.617 3.744a7.727 7.727 0 0 1-1.309 15.341z" fill="#685e68"></path></g></g></svg>