<svg viewBox="0 0 497 497" xmlns="http://www.w3.org/2000/svg"><g><path d="M448.771 497H93.797c-11.544 0-20.903-9.358-20.903-20.903V20.903C72.894 9.358 82.252 0 93.797 0h354.974c11.544 0 20.903 9.358 20.903 20.903v455.195c0 11.544-9.359 20.902-20.903 20.902z" fill="#60b7ff"></path><path d="M448.771 0h-9.097v376.653c0 49.897-40.45 90.347-90.347 90.347H72.894v9.097c0 11.544 9.359 20.903 20.903 20.903h354.974c11.544 0 20.903-9.358 20.903-20.903V20.903C469.674 9.359 460.315 0 448.771 0z" fill="#26a6fe"></path><circle cx="287.454" cy="152.939" fill="#fdf8f8" r="104.876"></circle><path d="M325.589 55.216c22.486 19.236 36.741 47.813 36.741 79.724 0 57.921-46.955 104.876-104.876 104.876-13.454 0-26.315-2.537-38.135-7.153 18.328 15.679 42.124 25.153 68.135 25.153 57.922 0 104.876-46.955 104.876-104.876 0-44.468-27.676-82.468-66.741-97.724z" fill="#f4e7e7"></path><path d="M99.672 81.756H42.006c-8.108 0-14.68-6.572-14.68-14.68s6.572-14.68 14.68-14.68h57.666c8.108 0 14.68 6.572 14.68 14.68s-6.573 14.68-14.68 14.68zM101.019 154.326H43.354c-8.108 0-14.68-6.572-14.68-14.68s6.572-14.68 14.68-14.68h57.666c8.108 0 14.68 6.572 14.68 14.68-.001 8.107-6.573 14.68-14.681 14.68zM102.367 226.895H44.701c-8.108 0-14.68-6.572-14.68-14.68s6.572-14.68 14.68-14.68h57.666c8.108 0 14.68 6.572 14.68 14.68s-6.573 14.68-14.68 14.68zM103.715 299.465H46.049c-8.108 0-14.68-6.572-14.68-14.68s6.572-14.68 14.68-14.68h57.666c8.108 0 14.68 6.572 14.68 14.68 0 8.107-6.573 14.68-14.68 14.68zM105.062 372.034H47.397c-8.108 0-14.68-6.572-14.68-14.68s6.572-14.68 14.68-14.68h57.666c8.108 0 14.68 6.572 14.68 14.68-.001 8.108-6.573 14.68-14.681 14.68zM106.41 444.604H48.744c-8.108 0-14.68-6.572-14.68-14.68s6.572-14.68 14.68-14.68h57.666c8.108 0 14.68 6.572 14.68 14.68 0 8.107-6.573 14.68-14.68 14.68z" fill="#4f66d0"></path><path d="M401.09 342.674H173.818a8.652 8.652 0 0 1-8.652-8.652v-17.487a8.652 8.652 0 0 1 8.652-8.652H401.09a8.652 8.652 0 0 1 8.652 8.652v17.487a8.652 8.652 0 0 1-8.652 8.652z" fill="#60b7ff"></path><path d="M401.09 342.674H173.818a8.652 8.652 0 0 1-8.652-8.652v-17.487a8.652 8.652 0 0 1 8.652-8.652H401.09a8.652 8.652 0 0 1 8.652 8.652v17.487a8.652 8.652 0 0 1-8.652 8.652z" fill="#ffd15b"></path><path d="M301.082 216.878h-27.256a7.586 7.586 0 0 1-7.586-7.586V171.16a7.586 7.586 0 0 1 5.363-7.253l27.256-8.351c4.876-1.494 9.808 2.153 9.808 7.253v46.484a7.584 7.584 0 0 1-7.585 7.585z" fill="#4f66d0"></path><circle cx="287.454" cy="110.214" fill="#4f66d0" r="21.214"></circle><path d="M369.806 387.327H200.709c-4.143 0-7.5-3.357-7.5-7.5s3.357-7.5 7.5-7.5h169.097c4.143 0 7.5 3.357 7.5 7.5s-3.357 7.5-7.5 7.5zM369.806 430.37H200.709c-4.143 0-7.5-3.357-7.5-7.5s3.357-7.5 7.5-7.5h169.097c4.143 0 7.5 3.357 7.5 7.5s-3.357 7.5-7.5 7.5z" fill="#fdf8f8"></path></g></svg>