<svg viewBox="0 0 464 464" xmlns="http://www.w3.org/2000/svg"><g><path d="M96 0h272c17.672 0 32 14.328 32 32v352c0 17.672-14.328 32-32 32H96c-17.672 0-32-14.328-32-32V32C64 14.328 78.328 0 96 0zm0 0" fill="#87ced9"></path><path d="M64 384c0 17.672 14.328 32 32 32h129.336L64 254.664zm0 0" fill="#71c4d1"></path><path d="M88 24h16v16H88zM120 24h16v16h-16zM152 24h16v16h-16zm0 0" fill="#5eb3d1"></path><path d="M208 304h256v64H208zm0 0" fill="#fdb62f"></path><g fill="#fd882f"><path d="M424 304h16v24h-16zM392 304h16v24h-16zM360 304h16v24h-16zM328 304h16v24h-16zM296 304h16v24h-16zM264 304h16v24h-16zM232 304h16v24h-16zm0 0" fill="#fd882f"></path></g><path d="M0 216v248h248zm48 120 80 80H48zm0 0" fill="#e8594a"></path><path d="M352 280H176a8 8 0 0 1-8-8V128a8 8 0 0 1 8-8h176a8 8 0 0 1 8 8v144a8 8 0 0 1-8 8zm-168-16h160V136H184zm0 0" fill="#5eb3d1"></path><path d="M176 240c-48.602 0-88-39.398-88-88s39.398-88 88-88 88 39.398 88 88c-.055 48.578-39.422 87.945-88 88zm0-160c-39.766 0-72 32.234-72 72s32.234 72 72 72 72-32.234 72-72c-.047-39.746-32.254-71.953-72-72zm0 0" fill="#5eb3d1"></path><path d="M441.375 16C453.871 16 464 26.129 464 38.625c0 6-2.383 11.754-6.625 16L320 192l-40 8 8-40L425.375 22.625a22.637 22.637 0 0 1 16-6.625zm0 0" fill="#4398d1"></path><path d="m410.348 37.66 11.312-11.316 32 32-11.312 11.316zM282.348 165.66l11.312-11.312 32 32-11.312 11.316zm0 0" fill="#126099"></path><path d="M208 368h192v16H208zm0 0" fill="#71c4d1"></path></g></svg>