<svg viewBox="0 0 512 512" xmlns="http://www.w3.org/2000/svg"><g><path d="M416 456H256l35.292-134.108A24 24 0 0 1 314.5 304h110.367a24 24 0 0 1 23.21 30.108z" fill="#348ed8"></path><path d="m392 224 24-16-63.824-62.265L384 104l66.379 49.784A74.053 74.053 0 0 1 480 213.026a74.051 74.051 0 0 1-37.312 64.3L424 288zM144 200l64-24-16-40 104-16 8-48H182.644a58.6 58.6 0 0 0-53.867 35.52 58.6 58.6 0 0 0-1.731 41.618z" fill="#fcb079"></path><path d="m289.024 75.9-46.984 39.215 16.867 7.022-18.069 41.463a17.823 17.823 0 0 0 9.64 23.606l16.868 7.023-25.3 58.044 67.471 28.09L381.8 114.521z" fill="#fdc8a2"></path><path d="m389.02 97.94-32.52 74.62-6.03-31.89-29.25 54.91a24 24 0 0 1-31.53 10.37l-39.21-18.75a17.811 17.811 0 0 1-9.64-23.6l5.71-13.11 7.24-16.59 5.12-11.76 42.17 17.55 39.26-27.52a9.012 9.012 0 0 0-.71-15.21L289.02 75.9a26.882 26.882 0 0 1-16.69-24.78 26.59 26.59 0 0 1 2.23-10.63 27.823 27.823 0 0 1 36.15-14.34l59.03 24.57a35.642 35.642 0 0 1 19.28 47.22z" fill="#91563a"></path><path d="m284.26 112.854 7.237-16.589 14.672 6.4-7.236 16.589z" fill="#91563a"></path><path d="m144 200 64-24 24 48 104 32 56-32 32 64-64 48-40 120H120l48-184z" fill="#d65246"></path><path d="M284.1 155.87a22.537 22.537 0 0 1-13.71 4.14 34.8 34.8 0 0 1-12.07-2.27 34.242 34.242 0 0 1-11.77-7.25l7.24-16.59c.77 2.07 2.95 5.94 10.1 8.85 5.48 2.22 9.55 1.13 10.52.38z" fill="#fdc8a2"></path><path d="M24 456h464v32H24z" fill="#91563a"></path><path d="M56 424h240v32H56z" fill="#cececc"></path><path d="M203.8 456H68.292a16 16 0 0 1-15.459-11.877L24.478 337.791a14.148 14.148 0 0 1-.478-3.645A14.146 14.146 0 0 1 38.146 320h141.182a16 16 0 0 1 15.572 12.335l24.471 104A16 16 0 0 1 203.8 456z" fill="#dfdfdd"></path><ellipse cx="119.937" cy="392" fill="#f1f1f1" rx="15.31" ry="16.721" transform="rotate(-46.3 119.782 391.733)"></ellipse><path d="M384 352h72v104h-72z" fill="#d65246"></path><path d="M476.37 368H456v16h20.37a3.634 3.634 0 0 1 3.63 3.63v32.74a3.634 3.634 0 0 1-3.63 3.63H456v16h20.37A19.652 19.652 0 0 0 496 420.37v-32.74A19.652 19.652 0 0 0 476.37 368z" fill="#c7483c"></path></g></svg>