<svg viewBox="0 0 512 512" xmlns="http://www.w3.org/2000/svg"><g><path d="M384 272h24v40h-24z" fill="#ffbfa1"></path><path d="M472 341.25a45.3 45.3 0 0 1-8 25.7V456H344V352l-27.64 36.85A67.86 67.86 0 0 1 222.15 403l-23.56-17.14L224 352l40 16 44-56.56A40 40 0 0 1 339.56 296h87.19A45.24 45.24 0 0 1 472 341.25z" fill="#5771e5"></path><path d="M184 256v240h-40l-21.22-162.72L104 496H56V256z" fill="#56679c"></path><path d="M120 64h24v32h-24z" fill="#ffbfa1"></path><path d="M184 144v14l2.21-.83 20.88 48.72-23.09 8.88V256H56v-88l-2.75-2.75a45.25 45.25 0 0 1 32-77.25H176a32 32 0 0 1 25.6 12.8l37.52 50L206 177z" fill="#ed6445"></path><path d="M152 40v32a16 16 0 0 1-16 16 16 16 0 0 1-16-16V40z" fill="#ffceb6"></path><path d="m120 64-6-11.9a19.4 19.4 0 0 1-2-8.68A19.41 19.41 0 0 1 131.42 24H168v9.37A22.63 22.63 0 0 1 145.37 56a22.62 22.62 0 0 1-16-6.63L128 48z" fill="#b36f42"></path><path d="M143.88 232a89.56 89.56 0 0 1-61.82-26.62L56 179.31A8 8 0 0 1 56 168a8 8 0 0 1 11.31 0l26.21 26.21A73.31 73.31 0 0 0 144.11 216a71.71 71.71 0 0 0 26.89-4.8l2.67-1a8 8 0 0 1 10.34 4.6 8 8 0 0 1-4.59 10.34l-2.67 1a87.58 87.58 0 0 1-32.87 5.86z" fill="#de402f"></path><path d="m144 112 8-16-16-8-16 8 8 16z" fill="#f5a431"></path><path d="M168 112a8 8 0 0 1-11.2 1.6L136 98l-20.8 15.6a8 8 0 1 1-9.6-12.8L122.67 88h26.66l17.07 12.8A8 8 0 0 1 168 112z" fill="#de402f"></path><path d="m128 112-7 49 15 15 16-8-8-56z" fill="#f7c04a"></path><rect fill="#445496" rx="8" transform="rotate(-83.4 125.524 310.8)"></rect><path d="M136 184a8 8 0 0 1-5.66-2.34L80 131.31A8 8 0 0 1 80 120a8 8 0 0 1 11.31 0L138 166.7l38-14.24V136a8 8 0 0 1 8-8 8 8 0 0 1 8 8v22a8 8 0 0 1-5.19 7.49l-48 18a8.1 8.1 0 0 1-2.81.51z" fill="#de402f"></path><path d="M376 248v32a16 16 0 0 0 16 16 16 16 0 0 0 16-16v-32z" fill="#ffceb6"></path><path d="M380 256h20l8 16 6-11.9a19.4 19.4 0 0 0 2.05-8.68A19.41 19.41 0 0 0 396.58 232H380a12 12 0 0 0-12 12 12 12 0 0 0 12 12z" fill="#b36f42"></path><path d="m304.91 413.89-38-14.63a24 24 0 0 1-14.91-27.1l4-20.16 32 8v-10.34a5.65 5.65 0 0 1 5.66-5.66 5.66 5.66 0 0 1 4 1.66L312 360l13.78 5.17z" fill="#ffceb6"></path><path d="m432 336-56 48-50.22-18.83-20.87 48.72 33.22 12.78a80.18 80.18 0 0 0 28.73 5.33 80 80 0 0 0 56.58-23.44l35.31-35.31A45.57 45.57 0 0 0 464 367z" fill="#5771e5"></path><path d="m224 352-6.92-27.67a5.72 5.72 0 0 0-5.55-4.33 5.71 5.71 0 0 0-5.11 3.16L200 336l-24-16-14.26 19a16 16 0 0 0 3.39 22.54l33.46 24.33z" fill="#ffceb6"></path><path d="M344 456h120v40H344z" fill="#ebc99b"></path><path d="M366.86 440a88.53 88.53 0 0 1-16.58-1.57 8 8 0 0 1-6.16-10.15 8 8 0 0 1 9.07-5.59 72 72 0 0 0 64.59-19.78L452.69 368a8 8 0 0 1 11.31 0 8 8 0 0 1 0 11.31l-34.91 34.91A87.43 87.43 0 0 1 366.86 440z" fill="#4356e6"></path><path d="m400 320 8-16-16-8-16 8 8 16z" fill="#f5a431"></path><path d="m384 320-8 56 29.71-16-5.71-40z" fill="#f7c04a"></path><path d="M424 320a8 8 0 0 1-11.2 1.6L392 306l-20.8 15.6a8 8 0 1 1-9.6-12.8l17.07-12.8h26.66l17.07 12.8A8 8 0 0 1 424 320z" fill="#4356e6"></path><path d="M176 264.52a71.48 71.48 0 0 1 15.06-43.88L232 168l-5.27-10.53a26 26 0 0 1-2.73-11.58A25.89 25.89 0 0 1 249.89 120h12.22A25.89 25.89 0 0 1 288 145.89a26 26 0 0 1-2.73 11.58L280 168l40.94 52.64A71.48 71.48 0 0 1 336 264.52 71.48 71.48 0 0 1 264.52 336h-17A71.48 71.48 0 0 1 176 264.52z" fill="#e6b47c"></path><rect fill="#f0d9b4" rx="8"></rect><path d="M186.21 157.17 200 152l14.34-14.34a5.66 5.66 0 0 1 4-1.66 5.65 5.65 0 0 1 5.66 5.66V152l32-8 4 20.16a24 24 0 0 1-14.92 27.1l-38 14.63z" fill="#ffceb6"></path><path d="M249.89 240H280v-16h-16v-16h-16v16.1a17.89 17.89 0 0 0-6.11 33.79L263 268.42a1.89 1.89 0 0 1-.85 3.58H232v16h16v16h16v-16.1a17.89 17.89 0 0 0 6.11-33.79L249 243.58a1.89 1.89 0 0 1 .85-3.58z" fill="#d68b51"></path><path d="M376 392a8 8 0 0 1-2.81-.51l-24.51-9.19A8 8 0 0 1 344 372a8 8 0 0 1 10.3-4.68l20.08 7.53 46.34-39.72A8 8 0 0 1 432 336a8 8 0 0 1-.87 11.28l-49.92 42.79A8 8 0 0 1 376 392z" fill="#4356e6"></path></g></svg>