<svg viewBox="0 0 512 512" xmlns="http://www.w3.org/2000/svg"><g><g clip-rule="evenodd" fill-rule="evenodd"><path d="m341.741 433.638 13.099 7.204c10.926 6.009 24.786 1.988 30.797-8.94s1.928-24.68-8.94-30.797c10.899 6.104 24.802 1.959 30.796-8.94 3.67-6.672 3.565-14.375.461-20.768l3.401-1.415-153.527-122.205c-43.792-29.534-74.303 8.522-104.41-8.421l-39.882-18.4c-6.739-3.109-14.763-.184-17.92 6.533l-42.828 91.123c-1.602 3.408-1.751 6.918-.446 10.45s3.702 6.101 7.135 7.648c14.229 6.411 36.034 16.221 40.504 17.956 13.646 5.298 9.148 26.623 16.617 36.358 11.496 14.984 13.371 25.908 23.155 31.528l138.61 79.612c10.813 6.21 24.786 1.988 30.796-8.94 6.009-10.924 1.965-24.749-8.908-30.843l19.633 10.996c10.879 6.093 24.786 1.987 30.797-8.94 6.011-10.93 1.928-24.682-8.94-30.799z" fill="#f6dccd"></path><g fill="#f1cbbc"><path d="m262.402 251.418-4.574-3.641c-43.792-29.534-74.303 8.522-104.41-8.421l-39.882-18.4c-6.739-3.109-14.763-.184-17.92 6.533l-9.469 20.148c9.421-4.725 20.64-1.847 33.088 5.616 59.649 35.762 80.143-2.98 126.932 13.557 1.88-1.777 3.72-3.574 5.518-5.392a178.304 178.304 0 0 1 10.717-10zM263.858 493.832l14.505 8.331c10.551 6.06 24.111 2.184 30.346-8.161l-34.584-19.691zM264.34 441.025c1.617 2.386 3.677 2.979 6.258 4.452l35.196 20.086 14.09 7.812c10.468 5.804 23.676 2.299 30.036-7.661l-71.741-40.64c-5.186-2.92-11.758-1.083-14.677 4.103-2.183 3.876-1.707 8.527.838 11.848zM334.108 429.44l20.732 11.402c10.394 5.716 23.444 2.351 29.863-7.392l-90.326-51.361c-5.186-2.92-11.758-1.083-14.677 4.103-2.92 5.186-1.083 11.758 4.103 14.677zM368.867 396.719l7.831 4.386c10.401 5.826 23.569 2.328 29.958-7.54l-73.362-41.703c-5.186-2.92-11.758-1.083-14.678 4.103s-1.083 11.758 4.103 14.678c15.578 8.917 46.555 26.305 46.148 26.076z" fill="#f1cbbc"></path></g><path d="M240.816 447.249c7.016-7.793 18.75-10.142 28.386-4.993a23.113 23.113 0 0 1 7.747 6.7c5.321 7.238 6.076 16.97 1.832 24.905l-13.806 25.816c-6.057 11.326-20.281 15.635-31.605 9.578-9.103-4.869-13.673-15.016-11.969-24.691-6.711 9.359-19.577 12.558-29.993 6.988-8.915-4.768-13.48-14.596-12.067-24.087-6.094 11.382-20.246 15.779-31.658 9.676-11.325-6.057-15.636-20.281-9.579-31.605l4.354-8.139c-7.116 6.442-17.824 8.081-26.723 3.322-11.325-6.057-15.636-20.28-9.579-31.605l14.399-26.922c6.059-11.328 20.276-15.625 31.605-9.578 10.883 5.808 15.283 19.207 10.232 30.282 7.115-6.52 17.883-8.192 26.828-3.418 9.63 5.139 14.184 16.224 11.605 26.381 7.017-7.792 18.747-10.136 28.386-4.992 9.63 5.14 14.184 16.224 11.605 26.382z" fill="#d6b4a8"></path><path d="M179.341 467.465c-5.946 11.133-20.053 15.882-31.658 9.676a23.222 23.222 0 0 1-3.226-2.086c4.121-.63 8.271-3.254 9.416-5.473l32.359-62.668c.319-.618 1.261-4.696-.549-8.963 1.202.405 2.385.912 3.537 1.527 9.625 5.137 14.18 16.213 11.609 26.367zM266.58 441.058c.887.341 1.763.74 2.622 1.198a23.113 23.113 0 0 1 7.747 6.7c5.321 7.238 6.076 16.97 1.832 24.905l-13.806 25.816c-6.057 11.326-20.281 15.635-31.605 9.578a22.705 22.705 0 0 1-.377-.207c2.423-.882 3.952-2.216 4.644-3.556l28.816-55.807c1.138-2.202 1.358-5.681.127-8.627zM221.401 484.564c-6.711 9.359-19.577 12.558-29.993 6.988a23.485 23.485 0 0 1-2.193-1.334c3.97-1.734 7.322-4.705 9.619-9.153l26.855-52.008c1.898-3.676 1.492-6.843-.093-9.742 1.228.409 2.437.925 3.614 1.553 9.63 5.139 14.184 16.223 11.605 26.382zM142.458 437.396c-7.116 6.442-17.824 8.081-26.723 3.322a23.13 23.13 0 0 1-5.24-3.83c7.16.318 10.369-5.326 13.631-11.065l24.463-43.035c1.973-3.47 2.124-8.053.601-11.502 1.007.368 2 .809 2.971 1.327 10.883 5.808 15.283 19.207 10.232 30.282z" fill="#cca393"></path><path d="m320.128 316.667 78.427 44.701a23.185 23.185 0 0 1 9.402 10.033l44.255-18.465c6.768-2.824 10.059-10.546 7.408-17.384l-36.937-95.285c-1.451-3.745-4.152-6.405-7.919-7.8-3.766-1.395-7.548-1.136-11.089.759l-26.473 14.17c-31.619 16.447-62.066-38.904-119.318.371-7.445 5.087-14.43 11.192-20.766 17.595-15.901 16.069-35.298 30.402-57.234 43.205a2.626 2.626 0 0 0-1.294 1.828 2.625 2.625 0 0 0 .521 2.176c45.424 58.447 100.704-18.881 141.017 4.096z" fill="#d6b4a8"></path><path d="m380.956 351.337 17.599 10.031a23.185 23.185 0 0 1 9.402 10.033l44.255-18.465c6.764-2.822 10.055-10.536 7.413-17.371l-10.833-27.946c.5 8.885-1.559 16.7-10.699 20.426zM185.258 319.613c44.188 44.694 96.359-24.897 134.871-2.947-60.991-41.308-83.706 13.126-134.871 2.947z" fill="#cca393"></path><circle cx="256" cy="108.387" fill="#89c8fd" r="108.387"></circle><path d="M252.716.46c55.15 5.07 98.339 51.455 98.339 107.927s-43.189 102.858-98.339 107.927c-1.122.103-2.25.189-3.382.258a111.156 111.156 0 0 0 6.666.201c59.86 0 108.387-48.526 108.387-108.387C364.387 48.527 315.86 0 256 0a108.585 108.585 0 0 0-6.666.202c1.132.068 2.26.155 3.382.258z" fill="#60b6ff"></path><path d="M293.076 86.634c4.663 10.039-14.715 13.784 9.501 29.662 16.103 5.907 23.537-6.407 22.842 26.523-.182 8.669-2.684 12.279-6.138 26.179-2.065 8.309 20.278 5.278 27.915-2.012 10.879-16.896 17.192-37.011 17.192-58.6 0-32.119-13.971-60.975-36.168-80.823-2.45 2.198-15.962 4.389-22.686 10.537-5.839 5.339-3.248 17.377-1.951 20.627 1.309 2.563 24.393-.017 27.194.092 13.116.514 4.623 21.533.805 22.579-3.053.836-22.127.166-30.263-2.475-3.548-1.15-8.976 6.134-8.243 7.711zm-64.652-10.182c2.083-10.667 10.305-12.373 16.06-15.968 4.605-2.877 13.004-3.749 19.329-5.451 5.173-1.393 5.096-7.307 5.763-11.968 1.462-10.214-.741-11.749-9.712-13.027-14.938-2.128-9.93-12.498-30.03-8.267-19.896 4.188-14.226 2.689-34.261-3.377-16.482 11.089-29.752 26.586-38.119 44.803 11.137 33.303 34.014 39.666 37.924 43.698 3.384 3.489 8.206 6.162 8.33 17.181.396 35.407 18.075 2.49 25.294 42.961 6.832 38.302 20.728 26.726 23.52 4.157 2.396-19.375 19.863-14.745 21.613-37.798 1.032-13.604-38.034-24.731-42.374-24.386-17.865 1.422-8.731 1.357-18.396-14.821-6.679-11.179 12.535-4.809 15.059-17.737z" fill="#baeb6c"></path><path d="M318.799 31.24c19.914 19.653 32.256 46.959 32.256 77.148 0 24.614-8.205 47.312-22.029 65.508 6.393-.525 14.234-3.151 18.169-6.908 10.879-16.896 17.192-37.011 17.192-58.6 0-32.119-13.971-60.975-36.168-80.823-1.196 1.072-5.028 2.144-9.42 3.675z" fill="#96d629"></path></g></g></svg>