<svg viewBox="0 0 512 512" xmlns="http://www.w3.org/2000/svg"><g><path d="M451.292 501.851v-84.717c0-37.078-25.12-69.446-61.038-78.649L321.07 320.76a20.298 20.298 0 0 1-15.26-19.662v-45.717h-99.62v45.717c0 9.27-6.28 17.361-15.26 19.662l-69.184 17.726c-35.918 9.203-61.038 41.57-61.038 78.649v84.717c0 5.605 4.544 10.149 10.149 10.149h370.288c5.604-.001 10.147-4.545 10.147-10.15z" fill="#9dc7fb"></path><path d="M206.19 255.381v45.717c0 6.722-3.313 12.813-8.552 16.536 13.218 17.864 34.435 29.451 58.363 29.451s45.145-11.587 58.363-29.451c-5.24-3.723-8.552-9.814-8.552-16.536v-45.717z" fill="#ffcbbe"></path><path d="M206.19 255.381v45.717c0 2.251-.379 4.427-1.07 6.471 14.692 9.39 32.15 14.834 50.88 14.834 18.73 0 36.188-5.444 50.88-14.834a20.173 20.173 0 0 1-1.07-6.471v-45.717z" fill="#eaac9d"></path><path d="M161.394 197.351v-83.492h189.212v83.492c0 52.249-42.356 94.606-94.606 94.606-52.249 0-94.606-42.357-94.606-94.606z" fill="#ffcbbe"></path><path d="M320.16 113.859v83.492c0 47.066-34.372 86.099-79.383 93.381A95.245 95.245 0 0 0 256 291.957c52.249 0 94.606-42.356 94.606-94.606v-83.492z" fill="#eaac9d"></path><path d="M375.177 470.86h76.115v30.991c0 5.605-4.544 10.149-10.149 10.149h-65.966z" fill="#ffcbbe"></path><path d="M375.177 512a7.61 7.61 0 0 1-7.611-7.612v-43.171a7.612 7.612 0 0 1 15.223 0v43.171a7.611 7.611 0 0 1-7.612 7.612z" fill="#80b5fb"></path><path d="M60.708 470.86h76.115V512H70.856c-5.605 0-10.149-4.544-10.149-10.149z" fill="#ffcbbe"></path><path d="M136.823 512a7.61 7.61 0 0 1-7.611-7.612v-48.751a7.612 7.612 0 1 1 15.222 0v48.751a7.611 7.611 0 0 1-7.611 7.612z" fill="#80b5fb"></path><path d="M189.794 425.106a7.615 7.615 0 0 0 7.378 5.767 7.612 7.612 0 0 0 7.39-9.46l-24.458-97.832c-.004-.015-.01-.029-.013-.044l-14.744 3.777zM311.088 438.195a7.614 7.614 0 0 0 9.23-5.538l26.336-105.343-14.744-3.777c-.004.015-.01.029-.013.044L305.55 428.964a7.612 7.612 0 0 0 5.538 9.231z" fill="#766d78"></path><path d="M142.326 130.384h227.348c4.863 0 7.764-5.42 5.067-9.467l-24.135-36.202H161.394l-24.135 36.202c-2.697 4.047.204 9.467 5.067 9.467z" fill="#e2a66f"></path><path d="m374.741 120.918-24.135-36.202H320.16l24.135 36.202c2.698 4.047-.203 9.467-5.067 9.467h30.446c4.863 0 7.764-5.421 5.067-9.467z" fill="#d5995c"></path><path d="M350.606 84.715H161.394l17.598-13.216-12.127-17.23 6.75-37.562C175.353 7.037 183.767 0 193.592 0h124.815c9.825 0 18.24 7.037 19.977 16.707l6.75 37.562-12.484 15.24z" fill="#e2a66f"></path><path d="M338.385 16.708C336.647 7.038 328.233 0 318.408 0h-30.446c9.825 0 18.24 7.038 19.977 16.708l6.75 37.562h30.446z" fill="#d5995c"></path><path d="M161.394 84.715h189.212l-5.471-30.446h-178.27z" fill="#edbb87"></path><path d="M345.135 54.27h-30.446l5.471 30.446h30.446z" fill="#e3a670"></path><path d="M286.387 406.961v-7.557a6.089 6.089 0 0 0-6.089-6.089h-48.595a6.089 6.089 0 0 0-6.089 6.089v7.557a6.089 6.089 0 0 1-6.089 6.089H185.49a6.089 6.089 0 0 0-6.089 6.089v79.16a6.089 6.089 0 0 0 6.089 6.089h141.02a6.089 6.089 0 0 0 6.089-6.089v-79.16a6.089 6.089 0 0 0-6.089-6.089h-34.034a6.088 6.088 0 0 1-6.089-6.089z" fill="#655e67"></path><path d="M326.51 413.051h-30.446a6.089 6.089 0 0 1 6.089 6.089v79.16a6.089 6.089 0 0 1-6.089 6.089h30.446a6.089 6.089 0 0 0 6.089-6.089v-79.16a6.089 6.089 0 0 0-6.089-6.089z" fill="#544f56"></path><path d="M179.401 451.108v15.223h153.198v-15.223z" fill="#766d78"></path><path d="M332.599 451.108h-30.446v15.223h30.446z" fill="#655e67"></path><circle cx="256" cy="458.72" fill="#f7f6f7" r="21.205"></circle><path d="M256 437.515c-3.288 0-6.388.77-9.165 2.105 7.115 3.421 12.039 10.676 12.039 19.099s-4.924 15.678-12.039 19.099a21.087 21.087 0 0 0 9.165 2.105c11.711 0 21.205-9.494 21.205-21.204s-9.494-21.204-21.205-21.204z" fill="#e2dfe3"></path></g></svg>