<svg viewBox="0 0 512 512" xmlns="http://www.w3.org/2000/svg"><g><path d="m366.826 196.64-25.921-26.078a8 8 0 0 1-2.171-7.209l5.657-28.284a8 8 0 0 1 2.188-4.088l22.627-22.627a8 8 0 0 1 11.314 0l22.627 22.627-11.314 11.313-16.97-16.97-15.258 15.258-4.345 21.726 22.914 23.052z" fill="#fa9f0c"></path><path d="M376.062 144a23.965 23.965 0 0 1-23.938-23.938V32.588h16v87.474a7.938 7.938 0 1 0 15.876 0v-15.938h16v15.938A23.966 23.966 0 0 1 376.062 144z" fill="#e0e0de"></path><path d="M344.391 135.069a8 8 0 0 1 2.188-4.088l22.627-22.627a8 8 0 0 1 11.314 0l-5.657 16.97-15.258 15.258zM437.088 263.432a8 8 0 0 1-5.594-2.282l-30.088-29.431 11.188-11.438 27.068 26.477 21.766-4.353 15.259-15.258-16.971-16.971 11.313-11.313 22.628 22.627a8 8 0 0 1 0 11.314l-22.628 22.627a8 8 0 0 1-4.088 2.188l-28.284 5.657a7.943 7.943 0 0 1-1.569.156z" fill="#fa9f0c"></path><path d="m328 456-56 32-40-80h-88l-32 64H40l-16 16v-64h64l14.93-52.27L104 368v-88H64v56H24v-80a16 16 0 0 1 16-16h216v-56h40v80a16 16 0 0 1-16 16h-64v88h48l40 80z" fill="#4d5e78"></path><path d="m328 456-56 32-40-80h-88l-32 64H40l-16 16v-64h64l14.93-52.27A491.273 491.273 0 0 0 216 305.27V368h48l40 80z" fill="#485870"></path><path d="M208 240h-96v-96h96l24 56h-24z" fill="#fec9a3"></path><path d="M163.984 192a11.985 11.985 0 1 1 11.985-11.984A12 12 0 0 1 163.984 192z" fill="#92563a"></path><path d="M207.814 223.876h-6.224c-12.27 0-24.046-7.107-32.308-19.5l13.312-8.875c5.321 7.981 12.068 12.376 19 12.376h6.224z" fill="#f7ad7c"></path><path d="M64 342.116V336H24v24a24 24 0 1 0 40-17.884zM256 177.884V184h40v-24a24 24 0 1 0-40 17.884z" fill="#fec9a3"></path><path d="m380.52 244.118-22.628-22.628a80 80 0 0 1 22.628-67.882l22.627-22.627 67.882 67.882L448.4 221.49a80 80 0 0 1-67.882 22.628z" fill="#ffb531"></path><path d="m394.067 205.84-15.78-2.641c2.341-13.987 9.837-27.143 22.916-40.221l11.313 11.313c-10.789 10.79-16.652 20.815-18.449 31.549z" fill="#ffc361"></path><path d="m335.258 244.057 22.624 22.624a31.995 31.995 0 0 1 0 45.248l-67.872-67.872a31.995 31.995 0 0 1 45.248 0z" fill="#ffb531"></path><path d="m357.88 221.43 22.624 22.623-22.624 22.624-22.624-22.624z" fill="#fcac1f"></path><path d="M112 184s32-16 40-40h-40z" fill="#92563a"></path><path d="m208 240-40 53.33-7.65 10.21-.35.46-.34-.46-7.66-10.21L112 240z" fill="#e0e0de"></path><path d="M168 239.78v53.55l-7.65 10.21h-.69L152 293.33v-53.55z" fill="#348fd9"></path><path d="M152 328.062h16V344h-16z" fill="#3b495e"></path><path d="M424 88a50.6 50.6 0 0 0 32-32 50.6 50.6 0 0 0 32 32 50.6 50.6 0 0 0-32 32 50.6 50.6 0 0 0-32-32z" fill="#fee97e"></path><path d="M352 32h16v16h-16z" fill="#d6d6d4"></path><path d="M333.151 16.619a252.863 252.863 0 0 0-178.808 74.065l-.113.115-16 16.659 11.54 11.084 15.93-16.586a236.865 236.865 0 0 1 167.451-69.337L368 32V16z" fill="#4d5e78"></path><path d="M208 144h-96a48 48 0 0 1 96 0z" fill="#348fd9"></path><path d="M208 144h-24a48.046 48.046 0 0 0-36-46.49A48.019 48.019 0 0 1 208 144z" fill="#3086cd"></path></g></svg>