<svg viewBox="0 0 93.999 123.997" xmlns="http://www.w3.org/2000/svg"><g><path d="M90.357 70.527c5.96-28.51 1.57-52.39-11.78-59.46-2.25-1.2-5.14-2.11-8.86-2.23-2.7-2.41-7.06-5.66-13.07-7.45-18.64-5.56-42.38 6.13-52.05 25.54-9.95 19.96-.87 40.43.59 43.59l.01-.01v.02l-.01-.01c-3.36 2.67-4.64 7.97-2.82 12.94.91 2.47 2.44 4.47 4.27 5.81v34.73H89.067v-34.86c1.76-1.33 3.22-3.28 4.1-5.68 1.82-4.97.55-10.26-2.81-12.93z" fill="#ffd7d2"></path><path d="M13.017 91.097c-2.2.26-4.45-.42-6.38-1.83-1.83-1.34-3.36-3.34-4.27-5.81-1.82-4.97-.54-10.27 2.82-12.94l.01.01v-.02c.6-.48 1.28-.88 2.01-1.17.54-.21 1.02-.34 1.42-.4.84 8.47 2.37 16.27 4.39 22.16zM90.357 70.527c3.36 2.67 4.63 7.96 2.81 12.93-.88 2.4-2.34 4.35-4.1 5.68v.01c-1.96 1.49-4.28 2.22-6.55 1.95 2.03-5.89 3.56-13.69 4.39-22.16.48.09.95.22 1.42.4.74.3 1.42.7 2.03 1.19z" fill="#fec4b9"></path><path d="M89.067 89.147v34.85h-31.52l-.17-8.86-.01-.02c.42-.14.84-.28 1.25-.44 9.64-3.6 17.5-11.23 21.03-17.13 1.04-1.73 2-3.91 2.87-6.45 2.27.27 4.59-.46 6.55-1.95zM38.207 115.127v.01l-.17 8.86h-31.4v-34.73c1.93 1.41 4.18 2.09 6.38 1.83.87 2.54 1.83 4.72 2.87 6.45 3.48 5.82 11.18 13.33 20.64 16.98.55.22 1.11.42 1.68.6z" fill="#f9b132"></path><path d="M86.907 68.937a55.663 55.663 0 0 1-6.12-13.46c-3.83-12.77-1.19-17.17-5.53-24.43-2.24-3.74-5.73-7.08-9.88-9.32 1.17-1.58 2.38-3.65 3.23-6.22a22.13 22.13 0 0 0 1.11-6.67c3.72.12 6.61 1.03 8.86 2.23 13.35 7.07 17.74 30.95 11.78 59.46a8.08 8.08 0 0 0-2.03-1.19c-.47-.18-.94-.31-1.42-.4z" fill="#ffc05a"></path><path d="M8.637 68.937h-.01c-.4.06-.88.19-1.42.4-.73.29-1.41.69-2.01 1.17l-.01.01c-1.46-3.16-10.54-23.63-.59-43.59 9.67-19.41 33.41-31.1 52.05-25.54 6.01 1.79 10.37 5.04 13.07 7.45a22.13 22.13 0 0 1-1.11 6.67c-.85 2.57-2.06 4.64-3.23 6.22-3.07-1.66-6.51-2.72-10.06-2.89-8.89-.43-15.42 4.84-17.72 6.66-9.05 7.17-8.33 14.19-17.72 28.87-4.21 6.58-8.39 11.48-11.24 14.57z" fill="#ffc05a"></path><g fill="#543927"><path d="M65.677 66.707c.67.68 1.09 1.61 1.09 2.65 0 .17-.01.33-.04.5a3.757 3.757 0 0 1-3.72 3.28 3.775 3.775 0 0 1 0-7.55c1.04 0 1.99.43 2.67 1.12zM32.907 65.587c2.08 0 3.76 1.69 3.76 3.77 0 2.09-1.68 3.78-3.76 3.78-1.92 0-3.51-1.44-3.73-3.3-.03-.16-.04-.32-.04-.48 0-1.04.42-1.97 1.09-2.65.69-.69 1.64-1.12 2.68-1.12z" fill="#543927"></path></g><path d="m57.377 115.137.11 5.65c-9.14 3.71-19.37-1.22-19.37-1.22l.09-4.43v-.01c3.05 1.01 6.26 1.6 9.56 1.6 3.31 0 6.54-.59 9.6-1.61z" fill="#fec4b9"></path><g fill="#543927"><path d="M63.417 68.407c.53.24 1.8.54 3.26.45.82-.05 1.54-.2 2.14-.46.5-.22 1.09.02 1.31.53.22.5-.02 1.09-.53 1.31-.81.35-1.75.56-2.81.62-.2.01-.39.01-.59.01-1.55 0-3.1-.31-3.94-.81-.47-.29-.62-.9-.34-1.38.11-.18.28-.29.46-.38a.974.974 0 0 1-.65-.93c0-.55.44-.99.99-.99.05 0 .13 0 .23.01.45.03 1.38.09 2.13-.48.17-.13.33-.28.46-.45.33-.44.96-.52 1.4-.18s.52.96.18 1.4c-.24.32-.53.6-.85.83-.99.76-2.11.89-2.85.9zM32.477 68.407c-.73-.01-1.84-.14-2.85-.9-.31-.23-.6-.51-.84-.83a.99.99 0 0 1 .18-1.4.99.99 0 0 1 1.4.18c.13.17.29.32.45.45.76.57 1.69.51 2.14.48.1-.01.18-.01.23-.01.55 0 1 .45 1 1 0 .43-.27.79-.65.93.18.08.34.2.45.38.28.47.13 1.09-.35 1.37-.81.48-2.39.79-3.92.79-.2 0-.4 0-.6-.01-1.06-.05-2.04-.26-2.83-.61a.985.985 0 0 1-.5-1.31c.22-.51.81-.74 1.32-.51.55.24 1.28.39 2.12.43 1.4.08 2.71-.19 3.25-.43z" fill="#543927"></path></g><path d="M60.83 53.032c.044-.01 4.435-.738 7.531 1.442a.998.998 0 0 0 1.393-.241 1.001 1.001 0 0 0-.241-1.394c-3.787-2.669-8.819-1.817-9.031-1.777a.998.998 0 0 0-.809 1.157c.095.544.613.903 1.157.813zM26.608 54.657c.199 0 .401-.06.576-.184 3.085-2.182 7.476-1.451 7.52-1.441a1.006 1.006 0 0 0 1.157-.813.998.998 0 0 0-.809-1.157c-.212-.039-5.244-.893-9.022 1.778a1 1 0 0 0 .578 1.817z" fill="#ffc05a"></path><path d="M55.227 73.783c-.029.028-2.948 2.844-7.301 2.844h-.04c-4.214 0-7.15-2.797-7.198-2.844a1 1 0 0 0-1.402 1.427c.142.14 3.53 3.417 8.685 3.417h.049c5.068 0 8.466-3.276 8.608-3.416a1 1 0 1 0-1.401-1.428z" fill="#f48ca7"></path><path d="M12.659 49.024a1.003 1.003 0 0 0-1.294.571 57.02 57.02 0 0 0-2.21 7.079 55.757 55.757 0 0 0-1.119 6.235 1 1 0 1 0 1.985.241 53.614 53.614 0 0 1 1.078-6.007 54.82 54.82 0 0 1 2.131-6.825 1.001 1.001 0 0 0-.571-1.294zM8.231 39.876a1 1 0 1 0-1.908-.598 67.404 67.404 0 0 0-2.72 13.073 66.176 66.176 0 0 0-.313 9.702 1 1 0 0 0 .999.959l.042-.001a.999.999 0 0 0 .958-1.04 64.146 64.146 0 0 1 .305-9.41 65.341 65.341 0 0 1 2.637-12.685zM88.434 54.289a64.432 64.432 0 0 0-2.184-12.262 1 1 0 1 0-1.926.539 62.407 62.407 0 0 1 2.116 11.879c.243 3.099.255 6.24.036 9.338a.999.999 0 0 0 .999 1.07 1 1 0 0 0 .997-.93 64.952 64.952 0 0 0-.038-9.634zM66.415 20.239a.999.999 0 0 0 1.361-.383 23.08 23.08 0 0 0 1.78-4.037c.454-1.378.779-2.804.967-4.24a1 1 0 1 0-1.983-.258 21.202 21.202 0 0 1-.882 3.872 21.177 21.177 0 0 1-1.625 3.685 1 1 0 0 0 .382 1.361z" fill="#f9b132"></path><g fill="#20bab6"><path d="M35.425 107.803a.999.999 0 0 0-.752 1.197c.161.703.305 1.438.43 2.183a1 1 0 0 0 1.972-.33 40.456 40.456 0 0 0-.452-2.298.998.998 0 0 0-1.198-.752zM35.099 105.117a1 1 0 0 0 .528-1.312 54.348 54.348 0 0 0-2.618-5.318 1 1 0 0 0-1.743.98 52.35 52.35 0 0 1 2.521 5.121.999.999 0 0 0 1.312.529zM24.982 88.329a1.001 1.001 0 0 0-1.35 1.476 35.338 35.338 0 0 1 4.308 4.726 1.001 1.001 0 0 0 1.594-1.208 37.332 37.332 0 0 0-4.552-4.994zM15.898 82.034a1 1 0 1 0-.9 1.785 37.03 37.03 0 0 1 4.313 2.552.997.997 0 0 0 1.391-.258 1 1 0 0 0-.257-1.391 39.266 39.266 0 0 0-4.547-2.688zM59.74 107.803a1 1 0 0 0-1.198.752c-.209.92-.396 1.911-.554 2.945a1 1 0 0 0 1.976.303c.151-.987.329-1.931.528-2.803a.999.999 0 0 0-.752-1.197zM63.517 98.105a.998.998 0 0 0-1.361.382 54.359 54.359 0 0 0-2.618 5.318 1 1 0 0 0 1.84.784 52.703 52.703 0 0 1 2.521-5.121 1.002 1.002 0 0 0-.382-1.363zM70.183 88.329a37.447 37.447 0 0 0-4.552 4.993 1 1 0 1 0 1.594 1.208 35.332 35.332 0 0 1 4.308-4.726 1 1 0 1 0-1.35-1.475zM79.267 82.034a39.292 39.292 0 0 0-4.547 2.688 1 1 0 0 0 1.134 1.649 37.113 37.113 0 0 1 4.313-2.552 1 1 0 0 0-.9-1.785z" fill="#20bab6"></path></g></g></svg>