<svg viewBox="0 0 512 512" xmlns="http://www.w3.org/2000/svg"><g><path d="M376 331H271v-45c0-8.401-6.599-15-15-15s-15 6.599-15 15v45H136c-8.401 0-15 6.599-15 15v76H76c-8.291 0-15 6.709-15 15v60c0 8.291 6.709 15 15 15s15-6.709 15-15v-45h90v45c0 8.291 6.709 15 15 15s15-6.709 15-15v-60c0-8.291-6.709-15-15-15h-45v-61h210v76c0 8.399 6.599 15 15 15s15-6.601 15-15v-91c0-8.401-6.599-15-15-15z" fill="#47568c"></path><path d="M436 422h-45v-76c0-8.401-6.599-15-15-15H271v-45c0-8.401-6.599-15-15-15v90h105v61h-45c-8.291 0-15 6.709-15 15v60c0 8.291 6.709 15 15 15s15-6.709 15-15v-45h90v45c0 8.291 6.709 15 15 15s15-6.709 15-15v-60c0-8.291-6.709-15-15-15z" fill="#29376d"></path><path d="M166.117 151H136c-24.814 0-45-20.186-45-45V45c0-8.291 6.709-15 15-15h60c8.291 0 15 6.709 15 15s-6.709 15-15 15h-45v46c0 8.276 6.724 15 15 15h30.117c8.291 0 15 6.709 15 15s-6.709 15-15 15z" fill="#fabe2c"></path><path d="M376 151h-30.117c-8.291 0-15-6.709-15-15s6.709-15 15-15H376c8.276 0 15-6.724 15-15V60h-45c-8.291 0-15-6.709-15-15s6.709-15 15-15h60c8.291 0 15 6.709 15 15v61c0 24.814-20.186 45-45 45z" fill="#ff9100"></path><path d="M322.709 194.418C346.322 182.597 361 158.852 361 132.455V15c0-8.291-6.709-15-15-15H166c-8.291 0-15 6.709-15 15v117.455c0 26.396 14.678 50.142 38.291 61.963C202.68 201.112 211 214.574 211 229.545 211 252.396 192.396 271 169.545 271L196 286h120l26.455-15C319.604 271 301 252.396 301 229.545c0-14.971 8.32-28.433 21.709-35.127z" fill="#fed843"></path><path d="M342.455 271C319.604 271 301 252.396 301 229.545c0-14.971 8.32-28.433 21.709-35.127C346.322 182.597 361 158.852 361 132.455V15c0-8.291-6.709-15-15-15h-90v286h60z" fill="#fabe2c"></path><path d="M256 60c-8.291 0-15 6.709-15 15v61c0 8.291 6.709 15 15 15s15-6.709 15-15V75c0-8.291-6.709-15-15-15z" fill="#fabe2c"></path><path d="M271 136V75c0-8.291-6.709-15-15-15v91c8.291 0 15-6.709 15-15z" fill="#ff9100"></path><path d="M346 271H166c-8.284 0-15 6.714-15 15 0 8.284 6.716 15 15 15h180c8.284 0 15-6.716 15-15 0-8.286-6.716-15-15-15z" fill="#fabe2c"></path><path d="M361 286c0-8.286-6.716-15-15-15h-90v30h90c8.284 0 15-6.716 15-15z" fill="#ff9100"></path><path d="M346 512h-60c-8.291 0-15-6.709-15-15s6.709-15 15-15h60c8.291 0 15 6.709 15 15s-6.709 15-15 15zM466 512h-60c-8.291 0-15-6.709-15-15s6.709-15 15-15h60c8.291 0 15 6.709 15 15s-6.709 15-15 15z" fill="#ff80ac"></path><g fill="#a8ebfa"><path d="M106 512H46c-8.291 0-15-6.709-15-15s6.709-15 15-15h60c8.291 0 15 6.709 15 15s-6.709 15-15 15zM226 512h-60c-8.291 0-15-6.709-15-15s6.709-15 15-15h60c8.291 0 15 6.709 15 15s-6.709 15-15 15z" fill="#a8ebfa"></path></g></g></svg>