<svg viewBox="0 0 58 58" xmlns="http://www.w3.org/2000/svg"><g><g fill="none" fill-rule="nonzero" transform="translate(-1)"><path d="m29.273 2.132 4.918 10.358a3.676 3.676 0 0 0 2.754 2.093l10.91 1.648a3.918 3.918 0 0 1 2.017 6.6l-7.827 7.931a3.987 3.987 0 0 0-1.07 3.444l1.857 11.254a3.706 3.706 0 0 1-5.291 4.088l-9.857-5.386a3.488 3.488 0 0 0-3.368 0l-9.857 5.386a3.706 3.706 0 0 1-5.291-4.088l1.857-11.25a3.987 3.987 0 0 0-1.07-3.444l-7.827-7.931a3.918 3.918 0 0 1 2.017-6.6l10.91-1.648a3.676 3.676 0 0 0 2.754-2.093l4.918-10.362a3.578 3.578 0 0 1 6.546 0z" fill="#f3d55b"></path><path d="M42.05 30.763a4.026 4.026 0 0 0-1.083 3.449l1.866 11.249a3.715 3.715 0 0 1-5.3 4.1l-9.85-5.4a3.549 3.549 0 0 0-3.366 0l-9.85 5.4a3.715 3.715 0 0 1-5.3-4.1l.416-2.483c24.75-14.965 20.9-35.246 18.65-42.195.44.368.793.83 1.034 1.35L34.183 12.5a3.733 3.733 0 0 0 2.767 2.084l10.9 1.649a3.915 3.915 0 0 1 2.017 6.6z" fill="#f0c419"></path><circle cx="43" cy="42" fill="#ff5364" r="16"></circle><g fill="#fff"><path d="M40.707 41.293a1 1 0 0 0-1.414 0L37 43.586l-2.293-2.293a1 1 0 0 0-1.414 1.414L35.586 45l-2.293 2.293a1 1 0 1 0 1.414 1.414L37 46.414l2.293 2.293a1 1 0 0 0 1.414-1.414L38.414 45l2.293-2.293a1 1 0 0 0 0-1.414zM52 47h-6.539a18.734 18.734 0 0 1 2.739-2.5c2.251-1.818 4.8-3.88 4.8-6.5a5 5 0 0 0-10 0 1 1 0 0 0 2 0 3 3 0 0 1 6 0c0 1.666-2.156 3.408-4.059 4.945C44.915 44.583 43 46.13 43 48a1 1 0 0 0 1 1h8a1 1 0 0 0 0-2z" fill="#ffffff"></path></g></g></g></svg>