<svg viewBox="0 0 512 512" xmlns="http://www.w3.org/2000/svg"><g><path d="M404.885 498.122H57.529C25.757 498.122 0 472.366 0 440.593V138.459C0 106.687 25.757 80.93 57.529 80.93h347.356c31.772 0 57.529 25.757 57.529 57.529v302.134c0 31.773-25.757 57.529-57.529 57.529z" fill="#ffe07d"></path><path d="M79.118 498.115H57.536C25.755 498.115 0 472.36 0 440.59V138.46c0-31.771 25.755-57.536 57.536-57.536h21.582c-31.781 0-57.536 25.765-57.536 57.536v302.13c0 31.77 25.755 57.525 57.536 57.525z" fill="#ffd064"></path><path d="M431.508 206.023v234.572c0 14.702-11.918 26.62-26.62 26.62H57.525c-14.702 0-26.62-11.918-26.62-26.62V206.023c0-18.004 14.595-32.599 32.599-32.599h335.405c18.004.001 32.599 14.595 32.599 32.599z" fill="#f1f4f6"></path><path d="M91.089 467.224H57.525c-14.701 0-26.62-11.919-26.62-26.62V206.023c0-17.997 14.598-32.595 32.595-32.595h33.563c-18.008 0-32.595 14.598-32.595 32.595v234.581c.001 14.701 11.92 26.62 26.621 26.62z" fill="#f9f6f9"></path><g fill="#dd5790"><circle cx="49.747" cy="128.206" fill="#dd5790" r="18.842"></circle><circle cx="109.649" cy="128.206" fill="#dd5790" r="18.842"></circle><circle cx="169.551" cy="128.206" fill="#dd5790" r="18.842"></circle></g><path d="M480.707 13.879H259.334c-17.282 0-31.293 14.01-31.293 31.293v173.541c0 17.282 14.01 31.293 31.293 31.293h31.204v32.742c0 11.793 13.134 18.836 22.957 12.309l67.807-45.052h99.405c17.282 0 31.293-14.01 31.293-31.293V45.172c0-17.282-14.01-31.293-31.293-31.293z" fill="#9dc6fb"></path><path d="M293.209 249.999h-33.882c-17.277 0-31.286-14.009-31.286-31.286V45.172c0-17.285 14.009-31.294 31.286-31.294h33.882c-17.285 0-31.294 14.009-31.294 31.294v173.541c0 17.277 14.009 31.286 31.294 31.286z" fill="#80b4fb"></path><path d="M407.96 190.389h-9.418v-62.031c0-8.105-6.57-14.676-14.676-14.676H332.08c-8.467 0-15.33 6.864-15.33 15.33 0 8.467 6.864 15.33 15.33 15.33h13.265v46.046H332.08c-8.467 0-15.33 6.864-15.33 15.33 0 8.467 6.864 15.33 15.33 15.33h75.88c8.467 0 15.33-6.864 15.33-15.33.001-8.466-6.863-15.329-15.33-15.329z" fill="#f9f6f9"></path><path d="M362.81 144.341v46.039h-13.269c-8.468 0-15.329 6.871-15.329 15.339 0 4.224 1.72 8.056 4.492 10.837a15.283 15.283 0 0 0 10.837 4.492H332.08c-4.234 0-8.066-1.72-10.837-4.492a15.278 15.278 0 0 1-4.492-10.837c0-8.468 6.861-15.339 15.329-15.339h13.269v-46.039H332.08c-4.234 0-8.066-1.71-10.837-4.492a15.244 15.244 0 0 1-4.492-10.838c0-8.468 6.861-15.329 15.329-15.329h17.462c-8.468 0-15.329 6.861-15.329 15.329 0 4.234 1.72 8.066 4.492 10.838a15.237 15.237 0 0 0 10.837 4.492z" fill="#dddaec"></path><circle cx="371.944" cy="63.579" fill="#f9f6f9" r="26.599"></circle><path d="M381.062 88.571a26.483 26.483 0 0 1-9.117 1.607c-14.69 0-26.599-11.909-26.599-26.599s11.909-26.599 26.599-26.599c3.204 0 6.274.567 9.117 1.607-10.199 3.719-17.482 13.506-17.482 24.992 0 11.487 7.283 21.273 17.482 24.992z" fill="#dddaec"></path><g fill="#5e54ac"><path d="M244.762 305.95H125.589a7.726 7.726 0 1 1 0-15.452h119.173a7.726 7.726 0 1 1 0 15.452zM244.762 346.436H89.532a7.726 7.726 0 1 1 0-15.452h155.229a7.725 7.725 0 0 1 7.726 7.726 7.725 7.725 0 0 1-7.725 7.726zM244.762 386.922H89.532a7.726 7.726 0 1 1 0-15.452h155.229a7.725 7.725 0 0 1 7.726 7.726 7.725 7.725 0 0 1-7.725 7.726zM193.253 427.408H89.532a7.726 7.726 0 1 1 0-15.452h103.72a7.725 7.725 0 0 1 7.726 7.726 7.725 7.725 0 0 1-7.725 7.726z" fill="#5e54ac"></path></g></g></svg>