<svg viewBox="0 0 512 512" xmlns="http://www.w3.org/2000/svg"><g><path d="m299.832 275.816 63.648 63.649-21.214 21.219-63.653-63.653zm0 0" fill="#384949"></path><path d="m352.871 137.91 42.434-42.43 21.215 21.215-42.43 42.434zm0 0" fill="#3e5959"></path><path d="m405.914 106.082 10.61 10.606-42.434 42.433-10.61-10.605zm0 0" fill="#384949"></path><path d="m172.531 148.516 63.649 63.648-21.215 21.219-63.649-63.653zm0 0" fill="#3e5959"></path><path d="M321.047 84.867 172.53 233.387l106.086 106.082 148.516-148.516zm0 0" fill="#7ca1b1"></path><path d="m278.617 339.473-53.043-53.043L374.09 137.914l53.043 53.043zm0 0" fill="#678d98"></path><path d="m299.828 190.953 21.219-21.219 21.215 21.22-21.215 21.214zM257.395 233.387l21.218-21.219 21.215 21.219-21.215 21.215zm0 0" fill="#4a696f"></path><path d="m108.879 381.902 31.824-31.824 21.215 21.215-31.824 31.824zm0 0" fill="#7ca1b1"></path><g fill="#76e2f8"><path d="M104.813 511.883c-28.22.21-54.528-10.82-74.258-30.555C10.825 461.598-.211 435.29.004 407.07h29.703c0 19.946 8.7 38.828 22.488 52.618 13.793 13.792 32.676 22.492 52.621 22.492zM104.813 452.05c-11.88 0-23.336-4.667-31.825-13.152-8.488-8.488-13.156-19.945-13.156-31.828h30.129c0 3.82 1.7 7.637 4.457 10.399 2.758 2.758 6.578 4.453 10.394 4.453zM384.7 275.816 512 403.113 405.918 509.2l-127.3-127.3zm0 0" fill="#76e2f8"></path></g><path d="m384.7 318.246 84.866 84.867-21.214 21.219-84.868-84.867zM342.266 360.68l84.867 84.867-21.219 21.219-84.863-84.868zm0 0" fill="#00c0f1"></path><path d="m151.316 360.684 10.61 10.609-31.828 31.824-10.606-10.61zm0 0" fill="#678d98"></path><path d="M104.813 452.05c-11.88 0-23.336-4.667-31.825-13.152l21.43-21.43c2.758 2.759 6.578 4.454 10.394 4.454zM104.813 482.18v29.703c-28.22.21-54.528-10.82-74.258-30.555l21.64-21.64c13.793 13.792 32.676 22.492 52.617 22.492zm0 0" fill="#25d9f8"></path><path d="m331.656 180.34 10.61 10.61-21.22 21.214-10.605-10.605zM289.223 222.773l10.609 10.61-21.219 21.215-10.605-10.61zm0 0" fill="#3e5959"></path><path d="m405.918 0-63.652 63.652 106.082 106.082L512 106.086zm0 0" fill="#7ca1b1"></path><path d="m395.305 116.695 63.648-63.648 53.043 53.039-63.648 63.652zm0 0" fill="#678d98"></path><path d="M225.574 286.43c-40.949-40.95-107.57-40.95-148.52 0L66.45 297.035l148.516 148.52 10.61-10.61c40.945-40.949 40.945-107.57 0-148.515zm0 0" fill="#4a696f"></path><path d="m225.574 434.945-10.61 10.61-74.257-74.258 84.867-84.867c40.946 40.945 40.946 107.566 0 148.515zm0 0" fill="#3e5959"></path><path d="M108.883 0 236.18 127.3 130.098 233.384 2.797 106.082zm0 0" fill="#a8ebfa"></path><path d="m108.879 42.434 84.867 84.867-21.215 21.215-84.867-84.868zM66.45 84.867l84.866 84.867-21.218 21.215-84.868-84.867zm0 0" fill="#25d9f8"></path></g></svg>