<svg viewBox="0 0 24 24" xmlns="http://www.w3.org/2000/svg"><g><g><path d="M12 1.25A6.257 6.257 0 0 0 5.75 7.5c0 3.256 5.136 8.45 5.722 9.032a.75.75 0 0 0 1.056 0c.586-.581 5.722-5.776 5.722-9.032A6.257 6.257 0 0 0 12 1.25z" fill="#ef3f65"></path><path d="M12 19.75c-.475 0-.938-.03-1.38-.073-3.218-.36-5.37-1.838-5.37-3.677a2.732 2.732 0 0 1 .969-1.988.75.75 0 0 1 1.023 1.096A1.34 1.34 0 0 0 6.75 16c0 .853 1.505 1.903 4.023 2.185a13.762 13.762 0 0 0 2.465-.001c2.507-.281 4.012-1.331 4.012-2.184a1.34 1.34 0 0 0-.492-.892.75.75 0 0 1 1.023-1.096A2.732 2.732 0 0 1 18.75 16c0 1.84-2.152 3.316-5.357 3.675-.455.044-.918.075-1.393.075z" fill="#1f95f8"></path><path d="M12 22.75c-6.028 0-10.75-2.965-10.75-6.75a5.667 5.667 0 0 1 2.896-4.626.75.75 0 0 1 .827 1.252A4.238 4.238 0 0 0 2.75 16c0 2.846 4.236 5.25 9.25 5.25s9.25-2.404 9.25-5.25a4.238 4.238 0 0 0-2.223-3.374.75.75 0 1 1 .827-1.252A5.667 5.667 0 0 1 22.75 16c0 3.785-4.722 6.75-10.75 6.75z" fill="#1f95f8"></path><circle cx="12" cy="7.5" fill="#f3f5f7" r="2.5"></circle></g></g></svg>