<svg fill-rule="evenodd" viewBox="0 0 2000 2000" xmlns="http://www.w3.org/2000/svg"><g><g fill="#554e56"><path d="M1001 699c-13 0-23-10-23-22V371c0-12 10-22 23-22 12 0 22 10 22 22v306c0 12-10 22-22 22zM1298 721c-6 0-12-2-16-6-9-9-9-24 0-32l173-173c8-9 23-9 32 0 8 9 8 23 0 32l-173 173c-4 4-10 6-16 6zM1638 1019h-201c-12 0-23-10-23-23 0-12 11-23 23-23h201c13 0 23 11 23 23 0 13-10 23-23 23zM1471 1489c-6 0-12-2-16-6l-157-157c-9-9-9-24 0-32 9-9 23-9 32 0l157 156c9 9 9 24 0 33-5 4-10 6-16 6zM1000 1651c-12 0-22-10-22-22v-314c0-12 10-22 22-22 13 0 23 10 23 22v314c0 12-10 22-23 22zM530 1489c-6 0-12-2-16-7-9-9-9-23 0-32l157-156c8-9 23-9 32 0 9 8 9 23 0 32l-157 156c-4 5-10 7-16 7zM564 1018H362c-13 0-23-10-23-22 0-13 10-23 23-23h202c13 0 23 10 23 23 0 12-10 22-23 22zM703 721c-6 0-11-2-16-6L514 541c-9-8-9-23 0-32s23-9 32 0l173 173c9 9 9 24 0 33-4 4-10 6-16 6z" fill="#554e56"></path></g><path d="M1121 1448c69 0 125-54 129-121 11 3 23 5 35 5 76 0 139-62 139-139 0-21-5-41-14-60 33-26 53-66 53-109 0-63-42-116-100-133 17-24 27-52 27-83 0-76-62-138-139-138h-1c-1-70-59-126-129-126-71 0-128 58-128 129v646c0 71 57 129 128 129z" fill="#e93459"></path><g fill="#bd2a48"><path d="M1248 1343c1-5 1-11 2-16 7 2 14 3 21 4-1-5-5-9-10-10-16-4-30-15-39-30-8-15-11-32-6-49 2-7-2-13-9-15s-13 2-15 9c-6 23-3 47 9 67 10 19 27 33 47 40zM1278 673c-8-2-17-3-27-3h-1c0-6-1-11-1-16-40 9-69 44-69 86 0 7 6 13 13 13s12-6 12-13c0-35 29-64 65-64 3 0 6-1 8-3zM993 821v62c0-36 29-65 64-65 7 0 13-5 13-12s-6-13-13-13c-25 0-48 11-64 28zM993 1109v62c16 17 39 28 64 28 7 0 13-6 13-13s-6-12-13-12c-35 0-64-29-64-65zM1208 992c-7-11-18-21-30-28-6-3-13-1-17 5-3 6-1 13 5 17 15 8 25 22 30 38-4 20 0 41 10 60 3 4 7 6 11 6 2 0 5 0 6-1 6-4 9-11 5-17-18-31-7-71 24-88 6-4 8-11 4-17-3-6-11-8-17-5-13 8-23 18-31 30z" fill="#bd2a48"></path></g><path d="M872 1448c-68 0-124-54-129-121-11 3-23 5-35 5-76 0-138-62-138-139 0-21 4-41 13-60-33-26-53-66-53-109 0-63 42-116 100-133-17-24-27-52-27-83 0-76 62-138 139-138h1c2-70 59-126 129-126 71 0 128 58 128 129v646c0 71-57 129-128 129z" fill="#e93459"></path><path d="M745 1343c-1-5-1-11-2-16-6 2-13 3-20 4 0-5 4-9 9-10 16-4 30-15 39-30 8-15 11-32 6-49-2-7 2-13 9-15s14 2 15 9c7 23 3 47-9 67-10 19-27 33-47 40zM715 673c9-2 18-3 27-3h1c0-6 1-11 2-16 39 9 68 44 68 86 0 7-6 13-13 13-6 0-12-6-12-13 0-35-29-64-64-64-4 0-7-1-9-3zM1000 821v62c0-36-28-65-64-65-7 0-12-5-12-12s5-13 12-13c25 0 48 11 64 28zM1000 1109v62c-16 17-39 28-64 28-7 0-12-6-12-13s5-12 12-12c36 0 64-29 64-65zM785 992c8-11 18-21 30-28 6-3 13-1 17 5 3 6 1 13-5 17-15 8-25 22-30 38 4 20 1 41-10 60-3 4-7 6-11 6-2 0-4 0-6-1-6-4-8-11-5-17 18-31 7-71-23-88-6-4-8-11-5-17s11-8 17-5c13 8 24 18 31 30z" fill="#bd2a48"></path><path d="M1001 394c-66 0-119-53-119-119 0-65 53-118 119-118 65 0 118 53 118 118 0 66-53 119-118 119z" fill="#057998"></path><path d="M1539 577c-32 0-62-12-84-35-23-22-35-52-35-84s12-62 35-85c22-22 52-35 84-35s62 13 84 35c23 23 35 53 35 85s-12 62-35 84c-22 23-52 35-84 35z" fill="#8f46da"></path><path d="M1734 1115c-65 0-118-53-118-119 0-65 53-119 118-119 66 0 119 54 119 119 0 66-53 119-119 119z" fill="#5ba3f1"></path><path d="M1539 1653c-32 0-62-12-84-35-46-46-46-121 0-168 22-22 52-34 84-34 31 0 61 12 84 34 22 23 34 53 34 84 0 32-12 62-34 84-23 23-53 35-84 35z" fill="#353185"></path><path d="M1000 1843c-65 0-118-53-118-118 0-66 53-119 118-119 66 0 119 53 119 119 0 65-53 118-119 118z" fill="#ffa721"></path><path d="M462 1653c-32 0-62-12-84-35-22-22-35-52-35-84s13-61 35-84c22-22 52-35 84-35s62 13 84 35c46 47 46 122 0 168-22 23-52 35-84 35z" fill="#ff700d"></path><path d="M266 1114c-66 0-119-53-119-118 0-66 53-119 119-119 65 0 118 53 118 119 0 65-53 118-118 118z" fill="#1aa1ff"></path><path d="M462 576c-31 0-61-12-84-35-22-22-34-52-34-84 0-31 12-61 34-84 23-22 53-34 84-34 32 0 62 12 84 34 23 23 35 53 35 84 0 32-12 62-35 84-22 23-52 35-84 35z" fill="#73b504"></path></g></svg>