<svg viewBox="0 0 512.408 512.408" xmlns="http://www.w3.org/2000/svg"><g><circle cx="361.882" cy="414.34" fill="#f9f3f1" r="94.039"></circle><path d="M428.373 480.835c-36.723 36.723-96.26 36.723-132.983 0a88.751 88.751 0 0 1-3.818-4.065c36.723 26.136 88.005 22.731 120.931-10.195 35.382-35.382 36.672-91.957 3.859-128.887a94.034 94.034 0 0 1 12.011 10.153c36.733 36.724 36.733 96.271 0 132.994z" fill="#efe2dd"></path><path d="M247.792 42.007c18.4-34.802 61.528-48.098 96.33-29.697L474.43 81.205c34.801 18.4 48.097 61.528 29.697 96.33-18.4 34.801-61.528 48.097-96.33 29.697l-130.308-68.896c-34.801-18.399-48.097-61.528-29.697-96.329z" fill="#fec165"></path><path d="M504.13 177.537a55.637 55.637 0 0 1-1.94 3.405c7.708-31.048-6.346-64.5-35.898-80.122l-130.3-68.896c-33.648-17.789-75.066-5.954-94.393 26.291a71.285 71.285 0 0 1 6.191-16.21c18.398-34.804 61.529-48.094 96.332-29.696l130.311 68.896c34.795 18.397 48.095 61.528 29.697 96.332z" fill="#fdb441"></path><path d="m342.643 172.785 66.633-126.027 65.154 34.448c34.801 18.4 48.097 61.528 29.697 96.33-18.4 34.801-61.528 48.097-96.33 29.697z" fill="#6bd9e7"></path><path d="M504.13 177.537c-.341.65-.702 1.29-1.063 1.93-.279.495-.578.991-.877 1.476 7.708-31.048-6.346-64.5-35.898-80.122L399.398 65.45l9.875-18.687 65.161 34.443c34.794 18.396 48.094 61.527 29.696 96.331z" fill="#2ed1e2"></path><path d="M224.561 191.968c28.077 27.594 28.468 72.723.875 100.8l-103.32 105.128c-27.594 28.077-72.723 28.468-100.8.875-28.077-27.594-28.468-72.723-.875-100.8L123.76 192.843c27.594-28.077 72.724-28.469 100.801-.875z" fill="#7acaa6"></path><path d="M21.314 398.774a55.351 55.351 0 0 1-2.707-2.834c27.542 16.274 63.617 12.386 87.046-11.456L208.97 279.363c26.678-27.147 27.196-70.219 1.834-97.968a71.325 71.325 0 0 1 13.759 10.573c28.08 27.592 28.465 72.722.873 100.802l-103.32 105.131c-27.589 28.069-72.722 28.465-100.802.873z" fill="#57be92"></path><path d="m72.101 245.407 101.675 99.925-51.66 52.564c-27.594 28.077-72.723 28.468-100.8.875-28.077-27.594-28.468-72.723-.875-100.8z" fill="#ee6161"></path><path d="M21.314 398.774a69.336 69.336 0 0 1-1.544-1.571 42.201 42.201 0 0 1-1.163-1.263c27.542 16.274 63.617 12.386 87.046-11.456l53.043-53.967 15.077 14.811-51.657 52.572c-27.589 28.07-72.722 28.466-100.802.874z" fill="#e94444"></path><path d="M395.626 455.584a7.476 7.476 0 0 1-5.304-2.197l-67.487-67.488a7.5 7.5 0 0 1 10.607-10.606l67.487 67.488a7.5 7.5 0 0 1-5.303 12.803z" fill="#cdbfba"></path></g></svg>