<svg viewBox="0 0 58 55" xmlns="http://www.w3.org/2000/svg"><g><g fill="none" fill-rule="nonzero"><path d="M56.91 47H44V23.57l5.67-6.86 3.18-3.85 4.46-5.4a2.988 2.988 0 0 0-.4-4.22L53.83.69a3 3 0 0 0-4.23.4l-4.46 5.4-2.01 2.43A6.541 6.541 0 0 0 37 5H7a7 7 0 0 0-7 7v4.59a1 1 0 0 0 1 1h13V47a7 7 0 0 0 7 7h30a7 7 0 0 0 6.91-5.86 1 1 0 0 0-1-1.14z" fill="#a59078"></path><path d="M49.67 16.71 44 23.57l-9.62 11.64-7.71-6.37 15.29-18.5z" fill="#3b97d3"></path><path d="m52.85 12.86-3.18 3.85-7.71-6.37 1.17-1.42 2.01-2.43z" fill="#bdc3c7"></path><path d="m57.31 7.46-4.46 5.4-7.71-6.37 4.46-5.4a3 3 0 0 1 4.23-.4l3.08 2.55a2.988 2.988 0 0 1 .4 4.22z" fill="#ff5364"></path><path d="m28.78 38.37-4.27 2.4a1 1 0 0 1-1.44-1.19l1.56-4.64z" fill="#464f5d"></path><path d="m34.38 35.21-5.6 3.16-4.15-3.43 2.04-6.1z" fill="#fdd7ad"></path><path d="M44 23.57V47H28.93a.984.984 0 0 0-.98.87A7 7 0 0 1 14 47V12a7 7 0 0 0-7-7h30a6.541 6.541 0 0 1 6.13 3.92l-1.17 1.42-15.29 18.5-2.04 6.1-1.56 4.64a1 1 0 0 0 1.44 1.19l4.27-2.4 5.6-3.16z" fill="#f5efca"></path><g fill="#cbb292"><path d="M37 11H19a1 1 0 0 1 0-2h18a1 1 0 0 1 0 2zM32.92 16H19a1 1 0 0 1 0-2h13.92a1 1 0 0 1 0 2zM28.79 21H19a1 1 0 0 1 0-2h9.79a1 1 0 0 1 0 2zM24.66 26H19a1 1 0 0 1 0-2h5.66a1 1 0 0 1 0 2zM39 43H19a1 1 0 0 1 0-2h20a1 1 0 0 1 0 2z" fill="#cbb292"></path></g></g></g></svg>