<svg viewBox="0 0 512.001 512.001" xmlns="http://www.w3.org/2000/svg"><g><path d="M244.153 192.247V43.069c0-8.893 7.209-16.102 16.102-16.102h212.539c8.893 0 16.102 7.209 16.102 16.102v149.178c0 8.893-7.209 16.102-16.102 16.102H260.256c-8.894 0-16.103-7.209-16.103-16.102z" fill="#46738c"></path><path d="M256.591 154.414a8 8 0 0 1-4.957-14.279l65.56-51.694a8 8 0 0 1 9.904 12.562l-65.56 51.694a7.98 7.98 0 0 1-4.947 1.717z" fill="#ff8c46"></path><circle cx="128.289" cy="36.342" fill="#ffb69e" r="34.838"></circle><path d="M152.44 426.88c-11.198 0-20.275-9.078-20.275-20.275V244.544c0-11.198 9.078-20.275 20.275-20.275s20.275 9.078 20.275 20.275v162.061c.001 11.197-9.077 20.275-20.275 20.275z" fill="#343e6b"></path><path d="M103.496 426.88c-11.198 0-20.275-9.078-20.275-20.275V244.544c0-11.198 9.078-20.275 20.275-20.275s20.275 9.078 20.275 20.275v162.061c.001 11.197-9.077 20.275-20.275 20.275z" fill="#414b82"></path><path d="M270.633 137.566c-4.897-7.887-15.259-10.311-23.147-5.415l-34.045 21.138v-31.431c-.109-21.824-18.112-39.58-39.937-39.58h-90.89c-22.28 0-40.497 17.847-40.607 39.783v124.213c0 9.331 7.565 16.896 16.896 16.896s16.896-7.565 16.896-16.896V122.203c.036-3.213 3.275-6.132 6.815-6.132h.608v128.474h89.495V115.899h.788c3.38 0 6.453 2.75 6.47 6.13v61.475c.066 13.163 14.554 21.102 25.676 14.197l59.571-36.986c7.884-4.899 10.307-15.262 5.411-23.149z" fill="#252d5c"></path><path d="M270.633 137.566c-4.897-7.887-15.259-10.311-23.147-5.415l-34.045 21.138v-31.431c-.109-21.824-18.112-39.58-39.937-39.58h-45.541v162.265h44.753V115.897h.788c3.38 0 6.453 2.75 6.47 6.13v61.475c.066 13.163 14.554 21.102 25.676 14.197l59.571-36.986c7.885-4.897 10.308-15.26 5.412-23.147z" fill="#1b224a"></path><path d="M270.633 137.566c-4.897-7.887-15.259-10.311-23.147-5.415l17.733 28.562c7.887-4.897 10.31-15.26 5.414-23.147z" fill="#ffb69e"></path><path d="M236.55 144.676h33.619v7.166H236.55z" fill="#ffffff" transform="rotate(-121.507 253.358 148.256)"></path><path d="M42.001 237.56v8.715c0 9.331 7.565 16.896 16.896 16.896s16.896-7.565 16.896-16.896v-8.715H42.001z" fill="#ffffff"></path><path d="M42.001 245.84v.435c0 9.331 7.565 16.896 16.896 16.896s16.896-7.565 16.896-16.896v-.435H42.001z" fill="#ffb69e"></path><path d="m102.183 82.278 25.78 67.656 25.787-67.656z" fill="#ffffff"></path><path d="m139.176 105.31-5.727-10.416 4.936-8.977c.898-1.633-.285-3.637-2.151-3.637h-16.547c-1.864 0-3.05 2.002-2.151 3.637l4.953 9.007-5.711 10.388a6.96 6.96 0 0 0-.726 4.719l3.523 17.884 8.388 22.021 8.396-22.024 3.543-17.879a6.963 6.963 0 0 0-.726-4.723z" fill="#ff3c3c"></path><path d="M140.443 134.262h22.319v6.883h-22.319z" fill="#252d5c"></path><circle cx="429.114" cy="328.099" fill="#80391b" r="33.992"></circle><path d="M472.996 372.929h-88.05c-21.294 0-38.897 17.324-39.004 38.618v38.035h32.803v-37.871c.016-3.298 2.903-5.981 6.201-5.981h.323v43.851h86.874V405.73h.854c3.298 0 6.184 2.683 6.201 5.981v37.871H512v-38.035c-.107-21.293-17.708-38.618-39.004-38.618z" fill="#80391b"></path><path d="M472.996 372.929H446.11c-10.47 8.301-24.214 7.978-33.761 0h-27.402c-21.294 0-38.897 17.324-39.004 38.618v23.873h32.803v-23.708c.016-3.298 2.903-5.981 6.201-5.981h.323v43.851h86.874v-43.851h.854c3.298 0 6.184 2.683 6.201 5.981v23.708h32.803v-23.873c-.109-21.293-17.71-38.618-39.006-38.618z" fill="#55c7a6"></path><circle cx="256.158" cy="328.099" fill="#ffb69e" r="33.992"></circle><path d="M300.039 372.929h-88.05c-21.294 0-38.897 17.324-39.004 38.618v38.035h32.803v-37.871c.016-3.298 2.903-5.981 6.201-5.981h.323v43.851h86.874V405.73h.854c3.298 0 6.184 2.683 6.201 5.981v37.871h32.803v-38.035c-.107-21.293-17.71-38.618-39.005-38.618z" fill="#ffb69e"></path><path d="M300.039 372.929h-28.227c-10.47 8.301-24.214 7.978-33.761 0H211.99c-21.294 0-38.897 17.324-39.004 38.618v23.873h32.803v-23.708c.016-3.298 2.903-5.981 6.201-5.981h.323v43.851h86.874v-43.851h.854c3.298 0 6.184 2.683 6.201 5.981v23.708h32.803v-23.873c-.108-21.293-17.711-38.618-39.006-38.618z" fill="#252d5c"></path><circle cx="83.162" cy="327.558" fill="#ffb69e" r="33.992"></circle><path d="M127.054 372.387h-88.05C17.71 372.387.107 389.711 0 411.005v38.036h32.803V411.17c.016-3.298 2.903-5.981 6.201-5.981h.323v43.851H126.2v-43.852h.854c3.298 0 6.184 2.683 6.201 5.981v37.871h32.803v-38.036c-.107-21.293-17.71-38.617-39.004-38.617z" fill="#ffb69e"></path><path d="M127.054 372.387H98.826c-10.47 8.301-24.214 7.978-33.761 0H39.004C17.71 372.387.107 389.711 0 411.005v23.873h32.803V411.17c.016-3.298 2.903-5.981 6.201-5.981h.323v43.851H126.2v-43.852h.854c3.298 0 6.184 2.683 6.201 5.981v23.708h32.803v-23.873c-.107-21.293-17.71-38.617-39.004-38.617z" fill="#78beff"></path><circle cx="352.265" cy="389.017" fill="#ffb69e" r="33.992"></circle><path d="M396.153 433.843h-88.05c-21.294 0-38.897 17.324-39.004 38.618v38.035h32.803v-37.871c.016-3.298 2.903-5.981 6.201-5.981h.323v43.851H395.3v-43.851h.854c3.298 0 6.184 2.683 6.201 5.981v37.871h32.803v-38.035c-.109-21.295-17.711-38.618-39.005-38.618z" fill="#ffb69e"></path><path d="M396.153 433.843h-26.886c-10.47 8.301-24.214 7.978-33.761 0h-27.402c-21.294 0-38.897 17.324-39.004 38.618v23.873h32.803v-23.708c.016-3.298 2.903-5.981 6.201-5.981h.323v43.851H395.3v-43.851h.854c3.298 0 6.184 2.683 6.201 5.981v23.708h32.803v-23.873c-.109-21.295-17.711-38.618-39.005-38.618z" fill="#78beff"></path><circle cx="179.308" cy="389.017" fill="#ba6746" r="33.992"></circle><path d="M223.196 433.843h-88.05c-21.294 0-38.897 17.324-39.004 38.618v38.035h32.803v-37.871c.016-3.298 2.903-5.981 6.201-5.981h.323v43.851h86.874v-43.851h.854c3.298 0 6.184 2.683 6.201 5.981v37.871H262.2v-38.035c-.108-21.295-17.709-38.618-39.004-38.618z" fill="#ba6746"></path><path d="M223.196 433.843h-28.227c-10.47 8.301-24.214 7.978-33.761 0h-26.062c-21.294 0-38.897 17.324-39.004 38.618v23.873h32.803v-23.708c.016-3.298 2.903-5.981 6.201-5.981h.323v43.851h86.874v-43.851h.854c3.298 0 6.184 2.683 6.201 5.981v23.708h32.803v-23.873c-.109-21.295-17.71-38.618-39.005-38.618z" fill="#ff3c3c"></path></g></svg>