<svg viewBox="0 0 64 64" xmlns="http://www.w3.org/2000/svg"><g><path d="m22.693 5.271-5-5c-.092-.094-.203-.166-.326-.217s-.252-.078-.383-.078H5.996a1 1 0 1 0 0 2h2.977c1.223.912 2.025 2.357 2.025 3.998 0 1.645-.807 3.092-2.033 4.002H5.996a1 1 0 1 0 0 2h10.938c.016.002.029.01.045.01a.997.997 0 0 0 .707-.293l5.008-5.008a1 1 0 0 0-.001-1.414z" fill="#48cfad"></path><circle cx="5.998" cy="6.486" fill="#ccd1d9" r="5.5"></circle><path d="M.498 5.479h11v1.008h-11z" fill="#ccd1d9"></path><circle cx="5.998" cy="5.479" fill="#e6e9ed" r="5.5"></circle><path d="M6.996 6.484h-2a1 1 0 1 1 0-2h2a1 1 0 1 1 0 2z" fill="#ccd1d9"></path><path d="m32.699 18.281-5-5c-.092-.094-.203-.166-.326-.217s-.252-.078-.383-.078H5.996a1 1 0 1 0 0 2h2.977c1.223.912 2.025 2.357 2.025 3.998 0 1.645-.807 3.092-2.033 4.002H5.996a1 1 0 1 0 0 2h20.943c.016.002.029.01.045.01a.997.997 0 0 0 .707-.293l5.008-5.008a.999.999 0 0 0 0-1.414z" fill="#a0d468"></path><circle cx="5.998" cy="19.496" fill="#ccd1d9" r="5.5"></circle><path d="M.498 18.488h11v1.008h-11z" fill="#ccd1d9"></path><circle cx="5.998" cy="18.488" fill="#e6e9ed" r="5.5"></circle><path d="M6.996 19.494h-2a1 1 0 1 1 0-2h2a1 1 0 1 1 0 2z" fill="#ccd1d9"></path><path d="m42.705 31.291-5-5c-.092-.094-.203-.166-.326-.217s-.252-.078-.383-.078h-31a1 1 0 1 0 0 2h2.977c1.223.912 2.025 2.357 2.025 3.998 0 1.645-.807 3.092-2.033 4.002H5.996a1 1 0 1 0 0 2h30.949c.016.002.029.01.045.01a.997.997 0 0 0 .707-.293l5.008-5.008a.999.999 0 0 0 0-1.414z" fill="#ffce54"></path><circle cx="5.998" cy="32.506" fill="#ccd1d9" r="5.5"></circle><path d="M.498 31.498h11v1.008h-11z" fill="#ccd1d9"></path><circle cx="5.998" cy="31.498" fill="#e6e9ed" r="5.5"></circle><path d="M6.996 32.504h-2a1 1 0 1 1 0-2h2a1 1 0 1 1 0 2z" fill="#ccd1d9"></path><path d="m52.711 44.301-5-5.002a1.006 1.006 0 0 0-.709-.293H5.996a1 1 0 1 0 0 2h2.977c1.223.912 2.025 2.355 2.025 3.996 0 1.645-.807 3.092-2.033 4.004H5.996a1 1 0 1 0 0 2h40.955c.016 0 .029.008.045.008a.997.997 0 0 0 .707-.293l5.008-5.006a.999.999 0 0 0 0-1.414z" fill="#fc6e51"></path><circle cx="5.998" cy="45.514" fill="#ccd1d9" r="5.5"></circle><path d="M.498 44.508h11v1.006h-11z" fill="#ccd1d9"></path><circle cx="5.998" cy="44.508" fill="#e6e9ed" r="5.5"></circle><path d="M6.996 45.512h-2a1 1 0 1 1 0-2h2a1 1 0 1 1 0 2z" fill="#ccd1d9"></path><path d="m63.209 57.309-5-5a.975.975 0 0 0-.326-.217.987.987 0 0 0-.381-.078H5.996a1 1 0 1 0 0 2h2.977c1.223.912 2.025 2.357 2.025 3.998 0 1.645-.807 3.092-2.033 4.002H5.996a1 1 0 1 0 0 2h51.455c.014.002.029.01.045.01a.997.997 0 0 0 .707-.293l5.006-5.008a.999.999 0 0 0 0-1.414z" fill="#ed5565"></path><circle cx="5.998" cy="58.523" fill="#ccd1d9" r="5.5"></circle><path d="M.498 57.516h11v1.008h-11z" fill="#ccd1d9"></path><circle cx="5.998" cy="57.516" fill="#e6e9ed" r="5.5"></circle><path d="M6.996 58.521h-2a1 1 0 1 1 0-2h2a1 1 0 1 1 0 2z" fill="#ccd1d9"></path></g></svg>