<svg viewBox="0 0 512.007 512.007" xmlns="http://www.w3.org/2000/svg"><g><path d="M507.059 427.84 287.584 47.697c-14.037-24.313-49.131-24.313-63.168 0L4.941 427.84c-14.037 24.313 3.509 54.705 31.584 54.705h438.951c28.074 0 45.621-30.392 31.583-54.705z" fill="#e5646e"></path><path d="M507.059 427.84 287.584 47.697c-5.574-9.654-14.449-15.468-24.025-17.455L44.885 408.203c-8.447 14.632-4.786 34.296 10.951 44.506 5.419 3.516 11.907 5.062 18.367 5.062H209.35c3.608 0 7.2 1.078 9.986 3.37 9.976 8.206 22.738 13.146 36.664 13.146 13.926 0 26.688-4.939 36.664-13.146 2.787-2.292 6.378-3.37 9.986-3.37h207.385c3.219-9.383 2.679-20.138-2.976-29.931z" fill="#ff8086"></path><path d="m445.671 420.609-182.52-316.134c-3.179-5.505-11.125-5.505-14.303 0L66.329 420.609c-3.179 5.505.795 12.387 7.152 12.387h135.188c5.543 0 10.524 2.915 13.741 7.429 7.478 10.493 19.723 17.346 33.591 17.346s26.113-6.853 33.591-17.346c3.217-4.514 8.198-7.429 13.741-7.429H438.52c6.357 0 10.33-6.881 7.151-12.387z" fill="#ffffff"></path><circle cx="256" cy="416.48" fill="#e5646e" r="24.774"></circle><path d="M264.681 358.674h-17.363a8.259 8.259 0 0 1-8.247-7.824l-7.389-140.387c-.249-4.725 3.515-8.692 8.247-8.692h32.14c4.731 0 8.495 3.967 8.247 8.692l-7.389 140.387a8.257 8.257 0 0 1-8.246 7.824z" fill="#e5646e"></path><path d="M268.903 428.351c-13.682 0-24.774-11.092-24.774-24.774 0-3.494.795-6.859 2.1-9.874-8.789 3.806-15.004 12.589-15.004 22.777 0 13.682 11.092 24.774 24.774 24.774 10.188 0 18.956-6.188 22.762-14.978-3.014 1.306-6.363 2.075-9.858 2.075zM239.93 201.771c-4.731 0-8.495 3.967-8.246 8.692l7.389 140.387a8.258 8.258 0 0 0 8.246 7.824h9.714l-6.022-156.903H239.93z" fill="#db4655"></path></g></svg>