<svg viewBox="0 0 497 497" xmlns="http://www.w3.org/2000/svg"><g><path d="M328.567 295.452h31.545c17.422 0 31.545 14.123 31.545 31.545 0 17.422-14.123 31.545-31.545 31.545h-31.545l-17.196-31.545z" fill="#e8e8e8"></path><path d="M358.502 358.543v-63.091h-29.935l-17.196 31.546 17.196 31.545z" fill="#e0e0e0"></path><path d="M164.284 107.805C73.552 107.805 0 181.358 0 272.089v177.607a44.635 44.635 0 0 0 20.535 37.57 38.034 38.034 0 0 0 41.071 0 38.034 38.034 0 0 1 41.071 0 38.034 38.034 0 0 0 41.071 0 38.034 38.034 0 0 1 41.071 0 38.034 38.034 0 0 0 41.071 0 38.034 38.034 0 0 1 41.071 0 38.034 38.034 0 0 0 41.071 0 44.635 44.635 0 0 0 20.535-37.57V272.089c0-90.731-73.552-164.284-164.283-164.284z" fill="#e8e8e8"></path><path d="M151.917 366.026h-31.545a7.484 7.484 0 1 1 0-14.968h31.545c13.268 0 24.062-10.794 24.062-24.061s-10.794-24.062-24.062-24.062h-31.545a7.484 7.484 0 1 1 0-14.968h31.545c21.52 0 39.029 17.508 39.029 39.029.001 21.522-17.508 39.03-39.029 39.03z" fill="#e0e0e0"></path><ellipse cx="203.706" cy="246.196" fill="#423e4f" rx="15.519" ry="17.366"></ellipse><path d="M129.36 243.473a7.484 7.484 0 0 1-7.484-7.484v-14.396a7.484 7.484 0 1 1 14.968 0v14.396a7.484 7.484 0 0 1-7.484 7.484zM278.053 243.473a7.484 7.484 0 0 1-7.484-7.484v-14.396a7.484 7.484 0 1 1 14.968 0v14.396a7.485 7.485 0 0 1-7.484 7.484z" fill="#423e4f"></path><g fill="#bc9bdd"><path d="M269.723 42.308a24.091 24.091 0 0 0 4.742-14.375c0-13.355-10.865-24.22-24.22-24.22h-21.127a7.484 7.484 0 0 0-7.484 7.484V83.93a7.484 7.484 0 0 0 7.517 7.484c.002 0 19.429-.086 24.784-.086 14.922 0 27.061-12.14 27.061-27.061 0-9.033-4.452-17.041-11.273-21.959zm-19.478-23.627c5.102 0 9.252 4.151 9.252 9.252s-4.15 9.252-9.252 9.252c-.275 0 2.124-.006-13.643.02V18.681zm3.69 57.679c-3.167 0-11.241.03-17.333.055v-24.22c10.919-.044 6.218-.012 17.333-.023 6.668 0 12.094 5.425 12.094 12.094s-5.426 12.094-12.094 12.094zM330.842 3.714c-24.179 0-43.85 19.671-43.85 43.85s19.671 43.85 43.85 43.85c24.18 0 43.851-19.671 43.851-43.85-.001-24.179-19.672-43.85-43.851-43.85zm0 72.732c-15.926 0-28.882-12.957-28.882-28.882 0-15.926 12.956-28.883 28.882-28.883s28.883 12.957 28.883 28.883-12.957 28.882-28.883 28.882zM427.019 3.714c-24.179 0-43.85 19.671-43.85 43.85s19.671 43.85 43.85 43.85 43.85-19.671 43.85-43.85c-.001-24.179-19.671-43.85-43.85-43.85zm0 72.732c-15.926 0-28.882-12.957-28.882-28.882 0-15.926 12.956-28.883 28.882-28.883s28.882 12.957 28.882 28.883-12.956 28.882-28.882 28.882zM489.446 86.307a6.473 6.473 0 1 0 0 12.946 6.473 6.473 0 0 0 0-12.946zM489.516 3.714a7.484 7.484 0 0 0-7.484 7.484v61.945a7.484 7.484 0 1 0 14.968 0V11.197a7.483 7.483 0 0 0-7.484-7.483z" fill="#bc9bdd"></path></g><path d="M48.265 323.973c0-98.425 29.902-182.471 126.458-215.828-3.453-.216-6.932-.34-10.44-.34C73.552 107.805 0 181.358 0 272.089v177.607a44.636 44.636 0 0 0 20.535 37.57 38.034 38.034 0 0 0 41.071 0 38.034 38.034 0 0 1 41.071 0c5.905 3.788 12.597 5.765 19.332 5.978-45.36-42.211-73.744-102.422-73.744-169.271z" fill="#e0e0e0"></path></g></svg>