<svg viewBox="0 0 497 497" xmlns="http://www.w3.org/2000/svg"><g><path d="M171.08 24.326C202.951 7.295 241.891 0 282.058 0c40.976 0 75.166 8.874 102.771 24.087v110H171.08z" fill="#df646e"></path><path d="M93.41 178.9c-1.914 9.255-6.124 17.175-14.587 22.788-37.911 25.141-53.362 28.953-55.322 42.951-1.996 14.257 29.912 39.572 29.912 39.572l-8.966 32.722a17.03 17.03 0 0 0-.405 1.961l14.692 19.58c7.534 44.026 15.925 70.505 25.515 85.51 11.729 7.561 27.946 10.745 43.918 10.745h80V482l166.407 7v-49.623c0-40.832 14.706-81.489 36.084-122.644V178.9z" fill="#eef9fa"></path><path d="M410.658 316.733v27.923c-15.664 26.331-28.084 53.518-28.084 87.722v64.623H208.167v-15h151.907a7.5 7.5 0 0 0 7.5-7.5v-42.123c0-40.832 15.215-70.908 33.204-100.012 3.228-5.224 6.546-10.416 9.88-15.633zM214.04 425.896a7.5 7.5 0 0 0-8.833-5.872c-20.555 4.14-54.296 8.113-78.255 8.113-15.972 0-30.87-1.934-42.702-4.153 5.649 8.84 11.714 13.7 18.265 15.814 30.926 9.978 105.654-5.068 105.654-5.068a7.503 7.503 0 0 0 5.871-8.834zM98.287 341.535a7.501 7.501 0 0 0-5.251-9.216l-48.994-13.426c-1.276 8.406 3.906 16.624 12.308 18.926l32.722 8.966a7.494 7.494 0 0 0 9.215-5.25z" fill="#dcf2f6"></path><path d="M406.778 338.366c25.924-41.943 69.849-103.961 51.801-155.067-13.675-9.999-35.454-22.381-59.465-22.381-50.936 0-92.227 41.292-92.227 92.227 0 22.412 7.997 42.955 21.29 58.937 17.651 18.094 42.525 27.29 64.937 27.29 4.643 0 9.205-.344 13.664-1.006z" fill="#f6c4c8"></path><path d="M458.579 183.299c-.202 67.191-31.877 107.124-57.801 149.067a92.997 92.997 0 0 1-13.664 1.006c-22.412 0-42.955-7.997-58.937-21.29 16.917 20.339 42.414 33.29 70.937 33.29 3.91 0 7.763-.244 11.545-.716 25.571-42.984 59.785-83.687 62.726-148.909 0 0-5.547-5.678-14.806-12.448z" fill="#e6989e"></path><path d="M362.954 190.145c0-23.963-7.964-47.964-28.921-68.92-17.011-14.301-38.957-22.921-62.92-22.921-54.036 0-97.84 43.805-97.84 97.84 0 23.963 8.619 45.909 22.92 62.92 19.478 19.478 44.957 28.921 68.92 28.921 54.036 0 97.841-43.804 97.841-97.84z" fill="#87a0af"></path><path d="M334.033 121.226c14.301 17.011 22.921 38.957 22.921 62.92 0 54.036-43.805 97.84-97.84 97.84-23.963 0-45.909-8.62-62.92-22.921 17.948 21.348 44.847 34.921 74.92 34.921 54.036 0 97.84-43.805 97.84-97.84 0-30.074-13.572-56.973-34.921-74.92z" fill="#607882"></path><path d="M466.566 190.765c.015-1.028.022-2.063.022-3.104 0-67.014-21.663-121.078-81.761-163.569-39.21 12.753-67.554 49.591-67.554 93.054 0 23.963 8.619 45.909 22.92 62.92 16.76 18.425 43.957 27.921 67.92 27.921 20.589-.002 42.692-6.361 58.453-17.222z" fill="#bae6ef"></path><path d="m384.832 24.089-.005.002c46.959 39.831 73.761 91.555 73.761 158.569 0 1.041-.007 2.076-.022 3.104-15.761 10.861-34.864 17.221-55.452 17.221-23.963 0-45.909-8.62-62.92-22.921 17.948 21.348 44.847 34.921 74.92 34.921 21.833 0 41.993-7.154 58.271-19.242.134-2.978.203-6.007.203-9.09 0-66.772-28.897-129.573-88.756-162.564z" fill="#94d8e6"></path><path d="M313.503 205.761h-4.89l-7.5 2.998-7.5-2.998h-15l-7.499 3-7.501-3h-15l-7.5 3-7.5-3h-4.889c-9.726 0-17.611 7.885-17.611 17.611 0 8.284 6.716 15 15 15h7.499l7.5-3 7.5 3h15l7.501-3 7.499 3h15l7.5-3 7.5 3h7.501c8.284 0 15-6.716 15-15 .001-9.726-7.884-17.611-17.61-17.611z" fill="#eef9fa"></path><g fill="#bae6ef"><path d="M233.613 205.761h15v32.611h-15zM263.613 205.761h15v32.611h-15zM293.613 205.761h15v32.611h-15z" fill="#bae6ef"></path></g><path d="M264.954 116.145c0-23.963-8.684-48.683-28.921-68.92-17.011-14.301-38.957-22.921-62.92-22.921-.679 0-1.357.007-2.034.021C125.814 48.514 94.81 92.344 94.81 162.812c0 5.652-.364 11.066-1.402 16.088a98.22 98.22 0 0 0 4.796 6.174c19.317 19.317 44.951 28.911 68.908 28.911 54.037 0 97.842-43.804 97.842-97.84z" fill="#ffe07d"></path><path d="M236.033 47.226c14.301 17.011 22.921 38.957 22.921 62.92 0 54.036-43.805 97.84-97.84 97.84-23.957 0-45.899-8.616-62.908-22.911 17.948 21.342 44.841 34.911 74.908 34.911 54.036 0 97.84-43.805 97.84-97.84 0-30.074-13.572-56.973-34.921-74.92z" fill="#ffc250"></path><circle cx="397.628" cy="310.83" fill="#df646e" r="8"></circle><path d="M397.628 292.33a7.499 7.499 0 0 1-7.5-7.5v-9.685c0-4.143 3.357-7.5 7.5-7.5a7.428 7.428 0 0 0 5.438-2.34 7.45 7.45 0 0 0 2.051-5.569c-.198-3.832-3.487-7.012-7.331-7.09-3.814-.109-7.062 2.693-7.586 6.443a7.72 7.72 0 0 0-.072 1.056c0 4.143-3.357 7.5-7.5 7.5s-7.5-3.357-7.5-7.5c0-1.038.072-2.088.215-3.121 1.554-11.126 11.092-19.379 22.286-19.379.153 0 .306.001.46.005 11.733.236 21.401 9.596 22.009 21.309.323 6.233-1.861 12.155-6.153 16.675a22.555 22.555 0 0 1-8.816 5.715v3.481a7.501 7.501 0 0 1-7.501 7.5z" fill="#df646e"></path><path d="M304.114 183.261h-9a7.499 7.499 0 0 1-7.5-7.5v-25.213c0-4.143 3.357-7.5 7.5-7.5s7.5 3.357 7.5 7.5v17.713h1.5c4.143 0 7.5 3.357 7.5 7.5s-3.357 7.5-7.5 7.5z" fill="#495959"></path><path d="M444.014 178.565a7.481 7.481 0 0 1-5.304-2.196c-17.93-17.93-47.103-17.93-65.032 0a7.5 7.5 0 0 1-10.607-10.607c11.52-11.519 26.834-17.862 43.124-17.862 16.289 0 31.604 6.344 43.123 17.862a7.5 7.5 0 0 1-5.304 12.803z" fill="#6bbdd5"></path><path d="M173.114 177.485c-24.432 0-45.546-16.561-51.347-40.272a7.5 7.5 0 0 1 5.503-9.067 7.498 7.498 0 0 1 9.067 5.503c4.153 16.979 19.276 28.837 36.776 28.837 17.499 0 32.622-11.858 36.775-28.837a7.5 7.5 0 0 1 14.57 3.564c-5.799 23.712-26.912 40.272-51.344 40.272z" fill="#b46e5a"></path><path d="M419.291 133.969c-.001 0-.001 0 0 0-6.785-.001-13.146-2.74-17.911-7.716a7.5 7.5 0 0 1 .229-10.604 7.499 7.499 0 0 1 10.604.229c1.909 1.993 4.423 3.091 7.078 3.091 2.656 0 5.171-1.098 7.08-3.092a7.5 7.5 0 0 1 10.832 10.376c-4.767 4.976-11.128 7.716-17.912 7.716zM365.645 133.969c-.001 0-.001 0 0 0-6.785-.001-13.146-2.74-17.911-7.716a7.5 7.5 0 0 1 .229-10.604 7.499 7.499 0 0 1 10.604.229c1.909 1.993 4.423 3.091 7.078 3.091 2.656 0 5.171-1.098 7.08-3.092a7.5 7.5 0 0 1 10.832 10.376c-4.766 4.976-11.127 7.716-17.912 7.716z" fill="#6bbdd5"></path><path d="M188.114 127.485a7.499 7.499 0 0 1-7.5-7.5V94.772c0-4.143 3.357-7.5 7.5-7.5s7.5 3.357 7.5 7.5v25.213c0 4.143-3.357 7.5-7.5 7.5zM158.114 127.485a7.499 7.499 0 0 1-7.5-7.5V94.772c0-4.143 3.357-7.5 7.5-7.5s7.5 3.357 7.5 7.5v25.213c0 4.143-3.357 7.5-7.5 7.5z" fill="#b46e5a"></path><path d="M305.468 61.356a7.48 7.48 0 0 1-5.304-2.196l-7.561-7.562-7.561 7.562a7.5 7.5 0 0 1-10.607-10.607l7.562-7.561-7.562-7.561a7.5 7.5 0 0 1 10.607-10.607l7.561 7.562 7.561-7.562a7.501 7.501 0 0 1 10.607 10.607l-7.562 7.561 7.562 7.561a7.5 7.5 0 0 1-5.303 12.803z" fill="#915041"></path></g></svg>