<svg viewBox="0 0 512 512" xmlns="http://www.w3.org/2000/svg"><g><g fill="#756e78"><path d="M224.873 106.171h31.933l-3.378 3.378c-5.058 5.058-5.349 13.362-.313 18.443a12.838 12.838 0 0 0 9.149 3.814c3.296 0 6.592-1.257 9.107-3.772l25.635-25.636c5.03-5.03 5.03-13.184 0-18.214l-25.635-25.636c-5.175-5.176-13.661-5.025-18.644.451-4.667 5.129-4.216 13.117.688 18.021l3.391 3.392h-31.933c-7.113 0-12.879 5.766-12.879 12.879 0 7.114 5.766 12.88 12.879 12.88zM310.378 175.157l-114.619 114.62V285c0-7.153-5.666-13.23-12.82-13.263a12.836 12.836 0 0 0-9.166 3.772 12.837 12.837 0 0 0-3.772 9.107v36.254c0 7.113 5.766 12.879 12.879 12.879h36.254c7.319 0 13.213-6.106 12.864-13.502-.327-6.927-6.294-12.256-13.229-12.256h-4.796l114.619-114.619c5.03-5.03 5.03-13.184 0-18.214-5.03-5.03-13.184-5.03-18.214-.001zM224.873 431.587h31.933l-3.378 3.378c-5.058 5.058-5.349 13.362-.313 18.443a12.838 12.838 0 0 0 9.149 3.814c3.296 0 6.592-1.257 9.107-3.772l25.635-25.636c5.03-5.03 5.03-13.184 0-18.214l-25.635-25.636c-5.175-5.176-13.661-5.025-18.644.451-4.667 5.129-4.216 13.117.688 18.021l3.391 3.392h-31.933c-7.113 0-12.879 5.766-12.879 12.879 0 7.114 5.766 12.88 12.879 12.88z" fill="#756e78"></path></g><circle cx="415.057" cy="93.291" fill="#ffe07d" r="93.291"></circle><path d="M431.504 185.135a93.188 93.188 0 0 1-16.445 1.449c-51.523 0-93.293-41.77-93.293-93.293S363.536.008 415.059.008c5.612 0 11.111.493 16.445 1.449-43.681 7.76-76.859 45.922-76.859 91.834s33.178 84.084 76.859 91.844z" fill="#ffd064"></path><circle cx="415.057" cy="418.707" fill="#df75a5" r="93.291"></circle><path d="M431.504 510.551A93.188 93.188 0 0 1 415.059 512c-51.523 0-93.293-41.77-93.293-93.293s41.77-93.283 93.293-93.283c5.612 0 11.111.493 16.445 1.449-43.681 7.76-76.859 45.922-76.859 91.834s33.178 84.084 76.859 91.844z" fill="#dd5790"></path><circle cx="96.943" cy="93.291" fill="#95d6a4" r="93.291"></circle><path d="M113.39 185.135a93.188 93.188 0 0 1-16.445 1.449c-51.524 0-93.293-41.77-93.293-93.293S45.421.008 96.945.008c5.612 0 11.111.493 16.445 1.449-43.681 7.76-76.859 45.922-76.859 91.834s33.177 84.084 76.859 91.844z" fill="#78c2a4"></path><circle cx="96.943" cy="418.707" fill="#9dc6fb" r="93.291"></circle><path d="M113.39 510.551A93.188 93.188 0 0 1 96.945 512c-51.524 0-93.293-41.77-93.293-93.293s41.769-93.283 93.293-93.283c5.612 0 11.111.493 16.445 1.449-43.681 7.76-76.859 45.922-76.859 91.834s33.177 84.084 76.859 91.844z" fill="#80b4fb"></path><path d="M122.365 52.575c-4.012 0-7.521 2.12-9.494 5.294a40.452 40.452 0 0 0-20.04-5.294c-22.451 0-40.716 18.265-40.716 40.717 0 22.451 18.265 40.716 40.716 40.716a40.452 40.452 0 0 0 20.04-5.294c1.973 3.174 5.482 5.294 9.494 5.294 6.176 0 11.183-5.007 11.183-11.183V63.758c0-6.176-5.007-11.183-11.183-11.183zm-29.533 59.068c-10.119 0-18.351-8.232-18.351-18.351s8.232-18.351 18.351-18.351 18.351 8.232 18.351 18.351-8.232 18.351-18.351 18.351zM420.196 60.033a41.613 41.613 0 0 0-18.876 4.513V44.013c0-6.353-5.15-11.502-11.502-11.502-6.353 0-11.502 5.15-11.502 11.502v88.279c0 6.353 5.15 11.502 11.502 11.502 4.127 0 7.736-2.181 9.765-5.446a41.61 41.61 0 0 0 20.613 5.446c23.093 0 41.88-18.788 41.88-41.88.001-23.094-18.787-41.881-41.88-41.881zm0 60.756c-10.408 0-18.876-8.468-18.876-18.876s8.467-18.876 18.876-18.876 18.876 8.468 18.876 18.876-8.468 18.876-18.876 18.876zM368.038 432.469c0 23.093 18.787 41.88 41.88 41.88a41.603 41.603 0 0 0 20.613-5.446c2.029 3.265 5.638 5.446 9.765 5.446 6.353 0 11.502-5.15 11.502-11.502v-88.279c0-6.353-5.15-11.502-11.502-11.502-6.353 0-11.502 5.15-11.502 11.502v20.533a41.61 41.61 0 0 0-18.876-4.513c-23.093.001-41.88 18.788-41.88 41.881zm23.005 0c0-10.408 8.467-18.876 18.876-18.876s18.876 8.468 18.876 18.876-8.467 18.876-18.876 18.876-18.876-8.468-18.876-18.876zM101.601 462.642c-11.255 0-22.511-4.284-31.08-12.854-17.138-17.138-17.138-45.023 0-62.16 17.138-17.138 45.022-17.137 62.16 0 4.715 4.714 4.715 12.358 0 17.072-4.714 4.714-12.358 4.714-17.072 0-7.723-7.723-20.291-7.725-28.016 0-7.724 7.724-7.724 20.292 0 28.016 7.725 7.725 20.293 7.724 28.016 0 4.714-4.715 12.358-4.715 17.072 0 4.715 4.714 4.715 12.358 0 17.072-8.568 8.569-19.824 12.854-31.08 12.854z" fill="#756e78"></path></g></svg>