<svg viewBox="0 0 512 512" xmlns="http://www.w3.org/2000/svg"><g><path d="m484.864 13.573-84.188 29.902c-14.741 5.236-18.286 24.467-6.381 34.615l16.069 13.697-53.852 63.181-82.542-76.445a23.56 23.56 0 0 0-35.836 4.562l-84.782 132.12-73.827-67.564c-9.598-8.784-24.5-8.124-33.285 1.475-8.785 9.598-8.124 24.5 1.474 33.284l94.457 86.443a23.56 23.56 0 0 0 35.732-4.656l84.692-131.978 79.912 74.01a23.56 23.56 0 0 0 33.938-2.003l69.778-81.864 16.074 13.701c11.906 10.148 30.333 3.601 33.167-11.784l16.186-87.865c2.834-15.384-12.046-28.067-26.786-22.831z" fill="#b3e59f"></path><path d="M512 254.229c0 66.354-25.25 126.815-66.663 172.308a261.15 261.15 0 0 1-10.755 11.116c-34.944 34.017-79.561 58.143-129.329 67.838a255.722 255.722 0 0 1-43.463 4.667c-1.926.051-3.853.072-5.79.072s-3.863-.021-5.79-.072a255.61 255.61 0 0 1-43.463-4.667c-49.768-9.694-94.385-33.821-129.329-67.838a261.15 261.15 0 0 1-10.755-11.116C25.25 381.045 0 320.583 0 254.229z" fill="#80b4fb"></path><path d="M318.4 502.559c-19.968 5.008-40.862 7.66-62.387 7.66C114.617 510.219 0 395.614 0 254.232h124.775c0 119.883 82.381 220.493 193.625 248.327z" fill="#61a2f9"></path><path d="M370.824 372.638c8.138-36.417 12.445-76.707 12.445-118.409h-15.453c0 39.435-3.935 77.49-11.384 111.97-31.853-13.135-65.612-19.81-100.432-19.81s-68.579 6.676-100.432 19.81c-7.448-34.48-11.384-72.535-11.384-111.97h-15.453c0 41.702 4.306 81.992 12.445 118.409-27.805 13.454-52.838 31.534-74.513 53.899a261.15 261.15 0 0 0 10.755 11.116l.093-.103c19.687-20.367 42.31-36.973 67.394-49.521 5.295 20.232 11.827 39.085 19.522 56.072 12.146 26.826 26.517 47.522 42.32 61.389a255.722 255.722 0 0 0 43.463 4.667c-12.115-1.473-24.024-7.613-35.469-18.306-13.485-12.599-25.682-30.802-36.231-54.115-7.685-16.967-14.165-35.902-19.357-56.279 30.648-13.011 63.222-19.614 96.847-19.614s66.199 6.603 96.847 19.604c-5.192 20.387-11.672 39.322-19.357 56.289-10.549 23.313-22.746 41.516-36.231 54.115-11.445 10.693-23.354 16.833-35.469 18.306a255.61 255.61 0 0 0 43.463-4.667c15.803-13.867 30.174-34.563 42.32-61.389 7.695-16.987 14.227-35.84 19.522-56.072 25.074 12.547 47.708 29.154 67.394 49.521l.093.103a261.15 261.15 0 0 0 10.755-11.116c-21.675-22.365-46.708-40.445-74.513-53.899z" fill="#5490f9"></path><circle cx="176.403" cy="80.405" fill="#f6e266" r="78.631"></circle><g fill="#ffd064"><path d="M195.496 156.711a78.772 78.772 0 0 1-19.091 2.328c-43.43 0-78.634-35.204-78.634-78.634s35.204-78.634 78.634-78.634c6.59 0 12.981.804 19.091 2.328-34.216 8.522-59.558 39.451-59.558 76.306s25.342 67.783 59.558 76.306z" fill="#ffd064"></path><path d="M187.208 72.66c-7.453-2.634-15.699-5.82-20.354-9.47-1.606-1.259-2.284-3.975-1.729-6.92.554-2.943 2.538-6.507 6.441-7.683 8.941-2.692 14.844 1.93 15.488 2.465a7.727 7.727 0 0 0 9.884-11.878c-1.296-1.078-6.067-4.689-13.312-6.206v-3.704a7.726 7.726 0 1 0-15.452 0v4.231c-.353.095-.706.188-1.064.296-8.81 2.654-15.389 10.171-17.17 19.617-1.636 8.681 1.191 17.088 7.378 21.941 5.17 4.054 12.338 7.496 24.741 11.88 8.631 3.051 8.442 10.049 7.96 12.916-.969 5.764-5.817 11.992-14.172 12.047-8.031.063-10.548-.345-16.744-4.399a7.727 7.727 0 0 0-8.46 12.932c6.642 4.345 11.502 6.052 17.531 6.644v4.175a7.726 7.726 0 1 0 15.452 0v-4.914c12.13-3.222 19.903-13.642 21.631-23.923 2.246-13.361-5.007-25.437-18.049-30.047z" fill="#ffd064"></path></g></g></svg>