<svg viewBox="0 0 60 60" xmlns="http://www.w3.org/2000/svg"><g><path d="M56.77 22.32c-2.07 2.57-4.85 6.68-5.46 9.14-.48 1.96 0 3.62-.9 5.42a2.285 2.285 0 0 1-2.31 1.1 3.327 3.327 0 0 1-1.8-.8 1.492 1.492 0 0 0-.02.21c-.14 1.41-.21 3.44-.28 5.31-.06 1.96-.1 3.74-.18 4.42a6.89 6.89 0 0 1-.98 2.88c-1.39 2.29-9.44 9-12.14 9h-5.4c-2.67 0-10.76-6.7-12.14-9a6.89 6.89 0 0 1-.98-2.88c-.15-1.34-.18-7.91-.49-9.86a.22.22 0 0 0-.01-.08 3.389 3.389 0 0 1-1.75.8 2.309 2.309 0 0 1-2.34-1.1c-.9-1.8-.42-3.46-.9-5.42-.61-2.46-3.39-6.57-5.46-9.14a.994.994 0 0 1 1.05-1.58 57.739 57.739 0 0 1 6.93 2.39c.17.05.32.11.47.17a24.656 24.656 0 0 1-.07-11.08L19 10h22l7.39 2.22a24.656 24.656 0 0 1-.07 11.08c.15-.06.3-.12.47-.17a57.739 57.739 0 0 1 6.93-2.39.994.994 0 0 1 1.05 1.58z" fill="#e25463"></path><path d="M44.73 5.71C41.9 2.94 37.3 1 30 1S18.11 2.93 15.27 5.72L23 11s3.6 0 5.68 2.36a1.685 1.685 0 0 0 2.64 0C33.4 11 37 11 37 11z" fill="#424852"></path><path d="M48.39 12.22a15.061 15.061 0 0 1-3.9 3.52 2.023 2.023 0 0 1-1.02.3A7.408 7.408 0 0 1 38.1 14a4.032 4.032 0 0 1-1.1-3 8.648 8.648 0 0 1 .59-2.84 2.008 2.008 0 0 1 1.6-1.29 36.84 36.84 0 0 0 5.54-1.16c3.01-.89 6.13-2.35 7.16-4.71h.07a18.25 18.25 0 0 1-3.57 11.22zM23 11a4.032 4.032 0 0 1-1.1 3 7.408 7.408 0 0 1-5.37 2.04 2.023 2.023 0 0 1-1.02-.3 15.061 15.061 0 0 1-3.9-3.52A18.25 18.25 0 0 1 8.04 1h.07c1.03 2.36 4.15 3.82 7.16 4.72a37.878 37.878 0 0 0 5.54 1.15 2.008 2.008 0 0 1 1.6 1.29A8.853 8.853 0 0 1 23 11z" fill="#d04452"></path><path d="M41 43.323a6.721 6.721 0 0 1-.99 3.5C38.36 49.546 35.234 53 30 53s-8.36-3.454-10.01-6.18a6.721 6.721 0 0 1-.99-3.5 6.594 6.594 0 0 1 .422-2.32s.962 4 10.578 4 10.578-4 10.578-4A6.571 6.571 0 0 1 41 43.323zM25.831 26.61v.02a4.856 4.856 0 0 1-4.73 3.35c-2.04-.19-4.366-2.47-4.071-4.6.206-1.58 1.952-2.49 3.345-2.86zM34.169 26.61v.02a4.856 4.856 0 0 0 4.73 3.35c2.04-.19 4.366-2.47 4.071-4.6-.206-1.58-3.355-2.91-3.355-2.91z" fill="#ffffff"></path><circle cx="22" cy="26" fill="#d04452" r="2"></circle><circle cx="38" cy="26" fill="#d04452" r="2"></circle><circle cx="22" cy="26" fill="#424852" r="1"></circle><g fill="#d04452"><path d="M13.69 37.26a.22.22 0 0 0-.01-.08 3.389 3.389 0 0 1-1.75.8 166.5 166.5 0 0 0-.57-2.1A7.829 7.829 0 0 1 11 34a1 1 0 0 1 2 0 7.343 7.343 0 0 0 .29 1.37c.12.47.26 1 .39 1.59a.764.764 0 0 1 .01.3zM48.98 34.21a7.987 7.987 0 0 1-.36 1.89c-.04.16-.26.94-.52 1.88a3.327 3.327 0 0 1-1.8-.8q.2-.885.39-1.59a7.574 7.574 0 0 0 .29-1.38 1 1 0 0 1 2 0zM30 39a4.7 4.7 0 0 1-3.9-2.553 1 1 0 1 1 1.789-.894A2.724 2.724 0 0 0 30 37a2.708 2.708 0 0 0 2.1-1.447 1 1 0 0 1 1.79.894A4.691 4.691 0 0 1 30 39z" fill="#d04452"></path></g><path d="M27 27.8h-.08a5.235 5.235 0 0 1-4.487-2.63 3.329 3.329 0 0 0-1.768-1.547l-3.789-1.273a1 1 0 0 1 .637-1.9l3.787 1.272a5.244 5.244 0 0 1 2.773 2.3 3.306 3.306 0 0 0 3 1.779 1 1 0 0 1-.078 2zM33 27.8a1 1 0 0 1-.078-2 3.307 3.307 0 0 0 3-1.778 5.233 5.233 0 0 1 2.773-2.3l3.789-1.274a1 1 0 0 1 .637 1.9l-3.789 1.273a3.335 3.335 0 0 0-1.769 1.547 5.234 5.234 0 0 1-4.486 2.63z" fill="#424852"></path><path d="M30 50a9.7 9.7 0 0 1-3.347-.515 1 1 0 1 1 .694-1.875A7.685 7.685 0 0 0 30 48a7.69 7.69 0 0 0 2.653-.39 1 1 0 1 1 .694 1.875A9.7 9.7 0 0 1 30 50z" fill="#dbdfe2"></path><path d="M33 42a1 1 0 0 1-.593-1.806 23.98 23.98 0 0 1 6.293-3.148 1 1 0 1 1 .6 1.908 22.118 22.118 0 0 0-5.709 2.852A1 1 0 0 1 33 42zM27 42a.994.994 0 0 1-.59-.193 22.269 22.269 0 0 0-5.71-2.853 1 1 0 0 1 .6-1.908 23.98 23.98 0 0 1 6.291 3.148A1 1 0 0 1 27 42z" fill="#424852"></path><path d="M14.254 9.354a.99.99 0 0 1 1.314.085A18.605 18.605 0 0 0 17.6 11.2a1 1 0 0 1-1.2 1.6 20.775 20.775 0 0 1-2.252-1.953 1 1 0 0 1 .105-1.494M43 13a1 1 0 0 1-.6-1.8 9.579 9.579 0 0 0 2.02-2.016 1.025 1.025 0 0 1 1.4-.249.975.975 0 0 1 .263 1.359A11.69 11.69 0 0 1 43.6 12.8a.992.992 0 0 1-.6.2z" fill="#e25463"></path><circle cx="38" cy="26" fill="#424852" r="1"></circle></g></svg>