<svg viewBox="0 0 512 512" xmlns="http://www.w3.org/2000/svg"><g><circle cx="256" cy="256" fill="#ff6e80" r="256"></circle><path d="M230.245 486.245c0-14.201 11.553-25.755 25.755-25.755V51.509c-14.201 0-25.755-11.553-25.755-25.755S241.799 0 256 0C114.615 0 0 114.615 0 256s114.615 256 256 256c-14.201 0-25.755-11.553-25.755-25.755z" fill="#f9475e"></path><path d="M460.491 256c0-94.978-65.094-175.023-153.008-197.909-87.841 0-183.861 102.948-183.861 197.909s96.02 197.909 183.861 197.909C395.397 431.024 460.491 350.978 460.491 256z" fill="#f2f6fc"></path><path d="M154.527 256c0-94.971 65.079-175.023 152.982-197.916A204.146 204.146 0 0 0 256 51.509C143.243 51.509 51.509 143.243 51.509 256S143.243 460.491 256 460.491c17.786 0 35.047-2.287 51.509-6.575C219.606 431.023 154.527 350.971 154.527 256z" fill="#dce1eb"></path><path d="M332.373 374.255c-37.414 0-67.853-30.439-67.853-67.853v-71.959c0-37.414 30.438-67.853 67.853-67.853s67.853 30.438 67.853 67.853v71.959c-.001 37.414-30.439 67.853-67.853 67.853zm0-161.95c-12.207 0-22.138 9.931-22.138 22.138v71.959c0 12.207 9.931 22.139 22.138 22.139s22.138-9.931 22.138-22.139v-71.959c0-12.207-9.931-22.138-22.138-22.138z" fill="#515181"></path><path d="M309.515 351.398c0-12.624 10.234-22.857 22.857-22.857-12.207 0-22.138-9.931-22.138-22.139v-71.959c0-12.207 9.931-22.138 22.138-22.138-12.624 0-22.857-10.234-22.857-22.857 0-12.624 10.234-22.857 22.857-22.857-37.414 0-67.853 30.438-67.853 67.853v71.959c0 37.414 30.438 67.853 67.853 67.853-12.623-.001-22.857-10.235-22.857-22.858z" fill="#41416b"></path><path d="M230.234 230.607c0-34.557-28.115-62.672-62.672-62.672-19.071 0-36.873 8.527-48.839 23.394-7.915 9.834-6.36 24.222 3.474 32.138 9.833 7.915 24.221 6.361 32.138-3.474a16.905 16.905 0 0 1 13.227-6.343c9.351 0 16.958 7.607 16.958 16.957 0 9.351-7.607 16.958-16.958 16.958-12.624 0-22.857 10.233-22.857 22.857s10.233 22.857 22.857 22.857c9.351 0 16.958 7.607 16.958 16.958 0 9.35-7.607 16.957-16.958 16.957a16.982 16.982 0 0 1-14.038-7.437c-7.109-10.433-21.328-13.128-31.76-6.02-10.433 7.108-13.127 21.328-6.02 31.76a62.663 62.663 0 0 0 51.817 27.411c34.558 0 62.672-28.115 62.672-62.672 0-15.107-5.373-28.981-14.308-39.815 8.936-10.832 14.309-24.707 14.309-39.814z" fill="#515181"></path><path d="M192.424 348.604c-10.343-5.408-14.936-17.449-11.343-28.173-3.098 4.099-7.997 6.764-13.52 6.764a16.982 16.982 0 0 1-14.038-7.437c-7.109-10.433-21.328-13.128-31.76-6.02-10.433 7.108-13.127 21.328-6.02 31.76a62.663 62.663 0 0 0 51.817 27.411c22.285 0 41.878-11.701 52.992-29.273-6.995 7.661-18.5 10.002-28.128 4.968zM122.197 223.467c9.833 7.915 24.221 6.361 32.138-3.474a16.905 16.905 0 0 1 13.227-6.343c5.522 0 10.421 2.665 13.52 6.764-3.593-10.724 1-22.766 11.343-28.173 9.628-5.034 21.133-2.693 28.13 4.968-11.115-17.572-30.707-29.273-52.992-29.273-19.071 0-36.873 8.527-48.839 23.394-7.916 9.834-6.361 24.222 3.473 32.137z" fill="#41416b"></path><path d="M191.627 133.303a7.5 7.5 0 0 1-7.499-7.45l-.083-12.377a7.501 7.501 0 0 1 7.45-7.55h.051a7.5 7.5 0 0 1 7.499 7.45l.083 12.377a7.501 7.501 0 0 1-7.45 7.55h-.051zM320.453 132.443a7.5 7.5 0 0 1-7.499-7.45l-.083-12.377a7.501 7.501 0 0 1 7.45-7.55h.051a7.5 7.5 0 0 1 7.499 7.45l.083 12.377a7.501 7.501 0 0 1-7.45 7.55h-.051zM255.939 140.241a30.023 30.023 0 0 1-22.503-10.158 7.5 7.5 0 0 1 .656-10.586 7.5 7.5 0 0 1 10.586.656c2.883 3.263 7.02 5.145 11.362 5.088a15.028 15.028 0 0 0 11.294-5.239 7.5 7.5 0 0 1 10.577-.797 7.5 7.5 0 0 1 .797 10.577 30.026 30.026 0 0 1-22.568 10.46l-.201-.001z" fill="#495560"></path></g></svg>