<svg viewBox="0 0 128 128" xmlns="http://www.w3.org/2000/svg"><g><path d="M27.09 72.82a3.5 3.5 0 0 0 3.172-2.02l6.269-13.433 5.821 13.351a3.5 3.5 0 0 0 3.208 2.1h4.548l5.649 21.258a3.5 3.5 0 0 0 3.382 2.6h.088a3.5 3.5 0 0 0 3.336-2.77l9.073-42.564 4.126 18.728a3.5 3.5 0 0 0 3.418 2.75h10.64a3.5 3.5 0 0 0 3.231-2.152l2.129-5.1 2.02 5.054a3.5 3.5 0 0 0 3.25 2.2h10.41a3.5 3.5 0 1 0 0-7h-8.04L98.5 55.011a3.5 3.5 0 0 0-3.224-2.2 3.558 3.558 0 0 0-3.257 2.152L87.488 65.82h-5.5L75 34.067a3.5 3.5 0 0 0-3.42-2.747h-.012a3.5 3.5 0 0 0-3.411 2.771l-9.391 44.054-2.583-9.723a3.5 3.5 0 0 0-3.383-2.6h-4.948l-8-18.358a3.5 3.5 0 0 0-3.163-2.1h-.049a3.5 3.5 0 0 0-3.172 2.02L24.861 65.82H17.14a3.5 3.5 0 0 0 0 7z" fill="#ea6e7a"></path><g fill="#ce6f74"><path d="M17.145 69.324a4.921 4.921 0 1 0-4.921 4.921 4.921 4.921 0 0 0 4.921-4.921zM120.7 69.324a4.921 4.921 0 1 0-4.921 4.921 4.921 4.921 0 0 0 4.921-4.921z" fill="#ce6f74"></path></g></g></svg>