<svg viewBox="0 0 458.326 458.326" xmlns="http://www.w3.org/2000/svg"><g><path d="m41.189 224.21 30.334-55.223h317.341l30.334 55.223-14.522 18.411-300.741 5.182-56.519-15.036zM53.637 273.212H406.75v185.114H53.637z" fill="#dbd8dd"></path><path d="M41.189 224.21h378.003v59.89H41.189z" fill="#bbbbcd"></path><path d="M88.246 320.269h283.895v101.888H88.246z" fill="#eeefee"></path><g fill="#575b6d"><path d="M115.802 350.915h12.856c13.787 0 20.681 6.692 20.681 20.077 0 13.679-6.894 20.518-20.681 20.518h-12.856zm5.371 35.772h7.372a14.595 14.595 0 0 0 12.045-4.114 18.444 18.444 0 0 0 3.214-11.592 17.604 17.604 0 0 0-3.197-11.274 14.85 14.85 0 0 0-12.062-3.974h-7.367zM174.35 350.222a18.32 18.32 0 0 1 13.973 5.763c7.237 8.865 7.237 21.597 0 30.462-7.736 7.673-20.211 7.673-27.947 0-7.274-8.847-7.274-21.604 0-30.451a18.446 18.446 0 0 1 13.974-5.774zm-.056 37.387a12.855 12.855 0 0 0 9.983-4.321 20.708 20.708 0 0 0 0-24.152 12.694 12.694 0 0 0-9.888-4.321 12.943 12.943 0 0 0-10.061 4.321 20.569 20.569 0 0 0 0 24.135 12.795 12.795 0 0 0 9.966 4.338zM232.753 391.511h-5.511l-21.268-32.044v32.044h-5.097v-40.595h5.483l21.268 32.044v-32.044h5.125zM275.182 391.511h-6.064l-4.706-12.352h-17.008l-4.471 12.352h-5.69l15.594-40.601h5.791zm-12.352-16.618-7.143-18.853-6.813 18.831zM308.523 355.733h-13.414v35.772h-5.399v-35.772h-13.336v-4.818h32.15v4.818zM344.585 391.511h-30.272v-40.595h29.327v4.818h-23.939v12.408h22.402v4.818h-22.402v13.739h24.895zM338.308 195.436a7.825 7.825 0 0 1-7.87 7.78H132.681a7.825 7.825 0 0 1-7.881-7.769v-.011a7.824 7.824 0 0 1 7.869-7.78h197.757a7.825 7.825 0 0 1 7.882 7.78z" fill="#575b6d"></path></g><path d="m254.138 114.58-9.424-50.863a24.671 24.671 0 0 0-18.115-19.406C183.388 33.188 112.795 23.004 95.775 27.588L81.718 88.662s30.395 34.302 67.508 34.76c5.57.021 11.117.723 16.517 2.09a34.523 34.523 0 0 1 11.453 5.399l35.191 25.381c4.909 3.532 11.737 2.519 15.41-2.286a11.179 11.179 0 0 0-.117-13.683l-28.958-36.666c-3.655-4.626-2.868-11.34 1.758-14.995a10.675 10.675 0 0 1 16.486 4.291l12.012 29.003z" fill="#fed19a"></path><path d="m111.777 14.212-27.723 94.98a2.961 2.961 0 0 1-3.655 2.012l-39.126-11.179a2.963 2.963 0 0 1-2.029-3.665l.022-.074 29.685-94.22A2.962 2.962 0 0 1 72.573.11l37.164 10.413a2.962 2.962 0 0 1 2.04 3.689z" fill="#575b6d"></path><circle cx="84.054" cy="27.727" fill="#bbbbcd" r="9.871"></circle><path d="M296.338 159.854a61.2 61.2 0 0 1-17.998 43.357h-89.368a61.327 61.327 0 0 1-17.981-43.357 60.6 60.6 0 0 1 6.998-28.372 62.119 62.119 0 0 1 23.274-24.593 63.343 63.343 0 0 1 50.248-6.344c26.462 7.612 44.725 31.775 44.827 59.309z" fill="#f6c863"></path><path d="M283.93 159.854a51.424 51.424 0 0 1-23.704 43.368h-55.782c-23.963-15.403-30.902-47.314-15.5-71.277a51.575 51.575 0 0 1 18.457-17.264 51.6 51.6 0 0 1 46.392-1.71 51.547 51.547 0 0 1 30.137 46.883z" fill="#eab54e"></path><path d="M276.457 159.854c.001 21.256-15.158 39.489-36.057 43.368h-16.114c-23.968-4.498-39.752-27.574-35.255-51.542a44.182 44.182 0 0 1 3.116-9.941v-.034a44.287 44.287 0 0 1 19.971-21.033 43.53 43.53 0 0 1 14.437-4.544 44.433 44.433 0 0 1 5.785-.43c4.085-.006 8.15.57 12.073 1.71h.034c18.961 5.398 32.033 22.731 32.01 42.446z" fill="#f6c863"></path><path d="M260.124 157.384c-.62-7.603-6.905-13.497-14.532-13.627-7.87 0-12.012 5.696-15.617 14.901-2.739 6.707-5.785 10.206-10.765 10.206-5.165 0-8.865-4.326-8.865-10.732a17.685 17.685 0 0 1 .252-3.175 23.702 23.702 0 0 1 3.639-9.86l-6.064-2.146a22.82 22.82 0 0 0-3.264 7.903v.034a28.606 28.606 0 0 0-.715 5.88h-4.572v5.696h4.852c.749 7.975 7.362 14.12 15.371 14.281 8.06 0 12.755-4.701 16.55-13.973 3.236-7.87 5.589-11.179 10.296-11.179 3.611 0 7.78 2.616 7.78 9.58a21.798 21.798 0 0 1-3.08 11.386l5.975 2.236a23.905 23.905 0 0 0 3.141-11.738h4.667v-5.673z" fill="#eab54e"></path><path d="m212.386 156.299-35.163-25.381a34.378 34.378 0 0 0-11.453-5.399 67.548 67.548 0 0 0-16.517-2.085c-1.677 0-3.354-.106-19.63-34.028l52.216-25.152c14.795 35.716 15.516 37.683 16.897 39.427l28.947 36.677c3.748 4.906 2.808 11.922-2.098 15.669a11.177 11.177 0 0 1-13.199.272z" fill="#fed19a"></path></g></svg>