<svg fill-rule="evenodd" viewBox="0 0 96 96" xmlns="http://www.w3.org/2000/svg"><g><g fill="#3b3b3b"><path d="M31.248 42.723c-8.288-7.765-17.636-10.5-28.268-7.136a1.404 1.404 0 0 0 .847 2.676c9.598-3.037 18.02-.501 25.502 6.509.565.529 1.454.5 1.984-.065.529-.565.5-1.454-.065-1.984zM33.914 31.93 17.061 15.076a1.404 1.404 0 0 0-1.985 1.985L31.93 33.914a1.403 1.403 0 1 0 1.984-1.984zM44.772 29.329c-7.01-7.482-9.546-15.904-6.509-25.502a1.403 1.403 0 0 0-2.676-.847c-3.364 10.632-.629 19.98 7.136 28.268.53.565 1.419.594 1.984.065.565-.53.594-1.419.065-1.984z" fill="#3b3b3b"></path></g><path d="m33.861 40.175-5.473 5.473 14.246 14.247 5.474-5.474z" fill="#ff6455"></path><path d="m45.648 28.388-5.473 5.473 14.246 14.247 5.474-5.474z" fill="#5583fd"></path><path d="m36.963 28.881-8.082 8.082 18.342 18.342 8.082-8.082z" fill="#f3b725"></path><path d="M57.706 36.997 36.997 57.706l13.038 13.037 20.708-20.708z" fill="#ebebeb"></path><path d="M67.57 42.784 42.784 67.57 69.214 94 94 69.214z" fill="#4f4f4f"></path><path d="m67.258 53.023 21.466 21.466 1.985-1.984-21.466-21.467a1.404 1.404 0 0 0-1.985 1.985z" fill="#3b3b3b"></path></g></svg>