<svg viewBox="0 0 512 512" xmlns="http://www.w3.org/2000/svg"><g><path d="M479.116 146.779H32.886a5.126 5.126 0 0 1-5.129-5.129V90.685a5.126 5.126 0 0 1 5.129-5.129h446.23a5.126 5.126 0 0 1 5.129 5.129v50.965a5.126 5.126 0 0 1-5.129 5.129zM38.015 136.521h435.971V95.814H38.015z" fill="#474747"></path><path d="M479.116 197.739H32.886a5.126 5.126 0 0 1-5.129-5.129v-50.96a5.126 5.126 0 0 1 5.129-5.129h446.23a5.126 5.126 0 0 1 5.129 5.129v50.96a5.126 5.126 0 0 1-5.129 5.129zM38.015 187.481h435.971v-40.702H38.015z" fill="#474747"></path><path d="M479.116 248.7H32.886a5.126 5.126 0 0 1-5.129-5.129v-50.96a5.126 5.126 0 0 1 5.129-5.129h446.23a5.126 5.126 0 0 1 5.129 5.129v50.96a5.126 5.126 0 0 1-5.129 5.129zM38.015 238.441h435.971v-40.702H38.015z" fill="#474747"></path><path d="M479.116 299.665H32.886a5.126 5.126 0 0 1-5.129-5.129v-50.965a5.126 5.126 0 0 1 5.129-5.129h446.23a5.126 5.126 0 0 1 5.129 5.129v50.965a5.126 5.126 0 0 1-5.129 5.129zM38.015 289.407h435.971V248.7H38.015z" fill="#474747"></path><path d="M50.812 76.188v377.563H14.933V76.188c0-9.908 8.032-17.939 17.939-17.939 9.908 0 17.94 8.032 17.94 17.939zM497.067 76.188v377.563h-35.879V76.188c0-9.908 8.032-17.939 17.939-17.939 9.908 0 17.94 8.032 17.94 17.939z" fill="#f78721"></path><path d="M50.837 76.174v377.552H14.933V383.97c15.387-52.624 23.645-108.275 23.645-165.875 0-52.828-6.924-104.017-20.003-152.743a17.928 17.928 0 0 1 14.31-7.079c4.924 0 9.438 2 12.669 5.232a17.75 17.75 0 0 1 5.283 12.669zM497.067 76.174v377.552h-35.904V383.97c15.387-52.624 23.645-108.275 23.645-165.875 0-52.828-6.924-104.017-20.003-152.743a17.928 17.928 0 0 1 14.31-7.079c4.924 0 9.438 2 12.669 5.232a17.754 17.754 0 0 1 5.283 12.669z" fill="#000000" opacity=".1"></path><path d="M96.318 299.665a5.126 5.126 0 0 1-5.129-5.129V90.685c0-2.835 2.294-5.129 5.129-5.129s5.129 2.294 5.129 5.129v203.851a5.126 5.126 0 0 1-5.129 5.129zM149.547 299.665a5.126 5.126 0 0 1-5.129-5.129V90.685c0-2.835 2.294-5.129 5.129-5.129s5.129 2.294 5.129 5.129v203.851a5.125 5.125 0 0 1-5.129 5.129zM202.772 299.665a5.126 5.126 0 0 1-5.129-5.129V90.685c0-2.835 2.294-5.129 5.129-5.129s5.129 2.294 5.129 5.129v203.851a5.126 5.126 0 0 1-5.129 5.129zM256.001 299.665a5.126 5.126 0 0 1-5.129-5.129V90.685c0-2.835 2.294-5.129 5.129-5.129s5.129 2.294 5.129 5.129v203.851a5.126 5.126 0 0 1-5.129 5.129zM309.225 299.665a5.126 5.126 0 0 1-5.129-5.129V90.685c0-2.835 2.294-5.129 5.129-5.129s5.129 2.294 5.129 5.129v203.851a5.126 5.126 0 0 1-5.129 5.129zM362.454 299.665a5.126 5.126 0 0 1-5.129-5.129V90.685c0-2.835 2.294-5.129 5.129-5.129s5.129 2.294 5.129 5.129v203.851a5.126 5.126 0 0 1-5.129 5.129zM415.683 299.665a5.126 5.126 0 0 1-5.129-5.129V90.685c0-2.835 2.294-5.129 5.129-5.129s5.129 2.294 5.129 5.129v203.851a5.126 5.126 0 0 1-5.129 5.129z" fill="#474747"></path></g></svg>