<svg viewBox="0 0 512 512" xmlns="http://www.w3.org/2000/svg"><g><path d="M387.585 81.061c-31.641-25.389-69.243-43.884-111.759-54.968-33.612-8.763-70.335-12.914-109.175-12.379-23.752.336-45.299 2.381-63.234 4.886-8.642 1.207-15.065 8.601-15.065 17.327 0 10.617 9.375 18.803 19.889 17.328 16.98-2.382 37.472-4.34 59.926-4.607 35.567-.406 69.045 3.427 99.501 11.438 37.517 9.869 70.558 26.141 98.203 48.364 83.845 67.399 120.569 190.077 109.152 364.627-.627 9.58 6.522 18.013 16.097 18.721.452.033.902.052 1.349.052 9.131 0 16.816-7.092 17.422-16.334 12.245-186.794-28.905-319.508-122.306-394.455z" fill="#3ad1e0"></path><path d="M113.116 300.925a7.724 7.724 0 0 1-4.841-1.703c-.454-.365-11.256-9.074-22.357-20.507-16.022-16.499-24.093-29.68-24.673-40.298-.313-5.728 1.553-10.791 5.397-14.641 8.502-8.515 16.359-8.233 21.453-6.504 22.285 7.578 30.65 59.27 32.682 74.933a7.724 7.724 0 0 1-7.661 8.72zM82.4 231.787c-1.276 0-2.893.974-4.823 2.906-.487.487-.997 1.152-.903 2.877.451 8.272 12.259 22.636 25.048 35.136-5.258-23.703-12.86-38.851-18.603-40.804a2.211 2.211 0 0 0-.719-.115z" fill="#e5d8d3"></path><path d="M122.635 293.839a7.725 7.725 0 0 1-7.726-7.726V10.928a7.725 7.725 0 0 1 7.726-7.726 7.725 7.725 0 0 1 7.726 7.726v275.184a7.726 7.726 0 0 1-7.726 7.727z" fill="#efe2dd"></path><path d="M59.214 311.491c-8.589 0-15.281-1.395-20.212-4.189-4.991-2.828-8.246-7.131-9.412-12.446-2.58-11.752 1.894-18.216 6.103-21.57 18.406-14.669 66.439 6.185 80.72 12.927a7.726 7.726 0 0 1-.84 14.312c-.553.185-13.714 4.578-29.33 7.756-10.524 2.138-19.504 3.21-27.029 3.21zm-5.456-28.012c-3.985 0-6.868.642-8.435 1.89-1.127.898-1.342 2.975-.641 6.172.148.672.432 1.461 1.935 2.314 7.208 4.085 25.673 1.896 43.099-2.126-15.268-5.603-27.874-8.25-35.958-8.25z" fill="#efe2dd"></path><path d="M302.132 195.635c-9.302 16.112-25.246 25.999-42.381 28.199-6.674-15.936-6.091-34.691 3.216-50.811 8.582-14.865 22.814-24.425 38.414-27.534a4.716 4.716 0 0 1 5.402 3.121c5.097 15.065 3.927 32.167-4.651 47.025z" fill="#6bc94d"></path><path d="M313.162 206.665c-16.112 9.302-25.999 25.246-28.199 42.381 15.936 6.674 34.691 6.091 50.811-3.216 14.865-8.582 24.425-22.814 27.534-38.414a4.716 4.716 0 0 0-3.121-5.402c-15.065-5.097-32.167-3.927-47.025 4.651z" fill="#4ba72d"></path><path d="M277.531 197.746c-5.516 20.586-20.227 36.252-38.534 43.767-12.109-15.654-17.025-36.58-11.506-57.175 5.159-19.253 18.358-34.196 35.016-42.184a4.635 4.635 0 0 1 5.808 1.558c10.42 15.252 14.372 34.79 9.216 54.034z" fill="#6bc94d"></path><path d="M239.001 241.514a65.855 65.855 0 0 1-8.643-14.823 65.345 65.345 0 0 0 25.413-36.532c3.915-14.625 2.575-29.408-2.872-42.355a66.122 66.122 0 0 1 9.607-5.645c2.047-.99 4.529-.317 5.81 1.558 10.419 15.252 14.374 34.789 9.211 54.029-5.507 20.587-20.224 36.255-38.526 43.768z" fill="#4ba72d"></path><path d="M324.465 281.299c-20.586 5.516-41.509.609-57.17-11.488 7.503-18.314 23.167-33.034 43.762-38.552 19.253-5.159 38.794-1.199 54.04 9.233a4.634 4.634 0 0 1 1.554 5.809c-7.998 16.65-22.942 29.841-42.186 34.998z" fill="#6bc94d"></path><path d="M324.464 281.301c-20.58 5.513-41.504.607-57.172-11.495a65.917 65.917 0 0 1 6.688-12.353c12.915 5.401 27.652 6.708 42.21 2.806 15.701-4.199 28.543-13.766 37.08-26.186a65.634 65.634 0 0 1 11.825 6.424 4.619 4.619 0 0 1 1.552 5.804c-7.995 16.645-22.936 29.844-42.183 35z" fill="#4ba72d"></path><path d="M318.052 230.152c-18.44 18.44-42.552 27.104-64.903 25.513-1.607-22.35 7.05-46.469 25.498-64.918 17.22-17.22 39.38-25.909 60.424-25.676a4.71 4.71 0 0 1 4.669 4.672c.219 21.043-8.476 43.197-25.688 60.409z" fill="#99d980"></path><path d="M318.053 230.151c-18.441 18.441-42.554 27.104-64.903 25.512-.456-6.306-.086-12.763 1.083-19.187 16.335-2.984 32.491-11.178 45.729-24.416 13.232-13.232 21.425-29.388 24.403-45.716a77.623 77.623 0 0 1 14.704-1.274 4.718 4.718 0 0 1 4.675 4.675c.218 21.042-8.478 43.193-25.691 60.406z" fill="#6bc94d"></path><path d="M251.053 363.467c-72.344 72.344-221.337 166.541-246.8 141.078s68.734-174.455 141.078-246.8 95.44-40.645 120.903-15.182 57.163 48.56-15.181 120.904z" fill="#fca62f"></path><path d="M232.045 381.432a623.582 623.582 0 0 1-16.407 14.216c-28.792-4.238-57.656-19.658-84.381-45.22-15.79-15.111-27.126-30.14-33.113-38.78a778.543 778.543 0 0 1 10.132-12.611c4.279 6.48 16.119 23.34 33.668 40.138 22.137 21.18 53.356 42.257 89.946 42.257z" fill="#fb9927"></path><path d="M251.051 363.471C178.712 435.81 29.711 530.007 4.249 504.545.157 500.453-.838 493.176.658 483.534c49.099-5.832 166.401-83.348 228.039-144.986 49.401-49.401 50.288-75.84 37.775-95.752 25.418 25.366 56.699 48.554-15.421 120.675z" fill="#fb9927"></path><path d="M214.533 305.196c-1.514 1.514-3.492 2.266-5.47 2.266s-3.956-.752-5.46-2.266c-27.805-27.805-39.425-49.871-43.968-60.976 4.399-3.925 8.602-7.407 12.609-10.487 1.422 4.595 9.838 28.093 42.289 60.533a7.747 7.747 0 0 1 0 10.93zM154.274 413.583a7.695 7.695 0 0 1-4.504-1.454c-31.231-22.452-47.968-47.687-48.665-48.751a7.725 7.725 0 0 1 2.224-10.697c3.566-2.341 8.356-1.344 10.697 2.222.325.49 16.137 24.1 44.764 44.678a7.727 7.727 0 0 1-4.516 14.002zM106.498 448.206a7.706 7.706 0 0 1-6.325 3.286 7.73 7.73 0 0 1-4.44-1.401c-29.947-21.026-45.822-44.154-53.435-58.298a706.864 706.864 0 0 1 9.704-15.463c3.678 8.654 17.616 36.541 52.611 61.11a7.73 7.73 0 0 1 1.885 10.766z" fill="#ed8620"></path><path d="M242.159 387.817c-33.696 0-68.069-15.853-99.448-45.874-23.464-22.449-36.958-44.7-37.521-45.636a7.726 7.726 0 0 1 13.242-7.966c.581.962 51.576 84.023 123.716 84.023.181 0 .335-.005.532-.001a7.726 7.726 0 0 1 .039 15.453l-.56.001z" fill="#efe2dd"></path><path d="M509.891 475.513c-.602 9.249-8.296 16.342-17.425 16.342-.441 0-.893-.02-1.344-.06-4.916-.361-9.199-2.759-12.108-6.31 4.444-2.939 7.504-7.845 7.875-13.563 12.369-188.636-29.182-322.649-123.51-398.338-24.467-19.632-52.466-35.181-83.514-46.407 40.869 11.185 77.083 29.303 107.72 53.88 93.405 74.947 134.555 207.666 122.306 394.456z" fill="#22c7db"></path></g></svg>