<svg viewBox="0 0 512 512" xmlns="http://www.w3.org/2000/svg"><g><path d="m510.173 180.8-53.59 98.44c-2.83 5.22-8.48 8.26-14.4 7.78a15.006 15.006 0 0 1-12.94-10.03l-8.26-23.76c-11.1 7.08-25.03 17.51-38.67 31.95-21.81 23.1-61.711 77.74-75.921 126.05-4.402 16.382-29.879 12.579-29.39-4.28l.5-150.99c.01-3.14 1-6.19 2.84-8.73 9.49-13.15 19.97-25.59 31.13-36.97 27.87-28.44 55.831-46.31 77.281-57.19l-8.82-27.87c-1.83-5.78 0-12.09 4.63-16 4.63-3.9 11.15-4.64 16.54-1.86l102.771 52.96a15 15 0 0 1 7.47 8.92c1.179 3.86.759 8.04-1.171 11.58z" fill="#6680ff"></path><path d="m256 0 40.798 212.195L256 424.39l-51.501-72.62V112h-24.5c-5.96 0-11.36-3.53-13.75-9a15.007 15.007 0 0 1 2.75-16.2L245 4.8A15 15 0 0 1 256 0z" fill="#ff4d4d"></path><path d="M345.751 103c-2.39 5.47-7.79 9-13.75 9h-24.5l-.32 384.55L256 424.39V0a15 15 0 0 1 11 4.8l76.001 82a15.007 15.007 0 0 1 2.75 16.2z" fill="#e62e2e"></path><path d="m256 286.17 27.265 176.905L256 512h-36.5c-8.28 0-15-6.72-15-15 0-9.97-.41-19.07-1.27-27.82-3.55-36.55-11.27-70.62-22.94-101.27-12.31-32.38-29.34-60.21-50.611-82.73-13.64-14.44-27.56-24.87-38.66-31.95l-8.26 23.76a15.006 15.006 0 0 1-12.94 10.03c-5.91.48-11.57-2.56-14.4-7.78L1.827 180.8a15.03 15.03 0 0 1-1.17-11.58 15 15 0 0 1 7.47-8.92l102.771-52.96a14.996 14.996 0 0 1 16.54 1.86 15.012 15.012 0 0 1 4.63 16l-8.82 27.87c21.45 10.88 49.41 28.75 77.281 57.19 11.16 11.38 21.64 23.82 31.13 36.97 8.851 12.23 16.981 25.24 24.341 38.94z" fill="#ffc34d"></path><path d="M307.18 496.55c.13 4.05-1.4 7.98-4.22 10.89a14.984 14.984 0 0 1-10.77 4.56H256V286.17c7.1 13.19 13.5 27.01 19.13 41.38 19.37 49.45 30.151 106.3 32.05 169z" fill="#ff7733"></path></g></svg>