<svg viewBox="0 0 512 512" xmlns="http://www.w3.org/2000/svg"><g><path d="M196 169.602c-5.098 0-10.5 0-15.902.597h-.899C80.801 179.5 0 272.902 0 377c0 120.902 112.3 135 196 135 83.102 0 180-12.598 193.5-111.898 14.098-116.403-78.3-230.5-193.5-230.5zm0 0" fill="#ff637b"></path><path d="M389.5 400.102C376 499.402 279.102 512 196 512V169.602c115.2 0 207.598 114.097 193.5 230.5zm0 0" fill="#e63950"></path><path d="m300.098 49.8-30 91H121.902l-30-91C90.098 45.3 91 40.2 93.7 36.3c3-3.898 7.5-6.3 12.301-6.3h47.7c6-17.402 22.8-30 42.3-30s36 12.598 42.3 30H286c4.8 0 9.3 2.402 12.3 6.3 2.7 3.9 3.602 9 1.798 13.5zm0 0" fill="#ff637b"></path><path d="m300.098 49.8-30 91H196V0c19.5 0 36 12.598 42.3 30H286c4.8 0 9.3 2.402 12.3 6.3 2.7 3.9 3.602 9 1.798 13.5zm0 0" fill="#e63950"></path><path d="M240.7 381.5c0 19.5-12.298 35.7-29.7 42V437c0 8.402-6.598 15-15 15s-15-6.598-15-15v-13.2c-17.402-6.3-30.3-22.8-30.3-42.3 0-8.398 6.898-15 15-15 8.402 0 15 6.602 15 15 0 8.102 6.898 15 15 15h.3c8.402-.3 14.7-6.898 14.7-15 0-8.398-6.298-14.7-14.7-15h-.3c-24.598 0-45-20.402-45-45 0-19.8 12.902-36.3 30.3-42.3V257c0-8.402 6.598-15 15-15s15 6.598 15 15v22.2c17.402 6.3 29.7 22.8 29.7 42.3 0 8.102-6.598 15-15 15-8.102 0-15-6.898-15-15 0-8.398-6.298-14.7-14.7-15h-.3c-8.102 0-15 6.602-15 15 0 8.102 6.898 15 15 15h.3c24.902.3 44.7 20.102 44.7 45zM512 302c0 16.5-13.5 30-30 30l-76 30-75-30c-16.5 0-30-13.5-30-30s13.5-30 30-30h151c16.5 0 30 13.5 30 30zm0 0" fill="#ffda2d"></path><path d="M512 302c0 16.5-13.5 30-30 30l-76 30v-90h76c16.5 0 30 13.5 30 30zm0 0" fill="#fdbf00"></path><path d="M512 362c0 16.5-13.5 30-30 30l-76 30-75-30c-16.5 0-30-13.5-30-30s13.5-30 30-30h151c16.5 0 30 13.5 30 30zm0 0" fill="#fdbf00"></path><path d="M512 362c0 16.5-13.5 30-30 30l-76 30v-90h76c16.5 0 30 13.5 30 30zm0 0" fill="#ff9100"></path><path d="M512 422c0 16.5-13.5 30-30 30l-76 30-75-30c-16.5 0-30-13.5-30-30s13.5-30 30-30h151c16.5 0 30 13.5 30 30zm0 0" fill="#ffda2d"></path><path d="M512 422c0 16.5-13.5 30-30 30l-76 30v-90h76c16.5 0 30 13.5 30 30zm0 0" fill="#fdbf00"></path><path d="M512 482c0 16.5-13.5 30-30 30H331c-16.5 0-30-13.5-30-30s13.5-30 30-30h151c16.5 0 30 13.5 30 30zm0 0" fill="#fdbf00"></path><path d="M512 482c0 16.5-13.5 30-30 30h-76v-60h76c16.5 0 30 13.5 30 30zm0 0" fill="#ff9100"></path><path d="M301 151c0 16.5-13.5 30-30 30H121c-16.5 0-30-13.5-30-30s13.5-30 30-30h150c16.5 0 30 13.5 30 30zm0 0" fill="#ffda2d"></path><g fill="#fdbf00"><path d="M240.7 381.5c0 19.5-12.298 35.7-29.7 42V437c0 8.402-6.598 15-15 15v-55.5c8.402-.3 14.7-6.898 14.7-15 0-8.398-6.298-14.7-14.7-15v-30c24.902.3 44.7 20.102 44.7 45zM240.7 321.5c0 8.102-6.598 15-15 15-8.102 0-15-6.898-15-15 0-8.398-6.298-14.7-14.7-15V242c8.402 0 15 6.598 15 15v22.2c17.402 6.3 29.7 22.8 29.7 42.3zM301 151c0 16.5-13.5 30-30 30h-75v-60h75c16.5 0 30 13.5 30 30zm0 0" fill="#fdbf00"></path></g></g></svg>