<svg viewBox="0 0 512 512" xmlns="http://www.w3.org/2000/svg"><g><path d="M512 345.277v73.555c0 5.691-4.613 10.305-10.3 10.305H322.241v-83.86c0-24.843 20.14-44.988 44.988-44.988h99.782c24.847 0 44.988 20.145 44.988 44.988zm0 0" fill="#eb5777"></path><path d="M393.313 347.121v82.016h-71.07v-83.86c0-24.847 20.14-44.988 44.987-44.988h8.61c10.89 12.57 17.472 28.95 17.472 46.832zm0 0" fill="#ce3f63"></path><path d="M418.195 325.621c-8.468 0-15.336-6.867-15.336-15.336v-43.02h30.672v43.02c0 8.469-6.867 15.336-15.336 15.336zm0 0" fill="#e39f6e"></path><path d="M337.063 207.273h162.265l4.281-20.875C514.695 132.328 473.387 81.7 418.195 81.7c-55.191 0-96.496 50.63-85.41 104.7zm0 0" fill="#ba6f3c"></path><path d="M508.379 215.441c0 11.407-9.242 20.649-20.649 20.649-11.402 0-20.644-9.242-20.644-20.649 0-11.402 9.242-20.644 20.644-20.644 11.407 0 20.649 9.242 20.649 20.644zM369.305 215.445c0 11.403-9.239 20.649-20.649 20.649-11.402 0-20.648-9.246-20.648-20.649 0-1.742.21-3.441.633-5.058 2.25-8.95 10.355-15.59 20.015-15.59 9.785 0 17.977 6.808 20.102 15.941.355 1.508.547 3.09.547 4.707zm0 0" fill="#e39f6e"></path><path d="M368.758 210.738a39.548 39.548 0 0 1-19.766 5.254 39.591 39.591 0 0 1-20.351-5.605c2.25-8.95 10.355-15.59 20.015-15.59 9.785 0 17.977 6.808 20.102 15.941zm0 0" fill="#d88852"></path><path d="m353.21 157.691 7.08 56.668 2.683 21.493c3.48 27.847 27.16 48.75 55.218 48.75 28.07 0 51.75-20.903 55.223-48.75l9.762-78.16zm0 0" fill="#f8c298"></path><path d="M388.855 176.133c0 18.062-12.078 33.347-28.566 38.226l-7.59-60.746h29.18a39.665 39.665 0 0 1 6.976 22.52zm0 0" fill="#e39f6e"></path><path d="M387.969 221.988a7.725 7.725 0 0 1-7.719-7.515l-.09-3.274a7.725 7.725 0 0 1 7.512-7.933c4.27-.133 7.816 3.246 7.933 7.511l.09 3.274a7.725 7.725 0 0 1-7.511 7.933c-.075 0-.145.004-.215.004zM448.508 221.988a7.731 7.731 0 0 1-7.723-7.515l-.09-3.274a7.726 7.726 0 0 1 7.516-7.933c4.27-.133 7.816 3.246 7.934 7.511l.09 3.274a7.725 7.725 0 0 1-7.512 7.933c-.075 0-.145.004-.215.004zm0 0" fill="#aa5b26"></path><path d="M418.195 250.992c-9.726 0-18.941-4.71-24.656-12.601a7.724 7.724 0 0 1 1.727-10.79 7.724 7.724 0 0 1 10.789 1.727 15.034 15.034 0 0 0 12.14 6.211c4.785 0 9.328-2.32 12.145-6.21a7.724 7.724 0 0 1 10.789-1.727 7.724 7.724 0 0 1 1.726 10.789c-5.714 7.89-14.933 12.601-24.66 12.601zm0 0" fill="#e39f6e"></path><path d="M358.887 436.86a7.723 7.723 0 0 1-7.727-7.723v-70.235a7.725 7.725 0 1 1 15.45 0v70.235c.003 4.265-3.458 7.722-7.723 7.722zm0 0" fill="#000000"></path><path d="M483.074 358.898v70.239h-15.453v-70.239a7.729 7.729 0 0 1 7.727-7.726 7.724 7.724 0 0 1 7.726 7.726zm0 0" fill="#ce3f63"></path><path d="M341.066 159.297s13.856 13.742 51.164 14.738a4.186 4.186 0 0 0 4.293-4.195v-5.535s13.567 8.898 42.313 9.726c2.36.067 4.293-1.836 4.293-4.195v-3.14s11.18 6.824 44.683 7.363a4.197 4.197 0 0 0 4.254-4.196v-20.37a4.829 4.829 0 0 0-4.828-4.829H355.7c-8.082 0-14.633 6.55-14.633 14.633zm0 0" fill="#ba6f3c"></path><path d="M392.3 181.762c-.105 0-.21-.004-.316-.004-24.3-.653-39.601-6.457-48.156-11.211a7.73 7.73 0 0 1-3-10.508 7.73 7.73 0 0 1 10.508-3c5.45 3.027 17.36 8.074 37.46 9.129v-1.863a7.727 7.727 0 0 1 11.966-6.461c.062.039 11.351 7 34.66 8.308.168-2.644 1.578-5.097 3.93-6.355 2.492-1.332 5.378-1.281 7.738.258.922.472 11.223 5.445 37.863 6.21a7.726 7.726 0 0 1 7.504 7.946c-.125 4.262-3.687 7.617-7.945 7.5-17.457-.5-28.953-2.703-36.028-4.742-.375.496-.789.969-1.242 1.41a12.05 12.05 0 0 1-8.672 3.371c-16.254-.469-28.132-3.434-35.789-6.164a11.98 11.98 0 0 1-2.133 2.785 12.03 12.03 0 0 1-8.347 3.39zm0 0" fill="#aa5b26"></path><path d="M189.758 345.277v83.86H10.3C4.613 429.137 0 424.523 0 418.832v-73.555c0-24.843 20.14-44.988 44.988-44.988h99.782c24.847 0 44.988 20.145 44.988 44.988zm0 0" fill="#4fceb7"></path><path d="M189.758 345.277v83.86h-71.07V347.12c0-17.883 6.582-34.262 17.472-46.832h8.61c24.847 0 44.988 20.14 44.988 44.988zm0 0" fill="#3db4a0"></path><path d="M95.96 325.621c-8.472 0-15.335-6.867-15.335-15.336v-43.02h30.672v43.02c0 8.469-6.867 15.336-15.336 15.336zm0 0" fill="#e39f6e"></path><path d="M14.824 207.273h162.27l4.281-20.875C192.457 132.328 151.152 81.7 95.961 81.7S-.535 132.33 10.547 186.4zm0 0" fill="#ba6f3c"></path><path d="M186.145 215.445c0 11.403-9.247 20.649-20.649 20.649-11.398 0-20.648-9.246-20.648-20.649 0-1.742.21-3.441.632-5.058 2.25-8.95 10.356-15.59 20.016-15.59 9.785 0 17.988 6.808 20.102 15.95.359 1.51.547 3.081.547 4.698zm0 0" fill="#e39f6e"></path><path d="M185.598 210.746a39.652 39.652 0 0 1-19.754 5.246 39.634 39.634 0 0 1-20.364-5.605c2.25-8.95 10.356-15.59 20.016-15.59 9.79 0 17.988 6.808 20.102 15.95zm0 0" fill="#d88852"></path><path d="M47.07 215.441c0 11.407-9.242 20.649-20.644 20.649-11.406 0-20.649-9.242-20.649-20.649 0-11.402 9.243-20.644 20.649-20.644 11.402 0 20.644 9.242 20.644 20.644zm0 0" fill="#e39f6e"></path><path d="m30.977 157.691 9.761 78.16c3.485 27.848 27.153 48.75 55.223 48.75s51.738-20.902 55.223-48.75l2.71-21.683 7.051-56.477zm0 0" fill="#f8c298"></path><path d="M130.523 157.691a39.598 39.598 0 0 0-4.539 18.442c0 17.82 11.75 32.945 27.91 38.035l7.051-56.473h-30.422zm0 0" fill="#e39f6e"></path><path d="M65.73 221.988c-4.168 0-7.601-3.324-7.718-7.515l-.09-3.274a7.725 7.725 0 0 1 7.512-7.933c4.285-.133 7.82 3.246 7.937 7.511l.09 3.274a7.725 7.725 0 0 1-7.512 7.933c-.074 0-.144.004-.219.004zM126.27 221.988a7.728 7.728 0 0 1-7.72-7.515l-.09-3.274a7.725 7.725 0 0 1 7.513-7.933c4.285-.133 7.816 3.246 7.933 7.511l.09 3.274a7.722 7.722 0 0 1-7.512 7.933c-.07 0-.144.004-.214.004zm0 0" fill="#aa5b26"></path><path d="M95.96 250.992c-9.726 0-18.944-4.71-24.66-12.601a7.724 7.724 0 0 1 1.727-10.79 7.724 7.724 0 0 1 10.79 1.727 15.042 15.042 0 0 0 12.144 6.211c4.785 0 9.324-2.32 12.14-6.21a7.724 7.724 0 0 1 10.79-1.727 7.724 7.724 0 0 1 1.726 10.789c-5.715 7.89-14.93 12.601-24.656 12.601zm0 0" fill="#e39f6e"></path><path d="M44.379 358.898v70.239h-15.45v-70.239a7.72 7.72 0 0 1 7.723-7.726 7.729 7.729 0 0 1 7.727 7.726zm0 0" fill="#3db4a0"></path><path d="M153.113 436.86a7.722 7.722 0 0 1-7.722-7.723v-70.235a7.725 7.725 0 1 1 15.449 0v70.235a7.723 7.723 0 0 1-7.727 7.722zm0 0" fill="#000000"></path><path d="M18.828 159.297s13.856 13.742 51.164 14.738a4.19 4.19 0 0 0 4.297-4.195v-5.535s13.566 8.898 42.309 9.726c2.363.067 4.297-1.836 4.297-4.195v-3.14s11.18 6.824 44.683 7.363a4.196 4.196 0 0 0 4.25-4.196v-20.37a4.825 4.825 0 0 0-4.824-4.829H33.464c-8.081 0-14.636 6.55-14.636 14.633zm0 0" fill="#ba6f3c"></path><path d="M165.555 181.781h-.125c-19.243-.308-31.692-2.652-39.184-4.808-.371.496-.785.964-1.238 1.406a12.035 12.035 0 0 1-8.672 3.371c-16.254-.469-28.137-3.434-35.79-6.164a11.993 11.993 0 0 1-2.136 2.789c-2.297 2.234-5.46 3.477-8.66 3.383-21.637-.582-35.996-5.328-44.234-9.207a7.726 7.726 0 0 1-3.7-10.285c1.817-3.86 6.422-5.512 10.282-3.696 6.453 3.04 17.547 6.715 34.465 7.598v-1.863a7.727 7.727 0 0 1 11.964-6.461c.067.039 11.356 7 34.66 8.308.168-2.644 1.579-5.097 3.93-6.355 2.492-1.332 5.38-1.281 7.735.258.957.492 11.984 5.808 40.828 6.277 4.265.066 7.668 3.582 7.601 7.852a7.727 7.727 0 0 1-7.726 7.597zm0 0" fill="#aa5b26"></path><path d="M380.95 347.121v100.125c0 5.688-4.61 10.3-10.302 10.3H141.352c-5.692 0-10.301-4.612-10.301-10.3V347.121c0-32.726 26.523-59.254 59.246-59.254h131.406c32.723 0 59.246 26.528 59.246 59.254zm0 0" fill="#a9d2f7"></path><path d="M179.313 319.93v15.886a6.675 6.675 0 0 0 6.675 6.676c4.446 0 7.653 4.266 6.41 8.54l-5.37 18.488a6.681 6.681 0 0 0 1.062 5.851l25.246 33.828V287.867l-31.676 26.985a6.671 6.671 0 0 0-2.347 5.078zM335.527 319.93v15.886a6.675 6.675 0 0 1-6.675 6.676c-4.45 0-7.653 4.266-6.41 8.54l5.367 18.488a6.668 6.668 0 0 1-1.059 5.851L301.504 409.2V287.867l31.676 26.985a6.671 6.671 0 0 1 2.347 5.078zm0 0" fill="#5f9eeb"></path><path d="M213.332 287.867h88.176v169.684h-88.176zm0 0" fill="#627687"></path><path d="M380.95 347.11v100.136c0 5.691-4.61 10.3-10.302 10.3h-9.886V347.122c0-32.719-26.535-59.254-59.254-59.254h20.199c32.719 0 59.242 26.524 59.242 59.242zm0 0" fill="#7fb7ea"></path><path d="M257.422 321.23c-11.156 0-20.2-9.042-20.2-20.195V244.38h40.395v56.656c0 11.153-9.043 20.195-20.195 20.195zm0 0" fill="#f8c298"></path><path d="M150.57 165.371h213.696l5.636-27.488C384.5 66.68 330.102 0 257.422 0 184.734 0 130.34 66.68 144.937 137.883zm0 0" fill="#ffcf64"></path><path d="M359 99.992a7.729 7.729 0 0 0-7.727 7.727v16.578a178.998 178.998 0 0 1-25.39-2.297v15.617c11.12 1.672 20.586 2.102 26.664 2.153h.125c3.73 0 7.242-1.446 9.894-4.075a13.963 13.963 0 0 0 4.16-9.988v-17.988A7.726 7.726 0 0 0 359 99.992zM157.133 99.992a7.725 7.725 0 0 1 7.722 7.727v16.578A179.044 179.044 0 0 0 190.25 122v15.617c-11.121 1.672-20.586 2.102-26.668 2.153h-.121a13.974 13.974 0 0 1-9.899-4.075 13.98 13.98 0 0 1-4.16-9.988v-17.988a7.732 7.732 0 0 1 7.73-7.727zm0 0" fill="#efc40f"></path><path d="M376.188 176.133c0 15.02-12.176 27.191-27.196 27.191-15.015 0-27.191-12.172-27.191-27.191 0-15.016 12.176-27.192 27.191-27.192 15.02 0 27.195 12.176 27.195 27.192zM193.035 176.133c0 15.02-12.172 27.191-27.191 27.191-15.016 0-27.192-12.172-27.192-27.191 0-15.016 12.176-27.192 27.192-27.192 15.02 0 27.191 12.176 27.191 27.192zm0 0" fill="#f8c298"></path><path d="m176.3 135.785 8.395 67.219c4.582 36.68 35.762 64.207 72.723 64.207 36.965 0 68.14-27.527 72.723-64.207l8.394-67.219c2.512-20.094-13.156-37.844-33.406-37.844H209.71c-20.25 0-35.922 17.75-33.41 37.844zm0 0" fill="#ffd6c0"></path><path d="M217.613 182.305a7.728 7.728 0 0 1-7.718-7.516l-.118-4.312a7.725 7.725 0 0 1 7.512-7.934c4.234-.125 7.816 3.246 7.934 7.512l.117 4.308a7.726 7.726 0 0 1-7.512 7.938c-.07 0-.144.004-.215.004zM297.336 182.305a7.728 7.728 0 0 1-7.719-7.516l-.117-4.312a7.725 7.725 0 0 1 7.512-7.934c4.23-.125 7.816 3.246 7.933 7.512l.121 4.308a7.726 7.726 0 0 1-7.511 7.938c-.075 0-.149.004-.22.004zm0 0" fill="#4fceb7"></path><path d="M257.422 220.504c-12.027 0-23.426-5.828-30.492-15.586a7.724 7.724 0 0 1 1.726-10.79c3.457-2.5 8.29-1.73 10.79 1.727 4.167 5.758 10.89 9.196 17.976 9.196s13.805-3.438 17.973-9.196a7.724 7.724 0 0 1 10.789-1.726 7.728 7.728 0 0 1 1.726 10.789c-7.066 9.758-18.465 15.586-30.488 15.586zm0 0" fill="#f8c298"></path><path d="M187.04 396.445v61.102h-15.454v-61.102c0-4.261 3.46-7.722 7.726-7.722s7.727 3.46 7.727 7.722zM340.414 396.445v61.102h-15.453v-61.102c0-4.261 3.46-7.722 7.726-7.722s7.727 3.46 7.727 7.722zm0 0" fill="#7fb7ea"></path><path d="M164.867 86.434v36.402a6.337 6.337 0 0 0 6.39 6.336c16.583-.145 56.63-3.035 86.813-25.813 30.188 22.778 70.235 25.668 86.817 25.813a6.334 6.334 0 0 0 6.386-6.336V86.434zm0 0" fill="#ffcf64"></path></g></svg>