<svg fill-rule="evenodd" viewBox="0 0 1706.66 1706.66" xmlns="http://www.w3.org/2000/svg"><g><path d="M585.55 802.57c-33.89-9.08 19.7-45.92-35.45-141.41-71.19-123.26-31.42-204.81-46.81-249.8-21.73-63.52-.19-106.7 51.93-108.52 54.78-1.87 92.22 61 111.77 118.97L751.08 108c16.37-61.07 96.07-76.17 133.85-26.11 45.6-61.15 143.3-23.72 136.51 52.07 57.01-19.67 113.72 32.61 97.97 91.41l-6.25 23.33c56.65-18.46 112.33 33.54 96.7 91.85-11.69 43.6-114.3 434.45-119.59 441.52l-89.24 119.67c-11.28 15.13-32.27 3.55-31.43-11.26l-364.28-97.61c-4.39 8.19-10.98 12.05-19.77 9.69z" fill="#ffaf8a"></path><path d="M937.83 1075.35 540.94 969c-9.24-2.48-14.72-11.99-12.25-21.22l44.59-166.43c2.48-9.24 11.98-14.72 21.22-12.25l396.89 106.35c9.24 2.48 14.72 11.99 12.25 21.22l-44.59 166.42c-2.47 9.23-11.98 14.72-21.22 12.25z" fill="#79d8d4"></path><g fill="#ff9e7c"><path d="M869.92 66.84c11.72 8.24 27.78 30.22 23.17 47.42l-58.3 217.56c-5.91 22.03-39.37 13.06-33.47-8.97zM1001.24 75.42c10 7.03 25.12 40.13 20.19 58.53l-71.74 267.76c-5.9 22.03-39.37 13.06-33.47-8.97l85.02-317.31zM1102.57 154.27c29.81 31.82 17.21 69.65 10.57 94.42l-43.35 161.78c-5.91 22.03-39.37 13.06-33.47-8.97l66.25-247.24z" fill="#ff9e7c"></path></g><path d="M1706.66 1265.41c-30.47-25.91-174.27-130.41-407.19-25.84-334.5 150.21-553.88-143.2-872.81 0-156.79 70.41-310.27 64.88-426.66-13.51v-338.1c24.88 21.96 170.11 135.32 409.48 27.84 334.48-150.18 553.93 143.19 872.82 0 213.25-95.78 360.58-30.17 424.36 12z" fill="#89cff0"></path><path d="M1706.66 1486.99c-30.47-25.91-174.27-130.41-407.19-25.83-334.5 150.21-553.88-143.21-872.81 0-156.79 70.41-310.27 64.88-426.66-13.51v-338.1c24.88 21.96 170.11 135.32 409.48 27.84 334.48-150.18 553.93 143.19 872.82 0 213.25-95.79 360.58-30.17 424.36 12V1487z" fill="#7bbad8"></path><path d="M1706.66 1631.77c-30.47-25.91-174.27-130.41-407.19-25.84-334.5 150.21-553.88-143.2-872.81 0-156.79 70.41-310.27 64.88-426.66-13.51v-261.3c24.88 21.96 170.11 135.32 409.48 27.84 334.48-150.18 553.93 143.19 872.82 0 213.25-95.79 360.58-30.17 424.36 12z" fill="#95d4f2"></path></g></svg>