<svg viewBox="0 0 512 512" xmlns="http://www.w3.org/2000/svg"><g><path d="M192.805 320.631h32.61v45.788h-32.61zM284.524 320.631h32.61v45.788h-32.61zM101.085 320.631h32.61v45.788h-32.61zM376.244 320.631h32.609v45.788h-32.609zM499.5 320.631h-31.536v45.788H499.5a5 5 0 0 0 5-5v-35.788a5 5 0 0 0-5-5zM41.975 320.631H12.5a5 5 0 0 0-5 5v35.788a5 5 0 0 0 5 5h29.475z" fill="#d88a55"></path><path d="M284.524 351.752h32.61v14.667h-32.61zM192.805 351.752h32.61v14.667h-32.61zM101.085 351.752h32.61v14.667h-32.61zM376.244 351.752h32.609v14.667h-32.609zM467.964 351.752v14.667H499.5a5 5 0 0 0 5-5v-9.667zM41.975 351.752H27.167a5 5 0 0 1-5-5v-26.121H12.5a5 5 0 0 0-5 5v35.788a5 5 0 0 0 5 5h29.475z" fill="#c57a44"></path><path d="M101.085 180.929h32.61v45.788h-32.61zM192.805 180.929h32.61v45.788h-32.61zM284.524 180.929h32.61v45.788h-32.61zM499.5 180.929h-31.536v45.788H499.5a5 5 0 0 0 5-5v-35.788a5 5 0 0 0-5-5zM41.975 180.929H12.5a5 5 0 0 0-5 5v35.788a5 5 0 0 0 5 5h29.475zM376.244 180.929h32.609v45.788h-32.609z" fill="#d88a55"></path><path d="M101.085 212.05h32.61v14.667h-32.61zM192.805 212.05h32.61v14.667h-32.61zM284.524 212.05h32.61v14.667h-32.61zM467.964 212.05v14.667H499.5a5 5 0 0 0 5-5v-9.667zM376.244 212.05h32.609v14.667h-32.609zM41.975 212.05H27.167a5 5 0 0 1-5-5v-26.121H12.5a5 5 0 0 0-5 5v35.788a5 5 0 0 0 5 5h29.475z" fill="#c57a44"></path><path d="M102.085 408.514V140.077c0-1.822-.498-3.609-1.439-5.168L74.098 90.935c-1.167-1.933-3.97-1.933-5.136 0l-26.548 43.973a9.997 9.997 0 0 0-1.439 5.168v268.437h61.11z" fill="#f6a96c"></path><path d="M63.642 408.514V140.077c0-1.822.498-3.609 1.439-5.168l17.783-29.455-8.765-14.518c-1.167-1.933-3.97-1.933-5.136 0l-26.548 43.973a9.997 9.997 0 0 0-1.439 5.168v268.437z" fill="#ea9b58"></path><path d="M193.805 408.514V140.077c0-1.822-.498-3.609-1.439-5.168l-26.548-43.973c-1.167-1.933-3.97-1.933-5.136 0l-26.548 43.973a9.997 9.997 0 0 0-1.439 5.168v268.437z" fill="#f6a96c"></path><path d="M155.362 408.514V140.077c0-1.822.498-3.609 1.439-5.168l17.783-29.455-8.765-14.518c-1.167-1.933-3.97-1.933-5.136 0l-26.548 43.973a9.997 9.997 0 0 0-1.439 5.168v268.437z" fill="#ea9b58"></path><path d="M285.524 408.514V140.077c0-1.822-.498-3.609-1.439-5.168l-26.548-43.973c-1.167-1.933-3.97-1.933-5.137 0l-26.548 43.973a9.997 9.997 0 0 0-1.439 5.168v268.437z" fill="#f6a96c"></path><path d="M247.081 408.514V140.077c0-1.822.498-3.609 1.439-5.168l17.783-29.455-8.765-14.518c-1.167-1.933-3.97-1.933-5.136 0l-26.548 43.973a9.997 9.997 0 0 0-1.439 5.168v268.437z" fill="#ea9b58"></path><path d="M377.244 408.514V140.077c0-1.822-.498-3.609-1.439-5.168l-26.548-43.973c-1.167-1.933-3.97-1.933-5.136 0l-26.548 43.973a9.997 9.997 0 0 0-1.439 5.168v268.437z" fill="#f6a96c"></path><path d="M338.801 408.514V140.077c0-1.822.498-3.609 1.439-5.168l17.783-29.455-8.765-14.518c-1.167-1.933-3.97-1.933-5.136 0l-26.548 43.973a9.997 9.997 0 0 0-1.439 5.168v268.437z" fill="#ea9b58"></path><path d="M468.964 408.514V140.077c0-1.822-.498-3.609-1.439-5.168l-26.548-43.973c-1.167-1.933-3.97-1.933-5.136 0l-26.548 43.973a9.997 9.997 0 0 0-1.439 5.168v268.437z" fill="#f6a96c"></path><path d="M430.52 408.514V140.077c0-1.822.498-3.609 1.439-5.168l17.783-29.455-8.765-14.518c-1.167-1.933-3.97-1.933-5.136 0l-26.548 43.973a9.997 9.997 0 0 0-1.439 5.168v268.437z" fill="#ea9b58"></path><g fill="#edcab2"><circle cx="71.53" cy="203.823" fill="#edcab2" r="7.729"></circle><circle cx="71.53" cy="343.525" fill="#edcab2" r="7.729"></circle><circle cx="163.25" cy="203.823" fill="#edcab2" r="7.729"></circle><circle cx="163.25" cy="343.525" fill="#edcab2" r="7.729"></circle><circle cx="254.969" cy="203.823" fill="#edcab2" r="7.729"></circle><circle cx="254.969" cy="343.525" fill="#edcab2" r="7.729"></circle><circle cx="346.689" cy="203.823" fill="#edcab2" r="7.729"></circle><circle cx="346.689" cy="343.525" fill="#edcab2" r="7.729"></circle><circle cx="438.409" cy="203.823" fill="#edcab2" r="7.729"></circle><circle cx="438.409" cy="343.525" fill="#edcab2" r="7.729"></circle></g><path d="M504.5 422.514H7.5a7.5 7.5 0 0 1 0-15h497a7.5 7.5 0 0 1 0 15z" fill="#8bc727"></path></g></svg>