<svg viewBox="0 0 512 512" xmlns="http://www.w3.org/2000/svg"><g><path d="M174.468 232.334c0-39.796-32.377-72.173-72.174-72.173S30.12 192.538 30.12 232.334a72.326 72.326 0 0 0 3.02 20.657C12.625 266.409 0 289.242 0 314.54c0 40.618 33.046 73.664 73.665 73.664s73.665-33.046 73.665-73.664a73.656 73.656 0 0 0-3.693-23.021c19.102-13.314 30.831-35.227 30.831-59.185z" fill="#e27a1d"></path><path d="M478.86 252.991a72.337 72.337 0 0 0 3.021-20.657c0-39.796-32.377-72.173-72.174-72.173s-72.174 32.377-72.174 72.173c0 23.958 11.729 45.871 30.829 59.184a73.694 73.694 0 0 0-3.692 23.021c0 40.618 33.046 73.664 73.665 73.664S512 355.158 512 314.54c0-25.298-12.625-48.131-33.14-61.549z" fill="#de5b5b"></path><path d="M255.997 90.377c-91.972 0-166.796 74.824-166.796 166.794v88.035c0 91.97 74.825 166.794 166.797 166.794s166.796-74.824 166.796-166.794v-88.035c0-91.97-74.825-166.794-166.797-166.794z" fill="#fbf4f4"></path><path d="M256.904 90.388v421.6c91.556-.491 165.89-75.115 165.89-166.783V257.17c0-91.666-74.335-166.291-165.89-166.782z" fill="#eae0db"></path><circle cx="255.998" cy="316.251" fill="#de5b5b" r="45.125" transform="rotate(-6.43 255.124 315.283)"></circle><path d="M255.997 420.507c-26.714 0-53.419-10.165-73.756-30.502-5.858-5.857-5.858-15.355 0-21.213 5.857-5.857 15.356-5.857 21.213 0 28.972 28.971 76.112 28.971 105.086 0 5.857-5.857 15.356-5.859 21.213 0 5.858 5.858 5.858 15.355 0 21.213-20.331 20.332-47.048 30.502-73.756 30.502zM166.691 281.001c7.846 0 15.363-6.899 15-15-.364-8.127-6.591-15-15-15-7.846 0-15.363 6.899-15 15 .364 8.127 6.59 15 15 15z" fill="#404a4a"></path><path d="M346.41 281.001c7.846 0 15.363-6.899 15-15-.364-8.127-6.591-15-15-15-7.846 0-15.363 6.899-15 15 .364 8.127 6.591 15 15 15z" fill="#292b2f"></path><path d="m353.219 125.729-85-119.425A15.003 15.003 0 0 0 256.174.003c-4.762-.099-9.32 2.18-12.189 6.016l-89.307 119.425a15 15 0 0 0-.238 17.64c2.333 3.301 24.939 32.251 99.404 32.251 74.466 0 97.072-28.95 99.404-32.251a15.001 15.001 0 0 0-.029-17.355z" fill="#7773d2"></path><path d="M308.541 368.793c-14.257 14.255-32.912 21.48-51.637 21.706v29.997c26.404-.228 52.748-10.389 72.85-30.491 5.858-5.857 5.858-15.354 0-21.213s-15.356-5.857-21.213.001z" fill="#292b2f"></path><path d="M256.904 271.149v90.204c24.463-.486 44.219-20.524 44.219-45.102s-19.755-44.616-44.219-45.102z" fill="#c30057"></path><path d="M268.219 6.304c-2.636-3.703-6.804-5.975-11.315-6.249v175.261c72.025-.78 94.044-28.977 96.344-32.232a15 15 0 0 0-.029-17.354z" fill="#4b47c4"></path></g></svg>