<svg viewBox="0 0 512 512" xmlns="http://www.w3.org/2000/svg"><g><g clip-rule="evenodd" fill-rule="evenodd"><path d="M354.776 142.799h114.173v296.014H354.776z" fill="#e4e8eb"></path><path d="M336.213 127.192h136.754c2.754 0 5 2.246 5 5v15.607c0 2.754-2.246 5-5 5H336.213a5.01 5.01 0 0 1-5-5v-15.607c0-2.754 2.246-5 5-5z" fill="#a9b0bb"></path><path d="M199.41 16h160.367c2.754 0 5 2.247 5 5v417.813H194.41V21c0-2.754 2.246-5 5-5z" fill="#cad0d7"></path><path d="M229.115 317.762h100.956c2.754 0 5 2.246 5 5v100.444H224.115V322.762c0-2.754 2.246-5 5-5z" fill="#a4d4ff"></path><path d="M272.593 317.762h14v105.444h-14z" fill="#66d4f1"></path><path d="M172.359 423.206H491c2.754 0 5 2.246 5 5v15.608c0 2.754-2.246 5-5 5H172.359a5.01 5.01 0 0 1-5-5v-15.608c0-2.754 2.246-5 5-5z" fill="#a9b0bb"></path><circle cx="279.593" cy="95.694" fill="#f76c82" r="57.758"></circle><path d="M271.795 62.624h15.597c2.754 0 5 2.246 5 5v15.272h15.272c2.754 0 5 2.246 5 5v15.597c0 2.754-2.246 5-5 5h-15.272v15.272c0 2.754-2.246 5-5 5h-15.597a5.01 5.01 0 0 1-5-5v-15.272h-15.272a5.01 5.01 0 0 1-5-5V87.896c0-2.754 2.246-5 5-5h15.272V67.624c0-2.754 2.246-5 5-5z" fill="#f4f6f8"></path><path d="M404.365 317.762h24.995c2.754 0 5 2.246 5 5v24.995c0 2.754-2.246 5-5 5h-24.995a5.01 5.01 0 0 1-5-5v-24.995c0-2.754 2.246-5 5-5zm-175.25-133.79h100.956c2.754 0 5 2.246 5 5v25.479c0 2.754-2.246 5-5 5H229.115a5.01 5.01 0 0 1-5-5v-25.479c0-2.754 2.246-5 5-5zm0 66.653h100.956c2.754 0 5 2.246 5 5v25.48c0 2.754-2.246 5-5 5H229.115a5.01 5.01 0 0 1-5-5v-25.48c0-2.754 2.246-5 5-5zm175.25.484h24.995c2.754 0 5 2.246 5 5v24.995c0 2.754-2.246 5-5 5h-24.995a5.01 5.01 0 0 1-5-5v-24.995c0-2.754 2.246-5 5-5zm0-66.652h24.995c2.754 0 5 2.246 5 5v24.996c0 2.754-2.246 5-5 5h-24.995a5.01 5.01 0 0 1-5-5v-24.996c0-2.755 2.246-5 5-5z" fill="#a4d4ff"></path></g><g clip-rule="evenodd" fill-rule="evenodd"><path d="M51.217 418.249h184.457v65.068H51.217c-12.392 0-22.534-20.141-22.534-32.534.001-12.394 10.141-32.534 22.534-32.534z" fill="#f4f6f8"></path><path d="M235.674 443.783v14h-72.197a7 7 0 1 1 0-14zm-111.264 0a7 7 0 1 1 0 14H62.686a7 7 0 1 1 0-14z" fill="#e4e8eb"></path><path d="M216.661 327.815H32.203v65.067H216.66c12.392 0 22.534-20.14 22.534-32.534 0-12.393-10.14-32.533-22.533-32.533z" fill="#f4f6f8"></path><path d="M32.203 353.348v14H104.4a7 7 0 1 0 0-14zm111.265 14a7 7 0 1 1 0-14h61.723a7 7 0 1 1 0 14z" fill="#e4e8eb"></path><path d="M206.66 315.131H21a5.01 5.01 0 0 0-5 5v12.685c0 2.754 2.246 5 5 5h185.66c12.393 0 22.533 10.14 22.533 22.533 0 12.394-10.14 22.533-22.533 22.533H21a5.01 5.01 0 0 0-5 5v12.684c0 2.754 2.246 5 5 5h40.218v7H206.66v-7c24.913 0 45.217-20.304 45.217-45.217 0-24.914-20.304-45.218-45.217-45.218z" fill="#b3a4ee"></path><path d="M61.217 405.565h185.66c2.754 0 5 2.246 5 5v12.685c0 2.754-2.246 5-5 5H61.217c-12.394 0-22.533 10.14-22.533 22.533 0 12.394 10.14 22.533 22.533 22.533h185.66c2.754 0 5 2.246 5 5V491c0 2.754-2.246 5-5 5H61.217C36.304 496 16 475.696 16 450.783s20.304-45.218 45.217-45.218z" fill="#f76c82"></path><path d="M63.539 360.348h37.037v53.871c0 2.153-1.293 3.987-3.321 4.71-2.029.723-4.189.121-5.551-1.548l-9.646-11.815-9.646 11.815c-1.362 1.669-3.523 2.271-5.551 1.548-2.029-.723-3.321-2.556-3.321-4.71v-53.871z" fill="#fdcd56"></path></g><g clip-rule="evenodd" fill-rule="evenodd"><path d="M79.362 265.852c18.679 4.887 39.526 7.623 61.521 7.623s42.842-2.736 61.521-7.623v-60.894H79.362z" fill="#424852"></path><g fill="#636c77"><path d="m244.208 198.456-102.36-34.752a2.89 2.89 0 0 0-1.929 0l-102.36 34.752c-1.238.42-2.036 1.533-2.036 2.841s.797 2.42 2.036 2.841l102.36 34.752a2.89 2.89 0 0 0 1.929 0l102.36-34.752a2.958 2.958 0 0 0 2.035-2.841 2.955 2.955 0 0 0-2.035-2.841z" fill="#636c77"></path><path d="M35.524 201.296h14v58.219a7 7 0 1 1-14 0z" fill="#636c77"></path><path d="m47.161 253.296 3.502 8.689 5.371 13.326c.64 1.589.465 3.247-.493 4.667s-2.431 2.202-4.144 2.202H33.65c-1.713 0-3.186-.783-4.144-2.202-.958-1.42-1.134-3.078-.493-4.667l5.371-13.326 3.502-8.689c.778-1.931 2.555-3.131 4.637-3.131 2.083 0 3.859 1.2 4.638 3.131z" fill="#636c77"></path><circle cx="42.524" cy="255.551" fill="#636c77" r="10"></circle></g></g></g></svg>