<svg viewBox="0 0 512 512" xmlns="http://www.w3.org/2000/svg"><g><path d="M55.673 188.105a36.38 36.38 0 0 0-5.076 18.581l205.421 9 205.385-9a36.382 36.382 0 0 0-5.076-18.581l-200.363-9z" fill="#a05528"></path><path d="M456.327 188.105c-6.363-10.759-18.077-17.978-31.482-17.978H87.155c-13.405 0-25.119 7.219-31.482 17.978z" fill="#ad5e2e"></path><path d="m25.181 225.552-4.94 18.58 235.722 9 235.796-9-4.94-18.58-230.801-9.866z" fill="#ce7549"></path><path d="m486.819 225.552-1.738-6.537a16.593 16.593 0 0 0-16.035-12.329H42.954a16.591 16.591 0 0 0-16.035 12.329l-1.738 6.537z" fill="#dd8858"></path><path d="M20.241 287.555v18.58l235.777 9 235.741-9v-18.58L256 277.974z" fill="#ce7549"></path><path d="M491.759 306.135H20.241v115.487l235.759 9 235.759-9z" fill="#dd8858"></path><path d="M16.593 277.974h478.815c7.72 0 16.043-10.092 16.043-21.421-1.853-7.141-8.322-12.421-16.043-12.421H16.593c-7.72 0-14.19 5.28-16.043 12.421.942 10.886 8.322 21.421 16.043 21.421zM.304 434.043c0 10.566 7.665 21.421 15.165 21.421h481.063c7.5 0 15.165-10.711 15.165-21.421-1.416-7.083-7.665-12.421-15.165-12.421H15.468c-7.499 0-13.749 5.338-15.164 12.421z" fill="#ad5e2e"></path><g fill="#a05528"><path d="M496.532 446.464H15.468c-7.499 0-13.749-5.338-15.165-12.421A15.61 15.61 0 0 0 0 437.09v12.486c0 8.543 6.925 15.468 15.468 15.468h481.063c8.543 0 15.468-6.925 15.468-15.468V437.09c0-1.043-.107-2.062-.304-3.047-1.414 7.083-7.664 12.421-15.163 12.421zM495.407 268.974H16.593c-7.72 0-14.19-5.28-16.043-12.421a16.54 16.54 0 0 0-.55 4.172v10.237c0 9.164 7.429 16.593 16.593 16.593h478.815c9.164 0 16.593-7.429 16.593-16.593v-10.237c0-1.444-.204-2.836-.55-4.172-1.854 7.141-8.323 12.421-16.044 12.421z" fill="#a05528"></path></g><path d="M366.038 58.541c0 8.474-2.872 17.765-7.539 22.432-8.504 8.504-27.254 9.682-38.562 3.271.748-6.956 2.917-14.513 8.208-19.805 12.49-12.49 37.619-7.611 37.619-7.611s.12.621.274 1.713z" fill="#82bc7e"></path><path d="M358.153 75.867c4.667-4.667 6.908-11.099 7.885-17.326.829 5.866 2.644 25.377-7.885 35.906-12.49 12.49-37.619 7.611-37.619 7.611s-1.615-8.35-.597-17.814c11.05.578 29.712.127 38.216-8.377z" fill="#75a871"></path><path d="M194.69 80.973c0 8.206 7.449 16.196 12.398 16.822 1.338.169 2.548.905 3.371 1.974a17.258 17.258 0 0 0 13.669 6.72 17.26 17.26 0 0 0 13.69-6.651c.833-1.07 2.05-1.805 3.396-1.971 4.972-.611 12.463-8.687 12.463-16.833l-.001-.002c2.944-5.092 3.169-11.571.021-17.033-3.149-5.462-8.867-8.515-14.749-8.52-2.942-5.093-8.442-8.524-14.747-8.524-6.279 0-11.759 3.402-14.71 8.461-5.856.005-11.553 3.03-14.712 8.457-3.172 5.449-2.974 11.928-.052 17.033l-.037.067z" fill="#ff8088"></path><path d="M241.214 88.867c-1.346.165-2.563.901-3.396 1.971a17.258 17.258 0 0 1-13.69 6.651 17.258 17.258 0 0 1-13.669-6.72c-.823-1.068-2.033-1.804-3.371-1.974-4.949-.627-9.563-3.365-12.398-7.822-2.918 5.076-3.144 11.52-.021 16.965 3.137 5.469 8.849 8.534 14.731 8.551 2.931 5.1 8.424 8.542 14.728 8.555 6.305.014 11.812-3.405 14.765-8.492 5.882.008 11.607-3.032 14.767-8.488 3.16-5.455 2.949-11.933.017-17.031-2.848 4.481-7.491 7.223-12.463 7.834z" fill="#ff667c"></path><path d="M258.268 80.973c0 8.206 7.449 16.196 12.398 16.822 1.338.169 2.547.905 3.371 1.974a17.258 17.258 0 0 0 13.669 6.72 17.26 17.26 0 0 0 13.69-6.651c.833-1.07 2.051-1.805 3.396-1.971 4.972-.611 12.463-8.687 12.463-16.833l-.001-.002c2.944-5.093 3.169-11.571.021-17.033-3.149-5.462-8.867-8.514-14.749-8.52-2.942-5.093-8.442-8.524-14.747-8.524-6.279 0-11.759 3.402-14.71 8.461-5.856.005-11.554 3.03-14.712 8.457-3.172 5.449-2.974 11.928-.052 17.033l-.037.067z" fill="#ffc265"></path><path d="M304.793 88.867c-1.346.165-2.563.901-3.396 1.971a17.258 17.258 0 0 1-13.69 6.651 17.258 17.258 0 0 1-13.669-6.72c-.823-1.068-2.033-1.804-3.371-1.974-4.949-.627-9.563-3.365-12.398-7.822-2.918 5.076-3.144 11.52-.021 16.965 3.137 5.469 8.849 8.534 14.731 8.551 2.931 5.1 8.424 8.542 14.728 8.555 6.305.014 11.812-3.405 14.765-8.492 5.882.008 11.607-3.032 14.767-8.488 3.16-5.455 2.949-11.933.017-17.031-2.848 4.481-7.491 7.223-12.463 7.834z" fill="#ffb24d"></path><path d="M390.472 106.981c0 7.048-2.029 15.944-6.879 20.793-8.836 8.837-25.014 9.031-33.527 5.802l-2.158-16.098c1.015-1.689 2.207-3.278 3.63-4.701 12.822-12.822 38.618-7.813 38.618-7.813s.142.743.316 2.017z" fill="#82bc7e"></path><path d="M350.066 133.577c8.47.625 23.44.262 32.277-8.575 4.85-4.85 7.146-11.556 8.13-18.021.864 6.304 2.536 25.936-8.13 36.602-9.04 9.04-24.521 9.215-32.871 8.533l-4.878-16.128z" fill="#75a871"></path><path d="M121.437 106.981c0 7.048 2.029 15.944 6.879 20.793 8.836 8.837 25.014 9.031 33.528 5.802l2.158-16.098c-1.015-1.689-2.207-3.278-3.63-4.701-12.821-12.822-38.618-7.813-38.618-7.813s-.143.743-.317 2.017z" fill="#82bc7e"></path><path d="M161.843 133.577c-8.47.625-23.44.262-32.277-8.575-4.85-4.85-7.146-11.556-8.13-18.021-.864 6.304-2.536 25.936 8.13 36.602 9.04 9.04 24.521 9.215 32.871 8.533l4.877-16.128z" fill="#75a871"></path><path d="M162.937 136.055c0 8.206 7.449 16.196 12.398 16.822 1.338.17 2.547.905 3.371 1.974a17.258 17.258 0 0 0 13.669 6.72 17.258 17.258 0 0 0 13.69-6.652c.833-1.07 2.051-1.805 3.396-1.971 4.972-.611 12.463-8.687 12.463-16.833l-.001-.002c2.944-5.092 3.169-11.571.021-17.033-3.149-5.462-8.867-8.515-14.749-8.52-2.942-5.093-8.442-8.524-14.747-8.524-6.278 0-11.759 3.402-14.71 8.461-5.856.005-11.553 3.03-14.712 8.457-3.172 5.449-2.974 11.928-.052 17.033l-.037.068z" fill="#ffc265"></path><path d="M226.515 136.055c0 8.206 7.449 16.196 12.398 16.822 1.338.17 2.548.905 3.371 1.974a17.258 17.258 0 0 0 13.669 6.72 17.258 17.258 0 0 0 13.69-6.652c.833-1.07 2.051-1.805 3.396-1.971 4.972-.611 12.463-8.687 12.463-16.833l-.001-.002c2.944-5.092 3.169-11.571.021-17.033-3.149-5.462-8.867-8.515-14.749-8.52-2.942-5.093-8.442-8.524-14.747-8.524-6.279 0-11.759 3.402-14.71 8.461-5.856.005-11.553 3.03-14.712 8.457-3.172 5.449-2.974 11.928-.052 17.033l-.037.068z" fill="#ff9a00"></path><path d="M273.039 143.949c-1.346.165-2.563.901-3.396 1.971a17.258 17.258 0 0 1-13.69 6.651 17.258 17.258 0 0 1-13.669-6.72c-.823-1.068-2.033-1.804-3.371-1.974-4.949-.626-9.563-3.365-12.398-7.822-2.918 5.076-3.144 11.52-.021 16.965 3.137 5.469 8.849 8.534 14.731 8.551 2.931 5.1 8.424 8.542 14.728 8.555 6.305.014 11.812-3.405 14.765-8.492 5.882.008 11.607-3.032 14.767-8.488 3.16-5.455 2.949-11.933.017-17.031-2.847 4.481-7.491 7.223-12.463 7.834z" fill="#f28a00"></path><path d="M146.015 58.541c0 8.474 2.872 17.765 7.539 22.432 8.504 8.504 27.254 9.682 38.562 3.271-.748-6.956-2.917-14.513-8.208-19.805-12.49-12.49-37.619-7.611-37.619-7.611s-.12.621-.274 1.713z" fill="#82bc7e"></path><path d="M209.461 143.949c-1.346.165-2.563.901-3.396 1.971a17.258 17.258 0 0 1-13.69 6.651 17.258 17.258 0 0 1-13.669-6.72c-.823-1.068-2.033-1.804-3.371-1.974-4.949-.626-9.563-3.365-12.398-7.822-2.918 5.076-3.144 11.52-.021 16.965 3.137 5.469 8.849 8.534 14.731 8.551 2.931 5.1 8.424 8.542 14.728 8.555 6.305.014 11.812-3.405 14.765-8.492 5.882.008 11.607-3.032 14.768-8.488 3.16-5.455 2.949-11.933.017-17.031-2.848 4.481-7.492 7.223-12.464 7.834z" fill="#ffb24d"></path><path d="M290.076 136.055c0 8.206 7.449 16.196 12.398 16.822 1.338.17 2.547.905 3.371 1.974a17.258 17.258 0 0 0 13.669 6.72 17.258 17.258 0 0 0 13.69-6.652c.833-1.07 2.051-1.805 3.396-1.971 4.972-.611 12.463-8.687 12.463-16.833l-.001-.002c2.944-5.092 3.169-11.571.021-17.033-3.149-5.462-8.867-8.515-14.749-8.52-2.942-5.093-8.442-8.524-14.747-8.524-6.279 0-11.759 3.402-14.71 8.461-5.856.005-11.553 3.03-14.712 8.457-3.172 5.449-2.974 11.928-.052 17.033-.014.023-.025.046-.037.068z" fill="#ff8088"></path><path d="M336.6 143.949c-1.346.165-2.563.901-3.396 1.971a17.258 17.258 0 0 1-13.69 6.651 17.258 17.258 0 0 1-13.669-6.72c-.823-1.068-2.033-1.804-3.371-1.974-4.949-.626-9.564-3.365-12.398-7.822-2.918 5.076-3.144 11.52-.021 16.965 3.137 5.469 8.849 8.534 14.731 8.551 2.931 5.1 8.424 8.542 14.728 8.555 6.305.014 11.812-3.405 14.765-8.492 5.882.008 11.607-3.032 14.767-8.488 3.16-5.455 2.949-11.933.017-17.031-2.848 4.481-7.491 7.223-12.463 7.834z" fill="#ff667c"></path><path d="M153.901 75.867c-4.667-4.667-6.908-11.099-7.885-17.326-.829 5.866-2.644 25.377 7.885 35.906 12.49 12.49 37.619 7.611 37.619 7.611s1.615-8.35.597-17.814c-11.051.578-29.713.127-38.216-8.377z" fill="#75a871"></path><g fill="#fff0c8"><path d="M200.729 135.848c0-4.64-3.775-8.414-8.414-8.414s-8.414 3.774-8.414 8.414 3.775 8.414 8.414 8.414c4.64 0 8.414-3.775 8.414-8.414zM224.157 89.072c4.64 0 8.414-3.775 8.414-8.414 0-4.64-3.774-8.414-8.414-8.414s-8.414 3.775-8.414 8.414 3.775 8.414 8.414 8.414z" fill="#fff0c8"></path><circle cx="287.861" cy="80.658" fill="#fff0c8" r="8.414"></circle><path d="M256 144.262c4.64 0 8.414-3.774 8.414-8.414s-3.775-8.414-8.414-8.414c-4.64 0-8.414 3.774-8.414 8.414 0 4.639 3.774 8.414 8.414 8.414zM319.685 144.262c4.639 0 8.414-3.774 8.414-8.414s-3.775-8.414-8.414-8.414-8.414 3.774-8.414 8.414c0 4.639 3.774 8.414 8.414 8.414z" fill="#fff0c8"></path></g><path d="M207.727 356.923h96.546v6.193a7.757 7.757 0 0 0 15.514 0v-6.193h96.547v6.193a7.757 7.757 0 0 0 15.514 0v-6.193H442.4a7.757 7.757 0 0 0 0-15.514h-10.551v-6.193a7.757 7.757 0 0 0-15.514 0v6.193h-96.547v-6.193a7.757 7.757 0 0 0-15.514 0v6.193h-96.546v-6.193a7.757 7.757 0 0 0-15.514 0v6.193H95.666v-6.193a7.757 7.757 0 0 0-15.514 0v6.193H69.6a7.757 7.757 0 0 0 0 15.514h10.551v6.193a7.757 7.757 0 0 0 15.514 0v-6.193h96.547v6.193a7.757 7.757 0 0 0 15.514 0v-6.193z" fill="#ffc265"></path></g></svg>