<svg viewBox="0 0 512 512" xmlns="http://www.w3.org/2000/svg"><g><path d="M255.051 0c-39.073 0-70.746 31.674-70.746 70.747v28.606c4.728-4.383 11.455-6.765 18.021-5.888V89.94c0-2.802 2.393-5.016 5.167-4.806 27.353 1.965 55.19-6.727 76.237-20.476a4.82 4.82 0 0 1 6.164.751c17.994 19.342 17.886 18.593 17.886 21.119v6.923c7.197-1.079 13.582 1.145 18.018 5.27V70.747C325.797 31.674 294.125 0 255.051 0z" fill="#707487"></path><path d="M206.552 70.747c0-35.288 25.836-64.533 59.623-69.869A71.198 71.198 0 0 0 255.051 0c-39.073 0-70.746 31.674-70.746 70.747v28.606c4.728-4.383 11.455-6.765 18.021-5.888V89.94c0-2.479 1.874-4.489 4.226-4.777V70.747z" fill="#5b5d6e"></path><path d="M307.685 90.888v38.906c0 .422-.022.838-.032 1.258 13.768 2.085 24.551-7.863 24.551-20.081-.001-12.241-10.793-22.14-24.519-20.083z" fill="#f0a479"></path><path d="M325.829 96.229c-4.455-4.174-10.889-6.429-18.145-5.341v38.906c0 .422-.022.838-.032 1.258 7.277 1.102 13.719-1.159 18.177-5.34V96.229z" fill="#e59770"></path><path d="M202.483 129.841v-38.99c-12.017-1.605-24.582 7.618-24.582 20.12 0 12.232 10.786 22.224 24.612 20.131-.009-.42-.03-.839-.03-1.261z" fill="#f0a479"></path><path d="M202.483 123.792a20.182 20.182 0 0 1-4.564-12.82c0-4.663 1.749-8.868 4.564-12.227v-7.893c-12.017-1.605-24.582 7.618-24.582 20.12 0 12.232 10.786 22.224 24.612 20.131-.01-.421-.031-.84-.031-1.261v-6.05h.001z" fill="#e59770"></path><path d="M255.805 179.211c-11.43 0-21.474-3.138-29.689-8.387v28.984l29.562 36.49 29.562-36.49v-29.767a51.673 51.673 0 0 1-29.435 9.17z" fill="#f0a479"></path><path d="M248.113 178.714c-8.278-1.073-15.68-3.854-21.997-7.89v28.984l21.997 27.152v-48.246z" fill="#e59770"></path><path d="m363.444 227.611-78.205-30.287-29.562 36.49-29.562-36.49-78.123 30.287s-28.925 11.891-28.925 44.865v129.358c0 5.323 4.316 9.638 9.638 9.638h254.024c5.323 0 9.638-4.316 9.638-9.638V272.476c.001-32.974-28.923-44.865-28.923-44.865z" fill="#e4eaf8"></path><path d="M141.065 401.834V261.477c0-19.551 10.169-31.689 18.448-38.332l-11.52 4.466s-28.925 11.891-28.925 44.865v129.358c0 5.323 4.316 9.638 9.639 9.638h21.997c-5.323.001-9.639-4.315-9.639-9.638z" fill="#d8dce5"></path><path d="M289.894 62.925a4.82 4.82 0 0 0-6.164-.751c-21.047 13.749-48.884 22.441-76.237 20.476-2.774-.21-5.168 2.003-5.168 4.806v42.265c0 27.164 21.284 51.974 53.479 51.974 28.659 0 51.975-23.316 51.975-51.974V84.044c0-2.526.109-1.777-17.885-21.119z" fill="#f0a479"></path><path d="M224.359 129.721V82.553c-5.601.448-11.243.501-16.866.097-2.774-.21-5.167 2.003-5.167 4.806v42.265c0 27.164 21.284 51.974 53.479 51.974 3.513 0 6.945-.355 10.265-1.023-23.76-4.779-41.711-25.806-41.711-50.951z" fill="#e59770"></path><path d="m291.371 252.563 22.106-44.303-28.238-10.936-29.562 36.49 28.822 20.469a4.663 4.663 0 0 0 6.872-1.72z" fill="#d8dce5"></path><path d="m220.025 252.563-22.106-44.303 28.238-10.936 29.562 36.49-28.822 20.469a4.662 4.662 0 0 1-6.872-1.72z" fill="#d8dce5"></path><path d="M285.743 375.682 266.77 263.403h-22.144l-18.973 112.279c-.199 1.447.225 2.915 1.13 3.912l26.194 28.863a3.674 3.674 0 0 0 5.443 0l26.194-28.863c.904-.996 1.327-2.465 1.129-3.912z" fill="#ff5050"></path><path d="M248.816 379.595c-.905-.997-1.329-2.466-1.13-3.912l18.973-112.279h-22.034l-18.973 112.279c-.2 1.447.225 2.915 1.129 3.912l26.194 28.863a3.674 3.674 0 0 0 5.443 0l8.296-9.141-17.898-19.722z" fill="#ed3a3a"></path><path d="M255.716 233.839v-.025l-.018.012-.018-.012v.025l-20.963 14.888 9.909 14.913h22.144l9.908-14.913z" fill="#ed3a3a"></path><path d="m266.697 241.638-10.981-7.799v-.025l-.018.013-.018-.013v.025l-20.963 14.888 9.909 14.913H266.624l-8.506-12.802a2.614 2.614 0 0 1 .664-3.579l7.915-5.621z" fill="#db2a2a"></path><path d="M175.346 411.473V287.407c0-4.556-3.693-8.249-8.249-8.249s-8.249 3.693-8.249 8.249v124.066h16.498zM351.254 411.473V287.407c0-4.556-3.693-8.249-8.249-8.249s-8.249 3.693-8.249 8.249v124.066h16.498z" fill="#d8dce5"></path><path d="M67.674 366.523a7.727 7.727 0 0 1-7.727-7.727V242.085c0-1.693.556-3.339 1.583-4.686l41.291-54.14a7.727 7.727 0 0 1 12.288 9.372l-39.708 52.065v114.101a7.727 7.727 0 0 1-7.727 7.726zM444.326 366.523a7.727 7.727 0 0 1-7.727-7.727V244.695l-39.708-52.065a7.727 7.727 0 0 1 12.288-9.372l41.291 54.14a7.728 7.728 0 0 1 1.583 4.686v116.712a7.728 7.728 0 0 1-7.727 7.727z" fill="#e4eaf8"></path><circle cx="121.16" cy="171.63" fill="#707487" r="20.53"></circle><circle cx="390.84" cy="171.63" fill="#707487" r="20.53"></circle><path d="M121.313 171.628c0-7.563 4.102-14.154 10.191-17.715a20.401 20.401 0 0 0-10.339-2.814c-11.338 0-20.53 9.191-20.53 20.53s9.191 20.53 20.53 20.53c3.775 0 7.3-1.036 10.339-2.814-6.09-3.563-10.191-10.153-10.191-17.717zM390.984 171.628c0-7.563 4.102-14.154 10.191-17.715a20.401 20.401 0 0 0-10.339-2.814c-11.338 0-20.53 9.191-20.53 20.53s9.191 20.53 20.53 20.53c3.775 0 7.3-1.036 10.339-2.814-6.089-3.563-10.191-10.153-10.191-17.717z" fill="#5b5d6e"></path><path d="M54.74 402.123v101.513A8.364 8.364 0 0 0 63.104 512h385.792a8.364 8.364 0 0 0 8.363-8.364V402.123H54.74z" fill="#868b9b"></path><path d="M75.345 503.636V402.123H54.74v101.513A8.364 8.364 0 0 0 63.104 512h20.605a8.364 8.364 0 0 1-8.364-8.364z" fill="#707487"></path><path d="M465.239 409.335H46.761a9.086 9.086 0 0 1-9.086-9.086V359.64a9.086 9.086 0 0 1 9.086-9.086H465.24a9.086 9.086 0 0 1 9.086 9.086v40.609a9.086 9.086 0 0 1-9.087 9.086z" fill="#707487"></path><path d="M464.965 388.73H47.036a9.36 9.36 0 0 1-9.361-9.361v20.605a9.36 9.36 0 0 0 9.361 9.361h417.929a9.36 9.36 0 0 0 9.361-9.361v-20.605c-.001 5.17-4.191 9.361-9.361 9.361z" fill="#5b5d6e"></path></g></svg>