<svg id="Icons" viewBox="0 0 60 60" xmlns="http://www.w3.org/2000/svg"><path d="m44.9 24.36 12.47 2.33c.94.18 1.63 1.01 1.63 1.97v20.34c0 1.1-.9 2-2 2h-16v-27z" fill="#c6c6c6"/><path d="m43 24v25c0 1.105-.895 2-2 2h-36c-1.1 0-2-.9-2-2v-25l20-13z" fill="#ddd"/><path d="m33 16.86v-4.86c0-.55.45-1 1-1h3c.55 0 1 .45 1 1v8z" fill="#c6352a"/><path d="m42.722 26c-.407 0-.819-.111-1.191-.344l-18.531-11.616-18.531 11.616c-1.071.669-2.472.331-3.131-.76-.659-1.09-.325-2.518.746-3.189l19.724-12.363c.731-.458 1.654-.458 2.385 0l19.724 12.363c1.071.671 1.404 2.099.745 3.189-.43.712-1.176 1.104-1.94 1.104z" fill="#e14533"/><path d="m8 51v-20c0-1.105.895-2 2-2h6c1.105 0 2 .895 2 2v20z" fill="#2a2e44"/><rect fill="#58c7e0" height="14" rx="2" width="14" x="24" y="29"/><path d="m36 28h-10c-1.654 0-3 1.346-3 3v10c0 1.654 1.346 3 3 3h10c1.654 0 3-1.346 3-3v-10c0-1.654-1.346-3-3-3zm1 3v4h-5v-5h4c.552 0 1 .449 1 1zm-11-1h4v5h-5v-4c0-.551.448-1 1-1zm-1 11v-4h5v5h-4c-.552 0-1-.448-1-1zm11 1h-4v-5h5v4c0 .552-.448 1-1 1z" fill="#2a2e44"/><path d="m54 37h-2v-2c0-.553-.447-1-1-1s-1 .447-1 1v2h-2c-.553 0-1 .447-1 1s.447 1 1 1h2v2c0 .553.447 1 1 1s1-.447 1-1v-2h2c.553 0 1-.447 1-1s-.447-1-1-1z" fill="#fff"/></svg>