<svg viewBox="0 0 497.061 497.061" xmlns="http://www.w3.org/2000/svg"><g><path d="m93.213 103.422-42 52.598a7.102 7.102 0 0 1-9.982 1.118L5.622 128.704a7.102 7.102 0 0 1-1.118-9.982l42-52.598z" fill="#fe646f"></path><path d="M218.542 211.215a7.473 7.473 0 0 1-4.719-1.674l-17.337-14.057L44.992 74.514a7.5 7.5 0 0 1-1.181-10.541 7.499 7.499 0 0 1 10.54-1.181l151.538 121.005 17.381 14.092a7.5 7.5 0 0 1-4.728 13.326z" fill="#efe2dd"></path><path d="m131.052 203.715-12.719 2.173-32.054 32.054 2.063 19.523 33.399 36.15 33.951 39.74 49.42-86.98z" fill="#f9f3f1"></path><path d="M102.771 225.666a11.902 11.902 0 0 1-1.748-2.468l-14.744 14.744 2.063 19.523 33.4 36.15 33.95 39.74 16.867-29.686z" fill="#f3eae6"></path><path d="M12.004 433.72 209.15 182.009a6.102 6.102 0 0 1 5.149-2.333l41.198 2.307 32.63 2.564L80.499 460.225 5.567 442.176z" fill="#f3eae6"></path><path d="m395.802 184.695-197.01 275.53h-157.5l27.72-39.91 193.22-246.94a6.11 6.11 0 0 1 5.15-2.33l84.2 4.72z" fill="#efe2dd"></path><path d="m395.802 184.695-87.23 122-36.25-24.36-25.8-19.36c-2.87-2.16-3.42-6.25-1.22-9.08l62.54-80.58 43.74 2.45z" fill="#e1d3ce"></path><path d="M453.031 43.175H437.1l-72.684 72.684-11.924 42.836 1.01 16.76c.05.84-.21 1.67-.72 2.34l-192.8 250.5-33.76 44.29s225.1 7.19 225.36 0c.25-7.19 27.25-50.02 27.25-50.02l71.63-97.86c61.47-83.97 61.92-197.34 2.569-281.53z" fill="#8abbd5"></path><path d="M128.581 396.384a149.805 149.805 0 0 0-27.117-2.486c-9.835 0-19.711.978-29.355 2.907l-36.984 7.397-23.12 29.519-6.437 8.456L80.5 460.226z" fill="#efe2dd"></path><path d="M231.978 413.812a99.633 99.633 0 0 1-15.871 1.283 99.8 99.8 0 0 1-24.539-3.067l-53.257-13.525a149.821 149.821 0 0 0-36.847-4.606c-4.059 0-8.124.176-12.178.507l-20.274 25.911-27.72 39.91h157.5z" fill="#e1d3ce"></path><path d="M332.897 390.569a149.532 149.532 0 0 0-44.41 6.74c-2.433.756-4.397-2.065-2.844-4.084l123.399-160.483a133.62 133.62 0 0 0 25.656-104.697L422.316 57.96l-57.9 57.9-11.924 42.836 1.01 16.76c.05.84-.21 1.67-.72 2.34L175.619 407.978l-49.397 64.607s225.1 7.19 225.36 0c.25-7.19 27.25-50.02 27.25-50.02l14.534-19.856a100.146 100.146 0 0 1-7.73-2.542 149.193 149.193 0 0 0-52.739-9.598z" fill="#6cabca"></path><path d="m490.022 410.693-4.638 2.811a124.688 124.688 0 0 1-108.556 10.06 124.688 124.688 0 0 0-80.924-2.381L253.1 434.482a124.682 124.682 0 0 1-67.686 1.778l-53.258-13.526a124.677 124.677 0 0 0-55.145-1.415L3.729 435.975A4.64 4.64 0 0 0 0 440.524v28.204a9.097 9.097 0 0 0 9.097 9.097h482.169a2.399 2.399 0 0 0 2.399-2.399v-62.681c0-1.869-2.044-3.021-3.643-2.052z" fill="#99e6fc"></path><path d="m490.022 410.693-4.638 2.811a124.688 124.688 0 0 1-108.556 10.06 124.688 124.688 0 0 0-80.924-2.381L253.1 434.482a124.682 124.682 0 0 1-67.686 1.778l-53.258-13.526a124.677 124.677 0 0 0-55.145-1.415L3.729 435.975A4.64 4.64 0 0 0 0 440.524v27.35a4.638 4.638 0 0 1 3.729-4.548l73.282-14.657a124.69 124.69 0 0 1 55.145 1.415l53.258 13.526a124.682 124.682 0 0 0 67.686-1.778l42.804-13.298a124.688 124.688 0 0 1 80.924 2.381 124.688 124.688 0 0 0 108.556-10.06l4.638-2.811c1.599-.969 3.643.182 3.643 2.052v-27.35c0-1.871-2.044-3.022-3.643-2.053z" fill="#62dbfb"></path><path d="m453.032 43.175-100.54 115.52-2.83-47.23c-.16-2.52.68-5 2.33-6.91l70.45-81.94c3.97-4.62 11.16-4.48 14.96.28l6.98 8.75c3.01 3.78 5.9 7.62 8.65 11.53z" fill="#fe646f"></path><path d="M422.536 28.027c-.16-2.52.68-5 2.33-6.91l.829-.964a9.655 9.655 0 0 0-3.253 2.461l-70.45 81.94a9.638 9.638 0 0 0-2.33 6.91l2.83 47.23 72.858-83.713z" fill="#fd4755"></path><path d="m109.362 191.215 21.69 12.5-42.71 53.75-17-18.39a11.862 11.862 0 0 1-.58-15.42l23.46-29.52c3.64-4.57 10.06-5.82 15.14-2.92z" fill="#efe2dd"></path><path d="M102.771 225.666a11.862 11.862 0 0 1-.58-15.42l12.626-15.887-5.455-3.144c-5.08-2.9-11.5-1.65-15.14 2.92l-23.46 29.52a11.862 11.862 0 0 0 .58 15.42l17 18.39 20.169-25.383zM219.762 291.627a7.5 7.5 0 0 1-5.817-12.229l4.83-5.945a7.5 7.5 0 0 1 11.643 9.458l-4.83 5.945a7.484 7.484 0 0 1-5.826 2.771zM196.375 320.138a7.5 7.5 0 0 1-5.817-12.229l4.83-5.945a7.5 7.5 0 0 1 11.643 9.458l-4.83 5.945a7.486 7.486 0 0 1-5.826 2.771zM172.987 348.65a7.5 7.5 0 0 1-5.817-12.229l4.83-5.945a7.5 7.5 0 0 1 11.643 9.458l-4.83 5.945a7.484 7.484 0 0 1-5.826 2.771zM149.599 377.161a7.5 7.5 0 0 1-5.816-12.229l4.831-5.945a7.498 7.498 0 0 1 10.55-1.091 7.5 7.5 0 0 1 1.091 10.55l-4.831 5.945a7.484 7.484 0 0 1-5.825 2.77z" fill="#e1d3ce"></path><path d="M126.212 405.673a7.5 7.5 0 0 1-5.816-12.229l4.831-5.945a7.498 7.498 0 0 1 10.55-1.091 7.5 7.5 0 0 1 1.091 10.55l-4.831 5.945a7.487 7.487 0 0 1-5.825 2.77z" fill="#cdbfba"></path><g fill="#3692bc"><circle cx="415.031" cy="197.871" fill="#3692bc" r="19.234" transform="rotate(-31.72 414.81 197.779)"></circle><circle cx="370.811" cy="262.409" fill="#3692bc" r="19.234" transform="rotate(-22.48 370.66 262.045)"></circle><circle cx="326.592" cy="326.947" fill="#3692bc" r="19.234" transform="rotate(-22.48 326.503 326.557)"></circle></g></g></svg>