<svg id="Capa_1" enable-background="new 0 0 512 512" height="512" viewBox="0 0 512 512" width="512" xmlns="http://www.w3.org/2000/svg"><g><path d="m451 226c0 124.2-100.8 225-225 225s-226-100.8-226-225 101.8-226 226-226 225 101.8 225 226z" fill="#f25555"/><path d="m451 226c0 124.2-100.8 225-225 225v-451c124.2 0 225 101.8 225 226z" fill="#d93752"/><path d="m421 226c0 107.699-87.299 195-195 195s-196-87.301-196-195c0-107.701 88.299-196 196-196s195 88.299 195 196z" fill="#f9f5f3"/><path d="m421 226c0 107.699-87.299 195-195 195v-391c107.701 0 195 88.299 195 196z" fill="#f0dbd8"/><g><path d="m211 61h30v30h-30z" fill="#80664d"/></g><g><path d="m211 361h30v30h-30z" fill="#80664d"/></g><g><path d="m104.932 104.932h29.997v29.997h-29.997z" fill="#80664d" transform="matrix(.707 -.707 .707 .707 -49.677 119.931)"/></g><g><path d="m104.932 317.071h29.997v29.997h-29.997z" fill="#80664d" transform="matrix(.707 -.707 .707 .707 -199.682 182.065)"/></g><g><path d="m317.071 104.932h29.997v29.997h-29.997z" fill="#594135" transform="matrix(.707 -.707 .707 .707 12.457 269.935)"/></g><g><path d="m61 211h30v30h-30z" fill="#80664d"/></g><g><path d="m361 211h30v30h-30z" fill="#594135"/></g><g><path d="m301 211v30h-90v-120h30v90z" fill="#80664d"/></g><g><path d="m391 271c-66.301 0-120 53.699-120 120 0 66.299 53.699 121 120 121s121-54.701 121-121c0-66.301-54.699-120-121-120z" fill="#57d9ad"/></g><path d="m512 391c0 66.299-54.699 121-121 121v-241c66.301 0 121 53.699 121 120z" fill="#26bfa6"/><g><path d="m446.499 371.499-55.499 55.8-15 15-40.499-40.8 20.998-21 19.501 19.2 15-15 34.501-34.2z" fill="#f9f5f3"/></g><path d="m446.499 371.499-55.499 55.8v-42.6l34.501-34.2z" fill="#f0dbd8"/><g fill="#594135"><path d="m226 61h15v30h-15z"/><path d="m226 361h15v30h-15z"/><path d="m301 211v30h-75v-120h15v90z"/></g></g></svg>