<svg viewBox="0 0 510.421 510.421" xmlns="http://www.w3.org/2000/svg"><g><path d="M510.005 510.42h-180.24l-56.44-20.63-17.64 3.97V335.79l86.01.55 139.77 71.36z" fill="#5c5ccc"></path><path d="M255.685 335.79v157.97l-74.08 16.66H.415l27.11-103 144.32-72.16z" fill="#7288ff"></path><path d="m120.685 425.26 30-80 18.99-8.916 37.595 100.342 7.328 73.735h-32.992z" fill="#fff68e"></path><path d="m390.686 425.26-30-80-18.99-8.916-41.011 102.243-3.912 71.834h32.992z" fill="#ffde55"></path><path d="m345.815 320.36-49.04 190.06h-26.09l-15-3.917V322.13z" fill="#efe2de"></path><path d="M255.685 322.13v183.481l-15 4.809h-26.09l-15.583-60.381-32.557-126.149z" fill="#fff5f5"></path><path d="M270.685 375.26v135.16h-15l-4.217-47.76 4.217-87.4z" fill="#beb2ae"></path><path d="M240.685 375.26h15v135.16h-15z" fill="#dbd1cc"></path><path d="M495.685 242.24v.99c0 26.87-21.49 48.65-48 48.65 0 14.92-5.97 28.44-15.62 38.22s-22.98 15.83-37.71 15.83h-138.67l-30-269.007 30-76.923h27.01c82.28 0 148.99 67.6 148.99 151v21.96l42.63 28.8c13.35 9.03 21.37 24.21 21.37 40.48z" fill="#efe2de"></path><path d="M255.685 0v345.93h-138.67c-29.45 0-53.33-24.2-53.33-54.05-13.26 0-25.26-5.44-33.94-14.25-8.69-8.8-14.06-20.97-14.06-34.4v-.99c0-16.27 8.02-31.45 21.37-40.48l42.63-28.8V151c0-83.4 66.71-151 148.99-151z" fill="#fff5f5"></path><path d="M382.705 219.09v37.05c0 70.15-56.87 127.02-127.02 127.02l-7.5-181.246 7.5-78.093 15.54-12.95a58.299 58.299 0 0 1 37.32-13.51c16.1 0 30.67 6.52 41.22 17.07 10.54 10.55 17.07 25.12 17.07 41.22v26.39z" fill="#ffccbd"></path><path d="M255.685 123.82v259.34c-35.08 0-66.83-14.22-89.82-37.2-22.98-22.99-37.2-54.74-37.2-89.82v-37.05l15.87-37.05v-26.39c0-32.2 26.1-58.29 58.29-58.29 6.82 0 13.53 1.2 19.84 3.48a58.255 58.255 0 0 1 17.48 10.03z" fill="#ffddce"></path><path d="M180.685 210.26h30v30h-30z" fill="#00337a"></path><path d="M300.685 210.26h30v30h-30z" fill="#002659"></path><path d="M270.685 210.26v60h-15l-5.913-30 5.913-30z" fill="#f9a58d"></path><path d="M240.685 210.26h15v60h-15z" fill="#ffbda9"></path><path d="M285.685 300.26v30h-30l-5.913-15 5.913-15z" fill="#f9a58d"></path><path d="M225.685 300.26h30v30h-30z" fill="#ffbda9"></path></g></svg>