<svg viewBox="0 0 512 512" xmlns="http://www.w3.org/2000/svg"><g><path d="M419.848 206.512V105.199H293.695v101.313c-54.297 24.175-92.152 78.601-92.152 141.87 0 85.731 69.496 155.227 155.227 155.227S512 434.113 512 348.383c0-63.27-37.86-117.695-92.152-141.871zm0 0" fill="#c9fff7"></path><path d="M480.586 348.387c0 68.273-55.54 123.808-123.82 123.808-22.461 0-43.54-6.007-61.715-16.511-37.09-21.403-62.094-61.485-62.094-107.297 0-34.25 14.188-66.301 38.04-89.266h171.546c23.855 22.965 38.043 55.016 38.043 89.266zm0 0" fill="#f7d360"></path><path d="M322.055 206.516v-28.04c0-15.19 12.312-27.503 27.5-27.503h70.293v-30.067l-25.016-22.765-23.559-6.282-77.574 29.043v85.614c-54.304 24.175-92.156 78.593-92.156 141.87 0 85.36 68.898 154.626 154.133 155.212-46.68-1.078-84.332-70.157-84.332-155.211 0-63.278 20.836-117.696 50.71-141.871zm0 0" fill="#72cec0"></path><path d="M295.05 455.684c-37.09-21.403-62.093-61.485-62.093-107.297 0-34.25 14.188-66.301 38.04-89.266h15.886c-9.793 25.246-15.54 56.031-15.54 89.266 0 41.62 9.016 79.414 23.708 107.297zm0 0" fill="#e58e13"></path><path d="M303.523 436.11 202.715 261.503v-90.34H106.91v90.34L6.102 436.109c-17.32 30 4.328 67.5 38.972 67.5h219.48c34.641 0 56.294-37.5 38.97-67.5zm0 0" fill="#e6e6e6"></path><path d="m202.715 171.164-29.332-16.48-56.215.586-10.262 15.894V261.5L6.102 436.113c-17.332 30 4.324 67.496 38.96 67.496h59.918c-15.73 0-25.562-37.496-17.699-67.496L133.062 261.5v-46.379c0-9.531 7.727-17.254 17.258-17.254h52.395zm0 0" fill="#cccccc"></path><path d="M237.45 150.746c0 11.277-9.141 20.418-20.419 20.418H92.59a20.346 20.346 0 0 1-14.438-5.98 20.362 20.362 0 0 1-5.98-14.438c0-11.277 9.14-20.418 20.418-20.418H217.03a20.36 20.36 0 0 1 14.438 5.977 20.379 20.379 0 0 1 5.98 14.441zm0 0" fill="#cccccc"></path><path d="M237.45 150.746c0 11.277-9.141 20.418-20.419 20.418H142.11a20.342 20.342 0 0 1-14.441-5.98 20.36 20.36 0 0 1-5.977-14.438c0-11.277 9.141-20.418 20.418-20.418h74.922a20.36 20.36 0 0 1 14.438 5.977 20.379 20.379 0 0 1 5.98 14.441zm0 0" fill="#e6e6e6"></path><path d="M455.016 100.484c0 11.278-9.141 20.418-20.418 20.418H280.664a20.348 20.348 0 0 1-14.441-5.976 20.379 20.379 0 0 1-5.98-14.442c0-11.277 9.144-20.418 20.421-20.418h153.934a20.346 20.346 0 0 1 14.437 5.98 20.346 20.346 0 0 1 5.98 14.438zm0 0" fill="#72cec0"></path><path d="M455.016 100.484c0 11.278-9.141 20.418-20.418 20.418h-106.22a20.375 20.375 0 0 1-14.44-5.976 20.375 20.375 0 0 1-5.977-14.442c0-11.277 9.14-20.418 20.418-20.418h106.219a20.346 20.346 0 0 1 14.437 5.98 20.346 20.346 0 0 1 5.98 14.438zm0 0" fill="#c9fff7"></path><path d="M276.316 465.402c-1.464 2.543-4.941 6.793-11.757 6.793H45.074c-6.828 0-10.304-4.25-11.77-6.793-1.464-2.535-3.413-7.675 0-13.582l74.083-128.312h94.86l74.07 128.312c3.413 5.907 1.464 11.047 0 13.582zm0 0" fill="#fc5f61"></path><g fill="#e83842"><path d="M87.281 436.113c-3.086 11.782-3.445 24.711-1.789 36.082H45.074c-6.828 0-10.304-4.25-11.77-6.793-1.464-2.535-3.413-7.675 0-13.582l74.083-128.312h9.414zM171.7 413.031c-7.134 0-10.528-9.168-5.095-13.82 5.403-4.625 13.883.094 12.864 7.125-.551 3.805-3.934 6.695-7.77 6.695zM137.063 91.07c-6.856 0-10.38-8.57-5.551-13.414 2.61-2.613 6.84-3.02 9.906-.972 2.687 1.789 4.027 5.156 3.289 8.3-.82 3.512-4.031 6.086-7.644 6.086zM168.316 61.227c-7.105 0-10.578-9.204-5.101-13.829 2.605-2.203 6.406-2.484 9.3-.66 2.782 1.754 4.2 5.2 3.45 8.407-.82 3.503-4.031 6.082-7.649 6.082zM151.293 15.68c-3.43 0-6.516-2.305-7.52-5.575-.996-3.261.317-6.921 3.153-8.812 5.828-3.89 13.715 1.61 11.976 8.441-.879 3.446-4.047 5.946-7.609 5.946zm0 0" fill="#e83842"></path></g><path d="M425.727 307.813c-6.98 0-10.461-8.915-5.313-13.641 4.934-4.527 13.168-.914 13.168 5.785 0 4.27-3.578 7.855-7.855 7.855zM431.195 360.188c-6.84 0-10.425-8.575-5.55-13.403 2.437-2.414 6.226-2.972 9.253-1.367 2.903 1.543 4.536 4.828 4.067 8.074-.555 3.809-3.938 6.696-7.77 6.696zM328.766 419.316c-3.36 0-6.399-2.207-7.454-5.39-1.117-3.36.239-7.172 3.22-9.078 5.913-3.786 13.679 1.906 11.8 8.699-.926 3.36-4.074 5.77-7.566 5.77zM292.64 353.348c-7.097 0-10.542-9.153-5.132-13.79 2.597-2.23 6.402-2.507 9.305-.706 2.753 1.714 4.183 5.085 3.511 8.261-.758 3.586-4.011 6.235-7.683 6.235zM388.441 334.5c-7.02 0-10.496-8.965-5.27-13.664 2.606-2.344 6.505-2.672 9.474-.816 2.714 1.703 4.125 5.023 3.503 8.167-.718 3.625-4.015 6.313-7.707 6.313zm0 0" fill="#ffffff"></path><path d="M116.738 429.297c-3.152 0-6.047-1.945-7.258-4.848-1.328-3.195-.335-7.035 2.391-9.172 5.598-4.379 14.004.668 12.563 7.703-.743 3.625-3.985 6.317-7.696 6.317zM137.156 378.48c-3.285 0-6.285-2.113-7.394-5.207-1.18-3.289.027-7.093 2.902-9.085 5.59-3.872 13.43 1.039 12.223 7.785-.664 3.71-3.95 6.507-7.73 6.507zm0 0" fill="#e83842"></path></g></svg>