<svg viewBox="0 0 56 59" xmlns="http://www.w3.org/2000/svg"><g><g fill="none" fill-rule="evenodd"><path d="M47.44 17.25A30.368 30.368 0 0 1 54 35.69C54 50.05 42.36 59 28 59S2 50.05 2 35.69 13.64 7 28 7a21.7 21.7 0 0 1 7.58 1.37z" fill="#f0c419"></path><path d="M15 17.18a1 1 0 0 1-.663-1.749 21.286 21.286 0 0 1 9.442-4.956 1 1 0 1 1 .442 1.951 19.28 19.28 0 0 0-8.558 4.5 1 1 0 0 1-.663.254z" fill="#f9eab0"></path><path d="M53 18a1 1 0 0 1-.707-1.707l2-2a1 1 0 0 1 1.414 1.414l-2 2A1 1 0 0 1 53 18z" fill="#7d6599"></path><path d="M55 18a1 1 0 0 1-.707-.293l-2-2a1 1 0 0 1 1.414-1.414l2 2A1 1 0 0 1 55 18z" fill="#7d6599"></path><path d="M1 18a1 1 0 0 1-.707-1.707l2-2a1 1 0 0 1 1.414 1.414l-2 2A1 1 0 0 1 1 18z" fill="#ff5364"></path><path d="M3 18a1 1 0 0 1-.707-.293l-2-2a1 1 0 0 1 1.414-1.414l2 2A1 1 0 0 1 3 18z" fill="#ff5364"></path><path d="M7 12a1 1 0 0 1-.707-1.707l2-2a1 1 0 0 1 1.414 1.414l-2 2A1 1 0 0 1 7 12z" fill="#7d6599"></path><path d="M9 12a1 1 0 0 1-.707-.293l-2-2a1 1 0 0 1 1.414-1.414l2 2A1 1 0 0 1 9 12z" fill="#7d6599"></path><path d="M35 4a1 1 0 0 1-.707-1.707l2-2a1 1 0 0 1 1.414 1.414l-2 2A1 1 0 0 1 35 4z" fill="#ff5364"></path><path d="M37 4a1 1 0 0 1-.707-.293l-2-2A1 1 0 0 1 35.707.293l2 2A1 1 0 0 1 37 4z" fill="#ff5364"></path><path d="m50.556 1.1-2.83 1.37-5.11 2.48L37.7 7.342l-4.51 2.19a.984.984 0 0 0-.49 1.25c.46 1.16 1.76 3.41 5.31 6.45.76.65 1.48 1.2 2.13 1.66v.01a14.683 14.683 0 0 0 5.08 2.56c.293.068.6-.006.83-.2a1 1 0 0 0 .33-.49l3.07-10.15v-.01l2.51-8.31A1.009 1.009 0 0 0 50.556 1.1z" fill="#fb7b76"></path><path d="M40.136 18.892c-.65-.46-1.37-1.01-2.13-1.66-3.55-3.04-4.85-5.29-5.31-6.45a.984.984 0 0 1 .49-1.25l4.51-2.19zM49.446 10.612v.01l-3.07 10.15a1 1 0 0 1-.33.49l-3.43-16.31 5.11-2.48z" fill="#e64c3c"></path><path d="M11 23a1 1 0 0 1-.79-1.611 6.972 6.972 0 0 1 8.184-2.105 1 1 0 0 1-.785 1.84 5.011 5.011 0 0 0-5.819 1.493A1 1 0 0 1 11 23z" fill="#f29c1f"></path><path d="M44 31c-6.92 0-7-4.95-7-5a1 1 0 0 1 2-.011c.009.317.228 3.011 5 3.011a1 1 0 0 1 0 2z" fill="#f29c1f" fill-rule="nonzero"></path><path d="M38.178 37a14.746 14.746 0 0 1-5.588-1.092 1 1 0 0 1 .818-1.825 12.394 12.394 0 0 0 9.182 0 1 1 0 0 1 .82 1.824A12.7 12.7 0 0 1 38.178 37z" fill="#3f5c6c"></path><path d="M18.045 50.473a5.326 5.326 0 0 1-3.291-.977A4.672 4.672 0 0 1 13 46a1 1 0 0 1 2-.008c.034.75.39 1.45.976 1.92.946.7 2.588.744 4.749.126a35.876 35.876 0 0 0 4.191-1.515c2.8-1.161 4.816-2 9.4-.471 2.49.829 4.76.709 5.921-.316a3.671 3.671 0 0 0 .783-3.54 1 1 0 1 1 1.96-.392c.587 2.935-.447 4.574-1.419 5.431-1.718 1.519-4.662 1.786-7.877.713-3.875-1.29-5.341-.682-8 .423a38 38 0 0 1-4.408 1.591c-1.048.318-2.136.49-3.231.511z" fill="#f29c1f" fill-rule="nonzero"></path><circle cx="18" cy="33" fill="#ecf0f1" r="6"></circle><circle cx="19" cy="33" fill="#35495e" r="2"></circle><circle cx="17.5" cy="31.5" fill="#ffffff" r="1.5"></circle></g></g></svg>