<svg viewBox="0 0 60 60" xmlns="http://www.w3.org/2000/svg"><g><path d="m56.66 14.93-20.8 4.72-5.16 9.65a4.038 4.038 0 0 0 .12 4.15 3.393 3.393 0 0 0 2.44 1.49l4.03 6.14a6.791 6.791 0 0 0-3.15 1.42 6.463 6.463 0 0 1-8.28 0 6.477 6.477 0 0 0-8.29 0 6.463 6.463 0 0 1-8.28 0A6.622 6.622 0 0 0 5.14 41a5.554 5.554 0 0 0-.82.06 38.416 38.416 0 0 1 14.47-8.5 6.062 6.062 0 0 0 3.26-2.52l9.43-14.66a3.022 3.022 0 0 1 1.85-1.31l22-5a3 3 0 0 1 1.33 5.86z" fill="#f9c795"></path><path d="M53.66 32.17a8 8 0 0 1-2.6 5.03l-4.47 4a7.787 7.787 0 0 1-3.42 1.81 6.979 6.979 0 0 1-.74-.51 6.622 6.622 0 0 0-4.15-1.5 6.26 6.26 0 0 0-2.24.42l-.07-.17a6.855 6.855 0 0 1-.67-.65 8.016 8.016 0 0 1 .61-11.31l4.47-4a7.994 7.994 0 0 1 13.28 6.88z" fill="#fdd7ad"></path><g fill="#2fa8cc"><path d="M46.571 45a7.6 7.6 0 0 1-4.771-1.72 5.455 5.455 0 0 0-7.034 0 7.487 7.487 0 0 1-9.538 0 5.455 5.455 0 0 0-7.034 0 7.486 7.486 0 0 1-9.537 0 5.455 5.455 0 0 0-7.034 0 1 1 0 0 1-1.249-1.56 7.486 7.486 0 0 1 9.538 0 5.452 5.452 0 0 0 7.033 0 7.486 7.486 0 0 1 9.538 0 5.454 5.454 0 0 0 7.034 0 7.486 7.486 0 0 1 9.538 0 5.452 5.452 0 0 0 7.033 0 7.486 7.486 0 0 1 9.538 0 1 1 0 0 1-1.252 1.56 5.455 5.455 0 0 0-7.034 0A7.6 7.6 0 0 1 46.571 45zM9.285 49.5a1 1 0 0 1-.625-.22 5.455 5.455 0 0 0-7.034 0 1 1 0 0 1-1.252-1.56 7.486 7.486 0 0 1 9.538 0 1 1 0 0 1-.627 1.78zM30 51a7.6 7.6 0 0 1-4.769-1.716 1 1 0 0 1 1.252-1.56 5.454 5.454 0 0 0 7.034 0 7.486 7.486 0 0 1 9.538 0A1 1 0 0 1 41.8 49.28a5.455 5.455 0 0 0-7.034 0A7.6 7.6 0 0 1 30 51zM59 49.5a1 1 0 0 1-.625-.22 5.455 5.455 0 0 0-7.034 0 1 1 0 0 1-1.252-1.56 7.486 7.486 0 0 1 9.538 0A1 1 0 0 1 59 49.5z" fill="#2fa8cc"></path></g><path d="m38.909 26.615 4.008 4.464-1.488 1.336a2 2 0 0 1-2.824-.152l-1.336-1.488a2 2 0 0 1 .152-2.824l1.488-1.336zM45.593 34.06l4.008 4.465-1.488 1.336a2 2 0 0 1-2.824-.152l-1.336-1.488a2 2 0 0 1 .152-2.824l1.488-1.336z" fill="#4482c3"></path><path d="M39 39a1 1 0 0 1-.707-.293l-1-1a1 1 0 0 1 1.414-1.414l1 1A1 1 0 0 1 39 39z" fill="#f09372"></path><path d="M51.68 25.91a7.987 7.987 0 0 0-9.64-1.76 7.662 7.662 0 0 0-1.66 1.14l-1.49 1.33 10.68 11.92 1.49-1.34a7.289 7.289 0 0 0 1.31-1.54 7.766 7.766 0 0 0 1.29-3.49 7.942 7.942 0 0 0-1.98-6.26z" fill="#df4d60"></path><path d="M49.573 39.535a1 1 0 0 1-.744-.332L38.146 27.292a1 1 0 1 1 1.488-1.335l10.683 11.911a1 1 0 0 1-.744 1.667z" fill="#285680"></path></g></svg>