<svg viewBox="0 0 468.001 468.001" xmlns="http://www.w3.org/2000/svg"><g><path d="M212.392 48.013c13.839 39.396 14.121 82.432.121 121.771-5.002 14.055-10.802 24.515-16.986 24.515s-11.984-10.46-16.986-24.515c-14-39.338-13.718-82.375.121-121.771L195.527 0z" fill="#a8db58"></path><path d="m178.661 80.434 16.865-48.013 16.865 48.013a185.736 185.736 0 0 1 9.774 45.093c2.321-26.054-.994-52.517-9.774-77.514L195.527 0l-16.865 48.013c-8.781 24.998-12.095 51.46-9.774 77.514a185.687 185.687 0 0 1 9.773-45.093z" fill="#8ecc3e"></path><path d="M148.709 132.25h37.758l3.979-27.136c6.778-46.221-41.264-80.856-82.765-59.668 29.806 13.542 47.078 45.242 42.35 77.725z" fill="#8ecc3e"></path><path d="M107.681 45.445a73.588 73.588 0 0 1 7.605 4.016c35.071-3.334 67.652 27.18 61.992 65.784l-2.493 17.005h11.682l3.979-27.136c6.777-46.221-41.264-80.856-82.765-59.669z" fill="#75af23"></path><path d="M243.219 132.25h-37.758l-3.979-27.136c-6.778-46.221 41.264-80.856 82.765-59.668-29.806 13.542-47.078 45.242-42.35 77.725z" fill="#8ecc3e"></path><path d="M214.651 117.272c-5.506-37.548 25.166-67.45 59.119-65.991a73.603 73.603 0 0 1 10.478-5.836c-41.501-21.187-89.543 13.448-82.765 59.668l3.979 27.136h11.385z" fill="#75af23"></path><path d="M221.382 462.941a6 6 0 0 1-6-6v-12.082a6 6 0 0 1 12 0v12.082a6 6 0 0 1-6 6zM170.545 464.206a6 6 0 0 1-6-5.999l-.003-13.569a6 6 0 0 1 5.999-6.001h.001a6 6 0 0 1 6 5.999l.003 13.569a6 6 0 0 1-5.999 6.001zM246.801 456.615a6 6 0 0 1-6-5.999l-.003-11.118a6 6 0 0 1 5.999-6.001h.001a6 6 0 0 1 6 5.999l.003 11.118a6 6 0 0 1-5.999 6.001z" fill="#913a8d"></path><path d="m244.251 91.656-23.412 30.825-24.875-51.025-23.657 50.151-24.631-29.951.133.36c9.942 26.884-2.292 56.929-28.157 69.129C67.83 185.589 29 233.692 29 292.26c0 85.197 83.336 154.106 166.962 154.262 101.711.19 167.414-79.172 166.962-154.262-.353-58.595-38.765-106.997-90.527-131.413-25.889-12.211-38.127-42.291-28.146-69.191z" fill="#ba4aa5"></path><path d="M297.255 324.944c-83.626-.156-166.962-69.066-166.962-154.262 0-5.793.394-11.478 1.129-17.054a55.004 55.004 0 0 1-11.769 7.518c-51.822 24.444-90.652 72.547-90.652 131.115 0 85.197 83.336 154.106 166.962 154.262 92.155.172 154.75-64.961 165.362-133.053-19.211 7.347-40.686 11.517-64.07 11.474z" fill="#af46a0"></path><path d="M362.925 292.261c-.247-40.969-19.113-76.941-48.126-103.229-.804-.013-1.607-.031-2.415-.031-80.971 0-146.611 65.773-146.611 146.908 0 43.624 18.983 82.8 49.115 109.706 90.86-8.964 148.461-83.031 148.037-153.354z" fill="#9e3f95"></path><path d="M62.427 301.379c0-58.568 38.83-106.671 90.652-131.115 25.579-12.065 37.812-41.582 28.463-68.236l-9.235 19.579-24.631-29.951.133.36c9.942 26.884-2.292 56.929-28.157 69.129C67.83 185.589 29 233.692 29 292.26c0 76.466 67.133 139.8 141.353 152.093-59.802-22.909-107.926-78.234-107.926-142.974z" fill="#9e3f95"></path><path d="M150.832 433.97c-48.264-33.965-77.079-87.119-77.079-142.188 0-26.408 6.327-51.623 18.804-74.945a6.001 6.001 0 0 0-10.581-5.661c-13.419 25.083-20.223 52.203-20.223 80.606 0 57.895 29.626 113.709 79.399 149.99v8.842a6 6 0 0 0 12 0v-10.126a5.995 5.995 0 0 0-2.32-6.518zM248.904 444.878a6.002 6.002 0 0 1-3.643-10.772c44.581-33.999 73.199-89.851 72.91-142.29-.146-26.453-6.5-51.685-18.888-74.997a6 6 0 0 1 10.597-5.631c13.308 25.043 20.135 52.148 20.292 80.561.309 56.073-30.164 115.696-77.633 151.898a5.97 5.97 0 0 1-3.635 1.231z" fill="#913a8d"></path><path d="M279.062 231.786a6.001 6.001 0 0 0-11.252 4.17c6.591 17.781 9.988 36.575 10.094 55.859.274 49.78-23.599 99.475-62.458 133.003 12.658-24.446 21.431-51.002 26.147-79.278 5.991-35.924 5.216-72.885-2.303-109.856a6 6 0 0 0-11.759 2.391c14.425 70.927 3.144 140.514-31.712 197.054-36.031-58.59-47.697-130.878-31.926-199.921a6 6 0 0 0-11.698-2.672c-14.966 65.521-6.259 133.878 23.721 191.778-38.72-33.569-61.893-82.213-61.893-132.533 0-19.478 3.066-38.307 9.114-55.962a6 6 0 0 0-11.353-3.889c-6.477 18.91-9.761 39.047-9.761 59.851 0 62.723 33.622 122.948 87.942 158.014v12.204a6 6 0 0 0 12 0v-12.193c26.095-16.751 48.099-40.204 63.752-68.055 15.991-28.454 24.355-59.576 24.188-90.003-.116-20.688-3.764-40.863-10.843-59.962z" fill="#913a8d"></path><ellipse cx="312.385" cy="335.909" fill="#e086dc" rx="126.616" ry="126.645"></ellipse><ellipse cx="312.385" cy="335.909" fill="#ffddf4" rx="113.13" ry="112.954"></ellipse><path d="M312.385 429.387c-51.532 0-93.455-41.934-93.455-93.477s41.924-93.477 93.455-93.477 93.456 41.934 93.456 93.477-41.924 93.477-93.456 93.477z" fill="#e086dc"></path><path d="M312.385 417.318c-44.878 0-81.389-36.519-81.389-81.408s36.511-81.408 81.389-81.408 81.39 36.519 81.39 81.408-36.512 81.408-81.39 81.408z" fill="#ffddf4"></path><path d="M312.385 396.219c-33.247 0-60.296-27.055-60.296-60.31s27.048-60.31 60.296-60.31 60.296 27.055 60.296 60.31-27.049 60.31-60.296 60.31z" fill="#e086dc"></path><path d="M312.385 385.263c-27.208 0-49.342-22.14-49.342-49.354s22.135-49.354 49.342-49.354c27.208 0 49.343 22.14 49.343 49.354s-22.136 49.354-49.343 49.354z" fill="#ffddf4"></path><path d="M312.385 363.051c-14.962 0-27.136-12.176-27.136-27.142s12.173-27.142 27.136-27.142 27.136 12.176 27.136 27.142-12.173 27.142-27.136 27.142z" fill="#e2a1dc"></path><path d="M312.385 351.173c-8.415 0-15.26-6.848-15.26-15.264s6.846-15.264 15.26-15.264c8.415 0 15.261 6.848 15.261 15.264s-6.846 15.264-15.261 15.264z" fill="#ffddf4"></path><path d="M356.107 44.838H345.9V34.627a6 6 0 0 0-12 0v10.211h-10.207a6 6 0 0 0 0 12H333.9v10.21a6 6 0 0 0 12 0v-10.21h10.207a6 6 0 0 0 0-12z" fill="#af46a0"></path><path d="M66.479 138.888c-13.92 0-25.246-11.493-25.246-25.621s11.325-25.621 25.246-25.621 25.246 11.494 25.246 25.621-11.326 25.621-25.246 25.621zm0-39.241c-7.304 0-13.246 6.11-13.246 13.621 0 7.51 5.942 13.621 13.246 13.621s13.246-6.11 13.246-13.621c-.001-7.511-5.943-13.621-13.246-13.621zM400.744 209.439c-13.92 0-25.246-11.327-25.246-25.25s11.325-25.25 25.246-25.25 25.246 11.327 25.246 25.25c-.001 13.923-11.326 25.25-25.246 25.25zm0-38.5c-7.304 0-13.246 5.944-13.246 13.25s5.942 13.25 13.246 13.25 13.246-5.944 13.246-13.25-5.943-13.25-13.246-13.25z" fill="#e0e0e0"></path><ellipse cx="233.84" cy="176.809" fill="#ffffff" rx="11.001" ry="17.248"></ellipse><path d="M200.927 200.555c.302 6.236-2.858 11.135-7.057 10.942s-7.848-5.404-8.15-11.639c-.302-6.236 2.858-11.135 7.057-10.942s7.848 5.404 8.15 11.639zM249.826 317.54c.201 4.143-1.899 7.397-4.688 7.269s-5.214-3.59-5.414-7.733 1.899-7.397 4.688-7.269c2.79.128 5.214 3.59 5.414 7.733z" fill="#ffffff"></path></g></svg>