<svg viewBox="0 0 64 64" xmlns="http://www.w3.org/2000/svg"><g><path d="M35 34v-8h-3.634a12.749 12.749 0 0 0-.8-1.911l2.574-2.574-5.657-5.657-2.574 2.574a12.749 12.749 0 0 0-1.911-.8V14H15v3.634a12.749 12.749 0 0 0-1.911.8l-2.574-2.574-5.657 5.655 2.574 2.574A12.749 12.749 0 0 0 6.634 26H3v8h3.634a12.749 12.749 0 0 0 .8 1.911l-2.576 2.574 5.657 5.657 2.574-2.574a12.749 12.749 0 0 0 1.911.8V46h8v-3.634a12.749 12.749 0 0 0 1.911-.8l2.574 2.574 5.657-5.657-2.574-2.574a12.749 12.749 0 0 0 .8-1.911zm-16 3a7 7 0 1 1 7-7 7 7 0 0 1-7 7z" fill="#fcbc04"></path><path d="M31.37 34a13.987 13.987 0 0 1-.8 1.91l2.57 2.58-5.65 5.65-2.58-2.57a13.987 13.987 0 0 1-1.91.8V46h-8v-3.63a13.987 13.987 0 0 1-1.91-.8l-2.58 2.57-5.65-5.65 2.57-2.58a13.987 13.987 0 0 1-.8-1.91H3v-8h3.63a13.987 13.987 0 0 1 .8-1.91l-2.57-2.58 4.45-4.45a16.432 16.432 0 0 0 2.97 17.49 7.161 7.161 0 0 1 .95-.59A7 7 0 1 0 19 23a6.541 6.541 0 0 0-1 .07v-3.83a7.93 7.93 0 0 1-2-2.39V14h7v3.63a13.987 13.987 0 0 1 1.91.8l2.58-2.57 5.65 5.65-2.57 2.58a13.987 13.987 0 0 1 .8 1.91H35v8z" fill="#e59730"></path><path d="M21 33h20a8 8 0 0 1 8 8v20H13V41a8 8 0 0 1 8-8z" fill="#57b7eb"></path><g fill="#4891d3"><path d="M49 55v6H13V41a8 8 0 0 1 7-7.94V40a15.005 15.005 0 0 0 15 15z" fill="#4891d3"></path><path d="M28 38h3v23h-3zM28 3h6a10 10 0 0 1 10 10 8 8 0 0 1-8 8H26a8 8 0 0 1-8-8A10 10 0 0 1 28 3z" fill="#4891d3"></path></g><path d="M43.82 14.7A7.991 7.991 0 0 1 36 21H26a8 8 0 0 1-8-8 9.969 9.969 0 0 1 2.93-7.07 10.086 10.086 0 0 1 3.52-2.28A4.233 4.233 0 0 0 28.24 6a4.246 4.246 0 0 1 3 1.24l.99.99A6.055 6.055 0 0 0 36.51 10h.06a6.051 6.051 0 0 1 5.19 2.94 4.3 4.3 0 0 0 2.06 1.76z" fill="#2d72bc"></path><path d="m36 34-5 4-5-4v-5h10z" fill="#fcbc04"></path><path d="M36 31.13a9.926 9.926 0 0 1-4.83 2.63 9.944 9.944 0 0 0 3.67 1.17L31 38l-5-4v-5h10z" fill="#e59730"></path><path d="M31 32a10 10 0 0 1-10-10v-6a6.919 6.919 0 0 1 5.94-6.849L28 9a10.3 10.3 0 0 0 8.831 5H41v8a10 10 0 0 1-10 10z" fill="#f9e109"></path><path d="m40 33-6 11-3-6 5-4v-1zM22 33l2 11 7-6-5-4v-1z" fill="#4891d3"></path><path d="M24 13v6a10 10 0 0 0 10 10 9.807 9.807 0 0 0 5.41-1.61A9.992 9.992 0 0 1 21 22v-6a6.89 6.89 0 0 1 1.69-4.53 6.964 6.964 0 0 1 4.25-2.32L28 9a10.224 10.224 0 0 0 3.76 3.66A10.292 10.292 0 0 0 36.83 14H41v2h-4.17A10.3 10.3 0 0 1 28 11l-1.06.15a6.926 6.926 0 0 0-2.9 1.12c-.02.24-.04.48-.04.73z" fill="#fcbc04"></path><path d="m40 33-4 9-5-4 5-4v-1zM22 33l4 9 5-4-5-4v-1z" fill="#84d2f4"></path><path d="M29 20a1 1 0 0 1-.707-.293 1.831 1.831 0 0 0-2.586 0 1 1 0 0 1-1.414-1.414 3.832 3.832 0 0 1 5.414 0A1 1 0 0 1 29 20zM37 20a1 1 0 0 1-.707-.293 1.831 1.831 0 0 0-2.586 0 1 1 0 0 1-1.414-1.414 3.832 3.832 0 0 1 5.414 0A1 1 0 0 1 37 20z" fill="#2d72bc"></path><path d="m61 46.306-8.292-1.205L49 37.587V50z" fill="#f7f754"></path><path d="m37 46.306 6 5.848-1.416 8.259L49 50z" fill="#fcbc04"></path><path d="M61 46.306 49 50l7.416 10.413L55 52.154zM49 37.587l-3.708 7.514L37 46.306 49 50z" fill="#f9e109"></path><path d="M41.584 60.413 49 56.514l7.416 3.899L49 50z" fill="#e59730"></path><path d="M49 16h10v14H49a2 2 0 0 1-2-2V18a2 2 0 0 1 2-2z" fill="#c4f236"></path><path d="M59 27v3H49a2.006 2.006 0 0 1-2-2V18a2.006 2.006 0 0 1 2-2v3a8 8 0 0 0 8 8z" fill="#a1d51c"></path><path d="m54 21-2-1-2 1v-5h3a1 1 0 0 1 1 1z" fill="#a1d51c"></path><path d="m55 20-2-1-2 1v-4a1 1 0 0 1 1-1h2a1 1 0 0 1 1 1z" fill="#f9e109"></path><path d="M55 17.72V20l-2-1-2 1v-4a1 1 0 0 1 1-1h.59v1.79a1.054 1.054 0 0 0 1.06 1.06 1.039 1.039 0 0 0 .47-.11 1.006 1.006 0 0 1 .88-.02z" fill="#fcbc04"></path><path d="M54 26h-3a1 1 0 0 1 0-2h3a1 1 0 0 1 0 2z" fill="#57b7eb"></path><path d="M53.14 26H51a1 1 0 0 1-.22-1.97A7.862 7.862 0 0 0 53.14 26z" fill="#4891d3"></path></g></svg>