<svg viewBox="0 0 497 497" xmlns="http://www.w3.org/2000/svg"><g><path d="M35.092 484.91c-16.12-16.12-16.12-42.255 0-58.375l115.969-115.969 21.434-11.434 48.375 48.375L83.467 484.91c-16.119 16.12-32.255 16.12-48.375 0z" fill="#b98080"></path><path d="M230.87 347.507 93.467 484.91c-16.12 16.12-42.255 16.12-58.375 0a41.243 41.243 0 0 1-7.534-10.328c15.524 7.977 35.043 5.47 48.047-7.534l108.824-108.824c3.946-3.946 3.946-10.344 0-14.29l-33.368-33.368 21.434-21.434 38.766 28.766z" fill="#ae6c6c"></path><path d="m404.287 322.899-7.5 2.99-14.151 24.51c-9.622 16.667 2.406 37.5 21.651 37.5s21.273-20.833 11.651-37.5z" fill="#fe646f"></path><path d="m172.495 289.132 71.435 71.435 21.434 11.434c5.122 5.122 13.426 5.122 18.547 0l66.313-56.313 21.651-31.651c73.426-73.426 113.733-168.191 94.815-269.88-.746-4.009-5.664-5.557-8.548-2.673l-98.928 90.928z" fill="#efedef"></path><path d="M467.692 7.157c-.746-4.009-5.665-5.557-8.548-2.673l-7.998 5.998c8.815 92.703-23.947 185.365-90.704 252.122l-97.965 97.965c-5.122 5.122-13.426 5.122-18.547 0l21.434 21.434c5.122 5.122 13.426 5.122 18.547 0l66.313-66.313 27.651-31.651c73.428-73.428 108.735-175.193 89.817-276.882z" fill="#d7d0d6"></path><path d="M467.692 6.157c-.746-4.009-5.664-5.557-8.548-2.673l-7.998 6.998-91.93 91.93c-8.323 8.323-8.323 21.817 0 30.14l13.056 13.056c8.323 8.323 8.323 21.817 0 30.14l-31.453 31.454c-8.323 8.323-8.323 21.817 0 30.14l13.737 13.738c8.323 8.323 8.323 21.817 0 30.14l-4.331 4.331c-8.323 8.323-8.323 21.817 0 30.14l21.651-31.651c73.427-73.429 114.734-176.194 95.816-277.883z" fill="#fe646f"></path><path d="M468.692 4.157c-.746-4.009-5.664-5.556-8.548-2.673l-8.998 8.998c8.814 92.686-23.936 185.331-90.668 252.085 1.116 6.577-.846 13.575-5.922 18.652l-4.331 4.331c-8.323 8.323-8.323 21.817 0 30.14l31.651-31.651c73.427-73.428 105.734-178.193 86.816-279.882z" fill="#fd4755"></path><path d="M67.683 444.82a7.5 7.5 0 1 1 15 0 7.5 7.5 0 0 1-15 0z" fill="#efedef"></path><path d="m425.937 350.399-17.32-30c-1.924-3.333-6.736-3.333-8.66 0l-3.17 5.49 14.151 24.51c8.297 14.37.492 31.825-14.151 36.366a25.22 25.22 0 0 0 7.5 1.134c19.245 0 31.273-20.834 21.65-37.5z" fill="#fd4755"></path></g></svg>