<svg viewBox="0 0 443.957 443.957" xmlns="http://www.w3.org/2000/svg"><g><path d="m273.972 302.4 28.348-28.35 39.71 39.71-28.349 28.349z" fill="#62667c"></path><circle cx="171.621" cy="171.634" fill="#828a9e" r="171.621"></circle><path d="M286.896 286.899c-63.663 63.662-166.88 63.662-230.542 0s-63.662-166.88 0-230.542c63.662-63.662 166.88-63.662 230.542 0 63.558 63.705 63.558 166.836 0 230.542z" fill="#575b6d"></path><path d="M256.236 256.239c-46.73 46.724-122.488 46.719-169.212-.01s-46.72-122.489.01-169.212c46.726-46.72 122.477-46.72 169.202 0 46.656 46.76 46.656 122.462 0 169.222z" fill="#62667c"></path><path d="M341.529 294.473a6.22 6.22 0 0 0-8.797-.027l-.027.027-38.261 38.261a6.258 6.258 0 0 0 0 8.825l92.624 92.624c13.014 13.014 34.115 13.014 47.13 0 13.014-13.014 13.014-34.115 0-47.13zm76.961 123.983c-5.581 5.604-14.648 5.622-20.252.041s-5.622-14.648-.041-20.252c5.58-5.603 14.646-5.622 20.25-.043 5.611 5.561 5.651 14.618.09 20.229l-.047.047z" fill="#f6b863"></path><path d="M271.422 187.063c-7.45 8.576-20.904 17.374-44.645 24.049a21.173 21.173 0 0 0-14.645 14.905l-.975 3.676a34.193 34.193 0 0 1-17.195 21.391 49.631 49.631 0 0 1-22.977 5.631 21.657 21.657 0 0 1-17.715-9.204l-2.35-3.324-.991-1.413a32.25 32.25 0 0 0-3.178-3.839 31.787 31.787 0 0 0-27.336-9.312l-1.478.206a46.31 46.31 0 0 1-40.546-14.304l-.964-1.034a38.792 38.792 0 0 1-6.134-44.06 43.577 43.577 0 0 1 8.376-11.37l8.792-8.543 10.709-24.824a42.602 42.602 0 0 1 37.568-25.695l9.025-.341a59.225 59.225 0 0 0 20.346-4.385l14.618-5.988a36.815 36.815 0 0 1 32.82 2.469 44.969 44.969 0 0 1 9.745 7.872 43.706 43.706 0 0 1 4.819 6.15 44.642 44.642 0 0 1 6.908 19.003l.704 5.853c.151 1.249.466 2.472.937 3.638a14.566 14.566 0 0 0 8.278 8.224l18.202 7.071c12.162 4.703 18.21 18.374 13.507 30.537a23.613 23.613 0 0 1-4.195 6.967z" fill="#dbd8dd"></path><path d="M266.436 180.653c-7.45 8.592-20.904 17.374-44.628 24.055a21.19 21.19 0 0 0-14.645 14.916l-.991 3.665a34.15 34.15 0 0 1-17.211 21.407 49.518 49.518 0 0 1-22.977 5.631 21.62 21.62 0 0 1-15.067-6.145 22.686 22.686 0 0 1-2.62-3.07l-1.548-2.166-1.803-2.55a31.782 31.782 0 0 0-30.514-13.167l-1.478.217a46.372 46.372 0 0 1-40.546-14.32l-.541-.541a38.818 38.818 0 0 1-1.624-38.126 43.577 43.577 0 0 1 8.376-11.37l8.847-8.57 10.709-24.824A42.602 42.602 0 0 1 135.743 100l9.025-.341a59.225 59.225 0 0 0 20.346-4.385l14.618-5.988a36.815 36.815 0 0 1 32.82 2.469 44.969 44.969 0 0 1 9.745 7.872 44.837 44.837 0 0 1 6.73 18.744l.72 5.863a14.452 14.452 0 0 0 5.88 10.043 14.566 14.566 0 0 0 8.278 8.224l18.202 7.071a23.436 23.436 0 0 1 7.304 4.494 23.517 23.517 0 0 1-2.975 26.587z" fill="#eeefee"></path><circle cx="163.812" cy="168.239" fill="#f6c863" r="37.13"></circle><ellipse cx="163.812" cy="145.9" fill="#eeefee" rx="11.673" ry="7.298"></ellipse></g></svg>