<svg viewBox="0 0 682.667 682.667" xmlns="http://www.w3.org/2000/svg"><g><defs><clippath clippathunits="userSpaceOnUse" id="a"><path d="M0 512h512V0H0Z" fill="#000000"></path></clippath></defs><g clip-path="url(#a)" transform="matrix(1.33333 0 0 -1.33333 0 682.667)"><path d="M0 0c-114.084 0-206.568 92.483-206.568 206.567S-114.084 413.135 0 413.135l10-206.568Z" fill="#fff5f5" transform="translate(256.023 15)"></path><path d="M0 0c114.084 0 206.567-92.483 206.567-206.567S114.084-413.135 0-413.135Z" fill="#dce6eb" transform="translate(256.023 428.135)"></path><path d="M0 0c0 105.631 85.937 191.567 191.568 191.567l10 54.033-10 44.833h-83.426v-30h68.422v-39.375c-48.574-3.227-94.101-22.09-130.726-54.162L1.923 210.812l-21.213-21.213 43.918-43.918C-10.7 105.314-30 54.144-30 0c0-59.183 23.047-114.823 64.896-156.672 41.848-41.849 97.489-64.895 156.672-64.895l10 14-10 16C85.937-191.567 0-105.631 0 0" fill="#ff6c6c" transform="translate(64.456 221.567)"></path><path d="m0 0 43.868 43.868-21.213 21.213-43.863-43.862c-36.618 32.046-82.136 50.885-130.691 54.109v39.375h68.423v30h-83.42V45.838c105.631 0 191.567-85.937 191.567-191.567 0-105.631-85.936-191.568-191.567-191.568v-30c59.183 0 114.823 23.047 156.672 64.896 41.849 41.848 64.895 97.489 64.895 156.672C54.671-91.564 35.355-40.373 0 0" fill="#c83c50" transform="translate(422.92 367.297)"></path><path d="M0 0h-30v130.133l-23.412-8.045-9.749 28.372L0 172.164Z" fill="#5a5a5a" transform="translate(255.55 138.493)"></path><path d="M315.55 255.667h-30v68.975h30z" fill="#2d2d2d"></path></g></g></svg>