<svg viewBox="0 0 512.003 512.003" xmlns="http://www.w3.org/2000/svg"><g><path d="M226.002 512.003c-124.617 0-226-101.383-226-226s101.383-226 226-226 226 101.383 226 226-101.383 226-226 226z" fill="#ffde46"></path><path d="M226.002 60.003v452c124.617 0 226-101.383 226-226s-101.383-226-226-226z" fill="#ffcd00"></path><path d="M93.686 266.008c-1.608 0-3.242-.261-4.85-.809-7.839-2.678-12.023-11.204-9.346-19.044 9.056-26.514 33.965-44.328 61.983-44.328 27.996 0 52.899 17.797 61.969 44.285 2.684 7.837-1.495 16.366-9.333 19.05-7.843 2.683-16.366-1.496-19.05-9.333a35.501 35.501 0 0 0-67.181.023c-2.126 6.233-7.954 10.156-14.192 10.156z" fill="#00347b"></path><path clip-rule="evenodd" d="M267.64 350.004h53.447v60H267.64z" fill="#f6efea" fill-rule="evenodd"></path><path d="M262.753 266.008c-1.608 0-3.242-.261-4.85-.809-7.839-2.678-12.023-11.204-9.346-19.044 9.056-26.514 33.965-44.328 61.983-44.328 27.996 0 52.899 17.797 61.969 44.285 2.684 7.837-1.495 16.366-9.333 19.05-7.841 2.683-16.366-1.496-19.05-9.333a35.501 35.501 0 0 0-67.181.023c-2.127 6.233-7.954 10.156-14.192 10.156zM240.156 441.905a14.976 14.976 0 0 1-11.896-5.85c-5.054-6.564-3.829-15.982 2.734-21.037 12.528-9.646 20.008-24.843 20.008-40.653a51.37 51.37 0 0 0-17.05-38.195c-6.167-5.531-6.683-15.015-1.15-21.182 5.532-6.168 15.016-6.682 21.182-1.15a81.408 81.408 0 0 1 27.019 60.527c0 25.055-11.853 49.139-31.706 64.425a14.946 14.946 0 0 1-9.141 3.115z" fill="#001737"></path><path d="M46.257 215.004a14.996 14.996 0 0 1-14.788-12.501l-3.167-18.744 10.061-29.692-15.719-3.795-5.872-34.753 8.314-31.24-14.118-3.114L.212 17.502A15 15 0 0 1 19.975.851L80.818 22.23l2.822 15.922 30.021-4.382 33.224 11.674.245 16.538 32.598-4.999 17.261 6.065a14.997 14.997 0 0 1 4.692 25.622L55.924 211.475a15 15 0 0 1-9.667 3.529z" fill="#ff3f5c"></path><path d="m16.773 115.52 96.888-81.75-32.843-11.54-69.85 58.936zM22.644 150.272l5.658 33.487a14.929 14.929 0 0 0 4.058-2.435L179.727 56.983l-32.843-11.54z" fill="#d20763"></path><g clip-rule="evenodd" fill-rule="evenodd"><circle cx="415.001" cy="61.003" fill="#00ab5e" r="15"></circle><circle cx="483.001" cy="145.862" fill="#d20763" r="15" transform="rotate(-45 483.012 145.961)"></circle><circle cx="267.694" cy="136.285" fill="#a24bdb" r="15"></circle><circle cx="28.002" cy="446.003" fill="#b760ea" r="15"></circle><circle cx="497.001" cy="15.003" fill="#a24bdb" r="15"></circle></g><path d="M430.002 507.003c-.25 0-.5-.002-.75-.007-8.282-.155-14.871-6.995-14.716-15.278.155-8.282 7.011-14.916 15.278-14.716l.188.001a14.963 14.963 0 0 0 13.836-9.207c3.198-7.643 11.988-11.244 19.628-8.046 7.643 3.198 11.244 11.986 8.046 19.628a44.893 44.893 0 0 1-41.51 27.625z" fill="#a24bdb"></path><path d="M309.674 48.419a44.892 44.892 0 0 1-41.509-27.624c-3.199-7.642.402-16.43 8.044-19.629 7.639-3.196 16.43.402 19.628 8.045a14.965 14.965 0 0 0 13.837 9.208l.188-.001c8.266-.188 15.123 6.433 15.278 14.716s-6.433 15.123-14.716 15.278c-.25.005-.5.007-.75.007z" fill="#008adf"></path><path d="M94.542 376.332c-2.622 0-5.271-.229-7.919-.699-8.157-1.447-13.597-9.232-12.149-17.39s9.231-13.596 17.39-12.149a14.952 14.952 0 0 0 15.232-6.649l.101-.159c4.354-7.048 13.594-9.234 20.645-4.879 7.048 4.354 9.232 13.596 4.879 20.645a42.49 42.49 0 0 1-.388.614c-8.403 13.05-22.671 20.666-37.791 20.666z" fill="#00dd7b"></path><path clip-rule="evenodd" d="M457.002 293.004a5.003 5.003 0 0 0-5.003 5l-.023 37.009c-.005 8.281-6.719 14.991-15 14.991H316.661v60h135.341c33.137 0 60-26.863 60-60v-2c0-30.25-24.75-55-55-55z" fill="#008adf" fill-rule="evenodd"></path></g></svg>