<svg viewBox="0 0 64 64" xmlns="http://www.w3.org/2000/svg"><g><path d="M50 16H26.428a1 1 0 0 1-.664-.253l-5.61-4.99A2.999 2.999 0 0 0 18.162 10H5a3 3 0 0 0-3 3v33a3 3 0 0 0 3 3h48V19a3 3 0 0 0-3-3z" fill="#f57c00"></path><path d="M46 20H9a3 3 0 0 0-3 3v26h43V23a3 3 0 0 0-3-3z" fill="#e0e0e0"></path><path d="M57.41 28.65 53 48.42l-.13.58H5a2.974 2.974 0 0 1-2.81-1.97l4.39-19.68A3.006 3.006 0 0 1 9.51 25h44.97a3.018 3.018 0 0 1 2.93 3.65z" fill="#ffa000"></path><circle cx="51" cy="43" fill="#689f38" r="11"></circle><path d="M56 42h-4v-4a1 1 0 0 0-2 0v4h-4a1 1 0 0 0 0 2h4v4a1 1 0 0 0 2 0v-4h4a1 1 0 0 0 0-2z" fill="#e0e0e0"></path></g></svg>