<svg viewBox="0 0 60 60" xmlns="http://www.w3.org/2000/svg"><g><path d="M57 52c0 1.93-.1 4.06-.24 6.07-.04.53-.48.93-1 .93h-5.98c-.46 0-.86-.31-.97-.76-.43-1.78-1.47-6.33-1.81-10.24-.35-4.11-.85-7.5-.4-13.65-2.12 4.73-2.6 9.1-2.6 14.37 0 3.73.98 7.08.98 9.23 0 .57-.43 1.05-1.01 1.05H16.03c-.58 0-1.01-.48-1.01-1.05 0-2.15.98-5.5.98-9.23 0-5.27-.48-9.64-2.6-14.37.45 6.15-.05 9.54-.4 13.65-.34 3.91-1.38 8.46-1.81 10.24-.11.45-.51.76-.97.76H4.24c-.52 0-.96-.4-1-.93C3.1 56.06 3 53.93 3 52c0-4.13.95-7.79 1.54-9.67.29-.92.39-1.89.3-2.86C4.56 36.41 4 28.73 4 16c0-4 3-7 6-7 2.54 0 2.92.2 4.98.2 6.68 0 7.83-4.22 8-7.25.02-.53.46-.95.99-.95h12.06c.53 0 .97.42.99.95.17 3.03 1.32 7.25 8 7.25 2.06 0 2.44-.2 4.98-.2 3 0 6 3 6 7 0 12.73-.56 20.41-.84 23.47-.09.97.01 1.94.3 2.86C56.05 44.21 57 47.87 57 52z" fill="#e9c7b0"></path><g fill="#ddb7a2"><path d="M29.348 48c-.219-4.122-.483-8.647-.258-12.75.081-1.417.159-2.833.344-4.25a.57.57 0 0 1 1.132 0c.687 5.565.402 11.406.086 17-.04.809-1.263.812-1.304 0zM17.64 28.883c3.623-3.022 5.731-7.37 6.797-11.932.126-.631 1.109-.544 1.127.093.158 2.564-.568 5.162-1.834 7.411-1.272 2.243-3.182 4.097-5.329 5.487a.652.652 0 0 1-.761-1.059zM41.599 29.941c-4.343-2.705-7.477-7.696-7.163-12.898a.571.571 0 0 1 1.129-.087c.786 3.472 2.193 6.634 4.348 9.421a15.22 15.22 0 0 0 2.448 2.505c.627.505-.082 1.492-.761 1.059zM13.55 40.91C11.98 32.78 8 28 8 28c2 1 4.36 4.01 5.4 6.33v.02c.19 2.59.21 4.69.15 6.56zM46.45 40.91C48.02 32.78 52 28 52 28c-2 1-4.36 4.01-5.4 6.33v.02c-.19 2.59-.21 4.69-.15 6.56z" fill="#ddb7a2"></path></g></g></svg>