<svg viewBox="0 0 512.395 512.395" xmlns="http://www.w3.org/2000/svg"><g><path d="M130.413 260.924a14.998 14.998 0 0 1-13.621-8.729l-33.998-73.868L8.926 144.33a15 15 0 0 1 1.99-28.002l164.083-48.863a15 15 0 0 1 18.658 18.658l-48.863 164.083a15 15 0 0 1-14.381 10.718z" fill="#2982ff"></path><path d="M116.792 252.196a15 15 0 0 0 28.002-1.99l48.863-164.083a15 15 0 0 0-3.769-14.888L82.794 178.328z" fill="#0054be"></path><path d="M448.33 194.084a14.998 14.998 0 0 1-13.621-8.729l-33.998-73.868-73.868-33.997a15 15 0 0 1 1.99-28.002L492.916.625a15 15 0 0 1 18.658 18.658l-48.863 164.083a15 15 0 0 1-14.381 10.718z" fill="#ff4c5b"></path><path d="M434.709 185.356a15 15 0 0 0 28.002-1.99l48.863-164.083a15 15 0 0 0-3.769-14.888L400.711 111.488z" fill="#d90048"></path><path d="M319.72 322.694a14.998 14.998 0 0 1-13.621-8.729l-33.998-73.868-73.868-33.997a15 15 0 0 1 1.99-28.002l164.083-48.863a15 15 0 0 1 18.658 18.658l-48.863 164.083a15 15 0 0 1-14.381 10.718z" fill="#2982ff"></path><path d="M306.099 313.966a15 15 0 0 0 14.689 8.691c6.228-.443 11.531-4.697 14.313-10.681l48.863-164.083c.572-5.278-.875-10.994-4.769-14.888L272.101 240.097z" fill="#0054be"></path><path d="M170.495 471.919a14.998 14.998 0 0 1-13.621-8.729l-33.998-73.868-73.868-33.998a15 15 0 0 1 1.99-28.002l164.083-48.863a15 15 0 0 1 18.658 18.658L184.876 461.2a15 15 0 0 1-14.381 10.719z" fill="#2982ff"></path><path d="M156.874 463.191a15 15 0 0 0 28.002-1.99l48.863-164.083a15 15 0 0 0-3.769-14.888L122.876 389.323z" fill="#0054be"></path><path d="M381.394 511.905a14.998 14.998 0 0 1-13.621-8.729l-33.998-73.868-73.868-33.998a15 15 0 0 1 1.99-28.002l164.083-48.863a15 15 0 0 1 18.658 18.658l-48.863 164.083a15 15 0 0 1-14.381 10.719z" fill="#2982ff"></path><path d="M368.235 503.666a15 15 0 0 0 28.002-1.99L445.1 337.593a15 15 0 0 0-3.769-14.888L334.237 429.798z" fill="#0054be"></path></g></svg>