<?xml version="1.0" encoding="iso-8859-1"?>
<!-- Generator: Adobe Illustrator 19.0.0, SVG Export Plug-In . SVG Version: 6.00 Build 0)  -->
<svg version="1.1" id="Capa_1" xmlns="http://www.w3.org/2000/svg" xmlns:xlink="http://www.w3.org/1999/xlink" x="0px" y="0px"
	 viewBox="0 0 512 512" style="enable-background:new 0 0 512 512;" xml:space="preserve">
<path style="fill:#FFD039;" d="M158.535,177.141C71.119,177.141,0,248.26,0,335.676c0,87.417,71.119,158.536,158.535,158.536
	c87.417,0,158.536-71.119,158.536-158.536C317.072,248.26,245.954,177.141,158.535,177.141z"/>
<path style="fill:#FFAE47;" d="M158.535,177.141c-4.312,0-8.583,0.18-12.81,0.519c81.45,6.544,145.727,74.912,145.727,158.016
	c0,83.105-64.277,151.473-145.728,158.017c4.227,0.339,8.497,0.519,12.81,0.519c87.417,0,158.536-71.119,158.536-158.536
	C317.072,248.26,245.954,177.141,158.535,177.141z"/>
<circle style="fill:#F99608;" cx="158.532" cy="335.68" r="108.377"/>
<path style="fill:#FFD039;" d="M188.549,340.003c-6.188-6.853-15.617-10.861-28.029-11.913c-8.972-0.761-20.721-3.866-19.186-21.974
	c0.367-4.351,3.073-18.413,22.598-16.759c4.615,0.391,8.406,2.86,11.59,7.547c2.751,4.049,3.86,8.151,3.861,8.156
	c1.027,4.028,5.127,6.461,9.15,5.438c4.029-1.026,6.463-5.122,5.438-9.15c-0.257-1.01-6.484-24.466-27.909-26.89v-13.483
	c0-4.157-3.369-7.526-7.526-7.526s-7.526,3.369-7.526,7.526v14.383c-5.144,1.279-9.721,3.585-13.555,6.891
	c-6.403,5.518-10.351,13.543-11.12,22.595c-1.868,22.042,10.435,36.34,32.914,38.245c8.364,0.708,14.632,3.13,18.127,7.002
	c2.824,3.127,4.032,7.355,3.589,12.565c-0.468,5.516-2.742,10.672-6.238,14.144c-4.08,4.049-9.665,5.809-16.581,5.217
	c-15.169-1.285-22.73-16.508-22.857-16.766c-1.777-3.74-6.248-5.343-9.997-3.579c-3.762,1.767-5.38,6.25-3.613,10.012
	c0.407,0.869,9.448,19.62,29.329,24.382v14.317c0,4.157,3.369,7.526,7.526,7.526s7.526-3.369,7.526-7.526v-13.561
	c9.162-1.233,15.395-5.488,19.271-9.337c6.08-6.038,9.855-14.402,10.632-23.554C196.76,354.531,194.196,346.258,188.549,340.003z"/>
<g>
	<path style="fill:#FFAE47;" d="M202.819,183.443c1.544,0.451,3.079,0.925,4.604,1.422
		C205.898,184.37,204.364,183.894,202.819,183.443z"/>
	<path style="fill:#FFAE47;" d="M232.262,195.364c4.648,2.453,9.162,5.129,13.524,8.016l0,0
		C241.423,200.493,236.91,197.816,232.262,195.364z"/>
	<path style="fill:#FFAE47;" d="M232.13,195.295c-3.084-1.624-6.226-3.149-9.424-4.571
		C225.905,192.146,229.048,193.671,232.13,195.295z"/>
	<path style="fill:#FFAE47;" d="M222.597,190.677c-1.54-0.683-3.093-1.342-4.658-1.976
		C219.504,189.335,221.058,189.993,222.597,190.677z"/>
	<path style="fill:#FFAE47;" d="M217.679,188.593c-3.172-1.28-6.395-2.46-9.665-3.536
		C211.284,186.135,214.507,187.313,217.679,188.593z"/>
	<path style="fill:#FFAE47;" d="M258.98,213.113l-41.138,42.332c-10.784,10.763-11.032,27.846-0.555,38.923
		c5.461,5.773,12.818,8.758,20.252,8.758c5.417,0,10.876-1.587,15.671-4.835l47.693-32.318
		C290.828,245.482,276.463,227.467,258.98,213.113z"/>
	<path style="fill:#FFAE47;" d="M197.516,181.995c1.69,0.429,3.369,0.885,5.037,1.368
		C200.884,182.881,199.206,182.425,197.516,181.995z"/>
	<path style="fill:#FFAE47;" d="M176.643,178.182c1.398,0.161,2.791,0.338,4.178,0.534
		C179.434,178.519,178.041,178.342,176.643,178.182z"/>
	<path style="fill:#FFAE47;" d="M165.478,177.302c1.633,0.07,3.261,0.16,4.882,0.28
		C168.741,177.462,167.112,177.373,165.478,177.302z"/>
	<path style="fill:#FFAE47;" d="M170.503,177.591c1.707,0.128,3.406,0.289,5.097,0.471
		C173.909,177.88,172.211,177.719,170.503,177.591z"/>
	<path style="fill:#FFAE47;" d="M192.651,180.849c1.52,0.335,3.035,0.688,4.539,1.067
		C195.685,181.538,194.172,181.184,192.651,180.849z"/>
	<path style="fill:#FFAE47;" d="M181.78,178.85c3.356,0.496,6.676,1.098,9.96,1.8C188.456,179.948,185.136,179.345,181.78,178.85z"
		/>
</g>
<g>
	<path style="fill:#E07F00;" d="M202.819,183.443c1.544,0.451,3.079,0.925,4.604,1.422
		C205.898,184.37,204.364,183.894,202.819,183.443z"/>
	<path style="fill:#E07F00;" d="M217.939,188.7c1.565,0.635,3.119,1.294,4.658,1.976C221.057,189.993,219.504,189.335,217.939,188.7
		z"/>
	<path style="fill:#E07F00;" d="M208.014,185.057c3.269,1.077,6.493,2.255,9.665,3.536
		C214.507,187.313,211.284,186.134,208.014,185.057z"/>
	<path style="fill:#E07F00;" d="M232.262,195.364c4.648,2.453,9.162,5.129,13.524,8.016l0,0
		C241.423,200.493,236.91,197.816,232.262,195.364z"/>
	<path style="fill:#E07F00;" d="M258.98,213.113l-12.109,12.46c14.793,15.302,26.533,33.568,34.248,53.805l19.783-13.405
		C290.828,245.482,276.463,227.467,258.98,213.113z"/>
	<path style="fill:#E07F00;" d="M232.13,195.295c-3.084-1.624-6.226-3.149-9.424-4.571
		C225.905,192.146,229.048,193.671,232.13,195.295z"/>
	<path style="fill:#E07F00;" d="M197.516,181.995c1.69,0.429,3.369,0.885,5.037,1.368
		C200.884,182.881,199.206,182.425,197.516,181.995z"/>
	<path style="fill:#E07F00;" d="M192.651,180.849c1.52,0.335,3.035,0.688,4.539,1.067
		C195.685,181.538,194.172,181.184,192.651,180.849z"/>
	<path style="fill:#E07F00;" d="M170.503,177.591c1.707,0.128,3.406,0.289,5.097,0.471
		C173.909,177.88,172.211,177.719,170.503,177.591z"/>
	<path style="fill:#E07F00;" d="M165.478,177.302c1.633,0.07,3.261,0.16,4.882,0.28
		C168.741,177.462,167.112,177.373,165.478,177.302z"/>
	<path style="fill:#E07F00;" d="M181.78,178.85c3.356,0.496,6.676,1.098,9.96,1.8C188.456,179.948,185.136,179.345,181.78,178.85z"
		/>
	<path style="fill:#E07F00;" d="M176.643,178.182c1.398,0.161,2.791,0.338,4.178,0.534
		C179.434,178.519,178.041,178.342,176.643,178.182z"/>
	<path style="fill:#E07F00;" d="M223.892,249.218l-6.051,6.227c-10.784,10.763-11.032,27.846-0.555,38.923
		c5.461,5.773,12.818,8.758,20.252,8.758c5.417,0,10.876-1.587,15.671-4.835l5.603-3.796
		C251.387,276.441,239.235,260.835,223.892,249.218z"/>
</g>
<path style="fill:#FFC89F;" d="M508.898,19.225c-1.948-1.416-4.458-1.814-6.749-1.07l-66.098,21.464l-107.434,24.12
	c-35.721,8.021-68.61,23.323-97.785,45.507l-89.51,68.828c5.655-0.613,11.397-0.934,17.212-0.934
	c25.309,0,49.245,5.971,70.49,16.564c6.487-3.686,13.346-6.683,20.523-8.935l28.952-9.083l-60.66,62.42
	c-10.784,10.763-11.032,27.847-0.555,38.923c5.461,5.773,12.818,8.759,20.252,8.759c5.417,0,10.876-1.587,15.671-4.835
	l80.655-54.652l27.774-5.651c38.359-7.805,71.201-31.597,90.567-65.485l54.544-17.291c3.127-0.991,5.251-3.894,5.251-7.174V25.315
	C512,22.905,510.847,20.641,508.898,19.225z"/>
<g>
	<path style="fill:#F7B081;" d="M506.749,108.611l-54.545,17.291c-19.366,33.888-52.209,57.68-90.567,65.485l-27.774,5.651
		l-80.655,54.652c-4.794,3.248-10.254,4.835-15.671,4.835c-7.435,0-14.79-2.985-20.252-8.758c-1.347-1.424-2.514-2.948-3.506-4.545
		c-6.557,10.54-5.432,24.36,3.506,33.809c5.461,5.773,12.818,8.759,20.252,8.759c5.417,0,10.876-1.587,15.671-4.835l80.655-54.652
		l27.774-5.651c38.359-7.805,71.201-31.597,90.567-65.485l54.545-17.291c3.127-0.991,5.251-3.894,5.251-7.174v-29.264
		C512,104.717,509.876,107.62,506.749,108.611z"/>
	<path style="fill:#F7B081;" d="M294.532,139.679l-65.298,19.847c-12.654,3.97-24.51,10.134-35.028,18.211l-3.423,2.707
		c13.446,2.791,26.271,7.29,38.243,13.26c6.487-3.686,13.346-6.683,20.523-8.935l28.851-9.052l26.224-16.115l-0.501,0.516l0,0
		C315.121,152.876,307.131,135.85,294.532,139.679z"/>
</g>
<g>
</g>
<g>
</g>
<g>
</g>
<g>
</g>
<g>
</g>
<g>
</g>
<g>
</g>
<g>
</g>
<g>
</g>
<g>
</g>
<g>
</g>
<g>
</g>
<g>
</g>
<g>
</g>
<g>
</g>
</svg>
