<svg viewBox="0 0 60 60" xmlns="http://www.w3.org/2000/svg"><g><path d="M59 13v42a4 4 0 0 1-4 4H5a4 4 0 0 1-4-4V13l1-1h56z" fill="#d5dff7"></path><path d="M59 5v8H1V5a4 4 0 0 1 4-4h50a4 4 0 0 1 4 4z" fill="#6ac579"></path><g fill="#293e72"><path d="M24 25a1 1 0 0 1-1-1v-6a1 1 0 0 1 2 0v6a1 1 0 0 1-1 1zM28 25a1 1 0 0 1-1-1v-6a1 1 0 0 1 2 0v6a1 1 0 0 1-1 1zM32 25a1 1 0 0 1-1-1v-6a1 1 0 0 1 2 0v6a1 1 0 0 1-1 1zM5 25a1 1 0 0 1-1-1v-6a1 1 0 0 1 2 0v6a1 1 0 0 1-1 1zM9 25a1 1 0 0 1-1-1v-6a1 1 0 0 1 2 0v6a1 1 0 0 1-1 1zM13 25a1 1 0 0 1-1-1v-6a1 1 0 0 1 2 0v6a1 1 0 0 1-1 1zM36 25a1 1 0 0 1-1-1v-6a1 1 0 0 1 2 0v6a1 1 0 0 1-1 1zM45 25a1 1 0 0 1-1-1v-6a1 1 0 0 1 2 0v6a1 1 0 0 1-1 1zM49 25a1 1 0 0 1-1-1v-6a1 1 0 0 1 2 0v6a1 1 0 0 1-1 1zM24 41a1 1 0 0 1-1-1v-6a1 1 0 0 1 2 0v6a1 1 0 0 1-1 1zM28 41a1 1 0 0 1-1-1v-6a1 1 0 0 1 2 0v6a1 1 0 0 1-1 1zM32 41a1 1 0 0 1-1-1v-6a1 1 0 0 1 2 0v6a1 1 0 0 1-1 1zM49 41a1 1 0 0 1-1-1v-6a1 1 0 0 1 2 0v6a1 1 0 0 1-1 1zM45 41a1 1 0 0 1-1-1v-6a1 1 0 0 1 2 0v6a1 1 0 0 1-1 1zM53 41a1 1 0 0 1-1-1v-6a1 1 0 0 1 2 0v6a1 1 0 0 1-1 1zM28 56a1 1 0 0 1-1-1v-6a1 1 0 0 1 2 0v6a1 1 0 0 1-1 1zM24 56a1 1 0 0 1-1-1v-6a1 1 0 0 1 2 0v6a1 1 0 0 1-1 1zM32 56a1 1 0 0 1-1-1v-6a1 1 0 0 1 2 0v6a1 1 0 0 1-1 1zM5 56a1 1 0 0 1-1-1v-6a1 1 0 0 1 2 0v6a1 1 0 0 1-1 1zM36 41a1 1 0 0 1-1-1v-6a1 1 0 0 1 2 0v6a1 1 0 0 1-1 1zM9 41a1 1 0 0 1-1-1v-6a1 1 0 0 1 2 0v6a1 1 0 0 1-1 1zM5 41a1 1 0 0 1-1-1v-6a1 1 0 0 1 2 0v6a1 1 0 0 1-1 1zM49 56a1 1 0 0 1-1-1v-6a1 1 0 0 1 2 0v6a1 1 0 0 1-1 1zM45 56a1 1 0 0 1-1-1v-6a1 1 0 0 1 2 0v6a1 1 0 0 1-1 1z" fill="#293e72"></path></g><path d="M59 30v-2H42V13h-2v15H20V13h-2v15H1v2h17v14H1v2h17v13h2V46h20v13h2V46h17v-2H42V30zM40 44H20V30h20z" fill="#abbad3"></path><path d="M23 24a1 1 0 0 1-.275-1.962l14-4a1 1 0 1 1 .548 1.924l-14 4A1.053 1.053 0 0 1 23 24zM23 40a1 1 0 0 1-.275-1.962l14-4a1 1 0 0 1 .548 1.924l-14 4A1.053 1.053 0 0 1 23 40z" fill="#203256"></path></g></svg>