<svg viewBox="0 0 64 64" xmlns="http://www.w3.org/2000/svg"><g><path d="m62 50-7-6v3H43v6h12v3z" fill="#e6737a"></path><path d="M48 25c0-9.439-8.174-16.969-17.829-15.898-7.34.814-13.267 6.753-14.072 14.094-.695 6.342 2.327 12.024 7.153 15.182 1.119.731 1.748 2.019 1.748 3.356V44h14v-2.318c0-1.31.62-2.57 1.718-3.285C45.098 35.545 48 30.617 48 25z" fill="#ffecb3"></path><path d="M41.518 23c-.442 0-.811-.301-.945-.722a8.936 8.936 0 0 0-.587-1.412c-.204-.393-.156-.868.157-1.181l1.049-1.049-2.828-2.828-1.049 1.049c-.313.313-.788.361-1.181.157a8.936 8.936 0 0 0-1.412-.587c-.421-.134-.722-.503-.722-.945V14h-4v1.482c0 .442-.301.811-.722.945-.49.156-.962.353-1.412.587-.393.204-.868.156-1.181-.157l-1.049-1.049-2.828 2.828 1.049 1.049c.313.313.361.788.157 1.181-.234.45-.431.922-.587 1.412-.134.421-.503.722-.945.722H21v4h1.482c.442 0 .811.301.945.722.156.49.353.962.587 1.412.204.393.156.868-.157 1.181l-1.049 1.049 2.828 2.828 1.049-1.049c.313-.313.788-.361 1.181-.157.45.234.922.431 1.412.587.421.134.722.503.722.944V36h4v-1.483c0-.442.301-.811.722-.945.49-.156.962-.353 1.412-.587.393-.204.868-.156 1.181.157l1.049 1.049 2.828-2.828-1.049-1.049c-.313-.313-.361-.788-.157-1.181.234-.45.431-.922.587-1.412.134-.42.503-.721.945-.721H43v-4zM32 30a5 5 0 1 1 .001-10.001A5 5 0 0 1 32 30zM32 55a5 5 0 0 1-5-5h10a5 5 0 0 1-5 5z" fill="#526273"></path><g fill="#ffecb3"><path d="M31 2h2v4h-2zM51 24h4v2h-4zM9 24h4v2H9zM15.027 9.444 16.44 8.03l2.829 2.829-1.414 1.414zM44.722 10.863l2.829-2.83 1.414 1.415-2.829 2.829z" fill="#ffecb3"></path></g><path d="M26 46h12v2H26z" fill="#526273"></path><path d="M16 46h2v2h-2zM20 46h2v2h-2z" fill="#6d8399"></path><path d="M2 62h12v-6a4 4 0 0 0-4-4H6a4 4 0 0 0-4 4z" fill="#759acc"></path><path d="M6 52h2a4 4 0 0 0-4 4v6H2v-6a4 4 0 0 1 4-4z" fill="#6d90bf"></path><path d="M12 48c0 2.207-1.793 4-4 4s-4-1.793-4-4c0-.067 0-.133.007-.2C4.113 45.687 5.86 44 8 44s3.887 1.687 3.993 3.8c.007.067.007.133.007.2z" fill="#ffdbac"></path><path d="M5 48c0-.067 0-.133.007-.2A3.994 3.994 0 0 1 8.5 44.049C8.335 44.028 8.171 44 8 44a4.003 4.003 0 0 0-3.993 3.8C4 47.867 4 47.933 4 48c0 2.207 1.793 4 4 4 .171 0 .334-.03.5-.051C6.531 51.7 5 50.035 5 48z" fill="#f2d0a3"></path><path d="M8 47c1.511 0 2.892.565 3.95 1.495.021-.164.05-.325.05-.495 0-.067 0-.133-.007-.2C11.887 45.687 10.14 44 8 44s-3.887 1.687-3.993 3.8C4 47.867 4 47.933 4 48c0 .17.029.331.05.495A5.964 5.964 0 0 1 8 47z" fill="#526273"></path><path d="M5.007 47.8A3.994 3.994 0 0 1 8.5 44.049C8.335 44.028 8.171 44 8 44a4.003 4.003 0 0 0-3.993 3.8C4 47.867 4 47.933 4 48c0 .17.029.331.05.495.294-.258.617-.48.956-.678l.001-.017z" fill="#495766"></path></g></svg>