<svg viewBox="0 0 64 64" xmlns="http://www.w3.org/2000/svg"><g><g><path d="M59 40v22H41v-9a3 3 0 0 0-3-3h-5.172A6.826 6.826 0 0 1 28 48a6.826 6.826 0 0 1-2-4.828V42a9.656 9.656 0 0 0 6.828-2.828L35 37h-5.586A3.415 3.415 0 0 1 27 36a3.415 3.415 0 0 1-1-2.414A1.586 1.586 0 0 0 24.414 32H22.3a2.3 2.3 0 0 1-2.3-2.3 2.3 2.3 0 0 1 .387-1.277L26 20v-8h11l2 7h4a4 4 0 0 1 4 4 3 3 0 0 0 3 3l1.033-1.55a3.257 3.257 0 0 1 2.71-1.45A3.257 3.257 0 0 1 57 26.257v1.258a10.828 10.828 0 0 1-3.172 7.657 2.828 2.828 0 0 0-.828 2A2.828 2.828 0 0 0 55.828 40z" fill="#fbe1ca"></path><path d="M62 37V16A14 14 0 0 0 48 2H16l1.717 5.724A6 6 0 0 0 23.464 12H37l2 7h4a4 4 0 0 1 4 4 3 3 0 0 0 3 3l1.033-1.55a3.257 3.257 0 0 1 2.71-1.45A3.257 3.257 0 0 1 57 26.257v1.258a10.828 10.828 0 0 1-3.172 7.657 2.828 2.828 0 0 0-.828 2A2.828 2.828 0 0 0 55.828 40H59a3 3 0 0 0 3-3z" fill="#c18e59"></path><g fill="#e2e7f6"><path d="m15.168 45.555-.336-.5a10.909 10.909 0 0 1 0-12.1l.336-.5 1.664 1.11-.336.5a8.908 8.908 0 0 0 0 9.882l.336.5zM10.081 51.394 9.1 49.1A25.776 25.776 0 0 1 7 38.884 26.05 26.05 0 0 1 9.737 27.29l.368-.737 1.79.894-.369.738A24.047 24.047 0 0 0 9 38.884a23.806 23.806 0 0 0 1.934 9.425l.985 2.3zM5.06 56.342l-1.809-4.976a37.385 37.385 0 0 1 1.7-29.5l.158-.317 1.79.894-.159.318a35.381 35.381 0 0 0-1.6 27.918l1.8 4.979z" fill="#e2e7f6"></path></g></g></g></svg>