<svg viewBox="0 0 64 64" xmlns="http://www.w3.org/2000/svg"><g><circle cx="24" cy="36" fill="#0a5078" r="20"></circle><path d="M32.896 18.107A13.959 13.959 0 0 0 32 23c0 7.036 5.197 12.844 11.958 13.834.011-.278.042-.552.042-.834 0-7.845-4.528-14.617-11.104-17.893z" fill="#00325a"></path><circle cx="24" cy="36" fill="#f0f0f0" r="16"></circle><path d="M39.98 35.613c-.138-5.739-3.291-10.72-7.942-13.431-.016.271-.038.542-.038.818 0 5.573 3.266 10.364 7.98 12.613z" fill="#d2d2d2"></path><path d="M24 21c8.669 0 15.728 6.895 15.992 15.5.005-.166.008-.333.008-.5 0-8.837-7.163-16-16-16S8 27.163 8 36c0 .167.003.334.008.5C8.272 27.895 15.331 21 24 21z" fill="#d2d2d2"></path><path d="m29.707 41.293-3.781-3.781c.043-.165.074-.334.074-.512 0-.738-.405-1.376-1-1.723V26a1 1 0 0 0-2 0v9.277c-.595.346-1 .984-1 1.723a2 2 0 0 0 2 2c.178 0 .347-.031.512-.074l3.781 3.781a.997.997 0 0 0 1.414 0 .999.999 0 0 0 0-1.414z" fill="#d2d2d2"></path><path d="M24 26a1 1 0 0 1-1-1v-2a1 1 0 0 1 2 0v2a1 1 0 0 1-1 1zM24 50a1 1 0 0 1-1-1v-2a1 1 0 0 1 2 0v2a1 1 0 0 1-1 1zM14 36a1 1 0 0 1-1 1h-2a1 1 0 0 1 0-2h2a1 1 0 0 1 1 1zM38 36a1 1 0 0 1-1 1h-2a1 1 0 0 1 0-2h2a1 1 0 0 1 1 1z" fill="#00a0c8"></path><path d="M29 27.34a1 1 0 0 1-.366-1.366l1-1.732a1 1 0 1 1 1.732 1l-1 1.732A1 1 0 0 1 29 27.34zM17 48.124a1 1 0 0 1-.366-1.366l1-1.732a1 1 0 0 1 1.732 1l-1 1.732a1 1 0 0 1-1.366.366zM15.34 31a1 1 0 0 1-1.366.366l-1.732-1a1 1 0 1 1 1-1.732l1.732 1A1 1 0 0 1 15.34 31zM36.124 43a1 1 0 0 1-1.366.366l-1.732-1a1 1 0 0 1 1-1.732l1.732 1A1 1 0 0 1 36.124 43zM32.66 31a1 1 0 0 1 .366-1.366l1.732-1a1 1 0 0 1 1 1.732l-1.732 1A1 1 0 0 1 32.66 31zM11.876 43a1 1 0 0 1 .366-1.366l1.732-1a1 1 0 0 1 1 1.732l-1.732 1A1 1 0 0 1 11.876 43zM19 27.34a1 1 0 0 1-1.366-.366l-1-1.732a1 1 0 0 1 1.732-1l1 1.732A1 1 0 0 1 19 27.34zM31 48.124a1 1 0 0 1-1.366-.366l-1-1.732a1 1 0 0 1 1.732-1l1 1.732A1 1 0 0 1 31 48.124z" fill="#d2d2d2"></path><path d="M29 42a.997.997 0 0 1-.707-.293l-5-5A.996.996 0 0 1 23 36V25a1 1 0 1 1 2 0v10.586l4.707 4.707A.999.999 0 0 1 29 42z" fill="#0a5078"></path><circle cx="24" cy="36" fill="#c80a50" r="2"></circle><circle cx="46" cy="22" fill="#fab400" r="14"></circle><g fill="#dc9600"><path d="M52.424 17.095a1.002 1.002 0 0 0-1.064.137l-6 5a1 1 0 0 0-.001 1.537l6 5a1.007 1.007 0 0 0 1.065.136A1 1 0 0 0 53 28V18a1 1 0 0 0-.576-.905z" fill="#dc9600"></path><path d="M44.424 17.095a1.002 1.002 0 0 0-1.064.137l-6 5a1 1 0 0 0-.001 1.537l6 5a1.007 1.007 0 0 0 1.065.136A1 1 0 0 0 45 28V18a1 1 0 0 0-.576-.905z" fill="#dc9600"></path></g><g fill="#c80a50"><path d="M52.424 16.095a1.002 1.002 0 0 0-1.064.137l-6 5a1 1 0 0 0-.001 1.537l6 5a1.007 1.007 0 0 0 1.065.136A1 1 0 0 0 53 27V17a1 1 0 0 0-.576-.905z" fill="#c80a50"></path><path d="M44.424 16.095a1.002 1.002 0 0 0-1.064.137l-6 5a1 1 0 0 0-.001 1.537l6 5a1.007 1.007 0 0 0 1.065.136A1 1 0 0 0 45 27V17a1 1 0 0 0-.576-.905z" fill="#c80a50"></path></g></g></svg>