<svg fill-rule="evenodd" viewBox="0 0 1.707 1.707" xmlns="http://www.w3.org/2000/svg"><g><g fill="#326c9c"><path d="M1.233.893h.362a.112.112 0 0 0 0-.223h-.362a.02.02 0 0 0-.016.03.142.142 0 0 1 0 .162.02.02 0 0 0 .016.031zM.965.893A.02.02 0 0 0 .98.862a.142.142 0 0 1 0-.161A.02.02 0 0 0 .965.67H.112a.112.112 0 0 0 0 .223h.853z" fill="#326c9c"></path></g><g fill="#326c9c"><path d="M.473 1.264H.112a.112.112 0 0 1 0-.224h.361a.02.02 0 0 1 .017.032.142.142 0 0 0 0 .16.02.02 0 0 1-.017.032zM.742 1.264a.02.02 0 0 1-.017-.031.142.142 0 0 0 0-.161.02.02 0 0 1 .017-.032h.853a.112.112 0 0 1 0 .224H.742z" fill="#326c9c"></path></g><path d="M.608 1.335a.183.183 0 1 1 0-.366.183.183 0 0 1 0 .366z" fill="#fdbf00"></path><path d="M.299.522H.112a.112.112 0 0 1 0-.223h.187A.02.02 0 0 1 .315.33a.142.142 0 0 0 0 .16A.02.02 0 0 1 .3.523zM.567.522A.02.02 0 0 1 .551.491a.142.142 0 0 0 0-.161.02.02 0 0 1 .016-.031h1.028a.112.112 0 0 1 0 .223H.567z" fill="#326c9c"></path><path d="M.433.593a.183.183 0 1 1 0-.365.183.183 0 0 1 0 .365z" fill="#00d7df"></path><path d="M1.09.961a.183.183 0 1 1 0-.365.183.183 0 0 1 0 .365z" fill="#fb5e43"></path><path d="M1.094 1.372v-.07a.281.281 0 0 1-.096-.1l-.063-.124C.933 1.075.908 1.032.923.995.932.975.946.97.956.968c.024-.004.05.016.074.042V.792a.058.058 0 0 1 .117 0v.08a.058.058 0 0 1 .056.011.058.058 0 0 1 .077 0 .058.058 0 0 1 .096.044v.318a.078.078 0 0 1-.023.056v.091h-.26v-.02z" fill="#f7caa5"></path><path d="M1.366 1.479h-.285a.02.02 0 0 1-.02-.02v-.087a.02.02 0 0 1 .02-.02h.285a.02.02 0 0 1 .02.02v.087a.02.02 0 0 1-.02.02z" fill="#00ccff"></path></g></svg>