<svg viewBox="0 0 480 480.317" xmlns="http://www.w3.org/2000/svg"><g><path d="M264.176 376.004c0 96-61.922 104-120 104-58.082 0-120-8-120-104 0-86.961 50.398-216 120-216 69.597 0 120 129.039 120 216zm0 0" fill="#1a1a1a"></path><path d="M96.176 71.715a178.101 178.101 0 0 0-56 40.289v-104zM248.176 8.004V109.28a177.943 177.943 0 0 0-56-39.199zm0 0" fill="#333333"></path><path d="m102.176 66.723-56-64A8.007 8.007 0 0 0 37.352.527a8.007 8.007 0 0 0-5.176 7.477v111.84a8.003 8.003 0 0 0 6.238 7.84 13.3 13.3 0 0 0 1.762.16 7.995 7.995 0 0 0 7.199-4.563 88.813 88.813 0 0 1 51.441-43.68 8.782 8.782 0 0 0 2.957-1.84l.082-.077a7.999 7.999 0 0 0 .32-10.961zm-54 27.199v-64.64l34.64 39.6a110.156 110.156 0 0 0-34.64 25.04zM250.977.484a8.077 8.077 0 0 0-8.801 2.239l-56 64a8.144 8.144 0 0 0 .398 11.039 8.837 8.837 0 0 0 2.961 1.84 88.813 88.813 0 0 1 51.442 43.68 7.99 7.99 0 0 0 7.199 4.562c.59-.016 1.176-.067 1.758-.16a8.002 8.002 0 0 0 6.242-7.84V8.004a8.051 8.051 0 0 0-5.2-7.52zm-10.801 93.438a110.156 110.156 0 0 0-34.64-25.04l34.64-39.6zm0 0" fill="#000000"></path><path d="M264.176 155.844c0 59.597-53.84 108.16-120 108.16s-120-48.563-120-108.16c0-57.84 50.48-99.84 120-99.84s120 42 120 99.84zM112.176 456.004a20.504 20.504 0 0 1-11.762 19.52 73.23 73.23 0 0 1-31.918 4.558c-1.922 0-18.64-.078-18.64-.078-19.52.16-34.961.238-43.68-8.563a20.738 20.738 0 0 1-6-15.437c0-14.723 11.199-28.242 29.12-35.121a60.57 60.57 0 0 1 9.278-2.88 78.21 78.21 0 0 1 44.48 2.88c17.923 6.879 29.122 20.398 29.122 35.12zM200.176 376.004h64v56h-64zm0 0" fill="#000000"></path><path d="M24.176 376.004h64v56h-64zM288.176 456.004a20.738 20.738 0 0 1-6 15.437c-8.719 8.801-24.16 8.641-43.68 8.563 0 0-16.723.078-18.64.078a73.255 73.255 0 0 1-31.922-4.559 20.5 20.5 0 0 1-11.758-19.52c0-14.722 11.199-28.241 29.12-35.12a76.936 76.936 0 0 1 44.56-2.801 61.535 61.535 0 0 1 9.359 2.8c17.762 6.88 28.96 20.4 28.96 35.122zM272.176 416.004h-16v-16h16c17.672 0 32-14.328 32-32v-96c0-22.094 17.906-40 40-40 22.09 0 40 17.906 40 40v24h-16v-24c0-13.258-10.746-24-24-24s-24 10.742-24 24v96c-.028 26.496-21.5 47.973-48 48zm0 0" fill="#000000"></path><path d="m174.574 182.402-24 16c-4 2.133-8.8 2.133-12.8 0l-24-16c-1.84-1.199-2.079-2.84-.72-4.199a10.39 10.39 0 0 1 7.122-2.2h48c2.562-.171 5.097.61 7.12 2.2 1.36 1.36 1.118 3-.722 4.2zm0 0" fill="#333333"></path><g fill="#b3b3b3"><path d="M.176 184.004h80v16h-80zM12.93 240.7l71.996-32.016 6.5 14.62-71.992 32.012zM208.176 184.004h80v16h-80zM196.93 223.316l6.5-14.62 72 32-6.496 14.62zm0 0" fill="#b3b3b3"></path></g><path d="M136.176 136.004s-17.914 24-40 24c-22.09 0-40-24-40-24s17.91-24 40-24c22.086 0 40 24 40 24zM232.176 136.004s-17.914 24-40 24c-22.09 0-40-24-40-24s17.91-24 40-24c22.086 0 40 24 40 24zm0 0" fill="#ffcc5c"></path><path d="M192.176 112.004a44.855 44.855 0 0 1 8 24 44.855 44.855 0 0 1-8 24 44.855 44.855 0 0 1-8-24 44.855 44.855 0 0 1 8-24zM96.176 112.004a44.855 44.855 0 0 1 8 24 44.855 44.855 0 0 1-8 24 44.855 44.855 0 0 1-8-24 44.855 44.855 0 0 1 8-24zm0 0" fill="#000000"></path></g></svg>