<svg viewBox="0 0 511 512" xmlns="http://www.w3.org/2000/svg"><g><path d="M30.535 365.09h81.746v103.652H30.535zm0 0" fill="#354968"></path><path d="M112.281 425.95H92.332a7.945 7.945 0 0 1-7.945-7.946 7.945 7.945 0 0 1 7.945-7.945h19.95a7.945 7.945 0 0 1 7.945 7.945 7.945 7.945 0 0 1-7.946 7.945zm0 0" fill="#2a3a51"></path><path d="M112.281 482.883V140.898c0-16.078 13.035-29.117 29.117-29.117h188.598c16.082 0 29.117 13.035 29.117 29.117v341.985c0 16.082-13.035 29.117-29.117 29.117H141.398c-16.082 0-29.117-13.035-29.117-29.117zm0 0" fill="#c9ad91"></path><path d="M329.996 111.781H303.07v175.25c0 105.371-85.418 190.79-190.789 190.79v5.062c0 16.082 13.035 29.117 29.117 29.117h188.598c16.082 0 29.117-13.035 29.117-29.117V140.898c0-16.078-13.035-29.117-29.117-29.117zm0 0" fill="#c4a082"></path><path d="M154.129 363.746c0-9.621-7.8-17.422-17.426-17.422H49.301c-10.367 0-18.766 8.399-18.766 18.766v102.996c0 11.113 9.012 20.125 20.125 20.125 11.117 0 20.13-9.012 20.13-20.125v-81.25a5.667 5.667 0 0 1 5.667-5.668h60.246c9.621 0 17.426-7.8 17.426-17.422zm0 0" fill="#48bbed"></path><path d="M136.703 346.324H49.301c-10.364 0-18.766 8.399-18.766 18.766v14.828c0-10.363 8.399-18.766 18.766-18.766h87.402c6.969 0 12.961 4.102 15.75 10.008a17.322 17.322 0 0 0 1.672-7.414c.004-9.625-7.8-17.422-17.422-17.422zm0 0" fill="#009be6"></path><path d="M67.469 418.004c0 18.492-14.992 33.484-33.485 33.484S.5 436.496.5 418.004s14.992-33.484 33.484-33.484 33.485 14.992 33.485 33.484zm0 0" fill="#354968"></path><path d="M33.984 384.52a33.36 33.36 0 0 0-7.547.867c14.852 3.422 25.934 16.722 25.934 32.617 0 15.894-11.078 29.195-25.934 32.617a33.36 33.36 0 0 0 7.547.867c18.493 0 33.485-14.992 33.485-33.484S52.477 384.52 33.984 384.52zm0 0" fill="#fcc1b9"></path><path d="M30.531 189.434h81.75v103.66h-81.75zm0 0" fill="#354968"></path><path d="M112.281 234.402v15.891H92.336a7.94 7.94 0 0 1-7.945-7.945 7.942 7.942 0 0 1 7.945-7.946zm0 0" fill="#2a3a51"></path><path d="M73.078 203.227h39.203v-32.559H50.555v.008c-11.067.058-20.02 9.043-20.02 20.12v101.74c0 11.058 8.961 20.023 20.02 20.023h61.726V280H73.078a2.29 2.29 0 0 1-2.289-2.29v-72.194a2.287 2.287 0 0 1 2.29-2.29zm0 0" fill="#48bbed"></path><path d="M70.79 277.71c0 9.845 7.98 17.825 17.823 17.825h23.668V280H73.078a2.29 2.29 0 0 1-2.289-2.29zM50.555 170.668v.008c-11.067.058-20.02 9.043-20.02 20.12v15.536c0-11.078 8.953-20.062 20.02-20.121v-.004h61.726v-15.539zm0 0" fill="#009be6"></path><path d="M67.469 242.348c0 18.492-14.992 33.484-33.485 33.484S.5 260.84.5 242.348c0-18.493 14.992-33.485 33.484-33.485s33.485 14.992 33.485 33.485zM359.125 189.086h81.75v103.648h-81.75zm0 0" fill="#354968"></path><path d="M387.016 242a7.94 7.94 0 0 1-7.946 7.945h-19.945v-15.89h19.945a7.94 7.94 0 0 1 7.946 7.945zm0 0" fill="#2a3a51"></path><path d="M317.281 187.738c0-9.62 7.801-17.422 17.422-17.422h87.406c10.364 0 18.766 8.403 18.766 18.766v102.996c0 11.113-9.012 20.125-20.129 20.125s-20.129-9.012-20.129-20.125V207.45a2.286 2.286 0 0 0-2.289-2.285h-63.625c-9.621-.004-17.422-7.8-17.422-17.426zm0 0" fill="#48bbed"></path><path d="M422.11 170.316h-87.407c-9.621 0-17.422 7.801-17.422 17.422 0 2.602.586 5.059 1.606 7.278 2.758-5.989 8.797-10.149 15.816-10.149h87.406c10.364 0 18.762 8.399 18.762 18.766v-14.551c0-10.363-8.398-18.766-18.762-18.766zm0 0" fill="#009be6"></path><path d="M470.906 241.996c0 18.492-14.988 33.484-33.48 33.484-18.496 0-33.485-14.992-33.485-33.484s14.989-33.484 33.485-33.484c18.492 0 33.48 14.992 33.48 33.484zm0 0" fill="#354968"></path><path d="M33.984 208.867c-2.597 0-5.12.305-7.547.863 14.852 3.426 25.934 16.723 25.934 32.622 0 15.894-11.078 29.191-25.934 32.617 2.426.558 4.95.867 7.547.867 18.493 0 33.485-14.992 33.485-33.484 0-18.497-14.992-33.485-33.485-33.485zm0 0" fill="#fcc1b9"></path><path d="M359.125 364.738h81.75v103.649h-81.75zm0 0" fill="#354968"></path><path d="M387.016 417.652a7.94 7.94 0 0 1-7.946 7.946h-19.945v-15.891h19.945a7.94 7.94 0 0 1 7.946 7.945zm0 0" fill="#2a3a51"></path><path d="M398.328 378.527h-39.203v-32.554h61.73v.004c11.067.058 20.02 9.043 20.02 20.12V467.84c0 11.058-8.965 20.02-20.02 20.02h-61.73V455.3h39.203a2.286 2.286 0 0 0 2.29-2.284v-72.2a2.29 2.29 0 0 0-2.29-2.289zm0 0" fill="#48bbed"></path><path d="M400.617 453.016a2.286 2.286 0 0 1-2.285 2.285h-39.203v15.539h23.664c9.844 0 17.824-7.98 17.824-17.824zM420.855 345.977v-.004h-61.73v15.535h61.73v.004c11.067.058 20.02 9.043 20.02 20.125v-15.54c-.004-11.077-8.957-20.062-20.02-20.12zm0 0" fill="#009be6"></path><path d="M470.906 417.652c0 18.493-14.988 33.485-33.48 33.485-18.496 0-33.485-14.992-33.485-33.485 0-18.492 14.989-33.484 33.485-33.484 18.492 0 33.48 14.992 33.48 33.484zM183.516 30.031h103.656v81.75H183.516zm0 0" fill="#354968"></path><path d="M244.387 91.836v19.945h-15.89V91.836a7.932 7.932 0 0 1 7.944-7.945 7.942 7.942 0 0 1 7.946 7.945zm0 0" fill="#2a3a51"></path><path d="M197.313 72.578v55.758c0 8.988-7.29 16.277-16.282 16.277s-16.277-7.289-16.277-16.277V50.055h.004c.058-11.067 9.043-20.02 20.12-20.02h101.743c11.059 0 20.02 8.961 20.02 20.02v78.28c0 8.99-7.29 16.278-16.278 16.278-8.992 0-16.281-7.289-16.281-16.277V72.578a2.289 2.289 0 0 0-2.285-2.289h-72.2a2.289 2.289 0 0 0-2.284 2.29zm0 0" fill="#7885ed"></path><path d="M286.621 30.035H184.883c-11.082 0-20.067 8.953-20.125 20.02h-.004v16.418h.004c.058-11.067 9.043-20.02 20.125-20.02H286.62c11.059 0 20.024 8.961 20.024 20.02V50.055c-.004-11.059-8.965-20.02-20.024-20.02zm0 0" fill="#676fce"></path><path d="M269.918 33.484c0 18.493-14.992 33.485-33.484 33.485-18.493 0-33.485-14.992-33.485-33.485S217.941 0 236.434 0c18.492 0 33.484 14.992 33.484 33.484zm0 0" fill="#354968"></path><path d="m207.223 268.379-47.735-6.68a3.515 3.515 0 0 1-2.992-3.969l8.356-59.71a3.51 3.51 0 0 1 3.964-2.993l47.735 6.68a3.52 3.52 0 0 1 2.996 3.969l-8.356 59.71a3.515 3.515 0 0 1-3.968 2.993zm0 0" fill="#c4a082"></path><path d="m202.723 262.816-47.739-6.68a3.511 3.511 0 0 1-2.992-3.964l8.356-59.711a3.515 3.515 0 0 1 3.968-2.992l47.735 6.68a3.51 3.51 0 0 1 2.992 3.964l-8.356 59.711a3.511 3.511 0 0 1-3.964 2.992zm0 0" fill="#ffffff"></path><path d="M437.426 384.168c2.594 0 5.12.305 7.547.863-14.856 3.426-25.938 16.727-25.938 32.621 0 15.895 11.082 29.196 25.938 32.618a33.61 33.61 0 0 1-7.547.867c-18.492 0-33.485-14.992-33.485-33.485 0-18.492 14.993-33.484 33.485-33.484zM269.918 33.484c0-2.597-.305-5.12-.863-7.547-3.426 14.852-16.727 25.934-32.621 25.934-15.895 0-29.196-11.078-32.618-25.934a33.583 33.583 0 0 0-.867 7.547c0 18.493 14.992 33.485 33.485 33.485 18.492 0 33.484-14.992 33.484-33.485zM437.426 208.516c2.594 0 5.12.304 7.547.863-14.856 3.426-25.938 16.723-25.938 32.617 0 15.899 11.082 29.195 25.938 32.621a33.608 33.608 0 0 1-7.547.863c-18.492 0-33.485-14.988-33.485-33.484 0-18.492 14.993-33.48 33.485-33.48zm0 0" fill="#fcc1b9"></path><path d="m323.977 442.59-47.93 5.09a3.508 3.508 0 0 1-3.863-3.121l-6.371-59.957a3.508 3.508 0 0 1 3.12-3.864l47.934-5.093a3.514 3.514 0 0 1 3.863 3.125l6.372 59.953a3.52 3.52 0 0 1-3.125 3.867zm0 0" fill="#ffffff"></path><g fill="#a17852"><path d="M306.285 249.879c0 8.23-6.672 14.902-14.898 14.902-8.23 0-14.903-6.672-14.903-14.902s6.672-14.902 14.903-14.902c8.226 0 14.898 6.671 14.898 14.902zM179.656 456.914c0 8.23-6.672 14.902-14.902 14.902s-14.902-6.671-14.902-14.902c0-8.23 6.671-14.902 14.902-14.902 8.23 0 14.902 6.672 14.902 14.902zm0 0" fill="#a17852"></path><path d="M306.285 249.879c0 8.23-6.672 14.902-14.898 14.902-8.23 0-14.903-6.672-14.903-14.902s6.672-14.902 14.903-14.902c8.226 0 14.898 6.671 14.898 14.902zm0 0" fill="#a17852"></path><path d="M302.79 249.879c0 6.297-5.106 11.406-11.403 11.406-6.301 0-11.407-5.11-11.407-11.406 0-6.3 5.106-11.406 11.407-11.406 6.297 0 11.402 5.105 11.402 11.406zM175.86 456.914c0 6.133-4.973 11.106-11.106 11.106-6.137 0-11.11-4.973-11.11-11.106 0-6.137 4.973-11.11 11.11-11.11 6.133 0 11.105 4.973 11.105 11.11zm0 0" fill="#a17852"></path></g></g></svg>