<svg viewBox="0 0 512 512" xmlns="http://www.w3.org/2000/svg"><g><path d="M256 283.514c0-42.063-34.099-76.162-76.162-76.162l-10 70.567 10 169.109H256z" fill="#24b3b3"></path><path d="M103.676 283.514v163.514h76.162V207.352c-42.063 0-76.162 34.099-76.162 76.162z" fill="#2ee6a8"></path><path d="M408.324 283.514c0-42.063-34.099-76.162-76.162-76.162l-10 70.567 10 169.109h76.162z" fill="#e62e6b"></path><path d="M256 283.514v163.514h76.162V207.352c-42.063 0-76.162 34.099-76.162 76.162z" fill="#ff6666"></path><path d="M241 0h30v45h-30z" fill="#ffb655"></path><path d="M241 0h30v45h-30z" fill="#ffb655"></path><path d="m162.616 17.168 28.53-9.27 13.905 42.795-28.53 9.27z" fill="#ffda44"></path><path d="m162.616 17.168 28.53-9.27 13.905 42.795-28.53 9.27zM93.4 57.686l24.27-17.64 26.46 36.405-24.27 17.64z" fill="#ffda44"></path><path d="m93.4 57.686 24.27-17.64 26.46 36.405-24.27 17.64zM40.084 117.683l17.64-24.27 36.405 26.46-17.64 24.27z" fill="#ffda44"></path><path d="m40.084 117.683 17.64-24.27 36.405 26.46-17.64 24.27zM7.884 191.158l9.27-28.53 42.795 13.905-9.27 28.53z" fill="#ffda44"></path><path d="m7.884 191.158 9.27-28.53 42.795 13.905-9.27 28.53zM0 241h45v30H0z" fill="#ffda44"></path><path d="M0 241h45v30H0z" fill="#ffda44"></path><g fill="#ffb655"><path d="M467 241h45v30h-45z" fill="#ffb655"></path><path d="M467 241h45v30h-45zM452.009 176.532l42.795-13.905 9.27 28.53-42.795 13.905z" fill="#ffb655"></path><path d="m452.009 176.532 42.795-13.905 9.27 28.53-42.795 13.905zM417.902 119.752l36.405-26.46 17.64 24.27-36.405 26.46z" fill="#ffb655"></path><path d="m417.902 119.752 36.405-26.46 17.64 24.27-36.405 26.46zM367.964 76.496l26.46-36.405 24.27 17.64-26.46 36.405z" fill="#ffb655"></path><path d="m367.964 76.496 26.46-36.405 24.27 17.64-26.46 36.405zM306.929 50.709l13.905-42.795 28.53 9.27-13.905 42.795z" fill="#ffb655"></path><path d="m306.929 50.709 13.905-42.795 28.53 9.27-13.905 42.795z" fill="#ffb655"></path></g><path d="M223.514 163.676c0-24.122-19.554-43.676-43.676-43.676l-10 43.676 10 43.676c24.121 0 43.676-19.555 43.676-43.676z" fill="#dbad5c"></path><path d="M136.162 163.676c0 24.122 19.554 43.676 43.676 43.676V120c-24.122 0-43.676 19.554-43.676 43.676z" fill="#e7c994"></path><path d="M375.838 163.676c0-24.122-19.554-43.676-43.676-43.676l-10 43.676 10 43.676c24.122 0 43.676-19.555 43.676-43.676z" fill="#8c574d"></path><path d="M288.486 163.676c0 24.122 19.554 43.676 43.676 43.676V120c-24.121 0-43.676 19.554-43.676 43.676z" fill="#a6756b"></path><path d="M452 327.19c0-24.122-19.554-43.676-43.676-43.676l-10 43.676 10 43.676C432.446 370.865 452 351.311 452 327.19z" fill="#dbad5c"></path><path d="M364.648 327.19c0 24.122 19.554 43.676 43.676 43.676v-87.352c-24.121 0-43.676 19.554-43.676 43.676z" fill="#e7c994"></path><path d="M484.486 447.028c0-42.063-34.099-76.162-76.162-76.162l-10 70.567 10 70.567h76.162z" fill="#6a4dff"></path><path d="m332.162 447.028-10 34.972 10 30h76.162V370.865c-42.063 0-76.162 34.099-76.162 76.163z" fill="#6680ff"></path><path d="M299.676 327.19c0-24.122-19.554-43.676-43.676-43.676l-10 43.676 10 43.676c24.122-.001 43.676-19.555 43.676-43.676z" fill="#ffcdbe"></path><path d="M212.324 327.19c0 24.122 19.554 43.676 43.676 43.676v-87.352c-24.122 0-43.676 19.554-43.676 43.676z" fill="#ffdecf"></path><path d="M332.162 447.028c0-42.063-34.099-76.162-76.162-76.162l-10 70.567L256 512h76.162z" fill="#404a80"></path><path d="m179.838 447.028-10 34.972 10 30H256V370.865c-42.063 0-76.162 34.099-76.162 76.163z" fill="#5c6699"></path><path d="M147.352 327.19c0-24.122-19.554-43.676-43.676-43.676l-10 43.676 10 43.676c24.121-.001 43.676-19.555 43.676-43.676z" fill="#8c574d"></path><path d="M60 327.19c0 24.122 19.554 43.676 43.676 43.676v-87.352C79.554 283.514 60 303.068 60 327.19z" fill="#a6756b"></path><path d="M179.838 447.028c0-42.063-34.099-76.162-76.162-76.162l-10 70.567 10 70.567h76.162z" fill="#ffb655"></path><path d="M27.514 447.028V512h76.162V370.865c-42.063 0-76.162 34.099-76.162 76.163z" fill="#ffda44"></path></g></svg>