<svg viewBox="0 0 512 512" xmlns="http://www.w3.org/2000/svg"><g><path d="M24 310.56c13.25 0 24-10.74 24-24v-80.18c0-48.59 39.53-88.13 88.13-88.13h253.93c.26 6.99.62 13.98 1.11 20.97 1 17.08 19.75 29.24 32.58 22.19 22.71-11.24 53.41-29.47 78.39-47.53 6.81-4.96 9.8-12.32 9.84-19.63-.04-7.31-3.03-14.67-9.84-19.63-24.98-18.05-55.69-36.29-78.39-47.53-12.83-7.05-31.58 5.11-32.58 22.19-.49 6.99-.85 13.98-1.11 20.97H136.13C61.07 70.26 0 131.33 0 206.38v80.18c0 13.25 10.74 24 24 24zM488 201.44c-13.25 0-24 10.74-24 24v80.18c0 48.59-39.53 88.13-88.13 88.13H121.95c-.26-6.99-.62-13.98-1.11-20.97-1-17.08-19.75-29.24-32.58-22.19-22.71 11.24-53.41 29.47-78.39 47.53-6.82 4.95-9.81 12.31-9.85 19.62.04 7.31 3.03 14.67 9.84 19.63 24.98 18.05 55.69 36.29 78.39 47.53 12.83 7.05 31.58-5.11 32.58-22.19.49-6.99.85-13.98 1.11-20.97h253.93c75.06 0 136.12-61.07 136.12-136.12v-80.18c0-13.25-10.74-24-24-24z" fill="#72337f"></path><path d="M24 310.56c13.25 0 24-10.74 24-24v-80.18c0-48.59 39.53-88.13 88.13-88.13h253.93c.26 6.99.62 13.98 1.11 20.97.33 5.56 2.54 10.59 5.81 14.62 1.14-10.24 1.75-20.64 1.75-31.19 0-22.88-2.77-45.12-7.99-66.39-.27 4.67-.51 9.33-.69 14H136.12C61.07 70.26 0 131.33 0 206.38v80.18c0 13.26 10.74 24 24 24zM120.56 400.82c21.53 0 42.49-2.45 62.62-7.08h-61.23c-.26-6.99-.62-13.98-1.11-20.97-1-17.08-19.75-29.24-32.58-22.19-17.28 8.55-39.2 21.16-59.69 34.66 28.8 10.09 59.76 15.58 92 15.58z" fill="#88438c"></path><path d="M232 196.49v119.02c0 13.25 10.74 24 24 24s24-10.74 24-24V196.49c0-13.25-10.74-24-24-24s-24 10.74-24 24z" fill="#28283f"></path></g></svg>