<svg viewBox="0 0 512 512" xmlns="http://www.w3.org/2000/svg"><g><path d="M256 32.704C248.02 25.508 237.567 21 226 21H45C20.186 21 0 41.186 0 66s20.186 45 45 45h181c8.276 0 15 6.724 15 15v30h30V66c0-13.248-5.861-25.052-15-33.296zm-15 50.859A44.993 44.993 0 0 0 226 81H45c-8.276 0-15-6.724-15-15s6.724-15 15-15h181c8.276 0 15 6.724 15 15z" fill="#4d5e80"></path><path d="M271 66c0-13.248-5.861-25.052-15-33.296V156h15z" fill="#3d4566"></path><path d="M0 171v330h512V171z" fill="#edf3f9"></path><path d="M256 171h256v330H256z" fill="#d8e2f0"></path><path d="m391 117.211-55.605-55.606 21.21-21.21L391 74.789 455.395 11l21.21 21.211z" fill="#34cc15"></path><path d="M271 261h30v30h-30zM331 261h30v30h-30zM391 261h30v30h-30z" fill="#3d4566"></path><path d="M241 321h210v30H241zM241 381h210v30H241z" fill="#4d5e80"></path><path d="M136 351c-24.814 0-45-20.186-45-45s20.186-45 45-45 45 20.186 45 45-20.186 45-45 45z" fill="#ffd9b3"></path><path d="M211 441H61v-15c0-41.353 33.647-75 75-75s75 33.647 75 75z" fill="#8ae65c"></path><path d="M256 321h195v30H256zM256 381h195v30H256z" fill="#3d4566"></path><path d="M286 141h-60c-16.5 0-30 13.5-30 30v30h120v-30c0-16.5-13.5-30-30-30z" fill="#ffdf40"></path><path d="M316 201h-60v-60h30c16.5 0 30 13.5 30 30z" fill="#ffbe40"></path></g></svg>