<svg viewBox="0 0 512 512" xmlns="http://www.w3.org/2000/svg"><g><path d="M280 176h-48c-22.091 0-40-17.909-40-40V56c0-22.091 17.909-40 40-40h48c22.091 0 40 17.909 40 40v80c0 22.091-17.909 40-40 40zM352 192H160c-26.51 0-48 21.49-48 48v64h48v192h80v-16h32v16h80V304h48v-64c0-26.51-21.49-48-48-48z" fill="#fab991"></path><path d="M232 176h48v16h-48zM160 272v32h-10.667v-21.333c0-5.891 4.776-10.667 10.667-10.667zM282.667 464v32H272v-21.333c0-5.891 4.776-10.667 10.667-10.667zM229.333 464v32H240v-21.333c0-5.891-4.776-10.667-10.667-10.667zM352 272v32h10.667v-21.333c0-5.891-4.776-10.667-10.667-10.667z" fill="#f0915a"></path><path d="M192 64h64V16h-24c-22.091 0-40 17.909-40 40z" fill="#fac3c8"></path><path d="M256 16h24c22.091 0 40 17.909 40 40v40a8 8 0 0 1-8-8V64c0-13.255-10.745-24-24-24h-32z" fill="#555a6e"></path><path d="M232 176h24V64h-64v72c0 22.091 17.909 40 40 40z" fill="#d7e6f0"></path><path d="M320 128V96c8.837 0 16 7.163 16 16s-7.163 16-16 16zM192 128V96c-8.837 0-16 7.163-16 16s7.163 16 16 16z" fill="#f0915a"></path><circle cx="224" cy="96" fill="#555a6e" r="16"></circle><circle cx="288" cy="96" fill="#555a6e" r="8"></circle><path d="M216 172.662V152c0-13.255-10.745-24-24-24v8c0 16.401 9.875 30.489 24 36.662z" fill="#555a6e"></path><path d="M232 152h24v-16h-24a8 8 0 0 0 0 16z" fill="#a5c3dc"></path><path d="M256 146.667h18.667a5.333 5.333 0 0 0 5.333-5.333h-24z" fill="#555a6e"></path><g fill="#f58caa"><path d="M224 28a4 4 0 0 0 0 8h9.333c4.411 0 8-3.589 8-8V16h-8v12zM224 57.333a4 4 0 0 0 0-8h-12V44c0-4.411-3.589-8-8-8h-6.635a39.805 39.805 0 0 0-3.531 8H204v20h8v-6.667zM245.333 41.333a4 4 0 0 0 0 8H256v-8z" fill="#f58caa"></path></g><path d="M256 128v-24a8 8 0 0 1 8 8v8a8 8 0 0 1-8 8z" fill="#f0915a"></path><path d="M256 128v-24a8 8 0 0 0-8 8v8a8 8 0 0 0 8 8zM320 464H192c-8.837 0-16-7.163-16-16V272c0-35.346 28.654-64 64-64h32c35.346 0 64 28.654 64 64v176c0 8.837-7.163 16-16 16z" fill="#555a6e"></path><path d="M288 440h-64c-13.255 0-24-10.745-24-24s10.745-24 24-24h64c13.255 0 24 10.745 24 24s-10.745 24-24 24z" fill="#f05a4b"></path><path d="M256 392a5.333 5.333 0 0 1 5.333 5.333v32h-10.667v-32A5.334 5.334 0 0 1 256 392zM234.667 410.667A5.333 5.333 0 0 1 240 416v24h-10.667v-24a5.333 5.333 0 0 1 5.334-5.333zM208 392h10.667v18.667a5.333 5.333 0 0 1-10.666 0V392zM277.333 410.667A5.333 5.333 0 0 0 272 416v24h10.667v-24a5.333 5.333 0 0 0-5.334-5.333zM304 392h-10.667v18.667a5.333 5.333 0 0 0 10.666 0V392z" fill="#d73728"></path><path d="M224 328v8h16c13.255 0 24 10.745 24 24s-10.745 24-24 24h-16v8h64c17.673 0 32-14.327 32-32 0-17.673-14.327-32-32-32z" fill="#f58caa"></path><path d="M288 328v16c0 8.837 7.163 16 16 16h16c0-17.673-14.327-32-32-32z" fill="#fac3c8"></path><path d="M208 320h24c8.837 0 16-7.163 16-16v-80h-8c-26.51 0-48 21.49-48 48v32c0 8.837 7.163 16 16 16z" fill="#f05a4b"></path><path d="M232 304h-24c-8.837 0-16-7.163-16-16v16c0 8.837 7.163 16 16 16h24c8.837 0 16-7.163 16-16v-16c0 8.837-7.163 16-16 16z" fill="#d73728"></path><path d="M304 320h-24c-8.837 0-16-7.163-16-16v-80h8c26.51 0 48 21.49 48 48v32c0 8.837-7.163 16-16 16z" fill="#f05a4b"></path><path d="M280 304h24c8.837 0 16-7.163 16-16v16c0 8.837-7.163 16-16 16h-24c-8.837 0-16-7.163-16-16v-16c0 8.837 7.163 16 16 16z" fill="#d73728"></path><path d="M264 224v-48h-16v48c-8.822 0-16 7.178-16 16v16a8 8 0 0 0 16 0v-16h16v16a8 8 0 0 0 16 0v-16c0-8.822-7.178-16-16-16z" fill="#fac3c8"></path><path d="M277.333 266.667a10.659 10.659 0 0 0-9.333 5.507 10.66 10.66 0 0 0-9.333-5.507c-5.891 0-10.667 4.776-10.667 10.667V288c0 17.673 14.327 32 32 32a8 8 0 0 0 8-8v-34.667c0-5.891-4.776-10.666-10.667-10.666z" fill="#f58caa"></path><path d="M204.564 384H200a8 8 0 0 1-8-8v-24c0-17.673 14.327-32 32-32h64a8 8 0 0 1 8 8c0 4.932-2.694 9.469-7.023 11.831l-77.96 42.524a13.487 13.487 0 0 1-6.453 1.645z" fill="#dc6950"></path><path d="M237.333 333.333V368l51.644-28.169A13.477 13.477 0 0 0 296 328a8 8 0 0 0-8-8h-64c7.364 0 13.333 5.97 13.333 13.333z" fill="#c85541"></path><path d="M288 384h-64c-17.645 0-32 14.355-32 32s14.355 32 32 32h8a8 8 0 0 0 0-16h-8c-8.822 0-16-7.178-16-16s7.178-16 16-16h64c8.822 0 16 7.178 16 16s-7.178 16-16 16h-8c-17.645 0-32 14.355-32 32h16c0-8.822 7.178-16 16-16h8c17.645 0 32-14.355 32-32s-14.355-32-32-32z" fill="#fac3c8"></path></g></svg>