<svg viewBox="0 0 392.52 464" xmlns="http://www.w3.org/2000/svg"><g><g><g><path d="M383.43 162.29a62.722 62.722 0 0 0 9.09-32.31c0-40.61-40.1-73.53-89.56-73.53a108.793 108.793 0 0 0-19.12 1.68C275.22 24.92 239.29 0 196.26 0s-78.96 24.92-87.58 58.13a108.793 108.793 0 0 0-19.12-1.68C40.1 56.45 0 89.37 0 129.98a62.722 62.722 0 0 0 9.09 32.31c-1 1.67-1.93 3.39-2.76 5.13A61.8 61.8 0 0 0 0 194.6c0 40.61 40.1 73.53 89.56 73.53a107.646 107.646 0 0 0 27.91-3.65c15.15 22.96 44.75 38.56 78.79 38.56s63.64-15.6 78.79-38.56a107.646 107.646 0 0 0 27.91 3.65c49.46 0 89.56-32.92 89.56-73.53a61.842 61.842 0 0 0-6.33-27.19q-1.26-2.61-2.76-5.12z" fill="#d3d3ff"></path><path d="M392.52 129.98c0-40.61-40.1-73.53-89.56-73.53a108.793 108.793 0 0 0-19.12 1.68C275.22 24.92 239.29 0 196.26 0s-78.96 24.92-87.58 58.13a108.793 108.793 0 0 0-19.12-1.68C40.1 56.45 0 89.37 0 129.98a62.722 62.722 0 0 0 9.09 32.31c-1 1.67-1.93 3.39-2.76 5.13 13.16 27.15 45.47 46.35 83.23 46.35a107.646 107.646 0 0 0 27.91-3.65c15.15 22.96 44.75 38.55 78.79 38.55s63.64-15.59 78.79-38.55a107.646 107.646 0 0 0 27.91 3.65c37.77 0 70.08-19.2 83.23-46.36q-1.26-2.61-2.76-5.12a62.722 62.722 0 0 0 9.09-32.31z" fill="#eeecff"></path><g fill="#ffe262"><path d="M328.091 56.425c-14.08-7.585-25.007-22.349-31.975-40.545a4.956 4.956 0 0 0-9.761 0c-6.452 18.385-17.9 32.96-31.975 40.545a6.233 6.233 0 0 0-3.279 6.16c0 .03.007.061.011.091a7.37 7.37 0 0 0 3.783 5.511c13.543 7.5 24.6 21.485 31.041 39.092a5.472 5.472 0 0 0 10.6 0c6.441-17.607 17.5-31.595 31.042-39.092a7.37 7.37 0 0 0 3.783-5.511l.011-.091a6.233 6.233 0 0 0-3.281-6.16zM101.645 129.539c-9.4-5.064-16.695-14.92-21.346-27.067a4.1 4.1 0 0 0-3.272-2.735 4.093 4.093 0 0 0-3.244 2.735c-4.307 12.273-11.946 22-21.346 27.067a4.162 4.162 0 0 0-2.189 4.112l.008.061a4.92 4.92 0 0 0 2.525 3.679c9.041 5 16.423 14.343 20.722 26.1a3.653 3.653 0 0 0 7.075 0c4.3-11.754 11.682-21.092 20.723-26.1a4.92 4.92 0 0 0 2.525-3.679l.008-.061a4.161 4.161 0 0 0-2.189-4.112zM255.436 154.3c-15.5-8.351-27.529-24.6-35.2-44.634a5.456 5.456 0 0 0-10.746 0c-7.1 20.239-19.7 36.283-35.2 44.634a6.86 6.86 0 0 0-3.61 6.78l.012.1a8.117 8.117 0 0 0 4.164 6.067c14.909 8.252 27.082 23.651 34.172 43.033a6.024 6.024 0 0 0 11.667 0c7.09-19.382 19.263-34.781 34.172-43.033a8.12 8.12 0 0 0 4.164-6.067l.012-.1a6.86 6.86 0 0 0-3.607-6.78zM147.115 46.341c-10.893-5.868-19.347-17.291-24.738-31.369a4.755 4.755 0 0 0-3.793-3.169 4.742 4.742 0 0 0-3.759 3.169c-4.991 14.225-13.844 25.5-24.738 31.369a4.823 4.823 0 0 0-2.537 4.766l.009.07a5.7 5.7 0 0 0 2.926 4.264c10.478 5.8 19.034 16.623 24.016 30.245a4.234 4.234 0 0 0 8.2 0c4.983-13.622 13.538-24.444 24.016-30.245a5.7 5.7 0 0 0 2.927-4.264l.008-.07a4.822 4.822 0 0 0-2.537-4.766z" fill="#ffe262"></path></g><circle cx="118.601" cy="357.302" fill="#d3d3ff" r="42.271"></circle><circle cx="50.222" cy="435.271" fill="#d3d3ff" r="28.729"></circle></g></g></g></svg>