<svg viewBox="0 0 512 512" xmlns="http://www.w3.org/2000/svg"><g><g fill-rule="evenodd"><path d="M75.953 61.584v92.039c0 4.514 3.699 8.212 8.213 8.212h26.128c4.514 0 8.213-3.697 8.213-8.212V61.584h15.722c1.913 0 3.55-1.062 4.328-2.81s.474-3.675-.806-5.098l-36.999-41.121c-.931-1.035-2.13-1.569-3.522-1.569s-2.591.534-3.523 1.569L56.709 53.676c-1.28 1.423-1.585 3.35-.806 5.098s2.415 2.81 4.328 2.81z" fill="#29b933"></path><path d="M75.953 61.584v92.039c0 4.514 3.699 8.212 8.213 8.212h12.628c4.514 0 8.213-3.697 8.213-8.212V61.584h15.722c1.913 0 3.55-1.062 4.328-2.81s.474-3.675-.806-5.098L90.48 16.142 56.709 53.676c-1.28 1.423-1.585 3.35-.806 5.098s2.415 2.81 4.328 2.81z" fill="#2dd62d"></path></g><g fill-rule="evenodd"><path d="M127.888 250.014h244.721c6.34 0 11.511 5.172 11.511 11.512v52.625H127.888c-17.637 0-32.068-14.431-32.068-32.068s14.43-32.068 32.068-32.068z" fill="#ab733a"></path><path d="M384.12 266.734v47.417H127.888a31.81 31.81 0 0 1-16.78-4.775 31.781 31.781 0 0 1-1.804-10.573c0-17.638 14.43-32.069 32.068-32.069z" fill="#ba8047"></path></g><path d="M217.747 57.436h126.507v254.975H217.747z" fill="#009914"></path><path d="M192.747 82.436h126.506v254.975H192.747z" fill="#29b933"></path><g fill-rule="evenodd"><path d="M393.493 61.584v92.039c0 4.514 3.699 8.212 8.213 8.212h26.128c4.514 0 8.213-3.697 8.213-8.212V61.584h15.722c1.913 0 3.55-1.062 4.328-2.81s.474-3.675-.806-5.098l-36.999-41.121c-.931-1.035-2.13-1.569-3.522-1.569s-2.591.534-3.523 1.569l-36.999 41.121c-1.28 1.423-1.585 3.35-.806 5.098s2.415 2.81 4.328 2.81h15.722z" fill="#2a93fc"></path><path d="M393.493 61.584v92.039c0 4.514 3.699 8.212 8.213 8.212h12.628c4.514 0 8.213-3.697 8.213-8.212V61.584h15.722c1.913 0 3.55-1.062 4.328-2.81s.474-3.675-.806-5.098l-33.772-37.534-33.771 37.534c-1.28 1.423-1.585 3.35-.806 5.098s2.415 2.81 4.328 2.81h15.722z" fill="#4eb1fc"></path></g><path d="M167.5 107.436h127v255.969h-127z" fill="#2dd62d"></path><g fill-rule="evenodd"><path d="M180.796 136.39c9.509 1.308 15.876-4.927 15.876-11.341H217.8v220.742h-21.128c0-6.413-6.367-12.649-15.876-11.341z" fill="#29b933"></path><path d="M185.113 329.916V140.925c8.768 0 15.876-7.108 15.876-15.875h60.022c0 8.768 7.108 15.875 15.876 15.875v188.991c-8.768 0-15.876 7.108-15.876 15.876h-60.022c0-8.768-7.108-15.876-15.876-15.876z" fill="#96ff96"></path><g fill="#009914"><path d="M225.004 268.755c-9.514-1.882-16.428-7.549-18.249-15.356a6.007 6.007 0 0 1 4.481-7.211 6.009 6.009 0 0 1 7.205 4.48c.635 2.726 3.312 4.6 6.562 5.671v-13.283c-3.798-1.039-7.62-2.433-10.692-4.816-4.09-3.17-6.53-7.48-6.872-12.141-.331-4.549 1.341-8.989 4.71-12.5 3.273-3.413 7.924-5.431 12.854-6.318v-3.461c0-3.311 2.686-6.001 5.999-6.001s6.001 2.69 6.001 6.001v3.408a30.75 30.75 0 0 1 3.087.681c8.073 2.24 13.564 7.32 15.07 13.941a6 6 0 0 1-4.521 7.181 5.986 5.986 0 0 1-7.179-4.521c-.688-3.019-4.65-4.482-6.456-4.995v14.17l.277.077c8.128 2.319 13.607 5.95 16.288 10.799 1.982 3.589 2.368 7.751 1.118 12.029-2.162 7.392-9.716 11.343-17.682 12.487v3.244c0 3.32-2.686 6.001-6.001 6.001s-5.999-2.68-5.999-6.001v-3.563zm11.999-11.846c3.393-.757 5.738-2.233 6.163-3.69.453-1.55.184-2.34-.102-2.859-.407-.732-1.761-2.417-6.061-4.061v10.611zm-11.999-37.329c-1.762.543-3.239 1.332-4.198 2.329-.983 1.02-1.478 2.2-1.397 3.32.115 1.561 1.291 2.78 2.259 3.529.852.664 2.011 1.228 3.335 1.722v-10.901zM231.002 182.498a6.002 6.002 0 0 1-5.999-6.001v-21.228c0-3.311 2.686-6.001 5.999-6.001s6.001 2.69 6.001 6.001v21.228a6.003 6.003 0 0 1-6.001 6.001zm0 138.079a6.002 6.002 0 0 1-5.999-5.999v-14.93c0-3.311 2.686-6.001 5.999-6.001s6.001 2.69 6.001 6.001v14.93a6.002 6.002 0 0 1-6.001 5.999z" fill="#009914"></path></g><path d="M404.669 314.151H127.888c-17.637 0-32.068-14.431-32.068-32.068v186.863c0 17.638 14.431 32.068 32.068 32.068h276.781c6.341 0 11.511-5.171 11.511-11.512v-163.84c0-6.34-5.172-11.511-11.511-11.511z" fill="#d19458"></path><path d="M383.095 314.151H127.888c-17.638 0-32.068-14.43-32.068-32.068v186.863c0 17.637 14.43 32.068 32.068 32.068h255.207c6.34 0 11.512-5.171 11.512-11.512v-163.84c0-6.34-5.172-11.512-11.512-11.512z" fill="#e6b17c"></path><path d="M416.181 369.872h-74.903c-17.833 0-32.424 14.591-32.424 32.424s14.59 32.424 32.424 32.424h74.903v-64.849z" fill="#ab733a"></path><path d="M394.606 369.873h-53.329c-17.833 0-32.424 14.59-32.424 32.423s14.59 32.425 32.424 32.425h53.329v-64.849z" fill="#ba8047"></path><path d="M335.713 416.042c7.57 0 13.745-6.175 13.745-13.745s-6.174-13.745-13.745-13.745-13.745 6.174-13.745 13.745 6.174 13.745 13.745 13.745z" fill="#ab733a"></path><path d="M341.552 415.239c7.128 0 12.942-5.814 12.942-12.942s-5.814-12.942-12.942-12.942-12.943 5.814-12.943 12.942 5.814 12.942 12.943 12.942z" fill="#fdd7ad"></path></g></g></svg>