<svg id="Capa_1" enable-background="new 0 0 512 512" height="512" viewBox="0 0 512 512" width="512" xmlns="http://www.w3.org/2000/svg"><g><path d="m511.986 253.334c.009.888-3.071 1.776-3.071 2.666 0 6.97-5.715 27.566-10.013 29.755-23.122 11.78-55.965 4.718-79.709-19.025-28.156-28.156-32.854-69.11-10.491-91.472 18.499-18.499 49.721-18.48 75.896-1.982 5.466 3.445 26.783 55.163 27.317 76.062.034 1.329.058 2.661.071 3.996zm-499.11-27.464c-3.766 0-12.769 18.317-12.862 27.455-.009.89-.014 1.782-.014 2.675 0 58.312 19.496 112.07 52.326 155.112 46.861-12.958 80.489-48.352 80.489-89.985 0-52.609-53.698-95.257-119.939-95.257zm442.637 107.864c-7.499 2.256-14.319 6.174-19.957 11.812-11.934 11.934-16.162 29.164-13.229 46.917 3.525 21.34 31.466 27.498 43.835 9.754 7.193-10.319 13.645-21.193 19.28-32.545 9.848-19.839-8.718-42.318-29.929-35.938z" fill="#40c1fa"/><path d="m466.509 401.718c-44.216 63.755-116.649 106.457-199.229 110.038-3.74.162-8.202-17.352-11.982-17.352s-6.838 17.514-10.578 17.352c-82.58-3.581-155.013-46.283-199.229-110.038 11.778-33.829 38.195-60.8 71.664-73.329 4.489-46.992 54.796-316.432 86.388-323.01 16.933-3.526 34.478-5.379 52.457-5.379 52.977 0 102.195 16.092 143.034 43.655 8.416 5.68 50.1 43.343 61.018 57.729 31.351 41.311 50.445 92.435 51.864 147.953-36.565-13.439-69.214-34.984-95.77-62.457-.009.892-22.448 1.785-22.456 2.677-.374 47.034 1.709 94.097 6.25 140.874 31.046 13.273 55.395 39.194 66.569 71.287z" fill="#915041"/><path d="m197.997 505.4c-62.864-14.562-116.857-52.279-152.506-103.682 11.778-33.829 38.195-60.8 71.664-73.329 4.489-46.992-105.592-157.726-87.843-191.449 9.297-17.664 20.597-34.109 33.6-49.033 7.985-9.164 43.792-40.208 53.436-46.497 26.936-17.565 57.383-30.196 90.059-36.611 6.127 41.083 55.606 74.964 121.744 86.152-33.58 27.744-54.648 67.687-54.648 112.084 0 24.826 6.588 48.259 18.267 68.946-99.452 17.791-171.519 70.266-171.519 132.231 0 39.911 29.895 75.883 77.746 101.188z" fill="#784132"/><path d="m423.759 344.014c-17.677-12.946-118.416 117.417-156.479 167.742-3.74.162-7.5.244-11.28.244s-7.54-.082-11.28-.244c-38.063-50.325-138.802-180.688-156.479-167.742 7.292-67.913 9.39-136.496 6.3-204.778h322.919c-3.091 68.282-.993 136.865 6.299 204.778z" fill="#f44545"/><path d="m282.128 492.272c-5.593 7.281-10.609 13.879-14.848 19.483-3.74.162-7.5.244-11.28.244s-7.54-.082-11.28-.244c-38.063-50.325-138.802-180.688-156.479-167.742 7.292-67.913 9.39-136.496 6.3-204.778h65.204c-13.661 33.104-21.198 69.38-21.198 107.417-.001 105.406 57.875 197.294 143.581 245.62z" fill="#c83c50"/><path d="m450.135 100.917c0 56.399-45.72 102.119-102.119 102.119-40.51 0-75.51-23.588-92.016-57.778-16.506 34.19-51.506 57.778-92.016 57.778-56.399 0-102.119-45.72-102.119-102.119 0-4.302.266-8.542.783-12.706 7.805-8.987 16.227-17.424 25.199-25.246s31.882-21.612 33.582-21.612c58.985 0 110.024 23.139 134.571 56.8 21.365-29.297 62.798-50.623 112.071-55.661 7.34-.75 25.895-1.12 27.581-1.082 20.014 13.052 38.09 28.827 53.7 46.801.517 4.164.783 8.404.783 12.706z" fill="#ff3c7d"/><path d="m256.13 145.525c-.043-.089-.087-.178-.13-.268-.046.096-.093.192-.14.289-7.12.565-14.408.858-21.825.858-80.89 0-146.464-34.808-146.464-77.745 0-1.953.136-3.888.403-5.804 8.935-7.779 18.415-14.949 28.375-21.444 1.687-.038 3.38-.058 5.081-.058 58.985 0 110.024 23.139 134.571 56.8 21.365-29.297 62.798-50.623 112.071-55.661 1.042-.106 2.31-.205 3.724-.296 5.633 8.26 8.704 17.171 8.704 26.463-.001 38.951-53.964 71.211-124.37 76.866z" fill="#ff5e93"/><path d="m279.607 232.578c-17.587 7.635-35.482 14.055-53.607 19.241-28.281 8.092-57.123 13.18-86.229 15.191-9.589.662-19.198.993-28.81.993-37.051 0-74.203-4.913-110.947-14.679.43-41.989 10.969-81.556 29.298-116.384 34.023 9.211 68.343 12.694 102.186 10.355 32.252-2.229 63.827-9.692 94.502-22.297 29.322-12.049 90.138 91.723 53.607 107.58zm232.379 20.756c-45.119-11.596-90.826-15.886-136.178-12.75-47.761 3.301-94.809 14.885-139.836 34.432-15.889 6.898-31.574 14.807-46.973 23.679-20.004 11.524 56.74 104.824 78.236 94.072 37.612-18.813 76.705-29.694 116.846-32.468 33.458-2.314 67.381 1.065 101.026 10.043 17.21-34.414 26.893-73.247 26.893-114.342 0-.89-.005-1.779-.014-2.666z" fill="#ffc14f"/><path d="m500.411 113.361c-26.614 5.207-72.818 23.05-115.444 56.198-33.381 25.958-68.829 47.161-105.359 63.019-17.587 7.635-35.482 14.055-53.607 19.241-6.617 1.893-13.266 3.622-19.941 5.186-35.835 8.394-70.763-17.21-73.044-53.945-.031-.503-.062-1.006-.092-1.508-1.744-28.975 17.777-54.794 46.036-61.425 15.89-3.729 31.579-8.776 47.04-15.129 29.322-12.05 57.821-28.798 85.302-50.167 74.525-57.956 145.952-70.895 166.068-74.831zm-264.438 161.655c-15.889 6.898-31.574 14.807-46.973 23.679-20.004 11.524-39.525 24.673-58.386 39.34-42.628 33.148-88.832 50.991-115.446 56.198l23.041 117.767c18.736-3.666 81.983-18.965 150.791-67.874 5.068-3.603 10.166-7.387 15.279-11.363 40.556-31.538 83.332-53.012 127.699-64.168 28.302-7.116 47.114-33.872 44.415-62.93-.047-.504-.094-1.008-.142-1.514-3.43-36.164-38.235-60.79-73.464-51.927-22.647 5.699-44.969 13.308-66.814 22.792z" fill="#ffcd71"/><path d="m370.471 113.083c-9.459-16.729-25.228-22.648-39.238-14.725l-13.376 7.563c-1.155.653-2.004 1.739-2.358 3.02-.345 1.25-.192 2.584.427 3.721.022.041.044.082.067.123l26.24 46.414c.179.317.388.606.621.867.664 1.081 1.714 1.872 2.941 2.207.435.119.878.178 1.32.178.861 0 1.716-.223 2.478-.657.402-.229 9.909-5.652 13.673-7.868 13.17-7.754 16.2-24.93 7.205-40.843zm-12.279 32.225c-2.088 1.229-6.095 3.53-9.213 5.316-3.138-5.507-8.436-14.813-10.954-19.268-2.098-3.71-7.638-13.472-10.887-19.195l9.016-5.098c10.856-6.134 20.347 1.629 25.611 10.941 5.148 9.107 6.226 21.535-3.573 27.304zm-146.875 44.399c.003.009.007.018.01.027l11.222 27.999c.495 1.234 1.462 2.221 2.686 2.741.625.266 1.29.398 1.956.398.639 0 1.277-.122 1.881-.367 0 0 13.84-5.619 17.662-7.151 10.261-4.113 15.264-15.808 11.151-26.069-.001 0-.001 0-.001 0-1.992-4.971-5.802-8.868-10.726-10.975-1.249-.534-2.532-.937-3.833-1.207 1.157-3.768 1.084-7.939-.494-11.874-1.775-4.43-5.169-7.902-9.557-9.779-4.387-1.876-9.241-1.932-13.672-.156l-15.074 6.042c-2.563 1.027-3.808 3.938-2.781 6.501zm37.286 1.298c2.061 5.144-.447 11.005-5.589 13.066-2.384.955-8.652 3.496-13.051 5.279l-7.487-18.678c1.493-.605 3.178-1.289 4.781-1.938l8.279-3.319c5.147-2.058 11.004.448 13.067 5.59zm-25.279-28.431c1.949-.78 4.088-.757 6.019.069 1.932.826 3.426 2.355 4.208 4.306.781 1.95.757 4.088-.069 6.019-.826 1.932-2.354 3.426-4.304 4.207-1.125.451-3.254 1.312-5.566 2.248l-4.863 1.949-5.858-14.615zm137.485-83.941c1.271-2.454 4.289-3.41 6.739-2.142l22.196 11.493 1.549-24.748c.172-2.756 2.56-4.855 5.303-4.678 2.756.173 4.851 2.547 4.678 5.303l-1.935 30.928 13.27 23.607c1.354 2.407.499 5.456-1.908 6.809-.774.436-1.616.643-2.445.643-1.749 0-3.445-.918-4.363-2.551l-13.263-23.592-27.68-14.333c-2.452-1.27-3.411-4.287-2.141-6.739zm-83.936 111.115c4.165 1.781 8.558 2.673 12.955 2.673 4.148 0 8.301-.794 12.267-2.384 16.866-6.761 25.088-25.983 18.327-42.851-6.761-16.866-25.984-25.09-42.85-18.327-8.171 3.274-14.577 9.535-18.039 17.629-3.462 8.093-3.564 17.05-.289 25.221s9.535 14.577 17.629 18.039zm-8.145-39.327c2.411-5.638 6.874-9.999 12.565-12.28 2.791-1.118 5.674-1.647 8.512-1.647 9.107 0 17.745 5.457 21.336 14.414 4.709 11.749-1.018 25.139-12.767 29.849-5.69 2.281-11.932 2.208-17.568-.202-5.638-2.411-9.999-6.874-12.28-12.565s-2.21-11.932.202-17.569zm-207.18 39.425-8.961 38.513c-.625 2.689-3.314 4.366-6.003 3.737-2.689-.626-4.363-3.313-3.737-6.003l12.538-53.886c.688-2.817 3.146-4.781 5.99-4.829.035-.001.071-.001.107-.001 2.799 0 5.269 1.865 6.028 4.569.017.06.032.119.047.18l10.221 42.343 13.968-41.079c.019-.058.039-.114.061-.17 1.012-2.656 3.68-4.295 6.519-3.999 2.826.303 5.099 2.476 5.526 5.286l7.681 54.976c.382 2.734-1.525 5.262-4.261 5.644-.234.032-.468.049-.697.049-2.455 0-4.597-1.809-4.946-4.31l-5.493-39.32-13.052 38.387c-.02.058-.04.114-.062.171-.964 2.531-3.447 4.149-6.136 4.027-2.705-.123-5.015-1.956-5.746-4.563-.017-.059-.032-.118-.047-.179zm59.625-11.86c-1.597-2.253-1.065-5.373 1.188-6.971 2.251-1.597 5.373-1.066 6.971 1.188l14.456 20.391 12.724-21.283c1.418-2.37 4.489-3.143 6.857-1.727 2.37 1.417 3.144 4.487 1.727 6.857l-15.901 26.598.97 27.065c.099 2.76-2.059 5.076-4.818 5.176-.061.002-.121.003-.182.003-2.68 0-4.897-2.122-4.994-4.821l-.969-27.047zm16.25 253.652c1.744 2.142 1.422 5.29-.72 7.034-2.142 1.745-5.29 1.422-7.034-.72l-25.07-30.785 8.726 39.595c.013.059.025.118.036.178.486 2.664-.784 5.326-3.162 6.623-2.378 1.299-5.304.924-7.279-.925-.045-.042-.089-.085-.132-.129l-28.651-28.875 12.289 37.583c.858 2.624-.573 5.448-3.198 6.306-.516.169-1.04.249-1.555.249-2.104 0-4.062-1.338-4.751-3.447l-17.195-52.585c-.871-2.768.215-5.72 2.622-7.234s5.539-1.214 7.614.729c.045.042.089.085.132.129l30.682 30.921-9.338-42.372c-.013-.059-.024-.118-.035-.177-.512-2.796.929-5.591 3.502-6.797 2.571-1.206 5.643-.526 7.466 1.656zm29.942-14.573c1.306 2.434.39 5.464-2.044 6.769-.752.403-1.561.595-2.358.595-1.783 0-3.509-.957-4.41-2.639l-12.788-23.852-27.39-14.883c-2.426-1.318-3.324-4.354-2.006-6.781 1.318-2.424 4.354-3.323 6.781-2.006l21.962 11.935 2.042-24.713c.228-2.752 2.652-4.78 5.396-4.571 2.752.228 4.798 2.644 4.571 5.396l-2.552 30.884zm218.134-146.553v55.909c0 2.762-2.238 5-5 5s-5-2.238-5-5v-55.909c0-2.762 2.238-5 5-5s5 2.238 5 5zm-84.884 70.855c1.087 2.539-.091 5.478-2.63 6.563-.642.274-1.309.404-1.965.404-1.94 0-3.787-1.137-4.599-3.034l-9.406-21.987-26.378 11.287 9.406 21.986c1.087 2.539-.091 5.478-2.63 6.563-.642.274-1.309.404-1.965.404-1.94 0-3.787-1.137-4.599-3.034l-21.991-51.403c-1.087-2.539.091-5.478 2.63-6.563 2.54-1.085 5.479.092 6.563 2.63l8.652 20.223 26.379-11.285-8.652-20.223c-1.087-2.539.091-5.478 2.63-6.563 2.54-1.085 5.479.091 6.563 2.63zm194.881-61.79c-.447 2.725-3.022 4.566-5.743 4.124l-18.102-2.971-2.866 17.466 16.403 2.692c2.726.447 4.571 3.019 4.124 5.743-.401 2.451-2.522 4.191-4.928 4.191-.269 0-.541-.021-.815-.067l-16.403-2.692-2.867 17.467 18.101 2.972c2.726.447 4.571 3.019 4.124 5.743-.402 2.451-2.522 4.191-4.928 4.191-.269 0-.542-.022-.815-.067l-23.035-3.781c-2.726-.447-4.571-3.019-4.124-5.743l8.973-54.668c.215-1.309.94-2.479 2.018-3.252s2.418-1.089 3.726-.872l23.035 3.781c2.724.447 4.569 3.019 4.122 5.743zm-251.413 79.156c-.197 1.32-.49 2.631-.873 3.893-1.943 6.417-6.22 11.797-12.366 15.558-5.244 3.21-11.143 4.858-17.139 4.858-2.589 0-5.195-.308-7.775-.929-8.559-2.061-15.802-7.331-20.396-14.84-9.483-15.499-4.59-35.825 10.91-45.31 5.631-3.447 12.076-5.116 18.658-4.815 2.759.124 4.895 2.461 4.771 5.22-.121 2.683-2.333 4.775-4.991 4.775-.076 0-.152-.002-.229-.005-4.578-.207-9.067.954-12.99 3.354-10.796 6.606-14.205 20.765-7.6 31.562 3.2 5.23 8.246 8.901 14.207 10.337 5.96 1.436 12.124.463 17.354-2.737 4.079-2.496 6.775-5.836 8.015-9.927.241-.798.428-1.628.553-2.469.407-2.731 2.947-4.617 5.683-4.208 2.731.408 4.615 2.952 4.208 5.683zm203.963-36.992c-.858 1.024-1.793 1.988-2.776 2.863-5.006 4.459-11.461 6.816-18.667 6.816-18.172 0-32.955-14.783-32.955-32.955 0-18.171 14.783-32.954 32.955-32.954 6.604 0 12.977 1.947 18.429 5.63 2.288 1.546 2.891 4.654 1.345 6.942-1.548 2.288-4.653 2.889-6.942 1.345-3.793-2.563-8.229-3.917-12.831-3.917-12.657 0-22.955 10.297-22.955 22.954s10.298 22.955 22.955 22.955c4.782 0 8.825-1.441 12.018-4.284.621-.554 1.214-1.165 1.762-1.819 1.772-2.115 4.928-2.395 7.044-.62 2.114 1.774 2.391 4.927.618 7.044zm-124.212-49.017c-17.699 4.112-28.753 21.857-24.642 39.558 3.532 15.202 17.118 25.502 32.098 25.501 2.461-.001 4.963-.279 7.461-.859 17.7-4.112 28.754-21.858 24.642-39.558s-21.854-28.751-39.559-24.642zm26.942 44.236c-3.242 5.204-8.316 8.835-14.289 10.223-5.974 1.388-12.129.366-17.332-2.876-5.204-3.241-8.835-8.316-10.223-14.288-2.863-12.329 4.836-24.69 17.165-27.555 1.74-.404 3.495-.604 5.238-.604 4.24 0 8.406 1.182 12.094 3.479 5.204 3.241 8.835 8.316 10.223 14.289s.367 12.128-2.876 17.332z" fill="#724d44"/></g></svg>