<svg viewBox="0 0 512 512" xmlns="http://www.w3.org/2000/svg"><g><path d="M483.67 157.41 456 192l-15.89 19.87a53.648 53.648 0 0 1-79.82 4.42L336 192v72H176v-72l-24.29 24.29a53.648 53.648 0 0 1-79.82-4.42L56 192l-27.67-34.59a7.743 7.743 0 0 1 7.92-12.35L64 152l5.27-10.53A9.885 9.885 0 0 1 88 145.89V168l24 16 47.6-47.6a55.994 55.994 0 0 1 39.6-16.4h113.6a55.994 55.994 0 0 1 39.6 16.4L400 184l24-16v-22.11a9.885 9.885 0 0 1 18.73-4.42L448 152l27.75-6.94a7.479 7.479 0 0 1 1.87-.23 7.744 7.744 0 0 1 6.05 12.58z" fill="#ffceb6"></path><path d="m456 192-15.89 19.87a53.648 53.648 0 0 1-79.82 4.42L336 192v72H176v-72l-24.29 24.29a53.648 53.648 0 0 1-79.82-4.42L56 192l32-24 24 16 47.6-47.6a55.994 55.994 0 0 1 39.6-16.4h113.6a55.994 55.994 0 0 1 39.6 16.4L400 184l24-16z" fill="#548aff"></path><path d="M296 120v48l-40 48-40-48v-48z" fill="#91c0ff"></path><path d="M256 128a32 32 0 0 1-32-32V80l24-24h40v40a32 32 0 0 1-32 32z" fill="#ffceb6"></path><path d="m288 56 7.8-3.9a14.833 14.833 0 0 0 8.2-13.267A14.833 14.833 0 0 0 289.167 24H256a32 32 0 0 0-32 32v24l24-24z" fill="#c47220"></path><path d="m296 168-23.08 27.69L256 216l-16.92-20.31L216 168l40-40z" fill="#7dafff"></path><path d="m264 160 8.92 35.69L256 216l-16.92-20.31L248 160z" fill="#ef5e3b"></path><path d="m248 160-8-16 16-16 16 16-8 16z" fill="#e04f2b"></path><path d="M104 264h304v32H104z" fill="#ea964b"></path><path d="M392 296v24l-40 56H160l-40-56v-24z" fill="#c47220"></path><path d="M160 376h192v120H160z" fill="#db8638"></path><path d="M192 408h128v88H192z" fill="#f7a156"></path></g></svg>