<svg viewBox="0 0 64 64" xmlns="http://www.w3.org/2000/svg"><g><path d="M52.71 16.3a25.115 25.115 0 0 0-4.29-4.45A25.849 25.849 0 0 0 32 6c-6.16 0-11.83 2.15-16.28 5.74-1.74 1.38-3.29 3-4.61 4.79A25.842 25.842 0 0 0 6 32c0 5.12 1.48 9.89 4.04 13.91 1.5 2.38 3.38 4.49 5.56 6.26C20.07 55.82 25.78 58 32 58s11.93-2.18 16.4-5.83c2.18-1.77 4.06-3.88 5.56-6.26C56.52 41.89 58 37.12 58 32c0-5.9-1.97-11.34-5.29-15.7zm-.81 29.1v.01a23.688 23.688 0 0 1-3.89 4.46C43.76 53.68 38.15 56 32 56s-11.76-2.32-16.01-6.13a23.688 23.688 0 0 1-3.89-4.46v-.01C9.51 41.57 8 36.96 8 32 8 18.75 18.75 8 32 8s24 10.75 24 24c0 4.96-1.51 9.57-4.1 13.4z" fill="#0a5078"></path><path d="M53.96 45.91c-1.5 2.38-3.38 4.49-5.56 6.26-.21-.69-.35-1.45-.39-2.3 1.47-1.31 2.78-2.81 3.89-4.46v-.01h.1c.71 0 1.38.19 1.96.51zM15.99 49.87c-.04.85-.17 1.61-.39 2.3a25.751 25.751 0 0 1-5.56-6.26c.687-.379 1.339-.51 2.06-.51v.01c1.11 1.65 2.42 3.15 3.89 4.46zM15.72 11.74c-.458 1.977-1.57 3.52-3.01 4.96-.39.4-1.02.4-1.42.01l-.18-.18a25.21 25.21 0 0 1 4.61-4.79z" fill="#00325a"></path><path d="M12.71 55.702a1 1 0 0 1-1.419.005C9.93 54.351 8 52.133 8 48.403a4 4 0 0 1 8 0c0 3.703-1.894 5.899-3.29 7.299z" fill="#fab400"></path><circle cx="12" cy="48.403" fill="#ffffff" r="2"></circle><path d="M12.71 15.702a1 1 0 0 1-1.419.005C9.93 14.351 8 12.133 8 8.403a4 4 0 0 1 8 0c0 3.703-1.894 5.899-3.29 7.299z" fill="#fab400"></path><circle cx="12" cy="8.403" fill="#ffffff" r="2"></circle><path d="M52.71 55.702a1 1 0 0 1-1.419.005C49.93 54.351 48 52.133 48 48.403a4 4 0 0 1 8 0c0 3.703-1.894 5.899-3.29 7.299z" fill="#fab400"></path><path d="M52.71 16.3c-.39.39-1.02.4-1.42 0-.97-.96-2.23-2.37-2.87-4.45 1.6 1.3 3.05 2.79 4.29 4.45z" fill="#00325a"></path><circle cx="52" cy="48.403" fill="#ffffff" r="2"></circle><path d="m19.288 43.291 23.996-23.996 1.414 1.414-23.996 23.996z" fill="#0a5078"></path><path d="M46 21.586V19a1 1 0 0 0-1-1h-2.586c-.891 0-1.337 1.077-.707 1.707l2.586 2.586c.63.63 1.707.184 1.707-.707zM18 42.414V45a1 1 0 0 0 1 1h2.586c.891 0 1.337-1.077.707-1.707l-2.586-2.586c-.63-.63-1.707-.184-1.707.707z" fill="#00a0c8"></path><path d="m38.38 36.97 6.33 6.32-1.42 1.42-5.89-5.9-5.4-5.4-5.42 5.42-5.87 5.88-1.42-1.42 6.32-6.32L30.59 32l-5.95-5.94-5.35-5.35 1.42-1.42 4.99 4.99 6.3 6.31 6.3-6.31 4.99-4.99 1.42 1.42-5.35 5.35L33.41 32z" fill="#0a5078"></path><path d="m19.286 20.709 1.42-1.42 1.499 1.5-1.42 1.42zM41.783 20.793l1.5-1.5 1.42 1.42-1.5 1.5zM33.41 32l4.97 4.97c-.29.65-.62 1.26-.98 1.84l-5.4-5.4-5.42 5.42c-.34-.58-.67-1.2-.97-1.86L30.59 32l-5.95-5.94c.28-.64.63-1.24 1.06-1.78l6.3 6.31 6.3-6.31c.43.54.78 1.14 1.06 1.78z" fill="#00325a"></path><path d="M21.586 18H19a1 1 0 0 0-1 1v2.586c0 .891 1.077 1.337 1.707.707l2.586-2.586c.63-.63.184-1.707-.707-1.707zM42.414 46H45a1 1 0 0 0 1-1v-2.586c0-.891-1.077-1.337-1.707-.707l-2.586 2.586c-.63.63-.184 1.707.707 1.707z" fill="#00a0c8"></path><path d="M40 28.207c0 7.378-3.589 11.612-7.303 15.296a.99.99 0 0 1-1.396.005C28.614 40.882 24 36.363 24 28.207c0-4.374 3.528-8 8-8 4.473 0 8 3.628 8 8z" fill="#c80a50"></path><circle cx="32" cy="27.777" fill="#ffffff" r="4"></circle><path d="M52.71 15.299a1 1 0 0 1-1.419.005C49.93 13.948 48 11.73 48 8a4 4 0 0 1 8 0c0 3.702-1.894 5.899-3.29 7.299z" fill="#fab400"></path><circle cx="52" cy="8" fill="#ffffff" r="2"></circle><path d="M46 21.586V19a1 1 0 0 0-1-1h-2.586c-.891 0-1.337 1.077-.707 1.707l2.586 2.586c.63.63 1.707.184 1.707-.707zM18 42.414V45a1 1 0 0 0 1 1h2.586c.891 0 1.337-1.077.707-1.707l-2.586-2.586c-.63-.63-1.707-.184-1.707.707z" fill="#fab400"></path></g></svg>