<svg viewBox="0 0 48 48" xmlns="http://www.w3.org/2000/svg"><g><g><path d="M44 19.05c-.7-.14.8.75-20-12.83C3.19 19.8 4.7 18.91 4 19.05a2.51 2.51 0 0 1-2.79-3.46c.42-1-.77 0 20.6-13.94a4 4 0 0 1 4.38 0l19.67 12.83A2.51 2.51 0 0 1 44 19.05z" fill="#db5669"></path><path d="M46.79 15.59A2.52 2.52 0 0 1 44 17.05c-.7-.14.8.75-20-12.83C3.19 17.8 4.7 16.91 4 17.05a2.52 2.52 0 0 1-2.79-1.46c.42-1-.77 0 20.6-13.94a4 4 0 0 1 4.38 0c21.49 14.02 20.19 12.97 20.6 13.94z" fill="#f26674"></path><path d="M43 4v8.61L37 8.7V4z" fill="#7c7d7d"></path><path d="M43 4v6.31l-.9-.59A6.84 6.84 0 0 1 39 4z" fill="#919191"></path><path d="M44 19.05V47H4V19.05c.69-.14-.88.79 20-12.83C44.81 19.8 43.3 18.91 44 19.05z" fill="#dad7e5"></path><path d="M44 19.05V45H13a6 6 0 0 1-6-6V17.31L24 6.22C44.81 19.8 43.3 18.91 44 19.05z" fill="#edebf2"></path><path d="M46 48H2a1 1 0 0 1 0-2h44a1 1 0 0 1 0 2z" fill="#dad7e5"></path><path d="M34 36v5H14v-5a6 6 0 0 1 4.33-5.76c1.08-.33 1-.24 9.67-.24a6 6 0 0 1 6 6z" fill="#6fabe6"></path><path d="M34 36v3H22c-4.43 0-6.58-5.19-3.67-8.76A5.76 5.76 0 0 1 20 30h8a6 6 0 0 1 6 6z" fill="#82bcf4"></path><path d="M29 22c0 2.88.37 5-1.82 6.86A5 5 0 0 1 19 25v-3a5 5 0 1 1 10 0z" fill="#f6ccaf"></path><path d="M29 22c0 2.88.37 5-1.82 6.86A5 5 0 0 1 21 24c0-2.88-.37-5 1.82-6.86A5 5 0 0 1 29 22z" fill="#ffdec7"></path><path d="M29 22v1c-2 0-4 0-6-2a3.55 3.55 0 0 1-2 1.77 4.9 4.9 0 0 1-2 .23v-1a5 5 0 0 1 10 0z" fill="#a87e6b"></path><path d="M29 23c-2 0-4 0-6-2a3.55 3.55 0 0 1-2 1.77V22a5 5 0 0 1 4-4.9 5 5 0 0 1 2.55 1.36A5.59 5.59 0 0 1 29 23z" fill="#be927c"></path></g></g></svg>