<svg viewBox="0 0 256 256" xmlns="http://www.w3.org/2000/svg"><g><circle cx="127.779" cy="144.251" fill="#8c3f0a" r="85.053"></circle><path d="M62.84 191.29c-.65 0-1.271-.32-1.64-.86-9.471-13.61-14.471-29.58-14.471-46.18 0-9.04 1.48-17.91 4.41-26.39 2.82-8.19 6.94-15.84 12.23-22.76A81.216 81.216 0 0 1 81.95 77.43a80.795 80.795 0 0 1 23.439-11.09c1.04-.3 2.18.34 2.47 1.37a2 2 0 0 1-1.359 2.48c-32.851 9.45-55.78 39.9-55.771 74.06 0 15.78 4.75 30.96 13.75 43.89a2.004 2.004 0 0 1-1.639 3.15zm50.889-122.84c-.97 0-1.8-.69-1.97-1.65-.09-.52.021-1.05.32-1.49.31-.44.77-.74 1.29-.83 1.08-.19 2.13.54 2.33 1.61a2 2 0 0 1-.33 1.5 1.993 1.993 0 0 1-1.64.86z" fill="#995222"></path><path d="M182.714 79.316c12.55 14.82 20.118 33.994 20.118 54.935 0 46.974-38.08 85.053-85.053 85.053-20.941 0-40.115-7.568-54.935-20.119 15.602 18.423 38.902 30.119 64.935 30.119 46.973 0 85.053-38.08 85.053-85.053 0-26.033-11.695-49.334-30.118-64.935z" fill="#7c3108"></path><path d="M185.369 81.661c13.946 15.149 22.463 35.375 22.463 57.59 0 46.974-38.08 85.053-85.053 85.053-22.215 0-42.44-8.517-57.59-22.463 15.543 16.884 37.831 27.463 62.59 27.463 46.973 0 85.053-38.08 85.053-85.053 0-24.759-10.579-47.047-27.463-62.59zM80.757 73.367 67.228 59.838a4.658 4.658 0 0 0-6.589 0L42.016 78.46a4.658 4.658 0 0 0 0 6.589l13.817 13.817a85.53 85.53 0 0 1 24.924-25.499z" fill="#6d2e03"></path><path d="m213.984 78.46-18.622-18.623a4.66 4.66 0 0 0-6.59 0l-13.706 13.706a85.527 85.527 0 0 1 24.83 25.594l14.088-14.089a4.657 4.657 0 0 0 0-6.588zM127.779 59.198c4.443 0 8.807.341 13.066.998V48.563h-25.691v11.566a85.742 85.742 0 0 1 12.625-.931z" fill="#6d2e03"></path><circle cx="127.779" cy="144.251" fill="#ffffff" r="63.245"></circle><path d="M127.777 109.038a4.36 4.36 0 0 1-4.361-4.361V90.774a4.36 4.36 0 1 1 8.722 0v13.903a4.36 4.36 0 0 1-4.361 4.361zM127.777 203.723a4.36 4.36 0 0 1-4.361-4.361v-13.903a4.36 4.36 0 1 1 8.722 0v13.903a4.36 4.36 0 0 1-4.361 4.361zM182.074 149.43h-13.905a4.36 4.36 0 1 1 0-8.722h13.905a4.36 4.36 0 1 1 0 8.722zM87.389 149.43H73.484a4.36 4.36 0 1 1 0-8.722h13.905a4.36 4.36 0 1 1 0 8.722z" fill="#d1d3d4"></path><path d="M127.781 152.974a8.726 8.726 0 0 1-6.169-14.893l30.441-30.441a8.726 8.726 0 0 1 12.338 0 8.726 8.726 0 0 1 0 12.338l-30.441 30.441a8.698 8.698 0 0 1-6.169 2.555z" fill="#8c3f0a"></path><path d="M164.39 107.641a8.696 8.696 0 0 0-3.028-1.972 8.724 8.724 0 0 1-1.972 9.309l-30.441 30.441a8.7 8.7 0 0 1-6.169 2.555 8.754 8.754 0 0 1-3.141-.583 8.7 8.7 0 0 0 1.972 3.029 8.7 8.7 0 0 0 6.169 2.555 8.7 8.7 0 0 0 6.169-2.555l30.441-30.441a8.724 8.724 0 0 0 0-12.338z" fill="#7c3108"></path><circle cx="127.779" cy="144.251" fill="#8c3f0a" r="15.811"></circle><path d="M136.178 130.852a15.735 15.735 0 0 1 2.413 8.398c0 8.732-7.079 15.811-15.811 15.811a15.73 15.73 0 0 1-8.398-2.413c2.797 4.453 7.752 7.413 13.398 7.413 8.732 0 15.811-7.079 15.811-15.811-.001-5.646-2.961-10.601-7.413-13.398z" fill="#7c3108"></path><path d="M144.492 26.696h-32.984a4.66 4.66 0 0 0-4.659 4.659v12.547a4.66 4.66 0 0 0 4.659 4.659h32.984a4.66 4.66 0 0 0 4.659-4.659V31.356a4.658 4.658 0 0 0-4.659-4.66z" fill="#8c3f0a"></path><path d="M144.492 26.696h-.34v12.207a4.66 4.66 0 0 1-4.66 4.66h-32.644v.34a4.66 4.66 0 0 0 4.659 4.66h32.984a4.66 4.66 0 0 0 4.66-4.66V31.356a4.658 4.658 0 0 0-4.659-4.66z" fill="#7c3108"></path><circle cx="128" cy="207.635" fill="#ffa91a" r="38.035"></circle><path d="M152.279 178.356a37.881 37.881 0 0 1 8.756 24.279c0 21.006-17.029 38.035-38.035 38.035a37.881 37.881 0 0 1-24.279-8.756c6.977 8.404 17.503 13.756 29.279 13.756 21.006 0 38.035-17.029 38.035-38.035 0-11.776-5.352-22.302-13.756-29.279z" fill="#f79219"></path><path d="M128 214.805a6.713 6.713 0 0 1-6.713-6.713v-19.646a6.713 6.713 0 1 1 13.426 0v19.646a6.712 6.712 0 0 1-6.713 6.713zM128 233.174a6.713 6.713 0 1 1 0-13.426 6.713 6.713 0 0 1 0 13.426z" fill="#ffffff"></path></g></svg>