<svg viewBox="0 0 512 512" xmlns="http://www.w3.org/2000/svg"><g><path d="M373.058 221.415c-32.361-34.084-77.853-53.633-124.81-53.633-11.216 0-21.218.453-30.347 1.328a.146.146 0 0 1-.157-.17l13.058-78.817a.147.147 0 0 1 .145-.123H347.86c26.072 0 47.432-21.714 45.869-47.74C392.315 18.683 372.746 0 348.813 0H192.666c-22.014 0-40.796 15.927-44.395 37.645l-30.933 186.704c-2.794 16.864 4.042 33.941 17.906 43.94 13.839 9.98 31.964 11.36 47.065 3.436a98.494 98.494 0 0 1 3.286-1.541c16.643-7.491 29.994-12.401 62.653-12.401 22.721 0 43.867 9.092 59.542 25.602 15.662 16.496 23.636 38.137 22.452 60.937-1.065 20.524-9.943 39.851-25 54.418-15.063 14.575-34.695 22.83-55.278 23.244-31.288.623-59.249-16.392-73.621-42.349-9.098-16.432-27.196-25.751-45.799-23.155-31.047 4.333-48.453 38.387-33.42 65.896 29.459 53.906 86.704 89.63 151.137 89.625 1.166 0 2.346-.012 3.516-.035 89.75-1.809 163.695-73.397 168.344-162.979 2.476-47.694-14.239-93-47.063-127.572z" fill="#ff7cec"></path><path d="M347.861 90c26.072 0 47.432-21.714 45.869-47.74C392.315 18.683 372.746 0 348.813 0H256v90zM373.058 221.415C342.481 189.21 300.182 169.992 256 167.97v90.183c19.748 1.828 37.914 10.615 51.79 25.23 15.662 16.496 23.636 38.137 22.452 60.937-1.065 20.524-9.943 39.851-25 54.418-13.582 13.143-30.882 21.124-49.242 22.874v90.215c87.836-3.928 159.545-74.669 164.121-162.842 2.476-47.692-14.239-92.998-47.063-127.57z" fill="#b473f1"></path></g></svg>