<svg viewBox="0 0 512 512" xmlns="http://www.w3.org/2000/svg"><g><path d="M174.23 230.347a8.017 8.017 0 0 0-8.017-8.017H46.497a8.017 8.017 0 0 0-8.017 8.017v272.568h135.75V230.347z" fill="#d3d2d2"></path><path d="M174.23 230.347a8.017 8.017 0 0 0-8.017-8.017h-26.009v280.05h34.026V230.347z" fill="#bdbcbc"></path><path d="M72.15 315.324a8.017 8.017 0 0 1-8.017-8.017V256c0-4.427 3.588-8.017 8.017-8.017s8.017 3.589 8.017 8.017v51.307a8.017 8.017 0 0 1-8.017 8.017zM106.355 315.324a8.017 8.017 0 0 1-8.017-8.017V256a8.017 8.017 0 0 1 8.017-8.017 8.017 8.017 0 0 1 8.017 8.017v51.307a8.017 8.017 0 0 1-8.017 8.017zM140.56 315.324a8.017 8.017 0 0 1-8.017-8.017V256a8.017 8.017 0 0 1 8.017-8.017 8.017 8.017 0 0 1 8.017 8.017v51.307a8.018 8.018 0 0 1-8.017 8.017zM72.15 375.182a8.017 8.017 0 0 1-8.017-8.017v-25.653c0-4.427 3.588-8.017 8.017-8.017s8.017 3.589 8.017 8.017v25.653a8.017 8.017 0 0 1-8.017 8.017zM106.355 375.182a8.017 8.017 0 0 1-8.017-8.017v-25.653a8.017 8.017 0 0 1 8.017-8.017 8.017 8.017 0 0 1 8.017 8.017v25.653a8.017 8.017 0 0 1-8.017 8.017zM140.56 375.182a8.017 8.017 0 0 1-8.017-8.017v-25.653a8.017 8.017 0 0 1 8.017-8.017 8.017 8.017 0 0 1 8.017 8.017v25.653a8.018 8.018 0 0 1-8.017 8.017z" fill="#a7a6a6"></path><path d="M473.52 187.591a8.017 8.017 0 0 0-8.017-8.017H345.787a8.017 8.017 0 0 0-8.017 8.017v315.324h135.75V187.591z" fill="#d3d2d2"></path><path d="M371.085 179.574h-25.297a8.017 8.017 0 0 0-8.017 8.017V502.38h33.314V179.574z" fill="#bdbcbc"></path><path d="M371.441 375.182a8.017 8.017 0 0 1-8.017-8.017v-25.653a8.017 8.017 0 0 1 8.017-8.017 8.017 8.017 0 0 1 8.017 8.017v25.653a8.018 8.018 0 0 1-8.017 8.017zM405.645 375.182a8.017 8.017 0 0 1-8.017-8.017v-25.653c0-4.427 3.588-8.017 8.017-8.017s8.017 3.589 8.017 8.017v25.653a8.017 8.017 0 0 1-8.017 8.017zM439.85 375.182a8.017 8.017 0 0 1-8.017-8.017v-25.653c0-4.427 3.588-8.017 8.017-8.017s8.017 3.589 8.017 8.017v25.653a8.018 8.018 0 0 1-8.017 8.017zM371.441 229.812a8.017 8.017 0 0 1-8.017-8.017v-8.551a8.017 8.017 0 0 1 8.017-8.017 8.017 8.017 0 0 1 8.017 8.017v8.551a8.017 8.017 0 0 1-8.017 8.017zM405.645 229.812a8.017 8.017 0 0 1-8.017-8.017v-8.551c0-4.427 3.588-8.017 8.017-8.017s8.017 3.589 8.017 8.017v8.551a8.016 8.016 0 0 1-8.017 8.017zM439.85 229.812a8.017 8.017 0 0 1-8.017-8.017v-8.551c0-4.427 3.588-8.017 8.017-8.017s8.017 3.589 8.017 8.017v8.551a8.017 8.017 0 0 1-8.017 8.017zM371.441 272.568a8.017 8.017 0 0 1-8.017-8.017V256a8.017 8.017 0 0 1 8.017-8.017 8.017 8.017 0 0 1 8.017 8.017v8.551a8.017 8.017 0 0 1-8.017 8.017zM405.645 272.568a8.017 8.017 0 0 1-8.017-8.017V256c0-4.427 3.588-8.017 8.017-8.017s8.017 3.589 8.017 8.017v8.551a8.016 8.016 0 0 1-8.017 8.017zM439.85 272.568a8.017 8.017 0 0 1-8.017-8.017V256c0-4.427 3.588-8.017 8.017-8.017s8.017 3.589 8.017 8.017v8.551a8.017 8.017 0 0 1-8.017 8.017zM371.441 315.324a8.017 8.017 0 0 1-8.017-8.017v-8.551a8.017 8.017 0 0 1 8.017-8.017 8.017 8.017 0 0 1 8.017 8.017v8.551a8.018 8.018 0 0 1-8.017 8.017zM405.645 315.324a8.017 8.017 0 0 1-8.017-8.017v-8.551c0-4.427 3.588-8.017 8.017-8.017s8.017 3.589 8.017 8.017v8.551a8.017 8.017 0 0 1-8.017 8.017zM439.85 315.324a8.017 8.017 0 0 1-8.017-8.017v-8.551c0-4.427 3.588-8.017 8.017-8.017s8.017 3.589 8.017 8.017v8.551a8.018 8.018 0 0 1-8.017 8.017z" fill="#a7a6a6"></path><path d="M256 67.34a8.017 8.017 0 0 1-8.017-8.017V8.017A8.017 8.017 0 0 1 256 0a8.017 8.017 0 0 1 8.017 8.017v51.307A8.016 8.016 0 0 1 256 67.34z" fill="#7b7979"></path><path d="M277.378 51.307h-42.756a8.017 8.017 0 0 0-8.017 8.017v42.756a8.017 8.017 0 0 0 8.017 8.017h42.756a8.017 8.017 0 0 0 8.017-8.017V59.324a8.017 8.017 0 0 0-8.017-8.017z" fill="#6ddae1"></path><path d="M226.605 76.07v26.009a8.017 8.017 0 0 0 8.017 8.017h42.756a8.017 8.017 0 0 0 8.017-8.017V76.07h-58.79z" fill="#4fc4d4"></path><path d="M320.134 85.511H191.866a8.017 8.017 0 0 0-8.017 8.017v51.307a8.017 8.017 0 0 0 8.017 8.017h128.267a8.017 8.017 0 0 0 8.017-8.017V93.528a8.016 8.016 0 0 0-8.016-8.017z" fill="#ff8c78"></path><path d="M183.85 110.986v33.849a8.017 8.017 0 0 0 8.017 8.017h128.267a8.017 8.017 0 0 0 8.017-8.017v-33.849H183.85z" fill="#df7a6e"></path><path d="M353.804 127.733a8.017 8.017 0 0 0-8.017-8.017H166.213a8.017 8.017 0 0 0-8.017 8.017v375.182h195.608V127.733z" fill="#6ddae1"></path><path d="M158.196 444.478h195.608v58.433H158.196z" fill="#4fc4d4"></path><path d="M256 375.182a8.017 8.017 0 0 1-8.017-8.017v-8.551a8.017 8.017 0 0 1 8.017-8.017 8.017 8.017 0 0 1 8.017 8.017v8.551a8.017 8.017 0 0 1-8.017 8.017zM226.071 375.182a8.017 8.017 0 0 1-8.017-8.017v-8.551c0-4.427 3.588-8.017 8.017-8.017s8.017 3.589 8.017 8.017v8.551a8.017 8.017 0 0 1-8.017 8.017zM285.929 375.182a8.017 8.017 0 0 1-8.017-8.017v-8.551c0-4.427 3.588-8.017 8.017-8.017s8.017 3.589 8.017 8.017v8.551a8.017 8.017 0 0 1-8.017 8.017zM191.866 375.182a8.017 8.017 0 0 1-8.017-8.017v-8.551c0-4.427 3.588-8.017 8.017-8.017s8.017 3.589 8.017 8.017v8.551a8.017 8.017 0 0 1-8.017 8.017zM320.134 375.182a8.017 8.017 0 0 1-8.017-8.017v-8.551a8.017 8.017 0 0 1 8.017-8.017 8.017 8.017 0 0 1 8.017 8.017v8.551a8.018 8.018 0 0 1-8.017 8.017zM256.001 191.153a8.017 8.017 0 0 1-8.017-8.017v-26.722a8.017 8.017 0 0 1 8.017-8.017 8.017 8.017 0 0 1 8.017 8.017v26.722a8.016 8.016 0 0 1-8.017 8.017zM226.072 191.153a8.017 8.017 0 0 1-8.017-8.017v-26.722a8.017 8.017 0 0 1 8.017-8.017 8.017 8.017 0 0 1 8.017 8.017v26.722a8.017 8.017 0 0 1-8.017 8.017zM285.93 191.153a8.017 8.017 0 0 1-8.017-8.017v-26.722a8.017 8.017 0 0 1 8.017-8.017 8.017 8.017 0 0 1 8.017 8.017v26.722a8.016 8.016 0 0 1-8.017 8.017zM191.867 191.153a8.017 8.017 0 0 1-8.017-8.017v-26.722a8.017 8.017 0 0 1 8.017-8.017 8.017 8.017 0 0 1 8.017 8.017v26.722a8.016 8.016 0 0 1-8.017 8.017zM320.135 191.153a8.017 8.017 0 0 1-8.017-8.017v-26.722c0-4.427 3.588-8.017 8.017-8.017s8.017 3.589 8.017 8.017v26.722a8.017 8.017 0 0 1-8.017 8.017zM256 229.812a8.017 8.017 0 0 1-8.017-8.017v-8.551a8.017 8.017 0 0 1 8.017-8.017 8.017 8.017 0 0 1 8.017 8.017v8.551a8.017 8.017 0 0 1-8.017 8.017zM226.071 229.812a8.017 8.017 0 0 1-8.017-8.017v-8.551c0-4.427 3.588-8.017 8.017-8.017s8.017 3.589 8.017 8.017v8.551a8.017 8.017 0 0 1-8.017 8.017zM285.929 229.812a8.017 8.017 0 0 1-8.017-8.017v-8.551c0-4.427 3.588-8.017 8.017-8.017s8.017 3.589 8.017 8.017v8.551a8.017 8.017 0 0 1-8.017 8.017zM191.866 229.812a8.017 8.017 0 0 1-8.017-8.017v-8.551c0-4.427 3.588-8.017 8.017-8.017s8.017 3.589 8.017 8.017v8.551a8.016 8.016 0 0 1-8.017 8.017zM320.134 229.812a8.017 8.017 0 0 1-8.017-8.017v-8.551a8.017 8.017 0 0 1 8.017-8.017 8.017 8.017 0 0 1 8.017 8.017v8.551a8.017 8.017 0 0 1-8.017 8.017zM256.002 332.422a8.017 8.017 0 0 1-8.017-8.017V256a8.017 8.017 0 0 1 8.017-8.017 8.017 8.017 0 0 1 8.017 8.017v68.405a8.017 8.017 0 0 1-8.017 8.017zM226.073 332.422a8.017 8.017 0 0 1-8.017-8.017V256c0-4.427 3.588-8.017 8.017-8.017s8.017 3.589 8.017 8.017v68.405a8.017 8.017 0 0 1-8.017 8.017zM285.931 332.422a8.017 8.017 0 0 1-8.017-8.017V256c0-4.427 3.588-8.017 8.017-8.017s8.017 3.589 8.017 8.017v68.405a8.017 8.017 0 0 1-8.017 8.017zM191.869 332.422a8.017 8.017 0 0 1-8.017-8.017V256c0-4.427 3.588-8.017 8.017-8.017s8.017 3.589 8.017 8.017v68.405a8.018 8.018 0 0 1-8.017 8.017zM320.136 332.422a8.017 8.017 0 0 1-8.017-8.017V256c0-4.427 3.588-8.017 8.017-8.017s8.017 3.589 8.017 8.017v68.405a8.018 8.018 0 0 1-8.017 8.017zM264.019 401.37a8.017 8.017 0 0 0-8.017-8.017 8.017 8.017 0 0 0-8.017 8.017v101.545h16.033V401.37zM234.09 401.37c0-4.427-3.588-8.017-8.017-8.017s-8.017 3.589-8.017 8.017v101.545h16.033V401.37zM293.948 401.37c0-4.427-3.588-8.017-8.017-8.017s-8.017 3.589-8.017 8.017v101.545h16.033V401.37z" fill="#1ea9bd"></path><path d="M97.804 503.983a8.017 8.017 0 0 1-8.017-8.017v-34.205a8.017 8.017 0 0 1 8.017-8.017 8.017 8.017 0 0 1 8.017 8.017v34.205a8.017 8.017 0 0 1-8.017 8.017z" fill="#df7a6e"></path><path d="M123.505 414.773c-7.096-20.168-15.503-29.972-25.702-29.972s-18.605 9.804-25.702 29.972c-4.618 13.122-7.969 29.062-7.969 37.903 0 18.566 15.105 33.67 33.67 33.67s33.67-15.105 33.67-33.67c.002-8.84-3.349-24.781-7.967-37.903z" fill="#c4df64"></path><path d="M110.096 474.054c-18.566 0-33.67-15.105-33.67-33.67 0-8.841 3.351-24.781 7.969-37.903 2.315-6.579 4.77-12.048 7.381-16.44-7.549 3.206-14.026 12.685-19.673 28.732-4.618 13.122-7.969 29.062-7.969 37.903 0 18.566 15.105 33.67 33.67 33.67 12.431 0 23.304-6.778 29.136-16.827a33.443 33.443 0 0 1-16.844 4.535z" fill="#96ca62"></path><path d="M166.213 503.983a8.017 8.017 0 0 1-8.017-8.017v-34.205a8.017 8.017 0 0 1 8.017-8.017 8.017 8.017 0 0 1 8.017 8.017v34.205a8.017 8.017 0 0 1-8.017 8.017z" fill="#df7a6e"></path><path d="M191.914 414.773c-7.096-20.168-15.503-29.972-25.702-29.972-10.198 0-18.605 9.804-25.702 29.972-4.618 13.122-7.969 29.062-7.969 37.903 0 18.566 15.105 33.67 33.67 33.67s33.67-15.105 33.67-33.67c.002-8.84-3.349-24.781-7.967-37.903z" fill="#c4df64"></path><path d="M175.299 477.261c-18.566 0-33.67-15.105-33.67-33.67 0-8.841 3.351-24.781 7.969-37.903 2.748-7.811 5.695-14.061 8.864-18.795-6.817 3.852-12.738 13.067-17.95 27.881-4.618 13.122-7.969 29.062-7.969 37.903 0 18.566 15.105 33.67 33.67 33.67 11.6 0 21.848-5.897 27.906-14.85a33.472 33.472 0 0 1-18.82 5.764z" fill="#96ca62"></path><path d="M345.787 503.983a8.017 8.017 0 0 1-8.017-8.017v-34.205a8.017 8.017 0 0 1 8.017-8.017 8.017 8.017 0 0 1 8.017 8.017v34.205a8.017 8.017 0 0 1-8.017 8.017z" fill="#df7a6e"></path><path d="M371.489 414.773c-7.096-20.168-15.503-29.972-25.702-29.972-10.198 0-18.605 9.804-25.702 29.972-4.618 13.122-7.969 29.062-7.969 37.903 0 18.566 15.105 33.67 33.67 33.67 18.566 0 33.67-15.105 33.67-33.67.001-8.84-3.35-24.781-7.967-37.903z" fill="#c4df64"></path><path d="M354.873 477.261c-18.566 0-33.67-15.105-33.67-33.67 0-8.841 3.351-24.781 7.969-37.903 2.748-7.811 5.695-14.061 8.864-18.795-6.817 3.852-12.738 13.067-17.95 27.881-4.618 13.122-7.969 29.062-7.969 37.903 0 18.566 15.105 33.67 33.67 33.67 11.6 0 21.848-5.897 27.906-14.85a33.472 33.472 0 0 1-18.82 5.764z" fill="#96ca62"></path><path d="M414.196 503.983a8.017 8.017 0 0 1-8.017-8.017v-34.205c0-4.427 3.588-8.017 8.017-8.017s8.017 3.589 8.017 8.017v34.205a8.016 8.016 0 0 1-8.017 8.017z" fill="#df7a6e"></path><path d="M439.898 414.773c-7.096-20.168-15.503-29.972-25.702-29.972s-18.605 9.804-25.702 29.972c-4.618 13.122-7.969 29.062-7.969 37.903 0 18.566 15.105 33.67 33.67 33.67 18.566 0 33.67-15.105 33.67-33.67.001-8.84-3.35-24.781-7.967-37.903z" fill="#c4df64"></path><path d="M423.282 477.261c-18.566 0-33.67-15.105-33.67-33.67 0-8.841 3.351-24.781 7.969-37.903 2.748-7.811 5.695-14.061 8.864-18.795-6.817 3.852-12.738 13.067-17.95 27.881-4.618 13.122-7.969 29.062-7.969 37.903 0 18.566 15.105 33.67 33.67 33.67 11.6 0 21.848-5.897 27.906-14.85a33.472 33.472 0 0 1-18.82 5.764z" fill="#96ca62"></path><path d="M499.708 512H12.292a8.017 8.017 0 0 1-8.017-8.017 8.017 8.017 0 0 1 8.017-8.017h487.415a8.017 8.017 0 0 1 8.017 8.017 8.016 8.016 0 0 1-8.016 8.017z" fill="#7b7979"></path></g></svg>