<svg viewBox="0 0 512 512" xmlns="http://www.w3.org/2000/svg"><g><path d="m460.925 263.366 18.962-36.778 13.705-54.444-20.076-44.236L419.751 94.9l-19.056-28.583-15.993-34.028-29.434-21.097s-37.487-7.94-37.657-7.92-16.163-.814-16.163-.814l-7.377.814c-7.901 1.928-15.483 4.66-22.796 8.074-9.631 4.495-20.733 4.602-30.354.087C223.467 3.243 204.477-1.07 183.263.228c-38.351 2.347-72.428 26.34-85.524 62.462-5.665 19.351-19.867 35.265-39.023 41.867C22.001 118.49.386 156.652 6.038 195.513c5.029 34.577 19.02 62.581 37.169 78.117l13.55 26.372L256 326.532l158.008-21.039z" fill="#6c5e69"></path><path d="M453.284 104.558a80.16 80.16 0 0 0-.969-.361c-17.691-6.492-31.211-20.812-37.091-38.716a96.971 96.971 0 0 0-.964-2.79C401.164 26.568 367.088 2.576 328.736.229c-12.254-.75-23.762.383-34.665 3.044.389.02.771.023 1.162.047 38.352 2.347 72.428 26.34 85.524 62.462.337.929.658 1.859.964 2.79 5.879 17.904 19.4 32.224 37.091 38.716.324.119.646.239.969.361 36.715 13.932 58.331 52.094 52.679 90.955-5.029 34.577-19.02 62.581-37.169 78.117l19.953 23.281 13.55-26.372c18.15-15.536 32.141-43.541 37.169-78.117 5.651-38.861-15.964-77.023-52.679-90.955z" fill="#574d56"></path><path d="M98.072 356.968H68.54c-20.118 0-36.426-16.309-36.426-36.426v-20.75c0-20.118 16.309-36.426 36.426-36.426h29.532zM413.928 356.968h29.532c20.118 0 36.426-16.309 36.426-36.426v-20.75c0-20.118-16.309-36.426-36.426-36.426h-29.532z" fill="#ffb29f"></path><path d="m272.184 508.791 41.06-12.023L347.725 470l31.129-30.398 17.417-36.296 5.898-72.592 11.758-88.018-6.313-50.317-20.417-29.111-37.657-10.405-60.343-8.62-31.079-12.023-25.599-2.039c-37.851 28.179-90.655-.63-130.668 34.63-18.281 16.109-27.355 40.268-25.111 64.53l14.248 154.06a118.881 118.881 0 0 0 54.952 89.602l39.782 25.094A90.198 90.198 0 0 0 233.831 512h28.068z" fill="#ffe0cf"></path><path d="M410.147 164.809c-44.844-39.517-105.756 1.446-143.677-47.538-5.289-6.832-15.652-6.832-20.941 0-4.085 5.277-8.439 9.506-13.009 12.908 38.04 44.89 97.538 6.143 141.557 44.933 18.281 16.109 27.355 40.268 25.111 64.53L384.94 383.399a118.881 118.881 0 0 1-54.952 89.602l-39.782 25.094A90.164 90.164 0 0 1 242.1 512h36.07a90.176 90.176 0 0 0 48.108-13.905l39.782-25.094a118.884 118.884 0 0 0 54.952-89.602l14.247-154.06c2.243-24.262-6.831-48.421-25.112-64.53z" fill="#ffcfc0"></path><path d="M256 447.413c-31.843 0-56.786-17.36-56.786-39.521 0-4.268 3.459-7.727 7.727-7.727s7.727 3.459 7.727 7.727c0 13.046 18.927 24.067 41.332 24.067s41.332-11.021 41.332-24.067c0-4.268 3.459-7.727 7.727-7.727s7.727 3.459 7.727 7.727c0 22.162-24.943 39.521-56.786 39.521z" fill="#ff77ab"></path><path d="M265.68 379.862a7.729 7.729 0 0 1-3.415-14.663 6.838 6.838 0 0 0 3.649-4.466 6.841 6.841 0 0 0-.99-5.682l-2.087-3.045a7.726 7.726 0 0 1 2.003-10.742 7.729 7.729 0 0 1 10.743 2.003l2.087 3.044a22.375 22.375 0 0 1 3.193 18.341 22.379 22.379 0 0 1-11.779 14.416 7.702 7.702 0 0 1-3.404.794z" fill="#ffcfc0"></path><path d="M141.751 261.562a7.729 7.729 0 0 1-3.572-14.584l24.69-12.841c15.631-8.13 34.24-6.811 48.569 3.443a7.727 7.727 0 0 1-8.995 12.568c-9.569-6.85-22.001-7.731-32.443-2.3l-24.69 12.841a7.696 7.696 0 0 1-3.559.873zM370.249 261.562a7.706 7.706 0 0 1-3.56-.873l-24.691-12.841c-10.442-5.432-22.874-4.549-32.444 2.3a7.728 7.728 0 1 1-8.993-12.568c14.327-10.253 32.937-11.572 48.568-3.443l24.691 12.841a7.727 7.727 0 0 1-3.571 14.584zM185.435 315.872a7.499 7.499 0 0 1-7.5-7.5v-20.528c0-4.143 3.357-7.5 7.5-7.5s7.5 3.357 7.5 7.5v20.528c0 4.143-3.357 7.5-7.5 7.5zM326.516 315.872a7.499 7.499 0 0 1-7.5-7.5v-20.528c0-4.143 3.357-7.5 7.5-7.5s7.5 3.357 7.5 7.5v20.528c0 4.143-3.357 7.5-7.5 7.5z" fill="#574d56"></path></g></svg>