<svg viewBox="0 0 512 512" xmlns="http://www.w3.org/2000/svg"><g><path d="M336.873 251.656a7.726 7.726 0 0 1-7.726-7.726v-28.651l-8.899-8.899a7.727 7.727 0 0 1 10.927-10.927l11.162 11.162a7.726 7.726 0 0 1 2.263 5.463v31.851a7.727 7.727 0 0 1-7.727 7.727zM175.126 251.656a7.726 7.726 0 0 1-7.726-7.726v-31.851c0-2.049.814-4.015 2.263-5.463l11.162-11.162a7.727 7.727 0 0 1 10.927 10.927l-8.899 8.899v28.651a7.727 7.727 0 0 1-7.727 7.725zM311.905 243.93c0-30.826-24.655-56.377-55.48-56.607-31.071-.232-56.333 24.888-56.333 55.905v.702h.002L256 261.638z" fill="#756e78"></path><path d="M272.655 189.875a55.296 55.296 0 0 0-16.234-2.558c-31.071-.229-56.33 24.885-56.33 55.91v.702l20.281 15.085 13.142-15.085v-.702c0-25.045 16.455-46.227 39.141-53.352z" fill="#665e66"></path><path d="M276.949 0h-41.905c-35.422 0-62.612 31.405-57.542 66.462l9.021 62.384h138.946l9.021-62.384C339.56 31.405 312.37 0 276.949 0z" fill="#756e78"></path><path d="m232.633 66.462 9.023 62.379h-55.138l-9.016-62.379C172.431 31.404 199.615.001 235.039.001h41.904c2.239 0 4.447.129 6.617.373-32.119 3.617-55.679 33.246-50.927 66.088z" fill="#665e66"></path><path d="M317.772 146.038H194.225c-9.921 0-17.963-8.042-17.963-17.963 0-9.921 8.042-17.963 17.963-17.963h123.547c9.921 0 17.963 8.042 17.963 17.963 0 9.921-8.042 17.963-17.963 17.963z" fill="#eaac9d"></path><path d="M311.863 79.277v63.711c0 25.151-16.417 46.786-39.209 54.006a54.926 54.926 0 0 1-16.23 2.564c-31.045.232-56.294-24.875-56.294-55.867V79.277h6.277c12.135 0 21.973-9.838 21.973-21.982a35.193 35.193 0 0 0 5.137 5.386c6.437 5.457 14.45 8.191 22.454 8.191 10.31 0 20.619-4.532 27.6-13.577 0 6.072 2.457 11.565 6.437 15.545s9.473 6.437 15.545 6.437z" fill="#ffddce"></path><path d="M272.654 196.993a54.926 54.926 0 0 1-16.23 2.564c-31.045.232-56.294-24.875-56.294-55.867V79.277h6.277c12.135 0 21.973-9.838 21.973-21.982a35.193 35.193 0 0 0 5.137 5.386v80.965c-.001 25.044 16.452 46.216 39.137 53.347z" fill="#ffcbbe"></path><g fill="#665e66"><path d="M239.651 128.288a7.726 7.726 0 0 1-7.726-7.726v-12.655a7.726 7.726 0 1 1 15.452 0v12.655a7.725 7.725 0 0 1-7.726 7.726zM272.345 128.288a7.726 7.726 0 0 1-7.726-7.726v-12.655a7.726 7.726 0 1 1 15.452 0v12.655a7.727 7.727 0 0 1-7.726 7.726z" fill="#665e66"></path></g><path d="M255.998 165.73c-8.019 0-16.038-3.052-22.143-9.157a7.727 7.727 0 0 1 10.927-10.927c6.186 6.185 16.248 6.186 22.433 0a7.727 7.727 0 0 1 10.927 10.927c-6.105 6.105-14.124 9.157-22.144 9.157z" fill="#c14098"></path><path d="m365.97 279.349-3.84 23.797-32.028 181.331-74.099 14.505-74.106-14.505-35.867-205.128 109.974-17.712z" fill="#c6865c"></path><path d="M362.13 303.146H189.114l17.963 181.331h-25.18L146.03 279.349l109.974-17.712 109.966 17.712z" fill="#be694f"></path><path d="M365.972 279.346H146.028c-9.78 0-17.708-7.928-17.708-17.708 0-9.78 7.928-17.708 17.708-17.708h219.943c9.78 0 17.708 7.928 17.708 17.708 0 9.779-7.928 17.708-17.707 17.708z" fill="#c6865c"></path><path d="M205.565 279.35h-59.541c-9.777 0-17.703-7.935-17.703-17.712a17.63 17.63 0 0 1 5.186-12.517 17.629 17.629 0 0 1 12.517-5.186h59.541a17.63 17.63 0 0 0-12.517 5.186 17.63 17.63 0 0 0-5.186 12.517c0 9.776 7.926 17.712 17.703 17.712z" fill="#be694f"></path><path d="M81.049 449.281c-32.209 0-58.32-26.111-58.32-58.32v-26.037c0-32.209 26.111-58.32 58.32-58.32s58.32 26.111 58.32 58.32v26.037c0 32.21-26.111 58.32-58.32 58.32z" fill="#756e78"></path><path d="M95.802 447.401a58.373 58.373 0 0 1-14.751 1.879c-32.216 0-58.322-26.106-58.322-58.322v-26.033c0-32.206 26.106-58.322 58.322-58.322 5.099 0 10.044.65 14.751 1.879-25.073 6.534-43.582 29.326-43.582 56.444v26.033c.001 27.127 18.509 49.908 43.582 56.442z" fill="#665e66"></path><path d="M22.729 512v-13.018c0-32.209 26.111-58.32 58.32-58.32s58.32 26.111 58.32 58.32V512z" fill="#75cef9"></path><path d="M99.291 443.574c-23.277 7.659-40.072 29.574-40.072 55.411V512h-36.49v-13.015c0-32.206 26.116-58.322 58.322-58.322a58.243 58.243 0 0 1 18.24 2.911z" fill="#6bbef6"></path><path d="M197.683 449.281c-32.209 0-58.32-26.111-58.32-58.32v-26.037c0-32.209 26.111-58.32 58.32-58.32s58.32 26.111 58.32 58.32v26.037c0 32.21-26.111 58.32-58.32 58.32z" fill="#f6e781"></path><path d="M212.436 447.401a58.373 58.373 0 0 1-14.751 1.879c-32.216 0-58.322-26.106-58.322-58.322v-26.033c0-32.206 26.106-58.322 58.322-58.322 5.099 0 10.044.65 14.751 1.879-25.073 6.534-43.582 29.326-43.582 56.444v26.033c.001 27.127 18.509 49.908 43.582 56.442z" fill="#ffd064"></path><path d="M139.363 512v-13.018c0-32.209 26.111-58.32 58.32-58.32s58.32 26.111 58.32 58.32V512z" fill="#b3e59f"></path><path d="M215.925 443.574c-23.277 7.659-40.072 29.574-40.072 55.411V512h-36.49v-13.015c0-32.206 26.116-58.322 58.322-58.322a58.243 58.243 0 0 1 18.24 2.911z" fill="#95d6a4"></path><path d="M314.317 449.281c-32.209 0-58.32-26.111-58.32-58.32v-26.037c0-32.209 26.111-58.32 58.32-58.32s58.32 26.111 58.32 58.32v26.037c0 32.21-26.111 58.32-58.32 58.32z" fill="#756e78"></path><path d="M329.07 447.401a58.373 58.373 0 0 1-14.751 1.879c-32.216 0-58.322-26.106-58.322-58.322v-26.033c0-32.206 26.106-58.322 58.322-58.322 5.099 0 10.044.65 14.751 1.879-25.073 6.534-43.582 29.326-43.582 56.444v26.033c0 27.127 18.509 49.908 43.582 56.442z" fill="#665e66"></path><path d="M255.997 512v-13.018c0-32.209 26.111-58.32 58.32-58.32s58.32 26.111 58.32 58.32V512z" fill="#c14098"></path><path d="M332.559 443.574c-23.277 7.659-40.072 29.574-40.072 55.411V512h-36.49v-13.015c0-32.206 26.116-58.322 58.322-58.322a58.243 58.243 0 0 1 18.24 2.911z" fill="#aa3684"></path><path d="M430.951 449.281c-32.209 0-58.32-26.111-58.32-58.32v-26.037c0-32.209 26.111-58.32 58.32-58.32s58.32 26.111 58.32 58.32v26.037c0 32.21-26.111 58.32-58.32 58.32z" fill="#c6865c"></path><path d="M445.704 447.401a58.373 58.373 0 0 1-14.751 1.879c-32.216 0-58.322-26.106-58.322-58.322v-26.033c0-32.206 26.106-58.322 58.322-58.322 5.099 0 10.044.65 14.751 1.879-25.073 6.534-43.582 29.326-43.582 56.444v26.033c0 27.127 18.508 49.908 43.582 56.442z" fill="#be694f"></path><path d="M372.631 512v-13.018c0-32.209 26.111-58.32 58.32-58.32s58.32 26.111 58.32 58.32V512z" fill="#75cef9"></path><path d="M449.193 443.574c-23.277 7.659-40.072 29.574-40.072 55.411V512h-36.49v-13.015c0-32.206 26.116-58.322 58.322-58.322 6.369 0 12.5 1.022 18.24 2.911z" fill="#6bbef6"></path></g></svg>