<svg viewBox="0 0 512 511" xmlns="http://www.w3.org/2000/svg"><g><path d="M512 268.848c0 69.539-44.95 126.445-99.887 126.445h-58.605c-15.223 0-29.688-4.371-42.63-12.176-37.366-22.496-57.257-69.176-57.257-114.27 0-33.03 12.27-62.605 31.332-81.773 10.965-11.035 19.586-25.004 25.45-40.637 4.226-11.253 7.027-23.355 8.269-35.875.488-4.878.734-9.832.734-14.816 0-44.14 28.54-80.25 63.406-80.25 17.438 0 33.29 9.024 44.782 23.574 11.492 14.547 18.62 34.606 18.62 56.676 0 35.469 12.528 69.258 34.462 91.328 9.523 9.586 17.355 21.77 22.808 35.688 5.45 13.925 8.516 29.57 8.516 46.086zm0 0" fill="#35e298"></path><path d="M377.422 228.762c-.777 23.914-7.664 47.34-19.426 68.695l-47.113 85.66c-37.371-22.496-57.262-69.176-57.262-114.27 0-33.03 12.27-62.605 31.336-81.773 10.961-11.035 19.582-25.004 25.45-40.636 4.226-11.254 7.023-23.356 8.265-35.875 18.672 10.023 38.598 28.671 50.515 63.289a152.944 152.944 0 0 1 8.235 54.91zm0 0" fill="#1ab975"></path><path d="M460.082 273.2c0 41.566-33.695 75.265-75.262 75.265-41.566 0-75.265-33.7-75.265-75.266s33.699-75.265 75.265-75.265c41.567 0 75.262 33.699 75.262 75.265zm0 0" fill="#ae583e"></path><path d="M375.434 198.516c-66.434 8.265-89.536 93.129-36.786 134.12l19.348-35.179c11.758-21.355 18.649-44.781 19.426-68.695a153.403 153.403 0 0 0-1.988-30.246zm0 0" fill="#7c3f2c"></path><path d="M162.41 70.676c-3.933-17.91-24.219-82.766-109.926-68.012-2.496.43-3.89 3.133-2.8 5.422 8.879 18.644 46.535 87.746 109.218 68.523 2.536-.777 4.075-3.343 3.508-5.933zm0 0" fill="#1ed688"></path><path d="M158.895 76.605C96.219 95.835 58.562 26.735 49.684 8.085c-1.086-2.292.3-4.995 2.796-5.42C59.816 1.401 66.688.718 73.102.55c13.148 23.199 42.585 63.695 86.687 60.574a100.88 100.88 0 0 1 2.621 9.555c.57 2.59-.976 5.148-3.515 5.925zm0 0" fill="#1ab975"></path><path d="M166.625 127.734a7.767 7.767 0 0 1-7.77-7.77V8.985c0-4.293 3.477-7.77 7.77-7.77s7.77 3.477 7.77 7.77v110.98a7.767 7.767 0 0 1-7.77 7.77zm0 0" fill="#c0694e"></path><path d="m313.719 297.453-54.688 99.434c-14.144 23.172-46.324 31.59-71.715 18.347-13.011-6.785-28.367-6.785-41.394 0-24.805 12.938-57.18 5.414-71.703-18.347l-54.7-99.434C-2.882 256.738-5.132 213.055 8.333 173.852c16.805-48.848 49.59-65.891 72.238-71.778 10.395-2.703 18.664-3.054 22.282-3.054 1.28 0 1.976.039 1.976.039 10.238 0 20.05 1.722 29.098 4.859 9.035 3.14 17.324 7.71 24.523 13.398a12.558 12.558 0 0 0 16.352 0c7.203-5.687 15.48-10.257 24.527-13.398 9.043-3.137 18.848-4.86 29.094-4.86 0 0 69.246-4.413 96.488 74.794C338.48 213.309 336 257 313.72 297.453zm0 0" fill="#c42d2d"></path><path d="m313.719 297.453-54.688 99.434c-14.144 23.172-46.324 31.59-71.715 18.347-13.011-6.785-28.367-6.785-41.394 0-6.98 3.645-14.45 5.61-21.746 6.125-.418-.832-43.844-96.336-54.918-120.683-33.113-72.797-20.274-153.918 11.312-198.602 10.395-2.703 18.664-3.054 22.282-3.054 1.28 0 1.976.039 1.976.039 10.238 0 20.05 1.722 29.098 4.859 9.035 3.14 17.324 7.71 24.523 13.398a12.558 12.558 0 0 0 16.352 0c7.203-5.687 15.48-10.257 24.527-13.398 9.043-3.137 18.848-4.86 29.094-4.86 0 0 69.246-4.413 96.488 74.794C338.48 213.309 336 257 313.72 297.453zm0 0" fill="#f44545"></path><path d="M67.977 322.203c-8.723 4.602-12.063 15.402-7.461 24.129 5.402 10.23 12.226 19.117 19.777 26.809l-59.574-6.637c-9.801-1.09-18.633 5.969-19.727 15.773-1.09 9.801 5.973 18.633 15.774 19.727l59.57 6.637c-9.059 5.843-17.672 13.011-25.191 21.8-6.41 7.497-5.532 18.77 1.964 25.18s18.77 5.531 25.18-1.965c20.406-23.86 57.402-34.094 88.707-35.117 12.426-.402 20.68-13.117 15.926-24.629a17.877 17.877 0 0 0-12.613-10.629c-.567-.129-57.168-13.761-78.204-53.62-4.605-8.723-15.406-12.063-24.128-7.458zm0 0" fill="#1ab975"></path><path d="M510.023 439.09c-2.55 22.879-21.875 40.203-44.898 40.246-132.008.258-39.746.082-252.215.488-44.14.082-78.531-38.277-73.64-82.136 1.078-9.637 3.949-18.602 8.218-26.622 12.66-23.75 37.707-39.168 65.176-39.168 5.45 0 11.004.602 16.566 1.88 187.204 42.769 201.727 46.085 213.887 48.863l15.274 3.492 16.722 3.824c18.246 4.156 31.582 18.918 34.555 36.586.695 4.05.832 8.27.355 12.547zm0 0" fill="#ffa90b"></path><path d="M509.668 426.543c-8.29 10.84-21.344 17.75-35.871 17.77-131.996.261-39.738.085-252.203.488-41.301.074-74.055-33.489-74.106-73.735 12.66-23.75 37.703-39.168 65.172-39.168 2.953 0 5.93.176 8.922.551 2.54.301 5.098.746 7.648 1.328l7.637 1.739c197.735 45.187 21.457 4.902 206.25 47.125l15.27 3.492 16.726 3.824c18.246 4.156 31.582 18.918 34.555 36.586zm0 0" fill="#ffb52d"></path><g fill="#f29500"><path d="m458.387 386.133-5.895 60.066a7.77 7.77 0 0 1-7.707 6.91c-.293 0-.582-.02-.87-.05a7.775 7.775 0 0 1-6.872-8.579l6.074-61.84zM246.172 430.531l-5.223 49.239-15.637.03 5.41-50.987c.477-4.27 4.31-7.348 8.579-6.872 4.27.477 7.347 4.32 6.87 8.59zM388.395 446.375l-3.45 33.117-15.636.031 3.636-34.867a7.769 7.769 0 0 1 8.59-6.86c4.258.477 7.336 4.31 6.86 8.579zM326.867 356.086l-2.328 26.098a7.778 7.778 0 0 1-7.71 6.914c-.29 0-.579-.024-.872-.055-4.27-.477-7.344-4.309-6.867-8.578l2.496-27.871zM296.344 448.074l-3.266 31.594-15.633.031 3.45-33.344c.476-4.27 4.332-7.347 8.59-6.87s7.335 4.32 6.859 8.59zM236.867 335.516l-5.379 48.246a7.782 7.782 0 0 1-7.718 6.91 8.2 8.2 0 0 1-.872-.05 7.77 7.77 0 0 1-6.859-8.583l5.473-49.125c.02-.152.043-.309.074-.465 2.535.301 5.098.746 7.644 1.328zm0 0" fill="#f29500"></path></g></g></svg>