<svg viewBox="0 0 512 512" xmlns="http://www.w3.org/2000/svg"><g><path d="M240 296h32v32h-32z" fill="#fa9f0c"></path><path d="M264 392a53.263 53.263 0 0 0 10.67 32h-216a53.334 53.334 0 0 1 0-64h216A53.369 53.369 0 0 0 264 392z" fill="#92563a"></path><path d="M432 360H274.666a53.334 53.334 0 0 0 0 64H432a53.334 53.334 0 0 1 0-64z" fill="#ead7bc"></path><rect fill="#d4c2aa" rx="8"></rect><path d="M219.163 360.372a8 8 0 0 0-11.85 2.6 61.842 61.842 0 0 0 0 58.05 8 8 0 0 0 11.85 2.6 8.023 8.023 0 0 0 2.22-10.219 45.705 45.705 0 0 1 0-42.818 8.023 8.023 0 0 0-2.22-10.213zM95.313 362.975a61.842 61.842 0 0 0 0 58.05 8 8 0 0 0 11.85 2.6 8.023 8.023 0 0 0 2.22-10.219 45.705 45.705 0 0 1 0-42.818 8.023 8.023 0 0 0-2.22-10.219 8 8 0 0 0-11.85 2.606z" fill="#ed8c0c"></path><path d="M208 328h96a32 32 0 0 1 32 32H176a32 32 0 0 1 32-32z" fill="#ffb531"></path><path d="M304 328h-40a32 32 0 0 1 32 32h40a32 32 0 0 0-32-32z" fill="#ffa912"></path><path d="m114.322 21.687 11.312-11.312 255.961 255.961-11.312 11.312z" fill="#fa9f0c"></path><path d="M248 303.925a159.505 159.505 0 0 1-113.138-46.788c-62.383-62.384-62.383-163.89 0-226.274a161.691 161.691 0 0 1 20.5-17.346l9.278 13.036a145.481 145.481 0 0 0-18.463 15.624c-56.145 56.145-56.145 147.5 0 203.647s147.5 56.144 203.646 0a145.606 145.606 0 0 0 15.624-18.462l13.035 9.277a161.615 161.615 0 0 1-17.344 20.5A159.505 159.505 0 0 1 248 303.925z" fill="#ffb531"></path><path d="M368 144a120.889 120.889 0 0 1-2.4 24 119.568 119.568 0 0 1-27.28 55A120.946 120.946 0 0 1 327 234.32 119.954 119.954 0 0 1 128 144a120.889 120.889 0 0 1 2.4-24 119.568 119.568 0 0 1 27.28-55A120.462 120.462 0 0 1 200 33.99 120.007 120.007 0 0 1 368 144z" fill="#348fd9"></path><path d="M368 144a120.889 120.889 0 0 1-2.4 24 119.568 119.568 0 0 1-27.28 55A120.946 120.946 0 0 1 327 234.32a120.014 120.014 0 0 1-194.84-58.91 119.738 119.738 0 0 0 62.14 17.27q5.64 0 11.14-.52A119.34 119.34 0 0 0 256 175.68a120.475 120.475 0 0 0 54.68-134.03A119.929 119.929 0 0 1 368 144z" fill="#3086cd"></path><g fill="#7eb457"><path d="m280 192-32 40h-32v-24l-10.56-15.84L200 184v-32h56v40zM248 104h-32l-16 24v24h-32l-8-32h-29.6a119.568 119.568 0 0 1 27.28-55A120.462 120.462 0 0 1 200 33.99V72h32zM368 144a120.889 120.889 0 0 1-2.4 24H336l-24-16v-32l-4.33-7.22L288 80V30.83A120.081 120.081 0 0 1 368 144z" fill="#7eb457"></path></g><path d="M256 192h24l-32 40h-32v-24l-10.56-15.84A119.34 119.34 0 0 0 256 175.68zM368 144a120.889 120.889 0 0 1-2.4 24H336l-24-16v-32l-4.33-7.22a120.845 120.845 0 0 0 3.01-71.13A119.929 119.929 0 0 1 368 144z" fill="#79ad54"></path><path d="M298.833 456.065a53.263 53.263 0 0 0 10.67 32H93.5a53.334 53.334 0 0 1 0-64h216a53.369 53.369 0 0 0-10.67 32z" fill="#92563a"></path><path d="M309.5 424.065a53.071 53.071 0 0 0-8.21 16h-216a53.071 53.071 0 0 1 8.21-16z" fill="#875036"></path><path d="M466.833 424.065H309.5a53.334 53.334 0 0 0 0 64h157.333a53.334 53.334 0 0 1 0-64z" fill="#dfcdb3"></path><rect fill="#cebda5" rx="8"></rect><path d="M254 424.437a8 8 0 0 0-11.85 2.6 61.842 61.842 0 0 0 0 58.05 8 8 0 0 0 11.85 2.6 8.022 8.022 0 0 0 2.22-10.218 45.707 45.707 0 0 1 0-42.819 8.023 8.023 0 0 0-2.22-10.213zM130.146 427.04a61.842 61.842 0 0 0 0 58.05 8 8 0 0 0 11.85 2.6 8.022 8.022 0 0 0 2.22-10.218 45.707 45.707 0 0 1 0-42.819A8.023 8.023 0 0 0 142 424.437a8 8 0 0 0-11.854 2.603z" fill="#ed8c0c"></path></g></svg>