<svg height="512" viewBox="0 0 512 512" width="512" xmlns="http://www.w3.org/2000/svg"><g id="Layer_2" data-name="Layer 2"><g id="Layer_1-2" data-name="Layer 1"><g id="AS"><circle cx="256" cy="256" fill="#4b5896" r="256"/><path d="m256 0v512c141.38 0 256-114.62 256-256s-114.62-256-256-256z" fill="#656faa"/><g fill="#fff"><path d="m217.12 299.09h-66.89l-15.87 45.78h-24.54l64.09-177.74h20.63l62.74 177.74h-24.53zm-59.94-20.09h53.1l-25.87-76.29h-.74z"/><path d="m378.13 300.07a26.76 26.76 0 0 0 -8.67-20.27q-8.65-8.18-30.51-13.91-27.1-6.72-42.3-19.78t-15.2-32.83q0-20.88 16.36-34.79t42.48-13.92q28.08 0 44.74 15.93t16.17 37.17l-.36.73h-22.95q0-15.14-10.56-25t-27-9.89q-16.85 0-25.82 8.18t-9 21.24q0 11.6 9.83 19.35t31.92 13.61q26.85 7 40.89 20.51t14 33.44q0 21.49-16.91 34.55t-44.13 13.06q-25.75 0-45.47-14.4t-19.1-38.58l.24-.73h22.95q0 16.72 12.7 25.82a48 48 0 0 0 28.68 9.09q17.1 0 27-7.69t10.02-20.89z"/></g></g></g></g></svg>