<svg viewBox="0 0 512 512" xmlns="http://www.w3.org/2000/svg"><g><path d="M512 27.645V372.96c0 15.27-12.375 27.644-27.645 27.644H97.203c-15.27 0-27.644-12.375-27.644-27.644V27.645C69.559 12.375 81.934 0 97.203 0h387.152C499.625 0 512 12.375 512 27.645zm0 0" fill="#c4e2f2"></path><path d="M126.031 343.578H162.2v57.027h-36.168zM197.68 280.82h36.156v119.785H197.68zM511.996 27.645v33.02H69.555v-33.02C69.555 12.375 81.925 0 97.199 0h387.153c15.27 0 27.644 12.375 27.644 27.645zm0 0" fill="#83b2c6"></path><path d="M106.156 40.27c-7.281 0-10.558-9.477-4.851-14.004 5.593-4.434 13.965.718 12.55 7.687-.738 3.625-3.992 6.317-7.699 6.317zM159.5 40.27c-7.195 0-10.531-9.325-4.969-13.907 2.543-2.093 6.258-2.347 9.07-.629 2.84 1.739 4.305 5.223 3.547 8.461-.824 3.512-4.03 6.075-7.648 6.075zM132.84 40.27c-3.203 0-6.153-2.02-7.317-4.997-1.261-3.226-.183-7.003 2.579-9.101 5.75-4.363 14.144 1.144 12.335 8.18-.882 3.425-4.046 5.918-7.597 5.918zm0 0" fill="#e5e5e5"></path><path d="M416.285 229.055c0 69.316-56.191 125.507-125.515 125.507-20.5 0-39.84-4.917-56.934-13.628a125.826 125.826 0 0 1-36.156-27.7c-20.149-22.27-32.414-51.785-32.414-84.18 0-69.316 56.187-125.503 125.504-125.503v125.504l99.082-77.043c16.57 21.273 26.433 48.008 26.433 77.043zm0 0" fill="#ff491f"></path><path d="M233.836 280.82v60.114a125.826 125.826 0 0 1-36.156-27.7V280.82zm0 0" fill="#ed3618"></path><path d="m401.957 93.79-99.086 76.78V45.5c40.27 0 76.125 18.906 99.086 48.29zm0 0" fill="#83b2c6"></path><path d="M416.277 229.05c0 41.848-20.488 78.919-51.984 101.72l-73.52-101.72 99.075-77.046c16.566 21.277 26.43 48.012 26.43 77.047zm0 0" fill="#2c92bf"></path><path d="m417.645 93.79-99.083 76.78V45.5c40.27 0 76.125 18.906 99.083 48.29zm0 0" fill="#ff8e1d"></path><g fill="#32cc77"><path d="M0 244.738h36.168v234.403H0zM69.555 191.398h36.164v287.743H69.555zM141.723 343.578h36.168v135.563h-36.168zM213.363 280.824h36.168v198.317h-36.168zm0 0" fill="#32cc77"></path></g><path d="M484.863 370.504h-83.152a7.844 7.844 0 1 1 0-15.688h83.148a7.845 7.845 0 1 1 .004 15.688zm0 0" fill="#ff491f"></path><path d="M484.863 337.305h-58.05a7.845 7.845 0 0 1-7.844-7.848 7.844 7.844 0 0 1 7.844-7.844h58.05a7.844 7.844 0 0 1 7.844 7.844 7.845 7.845 0 0 1-7.844 7.848zm0 0" fill="#ff8e1d"></path></g></svg>