<svg viewBox="0 0 512 512" xmlns="http://www.w3.org/2000/svg"><g><path d="m417.995 270.712-.062-.072a58.9 58.9 0 0 1-14.208-53.061l.01-.072c2.619-11.466-4.094-22.865-15.187-26.283a58.851 58.851 0 0 1-38.925-38.925c-3.441-11.158-14.898-17.783-26.283-15.197l-.072.021a58.9 58.9 0 0 1-53.061-14.208l-.072-.062c-8.562-7.923-21.77-7.923-30.332 0l-.072.062a58.898 58.898 0 0 1-53.061 14.208l-.072-.021c-11.128-2.557-22.783 3.836-26.283 15.197a58.851 58.851 0 0 1-38.925 38.925c-11.158 3.441-17.783 14.898-15.197 26.283l.021.072a58.9 58.9 0 0 1-14.208 53.061l-.062.072c-7.923 8.562-7.923 21.77 0 30.332l.062.072a58.897 58.897 0 0 1 15.125 32.022l52.707 86.164 190.95-70.576 73.028-60.551c.638-6.181-1.298-12.579-5.821-17.463z" fill="#ffe177"></path><path d="M109.182 16.454c17.072 0 30.909 12.106 30.909 27.045s-13.837 27.045-30.909 27.045c-10.035 0-18.958-4.193-24.604-10.674-8.763 3.899-19.163 3.961-28.066 0-5.646 6.481-14.569 10.674-24.604 10.674C14.837 70.545 1 58.439 1 43.499s13.837-27.045 30.909-27.045c5.059 0 9.819 1.071 14.033 2.947 12.392-14.224 36.805-14.236 49.207 0 4.214-1.876 8.974-2.947 14.033-2.947zM480.091 16.454C497.163 16.454 511 28.56 511 43.499s-13.837 27.045-30.909 27.045c-10.035 0-18.958-4.193-24.604-10.674-8.763 3.899-19.163 3.961-28.065 0-5.646 6.481-14.569 10.674-24.604 10.674-17.072 0-30.909-12.106-30.909-27.045s13.837-27.045 30.909-27.045c5.059 0 9.819 1.071 14.033 2.947 12.392-14.224 36.805-14.236 49.207 0 4.214-1.876 8.974-2.947 14.033-2.947z" fill="#62dbfb"></path><path d="M369.364 304.269v.01c-45.076 15.032-85.299 75.222-138.607 106.265l-45.848-23.182-27.519-39.007c-11.57-18.03-18.278-39.471-18.278-62.477 0-63.982 51.876-115.858 115.858-115.858 71.411 0 125.733 64.043 114.394 134.249z" fill="#ffd15b"></path><path d="M511 271.454v231.818H410.546c-78.273-41.668-144.736-86.297-191.647-131.271 53.308-31.043 105.39-52.69 150.465-67.722v-.01a830.571 830.571 0 0 1 54.452-16.093C476.691 274.524 511 271.454 511 271.454zM275.771 503.272H1v-141.11c55.614-5.594 176.914 15.727 274.771 141.11z" fill="#6ed5a1"></path><path d="M410.546 503.272H275.772C162.758 413.615 48.672 375.288 1 362.162v-50.011c.105.027 103.401 10.049 217.889 59.85h.01c65.919 28.673 135.608 70.534 191.647 131.271z" fill="#46cc8d"></path></g></svg>