<svg viewBox="0 0 512 512" xmlns="http://www.w3.org/2000/svg"><g><path d="M373.333 117.333H138.667C62.083 117.333 0 179.417 0 256s62.083 138.667 138.667 138.667h234.667C449.917 394.667 512 332.583 512 256s-62.083-138.667-138.667-138.667z" fill="#cfd8dc"></path><circle cx="138.667" cy="256" fill="#f44336" r="96"></circle><path d="M288 309.333c-17.673 0-32-14.327-32-32v-42.667c0-17.673 14.327-32 32-32 17.673 0 32 14.327 32 32v42.667c0 17.673-14.327 32-32 32zM288 224c-5.891 0-10.667 4.776-10.667 10.667v42.667c0 5.891 4.776 10.667 10.667 10.667s10.667-4.776 10.667-10.667v-42.667c0-5.891-4.776-10.667-10.667-10.667zM352 309.333c-5.891 0-10.667-4.776-10.667-10.667v-85.333c0-5.891 4.776-10.667 10.667-10.667h32c5.891 0 10.667 4.776 10.667 10.667S389.891 224 384 224h-21.333v74.667c0 5.891-4.776 10.666-10.667 10.666z" fill="#455a64"></path><path d="M373.333 266.667H352c-5.891 0-10.667-4.776-10.667-10.667s4.776-10.667 10.667-10.667h21.333c5.891 0 10.667 4.776 10.667 10.667s-4.776 10.667-10.667 10.667zM416 309.333c-5.891 0-10.667-4.776-10.667-10.667v-85.333c0-5.891 4.776-10.667 10.667-10.667h32c5.891 0 10.667 4.776 10.667 10.667S453.891 224 448 224h-21.333v74.667c0 5.891-4.776 10.666-10.667 10.666z" fill="#455a64"></path><path d="M437.333 266.667H416c-5.891 0-10.667-4.776-10.667-10.667s4.776-10.667 10.667-10.667h21.333c5.891 0 10.667 4.776 10.667 10.667s-4.776 10.667-10.667 10.667z" fill="#455a64"></path></g></svg>