<svg viewBox="0 0 512 512" xmlns="http://www.w3.org/2000/svg"><g><path d="M461.853 145.767H288.8s-23.972 40.943-23.972 93.349c0 39.005 26.42 52.821 39.932 57.337 4.179 1.397 8.797.021 11.459-3.49 7.409-9.773 26.239-29.201 59.106-29.649 32.868.448 51.699 19.876 59.107 29.649 2.662 3.511 7.28 4.887 11.459 3.49 13.512-4.515 39.932-18.331 39.932-57.337.001-52.405-23.97-93.349-23.97-93.349z" fill="#873f30"></path><path d="M485.823 239.113c0 39.013-26.424 52.828-39.93 57.34-4.183 1.401-8.798.021-11.456-3.492a74.763 74.763 0 0 0-7.314-8.262c14.062-5.46 36.984-19.934 36.984-56.268 0-36.345-11.528-67.178-18.595-82.662h16.339s23.972 40.939 23.972 93.344z" fill="#6c3328"></path><path d="M150.999 39.381c-76.647 0-107.594 37.51-107.594 86.503 0 38.158 22.604 55.123 22.604 55.123h169.98s22.604-16.965 22.604-55.123c0-48.993-30.947-86.503-107.594-86.503z" fill="#873f30"></path><path d="M301.997 423.959v76.316H10c-5.523 0-10-4.477-10-10v-66.316c0-63.336 45.73-115.978 105.964-126.733 11.796-2.112 20.624-12.002 21.603-23.931l2.668-32.482h41.527l2.668 32.482c.979 11.93 9.818 21.819 21.603 23.931 60.235 10.755 105.964 63.397 105.964 126.733z" fill="#7a6e79"></path><path d="M301.874 418.272c-16.854 4.358-34.408-3.75-42.134-19.161a77.71 77.71 0 0 1-39.065 10.477c-14.237 0-27.578-3.822-39.064-10.477-8.159 16.267-27.259 24.395-44.937 18.327a36.776 36.776 0 0 1-9.272-4.739c-1.556-1.102-2.514-2.895-2.431-4.801a36.532 36.532 0 0 1 1.968-10.395c4.43-12.888 15.278-21.737 27.743-24.209a77.798 77.798 0 0 1-12.177-41.877c0-25.693 12.403-48.501 31.544-62.738l.381 4.615c.979 11.93 9.818 21.819 21.603 23.931 58.422 10.437 103.193 60.267 105.841 121.047z" fill="#685e67"></path><path d="M301.996 423.957v76.314h-31.485v-76.314c0-63.33-45.731-115.973-105.971-126.733-11.781-2.104-20.617-11.998-21.603-23.935l-2.657-32.471h31.485l2.669 32.471c.974 11.938 9.81 21.831 21.603 23.935 60.228 10.76 105.959 63.403 105.959 126.733z" fill="#685e67"></path><path d="M212.454 301.288c-12.154 21.351-35.127 35.753-61.455 35.753-26.327 0-49.301-14.402-61.455-35.753a128.882 128.882 0 0 1 16.422-4.063c11.793-2.104 20.617-11.998 21.603-23.935l2.669-32.471h41.523l2.669 32.471c.986 11.938 9.81 21.831 21.603 23.935a128.825 128.825 0 0 1 16.421 4.063z" fill="#f89f8e"></path><path d="M177.253 283.228c-8.475 1.765-17.262 2.692-26.254 2.692s-17.779-.927-26.254-2.692a26.617 26.617 0 0 0 2.828-9.938l2.662-32.476h41.526l2.662 32.476a26.675 26.675 0 0 0 2.83 9.938z" fill="#ea806f"></path><path d="M212.458 301.288a70.578 70.578 0 0 1-14.919 18.249 175.16 175.16 0 0 0-14.703-3.294c-16.133-2.873-28.215-16.422-29.561-32.759l-3.51-42.665h22l2.669 32.471c.986 11.938 9.81 21.831 21.603 23.935a128.867 128.867 0 0 1 16.421 4.063z" fill="#ea806f"></path><circle cx="53.333" cy="166.904" fill="#ea806f" r="27.151"></circle><path d="M150.996 267.36c-44.938 0-82.259-34.68-85.553-79.497l-1.869-25.438c-3.733-50.805 36.479-94.081 87.421-94.081 50.942 0 91.155 43.276 87.422 94.081l-1.869 25.438c-3.292 44.817-40.614 79.497-85.552 79.497z" fill="#fdb0a0"></path><g fill="#873f30"><path d="M107.697 178.855a7.725 7.725 0 0 1-7.726-7.726v-.144a7.726 7.726 0 1 1 15.452 0v.144a7.725 7.725 0 0 1-7.726 7.726zM194.299 178.855a7.725 7.725 0 0 1-7.726-7.726v-.144a7.726 7.726 0 1 1 15.452 0v.144a7.726 7.726 0 0 1-7.726 7.726z" fill="#873f30"></path></g><path d="M150.997 225.935c-10.149 0-19.711-3.935-26.925-11.079a7.727 7.727 0 0 1 10.874-10.979c4.302 4.26 10.002 6.606 16.051 6.606s11.751-2.346 16.052-6.606a7.727 7.727 0 0 1 10.874 10.98c-7.215 7.143-16.777 11.078-26.926 11.078z" fill="#fc9aa1"></path><path d="M58.686 67.041s-6.624 58.512 91.013 58.512c95.094 0 112.496-38.729 108.334-84.15-.48-5.239-5.083-9.152-10.331-8.785-9.427.66-25.338-.022-43.672-8.214C169.661 9.047 78.943-5.977 58.686 67.041z" fill="#a34f41"></path><path d="M149.696 125.557c-31.421 0-52.034-6.057-65.551-14.289 10.693 2.493 23.56 3.966 39.065 3.966 94.354 0 112.218-38.127 108.416-83.084 6.408.783 11.888.752 16.081.464 5.244-.361 9.849 3.554 10.322 8.787 4.162 45.421-13.237 84.156-108.333 84.156z" fill="#873f30"></path><path d="M512 431.201v59.074c0 5.523-4.477 10-10 10H238.662v-69.074c0-57.319 41.383-104.975 95.91-114.711 10.673-1.906 18.656-10.858 19.543-21.654l2.421-29.401h37.591l2.41 29.401c.886 10.796 8.88 19.749 19.553 21.654 54.517 9.736 95.91 57.392 95.91 114.711z" fill="#fb4a59"></path><path d="M361.367 407.898c.082 1.906-.876 3.698-2.431 4.801a36.841 36.841 0 0 1-9.282 4.739c-17.668 6.068-36.767-2.06-44.926-18.327a77.71 77.71 0 0 1-39.065 10.477 77.71 77.71 0 0 1-24.209-3.843c10.137-45.524 46.904-81.003 93.118-89.255a23.184 23.184 0 0 0 7.294-2.596 78.544 78.544 0 0 1 1.968 17.523 77.8 77.8 0 0 1-12.177 41.877c12.465 2.472 23.313 11.322 27.743 24.209a37.314 37.314 0 0 1 1.967 10.395zM511.997 431.198v59.072c0 5.523-4.477 10-10 10H483.5v-69.072c0-57.321-41.391-104.969-95.916-114.707-10.663-1.904-18.661-10.859-19.553-21.664l-2.405-29.389h28.497l2.416 29.389c.881 10.805 8.879 19.76 19.553 21.664 54.514 9.739 95.905 57.387 95.905 114.707z" fill="#f82f40"></path><path d="M430.953 320.169c-11.001 19.325-31.794 32.36-55.623 32.36s-44.623-13.035-55.623-32.36a116.77 116.77 0 0 1 14.863-3.678c10.674-1.904 18.661-10.859 19.553-21.664l2.416-29.389h37.583l2.416 29.389c.892 10.805 8.879 19.76 19.553 21.664 5.069.904 10.03 2.144 14.862 3.678z" fill="#fdb0a0"></path><path d="M399.092 303.823c-7.671 1.598-15.624 2.436-23.763 2.436s-16.092-.839-23.763-2.436a24.12 24.12 0 0 0 2.56-8.995l2.41-29.394h37.586l2.41 29.394a24.096 24.096 0 0 0 2.56 8.995z" fill="#f89f8e"></path><path d="M430.956 320.169a63.868 63.868 0 0 1-13.503 16.517 158.254 158.254 0 0 0-13.307-2.981c-14.602-2.601-25.538-14.863-26.756-29.651l-3.177-38.616h19.912l2.416 29.389c.892 10.805 8.879 19.76 19.553 21.664a116.966 116.966 0 0 1 14.862 3.678z" fill="#f89f8e"></path><circle cx="458.673" cy="191.315" fill="#fdb0a0" r="27.151"></circle><path d="M375.326 289.461c-40.674 0-74.454-31.389-77.434-71.953l-1.692-23.024c-3.379-45.984 33.018-85.153 79.126-85.153 46.108 0 82.505 39.169 79.126 85.153l-1.692 23.024c-2.98 40.564-36.76 71.953-77.434 71.953z" fill="#ffcec0"></path><g fill="#873f30"><path d="M336.136 216.269a7.725 7.725 0 0 1-7.726-7.726v-.13a7.726 7.726 0 1 1 15.452 0v.13a7.727 7.727 0 0 1-7.726 7.726zM414.52 216.269a7.725 7.725 0 0 1-7.726-7.726v-.13a7.726 7.726 0 1 1 15.452 0v.13a7.726 7.726 0 0 1-7.726 7.726z" fill="#873f30"></path></g><path d="M375.327 258.881c-9.379 0-18.217-3.637-24.885-10.24a7.726 7.726 0 1 1 10.874-10.98c3.756 3.719 8.731 5.767 14.012 5.767s10.258-2.048 14.013-5.767a7.726 7.726 0 1 1 10.874 10.98c-6.67 6.603-15.508 10.24-24.888 10.24z" fill="#fc9aa1"></path><path d="M352.282 488.544c-6.752-37.659-36.419-67.367-74.061-74.172-8.491-1.535-14.92-8.531-15.626-17.131l-1.905-23.205h-29.674l-1.905 23.205c-.706 8.6-7.134 15.596-15.626 17.131-37.641 6.805-67.308 36.513-74.061 74.172-1.096 6.115 3.645 11.727 9.858 11.727h193.141c6.214 0 10.955-5.612 9.859-11.727z" fill="#31a7fb"></path><path d="M255.528 414.339c41.568 7.424 73.457 42.763 75.591 85.932h11.307c6.263 0 10.946-5.685 9.833-11.848-6.806-37.665-36.54-67.352-74.227-74.084-8.426-1.503-14.739-8.572-15.435-17.101l-1.907-23.199h-22.495l1.898 23.199c.704 8.529 7.017 15.598 15.435 17.101z" fill="#1c96f9"></path><path d="M289.761 417.242c-8.684 15.254-25.097 25.544-43.907 25.544s-35.224-10.29-43.907-25.544a92.184 92.184 0 0 1 11.733-2.903c8.426-1.503 14.73-8.572 15.435-17.101l1.907-23.199h29.667l1.907 23.199c.704 8.529 7.009 15.598 15.435 17.101 4 .713 7.916 1.692 11.73 2.903z" fill="#fdb0a0"></path><g fill="#f89f8e"><path d="M265.663 406.136a78.14 78.14 0 0 1-18.767 2.276c-7.112 0-14-.953-20.554-2.731a19.044 19.044 0 0 0 2.774-8.443l1.907-23.199h29.667l1.907 23.199a19.015 19.015 0 0 0 3.066 8.898z" fill="#f89f8e"></path><path d="M289.764 417.242a50.44 50.44 0 0 1-10.659 13.038 124.578 124.578 0 0 0-10.504-2.353c-11.527-2.053-20.159-11.733-21.121-23.405l-2.508-30.483h15.718l1.907 23.199c.704 8.529 7.009 15.598 15.435 17.101a92.211 92.211 0 0 1 11.732 2.903z" fill="#f89f8e"></path></g><path d="M152.136 379.792a36.83 36.83 0 0 0-1.969 10.389c-.082 1.906.874 3.704 2.433 4.803a36.834 36.834 0 0 0 9.277 4.736c19.268 6.616 40.251-3.64 46.871-22.921a36.785 36.785 0 0 0 1.979-13.312 36.693 36.693 0 0 0-11.72-6.616c-19.267-6.616-40.25 3.641-46.871 22.921z" fill="#873f30"></path><path d="M208.744 376.796c-6.614 19.283-27.597 29.538-46.871 22.924a36.83 36.83 0 0 1-9.268-4.732c-1.578-1.112-2.528-2.938-2.431-4.866l.002-.03c18.982 5.909 39.338-4.32 45.831-23.251a36.948 36.948 0 0 0 1.967-10.307 36.624 36.624 0 0 1 12.755 6.957 36.59 36.59 0 0 1-1.985 13.305z" fill="#6c3328"></path><path d="M339.605 379.792a36.83 36.83 0 0 1 1.969 10.389c.082 1.906-.874 3.704-2.433 4.803a36.834 36.834 0 0 1-9.277 4.736c-19.268 6.616-40.251-3.64-46.871-22.921a36.785 36.785 0 0 1-1.979-13.312 36.693 36.693 0 0 1 11.72-6.616c19.267-6.616 40.251 3.641 46.871 22.921z" fill="#873f30"></path><path d="M339.605 379.796a36.921 36.921 0 0 1 1.97 10.381c.084 1.908-.873 3.709-2.435 4.809a36.904 36.904 0 0 1-11.419 5.391 36.86 36.86 0 0 0-1.66-6.969c-6.377-18.572-26.064-28.764-44.722-23.582a35.867 35.867 0 0 1-.323-6.339 36.61 36.61 0 0 1 11.715-6.619c19.266-6.614 40.253 3.644 46.874 22.928z" fill="#6c3328"></path><circle cx="245.871" cy="313.707" fill="#ffcec0" r="78.167"></circle><g fill="#fc9aa1"><circle cx="201.828" cy="333.249" fill="#fc9aa1" r="8.927"></circle><circle cx="289.913" cy="333.249" fill="#fc9aa1" r="8.927"></circle><path d="M245.87 363.704c-7.238 0-14.058-2.806-19.204-7.902a7.728 7.728 0 0 1-.052-10.927 7.729 7.729 0 0 1 10.928-.052 11.763 11.763 0 0 0 8.329 3.429c3.14 0 6.099-1.218 8.33-3.429a7.728 7.728 0 0 1 10.876 10.979c-5.147 5.095-11.967 7.902-19.207 7.902z" fill="#fc9aa1"></path></g><path d="M210.755 329.381c-4.268 0-7.726-3.408-7.726-7.675v-.103a7.726 7.726 0 1 1 15.452 0c0 4.268-3.459 7.778-7.726 7.778zM280.987 329.381c-4.268 0-7.726-3.408-7.726-7.675v-.103a7.726 7.726 0 1 1 15.452 0c0 4.268-3.458 7.778-7.726 7.778zM322.209 303.184a8.576 8.576 0 0 0 7.717-8.65c-.337-23.11-8.612-81.88-84.054-81.88-75.801 0-83.794 59.329-84.059 82.206-.049 4.197 2.938 7.829 7.072 8.552 14.725 2.573 51.811 5.42 99.779-17.256 0 0 25.442 19.83 53.545 17.028z" fill="#873f30"></path><path d="M329.928 294.537c.06 4.44-3.298 8.203-7.722 8.649-6.218.618-12.308.129-18.02-1.005a8.572 8.572 0 0 0 4.483-7.644c-.326-21.98-7.825-76.211-73.445-81.468 3.393-.266 6.94-.412 10.65-.412 75.439 0 83.71 58.767 84.054 81.88z" fill="#6c3328"></path><path d="M434.656 101.944s39.857 12.437 35.878 65.944a10.37 10.37 0 0 1-8.805 9.504c-12.933 1.947-38.598 1.899-53.772-24.342z" fill="#a34f41"></path><path d="M434.656 101.944c-.583 31.953-22.833 62.838-57.625 75.501-33.071 12.037-68.045 4.178-89.446-17.329-2.104-2.114-3.245-5.034-2.999-8.006 2.497-30.295 24.259-58.891 57.4-70.953 34.79-12.664 71.688-3.307 92.67 20.787z" fill="#a34f41"></path><path d="M434.654 101.945c-.577 31.956-22.829 62.841-57.628 75.502-28.969 10.539-59.39 5.821-80.869-9.962 21.284 7.479 46.554 6.16 69.486-5.604 31.009-15.916 48.975-46.461 48.12-76.501 7.942 4.264 15.04 9.838 20.891 16.565z" fill="#873f30"></path><path d="M74.297 415.274v85H58.844v-85a7.722 7.722 0 0 1 7.726-7.726 7.73 7.73 0 0 1 7.727 7.726z" fill="#554e55"></path><path d="M453.156 415.274v85h-15.453v-85a7.73 7.73 0 0 1 7.726-7.726 7.722 7.722 0 0 1 7.727 7.726z" fill="#f82f40"></path></g></svg>