<svg id="svg8" height="512" viewBox="0 0 16.933333 16.933333" width="512" xmlns="http://www.w3.org/2000/svg" xmlns:svg="http://www.w3.org/2000/svg"><g id="layer2"><path id="path3587" d="m12.886654 1.398437-.373047.373047 2.115234 2.117188.375-.373047z" fill="#67afed" font-variant-ligatures="normal" font-variant-position="normal" font-variant-caps="normal" font-variant-numeric="normal" font-variant-alternates="normal" font-feature-settings="normal" text-indent="0" text-align="start" text-decoration-line="none" text-decoration-style="solid" text-decoration-color="#000000" text-transform="none" text-orientation="mixed" white-space="normal" shape-padding="0" isolation="auto" mix-blend-mode="normal" solid-color="#000000" solid-opacity="1" vector-effect="none"/><path id="path3777" d="m12.435352.529167c-.203348 0-.406321.07662-.560173.230477l-.562756.560689c.374325.374838.747987.749023 1.122929 1.122929l.560689-.56069c.307705-.307705.307705-.815223 0-1.122928-.153853-.153853-.357342-.230477-.560689-.230477z" fill="#0e4b7f"/><path id="path3871" d="m11.680876.95343-.368453.366903c.374325.374838.747987.749023 1.122929 1.122929l.368969-.36897c-.03833-.275141-.15833-.540736-.368969-.751375-.21142-.21142-.478331-.331458-.754476-.369487z" fill="#0d3f6c" font-variant-ligatures="normal" font-variant-position="normal" font-variant-caps="normal" font-variant-numeric="normal" font-variant-alternates="normal" font-feature-settings="normal" text-indent="0" text-align="start" text-decoration-line="none" text-decoration-style="solid" text-decoration-color="#000000" text-transform="none" text-orientation="mixed" white-space="normal" shape-padding="0" isolation="auto" mix-blend-mode="normal" solid-color="#000000" solid-opacity="1" vector-effect="none"/><path id="path3579" d="m11.312423 1.120862c-.338972 0-.677844.129557-.935344.387056l-.187585.187586a.26460979.26460979 0 0 0 0 .374654l1.4981 1.496033a.26460979.26460979 0 0 0 .373103 0l.187069-.187069c.515-.515.514999-1.356205 0-1.871204-.2575-.2575-.596371-.387056-.935343-.387056z" fill="#67afed" font-variant-ligatures="normal" font-variant-position="normal" font-variant-caps="normal" font-variant-numeric="normal" font-variant-alternates="normal" font-feature-settings="normal" text-indent="0" text-align="start" text-decoration-line="none" text-decoration-style="solid" text-decoration-color="#000000" text-transform="none" text-orientation="mixed" white-space="normal" shape-padding="0" isolation="auto" mix-blend-mode="normal" solid-color="#000000" solid-opacity="1" vector-effect="none"/><path id="path3856" d="m11.291235 1.122929c-.331826.0053-.662054.132888-.914156.384989l-.187585.187586a.26460979.26460979 0 0 0 0 .374654l1.4981 1.496033a.26460979.26460979 0 0 0 .373103 0l.187069-.187069c.151661-.151661.253407-.332938.315743-.524516l-1.315682-1.313615a.26460979.26460979 0 0 1 0-.374654z" fill="#51a3ea" font-variant-ligatures="normal" font-variant-position="normal" font-variant-caps="normal" font-variant-numeric="normal" font-variant-alternates="normal" font-feature-settings="normal" text-indent="0" text-align="start" text-decoration-line="none" text-decoration-style="solid" text-decoration-color="#000000" text-transform="none" text-orientation="mixed" white-space="normal" shape-padding="0" isolation="auto" mix-blend-mode="normal" solid-color="#000000" solid-opacity="1" vector-effect="none"/><path id="path3591" d="m14.861263 4.613281-1.58789 2.38086.441406.294921 1.585937-2.382812z" fill="#67afed" font-variant-ligatures="normal" font-variant-position="normal" font-variant-caps="normal" font-variant-numeric="normal" font-variant-alternates="normal" font-feature-settings="normal" text-indent="0" text-align="start" text-decoration-line="none" text-decoration-style="solid" text-decoration-color="#000000" text-transform="none" text-orientation="mixed" white-space="normal" shape-padding="0" isolation="auto" mix-blend-mode="normal" solid-color="#000000" solid-opacity="1" vector-effect="none"/><path id="circle3589" d="m16.00941 4.2333326a.92822629.92822629 0 0 1 -.928227.9282263.92822629.92822629 0 0 1 -.928226-.9282263.92822629.92822629 0 0 1 .928226-.9282263.92822629.92822629 0 0 1 .928227.9282263z" fill="#0e4b7f"/><path id="rect3593" d="m12.698901 6.8771c-.288582 0-.529166.240584-.529166.529166v.529167c0 .288581.240584.529167.529166.529167h1.588017c.288582 0 .529167-.240586.529167-.529167v-.529167c0-.288582-.240585-.529167-.529167-.529166z" fill="#96d0ff" font-variant-ligatures="normal" font-variant-position="normal" font-variant-caps="normal" font-variant-numeric="normal" font-variant-alternates="normal" font-feature-settings="normal" text-indent="0" text-align="start" text-decoration-line="none" text-decoration-style="solid" text-decoration-color="#000000" text-transform="none" text-orientation="mixed" white-space="normal" shape-padding="0" isolation="auto" mix-blend-mode="normal" solid-color="#000000" solid-opacity="1" vector-effect="none"/><path id="path3751" d="m3.704618 6.059837c-.000171-.000345-.000343-.00069-.000516-.001-.01356-.135345-.127528-.238361-.26355-.238228h-.529167c-.146928-.00056-.266177.118689-.265617.265617v1.322141c-.00056.146928.118689.266177.265617.265617h.529167c.146119-.000584.264107-.119497.26355-.265617v-1.322141c.00061-.0088.000782-.01757.000516-.02635z" fill="#96d0ff" font-variant-ligatures="normal" font-variant-position="normal" font-variant-caps="normal" font-variant-numeric="normal" font-variant-alternates="normal" font-feature-settings="normal" text-indent="0" text-align="start" text-decoration-line="none" text-decoration-style="solid" text-decoration-color="#000000" text-transform="none" text-orientation="mixed" white-space="normal" shape-padding="0" isolation="auto" mix-blend-mode="normal" solid-color="#000000" solid-opacity="1" vector-effect="none"/><path id="path3826" d="m2.911385 5.820317c-.146927-.000561-.266177.118689-.265617.265616v.793234.529166c-.000561.146928.11869.266177.265617.265617h.529167c.14612-.000584.264107-.119497.26355-.265617v-.529166h-.26355c-.14612.000557-.265033-.11743-.265617-.26355v-.7953z" fill="#7cc3ff" font-variant-ligatures="normal" font-variant-position="normal" font-variant-caps="normal" font-variant-numeric="normal" font-variant-alternates="normal" font-feature-settings="normal" text-indent="0" text-align="start" text-decoration-line="none" text-decoration-style="solid" text-decoration-color="#000000" text-transform="none" text-orientation="mixed" white-space="normal" shape-padding="0" isolation="auto" mix-blend-mode="normal" solid-color="#000000" solid-opacity="1" vector-effect="none"/><path id="rect3553" d="m11.377018 15.873966c-.00056.146928.118689.266177.265617.265617h4.49585c.146927.00056.266177-.118689.265616-.265617v-6.616133c-.000582-.14612-.119497-.264107-.265616-.26355h-4.49585c-.0091-.000476-.01826-.000476-.02739 0-.135344.01356-.238361.127527-.238228.26355z" fill="#ffc6a0" font-variant-ligatures="normal" font-variant-position="normal" font-variant-caps="normal" font-variant-numeric="normal" font-variant-alternates="normal" font-feature-settings="normal" text-indent="0" text-align="start" text-decoration-line="none" text-decoration-style="solid" text-decoration-color="#000000" text-transform="none" text-orientation="mixed" white-space="normal" shape-padding="0" isolation="auto" mix-blend-mode="normal" solid-color="#000000" solid-opacity="1" vector-effect="none"/><path id="path3798" d="m11.377018 9.257833v6.616133c-.00056.146928.118689.266177.265617.265617h4.49585c.146927.00056.266177-.118689.265616-.265617v-.26355h-4.232299c-.146928.000561-.266178-.118688-.265617-.265616v-6.350517h-.26355c-.0091-.000476-.01826-.000476-.02739 0-.135344.01356-.238361.127527-.238228.26355z" fill="#ffaf7a" font-variant-ligatures="normal" font-variant-position="normal" font-variant-caps="normal" font-variant-numeric="normal" font-variant-alternates="normal" font-feature-settings="normal" text-indent="0" text-align="start" text-decoration-line="none" text-decoration-style="solid" text-decoration-color="#000000" text-transform="none" text-orientation="mixed" white-space="normal" shape-padding="0" isolation="auto" mix-blend-mode="normal" solid-color="#000000" solid-opacity="1" vector-effect="none"/><path id="rect3575" d="m1.851536 7.408333v.792717c-.0005603.1469273.1186887.2661768.265616.265617h2.115117c.1469277.0005603.2661773-.1186893.265617-.265617v-.792717c-.0005842-.1461198-.1194971-.2641074-.265617-.26355h-2.115117c-.0087691-.0006139-.0175633-.0007905-.0268695-.000258-.1358591.0138325-.2388728.1277907-.2387465.263808z" fill="#e1f1ff" font-variant-ligatures="normal" font-variant-position="normal" font-variant-caps="normal" font-variant-numeric="normal" font-variant-alternates="normal" font-feature-settings="normal" text-indent="0" text-align="start" text-decoration-line="none" text-decoration-style="solid" text-decoration-color="#000000" text-transform="none" text-orientation="mixed" white-space="normal" shape-padding="0" isolation="auto" mix-blend-mode="normal" solid-color="#000000" solid-opacity="1" vector-effect="none"/><path id="path3823" d="m1.851536 7.408333v.792717c-.0005603.1469273.1186887.2661768.265616.265617h2.115117c.1469277.0005603.2661773-.1186893.265617-.265617v-.792717h-1.851567c-.1461199.0005574-.2650328-.1174302-.265617-.26355h-.26355c-.0087691-.0006139-.0175633-.0007905-.0268695-.000258-.1358591.0138325-.2388728.1277907-.2387465.263808z" fill="#cee9fe" font-variant-ligatures="normal" font-variant-position="normal" font-variant-caps="normal" font-variant-numeric="normal" font-variant-alternates="normal" font-feature-settings="normal" text-indent="0" text-align="start" text-decoration-line="none" text-decoration-style="solid" text-decoration-color="#000000" text-transform="none" text-orientation="mixed" white-space="normal" shape-padding="0" isolation="auto" mix-blend-mode="normal" solid-color="#000000" solid-opacity="1" vector-effect="none"/><path id="rect3527" d="m.792909 7.9375c-.145313.000581-.262969.118236-.26355.263549.000002 2.558369-.000001 4.985357 0 7.543725.000582.145313.118237.262969.26355.26355h1.05885c.14612.000555.265033-.11743.265617-.26355v-6.219774h3.96875c.146119-.000582.264107-.119497.26355-.265616v-1.058335c-.000583-.145313-.118237-.262968-.26355-.263549z" fill="#f95" font-variant-ligatures="normal" font-variant-position="normal" font-variant-caps="normal" font-variant-numeric="normal" font-variant-alternates="normal" font-feature-settings="normal" text-indent="0" text-align="start" text-decoration-line="none" text-decoration-style="solid" text-decoration-color="#000000" text-transform="none" text-orientation="mixed" white-space="normal" shape-padding="0" isolation="auto" mix-blend-mode="normal" solid-color="#000000" solid-opacity="1" vector-effect="none"/><path id="path1022" d="m.792651 7.9375c-.145313.000581-.262968.118237-.263549.26355.000002 2.558368-.000001 4.985357 0 7.543725.000582.145313.118236.262969.263549.26355h1.058851c.146119.000556.265032-.11743.265616-.26355v-.265617h-.7953c-.145313-.000581-.262968-.118236-.26355-.26355 0-2.468287.000002-4.818432 0-7.278108z" fill="#ff8a3c" font-variant-ligatures="normal" font-variant-position="normal" font-variant-caps="normal" font-variant-numeric="normal" font-variant-alternates="normal" font-feature-settings="normal" text-indent="0" text-align="start" text-decoration-line="none" text-decoration-style="solid" text-decoration-color="#000000" text-transform="none" text-orientation="mixed" white-space="normal" shape-padding="0" isolation="auto" mix-blend-mode="normal" solid-color="#000000" solid-opacity="1" vector-effect="none"/><path id="path3788" d="m2.116602 8.995834v.529166h3.969266c.14612-.000582.264107-.119497.26355-.265616v-.26355z" fill="#ff8a3c" font-variant-ligatures="normal" font-variant-position="normal" font-variant-caps="normal" font-variant-numeric="normal" font-variant-alternates="normal" font-feature-settings="normal" text-indent="0" text-align="start" text-decoration-line="none" text-decoration-style="solid" text-decoration-color="#000000" text-transform="none" text-orientation="mixed" white-space="normal" shape-padding="0" isolation="auto" mix-blend-mode="normal" solid-color="#000000" solid-opacity="1" vector-effect="none"/><path id="path3846" d="m12.698901 6.8771c-.288582 0-.529166.240584-.529166.529166v.529167c0 .288581.240584.529167.529166.529167h1.588017c.288582 0 .529167-.240586.529167-.529167v-.529167h-1.588017c-.288582 0-.529167-.240585-.529167-.529166z" fill="#7cc3ff" font-variant-ligatures="normal" font-variant-position="normal" font-variant-caps="normal" font-variant-numeric="normal" font-variant-alternates="normal" font-feature-settings="normal" text-indent="0" text-align="start" text-decoration-line="none" text-decoration-style="solid" text-decoration-color="#000000" text-transform="none" text-orientation="mixed" white-space="normal" shape-padding="0" isolation="auto" mix-blend-mode="normal" solid-color="#000000" solid-opacity="1" vector-effect="none"/><path id="path3531" d="m10.318168 7.9375a.26460979.26460979 0 0 0 -.26355.26355v1.05885a.26460979.26460979 0 0 0 .26355.265617h5.820317a.26460979.26460979 0 0 0 .265616-.265617v-1.05885a.26460979.26460979 0 0 0 -.265616-.26355z" fill="#f95" font-variant-ligatures="normal" font-variant-position="normal" font-variant-caps="normal" font-variant-numeric="normal" font-variant-alternates="normal" font-feature-settings="normal" text-indent="0" text-align="start" text-decoration-line="none" text-decoration-style="solid" text-decoration-color="#000000" text-transform="none" text-orientation="mixed" white-space="normal" shape-padding="0" isolation="auto" mix-blend-mode="normal" solid-color="#000000" solid-opacity="1" vector-effect="none"/><path id="rect3533" d="m7.01346 3.570325c-.363082 0-.664042.298892-.664042.661975v.660425c0 .363082.30096.664042.664042.664042h2.377116c.363083 0 .664042-.30096.664042-.664042v-.660425c0-.363083-.300959-.661975-.664042-.661975z" fill="#0e4b7f" font-variant-ligatures="normal" font-variant-position="normal" font-variant-caps="normal" font-variant-numeric="normal" font-variant-alternates="normal" font-feature-settings="normal" text-indent="0" text-align="start" text-decoration-line="none" text-decoration-style="solid" text-decoration-color="#000000" text-transform="none" text-orientation="mixed" white-space="normal" shape-padding="0" isolation="auto" mix-blend-mode="normal" solid-color="#000000" solid-opacity="1" vector-effect="none"/><path id="path3793" d="m10.318168 7.9375a.26460979.26460979 0 0 0 -.26355.26355v1.05885a.26460979.26460979 0 0 0 .26355.265617h5.820317a.26460979.26460979 0 0 0 .265616-.265617v-.26355h-5.0276a.26460979.26460979 0 0 1 -.263549-.265617v-.793233z" fill="#ff8a3c" font-variant-ligatures="normal" font-variant-position="normal" font-variant-caps="normal" font-variant-numeric="normal" font-variant-alternates="normal" font-feature-settings="normal" text-indent="0" text-align="start" text-decoration-line="none" text-decoration-style="solid" text-decoration-color="#000000" text-transform="none" text-orientation="mixed" white-space="normal" shape-padding="0" isolation="auto" mix-blend-mode="normal" solid-color="#000000" solid-opacity="1" vector-effect="none"/><path id="rect3539" d="m6.878585 6.083866c-.58174 0-1.058333.475043-1.058333 1.056783v2.911967c0 .58174.476593 1.056783 1.058333 1.056783h2.646867c.58174 0 1.058333-.475043 1.058333-1.056783v-2.911967c0-.58174-.476593-1.056783-1.058333-1.056783z" fill="#67afed" font-variant-ligatures="normal" font-variant-position="normal" font-variant-caps="normal" font-variant-numeric="normal" font-variant-alternates="normal" font-feature-settings="normal" text-indent="0" text-align="start" text-decoration-line="none" text-decoration-style="solid" text-decoration-color="#000000" text-transform="none" text-orientation="mixed" white-space="normal" shape-padding="0" isolation="auto" mix-blend-mode="normal" solid-color="#000000" solid-opacity="1" vector-effect="none"/><g fill="#0e4b7f"><path id="path3541" d="m7.937435 12.698966v1.3224h-1.588017a.26460979.26460979 0 0 0 -.02532 0 .26460979.26460979 0 0 0 -.238229.26355v.793233h.529167v-.527616h1.322399v.527616h.529167v-.527616h1.322399v.527616h.529167v-.793233a.26460979.26460979 0 0 0 -.26355-.26355h-1.588016v-1.3224z" font-variant-ligatures="normal" font-variant-position="normal" font-variant-caps="normal" font-variant-numeric="normal" font-variant-alternates="normal" font-feature-settings="normal" text-indent="0" text-align="start" text-decoration-line="none" text-decoration-style="solid" text-decoration-color="#000000" text-transform="none" text-orientation="mixed" white-space="normal" shape-padding="0" isolation="auto" mix-blend-mode="normal" solid-color="#000000" solid-opacity="1" vector-effect="none"/><path id="path3810" d="m6.349418 14.81615c-.435242 0-.792716.360058-.792716.7953-.000001.435242.357474.792716.792716.792716s.795301-.357474.7953-.792716c0-.435242-.360058-.7953-.7953-.7953z" font-variant-ligatures="normal" font-variant-position="normal" font-variant-caps="normal" font-variant-numeric="normal" font-variant-alternates="normal" font-feature-settings="normal" text-indent="0" text-align="start" text-decoration-line="none" text-decoration-style="solid" text-decoration-color="#000000" text-transform="none" text-orientation="mixed" white-space="normal" shape-padding="0" isolation="auto" mix-blend-mode="normal" solid-color="#000000" solid-opacity="1" vector-effect="none"/><path id="path3808" d="m8.200985 14.81615c-.435242 0-.792716.360058-.792717.7953 0 .435242.357474.792716.792717.792716.435242 0 .7953-.357474.7953-.792716-.000001-.435242-.360059-.7953-.7953-.7953z" font-variant-ligatures="normal" font-variant-position="normal" font-variant-caps="normal" font-variant-numeric="normal" font-variant-alternates="normal" font-feature-settings="normal" text-indent="0" text-align="start" text-decoration-line="none" text-decoration-style="solid" text-decoration-color="#000000" text-transform="none" text-orientation="mixed" white-space="normal" shape-padding="0" isolation="auto" mix-blend-mode="normal" solid-color="#000000" solid-opacity="1" vector-effect="none"/><path id="circle3545" d="m10.054618 14.81615c-.435242 0-.794783.360058-.794783.7953 0 .435243.359541.792716.794783.792716.435241-.000001.792718-.357474.792717-.792716 0-.435241-.357476-.795299-.792717-.7953z" font-variant-ligatures="normal" font-variant-position="normal" font-variant-caps="normal" font-variant-numeric="normal" font-variant-alternates="normal" font-feature-settings="normal" text-indent="0" text-align="start" text-decoration-line="none" text-decoration-style="solid" text-decoration-color="#000000" text-transform="none" text-orientation="mixed" white-space="normal" shape-padding="0" isolation="auto" mix-blend-mode="normal" solid-color="#000000" solid-opacity="1" vector-effect="none"/></g><path id="rect3551" d="m6.349418 11.638566c-.435161 0-.792716.359622-.792716.794784 0 .435161.357555.793233.792716.793233h3.7052c.435161 0 .792717-.358073.792717-.793233 0-.435162-.357556-.794784-.792717-.794784z" fill="#67afed" font-variant-ligatures="normal" font-variant-position="normal" font-variant-caps="normal" font-variant-numeric="normal" font-variant-alternates="normal" font-feature-settings="normal" text-indent="0" text-align="start" text-decoration-line="none" text-decoration-style="solid" text-decoration-color="#000000" text-transform="none" text-orientation="mixed" white-space="normal" shape-padding="0" isolation="auto" mix-blend-mode="normal" solid-color="#000000" solid-opacity="1" vector-effect="none"/><path id="path3555" d="m11.376888 11.376953v.529297h5.027344v-.529297z" fill="#f95" font-variant-ligatures="normal" font-variant-position="normal" font-variant-caps="normal" font-variant-numeric="normal" font-variant-alternates="normal" font-feature-settings="normal" text-indent="0" text-align="start" text-decoration-line="none" text-decoration-style="solid" text-decoration-color="#000000" text-transform="none" text-orientation="mixed" white-space="normal" shape-padding="0" isolation="auto" mix-blend-mode="normal" solid-color="#000000" solid-opacity="1" vector-effect="none"/><path id="path3557" d="m11.376888 13.759766v.529296h5.027344v-.529296z" fill="#f95" font-variant-ligatures="normal" font-variant-position="normal" font-variant-caps="normal" font-variant-numeric="normal" font-variant-alternates="normal" font-feature-settings="normal" text-indent="0" text-align="start" text-decoration-line="none" text-decoration-style="solid" text-decoration-color="#000000" text-transform="none" text-orientation="mixed" white-space="normal" shape-padding="0" isolation="auto" mix-blend-mode="normal" solid-color="#000000" solid-opacity="1" vector-effect="none"/><path id="path3563" d="m13.494076 9.789062a.2646485.2646485 0 1 0 0 .529297h.792968a.2646485.2646485 0 1 0 0-.529297z" fill="#f95" font-variant-ligatures="normal" font-variant-position="normal" font-variant-caps="normal" font-variant-numeric="normal" font-variant-alternates="normal" font-feature-settings="normal" text-indent="0" text-align="start" text-decoration-line="none" text-decoration-style="solid" text-decoration-color="#000000" text-transform="none" text-orientation="mixed" white-space="normal" shape-padding="0" isolation="auto" mix-blend-mode="normal" solid-color="#000000" solid-opacity="1" vector-effect="none"/><path id="path3565" d="m7.408268 8.466667c-.352864 0-.352864.529166 0 .529166h.529167v3.175c.0077.345037.521511.345037.529167 0v-3.175h.529166c.352865 0 .352865-.529166 0-.529166z" fill="#0e4b7f" font-variant-ligatures="normal" font-variant-position="normal" font-variant-caps="normal" font-variant-numeric="normal" font-variant-alternates="normal" font-feature-settings="normal" text-indent="0" text-align="start" text-decoration-line="none" text-decoration-style="solid" text-decoration-color="#000000" text-transform="none" text-orientation="mixed" white-space="normal" shape-padding="0" isolation="auto" mix-blend-mode="normal" solid-color="#000000" solid-opacity="1" vector-effect="none"/><path id="path3569" d="m1.322335 2.380733c-.435161 0-.793233.36014-.793233.7953v2.644284c0 .435161.358072.794783.793233.794783h3.7052c.43516 0 .792717-.359622.792717-.794783v-2.644284c0-.435161-.357557-.7953-.792717-.7953z" fill="#e1f1ff" font-variant-ligatures="normal" font-variant-position="normal" font-variant-caps="normal" font-variant-numeric="normal" font-variant-alternates="normal" font-feature-settings="normal" text-indent="0" text-align="start" text-decoration-line="none" text-decoration-style="solid" text-decoration-color="#000000" text-transform="none" text-orientation="mixed" white-space="normal" shape-padding="0" isolation="auto" mix-blend-mode="normal" solid-color="#000000" solid-opacity="1" vector-effect="none"/><path id="path3583" d="m11.499907 3.00501-.187089.187089c-.207294.207294-.54106.207295-.748354.000001-.207294-.207295-.207295-.541061 0-.748356l.187088-.187088" fill="#96d0ff"/><path id="path3581" d="m10.187435 1.427734a.26460978.26460978 0 0 0 -.183594.455078l1.871094 1.871094a.26460978.26460978 0 1 0 .373047-.375l-1.871094-1.871094a.26460978.26460978 0 0 0 -.189453-.080078z" fill="#0e4b7f" font-variant-ligatures="normal" font-variant-position="normal" font-variant-caps="normal" font-variant-numeric="normal" font-variant-alternates="normal" font-feature-settings="normal" text-indent="0" text-align="start" text-decoration-line="none" text-decoration-style="solid" text-decoration-color="#000000" text-transform="none" text-orientation="mixed" white-space="normal" shape-padding="0" isolation="auto" mix-blend-mode="normal" solid-color="#000000" solid-opacity="1" vector-effect="none"/><path id="path3651" d="m13.494076 12.170703a.2646485.2646485 0 1 0 0 .529297h.792968a.2646485.2646485 0 1 0 0-.529297z" fill="#f95" font-variant-ligatures="normal" font-variant-position="normal" font-variant-caps="normal" font-variant-numeric="normal" font-variant-alternates="normal" font-feature-settings="normal" text-indent="0" text-align="start" text-decoration-line="none" text-decoration-style="solid" text-decoration-color="#000000" text-transform="none" text-orientation="mixed" white-space="normal" shape-padding="0" isolation="auto" mix-blend-mode="normal" solid-color="#000000" solid-opacity="1" vector-effect="none"/><path id="path3653" d="m13.494076 14.551953a.2646485.2646485 0 1 0 0 .529297h.792968a.2646485.2646485 0 1 0 0-.529297z" fill="#f95" font-variant-ligatures="normal" font-variant-position="normal" font-variant-caps="normal" font-variant-numeric="normal" font-variant-alternates="normal" font-feature-settings="normal" text-indent="0" text-align="start" text-decoration-line="none" text-decoration-style="solid" text-decoration-color="#000000" text-transform="none" text-orientation="mixed" white-space="normal" shape-padding="0" isolation="auto" mix-blend-mode="normal" solid-color="#000000" solid-opacity="1" vector-effect="none"/><path id="path3695" d="m8.995834 5.291667c0-.352866-.529298-.352866-.529298 0v1.058333c0 .352865.529298.352865.529298 0z" fill="#0e4b7f" font-variant-ligatures="normal" font-variant-position="normal" font-variant-caps="normal" font-variant-numeric="normal" font-variant-alternates="normal" font-feature-settings="normal" text-indent="0" text-align="start" text-decoration-line="none" text-decoration-style="solid" text-decoration-color="#000000" text-transform="none" text-orientation="mixed" white-space="normal" shape-padding="0" isolation="auto" mix-blend-mode="normal" solid-color="#000000" solid-opacity="1" vector-effect="none"/><path id="path3697" d="m7.9375 5.291667c0-.352866-.529298-.352866-.529298 0v1.058333c0 .352865.529298.352865.529298 0z" fill="#0e4b7f" font-variant-ligatures="normal" font-variant-position="normal" font-variant-caps="normal" font-variant-numeric="normal" font-variant-alternates="normal" font-feature-settings="normal" text-indent="0" text-align="start" text-decoration-line="none" text-decoration-style="solid" text-decoration-color="#000000" text-transform="none" text-orientation="mixed" white-space="normal" shape-padding="0" isolation="auto" mix-blend-mode="normal" solid-color="#000000" solid-opacity="1" vector-effect="none"/><path id="path3701" d="m6.890987 3.582727c-.305749.05821-.541569.328344-.541569.649573v.660425c0 .363082.30096.664042.664042.664042h2.377116c.321229 0 .593061-.23582.65164-.541569-.03984.0076-.08062.0124-.122473.0124h-2.377116c-.363082 0-.664042-.30096-.664042-.664042v-.660425c-.00144-.042343.00268-.082054.012402-.120404z" fill="#0d3f6c" font-variant-ligatures="normal" font-variant-position="normal" font-variant-caps="normal" font-variant-numeric="normal" font-variant-alternates="normal" font-feature-settings="normal" text-indent="0" text-align="start" text-decoration-line="none" text-decoration-style="solid" text-decoration-color="#000000" text-transform="none" text-orientation="mixed" white-space="normal" shape-padding="0" isolation="auto" mix-blend-mode="normal" solid-color="#000000" solid-opacity="1" vector-effect="none"/><path id="path3706" d="m5.820252 7.140649v2.911967c0 .58174.476593 1.056783 1.058333 1.056783h2.646867c.427512 0 .796209-.257857.962732-.624768-.132802.06021-.278927.0956-.433566.0956h-2.646866c-.58174 0-1.058334-.475043-1.058334-1.056783v-2.911967c0-.154228.03553-.29965.095601-.432014-.366791.16631-.624767.53408-.624767.961182z" fill="#51a3ea" font-variant-ligatures="normal" font-variant-position="normal" font-variant-caps="normal" font-variant-numeric="normal" font-variant-alternates="normal" font-feature-settings="normal" text-indent="0" text-align="start" text-decoration-line="none" text-decoration-style="solid" text-decoration-color="#000000" text-transform="none" text-orientation="mixed" white-space="normal" shape-padding="0" isolation="auto" mix-blend-mode="normal" solid-color="#000000" solid-opacity="1" vector-effect="none"/><path id="path3709" d="m7.937435 10.580233v.529166h.529167v-.529166z" fill="#0d3f6c" font-variant-ligatures="normal" font-variant-position="normal" font-variant-caps="normal" font-variant-numeric="normal" font-variant-alternates="normal" font-feature-settings="normal" text-indent="0" text-align="start" text-decoration-line="none" text-decoration-style="solid" text-decoration-color="#000000" text-transform="none" text-orientation="mixed" white-space="normal" shape-padding="0" isolation="auto" mix-blend-mode="normal" solid-color="#000000" solid-opacity="1" vector-effect="none"/><path id="path3717" d="m5.556702 12.43335c0 .435161.357555.793233.792716.793233h3.7052c.355942 0 .660398-.241007.759293-.566374-.07225.02195-.151079.03721-.230126.03721h-3.7052c-.435162 0-.792717-.358072-.792717-.793233 0-.07954.01554-.159559.037722-.232316-.325721.09909-.566888.405192-.566888.76148z" fill="#51a3ea" font-variant-ligatures="normal" font-variant-position="normal" font-variant-caps="normal" font-variant-numeric="normal" font-variant-alternates="normal" font-feature-settings="normal" text-indent="0" text-align="start" text-decoration-line="none" text-decoration-style="solid" text-decoration-color="#000000" text-transform="none" text-orientation="mixed" white-space="normal" shape-padding="0" isolation="auto" mix-blend-mode="normal" solid-color="#000000" solid-opacity="1" vector-effect="none"/><path id="path3836" d="m.529102 3.176033v2.644284c0 .435161.358072.794783.793233.794783h3.7052c.355622 0 .655819-.241591.754993-.56689-.07211.02194-.146952.03772-.225826.03772h-3.7052c-.435161 0-.793234-.359622-.793234-.794783v-2.644283c0-.07971.01542-.1597175.037722-.23264-.325606.0993715-.566888.405696-.566888.761809z" fill="#cee9fe" font-variant-ligatures="normal" font-variant-position="normal" font-variant-caps="normal" font-variant-numeric="normal" font-variant-alternates="normal" font-feature-settings="normal" text-indent="0" text-align="start" text-decoration-line="none" text-decoration-style="solid" text-decoration-color="#000000" text-transform="none" text-orientation="mixed" white-space="normal" shape-padding="0" isolation="auto" mix-blend-mode="normal" solid-color="#000000" solid-opacity="1" vector-effect="none"/><path id="path3763" d="m.529102 5.820833c.000288.434926.358247.794267.793233.794267h3.7052c.434986 0 .792429-.35934.792717-.794267z" fill="#96d0ff" font-variant-ligatures="normal" font-variant-position="normal" font-variant-caps="normal" font-variant-numeric="normal" font-variant-alternates="normal" font-feature-settings="normal" text-indent="0" text-align="start" text-decoration-line="none" text-decoration-style="solid" text-decoration-color="#000000" text-transform="none" text-orientation="mixed" white-space="normal" shape-padding="0" isolation="auto" mix-blend-mode="normal" solid-color="#000000" solid-opacity="1" vector-effect="none"/><path id="rect3801" d="m11.377018 13.758333h.529166v.529167h-.529166z" fill="#ff8a3c"/><path id="path3804" d="m11.377018 11.377083h.529166v.529167h-.529166z" fill="#ff8a3c"/><path id="path3814" d="m6.123592 14.853357c-.325823.09915-.56689.401686-.56689.758093-.000001.435242.357474.792716.792716.792716.356408 0 .658938-.241066.758093-.56689-.07307.02236-.149029.03772-.228926.03772-.435242 0-.792717-.357475-.792717-.792717 0-.0799.01536-.155858.03772-.228926z" fill="#0d3f6c" font-variant-ligatures="normal" font-variant-position="normal" font-variant-caps="normal" font-variant-numeric="normal" font-variant-alternates="normal" font-feature-settings="normal" text-indent="0" text-align="start" text-decoration-line="none" text-decoration-style="solid" text-decoration-color="#000000" text-transform="none" text-orientation="mixed" white-space="normal" shape-padding="0" isolation="auto" mix-blend-mode="normal" solid-color="#000000" solid-opacity="1" vector-effect="none"/><path id="path3817" d="m7.975159 14.853357c-.325824.09915-.56689.401686-.566891.758093 0 .435242.357474.792716.792717.792716.356407 0 .658938-.241066.758093-.56689-.07307.02236-.149029.03772-.228927.03772-.435242 0-.792716-.357475-.792716-.792717 0-.0799.01536-.155858.03772-.228926z" fill="#0d3f6c" font-variant-ligatures="normal" font-variant-position="normal" font-variant-caps="normal" font-variant-numeric="normal" font-variant-alternates="normal" font-feature-settings="normal" text-indent="0" text-align="start" text-decoration-line="none" text-decoration-style="solid" text-decoration-color="#000000" text-transform="none" text-orientation="mixed" white-space="normal" shape-padding="0" isolation="auto" mix-blend-mode="normal" solid-color="#000000" solid-opacity="1" vector-effect="none"/><path id="path3819" d="m9.827242 14.853357c-.325824.09915-.56689.401686-.566891.758093 0 .435242.357475.792716.792717.792716.356408 0 .658938-.241066.758093-.56689-.07307.02236-.149029.03772-.228926.03772-.435243 0-.792717-.357475-.792717-.792717 0-.0799.01536-.155858.03772-.228926z" fill="#0d3f6c" font-variant-ligatures="normal" font-variant-position="normal" font-variant-caps="normal" font-variant-numeric="normal" font-variant-alternates="normal" font-feature-settings="normal" text-indent="0" text-align="start" text-decoration-line="none" text-decoration-style="solid" text-decoration-color="#000000" text-transform="none" text-orientation="mixed" white-space="normal" shape-padding="0" isolation="auto" mix-blend-mode="normal" solid-color="#000000" solid-opacity="1" vector-effect="none"/><path id="path3839" d="m.529102 5.820833c.000003.0055.0014.01058.0015.01602.0033.156924.05185.303709.134876.42633.05726.08464.129999.157532.214457.214974.0002.000137.000315.000371.000516.000529.126572.08592.278896.136426.441833.136426h3.705201c.0505 0 .09983-.0063.147795-.0155.01491-.0029.02932-.0076.04392-.01137.03049-.0078.06039-.01668.0894-.02791.01994-.0078.03927-.01647.05839-.02584.0208-.01007.04069-.02128.06046-.03307.02178-.01315.04371-.0262.06408-.04134.01323-.0097.02512-.02102.03772-.03152.116631-.09841.206114-.228526.252181-.377755.000265-.000899.000767-.0017.001-.0026-.07211.02194-.146952.03772-.225826.03772h-3.705198c-.23184-.000004-.439391-.103912-.584978-.265104z" fill="#7cc3ff" font-variant-ligatures="normal" font-variant-position="normal" font-variant-caps="normal" font-variant-numeric="normal" font-variant-alternates="normal" font-feature-settings="normal" text-indent="0" text-align="start" text-decoration-line="none" text-decoration-style="solid" text-decoration-color="#000000" text-transform="none" text-orientation="mixed" white-space="normal" shape-padding="0" isolation="auto" mix-blend-mode="normal" solid-color="#000000" solid-opacity="1" vector-effect="none"/><path id="circle3851" d="m14.153076 4.233333c.000065.5125536.415555.9280442.928109.928109.382393-.0004296.725392-.2353181.86403-.591695-.106808.041322-.220341.062523-.334864.06253-.512553-.0000653-.928043-.4155552-.928108-.928108.00031-.1151418.02204-.229221.06408-.336415-.357514.1383423-.593207.4822315-.593246.865579z" fill="#0d3f6c"/></g></svg>