<svg viewBox="0 0 512 512" xmlns="http://www.w3.org/2000/svg"><g><path d="M272.976 512h-33.951a8 8 0 0 1-8-8V333.008h49.951V504a8 8 0 0 1-8 8z" fill="#8d9ca8"></path><path d="M231.024 385.632c8.193.974 16.525 1.49 24.976 1.49s16.783-.516 24.976-1.49v-52.624h-49.951v52.624z" fill="#7a8c98"></path><circle cx="256" cy="176.911" fill="#bbec6c" r="176.911"></circle><path d="M364.507 37.184c23.301 29.962 37.184 67.611 37.184 108.507 0 97.705-79.206 176.911-176.911 176.911-40.896 0-78.545-13.883-108.507-37.184 32.368 41.621 82.917 68.404 139.727 68.404 97.705 0 176.911-79.206 176.911-176.911 0-56.81-26.783-107.359-68.404-139.727z" fill="#a2e62e"></path><circle cx="256" cy="176.911" fill="#8bc727" r="145.691"></circle><path d="m317.01 110.684-88.302 88.302-33.719-33.719c-8.128-8.128-21.306-8.128-29.434 0s-8.128 21.306 0 29.434l48.436 48.436c8.128 8.128 21.306 8.128 29.434 0l103.019-103.019c8.128-8.128 8.128-21.306 0-29.434s-21.306-8.128-29.434 0z" fill="#fdf6ec"></path></g></svg>