<svg id="Flat" height="512" viewBox="0 0 512 512" width="512" xmlns="http://www.w3.org/2000/svg"><path d="m319.934 193.458 6.063-101.011-55.756-84.447 225.759 38.894z" fill="#fbe9d8"/><rect fill="#ffb632" height="208" rx="32" width="272" x="160" y="296"/><path d="m432 328v9.53l-114.27 73.94a40.09 40.09 0 0 1 -43.46 0l-114.27-73.94v-9.53a31.906 31.906 0 0 1 .99-7.93 7.765 7.765 0 0 1 3.36 1.21l118.61 76.76a24.061 24.061 0 0 0 26.08 0l118.61-76.76a7.765 7.765 0 0 1 3.36-1.21 31.906 31.906 0 0 1 .99 7.93z" fill="#e09f2c"/><path d="m120 416a112.6 112.6 0 0 1 -24.554-2.7 8 8 0 1 1 3.494-15.613 96.616 96.616 0 0 0 21.06 2.313 8 8 0 0 1 0 16zm-52.467-14.18a7.969 7.969 0 0 1 -4.034-1.1 112.626 112.626 0 0 1 -19.821-14.75 8 8 0 1 1 10.905-11.708 96.536 96.536 0 0 0 17 12.653 8 8 0 0 1 -4.049 14.9zm-38.133-38.72a8 8 0 0 1 -6.972-4.065 111.556 111.556 0 0 1 -9.7-22.739 8 8 0 1 1 15.322-4.607 95.5 95.5 0 0 0 8.311 19.473 8 8 0 0 1 -6.961 11.938zm-13.385-52.67h-.126a8 8 0 0 1 -7.876-8.122 109.447 109.447 0 0 1 3.164-24.437 8 8 0 0 1 15.536 3.824 93.418 93.418 0 0 0 -2.7 20.859 8 8 0 0 1 -7.998 7.876zm14.917-52.108a8 8 0 0 1 -6.932-11.981 155.234 155.234 0 0 1 13.707-19.947 8 8 0 1 1 12.467 10.027 139.463 139.463 0 0 0 -12.3 17.881 8 8 0 0 1 -6.942 4.02zm35.1-42.025a8 8 0 0 1 -5.348-13.952c5.636-5.062 11.805-10.12 18.335-15.034a8 8 0 0 1 9.62 12.785c-6.162 4.636-11.97 9.4-17.264 14.153a7.972 7.972 0 0 1 -5.341 2.051zm44.3-32.579a8 8 0 0 1 -4.2-14.813c6.437-3.965 13.269-7.92 20.3-11.757a8 8 0 0 1 7.668 14.052c-6.79 3.7-13.375 7.515-19.573 11.332a7.96 7.96 0 0 1 -4.192 1.186zm48.542-25.994a8 8 0 0 1 -3.4-15.245c6.873-3.223 14.046-6.424 21.319-9.514a8 8 0 1 1 6.255 14.726c-7.093 3.013-14.085 6.133-20.78 9.274a7.985 7.985 0 0 1 -3.391.759zm50.838-21.246a8 8 0 0 1 -2.794-15.5c7.19-2.678 14.575-5.3 21.95-7.806a8 8 0 1 1 5.139 15.152c-7.226 2.451-14.461 5.025-21.5 7.648a8 8 0 0 1 -2.792.506zm52.327-17.423a8 8 0 0 1 -2.255-15.677c10.133-2.982 17.874-5.032 22.584-6.227a8 8 0 1 1 3.934 15.508c-4.576 1.161-12.108 3.156-22 6.069a8.032 8.032 0 0 1 -2.26.327z" fill="#9aa3a8"/><path d="m405.34 79.47-79.84 21.36.5-8.38-4.67-7.07 79.87-21.37a8 8 0 0 1 4.14 15.46z" fill="#e3d3c2"/></svg>