<svg viewBox="0 0 512 512" xmlns="http://www.w3.org/2000/svg"><g><path d="M10 322h80v160H10z" fill="#98ca69"></path><path d="M110 202h80v280h-80z" fill="#ffe352"></path><path d="M210 242h80v240h-80z" fill="#ffb0aa"></path><path d="M310 402h80v80h-80z" fill="#80d6fb"></path><path d="M10 482h492v20H10z" fill="#6e83b7"></path><path d="M93 10v83h83c0-45.84-37.16-83-83-83z" fill="#ffb0aa"></path><path d="m93 93 58.69 58.69C166.71 136.67 176 115.92 176 93z" fill="#ffe352"></path><path d="M200 10h34v34h-34z" fill="#80d6fb"></path><path d="M254 24h140v20H254zM254 68h140v20H254zM254 112h140v20H254zM254 156h140v20H254z" fill="#6e83b7"></path><path d="M200 142h34v34h-34z" fill="#98ca69"></path><path d="M200 98h34v34h-34z" fill="#ffe352"></path><path d="M200 54h34v34h-34z" fill="#ffb0aa"></path><path d="M34.31 151.69C49.33 166.71 70.08 176 93 176s43.67-9.29 58.69-24.31L93 93z" fill="#98ca69"></path><path d="M34.31 151.69 93 93V10c-45.84 0-83 37.16-83 83 0 22.92 9.29 43.67 24.31 58.69z" fill="#80d6fb"></path><path d="m381.925 338.006 19.996-19.996 11.999 11.998-19.997 19.997z" fill="#466089"></path><path d="m389.92 354.011 27.996-27.996 83.988 83.988-27.996 27.996z" fill="#6e83b7"></path><circle cx="330" cy="266" fill="#6e83b7" r="90"></circle><circle cx="330" cy="266" fill="#80d6fb" r="70"></circle></g></svg>