<svg viewBox="0 0 512 512" xmlns="http://www.w3.org/2000/svg"><g><path d="M104 32v480h304V32H104zm136 456H128V296h112v192zm0-240H128V56h112v192zm144 240H272V296h112v192zm0-240H272V56h112v192z" fill="#af6328"></path><path d="M368 232V72l16-16v192H272l16-16z" fill="#7f4122"></path><path d="M304 88v128l-16 16h80V72l-16 16z" fill="#a25425"></path><path d="M288 72h80l16-16H272v192l16-16zM160 88v128l-16 16h80V72l-16 16z" fill="#a25425"></path><path d="M144 72h80l16-16H128v192l16-16z" fill="#a25425"></path><path d="M304 88v128l-16 16V72h80l-16 16z" fill="#af6328"></path><path d="M224 232V72l16-16v192H128l16-16z" fill="#7f4122"></path><path d="M160 88v128l-16 16V72h80l-16 16z" fill="#af6328"></path><path d="M160 328v128l-16 16h80V312l-16 16z" fill="#a25425"></path><path d="M144 312h80l16-16H128v192l16-16z" fill="#a25425"></path><path d="M224 472V312l16-16v192H128l16-16z" fill="#7f4122"></path><path d="M160 328v128l-16 16V312h80l-16 16z" fill="#af6328"></path><path d="M304 328v128l-16 16h80V312l-16 16z" fill="#a25425"></path><path d="M288 312h80l16-16H272v192l16-16z" fill="#a25425"></path><path d="M368 472V312l16-16v192H272l16-16z" fill="#7f4122"></path><path d="M304 328v128l-16 16V312h80l-16 16z" fill="#af6328"></path><path d="M376 264h-48a8 8 0 0 0 0 16h40a8 8 0 0 0 16 0v-8a8 8 0 0 0-8-8z" fill="#f6b74e"></path><path d="M368 280h-40l8 8h40a8 8 0 0 1-8-8z" fill="#7f4122"></path><path d="M440 488h64v24h-64zM8 488h64v24H8z" fill="#d0d7da"></path><path d="M440 472h64v16h-64zM8 472h64v16H8z" fill="#e2e4e6"></path><path d="M72 0v512h32V32h304v480h32V0z" fill="#a25425"></path></g></svg>