<svg viewBox="0 0 512 512" xmlns="http://www.w3.org/2000/svg"><g><path d="M341.848 52.966a117.252 117.252 0 0 0-46.168 9.472 100.667 100.667 0 0 1-79.36 0 117.252 117.252 0 0 0-46.168-9.472c-64.715-.009-117.177 52.454-117.186 117.169v.018a268.578 268.578 0 0 0 40.819 142.345l3.319 5.297 38.444 169.154c3.328 14.652 16.357 25.051 31.39 25.051 15.748.009 29.193-11.37 31.779-26.898L225.2 326.258c2.507-15.06 15.528-26.103 30.799-26.121 15.281 0 28.319 11.043 30.835 26.121l26.483 158.844c2.586 15.519 16.013 26.889 31.744 26.898 15.033 0 28.063-10.399 31.391-25.053l38.444-169.154 3.319-5.297a268.575 268.575 0 0 0 40.819-142.345c.009-64.715-52.454-117.177-117.169-117.186l-.017.001z" fill="#e6e6e6"></path><path d="M371.818 56.982C319.832 233.666 179.2 313.556 103.23 344.753l32.318 142.186c3.946 17.337 21.204 28.186 38.541 24.241a32.182 32.182 0 0 0 24.602-26.077l26.483-158.844c2.834-17.028 18.935-28.54 35.964-25.706a31.256 31.256 0 0 1 25.706 25.706l26.483 158.844c2.931 17.54 19.527 29.378 37.067 26.439a32.186 32.186 0 0 0 26.077-24.602l38.426-169.145 3.319-5.297a268.575 268.575 0 0 0 40.819-142.345c-.036-53.143-35.841-99.603-87.217-113.171z" fill="#dedede"></path><path d="M35.31 70.621C32.291 52.515 18.105 38.329 0 35.31 18.105 32.291 32.291 18.105 35.31 0c3.019 18.105 17.205 32.291 35.31 35.31-18.105 3.019-32.291 17.205-35.31 35.311z" fill="#f9bc61"></path><path d="M105.931 167.724H88.276c0-47.625 33.545-66.904 51.2-70.444l3.46 17.302-1.695-8.651 1.766 8.642c-1.501.327-37.076 8.386-37.076 53.151zM158.897 97.103h17.655v17.655h-17.655z" fill="#f2f2f2"></path><path d="M476.69 441.379c-3.019-18.105-17.205-32.291-35.31-35.31 18.105-3.019 32.291-17.205 35.31-35.31 3.019 18.105 17.205 32.291 35.31 35.31-18.105 3.019-32.291 17.205-35.31 35.31z" fill="#f9bc61"></path></g></svg>