<svg id="Icons" height="512" viewBox="0 0 60 60" width="512" xmlns="http://www.w3.org/2000/svg"><path d="m20.82 25.82-19.108 19.098a2.35 2.35 0 0 0 0 3.37 2.35 2.35 0 0 0 3.37 0l19.108-19.098z" fill="#a9725e"/><path d="m22.505 20.505-3.2 3.187a1.666 1.666 0 0 0 0 2.34l4.66 4.66a1.666 1.666 0 0 0 2.34 0l3.195-3.192z" fill="#925c4c"/><path d="m16.63 10.743h28.285v16.968h-28.285z" fill="#a9725e" transform="matrix(.707 .707 -.707 .707 22.608 -16.127)"/><rect fill="#925c4c" height="22.498" rx="3.291" transform="matrix(.707 .707 -.707 .707 13.299 -12.271)" width="6.583" x="18.171" y="-1.331"/><rect fill="#925c4c" height="22.498" rx="3.291" transform="matrix(.707 .707 -.707 .707 31.917 -19.984)" width="6.583" x="36.79" y="17.287"/><path d="m27.28 27.73 11.99-12-5-5-12 11.99z" fill="#fbb35a"/><path d="m32 49v-3a3 3 0 0 1 3-3h16a3 3 0 0 1 3 3v3z" fill="#ca957e"/><path d="m29 55v-5a2 2 0 0 1 2-2h24a2 2 0 0 1 2 2v5z" fill="#a9725e"/><rect fill="#925c4c" height="5" rx="1" width="58" x="1" y="54"/></svg>