<svg viewBox="0 0 496.513 496.513" xmlns="http://www.w3.org/2000/svg"><g><path d="M182.939 480.365a41.795 41.795 0 0 0 21.243 5.802H365.89c15.227 0 27.903-12.321 27.633-27.546-.177-10.005-5.79-18.678-14.008-23.209a1.89 1.89 0 0 1-.998-1.65v-.052c0-.866.595-1.624 1.441-1.81 12.139-2.667 21.225-13.481 21.225-26.421 0-7.921-3.404-15.045-8.828-19.994 10.901-4.206 18.639-14.776 18.639-27.161 0-9.761-4.809-18.393-12.182-23.674 10.282-5.141 17.347-15.763 17.347-28.041 0-17.308-14.031-31.339-31.339-31.339h-64.63c-4.575 0-7.616-4.733-5.716-8.894l7.671-16.794a74.72 74.72 0 0 0 6.754-31.042v-34.924c0-5.034-.985-10.02-2.899-14.676a32.152 32.152 0 0 0-29.737-19.926h-.066a22.133 22.133 0 0 0-20.36 13.454l-13.492 31.655-50.804 29.58-8.329 3.539a50.88 50.88 0 0 0-26.06 24.997L117.147 375.9v67.836z" fill="#ffe5c2"></path><path d="M368.386 447.483H206.677a41.785 41.785 0 0 1-21.243-5.802l-65.792-36.628v-34.296l-2.496 5.144v67.836l65.792 36.628a41.795 41.795 0 0 0 21.243 5.802h161.708c15.227 0 27.903-12.321 27.633-27.546a26.923 26.923 0 0 0-7.092-17.762 27.877 27.877 0 0 1-18.044 6.624z" fill="#fed2a4"></path><path d="M42.18 496.513h101.216c12.384 0 22.422-10.039 22.422-22.422V268.208c0-12.384-10.039-22.422-22.422-22.422H42.18c-7.511 0-13.6 6.089-13.6 13.6v223.526c0 7.512 6.089 13.601 13.6 13.601z" fill="#f37c7c"></path><path d="M143.397 245.786h-4.408v167.881c0 19.322-15.664 34.986-34.986 34.986H28.58v34.26c0 7.511 6.089 13.6 13.6 13.6h101.216c12.384 0 22.422-10.039 22.422-22.422V268.208c.001-12.383-10.038-22.422-22.421-22.422z" fill="#ee6161"></path><g fill="#fee45a"><path d="m320.414 108.428-23.416-12.17a7.72 7.72 0 0 0-7.185.034l-23.3 12.39c-5.65 3.004-12.292-1.774-11.24-8.086l4.339-26.031a7.722 7.722 0 0 0-2.252-6.823l-18.984-18.331c-4.603-4.445-2.111-12.238 4.217-13.188l26.097-3.918a7.72 7.72 0 0 0 5.793-4.251L286.05 4.336c2.805-5.751 10.987-5.79 13.846-.065l11.79 23.609a7.72 7.72 0 0 0 5.833 4.196l26.133 3.672c6.337.89 8.902 8.66 4.341 13.148l-18.81 18.509a7.721 7.721 0 0 0-2.188 6.844l4.583 25.989c1.111 6.301-5.486 11.141-11.164 8.19zM184.523 148.981l-18.692-9.715a6.164 6.164 0 0 0-5.735.027l-18.6 9.89c-4.51 2.398-9.812-1.416-8.972-6.454l3.463-20.779a6.163 6.163 0 0 0-1.798-5.446l-15.154-14.633c-3.674-3.548-1.685-9.769 3.366-10.528l20.832-3.127a6.162 6.162 0 0 0 4.624-3.393l9.234-18.934c2.239-4.591 8.77-4.622 11.053-.052l9.412 18.846a6.16 6.16 0 0 0 4.656 3.349l20.861 2.931c5.058.711 7.106 6.913 3.465 10.496l-15.016 14.775a6.164 6.164 0 0 0-1.747 5.463l3.659 20.746c.887 5.029-4.379 8.893-8.911 6.538zM400.556 148.981l18.692-9.715a6.164 6.164 0 0 1 5.735.027l18.6 9.89c4.51 2.398 9.812-1.416 8.972-6.454l-3.463-20.779a6.163 6.163 0 0 1 1.798-5.446l15.154-14.633c3.674-3.548 1.685-9.769-3.366-10.528l-20.832-3.127a6.162 6.162 0 0 1-4.624-3.393l-9.234-18.934c-2.239-4.591-8.77-4.622-11.053-.052l-9.412 18.846a6.16 6.16 0 0 1-4.656 3.349l-20.861 2.931c-5.058.711-7.106 6.913-3.465 10.496l15.016 14.775a6.164 6.164 0 0 1 1.747 5.463l-3.659 20.746c-.887 5.029 4.379 8.893 8.911 6.538z" fill="#fee45a"></path></g></g></svg>