<svg viewBox="0 0 512 512" xmlns="http://www.w3.org/2000/svg"><g><path d="M256 512a14.998 14.998 0 0 1-13.316-8.096l-16.422-31.671c-19.184-36.998-44.619-64.467-80.044-86.445-29.605-18.368-54.353-44.074-71.568-74.34C56.888 280.223 47.5 244.624 47.5 208.5 47.5 93.532 141.032 0 256 0s208.5 93.532 208.5 208.5c0 36.124-9.389 71.723-27.15 102.948-17.215 30.266-41.963 55.972-71.567 74.34-35.424 21.979-60.859 49.447-80.044 86.446l-16.422 31.67A15 15 0 0 1 256 512z" fill="#ff6378"></path><path d="M256 0v512a14.998 14.998 0 0 0 13.316-8.096l16.422-31.67c19.185-36.999 44.62-64.468 80.044-86.446 29.604-18.368 54.353-44.074 71.567-74.34 17.762-31.226 27.15-66.824 27.15-102.948C464.5 93.532 370.968 0 256 0z" fill="#ff3b71"></path><path d="M323.982 316.688c-2.16 0-4.331-.467-6.355-1.414L256 286.436l-61.625 28.839a14.998 14.998 0 0 1-21.244-15.434l8.384-67.521-46.471-49.698a15 15 0 0 1 8.114-24.974l66.808-12.892 32.905-59.554a15 15 0 0 1 26.258 0l32.905 59.554 66.808 12.892a15.001 15.001 0 0 1 8.114 24.974l-46.471 49.698 8.384 67.521a14.996 14.996 0 0 1-14.887 16.847z" fill="#ffdd33"></path><path d="M380.266 167.74a15.002 15.002 0 0 0-11.424-10.094l-66.808-12.892L269.129 85.2A15 15 0 0 0 256 77.454v208.98l61.626 28.839a14.992 14.992 0 0 0 15.173-1.451 14.996 14.996 0 0 0 6.069-13.983l-8.384-67.521 46.471-49.698a14.996 14.996 0 0 0 3.311-14.88z" fill="#ffbb33"></path></g></svg>