<svg viewBox="0 0 66 66" xmlns="http://www.w3.org/2000/svg"><g><path d="M60.94 27.81H37.61l-2.96 23.05H63.9z" fill="#1c8fc7"></path><path d="M63.9 50.86H34.65l-.08.62a5.993 5.993 0 0 0 5.95 6.76h17.51c3.62 0 6.41-3.18 5.95-6.76z" fill="#49a5d2"></path><path d="M46.63 30.69a1 1 0 0 0-.84-.45H37.3l-2.65 20.62-.08.62c-.46 3.58 2.34 6.76 5.95 6.76h6.73V43.85c0-.55.45-1 1-1h4.47c.79 0 1.27-.88.84-1.55z" fill="#000000" opacity=".08"></path><circle cx="43.12" cy="34.24" fill="#ffffff" r="2"></circle><circle cx="55.43" cy="34.24" fill="#ffffff" r="2"></circle><path d="M55.43 32.99c-.41 0-.75-.34-.75-.75v-7.32c0-2.98-2.43-5.41-5.41-5.41s-5.41 2.43-5.41 5.41v7.32c0 .41-.34.75-.75.75s-.75-.34-.75-.75v-7.32c0-3.81 3.1-6.91 6.91-6.91s6.91 3.1 6.91 6.91v7.32c0 .41-.33.75-.75.75z" fill="#2b2a3a"></path><circle cx="31.26" cy="16.63" fill="#ff7146" r="8.87"></circle><path d="M36.26 15.88h-4.25v-4.25c0-.41-.34-.75-.75-.75s-.75.34-.75.75v4.25h-4.25c-.41 0-.75.34-.75.75s.34.75.75.75h4.25v4.25c0 .41.34.75.75.75s.75-.34.75-.75v-4.25h4.25c.41 0 .75-.34.75-.75s-.34-.75-.75-.75z" fill="#ffffff"></path><path d="M50.87 40.85h-24.7l-5.62-8.61h24.7z" fill="#ffd683"></path><path d="m26.17 40.85-5.62-8.61v26h24.7V40.85z" fill="#ffc040"></path><path d="M1.97 40.85h12.97l5.61-8.61H7.59z" fill="#ffd683"></path><path d="M14.94 40.85H7.59v17.39h12.96v-26z" fill="#e5ac39"></path></g></svg>