<svg viewBox="0 0 64 64" xmlns="http://www.w3.org/2000/svg"><g><circle cx="32" cy="4" fill="#7483a6" r="3"></circle><path d="M59.876 20.183 52 8.983l-7.876 11.2-1.124-.9 8.438-12a.7.7 0 0 1 1.124 0l8.438 12zM19.876 20.183 12 8.983l-7.876 11.2-1.124-.9 8.438-12a.7.7 0 0 1 1.124 0l8.438 12z" fill="#a3b0cc"></path><path d="M42 18.733h20v3a10 10 0 0 1-10 10 10 10 0 0 1-10-10v-3z" fill="#5ab36f"></path><path d="M51.999 28.372a.744.744 0 0 1-.45-.15l-3-2.25.901-1.2 2.4 1.8 4.05-5.4 1.2.9-4.5 6a.747.747 0 0 1-.601.3z" fill="#cce7ff"></path><path d="M2 18.733h20v3a10 10 0 0 1-10 10 10 10 0 0 1-10-10v-3z" fill="#d96d6d"></path><path d="m15.23 22-1.06-1.061-2.47 2.47-2.47-2.47L8.17 22l2.47 2.47-2.47 2.469L9.23 28l2.47-2.47L14.17 28l1.06-1.061-2.469-2.469z" fill="#cce7ff"></path><path d="M57 7H7v1.5h24.25v24.25h1.5V8.5H57z" fill="#8697bf"></path><path d="M44.348 46.407V42.26A11.415 11.415 0 0 0 32.783 31h-1.218A11.415 11.415 0 0 0 20 42.26V63h14v-2.37h6.087a3.605 3.605 0 0 0 3.652-3.556v-3.556L48 52.333z" fill="#e6bc89"></path><path d="M37.69 43.021a5.23 5.23 0 0 0 0-2.042l1.31-.732a6.936 6.936 0 0 0-1.926-3.236l-.76.424a.965.965 0 0 1-1.001-.023 5.828 5.828 0 0 0-.861-.48.904.904 0 0 1-.522-.828v-.847a7.321 7.321 0 0 0-3.86.004v.843a.904.904 0 0 1-.522.828 5.825 5.825 0 0 0-.86.48.965.965 0 0 1-1.002.023l-.757-.422A6.936 6.936 0 0 0 25 40.247l1.31.732a5.23 5.23 0 0 0 0 2.042l-1.31.732a6.935 6.935 0 0 0 1.925 3.236l.76-.424a.965.965 0 0 1 1.002.023 5.83 5.83 0 0 0 .861.48.904.904 0 0 1 .522.828v.847a7.321 7.321 0 0 0 3.86-.004v-.843a.904.904 0 0 1 .522-.828 5.829 5.829 0 0 0 .86-.48.965.965 0 0 1 1.003-.023l.756.422A6.936 6.936 0 0 0 39 43.753zM32 44.333A2.333 2.333 0 1 1 34.333 42 2.333 2.333 0 0 1 32 44.333z" fill="#7483a6"></path></g></svg>