<svg id="Layer_1" enable-background="new 0 0 512 512" height="512" viewBox="0 0 512 512" width="512" xmlns="http://www.w3.org/2000/svg"><g><path d="m296.167 471.833c-14.102 0-28.036-3.519-40.167-10.038-12.131 6.519-26.065 10.038-40.167 10.038-19.582 0-38.723-6.805-52.856-18.517-18.169 3.059-38.168-.627-55.073-10.412-16.884-9.764-30.066-25.229-36.524-42.453-17.184-6.409-32.643-19.585-42.448-36.518-9.797-16.926-13.483-36.918-10.417-55.062-11.711-14.158-18.515-33.305-18.515-52.871 0-19.562 6.805-38.711 18.513-52.875-3.069-18.145.618-38.135 10.418-55.058 9.801-16.932 25.26-30.109 42.448-36.518 6.457-17.222 19.638-32.687 36.524-42.46 16.905-9.777 36.9-13.46 55.07-10.41 14.132-11.708 33.274-18.512 52.859-18.512 14.102 0 28.036 3.519 40.167 10.038 12.131-6.519 26.065-10.038 40.167-10.038 19.585 0 38.728 6.803 52.859 18.512 18.172-3.054 38.164.631 55.066 10.407 16.89 9.775 30.071 25.241 36.528 42.463 17.188 6.409 32.647 19.586 42.45 36.521 9.798 16.92 13.485 36.911 10.416 55.055 11.71 14.164 18.515 33.313 18.515 52.875 0 19.566-6.804 38.713-18.514 52.872 3.066 18.144-.62 38.136-10.415 55.059-9.807 16.935-25.267 30.112-42.45 36.521-6.458 17.224-19.642 32.689-36.529 42.455-16.9 9.782-36.896 13.47-55.068 10.41-14.134 11.711-33.277 18.516-52.857 18.516z" fill="#f0f5ff"/><path d="m256 50.205c12.131-6.519 26.065-10.038 40.167-10.038 19.585 0 38.728 6.803 52.859 18.512 18.172-3.054 38.164.631 55.066 10.407 16.89 9.775 30.071 25.241 36.528 42.463 17.188 6.409 32.647 19.586 42.45 36.521 9.798 16.92 13.485 36.911 10.416 55.055 11.709 14.164 18.514 33.313 18.514 52.875 0 19.566-6.804 38.713-18.514 52.872 3.066 18.144-.62 38.136-10.415 55.059-9.807 16.935-25.267 30.112-42.45 36.521-6.458 17.224-19.642 32.689-36.529 42.455-16.9 9.782-36.896 13.47-55.068 10.41-14.134 11.711-33.276 18.517-52.856 18.517-14.102 0-28.036-3.519-40.167-10.038v-411.591z" fill="#d8f1fb"/><g fill="#00a8ed"><circle cx="272.067" cy="320.267" r="15"/><circle cx="328.3" cy="320.267" r="15"/><circle cx="384.533" cy="320.267" r="15"/></g><path d="m256 206.733c8.284 0 15-6.716 15-15s-6.716-15-15-15h-48.2c-8.284 0-15 6.716-15 15v128.533c0 8.284 6.716 15 15 15s15-6.716 15-15v-49.266h17.134c8.284 0 15-6.716 15-15s-6.716-15-15-15h-17.134v-34.267z" fill="#00c5f3"/><path d="m143.533 176.733c-8.284 0-15 6.716-15 15v128.533c0 8.284 6.716 15 15 15s15-6.716 15-15v-128.533c0-8.284-6.716-15-15-15z" fill="#00c5f3"/><path d="m271 191.733c0-8.284-6.716-15-15-15v30c8.284 0 15-6.715 15-15z" fill="#00a8ed"/></g></svg>