<svg viewBox="0 0 58 58" xmlns="http://www.w3.org/2000/svg"><g><g fill="none" fill-rule="nonzero"><path d="M34 23H24L0 30v13a1 1 0 0 0 1 1h6L.156 54.754a1 1 0 0 0-.156.537V57a1 1 0 0 0 1 1h56a1 1 0 0 0 1-1v-1.709a1 1 0 0 0-.156-.537L51 44h6a1 1 0 0 0 1-1V30z" fill="#547580"></path><path d="M5.72 58H1a1 1 0 0 1-1-1v-1.709a1 1 0 0 1 .156-.537L7 44H1a1 1 0 0 1-1-1v-3h14.29L4.86 56.5a1 1 0 0 0 .86 1.5zM57 44h-6l6.844 10.754a1 1 0 0 1 .156.537V57a1 1 0 0 1-1 1h-4.72a1 1 0 0 0 .86-1.5L43.71 40H58v3a1 1 0 0 1-1 1z" fill="#95a5a5"></path><path d="M0 4h20v26H0z" fill="#67b9cc"></path><path d="M24 0v23l-4 7V4z" fill="#2fa8cc"></path><path d="m24 0-4 4H0L5.75.17A.991.991 0 0 1 6.3 0z" fill="#bdc3c7"></path><path d="M38 4v26l-4-7V0z" fill="#f0c419"></path><path d="M58 4H38l-4-4h17.7c.196.001.388.06.55.17z" fill="#bdc3c7"></path><g fill="#f3d55b"><path d="M38 4h20v26H38zM29 30a1 1 0 0 1-1-1v-2a1 1 0 0 1 2 0v2a1 1 0 0 1-1 1zM29 37a1 1 0 0 1-1-1v-3a1 1 0 0 1 2 0v3a1 1 0 0 1-1 1zM29 45a1 1 0 0 1-1-1v-4a1 1 0 0 1 2 0v4a1 1 0 0 1-1 1zM29 55a1 1 0 0 1-1-1v-5a1 1 0 0 1 2 0v5a1 1 0 0 1-1 1zM11 36H8a1 1 0 0 1 0-2h3a1 1 0 0 1 0 2zM4 36H1a1 1 0 0 1 0-2h3a1 1 0 0 1 0 2zM18 36h-3a1 1 0 0 1 0-2h3a1 1 0 0 1 0 2zM43 36h-3a1 1 0 0 1 0-2h3a1 1 0 0 1 0 2zM50 36h-3a1 1 0 0 1 0-2h3a1 1 0 0 1 0 2zM57 36h-3a1 1 0 0 1 0-2h3a1 1 0 0 1 0 2z" fill="#f3d55b"></path></g><path d="M9 23h2a1 1 0 0 1 1 1v6H8v-6a1 1 0 0 1 1-1zM47 23h2a1 1 0 0 1 1 1v6h-4v-6a1 1 0 0 1 1-1z" fill="#7f6e5d"></path><rect fill="#b0d3f0" rx="1"></rect><rect fill="#b0d3f0" rx="1"></rect><rect fill="#b0d3f0" rx="1"></rect><rect fill="#b0d3f0" rx="1"></rect><rect fill="#b0d3f0" rx="1"></rect><rect fill="#b0d3f0" rx="1"></rect><rect fill="#b0d3f0" rx="1"></rect><rect fill="#b0d3f0" rx="1"></rect></g></g></svg>