<svg fill-rule="evenodd" viewBox="0 0 64 64" xmlns="http://www.w3.org/2000/svg"><g><path d="M56 22a2 2 0 0 0-2-2H10a2 2 0 0 0-2 2v8a2 2 0 0 0 2 2h44a2 2 0 0 0 2-2v-8z" fill="#ff3d65"></path><path d="M52 32H12v26a2 2 0 0 0 2 2h36a2 2 0 0 0 2-2V32z" fill="#e6375a"></path><path d="M28 32h8v28h-8z" fill="#e6a327"></path><path d="M26 20h12v12H26z" fill="#feb62c"></path><path d="M56 40a2 2 0 0 0-2-2H10a2 2 0 0 0-2 2v12a2 2 0 0 0 2 2h44a2 2 0 0 0 2-2V40z" fill="#4bba6c"></path><path d="M17 43.6V50a1 1 0 0 0 2 0v-3h3a1 1 0 0 0 0-2h-3v-1.4a.597.597 0 0 1 .6-.6H22a1 1 0 0 0 0-2h-2.4c-.69 0-1.351.274-1.838.762A2.596 2.596 0 0 0 17 43.6zM25 42v8a1 1 0 0 0 2 0v-3h1.4a.597.597 0 0 1 .6.6V50a1 1 0 0 0 2 0v-2.4a2.6 2.6 0 0 0-.551-1.6A2.6 2.6 0 0 0 31 44.4v-.8c0-.69-.274-1.351-.762-1.838A2.596 2.596 0 0 0 28.4 41H26a1 1 0 0 0-1 1zm2 3v-2h1.4a.597.597 0 0 1 .6.6v.8a.597.597 0 0 1-.6.6zM33 43.6v4.8c0 .69.274 1.351.762 1.838A2.596 2.596 0 0 0 35.6 51H38a1 1 0 0 0 0-2h-2.4a.597.597 0 0 1-.6-.6V47h3a1 1 0 0 0 0-2h-3v-1.4a.597.597 0 0 1 .6-.6H38a1 1 0 0 0 0-2h-2.4c-.69 0-1.351.274-1.838.762A2.596 2.596 0 0 0 33 43.6zM41 43.6v4.8c0 .69.274 1.351.762 1.838A2.596 2.596 0 0 0 43.6 51H46a1 1 0 0 0 0-2h-2.4a.597.597 0 0 1-.6-.6V47h3a1 1 0 0 0 0-2h-3v-1.4a.597.597 0 0 1 .6-.6H46a1 1 0 0 0 0-2h-2.4c-.69 0-1.351.274-1.838.762A2.596 2.596 0 0 0 41 43.6z" fill="#f8f4f0"></path><path d="M24 20c-4.415 0-8-3.585-8-8s3.585-8 8-8 8 3.585 8 8c0-4.415 3.585-8 8-8s8 3.585 8 8-3.585 8-8 8z" fill="#feb62c"></path><path d="M24 8c2.208 0 4 1.792 4 4v4h-4c-2.208 0-4-1.792-4-4s1.792-4 4-4zM40 8c-2.208 0-4 1.792-4 4v4h4c2.208 0 4-1.792 4-4s-1.792-4-4-4z" fill="#f8f4f0"></path></g></svg>