<svg viewBox="0 0 64 64" xmlns="http://www.w3.org/2000/svg"><g><path d="M57.466 34h-.846a4 4 0 1 0-5.24 0h-.846C47.478 34 46 36.478 46 39.534V49h3v13h10V49h3v-9.466C62 36.478 60.522 34 57.466 34z" fill="#17afdc"></path><path d="M13.466 34h-.846a4 4 0 1 0-5.24 0h-.846C3.478 34 2 36.478 2 39.534V49h3v13h10V49h3v-9.466C18 36.478 16.522 34 13.466 34z" fill="#24db6a"></path><path d="M39 18v6.595C39 25.923 38.923 27 37.595 27H34.62a4 4 0 1 0-5.24 0h-2.975C25.077 27 25 25.923 25 24.595V18h-4v9.254A3.746 3.746 0 0 0 24.746 31H27v24h10V31h2.254A3.746 3.746 0 0 0 43 27.254V18z" fill="#f4404a"></path><path d="M32 21a3.987 3.987 0 0 1 3.947 3.474A3.825 3.825 0 0 0 36 24a4 4 0 0 0-8 0 3.825 3.825 0 0 0 .053.474A3.987 3.987 0 0 1 32 21zM21 18h4v1h-4zM39 18h4v1h-4z" fill="#f27985"></path><path d="M10 28a3.987 3.987 0 0 1 3.947 3.474A3.825 3.825 0 0 0 14 31a4 4 0 0 0-8 0 3.825 3.825 0 0 0 .053.474A3.987 3.987 0 0 1 10 28z" fill="#18ef65"></path><path d="M54 28a3.987 3.987 0 0 1 3.947 3.474A3.825 3.825 0 0 0 58 31a4 4 0 0 0-8 0 3.825 3.825 0 0 0 .053.474A3.987 3.987 0 0 1 54 28z" fill="#65d5ef"></path><path d="M14 38h1v11h-1zM5 38h1v11H5z" fill="#0e8e35"></path><path d="M31 40h2v15h-2z" fill="#f41938"></path><path d="M58 38h1v11h-1zM49 38h1v11h-1z" fill="#046f87"></path><path d="M24 54h16v8H24z" fill="#5358a1"></path><g fill="gold"><path d="m32 2 1.652 5.348H39l-4.326 3.304L36.326 16 32 12.695 27.674 16l1.652-5.348L25 7.348h5.348zM40.553 6.105l4-2 .894 1.79-4 2zM17.629 5.929l.742-1.858 5 2-.743 1.858zM40.553 12.895l.894-1.79 4 2-.894 1.79zM17.629 13.072l5-2 .742 1.856-5 2z" fill=""></path></g><path d="M9 48h2v14H9z" fill="#0e8e35"></path><path d="M53 48h2v14h-2z" fill="#046f87"></path></g></svg>