<svg viewBox="0 0 512 512" xmlns="http://www.w3.org/2000/svg"><g><path d="m386.553 309.104 28.721-59.638c5.856-12.173 20.119-17.711 32.627-12.741l.189.075c13.192 5.352 19.504 20.414 14.09 33.581l-5.891 14.323" fill="#e0b394"></path><path d="M245.307 283.039c-39.415-29.323-72.383-67.804-72.383-106.893 0-43.929 30.255-79.546 67.565-79.546 29.844 0 54.043 28.497 54.043 63.636 0-35.139 24.201-63.636 54.043-63.636 21.813 0 41.194 12.154 53.544 31.037 8.812 13.434 14.021 30.255 14.021 48.509 0 54.911-65.091 108.607-121.608 137.496-16.3-8.312-33.294-18.709-49.225-30.603z" fill="#fd5d65"></path><path d="M264.29 283.039c-24.214-29.323-44.469-67.804-44.469-106.893 0-38.334 14.157-70.332 32.992-77.863a46.367 46.367 0 0 0-12.325-1.684c-37.309 0-67.565 35.617-67.565 79.546 0 39.089 32.968 77.571 72.383 106.893 15.931 11.893 32.926 22.29 49.225 30.603-10.013-8.311-20.454-18.708-30.241-30.602z" fill="#e54e5c"></path><path d="m492.212 338.479-170.166 70.978a77.08 77.08 0 0 1-53.809 2.07L91.402 353.256a38.847 38.847 0 0 0-27.75 1.322l-7.015 3.071-39.996-92.759L0 226.308l82.961-55.269c25.277-16.848 57.029-21.712 85.733-11.845a66.4 66.4 0 0 1 3.473 1.265l156.044 59.858c7.084 2.703 12.328 8.073 15.088 14.479 2.852 6.613 3.094 14.318-.035 21.448-5.612 12.857-20.148 19.263-33.431 14.72l-99.004-33.856c-6.13-2.105-12.489-1.667-17.963.69-6.785 2.933-12.225 8.798-14.272 16.549-3.347 12.616 3.6 25.668 15.916 29.981l113.459 39.652a47.281 47.281 0 0 0 31.154 0l130.088-45.517c15.951-5.589 33.477 2.128 40.147 17.595.034.081.069.161.092.23 6.946 16.408-.793 35.325-17.238 42.191z" fill="#f7cba4"></path><path d="M172.167 160.458S55.959 190.427 19.734 259.427a91.328 91.328 0 0 1-3.094 5.462L0 226.308l82.961-55.269c25.277-16.848 57.029-21.712 85.733-11.845 1.161.39 2.323.804 3.473 1.264z" fill="#e0b394"></path></g></svg>