<svg viewBox="0 0 512 512" xmlns="http://www.w3.org/2000/svg"><g><path d="M276 512H76c-24.813 0-45-20.187-45-45V105c0-24.813 20.187-45 45-45h25V45c0-24.813 20.187-45 45-45h60c24.813 0 45 20.187 45 45v15h25c24.813 0 45 20.187 45 45v362c0 24.813-20.187 45-45 45z" fill="#5ecef4"></path><path d="M276 60h-25V45c0-24.813-20.187-45-45-45h-30v512h100c24.813 0 45-20.187 45-45V105c0-24.813-20.187-45-45-45z" fill="#4895ff"></path><path d="M76 90c-8.271 0-15 6.729-15 15v362c0 8.271 6.729 15 15 15h200c8.271 0 15-6.729 15-15V105c0-8.271-6.729-15-15-15h-40c-8.284 0-15-6.716-15-15V45c0-8.271-6.729-15-15-15h-60c-8.271 0-15 6.729-15 15v30c0 8.284-6.716 15-15 15z" fill="#fff5f5"></path><path d="M276 90h-40c-8.284 0-15-6.716-15-15V45c0-8.271-6.729-15-15-15h-30v452h100c8.271 0 15-6.729 15-15V105c0-8.271-6.729-15-15-15z" fill="#e1ebf0"></path><circle cx="356" cy="256" fill="#ff405c" r="125"></circle><path d="M356 131v250c68.925 0 125-56.075 125-125s-56.075-125-125-125z" fill="#c9001c"></path><path d="M246 451H106c-8.284 0-15-6.716-15-15v-40c0-8.284 6.716-15 15-15h140c8.284 0 15 6.716 15 15v40c0 8.284-6.716 15-15 15z" fill="#ff405c"></path><path d="M246 381h-70v70h70c8.284 0 15-6.716 15-15v-40c0-8.284-6.716-15-15-15z" fill="#c9001c"></path><path d="M356 276c-8.284 0-15-6.716-15-15v-60c0-8.284 6.716-15 15-15s15 6.716 15 15v60c0 8.284-6.716 15-15 15z" fill="#fff5f5"></path><path d="M356 186v90c8.284 0 15-6.716 15-15v-60c0-8.284-6.716-15-15-15z" fill="#e1ebf0"></path><circle cx="356" cy="311" fill="#fff5f5" r="15"></circle><path d="M356 296v30c8.284 0 15-6.716 15-15s-6.716-15-15-15z" fill="#e1ebf0"></path></g></svg>