<svg viewBox="0 0 512 512" xmlns="http://www.w3.org/2000/svg"><g><path d="M232.426.003c-14.438 0-26.931 10.047-30.029 24.148l-25.98 211.257 79.584-6.447V23.577C256 10.558 245.445.003 232.426.003z" fill="#e8c842"></path><path d="M228.667 24.151c2.019-9.191 8.031-16.656 15.969-20.743A23.464 23.464 0 0 0 232.425.003c-14.438 0-26.931 10.047-30.029 24.148l-25.98 211.257 26.536-2.149 25.715-209.108z" fill="#dbbc3b"></path><path d="M309.604 24.151C306.506 10.05 294.013.003 279.575.003 266.554.003 256 10.558 256 23.578v205.384l79.584 6.447-25.98-211.258z" fill="#e8c842"></path><path d="M281.74 172.447V23.577c0-8.653 4.665-16.213 11.614-20.314C274.874-6.011 256 5.646 256 23.577v148.87h25.74z" fill="#dbbc3b"></path><path d="m206.671 428.753 30.494-42.771A102.905 102.905 0 0 0 256 326.639V100.651c0-13.02-10.555-23.575-23.575-23.575-14.438 0-26.931 10.047-30.029 24.148l-30.332 156.663a63.895 63.895 0 0 1-14.578 29.853l-44.728 51.124 93.913 89.889z" fill="#f4d44e"></path><path d="M181.046 301.206a71.225 71.225 0 0 0 16.252-33.28l33.814-174.644a34.197 34.197 0 0 1 7.762-15.305c-14.077-3.996-32.507 5.176-36.477 23.248l-30.332 156.663a63.895 63.895 0 0 1-14.578 29.853l-44.728 51.124L132 357.282l49.046-56.076z" fill="#e8c842"></path><path d="m306.36 429.783-31.524-43.801a102.905 102.905 0 0 1-18.835-59.343V100.651c0-13.02 10.555-23.575 23.575-23.575 14.438 0 26.931 10.047 30.029 24.148l30.332 156.663a63.895 63.895 0 0 0 14.578 29.853l45.759 52.154-93.914 89.889z" fill="#f4d44e"></path><path d="M303.078 376.078a111.644 111.644 0 0 1-20.435-64.385V93.284c0-5.667 1.846-10.9 4.965-15.139C270.041 73.392 256 85.546 256 100.652V326.64c0 21.251 6.58 41.981 18.835 59.343l31.524 43.801 20.944-20.046-24.225-33.66z" fill="#e8c842"></path><path d="m295.045 437.047 110.384-105.654c3.821-3.657 9.914-3.414 13.431.537l86.503 97.17a26.215 26.215 0 0 1 6.635 17.432v50.315c0 8.368-6.784 15.152-15.152 15.152H358.944a32.64 32.64 0 0 1-24.377-10.936l-40.273-45.239c-4.844-5.441-4.513-13.739.751-18.777z" fill="#57addd"></path><path d="M407.573 498.934c-85.195-95.757-80.079-89.822-81.45-91.634l-31.08 29.748c-5.262 5.037-5.594 13.336-.75 18.777l40.273 45.239A32.636 32.636 0 0 0 358.943 512h64.69a64.861 64.861 0 0 1-16.06-13.066z" fill="#42a2cc"></path><path d="m316.617 480.9 126.809-121.374-24.566-27.595c-3.517-3.951-9.61-4.194-13.431-.537L295.045 437.047c-5.262 5.037-5.594 13.336-.75 18.777l22.322 25.076z" fill="#70bbef"></path><path d="M357.059 442.191c-30.992-34.87-29.575-33.091-30.934-34.891-33.604 32.294-34.162 31.223-35.099 37.526a13.47 13.47 0 0 0 3.269 10.998l22.322 25.075 40.442-38.708zM216.956 437.047 106.572 331.395c-3.821-3.657-9.914-3.414-13.431.537l-86.503 97.17a26.215 26.215 0 0 0-6.635 17.432v50.315c0 8.368 6.783 15.152 15.152 15.152h137.903a32.64 32.64 0 0 0 24.377-10.936l40.273-45.239c4.843-5.443 4.511-13.741-.752-18.779z" fill="#57addd"></path><path d="M51.063 458.36a26.218 26.218 0 0 1 6.635-17.432l75.134-84.398-26.26-25.135c-3.821-3.657-9.914-3.414-13.431.537l-86.503 97.17a26.215 26.215 0 0 0-6.635 17.432v50.315c0 8.368 6.784 15.152 15.152 15.152H51.44c-.685-3.059-.238-.324-.377-53.641z" fill="#42a2cc"></path><path d="M195.384 480.9 68.575 359.526l24.566-27.595c3.517-3.951 9.61-4.194 13.431-.537l110.384 105.654c5.262 5.037 5.594 13.336.75 18.777L195.384 480.9z" fill="#70bbef"></path><path d="m68.575 359.526 33.255 31.829 31.003-34.826-26.26-25.135c-3.821-3.657-9.914-3.414-13.431.537l-24.567 27.595z" fill="#57addd"></path></g></svg>