<svg id="Icons" height="512" viewBox="0 0 60 60" width="512" xmlns="http://www.w3.org/2000/svg"><path d="m28 24.3h4v14.7h-4z" fill="#33907c"/><path d="m37 1a9.667 9.667 0 0 0 -7 3 9.609 9.609 0 0 0 -7-3c-4.163 0-6.833 3.546-6.973 8-.178 5.681 3.761 12.838 13.973 16 11.05-3.41 14-11.14 14-15.64 0-4.47-2.86-8.36-7-8.36z" fill="#ff5364"/><path d="m44 9.36c0 4.5-2.95 12.23-14 15.64a23.9 23.9 0 0 1 -7.75-3.92c16.69-1.03 13.94-18.94 13.76-20.03.32-.03.65-.05.99-.05 4.14 0 7 3.89 7 8.36z" fill="#df4d60"/><path d="m46 45-3.586 12.549a2 2 0 0 1 -1.923 1.451h-20.982a2 2 0 0 1 -1.923-1.451l-3.586-12.549 16-2z" fill="#e57e25"/><rect fill="#f29c1f" height="6" rx="1" width="34" x="13" y="39"/><path d="m28 33.8s-6.7 2.662-12.2.072c-4.2-1.979-6.487-6.455-7.33-8.454a.99.99 0 0 1 .63-1.337c2.078-.624 6.983-1.713 11.186.267 5.5 2.585 7.714 9.452 7.714 9.452z" fill="#24ae5f"/><path d="m32 33.8s6.7 2.662 12.2.072c4.2-1.979 6.487-6.455 7.33-8.454a.99.99 0 0 0 -.63-1.337c-2.078-.624-6.983-1.713-11.186.267-5.5 2.585-7.714 9.452-7.714 9.452z" fill="#24ae5f"/><path d="m22 50h-2a1 1 0 0 1 0-2h2a1 1 0 0 1 0 2z" fill="#d25627"/><path d="m38 50h-12a1 1 0 0 1 0-2h12a1 1 0 0 1 0 2z" fill="#d25627"/><path d="m20 10.364a1 1 0 0 1 -1-1c0-2.637 1.5-5.364 4-5.364a1 1 0 0 1 0 2c-1.2 0-2 1.739-2 3.364a1 1 0 0 1 -1 1z" fill="#fff"/></svg>