<svg viewBox="0 0 512 512" xmlns="http://www.w3.org/2000/svg"><g><g fill="#99e6fc"><path d="M411.186 314.512h15v32.946h-15zM411.186 412.11h15v32.946h-15z" fill="#99e6fc"></path></g><g fill="#99e6fc"><path d="M418.686 135.959a7.5 7.5 0 0 0-7.5 7.5v12c0 4.142 3.357 7.5 7.5 7.5s7.5-3.358 7.5-7.5v-12a7.5 7.5 0 0 0-7.5-7.5zM388.358 97.663h-14.867c.209 2.69.326 5.394.326 8.085 0 2.301-.084 4.612-.237 6.915h14.778c4.143 0 7.5-3.358 7.5-7.5s-3.357-7.5-7.5-7.5zM418.527 125.967a7.5 7.5 0 0 0 7.439-8.535c-.833-5.986-3.939-11.319-8.746-15.017a7.501 7.501 0 0 0-9.147 11.89 7.893 7.893 0 0 1 3.035 5.195 7.502 7.502 0 0 0 7.419 6.467zM418.686 209.959a7.5 7.5 0 0 0-7.5 7.5v12c0 4.142 3.357 7.5 7.5 7.5s7.5-3.358 7.5-7.5v-12a7.5 7.5 0 0 0-7.5-7.5zM418.686 172.959a7.5 7.5 0 0 0-7.5 7.5v12c0 4.142 3.357 7.5 7.5 7.5s7.5-3.358 7.5-7.5v-12a7.5 7.5 0 0 0-7.5-7.5zM184.32 469.883h-12a7.5 7.5 0 0 0 0 15h12a7.5 7.5 0 0 0 0-15zM147.32 469.883h-.478a7.932 7.932 0 0 1-5.393-2.107 7.5 7.5 0 0 0-10.175 11.021 22.89 22.89 0 0 0 15.568 6.086h.478a7.5 7.5 0 0 0 0-15zM138.889 449.691v-12a7.5 7.5 0 0 0-15 0v12a7.5 7.5 0 0 0 15 0zM131.389 420.191a7.5 7.5 0 0 0 7.5-7.5v-12a7.5 7.5 0 0 0-15 0v12a7.5 7.5 0 0 0 7.5 7.5zM258.32 469.883h-12a7.5 7.5 0 0 0 0 15h12c4.143 0 7.5-3.358 7.5-7.5s-3.357-7.5-7.5-7.5zM326.372 469.883h-6.052c-4.143 0-7.5 3.358-7.5 7.5s3.357 7.5 7.5 7.5h6.052zM295.32 469.883h-12c-4.143 0-7.5 3.358-7.5 7.5s3.357 7.5 7.5 7.5h12c4.143 0 7.5-3.358 7.5-7.5s-3.357-7.5-7.5-7.5zM221.32 469.883h-12a7.5 7.5 0 0 0 0 15h12a7.5 7.5 0 0 0 0-15z" fill="#99e6fc"></path></g><path d="M166.337 377.392c0-32.811 26.693-59.503 59.503-59.503.067 0 .132.005.198.005V173.939l-12.895 12.895a4.927 4.927 0 0 1-3.508 1.454 4.798 4.798 0 0 1-2.987-1.026 104.235 104.235 0 0 1-17.802-17.802c-1.519-1.94-1.334-4.732.428-6.495l15.017-15.017c2.154-2.153 2.637-5.436 1.202-8.168a73.017 73.017 0 0 1-5.063-12.231c-.917-2.945-3.578-4.923-6.624-4.923H172.56c-2.492 0-4.596-1.843-4.894-4.287a104.643 104.643 0 0 1-.763-12.591c0-.195.008-.39.009-.585H50.146a10.3 10.3 0 0 0-7.284 3.017L3.017 148.025A10.3 10.3 0 0 0 0 155.309v222.66c0 5.69 4.612 10.302 10.302 10.302h157.05a59.468 59.468 0 0 1-1.015-10.879z" fill="#fef1da"></path><path d="M42.753 377.969v-222.66c0-2.732 1.085-5.353 3.017-7.285l39.845-39.845a10.3 10.3 0 0 1 7.284-3.017H50.146a10.3 10.3 0 0 0-7.284 3.017L3.017 148.025A10.3 10.3 0 0 0 0 155.309v222.66c0 5.69 4.612 10.302 10.302 10.302h42.753c-5.69 0-10.302-4.612-10.302-10.302z" fill="#fae2c0"></path><path d="M166.598 184.945H59.441a7.5 7.5 0 0 1 0-15h107.157a7.5 7.5 0 0 1 0 15zM166.598 222.378H59.441a7.5 7.5 0 0 1 0-15h107.157a7.5 7.5 0 0 1 0 15zM166.598 259.645H59.441a7.5 7.5 0 0 1 0-15h107.157a7.5 7.5 0 0 1 0 15zM166.598 297.246H59.441a7.5 7.5 0 0 1 0-15h107.157a7.5 7.5 0 0 1 0 15zM107.477 334.68H59.441a7.5 7.5 0 0 1 0-15h48.036a7.5 7.5 0 0 1 0 15z" fill="#d8aa5e"></path><circle cx="225.84" cy="377.392" fill="#05e39c" r="60.503"></circle><path d="M199.895 377.392c0-27.409 18.231-50.548 43.224-57.985a60.473 60.473 0 0 0-17.279-2.518c-33.415 0-60.503 27.088-60.503 60.503s27.088 60.503 60.503 60.503c6.006 0 11.802-.888 17.279-2.518-24.993-7.437-43.224-30.576-43.224-57.985z" fill="#0ed290"></path><path d="M221.997 402a7.474 7.474 0 0 1-5.303-2.197l-23.502-23.502a7.5 7.5 0 0 1 0-10.606 7.5 7.5 0 0 1 10.606 0l18.199 18.199 25.886-25.886a7.498 7.498 0 0 1 10.606 0 7.5 7.5 0 0 1 0 10.606l-31.189 31.19a7.479 7.479 0 0 1-5.303 2.196z" fill="#ffffff"></path><path d="m337.136 64.256 15.017-15.017c2.108-2.108 2.345-5.471.508-7.818a105.08 105.08 0 0 0-17.973-17.973c-2.347-1.837-5.71-1.6-7.818.508l-15.017 15.017c-1.85 1.85-4.679 2.24-6.996 1.024a73.806 73.806 0 0 0-12.399-5.133c-2.497-.776-4.22-3.054-4.22-5.668V7.948c0-2.98-2.207-5.526-5.165-5.886a105.212 105.212 0 0 0-25.424 0c-2.958.36-5.166 2.906-5.166 5.886v21.247c0 2.615-1.723 4.892-4.22 5.668a73.771 73.771 0 0 0-12.399 5.133c-2.317 1.217-5.146.827-6.996-1.024l-15.017-15.017c-2.108-2.108-5.471-2.345-7.818-.508A105.08 105.08 0 0 0 188.06 41.42c-1.837 2.347-1.6 5.71.508 7.818l15.017 15.017c1.85 1.85 2.24 4.679 1.024 6.996a73.806 73.806 0 0 0-5.133 12.399c-.776 2.497-3.054 4.22-5.668 4.22H172.56c-2.98 0-5.526 2.207-5.886 5.165a105.212 105.212 0 0 0 0 25.424c.36 2.958 2.906 5.165 5.886 5.165h21.247c2.615 0 4.892 1.723 5.668 4.22a73.771 73.771 0 0 0 5.133 12.399c1.217 2.317.827 5.146-1.024 6.996l-15.017 15.017c-2.108 2.108-2.345 5.471-.508 7.818a105.08 105.08 0 0 0 17.973 17.973c2.347 1.837 5.71 1.6 7.818-.508l15.017-15.017c1.85-1.85 4.679-2.24 6.996-1.024a73.806 73.806 0 0 0 12.399 5.133c2.497.776 4.22 3.054 4.22 5.668v21.247c0 2.98 2.207 5.526 5.166 5.886a105.212 105.212 0 0 0 25.424 0c2.958-.36 5.165-2.906 5.165-5.886v-21.247c0-2.615 1.723-4.892 4.22-5.668a73.771 73.771 0 0 0 12.399-5.133c2.317-1.217 5.146-.827 6.996 1.024l15.017 15.017c2.108 2.108 5.471 2.345 7.818.508a105.08 105.08 0 0 0 17.973-17.973c1.837-2.347 1.6-5.71-.508-7.818l-15.017-15.017c-1.85-1.85-2.24-4.679-1.024-6.996a73.806 73.806 0 0 0 5.133-12.399c.776-2.497 3.054-4.22 5.668-4.22h21.247c2.98 0 5.526-2.207 5.886-5.165a105.212 105.212 0 0 0 0-25.424c-.36-2.958-2.906-5.165-5.886-5.165h-21.247c-2.615 0-4.892-1.723-5.668-4.22a73.771 73.771 0 0 0-5.133-12.399c-1.215-2.316-.825-5.145 1.025-6.995z" fill="#7ca1b1"></path><path d="M253.428 157.368c-21.692-7.134-37.403-27.571-37.403-51.62s15.711-44.486 37.403-51.62c9.212-10.762 21.249-19.035 34.964-23.67a5.805 5.805 0 0 1-.154-1.263V7.948c0-2.98-2.207-5.526-5.165-5.886a105.212 105.212 0 0 0-25.424 0c-2.958.36-5.166 2.906-5.166 5.886v21.247c0 2.615-1.723 4.892-4.22 5.668a73.771 73.771 0 0 0-12.399 5.133c-2.317 1.217-5.146.827-6.996-1.024l-15.017-15.017c-2.108-2.108-5.471-2.345-7.818-.508A105.08 105.08 0 0 0 188.06 41.42c-1.837 2.347-1.6 5.71.508 7.818l15.017 15.017c1.85 1.85 2.24 4.679 1.024 6.996a73.806 73.806 0 0 0-5.133 12.399c-.776 2.497-3.054 4.22-5.668 4.22H172.56c-2.98 0-5.526 2.207-5.886 5.165a105.212 105.212 0 0 0 0 25.424c.36 2.958 2.906 5.165 5.886 5.165h21.247c2.615 0 4.892 1.723 5.668 4.22a73.771 73.771 0 0 0 5.133 12.399c1.217 2.317.827 5.146-1.024 6.996l-15.017 15.017c-2.108 2.108-2.345 5.471-.508 7.818a105.08 105.08 0 0 0 17.973 17.973c2.347 1.837 5.71 1.6 7.818-.508l15.017-15.017c1.85-1.85 4.679-2.24 6.996-1.024a73.806 73.806 0 0 0 12.399 5.133c2.497.776 4.22 3.054 4.22 5.668v21.247c0 2.98 2.207 5.526 5.166 5.886a105.212 105.212 0 0 0 25.424 0c2.958-.36 5.165-2.906 5.165-5.886v-21.247c0-.434.064-.853.154-1.263-13.713-4.633-25.751-12.906-34.963-23.668z" fill="#678d98"></path><circle cx="270.36" cy="105.748" fill="#3e5959" r="46.835"></circle><path d="M249.819 105.748c0-21.3 14.224-39.267 33.688-44.951a46.836 46.836 0 0 0-13.147-1.884c-25.867 0-46.835 20.969-46.835 46.835s20.969 46.835 46.835 46.835c4.566 0 8.975-.666 13.147-1.884-19.464-5.683-33.688-23.651-33.688-44.951z" fill="#384949"></path><path d="M270.36 160.083c-29.96 0-54.335-24.375-54.335-54.335S240.4 51.413 270.36 51.413s54.335 24.375 54.335 54.335-24.375 54.335-54.335 54.335zm0-93.67c-21.689 0-39.335 17.646-39.335 39.335s17.646 39.335 39.335 39.335 39.335-17.646 39.335-39.335-17.645-39.335-39.335-39.335z" fill="#8ebac5"></path><circle cx="270.36" cy="105.748" fill="#ffffff" r="16.261"></circle><path d="M506.849 315.511H330.523a5.15 5.15 0 0 1-5.151-5.151v-56.35a5.15 5.15 0 0 1 5.151-5.151h176.326A5.15 5.15 0 0 1 512 254.01v56.351a5.15 5.15 0 0 1-5.151 5.15z" fill="#01d0fb"></path><path d="M360.048 310.361V254.01a5.15 5.15 0 0 1 5.151-5.151h-34.676a5.15 5.15 0 0 0-5.151 5.151v56.351a5.15 5.15 0 0 0 5.151 5.151h34.676a5.151 5.151 0 0 1-5.151-5.151z" fill="#01c0fa"></path><path d="M475.341 289.685h-113.31c-4.143 0-7.5-3.358-7.5-7.5s3.357-7.5 7.5-7.5h113.31a7.5 7.5 0 0 1 0 15z" fill="#99e6fc"></path><path d="M506.849 413.11H330.523a5.15 5.15 0 0 1-5.151-5.151v-56.351a5.15 5.15 0 0 1 5.151-5.151h176.326a5.15 5.15 0 0 1 5.151 5.151v56.351a5.15 5.15 0 0 1-5.151 5.151z" fill="#fed402"></path><path d="M360.048 407.959v-56.351a5.15 5.15 0 0 1 5.151-5.151h-34.676a5.15 5.15 0 0 0-5.151 5.151v56.351a5.15 5.15 0 0 0 5.151 5.151h34.676a5.15 5.15 0 0 1-5.151-5.151z" fill="#fac600"></path><path d="M475.341 387.284h-113.31c-4.143 0-7.5-3.358-7.5-7.5s3.357-7.5 7.5-7.5h113.31a7.5 7.5 0 0 1 0 15z" fill="#c99c56"></path><path d="M506.849 510.709H330.523a5.15 5.15 0 0 1-5.151-5.151v-56.351a5.15 5.15 0 0 1 5.151-5.151h176.326a5.15 5.15 0 0 1 5.151 5.151v56.351a5.15 5.15 0 0 1-5.151 5.151z" fill="#fd5426"></path><path d="M360.048 505.558v-56.351a5.15 5.15 0 0 1 5.151-5.151h-34.676a5.15 5.15 0 0 0-5.151 5.151v56.351a5.15 5.15 0 0 0 5.151 5.151h34.676a5.15 5.15 0 0 1-5.151-5.151z" fill="#ef4424"></path><path d="M475.341 484.883h-113.31c-4.143 0-7.5-3.358-7.5-7.5s3.357-7.5 7.5-7.5h113.31a7.5 7.5 0 0 1 0 15z" fill="#d73d24"></path></g></svg>