<svg viewBox="0 0 512 512" xmlns="http://www.w3.org/2000/svg"><g><path d="M83.671 211.666v7a7.5 7.5 0 0 0 15 0v-7zM91.171 260.608a7.5 7.5 0 0 1-7.5-7.5v-9.841a7.5 7.5 0 0 1 15 0v9.841a7.5 7.5 0 0 1-7.5 7.5zM97.171 291.21h-6a7.5 7.5 0 0 1-7.5-7.5v-6a7.5 7.5 0 0 1 14.875-1.375 7.5 7.5 0 0 1-1.375 14.875zM127.279 276.21h-7a7.5 7.5 0 0 0 0 15h7zM413.329 211.666v7a7.5 7.5 0 0 0 15 0v-7zM420.829 260.608a7.5 7.5 0 0 1-7.5-7.5v-9.841a7.5 7.5 0 0 1 15 0v9.841a7.5 7.5 0 0 1-7.5 7.5zM420.829 291.21h-6a7.5 7.5 0 0 1-1.375-14.875 7.5 7.5 0 0 1 14.875 1.375v6a7.5 7.5 0 0 1-7.5 7.5zM391.721 276.21h-7v15h7a7.5 7.5 0 0 0 0-15z" fill="#05e39c"></path><path d="M144.646 320.727h222.707v31.841H144.646z" fill="#6354b1"></path><path d="M324.18 320.727h43.173v31.841H324.18z" fill="#54469c"></path><path d="M375.419 321.82H136.581c-5.69 0-10.302-4.612-10.302-10.302v-44.831c0-5.69 4.612-10.302 10.302-10.302H375.42c5.69 0 10.302 4.612 10.302 10.302v44.831c-.001 5.69-4.613 10.302-10.303 10.302z" fill="#8379c1"></path><path d="M375.419 256.385h-43.186c5.69 0 10.302 4.612 10.302 10.302v44.831c0 5.689-4.612 10.302-10.302 10.302h43.186c5.69 0 10.302-4.612 10.302-10.302v-44.831c0-5.689-4.612-10.302-10.302-10.302z" fill="#6e61b6"></path><path d="M350.341 296.603h-88.128a7.5 7.5 0 0 1 0-15h88.128a7.5 7.5 0 0 1 0 15z" fill="#54469c"></path><path d="M195.565 296.603h-3.61a7.5 7.5 0 0 1 0-15h3.61a7.5 7.5 0 0 1 0 15z" fill="#05e39c"></path><path d="M165.482 296.603h-3.61a7.5 7.5 0 0 1 0-15h3.61a7.5 7.5 0 0 1 0 15z" fill="#ffffff"></path><path d="M144.646 415.817h222.707v31.841H144.646z" fill="#6354b1"></path><path d="M324.18 415.817h43.173v31.841H324.18z" fill="#54469c"></path><path d="M375.419 416.91H136.581c-5.69 0-10.302-4.612-10.302-10.302v-44.831c0-5.69 4.612-10.302 10.302-10.302H375.42c5.69 0 10.302 4.612 10.302 10.302v44.831c-.001 5.69-4.613 10.302-10.303 10.302z" fill="#8379c1"></path><path d="M375.419 351.475h-43.186c5.69 0 10.302 4.612 10.302 10.302v44.831c0 5.69-4.612 10.302-10.302 10.302h43.186c5.69 0 10.302-4.612 10.302-10.302v-44.831c0-5.689-4.612-10.302-10.302-10.302z" fill="#6e61b6"></path><path d="M350.341 391.693h-88.128a7.5 7.5 0 0 1 0-15h88.128a7.5 7.5 0 0 1 0 15z" fill="#54469c"></path><path d="M195.565 391.693h-3.61a7.5 7.5 0 0 1 0-15h3.61a7.5 7.5 0 0 1 0 15z" fill="#ffffff"></path><path d="M165.482 391.693h-3.61a7.5 7.5 0 0 1 0-15h3.61a7.5 7.5 0 0 1 0 15z" fill="#05e39c"></path><path d="M375.419 512H136.581c-5.69 0-10.302-4.612-10.302-10.302v-44.831c0-5.69 4.612-10.302 10.302-10.302H375.42c5.69 0 10.302 4.612 10.302 10.302v44.831c-.001 5.69-4.613 10.302-10.303 10.302z" fill="#8379c1"></path><path d="M375.419 446.565h-43.186c5.69 0 10.302 4.612 10.302 10.302v44.831c0 5.69-4.612 10.302-10.302 10.302h43.186c5.69 0 10.302-4.612 10.302-10.302v-44.831c0-5.689-4.612-10.302-10.302-10.302z" fill="#6e61b6"></path><path d="M350.341 486.783h-88.128a7.5 7.5 0 0 1 0-15h88.128a7.5 7.5 0 0 1 0 15z" fill="#54469c"></path><path d="M195.565 486.783h-3.61a7.5 7.5 0 0 1 0-15h3.61a7.5 7.5 0 0 1 0 15z" fill="#05e39c"></path><path d="M165.482 486.783h-3.61a7.5 7.5 0 0 1 0-15h3.61a7.5 7.5 0 0 1 0 15z" fill="#ffffff"></path><path d="M290.589 217.698h-14.574v-96.181h-40.031v96.181H221.41c-2.592 0-4.032 2.998-2.413 5.021l34.589 43.228a3.09 3.09 0 0 0 4.826 0l34.589-43.228c1.62-2.023.18-5.021-2.412-5.021z" fill="#05e39c"></path><path d="M290.589 217.698h-14.574v-96.181h-21.202v85.88c0 5.69 4.612 10.302 10.302 10.302h10.703l-30.419 38.017 8.188 10.233a3.09 3.09 0 0 0 4.826 0l34.589-43.228c1.619-2.025.179-5.023-2.413-5.023z" fill="#0ed290"></path><path d="M278.856 0h-64.704a5.15 5.15 0 0 0-5.151 5.151v112.245a5.15 5.15 0 0 0 5.151 5.151h83.695a5.15 5.15 0 0 0 5.151-5.151V24.142a5.15 5.15 0 0 0-1.509-3.642l-18.99-18.991A5.151 5.151 0 0 0 278.856 0z" fill="#ffd15b"></path><path d="M301.49 20.5 282.499 1.509A5.15 5.15 0 0 0 278.857 0h-32.325a5.15 5.15 0 0 1 3.642 1.509l18.99 18.991a5.15 5.15 0 0 1 1.509 3.642v93.254a5.15 5.15 0 0 1-5.151 5.151h32.325a5.15 5.15 0 0 0 5.151-5.151V24.142a5.15 5.15 0 0 0-1.508-3.642z" fill="#ffc344"></path><path d="M272.919 43.57H239.08a7.5 7.5 0 0 1 0-15h33.839a7.5 7.5 0 0 1 0 15zM272.919 71.021H239.08a7.5 7.5 0 0 1 0-15h33.839a7.5 7.5 0 0 1 0 15zM255.271 98.471H239.08a7.5 7.5 0 0 1 0-15h16.191a7.5 7.5 0 0 1 0 15z" fill="#eca026"></path><path d="M140.047 90.119H75.343a5.15 5.15 0 0 0-5.151 5.151v112.245a5.15 5.15 0 0 0 5.151 5.151h83.695a5.15 5.15 0 0 0 5.151-5.151v-93.254a5.15 5.15 0 0 0-1.509-3.642l-18.991-18.991a5.15 5.15 0 0 0-3.642-1.509z" fill="#ffd15b"></path><path d="m162.68 110.619-18.991-18.991a5.15 5.15 0 0 0-3.642-1.509h-32.59a5.15 5.15 0 0 1 3.642 1.509l18.991 18.991a5.15 5.15 0 0 1 1.509 3.642v93.254a5.15 5.15 0 0 1-5.151 5.151h32.59a5.15 5.15 0 0 0 5.151-5.151v-93.254a5.15 5.15 0 0 0-1.509-3.642z" fill="#ffc344"></path><path d="M134.11 133.688h-33.839a7.5 7.5 0 0 1 0-15h33.839a7.5 7.5 0 0 1 0 15zM134.11 161.14h-33.839a7.5 7.5 0 0 1 0-15h33.839a7.5 7.5 0 0 1 0 15zM116.462 188.59h-16.191a7.5 7.5 0 0 1 0-15h16.191a7.5 7.5 0 0 1 0 15z" fill="#eca026"></path><path d="M417.666 90.119h-64.704a5.15 5.15 0 0 0-5.151 5.151v112.245a5.15 5.15 0 0 0 5.151 5.151h83.695a5.15 5.15 0 0 0 5.151-5.151v-93.254a5.15 5.15 0 0 0-1.509-3.642l-18.991-18.991a5.15 5.15 0 0 0-3.642-1.509z" fill="#ffd15b"></path><path d="m440.299 110.619-18.991-18.991a5.15 5.15 0 0 0-3.642-1.509h-32.06a5.15 5.15 0 0 1 3.642 1.509l18.991 18.991a5.15 5.15 0 0 1 1.509 3.642v93.254a5.15 5.15 0 0 1-5.151 5.151h32.061a5.15 5.15 0 0 0 5.151-5.151v-93.254a5.156 5.156 0 0 0-1.51-3.642z" fill="#ffc344"></path><path d="M411.729 133.688H377.89a7.5 7.5 0 0 1 0-15h33.839a7.5 7.5 0 0 1 0 15zM411.729 161.14H377.89a7.5 7.5 0 0 1 0-15h33.839a7.5 7.5 0 0 1 0 15zM394.081 188.59H377.89a7.5 7.5 0 0 1 0-15h16.191a7.5 7.5 0 0 1 0 15z" fill="#eca026"></path><path d="M396.843 54.183h-43.881a5.15 5.15 0 0 1-5.151-5.151V5.151A5.15 5.15 0 0 1 352.962 0h43.881a5.15 5.15 0 0 1 5.151 5.151v43.881a5.152 5.152 0 0 1-5.151 5.151z" fill="#ffe177"></path><path d="M396.843 0h-21.342a5.15 5.15 0 0 1 5.151 5.151v43.881a5.15 5.15 0 0 1-5.151 5.151h21.342a5.15 5.15 0 0 0 5.151-5.151V5.151A5.151 5.151 0 0 0 396.843 0z" fill="#ffd15b"></path><path d="M159.038 54.183h-43.881a5.15 5.15 0 0 1-5.151-5.151V5.151A5.15 5.15 0 0 1 115.157 0h43.881a5.15 5.15 0 0 1 5.151 5.151v43.881a5.151 5.151 0 0 1-5.151 5.151z" fill="#ffe177"></path><path d="M159.038 0h-21.509a5.15 5.15 0 0 1 5.151 5.151v43.881a5.15 5.15 0 0 1-5.151 5.151h21.509a5.15 5.15 0 0 0 5.151-5.151V5.151A5.15 5.15 0 0 0 159.038 0z" fill="#ffd15b"></path></g></svg>