<svg viewBox="0 0 64 64" xmlns="http://www.w3.org/2000/svg"><g><g><path d="M63 44v19H51z" fill="#febd55"></path><path d="M54.68 44.68 57 41l6 3-12 19-6-3 1.94-3.06z" fill="#edf4fa"></path><path d="M13.59 29.59A1.955 1.955 0 0 1 15 29a6.87 6.87 0 0 1 3.69 1.07L28 36h-4.5a3.414 3.414 0 0 0-1.99.63L13.17 31c-.05-.04-.11-.07-.16-.11a1.936 1.936 0 0 1 .58-1.3z" fill="#feb589"></path><path d="M22 43s-8.95-7.16-13.03-10.42a7.893 7.893 0 0 0-.97-.66v-.19A1.794 1.794 0 0 1 9.86 30H10a5.449 5.449 0 0 1 3.01.89c.05.04.11.07.16.11l8.34 5.63a3.637 3.637 0 0 0-.48.4A3.46 3.46 0 0 0 20 39.5a3.5 3.5 0 0 0 3.5 3.5z" fill="#feb589"></path><path d="M8.97 32.58C13.05 35.84 22 43 22 43h1.5a3.5 3.5 0 0 1-3.5-3.5 3.46 3.46 0 0 1 1.03-2.47 3.637 3.637 0 0 1 .48-.4A3.414 3.414 0 0 1 23.5 36H42a9.691 9.691 0 0 1 6.83 2.83l5.85 5.85-7.74 12.26L46 56H28.69a12.544 12.544 0 0 1-8.23-3.07L2.13 37.03A3.477 3.477 0 0 1 1 34.47v-.09A3.376 3.376 0 0 1 4.38 31h.07a7.251 7.251 0 0 1 3.55.92 7.893 7.893 0 0 1 .97.66z" fill="#ffd6bd"></path><path d="M39 40H24a3.985 3.985 0 0 1-3.546-2.186A3.447 3.447 0 0 0 20 39.5a3.5 3.5 0 0 0 3.5 3.5H42a3 3 0 0 0-3-3z" fill="#fec09b"></path><path d="m52.222 42.222-2.685 4.221A12 12 0 0 1 39.413 52H27.1a5.993 5.993 0 0 1-3.74-1.309L4.648 35.773a4 4 0 0 1-1.323-4.589A3.364 3.364 0 0 0 1 34.38v.09a3.477 3.477 0 0 0 1.13 2.56l18.33 15.9A12.544 12.544 0 0 0 28.69 56H46l.94.94 7.74-12.26z" fill="#fec09b"></path><path d="M20 39.5a3.46 3.46 0 0 1 1.03-2.47 3.637 3.637 0 0 1 .48-.4l-.727-.491a3.994 3.994 0 0 1-4.49.138l-7.241-4.608a.982.982 0 0 1-.323-1.306A1.681 1.681 0 0 0 8 31.73v.19a7.893 7.893 0 0 1 .97.66C13.05 35.84 22 43 22 43h1.5a3.5 3.5 0 0 1-3.5-3.5z" fill="#eda377"></path><path d="M23.606 35a6 6 0 0 1-3-.8l-5.127-2.957a1.987 1.987 0 0 1-1.058-2.143 1.982 1.982 0 0 0-1.411 1.8c.05.04.11.07.16.11l8.34 5.63A3.414 3.414 0 0 1 23.5 36H28l-1.57-1z" fill="#eda377"></path><path d="M60.446 58a2 2 0 0 1-1.736-2.992L63 47.5V44L51 63h12v-5z" fill="#fc9e20"></path><path d="m60.022 42.511-8.189 12.656a3.991 3.991 0 0 1-4.759 1.561l-.134.212L45 60l6 3 12-19z" fill="#d6e0eb"></path><path d="M47 16c0 1.089-2.314 1.9-2.54 2.915-.233 1.051 1.5 2.805 1.057 3.754s-2.881.663-3.526 1.491.174 3.188-.638 3.853-2.867-.683-3.809-.218c-.926.458-1.18 2.948-2.206 3.187-.994.232-2.275-1.894-3.338-1.894s-2.344 2.126-3.338 1.894c-1.027-.239-1.281-2.729-2.207-3.187-.942-.465-3 .878-3.809.217s.011-3.02-.637-3.852-3.072-.528-3.526-1.492c-.447-.948 1.29-2.7 1.057-3.754C19.314 17.9 17 17.088 17 16s2.314-1.9 2.54-2.915c.233-1.051-1.5-2.805-1.057-3.754s2.881-.663 3.526-1.491-.174-3.188.638-3.853 2.867.683 3.809.218c.926-.458 1.18-2.948 2.206-3.187.994-.232 2.275 1.894 3.338 1.894s2.344-2.126 3.338-1.894c1.027.239 1.281 2.729 2.207 3.187.942.465 3-.878 3.809-.217s-.011 3.02.637 3.852 3.072.528 3.526 1.492c.447.948-1.29 2.7-1.057 3.754C44.686 14.1 47 14.912 47 16z" fill="#cb3541"></path><path d="M44 16c0 .871-1.851 1.517-2.032 2.332-.187.841 1.2 2.244.845 3s-2.3.531-2.82 1.193.139 2.551-.511 3.082-2.293-.546-3.046-.174-.945 2.359-1.766 2.55c-.8.185-1.82-1.515-2.67-1.515s-1.875 1.7-2.671 1.515c-.821-.191-1.024-2.184-1.765-2.55s-2.4.7-3.047.174.009-2.416-.51-3.082-2.457-.422-2.821-1.193 1.033-2.162.846-3C21.851 17.517 20 16.871 20 16s1.851-1.517 2.032-2.332c.187-.841-1.2-2.244-.845-3s2.3-.531 2.82-1.193-.139-2.551.511-3.082 2.293.546 3.046.174.945-2.359 1.766-2.55c.8-.185 1.82 1.515 2.67 1.515s1.875-1.7 2.671-1.515c.821.191 1.024 2.184 1.765 2.55s2.4-.7 3.047-.174-.009 2.416.51 3.082 2.457.422 2.821 1.193-1.033 2.162-.846 3C42.149 14.483 44 15.129 44 16z" fill="#ff6161"></path><g fill="#fbfbfb"><path d="M26 23a1 1 0 0 1-.707-1.707l12-12a1 1 0 0 1 1.414 1.414l-12 12A1 1 0 0 1 26 23zM35 24a3 3 0 1 1 3-3 3 3 0 0 1-3 3zm0-4a1 1 0 1 0 1 1 1 1 0 0 0-1-1zM29 14a3 3 0 1 1 3-3 3 3 0 0 1-3 3zm0-4a1 1 0 1 0 1 1 1 1 0 0 0-1-1z" fill="#fbfbfb"></path></g></g></g></svg>