<svg viewBox="0 0 512 512" xmlns="http://www.w3.org/2000/svg"><g><path d="M95.414 512c-22.918 0-42.062-16.14-46.691-37.672-1.114-5.18 2.77-10.086 8.07-10.086h17.46c11.688 0 21.161-9.472 21.161-21.156V164.715C95.414 73.746 169.156 0 260.125 0 351.098 0 424.84 73.746 424.84 164.715v278.37c0 11.685 9.472 21.157 21.156 21.157h17.465c5.297 0 9.184 4.906 8.07 10.086C466.902 495.86 447.758 512 424.84 512zm0 0" fill="#3d4851"></path><path d="M259.426 44.227c-66.262.382-119.38 55.136-119.38 121.402v58.625c0 17.305 14.028 31.336 31.337 31.336h18.144c8.535 0 15.457 6.918 15.457 15.453 0 12.11 9.817 21.926 21.926 21.926h9.344l7.726-2.211 7.727 2.21h15.441l7.723-2.468 7.727 2.469h10.746c12.11 0 21.93-9.817 21.93-21.926 0-8.535 6.917-15.453 15.453-15.453h18.144c17.309 0 31.336-14.031 31.336-31.336v-59.945c0-66.45-54.25-120.465-120.781-120.082zm0 0" fill="#ebebeb"></path><path d="M259.426 44.227c-66.262.382-119.38 55.136-119.38 121.402v30.902c0-66.261 53.118-121.015 119.38-121.398 66.531-.383 120.781 53.633 120.781 120.078v-30.906c0-66.446-54.25-120.461-120.781-120.078zm0 0" fill="#d5d4da"></path><g fill="#333a41"><path d="M191.066 226.719a7.729 7.729 0 0 1-7.726-7.727V207.77a7.726 7.726 0 1 1 15.453 0v11.222a7.726 7.726 0 0 1-7.727 7.727zM329.188 226.719a7.726 7.726 0 0 1-7.727-7.727V207.77a7.726 7.726 0 1 1 15.453 0v11.222a7.729 7.729 0 0 1-7.726 7.727zM270.156 228.68l-5.347-10.332c-1.98-3.825-7.473-3.743-9.344.132l-4.98 10.333c-1.672 3.468.855 7.492 4.703 7.492h10.332c3.918 0 6.437-4.149 4.636-7.625zM236.254 292.969v-23.535a7.726 7.726 0 1 1 15.453 0v23.535zM267.145 292.969v-23.535a7.726 7.726 0 1 1 15.453 0v23.535zm0 0" fill="#333a41"></path></g><path d="M374.172 436.75c-15.36-17.629-45.828-42.977-106.094-71.953C191.77 328.633 176.04 302.41 152.23 262.71c-14.52-24.203-32.355-53.938-67.937-91.043-4.211-4.39-11.207-4.484-15.512-.18l-10.18 10.18c-4.163 4.164-4.242 10.902-.163 15.156 32.613 34.024 48.617 60.711 62.855 84.442 25.23 42.066 45.16 75.293 131.246 116.086 58.945 28.343 84.59 51.55 95.246 64.14 4.207 4.969 11.79 5.176 16.227.414l9.918-10.64a10.848 10.848 0 0 0 .242-14.516zm0 0" fill="#e3986d"></path><path d="M152.23 262.71c-7.957-13.26-16.914-28.183-29.23-45.07l-30.832 18.946c12.168 16.422 20.941 31.043 29.125 44.684 3.285 5.476 6.48 10.8 9.742 16.015 8.711-8.305 17.992-16.254 27.836-23.582-2.18-3.555-4.375-7.21-6.64-10.992zm0 0" fill="#d97c40"></path><path d="M151.82 218.637c-7.804-12.32-17.453-26.203-31.09-41.922-7.039-8.117-19.43-8.7-27.28-1.363C57.91 208.566-28.044 303.645 9.144 417.687c0 0 48.054-110.343 137.667-173.421 8.25-5.805 10.407-17.106 5.008-25.63zm0 0" fill="#a5b0bc"></path><path d="M124.852 181.555a335.803 335.803 0 0 0-4.122-4.84c-7.039-8.117-19.43-8.703-27.28-1.363C60.362 206.27-16.384 290.8 3.16 394.332c19.848-97.172 84.477-174.773 121.692-212.777zm0 0" fill="#8597a5"></path><path d="M268.078 364.797c-11.008-5.219-20.754-10.227-29.445-15.102-8.438 8.614-14.305 19.746-16.356 32.157 9.086 5.066 19.114 10.218 30.262 15.5 31.066 14.941 52.875 28.449 68.121 39.73 9.207-7.95 15.988-18.64 19.043-30.797-17.262-12.48-40.45-26.496-71.625-41.488zm0 0" fill="#d97c40"></path><path d="M310.605 391.664c0 16.078-13.035 29.117-29.117 29.117s-29.117-13.039-29.117-29.117c0-16.082 13.035-29.121 29.117-29.121s29.117 13.039 29.117 29.121zm0 0" fill="#ebebeb"></path><path d="M252.371 391.664c0 11.86 7.098 22.059 17.274 26.598 8.453-5.73 15.156-13.715 19.367-23.293 4.207-9.582 5.558-19.922 4.058-30.024a28.984 28.984 0 0 0-11.582-2.402c-16.082 0-29.117 13.039-29.117 29.121zm0 0" fill="#d5d4da"></path><path d="M265.898 362.316c-5.836-14.984-22.714-22.402-37.699-16.566s-22.402 22.715-16.566 37.7c5.836 14.987 22.715 22.402 37.699 16.566s22.402-22.715 16.566-37.7zm0 0" fill="#ebebeb"></path></g></svg>