<svg id="Capa_1" enable-background="new 0 0 512 512" height="512" viewBox="0 0 512 512" width="512" xmlns="http://www.w3.org/2000/svg"><g><path d="m493.927 100.026-230.245-71.952c-5.002-1.563-10.362-1.563-15.364 0l-230.245 71.952c-10.752 3.36-18.073 13.317-18.073 24.582v252.587c0 11.265 7.321 21.222 18.073 24.582l46.335 14.48c1.985.62 3.402 2.373 3.593 4.444l5.502 59.714c.326 3.54 4.056 5.693 7.284 4.206l79.996-36.855c1.159-.534 2.474-.619 3.692-.238l83.843 26.201c5.002 1.563 10.362 1.563 15.364 0l230.245-71.952c10.752-3.359 18.073-13.317 18.073-24.582v-252.587c0-11.265-7.321-21.222-18.073-24.582z" fill="#f2fbff"/><g fill="#dff6fd"><path d="m375.726 282.354c0-13.083-10.644-23.726-23.726-23.726h-16c-4.268 0-7.726 3.459-7.726 7.726v64c0 4.267 3.459 7.726 7.726 7.726s7.726-3.459 7.726-7.726v-24.274h8.274c4.562 0 8.274 3.711 8.274 8.273v16c0 4.267 3.459 7.726 7.726 7.726s7.726-3.459 7.726-7.726v-16c0-6.159-2.36-11.778-6.222-16 3.863-4.22 6.222-9.839 6.222-15.999zm-32 8.274v-16.547h8.274c4.562 0 8.274 3.711 8.274 8.273 0 4.562-3.711 8.274-8.274 8.274z"/><path d="m304 258.628c-4.268 0-7.726 3.459-7.726 7.726v48c0 4.562-3.711 8.274-8.274 8.274s-8.274-3.712-8.274-8.274v-48c0-4.267-3.459-7.726-7.726-7.726s-7.726 3.459-7.726 7.726v48c0 13.083 10.644 23.726 23.726 23.726s23.726-10.643 23.726-23.726v-48c0-4.266-3.458-7.726-7.726-7.726z"/><path d="m288 354.628h-16c-4.268 0-7.726 3.459-7.726 7.726v64c0 4.267 3.459 7.726 7.726 7.726s7.726-3.459 7.726-7.726v-24.274h8.274c4.562 0 8.274 3.711 8.274 8.273v16c0 4.267 3.459 7.726 7.726 7.726s7.726-3.459 7.726-7.726v-16c0-6.159-2.36-11.778-6.222-16 3.862-4.222 6.222-9.841 6.222-16 0-13.081-10.644-23.725-23.726-23.725zm-8.274 32v-16.547h8.274c4.562 0 8.274 3.711 8.274 8.273 0 4.562-3.711 8.274-8.274 8.274z"/><path d="m240 354.628c-4.268 0-7.726 3.459-7.726 7.726v48c0 4.562-3.711 8.274-8.274 8.274s-8.274-3.712-8.274-8.274v-48c0-4.267-3.459-7.726-7.726-7.726s-7.726 3.459-7.726 7.726v48c0 13.083 10.644 23.726 23.726 23.726s23.726-10.643 23.726-23.726v-48c0-4.266-3.458-7.726-7.726-7.726z"/><path d="m224 258.628c-13.082 0-23.726 10.643-23.726 23.726v32c0 13.083 10.644 23.726 23.726 23.726s23.726-10.643 23.726-23.726v-32c0-13.082-10.644-23.726-23.726-23.726zm8.274 55.727c0 4.562-3.711 8.274-8.274 8.274s-8.274-3.712-8.274-8.274v-32c0-4.562 3.711-8.273 8.274-8.273s8.274 3.711 8.274 8.273z"/><path d="m368 354.628c-4.268 0-7.726 3.459-7.726 7.726v31.271l-17.363-34.726c-1.603-3.205-5.193-4.889-8.686-4.064-3.487.823-5.951 3.936-5.951 7.52v64c0 4.267 3.459 7.726 7.726 7.726s7.726-3.459 7.726-7.726v-31.271l17.363 34.726c1.33 2.66 4.033 4.272 6.908 4.272.589 0 1.184-.068 1.778-.208 3.487-.823 5.951-3.936 5.951-7.52v-64c0-4.266-3.458-7.726-7.726-7.726z"/><path d="m176 354.628h-32c-4.268 0-7.726 3.459-7.726 7.726s3.459 7.726 7.726 7.726h8.274v56.274c0 4.267 3.459 7.726 7.726 7.726s7.726-3.459 7.726-7.726v-56.274h8.274c4.268 0 7.726-3.459 7.726-7.726s-3.458-7.726-7.726-7.726z"/><path d="m179.456 259.444c-3.819-1.908-8.459-.361-10.366 3.455l-9.09 18.179-9.09-18.179c-1.906-3.816-6.547-5.363-10.366-3.455-3.816 1.908-5.363 6.549-3.455 10.366l15.184 30.368v30.177c0 4.267 3.459 7.726 7.726 7.726s7.726-3.459 7.726-7.726v-30.177l15.184-30.368c1.91-3.816.363-8.458-3.453-10.366z"/><path d="m306.575 142.545h8.22c2.132 0 3.341-2.443 2.048-4.138l-24.748-32.436c-2.062-2.702-6.129-2.702-8.19 0l-24.748 32.436c-1.293 1.695-.085 4.138 2.048 4.138h8.22c1.422 0 2.575 1.153 2.575 2.575v45.425c0 8.837-7.163 16-16 16-8.837 0-16-7.163-16-16v-32h-32v32c0 26.51 21.49 48 48 48 26.51 0 48-21.49 48-48v-45.425c0-1.422 1.153-2.575 2.575-2.575z"/><path d="m493.927 100.026-65.786-20.558c19.493 8.681 32.349 28.115 32.349 49.844v211.244c0 23.869-15.512 44.969-38.295 52.088l-201.428 62.946c-7.979 2.493-16.387 3.109-24.578 1.849l52.128 16.29c5.002 1.563 10.362 1.563 15.364 0l230.245-71.952c10.753-3.359 18.074-13.317 18.074-24.582v-252.587c0-11.265-7.321-21.222-18.073-24.582z"/></g><path d="m306.5 121.941h8.448c2.07 0 3.243-2.371 1.988-4.016l-24.96-32.715c-2.001-2.623-5.949-2.623-7.95 0l-24.96 32.715c-1.255 1.645-.082 4.016 1.988 4.016h8.448c1.381 0 2.5 1.119 2.5 2.5v45.5c0 8.837-7.163 16-16 16-8.837 0-16-7.163-16-16v-27c0-2.761-2.239-5-5-5h-22c-2.761 0-5 2.239-5 5v27c0 26.51 21.49 48 48 48 26.51 0 48-21.49 48-48v-45.5c-.002-1.38 1.117-2.5 2.498-2.5z" fill="#0055a3"/><g><g fill="#fe9738"><path d="m375.5 266.902c0-12.958-10.542-23.5-23.5-23.5h-16c-4.143 0-7.5 3.358-7.5 7.5v64c0 4.142 3.357 7.5 7.5 7.5s7.5-3.358 7.5-7.5v-24.5h8.5c4.687 0 8.5 3.813 8.5 8.5v16c0 4.142 3.357 7.5 7.5 7.5s7.5-3.358 7.5-7.5v-16c0-6.175-2.394-11.802-6.303-16 3.909-4.198 6.303-9.825 6.303-16zm-32 8.5v-17h8.5c4.687 0 8.5 3.813 8.5 8.5s-3.813 8.5-8.5 8.5z"/><path d="m288 322.402c12.958 0 23.5-10.542 23.5-23.5v-48c0-4.142-3.357-7.5-7.5-7.5s-7.5 3.358-7.5 7.5v48c0 4.687-3.813 8.5-8.5 8.5s-8.5-3.813-8.5-8.5v-48c0-4.142-3.357-7.5-7.5-7.5s-7.5 3.358-7.5 7.5v48c0 12.958 10.542 23.5 23.5 23.5z"/><path d="m288.001 339.402h-16c-4.143 0-7.5 3.358-7.5 7.5v31.923c0 .026-.001.052-.001.077v32c0 4.142 3.357 7.5 7.5 7.5s7.5-3.358 7.5-7.5v-24.5h8.5c4.687 0 8.5 3.813 8.5 8.5v16c0 4.142 3.357 7.5 7.5 7.5s7.5-3.358 7.5-7.5v-16c0-6.175-2.394-11.801-6.302-15.999 3.909-4.198 6.303-9.825 6.303-16.001 0-12.958-10.542-23.5-23.5-23.5zm-8.5 32v-17h8.5c4.687 0 8.5 3.813 8.5 8.5s-3.813 8.5-8.5 8.5z"/><path d="m240 339.402c-4.143 0-7.5 3.358-7.5 7.5v48c0 4.687-3.813 8.5-8.5 8.5s-8.5-3.813-8.5-8.5v-48c0-4.142-3.357-7.5-7.5-7.5s-7.5 3.358-7.5 7.5v48c0 12.958 10.542 23.5 23.5 23.5s23.5-10.542 23.5-23.5v-48c0-4.142-3.357-7.5-7.5-7.5z"/><path d="m224 243.402c-12.958 0-23.5 10.542-23.5 23.5v32c0 12.958 10.542 23.5 23.5 23.5s23.5-10.542 23.5-23.5v-32c0-12.958-10.542-23.5-23.5-23.5zm8.5 55.5c0 4.687-3.813 8.5-8.5 8.5s-8.5-3.813-8.5-8.5v-32c0-4.687 3.813-8.5 8.5-8.5s8.5 3.813 8.5 8.5z"/><path d="m368 339.402c-4.143 0-7.5 3.358-7.5 7.5v32.229l-17.792-35.583c-1.555-3.111-5.042-4.746-8.432-3.945-3.385.799-5.776 3.821-5.776 7.299v64c0 4.142 3.357 7.5 7.5 7.5s7.5-3.358 7.5-7.5v-32.229l17.792 35.583c1.291 2.583 3.915 4.147 6.706 4.147.571 0 1.149-.066 1.726-.202 3.385-.799 5.776-3.821 5.776-7.299v-64c0-4.142-3.357-7.5-7.5-7.5z"/><path d="m176 339.402h-32c-4.143 0-7.5 3.358-7.5 7.5s3.357 7.5 7.5 7.5h8.5v56.5c0 4.142 3.357 7.5 7.5 7.5s7.5-3.358 7.5-7.5v-56.5h8.5c4.143 0 7.5-3.358 7.5-7.5s-3.357-7.5-7.5-7.5z"/><path d="m179.354 244.194c-3.706-1.854-8.211-.351-10.062 3.354l-9.292 18.583-9.292-18.584c-1.852-3.705-6.355-5.207-10.062-3.354-3.704 1.852-5.206 6.357-3.354 10.062l15.208 30.416v30.23c0 4.142 3.357 7.5 7.5 7.5s7.5-3.358 7.5-7.5v-30.23l15.208-30.416c1.853-3.704.351-8.209-3.354-10.061z"/></g></g></g></svg>