<svg viewBox="0 0 512 512" xmlns="http://www.w3.org/2000/svg"><g><path d="M436.992 415.779 271 249.787V15c0-8.284-6.716-15-15-15C114.709 0 0 114.709 0 256s114.709 256 256 256c70.635 0 134.635-28.672 180.992-75.008 5.858-5.858 5.858-15.355 0-21.213z" fill="#00b4ff"></path><path d="M75.016 436.984C121.355 483.323 185.355 512 256 512c70.635 0 134.635-28.672 180.992-75.008 5.858-5.858 5.858-15.355 0-21.213L271 249.787V241z" fill="#0078ff"></path><path d="M256 0v256l227.168 25.748C498.538 283.49 512 271.467 512 256 512 114.709 397.291 0 256 0z" fill="#ffe100"></path><path d="M483.168 281.748C498.538 283.49 512 271.467 512 256c0-70.645-28.677-134.645-75.016-180.984L256 256z" fill="#ffaf00"></path><path d="M512 256c0 70.635-28.672 134.635-75.008 180.992L256 256z" fill="#ff004b"></path></g></svg>