<svg viewBox="0 0 682.667 682.667" xmlns="http://www.w3.org/2000/svg"><g><defs><clippath clippathunits="userSpaceOnUse" id="a"><path d="M0 512h512V0H0Z" fill="#000000"></path></clippath></defs><g clip-path="url(#a)" transform="matrix(1.33333 0 0 -1.33333 0 682.667)"><path d="M0 0h-321.989c-16.102 0-29.155 13.053-29.155 29.154v453.692c0 16.101 13.053 29.154 29.155 29.154H0c16.101 0 29.154-13.053 29.154-29.154V29.154C29.154 13.053 16.101 0 0 0" fill="#ffe8d2" transform="translate(366.023)"></path><path d="M0 0h-26.89v-132.607c0-176.035-142.765-318.739-318.875-318.739h-5.372v-31.507c0-16.097 13.056-29.147 29.16-29.147H0c16.104 0 29.16 13.05 29.16 29.147v453.706C29.16-13.05 16.104 0 0 0" fill="#f7d4ad" transform="translate(366.017 512)"></path><path d="M0 0h-269.91a7.757 7.757 0 0 0-7.759 7.755 7.756 7.756 0 0 0 7.759 7.755H0a7.756 7.756 0 0 0 7.759-7.755A7.757 7.757 0 0 0 0 0" fill="#e2a876" transform="translate(353.161 158.202)"></path><path d="M0 0h-269.91a7.757 7.757 0 0 0-7.759 7.755 7.757 7.757 0 0 0 7.759 7.755H0a7.757 7.757 0 0 0 7.759-7.755A7.757 7.757 0 0 0 0 0" fill="#e2a876" transform="translate(353.161 116.542)"></path><path d="M0 0h-269.91a7.757 7.757 0 0 0-7.759 7.755 7.757 7.757 0 0 0 7.759 7.755H0a7.757 7.757 0 0 0 7.759-7.755A7.757 7.757 0 0 0 0 0" fill="#e2a876" transform="translate(353.161 74.88)"></path><path d="M0 0h-269.91a7.756 7.756 0 0 0-7.759 7.755 7.757 7.757 0 0 0 7.759 7.755H0a7.757 7.757 0 0 0 7.759-7.755A7.756 7.756 0 0 0 0 0" fill="#e2a876" transform="translate(353.161 33.22)"></path><path d="M0 0h-269.91a7.757 7.757 0 0 0-7.759 7.756 7.757 7.757 0 0 0 7.759 7.755H0a7.757 7.757 0 0 0 7.759-7.755A7.757 7.757 0 0 0 0 0" fill="#e2a876" transform="translate(353.161 241.523)"></path><path d="M0 0h-269.91a7.757 7.757 0 0 0-7.759 7.755 7.757 7.757 0 0 0 7.759 7.756H0a7.757 7.757 0 0 0 7.759-7.756A7.757 7.757 0 0 0 0 0" fill="#e2a876" transform="translate(353.161 199.863)"></path><path d="M0 0a7.758 7.758 0 0 0-7.758-7.756A7.758 7.758 0 0 0-15.517 0a7.758 7.758 0 0 0 7.759 7.755A7.758 7.758 0 0 0 0 0" fill="#e2a876" transform="translate(62.47 165.958)"></path><path d="M0 0a7.758 7.758 0 0 0-7.758-7.756A7.758 7.758 0 0 0-15.517 0a7.758 7.758 0 0 0 7.759 7.755A7.758 7.758 0 0 0 0 0" fill="#e2a876" transform="translate(62.47 249.28)"></path><path d="M0 0a7.757 7.757 0 0 0-7.758-7.755A7.757 7.757 0 0 0-15.517 0a7.757 7.757 0 0 0 7.759 7.755A7.757 7.757 0 0 0 0 0" fill="#e2a876" transform="translate(62.47 207.618)"></path><path d="M0 0a7.757 7.757 0 0 0-7.758-7.755A7.757 7.757 0 0 0-15.517 0a7.757 7.757 0 0 0 7.759 7.755A7.757 7.757 0 0 0 0 0" fill="#e2a876" transform="translate(62.47 124.297)"></path><path d="M0 0a7.758 7.758 0 0 0-7.758-7.755A7.758 7.758 0 0 0-15.517 0a7.758 7.758 0 0 0 7.759 7.756A7.758 7.758 0 0 0 0 0" fill="#e2a876" transform="translate(62.47 82.636)"></path><path d="M0 0a7.757 7.757 0 0 0-7.758-7.755A7.757 7.757 0 0 0-15.517 0a7.757 7.757 0 0 0 7.759 7.755A7.757 7.757 0 0 0 0 0" fill="#e2a876" transform="translate(62.47 40.976)"></path><path d="M0 0h-77.348c-11.949 0-20.945 10.877-18.696 22.604l3.038 15.869a33.815 33.815 0 0 0 5.148 12.523A34.024 34.024 0 0 0-71.146 64.1l32.692 11.853 32.44-11.763a34.037 34.037 0 0 0 16.776-13.201v-.007a33.933 33.933 0 0 0 5.154-12.824l2.821-15.777C20.826 10.716 11.858 0 0 0" fill="#b8b6ff" transform="translate(243.52 298.237)"></path><path d="m0 0-18.291-15.96L-36.57 0v24.5H0Z" fill="#ecbd83" transform="translate(222.956 367.658)"></path><path d="M0 0v-20.765c0-16.283-13.332-29.997-29.619-29.682C-45.403-50.144-58.1-37.26-58.1-21.414V0c0 16.037 13.006 24.406 29.05 24.406S0 16.037 0 0" fill="#f7d4ad" transform="translate(233.715 435.375)"></path><path d="M0 0v-28.036h-8.297c-11.949 0-20.945 10.877-18.696 22.604l3.038 15.869a33.838 33.838 0 0 0 5.147 12.523C-8.073 20.817 0 11.351 0 0" fill="#a09eef" transform="translate(174.47 326.273)"></path><path d="M0 0h-7.997v28.036c0 11.33 8.053 20.789 18.759 22.946a33.933 33.933 0 0 0 5.154-12.824l2.821-15.777C20.826 10.716 11.858 0 0 0" fill="#a09eef" transform="translate(243.52 298.237)"></path><path d="M0 0c-1.088-.834-1.897-1.433-1.897-1.433a52.449 52.449 0 0 0-6.688-3.236c-10.894-4.357-21.545-4.518-26.696-.91 0 0-5.38 4.012-7.396 6.574-2.014 2.563-8.424 3.211-13.736-2.428-.557-.589-1.121-.977-1.687-1.205v1.205c0 16.049 13.012 29.054 29.067 29.054a28.955 28.955 0 0 0 20.55-8.513A28.911 28.911 0 0 0 0 0" fill="#6e4848" transform="translate(233.715 436.791)"></path><path d="m0 0-26.37 20.637a4.143 4.143 0 0 1-5.109 0L-57.849 0c-2.719-2.128-6.698-.191-6.698 3.262v147.959a4.143 4.143 0 0 0 4.144 4.141H2.555a4.142 4.142 0 0 0 4.143-4.141V3.262C6.698-.191 2.72-2.128 0 0" fill="#ff445c" transform="translate(424.102 163.444)"></path><path d="M0 0c0-13.006-14.132-23.107-18.824-34.417-4.864-11.722-2.204-28.814-11.043-37.647-8.837-8.832-25.929-6.162-37.654-11.021-11.311-4.687-21.416-18.817-34.421-18.817-13.007 0-23.112 14.13-34.422 18.817-11.726 4.859-28.818 2.189-37.656 11.021-8.838 8.834-6.177 25.925-11.042 37.648-4.692 11.309-18.824 21.41-18.824 34.416 0 13.006 14.132 23.107 18.824 34.416 4.865 11.723 2.205 28.815 11.043 37.648 8.838 8.832 25.929 6.162 37.655 11.021 11.31 4.687 21.415 18.816 34.422 18.816 13.005 0 23.11-14.129 34.421-18.816 11.725-4.859 28.817-2.189 37.655-11.022 8.839-8.833 6.178-25.925 11.042-37.647C-14.132 23.107 0 13.006 0 0" fill="#ff8b59" transform="translate(497.12 371.856)"></path><path d="m0 0 16.372-24.445a2.034 2.034 0 0 1 1.136-.826l28.318-8.009a2.032 2.032 0 0 0 1.044-3.213L28.671-59.611a2.035 2.035 0 0 1-.434-1.335l1.129-29.396a2.033 2.033 0 0 0-2.734-1.985L-.987-82.17a2.047 2.047 0 0 1-1.406 0l-27.619-10.157a2.033 2.033 0 0 0-2.734 1.985l1.129 29.396c.018.482-.135.955-.434 1.335L-50.25-36.493a2.032 2.032 0 0 0 1.045 3.213l28.317 8.009c.465.132.867.424 1.136.826L-3.38 0A2.035 2.035 0 0 0 0 0" fill="#fee07d" transform="translate(396.867 422.255)"></path></g></g></svg>