<svg viewBox="0 0 510 510" xmlns="http://www.w3.org/2000/svg"><g><path d="m134.286 332.833-20.797 80.972V510h60.12V333.461z" fill="#004381"></path><path d="m353.489 269.995 10.13-92.046L353.489 120l-60-60h-61.99c-14.939 0-28.2 9.56-32.92 23.72l-.59 1.78a34.692 34.692 0 0 0 7.479 34.57l58.69 63.27-31.007 66.766 38.002 46.145 51.31 35.812z" fill="#ff5959"></path><path d="m322.464 332.062-89.312-81.957-13.293 28.624-.015-.001 30.895 34.022L292.126 345l11.113 4.875L315.997 345z" fill="#e5f5ff"></path><path d="M131.779 267.38 27.369 429.5l-8.858 13.754 35.073 52.61 9.785-12.364 110.12-150.039L218.62 345l37.119 6.25 36.387-6.25-72.282-66.272z" fill="#0069b0"></path><path d="M248.62 405v-30h104.999l10-15.083-10-14.917H218.62v165h30v-75h104.999l10-17-10-13z" fill="#00d7ff"></path><path d="M368.62 239.757V345h-15.001v30h15.001v30h-15.001v30h15.001v75h30V210.604c0-.23-28.001-.772-28.001-.772z" fill="#00b0f4"></path><path d="M486.889 137.64a34.61 34.61 0 0 0-12.58-12.689L417.56 91.77l-9.937-5.865L353.489 120v149.995l26.64-53.295 87.52-28.851c14.23-4.68 23.841-17.97 23.841-32.949a34.725 34.725 0 0 0-4.601-17.26z" fill="#ff3757"></path><path d="M293.489 60c0 33.137 26.863 60 60 60l10-62.333-10-57.667c-33.136 0-60 26.863-60 60z" fill="#ffdbcc"></path><path d="M353.489 0v120c33.137 0 60-26.863 60-60s-26.863-60-60-60z" fill="#fdbba7"></path></g></svg>