<svg viewBox="0 0 53 53" xmlns="http://www.w3.org/2000/svg"><g><path d="m44.11 30.882-1.983 9.17-4.789-1.035 1.852-8.547-2.718-2.718V46H18.244V27.752l-3.504 3.504a2.885 2.885 0 0 1-4.084-.004l-5.86-5.863 3.461-3.465 4.435 4.446 3.492-3.491a7.013 7.013 0 0 1 4.962-2.056h12.42c1.859 0 3.645.739 4.958 2.056l4.585 4.596a3.708 3.708 0 0 1 1.001 3.407z" fill="#65b9ff"></path><path d="m18.243 27.752-3.5 3.505a2.888 2.888 0 0 1-4.086-.005l-5.86-5.864.627-.631 5.233 5.237a2.888 2.888 0 0 0 4.086.005l3.5-3.505z" fill="#3e7fff"></path><path d="M18.243 46.195h18.228v1.258H18.243z" fill="#a32391"></path><path d="M31.086 20.823v.289a3.733 3.733 0 0 1-3.734 3.722 3.723 3.723 0 0 1-3.723-3.722v-.29z" fill="#deddff"></path><path d="m50.026 49.98-45.554.076-.029-16.049 11.389-.019 11.388-.014 11.389-.02 11.388-.018.029 16.044z" fill="#fcb73e"></path><path d="M50.474 33.934A.475.475 0 0 0 50 33.46l-11.39.018-11.388.018-11.388.019-11.389.018a.475.475 0 0 0-.474.476l.026 16.048c0 .263.214.474.475.474l45.555-.073a.475.475 0 0 0 .474-.476l-.026-16.048zm-22.759 11.21 10.438-.016.008 4.399-10.439.017-.007-4.4zm-11.388.02 10.438-.018.007 4.4-10.438.016-.007-4.399zm10.428-6.318c-.556.001.742 0-10.439.017l-.007-4.399 10.438-.017.008 4.4zm11.388-.018-10.438.017-.007-4.4 10.438-.016.007 4.399zm11.398 5.331-4.744.008-.008-4.4 4.744-.007zm-27.522.045-.007-4.4 10.439-.016.007 4.399-10.439.017zm-.957-4.398.007 4.399-10.438.017-.007-4.4c.837 0 9.38-.014 10.438-.016zm12.346 4.38-.007-4.4 10.438-.017.007 4.4c-.924 0-9.543.015-10.438.016zM4.929 39.831l4.744-.008.008 4.4-4.744.007zm44.603-1.022-10.438.017-.008-4.4 10.439-.016zm-34.173-4.344.007 4.399-10.438.017-.007-4.4zM4.938 45.18l10.438-.016.008 4.399-10.439.016zm34.173 4.344-.007-4.399 10.438-.017.007 4.4z" fill="#fd982e"></path><path d="M13.492 14.74A3.484 3.484 0 0 1 8.8 16.242a3.485 3.485 0 0 1-1.5-4.694c.882-1.71 3.935-4.226 5.645-3.344 1.707.88 1.428 4.826.547 6.536z" fill="#deddff"></path><path d="M8.858 12.467c-.71 1.37-.41 3 .63 4.04a3.88 3.88 0 0 1-.69-.26c-1.71-.89-2.38-2.99-1.5-4.7s3.94-4.23 5.65-3.34c.3.16.55.41.72.74-1.73.02-4.05 2.06-4.81 3.52z" fill="#c6c6f7"></path><path d="M11.06 12.623 7.88 18.79a.352.352 0 0 1-.625-.322l3.18-6.168a.352.352 0 0 1 .625.322z" fill="#c6c6f7"></path><path d="m8.925 18.878-1.436 2.784c-.333.647-1.128.901-1.775.568a1.322 1.322 0 0 1-.572-1.778l1.436-2.784a1.319 1.319 0 0 1 1.78-.565c.647.333.903 1.123.567 1.775z" fill="#e83d62"></path><path d="M8.613 17.274a1.32 1.32 0 0 0-1.053.704l-1.437 2.784c-.3.59-.098 1.254.316 1.608a1.345 1.345 0 0 1-.726-.139c-.608-.314-.92-1.105-.571-1.78l1.436-2.784a1.32 1.32 0 0 1 2.035-.393z" fill="#ce2955"></path><path d="M5.783 25.852a3.29 3.29 0 0 0 3.283-3.283v-.013a3.29 3.29 0 0 0-3.283-3.283c-.91 0-1.731.371-2.321.961-2.05 2.05-.613 5.618 2.321 5.618z" fill="#ffaf93"></path><path d="M2.708 23.725a3.283 3.283 0 0 0 3.075 2.123 3.288 3.288 0 0 0 3.284-3.284v-.011c0-1.404-.893-2.611-2.135-3.075.985 2.545-1.447 5.232-4.224 4.247z" fill="#ee8778"></path><path d="M30.118 18.924v2.156a2.691 2.691 0 1 1-5.384 0v-2.156z" fill="#ffaf93"></path><path d="m26.362 22.969.017.016c.394.395.9.667 1.478.75a2.19 2.19 0 0 1-.428.04 2.691 2.691 0 0 1-2.695-2.695v-1.306c.772.505 1.7.8 2.695.8.244 0 .483-.017.717-.05-1.27-.183-2.399-.883-3.062-1.711h5.034v1.816c-.955.508-2.037.72-2.961.662-.895-.045-1.423 1.044-.795 1.678z" fill="#ee8778"></path><path d="M32.36 9.826v5.816a4.933 4.933 0 0 1-9.866 0V9.826z" fill="#ffaf93"></path><path d="M32.357 9.824v5.816a4.2 4.2 0 0 1-.022.461c-.184 2.392-2.256 4.473-4.906 4.473a4.932 4.932 0 0 1-4.934-4.934V9.824z" fill="#ffaf93"></path><path d="M33.411 8.388v6.204H32.36V9.825h-9.864v4.767h-1.08V8.388z" fill="#8b4f4f"></path><path d="M34.095 14.374c0 .967-.776 1.743-1.743 1.743V12.64c.967 0 1.743.776 1.743 1.733z" fill="#ffaf93"></path><path d="M32.817 12.71a1.743 1.743 0 0 0-.465-.069v3.476c.162 0 .316-.03.465-.07zM23.928 9.315v6.325a4.939 4.939 0 0 0 4.218 4.884c-.234.033-.473.05-.717.05a4.908 4.908 0 0 1-2.695-.8 4.925 4.925 0 0 1-2.239-4.134v.478a1.74 1.74 0 0 1-1.084-3.106c.3-.234.673-.372 1.084-.372V9.315zM27.817 14.978v.704a.433.433 0 1 1-.866 0v-.704a.433.433 0 1 1 .866 0z" fill="#ee8778"></path><path d="M25.881 17.006a1.578 1.578 0 0 0 3.084 0z" fill="#ee8778"></path><path d="M26.03 13.244a1.018 1.018 0 0 0-1.989 0zM30.811 13.244a1.018 1.018 0 0 0-1.988 0z" fill="#312e4b"></path><path d="M33.411 8.128v1.234c-2.685 4.83-11.995 0-11.995 0v-.904c0-.89.33-1.76.975-2.37 3.358-3.204 7.501-.35 7.501-.35s2.152-.905 3.162.883c.26.456.357.982.357 1.507z" fill="#ab604b"></path><path d="M23.963 5.028c-.53.238-1.06.572-1.572 1.06-.645.61-.975 1.48-.975 2.37v.904s1.051.545 2.547 1.085v-5.42z" fill="#8b4f4f"></path><path d="M34.862 10.998c0 .556-.451 1.007-1.008 1.007h-12.88a1.008 1.008 0 1 1 0-2.015h12.88c.557 0 1.008.451 1.008 1.008z" fill="#fcb73e"></path><path d="M25.385 12.006h-4.412a1.008 1.008 0 0 1 0-2.016h4.412a1.008 1.008 0 0 0 0 2.016z" fill="#fd982e"></path><path d="M33.724 9.475v.515h-12.62v-.515a6.31 6.31 0 1 1 12.62 0z" fill="#fcb73e"></path><path d="M28.275 3.223a6.313 6.313 0 0 0-5.449 6.253v.514h-1.722v-.514a6.31 6.31 0 0 1 7.171-6.253z" fill="#fd982e"></path><path d="M33.724 9.476v.514h-12.62v-.514c0-.061 0-.122.005-.183h12.61c.005.06.005.122.005.183zM29.757 3.472l-.464 4.235a.905.905 0 0 1-.9.807h-1.959a.905.905 0 0 1-.9-.807l-.463-4.235a.905.905 0 0 1 .9-1.003h2.886c.539 0 .959.468.9 1.003z" fill="#fd982e"></path><path d="M28.745 4.862a1.317 1.317 0 1 1-2.635.003 1.317 1.317 0 0 1 2.635-.003z" fill="#312e4b"></path><path d="M28.261 4.863a.834.834 0 1 1-1.667.002.834.834 0 0 1 1.667-.002z" fill="#65b9ff"></path><path d="M27.84 4.863a.414.414 0 1 1-.826.001.414.414 0 0 1 .827 0z" fill="#ffffff"></path></g></svg>