<svg viewBox="0 0 512 512" xmlns="http://www.w3.org/2000/svg"><g><path d="M121.083 171.433c-11.46 0-21.294-8.669-22.499-20.318-1.287-12.441 7.755-23.57 20.196-24.857l74.172-7.673 63.841-65.52c8.729-8.957 23.066-9.144 32.025-.416 8.958 8.728 9.144 23.066.416 32.024l-69.568 71.398a22.647 22.647 0 0 1-13.89 6.722l-82.335 8.518c-.792.082-1.579.122-2.358.122z" fill="#ffb69e"></path><path d="m181.25 119.796-62.47 6.462c-12.441 1.287-21.483 12.416-20.196 24.857 1.205 11.649 11.039 20.318 22.499 20.318.779 0 1.566-.04 2.358-.122l64.758-6.699z" fill="#4699f2"></path><path d="m403.988 304.496-81.04-77.277-110.075 57.308c-13.312 6.932-29.724 1.758-36.654-11.555-6.931-13.313-1.758-29.723 11.555-36.654l127.337-66.296a27.178 27.178 0 0 1 31.329 4.461l95.107 90.725c10.849 10.371 11.236 27.574.865 38.423-10.384 10.861-27.587 11.225-38.424.865z" fill="#414b82"></path><path d="m411.47 429.319-109.608-86.83-113.985-11.75 10.854-53.257 120.432 13.064a27.185 27.185 0 0 1 11.579 5.431l114.74 90.947c11.707 9.392 13.584 26.496 4.192 38.204-9.347 11.65-26.444 13.625-38.204 4.191z" fill="#5f6e9b"></path><path d="m230.093 205.229-81.479-68.569c-17.141-14.425-42.605-12.772-57.737 3.748l-26.427 28.85c-16.027 17.497-14.293 44.811 3.819 60.14l119.738 101.34 47.942-56.78c17.385-20.588 14.762-51.378-5.856-68.729z" fill="#64afff"></path><path d="m89.704 383.163-48.85-82.413a22.648 22.648 0 0 1-2.794-17.813l25.713-93.783c3.141-12.107 15.502-19.376 27.608-16.234 12.107 3.141 19.375 15.501 16.234 27.608L84.37 284.799l43.587 74.113c6.696 10.563 3.562 24.556-7.002 31.253-10.543 6.684-24.541 3.582-31.251-7.002z" fill="#ffb69e"></path><path d="m91.025 260.674 16.59-60.146c3.141-12.107-4.127-24.467-16.234-27.608-12.106-3.142-24.467 4.127-27.608 16.234l-16.23 59.197z" fill="#4699f2"></path><circle cx="43.633" cy="108.828" fill="#ffb69e" r="43.632" transform="rotate(-3.33 43.601 108.749)"></circle><path d="M496.761 465.777H48.627c-8.416 0-15.239-6.823-15.239-15.239s6.823-15.239 15.239-15.239h448.134c8.416 0 15.239 6.823 15.239 15.239s-6.823 15.239-15.239 15.239z" fill="#87afb9"></path></g></svg>