<svg viewBox="0 0 512 512" xmlns="http://www.w3.org/2000/svg"><g><path d="M489.076 383.487c6.179-80.595-54.607-127.425-111.304-127.425s-117.483 46.83-111.304 127.425z" fill="#c1a19d"></path><path d="m283.497 422.989 12.107-11.807 9-18.147-8.909-12.609a27.38 27.38 0 0 0-12.198-2.853c-11.926 0-22.075 7.593-25.885 18.208 0 18.491 13.959 27.208 25.885 27.208z" fill="#ebbaa1"></path><path d="M257.612 395.781a27.436 27.436 0 0 0-1.613 9.29c0 15.187 12.312 27.498 27.498 27.498 4.345 0 8.453-1.012 12.107-2.807l9-9.243-9-9.337a27.382 27.382 0 0 1-12.107 2.807c-11.926 0-22.075-7.593-25.885-18.208z" fill="#e8a990"></path><path d="m472.045 422.989-12.107-11.807-9-18.147 8.909-12.609a27.382 27.382 0 0 1 12.199-2.853c11.926 0 22.075 7.593 25.885 18.208-.001 18.491-13.96 27.208-25.886 27.208z" fill="#ebbaa1"></path><path d="M497.93 395.781a27.436 27.436 0 0 1 1.613 9.29c0 15.187-12.311 27.498-27.498 27.498a27.378 27.378 0 0 1-12.107-2.807l-9-9.243 9-9.337a27.382 27.382 0 0 0 12.107 2.807c11.926 0 22.075-7.593 25.885-18.208z" fill="#e8a990"></path><path d="M295.604 411.252c0 58.522 36.788 91.167 82.167 91.167h.001c51.303 0 82.167-36.744 82.167-91.167v-27.216c0-45.38-36.787-82.167-82.167-82.167s-82.167 36.788-82.167 82.167v27.216z" fill="#fdd4bb"></path><path d="M377.771 448.892c-8.906 16.266-26.395 17.188-34.298 16.689-2.41-.152-4.35-2.014-4.647-4.41-4.326-34.982 21.367-43.44 38.945-43.44 17.579 0 43.271 8.458 38.945 43.44-.296 2.396-2.237 4.258-4.647 4.41-7.903.499-25.391-.423-34.298-16.689z" fill="#c1a19d"></path><path d="M377.772 493.419c-45.38 0-82.167-36.788-82.167-82.167v18.581c0 45.38 36.788 82.167 82.167 82.167 45.38 0 82.167-36.787 82.167-82.167v-18.581c0 45.38-36.788 82.167-82.167 82.167z" fill="#f7c4a8"></path><path d="M484.002 124.265c15.542-37.606 4.525-80.037-18.247-96.773-19.034-13.989-41.215-9.973-41.215-9.973S407.848 0 377.749 0C336.642 0 253.167 20.841 269.05 125.609z" fill="#af665a"></path><path d="M257.568 139.746c0 16.884 13.961 27.213 25.89 27.213l12.109-11.807 9-13.992-9-16.819a27.39 27.39 0 0 0-12.109-2.807c-11.929 0-22.08 7.595-25.89 18.212z" fill="#ebbaa1"></path><path d="M257.568 139.746a27.436 27.436 0 0 0-1.613 9.29c0 15.19 12.313 27.503 27.503 27.503 4.346 0 8.455-1.012 12.109-2.807l9-8.72-9-9.86a27.39 27.39 0 0 1-12.109 2.807c-11.929 0-22.08-7.595-25.89-18.213z" fill="#e8a990"></path><path d="M497.931 139.746c0 16.884-13.961 27.213-25.89 27.213l-12.109-11.807-9-13.992 9-16.819a27.39 27.39 0 0 1 12.109-2.807c11.928 0 22.08 7.595 25.89 18.212z" fill="#ebbaa1"></path><path d="M497.931 139.746a27.436 27.436 0 0 1 1.613 9.29c0 15.19-12.313 27.503-27.503 27.503a27.387 27.387 0 0 1-12.109-2.807l-9-8.72 9-9.86a27.39 27.39 0 0 0 12.109 2.807c11.929 0 22.08-7.595 25.89-18.213z" fill="#e8a990"></path><path d="M377.749 246.404c45.388 0 82.182-36.164 82.182-91.182v-30.881c-21.413-9.631-44.38-38.308-52.423-48.983a4.99 4.99 0 0 0-6.983-.997c-14.094 10.566-62.875 45.073-104.958 49.98v30.881c0 61.388 36.794 91.182 82.182 91.182z" fill="#fdd4bb"></path><path d="M377.75 237.404c-45.388 0-82.182-36.794-82.182-82.182v18.581c0 45.388 36.794 82.182 82.182 82.182 45.388 0 82.182-36.794 82.182-82.182v-18.581c0 45.388-36.795 82.182-82.182 82.182z" fill="#f7c4a8"></path><path d="M14.069 141.16c0 18.394 13.96 27.208 25.885 27.208l12.107-11.807 9-13.856-8.909-16.9a27.377 27.377 0 0 0-12.198-2.853c-11.925 0-22.075 7.593-25.885 18.208z" fill="#ebbaa1"></path><path d="M14.069 141.16a27.436 27.436 0 0 0-1.613 9.29c0 15.187 12.311 27.498 27.498 27.498 4.346 0 8.453-1.012 12.107-2.807l9-8.994-9-9.586a27.378 27.378 0 0 1-12.107 2.807c-11.925-.001-22.075-7.594-25.885-18.208z" fill="#e8a990"></path><path d="M254.388 141.16c0 18.394-13.959 27.208-25.885 27.208l-12.107-11.807-9-13.856 8.909-16.9a27.377 27.377 0 0 1 12.198-2.853c11.925 0 22.075 7.593 25.885 18.208z" fill="#ebbaa1"></path><path d="M254.388 141.16a27.436 27.436 0 0 1 1.613 9.29c0 15.187-12.312 27.498-27.498 27.498a27.378 27.378 0 0 1-12.107-2.807l-9-8.994 9-9.586a27.378 27.378 0 0 0 12.107 2.807c11.925-.001 22.075-7.594 25.885-18.208z" fill="#e8a990"></path><path d="M134.228 247.798c45.38 0 82.167-37 82.167-91.167v-27.216c0-45.38-36.788-82.167-82.167-82.167-45.38 0-82.167 36.788-82.167 82.167v27.216c0 56.4 36.788 91.167 82.167 91.167z" fill="#fdd4bb"></path><path d="M134.229 238.798c-45.38 0-82.167-36.788-82.167-82.167v18.581c0 45.38 36.788 82.167 82.167 82.167 45.38 0 82.167-36.787 82.167-82.167V156.63c0 45.38-36.788 82.168-82.167 82.168z" fill="#f7c4a8"></path><path d="M242.67 381.783c23.665-86.431-41.615-100.518-41.615-100.518-23.363-38.48-68.715-23.02-103.315-15.461-25.036 5.469-39.893-1.939-46.193-6.452-2.222-1.591-5.315-1.054-6.916 1.16-5.441 7.522-14.907 24.172-7.805 41.573 0 0-30.235 32.777-11.291 79.697H242.67z" fill="#e5907b"></path><path d="m39.926 423.071 12.095-11.804 9-15.376-9-15.376a27.355 27.355 0 0 0-12.095-2.804c-11.91 0-22.046 7.581-25.855 18.179 0 16.954 13.945 27.181 25.855 27.181z" fill="#ebbaa1"></path><path d="M14.071 395.892a27.412 27.412 0 0 0-1.614 9.29c0 15.171 12.298 27.47 27.47 27.47 4.341 0 8.445-1.011 12.095-2.804l9-9.328-9-9.252a27.355 27.355 0 0 1-12.095 2.804c-11.911-.001-22.047-7.582-25.856-18.18z" fill="#e8a990"></path><path d="m228.28 423.071-12.095-11.804-9-15.376 9-15.376a27.355 27.355 0 0 1 12.095-2.804c11.91 0 22.046 7.581 25.855 18.179 0 16.954-13.945 27.181-25.855 27.181z" fill="#ebbaa1"></path><path d="M254.135 395.892a27.412 27.412 0 0 1 1.614 9.29c0 15.171-12.298 27.47-27.47 27.47a27.355 27.355 0 0 1-12.095-2.804l-9-9.328 9-9.252a27.355 27.355 0 0 0 12.095 2.804c11.911-.001 22.047-7.582 25.856-18.18z" fill="#e8a990"></path><path d="M134.103 502.419c45.333 0 82.083-34.878 82.083-91.082v-30.821s-12.823-15.485-22.938-38.863c-.968-2.237-3.391-3.466-5.76-2.893-10.151 2.454-36.736 8.471-53.385 8.471-16.648 0-43.234-6.017-53.385-8.471-2.369-.573-4.792.656-5.76 2.893-10.115 23.378-22.937 38.863-22.938 38.863v30.821c0 56.205 36.75 91.082 82.083 91.082z" fill="#fdd4bb"></path><path d="M134.103 493.419c-45.333 0-82.083-36.75-82.083-82.082v18.581c0 45.333 36.75 82.082 82.083 82.082s82.082-36.749 82.082-82.082v-18.581c0 45.333-36.749 82.082-82.082 82.082z" fill="#f7c4a8"></path><path d="M134.103 448.957c-8.896 16.246-26.361 17.17-34.259 16.672-2.41-.152-4.35-2.014-4.647-4.41-4.319-34.942 21.345-43.391 38.905-43.391s43.224 8.448 38.905 43.391c-.296 2.396-2.237 4.258-4.647 4.41-7.896.498-25.362-.426-34.257-16.672z" fill="#e5907b"></path><path d="M414.479 407.917a7.756 7.756 0 0 0 7.757-7.757v-13.334a7.757 7.757 0 0 0-15.514 0v13.334a7.757 7.757 0 0 0 7.757 7.757zM341.539 407.917a7.756 7.756 0 0 0 7.757-7.757v-13.334c0-4.284-3.472-7.757-7.757-7.757s-7.757 3.473-7.757 7.757v13.334a7.756 7.756 0 0 0 7.757 7.757z" fill="#565d76"></path><path d="M366.666 357.604c-4.285 0-7.757 3.473-7.757 7.757s3.472 7.757 7.757 7.757h22.685c4.285 0 7.757-3.473 7.757-7.757s-3.472-7.757-7.757-7.757zM361.422 345.474h33.174c4.285 0 7.757-3.473 7.757-7.757s-3.472-7.757-7.757-7.757h-33.174c-4.285 0-7.757 3.473-7.757 7.757s3.472 7.757 7.757 7.757z" fill="#ebbaa1"></path><path d="M414.464 165.013a7.756 7.756 0 0 0 7.757-7.757V143.92a7.757 7.757 0 0 0-15.514 0v13.337a7.756 7.756 0 0 0 7.757 7.756zM341.509 165.013a7.756 7.756 0 0 0 7.757-7.757V143.92c0-4.284-3.472-7.757-7.757-7.757s-7.757 3.473-7.757 7.757v13.337a7.757 7.757 0 0 0 7.757 7.756z" fill="#565d76"></path><path d="M349.502 200.485c2.466 5.989 11.241 16.125 28.485 16.125s26.019-10.136 28.485-16.125a7.758 7.758 0 0 0-14.345-5.908c-.027.065-2.997 6.519-14.14 6.519-11.144 0-14.113-6.454-14.141-6.519a7.758 7.758 0 0 0-14.344 5.908z" fill="#f95750"></path><path d="M170.461 136.164a7.756 7.756 0 0 0-7.757 7.757v13.334a7.757 7.757 0 0 0 15.514 0v-13.334a7.756 7.756 0 0 0-7.757-7.757zM105.277 143.921c0-4.284-3.472-7.757-7.757-7.757s-7.757 3.473-7.757 7.757v13.334c0 4.284 3.472 7.757 7.757 7.757s7.757-3.473 7.757-7.757z" fill="#565d76"></path><path d="M158.257 190.358a7.758 7.758 0 0 0-10.125 4.219c-.027.065-2.997 6.519-14.141 6.519s-14.113-6.454-14.14-6.519a7.757 7.757 0 1 0-14.345 5.908c2.465 5.989 11.241 16.125 28.485 16.125s26.019-10.136 28.485-16.125a7.756 7.756 0 0 0-4.219-10.127z" fill="#f95750"></path><g fill="#565d76"><path d="M170.298 408.034a7.756 7.756 0 0 0 7.757-7.757v-13.321c0-4.284-3.472-7.757-7.757-7.757s-7.757 3.473-7.757 7.757v13.321a7.756 7.756 0 0 0 7.757 7.757zM97.432 408.034a7.757 7.757 0 0 0 7.757-7.757v-13.321a7.757 7.757 0 0 0-15.514 0v13.321a7.757 7.757 0 0 0 7.757 7.757z" fill="#565d76"></path></g><path d="M134.204 61.287a7.677 7.677 0 0 1-3.252-.721c-30.979-14.474-30.293-48.304-30.249-49.737a7.742 7.742 0 0 1 15.477.449c-.019.918-.179 17.658 12.105 29.088C131.291 27.949 139.32 9.953 160.744.645c3.919-1.706 8.482.094 10.186 4.016a7.742 7.742 0 0 1-4.016 10.185c-24.506 10.646-24.936 37.574-24.941 38.715a7.769 7.769 0 0 1-3.603 6.517 7.806 7.806 0 0 1-4.166 1.209z" fill="#af665a"></path></g></svg>