<svg id="Layer_1" enable-background="new 0 0 512 512" height="512" viewBox="0 0 512 512" width="512" xmlns="http://www.w3.org/2000/svg"><g><g fill="#08475e"><path d="m47.133 385.6c-26.084 0-47.133 21.102-47.133 47.133v64.267c0 8.284 6.716 15 15 15s15-6.716 15-15v-17.134h34.267v17.134c0 8.284 6.716 15 15 15s15-6.716 15-15v-64.267c0-26.085-21.107-47.133-47.134-47.133zm-17.133 64.266v-17.133c0-9.499 7.685-17.134 17.133-17.134 9.461 0 17.134 7.646 17.134 17.134v17.133z"/><path d="m168.276 482h-17.134v-81.4c0-8.284-6.716-15-15-15s-15 6.716-15 15v96.4c0 8.284 6.716 15 15 15h32.134c8.284 0 15-6.716 15-15s-6.715-15-15-15z"/><path d="m248.609 482h-17.134v-81.4c0-8.284-6.716-15-15-15s-15 6.716-15 15v96.4c0 8.284 6.716 15 15 15h32.134c8.284 0 15-6.716 15-15s-6.715-15-15-15z"/></g><path d="m299.779 507.618c-3.575-3.575-5.109-8.711-4.079-13.661l32.134-154.493c1.122-5.397 5.113-9.742 10.395-11.319 5.282-1.576 11.002-.131 14.898 3.768l27.359 27.366c24.12-28.971 37.247-65.113 37.247-103.273 0-89.182-72.554-161.737-161.733-161.737s-161.733 72.555-161.733 161.737c0 25.877 5.938 50.607 17.65 73.504 2.378 4.65 2.167 10.203-.559 14.659s-7.573 7.173-12.796 7.173h-69.825c-6.354 0-12.02-4.004-14.14-9.994-9.686-27.363-14.597-56.076-14.597-85.342 0-141.163 114.841-256.006 256-256.006s256 114.843 256 256.006c0 29.612-5.405 103.532-64.682 170.108l28.155 28.156c3.897 3.897 5.344 9.617 3.767 14.898s-5.923 9.273-11.318 10.395l-154.482 32.134c-1.848.385-8.31 1.272-13.661-4.079z" fill="#00c5f3"/><path d="m256 0c141.159 0 256 114.843 256 256.006 0 29.612-5.405 103.532-64.682 170.108l28.155 28.156c3.897 3.897 5.344 9.617 3.767 14.898s-5.923 9.273-11.318 10.395l-154.482 32.134c-1.849.384-8.31 1.272-13.661-4.079-3.575-3.575-5.109-8.711-4.079-13.661l32.134-154.493c1.122-5.397 5.113-9.742 10.395-11.319 5.282-1.576 11.002-.131 14.898 3.768l27.359 27.366c24.12-28.971 37.247-65.113 37.247-103.273 0-89.182-72.554-161.737-161.733-161.737z" fill="#00a8ed"/></g></svg>