<svg viewBox="0 0 512 512" xmlns="http://www.w3.org/2000/svg"><g><circle cx="250.38" cy="243.186" fill="#02c7dd" r="72"></circle><path d="M157.373 64c0 2.655 3.201 8.719 9.073 16 14.446 17.911 45.056 43.186 83.933 43.186 40.464 0 71.972-27.38 85.621-45.34 4.795-6.31 7.386-11.457 7.386-13.846s-2.591-7.536-7.386-13.846c-13.648-17.96-45.156-45.34-85.621-45.34-38.878 0-69.488 25.275-83.933 43.186-5.871 7.281-9.073 13.345-9.073 16z" fill="#dcf5f8"></path><path d="M336.001 50.154c-12.035-15.837-37.954-38.996-71.656-44.252 18.545 9.592 32.731 23.397 40.751 33.95 4.795 6.31 7.386 11.457 7.386 13.846s-2.591 7.536-7.386 13.846c-13.649 17.96-45.156 45.34-85.621 45.34-4.785 0-9.445-.383-13.965-1.088 13.017 6.733 28.182 11.39 44.87 11.39 40.464 0 71.972-27.38 85.621-45.34 4.795-6.31 7.386-11.457 7.386-13.846-.001-2.389-2.591-7.536-7.386-13.846z" fill="#a6e7f0"></path><circle cx="250.38" cy="64" fill="#017297" r="25.365"></circle><path d="M511.171 242.796a43.508 43.508 0 0 0-17.926-22.965c-9.738-6.202-16.426-16.2-17.858-27.656l-4.818-38.541c-1.797-14.379-14.021-25.17-28.512-25.17s-26.714 10.79-28.512 25.17l-4.818 38.541c-1.432 11.456-8.119 21.454-17.858 27.656a43.513 43.513 0 0 0-17.926 22.965c-3.436 10.307 4.236 20.951 15.101 20.951h15.405a26.483 26.483 0 0 1 21.186 10.593c8.71 11.614 26.131 11.614 34.841 0a26.483 26.483 0 0 1 21.186-10.593h15.405c10.868 0 18.54-10.644 15.104-20.951z" fill="#ffe5c2"></path><path d="M368.844 507.186c-23.285 0-43.333-16.435-47.9-39.268l-15.919-79.595a27.864 27.864 0 0 1 7.62-25.168c9.392-9.392 24.108-10.849 35.159-3.481a37.927 37.927 0 0 0 42.078 0c11.052-7.368 25.767-5.911 35.159 3.481a27.864 27.864 0 0 1 7.62 25.168l-15.919 79.595c-4.565 22.833-24.613 39.268-47.898 39.268z" fill="#f79595"></path><path d="M425.042 363.155a27.824 27.824 0 0 0-18.55-8.137 27.842 27.842 0 0 1 .415 12.701l-15.919 79.595c-4.567 22.833-24.614 39.268-47.899 39.268a48.77 48.77 0 0 1-15.849-2.637c8.688 14.108 24.246 23.241 41.604 23.241 23.285 0 43.333-16.435 47.899-39.268l15.919-79.595a27.864 27.864 0 0 0-7.62-25.168z" fill="#f37c7c"></path><path d="M0 256.073c0 24.149 20.416 43.53 44.929 41.825 20.82-1.448 37.609-18.419 38.853-39.252.026-.441.046-.881.059-1.32.5-17.145 7.472-33.383 18.838-46.229 9.75-11.02 15.423-25.731 14.654-41.771-1.445-30.156-26.035-54.546-56.202-55.763C27.605 112.21 0 138.988 0 172.214z" fill="#ffdfcf"></path><path d="M166.431 346.538h-45.555c-10.022 0-18.147 8.124-18.147 18.147v27.587c0 1.981-2.132 3.199-3.857 2.226-6.917-3.898-15.845-2.903-21.734 2.986l-7.325 7.325a9.074 9.074 0 0 0 0 12.832l46.728 46.728.005-.005.243.241a16.05 16.05 0 0 1 4.729 11.377v21.023a5.444 5.444 0 0 0 5.444 5.444h45.48a5.444 5.444 0 0 0 5.444-5.444v-20.918c0-4.383 1.783-8.561 4.895-11.648 8.58-8.511 13.894-20.31 13.894-33.35v-54.307c.001-16.703-13.54-30.244-30.244-30.244z" fill="#eb9c8d"></path><path d="M250.38 155.186c-17.133 0-30.521 14.793-28.816 31.841l2.428 24.278c1.356 13.557 12.764 23.881 26.388 23.881 13.625 0 25.032-10.324 26.388-23.881l2.428-24.278c1.705-17.048-11.683-31.841-28.816-31.841zM304.678 315.186H196.081a5.15 5.15 0 0 1-5.151-5.151v-15.4c0-15.16 12.29-27.449 27.449-27.449h64c15.16 0 27.449 12.29 27.449 27.449v15.4a5.15 5.15 0 0 1-5.15 5.151z" fill="#017297"></path><path d="M376.57 453.791v-88.542a37.979 37.979 0 0 1-15.453 0v88.542a7.727 7.727 0 0 0 15.453 0z" fill="#f37c7c"></path><path d="M41.931 271.905a15.736 15.736 0 0 1-11.201-4.637 15.717 15.717 0 0 1-4.637-11.19v-21.901a21.02 21.02 0 0 1 6.204-14.97l.208-.208c1.06-1.059 1.654-2.495 1.654-4.023s-.595-2.963-1.674-4.042l-.213-.213c-3.976-3.973-6.18-9.289-6.18-14.946v-23.556c0-17.984 14.627-32.616 32.605-32.616.412 0 .813.011 1.223.023l.16.005c16.691.685 30.392 14.278 31.191 30.944.413 8.589-2.478 16.839-8.14 23.23a7.726 7.726 0 1 1-11.566-10.248c2.973-3.356 4.49-7.703 4.272-12.241-.42-8.75-7.619-15.885-16.39-16.245-.24-.007-.492-.015-.75-.015-9.458 0-17.152 7.7-17.152 17.163v23.556c0 1.526.595 2.961 1.674 4.039l.12.12c4.069 4.066 6.273 9.384 6.273 15.041a21.026 21.026 0 0 1-6.204 14.973l-.164.164a5.695 5.695 0 0 0-1.698 4.063v21.901c0 .046 0 .153.11.263a.358.358 0 0 0 .276.112c4.267 0 7.726 3.459 7.726 7.726s-3.46 7.728-7.727 7.728z" fill="#ffcebf"></path><g fill="#d78878"><path d="M173.043 430.422c-4.442-14.463-17.598-24.18-32.735-24.18-2.116 0-4.234.196-6.311.583L102.73 375.56v16.712c0 1.503-1.227 2.567-2.574 2.567l23.752 23.751c3.204 3.202 7.836 4.521 12.389 3.534a18.983 18.983 0 0 1 4.011-.429c8.308 0 15.527 5.33 17.964 13.264a7.73 7.73 0 0 0 7.383 5.46c.751 0 1.516-.111 2.271-.343a7.725 7.725 0 0 0 5.117-9.654z" fill="#d78878"></path><path d="M132.008 391.804a7.726 7.726 0 0 0 7.726-7.726v-37.539h-15.453v37.539a7.727 7.727 0 0 0 7.727 7.726zM152.289 346.538v37.539a7.726 7.726 0 1 0 15.452 0v-37.511a31.665 31.665 0 0 0-1.311-.028z" fill="#d78878"></path></g></g></svg>