<svg viewBox="0 0 512.043 512.043" xmlns="http://www.w3.org/2000/svg"><g><path d="M113.188 485.022h5.653l2.566-10.202zM393.202 485.022h5.653l-8.219-10.202z" fill="#f9e89c"></path><path d="m256.022 307.722 42.668 65.633 91.946 101.465-27.948-154.798-36.1-99.895-37.511 25.228-33.055 62.366z" fill="#7fc0fd"></path><path d="M256.021 307.722v-.001l-41.647-73.032-28.919-14.562-36.1 89.228-27.948 165.465 81.74-80.131z" fill="#fdcb02"></path><path d="m185.455 220.127-58.332-72.409L24.38 190.19l12.061 294.832h76.747l8.219-10.202z" fill="#f9e89c"></path><path d="m384.92 147.718-58.332 72.409 64.048 254.693 8.219 10.202h76.747l12.061-294.832z" fill="#acd6fd"></path><path d="m256.022 307.721 70.566-87.594-13.353-53.097-57.213 7.317-10.667 60.342z" fill="#fc3636"></path><path d="M256.021 174.347h.001l-57.214-7.317-13.353 53.097 70.566 87.594z" fill="#fc5b3f"></path><path d="m256.022 307.722-10.667 108.3 10.667 69h137.18l-2.566-10.202z" fill="#e48c8c"></path><path d="M256.021 307.722 121.407 474.82l-2.566 10.202h137.18V341.355z" fill="#fd9d8c"></path><path d="m256.021 307.722.001-.001h-.001zM256.022 307.721v.001z" fill="#000000"></path><path d="M507.277 118.735c-6.399-15.564-18.476-27.705-34.005-34.185-.345-.144-.693-.266-1.039-.403V36.355h39.789v-30h-256l-10.667 47v95.999l10.667 40.668h63v-52.333c0-29.569-20.482-54.433-48-61.181V36.355h171.211v43.72c-22.073 2.426-42.224 16.45-51.364 38.353l-20.155 48.297 116.282 48.525 20.154-48.296c6.48-15.531 6.525-32.655.127-48.219z" fill="#474f54"></path><path d="M.021 6.355v30H39.81v47.791c-.345.137-.694.26-1.038.404-15.53 6.481-27.607 18.621-34.005 34.186-6.399 15.564-6.353 32.688.127 48.218l20.154 48.296 116.281-48.525-20.154-48.296c-6.48-15.53-18.621-27.607-34.186-34.005a63.244 63.244 0 0 0-17.179-4.381V36.355h171.212v40.152c-27.518 6.748-48.001 31.612-48.001 61.181v52.333h63V6.355z" fill="#566066"></path><path d="M512.022 475.688h-256l-10.667 15 10.667 15h256z" fill="#efe2dd"></path><path d="M.021 475.688h256v30h-256z" fill="#f7f0eb"></path></g></svg>