<svg viewBox="0 0 512 512" xmlns="http://www.w3.org/2000/svg"><g><path d="M99.413 321.334c6.031 0 10.92 4.889 10.92 10.92v132.614c0 8.318-6.806 15.01-15.124 15C42.608 479.8 0 437.245 0 384.55c0-3.978 1.58-7.81 4.394-10.623l22.593-22.593a102.425 102.425 0 0 1 72.426-30z" fill="#0094ff"></path><path d="M325.727 122.007c-5.858-5.858-5.858-15.355 0-21.213L357.86 68.66c5.857-5.857 15.355-5.858 21.213 0s5.858 15.355 0 21.213l-32.134 32.133c-5.859 5.86-15.356 5.858-21.212.001z" fill="#ffbe00"></path><path d="M288.134 32.134c-34.849 0-63.2 28.352-63.2 63.2v58.053L26.987 351.334H207.8c79.271 0 143.533-64.262 143.533-143.533V95.334c0-34.907-28.241-63.2-63.199-63.2z" fill="#00beff"></path><path d="M288.134 32.134c-34.849 0-63.2 28.352-63.2 63.2v58.053l-2.642 2.642v194.58c72.465-7.266 129.041-68.429 129.041-142.808V95.334c0-34.907-28.241-63.2-63.199-63.2z" fill="#0094ff"></path><path d="M143.565 271c-40.726 0-74.359-30.824-78.801-70.353-20.328-13.451-32.631-36.06-32.631-60.906v-19.759C12.104 106.494 0 84.051 0 59.408V15A15 15 0 0 1 21.708 1.584L217.901 99.68c22.843 11.421 37.032 34.381 37.032 59.919C254.934 221.041 204.974 271 143.565 271z" fill="#82e6ff"></path><path d="M217.901 99.68 21.708 1.584a14.997 14.997 0 0 0-14.594.657A14.996 14.996 0 0 0 0 15v1.034l222.292 222.292c20.158-20.169 32.642-48.013 32.642-78.726 0-25.539-14.19-48.498-37.033-59.92z" fill="#00beff"></path><circle cx="368.467" cy="368.467" fill="#d3e1eb" r="143.533"></circle><path d="M368.467 224.933c79.145 0 143.533 64.389 143.533 143.534S447.611 512 368.467 512z" fill="#b4cfde"></path><circle cx="368.467" cy="368.467" fill="#f1f4f7" r="113.533"></circle><path d="M368.467 482C431.069 482 482 431.069 482 368.467s-50.931-113.534-113.533-113.534z" fill="#d3e1eb"></path><path d="M368.467 383.467a14.95 14.95 0 0 1-10.606-4.393l-24.101-24.1c-5.858-5.858-5.858-15.355 0-21.213 5.857-5.858 15.355-5.858 21.213 0l13.494 13.494 34.827-34.827c5.857-5.858 15.355-5.858 21.213 0 5.858 5.857 5.858 15.355 0 21.213l-45.434 45.434a14.956 14.956 0 0 1-10.606 4.392z" fill="#002f48"></path><path d="m379.073 379.073 45.434-45.434c5.858-5.858 5.858-15.355 0-21.213-5.857-5.858-15.355-5.858-21.213 0l-34.827 34.827v36.213a14.945 14.945 0 0 0 10.606-4.393z" fill="#001824"></path></g></svg>