<svg viewBox="0 0 422.626 422.626" xmlns="http://www.w3.org/2000/svg"><g><path d="M202.643 12.173h17.339v93.78h-17.339z" fill="#6fb0d8"></path><path d="M39.446 143.36h125.957l-35.591 36.552L4.335 176.74z" fill="#4e8faf"></path><path d="M24.08 202.355h116.4v187.57H24.08z" fill="#c1c1c1"></path><path d="m211.313 127.012-70.838 72.898v190.018h141.676V199.91z" fill="#ededed"></path><path d="M93.913 241.965h23.279v36.73H93.913zM47.363 241.965h23.278v36.73H47.363zM93.913 304.385h23.279v36.73H93.913zM47.363 304.385h23.278v36.73H47.363z" fill="#ffffff"></path><path d="M383.179 143.36H257.223l35.59 36.552 125.478-3.172z" fill="#4e8faf"></path><path d="m147.018 193.176 135.133 135.133V199.91l-70.838-72.898z" fill="#d3d3d3"></path><path d="M282.153 202.355h116.4v187.57h-116.4z" fill="#b5b5b5"></path><path d="m293.777 176.74-82.464-82.464-82.464 82.464H4.335v28.119h136.14l70.838-70.816 70.838 70.816h136.14V176.74z" fill="#90caf4"></path><path d="M305.433 241.965h23.279v36.73h-23.279zM351.993 241.965h23.279v36.73h-23.279zM305.433 304.385h23.279v36.73h-23.279zM351.993 304.385h23.279v36.73h-23.279z" fill="#ededed"></path><path d="M172.503 313.055h77.63v76.873h-77.63z" fill="#3f3f3f"></path><path d="M283.537 72.363h-63.555v-60.19h63.555c7.162 0 12.968 5.806 12.968 12.968v34.254c-.001 7.163-5.806 12.968-12.968 12.968z" fill="#f6737c"></path><circle cx="211.313" cy="235.885" fill="#ffffff" r="36.613"></circle><path d="M210.907 199.276a1.693 1.693 0 0 1-.076.017c-9.912 4.533-15.668 11.876-19.009 18.809-3.875 8.041-2.229 17.649 4.083 23.961l28.123 28.123c13.943-5.173 23.898-18.556 23.898-34.299 0-20.355-16.611-36.832-37.019-36.611z" fill="#ededed"></path><path d="M215.648 241.969h-15.221a4.335 4.335 0 0 1 0-8.67h6.551v-12.604a4.334 4.334 0 0 1 4.335-4.334 4.334 4.334 0 0 1 4.335 4.334v21.274z" fill="#3f3f3f"></path><path d="M.001 389.925h422.62v20.528H.001z" fill="#b3e270"></path><path d="M71.265 359.33H11.013C4.931 359.33 0 364.261 0 370.343v19.586h82.276v-19.586c.001-6.083-4.929-11.013-11.011-11.013zM351.361 359.33h60.252c6.082 0 11.013 4.931 11.013 11.013v19.586h-82.277v-19.586c-.001-6.083 4.93-11.013 11.012-11.013z" fill="#7db530"></path><path d="m211.313 94.276-51.577 51.577-18.918 31.167a10.173 10.173 0 0 0 1.504 12.473l6.761 6.762 62.23-62.212 70.838 70.817h136.14v-28.12H293.777l-82.464-82.464z" fill="#6fb0d8"></path><path d="M296.504 40.378c-1.813 4.643-4.479 8.69-8.395 10.991-11.788 6.928-24.73-3.921-28.663-7.67l-15.613-15.614c-4.489-4.489-12.036-3.378-15.041 2.214l-8.81 16.391v25.673h63.555c7.162 0 12.968-5.806 12.968-12.967l-.001-19.018z" fill="#d72c38"></path><path d="M24.08 204.855h116.4v16.467H24.08zM282.153 204.855h116.4v16.467h-116.4z" fill="#8e8e8e"></path></g></svg>