<svg viewBox="0 0 512 512" xmlns="http://www.w3.org/2000/svg"><g><path d="m481 256-105 45-120-45-30-120 30-105.37c2.08-2.81 4.36-5.5 6.85-8.04C277.09 8.02 295.96 0 316 0s38.91 8.02 53.15 22.59C383.24 37 391 55.97 391 76c0 .5-.01 1-.02 1.5C425.18 84.46 451 114.77 451 151c0 13.7-3.81 26.96-10.83 38.48a75.151 75.151 0 0 1 22.15 17.17A74.395 74.395 0 0 1 481 256z" fill="#ff8080"></path><path d="m271 376-15 105.37c-2.08 2.81-4.36 5.5-6.85 8.04C234.91 503.98 216.04 512 196 512s-38.91-8.02-53.15-22.59C128.76 475 121 456.03 121 436c0-.5.01-1 .02-1.5C86.82 427.54 61 397.23 61 361c0-13.7 3.81-26.96 10.83-38.49a74.952 74.952 0 0 1-22.15-17.16A74.415 74.415 0 0 1 31 256l105-60 120 60z" fill="#474f54"></path><path d="M286 166c0 16.57-13.43 30-30 30v60h-60c0-16.57-13.43-30-30-30s-30 13.43-30 30H31c0-18.21 6.63-35.73 18.68-49.35a75.151 75.151 0 0 1 22.15-17.17C64.81 177.96 61 164.7 61 151c0-36.23 25.82-66.54 60.02-73.5-.01-.5-.02-1-.02-1.5 0-20.03 7.76-39 21.85-53.41C157.09 8.02 175.96 0 196 0s38.91 8.02 53.15 22.59c2.49 2.54 4.77 5.23 6.85 8.04V136c16.57 0 30 13.43 30 30z" fill="#64e1dc"></path><path d="M481 256c0 18.2-6.63 35.73-18.68 49.35a74.952 74.952 0 0 1-22.15 17.16C447.19 334.04 451 347.3 451 361c0 36.23-25.82 66.54-60.02 73.5.01.5.02 1 .02 1.5 0 20.03-7.76 39-21.85 53.41C354.91 503.98 336.04 512 316 512s-38.91-8.02-53.15-22.59a76.422 76.422 0 0 1-6.85-8.04V376c-16.57 0-30-13.43-30-30s13.43-30 30-30v-60h60c0 16.57 13.43 30 30 30s30-13.43 30-30z" fill="#ffbb33"></path></g></svg>