<svg id="Capa_1" enable-background="new 0 0 498.566 498.566" height="512" viewBox="0 0 498.566 498.566" width="512" xmlns="http://www.w3.org/2000/svg"><g><path d="m445.804 436.579 9.508-135.592c-7.24-10.606-16.715-19.602-27.995-26.529l-91.203-56.131-172.381-.63-92.796 56.762c-11.192 6.872-20.597 15.928-27.815 26.427l.11.102v53.031l11.756 144.5h392.05c-1.234-19.257-1.234-61.94-1.234-61.94z" fill="#b3adb5"/><g fill="#a59ca6"><path d="m257.619 498.566v-60.25c0-4.142-3.358-7.5-7.5-7.5s-7.5 3.358-7.5 7.5v60.25z"/><path d="m375.854 242.786-39.742-24.459h-34.028l2.807 14.715c8.523 50.717.218 103.766-23.395 149.464l-37.478 58.942h6.102v33.909l5.039-2.666c51.933-27.479 101.059-70.238 128.209-111.596l1.763-2.688h6.16c8.288 0 15.03-6.738 15.03-15.02.002-36.111-10.795-71.098-30.467-100.601z"/><path d="m217.237 382.506c-16.842-32.593-25.89-68.922-26.606-105.479h-63.301l39.25-24.008v-35.312l-2.847-.01-92.796 56.762c-11.192 6.872-20.597 15.928-27.815 26.427l.11.102v53.031l.774 9.518h20.738c.722-17.612 6.435-34.38 16.153-48.525l-.11-.102c2.119-3.082 4.43-6.036 6.921-8.846 3.026-3.414 8.654-.627 7.81 3.856-2.058 10.936-3.101 22.079-3.106 33.375-.004 8.312 6.718 15.113 15.03 15.113h6.16l1.766 2.693c25.507 38.854 81.336 85.103 129.747 112.6l10.598-9.008z"/></g><path d="m318.481 230.566-4.47-23.43-52.93-27.04-38.74 4.34-37.49 21.28c-2.71 13.92-4.79 24.85-4.79 24.85-9.16 54.29-.37 110.08 25.03 158.93l30.512 58.662h27.336l30.512-58.662c25.4-48.85 34.19-104.64 25.03-158.93z" fill="#f8f7f8"/><g><path d="m261.085 275.656 16.451 144.437-27.835 39.637-28.695-39.637 16.452-144.437 3.159-30.432h16.305z" fill="#a59ca6"/></g><g><g id="XMLID_103_"><g><path d="m297.301 177.506v.01l-.02 1.45c-.28 20.64-14.01 38.68-33.83 44.43l-14.18 4.12-14.18-4.12c-19.82-5.75-33.55-23.79-33.83-44.43l-.02-1.45v-.01c1.23-.81 11.504-6.433 11.504-6.433 1.553-.838 3.289-1.277 5.054-1.277h62.943c1.764 0 3.501.439 5.054 1.277.001.001 10.275 5.623 11.505 6.433z" fill="#efedee"/></g></g><circle cx="249.271" cy="184.439" fill="#e5827f" r="16.539"/><g><g><path d="m249.271 141.949c-8.284 0-15-6.716-15-15v-29.355c0-8.284 6.716-15 15-15 7.277 0 14.049-2.912 19.069-8.2 5.016-5.283 7.57-12.214 7.19-19.516-.709-13.671-12.002-24.596-25.709-24.872-13.288-.274-24.756 9.449-26.592 22.604-.169 1.21-.254 2.45-.254 3.687 0 8.284-6.716 15-15 15s-15-6.716-15-15c0-2.619.183-5.254.542-7.833 3.935-28.197 28.395-49.039 56.908-48.452 29.357.592 53.544 24.009 55.065 53.311.81 15.6-4.657 30.418-15.394 41.728-7.071 7.448-16.058 12.773-25.825 15.489v16.409c0 8.284-6.715 15-15 15z" fill="#e5827f"/></g></g><path d="m318.481 230.566-4.47-23.43-38.339-19.586c-2.857 7.922-9.322 14.18-17.801 16.64l-8.6 2.499-8.608-2.501c-9.489-2.753-16.456-10.273-18.656-19.562l-37.156 21.09c-2.71 13.92-4.79 24.85-4.79 24.85-1.983 11.753-3.121 23.577-3.436 35.385.003.01.008.023.012.032l15.748 17.597c4.765 5.327 11.596 8.382 18.741 8.382 7.667 0 14.815-3.429 19.612-9.406l13.897-17.314c2.379-2.964 6.891-2.964 9.271 0l13.896 17.312c4.798 5.979 11.947 9.408 19.613 9.408 7.146 0 13.977-3.055 18.739-8.379l15.751-17.601c.003-.009.008-.021.011-.03-.313-11.808-1.452-23.632-3.435-35.386z" fill="#efedee"/><path d="m222.337 261.071 7.131 12.277c.83 1.429 2.358 2.308 4.01 2.308h31.587c1.652 0 3.18-.879 4.01-2.308l7.131-12.277 13.381-25.343-40.817-7.588-39.93 4.358z" fill="#b3adb5"/></g><path d="m205.214 389.764 44.487 69.966c-45.49-24.07-94.207-62.936-122.507-106.046l-5.91-9.01h-13.72c-.57 0-1.03-.46-1.03-1.02 0-23.9 5.12-47.24 14.7-68.56s23.64-40.64 41.51-56.5l22.23-12.61c-2.71 13.92-4.79 24.85-4.79 24.85-9.16 54.29-.37 110.08 25.03 158.93z" fill="#b3adb5"/><path d="m158.836 221.801c.579 16.227 6.789 31.868 17.789 44.168.313-11.814 1.452-23.643 3.436-35.402 0 0 2.08-10.93 4.79-24.85l-22.23 12.61c-1.283 1.138-2.541 2.3-3.785 3.474z" fill="#a59ca6"/><path d="m336.113 218.326-21.91-11.19 4.47 23.43c9.16 54.29.37 110.08-25.03 158.93l-44.356 69.76.415.474c45.186-24.125 93.887-63.547 121.961-106.314l5.91-9.01h13.72c.57 0 1.03-.46 1.03-1.02 0-47.81-20.46-93.33-56.21-125.06z" fill="#b3adb5"/><path d="m336.113 218.326-21.91-11.19 4.47 23.43c1.972 11.687 3.107 23.444 3.428 35.185 10.92-12.311 17.083-27.938 17.621-44.135-1.185-1.113-2.389-2.206-3.609-3.29z" fill="#a59ca6"/><path d="m297.301 177.516c25.2 16.57 30.27 52.14 9.7 75.13l-15.75 17.6c-2.12 2.37-5.86 2.27-7.85-.21l-34.13-42.52 14.18-4.12c19.82-5.75 33.55-23.79 33.83-44.43z" fill="#f8f7f8"/><path d="m249.271 227.516-34.13 42.52c-1.99 2.48-5.73 2.58-7.85.21l-15.75-17.6c-20.57-22.99-15.5-58.56 9.7-75.13l.02 1.45c.28 20.64 14.01 38.68 33.83 44.43z" fill="#f8f7f8"/><path d="m93.421 498.566h-58.048c-6.124 0-11.056-5.026-10.941-11.149l2.569-135.831c.34-18.37 6.13-35.9 16.23-50.6l47.713 65.082c1.609 2.195 2.477 4.845 2.477 7.567z" fill="#a59ca6"/><path d="m64.667 365.611c.182-9.834 1.94-19.422 5.071-28.47l-26.506-36.155c-10.1 14.7-15.89 32.23-16.23 50.6l-2.569 135.831c-.116 6.123 4.816 11.149 10.94 11.149h26.779z" fill="#8f8390"/><g id="XMLID_173_"><g><path d="m471.541 351.586 2.593 137.099c.103 5.426-4.268 9.881-9.695 9.881h-59.318v-124.931c0-2.721.868-5.372 2.477-7.567l47.713-65.082c10.1 14.7 15.89 32.23 16.23 50.6z" fill="#a59ca6"/></g></g></g></svg>