<svg viewBox="0 0 485.041 485.041" xmlns="http://www.w3.org/2000/svg"><g><path d="m375.18 136.221-21.213-21.213-127.279 127.279 53.033 10.607 95.459-95.459c5.858-5.859 5.858-15.356 0-21.214z" fill="#ffe17c"></path><path d="m353.967 115.008-5.147-5.147c-5.858-5.858-15.355-5.858-21.213 0l-95.459 95.459 5.147 47.574 116.673-116.673c5.857-5.858 5.857-15.355-.001-21.213z" fill="#fff0be"></path><path d="m258.508 231.68-31.82 10.607L9.541 459.434l21.213 21.213c5.858 5.858 15.355 5.858 21.213 0l227.754-227.754z" fill="#3a4e66"></path><path d="M30.754 459.434 258.508 231.68l-26.36-26.36L4.393 433.074c-5.858 5.858-5.858 15.355 0 21.213l5.147 5.147c5.859 5.858 15.356 5.858 21.214 0z" fill="#496585"></path><g fill="#ffd23b"><path d="m393.568 41.12 25.754-10.757 10.757-25.754c2.567-6.146 11.274-6.146 13.841 0l10.757 25.754 25.754 10.757c6.146 2.567 6.146 11.274 0 13.841l-25.754 10.757-10.757 25.754c-2.567 6.146-11.274 6.146-13.841 0l-10.757-25.754-25.754-10.757c-6.145-2.567-6.145-11.274 0-13.841zM393.568 191.12l25.754-10.757 10.757-25.754c2.567-6.146 11.274-6.146 13.841 0l10.757 25.754 25.754 10.757c6.146 2.567 6.146 11.274 0 13.841l-25.754 10.757-10.757 25.754c-2.567 6.146-11.274 6.146-13.841 0l-10.757-25.754-25.754-10.757c-6.145-2.567-6.145-11.274 0-13.841zM243.568 41.12l25.754-10.757 10.757-25.754c2.567-6.146 11.274-6.146 13.841 0l10.757 25.754 25.754 10.757c6.146 2.567 6.146 11.274 0 13.841l-25.754 10.757-10.757 25.754c-2.567 6.146-11.274 6.146-13.841 0l-10.757-25.754-25.754-10.757c-6.145-2.567-6.145-11.274 0-13.841z" fill="#ffd23b"></path></g></g></svg>