<svg viewBox="0 0 497 497" xmlns="http://www.w3.org/2000/svg"><g><path d="m248.394 248.5-124.23 10L0 248.5V21.46C0 9.666 9.56.106 21.354.106h227.04l10 124.197z" fill="#c3ddff"></path><path d="M218.394.106V248.5l15 10 15-10 10-124.197-10-124.197z" fill="#9ec8fc"></path><path d="M475.646 496.894h-227.04l-10-109.315 10-139.079 126.908-10L497 248.5v227.04c0 11.794-9.56 21.354-21.354 21.354z" fill="#ffe07d"></path><path d="M248.394 496.894H21.354C9.56 496.894 0 487.334 0 475.54V248.5h248.394z" fill="#ff8086"></path><path d="M497 248.5H248.606V.106h227.04C487.44.106 497 9.666 497 21.46z" fill="#95d6a4"></path><path d="M467 248.5v227.04c0 11.793-9.56 21.353-21.354 21.353h30c11.793 0 21.354-9.56 21.354-21.353V248.5l-10.602-10z" fill="#ffd064"></path><path d="M218.394 248.5h30v248.394h-30z" fill="#e5646e"></path><path d="M475.646.106h-30C457.44.106 467 9.666 467 21.46V248.5h30V21.46C497 9.666 487.44.106 475.646.106z" fill="#78c2a4"></path><circle cx="372.803" cy="372.697" fill="#ffd064" r="37.067"></circle><path d="M372.803 335.63a36.921 36.921 0 0 0-15 3.171c12.996 5.76 22.067 18.765 22.067 33.896s-9.071 28.136-22.067 33.896a36.921 36.921 0 0 0 15 3.171c20.472 0 37.067-16.596 37.067-37.067 0-20.472-16.595-37.067-37.067-37.067z" fill="#f5c860"></path><path d="M153.53 390.485s29.952-24.678 27.862-61.687c-.338-5.98-5.915-10.258-11.762-8.958-8.69 1.931-21.088 6.616-30.1 17.979 0 0 2.353-26.12-6.601-46.211-3.349-7.515-14.03-7.772-17.548-.335-9.711 20.533-6.518 46.546-6.518 46.546-9.012-11.363-21.41-16.047-30.1-17.979-5.847-1.299-11.425 2.978-11.762 8.958-2.09 37.009 27.862 61.687 27.862 61.687-11.259-8.846-26.155-9.447-36.205-8.53-6.812.621-10.885 8.035-7.66 14.068 10.359 19.374 41.023 29.155 56.584 32.984a69.503 69.503 0 0 0 16.615 1.992 69.51 69.51 0 0 0 16.615-1.992c15.479-3.809 45.902-13.508 56.418-32.678 3.394-6.187-.626-13.762-7.655-14.388-10.048-.896-24.846-.255-36.045 8.544z" fill="#e5646e"></path><g fill="#f7ca61"><path d="M372.803 308.158a7.5 7.5 0 0 1-7.5-7.5v-22.173a7.5 7.5 0 0 1 15 0v22.173a7.5 7.5 0 0 1-7.5 7.5zM423.742 329.258a7.474 7.474 0 0 1-5.303-2.197 7.5 7.5 0 0 1 0-10.606l15.679-15.679a7.5 7.5 0 0 1 10.606 0 7.5 7.5 0 0 1 0 10.606l-15.679 15.679a7.476 7.476 0 0 1-5.303 2.197zM467.015 380.197h-22.173a7.5 7.5 0 0 1 0-15h22.173a7.5 7.5 0 0 1 0 15zM439.421 446.815a7.474 7.474 0 0 1-5.303-2.197l-15.679-15.679a7.5 7.5 0 0 1 10.606-10.607l15.679 15.679a7.5 7.5 0 0 1-5.303 12.804zM372.803 474.409a7.5 7.5 0 0 1-7.5-7.5v-22.173a7.5 7.5 0 0 1 15 0v22.173a7.5 7.5 0 0 1-7.5 7.5zM306.185 446.815a7.5 7.5 0 0 1-5.303-12.804l15.679-15.679a7.5 7.5 0 0 1 10.607 10.607l-15.679 15.679a7.482 7.482 0 0 1-5.304 2.197zM300.764 380.197h-22.173a7.5 7.5 0 0 1 0-15h22.173a7.5 7.5 0 0 1 0 15zM321.864 329.258a7.474 7.474 0 0 1-5.303-2.197l-15.679-15.679a7.5 7.5 0 0 1 0-10.606 7.5 7.5 0 0 1 10.606 0l15.679 15.679a7.5 7.5 0 0 1-5.303 12.803z" fill="#f7ca61"></path></g><path d="M153.53 390.485s30.374-25.025 27.814-62.468c-.379-5.545-5.645-9.461-11.082-8.309-4.506.955-10.102 2.656-15.732 5.685 1.53 7.892 2.34 16.04 2.34 24.38 0 30.83-10.955 59.101-29.183 81.135a69.044 69.044 0 0 0 13.125-1.9c15.731-3.871 46.897-13.825 56.916-33.623 2.935-5.799-.876-12.723-7.343-13.367-10.049-1.002-25.351-.572-36.855 8.467z" fill="#de5963"></path><path d="M124.197 474.409a7.5 7.5 0 0 1-7.5-7.5v-87.646a7.5 7.5 0 0 1 15 0v87.646a7.5 7.5 0 0 1-7.5 7.5z" fill="#d95f68"></path><path d="M372.803 218.737a7.5 7.5 0 0 1-7.5-7.5v-93.788a7.5 7.5 0 0 1 15 0v93.788a7.5 7.5 0 0 1-7.5 7.5z" fill="#68a88e"></path><path d="M208.364 124.452a7.5 7.5 0 0 0-7.5-7.5h-13.488l14.447-14.447a7.5 7.5 0 0 0-10.607-10.606l-25.054 25.054h-24.008l36.211-36.211a7.5 7.5 0 0 0 0-10.606 7.5 7.5 0 0 0-10.606 0l-35.913 35.913V81.741l24.456-24.457a7.5 7.5 0 0 0 0-10.606 7.5 7.5 0 0 0-10.606 0l-13.85 13.85V47.636a7.5 7.5 0 0 0-15 0v13.488l-14.447-14.447a7.5 7.5 0 0 0-10.606 0 7.5 7.5 0 0 0 0 10.606l25.054 25.054v24.008l-36.212-36.21a7.5 7.5 0 0 0-10.606 0 7.5 7.5 0 0 0 0 10.606l36.211 36.211H81.248L56.493 92.197a7.5 7.5 0 0 0-10.606 0 7.5 7.5 0 0 0 0 10.606l14.149 14.148H47.53a7.5 7.5 0 0 0 0 15h12.505L45.886 146.1a7.5 7.5 0 0 0 5.303 12.803c1.92 0 3.839-.732 5.303-2.197l24.755-24.755h24.693l-35.913 35.913a7.5 7.5 0 0 0 10.606 10.607l36.211-36.211v24.991l-24.755 24.755a7.5 7.5 0 0 0 5.303 12.803c1.92 0 3.839-.732 5.303-2.197l14.149-14.149v12.505a7.5 7.5 0 0 0 15 0v-12.505l14.149 14.149c1.464 1.464 3.384 2.197 5.303 2.197s3.839-.732 5.303-2.197a7.5 7.5 0 0 0 0-10.606l-24.755-24.755v-24.693l35.913 35.913c1.464 1.464 3.384 2.197 5.303 2.197s3.839-.732 5.303-2.197a7.5 7.5 0 0 0 0-10.607l-35.913-35.913h24.307l24.457 24.457c1.464 1.464 3.384 2.197 5.303 2.197s3.839-.732 5.303-2.197a7.5 7.5 0 0 0 0-10.606l-13.851-13.851h12.892a7.5 7.5 0 0 0 7.503-7.499z" fill="#fdfcfc"></path><path d="M418.382 117.595c0 38.29-20.406 63.277-45.579 63.277-25.172 0-45.579-24.987-45.579-63.277 0-25.722 20.568-53.089 34.071-68.283 6.129-6.897 16.887-6.897 23.016 0 13.503 15.194 34.071 42.561 34.071 68.283z" fill="#78c2a4"></path><path d="M365.065 45.178a219.783 219.783 0 0 0-7.262 8.163c13.283 15.699 30.579 40.666 30.579 64.255 0 30.294-12.778 52.246-30.579 60.1a36.958 36.958 0 0 0 15 3.177c25.172 0 45.579-24.987 45.579-63.277 0-28.274-24.852-58.536-37.854-72.433-4.187-4.476-11.277-4.461-15.463.015z" fill="#72b89b"></path></g></svg>