<svg viewBox="0 0 512 512" xmlns="http://www.w3.org/2000/svg"><g><g clip-rule="evenodd" fill-rule="evenodd"><path d="M139.558 277.54c0-42.392 1.357-82.646 3.796-118.895H95.302c2.438 36.249 3.796 76.503 3.796 118.895 0 46.314-1.62 90.078-4.5 128.854h49.46c-2.88-38.776-4.5-82.54-4.5-128.854zm275.983 0c0-42.392 1.358-82.646 3.796-118.895h-48.052c2.438 36.249 3.796 76.503 3.796 118.895 0 46.314-1.621 90.078-4.501 128.854h49.46c-2.879-38.776-4.499-82.54-4.499-128.854zm-91.994 0c0-42.392 1.358-82.646 3.796-118.895h-48.052c2.438 36.249 3.796 76.503 3.796 118.895 0 46.314-1.621 90.078-4.501 128.854h49.46c-2.879-38.776-4.499-82.54-4.499-128.854zm-91.995 0c0-42.392 1.358-82.646 3.796-118.895h-48.051c2.438 36.249 3.796 76.503 3.796 118.895 0 46.314-1.62 90.078-4.5 128.854h49.46c-2.88-38.776-4.501-82.54-4.501-128.854zM46.549 131.069h419.949L263.604 18.898c-4.536-2.508-9.625-2.508-14.161 0z" fill="#e4e8eb"></path><path d="M483.317 170.879c6.985 0 12.683-5.698 12.683-12.683v-24.705c0-6.985-5.698-12.683-12.683-12.683H28.683c-6.985 0-12.683 5.698-12.683 12.683v24.705c0 6.985 5.698 12.683 12.683 12.683zM79.125 394.16h353.75c8.06 0 14.634 6.574 14.634 14.634v37.169c0 8.06-6.574 14.634-14.634 14.634H79.125c-8.06 0-14.634-6.574-14.634-14.634v-37.169c0-8.06 6.574-14.634 14.634-14.634z" fill="#cad0d7"></path><path d="M30.634 494.983h450.732c8.06 0 14.634-6.574 14.634-14.634v-21.143c0-8.06-6.574-14.634-14.634-14.634H30.634c-8.06 0-14.634 6.574-14.634 14.634v21.143c0 8.06 6.574 14.634 14.634 14.634z" fill="#a9b0bb"></path><path d="M471.899 237.241c13.256 0 24.101 10.846 24.101 24.102v16.781h-48.203v177.889c0 5.239-4.273 9.512-9.512 9.512H270.54c-5.239 0-9.512-4.273-9.512-9.512v-194.67c0-13.256 10.846-24.102 24.102-24.102z" fill="#4fc0e8"></path><path d="M471.899 237.241c-13.256 0-24.102 10.846-24.102 24.102v16.781H496v-16.781c0-13.256-10.845-24.102-24.101-24.102z" fill="#38a8d2"></path><circle cx="354.693" cy="356.966" fill="#fdcd56" r="51.168" transform="rotate(-63.44 354.862 357.137)"></circle><path d="M336.814 384.252a6.983 6.983 0 1 1 9.57-10.172c1.572 1.483 2.912 2.627 4.194 3.275 1.049.531 2.326.818 4.115.818 2.57 0 4.834-.875 6.418-2.288 1.379-1.231 2.232-2.891 2.232-4.686 0-1.731-.802-3.338-2.106-4.554-1.532-1.427-3.691-2.345-6.122-2.436l-.223-.01-.198-.003c.053.004.758.027 0 .027-6.073 0-11.634-2.254-15.715-5.898-4.285-3.826-6.935-9.155-6.935-15.077h.027c0-5.939 2.64-11.266 6.908-15.077a23.18 23.18 0 0 1 8.617-4.835l-.06-2.514a6.976 6.976 0 0 1 13.946-.328l.071 2.969c1.417.43 2.834.965 4.167 1.585 3.524 1.639 6.818 4.015 8.684 6.854a6.971 6.971 0 0 1-11.649 7.657c-.318-.484-1.463-1.161-2.887-1.823-1.962-.913-3.955-1.49-5.173-1.49v.027c-2.57 0-4.835.875-6.418 2.289-1.396 1.247-2.26 2.908-2.26 4.686h.027c0 1.795.853 3.455 2.232 4.686 1.583 1.414 3.848 2.288 6.418 2.288.768 0-.469.012.471.031l.442.01c5.92.222 11.267 2.54 15.146 6.154 4.082 3.804 6.591 9.009 6.591 14.781 0 5.923-2.651 11.251-6.935 15.077-2.416 2.158-5.352 3.828-8.605 4.832l.048 2.003a6.976 6.976 0 0 1-13.946.328l-.053-2.19a21.197 21.197 0 0 1-3.564-1.424c-2.783-1.407-5.034-3.268-7.475-5.572zm17.879-20.056" fill="#daa33b"></path></g></g></svg>