<svg viewBox="0 0 512.001 512" xmlns="http://www.w3.org/2000/svg"><g><path d="M285.922 12.395c0 16.523-13.399 29.921-29.922 29.921s-29.922-13.398-29.922-29.921c0-16.524 59.844-16.524 59.844 0zm0 0" fill="#d8d8d8"></path><path d="M256 38.2c-119.094 0-215.64 96.546-215.64 215.64h431.28C471.64 134.746 375.095 38.2 256 38.2zm0 0" fill="#efefef"></path><path d="M256 38.2a217.16 217.16 0 0 0-29.66 2.042C331.395 54.695 412.316 144.81 412.316 253.84h59.325C471.64 134.746 375.094 38.2 256 38.2zm0 0" fill="#e2e2e2"></path><path d="M497.207 286.547H14.793C6.621 286.547 0 279.922 0 271.754v-9.418c0-8.168 6.621-14.793 14.793-14.793h482.418c8.168 0 14.789 6.625 14.789 14.793v9.418c0 8.168-6.621 14.793-14.793 14.793zm0 0" fill="#d8d8d8"></path><path d="m124.91 451.203 3.54-15.129c4.991-21.328 21.859-38.27 42.968-43.156 22.309-5.168 48-1.934 65.383.945 19.605 3.25 40.207 2.14 59.57-3.215l28.41-7.851c17.93-4.953 34.434-13.3 49.051-24.805l49-43.398c12.762-9.418 3.313-38.512-20.031-23.996l-48.23 31.925-47.712 13.805-33.863.735 22.828-12.09c8.668-4.457 12.38-14.946 8.446-23.88a18.127 18.127 0 0 0-6.403-7.663c-4.242-2.88-9.582-3.926-14.652-2.871L216.3 304.512l-51.086-13.782c-7.3-1.968-14.488-4.386-21.906-4.187-19.012.52-37.903 9.547-51.957 22.898l-.157.149-62.687 76.12zm0 0" fill="#ffe7cf"></path><path d="m422.355 289.027-54.222 39.41c-14.617 11.504-48.695 33.262-174.313 22.45-17.554-1.512-43.074-6.117-65.382-.95-16.793 3.891-49.18 45.051-61.727 61.727l58.2 39.54 3.538-15.126c4.992-21.332 21.86-38.273 42.973-43.16 22.308-5.164 48-1.934 65.383.95 19.605 3.25 40.203 2.136 59.566-3.216l28.41-7.851c17.93-4.957 34.434-13.305 49.051-24.809l49.004-43.398c8.113-5.992 7.242-19.946-.48-25.567zm0 0" fill="#f4d5ba"></path><path d="m143.426 422.867-98.574-66.965c-6.215-4.222-14.676-2.601-18.895 3.618l-14.402 21.246c-4.211 6.21-2.594 14.656 3.613 18.875l98.574 66.964c6.215 4.223 14.676 2.602 18.895-3.617l14.402-21.242c4.211-6.21 2.594-14.66-3.613-18.879zm0 0" fill="#0d6e9a"></path><path d="m143.426 422.867-37.867-25.726-29.664 43.754 37.847 25.71c5.996 4.075 14.07 2.696 18.418-2.988l15.29-22.55c3.663-6.133 1.964-14.133-4.024-18.2zm0 0" fill="#09627a"></path></g></svg>