<svg height="512" viewBox="0 0 58 58" width="512" xmlns="http://www.w3.org/2000/svg"><g id="Page-1" fill="none" fill-rule="evenodd"><g id="003---Broken-Piggy-Bank" fill-rule="nonzero"><path id="Shape" d="m13 27.6v-4.8c.0002896-.6109019.310409-1.1799601.8236291-1.5113306.5132201-.3313704 1.1594817-.3798181 1.7163709-.1286694l6.8 3.09z" fill="#ff5364"/><path id="Shape" d="m51 46c-1.6568542 0-3-1.3431458-3-3 0-.5522847.4477153-1 1-1s1 .4477153 1 1 .4477153 1 1 1c1.1045695 0 2-.8954305 2-2s-.8954305-2-2-2h-7c-.5522847 0-1-.4477153-1-1s.4477153-1 1-1h7c2.209139 0 4 1.790861 4 4s-1.790861 4-4 4z" fill="#ff5364"/><path id="Shape" d="m33.587 2.973-1.587 4.027-4.022 1.583-1.391-1.391c-.7807639-.7809997-.7807639-2.0470003 0-2.828l2.781-2.782c.375096-.37524801.8839266-.58607293 1.4145-.58607293s1.039404.21082492 1.4145.58607293z" fill="#cb8252"/><path id="Shape" d="m42 11.388-4 .612-1.608 5 15.413 15.414c.7809997.7807639 2.0470003.7807639 2.828 0l2.781-2.781c.375248-.375096.5860729-.8839266.5860729-1.4145s-.2108249-1.039404-.5860729-1.4145z" fill="#cb8252"/><path id="Shape" d="m46 39c0 4.22-2.33 8.04-6.08 10.76l-.72 6.46c-.1122266 1.0140558-.9697536 1.78109-1.99 1.78h-3.42c-1.0202464.00109-1.8777734-.7659442-1.99-1.78l-.31-2.8c-1.8040805.3885583-3.6445529.582998-5.49.58-1.8448351.0012894-3.684779-.189743-5.49-.57l-.31 2.79c-.1122266 1.0140558-.9697536 1.78109-1.99 1.78h-3.42c-1.0202464.00109-1.8777734-.7659442-1.99-1.78l-.71-6.45h-.01c-1.5138699-1.0795372-2.82988425-2.412467-3.89-3.94-.36887457-.5282782-.97574729-.8392068-1.62-.83h-3.57c-1.65685425 0-3-1.3431458-3-3v-6c0-1.6568542 1.34314575-3 3-3h3.57c.64223756.0107794 1.24842481-.2960562 1.62-.82 3.03-4.45 8.95-7.63 15.91-8.11.5141097-.0322297.9685902.3313548 1.05.84l.78 4.65c.0431937.281094-.0329283.5674575-.21.79l-3.26 4.08c-.2797664.3374734-.3002154.8200697-.05 1.18l3.29 4.94c.1888992.281008.2227686.6385182.09.95l-2.03 4.73c-.0914031.2193674-.0265344.4727455.1590375.6212031.185572.1484575.4470096.1561245.6409625.0187969l8.81-6.41c.3699343-.2692359.5099584-.7552018.34-1.18l-1.47-3.67c-.144061-.3737749-.0538541-.7973552.23-1.08l2.13-2.13c.2501337-.2474933.3492433-.6096245.26-.95l-1.16-4.65c-.0875032-.3625666.0313067-.7438885.3092641-.9925872.2779573-.2486987.6700932-.3245387 1.0207359-.1974128 6.51 2.48 10.97 7.54 10.97 13.39z" fill="#fb7b76"/><circle id="Oval" cx="14" cy="33" fill="#ecf0f1" r="1"/><path id="Shape" d="m44.105 9.28-9.816 9.82c-.5555931.5614177-1.3126434.8773132-2.1025.8773132s-1.5469069-.3158955-2.1025-.8773132l-4.214-4.2c-1.1564125-1.1611982-1.1564125-3.0388018 0-4.2l9.817-9.83c1.165087-1.16022339 3.048913-1.16022339 4.214 0l4.2 4.205c1.160842 1.16067236 1.1626317 3.04212125.004 4.205z" fill="#95a5a5"/><path id="Shape" d="m32.185 16.6c-.2651948-.0000566-.5195073-.1054506-.707-.293l-2.1-2.1c-.7760812-.7782524-.7760812-2.0377476 0-2.816l5.12-5.121c.2510745-.25995658.6228779-.3642126.9725073-.27269716.3496295.09151544.6226744.3645604.7141899.71418984.0915154.34962943-.0127406.72143285-.2726972.97250732l-5.124 5.116 2.1 2.092c.2859079.2859943.3714219.7160366.216678 1.0896546-.1547439.3736179-.5192821.6172591-.923678.6173454z" fill="#d1d4d1"/></g></g></svg>