<svg viewBox="0 0 511.999 511.999" xmlns="http://www.w3.org/2000/svg"><g><path d="M379.98 260.911v21.228c0 40.236-18.693 78.331-50.883 102.465-20.507 15.369-39.672 34.884-40.901 54.681v31.898H113.428v-253.28l23.323-6.907 98.319-29.104 39.379-11.662V37.682c0-18.58 15.053-33.633 33.622-33.633 9.284 0 17.69 3.763 23.774 9.848a33.544 33.544 0 0 1 9.848 23.785v195.782h10.839c15.156-.001 27.448 12.292 27.448 27.447z" fill="#ffcfae"></path><path d="M341.698 37.678v195.781H331.13V37.678c0-9.28-3.761-17.701-9.852-23.783a33.479 33.479 0 0 0-18.489-9.423 33.306 33.306 0 0 1 5.284-.419c9.28 0 17.691 3.761 23.772 9.842 6.081 6.082 9.853 14.503 9.853 23.783zM195.231 417.027a7.665 7.665 0 0 1-7.665-7.665c0-30.217 11.896-59.074 34.401-83.453 16.837-18.24 33.603-27.556 34.309-27.944a7.665 7.665 0 0 1 7.393 13.43c-.154.086-15.607 8.732-30.769 25.272-19.909 21.721-30.003 46.179-30.003 72.695a7.665 7.665 0 0 1-7.666 7.665zM136.752 210.996v260.186h-23.324V217.903z" fill="#ffbe92"></path><path d="M318.723 315.743c-2.773 10.829-13.8 17.359-24.629 14.586l-51.795-13.266c-26.909-6.894-45.656-31.205-45.445-59.021.185-24.255 20.118-43.732 44.373-43.732h100.47v38.309H241.05a5.891 5.891 0 0 0-5.889 5.888 22.127 22.127 0 0 0 16.643 21.444l71.401 18.286-4.482 17.506z" fill="#ffbe92"></path><path d="M235.161 184.822v65.238c0 25.983-21.138 47.12-47.12 47.12a46.905 46.905 0 0 1-16.833-3.11c-7.707 10.659-20.236 17.622-34.377 17.622h-.158a42.173 42.173 0 0 1-23.245-6.952v-86.838l121.643-36.01c.056.97.09 1.95.09 2.93z" fill="#ffbe92"></path><path d="M136.828 292.543h-.156c-12.836 0-23.241-10.405-23.241-23.241V215.54c0-12.836 10.405-23.241 23.241-23.241h.156c12.836 0 23.241 10.405 23.241 23.241v53.762c0 12.836-10.405 23.241-23.241 23.241zM274.45 156.169v83.119a27.98 27.98 0 0 1-3.358 13.329c-4.744 8.8-14.05 14.772-24.743 14.772h-2.242c-2.603 0-5.115-.349-7.504-1.014-11.876-3.279-20.597-14.163-20.597-27.087v-83.119c0-15.515 12.586-28.101 28.101-28.101h2.242c15.515 0 28.101 12.586 28.101 28.101z" fill="#ffcfae"></path><path d="M274.45 214.309v24.98a27.98 27.98 0 0 1-3.358 13.329h-30.039a5.891 5.891 0 0 0-5.893 5.893c0 2.749.507 5.408 1.442 7.865-11.876-3.279-20.597-14.163-20.597-27.087v-17.138a44.23 44.23 0 0 1 25.216-7.842h33.229z" fill="#ffbe92"></path><path d="M274.448 156.173v83.112c0 4.824-1.216 9.372-3.352 13.337-4.742 8.8-14.053 14.769-24.743 14.769h-2.248c-1.359 0-2.698-.092-4.006-.286 8.994-1.267 16.628-6.786 20.778-14.482a28.06 28.06 0 0 0 3.352-13.337v-83.112c0-14.165-10.486-25.888-24.11-27.82a27.136 27.136 0 0 1 3.986-.286h2.248c15.514-.001 28.095 12.591 28.095 28.105z" fill="#ffbe92"></path><path d="M216.006 184.822v65.238c0 11.437-6.851 21.262-16.687 25.588a27.714 27.714 0 0 1-11.279 2.378c-15.448 0-27.977-12.518-27.977-27.966v-65.238c0-15.448 12.529-27.966 27.977-27.966 7.718 0 14.715 3.132 19.774 8.191s8.192 12.057 8.192 19.775z" fill="#ffcfae"></path><path d="M216.006 222.151v27.909c0 11.437-6.851 21.262-16.687 25.588a60.552 60.552 0 0 1-2.468-17.611c.113-14.906 7.696-28.01 19.155-35.886z" fill="#ffbe92"></path><path d="M341.698 233.465H241.051c-13.831 0-25.044 11.213-25.044 25.044 0 18.857 12.776 35.318 31.044 39.997l71.402 18.288h23.245v-83.329z" fill="#ffcfae"></path><path d="M295.392 511.999h-190.97a8.176 8.176 0 0 1-8.176-8.176v-43.58a8.176 8.176 0 0 1 8.176-8.176h190.971a8.176 8.176 0 0 1 8.176 8.176v43.58a8.177 8.177 0 0 1-8.177 8.176z" fill="#a4e7ff"></path><path d="M295.392 511.999h-190.97a8.176 8.176 0 0 1-8.176-8.176v-12.584h207.323v12.584a8.177 8.177 0 0 1-8.177 8.176z" fill="#73d7ff"></path><path d="M278.852 490.385a7.665 7.665 0 0 1-7.665-7.665v-5.373c0-4.234 3.432-7.665 7.665-7.665s7.665 3.431 7.665 7.665v5.373a7.665 7.665 0 0 1-7.665 7.665z" fill="#ff5f5f"></path><path d="M408.089 59.608h-23.286c-4.233 0-7.665-3.431-7.665-7.665s3.432-7.665 7.665-7.665h23.286c4.233 0 7.665 3.431 7.665 7.665s-3.431 7.665-7.665 7.665zM379.981 31.795a7.665 7.665 0 0 1-5.42-13.086l16.465-16.465a7.665 7.665 0 1 1 10.84 10.841L385.401 29.55a7.644 7.644 0 0 1-5.42 2.245zM396.446 103.887a7.644 7.644 0 0 1-5.42-2.245l-16.465-16.465a7.665 7.665 0 1 1 10.84-10.841l16.465 16.465a7.665 7.665 0 0 1-5.42 13.086zM228.473 59.608h-23.286c-4.233 0-7.665-3.431-7.665-7.665s3.432-7.665 7.665-7.665h23.286c4.233 0 7.665 3.431 7.665 7.665s-3.432 7.665-7.665 7.665zM216.829 103.887a7.64 7.64 0 0 1-5.42-2.246 7.664 7.664 0 0 1 0-10.84l16.466-16.465a7.665 7.665 0 1 1 10.84 10.841l-16.466 16.465a7.642 7.642 0 0 1-5.42 2.245zM233.295 31.795a7.644 7.644 0 0 1-5.42-2.245l-16.466-16.465a7.666 7.666 0 0 1 10.84-10.841l16.466 16.465a7.665 7.665 0 0 1-5.42 13.086z" fill="#25d8a1"></path><path d="M165.89 214.434v52.6c0 12.56-10.18 22.74-22.74 22.74h-.16c-1.69 0-3.34-.18-4.92-.54 10.19-2.24 17.82-11.33 17.82-22.2v-52.6c0-10.87-7.63-19.96-17.82-22.2 1.58-.36 3.23-.54 4.92-.54h.16c12.56 0 22.74 10.18 22.74 22.74zM220.62 184.374v63.83c0 11.19-6.7 20.81-16.33 25.04a27.08 27.08 0 0 1-11.03 2.33c-1.71 0-3.38-.16-5-.47 2.11-.38 4.13-1.01 6.03-1.86 9.63-4.23 16.33-13.85 16.33-25.04v-63.83c0-7.55-3.07-14.4-8.02-19.35-3.83-3.83-8.79-6.53-14.34-7.54a27.268 27.268 0 0 1 24.34 7.54c4.95 4.95 8.02 11.8 8.02 19.35z" fill="#ffbe92"></path></g></svg>