<svg viewBox="0 0 512.001 512.001" xmlns="http://www.w3.org/2000/svg"><g><path d="M148.202 60.365a50.599 50.599 0 0 0-32.726 12.017l.019.022c-5.392 4.547-8.828 11.429-8.828 19.131 0 13.692 10.859 24.791 24.254 24.791 13.372 0 24.214-11.06 24.253-24.718 7.915 2.865 13.597 10.435 13.597 19.326 0 11.341-9.227 20.568-20.568 20.568H0v30h148.202c27.883 0 50.568-22.685 50.568-50.568s-22.685-50.569-50.568-50.569z" fill="#b7e4f8"></path><path d="m400.439 420.007-8.25 8.25-8.25-8.25-21.212 21.213 8.25 8.25-8.25 8.249 21.212 21.213 8.25-8.249 8.25 8.249 21.213-21.213-8.25-8.249 8.25-8.25zM511.939 329.599l-21.212-21.213-8.25 8.25-8.25-8.25-21.213 21.213 8.25 8.25-8.25 8.25 21.213 21.212 8.25-8.249 8.25 8.249 21.212-21.212-8.249-8.25z" fill="#93d6f4"></path><path d="m101.772 361.719-8.249 8.25-8.25-8.25-21.213 21.213 8.25 8.25-8.25 8.25 21.213 21.213 8.25-8.25 8.249 8.25 21.213-21.213-8.25-8.25 8.25-8.25zM261.652 25.22 240.439 4.007l-8.25 8.25-8.25-8.25-21.212 21.213 8.25 8.25-8.25 8.249 21.212 21.213 8.25-8.249 8.25 8.249 21.213-21.213-8.25-8.249z" fill="#b7e4f8"></path><path d="M482 162.604c0-62.755-51.055-113.81-113.81-113.81-47.997 0-87.045 39.048-87.045 87.045 0 36.305 29.536 65.842 65.842 65.842 27.043 0 49.044-22.001 49.044-49.044 0-8.17-2.762-15.704-7.394-21.729-4.905 10.715-15.714 18.164-28.27 18.164-17.167 0-31.083-13.917-31.083-31.083 0-17.142 13.876-31.042 31.009-31.082V86.9c36.248 0 65.737 29.49 65.737 65.736 0 43.585-35.459 79.044-79.044 79.044-30.352 0-57.449-14.186-75.022-36.27H0v114.787h334.405C415.79 310.198 482 243.987 482 162.604z" fill="#dbf1fb"></path><path d="M270.248 324.91v-14.712H0v30.619h216.798c43.257 0 78.449 35.116 78.449 78.278 0 32.341-26.263 58.668-58.626 58.887-21.126-.219-38.248-17.487-38.248-38.692 0-15.188 12.338-27.545 27.503-27.545 2.668 0 5.202.573 7.5 1.588-4.428 4.491-7.171 10.715-7.171 17.595 0 13.691 10.859 24.791 24.254 24.791s24.254-11.099 24.254-24.791c0-1.321-.103-2.618-.298-3.882-1.754-25.272-22.847-45.301-48.54-45.301-31.708 0-57.503 25.814-57.503 57.545 0 37.611 30.361 68.245 67.843 68.683v.021c.18 0 .359-.006.539-.007.09 0 .179.007.27.007v-.011c48.72-.436 88.222-40.139 88.222-88.887.001-40.315-22.182-75.549-54.998-94.186zM368.19 48.794c-47.997 0-87.045 39.048-87.045 87.045 0 36.305 29.536 65.842 65.842 65.842 27.043 0 49.044-22.001 49.044-49.044 0-8.17-2.762-15.704-7.394-21.729-4.905 10.715-15.714 18.164-28.27 18.164-17.167 0-31.083-13.917-31.083-31.083 0-17.142 13.876-31.042 31.009-31.082V86.9c36.248 0 65.737 29.49 65.737 65.736 0 43.585-35.459 79.044-79.044 79.044-30.352 0-57.449-14.186-75.022-36.27h-16.383v114.787h78.823c81.385 0 147.595-66.21 147.595-147.594C482 99.849 430.945 48.794 368.19 48.794z" fill="#b7e4f8"></path><path d="M274.714 430.927c0-1.321-.103-2.618-.298-3.882-.991-14.278-8.157-26.879-18.835-35.144v63.258c10.936-2.403 19.133-12.337 19.133-24.232z" fill="#b7e4f8"></path><path d="M368.19 18.794c-64.54 0-117.045 52.506-117.045 117.045 0 22.496 7.794 43.203 20.819 59.572 17.573 22.084 44.671 36.27 75.022 36.27 43.585 0 79.044-35.459 79.044-79.044 0-36.247-29.489-65.736-65.737-65.736v.006c-17.132.04-31.009 13.94-31.009 31.082 0 17.167 13.917 31.083 31.083 31.083 12.556 0 23.364-7.448 28.27-18.164 4.631 6.026 7.394 13.559 7.394 21.729 0 27.043-22.001 49.044-49.044 49.044-36.306 0-65.842-29.537-65.842-65.842 0-47.997 39.048-87.045 87.045-87.045 62.755 0 113.81 51.055 113.81 113.81 0 81.384-66.21 147.594-147.595 147.594H255.582v40.896c23.667 13.493 39.666 38.91 39.666 68 0 25.708-16.603 47.601-39.666 55.616v31.15c39.81-8.851 69.666-44.387 69.666-86.766 0-31.08-13.194-59.133-34.272-78.897h43.43c97.927 0 177.595-79.668 177.595-177.594C512 83.307 447.487 18.794 368.19 18.794z" fill="#93d6f4"></path><path d="M0 239.99h213.33v30H0z" fill="#b7e4f8"></path></g></svg>