<svg viewBox="0 0 512 512" xmlns="http://www.w3.org/2000/svg"><g><g fill="#7a6d79"><path d="m220.034 174.729-65.582-37.864 13.618-4.447a7.726 7.726 0 1 0-4.797-14.689l-30.082 9.822a7.726 7.726 0 0 0-5.161 8.94l6.534 30.963a7.728 7.728 0 0 0 9.155 5.964 7.725 7.725 0 0 0 5.964-9.155l-2.958-14.016 65.582 37.864a7.723 7.723 0 0 0 10.554-2.828 7.724 7.724 0 0 0-2.827-10.554zM419.148 292.649l-6.534-30.963a7.723 7.723 0 0 0-9.155-5.964 7.725 7.725 0 0 0-5.964 9.155l2.958 14.016-65.582-37.863a7.724 7.724 0 0 0-10.554 2.828 7.725 7.725 0 0 0 2.828 10.554l65.582 37.864-13.618 4.447a7.728 7.728 0 0 0 2.397 15.073c.795 0 1.603-.124 2.4-.384l30.082-9.822a7.728 7.728 0 0 0 5.16-8.941zM355.741 109.052a7.728 7.728 0 0 0 7.343 5.33 7.726 7.726 0 0 0 7.346-10.127l-9.823-30.082a7.724 7.724 0 0 0-8.94-5.161l-30.963 6.534a7.725 7.725 0 0 0-5.964 9.155 7.722 7.722 0 0 0 9.155 5.964l14.017-2.958-37.864 65.582a7.725 7.725 0 0 0 2.828 10.554 7.723 7.723 0 0 0 10.554-2.828l37.864-65.581z" fill="#7a6d79"></path></g><path d="m359.007 199.224-61.15 105.915-114.836-66.301 61.15-105.915c2.845-4.927 9.145-6.616 14.073-3.771l96.993 55.999c4.927 2.846 6.615 9.146 3.77 14.073z" fill="#f79595"></path><path d="m355.236 185.152-20.007-11.551a11.02 11.02 0 0 1-1.115 8.346l-62.408 108.095 26.151 15.098 61.15-105.915c2.845-4.928 1.157-11.228-3.771-14.073z" fill="#f47c7c"></path><path d="M0 150.689v282.165c0 5.69 4.612 10.302 10.302 10.302h492.354c9.544 0 12.929-12.635 4.664-17.407L15.453 141.768C8.585 137.803 0 142.759 0 150.689z" fill="#fee97d"></path><path d="M507.32 425.75 330.056 323.405c31.98 34.024 31.41 84.736 6.971 119.751h165.629c9.544 0 12.929-12.634 4.664-17.406z" fill="#fed402"></path><path d="M302.886 357.461a7.728 7.728 0 0 0-10.911-.588l-10.659 9.57V214.571a7.726 7.726 0 1 0-15.452 0v151.872l-10.66-9.57a7.726 7.726 0 0 0-10.911.588 7.726 7.726 0 0 0 .588 10.911l23.548 21.14c1.468 1.318 3.315 1.977 5.161 1.977s3.694-.659 5.161-1.977l23.547-21.14a7.726 7.726 0 0 0 .588-10.911z" fill="#7a6d79"></path></g></svg>