<svg viewBox="0 0 66 66" xmlns="http://www.w3.org/2000/svg"><g><path d="M62.5 39.95c-.55 0-1-.45-1-1V27.26c0-.41-.34-.75-.75-.75h-2.46c-.55 0-1-.45-1-1s.45-1 1-1h2.46c1.52 0 2.75 1.23 2.75 2.75v11.68c0 .56-.45 1.01-1 1.01z" fill="#5d5b68"></path><path d="M45.09 2H4.5c-1.1 0-2 .9-2 2v58c0 1.1.9 2 2 2h40.59c1.1 0 2-.9 2-2V4a2 2 0 0 0-2-2z" fill="#fec200"></path><path d="M45.09 2h-9.07c0 1.66 1.34 3 3 3h5.07v23.45c0 1.66 1.34 3 3 3V4a2 2 0 0 0-2-2z" fill="#ffffff" opacity=".35"></path><path d="M6.5 6h36.59v54H6.5z" fill="#e6e9ee"></path><path d="M17.36 56.88a7.74 7.74 0 0 1-7.74-7.74V6H6.5v54h36.59v-3.12z" fill="#000000" opacity=".1"></path><circle cx="16.5" cy="21.3" fill="#009aff" r="5"></circle><circle cx="16.5" cy="35.6" fill="#ff4823" r="5"></circle><circle cx="16.5" cy="49.6" fill="#009aff" r="5"></circle><g fill="#aab2bd"><path d="M25.64 20.36H38.9c.55 0 1-.45 1-1s-.45-1-1-1H25.64c-.55 0-1 .45-1 1s.44 1 1 1zM25.64 24.24H36.2c.55 0 1-.45 1-1s-.45-1-1-1H25.64c-.55 0-1 .45-1 1s.44 1 1 1zM38.89 32.66H25.64c-.55 0-1 .45-1 1s.45 1 1 1H38.9c.55 0 1-.45 1-1s-.45-1-1.01-1zM25.64 38.54H36.2c.55 0 1-.45 1-1s-.45-1-1-1H25.64c-.55 0-1 .45-1 1s.44 1 1 1zM38.89 46.66H25.64c-.55 0-1 .45-1 1s.45 1 1 1H38.9c.55 0 1-.45 1-1s-.45-1-1.01-1zM36.19 50.54H25.64c-.55 0-1 .45-1 1s.45 1 1 1H36.2c.55 0 1-.45 1-1s-.45-1-1.01-1z" fill="#aab2bd"></path></g><path d="M51.27 24.51h7.02v33.36h-7.02z" fill="#ff4823"></path><path d="M53.86 50.85V24.51h-2.58v33.36h7.02v-2.58c-2.46 0-4.44-1.99-4.44-4.44z" fill="#000000" opacity=".15"></path><path d="M56.45 19.36h-3.32c-1.02 0-1.85.83-1.85 1.85v3.31h7.02v-3.31a1.859 1.859 0 0 0-1.85-1.85z" fill="#5d5b68"></path><path d="M58.29 57.87h-7.02L54.78 64z" fill="#fec200"></path><path d="M53.14 61.12 54.78 64l1.65-2.88z" fill="#5d5b68"></path><path d="M15.74 23.51c-.26 0-.51-.1-.71-.29l-.9-.9a.996.996 0 1 1 1.41-1.41l.19.19 1.71-1.71a.996.996 0 1 1 1.41 1.41l-2.42 2.42c-.18.19-.43.29-.69.29zM15.74 37.81c-.26 0-.51-.1-.71-.29l-.9-.9a.996.996 0 1 1 1.41-1.41l.19.19 1.71-1.71a.996.996 0 1 1 1.41 1.41l-2.42 2.42c-.18.19-.43.29-.69.29z" fill="#ffffff"></path><path d="M15.44 2v5.97c0 1.1.9 2 2 2h14.71c1.1 0 2-.9 2-2V2z" fill="#5d5b68"></path><path d="M19.51 7.9c-1.1 0-2-.9-2-2V2h-2.07v5.97c0 1.1.9 2 2 2h14.71c1.1 0 2-.9 2-2V7.9z" fill="#000000" opacity=".15"></path><path d="M18.78 52.32c-2.76 0-5-2.24-5-5 0-.79.2-1.53.53-2.2-1.66.81-2.8 2.5-2.8 4.47 0 2.76 2.24 5 5 5 1.97 0 3.66-1.15 4.47-2.8-.67.33-1.41.53-2.2.53zM18.78 38.32c-2.76 0-5-2.24-5-5 0-.79.2-1.53.53-2.2-1.66.81-2.8 2.5-2.8 4.47 0 2.76 2.24 5 5 5 1.97 0 3.66-1.15 4.47-2.8-.67.33-1.41.53-2.2.53zM18.78 24.02c-2.76 0-5-2.24-5-5 0-.79.2-1.53.53-2.2-1.66.81-2.8 2.5-2.8 4.47 0 2.76 2.24 5 5 5 1.97 0 3.66-1.15 4.47-2.8-.67.33-1.41.53-2.2.53z" fill="#000000" opacity=".1"></path><path d="M15.74 51.81c-.27 0-.52-.11-.71-.29l-.9-.9a.996.996 0 1 1 1.41-1.41l.19.19 1.71-1.71a.996.996 0 1 1 1.41 1.41l-2.42 2.42a.95.95 0 0 1-.69.29z" fill="#ffffff"></path></g></svg>