<svg fill-rule="evenodd" viewBox="0 0 1707 1707" xmlns="http://www.w3.org/2000/svg"><g><g fill="#fec093"><path d="M1151 1668c-153 0-245-118-225-281 2-18 81-118 81-249 0-119-51-172-55-186-56-218 47-421 269-421 163 0 335 121 346 352 3 46-6 54-19 91-97 266-136 400-141 466-10 148-139 228-256 228zM1065 528c-50 0-91-52-91-116s41-116 91-116 91 52 91 116-41 116-91 116zM1285 518c-45 0-82-46-82-104 0-138 165-138 165 0 0 58-37 104-83 104z" fill="#fec093"></path><path d="M1465 578c-110 0-90-207 20-207 57 0 85 66 69 125-13 48-49 82-89 82zM1600 736c-64 0-91-75-53-141 48-83 149-75 159 9 7 64-46 132-106 132zM555 1410c-117 0-246-80-255-227-5-64-45-202-141-466-14-37-22-45-20-91 22-445 638-480 630-37 0 18-7 97-18 112-60 87-67 225-21 323 18 39 17 47 48 98 1 2 2 5 3 8 20 162-72 280-226 280z" fill="#fec093"></path><path d="M641 271c-50 0-90-52-90-116s40-116 90-116c51 0 91 52 91 116s-40 116-91 116zM421 261c-45 0-82-47-82-104 0-138 164-138 164 0 0 57-37 104-82 104zM241 321c-99 0-131-179-36-204 105-29 158 174 54 202-6 1-12 2-18 2zM106 479c-91 0-146-146-70-190 43-25 97 3 124 49 36 63 12 141-54 141z" fill="#fec093"></path></g></g></svg>