<svg viewBox="0 0 512 512" xmlns="http://www.w3.org/2000/svg"><g><path d="M330 165C330 74.099 255.901 0 165 0S0 74.099 0 165c0 41.7 7.8 82.8 15.3 122.699C22.5 326.4 30 367 30 406c0 57.9 47.1 106 105 106 10.499 0 20.4-1.5 30-4.501 43.2-12.9 75-54.101 75-101.499 0-7.2-.601-14.101-2.1-21-7.2-36 18.9-78.401 43.801-103.299C312.9 250.499 330 209.099 330 165z" fill="#fed2a4"></path><path d="M281.7 281.7c-24.9 24.899-51 67.299-43.8 103.3 1.5 6.899 2.1 13.801 2.1 21 0 47.399-31.8 88.599-75 101.499V0c90.901 0 165 74.099 165 165 0 44.099-17.1 85.499-48.3 116.7z" fill="#ffbd86"></path><path d="M267.599 141.899C258.9 101.4 225.601 69.3 184.501 61.8 177.9 60.601 171.301 60 165 60c-57.299 0-105 46.5-105 105 0 48.3 12.299 98.099 21.301 150 4.199 26.1 26.4 45 52.5 45 11.4 0 22.2-3.9 31.199-10.501 10.499-7.5 18.3-18.9 21-32.399l2.1-11.4c6.599-33.301-3.001-65.4-23.101-88.801C147 195.598 120.6 181.499 90.299 180c-.3-5.101-.3-9.901-.3-15 0-40.8 32.999-75 75-75 4.501 0 9.3.3 14.099 1.199C207.9 96.599 232.2 120 238.2 148.2c5.7 26.1-1.8 51.299-20.099 69.899L239.4 239.4c25.2-25.5 35.699-61.801 28.199-97.501z" fill="#f6a96c"></path><path d="M360 240h152v30H360zM489.291 448.418l-121-60 13.418-26.836 121 60zM381.709 148.418l-13.418-26.836 121-60 13.418 26.836z" fill="#ff9f00"></path><path d="M165 216.899c20.099 23.401 29.7 55.499 23.101 88.801l-2.1 11.4c-2.701 13.499-10.501 24.899-21 32.399l-.001-132.6zM239.399 239.399 218.1 218.098c18.3-18.6 25.8-43.799 20.099-69.899-6-28.2-30.3-51.601-59.101-57.001C174.3 90.3 169.501 90 165 90V60c6.301 0 12.9.601 19.501 1.8 41.1 7.5 74.399 39.6 83.099 80.099 7.499 35.7-3 72.001-28.201 97.5z" fill="#ea9b58"></path></g></svg>