<svg viewBox="0 0 512 512" xmlns="http://www.w3.org/2000/svg"><g><path d="M463.15 506.148h-92.864c-26.936 0-48.85-21.914-48.85-48.85v-13.294c0-41.344 33.635-74.979 74.979-74.979h40.605c41.344 0 74.979 33.636 74.979 74.979v13.294c.001 26.935-21.913 48.85-48.849 48.85z" fill="#ff6836"></path><path d="M416.718 398.886c-30.383 0-55.102-24.719-55.102-55.102s24.719-55.102 55.102-55.102 55.102 24.719 55.102 55.102-24.719 55.102-55.102 55.102z" fill="#9d7046"></path><path d="M351.32 444v13.3c0 26.93-21.92 48.85-48.85 48.85h-46.44l-31.973-68.564 31.973-68.566h20.31c41.34 0 74.98 33.64 74.98 74.98z" fill="#ff9e36"></path><path d="M512 81.1v60.25c0 35.91-25.16 66.37-59.62 73.62l-23.21 35.11a15.011 15.011 0 0 1-12.49 6.73h-.02c-5.02 0-9.7-2.51-12.49-6.69l-22.33-33.52h-91.09l-22.21 33.5c-2.78 4.18-7.47 6.7-12.49 6.71h-.02L178 126.287 256.03 5.85h180.72C478.24 5.85 512 39.61 512 81.1z" fill="#4aca7b"></path><path d="M141.781 506.148H48.918c-26.937 0-48.851-21.914-48.851-48.85v-13.294c0-41.344 33.636-74.979 74.979-74.979h40.605c41.344 0 74.979 33.636 74.979 74.979v13.294c.002 26.935-21.912 48.85-48.849 48.85z" fill="#ffdb6c"></path><path d="M95.35 398.886c-30.383 0-55.102-24.719-55.102-55.102s24.719-55.102 55.102-55.102 55.102 24.719 55.102 55.102-24.72 55.102-55.102 55.102z" fill="#f2ccbd"></path><path d="M235.73 369.02c-41.34 0-74.98 33.64-74.98 74.98v13.3c0 26.93 21.92 48.85 48.85 48.85h46.43V369.02z" fill="#fcc100"></path><path d="M75.25 5.85C33.76 5.85 0 39.61 0 81.1v60.25c0 35.88 25.13 66.33 59.55 73.6l23.29 35.14c2.78 4.19 7.47 6.71 12.49 6.72h.01c5.03 0 9.71-2.52 12.49-6.7l22.28-33.51h91.1l22.34 33.52c2.78 4.18 7.47 6.69 12.48 6.69V5.85z" fill="#9fe066"></path><path d="M311.14 343.78c0 30.39-24.72 55.11-55.11 55.11L231.667 341l24.363-52.32c30.39 0 55.11 24.72 55.11 55.1z" fill="#7c3d34"></path><path d="m313.91 93.17-57.86 42.72L243.667 123l12.383-24.4 40.04-29.56c6.67-4.93 16.06-3.51 20.98 3.15 4.92 6.67 3.5 16.06-3.16 20.98z" fill="#23272b"></path><path d="M256.05 98.6v37.29l-23.75 17.53a15 15 0 0 1-12.17 2.57c-4.24-.94-7.86-3.67-9.93-7.49l-16.32-30.13c-3.95-7.28-1.24-16.38 6.04-20.33s16.39-1.24 20.34 6.04l8.1 14.96z" fill="#414952"></path><path d="M200.93 343.78c0 30.39 24.72 55.11 55.1 55.11V288.68c-30.38 0-55.1 24.72-55.1 55.1z" fill="#8e4f3e"></path></g></svg>