<svg viewBox="0 0 512 512" xmlns="http://www.w3.org/2000/svg"><g><g clip-rule="evenodd" fill-rule="evenodd"><circle cx="256" cy="256" fill="#ff5a54" r="240"></circle><path d="M495.941 260.673c-2.462 128.835-106.433 232.806-235.268 235.268-40.768-40.767-81.645-81.444-122.407-122.206-10.666-10.666-10.667-28.119-.001-38.786L217.214 256l-78.949-78.949c-10.666-10.666-10.666-28.119 0-38.785s28.119-10.667 38.786-.001L256 217.214l78.949-78.949c10.666-10.666 28.119-10.666 38.786 0 40.762 40.762 81.438 81.64 122.206 122.408z" fill="#db3a3c"></path><path d="M138.265 373.735c10.666 10.666 28.12 10.666 38.786 0L256 294.786l78.949 78.949c10.666 10.666 28.119 10.666 38.785 0 10.666-10.666 10.666-28.119 0-38.786L294.786 256l78.949-78.949c10.666-10.666 10.666-28.119 0-38.785-10.666-10.666-28.119-10.666-38.786 0L256 217.214l-78.949-78.949c-10.666-10.666-28.119-10.666-38.785 0-10.666 10.666-10.666 28.119 0 38.785L217.214 256l-78.949 78.949c-10.666 10.666-10.666 28.12 0 38.786z" fill="#ffffff"></path></g></g></svg>