<svg viewBox="0 0 59 52" xmlns="http://www.w3.org/2000/svg"><g><g fill="none"><path d="M37 12v37a3 3 0 0 1-3 3H4a3 3 0 0 1-3-3V3a3 3 0 0 1 3-3h21z" fill="#f9eab0"></path><path d="M37 12h-9a3 3 0 0 1-3-3V0z" fill="#f3d55b"></path><path d="M50 13c-6.18 0-10.5 5.41-8.52 10.57l-4.26 3.53 1.49 2.56L41.92 31l3.66-3c6 3 13.42-.84 13.42-7 0-4.42-4-8-9-8zm0 12c-2.76 0-5-1.79-5-4s2.24-4 5-4 5 1.79 5 4-2.24 4-5 4zM37.22 34.9l-12 9.94a5 5 0 0 1-7-.66l-.64-.77L32.51 31l4.24.63.25 3.09z" fill="#2980ba"></path><g fill="#ff5364"><path d="M4 32H1a1 1 0 0 1 0-2h3a1 1 0 0 1 0 2zM11 32H8a1 1 0 0 1 0-2h3a1 1 0 0 1 0 2zM18 32h-3a1 1 0 0 1 0-2h3a1 1 0 0 1 0 2zM25 32h-3a1 1 0 0 1 0-2h3a1 1 0 0 1 0 2z" fill="#ff5364"></path></g><path d="M45.58 34 25.21 17.16a5 5 0 0 0-7 .66l-.64.77 23.91 19.84C39.5 43.6 43.83 49 50 49c5 0 9-3.58 9-8 0-6.1-7.39-10-13.42-7zM50 45c-2.76 0-5-1.79-5-4s2.24-4 5-4 5 1.79 5 4-2.24 4-5 4z" fill="#3b97d3"></path><circle cx="37" cy="31" fill="#d1d4d1" r="1"></circle></g></g></svg>