<?xml version="1.0" encoding="iso-8859-1"?>
<!-- Generator: Adobe Illustrator 19.0.0, SVG Export Plug-In . SVG Version: 6.00 Build 0)  -->
<svg version="1.1" id="Layer_1" xmlns="http://www.w3.org/2000/svg" xmlns:xlink="http://www.w3.org/1999/xlink" x="0px" y="0px"
	 viewBox="0 0 511.999 511.999" style="enable-background:new 0 0 511.999 511.999;" xml:space="preserve">
<path style="fill:#971311;" d="M145.588,457.617V382.42h-33.052c-5.068,0-9.213,4.147-9.213,9.213v75.196h33.052
	C141.442,466.83,145.588,462.683,145.588,457.617z"/>
<path style="fill:#E02424;" d="M463.384,367.646v13.821c0,15.696-12.509,28.461-27.885,28.461c-15.376,0-29.064-11.585-29.064-27.28
	l0.403-131.579c0.055-18.05-14.562-32.712-32.611-32.712H33.765c-18.011,0-32.611,14.6-32.611,32.611v206.647
	c0,5.068,4.146,9.214,9.214,9.214h93.076c5.068,0,9.214-4.146,9.214-9.214v-64.001l0.047-0.013v-1.969
	c0-5.067,4.146-9.213,9.213-9.213h33.052v0.016l0.06-0.016v-1.028c0-8.959,6.856-16.678,15.801-17.154
	c9.538-0.509,17.435,6.984,17.614,16.366v77.012c0,5.067,4.145,9.212,9.212,9.212h93.078c5.068,0,9.213-4.146,9.213-9.213v-65.983
	c0-5.067,4.146-9.213,9.213-9.213h0.584h32.469h12.141c2.342,0,4.607-0.33,6.786-0.895c0.032,41.824,33.375,75.841,74.357,75.841
	c41.002,0,74.358-34.049,74.358-75.9v-14.237C508.958,367.911,464.149,368.069,463.384,367.646z"/>
<path style="fill:#AAB0B5;" d="M433.738,304.717c-15.014-2.913-28.816-10.937-38.861-22.59
	c-8.246-9.567-13.679-21.288-15.714-33.677h-38.884c2.431,17.374,10.532,33.39,23.311,45.759
	c14.826,14.353,34.361,22.256,55.003,22.256c5.04,0,10.134-0.493,15.145-1.464c2.462-0.476,4.242-2.633,4.242-5.141
	C437.978,307.352,436.2,305.195,433.738,304.717z"/>
<path style="fill:#0853A4;" d="M397.327,228.805c5.313,0,9.625-4.3,9.638-9.613l0.202-75.031c0-54.671-43.421-98.993-96.983-98.993
	H98.136c-53.563,0-96.982,44.321-96.982,98.993v0.554v74.451c0,5.323,4.315,9.638,9.638,9.638h386.535V228.805z"/>
<g>
	<path style="fill:#E0E0E0;" d="M214.273,229.558v-11.202H1.154v33.341h218.58C216.253,245.094,214.273,237.56,214.273,229.558z"/>
	<polygon style="fill:#E0E0E0;" points="337.54,218.357 337.54,251.697 406.836,251.697 406.939,218.357 	"/>
</g>
<g style="opacity:0.1;">
	<path d="M35.022,457.617V218.356H1.154v239.261c0,5.066,4.146,9.212,9.214,9.212h33.868
		C39.167,466.83,35.022,462.683,35.022,457.617z"/>
</g>
<path style="fill:#971311;" d="M511.999,362.979c0,2.945-2.411,5.353-5.355,5.353h-40.696c-2.946,0-5.355-2.408-5.355-5.353v-17.162
	c0-2.944,2.41-5.354,5.355-5.354h40.696c2.945,0,5.355,2.41,5.355,5.354V362.979z"/>
<path style="opacity:0.1;enable-background:new    ;" d="M35.029,144.161c0-54.671,43.421-98.993,96.982-98.993H98.136
	c-53.563,0-96.982,44.321-96.982,98.993v0.554v73.641H35.03v-73.641v-0.554H35.029z"/>
<g>
	<path style="fill:#FFFFFF;" d="M95.415,179.726c-0.769,0-1.52-0.153-2.229-0.45l-13.494-5.66c-0.267-0.113-0.548-0.171-0.833-0.171
		c-0.284,0-0.568,0.059-0.835,0.171l-13.493,5.66c-0.709,0.297-1.456,0.45-2.23,0.45c-1.226,0-2.398-0.378-3.385-1.098
		c-1.621-1.173-2.522-3.137-2.357-5.122l1.232-14.542c0.051-0.581-0.136-1.151-0.517-1.589l-9.569-11.041
		c-1.306-1.512-1.735-3.625-1.118-5.523c0.622-1.898,2.216-3.362,4.166-3.815l14.252-3.329c0.564-0.129,1.051-0.483,1.35-0.978
		l7.573-12.487c1.038-1.707,2.926-2.767,4.932-2.767c2.004,0,3.89,1.061,4.93,2.767l7.576,12.487
		c0.296,0.495,0.785,0.85,1.347,0.978l14.254,3.329c1.949,0.453,3.544,1.917,4.168,3.818c0.62,1.895,0.187,4.008-1.123,5.52
		l-9.566,11.041c-0.376,0.439-0.567,1.009-0.514,1.589l1.225,14.542c0.173,1.985-0.73,3.947-2.35,5.122
		C97.811,179.347,96.645,179.726,95.415,179.726z"/>
	<path style="fill:#FFFFFF;" d="M182.197,179.726c-0.769,0-1.52-0.153-2.229-0.45l-13.495-5.66
		c-0.266-0.113-0.546-0.171-0.833-0.171c-0.283,0-0.568,0.059-0.834,0.171l-13.493,5.66c-0.711,0.297-1.456,0.45-2.23,0.45
		c-1.227,0-2.398-0.378-3.387-1.098c-1.62-1.173-2.521-3.137-2.356-5.122l1.231-14.542c0.052-0.581-0.135-1.151-0.517-1.589
		l-9.568-11.041c-1.306-1.512-1.735-3.625-1.119-5.523c0.622-1.898,2.217-3.362,4.167-3.815l14.251-3.329
		c0.565-0.129,1.052-0.483,1.35-0.978l7.574-12.487c1.037-1.707,2.926-2.767,4.931-2.767c2.004,0,3.891,1.061,4.931,2.767
		l7.574,12.487c0.296,0.495,0.786,0.85,1.347,0.978l14.254,3.329c1.95,0.453,3.545,1.917,4.168,3.818
		c0.62,1.895,0.187,4.008-1.122,5.52l-9.566,11.041c-0.376,0.439-0.567,1.009-0.515,1.589l1.225,14.542
		c0.175,1.985-0.73,3.947-2.349,5.122C184.593,179.347,183.427,179.726,182.197,179.726z"/>
</g>
<path style="fill:#03437C;" d="M337.54,115.103c0-5.914-4.795-10.708-10.709-10.708h-66.233c-25.543,0-46.325,21.11-46.325,47.061
	v78.102c0,25.949,20.782,47.059,46.325,47.059h66.233c5.914,0,10.709-4.794,10.709-10.707V115.103z"/>
<g style="opacity:0.1;">
	<path style="fill:#231F20;" d="M247.972,229.558v-78.102c0-25.951,20.782-47.061,46.324-47.061h-33.699
		c-25.543,0-46.325,21.11-46.325,47.061v78.102c0,25.949,20.782,47.059,46.325,47.059h33.699
		C268.754,276.617,247.972,255.507,247.972,229.558z"/>
</g>
<path style="fill:#231F20;" d="M369.161,188.946c4.455,0,8.067-3.612,8.067-8.068v-19.273c0-4.455-3.611-8.067-8.067-8.067
	c-4.454,0-8.066,3.611-8.066,8.067v19.273C361.096,185.334,364.707,188.946,369.161,188.946z"/>
<g>
	<path style="fill:#971311;" d="M121.92,382.42c-5.068,0-9.214,4.147-9.214,9.213v59.531c-3.449-5.521-9.409-9.145-16.22-9.145
		c-10.063,0-18.531,8.185-19.285,18.642c-0.749-10.454-9.218-18.642-19.284-18.642c-10.063,0-18.531,8.185-19.285,18.642
		c-0.749-10.454-9.218-18.642-19.285-18.642c-10.468,0-18.965,8.528-19.345,19.415c-0.049,1.414,0.478,2.787,1.46,3.804
		s2.335,1.59,3.75,1.59h140.545c5.068,0,9.213-4.147,9.213-9.212V382.42L121.92,382.42L121.92,382.42z"/>
	<path style="fill:#971311;" d="M309.163,382.42c-5.068,0-9.214,4.147-9.214,9.213v11.363v47.496
		c-3.502-5.148-9.27-8.473-15.806-8.473c-10.063,0-18.532,8.185-19.286,18.642c-0.748-10.454-9.217-18.642-19.284-18.642
		c-10.063,0-18.531,8.185-19.285,18.642c-0.748-10.454-9.218-18.642-19.284-18.642c-10.469,0-18.965,8.528-19.345,19.415
		c-0.05,1.414,0.478,2.787,1.459,3.804c0.983,1.018,2.335,1.59,3.75,1.59h140.131c5.068,0,9.214-4.147,9.214-9.212V382.42
		L309.163,382.42L309.163,382.42z"/>
</g>
<g>
</g>
<g>
</g>
<g>
</g>
<g>
</g>
<g>
</g>
<g>
</g>
<g>
</g>
<g>
</g>
<g>
</g>
<g>
</g>
<g>
</g>
<g>
</g>
<g>
</g>
<g>
</g>
<g>
</g>
</svg>
