<svg id="Layer_1" height="512" viewBox="0 0 512 512" width="512" xmlns="http://www.w3.org/2000/svg"><g><g><path d="m272 448h-32c-97.202 0-176-78.798-176-176 0-97.202 78.798-176 176-176h32c97.202 0 176 78.798 176 176 0 97.202-78.798 176-176 176z" fill="#faa019"/></g><g><circle cx="240" cy="272" fill="#ffcd05" r="176"/></g><g><circle cx="240" cy="272" fill="#d7e6f0" r="144"/></g><g><path d="m240 288c-8.837 0-16-7.164-16-16v-112c0-8.836 7.163-16 16-16s16 7.164 16 16v112c0 8.836-7.163 16-16 16z" fill="#555a6e"/></g><g><path d="m240 400c-8.837 0-16-7.164-16-16v-16c0-8.836 7.163-16 16-16s16 7.164 16 16v16c0 8.836-7.163 16-16 16z" fill="#a5c3dc"/></g><g><path d="m352 288h-16c-8.837 0-16-7.164-16-16s7.163-16 16-16h16c8.837 0 16 7.164 16 16s-7.163 16-16 16z" fill="#a5c3dc"/></g><g><path d="m144 288h-16c-8.837 0-16-7.164-16-16s7.163-16 16-16h16c8.837 0 16 7.164 16 16s-7.163 16-16 16z" fill="#a5c3dc"/></g><g><path d="m184 344c-4.095 0-8.189-1.562-11.313-4.686-6.249-6.249-6.249-16.379 0-22.628l56-56c6.248-6.248 16.379-6.248 22.627 0 6.249 6.249 6.249 16.379 0 22.628l-56 56c-3.125 3.124-7.219 4.686-11.314 4.686z" fill="#555a6e"/></g><g><g><circle cx="240" cy="272" fill="#555a6e" r="24"/></g><g><path d="m240 256c8.823 0 16 7.178 16 16s-7.177 16-16 16-16-7.178-16-16 7.177-16 16-16m0-16c-17.673 0-32 14.327-32 32s14.327 32 32 32 32-14.327 32-32-14.327-32-32-32z" fill="#faa019"/></g></g><g fill="#2387c3"><path d="m444.092 55.038-31.221-28.991c-1.417-1.315-3.278-2.046-5.211-2.046-4.23 0-7.659 3.429-7.659 7.659v16.34h-160.001c-59.832 0-116.084 23.3-158.392 65.608-42.308 42.309-65.608 98.559-65.608 158.392s23.3 116.083 65.608 158.392c42.308 42.308 98.56 65.608 158.392 65.608h8c4.418 0 8-3.582 8-8v-16c0-4.418-3.582-8-8-8h-8c-105.869 0-192-86.131-192-192s86.131-192 192-192h160v16.341c0 4.23 3.429 7.659 7.659 7.659 1.933 0 3.795-.731 5.211-2.046l31.221-28.991c2.493-2.315 3.909-5.562 3.909-8.963s-1.416-6.648-3.908-8.962z"/><path d="m492.092 55.038-31.221-28.991c-1.417-1.315-3.278-2.046-5.211-2.046-4.23 0-7.659 3.429-7.659 7.659v64.682c0 4.23 3.429 7.659 7.659 7.659 1.933 0 3.795-.731 5.211-2.046l31.221-28.991c2.492-2.316 3.908-5.563 3.908-8.964s-1.416-6.648-3.908-8.962z"/></g></g></svg>