<svg viewBox="0 0 489.999 489.999" xmlns="http://www.w3.org/2000/svg"><g><path d="M437.493 312.107a39.15 39.15 0 0 0-.2 3.871c0 19.603 15.359 35.635 34.694 36.714.365.02 1.094.032 1.74.038.67.005 1.209.55 1.209 1.22v42.37c0 19.294-15.641 34.935-34.935 34.935H47.423c-19.294 0-34.935-15.641-34.935-34.935v-39.056c0-2.472 1.832-4.543 4.279-4.885a36.258 36.258 0 0 0 5.341-1.16c15.202-4.522 26.28-18.58 26.28-35.24a36.553 36.553 0 0 0-8.729-23.773.442.442 0 0 0-.094-.105c-5.678-6.65-13.7-11.247-22.786-12.523-2.452-.345-4.292-2.411-4.292-4.888v-33.271c0-19.294 15.641-34.935 34.935-34.935H440.01c19.289 0 34.925 15.636 34.925 34.925v36.606c0 .667-.546 1.213-1.212 1.212-.222 0-.412 0-.506.002-18.602.423-33.812 14.66-35.724 32.878z" fill="#0067c5"></path><path d="M474.936 241.407v36.6c0 .67-.538 1.214-1.208 1.22-.666.006-1.428.019-1.809.041-18.01 1.037-32.558 15.045-34.425 32.839L77.071 415.854c-18.548 5.34-37.894-5.371-43.234-23.909l-11.729-40.727c15.202-4.522 26.28-18.58 26.28-35.24a36.553 36.553 0 0 0-8.729-23.773.442.442 0 0 0-.094-.105c-5.678-6.65-13.7-11.247-22.786-12.523-2.452-.345-4.292-2.411-4.292-4.888v-33.271c0-19.294 15.641-34.935 34.935-34.935H440.01c19.289 0 34.926 15.636 34.926 34.924z" fill="#0055a3"></path><path d="m464.72 276.119-112.18 32.29-14.42 4.15-250.67 72.15c-18.54 5.34-37.89-5.37-43.23-23.91l-10.604-36.84c-.783-2.72.514-5.622 3.081-6.814 16.147-7.503 24.875-25.844 19.793-43.485-5.069-17.627-22.188-28.524-39.841-26.313-2.803.351-5.463-1.305-6.245-4.019L1.37 211.939c-5.33-18.54 5.37-37.9 23.91-43.23l250.67-72.15 14.42-4.15 112.18-32.29c18.54-5.34 37.89 5.36 43.23 23.9l9.606 33.372a3.186 3.186 0 0 1-2.03 3.898c-.971.331-1.96.687-2.572.955-16.634 7.28-25.715 25.929-20.554 43.845 5.354 18.587 24.096 29.695 42.735 25.845.17-.035.39-.086.638-.147a3.194 3.194 0 0 1 3.833 2.212l11.193 38.889c5.331 18.541-5.369 37.891-23.909 43.231z" fill="#d3e1f5"></path><path d="M445.443 82.956c-5.761-17.879-24.713-28.073-42.894-22.84L25.278 168.706C7.434 173.842-3.143 191.961.845 209.844z" fill="#b3ceec"></path><path d="m283.159 94.48 62.172 216.003L87.45 384.709c-18.539 5.336-37.894-5.367-43.23-23.906l-10.603-36.839c-.783-2.72.514-5.622 3.081-6.814 16.148-7.504 24.875-25.845 19.797-43.49-5.075-17.631-22.193-28.522-39.845-26.316-2.803.35-5.463-1.306-6.244-4.02l-9.034-31.387c-5.336-18.539 5.367-37.894 23.906-43.23z" fill="#b3ceec"></path><path d="m283.159 94.48-257.88 74.226c-11.259 3.258-21.18 12.614-24.141 24.765a34.742 34.742 0 0 0-.294 16.363l.002.01 291.567-83.213z" fill="#98bce5"></path><g fill="#eaf6ff"><path d="m177.986 250.095-3.463 60.474c-.123 2.142 1.908 3.764 3.97 3.17l16.806-4.837a3.114 3.114 0 0 0 2.154-2.215l17.003-65.97zM172.631 231.491l-35.082-49.38c-1.243-1.749-.385-4.202 1.677-4.796l16.806-4.837a3.114 3.114 0 0 1 3.002.731l49.472 46.836z" fill="#eaf6ff"></path><path d="M102.055 250.686s112.934-39.221 126.37-43.088 28.53 9.694 28.53 9.694-5.575 19.511-19.011 23.378-129.94 30.686-129.94 30.686l-11.56 3.966a3.115 3.115 0 0 1-3.699-1.374l-13.914-23.805c-1.398-2.392.789-5.281 3.471-4.585z" fill="#eaf6ff"></path></g><path d="m402.39 123.952-65.027 18.717a5.421 5.421 0 0 1-6.709-3.71l-5.393-18.738a5.421 5.421 0 0 1 3.71-6.709l65.027-18.717a5.421 5.421 0 0 1 6.709 3.71l5.393 18.738a5.42 5.42 0 0 1-3.71 6.709z" fill="#60b7ff"></path><path d="m295.538 269.688 14.653 50.909-41.34 11.899-14.653-50.909a6.175 6.175 0 0 1 4.226-7.642l29.473-8.483a6.174 6.174 0 0 1 7.641 4.226z" fill="#fee903"></path><path d="M419.925 400.062h-71.717a5.546 5.546 0 0 1-5.547-5.547v-17.944a5.546 5.546 0 0 1 5.547-5.547h71.717a5.547 5.547 0 0 1 5.547 5.547v17.944a5.547 5.547 0 0 1-5.547 5.547z" fill="#ffefd2"></path><path d="m352.54 308.409-14.42 4.15-2.9-10.09a7.491 7.491 0 0 1 5.13-9.28c3.97-1.15 8.14 1.15 9.28 5.13zM339.67 263.709l-5.5-19.13c-1.15-3.98-5.31-6.28-9.28-5.13-3.98 1.14-6.28 5.3-5.14 9.28l5.51 19.13a7.491 7.491 0 0 0 7.2 5.43c.69 0 1.39-.1 2.08-.3a7.491 7.491 0 0 0 5.13-9.28zm-15.46-53.74-5.51-19.13a7.503 7.503 0 0 0-9.28-5.13c-3.98 1.15-6.28 5.3-5.13 9.28l5.5 19.13a7.509 7.509 0 0 0 7.2 5.43c.69 0 1.39-.1 2.08-.3 3.98-1.14 6.28-5.3 5.14-9.28zm-15.47-53.74-5.51-19.12c-1.14-3.98-5.31-6.28-9.28-5.14-3.98 1.15-6.28 5.31-5.13 9.29l5.5 19.12a7.512 7.512 0 0 0 9.28 5.14 7.52 7.52 0 0 0 5.14-9.29zM288.14 111.779c-.69.2-1.39.29-2.08.29-3.26 0-6.26-2.14-7.2-5.42l-2.91-10.09 14.42-4.15 2.9 10.09c1.15 3.98-1.15 8.13-5.13 9.28z" fill="#d3e1f5"></path><path d="M400.278 240.616a7.5 7.5 0 0 1-2.07-14.709l40.307-11.602c3.972-1.146 8.135 1.151 9.281 5.133a7.5 7.5 0 0 1-5.133 9.282l-40.307 11.602a7.508 7.508 0 0 1-2.078.294zM407.715 266.454a7.502 7.502 0 0 1-2.07-14.71l40.307-11.601a7.5 7.5 0 0 1 4.148 14.415l-40.307 11.601c-.693.2-1.392.295-2.078.295z" fill="#98bce5"></path><path d="M81.253 349.228a7.5 7.5 0 0 1-2.07-14.709l56.843-16.361a7.5 7.5 0 1 1 4.148 14.415l-56.843 16.361a7.519 7.519 0 0 1-2.078.294z" fill="#596c76"></path><path d="M305.938 391.54h-79.732c-4.143 0-7.5-3.358-7.5-7.5s3.357-7.5 7.5-7.5h79.732c4.143 0 7.5 3.358 7.5 7.5s-3.357 7.5-7.5 7.5z" fill="#60b7ff"></path></g></svg>