<svg viewBox="0 0 64 64" xmlns="http://www.w3.org/2000/svg"><g><path d="M58 16v39c0 1.66-1.34 3-3 3H4c-1.66 0-3-1.34-3-3V16z" fill="#ffe9e6"></path><path d="M58 55c0 1.66-1.34 3-3 3H4c-1.66 0-3-1.34-3-3V16h5v21c0 9.94 8.06 18 18 18z" fill="#f9d2cf"></path><path d="M58 9v7H1V9c0-1.66 1.34-3 3-3h51c1.66 0 3 1.34 3 3z" fill="#a2b7ff"></path><path d="M58 13v3H1V9c0-1.66 1.34-3 3-3h2v3c0 2.21 1.79 4 4 4z" fill="#80a1ff"></path><path d="M63 20v40c0 1.66-1.34 3-3 3H10c-1.66 0-3-1.34-3-3v-2h48c1.66 0 3-1.34 3-3V20z" fill="#ffe9e6"></path><path d="M63 60c0 1.66-1.34 3-3 3H10c-1.66 0-3-1.34-3-3v-2h3.18c.4 1.17 1.51 2 2.82 2z" fill="#f9d2cf"></path><path d="M63 13v7h-5V10h2c1.66 0 3 1.34 3 3z" fill="#a2b7ff"></path><path d="M63 18v2h-5V10h2v5.5a2.5 2.5 0 0 0 2.5 2.5z" fill="#80a1ff"></path><g fill="#ff676c"><path d="M18 5v1h-2V5c0-1.1-.9-2-2-2s-2 .9-2 2v3c0 .76.43 1.41 1.05 1.75.11-.43.49-.75.95-.75.55 0 1 .45 1 1v2c0 .55-.45 1-1 1s-1-.45-1-1v-.14c-1.72-.45-3-2-3-3.86V5c0-2.21 1.79-4 4-4s4 1.79 4 4zM49 5v1h-2V5c0-1.1-.9-2-2-2s-2 .9-2 2v3c0 .76.43 1.41 1.05 1.75.11-.43.49-.75.95-.75.55 0 1 .45 1 1v2c0 .55-.45 1-1 1s-1-.45-1-1v-.14c-1.72-.45-3-2-3-3.86V5c0-2.21 1.79-4 4-4s4 1.79 4 4z" fill="#ff676c"></path></g><path d="M6 22h8v6H6z" fill="#ffa71d"></path><path d="M14 26v2H6v-6h3v1c0 1.66 1.34 3 3 3z" fill="#ed9015"></path><g fill="#ffa71d"><path d="M32 22h8v6h-8zM45 22h8v6h-8zM6 34h8v6H6zM19 34h8v6h-8zM32 34h8v6h-8zM45 34h8v6h-8zM6 46h8v6H6zM19 46h8v6h-8zM32 46h8v6h-8zM45 46h8v6h-8z" fill="#ffa71d"></path></g><path d="M22 29a1 1 0 0 1-.707-.293l-3-3a1 1 0 1 1 1.414-1.414l2.226 2.226 4.299-5.16a1 1 0 1 1 1.536 1.281l-5 6a1 1 0 0 1-.723.359z" fill="#ff676c"></path><path d="M58 20h2v33c0 1.104-.896 2-2 2z" fill="#f9d2cf"></path><path d="M40 26v2h-8v-6h3v1c0 1.66 1.34 3 3 3zM53 26v2h-8v-6h3v1c0 1.66 1.34 3 3 3zM14 38v2H6v-6h3v1c0 1.66 1.34 3 3 3zM40 38v2h-8v-6h3v1c0 1.66 1.34 3 3 3zM53 38v2h-8v-6h3v1c0 1.66 1.34 3 3 3zM14 50v2H6v-6h3v1c0 1.66 1.34 3 3 3zM27 38v2h-8v-6h3v1c0 1.66 1.34 3 3 3zM27 50v2h-8v-6h3v1c0 1.66 1.34 3 3 3zM40 50v2h-8v-6h3v1c0 1.66 1.34 3 3 3zM53 50v2h-8v-6h3v1c0 1.66 1.34 3 3 3z" fill="#ed9015"></path></g></svg>