<svg viewBox="0 0 64 64" xmlns="http://www.w3.org/2000/svg"><g><circle cx="27.224" cy="45.26" fill="#404049" r="6.784"></circle><path d="m31.838 61.301-2.708.985a2.561 2.561 0 0 1-2.914-.855L12.035 42.795l11.908-4.334 9.325 19.32a2.561 2.561 0 0 1-1.43 3.52z" fill="#dedeea"></path><path d="M28.865 48.665c-3.987.777-6.443 3.987-7.324 6.631l-3.19-4.197-6.316-8.31 11.898-4.322 4.806 9.925z" fill="#000000" opacity=".1"></path><path d="M36.397 5.798c-6.42 8.072-15.98 14.524-24.005 18.236l4.246 11.665 4.245 11.665c8.533-2.314 20.004-3.517 30.11-1.46-1.823-8.009-3.547-14.242-5.853-20.579-2.307-6.337-4.993-12.22-8.743-19.527z" fill="#f0f0fc"></path><path d="m16.663 48.9 4.22-1.536-8.491-23.33-4.22 1.536c-6.443 2.345-9.765 9.468-7.42 15.91 2.345 6.443 9.468 9.765 15.91 7.42z" fill="#f7524b"></path><path d="M51.008 45.897c-10.114-2.056-21.592-.84-30.112 1.469l-4.217 1.532a12.582 12.582 0 0 1-4.26.755c-5.057 0-9.82-3.127-11.667-8.163a12.433 12.433 0 0 1 2.182-12.233c3.001 5.665 8.646 9.023 15.172 10.45 9.84 2.161 21.739-.126 29.838-5.75 1.07 3.651 2.057 7.533 3.064 11.94z" fill="#000000" opacity=".1"></path><path d="M55.041 47.792a3.165 3.165 0 0 1-4.056-1.891L36.392 5.807a3.165 3.165 0 1 1 5.948-2.165l14.593 40.094a3.165 3.165 0 0 1-1.892 4.056z" fill="#f7524b"></path><path d="M53.183 14.958a1.049 1.049 0 0 1-.86-1.65l2.554-3.663a1.049 1.049 0 1 1 1.721 1.2l-2.555 3.664a1.05 1.05 0 0 1-.86.449zm10.78 15.382a1.05 1.05 0 0 0-.74-1.287l-4.311-1.164a1.055 1.055 0 0 0-1.285.74 1.05 1.05 0 0 0 .74 1.287l4.311 1.164a1.047 1.047 0 0 0 1.285-.74zm-7.692-7.949 4.217-1.535a1.048 1.048 0 1 0-.717-1.971l-4.218 1.535a1.048 1.048 0 1 0 .718 1.971z" fill="#404049"></path></g></svg>