<svg viewBox="0 0 512 512" xmlns="http://www.w3.org/2000/svg"><g><path d="M156.229 374.49a29.863 29.863 0 0 1 19.914-23.208l41.88-14.093 8.589-8.689a3.52 3.52 0 0 1 2.487-1.039h53.018c.884 0 1.728.331 2.375.931l9.506 8.804 41.859 14.085a29.865 29.865 0 0 1 19.914 23.208l3.056 17.574h136.349l-21.147-76.973a14.999 14.999 0 0 0-14.464-11.026H52.435a15 15 0 0 0-14.464 11.026l-21.147 76.973h136.349z" fill="#cbe5e8"></path><path d="m56.824 392.065 21.147-76.973a14.999 14.999 0 0 1 14.464-11.026h-40a15 15 0 0 0-14.464 11.026l-21.147 76.973z" fill="#a8d3d8"></path><circle cx="344.5" cy="331.565" fill="#ffffff" r="7.5"></circle><circle cx="370.5" cy="331.565" fill="#8ebac5" r="7.5"></circle><circle cx="396.5" cy="331.565" fill="#ffffff" r="7.5"></circle><circle cx="422.5" cy="331.565" fill="#8ebac5" r="7.5"></circle><circle cx="448.5" cy="331.565" fill="#8ebac5" r="7.5"></circle><circle cx="352.5" cy="355.565" fill="#ffffff" r="7.5"></circle><circle cx="378.5" cy="355.565" fill="#8ebac5" r="7.5"></circle><circle cx="404.5" cy="355.565" fill="#8ebac5" r="7.5"></circle><circle cx="430.5" cy="355.565" fill="#ffffff" r="7.5"></circle><circle cx="456.5" cy="355.565" fill="#8ebac5" r="7.5"></circle><path d="M189.294 54.565h133.411v82.615H189.294z" fill="#c8effe"></path><path d="m287.295 101.77 35.41 35.41h.001V54.565h-35.411z" fill="#dff6fd"></path><path d="M189.294 54.565H208v82.615h-18.706z" fill="#99e6fc"></path><path d="m322.705 137.18-35.41-35.41h-98.001v35.41z" fill="#ffe177"></path><path d="M189.294 101.77H208v35.41h-18.706z" fill="#ffd15b"></path><path d="M324.206 151.18H187.794c-6.893 0-12.5-5.607-12.5-12.5V53.065c0-6.893 5.607-12.5 12.5-12.5h136.411c6.893 0 12.5 5.607 12.5 12.5v85.615c.001 6.892-5.607 12.5-12.499 12.5zm-133.912-15h131.411V55.565H190.294z" fill="#678d98"></path><path d="M364.589 54.565H498v82.615H364.589z" fill="#c8effe"></path><path d="M364.589 54.565h19v82.615h-19z" fill="#99e6fc"></path><path d="M364.589 106.065H498v31.115H364.589z" fill="#8ebac5"></path><path d="M364.589 106.065h19v31.115h-19z" fill="#7ca1b1"></path><path d="M14 178.696h133.411v82.615H14z" fill="#c8effe"></path><path d="M147.411 178.696H78v47.369l33.35 35.247h36.061z" fill="#dff6fd"></path><path d="M14 178.696h18.589v82.615H14z" fill="#99e6fc"></path><path d="M111.35 261.312 78 226.065H14v35.247z" fill="#ffe177"></path><path d="M110 178.696h15v82.615h-15z" fill="#8ebac5"></path><path d="M14 226.065h18.589v35.247H14z" fill="#ffd15b"></path><path d="M364.589 178.696H498v82.615H364.589z" fill="#ffe177"></path><path d="M432 178.696h66v41.368h-66z" fill="#7ca1b1"></path><path d="M432 178.696h-67.411v82.616h3.562L432 220.065z" fill="#8ebac5"></path><path d="M384 178.696h-19.411v82.616h3.562L384 251.073z" fill="#7ca1b1"></path><g fill="#8ebac5"><path d="M499.5 391.065H358.653l8.346 48H499.5a5 5 0 0 0 5-5v-38a5 5 0 0 0-5-5zM153.347 391.065H12.5a5 5 0 0 0-5 5v38a5 5 0 0 0 5 5h132.501z" fill="#8ebac5"></path></g><path d="M48 434.065v-38a5 5 0 0 1 5-5H12.5a5 5 0 0 0-5 5v38a5 5 0 0 0 5 5H53a5 5 0 0 1-5-5z" fill="#7ca1b1"></path><g fill="#678d98"><path d="M479 407.565H361.522l2.608 15H479a7.5 7.5 0 0 0 0-15zM150.478 407.565H33a7.5 7.5 0 0 0 0 15h114.87z" fill="#678d98"></path></g><path d="M317.776 252.17h-1.864l-14.823 9.426a51.173 51.173 0 0 0-17.119 18.095l-3.963 7.069a9.013 9.013 0 0 1-7.851 4.599H239.23a8.957 8.957 0 0 1-7.593-4.168l-6.325-9.938a50.733 50.733 0 0 0-14.141-14.649L195.99 252.17h-1.766c-5.019 3.028-8.376 8.532-8.376 14.821v5.808c0 9.553 7.744 17.297 17.297 17.297h4.875c1.649 11.838 10.004 21.526 21.105 25.103a5.006 5.006 0 0 1 3.491 4.759v7.504h46.766v-7.504a5.006 5.006 0 0 1 3.491-4.759c11.101-3.577 19.456-13.265 21.105-25.103h4.875c9.553 0 17.297-7.744 17.297-17.297v-5.808c.002-6.289-3.355-11.794-8.374-14.821z" fill="#ffcebf"></path><path d="M280.727 172.196h-49.454c-20.462 0-37.049 16.587-37.049 37.049v42.924l16.381 11.258a50.006 50.006 0 0 1 13.864 14.362l6.325 9.938a10.002 10.002 0 0 0 8.436 4.631h32.926a10 10 0 0 0 8.723-5.11l3.963-7.069a49.994 49.994 0 0 1 16.784-17.74l16.15-10.27v-42.924c0-20.461-16.588-37.049-37.049-37.049z" fill="#bb5d4c"></path><path d="m264.569 287.728-6.324-9.938a49.98 49.98 0 0 0-13.864-14.362l-9.877-6.788A14.999 14.999 0 0 1 228 244.278v-35.032c0-20.462 16.587-37.049 37.049-37.049h-33.776c-20.462 0-37.049 16.587-37.049 37.049v42.924l16.382 11.258a50.003 50.003 0 0 1 13.863 14.362l6.325 9.938a10.002 10.002 0 0 0 8.437 4.631h32.926c.139 0 .275-.022.413-.028a9.99 9.99 0 0 1-8.001-4.603z" fill="#a44f3e"></path><path d="m371.869 461.239-15.113-86.92a30.889 30.889 0 0 0-20.58-23.984l-41.655-14.017-9.348-8.658a4.497 4.497 0 0 0-3.056-1.198h-53.018a4.495 4.495 0 0 0-3.198 1.336l-8.422 8.52-41.655 14.017a30.887 30.887 0 0 0-20.58 23.984l-15.113 86.92c-.926 5.324 3.173 10.197 8.577 10.197h35.06V419.35c0-11.416 9.287-20.703 20.702-20.703h103.06c11.415 0 20.702 9.287 20.702 20.703v52.086h35.06c5.404-.001 9.503-4.873 8.577-10.197z" fill="#60b7ff"></path><path d="m225.901 327.798-8.422 8.52-41.655 14.017a30.887 30.887 0 0 0-20.58 23.984l-15.113 86.92c-.926 5.324 3.173 10.197 8.577 10.197h16.487l14.049-80.802a30.889 30.889 0 0 1 20.58-23.984l41.655-14.017 26.094-26.17h-38.475a4.49 4.49 0 0 0-3.197 1.335z" fill="#26a6fe"></path><path d="M329.232 471.435H182.768v-52.086c0-11.986 9.717-21.703 21.703-21.703H307.53c11.986 0 21.703 9.717 21.703 21.703v52.086z" fill="#fd5426"></path><path d="M246.703 397.647H204.47c-11.986 0-21.703 9.717-21.703 21.703v52.086H225V419.35c0-11.987 9.717-21.703 21.703-21.703z" fill="#ef4424"></path><path d="M129 338.565H65a7.5 7.5 0 0 1 0-15h64a7.5 7.5 0 0 1 0 15zM170 338.565h-18a7.5 7.5 0 0 1 0-15h18a7.5 7.5 0 0 1 0 15zM125 362.565H61a7.5 7.5 0 0 1 0-15h64a7.5 7.5 0 0 1 0 15z" fill="#8ebac5"></path><path d="M14 54.565h133.411v82.615H14z" fill="#c8effe"></path><path d="M14 54.565h18.589v82.615H14z" fill="#99e6fc"></path><path d="M130.956 96.565v-42h-15v42h-13.5v-42h-15v42h-13.5v-42h-15v42h-13.5v-42h-15v42H14v15h133.411v-15z" fill="#8ebac5"></path><path d="M499.5 275.312H363.089c-6.893 0-12.5-5.607-12.5-12.5v-85.615c0-6.893 5.607-12.5 12.5-12.5H499.5c6.893 0 12.5 5.607 12.5 12.5v85.615c0 6.892-5.607 12.5-12.5 12.5zm-133.911-15H497v-80.615H365.589zM499.5 151.18H363.089c-6.893 0-12.5-5.607-12.5-12.5V53.065c0-6.893 5.607-12.5 12.5-12.5H499.5c6.893 0 12.5 5.607 12.5 12.5v85.615c0 6.892-5.607 12.5-12.5 12.5zm-133.911-15H497V55.565H365.589zM148.911 151.18H12.5c-6.893 0-12.5-5.607-12.5-12.5V53.065c0-6.893 5.607-12.5 12.5-12.5h136.411c6.893 0 12.5 5.607 12.5 12.5v85.615c0 6.892-5.608 12.5-12.5 12.5zM15 136.18h131.411V55.565H15zM148.911 275.312H12.5c-6.893 0-12.5-5.607-12.5-12.5v-85.615c0-6.893 5.607-12.5 12.5-12.5h136.411c6.893 0 12.5 5.607 12.5 12.5v85.615c0 6.892-5.608 12.5-12.5 12.5zM15 260.312h131.411v-80.615H15z" fill="#678d98"></path></g></svg>