<svg viewBox="0 0 512 512" xmlns="http://www.w3.org/2000/svg"><g><path d="m.76 459.603 74.847-74.847a2.575 2.575 0 0 1 1.821-.754h29.866c.683 0 1.338-.271 1.821-.754l62.491-62.491a2.575 2.575 0 0 1 1.821-.754H386.57c.683 0 1.338.271 1.821.754l38.491 38.491a2.575 2.575 0 0 0 1.821.754h30.07c.683 0 1.338.271 1.821.754l50.645 50.645c1.622 1.622.473 4.397-1.821 4.397H404.704c-.683 0-1.338.271-1.821.754l-46.593 46.593a2.574 2.574 0 0 1-1.82.754L2.581 464c-2.294.001-3.444-2.774-1.821-4.397z" fill="#80d261"></path><path d="m511.24 411.401-50.645-50.645a2.575 2.575 0 0 0-1.821-.754h-20.007c10.112 14.273.168 35.192-18.414 35.192h-48.645a22.399 22.399 0 0 0-15.839 6.561l-34.983 34.983a22.401 22.401 0 0 1-15.832 6.561l-288.072.082L.759 459.603C-.864 461.226.286 464 2.581 464l351.888-.1c.683 0 1.338-.272 1.82-.754l46.593-46.593a2.575 2.575 0 0 1 1.821-.754h104.716c2.295-.001 3.444-2.775 1.821-4.398z" fill="#68ca44"></path><path d="M400 192c0-79.224-63.977-143.505-143.085-143.997-79.779-.496-144.916 64.22-144.915 144 .001 55.543 31.449 103.741 77.51 127.761a51.592 51.592 0 0 1 18.284 15.946l44 62.225c2.053 2.903 6.359 2.903 8.411 0l43.991-62.212c4.806-6.797 11.227-12.251 18.598-16.118C368.691 295.531 400 247.422 400 192z" fill="#e53950"></path><path d="M256.915 48.003c-5.37-.033-10.674.229-15.897.772C313.489 56.284 370 117.542 370 192c0 55.422-31.309 103.531-77.205 127.604-7.372 3.867-13.792 9.321-18.598 16.118L241 382.669l10.794 15.265c2.052 2.903 6.359 2.903 8.411 0l43.991-62.212c4.806-6.797 11.227-12.251 18.598-16.118C368.691 295.531 400 247.422 400 192c0-79.224-63.977-143.505-143.085-143.997z" fill="#ca2e43"></path><path d="M175.453 112h160v128h-160z" fill="#ffffff"></path><path d="m288 224-32.547 16-32.547-16v-48.547c0-8.534 7.037-15.453 15.717-15.453h33.661c8.68 0 15.717 6.918 15.717 15.453V224z" fill="#62dbfb"></path><path d="M223.453 48h-26.666a12.879 12.879 0 0 0-9.106 3.772l-24.457 24.457a12.87 12.87 0 0 0-2.614 3.772L192 96l20.786-16z" fill="#ffd15b"></path><path d="m271.453 80-16-32h-32l-16 32 32 16z" fill="#97da7b"></path><path d="M255.453 80V48h32l31.999 48.001z" fill="#ffd15b"></path><path d="m347.681 76.228-24.457-24.457a12.877 12.877 0 0 0-9.106-3.772h-26.666l16 32L320 96l30.295-16a12.884 12.884 0 0 0-2.614-3.772z" fill="#97da7b"></path><path d="M160.61 80a12.877 12.877 0 0 0-1.158 5.334v27.213c0 8.534 6.918 15.453 15.453 15.453H192c8.534 0 15.453-6.918 15.453-15.453l10.302-16.546L207.453 80z" fill="#ffc344"></path><path d="M240 128h-17.095c-8.534 0-15.453-6.918-15.453-15.453V80h48l9.981 12.244-9.981 20.303C255.453 121.082 248.534 128 240 128z" fill="#80d261"></path><path d="M288 128h-17.095c-8.534 0-15.453-6.918-15.453-15.453V80h48l10.302 12.682-10.302 19.865C303.453 121.082 296.534 128 288 128z" fill="#ffc344"></path><path d="M303.453 80v32.547c0 8.534 6.918 15.453 15.453 15.453H336c8.534 0 15.453-6.918 15.453-15.453V85.334c0-1.858-.402-3.675-1.158-5.334z" fill="#80d261"></path><path d="m255.453 240 8.047-3.956V160h-15v76.582z" fill="#01d0fb"></path><path d="M336.453 224h-162c-8.284 0-15 6.716-15 15v9.5a7.5 7.5 0 0 0 7.5 7.5h177a7.5 7.5 0 0 0 7.5-7.5V239c0-8.284-6.716-15-15-15z" fill="#0055a3"></path></g></svg>