<svg viewBox="0 0 512 512" xmlns="http://www.w3.org/2000/svg"><g><path d="m324.996 245.154-137.991-45.626H60.656c-27.897 0-50.722 22.825-50.722 50.722v143.71c0 27.897 22.825 50.722 50.722 50.722 4.805 0 9.382 2.125 12.425 5.844 23.149 28.29 50.637 48.301 69.957 60.258 6.682 4.135 14.549-3.038 11.09-10.094-7.7-15.711-12.909-31.037-16.313-45.53-1.259-5.357 2.849-10.478 8.353-10.478h128.365c27.897 0 50.722-22.825 50.722-50.722V250.249a51.39 51.39 0 0 0-.259-5.095z" fill="#ff656f"></path><path d="M144.761 478.554c-9.128-8.217-18.295-17.551-26.868-28.028-3.043-3.719-7.619-5.844-12.425-5.844-27.897 0-50.722-22.825-50.722-50.722V250.249c0-27.897 22.825-50.722 50.722-50.722H60.656c-27.897 0-50.722 22.825-50.722 50.722V393.96c0 27.897 22.825 50.722 50.722 50.722 4.805 0 9.382 2.125 12.425 5.844 23.149 28.29 50.637 48.301 69.957 60.258 6.682 4.135 14.549-3.038 11.09-10.094a217.22 217.22 0 0 1-9.367-22.136z" fill="#ff4756"></path><path d="M451.344 0H237.468c-27.897 0-50.722 22.825-50.722 50.722v143.711c0 27.897 22.825 50.722 50.722 50.722h128.365c5.503 0 9.611 5.121 8.353 10.478-3.404 14.493-8.613 29.819-16.313 45.53-3.458 7.056 4.408 14.229 11.09 10.094 19.32-11.957 46.808-31.968 69.957-60.258 3.043-3.719 7.619-5.844 12.425-5.844 27.897 0 50.722-22.825 50.722-50.722V50.722C502.066 22.825 479.241 0 451.344 0z" fill="#43cb8e"></path><path d="M231.56 194.433V50.722C231.56 22.825 254.384 0 282.281 0h-44.813c-27.897 0-50.722 22.825-50.722 50.722v143.711c0 27.897 22.825 50.722 50.722 50.722h44.813c-27.897-.001-50.721-22.826-50.721-50.722zM418.999 255.632c1.258-5.357-2.85-10.478-8.353-10.478h-44.813c5.503 0 9.611 5.121 8.353 10.478-3.404 14.493-8.613 29.819-16.313 45.53-3.458 7.056 4.408 14.229 11.09 10.094 12.165-7.529 27.569-18.258 43.089-32.23a213.216 213.216 0 0 0 6.947-23.394z" fill="#00ba66"></path><path d="M102.524 328.563a2.676 2.676 0 0 1 0-3.784l9.86-9.86c5.449-5.449 5.388-14.324-.185-19.695-5.47-5.272-14.281-4.867-19.653.505l-9.536 9.536a2.676 2.676 0 0 1-3.784 0l-9.536-9.536c-5.372-5.372-14.183-5.778-19.653-.505-5.573 5.372-5.634 14.246-.185 19.695l9.86 9.86a2.676 2.676 0 0 1 0 3.784l-9.536 9.536c-5.372 5.372-5.778 14.182-.506 19.652 5.372 5.573 14.246 5.635 19.696.185l9.86-9.86a2.676 2.676 0 0 1 3.784 0l9.536 9.536c5.372 5.372 14.183 5.778 19.653.505 5.573-5.372 5.634-14.246.185-19.695z" fill="#dfebfa"></path><path d="M69.244 357.751c-5.272-5.47-4.866-14.28.506-19.652l9.536-9.536a2.676 2.676 0 0 0 0-3.784l-9.86-9.86c-5.373-5.373-5.377-14.069-.034-19.461-5.395-5.102-13.982-5.413-19.354-.234-5.573 5.372-5.634 14.246-.185 19.695l9.86 9.86a2.676 2.676 0 0 1 0 3.784l-9.536 9.536c-5.372 5.372-5.778 14.182-.506 19.652 5.372 5.573 14.246 5.635 19.696.185l.036-.037c-.051-.051-.108-.095-.159-.148z" fill="#b1dbfc"></path><path d="M305.822 93.3c-5.47-5.273-14.281-4.867-19.653.505l-27.211 27.211a2.697 2.697 0 0 1-3.814 0l-9.213-9.213c-5.372-5.372-14.183-5.778-19.653-.505-5.573 5.372-5.634 14.246-.185 19.695l21.2 21.201c5.389 5.389 14.125 5.389 19.514 0l39.198-39.199c5.451-5.449 5.39-14.323-.183-19.695z" fill="#dfebfa"></path><path d="m260.859 145.675-21.2-21.201c-4.556-4.556-5.245-11.499-2.097-16.795-4.012-.529-8.183.631-11.283 3.619-5.572 5.372-5.634 14.246-.185 19.695l21.2 21.201c5.389 5.389 14.125 5.389 19.514 0l2.539-2.539a13.732 13.732 0 0 1-8.488-3.98z" fill="#b1dbfc"></path><g fill="#00a855"><path d="M456.953 98.487h-111.06a7.726 7.726 0 1 1 0-15.452h111.06a7.726 7.726 0 1 1 0 15.452zM456.953 130.621h-111.06a7.726 7.726 0 1 1 0-15.452h111.06a7.726 7.726 0 1 1 0 15.452zM456.953 66.352h-111.06a7.726 7.726 0 1 1 0-15.452h111.06a7.726 7.726 0 1 1 0 15.452zM456.953 162.756h-111.06a7.726 7.726 0 1 1 0-15.452h111.06a7.726 7.726 0 1 1 0 15.452zM401.422 194.891h-55.53a7.726 7.726 0 1 1 0-15.452h55.53a7.726 7.726 0 0 1 7.726 7.726 7.725 7.725 0 0 1-7.726 7.726z" fill="#00a855"></path></g><path d="M269.664 302.319h-111.06a7.726 7.726 0 1 1 0-15.452h111.06a7.726 7.726 0 1 1 0 15.452zM269.664 334.454h-111.06a7.726 7.726 0 1 1 0-15.452h111.06a7.726 7.726 0 1 1 0 15.452zM189.45 270.185h-30.846a7.726 7.726 0 1 1 0-15.452h30.846a7.726 7.726 0 1 1 0 15.452zM269.664 366.588h-111.06a7.726 7.726 0 1 1 0-15.452h111.06a7.726 7.726 0 1 1 0 15.452zM214.134 398.723h-55.53a7.726 7.726 0 1 1 0-15.452h55.53a7.726 7.726 0 1 1 0 15.452z" fill="#fc2d39"></path></g></svg>