<svg height="1.707in" style="enable-background:new 0 0 168 168;shape-rendering:geometricPrecision;text-rendering:geometricPrecision;image-rendering:optimizeQuality;fill-rule:evenodd;clip-rule:evenodd" viewBox="0 0 1.70666 1.70666" width="1.707in" xmlns="http://www.w3.org/2000/svg"><g id="Layer_x0020_1"><g id="_624665408"><path id="_624666848" d="m.859882.163299h-.309236c-.0110394 0-.02-.00896063-.02-.02v-.0616339c0-.0450118.036622-.0816339.0816339-.0816339h.185976c.0450118 0 .081626.036622.081626.0816339v.0616339c0 .0110551-.00894488.02-.02.02z" fill="#a0a0a0"/><path id="_624667112" d="m1.20854 1.70663h-1.00654c-.0793071 0-.143819-.0645276-.143819-.143827v-1.23453c0-.0793031.0645276-.143827.143819-.143827h.165157c.0110394 0 .02.00896063.02.02v.118535h.636236v-.118535c0-.0110394.00897244-.02.02-.02h.165161c.0793031 0 .143827.0645276.143827.143827v.700642c0 .0110394-.00897244.02-.02.02h-.0253031l-.0113307.0648976c-.0013622.00770866-.00707087.0139173-.0146417.0159016-.0176772.00464173-.034689.0116969-.050563.0209685-.00672441.00393307-.0151811.00359843-.0215866-.00088583l-.0539409-.0378858-.0357756.0357756.0378858.0539409c.00448819.00640551.00484646.0148346.00087795.0215945-.00927559.0158622-.0163346.0328425-.0209685.0505551-.00198425.00757087-.00819685.0132756-.0159016.0146378l-.0648858.0113346v.050622l.0648858.0113346c.00770472.00135827.0139173.00707087.0159016.0146378.0046378.0176969.0117047.0347087.0209685.0505551.00395669.00675197.00361024.0151969-.00087795.0216102l-.0378858.0539291.0357756.0357795.0539409-.0378898c.00641732-.00449606.0148622-.00483071.0215866-.00088583.015874.00927559.032874.0163346.050563.0209724.00757087.00198425.0132756.00819291.0146417.0158976l.0113307.0649016h.0105827c.00703937 0 .0135709.00370472.0171654.00974803.00359449.00603937.00376378.0135433.00042913.0197362-.025248.046815-.0738031.0759291-.126713.0759291z" fill="#7a7a7a" stroke="#7a7a7a" stroke-width=".003"/><path id="_624666536" d="m1.15802 1.14658-.00408661.00408661.0250079.0356063c.0104606.0148976.0112638.0346969.00206299.0504016-.00803543.0137126-.0141535.0284606-.0181811.0438307-.00462598.0176575-.019126.0310079-.0371102.0341496l-.0428071.00747638v.00579921l.0428071.00747638c.0179843.00314173.0324803.0164921.0371102.0341496.00402362.0153622.0101614.0301378.018185.0438425.00920866.0157244.00840945.0354961-.00207087.0504094l-.0250039.0355945.0138583.0138583c.00950787.00950787.0157913.0210551.0157835.0348543-.00001575.0257559-.0209134.0466575-.0466732.0466575-.00009449 0-.00018504 0-.00027953 0h-.718504c-.012378 0-.0242402-.00492126-.0329882-.0136732l-.201409-.201409c-.00875591-.00875197-.0136772-.020622-.0136772-.0330039v-1.00371c0-.0257559.0209094-.0466654.0466654-.0466654l.977118.00000787c.0257559 0 .0466654.0209094.0466654.0466654v.771732c0 .0173937-.00969685.0333504-.025122.0413858-.0154252.00803543-.034122.00679134-.0483543-.00320079l-.00899606-.0063189z" fill="#717171" stroke="#7a7a7a" stroke-width=".003"/><path id="_624666800" d="m1.1369 1.56811c-.00007087 0-.0001811 0-.00027953 0h-.718504c-.00530709 0-.0103858-.00211024-.0141339-.0058622l-.201409-.201409c-.00374803-.00376378-.00586614-.00884252-.00586614-.0141496v-1.00371c0-.0110394.00896063-.02.02-.02l.977118.00000787c.0110394 0 .02.00896063.02.02v.771732c0 .00746063-.00416929.0143031-.0107756.0177362-.00662598.00346063-.0145984.00290551-.0207087-.00137402l-.0273346-.0191969-.0357756.0357795.0378858.0539409c.00448819.00640157.00484646.0148346.00087795.0215945-.00927559.0158622-.0163346.0328425-.0209685.0505551-.00198425.00756693-.00819685.0132756-.0159016.0146378l-.0648858.0113346v.050622l.0648858.0113307c.00770472.0013622.0139173.00707087.0159016.0146417.0046378.0176929.0117047.0347087.0209685.0505551.00395669.00674803.00361024.0151969-.00087795.0216102l-.0378858.0539291.0297047.0297047c.00484252.00366929.00797244.00946063.00797244.0159843-.00001181.0110394-.00895276.0200079-.0200079.0200079z" fill="#fff"/><path id="_624665888" d="m.418118 1.56811c-.00520472 0-.0103189-.00202362-.0141496-.0058622l-.201409-.201409c-.00572441-.00572047-.00743307-.0143189-.00434646-.0217874.00309449-.00747244.0103858-.0123622.0184843-.0123622l.201409.00000394c.0110394 0 .02.00897244.02.02v.201409c0 .00808268-.00487402.015374-.0123465.0184724-.00246063.00103937-.00505906.00153543-.00764173.00153543z" fill="#e9e9ea"/><g fill="#e4e5e5"><path id="_624665744" d="m1.06047.649425h-.710421c-.0110354 0-.0199961-.00896063-.0199961-.02v-.135079c0-.0110354.00896063-.0199961.0199961-.0199961h.710421c.0110394 0 .02.00896063.02.0199961v.135079c0 .0110394-.00896063.02-.02.02z"/><path id="_624666464" d="m.485465.957343h-.158677c-.0110394 0-.0199961-.0089685-.0199961-.0199961v-.158677c0-.0110394.00895669-.02.0199961-.02h.158677c.0110394 0 .02.00896063.02.02v.158677c0 .0110354-.00894488.0199961-.02.0199961zm-.138677-.0400118h.118677v-.118661h-.118677z"/><path id="_624666152" d="m1.08373.798669h-.110941c-.0110394 0-.02-.00896063-.02-.02 0-.0110394.00897244-.02.02-.02h.110941c.0110394 0 .02.00896063.02.02 0 .0110394-.00895669.02-.02.02zm-.20937 0h-.273248c-.0110394 0-.02-.00896063-.02-.02 0-.0110394.00896063-.02.02-.02h.273248c.0110394 0 .02.00896063.02.02 0 .0110394-.00895276.02-.02.02z"/><path id="_624666296" d="m1.08373.877996h-.273252c-.0110354 0-.0199961-.00895669-.0199961-.0199961 0-.0110394.00896063-.02.0199961-.02h.273252c.0110394 0 .02.00896063.02.02 0 .0110394-.00895669.0199961-.02.0199961zm-.371677 0h-.110957c-.0110394 0-.02-.00895669-.02-.0199961 0-.0110394.00896063-.02.02-.02h.110957c.0110394 0 .02.00896063.02.02 0 .0110394-.00894488.0199961-.02.0199961z"/><path id="_624665984" d="m1.08373.957343h-.110941c-.0110394 0-.02-.0089685-.02-.0199961 0-.0110315.00897244-.02.02-.02h.110941c.0110394 0 .02.0089685.02.02 0 .0110276-.00895669.0199961-.02.0199961zm-.20937 0h-.273248c-.0110394 0-.02-.0089685-.02-.0199961 0-.0110315.00896063-.02.02-.02h.273248c.0110394 0 .02.0089685.02.02 0 .0110276-.00895276.0199961-.02.0199961z"/><path id="_624666248" d="m.485465 1.25257h-.158677c-.0110394 0-.0199961-.00897244-.0199961-.02v-.158685c0-.0110394.00895669-.02.0199961-.02h.158677c.0110394 0 .02.0089685.02.02v.158685c0 .0110433-.00894488.02-.02.02zm-.138677-.0400157h.118677v-.118677l-.118677.00000394v.118673z"/><path id="_624666344" d="m.968697 1.09389h-.0844961c-.0110394 0-.02-.00897244-.02-.02 0-.0110276.00897244-.02.02-.02h.0844961c.0110394 0 .02.00897244.02.02 0 .0110276-.00896063.02-.02.02zm-.159469 0h-.208114c-.0110394 0-.02-.00897244-.02-.02 0-.0110276.00896063-.02.02-.02h.208114c.0110394 0 .02.00897244.02.02 0 .0110276-.00894094.02-.02.02z"/><path id="_624666008" d="m.968697 1.17324h-.208134c-.0110394 0-.02-.00897244-.02-.02 0-.0110276.00896063-.02.02-.02h.208118c.0110394 0 .02.00897244.02.02 0 .0110276-.00894488.02-.0199843.02zm-.283087 0h-.0845118c-.0110394 0-.02-.00897244-.02-.02 0-.0110276.00896063-.02.02-.02h.0845118c.0110394 0 .02.00897244.02.02 0 .0110276-.00894488.02-.02.02z"/><path id="_624666368" d="m.968697 1.25255h-.0844961c-.0110394 0-.02-.00897244-.02-.02 0-.0110276.00897244-.02.02-.02h.0844961c.0110394 0 .02.00897244.02.02 0 .0110276-.00896063.02-.02.02zm-.159469 0h-.208114c-.0110394 0-.02-.00897244-.02-.02 0-.0110276.00896063-.02.02-.02h.208114c.0110394 0 .02.00897244.02.02 0 .0110276-.00894094.02-.02.02z"/></g><path id="_624665312" d="m1.3641 1.64119h-.0634843c-.0159724 0-.0292323-.0119724-.032248-.0291142l-.00990157-.0566457c-.012622-.00404331-.0249173-.00914173-.0367323-.0152244l-.0470787.0330551c-.0138346.00973622-.0322638.00888583-.0433898-.00222047l-.0448858-.0449016c-.0113071-.0112913-.0122362-.0291535-.00222047-.0434016l.0330512-.0470512c-.00608268-.0118228-.0111929-.0240984-.0152323-.0367362l-.056622-.00988583c-.0171378-.00301575-.029122-.0162795-.029122-.0322638v-.0635c0-.0159803.0119724-.029248.0291102-.032248l.0566417-.00990157c.00403937-.012622.0091378-.0249173.0152323-.0367323l-.0330551-.0470551c-.01-.0142362-.00907874-.0320984.00222047-.0434134l.0448858-.0448858c.0111142-.0111142.0295276-.0119724.0434173-.00220866l.0470512.0330354c.0118071-.00608268.0240827-.0111811.0367323-.0152205l.00988976-.0566378c.00301575-.0171417.0162795-.029122.0322638-.029122h.0634764c.0160157 0 .0292756.0119803.0322598.0291535l.00990157.0566063c.0126417.00403937.0249173.0091378.0367244.0152205l.0470787-.0330512c.013874-.00976378.0322756-.00888976.0433898.00221654l.0449016.0448858c.0112913.0113189.0121929.0291654.00223622.0433898l-.0330709.0470827c.00608268.0118031.0111811.0240827.0152244.0367323l.0566378.00988976c.0171378.00301181.0291102.0162756.0291102.0322598v.0635c0 .0159843-.0119567.029248-.0290945.032252l-.0566496.00989764c-.00404331.012626-.0091378.0249016-.0152323.0367244l.0330669.0470669c.01.0142362.00908268.0320984-.00222047.0434016l-.0449016.0449016c-.0111102.0110945-.0295079.0119724-.0434134.00220866l-.0470394-.0330394c-.0118189.00608661-.0240827.0111811-.0367323.0152244l-.00991732.0566378c-.00295276.0171181-.0162323.0291181-.0322598.0291181zm-.0317362-.174051c-.0783583 0-.142094-.063748-.142094-.142094 0-.0783504.0637441-.142094.142094-.142094.0783425 0 .142079.0637441.142079.142094 0 .0783465-.0637362.142094-.142079.142094z" fill="#cdcdcd"/><path id="_624665480" d="m1.04339.362988h-.676236c-.0110394 0-.02-.00896063-.02-.02v-.199689c0-.0110354.00896063-.0199961.02-.0199961h.676236c.0110394 0 .02.00896063.02.0199961v.199673c0 .0110591-.00897244.0200157-.02.0200157z" fill="#b5b5b6"/></g></g></svg>