<svg viewBox="0 0 512 512" xmlns="http://www.w3.org/2000/svg"><g><path d="M293.5 292.5v196.592l-24.87 8.29a7.5 7.5 0 0 0 4.743 14.231l29.998-10a7.5 7.5 0 0 0 5.128-7.115V292.5H293.5z" fill="#a45e43"></path><path d="M368.5 292.5v196.592l24.87 8.29a7.5 7.5 0 0 1-4.743 14.231l-29.998-10a7.5 7.5 0 0 1-5.128-7.115V292.5H368.5z" fill="#85453d"></path><path d="M143.5 292.5v196.592l-24.87 8.29a7.5 7.5 0 0 0 4.743 14.231l29.998-10a7.5 7.5 0 0 0 5.128-7.115V292.5H143.5z" fill="#ffcb63"></path><path d="M218.5 292.5v196.592l24.87 8.29a7.5 7.5 0 0 1-4.743 14.231l-29.998-10a7.5 7.5 0 0 1-5.128-7.115V292.5H218.5z" fill="#ffa754"></path><path d="M68.5 207.5h-15c0-12.407 10.093-22.5 22.5-22.5h105v15H76c-4.136 0-7.5 3.364-7.5 7.5z" fill="#ffcb63"></path><path d="M458.5 207.5h-15c0-4.136-3.364-7.5-7.5-7.5H331v-15h105c12.407 0 22.5 10.093 22.5 22.5z" fill="#869e47"></path><path d="M331 262.5v75c24.853 0 45-20.147 45-45l-45-30z" fill="#85453d"></path><path d="m346 292.5-15-30-45 30c0 24.853 20.147 45 45 45 8.284 0 15-20.147 15-45z" fill="#a45e43"></path><path d="M356 172.5h-30l20 120h30v-100c0-11.046-8.954-20-20-20z" fill="#869e47"></path><path d="M326 172.5h-20c-11.046 0-20 8.954-20 20v100h60v-100c0-11.046-8.954-20-20-20z" fill="#9db55f"></path><path d="M365.255 68.335c.01-.01-34.255-.005-34.255-.005v74.17c24.85 0 45-20.15 45-45a44.791 44.791 0 0 0-10.745-29.165z" fill="#ffd9d4"></path><path d="m344.89 80.51-48.145-12.175A44.791 44.791 0 0 0 286 97.5c0 24.85 20.15 45 45 45 8.28 0 15-20.15 15-45 0-6.01-.39-11.75-1.11-16.99z" fill="#fff0d3"></path><path d="m331 52.5 13.89 28.01c7.45-2.23 14.475-6.295 20.365-12.175C357.005 58.645 344.72 52.5 331 52.5z" fill="#ff6337"></path><path d="M331 52.5c-13.72 0-26.005 6.145-34.255 15.835 13.04 13.04 31.645 17.105 48.145 12.175-2.23-16.43-7.61-28.01-13.89-28.01z" fill="#ff8646"></path><path d="m196 97.5-30 90 40-15c11 0 20-9 20-20v-55h-30z" fill="#353535"></path><path d="M196 152.5v-55h-60v55c0 11 9 20 20 20l10 15 10-15c11 0 20-9 20-20z" fill="#4f4f4f"></path><path d="M180.997 62.5v80c24.853 0 45-20.147 45-45 0-5.261-.912-10.307-2.571-15l-42.429-20z" fill="#ffa754"></path><path d="m180.997 52.5 14.143 30h28.286c-6.178-17.476-22.837-30-42.429-30z" fill="#353535"></path><path d="M138.568 82.5a44.914 44.914 0 0 0-2.571 15c0 24.853 20.147 45 45 45 8.284 0 15-20.147 15-45 0-5.261-.304-10.307-.857-15l-14.143-20-42.429 20z" fill="#ffcb63"></path><path d="M180.997 52.5c-19.592 0-36.25 12.524-42.429 30h56.572c-2.059-17.476-7.612-30-14.143-30z" fill="#4f4f4f"></path><path d="M206 172.5h-30v120h50v-100c0-11.046-8.954-20-20-20z" fill="#ff4128"></path><path d="M176 172.5h-20c-11.046 0-20 8.954-20 20v100h60v-100c0-11.046-8.954-20-20-20z" fill="#ff6337"></path><path d="M241 352.5h-30l-30-60 60 30z" fill="#ffe2a8"></path><path d="M211 352.5h-90v-30l90-30z" fill="#fff0d3"></path><path d="M226 262.5h-30l15 60h30v-20.335c0-15.211-5.671-29.09-15-39.665z" fill="#ffb4a9"></path><path d="M196 262.5h-60c-9.329 10.575-15 24.454-15 39.665V322.5h90v-20.335c0-15.211-5.671-29.09-15-39.665z" fill="#ffd9d4"></path><path d="m76 7.5-45 45 45 45h30v-90z" fill="#ffe2a8"></path><path d="M7.5 7.5H76v90H7.5z" fill="#fff0d3"></path><circle cx="56.75" cy="52.5" fill="#ff4128" r="15"></circle><path d="m471.667 7.5-27.167 45 27.167 45H504.5v-90z" fill="#ff6337"></path><path d="m438.833 7.5-27.166 45 27.166 45h32.834v-90z" fill="#fff0d3"></path><path d="M406 7.5h32.833v90H406z" fill="#9db55f"></path><path d="M106 230a7.5 7.5 0 0 1-7.5-7.5V7.5a7.5 7.5 0 0 1 15 0v215a7.5 7.5 0 0 1-7.5 7.5zM406 230a7.5 7.5 0 0 1-7.5-7.5V7.5a7.5 7.5 0 0 1 15 0v215a7.5 7.5 0 0 1-7.5 7.5z" fill="#ff8646"></path><path d="M106 230H76c-12.407 0-22.5-10.093-22.5-22.5a7.5 7.5 0 0 1 15 0c0 4.136 3.364 7.5 7.5 7.5h30a7.5 7.5 0 0 1 0 15z" fill="#ffcb63"></path><path d="M436 230h-30a7.5 7.5 0 0 1 0-15h30c4.136 0 7.5-3.364 7.5-7.5a7.5 7.5 0 0 1 15 0c0 12.407-10.093 22.5-22.5 22.5z" fill="#869e47"></path></g></svg>