<svg fill-rule="evenodd" viewBox="0 0 4335 4335" xmlns="http://www.w3.org/2000/svg"><g><path d="M1735 1134c-10 0-20-2-28-7-19-10-30-30-30-50V478c0-32 26-58 58-58h262c32 0 58 26 58 58v438c0 21-10 39-27 50l-263 160c-9 5-20 8-30 8z" fill="#ff2c2c"></path><path d="M361 3730c-32 0-58-26-58-57V1721c0-31 26-57 58-57s58 26 58 57v1952c0 31-26 57-58 57z" fill="#333333"></path><path d="M1331 2072H361c-32 0-58-26-58-58s26-58 58-58h970c31 0 57 26 57 58s-26 58-57 58z" fill="#333333"></path><path d="M1200 2335c-32 0-57-26-57-58v-263c0-32 25-58 57-58s58 26 58 58v263c0 32-26 58-58 58z" fill="#333333"></path><path d="M3970 3634H1480c-32 0-57-25-57-57v-246c0-32 25-58 57-58h655v-938h-655c-32 0-57-26-57-58v-859c0-32 25-58 57-58h2490c32 0 58 26 58 58v2159c-1 32-26 57-58 57z" fill="#ffcd9e"></path><path d="M4275 1476H1175c-26 0-49-18-56-42-7-25 4-52 26-65l1550-945c18-12 42-12 60 0l1550 945c22 13 33 40 26 65-7 24-30 42-56 42z" fill="#ff3131"></path><path d="M2725 1223c-128 0-233-104-233-233 0-128 105-233 233-233s233 105 233 233c0 129-105 233-233 233z" fill="#ffffff"></path><g fill="#333"><path d="M3679 3634H2582c-32 0-58-25-58-57v-698c0-334 272-607 606-607 335 0 607 273 607 607v698c0 32-26 57-58 57zM2452 2089h-706c-32 0-58-26-58-57v-316c0-31 26-57 58-57h706c31 0 57 26 57 57v316c0 31-26 57-57 57zM3704 2089h-705c-32 0-58-26-58-57v-316c0-31 26-57 58-57h705c32 0 58 26 58 57v316c0 31-26 57-58 57z" fill="#333333"></path></g><path d="M3694 2022v-295h-685v295zM2441 2022v-295h-685v295zM3669 3567v-688c0-297-242-539-539-539s-538 242-538 539v688z" fill="#99ffff"></path><path d="M2193 3389H592c-32 0-58-26-58-58V2277c0-31 26-57 58-57h1601c32 0 58 26 58 57v1054c0 32-26 58-58 58z" fill="#ffa721"></path><path d="M662 3920H60c-32 0-58-26-58-58v-189c0-32 26-58 58-58h602c32 0 58 26 58 58v189c0 32-26 58-58 58z" fill="#58535a"></path><g fill="#fff"><path d="M945 3048H759c-32 0-58-26-58-58s26-57 58-57h128v-71H759c-32 0-58-26-58-58v-186c0-32 26-58 58-58h186c32 0 58 26 58 58s-26 58-58 58H817v70h128c32 0 58 26 58 58v186c0 32-26 58-58 58zM1305 2970h-186c-32 0-58-26-58-58s26-58 58-58h186c32 0 58 26 58 58s-26 58-58 58z" fill="#ffffff"></path><path d="M1330 3048c-24 0-47-16-55-40l-63-199-63 199c-9 30-42 47-72 37-30-9-47-42-38-72l118-372c8-24 30-40 55-40s48 16 55 40l118 372c10 30-7 63-37 72-6 2-12 3-18 3zM1666 3048h-186c-32 0-58-26-58-58v-372c0-32 26-57 58-57 31 0 57 25 57 57v315h129c31 0 57 25 57 57s-26 58-57 58zM2026 3048h-186c-32 0-58-26-58-58v-372c0-32 26-57 58-57h186c32 0 57 25 57 57s-25 58-57 58h-129v71h129c32 0 57 25 57 57s-25 58-57 58h-129v71h129c32 0 57 25 57 57s-25 58-57 58z" fill="#ffffff"></path></g><path d="M4116 3920H1335c-32 0-58-26-58-58v-285c0-32 26-58 58-58h2781c31 0 57 26 57 58v285c0 32-26 58-57 58z" fill="#58535a"></path></g></svg>