<svg viewBox="0 0 340 340" xmlns="http://www.w3.org/2000/svg"><g><path d="m211.111 102.611 33.261-43.623a2.63 2.63 0 0 1 4.283.14l4.291 6.465a9.569 9.569 0 0 1 .889 8.905l-12.521 30.718-19.589 29.8-11.408-19.567a11.563 11.563 0 0 1 .794-12.838z" fill="#5b6d7c"></path><path d="M252.332 64.668c.105 2.681-.755 6.706-4.227 12.506l-18.959 30.143-14.323 15.858 6.9 11.838 19.589-29.8L253.835 74.5a9.569 9.569 0 0 0-.889-8.905z" fill="#343c47"></path><path d="m215.671 158.561.97-18.67a17.288 17.288 0 0 1 4.054-10.253l20.619-24.422 2.427 3.74a5.781 5.781 0 0 1 .552 5.2l-6.963 18.262 6.044 11.813a16.878 16.878 0 0 1 .074 13.29l-11.813 28.023z" fill="#ffcac0"></path><g fill="#343c47"><path d="m220.776 95.731 1.453-1.892 3.358 6.871a3.016 3.016 0 0 1-.4 3.261l-1.055 1.261-3.575-6.173a3 3 0 0 1 .219-3.328zM224.839 90.145l1.453-1.891 3.359 6.87a3.018 3.018 0 0 1-.4 3.261l-1.051 1.262-3.575-6.174a3 3 0 0 1 .214-3.328zM216.431 101.31l1.453-1.891 3.359 6.871a3.018 3.018 0 0 1-.4 3.26l-1.056 1.262-3.575-6.174a3 3 0 0 1 .219-3.328z" fill="#343c47"></path></g><path d="m243.374 144.236-4.338-8.478q.267 1 .433 1.979a23.6 23.6 0 0 1-2.341 14.608l-6.467 12.8a4.23 4.23 0 0 1-6.141 1.6l-5.84-3.939-.065.734 13.02 22.012 11.813-28.023a16.878 16.878 0 0 0-.074-13.293zM139.626 90.869v27.413l32.668 30.288 3.458-38.766z" fill="#ea8b88"></path><path d="M192.6 79.362c.166-.5 3.654-11.959 11.792-19.932 0 0 5.38-11.7.285-19.128a16.672 16.672 0 0 1-2.587-6.113c-1.393-6.836-6.874-20.351-28.425-19.106 0 0-9.966-6.555-28.568-4.025s-15.613 19.306-15.613 19.306-11.1 6.478-8.043 23.087 3.06 20.1 3.06 20.1l30.063 12.458z" fill="#343c47"></path><path d="M138.2 73.58a63.347 63.347 0 0 0-6.589-7.752 5.936 5.936 0 0 0-10.163 4.048v.262s-.576 16.907 13.448 14.985l1.325 5.079a13.211 13.211 0 0 0 4.031 6.556 140.849 140.849 0 0 0 22.226 16.223 14.845 14.845 0 0 0 7.37 1.921h9.446a7.227 7.227 0 0 0 7.026-5.494 70.231 70.231 0 0 1 5.249-14.4 18.854 18.854 0 0 0 1.773-5.45c.918-5.746 2.35-19.067.535-39.592 0 0-13.846 1.013-22.859-7.409a10.793 10.793 0 0 0-5.667-2.714 25.433 25.433 0 0 0-11.945.7A12.03 12.03 0 0 0 145.463 52v8.917s.15 7.656-4.061 12.75a2.014 2.014 0 0 1-3.202-.087z" fill="#ffcac0"></path><path d="m127.002 124.754 12.624-11.483 33.525 25.691 11.993 1.869 29.438 145.73-62.635 2.088z" fill="#ffffff"></path><path d="m185.253 141.369-8.686 8.092 1.941 37.8c-13.515-31.325-49.089-64.7-49.09-64.7l41.9 76.72 8.054 8.054.489 16.214 20.263 2.493 2.027-1.024z" fill="#8294af"></path><path d="m166.029 155.212 14.519-6.642 6.671 2.531-2.075-10.27-9.272-1.445-17.163 2.814v8.314a5.169 5.169 0 0 0 7.32 4.698zM214.582 286.561l-7.045-34.878c-.356.177-.564.283-.564.283l-10 10.921-2.22-18.974-28.345 7.7 9.738 26.456s6.5-.128 15.013-4.982l4.733 14.1z" fill="#8294af"></path><path d="M166.53 283.831s27.439 3.923 47.656-2.489l4.9 17.97s-24.248 7.809-60.38 3.154z" fill="#343c47"></path><path d="m184.671 143.338-2.049 88.629s18.8 42.729 31.127 82.217a11.51 11.51 0 0 0 19.77 4.071 54.892 54.892 0 0 0 9.3-16.614l-22.246-42.7a35.112 35.112 0 0 1-3.783-12.5c-2.326-21.766-12.662-86.58-22.037-107.971z" fill="#5b6d7c"></path><path d="m202.318 163.344-18.785 29.183-.911 39.44s1.211 2.755 3.219 7.5c3.536-1.652 21.559-15.753 22.861-18.86.624-1.491 1.091-10.226 1.408-18.95-2.295-13.02-4.976-26.605-7.792-38.313z" fill="#343c47"></path><path d="M197.645 268.648c6.552-5.09 14.231-11.494 20.225-16.586a35.149 35.149 0 0 1-1.085-5.649c-.72-6.73-2.2-17.557-4.185-29.936l-29.3 17.04c1.915 4.432 7.7 17.969 14.345 35.131zM168.785 128.06l10.583 4.465 10.855-4.3a5.637 5.637 0 0 1 7.711 5.242v7.633a6.475 6.475 0 0 1-8.589 6.121l-8.67-2.994-12.062 4.728a7.256 7.256 0 0 1-9.9-6.756v-7.452a7.256 7.256 0 0 1 10.072-6.687z" fill="#343c47"></path><path d="m129.418 122.556-35.712 30.32 23.5 94.755-3.886 6.577a7.449 7.449 0 0 0 .118 7.775l1.518 2.4s-16.25 25.5-29.5 44.5l34.926 17.8a25.914 25.914 0 0 0 32.338-7.273c13.2-17.23 31.376-48.494 37.491-95.277 0-.003-25.08-63.644-60.793-101.577z" fill="#5b6d7c"></path><path d="m179.13 199.369-3.378 5.247-54.841-42.459L127 204.616l12.624 15.826 18.472 19.23s24.28 1.361 27.684-.171a17.893 17.893 0 0 0 2.141-1.278 232.388 232.388 0 0 0 2.288-14.093c.002 0-4.001-10.154-11.079-24.761z" fill="#343c47"></path><path d="m175.752 237.9-70.215-59.3-4.434 4.1 8.716 35.144c12.22 16.911 34.087 44.022 56.54 56.44a22.365 22.365 0 0 0 9.785 3.783 214.107 214.107 0 0 0 13.218-48.076z" fill="#343c47"></path><path d="m208.158 171.058 7.513-12.497 19.621 27.659-10.965 23.119z" fill="#ffffff"></path><path d="m216.4 190.574 7.926 18.765 10.965-23.119-8.827-12.443c-2.2 4.096-5.913 10.698-10.064 16.797z" fill="#dae5ed"></path><path d="M93.706 152.876s-22.278 36.449 75.951 110.381a14.872 14.872 0 0 0 18.7-.644c10.755-9.348 28.987-26.525 43.966-47.29l-22.16-48.263s-14.45 25.623-31.377 49.027l-57.875-53.93s-13.447-12.203-27.205-9.281z" fill="#5b6d7c"></path><circle cx="204.122" cy="226.037" fill="#343c47" r="4"></circle><circle cx="213.822" cy="214.141" fill="#343c47" r="4"></circle><path d="M183.66 93.14c-.754-4.836-2.391-9.169-3.748-13.442a1.643 1.643 0 0 0-3.181.8 110.985 110.985 0 0 1 1.922 11.4 13.007 13.007 0 0 1-3.287.915h-.036a1.92 1.92 0 0 0 .177 3.819 16.92 16.92 0 0 0 6.743-1.032 2.229 2.229 0 0 0 1.414-2.447z" fill="#ea8b88"></path><path d="m168.825 68.874-3.513-1.332a3 3 0 1 0-2.128 5.61l3.513 1.332a3 3 0 1 0 2.128-5.61zM191.81 71.186a3 3 0 0 0-3.678-2.114l-3.533.955a3 3 0 1 0 1.565 5.792l3.533-.955a3 3 0 0 0 2.113-3.678z" fill="#dd7a7a"></path><path d="M127.959 68.313a13.3 13.3 0 0 1 6.515 10.768 1.412 1.412 0 0 1-1.039 1.466 7.42 7.42 0 0 1-3.386.126 2.55 2.55 0 0 1-1.415-4.078 2.976 2.976 0 0 0 .593-2.492 16.588 16.588 0 0 0-1.972-5.065.518.518 0 0 1 .704-.725z" fill="#ea8b88"></path><path d="m126.1 272.835-11.138-8.453s-1.923 3.019-4.986 7.752l14.863 3.4a1.524 1.524 0 0 0 1.261-2.699z" fill="#343c47"></path><path d="M194.232 54.53c-.1-1.484-.216-3-.355-4.564 0 0-13.846 1.013-22.859-7.409 0 0 8.475 12.755 23.214 11.973z" fill="#ea8b88"></path></g></svg>