<svg viewBox="0 0 512 512" xmlns="http://www.w3.org/2000/svg"><g><g clip-rule="evenodd" fill-rule="evenodd"><path d="M491.5 302.48c-3.54-53.86-15.83-135-78.78-134.65h-69.45c-62.83-.35-75.12 80.79-78.66 134.65-6.85 105 233.74 105 226.89 0z" fill="#d6e9f8"></path><path d="M377.99 167.83h-34.72c-62.83-.35-75.12 80.79-78.66 134.65-3.43 52.44 55.04 78.66 113.39 78.66V167.83z" fill="#c2ddf3"></path><path d="M343.27 169.25h69.45c1.3-57.76-70.75-57.99-69.45 0z" fill="#4a372b"></path><path d="M377.99 169.25h34.72c.71-28.82-17.01-43.35-34.72-43.35zM49.65 241.77h165.59c.83-35.67 2.01-89.88-82.8-91.42-84.92 1.54-83.74 55.75-82.79 91.42z" fill="#5e4738"></path><path d="M49.65 241.77h80.55v-91.3c-82.56 2.48-81.38 55.99-80.55 91.3z" fill="#4a372b"></path><path d="m189.61 237.4.12-25.63c.12-14.53-17.01.12-36.5-24.92-24.45 25.39-50.32 31.77-78.19 28.23l.12 22.32c-7.09-8.98-26.1-8.39-26.1 9.33 0 19.37-.47 40.51 19.84 45.47 4.84 35.67 34.13 53.62 63.54 53.62 29.29 0 58.58-17.95 63.54-53.62 20.32-4.96 19.84-26.1 19.84-45.47.01-17.72-19.01-18.31-26.21-9.33z" fill="#f6bdb2"></path><path d="m189.61 237.4.12-25.63c.12-14.53-17.01.12-36.5-24.92-7.56 7.91-15.24 13.82-23.03 18.31v140.67h2.24c29.29 0 58.58-17.95 63.54-53.62 20.32-4.96 19.84-26.1 19.84-45.47.01-17.73-19.01-18.32-26.21-9.34z" fill="#fcdad3"></path><path d="M100.44 364.84v-26.69c9.8 5.08 20.91 7.68 32.01 7.68 9.09 0 18.31-1.77 26.69-5.31v24.33c-22.44 13.93-36.26 13.93-58.7-.01z" fill="#fcdad3"></path><path d="M136.81 374.64c-2.36.47-4.72.83-7.09.94-15 9.09-25.75 20.55-28.82 36.26-8.98-13.35-17.95-26.69-26.93-40.16.83-1.06 1.54-2.24 2.36-3.31-31.89 6.85-55.98 35.43-55.98 69.21v42.99c0 5.31 4.37 9.69 9.68 9.69h199.49c5.32 0 9.69-4.37 9.69-9.69V437.6c0-33.78-24.09-62.36-55.98-69.21.83 1.06 1.54 2.24 2.36 3.31-8.98 13.46-17.95 26.81-26.93 40.16-3.07-15.71-13.82-27.17-28.94-36.26-2.24-.12-4.61-.47-6.97-.94 4.73.93 9.34.93 14.06-.02z" fill="#88a6ba"></path><path d="M136.81 374.64c-2.24.47-4.37.83-6.61.94v-.24c2.13-.1 4.37-.22 6.61-.7zm-6.61 115.63h99.33c5.32 0 9.69-4.37 9.69-9.69V437.6c0-33.78-24.09-62.36-55.98-69.21.83 1.06 1.54 2.24 2.36 3.31-8.98 13.46-17.95 26.81-26.93 40.16-3.07-15.59-13.58-27.05-28.46-36.02v114.43z" fill="#6a8496"></path><path d="M136.81 374.64c-2.36.47-4.72.83-7.09.94-15 9.09-25.75 20.55-28.82 36.26-8.98-13.35-17.95-26.69-26.93-40.16.83-1.06 1.54-2.24 2.36-3.31-3.66.83-7.32 1.89-10.75 3.31 5.2 51.26 32.48 86.57 64.13 118.58 31.77-32.01 59.06-67.32 64.25-118.58-3.43-1.42-7.09-2.48-10.75-3.31.83 1.06 1.54 2.24 2.36 3.31-8.98 13.46-17.95 26.81-26.93 40.16-3.07-15.71-13.82-27.17-28.94-36.26-2.24-.12-4.61-.47-6.97-.94 4.75.95 9.36.95 14.08 0z" fill="#ffffff"></path><path d="M136.81 374.64c-2.24.47-4.37.83-6.61.94v-.24c2.13-.1 4.37-.22 6.61-.7zM130.2 489.8c31.54-31.89 58.58-67.09 63.78-118.11-3.43-1.42-7.09-2.48-10.75-3.31.83 1.06 1.54 2.24 2.36 3.31-8.98 13.46-17.95 26.81-26.93 40.16-3.07-15.59-13.58-27.05-28.46-36.02z" fill="#ffffff"></path><path d="m148.62 470.08-7.56-53.27H118.5l-7.56 53.27c6.02 6.97 12.28 13.58 18.78 20.2 6.62-6.62 12.88-13.23 18.9-20.2z" fill="#ed2024"></path><path d="M129.37 416.81H118.5l-7.56 53.27c5.91 6.73 12.05 13.35 18.42 19.72v-72.99z" fill="#c12026"></path><path d="m297.21 241.77 78.43 58.82 83.27-58.82c2.94-104.88-164.77-105.35-161.7 0z" fill="#4a372b"></path><path d="m297.21 241.77 25.63 19.25H378v-98.03c-41.11-.12-82.33 26.1-80.79 78.78z" fill="#5e4738"></path><path d="M456.42 490.27H299.69c-6.38 0-11.69-5.31-11.69-11.69v-45.94c0-37.68 10.51-55.63 51.14-55.63h4.61c6.5 0 11.69-5.31 11.69-11.69v-26.34c7.2 4.25 14.88 6.85 22.56 6.85 7.8 0 15.47-2.6 22.68-6.85v26.34c0 6.38 5.2 11.69 11.57 11.69h4.72c40.51 0 51.02 17.95 51.02 55.63v45.94c0 6.38-5.19 11.69-11.57 11.69z" fill="#fcdad3"></path><path d="M456.42 490.27h-78.43V345.83c7.8 0 15.47-2.6 22.68-6.85v26.34c0 6.38 5.2 11.69 11.57 11.69h4.72c40.51 0 51.02 17.95 51.02 55.63v45.94c.01 6.38-5.18 11.69-11.56 11.69z" fill="#f6bdb2"></path><path d="M246.3 112.68c38.74-107.13-45.24-107.6-49.02-62.95-44.29-7.21-64.36 74.17 49.02 62.95z" fill="#c12026"></path><path d="m197.29 49.72 49.02 62.95C285.04 5.55 201.07 5.08 197.29 49.72z" fill="#ed2024"></path><path d="M305.59 100.87c77.36-20.91 43.7-69.57 16.42-53.62-13.58-28.47-68.62-7.21-16.42 53.62z" fill="#f3809b"></path><path d="m322.01 47.24-16.42 53.62c77.37-20.9 43.7-69.56 16.42-53.62z" fill="#ec6883"></path><path d="M396.18 219.33c6.97 11.34 18.66 21.85 37.8 18.07 6.97-8.98 25.51-8.39 25.51 9.33 0 19.37-.71 36.73-20.55 41.69-4.61 22.09-32.24 57.4-60.95 57.4-28.58 0-56.22-35.31-60.94-57.4-19.72-4.96-20.43-22.32-20.43-41.69 0-17.72 18.54-18.31 25.51-9.33v11.1c23.27 2.6 55.16-7.91 74.05-29.17z" fill="#f6bdb2"></path><path d="M396.18 219.33c6.97 11.34 18.66 21.85 37.8 18.07 6.97-8.98 25.51-8.39 25.51 9.33 0 19.37-.71 36.73-20.55 41.69-4.61 22.09-32.24 57.4-60.95 57.4V234.45c6.74-4.25 13-9.21 18.19-15.12z" fill="#fcdad3"></path><path d="M432.92 490.27v-40.75c0-15.12-12.4-27.4-27.4-27.4-15.12 0-27.52 12.28-27.52 27.4 0-15.12-12.28-27.4-27.4-27.4s-27.4 12.28-27.4 27.4v40.75z" fill="#d6e9f8"></path><path d="M432.92 490.27v-40.75c0-15.12-12.4-27.4-27.4-27.4-15.12 0-27.52 12.28-27.52 27.4v40.75z" fill="#c2ddf3"></path><path d="M130.2 345.83h2.24c9.09 0 18.31-1.77 26.69-5.31v24.33c-11.1 6.85-19.96 10.39-28.94 10.51v-29.53z" fill="#f6bdb2"></path><path d="m105.16 392.83 24.57-17.48 24.68 17.48-12.16 25.99h-24.92z" fill="#ed2024"></path><path d="m130.2 375.59 24.21 17.24-12.16 25.99H130.2z" fill="#c12026"></path><path d="M87.21 355.63c13.23 10.04 27.64 19.13 42.52 19.96-15 9.09-25.75 20.55-28.82 36.26-8.98-13.35-17.95-26.69-26.93-40.16 4.25-6.14 8.62-11.45 13.23-16.06z" fill="#6a8496"></path><path d="M172.36 355.63c-13.23 10.04-27.64 19.13-42.64 19.96 15.12 9.09 25.87 20.55 28.94 36.26 8.98-13.35 17.95-26.69 26.93-40.16-4.25-6.14-8.62-11.45-13.23-16.06z" fill="#88a6ba"></path></g></g></svg>