<svg viewBox="0 0 512 512" xmlns="http://www.w3.org/2000/svg"><g><path d="M256 151h-45v346c0 8.284 6.716 15 15 15h60c8.284 0 15-6.716 15-15V151z" fill="#aa3c6e"></path><path d="M301 497V151h-45v361h30c8.284 0 15-6.716 15-15z" fill="#7e325f"></path><path d="M406 241H105a14.986 14.986 0 0 0-10.605 4.395l-90 90c-5.859 5.859-5.859 15.352 0 21.211l90 90A14.99 14.99 0 0 0 105 451h301c8.291 0 15-6.709 15-15V256c0-8.291-6.709-15-15-15z" fill="#ff6e7c"></path><path d="M421 436V256c0-8.291-6.709-15-15-15H256v210h150c8.291 0 15-6.709 15-15z" fill="#ff468c"></path><path d="m507.605 95.395-90-91A14.986 14.986 0 0 0 407 0H106c-8.291 0-15 6.709-15 15v181c0 8.291 6.709 15 15 15h301c3.984 0 7.793-1.582 10.605-4.395l90-90c5.86-5.859 5.86-15.351 0-21.21z" fill="#b4eb91"></path><path d="m417.605 206.605 90-90c5.859-5.859 5.859-15.352 0-21.211l-90-91A14.99 14.99 0 0 0 407 0H256v211h151c3.984 0 7.793-1.582 10.605-4.395z" fill="#96d778"></path><path d="m335.395 146.605-30-30c-5.859-5.859-5.859-15.352 0-21.211s15.352-5.859 21.211 0l17.476 17.476 27.217-38.086c4.834-6.738 14.209-8.276 20.918-3.486 6.738 4.805 8.306 14.18 3.486 20.918l-37.5 52.5c-5.418 7.584-16.285 8.413-22.808 1.889z" fill="#b5efff"></path><path d="m187.211 346 10.605-10.605c5.859-5.859 5.859-15.352 0-21.211s-15.352-5.859-21.211 0L166 324.789l-10.605-10.605c-5.859-5.859-15.352-5.859-21.211 0s-5.859 15.352 0 21.211L144.789 346l-10.605 10.605c-5.859 5.859-5.859 15.352 0 21.211s15.351 5.86 21.211 0L166 367.211l10.605 10.605c5.859 5.859 15.351 5.86 21.211 0 5.859-5.859 5.859-15.352 0-21.211z" fill="#e3fbff"></path></g></svg>