<svg viewBox="0 0 64 64" xmlns="http://www.w3.org/2000/svg"><g><g><path d="M50 47v6l-7.16 1.79a7.008 7.008 0 0 1-3.92-.15l-12.9-4.3a1.49 1.49 0 0 1-.19-2.75 5.487 5.487 0 0 1 2.48-.59 6.821 6.821 0 0 1 1.36.14l8.08 1.61a1.607 1.607 0 0 1 .63-2.95l5.06-.72a8.466 8.466 0 0 1 1.13-.08 8.028 8.028 0 0 1 4.45 1.35z" fill="#f1b37b"></path><path d="M42.14 54a7 7 0 0 0 1.7-.21L50 52.25V47l-.98-.65A8.028 8.028 0 0 0 44.57 45a8.466 8.466 0 0 0-1.13.08l-5.06.72a1.607 1.607 0 0 0-.63 2.95l-8.08-1.61a6.821 6.821 0 0 0-1.36-.14 5.487 5.487 0 0 0-2.241.486 1.47 1.47 0 0 0-.069.434 1.486 1.486 0 0 0 1.02 1.42l12.9 4.3a6.975 6.975 0 0 0 2.22.36z" fill="#ffcda4"></path><path d="M9 9h36v32H9z" fill="#926745"></path><path d="M11 9v5.994a6.021 6.021 0 0 0 2.773 4.984l2.041 1.338a14.154 14.154 0 0 0 6.178 2.226 76.083 76.083 0 0 0 8.085.458 3.862 3.862 0 0 1 3.835 2.924 3.755 3.755 0 0 1-2.463 4.376 13.73 13.73 0 0 1-3.237.66l3.288 6.577c.035.07.061.142.092.213a24.212 24.212 0 0 0 3.448.25H45V9z" fill="#b48155"></path><path d="M34 32h8v2h-8zM27 36h15v2H27z" fill="#5c4436"></path><path d="M32 27.74a1.755 1.755 0 0 1-1.19 1.66 11.732 11.732 0 0 1-3.72.6H25l4.71 9.43a2.7 2.7 0 0 1 .29 1.21 1.363 1.363 0 0 1-2.41.87l-2.08-2.5 1.14 1.52a1.773 1.773 0 0 1 .35 1.06 1.414 1.414 0 0 1-2.41 1L22 40l.71 1.42a2.747 2.747 0 0 1 .29 1.23A1.344 1.344 0 0 1 21.65 44a1.371 1.371 0 0 1-1.06-.51l-1.77-2.21.04.15a5.043 5.043 0 0 1 .14 1.16 1.414 1.414 0 0 1-2.41 1A12.194 12.194 0 0 1 13 34.93V33l4.94-7.9 3.83.43a77.643 77.643 0 0 0 8.49.47A1.741 1.741 0 0 1 32 27.74z" fill="#f1b37b"></path><path d="M28.64 42A1.361 1.361 0 0 0 30 40.64a2.7 2.7 0 0 0-.29-1.21L25 30h2.09a11.732 11.732 0 0 0 3.72-.6 1.742 1.742 0 0 0 1.165-1.5 77.538 77.538 0 0 1-8.205-.466 6.12 6.12 0 0 0-5.87 2.834l-1.874 3A6.731 6.731 0 0 0 15 36.83a12.261 12.261 0 0 0 .93 4.69 11.947 11.947 0 0 0 1.37 2.423 1.381 1.381 0 0 0 .29.057A1.408 1.408 0 0 0 19 42.59a5.043 5.043 0 0 0-.14-1.16l-.04-.15 1.77 2.21a1.371 1.371 0 0 0 1.06.51A1.344 1.344 0 0 0 23 42.65a2.747 2.747 0 0 0-.29-1.23L22 40l2.59 2.59a1.414 1.414 0 0 0 2.41-1 1.773 1.773 0 0 0-.35-1.06l-1.14-1.52 2.08 2.5a1.364 1.364 0 0 0 1.05.49z" fill="#ffcda4"></path><path d="m1 14 17 11-5 8-12-5z" fill="#336ea3"></path><path d="M23 9v10h8V9" fill="#5c4436"></path><path d="m63 55-13-1v-8h13z" fill="#1b924a"></path><path d="M42 50h-3.39a2.585 2.585 0 0 1-1.4-.408l1.078-1.684a.578.578 0 0 0 .322.092H42z" fill="#f1b37b"></path><path d="m15.276 27.359 1.834-2.935L1 14v12l8.036 3.349a5.062 5.062 0 0 0 6.24-1.99z" fill="#407dbc"></path><g fill="#f1b37b"><path d="m19.287 38.705 1.414-1.414 2 2-1.414 1.414zM24.8 39.717a1.31 1.31 0 0 1-.072-.077l-2.5-3 1.538-1.28 2.5 3zM16.212 39.606l1.562-1.248 1.82 2.278-1.562 1.248z" fill="#f1b37b"></path></g><path d="M52 47.179a6.285 6.285 0 0 0 5.8 6.267l5.2.4V46H52z" fill="#40b450"></path></g></g></svg>