<svg viewBox="0 0 512 512" xmlns="http://www.w3.org/2000/svg"><g><g clip-rule="evenodd" fill-rule="evenodd"><path d="m43.849 376.649 64.064-37.116c12.023-6.966 24.249-11.905 37.464-7.618 14.734 4.778 38.793 15.038 63.33 19.464 9.107 2.953 14.785 12.073 12.308 21.319-2.478 9.248-10.293 14.017-21.319 12.311l8.577 1.373c9.829 1.572 18.855.227 27.458-4.783l61.594-35.875c47.878-27.885 54.911 15.014 38.992 24.815L224.54 439.367c-10.28 6.329-21.529 7.806-33.191 4.68l-81.076-21.724-30.025 17.335c-5.773 3.333-13.2 1.343-16.533-4.43l-24.28-42.054c-3.331-5.769-1.349-13.187 4.414-16.525z" fill="#f6dccd"></path><path d="M219.553 376.534c-3.423 6.691-10.478 9.925-19.857 8.474-13.281-3.512-26.546-7.112-39.816-10.668a6.662 6.662 0 1 1 3.449-12.871zM43.848 376.649l64.064-37.116c12.023-6.966 24.249-11.905 37.464-7.618 7.882 2.556 18.435 6.681 30.302 10.643l-124.1 71.649-12.144-21.034c-3.33-5.768-1.348-13.186 4.414-16.524z" fill="#f1cbbc"></path><path d="m50.236 356.434 50.808 89.773c2.456 4.341.915 9.902-3.426 12.359l-17.282 9.781c-4.341 2.457-9.902.915-12.359-3.426L17.17 375.148c-2.457-4.341-.915-9.902 3.426-12.359l17.282-9.781c4.34-2.456 9.902-.915 12.358 3.426z" fill="#d1d1d6"></path><path d="m76.958 418.114 8.993 15.89 8.893 15.713c2.452 4.332.922 9.88-3.399 12.344l6.173-3.494c4.341-2.457 5.882-8.018 3.426-12.359l-8.923-15.766-17.916-31.657-17.937-31.693-6.032-10.658c-2.128-3.76-6.586-5.419-10.562-4.199l10.443 18.452 17.916 31.657 8.923 15.766z" fill="#b1b1b5"></path><path d="M38.622 369.849a6.17 6.17 0 1 0 1.785 12.21 6.17 6.17 0 0 0-1.785-12.21z" fill="#685e68"></path><path d="M134.617 61.12 118.11 45.971a2.962 2.962 0 0 0-3.528-.388 2.96 2.96 0 0 0-1.429 3.249l4.873 21.905c4.034 18.132-12.741 34.875-30.847 30.847l-21.904-4.873c-1.3-.289-2.584.275-3.25 1.428s-.512 2.548.388 3.529l15.152 16.51c12.562 13.688 6.399 36.605-11.299 42.17l-21.378 6.723a2.96 2.96 0 0 0-2.1 2.861 2.96 2.96 0 0 0 2.1 2.862l21.37 6.72c17.724 5.574 23.844 28.511 11.301 42.178l-15.146 16.504a2.962 2.962 0 0 0-.388 3.529 2.962 2.962 0 0 0 3.25 1.428l21.903-4.873c18.132-4.034 34.876 12.742 30.848 30.848l-4.873 21.902c-.289 1.3.275 2.583 1.428 3.249s2.547.513 3.529-.388l16.509-15.15c13.688-12.561 36.606-6.399 42.171 11.299l6.722 21.376c.399 1.271 1.53 2.1 2.862 2.1s2.462-.829 2.862-2.1l6.72-21.371c5.574-17.724 28.509-23.844 42.177-11.301l16.505 15.147a2.96 2.96 0 0 0 3.529.388 2.96 2.96 0 0 0 1.428-3.249l-4.873-21.903c-4.034-18.132 12.742-34.877 30.848-30.848l21.902 4.873c1.3.289 2.584-.275 3.25-1.428s.513-2.547-.388-3.528l-15.15-16.509c-12.562-13.688-6.399-36.606 11.299-42.172l21.376-6.722c1.271-.4 2.1-1.53 2.1-2.862s-.829-2.462-2.1-2.862l-21.37-6.72c-17.724-5.574-23.844-28.51-11.301-42.178l15.146-16.505c.901-.981 1.054-2.375.388-3.528s-1.949-1.718-3.25-1.428l-21.902 4.873c-18.106 4.028-34.883-12.716-30.849-30.848l4.873-21.902c.289-1.3-.275-2.583-1.428-3.249s-2.547-.513-3.528.388l-16.508 15.15c-13.668 12.544-36.598 6.424-42.172-11.299l-6.722-21.375c-.4-1.271-1.53-2.1-2.862-2.1s-2.462.829-2.862 2.1l-6.721 21.373c-5.565 17.696-28.486 23.861-42.174 11.299z" fill="#ffd064"></path><path d="m145.018 82.985-14.12-12.959c-.654-.6-1.583-.702-2.352-.258s-1.145 1.3-.952 2.166l4.169 18.736c3.223 14.488-10.181 27.867-24.648 24.648l-18.736-4.168c-.867-.193-1.722.183-2.166.952s-.342 1.698.258 2.352l12.961 14.123c10.038 10.937 5.113 29.249-9.028 33.696l-18.287 5.751a1.974 1.974 0 0 0-1.4 1.908c0 .887.553 1.641 1.4 1.907l18.281 5.748c14.162 4.454 19.053 22.782 9.03 33.703L86.47 225.409c-.6.654-.702 1.583-.258 2.352s1.3 1.145 2.166.952l18.735-4.168c14.488-3.223 27.868 10.181 24.649 24.649l-4.168 18.734c-.193.867.183 1.722.952 2.166s1.698.342 2.352-.259l14.122-12.96c10.938-10.037 29.25-5.113 33.697 9.029l5.75 18.285c.266.847 1.02 1.4 1.908 1.4s1.641-.553 1.908-1.4l5.749-18.281c4.454-14.162 22.78-19.053 33.702-9.03l14.119 12.957c.654.6 1.583.702 2.352.259a1.973 1.973 0 0 0 .952-2.166l-4.168-18.734c-3.224-14.488 10.181-27.869 24.65-24.649l18.734 4.168c.867.193 1.722-.183 2.166-.952s.342-1.698-.258-2.352l-12.96-14.122c-10.038-10.938-5.113-29.25 9.029-33.697l18.285-5.75c.847-.266 1.4-1.02 1.4-1.908s-.553-1.641-1.4-1.908l-18.281-5.749c-14.163-4.454-19.052-22.781-9.03-33.702l12.957-14.119c.6-.654.702-1.583.258-2.352s-1.3-1.145-2.166-.952l-18.734 4.168c-14.468 3.219-27.873-10.161-24.65-24.649l4.168-18.734c.193-.867-.183-1.722-.952-2.166s-1.698-.342-2.352.258l-14.122 12.96c-10.922 10.023-29.244 5.133-33.698-9.029l-5.75-18.285c-.266-.847-1.02-1.4-1.908-1.4s-1.641.553-1.908 1.4l-5.749 18.283c-4.448 14.141-22.763 19.067-33.7 9.029z" fill="#ffe177"></path><circle cx="186.375" cy="169.932" fill="#ffc338" r="69.385" transform="rotate(-67.48 186.438 169.888)"></circle><path d="M186.375 100.546c38.32 0 69.385 31.065 69.385 69.385s-31.064 69.385-69.385 69.385c-1.984 0-3.947-.088-5.889-.251 35.564-2.989 63.496-32.797 63.496-69.134 0-36.336-27.932-66.144-63.496-69.134a70.371 70.371 0 0 1 5.889-.251z" fill="#f5b829"></path><path d="m184.432 125.241-9.977 26.277a2.04 2.04 0 0 1-1.842 1.338l-28.074 1.368c-1.909.093-2.691 2.498-1.201 3.696l21.908 17.608c.658.529.925 1.35.704 2.165l-7.374 27.122c-.502 1.844 1.544 3.331 3.144 2.284l23.516-15.394a2.04 2.04 0 0 1 2.277 0l23.516 15.394c1.599 1.047 3.645-.439 3.144-2.284l-7.373-27.122a2.04 2.04 0 0 1 .703-2.165l21.908-17.608c1.49-1.198.708-3.603-1.201-3.696l-28.073-1.368a2.041 2.041 0 0 1-1.842-1.338l-9.977-26.277c-.675-1.777-3.212-1.777-3.886 0z" fill="#ffe177"></path><path d="m153.414 153.791-8.874.433c-1.909.093-2.691 2.498-1.201 3.696l21.908 17.608c.658.529.925 1.35.704 2.165l-7.374 27.122c-.501 1.844 1.544 3.331 3.144 2.284l6.085-3.984 7.029-25.856a2.04 2.04 0 0 0-.703-2.165l-21.908-17.608c-1.487-1.195-.711-3.593 1.19-3.695zm31.018-28.55-9.977 26.277a2.038 2.038 0 0 1-1.822 1.337l8.865-.432a2.04 2.04 0 0 0 1.842-1.338l7.394-19.477-2.417-6.367c-.674-1.777-3.211-1.777-3.885 0zm.805 66.464a2.04 2.04 0 0 1 2.277 0l23.516 15.394c1.599 1.047 3.645-.439 3.144-2.284l-.631-2.321-21.255-13.914a2.042 2.042 0 0 0-2.277 0z" fill="#ffd064"></path><path d="M480.851 255.898c8.332 0 15.149 6.817 15.149 15.149v11.122c0 8.332-6.817 15.148-15.149 15.148 8.332 0 15.149 6.816 15.149 15.148v11.121c0 8.332-6.817 15.148-15.149 15.148h-95.213c-8.332 0-15.148-6.816-15.148-15.148v-11.121c0-8.332 6.817-15.148 15.148-15.148-8.332 0-15.148-6.816-15.148-15.148v-11.122c0-8.332 6.817-15.149 15.148-15.149-8.332 0-15.148-6.817-15.148-15.148v-11.122c0-8.332 6.817-15.149 15.148-15.149-8.332 0-15.148-6.816-15.148-15.148V188.21c0-8.332 6.817-15.149 15.148-15.149-8.332 0-15.148-6.816-15.148-15.148v-11.121c0-8.332 6.817-15.148 15.148-15.148h95.213c8.332 0 15.149 6.816 15.149 15.148v11.121c0 8.332-6.817 15.148-15.149 15.148 8.332 0 15.149 6.817 15.149 15.149v11.121c0 8.332-6.817 15.148-15.149 15.148 8.332 0 15.149 6.817 15.149 15.149v11.122c0 8.331-6.817 15.148-15.149 15.148z" fill="#ffe177"></path><path d="M480.851 255.898c8.332 0 15.149 6.817 15.149 15.149v11.122c0 8.332-6.817 15.148-15.149 15.148 8.332 0 15.149 6.816 15.149 15.149v11.121c0 8.332-6.817 15.148-15.149 15.148h-12.244c8.332 0 15.148-6.816 15.148-15.148v-11.121c0-8.332-6.817-15.149-15.148-15.149 8.332 0 15.148-6.816 15.148-15.148v-11.122c0-8.332-6.817-15.149-15.148-15.149 8.332 0 15.148-6.817 15.148-15.148v-11.122c0-8.332-6.817-15.149-15.148-15.149 8.332 0 15.148-6.816 15.148-15.148V188.21c0-8.332-6.817-15.149-15.148-15.149 8.332 0 15.148-6.816 15.148-15.148v-11.121c0-8.332-6.817-15.148-15.148-15.148h12.244c8.332 0 15.149 6.816 15.149 15.148v11.121c0 8.332-6.817 15.148-15.149 15.148 8.332 0 15.149 6.817 15.149 15.149v11.121c0 8.332-6.817 15.148-15.149 15.148 8.332 0 15.149 6.817 15.149 15.149v11.122c0 8.331-6.817 15.148-15.149 15.148z" fill="#ffd064"></path><path d="M480.851 214.48h-95.213c-8.332 0-15.148-6.816-15.148-15.148V188.21c0-8.332 6.817-15.149 15.148-15.149h95.213c8.332 0 15.149 6.817 15.149 15.149v11.121c0 8.332-6.817 15.149-15.149 15.149zm0 82.836h-95.213c-8.332 0-15.148-6.816-15.148-15.148v-11.122c0-8.332 6.817-15.149 15.148-15.149h95.213c8.332 0 15.149 6.817 15.149 15.149v11.122c0 8.332-6.817 15.148-15.149 15.148z" fill="#ffd064"></path><path d="M480.851 214.48h-12.244c8.332 0 15.148-6.816 15.148-15.148V188.21c0-8.332-6.817-15.149-15.148-15.149h12.244c8.332 0 15.149 6.817 15.149 15.149v11.121c0 8.332-6.817 15.149-15.149 15.149zm0 82.836h-12.227c8.324-.009 15.132-6.822 15.132-15.148v-11.121c0-8.332-6.817-15.149-15.148-15.149h12.244c8.332 0 15.149 6.817 15.149 15.149v11.121c-.001 8.331-6.818 15.148-15.15 15.148z" fill="#ffc338"></path><circle cx="433.244" cy="78.756" fill="#ffc338" r="62.755" transform="rotate(-80.8 433.215 78.818)"></circle><path d="M433.244 16.001c34.659 0 62.755 28.097 62.755 62.755 0 34.659-28.096 62.755-62.755 62.755a63.23 63.23 0 0 1-5.061-.204c32.292-2.578 57.694-29.597 57.694-62.551s-25.402-59.974-57.694-62.552a63.72 63.72 0 0 1 5.061-.203z" fill="#f5b829"></path><path d="M459.095 56.598a7.999 7.999 0 0 1-14.75 6.188c-1.508-3.593-4.369-5.666-7.509-6.461a14.233 14.233 0 0 0-6.264-.158c-1.916.386-3.665 1.154-5.016 2.252-1.521 1.237-2.487 3.012-2.381 5.201.091 1.881 1.103 3.191 2.515 4.113 2.34 1.528 5.683 2.395 8.893 2.922 5.162.847 10.815 2.273 15.605 5.166 5.723 3.455 10.042 8.664 11.016 16.688.071.585.117 1.319.137 2.191.177 7.421-3.195 12.941-8.262 16.786-3.429 2.602-7.611 4.323-11.835 5.253v1.728a8 8 0 0 1-16 0v-1.892c-3.313-.827-6.462-2.168-9.251-4.025-5.085-3.387-8.981-8.388-10.632-15.007a7.981 7.981 0 0 1 15.5-3.812c.6 2.405 2.047 4.244 3.944 5.507 2.506 1.669 5.754 2.464 9.071 2.384.519-.012 1.206-.07 2.062-.173 2.832-.344 5.614-1.208 7.515-2.65 1.192-.905 1.987-2.141 1.949-3.724a12.272 12.272 0 0 0-.075-.691c-.274-2.261-1.609-3.8-3.391-4.876-2.714-1.638-6.42-2.529-9.918-3.103-5.017-.824-10.486-2.339-15.018-5.297-5.46-3.564-9.383-8.847-9.765-16.738-.378-7.788 2.972-14.03 8.256-18.326 2.801-2.278 6.156-3.958 9.752-4.972v-2.028a8 8 0 0 1 16 0v1.921c7.491 2.048 14.259 7.075 17.852 15.633z" fill="#ffe177"></path><circle cx="401.825" cy="433.244" fill="#ffc338" r="62.755" transform="rotate(-80.8 401.744 433.288)"></circle><path d="M401.825 370.489c34.659 0 62.755 28.096 62.755 62.755s-28.096 62.755-62.755 62.755a63.23 63.23 0 0 1-5.061-.204c32.292-2.577 57.694-29.596 57.694-62.551 0-32.954-25.402-59.974-57.694-62.551a63.23 63.23 0 0 1 5.061-.204z" fill="#f5b829"></path><path d="M427.676 411.086a7.999 7.999 0 0 1-14.75 6.188c-1.508-3.593-4.369-5.666-7.509-6.461a14.237 14.237 0 0 0-6.265-.158c-1.916.386-3.665 1.154-5.016 2.252-1.521 1.237-2.487 3.012-2.381 5.201.091 1.881 1.103 3.191 2.515 4.113 2.34 1.528 5.684 2.395 8.894 2.922 5.162.847 10.815 2.273 15.605 5.166 5.723 3.455 10.041 8.664 11.016 16.688.071.585.117 1.319.137 2.191.177 7.421-3.195 12.941-8.262 16.786-3.429 2.602-7.611 4.323-11.835 5.253v1.728a8 8 0 0 1-16 0v-1.892c-3.313-.827-6.462-2.168-9.251-4.025-5.085-3.387-8.981-8.388-10.632-15.008a7.981 7.981 0 0 1 15.5-3.812c.6 2.405 2.047 4.244 3.944 5.508 2.506 1.668 5.754 2.464 9.071 2.384.519-.012 1.206-.07 2.062-.173 2.832-.344 5.614-1.208 7.515-2.65 1.192-.905 1.987-2.141 1.949-3.724a12.272 12.272 0 0 0-.075-.691c-.274-2.261-1.609-3.8-3.391-4.876-2.714-1.638-6.42-2.529-9.918-3.103-5.017-.824-10.486-2.339-15.018-5.297-5.46-3.564-9.383-8.847-9.765-16.738-.378-7.788 2.972-14.03 8.256-18.326 2.801-2.278 6.156-3.958 9.752-4.972v-2.028a8 8 0 0 1 16 0v1.921c7.491 2.048 14.259 7.076 17.852 15.633z" fill="#ffe177"></path></g></g></svg>