<svg viewBox="0 0 64 64" xmlns="http://www.w3.org/2000/svg"><g><path d="M60 22v36c0 1.1-.9 2-2 2H6c-1.1 0-2-.9-2-2V22c0-1.1.9-2 2-2h52c1.1 0 2 .9 2 2z" fill="#c80a50"></path><path d="M56 20v35c0 1.1-.9 2-2 2H34c-1.1 0-2-.9-2-2 0 1.1-.9 2-2 2H10c-1.1 0-2-.9-2-2V20z" fill="#a00028"></path><path d="M32 15v39c0 1.1-.9 2-2 2H10c-1.1 0-2-.9-2-2V17c0-1.1.9-2 2-2z" fill="#f0f0f0"></path><path d="M32 15v33h-3c-.55 0-1-.45-1-1v-2h-1c-.55 0-1-.45-1-1V33.4c0-1.05-.57-2.01-1.46-2.57-4.26-2.69-6.97-7.6-6.48-13.11.08-.94.26-1.85.53-2.72zM56 17v37c0 1.1-.9 2-2 2H34c-1.1 0-2-.9-2-2V15h22c1.1 0 2 .9 2 2z" fill="#d2d2d2"></path><path d="M46 19c0 4.98-2.61 9.35-6.53 11.83-.9.56-1.47 1.52-1.47 2.57V44c0 .55-.45 1-1 1h-1v2c0 .55-.45 1-1 1h-3V15h13.42c.38 1.27.58 2.61.58 4z" fill="#b4b4b4"></path><path d="M46 18c0-7.956-6.636-14.362-14.676-13.984-6.892.324-12.653 5.827-13.266 12.699-.492 5.514 2.221 10.425 6.48 13.114.892.563 1.462 1.517 1.462 2.572V39h12v-6.598c0-1.057.572-2.011 1.466-2.576C43.389 27.348 46 22.984 46 18z" fill="#fab400"></path><path d="m39.928 21.268-1.124-.649c.124-.52.196-1.061.196-1.619s-.072-1.099-.196-1.619l1.124-.649a1 1 0 0 0 .366-1.366l-1-1.732a1 1 0 0 0-1.366-.366l-1.125.649A6.988 6.988 0 0 0 34 12.293V11a1 1 0 0 0-1-1h-2a1 1 0 0 0-1 1v1.294a6.975 6.975 0 0 0-2.803 1.624l-1.125-.649a1 1 0 0 0-1.366.366l-1 1.732a1 1 0 0 0 .366 1.366l1.124.649C25.072 17.901 25 18.442 25 19s.072 1.099.196 1.619l-1.124.649a1 1 0 0 0-.366 1.366l1 1.732a1 1 0 0 0 1.366.366l1.125-.649A6.988 6.988 0 0 0 30 25.707V27a1 1 0 0 0 1 1h2a1 1 0 0 0 1-1v-1.294a6.975 6.975 0 0 0 2.803-1.624l1.125.649a1 1 0 0 0 1.366-.366l1-1.732a1 1 0 0 0-.366-1.365z" fill="#dc9600"></path><path d="M32 38a1 1 0 0 1-1-1V26a1 1 0 0 1 2 0v11a1 1 0 0 1-1 1z" fill="#c80a50"></path><path d="M31 26h2v2h-2z" fill="#a00028"></path><path d="M36 43v3c0 .55-.45 1-1 1h-6c-.55 0-1-.45-1-1v-3z" fill="#00a0c8"></path><path d="M28 43h8v2h-8z" fill="#0082aa"></path><path d="M26 36v7a1 1 0 0 0 1 1h10a1 1 0 0 0 1-1v-7zM21 37h-8a1 1 0 0 1 0-2h8a1 1 0 0 1 0 2zM15 41h-2a1 1 0 0 1 0-2h2a1 1 0 0 1 0 2zM21 41h-2a1 1 0 0 1 0-2h2a1 1 0 0 1 0 2zM21 45h-8a1 1 0 0 1 0-2h8a1 1 0 0 1 0 2zM15 49h-2a1 1 0 0 1 0-2h2a1 1 0 0 1 0 2zM25 49h-6a1 1 0 0 1 0-2h6a1 1 0 0 1 0 2zM25 53H13a1 1 0 0 1 0-2h12a1 1 0 0 1 0 2zM51 37h-8a1 1 0 0 1 0-2h8a1 1 0 0 1 0 2zM45 41h-2a1 1 0 0 1 0-2h2a1 1 0 0 1 0 2zM51 41h-2a1 1 0 0 1 0-2h2a1 1 0 0 1 0 2zM51 45h-8a1 1 0 0 1 0-2h8a1 1 0 0 1 0 2zM51 49h-2a1 1 0 0 1 0-2h2a1 1 0 0 1 0 2zM45 49h-6a1 1 0 0 1 0-2h6a1 1 0 0 1 0 2zM51 53H39a1 1 0 0 1 0-2h12a1 1 0 0 1 0 2z" fill="#0a5078"></path><path d="m39.928 20.268-1.124-.649c.124-.52.196-1.061.196-1.619s-.072-1.099-.196-1.619l1.124-.649a1 1 0 0 0 .366-1.366l-1-1.732a1 1 0 0 0-1.366-.366l-1.125.649A6.988 6.988 0 0 0 34 11.293V10a1 1 0 0 0-1-1h-2a1 1 0 0 0-1 1v1.294a6.975 6.975 0 0 0-2.803 1.624l-1.125-.649a1 1 0 0 0-1.366.366l-1 1.732a1 1 0 0 0 .366 1.366l1.124.649C25.072 16.901 25 17.442 25 18s.072 1.099.196 1.619l-1.124.649a1 1 0 0 0-.366 1.366l1 1.732a1 1 0 0 0 1.366.366l1.125-.649A6.988 6.988 0 0 0 30 24.707V26a1 1 0 0 0 1 1h2a1 1 0 0 0 1-1v-1.294a6.975 6.975 0 0 0 2.803-1.624l1.125.649a1 1 0 0 0 1.366-.366l1-1.732a1 1 0 0 0-.366-1.365z" fill="#00a0c8"></path><circle cx="32" cy="19" fill="#0082aa" r="5"></circle><circle cx="32" cy="18" fill="#f0f0f0" r="5"></circle><path d="m30.793 20.707-1-1a.999.999 0 1 1 1.414-1.414l.293.293 1.293-1.293a.999.999 0 1 1 1.414 1.414l-2 2a.999.999 0 0 1-1.414 0z" fill="#d2d2d2"></path><path d="M31.5 20a.997.997 0 0 1-.707-.293l-1-1a.999.999 0 1 1 1.414-1.414l.293.293 1.293-1.293a.999.999 0 1 1 1.414 1.414l-2 2A.997.997 0 0 1 31.5 20z" fill="#0a5078"></path></g></svg>