<svg clip-rule="evenodd" fill-rule="evenodd" height="512" image-rendering="optimizeQuality" shape-rendering="geometricPrecision" text-rendering="geometricPrecision" viewBox="0 0 1707 1707" width="512" xmlns="http://www.w3.org/2000/svg"><g id="Layer_x0020_1"><path d="m1128 1066c-312 0-564-253-564-564 0 311-253 564-564 564 311 0 564 252 564 563 0-311 252-563 564-563z" fill="#ffd93b"/><g fill="#ffb030"><path d="m1707 1357c-171 0-309-139-309-309 0 170-139 309-309 309 170 0 309 138 309 309 0-171 138-309 309-309z"/><path d="m1529 417c-208 0-376-168-376-376 0 208-168 376-376 376 208 0 376 168 376 376 0-208 168-376 376-376z"/></g></g></svg>