<svg viewBox="0 0 64 64" xmlns="http://www.w3.org/2000/svg"><g><g fill="#ffc588"><path d="M27.29 6v7.74H11.44a3.87 3.87 0 0 1 0-7.74z" fill="#ffc588"></path><path d="M22.66 7.94 28 13.55 14.17 27.33a3.87 3.87 0 0 1-5.47-5.47l8.19-8.17z" fill="#ffc588"></path><path d="M20.9 31.92a3.87 3.87 0 0 0 3.87 3.87 3.87 3.87 0 0 0 3.87-3.87V20.84a3.81 3.81 0 0 1 3.8-3.84 3.81 3.81 0 0 1 3.22 1.77l.11.18a3.81 3.81 0 0 1-.52 4.73l-5.48 5.47a3.87 3.87 0 0 0 0 5.47 3.87 3.87 0 0 0 5.47 0L42.87 27h4a6.29 6.29 0 0 0 4.47-1.85l5.07-5.07V6H27.29a6.39 6.39 0 0 0-6.39 6.39z" fill="#ffc588"></path></g><g fill="#fa9f4d"><path d="M20.9 21.1a1 1 0 0 1-1-1v-7.76a7.4 7.4 0 0 1 2.45-5.5 1 1 0 0 1 1.34 1.49 5.38 5.38 0 0 0-1.79 4v7.77a1 1 0 0 1-1 1z" fill="#fa9f4d"></path><path d="M17.21 14.37a1 1 0 0 1-.71-1.71l7.23-7.21a1 1 0 0 1 1.42 1.42l-7.23 7.2a1 1 0 0 1-.71.3z" fill="#fa9f4d"></path></g><path d="m37.79 44.44-8.15-6.71v-7.64a1 1 0 0 0-2 0v7.64l-7.89 6.49L21 45.76l7.62-6.26 7.9 6.5z" fill="#9fa0a3"></path><path d="M18.57 43.82h20.14v14.23H18.57z" fill="#fdaf3f"></path><path d="M26.35 43.82h4.57v5.79h-4.57z" fill="#ffe550"></path></g></svg>