<svg id="flat" height="512" viewBox="0 0 128 128" width="512" xmlns="http://www.w3.org/2000/svg"><rect fill="#43567c" height="126" rx="11.885" width="72.421" x="27.789" y="1"/><path d="m94.09 16.68v90.32a2.034 2.034 0 0 1 -2.03 2.04h-56.12a2.034 2.034 0 0 1 -2.03-2.04v-90.32a2.034 2.034 0 0 1 2.03-2.04h56.12a2.034 2.034 0 0 1 2.03 2.04z" fill="#8cc0f3"/><path d="m72.4 8.571h-16.795a1 1 0 0 1 0-2h16.795a1 1 0 0 1 0 2z" fill="#2f3a5a"/><rect fill="#2f3a5a" height="6.781" rx=".914" width="14.735" x="56.632" y="114.412"/><g fill="#e1e6e9" opacity=".5"><path d="m88.57 14.64-54.66 91.45v-14.28l46.12-77.17z"/><path d="m94.09 19.02v7.13l-49.54 82.89h-4.26z"/></g></svg>