<svg id="Flat" height="512" viewBox="0 0 64 64" width="512" xmlns="http://www.w3.org/2000/svg"><path d="m45 51v-15.142a10.976 10.976 0 0 0 -.611-3.613l-6.659-19.145a3.051 3.051 0 0 0 -2.418-2.074 2.924 2.924 0 0 0 -3.312 2.896v33.672a15.992 15.992 0 0 0 2.256 8.191l4.3 7.215h15.444z" fill="#f8c3b8"/><path d="m39 44v-14a3 3 0 0 0 -3-3 5.965 5.965 0 0 0 -4 1.541v4.459a4 4 0 0 1 4-4 1 1 0 0 1 1 1v14a1 1 0 0 0 2 0z" fill="#f0b0a1"/><g fill="#ffdc6e"><rect height="2" rx="1" transform="matrix(.5 -.866 .866 .5 16.387 35.576)" width="8" x="35" y="2.598"/><rect height="2" rx="1" transform="matrix(.866 -.5 .5 .866 1.013 24.155)" width="8" x="41.588" y="9.186"/><rect height="2" rx="1" width="8" x="44" y="18.187"/><rect height="8" rx="1" transform="matrix(.866 -.5 .5 .866 1.55 12.981)" width="2" x="24" y="-.402"/><rect height="8" rx="1" transform="matrix(.5 -.866 .866 .5 .384 21.039)" width="2" x="17.411" y="6.186"/><rect height="2" rx="1" width="8" x="12" y="18.187"/></g><path d="m49.317 52.757-14.84 3.399 4.079 6.844h18.444z" fill="#678efa"/><path d="m19 51v-15.142a10.976 10.976 0 0 1 .611-3.613l6.659-19.145a3.051 3.051 0 0 1 2.418-2.074 2.924 2.924 0 0 1 3.312 2.896v33.672a15.992 15.992 0 0 1 -2.256 8.191l-4.3 7.215h-15.444z" fill="#fcd2c5"/><path d="m25 44v-14a3 3 0 0 1 3-3 5.969 5.969 0 0 1 4 1.54v4.46a4 4 0 0 0 -4-4 1 1 0 0 0 -1 1v14a1 1 0 0 1 -2 0z" fill="#f8c3b8"/><path d="m14.683 52.757 14.84 3.399-4.079 6.844h-18.444z" fill="#678efa"/></svg>