<svg id="flat" height="512" viewBox="0 0 512 512" width="512" xmlns="http://www.w3.org/2000/svg"><path d="m256 196.388a132.039 132.039 0 0 1 -93.657-38.731l-8-8 11.314-11.314 8 8a116.584 116.584 0 0 0 164.686 0l8-8 11.314 11.314-8 8a132.039 132.039 0 0 1 -93.657 38.731z" fill="#a31a5a"/><path d="m280 40 14.142 33.858 25.858 14.142-25.858 14.142-14.142 33.858-14.142-33.858-25.858-14.142 25.858-14.142z" fill="#d1e3ee"/><path d="m440 224h32v240h-32z" fill="#35378f"/><path d="m400 488h-288l80-232h128z" fill="#a31a5a"/><path d="m400 488h-42.594c-120.183 0-204.584-118.383-165.406-232h128z" fill="#dd156d"/><path d="m40 224h32v240h-32z" fill="#35378f"/><path d="m40 224h16v240h-16z" fill="#252364"/><path d="m440 224h16v240h-16z" fill="#252364"/><circle cx="56" cy="168" fill="#f2d831" r="32"/><path d="m72 184a32 32 0 0 1 -29.165-45.165 32 32 0 1 0 42.33 42.33 31.87 31.87 0 0 1 -13.165 2.835z" fill="#d1b320"/><circle cx="456" cy="168" fill="#f2d831" r="32"/><path d="m472 184a32 32 0 0 1 -29.165-45.165 32 32 0 1 0 42.33 42.33 31.87 31.87 0 0 1 -13.165 2.835z" fill="#d1b320"/><path d="m136 145.888h32v110.112h-32z" fill="#252364"/><circle cx="152" cy="128" fill="#d1b320" r="24"/><path d="m344 145.888h32v110.112h-32z" fill="#252364"/><circle cx="360" cy="128" fill="#d1b320" r="24"/><path d="m440 256-20.118 20.118a231.764 231.764 0 0 1 -163.882 67.882 231.764 231.764 0 0 1 -163.882-67.882l-20.118-20.118v-40l11.314 11.314 22.461 22.461a212.451 212.451 0 0 0 150.225 62.225 212.451 212.451 0 0 0 150.225-62.225l22.461-22.461 11.314-11.314z" fill="#a31a5a"/><path d="m39.9 456h32.2a15.9 15.9 0 0 1 15.9 15.9v16.1a0 0 0 0 1 0 0h-64a0 0 0 0 1 0 0v-16.1a15.9 15.9 0 0 1 15.9-15.9z" fill="#f2d831"/><path d="m40 456h-.1a15.9 15.9 0 0 0 -15.9 15.9v16.1h64v-16h-32a16 16 0 0 1 -16-16z" fill="#d1b320"/><path d="m439.9 456h32.2a15.9 15.9 0 0 1 15.9 15.9v16.1a0 0 0 0 1 0 0h-64a0 0 0 0 1 0 0v-16.1a15.9 15.9 0 0 1 15.9-15.9z" fill="#f2d831"/><path d="m440 456h-.1a15.9 15.9 0 0 0 -15.9 15.9v16.1h64v-16h-32a16 16 0 0 1 -16-16z" fill="#d1b320"/><rect fill="#f2d831" height="32" rx="16" width="64" x="24" y="200"/><path d="m80 216h-32a15.993 15.993 0 0 1 -15.852-13.932 15.986 15.986 0 0 0 -8.148 13.932 16 16 0 0 0 16 16h32a16 16 0 0 0 16-16 16.221 16.221 0 0 0 -.148-2.068 15.914 15.914 0 0 1 -7.852 2.068z" fill="#d1b320"/><rect fill="#f2d831" height="32" rx="16" width="64" x="424" y="200"/><path d="m480 216h-32a15.993 15.993 0 0 1 -15.852-13.932 15.986 15.986 0 0 0 -8.148 13.932 16 16 0 0 0 16 16h32a16 16 0 0 0 16-16 16.221 16.221 0 0 0 -.148-2.068 15.914 15.914 0 0 1 -7.852 2.068z" fill="#d1b320"/><g fill="#d1e3ee"><path d="m192 32h16v16h-16z"/><path d="m224 32h16v16h-16z"/><path d="m208 16h16v16h-16z"/><path d="m208 48h16v16h-16z"/><path d="m208 120h16v16h-16z"/><path d="m384 32h16v16h-16z"/><path d="m120 40h16v16h-16z"/></g></svg>