<svg height="512" viewBox="0 0 58 58" width="512" xmlns="http://www.w3.org/2000/svg"><g id="004---Social-Ad-Reach" fill="none"><circle id="Oval" cx="50" cy="8" fill="#25a3da" r="8"/><circle id="Oval" cx="50" cy="29" fill="#25a3da" r="8"/><circle id="Oval" cx="50" cy="50" fill="#25a3da" r="8"/><path id="Path" d="m14 36h-7c-3.86599325 0-7-3.1340068-7-7 0-3.8659932 3.13400675-7 7-7h7z" fill="#ffa84a"/><path id="Path" d="m7 36v7c0 1.6568542 1.34314575 3 3 3 1.6568542 0 3-1.3431458 3-3v-7z" fill="#d6dbe3"/><path id="Path" d="m13 22 12-5h2v24h-2l-12-5z" fill="#d6dbe3"/><rect id="Rectangle" fill="#ffa84a" height="34" rx="3" width="6" x="25" y="12"/><g fill="#f0f2f5"><circle id="Oval" cx="50" cy="6" r="2"/><circle id="Oval" cx="50" cy="27" r="2"/><circle id="Oval" cx="50" cy="48" r="2"/><path id="Path" d="m53.87 15h-.01c-2.4006317 1.333295-5.3193683 1.333295-7.72 0h-.01c.4601182-1.7604403 2.0504234-2.9885159 3.87-2.9885159s3.4098818 1.2280756 3.87 2.9885159z"/><path id="Path" d="m53.87 36h-.01c-2.4006317 1.333295-5.3193683 1.333295-7.72 0h-.01c.4601182-1.7604403 2.0504234-2.9885159 3.87-2.9885159s3.4098818 1.2280756 3.87 2.9885159z"/><path id="Path" d="m53.87 57h-.01c-2.4006317 1.333295-5.3193683 1.333295-7.72 0h-.01c.4601182-1.7604403 2.0504234-2.9885159 3.87-2.9885159s3.4098818 1.2280756 3.87 2.9885159z"/></g><path id="Path" d="m37 10v18h5.06c-.0800032.6642665-.0800032 1.3357335 0 2h-5.06v18c0 .5522847.4477153 1 1 1h4.06c-.0800032.6642665-.0800032 1.3357335 0 2h-4.06c-1.6548028-.0049422-2.9950578-1.3451972-3-3v-18h-4v-2h4v-18c.0049422-1.6548028 1.3451972-2.9950578 3-3h4.06c-.0800032.66426647-.0800032 1.33573353 0 2h-4.06c-.2652165 0-.5195704.10535684-.7071068.29289322s-.2928932.44189029-.2928932.70710678z" fill="#197791"/></g></svg>