<svg viewBox="0 0 512.001 512.001" xmlns="http://www.w3.org/2000/svg"><g><path d="M167.343 104.446c-26.724-26.724-16.755-51.096-36.706-76.818-2.745-3.539-.948-8.744 3.393-9.848 47.06-11.975 79.738-1.069 100.393 19.586 19.553 19.553 20.388 50.421 1.864 68.945-18.523 18.524-49.391 17.689-68.944-1.865z" fill="#80d3ae"></path><path d="M167.343 104.446c-26.724-26.724-16.755-51.096-36.706-76.818-2.745-3.539-.948-8.744 3.393-9.848 47.06-11.975 79.738-1.069 100.393 19.586 19.553 19.553 20.388 50.421 1.864 68.945-18.523 18.524-49.391 17.689-68.944-1.865z" fill="#80d3ae"></path><path d="M219.998 93.125a7.49 7.49 0 0 1-6.082-3.104c-14.74-20.367-40.873-40.628-48.867-43.426a7.5 7.5 0 1 1 4.955-14.158c12.51 4.377 40.838 27.751 56.064 48.79a7.5 7.5 0 0 1-6.07 11.898z" fill="#60c28e"></path><path d="M256 141.813c-12.415 0-22.478-10.064-22.478-22.478 0-27.465 20.373-91.473 59.318-115.897 10.518-6.597 24.391-3.416 30.986 7.101 6.596 10.517 3.417 24.391-7.101 30.986-20.929 13.125-38.246 59.621-38.246 77.809-.001 12.415-10.064 22.479-22.479 22.479z" fill="#a67e74"></path><path d="M278.478 119.335c0-8.89 4.144-24.543 10.818-39.756-5.508.758-10.57 1.893-15.419 3.412a59.642 59.642 0 0 1-33.932.534c-4.253 14.055-6.425 26.872-6.425 35.81 0 12.414 10.063 22.478 22.479 22.478 12.416 0 22.479-10.064 22.479-22.478z" fill="#946450"></path><path d="M369.629 152.233H142.371l31.045 85.963a229.572 229.572 0 0 1 6.008 136.718L157.17 459h197.66l-22.255-84.087a229.564 229.564 0 0 1 6.009-136.718l31.045-85.962z" fill="#f5e6ab"></path><path d="m142.371 152.233 31.045 85.963a229.572 229.572 0 0 1 6.008 136.718L157.17 459h122.825c-87.682-43.358-74.063-179.993-65.596-248.81 1.335-10.848 12.056-17.895 22.566-14.896 4.355 1.243 8.446 2.771 12.164 4.608 4.355 2.15 9.464 2.104 13.822-.04 24.263-11.934 64.278-10.825 90.435-2.652l16.244-44.978-227.259.001z" fill="#f2c55a"></path><path d="M281.877 329.775c-8.358 0-14.865-7.255-13.96-15.564l2.444-22.423a11.584 11.584 0 0 1 11.516-10.329 11.584 11.584 0 0 1 11.516 10.329l2.444 22.423c.906 8.308-5.602 15.564-13.96 15.564zM230.123 329.775c-8.358 0-14.865-7.255-13.96-15.564l2.444-22.423a11.584 11.584 0 0 1 23.032 0l2.444 22.423c.905 8.308-5.603 15.564-13.96 15.564z" fill="#a67e74"></path><path d="M238.122 104.853a59.657 59.657 0 0 0 35.757 0c14.852-4.654 31.616-5.766 57.52-3.16 29.927 3.011 66.776 19.373 97.782 38.439 7.6 4.673 4.722 16.318-4.176 16.969-18.563 1.357-39.082 5.616-51.938 12.001-6.435 3.196-13.896 3.719-20.778 1.651-24.744-7.436-61.18-8.66-85.301 1.18a29.004 29.004 0 0 1-21.974 0c-24.121-9.84-60.557-8.617-85.301-1.18-6.881 2.068-14.342 1.545-20.778-1.651-12.856-6.385-33.375-10.644-51.938-12.001-8.898-.65-11.776-12.295-4.176-16.969 31.006-19.066 67.855-35.428 97.782-38.439 25.903-2.607 42.667-1.494 57.519 3.16z" fill="#ea7786"></path><path d="M274.718 169.272c-24.743-11.882-35.959-41.278-24.229-61.944a59.887 59.887 0 0 1-12.368-2.476c-14.852-4.654-31.616-5.766-57.52-3.16-29.927 3.011-66.776 19.373-97.782 38.439-7.6 4.673-4.722 16.318 4.176 16.969 18.563 1.357 39.082 5.616 51.938 12.001 6.435 3.196 13.896 3.719 20.778 1.651 24.744-7.437 61.18-8.66 85.301 1.18a29.004 29.004 0 0 0 21.974 0 78.138 78.138 0 0 1 7.732-2.66z" fill="#e35968"></path><path d="M246.075 508.746a26.896 26.896 0 0 1 19.85 0c11.918 4.742 24.893 3.669 46.133.795 22.907-3.1 51.268-20.35 74.728-40.133 5.839-4.924 2.844-14.519-4.759-15.239-13.051-1.236-27.466-5.084-37.161-10.882-6.056-3.622-13.409-4.11-20.06-1.752-16.975 6.019-40.048 7-56.909-.401a29.474 29.474 0 0 0-23.795 0c-16.861 7.401-39.934 6.42-56.909.401-6.65-2.358-14.004-1.87-20.06 1.752-9.695 5.799-24.11 9.646-37.161 10.882-7.604.72-10.598 10.315-4.76 15.239 23.46 19.783 51.822 37.033 74.728 40.133 21.242 2.873 34.217 3.947 46.135-.795z" fill="#ea7786"></path><path d="M268.61 441.417c-.235-.099-.48-.182-.712-.284a29.474 29.474 0 0 0-23.795 0c-16.861 7.401-39.934 6.42-56.908.401-6.65-2.358-14.004-1.87-20.06 1.752-9.695 5.799-24.11 9.647-37.161 10.883-7.604.72-10.598 10.315-4.759 15.239 23.46 19.783 51.821 37.034 74.728 40.133 21.24 2.874 34.215 3.947 46.133-.795a26.896 26.896 0 0 1 19.85 0c11.918 4.742 24.893 3.669 46.133.795 8.589-1.162 17.944-4.314 27.521-8.843-49.591-5.816-71.421-38.6-70.97-59.281z" fill="#e35968"></path></g></svg>