<svg viewBox="0 0 511.957 511.957" xmlns="http://www.w3.org/2000/svg"><g><path d="M89.807 416.7c127.009 11.705 254.019 11.705 381.028 0 12.677-1.168 22.799-11.14 24.128-23.801 12.342-117.583 12.342-235.166 0-352.75-1.329-12.661-11.451-22.633-24.128-23.801-127.009-11.705-254.019-11.705-381.029 0C77.13 17.517 67.007 27.489 65.678 40.15c-12.342 117.583-12.342 235.166 0 352.75 1.329 12.66 11.452 22.632 24.129 23.8z" fill="#9dc6fb"></path><path d="M91.415 401.127a27.748 27.748 0 0 0 7.632 16.4c-3.075-.264-6.16-.538-9.235-.822-12.676-1.167-22.804-11.143-24.133-23.799-12.341-117.582-12.341-235.175 0-352.757 1.329-12.655 11.458-22.631 24.133-23.799 3.075-.284 6.16-.558 9.235-.822a27.778 27.778 0 0 0-7.632 16.4c-12.919 123.064-12.919 246.137 0 369.199z" fill="#80b4fb"></path><path d="M280.321 433.049a2084.77 2084.77 0 0 1-191.213-8.77c-16.26-1.498-29.297-14.362-31-30.586-12.339-117.561-12.339-236.778 0-354.339 1.702-16.224 14.74-29.087 31-30.586 126.879-11.693 255.546-11.693 382.426 0 16.259 1.498 29.296 14.361 30.999 30.586 12.34 117.561 12.34 236.778 0 354.339-1.703 16.224-14.74 29.087-30.999 30.586a2084.786 2084.786 0 0 1-191.213 8.77zm0-417.826c-63.42 0-126.84 2.902-189.816 8.705-9.053.834-16.31 7.991-17.257 17.016-12.229 116.507-12.229 234.654 0 351.161.947 9.026 8.205 16.182 17.257 17.016 125.951 11.607 253.678 11.607 379.631 0 9.052-.834 16.309-7.991 17.257-17.016 12.229-116.506 12.229-234.654 0-351.16-.947-9.026-8.205-16.182-17.257-17.016-62.975-5.805-126.396-8.706-189.815-8.706z" fill="#365e7d"></path><circle cx="392.468" cy="221.251" fill="#f1f4f6" r="84.909"></circle><path d="M290.363 468.945s29.15-102.615 65.28-206.808c2.61-7.527 13.9-4.274 12.105 3.488-24.851 107.442-54.772 209.835-54.772 209.835l-12.965 5.353z" fill="#e7a561"></path><path d="M363.343 258.147c-.556-.16-1.653 1.594-2.793 5.405-31.563 105.509-61.02 208.034-61.02 208.034l-6.645 2.789-2.522-5.431s29.145-102.615 65.272-206.808c1.306-3.763 4.782-4.832 7.708-3.989z" fill="#e49542"></path><path d="m322.277 495.748-4.668 16.207h-54.782l8.87-30.781c2.588-8.982 11.955-14.157 20.937-11.58l18.075 5.216c8.97 2.579 14.156 11.956 11.568 20.938z" fill="#ffddce"></path><path d="M304.598 473.045c-7.743-.477-15.05 4.445-17.283 12.209l-7.693 26.701h-16.796l8.87-30.781c2.588-8.982 11.955-14.157 20.937-11.58z" fill="#ffcbbe"></path><path d="M263.043 511.957h-92.215l-19.712-18.177-19.712 18.177h-92.22c2.375-25.402 5.592-48.287 7.561-61.267 1.126-7.368 5.46-13.883 11.854-17.72 12.178-7.297 25.037-13.082 37.164-17.618 22.408-8.413 42.33-12.564 50.896-14.107a24.8 24.8 0 0 1 8.911 0c8.565 1.543 28.487 5.693 50.895 14.107 12.128 4.536 24.986 10.321 37.165 17.618 6.394 3.836 10.727 10.352 11.854 17.72 1.967 12.979 5.184 35.865 7.559 61.267z" fill="#f9f6f6"></path><path d="m123.584 459.978 16.162 19.135 11.371 14.666 11.37-14.666 16.162-19.135v-40.307h-63.793" fill="#cb5769"></path><path d="M78.581 422.486c-4.942 4.151-8.302 11.123-9.174 18.998-1.624 14.746-4.333 41.335-6.211 70.472H39.184c2.375-25.402 5.592-48.287 7.561-61.267 1.126-7.368 5.46-13.883 11.854-17.72 6.535-3.917 13.274-7.398 19.982-10.483zM206.467 415.353l-19.09 53.017-36.261-34.861-36.261 34.861-19.09-53.017c22.408-8.413 42.33-12.564 50.896-14.107a24.795 24.795 0 0 1 8.91 0c8.566 1.543 28.488 5.694 50.896 14.107z" fill="#e7ecf6"></path><path d="M178.646 360.005v45.975c0 15.201-12.326 27.527-27.527 27.527-15.209 0-27.535-12.326-27.535-27.527v-45.975z" fill="#ffddce"></path><path d="M160.109 432.006a27.58 27.58 0 0 1-8.988 1.499c-15.209 0-27.535-12.326-27.535-27.527v-45.975h17.976v45.975c-.001 12.062 7.753 22.309 18.547 26.028zM36.109 321.723c-19.849 0-35.94-16.091-35.94-35.94 0-2.732.305-5.392.882-7.95 4.662-20.649 35.058-17.262 35.058 3.906h230.016c0-21.169 30.395-24.555 35.058-3.906.577 2.557.882 5.218.882 7.95 0 19.849-16.091 35.94-35.94 35.94" fill="#ffcbbe"></path><path d="M36.115 302.706a7.603 7.603 0 0 1-6.22-3.216c-.162-.22-4.968-6.689-9.609-4.815a7.613 7.613 0 0 1-5.695-14.118c6.728-2.715 14.025-1.643 20.545 3.018 4.297 3.072 6.929 6.753 7.215 7.163a7.612 7.612 0 0 1-6.236 11.968zM266.118 302.736a7.607 7.607 0 0 1-4.365-1.378c-3.447-2.406-4.276-7.173-1.869-10.62.286-.41 2.917-4.091 7.215-7.163 6.52-4.66 13.816-5.732 20.545-3.018 3.898 1.573 5.783 6.008 4.211 9.907s-6.007 5.783-9.906 4.211c-4.697-1.896-9.564 4.753-9.613 4.821a7.566 7.566 0 0 1-6.218 3.24z" fill="#eaac9d"></path><path d="M123.584 360.005h55.062v42.355h-55.062z" fill="#ffcbbe"></path><path d="M182.301 387.787h-62.368c-46.295 0-83.824-37.529-83.824-83.824V185.741h230.016v118.221c0 46.295-37.53 83.825-83.824 83.825z" fill="#ffddce"></path><path d="M174.995 387.786h-55.062c-46.29 0-83.824-37.534-83.824-83.824V185.737h55.062v118.226c0 46.29 37.526 83.823 83.824 83.823z" fill="#ffcbbe"></path><g fill="#2b4d66"><ellipse cx="107.21" cy="265.636" fill="#2b4d66" rx="10.873" ry="18.036"></ellipse><ellipse cx="215.066" cy="265.636" fill="#2b4d66" rx="10.873" ry="18.036"></ellipse></g><g fill="#eaa598"><ellipse cx="237.134" cy="301.799" fill="#eaa598" rx="18.826" ry="11.447"></ellipse><ellipse cx="85.397" cy="301.799" fill="#eaa598" rx="18.826" ry="11.447"></ellipse></g><path d="M93.468 103.679H57.876c-22.113 0-40.039 17.926-40.039 40.039v54.222c0 11.024 8.937 19.961 19.961 19.961h25.023c32.961 0 59.681-26.72 59.681-59.681v-25.507c0-16.035-12.999-29.034-29.034-29.034z" fill="#aa7a63"></path><path d="M93.253 103.674c-22.109 0-40.036 17.926-40.036 40.044v74.181H37.799c-11.024 0-19.961-8.937-19.961-19.961v-54.22c0-22.118 17.926-40.044 40.036-40.044z" fill="#986b54"></path><path d="M212.964 208.151h-55.426c-30.009 0-54.335-24.327-54.335-54.335v-34.255c0-30.009 24.327-54.335 54.335-54.335h162.2v36.151c.001 58.969-47.804 106.774-106.774 106.774z" fill="#aa7a63"></path><path d="M205.45 208.148h-47.913c-30.012 0-54.333-24.321-54.333-54.333v-34.253c0-30.012 24.321-54.333 54.333-54.333h47.913c-30.012 0-54.333 24.321-54.333 54.333v34.253c0 30.012 24.321 54.333 54.333 54.333z" fill="#986b54"></path><g fill="#dd636e"><path d="M170.822 511.957h-39.417c1.482-11.072 4.019-23.322 8.342-32.841h22.743c4.324 9.519 6.851 21.769 8.332 32.841zM161.265 341.221c-7.535 0-15.069-2.868-20.805-8.604a7.61 7.61 0 0 1 0-10.764 7.61 7.61 0 0 1 10.764 0c5.536 5.536 14.545 5.536 20.081 0a7.61 7.61 0 0 1 10.764 0 7.61 7.61 0 0 1 0 10.764c-5.735 5.736-13.269 8.604-20.804 8.604z" fill="#dd636e"></path></g><path d="M477.379 221.247h-84.914v-84.914c46.897 0 84.914 38.017 84.914 84.914z" fill="#dd636e"></path><path d="M456.941 72.839h-79.186a7.612 7.612 0 1 1 0-15.222h79.186a7.612 7.612 0 1 1 0 15.222zM456.941 98.608h-45.387a7.61 7.61 0 1 1 0-15.222h45.387a7.612 7.612 0 1 1 0 15.222z" fill="#365e7d"></path><path d="M451.867 390.831a7.612 7.612 0 0 1-7.612-7.612v-60.336a7.611 7.611 0 1 1 15.223 0v60.336a7.61 7.61 0 0 1-7.611 7.612z" fill="#f1f4f6"></path><path d="M421.892 390.831a7.612 7.612 0 0 1-7.612-7.612v-30.168c0-4.204 3.407-7.611 7.612-7.611s7.611 3.408 7.611 7.611v30.168a7.61 7.61 0 0 1-7.611 7.612z" fill="#dd636e"></path><path d="M391.916 390.831a7.612 7.612 0 0 1-7.612-7.612v-15.084c0-4.204 3.407-7.611 7.612-7.611s7.611 3.408 7.611 7.611v15.084a7.61 7.61 0 0 1-7.611 7.612z" fill="#f1e64d"></path></g></svg>