<svg viewBox="0 0 511.999 511" xmlns="http://www.w3.org/2000/svg"><g><path d="m150.004 332.496-30 30-57.3 30-2.7-1.2-60-28.8v-45c0-8.398 6.598-15 15-15h105Zm0 0" fill="#ffe470"></path><path d="m62.703 392.496-2.7-1.2v-88.8h60l30 30-30 30Zm0 0" fill="#ffd400"></path><path d="m150.004 392.496-30 30-57.3 30-2.7-1.2-60-28.8v-60h120Zm0 0" fill="#fdbf00"></path><path d="m150.004 392.496-30 30-57.3 30-2.7-1.2v-88.8h60Zm0 0" fill="#ff9f00"></path><path d="m150.004 474.996-30 22.5h-120v-75h120Zm0 0" fill="#ffe470"></path><path d="m120.004 422.496 30 52.5-30 22.5h-60v-75Zm0 0" fill="#ffd400"></path><path d="M195 512.496c-8.29 0-15-6.71-15-15V166.5c0-8.293 6.71-15 15-15 8.293 0 15 6.707 15 15v330.996c0 8.29-6.707 15-15 15Zm0 0" fill="#53433f"></path><path d="M135.004 512.496c-8.293 0-15-6.71-15-15V166.5c0-8.293 6.707-15 15-15 8.289 0 15 6.707 15 15v330.996c0 8.29-6.711 15-15 15Zm0 0" fill="#68544f"></path><path d="M205.5 396.996c6 5.703 6 15.3 0 21l-40.496 40.5-19.5 19.5c-2.7 3-6.602 4.5-10.5 4.5-3.902 0-7.8-1.5-10.5-4.5-6-5.7-6-15.297 0-21l40.5-40.8 8.7-8.7-8.7-8.7-40.5-40.8c-6-5.7-6-15.297 0-20.996l40.5-40.8 8.7-8.7-8.7-8.7-40.5-40.8c-6-5.7-6-16.297 0-22 5.7-6 15.297-6 21 0l19.5 20.5 40.5 40.5c6 5.7 6 15.297 0 21l-40.5 40.8-8.7 8.7 8.7 8.7Zm0 0" fill="#68544f"></path><path d="m205.5 417.996-40.496 40.5v-42.3l8.7-8.7-8.7-8.7v-42.6l40.496 40.8c6 5.703 6 15.3 0 21ZM205.5 297.996l-40.496 40.8v-42.6l8.7-8.7-8.7-8.7v-42.3L205.5 277c6 5.7 6 15.297 0 20.996Zm0 0" fill="#53433f"></path><path d="m39.277 121.5 15-30h35.727l30-15-30-15h-45a15.008 15.008 0 0 0-13.418 8.29l-30 60a14.97 14.97 0 0 0 .66 14.589 15.001 15.001 0 0 0 12.758 7.121h105v-30ZM210 15.5v61c0 8.398-6.598 15-15 15-8.398 0-15-6.602-15-15v-46h-29.996v46c0 8.398-6.602 15-15 15-8.402 0-15-6.602-15-15v-61c0-8.402 6.598-15 15-15H195c8.402 0 15 6.598 15 15Zm0 0" fill="#68544f"></path><path d="M210 15.5v61c0 8.398-6.598 15-15 15-8.398 0-15-6.602-15-15v-46h-15V.5h30c8.402 0 15 6.598 15 15Zm0 0" fill="#53433f"></path><path d="M482 392.496v90c0 8.402-6.598 15-15 15h-45l-15-15-15 15h-45c-8.402 0-15-6.598-15-15v-90l75-60Zm0 0" fill="#fed2a4"></path><path d="M482 392.496v90c0 8.402-6.598 15-15 15h-45l-15-15v-150Zm0 0" fill="#ffbd86"></path><path d="M507.5 417.996c-5.7 6-15.297 6-21 0l-79.5-79.2-79.5 79.2c-5.7 6-15.297 6-21 0-6-5.7-6-15.297 0-21l90-90c2.7-3 6.598-4.5 10.5-4.5 3.898 0 7.8 1.5 10.496 4.5l90 90c6.004 5.703 6.004 15.3.004 21Zm0 0" fill="#ff7816"></path><path d="M422 377.496c0 8.402-6.598 15-15 15-8.402 0-15-6.598-15-15 0-8.402 6.598-15 15-15 8.402 0 15 6.598 15 15Zm0 0" fill="#ff7816"></path><path d="M422 377.496c0 8.402-6.598 15-15 15v-30c8.402 0 15 6.598 15 15ZM507.5 417.996c-5.7 6-15.297 6-21 0l-79.5-79.2v-36.3c3.898 0 7.8 1.5 10.5 4.5l90 90c6 5.703 6 15.3 0 21Zm0 0" fill="#ff4b00"></path><path d="M422 437.496v60h-30v-60c0-8.402 6.598-15 15-15 8.402 0 15 6.598 15 15Zm0 0" fill="#99503d"></path><path d="M422 437.496v60h-15v-75c8.402 0 15 6.598 15 15Zm0 0" fill="#804231"></path><path d="M437 211.496c-8.293 0-15-6.707-15-15V136.5c0-8.293 6.707-15 15-15 8.29 0 15 6.707 15 15v59.996c0 8.293-6.71 15-15 15Zm0 0" fill="#53433f"></path><path d="M497 272.496H377c-8.29 0-15-6.707-15-15v-61c0-8.289 6.71-14.996 15-14.996h120c8.29 0 15 6.707 15 14.996v61c0 8.293-6.71 15-15 15Zm0 0" fill="#ff9f00"></path><path d="M407 151.5c-3.84 0-7.676-1.465-10.605-4.398L347 97.707l-49.395 49.395c-5.859 5.859-15.351 5.859-21.21 0-5.86-5.856-5.86-15.352 0-21.207l60-60c5.859-5.86 15.351-5.86 21.21 0L407 115.289l49.395-49.394c5.859-5.86 15.351-5.86 21.21 0 5.86 5.859 5.86 15.351 0 21.21l-60 59.997A14.936 14.936 0 0 1 407 151.5Zm0 0" fill="#53433f"></path><path d="M497 61.5H240l-30 20.625 30 9.375h242v30H210v30h287c8.29 0 15-6.71 15-15v-60c0-8.293-6.71-15-15-15Zm0 0" fill="#53433f"></path><path d="M512 497.496c0 8.402-6.602 15-15 15H15.004c-8.402 0-15-6.598-15-15 0-8.402 6.598-15 15-15H497c8.398 0 15 6.598 15 15Zm0 0" fill="#c6715a"></path><path d="M512 497.496c0 8.402-6.602 15-15 15H165v-30h332c8.398 0 15 6.598 15 15Zm0 0" fill="#b35f49"></path><path d="M90.004 61.5v105c0 8.398 6.598 15 15 15H225c8.402 0 15-6.602 15-15v-105Zm0 0" fill="#fdbf00"></path><path d="M225 181.5h-60v-120h75v105c0 8.398-6.598 15-15 15Zm0 0" fill="#ff9f00"></path></g></svg>