<svg id="svg8" height="512" viewBox="0 0 16.933333 16.933334" width="512" xmlns="http://www.w3.org/2000/svg" xmlns:svg="http://www.w3.org/2000/svg"><g id="layer1-0" transform="translate(2.382 -1.059)"><path id="path9126" d="m12.170121 2.6464858h-1.587486v1.0583375h1.587486v.7937481l1.322931-1.3229168-1.322931-1.3229168z" fill="#a0bf05"/><path id="path9134" d="m12.956876 10.876292c-.49934 1.230237.55736.968727-.37667 1.915004-.934031.946275-.689551-.110459-1.916081.407795-1.2265304.518253-.29366 1.077509-1.6259605 1.088839-1.3323004.01133-.4091601-.563711-1.6443902-1.061029-1.2352403-.497316-.9726703.555105-1.9227905-.375147-.9501203-.930253.1109-.686753-.4094502-1.908319-.5203701-1.2215649-1.0819003-.292476-1.0932803-1.6823818.0114-1.3899037.5729102-.4608159 1.0932803-1.682381.5203502-1.2215651-.5406701-.9780657.4094502-1.9083185.9501202-.9302528.6875502.1221687 1.9227905-.3751501 1.2352301-.4973158.3120898-1.0723564 1.6443902-1.0610285 1.3323005.01133.3994301.5705887 1.6259605 1.0888415 1.22653.5182537.98205-.5384808 1.916081.407796.93403.9462757-.12267.6847654.37667 1.9150034.49934 1.2302381 1.07675.3108343 1.06535 1.6152372.0114 1.3044048-.56601.3850011-1.06535 1.6152388z" fill="#a0bf05"/><path id="path9606" d="m5.2108756 11.541511c.011385.57061-.4905519.575203.2599326 1.309994.95012.930253.6876401-.122145 1.9228805.37517 1.2352299.497318.3120441 1.072762 1.6443444 1.061432.1055267-.0009.1925146-.0065.2718182-.01395-.03325-.03533-.068939-.06897-.109554-.0987l-2.7378183-2.004012c-.4416194-.323302-.8250018-.515335-1.2516034-.629934z" fill="#809804"/><path id="path9592" d="m6.089368 5.2711077c-.1427768.0112635-.3216546.1087537-.6185668.3994579-.9501204.9302527.1110726.6863241-.4092778 1.9078892-.4920013 1.1549699-1.019895.390313-1.085722 1.4779423.0746411-.123495.2026773-.2581777.5162478-.3906728.9683102-.409144.7751794.425117 1.5125696-.3219434.7374-.7470623-.0970806-.5408081.2971394-1.5120488.3942102-.9712416.8502928-.2450611.8412927-1.2748545.0006308-.0721789-.0060632-.1180311-.0098184-.1741491-.6201404.1685968-.7654587-.1335844-1.0438645-.1116208z" fill="#809804"/><path id="circle9136" d="m11.112021 9.2610559c0 1.1690011-.947665 2.1166641-2.1166692 2.1166641-1.1690044 0-2.1166696-.947663-2.1166694-2.1166641.0000001-1.169001.9476652-2.1166636 2.1166694-2.1166636 1.1690042.0000001 2.1166692.9476626 2.1166692 2.1166636z" fill="#e4eff8"/><path id="path9138" d="m8.9953345 7.1443922c-1.1690043-.0000006-2.1166699.9476618-2.1166703 2.116663.0007583.6784309.3266732 1.3153858.8764499 1.7128988-.2630625-.360959-.4051995-.795883-.4060698-1.2425289-.0000002-1.1690016.9476657-2.1166646 2.1166704-2.116664.4458129.0007225.8800153.1421886 1.2406903.404225-.397533-.5485519-1.0336178-.8736794-1.7110705-.8745939z" fill="#c4dcf0"/><path id="path9154" d="m9.0382245 4.2339841c-.17682-.0016-.3119201.0082-.4196001.02585.7690302.1148027.1668701.6044255 1.2521104 1.0629795.5421102.2290574.7929302.1502226.9890902.07286-.0612-.02003-.12554-.04315-.19587-.07286-1.2265304-.5182518-.29342-1.0774895-1.6257305-1.0888185zm2.9305805 1.0872715c-.16841-.01617-.28946.08779-.49559.1328066.0884.06335.19028.1519637.31369.2769844.934031.9462767-.12314.6843694.37621 1.9146074.499321 1.2302381 1.076961.3109983 1.065551 1.6154012.0114 1.3044068-.56623.3851641-1.065551 1.6154018-.49935 1.230235.557821.968331-.37621 1.914608-.12341.12502-.22532.213637-.31369.276984.38065.08312.47027.368018 1.106911-.276984.93403-.946277-.12261-.684373.37674-1.914608.49932-1.2302377 1.07696-.310995 1.06555-1.6154018.0114-1.3044029-.56623-.3851631-1.06555-1.6154012-.49935-1.230238.55729-.9683307-.37674-1.9146074-.29189-.2957113-.468771-.3961021-.611321-.409791zm-1.54617 7.7287064c-.14402.01003-.32192.05217-.5519002.149346-1.0852403.458554-.4830802.948178-1.2521104 1.06298.10768.01759.2427801.02734.4196001.02585 1.3323105-.01132.3992001-.570566 1.6257305-1.088818.0703-.02972.1347-.05283.19587-.07286-.11295-.04454-.24175-.09008-.43719-.07648z" fill="#809804"/><path id="path9172" d="m5.7725938 6.8319167c-.3942201.9712406.4400202.7647841-.29738 1.5118464-.7373903.7470602-.5443802-.0871998-1.5126905.3219442-.9683103.409147-.2318401.850666-1.2836604.85961-1.0518103.0089999-.3230201-.445036-1.2982004-.8376541-.97519026-.392618-.7679002.43824-1.51799043-.2961703-.75010022-.7344122.08760003-.5421727-.32325009-1.5065684-.41082013-.9643937-.85413028-.2309014-.86312028-1.3281968.009-1.0972934.45230015-.3638011.86312028-1.3281968.41080012-.9643927-.42685013-.7721572.32325009-1.5065685.75009023-.7344103.54280017.0964398 1.51799043-.2961713.9751803-.3926171.2463901-.846599 1.2982004-.837654 1.0518203.009.3153501.4504649 1.2836604.859611.9683103.409149.7753002-.425116 1.5126905.3219462.7374002.7470593-.0968.5406037.29738 1.5118444.3942102.9712417.8500603.2453954.8410603 1.275189.009 1.0297935-.4468501.3039473-.8410603 1.275189z" fill="#ff5151"/><path id="ellipse9174" d="m-.79382718 5.5567832c0 1.0227223-.82908252 1.8518026-1.85180772 1.8518026s-1.8518077-.8290803-1.8518077-1.8518026.8290825-1.8518026 1.8518077-1.8518026 1.85180772.8290803 1.85180772 1.8518026z" fill="#e4eff8" transform="scale(-1 1)"/><path id="path9177" d="m2.6453429 3.7046481c-1.022692.0002249-1.85157846.8294356-1.85140055 1.8521246.00077392.6767769.37068735 1.2992273.96477025 1.6234111-.1467822-.270907-.2236472-.5741579-.22363-.8822739-.0001768-1.0226882.8287093-1.8518977 1.8514005-1.8521226.3102698.0006965.6153913.0793414.8873403.2287115-.323708-.5976399-.9488024-.9699183-1.6284805-.9698507z" fill="#c4dcf0"/><g fill="#ff2929"><path id="path9238" d="m2.6787329 1.5879901c-.18818-.0016-.3177201.01217-.4118601.03721.4737501.1145567.0909.4796589.9027903.8226871.5076401.2145005.6959402.08937.8666102.02739-.0248-.0094-.0474-.01617-.0739-.02739-.9683103-.4091482-.2318201-.8508921-1.2836404-.8598921z"/><path id="path9243" d="m4.9928036 2.4463331c-.16838-.01617-.2783401.1188087-.5395001.1193717.0655.04905.14003.1140677.22893.2041225.7373902.7470573-.097.5402917.2971301 1.5115334.3942101.9712407.8503003.2455764.8413003 1.27537.009 1.0297935-.4470902.3041303-.8413003 1.275371-.3942201.9712406.4402601.7644691-.2971301 1.5115324-.0889.09006-.16342.1550766-.22893.2041225.4357201.0011.4469801.3786021 1.0221603-.2041225.7374002-.7470633-.0971001-.5402918.29714-1.5115324.3942102-.9712407.8502903-.2455775.8412903-1.275371.009-1.0297936-.4470801-.3041293-.8412903-1.27537-.3941801-.9712417.4402602-.7644751-.29714-1.5115334-.2304401-.2334564-.3701102-.3126862-.4826602-.3234942z"/><path id="path9246" d="m3.7107132 8.5477556c-.1296-.009-.2989801.01553-.5410501.1178217-.8118403.3430282-.4290402.7081523-.9027903.822688.0941.02503.2236801.03882.4118601.0372 1.0518203-.0089.3153301-.4507449 1.2836404-.8598929.0265-.01122.0491-.01799.0739-.02739-.0893-.03242-.18339-.08056-.3255601-.09043z"/></g><path id="path9354" d="m10.582655 3.7047953h1.58748v1.0583375h-1.58748v.7937481l-1.3229304-1.3229169 1.3229304-1.3229168z" fill="#ff5151"/><path id="path902" d="m11.088029 8.0313609c-.06001.00309-.11718.026507-.162109.066406l-1.666017 1.4277312-.6210942-.6210923c-.2499115-.2649894-.6393386.1264753-.3730471.3749991l.7929693.7929671c.097812.09777.254417.103727.3593751.01367l1.8515639-1.5878853c.193118-.1625824.07057-.477502-.181641-.4667958z" fill="#809804" font-variant-ligatures="normal" font-variant-position="normal" font-variant-caps="normal" font-variant-numeric="normal" font-variant-alternates="normal" font-feature-settings="normal" text-indent="0" text-align="start" text-decoration-line="none" text-decoration-style="solid" text-decoration-color="#000000" text-transform="none" text-orientation="mixed" white-space="normal" shape-padding="0" isolation="auto" mix-blend-mode="normal" solid-color="#000000" solid-opacity="1" vector-effect="none"/><path id="path906" d="m49.892578 26.951172-5.892578 5.048828-2.347656-2.347656c-.944547-1.001537-2.416612.478664-1.410156 1.417968l2.998046 2.996094c.369683.369526.96073.393108 1.357422.052735l6.109375-5.240235c-.187973-.684056-.462485-1.33009-.814453-1.927734z" fill="#c4dcf0" transform="matrix(.265 0 0 .265 -2.382 1.059)"/><path id="path9365" d="m10.836809 7.9359084c-.06001.00309-.11718.026507-.162109.066406l-1.6660165 1.4277312-.6210942-.6210923c-.2499115-.2649894-.6393386.1264753-.3730471.3749991l.7929693.7929669c.097812.097771.254417.1037277.3593751.013672l1.8515634-1.5878871c.193118-.1625824.07057-.477502-.181641-.4667958z" fill="#ff5151" font-variant-ligatures="normal" font-variant-position="normal" font-variant-caps="normal" font-variant-numeric="normal" font-variant-alternates="normal" font-feature-settings="normal" text-indent="0" text-align="start" text-decoration-line="none" text-decoration-style="solid" text-decoration-color="#000000" text-transform="none" text-orientation="mixed" white-space="normal" shape-padding="0" isolation="auto" mix-blend-mode="normal" solid-color="#000000" solid-opacity="1" vector-effect="none"/><path id="path9371" d="m2.1141502 4.7601348c-.2389683-.0016877-.3575685.2891941-.1855469.455077l1.058594 1.0585913c.2499999.2500954.625-.1249037.3750001-.3749991l-1.058594-1.0585913c-.0497686-.0511484-.1180874-.0800253-.1894532-.0800779z" fill="#a0bf05" font-variant-ligatures="normal" font-variant-position="normal" font-variant-caps="normal" font-variant-numeric="normal" font-variant-alternates="normal" font-feature-settings="normal" text-indent="0" text-align="start" text-decoration-line="none" text-decoration-style="solid" text-decoration-color="#000000" text-transform="none" text-orientation="mixed" white-space="normal" shape-padding="0" isolation="auto" mix-blend-mode="normal" solid-color="#000000" solid-opacity="1" vector-effect="none"/><path id="path9374" d="m3.168838 4.7601348c-.0686445.0021098-.1337797.0308252-.1816407.0800779l-1.058594 1.0585913c-.2500961.2499993.124904.6249984.3750001.3749991l1.058594-1.0585913c.1750892-.1685148.0494812-.464137-.1933594-.455077z" fill="#a0bf05" font-variant-ligatures="normal" font-variant-position="normal" font-variant-caps="normal" font-variant-numeric="normal" font-variant-alternates="normal" font-feature-settings="normal" text-indent="0" text-align="start" text-decoration-line="none" text-decoration-style="solid" text-decoration-color="#000000" text-transform="none" text-orientation="mixed" white-space="normal" shape-padding="0" isolation="auto" mix-blend-mode="normal" solid-color="#000000" solid-opacity="1" vector-effect="none"/><path id="path8815" d="m1.0576396 11.113147v5.027071h.7937503c.1465791 0 .2645833-.118005.2645833-.264584v-4.497905c0-.146579-.1180042-.264582-.2645833-.264582z" fill="#e4eff8"/><path id="rect8940" d="m-1.5881943 10.848563h2.38124218c.14657932 0 .26458362.118004.26458362.264583v5.02707c0 .146579-.1180043.264583-.26458362.264583h-2.38124218c-.1465794 0-.2645837-.118004-.2645837-.264583v-5.02707c0-.146579.1180043-.264583.2645837-.264583z" fill="#38668c"/><path id="path8942" d="m1.0576363 11.113147v5.027071h.5291702v-5.027071z" fill="#c4dcf0"/><path id="path8959" d="m2.1159666 11.642313v3.96874h.5291702c.7937502 0 2.3812507 1.852079 3.175001 1.852079h6.3500012c.439741 0 .793751-.354012.793751-.793748 0-.439737-.35401-.793749-.793751-.793749h-3.2861005l-.0279-.0098c.1997-.03167.3875301-.139321.5167601-.316258.2593401-.355118.1822101-.849737-.17259-1.10949l-2.7378306-2.00401c-1.1988304-.877645-1.9652506-.793748-4.3465014-.793748z" fill="#ffd1b5"/><path id="path8964" d="m2.1159666 11.642313v3.96874h.5291702v-3.96874c-.18465.000529-.3212601 0-.5291702 0z" fill="#ffb98d"/><path id="path8967" d="m5.1831368 17.219793c.2403157.146423.4593589.243339.637001.243339h6.3500012c.439741 0 .793751-.354012.793751-.793748 0-.254568-.119508-.478604-.30524-.622636.305243 1.416383-6.838509 1.173045-7.4755132 1.173045z" fill="#ffb98d"/><path id="path8974" d="m6.326616 14.870195 1.5368572 1.169951c.0014.000712.0027.0014.0041.0021.4697891.343099 1.1353623.239314 1.4784634-.230476.2648721-.362692.2604481-.8407.02997-1.198374.1406281.26059.1310671.587981-.05581.843874-.2408151.329736-.6829182.415542-1.0839143.189133l-1.5892725-1.196337c-.047125-.04083-.1071539-.0637-.1694987-.06459-.2638717-.0041-.3704539.338302-.1508951.484722z" fill="#ffb98d" font-variant-ligatures="normal" font-variant-position="normal" font-variant-caps="normal" font-variant-numeric="normal" font-variant-alternates="normal" font-feature-settings="normal" text-indent="0" text-align="start" text-decoration-line="none" text-decoration-style="solid" text-decoration-color="#000000" text-transform="none" text-orientation="mixed" white-space="normal" shape-padding="0" isolation="auto" mix-blend-mode="normal" solid-color="#000000" solid-opacity="1" vector-effect="none"/><path id="circle8976" d="m-.26527739 15.346471c.00000017.146125-.1184579.264583-.2645834.264583s-.26458358-.118458-.26458341-.264583c-.00000017-.146125.11845791-.264583.26458341-.264583s.26458357.118458.2645834.264583z" fill="#e4eff8"/><path id="path9022" d="m.58221629 10.848563c0 2.645828.21083996 5.027071-2.17041079 5.556237h2.38125075c.14657915 0 .26458335-.118004.26458335-.264582v-5.027071c0-.14658-.1180042-.264584-.26458335-.264584z" fill="#2c5170"/></g></svg>