<svg viewBox="0 0 512 512" xmlns="http://www.w3.org/2000/svg"><g><path d="M232.725 317.355c0 57.749-18.628 111.592-28.148 135.341-3.06 7.624-11.57 12.755-21.163 12.755H80.343c-9.592 0-18.102-5.131-21.163-12.755-9.52-23.749-28.148-77.592-28.148-135.341 0-16.67 3.493-33.021 8.974-48.414.319-.907.649-1.803.989-2.7 9.407-25.15 23.965-47.6 36.988-64.549l.01-.01 40.666-39.708-18.719-37.843v-.01L87.71 41.985C84.392 19.689 105.101 0 131.879 0c24.882 0 44.519 17 44.519 37.287 0 1.545-.113 3.122-.35 4.698l-12.23 82.136v.01l-14.991 37.143 36.936 40.398.01.021a308.285 308.285 0 0 1 12.683 17.762c.093.144.185.278.278.422.062.103.134.196.196.289 6.233 9.499 12.322 19.998 17.567 31.229 9.47 20.224 16.228 42.778 16.228 65.96z" fill="#ffd9a0"></path><path d="M496.484 317.355c0 57.749-18.628 111.592-28.148 135.341-3.06 7.624-11.57 12.755-21.163 12.755H344.101c-9.592 0-18.102-5.131-21.163-12.755-9.52-23.749-28.148-77.592-28.148-135.341 0-36.318 16.578-71.091 34.216-97.807a302.563 302.563 0 0 1 12.776-17.886l.01-.01 36.246-30.981-14.332-46.508-.01-.041-12.23-82.136C348.151 19.689 368.86 0 395.637 0c24.882 0 44.519 17 44.519 37.287 0 1.545-.113 3.122-.35 4.698l-12.23 82.136-.01.021-12.704 46.529 34.659 31.012.01.01c21.401 27.859 46.953 70.565 46.953 115.662z" fill="#ffebce"></path><path d="M395.627 363.904c0 38.039-8.078 74.378-16.32 101.547h-35.206c-9.592 0-18.102-5.131-21.163-12.755-9.52-23.749-28.148-77.592-28.148-135.341 0-36.318 16.578-71.091 34.216-97.807 2.669 6.316 6.367 12.364 11.035 17.938 22.41 26.746 55.586 75.036 55.586 126.418z" fill="#ffd9a0"></path><path d="M232.725 317.355c0 57.749-18.628 111.592-28.148 135.341-3.06 7.624-11.57 12.755-21.163 12.755h-35.206c-8.242-27.169-16.32-63.508-16.32-101.547 0-51.381 33.176-99.672 55.585-126.418 4.667-5.574 8.366-11.622 11.035-17.938.072.113.144.226.227.33.062.103.134.196.196.289 6.233 9.499 12.322 19.998 17.567 31.229 9.469 20.223 16.227 42.777 16.227 65.959z" fill="#fdc072"></path><path d="M364.604 363.904c0 57.749-18.628 111.592-28.148 135.341-3.06 7.624-11.57 12.755-21.163 12.755H212.222c-9.592 0-18.102-5.131-21.163-12.755-9.52-23.748-28.148-77.592-28.148-135.341 0-32.382 13.178-63.539 28.529-88.843l.01-.01 52.772-63.086-12.395-41.274-.01-.021-12.23-82.136c-3.318-22.296 17.392-41.985 44.169-41.985 7.799 0 15.084 1.669 21.41 4.595 13.858 6.388 23.11 18.762 23.11 32.692 0 1.545-.113 3.122-.35 4.698l-12.23 82.136-.01.01-6.831 18.391 5.935 37.719 22.842 21.43.021.021c21.4 27.86 46.951 70.566 46.951 115.663z" fill="#ffebce"></path><path d="M294.791 387.879c0 50.753-24.377 95.818-62.055 124.121h-20.513c-9.592 0-18.102-5.131-21.163-12.755-9.52-23.748-28.148-77.592-28.148-135.341 0-51.381 33.176-99.672 55.585-126.418 12.735-15.207 18.236-33.866 15.486-52.309L219.59 88.534c-3.318-22.296 17.392-41.985 44.169-41.985 7.799 0 15.084 1.669 21.41 4.595-11.138 22.306-56.43 122.544-29.57 228.975 1.082 4.266 3.132 8.222 5.862 11.684 20.863 26.427 33.33 59.789 33.33 96.076z" fill="#ffd9a0"></path><path d="M185.774 201.693H77.984a336.978 336.978 0 0 1 8.634-10.756c7.109-8.479 11.952-18.041 14.373-28.025l5.141-4.121h52.072l4.564 4.121c2.421 9.984 7.264 19.545 14.373 28.025a337.285 337.285 0 0 1 8.633 10.756z" fill="#c7aee4"></path><path d="M162.768 162.916h-61.777a63.114 63.114 0 0 0 1.113-24.284l-2.164-14.507h63.879l-2.164 14.507a62.919 62.919 0 0 0 1.113 24.284z" fill="#fd7a6e"></path><path d="M449.533 201.693H341.742a336.978 336.978 0 0 1 8.634-10.756c7.109-8.479 11.952-18.041 14.373-28.025l3.503-4.121h54.235l4.039 4.121c2.421 9.984 7.264 19.545 14.373 28.025a337.252 337.252 0 0 1 8.634 10.756z" fill="#d6c4ea"></path><path d="M426.526 162.916h-61.777a63.133 63.133 0 0 0 1.113-24.284l-2.164-14.507h63.879l-2.164 14.507a62.919 62.919 0 0 0 1.113 24.284z" fill="#ff938a"></path><path d="M317.654 248.242H209.863a336.978 336.978 0 0 1 8.634-10.756c7.109-8.479 11.952-18.041 14.373-28.024l3.245-4.121h54.555l3.977 4.111v.01c2.421 9.984 7.264 19.545 14.373 28.024a337.252 337.252 0 0 1 8.634 10.756z" fill="#d6c4ea"></path><path d="M249.571 248.242h-39.708a336.978 336.978 0 0 1 8.634-10.756c7.109-8.479 11.952-18.041 14.373-28.024l3.245-4.121h11.148c-.237 13.908.433 28.27 2.308 42.901z" fill="#c7aee4"></path><path d="M294.647 209.461H232.87l7.194-17.888-8.244-20.903h63.879l-2.164 14.507a62.898 62.898 0 0 0 1.112 24.284z" fill="#ff938a"></path><path d="M249.715 170.67c-1.525 12.405-2.442 25.397-2.493 38.791H232.87a63.133 63.133 0 0 0 1.113-24.284l-2.164-14.507z" fill="#fd7a6e"></path><path d="M263.758 387.879c0 68.546-55.575 124.121-124.121 124.121-68.557 0-124.121-55.575-124.121-124.121 0-21.966 5.708-42.593 15.722-60.489l46.333-38.358 69.855-25.026h.01c64.91 4.018 116.322 57.944 116.322 123.873z" fill="#a5b0bd"></path><g fill="#8697a6"><path d="M102.062 399.212c0 41.037 11.035 79.498 30.281 112.571-65.157-3.771-116.826-57.811-116.826-123.905 0-68.546 55.564-124.121 124.121-124.121 2.617 0 5.224.082 7.799.247-28.478 37.577-45.375 84.414-45.375 135.208z" fill="#8697a6"></path><circle cx="139.636" cy="325.818" fill="#8697a6" r="15.515"></circle><circle cx="139.636" cy="387.879" fill="#8697a6" r="15.515"></circle></g><circle cx="77.575" cy="356.849" fill="#6b7d8e" r="15.515"></circle></g></svg>