<svg viewBox="0 0 64 64" xmlns="http://www.w3.org/2000/svg"><g><path d="M30.454 47.546 35 43l-3-6-3 8 3.242 5.674A5.76 5.76 0 0 1 33 53.528a2.472 2.472 0 0 1-4.683 1.106L23 44l3-12v-9l-5.538 2.769a2.188 2.188 0 0 1-3.013-1.146l-2.654-6.635 3.724-.689L20 21l1.877-1.501A11.398 11.398 0 0 1 29 17v-2h6v2c2.589 0 5.102.881 7.123 2.499L44 21l1.481-3.701 3.724.689-2.654 6.635a2.19 2.19 0 0 1-3.014 1.146L38 23v9l2.788 9.292a5.034 5.034 0 0 1-1.478 5.21l-6.457 5.739" fill="#52a04f"></path><path d="M40.79 41.29 38 32H26l-3 12 5.32 10.63c.42.84 1.27 1.37 2.21 1.37 1.36 0 2.47-1.11 2.47-2.47 0-.44-.06-.87-.15-1.29l6.46-5.74A4.999 4.999 0 0 0 41 42.74c0-.49-.07-.98-.21-1.45zm-10.34 6.26L29 45l3-8 3 6z" fill="#1d549c"></path><path d="M30.32 54.63c.264.529.71.914 1.23 1.142A2.472 2.472 0 0 0 33 53.53c0-.44-.06-.87-.15-1.29l6.46-5.74A4.999 4.999 0 0 0 41 42.74c0-.49-.07-.98-.21-1.45L38 32H28l-3 12zM32 37l3 6-4.55 4.55L29 45z" fill="#2b6bb2"></path><path d="m44 21-1.877-1.501A11.398 11.398 0 0 0 35 17v-2h-6v2c-.335 0-.668.016-1 .045V27a3 3 0 0 0 3 3h7v-7l5.538 2.769a2.188 2.188 0 0 0 3.013-1.146l2.654-6.635-3.724-.689z" fill="#6db569"></path><path d="M35 17v-3h-6v3a3 3 0 1 0 6 0z" fill="#d69578"></path><path d="M30 16a3 3 0 0 0 3 3c.571 0 1.1-.168 1.554-.446.278-.454.446-.983.446-1.554v-3h-5z" fill="#e8a989"></path><path d="M32 2a6 6 0 0 0-6 6v2a6 6 0 1 0 12 0V8a6 6 0 0 0-6-6z" fill="#e8a989"></path><path d="M32.5 2.025A5.998 5.998 0 0 0 27 8v2a5.998 5.998 0 0 0 5.5 5.975A5.998 5.998 0 0 0 38 10V8a5.998 5.998 0 0 0-5.5-5.975z" fill="#f6bb95"></path><path d="M34 6a3.618 3.618 0 0 0 3.236 2H38a6 6 0 1 0-12 0h4.762A3.621 3.621 0 0 0 34 6z" fill="#3f4042"></path><path d="M32.5 2.025A5.998 5.998 0 0 0 27 8h3.762A3.621 3.621 0 0 0 34 6a3.618 3.618 0 0 0 3.236 2H38a5.998 5.998 0 0 0-5.5-5.975z" fill="#5a5b5d"></path><path d="M55 58V2h4v56" fill="#3f4042"></path><path d="M9 15h46v2H9z" fill="#969696"></path><path d="M21.877 19.499 20 21l-1.481-3.701-3.724.689 2.654 6.635a2.19 2.19 0 0 0 3.014 1.146l3.288-1.644-1.417-4.96c-.154.11-.31.216-.457.334zM45.481 17.299 44 21l-1.877-1.501c-.148-.118-.303-.224-.456-.334l-1.417 4.96 3.288 1.644a2.188 2.188 0 0 0 3.013-1.146l2.654-6.635z" fill="#e8a989"></path><path d="M17 14h-2a2 2 0 1 0 0 4h2a2 2 0 1 0 0-4zM47 14h2a2 2 0 1 1 0 4h-2a2 2 0 1 1 0-4z" fill="#f6bb95"></path><path d="M33 53.53c0 .69-.28 1.3-.72 1.75-.45.44-1.07.72-1.75.72-.94 0-1.79-.53-2.21-1.36L26.8 51.6l4.64-2.32.8 1.4c.28.49.49 1.02.61 1.57.1.42.15.85.15 1.28z" fill="#969696"></path><path d="M32.817 54.457c.115-.285.183-.596.183-.927 0-.43-.05-.86-.15-1.28-.12-.55-.33-1.08-.61-1.57l-.8-1.4-3.168 1.584 1.248 2.496c.42.83 1.27 1.36 2.21 1.36.391 0 .757-.101 1.087-.263z" fill="#b5b5b5"></path><path d="M57 2v52a2 2 0 0 0 2 2V2z" fill="#5a5b5d"></path><path d="M52 58h10v4H52z" fill="#969696"></path><path d="M52 58h10v2H52z" fill="#b5b5b5"></path><path d="M5 58V2h4v56" fill="#3f4042"></path><path d="M7 2v52a2 2 0 0 0 2 2V2z" fill="#5a5b5d"></path><path d="M2 58h10v4H2z" fill="#969696"></path><path d="M2 58h10v2H2z" fill="#b5b5b5"></path></g></svg>