<svg viewBox="0 0 512 512" xmlns="http://www.w3.org/2000/svg"><g><g clip-rule="evenodd" fill-rule="evenodd"><path d="M224.041 401.861h63.918v32.507c0 10.661-8.722 19.382-19.382 19.382h-25.154c-10.66 0-19.382-8.721-19.382-19.382z" fill="#b1b1b5"></path><path d="M204.163 355.054h103.673v40.549c0 10.662-8.721 19.382-19.38 19.382h-64.909c-10.662 0-19.384-8.72-19.384-19.382z" fill="#d1d1d6"></path><path d="M285.259 349.17v46.432c0 10.603-8.661 19.382-19.381 19.382h22.577c10.659 0 19.38-8.72 19.38-19.382v-46.443c-7.374.243-15.156.011-22.576.011z" fill="#b1b1b5"></path><path d="M184.781 318.095h142.437v38.743c0 10.661-8.721 19.382-19.38 19.382H204.162c-10.659 0-19.382-8.721-19.382-19.382v-38.743z" fill="#eceff1"></path><path d="M304.641 337.453v19.384c0 10.661-8.721 19.382-19.381 19.382h22.577c.216 0 .431-.003.646-.011 10.364-.343 18.735-8.926 18.735-19.371l.001-19.384z" fill="#d1d1d6"></path><path d="M255.999 58.251c65.874 0 119.275 53.401 119.275 119.275 0 66.243-42.317 62.284-48.056 159.927H184.78c-5.739-97.643-48.056-93.684-48.056-159.927 0-65.874 53.401-119.275 119.275-119.275z" fill="#ffe177"></path><path d="M244.711 58.778c60.579 5.687 107.987 56.681 107.987 118.748 0 61.531-36.51 62.492-46.304 140.569-.75 5.98-1.344 12.412-1.752 19.359h22.577c5.739-97.643 48.056-93.684 48.056-159.928 0-65.874-53.402-119.275-119.275-119.275-3.808 0-7.573.178-11.289.527z" fill="#ffd064"></path><path d="M387.68 447.045a7.976 7.976 0 0 1 9.063 13.125c-41.033 28.346-89.039 42.908-137.243 43.595-40.579.578-81.302-8.689-118.126-27.853l5.197 9.302a7.974 7.974 0 1 1-13.938 7.75l-19.823-35.482a7.974 7.974 0 0 1 7.355-11.84l40.348.569a7.97 7.97 0 0 1-.188 15.938l-11.147-.157c34.34 17.777 72.298 26.374 110.134 25.835 45.081-.642 89.982-14.265 128.368-40.782zM64.953 387.687a7.976 7.976 0 0 1-13.125 9.063C23.453 355.673 8.89 307.608 8.232 259.356c-.556-40.734 8.804-81.604 28.135-118.517l-9.868 5.367a7.97 7.97 0 0 1-10.812-3.187 7.97 7.97 0 0 1 3.187-10.812l35.705-19.418a7.97 7.97 0 0 1 11.778 7.296l-1.032 40.522a7.97 7.97 0 0 1-8.156 7.781 7.97 7.97 0 0 1-7.781-8.156l.264-10.36C32.137 183.986 23.658 221.637 24.17 259.17c.615 45.13 14.238 90.091 40.783 128.517zM124.311 64.96a7.976 7.976 0 0 1-9.063-13.125c40.706-28.113 88.297-42.683 136.145-43.581 40.475-.76 81.142 8.283 117.985 27.2l-4.719-7.985a7.986 7.986 0 0 1 13.75-8.125l20.678 34.991a7.986 7.986 0 0 1-7.311 12.036l-40.144.407a7.97 7.97 0 0 1-.125-15.937l12.675-.129c-35.009-18.43-73.855-27.246-112.538-26.521-44.743.841-89.254 14.47-127.333 40.769zm322.727 59.358a7.976 7.976 0 0 1 13.125-9.063c27.872 40.357 42.443 87.493 43.559 134.936.965 40.999-8.109 82.224-27.315 119.502l8.311-4.843a7.981 7.981 0 0 1 8 13.812L457.6 399.125a7.981 7.981 0 0 1-11.97-7.321l-.16-40.197a7.97 7.97 0 0 1 15.938-.062l.049 12.283c18.499-35.271 27.244-74.382 26.328-113.261-1.045-44.398-14.675-88.499-40.747-126.249zM273.751 101.487a76.097 76.097 0 0 1 22.279 9.236l14.477-6.43 17.063 17.063-6.428 14.472a76.06 76.06 0 0 1 9.238 22.285l14.77 5.685v24.13l-14.774 5.686a76.086 76.086 0 0 1-9.236 22.279l6.43 14.477-17.062 17.063-14.473-6.428a76.098 76.098 0 0 1-22.285 9.238l-5.685 14.77h-24.13l-5.687-14.774a76.086 76.086 0 0 1-22.279-9.236l-14.477 6.43-17.063-17.062 6.428-14.473a76.098 76.098 0 0 1-9.238-22.285l-14.77-5.685v-24.13l14.772-5.686a76.073 76.073 0 0 1 9.237-22.281l-6.429-14.476 17.062-17.063 14.477 6.43a76.097 76.097 0 0 1 22.279-9.236l5.687-14.774h24.13z" fill="#a79ba7"></path><path d="m215.969 241.004-14.477 6.43-2.229-2.229 13.573-6.028a79.116 79.116 0 0 0 3.133 1.827zm57.782-139.517a76.097 76.097 0 0 1 22.279 9.236l-4.115 1.827c-6.89-4.242-17.541-9.19-25.412-11.064l-5.687-14.774h7.248zm22.284 139.519a76.098 76.098 0 0 1-22.285 9.238l-5.685 14.77h-7.248l5.685-14.77c7.873-1.873 18.527-6.822 25.418-11.066zm-96.772-134.484 2.229-2.229 14.477 6.43a77.212 77.212 0 0 0-3.133 1.827zm106.225 0 5.019-2.229 17.063 17.063-6.428 14.472a76.06 76.06 0 0 1 9.238 22.285l14.77 5.685v24.13l-14.774 5.686a76.086 76.086 0 0 1-9.236 22.279l6.43 14.477-17.062 17.063-5.019-2.229 14.833-14.834-6.43-14.477a76.086 76.086 0 0 0 9.236-22.279l14.774-5.686v-24.13l-14.77-5.685a76.06 76.06 0 0 0-9.238-22.285l6.428-14.472z" fill="#837683"></path><circle cx="255.999" cy="175.863" fill="#ffc338" r="51.09" transform="rotate(-80.8 255.963 175.895)"></circle><path d="M276.483 158.06a5.902 5.902 0 0 1-10.884 4.566c-1.311-3.121-3.797-4.923-6.528-5.615a12.198 12.198 0 0 0-5.367-.133c-1.655.333-3.171 1.001-4.348 1.958-1.382 1.123-2.259 2.739-2.162 4.734.085 1.761 1.02 2.978 2.324 3.829 1.989 1.298 4.791 2.029 7.473 2.469 4.138.679 8.666 1.819 12.488 4.127 4.509 2.722 7.911 6.823 8.677 13.136.057.468.093 1.047.109 1.727.138 5.82-2.508 10.15-6.486 13.168-2.847 2.16-6.356 3.554-9.877 4.267v1.9a5.903 5.903 0 0 1-11.806 0v-2.019c-2.8-.644-5.464-1.746-7.805-3.305-4.018-2.676-7.097-6.627-8.4-11.855a5.89 5.89 0 0 1 11.437-2.814c.528 2.118 1.8 3.736 3.466 4.845 2.144 1.428 4.913 2.109 7.734 2.042a18.515 18.515 0 0 0 1.736-.144c2.401-.291 4.772-1.034 6.413-2.279 1.118-.848 1.863-2.017 1.827-3.529a9.517 9.517 0 0 0-.063-.62c-.25-2.061-1.45-3.454-3.051-4.419-2.288-1.382-5.379-2.127-8.291-2.605-4.016-.659-8.387-1.867-11.993-4.222-4.291-2.801-7.374-6.951-7.674-13.145-.297-6.127 2.339-11.038 6.497-14.42 2.331-1.895 5.148-3.269 8.165-4.055v-2.114a5.903 5.903 0 0 1 11.806 0v2.033l.027.007c6.099 1.544 11.644 5.551 14.556 12.485z" fill="#ffe177"></path><path d="M256 124.773c.984 0 1.96.031 2.93.086-26.852 1.519-48.16 23.772-48.16 51.004 0 27.233 21.308 49.486 48.16 51.005a51.72 51.72 0 0 1-2.93.086c-28.216 0-51.09-22.874-51.09-51.09 0-28.217 22.873-51.091 51.09-51.091z" fill="#f5b829"></path><path d="M349.893 284.897a67.39 67.39 0 0 1 19.736 8.182l12.825-5.696 15.115 15.115-5.694 12.82a67.39 67.39 0 0 1 8.184 19.742l13.084 5.036v21.376l-13.087 5.038a67.417 67.417 0 0 1-8.182 19.736l5.696 12.825-15.115 15.116-12.821-5.694a67.394 67.394 0 0 1-19.741 8.183l-5.036 13.084H323.48l-5.037-13.087a67.39 67.39 0 0 1-19.736-8.182l-12.825 5.696-15.115-15.115 5.694-12.82a67.388 67.388 0 0 1-8.183-19.742l-13.084-5.036v-21.376l13.086-5.037a67.388 67.388 0 0 1 8.183-19.738l-5.695-12.823 15.115-15.116 12.825 5.696a67.417 67.417 0 0 1 19.736-8.182l5.038-13.087h21.375z" fill="#a79ba7"></path><path d="m298.707 408.491-12.825 5.696-1.975-1.975 12.024-5.34a68.722 68.722 0 0 0 2.776 1.619zm51.186-123.594a67.39 67.39 0 0 1 19.736 8.182l-3.645 1.619c-6.103-3.758-15.539-8.141-22.512-9.801l-5.037-13.087h6.421zm19.741 123.595a67.394 67.394 0 0 1-19.741 8.183l-5.036 13.084h-6.421l5.036-13.084c6.975-1.659 16.412-6.043 22.516-9.802zm-85.727-119.134 1.975-1.975 12.825 5.696a67.521 67.521 0 0 0-2.775 1.619zm94.101 0 4.446-1.975 15.115 15.115-5.694 12.82a67.39 67.39 0 0 1 8.184 19.742l13.084 5.036v21.376l-13.087 5.038a67.417 67.417 0 0 1-8.182 19.736l5.696 12.825-15.115 15.116-4.446-1.975 13.14-13.141-5.696-12.825a67.417 67.417 0 0 0 8.182-19.736l13.087-5.038v-21.376l-13.084-5.036a67.402 67.402 0 0 0-8.184-19.742l5.694-12.82z" fill="#837683"></path><path d="M334.168 307.805c-23.739 0-42.979 19.241-42.979 42.98s19.241 42.979 42.979 42.979c23.739 0 42.98-19.24 42.98-42.979-.001-23.739-19.241-42.98-42.98-42.98z" fill="#eceff1"></path><path d="M334.168 307.805c-23.739 0-42.979 19.241-42.979 42.98s19.241 42.979 42.979 42.979c1.151 0 2.291-.046 3.419-.135-22.14-1.742-39.561-20.256-39.561-42.844s17.421-41.102 39.561-42.845a43.964 43.964 0 0 0-3.419-.135z" fill="#d1d1d6"></path></g></g></svg>