<svg viewBox="0 0 512 512" xmlns="http://www.w3.org/2000/svg"><g><path d="M41.29 346.839h35.933L66.065 512h-8.258c-9.122 0-16.516-7.395-16.516-16.516V346.839z" fill="#ffd18d"></path><path d="M66.065 512h16.516l16.516-165.161H66.065zM228.607 257.447l-38.009-32.905-66.727-3.312v5.639a16.515 16.515 0 0 1-12.171 15.934l-24.269 6.619v50.921h141.176z" fill="#fbbd80"></path><path d="m227.318 245.174-8.696-2.372a16.516 16.516 0 0 1-12.17-15.934v-45.192h-82.581v39.553c12.398 6.346 26.406 9.996 41.29 9.996a84.53 84.53 0 0 0 9.984-.597c7.253-.863 14.667 2.683 17.576 9.383 3.898 8.979 11.689 16.033 21.553 18.726l15.172 4.138z" fill="#f4aa73"></path><path d="m250.742 259.985-31.081.212c-11.881 17.401-31.836 28.835-54.5 28.835-28.683 0-53.026-18.313-62.157-43.858l-39.546 10.785c-17.964 4.9-30.426 21.216-30.426 39.836v47.397c0 7.109 4.549 13.42 11.293 15.668l21.739 7.247 8.552-7.339 7.964 12.845V512h156.903l41.684-212.179c.001-18.621-12.461-34.937-30.425-39.836z" fill="#615260"></path><path d="m266.864 255.96-39.546-10.785a65.571 65.571 0 0 1-7.656 15.022l26.884 7.271c8.278 2.236 11.904 12.207 6.644 18.98-8.478 10.918-13.706 24.433-13.706 39.677V512H256l41.29-216.205c0-18.62-12.462-34.936-30.426-39.835z" fill="#4e3d4d"></path><path d="M445.935 512h-41.29v-90.463h49.41v73.947z" fill="#e29a6c"></path><path d="m404.645 442.3 24.775-10.618c7.818-3.351 16.515 2.384 16.515 10.89V512c9.121 0 16.516-7.395 16.516-16.516V363.355h-57.806z" fill="#d48c64"></path><path d="m441.186 292.259-55.31-13.828-86.839-1.887-6.524 1.779C270.955 284.203 256 303.782 256 326.126v53.741c0 21.471 5.458 29.887 5.458 29.887L256 416.692V512h148.645l16.516-99.097 41.29-17.696a16.516 16.516 0 0 0 10.01-15.181v-47.709c.001-18.947-12.894-35.462-31.275-40.058z" fill="#ff5f7a"></path><path d="m447.692 289.471-55.31-13.828h-.002l-4.009 16.026 55.315 13.827a24.738 24.738 0 0 1 18.766 24.032v65.679l6.506-2.788a16.516 16.516 0 0 0 10.01-15.181v-47.709c0-18.947-12.895-35.462-31.276-40.058z" fill="#fb4455"></path><path d="M366.526 253.049H322.87l-9.063 4.883v1.969a16.517 16.517 0 0 1-12.17 15.934l-2.6.709 29.286 32.947c9.855 11.087 27.178 11.087 37.033 0l17.628-19.832z" fill="#e29a6c"></path><path d="M392.382 275.644a16.517 16.517 0 0 1-12.511-16.023v-28.395h-66.065v26.706c10.253 4.012 21.357 6.326 33.032 6.326a85.35 85.35 0 0 0 4.245-.107c6.837-.343 12.753 3.909 15.757 10.06 3.335 6.83 9.033 12.27 16.143 15.449l11.902-13.39z" fill="#d48c64"></path><path d="M206.452 45.357h-81.229l-42.642 64.289c-4.916 2.861-8.258 8.127-8.258 14.226 0 9.121 7.395 16.516 16.516 16.516 0 41.047 33.275 74.322 74.323 74.322.314 0 .628-.002.941-.005 0 0 64.894-10.361 64.894-81.058z" fill="#ffd18d"></path><path d="m247.742 109.646-31.949-51.839h-9.341v90.839c0 28.762-16.448 53.702-40.349 66.059 40.571-.553 73.381-33.615 73.381-74.317 9.121 0 16.516-7.395 16.516-16.516 0-6.099-3.342-11.365-8.258-14.226z" fill="#fbbd80"></path><path d="M165.161 181.677c-8.742 0-17.097-4.125-22.927-11.315-2.879-3.544-2.331-8.742 1.21-11.617 3.556-2.867 8.75-2.319 11.613 1.214 5.452 6.71 14.758 6.71 20.21 0 2.863-3.532 8.065-4.081 11.613-1.214 3.54 2.875 4.089 8.073 1.21 11.617-5.832 7.19-14.187 11.315-22.929 11.315z" fill="#ffffff"></path><path d="M132.129 140.387a8.256 8.256 0 0 1-8.258-8.258v-8.258c0-4.56 3.694-8.258 8.258-8.258s8.258 3.698 8.258 8.258v8.258a8.255 8.255 0 0 1-8.258 8.258zM198.194 140.387a8.256 8.256 0 0 1-8.258-8.258v-8.258a8.256 8.256 0 0 1 8.258-8.258 8.256 8.256 0 0 1 8.258 8.258v8.258a8.256 8.256 0 0 1-8.258 8.258z" fill="#a46a5a"></path><path d="M173.419 8.258h-33.032c-31.926 0-57.806 25.881-57.806 57.807v43.581c2.429-1.405 5.249-2.291 8.258-2.291 0 0 25.723-1.056 49.287-13.151l20.337-3.562 8.468 6.832c12.004-1.487 25.761-6.848 37.521-20.529l12.491-47.802c-.001 0-12.491-20.885-45.524-20.885z" fill="#ff8b57"></path><path d="M230.834 29.143c-1.877-11.822-12.032-20.885-24.382-20.885H173.42c18.243 0 33.032 14.789 33.032 33.032v35.654c.183-.213.375-.431.557-.648 3.184-3.794 9.356-2.183 10.32 2.675l4.31 21.744a8.258 8.258 0 0 0 8.098 6.639h9.746c3.009 0 5.829.886 8.259 2.291V57.806c0-12.355-6.863-22.998-16.908-28.663zM168.931 97.473c3.571-6.419 6.135-12.801 7.97-18.499 1.722-5.347-4.754-9.396-8.752-5.451-6.911 6.818-16.374 14.642-28.023 20.68 4.735 1.914 15.821 4.844 28.805 3.27z" fill="#ff744d"></path><path d="M105.406 280.774H78.222a33.031 33.031 0 0 1-29.545-18.26l-3.693-7.386c-5.491-10.982 2.495-23.902 14.772-23.902H86.94a33.031 33.031 0 0 1 29.545 18.26l3.693 7.386c5.491 10.981-2.495 23.902-14.772 23.902z" fill="#f4aa73"></path><path d="m120.178 256.871-3.693-7.386a33.031 33.031 0 0 0-29.545-18.26H63.774a33.033 33.033 0 0 1 29.545 18.26l15.425 30.85c10.294-2.103 16.402-13.527 11.434-23.464z" fill="#e29a6c"></path><path d="M380.86 33.032C380.86 4.09 349.453.065 349.453.065A52.63 52.63 0 0 0 346.839 0c-22.804 0-41.29 14.789-41.29 33.032s18.486 33.032 41.29 33.032 34.021-14.789 34.021-33.032z" fill="#a46a5a"></path><path d="M349.453.065c8.48 6.049 13.902 14.905 13.902 24.709 0 18.243-18.486 33.032-41.29 33.032-.888 0-1.718-.165-2.592-.209 7.298 5.207 16.818 8.467 27.366 8.467 22.804 0 41.29-14.789 41.29-33.032 0-17.533-17.104-31.877-38.676-32.967z" fill="#845252"></path><path d="M346.839 33.303c-1.611-.174-4.831-.144-4.831-.144C294.085 35.67 256 75.323 256 123.871v33.032h158.091v-33.032c0-50.169-16.072-85.03-67.252-90.568z" fill="#845252"></path><path d="M346.839 33.032c-1.61 0-3.243.039-4.831.126 25.738 1.789 46.121 23.23 46.121 49.422v74.323h49.548v-33.032c0-50.169-40.669-90.839-90.838-90.839z" fill="#7a4646"></path><path d="M388.129 134.356c-20.161-4.53-46.053-11.9-67.288-23.055-3.83-2.012-8.542-1.001-10.901 2.625-6.262 9.628-19.726 26.443-37.395 26.461-8.116.009-15.391 6.312-16.409 14.364-1.274 10.082 6.55 18.669 16.38 18.669 0 5.677.637 11.205 1.842 16.518 7.511 33.097 37.11 57.805 72.48 57.805.322 0 .643-.002.964-.006 0 0 45.112-2.343 63.682-57.799z" fill="#f4aa73"></path><path d="M437.677 156.903c0-9.122-7.395-16.516-16.516-16.516 0 0-13.972-1.751-33.032-6.032v47.322c0 28.762-16.426 53.702-40.327 66.058.002.003-.002-.003 0 0 34.91-.478 64.08-25.026 71.517-57.799a74.54 74.54 0 0 0 1.842-16.518c9.122.001 16.516-7.393 16.516-16.515z" fill="#e29a6c"></path><path d="M346.839 214.71c-8.742 0-17.097-4.125-22.927-11.315a8.257 8.257 0 1 1 12.823-10.403c5.452 6.71 14.758 6.71 20.21 0 2.863-3.54 8.056-4.085 11.613-1.214 3.54 2.875 4.089 8.073 1.21 11.617-5.833 7.19-14.187 11.315-22.929 11.315z" fill="#ffffff"></path><path d="M313.806 173.419a8.256 8.256 0 0 1-8.258-8.258v-8.258c0-4.56 3.694-8.258 8.258-8.258s8.258 3.698 8.258 8.258v8.258a8.255 8.255 0 0 1-8.258 8.258zM379.871 173.419a8.256 8.256 0 0 1-8.258-8.258v-8.258c0-4.56 3.694-8.258 8.258-8.258s8.258 3.698 8.258 8.258v8.258a8.256 8.256 0 0 1-8.258 8.258z" fill="#7a4646"></path><path d="m440.073 373.899-1.452-11.573c-.565-4.524-4.677-7.77-9.218-7.165a8.26 8.26 0 0 0-7.169 9.222l1.452 11.569a33.037 33.037 0 0 1-32.782 37.129h-2.774c-4.565 0-8.258 3.698-8.258 8.258s3.694 8.258 8.258 8.258h2.774c4.702 0 9.312-.729 13.742-2.01V512h16.516v-92.772c2.469-1.905 4.799-4.015 6.895-6.39a49.576 49.576 0 0 0 12.016-38.939zM289.04 429.419c4.565 0 8.258-3.698 8.258-8.258s-3.694-8.258-8.258-8.258c-18.218 0-33.04-14.819-33.04-33.036v36.826c8.779 7.883 20.341 12.726 33.04 12.726z" fill="#fb4455"></path><path d="M82.581 371.613v-41.29c0-4.561-3.697-8.258-8.258-8.258s-8.258 3.697-8.258 8.258v35.785z" fill="#4e3d4d"></path><path d="M425.493 256.001h-7.058a33.033 33.033 0 0 0-29.545 18.26l-3.693 7.386c-5.491 10.981 2.495 23.902 14.772 23.902h27.184l.295-.001 23.671-25.645c5.491-10.981.542-23.902-25.626-23.902z" fill="#fbbd80"></path><path d="M445.619 256.001h-20.126c12.278 0 20.263 12.921 14.772 23.902l-12.817 25.645a33.045 33.045 0 0 0 29.25-18.259l3.693-7.386c5.491-10.981-2.494-23.902-14.772-23.902z" fill="#f4aa73"></path></g></svg>