<svg height="512" viewBox="0 0 512 512" width="512" xmlns="http://www.w3.org/2000/svg"><g id="_83_Dice" data-name="83 Dice"><rect fill="#f7f5fb" height="490" rx="55.6" width="490" x="11" y="11"/><path d="m464.11 497.74a55 55 0 0 1 -18.71 3.26h-378.8a55.76 55.76 0 0 1 -55.6-55.6v-378.81a55 55 0 0 1 3.26-18.7c22.61 237.91 211.94 427.24 449.85 449.85z" fill="#e4e3e8"/><circle cx="111.56" cy="111.56" fill="#4a5058" r="55.56"/><circle cx="111.56" cy="256" fill="#4a5058" r="55.56"/><circle cx="111.56" cy="400.44" fill="#3f4449" r="55.56"/><g fill="#4a5058"><circle cx="400.44" cy="111.56" r="55.56"/><circle cx="400.44" cy="256" r="55.56"/><circle cx="400.44" cy="400.44" r="55.56"/></g><path d="m120.37 310.85a55.56 55.56 0 0 1 -55-85.79 498.82 498.82 0 0 0 55 85.79z" fill="#3f4449"/></g></svg>