<svg viewBox="0 0 468 468" xmlns="http://www.w3.org/2000/svg"><g><circle cx="372.705" cy="111.988" fill="#ffd71a" r="95.295"></circle><path d="M291.41 111.988c0-50.276 38.934-91.454 88.295-95.039a96.542 96.542 0 0 0-7-.257c-52.63 0-95.295 42.665-95.295 95.295s42.665 95.295 95.295 95.295c2.355 0 4.688-.089 7-.257-49.361-3.583-88.295-44.762-88.295-95.037z" fill="#ffb31a"></path><path d="M426.983 130.274a5 5 0 0 0-6.533 2.705c-7.074 17.074-26.262 28.546-47.746 28.546-21.482 0-40.67-11.471-47.745-28.544a5 5 0 0 0-9.238 3.828c8.605 20.765 31.505 34.716 56.983 34.716 25.48 0 48.381-13.952 56.984-34.718a5 5 0 0 0-2.705-6.533zM428.47 96.574a5.003 5.003 0 0 1-4.918-4.129c-1.175-6.637-6.507-11.453-12.677-11.453-6.171 0-11.503 4.816-12.678 11.453-.481 2.72-3.085 4.524-5.796 4.052a5.002 5.002 0 0 1-4.052-5.796c2.023-11.42 11.496-19.709 22.525-19.709 11.028 0 20.501 8.289 22.524 19.709.57 3.025-1.857 5.903-4.928 5.873zM317.096 96.574c-3.072.028-5.498-2.847-4.929-5.874 2.023-11.42 11.497-19.708 22.524-19.708 11.028 0 20.501 8.289 22.524 19.709a5.002 5.002 0 0 1-4.052 5.796 5.005 5.005 0 0 1-5.796-4.052c-1.175-6.637-6.507-11.453-12.677-11.453s-11.502 4.817-12.679 11.454a4.997 4.997 0 0 1-4.915 4.128z" fill="#2a2c41"></path><path d="M326.47 279.457c0-13.559-10.991-24.55-24.55-24.55l-116.932.132-.514.08 2.734-4.882c6.239-7.946 25.937-26.029 31.441-41.271 10.544-29.489 7.31-56.286 4.436-70.221-3.818-23.644-27.621-41.359-42.547-17.756-8.647 16.643-20.15 53.073-27.724 69.65-36.35 3.761-57.755 42.061-57.755 42.061v208.68a146.764 146.764 0 0 0 53.113 9.93H301.92c13.559 0 24.55-10.991 24.55-24.55 0-13.558-10.991-24.55-24.55-24.55H274.4h27.52c13.559 0 24.55-10.991 24.55-24.55 0-13.558-10.991-24.55-24.55-24.55H274.4h27.52c13.559 0 24.55-10.991 24.55-24.55 0-13.558-10.991-24.55-24.55-24.55H274.4h27.52c13.559-.003 24.55-10.994 24.55-24.553z" fill="#ffddcc"></path><path d="M316.92 437.308H163.172a146.764 146.764 0 0 1-53.113-9.93V213.334c-9.735 9.951-15 19.364-15 19.364v208.68a146.764 146.764 0 0 0 53.113 9.93H301.92c10.265 0 19.053-6.302 22.72-15.246a24.513 24.513 0 0 1-7.72 1.246z" fill="#ffc8c0"></path><path d="M39.436 225.306H29.381C13.154 225.306 0 274.941 0 336.169s13.154 110.864 29.381 110.864h54.295c6.286 0 11.382-5.096 11.382-11.382V236.688c0-6.286-5.096-11.382-11.382-11.382z" fill="#ff8353"></path><path d="M14 336.169c0-61.228 13.154-110.863 29.381-110.863h-14C13.154 225.306 0 274.941 0 336.169c0 61.229 13.154 110.864 29.381 110.864h14C27.154 447.033 14 397.397 14 336.169z" fill="#ff5a52"></path></g></svg>