<svg viewBox="0 0 512 512" xmlns="http://www.w3.org/2000/svg"><g><path d="M20.74 201.477V404.47c0 2.936 2.403 5.339 5.342 5.339h372.416c2.937 0 5.34-2.403 5.34-5.339V201.477H20.74z" fill="#58595b"></path><path d="M156.054 236.144h-98.14c-2.938 0-5.34 2.403-5.34 5.34v35.077c0 2.938 2.402 5.34 5.34 5.34h98.14v-45.757z" fill="#e0e0e0"></path><path d="M40.657 404.471V201.478H20.74V404.47c0 2.936 2.403 5.339 5.342 5.339h19.917c-2.939.001-5.342-2.402-5.342-5.338zM86.525 276.563v-35.077c0-2.938 2.403-5.34 5.342-5.34H57.914c-2.938 0-5.34 2.403-5.34 5.34v35.077c0 2.938 2.402 5.34 5.34 5.34h33.952c-2.938 0-5.341-2.403-5.341-5.34z" fill="#000000"></path><path d="M171.582 236.145H276.73v45.759H171.582zM366.664 236.144h-74.396v45.759h74.396c2.937 0 5.34-2.403 5.34-5.34v-35.077c0-2.939-2.403-5.342-5.34-5.342zM258.362 354.894H135.665a7.766 7.766 0 1 1 0-15.533h122.697a7.766 7.766 0 0 1 7.766 7.767 7.765 7.765 0 0 1-7.766 7.766zM258.362 323.194H135.665a7.766 7.766 0 1 1 0-15.533h122.697a7.766 7.766 0 0 1 7.766 7.767 7.765 7.765 0 0 1-7.766 7.766zM107.275 354.894H60.34a7.766 7.766 0 1 1 0-15.533h46.935a7.766 7.766 0 0 1 7.766 7.767 7.765 7.765 0 0 1-7.766 7.766zM107.275 323.194H60.34a7.766 7.766 0 1 1 0-15.533h46.935a7.766 7.766 0 0 1 7.766 7.767 7.765 7.765 0 0 1-7.766 7.766z" fill="#e0e0e0"></path><path d="M18.713 152.641c-2.937 0-5.34 2.403-5.34 5.34v43.634c0 2.938 2.403 5.342 5.34 5.342H36.43l5.368-4.914 25.887-44.526.188-4.875h-49.16z" fill="#414042"></path><path d="M31.443 201.615v-43.634c0-2.938 2.404-5.34 5.342-5.34H18.713c-2.937 0-5.34 2.403-5.34 5.34v43.634c0 2.938 2.403 5.342 5.34 5.342H36.43l.036-.032c-2.788-.17-5.023-2.481-5.023-5.31z" fill="#000000"></path><path d="m109.798 152.641-3.8 1.77-28.994 50.738 1.349 1.808h48.305l3.156-1.808 30.029-50.739-1.742-1.769z" fill="#414042"></path><path d="M36.431 206.957h41.922l31.445-54.316H67.873z" fill="#e0e0e0"></path><path d="m200.025 152.641-3.94 1.769-27.958 49.704.455 2.843h48.304l4.05-2.843 28.994-49.704-1.601-1.769z" fill="#414042"></path><path d="M126.658 206.957h41.924l31.443-54.316h-41.924z" fill="#e0e0e0"></path><path d="m290.253 152.641-4.082 1.769-28.993 50.739 1.632 1.808h48.305l3.908-2.843 28.994-49.704-1.46-1.769z" fill="#414042"></path><path d="M216.886 206.957h41.924l31.443-54.316h-41.924z" fill="#e0e0e0"></path><path d="M405.864 152.641h-25.383l-3.187 1.769-28.993 49.704.738 2.843h56.825c2.937 0 5.34-2.404 5.34-5.342v-43.634c.001-2.937-2.403-5.34-5.34-5.34z" fill="#414042"></path><path d="M307.115 206.957h41.923l31.444-54.316h-41.925z" fill="#e0e0e0"></path><path d="M3.959 102.799c-2.837.761-4.538 3.704-3.777 6.542l11.293 42.147c.761 2.838 3.704 4.537 6.542 3.776l17.113-4.586 3.912-6.136 13.48-49.709-1.08-4.758-47.483 12.724zM91.938 79.224l-3.211 2.693-14.873 56.513 1.77 1.398 46.659-12.502 2.58-2.564 15.874-56.782-2.141-1.257z" fill="#414042"></path><path d="m35.131 150.678 40.493-10.85 16.314-60.604-40.495 10.851z" fill="#e0e0e0"></path><path d="m179.092 55.872-3.348 2.729-14.14 55.246 1.176 2.629 46.657-12.502 3.176-3.796 15.141-55.513-2.004-1.294z" fill="#414042"></path><path d="m122.283 127.326 40.497-10.85 16.312-60.604-40.496 10.851z" fill="#e0e0e0"></path><path d="m266.245 32.519-3.484 2.765-14.873 56.513 2.044 1.325 46.66-12.502 3.038-3.758 15.141-55.514-1.866-1.331z" fill="#414042"></path><path d="m209.437 103.974 40.495-10.852 16.313-60.603-40.495 10.852z" fill="#e0e0e0"></path><path d="M377.917 2.597 353.4 9.167l-2.621 2.533-15.141 55.514 1.449 2.555 54.888-14.706c2.838-.762 4.536-3.704 3.776-6.542L384.457 6.373c-.759-2.836-3.703-4.536-6.54-3.776z" fill="#414042"></path><path d="m296.592 80.62 40.495-10.851L353.4 9.167l-40.495 10.85z" fill="#e0e0e0"></path><path d="M503.987 509.58H373.741a8.011 8.011 0 0 1 0-16.022h130.248a8.01 8.01 0 1 1-.002 16.022z" fill="#58595b"></path><ellipse cx="373.739" cy="388.449" fill="#aab0b5" rx="121.448" ry="121.135"></ellipse><ellipse cx="373.749" cy="319.946" fill="#58595b" rx="29.875" ry="29.795"></ellipse><path d="M448.281 395.594c-15.692 5.088-32.549-3.475-37.649-19.125-5.098-15.65 3.487-32.461 19.178-37.548 15.691-5.086 32.544 3.477 37.646 19.127 5.1 15.649-3.485 32.46-19.175 37.546zM389.951 461.336c-9.701-13.31-6.746-31.945 6.6-41.62 13.346-9.676 32.03-6.728 41.731 6.584 9.702 13.31 6.746 31.944-6.601 41.618-13.346 9.676-32.028 6.73-41.73-6.582zM309.233 426.335c9.694-13.318 28.374-16.274 41.727-6.606 13.353 9.666 16.318 28.3 6.624 41.616s-28.374 16.273-41.726 6.604c-13.352-9.665-16.317-28.297-6.625-41.614zM317.66 338.953c15.693 5.077 24.287 21.882 19.196 37.536-5.09 15.653-21.943 24.225-37.636 19.147-15.694-5.078-24.29-21.885-19.196-37.537 5.089-15.652 21.94-24.223 37.636-19.146z" fill="#58595b"></path><path d="M365.522 319.95c0-12.646 7.904-23.446 19.049-27.771a29.847 29.847 0 0 0-10.825-2.025c-16.499 0-29.874 13.339-29.874 29.796 0 16.455 13.375 29.795 29.874 29.795 3.82 0 7.468-.722 10.825-2.025-11.146-4.327-19.049-15.125-19.049-27.77zM337.507 467.95c-13.352-9.666-16.317-28.298-6.625-41.614a29.713 29.713 0 0 1 13.362-10.266c-12.35-4.803-26.859-.935-35.011 10.266-9.692 13.316-6.728 31.948 6.625 41.614 8.525 6.174 19.22 7.192 28.364 3.661a29.901 29.901 0 0 1-6.715-3.661zM301.672 358.1c2.879-8.854 9.522-15.439 17.59-18.573a31.358 31.358 0 0 0-1.603-.573c-15.695-5.077-32.546 3.493-37.636 19.146-5.093 15.652 3.501 32.458 19.196 37.537a29.817 29.817 0 0 0 20.045-.574c-14.667-5.672-22.508-21.854-17.592-36.963z" fill="#000000"></path><path d="M365.36 404.461c-9.597-4.874-13.413-16.585-8.526-26.155 4.889-9.571 16.632-13.377 26.228-8.502 9.594 4.874 13.411 16.585 8.523 26.156-4.888 9.57-16.63 13.379-26.225 8.501z" fill="#58595b"></path></g></svg>