<?xml version="1.0" encoding="iso-8859-1"?>
<!-- Generator: Adobe Illustrator 19.0.0, SVG Export Plug-In . SVG Version: 6.00 Build 0)  -->
<svg version="1.1" id="Capa_1" xmlns="http://www.w3.org/2000/svg" xmlns:xlink="http://www.w3.org/1999/xlink" x="0px" y="0px"
	 viewBox="0 0 512 512" style="enable-background:new 0 0 512 512;" xml:space="preserve">
<path style="fill:#1E608B;" d="M434.99,231.599c-2.052,0-4.101-0.812-5.621-2.422L250.875,40.269L72.382,229.177
	c-2.934,3.104-7.827,3.242-10.931,0.31c-3.104-2.933-3.243-7.827-0.31-10.931L245.254,23.7c1.461-1.546,3.494-2.422,5.621-2.422
	c2.126,0,4.16,0.876,5.62,2.422l184.114,194.856c2.933,3.104,2.795,7.998-0.309,10.931
	C438.805,230.899,436.896,231.599,434.99,231.599z"/>
<path style="fill:#F7EEE2;" d="M469.043,491.411H42.957C19.232,491.411,0,472.179,0,448.454v-215.39
	c0-23.724,19.232-42.957,42.957-42.957h426.086c23.724,0,42.957,19.232,42.957,42.957v215.391
	C512,472.179,492.767,491.411,469.043,491.411z"/>
<path style="fill:#E5D8C6;" d="M469.043,190.107h-54.03c23.724,0,42.957,19.233,42.957,42.957v215.391
	c0,23.725-19.233,42.957-42.957,42.957h54.03c23.724,0,42.957-19.232,42.957-42.957V233.064
	C512,209.339,492.767,190.107,469.043,190.107z"/>
<g>
	<path style="fill:#FF507E;" d="M153.277,308.573c13.088,0,23.891-6.44,23.891-23.788v-48.51c0-2.804-2.909-4.259-5.921-4.259
		h-18.178c-3.012,0-4.259,3.012-4.259,5.817c0,3.22,1.558,6.025,4.259,6.025h10.595v40.927c0,8.102-3.947,11.946-11.011,11.946
		c-8.414,0-10.492-5.921-10.699-11.115c-0.312-3.324-3.22-4.259-6.752-4.259c-4.57,0-6.752,1.35-6.752,6.544
		C128.451,300.782,138.839,308.573,153.277,308.573z"/>
	<path style="fill:#FF507E;" d="M213.943,308.573c13.919,0,24.93-6.44,24.93-23.788v-48.614c0-2.908-3.428-4.155-6.752-4.155
		c-3.428,0-6.752,1.246-6.752,4.155v48.614c0,8.102-4.259,11.946-11.426,11.946c-7.168,0-11.426-3.844-11.426-11.946v-48.614
		c0-2.908-3.428-4.155-6.752-4.155c-3.428,0-6.752,1.246-6.752,4.155v48.614C189.013,302.133,199.92,308.573,213.943,308.573z"/>
	<path style="fill:#FF507E;" d="M296.008,286.344c0-26.904-33.344-22.437-33.344-35.318c0-4.986,4.259-7.999,11.738-7.999
		c8.726,0,11.115,3.947,14.335,3.947c3.739,0,5.402-4.778,5.402-7.167c0-6.856-13.607-8.31-19.737-8.31
		c-11.945,0-25.241,5.298-25.241,20.775c0,24.618,33.344,19.84,33.344,35.421c0,6.233-5.402,9.037-11.634,9.037
		c-10.596,0-13.401-7.999-17.66-7.999c-3.22,0-5.921,4.363-5.921,7.271c0,6.025,10.388,12.881,23.995,12.881
		C285.62,308.884,296.008,301.198,296.008,286.344z"/>
	<path style="fill:#FF507E;" d="M352.727,238.042c0-2.909-1.35-6.025-4.259-6.025h-43.94c-2.909,0-4.259,3.116-4.259,6.025
		c0,3.324,1.559,6.129,4.259,6.129h15.269v59.521c0,2.805,3.325,4.259,6.753,4.259c3.324,0,6.752-1.454,6.752-4.259v-59.521h15.166
		C351.168,244.17,352.727,241.261,352.727,238.042z"/>
	<path style="fill:#FF507E;" d="M114.475,356.676c-4.882,0-7.167,1.039-10.595,7.167l-12.777,23.268l-12.777-23.268
		c-3.428-6.129-5.609-7.167-10.492-7.167c-3.428,0-6.752,1.766-6.752,6.752v64.922c0,2.805,3.324,4.259,6.752,4.259
		c3.324,0,6.752-1.454,6.752-4.259v-45.498l11.946,22.437c1.143,2.077,2.804,2.701,4.467,2.701c1.662,0,3.428-0.624,4.57-2.701
		l12.153-21.606v44.667c0,2.805,3.324,4.259,6.752,4.259c3.324,0,6.752-1.454,6.752-4.259v-64.922
		C121.227,358.442,117.903,356.676,114.475,356.676z"/>
	<path style="fill:#FF507E;" d="M166.002,360.623c-0.935-3.117-4.778-4.57-8.726-4.57c-3.844,0-7.687,1.454-8.622,4.57
		l-20.048,65.338c-0.104,0.415-0.208,0.831-0.208,1.039c0,3.324,4.882,5.609,8.518,5.609c2.285,0,4.051-0.727,4.57-2.701
		l3.947-13.816h23.788l3.947,13.816c0.52,1.974,2.285,2.701,4.57,2.701c3.636,0,8.518-2.389,8.518-5.609
		c0-0.312-0.104-0.623-0.208-1.039L166.002,360.623z M148.239,405.497l9.037-31.89l9.037,31.89L148.239,405.497L148.239,405.497z"/>
	<path style="fill:#FF507E;" d="M229.369,399.16c7.79-2.389,13.608-8.829,13.608-20.775c0-16.516-11.011-21.71-24.619-21.71h-20.567
		c-2.597,0-4.363,1.973-4.363,4.155v67.519c0,2.805,3.428,4.259,6.752,4.259c3.428,0,6.752-1.454,6.752-4.259v-27.112h8.726
		l14.75,28.67c1.039,2.078,2.805,3.22,4.674,3.22c3.948,0,8.414-3.636,8.414-7.064c0-0.415-0.104-1.142-0.519-1.662L229.369,399.16z
		 M218.358,390.643h-11.426v-22.125h11.426c6.752,0,11.115,2.909,11.115,11.115S225.11,390.643,218.358,390.643z"/>
	<path style="fill:#FF507E;" d="M288.581,399.16c7.791-2.389,13.607-8.829,13.607-20.775c0-16.516-11.011-21.71-24.618-21.71
		h-20.567c-2.598,0-4.364,1.973-4.364,4.155v67.519c0,2.805,3.428,4.259,6.752,4.259c3.428,0,6.753-1.454,6.753-4.259v-27.112h8.725
		l14.75,28.67c1.039,2.078,2.805,3.22,4.675,3.22c3.948,0,8.414-3.636,8.414-7.064c0-0.415-0.104-1.142-0.52-1.662L288.581,399.16z
		 M277.571,390.643h-11.426v-22.125h11.426c6.752,0,11.114,2.909,11.114,11.115S284.323,390.643,277.571,390.643z"/>
	<path style="fill:#FF507E;" d="M318.604,356.676c-3.427,0-6.752,1.246-6.752,4.155v67.519c0,2.805,3.325,4.259,6.752,4.259
		c3.325,0,6.753-1.454,6.753-4.259v-67.519C325.356,357.922,321.928,356.676,318.604,356.676z"/>
	<path style="fill:#FF507E;" d="M380.724,368.517c2.701,0,4.259-2.805,4.259-6.025c0-2.805-1.35-5.817-4.259-5.817h-36.979
		c-3.012,0-5.921,1.454-5.921,4.259v67.415c0,2.805,2.909,4.259,5.921,4.259h36.979c2.909,0,4.259-3.012,4.259-5.817
		c0-3.22-1.558-6.025-4.259-6.025h-29.396v-20.879h15.789c2.909,0,4.259-2.805,4.259-5.194c0-2.805-1.559-5.402-4.259-5.402h-15.789
		v-20.775L380.724,368.517L380.724,368.517z"/>
	<path style="fill:#FF507E;" d="M417.188,356.676h-18.387c-3.532,0-5.921,1.973-5.921,4.155v67.623c0,2.181,2.389,4.155,5.921,4.155
		h18.387c13.711,0,24.41-6.44,24.41-23.788v-28.358C441.598,363.116,430.898,356.676,417.188,356.676z M428.094,408.821
		c0,8.102-4.051,11.946-10.907,11.946h-10.803v-52.249h10.803c6.855,0,10.907,3.844,10.907,11.945V408.821z"/>
</g>
<path style="fill:#FF9FAF;" d="M75.763,238.286c-5.939,2.359-10.117,7.25-11.789,12.939c-5.121-2.991-11.516-3.68-17.455-1.321
	c-10.249,4.072-15.256,15.68-11.184,25.929c9.263,23.315,47.599,23.116,47.599,23.116s28.021-26.164,18.758-49.479
	C97.621,239.221,86.012,234.214,75.763,238.286z"/>
<path style="fill:#EF92A6;" d="M75.763,238.286c-5.939,2.359-10.117,7.25-11.789,12.939l18.96,47.724
	c0,0,28.021-26.164,18.758-49.479C97.621,239.221,86.012,234.214,75.763,238.286z"/>
<path style="fill:#FF9FAF;" d="M425.987,238.286c5.939,2.359,10.117,7.25,11.789,12.939c5.121-2.991,11.516-3.68,17.455-1.321
	c10.249,4.072,15.256,15.68,11.184,25.929c-9.263,23.315-47.599,23.116-47.599,23.116s-28.021-26.164-18.758-49.479
	C404.129,239.221,415.738,234.214,425.987,238.286z"/>
<path style="fill:#EF92A6;" d="M437.776,251.225c5.121-2.991,11.516-3.68,17.455-1.321c10.249,4.072,15.256,15.68,11.184,25.929
	c-9.263,23.315-47.599,23.116-47.599,23.116L437.776,251.225z"/>
<circle style="fill:#FF6991;" cx="250.87" cy="43.381" r="22.793"/>
<path style="fill:#FF507E;" d="M266.992,27.266L234.758,59.5c8.901,8.901,23.333,8.901,32.234,0S275.893,36.168,266.992,27.266z"/>
<g>
</g>
<g>
</g>
<g>
</g>
<g>
</g>
<g>
</g>
<g>
</g>
<g>
</g>
<g>
</g>
<g>
</g>
<g>
</g>
<g>
</g>
<g>
</g>
<g>
</g>
<g>
</g>
<g>
</g>
</svg>
