<svg viewBox="0 0 512 512" xmlns="http://www.w3.org/2000/svg"><g><path d="M228.474 96.465V62.009c0-8.427-6.832-15.259-15.259-15.259s-15.259 6.832-15.259 15.259V182.534c0 16.815 13.631 30.446 30.446 30.446h54.055c9.001 0 17.54-3.983 23.325-10.878l59.936-71.444c4.912-5.855 4.194-14.572-1.608-19.545a13.942 13.942 0 0 0-18.671.473l-19.617 18.62c-1.903 1.807-5.045.471-5.065-2.153l-.727-96.488c0-8.427-6.832-15.259-15.259-15.259s-15.259 6.832-15.259 15.259v47.994z" fill="#ffcebf"></path><path d="M289.512 96.465V15.259C289.512 6.832 282.68 0 274.252 0c-8.427 0-15.259 6.832-15.259 15.259v79.183z" fill="#ffcebf"></path><path d="M275.48.049a15.168 15.168 0 0 0-8.857 2.009c4.557 2.639 7.63 7.556 7.63 13.201v73.054a7.63 7.63 0 0 0 15.259 0v-72.63c0-8.029-6.028-14.998-14.032-15.634z" fill="#ffb09e"></path><path d="M258.993 96.465V31.563c0-8.427-6.832-15.259-15.259-15.259s-15.259 6.832-15.259 15.259v72.56z" fill="#ffcebf"></path><path d="M244.961 16.353a15.168 15.168 0 0 0-8.857 2.009c4.557 2.639 7.63 7.556 7.63 13.201v62.905a7.63 7.63 0 0 0 15.259 0V31.987c0-8.029-6.028-14.998-14.032-15.634zM214.443 46.785a15.168 15.168 0 0 0-8.857 2.009c4.557 2.639 7.63 7.556 7.63 13.201v32.459a7.63 7.63 0 0 0 15.259 0V62.42c-.001-8.029-6.028-14.998-14.032-15.635z" fill="#ffb09e"></path><path d="M197.956 501.851V233.277c0-11.21 9.087-20.297 20.297-20.297h75.928c11.21 0 20.297 9.087 20.297 20.297v268.574c0 5.605-4.544 10.149-10.149 10.149h-96.225c-5.604 0-10.148-4.544-10.148-10.149z" fill="#fe646f"></path><path d="M197.956 250.17h116.522v15.223H197.956z" fill="#fd4755"></path><path d="M348.138 501.851V383.558c0-10.655 8.638-19.293 19.293-19.293H439.6c10.655 0 19.293 8.638 19.293 19.293v118.293c0 5.605-4.544 10.149-10.149 10.149h-90.457c-5.605 0-10.149-4.544-10.149-10.149z" fill="#8ac9fe"></path><path d="M348.138 399.238h110.754v15.223H348.138z" fill="#60b7ff"></path><g fill="#ffcebf"><path d="M134.854 253.519v-32.75c0-8.01 6.494-14.504 14.504-14.504s14.504 6.494 14.504 14.504v114.558c0 15.982-12.956 28.939-28.939 28.939h-51.38a28.935 28.935 0 0 1-22.17-10.34L4.404 286.018c-4.668-5.565-3.987-13.851 1.528-18.578a13.25 13.25 0 0 1 17.746.45l18.323 17.392c1.932 1.834 5.12.478 5.14-2.185l.688-91.267c0-8.01 6.494-14.504 14.504-14.504s14.504 6.494 14.504 14.504v45.618z" fill="#ffcebf"></path><path d="M76.838 253.519v-77.186c0-8.01 6.494-14.504 14.504-14.504s14.504 6.494 14.504 14.504v76.77zM105.846 253.519V191.83c0-8.01 6.494-14.504 14.504-14.504s14.504 6.494 14.504 14.504v69.973z" fill="#ffcebf"></path></g><path d="M120.35 177.326c-2.348 0-4.558.57-6.52 1.561 4.732 2.389 7.984 7.28 7.984 12.943v61.331a6.52 6.52 0 0 0 4.729 6.269c4.165 1.189 8.31-1.938 8.31-6.269V191.83c.001-8.01-6.493-14.504-14.503-14.504zM91.342 161.829c-2.348 0-4.558.57-6.52 1.561 4.732 2.389 7.984 7.28 7.984 12.943v71.479a6.52 6.52 0 0 0 4.729 6.269c4.165 1.189 8.31-1.938 8.31-6.269v-71.479c.001-8.01-6.493-14.504-14.503-14.504zM62.334 177.326c-2.348 0-4.558.57-6.52 1.561 4.732 2.389 7.984 7.28 7.984 12.943v61.331a6.52 6.52 0 0 0 4.729 6.269c4.165 1.189 8.31-1.938 8.31-6.269V191.83c.001-8.01-6.492-14.504-14.503-14.504z" fill="#ffb09e"></path><path d="M163.862 501.851V383.558c0-10.655-8.638-19.293-19.293-19.293H72.4c-10.655 0-19.293 8.638-19.293 19.293v118.293c0 5.605 4.544 10.149 10.149 10.149h90.457c5.605 0 10.149-4.544 10.149-10.149z" fill="#fee45a"></path><path d="M53.108 399.238h110.754v15.223H53.108z" fill="#fed402"></path><g fill="#ffcebf"><path d="M377.146 253.519v-32.75c0-8.01-6.494-14.504-14.504-14.504s-14.504 6.494-14.504 14.504v114.558c0 15.982 12.956 28.939 28.939 28.939h51.379a28.935 28.935 0 0 0 22.17-10.34l56.969-67.907c4.668-5.565 3.987-13.851-1.528-18.578a13.25 13.25 0 0 0-17.746.45l-18.323 17.392c-1.932 1.834-5.12.478-5.141-2.185l-.688-91.267c0-8.01-6.494-14.504-14.504-14.504s-14.504 6.494-14.504 14.504v45.618z" fill="#ffcebf"></path><path d="M435.162 253.519v-77.186c0-8.01-6.494-14.504-14.504-14.504s-14.504 6.494-14.504 14.504v76.77z" fill="#ffcebf"></path><path d="M406.154 253.519V191.83c0-8.01-6.494-14.504-14.504-14.504s-14.504 6.494-14.504 14.504v69.973z" fill="#ffcebf"></path></g><path d="M391.65 177.326c-2.348 0-4.558.57-6.52 1.561 4.732 2.389 7.984 7.28 7.984 12.943v61.331a6.52 6.52 0 0 0 4.729 6.269c4.165 1.189 8.31-1.938 8.31-6.269V191.83c.001-8.01-6.493-14.504-14.503-14.504zM420.658 161.829c-2.348 0-4.558.57-6.52 1.561 4.732 2.389 7.984 7.28 7.984 12.943v71.479a6.52 6.52 0 0 0 4.729 6.269c4.165 1.189 8.31-1.938 8.31-6.269v-71.479c.001-8.01-6.493-14.504-14.503-14.504zM449.687 177.326c-2.348 0-4.558.57-6.52 1.561 4.732 2.389 7.984 7.28 7.984 12.943v61.331a6.52 6.52 0 0 0 4.729 6.269c4.165 1.189 8.31-1.938 8.31-6.269V191.83c.001-8.01-6.492-14.504-14.503-14.504z" fill="#ffb09e"></path></g></svg>