<svg viewBox="0 0 497 497" xmlns="http://www.w3.org/2000/svg"><g><path d="M37.7 421.6V497c20.821 0 37.7-16.879 37.7-37.7s-16.879-37.7-37.7-37.7z" fill="#f9b348"></path><path d="M45.4 459.3c0-20.821-3.447-37.7-7.7-37.7-20.821 0-37.7 16.879-37.7 37.7S16.879 497 37.7 497c4.253 0 7.7-16.879 7.7-37.7z" fill="#f3da49"></path><path d="M37.7 316.2v75.4c20.821 0 37.7-16.879 37.7-37.7s-16.879-37.7-37.7-37.7z" fill="#f9b348"></path><path d="M45.4 353.9c0-20.821-3.447-37.7-7.7-37.7-20.821 0-37.7 16.879-37.7 37.7s16.879 37.7 37.7 37.7c4.253 0 7.7-16.879 7.7-37.7z" fill="#f3da49"></path><path d="M143.1 421.6V497c20.821 0 37.7-16.879 37.7-37.7s-16.879-37.7-37.7-37.7z" fill="#ff8b47"></path><path d="M150.8 459.3c0-20.821-3.447-37.7-7.7-37.7-20.821 0-37.7 16.879-37.7 37.7s16.879 37.7 37.7 37.7c4.252 0 7.7-16.879 7.7-37.7z" fill="#f9b348"></path><path d="M143.1 316.2v75.4c20.821 0 37.7-16.879 37.7-37.7s-16.879-37.7-37.7-37.7z" fill="#ff8b47"></path><path d="M150.8 353.9c0-20.821-3.447-37.7-7.7-37.7-20.821 0-37.7 16.879-37.7 37.7s16.879 37.7 37.7 37.7c4.252 0 7.7-16.879 7.7-37.7z" fill="#f9b348"></path><path d="M143.1 210.8v75.4c20.821 0 37.7-16.879 37.7-37.7s-16.879-37.7-37.7-37.7z" fill="#ff8b47"></path><path d="M150.8 248.5c0-20.821-3.447-37.7-7.7-37.7-20.821 0-37.7 16.879-37.7 37.7s16.879 37.7 37.7 37.7c4.252 0 7.7-16.879 7.7-37.7z" fill="#f9b348"></path><path d="M143.1 105.4v75.4c20.821 0 37.7-16.879 37.7-37.7s-16.879-37.7-37.7-37.7z" fill="#ff8b47"></path><path d="M150.8 143.1c0-20.821-3.447-37.7-7.7-37.7-20.821 0-37.7 16.879-37.7 37.7s16.879 37.7 37.7 37.7c4.252 0 7.7-16.879 7.7-37.7z" fill="#f9b348"></path><path d="M143.1 0v75.4c20.821 0 37.7-16.879 37.7-37.7S163.921 0 143.1 0z" fill="#ff8b47"></path><path d="M150.8 37.7c0-20.821-3.447-37.7-7.7-37.7-20.821 0-37.7 16.879-37.7 37.7s16.879 37.7 37.7 37.7c4.252 0 7.7-16.879 7.7-37.7z" fill="#f9b348"></path><path d="M248.5 421.6V497c20.821 0 37.7-16.879 37.7-37.7s-16.879-37.7-37.7-37.7z" fill="#61ce5b"></path><path d="M256.2 459.3c0-20.821-3.447-37.7-7.7-37.7-20.821 0-37.7 16.879-37.7 37.7s16.879 37.7 37.7 37.7c4.252 0 7.7-16.879 7.7-37.7z" fill="#94e368"></path><path d="M248.5 316.2v75.4c20.821 0 37.7-16.879 37.7-37.7s-16.879-37.7-37.7-37.7z" fill="#61ce5b"></path><path d="M256.2 353.9c0-20.821-3.447-37.7-7.7-37.7-20.821 0-37.7 16.879-37.7 37.7s16.879 37.7 37.7 37.7c4.252 0 7.7-16.879 7.7-37.7z" fill="#94e368"></path><path d="M248.5 210.8v75.4c20.821 0 37.7-16.879 37.7-37.7s-16.879-37.7-37.7-37.7z" fill="#61ce5b"></path><path d="M256.2 248.5c0-20.821-3.447-37.7-7.7-37.7-20.821 0-37.7 16.879-37.7 37.7s16.879 37.7 37.7 37.7c4.252 0 7.7-16.879 7.7-37.7z" fill="#94e368"></path><path d="M248.5 105.4v75.4c20.821 0 37.7-16.879 37.7-37.7s-16.879-37.7-37.7-37.7z" fill="#61ce5b"></path><path d="M256.2 143.1c0-20.821-3.447-37.7-7.7-37.7-20.821 0-37.7 16.879-37.7 37.7s16.879 37.7 37.7 37.7c4.252 0 7.7-16.879 7.7-37.7z" fill="#94e368"></path><path d="M353.9 421.6V497c20.821 0 37.7-16.879 37.7-37.7s-16.879-37.7-37.7-37.7z" fill="#28abfa"></path><path d="M361.6 459.3c0-20.821-3.447-37.7-7.7-37.7-20.821 0-37.7 16.879-37.7 37.7s16.879 37.7 37.7 37.7c4.252 0 7.7-16.879 7.7-37.7z" fill="#14cfff"></path><path d="M353.9 316.2v75.4c20.821 0 37.7-16.879 37.7-37.7s-16.879-37.7-37.7-37.7z" fill="#28abfa"></path><path d="M361.6 353.9c0-20.821-3.447-37.7-7.7-37.7-20.821 0-37.7 16.879-37.7 37.7s16.879 37.7 37.7 37.7c4.252 0 7.7-16.879 7.7-37.7z" fill="#14cfff"></path><path d="M353.9 210.8v75.4c20.821 0 37.7-16.879 37.7-37.7s-16.879-37.7-37.7-37.7z" fill="#28abfa"></path><path d="M361.6 248.5c0-20.821-3.447-37.7-7.7-37.7-20.821 0-37.7 16.879-37.7 37.7s16.879 37.7 37.7 37.7c4.252 0 7.7-16.879 7.7-37.7z" fill="#14cfff"></path><path d="M353.9 105.4v75.4c20.821 0 37.7-16.879 37.7-37.7s-16.879-37.7-37.7-37.7z" fill="#28abfa"></path><path d="M361.6 143.1c0-20.821-3.447-37.7-7.7-37.7-20.821 0-37.7 16.879-37.7 37.7s16.879 37.7 37.7 37.7c4.252 0 7.7-16.879 7.7-37.7z" fill="#14cfff"></path><path d="M353.9 0v75.4c20.821 0 37.7-16.879 37.7-37.7S374.721 0 353.9 0z" fill="#28abfa"></path><path d="M361.6 37.7c0-20.821-3.447-37.7-7.7-37.7-20.821 0-37.7 16.879-37.7 37.7s16.879 37.7 37.7 37.7c4.252 0 7.7-16.879 7.7-37.7z" fill="#14cfff"></path><path d="M459.3 421.6V497c20.821 0 37.7-16.879 37.7-37.7s-16.879-37.7-37.7-37.7z" fill="#9255e3"></path><path d="M467 459.3c0-20.821-3.447-37.7-7.7-37.7-20.821 0-37.7 16.879-37.7 37.7s16.879 37.7 37.7 37.7c4.252 0 7.7-16.879 7.7-37.7z" fill="#ae7df0"></path><path d="M459.3 316.2v75.4c20.821 0 37.7-16.879 37.7-37.7s-16.879-37.7-37.7-37.7z" fill="#9255e3"></path><path d="M467 353.9c0-20.821-3.447-37.7-7.7-37.7-20.821 0-37.7 16.879-37.7 37.7s16.879 37.7 37.7 37.7c4.252 0 7.7-16.879 7.7-37.7z" fill="#ae7df0"></path><path d="M459.3 210.8v75.4c20.821 0 37.7-16.879 37.7-37.7s-16.879-37.7-37.7-37.7z" fill="#9255e3"></path><path d="M467 248.5c0-20.821-3.447-37.7-7.7-37.7-20.821 0-37.7 16.879-37.7 37.7s16.879 37.7 37.7 37.7c4.252 0 7.7-16.879 7.7-37.7z" fill="#ae7df0"></path></g></svg>