<svg viewBox="0 0 512 512" xmlns="http://www.w3.org/2000/svg"><g><path d="M212.822 106.639h-16.263l-1 1.071v9.579c0 8.559-5.048 13.432-12.657 17.354-10.443 5.384-13.581 35.937 6.054 45.903l5.579.843 39.055-15.118v-22.143z" fill="#365e7d"></path><path d="M209.931 134.643c5.807-2.994 10.114-6.547 11.832-11.864l-8.941-16.14h-16.263l-1 1.071v9.579c0 8.559-5.048 13.432-12.657 17.354-10.443 5.384-13.581 35.937 6.054 45.903l5.579.843 14.855-5.75c-12.077-12.672-8.527-36.32.541-40.996z" fill="#2b4d66"></path><path d="M329.041 134.643c-7.629-3.933-12.654-8.808-12.654-17.352v-9.733l-1.595-1.508h-17.059l-19.591 39.605v20.043l40.315 15.691 3.75-1.136c19.228-10.234 17.176-40.277 6.834-45.61z" fill="#365e7d"></path><path d="m345.718 189.359-47.986-18.584-4.282 1.898h-74.063l-5.291-1.873-47.871 18.559c-10.303 4.24-24.098 17.581-24.098 37.377v67.359h227.687v-67.359c.001-17.049-10.914-31.952-24.096-37.377z" fill="#ff7f87"></path><path d="m316.309 79.637-1.346-1.354H298.9v28.146l.887 1.832h12.124c8.091 0 14.649-6.559 14.649-14.649.001-6.558-4.31-12.107-10.251-13.975zM195.559 79.5l.002.014c-6.176 1.722-10.713 7.374-10.713 14.098 0 8.09 6.559 14.649 14.649 14.649h12.658l1.391-1.622V78.197h-16.951z" fill="#ffcebe"></path><path d="M313.25 78.283h-14.349v28.146l.887 1.832h12.124c.452 0 .897-.028 1.339-.068v-29.91zM199.198 93.612c0-6.725 4.537-12.377 10.713-14.098l-.002-.014 1.038-1.302h-14.349L195.56 79.5l.002.014c-6.176 1.722-10.713 7.374-10.713 14.098 0 8.09 6.559 14.649 14.649 14.649h12.658l.08-.093c-7.332-.803-13.038-7.011-13.038-14.556z" fill="#ffb1a0"></path><path d="M283.457 165.246a4.458 4.458 0 0 1-2.848-4.144l-.012-14.927-1.959-2.047H233.59l-2.283 2.135v14.812c0 3.41-3.041 4.231-4.338 4.734l-12.872 4.991c5.253 16.969 20.844 30.345 42.324 30.417 19.274.065 35.711-12.884 41.311-30.442l-14.275-5.529z" fill="#ffcebe"></path><path d="M255.973 144.128H233.59l-2.283 2.135v14.812c0 3.41-3.041 4.231-4.338 4.734l-12.872 4.991c5.216 16.85 20.629 30.151 41.876 30.407z" fill="#ffb1a0"></path><path d="M295.284 75.258h-19.241l-15.118-18.783h-9.01L237.9 71.657v38.731c0 18.294 11.246 35.343 29.44 41.853 18.61-4.899 32.447-22.139 32.447-42.222V78.963z" fill="#ffdecf"></path><path d="M238.929 110.443v-39.9l-5.339 5.784h-19.493l-1.941 2.636v31.48c0 22.517 17.602 43.101 44.265 43.191a42.246 42.246 0 0 0 13.047-2.016c-18.809-5.71-30.539-22.796-30.539-41.175z" fill="#ffcebe"></path><path d="M255.176.005c-33.202.427-59.617 28.103-59.617 61.308v18.201a14.627 14.627 0 0 1 3.939-.551H223.612c1.494 0 9.898-.684 9.281-.637 10.634-.814 19.831-8.848 22.364-19.287.081-.333.373-.571.716-.571s.636.238.716.571c2.532 10.415 11.644 18.355 22.121 19.244 7.61.645 7.713.68 9.086.68h24.015c1.562 0 3.064.25 4.476.702V60.414c0-33.631-27.478-60.843-61.211-60.409z" fill="#365e7d"></path><path d="M222.588 61.313c0-28.846 19.94-53.508 46.942-59.769A60.599 60.599 0 0 0 255.176.005c-33.202.427-59.617 28.103-59.617 61.308v18.201a14.627 14.627 0 0 1 3.939-.551h23.09z" fill="#2b4d66"></path><path d="M326.751 223.72h-16.263l-1 1.071v9.579c0 8.559-5.048 13.432-12.657 17.354-10.443 5.384-13.581 35.937 6.054 45.903l5.579.843 39.055-15.118v-22.143z" fill="#365e7d"></path><path d="M323.86 251.724c5.807-2.994 10.114-6.547 11.832-11.864l-8.941-16.14h-16.263l-1 1.071v9.579c0 8.559-5.048 13.432-12.657 17.354-10.443 5.384-13.581 35.937 6.054 45.903l5.579.843 14.855-5.75c-12.077-12.672-8.527-36.32.541-40.996z" fill="#2b4d66"></path><path d="M442.97 251.724c-7.629-3.933-12.654-8.808-12.654-17.352v-9.733l-1.595-1.508h-17.059l-19.591 39.605v20.043l40.315 15.691 3.75-1.136c19.228-10.234 17.176-40.278 6.834-45.61z" fill="#365e7d"></path><path d="m459.647 306.44-47.986-18.584-4.282 1.898h-74.063l-5.291-1.873-47.871 18.559c-10.303 4.24-24.098 17.581-24.098 37.377v52.077h186.439V367.22h41.249v-23.404c0-17.048-10.915-31.951-24.097-37.376z" fill="#ffd064"></path><path d="m430.238 196.718-1.345-1.354H412.83v28.146l.887 1.832h12.124c8.09 0 14.649-6.559 14.649-14.649 0-6.558-4.31-12.107-10.252-13.975zM309.488 196.581l.002.014c-6.176 1.722-10.713 7.374-10.713 14.098 0 8.09 6.559 14.649 14.649 14.649h12.658l1.391-1.622v-28.442h-16.951z" fill="#ffcebe"></path><path d="M427.179 195.364H412.83v28.146l.887 1.832h12.124c.452 0 .897-.028 1.339-.068v-29.91zM313.127 210.693c0-6.725 4.537-12.377 10.713-14.098l-.002-.014 1.038-1.302h-14.349l-1.038 1.302.002.014c-6.176 1.722-10.713 7.374-10.713 14.098 0 8.09 6.559 14.649 14.649 14.649h12.658l.08-.093c-7.332-.803-13.038-7.011-13.038-14.556z" fill="#ffb1a0"></path><path d="M442.496 366.304v29.589h33.219a8.03 8.03 0 0 0 8.03-8.03v-21.559zM397.386 282.327a4.456 4.456 0 0 1-2.847-4.144l-.012-14.927-1.959-2.047h-45.049l-2.283 2.135v14.812c0 3.41-3.041 4.231-4.338 4.734l-12.872 4.991c5.253 16.969 20.844 30.345 42.324 30.417 19.274.065 35.711-12.884 41.311-30.442l-14.275-5.529z" fill="#ffcebe"></path><path d="M369.902 261.209h-22.383l-2.283 2.135v14.812c0 3.41-3.041 4.231-4.338 4.734l-12.872 4.991c5.216 16.85 20.629 30.151 41.876 30.407z" fill="#ffb1a0"></path><path d="M449.367 395.893v-47.814a6.872 6.872 0 0 0-13.744 0v47.814z" fill="#ffc250"></path><path d="M409.213 192.339h-19.241l-15.118-18.783h-9.01l-14.014 15.182v38.731c0 18.294 11.246 35.343 29.44 41.853 18.61-4.899 32.447-22.139 32.447-42.222v-31.055z" fill="#ffdecf"></path><path d="M352.858 227.524v-39.9l-5.339 5.784h-19.493l-1.941 2.636v31.48c0 22.517 17.602 43.101 44.265 43.191a42.246 42.246 0 0 0 13.047-2.016c-18.809-5.71-30.539-22.796-30.539-41.175z" fill="#ffcebe"></path><path d="M369.105 117.086c-33.202.427-59.617 28.103-59.617 61.308v18.201a14.627 14.627 0 0 1 3.939-.551H337.541c1.494 0 9.898-.684 9.281-.637 10.634-.814 19.831-8.848 22.364-19.287.081-.333.373-.571.716-.571s.636.238.716.571c2.532 10.415 11.644 18.355 22.121 19.244 7.61.645 7.713.68 9.086.68h24.015c1.562 0 3.064.25 4.476.702v-19.251c0-33.631-27.478-60.843-61.211-60.409z" fill="#365e7d"></path><path d="M336.517 178.394c0-28.846 19.94-53.508 46.942-59.769a60.599 60.599 0 0 0-14.354-1.539c-33.202.427-59.617 28.103-59.617 61.308v18.201a14.627 14.627 0 0 1 3.939-.551h23.09z" fill="#2b4d66"></path><path d="M198.306 193.692h-3.487l-1.572-1.506h-9.277v30.931l2.707 1.42h11.629c8.091 0 14.649-6.905 14.649-15.423 0-8.517-6.558-15.422-14.649-15.422zM85.867 193.694c-8.079.014-14.624 6.912-14.624 15.421 0 8.518 6.559 15.423 14.649 15.423h11.63l1.891-3.49v-28.862H88.566z" fill="#ffcebe"></path><path d="M199.261 193.743c-.317-.022-.632-.051-.955-.051h-3.487l-1.572-1.506h-9.277v30.931l2.707 1.42h11.629c.322 0 .638-.029.955-.051zM86.534 209.115c0-7.886 5.625-14.377 12.879-15.299v-1.63H88.566l-2.699 1.508c-8.079.014-14.624 6.912-14.624 15.421 0 8.518 6.559 15.423 14.649 15.423h11.63l.239-.441c-6.437-1.625-11.227-7.707-11.227-14.982z" fill="#ffb1a0"></path><path d="m231.846 306.44-47.386-18.352-3.659 1.754h-77.804l-3.3-1.893-47.344 18.491c-10.303 4.24-24.098 17.581-24.098 37.377v20.957h41.249v31.12h186.439v-52.076c0-17.05-10.915-31.953-24.097-37.378z" fill="#b3e59f"></path><path d="M63.549 327.637c0-13.958 3.314-23.613 11.104-29.907l-22.3 8.709c-10.303 4.24-24.098 17.581-24.098 37.377v20.957h35.293l.001-37.136z" fill="#95d6a4"></path><path d="M69.504 363.857H28.256v24.006a8.03 8.03 0 0 0 8.03 8.03h33.219v-32.036z" fill="#ffb1a0"></path><path d="M169.585 282.327a4.454 4.454 0 0 1-2.847-4.144l-.012-14.645-3.027-3.092h-43.522l-2.742 3.027v14.684c0 1.835-.882 2.917-1.898 3.606l-15.84 6.186c5.546 17.018 21.361 30.327 43.038 30.327 19.427 0 35.938-12.677 41.725-30.188l-14.875-5.761z" fill="#ffcebe"></path><path d="M142.079 260.446h-21.902l-2.742 3.027v14.684c0 1.835-.882 2.917-1.898 3.606l-15.84 6.186c5.489 16.845 21.044 30.047 42.382 30.315z" fill="#ffb1a0"></path><path d="M76.376 395.893v-47.814a6.872 6.872 0 0 0-13.744 0v47.814z" fill="#95d6a4"></path><path d="m184.461 189.895-3.659-2.443-2.749-11.911h-5.345l-22.295 16.187h-19.748l-1.663 2.685v32.237c0 17.93 10.729 34.666 28.186 41.59 17.149-5.992 29.489-22.321 29.489-41.488V194.89z" fill="#ffdecf"></path><path d="M129.66 226.752v-31.513l2.175-3.511H99.697l-2.175 3.511v31.513c0 22.965 17.994 43.941 45.213 43.941a43.705 43.705 0 0 0 15.571-2.86c-17.712-6.491-28.646-23.18-28.646-41.081z" fill="#ffcebe"></path><path d="M183.822 137.397c-4.198.323-8.051-2.317-8.859-6.45-1.361-6.96-4.807-13.867-18.267-13.867h-46.7c-17.139 0-31.033 13.894-31.033 31.033v34.058c0 7.217 5.85 13.067 13.067 13.067h53.002c11.855 0 22.151-6.651 27.375-16.422.405-.757 1.555-.462 1.555.397 0 8.814 7.211 16.025 16.025 16.025 4.62 0 8.4-3.78 8.4-8.4v-35.541c.001-8.372-7.304-14.458-14.565-13.9z" fill="#365e7d"></path><path d="M105.306 182.173v-34.059c0-17.139 13.894-31.033 31.033-31.033h-26.342c-17.139 0-31.033 13.894-31.033 31.033v34.059c0 7.216 5.85 13.067 13.067 13.067h26.342c-7.217-.001-13.067-5.851-13.067-13.067z" fill="#2b4d66"></path><path d="M312.179 312.246h-3.487l-1.572-1.506h-9.277v30.931l2.707 1.42h11.629c8.091 0 14.649-6.905 14.649-15.423 0-8.517-6.559-15.422-14.649-15.422zM199.74 312.248c-8.079.014-14.624 6.912-14.624 15.421 0 8.518 6.559 15.423 14.649 15.423h11.63l1.891-3.49V310.74h-10.847z" fill="#ffcebe"></path><path d="M313.133 312.297c-.317-.022-.632-.051-.955-.051h-3.487l-1.572-1.506h-9.277v30.931l2.707 1.42h11.629c.322 0 .638-.029.955-.051zM200.406 327.669c0-7.886 5.625-14.377 12.879-15.299v-1.63h-10.847l-2.699 1.508c-8.079.014-14.624 6.912-14.624 15.421 0 8.518 6.559 15.423 14.649 15.423h11.63l.239-.441c-6.437-1.625-11.227-7.707-11.227-14.982z" fill="#ffb1a0"></path><path d="m345.718 424.994-47.386-18.352-3.659 1.754h-77.804l-3.3-1.893-47.344 18.491c-10.303 4.24-24.098 17.581-24.098 37.377v20.957h41.249V512h145.19v-28.673h41.249V462.37c0-17.048-10.915-31.951-24.097-37.376z" fill="#80b4fb"></path><path d="M177.421 446.191c0-13.958 3.314-23.613 11.104-29.907l-22.3 8.709c-10.303 4.24-24.098 17.581-24.098 37.377v20.957h35.293l.001-37.136z" fill="#61a2f9"></path><path d="M183.377 482.411h-41.249v21.559a8.03 8.03 0 0 0 8.03 8.03h33.219z" fill="#ffb1a0"></path><path d="M328.566 482.411V512h33.219a8.03 8.03 0 0 0 8.03-8.03v-21.559zM283.457 400.881a4.454 4.454 0 0 1-2.847-4.144l-.012-14.645L277.57 379h-43.522l-2.742 3.027v14.684c0 1.835-.882 2.917-1.898 3.606l-15.84 6.186c5.546 17.018 21.361 30.327 43.038 30.327 19.427 0 35.938-12.677 41.725-30.188l-14.874-5.761z" fill="#ffcebe"></path><path d="M255.951 379h-21.902l-2.742 3.027v14.684c0 1.835-.882 2.917-1.898 3.606l-15.84 6.186c5.489 16.845 21.044 30.047 42.382 30.315z" fill="#ffb1a0"></path><path d="M190.248 512v-45.367a6.872 6.872 0 0 0-13.744 0V512zM335.438 512v-45.367a6.872 6.872 0 0 0-13.744 0V512z" fill="#61a2f9"></path><path d="m298.333 308.449-3.659-2.443-2.749-11.911h-5.345l-22.295 16.187h-19.748l-1.663 2.685v32.237c0 17.93 10.729 34.666 28.186 41.59 17.149-5.992 29.489-22.321 29.489-41.488v-31.862z" fill="#ffdecf"></path><path d="M243.532 345.306v-31.513l2.175-3.511h-32.138l-2.175 3.511v31.513c0 22.965 17.994 43.941 45.213 43.941a43.705 43.705 0 0 0 15.571-2.86c-17.711-6.491-28.646-23.18-28.646-41.081z" fill="#ffcebe"></path><path d="M297.694 255.951c-4.198.323-8.051-2.317-8.859-6.45-1.361-6.96-4.807-13.867-18.267-13.867h-46.7c-17.139 0-31.033 13.894-31.033 31.033v34.058c0 7.217 5.85 13.067 13.067 13.067h53.002c11.855 0 22.151-6.651 27.375-16.422.405-.757 1.555-.462 1.555.397 0 8.814 7.211 16.025 16.025 16.025 4.62 0 8.4-3.78 8.4-8.4v-35.541c.001-8.372-7.304-14.458-14.565-13.9z" fill="#365e7d"></path><path d="M219.178 300.727v-34.058c0-17.139 13.894-31.033 31.033-31.033h-26.342c-17.139 0-31.033 13.894-31.033 31.033v34.058c0 7.216 5.85 13.067 13.067 13.067h26.342c-7.217-.001-13.067-5.851-13.067-13.067z" fill="#2b4d66"></path></g></svg>