<svg viewBox="0 0 64 64" xmlns="http://www.w3.org/2000/svg"><g><path d="m1 44 6-22h50l6 22z" fill="#f5c137"></path><path d="M42 2H12v40h40V12z" fill="#dce7fb"></path><path d="M42 2v10h10z" fill="#ecf1fd"></path><path d="M42 8H10v40h44V20z" fill="#ecf1fd"></path><path d="M42 8v12h12z" fill="#f8faff"></path><g fill="#656"><path d="M50 40.75H14a.75.75 0 0 1 0-1.5h36a.75.75 0 0 1 0 1.5zM50 36.75H36a.75.75 0 0 1 0-1.5h14a.75.75 0 0 1 0 1.5zM50 32.75H36a.75.75 0 0 1 0-1.5h14a.75.75 0 0 1 0 1.5zM50 28.75H36a.75.75 0 0 1 0-1.5h14a.75.75 0 0 1 0 1.5zM50 24.75H36a.75.75 0 0 1 0-1.5h14a.75.75 0 0 1 0 1.5z" fill="#665566"></path></g><path d="M16.176 26.378 21 25h4l4.824 1.378A3 3 0 0 1 32 29.263V36H14v-6.737a3 3 0 0 1 2.176-2.885z" fill="#847686"></path><path d="M21 25v-4h4v4l.97.277a2.981 2.981 0 0 1-5.94 0z" fill="#eaa491"></path><path d="M18 32.25a.75.75 0 0 0-.75.75v3h1.5v-3a.75.75 0 0 0-.75-.75zM28 32.25a.75.75 0 0 0-.75.75v3h1.5v-3a.75.75 0 0 0-.75-.75z" fill="#746174"></path><path d="M21.5 12h3a2 2 0 0 1 2 2v3h-7v-3a2 2 0 0 1 2-2z" fill="#ffe750"></path><path d="m19.5 17 2.5-1.5a3.369 3.369 0 0 0 2.8 1.5h1.7v3.5A3.5 3.5 0 0 1 23 24a3.5 3.5 0 0 1-3.5-3.5z" fill="#f5b4a2"></path><path d="m41 48 3-4h19v18H1V44h19l3 4z" fill="#ffe750"></path><path d="M37 53.75H27a.751.751 0 0 1-.671-.415l-1-2a.75.75 0 1 1 1.342-.67l.793 1.585h9.072l.793-1.585a.75.75 0 0 1 1.342.67l-1 2a.751.751 0 0 1-.671.415z" fill="#847686"></path></g></svg>