<svg viewBox="0 0 256 256" xmlns="http://www.w3.org/2000/svg"><g><g fill="#ffe443"><path d="m79.2 148.4 8.1-22.9c.3-.7.1-1.5-.2-2-.5-.7-1.3-1.1-2.2-1L60.7 125c-.3 0-.6 0-.9-.1s-.5-.2-.7-.4l-19.3-14.8c-.7-.5-1.5-.6-2.2-.3s-1.3.9-1.5 1.7L31 134.8c-.1.3-.2.5-.3.7-.2.3-.4.5-.7.7L10 150c-.8.5-1.1 1.4-1 2.2.1.7.5 1.3 1.1 1.7l21 12.2c.3.2.5.4.7.6s.3.5.4.8l6.9 23.3c.2.8.8 1.3 1.5 1.5.8.3 1.6.1 2.3-.5L61 175.6c.2-.2.5-.4.7-.5.3-.1.6-.2.9-.1l24.3.6c.9 0 1.6-.5 2.1-1.1.4-.6.5-1.4.1-2.1l-9.9-22.2c-.1-.3-.2-.5-.2-.8 0-.4.1-.7.2-1zM223.8 166.8l21.9-10.5c.7-.3 1.1-.9 1.3-1.6.2-.8-.1-1.7-.8-2.3l-18.9-15.3c-.3-.2-.5-.5-.6-.7s-.2-.5-.2-.8l-3.2-24.1c-.1-.8-.6-1.5-1.3-1.8s-1.5-.3-2.2.2l-20.4 13.2c-.2.1-.5.2-.7.3-.3.1-.6.1-1 0l-23.9-4.4c-.9-.2-1.8.2-2.3.9-.4.5-.6 1.3-.4 2l6.3 23.5c.1.3.1.6.1.9s-.1.6-.3.8l-11.6 21.4c-.4.7-.4 1.5 0 2.1.4.7 1.1 1.2 2 1.3l24.3 1.3c.3 0 .6.1.8.2.3.1.5.3.7.5l16.7 17.6c.6.7 1.5.8 2.3.6.7-.2 1.3-.7 1.6-1.4l8.7-22.7c.1-.3.3-.5.4-.7s.4-.4.7-.5zM159.7 109.2l19.7-23.7c.6-.8.8-1.7.6-2.5-.2-1-1-1.9-2.1-2.2L148 73.2c-.4-.1-.8-.3-1.1-.5s-.5-.5-.7-.7l-16.4-26c-.6-.9-1.5-1.4-2.5-1.4s-1.9.5-2.5 1.4l-16.4 26c-.2.3-.4.5-.7.7s-.7.4-1.1.5l-29.8 7.6c-1.1.3-1.9 1.2-2.1 2.2-.2.8 0 1.8.6 2.5L95 109.2c.2.3.4.6.5 1 .1.3.2.7.1 1.1l-2 30.7c-.1 1 .4 1.9 1.1 2.5.8.6 1.9.9 2.9.5l28.6-11.4c.3-.1.7-.2 1.1-.2s.7.1 1.1.2L157 145c1.1.4 2.2.2 2.9-.5.7-.6 1.2-1.5 1.1-2.5l-2-30.7c0-.4 0-.7.1-1.1.2-.4.4-.7.6-1z" fill="#ffe443"></path><circle cx="37.1" cy="60.1" fill="#ffe443" r="7.8"></circle><circle cx="101.5" cy="208.3" fill="#ffe443" r="6.7"></circle><circle cx="149.3" cy="186.6" fill="#ffe443" r="5"></circle><circle cx="195.7" cy="45.4" fill="#ffe443" r="4.3"></circle><circle cx="208.4" cy="62.4" fill="#ffe443" r="6.6"></circle></g></g></svg>