<svg viewBox="0 0 512 512" xmlns="http://www.w3.org/2000/svg"><g><path d="M165.498 90.502C74.242 90.502 0 164.744 0 256s74.242 165.498 165.498 165.498S330.997 347.256 330.997 256 256.755 90.502 165.498 90.502z" fill="#00dfc1"></path><path d="M512 256c0 91.26-74.24 165.5-165.5 165.5-33.37 0-64.47-9.93-90.5-27-45.13-29.58-75-80.62-75-138.5s29.87-108.92 75-138.5c26.03-17.07 57.13-27 90.5-27C437.76 90.5 512 164.74 512 256z" fill="#ff7a53"></path><path d="M331 256c0 5.06-.23 10.06-.68 15-1.12 12.45-3.63 24.5-7.37 36-3.4 10.5-7.83 20.54-13.17 30-13.07 23.21-31.58 42.95-53.78 57.5-22.2-14.55-40.71-34.29-53.78-57.5-5.34-9.46-9.77-19.5-13.17-30-3.74-11.5-6.25-23.55-7.37-36-.45-4.94-.68-9.94-.68-15s.23-10.06.68-15c1.12-12.45 3.63-24.5 7.37-36 3.4-10.5 7.83-20.54 13.17-30 13.07-23.21 31.58-42.95 53.78-57.5 22.2 14.55 40.71 34.29 53.78 57.5 5.34 9.46 9.77 19.5 13.17 30 3.74 11.5 6.25 23.55 7.37 36 .45 4.94.68 9.94.68 15z" fill="#cae8f9"></path><path d="M331 256c0 5.06-.23 10.06-.68 15-1.12 12.45-3.63 24.5-7.37 36-3.4 10.5-7.83 20.54-13.17 30-13.07 23.21-31.58 42.95-53.78 57.5v-277c22.2 14.55 40.71 34.29 53.78 57.5 5.34 9.46 9.77 19.5 13.17 30 3.74 11.5 6.25 23.55 7.37 36 .45 4.94.68 9.94.68 15z" fill="#b8e0f8"></path><path d="M322.95 205h-133.9c3.4-10.5 7.83-20.54 13.17-30h107.56c5.34 9.46 9.77 19.5 13.17 30zM331 256c0 5.06-.23 10.06-.68 15H181.68c-.45-4.94-.68-9.94-.68-15s.23-10.06.68-15h148.64c.45 4.94.68 9.94.68 15zM322.95 307c-3.4 10.5-7.83 20.54-13.17 30H202.22c-5.34-9.46-9.77-19.5-13.17-30h133.9z" fill="#00dfc1"></path><path d="M256 307h66.95c-3.4 10.5-7.83 20.54-13.17 30H256v-30zM322.95 205H256v-30h53.78c5.34 9.46 9.77 19.5 13.17 30zM331 256c0 5.06-.23 10.06-.68 15H256v-30h74.32c.45 4.94.68 9.94.68 15z" fill="#00af98"></path></g></svg>