<svg viewBox="0 0 503.219 503.219" xmlns="http://www.w3.org/2000/svg"><g><path d="m488.6 460.711-268.737 32.634L91.225 172.727 66.837 107.99l37.219-25.627 45.111 47.691 341.758 323.609c2.521 2.386 1.121 6.629-2.325 7.048z" fill="#fef6ad"></path><path d="M278.891 502.64a3.915 3.915 0 0 0 4.253-2.435l128.849-327.479 27.029-70.295-31.905-20.069-53.066 47.691-342.31 324.133c-2.36 2.235-1.128 6.206 2.083 6.712z" fill="#fee97d"></path><path d="m151.178 322.153 68.685 171.192 69.292-8.415 63.731-161.977-101.277-95.898z" fill="#fee45a"></path><path d="m380.218 83.28-32.559 5.828-.56.83-15.32 16.1c-2.74 2.88-2.23 7.54 1.07 9.76l98.69 66.36c3.3 2.22 7.8.93 9.44-2.69l9.13-20.26.56-.83V136.18z" fill="#aa9ea9"></path><path d="m350.208 120.755 16.415-16.71.6-.862 13.533-19.5-.537-.404-32.559 5.828-.56.83-15.32 16.1c-2.74 2.88-2.23 7.54 1.07 9.76l15.532 10.444a6.499 6.499 0 0 1 1.826-5.486z" fill="#9b8e99"></path><path d="M454.989 65.028c22.23 14.95 28.13 45.09 13.18 67.32l-17.5 26.03-103.01-69.27 17.5-26.03c14.95-22.23 45.09-28.13 67.32-13.18z" fill="#b5adb6"></path><path d="M385.973 76.167c12.246-17.639 34.002-25.357 54.214-21.088l-7.707-5.18c-22.23-14.95-52.37-9.05-67.32 13.18l-17.5 26.03 19.998 13.448zM171.439 106.038l-15.32-16.1-.56-.83-26.42-6.746-76.59 49.293v26.723l.56.83 9.13 20.26c1.64 3.62 6.14 4.91 9.44 2.69l98.69-66.36c3.3-2.22 3.81-6.88 1.07-9.76z" fill="#aa9ea9"></path><path d="m85.965 166.822-9.13-21.379-.56-.876-12.734-19.987-10.992 7.074v26.723l.56.83 9.13 20.26c1.64 3.62 6.14 4.91 9.44 2.69l17.663-11.877c-1.438-.633-2.672-1.817-3.377-3.458z" fill="#9b8e99"></path><path d="m138.059 63.078 17.5 26.03-103.01 69.27-17.5-26.03c-14.95-22.23-9.05-52.37 13.18-67.32l22.51-15.13c22.23-14.95 52.37-9.05 67.32 13.18z" fill="#b5adb6"></path><path d="M58.775 117.101c-12.23-19.191-10.499-43.963 2.705-60.98l-13.251 8.907c-22.23 14.95-28.13 45.09-13.18 67.32l17.5 26.03 22.77-15.312z" fill="#aa9ea9"></path><g fill="#baafb9"><path d="M129.139 8.028v20.51c0 7.26-5.89 13.15-13.15 13.15h-83.05c-7.26 0-13.15-5.89-13.15-13.15V8.028zM483.429 8.028v20.51c0 7.26-5.89 13.15-13.15 13.15h-83.05c-7.26 0-13.15-5.89-13.15-13.15V8.028z" fill="#baafb9"></path></g><path d="M141.548 15.531H7.5a7.5 7.5 0 0 1 0-15h134.048a7.5 7.5 0 0 1 0 15z" fill="#aa9ea9"></path><path d="M453.459 290.099a44.057 44.057 0 0 1-13.26-12.814c-2.057-3.044-6.578-2.766-8.316.472-2.867 5.342-7.356 9.587-13.483 12.738-3.306 1.7-3.546 6.329-.437 8.368 5.214 3.42 9.58 7.865 13.035 13.414 1.913 3.071 6.338 3.025 8.266-.037 3.515-5.58 8.263-10.207 14.222-13.9 3.057-1.897 3.022-6.332-.027-8.241z" fill="#fee45a"></path><path d="M204.825 410.039c-5.853-3.665-10.784-8.391-14.737-14.242-2.286-3.383-7.311-3.074-9.242.524-3.186 5.937-8.175 10.655-14.985 14.157-3.674 1.889-3.94 7.034-.486 9.3 5.794 3.801 10.647 8.741 14.487 14.907 2.126 3.413 7.044 3.362 9.187-.041 3.906-6.202 9.184-11.344 15.806-15.448 3.398-2.106 3.359-7.035-.03-9.157z" fill="#fedf30"></path><path d="M82.704 300.622a39.51 39.51 0 0 1-11.892-11.492c-1.845-2.73-5.899-2.48-7.457.423-2.571 4.791-6.597 8.598-12.092 11.423-2.965 1.525-3.18 5.676-.392 7.504 4.676 3.067 8.592 7.053 11.69 12.029 1.715 2.754 5.684 2.712 7.413-.033 3.152-5.004 7.411-9.154 12.754-12.466 2.743-1.699 2.711-5.676-.024-7.388z" fill="#fee45a"></path><path d="M495.719 15.531H361.671c-4.143 0-7.5-3.358-7.5-7.5s3.357-7.5 7.5-7.5h134.048a7.5 7.5 0 0 1 0 15z" fill="#aa9ea9"></path></g></svg>