<svg viewBox="0 0 512 512" xmlns="http://www.w3.org/2000/svg"><g><g clip-rule="evenodd" fill-rule="evenodd"><path d="M256 34a8 8 0 0 1 0-16c65.721 0 125.221 26.64 168.291 69.709C467.361 130.779 494 190.28 494 256c0 50.997-16.057 98.256-43.392 137.005-23.552 33.386-55.486 60.441-92.74 78.114l15.136 4.056a7.99 7.99 0 1 1-4.125 15.437l-37.833-10.137a7.952 7.952 0 0 1-4.755-3.554 8.008 8.008 0 0 1-.724-1.522 7.972 7.972 0 0 1 .781-6.924l18.282-33.837a7.983 7.983 0 0 1 14.062 7.562l-7.887 14.597c34.845-16.478 64.717-41.76 86.741-72.98C463.03 347.692 478 303.603 478 256c0-61.304-24.848-116.805-65.022-156.978C372.805 58.848 317.304 34 256 34z" fill="#3d8e95"></path><path d="M228.981 90.671h53.931v40.648c14.746 3.193 28.96 9.012 42.111 17.47l28.762-28.762 38.135 38.135-28.744 28.743a127.997 127.997 0 0 1 17.426 42.129h40.674V256H320.418c0-35.607-28.865-64.472-64.472-64.472S191.474 220.393 191.474 256H90.617v-26.966h40.648c3.192-14.746 9.012-28.96 17.47-42.111l-28.762-28.762 38.135-38.135 28.744 28.744a127.997 127.997 0 0 1 42.129-17.426z" fill="#ffb229"></path><path d="M256 478a8 8 0 0 1 0 16c-65.72 0-125.221-26.64-168.291-69.709C44.64 381.221 18 321.721 18 256c0-50.997 16.057-98.257 43.392-137.005 23.552-33.386 55.486-60.441 92.741-78.114l-15.136-4.056a7.99 7.99 0 0 1 4.125-15.437l37.833 10.137a7.952 7.952 0 0 1 4.755 3.554c.289.472.533.98.724 1.522a7.97 7.97 0 0 1-.781 6.925l-18.282 33.837a7.983 7.983 0 0 1-14.062-7.562l7.887-14.597c-34.845 16.478-64.717 41.76-86.741 72.98C48.97 164.308 34 208.397 34 256c0 61.304 24.848 116.805 65.022 156.978C139.195 453.152 194.696 478 256 478z" fill="#3d8e95"></path><path d="M165.933 313.904h39.328v66.751h-39.328z" fill="#54c4cc"></path><path d="M236.282 269.634h39.329v111.021h-39.329z" fill="#d8ecfe"></path><path d="M306.631 229.034h39.328v151.621h-39.328z" fill="#54c4cc"></path><path d="M380.628 372.655a8 8 0 0 1 0 16H131.265a8 8 0 0 1 0-16z" fill="#3d8e95"></path></g></g></svg>