<svg fill-rule="evenodd" viewBox="0 0 512 512" xmlns="http://www.w3.org/2000/svg"><g><path d="M145 503H6c-4 0-6-3-6-6V271c0-3 2-6 6-6h139c3 0 6 3 6 6v226c0 3-3 6-6 6z" fill="#cab191"></path><path d="M112 368H38c-3 0-6-3-6-6v-61c0-4 3-6 6-6h74c3 0 6 2 6 6v61c0 3-3 6-6 6zm-68-12h62v-49H44z" fill="#000000"></path><path d="M75 368c-3 0-6-3-6-6v-61c0-4 3-6 6-6s6 2 6 6v61c0 3-3 6-6 6zM112 473H38c-3 0-6-3-6-6v-61c0-4 3-6 6-6h74c3 0 6 2 6 6v61c0 3-3 6-6 6zm-68-12h62v-49H44z" fill="#000000"></path><path d="M75 473c-3 0-6-3-6-6v-61c0-4 3-6 6-6s6 2 6 6v61c0 3-3 6-6 6z" fill="#000000"></path><path d="M506 503H367c-3 0-6-3-6-6V271c0-3 3-6 6-6h139c4 0 6 3 6 6v226c0 3-2 6-6 6z" fill="#cab191"></path><path d="M367 503H145c-4 0-6-3-6-6V223c0-3 2-6 6-6h222c4 0 6 3 6 6v274c0 3-2 6-6 6z" fill="#f4eec9"></path><path d="M220 479h-27c-3 0-6-2-6-6v-87c0-3 3-6 6-6h27c4 0 6 3 6 6v87c0 4-2 6-6 6zm99 0h-27c-4 0-6-2-6-6v-87c0-3 2-6 6-6h27c3 0 6 3 6 6v87c0 4-3 6-6 6z" fill="#7d746a"></path><path d="M338 503H174c-4 0-6-3-6-6v-15c0-8 6-15 14-15h148c8 0 14 7 14 15v15c0 3-2 6-6 6z" fill="#5f5346"></path><path d="M353 290c-11 0-19-9-19-19 0-11 8-19 19-19s20 8 20 19c0 10-9 19-20 19z" fill="#c6c1a3"></path><path d="M326 290c-11 0-20-9-20-19 0-11 9-19 20-19s20 8 20 19c0 10-9 19-20 19z" fill="#b2ae93"></path><path d="M298 290c-11 0-20-9-20-19 0-11 9-19 20-19s20 8 20 19c0 10-9 19-20 19z" fill="#c6c1a3"></path><path d="M270 290c-11 0-20-9-20-19 0-11 9-19 20-19s20 8 20 19c0 10-9 19-20 19z" fill="#b2ae93"></path><path d="M242 290c-11 0-20-9-20-19 0-11 9-19 20-19s20 8 20 19c0 10-9 19-20 19z" fill="#c6c1a3"></path><path d="M214 290c-11 0-20-9-20-19 0-11 9-19 20-19s20 8 20 19c0 10-9 19-20 19z" fill="#b2ae93"></path><path d="M186 290c-11 0-20-9-20-19 0-11 9-19 20-19s20 8 20 19c0 10-9 19-20 19z" fill="#c6c1a3"></path><path d="M159 290c-11 0-20-9-20-19 0-11 9-19 20-19s19 8 19 19c0 10-8 19-19 19z" fill="#b2ae93"></path><path d="M406 356h62v-49h-62z" fill="#e3e7f3"></path><path d="M437 368c-3 0-6-3-6-6v-61c0-4 3-6 6-6s6 2 6 6v61c0 3-3 6-6 6z" fill="#a6a8b1"></path><path d="M474 368h-74c-3 0-6-3-6-6v-61c0-4 3-6 6-6h74c3 0 6 2 6 6v61c0 3-3 6-6 6zm-68-12h62v-49h-62z" fill="#4f5659"></path><path d="M406 461h62v-49h-62z" fill="#e3e7f3"></path><path d="M437 473c-3 0-6-3-6-6v-61c0-4 3-7 6-7s6 3 6 7v61c0 3-3 6-6 6z" fill="#a6a8b1"></path><path d="M474 473h-74c-3 0-6-3-6-6v-61c0-4 3-6 6-6h74c3 0 6 2 6 6v61c0 3-3 6-6 6zm-68-12h62v-49h-62z" fill="#4f5659"></path><path d="M44 356h62v-49H44z" fill="#e3e7f3"></path><path d="M75 368c-3 0-6-3-6-6v-61c0-4 3-6 6-6s6 2 6 6v61c0 3-2 6-6 6z" fill="#a6a8b1"></path><path d="M112 368H38c-3 0-6-3-6-6v-61c0-4 3-6 6-6h74c3 0 6 2 6 6v61c0 3-3 6-6 6zm-68-12h62v-49H44z" fill="#4f5659"></path><path d="M44 461h62v-49H44z" fill="#e3e7f3"></path><path d="M75 473c-3 0-6-3-6-6v-61c0-4 3-7 6-7s6 3 6 7v61c0 3-2 6-6 6z" fill="#a6a8b1"></path><path d="M112 473H38c-3 0-6-3-6-6v-61c0-4 3-6 6-6h74c3 0 6 2 6 6v61c0 3-3 6-6 6zm-68-12h62v-49H44zM256 95c-3 0-6-3-6-6V64c0-3 3-6 6-6s6 3 6 6v25c0 3-3 6-6 6z" fill="#4f5659"></path><path d="M361 200H151c-3 0-6-3-6-6 0-61 50-111 111-111s111 50 111 111c0 3-3 6-6 6z" fill="#cab191"></path><path d="M313 200H199c1-50 13-92 30-114 9-2 18-3 27-3s18 1 27 3c17 22 29 64 30 114z" fill="#b69f83"></path><path d="M367 229H145c-7 0-12-5-12-11v-19c0-6 5-11 12-11h222c7 0 12 5 12 11v19c0 6-5 11-12 11z" fill="#a48f78"></path><path d="M256 70h-3c-2-2-3-3-3-6V15c0-2 1-4 3-5s4-1 6 0l49 25c2 1 3 3 3 5s-1 4-3 5l-49 25h-3z" fill="#e65b47"></path><path d="M339 392H173c-2 0-5-2-5-4-1-3 0-5 2-7l82-64c2-2 6-2 8 0l82 64c2 1 3 3 3 5 0 3-3 6-6 6z" fill="#5f5346"></path></g></svg>