<svg viewBox="0 0 76 76" xmlns="http://www.w3.org/2000/svg"><g><path d="M37.97 9.66c1.07-1.39 3.34-3.07 6.96.09.3.26.62.5.97.68 1.67.8 5 2.82 5.57 4.57.21.65.22 1.35.23 2.03.01 1.06.03 2.12.04 3.18.01.55.02 1.11.27 1.6.34.66 1.12 1.15 1.11 1.9-.01.84-.99 1.35-1.19 2.16-.34 1.4 1.76 2.39 1.68 3.83-.06 1.01-1.2 1.79-1.05 2.79.18 1.27 2.22 1.59 2.41 2.86.16 1.06-1.11 1.87-1.11 2.94 0 .9.86 1.53 1.24 2.34.47 1.01.15 2.19.07 3.3s.35 3.09 2.24 4.87L38 50.25z" fill="#e6e6e6"></path><path d="M55.17 43.94c.08-1.11.4-2.29-.07-3.3-.38-.81-1.24-1.44-1.24-2.34 0-.57.36-1.08.68-1.58h-.53c-4.74 0-8.59-3.85-8.59-8.59V10.14c-.17-.12-.34-.25-.5-.39-3.62-3.16-5.89-1.47-6.96-.09L38 50.25l19.41-1.44c-1.89-1.78-2.32-3.76-2.24-4.87z" fill="#cccccc"></path><path d="M38.12 48.2V9.56c-.86.32-1.5.94-1.94 1.51-.49.63-1.32.9-2.1.72-1.91-.45-5.42-.34-7.71 5.47-.16.4-.31.81-.44 1.22l.1.03c1.13 10.11-.15 19.61-3.8 28.52z" fill="#973b17"></path><path d="M38.12 48.2V35.63c-3.97-3.63-6.48-8.83-6.48-14.64v-9.25c-1.75.36-3.77 1.71-5.27 5.51-.16.4-.31.81-.44 1.22l.1.03c1.13 10.11-.15 19.61-3.8 28.52z" fill="#8b2800"></path><path d="M38.01 48.19v-2.26c-5.49-1.44-9.55-6.43-9.55-12.37V13.7c-.75.84-1.46 1.98-2.08 3.55-.16.4-.31.81-.44 1.22l.1.03c1.13 10.11-.15 19.61-3.8 28.52z" fill="#0d0d0d" opacity=".2"></path><path d="M28.31 55.55c-2.36 3.66-1.69 9.96-1.69 9.96-4.13-4.82-2.77-10.67-2.77-10.67-2.04 1.37-2.11 5.72-2.11 5.72s-4.01-4.02-1.72-9.74c1.35-3.34 3.47-11.18 4.34-13.88.76-2.38.71-4.33.26-7.25-.29-2.26.19-12.41 3.84-15.99.51 4.08-.41 9.48.27 12.85.68 3.36-.08 10.05-.36 13.47-.11 1.33-.12 2.85.07 4.56.29 2.52 2.23 7.33-.13 10.97z" fill="#8b2800"></path><path d="M60.17 58.39v9.82H15.83v-9.82c0-8.41 6.83-15.26 15.25-15.26h13.85c8.41.01 15.24 6.85 15.24 15.26z" fill="#7cb518"></path><path d="M30.11 43.19c-7.96.5-14.28 7.12-14.28 15.21v9.82h44.34v-6.7H48.44c-10.13 0-18.33-8.21-18.33-18.33z" fill="#5c8001"></path><path d="m45.04 43.15-4.84 5.66c-.32.38-.49.85-.49 1.35V60.2c0 .63-.51 1.14-1.14 1.14h-1.49c-.64 0-1.14-.51-1.14-1.14V50.15c0-.49-.18-.97-.5-1.35l-4.84-5.66h14.44z" fill="#dc2f02"></path><path d="M36.9 55.17V43.15h-6.31l4.84 5.66c.32.38.5.85.5 1.35V60.2c0 .63.5 1.14 1.14 1.14h1.49c.63 0 1.14-.51 1.14-1.14v-2.22a2.81 2.81 0 0 1-2.8-2.81z" fill="#d00000"></path><path d="M42.32 36.86v6.02c0 .17-.06.34-.16.47l-2.89 3.63c-.21.27-.51.41-.84.41h-.02c-.1 0-.2-.02-.28-.05a.93.93 0 0 1-.29.05h-.02c-.33 0-.63-.14-.84-.41l-2.89-3.63c-.1-.13-.16-.3-.16-.47v-6.02c0-.42.35-.77.77-.77h6.87c.4 0 .75.35.75.77z" fill="#ffdab9"></path><path d="M41.56 36.09h-3.13v11.3c.33 0 .63-.14.84-.41l2.89-3.63c.1-.13.16-.3.16-.47v-6.02c0-.42-.35-.77-.76-.77z" fill="#f8ad9d"></path><path d="M38.29 37.64v3.43l4.03 2.07v-5.5z" fill="#f4978e"></path><path d="M38.12 41.07c5.99 0 10.84-5.49 10.84-12.26 0-.47-.02-.93-.07-1.38-.08-.79-.78-1.43-1.7-1.61h-.02c-.51-.1-1.06-.34-1.21-.78-.06-.16-.06-.35-.18-.49-.22-.25-.67-.2-1.02-.09-.34.11-.74.25-1.06.09-.3-.16-.36-.52-.35-.82.01-.31.03-.65-.19-.88-.2-.21-.55-.27-.74-.48-.18-.19-.19-.47-.14-.72.04-.25.12-.49.09-.74s-.22-.5-.51-.54c-.2-.02-.42.07-.59-.02-.24-.12-.15-.43-.05-.66.05-.13.08-.3.09-.49.07-1.75-1.44-3.16-3.19-3.16z" fill="#f8ad9d"></path><path d="M48.66 31.68c-1.11 5.22-5.17 9.12-10.06 9.37v-2.13c4.32-.1 8.4-3.04 10.06-7.24z" fill="#f4978e"></path><path d="M18.25 50.15a15.195 15.195 0 0 0-2.42 8.24v9.82h44.34v-2.9H33.42c-8.38.01-15.17-6.78-15.17-15.16z" fill="#0d0d0d" opacity=".2"></path><path d="M38.12 15.75c-.52.2-1 .51-1.38.93-.74.82-1.91 1.86-3.59 2.64-3.31 1.54-4.56 5.02-4.56 5.02-.28 1.2-.43 2.49-.43 3.82 0 7.13 4.3 12.9 9.63 12.9.11 0 .22-.02.33-.02z" fill="#ffdab9"></path><path d="M38.12 39.25c-4.86-.65-8.65-6.15-8.65-12.84 0-1.34.15-2.62.43-3.82 0 0 .22-.6.71-1.41-1.43 1.52-2.01 3.15-2.01 3.15-.28 1.2-.43 2.49-.43 3.82 0 7.13 4.3 12.9 9.63 12.9.11 0 .22-.02.33-.02v-1.78z" fill="#fbc4ab"></path><path d="M44.49 46.09h-6.53v8.26c2.58 2.59 6.14 4.21 10.08 4.21h7.98c.26 0 .48-.21.48-.47-.01-6.63-5.38-12-12.01-12z" fill="#ffffff" opacity=".2"></path><path d="M38.11 70c-.39 0-.71-.32-.71-.71V6.71c0-.39.32-.71.71-.71s.71.32.71.71v62.58a.7.7 0 0 1-.71.71z" fill="#03071e"></path></g></svg>