<svg viewBox="0 0 128 128" xmlns="http://www.w3.org/2000/svg"><g><path d="M50.3 86.7v-8.4l-23.4 6.6s1.7-10 13.9-13.5c3.7-1 6.9-1 9.5-.5V36.3H62c-1.3-3.9-2.5-7-3.5-9.1-1.7-3.5-3.5-1.2-7.4 2.2-2.8 2.3-9.9 7.4-20.6 10.2-10.7 2.9-19.3 2.1-22.9 1.5-5.1-.9-7.8-2-7.5 1.9.2 3.4 1 8.7 2.9 15.8C7 74 20.3 103.3 45.5 96.5c6.6-1.8 11.3-5.3 14.5-9.8zM12.6 59l17.9-4.7s-.5 6.9-7.2 8.7c-6.7 1.7-10.7-4-10.7-4z" fill="#e2574c"></path><path d="M118 37c-4.8.8-16.2 1.9-30.3-1.9S64.2 24.7 60.5 21.6c-5.3-4.4-7.6-7.4-9.8-2.8-2 4.1-4.6 10.7-7.1 20-5.4 20.1-9.4 62.5 23.9 71.4 33.4 8.9 51.1-29.8 56.5-49.9 2.5-9.3 3.6-16.3 3.9-20.8.4-5.2-3.1-3.7-9.9-2.5zM51 53.7s5.3-8.3 14.3-5.7S75 60.5 75 60.5zm21.8 36.5c-15.7-4.6-18.1-17.1-18.1-17.1l42.1 11.7c0 .1-8.5 9.9-24 5.4zM88 64.7s5.1-8.2 13.7-5.7c8.6 2.6 9.3 12.5 9.3 12.5z" fill="#efc75e"></path><path d="m74 90.5-1.2-.3c-15.7-4.6-18.1-17.1-18.1-17.1l22.2 6.2 11.4-44.1c-.2-.1-.4-.1-.6-.1-14.1-3.8-23.5-10.4-27.2-13.5-5.3-4.4-7.6-7.4-9.8-2.8-2 4.1-4.6 10.7-7.1 20-5.2 19.3-9.1 59.1 20.2 70.2l5 1.5zM51 53.7s5.3-8.3 14.3-5.7S75 60.5 75 60.5z" fill="#dcb757"></path><path d="M42 80.7 26.9 85s1.6-9.4 12.7-13.1L31 39.6c-.2.1-.4.1-.7.2-10.7 2.9-19.3 2.1-22.9 1.5-5.1-.9-7.8-2-7.5 1.9.2 3.4 1 8.7 2.9 15.8C7 74 20.3 103.3 45.5 96.5l.6-.2zM12.6 59l17.9-4.7s-.5 6.9-7.2 8.7c-6.7 1.7-10.7-4-10.7-4z" fill="#d05046"></path></g></svg>