<?xml version="1.0" encoding="iso-8859-1"?>
<!-- Generator: Adobe Illustrator 19.0.0, SVG Export Plug-In . SVG Version: 6.00 Build 0)  -->
<svg version="1.1" id="Layer_1" xmlns="http://www.w3.org/2000/svg" xmlns:xlink="http://www.w3.org/1999/xlink" x="0px" y="0px"
	 viewBox="0 0 512 512" style="enable-background:new 0 0 512 512;" xml:space="preserve">
<path style="fill:#C7D5DD;" d="M256.032,0.136h-11.145h-0.288h-0.52h-0.304l0,0h-0.296l0,0h-0.296l0,0h-0.296l0,0h-0.296l0,0
	c-3.432,0.424-6.841,0.776-10.209,1.072l0,0h-0.296l0,0h-0.288l0,0h-0.28l0,0h-0.272l0,0h-0.272l0,0h-0.16h-0.16h-0.144h-1.032
	h-0.12h-0.184h-0.12h-0.304h-0.12h-0.184h-0.12h-0.04h-0.128l0,0l-0.128,0.44l0,0h-0.136l0,0h-0.128l0,0h-0.144l0,0h-0.136l0,0
	h-0.144l0,0h-0.136l0,0h-0.144l0,0h-0.304l0,0h-0.304l0,0c-3.384,0.392-6.753,0.848-10.105,1.376l4.937,31.62
	c11.505-1.72,23.115-2.56,34.748-2.504V0.136z M177.302,12.458l-1.704,0.56l0,0l-0.16,0.056l0,0h-0.088l0,0l-0.16,0.056l0,0
	l-0.256,0.088l0,0l-0.12,0.04h-0.048h-0.072h-0.056h-0.112h-0.056h-0.064h-0.104h-0.056h-0.072h-0.072h-0.088h-0.048h-0.104h-0.056
	h-0.08h-0.048h-0.112h-0.048h-0.096l0,0h-0.112h-0.048h-0.112l0,0h-0.088h-0.04l-0.12,0.04h-0.04h-0.096h-0.048h-0.112l0,0
	l-0.12,0.04l0,0h-0.104l0,0l-0.12,0.04l0,0l-0.12,0.04l0,0l-0.128,0.048l0,0l-0.128,0.048l0,0l-0.12,0.04l0,0l-0.128,0.048l0,0
	l-0.272,0.096l0,0l-0.136,0.048l0,0l-0.128,0.048l0,0l-0.136,0.048l0,0l-0.272,0.096l0,0l-0.136,0.048l0,0l-0.144,0.048l0,0
	l-0.144,0.048l0,0l-0.288,0.104l0,0l-0.44,0.16l0,0l-0.288,0.104l0,0l-1.176,0.432l0,0l-1.464,0.544l0,0l-0.728,0.272l0,0
	l-0.728,0.28l0,0l-0.288,0.112l0,0l-0.432,0.168l0,0l-0.288,0.112l0,0l-0.144,0.056l0,0l-0.136,0.056l0,0l-0.136,0.056l0,0
	l-0.272,0.104l0,0l-0.136,0.056l0,0l-0.28,0.112l0,0l-0.28,0.112l0,0l-0.136,0.056l0,0l-0.272,0.104l0,0l-0.136,0.056l0,0
	l-0.128,0.048l0,0l-0.128,0.048l0,0l-0.12,0.048l0,0l-0.128,0.048l0,0l-0.12,0.048l0,0l-0.112,0.048l0,0l-0.12,0.048l0,0
	l-0.104,0.04l0,0l-0.12,0.048h-0.04l-0.12,0.048l0,0l-0.104,0.04l0,0l-0.112,0.048h-0.04h-0.096l0,0l-0.12,0.048l0,0l-0.12,0.048
	l0,0h-0.096l0,0l-0.112,0.048h-0.048h-0.088l0,0l-0.104,0.04h-0.056l-0.096,0.04h-0.056h-0.072h-0.056l-0.096,0.04h-0.056h-0.072
	h-0.072h-0.08h-0.056h-0.088h-0.072h-0.072h-0.048l-0.104,0.04h-0.064h-0.064h-0.088h-0.064h-0.064h-0.064h-0.088h-0.056
	l-0.096,0.04h-0.064h-0.064h-0.048l-0.112,0.048h-0.048h-0.072h-0.064l-0.096,0.04h-0.056l-0.136,0.056l0,0h-0.08l0,0l-0.136,0.056
	l0,0h-0.08l0,0l-0.16,0.072l0,0l-0.248,0.104l0,0l-1.456,2.352l0,0l-0.256,0.112l0,0c-4.945,2.136-9.809,4.409-14.586,6.825
	l14.442,28.516c10.401-5.273,21.211-9.721,32.308-13.306L177.302,12.458z M106.229,48.462c-4.265,3.072-8.417,6.273-12.458,9.601
	l0,0l-0.584,0.48l0,0l-0.36,0.296l0,0l-0.224,0.184l0,0l-0.736,0.608l0,0l-0.952,0.8l0,0l-0.952,0.8l0,0l-0.216,0.184l0,0
	l-0.136,0.16l0,0l-0.216,0.184l0,0l-0.136,0.12l0,0l-0.216,0.184l0,0l-0.216,0.184l0,0l-0.136,0.12l0,0l-0.208,0.176l0,0
	l-0.12,0.104l0,0l-0.072,0.056l0,0l-0.136,0.12l0,0l-0.136,0.112l0,0L87.947,63l0,0l-0.128,0.112l0,0l-0.208,0.184l0,0l-0.12,0.104
	l0,0l-0.208,0.184l0,0l-0.352,0.312l0,0l-0.208,0.184l0,0l-0.136,0.12l0,0l-0.2,0.176l0,0l-0.12,0.104l0,0l-0.072,0.064l0,0
	l-0.128,0.112l0,0l-0.2,0.176l0,0l-0.112,0.096l0,0l-0.2,0.176l0,0l-0.12,0.104l0,0l-0.064,0.056l0,0l-0.104,0.096l0,0l-0.128,0.12
	l0,0l-0.064,0.056l0,0l-0.112,0.096l0,0l-0.064,0.056l0,0l-0.12,0.104l0,0l-0.096,0.088l0,0l-0.056,0.056l0,0l-0.096,0.088l0,0
	l-0.08,0.072l-0.048,0.048l-0.056,0.048h-0.04l-0.08,0.08h-0.04l-0.056,0.048l0,0l-0.104,0.096l0,0l-0.096,0.088l0,0l-0.064,0.056
	l0,0l-0.104,0.096l0,0L83.65,66.76l0,0l-0.064,0.056l0,0l-0.088,0.08h-0.04l-0.056,0.048l-0.056,0.048l-0.08,0.072l0,0l-0.096,0.088
	l0,0l-0.056,0.056l-0.048,0.048l-0.072,0.072l0,0l-0.096,0.088l0,0l-0.056,0.048h-0.04l-0.088,0.08h-0.04l-0.048,0.048l-0.08,0.072
	l-0.048,0.048h-0.04l-0.08,0.072h-0.04l-0.056,0.048l-0.048,0.048l-0.08,0.072l0,0l-0.088,0.08l-0.04,0.04L81.97,68.12h-0.04
	l-0.08,0.08h-0.04l-0.048,0.048l-0.072,0.072l-0.056,0.048l-0.048,0.04l-0.072,0.064l-0.056,0.056l-0.048,0.048l-0.072,0.072
	l-0.048,0.048l-0.04,0.04l-0.072,0.064l-0.056,0.056l-0.048,0.04l-1.064,1.28v0.048l-0.056,0.056h-0.04l-0.08,0.072l-0.048,0.048
	l-0.056,0.048l-0.056,0.056l-0.064,0.056l-0.04,0.04l-0.08,0.08l0,0l-0.064,0.056l-0.056,0.056l-0.16,0.136v0.048l-0.064,0.064
	l-0.048,0.048l-0.088,0.088h-0.04l-0.08,0.072l-0.04,0.04l-0.064,0.064l-0.048,0.048l-0.064,0.064l-0.04,0.04l-0.08,0.08l0,0
	l-0.056,0.056l-0.088,0.088l-0.072,0.072l0,0l-0.088,0.08l0,0l-0.136,0.096l0,0l-0.08,0.08h-0.04l-0.064,0.064l-0.056,0.048
	l-0.064,0.064l0,0l-0.088,0.08l0,0l-0.064,0.056l-0.048,0.048l-0.072,0.072l0,0l-0.088,0.08l0,0l-0.072,0.072l0,0l-0.088,0.088l0,0
	l-0.08,0.08l0,0l-0.072,0.072l0,0l-0.088,0.088l0,0l-0.072,0.072l0,0l-0.44,0.536l0,0l-0.088,0.088l0,0l-0.072,0.072l0,0
	l-0.088,0.088l0,0l-0.088,0.088l0,0l-0.08,0.08l0,0l-0.088,0.088l0,0l-0.072,0.072l0,0l22.531,22.731
	c8.297-8.225,17.226-15.794,26.691-22.635l-18.954-25.771V48.462z M49.606,104.581c-0.984,1.336-1.96,2.688-2.912,4.041l0,0
	l-0.448,0.632l0,0l-0.264,0.376l0,0l-0.176,0.248l0,0l-0.264,0.376l0,0l-0.176,0.248l0,0l-0.08,0.12l0,0l-0.168,0.24l0,0l-0.08,0.12
	l0,0l-0.08,0.12l0,0l-0.08,0.12l0,0l-0.08,0.12l0,0l-0.08,0.112l0,0l-0.08,0.112l0,0l-0.08,0.112l0,0l-0.08,0.112l0,0l-0.08,0.112
	l0,0l-0.072,0.096l0,0l-0.072,0.112l0,0l-0.072,0.112l0,0l-0.064,0.096l0,0l-0.072,0.104l0,0l-0.064,0.096l0,0l-0.072,0.112l0,0
	l-0.072,0.112l0,0l-0.064,0.096l0,0l-0.072,0.104l0,0l-0.064,0.088l0,0l-0.064,0.088l0,0l-0.072,0.104v0.04l-0.048,0.08l0,0
	l-0.064,0.096v0.04l-0.064,0.096l0,0l-0.056,0.08v0.04l-0.064,0.096v0.048l-0.048,0.064l-0.048,0.072l-0.04,0.064v0.056
	l-0.048,0.072l-0.048,0.072v0.056l-0.048,0.072l-0.04,0.064v0.056l-0.64,0.696l-0.048,0.08v0.056v0.056l-0.056,0.088v0.056v0.056
	l-0.056,0.088v0.056v0.056v0.04l-0.072,0.104l0,0l-0.08,0.12l0,0l-0.328,0.104v0.04l-0.072,0.112l0,0l-0.144,0.216l0,0l-0.08,0.128
	l0,0l-0.048,0.072l0,0l-0.096,0.144l0,0l-0.152,0.232l0,0l-0.096,0.152l0,0l-0.152,0.232l0,0l-0.256,0.392l0,0l-0.152,0.24l0,0
	c-2.528,3.944-4.945,7.961-7.257,12.05l0,0l-0.136,0.24l0,0l-0.08,0.152l0,0l-0.128,0.224v0.04l-0.064,0.112l0,0v0.072v0.048
	l-0.056,0.104v0.048l-0.04,0.072l-0.04,0.08v0.064v0.064l-0.048,0.088v0.064v0.056l-0.504,0.304v0.048l-0.04,0.072v0.04
	l-0.056,0.104v0.04l-0.056,0.104l0,0l-0.048,0.088l0,0l-0.064,0.112l0,0l-0.064,0.112l0,0l-0.064,0.12l0,0l-0.064,0.12l0,0
	l-0.064,0.12l0,0l-0.072,0.128l0,0c-0.928,1.696-1.84,3.4-2.728,5.113l28.42,14.722c5.377-10.361,11.545-20.291,18.466-29.692
	L49.606,104.581z M12.962,175.342c-1.288,3.864-2.48,7.777-3.584,11.721l0,0l-0.016,0.128l0,0l-0.08,0.296l0,0l-0.08,0.288l0,0
	v0.136l0,0v0.128l0,0v0.136l0,0v0.112l0,0v0.128l0,0v0.12l0,0v0.128l0,0v0.128l0,0v0.112l0,0v0.12v0.048v0.088v0.048v0.112v0.056
	v0.088v0.064v0.08v0.064v0.096v0.072v0.064v0.064v0.104v0.064v0.064v0.088v0.072v0.064v0.056v0.12v0.048v0.072l0,0v0.136v0.336
	v0.144l0,0v0.08l0,0v0.144l0,0v0.08l0,0v0.152l0,0l-1.2,0.44l0,0v0.2l0,0v0.088l0,0l-0.048,0.176l0,0l-0.072,0.28l0,0l-0.072,0.288
	l0,0c-1.72,6.841-3.168,13.77-4.337,20.803l31.58,5.201c1.896-11.505,4.697-22.843,8.369-33.908L13.018,175.27L12.962,175.342z
	 M0,253.96v0.08c0,0.52,0,1.024,0,1.544l0,0V256l0,0v25.147v0.128v0.168v0.128v0.16v0.136v0.168v0.136l0,0v0.12l0,0v0.136l0,0v0.128
	l0,0v0.272l0,0v0.12l0,0v0.128v0.16v0.136l0,0v0.12l0,0v0.136l0,0v0.128l0,0v0.272l0,0v0.272l0,0v0.272l0,0v0.28l0,0
	c0.328,2.92,0.712,5.833,1.144,8.721l33.26-4.44c-1.608-10.969-2.408-22.043-2.4-33.132v-1.792C32.004,254.208,0,253.96,0,253.96z
	 M42.261,323.208l-30.532,9.601l0.4,1.272l0,0l0.088,0.272l0,0l0.048,0.144l0,0l0.08,0.248v0.04l0.04,0.128l0,0v0.072v0.048v0.12
	v0.048v0.072v0.096v0.072v0.056v0.088v0.08v0.064v0.08v0.072v0.08v0.056v0.104v0.056v0.08v0.048v0.112v0.04v0.12l0,0v0.112l0,0
	l0.04,0.12l0,0v0.112l0,0l0.04,0.128l0,0l0.048,0.136l0,0l0.04,0.128l0,0l0.048,0.136l0,0l0.048,0.136l0,0l0.048,0.144l0,0
	l0.248,0.736l0,0c3.216,9.409,6.985,18.626,11.281,27.595l0,0l0.128,0.272l0,0l0.064,0.128l0,0l0.064,0.128l0,0l0.064,0.128l0,0
	l0.056,0.112l0,0l0.048,0.096v0.04l0.048,0.104v0.056v0.064v0.072v0.08v0.064v0.056l0.048,0.104v0.048v0.072l0,0l0.072,0.152l0,0
	l0.8,1.6l28.652-14.266C49.454,344.843,45.438,334.154,42.261,323.208z M73.313,385.616l-26.107,18.498
	c7.729,10.865,16.29,21.123,25.603,30.66l22.883-22.403c-8.161-8.353-15.666-17.33-22.443-26.843L73.313,385.616z M122.119,435.518
	l-19.146,25.643c6.881,5.137,14.01,9.921,21.371,14.346l0,0l0.128,0.08l0,0l0.256,0.152l0,0l0.24,0.144l0,0l0.12,0.072l0,0
	l0.104,0.064l0,0l0.112,0.064l0,0l0.112,0.064l0,0l0.088,0.056l0,0l0.104,0.064h0.048l0.096,0.056l0,0l0.088,0.048h0.048
	l0.096,0.056h0.056h0.064l0.08,0.048h0.064h0.064h0.056l0.096,0.056h0.04l0.224,0.128l0,0l0.128,0.072l0,0l0.232,0.136l0,0
	l0.24,0.136l0,0l0.16,0.096l0,0c2.952,1.712,5.945,3.368,8.969,4.961l14.93-28.308c-10.337-5.449-20.235-11.689-29.604-18.674
	L122.119,435.518z M183.775,468.019l-10.313,30.3c4.121,1.4,8.297,2.704,12.514,3.904l0,0l0.752,0.216l0,0l0.76,0.208l0,0
	l1.328,0.368l0,0l0.76,0.208l0,0l0.8,0.2l0,0l0.28,0.072l0,0l0.272,0.072l0,0l0.184,0.048l0,0l0.28,0.072l0,0l0.272,0.072l0,0
	l0.272,0.072l0,0l0.168,0.04l0,0l0.272,0.072l0,0l0.272,0.072l0,0l0.272,0.072l0,0l0.168,0.04l0,0l0.272,0.064l0,0l0.272,0.064l0,0
	l0.16,0.04l0,0h0.088l0,0l0.168,0.04l0,0l0.272,0.064l0,0l0.176,0.04l0,0h0.088l0,0l0.168,0.04l0,0h0.088l0,0h0.144l0,0l0.256,0.064
	l0,0h0.144l0,0h0.08h0.048h0.136l0,0h0.088l0,0h0.16h0.04h0.168l0,0h0.08h0.048h0.136l0,0h0.08l0,0h0.136l0,0h0.08l0,0h0.16h0.04
	h0.152l0,0h0.08h0.04h0.128h0.048h0.08h0.056h0.112h0.056h0.072l0,0h0.144h0.04h0.136l0,0h0.08h0.048h0.128h0.048h0.072h0.048h0.128
	h0.048h0.152l0,0h0.08h0.048h0.128h0.048h0.08h0.048h0.128h0.04h0.08h0.04h0.136h0.048h0.128h0.048h0.08h0.04h0.136l0,0h0.08h0.04
	h0.136h0.04h0.08h0.096h0.08h0.048h0.128h0.8h0.08h0.048h0.144l0,0h0.08l0,0h0.144l0,0l0.264,0.056l0,0h0.152l0,0h0.08h0.04h0.128
	h0.04h0.08l0,0h0.136h0.048h0.168l0,0h0.08h0.048h0.12h0.056h0.072h0.048h0.12h0.224h0.072h0.096h0.072h0.064h0.064h0.104h0.064
	h0.064h0.104h0.064h0.064h0.072h0.104h0.064h0.064h0.104h0.072h0.064h0.096h0.08h0.072h0.064h0.104h0.064h0.072h0.072h0.096h0.056
	h0.072h0.104h0.072h0.056h0.104h0.072h0.064h0.072h0.104h0.064h0.072h0.064h0.112h0.056h0.072h0.104h0.064h0.072h0.08h0.08h0.072
	h0.072h0.104h0.064h0.072h0.104h0.064h0.064h0.088h0.088h0.064h0.072h0.096h0.064h0.064h0.08h0.096h0.072h0.064h0.104h0.064h0.064
	h0.104h0.088h0.08h0.056h0.104h0.072h0.072h0.088h0.08h0.064h0.064h0.112h0.064h0.08h0.08h0.088h0.128h0.104h0.072h0.064h0.096h0.08
	h0.128h0.112h0.128h0.112h0.056h0.072h0.064h0.112h0.104l5.441-31.54c-11.497-1.984-22.819-4.873-33.86-8.625L183.775,468.019z
	 M287.444,477.748c-10.409,1.432-20.907,2.136-31.412,2.112c-1.192,0-2.392,0-3.584,0l-0.496,32.004h3.24h12.466h0.264l0,0h0.264
	h0.152h0.272h0.144h0.272l0,0h0.272h0.144h0.272h0.144h0.272l0,0h0.272h0.144l0.704-0.04l0,0c6.937-0.408,13.778-1.08,20.539-2.032
	l-4.433-31.692L287.444,477.748z M354.076,457.425c-10.489,5.113-21.363,9.393-32.516,12.802l9.337,30.612
	c8.849-2.728,17.546-5.937,26.051-9.609l0,0l0.176-0.072l0,0l0.264-0.112l0,0l0.264-0.112l0,0l0.152-0.064l0,0l0.248-0.104l0,0
	l0.24-0.104l0,0l0.112-0.048h0.056h0.064h0.056l0.104-0.048h0.048h0.088h0.072h0.072h0.056l0.088-0.04h0.072h0.056l0.104-0.048
	h0.048h0.072h0.048l0.104-0.048h0.048h0.088h0.048l0.248-0.544l0,0l0.112-0.048l0,0l0.096-0.048l0,0l0.12-0.056l0,0l0.12-0.056l0,0
	l0.128-0.056l0,0l0.128-0.056l0,0l0.136-0.056l0,0l0.136-0.064l0,0l0.272-0.128l0,0c2.216-1,4.425-2.04,6.609-3.104l-14.018-28.804
	L354.076,457.425z M411.267,417.5c-8.425,8.089-17.466,15.514-27.043,22.203l18.322,26.243c6.457-4.513,12.698-9.313,18.706-14.402
	l0,0l0.12-0.096l0,0l0.224-0.192l0,0l0.104-0.088l0,0l0.104-0.088l0,0l0.096-0.088l0,0l0.088-0.072l0,0l0.08-0.072h0.04l0.088-0.072
	h0.04l0.064-0.056l0,0l0.088-0.072h0.04l0.072-0.064l0.056-0.048l0.056-0.048l0.048-0.04l0.08-0.064l0.056-0.048l0.048-0.04
	l0.08-0.072h0.04l0.056-0.048l0,0l0.104-0.088l0,0l0.112-0.096l0,0l0.064-0.056l0,0l0.12-0.104l0,0
	c3.328-2.888,6.577-5.849,9.737-8.889l-21.907-23.507L411.267,417.5z M453.489,361.973c-5.537,10.273-11.874,20.107-18.938,29.396
	l25.475,19.378l0,0l0.072-0.096l0,0l0.08-0.104l0,0l0.168-0.216l0,0l0.08-0.104l0,0l0.072-0.096l0,0l0.08-0.104l0,0l0.08-0.104l0,0
	l0.2-0.304l0,0l0.072-0.096l0,0l0.072-0.096l0,0l0.072-0.096l0,0l0.08-0.104l0,0l0.064-0.08l0,0l0.072-0.096l0,0l0.064-0.088v-0.048
	l0.056-0.072l0,0l0.072-0.096v-0.04l0.056-0.072v-0.056l0.056-0.072v-0.048l0.072-0.096v-0.04l0.048-0.064v-0.04l0.072-0.096v-0.048
	l0.048-0.064l0.056-0.072l0.04-0.056v-0.048l0.064-0.088v-0.056l0.04-0.056l0.048-0.064l0.048-0.064v-0.056l0.056-0.08l0.04-0.056
	v-0.056l0.04-0.064l0.056-0.08l0.04-0.056v-0.048l0.064-0.088v-0.056v-0.056l0.064-0.088l0.04-0.056v-0.048l0.056-0.072l0.048-0.064
	l0.04-0.056l0.04-0.056l0.056-0.08v-0.056l0.048-0.064l0.056-0.072l0.04-0.056v-0.048l0.064-0.088v-0.048v-0.056l0.064-0.088v-0.056
	v-0.056l0.064-0.088v-0.048l0.952-0.328l0,0l0.072-0.096v-0.048l0.04-0.056l0.056-0.08l0.04-0.056v-0.048l0.072-0.096v-0.048
	l0.04-0.056l0.048-0.064l0.048-0.072v-0.048l0.048-0.072l0.048-0.072v-0.056l0.048-0.072l0.048-0.064l0.04-0.056v-0.056l0.064-0.088
	v-0.056v-0.048l0.064-0.088v-0.056v-0.056l0.048-0.072l0.048-0.072v-0.048l0.056-0.08l0.04-0.056l0.04-0.056v-0.048l0.064-0.088
	v-0.048v-0.056l0.056-0.08l0.04-0.064v-0.04l0.072-0.104v-0.04l0.04-0.064v-0.056l0.064-0.088v-0.048v-0.056l0.056-0.088l0.04-0.056
	v-0.056l0.056-0.08l0.04-0.064v-0.048l0.064-0.088v-0.048l0.048-0.064v-0.056l0.056-0.08v-0.048l0.056-0.08l0.04-0.056l0.048-0.064
	v-0.048l0.064-0.088v-0.048l0.048-0.072v-0.056l0.048-0.072v-0.048l0.064-0.088v-0.048l0.04-0.064l0.04-0.064l0.048-0.072v-0.048
	l0.064-0.096l0,0l0.056-0.08v-0.04l0.064-0.096v-0.04l0.056-0.08v-0.048l0.056-0.088v-0.04l0.064-0.096l0,0l0.056-0.08l0,0
	l0.064-0.096l0,0l0.072-0.104l0,0l0.064-0.088l0,0l0.072-0.104l0,0l0.064-0.096l0,0l0.072-0.104l0,0l0.072-0.104l0,0l0.056-0.08l0,0
	l0.072-0.104l0,0l0.072-0.112l0,0l0.072-0.104l0,0l0.072-0.112l0,0l0.072-0.104l0,0l0.08-0.12l0,0l0.072-0.112l0,0l0.064-0.104l0,0
	l0.072-0.112l0,0l0.08-0.112l0,0l0.072-0.112l0,0l0.072-0.112l0,0l0.072-0.112l0,0l0.072-0.112l0,0l0.072-0.112l0,0l0.072-0.112l0,0
	l0.08-0.12l0,0l0.16-0.24l0,0l0.08-0.12l0,0l0.16-0.248l0,0l0.16-0.248l0,0l0.08-0.128l0,0l0.168-0.256l0,0l0.08-0.128l0,0
	l0.168-0.256l0,0l0.16-0.248l0,0l0.08-0.128l0,0c2.664-4.161,5.225-8.401,7.673-12.722l0,0l0.152-0.264l0,0l0.152-0.272l0,0
	l0.072-0.136l0,0l0.144-0.264l0,0l0.072-0.128l0,0l0.072-0.128l0,0l0.072-0.128l0,0l1.904-0.968l0,0l0.064-0.12l0,0l0.064-0.12l0,0
	l0.064-0.12l0,0l0.056-0.104l0,0l0.064-0.112l0,0l0.048-0.096l0,0l0.056-0.104v-0.048l0.056-0.104v-0.04l0.04-0.08v-0.048
	l0.056-0.104v-0.048l0.04-0.08v-0.072v-0.064v-0.056l0.048-0.096v-0.064v-0.056l0.04-0.072l0.04-0.072v-0.056v-0.056l0.056-0.104
	l0,0l0.128-0.232l0,0l0.08-0.144l0,0l0.104-0.192l-28.18-15.202L453.489,361.973z M476.5,296.237
	c-2.08,11.473-5.065,22.763-8.913,33.772l30.204,10.577c0.384-1.096,0.76-2.192,1.128-3.288l0,0l0.088-0.264l0,0l0.048-0.136v-0.04
	v-0.072v-0.064v-0.096v-0.056v-0.064v-0.096v-0.064v-0.064v-0.064v-0.096v-0.048v-0.096v-0.048v-0.104v-0.04l0.04-0.12l0,0
	l0.04-0.128l0,0l0.04-0.136l0,0l0.088-0.28l0,0c3.504-10.817,6.289-21.859,8.313-33.052l-31.492-5.705L476.5,296.237z
	 M509.88,222.268l-31.732,4.193c1.28,9.793,1.92,19.658,1.912,29.54c0,1.8-0.024,3.584-0.064,5.369L512,262.121
	c0-0.504,0-1.016,0-1.52V256l0,0v-4.953l0,0v-13.29v-0.24v-0.264l0,0v-0.456v-0.248v-0.152v-0.248l0,0v-0.128v-0.256l0,0v-0.12l0,0
	v-0.12l0,0v-0.256v-0.136l0,0v-0.384l0,0c-0.344-4.201-0.792-8.377-1.344-12.522L509.88,222.268z M487.181,145.826l-28.876,13.802
	c5.033,10.521,9.225,21.419,12.546,32.596l30.684-9.105c-2.64-8.889-5.769-17.634-9.361-26.179l0,0l-0.112-0.264l0,0l-0.112-0.256
	l0,0l-0.056-0.136l0,0l-0.104-0.248l0,0l-0.056-0.136l0,0v-0.072v-0.048l-0.048-0.12v-0.04v-0.072l0,0l-0.064-0.144v-0.04
	l-0.048-0.104v-0.056v-0.064v-0.056l-0.048-0.104v-0.056v-0.064l-0.04-0.096v-0.056v-0.064v-0.056l-0.048-0.104v-0.048l-0.04-0.096
	v-0.04v-0.088v-0.048l-0.048-0.112l0,0v-0.088l0,0l-0.048-0.12l0,0l-0.056-0.128l0,0l-0.056-0.12l0,0l-0.056-0.128l0,0l-0.672-0.44
	l0,0l-0.056-0.136l0,0l-0.12-0.264l0,0l-0.056-0.136l0,0c-0.984-2.232-2.008-4.441-3.056-6.633L487.181,145.826z M442.031,80.17
	l-23.203,22.003c8.033,8.481,15.386,17.578,22.011,27.203l26.403-18.138c-0.8-1.176-1.6-2.336-2.448-3.504l0,0l-0.096-0.136l0,0
	l-0.088-0.12l0,0l-0.048-0.064v-0.04l-0.064-0.088v-0.048l-0.04-0.056l-0.064-0.088v-0.04l-0.056-0.072v-0.04l-0.28-0.176l0,0
	l-0.08-0.104l0,0l-0.08-0.112l0,0l-0.088-0.12l0,0l-0.184-0.256l0,0c-6.233-8.601-12.994-16.81-20.243-24.579l0,0l-0.096-0.104l0,0
	l-0.088-0.096l0,0l-0.088-0.096l0,0l-0.072-0.08l-0.04-0.048l-0.064-0.064v-0.04l-0.08-0.08l-0.04-0.048l-0.048-0.048l-0.072-0.08
	l0,0l-0.056-0.056l0,0l-0.096-0.104l0,0l-0.256-0.272L442.031,80.17z M378.935,31.484l-15.378,28.068
	c10.249,5.609,20.043,12.018,29.292,19.146l19.554-25.339c-1.064-0.808-2.12-1.608-3.16-2.4l0,0
	c-3.08-2.304-6.217-4.537-9.401-6.705l0,0l-0.64-0.432l0,0l-0.16-0.104l0,0l-0.24-0.16l0,0l-0.4-0.264l0,0l-0.64-0.424l0,0
	l-1.04-0.688l0,0l-0.4-0.264l0,0l-0.64-0.416l0,0l-0.272-0.168l0,0l-0.16-0.096l0,0l-0.224-0.144l0,0l-0.136-0.088l0,0l-0.08-0.056
	l0,0l-0.136-0.088l0,0l-0.216-0.144l0,0l-0.112-0.072l0,0l-0.064-0.04l0,0l-0.112-0.072l0,0l-0.112-0.072l0,0l-0.064-0.04h-0.048
	l-0.104-0.064h-0.04l-0.096-0.056h-0.056h-0.064h-0.048l-0.096-0.056h-0.056h-0.056l-0.072-0.048l-0.072-0.048h-0.056l-0.072-0.04
	l-0.08-0.048h-0.056l-0.064-0.04l-0.08-0.048h-0.056h-0.056l-0.088-0.056h-0.056h-0.056l-0.08-0.048l-0.336-0.696h-0.056
	l-0.072-0.048l-0.072-0.048h-0.056h-0.048l-0.096-0.064h-0.048l-0.088-0.056h-0.04l-0.088-0.056h-0.04l-0.096-0.216l0,0
	l-0.088-0.056l0,0l-0.104-0.064l0,0l-0.104-0.064l0,0l-0.232-0.128l0,0l-0.104-0.064l0,0l-0.168-0.128l0,0l-0.104-0.064l0,0
	l-0.112-0.072l0,0l-0.104-0.064l0,0l-0.112-0.072l0,0l-0.112-0.072l0,0l-0.256-0.136l0,0l-0.12-0.072l0,0l-0.24-0.144l0,0
	l-0.12-0.072l0,0l-0.128-0.08l0,0l-0.128-0.08l0,0l-0.128-0.08l0,0l-0.128-0.08l0,0l-0.128-0.08l0,0l-0.352-0.24l0,0l-0.128-0.08
	l0,0l-0.264-0.16l0,0c-2.904-1.744-5.841-3.432-8.801-5.065L378.935,31.484z M303.926,4.601l-5.945,31.444
	c11.457,2.168,22.731,5.233,33.708,9.169l10.801-30.124c-3.528-1.264-7.089-2.456-10.689-3.568l0,0l-0.272-0.08l0,0l-0.272-0.08l0,0
	l-0.144-0.048l0,0h-0.08h-0.04h-0.128h-0.048h-0.072h-0.072h-0.096h-0.064h-0.064h-0.104h-0.056h-0.072h-0.072h-0.088h-0.048h-0.112
	h-0.048h-0.088h-0.048h-0.12l0,0h-0.104l0,0h-0.128l0,0h-0.136l0,0h-0.128l0,0h-0.136l0,0h-0.128l0,0h-0.136l0,0h-0.128l0,0
	l-0.136-0.04l0,0l-0.288-0.08l0,0c-6.025-2.264-12.034-4.049-18.034-5.345l0,0l-0.312-0.064l0,0h-0.144l0,0l-0.312-0.096l0,0
	l-0.304-0.064l0,0h-0.136l0,0h-0.12l0,0h-0.136l0,0l-0.368-0.16l0,0h-0.128l0,0h-0.112l0,0h-0.128l0,0h-0.112l0,0h-0.128h-0.04
	h-0.12l0,0l-0.272-0.216h-0.08h-0.12h-0.056h-0.072h-0.056h-0.112h-0.072h-0.056h-0.12h-0.056h-0.08l0,0h-0.144l0,0l-0.336-0.264
	l0,0h-0.176l0,0h-0.096l0,0h-0.184l0,0l-0.336-0.16l0,0L303.926,4.601z M256.032,0.136V32.14c2.392,0,4.793,0.04,7.201,0.112
	l1-32.004h-1.016c-1.696-0.048-3.392-0.08-5.097-0.088h-2.088V0.136z"/>
<g>
	<polygon style="fill:#E04F5F;" points="396.05,225.588 380.048,225.588 380.048,131.969 286.428,131.969 286.428,115.967 
		396.05,115.967 	"/>
	
		<rect x="265.373" y="166.784" transform="matrix(0.7071 -0.7071 0.7071 0.7071 -24.8193 289.6507)" style="fill:#E04F5F;" width="143.713" height="16.002"/>
	<polygon style="fill:#E04F5F;" points="225.636,396.034 116.015,396.034 116.015,286.412 132.017,286.412 132.017,380.032 
		225.636,380.032 	"/>
	
		<rect x="102.93" y="329.208" transform="matrix(0.7071 -0.7071 0.7071 0.7071 -187.249 222.3591)" style="fill:#E04F5F;" width="143.713" height="16.002"/>
</g>
<g>
</g>
<g>
</g>
<g>
</g>
<g>
</g>
<g>
</g>
<g>
</g>
<g>
</g>
<g>
</g>
<g>
</g>
<g>
</g>
<g>
</g>
<g>
</g>
<g>
</g>
<g>
</g>
<g>
</g>
</svg>
