<svg viewBox="0 0 512 512" xmlns="http://www.w3.org/2000/svg"><g><path d="M376 512H136c-8.284 0-15-6.716-15-15v-72c0-74.439 60.561-135 135-135s135 60.561 135 135v72c0 8.284-6.716 15-15 15z" fill="#00ecce"></path><path d="M376 512c8.284 0 15-6.716 15-15v-72c0-74.439-60.561-135-135-135v222z" fill="#00d5dd"></path><path d="M383.5 2.012c-7.174-4.142-16.348-1.684-20.49 5.49l-41.894 72.562-5.268-19.662c-2.144-8.002-10.369-12.751-18.371-10.606s-12.751 10.369-10.606 18.371l14.641 54.641c2.144 8.002 10.369 12.751 18.371 10.606l54.641-14.641c8.002-2.144 12.751-10.369 10.607-18.371-2.144-8.002-10.369-12.751-18.371-10.607l-19.662 5.268 41.894-72.562c4.14-7.173 1.682-16.347-5.492-20.489zM497 207.846h-83.787l14.393-14.393c5.858-5.858 5.858-15.355 0-21.213-5.858-5.858-15.355-5.858-21.213 0l-40 40c-5.858 5.858-5.858 15.355 0 21.213l40 40c5.858 5.858 15.355 5.858 21.213 0 5.858-5.858 5.858-15.355 0-21.213l-14.393-14.393H497c8.284 0 15-6.716 15-15s-6.716-15.001-15-15.001z" fill="#00429b"></path><g fill="#1c78be"><path d="M105.607 172.239c-5.858-5.858-15.355-5.858-21.213 0-5.858 5.858-5.858 15.355 0 21.213l14.393 14.393H15c-8.284 0-15 6.716-15 15s6.716 15 15 15h83.787L84.393 252.24c-5.858 5.858-5.858 15.355 0 21.213 5.858 5.858 15.355 5.858 21.213 0l40-40c5.858-5.858 5.858-15.355 0-21.213zM214.523 49.796c-8.002-2.144-16.227 2.604-18.371 10.606l-5.268 19.662L148.99 7.502c-4.142-7.174-13.316-9.632-20.49-5.49-7.174 4.142-9.632 13.316-5.49 20.49l41.894 72.562-19.662-5.268c-8.002-2.144-16.227 2.605-18.371 10.607-2.144 8.002 2.605 16.227 10.607 18.371l54.641 14.641c8.002 2.144 16.227-2.605 18.371-10.606l14.641-54.641c2.143-8.003-2.606-16.228-10.608-18.372z" fill="#1c78be"></path></g><path d="M256 320c-41.355 0-75-33.645-75-75s33.645-75 75-75 75 33.645 75 75-33.645 75-75 75z" fill="#ffece2"></path><path d="M256 170v150c41.355 0 75-33.645 75-75s-33.645-75-75-75z" fill="#ffddce"></path></g></svg>