<svg viewBox="0 0 512.001 512.001" xmlns="http://www.w3.org/2000/svg"><g><path d="M509.3 247.3C504.5 241.001 394.6 91.001 256 91.001S7.501 241.001 2.701 247.3c-3.602 5.101-3.602 12.301 0 17.401 4.799 6.3 114.7 156.3 253.299 156.3s248.5-150 253.3-156.3c3.601-5.1 3.601-12.299 0-17.401z" fill="#e1e4fb"></path><path d="M509.3 264.701c-4.8 6.3-114.7 156.3-253.3 156.3v-330c138.6 0 248.5 150 253.3 156.299 3.601 5.102 3.601 12.301 0 17.401z" fill="#c5c9f7"></path><path d="M256 151.001c-57.9 0-105 47.1-105 105s47.1 105 105 105 105-47.1 105-105-47.1-105-105-105z" fill="#17ace8"></path><path d="M361 256.001c0 57.9-47.1 105-105 105v-210c57.9 0 105 47.101 105 105z" fill="#1689fc"></path><path d="M256 301.001c-24.814 0-45-20.186-45-45s20.186-45 45-45 45 20.186 45 45-20.185 45-45 45z" fill="#0059aa"></path><path d="M301 256.001c0-24.814-20.186-45-45-45v90c24.815 0 45-20.185 45-45z" fill="#08469c"></path><circle cx="271" cy="241.001" fill="#c5c9f7" r="15"></circle></g></svg>