<svg viewBox="0 0 512 512" xmlns="http://www.w3.org/2000/svg"><g><g fill="#ffe177"><path d="M106.738 69.774C46.3 114.391 7.093 186.113 7.093 267S46.3 419.609 106.738 464.226zM405.448 75.943v382.114C461.32 413.152 497.093 344.259 497.093 267s-35.772-146.153-91.645-191.057z" fill="#ffe177"></path></g><path d="M105.737 52.808 10.002 162.547a11.05 11.05 0 0 0 .708 15.268l54.722 52.098a11.052 11.052 0 0 0 14.492.651l25.813-20.497z" fill="#0182fc"></path><path d="M44.524 177.815a11.05 11.05 0 0 1-.708-15.268l61.921-70.978v-38.76L10.002 162.547a11.05 11.05 0 0 0 .708 15.268l54.722 52.098a11.052 11.052 0 0 0 14.492.651l10.908-8.661z" fill="#0172fb"></path><path d="m406.449 52.808 95.735 109.738a11.05 11.05 0 0 1-.708 15.268l-54.722 52.098a11.052 11.052 0 0 1-14.492.651l-25.813-20.497z" fill="#0182fc"></path><path d="m492.954 151.967-46.201 43.985a11.052 11.052 0 0 1-14.492.651l-25.813-20.497v33.96l25.813 20.497a11.05 11.05 0 0 0 14.492-.651l54.722-52.098a11.05 11.05 0 0 0 .708-15.268z" fill="#0172fb"></path><path d="m325.683 21.603 7.821 13.546a9.22 9.22 0 0 1 0 9.197l-34.649 60.014a4.064 4.064 0 0 1-3.557 2.05 4.04 4.04 0 0 1-2.605-.941l-29.46-24.379c-2.003-1.658-4.538-2.571-7.139-2.571s-5.136.913-7.139 2.571l-29.46 24.379a4.042 4.042 0 0 1-2.605.941 4.066 4.066 0 0 1-3.557-2.05l-34.649-60.014a9.22 9.22 0 0 1 0-9.197l7.821-13.545-80.766 31.205v410.688C146.574 493.962 197.226 512 252.093 512c58.512 0 112.224-20.523 154.356-54.749V52.808z" fill="#60b7ff"></path><path d="m139.381 39.809-33.644 12.999v410.688a245.095 245.095 0 0 0 33.644 21.081z" fill="#26a6fe"></path><path d="M342.406 190.437a4.496 4.496 0 0 1-1.776.363 4.495 4.495 0 0 1-1.775-.363l-35.796-15.273v46.001a5.525 5.525 0 0 0 3.357 5.082l32.047 13.673a5.526 5.526 0 0 0 4.337 0l32.047-13.673a5.525 5.525 0 0 0 3.357-5.082v-46.001z" fill="#0593fc"></path><path d="m320.024 182.402-16.965-7.239v46.001a5.525 5.525 0 0 0 3.357 5.082l13.608 5.806z" fill="#0182fc"></path><path d="M173.331 190.437a4.495 4.495 0 0 1-1.775.363 4.496 4.496 0 0 1-1.776-.363l-35.796-15.273v46.001a5.525 5.525 0 0 0 3.357 5.082l32.047 13.673a5.526 5.526 0 0 0 4.337 0l32.047-13.673a5.525 5.525 0 0 0 3.357-5.082v-46.001z" fill="#0593fc"></path><path d="m150.948 182.402-16.965-7.239v46.001a5.525 5.525 0 0 0 3.357 5.082l13.608 5.806z" fill="#0182fc"></path><path d="m334.369 34.648-17.061-29.55A10.197 10.197 0 0 0 308.478 0h-104.77c-3.643 0-7.01 1.944-8.831 5.099l-17.061 29.55a10.195 10.195 0 0 0 0 10.197l34.649 60.014c1.578 2.733 5.235 3.391 7.666 1.379l26.458-21.895-29.506-51.107a4.479 4.479 0 0 1 0-4.525 4.476 4.476 0 0 1 3.918-2.263h70.184c1.636 0 3.101.846 3.918 2.263a4.479 4.479 0 0 1 0 4.525l-29.506 51.107 26.458 21.895c2.431 2.012 6.088 1.354 7.666-1.379l34.649-60.014a10.199 10.199 0 0 0-.001-10.198z" fill="#0593fc"></path><path d="M203.174 44.846a10.195 10.195 0 0 1 0-10.197l17.061-29.55A10.197 10.197 0 0 1 229.066 0h-25.357c-3.643 0-7.01 1.944-8.831 5.099l-17.061 29.55a10.195 10.195 0 0 0 0 10.197l34.649 60.014c1.578 2.733 5.235 3.391 7.666 1.379l12.51-10.353z" fill="#0182fc"></path><path d="m260.878 94.517 35.091-60.78c2.127-3.684-.532-8.288-4.785-8.288h-70.183c-4.253 0-6.912 4.604-4.785 8.288l35.091 60.78c2.128 3.683 7.444 3.683 9.571 0z" fill="#0182fc"></path><path d="M245.173 40.745a2.847 2.847 0 0 1-2.847-2.847V35.01l-.735-1.273c-1.298-2.249-.807-4.835.735-6.513V25.45h-21.325c-4.253 0-6.912 4.604-4.785 8.288l35.091 60.78c2.127 3.684 7.444 3.684 9.57 0l7.902-13.687-23.143-40.085h-.463z" fill="#0172fb"></path><path d="M269.859 25.449h-27.532v12.449a2.847 2.847 0 0 0 2.847 2.847h21.839a2.847 2.847 0 0 0 2.847-2.847V25.449z" fill="#ffffff"></path><path d="M253.093 37.898V25.449h-10.766v12.449a2.847 2.847 0 0 0 2.847 2.847h10.766a2.847 2.847 0 0 1-2.847-2.847z" fill="#f2fbff"></path><circle cx="256.093" cy="122.596" fill="#ffffff" r="8.288"></circle><circle cx="256.093" cy="201.712" fill="#ffffff" r="8.288"></circle><circle cx="256.093" cy="280.828" fill="#ffffff" r="8.288"></circle><circle cx="256.093" cy="359.944" fill="#ffffff" r="8.288"></circle><circle cx="256.093" cy="439.06" fill="#ffffff" r="8.288"></circle><path d="m378.714 176.033-35.915 15.324a5.526 5.526 0 0 1-4.337 0l-35.915-15.324a5.526 5.526 0 0 1-3.357-5.082v-21.767a5.525 5.525 0 0 1 5.525-5.525h71.829a5.525 5.525 0 0 1 5.525 5.525v21.767a5.523 5.523 0 0 1-3.355 5.082z" fill="#0182fc"></path><path d="M304.716 143.659a5.525 5.525 0 0 0-5.525 5.525v21.767a5.526 5.526 0 0 0 3.357 5.082l21.741 9.276v-41.65z" fill="#0172fb"></path><path d="m209.638 176.033-35.915 15.324a5.526 5.526 0 0 1-4.337 0l-35.915-15.324a5.526 5.526 0 0 1-3.357-5.082v-21.767a5.525 5.525 0 0 1 5.525-5.525h71.829a5.525 5.525 0 0 1 5.525 5.525v21.767a5.521 5.521 0 0 1-3.355 5.082z" fill="#0182fc"></path><path d="M135.641 143.659a5.525 5.525 0 0 0-5.525 5.525v21.767a5.526 5.526 0 0 0 3.357 5.082l21.741 9.276v-41.65z" fill="#0172fb"></path><path d="m444.52 265.637-6.775 12.388a3.15 3.15 0 0 1-1.251 1.251l-12.388 6.775c-2.182 1.194-2.182 4.328 0 5.522l12.388 6.775a3.15 3.15 0 0 1 1.251 1.251l6.775 12.388c1.194 2.182 4.328 2.182 5.522 0l6.775-12.388a3.15 3.15 0 0 1 1.251-1.251l12.388-6.775c2.182-1.194 2.182-4.328 0-5.522l-12.388-6.775a3.15 3.15 0 0 1-1.251-1.251l-6.775-12.388c-1.194-2.183-4.328-2.183-5.522 0z" fill="#ffffff"></path><path d="m454.896 301.611-6.775-12.388a3.15 3.15 0 0 0-1.251-1.251l-12.388-6.775a3.22 3.22 0 0 1-.637-.472l-9.74 5.327c-2.182 1.194-2.182 4.328 0 5.522l12.388 6.775a3.15 3.15 0 0 1 1.251 1.251l6.775 12.388c1.193 2.182 4.328 2.182 5.522 0l5.327-9.74a3.22 3.22 0 0 1-.472-.637z" fill="#f2fbff"></path><path d="m60.144 251.637-6.775 12.388a3.15 3.15 0 0 1-1.251 1.251l-12.388 6.775c-2.182 1.194-2.182 4.328 0 5.522l12.388 6.775a3.15 3.15 0 0 1 1.251 1.251l6.775 12.388c1.194 2.182 4.328 2.182 5.522 0l6.775-12.388a3.15 3.15 0 0 1 1.251-1.251l12.388-6.775c2.182-1.194 2.182-4.328 0-5.522l-12.388-6.775a3.15 3.15 0 0 1-1.251-1.251l-6.775-12.388c-1.194-2.183-4.328-2.183-5.522 0z" fill="#ffffff"></path><path d="m70.52 287.611-6.775-12.388a3.15 3.15 0 0 0-1.251-1.251l-12.388-6.775a3.22 3.22 0 0 1-.637-.472l-9.74 5.327c-2.182 1.194-2.182 4.328 0 5.522l12.388 6.775a3.15 3.15 0 0 1 1.251 1.251l6.775 12.388c1.193 2.182 4.328 2.182 5.522 0l5.327-9.74a3.22 3.22 0 0 1-.472-.637z" fill="#f2fbff"></path><path d="m101.52 92.013-6.775 12.388a3.15 3.15 0 0 1-1.251 1.251l-12.388 6.775c-2.182 1.194-2.182 4.328 0 5.522l12.388 6.775a3.15 3.15 0 0 1 1.251 1.251l6.775 12.388c1.194 2.182 4.328 2.182 5.522 0l6.775-12.388a3.15 3.15 0 0 1 1.251-1.251l12.388-6.775c2.182-1.194 2.182-4.328 0-5.522l-12.388-6.775a3.15 3.15 0 0 1-1.251-1.251l-6.775-12.388c-1.194-2.182-4.328-2.182-5.522 0z" fill="#ffffff"></path><path d="m111.896 127.987-6.775-12.388a3.15 3.15 0 0 0-1.251-1.251l-12.388-6.775a3.22 3.22 0 0 1-.637-.472l-9.74 5.327c-2.182 1.194-2.182 4.328 0 5.522l12.388 6.775a3.15 3.15 0 0 1 1.251 1.251l6.775 12.388c1.193 2.182 4.328 2.182 5.522 0l5.327-9.74a3.191 3.191 0 0 1-.472-.637z" fill="#f2fbff"></path><path d="M126.606 339.638a18.945 18.945 0 0 0-10.015 2.864 18.954 18.954 0 0 0 2.864-10.015c0-10.532-8.538-19.07-19.07-19.07s-19.07 8.538-19.07 19.07c0 3.679 1.059 7.102 2.864 10.015a18.954 18.954 0 0 0-10.015-2.864c-10.532 0-19.07 8.538-19.07 19.07s8.538 19.07 19.07 19.07c3.679 0 7.102-1.059 10.015-2.864a18.954 18.954 0 0 0-2.864 10.015c0 10.532 8.538 19.07 19.07 19.07s19.07-8.538 19.07-19.07c0-3.679-1.059-7.102-2.864-10.015a18.954 18.954 0 0 0 10.015 2.864c10.532 0 19.07-8.538 19.07-19.07s-8.538-19.07-19.07-19.07z" fill="#fe73c5"></path><circle cx="100.385" cy="358.708" fill="#ffbee7" r="15.495"></circle><path d="M97.676 358.708c0-6.275 3.737-11.667 9.101-14.103a15.415 15.415 0 0 0-6.393-1.392c-8.557 0-15.495 6.937-15.495 15.495s6.937 15.495 15.495 15.495c2.282 0 4.442-.506 6.393-1.392-5.363-2.436-9.101-7.828-9.101-14.103z" fill="#feaee1"></path><path d="M421.606 117.222a18.945 18.945 0 0 0-10.015 2.864 18.954 18.954 0 0 0 2.864-10.015c0-10.532-8.538-19.07-19.07-19.07s-19.07 8.538-19.07 19.07c0 3.679 1.059 7.102 2.864 10.015a18.954 18.954 0 0 0-10.015-2.864c-10.532 0-19.07 8.538-19.07 19.07s8.538 19.07 19.07 19.07c3.679 0 7.102-1.059 10.015-2.864a18.954 18.954 0 0 0-2.864 10.015c0 10.532 8.538 19.07 19.07 19.07s19.07-8.538 19.07-19.07c0-3.679-1.059-7.102-2.864-10.015a18.954 18.954 0 0 0 10.015 2.864c10.532 0 19.07-8.538 19.07-19.07s-8.538-19.07-19.07-19.07z" fill="#fe73c5"></path><circle cx="395.385" cy="136.292" fill="#ffbee7" r="15.495"></circle><path d="M392.676 136.292c0-6.275 3.737-11.667 9.101-14.103a15.415 15.415 0 0 0-6.393-1.392c-8.557 0-15.495 6.937-15.495 15.495s6.937 15.495 15.495 15.495c2.282 0 4.442-.506 6.393-1.392-5.363-2.437-9.101-7.828-9.101-14.103z" fill="#feaee1"></path><path d="M427.507 385.668a18.953 18.953 0 0 0-9.107-5.057 18.957 18.957 0 0 0 9.107-5.057c7.447-7.447 7.447-19.522 0-26.969s-19.522-7.447-26.969 0a18.953 18.953 0 0 0-5.057 9.107 18.957 18.957 0 0 0-5.057-9.107c-7.447-7.447-19.522-7.447-26.969 0s-7.447 19.522 0 26.969a18.953 18.953 0 0 0 9.107 5.057 18.957 18.957 0 0 0-9.107 5.057c-7.447 7.447-7.447 19.522 0 26.969s19.522 7.447 26.969 0a18.953 18.953 0 0 0 5.057-9.107 18.957 18.957 0 0 0 5.057 9.107c7.447 7.447 19.522 7.447 26.969 0 7.448-7.447 7.448-19.521 0-26.969z" fill="#fe73c5"></path><circle cx="395.481" cy="380.612" fill="#ffbee7" r="15.495"></circle><path d="M397.322 391.568c-6.051-6.051-6.051-15.862 0-21.913a15.415 15.415 0 0 1 4.558-3.14c-5.709-2.59-12.661-1.554-17.355 3.14-6.051 6.051-6.051 15.862 0 21.913 4.694 4.694 11.646 5.73 17.355 3.14a15.434 15.434 0 0 1-4.558-3.14z" fill="#feaee1"></path></g></svg>