<svg viewBox="0 0 48 48" xmlns="http://www.w3.org/2000/svg"><g><g fill="#54bbff"><path d="m31.904 24.006-9.896 9.885a1.097 1.097 0 0 1-.784.323h-9.492c-.992 0-1.488-1.199-.784-1.903l2.78-2.791H1.466a1.47 1.47 0 0 1-1.465-1.476v-8.085c0-.819.657-1.476 1.465-1.476h12.261l-2.78-2.791c-.704-.704-.208-1.903.784-1.903h9.492c.3 0 .577.115.784.323z" fill="#54bbff"></path><path d="m47.671 24.79-9.1 9.1a1.097 1.097 0 0 1-.784.323h-9.492c-.992 0-1.488-1.199-.784-1.903l8.305-8.304-8.305-8.316c-.703-.704-.208-1.903.784-1.903h9.492c.3 0 .577.115.784.323l9.1 9.1a1.114 1.114 0 0 1 0 1.58z" fill="#54bbff"></path></g></g></svg>