<svg viewBox="0 0 512 512" xmlns="http://www.w3.org/2000/svg"><g><g fill="#00ddc1"><path d="M124.512 431.292a14.95 14.95 0 0 1-10.606-4.394c-24.952-24.951-38.693-58.126-38.693-93.412s13.741-68.461 38.693-93.412c5.858-5.858 15.355-5.857 21.213 0 5.858 5.858 5.858 15.355 0 21.213-19.285 19.284-29.906 44.925-29.906 72.198s10.621 52.914 29.906 72.199c5.858 5.857 5.858 15.355 0 21.213a14.951 14.951 0 0 1-10.607 4.395zM180.783 385.021a14.95 14.95 0 0 1-10.606-4.394c-25.994-25.994-25.994-68.289 0-94.283 5.857-5.857 15.355-5.857 21.213 0s5.858 15.355 0 21.213c-14.297 14.297-14.297 37.561 0 51.857 5.858 5.857 5.858 15.355 0 21.213a14.95 14.95 0 0 1-10.607 4.394z" fill="#00ddc1"></path><path d="M68.091 476.303a14.95 14.95 0 0 1-10.606-4.394c-76.327-76.326-76.327-200.519 0-276.845 5.857-5.858 15.355-5.858 21.213 0 5.858 5.857 5.858 15.355 0 21.213-64.629 64.63-64.629 169.79 0 234.419 5.858 5.857 5.858 15.355 0 21.213a14.958 14.958 0 0 1-10.607 4.394z" fill="#00ddc1"></path></g><path d="M496.761 512h-38.915a15 15 0 0 1-13.671-8.826l-20.224-44.781c-3.139-6.948-10.104-11.393-17.71-11.219-26.632.466-59.34.959-76.033.627-17.956-.355-28.423-7.979-34.041-14.312-7.783-8.774-11.354-20.76-10.056-33.75.753-7.528-1.28-10.093-5.332-15.2-3.064-3.863-6.879-8.671-8.718-15.517-2.793-10.389 1.284-21.717 10.389-28.856.408-.32.832-.618 1.271-.895l13.143-8.267c6.988-4.395 5.941-14.886-1.777-17.814l-26.272-9.967a15.528 15.528 0 0 1-1.135-.484c-10.759-5.129-16.715-16.888-14.484-28.596l5.826-30.588a11.443 11.443 0 0 0-2.057-9.021c-1.884-2.552-4.801-4.143-7.939-4.604l-28.753-4.228c-7.208-1.06-13.799-4.978-17.77-11.087-5.223-8.035-5.365-18.147-.603-26.229l56.521-95.938c8.598-14.594 11.99-31.861 9.552-48.621l-3.828-26.321c-.467-3.212-.027-6.53 1.474-9.408A15.004 15.004 0 0 1 278.938 0h217.823c8.284 0 15 6.716 15 15v482c0 8.284-6.716 15-15 15z" fill="#ffbda8"></path><path d="M113.906 426.898c2.929 2.929 6.768 4.394 10.606 4.394s7.678-1.465 10.606-4.394c5.858-5.857 5.858-15.355 0-21.213-19.285-19.285-29.906-44.926-29.906-72.199h-30c.001 35.287 13.742 68.461 38.694 93.412zM180.667 333.486h-29.986c0 17.072 6.499 34.144 19.496 47.141 2.929 2.929 6.768 4.394 10.606 4.394s7.678-1.465 10.606-4.394c5.858-5.857 5.858-15.355 0-21.213-7.148-7.147-10.722-16.537-10.722-25.928zM57.484 471.909c2.929 2.929 6.768 4.394 10.606 4.394s7.678-1.465 10.606-4.394c5.858-5.857 5.858-15.355 0-21.213-32.315-32.315-48.472-74.762-48.472-117.21H.239c0 50.13 19.082 100.26 57.245 138.423z" fill="#00b4bc"></path><path d="m292.918 333.486-9.197 5.785c-.438.276-.862.574-1.271.895-9.104 7.14-13.182 18.468-10.389 28.856 1.839 6.846 5.653 11.653 8.718 15.517 4.052 5.107 6.085 7.672 5.332 15.2-1.299 12.99 2.272 24.976 10.056 33.75 5.618 6.333 16.085 13.956 34.041 14.312 16.693.332 49.401-.161 76.033-.627 7.606-.174 14.571 4.271 17.71 11.219l20.224 44.781A15 15 0 0 0 457.846 512h38.915c8.284 0 15-6.716 15-15V333.486z" fill="#faa68c"></path></g></svg>