<svg viewBox="0 0 510.17 510.17" xmlns="http://www.w3.org/2000/svg"><g><path d="m334.911 127.289 165.386 60.196c7.785 2.833 11.798 11.441 8.965 19.226l-49.935 137.195c-2.833 7.785-11.441 11.798-19.226 8.965l-165.386-60.195c-7.785-2.833-11.798-11.441-8.965-19.226l49.935-137.195c2.833-7.785 11.441-11.799 19.226-8.966z" fill="#dfe7f4"></path><g fill="#333e73"><path d="m484.294 275.308-83.633-30.44-30.098 82.693 69.046 25.13c8.052 2.931 16.885-1.005 19.717-8.786zM315.685 136.254l-24.967 68.598 110.141 40.088 30.098-82.693-96.373-35.077c-7.601-2.766-16.067 1.304-18.899 9.084z" fill="#333e73"></path><path d="M365.42 87.315c-116.39 319.781-93.773 257.652-125.86 345.81-2.83 7.78-11.44 11.79-19.23 8.96-7.78-2.83-11.79-11.44-8.96-19.22 25.423-69.848 50.257-138.088 125.86-345.81 2.84-7.79 11.44-11.8 19.23-8.97 7.78 2.84 11.8 11.44 8.96 19.23z" fill="#333e73"></path></g><path d="m365.42 87.315-95.29 261.81 26.84 73.74c2.83 7.78-1.18 16.39-8.96 19.22-7.79 2.83-16.4-1.18-19.23-8.96l-14.61-40.14v-87.72l83.06-228.21c2.84-7.79 11.44-11.8 19.23-8.97 7.78 2.84 11.8 11.44 8.96 19.23z" fill="#1f2859"></path><path d="M175.26 127.289 9.874 187.485c-7.785 2.833-11.798 11.441-8.965 19.226l49.935 137.195c2.833 7.785 11.441 11.798 19.226 8.965l165.386-60.195c7.785-2.833 11.798-11.441 8.965-19.226l-49.935-137.195c-2.834-7.785-11.442-11.799-19.226-8.966z" fill="#f0f7ff"></path><path d="m25.876 275.308 83.633-30.44 30.098 82.693-69.046 25.13c-8.052 2.931-16.885-1.005-19.717-8.786z" fill="#4d578c"></path><path d="m194.485 136.254 24.967 68.598-110.14 40.088-30.098-82.693 96.373-35.077c7.6-2.766 16.066 1.304 18.898 9.084z" fill="#4d578c"></path><path d="m144.75 87.315 95.29 261.81-26.84 73.74c-2.83 7.78 1.18 16.39 8.96 19.22 7.79 2.83 16.4-1.18 19.23-8.96l14.61-40.14v-87.72l-83.06-228.21c-2.84-7.79-11.44-11.8-19.23-8.97-7.78 2.84-11.8 11.44-8.96 19.23z" fill="#333e73"></path></g></svg>