<svg viewBox="0 0 480 480" xmlns="http://www.w3.org/2000/svg"><g><path d="M40 0v464h120V32zm0 0" fill="#004fac"></path><path d="M280 64 160 32v432h120zm0 0" fill="#175fb4"></path><path d="M280 112v352h80V132zm0 0" fill="#d1e7f8"></path><path d="m440 152-80-20v332h80zm0 0" fill="#d9ebf9"></path><path d="M96 368h64v96H96zm0 0" fill="#6d6e71"></path><path d="M160 368h64v96h-64zm0 0" fill="#939598"></path><path d="M104 288h32v32h-32zM184 288h32v32h-32zm0 0" fill="#f1f2f2"></path><path d="M312 304h32v32h-32zM376 304h32v32h-32zM312 240h32v32h-32zM376 240h32v32h-32zM312 176h32v32h-32zM376 176h32v32h-32zm0 0" fill="#2488ff"></path><g fill="#f1f2f2"><path d="M104 224h32v32h-32zM184 224h32v32h-32zM104 160h32v32h-32zM184 160h32v32h-32zM104 96h32v32h-32zM184 96h32v32h-32zm0 0" fill="#f1f2f2"></path></g><path d="M360 384h32v80h-32zm0 0" fill="#a7a8ab"></path><path d="M328 384h32v80h-32zm0 0" fill="#939598"></path><path d="M0 456h480v16H0zm0 0" fill="#21409a"></path></g></svg>