<svg viewBox="0 0 512 512" xmlns="http://www.w3.org/2000/svg"><g><path clip-rule="evenodd" d="M256 112.863c-25.963-25.549-66.135-44.377-123.981-51.068V31.302c-.296-16.638-15.483-23.565-27.384-15.809L9.903 85.034c-13.203 7.934-13.203 22.115 0 30.049l94.733 69.542c11.901 7.756 27.088.829 27.384-15.809v-30.522c47.1 5.743 85.141 38.19 85.141 93.077l32.316-9.367c21.289-23.351 23.648-56.149 6.523-109.141z" fill="#eb5468" fill-rule="evenodd"></path><path clip-rule="evenodd" d="M256 112.863c-27.236 26.792-38.84 61.045-38.84 96.482v290.334h77.651V231.371c.03-54.887 38.071-87.334 85.171-93.077v30.522c.296 16.638 15.453 23.565 27.384 15.809l94.733-69.542c13.203-7.934 13.203-22.115 0-30.049l-94.733-69.542c-11.93-7.756-27.088-.829-27.384 15.809v30.493c-57.847 6.691-98.019 25.52-123.982 51.069z" fill="#75cef8" fill-rule="evenodd"></path><path clip-rule="evenodd" d="M118.608 85.508c41.623 6.779 62.849 14.21 82.506 30.138 10.835 8.763 10.598 8.881 5.181 18.148-6.483 11.161-14.95 31.411-11.042 35.822 13.618 15.394 21.907 36.147 21.907 61.755v-22.026c0-35.437 11.605-69.69 38.84-96.482-25.963-25.549-66.135-44.377-123.981-51.068V31.302c-.296-16.638-15.483-23.565-27.384-15.809l-24.66 18.118c4.825 2.99 8.259 8.674 8.378 16.49v20.427c0 14.092 15.157 12.553 30.255 14.98z" fill="#e5384f" fill-rule="evenodd"></path><path clip-rule="evenodd" d="M395.583 99.126C287.854 107.564 256 177.964 256 231.371v268.308h38.811V231.371c.03-54.887 38.071-87.334 85.171-93.077v30.522c.296 16.638 15.453 23.565 27.384 15.809l94.733-69.542c13.203-7.934 13.203-22.115 0-30.049l-8.792-6.483-70.339 51.631c-11.93 7.786-27.088.829-27.384-15.809V99.126z" fill="#60b7ff" fill-rule="evenodd"></path></g></svg>