<svg viewBox="0 0 512 511" xmlns="http://www.w3.org/2000/svg"><g><g fill="#ffc627"><path d="M504.43 128.621h-47.196a7.569 7.569 0 1 1 0-15.137h47.196a7.57 7.57 0 1 1 0 15.137zM457.242 58.082a7.56 7.56 0 0 1-6.34-3.422 7.573 7.573 0 0 1 2.184-10.48l36.996-24.239a7.573 7.573 0 0 1 10.48 2.184 7.573 7.573 0 0 1-2.183 10.48l-36.996 24.239a7.557 7.557 0 0 1-4.14 1.238zM494.223 223.398a7.53 7.53 0 0 1-4.141-1.242l-36.996-24.238a7.569 7.569 0 0 1 8.297-12.66l36.996 24.238a7.57 7.57 0 0 1-4.156 13.902zM54.766 128.621H7.57a7.57 7.57 0 1 1 0-15.137h47.196a7.569 7.569 0 1 1 0 15.137zM54.758 58.082a7.557 7.557 0 0 1-4.14-1.238L13.62 32.605a7.573 7.573 0 0 1-2.184-10.48 7.573 7.573 0 0 1 10.481-2.184L58.914 44.18a7.57 7.57 0 0 1-4.156 13.902zM17.777 223.398a7.57 7.57 0 0 1-4.156-13.902l36.996-24.238a7.568 7.568 0 1 1 8.297 12.66L21.918 222.16a7.557 7.557 0 0 1-4.14 1.238zM397.508 27.879l-34.328 143.82H148.82L114.504 27.88l70.742 37.23 33.066-30.195L256 .5l70.754 64.61zm0 0" fill="#ffc627"></path></g><path d="M228.348 171.7H148.82L114.504 27.878l70.742 37.23 33.066-30.195zm0 0" fill="#eaad18"></path><path d="M469.41 344.844v97.347H42.594v-97.347c0-41.828 33.894-75.727 75.715-75.727h44.37l93.325 31.617 93.324-31.617h44.348c41.828 0 75.734 33.899 75.734 75.727zm0 0" fill="#3b485b"></path><path d="M469.41 344.844v97.347H68.54v-97.347c0-41.828 33.894-75.727 75.722-75.727h18.418l93.324 31.617 93.324-31.617h44.348c41.828 0 75.734 33.899 75.734 75.727zm0 0" fill="#515f75"></path><path d="m347.195 397.82 43.95 43.95H120.852l43.945-43.95-48.953-12.238 4.594-116.465h42.242l93.324 31.617 93.324-31.617h42.23l4.59 116.465zm0 0" fill="#3b485b"></path><path d="M349.328 269.117 300.02 442.184h-88.036L162.68 269.117l93.324 31.617zm0 0" fill="#f2f2f2"></path><path d="m195.688 311.61 60.316 75.5 59.715-75.215-59.715-11.16z" fill="#f74866"></path><path d="m162.68 269.117 93.324 31.617-65.613 65.614zM349.328 269.117l-27.71 97.23-65.614-65.613zm0 0" fill="#e6e6e6"></path><path d="m212.297 442.184 43.707-55.075 44.012 55.075" fill="#f74866"></path></g></svg>