<svg viewBox="0 0 512 512" xmlns="http://www.w3.org/2000/svg"><g><path d="M400 96s16-8 0-40a56.838 56.838 0 0 0-48-32H160a56.838 56.838 0 0 0-48 32c-16 32 0 40 0 40s-72 24-72 80v264l16 16v32h64v-32l16-16 16 16v32h208v-32l16-16 16 16v32h64v-32l16-16V176c0-56-72-80-72-80z" fill="#eb423f"></path><path d="M232 112c-87.973 0-120.595-7.9-121.94-8.239a8 8 0 0 1 3.866-15.526C114.363 88.342 146.694 96 232 96a8 8 0 0 1 0 16z" fill="#c7312e"></path><path d="M192 184a8 8 0 0 1-8-8c0-57.23 16.157-90.2 16.845-91.578a8 8 0 0 1 14.319 7.14C215.012 91.868 200 122.858 200 176a8 8 0 0 1-8 8z" fill="#c3c6c7"></path><g fill="#c7312e"><path d="M208 184v16h-32v-16a16 16 0 0 1 16-16h.11A15.979 15.979 0 0 1 208 184zM56 456h64v32H56zM152 456h208v32H152zM136 448a8 8 0 0 1-8-8V232a8 8 0 0 1 16 0v208a8 8 0 0 1-8 8z" fill="#c7312e"></path></g><path d="m352 24-96 64-96-64z" fill="#ed6f6d"></path><path d="M280 112a8 8 0 0 1 0-16c86.02 0 117.75-7.684 118.06-7.761a8 8 0 0 1 3.88 15.522C400.6 104.1 367.973 112 280 112z" fill="#c7312e"></path><path d="M320 184a8 8 0 0 1-8-8c0-53.142-15.012-84.132-15.164-84.438a8 8 0 0 1 14.319-7.14C311.843 85.8 328 118.77 328 176a8 8 0 0 1-8 8z" fill="#c3c6c7"></path><path d="M336 184v16h-32v-16a15.979 15.979 0 0 1 15.89-16h.11a16 16 0 0 1 16 16zM392 456h64v32h-64zM376 448a8 8 0 0 1-8-8V232a8 8 0 0 1 16 0v208a8 8 0 0 1-8 8zM344 408H168q32-48 32-96h112q0 48 32 96z" fill="#c7312e"></path></g></svg>