<svg viewBox="0 0 500.538 500.538" xmlns="http://www.w3.org/2000/svg"><g><path d="m483.573 100.946-1.298-25.69-25.58-3.237a68.553 68.553 0 0 0-8.291-17.331l13.653-21.745-19.215-17.241-20.415 15.677a69.624 69.624 0 0 0-18.204-6.442L398.398 0l-25.876 1.308-3.279 25.399a69.6 69.6 0 0 0-17.462 8.245l-21.892-13.539-17.379 19.09 15.776 20.257a68.538 68.538 0 0 0-6.502 18.078l-25.123 5.8 1.298 25.69 25.58 3.237a68.553 68.553 0 0 0 8.291 17.331l-13.653 21.745 19.215 17.241 20.415-15.677a69.624 69.624 0 0 0 18.204 6.442l5.823 24.939 25.876-1.308 3.279-25.399a69.6 69.6 0 0 0 17.462-8.245l21.892 13.539 17.379-19.09-15.776-20.257a68.538 68.538 0 0 0 6.502-18.078zm-91.654 27.522c-19.847 1.003-36.743-14.157-37.738-33.86-.996-19.703 14.286-36.489 34.132-37.492s36.742 14.157 37.738 33.86-14.286 36.489-34.132 37.492z" fill="#7974e3"></path><path d="m182.624 279.524 162.198 71.115 72.22-164.718-29.814-76.538-109.045-47.81z" fill="#f0f0ff"></path><path d="m377.042 185.921-65.77 150.008 33.55 14.71 72.22-164.718-18.748-48.13z" fill="#e8e8ff"></path><path d="m387.228 109.383-23.421 53.024 53.235 23.514z" fill="#cfcfff"></path><path d="M336.485 261.885h128.196v127.787H336.485z" fill="#96e1ff"></path><path d="m496.204 356.155-31.524 33.518V261.885l31.524-33.518z" fill="#fdf486"></path><path d="M464.68 261.885H336.485l31.523-33.518h128.196z" fill="#fd6dc3"></path><path d="m383.381 478.491 14.813-14.827-12.026-17.226a55.856 55.856 0 0 0 5.94-14.483l20.602-3.636-.086-21.035-20.632-3.767a56.714 56.714 0 0 0-6.058-14.521l11.886-17.15-14.934-14.921-17.14 11.902a56.707 56.707 0 0 0-14.527-6.045l-3.785-20.629-21.035-.067-3.617 20.605a55.848 55.848 0 0 0-14.478 5.953l-17.237-12.011-14.813 14.827 12.026 17.226a55.856 55.856 0 0 0-5.94 14.483l-20.602 3.636.086 21.035 20.632 3.767a56.714 56.714 0 0 0 6.058 14.521l-11.886 17.15 14.935 14.921 17.14-11.902a56.707 56.707 0 0 0 14.527 6.045l3.785 20.629 21.035.067 3.617-20.605a55.848 55.848 0 0 0 14.478-5.953zm-64.769-42.3c-10.396-10.386-10.464-27.172-.153-37.493 10.311-10.32 27.097-10.267 37.493.119 10.395 10.386 10.464 27.172.153 37.493-10.312 10.32-27.098 10.267-37.493-.119z" fill="#7974e3"></path><g fill="#fdf05b"><path d="M101.808 78.825a7.5 7.5 0 0 0 5.304-12.802L81.538 40.444a7.5 7.5 0 0 0-10.606-.001 7.5 7.5 0 0 0-.001 10.606l25.574 25.578a7.467 7.467 0 0 0 5.303 2.198zM48.001 196.985H11.834c-4.142 0-7.5 3.357-7.5 7.5s3.358 7.5 7.5 7.5h36.167c4.142 0 7.5-3.357 7.5-7.5s-3.358-7.5-7.5-7.5zM109.398 331.394a7.5 7.5 0 0 0-10.606.001l-25.573 25.578a7.5 7.5 0 0 0 5.304 12.802 7.478 7.478 0 0 0 5.304-2.197L109.399 342a7.5 7.5 0 0 0-.001-10.606z" fill="#fdf05b"></path></g><path d="M233.286 50.257c-1.225 0-2.452.01-3.683.04-81.725 1.934-148.013 69.471-148.785 151.521-.556 59.015 32.178 110.395 80.492 136.414v25.715c0 10.5 8.48 19.012 18.941 19.012h53.035z" fill="#fdf486"></path><path d="M233.286 382.958h-53.035v41.938c0 18.838 15.271 34.109 34.109 34.109h18.926z" fill="#cfcfff"></path><path d="M233.996 500.538a7.5 7.5 0 0 1-7.5-7.5V10.062c0-4.143 3.358-7.5 7.5-7.5s7.5 3.357 7.5 7.5v482.976a7.5 7.5 0 0 1-7.5 7.5z" fill="#ffd600"></path><path d="m392.108 431.954 20.602-3.636-.086-21.035-20.632-3.767a56.714 56.714 0 0 0-6.058-14.521l11.886-17.15-14.935-14.921-17.14 11.901a56.665 56.665 0 0 0-13.945-5.882c16.414 13.386 26.902 33.763 26.902 56.595 0 19.77-7.872 37.691-20.635 50.837a55.54 55.54 0 0 0 8.076-3.895l17.237 12.011 14.813-14.827-12.026-17.226a55.796 55.796 0 0 0 5.941-14.484z" fill="#6b64e8"></path></g></svg>