<svg viewBox="0 0 60 60" xmlns="http://www.w3.org/2000/svg"><g><path d="M47 8.2V45a2.006 2.006 0 0 1-2 2H3a2.006 2.006 0 0 1-2-2V8.2z" fill="#f29648"></path><path d="M46.205 9H1.8a.8.8 0 0 1-.62-1.3l5.071-6.4A.791.791 0 0 1 6.87 1h34.26a.791.791 0 0 1 .619.3l5.076 6.4a.8.8 0 0 1-.62 1.3z" fill="#fcb96a"></path><path d="m17 9 3-8h8l3 8z" fill="#c2694e"></path><path d="M17 9v12.354a.369.369 0 0 0 .59.3l2.692-2.017a.369.369 0 0 1 .442 0l3.06 2.293a.368.368 0 0 0 .443 0l3.055-2.292a.368.368 0 0 1 .443 0l2.684 2.015a.369.369 0 0 0 .591-.3V9z" fill="#854643"></path><rect fill="#ffffff" rx="1"></rect><path d="M59 57.3a1.648 1.648 0 0 1-1.64 1.7 1.627 1.627 0 0 1-1.59-1.26C54.77 53.34 50.41 39 36 39v2.12a1.867 1.867 0 0 1-3.079 1.43l-8.27-7.13a1.872 1.872 0 0 1 0-2.839l8.27-7.13A1.867 1.867 0 0 1 36 26.882V29c12.38 0 22.48 7.591 23 28.3z" fill="#2473ff"></path></g></svg>