<svg viewBox="0 0 64 64" xmlns="http://www.w3.org/2000/svg"><g><path d="m63.686 61.532-10-36A1.749 1.749 0 0 0 52 24.25H12a1.749 1.749 0 0 0-1.686 1.282l-10 36A1.75 1.75 0 0 0 2 63.75h60a1.75 1.75 0 0 0 1.686-2.218z" fill="#5feda9"></path><path d="M23.708 24.25H12a1.749 1.749 0 0 0-1.686 1.282L3.732 49.226h9.877zM58.332 42.258l-4.646-16.726A1.749 1.749 0 0 0 52 24.25H30.261l7.609 18.008z" fill="#40beff"></path><path d="M57.846 40.508H39.03L32.16 24.25h-3.799l7.435 17.597-5.689 5.629H16.204l9.391-23.226H21.82l-9.391 23.226H4.218l-.972 3.5h25.83V63.75h3.5V49.956l6.013-5.948h20.229z" fill="#f3f9ff"></path><path d="m33.7 18.827 8.812 14.1a1.75 1.75 0 0 0 2.968 0l8.812-14.1A12.141 12.141 0 0 0 44 .25a12.141 12.141 0 0 0-10.3 18.577z" fill="#ff5a6e"></path><circle cx="44" cy="12.409" fill="#f3f9ff" r="5.25"></circle></g></svg>