<svg viewBox="0 0 512 512" xmlns="http://www.w3.org/2000/svg"><g><path d="M351.335 512a14.999 14.999 0 0 1-12.991-7.5L228.198 313.723c-4.142-7.175-1.684-16.349 5.49-20.49l105.418-60.863a15.001 15.001 0 0 1 20.49 5.49l110.146 190.777a14.999 14.999 0 0 1-9.984 22.195l-57.956 11.857-39.245 44.262A14.997 14.997 0 0 1 351.335 512z" fill="#a50043"></path><path d="M160.664 512c-4.266 0-8.36-1.82-11.222-5.049l-39.246-44.262-57.955-11.857a14.999 14.999 0 0 1-9.984-22.195L152.402 237.86a15.001 15.001 0 0 1 20.49-5.49l105.418 60.863c7.175 4.142 9.633 13.315 5.49 20.49L173.656 504.5a15 15 0 0 1-12.992 7.5z" fill="#f90053"></path><path d="M256.442 387.397c-.225 0-.448-.002-.674-.006-19.604-.304-33.428-12.839-45.625-23.897-7.13-6.465-13.864-12.571-20.668-15.39-6.052-2.507-14.485-2.729-23.414-2.965-15.869-.418-33.856-.893-47.188-14.643-13.647-14.077-14.559-32.716-15.363-49.16-.47-9.613-.914-18.692-3.732-25.497-2.507-6.052-8.313-12.172-14.459-18.651-10.926-11.518-23.31-24.571-23.013-43.723.304-19.604 12.839-33.428 23.898-45.624 6.465-7.129 12.572-13.863 15.391-20.668 2.506-6.052 2.729-14.484 2.964-23.413.418-15.87.893-33.856 14.644-47.188 14.078-13.647 32.715-14.559 49.16-15.362 9.613-.47 18.692-.914 25.497-3.732 6.051-2.506 12.171-8.313 18.651-14.459C223.892 12.221 236.776 0 255.559 0c.224 0 .447.001.673.005 19.604.304 33.428 12.839 45.623 23.898 7.13 6.465 13.864 12.571 20.669 15.39 6.052 2.507 14.485 2.729 23.414 2.965 15.869.418 33.856.893 47.188 14.643 13.647 14.078 14.559 32.716 15.363 49.16.47 9.613.914 18.692 3.732 25.497 2.506 6.052 8.313 12.172 14.459 18.652 10.926 11.517 23.309 24.57 23.013 43.72-.304 19.605-12.839 33.43-23.898 45.626-6.465 7.129-12.571 13.863-15.39 20.668-2.507 6.051-2.729 14.484-2.964 23.412-.418 15.87-.893 33.857-14.644 47.189-14.077 13.647-32.716 14.559-49.16 15.362-9.612.47-18.692.914-25.497 3.732-6.051 2.507-12.171 8.313-18.651 14.459-11.38 10.798-24.265 23.019-43.047 23.019z" fill="#ffef31"></path><path d="M426.681 150.21c-6.146-6.48-11.953-12.601-14.459-18.652-2.818-6.805-3.263-15.884-3.732-25.497-.805-16.444-1.716-35.082-15.363-49.16-13.331-13.75-31.318-14.225-47.188-14.643-8.929-.235-17.362-.458-23.414-2.965-6.805-2.818-13.539-8.925-20.669-15.39C289.661 12.843 275.837.308 256.233.005l-.232-.002v387.39c.147.002.295.004.442.004 18.782 0 31.667-12.222 43.047-23.019 6.48-6.146 12.601-11.952 18.651-14.459 6.805-2.818 15.885-3.263 25.497-3.732 16.444-.804 35.083-1.715 49.16-15.362 13.751-13.332 14.226-31.319 14.644-47.189.235-8.928.457-17.361 2.964-23.412 2.818-6.805 8.925-13.539 15.39-20.668 11.06-12.196 23.595-26.021 23.898-45.626.296-19.15-12.087-32.203-23.013-43.72z" fill="#ead000"></path><path d="M256 317.397c-68.208 0-123.699-55.491-123.699-123.698C132.301 125.491 187.792 70 256 70s123.699 55.491 123.699 123.699c0 68.207-55.491 123.698-123.699 123.698z" fill="#ffcd00"></path><path d="M256 70v247.397c68.208 0 123.699-55.491 123.699-123.698C379.699 125.491 324.208 70 256 70z" fill="#ebb100"></path><path d="M220.536 261.272a15 15 0 0 1-14.989-14.407l-1.368-34.527-17.756-24.788a15 15 0 0 1 6.998-22.807l32.415-11.971 18.088-24.547a15.004 15.004 0 0 1 11.829-6.1 14.987 14.987 0 0 1 12.023 5.708l21.402 27.129 28.936 9.617a14.998 14.998 0 0 1 7.743 22.563l-19.188 28.739-.205 30.489a15 15 0 0 1-19.066 14.338l-33.261-9.368c-.001.003-28.546 9.933-33.601 9.932z" fill="#fffac1"></path><path d="M327.571 173.946a14.997 14.997 0 0 0-9.456-9.365l-28.936-9.617-21.402-27.129A14.98 14.98 0 0 0 256 122.137v129.731l31.398 8.843a14.998 14.998 0 0 0 19.066-14.338l.205-30.489 19.189-28.739a15.002 15.002 0 0 0 1.713-13.199z" fill="#ffef31"></path></g></svg>