<svg viewBox="0 0 510 510" xmlns="http://www.w3.org/2000/svg"><g><path d="M255 0C156.869 0 96.42 55.352 96.253 55.445c0 0-2.513 3.137-2.983 5.222-3.818 16.948-7.385 39.663-7.385 56.238 0 140.833 118.763 254.972 259.596 254.972 54.231 0 114.568-25.992 154.949-57.243.903-.699 3.769-5.396 3.769-5.396.178-1.087 5.8-23.477 5.8-54.239C510 114.167 395.833 0 255 0z" fill="#017297"></path><path d="M345.459 364.679c-140.833 0-255-114.167-255-255 0-18.615 2.007-36.753 5.795-54.234C37.609 102.165 0 174.192 0 255c0 58.211 19.505 111.867 52.336 154.787l236.937 97.92c105.908-14.274 192.246-93.78 214.926-198.469-43.559 34.696-98.724 55.441-158.74 55.441z" fill="#025f80"></path><path d="M289.272 476.316c0-28.36-19.711-52.909-47.401-59.036L130.04 392.533l-77.689 17.243a256.7 256.7 0 0 0 33.532 36.058 256.03 256.03 0 0 0 29.28 22.424C155.314 494.647 203.362 510 255 510c11.609 0 23.05-.787 34.272-2.299z" fill="#fef056"></path><path d="M130.494 453.576c-17.836 0-32.295-14.459-32.295-32.295v-72.335h64.589v72.335c0 17.837-14.459 32.295-32.294 32.295z" fill="#ff965a"></path><path d="M98.199 348.947h64.589v48.3c-17.047 18.608-39.985 23.265-64.589 18.117z" fill="#ff7e46"></path><path d="M218.102 235.638c0-29.472-18.907-56.422-48.378-56.422h-78.46c-8.41 0-16.112 2.201-22.831 6.022v155.774c0 34 27.346 61.824 61.345 62.082.238.002.477.003.716.003 50.637 0 91.686-41.049 91.686-91.686v-28.945z" fill="#febe82"></path><path d="M222.179 299.136v-54.497c11.873 0 21.497 9.625 21.497 21.497v11.503c0 11.872-9.624 21.497-21.497 21.497z" fill="#ff965a"></path><path d="M222.179 281.083v-18.391a7.255 7.255 0 0 1 7.255 7.255v3.882a7.255 7.255 0 0 1-7.255 7.254z" fill="#ff7e46"></path><path d="M16.403 277.638c0 11.872 9.625 21.497 21.497 21.497v-54.497c-11.872 0-21.497 9.625-21.497 21.497z" fill="#ff965a"></path><path d="M30.837 273.777a7.063 7.063 0 0 0 7.063 7.063v-17.905a7.063 7.063 0 0 0-7.063 7.063z" fill="#ff7e46"></path><path d="M90.879 277.15v6.465a7.636 7.636 0 0 0 15.272 0v-6.465zM153.1 277.15v6.465a7.636 7.636 0 0 0 15.272 0v-6.465z" fill="#ff965a"></path><path d="M135.463 402.964c-38.547-11.195-66.724-46.767-66.724-88.925.229-5.209 0-55.69 0-74.866 0-29.472 23.892-53.363 53.363-53.363h66.599a52.27 52.27 0 0 0-18.978-3.534H91.264c-29.472 0-51.343 21.871-51.343 51.343l-2.02 48.848v28.038c-.001 52.919 44.339 95.278 97.562 92.459z" fill="#ff965a"></path><path d="M98.515 285.135a7.636 7.636 0 0 1-7.636-7.636v-9.823l2.815-4.263-2.815-4.263v-2.537a7.636 7.636 0 0 1 15.272 0v20.885a7.635 7.635 0 0 1-7.636 7.637zM160.736 285.135a7.636 7.636 0 0 1-7.636-7.636v-9.823l2.815-4.263-2.815-4.263v-2.537a7.636 7.636 0 0 1 15.272 0v20.885a7.637 7.637 0 0 1-7.636 7.637z" fill="#373c41"></path><path d="M118.12 295.976c-1.898 7.58 1.552 15.838 8.149 18.327a11.928 11.928 0 0 0 8.448 0c6.598-2.489 10.048-10.746 8.149-18.327l-6.293-25.13c-1.584-6.327-10.575-6.327-12.16 0z" fill="#ff965a"></path><path d="M93.694 270.491a2.815 2.815 0 0 1-2.815-2.815v-8.525a2.815 2.815 0 1 1 5.63 0v8.525a2.815 2.815 0 0 1-2.815 2.815zM155.915 270.491a2.815 2.815 0 0 1-2.815-2.815v-8.525a2.815 2.815 0 1 1 5.63 0v8.525a2.815 2.815 0 0 1-2.815 2.815z" fill="#ffffff"></path><path d="M222.182 183.366v97.697c-6.783 0-12.281-5.498-12.281-12.281v-54.227c0-11.978-6.74-23.017-17.511-28.256a51.244 51.244 0 0 0-.791-.376v-2.557zM37.9 195.94v85.123c6.783 0 12.281-5.498 12.281-12.281v-54.227l.001-.215c.059-8.709 5.963-15.992 13.927-18.4z" fill="#6d3222"></path><path d="M80.446 130.325H66.148c-15.6 0-28.247 12.647-28.247 28.247v76.147c23.497 0 42.545-19.048 42.545-42.545z" fill="#6d3222"></path><ellipse cx="56.784" cy="134.712" fill="#6d3222" rx="8.194" ry="19.745" transform="rotate(-56.63 56.765 134.723)"></ellipse><ellipse cx="70.115" cy="128.013" fill="#783c28" rx="8.194" ry="19.745" transform="rotate(-3.62 70.328 129.01)"></ellipse><path d="M239.314 216.412h-99.317c-41.912 0-75.888-33.976-75.888-75.888 0-14.734 11.944-26.678 26.678-26.678h72.639c41.912 0 75.888 33.976 75.888 75.888zM112.843 245.75c-7.934-7.934-20.841-7.934-28.775 0l-7.071-7.071c11.833-11.832 31.084-11.832 42.917 0z" fill="#783c28"></path><path d="M175.124 233.493c-7.934-7.934-20.841-7.934-28.775 0l-7.071-7.071c11.833-11.832 31.085-11.831 42.917 0z" fill="#783c28"></path><path d="M143.648 363.945h-10c0-11.219-9.128-20.347-20.347-20.347v-10c16.733 0 30.347 13.614 30.347 30.347z" fill="#ff965a"></path><circle cx="301.589" cy="300.138" fill="#d8ecfe" r="26.038"></circle><circle cx="265.316" cy="343.621" fill="#d8ecfe" r="17.445"></circle><circle cx="231.17" cy="373.083" fill="#d8ecfe" r="9.999"></circle><path d="M507.101 214.831A60.674 60.674 0 0 0 510 196.273V61.728C510 28.189 482.811 1 449.272 1h-129.73v213.831z" fill="#dff6fd"></path><path d="M382.185 213.507c-33.539 0-60.728-27.189-60.728-60.727V18.234c0-5.989.881-11.769 2.496-17.234h-9.226C281.189 1 254 28.189 254 61.728v134.545C254 229.812 281.189 257 314.727 257h134.545c27.55 0 50.801-18.352 58.231-43.493z" fill="#d8ecfe"></path><circle cx="339.587" cy="173.834" fill="#fedf30" r="55.756"></circle><path d="M378.112 133.529c-10.012-9.572-23.581-15.451-38.525-15.451-30.886 0-55.756 25.052-55.756 55.756 0 14.944 5.88 28.514 15.451 38.525z" fill="#fef056"></path><circle cx="339.587" cy="173.834" fill="#fef056" r="42.5"></circle><path d="M368.735 142.907c-7.609-7.174-17.864-11.573-29.147-11.573-23.472 0-42.5 19.028-42.5 42.5 0 11.283 4.399 21.538 11.573 29.147z" fill="#ffe74c"></path><path d="M368.735 142.907c-7.609-7.174-17.864-11.573-29.147-11.573-23.472 0-42.5 19.028-42.5 42.5 0 11.283 4.399 21.538 11.573 29.147z" fill="#ffe74c"></path><path d="M337.647 199.599c-8.922-.297-16.209-4.907-16.209-9.666 0-2.528 2.231-6.246 5.056-6.246 3.123 0 5.651 4.387 11.153 5.353v-12.045c-6.84-2.602-14.87-5.799-14.87-15.316 0-9.443 6.989-13.978 14.87-15.093v-2.082c0-1.041 1.189-2.008 2.825-2.008 1.413 0 2.826.967 2.826 2.008v1.859c4.61.149 13.309 1.338 13.309 6.469 0 2.008-1.338 6.097-4.61 6.097-2.454 0-3.867-2.379-8.699-2.751v10.855c6.766 2.528 14.647 6.023 14.647 16.06 0 9.22-5.948 14.796-14.647 16.209v2.156c0 1.041-1.413 2.008-2.826 2.008-1.636 0-2.825-.967-2.825-2.008zm.743-34.35v-8.848c-3.346.669-4.759 2.379-4.759 4.164 0 2.156 1.934 3.494 4.759 4.684zm4.164 13.755v9.963c2.528-.595 4.535-2.007 4.535-4.684 0-2.454-1.859-4.015-4.535-5.279z" fill="#ffc344"></path><path d="M387.325 106.555a37.304 37.304 0 0 0 27.97 27.97 37.304 37.304 0 0 0-27.97 27.97 37.304 37.304 0 0 0-27.97-27.97 37.304 37.304 0 0 0 27.97-27.97zM354.062 83.251a21.417 21.417 0 0 0 16.058 16.058 21.417 21.417 0 0 0-16.058 16.058 21.417 21.417 0 0 0-16.058-16.058 21.414 21.414 0 0 0 16.058-16.058z" fill="#ffffff"></path><path d="m470.292 83.538 4.581-4.726-.014-.006c5.575-4.946 9.105-12.145 9.159-20.171a27.12 27.12 0 0 0-26.811-27.392 27.109 27.109 0 0 0-18.623 7.006 8.29 8.29 0 0 1-11.15 0 27.109 27.109 0 0 0-18.623-7.006 27.39 27.39 0 0 0-8.508 1.479v50.816z" fill="#fd4755"></path><path d="M453.987 83.163c-28.514 0-51.781-22.453-53.091-50.643a27.12 27.12 0 0 0-18.895 26.115c.054 8.026 3.585 15.225 9.159 20.171l-.014.006 35.411 36.534c3.53 3.642 9.374 3.642 12.904 0l35.264-36.382a52.963 52.963 0 0 1-20.738 4.199z" fill="#fe0364"></path><path d="m482.888 196.492-.616-8.188a6.387 6.387 0 0 1 1.498-4.611l11.443-13.491c3.073-3.623 1.257-9.213-3.359-10.338l-17.188-4.188a6.392 6.392 0 0 1-3.923-2.85l-9.294-15.052c-2.496-4.042-8.374-4.042-10.869 0l-9.294 15.052a6.386 6.386 0 0 1-3.923 2.85l-5.354 1.305v39.511z" fill="#fedf30"></path><path d="M482.811 195.468a46.873 46.873 0 0 1-4.504.221c-23.062 0-42.192-16.793-45.855-38.816l-12.277 2.992c-4.615 1.125-6.432 6.715-3.359 10.338l11.443 13.491a6.387 6.387 0 0 1 1.498 4.611l-1.328 17.641c-.357 4.737 4.399 8.192 8.794 6.389l16.367-6.714a6.39 6.39 0 0 1 4.849 0l16.367 6.714c4.395 1.803 9.15-1.652 8.794-6.389z" fill="#ffc344"></path><path d="m293.987 32.556-12.309 17.783 39.76 57.198 39.759-57.198-12.309-17.783z" fill="#017297"></path><path d="M281.678 50.339h29.333l10.427 57.198zM293.987 32.556l14.608 17.783 13.837-17.783z" fill="#025f80"></path><path d="M308.595 50.339h27.674l-14.831 57.198z" fill="#d8ecfe"></path><path d="M308.595 50.339h27.674l-13.837-17.783z" fill="#ffffff"></path><path d="m348.888 32.556-12.619 17.783h24.928z" fill="#025f80"></path></g></svg>