<svg viewBox="0 0 512 512" xmlns="http://www.w3.org/2000/svg"><g><path d="m465.144 109.347-16.295 16.295-16.295-16.295V82.003a5.246 5.246 0 0 1 5.246-5.246h22.098a5.246 5.246 0 0 1 5.246 5.246z" fill="#a2aee6"></path><path d="M188.131 192.302h-32.59v-77.71a5.246 5.246 0 0 1 5.246-5.246h22.098a5.246 5.246 0 0 1 5.246 5.246z" fill="#314dc9"></path><path d="m99.237 100.471-97.69 97.69c-3.305 3.305-.964 8.955 3.709 8.955h14.679a5.246 5.246 0 0 1 5.246 5.246V321.18H188.13V212.362a5.246 5.246 0 0 1 5.246-5.246h14.679c4.674 0 7.014-5.651 3.709-8.955l-97.69-97.69c-4.096-4.098-10.739-4.098-14.837 0z" fill="#d4f2f6"></path><path d="m99.237 100.471-3.073 3.073 66.294 66.294c6.013 6.013 1.754 16.295-6.75 16.295a9.545 9.545 0 0 0-9.545 9.545v51.503c0 20.28-16.441 36.721-36.721 36.721h-84.26v37.278h162.949V212.362a5.246 5.246 0 0 1 5.246-5.246h14.679c4.674 0 7.014-5.651 3.709-8.955l-97.69-97.69c-4.097-4.098-10.74-4.098-14.838 0z" fill="#a6e7f0"></path><path d="M322.271 109.347a5.246 5.246 0 0 0-4.977 3.587l-29.092 87.278a5.2 5.2 0 0 0 .393 4.21l54.618-33.635 40.457-61.44z" fill="#fe9738"></path><path d="M407.383 100.47c-4.097-4.097-10.74-4.097-14.837 0L288.594 204.422a5.225 5.225 0 0 0 4.584 2.694h20.04a5.246 5.246 0 0 1 5.246 5.271l-.532 108.793h164.064l-.532-108.793a5.246 5.246 0 0 1 5.246-5.271h20.04a5.225 5.225 0 0 0 4.584-2.694z" fill="#d4f2f6"></path><path d="m511.727 200.211-29.092-87.278a5.246 5.246 0 0 0-4.977-3.587h-61.399l44.924 65.907 50.151 29.168a5.2 5.2 0 0 0 .393-4.21z" fill="#fe9738"></path><path d="M486.71 207.116h20.04a5.225 5.225 0 0 0 4.584-2.694L407.383 100.47a10.547 10.547 0 0 0-3.001-2.1 10.524 10.524 0 0 0-9.971.615 10.251 10.251 0 0 0-1.068.765c-.275.224-.541.464-.797.72l-3.073 3.073 66.318 66.318c5.993 5.993 1.769 16.231-6.689 16.271-5.268.025-9.609 4.09-9.583 9.357l.252 51.512c.099 20.35-16.37 36.9-36.72 36.9h-84.934l-.182 37.278h164.064l-.532-108.793a5.241 5.241 0 0 1 5.243-5.27z" fill="#a6e7f0"></path><path d="M125.853 223.411H87.46a5.246 5.246 0 0 1-5.246-5.246v-38.393a5.246 5.246 0 0 1 5.246-5.246h38.393a5.246 5.246 0 0 1 5.246 5.246v38.393a5.247 5.247 0 0 1-5.246 5.246z" fill="#6bd9e7"></path><circle cx="399.964" cy="198.969" fill="#6bd9e7" r="24.442"></circle><path d="M122.951 304.885h-32.59v-43.639A5.246 5.246 0 0 1 95.607 256h22.098a5.246 5.246 0 0 1 5.246 5.246z" fill="#e94444"></path><path d="M122.951 281.337a36.62 36.62 0 0 1-13.508 2.565H90.361v20.983h32.59z" fill="#d83131"></path><path d="M416.259 304.885h-32.59v-32.59c0-8.999 7.296-16.295 16.295-16.295 8.999 0 16.295 7.295 16.295 16.295z" fill="#fe9738"></path><path d="M416.259 281.454a36.63 36.63 0 0 1-13.21 2.448h-19.38v20.983h32.59z" fill="#fe860a"></path><path d="M188.688 304.885H24.624c-8.692 0-15.738 7.046-15.738 15.738v11.606a5.246 5.246 0 0 0 5.246 5.246H199.18a5.246 5.246 0 0 0 5.246-5.246v-11.606c-.001-8.692-7.047-15.738-15.738-15.738z" fill="#314dc9"></path><path d="M481.996 304.885H317.932c-8.692 0-15.738 7.046-15.738 15.738v11.606a5.246 5.246 0 0 0 5.246 5.246h185.047a5.246 5.246 0 0 0 5.246-5.246v-11.606c0-8.692-7.045-15.738-15.737-15.738z" fill="#97d729"></path><path d="M122.951 427.376h-8.426v-57.311a7.869 7.869 0 1 0-15.738 0c0 4.646-3.78 8.426-8.426 8.426a7.869 7.869 0 1 0 0 15.738 24.06 24.06 0 0 0 8.426-1.515v34.663h-8.426a7.869 7.869 0 1 0 0 15.738h32.59c4.346 0 7.869-3.522 7.869-7.869s-3.523-7.87-7.869-7.87z" fill="#e94444"></path><path d="M416.259 427.376h-22.982c1.728-3.694 4.67-6.767 8.486-8.676l3.853-1.926c11.418-5.71 18.512-17.187 18.512-29.954 0-13.184-10.105-23.988-23.006-24.596-6.676-.328-13.011 2.047-17.836 6.651a24.278 24.278 0 0 0-7.486 17.485 7.869 7.869 0 1 0 15.738 0c0-2.326.927-4.492 2.611-6.098 1.682-1.606 3.888-2.428 6.233-2.319 4.416.209 8.009 4.191 8.009 8.877 0 6.767-3.76 12.851-9.813 15.878l-3.852 1.926c-11.673 5.836-18.924 17.569-18.924 30.621a7.869 7.869 0 0 0 7.869 7.869h32.59a7.868 7.868 0 1 0-.002-15.738z" fill="#fe9738"></path><path d="M253.31 459.408a7.869 7.869 0 0 1-7.869-7.869V60.461a7.869 7.869 0 1 1 15.738 0v391.077a7.87 7.87 0 0 1-7.869 7.87z" fill="#a2aee6"></path></g></svg>