<svg viewBox="0 0 504.5 504.5" xmlns="http://www.w3.org/2000/svg"><g><path d="M115.951 346.426h-99.01V244.694l49.505-50.74 49.505 50.74z" fill="#ffe2c7"></path><path d="M346.615 346.426V142.592l70.001-60.367 70 60.367v203.834z" fill="#ffeede"></path><path d="m416.616 82.225-20 17.247 50 43.12v203.834h40V142.592z" fill="#ffe2c7"></path><path d="m115.769 152.87 74.109-56.707 74.109 56.707v193.556H115.769z" fill="#f1c395"></path><path d="M263.987 152.87H115.769l74.109-56.707z" fill="#ff416a"></path><g fill="#67cee9"><path d="M189.878 234.511a7.5 7.5 0 0 1-7.5-7.5v-38.672c0-9.697 15-9.697 15 0v38.672a7.5 7.5 0 0 1-7.5 7.5zM226.837 234.511a7.5 7.5 0 0 1-7.5-7.5v-38.672c0-9.697 15-9.697 15 0v38.672a7.5 7.5 0 0 1-7.5 7.5zM189.878 308.471a7.5 7.5 0 0 1-7.5-7.5v-38.672c0-9.697 15-9.697 15 0v38.672a7.5 7.5 0 0 1-7.5 7.5zM226.837 308.471a7.5 7.5 0 0 1-7.5-7.5v-38.672c0-9.697 15-9.697 15 0v38.672a7.5 7.5 0 0 1-7.5 7.5z" fill="#67cee9"></path></g><path d="M263.866 80.49h82.74v265.936h-82.74z" fill="#ffe2c7"></path><path d="M152.918 234.511a7.5 7.5 0 0 1-7.5-7.5v-38.672c0-9.697 15-9.697 15 0v38.672a7.5 7.5 0 0 1-7.5 7.5zM152.918 308.471a7.5 7.5 0 0 1-7.5-7.5v-38.672c0-9.697 15-9.697 15 0v38.672a7.5 7.5 0 0 1-7.5 7.5z" fill="#67cee9"></path><path d="M434.109 346.426H263.987V244.591l42.53-32.291 42.531 32.291h85.061z" fill="#ffeede"></path><path d="M434.109 244.591 390.026 212.3h-83.509l42.531 32.291z" fill="#ff416a"></path><path d="M349.048 244.591h85.061v101.834h-85.061z" fill="#ffe2c7"></path><path d="M306.144 263.122c9.652 0 9.668-15 0-15-9.652 0-9.668 15 0 15z" fill="#67cee9"></path><path d="M321.529 346.426h-30.77v-40.445c0-8.497 6.888-15.385 15.385-15.385s15.385 6.888 15.385 15.385z" fill="#ab632e"></path><path d="M376.916 293.935a7.5 7.5 0 0 1-7.5-7.5v-12.577c0-9.697 15-9.697 15 0v12.577a7.5 7.5 0 0 1-7.5 7.5zM406.156 293.935a7.5 7.5 0 0 1-7.5-7.5v-12.577c0-9.697 15-9.697 15 0v12.577a7.5 7.5 0 0 1-7.5 7.5z" fill="#67cee9"></path><path d="M346.615 142.592h140.001l-70-60.367z" fill="#ff416a"></path><path d="m416.616 82.225-20 17.247 50 43.12h40z" fill="#eb3c62"></path><path d="M305.235 59.948a7.5 7.5 0 0 1-7.5-7.5V7.5c0-4.142 3.357-7.5 7.5-7.5s7.5 3.358 7.5 7.5v44.948a7.5 7.5 0 0 1-7.5 7.5z" fill="#ffd414"></path><path d="M264.122 80.326c0-22.707 18.407-41.114 41.114-41.114s41.114 18.407 41.114 41.114z" fill="#ffd414"></path><path d="M316.083 165.701h-21.694v-30.026c0-5.991 4.856-10.847 10.847-10.847s10.847 4.856 10.847 10.847zM84.598 309.276a7.5 7.5 0 0 1-7.5-7.5v-21.033c0-9.697 15-9.697 15 0v21.033a7.5 7.5 0 0 1-7.5 7.5z" fill="#67cee9"></path><path d="M66.446 244.694H16.941l49.505-50.74 49.505 50.74z" fill="#ff416a"></path><path d="M48.294 309.276a7.5 7.5 0 0 1-7.5-7.5v-21.033c0-9.697 15-9.697 15 0v21.033a7.5 7.5 0 0 1-7.5 7.5zM378.389 195.09a7.5 7.5 0 0 1-7.5-7.5v-16.745c0-9.697 15-9.697 15 0v16.745a7.5 7.5 0 0 1-7.5 7.5zM454.331 195.09a7.5 7.5 0 0 1-7.5-7.5v-16.745c0-9.697 15-9.697 15 0v16.745a7.5 7.5 0 0 1-7.5 7.5zM415.991 195.09a7.5 7.5 0 0 1-7.5-7.5v-16.745c0-9.697 15-9.697 15 0v16.745a7.5 7.5 0 0 1-7.5 7.5z" fill="#67cee9"></path><path d="M3.75 336h497v168.5h-497z" fill="#b3e897"></path><path d="M460.75 336h40v168.5h-40z" fill="#a4de6a"></path><path d="M460.195 409.171c12-1.522 27.323-2.361 40.555-2.361v-32.495c-125.161-2.239-284.407 29.401-374.774 130.186H284.25c43.259-54.889 108.96-83.089 175.945-95.33z" fill="#d2f6ff"></path><path d="M75.478 447.841c0 14.284-11.58 25.864-25.864 25.864s-25.864-11.58-25.864-25.864 11.58-68.359 25.864-68.359 25.864 54.075 25.864 68.359z" fill="#45bf64"></path><path d="M42.114 504.5v-63.104c0-4.142 3.357-7.5 7.5-7.5s7.5 3.358 7.5 7.5V504.5z" fill="#ab632e"></path><path d="M141.815 367.405c0 14.284-11.58 25.864-25.864 25.864s-25.864-11.58-25.864-25.864 11.58-68.359 25.864-68.359 25.864 54.075 25.864 68.359z" fill="#45bf64"></path><path d="M115.951 431.564a7.5 7.5 0 0 1-7.5-7.5V360.96c0-4.142 3.357-7.5 7.5-7.5s7.5 3.358 7.5 7.5v63.104a7.5 7.5 0 0 1-7.5 7.5z" fill="#ab632e"></path><path d="M460.195 429.85c0 14.284-11.58 25.864-25.864 25.864s-25.864-11.58-25.864-25.864 11.58-68.359 25.864-68.359 25.864 54.075 25.864 68.359z" fill="#45bf64"></path><path d="M434.331 494.009a7.5 7.5 0 0 1-7.5-7.5v-63.105c0-4.142 3.357-7.5 7.5-7.5s7.5 3.358 7.5 7.5v63.105a7.5 7.5 0 0 1-7.5 7.5z" fill="#ab632e"></path><path d="M500.75 374.314a698.163 698.163 0 0 0-40 .445v34.344c11.916-1.479 26.969-2.294 40-2.294z" fill="#b8f0ff"></path></g></svg>