<svg viewBox="0 0 512 512" xmlns="http://www.w3.org/2000/svg"><g><path d="M455.91 512H122.692c-5.69 0-10.302-4.612-10.302-10.302V77.944c0-5.69 4.612-10.302 10.302-10.302H455.91c5.69 0 10.302 4.612 10.302 10.302v423.754c-.001 5.69-4.613 10.302-10.302 10.302z" fill="#7398d3"></path><path d="M422.609 477.659H89.391c-5.69 0-10.302-4.612-10.302-10.302V43.603c0-5.69 4.612-10.302 10.302-10.302h333.218c5.69 0 10.302 4.612 10.302 10.302v423.754c0 5.689-4.613 10.302-10.302 10.302z" fill="#a2b9e2"></path><path d="M389.308 444.358H56.09c-5.69 0-10.302-4.612-10.302-10.302V10.302C45.789 4.612 50.401 0 56.09 0h333.218c5.69 0 10.302 4.612 10.302 10.302v423.754c0 5.689-4.613 10.302-10.302 10.302z" fill="#d8e2f1"></path><path d="M378.797 0v444.358h10.511c5.69 0 10.302-4.612 10.302-10.302V10.302C399.61 4.612 394.997 0 389.308 0z" fill="#b9cbea"></path><path d="M189.398 31.818H85.334a7.726 7.726 0 0 0-7.726 7.726v143.61a7.726 7.726 0 0 0 7.726 7.726h104.065a7.726 7.726 0 0 0 7.726-7.726V39.545a7.728 7.728 0 0 0-7.727-7.727z" fill="#dd5790"></path><path d="M360.065 31.818H226.862a7.726 7.726 0 0 0-7.726 7.726v35.382a7.726 7.726 0 0 0 7.726 7.726h133.203a7.726 7.726 0 0 0 7.726-7.726V39.545a7.727 7.727 0 0 0-7.726-7.727z" fill="#5766cb"></path><path d="M360.065 120.117H226.862a7.726 7.726 0 1 1 0-15.452h133.203a7.726 7.726 0 1 1 0 15.452zM360.065 153.418H226.862a7.726 7.726 0 1 1 0-15.452h133.203a7.726 7.726 0 1 1 0 15.452zM360.065 190.881H226.862a7.726 7.726 0 1 1 0-15.452h133.203a7.726 7.726 0 1 1 0 15.452zM360.065 228.344H164.423a7.726 7.726 0 1 1 0-15.452h195.642a7.726 7.726 0 1 1 0 15.452zM126.959 228.344H85.334a7.726 7.726 0 1 1 0-15.452h41.626a7.726 7.726 0 1 1-.001 15.452zM360.065 265.808H164.423a7.726 7.726 0 1 1 0-15.452h195.642a7.726 7.726 0 1 1 0 15.452zM126.959 265.808H85.334a7.726 7.726 0 1 1 0-15.452h41.626a7.726 7.726 0 1 1-.001 15.452zM360.065 303.271H164.423a7.726 7.726 0 1 1 0-15.452h195.642a7.726 7.726 0 1 1 0 15.452zM126.959 303.271H85.334a7.726 7.726 0 1 1 0-15.452h41.626a7.726 7.726 0 1 1-.001 15.452zM360.065 340.734H164.423a7.726 7.726 0 1 1 0-15.452h195.642a7.726 7.726 0 1 1 0 15.452zM126.959 340.734H85.334a7.726 7.726 0 1 1 0-15.452h41.626a7.726 7.726 0 1 1-.001 15.452zM360.065 378.198H164.423a7.726 7.726 0 1 1 0-15.452h195.642a7.726 7.726 0 1 1 0 15.452zM126.959 378.198H85.334a7.726 7.726 0 1 1 0-15.452h41.626a7.726 7.726 0 1 1-.001 15.452z" fill="#a2b9e2"></path></g></svg>