<svg viewBox="0 0 512 512" xmlns="http://www.w3.org/2000/svg"><g><path d="M365.348 481.125c0 17.05-13.825 30.875-30.875 30.875H30.875C13.825 512 0 498.176 0 481.125V89.02c0-17.051 13.824-30.872 30.875-30.872h303.598c17.05 0 30.875 13.82 30.875 30.872zm0 0" fill="#aa8452"></path><path d="M365.348 89.02v392.105c0 17.055-13.82 30.875-30.875 30.875h-30.875c17.054 0 30.875-13.82 30.875-30.875V89.02c0-17.051-13.82-30.872-30.875-30.872h30.875c17.05 0 30.875 13.82 30.875 30.872zm0 0" fill="#7f5c3e"></path><path d="M334.473 93.137a5.147 5.147 0 0 0-5.149-5.145H34.992a5.147 5.147 0 0 0-5.148 5.145V475.98a5.147 5.147 0 0 0 5.148 5.145h294.336a5.146 5.146 0 0 0 5.145-5.145zm0 0" fill="#ffffff"></path><path d="M226.281 52.484V15.437C226.281 6.91 219.367 0 210.844 0h-56.606c-8.523 0-15.433 6.91-15.433 15.438v37.046zm0 0" fill="#cccccc"></path><path d="M226.281 15.438v37.046h-30.875V15.437C195.406 6.915 188.5 0 179.97 0h30.875c8.531 0 15.437 6.914 15.437 15.438zm0 0" fill="#a0a0a0"></path><path d="M104.84 42.195c-5.684 0-10.29 4.61-10.29 10.29v50.43c0 5.683 4.606 10.288 10.29 10.288h155.402c5.684 0 10.29-4.605 10.29-10.289v-50.43c0-5.683-4.606-10.289-10.29-10.289zm0 0" fill="#e8e8e8"></path><path d="m443.387 141.262-15.145-8.742c-4.918-2.84-11.21-1.157-14.05 3.765l-12.856 22.27 10.7 19.03h22.257l12.86-22.273c2.84-4.917 1.156-11.21-3.766-14.05zm0 0" fill="#db8733"></path><path d="m395.988 155.469 43.653 25.203c4.918 2.84 6.601 9.129 3.761 14.05l-10.285 17.813-42.347-4.672-19.118-30.812 10.286-17.817c2.843-4.922 9.132-6.605 14.05-3.765zm0 0" fill="#edaf54"></path><path d="M330.773 389.805h-38.25L269.31 354.32l102.343-177.27 61.465 35.485zm0 0" fill="#ffd47d"></path><path d="m309.438 419.27-44.375 20.578c-3.266 1.515-7.036-.711-7.293-4.301l-3.442-48.215a20.568 20.568 0 0 1 2.703-11.75l12.278-21.262 61.464 35.485-12.175 21.086a20.566 20.566 0 0 1-9.16 8.379zm0 0" fill="#edaf54"></path><g fill="#515759"><path d="M76.996 430.008a7.694 7.694 0 0 1-5.121-1.95c-3.188-2.831-3.477-7.71-.645-10.894l17.282-19.46a12.848 12.848 0 0 1 9.8-4.321 12.87 12.87 0 0 1 9.676 4.597l11.883 14.172 14.195-15.41a12.873 12.873 0 0 1 9.461-4.148h.137a12.878 12.878 0 0 1 9.504 4.347l17.68 20.012a7.716 7.716 0 0 1-.672 10.895c-3.196 2.82-8.074 2.52-10.895-.676l-15.793-17.875-14.25 15.469a12.888 12.888 0 0 1-9.758 4.144 12.869 12.869 0 0 1-9.558-4.594l-11.848-14.132-15.304 17.23a7.686 7.686 0 0 1-5.774 2.594zM291.887 175.469H72.68a7.718 7.718 0 0 1-7.72-7.719 7.72 7.72 0 0 1 7.72-7.719h219.207c4.265 0 7.718 3.453 7.718 7.719s-3.453 7.719-7.718 7.719zM165.305 216.637H73.71a7.721 7.721 0 1 1 0-15.441h91.594a7.721 7.721 0 0 1 0 15.441zM237.344 216.637h-36.02a7.721 7.721 0 0 1 0-15.442h36.02a7.721 7.721 0 0 1 0 15.441zM147.809 257.8H73.71c-4.266 0-7.719-3.452-7.719-7.718s3.453-7.719 7.719-7.719h74.098c4.261 0 7.718 3.453 7.718 7.719s-3.457 7.719-7.718 7.719zM215.73 257.8h-34.988c-4.265 0-7.719-3.452-7.719-7.718s3.454-7.719 7.72-7.719h34.987c4.266 0 7.72 3.453 7.72 7.719s-3.458 7.719-7.72 7.719zM127.227 298.969H73.71a7.721 7.721 0 1 1 0-15.441h53.516a7.721 7.721 0 0 1 0 15.441zM215.73 298.969h-55.574a7.721 7.721 0 0 1 0-15.442h55.574a7.718 7.718 0 0 1 7.72 7.72 7.721 7.721 0 0 1-7.72 7.722zM127.227 340.133H73.71a7.719 7.719 0 1 1 0-15.438h53.516a7.718 7.718 0 0 1 7.718 7.72 7.72 7.72 0 0 1-7.718 7.718zm0 0" fill="#515759"></path></g><path d="M270.535 52.484v50.43c0 5.68-4.613 10.29-10.293 10.29h-30.875c5.684 0 10.293-4.61 10.293-10.29v-50.43c0-5.68-4.61-10.289-10.293-10.289h30.875c5.68 0 10.293 4.61 10.293 10.29zm0 0" fill="#cccccc"></path><path d="m443.406 194.719-10.285 17.812-26.738-15.433 10.285-17.817c2.84-4.922 1.156-11.207-3.762-14.047l26.739 15.438c4.917 2.84 6.601 9.125 3.761 14.047zm0 0" fill="#db8733"></path><path d="m304.027 374.375 102.348-177.266 26.738 15.438-102.351 177.266zm0 0" fill="#e89e46"></path><path d="m330.773 389.805-12.175 21.09a20.613 20.613 0 0 1-9.164 8.375l-44.368 20.574c-3.261 1.515-7.043-.703-7.3-4.297l-1.391-19.508 26.32-12.207a20.613 20.613 0 0 0 9.164-8.375l12.172-21.09zm0 0" fill="#db8733"></path></g></svg>