<svg viewBox="0 0 53 53" xmlns="http://www.w3.org/2000/svg"><g><path d="M34.229 28.533 31.61 18.071l-2.37-9.494a3.431 3.431 0 0 0-3.72-2.58H25.5c-.097.015-.202.03-.3.052-.353.071-8.089 2.019-20.092 5.017a3.445 3.445 0 0 0-2.505 4.17c4.985 19.88 4.93 19.78 5.153 20.445.594 1.458 2.254 2.457 4.012 2.017l9.78-2.445 10.184-2.542a3.445 3.445 0 0 0 2.498-4.178z" fill="#5bc658"></path><path d="M7.624 25.751a.58.58 0 0 1-.703-.422l-1.204-4.815a.58.58 0 1 1 1.124-.281l1.205 4.815a.58.58 0 0 1-.422.703zM5.83 18.575a.58.58 0 0 1-.704-.422l-.205-.82a.58.58 0 1 1 1.125-.281l.205.82a.58.58 0 0 1-.422.703zM13.492 11.958l-5.755 1.44a.58.58 0 1 1-.281-1.125l5.755-1.44a.58.58 0 1 1 .28 1.125z" fill="#ffffff" opacity=".4"></path><path d="M34.229 28.533 31.61 18.071l-2.37-9.494a3.431 3.431 0 0 0-3.72-2.58H25.5c.17.436-.014-.13 3.053 12.074l2.077 8.31a3.445 3.445 0 0 1-2.505 4.17l-6.577 1.642c-14.19 3.536-13.39 3.378-13.815 3.42l.023.068a3.462 3.462 0 0 0 4.012 2.025l9.78-2.445 10.184-2.55a3.445 3.445 0 0 0 2.498-4.178z" fill="#49a247"></path><path d="M20.873 21.273a2.53 2.53 0 1 1-4.909 1.231 2.53 2.53 0 0 1 4.909-1.23z" fill="#ffffff"></path><path d="M20.062 19.97a2.53 2.53 0 0 0-3.217 3.021c.132.529.423.975.81 1.303a2.512 2.512 0 0 1-1.691-1.793 2.53 2.53 0 0 1 1.843-3.066c.827-.207 1.66.02 2.255.535z" fill="#e4e3ff"></path><path d="m31.731 32.71-10.184 2.55V23.007a4.939 4.939 0 0 1 4.935-4.935h5.13l2.617 10.462a3.445 3.445 0 0 1-2.498 4.178z" fill="#49a247"></path><path d="M47.196 19.576c-.043-.005-.09-.005-.133-.005H26.485c-1.9 0-3.44 1.54-3.44 3.436V43.59c0 .172.013.339.034.502a3.443 3.443 0 0 0 3.406 2.934h20.573c1.9 0 3.44-1.54 3.44-3.44V23.007a3.434 3.434 0 0 0-3.302-3.431z" fill="#fc6559"></path><path d="M25.363 34.426a.58.58 0 0 1-.58-.58v-4.964a.58.58 0 1 1 1.16 0v4.964c0 .32-.26.58-.58.58zM25.363 27.028a.58.58 0 0 1-.58-.58v-.845a.58.58 0 1 1 1.16 0v.846c0 .32-.26.58-.58.58zM34.402 22.469H28.47a.58.58 0 1 1 0-1.16h5.932a.58.58 0 1 1 0 1.16z" fill="#ffffff" opacity=".4"></path><path d="M47.498 19.6c.017.14.029.285.029.435v20.58c0 1.901-1.542 3.437-3.443 3.437H23.516c-.15 0-.296-.011-.44-.035 0 .03 0 .052.005.076a3.44 3.44 0 0 0 3.402 2.932h20.574c1.901 0 3.443-1.541 3.443-3.442V23.009c0-1.75-1.31-3.2-3.002-3.408z" fill="#f05543"></path><path d="M33.713 33.296a2.53 2.53 0 1 1-5.06.003 2.53 2.53 0 0 1 5.06-.003zM33.713 25.86a2.53 2.53 0 1 1-5.06.003 2.53 2.53 0 0 1 5.06-.002zM33.713 40.732a2.53 2.53 0 1 1-5.06.003 2.53 2.53 0 0 1 5.06-.003zM44.89 33.296a2.53 2.53 0 1 1-5.06.003 2.53 2.53 0 0 1 5.06-.003zM44.89 25.86a2.53 2.53 0 1 1-5.06.003 2.53 2.53 0 0 1 5.06-.002zM44.89 40.732a2.53 2.53 0 1 1-5.06.003 2.53 2.53 0 0 1 5.06-.003z" fill="#ffffff"></path><path d="M33.24 31.835a2.53 2.53 0 0 0-3.854 2.15c0 .545.175 1.05.47 1.46a2.512 2.512 0 0 1-1.205-2.15 2.53 2.53 0 0 1 2.532-2.526c.852 0 1.606.423 2.058 1.066zM33.24 24.4a2.53 2.53 0 0 0-3.854 2.15c0 .544.175 1.049.47 1.46a2.512 2.512 0 0 1-1.205-2.15 2.53 2.53 0 0 1 2.532-2.527c.852 0 1.606.423 2.058 1.066zM33.24 39.27a2.495 2.495 0 0 0-1.32-.376 2.527 2.527 0 0 0-2.069 3.987 2.535 2.535 0 0 1-1.2-2.15 2.53 2.53 0 0 1 2.532-2.527c.852 0 1.606.423 2.058 1.067zM44.42 31.835a2.53 2.53 0 0 0-3.854 2.15c0 .545.174 1.05.47 1.46a2.512 2.512 0 0 1-1.206-2.15 2.53 2.53 0 0 1 2.533-2.526c.852 0 1.605.423 2.057 1.066zM44.42 24.4a2.53 2.53 0 0 0-3.854 2.15c0 .544.174 1.049.47 1.46a2.512 2.512 0 0 1-1.206-2.15 2.53 2.53 0 0 1 2.533-2.527c.852 0 1.605.423 2.057 1.066zM44.42 39.27a2.51 2.51 0 0 0-1.32-.376 2.527 2.527 0 0 0-2.069 3.987 2.527 2.527 0 1 1 3.39-3.61z" fill="#e4e3ff"></path></g></svg>