<svg viewBox="0 0 496.993 496.993" xmlns="http://www.w3.org/2000/svg"><g><path clip-rule="evenodd" d="m236.343 207.857 58.666 16.271 118.867 32.967 32.132-115.343c16.506-59.245-18.58-121.21-77.957-137.68-59.405-16.469-121.48 18.51-138.015 77.783l-19.035 68.401c0 41.784 11.08 53.661 25.342 57.601z" fill="#eb5468" fill-rule="evenodd"></path><path clip-rule="evenodd" d="M395.551 127.75 363.42 243.092l50.456 14.003 32.132-115.343c16.506-59.245-18.58-121.21-77.957-137.68a112.611 112.611 0 0 0-26.08-4.025c44.148 24.549 67.672 77.104 53.58 127.703z" fill="#e5384f" fill-rule="evenodd"></path><path clip-rule="evenodd" d="m413.876 257.096-50.456-14.003-32.132 115.343c-8.608 30.926-29.631 55.248-56.223 69.081a110.396 110.396 0 0 1-8.864 17.206 104.91 104.91 0 0 1-6.137 8.759c54.064 6.605 106.679-27.213 121.679-81.043z" fill="#dddaec" fill-rule="evenodd"></path><path clip-rule="evenodd" d="M141.738 120.266c-52.388 0-94.832 42.378-94.832 94.65 0 36.879 21.109 68.797 51.962 84.445 35.313 15.704 78.695 15.307 111.679-19.304 16.137-16.951 26.052-39.912 26.052-65.141 0-2.381-.085-4.734-.256-7.058-1.648-22.224-10.966-42.293-25.342-57.6-17.301-18.455-41.933-29.992-69.263-29.992z" fill="#ffd772" fill-rule="evenodd"></path><path clip-rule="evenodd" d="m171.227 384.996 110.145 21.799c10.398-51.988-17.472-105.563-68.61-125.888l-2.216-.85c-11.108-4.139-22.501-6.435-33.779-6.973-28.495-1.417-56.365 8.164-77.9 26.277-8.722 7.285-16.364 15.988-22.614 25.937zM266.201 444.722l-95.088-47.424-110.002-34.044c-10.341 51.931 17.529 105.478 68.61 125.774 13.58 5.386 27.614 7.965 41.393 7.965h.199c34.461-.028 67.473-16.016 88.752-43.512a104.9 104.9 0 0 0 6.136-8.759z" fill="#b1e4f9" fill-rule="evenodd"></path><path clip-rule="evenodd" d="M165.119 123.186c21.734 23.188 49.632 107.746-4.688 150.294 5.398-.539 10.853-.68 16.336-.397 11.279.539 22.671 2.835 33.779 6.973 16.137-16.951 26.052-39.912 26.052-65.141 0-2.381-.085-4.734-.256-7.058-1.648-22.224-10.966-42.293-25.342-57.6-12.215-13.011-28.039-22.564-45.881-27.071z" fill="#fbba58" fill-rule="evenodd"></path><path clip-rule="evenodd" d="m266.201 444.722-52.984-21.062a158.5 158.5 0 0 1-3.551 10.545c-9.631 25.739-25.228 47.509-44.632 62.618 2.017.113 4.063.17 6.08.17h.199c34.461-.028 67.473-16.016 88.752-43.512a104.9 104.9 0 0 0 6.136-8.759zM220.234 382.501l61.138 24.293c10.398-51.988-17.472-105.563-68.61-125.888l-2.216-.85a110.395 110.395 0 0 0-21.79-5.726 143.684 143.684 0 0 1 10.455 15.902c13.409 23.613 21.251 52.3 21.251 83.226 0 3.034-.057 6.038-.228 9.043z" fill="#75cef8" fill-rule="evenodd"></path><path clip-rule="evenodd" d="m281.372 406.794-118.27-46.999-86.849-34.498a112.095 112.095 0 0 0-9.29 18.227 114.936 114.936 0 0 0-5.852 19.729l126.083 50.089 79.008 31.38a110.91 110.91 0 0 0 9.318-18.312 113.742 113.742 0 0 0 5.852-19.616z" fill="#75cef8" fill-rule="evenodd"></path><path clip-rule="evenodd" d="m213.217 423.661 52.984 21.062a110.91 110.91 0 0 0 9.318-18.312 113.742 113.742 0 0 0 5.852-19.616l-61.138-24.293c-.709 14.371-3.124 28.204-7.016 41.159z" fill="#60b7ff" fill-rule="evenodd"></path><path d="M165.943 213.175h-.199a7.5 7.5 0 0 1 0-15h.199a7.5 7.5 0 0 1 0 15zM144.92 253.965h-.199a7.5 7.5 0 0 1 0-15h.199a7.5 7.5 0 0 1 0 15zM104.663 224.031h-.228a7.5 7.5 0 0 1 0-15h.228a7.5 7.5 0 0 1 0 15zM132.135 175.304h-.199a7.5 7.5 0 0 1 0-15h.199a7.5 7.5 0 0 1 0 15z" fill="#fbba58"></path></g></svg>