<svg viewBox="0 0 504.5 504.5" xmlns="http://www.w3.org/2000/svg"><g><path d="M169.75 384.5h75.002c4.136 0 7.5 3.364 7.5 7.5v95a7.5 7.5 0 0 0 5.127 7.111c-.001.002.084.031.084.031l29.915 9.972a7.5 7.5 0 0 0 9.487-4.744 7.502 7.502 0 0 0-4.743-9.487l-24.871-8.29V392c0-12.407-10.094-22.5-22.5-22.5h-100l24.999 15z" fill="#696969"></path><path d="M132.25 352v100c0 4.136-3.364 7.5-7.5 7.5h-83a7.5 7.5 0 0 0-7.111 5.127 1.203 1.203 0 0 0-.031.084l-9.972 29.915a7.5 7.5 0 0 0 4.744 9.487 7.502 7.502 0 0 0 9.487-4.743l8.29-24.871h77.593c12.407 0 22.5-10.094 22.5-22.5V352h-15z" fill="#808080"></path><path d="M274.75 132a7.499 7.499 0 0 0-7.5 7.5v10h15v-10c0-4.143-3.357-7.5-7.5-7.5z" fill="#ffcb63"></path><path d="M364.75 217.5c-12.406 0-22.5-10.094-22.5-22.5v-48c0-4.143-3.357-7.5-7.5-7.5s-7.5 3.357-7.5 7.5v48c0 20.678 16.822 37.5 37.5 37.5h45v-15h-45z" fill="#ff6753"></path><path d="M484.75 504.5a7.499 7.499 0 0 1-7.5-7.5v-27.715l-43.727-65.104a7.501 7.501 0 0 1-1.273-4.182V285c0-4.143 3.357-7.5 7.5-7.5s7.5 3.357 7.5 7.5v112.714l43.727 65.104A7.501 7.501 0 0 1 492.25 467v30c0 4.143-3.357 7.5-7.5 7.5z" fill="#ffb4a9"></path><path d="M372.25 285v196.592l-24.87 8.29a7.5 7.5 0 0 0 4.743 14.231l29.998-10a7.5 7.5 0 0 0 5.128-7.115V285H372.25z" fill="#ffd9d4"></path><path d="M109.75 232c-45.491 0-82.5-37.009-82.5-82.5a7.5 7.5 0 0 0-15 0c0 53.762 43.738 97.5 97.5 97.5h45v-15h-45z" fill="#ff8646"></path><path d="M274.75 187c-12.406 0-22.5-10.094-22.5-22.5s10.094-22.5 22.5-22.5 22.5 10.094 22.5 22.5-10.094 22.5-22.5 22.5zm0-30c-4.136 0-7.5 3.364-7.5 7.5s3.364 7.5 7.5 7.5 7.5-3.364 7.5-7.5-3.364-7.5-7.5-7.5z" fill="#ffa754"></path><path d="M274.75 202h-15c-4.143 0-7.5 3.357-7.5 7.5s3.357 7.5 7.5 7.5h15c4.136 0 7.5 3.364 7.5 7.5s-3.364 7.5-7.5 7.5h-120v15h120c12.406 0 22.5-10.094 22.5-22.5s-10.094-22.5-22.5-22.5z" fill="#ff6753"></path><path d="M204.546 115.75a7.5 7.5 0 0 0-10.245-2.745L175.24 124.01l11.005-19.061c2.071-3.588.843-8.174-2.745-10.245s-8.174-.843-10.245 2.745L162.25 116.51V94.5c0-4.143-3.357-7.5-7.5-7.5s-7.5 3.357-7.5 7.5v22.01l-11.005-19.061c-2.071-3.588-6.657-4.816-10.245-2.745s-4.816 6.657-2.745 10.245l11.005 19.061-19.061-11.005a7.5 7.5 0 1 0-7.5 12.99l39.551 22.835h15l39.551-22.835a7.498 7.498 0 0 0 2.745-10.245z" fill="#40211d"></path><path d="M154.75 99.5v90c24.853 0 45-20.147 45-45s-20.147-45-45-45z" fill="#85453d"></path><path d="M169.75 144.5c0-24.853-6.716-45-15-45-24.853 0-45 20.147-45 45s20.147 45 45 45c8.284 0 15-20.147 15-45z" fill="#a45e43"></path><path d="M169.75 384.5h30v-45l-50-50z" fill="#696969"></path><path d="M109.75 339.5c0 24.853 20.147 45 45 45h15v-95l-60 50z" fill="#808080"></path><path d="M179.75 219.5h-30l20 120h30v-100c0-11.046-8.954-20-20-20z" fill="#ff6753"></path><path d="M169.75 239.5c0-11.046-8.954-20-20-20h-20c-11.046 0-20 8.954-20 20v100h60v-100z" fill="#ff8646"></path><path d="M419.75 0c-3.721 0-7.164 1.17-10 3.15a17.406 17.406 0 0 0-10-3.15c-9.665 0-17.5 7.835-17.5 17.5 0 15.188 12.312 27.5 27.5 27.5s27.5-12.312 27.5-27.5c0-9.665-7.835-17.5-17.5-17.5z" fill="#c27749"></path><path d="M444.005 60.835c.01-.01-34.255-.005-34.255-.005V135c24.85 0 45-20.15 45-45a44.791 44.791 0 0 0-10.745-29.165z" fill="#ffb4a9"></path><path d="m423.64 73.01-48.145-12.175A44.791 44.791 0 0 0 364.75 90c0 24.85 20.15 45 45 45 8.28 0 15-20.15 15-45 0-6.01-.39-11.75-1.11-16.99z" fill="#ffd9d4"></path><path d="m409.75 45 13.89 28.01c7.45-2.23 14.475-6.295 20.365-12.175C435.755 51.145 423.47 45 409.75 45z" fill="#a45e43"></path><path d="M409.75 45c-13.72 0-26.005 6.145-34.255 15.835 13.04 13.04 31.645 17.105 48.145 12.175C421.41 56.58 416.03 45 409.75 45z" fill="#c27749"></path><path d="M454.75 255v-70c0-11.046-8.954-20-20-20h-30v120l35 60h30v-50.335c0-15.211-5.671-29.09-15-39.665z" fill="#ff4128"></path><path d="M424.75 255v-70c0-11.046-8.954-20-20-20h-20c-11.046 0-20 8.954-20 20v70c-9.329 10.575-15 24.454-15 39.665V345h90v-50.335c0-15.211-5.671-29.09-15-39.665z" fill="#ff6753"></path><path d="M424.75 232.5c-20.678 0-37.5-16.822-37.5-37.5v-90c0-4.143 3.357-7.5 7.5-7.5s7.5 3.357 7.5 7.5v90c0 12.406 10.094 22.5 22.5 22.5 4.143 0 7.5 3.357 7.5 7.5s-3.357 7.5-7.5 7.5z" fill="#ff4128"></path></g></svg>