<svg viewBox="0 0 512 512" xmlns="http://www.w3.org/2000/svg"><g><path d="M112.477 299.058H18.746C8.393 299.058 0 290.665 0 280.311V186.58c0-10.353 8.393-18.746 18.746-18.746h93.731c10.353 0 18.746 8.393 18.746 18.746v93.731c0 10.354-8.393 18.747-18.746 18.747z" fill="#ffe07d"></path><path d="M114.053 167.874c.198 2.603.299 5.234.299 7.888 0 56.684-45.951 102.635-102.635 102.635-3.963 0-7.871-.232-11.716-.67v2.544c0 10.353 8.393 18.746 18.746 18.746h93.731c10.353 0 18.746-8.393 18.746-18.746V186.54c-.001-9.82-7.557-17.864-17.171-18.666z" fill="#ffd064"></path><path d="M83.404 228.519a22.583 22.583 0 0 0 3.95-12.782c0-12.522-10.187-22.709-22.709-22.709H45.588a7.61 7.61 0 0 0-7.611 7.611v65.611a7.613 7.613 0 0 0 7.612 7.612h.034c.002 0 17.524-.078 22.353-.078 13.936 0 25.273-11.337 25.273-25.272-.002-8.127-3.864-15.367-9.845-19.993zm-18.758-20.267c4.128 0 7.486 3.358 7.486 7.486s-3.358 7.486-7.486 7.486c-1.411 0-11.447.018-11.447.018v-14.99zm3.328 50.31c-2.71 0-9.402.024-14.775.046v-20.127c1.473-.006 14.775-.017 14.775-.017 5.541 0 10.05 4.508 10.05 10.049 0 5.542-4.509 10.049-10.05 10.049z" fill="#ecf4ff"></path><path d="M112.477 135.029H18.746C8.393 135.029 0 126.636 0 116.283V22.552C0 12.199 8.393 3.806 18.746 3.806h93.731c10.353 0 18.746 8.393 18.746 18.746v93.731c0 10.353-8.393 18.746-18.746 18.746z" fill="#df75a5"></path><path d="M114.053 3.806c.198 2.603.299 5.234.299 7.888 0 56.684-45.951 102.635-102.635 102.635-3.963 0-7.871-.232-11.716-.67v2.544c0 10.353 8.393 18.746 18.746 18.746h93.731c10.353 0 18.746-8.393 18.746-18.746V22.472c-.001-9.821-7.557-17.864-17.171-18.666z" fill="#dd5790"></path><path d="M397.477 135.029h-93.731c-10.353 0-18.746-8.393-18.746-18.746V22.552c0-10.353 8.393-18.746 18.746-18.746h93.731c10.353 0 18.746 8.393 18.746 18.746v93.731c0 10.353-8.393 18.746-18.746 18.746z" fill="#b3e59f"></path><path d="M399.053 3.885c.198 2.603.299 5.234.299 7.888 0 56.684-45.951 102.635-102.635 102.635-3.963 0-7.871-.232-11.716-.67v2.544c0 10.353 8.393 18.746 18.746 18.746h93.731c10.353 0 18.746-8.393 18.746-18.746v-93.73c-.001-9.821-7.557-17.864-17.171-18.667z" fill="#95d6a4"></path><path d="M397.477 299.058h-93.731c-10.353 0-18.746-8.393-18.746-18.746v-93.731c0-10.353 8.393-18.746 18.746-18.746h93.731c10.353 0 18.746 8.393 18.746 18.746v93.731c0 10.353-8.393 18.746-18.746 18.746z" fill="#90d8f9"></path><path d="M399.053 167.914c.198 2.603.299 5.234.299 7.888 0 56.684-45.951 102.635-102.635 102.635-3.963 0-7.871-.233-11.716-.67v2.544c0 10.353 8.393 18.746 18.746 18.746h93.731c10.353 0 18.746-8.393 18.746-18.746V186.58c-.001-9.821-7.557-17.864-17.171-18.666z" fill="#75cef9"></path><path d="M98.633 99.536 74.22 34.845A9.068 9.068 0 0 0 65.724 29h-.009a9.065 9.065 0 0 0-8.48 5.826L32.598 99.514a7.611 7.611 0 1 0 14.226 5.418l4.269-11.208H80.17l4.222 11.186a7.613 7.613 0 0 0 9.809 4.434 7.61 7.61 0 0 0 4.432-9.808zM56.89 78.501l8.807-23.124 8.727 23.124z" fill="#ecf4ff"></path><g fill="#4a80aa"><path d="M219.389 44.223h-55.36a7.612 7.612 0 0 1 0-15.223h55.36a7.612 7.612 0 0 1 0 15.223zM198.885 77.029h-34.856a7.61 7.61 0 1 1 0-15.222h34.856a7.61 7.61 0 1 1 0 15.222zM198.885 109.834h-34.856a7.61 7.61 0 1 1 0-15.222h34.856a7.61 7.61 0 1 1 0 15.222zM219.389 208.252h-55.36a7.61 7.61 0 1 1 0-15.222h55.36a7.61 7.61 0 1 1 0 15.222zM198.885 241.057h-34.856a7.61 7.61 0 1 1 0-15.222h34.856a7.61 7.61 0 0 1 7.611 7.611 7.61 7.61 0 0 1-7.611 7.611zM198.885 273.863h-34.856a7.612 7.612 0 0 1 0-15.223h34.856c4.204 0 7.611 3.408 7.611 7.612s-3.407 7.611-7.611 7.611z" fill="#4a80aa"></path></g><path d="M356.681 109.834c-22.286 0-40.417-18.131-40.417-40.417S334.394 29 356.681 29a40.232 40.232 0 0 1 22.603 6.907 7.612 7.612 0 0 1-8.521 12.615 25.06 25.06 0 0 0-14.081-4.298c-13.892 0-25.194 11.302-25.194 25.194s11.302 25.194 25.194 25.194c5.171 0 9.525-1.543 12.943-4.586a18.811 18.811 0 0 0 1.891-1.953 7.612 7.612 0 0 1 11.667 9.779 34.044 34.044 0 0 1-3.433 3.543c-6.203 5.52-14.179 8.439-23.069 8.439zM328.205 273.863a7.61 7.61 0 0 1-7.612-7.585s-.085-23.785-.085-32.905c0-7.481-.048-32.719-.048-32.719a7.612 7.612 0 0 1 7.612-7.625h18.583c20.4 0 34.107 16.242 34.107 40.417 0 22.996-14.059 39.933-33.431 40.272-5.289.092-18.535.143-19.097.145h-.029zm7.493-65.611c.014 8.07.034 20.293.034 25.122 0 5.782.035 17.468.059 25.228 4.043-.024 8.696-.06 11.275-.105 12.761-.223 18.474-12.743 18.474-25.051 0-12.18-4.96-25.194-18.884-25.194z" fill="#ecf4ff"></path><path d="M504.388 44.223h-55.36A7.612 7.612 0 1 1 449.029 29h55.36a7.612 7.612 0 1 1-.001 15.223zM483.885 77.029h-34.856a7.612 7.612 0 1 1 0-15.222h34.856a7.61 7.61 0 1 1 0 15.222zM483.885 109.834h-34.856a7.612 7.612 0 1 1 0-15.222h34.856a7.61 7.61 0 1 1 0 15.222zM504.388 208.252h-55.36a7.612 7.612 0 1 1 0-15.222h55.36a7.612 7.612 0 1 1 0 15.222zM483.885 241.057h-34.856a7.612 7.612 0 1 1 0-15.222h34.856a7.61 7.61 0 0 1 7.611 7.611 7.61 7.61 0 0 1-7.611 7.611zM483.885 273.863h-34.856a7.612 7.612 0 1 1 0-15.223h34.856c4.204 0 7.611 3.408 7.611 7.612s-3.407 7.611-7.611 7.611z" fill="#4a80aa"></path><path d="m84.873 498.686 10.439 7.574a10.15 10.15 0 0 0 5.96 1.934H274.84c4.1 0 7.028-3.969 5.818-7.887l-8.271-26.771a10.134 10.134 0 0 1-.437-2.441l-1.966-35.918a40.994 40.994 0 0 0-1.766-9.865l-31.954-103.43c-3.282-10.622-14.337-17.117-25.069-14.215-11.267 3.047-17.672 14.794-14.256 25.85l-6.21-20.1c-3.282-10.622-14.337-17.117-25.069-14.215-11.267 3.047-17.672 14.794-14.256 25.85l-5.907-19.12c-3.282-10.622-14.337-17.118-25.069-14.215-11.267 3.047-17.672 14.794-14.256 25.85L85.74 251.43c-3.282-10.622-14.337-17.118-25.069-14.215-11.267 3.047-17.672 14.794-14.256 25.85l36.313 117.54c-3.416-11.056-15.33-17.144-26.353-13.304-10.499 3.657-15.964 15.256-12.682 25.878l26.081 84.42a41.001 41.001 0 0 0 15.099 21.087z" fill="#ffddce"></path><path d="M160.35 508.194h114.49c4.1 0 7.028-3.969 5.818-7.887l-8.271-26.771a10.134 10.134 0 0 1-.437-2.441l-1.966-35.92a40.962 40.962 0 0 0-1.766-9.862l-20.536-66.473c-7.931 44.395-29.446 107.694-87.332 149.354z" fill="#ffcbbe"></path><g fill="#ffcbbe"><path d="m65.206 236.552 44.485 143.99a7.616 7.616 0 0 0 7.271 5.367 7.611 7.611 0 0 0 7.275-9.86L85.712 251.351c-2.845-9.079-11.374-15.104-20.506-14.799zM124.963 291.053l23.908 77.384a7.616 7.616 0 0 0 7.271 5.367 7.611 7.611 0 0 0 7.275-9.86l-17.949-58.096c-2.846-9.077-11.375-15.1-20.505-14.795zM170.195 298.539l17.855 57.794a7.616 7.616 0 0 0 7.271 5.367 7.611 7.611 0 0 0 7.275-9.86l-11.897-38.508c-2.846-9.076-11.374-15.098-20.504-14.793zM215.766 307.004l11.74 37.999a7.616 7.616 0 0 0 7.271 5.367c.743 0 1.5-.11 2.249-.341 3.824-1.181 6.04-5.102 5.173-8.941l-5.934-19.206c-2.816-9.112-11.353-15.167-20.499-14.878zM82.524 380.045c-2.982-8.75-11.336-14.219-20.214-13.855l19.65 63.604-4.619 8.75a7.611 7.611 0 1 0 13.461 7.108l6.092-11.539a7.61 7.61 0 0 0 .541-5.801z" fill="#ffcbbe"></path></g></g></svg>