<svg viewBox="0 0 512 512" xmlns="http://www.w3.org/2000/svg"><g><path d="M482.565 99.438H29.434a7.5 7.5 0 0 1 0-15h453.131c4.143 0 7.5 3.358 7.5 7.5s-3.357 7.5-7.5 7.5z" fill="#dff6fd"></path><path d="M402.768 94.965v63.609c0 2.352-3.116 3.136-4.261 1.082-9.292-16.669-21.806-27.717-36.489-34.98-7.942-3.929-16.743-5.806-25.604-5.806h-13.953L248.4 139.473l-58.861-20.604h-13.905c-9.424 0-18.729 2.211-27.101 6.538-14.058 7.268-26.056 18.13-35.04 34.248-1.145 2.054-4.261 1.27-4.261-1.082V94.965H75.106v116.482c0 16.939 17.75 23.418 32.796 15.652 19.539-10.097 38.588-21.789 56.431-36.76 2.978-2.499 7.528-1.276 8.893 2.364a63.674 63.674 0 0 0 7.327 13.967 72.276 72.276 0 0 1 1.532 2.3h147.829a72.276 72.276 0 0 1 1.532-2.3 63.696 63.696 0 0 0 7.327-13.967c1.365-3.64 5.915-4.863 8.893-2.364 17.843 14.971 36.892 26.663 56.431 36.76 15.046 7.766 32.796 1.287 32.796-15.652V94.965z" fill="#ffdfcf"></path><path d="M312.659 203.497a218.097 218.097 0 0 0-2.215 5.473h19.47a72.276 72.276 0 0 1 1.532-2.3 63.653 63.653 0 0 0 7.327-13.967c1.365-3.64 5.915-4.863 8.893-2.364-14.433-11.469-28.926-1.435-35.007 13.158zM199.341 118.869a51.768 51.768 0 0 0 15.88 25.484l11.338 9.927a32.772 32.772 0 0 0 21.587 8.115h15.708a32.772 32.772 0 0 0 21.587-8.115l11.338-9.927a51.759 51.759 0 0 0 15.88-25.484z" fill="#ffcebf"></path><path d="M322.461 118.869h-38.994c5.209 9.235 8.348 21.131 8.348 34.118 0 29.37-16.035 53.18-35.815 53.18s-35.815-23.809-35.815-53.18c0-12.988 3.14-24.883 8.348-34.118h-38.994c1.703 25.936 3.419 63.169-7.456 90.102 7.909 12.384 11.838 26.941 11.838 41.679v57.019H318.08V250.65c0-14.738 3.929-29.295 11.838-41.679-10.876-26.933-9.16-64.166-7.457-90.102z" fill="#fea95c"></path><path d="M324.215 188.742c-4.924 3.261-8.99 8.598-11.555 14.755-6.08 14.593-10.16 25.452-10.16 78.959l15.58 1.027v-32.832c0-14.738 3.929-29.295 11.838-41.679-2.534-6.274-4.377-13.111-5.703-20.23z" fill="#fe7d43"></path><g fill="#fe7d43"><path d="m291.699 148.801 5.081-4.448a51.759 51.759 0 0 0 15.88-25.484h-29.193c4.643 8.233 7.635 18.582 8.232 29.932zM215.221 144.353l5.081 4.448c.596-11.35 3.589-21.7 8.232-29.932h-29.193a51.756 51.756 0 0 0 15.88 25.484z" fill="#fe7d43"></path></g><path d="M402.768 125.566c.352.022.701.053 1.059.053h23.842c3.408 0 6.574-1.019 9.225-2.759V94.965h-34.126zM75.106 122.86a16.763 16.763 0 0 0 9.225 2.759h23.842c.357 0 .707-.031 1.059-.053V94.965H75.106z" fill="#ffcebf"></path><path d="M386.976 94.768V83.711c0-7.211 5.846-13.057 13.057-13.057h31.43c7.211 0 13.057 5.846 13.057 13.057v11.057c0 9.306-7.544 16.851-16.851 16.851h-23.842c-9.307 0-16.851-7.544-16.851-16.851z" fill="#ffdfcf"></path><path d="M431.463 70.654h-21c7.211 0 13.057 5.846 13.057 13.057v11.057c0 9.307-7.544 16.851-16.851 16.851h21c9.306 0 16.851-7.544 16.851-16.851V83.711c0-7.211-5.846-13.057-13.057-13.057z" fill="#ffcebf"></path><path d="M125.024 94.768V83.711c0-7.211-5.846-13.057-13.057-13.057h-31.43c-7.211 0-13.057 5.846-13.057 13.057v11.057c0 9.306 7.544 16.851 16.851 16.851h23.842c9.307 0 16.851-7.544 16.851-16.851zM260.095 34.483h-8.191c-24.637 0-44.61 19.972-44.61 44.61v24.18a43.138 43.138 0 0 0 14.723 32.458l9.448 8.272a27.31 27.31 0 0 0 17.989 6.762h13.09c6.618 0 13.01-2.403 17.989-6.762l9.448-8.272a43.143 43.143 0 0 0 14.723-32.458v-24.18c.001-24.637-19.971-44.61-44.609-44.61z" fill="#ffdfcf"></path><path d="M260.095 34.483h-8.191c-2.107 0-4.177.157-6.206.439 21.698 3.022 38.403 21.64 38.403 44.17v24.18a43.138 43.138 0 0 1-14.723 32.458l-9.448 8.272c-4.027 3.526-8.984 5.745-14.232 6.475 1.24.173 2.492.287 3.757.287h13.09c6.618 0 13.01-2.403 17.989-6.762l9.448-8.272a43.143 43.143 0 0 0 14.723-32.458v-24.18c0-24.636-19.972-44.609-44.61-44.609z" fill="#ffcebf"></path><path d="m348.329 322.048-7.495-66.67-18.523 1.611a40.975 40.975 0 0 0-33.029 22.358 14.203 14.203 0 0 1-12.68 7.803h-41.205a14.205 14.205 0 0 1-12.68-7.803 40.976 40.976 0 0 0-33.029-22.358l-18.523-1.611-7.495 66.67h11.271c12.223 20.465 34.582 34.176 60.151 34.176h41.814c25.569 0 47.929-13.711 60.151-34.176z" fill="#678d98"></path><path d="m370.14 315.693-5.317-41.012c-1.673-12.906-12.665-22.565-25.679-22.565s-24.006 9.659-25.679 22.565l-5.317 41.012a87.374 87.374 0 0 0 3.758 38.86 87.348 87.348 0 0 1 4.483 27.628v54.973l17.903 10.302 27.605-10.302v-54.973c0-9.39 1.514-18.719 4.483-27.628a87.36 87.36 0 0 0 3.76-38.86z" fill="#ffdfcf"></path><path d="m370.14 315.693-5.317-41.012c-1.673-12.906-12.665-22.565-25.679-22.565-3.848 0-7.511.863-10.817 2.386 7.874 3.628 13.684 11.09 14.863 20.179l5.317 41.011a87.374 87.374 0 0 1-3.758 38.86 87.376 87.376 0 0 0-4.483 27.628v54.973H361.9V382.18c0-9.39 1.514-18.719 4.483-27.628a87.397 87.397 0 0 0 3.757-38.859z" fill="#ffcebf"></path><path d="m141.86 315.693 5.317-41.012c1.673-12.906 12.665-22.565 25.679-22.565s24.006 9.659 25.679 22.565l5.316 41.012a87.374 87.374 0 0 1-3.758 38.86 87.381 87.381 0 0 0-4.483 27.628v54.973l-31.939 20.604-13.569-20.604v-54.973c0-9.39-1.514-18.719-4.483-27.628a87.375 87.375 0 0 1-3.759-38.86z" fill="#ffdfcf"></path><path d="m203.852 315.693-5.316-41.012c-1.673-12.906-12.665-22.565-25.679-22.565-4.046 0-7.896.936-11.332 2.611 7.615 3.712 13.194 11.061 14.347 19.955l5.316 41.011a87.36 87.36 0 0 1-3.758 38.86 87.348 87.348 0 0 0-4.483 27.628v54.973h22.664v-54.973c0-9.39 1.514-18.719 4.483-27.628a87.374 87.374 0 0 0 3.758-38.86z" fill="#ffcebf"></path><path d="M468.336 24.088v135.701c0 5.974 4.843 10.816 10.816 10.816h22.031c5.974 0 10.816-4.843 10.816-10.816V24.088c0-5.974-4.843-10.816-10.816-10.816h-22.031c-5.974-.001-10.816 4.842-10.816 10.816z" fill="#678d98"></path><path d="M501.184 13.271H479.55c5.974 0 10.816 4.843 10.816 10.816v135.701c0 5.974-4.843 10.816-10.816 10.816h21.634c5.974 0 10.816-4.843 10.816-10.816v-135.7c0-5.974-4.843-10.817-10.816-10.817z" fill="#4e737c"></path><path d="M0 24.088v135.701c0 5.974 4.843 10.816 10.816 10.816h22.031c5.974 0 10.816-4.843 10.816-10.816V24.088c0-5.974-4.843-10.816-10.816-10.816H10.816C4.843 13.271 0 18.114 0 24.088z" fill="#678d98"></path><path d="M32.848 13.271H11.214c5.974 0 10.816 4.843 10.816 10.816v135.701c0 5.974-4.843 10.816-10.816 10.816h21.634c5.974 0 10.816-4.843 10.816-10.816v-135.7c0-5.974-4.842-10.817-10.816-10.817z" fill="#4e737c"></path><path d="M361.898 437.154H316.39l-7.068 40.237c-1.956 11.135 6.611 21.338 17.916 21.338h39.39c10.046 0 18.19-8.144 18.19-18.19 0-3.285-.89-6.509-2.574-9.329z" fill="#678d98"></path><path d="m382.243 471.209-20.345-34.055h-21.634l20.345 34.056a18.188 18.188 0 0 1 2.574 9.329c0 10.046-8.144 18.19-18.19 18.19h21.634c10.046 0 18.19-8.144 18.19-18.19a18.179 18.179 0 0 0-2.574-9.33z" fill="#4e737c"></path><path d="M150.102 437.154h45.508l7.068 40.237c1.956 11.135-6.611 21.338-17.916 21.338h-39.39c-10.046 0-18.19-8.144-18.19-18.19 0-3.285.89-6.509 2.574-9.329z" fill="#678d98"></path><path d="m202.678 477.391-7.068-40.237h-22.664l7.068 40.237c1.956 11.135-6.611 21.338-17.916 21.338h22.664c11.305 0 19.872-10.203 17.916-21.338z" fill="#4e737c"></path><path d="M111.967 70.654h-21c7.211 0 13.057 5.846 13.057 13.057v11.057c0 9.307-7.544 16.851-16.851 16.851h21c9.306 0 16.851-7.544 16.851-16.851V83.711c0-7.211-5.845-13.057-13.057-13.057z" fill="#ffcebf"></path></g></svg>