<svg id="Layer_1" height="512" viewBox="0 0 64 64" width="512" xmlns="http://www.w3.org/2000/svg" data-name="Layer 1"><circle cx="14.71" cy="37.98" fill="#f2c341" r="5"/><rect fill="#2398e6" height="10" rx=".2" width="10" x="52" y="2"/><path d="m35.13 25 8.54-6a.21.21 0 0 1 .32.17l-.31 10.45a.2.2 0 0 1 -.29.17l-8.24-4.49a.2.2 0 0 1 -.02-.3z" fill="#e36a5c"/><rect fill="#2398e6" height="41" rx="1" width="6" x="54" y="17"/><rect fill="#e36a5c" height="29" rx="1" transform="matrix(.881 .473 -.473 .881 24.37 -9.22)" width="6" x="27.51" y="29.31"/><rect fill="#f2c341" height="11" rx="1" transform="matrix(.877 .48 -.48 .877 25.65 2.84)" width="6" x="4.27" y="46.08"/><rect fill="#394e73" height="2" rx="1" width="62" x="1" y="61"/><path d="m2 11.8v-5.6a.2.2 0 0 1 .2-.2h20.6a.2.2 0 0 0 .2-.2v-3.36a.2.2 0 0 1 .33-.15l7.5 6.56a.2.2 0 0 1 0 .3l-7.5 6.56a.2.2 0 0 1 -.33-.15v-3.36a.2.2 0 0 0 -.2-.2h-20.6a.2.2 0 0 1 -.2-.2z" fill="#26bd64"/></svg>