<svg height="512" viewBox="0 0 58 60" width="512" xmlns="http://www.w3.org/2000/svg"><g id="Page-1" fill="none" fill-rule="evenodd"><g id="037---Eye" fill-rule="nonzero"><path id="Shape" d="m58 30s-8-11-29-11-29 11-29 11c.00148327-.4560717.16044565-.8976339.45-1.25 3.36-4.08 14.87-16.75 28.55-16.75s25.19 12.67 28.55 16.75c.2895544.3523661.4485167.7939283.45 1.25z" fill="#fdd7ad"/><path id="Shape" d="m58 30c-.0014833.4560717-.1604456.8976339-.45 1.25-3.36 4.08-14.87 16.75-28.55 16.75s-25.19-12.67-28.55-16.75c-.28955435-.3523661-.44851673-.7939283-.45-1.25 0 0 8-11 29-11s29 11 29 11z" fill="#ecf0f1"/><g fill="#67b9cc"><path id="Shape" d="m29 8c-.5522847 0-1-.44771525-1-1v-6c0-.55228475.4477153-1 1-1s1 .44771525 1 1v6c0 .55228475-.4477153 1-1 1z"/><path id="Shape" d="m17.5 11.082c-.3576137.0003484-.6881932-.1902972-.867-.5l-3-5.2c-.1814844-.30957042-.1831833-.69264947-.0044519-1.00381742.1787315-.31116795.5104885-.50271357.8693336-.50192468.3588451.00078888.6897567.19379132.8671183.5057421l3 5.2c.1785415.30924248.1786393.6902222.0002566.9995563s-.5081742.5000777-.8652566.5004437z"/><path id="Shape" d="m14.5 56.115c-.3570824-.000366-.6868739-.1911096-.8652566-.5004437s-.1782849-.6903138.0002566-.9995563l3-5.2c.2780058-.4742136.886647-.6351286 1.3626943-.3602745.4760473.274854.640996.8824145.3693057 1.3602745l-3 5.2c-.1788068.3097028-.5093863.5003484-.867.5z"/><path id="Shape" d="m29 60c-.5522847 0-1-.4477153-1-1v-6c0-.5522847.4477153-1 1-1s1 .4477153 1 1v6c0 .5522847-.4477153 1-1 1z"/><path id="Shape" d="m43.5 56.115c-.3576137.0003484-.6881932-.1902972-.867-.5l-3-5.2c-.1814844-.3095704-.1831833-.6926495-.0044519-1.0038174.1787315-.311168.5104885-.5027136.8693336-.5019247s.6897567.1937913.8671183.5057421l3 5.2c.1785415.3092425.1786393.6902222.0002566.9995563s-.5081742.5000777-.8652566.5004437z"/><path id="Shape" d="m40.5 11.082c-.3570824-.000366-.6868739-.1911096-.8652566-.5004437s-.1782849-.69031382.0002566-.9995563l3-5.2c.2780058-.47421361.886647-.63512861 1.3626943-.36027453s.640996.88241457.3693057 1.36027453l-3 5.2c-.1788068.3097028-.5093863.5003484-.867.5z"/></g><path id="Shape" d="m43 30c.0013008 6.3800527-4.3111036 11.9540202-10.4870346 13.5549419-6.1759311 1.6009216-12.6530951-1.1761796-15.7513624-6.7534383-3.0982673-5.5772586-2.0338849-12.5438242 2.588397-16.9415036 3.1827364-.5875071 6.4135301-.8754328 9.65-.86 3.2364699-.0154328 6.4672636.2724929 9.65.86 2.7814857 2.6388473 4.3546389 6.3059217 4.35 10.14z" fill="#3b97d3"/><path id="Shape" d="m25.8 24.93c.9553769-.6105323 2.0662084-.9333677 3.2-.93 3.3137085 0 6 2.6862915 6 6s-2.6862915 6-6 6-6-2.6862915-6-6c-.0007152-.3387004.0294091-.6767625.09-1.01z" fill="#35495e"/><circle id="Oval" cx="23" cy="26" fill="#ecf0f1" r="3"/></g></g></svg>