<svg fill-rule="evenodd" viewBox="0 0 1.707 1.707" xmlns="http://www.w3.org/2000/svg"><g><path d="M.398 1.706a.268.268 0 0 1-.19-.078L.078 1.5a.27.27 0 0 1 0-.382L.303.894A.27.27 0 0 1 .668.879.02.02 0 0 1 .67.908L.608.969a.09.09 0 0 0-.021.035.02.02 0 0 0-.007-.02A.133.133 0 0 0 .4.99l-.224.224a.132.132 0 0 0-.039.094c0 .035.014.069.039.094l.128.128c.025.025.058.038.094.038s.07-.013.094-.038l.224-.224a.134.134 0 0 0 .007-.18.02.02 0 0 0-.02-.007.09.09 0 0 0 .035-.022l.06-.06a.02.02 0 0 1 .03.001.272.272 0 0 1-.015.365l-.224.224a.268.268 0 0 1-.191.078zm.186-.69a.093.093 0 0 0 .024.082.09.09 0 0 0-.024-.082z" fill="#283d79"></path><path d="M.631.852A.267.267 0 0 1 .668.88.02.02 0 0 1 .67.908L.608.969a.09.09 0 0 0-.021.035.02.02 0 0 0-.007-.02.132.132 0 0 0-.046-.026.158.158 0 0 1 .027-.036l.07-.07zm.118.32a.132.132 0 0 0-.026-.046.02.02 0 0 0-.02-.006.09.09 0 0 0 .035-.022l.06-.06a.02.02 0 0 1 .03.001c.01.011.019.024.026.037l-.07.07a.157.157 0 0 1-.035.027zm-.165-.156a.093.093 0 0 0 .024.082.09.09 0 0 0-.024-.082z" fill="#24376d"></path><path d="M1.213.891A.27.27 0 0 1 1.04.828a.02.02 0 0 1-.001-.03l.06-.06a.09.09 0 0 0 .023-.036.02.02 0 0 0 .006.02.134.134 0 0 0 .18-.007l.224-.223a.134.134 0 0 0 0-.189L1.404.176a.133.133 0 0 0-.095-.039.133.133 0 0 0-.094.04L.992.398a.135.135 0 0 0-.008.18.02.02 0 0 0 .02.007.09.09 0 0 0-.035.022L.91.67a.02.02 0 0 1-.03-.001.272.272 0 0 1 .016-.366L1.118.08A.269.269 0 0 1 1.309 0c.073 0 .14.028.192.08l.127.126c.05.051.079.12.079.192 0 .072-.029.14-.08.191l-.222.223a.269.269 0 0 1-.192.079zm-.088-.22z" fill="#eb114a"></path><path d="M1.076.854A.267.267 0 0 1 1.04.828a.02.02 0 0 1-.001-.03l.06-.06a.09.09 0 0 0 .023-.036.02.02 0 0 0 .006.02c.013.012.03.02.046.026a.157.157 0 0 1-.027.036l-.07.07zM.96.534A.132.132 0 0 0 .984.58a.02.02 0 0 0 .02.006.09.09 0 0 0-.035.022L.91.67a.02.02 0 0 1-.03-.001A.266.266 0 0 1 .853.63l.07-.07C.932.55.945.54.958.534zm.166.136z" fill="#d40f43"></path><path d="M.673 1.165a.13.13 0 0 1-.131-.131A.13.13 0 0 1 .58.94L.941.58A.13.13 0 0 1 1.034.54a.131.131 0 0 1 .093.224l-.361.362a.13.13 0 0 1-.093.038z" fill="#ffb711"></path><path d="M.724 1.003A.02.02 0 0 1 .71.969l.26-.26a.02.02 0 1 1 .028.029l-.26.26a.02.02 0 0 1-.014.005z" fill="#ffd062"></path><g fill="#ffb711"><path d="M.618.623A.02.02 0 0 1 .604.617L.436.449A.02.02 0 1 1 .464.42l.168.167a.02.02 0 0 1-.014.035zM.709.532a.02.02 0 0 1-.02-.019L.675.29a.02.02 0 1 1 .04-.003L.729.51a.02.02 0 0 1-.02.022zM.527.714H.526L.303.698A.02.02 0 0 1 .305.66l.223.015a.02.02 0 0 1 0 .04zM1.272 1.277a.02.02 0 0 1-.014-.006l-.168-.168a.02.02 0 1 1 .028-.029l.168.168a.02.02 0 0 1-.014.035zM1.418 1.032h-.001l-.223-.014a.02.02 0 0 1-.019-.022c0-.01.01-.019.021-.018l.223.014a.02.02 0 0 1 0 .04zM1.028 1.423a.02.02 0 0 1-.02-.02l-.015-.222a.02.02 0 0 1 .019-.021.02.02 0 0 1 .021.018l.015.223a.02.02 0 0 1-.02.022z" fill="#ffb711"></path></g></g></svg>