<svg viewBox="0 0 64 64" xmlns="http://www.w3.org/2000/svg"><g><path d="M44 39v12H8v12h48V39z" fill="#45996e"></path><path d="M52 51v-1a2 2 0 0 0-4 0v1h-4v4h-1a2 2 0 0 0 0 4h1v4h12V51z" fill="#50b380"></path><path d="M43 55h1v-4H31v4h1a2 2 0 0 1 0 4h-1v4h13v-4h-1a2 2 0 0 1 0-4z" fill="#f2b819"></path><path d="M32 55h-1v-4H20v4h-1a2 2 0 0 0 0 4h1v4h11v-4h1a2 2 0 0 0 0-4z" fill="#e66868"></path><path d="M20 59h-1a2 2 0 0 1 0-4h1v-4H8v12h12z" fill="#6b88a6"></path><path d="m38 32.163-3.327 7.066-1.267-2.719L21.622 42l-1.689-3.626 11.784-5.49-1.267-2.719z" fill="#627e99"></path><circle cx="50" cy="18" fill="#3d7fcc" r="3"></circle><path d="M51 21h-2a4 4 0 0 0-4 4v5l2 1v8h6v-8l2-1v-5a4 4 0 0 0-4-4z" fill="#3d7fcc"></path><path d="m50 1 1.545 3.292L55 4.82l-2.5 2.562.59 3.618L50 9.292 46.91 11l.59-3.618L45 4.82l3.455-.528z" fill="#e66868"></path></g></svg>