<svg viewBox="0 0 512 512" xmlns="http://www.w3.org/2000/svg"><g><path d="M319.898 167.72c-5.857-5.857-15.354-5.858-21.213 0l-41.26 41.259-44.111-44.111c-5.857-5.858-15.355-5.858-21.213 0s-5.858 15.355 0 21.213l50.324 50.324v49.402c0 8.284 6.716 15 15 15s15-6.716 15-15v-49.402l47.473-47.472c5.858-5.857 5.858-15.355 0-21.213z" fill="#47419b"></path><path d="m298.686 167.72-41.26 41.259-.426-.425v92.232c.143.004.282.021.426.021 8.284 0 15-6.716 15-15v-49.402l47.473-47.472c5.858-5.857 5.858-15.355 0-21.213-5.858-5.857-15.355-5.858-21.213 0z" fill="#2c3b73"></path><path d="M396.378 0c-63.754 0-115.622 51.906-115.622 115.708 0 38.922 19.303 73.417 48.832 94.401l66.79-18.693 64.6 20.212C491.739 190.813 512 155.583 512 115.708 512 51.906 460.132 0 396.378 0z" fill="#615ad3"></path><path d="M115.622 0C51.868 0 0 51.906 0 115.708c0 38.922 19.303 73.417 48.832 94.401l66.79-18.693 64.6 20.212c30.761-20.814 51.021-56.044 51.021-95.92C231.244 51.906 179.376 0 115.622 0z" fill="#ff6680"></path><path d="M115.622 0v191.415l64.6 20.212c30.761-20.814 51.021-56.044 51.021-95.92C231.244 51.906 179.376 0 115.622 0z" fill="#e62e6b"></path><path d="M396.378 0v191.415l64.6 20.212C491.739 190.813 512 155.583 512 115.708 512 51.906 460.132 0 396.378 0z" fill="#47419b"></path><path d="M256 280.585c-63.754 0-115.622 51.906-115.622 115.708 0 38.922 19.303 73.417 48.832 94.401L256 472l64.6 20.212c30.761-20.814 51.021-56.044 51.021-95.92.001-63.801-51.867-115.707-115.621-115.707z" fill="#5ce6b8"></path><path d="M256 280.585V472l64.6 20.212c30.761-20.814 51.021-56.044 51.021-95.92.001-63.801-51.867-115.707-115.621-115.707z" fill="#3dccb4"></path><path d="M256 420.875c-34.546 0-63.226 25.906-66.713 60.26a15.024 15.024 0 0 0-.077 1.515v8.043C208.086 504.106 231.139 512 256 512s47.914-7.894 66.79-21.308v-8.043c0-.506-.025-1.011-.077-1.515-3.487-34.353-32.167-60.259-66.713-60.259z" fill="#615ad3"></path><path d="M256 420.875V512c24.861 0 47.914-7.894 66.79-21.308v-8.043c0-.506-.025-1.011-.077-1.515-3.487-34.353-32.167-60.259-66.713-60.259z" fill="#47419b"></path><ellipse cx="256" cy="401.513" fill="#f1d0a4" rx="49.361" ry="49.332" transform="rotate(-89.89 255.972 401.507)"></ellipse><path d="M256 352.152v98.722c27.202 0 49.332-22.144 49.332-49.361s-22.13-49.361-49.332-49.361z" fill="#f1ba87"></path><path d="M115.622 140.29c-34.546 0-63.226 25.906-66.713 60.26a15.024 15.024 0 0 0-.077 1.515v8.043c18.875 13.414 41.928 21.308 66.79 21.308 24.861 0 47.914-7.894 66.79-21.308v-8.043c0-.506-.025-1.011-.077-1.515-3.487-34.354-32.167-60.26-66.713-60.26z" fill="#ffd830"></path><path d="M115.622 140.29v91.125c24.861 0 47.914-7.894 66.79-21.308v-8.043c0-.506-.025-1.011-.077-1.515-3.487-34.353-32.167-60.259-66.713-60.259z" fill="#ffb44b"></path><ellipse cx="115.622" cy="120.928" fill="#f1d0a4" rx="49.361" ry="49.332" transform="rotate(-89.89 115.612 120.928)"></ellipse><path d="M115.622 71.567v98.722c27.202 0 49.332-22.144 49.332-49.361s-22.13-49.361-49.332-49.361z" fill="#f1ba87"></path><path d="M396.378 140.29c-34.546 0-63.226 25.906-66.713 60.26a15.024 15.024 0 0 0-.077 1.515v8.043c18.875 13.414 41.928 21.308 66.79 21.308 24.861 0 47.914-7.894 66.79-21.308v-8.043c0-.506-.025-1.011-.077-1.515-3.486-34.354-32.167-60.26-66.713-60.26z" fill="#5ce6b8"></path><path d="M396.378 140.29v91.125c24.861 0 47.914-7.894 66.79-21.308v-8.043c0-.506-.025-1.011-.077-1.515-3.486-34.353-32.167-60.259-66.713-60.259z" fill="#3dccb4"></path><ellipse cx="396.378" cy="120.928" fill="#f1d0a4" rx="49.361" ry="49.332" transform="rotate(-89.89 396.356 120.94)"></ellipse><path d="M396.378 71.567v98.722c27.202 0 49.332-22.144 49.332-49.361s-22.13-49.361-49.332-49.361z" fill="#f1ba87"></path></g></svg>