<svg viewBox="0 0 512 512" xmlns="http://www.w3.org/2000/svg"><g><path d="M316.105 196.527v-132.3c0-22.545-18.276-40.821-40.821-40.821H40.821C18.276 23.406 0 41.682 0 64.227v383.546c0 22.545 18.276 40.821 40.821 40.821h47.524l72.627-42.364 72.627 42.364h82.506l43.898-115.857z" fill="#9ee4e5"></path><path d="M47.789 210.904c18.933-43.747 62.483-74.355 113.183-74.355s94.25 30.608 113.183 74.355l-27.257 35.007H79.405z" fill="#5f66a5"></path><path d="M259.994 458.19c-9.667-66.665-49.534-85.453-49.534-85.453h-98.975s-39.867 18.788-49.534 85.453c-2.326 16.042 10.185 30.404 26.395 30.404H233.6c16.209 0 28.72-14.362 26.394-30.404z" fill="#fdaab8"></path><path d="M160.972 413.98c26.888 0 52.186-6.926 74.216-19.077-12.535-16.413-24.729-22.166-24.729-22.166h-98.975s-12.194 5.753-24.729 22.166c22.031 12.151 47.329 19.077 74.217 19.077z" fill="#fd8aa4"></path><path d="m148.264 137.234.027-.015c-6.051-20.939-25.349-36.256-48.237-36.256-27.735 0-50.219 22.484-50.219 50.219 0 13.048 4.978 24.932 13.137 33.861l.025-.014a123.096 123.096 0 0 0-15.207 25.875l31.616 35.008h15.829c5.029-42.693 25.071-80.808 54.712-108.876-.564.049-1.122.14-1.683.198z" fill="#4c578c"></path><path d="M284.24 259.807c0 67.874-54.981 123.268-123.268 123.268-68.385 0-123.268-55.501-123.268-123.268 0-17.371 3.594-33.908 10.085-48.903 47.037-3.928 78.656 8.082 96.253 18.137a34.194 34.194 0 0 0 33.859 0c17.597-10.055 49.217-22.065 96.253-18.137 6.492 14.995 10.086 31.532 10.086 48.903z" fill="#d2957e"></path><path d="M93.983 267.08c0-18.603 2.839-36.543 8.104-53.412-15.059-3.063-33.109-4.533-54.298-2.764-6.491 14.995-10.085 31.531-10.085 48.902 0 58.651 41.114 108.106 96.509 120.352-25.144-30.831-40.23-70.191-40.23-113.078z" fill="#bf806a"></path><g fill="#303646"><path d="M99.649 257.37a7.726 7.726 0 0 0-7.726 7.726v11.784a7.726 7.726 0 1 0 15.452 0v-11.784a7.726 7.726 0 0 0-7.726-7.726zM222.296 257.37a7.726 7.726 0 0 0-7.726 7.726v11.784a7.726 7.726 0 1 0 15.452 0v-11.784a7.726 7.726 0 0 0-7.726-7.726zM182.216 270.705a7.726 7.726 0 0 0-10.901.748c-2.612 2.996-6.382 4.715-10.343 4.715s-7.731-1.719-10.343-4.715a7.725 7.725 0 0 0-10.901-.748 7.726 7.726 0 0 0-.748 10.901c5.547 6.365 13.563 10.015 21.992 10.015s16.445-3.65 21.992-10.015a7.726 7.726 0 0 0-.748-10.901z" fill="#303646"></path></g><path d="M266.466 275.568a124.596 124.596 0 0 1-1.002-15.761c0-68.071 55.187-123.258 123.268-123.258S512 191.736 512 259.807c0 5.342-.344 10.596-1.002 15.761L388.732 326.32z" fill="#5f66a5"></path><circle cx="459.47" cy="161.002" fill="#4c578c" r="50.219"></circle><path d="M487.754 458.19c-9.667-66.665-49.534-85.453-49.534-85.453h-98.974s-39.867 18.788-49.534 85.453c-2.326 16.042 10.185 30.404 26.395 30.404h145.254c16.208 0 28.719-14.362 26.393-30.404z" fill="#fdaab8"></path><path d="M314.464 251.022c0-39.793 12.147-76.746 32.931-107.362-47.746 16.992-81.93 62.576-81.93 116.147 0 5.342.344 10.596 1.002 15.761l53.79 22.328a191.7 191.7 0 0 1-5.793-46.874z" fill="#4c578c"></path><path d="M388.732 413.98c26.734 0 52.076-6.902 74.203-19.095-12.531-16.4-24.716-22.148-24.716-22.148h-98.974s-12.185 5.748-24.716 22.148c22.127 12.193 47.469 19.095 74.203 19.095z" fill="#fd8aa4"></path><path d="M510.998 275.568c-7.738 60.637-59.527 107.507-122.266 107.507s-114.528-46.87-122.266-107.507c21.554-6.196 63.897-13.217 102.774 10.546 11.951 7.316 27.034 7.316 38.994 0 38.877-23.764 81.21-16.743 102.764-10.546z" fill="#d2957e"></path><path d="M315.38 269.771c-19.791-1.084-37.347 2.471-48.913 5.796 6.746 52.867 46.981 95.265 98.76 105.263-27.527-29.806-45.697-68.376-49.847-111.059z" fill="#bf806a"></path></g></svg>