<svg viewBox="0 0 497 497" xmlns="http://www.w3.org/2000/svg"><g><path d="m423.787 45.802-92.691-35.608c-19.401-7.453-40.819 5.346-43.058 26.009-1.114 10.284.291 22.672 6.669 37.007L463.24 184.45c1.893.399 3.788.957 5.654 1.674a37.146 37.146 0 0 1 17.743 14.247l2.743-7.141c22.598-58.824-6.769-124.83-65.593-147.428z" fill="#6a647f"></path><path d="M328.701 381.788v67.095l-32.162 20.032-32.162-20.032v-95.097zM141.684 330.493h120.29V178.841h-120.29l-60.145 75.826z" fill="#de8957"></path><path d="M21.394 216.238v91.073c0 12.803 10.379 23.181 23.181 23.181h97.108V178.841z" fill="#e3986d"></path><path d="M43.748 178.841a34.307 34.307 0 0 0-31.384 20.449L1.119 224.754c-3.785 8.571 2.491 18.202 11.86 18.202h82.949A26.77 26.77 0 0 0 120.417 227l21.266-48.159zM239.62 178.841a34.307 34.307 0 0 1 31.384 20.449l11.245 25.464c3.785 8.571-2.491 18.202-11.86 18.202H187.44A26.77 26.77 0 0 1 162.951 227l-21.266-48.159z" fill="#e8a882"></path><path d="M486.637 200.372a37.146 37.146 0 0 0-17.743-14.247 37.134 37.134 0 0 0-5.654-1.674c-17.612-3.744-35.813 5.748-42.474 23.087-6.654 17.321.487 36.538 16.028 45.562a36.779 36.779 0 0 0 5.382 2.576c19.215 7.382 40.76-2.204 48.141-21.419 4.478-11.659 2.709-24.19-3.68-33.885z" fill="#ffbd86"></path><path d="M204.304 367.648v81.235l25.283 20.032 39.04-20.032v-32.104c24.269.76 48.014-12.057 60.073-34.99l-64.366-30.186z" fill="#e8a882"></path><path d="m351.224 338.939-22.523 42.849-99.657-4.868-18.827-50.697a68.308 68.308 0 0 1 2.533-5.393l22.533-42.839c16.833-32.023 56.436-44.324 88.45-27.501 32.013 16.832 44.324 56.436 27.491 88.449z" fill="#69a2de"></path><path d="M308.093 82.046c25.92-21.603 60.152-37.297 103.379-40.974l-80.376-30.878c-19.401-7.453-40.819 5.347-43.058 26.009-1.114 10.284.291 22.672 6.669 37.007z" fill="#5c586f"></path><path d="M462.066 161.345c-2.393-15.792-13.144-29.061-28.057-34.779L294.706 73.21c-25.86 12.54-47.198 34.555-58.316 63.497-23.454 61.052 7.495 129.615 69.075 152.275 82.61 30.401 170.004-38.936 156.601-127.637z" fill="#fed2a4"></path><ellipse cx="331.684" cy="184.258" fill="#423e4f" rx="15.511" ry="13.861" transform="rotate(-68.97 331.54 184.139)"></ellipse><path d="M269.542 160.841a7.5 7.5 0 0 1-4.311-9.691l4.364-11.359a7.501 7.501 0 0 1 14.002 5.38l-4.364 11.359a7.501 7.501 0 0 1-9.691 4.311zM393.52 208.468a7.5 7.5 0 0 1-4.311-9.691l4.364-11.359a7.501 7.501 0 0 1 14.002 5.38l-4.364 11.359a7.501 7.501 0 0 1-9.691 4.311z" fill="#423e4f"></path><path d="M261.6 448.883c-11.064 0-20.032 8.969-20.032 20.032 0 11.064 8.969 20.032 20.032 20.032h47.232c10.973 0 19.868-8.895 19.868-19.868v-20.196z" fill="#5c586f"></path><path d="M201.527 448.883c-11.064 0-20.032 8.969-20.032 20.032 0 11.064 8.969 20.032 20.032 20.032h47.232c10.973 0 19.868-8.895 19.868-19.868v-20.196z" fill="#6a647f"></path><path d="M248.217 373.218a140.48 140.48 0 0 1-37.614 5.136c-17.763 0-32.162-14.399-32.162-32.162s14.399-32.162 32.162-32.162a76.638 76.638 0 0 0 23.552-3.711l24.254 24.633z" fill="#fed2a4"></path><path d="M324.633 320.74c-18.98 25.749-46.135 44.096-76.416 52.478l-14.062-62.899c15.319-4.908 28.975-14.547 38.703-27.738 10.539-14.3 30.667-17.348 44.967-6.808 14.3 10.539 17.348 30.668 6.808 44.967z" fill="#93bbe7"></path><path d="M244.409 211.777c0-41.406 21.069-95.905 66.783-132.252l-16.486-6.314c-25.86 12.54-47.198 34.556-58.317 63.497-13.983 36.399-8.625 75.466 11.03 105.885a158.928 158.928 0 0 1-3.01-30.816z" fill="#ffbd86"></path></g></svg>