<svg viewBox="0 0 480 480" xmlns="http://www.w3.org/2000/svg"><g><path d="m50.145 284.023 49.574 180.25 272.433-157.289v-.007L240.848 173.93 216 176 64 264zm0 0" fill="#ffe352"></path><g fill="#ffb236"><path d="m134.742 203.715 56 88.004-13.496 8.59-56.004-88zM174.785 171.762l40 64-13.562 8.476-40-64.004zM86.785 227.762l40 64-13.562 8.476-40-64.004zm0 0" fill="#ffb236"></path></g><path d="M218.879 147.273c-4.879-5.921-13.277-7.441-20-3.601l-36.078 20.8c-7.52 4.4-17.2 1.84-21.52-5.679L58.72 15.75C50 .71 30.8-4.488 15.762 4.23 5.68 9.992 0 20.633 0 31.512c0 5.36 1.36 10.718 4.238 15.68L86.801 190.23c4.32 7.52 1.758 17.122-5.762 21.442L44.88 232.55c-6.64 3.84-9.52 11.922-6.879 19.12l12.16 32.321L240.88 173.91zM32 47.993c-8.8 0-16-7.2-16-16 0-8.802 7.2-16 16-16s16 7.198 16 16c0 8.8-7.2 16-16 16zm0 0" fill="#6e83b7"></path><path d="M480 88a23.925 23.925 0 0 0-7.031-16.969c0-6.144-2.344-12.289-7.031-16.969a23.936 23.936 0 0 0-16.97-7.03C444.626 42.687 438.626 40 432 40s-12.625 2.688-16.969 7.031c-6.144 0-12.289 2.344-16.969 7.032s-7.03 10.832-7.03 16.968C386.687 75.375 384 81.375 384 88s2.688 12.625 7.031 16.969a23.922 23.922 0 0 0 7.031 16.969 23.936 23.936 0 0 0 16.97 7.03C419.374 133.314 425.374 136 432 136s12.625-2.688 16.969-7.031a23.922 23.922 0 0 0 16.969-7.031 23.936 23.936 0 0 0 7.03-16.97A23.925 23.925 0 0 0 480 88zm0 0" fill="#ffb0aa"></path><path d="M448 88c0 8.836-7.164 16-16 16s-16-7.164-16-16 7.164-16 16-16 16 7.164 16 16zm0 0" fill="#ffe352"></path><path d="M448 272c0-3.313-1.344-6.313-3.512-8.488 0-3.07-1.168-6.145-3.511-8.489s-5.418-3.511-8.489-3.511C430.312 249.344 427.312 248 424 248s-6.313 1.344-8.488 3.512c-3.07 0-6.145 1.168-8.489 3.511s-3.511 5.418-3.511 8.489C401.344 265.687 400 268.687 400 272s1.344 6.313 3.512 8.488c0 3.07 1.168 6.145 3.511 8.489s5.418 3.511 8.489 3.511c2.175 2.168 5.175 3.512 8.488 3.512s6.312-1.344 8.488-3.512c3.07 0 6.145-1.168 8.489-3.511s3.511-5.418 3.511-8.489A11.992 11.992 0 0 0 448 272zm0 0" fill="#ffb0aa"></path><path d="M432 272a8 8 0 1 1-16 0 8 8 0 0 1 16 0zm0 0" fill="#ffe352"></path><path d="M376 184a15.95 15.95 0 0 0-4.688-11.313c0-4.097-1.558-8.19-4.687-11.312a15.938 15.938 0 0 0-11.313-4.688C352.414 153.793 348.414 152 344 152s-8.414 1.793-11.313 4.688a15.925 15.925 0 0 0-11.312 4.687 15.932 15.932 0 0 0-4.688 11.313A15.95 15.95 0 0 0 312 184c0 4.414 1.793 8.414 4.688 11.313 0 4.093 1.558 8.19 4.687 11.312a15.955 15.955 0 0 0 11.313 4.688C335.586 214.207 339.586 216 344 216s8.414-1.793 11.313-4.688c4.093 0 8.19-1.562 11.312-4.687a15.938 15.938 0 0 0 4.688-11.313A15.965 15.965 0 0 0 376 184zm0 0" fill="#ffb0aa"></path><path d="M352 184a8 8 0 1 1-16 0 8 8 0 0 1 16 0zm0 0" fill="#ffe352"></path><path d="M175.902 480s147-21.664 176-40c0-26.512 21.489-48 48-48 0-17.672 14.328-32 32-32s32 14.328 32 32c0 0 7.594 88-111.902 88H175.902zm0 0" fill="#edeff1"></path></g></svg>