<svg viewBox="0 0 682.667 682.667" xmlns="http://www.w3.org/2000/svg"><g><defs><clippath clippathunits="userSpaceOnUse" id="a"><path d="M0 512h512V0H0Z" fill="#000000"></path></clippath></defs><g clip-path="url(#a)" transform="matrix(1.33333 0 0 -1.33333 0 682.667)"><path d="M0 0v.03h30.451c23.166 0 41.945-18.78 41.945-41.946v-69.744H-151.58v69.744C-151.58-18.75-132.8.03-109.634.03h30.451V0Z" fill="#0ab79f" transform="translate(423.445 173.77)"></path><path d="M0 0v-31.633c0-21.866 17.725-39.592 39.591-39.592s39.592 17.726 39.592 39.592V0z" fill="#ffaf9e" transform="translate(344.262 205.402)"></path><path d="M0 0c0-1.831.135-3.629.375-5.394 12.011-5.399 25.354-8.409 39.408-8.409 13.896 0 27.096 2.943 39.001 8.228A39.87 39.87 0 0 1 79.183 0v31.633H0Z" fill="#ffa78f" transform="translate(344.262 173.77)"></path><path d="M0 0h-155.357v135.319h105.005C-22.543 135.319 0 112.776 0 84.968Z" fill="#c86d36" transform="translate(492.716 278.137)"></path><path d="M0 0h-48.946c-17.901 0-32.413 14.512-32.413 32.413 0 17.901 14.512 32.413 32.413 32.413H0Z" fill="#ffaf9e" transform="translate(337.359 254.69)"></path><path d="M0 0h48.946c17.901 0 32.413-14.512 32.413-32.413 0-17.901-14.512-32.413-32.413-32.413H0Z" fill="#ffa78f" transform="translate(430.641 319.517)"></path><path d="M0 0v-35.717c0-52.044 42.673-94.233 95.313-94.233h.001c52.64 0 92.52 42.189 92.52 94.233V0c0 52.043-39.88 94.232-92.52 94.232h-.001C42.673 94.232 0 52.043 0 0" fill="#ffcebf" transform="translate(288.731 304.962)"></path><path d="M0 0h16.56a8.978 8.978 0 0 1 8.978 8.979 8.977 8.977 0 0 1-8.978 8.978H0A8.979 8.979 0 1 1 0 0" fill="#fe8f83" transform="translate(311.82 237.68)"></path><path d="M0 0a97.15 97.15 0 0 1-12.298-.928C33.929-7.429 69.476-46.712 69.476-94.21v-35.717c0-47.498-35.547-87.163-81.774-93.664 4.024-.566 8.13-.493 12.299-.547 51.824.932 93.546 42.751 93.546 94.211v35.717C93.547-42.75 51.825-.931 0 0" fill="#ffaf9e" transform="translate(385.812 399.172)"></path><path d="M0 0h16.841c2.739-.152 6.501-.49 15.881-1.223A82.624 82.624 0 0 0 61.1-8.656c15.625-7.253 21.094-22.935 21.094-40.161v-20.252c0-33.793-22.883-61.188-56.676-61.188H-96.35v30.05C-96.35-46.137-53.561-2.081 0 0" fill="#d77f4a" transform="translate(368.215 449.773)"></path><path d="M0 0h16.56a8.979 8.979 0 1 1 0 17.957H0a8.977 8.977 0 0 1-8.978-8.978A8.978 8.978 0 0 1 0 0" fill="#fe8f83" transform="translate(439.62 237.68)"></path><path d="M0 0a82.636 82.636 0 0 1-28.377 7.434c-3.446.268-25.672 2.547-41.814.451 7.379-.589 19.202-.976 34.084-7.885 15.625-7.252 25.605-22.935 25.605-40.161v-20.252c0-33.793-27.395-61.188-61.188-61.188h36.107c33.794 0 61.188 27.395 61.188 61.188v20.252C25.605-22.935 15.625-7.252 0 0" fill="#c86d36" transform="translate(429.315 441.117)"></path><path d="M0 0h-30.451v-.136c22.605-.641 39.298-19.05 39.298-41.81v-69.744h33.099v69.744C41.946-18.78 23.166 0 0 0" fill="#019a8d" transform="translate(453.896 173.8)"></path><path d="M0 0c-15.581 0-28.255 12.675-28.255 28.255a7.961 7.961 0 0 0 15.922 0c0-6.8 5.533-12.332 12.333-12.332 6.799 0 12.332 5.532 12.332 12.332a7.961 7.961 0 0 0 15.922 0C28.254 12.675 15.579 0 0 0" fill="#ffa799" transform="translate(384 213.107)"></path><path d="M0 0a7.96 7.96 0 0 0-7.961 7.962v17.596a7.961 7.961 0 0 0 15.922 0V7.962A7.96 7.96 0 0 0 0 0" fill="#5a5a5a" transform="translate(430.641 263.27)"></path><path d="M0 0a7.96 7.96 0 0 0-7.961 7.962v17.596a7.961 7.961 0 0 0 15.922 0V7.962A7.96 7.96 0 0 0 0 0" fill="#5a5a5a" transform="translate(337.358 263.27)"></path><path d="M0 0c-14.501 0-8.336.271-28.741-1.322a82.717 82.717 0 0 1-55.4-27.527c-7.632-8.589-19.49-12.065-30.436-8.566l-10.083 3.223s-5.151-107.867 25.974-121.434h199.017v55.319C100.331-44.902 55.405-.001 0 0" fill="#d77f4a" transform="translate(139.657 449.873)"></path><path d="M0 0v.03h-30.45c-23.167 0-41.946-18.78-41.946-41.946v-69.744H151.58v69.744C151.58-18.75 132.8.03 109.634.03z" fill="#3c87d0" transform="translate(88.408 173.77)"></path><path d="M0 0v-31.633c0-21.866 17.725-39.592 39.591-39.592s39.592 17.726 39.592 39.592V0z" fill="#ffaf9e" transform="translate(88.262 205.402)"></path><path d="M0 0c0-1.831.135-3.629.375-5.394 12.011-5.399 25.354-8.409 39.408-8.409 13.896 0 27.096 2.943 39.001 8.228A39.87 39.87 0 0 1 79.183 0v31.633H0Z" fill="#ffa78f" transform="translate(88.262 173.77)"></path><path d="M0 0h-48.946c-17.901 0-32.413 14.512-32.413 32.413 0 17.901 14.512 32.413 32.413 32.413H0Z" fill="#ffaf9e" transform="translate(81.359 254.69)"></path><path d="M0 0h48.946c17.901 0 32.413-14.512 32.413-32.413 0-17.901-14.512-32.413-32.413-32.413H0Z" fill="#ffa78f" transform="translate(174.641 319.517)"></path><path d="M0 0v-35.717c0-52.044 42.673-94.233 95.313-94.233h.001c52.64 0 92.607 42.467 92.607 94.51l.391 34.826c0 52.044-40.358 94.846-92.998 94.846h-.001C42.673 94.232 0 52.043 0 0" fill="#ffcebf" transform="translate(32.731 304.962)"></path><path d="M0 0h-16.56a8.978 8.978 0 0 0-8.978 8.979 8.977 8.977 0 0 0 8.978 8.978H0A8.979 8.979 0 1 0 0 0" fill="#fe8f83" transform="translate(72.234 237.68)"></path><path d="M0 0a96.879 96.879 0 0 1-10.74-.884c46.226-6.501 81.774-45.784 81.774-93.282v-35.717c0-47.498-35.548-86.781-81.774-93.282A96.858 96.858 0 0 1 0-224.05c51.149 1.679 92.096 43.189 92.096 94.167v35.717C92.096-43.188 51.149-1.679 0 0" fill="#ffaf9e" transform="translate(131.263 399.128)"></path><path d="M0 0h-16.841c-2.74-.152-6.502-.49-15.882-1.223a82.713 82.713 0 0 1-53.983-25.975v-41.871c0-33.793 27.395-61.188 61.188-61.188H96.35v30.05C96.35-46.137 53.561-2.081 0 0" fill="#d77f4a" transform="translate(143.639 449.773)"></path><path d="M0 0h-16.841c-2.307-.128-5.355-.389-11.859-.905 48.733-6.842 86.234-48.682 86.234-99.301v-30.05H96.35v30.05C96.35-46.136 53.561-2.08 0 0" fill="#c86d36" transform="translate(143.639 449.772)"></path><path d="M0 0h-30.451l-.146-.003v-.084c22-1.295 39.444-19.534 39.444-41.859v-69.744h33.099v69.744C41.946-18.78 23.166 0 0 0" fill="#0078c8" transform="translate(198.041 173.8)"></path><path d="M0 0h-16.56a8.978 8.978 0 0 0-8.978 8.979 8.977 8.977 0 0 0 8.978 8.978H0A8.979 8.979 0 1 0 0 0" fill="#fe8f83" transform="translate(200.032 237.68)"></path><path d="M0 0c-15.581 0-28.255 12.675-28.255 28.255a7.961 7.961 0 0 0 15.922 0c0-6.8 5.533-12.332 12.333-12.332 6.799 0 12.332 5.532 12.332 12.332a7.961 7.961 0 0 0 15.922 0C28.254 12.675 15.579 0 0 0" fill="#ffa799" transform="translate(127.854 213.107)"></path><path d="M0 0a7.96 7.96 0 0 0-7.961 7.962v17.596a7.961 7.961 0 0 0 15.922 0V7.962A7.96 7.96 0 0 0 0 0" fill="#5a5a5a" transform="translate(174.495 263.27)"></path><path d="M0 0a7.96 7.96 0 0 0-7.961 7.962v17.596a7.961 7.961 0 0 0 15.922 0V7.962A7.96 7.96 0 0 0 0 0" fill="#5a5a5a" transform="translate(81.212 263.27)"></path></g></g></svg>