<svg id="Capa_1" enable-background="new 0 0 497 497" height="512" viewBox="0 0 497 497" width="512" xmlns="http://www.w3.org/2000/svg"><g><path d="m300.717 393.482c-8.808-15.928-3.036-35.981 12.892-44.789 15.928-8.808 35.981-3.036 44.789 12.892l47.836 86.504c.135.245.267.491.396.738l-18.155 13.726-54.185-30.527z" fill="#ffddcf"/><path d="m296.836 373.656c-.79 6.622.407 13.544 3.881 19.826l47.836 86.504c8.808 15.928 28.861 21.7 44.789 12.892 15.683-8.672 21.509-28.242 13.279-44.047-44.927-11.416-83.584-38.535-109.785-75.175z" fill="#ffcbbe"/><path d="m361.585 358.398 86.504 47.836c15.928 8.808 35.981 3.036 44.789-12.892 8.808-15.928 3.036-35.981-12.892-44.789l-86.504-47.836c-15.928-8.808-35.981-3.036-44.789 12.892-8.809 15.928-3.037 35.981 12.892 44.789z" fill="#ffddcf"/><path d="m278.737 348.352-63.74 63.74c-11.737 11.737-30.766 11.737-42.503 0-11.737-11.737-11.737-30.766 0-42.503l63.74-63.74c11.737-11.737 30.766-11.737 42.503 0 11.737 11.738 11.737 30.767 0 42.503z" fill="#ffcbbe"/><path d="m412.093 214.997-63.74 63.74c-11.737 11.737-30.766 11.737-42.503 0-11.737-11.737-11.737-30.766 0-42.503l63.74-63.74c11.737-11.737 30.766-11.737 42.503 0 11.737 11.737 11.737 30.766 0 42.503z" fill="#ffddcf"/><path d="m265.025 301.445c26.091-21.583 46.9-46.679 65.876-78.741 30.024 23.923 64.347 49.363 111.239 58.723 7.431 1.493 11.383 7.094 8.094 13.051-23.641 43.022-65.094 89.604-108.643 124.033l-26.819 5.948-45.098-54.181-22.862-43.219z" fill="#ffb5c0"/><path d="m265.018 301.438c-12.719 10.521-26.684 20.213-42.314 29.463 23.923 30.024 49.363 64.347 58.723 111.239 1.493 7.431 7.094 11.383 13.051 8.094 15.485-8.509 31.428-19.343 47.103-31.734-38.485-27.656-66.406-69.078-76.563-117.062z" fill="#ff8e9e"/><path d="m61.039 163.675c38.897 0 70.43 31.533 70.43 70.43s-31.533 70.43-70.43 70.43-61.039-31.533-61.039-70.43 22.142-70.43 61.039-70.43z" fill="#ac6757"/><ellipse cx="254.827" cy="309.972" fill="#ffce71" rx="42.314" ry="29.221" transform="matrix(.875 -.484 .484 .875 -118.178 162.03)"/><ellipse cx="309.972" cy="254.827" fill="#fce3a0" rx="42.314" ry="29.221" transform="matrix(.484 -.875 .875 .484 -63.033 402.769)"/><path d="m304.535 61.039c0 38.897-31.533 70.43-70.43 70.43s-70.43-31.532-70.43-70.43 31.532-61.039 70.43-61.039 70.43 22.142 70.43 61.039z" fill="#bd7669"/><path d="m265.37 293.993c5.176-4.145 10.216-8.665 15.087-13.536 49.546-49.546 62.827-116.596 13.28-166.142-4.828-4.828-9.949-9.181-15.305-13.066l-150.332 21.981 3.369 136.547 102.636 50.195z" fill="#ffddcf"/><path d="m101.247 278.433c3.885 5.356 8.24 10.476 13.067 15.304 44.675 44.675 103.578 38.264 151.052.251-49.383-2.808-92.743-28.086-120.037-65.766l-44.082 5.883z" fill="#ffcbbe"/><path d="m145.329 228.222c11.057-25.593 11.812-54.569 2.268-80.626 38.521 14.11 83.423 5.714 114.34-25.202 6.493-6.493 11.988-13.606 16.495-21.145-48.732-35.369-116.945-31.794-161.73 10.738l-16.993 28.818 23.884 100.469z" fill="#ce857a"/><path d="m115.077 134.775c0-7.737.562-15.342 1.627-22.785-.804.763-1.602 1.536-2.39 2.324-44.719 44.719-49.069 114.512-13.065 164.117 7.539-4.507 14.651-10.002 21.145-16.496 10.004-10.004 17.634-21.477 22.923-33.719-19.019-26.259-30.24-58.537-30.24-93.441z" fill="#bd7669"/><ellipse cx="177.391" cy="283.045" fill="#ffa1ac" rx="27.566" ry="21.952" transform="matrix(.707 -.707 .707 .707 -148.187 208.338)"/><ellipse cx="283.045" cy="177.391" fill="#ffa1ac" rx="27.566" ry="21.952" transform="matrix(.707 -.707 .707 .707 -42.533 252.098)"/><g fill="#3b4456"><path d="m173.808 264.243c-1.919 0-3.839-.732-5.303-2.197l-7.968-7.968c-2.929-2.929-2.929-7.678 0-10.606 2.929-2.929 7.678-2.929 10.606 0l7.968 7.968c2.929 2.929 2.929 7.678 0 10.606-1.464 1.464-3.383 2.197-5.303 2.197z"/><path d="m256.743 181.308c-1.919 0-3.839-.732-5.303-2.196l-7.968-7.968c-2.929-2.929-2.929-7.677 0-10.606s7.678-2.929 10.606 0l7.968 7.968c2.929 2.929 2.929 7.677 0 10.606-1.464 1.464-3.384 2.196-5.303 2.196z"/><path d="m205.519 233.519c-.641 0-1.283-.021-1.927-.066-4.132-.284-7.252-3.864-6.968-7.997.284-4.132 3.862-7.257 7.997-6.968 3.758.261 7.44-1.117 10.096-3.773s4.031-6.336 3.773-10.096c-.284-4.133 2.836-7.713 6.968-7.997 4.125-.276 7.712 2.836 7.997 6.968.555 8.087-2.408 16.008-8.131 21.73-5.269 5.269-12.399 8.199-19.805 8.199z"/></g></g></svg>