<svg viewBox="0 0 64 64" xmlns="http://www.w3.org/2000/svg"><g><path d="M60 47a1 1 0 0 0-1 1v3a1.993 1.993 0 0 1-1 1.722V48a1 1 0 0 0-2 0v4.722A1.993 1.993 0 0 1 55 51v-3a1 1 0 0 0-2 0v3a4 4 0 0 0 3 3.858V60a1 1 0 0 0 2 0v-5.142A4 4 0 0 0 61 51v-3a1 1 0 0 0-1-1z" fill="#5eac24"></path><path d="M10 47a1 1 0 0 0-1 1v3a1.993 1.993 0 0 1-1 1.722V48a1 1 0 0 0-2 0v4.722A1.993 1.993 0 0 1 5 51v-3a1 1 0 0 0-2 0v3a4 4 0 0 0 3 3.858V60a1 1 0 0 0 2 0v-5.142A4 4 0 0 0 11 51v-3a1 1 0 0 0-1-1z" fill="#4e901e"></path><path d="M50 21v35.45l-.41-.17a46.012 46.012 0 0 0-35.18 0l-.41.17V21a18 18 0 1 1 36 0z" fill="#a7a9ac"></path><path d="M44.73 8.27A17.728 17.728 0 0 0 29.5 3.194 17.948 17.948 0 0 1 45 21v33.666a45.961 45.961 0 0 1 4.59 1.614l.41.17V21a17.983 17.983 0 0 0-5.27-12.73z" fill="#939598"></path><path d="m50 56.45-.412-.17a46 46 0 0 0-35.176 0l-.412.17L3 61h58l-11-4.552z" fill="#8b5e3c"></path><path d="m50 56.448-.412-.17A45.991 45.991 0 0 0 29.5 52.856a46 46 0 0 1 15.088 3.422l.412.17L56 61h5z" fill="#754c29"></path><g fill="#414042"><path d="M21 32a1 1 0 0 0 1-1v-5h.465l3.7 5.555a1 1 0 1 0 1.664-1.11l-3.019-4.529A4 4 0 0 0 24 18h-3a1 1 0 0 0-1 1v12a1 1 0 0 0 1 1zm1-12h2a2 2 0 0 1 0 4h-2zM32 32a1 1 0 0 0 1-1V19a1 1 0 0 0-2 0v12a1 1 0 0 0 1 1zM37 32a1 1 0 0 0 1-1v-5h2a4 4 0 0 0 0-8h-3a1 1 0 0 0-1 1v12a1 1 0 0 0 1 1zm1-12h2a2 2 0 0 1 0 4h-2z" fill="#414042"></path></g><path d="M21 38h22a1 1 0 0 0 0-2H21a1 1 0 0 0 0 2zM40 40H24a1 1 0 0 0 0 2h16a1 1 0 0 0 0-2z" fill="#6d6e71"></path></g></svg>