<svg viewBox="0 0 512 512" xmlns="http://www.w3.org/2000/svg"><g><path d="m136 65.01 10 188.42H76V65.01c0-8.29 3.36-15.79 8.79-21.22S97.72 35 106 35c16.57 0 30 13.44 30 30.01z" fill="#997ab8"></path><ellipse cx="106" cy="17.502" fill="#ffc796" rx="17.5" ry="17.502"></ellipse><path d="M196 65.01v188.42h-60V65.01c0-8.29 3.36-15.79 8.79-21.22S157.72 35 166 35c16.57 0 30 13.44 30 30.01z" fill="#b77e5a"></path><ellipse cx="166" cy="17.502" fill="#ffc796" rx="17.5" ry="17.502"></ellipse><path d="m256 65.01 10 188.42h-80l10-188.42c0-8.29 3.36-15.79 8.79-21.22S217.72 35 226 35c16.57 0 30 13.44 30 30.01z" fill="#f7775b"></path><ellipse cx="226" cy="17.502" fill="#df9f7a" rx="17.5" ry="17.502"></ellipse><path d="M316 65.01v188.42h-60V65.01c0-8.29 3.36-15.79 8.79-21.22S277.72 35 286 35c16.57 0 30 13.44 30 30.01z" fill="#ffc54b"></path><ellipse cx="286" cy="17.502" fill="#ffc796" rx="17.5" ry="17.502"></ellipse><path d="m376 65.01 10 188.42h-80l10-188.42c0-8.29 3.36-15.79 8.79-21.22S337.72 35 346 35c16.57 0 30 13.44 30 30.01z" fill="#ffe26f"></path><ellipse cx="346" cy="17.502" fill="#ffc796" rx="17.5" ry="17.502"></ellipse><path d="M436 65.01v188.42h-60V65.01c0-8.29 3.36-15.79 8.79-21.22 3.98-3.98 9.07-6.85 14.76-8.08 2.08-.47 4.24-.71 6.45-.71 16.57 0 30 13.44 30 30.01z" fill="#d1e16f"></path><ellipse cx="406" cy="17.502" fill="#df9f7a" rx="17.5" ry="17.502"></ellipse><path d="M76 79h60v174.43H76z" fill="#6957a1"></path><path d="M196 79h60v174.43h-60z" fill="#f25853"></path><path d="M316 79h60v174.43h-60z" fill="#ffc54b"></path><path d="M136 79h60v174.43h-60z" fill="#98654c"></path><path d="M256 79h60v174.43h-60z" fill="#feac38"></path><path d="M406 35c-2.21 0-4.37.24-6.45.71 3.85.99 7.29 3.01 10.01 5.73C413.54 45.42 416 50.92 416 57c0 12.15-9.85 22-22 22h-18v174.43h60V65.01C436 48.44 422.57 35 406 35z" fill="#9ccc4b"></path><path d="M466 170.26v90.91h-70l10-90.91c0-8.28 3.36-15.78 8.79-21.21 2.05-2.05 4.4-3.81 6.97-5.2 4.24-2.29 9.09-3.59 14.24-3.59 16.57 0 30 13.43 30 30z" fill="#997ab8"></path><ellipse cx="436" cy="122.755" fill="#df9f7a" rx="17.5" ry="17.502"></ellipse><path d="m226 170.26 10 90.91h-80l10-90.91c0-8.28 3.36-15.78 8.79-21.21s12.93-8.79 21.21-8.79c16.57 0 30 13.43 30 30z" fill="#e6f8fc"></path><ellipse cx="196" cy="122.755" fill="#ffc796" rx="17.5" ry="17.502"></ellipse><path d="m106 170.26 10 90.91H46v-90.91c0-8.28 3.36-15.78 8.79-21.21s12.93-8.79 21.21-8.79c16.57 0 30 13.43 30 30z" fill="#ffe26f"></path><ellipse cx="76" cy="122.755" fill="#ffc796" rx="17.5" ry="17.502"></ellipse><path d="m346 170.26 10 90.91h-80l10-90.91c0-8.28 3.36-15.78 8.79-21.21s12.93-8.79 21.21-8.79c16.57 0 30 13.43 30 30z" fill="#3a4b56"></path><ellipse cx="316" cy="122.755" fill="#df9f7a" rx="17.5" ry="17.502"></ellipse><path d="M166 170.26v90.91h-60v-90.91c0-8.28 3.36-15.78 8.79-21.21s12.93-8.79 21.21-8.79c16.57 0 30 13.43 30 30z" fill="#d1e16f"></path><ellipse cx="136" cy="122.755" fill="#df9f7a" rx="17.5" ry="17.502"></ellipse><path d="M286 170.26v90.91h-60v-90.91c0-8.28 3.36-15.78 8.79-21.21s12.93-8.79 21.21-8.79c16.57 0 30 13.43 30 30z" fill="#b77e5a"></path><ellipse cx="256" cy="122.755" fill="#ffc796" rx="17.5" ry="17.502"></ellipse><path d="M406 170.26v90.91h-60v-90.91c0-8.28 3.36-15.78 8.79-21.21s12.93-8.79 21.21-8.79c16.57 0 30 13.43 30 30z" fill="#f7775b"></path><ellipse cx="376" cy="122.755" fill="#ffc796" rx="17.5" ry="17.502"></ellipse><path d="M106 229.37h60v31.8h-60z" fill="#9ccc4b"></path><path d="M226 229.37h60v31.8h-60z" fill="#98654c"></path><path d="M346 229.37h60v31.8h-60z" fill="#f25853"></path><path d="M46 229.37h60v31.8H46z" fill="#ffc54b"></path><path d="M166 229.37h60v31.8h-60z" fill="#d0edf5"></path><path d="M286 229.37h60v31.8h-60z" fill="#26363f"></path><path d="M466 170.26v90.91h-60v-31.8h12.14c11.12 0 20.12-9.01 20.12-20.12v-38.01c0-11.88-6.69-22.2-16.5-27.39 4.24-2.29 9.09-3.59 14.24-3.59 16.57 0 30 13.43 30 30z" fill="#6957a1"></path><path d="M482.282 261.17c0 74.59-36.04 140.77-91.66 182.07l-79.73 27.68-15.55-6.52-242.37-101.56a224.814 224.814 0 0 1-20.22-60.03l15.35-41.64z" fill="#7ac2ed"></path><path d="M482.282 261.17c0 74.59-36.04 140.77-91.66 182.07l-79.73 27.68-15.55-6.52c86.82-26.76 149.93-107.64 149.93-203.23z" fill="#68a6dc"></path><path d="M85.762 261.17c-7.98 18.93-22.51 35.41-53.01 41.64-2.51-13.5-3.82-27.42-3.82-41.64z" fill="#d1e16f"></path><g fill="#d0edf5"><path d="M40.358 496.999H7.501a7.5 7.5 0 1 0 0 15h32.857a7.5 7.5 0 1 0 0-15zM143.377 496.999H75.514a7.5 7.5 0 1 0 0 15h67.863a7.5 7.5 0 1 0 0-15zM27.505 479.999h62.862a7.5 7.5 0 1 0 0-15H27.505a7.5 7.5 0 1 0 0 15zM414.954 496.999h-62.862a7.5 7.5 0 1 0 0 15h62.862a7.5 7.5 0 1 0 0-15zM504.403 464.998h-92.868a7.5 7.5 0 1 0 0 15h92.868a7.5 7.5 0 1 0 0-15z" fill="#d0edf5"></path></g><path d="M296.162 321.92c-7.14 16.33-58.72 12.6-71.33 0-9.76-9.76-14.28-43.03-8.19-60.75h41.43c22.65 16.36 44.62 45.81 38.09 60.75zM390.617 443.237c-37.707 28.001-84.426 44.572-135.015 44.572-55.17 0-105.73-19.701-145.027-52.462a227.517 227.517 0 0 1-57.601-72.503c89.307 0 34.106-60.032 75.514-60.032 55.33 0 48.189 89.813 78.415 105.414 29.856 15.421 52.16-16.881 94.608-16.881 32.246 0 32.596 28.101 54.59 42.952 7.891 5.32 18.573 8.94 34.516 8.94z" fill="#d1e16f"></path><path d="M356.101 434.297c7.891 5.32 18.573 8.94 34.516 8.94-37.707 28.001-84.426 44.572-135.015 44.572-55.17 0-105.73-19.701-145.027-52.462 34.536 24.241 76.614 38.461 122.023 38.461 46.049.001 88.687-14.64 123.503-39.511z" fill="#9ccc4b"></path><path d="M511.905 370.358c0 10.588-8.594 19.18-19.183 19.18H390.773c-14.443 0-26.148-11.712-26.148-26.152 0-14.433 11.706-26.145 26.148-26.145 6.017 0 11.56 2.034 15.98 5.451 3.334-18.607 19.604-32.734 39.169-32.734a39.665 39.665 0 0 1 23.778 7.874c9.718 7.255 16.018 18.852 16.018 31.916 0 .933-.031 1.865-.092 2.783a19.185 19.185 0 0 1 7.095-1.353c10.59 0 19.184 8.585 19.184 19.18z" fill="#e6f8fc"></path><path d="M511.905 370.358c0 10.588-8.594 19.18-19.183 19.18H390.773c-14.443 0-26.148-11.712-26.148-26.152 0 7.178 8.877 13.646 16.048 13.646h56.724c21.156-.206 38.236-17.422 38.236-38.621 0-7.568-2.171-14.624-5.933-20.579 9.718 7.255 16.018 18.852 16.018 31.916 0 .933-.031 1.865-.092 2.783a19.185 19.185 0 0 1 7.095-1.353c10.59 0 19.184 8.585 19.184 19.18z" fill="#d0edf5"></path><path d="M504.5 253.428H7.5a7.5 7.5 0 0 0 0 15h497a7.5 7.5 0 0 0 0-15z" fill="#3a4b56"></path><path d="M224.87 373.75c-.03-.22.1-.45.36-.69z" fill="#b77e5a"></path></g></svg>