<svg viewBox="0 0 512 512" xmlns="http://www.w3.org/2000/svg"><g><path d="M256.05 0H15C6.716 0 0 6.716 0 15v210c0 8.284 6.716 15 15 15h241.05c8.284 0 15-6.716 15-15V15c0-8.284-6.716-15-15-15z" fill="#fef0cc"></path><path d="M271.05 15v210c0 8.28-6.72 15-15 15H135.52V0h120.53c8.28 0 15 6.72 15 15z" fill="#ffe0b3"></path><path d="M497 272H241c-8.284 0-15 6.716-15 15v210c0 8.284 6.716 15 15 15h256c8.284 0 15-6.716 15-15V287c0-8.284-6.716-15-15-15z" fill="#fef0cc"></path><path d="M512 287v210c0 8.28-6.72 15-15 15H369V272h128c8.28 0 15 6.72 15 15z" fill="#ffe0b3"></path><path d="M180 272H15c-8.284 0-15 6.716-15 15v210c0 8.284 6.716 15 15 15h165c8.284 0 15-6.716 15-15V287c0-8.284-6.716-15-15-15z" fill="#a4dcff"></path><path d="M195 287v210c0 8.28-6.72 15-15 15H97.5V272H180c8.28 0 15 6.72 15 15z" fill="#59c0ff"></path><path d="M30 302h135v180H30z" fill="#e4f5ff"></path><path d="M97.5 302H165v180H97.5z" fill="#a4dcff"></path><path d="M241.05 174.282V30H30v146.988z" fill="#fcd363"></path><path d="M241.05 30v144.28l-105.53 1.36V30z" fill="#fca841"></path><path d="m172.755 132.835-28.572 30.114-44.373-44.221c-6.24-6.219-16.472-5.746-22.112 1.022L30 176.988V210h211.05v-35.718l-47.427-42.315c-6.049-5.397-15.289-5.012-20.868.868z" fill="#fca841"></path><path d="M241.05 174.28V210H135.52v-55.68l8.66 8.63 28.57-30.12c5.58-5.88 14.82-6.26 20.87-.86z" fill="#f96b19"></path><path d="M482 454.826V302H256v148.476z" fill="#fcd363"></path><path d="M482 302v152.83l-113-2.17V302z" fill="#fca841"></path><path d="M408.38 406.309 375.222 434l-46.019-45.856c-6.241-6.219-16.471-5.745-22.111 1.023L256 450.476V482h226v-27.174l-54.019-48.196a15 15 0 0 0-19.601-.321z" fill="#5f59f0"></path><path d="M482 454.83V482H369v-54.2l6.22 6.2 33.16-27.69a14.999 14.999 0 0 1 19.6.32z" fill="#4249c5"></path><path d="M497 0H316.05c-8.284 0-15 6.716-15 15v210c0 8.284 6.716 15 15 15H497c8.284 0 15-6.716 15-15V15c0-8.284-6.716-15-15-15z" fill="#a4dcff"></path><path d="M512 15v210c0 8.28-6.72 15-15 15h-90.95V0H497c8.28 0 15 6.72 15 15z" fill="#59c0ff"></path><path d="M331.05 30H482v180H331.05z" fill="#e4f5ff"></path><path d="M406.05 30H482v180h-75.95z" fill="#a4dcff"></path><path d="M146.89 448.15c-5.05 6.573-14.489 7.779-21.04 2.74L111 439.46V482H81v-40.97l-11.4 9.49c-6.36 5.31-15.82 4.45-21.12-1.92-5.31-6.36-4.45-15.82 1.92-21.12L81 401.97v-23.94l-11.4 9.49c-6.36 5.31-15.82 4.45-21.12-1.92-5.31-6.36-4.45-15.82 1.92-21.12 40.285-33.574 35.651-29.662 36.03-30.03 5.22-4.277 12.529-4.757 18.72-.34l39 30c6.56 5.05 7.79 14.47 2.74 21.04-5.05 6.573-14.489 7.779-21.04 2.74L111 376.46v25.15l33.15 25.5c6.56 5.05 7.79 14.47 2.74 21.04z" fill="#30d583"></path><path d="M146.89 448.15c-5.05 6.57-14.49 7.78-21.04 2.74L111 439.46V482H97.5V331.1c7.743.837 8.977 5.025 46.65 33.01 6.56 5.05 7.79 14.47 2.74 21.04s-14.49 7.78-21.04 2.74L111 376.46v25.15l33.15 25.5c6.56 5.05 7.79 14.47 2.74 21.04z" fill="#18b67e"></path><path d="M421.53 166v44h-30v-44c0-8.28 6.71-15 15-15 8.28 0 15 6.72 15 15z" fill="#fca841"></path><path d="M421.53 166v44h-15.48v-58.99c7.865-.492 15.48 6.163 15.48 14.99z" fill="#f96b19"></path><path d="m455.208 161.045-35-100c-4.677-13.36-23.64-13.358-28.316 0l-35 100C353.49 170.766 360.698 181 371.05 181h70c10.299 0 17.577-10.184 14.158-19.955z" fill="#30d583"></path><path d="M441.05 181h-35V51c6.37 0 12.05 4.03 14.16 10.04l35 100c3.424 9.821-3.903 19.96-14.16 19.96z" fill="#18b67e"></path></g></svg>