<svg viewBox="0 0 470.179 470.179" xmlns="http://www.w3.org/2000/svg"><g><path d="M362.159 289.73c.624 26.849 24.351 48.702 51.2 48.078 11.863-.624 23.102-4.995 31.22-12.488 3.746-3.746 9.366-5.62 14.985-5.62h9.99v133.62c0 8.741-6.868 15.61-15.61 15.61H319.701v-9.99c0-5.62 2.498-11.239 6.244-15.61 7.493-8.741 12.488-19.98 12.488-32.468v-6.244c0-1.249 0-2.498-.624-3.746 0-.624 0-1.249-.624-1.873 0-1.249-.624-1.873-.624-3.122 0-.624-.624-1.249-.624-1.873-.624-1.249-.624-1.873-1.249-3.122 0-.624-.624-1.249-.624-1.873-.624-.624-.624-1.873-1.249-2.498 0-.624-.624-1.249-.624-1.873-.624-.624-1.249-1.873-1.873-2.498-.624-.624-.624-1.249-1.249-1.249-.624-.624-1.249-1.873-1.873-2.498l-1.249-1.249-1.873-1.873c-.624-.624-1.249-.624-1.249-1.249-.624-.624-1.249-1.249-2.498-1.873-.624-.624-1.249-.624-1.249-1.249-.624-.624-1.873-1.249-2.498-1.873-.624-.624-1.249-.624-1.873-1.249-.624-.624-1.873-1.249-2.498-1.249s-1.249-.624-1.873-.624c-.624-.624-1.873-.624-2.498-1.249-.624 0-1.249-.624-1.873-.624-.624 0-1.873-.624-2.498-1.249-.624 0-1.249 0-1.873-.624-.624 0-1.873-.624-2.498-.624h-15.611c-1.249 0-1.873.624-3.122.624h-1.873c-1.249 0-2.498.624-3.746 1.249h-.624c-1.249.624-3.122 1.249-4.371 1.873-9.99 4.371-18.732 12.488-23.727 22.478v.624l-1.873 3.746s0 .624-.624 1.249c-.624 1.249-.624 1.873-1.249 3.122 0 .624-.624 1.249-.624 1.873 0 .624-.624 1.873-.624 2.498 0 .624-.624 1.249-.624 1.873V419.604c0 .624 0 1.873.624 2.498 0 .624 0 1.249.624 1.873 0 .624.624 1.873.624 2.498 0 .624.624 1.249.624 1.873 0 .624.624 1.249.624 1.873 0 .624.624 1.249.624 1.873 0 .624.624 1.249.624 1.873 0 .624.624 1.249 1.249 1.873.624.624.624 1.249 1.249 1.873.624.624.624 1.249 1.249 1.873.624.624.624 1.249 1.249 1.873.624.624.624 1.249 1.249 1.873l1.249 1.249c3.746 4.371 6.244 9.99 6.244 15.61v9.99H123.642c-8.741 0-15.61-6.868-15.61-15.61V319.076h-9.99c-5.62 0-10.615 1.873-14.985 5.62-8.117 7.493-19.356 12.488-31.22 12.488-26.849 1.249-50.576-20.605-51.2-48.078-.624-28.098 21.854-50.576 49.327-50.576 12.488 0 23.727 4.371 32.468 12.488 4.371 3.746 9.366 6.244 15.61 6.244h9.99V123.018c0-8.741 6.868-15.61 15.61-15.61h134.244v-9.99c0-5.62-1.873-10.615-5.62-14.985-7.493-8.117-12.488-19.356-12.488-31.22-1.249-26.849 20.605-50.576 47.454-51.2 28.098-.624 50.576 21.854 50.576 49.327 0 12.488-4.371 23.727-12.488 32.468-3.746 4.371-6.244 9.366-6.244 15.61v9.99h134.868c8.741 0 15.61 6.868 15.61 15.61v134.244h-9.99c-5.62 0-11.239-2.498-15.61-6.244-8.741-7.493-19.98-12.488-32.468-12.488-27.473.624-49.951 23.102-49.327 51.2z" fill="#e56353"></path></g></svg>