<svg viewBox="0 0 512 512" xmlns="http://www.w3.org/2000/svg"><g><path d="m440 392 24 32v24l-16 24-16-8 8-24-16-24z" fill="#d78e0c"></path><path d="m200 256 25.794 58.037A71.993 71.993 0 0 1 232 343.279v.521a72.02 72.02 0 0 1-1.844 16.19L208 456h-40l-.021-.042a52 52 0 0 1-4.48-33.453L184 360l-8-104z" fill="#5b89b9"></path><path d="M176 256h-56l16 80-60.686 60.685A38.632 38.632 0 0 0 64 424l32 24 85.02-85.02a56.058 56.058 0 0 0 14.746-26.044 56.061 56.061 0 0 0-1.9-33.281z" fill="#6699ce"></path><path d="M272.971 360A40.971 40.971 0 0 0 244 372a40.971 40.971 0 0 1-28.971 12H200l4.663 7a38.188 38.188 0 0 0 31.775 17 38.186 38.186 0 0 0 21.182-6.414L272 392l24-8v-.971A23.03 23.03 0 0 0 272.971 360z" fill="#ee9d0d"></path><path d="m184 128 40 48 56 16-8 24h-56l-24-8z" fill="#dcdbd6"></path><path d="M312.971 360H376l24-16 16-32h32l8 16h24v24l-16 8h-16l-8 48-24 24-9.143 56H384v-56l-64-16-16 16-16 32 8 24h-32l-8-24 16-40v-23.029A40.971 40.971 0 0 1 284 372a40.971 40.971 0 0 1 28.971-12z" fill="#eeb436"></path><path d="M296 488h32l-8-32 17.954-35.564L320 416l-16 16-16 32z" fill="#d78e0c"></path><g fill="#eae9e4"><path d="M104 128h80l9.825 49.123A317.994 317.994 0 0 1 200 239.488V256h-88z" fill="#eae9e4"></path><path d="M199.62 224H160l.84-1.69A67.6 67.6 0 0 0 168 192h28.43a317.752 317.752 0 0 1 3.19 32zM64 424l-24 24 40 40 7.8-7.8a28 28 0 0 0 8.2-19.8V448zM168 456v32h56v-6.695a28 28 0 0 0-15.478-25.044L208 456z" fill="#eae9e4"></path></g><path d="M448 368a56.272 56.272 0 0 1-44.8-22.4l-.444-.593a35.214 35.214 0 0 0-14.278-11.221 138.675 138.675 0 0 1-67.507-61.874 50.482 50.482 0 0 0 4.031-31.7l-5.157-25.787a8 8 0 0 0-15.69 3.138l5.157 25.787a34.421 34.421 0 0 1-1.509 18.717A34.2 34.2 0 0 1 288 231.015V219c0-4.418-3.582-3-8-3s-8-2.418-8 2v13.015a50.162 50.162 0 0 0 34.457 47.694 154.7 154.7 0 0 0 75.719 69.785 19.181 19.181 0 0 1 7.78 6.114l.443.592A72.349 72.349 0 0 0 448 384a8 8 0 0 0 0-16z" fill="#7a4922"></path><path d="M192 56v32a16 16 0 0 1-16 16h-8v24h-24V88l16-32z" fill="#fdc9a6"></path><path d="M128 72V52a28 28 0 0 1 28-28h36a16 16 0 0 1 16 16 16 16 0 0 1-16 16h-32l-16 32v24h-16z" fill="#7a4922"></path><path d="m160 128-40-64-6.7 6.7A49.638 49.638 0 0 0 104 128zM199.62 224H160l.84-1.69A67.6 67.6 0 0 0 168 192h28.43a317.752 317.752 0 0 1 3.19 32zM129.782 170.363 112 200l40 64-24 24-50.371-60.53a38 38 0 0 1-2.087-40.246l23.219-41.795A18.333 18.333 0 0 1 114.787 136a18.331 18.331 0 0 1 17.391 12.535 26.273 26.273 0 0 1-2.396 21.828z" fill="#dcdbd6"></path><path d="M312 192h-32l-8 24 24 8 16-8z" fill="#fdc9a6"></path></g></svg>