<svg viewBox="0 0 480 480" xmlns="http://www.w3.org/2000/svg"><g><path d="M72 8h336v464H72zm0 0" fill="#fd882f"></path><path d="M48 0h384v16H48zM48 32h384v16H48zM48 176h384v16H48zM48 320h384v16H48zm0 0" fill="#fd882f"></path><path d="M56 472H24L8 416h64zm0 0" fill="#dee1e3"></path><path d="M72 312a31.334 31.334 0 0 0-4.488-16.184 14.92 14.92 0 0 1-.063-15.52 31.899 31.899 0 0 0 2.047-28.8 31.895 31.895 0 0 0-22.047-18.648A32.051 32.051 0 0 0 8 264a31.384 31.384 0 0 0 4.48 16.176 15.08 15.08 0 0 1 0 15.648 31.425 31.425 0 0 0 0 32.36 14.928 14.928 0 0 1 .063 15.52 31.899 31.899 0 0 0-2.047 28.8 31.895 31.895 0 0 0 22.047 18.648 32.053 32.053 0 0 0 27.27-6.027A32.052 32.052 0 0 0 72 360a31.384 31.384 0 0 0-4.48-16.176 15.08 15.08 0 0 1 0-15.648A31.384 31.384 0 0 0 72 312zm0 0" fill="#88b337"></path><path d="M32 264h16v152H32zm0 0" fill="#a3603e"></path><path d="M456 472h-32l-16-56h64zm0 0" fill="#dee1e3"></path><path d="M472 312a31.334 31.334 0 0 0-4.488-16.184 14.92 14.92 0 0 1-.063-15.52 31.899 31.899 0 0 0 2.047-28.8 31.895 31.895 0 0 0-22.047-18.648A32.051 32.051 0 0 0 408 264a31.384 31.384 0 0 0 4.48 16.176 15.08 15.08 0 0 1 0 15.648 31.425 31.425 0 0 0 0 32.36 14.928 14.928 0 0 1 .063 15.52 31.899 31.899 0 0 0-2.047 28.8 31.895 31.895 0 0 0 22.047 18.648 32.053 32.053 0 0 0 27.27-6.027A32.052 32.052 0 0 0 472 360a31.384 31.384 0 0 0-4.48-16.176 15.08 15.08 0 0 1 0-15.648A31.384 31.384 0 0 0 472 312zm0 0" fill="#88b337"></path><path d="M432 264h16v152h-16zm0 0" fill="#a3603e"></path><g fill="#ef701b"><path d="M72 96h24v16H72zM192 120h24v16h-24zM384 144h24v16h-24zM280 80h16v16h-16zM288 224h24v16h-24zM88 280h16v16H88zM272 304h16v16h-16zM384 368h16v16h-16zM192 416h16v16h-16zM104 144h24v16h-24zm0 0" fill="#ef701b"></path></g><path d="M120 72h48v80h-48zm0 0" fill="#a12a2a"></path><path d="M120 72h48v40h-48zm0 0" fill="#dee1e3"></path><path d="M120 72h48v16h-48zm0 0" fill="#c0c3c4"></path><path d="M216 72h48v80h-48zm0 0" fill="#a12a2a"></path><path d="M216 72h48v40h-48zm0 0" fill="#dee1e3"></path><path d="M216 72h48v16h-48zm0 0" fill="#c0c3c4"></path><path d="M312 72h48v80h-48zm0 0" fill="#a12a2a"></path><path d="M312 72h48v40h-48zm0 0" fill="#dee1e3"></path><path d="M312 72h48v16h-48zm0 0" fill="#c0c3c4"></path><path d="M120 216h48v80h-48zm0 0" fill="#a12a2a"></path><path d="M120 216h48v40h-48zm0 0" fill="#dee1e3"></path><path d="M120 216h48v16h-48zm0 0" fill="#c0c3c4"></path><path d="M216 216h48v80h-48zm0 0" fill="#a12a2a"></path><path d="M216 216h48v40h-48zm0 0" fill="#dee1e3"></path><path d="M216 216h48v16h-48zm0 0" fill="#c0c3c4"></path><path d="M312 216h48v80h-48zm0 0" fill="#a12a2a"></path><path d="M312 216h48v40h-48zm0 0" fill="#dee1e3"></path><path d="M312 216h48v16h-48zm0 0" fill="#c0c3c4"></path><path d="M120 360h48v80h-48zm0 0" fill="#a12a2a"></path><path d="M120 360h48v40h-48zm0 0" fill="#dee1e3"></path><path d="M120 360h48v16h-48zm0 0" fill="#c0c3c4"></path><path d="M216 360h48v80h-48zm0 0" fill="#a12a2a"></path><path d="M216 360h48v40h-48zm0 0" fill="#dee1e3"></path><path d="M216 360h48v16h-48zm0 0" fill="#c0c3c4"></path><path d="M312 360h48v80h-48zm0 0" fill="#a12a2a"></path><path d="M312 360h48v16h-48zm0 0" fill="#912626"></path><path d="M296 440h80v32h-80zm0 0" fill="#ff9747"></path><path d="M0 464h480v16H0zm0 0" fill="#c0c2c4"></path><path d="M72 16h336v16H72zM72 48h336v16H72zM72 192h336v16H72zM72 336h336v16H72zm0 0" fill="#ef701b"></path></g></svg>