<svg viewBox="0 0 512 512" xmlns="http://www.w3.org/2000/svg"><g><path d="M336 184h152v304H336z" fill="#8d8d54"></path><path d="M360 120h104v64H360z" fill="#ded9af"></path><path d="m336 120 72-72 72 72z" fill="#8d8d54"></path><path d="M232 152h48v40h-48z" fill="#ef5249"></path><path d="M224 136h16v128h-16z" fill="#ccdce5"></path><path d="M232 248a208 208 0 0 1 208 208v32H24v-32a208 208 0 0 1 208-208z" fill="#6a6a33"></path><path d="M56 488v-32a176 176 0 0 1 176-176 176 176 0 0 1 176 176v32z" fill="#8d8d54"></path><path d="M200 488v-48a32 32 0 0 1 32-32 32 32 0 0 1 32 32v48z" fill="#6a6a33"></path><path d="M50.134 312.113 37.6 302.172a247.721 247.721 0 0 1 153.07-90.728l2.659 15.778a231.746 231.746 0 0 0-143.195 84.891zM35.818 332.277 22.3 323.719c2.6-4.111 5.36-8.2 8.2-12.141l12.992 9.338a230.548 230.548 0 0 0-7.674 11.361z" fill="#ccdce5"></path><path d="M440 144a24.027 24.027 0 0 0-24 24v168h16v-16h16v72h16V168a24.027 24.027 0 0 0-24-24zm0 16a8.009 8.009 0 0 1 8 8v40h-16v-40a8.009 8.009 0 0 1 8-8zm-8 80v-16h16v16zm16 16v16h-16v-16zm-16 48v-16h16v16z" fill="#6a6a33"></path><path d="M128 416h32v32h-32zM304 416h32v32h-32z" fill="#ccdce5"></path><g fill="#ffc119"><path d="M248 368h-32a8 8 0 0 1-6.656-3.562l-14.162-21.244-36.751-7.349 3.138-15.69 40 8a8 8 0 0 1 5.087 3.407L220.281 352h23.438l13.625-20.438a8 8 0 0 1 4.716-3.323l32-8 3.88 15.522-29 7.25-14.285 21.427A8 8 0 0 1 248 368z" fill="#ffc119"></path><path d="M224 312h16v16h-16z" fill="#ffc119"></path></g></g></svg>