<svg viewBox="0 0 64 64" xmlns="http://www.w3.org/2000/svg"><g><path d="m39.65 9.01 4.33 9.16-5.48 2.45-4.27-9.04c-1.89-3.99-6.66-5.7-10.65-3.81-3.99 1.88-5.7 6.66-3.82 10.65L25.24 30H19c-.13 0-.26.01-.39.02l-4.27-9.04c-3.3-6.98-.31-15.34 6.67-18.64s15.34-.31 18.64 6.67z" fill="#cacae5"></path><path d="M31 5c-5-2-10 0-13 4-3 5 1 12 0 17 0 .481-.235.96-.628 1.399l1.238 2.621c.13-.01.26-.02.39-.02h6.24l-5.48-11.58c-1.88-3.99-.17-8.77 3.82-10.65 3.99-1.89 8.76-.18 10.65 3.81l4.27 9.04 3.089-1.381C38.878 13.037 36 7 31 5z" fill="#7876ab"></path><path d="M35.4 52.68c.17.78-.42 1.52-1.22 1.52h-4.36c-.8 0-1.39-.74-1.22-1.52l1.7-7.63c-1.38-.72-2.27-2.24-1.98-3.95a3.746 3.746 0 0 1 3-3.04 3.743 3.743 0 0 1 4.42 3.68c0 1.44-.83 2.68-2.04 3.31z" fill="#5e5e84"></path><path d="M25.24 30H45c2.21 0 4 1.79 4 4v25c0 2.21-1.79 4-4 4H19c-2.21 0-4-1.79-4-4V34a3.99 3.99 0 0 1 3.61-3.98c.13-.01.26-.02.39-.02zm8.94 24.2c.8 0 1.39-.74 1.22-1.52l-1.7-7.63c1.21-.63 2.04-1.87 2.04-3.31 0-2.29-2.06-4.1-4.42-3.68a3.746 3.746 0 0 0-3 3.04c-.29 1.71.6 3.23 1.98 3.95l-1.7 7.63c-.17.78.42 1.52 1.22 1.52z" fill="#ffc32c"></path><path d="M49 34v25c0 2.21-1.79 4-4 4H19c-1.86 0-3.43-1.27-3.87-3H41c2.21 0 4-1.79 4-4V31c0-.35-.04-.68-.13-1H45c2.21 0 4 1.79 4 4z" fill="#ffa300"></path><path d="M18 36.256v-1.994c0-.697.565-1.262 1.262-1.262h2.326c1.172 0 1.711 1.458.821 2.22l-2.326 1.994c-.818.702-2.083.12-2.083-.958z" fill="#ffedc5"></path><path d="M46 15a1 1 0 0 1-1-1V9a1 1 0 1 1 2 0v5a1 1 0 0 1-1 1zM49 16a.999.999 0 0 1-.707-1.707l4-4a.999.999 0 1 1 1.414 1.414l-4 4A.997.997 0 0 1 49 16zM55 19h-4a1 1 0 1 1 0-2h4a1 1 0 1 1 0 2z" fill="#ffc32c"></path></g></svg>