<svg id="Smooth" enable-background="new 0 0 128 128" height="512" viewBox="0 0 128 128" width="512" xmlns="http://www.w3.org/2000/svg" xmlns:xlink="http://www.w3.org/1999/xlink"><defs><circle id="SVGID_27_" cx="93" cy="110" r="5"/><linearGradient id="lg1"><stop offset="0" stop-color="#f6cfbe"/><stop offset="1" stop-color="#edad99"/></linearGradient><linearGradient id="SVGID_1_" gradientUnits="userSpaceOnUse" x1="64" x2="64" xlink:href="#lg1" y1="93.833" y2="83.333"/><linearGradient id="lg2"><stop offset="0" stop-color="#ffcf97"/><stop offset="1" stop-color="#ffac6a"/></linearGradient><linearGradient id="SVGID_2_" gradientTransform="matrix(-1 0 0 1 895.999 0)" gradientUnits="userSpaceOnUse" x1="832.845" x2="833.106" xlink:href="#lg2" y1="75.278" y2="65.482"/><linearGradient id="SVGID_3_" gradientUnits="userSpaceOnUse" x1="66.124" x2="65.124" xlink:href="#lg2" y1="53.222" y2="70.055"/><linearGradient id="lg3"><stop offset="0" stop-color="#eff0f0"/><stop offset="1" stop-color="#e4e5e6"/></linearGradient><linearGradient id="SVGID_4_" gradientUnits="userSpaceOnUse" x1="15.741" x2="19.16" xlink:href="#lg3" y1="152.523" y2="119.665"/><linearGradient id="SVGID_5_" gradientUnits="userSpaceOnUse" x1="34.596" x2="31.453" xlink:href="#lg3" y1="145.075" y2="172.107"/><linearGradient id="SVGID_6_" gradientTransform="matrix(-1 0 0 1 1532.002 0)" gradientUnits="userSpaceOnUse" x1="1419.742" x2="1423.161" xlink:href="#lg3" y1="152.523" y2="119.665"/><linearGradient id="SVGID_7_" gradientTransform="matrix(-1 0 0 1 1598 0)" gradientUnits="userSpaceOnUse" x1="1504.596" x2="1501.453" xlink:href="#lg3" y1="145.075" y2="172.107"/><linearGradient id="SVGID_8_" gradientUnits="userSpaceOnUse" x1="93" x2="93" xlink:href="#lg1" y1="23.667" y2="72.341"/><linearGradient id="SVGID_9_" gradientUnits="userSpaceOnUse" x1="34" x2="34" xlink:href="#lg1" y1="23.667" y2="72.341"/><linearGradient id="SVGID_10_" gradientUnits="userSpaceOnUse" x1="68.857" x2="71.607" xlink:href="#lg1" y1="19.17" y2="4.92"/><linearGradient id="SVGID_11_" gradientUnits="userSpaceOnUse" x1="63" x2="63" y1="-17.25" y2="65.949"><stop offset="0" stop-color="#957e7f"/><stop offset="1" stop-color="#373638"/></linearGradient><linearGradient id="SVGID_12_" gradientUnits="userSpaceOnUse" x1="65.211" x2="64.711" xlink:href="#lg1" y1="54.839" y2="62.339"/><linearGradient id="lg4"><stop offset="0" stop-color="#58595b"/><stop offset="1" stop-color="#414042"/></linearGradient><linearGradient id="SVGID_13_" gradientUnits="userSpaceOnUse" x1="50.756" x2="50.881" xlink:href="#lg4" y1="86.501" y2="69.877"/><linearGradient id="SVGID_14_" gradientUnits="userSpaceOnUse" x1="76.755" x2="76.88" xlink:href="#lg4" y1="86.648" y2="70.023"/><linearGradient id="SVGID_15_" gradientUnits="userSpaceOnUse" x1="50.599" x2="50.766" xlink:href="#lg4" y1="98.335" y2="76.169"/><linearGradient id="SVGID_16_" gradientUnits="userSpaceOnUse" x1="76.597" x2="76.764" xlink:href="#lg4" y1="98.531" y2="76.364"/><linearGradient id="SVGID_17_" gradientUnits="userSpaceOnUse" x1="40.967" x2="48.905" xlink:href="#lg1" y1="70.033" y2="68.408"/><linearGradient id="SVGID_18_" gradientUnits="userSpaceOnUse" x1="59.893" x2="57.914" xlink:href="#lg3" y1="158.565" y2="149.549"/><linearGradient id="SVGID_19_" gradientTransform="matrix(-1 0 0 1 1532.002 0)" gradientUnits="userSpaceOnUse" x1="1463.894" x2="1461.915" xlink:href="#lg3" y1="158.565" y2="149.549"/><linearGradient id="lg5"><stop offset="0" stop-color="#d0d3d3"/><stop offset="1" stop-color="#aaaeb1"/></linearGradient><linearGradient id="SVGID_20_" gradientUnits="userSpaceOnUse" x1="41.473" x2="41.247" xlink:href="#lg5" y1="126.932" y2="124.311"/><linearGradient id="SVGID_21_" gradientUnits="userSpaceOnUse" x1="36.63" x2="36.88" xlink:href="#lg4" y1="77.692" y2="79.692"/><linearGradient id="SVGID_22_" gradientUnits="userSpaceOnUse" x1="36.603" x2="36.584" xlink:href="#lg4" y1="119.669" y2="119.447"/><linearGradient id="SVGID_23_" gradientTransform="matrix(-1 0 0 1 75 0)" gradientUnits="userSpaceOnUse" x1="32.603" x2="32.584" xlink:href="#lg4" y1="119.669" y2="119.447"/><linearGradient id="SVGID_24_" gradientUnits="userSpaceOnUse" x1="83.56" x2="83.81" xlink:href="#lg4" y1="71.826" y2="73.826"/><linearGradient id="SVGID_25_" gradientUnits="userSpaceOnUse" x1="43.52" x2="43.77" xlink:href="#lg4" y1="76.831" y2="78.831"/><linearGradient id="lg6"><stop offset="0" stop-color="#6c6f73"/><stop offset="1" stop-color="#56585b"/></linearGradient><linearGradient id="SVGID_26_" gradientUnits="userSpaceOnUse" x1="103.171" x2="105.593" xlink:href="#lg6" y1="113.609" y2="114.468"/><linearGradient id="SVGID_28_" gradientUnits="userSpaceOnUse" x1="73.449" x2="81.283" xlink:href="#lg4" y1="107.4" y2="108.442"/><clipPath id="SVGID_29_"><use xlink:href="#SVGID_27_"/></clipPath><linearGradient id="SVGID_30_" gradientUnits="userSpaceOnUse" x1="73.449" x2="81.283" xlink:href="#lg6" y1="107.4" y2="108.442"/><linearGradient id="SVGID_31_" gradientUnits="userSpaceOnUse" x1="73.449" x2="81.283" xlink:href="#lg5" y1="107.4" y2="108.442"/></defs><g><g><g><g><path d="m52 76h24v21h-24z" fill="url(#SVGID_1_)"/><g><path d="m52 87.999c2.737 2.914 7.093 5 12 5 5.019 0 9.277-1.972 12-5v38.001h-12-12z" fill="url(#SVGID_2_)"/><path d="m52 87.999c2.737 2.914 7.093 5 12 5 5.019 0 9.277-1.972 12-5 1.108.245 2.479.576 4.025.975-2.326 4.671-8.613 8.025-16.025 8.025s-13.699-3.354-16.025-8.025c1.546-.399 2.917-.729 4.025-.975z" fill="url(#SVGID_3_)"/><g><path d="m35 98.999-18-1.999s-10 10-15 29h33z" fill="url(#SVGID_4_)"/><g><path d="m48 87c-7.129 1.579-25.089 5.665-31 10l10 29h33z" fill="url(#SVGID_5_)"/></g></g><g><path d="m93 98.999 18-1.999s10 10 15 29h-33z" fill="url(#SVGID_6_)"/><g><path d="m80 87c7.129 1.579 25.089 5.665 31 10l-10 29h-33z" fill="url(#SVGID_7_)"/></g></g></g><g><path d="m100 52.857c0 4.418-3.134 9.143-7 9.143s-7-4.725-7-9.143 3.134-6.857 7-6.857 7 2.439 7 6.857z" fill="url(#SVGID_8_)"/><path d="m41 52.857c0 4.418-3.134 9.143-7 9.143s-7-4.725-7-9.143 3.134-6.857 7-6.857 7 2.439 7 6.857z" fill="url(#SVGID_9_)"/></g><path d="m89 28h-50c-2.238.543-4 2.697-4 5v20.007c0 16.993 13 29.993 29 29.993s29-13 29-29.993v-20.007c0-2.31-1.753-4.463-4-5z" fill="url(#SVGID_10_)"/><path d="m64 2c15.685 0 33 12.188 33 31-.052 11.912-4 20-4 20 0-6-3-20-3-20-17 4-51-4-51-4s-4 6-4 24c0 0-6-7-6-19 0-14.964 7-18 7-18s2-14 28-14z" fill="url(#SVGID_11_)"/><g><g><g><path d="m63.982 76c-2.26 0-4.514-.728-6.562-2.182-.45-.32-.556-.944-.236-1.395s.944-.555 1.395-.236c3.423 2.433 7.376 2.432 10.847-.003.451-.318 1.076-.208 1.393.244s.208 1.076-.244 1.393c-2.071 1.452-4.335 2.179-6.593 2.179z" fill="url(#SVGID_12_)"/></g></g><g><circle cx="51" cy="54" fill="url(#SVGID_13_)" r="3"/><circle cx="77" cy="54" fill="url(#SVGID_14_)" r="3"/><g><path d="m56.999 45.994c-.181 0-.363-.049-.528-.151-5.559-3.461-9.18-1.133-10.726-.138l-.21.135c-.468.295-1.085.155-1.38-.311-.295-.467-.156-1.084.311-1.38l.198-.126c1.704-1.097 6.234-4.007 12.865.123.469.292.612.909.32 1.377-.19.304-.516.471-.85.471z" fill="url(#SVGID_15_)"/></g><g><path d="m71.001 45.994c-.334 0-.66-.167-.85-.471-.292-.469-.149-1.086.32-1.377 6.632-4.132 11.161-1.219 12.866-.123l.197.126c.467.295.605.913.311 1.38-.295.467-.913.606-1.38.311l-.21-.134c-1.545-.994-5.168-3.323-10.727.138-.164.101-.346.15-.527.15z" fill="url(#SVGID_16_)"/></g><g><path d="m63.996 67c-.002 0-.003 0-.005 0-.975-.002-1.916-.457-2.721-1.316-.377-.403-.357-1.036.046-1.414.403-.376 1.036-.357 1.414.046.292.311.748.683 1.264.684h.002c.52 0 .981-.373 1.277-.687.379-.402 1.012-.42 1.414-.041.401.379.42 1.012.041 1.414-.812.86-1.756 1.314-2.732 1.314z" fill="url(#SVGID_17_)"/></g></g></g></g><g><path d="m52 84 8 42-16-15 2-8-7-1.001 8-15c.812-1.469 3.125-2.998 5-2.999z" fill="url(#SVGID_18_)"/><path d="m76 84-8 42 16-15-2-8 7-1.001-8-15c-.812-1.469-3.125-2.998-5-2.999z" fill="url(#SVGID_19_)"/></g></g></g><g><g><path d="m47 119h-5c-.552 0-1-.447-1-1s.448-1 1-1h5c1.103 0 2-.897 2-2v-10c0-4.963-4.038-9-9-9s-9 4.037-9 9v10c0 1.103.897 2 2 2h4c.552 0 1 .447 1 1s-.448 1-1 1h-4c-2.206 0-4-1.794-4-4v-10c0-6.065 4.935-11 11-11s11 4.935 11 11v10c0 2.206-1.794 4-4 4z" fill="url(#SVGID_20_)"/><path d="m40 94c-6.065 0-11 4.935-11 11h2c0-4.963 4.038-9 9-9s9 4.037 9 9h2c0-6.065-4.935-11-11-11z" fill="url(#SVGID_21_)"/><path d="m37 117h-2v2h2c.552 0 1-.447 1-1s-.448-1-1-1z" fill="url(#SVGID_22_)"/><path d="m42 117h2v2h-2c-.552 0-1-.447-1-1s.448-1 1-1z" fill="url(#SVGID_23_)"/></g><path d="m79.983 78.136c-1.022.688-2.089 1.311-3.196 1.864h1.213c7.72 0 14 6.28 14 14v12c0 .553.448 1 1 1s1-.447 1-1v-12c0-8.149-6.129-14.882-14.017-15.864z" fill="url(#SVGID_24_)"/><path d="m48.081 78.179c-5.152.911-9.081 5.411-9.081 10.821v6c0 .553.448 1 1 1s1-.447 1-1v-6c0-4.963 4.038-9 9-9 .265 0 .503-.107.682-.276-.895-.47-1.763-.985-2.601-1.545z" fill="url(#SVGID_25_)"/><g><circle cx="93" cy="110" fill="url(#SVGID_26_)" r="5"/><g><g><g><use fill="url(#SVGID_28_)" xlink:href="#SVGID_27_"/><path clip-path="url(#SVGID_29_)" d="m88 105h10v10h-10z" fill="url(#SVGID_30_)"/></g><path d="m93 116c-3.309 0-6-2.691-6-6s2.691-6 6-6 6 2.691 6 6-2.691 6-6 6zm0-10c-2.206 0-4 1.794-4 4s1.794 4 4 4 4-1.794 4-4-1.794-4-4-4z" fill="url(#SVGID_31_)"/></g></g></g></g></g></svg>