<svg viewBox="0 0 123.999 121.522" xmlns="http://www.w3.org/2000/svg"><g><path d="m94.867 21.02 1.496 1.229 1.271-1.544-5.933-4.871 2.673-3.256-1.544-1.271-2.675 3.259-2.893-2.375 3.23-3.936-1.546-1.27-3.23 3.937-2.892-2.374 2.772-3.378-1.548-1.267-2.77 3.375-2.892-2.375.808-.986a1 1 0 0 0-1.546-1.268l-.808.984-1.878-1.542-1.275 1.54 1.884 1.547-1.9 2.315-4.81-3.95-1.27 1.545 4.811 3.951-1.907 2.325-6.784-5.567-1.266 1.549 2.34 1.92-1.897 2.312-3.551-2.914-1.271 1.544 3.554 2.916-1.906 2.323-4.283-3.516-1.269 1.546 4.283 3.516-1.902 2.318-4.34-3.563-1.27 1.545 4.341 3.563-1.903 2.32-2.446-2.007-2.302-1.848-1.252 1.56 4.713 3.863L50.2 27.04l-3.783-3.104-1.272 1.543 3.786 3.107-1.909 2.326-2.837-2.329-1.267 1.548 7.28 5.977-1.896 2.311-4.676-3.836-1.27 1.546 4.677 3.836-1.909 2.327-2.002-1.607-1.252 1.56 1.973 1.609-.673.821 1.556 1.256.668-.814 7.011 5.716 1.271-1.545-2.563-2.101 1.901-2.317 7.597 6.232 1.271-1.545-3.159-2.591 1.893-2.306 13.36 10.97 1.273-1.542-.05-.041 1.913-2.332 3.798 3.117 1.27-1.546-3.799-3.118 1.897-2.313 4.196 3.439 1.269-1.546-4.194-3.442 1.902-2.319 4.469 3.668 1.268-1.547-4.468-3.667 1.902-2.318 4.326 3.551 1.269-1.546-4.326-3.551L89.8 36.25l3.592 2.948 1.269-1.546-3.592-2.948 1.899-2.315 2.128 1.746 1.269-1.546-6.568-5.389 1.901-2.316 4.667 3.833 1.271-1.545-4.669-3.834zm-8.874-7.285 2.893 2.375-1.901 2.316-2.892-2.375zM56.191 31.957l1.886-2.299 2.89 2.369-1.888 2.301zm1.619 3.916-1.91 2.328-2.887-2.37 1.909-2.328zm10.781-4.084-1.903 2.319-2.893-2.374 1.903-2.319zm-1.624-3.92 1.902-2.318 2.892 2.374-1.902 2.318zm3.17 5.189 2.89 2.372-1.904 2.319-2.889-2.371zm1.268-1.546 1.902-2.318 2.89 2.372-1.903 2.318zm3.171-3.864 1.908-2.325 2.891 2.373-1.909 2.325zm3.177-3.871 1.898-2.314 2.892 2.373-1.899 2.313zm1.621-5.128-2.893-2.373 1.906-2.322 2.891 2.374zm-1.269 1.546-1.898 2.313-2.892-2.374 1.898-2.313zm-3.167 3.859-1.908 2.325-2.892-2.374 1.908-2.325zm-6.346-1.318-2.89-2.372 1.907-2.324 2.891 2.372zm-1.269 1.546L65.421 26.6l-2.889-2.372 1.902-2.318zm-3.171 3.864-1.903 2.319-2.889-2.371 1.903-2.32zm-1.638 5.149 2.894 2.372-1.89 2.303-2.893-2.374zm4.441 3.64 2.89 2.369-1.893 2.306-2.889-2.371zm4.438 3.637 2.892 2.371-1.895 2.309-2.891-2.373zm1.276-1.554 1.903-2.319 2.89 2.372-1.902 2.319zm3.172-3.865 1.903-2.318 2.89 2.372-1.902 2.318zm3.172-3.863 1.909-2.325 2.89 2.372-1.909 2.326zm3.178-3.871 1.899-2.314 2.89 2.371-1.899 2.314zm1.622-5.128-2.893-2.373 1.904-2.32 2.892 2.375zm-2.257-12.199 2.892 2.374-1.9 2.316-2.891-2.374zm-4.439-3.644 2.893 2.375-1.9 2.315-2.892-2.375zm-3.167 3.861 2.892 2.375-1.906 2.323-2.892-2.373zm-3.176 3.871 2.892 2.373-1.898 2.313-2.891-2.373zm-4.442-3.645 2.896 2.376-1.897 2.313-2.896-2.376zm-3.167 3.859 2.896 2.377-1.907 2.324-2.896-2.377zm-3.175 3.869 2.897 2.378-1.902 2.318-2.897-2.378zm-3.171 3.864 2.897 2.378-1.903 2.32-2.898-2.378zm-3.188 3.886 2.9 2.377-1.885 2.298-2.898-2.379zm-5.062 6.169 1.909-2.327 2.899 2.379-1.909 2.327zm.997 13.738-2.887-2.367 1.902-2.319 2.887 2.368zm3.17-3.864-2.887-2.368 1.895-2.31 2.886 2.37zm4.441 3.642-2.894-2.374 1.894-2.308 2.893 2.375zm3.162-3.853-2.893-2.375 1.911-2.328 2.893 2.374zm1.545 1.269 1.911-2.329 2.888 2.37-1.912 2.329zm4.434 3.64 1.912-2.33 2.891 2.373-1.913 2.33zm7.336 6.024-2.899-2.38 1.913-2.331 2.899 2.379zm3.182-3.878-2.899-2.379 1.896-2.31 2.9 2.377zm3.168-3.862-2.898-2.378 1.903-2.319 2.897 2.378zm3.17-3.866-2.897-2.378 1.902-2.318 2.896 2.377zm3.17-3.864-2.896-2.377 1.909-2.326 2.895 2.376zm5.077-6.188-1.899 2.315-2.895-2.375 1.899-2.314zm-3.172-5.189-2.89-2.371 1.903-2.318 2.888 2.372zm3.17-3.863-2.888-2.372 1.901-2.316 2.888 2.371z" fill="#d6eae8"></path><g fill="#f69552"><path d="M18.639 42.612a9.24 9.24 0 0 0 .14 3.8c1.19 4.9 6.01 7.94 10.76 6.79 4.75-1.16 7.63-6.07 6.43-10.98a9.373 9.373 0 0 0-1.62-3.43v-.01l-1.29-5.26c7.24-8.23 6.72-30.49 2.23-32.03-4.49-1.53-5.47 6.09-5.35 11.06 0 0-.36-10.66-5.58-11.46-4.03-.61-5.9 6.63-5.9 6.63s-4.99-5.57-8.29-3.17c-4 2.9-.23 11.53.27 12.63-2.2-4.46-6.54-10.64-9.79-7.25-3.29 3.43 6.49 23.44 16.71 27.41z" fill="#f69552"></path><path d="M120.759 54.122a30.76 30.76 0 0 0-10.04-11.55h-.01a30.44 30.44 0 0 0-13.27-5.14c4.95-12.3 3.16-25.32-5.55-32.46-11.45-9.4-30.54-5.08-42.63 9.66-9.58 11.67-11.89 26.37-6.75 36.64-3.1 1.24-5.98 2.89-8.59 4.88-8.2 6.27-13.66 15.94-14.27 26.91a34.818 34.818 0 0 0 .09 5.26h-.01l-8.14 9.91a3.17 3.17 0 0 0 .44 4.45l2.63 2.16a3.16 3.16 0 0 0 4.45-.44l3.64-4.43c1.72 3.85 4.09 7.35 6.98 10.35a36.252 36.252 0 0 0 22.22 10.97c1.33.15 2.68.23 4.05.23 8.73 0 16.74-3.07 23.01-8.19 4.81-3.92 8.61-9.06 10.91-14.94a30.513 30.513 0 0 0 12.83-1.3 30.667 30.667 0 0 0 14.68-10.25h.01a30.625 30.625 0 0 0 6.56-18.98c0-4.94-1.17-9.61-3.24-13.74zm-24.72-26.97c-.13 1.86-.46 3.76-.98 5.66a31.48 31.48 0 0 1-1.78 5c-.66 1.53-1.46 3.04-2.39 4.52-.86 1.39-1.84 2.75-2.92 4.07s-2.22 2.54-3.42 3.66a36.11 36.11 0 0 1-3.95 3.22c-1.13.8-2.3 1.52-3.48 2.16a35.488 35.488 0 0 0-5.99-3.46l-.01-.01a35.606 35.606 0 0 0-9.12-2.78c-.86-.15-1.72-.26-2.6-.34-1.12-.11-2.25-.16-3.4-.16-1.46 0-2.9.09-4.32.25-1.65.2-3.27.51-4.85.92a20.5 20.5 0 0 1-2.2-5.4c-.14-.52-.26-1.05-.36-1.59-.39-2.15-.5-4.41-.31-6.72.13-1.86.46-3.76.98-5.66.44-1.68 1.04-3.35 1.78-5.01.67-1.53 1.47-3.03 2.39-4.51.86-1.39 1.84-2.75 2.92-4.07s2.23-2.54 3.42-3.66c1.27-1.19 2.59-2.27 3.96-3.22 1.47-1.05 3-1.96 4.55-2.73 1.77-.87 3.57-1.57 5.37-2.07 2.24-.63 4.47-.96 6.65-1 2.79-.04 5.49.41 7.97 1.37 1.8.71 3.49 1.68 5.02 2.94s2.82 2.73 3.85 4.36c1.44 2.24 2.41 4.8 2.9 7.53.4 2.15.51 4.41.32 6.73z" fill="#f69552"></path></g><path d="M35.969 42.222c1.2 4.91-1.68 9.82-6.43 10.98-4.75 1.15-9.57-1.89-10.76-6.79a9.24 9.24 0 0 1-.14-3.8l15.71-3.82c.74.99 1.31 2.14 1.62 3.43z" fill="#d6eae8"></path><path d="m33.059 33.522-2.99.73-.13-21.7c-.12-4.97.86-12.59 5.35-11.06 4.49 1.54 5.01 23.8-2.23 32.03z" fill="#b8d3cf"></path><path d="m25.209 35.432-6.75-27.71s1.87-7.24 5.9-6.63c5.22.8 5.58 11.46 5.58 11.46l.13 21.7z" fill="#c3ddda"></path><path d="m18.459 7.722 6.75 27.71-4.86 1.18h-.01l-9.85-19.32c-.02-.04-.04-.07-.05-.11-.5-1.1-4.27-9.73-.27-12.63 3.3-2.4 8.29 3.17 8.29 3.17z" fill="#d6eae8"></path><path d="M17.359 37.342c-10.22-3.97-20-23.98-16.71-27.41 3.25-3.39 7.59 2.79 9.79 7.25.01.04.03.07.05.11l9.85 19.32z" fill="#e7f2f1"></path><path d="m22.749 99.972-3.64 4.43a3.16 3.16 0 0 1-4.45.44l-2.63-2.16a3.17 3.17 0 0 1-.44-4.45l8.14-9.91h.01a35.81 35.81 0 0 0 3.01 11.65zM46.719 25.482c-.74 1.66-1.34 3.33-1.78 5.01-.52 1.9-.85 3.8-.98 5.66-.19 2.31-.08 4.57.31 6.72.1.54.22 1.07.36 1.59a20.5 20.5 0 0 0 2.2 5.4c-1.48.38-2.92.85-4.32 1.41-5.14-10.27-2.83-24.97 6.75-36.64 12.09-14.74 31.18-19.06 42.63-9.66 8.71 7.14 10.5 20.16 5.55 32.46-.47 1.18-1.01 2.35-1.61 3.51a43.484 43.484 0 0 1-5.09 7.73c-3.12 3.8-6.7 6.9-10.5 9.26-.27-.24-.55-.48-.83-.72 0 0-.01 0-.03-.02 0 0-.01.01-.01 0-.72-.62-1.47-1.2-2.25-1.75a34.48 34.48 0 0 0 3.48-2.16 36.11 36.11 0 0 0 3.95-3.22c1.2-1.12 2.34-2.34 3.42-3.66s2.06-2.68 2.92-4.07c.93-1.48 1.73-2.99 2.39-4.52a31.48 31.48 0 0 0 1.78-5c.52-1.9.85-3.8.98-5.66.19-2.32.08-4.58-.32-6.73-.49-2.73-1.46-5.29-2.9-7.53-1.03-1.63-2.32-3.1-3.85-4.36s-3.22-2.23-5.02-2.94c-2.48-.96-5.18-1.41-7.97-1.37-2.18.04-4.41.37-6.65 1-1.8.5-3.6 1.2-5.37 2.07-1.55.77-3.08 1.68-4.55 2.73-1.37.95-2.69 2.03-3.96 3.22-1.19 1.12-2.34 2.34-3.42 3.66s-2.06 2.68-2.92 4.07c-.92 1.48-1.72 2.98-2.39 4.51z" fill="#655f68"></path><path d="M106.329 85.822c.76.23 1.51.42 2.23.58-.59 3.93-2.53 7.49-5.81 10.69a30.513 30.513 0 0 1-12.83 1.3c5.58-4.01 9.44-9.02 11.58-15.02 1.45 1.13 3.05 1.91 4.83 2.45zM101.379 43.972c-3.75 1.03-7.28 2.62-10.64 4.7 2.02-2.46 3.72-5.06 5.09-7.73 1.72.26 3.58 1.35 5.55 3.03z" fill="#f9b132"></path><path d="M110.709 42.572c-3.24.1-6.35.57-9.33 1.4-1.97-1.68-3.83-2.77-5.55-3.03.6-1.16 1.14-2.33 1.61-3.51 4.88.66 9.4 2.46 13.27 5.14zM117.429 86.842a30.667 30.667 0 0 1-14.68 10.25c3.28-3.2 5.22-6.76 5.81-10.69 4.91 1.05 8.64.48 8.87.44zM95.479 74.712c1.65 4.05 3.63 6.81 6.02 8.66-2.14 6-6 11.01-11.58 15.02 1.61-4.12 2.5-8.6 2.5-13.28 0-2.27-.21-4.5-.61-6.65-1.49-8.1-5.67-15.26-11.57-20.53 3.8-2.36 7.38-5.46 10.5-9.26 0 0-.21 5.66 1.44 14.22.3 1.56.67 3.23 1.11 4.97.66 2.61 1.39 4.88 2.19 6.85z" fill="#1ea6bc"></path><path d="M123.999 67.862c0 .8-.03 1.58-.09 2.36-9.11 3.92-18.58 5.42-28.43 4.49-.8-1.97-1.53-4.24-2.19-6.85-.44-1.74-.81-3.41-1.11-4.97 8.44-7 17.96-9.93 28.58-8.77a30.59 30.59 0 0 1 3.24 13.74z" fill="#f9b132"></path><path d="M123.909 70.222a30.625 30.625 0 0 1-6.47 16.62h-.01c-.23.04-3.96.61-8.87-.44-.72-.16-1.47-.35-2.23-.58-1.78-.54-3.38-1.32-4.83-2.45-2.39-1.85-4.37-4.61-6.02-8.66 9.85.93 19.32-.57 28.43-4.49zM120.759 54.122c-10.62-1.16-20.14 1.77-28.58 8.77-1.65-8.56-1.44-14.22-1.44-14.22 3.36-2.08 6.89-3.67 10.64-4.7 2.98-.83 6.09-1.3 9.33-1.4h.01a30.76 30.76 0 0 1 10.04 11.55z" fill="#e7f2f1"></path><g fill="#c57742"><path d="M77.119 55.442c.78.55 1.53 1.13 2.25 1.75-.53-.19-6.14-1.95-18.33 4.62-5.68-7.26.96-12.62.96-12.62 3.2.52 6.26 1.47 9.12 2.78l.01.01a35.488 35.488 0 0 1 5.99 3.46zM91.809 78.462c.4 2.15.61 4.38.61 6.65 0 4.68-.89 9.16-2.5 13.28-2.3 5.88-6.1 11.02-10.91 14.94 0 0-16.66-31.55-29.44-44.09 4.33-3.23 8.15-5.64 11.47-7.43 5.68 7.25 15.06 5.73 20.96 7.37 5.91 1.65 9.81 9.28 9.81 9.28zM46.779 109.172c.77 6.53 4.93 11.83 5.17 12.12-8.7-.96-16.48-4.98-22.22-10.97 0 0-.93-19.44 12.95-34.82 8.65 5.9 3.3 26.94 4.1 33.67zM49.569 69.242a47.644 47.644 0 0 0-6.89 6.26c-8.65-5.9-23.03 7.56-23.03 7.56.61-10.97 6.07-20.64 14.27-26.91 0 0 2.88.54 15.65 13.09z" fill="#c57742"></path></g><path d="M20.349 37.617a1 1 0 0 1-.621-.214.969.969 0 0 1-.157-.15l-11.84-14.19a1 1 0 1 1 1.536-1.281l11.785 14.125a.99.99 0 0 1 .297.706c0 .551-.448 1.004-1 1.004z" fill="#d6eae8"></path><path d="M30.07 35.252a1 1 0 0 1-.978-1.215l3.99-18.06a1 1 0 0 1 1.953.431l-3.99 18.06a1 1 0 0 1-.975.784z" fill="#acccc6"></path><path d="M25.21 36.432a1 1 0 0 1-.973-1.235c1.433-5.933 1.486-12.668.158-20.017a1.001 1.001 0 0 1 1.968-.356c1.377 7.625 1.316 14.637-.182 20.842a1 1 0 0 1-.971.766z" fill="#b8d3cf"></path><path d="M25.209 36.432a.997.997 0 0 1-.755-.344c-4.178-4.808-7.458-11.005-9.75-18.42a1 1 0 0 1 1.911-.591c2.209 7.148 5.355 13.103 9.349 17.7a1 1 0 0 1-.755 1.655z" fill="#c3ddda"></path><path d="m20.349 36.612 4.86-1.18 4.86-1.18 2.99-.73 1.29 5.26v.01l-15.71 3.82-1.28-5.27 2.98-.73z" fill="#655f68"></path><path d="M92.259 81.742a36.416 36.416 0 0 1-2.34 16.65c-2.3 5.88-6.1 11.02-10.91 14.94 0 0-2.05-3.88-5.25-9.45 6.55-4.5 12.93-11.53 18.5-22.14z" fill="#ac6839"></path><path d="M73.759 103.882c3.2 5.57 5.25 9.45 5.25 9.45a36.251 36.251 0 0 1-23.01 8.19c-1.37 0-2.72-.08-4.05-.23-.22-.26-3.69-4.68-4.89-10.4 8.14.63 17.59-.76 26.7-7.01z" fill="#dd864a"></path><path d="M47.059 110.892c1.2 5.72 4.67 10.14 4.89 10.4-8.7-.96-16.48-4.98-22.22-10.97 0 0-.07-1.42.11-3.81 4 1.74 10.11 3.83 17.22 4.38z" fill="#ac6839"></path><path d="M29.839 106.512c-.18 2.39-.11 3.81-.11 3.81a35.811 35.811 0 0 1-4.85-6.3s1.83 1.14 4.96 2.49z" fill="#dd864a"></path><path d="M35.969 42.222c1.2 4.91-1.68 9.82-6.43 10.98-3.54.86-7.11-.61-9.19-3.44.41.09 12.4 2.41 10.78-10.19l3.22-.78c.74.99 1.31 2.14 1.62 3.43z" fill="#c3ddda"></path></g></svg>