<svg viewBox="0 0 512.101 512.101" xmlns="http://www.w3.org/2000/svg"><g><path d="M256.05 488.813C49.44 488.606-54.487 237.687 91.464 91.461 178.103 1.173 334 1.159 420.639 91.465c145.949 146.239 42.01 397.153-164.589 397.348zm0-435.526c-111.804 0-202.763 90.959-202.763 202.763 11.138 268.993 394.43 268.915 405.527-.002-.001-111.802-90.96-202.761-202.764-202.761z" fill="#595454"></path><path d="M256.237 23.287v30c268.814 11.377 268.607 394.245 0 405.522v30c125.043 2.479 235.161-107.714 232.575-232.763 2.587-125.036-107.537-235.25-232.575-232.759z" fill="#454040"></path><path d="M256 186.763c-8.284 0-15-6.716-15-15V15c.793-19.902 29.215-19.887 30 0v156.763c0 8.284-6.716 15-15 15zM256.05 512.101c-8.284 0-15-6.716-15-15V340.338c.793-19.902 29.215-19.887 30 0v156.763c0 8.284-6.716 15-15 15z" fill="#ff1f3d"></path><path d="M256.237 0v186.739c8.174-.128 14.763-6.784 14.763-14.988V14.988C271 6.784 264.41.128 256.237 0zM256.288 325.338v186.739c8.174-.128 14.763-6.784 14.763-14.988V340.326c-.001-8.204-6.59-14.86-14.763-14.988zM497.101 270.975H340.338c-19.902-.793-19.887-29.215 0-30h156.763c19.902.792 19.886 29.214 0 30z" fill="#b10f61"></path><path d="M171.763 271.025H15c-19.902-.793-19.887-29.215 0-30h156.763c19.902.793 19.887 29.215 0 30z" fill="#ff1f3d"></path><path d="M287.757 241H271v-16.757c-.793-19.902-29.215-19.887-30 0V241h-16.757c-19.902.793-19.887 29.215 0 30H241v16.757c.793 19.902 29.215 19.887 30 0V271h16.757c19.902-.793 19.887-29.215 0-30z" fill="#454040"></path><path d="M287.757 240.988H271v-16.757c0-8.204-6.589-14.86-14.763-14.988v93.491c8.174-.128 14.763-6.784 14.763-14.988v-16.757h16.757c19.902-.794 19.887-29.216 0-30.001z" fill="#2e2e2e"></path><path d="M256 394.379c-76.303 0-138.379-62.077-138.379-138.379 7.601-183.579 269.185-183.526 276.759.001-.001 76.302-62.078 138.378-138.38 138.378zm0-246.758c-59.761 0-108.379 48.619-108.379 108.379 5.953 143.78 210.827 143.738 216.759-.001-.001-59.76-48.62-108.378-108.38-108.378z" fill="#ff6326"></path><path d="M256.237 117.621v30c143.504 6.234 143.393 210.573 0 216.753v30c183.312-7.887 183.171-268.935 0-276.753z" fill="#ff1f3d"></path></g></svg>