<svg viewBox="0 0 512 512" xmlns="http://www.w3.org/2000/svg"><g><path d="m512 128.802-128.585 9-128.585-9-9-23.524 9-27.356h241.686c8.552 0 15.484 6.932 15.484 15.484z" fill="#ff748f"></path><path d="m512 179.681-128.585 9-128.585-9-9-21.729 9-29.15H512zM512 281.44l-257.17 9-254.83-9v-50.88l254.83-9 257.17 9z" fill="#eeeff4"></path><path d="M512 230.56H254.83l-9-24.474 9-26.405H512zM512 332.319l-256 9-256-9V281.44h512z" fill="#ff748f"></path><path d="m512 383.198-256 9-256-9v-50.879h512z" fill="#eeeff4"></path><path d="M15.484 424.497h481.032c8.552 0 15.484-7.452 15.484-24.484v-16.815H0v16.815c0 18.581 6.932 24.484 15.484 24.484z" fill="#ff748f"></path><path d="M254.83 230.56H0V93.407c0-8.552 6.932-15.484 15.484-15.484H254.83z" fill="#65add6"></path><path d="M496.516 415.497H15.484C6.932 415.497 0 408.565 0 400.013v18.581c0 8.552 6.932 15.484 15.484 15.484h481.032c8.552 0 15.484-6.932 15.484-15.484v-18.581c0 8.552-6.932 15.484-15.484 15.484z" fill="#ff577f"></path><g fill="#eeeff4"><path d="M79.2 142.79a7.758 7.758 0 0 0-10.971 0l-5.767 5.768a7.757 7.757 0 0 0 0 10.97l5.767 5.767c1.514 1.514 3.5 2.272 5.485 2.272s3.97-.758 5.485-2.272l5.768-5.767a7.76 7.76 0 0 0 0-10.97zM79.2 104.271a7.757 7.757 0 0 0-10.971 0l-5.767 5.768a7.757 7.757 0 0 0 0 10.97l5.767 5.767c1.514 1.514 3.5 2.272 5.485 2.272s3.97-.758 5.485-2.272l5.768-5.767a7.76 7.76 0 0 0 0-10.97zM79.199 181.308a7.76 7.76 0 0 0-10.97 0l-5.767 5.767a7.757 7.757 0 0 0 0 10.97l5.767 5.768a7.754 7.754 0 0 0 10.971 0l5.768-5.768a7.757 7.757 0 0 0 0-10.97zM44.119 123.531a7.757 7.757 0 0 0-10.972 0l-5.768 5.768c-1.455 1.454-2.271 3.427-2.271 5.484s.818 4.031 2.272 5.486l5.768 5.767c1.515 1.514 3.5 2.272 5.485 2.272s3.97-.758 5.485-2.272l5.767-5.767a7.757 7.757 0 0 0 .001-10.97zM44.119 162.049a7.757 7.757 0 0 0-10.972 0l-5.768 5.768c-1.455 1.454-2.271 3.427-2.271 5.484s.818 4.031 2.272 5.486l5.768 5.767c1.515 1.514 3.5 2.272 5.485 2.272s3.97-.757 5.485-2.272l5.767-5.767a7.757 7.757 0 0 0 .001-10.97zM149.361 142.79a7.756 7.756 0 0 0-10.971 0l-5.768 5.768a7.757 7.757 0 0 0 0 10.97l5.768 5.767c1.515 1.514 3.5 2.272 5.485 2.272s3.97-.758 5.485-2.272l5.767-5.767a7.757 7.757 0 0 0 .001-10.97zM149.361 104.271a7.76 7.76 0 0 0-10.971 0l-5.768 5.768a7.76 7.76 0 0 0 0 10.97l5.768 5.767c1.515 1.514 3.5 2.272 5.485 2.272s3.97-.758 5.485-2.272l5.767-5.767a7.757 7.757 0 0 0 .001-10.97zM149.36 181.308a7.76 7.76 0 0 0-10.97 0l-5.768 5.767a7.76 7.76 0 0 0 0 10.97l5.768 5.768a7.754 7.754 0 0 0 10.971 0l5.767-5.768a7.757 7.757 0 0 0-.001-10.97zM114.28 123.531a7.758 7.758 0 0 0-10.971 0l-5.767 5.768a7.757 7.757 0 0 0 0 10.97l5.767 5.767c1.515 1.514 3.5 2.272 5.485 2.272s3.97-.758 5.485-2.272l5.767-5.767a7.757 7.757 0 0 0 0-10.97zM114.28 162.049a7.758 7.758 0 0 0-10.971 0l-5.767 5.768a7.757 7.757 0 0 0 0 10.97l5.767 5.767c1.515 1.514 3.5 2.272 5.485 2.272s3.97-.757 5.485-2.272l5.767-5.767a7.757 7.757 0 0 0 0-10.97zM219.521 142.79a7.758 7.758 0 0 0-10.971 0l-5.767 5.768a7.757 7.757 0 0 0 .001 10.97l5.767 5.767c1.514 1.514 3.5 2.272 5.485 2.272s3.97-.758 5.485-2.272l5.768-5.767a7.76 7.76 0 0 0 0-10.97zM219.521 104.271a7.757 7.757 0 0 0-10.971 0l-5.767 5.768a7.757 7.757 0 0 0 .001 10.97l5.767 5.767c1.514 1.514 3.5 2.272 5.485 2.272s3.97-.758 5.485-2.272l5.768-5.767a7.76 7.76 0 0 0 0-10.97zM219.521 181.308a7.76 7.76 0 0 0-10.97 0l-5.767 5.767a7.757 7.757 0 0 0-.001 10.97l5.767 5.768a7.752 7.752 0 0 0 10.971 0l5.768-5.768a7.757 7.757 0 0 0 0-10.97zM184.441 123.531a7.758 7.758 0 0 0-10.971 0l-5.767 5.768a7.757 7.757 0 0 0 .001 10.97l5.767 5.767c1.515 1.514 3.5 2.272 5.485 2.272s3.97-.758 5.485-2.272l5.768-5.767a7.76 7.76 0 0 0 0-10.97zM184.441 162.049a7.758 7.758 0 0 0-10.971 0l-5.767 5.768a7.757 7.757 0 0 0 .001 10.97l5.767 5.767c1.515 1.514 3.5 2.272 5.485 2.272s3.97-.757 5.485-2.272l5.768-5.767a7.76 7.76 0 0 0 0-10.97z" fill="#eeeff4"></path></g></g></svg>