<svg id="Capa_1" enable-background="new 0 0 512 512" height="512" viewBox="0 0 512 512" width="512" xmlns="http://www.w3.org/2000/svg"><g><path d="m512 78.46v261.985c0 36.094-29.26 65.355-65.355 65.355h-23.411c-12.272 0-24.212 3.99-34.018 11.369l-105.113 79.091c-9.56 7.191-22.901-1.463-20.212-13.124l12.333-53.546c2.804-12.172-6.442-23.79-18.933-23.79h-191.947c-36.088.001-65.344-29.255-65.344-65.344v-261.995c0-36.089 29.256-65.344 65.344-65.344h381.311c36.089-.001 65.345 29.255 65.345 65.343z" fill="#fe646f"/><path d="m32.585 78.461v261.996c0 36.087 29.257 65.344 65.345 65.344h-32.586c-36.087 0-65.344-29.258-65.344-65.345v-261.995c0-36.087 29.257-65.344 65.344-65.344h32.585c-36.087-.001-65.344 29.256-65.344 65.344z" fill="#fd4755"/><g fill="#f9f7f8"><path d="m334.593 193.211c4.268 0 7.726-3.459 7.726-7.726v-49.407l36.083 52.251c2.333 3.368 6.2 4.809 9.849 3.667 3.739-1.169 6.155-4.708 6.155-9.091l-.695-71.826c-.041-4.242-3.492-7.652-7.724-7.652-.026 0-.051 0-.076 0-4.268.041-7.693 3.534-7.652 7.801l.489 50.406-37.797-54.732c-1.922-2.782-5.425-3.991-8.658-2.986-3.227 1.006-5.427 3.995-5.427 7.376v74.193c0 4.267 3.459 7.726 7.727 7.726z"/><path d="m276.192 186.355c.801 4.192 4.856 6.937 9.039 6.139 4.191-.801 6.94-4.848 6.138-9.039l-13.856-72.502c-.854-4.183-4.427-7.271-8.689-7.51-4.246-.241-8.158 2.429-9.474 6.49-.028.088-.055.176-.08.265l-14.794 51.896-15.335-51.976c-.027-.093-.056-.185-.088-.276-1.36-4.048-5.291-6.676-9.546-6.387-4.26.286-7.798 3.415-8.621 7.694l-13.065 72.385c-.758 4.199 2.032 8.218 6.231 8.976 4.195.758 8.218-2.031 8.976-6.231l8.529-47.257 14.016 47.506c.027.092.055.182.086.273 1.29 3.84 4.868 6.412 8.915 6.411h.05c4.067-.021 7.643-2.635 8.897-6.505.028-.088.055-.176.08-.264l13.533-47.473z"/><path d="m309.244 193.211c4.268 0 7.726-3.459 7.726-7.726v-74.331c0-4.267-3.459-7.726-7.726-7.726s-7.726 3.459-7.726 7.726v74.331c0 4.267 3.459 7.726 7.726 7.726z"/><path d="m476.128 140.593h-22.236c-4.268 0-7.726 3.459-7.726 7.726s3.459 7.726 7.726 7.726h13.808c-2.086 11.223-9.034 21.713-23.656 21.713-16.233 0-29.44-13.206-29.44-29.439s13.206-29.439 29.44-29.439c5.9 0 11.591 1.737 16.455 5.023 3.536 2.389 8.339 1.459 10.727-2.077s1.459-8.339-2.077-10.728c-7.428-5.019-16.109-7.672-25.105-7.672-24.754 0-44.892 20.139-44.892 44.892s20.139 44.892 44.892 44.892c23.44 0 39.81-18.46 39.81-44.892 0-4.266-3.459-7.725-7.726-7.725z"/><path d="m102.37 179.96c2.743-3.268 2.318-8.142-.95-10.885-3.27-2.743-8.14-2.318-10.885.95-.698.831-1.452 1.609-2.238 2.31-4.04 3.599-9.174 5.423-15.259 5.423-16.233 0-29.44-13.206-29.44-29.439s13.206-29.439 29.44-29.439c5.9 0 11.591 1.737 16.455 5.023 3.536 2.389 8.339 1.459 10.727-2.077s1.459-8.339-2.077-10.728c-7.428-5.019-16.109-7.672-25.105-7.672-24.754 0-44.892 20.139-44.892 44.892s20.139 44.892 44.892 44.892c9.848 0 18.678-3.228 25.537-9.337 1.343-1.195 2.619-2.512 3.795-3.913z"/><path d="m149.446 193.211c24.754 0 44.892-20.139 44.892-44.892s-20.139-44.892-44.892-44.892-44.892 20.139-44.892 44.892 20.138 44.892 44.892 44.892zm0-74.331c16.233 0 29.44 13.206 29.44 29.439s-13.206 29.439-29.44 29.439-29.44-13.206-29.44-29.439 13.206-29.439 29.44-29.439z"/><path d="m410.491 228.05c-.026 0-.051 0-.076 0-4.268.041-7.693 3.534-7.652 7.801l.489 50.406-37.797-54.732c-1.922-2.782-5.426-3.991-8.658-2.986-3.227 1.006-5.427 3.995-5.427 7.376v74.193c0 4.267 3.459 7.726 7.726 7.726s7.726-3.459 7.726-7.726v-49.408l36.083 52.251c2.333 3.368 6.2 4.809 9.849 3.668 3.739-1.169 6.155-4.708 6.155-9.091l-.695-71.826c-.04-4.242-3.491-7.652-7.723-7.652z"/><path d="m204.114 228.05c-24.754 0-44.892 20.139-44.892 44.892s20.139 44.892 44.892 44.892 44.892-20.139 44.892-44.892-20.139-44.892-44.892-44.892zm0 74.331c-16.233 0-29.44-13.206-29.44-29.439s13.206-29.439 29.44-29.439 29.44 13.206 29.44 29.439-13.207 29.439-29.44 29.439z"/><path d="m299.271 228.05c-24.754 0-44.892 20.139-44.892 44.892s20.139 44.892 44.892 44.892c24.754 0 44.892-20.139 44.892-44.892s-20.139-44.892-44.892-44.892zm0 74.331c-16.233 0-29.44-13.206-29.44-29.439s13.206-29.439 29.44-29.439 29.44 13.206 29.44 29.439-13.207 29.439-29.44 29.439z"/><path d="m135.848 266.278c-2.501-.923-4.87-1.736-6.961-2.454-7.173-2.464-11.912-4.092-15.116-7.406-1.769-1.831-1.358-4.337-1.1-5.329.815-3.128 3.477-5.65 7.12-6.748 11.326-3.412 21.655 4.821 21.899 5.018 3.265 2.715 8.117 2.285 10.853-.97 2.745-3.266 2.324-8.14-.943-10.886-.675-.568-16.76-13.835-36.267-7.957-8.845 2.664-15.431 9.261-17.616 17.646-1.909 7.324-.062 14.787 4.94 19.965 5.785 5.985 12.932 8.44 21.208 11.283 2.112.725 4.295 1.475 6.633 2.338 7.669 2.829 11.586 7.153 10.744 11.863-.855 4.789-6.522 9.742-14.525 9.742-7.822 0-15.365-3.17-20.177-8.48-2.866-3.163-7.754-3.401-10.913-.537-3.162 2.865-3.402 7.751-.537 10.913 7.692 8.489 19.516 13.557 31.628 13.557 14.665 0 27.45-9.663 29.737-22.478 1.741-9.743-2.76-22.496-20.607-29.08z"/></g></g></svg>