<svg viewBox="0 0 512 512" xmlns="http://www.w3.org/2000/svg"><g><circle cx="256" cy="267" fill="#ffe5c2" r="245"></circle><path d="M353 288.717c-3.859 0-7-3.14-7-7v-115c0-3.86 3.141-7 7-7h35.381V25.788C388.381 11.546 376.835 0 362.592 0H149.408c-14.243 0-25.788 11.546-25.788 25.788v62.28h62.885c3.859 0 7 3.14 7 7v81c0 3.86-3.141 7-7 7h-26.066a6.017 6.017 0 0 0-5.196 3l-7.506 13c-.361.626-1.009 1-1.731 1s-1.37-.374-1.731-1l-7.506-13a6.018 6.018 0 0 0-5.196-3h-7.951v47.068h35.303c3.859 0 7 3.14 7 7v99.932c0 3.86-3.141 7-7 7h-35.303V445.28c0 14.243 11.546 25.788 25.788 25.788h213.184c14.243 0 25.788-11.546 25.788-25.788V288.717zm-13.269-144.648h-29.093a6.017 6.017 0 0 0-5.196 3l-8.818 15.273c-.263.455-.733.727-1.259.727s-.996-.272-1.259-.728l-8.817-15.273a6.018 6.018 0 0 0-5.196-3H251c-3.859 0-7-3.14-7-7V48.337c0-3.86 3.141-7 7-7h88.731c3.859 0 7 3.14 7 7v88.731c0 3.86-3.14 7.001-7 7.001z" fill="#596ca9"></path><g fill="#465a94"><path d="M176 445.28h-17.996a8.597 8.597 0 0 1-8.596-8.596v-92.615H123.62V445.28c0 14.243 11.546 25.788 25.788 25.788h52.381C187.546 471.069 176 459.523 176 445.28zM146.004 200.069c-.723 0-1.37-.374-1.731-1l-7.506-13a6.018 6.018 0 0 0-5.196-3h-7.951v47.068h25.788v-33.965l-1.672 2.897a1.98 1.98 0 0 1-1.732 1zM123.619 25.788v62.28h25.788V34.385a8.597 8.597 0 0 1 8.596-8.596H176C176 11.546 187.546 0 201.788 0h-52.381c-14.242 0-25.788 11.546-25.788 25.788z" fill="#465a94"></path></g><path d="M353 288.717c-3.859 0-7-3.14-7-7v-115c0-3.86 3.141-7 7-7h9.592V34.385a8.597 8.597 0 0 0-8.596-8.596H320.49a8.597 8.597 0 0 0-7.907 5.223l-2.187 5.127a17.159 17.159 0 0 1-3.449 5.198h32.784c3.859 0 7 3.14 7 7v88.731c0 3.86-3.141 7-7 7h-29.093a6.017 6.017 0 0 0-5.196 3l-8.818 15.273c-.263.455-.733.727-1.259.727s-.996-.272-1.259-.728l-8.817-15.273a6.018 6.018 0 0 0-5.196-3H251c-3.859 0-7-3.14-7-7v-88.73c0-.606.085-1.19.231-1.751h-26.813a17.193 17.193 0 0 1-15.814-10.447l-2.187-5.127a8.595 8.595 0 0 0-7.907-5.223h-33.506a8.597 8.597 0 0 0-8.596 8.596v53.684h37.096c3.859 0 7 3.14 7 7v81c0 3.86-3.141 7-7 7h-26.066a6.017 6.017 0 0 0-5.196 3l-5.833 10.103v33.965h9.515c3.859 0 7 3.14 7 7v99.932c0 3.86-3.141 7-7 7h-9.515v92.615a8.596 8.596 0 0 0 8.596 8.596h195.992a8.597 8.597 0 0 0 8.596-8.596V288.717z" fill="#ffffff"></path><g fill="#f5f8f9"><path d="M180.816 436.684V183.069h-20.378a6.017 6.017 0 0 0-5.196 3l-5.833 10.103v33.965h9.515c3.859 0 7 3.14 7 7v99.932c0 3.86-3.141 7-7 7h-9.515v92.615a8.596 8.596 0 0 0 8.596 8.596h31.408a8.595 8.595 0 0 1-8.597-8.596zM180.816 88.069V34.385a8.597 8.597 0 0 1 8.596-8.596h-31.408a8.597 8.597 0 0 0-8.596 8.596v53.684z" fill="#f5f8f9"></path></g><path d="M186.504 87.069h-81a8 8 0 0 0-8 8v81a8 8 0 0 0 8 8h26.066a5 5 0 0 1 4.33 2.5l7.505 13c1.155 2 4.042 2 5.196 0l7.505-13a5 5 0 0 1 4.33-2.5h26.066a8 8 0 0 0 8-8v-81c.002-4.419-3.58-8-7.998-8z" fill="#fd4755"></path><path d="M118 176.069v-81a8 8 0 0 1 8-8h-20.496a8 8 0 0 0-8 8v81a8 8 0 0 0 8 8H126a8 8 0 0 1-8-8z" fill="#fb2b3a"></path><circle cx="289.158" cy="27.387" fill="#9faced" r="7.5"></circle><path d="M263.263 34.887h-40.421c-4.143 0-7.5-3.358-7.5-7.5s3.357-7.5 7.5-7.5h40.421c4.143 0 7.5 3.358 7.5 7.5s-3.357 7.5-7.5 7.5z" fill="#9faced"></path><path d="M298.046 411.069h-84.091c-18.2 0-32.955-14.754-32.955-32.954 0-18.2 14.754-32.954 32.955-32.954h84.091c18.2 0 32.954 14.754 32.954 32.954 0 18.199-14.754 32.954-32.954 32.954z" fill="#26a6fe"></path><path d="M222 378.114c0-18.2 14.754-32.955 32.955-32.955h-41c-18.2 0-32.955 14.754-32.955 32.955 0 18.2 14.754 32.955 32.955 32.955h41c-18.201 0-32.955-14.755-32.955-32.955z" fill="#0593fc"></path><path d="M295.772 385.614h-79.545c-4.143 0-7.5-3.358-7.5-7.5s3.357-7.5 7.5-7.5h79.545c4.143 0 7.5 3.358 7.5 7.5s-3.357 7.5-7.5 7.5z" fill="#ffffff"></path><path d="M339.731 40.337H251a8 8 0 0 0-8 8v88.731a8 8 0 0 0 8 8h29.093a5 5 0 0 1 4.33 2.5l8.818 15.273c.944 1.636 3.305 1.636 4.25 0l8.818-15.273a5 5 0 0 1 4.33-2.5h29.093a8 8 0 0 0 8-8V48.337a8.001 8.001 0 0 0-8.001-8z" fill="#fed402"></path><path d="M269.269 137.069V48.337a8 8 0 0 1 8-8H251a8 8 0 0 0-8 8v88.731a8 8 0 0 0 8 8h26.269a7.998 7.998 0 0 1-8-7.999z" fill="#fac600"></path><path d="m298.923 63.274 7.518 15.233a3.356 3.356 0 0 0 2.525 1.835l16.81 2.443c2.751.4 3.849 3.78 1.859 5.721l-12.164 11.857a3.358 3.358 0 0 0-.965 2.969l2.872 16.742c.47 2.74-2.406 4.829-4.866 3.536l-15.036-7.905a3.351 3.351 0 0 0-3.121 0l-15.036 7.905c-2.461 1.294-5.336-.796-4.866-3.536l2.872-16.742a3.353 3.353 0 0 0-.965-2.969l-12.164-11.857c-1.991-1.94-.892-5.321 1.859-5.721l16.81-2.443a3.354 3.354 0 0 0 2.525-1.835l7.518-15.233c1.23-2.493 4.785-2.493 6.015 0z" fill="#ffffff"></path><path d="m298.923 63.274 7.518 15.233a3.356 3.356 0 0 0 2.525 1.835l16.81 2.443c2.751.4 3.849 3.78 1.859 5.721l-12.164 11.857a3.358 3.358 0 0 0-.965 2.969l2.872 16.742c.47 2.74-2.406 4.829-4.866 3.536l-15.036-7.905a3.351 3.351 0 0 0-3.121 0l-15.036 7.905c-2.461 1.294-5.336-.796-4.866-3.536l2.872-16.742a3.353 3.353 0 0 0-.965-2.969l-12.164-11.857c-1.991-1.94-.892-5.321 1.859-5.721l16.81-2.443a3.354 3.354 0 0 0 2.525-1.835l7.518-15.233c1.23-2.493 4.785-2.493 6.015 0z" fill="#ffffff"></path><path d="m289.274 116.738 2.872-16.742a3.353 3.353 0 0 0-.965-2.969L279.017 85.17c-1.229-1.198-1.278-2.942-.491-4.198l-12.472 1.812c-2.751.4-3.849 3.78-1.859 5.721l12.164 11.857a3.358 3.358 0 0 1 .965 2.969l-2.872 16.742c-.47 2.74 2.406 4.829 4.866 3.536l10.063-5.29a3.331 3.331 0 0 1-.107-1.581z" fill="#f5f8f9"></path><path d="M319 206.069H193a8 8 0 0 0-8 8v81a8 8 0 0 0 8 8h42.21a5 5 0 0 1 4.33 2.5l13.862 24.01c1.155 2 4.041 2 5.196 0l13.862-24.01a5 5 0 0 1 4.33-2.5H319a8 8 0 0 0 8-8v-81a8 8 0 0 0-8-8z" fill="#97d729"></path><path d="M205 295.069v-81a8 8 0 0 1 8-8h-20a8 8 0 0 0-8 8v81a8 8 0 0 0 8 8h20a8 8 0 0 1-8-8z" fill="#8bc727"></path><path d="M276.252 217.51c-5.437 4.704-12.515 7.559-20.252 7.559s-14.815-2.855-20.252-7.559c-14.172 5.379-24.248 19.077-24.248 35.135v17.424a5 5 0 0 0 5 5h79a5 5 0 0 0 5-5v-17.424c0-16.058-10.077-29.756-24.248-35.135z" fill="#26a6fe"></path><path d="M245.997 223.403a30.985 30.985 0 0 1-10.248-5.894c-14.172 5.379-24.248 19.077-24.248 35.135v17.424a5 5 0 0 0 5 5H237a5 5 0 0 1-5-5v-17.424c0-11.819 5.463-22.355 13.997-29.241z" fill="#0593fc"></path><circle cx="256" cy="194.069" fill="#0593fc" r="32"></circle><path d="M248 194.069c0-13.428 8.275-24.917 20-29.665a31.896 31.896 0 0 0-12-2.335c-17.673 0-32 14.327-32 32s14.327 32 32 32c4.245 0 8.293-.834 12-2.335-11.725-4.748-20-16.237-20-29.665z" fill="#0182fc"></path><path d="M158.923 345.069H58a8 8 0 0 1-8-8v-99.932a8 8 0 0 1 8-8h100.923a8 8 0 0 1 8 8v99.932a8 8 0 0 1-8 8z" fill="#fd8087"></path><path d="M81.077 337.069v-99.932a8 8 0 0 1 8-8H58a8 8 0 0 0-8 8v99.932a8 8 0 0 0 8 8h31.077a8 8 0 0 1-8-8z" fill="#fe646f"></path><path d="M130.21 267.34H86.714c-4.143 0-7.5-3.358-7.5-7.5s3.357-7.5 7.5-7.5h43.496c4.143 0 7.5 3.358 7.5 7.5s-3.357 7.5-7.5 7.5zM139.591 293.352H77.332c-4.143 0-7.5-3.358-7.5-7.5s3.357-7.5 7.5-7.5h62.259a7.5 7.5 0 0 1 0 15zM139.591 319.365H77.332c-4.143 0-7.5-3.358-7.5-7.5s3.357-7.5 7.5-7.5h62.259a7.5 7.5 0 0 1 0 15zM146.004 162.689c-.55 0-1.078-.218-1.467-.608l-26.352-26.352c-3.019-3.018-4.681-7.031-4.681-11.3s1.663-8.282 4.681-11.3a15.872 15.872 0 0 1 11.3-4.681c4.268 0 8.282 1.663 11.3 4.681l5.219 5.218 5.219-5.219c3.018-3.018 7.031-4.681 11.3-4.681s8.282 1.663 11.301 4.681a15.876 15.876 0 0 1 4.681 11.3c0 4.268-1.663 8.282-4.681 11.3l-26.352 26.352c-.39.391-.918.609-1.468.609z" fill="#ffffff"></path><path d="M133.644 128.104a15.876 15.876 0 0 1-4.681-11.3c0-2.957.815-5.783 2.309-8.249a15.876 15.876 0 0 0-13.087 4.574c-3.018 3.018-4.681 7.031-4.681 11.3s1.663 8.282 4.681 11.3l26.352 26.352a2.076 2.076 0 0 0 2.934 0l10.076-10.076z" fill="#f5f8f9"></path><path d="M468 289.717H353a8 8 0 0 1-8-8v-115a8 8 0 0 1 8-8h115a8 8 0 0 1 8 8v115a8 8 0 0 1-8 8z" fill="#26a6fe"></path><path d="M381 281.717v-115a8 8 0 0 1 8-8h-36a8 8 0 0 0-8 8v115a8 8 0 0 0 8 8h36a8 8 0 0 1-8-8z" fill="#0593fc"></path><path d="m389.224 264.337 15.783-22.076-.109-1.106-14.859-20.785a2.045 2.045 0 0 0-3.327 0l-29.644 41.465c-.967 1.353 0 3.234 1.664 3.234h29.069l1.805-.732z" fill="#d8ecfe"></path><path d="m425.359 212.533-37.558 52.535h74.467c1.664 0 2.631-1.881 1.664-3.234l-35.246-49.301a2.045 2.045 0 0 0-3.327 0z" fill="#ffffff"></path><path d="M428.686 212.533a2.045 2.045 0 0 0-3.327 0l-37.558 52.535h20.683l28.88-40.396z" fill="#f5f8f9"></path><circle cx="377.399" cy="190.432" fill="#ffffff" r="14.637"></circle><path d="M373 190.432c0-6.28 3.963-11.621 9.518-13.698a14.562 14.562 0 0 0-5.119-.939c-8.084 0-14.637 6.553-14.637 14.637s6.553 14.637 14.637 14.637c1.804 0 3.524-.342 5.119-.939-5.555-2.078-9.518-7.418-9.518-13.698z" fill="#f5f8f9"></path></g></svg>