<svg viewBox="0 0 511.999 511.999" xmlns="http://www.w3.org/2000/svg"><g><path d="M116.781 400.391a7.713 7.713 0 0 1-5.58-13.115l57.809-58.92a7.714 7.714 0 0 1 11.012 10.804l-57.809 58.92a7.691 7.691 0 0 1-5.432 2.311z" fill="#63a1c6"></path><circle cx="308.54" cy="197.151" fill="#ef4a50" r="196.18"></circle><path d="M445.938 57.12C400.186 12.231 338.032-5.683 279.183 3.178c40.739 5.343 80.145 23.474 111.733 54.465 77.339 75.881 78.521 200.091 2.64 277.43-30.992 31.587-70.046 50.464-110.676 56.582 59.007 7.74 120.808-11.354 165.698-57.106 75.881-77.338 74.699-201.548-2.64-277.429z" fill="#d64355"></path><circle cx="308.54" cy="197.151" fill="#d1ede9" r="164.44"></circle><path d="M423.708 79.777c-39.537-38.791-93.686-53.554-144.347-44.464 32.51 5.197 63.779 20.177 89.068 44.99 64.826 63.604 65.817 167.717 2.213 232.543-24.813 25.29-55.791 40.863-88.196 46.677 50.825 8.124 104.684-7.667 143.475-47.203 63.604-64.826 62.613-168.939-2.213-232.543z" fill="#c3ddd9"></path><path d="m20.824 506.746-16.34-16.032c-5.899-5.788-5.989-15.261-.201-21.16l103.816-105.811c5.787-5.899 15.261-5.989 21.16-.201l16.34 16.032c5.899 5.788 5.989 15.261.201 21.16L41.984 506.545c-5.788 5.899-15.261 5.989-21.16.201z" fill="#dda064"></path><path d="M82.421 387.542h52.815v26.316H82.421z" fill="#fbd65f" transform="rotate(44.453 108.833 400.714)"></path><path d="M16.875 454.335H69.69v26.316H16.875z" fill="#fbd65f" transform="rotate(44.453 43.284 467.509)"></path><path d="M496.454 300.472a7.77 7.77 0 0 0-5.224 9.666c3.529 11.833 5.289 24.156 5.23 36.629a7.77 7.77 0 0 0 7.733 7.806h.037a7.77 7.77 0 0 0 7.768-7.733c.066-14.002-1.912-27.845-5.878-41.142a7.768 7.768 0 0 0-9.666-5.226zM503.595 362.81l-20.337-.804a165.7 165.7 0 0 0-1.36-21.163 7.77 7.77 0 1 0-15.41 1.993 150.177 150.177 0 0 1 1.23 19.888 14.66 14.66 0 0 0 14.128 14.777l21.135.836a7.77 7.77 0 0 0 .614-15.527zM464.843 443.048l-8.057-3.168a11.707 11.707 0 0 0-13.848 4.109c-4.855 6.815-12.336 16.647-15.731 20.418a149.426 149.426 0 0 1-2.958 3.191 7.77 7.77 0 0 0 11.242 10.727 167.694 167.694 0 0 0 3.263-3.52c3.803-4.226 10.544-13.112 15.098-19.383l5.302 2.086a7.767 7.767 0 0 0 10.074-4.386 7.768 7.768 0 0 0-4.385-10.074z" fill="#4d4d4d"></path><path d="m499.21 389.286-40.49-10.279a1.695 1.695 0 0 1-1.266-1.846c.491-3.929.885-7.736 1.173-11.314a7.769 7.769 0 0 0-7.122-8.366c-4.266-.348-8.023 2.844-8.367 7.122-.269 3.351-.64 6.929-1.103 10.632-1.074 8.602 4.455 16.699 12.861 18.833l40.491 10.279a7.771 7.771 0 0 0 1.917.241 7.77 7.77 0 0 0 1.906-15.302zM484.792 418.704l-29.519-10.023c-10.158-3.449-21.33 1.198-25.988 10.809-5.246 10.822-11.806 20.642-19.498 29.186-12.1 13.44-27.117 24.099-44.635 31.68a7.771 7.771 0 0 0 3.089 14.901 7.742 7.742 0 0 0 3.081-.641c19.581-8.473 36.408-20.432 50.012-35.543 8.67-9.631 16.049-20.667 21.933-32.806 1.246-2.572 4.26-3.804 7.01-2.873l29.519 10.023a7.766 7.766 0 0 0 9.854-4.859 7.768 7.768 0 0 0-4.858-9.854z" fill="#4d4d4d"></path><path d="M426.778 389.134a7.768 7.768 0 0 0-5.459-9.535c-4.139-1.121-8.41 1.319-9.535 5.459-15.288 56.225-63.659 75.51-101.545 81.788a7.77 7.77 0 0 0 2.541 15.331c76.77-12.724 104.366-57.621 113.998-93.043z" fill="#4d4d4d"></path><path d="M378.867 416.372a84.412 84.412 0 0 0 4.786-5.747 7.77 7.77 0 0 0-1.477-10.888 7.77 7.77 0 0 0-10.888 1.478 69.178 69.178 0 0 1-3.909 4.694c-13.282 14.586-44.562 31.748-92.517 36.166a7.77 7.77 0 0 0 1.425 15.474c43.824-4.038 83.131-19.816 102.58-41.177zM313.332 413.598a7.769 7.769 0 0 0-9.677-5.204c-13.852 4.163-29.062 6.378-45.208 6.585a7.77 7.77 0 0 0 .097 15.537l.101-.001c17.595-.224 34.243-2.66 49.482-7.24a7.768 7.768 0 0 0 5.205-9.677zM181.024 204.345a7.772 7.772 0 0 0 7.375-5.331c16.403-49.594 58.412-86.55 109.632-96.443a7.77 7.77 0 0 0-2.947-15.258c-56.737 10.96-103.27 51.891-121.437 106.82a7.77 7.77 0 0 0 7.377 10.212zM419.764 115.032c-25.308-18.449-55.237-28.978-86.55-30.448-4.292-.163-7.924 3.112-8.125 7.397a7.77 7.77 0 0 0 7.396 8.125c28.267 1.326 55.282 10.829 78.125 27.482a7.733 7.733 0 0 0 4.57 1.492 7.768 7.768 0 0 0 4.584-14.048z" fill="#4d4d4d"></path><path d="M388.418 131.584c-18.709-11.173-40.219-17.133-62.207-17.237l-.597-.001c-35.041 0-68.969 14.494-93.165 39.823a7.77 7.77 0 0 0 .251 10.984 7.768 7.768 0 0 0 10.985-.251c21.711-22.729 51.018-35.149 82.452-35.017 19.209.091 37.99 5.291 54.314 15.039 15.827 9.452 28.668 22.715 37.133 38.354 5.837 10.784 10.465 22.338 13.756 34.343a7.772 7.772 0 0 0 9.547 5.439 7.77 7.77 0 0 0 5.438-9.548c-3.604-13.145-8.676-25.806-15.077-37.631-9.794-18.096-24.604-33.415-42.83-44.297zM215.191 218.853c.677-3.18 1.253-5.618 1.706-7.231a110.89 110.89 0 0 1 7.198-18.725 7.768 7.768 0 0 0-3.537-10.402 7.767 7.767 0 0 0-10.402 3.538 126.545 126.545 0 0 0-8.214 21.372c-.546 1.947-1.202 4.71-1.948 8.211-.968 4.542-4.685 7.966-9.251 8.521-1.859.226-3.831.427-5.862.599a7.77 7.77 0 1 0 1.313 15.484 179.55 179.55 0 0 0 6.421-.658c11.153-1.353 20.226-9.676 22.576-20.709z" fill="#4d4d4d"></path><path d="M395.635 174.014c-18.636-18.539-43.343-28.817-69.568-28.94l-.465-.001a99.375 99.375 0 0 0-63.984 23.38c-17.782 14.99-29.801 35.796-33.843 58.584a85.278 85.278 0 0 0-1.031 8.085c-.496 6.208-4.498 11.423-10.196 13.286-5.776 1.888-12.781 3.382-20.82 4.442a7.769 7.769 0 1 0 2.031 15.405c8.985-1.185 16.931-2.893 23.615-5.077 11.675-3.816 19.863-14.343 20.858-26.82.179-2.243.462-4.465.842-6.606 3.408-19.216 13.551-36.766 28.558-49.417a83.87 83.87 0 0 1 54.362-19.721c45.5.213 82.92 37.391 83.415 82.877.003.3.024.602.062.9.775 6.06.517 15.583-.745 27.54a7.77 7.77 0 0 0 15.453 1.631c1.377-13.051 1.633-23.369.762-30.684-.398-26.009-10.795-50.45-29.306-68.864z" fill="#4d4d4d"></path><path d="M271.232 246.222c-.227-4.311-.048-8.033.545-11.377 4.641-26.163 27.249-45.084 53.818-45.084l.263.001c11.454.054 22.411 3.626 31.685 10.329a7.77 7.77 0 0 0 9.102-12.593c-11.918-8.615-25.997-13.205-40.714-13.274l-.337-.001c-34.118 0-63.155 24.305-69.116 57.909-.802 4.522-1.051 9.397-.762 14.904.141 2.69-.321 8.075-4.996 13.908-6.51 8.12-19.136 14.444-36.515 18.287a7.77 7.77 0 1 0 3.356 15.172c51.546-11.4 54.112-39.76 53.671-48.181zM391.649 220.627a7.769 7.769 0 1 0-14.614 5.28 54.333 54.333 0 0 1 3.228 18.775c-.002.297.016.609.049.905.033.298 3.143 30.163-10.49 62.043a7.77 7.77 0 0 0 4.089 10.198 7.726 7.726 0 0 0 3.051.628 7.771 7.771 0 0 0 7.147-4.716c14.495-33.896 12.123-65.01 11.694-69.417a69.82 69.82 0 0 0-4.154-23.696z" fill="#4d4d4d"></path><path d="M355.871 214.437c-8.021-8.096-18.7-12.584-30.071-12.638-20.824-.079-38.543 14.687-42.172 35.15-.431 2.428-.555 5.255-.377 8.643.385 7.336-.853 21.696-13.471 35.459-7.633 8.324-17.677 14.748-30.709 19.639a7.769 7.769 0 0 0-4.543 10.004 7.768 7.768 0 0 0 10.004 4.543c15.16-5.69 27.508-13.659 36.701-23.686 16.451-17.943 18.048-37.007 17.535-46.773-.113-2.161-.06-3.882.159-5.115 2.298-12.957 13.502-22.326 26.669-22.326h.131c7.22.033 14.005 2.887 19.105 8.035s7.889 11.959 7.855 19.18a8.12 8.12 0 0 0 .025.662c.035.438 3.216 44.103-24.275 74.293-.276.303-.557.606-.844.907a7.769 7.769 0 0 0 .283 10.983 7.742 7.742 0 0 0 5.349 2.137c2.055 0 4.107-.81 5.634-2.419.365-.384.723-.77 1.07-1.151 30.943-33.98 28.629-80.79 28.295-85.655-.026-11.253-4.406-21.85-12.353-29.872z" fill="#4d4d4d"></path><path d="M332.577 248.953a7.77 7.77 0 0 0-13.211-6.081c-2.376 2.349-2.343 4.981-2.32 6.722.263 20.477-5.141 37.206-15.217 47.104-7.936 7.797-17.09 14.576-27.208 20.15a7.77 7.77 0 0 0 7.498 13.61c11.358-6.259 21.654-13.887 30.599-22.675 13.128-12.897 20.183-33.633 19.865-58.388l-.006-.442z" fill="#4d4d4d"></path></g></svg>