<svg viewBox="0 0 512 512" xmlns="http://www.w3.org/2000/svg"><g><path d="M136.14 429.904c-10.947-30.786-5.534-65.916 13.964-92.093 17.742-23.819 45.65-39.088 75.062-42.344 19.574-2.166 39.678.885 57.722 8.778-12.063-31.528-7.416-67.235 10.711-95.495 8.271-12.895 19.255-21.659 31.379-30.589 13.042-9.606 30.107-15.197 45.998-17.398 31.187-4.32 63.777 3.837 88.934 22.821 25.528 19.264 41.401 48.929 44.543 80.653 3.159 31.898-6.193 63.14-22.804 90.225a196.276 196.276 0 0 1-6.548 9.975s-27.048 31.649-37.474 40.753c-98.255 85.793-235.699 115.135-365.422 104.84-5.148-1.03-9.266-2.059-13.384-5.148-3.089-3.089-6.177-8.236-8.236-12.355-1.03-2.059-2.059-4.118-4.118-7.207-18.532-27.798-26.768-56.625-32.946-88.541-4.118-16.473-5.148-32.945-6.177-49.418-1.03-19.561 0-38.093 2.059-57.655 3.089-19.561 6.387-37.793 10.295-56.625 5.663-27.283 17.301-56.26 17.301-56.26 7.409-23.015 19.763-44.635 26.97-67.285-1.03-15.443-1.03-31.916 5.148-47.359 2.059-5.148 3.089-10.295 6.177-15.443l3.089-3.089c13.384-23.68 38.093-37.064 63.832-41.182C159.717.404 176.19-.626 192.663.404c9.266 1.03 17.502 6.177 23.68 13.384 11.325 15.443 14.414 32.946 19.561 50.448 1.03 4.118 1.03 8.236-1.03 11.325-1.03 2.059-2.059 5.148-3.089 7.207-9.266 13.384-25.739 16.473-39.123 23.68-11.325 5.148-23.68-2.059-27.798-13.384l-3.089-3.089-3.478.166s-4.912 16.786-40.912 31.158l.754 5.781c52.584 112.813 28.369 217.373 28.369 217.373" fill="#f9cfbf"></path><path d="M136.036 425.607s3.089-67.95 11.325-85.452c11.325-60.743 3.864-142.092-29.223-213.075l-.754-5.781c.12-.438-25.619 2.651-37.064 0l.754 5.781c45.696 85.411 53.866 299.998 54.962 298.527zM225.166 295.467c-2.06.228-4.111.521-6.153.866 9.216 1.525 18.247 4.166 26.811 7.913a100.31 100.31 0 0 1-3.048-9.323 112.47 112.47 0 0 0-17.61.544zM179.277 13.788c11.325 15.443 14.414 32.946 19.561 50.448 1.03 4.118 1.03 8.236-1.03 11.325-1.03 2.059-2.059 5.148-3.089 7.207-6.299 9.098-15.927 13.438-25.652 17.549 5.724 6.792 14.956 10.056 23.593 6.131 13.384-7.207 29.857-10.295 39.123-23.68 1.03-2.059 2.059-5.148 3.089-7.207 2.059-3.089 2.059-7.207 1.03-11.325-5.148-17.502-8.236-35.005-19.561-50.448-6.177-7.207-14.414-12.355-23.68-13.384-11.283-.705-22.573-.429-34.187.467 8.091 1.675 15.274 6.466 20.803 12.917zM504.452 264.237c-3.142-31.724-19.014-61.389-44.543-80.653-25.157-18.984-57.747-27.141-88.934-22.821-.656.091-1.316.197-1.976.299 19.417 2.99 38.09 10.632 53.846 22.522 25.528 19.264 41.401 48.929 44.543 80.653 3.159 31.898-6.193 63.14-22.804 90.225a196.276 196.276 0 0 1-6.548 9.975s-27.048 31.649-37.474 40.753c-81.21 70.91-189.193 103.253-297.459 106.529 120.318 3.611 244.039-27.52 334.523-106.529 10.426-9.103 37.474-40.753 37.474-40.753a196.276 196.276 0 0 0 6.548-9.975c16.611-27.085 25.963-58.326 22.804-90.225z" fill="#f6b99c"></path><path d="M166.923.404c9.266 1.03 17.502 6.177 23.68 13.384 11.325 15.443 14.414 32.946 19.561 50.448 1.03 4.118 1.03 8.236-1.03 11.325-1.03 2.059-2.059 5.148-3.089 7.207-2.078 3.002-4.519 5.486-7.207 7.615-7.656 6.065-17.312 9.247-26.281 13.305 5.612 4.38 13.057 5.962 20.104 2.759 13.384-7.207 29.857-10.295 39.123-23.68 1.03-2.059 2.059-5.148 3.089-7.207 2.059-3.089 2.059-7.207 1.03-11.325-5.148-17.502-8.236-35.005-19.561-50.448-6.177-7.207-14.414-12.355-23.68-13.384-8.773-.548-17.551-.499-26.479-.035.246.016.493.021.74.036zM282.232 302.061s-81.632-31.117-134.871 38.093c-10.295 13.384-24.709 49.418-11.325 90.6 0 0 2.429-57.75 53.536-97.807 38.094-29.856 92.66-30.886 92.66-30.886z" fill="#f6b99c"></path><path d="M186.484 61.147s-12.355-11.325-24.709-2.059c-12.355 9.266-12.355 19.561-3.089 31.916s17.502 17.502 23.68 17.502c6.177 0 18.28-2.385 28.827-10.295 8.236-6.177-3.089-16.473-3.089-16.473s-21.066 21.336-35.005-5.148c-10.295-19.561 13.385-15.443 13.385-15.443z" fill="#f6b99c"></path></g></svg>