<svg viewBox="0 0 108 113.43" xmlns="http://www.w3.org/2000/svg"><g><path d="M44 36.21a1 1 0 0 1-1-1v-9a1 1 0 1 1 2 0v9a1 1 0 0 1-1 1zM52 36.21a1 1 0 0 1-1-1v-8a1 1 0 1 1 2 0v8a1 1 0 0 1-1 1zM52 24.21a1 1 0 0 1-1-1v-6a1 1 0 1 1 2 0v6a1 1 0 0 1-1 1zM60 36.21a1 1 0 0 1-1-1v-11a1 1 0 1 1 2 0v11a1 1 0 0 1-1 1zM36 36.21a1 1 0 0 1-1-1v-3c0-1.103-.898-2-2-2h-6c-2.206 0-4-1.794-4-4s1.794-4 4-4h2c1.102 0 2-.897 2-2v-4a1 1 0 1 1 2 0v4c0 2.206-1.794 4-4 4h-2c-1.103 0-2 .897-2 2s.897 2 2 2h6c2.206 0 4 1.794 4 4v3a1 1 0 0 1-1 1zM69 36.21a1 1 0 0 1-1-1v-8.5c0-2.481 2.019-4.5 4.5-4.5H74a1 1 0 1 1 0 2h-1.5a2.503 2.503 0 0 0-2.5 2.5v8.5a1 1 0 0 1-1 1zM79.5 24.21H78a1 1 0 1 1 0-2h1.5c.669 0 1.293-.26 1.757-.731.483-.476.743-1.1.743-1.769 0-1.378-1.121-2.5-2.5-2.5h-2a4.505 4.505 0 0 1-4.5-4.5v-2.5a1 1 0 1 1 2 0v2.5c0 1.378 1.121 2.5 2.5 2.5h2c2.481 0 4.5 2.019 4.5 4.5a4.43 4.43 0 0 1-1.329 3.183A4.422 4.422 0 0 1 79.5 24.21zM31 72.21H20a1 1 0 1 1 0-2h11a1 1 0 1 1 0 2zM22 66.21H9a1 1 0 1 1 0-2h13a1 1 0 1 1 0 2zM31 66.21h-5a1 1 0 1 1 0-2h5a1 1 0 1 1 0 2zM31 59.21H16a1 1 0 1 1 0-2h15a1 1 0 1 1 0 2zM31 53.21h-7a1 1 0 1 1 0-2h7a1 1 0 1 1 0 2zM31 47.21H13a1 1 0 1 1 0-2h18a1 1 0 1 1 0 2zM10 37.21H8a1 1 0 1 1 0-2h2a1 1 0 1 1 0 2zM31 41.21h-7.5c-1.93 0-3.5-1.57-3.5-3.5v-4a1.502 1.502 0 0 0-2.562-1.063A1.51 1.51 0 0 0 17 33.71c0 .938-.363 1.817-1.023 2.477A3.52 3.52 0 0 1 13.5 37.21H13a1 1 0 1 1 0-2h.5c.398 0 .785-.159 1.061-.437.28-.278.439-.666.439-1.063 0-.938.363-1.817 1.023-2.477A3.504 3.504 0 0 1 22 33.71v4c0 .827.673 1.5 1.5 1.5H31a1 1 0 1 1 0 2zM33 95.21a1 1 0 0 1-1-1v-2.5c0-.827-.673-1.5-1.5-1.5-1.93 0-3.5-1.57-3.5-3.5s1.57-3.5 3.5-3.5h5c.827 0 1.5-.673 1.5-1.5v-2.5a1 1 0 1 1 2 0v2.5c0 1.93-1.57 3.5-3.5 3.5h-5c-.827 0-1.5.673-1.5 1.5s.673 1.5 1.5 1.5c1.93 0 3.5 1.57 3.5 3.5v2.5a1 1 0 0 1-1 1zM43 85.21a1 1 0 0 1-1-1v-5a1 1 0 1 1 2 0v5a1 1 0 0 1-1 1zM43 98.21a1 1 0 0 1-1-1v-9a1 1 0 1 1 2 0v9a1 1 0 0 1-1 1zM50 89.21a1 1 0 0 1-1-1v-9a1 1 0 1 1 2 0v9a1 1 0 0 1-1 1zM63 86.21a1 1 0 0 1-1-1v-6a1 1 0 1 1 2 0v6a1 1 0 0 1-1 1zM56 98.21a1 1 0 0 1-1-1v-18a1 1 0 1 1 2 0v18a1 1 0 0 1-1 1zM75 101.21a1 1 0 0 1-1-1v-3c0-2.206 1.794-4 4-4 1.102 0 2-.897 2-2s-.898-2-2-2h-5c-2.206 0-4-1.794-4-4v-6a1 1 0 1 1 2 0v6c0 1.103.897 2 2 2h5c2.206 0 4 1.794 4 4s-1.794 4-4 4c-1.103 0-2 .897-2 2v3a1 1 0 0 1-1 1zM89 66.21H77a1 1 0 1 1 0-2h12a1 1 0 1 1 0 2zM101 58.21H88a1 1 0 1 1 0-2h13a1 1 0 1 1 0 2zM84 58.21h-7a1 1 0 1 1 0-2h7a1 1 0 1 1 0 2zM87 85.21c-2.206 0-4-1.794-4-4v-5c0-1.103-.898-2-2-2h-4a1 1 0 1 1 0-2h4c2.206 0 4 1.794 4 4v5c0 1.103.897 2 2 2 1.102 0 2-.897 2-2 0-2.206 1.794-4 4-4h3a1 1 0 1 1 0 2h-3c-1.103 0-2 .897-2 2 0 2.206-1.794 4-4 4zM85 50.21h-8a1 1 0 1 1 0-2h8a1 1 0 1 1 0 2zM79.5 42.21H77a1 1 0 1 1 0-2h2.5c1.379 0 2.5-1.122 2.5-2.5v-5c0-2.481 2.019-4.5 4.5-4.5s4.5 2.019 4.5 4.5c0 1.378 1.121 2.5 2.5 2.5H96a1 1 0 1 1 0 2h-2.5a4.505 4.505 0 0 1-4.5-4.5c0-1.378-1.121-2.5-2.5-2.5s-2.5 1.122-2.5 2.5v5c0 2.481-2.019 4.5-4.5 4.5z" fill="#003dba"></path><path d="M67 88.21c0 2.21-1.79 4-4 4a3.999 3.999 0 0 1-2.95-6.7c0-.01.01 0 .01 0 .72-.8 1.77-1.3 2.94-1.3 2.21 0 4 1.79 4 4zM60 100.21c0 2.21-1.79 4-4 4s-4-1.79-4-4c0-.2.01-.39.05-.58.12-.86.52-1.63 1.1-2.23A4.03 4.03 0 0 1 56 96.21c2.21 0 4 1.79 4 4zM79 103.21c0 2.21-1.79 4-4 4a3.999 3.999 0 0 1-2.95-6.7c0-.01.01 0 .01 0 .72-.8 1.77-1.3 2.94-1.3 2.21 0 4 1.79 4 4zM21 71.21c0 2.21-1.79 4-4 4a3.999 3.999 0 0 1-2.95-6.7c0-.01.01 0 .01 0 .72-.8 1.77-1.3 2.94-1.3 2.21 0 4 1.79 4 4zM103 78.21c0 2.21-1.79 4-4 4a3.999 3.999 0 0 1-2.95-6.7c0-.01.01 0 .01 0 .72-.8 1.77-1.3 2.94-1.3 2.21 0 4 1.79 4 4zM96 65.21c0 2.21-1.79 4-4 4s-4-1.79-4-4c0-.2.01-.39.05-.58.12-.86.52-1.63 1.1-2.23A4.03 4.03 0 0 1 92 61.21c2.21 0 4 1.79 4 4zM108 57.21c0 2.21-1.79 4-4 4s-4-1.79-4-4c0-.2.01-.39.05-.58.12-.86.52-1.63 1.1-2.23a4.03 4.03 0 0 1 2.85-1.19c2.21 0 4 1.79 4 4zM92 49.21c0 2.21-1.79 4-4 4s-4-1.79-4-4c0-.2.01-.39.05-.58.12-.86.52-1.63 1.1-2.23A4.03 4.03 0 0 1 88 45.21c2.21 0 4 1.79 4 4zM103 36.21c0 2.21-1.79 4-4 4s-4-1.79-4-4c0-.2.01-.39.05-.58.12-.86.52-1.63 1.1-2.23A4.03 4.03 0 0 1 99 32.21c2.21 0 4 1.79 4 4zM10 65.21c0 2.21-1.79 4-4 4a3.999 3.999 0 0 1-2.95-6.7c0-.01.01 0 .01 0 .72-.8 1.77-1.3 2.94-1.3 2.21 0 4 1.79 4 4zM17 58.21c0 2.21-1.79 4-4 4s-4-1.79-4-4c0-.2.01-.39.05-.58.12-.86.52-1.63 1.1-2.23A4.03 4.03 0 0 1 13 54.21c2.21 0 4 1.79 4 4zM8 36.21c0 2.21-1.79 4-4 4s-4-1.79-4-4c0-.2.01-.39.05-.58.12-.86.52-1.63 1.1-2.23A4.03 4.03 0 0 1 4 32.21c2.21 0 4 1.79 4 4zM36 13.21c0 2.21-1.79 4-4 4s-4-1.79-4-4c0-.2.01-.39.05-.58.12-.86.52-1.63 1.1-2.23A4.03 4.03 0 0 1 32 9.21c2.21 0 4 1.79 4 4zM48 23.21c0 2.21-1.79 4-4 4s-4-1.79-4-4c0-.2.01-.39.05-.58.12-.86.52-1.63 1.1-2.23A4.03 4.03 0 0 1 44 19.21c2.21 0 4 1.79 4 4zM56 14.21c0 2.21-1.79 4-4 4s-4-1.79-4-4c0-.2.01-.39.05-.58.12-.86.52-1.63 1.1-2.23A4.03 4.03 0 0 1 52 10.21c2.21 0 4 1.79 4 4zM64 21.21c0 2.21-1.79 4-4 4a3.999 3.999 0 0 1-2.95-6.7c0-.01.01 0 .01 0 .72-.8 1.77-1.3 2.94-1.3 2.21 0 4 1.79 4 4zM78 7.21c0 2.21-1.79 4-4 4s-4-1.79-4-4c0-.2.01-.39.05-.58.12-.86.52-1.63 1.1-2.23A4.03 4.03 0 0 1 74 3.21c2.21 0 4 1.79 4 4zM13 46.21c0 2.21-1.79 4-4 4s-4-1.79-4-4c0-.2.01-.39.05-.58.12-.86.52-1.63 1.1-2.23A4.03 4.03 0 0 1 9 42.21c2.21 0 4 1.79 4 4zM25 52.21c0 2.21-1.79 4-4 4s-4-1.79-4-4c0-.2.01-.39.05-.58.12-.86.52-1.63 1.1-2.23A4.03 4.03 0 0 1 21 48.21c2.21 0 4 1.79 4 4zM47 100.21c0 2.21-1.79 4-4 4s-4-1.79-4-4c0-.2.01-.39.05-.58.12-.86.52-1.63 1.1-2.23A4.03 4.03 0 0 1 43 96.21c2.21 0 4 1.79 4 4zM54 91.21c0 2.21-1.79 4-4 4s-4-1.79-4-4c0-.2.01-.39.05-.58.12-.86.52-1.63 1.1-2.23A4.03 4.03 0 0 1 50 87.21c2.21 0 4 1.79 4 4zM37 97.21c0 2.21-1.79 4-4 4s-4-1.79-4-4c0-.2.01-.39.05-.58.12-.86.52-1.63 1.1-2.23A4.03 4.03 0 0 1 33 93.21c2.21 0 4 1.79 4 4z" fill="#0cc1fe"></path><path d="M67 88.21c0 2.21-1.79 4-4 4a3.95 3.95 0 0 1-2.66-1.02 3.99 3.99 0 0 0 3.61-3.98c0-1.18-.51-2.25-1.33-2.98.13-.01.25-.02.38-.02 2.21 0 4 1.79 4 4zM60 100.21c0 2.21-1.79 4-4 4a3.95 3.95 0 0 1-2.66-1.02 3.99 3.99 0 0 0 3.61-3.98c0-1.18-.51-2.25-1.33-2.98.13-.01.25-.02.38-.02 2.21 0 4 1.79 4 4zM79 103.21c0 2.21-1.79 4-4 4a3.95 3.95 0 0 1-2.66-1.02 3.99 3.99 0 0 0 3.61-3.98c0-1.18-.51-2.25-1.33-2.98.13-.01.25-.02.38-.02 2.21 0 4 1.79 4 4zM21 71.21c0 2.21-1.79 4-4 4a3.95 3.95 0 0 1-2.66-1.02 3.99 3.99 0 0 0 3.61-3.98c0-1.18-.51-2.25-1.33-2.98.13-.01.25-.02.38-.02 2.21 0 4 1.79 4 4zM103 78.21c0 2.21-1.79 4-4 4a3.95 3.95 0 0 1-2.66-1.02 3.99 3.99 0 0 0 3.61-3.98c0-1.18-.51-2.25-1.33-2.98.13-.01.25-.02.38-.02 2.21 0 4 1.79 4 4zM96 65.21c0 2.21-1.79 4-4 4a3.95 3.95 0 0 1-2.66-1.02 3.99 3.99 0 0 0 3.61-3.98c0-1.18-.51-2.25-1.33-2.98.13-.01.25-.02.38-.02 2.21 0 4 1.79 4 4zM108 57.21c0 2.21-1.79 4-4 4a3.95 3.95 0 0 1-2.66-1.02 3.99 3.99 0 0 0 3.61-3.98c0-1.18-.51-2.25-1.33-2.98.13-.01.25-.02.38-.02 2.21 0 4 1.79 4 4zM92 49.21c0 2.21-1.79 4-4 4a3.95 3.95 0 0 1-2.66-1.02 3.99 3.99 0 0 0 3.61-3.98c0-1.18-.51-2.25-1.33-2.98.13-.01.25-.02.38-.02 2.21 0 4 1.79 4 4zM103 36.21c0 2.21-1.79 4-4 4a3.95 3.95 0 0 1-2.66-1.02 3.99 3.99 0 0 0 3.61-3.98c0-1.18-.51-2.25-1.33-2.98.13-.01.25-.02.38-.02 2.21 0 4 1.79 4 4zM10 65.21c0 2.21-1.79 4-4 4a3.95 3.95 0 0 1-2.66-1.02 3.99 3.99 0 0 0 3.61-3.98c0-1.18-.51-2.25-1.33-2.98.13-.01.25-.02.38-.02 2.21 0 4 1.79 4 4zM17 58.21c0 2.21-1.79 4-4 4a3.95 3.95 0 0 1-2.66-1.02 3.99 3.99 0 0 0 3.61-3.98c0-1.18-.51-2.25-1.33-2.98.13-.01.25-.02.38-.02 2.21 0 4 1.79 4 4zM8 36.21c0 2.21-1.79 4-4 4a3.95 3.95 0 0 1-2.66-1.02 3.99 3.99 0 0 0 3.61-3.98c0-1.18-.51-2.25-1.33-2.98.13-.01.25-.02.38-.02 2.21 0 4 1.79 4 4zM36 13.21c0 2.21-1.79 4-4 4a3.95 3.95 0 0 1-2.66-1.02 3.99 3.99 0 0 0 3.61-3.98c0-1.18-.51-2.25-1.33-2.98.13-.01.25-.02.38-.02 2.21 0 4 1.79 4 4zM48 23.21c0 2.21-1.79 4-4 4a3.95 3.95 0 0 1-2.66-1.02 3.99 3.99 0 0 0 3.61-3.98c0-1.18-.51-2.25-1.33-2.98.13-.01.25-.02.38-.02 2.21 0 4 1.79 4 4zM56 14.21c0 .91-.31 1.74-.82 2.42-.37.49-.85.89-1.41 1.16-.54.27-1.14.42-1.77.42a3.95 3.95 0 0 1-2.66-1.02 3.99 3.99 0 0 0 3.61-3.98c0-1.18-.51-2.25-1.33-2.98.13-.01.25-.02.38-.02 2.21 0 4 1.79 4 4zM64 21.21c0 2.21-1.79 4-4 4a3.95 3.95 0 0 1-2.66-1.02 3.99 3.99 0 0 0 3.61-3.98c0-1.18-.51-2.25-1.33-2.98.13-.01.25-.02.38-.02 2.21 0 4 1.79 4 4zM78 7.21c0 2.21-1.79 4-4 4a3.95 3.95 0 0 1-2.66-1.02 3.99 3.99 0 0 0 3.61-3.98c0-1.18-.51-2.25-1.33-2.98.13-.01.25-.02.38-.02 2.21 0 4 1.79 4 4zM13 46.21c0 2.21-1.79 4-4 4a3.95 3.95 0 0 1-2.66-1.02 3.99 3.99 0 0 0 3.61-3.98c0-1.18-.51-2.25-1.33-2.98.13-.01.25-.02.38-.02 2.21 0 4 1.79 4 4zM25 52.21c0 2.21-1.79 4-4 4a3.95 3.95 0 0 1-2.66-1.02 3.99 3.99 0 0 0 3.61-3.98c0-1.18-.51-2.25-1.33-2.98.13-.01.25-.02.38-.02 2.21 0 4 1.79 4 4zM47 100.21c0 2.21-1.79 4-4 4a3.95 3.95 0 0 1-2.66-1.02 3.99 3.99 0 0 0 3.61-3.98c0-1.18-.51-2.25-1.33-2.98.13-.01.25-.02.38-.02 2.21 0 4 1.79 4 4zM54 91.21c0 2.21-1.79 4-4 4a3.95 3.95 0 0 1-2.66-1.02 3.99 3.99 0 0 0 3.61-3.98c0-1.18-.51-2.25-1.33-2.98.13-.01.25-.02.38-.02 2.21 0 4 1.79 4 4zM37 97.21c0 1.01-.38 1.92-1 2.63v.01c-.73.83-1.8 1.36-3 1.36a3.95 3.95 0 0 1-2.66-1.02 3.99 3.99 0 0 0 3.61-3.98c0-1.18-.51-2.25-1.33-2.98.13-.01.25-.02.38-.02a4.001 4.001 0 0 1 4 4z" fill="#048ffe"></path><path d="M78 40.21v34c0 3.31-2.69 6-6 6H36c-.3 0-.59-.02-.88-.07A6 6 0 0 1 30 74.21v-34c0-3.31 2.69-6 6-6h36c.3 0 .59.02.88.07A6 6 0 0 1 78 40.21z" fill="#c5c9d2"></path><path d="M19.89 113.43a1 1 0 0 1-1-1v-3.11a1 1 0 1 1 2 0v3.11a1 1 0 0 1-1 1zM19.89 106.1a1 1 0 0 1-1-1V102a1 1 0 1 1 2 0v3.1a1 1 0 0 1-1 1zM17.78 108.21h-3.11a1 1 0 1 1 0-2h3.11a1 1 0 1 1 0 2zM25.1 108.21H22a1 1 0 1 1 0-2h3.1a1 1 0 1 1 0 2zM90.89 12.43a1 1 0 0 1-1-1V8.32a1 1 0 1 1 2 0v3.11a1 1 0 0 1-1 1zM90.89 5.1a1 1 0 0 1-1-1V1a1 1 0 1 1 2 0v3.1a1 1 0 0 1-1 1zM88.78 7.21h-3.11a1 1 0 1 1 0-2h3.11a1 1 0 1 1 0 2zM96.1 7.21H93a1 1 0 1 1 0-2h3.1a1 1 0 1 1 0 2zM71 42.28v29.86c0 .56-.45 1-1 1H38c-.55 0-1-.44-1-1V42.28c0-.56.45-1 1-1h32c.55 0 1 .44 1 1z" fill="#003dba"></path><path d="M66 47.21v20c0 .55-.45 1-1 1H43c-.55 0-1-.45-1-1v-20c0-.55.45-1 1-1h22c.55 0 1 .45 1 1z" fill="#feee00"></path><path d="M6 99.21a1.001 1.001 0 0 1-.687-1.727l8.23-7.77a1 1 0 1 1 1.373 1.455l-8.231 7.77A.993.993 0 0 1 6 99.21zM17.56 88.29a1.001 1.001 0 0 1-.687-1.727l6.44-6.08a1 1 0 1 1 1.373 1.455l-6.44 6.08a.997.997 0 0 1-.686.272zM103 106.21a.997.997 0 0 1-.707-.293l-8.78-8.78a.999.999 0 1 1 1.414-1.414l8.78 8.78a.999.999 0 0 1-.707 1.707zM91 94.21a.997.997 0 0 1-.707-.293l-3-3a.999.999 0 1 1 1.414-1.414l3 3A.999.999 0 0 1 91 94.21zM7.59 15.62c-.244 0-.488-.089-.682-.268l-2.59-2.41a1 1 0 1 1 1.363-1.464l2.59 2.41a1 1 0 0 1-.681 1.732zM19 26.21a.994.994 0 0 1-.681-.268l-8.809-8.19a1 1 0 0 1 1.361-1.465l8.81 8.19A1 1 0 0 1 19 26.21zM93.67 19.3a1 1 0 0 1-.656-1.756l9.33-8.09a1 1 0 1 1 1.31 1.511l-9.33 8.09a.993.993 0 0 1-.654.245zM88 24.21a1 1 0 0 1-.655-1.756l2.95-2.56a1 1 0 0 1 1.31 1.511l-2.95 2.56a.998.998 0 0 1-.655.245z" fill="#003dba"></path><path d="M66 47.21v20c0 .55-.45 1-1 1h-6c.55 0 1-.45 1-1v-20c0-.55-.45-1-1-1h6c.55 0 1 .45 1 1zM53 57.71v10.5h-3v-10.5a1.5 1.5 0 0 1 3 0zM53 46.21v5.5a1.5 1.5 0 0 1-3 0v-5.5zM58 57.71v10.5h-3v-10.5a1.5 1.5 0 0 1 3 0zM58 46.21v5.5a1.5 1.5 0 0 1-3 0v-5.5z" fill="#ffb403"></path><path d="M71 42.28v29.86c0 .56-.45 1-1 1h-2V48.21c0-3 0-4-3-4H51c-1.657 0-3-1-3-2v-.93h22c.55 0 1 .44 1 1z" fill="#022c68"></path><path d="M78 40.21V73.2l-.06-.001a4 4 0 0 1-3.94-4V41.21c0-2 0-3-3-3H58a3 3 0 0 1-3-3v-.93h17.88A6 6 0 0 1 78 40.21z" fill="#8c9096"></path><path d="M46 41.28v.93c0 1-1.343 2-3 2s-3-1-3-2v-.93z" fill="#022c68"></path><path d="M53 34.21v.93a3 3 0 1 1-6 0v-.93z" fill="#8c9096"></path><path d="M99 35.21c0 1.1-.9 2-2 2-.96 0-1.76-.68-1.95-1.58.12-.86.52-1.63 1.1-2.23.26-.12.55-.19.85-.19 1.1 0 2 .9 2 2z" fill="#a8f0ff"></path></g></svg>