<svg viewBox="0 0 512 512" xmlns="http://www.w3.org/2000/svg"><g><path d="m368.972 94.352-48.81-26.794c-8.968-4.928-20.284-3.314-27.518 3.921l-4.74 4.74-77.481-36.702a109.222 109.222 0 0 0-56.912-10.03l-.482.045c-52.476 4.925-93.914 46.608-98.532 99.111a109.246 109.246 0 0 0 10.088 56.289l36.838 77.768-4.724 4.724c-7.249 7.249-8.853 18.58-3.9 27.556l24.658 44.687c1.408 2.553 7.493.389 8.676-.264a7.726 7.726 0 0 0 3.033-10.497l-22.837-41.391a7.735 7.735 0 0 1 1.297-9.164l12.499-12.499 35.156 35.134c1.509 1.508 14.031-7.769 11.014-10.787l-35.243-35.274 29.08-29.08 34.532 34.532c1.509 1.508 13.944-7.909 10.927-10.928l-34.531-34.531 29.067-29.067 35.735 35.766c1.509 1.508 13.89-7.907 10.872-10.925l-35.68-35.768 29.068-29.068 34.531 34.531c1.509 1.508 13.944-7.909 10.927-10.928l-34.531-34.531 29.08-29.08 35.812 35.808c1.509 1.508 13.825-8.025 10.807-11.043L291.056 94.92l12.516-12.516c2.405-2.404 6.169-2.94 9.151-1.304l41.481 22.786c3.739 2.055 13.429-1.483 14.768-9.534zM222.024 62.11l-21.896 21.896-29.068-29.068 9.028-9.028a93.707 93.707 0 0 1 23.721 7.571zM78.551 178.315a93.723 93.723 0 0 1-7.504-23.363l9.097-9.097 29.068 29.068-21.896 21.896zM91.822 77.544l17.389 17.389L80.144 124l-7.944-7.944a93.449 93.449 0 0 1 19.622-38.512zm49.543-30.447 7.841 7.841-29.068 29.068-17.381-17.381a93.435 93.435 0 0 1 38.608-19.528zm-50.294 87.83 29.067-29.067 29.068 29.068-29.067 29.067zm39.994-39.994 29.068-29.068 29.068 29.068L160.133 124zm-16.402 154.526c-.001.001-.001.001 0 0l-1.637 1.637-18.686-39.449 25.799-25.799 29.067 29.067zm45.47-45.47-29.067-29.067 29.067-29.067 29.067 29.067zm39.994-39.994-29.067-29.067 29.068-29.068 29.067 29.067zm10.928-69.062 25.798-25.798 39.448 18.686L240.122 124z" fill="#e6d6d1"></path><path d="M111.412 343.626 357.924 97.114c6.024-6.024 15.791-6.024 21.815 0 6.024 6.024 6.024 15.791 0 21.815L133.228 365.441h-24.016z" fill="#e29a6c"></path><path d="m4.518 450.52 106.894-106.894 21.815 21.815L26.333 472.335c-6.024 6.024-15.791 6.024-21.815 0-6.024-6.024-6.024-15.791 0-21.815z" fill="#f6d190"></path><path d="M418.956 325.715a7.727 7.727 0 0 1-7.045-4.546 7.724 7.724 0 0 1 3.858-10.222l31.617-14.292a7.726 7.726 0 0 1 10.223 3.858 7.724 7.724 0 0 1-3.858 10.222l-31.617 14.292a7.697 7.697 0 0 1-3.178.688z" fill="#f4e5e0"></path><path d="M412.516 318.404a7.727 7.727 0 0 1-7.036-10.911l14.019-31.01a7.727 7.727 0 0 1 14.081 6.366l-14.019 31.01a7.729 7.729 0 0 1-7.045 4.545z" fill="#f4e5e0"></path><path d="M298.917 431.316c-6.023-6.023-6.023-15.789 0-21.812l98.881-98.881c6.023-6.023 15.789-6.023 21.812 0 6.023 6.023 6.023 15.789 0 21.812l-98.881 98.881c-6.023 6.024-15.789 6.024-21.812 0z" fill="#736572"></path><path d="M490.137 358.156c-32.096-22.581-76.726-19.521-105.426 9.178l-27.629 27.629 15.905 11.848c22.441 18.488 55.748 18.425 99.921-5.615.001 0 21.058-40.345 17.229-43.04z" fill="#cbb0f2"></path><path d="M510.495 384.055 486.5 408.05c-32.125 32.125-84.209 32.124-116.333 0l-13.083-13.083.656-.656c32.197 23.733 77.762 21.03 106.907-8.115l23.995-23.995a5.147 5.147 0 0 0 1.493-4.043 82.626 82.626 0 0 1 10.905 9.171l9.455 9.455a5.144 5.144 0 0 1 0 7.271z" fill="#b696ef"></path><path d="M334.841 461.12c-9.44-15.795-7.358-36.557 6.246-50.161l15.996-15.996 10.315 19.722c5.827 17.458 7.928 30.867-8.134 46.929 0 0-22.717 2.36-24.423-.494z" fill="#f2d1ff"></path><path d="m373.08 469.123-12.362 12.362a5.142 5.142 0 0 1-7.27 0l-12.362-12.362a41.09 41.09 0 0 1-6.243-8.006 5.117 5.117 0 0 0 4.021-1.486l12.362-12.362c14.052-14.052 15.807-35.752 5.267-51.712l.59-.59 15.989 15.989c16.063 16.063 16.071 42.105.008 58.167z" fill="#dfbdf0"></path><path d="M411.612 400.897c-2.75 0-5.336-1.07-7.281-3.015a10.232 10.232 0 0 1-3.016-7.282c0-2.752 1.072-5.338 3.019-7.283 1.941-1.942 4.527-3.013 7.278-3.013s5.337 1.07 7.281 3.015a10.229 10.229 0 0 1 3.016 7.281c0 2.749-1.07 5.335-3.014 7.28a10.227 10.227 0 0 1-7.283 3.017zm3.648-13.941h.01zM455.236 397.984a10.267 10.267 0 0 1-7.281-3.011l-.002-.002c-4.012-4.014-4.012-10.544 0-14.558 4.017-4.016 10.549-4.016 14.564-.002 4.013 4.016 4.013 10.546.002 14.56a10.27 10.27 0 0 1-7.283 3.013z" fill="#ffffff"></path><path d="M354.444 336.654s-33.826 21.814-34.578 20.998c-29.787-32.268-29.015-82.588 2.317-113.92l12.124-12.124 15.354-2.612c0 .001 36.907 75.534 4.783 107.658z" fill="#cbb0f2"></path><path d="m362.902 345.522-27.629 27.629-13.094-13.083a72.558 72.558 0 0 1-2.308-2.421l12.125-12.125c31.328-31.328 32.1-81.652 2.308-113.917l11.868-11.868a5.142 5.142 0 0 1 7.273 0l9.457 9.457c32.121 32.121 32.121 84.207 0 116.328z" fill="#b696ef"></path><path d="m248.749 376.786 12.36 12.36a41.003 41.003 0 0 0 13.606 9.035c30.29-3.03 45.104-40.482 45.104-40.482l-.544-.544c-16.062-16.062-42.104-16.062-58.165 0l-12.36 12.36a5.14 5.14 0 0 0-.001 7.271z" fill="#f2d1ff"></path><path d="m335.272 373.152-15.999 15.999c-12.043 12.043-29.69 15.051-44.535 9.045a41.037 41.037 0 0 0 13.629-9.045l31.451-31.451z" fill="#dfbdf0"></path><g fill="#fff"><path d="M339.633 328.917c-2.751 0-5.336-1.07-7.281-3.015-1.945-1.946-3.016-4.531-3.016-7.282s1.072-5.338 3.019-7.283a10.224 10.224 0 0 1 7.278-3.013c2.75 0 5.336 1.07 7.281 3.015a10.227 10.227 0 0 1 3.016 7.281c0 2.75-1.071 5.336-3.016 7.282a10.229 10.229 0 0 1-7.281 3.015zm3.647-13.94h.01zM349.812 292.564c-2.75 0-5.336-1.07-7.281-3.015l-.002-.002c-4.014-4.015-4.013-10.546.002-14.561 1.943-1.944 4.53-3.015 7.281-3.015s5.337 1.07 7.281 3.015c4.014 4.016 4.014 10.547.001 14.561a10.227 10.227 0 0 1-7.282 3.017z" fill="#ffffff"></path></g></g></svg>