<svg viewBox="0 0 512.001 512.001" xmlns="http://www.w3.org/2000/svg"><g><path d="M286 15.995H45c-24.901 0-45 20.099-45 45v90c0 24.899 20.099 45 45 45h16v45c0 6 3.6 11.4 9.3 13.799 1.8.901 3.9 1.201 5.7 1.201 3.9 0 7.8-1.5 10.499-4.501l55.801-55.499H196c1.199 0 2.401 0 3.6-.601l120-30c6.601-1.5 11.4-7.5 11.4-14.399v-90c0-24.901-20.099-45-45-45z" fill="#73bcff"></path><path d="M331 60.995v90c0 6.899-4.799 12.9-11.4 14.399l-120 30c-1.199.601-2.401.601-3.6.601h-30v-180h120c24.901 0 45 20.099 45 45z" fill="#3aaaff"></path><path d="M467 135.995H226c-24.901 0-45 20.099-45 45v90c0 6.899 4.799 12.9 11.4 14.399 2.699.901 120.899 30.601 123.6 30.601h62.999l45.601 54.6c3.9 4.799 10.499 6.599 16.5 4.499s9.901-7.8 9.901-14.099v-45h16c24.901 0 45-20.101 45-45v-90c-.001-24.901-20.1-45-45.001-45z" fill="#ff6c6c"></path><path d="M512 180.995v90c0 24.899-20.099 45-45 45h-16v45c0 6.299-3.9 11.999-9.901 14.099s-12.599.3-16.5-4.499l-45.601-54.6H346v-180h121c24.901 0 45 20.099 45 45z" fill="#ff4949"></path><path d="M286 255.995H45c-24.901 0-45 20.099-45 45v90c0 24.899 20.099 45 45 45h16v45c0 6 3.6 11.4 9.3 13.799 5.4 2.401 12.001 1.201 16.199-3.3l55.801-55.499H286c24.901 0 45-20.101 45-45v-90c0-24.901-20.099-45-45-45z" fill="#ffd400"></path><path d="M331 300.995v90c0 24.899-20.099 45-45 45H166v-180h120c24.901 0 45 20.099 45 45z" fill="#fdbf00"></path><circle cx="406" cy="226" fill="#384949" r="15"></circle><path d="M361 225.995c0 8.399-6.599 15-15 15s-15-6.601-15-15c0-8.401 6.599-15 15-15s15 6.599 15 15z" fill="#3e5959"></path><circle cx="286" cy="226" fill="#3e5959" r="15"></circle><circle cx="226" cy="90.995" fill="#384949" r="15"></circle><path d="M181 90.995c0 8.399-6.599 15-15 15s-15-6.601-15-15c0-8.401 6.599-15 15-15s15 6.599 15 15z" fill="#3e5959"></path><circle cx="106" cy="90.995" fill="#3e5959" r="15"></circle><circle cx="226" cy="346" fill="#384949" r="15"></circle><path d="M181 345.995c0 8.399-6.599 15-15 15s-15-6.601-15-15c0-8.401 6.599-15 15-15s15 6.599 15 15z" fill="#3e5959"></path><circle cx="106" cy="346" fill="#3e5959" r="15"></circle><path d="M181 345.995c0 8.399-6.599 15-15 15v-30c8.401 0 15 6.599 15 15zM166 105.995v-30c8.401 0 15 6.599 15 15 0 8.399-6.599 15-15 15zM361 225.995c0 8.399-6.599 15-15 15v-30c8.401 0 15 6.599 15 15z" fill="#384949"></path></g></svg>