<svg viewBox="0 0 512 512" xmlns="http://www.w3.org/2000/svg"><g><path d="m261.065 174.14-25.386 21.507-57.51-67.883c-4.32-5.1-3.689-12.736 1.411-17.056l6.919-5.862c5.1-4.32 12.736-3.689 17.056 1.411l57.51 67.883zM399.797 174.14l25.386 21.507 57.51-67.883c4.32-5.1 3.689-12.736-1.411-17.056l-6.919-5.862c-5.1-4.32-12.736-3.689-17.056 1.411l-57.51 67.883z" fill="#ff4c4c"></path><path d="M314.17 68.749h32.516v68.788H314.17z" fill="#ccdfed"></path><circle cx="330.43" cy="291.928" fill="#3d6687" r="181.57"></circle><path d="M330.431 110.357c-9.594 0-19.012.75-28.204 2.184 86.883 13.551 153.365 88.701 153.365 179.385S389.11 457.76 302.227 471.311a182.87 182.87 0 0 0 28.204 2.184C430.709 473.496 512 392.203 512 291.927s-81.291-181.57-181.569-181.57z" fill="#0c5177"></path><circle cx="330.43" cy="291.928" fill="#e1effb" r="154.39"></circle><path d="M330.431 137.533c-9.711 0-19.209.906-28.423 2.621 71.691 13.343 125.971 76.215 125.971 151.773 0 75.559-54.28 138.431-125.971 151.773a155.204 155.204 0 0 0 28.423 2.621c85.269 0 154.394-69.124 154.394-154.394S415.7 137.533 330.431 137.533z" fill="#ccdfed"></path><path d="M375.786 78.531h-90.71a8.407 8.407 0 0 1-8.407-8.407V46.909a8.407 8.407 0 0 1 8.407-8.407h90.71a8.407 8.407 0 0 1 8.407 8.407v23.217a8.406 8.406 0 0 1-8.407 8.405z" fill="#ff4c4c"></path><circle cx="330.43" cy="291.928" fill="#3d6687" r="23.618"></circle><path d="M333.714 166.767c-1.795-.046-3.283 1.382-3.283 3.177v61.094c0 2.407 1.814 4.446 4.21 4.68 27.47 2.689 49.309 24.528 51.998 51.998.235 2.396 2.273 4.21 4.68 4.21h61.094c1.795 0 3.223-1.488 3.177-3.283-1.713-66.538-55.338-120.163-121.876-121.876z" fill="#ff6d3a"></path><path d="M322.728 398.402v18.725c0 4.255 3.448 7.703 7.703 7.703s7.703-3.448 7.703-7.703v-18.725c0-4.255-3.448-7.703-7.703-7.703s-7.703 3.449-7.703 7.703zM231.657 291.927a7.702 7.702 0 0 0-7.703-7.703H205.23c-4.255 0-7.703 3.448-7.703 7.703s3.448 7.703 7.703 7.703h18.724a7.703 7.703 0 0 0 7.703-7.703z" fill="#ff4c4c"></path><path d="M162.041 190.212h-61.43c-4.204 0-7.611-3.407-7.611-7.611s3.407-7.611 7.611-7.611h61.43c4.204 0 7.611 3.407 7.611 7.611s-3.407 7.611-7.611 7.611zM131.325 286.285H97.258c-4.204 0-7.611-3.407-7.611-7.611s3.407-7.612 7.611-7.612h34.067c4.204 0 7.611 3.407 7.611 7.612s-3.407 7.611-7.611 7.611zM148.862 382.359h-29.708c-4.204 0-7.611-3.407-7.611-7.612s3.407-7.611 7.611-7.611h29.708c4.204 0 7.611 3.407 7.611 7.611s-3.407 7.612-7.611 7.612zM138.607 238.249H46.514c-4.204 0-7.611-3.407-7.611-7.611s3.407-7.611 7.611-7.611h92.092c4.204 0 7.611 3.407 7.611 7.611s-3.406 7.611-7.61 7.611zM133.587 334.323H7.611c-4.204 0-7.611-3.407-7.611-7.611s3.407-7.612 7.611-7.612h125.975c4.204 0 7.611 3.407 7.611 7.612s-3.406 7.611-7.61 7.611zM176.037 425.66H80.324c-4.204 0-7.611-3.407-7.611-7.612s3.407-7.612 7.611-7.612h95.713c4.204 0 7.611 3.407 7.611 7.612s-3.407 7.612-7.611 7.612z" fill="#0c5177"></path></g></svg>