<svg viewBox="0 0 512 512" xmlns="http://www.w3.org/2000/svg"><g><path d="m414.875 232.747 15.387-6.797a67.995 67.995 0 0 1 31.287-5.691l17.502.983c5.203.292 9.037-4.79 7.328-9.713l-8.539-24.592c-1.535-4.421-6.766-6.287-10.753-3.836l-38.563 23.709z" fill="#c6865c"></path><path d="m486.379 211.529-8.539-24.592c-1.535-4.421-6.766-6.287-10.753-3.836l-7.627 4.689 11.457 32.995 8.134.457c5.203.292 9.037-4.79 7.328-9.713z" fill="#b16e3d"></path><path d="M417.679 143.467H258.008L256 133.432V82.553a7.026 7.026 0 0 1 7.026-7.026H412.66a7.026 7.026 0 0 1 7.026 7.026v50.879z" fill="#ffcbbe"></path><path d="M417.679 143.467h-37.815v-67.94h32.796a7.026 7.026 0 0 1 7.026 7.026v50.879z" fill="#eaac9d"></path><path d="M256 133.432h163.686v72.57H256z" fill="#30579d"></path><path d="M379.864 133.432h39.822v72.57h-39.822z" fill="#26457d"></path><path d="M474.007 334.623v39.208H67.113v-69.057l37.689-1.343a84.207 84.207 0 0 0 43.11-12.622l79.848-49.483a20.922 20.922 0 0 0 9.901-17.784V188.6c0-6.355 5.152-11.507 11.507-11.507h74.371l113.818 57.725v17.007a59.96 59.96 0 0 0 7.249 28.578z" fill="#c6865c"></path><path d="M444.608 280.403a59.948 59.948 0 0 1-7.249-28.578v-17.007l-22.483-53.487-25.546-4.238c6.355 0 11.507 5.152 11.507 11.507v63.225a59.96 59.96 0 0 0 7.249 28.578l29.4 54.22v39.208h36.522v-39.208z" fill="#b16e3d"></path><path d="M427.458 263.812c.118 0 7.848-.379 11.009-.534a59.928 59.928 0 0 1-1.108-11.453v-3.591l-10.334.534a7.528 7.528 0 0 0-7.075 7.956 7.527 7.527 0 0 0 7.508 7.088z" fill="#985e33"></path><path d="M360.852 307.331a7.529 7.529 0 0 1-6.638-11.07 91.449 91.449 0 0 1 10.054-15.053 7.529 7.529 0 0 1 11.629 9.563 76.372 76.372 0 0 0-8.395 12.569 7.526 7.526 0 0 1-6.65 3.991zM388.556 276.869a7.53 7.53 0 0 1-4.164-13.806 91.527 91.527 0 0 1 16.011-8.451 7.529 7.529 0 0 1 5.673 13.947 76.378 76.378 0 0 0-13.369 7.057 7.5 7.5 0 0 1-4.151 1.253z" fill="#b16e3d"></path><path d="M410.213 258.75c-1.5-3.686-5.587-5.531-9.312-4.31a59.933 59.933 0 0 0 2.656 15.219c.836-.376 1.671-.754 2.519-1.099a7.53 7.53 0 0 0 4.137-9.81zM232.116 233.43c-7.44-.853-29.64-4.328-37.695-12.02a23.328 23.328 0 0 1-6.877-16.602c-.261-12.62 10.858-23.74 23.478-23.478a23.328 23.328 0 0 1 16.602 6.876v.001c7.441 7.44 11.028 29.95 11.949 36.671.711 4.377-3.042 8.661-7.457 8.552zm-21.094-37.043c-7.273-.26-11.28 9.421-5.955 14.378 1.749 1.711 9.112 4.066 17.801 5.89-1.824-8.689-4.178-16.05-5.891-17.802a8.367 8.367 0 0 0-5.955-2.466z" fill="#985e33"></path><path d="M279.008 194.76c-15.484 0-51.894 26.89-54.14 28.672s-3.638 4.5-3.011 7.716l4.168 21.395-24.372-11.156a8.513 8.513 0 0 0-8.76 1 8.514 8.514 0 0 0-3.198 8.222l3.846 22.087-31.454-11.947a8.564 8.564 0 0 0-8.435 1.369 8.558 8.558 0 0 0-3.016 8l5.643 34.056c1.495 9.695 16.587 7.127 14.853-2.46l-3.788-22.862 31.558 11.987a8.545 8.545 0 0 0 8.461-1.395 8.552 8.552 0 0 0 2.975-8.045l-3.685-21.163 24.651 11.283a8.5 8.5 0 0 0 8.829-1.055 8.499 8.499 0 0 0 3.097-8.335l-4.084-20.961c11.723 7.938 29.185 18.389 39.859 18.389 17.865 0 32.399-14.535 32.399-32.4s-14.532-32.397-32.396-32.397zm0 49.742c-5.677 0-20.373-8.186-33.646-17.334 12.219-8.401 27.519-17.351 33.646-17.351 9.563 0 17.343 7.78 17.343 17.342-.001 9.563-7.781 17.343-17.343 17.343z" fill="#b16e3d"></path><path d="M361.683 234.817h75.676V188.6c0-6.355-5.152-11.507-11.507-11.507H323.54v19.582c0 21.065 17.077 38.142 38.143 38.142z" fill="#eab14d"></path><path d="M437.358 234.817V188.6c0-6.355-5.152-11.507-11.507-11.507H389.33c6.355 0 11.507 5.152 11.507 11.507v46.218h36.521z" fill="#e49542"></path><path d="M457.346 436.474H150.291a218.526 218.526 0 0 1-80.567-15.394C27.636 404.386 0 363.695 0 318.417c0-9.159 7.425-16.584 16.584-16.584h58.041c4.968 0 9.864 1.179 14.287 3.441l53.617 27.416a31.382 31.382 0 0 0 20.018 2.913l167.445-31.097a159.036 159.036 0 0 1 29.033-2.673h97.164a36.615 36.615 0 0 1 32.881 20.508l17.357 35.437a54.649 54.649 0 0 1 5.571 24.041c.002 30.185-24.468 54.655-54.652 54.655z" fill="#bed8fb"></path><path d="m506.429 357.779-17.357-35.437a36.613 36.613 0 0 0-32.881-20.508h-16.252l10.113 20.647a54.649 54.649 0 0 1 5.571 24.041c0 30.185-24.47 54.654-54.654 54.654H93.914a218.5 218.5 0 0 1-67.02-10.542 110.255 110.255 0 0 0 42.831 30.446 218.518 218.518 0 0 0 80.567 15.394h307.055c30.185 0 54.654-24.469 54.654-54.654a54.677 54.677 0 0 0-5.572-24.041z" fill="#9dc6fb"></path><path d="M490.018 324.273c-7.298.549-11.665 2.855-15.282 4.774-3.502 1.859-6.044 3.219-11.795 3.141-5.763-.062-8.264-1.459-11.725-3.394-4.148-2.317-9.31-5.202-18.908-5.305-9.6-.067-14.821 2.67-19.017 4.898-3.502 1.859-6.012 3.216-11.794 3.141-5.386-.058-7.888-1.535-11.352-3.58-4.477-2.643-10.043-5.936-20.37-5.08-10.715.888-15.935 4.997-20.128 8.3-3.274 2.577-5.86 4.614-11.754 5.627-6.286 1.081-9.243.159-13.336-1.116-4.683-1.461-10.511-3.277-20.366-1.582-9.856 1.694-14.741 5.352-18.667 8.291-3.431 2.569-5.911 4.425-12.195 5.505-6.285 1.081-9.241.158-13.333-1.117-4.682-1.46-10.509-3.277-20.364-1.582-9.856 1.694-14.742 5.352-18.667 8.291-3.431 2.569-5.91 4.425-12.194 5.505-6.283 1.081-9.239.158-13.332-1.117-4.682-1.461-10.509-3.279-20.364-1.583-9.349 1.608-14.694 6.263-18.596 9.662-4.086 3.56-5.777 5.033-11.14 4.131-4.809-.809-5.731-2.543-8.195-7.177-2.388-4.492-5.658-10.644-13.65-15.223-8.418-4.823-14.377-4.992-19.165-5.13-4.046-.116-6.97-.199-12.109-3.144-5.138-2.944-6.688-5.424-8.834-8.855-2.539-4.061-5.699-9.115-14.116-13.938-8.416-4.822-14.375-4.992-19.163-5.129-4.045-.116-6.968-.199-12.107-3.143-3.894-2.231-5.726-4.196-7.32-6.51H16.584c-1.374 0-2.702.186-3.979.501 1.573 1.579 2.59 3.207 3.796 5.136 2.539 4.061 5.699 9.116 14.115 13.938s14.375 4.992 19.163 5.129c4.045.116 6.968.199 12.106 3.143s6.689 5.424 8.834 8.855c2.539 4.061 5.699 9.115 14.115 13.938 8.418 4.823 14.377 4.992 19.165 5.13 4.046.116 6.97.199 12.109 3.144 4.222 2.418 5.819 5.423 7.841 9.226 2.898 5.452 6.867 12.919 18.993 14.958 1.892.318 3.638.462 5.258.462 8.982 0 14.061-4.424 18.268-8.088 3.389-2.952 6.066-5.284 11.257-6.176 6.284-1.081 9.24-.158 13.331 1.117 4.682 1.461 10.511 3.276 20.365 1.583 9.855-1.694 14.741-5.352 18.667-8.291 3.431-2.569 5.911-4.425 12.195-5.505 6.285-1.081 9.241-.158 13.333 1.117 4.682 1.459 10.509 3.277 20.364 1.582 9.856-1.694 14.741-5.352 18.667-8.291 3.431-2.569 5.911-4.425 12.195-5.505s9.241-.159 13.335 1.117c4.682 1.46 10.508 3.274 20.366 1.581 9.658-1.66 14.571-5.528 18.518-8.636 3.525-2.776 5.855-4.61 12.057-5.124 5.552-.463 7.778.859 11.472 3.039 4.203 2.481 9.433 5.57 18.845 5.672l.517.002c9.269 0 14.38-2.713 18.5-4.9 3.501-1.859 6.052-3.243 11.795-3.141 5.763.062 8.264 1.459 11.725 3.393 4.147 2.317 9.309 5.202 18.907 5.306l.517.002c9.27 0 14.38-2.712 18.501-4.9 3.502-1.859 6.051-3.239 11.796-3.141 1.491.016 2.762.123 3.889.304z" fill="#9dc6fb"></path><path d="M490.018 324.273c-7.298.549-11.665 2.855-15.282 4.774-3.502 1.859-6.044 3.219-11.795 3.141-4.756-.051-7.291-1.012-9.976-2.434a54.648 54.648 0 0 1 2.658 16.766l-.001.037c2.085.4 4.438.658 7.157.687l.517.002c9.27 0 14.38-2.712 18.501-4.9 3.502-1.859 6.051-3.239 11.796-3.141 1.491.016 2.762.123 3.889.304z" fill="#80b4fb"></path></g></svg>