<svg viewBox="0 0 512 512" xmlns="http://www.w3.org/2000/svg"><g><path d="M341.176 251.82H14.734C6.598 251.82 0 245.223 0 237.086V14.734C0 6.598 6.598 0 14.734 0h326.442c8.136 0 14.734 6.598 14.734 14.734v222.352c0 8.137-6.598 14.734-14.734 14.734zm0 0" fill="#f8eed1"></path><path d="M68.785 0h-54.05C6.597 0 0 6.598 0 14.734v222.352c0 8.137 6.598 14.734 14.734 14.734H184.11C82.875 185.184 71.13 61.465 68.785 0zm0 0" fill="#edd8a1"></path><path d="M306.64 101.129c0 37.758-30.605 68.363-68.359 68.363s-68.36-30.605-68.36-68.363c0-37.754 30.606-68.36 68.36-68.36s68.36 30.606 68.36 68.36zm0 0" fill="#97d1c2"></path><path d="M128.523 64.89h-74.32c-4.144 0-7.5-3.359-7.5-7.5s3.356-7.5 7.5-7.5h74.32a7.5 7.5 0 1 1 0 15zM128.523 108.629h-74.32a7.497 7.497 0 0 1-7.5-7.5 7.5 7.5 0 0 1 7.5-7.5h74.32a7.5 7.5 0 0 1 7.5 7.5c0 4.144-3.355 7.5-7.5 7.5zm0 0" fill="#495059"></path><path d="M68.836 185.184h45.055c8.082 0 14.632-6.551 14.632-14.633v-11.668c0-8.082-6.55-14.633-14.632-14.633H68.836c-8.082 0-14.633 6.55-14.633 14.633v11.668c0 8.082 6.55 14.633 14.633 14.633zm0 0" fill="#f08686"></path><path d="M68.836 185.184h45.055c1.449 0 2.847-.22 4.171-.61-8.359-13.066-15.28-26.629-21.027-40.324h-28.2c-8.081 0-14.632 6.55-14.632 14.633v11.668c0 8.082 6.55 14.633 14.633 14.633zm0 0" fill="#d15463"></path><path d="M370.36 469.855c-13.157 0-23.82-10.667-23.82-23.82v-66.933c0-13.157 10.663-23.82 23.82-23.82s23.82 10.663 23.82 23.82v66.933c0 13.156-10.664 23.82-23.82 23.82zM293.465 469.855c-13.156 0-23.82-10.667-23.82-23.82v-66.933c0-13.157 10.664-23.82 23.82-23.82s23.82 10.663 23.82 23.82v66.933c0 13.156-10.664 23.82-23.82 23.82zm0 0" fill="#495059"></path><path d="M407.809 294.754c-2.645 0-5.371-.027-8.211-.07-3.739-.051-7.606-.106-11.813-.106-13.156 0-23.82-10.664-23.82-23.82s10.664-23.82 23.82-23.82c4.543 0 8.766.058 12.488.113 26.715.379 35.715.504 75.16-24.477 11.114-7.039 25.833-3.73 32.868 7.383 7.039 11.113 3.734 25.828-7.38 32.867-45.097 28.559-64.312 31.93-93.112 31.93zM206.43 328.926c-17.973 0-35.575-5.883-49.809-16.914-10.398-8.055-12.297-23.02-4.238-33.418 8.058-10.399 23.02-12.297 33.418-4.239 7.355 5.696 16.984 8.043 26.43 6.442 7.234-1.23 17.59-5.363 25.828-18.074 7.156-11.04 21.91-14.188 32.945-7.032 11.039 7.157 14.187 21.907 7.031 32.946-13.765 21.238-34.305 35.133-57.828 39.129a82.406 82.406 0 0 1-13.777 1.16zm0 0" fill="#aad7ef"></path><path d="M198.363 280.34c-4.554-1.09-8.847-3.11-12.562-5.985-10.399-8.058-25.36-6.16-33.418 4.239-8.059 10.398-6.16 25.36 4.238 33.418 7.684 5.953 16.352 10.39 25.524 13.23zm0 0" fill="#f8e2ca"></path><path d="M160.809 292.598a7.496 7.496 0 0 1-5.754-2.68l-51.227-61.09a7.5 7.5 0 0 1 .926-10.566 7.5 7.5 0 0 1 10.566.925l51.23 61.09a7.5 7.5 0 0 1-.929 10.567 7.452 7.452 0 0 1-4.812 1.754zm0 0" fill="#495059"></path><path d="M331.91 205.21c-45.043 0-81.555 36.513-81.555 81.556v41.011c0 45.043 36.512 81.559 81.555 81.559 45.043 0 81.559-36.516 81.559-81.559v-41.011c0-45.043-36.516-81.555-81.559-81.555zm0 0" fill="#aad7ef"></path><path d="M342.695 259.527H321.13l-11.328 53.2a6.12 6.12 0 0 0 1.851 5.793l14.895 13.648a7.946 7.946 0 0 0 10.726 0l14.895-13.648a6.123 6.123 0 0 0 1.855-5.793zm0 0" fill="#f08686"></path><path d="M388.074 304.11h-11.683a7.497 7.497 0 0 1-7.5-7.5 7.5 7.5 0 0 1 7.5-7.5h11.683a7.5 7.5 0 0 1 7.5 7.5c0 4.144-3.355 7.5-7.5 7.5zm0 0" fill="#ffffff"></path><path d="M468.578 160.117c0 75.477-61.187 115.91-136.668 115.91-75.48 0-136.668-40.433-136.668-115.91 0-75.48 61.192-131.07 136.668-131.07 75.48 0 136.668 55.59 136.668 131.07zm0 0" fill="#f8e2ca"></path><path d="M445.746 229.316c-196.129 82.176-244.004-95.84-184.582-182.078-39.516 22.297-65.922 63.297-65.922 112.88 0 75.48 61.192 115.91 136.668 115.91 47.508 0 89.348-16.02 113.836-46.712zm0 0" fill="#edd1b5"></path><path d="M288.383 177.012c0-11.196-11.395-20.27-25.453-20.27-14.055 0-25.45 9.074-25.45 20.27 0 11.195 11.395 20.27 25.45 20.27 14.058 0 25.453-9.075 25.453-20.27zM426.344 177.012c0-11.196-11.395-20.27-25.453-20.27-14.055 0-25.45 9.074-25.45 20.27 0 11.195 11.395 20.27 25.45 20.27 14.058 0 25.453-9.075 25.453-20.27zm0 0" fill="#f19a87"></path><g fill="#495059"><path d="M267.184 160.578c-4.141 0-7.5-3.36-7.5-7.5v-10.926a7.5 7.5 0 1 1 15 0v10.926c0 4.145-3.356 7.5-7.5 7.5zM331.91 179.879c-10.183 0-18.441-8.258-18.441-18.441V148.03a5.035 5.035 0 0 1 5.035-5.035h26.812a5.035 5.035 0 0 1 5.036 5.035v13.406c0 10.184-8.254 18.442-18.442 18.442zM396.637 160.578a7.5 7.5 0 0 1-7.5-7.5v-10.926c0-4.14 3.355-7.5 7.5-7.5s7.5 3.36 7.5 7.5v10.926a7.5 7.5 0 0 1-7.5 7.5zm0 0" fill="#495059"></path><path d="M460.648 114.813C441.77 63.425 391.262 29.05 331.91 29.05c-69.566 0-126.988 47.219-135.562 113.71 22.414-4.597 53.386-33.245 62.422-55.542 47.98 34.09 152.875 43.27 201.878 27.594zM253.125 348.867c9.297 34.817 41.04 60.469 78.785 60.469 37.75 0 69.492-25.652 78.79-60.469zm0 0" fill="#495059"></path></g><path d="M480.152 275.215c6.305-3.488 13.16-7.574 20.77-12.39 11.113-7.036 14.418-21.755 7.379-32.868-7.035-11.113-21.754-14.418-32.867-7.379-7.54 4.774-13.961 8.625-19.614 11.738zm0 0" fill="#f8e2ca"></path><path d="M237.715 116.73c1.86-25.156 9.832-49.73 23.445-69.484-34.8 19.637-59.43 53.777-64.812 95.512 12.894-2.645 28.617-13.254 41.367-26.028zm0 0" fill="#41464f"></path></g></svg>