<svg viewBox="0 0 512 512" xmlns="http://www.w3.org/2000/svg"><g><path d="M179.901 448.382c4.3 11.229 10.014 22.369 17.609 32.115l-.001.001C211.676 498.676 232.372 512 262.639 512h85.679c70.24 0 109.92-71.89 109.92-133.745v-65.272c0-7.946-3.227-15.134-8.422-20.341a28.69 28.69 0 0 0-20.341-8.422c-15.891 0-28.763 12.872-28.763 28.763V282.32c0-7.946-3.227-15.134-8.422-20.341a28.69 28.69 0 0 0-20.341-8.422 28.666 28.666 0 0 0-20.341 8.422c-5.207 5.208-8.422 12.395-8.422 20.341v-2.916c0-7.946-3.227-15.134-8.422-20.341a28.685 28.685 0 0 0-20.341-8.422c-15.891 0-28.763 12.884-28.763 28.763v-105.44c-.012-15.867-12.884-28.739-28.763-28.739a28.645 28.645 0 0 0-20.341 8.435c-5.208 5.208-8.422 12.395-8.422 20.329v154.306s-1.345-9.792-12.31-29.558c-8.801-15.867-28.788-21.588-44.655-12.786-15.855 8.801-21.576 28.788-12.786 44.643 8.435 15.207 8.459 49.227 8.459 49.618 0 0 .171 34.753 13.214 68.578z" fill="#ffcbbe"></path><g fill="#eaac9d"><path d="M374.238 498.276c11.129 0 21.49-1.809 31.047-5.095C389.515 504.878 370.43 512 348.315 512h-85.676c-15.135 0-27.874-3.324-38.605-8.931s-19.444-13.477-26.529-22.57c-7.596-9.746-13.307-20.884-17.607-32.117-12.89-33.689-13.061-68.164-13.061-68.164 0-.398-.028-34.418-8.458-49.619-8.789-15.855-3.069-35.839 12.786-44.647a32.53 32.53 0 0 1 15.126-4.111c-7.132 9.992-8.344 23.593-1.999 35.034 8.439 15.201 8.458 49.222 8.458 49.61 0 0 .171 34.485 13.07 68.174 4.3 11.233 10.011 22.371 17.607 32.117 7.084 9.092 15.798 16.963 26.529 22.57 10.731 5.597 23.46 8.931 38.595 8.931l85.687-.001zM352.743 330.613a9.558 9.558 0 0 0 9.558-9.558V282.32c0-7.935 3.216-15.126 8.426-20.336a28.78 28.78 0 0 1 10.779-6.793 28.71 28.71 0 0 0-9.559-1.634c-7.935 0-15.125 3.216-20.336 8.426-5.21 5.21-8.426 12.401-8.426 20.336v38.735a9.558 9.558 0 0 0 9.558 9.559zM410.27 322.542a9.558 9.558 0 0 0 9.558-9.558v-.001c0-7.935 3.216-15.126 8.426-20.336a28.78 28.78 0 0 1 10.779-6.793 28.71 28.71 0 0 0-9.559-1.634c-7.935 0-15.125 3.216-20.336 8.427-5.21 5.21-8.426 12.401-8.426 20.336v.001c0 5.278 4.279 9.558 9.558 9.558z" fill="#eaac9d"></path><path d="M237.686 384.817a9.558 9.558 0 0 0 9.558-9.558V173.992c0-7.935 3.216-15.126 8.426-20.336a28.78 28.78 0 0 1 10.779-6.793 28.71 28.71 0 0 0-9.559-1.634c-7.935 0-15.125 3.216-20.336 8.426-5.21 5.21-8.426 12.401-8.426 20.336v201.268a9.558 9.558 0 0 0 9.558 9.558zM295.215 327.699a9.558 9.558 0 0 0 9.558-9.558v-38.735c0-7.935 3.216-15.126 8.426-20.336a28.78 28.78 0 0 1 10.779-6.793 28.71 28.71 0 0 0-9.559-1.634c-7.935 0-15.125 3.216-20.336 8.426-5.21 5.21-8.426 12.401-8.426 20.336v38.735c0 5.279 4.279 9.559 9.558 9.559z" fill="#eaac9d"></path></g><circle cx="102.551" cy="100.486" fill="#dd636e" r="100.477"></circle><path d="M115.682 200.112c-4.296.562-8.688.849-13.132.849-55.488 0-100.475-44.987-100.475-100.475C2.075 44.987 47.061 0 102.55 0c4.445 0 8.836.286 13.132.849-49.283 6.428-87.343 48.583-87.343 99.637 0 51.043 38.06 93.198 87.343 99.626z" fill="#da4a54"></path><path d="m113.478 100.486 33.631-33.631a7.727 7.727 0 0 0-10.927-10.927l-33.631 33.631L68.92 55.928a7.727 7.727 0 0 0-10.927 10.927l33.631 33.631-33.631 33.631a7.725 7.725 0 0 0 0 10.927c1.509 1.509 3.486 2.263 5.463 2.263s3.955-.755 5.463-2.263l33.631-33.631 33.631 33.631c1.509 1.509 3.486 2.263 5.463 2.263s3.955-.755 5.463-2.263a7.725 7.725 0 0 0 0-10.927z" fill="#f9f6f9"></path><circle cx="409.449" cy="100.486" fill="#80cb8e" r="100.477"></circle><path d="M422.579 200.112c-4.296.562-8.688.849-13.132.849-55.488 0-100.475-44.987-100.475-100.475C308.972 44.987 353.959 0 409.447 0c4.445 0 8.836.286 13.132.849-49.283 6.428-87.343 48.583-87.343 99.637 0 51.043 38.06 93.198 87.343 99.626z" fill="#6ec17d"></path><path d="M404.966 155.63a7.724 7.724 0 0 1-5.463-2.263l-40.592-40.593a7.725 7.725 0 0 1 0-10.927 7.725 7.725 0 0 1 10.927 0l33.011 33.011 43.257-86.546a7.725 7.725 0 0 1 10.365-3.457 7.725 7.725 0 0 1 3.457 10.365l-48.05 96.137a7.728 7.728 0 0 1-6.912 4.273z" fill="#f9f6f9"></path></g></svg>