<svg viewBox="0 0 512 512" xmlns="http://www.w3.org/2000/svg"><g><g clip-rule="evenodd" fill-rule="evenodd"><path d="M248 460.056a8 8 0 0 1 16 0V484h152.336V354.656l-158.361 37.631a7.96 7.96 0 0 1-3.819.031L95.664 354.656V484H248zM89.782 336.82 256 376.318l166.493-39.563a7.997 7.997 0 0 1 9.842 7.782L432.336 492a8 8 0 0 1-8 8H87.664a8 8 0 0 1-8-8V344.536a8 8 0 0 1 10.118-7.716z" fill="#9facba"></path><path d="M65.14 383.697h45.047v37.027H65.14z" fill="#a79ba7"></path><path d="M103.59 383.697h6.597v37.027h-6.597z" fill="#837683"></path><path d="M27.017 295.617H148.31c6.06 0 11.018 4.958 11.018 11.018v75.803c0 6.06-4.958 11.019-11.018 11.019H27.017c-6.06 0-11.019-4.958-11.019-11.019v-75.803c.001-6.06 4.959-11.018 11.019-11.018z" fill="#d8ecfe"></path><path d="M137.038 295.617h11.272c6.06 0 11.018 4.958 11.018 11.018v75.803c0 6.06-4.958 11.019-11.018 11.019h-11.272c6.06 0 11.019-4.958 11.019-11.019v-75.803c-.001-6.06-4.959-11.018-11.019-11.018z" fill="#c4e2ff"></path><path d="M38.972 429.152h97.384v-10.681c0-4.129-4.228-7.508-9.397-7.508h-78.59c-5.168 0-9.397 3.378-9.397 7.508z" fill="#eceff1"></path><path d="M38.972 429.152h97.384v-10.681c0-2.879-2.056-5.393-5.053-6.651.509.922.794 1.941.794 3.01v10.681H38.972z" fill="#d1d1d6"></path><path d="M233.477 423.698h45.047v37.027h-45.047z" fill="#a79ba7"></path><path d="M271.926 423.698h6.597v37.027h-6.597z" fill="#837683"></path><path d="M195.354 335.618h121.293c6.06 0 11.019 4.958 11.019 11.019v75.803c0 6.06-4.958 11.019-11.019 11.019H195.354c-6.06 0-11.019-4.958-11.019-11.019v-75.803c0-6.061 4.958-11.019 11.019-11.019z" fill="#d8ecfe"></path><path d="M305.374 335.618h11.272c6.06 0 11.019 4.958 11.019 11.019v75.803c0 6.06-4.958 11.019-11.019 11.019h-11.272c6.06 0 11.018-4.958 11.018-11.019v-75.803c.001-6.061-4.958-11.019-11.018-11.019z" fill="#c4e2ff"></path><path d="M207.308 469.153h97.384v-10.681c0-4.129-4.228-7.508-9.397-7.508h-78.591c-5.168 0-9.397 3.378-9.397 7.508v10.681z" fill="#eceff1"></path><path d="M207.308 469.153h97.384v-10.681c0-2.879-2.056-5.393-5.053-6.651.509.922.794 1.941.794 3.01v10.681h-93.124v3.641z" fill="#d1d1d6"></path><path d="M401.813 383.697h45.047v37.027h-45.047z" fill="#a79ba7"></path><path d="M440.262 383.697h6.597v37.027h-6.597z" fill="#837683"></path><path d="M363.69 295.617h121.293c6.06 0 11.019 4.958 11.019 11.018v75.803c0 6.06-4.958 11.019-11.019 11.019H363.69c-6.06 0-11.018-4.958-11.018-11.019v-75.803c-.001-6.06 4.958-11.018 11.018-11.018z" fill="#d8ecfe"></path><path d="M473.71 295.617h11.272c6.06 0 11.019 4.958 11.019 11.018v75.803c0 6.06-4.958 11.019-11.019 11.019H473.71c6.06 0 11.018-4.958 11.018-11.019v-75.803c.001-6.06-4.958-11.018-11.018-11.018z" fill="#c4e2ff"></path><path d="M375.644 429.152h97.384v-10.681c0-4.129-4.228-7.508-9.397-7.508H385.04c-5.168 0-9.397 3.378-9.397 7.508v10.681z" fill="#eceff1"></path><path d="M375.644 429.152h97.384v-10.681c0-2.879-2.056-5.393-5.053-6.651.509.922.794 1.941.794 3.01v10.681h-93.124v3.641z" fill="#d1d1d6"></path><path d="M248 258.971a8 8 0 0 1 16 0v27.792a7.972 7.972 0 0 1 10.206 11.846l-11.924 15.269a7.971 7.971 0 0 1-12.656-.119l-11.831-15.15A7.972 7.972 0 0 1 248 286.763zm-120.04-11.307a7.997 7.997 0 0 1 15.64-1.183l19.631-19.631a7.998 7.998 0 0 1 11.312 0 7.998 7.998 0 0 1 0 11.312l-19.63 19.631a7.999 7.999 0 0 1 5.785 6.734 7.995 7.995 0 0 1-6.969 8.906l-19.076 2.347a7.997 7.997 0 0 1-9.06-8.887zm240.463-1.184a7.998 7.998 0 0 1 15.64 1.184l2.365 19.229a7.996 7.996 0 0 1-9.06 8.887l-19.076-2.347a7.997 7.997 0 0 1-1.184-15.64l-19.63-19.631a7.998 7.998 0 0 1 0-11.312 7.998 7.998 0 0 1 11.312 0z" fill="#a79ba7"></path><path d="M157.064 82.517c-15.223 6.234-26.019 21.23-26.019 38.629 0 22.944 18.771 41.715 41.715 41.715h166.48c22.944 0 41.715-18.771 41.715-41.715 0-19.182-13.122-35.446-30.833-40.263-3.264-30.162-28.807-53.644-59.837-53.644a60.096 60.096 0 0 0-20.316 3.515C257.972 19.145 241.631 12 223.62 12c-36.82 0-66.669 29.849-66.669 66.669 0 1.292.04 2.574.113 3.848z" fill="#8ac9fe"></path><path d="M362.105 155.987c11.333-7.478 18.85-20.323 18.85-34.841 0-19.182-13.122-35.446-30.833-40.263-3.264-30.162-28.807-53.644-59.837-53.644a60.096 60.096 0 0 0-20.316 3.515C257.972 19.145 241.631 12 223.62 12c-21.462 0-40.553 10.145-52.747 25.898 11.271-8.726 25.414-13.921 40.771-13.921 18.012 0 34.353 7.145 46.351 18.753a60.062 60.062 0 0 1 20.315-3.516c31.03 0 56.573 23.483 59.837 53.645 17.711 4.818 30.833 21.081 30.833 40.263a41.408 41.408 0 0 1-6.875 22.865z" fill="#60b7ff"></path><path d="M316.881 94.803v118.138c0 10.702-27.257 19.377-60.88 19.377s-60.881-8.675-60.881-19.377V94.803c0-10.702 27.257-19.377 60.881-19.377 33.622 0 60.88 8.675 60.88 19.377z" fill="#9facba"></path><path d="M316.881 94.803v118.138c0 10.702-27.257 19.377-60.88 19.377-1.904 0-3.787-.029-5.646-.084 30.976-.907 55.234-9.197 55.234-19.293V94.803c0-10.096-24.259-18.387-55.234-19.294 1.86-.054 3.742-.084 5.646-.084 33.622.001 60.88 8.676 60.88 19.378z" fill="#8d9ca8"></path><path d="M195.119 134.183c0 10.702 27.257 19.377 60.881 19.377 33.623 0 60.88-8.675 60.88-19.377v-39.38c0 10.702-27.257 19.377-60.88 19.377s-60.881-8.675-60.881-19.377z" fill="#8d9ca8"></path><path d="M305.588 145.426c7.109-3.171 11.292-7.051 11.292-11.244V94.803c0 4.192-4.183 8.073-11.292 11.243z" fill="#8192a5"></path><path d="M195.119 173.562v39.38c0 10.702 27.257 19.377 60.881 19.377 33.623 0 60.88-8.675 60.88-19.377v-39.38c0 10.702-27.257 19.377-60.88 19.377s-60.881-8.675-60.881-19.377z" fill="#8d9ca8"></path><path d="M250.354 232.235c1.86.055 3.742.084 5.646.084 33.623 0 60.88-8.675 60.88-19.377v-39.38c0 4.192-4.183 8.073-11.292 11.244v28.136c0 10.095-24.258 18.386-55.234 19.293z" fill="#8192a5"></path><path d="M249.903 141.118a7.248 7.248 0 1 1 0-14.496h12.194a7.248 7.248 0 1 1 0 14.496zm0 78.761a7.248 7.248 0 1 1 0-14.496h12.194a7.248 7.248 0 1 1 0 14.496zm0-39.381a7.248 7.248 0 1 1 0-14.496h12.194a7.248 7.248 0 1 1 0 14.496z" fill="#ffe177"></path></g></g></svg>