<svg viewBox="0 0 512 512" xmlns="http://www.w3.org/2000/svg"><g><path d="M256 62.5v71.3c-6.2 2.5-12.4 5.4-18.4 8.5-37.1 18.8-63.5 8.5-102.9-37-.1-2.3-.2-4.5-.2-6.8v-36zm-23.2 247.7V256c0 10.2-2.9 20-8.1 28.4-2.6 4.2-5.8 8.1-9.4 11.4-3.7 3.4-7.8 6.2-12.4 8.4-42.2 20.5-68.4 62.4-68.4 109.3v35.9H256v-116c-12.8 0-23.2-10.4-23.2-23.2z" fill="#eaeaea"></path><path d="M256 62.5h137.7v35.9c0 26.3-7.5 51.9-21.5 74-13.7 21.5-33.1 38.7-55.9 49.9-12.6 6.2-20.8 19.4-20.8 33.7s8.2 27.6 20.8 33.7c22.9 11.1 42.2 28.4 55.9 49.9 14.1 22.1 21.5 47.7 21.5 74v35.9H256zm-53.1 145.3c-42.2-20.5-68.4-62.4-68.4-109.3v-36h-16.2v35.9c0 26.3 7.5 51.9 21.5 74 13.7 21.5 33.1 38.7 55.9 49.9 12.6 6.2 20.8 19.4 20.8 33.7s-8.2 27.6-20.8 33.7c-22.9 11.1-42.2 28.4-55.9 49.9-14.1 22.1-21.5 47.7-21.5 74v35.9h16.2v-35.9c0-46.9 26.2-88.8 68.4-109.3 18.2-8.8 29.9-27.8 29.9-48.2 0-20.6-11.7-39.5-29.9-48.3z" fill="#dbdbdb"></path><path d="M419.7 458.6c5.7 5.7 9.2 13.5 9.2 22.1 0 17.3-14 31.3-31.3 31.3H114.4c-8.6 0-16.4-3.5-22.1-9.2s-9.2-13.5-9.2-22.1c0-17.3 14-31.3 31.3-31.3h283.2c8.6.1 16.4 3.6 22.1 9.2zM114.4 62.5h283.2c17.3 0 31.3-14 31.3-31.2 0-8.6-3.5-16.4-9.2-22.1C414 3.5 406.2 0 397.6 0H114.4C97.2 0 83.2 14 83.2 31.3c0 8.6 3.5 16.4 9.2 22.1 5.6 5.6 13.4 9.1 22 9.1z" fill="#9b1200"></path><path d="M114.4 449.5H256V512H114.4c-8.6 0-16.4-3.5-22.1-9.2s-9.2-13.5-9.2-22.1c.1-17.2 14.1-31.2 31.3-31.2zm0-449.5C97.2 0 83.2 14 83.2 31.3c0 8.6 3.5 16.4 9.2 22.1s13.5 9.1 22.1 9.1H256V0z" fill="#f22800"></path><path d="M313.8 363.6c-4.5 0-8.1 3.6-8.1 8.1s3.6 8.1 8.1 8.1 8.1-3.6 8.1-8.1c-.1-4.4-3.7-8.1-8.1-8.1zm-98.1-9c-4.5 0-8.1 3.6-8.1 8.1s3.6 8.1 8.1 8.1 8.1-3.6 8.1-8.1-3.6-8.1-8.1-8.1zm21.9-212.3c-37.1 18.8-63.5 8.5-102.9-37 2.4 44.1 28.1 83 68.2 102.5 18.2 8.8 29.9 27.8 29.9 48.2v54.2c0 12.8 10.4 23.2 23.2 23.2s23.2-10.4 23.2-23.2V256c0-20.5 11.7-39.4 29.9-48.2 27.5-13.4 48.1-35.8 59.2-62.7-41.1-35.5-88.8-24.1-130.7-2.8zm52.1 262.5c-19.9-15.3-47.6-15.3-67.4 0l-57.9 44.7h183.2z" fill="#99906b"></path><path d="m222.3 404.8-57.9 44.7H256v-56.2c-11.9 0-23.8 3.8-33.7 11.5zm15.3-262.5c-37.1 18.8-63.5 8.5-102.9-37 2.4 44.1 28.1 83 68.2 102.5 18.2 8.8 29.9 27.8 29.9 48.2v54.2c0 12.8 10.4 23.2 23.2 23.2V133.8c-6.2 2.6-12.4 5.4-18.4 8.5z" fill="#c9bf8d"></path></g></svg>