<svg height="512" viewBox="0 0 64 64" width="512" xmlns="http://www.w3.org/2000/svg"><g id="_2._Delivery_man" data-name="2. Delivery man"><path d="m31.89 26.87a2 2 0 0 1 -1.64 2.13c-9.14 1.64-7.43 1.38-9.35 1.54-3.9-5.25-3.9-5.19-4.14-5.46a4 4 0 1 0 -5.76 5.57l6.43 6.62a3.24 3.24 0 0 0 1.87 1.09l.7.12v3.74c4.63 8.17 4.48 7.78 4.55 8.32l1.45 11.2a2 2 0 0 1 -3.94.72l-2.47-10.39-4.85-7.07h-2.64c.59 6.4.66 6.25.38 6.9l-4.6 10.88a2 2 0 0 1 -3.76-1.36l3.17-10.56c-1.78-10.23-1.77-6.57.08-23.23a6.34 6.34 0 0 1 11.88-2.28c3.66.29 1.12.34 10.5-.33a2 2 0 0 1 2.14 1.85z" fill="#2f79f0"/><path d="m60 62a2 2 0 0 1 -4 .24l-1.92-16.24h-2.22l-1.86 16.23a2 2 0 0 1 -4-.23c.08-21.53 0-15.56.31-23.38 1.36-.24 2.24-.26 3.11-1.15.26-.28-1.13 1.16 6.6-6.8a4 4 0 1 0 -6.07-5.21l-3.85 5.06c-2-.16-.21.11-9.38-1.54a2 2 0 0 1 .5-4c9 .64 7 .62 10.2.35a6.26 6.26 0 0 1 11.8 2.67c.87 21 .66 10.68.78 34z" fill="#88b8f9"/><path d="m44 23v16a2 2 0 0 1 -2 2h-16a2 2 0 0 1 -2-2v-16a2 2 0 0 1 2-2h5s1.48 1.92 3 1.92 3-1.92 3-1.92h5a2 2 0 0 1 2 2z" fill="#f8cf6d"/><path d="m31 21h6v6h-6z" fill="#ee7231"/><path d="m30.84 37.5a2 2 0 0 1 -2.27 1.5l-9.1-1.58c-.88-.16-.37.18-7.75-7.42a3 3 0 1 1 4.56-3.9l5.15 6.82 8 2.18a2 2 0 0 1 1.41 2.4z" fill="#2f79f0"/><path d="m21 14a6 6 0 1 1 -10.46-4 6.32 6.32 0 0 1 5.57-.38 14.13 14.13 0 0 1 4.89 4.38z" fill="#88b8f9"/><path d="m20.21 11a6 6 0 0 0 -9.67-1h.46a1 1 0 0 1 0 2h-1.65a5.8 5.8 0 0 0 -.35 2h15.92a1.08 1.08 0 0 0 1.08-1.08 1.09 1.09 0 0 0 -.9-1.07z" fill="#2f79f0"/><circle cx="53" cy="14" fill="#88b8f9" r="6"/><path d="m55.52 29.67c-.12.17.39-.37-6.68 6.91a2.15 2.15 0 0 1 -1.31.79l-9.1 1.63a2 2 0 0 1 -.86-3.9l8-2.18 5.15-6.82a3 3 0 1 1 4.8 3.62z" fill="#88b8f9"/><circle cx="34" cy="7" fill="#ee7231" r="7"/><path d="m33 10c-.54 0-.57-.15-2.71-2.29a1 1 0 0 1 1.42-1.42l1.29 1.3 3.29-3.3a1 1 0 1 1 1.42 1.42l-4 4a1 1 0 0 1 -.71.29z" fill="#fffeff"/></g></svg>