<svg viewBox="0 0 512 512" xmlns="http://www.w3.org/2000/svg"><g><circle cx="256" cy="271.818" fill="#b3d8fb" r="240.182"></circle><path d="M256 31.636a241.341 241.341 0 0 0-45.932 4.406c110.674 21.436 194.25 118.838 194.25 235.776s-83.576 214.34-194.25 235.776A241.341 241.341 0 0 0 256 512c132.649 0 240.182-107.533 240.182-240.182S388.649 31.636 256 31.636z" fill="#89c6fc"></path><path d="m188.878 216.22-25.923 36.619c-12.489 17.642-8.312 42.067 9.33 54.556l6.589 4.664a39.14 39.14 0 0 1 16.498 33.382l-3.798 103.247a24.532 24.532 0 0 0 38.511 21.048l71.017-49.338a107.861 107.861 0 0 0 26.492-26.259l45.76-64.641c9.857-13.924 6.56-33.201-7.364-43.058l-114.355-80.954c-20.294-14.364-48.391-9.559-62.757 10.734zM241.331 54.704c-5.561-6.377-6.335-15.352-2.511-22.45-41.563 2.938-80.203 16.448-113.251 37.862l-33.655 33.655a46.505 46.505 0 0 0-13.621 32.883v37.489c0 9.735 10.94 15.457 18.936 9.905l27.653-19.199a53.713 53.713 0 0 1 30.631-9.591h35.589a43.963 43.963 0 0 0 31.087-12.877l35.119-35.119c8.979-8.979 9.47-23.378 1.124-32.949z" fill="#05e29a"></path><path d="m415.687 92.429-13.748 47.853a82.84 82.84 0 0 0 4.053 56.819l15.011 33.42a42.2 42.2 0 0 0 62.038 17.729l11.146-7.494c-7.587-58.745-36.404-110.828-78.5-148.327z" fill="#1dd08d"></path><path d="M495.588 123.477c-1.526 36.579-29.409 68.565-43.159 82.192-4.176 4.139-10.897 4.146-15.073.007-14.137-14.009-43.232-47.442-43.232-85.319 0-28.222 23.03-51.066 51.323-50.762 28.861.31 51.344 25.043 50.141 53.882z" fill="#fc6b55"></path><path d="M450.456 69.905a52.18 52.18 0 0 1 12.847 36.56c-1.486 35.626-27.969 66.888-42.051 81.083a192.332 192.332 0 0 0 16.104 18.128c4.176 4.138 10.897 4.131 15.073-.007 13.75-13.627 41.633-45.614 43.159-82.192 1.132-27.146-18.725-50.647-45.132-53.572z" fill="#fc534e"></path><circle cx="444.888" cy="122.264" fill="#e5ecf1" r="24.839"></circle><path d="M449.69 97.893c4.645 4.513 7.535 10.824 7.535 17.812 0 13.718-11.121 24.839-24.839 24.839a24.99 24.99 0 0 1-4.802-.468c4.473 4.347 10.574 7.027 17.304 7.027 13.718 0 24.839-11.121 24.839-24.839.001-12.075-8.617-22.134-20.037-24.371z" fill="#d6e4ea"></path><path d="M335.935 204.439c-1.526 36.579-29.409 68.565-43.159 82.192-4.176 4.139-10.897 4.146-15.073.007-14.137-14.009-43.232-47.442-43.232-85.319 0-28.222 23.03-51.066 51.323-50.762 28.861.311 51.344 25.044 50.141 53.882z" fill="#fc6b55"></path><path d="M290.803 150.868a52.18 52.18 0 0 1 12.847 36.56c-1.486 35.626-27.969 66.888-42.051 81.083a192.332 192.332 0 0 0 16.104 18.128c4.176 4.138 10.897 4.131 15.073-.007 13.75-13.627 41.633-45.614 43.159-82.192 1.132-27.147-18.725-50.648-45.132-53.572z" fill="#fc534e"></path><circle cx="285.235" cy="203.226" fill="#e5ecf1" r="24.839"></circle><path d="M290.037 178.855c4.645 4.513 7.535 10.824 7.535 17.812 0 13.718-11.121 24.839-24.839 24.839a24.99 24.99 0 0 1-4.802-.468c4.473 4.347 10.574 7.027 17.304 7.027 13.718 0 24.839-11.121 24.839-24.839.001-12.075-8.617-22.134-20.037-24.371z" fill="#d6e4ea"></path><path d="M257.222 323.533c-1.526 36.579-29.409 68.565-43.159 82.192-4.176 4.139-10.897 4.146-15.073.007-14.137-14.009-43.232-47.442-43.232-85.319 0-28.222 23.03-51.066 51.323-50.762 28.862.31 51.344 25.043 50.141 53.882z" fill="#fc6b55"></path><path d="M212.09 269.961a52.18 52.18 0 0 1 12.847 36.56c-1.486 35.626-27.969 66.888-42.051 81.083a192.332 192.332 0 0 0 16.104 18.128c4.176 4.138 10.897 4.131 15.073-.007 13.75-13.627 41.633-45.614 43.159-82.192 1.133-27.146-18.724-50.647-45.132-53.572z" fill="#fc534e"></path><circle cx="206.523" cy="322.32" fill="#e5ecf1" r="24.839"></circle><path d="M211.325 297.949c4.645 4.513 7.535 10.824 7.535 17.812 0 13.718-11.121 24.839-24.839 24.839a24.99 24.99 0 0 1-4.802-.468c4.473 4.347 10.574 7.027 17.304 7.027 13.718 0 24.839-11.121 24.839-24.839 0-12.075-8.618-22.134-20.037-24.371z" fill="#d6e4ea"></path><path d="M145.061 53.885c-1.526 36.579-29.409 68.565-43.159 82.192-4.176 4.139-10.897 4.146-15.073.007-14.137-14.009-43.232-47.442-43.232-85.319 0-28.222 23.03-51.066 51.323-50.762 28.862.31 51.344 25.043 50.141 53.882z" fill="#fc6b55"></path><path d="M99.929.313a52.18 52.18 0 0 1 12.847 36.56c-1.486 35.626-27.969 66.888-42.051 81.083a192.332 192.332 0 0 0 16.104 18.128c4.176 4.138 10.897 4.131 15.073-.007 13.75-13.627 41.633-45.614 43.159-82.192C146.194 26.738 126.337 3.237 99.929.313z" fill="#fc534e"></path><circle cx="94.362" cy="52.672" fill="#e5ecf1" r="24.839"></circle><path d="M99.164 28.3c4.645 4.513 7.535 10.824 7.535 17.812 0 13.718-11.121 24.839-24.839 24.839a24.99 24.99 0 0 1-4.802-.468c4.473 4.347 10.574 7.027 17.304 7.027 13.718 0 24.839-11.121 24.839-24.839 0-12.075-8.618-22.133-20.037-24.371z" fill="#d6e4ea"></path></g></svg>