<svg viewBox="0 0 512 512" xmlns="http://www.w3.org/2000/svg"><g><g clip-rule="evenodd" fill-rule="evenodd"><circle cx="395.305" cy="395.305" fill="#eceff1" r="100.695"></circle><path d="M395.305 294.61C450.918 294.61 496 339.693 496 395.305S450.918 496 395.305 496c-2.662 0-5.299-.105-7.909-.308 51.915-4.034 92.786-47.437 92.786-100.387 0-52.951-40.871-96.353-92.786-100.387 2.61-.203 5.248-.308 7.909-.308zM361.354 371.793c.048 48.825.048 73.199 0 73.121h-24.338a3.85 3.85 0 0 1-3.843-3.843v-65.435a3.85 3.85 0 0 1 3.843-3.843z" fill="#d1d1d6"></path><path d="M333.173 441.071v.009a3.85 3.85 0 0 0 3.843 3.834h24.364v-73.121h-3.843v69.278z" fill="#b1b1b5"></path><path d="M422.068 452.247c-28.34 4.88-44.816 8.445-61.29-7.333v-73.121c12.985-9.754 30.133-18.11 30.133-36.559v-22.198c14.643 0 26.624 11.977 26.624 26.621v17.219c-.505 3.665-2.849 9.016-7.383 13.554 41.227 10.602 23.677 82.322 11.916 81.817z" fill="#f6dccd"></path><path d="M367.246 450.135c-2.173-1.439-4.32-3.164-6.467-5.22v-73.121c12.985-9.754 30.133-18.11 30.133-36.559v-22.198c7.22 0 13.791 2.913 18.6 7.621a26.41 26.41 0 0 0-13.627-3.778v22.198c0 18.449-17.148 26.805-30.133 36.559v73.121c.498.476.996.935 1.494 1.377z" fill="#f1cbbc"></path><path d="M425.291 452.752h17.077c5.818 0 10.579-4.76 10.579-10.578s-4.76-10.579-10.578-10.579h6.31c5.818-.001 10.578-4.76 10.578-10.579s-4.76-10.578-10.578-10.578h7.423c5.819 0 10.579-4.76 10.579-10.578s-4.76-10.579-10.579-10.579h-4.456c5.818 0 10.578-4.76 10.578-10.579 0-5.819-4.76-10.578-10.578-10.578h-26.354c-5.818-.001-10.578 4.759-10.578 10.578s4.76 10.579 10.579 10.579h-4.456c-5.819 0-10.579 4.76-10.579 10.579 0 5.818 4.76 10.578 10.579 10.578h4.456c-5.819 0-10.579 4.76-10.579 10.578s4.76 10.579 10.579 10.579c-5.819 0-10.579 4.76-10.579 10.578-.001 5.82 4.759 10.579 10.577 10.579z" fill="#f6dccd"></path><g fill="#f1cbbc"><path d="M425.291 452.752h17.077c5.818 0 10.579-4.76 10.579-10.578h-38.234c0 5.819 4.76 10.578 10.578 10.578zM442.368 431.595h6.31c5.818 0 10.578-4.76 10.578-10.579h-44.543c0 5.818 4.76 10.579 10.579 10.579zM448.678 410.438h7.423c5.818 0 10.579-4.76 10.579-10.578h-56.424c0 5.819 4.76 10.578 10.579 10.578h4.456zM451.644 389.281c5.818 0 10.578-4.76 10.578-10.579h-47.51c0 5.819 4.76 10.579 10.579 10.579z" fill="#f1cbbc"></path></g><circle cx="116.695" cy="116.695" fill="#ffd064" r="100.695"></circle><path d="M112.449 16.088c53.643 2.225 96.449 46.417 96.449 100.607s-42.806 98.382-96.449 100.607c1.408.058 2.823.088 4.246.088 55.612 0 100.695-45.083 100.695-100.695C217.39 61.082 172.307 16 116.694 16c-1.422 0-2.838.029-4.245.088z" fill="#f5b829"></path><circle cx="116.695" cy="116.695" fill="#ffc338" r="76.891"></circle><path d="M48.975 116.695c0-40.926 31.975-74.384 72.305-76.757a78.284 78.284 0 0 0-4.585-.135c-42.466 0-76.891 34.425-76.891 76.891s34.425 76.891 76.891 76.891c1.54 0 3.069-.045 4.585-.134-40.331-2.372-72.305-35.83-72.305-76.756z" fill="#f5b829"></path><path d="M146.707 90.242a7.999 7.999 0 0 1-14.75 6.188c-2.092-4.984-6.064-7.86-10.426-8.966a19.22 19.22 0 0 0-8.464-.207c-2.629.53-5.045 1.596-6.927 3.126-2.288 1.86-3.74 4.537-3.579 7.851.145 2.981 1.712 5.034 3.898 6.461 3.114 2.033 7.45 3.169 11.587 3.848 6.137 1.007 12.844 2.694 18.48 6.097 6.568 3.966 11.523 9.935 12.638 19.117.084.695.138 1.536.161 2.516.201 8.436-3.64 14.716-9.413 19.096-4.362 3.31-9.8 5.395-15.218 6.395v3.588a8 8 0 0 1-16 0v-3.746c-4.363-.921-8.518-2.589-12.144-5.003-5.871-3.91-10.37-9.682-12.273-17.318a7.981 7.981 0 0 1 15.5-3.812c.853 3.421 2.902 6.03 5.586 7.818 3.379 2.25 7.727 3.323 12.148 3.217.726-.017 1.626-.09 2.695-.22 3.752-.455 7.475-1.628 10.081-3.606 1.897-1.44 3.161-3.436 3.1-6.034a13.646 13.646 0 0 0-.098-1.016c-.415-3.42-2.387-5.719-5.013-7.305-3.559-2.149-8.319-3.3-12.792-4.034-5.944-.976-12.405-2.759-17.712-6.223-6.234-4.07-10.713-10.095-11.148-19.086-.433-8.912 3.404-16.057 9.454-20.976 3.58-2.911 7.948-4.981 12.617-6.101v-3.869a8 8 0 0 1 16 0v3.755c.238.054.475.112.712.172 8.922 2.261 17.038 8.126 21.3 18.277z" fill="#ffe177"></path><circle cx="395.305" cy="116.695" fill="#fe646f" r="100.695" transform="rotate(-45 395.313 116.776)"></circle><path d="M391.059 16.088c53.643 2.225 96.449 46.417 96.449 100.607s-42.806 98.382-96.449 100.607c1.408.058 2.823.088 4.246.088C450.917 217.39 496 172.307 496 116.695 496 61.082 450.917 16 395.304 16c-1.422 0-2.838.029-4.245.088z" fill="#fd4755"></path><ellipse cx="395.305" cy="116.695" fill="#eceff1" rx="76.891" ry="76.892" transform="rotate(-9.25 395.663 117.073)"></ellipse><path d="M327.585 116.695c0-40.926 31.975-74.384 72.305-76.757a78.284 78.284 0 0 0-4.585-.135c-42.466 0-76.891 34.425-76.891 76.891s34.425 76.891 76.891 76.891a78.26 78.26 0 0 0 4.585-.134c-40.331-2.372-72.305-35.83-72.305-76.756z" fill="#d1d1d6"></path><path d="M419.755 80.931a7.998 7.998 0 0 1 11.312 0 7.998 7.998 0 0 1 0 11.312l-60.214 60.214a7.998 7.998 0 0 1-11.312 0 7.998 7.998 0 0 1 0-11.312zm6.499 31.27c-6.224 0-11.861 2.524-15.941 6.604s-6.604 9.717-6.604 15.942 2.524 11.862 6.604 15.941a22.476 22.476 0 0 0 15.941 6.604c6.225 0 11.862-2.524 15.942-6.604s6.604-9.717 6.604-15.941-2.524-11.862-6.604-15.942-9.717-6.604-15.942-6.604zm4.629 17.916c-1.184-1.184-2.821-1.917-4.629-1.917s-3.445.733-4.629 1.917-1.917 2.821-1.917 4.629.733 3.445 1.917 4.629 2.821 1.917 4.629 1.917 3.445-.733 4.629-1.917 1.916-2.821 1.916-4.629-.732-3.445-1.916-4.629zm-66.528-54.019a22.472 22.472 0 0 0-15.941 6.604 22.476 22.476 0 0 0-6.604 15.941c0 6.225 2.524 11.862 6.604 15.941s9.717 6.604 15.941 6.604c6.225 0 11.862-2.524 15.941-6.604s6.604-9.717 6.604-15.941a22.472 22.472 0 0 0-6.604-15.941 22.474 22.474 0 0 0-15.941-6.604zm4.629 17.916c-1.184-1.184-2.821-1.916-4.629-1.916s-3.445.733-4.629 1.916c-1.184 1.184-1.917 2.821-1.917 4.629s.733 3.445 1.917 4.629 2.821 1.916 4.629 1.916 3.445-.733 4.629-1.916a6.527 6.527 0 0 0 1.917-4.629 6.53 6.53 0 0 0-1.917-4.629z" fill="#fe646f"></path><path d="M235.569 277.174c-10.562-10.562-27.685-10.561-38.247 0-.313.313-2.885 2.901-3.18 3.226l38.201 38.201c.324-.295 2.912-2.866 3.225-3.18 10.562-10.562 10.562-27.686.001-38.247z" fill="#8192a5"></path><path d="M235.569 277.174c-10.562-10.562-27.685-10.562-38.247 0-.314.313-2.885 2.901-3.18 3.226l4.859 4.859c.873-.887 2.091-2.111 2.3-2.321 10.562-10.562 27.685-10.562 38.247 0 .333.333.656.673.968 1.019a27.003 27.003 0 0 0-4.947-6.783z" fill="#65788e"></path><path d="m212.311 482.428-66.556-66.557-24.01 24.009 48.772 48.772c9.795 9.795 25.774 9.795 35.569 0z" fill="#8192a5"></path><path d="m212.311 482.428-66.556-66.557-24.011 24.009 1.386 1.386 17.902-17.902 65.171 65.172z" fill="#65788e"></path><path d="m153.89 424.004-34.006 34.007c-17.8 17.8-46.927 17.799-64.727-.001-17.799-17.799-17.8-46.926.001-64.726l34.008-34.007c22.949-34.839 32.583-80.014 42.763-116.348 1.369-4.887 4.952-8.409 9.862-9.695s9.759.028 13.348 3.617l119.907 119.908c3.679 3.679 4.97 8.701 3.52 13.699-1.449 4.997-5.228 8.549-10.305 9.689-38.954 8.74-79.536 19.055-114.371 43.857z" fill="#ffe177"></path><path d="M83.409 471.175c-10.325-.919-20.393-5.306-28.251-13.165-17.8-17.799-17.8-46.926.001-64.726l34.008-34.007c22.949-34.839 32.583-80.014 42.763-116.348 1.369-4.887 4.952-8.409 9.862-9.695s9.759.029 13.348 3.617l.833.834c-4.324 1.504-7.463 4.848-8.724 9.349-10.18 36.333-19.814 81.509-42.763 116.348l-34.008 34.007c-17.8 17.8-17.8 46.927 0 64.726a45.314 45.314 0 0 0 12.931 9.06z" fill="#ffd064"></path><path d="m146.394 416.507-57.228-57.229-34.008 34.007c-17.8 17.8-17.8 46.926-.001 64.726 17.8 17.8 46.927 17.801 64.727.001l9.996-9.997 24.01-24.01z" fill="#fe646f"></path><path d="m98.878 368.99-9.711-9.712-34.008 34.007c-17.8 17.8-17.8 46.927-.001 64.726 7.859 7.859 17.927 12.246 28.252 13.165a45.374 45.374 0 0 1-12.933-9.061c-17.8-17.799-17.8-46.926 0-64.726z" fill="#fd4755"></path><path d="m197.05 278.764-41.912-41.912c-3.589-3.589-8.438-4.903-13.348-3.617-4.91 1.285-8.492 4.808-9.862 9.695-1.672 5.965-3.329 12.171-5.032 18.528L249.858 384.42a1060.613 1060.613 0 0 1 18.402-4.274c5.077-1.139 8.855-4.691 10.305-9.689 1.449-4.997.159-10.019-3.521-13.698l-39.794-39.795z" fill="#fe646f"></path><path d="m155.971 237.686-.833-.833c-3.589-3.589-8.438-4.903-13.348-3.617-4.91 1.285-8.492 4.808-9.862 9.695-1.672 5.966-3.328 12.171-5.032 18.528l12.94 12.94c2.566-9.452 4.973-18.662 7.411-27.363 1.262-4.503 4.4-7.845 8.724-9.35z" fill="#fd4755"></path><path d="M224.768 252.455a7.977 7.977 0 0 1-.688-15.938c6.651-.3 13.262.699 19.423 3.016 6.017 2.263 11.576 5.75 16.301 10.475 4.725 4.726 8.213 10.285 10.475 16.302 2.317 6.161 3.316 12.772 3.016 19.422a7.977 7.977 0 0 1-15.938-.688c.204-4.52-.464-8.983-2.016-13.11-1.462-3.887-3.741-7.505-6.85-10.614s-6.727-5.389-10.614-6.85c-4.126-1.551-8.59-2.219-13.109-2.015zm76.224 32.029c.463-10.262-1.075-20.452-4.643-29.938-3.468-9.219-8.819-17.744-16.078-25.003s-15.784-12.611-25.003-16.077c-9.486-3.568-19.676-5.106-29.938-4.643a7.977 7.977 0 0 0 .688 15.938c8.131-.367 16.173.84 23.625 3.643a54.202 54.202 0 0 1 19.316 12.453 54.211 54.211 0 0 1 12.453 19.316c2.803 7.452 4.01 15.495 3.643 23.625a7.977 7.977 0 1 0 15.937.686zm-73.725-87.419c11.742-.529 23.364 1.217 34.142 5.27 10.29 3.87 19.841 9.878 28.016 18.053s14.183 17.726 18.053 28.016c4.054 10.778 5.8 22.4 5.271 34.142a7.977 7.977 0 0 0 15.938.688c.625-13.873-1.452-27.644-6.271-40.455-4.671-12.421-11.887-23.912-21.678-33.703s-21.283-17.007-33.703-21.678c-12.811-4.819-26.581-6.896-40.455-6.27a7.977 7.977 0 0 0 .687 15.937z" fill="#8ac9fe"></path></g></g></svg>