<svg viewBox="0 0 60 60" xmlns="http://www.w3.org/2000/svg"><g><path d="M59 22v25a2.006 2.006 0 0 1-2 2H3a2.006 2.006 0 0 1-2-2V20l1-2h56z" fill="#775337"></path><path d="M59 13v9c-5.8 0-5.8-2-11.6-2s-5.81 2-11.61 2-5.8-2-11.59-2-5.8 2-11.6 2S6.8 20 1 20v-7a2.006 2.006 0 0 1 2-2h54a2.006 2.006 0 0 1 2 2z" fill="#9cc824"></path><g fill="#63442a"><ellipse cx="10.5" cy="31" fill="#63442a" rx="3.5" ry="3"></ellipse><ellipse cx="26.5" cy="30" fill="#63442a" rx="3.5" ry="3"></ellipse><ellipse cx="38.5" cy="39" fill="#63442a" rx="3.5" ry="3"></ellipse><ellipse cx="19.5" cy="41" fill="#63442a" rx="2.5" ry="2"></ellipse><ellipse cx="39.5" cy="28" fill="#63442a" rx="2.5" ry="2"></ellipse><ellipse cx="51.5" cy="33" fill="#63442a" rx="2.5" ry="2"></ellipse></g></g></svg>