<svg viewBox="0 0 512 512" xmlns="http://www.w3.org/2000/svg"><g><path d="M0 256C0 114.737 114.418.197 255.636 0 396.297-.196 511.39 114.21 511.998 254.87c.352 81.427-37.315 154.071-96.269 201.199-5.176 4.138-12.446 4.411-17.96.737C357.18 429.762 308.431 414 256 414s-101.18 15.762-141.768 42.806c-5.516 3.675-12.786 3.4-17.963-.739C37.589 409.157 0 336.968 0 256z" fill="#724d44"></path><path d="M223.729 509.985c-48.051-6.044-91.958-25.406-127.904-54.274L74.996 410h151.298c11.224 0 20.323 9.099 20.323 20.323v59.492c0 12.242-10.743 21.697-22.888 20.17z" fill="#f29500"></path><path d="M234.12 410h202.884l-20.828 45.711C372.321 490.929 316.622 512 256 512c-9.157 0-18.201-.481-27.109-1.418-25.682-2.703-45.194-24.335-45.194-50.159 0-27.848 22.575-50.423 50.423-50.423z" fill="#ffa90b"></path><path d="M203.697 420H45c-8.284 0-15-6.716-15-15v-80c0-8.284 6.716-15 15-15h158.697c8.284 0 15 6.716 15 15v80c0 8.284-6.716 15-15 15z" fill="#ffa90b"></path><path d="M467 420H195.638c-8.284 0-15-6.716-15-15v-80c0-8.284 6.716-15 15-15H467c8.284 0 15 6.716 15 15v80c0 8.284-6.716 15-15 15z" fill="#ffb52d"></path><path d="M216.809 400H31c-8.284 0-15-6.716-15-15v-80c0-8.284 6.716-15 15-15h185.809c8.284 0 15 6.716 15 15v80c0 8.284-6.716 15-15 15z" fill="#ffc14f"></path><path d="M481 400H179.348c-30.376 0-55-24.624-55-55s24.624-55 55-55H481c8.284 0 15 6.716 15 15v80c0 8.284-6.716 15-15 15z" fill="#ffcd71"></path><path d="M337.843 360 378.15 57.788l129.507 17.273c3.206.428 5.169 3.741 4.003 6.758l-16.627 43.031a998.99 998.99 0 0 0-58.378 227.997l-.953 7.153z" fill="#c2eaf2"></path><path d="M.339 81.82c-1.166-3.017.797-6.331 4.003-6.758l129.507-17.273L174.157 360H76.298l-.954-7.152a998.99 998.99 0 0 0-58.378-227.997z" fill="#a6e0ec"></path><path d="M69.985 44.17c-.757-3.145 1.626-6.17 4.861-6.17h362.308c3.235 0 5.618 3.025 4.861 6.17l-10.792 44.852A999.011 999.011 0 0 0 403.5 322.735V360h-295v-37.265A999.026 999.026 0 0 0 80.777 89.021z" fill="#def4f8"></path><path d="M139.525 318.916V360H108.5v-37.265A999.026 999.026 0 0 0 80.777 89.021L69.985 44.17c-.757-3.145 1.626-6.17 4.861-6.17h28.521l5.595 23.25a1101.432 1101.432 0 0 1 30.563 257.666z" fill="#c2eaf2"></path><path d="M370 125.208a5 5 0 0 1-5 5H265a5 5 0 0 1 0-10h100a5 5 0 0 1 5 5zm-5 35H265a5 5 0 0 0 0 10h100a5 5 0 0 0 0-10zm-100-10h83.077a5 5 0 0 0 0-10H265a5 5 0 0 0 0 10zm100 70H265a5 5 0 0 0 0 10h100a5 5 0 0 0 0-10zm0 40H265a5 5 0 0 0 0 10h100a5 5 0 0 0 0-10zm-100-10h83.077a5 5 0 0 0 0-10H265a5 5 0 0 0 0 10z" fill="#91aee2"></path><path d="M208.697 180h-50c-5.523 0-10-4.477-10-10v-50c0-5.523 4.477-10 10-10h50c5.523 0 10 4.477 10 10v50c0 5.523-4.477 10-10 10z" fill="#caed73"></path><path d="M225.596 127.171 184.868 167.9a4.984 4.984 0 0 1-3.671 1.462 4.983 4.983 0 0 1-3.671-1.462l-26.364-26.365a5 5 0 1 1 7.07-7.071l22.965 22.965 37.329-37.33a5 5 0 1 1 7.07 7.072z" fill="#6e9e50"></path><path d="M218.697 220v50c0 5.523-4.477 10-10 10h-50c-5.523 0-10-4.477-10-10v-50c0-5.523 4.477-10 10-10h50c5.523 0 10 4.477 10 10z" fill="#fdbcbc"></path><path d="M220.232 215.536 190.768 245l16.829 16.829a5 5 0 1 1-7.07 7.071l-16.829-16.829-16.83 16.829c-.976.976-2.256 1.464-3.535 1.464s-2.56-.488-3.535-1.464a5 5 0 0 1 0-7.071L176.626 245l-16.829-16.829a5 5 0 1 1 7.07-7.071l16.829 16.83 29.465-29.465a5 5 0 0 1 7.071 7.071z" fill="#cc4646"></path><path d="M452 360a7.5 7.5 0 0 1-7.5 7.5h-377a7.5 7.5 0 0 1 0-15h377a7.5 7.5 0 0 1 7.5 7.5z" fill="#f29500"></path></g></svg>