<svg viewBox="0 0 464.001 464.001" xmlns="http://www.w3.org/2000/svg"><g><path d="m463.8 120.538-39.69 227.87c-1.64 9.42-9.71 15.9-19.78 15.91l-11.91.01-81.23.09s-31.56-.13-30.12-30.71c1.53-32.35 5.58-212.59 5.58-212.59s1.03-17.07 18.31-18.89l69.04-7.28 59.78-6.31c2.46-.26 5.03.6 7.02 2.33l17.52 15.26c4.26 3.71 6.37 9.21 5.48 14.31z" fill="#52528c"></path><path d="m392.42 364.328-81.23.09s-31.56-.13-30.12-30.71c1.53-32.35 5.58-212.59 5.58-212.59s1.03-17.07 18.31-18.89l69.04-7.28c-24.34 46.91-75.31 173.09 18.42 269.38z" fill="#404077"></path><path d="M434.98 123.828s-29.84 189.97-33.8 202.53c-3.96 12.54-19.74 12.05-19.74 12.05s-3.95.13-10.19.34c-13.03.44-36.04 1.21-53.95 1.81-26.47.89-23.85-17.58-23.85-17.58l4.07-179.45s.2-16.29 3.39-20.08 11.12-5.18 11.12-5.18l15.85-1.32c.83 8.68 10.51 8.35 10.51 8.35s10.33-.55 22.29-1.46c14.9-1.12 32.32-2.82 35.32-4.71 5.41-3.42 5.94-11.87 5.94-11.87l18.71-1.48c18.14-.62 14.33 18.05 14.33 18.05z" fill="#baedfe"></path><path d="M371.25 338.748c-13.03.44-36.04 1.21-53.95 1.81-26.47.89-23.85-17.58-23.85-17.58l4.07-179.45s.2-16.29 3.39-20.08 11.12-5.18 11.12-5.18l15.85-1.32c.83 8.68 10.51 8.35 10.51 8.35s10.33-.55 22.29-1.46c-21.36 52.44-41.93 139.43 10.57 214.91z" fill="#9ae1ff"></path><g fill="#52528c"><path d="M314.707 211.301a4.453 4.453 0 0 1-.946-.071c-2.348-.428-4.134-2.603-3.988-4.858l1.885-29.133c.119-1.824 1.472-3.201 3.324-3.38l27.009-2.614c2.28-.227 4.585 1.46 5.098 3.757.512 2.297-.937 4.338-3.239 4.561l-23.868 2.309-1.703 26.05c-.128 1.945-1.65 3.314-3.572 3.379zM339.26 257.845l-27.65.931c-1.273.043-2.57-.485-3.525-1.436s-1.465-2.222-1.386-3.453l1.49-23.034c.146-2.247 2.166-3.723 4.509-3.298 2.344.427 4.126 2.594 3.979 4.841l-1.174 17.959 22.426-.756c2.316-.078 4.49 1.705 4.857 3.983.366 2.277-1.212 4.185-3.526 4.263zM397.087 255.897l-27.38.922c-2.315.078-4.484-1.704-4.846-3.981-.363-2.278 1.221-4.188 3.537-4.266l24.31-.819 3.175-20.18c.348-2.207 2.514-3.506 4.834-2.903 2.322.604 3.921 2.883 3.572 5.09l-3.651 23.104c-.277 1.742-1.716 2.971-3.551 3.033zM405.502 202.576a4.465 4.465 0 0 1-1.281-.146c-2.326-.606-3.929-2.895-3.58-5.113l3.714-23.607-27.938 2.702c-2.28.225-4.58-1.458-5.089-3.757-.508-2.298.947-4.343 3.251-4.566l34.011-3.292c1.373-.136 2.804.416 3.829 1.469 1.024 1.052 1.511 2.473 1.301 3.8l-4.654 29.447c-.283 1.804-1.769 3.003-3.564 3.063z" fill="#52528c"></path><path d="M331.881 199.891c-2.222.075-4.357-1.581-4.836-3.796-.495-2.292.97-4.313 3.274-4.515l58.494-5.123c2.313-.183 4.566 1.495 5.049 3.788s-.993 4.314-3.297 4.516l-58.455 5.116a2.96 2.96 0 0 1-.229.014z" fill="#52528c"></path></g><path d="M267.4 182.438c-7.15 49.99-43.42 77.14-83.58 79.74l4.82 73.05.79 11.95.39 5.88-31.31-4.37-74.45-10.38 19.49-113.46 58.2-124.6 34.53-26.53 23.69-18.2s3.33 3.65 8.25 10.11c15.35 20.18 46.19 67.75 39.18 116.81z" fill="#ffebd4"></path><path d="m183.82 262.178 4.82 73.05c-9.37 4.21-20.06 9-30.13 13.46l-74.45-10.38 19.49-113.46 58.2-124.6 34.53-26.53 31.94-8.09s17.76 94.39-44.4 196.55z" fill="#ffd5b8"></path><path d="M189.43 347.178c-18.56-6.43-49.12-22.39-51.43-58.18-3.33-51.67 45.82-26.82 45.82-26.82l4.82 73.05z" fill="#ffebd4"></path><path d="M291.79 49.258c-6.52 31.35-39.83 54.67-39.83 54.67s-65.89-61.27-65.58 73.83c.01 3.94.07 8.05.2 12.33l-16.05 40.14c-17.74 11.12-38.97 18.07-68.99 6.3 0 0-108.12-146.88-16.9-161.07 0 0 9.77-43.45 30.62-61.3 25.34-21.65 29.07-1.65 28.66 14.51 32.32-21.39 60.99-29.06 84.3-28.65 43.02.74 67.79 28.99 63.57 49.24z" fill="#52528c"></path><path d="M186.38 177.758c.01 3.94.07 8.05.2 12.33l-16.05 40.14c-17.74 11.12-38.97 18.07-68.99 6.3 0 0-108.12-146.88-16.9-161.07 0 0 9.77-43.45 30.62-61.3 25.34-21.65 29.07-1.65 28.66 14.51-66.58 59.67-11.11 83.33-11.11 83.33.3 33 33 33.5 33 33.5zM291.79 49.258c-6.52 31.35-39.83 54.67-39.83 54.67 21.88-41.95-2.8-81-23.74-103.91 43.02.74 67.79 28.99 63.57 49.24z" fill="#404077"></path><path d="M172.55 124.367c-36.057 6.653-20.713 67.085 24.786 72.598l8.068-61.213c-5.548-7.841-15.42-14.602-32.854-11.385z" fill="#ffd5b8"></path><path d="m187.065 142.88 2.588 36.286c7.839-22.83-2.588-36.286-2.588-36.286z" fill="#ffc7a1"></path><path d="M62.073 331.31s2.481-52.791 73.733-51.384 67.707 60.182 67.707 60.182z" fill="#52528c"></path><path d="M293.07 463.998H0c1.26-66.75 22.55-162.25 134.06-162.25 93.63 0 138.01 85.06 159.01 162.25z" fill="#f79fb2"></path><path d="M190.18 463.988v.01h-14.93l-2.59-74.37s8.83 34.09 17.52 74.36zM56.3 463.998H42.18l-.01-.01c.43-32.62 2.06-59.31 2.06-59.31z" fill="#fa8292"></path></g></svg>