<svg viewBox="0 0 512 512" xmlns="http://www.w3.org/2000/svg"><g><path d="m378.041 370.238 29.27-29.27 41.529 41.527-29.27 29.271z" fill="#ecdaec"></path><path d="m448.929 382.493-41.534-41.534-15.339 15.339 13.799 31.811 27.735 9.723h15.339z" fill="#ecdaec"></path><path d="m392.056 356.298-13.936 13.935 41.534 41.534h13.936v-13.935z" fill="#e2cbe2"></path><path d="M15.484 502.419h341.04c8.551 0 15.484-5.903 15.484-24.482V114.516L276.072 0H15.484C6.933 0 0 6.932 0 15.484v462.452c0 18.58 6.933 24.483 15.484 24.483z" fill="#f9f6f6"></path><path d="M276.072 80.451c0 8.551 6.932 15.484 15.484 15.484" fill="#e2cbe2"></path><g fill="#365e7d"><path d="M317.054 157.887H144.202a7.742 7.742 0 1 1 0-15.484h172.852a7.742 7.742 0 1 1 0 15.484zM243.525 195.603h-99.323a7.742 7.742 0 1 1 0-15.484h99.323a7.742 7.742 0 1 1 0 15.484zM206.564 266.441h-62.362a7.742 7.742 0 1 1 0-15.484h62.362a7.742 7.742 0 1 1 0 15.484zM207.116 304.156h-62.914a7.742 7.742 0 1 1 0-15.484h62.914a7.742 7.742 0 1 1 0 15.484zM241.348 377.2h-97.146a7.742 7.742 0 1 1 0-15.484h97.146a7.742 7.742 0 1 1 0 15.484zM315.807 414.915H144.202a7.742 7.742 0 1 1 0-15.484h171.605a7.742 7.742 0 1 1 0 15.484z" fill="#365e7d"></path></g><path d="M224.944 361.716c50.183 50.182 131.544 50.182 181.726 0 22.727-22.727 37.302-56.311 37.302-92.361-2.142-29.724-14.575-58.846-37.302-81.573-50.182-50.182-131.544-50.182-181.726 0-22.727 22.727-35.16 51.848-37.302 81.573 0 34.712 14.575 69.634 37.302 92.361z" fill="#e2cbe2"></path><path d="M223.238 269.355c0 27.06 10.979 51.246 26.78 67.047 36.334 36.334 95.243 36.334 131.577 0 15.801-15.801 26.78-41.915 26.78-67.047-2.058-20.626-10.979-40.697-26.78-56.498-36.334-36.334-95.243-36.334-131.577 0-15.801 15.801-24.722 35.872-26.78 56.498z" fill="#ffe27a"></path><path d="M272.791 270.612c.582.833 1.999 11.363 1.999 11.363l21.35 20.761a16.211 16.211 0 0 0 11.34 4.605c4.232 0 8.46-1.642 11.648-4.91l40.494-41.523s1.189-10.353 1.693-11.077a16.321 16.321 0 0 0-1.982-2.348c-6.432-6.271-16.732-6.143-23.006.289l-29.151 29.892-9.703-9.436c-6.442-6.263-16.741-6.12-23.005.322a16.35 16.35 0 0 0-1.677 2.062z" fill="#98db7c"></path><path d="M509.307 458.164c4.976-10.684 3.056-23.785-5.761-32.602l-45.194-45.194a5.16 5.16 0 0 0-7.299 0l-23.237 23.237-3.372 13.452 42.309 43.829c8.834 8.834 29.761 10.674 42.554-2.722z" fill="#ff4755"></path><path d="m476.643 452.433-48.828-48.828-10.286 10.286a5.16 5.16 0 0 0 0 7.299l45.194 45.194c11.273 11.273 29.549 11.273 40.822 0a28.787 28.787 0 0 0 5.761-8.22c-10.694 5.012-23.829 3.103-32.663-5.731z" fill="#fc2b3a"></path><path d="M62.515 185.932h33.87c5.288 0 9.575-7.536 9.575-18.575v-15.29a9.575 9.575 0 0 0-9.575-9.575h-33.87a9.575 9.575 0 0 0-9.575 9.575v15.29c.001 11.512 4.287 18.575 9.575 18.575z" fill="#98db7c"></path><path d="M276.072 80.451v18.581c0 8.551 6.932 15.484 15.484 15.484h80.451V95.935z" fill="#ecdaec"></path><path d="M291.556 95.935h80.451L276.072 0v80.451c0 8.552 6.933 15.484 15.484 15.484z" fill="#e2cbe2"></path><path d="m359.623 251.908-40.494 41.523a16.22 16.22 0 0 1-11.648 4.91 16.216 16.216 0 0 1-11.34-4.605l-21.35-20.761a16.316 16.316 0 0 1-1.999-2.363c-4.476 6.42-3.795 15.31 1.999 20.944l21.35 20.761a16.211 16.211 0 0 0 11.34 4.605c4.232 0 8.46-1.642 11.648-4.91l40.494-41.523c5.542-5.683 6.078-14.381 1.694-20.657a16.289 16.289 0 0 1-1.694 2.076zM96.386 176.932h-33.87a9.575 9.575 0 0 1-9.575-9.575v18.581a9.575 9.575 0 0 0 9.575 9.575h33.87a9.575 9.575 0 0 0 9.575-9.575v-18.581c-.001 5.289-4.287 9.575-9.575 9.575z" fill="#82d361"></path><path d="M62.515 294.486h33.87c5.288 0 9.575-7.536 9.575-18.575v-15.29a9.575 9.575 0 0 0-9.575-9.575h-33.87a9.575 9.575 0 0 0-9.575 9.575v15.29c.001 11.512 4.287 18.575 9.575 18.575z" fill="#98db7c"></path><path d="M96.386 285.486h-33.87a9.575 9.575 0 0 1-9.575-9.575v18.581a9.575 9.575 0 0 0 9.575 9.575h33.87a9.575 9.575 0 0 0 9.575-9.575v-18.581c-.001 5.288-4.287 9.575-9.575 9.575z" fill="#82d361"></path><path d="M62.515 405.245h33.87c5.288 0 9.575-7.536 9.575-18.575v-15.29a9.575 9.575 0 0 0-9.575-9.575h-33.87a9.575 9.575 0 0 0-9.575 9.575v15.29c.001 11.512 4.287 18.575 9.575 18.575z" fill="#98db7c"></path><path d="M96.386 396.245h-33.87a9.575 9.575 0 0 1-9.575-9.575v18.581a9.575 9.575 0 0 0 9.575 9.575h33.87a9.575 9.575 0 0 0 9.575-9.575V386.67c-.001 5.288-4.287 9.575-9.575 9.575z" fill="#82d361"></path><path d="M356.524 493.419H15.484C6.933 493.419 0 486.487 0 477.935v18.581C0 505.068 6.933 512 15.484 512h341.04c8.551 0 15.484-6.932 15.484-15.484v-18.581c0 8.552-6.933 15.484-15.484 15.484z" fill="#ecdaec"></path><path d="M406.67 350.927c-50.182 50.182-131.544 50.182-181.726 0-22.727-22.727-35.16-51.848-37.302-81.573-2.587 35.909 9.846 72.698 37.302 100.153 50.182 50.182 131.544 50.182 181.726 0 27.456-27.456 39.889-64.244 37.302-100.153-2.142 29.725-14.576 58.847-37.302 81.573z" fill="#dab9d8"></path><path d="M381.595 325.853c-36.334 36.334-95.243 36.334-131.577 0-15.801-15.801-24.722-35.872-26.78-56.498-2.674 26.804 6.247 54.546 26.78 75.079 36.334 36.334 95.243 36.334 131.577 0 20.533-20.533 29.454-48.275 26.78-75.079-2.058 20.626-10.979 40.697-26.78 56.498z" fill="#f9cf58"></path></g></svg>