<svg viewBox="0 0 512 512" xmlns="http://www.w3.org/2000/svg"><g><path d="m96 176 40-40 3.157-45.883A63.38 63.38 0 0 1 202.318 32a63.38 63.38 0 0 1 60.128 43.338L280 128h-32v24a24 24 0 0 1-24 24z" fill="#feb784"></path><path d="M264 40a16 16 0 0 1-16 16h-40l-8.33 32.16-11.61-11.85a17.058 17.058 0 0 0-24.49 23.75l4.43 4.62L136 136V64a40 40 0 0 1 40-40h72a15.979 15.979 0 0 1 16 16z" fill="#7a432a"></path><path d="M264 40a16 16 0 0 1-16 16h-40l-8.33 32.16-11.61-11.85a17.058 17.058 0 0 0-24.49 23.75l4.43 4.62L136 136V80.35A479.894 479.894 0 0 0 222.56 24H248a15.979 15.979 0 0 1 16 16z" fill="#6e3c26"></path><circle cx="228" cy="100" fill="#92563a" r="12"></circle><path d="M240 176H88a40 40 0 0 0-40 40v176h136l8-72a98 98 0 0 0 46.6-70.179L240 240h136v-64z" fill="#feb784"></path><path d="M488 220a44.012 44.012 0 0 1-83.19 20H376v-64h72v.19A44 44 0 0 1 488 220z" fill="#f35244"></path><path d="M488 220a43.987 43.987 0 0 1-77.22 28.83 465.9 465.9 0 0 0 70.16-52.73A43.78 43.78 0 0 1 488 220z" fill="#e64c3f"></path><path d="M120 224a48 48 0 0 0-48.82-47.993C44.861 176.446 24 198.468 24 224.79V344a16 16 0 0 0 16 16h48v-90.742A48.012 48.012 0 0 0 120 224z" fill="#fec093"></path><path d="M160 256 88 360H40a16 16 0 0 1-16-16v-40l88-96c.931 0 48 48 48 48z" fill="#fec9a3"></path><path d="M208 488H48v-56h136l6.86 16z" fill="#f35244"></path><path d="M208 488H48v-17.75A544.233 544.233 0 0 0 152.68 432H184l6.86 16z" fill="#e64c3f"></path><path d="M48 392h136v40H48z" fill="#4d5e78"></path><path d="M48 408h136v24H48z" fill="#435269"></path><g fill="#3b495e"><path d="M72 392h16v40H72zM104 392h16v40h-16zM136 392h16v40h-16z" fill="#3b495e"></path></g><rect fill="#f7ad7c" rx="8"></rect><path d="M232 188a43.946 43.946 0 0 1-49.56 43.64L160 256l-22.42-22.42L112 208l37.48-41.27A44 44 0 0 1 232 188z" fill="#f35244"></path><path d="M232 188a43.946 43.946 0 0 1-49.56 43.64L160 256l-22.42-22.42a464.787 464.787 0 0 0 87.63-69.06A43.671 43.671 0 0 1 232 188zM190.86 448H48v-16h136z" fill="#e64c3f"></path></g></svg>