<svg id="Capa_1" enable-background="new 0 0 512.104 512.104" height="512" viewBox="0 0 512.104 512.104" width="512" xmlns="http://www.w3.org/2000/svg"><g><g><g><g><g><g><circle cx="256.052" cy="256" fill="#ffce00" r="256"/></g></g></g></g></g><path d="m512.052 256.104c0-18.597-1.983-36.73-5.749-54.201l-96.804-96.803-4.998 7.02-28.884-28.884-69.562 140.247-140.247-140.247-63.203 323.872 99.246 99.247c17.471 3.766 35.604 5.749 54.201 5.749 141.385 0 256-114.615 256-256z" fill="#ff9d00"/><g><path d="m102.604 105.1h153.849v72.941h-153.849z" fill="#fe8205"/></g><g><path d="m102.604 178.041h153.849v229.067h-153.849z" fill="#fff"/></g><g><path d="m255.696 105.1h153.803v72.941h-153.803z" fill="#fa5d0f"/></g><g><path d="m255.696 178.041h153.803v229.067h-153.803z" fill="#e9edf5"/></g><g><g><path d="m136.486 83.236h29.321v51.801h-29.321z" fill="#636978"/></g><g><path d="m346.296 83.236h29.321v51.801h-29.321z" fill="#414952"/></g></g><g><path d="m247.701 194.201-29.565 29.185 12.435 13.07 14.212-14.339v56.721h11.671v-84.637z" fill="#636978"/></g><g><path d="m255.696 194.201h10.913v84.637h-10.913z" fill="#414952"/></g><g><g fill="#636978"><path d="m149.873 372.404v-27.111l-25.498-40.112h19.552l14.614 24.793 14.412-24.793h19.652l-25.397 40.112v27.111z"/><path d="m197.545 372.404v-67.223h49.284v15.118h-31.949v10.482h31.243v15.118h-31.243v11.389h31.949v15.118h-49.284z"/><path d="m249.752 372.404h6.702v-17.809z"/></g><path d="m296.819 305.18h-21.77l-19.353 51.428v15.795h13.709l3.326-9.675h26.507l3.325 9.675h19.653zm-19.453 42.431 8.567-25.297 8.566 25.297z" fill="#414952"/><path d="m364.647 372.404-11.288-22.576h-8.869v22.576h-17.335v-67.223h33.662c14.916 0 23.382 9.877 23.382 22.374 0 11.691-7.155 17.94-13.404 20.157l13.707 24.692zm1.915-44.95c0-4.535-3.83-7.156-8.365-7.156h-13.707v14.412h13.707c4.535 0 8.365-2.519 8.365-7.256z" fill="#414952"/></g></g></svg>