<svg viewBox="0 0 512 512" xmlns="http://www.w3.org/2000/svg"><g><path d="m412.751 3.012-14.714 78.473 31.989-12.136c4.773-31.025-4.241-55.187-10.4-67.338-1.589-3.136-6.227-2.454-6.875 1.001zM223.254 110.933l-18.977 101.212 39.976-14.88c3.997-41.567-9.634-74.062-16.277-87.062-1.096-2.146-4.278-1.638-4.722.73zM282.856 339.577 259.937 461.81l50.19-16.73c5.968-53.715-9.355-90.397-18.626-107.007-2.123-3.807-7.842-2.78-8.645 1.504z" fill="#dad8db"></path><g fill="#eceaec"><path d="M312.524 436.714h-10.167a41.828 41.828 0 0 0-29.575 12.25l-12.845 12.845-133.635-105.501-11.427.442c6.168 26.784 25.906 80.974 103.792 119.917L170.25 506.25l4.363 5.75h61.493c29.752 0 56.713-17.521 68.797-44.709l11.165-25.122c1.14-2.565-.737-5.455-3.544-5.455zM245.474 191.876h-6.935a33.782 33.782 0 0 0-23.887 9.894l-10.375 10.375-103.255-81.517-6.189 2.039c5.142 21.916 15.729 62.781 78.167 94l-29.167 17.667 1.711 8.35h39.485a60.81 60.81 0 0 0 55.567-36.111l8.5-19.124c1.164-2.622-.754-5.573-3.622-5.573zM373.667 93.667C343 69.667 331.845 57.33 326.625 38l7.266-7.157 64.147 50.642 8.457-8.457a27.537 27.537 0 0 1 19.472-8.065h4.112c3.062 0 5.111 3.152 3.867 5.95l-6.302 14.18a49.566 49.566 0 0 1-45.294 29.436h-26.736l2.054-7.029zM151.191 60.287a8.302 8.302 0 0 1-5.016-1.675l-33.46-25.095c-3.701-2.769-4.452-8.014-1.675-11.706 2.769-3.701 8.022-4.444 11.706-1.675l27.66 20.741 28.33-28.33c3.268-3.268 8.561-3.268 11.829 0s3.268 8.561 0 11.829l-33.46 33.46a8.327 8.327 0 0 1-5.914 2.451zM368.683 261.048a8.302 8.302 0 0 1-5.016-1.675l-33.46-25.095c-3.701-2.769-4.452-8.014-1.675-11.706 2.769-3.701 8.014-4.436 11.706-1.675l27.66 20.741 28.33-28.33c3.268-3.268 8.561-3.268 11.829 0s3.268 8.561 0 11.829l-33.46 33.46a8.328 8.328 0 0 1-5.914 2.451z" fill="#eceaec"></path></g><path d="M103.202 348.69c6.169 26.784 28.658 90.906 106.544 129.849l-54.494 27.247c-3.096 1.548-1.994 6.214 1.467 6.214h17.894l50.075-26.951c5.978-3.217 5.762-11.776-.298-14.835-75.599-38.172-96.732-99.878-98.09-113.907l-15.639-12.346c-3.481-2.749-8.454.407-7.459 4.729zM101.023 130.628l-16.892-13.336c-2.947-2.327-7.191.321-6.333 3.977 5.142 21.916 23.503 73.17 85.941 104.389l-39.036 19.518c-3.74 1.87-2.41 7.508 1.772 7.508h19.069l33.575-19.967c5.758-3.424 5.285-11.775-.72-14.744-53.722-26.56-73.462-68.711-77.376-87.345zM333.889 30.841 302.772 6.274c-3.309-2.612-8.075.454-6.976 4.525 5.219 19.33 21.294 57.749 69.198 81.7l-27.454 13.727c-4.137 2.068-2.665 8.303 1.96 8.303h16.113l23.803-14.133c5.577-3.311 5.601-11.528-.085-14.648-28.193-15.468-40.652-38.87-45.442-54.907z" fill="#dad8db"></path></g></svg>