<svg viewBox="0 0 512 512" xmlns="http://www.w3.org/2000/svg"><g><path d="M122.905 34.8c89.219-5.097 178.439-2.691 267.668 7.209 13.367 1.483 23.825 12.245 24.988 25.644 11.836 136.297 11.835 272.603 0 408.9-1.169 13.461-11.725 24.172-25.155 25.66-117.713 13.049-235.418 13.049-353.131 0-13.43-1.489-23.986-12.201-25.155-25.663C2.764 368.842.809 261.135 6.246 153.428" fill="#ecf4ff"></path><path d="M93.8 150.082a939.233 939.233 0 0 1-87.554 3.346C8.063 117.193 86.682 36.862 122.905 34.8a940.289 940.289 0 0 1-3.33 89.578c-1.164 13.691-12.084 24.541-25.775 25.704z" fill="#ddeafb"></path><path d="M505.5 241.411a277.982 277.982 0 0 1-27.247 4.574 252.753 252.753 0 0 1-15.483 1.38c-10.919.67-21.839.67-32.758 0a261.746 261.746 0 0 1-15.483-1.38 278.484 278.484 0 0 1-27.247-4.574 2127.937 2127.937 0 0 1 0-234.954 278.484 278.484 0 0 1 27.247-4.574 261.746 261.746 0 0 1 15.483-1.38c10.92-.67 21.839-.67 32.758 0 5.161.299 10.322.762 15.483 1.38A277.932 277.932 0 0 1 505.5 6.457a2123.038 2123.038 0 0 1 0 234.954z" fill="#d57080"></path><path d="M422.356 246.793a281.018 281.018 0 0 1-35.07-5.381 2119.73 2119.73 0 0 1 0-234.96 279.036 279.036 0 0 1 35.07-5.393 6970.209 6970.209 0 0 0 0 245.734z" fill="#cb5769"></path><path d="M430.084 252.093a7.721 7.721 0 0 1-7.592 7.85h-.134a7.721 7.721 0 0 1-7.726-7.592c-.031-2.122-.072-4.244-.103-6.366a7651.46 7651.46 0 0 1 0-244.102 261.746 261.746 0 0 1 15.483-1.38 7643.004 7643.004 0 0 0 0 246.863c.02 1.575.041 3.151.072 4.727zM478.253 245.984c-.031 2.122-.072 4.244-.103 6.366a7.719 7.719 0 0 1-7.716 7.592h-.134c-4.275-.072-7.675-3.585-7.602-7.85.031-1.576.052-3.152.072-4.728a7585.932 7585.932 0 0 0 0-246.863c5.161.299 10.322.762 15.483 1.38a7593.033 7593.033 0 0 1 0 244.103z" fill="#c63d4f"></path><path d="M505.501 241.415s-6.347 22.23-21.571 44.763c-9.135 13.52-21.465 7.316-37.538 16.318-15.922-8.92-28.173-2.55-37.283-15.948-15.406-22.659-21.827-45.133-21.827-45.133z" fill="#ffddce"></path><path d="M446.391 302.496c-15.922-8.92-28.173-2.55-37.283-15.948-15.406-22.659-21.827-45.133-21.827-45.133h34.697c1.17 7.919 3.864 23.936 8.723 41.231 3.803 13.534 8.93 8.018 15.69 19.85z" fill="#ffcbbe"></path><path d="M483.674 286.548c-9.108 13.394-21.349 26.859-37.283 35.78-15.933-8.922-28.175-22.386-37.283-35.78 6.686-1.805 13.942-3.133 21.594-3.902 5.067-.512 10.308-.78 15.689-.78 13.476 0 26.159 1.689 37.283 4.682z" fill="#365e7d"></path><path d="M446.391 322.328c-15.933-8.922-28.175-22.386-37.283-35.78 6.686-1.805 13.942-3.133 21.594-3.902 3.808 13.534 8.933 27.849 15.689 39.682z" fill="#2b4d66"></path><g fill="#365e7d"><path d="M105.821 265.321c-6.408 0-12.816-.222-19.179-.667-10.031-.701-18.125-8.795-18.826-18.826a276.174 276.174 0 0 1 0-38.358c.701-10.031 8.794-18.125 18.826-18.826a276.174 276.174 0 0 1 38.358 0c10.031.701 18.125 8.795 18.826 18.826a276.174 276.174 0 0 1 0 38.358c-.701 10.031-8.794 18.125-18.826 18.826-6.363.445-12.771.667-19.179.667zm18.64-8.374h.01zm-18.64-53.518c-6.049 0-12.096.21-18.102.63a4.858 4.858 0 0 0-4.488 4.488 260.38 260.38 0 0 0 0 36.204 4.858 4.858 0 0 0 4.488 4.489c12.011.84 24.191.84 36.203 0a4.858 4.858 0 0 0 4.488-4.488 260.38 260.38 0 0 0 0-36.204 4.858 4.858 0 0 0-4.488-4.489c-6.004-.42-12.054-.63-18.101-.63zM357.486 248.583h-192.03a7.726 7.726 0 1 1 0-15.452h192.03a7.726 7.726 0 1 1 0 15.452zM277.696 220.168h-112.24a7.726 7.726 0 1 1 0-15.452h112.24a7.726 7.726 0 1 1 0 15.452zM105.821 361c-6.408 0-12.816-.222-19.179-.667-10.031-.701-18.125-8.794-18.826-18.826a276.174 276.174 0 0 1 0-38.358c.701-10.031 8.794-18.124 18.826-18.825 12.725-.89 25.632-.89 38.358 0 10.031.701 18.125 8.795 18.826 18.826a276.174 276.174 0 0 1 0 38.358c-.701 10.031-8.794 18.125-18.826 18.825-6.363.445-12.771.667-19.179.667zm-.001-61.892c-6.048 0-12.096.21-18.101.63a4.858 4.858 0 0 0-4.488 4.488 260.38 260.38 0 0 0 0 36.204 4.857 4.857 0 0 0 4.488 4.488c12.013.84 24.192.84 36.204 0a4.858 4.858 0 0 0 4.488-4.488 260.38 260.38 0 0 0 0-36.204 4.857 4.857 0 0 0-4.488-4.488c-6.006-.42-12.055-.63-18.103-.63zM357.486 344.262h-192.03a7.726 7.726 0 1 1 0-15.452h192.03a7.726 7.726 0 1 1 0 15.452zM277.696 315.847h-112.24a7.726 7.726 0 1 1 0-15.452h112.24a7.726 7.726 0 1 1 0 15.452zM105.821 456.68c-6.408 0-12.816-.222-19.179-.667-10.031-.701-18.125-8.795-18.826-18.826a276.174 276.174 0 0 1 0-38.358c.701-10.031 8.794-18.125 18.826-18.826a276.174 276.174 0 0 1 38.358 0c10.031.701 18.125 8.795 18.826 18.826a276.174 276.174 0 0 1 0 38.358c-.701 10.031-8.794 18.125-18.826 18.826-6.363.444-12.771.667-19.179.667zm18.64-8.375h.01zm-18.641-53.517c-6.048 0-12.096.21-18.101.629a4.858 4.858 0 0 0-4.488 4.489 260.38 260.38 0 0 0 0 36.204 4.858 4.858 0 0 0 4.488 4.489c12.011.84 24.191.84 36.203 0a4.858 4.858 0 0 0 4.488-4.488 260.38 260.38 0 0 0 0-36.204 4.858 4.858 0 0 0-4.488-4.489c-6.005-.42-12.054-.63-18.102-.63zM357.486 439.941h-192.03a7.726 7.726 0 1 1 0-15.452h192.03a7.726 7.726 0 1 1 0 15.452zM277.696 411.526h-112.24a7.726 7.726 0 1 1 0-15.452h112.24a7.726 7.726 0 1 1 0 15.452z" fill="#365e7d"></path></g><g fill="#5766cb"><path d="M228.057 165.445h-27.019a7.726 7.726 0 0 1-7.726-7.726V93.597a7.726 7.726 0 0 1 7.726-7.726h27.019a7.726 7.726 0 1 1 0 15.452h-19.292v48.67h19.292a7.726 7.726 0 1 1 0 15.452z" fill="#5766cb"></path><path d="M226.065 133.384h-25.026a7.726 7.726 0 1 1 0-15.452h25.026a7.726 7.726 0 1 1 0 15.452z" fill="#5766cb"></path></g><path d="M273.643 165.445c-10.822 0-21.393-4.535-28.276-12.131a7.726 7.726 0 1 1 11.449-10.376c4.004 4.418 10.294 7.055 16.827 7.055 6.444 0 10.99-3.893 11.661-7.657.907-5.08-5.794-8.137-8.716-9.215a351.815 351.815 0 0 1-19.3-7.827 7.725 7.725 0 0 1-1.072-.584c-6.704-4.371-10.158-12.036-9.013-20.005 1.22-8.502 7.443-15.43 16.24-18.08 17.49-5.271 31.9 6.611 32.505 7.119a7.727 7.727 0 0 1-9.905 11.861c-.228-.183-8.828-6.991-18.143-4.184-4.354 1.312-5.229 4.27-5.402 5.481-.128.893-.192 3.044 1.753 4.576 2.223.974 9.676 4.192 17.685 7.147 16.117 5.945 20.165 17.55 18.58 26.428-2.11 11.815-13.412 20.392-26.873 20.392z" fill="#5766cb"></path><g fill="#5766cb"><path d="M178.256 100.732h-35.739a7.726 7.726 0 1 1 0-15.452h35.739a7.726 7.726 0 1 1 0 15.452z" fill="#5766cb"></path><path d="M160.315 165.445a7.726 7.726 0 0 1-7.726-7.726V95.072a7.726 7.726 0 1 1 15.452 0v62.647a7.726 7.726 0 0 1-7.726 7.726zM346.976 100.732h-35.738a7.726 7.726 0 1 1 0-15.452h35.738a7.726 7.726 0 1 1 0 15.452z" fill="#5766cb"></path><path d="M329.034 165.445a7.726 7.726 0 0 1-7.726-7.726V95.072a7.726 7.726 0 1 1 15.452 0v62.647a7.726 7.726 0 0 1-7.726 7.726z" fill="#5766cb"></path></g></g></svg>