<svg viewBox="0 0 512 512" xmlns="http://www.w3.org/2000/svg"><g><path d="M8.348 231.485a7.557 7.557 0 0 1-7.557-7.557V82.056c0-17.313 14.085-31.398 31.397-31.398h472.254c4.174 0 7.557 3.383 7.557 7.557s-3.383 7.557-7.557 7.557H32.189c-8.979 0-16.283 7.305-16.283 16.284v141.872a7.558 7.558 0 0 1-7.558 7.557z" fill="#c9beb9"></path><path d="M467.398 106.738a7.557 7.557 0 0 1-7.557-7.557V59.223c0-4.174 3.383-7.557 7.557-7.557s7.557 3.383 7.557 7.557v39.958a7.557 7.557 0 0 1-7.557 7.557z" fill="#c9beb9"></path><path d="M388.04 196.421H13.448C6.021 196.421 0 202.442 0 209.869v209.536h401.488V209.869c0-7.427-6.021-13.448-13.448-13.448z" fill="#eedfda"></path><path d="M387.938 196.421h-21.926c7.483 0 13.55 6.066 13.55 13.55v209.434h21.926V209.971c0-7.483-6.067-13.55-13.55-13.55z" fill="#c9beb9"></path><path d="M355.655 312.007a26.389 26.389 0 0 1 .638-13.546 66.374 66.374 0 0 0 3.106-20.124v-78.16a66.452 66.452 0 0 0-3.049-19.957 26.394 26.394 0 0 1-.617-13.48l5.572-25.846c1.099-5.097-3.432-9.627-8.529-8.529l-25.127 5.417a26.313 26.313 0 0 1-13.839-.733 66.25 66.25 0 0 0-20.908-3.37H108.273a66.25 66.25 0 0 0-20.908 3.37 26.324 26.324 0 0 1-13.839.733l-25.127-5.417c-5.097-1.099-9.627 3.432-8.529 8.529l5.572 25.846a26.405 26.405 0 0 1-.617 13.48 66.452 66.452 0 0 0-3.049 19.957v78.16c0 7.016 1.09 13.776 3.106 20.124a26.388 26.388 0 0 1 .638 13.546l-5.649 26.205c-1.099 5.097 3.432 9.627 8.529 8.529l26.205-5.649a26.389 26.389 0 0 1 13.546.638 66.374 66.374 0 0 0 20.124 3.106h184.628c7.016 0 13.776-1.09 20.124-3.106a26.388 26.388 0 0 1 13.546-.638l26.205 5.649c5.097 1.099 9.627-3.432 8.529-8.529z" fill="#80b4fb"></path><path d="M355.655 312.007a26.389 26.389 0 0 1 .638-13.546 66.374 66.374 0 0 0 3.106-20.124v-78.16a66.457 66.457 0 0 0-3.049-19.957 26.394 26.394 0 0 1-.617-13.48l5.572-25.846c1.099-5.097-3.432-9.627-8.529-8.529l-25.127 5.417c-4.427.954-9.02.753-13.34-.586.117.456.238.912.38 1.362a66.452 66.452 0 0 1 3.049 19.957v78.16c0 7.016-1.09 13.776-3.106 20.124a26.388 26.388 0 0 0-.638 13.546l5.649 26.205c1.099 5.097-3.432 9.627-8.529 8.529l-26.205-5.649a26.389 26.389 0 0 0-13.546.638 66.374 66.374 0 0 1-20.124 3.106H66.613a66.374 66.374 0 0 1-20.124-3.106 25.111 25.111 0 0 0-1.254-.353 26.395 26.395 0 0 1 .285 12.292l-5.649 26.205c-1.099 5.097 3.432 9.627 8.529 8.529l26.205-5.649a26.389 26.389 0 0 1 13.546.638 66.374 66.374 0 0 0 20.124 3.106h184.628c7.016 0 13.776-1.09 20.124-3.106a26.388 26.388 0 0 1 13.546-.638l26.205 5.649c5.097 1.099 9.627-3.432 8.529-8.529z" fill="#61a2f9"></path><path d="M284.637 285.1H116.538c-48.739 0-88.25 39.511-88.25 88.25v43.369h344.599V373.35c0-48.739-39.511-88.25-88.25-88.25z" fill="#f9f6f6"></path><path d="M283.966 285.1h-37.224c49.11 0 88.921 39.811 88.921 88.921v42.698h37.224v-42.698c0-49.11-39.811-88.921-88.921-88.921z" fill="#eedfda"></path><path d="M230.328 308.841h-59.48c-7.541 0-13.655-6.113-13.655-13.655v-48.41h86.79v48.41c0 7.541-6.114 13.655-13.655 13.655z" fill="#ffcbbe"></path><path d="M221.604 246.776v48.306c0 7.599-6.16 13.759-13.759 13.759h22.379c7.599 0 13.759-6.16 13.759-13.759v-48.306z" fill="#ffa68d"></path><path d="M234.362 99.634h-67.548c-17.673 0-32 14.327-32 32v46.604h131.548v-46.604c0-17.673-14.327-32-32-32z" fill="#c56e37"></path><path d="M234.361 99.634H217.9c16.613 0 30.08 13.467 30.08 30.08v48.524h18.381v-46.604c0-17.673-14.326-32-32-32z" fill="#8f4e24"></path><path d="M141.901 197.023c3.917 12.046 7.938 24.374-2.337 27.715s-23.448-8.848-27.366-20.894c-3.917-12.046 1.237-24.52 11.511-27.861 10.276-3.341 14.275 8.994 18.192 21.04zM259.273 197.023c-3.917 12.046-7.938 24.374 2.337 27.715s23.448-8.848 27.366-20.894c3.917-12.046-1.237-24.52-11.511-27.861-10.275-3.341-14.274 8.994-18.192 21.04z" fill="#ffcbbe"></path><path d="M230.044 138.936h-58.913c-20.058 0-36.317 16.26-36.317 36.317v42.638c0 36.052 29.226 65.278 65.278 65.278h.992c36.052 0 65.278-29.226 65.278-65.278v-42.638c0-20.057-16.26-36.317-36.318-36.317z" fill="#ffcbbe"></path><path d="M240.382 140.505a36.578 36.578 0 0 1 1.569 10.614v41.866c0 36.326-29.448 65.774-65.774 65.774a65.437 65.437 0 0 1-32.668-8.696c11.343 19.775 32.647 33.106 57.078 33.106 36.326 0 65.774-29.448 65.774-65.774v-41.866c0-16.517-10.946-30.474-25.979-35.024z" fill="#ffa68d"></path><circle cx="169.763" cy="191.309" fill="#873e2f" r="9.055"></circle><circle cx="231.412" cy="191.309" fill="#873e2f" r="9.055"></circle><path d="M213.019 239.722h-27.205c-4.174 0-7.557-3.383-7.557-7.557s3.383-7.557 7.557-7.557h27.205c4.174 0 7.557 3.383 7.557 7.557s-3.383 7.557-7.557 7.557z" fill="#da4a54"></path><path d="M259.273 197.023c-3.917 12.046-7.938 24.374 2.337 27.715s23.448-8.848 27.366-20.894c3.917-12.046-1.237-24.52-11.511-27.861-10.275-3.341-14.274 8.994-18.192 21.04z" fill="#ffa68d"></path><path d="M365.035 420.483a7.557 7.557 0 0 1-5.072-13.161l94.64-85.624c8.042-7.578 10.193-19.751 5.229-29.629l-20.524-40.831c-6.259-12.451-5.575-27.538 1.786-39.372l17.544-28.204a7.557 7.557 0 1 1 12.833 7.984l-17.544 28.203c-4.599 7.395-5.027 16.821-1.116 24.602l20.525 40.831c7.96 15.836 4.488 35.363-8.442 47.485l-.098.091-94.693 85.672a7.531 7.531 0 0 1-5.068 1.953z" fill="#9dc6fb"></path><path d="M467.678 201.838h-.559c-20.305 0-36.765-16.46-36.765-36.765V98.99a6.61 6.61 0 0 1 6.61-6.61h60.869a6.61 6.61 0 0 1 6.61 6.61v66.083c0 20.304-16.46 36.765-36.765 36.765z" fill="#f9f6f6"></path><path d="M497.782 92.379h-22.109a6.66 6.66 0 0 1 6.661 6.661v65.753c0 16.609-10.931 30.664-25.99 35.366a37.031 37.031 0 0 0 11.054 1.678c20.459 0 37.045-16.585 37.045-37.045V99.04a6.66 6.66 0 0 0-6.661-6.661z" fill="#eedfda"></path><path d="M430.354 128.339v36.454c0 20.459 16.585 37.045 37.045 37.045 20.459 0 37.045-16.585 37.045-37.045v-36.454z" fill="#bed8fb"></path><path d="M482.334 128.339v36.454c0 16.609-10.931 30.664-25.99 35.366a37.031 37.031 0 0 0 11.054 1.678c20.459 0 37.045-16.585 37.045-37.045v-36.454h-22.109z" fill="#9dc6fb"></path><path d="M274.459 341.64H126.792c-42.536 0-81.156 16.757-109.626 44.026a55.135 55.135 0 0 0-16.978 39.82v30.197a5.659 5.659 0 0 0 5.659 5.659h389.865a5.659 5.659 0 0 0 5.659-5.659v-29.906a55.19 55.19 0 0 0-16.874-39.72c-28.509-27.501-67.298-44.417-110.038-44.417z" fill="#80b4fb"></path><path d="M384.497 386.056c-28.51-27.501-67.298-44.416-110.038-44.416h-72.3c42.74 0 81.528 16.915 110.038 44.416a55.191 55.191 0 0 1 16.874 39.72v29.906a5.659 5.659 0 0 1-5.659 5.659h72.3a5.659 5.659 0 0 0 5.659-5.659v-29.906a55.183 55.183 0 0 0-16.874-39.72z" fill="#61a2f9"></path></g></svg>