<svg viewBox="0 0 512 512" xmlns="http://www.w3.org/2000/svg"><g><g clip-rule="evenodd" fill-rule="evenodd"><path d="m190.906 179.843 31.227 40.477c3.872 5.019 5.729 10.466 5.729 16.805v45.588l-63.488 36.655-63.488-36.655v-45.588c0-6.339 1.857-11.786 5.729-16.805l31.227-40.477z" fill="#d8ecfe"></path><path d="m190.906 179.843 31.227 40.477c3.872 5.019 5.729 10.466 5.729 16.805v45.588l-63.488 36.655-5-2.887 58.488-33.768v-45.588c0-6.339-1.857-11.786-5.729-16.805l-31.227-40.477z" fill="#c4e2ff"></path><path d="M122.116 170.912h84.515c4.4 0 8 3.6 8 8v8.605c0 4.4-3.6 8-8 8h-84.515c-4.4 0-8-3.6-8-8v-8.605c0-4.4 3.6-8 8-8z" fill="#8ac9fe"></path><path d="M208.066 171.042c3.721.682 6.564 3.959 6.564 7.87v8.605c0 4.4-3.6 8-8 8h-84.515c-3.962 0-7.274-2.918-7.895-6.712.466.085.946.13 1.436.13h84.515c4.4 0 8-3.6 8-8v-8.605a7.819 7.819 0 0 0-.105-1.288z" fill="#60b7ff"></path><path d="M346.384 115.373a7.98 7.98 0 0 1 10.937 11.625c-12.094 11.432-17.815 22.737-20.09 35.725-2.414 13.781-1.178 29.856.605 49.79.38 4.384-2.866 8.245-7.25 8.625s-8.245-2.866-8.625-7.25c-1.897-21.21-3.203-38.365-.48-53.915 2.863-16.345 9.961-30.475 24.903-44.6z" fill="#e3a76f"></path><path d="M271.761 165.637c23.872-7.064 45.999 17.734 63.372 11.614 17.62-6.208 43.924-21.296 59.587-5.333 29.722 30.293 17.504 142.073-74.938 134.413-83.619-6.929-87.77-128.932-48.021-140.694z" fill="#fe646f"></path><g fill="#fd4755"><path d="M273.435 165.197c17.129-4.036 33.315 7.677 47.438 11.716-.315.115-.629.227-.939.337-13.196 4.65-29.136-8.538-46.499-12.053zm95.159.447c9.697-1.822 19.01-.979 26.126 6.273 29.586 30.153 17.604 141.029-73.68 134.493 77.352-6.123 86.339-106.101 58.481-134.493-3.243-3.305-6.943-5.276-10.927-6.273z" fill="#fd4755"></path><path d="M268.706 239.992a7.99 7.99 0 0 1 15.437-4.125c2.831 10.603 7.623 19.787 14.59 26.259 6.068 5.638 13.964 9.303 23.868 10.124a7.995 7.995 0 0 1 7.312 8.625 7.995 7.995 0 0 1-8.625 7.312c-13.713-1.136-24.786-6.343-33.431-14.374-9.303-8.645-15.58-20.444-19.151-33.821z" fill="#fd4755"></path></g><path d="M86.276 270.558h339.447L388.799 455.18c-4.417 22.09-23.349 37.61-45.877 37.61H169.078c-22.527 0-41.459-15.518-45.877-37.61z" fill="#f2d1a5"></path><path d="M413.723 270.558h12L388.799 455.18c-4.417 22.09-23.349 37.61-45.877 37.61H169.078c-15.429 0-29.171-7.28-37.718-18.966 7.774 5.686 17.366 8.965 27.718 8.965h173.844c22.527 0 41.46-15.521 45.877-37.61z" fill="#ecba78"></path><path d="M142.851 270.558h8.044l8.579 64.345h36.237l-4.254-63.814 7.969-.531h8.004l4.29 64.345H248v-64.345h16v64.345h36.28l4.29-64.345h8l7.973.531-4.254 63.814h36.237l8.579-64.345h8.041l7.908 1.031-8.442 63.314h44.242l-3.2 16H366.48l-4.528 33.962h40.911l-3.2 16h-39.844l-4.528 33.963h37.58l-3.2 16h-36.513l-5.565 41.735a48.37 48.37 0 0 1-4.669.227h-11.448l5.595-41.963H308.56l-2.797 41.963h-16.008l2.798-41.963H264v41.963h-16v-41.963h-28.552l2.798 41.963h-16.008l-2.798-41.963h-28.509l5.595 41.963h-11.448c-1.576 0-3.133-.079-4.67-.227l-5.565-41.735H122.33l-3.2-16h37.58l-4.528-33.963h-39.844l-3.2-16h40.91l-4.528-33.962h-43.174l-3.2-16h44.241l-8.442-63.314zm23.285 114.308h32.906l-2.264-33.962h-35.17zm48.914 0H248v-33.962h-35.214zm48.95 0h32.95l2.264-33.962H264zm48.958 0h32.906l4.528-33.962h-35.171zm30.773 16h-31.84l-2.264 33.963h29.576zm-47.848 0H264v33.963h29.619zm-47.883 0h-31.883l2.264 33.963H248zm-47.892 0h-31.84l4.528 33.963h29.576z" fill="#ecba78"></path><path d="m412.855 334.903-3.2 16h-12l3.2-16zm-9.993 49.963-3.2 16h-12l3.2-16zm-9.992 49.962-3.2 16h-12.361a48.405 48.405 0 0 0 1.491-5.648l2.07-10.352zm-45.278 57.736a48.37 48.37 0 0 1-4.669.227h-11.448l1.333-10h.114c5.747 0 11.26-1.012 16.357-2.884zm-41.829.227h-16.008l.667-10h16.008zm-41.763 0h-16v-10h16zm-41.755 0h-16.008l-.667-10h16.008zm-41.719 0h-11.448c-1.576 0-3.133-.077-4.67-.226l-1.303-9.774h16.087z" fill="#e3a76f"></path><path d="M88.303 250.557h335.394c6.287 0 11.43 5.144 11.43 11.43v19.522c0 6.286-5.144 11.43-11.43 11.43H88.303c-6.287 0-11.43-5.143-11.43-11.43v-19.522c0-6.286 5.143-11.43 11.43-11.43z" fill="#ecba78"></path><path d="M425.046 250.638c5.657.673 10.081 5.519 10.081 11.35v19.522c0 6.286-5.144 11.43-11.43 11.43H88.303c-5.83 0-10.676-4.424-11.35-10.081.443.053.893.081 1.349.081h335.394c6.287 0 11.43-5.144 11.43-11.43v-19.522c.001-.457-.027-.907-.08-1.35z" fill="#e3a76f"></path><g fill="#c2ed56"><path d="M231.562 19.945c-46.983-5.991-90.128 25.238-99.808 70.75a91.008 91.008 0 0 0 14.553 3.083c46.983 5.991 90.128-25.238 99.808-70.75a91.008 91.008 0 0 0-14.553-3.083zM34.553 53.115c43.684 18.303 65.434 66.921 51.061 111.175a90.932 90.932 0 0 1-14.145-4.607C27.785 141.381 6.035 92.763 20.408 48.508a90.932 90.932 0 0 1 14.145 4.607zM280.437 19.945c46.983-5.991 90.128 25.238 99.808 70.75a91.008 91.008 0 0 1-14.553 3.083c-46.983 5.991-90.128-25.238-99.808-70.75a91.055 91.055 0 0 1 14.553-3.083zM477.447 53.115c-43.684 18.303-65.434 66.921-51.061 111.175a90.932 90.932 0 0 0 14.145-4.607c43.684-18.303 65.434-66.921 51.061-111.175a90.932 90.932 0 0 0-14.145 4.607z" fill="#c2ed56"></path></g><path d="M443.127 219.716a8 8 0 0 1-16 0c0-37.595-12.115-72.35-32.65-100.573-21.084-28.978-51.027-51.081-85.833-62.318a7.975 7.975 0 1 1 4.875-15.187c38.101 12.301 70.855 36.465 93.895 68.131a187.024 187.024 0 0 1 18.593 31.68 186.116 186.116 0 0 1 33.637-52.992 7.965 7.965 0 0 1 11.813 10.687 170.197 170.197 0 0 0-22.502 31.482 171.948 171.948 0 0 0-14.221 33.536c5.455 17.552 8.393 36.211 8.393 55.554zm-358.254 0a8 8 0 0 1-16 0c0-19.343 2.938-38.002 8.392-55.555a171.948 171.948 0 0 0-14.221-33.536 170.164 170.164 0 0 0-22.502-31.482 7.965 7.965 0 0 1 11.813-10.687 186.15 186.15 0 0 1 33.637 52.992 187.024 187.024 0 0 1 18.593-31.68c23.04-31.666 55.794-55.83 93.895-68.131a7.975 7.975 0 1 1 4.875 15.187c-34.806 11.237-64.748 33.34-85.833 62.318-20.535 28.225-32.649 62.979-32.649 100.574z" fill="#b7e546"></path></g></g></svg>