<svg viewBox="0 0 57 58" xmlns="http://www.w3.org/2000/svg"><g><g fill="none" fill-rule="nonzero"><path d="M19.38 37.519c.449.61 4.29 9.891 4.99 9.941 5.4 4.16 13.94 1.7 17.25-3.86A15.65 15.65 0 0 0 44 35h-2.95a1 1 0 0 1-.78-1.62l7.45-9.02a1.008 1.008 0 0 1 1.55.01l7.33 9.01a.914.914 0 0 1-.61 1.62H53a22.316 22.316 0 0 1-3.89 14.29 21.435 21.435 0 0 1-6.15 5.6A23.024 23.024 0 0 1 31.88 58C19.73 58 11.44 47.87 6.74 36.62a76.656 76.656 0 0 1-3.71-11.49l-.01-.03c-.27-1.14-.53-2.33-.77-3.55A144.511 144.511 0 0 1 0 2.68v-.13a2.566 2.566 0 0 1 5.12-.23 126.42 126.42 0 0 0 2.93 17.44z" fill="#ff5364"></path><path d="M19.77 13.96c-.182.23-.382.444-.6.64a5.546 5.546 0 0 1-6.77.45 5.5 5.5 0 1 1 7.37-1.09z" fill="#fdd7ad"></path><path d="M35.5 41.39c-.07.04-.15.09-.21.12a2.5 2.5 0 0 1-3.25-.82l-5.37-8.15-5.08.88-2.17.38.07.1 7.06 9.58a2.5 2.5 0 0 1-.52 3.5 2.828 2.828 0 0 1-.97.44c-.227.048-.46.062-.69.04a2.5 2.5 0 0 1-1.84-1l-8.8-11.94-1.2-1.64c-.01 0-.02.01-.03.01-.05.02-.1.03-.15.05-1 .253-2.026-.31-2.35-1.29l-3.58-9a2.007 2.007 0 0 1 .75-2.27l.88-.62 1.86-1.31-.01-.01 3.87-2.72a5.546 5.546 0 0 0 5.4-1.12l4.36 2.23 5.97-5.39a2.002 2.002 0 1 1 2.56 3.08l-6.99 6.23a2 2 0 0 1-2.19.24l-3.84-1.96 1.6 9.48 6.78-1.17a2.481 2.481 0 0 1 2.52 1.08l6.27 9.51a2.49 2.49 0 0 1-.71 3.46z" fill="#3b97d3"></path><path d="M53.131 13.258 54 18.237a.653.653 0 0 1-.945.688L48.5 16.57l-4.553 2.355a.653.653 0 0 1-.947-.688l.867-4.979L40.2 9.74a.649.649 0 0 1 .36-1.112l5.073-.728 2.282-4.54a.655.655 0 0 1 1.169 0l2.272 4.54 5.083.726a.65.65 0 0 1 .36 1.113z" fill="#f0c419"></path><g fill="#2980ba"><path d="m13.73 34.52-1.2-1.64c-.01 0-.02.01-.03.01.058-.03.118-.058.18-.08a.98.98 0 0 0 .6-1.23l-3.21-7.87a1.017 1.017 0 0 1 .35-1.2l2.24-1.57a1 1 0 0 1 1.39.24c.32.453.212 1.08-.24 1.4l-1.58 1.11 2.93 7.19a2.991 2.991 0 0 1-1.43 3.64zM21.59 33.42l-2.17.38-2.06-2.78a1.001 1.001 0 0 1 1.61-1.19l2.5 3.37c.05.068.09.142.12.22z" fill="#2980ba"></path></g></g></g></svg>