<svg viewBox="0 0 510 510" xmlns="http://www.w3.org/2000/svg"><g><path clip-rule="evenodd" d="m202.982 309.635-56.549 22.341c-13.817 28.404-25.54 124.092.611 152.351h215.927c20.246-20.542 12.508-120.987.582-152.351l-56.52-22.341v3.192z" fill="#6fd7a3" fill-rule="evenodd"></path><path clip-rule="evenodd" d="m294.612 336.472 35.169 14.681c7.854 3.308 5.236 10.039 4.305 19.033l-8.174 79.585c-1.862 11.315-2.182 34.555 5.963 34.526l31.096.029c16.697-22.05 17.162-121.567.582-152.351l-56.52-22.341c-8.465-2.466-34.732-.667-12.421 26.838z" fill="#3ec3a4" fill-rule="evenodd"></path><path clip-rule="evenodd" d="M135.351 325.534v-38.53c0-23.53-19.315-42.795-42.906-42.795H44.797l-23.155-6.789c-8.901-2.611-18.355 2.524-20.973 11.431A16.503 16.503 0 0 0 0 253.435v.261c.029 7.224 4.829 13.927 12.13 16.074l41.975 12.302h23.591v43.463h57.655z" fill="#fed2a4" fill-rule="evenodd"></path><path clip-rule="evenodd" d="M202.982 312.826c0 46.625 104.051 46.625 104.051 0V266.52c-7.825 5.281-16.173 9.662-24.813 12.882-9.832 3.627-18.53 5.455-27.227 5.455s-17.366-1.828-27.227-5.455c-8.639-3.221-16.959-7.602-24.784-12.882v39.343z" fill="#ffbd86" fill-rule="evenodd"></path><path clip-rule="evenodd" d="M294.612 336.472c7.592-5.716 12.421-13.608 12.421-23.646V266.52c-38.194 16.828-59.196 17.931-104.051 0v33.685c7.825 5.31 16.144 9.691 24.784 12.882 9.861 3.656 18.53 5.455 27.227 5.455s17.395-1.799 27.227-5.455c12.828-4.758 12.392-.812 12.392 12.65z" fill="#f6a96c" fill-rule="evenodd"></path><path clip-rule="evenodd" d="M135.351 287.004c0-23.53-19.315-42.795-42.906-42.795H44.797l-23.155-6.789c-8.901-2.611-18.355 2.524-20.973 11.431l47.619 11.547h40.724c23.591 0 24.173 19.265 24.173 42.824v22.312h22.166z" fill="#ffbd86" fill-rule="evenodd"></path><path clip-rule="evenodd" d="M374.636 287.004v38.53h57.654v-43.463h23.62l41.975-12.302c8.901-2.611 14.05-12.041 11.432-20.919-2.618-8.907-12.072-14.043-20.973-11.431l-23.155 6.789h-47.648c-23.59.001-42.905 19.266-42.905 42.796z" fill="#fed2a4" fill-rule="evenodd"></path><path clip-rule="evenodd" d="M411.084 284.074v41.461h21.206v-43.463h23.62l41.975-12.302c8.901-2.611 14.05-12.041 11.432-20.919-1.134-3.859-3.549-6.992-6.632-9.11-.378 6.76-5.149 12.998-12.072 15.696l-35.401 13.811h-27.576c-4.829.029-16.552.435-16.552 14.826z" fill="#ffbd86" fill-rule="evenodd"></path><path clip-rule="evenodd" d="M355.263 457.489c-.64 9.923 2.327 19.178 7.709 26.838 8.669 12.331 23.62 20.455 39.706 20.455 26.093 0 49.131-21.325 47.415-47.292l-4.538-68.879-4.731-71.372a2.053 2.053 0 0 0-2.048-1.917h-72.197a2.052 2.052 0 0 0-2.048 1.916l-.978 14.737z" fill="#6fd7a3" fill-rule="evenodd"></path><path clip-rule="evenodd" d="m411.084 315.321 4.858 73.289 4.538 68.879c1.367 20.89-13.265 38.762-32.609 44.971a48.611 48.611 0 0 0 14.806 2.321c26.093 0 49.131-21.325 47.415-47.292l-4.538-68.879-4.731-71.372a2.053 2.053 0 0 0-2.048-1.917h-6.486z" fill="#3ec3a4" fill-rule="evenodd"></path><path clip-rule="evenodd" d="m154.724 457.489-8.29-125.513-.978-14.737a2.052 2.052 0 0 0-2.048-1.916H71.211a2.052 2.052 0 0 0-2.048 1.917l-9.269 140.25c-1.716 25.967 21.322 47.292 47.415 47.292 16.086 0 31.038-8.124 39.706-20.455h.029c5.353-7.66 8.32-16.916 7.68-26.838z" fill="#6fd7a3" fill-rule="evenodd"></path><path clip-rule="evenodd" d="m154.724 457.489-8.29-125.513-.978-14.737a2.052 2.052 0 0 0-2.048-1.916h-30.397l1.105 16.654 8.29 125.513c.669 9.923-2.298 19.178-7.679 26.838-5.672 8.037-13.992 14.304-23.562 17.669a48.526 48.526 0 0 0 16.144 2.785c16.086 0 31.038-8.124 39.706-20.455h.029c5.353-7.66 8.32-16.916 7.68-26.838z" fill="#3ec3a4" fill-rule="evenodd"></path><path clip-rule="evenodd" d="M150.768 210.495c10.472-19.381 8.232-39.169-4.509-58.085h-5.207c-43.604-.001-36.157 61.537 9.716 58.085z" fill="#f6a96c" fill-rule="evenodd"></path><path clip-rule="evenodd" d="M146.259 152.409c20.246-2.437 63.065-13.288 56.403-56.519-18.006-15.842-18.384-48.192-10.268-67.109-40.114 7.021-46.135 37.573-46.135 78.714z" fill="#554e56" fill-rule="evenodd"></path><path clip-rule="evenodd" d="M198.066 110.571c41.335 51.499 125.431 54.72 165.661 41.838V98.067c0-23.443-3.113-39.981-15.999-54.865-41.975-48.424-138.346-47.467-155.334-14.42-8.116 18.917-12.305 65.948 5.672 81.789z" fill="#554e56" fill-rule="evenodd"></path><path clip-rule="evenodd" d="M359.219 210.495c45.873 3.453 53.32-58.085 9.745-58.085h-5.236c-12.567 15.493-13.73 34.526-4.509 58.085z" fill="#f6a96c" fill-rule="evenodd"></path><path clip-rule="evenodd" d="M220.247 107.517c-7.214 7.276-24.321 14.315-31.145 15.588-23.325-20.688-25.039-61.622-15.731-88.057 5.295-2.842 11.545-4.956 19.025-6.27-8.117 18.923-7.737 51.268 10.262 67.112 5.429 4.084 11.339 7.963 17.589 11.627zM363.728 152.409V98.067c0-23.443-3.113-39.981-15.999-54.865-23.882-27.563-65.421-39.14-99.892-37.892 24.726 4.99 49.044 16.306 65.246 35.02 12.915 14.884 15.999 31.393 15.999 54.865v62.292c13.469 2.814 29.526 1.392 34.646-5.078z" fill="#433f43" fill-rule="evenodd"></path><path clip-rule="evenodd" d="M363.728 152.412v32.9c0 8.096-1.601 16.624-4.505 25.182-8.415 24.721-27.84 49.821-52.192 66.271-7.819 5.275-16.173 9.656-24.813 12.848-9.831 3.653-18.523 5.49-27.225 5.49s-17.363-1.837-27.225-5.49c-8.64-3.191-16.963-7.573-24.782-12.848-24.351-16.45-43.808-41.55-52.223-66.271-2.904-8.558-4.505-17.086-4.505-25.182v-32.9c8.189-6.26 28.836-14.408 42.843-29.308 6.164-6.552 11.038-14.403 13.011-23.98.301-1.461 1.984-2.157 3.194-1.285 4.684 3.373 9.693 6.601 14.939 9.677 46.334 27.195 111.517 42.741 143.483 44.896z" fill="#fed2a4" fill-rule="evenodd"></path><path clip-rule="evenodd" d="M307.033 276.762c24.347-16.451 43.779-41.548 52.185-66.267 2.909-8.559 4.509-17.089 4.509-25.184v-32.902c-9.221-.609-21.177-2.35-34.645-5.135v32.873c0 33.482-26.18 73.347-53 91.451-12.828 8.675-33.045 16.161-48.578 17.931l.262.087c9.861 3.656 18.53 5.484 27.227 5.484s17.395-1.828 27.227-5.484c8.64-3.192 16.988-7.573 24.813-12.854z" fill="#ffbd86" fill-rule="evenodd"></path><path d="M208.713 193.472a7.696 7.696 0 0 1-7.696-7.696v-9.894a7.696 7.696 0 1 1 15.392 0v9.894a7.696 7.696 0 0 1-7.696 7.696zM301.274 193.472a7.696 7.696 0 0 1-7.696-7.696v-9.894a7.696 7.696 0 1 1 15.392 0v9.894a7.696 7.696 0 0 1-7.696 7.696z" fill="#433f43"></path><path d="M271.16 251.326a7.651 7.651 0 0 1-3.878-1.054c-6.546-3.828-18.03-3.828-24.576 0a7.697 7.697 0 1 1-7.77-13.287c11.248-6.578 28.869-6.578 40.117 0a7.698 7.698 0 0 1-3.893 14.341z" fill="#f6a96c"></path></g></svg>