<svg viewBox="0 0 60 60" xmlns="http://www.w3.org/2000/svg"><g><path d="M12.37 13.25a15.747 15.747 0 0 1-4.52-9.5 1.819 1.819 0 0 1 1.26-1.94 15.726 15.726 0 0 1 13.58 1.86c5.271 3.434 7.761 8.91 5.392 12.147z" fill="#4fba6f"></path><path d="M26.245 17.467a1 1 0 0 1-.883-.529 19.975 19.975 0 0 0-10.8-9.068 1 1 0 0 1 .562-1.92A21.653 21.653 0 0 1 27.126 16a1 1 0 0 1-.881 1.471z" fill="#24ae5f"></path><path d="M32.15 15.281A17.808 17.808 0 0 1 41.79 12 14.308 14.308 0 0 1 56 26.351C55.91 44.19 48.92 59 36 59a6.791 6.791 0 0 1-4.2-1.32 2.97 2.97 0 0 0-3.6 0A6.791 6.791 0 0 1 24 59C11.08 59 4.09 44.19 4 26.351A14.308 14.308 0 0 1 18.21 12a17.871 17.871 0 0 1 9.91 3.47z" fill="#c03a2b"></path><path d="M52 26.33C51.93 40.6 46.95 55 36 55c-2.62 0-2.95-1.53-5-1.91a5.6 5.6 0 0 0-2 0c-2.05.38-2.38 1.91-5 1.91C13.05 55 8.07 40.6 8 26.33 7.97 20.95 12.55 16 18 16c5.44.04 6.82 3.46 11 3.94a8.363 8.363 0 0 0 2 0c4.18-.48 5.56-3.9 11-3.94 5.47-.04 10.02 4.99 10 10.33z" fill="#f5efca"></path><path d="M31 19.94v33.15a5.6 5.6 0 0 0-2 0V19.94a8.363 8.363 0 0 0 2 0z" fill="#f9eab0"></path><path d="M41 37c0 9-11 12-11 12s-11-3-11-12 11-12 11-12 11 3 11 12z" fill="#f9eab0"></path><path d="M30 20a2 2 0 0 1-2-2c0-12.556 7.769-16.618 8.1-16.784a2 2 0 0 1 1.815 3.564C37.647 4.922 32 8.048 32 18a2 2 0 0 1-2 2z" fill="#a56a43"></path><g fill="#805333"><path d="M27.756 37.995a2.655 2.655 0 0 1-3.33 1.845 2.916 2.916 0 0 1-1.182-3.78 7.041 7.041 0 0 1 3-2.938.91.91 0 0 1 1.33.571 7.663 7.663 0 0 1 .182 4.302zM32.244 37.995a2.655 2.655 0 0 0 3.33 1.845 2.916 2.916 0 0 0 1.182-3.78 7.041 7.041 0 0 0-3-2.938.91.91 0 0 0-1.33.571 7.663 7.663 0 0 0-.182 4.302z" fill="#805333"></path></g></g></svg>