<svg viewBox="0 0 16.933 16.933" xmlns="http://www.w3.org/2000/svg"><g><path d="M.53 3.968v11.643c0 .435.357.793.792.793h14.29a.796.796 0 0 0 .792-.793V3.968z" fill="#dbe9ee"></path><path d="M1.322.529a.797.797 0 0 0-.793.793v2.911h15.875V1.322a.797.797 0 0 0-.793-.793z" fill="#33658a"></path><g fill="#5b91b8"><path d="M2.38 1.588a.796.796 0 0 0-.792.793c0 .435.358.794.793.794a.8.8 0 0 0 .795-.794.798.798 0 0 0-.795-.793zM4.498 1.588a.796.796 0 0 0-.793.793c0 .435.358.794.793.794.435 0 .793-.36.793-.794a.796.796 0 0 0-.793-.793zM6.615 1.588a.798.798 0 0 0-.795.793.8.8 0 0 0 .795.794c.435 0 .793-.36.793-.794a.796.796 0 0 0-.793-.793z" fill="#5b91b8"></path></g><path d="M9.525 1.851V2.91c0 .146.118.265.264.265h5.293c.146 0 .264-.119.264-.265V1.85a.265.265 0 0 0-.264-.263H9.776a.266.266 0 0 0-.25.263z" fill="#dbe9ee"></path><path d="M2.382 5.291a.265.265 0 0 0-.266.264v6.881a.265.265 0 0 0 .266.264h12.17a.265.265 0 0 0 .265-.264v-6.88a.265.265 0 0 0-.265-.265z" fill="#ff6b6b"></path><path d="M14.552 14.288c.352 0 .352-.53 0-.53H2.368c-.367 0-.339.548.014.53z" fill="#33658a"></path><path d="M5.022 13.225a.265.265 0 0 0-.26.268v1.058a.265.265 0 1 0 .53 0v-1.058a.265.265 0 0 0-.27-.268z" fill="#33658a"></path><path d="M7.143 7.672v2.647c0 .207.228.334.405.224L9.665 9.22a.265.265 0 0 0 0-.447L7.548 7.448c-.17-.106-.405.044-.405.224z" fill="#dbe9ee"></path></g></svg>