<svg viewBox="0 0 64 64" xmlns="http://www.w3.org/2000/svg"><g><path d="M44 10v6l7 5 9-1 2-9-2-8-6-1z" fill="#785349"></path><path d="m2 63 3-14h14l-2 14" fill="#0059be"></path><path d="m6 49 2.356-5.3a38.977 38.977 0 0 0 2.492-7.659 38.961 38.961 0 0 1 8.975-17.716 7 7 0 0 1 2.843-1.931l7.759-2.821a9.509 9.509 0 0 1 3.25-.573A2.325 2.325 0 0 1 36 15.325a2.325 2.325 0 0 1-1.589 2.205l-2.133.711a17.808 17.808 0 0 0-8.616 6.21A13.31 13.31 0 0 0 21 32.437a13.307 13.307 0 0 0 .952 4.943L23 40l5.718-2.451A6.8 6.8 0 0 1 31.394 37 2.606 2.606 0 0 1 34 39.606a2.6 2.6 0 0 1-1.16 2.167l-8.34 5.563A9.91 9.91 0 0 1 19 49" fill="#d08d78"></path><path d="m29.508 19.433 3.535 2.02A1.9 1.9 0 0 1 34 23.1a1.9 1.9 0 0 1-1.9 1.9 6.808 6.808 0 0 1-2.147-.348l-2.109-.7A18.521 18.521 0 0 0 24.7 23.2L25 19z" fill="#d08d78"></path><path d="m44 10 7-1 3-7h-6z" fill="#a37765"></path><path d="m57 13-6-4 3-7 6 1 2 8-2 9z" fill="#916658"></path><path d="m60 20-3-7-6 8z" fill="#bf9377"></path><g fill="#a5badb"><path d="m38.27 36.32 10.005-11 1.48 1.346-10.004 11zM37.532 24.104l7.996-3.998.894 1.788-7.996 3.998zM14.521 17.644l-1.532-1.288a26.264 26.264 0 0 1 12.585-8.272l.136-.041.58 1.914-.139.043a24.257 24.257 0 0 0-11.63 7.644zM11.874 21.485l-1.748-.97c.394-.709.826-1.409 1.285-2.079l1.65 1.128a24.677 24.677 0 0 0-1.187 1.921z" fill="#a5badb"></path></g><path d="M32.84 41.773A2.605 2.605 0 0 0 31.394 37a6.8 6.8 0 0 0-2.676.549L23 40l-1.048-2.62a13.309 13.309 0 0 1 1.71-12.929 17.808 17.808 0 0 1 8.616-6.21l2.133-.711a2.318 2.318 0 0 0-.083-4.426 9.486 9.486 0 0 0-1.9.469l-7.759 2.821a7 7 0 0 0-2.843 1.931 38.961 38.961 0 0 0-8.975 17.716 38.977 38.977 0 0 1-2.495 7.659L8 49h11a9.91 9.91 0 0 0 5.5-1.664z" fill="#f2b9a1"></path><path d="M7 49 4 63h13l2-14z" fill="#006bdb"></path></g></svg>