<svg id="Capa_1" enable-background="new 0 0 512 512" height="512" viewBox="0 0 512 512" width="512" xmlns="http://www.w3.org/2000/svg"><g><g><path d="m161.57 105.629h47.963v-105.629h46.467l18.132 68.285-18.132 157.642z" fill="#ff6f4a"/><path d="m256 225.927v-225.927h46.467v105.629h47.963z" fill="#ef3c4f"/></g><g><g><path d="m256 225.927-182.047 25.744v260.329h182.047l21.175-101.396z" fill="#d2985b"/><path d="m438.047 255.936-182.047-30.009v286.073h182.047v-30.009l-17.187-15.005 17.187-15.004v-30.01l-17.187-15.004 17.187-15.005z" fill="#be7c49"/></g><g><g><g><path d="m371.021 451.982h67.026v30.009h-67.026z" fill="#d2985b"/></g><g><path d="m371.021 391.963h67.026v30.009h-67.026z" fill="#d2985b"/></g></g></g><g><path d="m256 225.927h-182.047l-73.953 113.694h182.647z" fill="#e6b261"/><path d="m438.047 225.927h-182.047l73.353 113.694h182.647z" fill="#d2985b"/></g></g></g></svg>