<svg viewBox="0 0 512 512" xmlns="http://www.w3.org/2000/svg"><g><path d="M115.65 262.441c0 68.84 76.952 114.175 116.956 133.24a31.651 31.651 0 0 0 27.246 0c40.004-19.065 116.956-64.4 116.956-133.24 0-43.865-35.56-79.425-79.425-79.425-17.772 0-34.177 5.84-47.409 15.702a6.254 6.254 0 0 1-7.489 0c-13.232-9.862-29.638-15.702-47.409-15.702-43.866 0-79.426 35.56-79.426 79.425z" fill="#ff6e80"></path><path d="M343.573 337.555C193.15 352.424 167.336 238.802 180.969 184.29c-37.132 6.66-65.319 39.103-65.319 78.151 0 68.84 76.952 114.174 116.956 133.24a31.651 31.651 0 0 0 27.246 0c22.921-10.924 57.966-30.475 83.721-58.126z" fill="#f8475e"></path><g fill="#425460"><path d="M181.896 280.938a7.5 7.5 0 0 1-7.5-7.5v-12.362c0-4.143 3.358-7.5 7.5-7.5s7.5 3.357 7.5 7.5v12.362a7.5 7.5 0 0 1-7.5 7.5zM310.562 280.938a7.5 7.5 0 0 1-7.5-7.5v-12.362c0-4.143 3.358-7.5 7.5-7.5s7.5 3.357 7.5 7.5v12.362a7.5 7.5 0 0 1-7.5 7.5zM246.23 288.297a29.995 29.995 0 0 1-22.616-10.3 7.5 7.5 0 0 1 11.309-9.855 15 15 0 0 0 11.307 5.155 15 15 0 0 0 11.307-5.155 7.5 7.5 0 0 1 11.309 9.855 29.998 29.998 0 0 1-22.616 10.3z" fill="#425460"></path></g><path d="M425.913 425.561c-10.328-15.493-31.259-19.68-46.753-9.353-14.58 9.719-49.625 26.721-70.898 28.242a33.564 33.564 0 0 0 6.699-17.38c1.63-18.548-12.084-34.906-30.633-36.537-37.852-3.327-53.97-4.879-87.24-18.464-13.719-6.099-30.41-8.701-55.812-8.701H96.258c-33.519 0-60.789 27.269-60.789 60.788s27.27 60.789 60.789 60.789h42.749c9.884 0 19.53 1.396 28.669 4.148C217.621 504.132 274.725 512 305.322 512c42.413 0 94.678-28.647 111.237-39.687 15.494-10.327 19.682-31.259 9.354-46.752z" fill="#fdd1a3"></path><path d="M281.429 465.334c-1.213 0-2.433-.054-3.658-.16-30.566-2.686-50.767-7.021-71.696-12.703a7.5 7.5 0 0 1 3.931-14.476c20.156 5.473 39.616 9.647 69.075 12.236 9.038.795 17.714-3.064 23.203-10.31a7.498 7.498 0 0 1 10.507-1.45 7.5 7.5 0 0 1 1.45 10.507c-7.88 10.403-19.945 16.356-32.812 16.356z" fill="#ffbb85"></path><path d="M86.087 86.439c10.328 15.493 31.259 19.68 46.753 9.353 14.58-9.718 49.624-26.721 70.898-28.242a33.564 33.564 0 0 0-6.699 17.38c-1.63 18.549 12.084 34.906 30.633 36.537 37.852 3.327 53.97 4.879 87.239 18.464 13.719 6.099 30.41 8.701 55.812 8.701h45.019c33.519 0 60.789-27.269 60.789-60.788s-27.27-60.789-60.789-60.789h-42.749c-9.884 0-19.53-1.396-28.669-4.149C294.379 7.868 237.275 0 206.678 0 164.265 0 112 28.647 95.44 39.687c-15.493 10.327-19.681 31.259-9.353 46.752z" fill="#fdd1a3"></path><g fill="#ffbb85"><path d="M140.831 15.931c-20.201 8.49-37.183 18.285-45.39 23.756-15.494 10.327-19.681 31.259-9.353 46.752s31.259 19.68 46.753 9.353c9.264-6.175 26.789-15.286 43.795-21.503-31.627-8.5-43.285-33.625-35.805-58.358zM203.732 75.051a7.5 7.5 0 0 1-5.972-12.028c8.622-11.385 22.254-17.429 36.47-16.196 30.566 2.687 50.767 7.021 71.696 12.703a7.5 7.5 0 0 1 5.272 9.203 7.496 7.496 0 0 1-9.203 5.273c-20.156-5.473-39.616-9.647-69.075-12.236-9.04-.795-17.713 3.063-23.203 10.31a7.493 7.493 0 0 1-5.985 2.971zM149.936 363.482c-2.773-.074-5.65-.114-8.658-.114H96.259c-33.519 0-60.789 27.269-60.789 60.788s27.27 60.789 60.789 60.789h42.749c9.884 0 19.53 1.396 28.669 4.149 13.931 4.195 28.418 7.83 42.732 10.894-66.441-29.925-72.953-109.543-60.473-136.506z" fill="#ffbb85"></path></g></g></svg>