<svg viewBox="0 0 512 512" xmlns="http://www.w3.org/2000/svg"><g><circle cx="367.052" cy="143.325" fill="#e4eaf7" r="141.703"></circle><path d="M457.506 34.248c19.635 24.319 31.4 55.256 31.4 88.947 0 78.26-63.442 141.703-141.703 141.703-34.388 0-65.913-12.253-90.453-32.626 25.976 32.173 65.733 52.756 110.303 52.756 78.26 0 141.703-63.443 141.703-141.703-.001-43.872-19.941-83.084-51.25-109.077z" fill="#c7cfe2"></path><g fill="#8585ff"><path d="M367.053 151.003a7.676 7.676 0 0 1-5.423-2.242l-72.991-72.807a7.676 7.676 0 0 1-.013-10.857 7.676 7.676 0 0 1 10.857-.014l69.502 69.327 64.295-23.979a7.678 7.678 0 0 1 5.367 14.387l-68.912 25.7a7.661 7.661 0 0 1-2.682.485z" fill="#8585ff"></path><circle cx="367.052" cy="40.284" fill="#8585ff" r="8.068"></circle><circle cx="367.052" cy="246.736" fill="#8585ff" r="8.068"></circle><circle cx="470.278" cy="143.51" fill="#8585ff" r="8.068"></circle><circle cx="263.827" cy="143.51" fill="#8585ff" r="8.068"></circle><circle cx="440.044" cy="70.518" fill="#8585ff" r="8.068"></circle><circle cx="294.061" cy="216.502" fill="#8585ff" r="8.068"></circle><circle cx="440.044" cy="216.502" fill="#8585ff" r="8.068"></circle></g><path d="M148.445 329.205 77.182 213.689l33.083-13.497a54.243 54.243 0 0 1 58.109 11.144l68.105 73.376 74.375-17.412a45.193 45.193 0 0 1 40.507 15.922l112.694 135.461-17.533 27.273-127.6-103.249-161.102 5.108z" fill="#5e648a"></path><path d="m360.179 307.584-211.734 21.621-111-179.927c-5.383-8.725-16.455-12.399-25.764-8.103-9.29 4.288-13.857 14.841-10.673 24.522l111.68 339.616a7.367 7.367 0 0 0 6.997 5.065h27.786c6.455 0 11.688-5.233 11.688-11.688 0-54.333 44.046-98.379 98.379-98.379 54.333 0 98.379 44.046 98.379 98.379 0 6.455 5.233 11.688 11.688 11.688h25.615a7.365 7.365 0 0 0 7.312-6.481l16.71-138.178c4.015-33.191-23.803-61.531-57.063-58.135z" fill="#ff708a"></path><path d="M131.11 329.205h17.335l-111-179.927c-5.383-8.725-16.455-12.399-25.764-8.103a20.023 20.023 0 0 0-9.372 8.924l100.882 163.526a32.806 32.806 0 0 0 27.919 15.58zM221.897 400.31c-54.333 0-98.379 44.046-98.379 98.379 0 4.895-3.012 9.082-7.282 10.822a7.343 7.343 0 0 0 3.449.866h27.786c6.456 0 11.689-5.233 11.689-11.689 0-48.247 34.733-88.379 80.558-96.764a98.993 98.993 0 0 0-17.821-1.614zM360.179 307.584l-16.252 1.66c23.862 6.693 40.872 30.035 37.674 56.475l-16.71 138.177a7.357 7.357 0 0 1-2.923 5.03 11.63 11.63 0 0 0 5.638 1.451h25.615a7.365 7.365 0 0 0 7.312-6.481l16.71-138.177c4.014-33.191-23.804-61.531-57.064-58.135z" fill="#ff5876"></path><path d="m107.71 263.174 40.736 66.032 154.844-15.812-7.266-16.561a22.438 22.438 0 0 0-21.306-13.411l-101.902 3.44-27.273-40.91" fill="#ffd28b"></path><path d="m446.522 445.955 17.533-27.273 31.754-11.298A19.724 19.724 0 0 1 512 408.725l-30.196 51.108c-2.695 4.562-8.747 5.786-13.003 2.632z" fill="#3a4270"></path><circle cx="81.768" cy="134.714" fill="#ffd28b" r="45.122"></circle><path d="M81.768 89.592c-4.162 0-8.187.575-12.013 1.63 19.086 5.261 33.109 22.734 33.109 43.492 0 20.759-14.022 38.231-33.109 43.492a45.118 45.118 0 0 0 12.013 1.63c24.92 0 45.122-20.202 45.122-45.122s-20.202-45.122-45.122-45.122z" fill="#ffd28b"></path><path d="M193.891 77.345h-42.037a7.677 7.677 0 0 1-5.43-13.106l28.931-28.931H152.24a7.677 7.677 0 1 1 0-15.354h41.651a7.677 7.677 0 0 1 5.43 13.106l-28.932 28.93h23.502a7.676 7.676 0 0 1 7.677 7.677 7.676 7.676 0 0 1-7.677 7.678z" fill="#dbdde5"></path></g></svg>