<svg viewBox="0 0 64 64" xmlns="http://www.w3.org/2000/svg"><g><g><path d="M4 2h38v8H4z" fill="#474747"></path><path d="M4 2v6h33a3 3 0 0 0 3-3V2z" fill="#686868"></path><g fill="#939393"><path d="M37 5h2v2h-2zM33 5h2v2h-2zM29 5h2v2h-2zM7 5h2v2H7zM7 10h32v4H7z" fill="#939393"></path></g><path d="M7 10v2h26a2.99 2.99 0 0 0 2.816-2z" fill="#a9a9a9"></path><path d="M4 14h38v8H4z" fill="#474747"></path><path d="M4 14v6h33a3 3 0 0 0 3-3v-3z" fill="#686868"></path><path d="M37 17h2v2h-2zM33 17h2v2h-2zM29 17h2v2h-2zM7 17h2v2H7zM7 22h32v4H7z" fill="#939393"></path><path d="M7 22v2h26a2.99 2.99 0 0 0 2.816-2z" fill="#a9a9a9"></path><path d="M4 26h38v8H4z" fill="#474747"></path><path d="M4 26v6h33a3 3 0 0 0 3-3v-3z" fill="#686868"></path><path d="M37 29h2v2h-2zM33 29h2v2h-2zM29 29h2v2h-2zM7 29h2v2H7zM7 34h32v4H7z" fill="#939393"></path><path d="M7 34v2h26a2.99 2.99 0 0 0 2.816-2z" fill="#a9a9a9"></path><path d="M4 38h38v8H4z" fill="#474747"></path><path d="M4 38v6h33a3 3 0 0 0 3-3v-3z" fill="#686868"></path><path d="M7 41h2v2H7z" fill="#939393"></path><path d="M8 46h6v4H8z" fill="#686868"></path><circle cx="43" cy="46" fill="#559b38" r="16"></circle><path d="M43 30a15.99 15.99 0 0 0-12.479 26H46a6 6 0 0 0 6-6V32.773A15.926 15.926 0 0 0 43 30z" fill="#6bc148"></path><path d="M36 50h-5a1 1 0 0 1-.707-1.707l3.414-3.414a1.009 1.009 0 0 0 .293-.707V44a1 1 0 0 0-2 0v1h-2v-1a3 3 0 0 1 6 0v.172a2.978 2.978 0 0 1-.879 2.121L33.414 48H36z" fill="#ffffff"></path><path d="M42 50h-2v-2h-3a1 1 0 0 1-.781-1.625l4-5A1 1 0 0 1 42 42v4h1v2h-1zm-2.919-4H40v-1.149zM44.055 49.745l2.998-11.002 1.93.526-2.998 11.002zM54 50h-2v-.38a14.573 14.573 0 0 1 1.044-5.42l.479-1.2H52v1h-2v-2a1 1 0 0 1 1-1h4a1 1 0 0 1 .928 1.371L54.9 44.938a12.565 12.565 0 0 0-.9 4.682z" fill="#ffffff"></path></g></g></svg>