<svg viewBox="0 0 512 512" xmlns="http://www.w3.org/2000/svg"><g><path d="M80.839 289.72a3.299 3.299 0 0 1-3.88-1.633C65.941 266.896-11.255 111.662 49.269 32.97c57.487-74.744 136.849-11.933 143.699 83.921 4.208 58.886-2.374 125.316-3.74 138.074a3.3 3.3 0 0 1-2.331 2.811L80.839 289.72z" fill="#1d4859"></path><path d="M192.968 116.891C186.704 29.238 119.808-30.76 64.449 16.763c43.588-1.358 84.077 49.616 88.883 116.857 3.963 55.458-1.643 117.598-3.451 135.304l37.016-11.149a3.3 3.3 0 0 0 2.331-2.811c1.366-12.758 7.949-79.187 3.74-138.073z" fill="#183d4c"></path><path d="M185.785 435.384c-30.464 9.761-63.073-7.023-72.833-37.487l-19.499-60.86a3.302 3.302 0 0 1 2.137-4.152l104.031-33.331a3.302 3.302 0 0 1 4.152 2.137l19.499 60.86c9.761 30.464-7.023 63.072-37.487 72.833z" fill="#1d4859"></path><path d="m223.272 362.551-19.499-60.86a3.301 3.301 0 0 0-4.152-2.137l-35.836 11.482 16.505 51.515c9.346 29.17-5.654 60.291-33.689 71.453 12.071 4.836 25.833 5.658 39.184 1.38 30.464-9.761 47.248-42.369 37.487-72.833z" fill="#183d4c"></path><path d="m215.116 337.093-1.439 1.149-22.293-1.277a6.924 6.924 0 0 0-4.716 1.501l-15.381 12.277a6.926 6.926 0 0 1-4.717 1.501l-19.644-1.126a6.922 6.922 0 0 0-4.717 1.502l-15.377 12.275a6.927 6.927 0 0 1-4.717 1.502l-19.614-1.125 10.453 32.624a58.32 58.32 0 0 0 3.036 7.573l18.91 1.085a6.92 6.92 0 0 0 4.717-1.502l15.377-12.275a6.927 6.927 0 0 1 4.717-1.502l19.644 1.126a6.926 6.926 0 0 0 4.717-1.501l15.381-12.277a6.924 6.924 0 0 1 4.716-1.501l21.835 1.25a57.867 57.867 0 0 0-2.73-15.822l-8.158-25.457z" fill="#2d5872"></path><path d="M225.551 372.816a58.545 58.545 0 0 0-.676-4.098c-.072-.357-.153-.713-.232-1.07a57.225 57.225 0 0 0-.427-1.788c-.069-.268-.138-.536-.211-.804a59.338 59.338 0 0 0-.733-2.505l-8.157-25.458-1.439 1.149-22.293-1.277a6.92 6.92 0 0 0-4.716 1.502l-11.223 8.958 4.846 15.126a57.62 57.62 0 0 1 1.532 29.544 6.924 6.924 0 0 0 2.248-1.194l15.381-12.276a6.924 6.924 0 0 1 4.716-1.501l21.835 1.25a58.34 58.34 0 0 0-.451-5.558z" fill="#1d4859"></path><path d="m161.857 179.884-22.075-1.264a3.75 3.75 0 0 0-2.553.813l-17.281 13.793a3.754 3.754 0 0 1-2.553.813l-22.072-1.265a3.75 3.75 0 0 0-2.553.813l-17.278 13.792a3.75 3.75 0 0 1-2.553.813l-22.069-1.266a3.75 3.75 0 0 0-2.553.813l-3.668 2.927c5.769 17.581 12.09 33.488 17.677 46.394l1.349-1.077a3.75 3.75 0 0 1 2.553-.813l22.069 1.266a3.75 3.75 0 0 0 2.553-.813l17.278-13.792a3.75 3.75 0 0 1 2.553-.813l22.072 1.265a3.75 3.75 0 0 0 2.553-.813l17.281-13.793a3.754 3.754 0 0 1 2.553-.813l22.075 1.264a3.75 3.75 0 0 0 2.553-.813l12.615-10.069c.967-15.035 1.801-33.141 1.948-52.204l-10.088-.577a3.745 3.745 0 0 0-2.552.813l-17.281 13.793a3.75 3.75 0 0 1-2.553.813zM150.963 68.796l-17.262 13.778a3.78 3.78 0 0 1-2.574.82l-22.051-1.263a3.78 3.78 0 0 0-2.574.82L89.239 96.729a3.776 3.776 0 0 1-2.574.819l-22.048-1.263a3.779 3.779 0 0 0-2.574.82l-17.259 13.777a3.783 3.783 0 0 1-2.575.82l-15.864-.91c-.038 16.441 1.932 33.341 5.125 49.89l1.897-1.514a2.378 2.378 0 0 1 1.622-.516l22.579 1.295a3.783 3.783 0 0 0 2.575-.82l17.259-13.777a3.782 3.782 0 0 1 2.574-.82l22.048 1.263a3.78 3.78 0 0 0 2.574-.82l17.262-13.778a3.78 3.78 0 0 1 2.574-.82l22.051 1.263a3.78 3.78 0 0 0 2.574-.82l17.262-13.778a3.78 3.78 0 0 1 2.574-.82l23.496 1.345.59-.471-.014-.205c-1.325-18.543-5.374-35.841-11.443-51.154l-4.492 3.585-23.496-1.345a3.792 3.792 0 0 0-2.573.821z" fill="#2d5872"></path><path d="m194.331 165.042-10.088-.577a3.75 3.75 0 0 0-2.553.813l-17.281 13.793a3.754 3.754 0 0 1-2.553.813l-7.148-.409c-.082 17.152-.733 33.602-1.555 47.83a3.742 3.742 0 0 1 1.986-.44l22.075 1.264a3.75 3.75 0 0 0 2.553-.813l12.615-10.069c.968-15.035 1.801-33.141 1.949-52.205zM192.982 117.096l-.001-.01-.013-.194c-.091-1.274-.198-2.54-.314-3.802-.039-.423-.084-.842-.126-1.263-.083-.833-.168-1.665-.262-2.493-.058-.509-.12-1.016-.181-1.523a191.06 191.06 0 0 0-.505-3.828c-.096-.669-.197-1.335-.3-2-.09-.579-.178-1.159-.273-1.735-.099-.601-.206-1.198-.311-1.795a175.81 175.81 0 0 0-1.514-7.634c-.063-.285-.124-.572-.188-.856-.19-.837-.389-1.669-.59-2.498-.068-.281-.135-.561-.205-.841-.213-.857-.432-1.71-.657-2.559l-.171-.639a165.642 165.642 0 0 0-.801-2.88 161.593 161.593 0 0 0-5.045-14.809l-4.492 3.585-23.496-1.345a3.78 3.78 0 0 0-2.574.82l-11.078 8.842c6.503 14.901 11.045 31.877 12.936 50.178l13.501-10.776a3.775 3.775 0 0 1 2.574-.819l23.496 1.345.59-.471z" fill="#1d4859"></path><path d="m73.988 48.398 17.046-13.606a4.145 4.145 0 0 1 2.82-.898l21.775 1.247a4.138 4.138 0 0 0 2.82-.898l17.046-13.606a4.145 4.145 0 0 1 2.82-.898l13.775.789C122.524-7.501 82.29-9.963 49.269 32.97c-5.888 7.656-10.467 16.04-13.936 24.951l11.243-8.975a4.14 4.14 0 0 1 2.82-.898l21.772 1.248a4.133 4.133 0 0 0 2.82-.898z" fill="#2d5872"></path><path d="M115.63 35.142a4.138 4.138 0 0 0 2.82-.898l17.046-13.606a4.145 4.145 0 0 1 2.82-.898l13.768.788c-.056-.053-.11-.108-.166-.16-.244-.23-.49-.457-.736-.684a87.326 87.326 0 0 0-1.368-1.238c-.215-.191-.429-.383-.645-.571a91.432 91.432 0 0 0-2.374-1.994 85.695 85.695 0 0 0-1.874-1.483c-.141-.108-.284-.212-.425-.319a83.04 83.04 0 0 0-1.707-1.258c-.169-.121-.337-.244-.506-.363a78.298 78.298 0 0 0-2.029-1.387c-.141-.093-.283-.184-.425-.276a77.065 77.065 0 0 0-2.028-1.28l-.151-.094a73.158 73.158 0 0 0-2.237-1.297l-.324-.18a70.014 70.014 0 0 0-4.722-2.38l-.108-.05c-20.833-9.467-44.201-7.301-65.812 11.25 16.072-.501 31.721 6.121 45.317 18.042l5.866.336zM431.161 363.558a3.299 3.299 0 0 0 3.88-1.633c11.019-21.191 88.214-176.424 27.691-255.116-57.487-74.744-136.849-11.933-143.699 83.921-4.208 58.886 2.374 125.316 3.74 138.074a3.3 3.3 0 0 0 2.331 2.811l106.057 31.943zM326.215 509.222c30.464 9.761 63.073-7.023 72.833-37.487l19.499-60.86a3.302 3.302 0 0 0-2.137-4.152l-104.031-33.331a3.302 3.302 0 0 0-4.152 2.137l-19.499 60.86c-9.761 30.464 7.023 63.073 37.487 72.833z" fill="#1d4859"></path><path d="m416.41 406.723-35.245-11.292c.003.342-.033.688-.143 1.031l-19.499 60.86c-7.955 24.829-31.089 40.566-55.868 40.255a57.715 57.715 0 0 0 20.56 11.645c30.464 9.761 63.073-7.023 72.833-37.487l19.499-60.86a3.302 3.302 0 0 0-2.137-4.152z" fill="#183d4c"></path><path d="m296.884 410.931 1.439 1.149 22.293-1.277a6.924 6.924 0 0 1 4.716 1.501l15.381 12.277a6.926 6.926 0 0 0 4.717 1.501l19.644-1.126a6.922 6.922 0 0 1 4.717 1.502l15.377 12.275a6.927 6.927 0 0 0 4.717 1.502l19.614-1.125-10.453 32.624a58.32 58.32 0 0 1-3.036 7.573l-18.91 1.085a6.92 6.92 0 0 1-4.717-1.502l-15.377-12.275a6.927 6.927 0 0 0-4.717-1.502l-19.644 1.126a6.928 6.928 0 0 1-4.717-1.501l-15.381-12.277a6.924 6.924 0 0 0-4.716-1.501l-21.835 1.25a57.867 57.867 0 0 1 2.73-15.822l8.158-25.457z" fill="#2d5872"></path><path d="M389.887 440.236a6.922 6.922 0 0 1-4.717-1.502l-14.088-11.245-9.559 29.834a58.175 58.175 0 0 1-4.083 9.639l14.945 11.93a6.932 6.932 0 0 0 4.717 1.502l18.91-1.085c.469-.97.907-1.962 1.327-2.966.169-.407.338-.814.499-1.227a58.268 58.268 0 0 0 1.208-3.374l.002-.006 7.892-24.632 2.561-7.993-19.614 1.125z" fill="#1d4859"></path><path d="m350.143 253.722 22.075-1.264a3.75 3.75 0 0 1 2.553.813l17.281 13.793a3.754 3.754 0 0 0 2.553.813l22.072-1.265a3.75 3.75 0 0 1 2.553.813l17.278 13.792a3.75 3.75 0 0 0 2.553.813l22.069-1.266a3.75 3.75 0 0 1 2.553.813l3.668 2.927c-5.769 17.581-12.09 33.488-17.677 46.394l-1.349-1.077a3.75 3.75 0 0 0-2.553-.813l-22.069 1.266a3.75 3.75 0 0 1-2.553-.813l-17.278-13.792a3.75 3.75 0 0 0-2.553-.813l-22.072 1.265a3.75 3.75 0 0 1-2.553-.813l-17.281-13.793a3.754 3.754 0 0 0-2.553-.813l-22.075 1.264a3.75 3.75 0 0 1-2.553-.813l-12.615-10.069c-.967-15.035-1.8-33.141-1.948-52.204l10.088-.577a3.745 3.745 0 0 1 2.552.813l17.281 13.793a3.75 3.75 0 0 0 2.553.813z" fill="#2d5872"></path><path d="M462.731 106.809c-26.134-33.98-56.788-39.525-83.096-26.466 12.389 4.817 24.654 14.213 36.057 29.04 53.645 69.75-.899 199.616-21.664 242.992l37.132 11.184a3.297 3.297 0 0 0 3.879-1.633c11.02-21.192 88.216-176.425 27.692-255.117z" fill="#183d4c"></path><path d="M463.683 281.576a3.754 3.754 0 0 0-2.553-.813l-22.069 1.266a3.75 3.75 0 0 1-2.553-.813l-11.532-9.205c-5.04 17.307-10.881 33.463-16.463 47.363l12.636 10.086a3.75 3.75 0 0 0 2.553.813l22.069-1.266a3.75 3.75 0 0 1 2.553.813l1.349 1.077a604.319 604.319 0 0 0 4.323-10.259l.072-.176c.424-1.035.85-2.087 1.278-3.149l.382-.952c.345-.862.692-1.734 1.039-2.614l.369-.935c.453-1.153.906-2.317 1.36-3.497l.199-.521c.39-1.017.781-2.045 1.172-3.081l.415-1.105c.348-.93.696-1.868 1.044-2.812l.354-.96c.45-1.231.9-2.473 1.348-3.728l.284-.801c.361-1.015.721-2.037 1.08-3.067l.418-1.203c.351-1.015.701-2.038 1.049-3.066.102-.302.206-.602.308-.906.397-1.179.79-2.368 1.182-3.563l-3.666-2.926z" fill="#1d4859"></path><path d="m361.037 142.635 17.262 13.778a3.78 3.78 0 0 0 2.574.82l22.051-1.263a3.78 3.78 0 0 1 2.574.82l17.262 13.778a3.782 3.782 0 0 0 2.574.82l22.048-1.263a3.779 3.779 0 0 1 2.574.82l17.259 13.777a3.783 3.783 0 0 0 2.575.82l15.864-.91c.038 16.441-1.932 33.341-5.125 49.89l-1.897-1.514a2.378 2.378 0 0 0-1.622-.516l-22.579 1.295a3.783 3.783 0 0 1-2.575-.82l-17.259-13.777a3.782 3.782 0 0 0-2.574-.82l-22.048 1.263a3.785 3.785 0 0 1-2.574-.819l-17.262-13.778a3.78 3.78 0 0 0-2.574-.82l-22.051 1.263a3.78 3.78 0 0 1-2.574-.82l-17.262-13.778a3.78 3.78 0 0 0-2.574-.82l-23.496 1.345-.59-.471.014-.205c1.325-18.543 5.374-35.841 11.443-51.154l4.492 3.585 23.496-1.345a3.776 3.776 0 0 1 2.574.819z" fill="#2d5872"></path><path d="m485.644 184.63-15.853.909a3.783 3.783 0 0 1-2.575-.82l-17.259-13.777a3.782 3.782 0 0 0-2.574-.82l-9.524.546c1.501 16.141.688 33.026-1.621 49.827l15.619 12.468a3.783 3.783 0 0 0 2.575.82l22.579-1.295a2.38 2.38 0 0 1 1.622.516l1.891 1.509.152-.794c.29-1.522.569-3.046.837-4.573.081-.459.163-.918.241-1.378.306-1.784.597-3.571.871-5.36l.069-.435c.304-2.003.586-4.008.847-6.015.032-.244.059-.488.09-.732.216-1.689.415-3.378.598-5.067.053-.486.102-.973.152-1.459.156-1.514.298-3.027.427-4.54.04-.467.081-.935.118-1.402.145-1.826.272-3.65.374-5.471l.02-.306c.109-1.992.191-3.981.247-5.965.008-.285.01-.569.017-.853.04-1.63.06-3.257.062-4.879.001-.217-.002-.435-.002-.654z" fill="#1d4859"></path><path d="m438.012 122.237-17.046-13.606a4.145 4.145 0 0 0-2.82-.898l-21.775 1.247a4.138 4.138 0 0 1-2.82-.898l-17.046-13.606a4.145 4.145 0 0 0-2.82-.898l-13.775.789c29.568-28.03 69.802-30.492 102.823 12.441 5.888 7.656 10.467 16.04 13.936 24.951l-11.243-8.975a4.14 4.14 0 0 0-2.82-.898l-21.772 1.248a4.14 4.14 0 0 1-2.822-.897z" fill="#2d5872"></path><path d="m414.551 107.939 3.594-.206a4.138 4.138 0 0 1 2.82.898l17.046 13.606a4.145 4.145 0 0 0 2.82.898l21.772-1.248a4.138 4.138 0 0 1 2.82.898l11.228 8.963c-.042-.108-.08-.218-.123-.326-.241-.613-.494-1.22-.746-1.828a109.65 109.65 0 0 0-1.653-3.797c-.343-.745-.699-1.484-1.059-2.221-.239-.49-.471-.983-.718-1.469a99.427 99.427 0 0 0-1.851-3.471c-.218-.391-.45-.774-.673-1.162a98.34 98.34 0 0 0-1.471-2.477 101.61 101.61 0 0 0-2.395-3.692c-.251-.368-.497-.739-.753-1.104a95.72 95.72 0 0 0-2.48-3.393 127.33 127.33 0 0 0-2.202-2.774c-.159-.195-.318-.391-.477-.584a119.365 119.365 0 0 0-2.178-2.572c-.11-.125-.22-.246-.329-.371a112.465 112.465 0 0 0-2.007-2.218c-.137-.148-.274-.298-.412-.445a104.682 104.682 0 0 0-2.21-2.281c-.154-.154-.308-.304-.461-.456a97.14 97.14 0 0 0-2.112-2.03l-.209-.198a90.952 90.952 0 0 0-2.779-2.464 89.7 89.7 0 0 0-2.282-1.888c-.069-.055-.138-.106-.206-.161a81.125 81.125 0 0 0-2.157-1.646c-.16-.118-.32-.238-.48-.355a78.57 78.57 0 0 0-2.278-1.597c-.144-.097-.289-.191-.433-.287a72.947 72.947 0 0 0-2.085-1.336c-.121-.074-.241-.152-.362-.225a70.436 70.436 0 0 0-2.299-1.338c-.176-.098-.352-.194-.529-.291a68.094 68.094 0 0 0-2.358-1.237 65.466 65.466 0 0 0-2.352-1.102c-.181-.081-.361-.162-.542-.24a61.7 61.7 0 0 0-2.306-.954c-.127-.049-.253-.094-.38-.143a58.86 58.86 0 0 0-2.078-.748c-.16-.055-.32-.111-.48-.164a58.832 58.832 0 0 0-2.289-.704c-.179-.051-.359-.099-.538-.149-.7-.193-1.4-.373-2.1-.537-.104-.025-.209-.052-.313-.076a56.85 56.85 0 0 0-2.892-.577 56.578 56.578 0 0 0-2.284-.353c-.108-.014-.215-.024-.323-.038a55.164 55.164 0 0 0-2.053-.216c-.199-.017-.397-.036-.596-.051a53.584 53.584 0 0 0-2.223-.124c-.188-.007-.376-.009-.564-.013a52.454 52.454 0 0 0-1.902-.014c-.174.002-.349 0-.522.004-.73.014-1.458.046-2.185.089-.224.013-.447.029-.671.045-.665.048-1.33.105-1.993.177-.158.017-.316.034-.474.053a56.699 56.699 0 0 0-2.715.385c-.702.117-1.403.243-2.102.386-.204.042-.408.089-.612.134-.562.121-1.123.251-1.682.389-.236.058-.471.114-.706.175-.677.176-1.351.365-2.024.565-.254.075-.507.155-.76.234-.532.166-1.063.339-1.592.52-.227.078-.454.151-.681.232a66.446 66.446 0 0 0-2.756 1.053c-.57.232-1.138.472-1.705.721-.306.135-.612.275-.917.415a67.155 67.155 0 0 0-1.921.916c11.969 4.661 23.824 13.612 34.9 27.595z" fill="#1d4859"></path></g></svg>