<svg viewBox="0 0 60 60" xmlns="http://www.w3.org/2000/svg"><g><path d="M42.53 25.99v19.04a3.55 3.55 0 0 1-7.1 0V31.32c-2.24-.11-3.82.19-4.82.5l2.26 1.72a3.42 3.42 0 0 1 .98 4.26l-4.3 8.74a3.59 3.59 0 0 1-2.12 1.85c-.94.31-1.94.23-2.81-.22a3.615 3.615 0 0 1-1.61-4.81L26 37.14l-.41-.32c-.85.7-1.96.87-2.74.89l-1.21 5.66a3.784 3.784 0 0 1-3.68 2.98H9.6a3.61 3.61 0 0 1-3.6-3.6c0-1.99 1.62-3.61 3.6-3.61h5.61l1.46-7.04c0-.03.01-.07.02-.1 3.58-11.39 15.47-12.02 20.41-11.77 3.04.15 5.43 2.69 5.43 5.76z" fill="#4faade"></path><path d="M54 17.92c0 3.58-2.92 6.5-6.5 6.5s-6.49-2.92-6.49-6.5 2.91-6.5 6.49-6.5 6.5 2.92 6.5 6.5z" fill="#fbd494"></path></g></svg>