<svg viewBox="0 0 500 500" xmlns="http://www.w3.org/2000/svg"><g><path d="M129.2 316.2c2.7 3.5 2.1 8.5-1.4 11.2s-8.5 2.1-11.2-1.4c-9.5-12.2-17.6-25.8-24-40.3-6.2-14.1-10.7-29.1-13.3-44.8-.7-4.3 2.2-8.4 6.6-9.2 4.4-.7 8.4 2.3 9.2 6.6 2.4 14.3 6.5 28.1 12.2 41 5.7 13.3 13.1 25.7 21.9 36.9zm-4.8-205.9c-2.6 3.6-7.5 4.5-11.1 1.9s-4.5-7.5-1.9-11.1c7.6-10.8 16.4-20.7 26-29.7 9.6-8.9 20.2-16.9 31.6-23.7 3.8-2.3 8.7-1 10.9 2.7 2.3 3.8 1 8.7-2.7 10.9-10.4 6.2-20 13.5-28.9 21.7-8.9 8.3-16.9 17.4-23.9 27.3zM265.9 37c-4.4 0-8-3.6-8-8s3.6-8 8-8c23.2 0 45.5 4.2 66.2 12 21.4 8 41 19.8 57.9 34.4 3.3 2.9 3.7 7.9.8 11.3-2.9 3.3-7.9 3.7-11.3.8C364 66 346.1 55.2 326.6 48c-18.9-7.2-39.4-11-60.7-11zm173 173.1c0-4.4 3.6-8 8-8s8 3.6 8 8c0 23.8-4.4 46.6-12.4 67.6-8.4 21.8-20.6 41.7-36 58.7-2.9 3.3-8 3.6-11.3.6-3.3-2.9-3.5-8-.6-11.3 14.1-15.6 25.3-33.8 32.9-53.7 7.4-19.2 11.4-40.1 11.4-61.9z" fill="#506e7a"></path><path d="M370.6 201.6c4.4 0 8 3.6 8 8s-3.6 8-8 8h-22.5c-4.4 0-8-3.6-8-8s3.6-8 8-8zm-173.2 87.8c-3.1 3.1-8.2 3.1-11.3 0s-3.1-8.2 0-11.3l15.9-15.9c3.1-3.1 8.2-3.1 11.3 0s3.1 8.2 0 11.3zm76.4 25c0 4.4-3.6 8-8 8s-8-3.6-8-8v-21.2c0-4.4 3.6-8 8-8s8 3.6 8 8zm71.8-36.3c3.1 3.1 3.1 8.2 0 11.3s-8.2 3.1-11.3 0l-15.9-15.9c-3.1-3.1-3.1-8.2 0-11.3s8.2-3.1 11.3 0zm-184.5-60.5c-4.4 0-8-3.6-8-8s3.6-8 8-8h22.5c4.4 0 8 3.6 8 8s-3.5 8-8 8zm25-76.4c-3.1-3.1-3.1-8.2 0-11.3s8.2-3.1 11.3 0l15.9 15.9c3.1 3.1 3.1 8.2 0 11.3s-8.2 3.1-11.3 0zm71.8-36.3c0-4.4 3.6-8 8-8s8 3.6 8 8v22.5c0 4.4-3.6 8-8 8s-8-3.6-8-8zm76.4 25c3.1-3.1 8.2-3.1 11.3 0s3.1 8.2 0 11.3l-15.9 15.9c-3.1 3.1-8.2 3.1-11.3 0s-3.1-8.2 0-11.3z" fill="#f6851f"></path><g clip-rule="evenodd" fill-rule="evenodd"><path d="m265.9 157 18.2 33 37.2 7.2-25.8 27.6 4.6 37.5-34.2-16-34.3 16 4.7-37.5-25.9-27.6 37.2-7.2z" fill="#f6851f"></path><path d="M119 367.6c12.7-1 25.2-7.2 36.7-16.8 44.3-37 53.6-26.2 128.3-18.7 31.7 3.2 22.1 38.1-9.7 37.3-18.4-.4-36.8-.9-55.2-1.3-7.1 17.7 79.3 37.1 114.6 24.4l66.3-23.9c29.5-12 55.9 8.7 28.5 25-34.1 20.3-115.4 73.2-144.6 79.7L119 463.9z" fill="#ffd389"></path><path d="M358.7 436.2c-29.7 17.6-59.4 33.8-74.8 37.2L119 463.9v-56z" fill="#e0b85a"></path><path d="M69.7 352.4H119V479H31.3z" fill="#78756a"></path><path d="M119 407.9V479H31.3l21.6-71.1z" fill="#676156"></path><path d="m93.4 129.2 13.3 24 27 5.2-18.8 20.1 3.4 27.3-24.9-11.6-24.9 11.6 3.4-27.3-18.8-20.1 27-5.2zM429.8 101.2l12.9 23.3 26 5-18.1 19.4 3.3 26.3-24.1-11.2-24 11.2 3.3-26.3-18.2-19.4 26.1-5z" fill="#f6851f"></path></g></g></svg>