<svg viewBox="0 0 66 66" xmlns="http://www.w3.org/2000/svg"><g><path d="M62.897 64.984H3.103l5.244-15.883a5.907 5.907 0 0 1 5.597-4.051h38.112c2.546 0 4.8 1.636 5.597 4.051z" fill="#445a6b"></path><path d="M25.937 45.05h14.145v19.935H25.937z" fill="#d2dbe0"></path><path d="m40.505 45.053.141 9.965-7.64-4.79-7.638 4.79-.167-9.965 3.581-1.638h8.44z" fill="#b9c1c6"></path><g fill="#ee432c"><path d="M31.288 55.208a.53.53 0 0 0 .507.373h2.413a.531.531 0 0 0 .507-.374l.629-2.02a.531.531 0 0 0-.508-.69h-3.669a.531.531 0 0 0-.507.69zM34.618 56.468a.495.495 0 0 0-.492-.44h-2.25a.495.495 0 0 0-.492.44l-1.077 8.516h5.389z" fill="#ee432c"></path></g><path d="M29.931 64.984h-6.366l-5.72-7.92 4.434-2.671-4.085-2.252c3.981-4.145 5.924-7.315 9.446-9.047-3.513 4.568-.404 7.455 2.291 21.89zM48.165 57.063l-5.73 7.921H36.07c2.776-14.61 5.776-17.358 2.291-21.89 3.547 1.73 5.422 4.878 9.456 9.047l-4.095 2.252z" fill="#112b3f"></path><path d="M39.133 33.87v8.825c0 3.603-2.663 6.522-5.949 6.522h-.365c-3.286 0-5.949-2.92-5.949-6.522V33.87z" fill="#fab687"></path><path d="M33.025 43.738c-3.093 0-5.733-2.154-6.005-4.997a15.28 15.28 0 0 1-.001-2.89c.27-2.843 2.912-4.998 6.005-4.998h.001c3.329 0 6.028 2.49 6.028 5.562v1.761c0 3.072-2.699 5.562-6.028 5.562z" fill="#f8a771"></path><path d="M48.45 22.88c0 1.293-.112 2.566-.314 3.789-1.445 8.588-7.669 15.044-15.135 15.044S19.31 35.257 17.865 26.67a23.286 23.286 0 0 1-.313-3.79c0-5.213 1.738-9.921 4.547-13.336C24.897 6.148 28.747 4.046 33 4.046s8.103 2.102 10.902 5.497c2.809 3.415 4.546 8.123 4.546 13.337z" fill="#fab687"></path><path d="M21.879 7.01c-.98-2.149.48-5.077 4.106-5.825C29.011.561 43.79 1.357 48.25 8.82c1.462 2.444 1.82 5.403 1.698 8.249-.18 4.247-1.457 8.356-3.53 12.068-1.294-11.514-1.207-12.098-2.066-13.397-2.324-3.518-6.675-1.423-15.62-2.944-1.89-.321-4.444-1.266-6.051.325-1.003.992-.827 1.143-3.616 15.94C15.5 21.73 13.512 6.432 21.879 7.01z" fill="#663430"></path><path d="M17.602 24.057c.046.887.123 1.764.263 2.612 1.445 8.588 7.669 15.044 15.136 15.044s13.69-6.456 15.135-15.044c.14-.848.218-1.725.264-2.612z" fill="#fab687"></path><g fill="#3d2f46"><circle cx="27.514" cy="24.577" fill="#3d2f46" r="1.594"></circle><circle cx="37.737" cy="24.577" fill="#3d2f46" r="1.594"></circle><path d="m28.833 20.701-.027-.142a.723.723 0 0 0-.849-.57l-3.382.662a.723.723 0 0 0-.57.849l.028.142a.723.723 0 0 0 .848.57l3.382-.662a.723.723 0 0 0 .57-.849zM40.675 20.651l-3.381-.662a.723.723 0 0 0-.848.57l-.028.142a.723.723 0 0 0 .57.848l3.382.663a.723.723 0 0 0 .848-.57l.028-.142a.723.723 0 0 0-.57-.849z" fill="#3d2f46"></path></g><path d="M38.238 33.641c-.156 2.633-2.426 4.727-5.232 4.727-2.675 0-5.092-1.982-5.24-4.727z" fill="#663430"></path><path d="M36.858 36.753c-1.51 1.515-3.512 1.908-5.304 1.425l.009-.008c.657-1.618 2.934-2.597 5.295-1.417z" fill="#ef4f63"></path><g fill="#fab687"><ellipse cx="47.704" cy="23.967" fill="#fab687" rx="3.172" ry="4.096"></ellipse><ellipse cx="18.299" cy="23.967" fill="#fab687" rx="3.172" ry="4.096"></ellipse></g></g></svg>