<svg viewBox="0 0 512 512" xmlns="http://www.w3.org/2000/svg"><g><path d="M96 16h320v480H96z" fill="#f06423"></path><path d="M96 16h160v480H96z" fill="#faa019"></path><path d="M416 48H96c-8.837 0-16-7.163-16-16s7.163-16 16-16h320c8.837 0 16 7.163 16 16s-7.163 16-16 16zM416 496H96c-8.837 0-16-7.163-16-16s7.163-16 16-16h320c8.837 0 16 7.163 16 16s-7.163 16-16 16zM416 352H96c-8.837 0-16-7.163-16-16s7.163-16 16-16h320c8.837 0 16 7.163 16 16s-7.163 16-16 16zM416 192H96c-8.837 0-16-7.163-16-16s7.163-16 16-16h320c8.837 0 16 7.163 16 16s-7.163 16-16 16z" fill="#f06423"></path><path d="M432 32H80c0-8.837 7.163-16 16-16h320c8.837 0 16 7.163 16 16zM432 176H80c0-8.837 7.163-16 16-16h320c8.837 0 16 7.163 16 16zM432 336H80c0-8.837 7.163-16 16-16h320c8.837 0 16 7.163 16 16zM432 480H80c0-8.837 7.163-16 16-16h320c8.837 0 16 7.163 16 16z" fill="#faa019"></path><path d="M128 48h32v112h-32zM128 352h32v112h-32zM128 192h32v128h-32z" fill="#ffd205"></path><circle cx="256" cy="256" fill="#d7e6f0" r="112"></circle><path d="M152 264a8 8 0 0 1-8-8c0-61.757 50.243-112 112-112a8 8 0 0 1 0 16c-52.935 0-96 43.065-96 96a8 8 0 0 1-8 8z" fill="#ffffff"></path><path d="M256 168c-5.14 0-10 2.318-13.227 6.319C228.865 191.564 192 240.267 192 272c0 35.346 28.654 64 64 64s64-28.654 64-64c0-31.733-36.865-80.436-50.773-97.681A16.983 16.983 0 0 0 256 168z" fill="#463c4b"></path><path d="M256 168c-5.14 0-10 2.317-13.227 6.318C228.865 191.564 192 240.267 192 272h32c17.673 0 32-14.327 32-32z" fill="#555a6e"></path></g></svg>