<svg viewBox="0 0 512 512" xmlns="http://www.w3.org/2000/svg"><g><path d="M250.5 22c-135.31 0-245 109.69-245 245 0 72.146 31.189 137.003 80.814 181.838l1-.445v-53.017c0-23.662 19.25-42.912 42.912-42.912h231.856c17.798 0 33.486 10.715 39.97 27.299l.249.636h12.346c2.471 0 4.48 2.01 4.48 4.48v58.464l1 .427C466.579 399.184 495.5 336.472 495.5 267c0-135.31-109.69-245-245-245z" fill="#d8ecfe"></path><path d="m146.217 139.078.371-.558-.375-.555a51.507 51.507 0 0 1-8.84-28.895V96.809c0-8.166 6.643-14.809 14.808-14.809h30.508V31.971A5.97 5.97 0 0 0 176.718 26H21.471a5.97 5.97 0 0 0-5.971 5.971v108.306a5.97 5.97 0 0 0 5.971 5.971h67.622c1.326 0 2.598.527 3.536 1.464l24.774 24.774c1.881 1.881 5.097.549 5.097-2.111v-19.128a5 5 0 0 1 5-5h14.716a52.984 52.984 0 0 1 4.001-7.169z" fill="#8bc727"></path><path d="M46.811 140.277V31.971A5.97 5.97 0 0 1 52.782 26H21.471a5.97 5.97 0 0 0-5.971 5.971v108.306a5.97 5.97 0 0 0 5.971 5.971h31.311a5.97 5.97 0 0 1-5.971-5.971z" fill="#81b823"></path><path d="M407.038.005c-49.823-.504-92.096 35.939-100.149 83.84 27.551 6.801 48.046 31.715 48.046 61.336v41.882a99.848 99.848 0 0 0 28.409 11.369 5.044 5.044 0 0 1 3.253 2.378l16.868 29.216c1.127 1.951 3.943 1.951 5.07 0l16.867-29.215a5.047 5.047 0 0 1 3.255-2.38c44.592-10.275 77.843-50.22 77.843-97.933C506.5 45.342 462.065.562 407.038.005z" fill="#fed402"></path><g fill="#fac600"><path d="M322.026 88.583c.004-.89-.006-1.777.021-2.672.881-29.292 14.46-55.429 35.298-73.236-25.881 14.436-44.885 39.981-50.279 70.179a63.678 63.678 0 0 1 14.96 5.729zM403.097 189.32a5.046 5.046 0 0 0-3.253-2.378c-16.586-3.822-31.589-11.763-43.909-22.666v23.37a99.84 99.84 0 0 0 27.409 10.787 5.044 5.044 0 0 1 3.253 2.378l16.868 29.216c1.127 1.951 3.943 1.951 5.07 0l9.032-15.644z" fill="#fac600"></path></g><path d="M146.266 66.5H51.923a7.5 7.5 0 0 1 0-15h94.343a7.5 7.5 0 0 1 0 15zM152.182 82h.346a7.49 7.49 0 0 0-6.261-3.376H51.923a7.5 7.5 0 0 0 0 15h85.804C139.189 86.985 145.111 82 152.182 82zM98.498 120.748H51.923a7.5 7.5 0 0 1 0-15h46.574a7.5 7.5 0 0 1 .001 15z" fill="#ffffff"></path><path d="m389.47 82.387 13.917-13.917a5.773 5.773 0 0 0 0-8.165l-23.013-23.013a5.773 5.773 0 0 0-8.165 0l-13.21 13.21 3.128 4.542zM469.209 126.126l-23.013-23.013a5.773 5.773 0 0 0-8.165 0l-13.917 13.917 25.99 25.99 5.896 4.482 13.21-13.21a5.777 5.777 0 0 0-.001-8.166z" fill="#2882b2"></path><path d="M455.999 147.501c-14.924 14.924-39.119 14.924-54.043 0l-42.957-42.957c-14.923-14.924-14.923-39.119 0-54.043z" fill="#116d9a"></path><path d="M410.9 138.557 367.943 95.6c-11.788-11.788-14.256-29.358-7.422-43.577l-1.522-1.522c-14.923 14.923-14.923 39.119 0 54.043l42.957 42.957c14.924 14.924 39.119 14.924 54.043 0l-1.522-1.522c-14.22 6.834-31.789 4.366-43.577-7.422z" fill="#005e89"></path><path d="M362.082 351.464H130.226c-24.252 0-43.912 19.66-43.912 43.912v53.461C129.76 488.092 187.336 512 250.5 512c59.037 0 113.194-20.885 155.494-55.665v-60.958c0-24.253-19.66-43.913-43.912-43.913z" fill="#26a6fe"></path><path d="M128 395.377c0-24.252 19.66-43.912 43.912-43.912h-41.686c-24.252 0-43.912 19.66-43.912 43.912v53.461A245.823 245.823 0 0 0 128 479.199z" fill="#0593fc"></path><path d="m278.734 439.235 9.263-16.043-12.99-7.5-9.263 16.043c-3.514-1.73-7.813-.468-9.8 2.973a7.5 7.5 0 0 0 2.745 10.245 7.5 7.5 0 0 0-7.5 12.99 7.5 7.5 0 0 0-7.5 12.99 7.5 7.5 0 0 0-7.5 12.99 7.5 7.5 0 0 0-10.245 2.745c-1.987 3.441-.93 7.796 2.325 9.973l-7.807 13.522a246.1 246.1 0 0 0 16.48 1.456l4.317-7.478c3.514 1.73 7.813.468 9.8-2.973a7.5 7.5 0 0 0-2.745-10.245 7.5 7.5 0 1 0 7.5-12.99 7.5 7.5 0 1 0 7.5-12.99 7.5 7.5 0 1 0 7.5-12.99 7.5 7.5 0 0 0 10.245-2.745c1.986-3.441.93-7.795-2.325-9.973z" fill="#d8ecfe"></path><path d="m293.236 410.833-18.064-10.429-4.661 8.074a5 5 0 0 0 1.83 6.83l17.321 10a5 5 0 0 0 6.83-1.83l5.095-8.825a47.512 47.512 0 0 1-8.351-3.82z" fill="#eaf6ff"></path><path d="M277.256 338.169h-62.204a57.224 57.224 0 0 1-19.836-3.53v59.55c0 4.749 4.825 7.974 9.213 6.158l39.177-16.211a6.668 6.668 0 0 1 5.097 0l39.177 16.211c4.388 1.816 9.213-1.41 9.213-6.158v-59.55a57.234 57.234 0 0 1-19.837 3.53z" fill="#60b7ff"></path><path d="m294.746 410.219 29.529-51.146-.277-1.521-22.941-13.245a8.187 8.187 0 0 0-11.184 2.997l-23.074 39.966a8.187 8.187 0 0 0 2.997 11.184l22.941 13.245z" fill="#116d9a"></path><path d="M144.278 217.088h13.295v-20.194c0-17.013 12.514-31.155 28.819-33.714l-15.207-5.607c-10.512-3.876-19.224-11.008-25.174-19.986a53.666 53.666 0 0 0-9.638 30.755v50.014a25.25 25.25 0 0 1 7.905-1.268z" fill="#ca6e59"></path><path d="m170.839 158.511 13.641 5.029a34.108 34.108 0 0 1 7.222-.776h108.902c18.819 0 34.13 15.311 34.13 34.129v20.194h13.296c2.76 0 5.415.449 7.904 1.269v-73.174c0-35.447-28.735-64.182-64.182-64.182h-139.57c-8.731 0-15.808 7.078-15.808 15.808v12.261c-.001 22.073 13.756 41.806 34.465 49.442z" fill="#ca6e59"></path><path d="M182.776 162.912a35.175 35.175 0 0 1 8.927-1.148h29.586l-8.823-3.253C191.756 150.875 178 131.142 178 109.07V96.808C178 88.078 185.078 81 193.808 81h-41.626c-8.731 0-15.808 7.078-15.808 15.808v12.261c0 22.072 13.756 41.806 34.466 49.441z" fill="#bb5d4c"></path><path d="M216.294 338.169V349.6c0 1.22.335 2.416.968 3.459l23.195 38.204c2.595 4.275 8.799 4.275 11.394 0l23.195-38.204a6.666 6.666 0 0 0 .968-3.459v-11.431z" fill="#ffb09e"></path><path d="M237.279 349.6v-10.431h-20.986V349.6c0 1.22.335 2.416.968 3.459l23.195 38.204c2.595 4.275 8.799 4.275 11.394 0l4.796-7.899-18.4-30.305a6.677 6.677 0 0 1-.967-3.459zM348.03 216.088h-13.296v64.603c0 1.312-.06 2.61-.147 3.9h13.443c14.551 0 26.347-11.796 26.347-26.347v-15.808c0-14.552-11.796-26.348-26.347-26.348z" fill="#ffa78f"></path><path d="m335.791 284.145 22.942 13.245 1.581-.738 29.935-51.85-.255-1.559-22.942-13.245a8.187 8.187 0 0 0-11.184 2.997l-23.074 39.966a8.188 8.188 0 0 0 2.997 11.184z" fill="#116d9a"></path><path d="M390.068 380.399H412v-37.988z" fill="#ffcebf"></path><path d="M414.646 379.399h-24.001l-5.113 8.857a11.492 11.492 0 0 1-9.926 5.727c-1.997 0-3.973-.531-5.713-1.536l-12.961-7.483-.502.857a98.31 98.31 0 0 1-3.163 5.112v98.519a245.446 245.446 0 0 0 66.859-45.681V384.88a5.48 5.48 0 0 0-5.48-5.481z" fill="#26a6fe"></path><path d="m357.293 386.326-.033.057a94.72 94.72 0 0 1-3.993 6.322v96.746a244.456 244.456 0 0 0 20.873-10.924v-83.634a12.406 12.406 0 0 1-4.748-1.58z" fill="#0593fc"></path><path d="m389.994 243.243-97.258 168.456c25.917 14.963 49.561.601 64.524-25.316l43.072-74.602c14.963-25.917 15.579-53.575-10.338-68.538z" fill="#2882b2"></path><path d="M380.734 306.571c-4.658-2.689-10.755-1.523-13.74 2.952-3.271 4.903-1.682 11.467 3.341 14.367-4.83-2.789-11.007-1.134-13.795 3.696s-1.134 11.007 3.696 13.795c-4.83-2.789-11.007-1.134-13.795 3.696-2.789 4.83-1.134 11.007 3.696 13.795-5.023-2.9-11.501-.995-14.113 4.29-2.383 4.822-.345 10.686 4.313 13.375l29.055 16.775c5.954 3.438 13.567 1.398 17.005-4.556l27.947-48.405c3.438-5.954 1.398-13.567-4.556-17.005z" fill="#ffb09e"></path><path d="m353.983 371.488 28.896-50.05c2.642-4.576 7.67-6.91 12.605-6.35l-14.751-8.516c-4.658-2.689-10.755-1.523-13.74 2.952-3.271 4.903-1.682 11.467 3.341 14.367-4.83-2.789-11.007-1.134-13.795 3.696s-1.134 11.007 3.696 13.795c-4.83-2.789-11.007-1.134-13.795 3.696-2.789 4.83-1.134 11.007 3.696 13.795-5.023-2.9-11.501-.995-14.112 4.29-2.383 4.822-.345 10.686 4.313 13.375l13.706 7.913c-2.269-3.865-2.461-8.804-.06-12.963z" fill="#ffa78f"></path><path d="M277.256 339.169h-62.204c-32.297 0-58.479-26.182-58.479-58.479v-83.797c0-19.402 15.728-35.13 35.13-35.13h108.902c19.402 0 35.13 15.728 35.13 35.13v83.797c0 32.297-26.182 58.479-58.479 58.479z" fill="#ffcebf"></path><path d="M157.573 280.69v-64.603h-13.296c-14.551 0-26.347 11.796-26.347 26.347v15.808c0 14.551 11.796 26.347 26.347 26.347h13.443a57.785 57.785 0 0 1-.147-3.899z" fill="#ffa78f"></path><path d="M180.838 280.69v-83.797c0-19.402 15.728-35.13 35.13-35.13h-24.265c-19.402 0-35.13 15.728-35.13 35.13v83.797c0 32.297 26.182 58.479 58.479 58.479h24.265c-32.297 0-58.479-26.182-58.479-58.479z" fill="#ffb09e"></path><path d="M218.753 290.492v1.057c0 15.133 12.268 27.401 27.401 27.401s27.401-12.268 27.401-27.401v-1.057a5.48 5.48 0 0 0-5.48-5.48h-43.842a5.48 5.48 0 0 0-5.48 5.48z" fill="#fd8087"></path><path d="M239.197 291.549v-1.057a5.48 5.48 0 0 1 5.48-5.48h-20.445a5.48 5.48 0 0 0-5.48 5.48v1.057c0 15.133 12.268 27.401 27.401 27.401 3.615 0 7.063-.707 10.222-1.979-10.067-4.052-17.178-13.904-17.178-25.422z" fill="#fe646f"></path><circle cx="200.368" cy="227.632" fill="#ca6e59" r="14.93"></circle><circle cx="291.94" cy="227.632" fill="#ca6e59" r="14.93"></circle><path d="M246.157 274.653a7.48 7.48 0 0 1-5.647-2.562l-12.295-14.052a7.5 7.5 0 0 1-.959-8.494l12.295-22.834a7.499 7.499 0 0 1 10.159-3.048 7.5 7.5 0 0 1 3.048 10.159l-9.829 18.254 8.87 10.137a7.499 7.499 0 0 1-.706 10.583 7.467 7.467 0 0 1-4.936 1.857z" fill="#ca6e59"></path></g></svg>