<svg id="Flat" height="512" viewBox="0 0 340 340" width="512" xmlns="http://www.w3.org/2000/svg" xmlns:xlink="http://www.w3.org/1999/xlink"><linearGradient id="linear-gradient" gradientUnits="userSpaceOnUse" x1="109.698" x2="110.318" y1="9.862" y2="89.207"><stop offset="0" stop-color="#dfa8a3"/><stop offset="1" stop-color="#b76c64"/></linearGradient><linearGradient id="linear-gradient-2" gradientUnits="userSpaceOnUse" x1="108.563" x2="113.403" y1="22.595" y2="125.449"><stop offset="0" stop-color="#a76565"/><stop offset="1" stop-color="#843939"/></linearGradient><linearGradient id="linear-gradient-3" gradientUnits="userSpaceOnUse" x1="269.679" x2="327.896" y1="170" y2="170"><stop offset="0" stop-color="#ed6960"/><stop offset=".291" stop-color="#e15f57"/><stop offset="1" stop-color="#c84943"/></linearGradient><linearGradient id="linear-gradient-4" gradientUnits="userSpaceOnUse" x1="294.746" x2="245.744" y1="241.504" y2="242.194"><stop offset="0" stop-color="#edcfc9"/><stop offset="1" stop-color="#eca397"/></linearGradient><linearGradient id="linear-gradient-5" x1="303.873" x2="300.981" xlink:href="#linear-gradient-4" y1="214.848" y2="270.371"/><linearGradient id="linear-gradient-6" x1="139.403" x2="140.023" xlink:href="#linear-gradient" y1="201.442" y2="366.951"/><linearGradient id="linear-gradient-7" x1="180.254" x2="182.674" xlink:href="#linear-gradient-2" y1="153.803" y2="338.337"/><linearGradient id="linear-gradient-8" x1="101.161" x2="103.581" xlink:href="#linear-gradient-2" y1="154.84" y2="339.374"/><linearGradient id="linear-gradient-9" x1="126.307" x2="126.307" xlink:href="#linear-gradient-4" y1="91.193" y2="154.896"/><linearGradient id="linear-gradient-10" gradientUnits="userSpaceOnUse" x1="113.225" x2="112.333" y1="95.026" y2="125.351"><stop offset="0" stop-color="#dce9ed"/><stop offset="1" stop-color="#bac7d2"/></linearGradient><linearGradient id="linear-gradient-11" x1="134.279" x2="135.468" xlink:href="#linear-gradient-10" y1="134.682" y2="215.848"/><linearGradient id="linear-gradient-12" x1="221.932" x2="58.187" xlink:href="#linear-gradient" y1="82.823" y2="93.415"/><linearGradient id="linear-gradient-13" x1="227.536" x2="228.283" xlink:href="#linear-gradient-2" y1="217.402" y2="274.371"/><path d="m95.19 77.5 1.65-29.234a83.913 83.913 0 0 0 -13.166 7.022 19.13 19.13 0 0 1 -28.614-10.643 43.136 43.136 0 0 1 -1.36-6.757s15.835 12.959 40.4-20.108a15.74 15.74 0 0 1 15.983-6.035c18.269 3.984 53.857 17.036 56.3 58.442z" fill="url(#linear-gradient)"/><path d="m166.389 70.187a63.8 63.8 0 0 0 -3.307-17.174c-7.341.639-15.025 1.693-22.523 2.941l-.038.006c-23.351 4.212-28.465-8.376-29.528-15.43a5.528 5.528 0 0 0 -4.8-4.642c-12.186-1.588-13.293-11.216-12.747-17.239-24.192 31.958-39.746 19.239-39.746 19.239a43.136 43.136 0 0 0 1.364 6.757 19.13 19.13 0 0 0 28.61 10.638 83.913 83.913 0 0 1 13.166-7.022l-1.65 29.239 47.015-4.826z" fill="url(#linear-gradient-2)"/><path d="m292.687 328.614s1-145.1-3.168-219.022a39.027 39.027 0 0 1 2.949-17.258l2.8-6.689-7.768-5.245c-5.666-4.2-13.144-10.559-17.82-17.784 0 0 4.544-31.615 25.585-51.232 0 0 22.767 15.163 32.632 30.621 0 0-3.764 26.028-12.823 50.856a53.832 53.832 0 0 0 -3.339 19.213c.522 36.792 2.1 161.743.276 216.538z" fill="url(#linear-gradient-3)"/><path d="m272.116 234.562s7.312 47.822 4.875 94.052h-23.741l2.228-90.285z" fill="#39394c"/><path d="m267.244 226.438h21.663v30.6h-38.456s.817-23.017 16.793-30.6z" fill="url(#linear-gradient-4)"/><path d="m284.574 228.469v25.186a9.343 9.343 0 0 0 9.343 9.345h14.353a12.322 12.322 0 0 0 12.322-12.322v-19.23a12.322 12.322 0 0 0 -12.322-12.322h-14.353a9.343 9.343 0 0 0 -9.343 9.343z" fill="url(#linear-gradient-5)"/><path d="m40.78 158.666s-1.856 34.524-16.334 75.734-12.213 94.217-12.213 94.217h247.573s-8.525-77.592 7.438-102.176a22.733 22.733 0 0 0 -3.164-8.4c-4.9-7.773-15.6-9.881-22.569-3.9a15.647 15.647 0 0 0 -4.35 6.231c-6.532 1.842-12.473-.534-18.169-4.658-12.164-5.25-27.183-16.387-34.175-39.973z" fill="url(#linear-gradient-6)"/><path d="m95.722 114-29.7 9.4-7.422 53.085s103.947 58.9 114.9 113.9c0 0 25.011-69.6 8.223-129.124z" fill="#39394c"/><path d="m177.617 162.831s8.4 36.455-1.707 73.778a266.448 266.448 0 0 0 -9.19 69.63v22.375h20.51v-58.531a80.7 80.7 0 0 1 2.863-21.367c5.954-21.689 16.624-75.5-15.142-100.671z" fill="url(#linear-gradient-7)"/><path d="m91.324 112.131s-36.894 1.291-54.655 29.269a36.714 36.714 0 0 0 -5.088 28.318c3.088 12.61 13.019 29.882 46.919 35.295 0 0 80.73 11.982 79.355 95.988v27.613h15.659v-28.432s6.5-81.72-73.632-106.526c0 0-26.135-5.9-31.965-29.3a38.014 38.014 0 0 1 1.983-23.462c3.413-8.388 10.411-19.375 24.186-22.6z" fill="url(#linear-gradient-8)"/><path d="m98.192 92.987s-12.3 5.892-12.3 22.8c0 0-.257 14.348 14.347 11.273v24.084h66.148s2.772-35.869-7.732-59.953z" fill="url(#linear-gradient-9)"/><path d="m86.459 109.779c9.829-2.109 30.965-8.678 45.06-6.019 8.093 1.527 20.863 3.383 31.863 2.407-1.163-5.317-2.277-10.581-4.355-15.344l-60.465 1.793c-10.375 4.922-12.103 17.163-12.103 17.163z" fill="#d57370"/><path d="m105.119 105.431a44.468 44.468 0 0 1 2.184 4.862 5.724 5.724 0 0 0 10.411.672 39.449 39.449 0 0 0 3.071-7.73 31.247 31.247 0 0 0 -15.666 2.196z" fill="url(#linear-gradient-10)"/><path d="m96.213 93.95a40.032 40.032 0 0 1 8.9 11.482 109.4 109.4 0 0 1 15.664-2.2 38.294 38.294 0 0 0 1.378-11.318l-23.6.7a19.062 19.062 0 0 0 -2.342 1.336z" fill="#7f91ac"/><path d="m100.241 127.062s-5.294 3.574-7.8 11.958a28.254 28.254 0 0 0 2.825 22.2 45.417 45.417 0 0 0 10.163 11.949 3.9 3.9 0 0 0 4.508.342 13.411 13.411 0 0 0 5.16-5.457s10.749 26 40.621 37.711a3.8 3.8 0 0 0 3.72-.549c5.511-4.3 21.489-20.262 17.737-58.49a31.192 31.192 0 0 0 -2.322-9.3c-1.62-3.756-4.325-7.8-8.468-7.8h-9.263a14.969 14.969 0 0 0 -12.039 5.92c-3.494 4.7-10.109 10.478-21.5 10.478-16.136-.002-23.342-18.962-23.342-18.962z" fill="url(#linear-gradient-11)"/><path d="m142.3 117.89a3.016 3.016 0 0 1 -.571-.055l-3.557-.685a3 3 0 1 1 1.134-5.892l3.559.685a3 3 0 0 1 -.565 5.947z" fill="#d57370"/><path d="m155.906 117.5a3 3 0 0 1 -1.017-5.823l2.762-1a3 3 0 1 1 2.035 5.644l-2.762 1a3 3 0 0 1 -1.018.179z" fill="#d57370"/><path d="m287.5 80.4c4.437 3.286 7.764 5.244 7.764 5.244a56.5 56.5 0 0 0 11.727-35.9 15.044 15.044 0 0 0 -4.742-10.381l-3.462-3.263c-5.951 4.429-9.932 10.13-11.049 17.678a.625.625 0 0 0 1.173.373 23.959 23.959 0 0 1 5.656-7.63 2.934 2.934 0 0 1 4.8 2c1.433 18.215-8.306 28.692-11.867 31.879z" fill="#b63131"/><path d="m16.413 82.884s15.582 5.1 53.827-3.4 123.517-17.284 183.01-9.915c0 0-20.625 47.57-99.1 30.111a144.4 144.4 0 0 0 -70.058 1.52c-20.701 5.768-47.645 6.271-67.679-18.316z" fill="url(#linear-gradient-12)"/><path d="m230.365 268.636c1.366-33.4 6.8-48.263 6.8-48.263a56.277 56.277 0 0 1 -18.169-4.658c-2.825 19.649 1.655 40.228 5.732 53.637a2.884 2.884 0 0 0 5.637-.716z" fill="url(#linear-gradient-13)"/></svg>