<svg viewBox="0 0 512 512" xmlns="http://www.w3.org/2000/svg"><g><circle cx="256" cy="256" fill="#00347b" r="256"></circle><path d="M512 256c0 141.5-114.52 256-256 256V0c141.5 0 256 114.52 256 256z" fill="#002860"></path><path d="M256 482c-60.421 0-117.19-23.495-159.85-66.156C53.492 373.184 30 316.417 30 256c0-60.421 23.495-117.19 66.156-159.85C138.816 53.492 195.583 30 256 30c60.421 0 117.19 23.495 159.85 66.156C458.508 138.816 482 195.583 482 256c0 60.421-23.495 117.19-66.156 159.85C373.184 458.508 316.417 482 256 482z" fill="#f5f5ff"></path><path d="M482 256c0 124.998-100.969 226-226 226V30c124.998 0 226 100.969 226 226z" fill="#ebebff"></path><circle cx="256" cy="76" fill="#00347b" r="15"></circle><path d="M271 76c0 8.28-6.72 15-15 15V61c8.28 0 15 6.72 15 15z" fill="#002860"></path><circle cx="76" cy="256" fill="#00347b" r="15"></circle><circle cx="436" cy="256" fill="#002860" r="15"></circle><circle cx="256" cy="436" fill="#00347b" r="15"></circle><path d="M271 436c0 8.28-6.72 15-15 15v-30c8.28 0 15 6.72 15 15z" fill="#002860"></path><path d="m363.05 168.83-70.27 70.51c-4.344-9.522-12.322-16.92-21.82-20.61l70.84-71.08c5.85-5.87 15.34-5.88 21.21-.03 5.87 5.84 5.89 15.34.04 21.21z" fill="#00cef2"></path><path d="M236.63 221.22c-8.612 4.906-15.58 13.164-18.6 23.54l-47.95-40.09c-6.36-5.32-7.2-14.78-1.89-21.13 5.32-6.36 14.78-7.2 21.13-1.89z" fill="#f23900"></path><path d="M288.179 224.123c-17.576-17.516-46.124-17.465-63.64.109-17.554 17.617-17.51 46.08.11 63.64 17.598 17.537 46.082 17.508 63.64-.109 17.555-17.617 17.51-46.083-.11-63.64z" fill="#3de9f2"></path><path d="M288.29 287.76c-8.9 8.93-20.62 13.35-32.29 13.24v-89.98c11.64-.1 23.31 4.26 32.18 13.1 17.62 17.56 17.66 46.03.11 63.64z" fill="#00cef2"></path></g></svg>