<svg viewBox="0 0 60 60" xmlns="http://www.w3.org/2000/svg"><g><path d="M26 48h8v8h-8z" fill="#3f5c6c"></path><path d="m42 5.22-8.5 14.72A6.94 6.94 0 0 0 30 19v-9c.42 0 .84-.16 1.16-.48l2.36-2.36c.31-.31.48-.73.48-1.16V2.34c2.87.48 5.57 1.47 8 2.88z" fill="#2fa8cc"></path><path d="M26.5 19.94c-1.06.61-1.95 1.5-2.56 2.56L9.22 14c2.1-3.64 5.14-6.68 8.78-8.78z" fill="#ff5364"></path><path d="M23.94 29.5 9.23 38h-.01A23.82 23.82 0 0 1 6 26h17c0 1.27.34 2.47.94 3.5z" fill="#f0c419"></path><path d="M30 33v17c-4.37 0-8.47-1.17-12-3.22v-.01l8.5-14.71c1.03.6 2.23.94 3.5.94z" fill="#2fa8cc"></path><path d="M50.77 38A23.803 23.803 0 0 1 42 46.77l-8.5-14.71c1.06-.61 1.95-1.5 2.56-2.56z" fill="#ff5364"></path><path d="M54 26H37c0-1.27-.34-2.47-.94-3.5L50.78 14A23.82 23.82 0 0 1 54 26z" fill="#f0c419"></path><path d="M26.5 32.06 18 46.77A23.803 23.803 0 0 1 9.23 38l14.71-8.5c.61 1.06 1.5 1.95 2.56 2.56zM50.78 14l-14.72 8.5a6.985 6.985 0 0 0-2.56-2.56L42 5.22c3.64 2.1 6.68 5.14 8.78 8.78z" fill="#ff5364"></path><path d="M23.94 22.5A6.94 6.94 0 0 0 23 26H6c0-4.37 1.17-8.47 3.22-12z" fill="#2fa8cc"></path><path d="M34 2.34V6c0 .43-.17.85-.48 1.16l-2.36 2.36c-.32.32-.74.48-1.16.48v9c-1.27 0-2.47.34-3.5.94L18 5.22c2.43-1.41 5.13-2.4 8-2.88z" fill="#f0c419"></path><path d="M54 26c0 4.37-1.17 8.47-3.22 12h-.01l-14.71-8.5c.6-1.03.94-2.23.94-3.5z" fill="#2fa8cc"></path><path d="M42 46.77v.01A23.82 23.82 0 0 1 30 50V33c1.27 0 2.47-.34 3.5-.94z" fill="#f0c419"></path><path d="M37 26c0 1.27-.34 2.47-.94 3.5a6.985 6.985 0 0 1-2.56 2.56c-1.03.6-2.23.94-3.5.94s-2.47-.34-3.5-.94a6.985 6.985 0 0 1-2.56-2.56c-.6-1.03-.94-2.23-.94-3.5s.34-2.47.94-3.5c.61-1.06 1.5-1.95 2.56-2.56 1.03-.6 2.23-.94 3.5-.94s2.47.34 3.5.94c1.06.61 1.95 1.5 2.56 2.56.6 1.03.94 2.23.94 3.5z" fill="#2fa8cc"></path><path d="M34 2v4c0 .43-.17.85-.48 1.16l-2.36 2.36c-.32.32-.74.48-1.16.48s-.84-.16-1.16-.48l-2.36-2.36C26.17 6.85 26 6.43 26 6V2c0-.55.45-1 1-1h6c.55 0 1 .45 1 1zM37 26c0 1.27-.34 2.47-.94 3.5a6.985 6.985 0 0 1-2.56 2.56c-1.03.6-2.23.94-3.5.94s-2.47-.34-3.5-.94a6.985 6.985 0 0 1-2.56-2.56c-.6-1.03-.94-2.23-.94-3.5s.34-2.47.94-3.5c.61-1.06 1.5-1.95 2.56-2.56 1.03-.6 2.23-.94 3.5-.94s2.47.34 3.5.94c1.06.61 1.95 1.5 2.56 2.56.6 1.03.94 2.23.94 3.5z" fill="#ecf0f1"></path><path d="M21 55h18a2 2 0 0 1 2 2v1a1 1 0 0 1-1 1H20a1 1 0 0 1-1-1v-1a2 2 0 0 1 2-2z" fill="#547580"></path></g></svg>