<svg viewBox="0 0 256 256" xmlns="http://www.w3.org/2000/svg"><g><path d="M166.903 205.332H89.097c-42.709 0-77.332-34.623-77.332-77.332 0-42.709 34.623-77.332 77.332-77.332h77.805c42.709 0 77.332 34.623 77.332 77.332.001 42.71-34.622 77.332-77.331 77.332z" fill="#478cf7"></path><path d="M216.357 68.546C227.52 81.951 234.235 99.191 234.235 118c0 42.71-34.623 77.332-77.332 77.332H79.097c-18.809 0-36.049-6.715-49.454-17.878 14.185 17.035 35.553 27.878 59.454 27.878h77.805c42.709 0 77.332-34.623 77.332-77.332.001-23.901-10.842-45.269-27.877-59.454z" fill="#377de2"></path><path d="M205.516 157.29c.065-1.247.099-2.502.099-3.765v-51.051c0-1.263-.033-2.518-.099-3.765h27.673c1.886 0 3.73.179 5.517.522a77.168 77.168 0 0 0-2.926-6.427 35.275 35.275 0 0 0-2.591-.095h-28.242c-2.115-15.359-9.146-29.17-19.449-39.791a77.151 77.151 0 0 0-11.059-1.888c12.879 10.047 21.903 24.815 24.445 41.679h-41.442V60.701c0-3.521-.622-6.9-1.761-10.033h-6.497a23.303 23.303 0 0 1 2.258 10.033V92.71h-46.887V60.701c0-3.588.811-6.99 2.258-10.033h-6.497a29.309 29.309 0 0 0-1.761 10.033V92.71h-41.44c2.543-16.864 11.567-31.632 24.445-41.679-3.772.365-7.465 1-11.059 1.888C60.199 63.54 53.167 77.351 51.052 92.71H22.811c-.871 0-1.735.032-2.59.095a76.853 76.853 0 0 0-2.927 6.427 29.335 29.335 0 0 1 5.517-.522h27.673a72.313 72.313 0 0 0-.099 3.765v51.051c0 1.263.033 2.518.099 3.765H22.811c-1.885 0-3.73-.179-5.517-.521a76.853 76.853 0 0 0 2.927 6.427c.856.063 1.719.095 2.59.095h28.242c2.115 15.359 9.146 29.17 19.449 39.792a77.151 77.151 0 0 0 11.059 1.888c-12.879-10.047-21.903-24.816-24.445-41.679h41.442v32.009c0 3.521.622 6.9 1.761 10.033h6.497a23.303 23.303 0 0 1-2.258-10.033V163.29h46.887v32.009c0 3.588-.811 6.99-2.258 10.033h6.497a29.309 29.309 0 0 0 1.761-10.033V163.29h41.442c-2.543 16.864-11.567 31.632-24.445 41.679a77.151 77.151 0 0 0 11.059-1.888c10.303-10.621 17.334-24.433 19.449-39.792h28.242c.871 0 1.735-.032 2.591-.095a76.523 76.523 0 0 0 2.926-6.427 29.335 29.335 0 0 1-5.517.521h-27.676zm-149.023 0a66.164 66.164 0 0 1-.108-3.765v-51.051c0-1.264.037-2.519.108-3.765h42.064v58.58H56.493zm48.064 0V98.71h46.887v58.58zm52.886 0V98.71h42.064c.071 1.246.108 2.501.108 3.765v51.051c0 1.264-.036 2.519-.108 3.765h-42.064z" fill="#377de2"></path><path d="M199.397 182.621a77.274 77.274 0 0 1-9.69 5.429 65.75 65.75 0 0 1-15.267 16.92 77.123 77.123 0 0 0 11.06-1.888 71.533 71.533 0 0 0 13.897-20.461zM231.809 98.71c2.299-.038 4.693.078 6.897.522a76.79 76.79 0 0 0-2.926-6.427c-1.566-.136-4.172-.087-5.775-.095a76.902 76.902 0 0 1 1.804 6zM233.189 157.29h-9.665a77.772 77.772 0 0 1-3.933 6c1.926-.033 14.567.089 16.188-.095a76.79 76.79 0 0 0 2.926-6.427c-1.786.343-3.63.522-5.516.522zM71.259 194.939a77.118 77.118 0 0 1-8.498-1.336 71.789 71.789 0 0 0 7.74 9.478 77.11 77.11 0 0 0 11.059 1.888 65.812 65.812 0 0 1-10.301-10.03zM98.557 195.332a29.297 29.297 0 0 0 1.761 10h6.497a23.296 23.296 0 0 1-2.257-10zM156.903 195.332h-5.46a23.31 23.31 0 0 1-2.257 10h6.497a29.308 29.308 0 0 0 1.761-10.002l-.541.002z" fill="#2266d3"></path><path d="M76.741 120.843a3.37 3.37 0 0 1-2.383.987h-4.221a3.37 3.37 0 0 0-3.37 3.37 3.37 3.37 0 0 1-3.37 3.37h-.851a3.37 3.37 0 0 1-2.383-.987l-8.585-8.585a3.37 3.37 0 0 1-.987-2.383v-6.869a3.37 3.37 0 0 0-.987-2.383l-3.193-3.193a3.37 3.37 0 0 0-2.383-.987H34.64a3.37 3.37 0 0 1-3.37-3.37v-1.108a3.37 3.37 0 0 1 3.385-3.37l45.776.203a3.37 3.37 0 0 1 2.368.987l6.746 6.746a3.37 3.37 0 0 1 0 4.766zM90.756 136.831a2.897 2.897 0 0 0-2.048-.848H78.313a2.897 2.897 0 0 0-2.896 2.896v7.699c0 .768.305 1.505.848 2.048l6.054 6.054c.543.543.848 1.28.848 2.048v8.16c0 .768-.305 1.505-.848 2.048l-3.471 3.471a2.897 2.897 0 0 0-.848 2.048v4.044a2.896 2.896 0 0 0 4.944 2.048l19.249-19.249c.543-.543.848-1.28.848-2.048v-6.933c0-.768-.305-1.505-.848-2.048zM196.683 127.777l26.625-26.625c3.033-3.033.885-8.219-3.404-8.219h-79.026a4.811 4.811 0 0 0-3.404 1.41l-18.277 18.277a4.816 4.816 0 0 0-1.41 3.352l-.192 17.39a4.815 4.815 0 0 0 4.814 4.868h5.594a4.815 4.815 0 0 1 4.815 4.815v12.65c0 1.277.507 2.501 1.41 3.404l4.749 4.749a4.815 4.815 0 0 0 8.219-3.405v-4.718c0-1.277.507-2.502 1.41-3.405l6.728-6.728a4.815 4.815 0 0 0 1.41-3.404v-5.559c0-1.277.507-2.502 1.41-3.405l2.628-2.627a4.815 4.815 0 0 1 3.404-1.41h29.092a4.814 4.814 0 0 0 3.405-1.41zM220.242 163.524l-5.324-5.324a1.745 1.745 0 0 0-1.234-.511h-9.899c-.463 0-.907.184-1.234.511l-5.829 5.83a1.745 1.745 0 0 0-.511 1.234v5.775c0 .964.782 1.746 1.745 1.746h2.125c.964 0 1.746-.781 1.746-1.746 0-.964.782-1.746 1.745-1.746h3.632c.463 0 .907.184 1.234.511l5.683 5.683c.327.327.771.511 1.234.511h3.653c.964 0 1.745-.781 1.745-1.746v-9.494c0-.463-.184-.907-.511-1.234z" fill="#91b56b"></path><path d="M207.583 146.826c0-.92-.745-1.665-1.665-1.665h-4.588a1.66 1.66 0 0 1-1.177-.488l-1.894-1.894a1.666 1.666 0 0 0-1.177-.488h-2.994a1.665 1.665 0 0 1-1.665-1.665v-2.799c0-.919-.745-1.665-1.665-1.665h-1.329c-.441 0-.865.175-1.177.488l-4.87 4.87a1.665 1.665 0 0 1-1.177.487h-4.671c-1.494 0-2.232 1.816-1.161 2.858l3.239 3.153c.311.303.727.472 1.161.472h25.146a1.663 1.663 0 0 0 1.664-1.664z" fill="#91b56b"></path><path d="M84.987 80.738c0 11.948-12.715 25.296-16.132 28.668a1.257 1.257 0 0 1-1.721.044c-3.356-2.985-15.166-14.352-16.034-27.223-.657-9.739 6.824-18.267 16.583-18.455 9.524-.183 17.304 7.483 17.304 16.966zM204.941 80.738c0 11.948-12.715 25.296-16.132 28.668a1.257 1.257 0 0 1-1.721.044c-3.356-2.985-15.166-14.352-16.035-27.223-.657-9.739 6.824-18.267 16.583-18.455 9.526-.183 17.305 7.483 17.305 16.966zM218.331 144.171c0 8.558-9.107 18.118-11.554 20.533a.902.902 0 0 1-1.233.032c-2.404-2.138-10.862-10.279-11.485-19.498-.471-6.975 4.888-13.083 11.877-13.218 6.823-.132 12.395 5.359 12.395 12.151zM102.686 134.619c0 8.558-9.107 18.118-11.554 20.533a.902.902 0 0 1-1.233.032c-2.404-2.138-10.862-10.279-11.485-19.498-.471-6.975 4.888-13.083 11.877-13.218 6.823-.132 12.395 5.359 12.395 12.151z" fill="#ffffff"></path><path d="M66.269 90.283a2.81 2.81 0 0 1-1.991-.824l-5.544-5.544a2.816 2.816 0 0 1 3.981-3.981l3.553 3.553 7.051-7.052a2.816 2.816 0 0 1 3.981 3.981l-9.042 9.042a2.801 2.801 0 0 1-1.989.825zM186.228 90.283a2.81 2.81 0 0 1-1.991-.824l-5.544-5.544a2.816 2.816 0 0 1 3.981-3.981l3.553 3.553 7.051-7.052a2.816 2.816 0 0 1 3.981 3.981l-9.042 9.042a2.798 2.798 0 0 1-1.989.825zM89.224 141.246c-.54 0-1.08-.206-1.492-.618l-4.156-4.156a2.111 2.111 0 0 1 2.985-2.985l2.664 2.664 5.286-5.287a2.111 2.111 0 0 1 2.985 2.985l-6.779 6.779a2.107 2.107 0 0 1-1.493.618zM204.869 150.798c-.54 0-1.08-.206-1.492-.618l-4.156-4.156a2.111 2.111 0 0 1 2.985-2.985l2.664 2.664 5.286-5.287a2.111 2.111 0 0 1 2.985 2.985l-6.779 6.779a2.107 2.107 0 0 1-1.493.618zM159.711 65.164c0 22.335-23.767 47.286-30.156 53.589a2.352 2.352 0 0 1-3.217.083c-6.274-5.58-28.349-26.828-29.973-50.888-1.229-18.205 12.756-34.146 30.999-34.498 17.805-.344 32.347 13.986 32.347 31.714z" fill="#ffa91a"></path><path d="M117.59 102.85c-.61 0-1.18-.27-1.56-.75-9.65-12.1-14.93-23.68-15.67-34.42-.05-.64-.07-1.28-.07-1.92 0-7.21 2.67-14.1 7.52-19.38 5.14-5.62 12.11-8.79 19.63-8.93.17-.01.34-.01.51-.01h.07c.06.01.11 0 .17 0 .53.01 1.03.22 1.41.6a2.002 2.002 0 0 1-1.43 3.4h-.18c-.16 0-.32 0-.47.01-6.41.13-12.36 2.84-16.76 7.63-4.11 4.48-6.47 10.56-6.47 16.68 0 .56.02 1.11.06 1.65.8 12.36 8.5 24.33 14.81 32.19.68.86.54 2.12-.32 2.81-.35.28-.79.44-1.25.44zm18.45-60.12c-.22 0-.43-.03-.63-.1-.51-.17-.92-.52-1.16-1s-.28-1.02-.11-1.53c.34-1.02 1.49-1.61 2.52-1.27 1.05.35 1.62 1.48 1.28 2.53a2.01 2.01 0 0 1-1.9 1.37z" fill="#ffc91d"></path><path d="M144.858 38.296a31.57 31.57 0 0 1 4.852 16.868c0 22.335-23.767 47.286-30.156 53.589a2.352 2.352 0 0 1-2.943.294c4.07 4.594 7.712 7.999 9.725 9.789a2.352 2.352 0 0 0 3.217-.083c6.388-6.303 30.156-31.254 30.156-53.589.002-11.32-5.928-21.255-14.851-26.868z" fill="#f79219"></path><path d="M147.782 40.375a31.585 31.585 0 0 1 6.928 19.789c0 22.335-23.767 47.286-30.156 53.589a2.352 2.352 0 0 1-3.217.083 100.205 100.205 0 0 1-2.131-1.953 115.863 115.863 0 0 0 7.131 6.953 2.352 2.352 0 0 0 3.217-.083c6.388-6.303 30.156-31.254 30.156-53.589.001-10.033-4.657-18.977-11.928-24.789z" fill="#ef7816"></path><circle cx="127.99" cy="64.263" fill="#ef7816" r="15.64"></circle></g></svg>