<svg viewBox="0 0 497 497" xmlns="http://www.w3.org/2000/svg"><g><path d="M469.5 221c0-59.61-20.052-113.453-66.799-160.2C362.319 23.09 308.11 0 248.5 0c-124.816 0-226 101.184-226 226 0 65.628 27.984 124.712 72.658 166l282.862 7c52.081-41.403 91.48-106.297 91.48-178z" fill="#f3f1f4"></path><path d="M402.701 60.8C440.41 101.182 463.5 155.39 463.5 215c0 71.257-32.986 134.803-84.512 176.226a3.522 3.522 0 0 1-2.208.774H95.158c40.29 37.236 94.154 60 153.342 60 124.816 0 226-101.184 226-226 0-65.206-27.626-123.951-71.799-165.2z" fill="#d5d9f2"></path><path d="M385.086 85.447C349.786 51.137 301.615 30 248.5 30c-108.248 0-196 87.752-196 196 0 69.94 269.272 166 269.272 166 66.07-31.513 111.728-98.922 111.728-177 0-49.774-20.441-95.504-48.414-129.553z" fill="#717ed4"></path><path d="M52.5 226c0 69.94 36.64 131.313 91.765 166l177.508 7C395.842 363.671 439.5 296.561 439.5 220c0-49.774-23.626-104.595-54.414-134.553 8.999 15.991 20.219 45.441 21.753 79.681-12.741 0-23.072 10.329-23.072 23.07 0 11.291 8.112 20.687 18.826 22.68a148.843 148.843 0 0 1-11.232 30.988 33.05 33.05 0 0 0-16.572-4.43c-18.339 0-33.204 14.866-33.204 33.205-12.825-17.552-32.398-28.77-54.331-28.77-22.407 0-41.86 11.38-51.616 28.068l-4.595-17.481a35.551 35.551 0 0 0-14.606-14.037l-16.24-3.924c9.785-10.177 15.905-24.654 15.905-40.721 0-36.963-33.294-66.928-74.365-66.928C92.453 126.847 52.5 171.239 52.5 226z" fill="#bd96e4"></path><g fill="#9d66d6"><path d="M168.906 247.049c-18.054 0-37.33-12.729-37.33-35.147 0-13.164 9.302-23.873 20.735-23.873 4.143 0 7.5-3.358 7.5-7.5s-3.357-7.5-7.5-7.5c-19.704 0-35.735 17.438-35.735 38.873 0 14.356 5.604 27.224 15.779 36.235 9.402 8.326 23.028 13.912 36.551 13.912 13.333 0 30.659-5.243 42.108-17.151 1.087-1.131 3.278-3.636 5.418-6.469a35.305 35.305 0 0 0-16.226-3.932.022.022 0 0 1-.005.004c-6.743 7.015-18.42 12.548-31.295 12.548zM222.687 262.367c-5.33 9.117-8.222 20.002-8.222 29.963 0 32.148 23.719 53.217 53.845 53.217 22.215 0 40.288-16.602 40.288-37.009 0-17.695-13.293-32.09-29.632-32.09-4.143 0-7.5 3.358-7.5 7.5s3.357 7.5 7.5 7.5c8.068 0 14.632 7.667 14.632 17.09 0 12.136-11.344 22.009-25.288 22.009-21.929 0-38.845-15.111-38.845-38.217 0-8.507 2.776-16.586 6.171-22.392l.002-.003a35.29 35.29 0 0 0-4.604-17.472c-3.616 3.409-7.21 7.958-8.347 9.904z" fill="#9d66d6"></path><path d="M385.086 85.448C413.059 119.496 433.5 165.226 433.5 215c0 77.791-45.323 144.99-110.999 176.65a3.54 3.54 0 0 1-1.537.35H144.265c29.492 18.558 64.271 29.485 101.572 29.982 108.374 1.445 197.967-86.322 198.66-194.703.354-55.641-22.487-105.943-59.411-141.831z" fill="#9d66d6"></path></g><path d="M415.39 421.27c-.426-1.597-5.227-9.78-8.643-11.602A29.92 29.92 0 0 0 394.403 407H102.597c-13.592 0-25.485 9.137-28.987 22.27L71.548 437l349.903 7z" fill="#f8e883"></path><path d="M423.39 429.27c-2.377-8.914-8.626-15.977-16.643-19.602a30.05 30.05 0 0 1 1.643 4.602l4.887 18.328a3.5 3.5 0 0 1-3.382 4.402H71.548l-4 15L248.5 462l180.952-10z" fill="#ffd064"></path><path d="M450.439 466.27c-.426-1.597-5.227-9.78-8.643-11.602A29.92 29.92 0 0 0 429.452 452H67.548c-13.592 0-25.485 9.137-28.987 22.27L36.5 482l420 7z" fill="#f8e883"></path><path d="M458.439 474.27c-2.377-8.914-8.626-15.977-16.643-19.602a30.05 30.05 0 0 1 1.643 4.602l4.887 18.328a3.5 3.5 0 0 1-3.382 4.402H36.5l-1.485 5.568c-1.27 4.761 2.319 9.432 7.247 9.432h412.476c4.928 0 8.516-4.671 7.247-9.432z" fill="#ffd064"></path><circle cx="280.363" cy="77.481" fill="#d5d9f2" r="15"></circle><path d="M325.688 82.885c-4.856 0-8.243 36.825-11.948 40.53s-29.546 7.172-29.546 12.029c0 4.856 25.84 8.323 29.546 12.029 3.705 3.705 7.092 40.53 11.948 40.53s8.243-36.825 11.948-40.53 29.546-7.172 29.546-12.029c0-4.856-25.84-8.323-29.546-12.029-3.705-3.705-7.092-40.53-11.948-40.53z" fill="#fcf5c7"></path><circle cx="229.465" cy="66.725" fill="#fcf5c7" r="8"></circle><circle cx="160.926" cy="92.481" fill="#ddc9f1" r="8"></circle><circle cx="359.972" cy="171.932" fill="#fcf5c7" r="8"></circle><circle cx="280.362" cy="204.191" fill="#ddc9f1" r="8"></circle></g></svg>