<svg viewBox="0 0 468 468" xmlns="http://www.w3.org/2000/svg"><g><path d="M186.842 63.837c-15.868-15.169-41.499-12.741-54.236 5.138l-31.646 44.42 55.317 38.183 32.94-38.157c12.539-14.524 11.494-36.326-2.375-49.584z" fill="#1ac4ff"></path><path d="M140.606 76.975c11.782-16.538 34.589-19.844 50.503-8.244a36.194 36.194 0 0 0-4.267-4.894c-15.868-15.169-41.498-12.741-54.236 5.138l-31.646 44.42 9.183 6.339z" fill="#00bbed"></path><ellipse cx="218.617" cy="40.889" fill="#fed9c9" rx="38.866" ry="38.889"></ellipse><path d="M185.751 49.889c0-21.478 17.401-38.889 38.866-38.889 11.557 0 21.93 5.053 29.049 13.064C247.396 11.011 234.058 2 218.617 2c-21.465 0-38.866 17.411-38.866 38.889 0 9.914 3.713 18.956 9.817 25.825a38.75 38.75 0 0 1-3.817-16.825z" fill="#f9c0af"></path><path d="M271.37 24.812c-3.843-9.757-14.623-15.583-24.672-10.801C239.623 6.612 229.659 2 218.617 2c-12.515 0-23.641 5.925-30.749 15.118a84.623 84.623 0 0 0 68.818 15.935l.008-.002a38.61 38.61 0 0 0-3.849-10.59c4.441-.83 8.095 2.537 9.432 6.506 2.62 5.739 11.802 1.77 9.093-4.155z" fill="#3d3d3d"></path><path d="m100.96 113.395-6.647 9.831a30 30 0 0 0-2.16 29.855l12.652 26.186-23.26 36.047 22.185 17.663 34.007-34.945a40.006 40.006 0 0 0 9.689-16.545l8.852-29.908z" fill="#f43869"></path><path d="M115.761 181.983a10 10 0 0 0 .602-9.772l-10.209-21.13a30 30 0 0 1 2.16-29.855l1.27-1.879-8.623-5.952-6.647 9.831a30 30 0 0 0-2.16 29.855l12.652 26.186-23.033 35.693 15.039 15.482c-4.273-4.846-4.545-12.049-1.042-17.477z" fill="#e52e5e"></path><path d="M81.545 215.312c-4.04 6.261-2.574 14.577 3.363 19.079a14.248 14.248 0 0 0 18.822-1.416l21.473-22.066-26.392-22.356zM293.836 174.63l-62.768 112.38 62.317 26.631 61.261-114.004z" fill="#ffc5b7"></path><path d="m293.836 174.63-2.428 4.348 50.238 20.659-58.833 109.486 10.572 4.518 61.261-114.004z" fill="#f9b5a7"></path><path d="M225.953 276.34a174.134 174.134 0 0 0-46.278 118.049L179.611 461h127.221V308.001c0-25.757-20.88-46.637-46.637-46.637a46.637 46.637 0 0 0-34.242 14.976z" fill="#1cf2b4"></path><path d="M240.953 276.34a46.632 46.632 0 0 1 26.756-14.365 46.979 46.979 0 0 0-7.513-.611 46.635 46.635 0 0 0-34.243 14.976 174.134 174.134 0 0 0-46.278 118.049L179.611 461h15l.064-66.611a174.134 174.134 0 0 1 46.278-118.049z" fill="#00d89f"></path><path d="M188.366 340.268a174.068 174.068 0 0 0-8.691 54.121L179.611 461h127.221v-38.682c-74.897-16.068-105.788-54.659-118.466-82.05z" fill="#00d89f"></path><path d="m216.39 305.27-58.836-14.41-.094-105.411 7.194-12.087a62.842 62.842 0 0 0 6.663-48.541l-.447-1.653a19.014 19.014 0 0 0-32.609-7.622l-.001.002a62.843 62.843 0 0 0-14.923 51.649l2.199 13.558-24.204 108.755c-3.915 17.592 5.781 35.368 22.692 41.6l74.569 27.48z" fill="#ffc5b7"></path><path d="m157.554 290.86-.042-46.724H111.43l-10.098 45.374c-3.915 17.592 5.781 35.368 22.692 41.6l91.986 33.898 15.768-55.969z" fill="#1cf2b4"></path><path d="M136.024 325.109c-24.016-8.443-26.607-24.008-22.692-41.6l8.763-39.374H111.43l-10.098 45.374c-3.915 17.592 5.781 35.368 22.692 41.6l91.986 33.898 2.66-9.442z" fill="#00c68d"></path><path d="m321.434 106.215-80.922 68.031c-15.2 12.779-14.014 36.534 2.384 47.735 21.096 14.411 49.023 13.807 69.476-1.503l37.492-28.063z" fill="#fed9c9"></path><path d="M302.372 210.479c-20.041 15.001-47.251 15.874-68.187 2.347a29.862 29.862 0 0 0 8.71 9.156c21.096 14.411 49.023 13.807 69.476-1.503l37.492-28.063-2.92-8.854z" fill="#f9c0af"></path><path d="m378.158 153.513-67.463-56.218c-17.838 11.819-10.816 35.629 20.949 53.965l-31.766 28.153 11.345 7.261 4.11.208a13.914 13.914 0 0 1 8.101 24.672l-4.295 3.509c-13.27 14.392 2.294 48.81 2.294 48.81 7.941-11.261 23.824-12.388 23.824-12.388 38.573-11.26 69.205-63.062 32.901-97.972z" fill="#3d3d3d"></path><path d="m197.956 91.035.076 48.007 14.043 37.03a13.161 13.161 0 0 1-6.113 16.28c-6.236 3.326-13.986 1.133-17.555-4.967a179.259 179.259 0 0 1-24.521-92.707l.131-10.727" fill="#1ac4ff"></path><path d="M463 466H5a5 5 0 1 1 0-10h458a5 5 0 1 1 0 10z" fill="#e0e0e0"></path><path d="M409.755 360.38c-14.25-32.893-70.559 12.726.07 52.62 72.901-41.04 11.772-85.386-.07-52.62z" fill="#f7597b"></path><path d="M409.755 376.38c6.561-18.156 28.245-12.63 33.886 2.884 8.497-26.195-25.387-42.4-33.886-18.884-10.127-23.376-41.481-7.096-33.435 18.598 5.366-15.117 25.66-20.545 33.435-2.598z" fill="#e52e5e"></path><path d="M57.755 360.38c-14.25-32.893-70.559 12.726.07 52.62 72.901-41.04 11.772-85.386-.07-52.62z" fill="#f7597b"></path><path d="M57.755 376.38c6.561-18.156 28.245-12.63 33.886 2.884 8.497-26.195-25.387-42.4-33.886-18.884-10.127-23.376-41.482-7.096-33.435 18.598 5.366-15.117 25.66-20.545 33.435-2.598z" fill="#e52e5e"></path><path d="M362.663 23.445 370 25l-8.576 2.432a14 14 0 0 0-9.849 10.445L350 45l-1.575-7.122a14 14 0 0 0-9.849-10.445L330 25l7.337-1.555a14.001 14.001 0 0 0 10.7-10.383L350 5l1.963 8.062a14.001 14.001 0 0 0 10.7 10.383zM460.663 229.445 468 231l-8.576 2.432a14 14 0 0 0-9.849 10.445L448 251l-1.575-7.122a14 14 0 0 0-9.849-10.445L428 231l7.337-1.555a14.001 14.001 0 0 0 10.7-10.383L448 211l1.963 8.062a14.001 14.001 0 0 0 10.7 10.383zM32.663 139.445 40 141l-8.576 2.432a14 14 0 0 0-9.849 10.445L20 161l-1.575-7.122a14 14 0 0 0-9.849-10.445L0 141l7.337-1.555a14.001 14.001 0 0 0 10.7-10.383L20 121l1.963 8.062a14.001 14.001 0 0 0 10.7 10.383z" fill="#ffcd5c"></path></g></svg>