<svg viewBox="0 0 501.819 501.819" xmlns="http://www.w3.org/2000/svg"><g><path d="M269.779 197.326a7.488 7.488 0 0 1-6.048-3.057L129.657 11.944a7.5 7.5 0 0 1 1.599-10.485 7.5 7.5 0 0 1 10.485 1.599l134.073 182.325a7.5 7.5 0 0 1-6.035 11.943z" fill="#cf6166"></path><path d="M133.935 412.06s-57.198-47.404-67.118-116.415c-5.401-37.574 9.78-66.228 24.732-84.538 5.838-7.148-2.168-17.156-10.454-13.094-29.529 14.476-65.074 49.032-53.281 131.074 19.338 134.521 156.575 111.835 156.575 111.835l-21.854-21.875z" fill="#855b47"></path><path d="m470.473 133.593-70.486-37.546c-3.357-1.998-10.945-14.022-16.792-17.506-4.004-2.386-12.212-4.28-21.73-4.778a22487.898 22487.898 0 0 1-10.907-48.98c-1.069-4.821-7.26-6.238-10.308-2.354-10.669 13.594-28.225 40.417-25.281 66.719-4.431 7.28-10.092 23.394-13.489 32.108l-.465 1.747A290.007 290.007 0 0 1 180.599 279.23c-49.347 31.431-79.225 85.885-79.225 144.392v27.788a53.17 53.17 0 0 0 23.168 43.897c6.272 4.287 13.728 6.512 21.325 6.512h151.512c7.979 0 12.94-8.666 8.901-15.547l-1.353-2.305a52.1 52.1 0 0 0-45.881-25.714l-22.69.414c17.676-1.996 41.729-8.92 53.991-30.823 18.069-32.279 5.975-71.348 5.975-71.348l43.115 139.274a8.59 8.59 0 0 0 8.205 6.049H404.5c5.414 0 8.934-5.7 6.51-10.541l-1.733-3.461a36.743 36.743 0 0 0-34.601-20.248s-11.412-58.872-13.022-84.155a63.349 63.349 0 0 1 8.98-36.752 63.348 63.348 0 0 0 7.716-45.933l-13.766-64.582a76.518 76.518 0 0 1-.926-26.677c0-14.867 11.611-27.147 26.455-27.979l55.856-3.131c13.716-1.833 22.084-11.972 27.353-24.792l2.101-5.113c2.259-5.498.152-11.825-4.95-14.862z" fill="#b78c7a"></path><path d="m470.473 133.593-13.252-7.059-.984 2.394c-5.638 13.717-14.591 24.567-29.268 26.528l-55.211 3.094c-16.753.939-30.511 13.579-32.863 30.193a81.875 81.875 0 0 0 .991 28.545l14.73 69.104a67.782 67.782 0 0 1-8.257 49.149 67.778 67.778 0 0 0-9.609 39.325c1.362 21.378 10.52 96.409 14.303 126.953H404.5c5.414 0 8.935-5.7 6.51-10.541l-1.733-3.461a36.743 36.743 0 0 0-34.601-20.248s-11.412-58.871-13.022-84.154a63.349 63.349 0 0 1 8.98-36.752 63.348 63.348 0 0 0 7.716-45.933l-13.766-64.582a76.519 76.519 0 0 1-.926-26.677c2.198-15.527 15.056-27.34 30.713-28.218l51.598-2.892c13.716-1.833 22.084-11.972 27.353-24.792l2.101-5.113c2.259-5.5.152-11.826-4.95-14.863z" fill="#ab7b64"></path><path d="M364.583 236.147a76.503 76.503 0 0 1-1.093-25.277l-85.235-35.309a289.964 289.964 0 0 1-17.471 27.613l106.143 43.971z" fill="#f67379"></path><path d="M364.583 236.147a76.337 76.337 0 0 1-.609-3.199c-.089-.526-.157-1.055-.234-1.583-.078-.532-.165-1.063-.232-1.595-.092-.729-.161-1.46-.231-2.191-.031-.324-.071-.648-.098-.972a77.291 77.291 0 0 1-.165-2.588c-.009-.187-.024-.374-.032-.561a75.965 75.965 0 0 1-.063-2.864c0-.092-.004-.184-.004-.276-.002-1.019.02-2.038.059-3.057l.002-.076c.083-2.109.256-4.215.513-6.314L338.1 200.353a81.91 81.91 0 0 0 1.784 16.936l4.361 20.46 22.681 9.396z" fill="#f6656c"></path></g></svg>