<svg id="Capa_1" enable-background="new 0 0 512 512" height="512" viewBox="0 0 512 512" width="512" xmlns="http://www.w3.org/2000/svg"><g><g fill="#9dc6fb"><path d="m148.042 426.357c-1.311 0-2.638-.343-3.844-1.065-42.9-25.674-75.737-65.663-92.462-112.6-1.39-3.902.646-8.192 4.547-9.583 3.902-1.39 8.192.646 9.583 4.547 15.559 43.667 46.114 80.873 86.035 104.764 3.554 2.127 4.711 6.733 2.584 10.287-1.405 2.349-3.892 3.65-6.443 3.65z"/><path d="m171.372 57.437c-2.889 0-5.642-1.679-6.875-4.495-1.661-3.794.069-8.217 3.863-9.878 27.251-11.928 56.272-17.976 86.257-17.976 16.029 0 32.016 1.771 47.515 5.262 4.041.91 6.579 4.924 5.668 8.965-.91 4.041-4.92 6.579-8.965 5.668-14.418-3.248-29.295-4.895-44.218-4.895-27.902 0-54.9 5.625-80.243 16.717-.978.429-1.999.632-3.002.632z"/><path d="m413.089 382.35c-1.716 0-3.44-.585-4.851-1.783-3.157-2.681-3.543-7.414-.862-10.572 30.668-36.114 47.559-82.136 47.559-129.589 0-4.142 3.358-7.5 7.5-7.5s7.5 3.358 7.5 7.5c0 51.005-18.157 100.476-51.125 139.298-1.484 1.748-3.596 2.646-5.721 2.646z"/></g><g><path d="m266.358 284.68h22.851c48.573 0 87.948 39.376 87.948 87.948v127.882h-198.747v-127.882c0-48.572 39.376-87.948 87.948-87.948z" fill="#dd636e"/><path d="m273.346 284.678c-18.878 0-39.838 53.923-39.838 102.498l5.662 113.335h-60.758v-127.881c0-48.575 39.377-87.952 87.946-87.952z" fill="#cb5769"/><path d="m192.831 451.707c-14.663 0-26.549-11.886-26.549-26.549 0-2.018.225-3.983.652-5.872 3.444-15.253 25.897-12.752 25.897 2.886h169.913c0-15.637 22.453-18.139 25.897-2.886.427 1.889.652 3.854.652 5.872 0 14.663-11.886 26.549-26.549 26.549" fill="#ffcbbe"/><path d="m362.741 391.924v46.666c0 34.194-27.72 61.921-61.921 61.921h-46.072c-34.194 0-61.921-27.72-61.921-61.921v-46.133c10.544-.306 25.052-2.105 40.681-5.281 32.028-6.511 68.793-18.817 85.896-35.92 0 0 16.92 34.574 43.337 40.668z" fill="#ffddce"/><path d="m295.429 500.511h-40.681c-34.194 0-61.921-27.72-61.921-61.921v-46.133c10.544-.306 25.052-2.105 40.681-5.281v51.414c0 34.194 27.72 61.921 61.921 61.921z" fill="#ffcbbe"/><g fill="#eaa598"><ellipse cx="327.832" cy="442.99" rx="13.907" ry="8.456"/><ellipse cx="227.744" cy="442.99" rx="13.907" ry="8.456"/></g><g fill="#2b4d66"><path d="m239.288 403.673c-.281 0-10.026.073-10.024.073-2.668 0-4.839 2.171-4.839 4.839s2.171 4.839 4.839 4.839h2.155c-.211 1.212-.317 2.465-.317 3.728 0 7.432 3.673 13.479 8.187 13.479s8.187-6.047 8.187-13.479c-.001-7.432-3.674-13.479-8.188-13.479z"/><path d="m326.305 403.746c-.137-.001-10.358-.073-10.637-.073-4.514 0-8.187 6.047-8.187 13.479s3.673 13.479 8.187 13.479 8.187-6.047 8.187-13.479c0-1.264-.107-2.516-.317-3.728h2.767c2.668 0 4.839-2.171 4.839-4.839-.001-2.668-2.172-4.838-4.839-4.839z"/></g><path d="m277.784 466.586c-5.453 0-10.907-2.076-15.058-6.227-2.335-2.335-2.335-6.121 0-8.456s6.121-2.335 8.456 0c3.641 3.641 9.564 3.641 13.205 0 2.335-2.335 6.121-2.335 8.456 0s2.335 6.121 0 8.456c-4.153 4.151-9.606 6.227-15.059 6.227z" fill="#dd636e"/></g><g><path d="m25.972 251.86c-14.344 0-25.972-11.628-25.972-25.972 0-1.974.22-3.897.638-5.745 3.369-14.922 25.334-12.474 25.334 2.823h166.219c0-15.297 21.965-17.745 25.334-2.823.417 1.848.638 3.771.638 5.745 0 14.344-11.628 25.972-25.972 25.972" fill="#ffcbbe"/><path d="m25.976 238.118c-1.726 0-3.424-.81-4.495-2.324-.117-.159-3.59-4.833-6.944-3.48-2.816 1.136-6.022-.226-7.159-3.043s.226-6.022 3.043-7.159c4.862-1.962 10.135-1.187 14.847 2.181 3.105 2.22 5.007 4.88 5.214 5.176 1.739 2.491 1.129 5.92-1.362 7.658-.959.669-2.057.991-3.144.991z" fill="#eaac9d"/><path d="m192.186 238.139c-1.09 0-2.191-.324-3.154-.996-2.491-1.739-3.09-5.184-1.351-7.675.207-.296 2.108-2.956 5.214-5.176 4.711-3.368 9.984-4.142 14.847-2.181 2.817 1.137 4.179 4.342 3.043 7.159-1.137 2.817-4.341 4.179-7.159 3.043-3.394-1.37-6.912 3.435-6.947 3.484-1.067 1.528-2.765 2.342-4.493 2.342z" fill="#eaac9d"/><path d="m131.616 299.601h-45.07c-33.454 0-60.575-27.12-60.575-60.575v-85.432h166.219v85.432c.001 33.454-27.119 60.575-60.574 60.575z" fill="#ffddce"/><path d="m126.337 299.601h-39.79c-33.451 0-60.575-27.124-60.575-60.575v-85.435h39.79v85.435c0 33.451 27.118 60.575 60.575 60.575z" fill="#ffcbbe"/><g fill="#2b4d66"><ellipse cx="70.111" cy="211.33" rx="7.857" ry="13.034"/><ellipse cx="148.052" cy="211.33" rx="7.857" ry="13.034"/></g><g fill="#eaa598"><ellipse cx="163.907" cy="237.462" rx="13.604" ry="8.272"/><ellipse cx="54.255" cy="237.462" rx="13.604" ry="8.272"/></g><path d="m67.422 94.293h-25.72c-15.98 0-28.934 12.954-28.934 28.934v39.183c0 7.967 6.458 14.425 14.425 14.425h18.083c23.819 0 43.128-19.309 43.128-43.128v-18.433c-.001-11.588-9.394-20.981-20.982-20.981z" fill="#aa7a63"/><path d="m67.267 94.289c-15.977 0-28.931 12.954-28.931 28.937v53.606h-11.143c-7.967 0-14.425-6.458-14.425-14.425v-39.182c0-15.983 12.954-28.937 28.931-28.937h25.568z" fill="#986b54"/><path d="m153.775 169.788h-40.053c-21.685 0-39.265-17.58-39.265-39.265v-24.753c0-21.685 17.58-39.265 39.265-39.265h117.213v26.124c0 42.614-34.546 77.159-77.16 77.159z" fill="#aa7a63"/><path d="m148.345 169.786h-34.624c-21.688 0-39.264-17.576-39.264-39.264v-24.752c0-21.688 17.576-39.264 39.264-39.264h34.624c-21.688 0-39.264 17.576-39.264 39.264v24.753c0 21.688 17.576 39.263 39.264 39.263z" fill="#986b54"/><path d="m109.081 265.95c-5.445 0-10.889-2.073-15.034-6.218-2.148-2.148-2.148-5.631 0-7.779s5.631-2.148 7.779 0c4.001 4.001 10.511 4.001 14.512 0 2.148-2.148 5.631-2.148 7.779 0s2.148 5.631 0 7.779c-4.146 4.146-9.591 6.218-15.036 6.218z" fill="#dd636e"/></g><g><path d="m319.802 180.354c-14.344 0-25.973-11.628-25.973-25.973 0-1.974.22-3.897.638-5.745 3.369-14.922 25.335-12.475 25.335 2.823h166.225c0-15.298 21.966-17.745 25.335-2.823.417 1.848.638 3.771.638 5.745 0 14.344-11.628 25.973-25.973 25.973" fill="#b17a4a"/><path d="m319.808 166.611c-1.726 0-3.425-.81-4.496-2.324-.648-.898-3.007-3.494-5.326-3.73-3.022-.308-5.223-3.007-4.915-6.029s2.995-5.224 6.03-4.915c7.726.786 12.674 7.578 13.213 8.35 1.738 2.491 1.129 5.92-1.362 7.659-.96.668-2.058.989-3.144.989z" fill="#8f6239"/><path d="m486.023 166.611c-1.087 0-2.184-.321-3.143-.991-2.491-1.739-3.101-5.168-1.362-7.659.646-.925 6.543-9.018 15.625-8.39 3.031.21 5.318 2.837 5.108 5.867-.211 3.031-2.851 5.317-5.867 5.108-2.583-.187-5.395 3.065-5.844 3.711-1.071 1.534-2.781 2.354-4.517 2.354z" fill="#8f6239"/><path d="m425.45 228.096h-45.071c-33.456 0-60.577-27.121-60.577-60.577v-79.031l2.893-8.182 80.222-49.317 79.892 49.116 3.219 8.382v79.031c-.001 33.457-27.122 60.578-60.578 60.578z" fill="#c38959"/><path d="m420.167 228.092h-39.786c-33.455 0-60.578-27.123-60.578-60.569v-79.035s12.125-23.947 31.294-23.947c3.087 0 5.885.612 8.5 1.647v101.334c.001 33.447 27.115 60.57 60.57 60.57z" fill="#b17a4a"/><path d="m486.032 52.848v35.64s-12.117-19.947-31.294-19.947c-19.169 0-26.974 23.688-51.821 23.688-24.838 0-32.652-23.688-51.821-23.688s-31.294 19.947-31.294 19.947v-35.64c0-22.844 18.523-41.359 41.367-41.359h83.496c22.843 0 41.367 18.515 41.367 41.359z" fill="#365e7d"/><path d="m361.168 11.489h40.002c-22.844 0-41.367 18.515-41.367 41.359v17.423c-2.673-1.084-5.537-1.73-8.707-1.73-19.169 0-31.294 19.947-31.294 19.947v-35.64c-.001-22.844 18.523-41.359 41.366-41.359z" fill="#2b4d66"/><g fill="#2b4d66"><path d="m363.943 126.787c-4.332 0-7.857 5.847-7.857 13.035 0 7.187 3.525 13.034 7.857 13.034s7.858-5.847 7.858-13.034c-.001-7.187-3.526-13.035-7.858-13.035z"/><path d="m441.887 126.787c-4.332 0-7.857 5.847-7.857 13.035 0 7.187 3.525 13.034 7.857 13.034s7.858-5.847 7.858-13.034c-.001-7.187-3.526-13.035-7.858-13.035z"/></g><path d="m402.915 194.455c-5.68 0-11.019-2.212-15.035-6.228-2.149-2.148-2.149-5.631-.001-7.779 2.149-2.148 5.632-2.148 7.779 0 1.939 1.938 4.516 3.006 7.257 3.006s5.317-1.068 7.255-3.006c2.149-2.148 5.632-2.148 7.779 0 2.149 2.148 2.149 5.631.001 7.779-4.016 4.016-9.355 6.228-15.035 6.228z" fill="#dd636e"/></g></g></svg>