<svg viewBox="0 0 512 512" xmlns="http://www.w3.org/2000/svg"><g><path d="m275.724 194.33 104.801-99.377c8.16-7.738 21.476-.655 19.622 10.436l-6.06 36.249 70.976-15.285c9.023-1.943 15.34 8.702 9.311 15.691l-39.52 45.81 68.706 8.55c9.313 1.159 11.627 13.601 3.354 18.031l-51.569 27.611 50.77 57.247c6.025 6.794.15 17.386-8.804 15.871l-91.754-15.522 14.1 53.1c2.803 10.554-9.082 18.868-18.035 12.615l-136.855-95.569" fill="#fd8087"></path><path d="m275.724 204.748 95.801-30.927c3.745-1.209 7.178 2.542 5.642 6.165l-8.552 20.185 40.437 16.61c3.774 1.55 3.806 6.884.051 8.479l-40.488 17.205 12.563 21.493c2.045 3.499-1.111 7.739-5.049 6.784l-99.924-24.224" fill="#ffe177"></path><path d="M248.304 129.632H261.2c6.319 0 11.441 5.122 11.441 11.441v21.784l-25.171 22.15-24.164-22.15v-8.228c0-13.805 11.192-24.997 24.998-24.997zM173.972 342.108h-73.498c-8.361 0-15.138-6.778-15.138-15.138s6.778-15.138 15.138-15.138h64.327l30.992-59.328c3.872-7.41 13.016-10.28 20.427-6.408 7.411 3.871 10.279 13.017 6.409 20.427L187.39 333.98a15.139 15.139 0 0 1-13.418 8.128z" fill="#918291"></path><path d="M304.861 185.577v67.322c0 12.548-10.178 22.726-22.726 22.726H128.999L94.735 403.759c-3.183 11.898-15.411 18.965-27.31 15.782l-50.283-13.444c-11.899-3.184-18.966-15.411-15.782-27.31l23.591-88.256c3.904-14.577-3.739-28.948-16.442-34.686-6.634-2.998-9.921-10.57-7.932-17.585l3.204-11.291 4.378-15.453 8.571-30.267a25.263 25.263 0 0 1 24.323-18.389h241.083c12.547.001 22.725 10.169 22.725 22.717z" fill="#a79ba7"></path><path d="m49.115 290.537-26.623 95.271c-2.503 9.335 1.322 18.883 8.831 24.09l-14.18-3.795c-11.899-3.179-18.963-15.411-15.784-27.31l23.596-88.257c3.896-14.583-3.744-28.955-16.44-34.687-6.641-2.997-9.921-10.567-7.943-17.581l16.158-57.021c3.088-10.879 13.019-18.388 24.322-18.388h24.161c-11.303 0-21.234 7.509-24.322 18.388l-16.148 57.021c-1.988 7.014 1.292 14.583 7.933 17.581 12.705 5.733 20.345 20.104 16.439 34.688z" fill="#918291"></path><path d="M304.861 211.517v15.453H3.781l4.378-15.453z" fill="#918291"></path><circle cx="56.173" cy="367.243" fill="#faf7f7" r="16.109"></circle></g></svg>