<svg viewBox="0 0 58 59" xmlns="http://www.w3.org/2000/svg"><g><g fill="none" fill-rule="nonzero"><path d="M38.49 24.91 30 30v-4.23a1 1 0 0 0-1.51-.86L20 30v-4.23a1 1 0 0 0-1.51-.86L10 30v-4.23a1 1 0 0 0-1.51-.86L0 30v2h40v-6.23a1 1 0 0 0-1.51-.86Z" fill="#c03a2b"></path><path d="m50 7-5.9 9.593A7.157 7.157 0 0 1 38 20c-2.63 0-4.11-.96-4.94-2.04L33 18c-8 0-8-5-8-5l.03-.17a4.792 4.792 0 0 1-3.79-3.09 5.58 5.58 0 0 1 2.21-6.23 6.451 6.451 0 0 1 5.33-.47c.02.01.05.02.07.03l.15-.42a12.866 12.866 0 0 1 2.6-.81c2.45-.48 5.18-.35 7.17 1.15l.23-.21a10.438 10.438 0 0 1 2.59-.94A7.373 7.373 0 0 1 48 2.99 5.562 5.562 0 0 1 50 7Z" fill="#b0d3f0"></path><path d="M50 8a1 1 0 0 1-1-.975 4.531 4.531 0 0 0-1.645-3.267c-1.761-1.489-4.232-1.229-5.547-.941a9.164 9.164 0 0 0-2.34.85 1 1 0 0 1-.936-1.767A11.169 11.169 0 0 1 41.381.863a8.288 8.288 0 0 1 7.265 1.366A6.565 6.565 0 0 1 51 6.975 1 1 0 0 1 50.024 8H50Z" fill="#90bae1"></path><path d="M41 8a1 1 0 0 1-1-.971 4.374 4.374 0 0 0-1.838-3.241c-2.029-1.53-4.862-1.262-6.362-.967-.824.162-1.629.412-2.4.746a1 1 0 0 1-.8-1.834c.902-.39 1.844-.683 2.808-.874C34.577.238 37.4.711 39.367 2.192A6.384 6.384 0 0 1 42 6.971 1 1 0 0 1 41.029 8H41Z" fill="#90bae1"></path><path d="M26.7 14c-2.4 0-5.517-1.038-6.42-3.963a6.541 6.541 0 0 1 2.637-7.37 7.433 7.433 0 0 1 6.163-.58c.826.27 1.625.616 2.389 1.03a1 1 0 0 1-.938 1.766 12.583 12.583 0 0 0-2.061-.892 5.413 5.413 0 0 0-4.484.366 4.571 4.571 0 0 0-1.8 5.09C22.773 11.332 24.984 12 26.7 12a1 1 0 0 1 0 2Z" fill="#90bae1"></path><path d="M33 19c-8.9 0-9-5.94-9-6a1 1 0 0 1 2-.01c0 .186.2 4.01 7 4.01a1 1 0 0 1 0 2Z" fill="#90bae1"></path><path d="M38 21c-5.537 0-7-3.925-7-6a1 1 0 0 1 2 0c.006.416.2 4.005 5 4.005a1 1 0 0 1 0 2V21Z" fill="#90bae1"></path><path d="M47.225 11h3.551c.676 0 1.224.549 1.224 1.225V17h-6v-4.775c0-.677.548-1.225 1.225-1.225Z" fill="#e4c05c"></path><path d="m55 38-3-23h-6l-3 23z" fill="#b19046"></path><path d="M38 37h18.973c.567 0 1.027.46 1.027 1.027V56H38V37Z" fill="#f0c419"></path><path d="M45 43h-5a1 1 0 0 1 0-2h5a1 1 0 0 1 0 2ZM54 43h-5a1 1 0 0 1 0-2h5a1 1 0 0 1 0 2Z" fill="#f3d55b"></path><path d="M0 30h40v26H0z" fill="#d25627"></path><path d="M9 35a1 1 0 0 1-1 1H0v-2h8a1 1 0 0 1 1 1ZM23 36H12a1 1 0 0 1 0-2h11a1 1 0 0 1 0 2Z" fill="#f18d46"></path><rect fill="#b0d3f0" rx="1"></rect><rect fill="#b0d3f0" rx="1"></rect><path d="M36 40.063V56H26V40.063A1.036 1.036 0 0 1 27 39h8c.569.02 1.015.494 1 1.063Z" fill="#59474e"></path><path d="M33 43a1 1 0 0 1-1 1h-6v-2h6a1 1 0 0 1 1 1ZM33 47a1 1 0 0 1-1 1h-6v-2h6a1 1 0 0 1 1 1ZM33 51a1 1 0 0 1-1 1h-6v-2h6a1 1 0 0 1 1 1Z" fill="#7f5b53"></path><path d="M47 48h4a1 1 0 0 1 1 1v6h-6v-6a1 1 0 0 1 1-1Z" fill="#e57e25"></path><path d="M58 55H0v3a1 1 0 0 0 1 1h56a1 1 0 0 0 1-1v-3Z" fill="#7f5b53"></path></g></g></svg>