<svg viewBox="0 0 512 512" xmlns="http://www.w3.org/2000/svg"><g><circle cx="250.5" cy="267" fill="#6cf5c2" r="245"></circle><path d="M300.729 362.385c0-56.456 45.93-102.385 102.386-102.385 19.07 0 36.936 5.247 52.239 14.364.086-2.445.146-4.897.146-7.364 0-113.218-91.782-205-205-205s-205 91.782-205 205 91.782 205 205 205c34.864 0 67.688-8.714 96.432-24.066-27.809-18.324-46.203-49.826-46.203-85.549z" fill="#05e39c"></path><path d="M225.5 65v29.803c8.167-1.18 16.511-1.803 25-1.803s16.833.623 25 1.803V65z" fill="#685e68"></path><path d="M225.5 65v29.803a174.727 174.727 0 0 1 24-1.791V65z" fill="#554e56"></path><path d="M134.857 137.111a174.584 174.584 0 0 1 41.782-27.632L162.5 84.99c-4.142-7.174-13.316-9.632-20.49-5.49l-17.321 10c-7.174 4.142-9.632 13.316-5.49 20.49z" fill="#685e68"></path><path d="M134.857 137.111a175.139 175.139 0 0 1 16.162-12.784l-14.333-24.825c-3.6-6.236-2.209-13.979 2.927-18.619L124.689 89.5c-7.174 4.142-9.632 13.316-5.49 20.49z" fill="#554e56"></path><path d="m366.143 137.111 15.658-27.121c4.142-7.174 1.684-16.348-5.49-20.49l-17.321-10c-7.174-4.142-16.348-1.684-20.49 5.49l-14.139 24.489a174.614 174.614 0 0 1 41.782 27.632z" fill="#685e68"></path><path d="m343.53 120.022 14.156-24.519c3.495-6.053 10.57-8.731 17.005-6.937L358.99 79.5c-7.174-4.142-16.348-1.684-20.49 5.49l-14.139 24.489a173.674 173.674 0 0 1 19.169 10.543z" fill="#554e56"></path><path d="M279.5 66h-58c-8.284 0-15-6.716-15-15V15c0-8.284 6.716-15 15-15h58c8.284 0 15 6.716 15 15v36c0 8.284-6.716 15-15 15z" fill="#fd4755"></path><path d="M246.5 51V15c0-8.284 6.716-15 15-15h-40c-8.284 0-15 6.716-15 15v36c0 8.284 6.716 15 15 15h40c-8.284 0-15-6.716-15-15z" fill="#fb2b3a"></path><path d="M300.729 362.385c0-56.456 45.93-102.385 102.386-102.385 7.667 0 15.137.854 22.327 2.459C423.034 167.908 345.632 92 250.5 92c-96.65 0-175 78.35-175 175s78.35 175 175 175c25.92 0 50.52-5.641 72.649-15.753-14.021-17.521-22.42-39.728-22.42-63.862z" fill="#fd4755"></path><path d="M139.5 267c0-85.719 61.633-157.034 143-172.071a175.998 175.998 0 0 0-32-2.929c-96.65 0-175 78.35-175 175s78.35 175 175 175c10.931 0 21.624-1.012 32-2.929-81.367-15.037-143-86.352-143-172.071z" fill="#fb2b3a"></path><path d="M300.729 362.385c0-51.447 38.144-94.146 87.635-101.319C385.256 187.605 324.727 129 250.5 129c-76.215 0-138 61.785-138 138s61.785 138 138 138c19.584 0 38.211-4.089 55.087-11.444a102.006 102.006 0 0 1-4.858-31.171z" fill="#ffffff"></path><path d="M250.5 237c3.506 0 6.87.61 10 1.72V158a5 5 0 0 0-5-5h-10a5 5 0 0 0-5 5v80.72a29.857 29.857 0 0 1 10-1.72z" fill="#01d0fb"></path><path d="M249 158a5 5 0 0 1 5-5h-8.5a5 5 0 0 0-5 5v80.72a29.838 29.838 0 0 1 8.5-1.679z" fill="#01c0fa"></path><path d="M250.5 297c-3.506 0-6.87-.61-10-1.72V330a5 5 0 0 0 5 5h10a5 5 0 0 0 5-5v-34.72a29.857 29.857 0 0 1-10 1.72z" fill="#01d0fb"></path><path d="M249 330v-33.041a29.872 29.872 0 0 1-8.5-1.679V330a5 5 0 0 0 5 5h8.5a5 5 0 0 1-5-5z" fill="#01c0fa"></path><path d="M303.538 386.225c-16.214 7.241-34.163 11.275-53.038 11.275-71.958 0-130.5-58.542-130.5-130.5s58.542-130.5 130.5-130.5c70.428 0 127.995 56.082 130.411 125.932a101.99 101.99 0 0 1 14.927-2.17C392.305 183.149 328.469 121.5 250.5 121.5 170.271 121.5 105 186.771 105 267s65.271 145.5 145.5 145.5c20.462 0 39.947-4.254 57.629-11.911a101.45 101.45 0 0 1-4.591-14.364z" fill="#fd8087"></path><circle cx="250.5" cy="267" fill="#fd4755" r="31"></circle><path d="M243.5 267c0-12.866 7.839-23.9 19-28.59a30.903 30.903 0 0 0-12-2.41c-17.121 0-31 13.879-31 31s13.879 31 31 31c4.255 0 8.309-.859 12-2.41-11.161-4.69-19-15.724-19-28.59z" fill="#fb2b3a"></path><circle cx="151" cy="267" fill="#99e6fc" r="14"></circle><path d="M343.336 279.315a102.306 102.306 0 0 1 20.624-11.526c.015-.263.04-.522.04-.788 0-7.732-6.268-14-14-14s-14 6.268-14 14c0 5.319 2.967 9.945 7.336 12.314z" fill="#99e6fc"></path><circle cx="250.5" cy="366.5" fill="#99e6fc" r="14"></circle><circle cx="180.143" cy="337.357" fill="#99e6fc" r="14"></circle><circle cx="320.857" cy="196.643" fill="#99e6fc" r="14"></circle><circle cx="180.143" cy="196.643" fill="#99e6fc" r="14"></circle><circle cx="403.115" cy="362.385" fill="#01c0fa" r="103.385"></circle><path d="M360.73 362.385c0-46.481 30.675-85.796 72.885-98.81a103.34 103.34 0 0 0-30.5-4.576c-57.098 0-103.385 46.287-103.385 103.385S346.017 465.77 403.115 465.77c10.617 0 20.859-1.603 30.5-4.575-42.21-13.014-72.885-52.329-72.885-98.81z" fill="#08a9f1"></path><path d="M365.493 342.432c-.908 0-1.806.044-2.698.108l15.523-24.623a5 5 0 0 0-1.563-6.896l-4.23-2.667a5 5 0 0 0-6.896 1.563l-30.462 48.084c-4.976 6.898-7.668 15.547-6.93 24.837 1.45 18.262 16.276 32.959 34.55 34.253 21.829 1.546 40.085-15.776 40.085-37.282-.001-20.61-16.769-37.377-37.379-37.377zm0 59.756c-12.339 0-22.378-10.039-22.378-22.378s10.039-22.378 22.378-22.378 22.378 10.039 22.378 22.378-10.039 22.378-22.378 22.378zM452.036 312.187h-13.421c-15.163 0-27.5 12.336-27.5 27.5v50c0 15.164 12.337 27.5 27.5 27.5h13.421c15.163 0 27.5-12.336 27.5-27.5v-50c0-15.163-12.337-27.5-27.5-27.5zm12.5 77.5c0 6.893-5.607 12.5-12.5 12.5h-13.421c-6.893 0-12.5-5.607-12.5-12.5v-50c0-6.893 5.607-12.5 12.5-12.5h13.421c6.893 0 12.5 5.607 12.5 12.5z" fill="#ffffff"></path></g></svg>