<svg viewBox="0 0 512 512" xmlns="http://www.w3.org/2000/svg"><g><path d="M420.36.003 97.057 0C70.695 0 49.325 21.37 49.325 47.732v450.552c0 7.576 6.141 13.716 13.716 13.716h300.767c7.574 0 13.716-6.141 13.716-13.716V350.075h73.527c6.419 0 11.622-5.204 11.622-11.622V42.318C462.674 19.044 443.632.003 420.36.003z" fill="#dcd2cd"></path><path d="M417.215.005v.083c-22.093 1.321-39.745 19.815-39.745 42.22l.052 79.375v376.603c0 7.572-6.137 13.709-13.709 13.709H63.039c-7.572 0-13.709-6.137-13.709-13.709V47.728C49.33 21.37 70.695.005 97.053.005h320.162z" fill="#dcd2cd"></path><path d="m418.123.005-.908.083c-22.093 1.321-39.745 19.815-39.745 42.22l.052 79.375v355.695h-259.5c-15.533 0-28.125-12.592-28.125-28.125V47.728c0-26.357 21.366-47.723 47.723-47.723h280.503z" fill="#ebe1dc"></path><path d="M451.052 350.075h-73.571V42.317c0-23.273 19.041-42.314 42.314-42.314h.566c23.273 0 42.314 19.041 42.314 42.314v296.135c-.001 6.42-5.204 11.623-11.623 11.623z" fill="#dcd2cd"></path><circle cx="119.265" cy="83.349" fill="#6990d7" r="18.754"></circle><path d="M332.483 91.146H226.386a7.8 7.8 0 0 1-7.801-7.801 7.8 7.8 0 0 1 7.801-7.801h106.097a7.8 7.8 0 0 1 7.801 7.801 7.799 7.799 0 0 1-7.801 7.801zm-137.302 0h-14.986a7.8 7.8 0 0 1-7.801-7.801 7.8 7.8 0 0 1 7.801-7.801h14.986a7.8 7.8 0 0 1 7.801 7.801 7.799 7.799 0 0 1-7.801 7.801z" fill="#6990d7"></path><circle cx="119.265" cy="170.234" fill="#6990d7" r="18.754"></circle><path d="M332.483 178.033H180.196c-4.309 0-7.801-3.492-7.801-7.801s3.492-7.801 7.801-7.801h152.288c4.309 0 7.801 3.492 7.801 7.801s-3.492 7.801-7.802 7.801z" fill="#6990d7"></path><circle cx="119.265" cy="257.119" fill="#6990d7" r="18.754"></circle><path d="M332.483 264.921h-14.986a7.8 7.8 0 0 1-7.801-7.801 7.8 7.8 0 0 1 7.801-7.801h14.986a7.8 7.8 0 0 1 7.801 7.801 7.799 7.799 0 0 1-7.801 7.801zm-46.19 0H180.196a7.8 7.8 0 0 1-7.801-7.801 7.8 7.8 0 0 1 7.801-7.801h106.097a7.8 7.8 0 0 1 7.801 7.801 7.8 7.8 0 0 1-7.801 7.801z" fill="#6990d7"></path><circle cx="119.265" cy="342.756" fill="#6990d7" r="18.754"></circle><path d="M332.483 350.555H180.196c-4.309 0-7.801-3.492-7.801-7.801s3.492-7.801 7.801-7.801h152.288c4.309 0 7.801 3.492 7.801 7.801s-3.492 7.801-7.802 7.801z" fill="#6990d7"></path><circle cx="119.265" cy="429.641" fill="#6990d7" r="18.754"></circle><path d="M332.483 437.442H180.196c-4.309 0-7.801-3.492-7.801-7.801s3.492-7.801 7.801-7.801h152.288c4.309 0 7.801 3.492 7.801 7.801s-3.492 7.801-7.802 7.801z" fill="#6990d7"></path></g></svg>