<svg viewBox="0 0 512 512" xmlns="http://www.w3.org/2000/svg"><g><path d="m297.44 192.937 76.688-76.688 21.21 21.21-76.689 76.687z" fill="#dceaec"></path><path d="m99.9 122.252 21.51-20.91 88.444 90.98-21.51 20.91z" fill="#f4f3f2"></path><path d="m298.752 323.618 20.91-21.51L423.26 402.816l-20.91 21.51z" fill="#dceaec"></path><path d="m55.688 435.357 132.293-132.48 21.24 21.21-132.293 132.48z" fill="#f4f3f2"></path><path d="M389.708 258.61c0 17.111-3.114 33.784-9.258 49.556l27.955 10.888c7.5-19.256 11.303-39.593 11.303-60.444s-3.803-41.187-11.303-60.444l-27.955 10.888c6.143 15.772 9.258 32.445 9.258 49.556z" fill="#dceaec"></path><g fill="#f4f3f2"><path d="m313.448 103.21-10.88 27.96c-15.72-6.13-32.32-9.24-49.36-9.26h-.2c-17.11 0-33.78 3.11-49.56 9.26l-10.88-27.96c19.25-7.5 39.59-11.3 60.44-11.3h.2c20.78.02 41.05 3.82 60.24 11.3zM125.576 308.167c-6.143-15.773-9.257-32.446-9.257-49.557 0-17.11 3.114-33.784 9.257-49.557l-27.955-10.886c-7.499 19.257-11.302 39.594-11.302 60.443 0 20.85 3.803 41.186 11.302 60.443zM313.448 414c-19.19 7.48-39.46 11.28-60.24 11.3h-.2c-20.85 0-41.19-3.8-60.44-11.3l10.88-27.96c15.78 6.15 32.45 9.26 49.56 9.26h.2c17.04-.02 33.64-3.13 49.36-9.26z" fill="#f4f3f2"></path></g><path d="M160.599 258.41c0 51.06 41.55 92.61 92.609 92.61l54.92-92.61-54.92-92.62c-51.059 0-92.609 41.55-92.609 92.62z" fill="#7d8186"></path><path d="M345.828 258.41c0 51.06-41.55 92.61-92.62 92.61V165.79c51.07 0 92.62 41.55 92.62 92.62z" fill="#606074"></path><path d="M358.183 98.792c0 30.13 24.519 54.649 54.649 54.649l32.408-54.649-32.408-54.655c-30.131 0-54.649 24.518-54.649 54.655z" fill="#ff6666"></path><path d="M467.487 98.792c0 30.13-24.519 54.649-54.655 54.649V44.137c30.136 0 54.655 24.518 54.655 54.655z" fill="#ff3333"></path><path d="M384.943 448.475c0 35.024 28.501 63.525 63.525 63.525l37.672-63.525-37.672-63.532c-35.024-.001-63.525 28.5-63.525 63.532z" fill="#66ff99"></path><path d="M512 448.475C512 483.499 483.499 512 448.468 512V384.942c35.031 0 63.532 28.501 63.532 63.533z" fill="#2ee66b"></path><path d="M0 467.002C0 491.812 20.188 512 44.997 512l26.685-44.998L44.997 422C20.188 422 0 442.188 0 467.002z" fill="#ffea80"></path><path d="M90 467.002C90 491.812 69.811 512 44.997 512v-90C69.811 422 90 442.188 90 467.002z" fill="#ffcc66"></path><path d="M0 71.373c0 39.347 32.019 71.366 71.365 71.366l42.322-71.366L71.365 0C32.019 0 0 32.019 0 71.373z" fill="#80d4ff"></path><path d="M142.738 71.373c0 39.347-32.019 71.366-71.373 71.366V0c39.355 0 71.373 32.019 71.373 71.373z" fill="#33bbff"></path><g fill="#dceaec"><path d="m302.568 386.04 10.88 27.96c-19.19 7.48-39.46 11.28-60.24 11.3v-30c17.04-.02 33.64-3.13 49.36-9.26zM302.568 131.17c-15.72-6.13-32.32-9.24-49.36-9.26v-30c20.78.02 41.05 3.82 60.24 11.3z" fill="#dceaec"></path></g></g></svg>