<svg fill-rule="evenodd" viewBox="0 0 1706.66 1706.66" xmlns="http://www.w3.org/2000/svg"><g><path d="M1239.28 697.57c-13.69 0-23.52-13.76-18.79-26.81l51.03-140.87c8.65-23.89 43.97-12.05 38.37 11.05l99.42 46.18c7.26-21.77 48.94-7.81 35.6 18.22l-41.67 81.33c-8.06 15.69-31 14.05-36.75-2.79l-107.52-1.96c-3.4 9.37-9.39 15.64-19.69 15.64z" fill="#75471a"></path><path d="M1239.28 680.91c3.76 0 5.7-9.27 8.09-15.85l131.11 2.39c8.67 25.38 4.36 22.54 51.59-69.69 2.01-3.92-3.95-6.91-5.94-3.03l-7.31 14.28-126.37-58.7 3.22-13.29c.7-2.87-4.95-5.71-6.5-1.44l-51.03 140.87c-.76 2.11.88 4.46 3.12 4.46z" fill="#a0a0a0"></path><path d="M1586 184.55c-10.42 0-18.57-8-19.82-17.52l-55.22-26c-5.2 5.36-11.85 7.51-21.05 3.5-24.43-10.67-4.14-40.61 7.81-68.06 25.87-59.43 112.29-19.69 125.51 13.91 10.71 27.23-5.58 51.58-18.87 82.13a20.004 20.004 0 0 1-18.35 12.06z" fill="#fb505a"></path><path d="M1239.28 697.57c-10.87 0-19.72-8.69-19.99-19.49H493.32l-3.31-3.72 4.29-227.2c-9.1-1-17.5-7.54-17.5-19.61V20.04c0-11.04 8.96-20 20-20h742.49c11.04 0 20 8.96 20 20v657.53c0 11.04-8.96 20-20 20z" fill="#dfe6f2"></path><path d="M1427.07 616.25c-9.44 0-126.28-53.19-144.74-61.2-10.12-4.39-14.78-16.19-10.36-26.31l163.86-376.55c17.2-39.53 63.36-57.4 102.52-40.34l30.58 13.31c39.4 17.14 57.5 63.13 40.34 102.52l-163.86 376.53a20.027 20.027 0 0 1-18.35 12.04z" fill="#75471a"></path><g fill="#4a5254"><path d="M1158.6 145.5H577.44c-26.33 0-26.33-40 0-40h581.16c26.33 0 26.33 40 0 40zM1158.6 264.42H577.44c-26.33 0-26.33-40 0-40h581.16c26.33 0 26.33 40 0 40zM1158.6 383.36H577.44c-26.33 0-26.33-40 0-40h581.16c26.33 0 26.33 40 0 40zM1158.6 502.28H753.8c-26.33 0-26.33-40 0-40h404.8c26.33 0 26.33 40 0 40z" fill="#4a5254"></path></g><path d="M1388.46 1706.61H318.2c-54.25 0-98.37-44.13-98.37-98.38V954.51c0-24.24 33.92-26.15 39.28-5.75h1188.41c5.36-20.41 39.28-18.48 39.28 5.75v653.72c.02 54.26-44.11 98.38-98.36 98.38z" fill="#a38d79"></path><path d="M671.57 697.57c-9.22 0-16.68-6.29-19.13-14.34l-310.73-1.15c-3.78 16.21-29.72 22.98-38.11 3.35-56.44-132.08 44.74-277.87 193.19-277.87 148.6 0 249.58 146.03 193.17 277.87-3.25 7.6-10.64 12.14-18.39 12.14z" fill="#6496af"></path><path d="M288.46 625.19c-.94-11.03-.94-21.98.01-32.77 12-6.55 33.93-3.61 52.69-3.61 26.32 0 26.34 40 0 40-18.77 0-40.7 2.93-52.7-3.62zM704.91 590.54c1.17 12 1.2 24.22.04 36.51-2.49 1.11-5.39 1.75-8.71 1.75-27.43 0-61.66 6.29-61.66-20s34.24-20 61.66-20c3.31 0 6.2.63 8.67 1.74zM477.96 408.38h37.65c.75 2.14 1.17 4.55 1.17 7.24 0 27.45 6.29 61.67-20 61.67s-20-34.23-20-61.67c0-2.69.42-5.1 1.17-7.24z" fill="#5a879e"></path><path d="m496.25 622.63-61.65-2.19c-26.37-.93-24.83-41.13 1.42-39.96l40.22 1.43c0-27.09-6.23-61.12 20-61.12 28.11 0 20 42.22 20 81.84 0 11.03-8.97 19.99-19.98 19.99z" fill="#e9f1ff"></path><path d="M1547.93 974.52H159.01c-12.87 0-22.45-12.19-19.44-24.7l66.65-276.93c2.17-8.98 10.2-15.31 19.44-15.31H1481c9.24 0 17.28 6.33 19.44 15.31l67.47 281.61c.02 11.04-8.93 20.02-19.98 20.02z" fill="#b59d86"></path><path d="M1687.17 903.76c-5.11 0-10.24-1.96-14.15-5.86l-206.17-206.18c-18.64-18.62 9.69-46.91 28.3-28.28l206.17 206.17c12.67 12.67 3.48 34.15-14.14 34.15zM19.49 903.76c-17.63 0-26.79-21.52-14.14-34.15l206.17-206.17c18.63-18.65 46.92 9.65 28.28 28.28L33.63 897.9a19.92 19.92 0 0 1-14.14 5.86z" fill="#b59d86"></path><path d="M1200.78 1513.14H505.89c-11.04 0-20-8.97-20-20v-345.16c0-11.04 8.96-20 20-20h694.89c11.04 0 20 8.97 20 20v345.16c0 11.03-8.95 20-20 20z" fill="#ffd08c"></path><path d="m1535.22 110.57 36.68 15.96-115.99 266.68c-10.44 24.02-47.21 8.25-36.68-15.96l115.99-266.67z" fill="#835931"></path></g></svg>