<svg viewBox="0 0 512 512" xmlns="http://www.w3.org/2000/svg"><g><path d="M300.109 184.455v-83.787H56.995v58.438c0 13.991 11.344 25.349 25.349 25.349h217.765zM211.891 418.578v-83.787h243.114v58.438c0 13.991-11.344 25.349-25.349 25.349H211.891z" fill="#fd8724"></path><path d="M408.117 333.222c0 6.758-1.628 15.432-4.389 25.301-2.019 7.222-4.656 15.071-7.706 23.292-17.647 47.419-49.377 106.871-59.163 124.817a10.272 10.272 0 0 1-9.045 5.367H141.825c-3.781 0-7.242-2.05-9.045-5.367-5.954-10.93-20.058-37.251-34.151-66.879-13.063-27.454-26.125-57.732-32.718-81.23-2.761-9.869-4.389-18.543-4.389-25.301 0-17.204 4.481-33.347 12.331-47.347a97.443 97.443 0 0 1 17.75-22.839 136.579 136.579 0 0 0 8.138-8.447c23.385-26.414 35.984-60.956 35.984-96.528V10.302C135.726 4.615 140.342 0 146.028 0h177.583c5.687 0 10.302 4.615 10.302 10.302v147.759c0 35.552 12.589 70.073 35.953 96.487a135.278 135.278 0 0 0 8.169 8.489 97.047 97.047 0 0 1 21.994 31.359 82.296 82.296 0 0 1 2.143 5.347c3.853 10.434 5.945 21.715 5.945 33.479z" fill="#fedfc5"></path><path d="M408.117 333.222c0 6.758-1.628 15.432-4.389 25.301-2.019 7.222-4.656 15.071-7.706 23.292H222.189c-11.929 0-21.634-9.704-21.634-21.634v-38.807c0-11.929 9.704-21.634 21.634-21.634h179.983c3.853 10.437 5.945 21.718 5.945 33.482zM227.09 413.62h15.453V512H227.09zM230.05 285.875H73.854a97.443 97.443 0 0 1 17.75-22.839 136.579 136.579 0 0 0 8.138-8.447c23.385-26.414 35.984-60.956 35.984-96.528V17.256h42.825s-29.793 208.508 51.499 268.619z" fill="#fecbaa"></path><path d="M408.117 333.222c0 6.758-1.628 15.432-4.389 25.301h-13.99c-31.802 0-61.615 8.478-87.308 23.292-23.777 13.691-44.009 32.822-59.06 55.681-4.028 6.109-13.083 6.109-17.101 0-31.307-47.574-85.165-78.974-146.368-78.974h-13.99c-2.761-9.869-4.389-18.543-4.389-25.301 0-27.619 11.548-52.529 30.081-70.186a136.579 136.579 0 0 0 8.138-8.447c39.909 11.95 89.317 23.045 135.077 23.045 45.616 0 95.065-11.126 135.046-23.086a135.278 135.278 0 0 0 8.169 8.489 97.047 97.047 0 0 1 21.994 31.359 82.296 82.296 0 0 1 2.143 5.347c3.855 10.435 5.947 21.716 5.947 33.48z" fill="#fd6096"></path><path d="M408.117 333.222c0 6.758-1.628 15.432-4.389 25.301h-13.99c-31.802 0-61.615 8.478-87.308 23.292h-80.241c-11.929 0-21.634-9.704-21.634-21.634v-38.807c0-11.929 9.704-21.634 21.634-21.634h179.983c3.853 10.437 5.945 21.718 5.945 33.482z" fill="#fc3e81"></path><path d="M211.891 321.376v38.805c0 5.69 4.612 10.302 10.302 10.302h207.464c13.672 0 24.817 10.826 25.335 24.378h.013v-58.438c0-13.991-11.344-25.349-25.349-25.349H222.192c-5.689 0-10.301 4.612-10.301 10.302z" fill="#fdb659"></path><path d="M408.962 370.563a7.726 7.726 0 0 1-7.726-7.726v-18.62a7.726 7.726 0 1 1 15.452 0v18.62a7.725 7.725 0 0 1-7.726 7.726zM377.043 370.563a7.726 7.726 0 0 1-7.726-7.726v-18.62a7.726 7.726 0 1 1 15.452 0v18.62a7.725 7.725 0 0 1-7.726 7.726zM345.125 370.563a7.726 7.726 0 0 1-7.726-7.726v-18.62a7.726 7.726 0 1 1 15.452 0v18.62a7.725 7.725 0 0 1-7.726 7.726zM313.206 370.563a7.726 7.726 0 0 1-7.726-7.726v-18.62a7.726 7.726 0 1 1 15.452 0v18.62a7.725 7.725 0 0 1-7.726 7.726zM281.287 370.563a7.726 7.726 0 0 1-7.726-7.726v-18.62a7.726 7.726 0 1 1 15.452 0v18.62a7.725 7.725 0 0 1-7.726 7.726zM249.368 370.563a7.726 7.726 0 0 1-7.726-7.726v-18.62a7.726 7.726 0 1 1 15.452 0v18.62a7.725 7.725 0 0 1-7.726 7.726z" fill="#43a3f9"></path><path d="M311.444 87.256v38.807c0 11.919-9.704 21.634-21.634 21.634H135.726V65.622H289.81c11.93 0 21.634 9.705 21.634 21.634z" fill="#fecbaa"></path><path d="M300.109 87.253v38.805c0 5.69-4.612 10.302-10.302 10.302H82.344c-13.672 0-24.817 10.826-25.335 24.378h-.013V102.3c0-13.991 11.344-25.349 25.349-25.349h207.464c5.688 0 10.3 4.613 10.3 10.302z" fill="#fdb659"></path><path d="M103.038 136.441a7.726 7.726 0 0 1-7.726-7.726v-18.62a7.726 7.726 0 1 1 15.452 0v18.62a7.726 7.726 0 0 1-7.726 7.726zM134.957 136.441a7.726 7.726 0 0 1-7.726-7.726v-18.62a7.726 7.726 0 1 1 15.452 0v18.62a7.726 7.726 0 0 1-7.726 7.726zM166.875 136.441a7.726 7.726 0 0 1-7.726-7.726v-18.62a7.726 7.726 0 1 1 15.452 0v18.62a7.725 7.725 0 0 1-7.726 7.726zM198.794 136.441a7.726 7.726 0 0 1-7.726-7.726v-18.62a7.726 7.726 0 1 1 15.452 0v18.62a7.725 7.725 0 0 1-7.726 7.726zM230.713 136.441a7.726 7.726 0 0 1-7.726-7.726v-18.62a7.726 7.726 0 1 1 15.452 0v18.62a7.726 7.726 0 0 1-7.726 7.726zM262.632 136.441a7.726 7.726 0 0 1-7.726-7.726v-18.62a7.726 7.726 0 1 1 15.452 0v18.62a7.726 7.726 0 0 1-7.726 7.726z" fill="#43a3f9"></path><path d="M235.21 230.94a7.726 7.726 0 0 1-7.726-7.726v-9.272a7.726 7.726 0 1 1 15.452 0v9.272a7.726 7.726 0 0 1-7.726 7.726z" fill="#ffae85"></path><path d="M92.837 0c-7.8 0-12.859 8.381-9.069 15.199 5.89 10.597 17.196 17.767 30.18 17.767h241.277c12.984 0 24.29-7.17 30.18-17.767C389.193 8.381 384.135 0 376.335 0H92.837z" fill="#fd6096"></path></g></svg>