<svg viewBox="0 0 512 512" xmlns="http://www.w3.org/2000/svg"><g><path d="M512 256c0 101.99-59.65 190.05-145.96 231.19-33.33 15.91-70.65-20.204-110.04-20.204-20.05 0-26.309 3.579-45.029-.781-18.07-4.2-48.651 28.805-65.011 20.996C59.65 446.05 0 357.99 0 256 0 114.62 114.62 0 256 0s256 114.62 256 256z" fill="#ffe177"></path><path d="M256.001 134.713c-7.184 0-13.007-5.823-13.007-13.007v-9.483c0-13.841 8.952-26.226 22.276-30.818 12.184-4.199 20.047-16.143 19.122-29.046-.975-13.606-11.921-24.869-25.462-26.2-15.337-1.514-29.004 9.182-31.119 24.334a29.015 29.015 0 0 0-.275 3.987c0 7.184-5.823 13.007-13.007 13.007s-13.007-5.823-13.007-13.007c0-2.539.177-5.091.525-7.585 4.05-29.021 30.152-49.501 59.427-46.626 25.989 2.554 46.997 24.149 48.866 50.23 1.766 24.644-13.282 47.467-36.594 55.501-2.878.992-4.737 3.434-4.737 6.223v9.483c-.001 7.183-5.824 13.007-13.008 13.007zM256.001 167.746c-7.184 0-13.007-5.823-13.007-13.007v-.13c0-7.184 5.823-13.007 13.007-13.007s13.007 5.823 13.007 13.007v.13c0 7.184-5.823 13.007-13.007 13.007zM153.093 140.513c-5.963 0-10.797-4.834-10.797-10.797v-7.871c0-11.488 7.431-21.768 18.49-25.58 10.113-3.485 16.64-13.399 15.872-24.109-.809-11.293-9.895-20.642-21.134-21.747-12.73-1.257-24.074 7.621-25.829 20.198a24.097 24.097 0 0 0-.228 3.309c0 5.963-4.834 10.797-10.797 10.797s-10.797-4.834-10.797-10.797a45.7 45.7 0 0 1 .436-6.296c3.362-24.088 25.027-41.087 49.327-38.701 21.571 2.12 39.009 20.044 40.561 41.693 1.466 20.455-11.024 39.399-30.374 46.068-2.389.823-3.932 2.851-3.932 5.165v7.871c-.002 5.964-4.835 10.797-10.798 10.797zM153.093 167.932c-5.963 0-10.797-4.834-10.797-10.797v-.108c0-5.963 4.834-10.797 10.797-10.797s10.797 4.834 10.797 10.797v.108c-.001 5.963-4.834 10.797-10.797 10.797zM360.711 140.513c-5.963 0-10.797-4.834-10.797-10.797v-7.871c0-11.488 7.431-21.768 18.49-25.58 10.113-3.485 16.64-13.399 15.872-24.109-.809-11.293-9.895-20.642-21.134-21.747-12.73-1.257-24.074 7.621-25.829 20.198a24.097 24.097 0 0 0-.228 3.309c0 5.963-4.834 10.797-10.797 10.797s-10.797-4.834-10.797-10.797a45.7 45.7 0 0 1 .436-6.296c3.362-24.088 25.027-41.087 49.327-38.701 21.571 2.12 39.009 20.044 40.561 41.693 1.466 20.455-11.024 39.399-30.374 46.068-2.389.823-3.932 2.851-3.932 5.165v7.871c-.002 5.964-4.835 10.797-10.798 10.797zM360.711 167.932c-5.963 0-10.797-4.834-10.797-10.797v-.108c0-5.963 4.834-10.797 10.797-10.797s10.797 4.834 10.797 10.797v.108c-.001 5.963-4.834 10.797-10.797 10.797z" fill="#fd3581"></path><path d="M366.04 487.19C332.71 503.1 295.39 512 256 512s-76.71-8.9-110.04-24.8c11.78-18.06 27.88-33.04 46.84-43.46 18.75-10.31 40.29.24 63.2.24s44.45-10.55 63.19-.24c18.96 10.42 35.06 25.4 46.85 43.45z" fill="#0ed2b3"></path><path d="M254.09 443.95c-24.83 13.76-44.73 35.32-56.37 61.38-18.07-4.2-35.4-10.32-51.76-18.13 11.78-18.06 27.88-33.04 46.84-43.46 18.24-10.02 39.09-.34 61.29.21z" fill="#0ab69f"></path><path d="M363.44 246.01h-232.1v4.85H71.674c-6.504 0-12.087-5.084-12.212-11.587-.128-6.626 5.21-12.043 11.818-12.043h6.94a49.716 49.716 0 0 1-7.9-14.22 49.541 49.541 0 0 1-2.85-16.59c0-13.59 5.466-25.903 14.318-34.864 2.541-2.573 5.993-4.046 9.609-4.046H343.94z" fill="#dedbee"></path><path d="M452.538 239.273c-.125 6.503-5.708 11.587-12.212 11.587H380.66v-4.85h-17.22l-12.6-57.18-16.71-16.71 10.68-10.67-.87-3.94h76.676c3.489 0 6.873 1.325 9.343 3.789l.041.041c8.98 8.98 14.53 21.38 14.53 35.08 0 11.64-4.03 22.34-10.75 30.81h6.94c6.607 0 11.945 5.416 11.818 12.043z" fill="#f5f8f9"></path><path d="M319.188 443.736c-1.128 33.891-29.033 61.114-63.179 61.114-8.389 0-16.532-1.619-24.211-4.804-23.055-9.572-38.177-31.517-38.996-56.31 18.752-10.309 40.288-16.177 63.197-16.177s44.446 5.868 63.189 16.177z" fill="#ffb09e"></path><path d="M301.031 360.897v80.713c0 24.868-20.174 45.042-45.025 45.042-6.11 0-11.93-1.212-17.238-3.414-16.317-6.776-27.803-22.854-27.803-41.628v-80.713z" fill="#ffcebf"></path><path d="M238.766 413.017v70.215c-16.314-6.77-27.795-22.854-27.795-41.614v-50.189zM372.178 334.756h-233.62c-37.279 0-67.5-30.221-67.5-67.5 0-23.312 18.898-42.21 42.21-42.21h284.2c23.312 0 42.21 18.898 42.21 42.21 0 37.279-30.221 67.5-67.5 67.5z" fill="#ffb09e"></path><path d="M138.558 312c-24.672 0-44.744-20.072-44.744-44.744 0-10.727 8.727-19.454 19.454-19.454h284.2c10.727 0 19.454 8.727 19.454 19.454 0 24.672-20.072 44.744-44.744 44.744z" fill="#f89580"></path><g fill="#f5f8f9"><path d="M123.17 296.147h17.244v-34.488H123.17c-9.524 0-17.244 7.72-17.244 17.244 0 9.523 7.72 17.244 17.244 17.244zM388.83 296.147h-17.244v-34.488h17.244c9.524 0 17.244 7.72 17.244 17.244 0 9.523-7.72 17.244-17.244 17.244z" fill="#f5f8f9"></path></g><path d="M387.32 202.26v96.59c0 36.26-14.7 69.09-38.46 92.85-23.76 23.77-56.6 38.47-92.86 38.47-72.53 0-131.32-58.8-131.32-131.32v-96.59c0-15.71 2.76-30.79 7.83-44.75h246.98c5.07 13.96 7.83 29.04 7.83 44.75z" fill="#ffcebf"></path><path d="M289.93 425.74a131.735 131.735 0 0 1-33.93 4.43c-72.53 0-131.32-58.79-131.32-131.32v-96.59c0-15.71 2.76-30.78 7.83-44.75h67.85c-5.07 13.97-7.83 29.03-7.83 44.75v96.59c0 60.79 41.32 111.94 97.4 126.89z" fill="#ffb09e"></path><path d="M165.42 223.754c-9.997 0-16.849 10.126-13.082 19.385 7.657 18.826 26.134 32.099 47.71 32.099s40.053-13.273 47.71-32.099c3.766-9.26-3.086-19.385-13.082-19.385z" fill="#ffb09e"></path><circle cx="200.048" cy="223.754" fill="#f5f8f9" r="38.9"></circle><path d="M209.812 261.415a39.067 39.067 0 0 1-9.769 1.234c-21.487 0-38.895-17.408-38.895-38.895s17.408-38.895 38.895-38.895c3.378 0 6.638.429 9.769 1.234-16.771 4.326-29.152 19.538-29.152 37.661s12.381 33.335 29.152 37.661z" fill="#dedbee"></path><path d="M277.324 223.754c-9.997 0-16.849 10.126-13.082 19.385 7.657 18.826 26.134 32.099 47.71 32.099s40.053-13.273 47.71-32.099c3.766-9.26-3.086-19.385-13.082-19.385z" fill="#ffb09e"></path><circle cx="311.952" cy="223.754" fill="#f5f8f9" r="38.9"></circle><path d="M321.716 261.415a39.067 39.067 0 0 1-9.769 1.234c-21.487 0-38.895-17.408-38.895-38.895s17.408-38.895 38.895-38.895c3.378 0 6.638.429 9.769 1.234-16.771 4.326-29.152 19.538-29.152 37.661.001 18.123 12.381 33.335 29.152 37.661z" fill="#dedbee"></path><circle cx="207.306" cy="223.512" fill="#444444" r="15.532"></circle><circle cx="304.333" cy="223.512" fill="#444444" r="15.532"></circle><path d="M294.287 288.074h-76.575c-23.121 0-41.864 18.743-41.864 41.864 0 11.067 8.971 20.038 20.038 20.038s20.038-8.971 20.038-20.038c0 11.067 8.971 20.038 20.038 20.038S256 341.005 256 329.938c0 11.067 8.971 20.038 20.038 20.038s20.038-8.971 20.038-20.038c0 11.067 8.971 20.038 20.038 20.038s20.038-8.971 20.038-20.038c-.001-23.121-18.744-41.864-41.865-41.864z" fill="#f5f8f9"></path><path d="M231.895 329.938a19.982 19.982 0 0 0 5.868 14.175 20.12 20.12 0 0 0 6.187 4.213 19.974 19.974 0 0 1-7.988 1.656c-11.064 0-20.035-8.971-20.035-20.044 0 11.073-8.971 20.044-20.044 20.044-5.532 0-10.536-2.247-14.166-5.868a19.983 19.983 0 0 1-5.869-14.175c0-23.119 18.743-41.862 41.862-41.862h56.046c-23.119-.001-41.861 18.742-41.861 41.861z" fill="#dedbee"></path><path d="M269.61 157.51v123.53c0 7.52-6.09 13.61-13.61 13.61s-13.61-6.09-13.61-13.61V157.51z" fill="#ffb09e"></path></g></svg>