<svg id="Capa_1" enable-background="new 0 0 512 512" height="512" viewBox="0 0 512 512" width="512" xmlns="http://www.w3.org/2000/svg"><g><path d="m307.638 432.501c-10.454-3.484-17.505-13.267-17.505-24.286v-8.944l-79.988-.109-.326 27.041-26.26 21.308 26.912 32.773 91.873-1.955 9.715-44.353z" fill="#f4aa73"/><path d="m204.8 366.933v41.282c0 11.019-7.051 20.802-17.505 24.286l-4.422 1.474 9.81 14.716c14.123-4.702 24.488-16.248 27.934-30.226.697-2.826 2.317-5.339 4.614-7.128 2.76-2.151 6.271-3.096 9.737-2.613 4.086.569 8.255.876 12.499.876 15.381 0 29.855-3.772 42.667-10.329v-32.337h-85.334z" fill="#e29a6c"/><path d="m182.128 247.467v50.699c0 42.416 22.923 93.421 65.339 93.421 5.927 0 17.238-.995 17.238-.995 34.116-7.824 59.562-38.369 59.562-74.858v-68.267z" fill="#fbbd80"/><path d="m204.8 315.733v-18.531c0-4.526 1.798-8.867 4.999-12.068l37.668-37.668h-76.8v63.475c0 35.116 21.685 67.661 55.173 78.231 13.698 4.323 26.845 4.15 38.865 1.418-34.19-7.768-59.905-38.315-59.905-74.857z" fill="#f4aa73"/><path d="m281.6 204.8h-76.8c-10.526 0-20.163 3.812-27.603 10.131l.044 19.869 36.092 21.2s39.095 31.276 109.801 41.436c5.097.732 9.666-3.334 9.666-8.484v-32.952c0-28.277-22.923-51.2-51.2-51.2z" fill="#845252"/><path d="m506.502 192.79-34.167-13.002.318-36.556c.071-8.091-10.107-11.728-15.18-5.426l-22.923 28.477-31.858-10.659 13.354 48.063-10.914 23.294 33.068-8.308 31.307 34.773 1.661-33.549 34.865-10.993c7.716-2.434 8.03-13.237.469-16.114z" fill="#ffe077"/><path d="m352.238 65.126 12.161-24.197c2.087 2.275 3.015 4.309 3.117 4.558 1.7 4.346 6.583 6.529 10.958 4.883 4.408-1.663 6.642-6.583 4.975-10.992-.18-.479-3.209-7.982-11.142-14.184l2.159-4.295c2.117-4.212.417-9.342-3.792-11.458-4.233-2.125-9.342-.408-11.458 3.792l-2.441 4.856c-.549-.119-.997-.323-1.568-.423-10.425-1.817-21.033 2.504-27.733 11.275-6.15 8.054-7.583 18.117-3.758 26.258 1.793 3.809 4.446 7.826 8.146 12.457l-16.209 32.25c-3.203-2.218-5.197-4.685-7.961-9.449-2.367-4.071-7.567-5.463-11.667-3.096-4.075 2.367-5.467 7.588-3.1 11.662 4.855 8.361 9.143 12.578 15.027 16.205l-2.385 4.745c-2.117 4.212-.417 9.342 3.792 11.458 1.233.617 2.542.908 3.825.908 3.125 0 6.133-1.721 7.633-4.7l2.753-5.477c2.414.532 4.809.802 7.156.802 11.525 0 21.892-6.029 27.833-14.142 9.208-12.571 7.992-28.721-3.033-40.196-1.09-1.131-2.19-2.32-3.288-3.5zm-7.446 33.612c-2.764 3.779-7.504 6.776-13.01 7.089l12.245-24.364c6.403 7.587 2.759 14.554.765 17.275zm-4.222-48.406c-.467-.798-1.045-1.632-1.404-2.395-1.092-2.321-.358-5.713 1.875-8.638 1.617-2.117 4.236-4.146 7.468-4.764z" fill="#98db7c"/><path d="m108.433 121.967c-3.333-3.333-8.733-3.333-12.067 0-3.333 3.333-3.333 8.733 0 12.067l42.667 42.667c1.667 1.667 3.85 2.5 6.033 2.5s4.367-.833 6.033-2.5c3.333-3.333 3.333-8.733 0-12.067z" fill="#ffefac"/><path d="m247.467 119.467c-4.717 0-8.533 3.821-8.533 8.533v25.6c0 4.713 3.817 8.533 8.533 8.533 4.717 0 8.533-3.821 8.533-8.533v-25.6c0-4.712-3.817-8.533-8.533-8.533z" fill="#fff4d6"/><path d="m335.3 156.1-8.533 8.533c-3.333 3.333-3.333 8.733 0 12.067 1.667 1.667 3.85 2.5 6.033 2.5s4.367-.833 6.033-2.5l8.533-8.533c3.333-3.333 3.333-8.733 0-12.067-3.333-3.333-8.733-3.333-12.066 0z" fill="#ffefac"/><path d="m113.433 275.567-17.067 17.067c-3.333 3.333-3.333 8.733 0 12.067 1.667 1.667 3.85 2.5 6.033 2.5s4.367-.833 6.033-2.5l17.067-17.067c3.333-3.333 3.333-8.733 0-12.067-3.332-3.334-8.732-3.334-12.066 0z" fill="#fff4d6"/><path d="m405.8 308.633-25.6-17.067c-3.942-2.629-9.233-1.558-11.833 2.367-2.617 3.921-1.558 9.221 2.367 11.833l25.6 17.067c1.458.971 3.1 1.433 4.725 1.433 2.758 0 5.467-1.333 7.108-3.8 2.616-3.92 1.558-9.22-2.367-11.833z" fill="#fff4d6"/><path d="m177.197 214.931c-9.191 7.826-15.063 19.519-15.063 32.536v32.981c0 7.235 8.439 11.187 13.996 6.556l37.203-31.004c-16.187-10.615-28.115-26.988-36.136-41.069z" fill="#7a4646"/><path d="m369.194 453.02-57.134-19.045c-13.661 21.247-37.457 35.358-64.593 35.358-20.572 0-39.224-8.109-52.996-21.289l-60.515 9.469c-13.938 4.646-23.339 17.69-23.339 32.381l8.85 20.649c2.669.943 5.541 1.457 8.533 1.457h238.933c14.138 0 25.6-11.461 25.6-25.6v-.998c0-14.692-9.401-27.736-23.339-32.382z" fill="#98db7c"/><path d="m192.683 448.692c.609-.203 1.193-.42 1.788-.648-4.367-4.19-8.31-8.955-11.598-14.068l-57.134 19.045c-13.938 4.646-23.339 17.69-23.339 32.381v.998c0 11.13 7.146 20.617 17.067 24.144v-25.144c0-7.358 4.692-13.862 11.675-16.188z" fill="#77cc7d"/><path d="m185.076 93.243 8.975-8.545c10.41-16.922 25.147-46.21 16.847-65.674-6.778-15.896-25.159-23.287-41.054-16.509-8.646 3.687-14.651 10.846-17.353 19.131-7.849-3.785-17.173-4.408-25.819-.721-1.249.533-2.446 1.137-3.587 1.806-13.383 7.846-5.028 39.248-5.028 39.248 12.271 28.782 67.019 31.264 67.019 31.264z" fill="#ff7e92"/><path d="m124.024 44.273c-2.898-7.088-3.008-14.747-.94-21.542-13.259 7.889-19.14 24.665-12.922 39.248 10.176 23.863 54.974 32.962 69.989 35.375 3.036.488 6.075-.812 7.825-3.34 1.595-2.305 3.725-5.496 6.074-9.315 0-.001-58.478-12.183-70.026-40.426z" fill="#ff5f7a"/><path d="m76.8 247.467h-68.267c-4.713 0-8.533-3.82-8.533-8.533v-27.995c0-2.592 1.178-5.044 3.203-6.663l34.133-27.307c3.117-2.493 7.545-2.493 10.661 0l34.133 27.307c2.024 1.619 3.203 4.071 3.203 6.663v27.995c0 4.712-3.82 8.533-8.533 8.533z" fill="#fff4d6"/><path d="m42.667 230.4c-4.717 0-8.533-3.821-8.533-8.533v-8.533c0-4.712 3.817-8.533 8.533-8.533s8.533 3.821 8.533 8.533v8.533c0 4.712-3.817 8.533-8.533 8.533z" fill="#7ad7ee"/><path d="m82.131 185.171-34.133-27.307c-3.117-2.493-7.545-2.493-10.661 0l-34.134 27.307c-2.025 1.62-3.203 4.071-3.203 6.663v19.104l37.336-29.869c3.117-2.493 7.545-2.493 10.661 0l37.336 29.869v-19.104c0-2.592-1.178-5.043-3.202-6.663z" fill="#ff7e92"/><path d="m469.507 253.446-22.957-32.179c-4.133-5.804-11.442-8.433-18.358-6.558l-11.583 3.137 7.142-9.646c4.25-5.742 4.475-13.517.567-19.492l-21.625-33.084-2.81-.94c-7.673-2.567-14.277 5.988-9.851 12.76l19.999 30.602-21.745 29.387c-4.812 6.504 1.283 15.429 9.092 13.312l35.284-9.564 21.229 29.761c4.698 6.587 15.07 3.547 15.47-4.533z" fill="#ffd05b"/></g></svg>