<svg viewBox="0 0 497 497" xmlns="http://www.w3.org/2000/svg"><g><path d="M333.845 497H80.655c-4.143 0-7.5-3.358-7.5-7.5s3.357-7.5 7.5-7.5h253.189c4.143 0 7.5 3.358 7.5 7.5s-3.357 7.5-7.499 7.5zm0-482H80.655c-4.143 0-7.5-3.358-7.5-7.5s3.357-7.5 7.5-7.5h253.189c4.143 0 7.5 3.358 7.5 7.5s-3.357 7.5-7.499 7.5z" fill="#dcf2f6"></path><path d="M408.845 0h-75v482l82 7z" fill="#ffe07d"></path><path d="M408.845 0v478.5a3.5 3.5 0 0 1-3.5 3.5h-71.5v15h82.5a7.5 7.5 0 0 0 7.5-7.5V7.5a7.5 7.5 0 0 0-7.5-7.5z" fill="#ffc250"></path><path d="M363.845 463.083h-30v-15h30a7.5 7.5 0 0 1 0 15zm30-41.416h-60v-15h60a7.5 7.5 0 0 1 0 15zm-30-41.417h-30v-15h30a7.5 7.5 0 0 1 0 15zm30-41.417h-60v-15h60a7.5 7.5 0 0 1 0 15zm-30-41.416h-30v-15h30a7.5 7.5 0 0 1 0 15zm30-41.417h-60v-15h60a7.5 7.5 0 0 1 0 15zm-30-41.417h-30v-15h30a7.5 7.5 0 0 1 0 15zm30-41.416h-60v-15h60a7.5 7.5 0 0 1 0 15zm-30-41.417h-30v-15h30a7.5 7.5 0 0 1 0 15zm30-41.417h-60v-15h60a7.5 7.5 0 0 1 0 15zm-30-41.416h-30v-15h30a7.5 7.5 0 0 1 0 15z" fill="#607882"></path><path d="m232.336 138.355-43.892-15.937s19.905-34.12 19.905-67.573c0-19.515-7.108-37.898-20.502-50.363A43.925 43.925 0 0 0 168.445 0c-26.457 0-47.905 22.956-47.905 56.113s27.905 66.306 27.905 66.306l-47.469 16.184a30 30 0 0 0-20.319 28.395v65.067c0 46.731 6.004 74.328 14.933 87.491l16.043 9.509c6.474 54.54 24.448 143.123 24.448 143.123L130.567 482l64.637 7-6.531-16.812s25.615-93.663 30.749-146.421c15.143-1.922 24.676-32.169 24.676-98.97v-73.511c-.001-5.486-4.493-11.094-11.762-14.931z" fill="#ebae9d"></path><path d="M109.341 299.349c0 7.394.87 17.739 2.292 29.716h-.977c-5.492 0-10.639-2.982-15.067-9.509-.791-7.946-1.249-14.853-1.249-20.208 0-26.835 8.489-65.706 8.489-65.706v-51.318c0-5.671 4.597-10.268 10.268-10.268a4.732 4.732 0 0 1 4.732 4.732v56.853c.001.001-8.488 38.872-8.488 65.708zm65.65-184.132a4.47 4.47 0 0 0 3.537 7.202h9.917s27.905-33.148 27.905-66.306c0-24.498-11.715-43.414-28.502-51.63 8.656 11.652 13.502 28.848 13.502 48.363 0 30.802-20.499 54.831-26.359 62.371zm-8.614 187.513a7.5 7.5 0 0 0-7.5 7.5V482h-28.31l-2.15 3.825c-2.81 5 .803 11.175 6.538 11.175h62.844c5.735 0 9.348-6.175 6.538-11.175l-7.665-13.637s17.974-88.583 24.448-143.123h.977c16.568 0 30-27.098 30-97v-65.511a30.002 30.002 0 0 0-19.761-28.199c2.662 4.544 4.761 9.445 4.761 14.932v73.511c0 52.696-4.793 76.516-14.25 85.052.363-4.741.565-8.964.565-12.501 0-26.835-7.896-65.706-7.896-65.706V176.79c0-2.553-2.027-4.694-4.58-4.731-5.74-.083-10.42 4.545-10.42 10.266v51.318s7.896 38.871 7.896 65.706c0 38.888-23.984 159.143-26.523 171.765a2.957 2.957 0 0 0 .322 2.033l2.496 4.441c1.109 1.974-.317 4.412-2.581 4.412h-8.249V310.23a7.5 7.5 0 0 0-7.5-7.5z" fill="#e09380"></path></g></svg>