<svg viewBox="0 0 463.429 463.429" xmlns="http://www.w3.org/2000/svg"><g><path d="M61.611 201.981S44.277 62.186 222.741 52.539a34.864 34.864 0 0 0-13.796 12.032 235.658 235.658 0 0 1 86.867-7.556 42.956 42.956 0 0 0-23.568 9.97s62.542-9.681 107.863 10.422a57.562 57.562 0 0 0-28.852 8.613 127.27 127.27 0 0 1 81.729 39.884 40.79 40.79 0 0 0-14.203 1.362 179.871 179.871 0 0 1 44.648 26.388s-25.998 12.892-41.291 54.386c0 0 38.471 12.287 36.657 77.547a438.144 438.144 0 0 1-30.061 119.482 9.174 9.174 0 0 1-10.292 5.652 9.122 9.122 0 0 1-7.347-9.879c1.696-16.526 3.278-54.821-13.055-85.64a227.313 227.313 0 0 0-12.14-20.77 76.285 76.285 0 0 1-13.095-27.597s-105.348 15.31-189.541 5.239-74.037-20.911-98.498-23.358c0 0 4.521 25.67-11.179 43.196a125.774 125.774 0 0 0-22.963 44.111 223.985 223.985 0 0 0-3.532 65.441 8.478 8.478 0 0 1-6.07 8.687 8.478 8.478 0 0 1-10.145-4.793C21.111 382.429-8.329 306.905 2.268 252.96a61.97 61.97 0 0 1 41.483-47.717 74.668 74.668 0 0 1 17.86-3.262z" fill="#414451"></path></g></svg>