<svg viewBox="0 0 512.002 512.002" xmlns="http://www.w3.org/2000/svg"><g><path d="M484.019 167.73H353.103v-8.836c0-14.626-11.857-26.483-26.483-26.483h-57.222a88.28 88.28 0 0 0-54.197 18.595l-34.626 26.932a35.308 35.308 0 0 1-21.678 7.438H105.93v185.388h31.737a238.37 238.37 0 0 1 39.174 3.241l14.065 2.343a238.64 238.64 0 0 0 39.206 3.243h84.684c14.34 0 27.194-10.739 27.945-25.059.8-15.273-11.348-27.906-26.445-27.906h16.156c14.34 0 27.194-10.739 27.945-25.059.8-15.273-11.348-27.906-26.445-27.906h17.655c14.34 0 27.194-10.739 27.945-25.059.8-15.273-11.348-27.906-26.445-27.906h132.414c15.096 0 27.243-12.631 26.445-27.903-.752-14.323-13.606-25.063-27.947-25.063z" fill="#f0c087"></path><path d="M105.931 185.381h17.655V370.76h-17.655z" fill="#e6af78"></path><path d="M97.103 379.583H8.828A8.829 8.829 0 0 1 0 370.755V185.376a8.829 8.829 0 0 1 8.828-8.828h88.276a8.829 8.829 0 0 1 8.828 8.828v185.379a8.83 8.83 0 0 1-8.829 8.828z" fill="#a0d2f0"></path><circle cx="52.966" cy="335.45" fill="#eff2fa" r="17.655"></circle></g></svg>