<svg height="512" viewBox="0 0 512 512" width="512" xmlns="http://www.w3.org/2000/svg"><g id="_3_If" data-name="3 If"><rect fill="#f5d367" height="294.151" rx="147.075" width="402.424" x="98.576" y="48.647"/><circle cx="98.576" cy="362.637" fill="#f5d367" r="42.915"/><circle cx="42.837" cy="431.516" fill="#f5d367" r="31.837"/><path d="m119.2641 400.244a42.9223 42.9223 0 1 1 -39.2695-76.3 498.0954 498.0954 0 0 0 39.2695 76.3z" fill="#e2c061"/><circle cx="42.837" cy="431.516" fill="#e2c061" r="31.837"/><g fill="#f7f5fb"><path d="m234.9541 135.673h55.6274a6 6 0 0 0 0-12h-55.6274a12.7189 12.7189 0 0 0 -12.7041 12.7046v125.395a6 6 0 0 0 12 0v-60.05h56.332a6 6 0 0 0 0-12h-56.332v-53.345a.7052.7052 0 0 1 .7041-.7046z"/><path d="m175.7163 123.673a6 6 0 0 0 -6 6v132.1a6 6 0 0 0 12 0v-132.1a6 6 0 0 0 -6-6z"/><path d="m318.18 255.7726h-14.9115a6 6 0 0 0 0 12h14.9115a6 6 0 0 0 0-12z"/><path d="m371.02 255.7726h-14.9116a6 6 0 0 0 0 12h14.9116a6 6 0 0 0 0-12z"/><path d="m423.86 255.7726h-14.9118a6 6 0 0 0 0 12h14.9118a6 6 0 0 0 0-12z"/></g></g></svg>