<svg viewBox="0 0 468 468" xmlns="http://www.w3.org/2000/svg"><g><path d="M117.364 207.383s-73.397-10.988 6.017-153.192c0 0 29.496-51.163 89.768-54.178 5.567-.279 10.221 4.207 10.221 9.777 9.67-2.071 19.806-.606 28.373 4.331 20.471 11.798 48.837 43.431 24.701 125.696-35.383 120.598-159.08 67.566-159.08 67.566z" fill="#321e35"></path><path d="m238.338 181.496 1.782 22.343-56.112 43.842-58.85-41.406 11.212-32.626s21.876-4.365 33.059-40.393l.333-1.076c8.182-26.55 45.829-26.421 53.82.187z" fill="#ffc2bd"></path><path d="M200.062 72.734c-16.275 12.395-20.614 27.51-27.633 51.985.003.003 73.509 74.664 81.031-70.529-12.366 14.137-33.323 3.256-53.398 18.544z" fill="#ffd4cc"></path><path d="M96.967 411.767C87.389 440.479 89.871 468 89.871 468h238.751l.232-160.265c-6.663-119.82-90.515-126.239-90.515-126.239s-4.881 29.824-45.391 30.417c-43.535.638-54.931-38.597-54.931-38.597-39.486 3.859-70.202 40.252-78.465 77.058-9.272 41.291-27.328 150.335 37.415 161.393" fill="#ff57a3"></path><path d="M401.13 319.521c5.451-5.027 26.122-34.013-3.085-66.881-.9-34.993-29.712-63.091-65.15-63.091-17.884 0-44.072 7.579-44.072 29.583-3.087-3.536-8.732-3.07-11.23.897-6.264 9.944-20.59 33.891-6.846 69.01-8.212 4.781-28.016 29.489-1.492 62.672l112.998 15.483c15.33 0 27.758-12.325 27.758-27.53 0-7.964-3.43-15.117-8.881-20.143z" fill="#321e35"></path><path d="M409.614 356.088c-8.078-12.49-28.503-18.03-49.571-20.244l-48.962-.39c-22.473 1.914-45.08 7.332-53.682 20.634-13.594 21.021-8.479 86.806 0 111.725h152.216c8.478-24.918 13.593-90.704-.001-111.725z" fill="#8d36ff"></path><path d="M252.863 366.404c-7.594 25.032-2.79 77.846 4.536 101.409l25.02.187v-72.064c-.001-16.31-13.233-29.532-29.556-29.532zM414.15 366.404c-16.323 0-29.556 13.222-29.556 29.532V468l25.02-.187c7.326-23.563 12.13-76.377 4.536-101.409z" fill="#ffd4cc"></path><path d="M314 272.125h39.166v39.583c0 12.907 9.223 23.835 21.886 26.381l.213.043c-2.13 21.126-19.978 37.617-41.682 37.617h-.152c-21.704 0-39.553-16.491-41.682-37.617l.213-.043c12.664-2.546 21.886-13.473 21.886-26.381v-39.583h39.166" fill="#ffc2bd"></path><path d="M343.082 233.73h-33.536c-8.264 0-14.963 6.694-14.963 14.951v30.433c0 21.469 17.418 38.873 38.903 38.873 21.486 0 38.903-17.404 38.903-38.873v-15.725c-19.364-3.562-26.614-18.499-29.307-29.659z" fill="#ffd4cc"></path><path d="M192.833 396.625c-.291 0-.587-.063-.867-.198-38.621-18.614-72.756-40.788-73.096-41.01a2 2 0 0 1-.813-2.284c9.982-31.252.055-76.435-.046-76.887a2 2 0 0 1 3.903-.875c.417 1.863 9.969 45.36.407 77.509 6.509 4.161 37.179 23.458 71.382 39.943a2 2 0 0 1-.87 3.802z" fill="#f2259f"></path><path d="m231.279 397.818 4.528-4.313c1.28-1.219 1.91-3.032 1.466-4.742a4.783 4.783 0 0 0-6.848-3.068l-9.045 4.717c-4.951 2.553-8.436 4.873-15.777 4.829-4.509-.027-8.838-1.361-12.767-2.619l-.003.003c-14.022-6.758-27.38-13.944-38.75-20.38-14.722 16.191-20.977 34.263-23.632 46.7 13.641 2.598 30.236 5.384 47.424 7.39 15.214 1.861 30.418 3.918 45.454 6.891 6.41 1.248 16.047 2 24.647-1.863 24.604-11.05-.827-39.181-16.697-33.545z" fill="#ffd4cc"></path></g></svg>