<svg viewBox="0 0 512 512" xmlns="http://www.w3.org/2000/svg"><g><path d="M482.558 77.798H29.442c-6.966 0-12.613-5.647-12.613-12.613 0-6.966 5.647-12.613 12.613-12.613h453.116c6.966 0 12.613 5.647 12.613 12.613.001 6.966-5.647 12.613-12.613 12.613z" fill="#ffd52b"></path><g fill="#f0f3fa"><path d="M73.941 96.988a7.5 7.5 0 0 0 7.5-7.5V37.53a7.5 7.5 0 0 0-15 0v51.958a7.5 7.5 0 0 0 7.5 7.5zM438.059 96.988a7.5 7.5 0 0 0 7.5-7.5V37.53a7.5 7.5 0 0 0-15 0v51.958a7.5 7.5 0 0 0 7.5 7.5z" fill="#f0f3fa"></path></g><path d="M351.112 77.767H173.531v86.55a81.646 81.646 0 0 0 12.994 44.189c7.673 11.54 12.994 24.131 12.994 38.214v254.03h112.372V246.162a57.802 57.802 0 0 1 16.961-40.899l15.608-15.589a88.274 88.274 0 0 0 25.902-62.459V96.993c0-10.618-8.618-19.226-19.25-19.226z" fill="#e68d35"></path><path d="M284.344 106.191a19.215 19.215 0 0 1-14.599 6.695c-10.632 0-19.25-8.61-19.25-19.231V22.981c0-10.621 8.619-19.231 19.25-19.231 10.632 0 19.25 8.61 19.25 19.231v77.769" fill="#e68d35"></path><path d="M269.745 3.75a19.147 19.147 0 0 0-10 2.821c5.54 3.376 9.25 9.452 9.25 16.41v70.611c0 6.699-3.543 13.015-9.23 16.485a19.142 19.142 0 0 0 9.98 2.809 19.215 19.215 0 0 0 14.599-6.695l4.651-5.441V22.981c0-10.621-8.618-19.231-19.25-19.231z" fill="#d47619"></path><path d="M327.465 77.767h-38.477a.012.012 0 0 1-.012-.012V29.334c0-10.632 8.619-19.25 19.25-19.25 10.632 0 19.25 8.619 19.25 19.25v48.421c.001.006-.004.012-.011.012z" fill="#e68d35"></path><path d="M308.227 10.083a19.13 19.13 0 0 0-10 2.824c5.54 3.38 9.25 9.462 9.25 16.426v48.421a.012.012 0 0 1-.012.012h20a.012.012 0 0 0 .012-.012v-48.42c0-10.632-8.618-19.251-19.25-19.251z" fill="#d47619"></path><path d="M192.781 98.435c-10.632 0-19.25-8.619-19.25-19.25V38.466c0-10.632 8.619-19.25 19.25-19.25 10.632 0 19.25 8.619 19.25 19.25v40.718c.001 10.632-8.618 19.251-19.25 19.251z" fill="#e68d35"></path><path d="M192.781 19.216a19.13 19.13 0 0 0-10 2.824c5.54 3.38 9.25 9.462 9.25 16.426v40.718c0 6.964-3.711 13.046-9.25 16.426a19.13 19.13 0 0 0 10 2.824c10.632 0 19.25-8.619 19.25-19.25V38.466c.001-10.632-8.618-19.25-19.25-19.25z" fill="#d47619"></path><path d="M231.263 107.567c-10.632 0-19.25-8.619-19.25-19.25V29.334c0-10.632 8.619-19.25 19.25-19.25 10.632 0 19.25 8.619 19.25 19.25v58.983c0 10.632-8.618 19.25-19.25 19.25z" fill="#e68d35"></path><path d="M231.263 10.083a19.13 19.13 0 0 0-10 2.824c5.54 3.38 9.25 9.462 9.25 16.426v58.983c0 6.964-3.711 13.046-9.25 16.426a19.13 19.13 0 0 0 10 2.824c10.632 0 19.25-8.619 19.25-19.25V29.334c0-10.632-8.618-19.251-19.25-19.251z" fill="#d47619"></path><path d="M186.032 283.41h139.937v217.34H186.032z" fill="#6deba9"></path><path d="M285.969 283.41h40v217.34h-40z" fill="#49de90"></path><path d="M186.032 257.955h139.937v49.591H186.032z" fill="#1caf6c"></path><path d="M285.969 257.955h40v49.591h-40z" fill="#0ea05e"></path><path d="M504.5 493.25H7.5a7.5 7.5 0 0 0 0 15h497a7.5 7.5 0 0 0 0-15z" fill="#d9dfeb"></path><path d="M278.079 84.022a6.259 6.259 0 0 1 6.263-6.255h66.77l-21.294 38.453h-19.501c-17.805-.001-32.238-14.416-32.238-32.198z" fill="#e68d35"></path><path d="M329.818 108.719a7.5 7.5 0 0 0-7.5 7.5v7.665c-32.727 3.729-58.232 31.562-58.232 65.234a7.5 7.5 0 0 0 15 0c0-27.934 22.758-50.659 50.732-50.659a7.5 7.5 0 0 0 7.5-7.5v-14.74a7.5 7.5 0 0 0-7.5-7.5z" fill="#d47619"></path><path d="M115.063 233.345V37.53a7.5 7.5 0 0 0-15 0v195.815L26.066 370.438a7.502 7.502 0 0 0 13.201 7.125l68.296-126.533 68.296 126.533a7.5 7.5 0 0 0 10.162 3.038 7.502 7.502 0 0 0 3.038-10.163zM485.934 370.438l-73.996-137.093V37.53a7.5 7.5 0 0 0-15 0v195.815l-73.997 137.093a7.502 7.502 0 0 0 6.594 11.064 7.5 7.5 0 0 0 6.606-3.939l68.296-126.533 68.296 126.533a7.5 7.5 0 0 0 13.201-7.125z" fill="#f0f3fa"></path><ellipse cx="107.563" cy="235.24" fill="#ffd52b" rx="22.65" ry="22.627"></ellipse><path d="M165.056 416.57H50.07C26.559 416.57 7.5 397.511 7.5 374h200.125c0 23.511-19.059 42.57-42.569 42.57z" fill="#ffd52b"></path><path d="M167.625 374c0 23.511-19.059 42.57-42.57 42.57h40c23.51 0 42.57-19.059 42.57-42.569h-40z" fill="#fcca00"></path><ellipse cx="404.437" cy="235.24" fill="#ffd52b" rx="22.65" ry="22.627"></ellipse><path d="M346.944 416.57H461.93c23.51 0 42.57-19.059 42.57-42.57H304.375c0 23.511 19.059 42.57 42.569 42.57z" fill="#ffd52b"></path><path d="M464.5 374c0 23.511-19.059 42.57-42.57 42.57h40c23.511 0 42.57-19.059 42.57-42.569h-40z" fill="#fcca00"></path></g></svg>