<svg viewBox="0 0 134 134" xmlns="http://www.w3.org/2000/svg"><g><path d="M25.26 14.32c-.55 0-1-.45-1-1V9.86c0-.55.45-1 1-1s1 .45 1 1v3.46c0 .55-.45 1-1 1zM47.06 14.32c-.55 0-1-.45-1-1V9.86c0-.55.45-1 1-1s1 .45 1 1v3.46c0 .55-.45 1-1 1zM86.28 24.96c-.55 0-1-.45-1-1V20.5c0-.55.45-1 1-1s1 .45 1 1v3.46c0 .56-.45 1-1 1zM108.08 24.96c-.55 0-1-.45-1-1V20.5c0-.55.45-1 1-1s1 .45 1 1v3.46c0 .56-.45 1-1 1z" fill="#000000"></path><g fill="#666"><path d="M117.78 84.99c-.09 0-.17-.01-.26-.03-2.65-.72-5.24-1.99-7.69-3.77-.45-.33-.54-.95-.22-1.4.33-.45.95-.54 1.4-.22 2.26 1.64 4.62 2.81 7.04 3.46.53.14.85.69.71 1.23-.13.43-.54.73-.98.73zM106.64 78.01c-.28 0-.57-.11-.77-.33-5.26-5.6-14.79-21.8-18.06-29.8-.22-.53.05-1.13.58-1.34.54-.21.12-2.51.34-1.98 3.14 7.68 13.65 26.37 18.68 31.73.39.42.36 1.07-.06 1.45-.21.18-.46.27-.71.27zM60.65 86c-1.27 0-2.56-.18-3.88-.53-2.8-.75-7.16-2.6-9.72-4.48a1.038 1.038 0 0 1 1.23-1.67c2.35 1.73 6.48 3.46 9.03 4.15 3.44.92 6.56.48 9.54-1.37 9.27-5.75 14.51-23.41 17.28-37.21.11-.56.66-.93 1.22-.81.56.11.92.66.81 1.22-2.85 14.2-8.32 32.43-18.22 38.56-2.3 1.42-4.74 2.14-7.29 2.14zM45.9 78.04c-.32 0-.63-.12-.86-.35C35.38 68 29.3 52.76 25.91 41.68c-.17-.57.19-1.15.81-1.31.61-.16 1.26.17 1.43.74 3.32 10.86 9.25 25.77 18.61 35.16.43.43.4 1.1-.08 1.5-.22.18-.5.27-.78.27zM7.17 79.37c-.32 0-.63-.15-.82-.43-.31-.45-.2-1.08.25-1.39 10.41-7.22 12.97-23.54 15.02-36.65.5-3.17.97-6.17 1.52-8.92.11-.54.64-.9 1.18-.78.54.11.89.64.78 1.18-.54 2.7-1.01 5.68-1.5 8.83C21.49 54.7 18.86 71.49 7.74 79.2c-.17.11-.37.17-.57.17z" fill="#666666"></path><path d="M18.38 84.66a1 1 0 0 1-.14-1.99c16.88-2.46 21.34-17.55 26.06-33.53l.81-2.72a.997.997 0 0 1 1.91.57l-.8 2.71C41.53 65.58 36.67 82 18.53 84.64c-.06.02-.11.02-.15.02zM88.73 87.3c-.34 0-.67-.17-.86-.49-.28-.48-.12-1.09.35-1.37 8.67-5.13 13.72-21.13 16.43-33.64.12-.54.66-.88 1.19-.77.54.12.88.65.77 1.19-2.79 12.9-8.08 29.44-17.37 34.94a.96.96 0 0 1-.51.14zM82.95 87.79c-1.27 0-2.58-.17-3.91-.51-18.17-4.7-27.53-31.25-31.5-46.67-.14-.54.2-1.08.76-1.21.55-.13 1.12.19 1.26.73 3.86 14.99 12.88 40.79 30.02 45.21 1.69.43 3.34.55 4.88.34.58-.09 1.09.31 1.17.85.08.55-.32 1.05-.89 1.13-.58.09-1.18.13-1.79.13zM126.9 85.44c-.27 0-.54-.11-.73-.32-9.32-10.01-14.85-26.56-17.85-38.69a1 1 0 0 1 1.94-.48c2.95 11.89 8.35 28.11 17.38 37.8.38.4.35 1.04-.05 1.41-.2.19-.44.28-.69.28z" fill="#666666"></path></g><path d="M4.32 89.48h126v4.6h-126z" fill="#4d4d4d"></path><path d="M24.79 112.35V94.07h-7.63v16.18zM55.68 111.54V94.07h-7.62v18.29zM86.58 109.16V94.07h-7.62v17.04zM117.48 107.79V94.07h-7.62v16.88z" fill="#999999"></path><path d="M62.85 10.15c-3.34 0-6.04 2.7-6.04 6.04s2.7 6.04 6.04 6.04 6.04-2.7 6.04-6.04c0-3.33-2.71-6.04-6.04-6.04z" fill="#e19e2d"></path><path d="M70.49 34.06h-.06a1 1 0 0 1-.94-.92c-.3-3.71-3.66-4.32-3.8-4.35a1.004 1.004 0 0 1 .32-1.98c1.26.2 3.38 1.11 4.58 3.19.79-1.42 2.08-2.9 4.1-3.2.54-.09 1.05.3 1.13.84.08.55-.3 1.05-.84 1.13-2.61.38-3.51 4.43-3.52 4.47-.09.48-.5.82-.97.82zM59.91 37.61h-.06a.99.99 0 0 1-.93-.92 2.8 2.8 0 0 0-2.3-2.64c-.54-.09-.91-.61-.82-1.15s.6-.91 1.14-.83c.82.13 2.14.67 3.04 1.88.58-.88 1.46-1.69 2.73-1.88.56-.09 1.05.3 1.13.84.08.55-.3 1.05-.84 1.13-1.53.22-2.1 2.74-2.11 2.77-.1.47-.51.8-.98.8z" fill="#4d4d4d"></path><g fill="#b7202b"><path d="M23.03 13.32h4.68v76.16h-4.68zM44.72 13.32h4.68v76.16h-4.68zM84.05 23.97h4.68v65.51h-4.68zM105.74 23.97h4.68v65.51h-4.68zM27.71 19.24h17.01v5.41H27.71zM27.71 36.82h17.01v5.41H27.71z" fill="#b7202b"></path><path d="M88.73 29.89h17.01v5.41H88.73zM88.73 47.47h17.01v5.41H88.73z" fill="#b7202b"></path></g><path d="M124.94 108.08v10.95c0 .09-.01.18-.04.27.06.19.05.4-.02.6-.19.52-.76.79-1.28.59a9.97 9.97 0 0 0-8.92 1.06 11.942 11.942 0 0 1-10.79 1.24l-6.99-2.61a9.974 9.974 0 0 0-7.64.29l-4.36 2.02a11.834 11.834 0 0 1-10.43-.2l-2.71-1.38a9.872 9.872 0 0 0-8.57-.21l-7.55 3.39c-1.56.7-3.22 1.05-4.88 1.05-2.15 0-4.29-.58-6.18-1.72l-2.4-1.45a9.837 9.837 0 0 0-10.37.06l-1.63 1.01c-3.62 2.25-8.2 2.39-11.96.36l-4.15-2.25a9.989 9.989 0 0 0-8.96-.24.99.99 0 0 1-1.33-.47c-.11-.23-.12-.49-.06-.71a.863.863 0 0 1-.04-.28v-10.96c0-.02 0-.04.01-.06a.99.99 0 0 1 .96-.94c3.33-1.43 7.18-1.26 10.37.46l4.16 2.25a9.942 9.942 0 0 0 9.95-.3l1.63-1.01a11.85 11.85 0 0 1 12.46-.07l2.4 1.45a9.899 9.899 0 0 0 9.2.56l7.55-3.39c3.31-1.49 7.07-1.4 10.3.25l2.71 1.38a9.842 9.842 0 0 0 8.68.17l4.35-2.02c2.88-1.33 6.23-1.46 9.19-.35l6.99 2.61c2.98 1.12 6.33.73 8.98-1.03 3.07-2.05 6.96-2.55 10.45-1.36.47.03.86.4.91.87.01.04.01.08.01.12z" fill="#2a9df4"></path></g></svg>