<svg viewBox="0 0 512 512" xmlns="http://www.w3.org/2000/svg"><g><path d="M169.146 380.701H53.68c-8.284 0-15-6.716-15-15V105.893c0-8.284 6.716-15 15-15h115.467c8.284 0 15 6.716 15 15v259.808c-.001 8.284-6.716 15-15.001 15z" fill="#c73044"></path><path d="M314.613 380.701H199.146c-8.284 0-15-6.716-15-15V105.893c0-8.284 6.716-15 15-15h115.467c8.284 0 15 6.716 15 15v259.808c0 8.284-6.716 15-15 15zM460.079 380.701H344.613c-8.284 0-15-6.716-15-15V105.893c0-8.284 6.716-15 15-15h115.466c8.284 0 15 6.716 15 15v259.808c0 8.284-6.715 15-15 15z" fill="#c73044"></path><path d="M169.177 90.893h-23.834v231.046c0 11.023-8.936 19.959-19.959 19.959H38.68v23.803c0 8.284 6.716 15 15 15h115.466c8.284 0 15-6.716 15-15V105.862c0-8.267-6.701-14.969-14.969-14.969zM314.644 90.893H290.81v231.046c0 11.023-8.936 19.959-19.959 19.959h-86.705v23.803c0 8.284 6.716 15 15 15h115.466c8.284 0 15-6.716 15-15V105.862c.001-8.267-6.701-14.969-14.968-14.969z" fill="#952436"></path><path d="M460.11 90.893h-23.834v231.046c0 11.023-8.936 19.959-19.959 19.959h-86.705v23.803c0 8.284 6.716 15 15 15h115.467c8.284 0 15-6.716 15-15V105.862c0-8.267-6.701-14.969-14.969-14.969z" fill="#952436"></path><path d="M109.68 237.387a7.483 7.483 0 0 1-7.484-7.484v-34.616a7.484 7.484 0 1 1 14.968 0v34.616a7.484 7.484 0 0 1-7.484 7.484zM130.269 173.45H89.09c-4.134 0-7.484-3.35-7.484-7.484s3.351-7.484 7.484-7.484h41.179c4.134 0 7.484 3.35 7.484 7.484s-3.35 7.484-7.484 7.484zM130.269 264.071H89.09c-4.134 0-7.484-3.35-7.484-7.484s3.351-7.484 7.484-7.484h41.179c4.134 0 7.484 3.35 7.484 7.484s-3.35 7.484-7.484 7.484zM270.97 237.387a7.483 7.483 0 0 1-7.484-7.484v-34.616a7.484 7.484 0 1 1 14.968 0v34.616a7.484 7.484 0 0 1-7.484 7.484zM240.907 237.387a7.483 7.483 0 0 1-7.484-7.484v-34.616a7.484 7.484 0 1 1 14.968 0v34.616a7.482 7.482 0 0 1-7.484 7.484zM277.589 173.45H236.41c-4.134 0-7.484-3.35-7.484-7.484s3.351-7.484 7.484-7.484h41.179c4.134 0 7.484 3.35 7.484 7.484s-3.351 7.484-7.484 7.484zM277.589 264.071H236.41c-4.134 0-7.484-3.35-7.484-7.484s3.351-7.484 7.484-7.484h41.179c4.134 0 7.484 3.35 7.484 7.484s-3.351 7.484-7.484 7.484zM401.456 237.387a7.483 7.483 0 0 1-7.484-7.484v-34.616a7.484 7.484 0 1 1 14.968 0v34.616a7.484 7.484 0 0 1-7.484 7.484zM371.636 237.387a7.483 7.483 0 0 1-7.484-7.484v-34.616a7.484 7.484 0 1 1 14.968 0v34.616a7.482 7.482 0 0 1-7.484 7.484zM431.824 237.387a7.483 7.483 0 0 1-7.484-7.484v-34.616a7.484 7.484 0 1 1 14.968 0v34.616a7.484 7.484 0 0 1-7.484 7.484zM422.045 173.45h-41.179c-4.134 0-7.484-3.35-7.484-7.484s3.351-7.484 7.484-7.484h41.179c4.134 0 7.484 3.35 7.484 7.484s-3.35 7.484-7.484 7.484zM422.045 264.071h-41.179c-4.134 0-7.484-3.35-7.484-7.484s3.351-7.484 7.484-7.484h41.179c4.134 0 7.484 3.35 7.484 7.484s-3.35 7.484-7.484 7.484zM38.68 308.731h145.466V323.7H38.68z" fill="#f6e738"></path><path d="M184.146 308.731h145.466V323.7H184.146zM329.613 308.731H475.08V323.7H329.613z" fill="#f6e738"></path><g fill="#ecc32e"><path d="M184.146 323.7v-14.969h-38.803v13.208c0 .595-.038 1.18-.089 1.761zM329.613 323.7v-14.969H290.81v13.208c0 .595-.038 1.18-.089 1.761zM436.277 321.939c0 .595-.038 1.18-.089 1.761h38.892v-14.969h-38.803z" fill="#ecc32e"></path></g><path d="M503.239 421.107H8.761A8.761 8.761 0 0 1 0 412.346v-22.885a8.761 8.761 0 0 1 8.761-8.761h494.478a8.761 8.761 0 0 1 8.761 8.761v22.885a8.76 8.76 0 0 1-8.761 8.761z" fill="#a95e2c"></path><path d="M503.257 380.701H489.19v10.85a8.743 8.743 0 0 1-8.743 8.743H0v12.071a8.743 8.743 0 0 0 8.743 8.743h494.515a8.743 8.743 0 0 0 8.743-8.743v-22.921a8.744 8.744 0 0 0-8.744-8.743z" fill="#8f4e24"></path></g></svg>