<svg viewBox="0 0 512 512" xmlns="http://www.w3.org/2000/svg"><g><g fill="#fed2a4"><path d="M11 267c0 47.547 13.559 91.921 37 129.493l1-.287V135.905C24.941 173.814 11 218.777 11 267zM463 135.905v260.301l1 .287c23.441-37.572 37-81.946 37-129.493 0-48.223-13.941-93.186-38-131.095zM389.885 471H122.116l-.299 1c38.546 25.282 84.642 40 134.183 40s95.637-14.718 134.183-40z" fill="#fed2a4"></path></g><path d="M457.067 55H54.933L48 56v340.493A246.29 246.29 0 0 0 121.817 472h268.366A246.268 246.268 0 0 0 464 396.493V56z" fill="#f3f0ff"></path><path d="M48 56v340.493c13.579 21.764 30.49 41.224 50 57.708V56z" fill="#e2deff"></path><path d="M449 0H63c-8.284 0-15 6.716-15 15v41h416V15c0-8.284-6.716-15-15-15z" fill="#0182fc"></path><path d="M113 0H63c-8.284 0-15 6.716-15 15v41h50V15c0-8.284 6.716-15 15-15z" fill="#0172fb"></path><circle cx="80.5" cy="26.5" fill="#fd4755" r="7.5"></circle><circle cx="102.5" cy="26.5" fill="#fee45a" r="7.5"></circle><circle cx="124.5" cy="26.5" fill="#4fc123" r="7.5"></circle><circle cx="430.5" cy="26.5" fill="#ffffff" r="7.5"></circle><path d="M209.214 333.962h-25.708c-4.296 3.647-7.029 9.079-7.029 15.155 0 10.981 8.902 19.883 19.883 19.883s19.883-8.902 19.883-19.883c.001-6.076-2.733-11.508-7.029-15.155z" fill="#b5add5"></path><circle cx="196.361" cy="349.117" fill="#9182b0" r="7.71"></circle><path d="M319.718 333.962H294.01c-4.296 3.647-7.029 9.079-7.029 15.155 0 10.981 8.902 19.883 19.883 19.883s19.883-8.902 19.883-19.883c0-6.076-2.733-11.508-7.029-15.155z" fill="#b5add5"></path><circle cx="306.864" cy="349.117" fill="#9182b0" r="7.71"></circle><path d="M330.623 303.08h-9.409v16.882H166.712c-4.142 0-7.5 3.357-7.5 7.5s3.358 7.5 7.5 7.5H323.26c7.143 0 12.954-5.812 12.954-12.954v-22.127a6.449 6.449 0 0 1-5.591 3.199zM324.028 161.973c-3.249 34.452-32.327 61.501-67.614 61.501s-64.365-27.05-67.614-61.501h-45.423l28.383 127.014a9.71 9.71 0 0 0 9.476 7.592h141.607a9.709 9.709 0 0 0 9.476-7.592l28.383-127.014z" fill="#9182b0"></path><path d="M412.104 128.907h-38.09c-8.043 0-14.896 5.534-16.669 13.461l-2.7 12.105h-30.331c.006.359.027.714.027 1.074 0 4.772-.5 9.429-1.441 13.926h28.441l-7.266 32.517h-31.706l1.151-9.729c-6.873 10.653-16.633 19.272-28.177 24.729h10.148l-3.128 26.45h-32.822v-20.045a68.927 68.927 0 0 1-3.125.079c-4.052 0-8.016-.377-11.875-1.061v21.026h-32.822l-3.128-26.45h18.896a68.25 68.25 0 0 1-20.575-15h-.095l-.014-.114c-11.349-12.145-18.315-28.434-18.315-46.328 0-.36.022-.715.027-1.074h-45.138a7.5 7.5 0 0 0-7.319 9.136l28.383 127.012c1.771 7.924 8.678 13.459 16.797 13.459h149.385a7.499 7.499 0 0 0 7.319-5.864l34.042-152.579c.235-1.051 1.031-1.729 2.029-1.729h38.09c4.143 0 7.5-3.357 7.5-7.5s-3.357-7.501-7.499-7.501zm-259.366 40.567h35.128l3.846 32.517h-31.707zm16.529 73.966-5.911-26.45h30.129l3.128 26.45zm11.971 45.64a2.201 2.201 0 0 1-2.159-1.73l-6.46-28.909h25.768l3.624 30.64h-20.773zm63.302 0h-27.424l-3.624-30.64h31.048zm42.424 0h-27.425v-30.64h31.048zm37.65 0h-22.546l3.624-30.64h25.769zm10.199-45.64h-27.347l3.128-26.45h30.129z" fill="#cfcae4"></path><circle cx="256.414" cy="155.548" fill="#4fc123" r="68.927"></circle><path d="M221.98 155.548c0-32.112 21.959-59.094 51.68-66.751a69.05 69.05 0 0 0-17.246-2.176c-38.067 0-68.927 30.86-68.927 68.927s30.859 68.927 68.927 68.927a69.05 69.05 0 0 0 17.246-2.176c-29.721-7.657-51.68-34.639-51.68-66.751z" fill="#47a920"></path><path d="M252.592 187.576a7.477 7.477 0 0 1-5.303-2.196l-29.05-29.05a7.5 7.5 0 0 1 10.606-10.607l23.747 23.747 35.411-35.412a7.5 7.5 0 0 1 10.607 10.607l-40.715 40.715a7.477 7.477 0 0 1-5.303 2.196z" fill="#ffffff"></path><path d="M411 314.5h-45c-4.143 0-7.5-3.357-7.5-7.5s3.357-7.5 7.5-7.5h45c4.143 0 7.5 3.357 7.5 7.5s-3.357 7.5-7.5 7.5zM411 338.5h-45c-4.143 0-7.5-3.357-7.5-7.5s3.357-7.5 7.5-7.5h45c4.143 0 7.5 3.357 7.5 7.5s-3.357 7.5-7.5 7.5zM411 362.5h-45c-4.143 0-7.5-3.357-7.5-7.5s3.357-7.5 7.5-7.5h45c4.143 0 7.5 3.357 7.5 7.5s-3.357 7.5-7.5 7.5z" fill="#cfcae4"></path><path d="M342.474 434.75H169.526c-14.083 0-25.5-11.417-25.5-25.5s11.417-25.5 25.5-25.5h172.948c14.083 0 25.5 11.417 25.5 25.5s-11.417 25.5-25.5 25.5z" fill="#4fc123"></path><path d="M197.175 416.75H184c-4.142 0-7.5-3.357-7.5-7.5s3.358-7.5 7.5-7.5h13.175c3.203-10.423 12.904-18 24.377-18h-52.026c-14.083 0-25.5 11.417-25.5 25.5s11.417 25.5 25.5 25.5h52.026c-11.473 0-21.174-7.577-24.377-18z" fill="#47a920"></path><path d="M328 416.75H184c-4.142 0-7.5-3.357-7.5-7.5s3.358-7.5 7.5-7.5h144c4.143 0 7.5 3.357 7.5 7.5s-3.357 7.5-7.5 7.5z" fill="#ffffff"></path></g></svg>