<svg id="Capa_1" enable-background="new 0 0 512 512" height="512" viewBox="0 0 512 512" width="512" xmlns="http://www.w3.org/2000/svg"><g><g><path d="m512 255.994c0 123.712-100.288 224-224 224-13.732 0-27.176-1.236-40.226-3.602-104.515-18.951-183.774-110.418-183.774-220.398 0-123.712 100.288-224 224-224s224 100.289 224 224z" fill="#9dcffd"/><path d="m460.34 255.994c0 111.979-75.761 200.309-187.793 191.387-98.813-7.869-176.547-90.55-176.547-191.387 0-106.062 85.984-192 192-192 106.039 0 172.34 85.962 172.34 192z" fill="#f0fcff"/><path d="m272.547 64.608c98.813 7.87 176.547 90.55 176.547 191.386s-77.734 183.517-176.547 191.387c111.857 8.907 207.453-79.244 207.453-191.387 0-111.979-95.42-200.308-207.453-191.386z" fill="#d7ecfe"/><g fill="#ffc268"><path d="m343.907 207.705c-1.651-29.001-24.784-51.627-53.812-52.686-31.883-1.162-58.095 24.339-58.095 55.962v-.226c0 8.615 6.621 16.028 15.227 16.434 9.188.433 16.773-6.889 16.773-15.981v.349c0-13.014 10.119-24.097 23.125-24.56 13.654-.485 24.875 10.439 24.875 23.984 0 11.577-8.368 20.915-17.464 23.093-13.229 3.167-22.536 15.026-22.536 28.629v14.304c0 8.837 7.163 16 16 16 8.837 0 16-7.163 16-16v-9.365c0-1.743 1.1-3.291 2.742-3.874 22.678-8.052 38.631-30.304 37.165-56.063z"/><path d="m288 357.007c-8.837 0-16-7.163-16-16 0-8.837 7.163-16 16-16 8.837 0 16 7.163 16 16 0 8.837-7.163 16-16 16z"/></g><g><path d="m181.892 413.62h-52.901c-9.515 0-17.229-7.714-17.229-17.229v-91.391h87.359v91.392c0 9.515-7.714 17.228-17.229 17.228z" fill="#685f67"/><path d="m96 413.62h-54.368c-9.515 0-17.229-7.714-17.229-17.229v-91.391h88.825v91.392c.001 9.515-7.713 17.228-17.228 17.228z" fill="#7a6c79"/><path d="m193.094 480.006h-73.368l-7.834-8.112-7.619 8.112h-97.273c-3.866 0-7-3.134-7-7v-30.786c0-21.64 15.808-39.947 36.997-42.845l5.928-.811 31.044 15.056h76.062l30.964-15.067 6.008.821c.898.123 1.779.317 2.665.451 7.298 1.1 17.166 21.671 17.166 42.394z" fill="#ff7e8e"/><path d="m119.726 479.994v-59.485c0-3.007-1.718-5.612-4.225-6.889h-7.003c-2.507 1.277-4.225 3.882-4.225 6.889v59.485.011h15.453c0-.003 0-.007 0-.011z" fill="#f45175"/><path d="m189.668 399.826c2.21 5.232 3.426 10.977 3.426 16.979v63.2h23.906c3.866 0 7-3.134 7-7v-30.785c0-20.723-14.497-38.389-34.332-42.394z" fill="#f45175"/><path d="m150.031 335.027v70.867c-21.268 20.603-54.794 20.603-76.062 0v-70.867c9.491 8.039 20.841 12.702 33.059 12.702h9.945c12.217 0 23.567-4.663 33.058-12.702z" fill="#ffdacc"/><g><path d="m119.125 347.681v55.121c0 2.023-.864 3.962-2.395 5.282-6.047 5.214-12.941 8.889-20.183 11.029 18.295 5.404 38.808.999 53.484-13.218v-70.867c-8.931 7.564-19.509 12.139-30.906 12.653z" fill="#fcccb9"/></g><g><path d="m54.038 233.915v80.767c0 29.926 23.969 54.186 53.537 54.186h8.849c29.568 0 53.537-24.26 53.537-54.186v-75.205c0-12.236-9.801-22.156-21.89-22.156h-77.638c-9.054 0-16.395 7.429-16.395 16.594z" fill="#ffece4"/><path d="m148.071 217.321h-30.906c12.09 0 21.89 9.92 21.89 22.156v75.205c0 26.1-18.232 47.89-42.509 53.035 3.559.754 7.248 1.151 11.028 1.151h8.849c29.568 0 53.537-24.26 53.537-54.186v-75.205c.002-12.237-9.799-22.156-21.889-22.156z" fill="#ffdacc"/><path d="m154.351 216.521c0 19.603-15.919 35.484-35.522 35.445-7.526-.015-32.1-.034-48.715-.045-8.855-.006-16.034 7.171-16.034 16.026v11.16h-29.676v-41.765c0-34.959 28.001-59.65 62.541-59.65h45.673c12.003 0 21.734 9.849 21.734 21.997v16.832z" fill="#7a6c79"/><path d="m54.038 267.474h-16.654c-9.999 0-18.105 8.204-18.105 18.325v6.432c0 10.121 8.106 18.325 18.105 18.325h16.654z" fill="#fcccb9"/><path d="m162.78 190.44c20.182 0 36.542 16.559 36.542 36.985l-.177 55.308s-29.187-15.254-29.195-15.26h-.15c-9.73-7.471-15.434-23.15-15.434-35.418v-33.086c-.008-4.707 3.761-8.529 8.414-8.529z" fill="#685f67"/><path d="m169.962 267.474h16.654c9.999 0 18.105 8.204 18.105 18.325v6.432c0 10.121-8.106 18.325-18.105 18.325h-16.654z" fill="#fcccb9"/></g><g fill="#f45175"><path d="m111.892 421.346-37.923-32.812-3.207-.661c-10.518-2.167-20.995 2.706-27.792 11.021l13.487 36.677c3.81 10.361 16.53 14.122 25.361 7.497z"/><path d="m111.892 421.346 38.139-32.856 2.991-.616c10.518-2.167 21.21 2.113 28.007 10.427l-13.943 37.279c-3.858 10.315-16.553 14.018-25.352 7.395z"/></g></g><g fill="#9dcffd"><path d="m288 119.721c4.268 0 7.726-3.459 7.726-7.726v-16c0-4.267-3.459-7.726-7.726-7.726-4.268 0-7.726 3.459-7.726 7.726v16c0 4.266 3.459 7.726 7.726 7.726z"/><path d="m288 392.268c-4.268 0-7.726 3.459-7.726 7.726v16c0 4.267 3.459 7.726 7.726 7.726 4.268 0 7.726-3.459 7.726-7.726v-16c.001-4.267-3.458-7.726-7.726-7.726z"/><path d="m395.286 159.634 11.314-11.313c3.018-3.017 3.018-7.909.001-10.927s-7.91-3.018-10.927 0l-11.314 11.313c-3.018 3.017-3.018 7.909-.001 10.927 3.016 3.016 7.909 3.019 10.927 0z"/><path d="m180.326 137.394c-3.017-3.017-7.91-3.017-10.927 0-3.018 3.017-3.018 7.91 0 10.927l11.314 11.313c3.018 3.018 7.909 3.017 10.927 0s3.018-7.91 0-10.927z"/><path d="m395.673 374.595c3.019 3.018 7.909 3.017 10.928 0 3.017-3.017 3.017-7.91 0-10.927l-11.314-11.314c-3.018-3.017-7.91-3.017-10.928 0-3.017 3.017-3.017 7.91 0 10.927z"/><path d="m432 263.721h16c4.268 0 7.726-3.459 7.726-7.726s-3.459-7.726-7.726-7.726h-16c-4.268 0-7.726 3.459-7.726 7.726s3.459 7.726 7.726 7.726z"/></g></g></g></svg>