<svg viewBox="0 0 512 512" xmlns="http://www.w3.org/2000/svg"><g><path d="m51.463 171.717-6.269-12.166c-16.212-33.24-6.317-68.951 26.921-85.163 4.051-1.976 10.35-6.512 10.35-6.512 22.94-6.027 47.253.684 63.875 17.006 0 0 5.668 17.834 9.109 24.889l-23.269 36.204z" fill="#fee97d"></path><path d="m159.596 103.316-23.91 37.21-3.503 5.45-86.679 28.217-6.274-12.166c-1.062-3.393-2.257-1.857-5.779-17.729-5.068-28.68 9.127-58.411 36.613-71.814a66.153 66.153 0 0 1 12.403-4.606C64.66 81.998 55.4 104.2 57.45 126.437c.266 2.882 2.842 4.942 5.723 4.659a45.261 45.261 0 0 1 5.356-.211 3.962 3.962 0 0 0 3.121-1.411c10.807-12.712 26.404-20.325 43.268-20.933a4.161 4.161 0 0 0 3.142-1.586 74.353 74.353 0 0 1 28.282-22.07c5.304 5.189 9.813 11.374 13.254 18.431z" fill="#ffdc6e"></path><path d="M34.13 147.665c.268 1.123.556 2.246.876 3.358a54.698 54.698 0 0 1-.876-3.358z" fill="#ffdc6e"></path><path d="m9.093 174.192 10.067-1.861c11.632 0 23.1-3.698 32.061-11.115a28.845 28.845 0 0 1 18.454-6.64c1.89 0 3.737.182 5.525.529 3.963.769 7.986-1.052 10.169-4.447 7.142-11.105 19.602-18.463 33.787-18.463 1.205 0 2.397.053 3.575.158 3.79.335 7.475-1.366 9.515-4.578 9.788-15.411 27.008-25.639 46.616-25.639 2.92 0 5.785.231 8.581.671 3.49.549 7.052-.77 9.258-3.53 10.11-12.652 23.904-21.803 41.359-21.803 11.8 0 20.131 1.938 31.606 7.093a49.827 49.827 0 0 1 3.509 2.707c2.795 2.344 6.659 3.05 10.056 1.721a61.522 61.522 0 0 1 22.474-4.23c15.773 0 30.164 5.91 41.085 15.635 2.812 2.504 6.84 3.146 10.324 1.718a54.963 54.963 0 0 1 20.9-4.103c19.418 0 36.485 10.036 46.318 25.199 1.941 2.993 5.208 4.863 8.775 4.86h.092c13.857 0 26.074 7.019 33.291 17.695 8.913 13.397 25.087 21.815 41.613 22.44 2.187.083 3.896 1.925 3.896 4.113v26.794l-240.485 21.857L.004 199.116l4.968-20.803a4.121 4.121 0 0 1 4.121-4.121z" fill="#c1e9af"></path><path d="M269.665 84.567c-16.689.556-31.281 8.694-41.026 20.891-2.205 2.761-5.769 4.08-9.261 3.534a54.713 54.713 0 0 0-8.581-.67c-19.604 0-36.829 10.219-46.616 25.631-2.04 3.214-5.728 4.914-9.519 4.584a40.925 40.925 0 0 0-3.575-.165c-14.186 0-26.64 7.366-33.78 18.471-2.184 3.389-6.212 5.213-10.168 4.44a29.63 29.63 0 0 0-5.532-.525 28.873 28.873 0 0 0-18.451 6.634c-8.963 7.417-20.428 11.116-32.059 11.116-9.445 0-17.101 7.656-17.101 17.101v20.175L0 199.112v-26.785a4.121 4.121 0 0 1 4.121-4.121h12.98c11.631 0 23.097-3.698 32.059-11.116a28.871 28.871 0 0 1 18.451-6.634c1.896 0 3.74.185 5.532.525 3.956.773 7.984-1.051 10.168-4.44 7.139-11.105 19.594-18.471 33.78-18.471 1.205 0 2.4.051 3.575.165 3.791.33 7.479-1.37 9.519-4.584 9.787-15.411 27.011-25.631 46.616-25.631 2.926 0 5.79.227 8.581.67 3.492.546 7.057-.773 9.261-3.534 10.106-12.651 25.662-20.768 43.113-20.768 11.991 0 22.864 3.679 31.909 10.179z" fill="#ade194"></path><path d="m9.432 205.895 24.564-6.779h478.002l.002 30.098-240.487 14.785L0 229.214zM426.557 415.45l-36.551 30.854H188.09l-32.057-30.854 127.984-19.614z" fill="#b56e5a"></path><path d="M12.922 229.214v121.198l118.807 65.038h294.828L512 343.338V306.54l-4.883-18.328 4.883-4.264v-54.734z" fill="#c38678"></path><path d="M33.996 199.112v30.102l-19.328 14.785L0 229.214v-30.102z" fill="#a8604f"></path><path d="M33.996 229.214v132.739L0 343.338V306.54l8.268-19.782L0 283.948v-54.734z" fill="#b56e5a"></path><g fill="#b56e5a"><path d="m356.031 229.214 61.707 186.236h-16.276l-61.708-186.236 8.255-5.867zM512 283.948v22.592l-72.473-77.326 9.707-8.241 11.463 8.241zM155.969 229.214l8.499-5.867 7.778 5.867-58.452 176.419-13.774-7.541zM122.169 229.214l-82.507 135.84-13.567-7.428 77.994-128.412 9.476-7.656zM51.303 229.214 9.432 273.885v22.591l63.041-67.262-8.938-11.102zM294.405 229.214l20.573 186.236-7.982 7.728-7.564-7.728-20.572-186.236 8.357-5.867zM217.595 229.214l6.502-7.656 9.043 7.656-20.562 186.236-7.97 6.273-7.576-6.273zM407.9 229.214l81.117 133.522-11.961 10.085-87.235-143.607 9.673-7.656z" fill="#b56e5a"></path></g><path d="M33.996 247.675v22.592L0 306.54v-22.592z" fill="#a8604f"></path><path d="M122.832 446.306h64.773c11.033 0 20.409-9.028 20.252-20.06-.129-9.079-6.377-16.676-14.805-18.856a3.004 3.004 0 0 1-2.185-2.216c-2.581-10.939-12.405-19.081-24.133-19.081-4.028 0-7.827.966-11.19 2.67l-9.838 6.053z" fill="#9ddd7f"></path><path d="M511.998 343.341s-8.165-17.46-34.364-17.46c-10.29 0-19.519 4.528-25.816 11.695-.6.683-1.588.843-2.413.46a46.133 46.133 0 0 0-19.48-4.294c-22.639 0-41.484 16.23-45.544 37.688a2.09 2.09 0 0 1-1.655 1.666c-16.899 3.377-29.64 18.271-29.683 36.153-.049 20.384 17.345 37.056 37.729 37.056h64.907l46.203-8.875a4.121 4.121 0 0 0 4.121-4.121l5.996-53.53v-36.438zM.006 343.341s7.945-17.46 34.364-17.46c10.044 0 19.076 4.313 25.359 11.184a2.976 2.976 0 0 0 3.412.723 46.133 46.133 0 0 1 18.938-4.046c22.46 0 41.185 15.974 45.444 37.18a2.948 2.948 0 0 0 2.276 2.283c16.639 3.576 29.119 18.347 29.161 36.045.049 20.384-17.345 37.056-37.729 37.056H64.78l-55.346-6.257a4.121 4.121 0 0 1-4.121-4.121L.006 376.417v-33.076z" fill="#ade194"></path><g fill="#c1e9af"><path d="M85.033 426.247c.155 11.033-9.22 20.058-20.253 20.058H4.123a4.121 4.121 0 0 1-4.121-4.121v-65.767a26.902 26.902 0 0 1 13.557-3.647c9.507 0 17.863 4.906 22.671 12.33.696 1.075 1.962 1.584 3.218 1.333 11.538-2.303 26.095 6.278 28.661 18.654a3.034 3.034 0 0 0 2.21 2.329c8.38 2.204 14.58 9.782 14.714 18.831zM455.679 446.306c-14.423 0-25.957-12.366-24.579-27.074 1.056-11.268 9.897-20.494 21.105-22.064a24.754 24.754 0 0 1 7.472.083 2.055 2.055 0 0 0 2.341-1.517c3.383-13.398 15.508-23.316 29.957-23.316a30.783 30.783 0 0 1 20.024 7.364v62.405a4.121 4.121 0 0 1-4.121 4.121h-52.199z" fill="#c1e9af"></path></g></g></svg>