<svg viewBox="0 0 512.092 512.092" xmlns="http://www.w3.org/2000/svg"><g><path d="M396.784 446.553 266.011 115.886a10.667 10.667 0 0 0-8.661-6.656L54.683 85.38c-5.752-.808-11.07 3.2-11.878 8.952-.018.13-.034.261-.048.392L.091 436.057c-.763 5.841 3.353 11.196 9.194 11.959.085.011.171.021.256.03l373.333 42.667h1.216a10.667 10.667 0 0 0 10.667-9.664l2.773-29.589a10.635 10.635 0 0 0-.746-4.907z" fill="#ffa000"></path><path d="M469.424 94.724c-.684-5.851-5.983-10.04-11.834-9.355l-.092.011-91.733 10.795-270.933 31.871c-5.801.659-9.994 5.86-9.408 11.669l32 341.333a10.667 10.667 0 0 0 10.667 9.664h1.216l373.333-42.667c5.853-.671 10.053-5.96 9.382-11.813a6.114 6.114 0 0 0-.016-.134L469.424 94.724z" fill="#ffe082"></path><path d="M309.424 170.713a10.667 10.667 0 0 1-7.552-18.219l53.333-53.333c4.093-4.237 10.845-4.355 15.083-.262 4.237 4.093 4.354 10.845.262 15.083-.086.089-.173.176-.262.262l-53.333 53.333a10.664 10.664 0 0 1-7.531 3.136z" fill="#455a64"></path><circle cx="394.758" cy="74.713" fill="#f44336" r="53.333"></circle></g></svg>