<svg viewBox="0 0 512 512" xmlns="http://www.w3.org/2000/svg"><g><path d="M45.475 421.05C20.4 421.05 0 441.45 0 466.525S20.4 512 45.475 512s45.475-20.399 45.475-45.475-20.4-45.475-45.475-45.475zM273.531 0C218.446 0 171.432 34.322 152.93 82.623c-13.327-5.739-28.025-8.928-43.474-8.928C49.005 73.695 0 122.409 0 182.5c0 50.155 34.141 92.376 80.58 104.971-4.942 12.398-7.661 25.915-7.661 40.062 0 60.091 49.005 108.805 109.455 108.805 38.054 0 71.567-19.309 91.18-48.603l10-26.685V30.95l-10-30.95h-.023z" fill="#dceeff"></path><path d="M512 218.728c0-60.092-49.005-108.805-109.455-108.805-.44 0-.876.011-1.315.016C392.292 47.791 338.542.012 273.554 0v387.735c19.606 29.294 53.114 48.603 91.164 48.603 60.433 0 109.424-48.7 109.424-108.775 0-8.341-.948-16.462-2.736-24.265C496.167 283.35 512 252.879 512 218.728z" fill="#c7e3ff"></path><circle cx="153.504" cy="226" fill="#7694ff" r="30"></circle><path d="M243.604 226c0 16.552 13.405 29.972 29.95 29.999l10-29.999-10-29.999c-16.546.027-29.95 13.447-29.95 29.999z" fill="#7694ff"></path><path d="m273.604 196-.05.001v59.997l.05.001c16.569 0 30-13.432 30-30S290.172 196 273.604 196z" fill="#6765ff"></path><circle cx="393.604" cy="226" fill="#6765ff" r="30"></circle></g></svg>