<svg viewBox="0 0 512 512" xmlns="http://www.w3.org/2000/svg"><g><path d="M187.509 179.447a7.485 7.485 0 0 0-7.476-7.121h-34.08a7.485 7.485 0 0 0-7.476 7.121l-7.607 156.297a7.485 7.485 0 0 0 7.476 7.848h49.293a7.48 7.48 0 0 0 7.476-7.848l-7.606-156.297z" fill="#c6c5ca"></path><path d="M168.798 343.593h18.841a7.48 7.48 0 0 0 7.476-7.848l-7.607-156.297a7.485 7.485 0 0 0-7.476-7.121h-19.569l8.335 171.266z" fill="#b2b1b5"></path><path d="M270.646 179.447a7.485 7.485 0 0 0-7.476-7.121h-34.08a7.485 7.485 0 0 0-7.476 7.121l-7.607 156.297a7.485 7.485 0 0 0 7.476 7.848h49.293a7.48 7.48 0 0 0 7.476-7.848l-7.606-156.297z" fill="#c6c5ca"></path><path d="M251.935 343.593h18.841a7.48 7.48 0 0 0 7.476-7.848l-7.607-156.297a7.485 7.485 0 0 0-7.476-7.121H243.6l8.335 171.266z" fill="#b2b1b5"></path><path d="M104.372 179.447a7.485 7.485 0 0 0-7.476-7.121h-34.08a7.485 7.485 0 0 0-7.476 7.121l-7.607 156.297a7.485 7.485 0 0 0 7.476 7.848h49.293a7.48 7.48 0 0 0 7.476-7.848l-7.606-156.297z" fill="#c6c5ca"></path><path d="M85.662 343.593h18.841a7.48 7.48 0 0 0 7.476-7.848l-7.607-156.297a7.485 7.485 0 0 0-7.476-7.121H77.327l8.335 171.266z" fill="#b2b1b5"></path><path d="M353.782 179.447a7.485 7.485 0 0 0-7.476-7.121h-34.08a7.485 7.485 0 0 0-7.476 7.121l-7.607 156.297a7.485 7.485 0 0 0 7.476 7.848h49.293a7.48 7.48 0 0 0 7.476-7.848l-7.606-156.297z" fill="#c6c5ca"></path><path d="M335.071 343.593h18.841a7.48 7.48 0 0 0 7.476-7.848l-7.606-156.297a7.485 7.485 0 0 0-7.476-7.121h-19.569l8.334 171.266z" fill="#b2b1b5"></path><path d="M436.918 179.447a7.485 7.485 0 0 0-7.476-7.121h-34.08a7.485 7.485 0 0 0-7.476 7.121l-7.607 156.297a7.485 7.485 0 0 0 7.476 7.848h49.293a7.48 7.48 0 0 0 7.476-7.848l-7.606-156.297z" fill="#c6c5ca"></path><path d="M418.208 343.593h18.841a7.48 7.48 0 0 0 7.476-7.848l-7.607-156.297a7.485 7.485 0 0 0-7.476-7.121h-19.569l8.335 171.266z" fill="#b2b1b5"></path><path d="M284.056 331.865a7.482 7.482 0 0 0-6.165-3.241H38.626a7.485 7.485 0 0 0-7.485 7.485v51.071a7.485 7.485 0 0 0 7.485 7.485h231.929a7.486 7.486 0 0 0 7.463-8.069 111.293 111.293 0 0 1-.339-8.658c0-13.482 2.424-26.656 7.203-39.156a7.49 7.49 0 0 0-.826-6.917z" fill="#e0e0e2"></path><path d="M293.309 434.391c-8.816-14.653-13.961-30.734-15.291-47.795a7.484 7.484 0 0 0-7.462-6.902H7.485A7.485 7.485 0 0 0 0 387.179v51.071a7.485 7.485 0 0 0 7.485 7.485h279.411a7.486 7.486 0 0 0 6.413-11.344z" fill="#c6c5ca"></path><path d="M293.309 434.391c-8.816-14.653-13.961-30.734-15.291-47.795a7.484 7.484 0 0 0-7.462-6.902H7.485A7.485 7.485 0 0 0 0 387.179v51.071a7.485 7.485 0 0 0 7.485 7.485h279.411a7.486 7.486 0 0 0 6.413-11.344zM456.513 121.832 249.01 35.307a7.484 7.484 0 0 0-5.762 0L35.746 121.832a7.487 7.487 0 0 0-4.459 8.377 7.487 7.487 0 0 0 7.34 6.016h415.006a7.484 7.484 0 0 0 2.88-14.393z" fill="#c6c5ca"></path><path d="m456.513 121.832-202.9-84.605V16.904a7.485 7.485 0 1 0-14.97 0v20.323L222 44.167l220.773 92.058h10.858a7.484 7.484 0 0 0 2.882-14.393z" fill="#b2b1b5"></path><path d="M453.633 121.256H38.626a7.485 7.485 0 0 0-7.485 7.485v51.071a7.485 7.485 0 0 0 7.485 7.485h415.006a7.485 7.485 0 0 0 7.485-7.485v-51.071a7.484 7.484 0 0 0-7.484-7.485z" fill="#e0e0e2"></path><path d="M453.633 121.256h-28.808v66.04h28.808a7.485 7.485 0 0 0 7.485-7.485v-51.07a7.485 7.485 0 0 0-7.485-7.485zM277.891 328.623h-27.315c-5.571 15.405-8.616 32.01-8.616 49.314 0 5.657.336 11.236.968 16.727h27.628a7.486 7.486 0 0 0 7.463-8.069 111.293 111.293 0 0 1-.339-8.658c0-13.482 2.424-26.656 7.203-39.156a7.488 7.488 0 0 0-6.992-10.158z" fill="#c6c5ca"></path><path d="M278.018 386.596a7.484 7.484 0 0 0-7.462-6.902h-28.573c.284 23.817 6.321 46.271 16.786 66.041h28.127a7.486 7.486 0 0 0 6.414-11.343c-8.817-14.653-13.961-30.733-15.292-47.796z" fill="#b2b1b5"></path><path d="M387.354 253.292c-68.729 0-124.645 55.915-124.645 124.645s55.915 124.645 124.645 124.645S512 446.667 512 377.937c0-68.729-55.915-124.645-124.646-124.645z" fill="#ffd039"></path><path d="M387.354 253.292c-3.692 0-7.345.171-10.956.487 63.617 5.567 113.689 59.121 113.689 124.158s-50.072 118.591-113.689 124.158c3.612.316 7.264.487 10.956.487 68.73 0 124.646-55.915 124.646-124.645 0-68.729-55.915-124.645-124.646-124.645z" fill="#ffae47"></path><circle cx="387.35" cy="377.94" fill="#f99608" r="84.09"></circle><path d="M411.861 380.19c-5.089-5.637-12.77-8.927-22.828-9.78-10.08-.855-14.208-5.564-13.386-15.27.678-7.982 6.574-12.282 15.755-11.503 7.674.651 10.517 10.895 10.532 10.951 1.02 4.006 5.097 6.429 9.1 5.407a7.485 7.485 0 0 0 5.408-9.1c-.133-.52-1.387-5.222-4.621-10.132-4.306-6.536-10.146-10.557-16.981-11.751v-9.034a7.485 7.485 0 1 0-14.97 0v9.951c-10.755 3.213-18.123 11.971-19.139 23.946-1.536 18.128 8.571 29.885 27.037 31.451 6.066.514 10.556 2.207 12.983 4.895 1.872 2.075 2.668 4.937 2.365 8.508-.329 3.896-1.919 7.521-4.359 9.944-2.806 2.786-6.696 3.988-11.565 3.577-10.749-.911-16.247-11.794-16.391-12.083a7.485 7.485 0 0 0-13.53 6.404c.323.687 7.294 15.141 22.599 19.484v9.84a7.485 7.485 0 1 0 14.97 0v-9.113c6.77-1.238 11.467-4.509 14.466-7.486 4.994-4.959 8.093-11.814 8.728-19.301.657-7.756-1.478-14.604-6.173-19.805z" fill="#ffd039"></path></g></svg>