<svg viewBox="0 0 512 512" xmlns="http://www.w3.org/2000/svg"><g><path d="M118.088 498.299h-4.908c-41.474 0-66.233-22.324-66.233-59.717v-72.677h15v72.677c0 38.907 32.1 44.717 51.233 44.717h7.5z" fill="#687daa"></path><path d="M94.167 393.21c.155 1.638-1.545 2.802-3.008 2.04-5.882-3.091-18.739-9.601-28.423-12.681-10.675-11.413-9.834-34.671-.762-46.987 10.93 11.939 30.143 35.747 32.193 57.628z" fill="#fd7a6e"></path><path d="M490.148 467.362c-8.922 8.345-23.014 7.685-31.647-.958l-17.523-17.513c8.777 8.777 8.777 23.004 0 31.781-8.777 8.788-23.004 8.788-31.781 0l-21.201-21.191c9.343 9.262 8.661 24.871-1.617 33.244-33.748-37.98-35.034-117.029-1.803-155.537a77.372 77.372 0 0 1 25.054 16.771l81.075 81.075c8.962 8.964 8.777 23.603-.557 32.328z" fill="#e8ddf5"></path><path d="M386.378 492.725c-8.942 7.366-22.293 6.428-30.586-1.875l-9.055-9.055-71.515-99.217s11.744-14.67 27.197-30.122c22.324-21.788 54.857-26.61 82.157-15.267-27.239 46.08-25.312 110.589 1.802 155.536z" fill="#d6c4ea"></path><circle cx="381.528" cy="233.479" fill="#ffcbbe" r="37.981"></circle><circle cx="68.485" cy="233.479" fill="#ffcbbe" r="37.981"></circle><path d="M221.982 380.899v117.399h-32.039c-30.286-23.602-32.306-84.972-5.481-117.399z" fill="#fd7a6e"></path><path d="M189.943 498.299h-71.855c-13.001 0-22.777-11.847-20.325-24.621 7.922-41.197 35.366-75.451 72.319-92.778h14.381c-19.409 35.643-16.555 84.587 5.48 117.399z" fill="#f85647"></path><path d="M279.934 380.902c36.956 17.321 64.394 51.577 72.317 92.778 2.455 12.766-7.323 24.615-20.323 24.615H221.979V380.902z" fill="#5ad6ff"></path><path d="M382.206 233.583c0 76.151-54.146 139.651-126.043 154.105-80.343-7.95-132.621-77.954-132.621-154.105 0-76.161 58.353-145.892 132.621-154.105 71.897 14.454 126.043 77.944 126.043 154.105z" fill="#ffddcf"></path><path d="M256.163 387.688a157.503 157.503 0 0 1-31.153 3.091c-86.824 0-157.196-70.382-157.196-157.195 0-86.824 70.372-157.196 157.196-157.196 10.662 0 21.088 1.061 31.153 3.091-71.896 14.442-126.053 77.943-126.053 154.104 0 76.151 54.157 139.662 126.053 154.105z" fill="#ffcbbe"></path><path d="M409.392 207.664c-44.978 0-155.156-44.092-184.382-92.191-14.556 23.952-48.851 46.904-85.33 63.913-3.258-63.608 59.122-139.077 133.78-149.675 78.325 21.272 135.932 92.891 135.932 177.953z" fill="#687daa"></path><path d="M273.46 29.71c-69.475 18.873-122.643 77.346-133.78 149.675-36.788 17.163-75.811 28.278-99.052 28.278 0-101.833 82.548-184.382 184.382-184.382 16.761.001 33.007 2.236 48.45 6.429z" fill="#5972a5"></path><path d="M180.867 8.107c-17.194 19.872-24.632 47.584-17.441 74.915 2.668 10.147-10.086 22.458-29.082 28.783-25.45-20.229-27.877-78.316 4.172-107.252 12.527-4.45 26.197-5.862 40.002-3.235 3.163.598 4.451 4.368 2.349 6.789z" fill="#fd7a6e"></path><path d="M134.344 111.805a88.893 88.893 0 0 1-4.935 1.463c-21.685 5.687-41.609 1.381-44.493-9.622-12.558-42.917 15.102-85.412 53.6-99.093-22.695 30.524-23.076 75.162-4.172 107.252z" fill="#f85647"></path><ellipse cx="306.964" cy="269.03" fill="#ffa1ac" rx="30.241" ry="24.082"></ellipse><path d="M289.34 253.348a7.499 7.499 0 0 1-7.5-7.5v-12.362c0-4.143 3.357-7.5 7.5-7.5s7.5 3.357 7.5 7.5v12.362a7.5 7.5 0 0 1-7.5 7.5z" fill="#495560"></path><ellipse cx="143.049" cy="269.03" fill="#ffa1ac" rx="30.241" ry="24.082"></ellipse><path d="m174.794 221.85-24.791-6.643c-4.001-1.075-8.113 1.302-9.186 5.303s1.302 8.114 5.303 9.186l7.531 2.018a7.458 7.458 0 0 0-.478 2.614v10.679c0 4.143 3.357 7.5 7.5 7.5s7.5-3.357 7.5-7.5v-9.401l2.737.733c3.893 1.077 8.128-1.269 9.186-5.303a7.498 7.498 0 0 0-5.302-9.186zM225.007 260.707a29.993 29.993 0 0 1-22.615-10.3 7.5 7.5 0 0 1 11.309-9.855c2.854 3.276 6.976 5.155 11.307 5.155s8.452-1.879 11.307-5.155a7.501 7.501 0 0 1 11.309 9.855 30 30 0 0 1-22.617 10.3z" fill="#495560"></path><path d="M62.736 382.568c-3.245-1.02-6.14-1.669-8.293-1.669-8.571 0-28.855 10.219-36.705 14.35-1.463.762-3.173-.402-3.018-2.04 2.4-25.456 28.021-53.538 36.798-62.47a4.11 4.11 0 0 1 5.862 0 187.292 187.292 0 0 1 4.595 4.842c-6.635 14.505-6.11 32.812.761 46.987z" fill="#f85647"></path><path d="M225.007 512c-4.143 0-7.5-3.349-7.5-7.481V7.481c0-4.132 3.357-7.481 7.5-7.481s7.5 3.349 7.5 7.481v497.038c0 4.132-3.358 7.481-7.5 7.481z" fill="#fab658"></path></g></svg>