<svg viewBox="0 0 492 492" xmlns="http://www.w3.org/2000/svg"><g><path d="M341.58 430.87H150.94c-5.94 0-11.31-2.41-15.21-6.3-3.89-3.89-6.3-9.27-6.3-15.21V84.11c0-5.94 2.41-11.31 6.3-15.21 3.89-3.89 9.27-6.3 15.21-6.3h190.65c5.94 0 11.31 2.41 15.21 6.3 3.89 3.89 6.3 9.27 6.3 15.21v325.25c0 5.94-2.41 11.31-6.3 15.21-3.9 3.89-9.28 6.3-15.22 6.3z" fill="#be694f"></path><path d="M341.58 430.87H150.94c-5.94 0-11.31-2.41-15.21-6.3-3.89-3.89-6.3-9.27-6.3-15.21v-19.22h233.65v19.22c0 5.94-2.41 11.31-6.3 15.21-3.88 3.89-9.26 6.3-15.2 6.3zM129.43 103.34V84.11c0-5.94 2.41-11.31 6.3-15.21 3.89-3.89 9.27-6.3 15.21-6.3h190.65c5.94 0 11.31 2.41 15.21 6.3 3.89 3.89 6.3 9.27 6.3 15.21v19.22H129.43z" fill="#934d36"></path><path d="M280.66 134.21c8.8 8.8 14.25 20.96 14.25 34.4 0 13.43-5.45 25.59-14.25 34.4-8.8 8.8-20.96 14.25-34.4 14.25s-25.59-5.45-34.4-14.25-14.25-20.96-14.25-34.4c0-13.43 5.45-25.59 14.25-34.4s20.96-14.25 34.4-14.25 25.59 5.45 34.4 14.25zM293.08 260.48c11.98 11.98 19.39 28.53 19.39 46.82 0 18.28-7.41 34.83-19.39 46.82-11.98 11.98-28.53 19.39-46.82 19.39-18.28 0-34.83-7.41-46.82-19.39-11.98-11.98-19.39-28.53-19.39-46.82 0-18.28 7.41-34.83 19.39-46.82 11.98-11.98 28.53-19.39 46.82-19.39 18.28 0 34.83 7.41 46.82 19.39z" fill="#5e6b75"></path><g fill="#5c9cee"><path d="M69.15 181.05c2.29-2.29 2.29-6 0-8.29s-6-2.29-8.29 0l-.01.01c-.11.11-.22.23-.33.35-20.17 20.36-30.26 46.99-30.26 73.62 0 26.79 10.2 53.57 30.59 73.97l.01.01c2.29 2.29 6 2.29 8.29 0s2.29-6 0-8.29l-.01-.01c-18.1-18.1-27.15-41.89-27.15-65.67 0-23.67 8.95-47.34 26.86-65.41.1-.09.2-.18.3-.29z" fill="#5c9cee"></path><path d="M90.63 202.54c2.29-2.29 2.29-6 0-8.29s-6-2.29-8.29 0l-.01.01c-.11.11-.22.23-.33.35-14.25 14.43-21.38 33.29-21.38 52.13 0 19 7.24 38.01 21.71 52.48l.01.01c2.29 2.29 6 2.29 8.29 0s2.29-6 0-8.29l-.01-.01c-12.18-12.18-18.27-28.18-18.27-44.19 0-15.89 5.99-31.77 17.98-43.92.1-.09.2-.18.3-.28z" fill="#5c9cee"></path><path d="M112.13 224.03c2.29-2.29 2.29-6 0-8.29s-6-2.29-8.29 0c-8.55 8.55-12.82 19.78-12.82 31 0 11.23 4.27 22.46 12.82 31 2.29 2.29 6 2.29 8.29 0s2.29-6 0-8.29c-6.26-6.26-9.39-14.48-9.39-22.71s3.13-16.45 9.39-22.71zM431.66 172.76c-2.29-2.29-6-2.29-8.29 0s-2.29 6 0 8.29l.01.01c.1.1.19.19.29.27 17.91 18.07 26.86 41.74 26.86 65.41 0 23.79-9.05 47.57-27.15 65.67l-.01.01c-2.29 2.29-2.29 6 0 8.29s6 2.29 8.29 0l.01-.01c20.39-20.39 30.59-47.18 30.59-73.97 0-26.63-10.09-53.26-30.26-73.62-.11-.11-.22-.23-.34-.35z" fill="#5c9cee"></path><path d="M410.18 194.24c-2.29-2.29-6-2.29-8.29 0s-2.29 6 0 8.29l.01.01c.1.1.19.19.29.27 11.98 12.15 17.98 28.03 17.98 43.92 0 16-6.09 32.01-18.27 44.19l-.01.01c-2.29 2.29-2.29 6 0 8.29s6 2.29 8.29 0l.01-.01c14.47-14.47 21.71-33.48 21.71-52.48 0-18.85-7.13-37.7-21.38-52.13-.11-.12-.22-.23-.34-.36z" fill="#5c9cee"></path><path d="M388.69 215.74c-2.29-2.29-6-2.29-8.29 0s-2.29 6 0 8.29c6.26 6.26 9.39 14.48 9.39 22.71s-3.13 16.45-9.39 22.71c-2.29 2.29-2.29 6 0 8.29s6 2.29 8.29 0c8.55-8.55 12.82-19.78 12.82-31 0-11.23-4.28-22.46-12.82-31z" fill="#5c9cee"></path></g><path d="M270.58 144.29c6.22 6.22 10.08 14.82 10.08 24.32s-3.85 18.1-10.08 24.32c-6.22 6.22-14.82 10.08-24.32 10.08s-18.1-3.85-24.32-10.08c-6.22-6.22-10.08-14.82-10.08-24.32s3.85-18.1 10.08-24.32c6.22-6.22 14.82-10.08 24.32-10.08s18.1 3.85 24.32 10.08zM279.36 274.2c8.47 8.47 13.71 20.18 13.71 33.1 0 12.93-5.24 24.63-13.71 33.1s-20.18 13.71-33.1 13.71c-12.93 0-24.63-5.24-33.1-13.71s-13.71-20.18-13.71-33.1c0-12.93 5.24-24.63 13.71-33.1s20.18-13.71 33.1-13.71c12.93-.01 24.63 5.23 33.1 13.71z" fill="#4d5961"></path><path d="M263.05 290.5c4.3 4.3 6.96 10.24 6.96 16.79 0 6.56-2.66 12.5-6.96 16.79-4.3 4.3-10.24 6.96-16.79 6.96-6.56 0-12.5-2.66-16.79-6.96-4.3-4.3-6.96-10.24-6.96-16.79 0-6.56 2.66-12.5 6.96-16.79 4.3-4.3 10.24-6.96 16.79-6.96 6.56.01 12.5 2.67 16.79 6.96z" fill="#efe7e4"></path><path clip-rule="evenodd" d="M246.26 331.05c6.56 0 12.5-2.66 16.79-6.96.3-.29.58-.6.86-.91-3.53 2.09-7.65 3.28-12.06 3.28-6.56 0-12.5-2.66-16.79-6.96-4.3-4.3-6.96-10.24-6.96-16.79 0-6.11 2.31-11.68 6.09-15.89a24.14 24.14 0 0 0-4.74 3.67c-4.3 4.3-6.96 10.24-6.96 16.79 0 6.56 2.66 12.5 6.96 16.79 4.31 4.32 10.25 6.98 16.81 6.98z" fill="#dcd5d2" fill-rule="evenodd"></path><path clip-rule="evenodd" d="M223.85 283.61c8.47-8.47 20.18-13.71 33.1-13.71 9.29 0 17.95 2.71 25.23 7.37-.89-1.07-1.83-2.1-2.82-3.08-8.47-8.47-20.18-13.71-33.1-13.71-12.93 0-24.63 5.24-33.1 13.71s-13.71 20.18-13.71 33.1c0 12.93 5.24 24.63 13.71 33.1 2.38 2.38 5.02 4.51 7.87 6.34a46.633 46.633 0 0 1-10.89-30.02c0-12.92 5.24-24.63 13.71-33.1z" fill="#435059" fill-rule="evenodd"></path><path d="M257.45 157.41c2.87 2.86 4.64 6.82 4.64 11.19s-1.77 8.33-4.64 11.19c-2.86 2.87-6.82 4.64-11.19 4.64s-8.33-1.77-11.19-4.64c-2.87-2.86-4.64-6.82-4.64-11.19s1.77-8.33 4.64-11.19c2.86-2.87 6.82-4.64 11.19-4.64 4.37.01 8.33 1.78 11.19 4.64z" fill="#efe7e4"></path><path clip-rule="evenodd" d="M235.07 179.8c2.86 2.87 6.82 4.64 11.19 4.64s8.33-1.77 11.19-4.64a15.94 15.94 0 0 0 2.72-3.64 15.764 15.764 0 0 1-10.61 4.08c-4.37 0-8.33-1.77-11.2-4.64s-4.64-6.82-4.64-11.2c0-2.73.69-5.31 1.91-7.55-.2.18-.39.37-.58.56a15.747 15.747 0 0 0-4.64 11.19c.02 4.38 1.79 8.34 4.66 11.2z" fill="#dcd5d2" fill-rule="evenodd"></path><path clip-rule="evenodd" d="M220.89 174.51c0-9.5 3.85-18.1 10.08-24.32 6.22-6.22 14.82-10.08 24.32-10.08 5.01 0 9.77 1.07 14.06 3-6.1-5.53-14.2-8.9-23.09-8.9-9.5 0-18.1 3.85-24.32 10.07s-10.08 14.82-10.08 24.32 3.85 18.1 10.08 24.32c2.94 2.94 6.41 5.35 10.26 7.08-.42-.38-.83-.77-1.23-1.17-6.23-6.22-10.08-14.82-10.08-24.32z" fill="#4a555c" fill-rule="evenodd"></path></g></svg>