<svg viewBox="0 0 512 512" xmlns="http://www.w3.org/2000/svg"><g><path d="M256 502c-54.391 0-105.636-9.581-144.294-26.977C71.27 456.827 49 431.958 49 405s22.27-51.827 62.706-70.023C150.364 317.581 201.609 308 256 308s105.636 9.581 144.294 26.977C440.73 353.173 463 378.042 463 405s-22.27 51.827-62.706 70.023C361.636 492.419 310.391 502 256 502zm0-180c-52.453 0-101.657 9.143-138.549 25.744C82.847 363.316 63 384.185 63 405s19.847 41.684 54.451 57.256C154.343 478.857 203.547 488 256 488s101.657-9.143 138.549-25.744C429.153 446.684 449 425.815 449 405s-19.847-41.684-54.451-57.256C357.657 331.143 308.453 322 256 322z" fill="#6e83b7"></path><path d="M256 466c-40.896 0-79.446-6.091-108.553-17.151C116.206 436.977 99 420.339 99 402s17.206-34.977 48.447-46.849C176.554 344.091 215.104 338 256 338s79.446 6.091 108.553 17.151C395.794 367.023 413 383.661 413 402s-17.206 34.977-48.447 46.849C335.446 459.909 296.896 466 256 466zm0-114c-84.272 0-143 26.351-143 50s58.728 50 143 50 143-26.351 143-50-58.728-50-143-50z" fill="#6e83b7"></path><ellipse cx="256" cy="402" fill="#6e83b7" rx="87" ry="31"></ellipse><g fill="#ffe352"><circle cx="256" cy="57" fill="#ffe352" r="47"></circle><path d="M300 114h-88c-19.882 0-36 16.118-36 36v106c0 9.941 8.059 18 18 18s18-8.059 18-18v132c0 12.15 9.85 22 22 22s22-9.85 22-22c0 12.15 9.85 22 22 22s22-9.85 22-22V256c0 9.941 8.059 18 18 18s18-8.059 18-18V150c0-19.882-16.118-36-36-36z" fill="#ffe352"></path></g></g></svg>