<svg viewBox="0 0 512.004 512.004" xmlns="http://www.w3.org/2000/svg"><g><path d="M106 362.002H46c-8.284 0-15 6.716-15 15v110c0 8.284 6.716 15 15 15h60c8.284 0 15-6.716 15-15v-110c0-8.284-6.716-15-15-15zM226 326.002h-60c-8.284 0-15 6.716-15 15v146c0 8.284 6.716 15 15 15h60c8.284 0 15-6.716 15-15v-146c0-8.284-6.716-15-15-15z" fill="#4bc0ff"></path><path d="M346 271.002h-60c-8.284 0-15 6.716-15 15v201c0 8.284 6.716 15 15 15h60c8.284 0 15-6.716 15-15v-201c0-8.284-6.716-15-15-15zM466 171.002h-60c-8.284 0-15 6.716-15 15v301c0 8.284 6.716 15 15 15h60c8.284 0 15-6.716 15-15v-301c0-8.284-6.716-15-15-15z" fill="#0592fd"></path><path d="m511.489 102.79-24.563-91.67A15.001 15.001 0 0 0 468.555.513l-91.67 24.563c-8.003 2.144-12.751 10.369-10.607 18.371 2.145 8.002 10.372 12.752 18.371 10.606l59.055-15.824c-34.324 59.647-91.052 118.394-159.588 164.513C198.29 260.498 102.715 292.306 15 292.306c-8.284 0-15 6.716-15 15s6.716 15 15 15c93.618 0 195.141-33.622 285.866-94.673 71.056-47.815 130.286-108.898 167.078-171.445l14.567 54.367c1.796 6.702 7.856 11.122 14.479 11.122a15.04 15.04 0 0 0 3.892-.515c8.002-2.145 12.751-10.37 10.607-18.372z" fill="#a5d02a"></path><path d="m511.489 102.79-24.563-91.67A15.001 15.001 0 0 0 468.555.513l-91.67 24.563c-8.003 2.144-12.751 10.369-10.607 18.371 2.145 8.002 10.372 12.752 18.371 10.606l59.055-15.824c-34.324 59.647-91.052 118.394-159.588 164.513a588.383 588.383 0 0 1-28.117 17.769v34.593a613.231 613.231 0 0 0 44.866-27.472c71.056-47.815 130.286-108.898 167.078-171.445l14.567 54.367c1.796 6.702 7.856 11.122 14.479 11.122a15.04 15.04 0 0 0 3.892-.515c8.003-2.144 12.752-10.369 10.608-18.371z" fill="#90bc02"></path><path d="M497 512.002H15c-8.284 0-15-6.716-15-15s6.716-15 15-15h482c8.284 0 15 6.716 15 15s-6.716 15-15 15z" fill="#466288"></path><path d="M497 482.002H256v30h241c8.284 0 15-6.716 15-15s-6.716-15-15-15z" fill="#354a67"></path></g></svg>