<svg viewBox="0 0 504.494 504.494" xmlns="http://www.w3.org/2000/svg"><g><path d="m379.514 302.052-85.639-128.168H210.62l-85.639 128.168a134.893 134.893 0 0 0-22.733 74.942c94.427 47.214 205.572 47.214 299.999 0 0-26.679-7.911-52.759-22.733-74.942z" fill="#ffcb63"></path><path d="M214.749 284.994v196.592l-24.87 8.29a7.5 7.5 0 0 0 4.743 14.231l29.998-10a7.5 7.5 0 0 0 5.128-7.115V284.994z" fill="#fff0d3"></path><path d="M289.749 284.994v196.592l24.87 8.29a7.5 7.5 0 0 1-4.743 14.231l-29.998-10a7.5 7.5 0 0 1-5.128-7.115V284.994zM282.247 134.993l-45-30v90l40.003-30h4.997c8.284 0 15-6.716 15-15s-6.716-15-15-15z" fill="#ffe2a8"></path><path d="M267.247 149.993c0-8.284-6.716-15-15-15l-14.997-30-15.003 30c-8.284 0-15 6.716-15 15s6.716 15 15 15h5.003l10 30 14.997-30c8.284 0 15-6.716 15-15z" fill="#fff0d3"></path><path d="M297.247 269.994h-75l45 57.429v34.571c0 8.284 6.716 15 15 15s15-6.716 15-15z" fill="#c27749"></path><path d="M207.247 269.994v92c0 8.284 6.716 15 15 15s15-6.716 15-15v-34.571c4.693 1.659 9.739 2.571 15 2.571s10.307-.912 15-2.571v-57.429z" fill="#e18f4e"></path><path d="M318.185 106.22c.033-.406.062-.813.062-1.227 0-3.624-1.285-6.948-3.425-9.542l-27.711-33.913h-34.864v73.454h60c8.284 0 15-6.716 15-15 0-6.173-3.732-11.471-9.062-13.772z" fill="#85453d"></path><path d="M186.309 106.22a15.087 15.087 0 0 1-.062-1.227c0-3.624 1.285-6.948 3.425-9.542l27.711-33.913h34.864v73.454h-60c-8.284 0-15-6.716-15-15 0-6.173 3.733-11.471 9.062-13.772z" fill="#a45e43"></path><path d="M252.247 44.993v90c24.853 0 45-20.147 45-45s-20.147-45-45-45z" fill="#ffb4a9"></path><path d="M267.247 89.993c0-24.853-6.716-45-15-45-24.853 0-45 20.147-45 45s20.147 45 45 45c8.284 0 15-20.147 15-45z" fill="#ffd9d4"></path><path d="M259.748 103.092a7.485 7.485 0 0 1-2.388-.392 22.425 22.425 0 0 1-5.113-2.482 22.445 22.445 0 0 1-5.113 2.482 7.5 7.5 0 1 1-4.773-14.22 7.57 7.57 0 0 0 3.753-2.804 7.5 7.5 0 0 1 12.268 0 7.575 7.575 0 0 0 3.753 2.804 7.5 7.5 0 0 1-2.387 14.612z" fill="#a45e43"></path><path d="m132.247.793-15 104.201c25.762-5.849 45-28.873 45-56.406V7.296a142.249 142.249 0 0 0-30-6.503z" fill="#ffe2a8"></path><path d="M72.247 7.294a142.374 142.374 0 0 1 60-6.501v47.791c0 27.54-6.41 50.56-15 56.41-25.76-5.85-45-28.87-45-56.41z" fill="#fff0d3"></path><path d="m402.246.793-15 104.201c25.762-5.849 45-28.873 45-56.406V7.296a142.249 142.249 0 0 0-30-6.503z" fill="#ffe2a8"></path><path d="M342.246 7.294a142.374 142.374 0 0 1 60-6.501v47.791c0 27.54-6.41 50.56-15 56.41-25.76-5.85-45-28.87-45-56.41z" fill="#fff0d3"></path><path d="M117.248 67.526c-7.991 0-15.451-4.308-19.468-11.241a7.5 7.5 0 0 1 2.731-10.249c3.58-2.076 8.171-.854 10.249 2.73 1.363 2.354 3.789 3.76 6.487 3.76s5.123-1.405 6.486-3.76a7.501 7.501 0 0 1 12.98 7.519c-4.015 6.933-11.474 11.241-19.465 11.241z" fill="#ffcb63"></path><path d="M387.247 127.493a7.5 7.5 0 0 0-7.5 7.5c0 23.435-19.065 42.5-42.5 42.5h-55v15h55c31.706 0 57.5-25.794 57.5-57.5a7.5 7.5 0 0 0-7.5-7.5z" fill="#60312c"></path><path d="M167.248 177.493c-23.435 0-42.5-19.065-42.5-42.5 0-4.142-3.357-7.5-7.5-7.5s-7.5 3.358-7.5 7.5c0 31.706 25.794 57.5 57.5 57.5h54.999v-15z" fill="#85453d"></path><path d="M400.23 67.528a7.499 7.499 0 0 1-6.497-3.742c-1.363-2.354-3.788-3.76-6.486-3.76a7.526 7.526 0 0 0-6.487 3.76 7.499 7.499 0 0 1-10.249 2.73 7.499 7.499 0 0 1-2.731-10.249c4.017-6.934 11.477-11.241 19.468-11.241s15.45 4.308 19.467 11.241a7.5 7.5 0 0 1-2.731 10.249 7.479 7.479 0 0 1-3.754 1.012z" fill="#ffcb63"></path><path d="M277.25 164.993h-30v105.034h50v-85.033c0-11.046-8.955-20.001-20-20.001z" fill="#60312c"></path><path d="M247.25 164.993h-20c-11.046 0-20 8.955-20 20v85.033h60v-85.033c0-11.045-8.955-20-20-20z" fill="#85453d"></path><path d="M297.247 255.026h-30l15 39.665h30c0-15.21-5.671-29.089-15-39.665z" fill="#85453d"></path><path d="M267.247 255.026h-60c-9.329 10.575-15 24.454-15 39.665h90c0-15.21-5.671-29.089-15-39.665z" fill="#a45e43"></path><circle cx="237.247" cy="225.026" fill="#60312c" r="7.5"></circle><circle cx="267.247" cy="225.026" fill="#40211d" r="7.5"></circle><circle cx="237.247" cy="195.026" fill="#60312c" r="7.5"></circle><circle cx="267.247" cy="195.026" fill="#40211d" r="7.5"></circle></g></svg>