<svg viewBox="0 0 512 512" xmlns="http://www.w3.org/2000/svg"><g><path d="M61.688 301.517H30.96c0-55.775 28.23-93.779 75.516-101.661 22.85-3.808 74.845-15.503 124.429-32.113 61.32-20.541 102.955-43.291 117.235-64.058 5.787-8.417 5.484-14.161 4.753-17.749-2.463-12.09-12.896-20.427-31.01-24.778-26.553-6.378-65.295-2.823-103.634 9.51-39.853 12.821-72.859 32.919-90.554 55.141l-24.038-19.141c21.372-26.84 59.71-50.623 105.182-65.252 44.126-14.196 87.945-17.89 120.221-10.136 29.873 7.176 49.03 24.409 53.942 48.522 2.858 14.033-.352 27.925-9.543 41.292-18.556 26.986-63.234 52.484-132.794 75.785-51.277 17.177-105.322 29.317-129.138 33.286-18.613 3.103-49.839 16.498-49.839 71.352z" fill="#ec6161"></path><path d="M284.333 500.292c-15.753 0-28.546-12.772-28.546-28.536v-24.889c0-39.167-9.249-77.772-27.01-112.668l-16.49-32.387L0 89.535 82.668 6.868C163.02 87.21 294.955 219.145 294.965 219.145a28.388 28.388 0 0 1 15.343-7.948l41.195-7.067 73.081-12.537c15.548-2.663 30.297 7.764 32.96 23.302 2.663 15.548-7.774 30.287-23.312 32.95l-58.608 10.058a264.854 264.854 0 0 0 56.682 36.166l63.329 29.898c14.247 6.729 20.352 23.732 13.623 37.99-6.729 14.268-23.732 20.352-37.99 13.623l-71.226-33.606 62.705 62.695c11.011 11.011 11.134 28.792.389 39.977-11.093 11.523-29.898 11.246-41.206-.061l-63.627-63.627 40.335 78.417c7.211 14.012 1.69 31.229-12.322 38.43-14.012 7.221-31.229 1.69-38.43-12.322l-35.019-68.062v54.337c.002 15.751-12.771 28.534-28.534 28.534z" fill="#fcd0a3"></path><g fill="#ffb983"><path d="M281.588 251.962 59.581 29.955 82.668 6.868C163.02 87.21 294.955 219.145 294.965 219.145a28.388 28.388 0 0 1 15.343-7.948l41.195-7.067 5.797 5.808zM284.338 500.291c10.741 0 10.257-38.634 8.807-63.746-.639-11.068 8.692-20.12 19.734-19.129v54.334c-.007 15.764-12.783 28.541-28.541 28.541zM386.586 497.662c9.951-6.068-21.276-64.811-38.157-94.899-4.905-8.742.071-19.728 9.877-21.81l40.338 78.421c7.159 13.926 1.754 31.001-12.058 38.288zM400.046 341.976l62.699 62.699c10.972 10.972 11.149 28.654.515 39.824 5.284-6.677-42.428-55.453-67.287-80.07-6.906-6.838-4.792-18.471 4.073-22.453z" fill="#ffb983"></path><path d="m228.778 334.203-16.49-32.389 82.671-82.671a28.384 28.384 0 0 1 15.356-7.942l.007-.007 114.27-19.598c15.18-2.607 29.591 7.28 32.741 22.213-7.125-17.315-192.826 19.041-228.555 120.394zM495.627 323.97l-63.319-29.887a265.52 265.52 0 0 1-56.673-36.18s-.314.965-.995 2.618c-7.063 17.133-21.583 30.257-39.427 35.258-9.053 2.537-19.827 3.624-32.502 2.077a6.177 6.177 0 0 0-6.902 5.552c-.323 3.388 2.314 6.35 5.693 6.754 4.473.534 8.739.781 12.813.781 28.965 0 48.003-12.506 59.071-23.351 36.004 16.172 139.213 63.598 135.877 74.369 6.73-14.256.62-31.261-13.636-37.991z" fill="#ffb983"></path></g><path d="M165.869 295.68a750.012 750.012 0 0 0-139.535 0c-12.448 1.161-22.244 11.165-23.22 23.628a1015.642 1015.642 0 0 0 0 158.943c.977 12.463 10.773 22.468 23.22 23.628a750.012 750.012 0 0 0 139.535 0c12.448-1.161 22.244-11.165 23.22-23.628a1015.642 1015.642 0 0 0 0-158.943c-.976-12.463-10.772-22.467-23.22-23.628z" fill="#e5ecf1"></path><path d="M96.102 474.938c-20.952 0-42.184-.935-63.171-2.778a990.273 990.273 0 0 1 0-146.76 724.387 724.387 0 0 1 63.171-2.778c20.951 0 42.184.935 63.171 2.779a990.532 990.532 0 0 1 0 146.759 724.814 724.814 0 0 1-63.171 2.778z" fill="#ec6161"></path><path d="m144.911 138.224-14.671 14.671c-5.817 5.817-15.249 5.817-21.066 0l-30.156-30.156c-5.817-5.817-5.817-15.249 0-21.066l14.671-14.671c5.817-5.817 15.249-5.817 21.066 0l30.156 30.156c5.817 5.818 5.817 15.249 0 21.066z" fill="#e5ecf1"></path><path d="M218.248 70.667c-39.853 12.821-72.859 32.919-90.554 55.141l-24.038-19.141c21.372-26.84 59.71-50.623 105.182-65.252" fill="#ec6161"></path><path d="M73.565 408.85c0 .635.009 1.267.026 1.898.784 29.073 44.605 29.073 45.389 0 .017-.631.026-1.263.026-1.898 0-20.311-8.766-38.575-22.72-51.215-13.955 12.641-22.721 30.904-22.721 51.215z" fill="#d63030"></path></g></svg>