<svg viewBox="0 0 480 480" xmlns="http://www.w3.org/2000/svg"><g><path d="M144 461.602V480h32v-16h-14.398l21.597-32H164zM212 432l-20 29.602V480h32v-16h-14.398l21.597-32zm0 0" fill="#d3ada3"></path><path d="M160 408h-56l16-120-8-80 48-24zm0 0" fill="#991616"></path><path d="M224 272h-64l-16 40 16 56-24 72h96v-96zm0 0" fill="#219364"></path><path d="M280 408h-56l24-136-16-64 48-24zm0 0" fill="#991616"></path><path d="M288 160h-44l-3.2 16H288zM208 160c-4.8 0-8-3.2-8-8v-8h-32v16zm0 0" fill="#d3ada3"></path><path d="M464 88c0 40-32 72-72 72h-6.398l-4 16H392c48.8 0 88-39.2 88-88zm0 0" fill="#e5c2b7"></path><path d="M336 176h-8v-16h8c8.8 0 16-7.2 16-16h16c0 17.602-14.398 32-32 32zm0 0" fill="#d3ada3"></path><path d="m200 80-8-48h-16l-8 48-16 16v16h64V96zm0 0" fill="#f4b12a"></path><path d="m194.5 101.82 11.316-11.316 32.243 32.246-11.313 11.313zm0 0" fill="#c61e1e"></path><path d="M160 128c0 13.602 10.398 24 24 24s24-10.398 24-24v-24h-48zm0 0" fill="#e0c3bd"></path><path d="M152 112h64V96l-16-16h-32l-16 16zm0 0" fill="#d38d1c"></path><g fill="#decba3"><path d="M88 112h16v48H88zm0 0" fill="#decba3"></path><path d="M72 128h48v16H72zM48 56h16v48H48zm0 0" fill="#decba3"></path><path d="M32 72h48v16H32zm0 0" fill="#decba3"></path></g><path d="m184 351.2 16 1.6 8-80.8h-16zm0 0" fill="#266d4f"></path><path d="M176 0h16v32h-16zm0 0" fill="#f4b12a"></path><path d="M264 461.602V480h32v-16h-14.398l21.597-32H284zM312 461.602V480h32v-16h-14.398l21.597-32H332zm0 0" fill="#c9a8a3"></path><path d="M360 264h-80l-16 48 8 56-16 72h104l16-72zm0 0" fill="#219364"></path><path d="M328 361.602 312 264h16l16 94.398zm0 0" fill="#266d4f"></path><path d="m312 360.8-16-1.6 8-95.2h16zm0 0" fill="#2a7758"></path><path d="M424 216h16v48h-16zm0 0" fill="#e0d2b8"></path><path d="M408 232h48v16h-48zM448 280h16v48h-16zm0 0" fill="#e0d2b8"></path><path d="M432 296h48v16h-48zm0 0" fill="#e0d2b8"></path><path d="M320 152v-8h-32v16h40c-4.8 0-8-3.2-8-8zm0 0" fill="#e5c2b7"></path><path d="M296 0h16v32h-16zm0 0" fill="#f4b12a"></path><path d="M280 104v24c0 13.602 10.398 24 24 24s24-10.398 24-24v-24zm0 0" fill="#efccbf"></path><path d="m320 80-8-48h-16l-8 48-16 16v16h64V96zm0 0" fill="#f4b12a"></path><path d="M346.398 133.602 316.801 104 328 92.8l29.602 29.598zm0 0" fill="#c61e1e"></path><path d="M272 112h64V96l-16-16h-32l-16 16zM446.398 134.398l11.204 11.204c4.796-5.602 9.597-12 12.796-19.204l-12-12c-2.398 8-6.398 14.403-12 20zm0 0" fill="#d38d1c"></path><path d="M288 160v5.602c0 3.199-1.602 5.597-4.8 7.199L244 192l36 72h80l25.602-104zm0 0" fill="#c61e1e"></path><path d="M288 160v5.602c0 3.199-1.602 5.597-4.8 7.199l-24.802 12L296 216h16l40-48 1.602-8zm0 0" fill="#219364"></path><path d="M168 160v5.602c0 3.199-1.602 5.597-4.8 7.199L120 193.6 160 240v32h64l20-112zm0 0" fill="#c61e1e"></path><path d="M13.602 244.8C5.602 248.8 0 257.603 0 266.399V280h16v-13.602c0-3.199 1.602-5.597 4.8-7.199l110.4-52.8-11.2-12.797zm0 0" fill="#d3ada3"></path><path d="m12.8 244.8 12 12 21.598-10.402-12-12zm0 0" fill="#d38d1c"></path><path d="M168 160v5.602c0 3.199-1.602 5.597-4.8 7.199l-29.598 14.398L200 224h8l28-64zm0 0" fill="#219364"></path><path d="M133.602 244.8c-8 4-13.602 12.802-13.602 21.598V280h16v-13.602c0-3.199 1.602-5.597 4.8-7.199l110.4-52.8L244 192zm0 0" fill="#d3ada3"></path><path d="m146.398 256 20-9.602-9.597-12.796L136 243.199zm0 0" fill="#d38d1c"></path></g></svg>