<svg viewBox="0 0 512 512" xmlns="http://www.w3.org/2000/svg"><g><path d="M175.667 190.667c-8.284 0-15-6.716-15-15v-66.409c0-8.284 6.716-15 15-15s15 6.716 15 15v66.409c0 8.284-6.716 15-15 15z" fill="#0f1e32"></path><path d="M363.114 0H175.667c-8.284 0-15 6.716-15 15v94.257h112.467c0 20.112 16.307 36.419 36.419 36.419h89.981V36.419C399.533 16.305 383.228 0 363.114 0z" fill="#ff5651"></path><path d="M399.533 36.419C399.533 16.305 383.228 0 363.114 0h-26.781v145.676h63.2z" fill="#e92354"></path><path d="M399.533 145.676c0-20.109-16.323-36.419-36.419-36.419h-89.981v109.239h89.981c20.096 0 36.419-16.31 36.419-36.419z" fill="#e92354"></path><path d="M399.533 182.077v-36.401c0-20.109-16.323-36.419-36.419-36.419h-26.781v109.239h26.781c20.096 0 36.419-16.31 36.419-36.419z" fill="#c80046"></path><path d="m261.383 313.559-72.3-144.6a15 15 0 0 0-26.834 0l-72.3 144.6a15 15 0 0 0 2.81 17.314c45.788 45.788 120.025 45.788 165.813 0a14.996 14.996 0 0 0 2.811-17.314z" fill="#f2f8f4"></path><path d="m261.383 313.559-72.3-144.6a15 15 0 0 0-13.416-8.292v204.547c30.006 0 60.013-11.447 82.907-34.341a14.998 14.998 0 0 0 2.809-17.314z" fill="#d1e7e8"></path><path d="M336.334 512H15.351c-3.996 0-7.923-1.423-10.783-4.214a15.015 15.015 0 0 1-2.985-17.494L89.95 313.559a15.012 15.012 0 0 1 14.682-8.243c3.636.294 7.01 2.013 9.59 4.593l10.672 10.672c5.858 5.858 15.355 5.858 21.213 0l18.954-18.953c5.857-5.858 15.355-5.858 21.213 0l18.954 18.954c5.858 5.858 15.355 5.858 21.213 0l10.672-10.672c2.579-2.579 5.954-4.298 9.59-4.593a15.012 15.012 0 0 1 14.682 8.243l88.239 176.478c1.769 3.538 2.233 7.641 1.043 11.413A15.02 15.02 0 0 1 336.334 512z" fill="#c86425"></path><path d="M350.665 501.449c1.19-3.772.726-7.875-1.043-11.413l-88.239-176.478a15.012 15.012 0 0 0-14.682-8.243c-3.636.294-7.01 2.013-9.59 4.593L226.44 320.58c-5.858 5.858-15.355 5.858-21.213 0l-18.954-18.954a14.95 14.95 0 0 0-10.606-4.393V512h160.667a15.016 15.016 0 0 0 14.331-10.551z" fill="#93420f"></path><path d="m475.707 200.305 32.495-32.495a12.966 12.966 0 0 0-9.168-22.134h-99.501c0 20.109-16.323 36.419-36.419 36.419h-53.562c-20.109 0-36.419 16.323-36.419 36.419 0 20.112 16.307 36.419 36.419 36.419h189.482a12.966 12.966 0 0 0 9.168-22.134z" fill="#ff5651"></path><path d="M511.013 246.929a12.968 12.968 0 0 0-2.811-14.13l-32.495-32.495 32.495-32.495a12.966 12.966 0 0 0-9.168-22.134h-99.501c0 20.109-16.323 36.419-36.419 36.419h-26.781v72.838h162.701a12.964 12.964 0 0 0 11.979-8.003z" fill="#e92354"></path></g></svg>