<svg id="Capa_1" enable-background="new 0 0 512 512" height="512" viewBox="0 0 512 512" width="512" xmlns="http://www.w3.org/2000/svg"><g><g><path d="m234.146 33.301h43.707v54.114h-43.707z" fill="#685e68"/></g><g><path d="m182.152 108.951-30.906 30.906-30.906-30.906c-4.064-4.064-4.064-10.653 0-14.717l16.189-16.189c4.064-4.064 10.653-4.064 14.717 0z" fill="#685e68"/></g><g><path d="m329.848 108.951 30.906 30.906 30.906-30.906c4.064-4.064 4.064-10.653 0-14.717l-16.189-16.189c-4.064-4.064-10.653-4.064-14.717 0z" fill="#685e68"/></g><g><circle cx="256" cy="213.705" fill="#60b7ff" r="147.104"/></g><g><path d="m349.204 99.897c20.806 25.375 33.296 57.83 33.296 93.204 0 81.243-65.861 147.104-147.104 147.104-35.374 0-67.829-12.49-93.204-33.296 26.978 32.903 67.939 53.899 113.808 53.899 81.243 0 147.104-65.86 147.104-147.104 0-45.867-20.997-86.829-53.9-113.807z" fill="#26a6fe"/></g><g><circle cx="256" cy="213.705" fill="#d8ecfe" r="115.884"/></g><g><g><path d="m426.667 512h-341.334c-11.495 0-20.813-9.318-20.813-20.813v-109.565c0-11.495 9.318-20.813 20.813-20.813h341.333c11.495 0 20.813 9.318 20.813 20.813v109.565c.001 11.495-9.318 20.813-20.812 20.813z" fill="#fd8087"/></g><g><path d="m426.667 360.809h-33.301c11.495 0 20.813 9.318 20.813 20.813v109.565c0 11.495-9.318 20.813-20.813 20.813h33.301c11.495 0 20.813-9.318 20.813-20.813v-109.565c0-11.494-9.319-20.813-20.813-20.813z" fill="#fe646f"/></g></g><g><path d="m286.179 33.301h-60.358c-4.598 0-8.325-3.727-8.325-8.325v-16.651c0-4.598 3.727-8.325 8.325-8.325h60.358c4.598 0 8.325 3.727 8.325 8.325v16.65c0 4.598-3.727 8.326-8.325 8.326z" fill="#60b7ff"/></g><g><path d="m286.179 0h-31.22c4.598 0 8.325 3.727 8.325 8.325v16.65c0 4.598-3.727 8.325-8.325 8.325h31.22c4.598 0 8.325-3.727 8.325-8.325v-16.65c0-4.598-3.727-8.325-8.325-8.325z" fill="#26a6fe"/></g><g><g><g><path d="m325.97 482.409c-.174 0-.348-.005-.522-.016-4.186-.235-7.695-3.27-8.533-7.378l-14.354-75.105c-.778-4.069 1.89-7.997 5.958-8.774 4.065-.786 7.996 1.89 8.774 5.958l9.781 51.178 14.602-51.224c.024-.087.051-.173.079-.259 1.232-3.8 4.744-6.367 8.739-6.389h.05c3.975 0 7.489 2.524 8.758 6.296.029.088.058.178.084.268l15.123 51.259 9.214-51.053c.735-4.076 4.639-6.784 8.713-6.049 4.076.735 6.784 4.637 6.049 8.713l-13.535 74.991c-.809 4.204-4.286 7.277-8.472 7.559-4.191.275-8.041-2.302-9.376-6.277-.03-.088-.058-.177-.084-.266l-16.379-55.518-15.804 55.438c-.025.087-.052.174-.079.26-1.24 3.822-4.807 6.387-8.786 6.388z" fill="#eaf6ff"/></g></g><g><path d="m243.994 482.408c-25.366 0-46.004-20.638-46.004-46.004s20.638-46.004 46.004-46.004 46.004 20.638 46.004 46.004-20.638 46.004-46.004 46.004zm0-77.008c-17.096 0-31.004 13.908-31.004 31.004s13.908 31.004 31.004 31.004 31.004-13.908 31.004-31.004-13.908-31.004-31.004-31.004z" fill="#eaf6ff"/></g><g><g><path d="m174.86 482.409c-2.398 0-4.708-1.153-6.14-3.191l-40.324-57.438v53.129c0 4.143-3.357 7.5-7.5 7.5s-7.5-3.357-7.5-7.5v-76.864c0-3.271 2.121-6.166 5.24-7.151 3.12-.987 6.518.164 8.398 2.842l40.324 57.438v-53.274c0-4.143 3.357-7.5 7.5-7.5s7.5 3.357 7.5 7.5v77.008c0 3.271-2.121 6.166-5.24 7.151-.744.236-1.506.35-2.258.35z" fill="#eaf6ff"/></g></g></g><g><path d="m256 221.205c-4.143 0-7.5-3.357-7.5-7.5v-53.445c0-4.143 3.357-7.5 7.5-7.5s7.5 3.357 7.5 7.5v53.445c0 4.143-3.357 7.5-7.5 7.5z" fill="#685e68"/></g><g><circle cx="256" cy="129.041" fill="#fd8087" r="7.726"/></g><g><circle cx="213.668" cy="140.384" fill="#fd8087" r="7.726"/></g><g><circle cx="182.678" cy="171.373" fill="#fd8087" r="7.726"/></g><g><circle cx="171.335" cy="213.705" fill="#fd8087" r="7.726"/></g><g><circle cx="182.678" cy="256.038" fill="#fd8087" r="7.726"/></g><g><circle cx="213.668" cy="287.027" fill="#fd8087" r="7.726"/></g><g><circle cx="256" cy="298.37" fill="#fd8087" r="7.726"/></g><g><circle cx="298.332" cy="287.027" fill="#fd8087" r="7.726"/></g><g><circle cx="329.322" cy="256.038" fill="#fd8087" r="7.726"/></g><g><circle cx="340.665" cy="213.705" fill="#fd8087" r="7.726"/></g><g><circle cx="329.322" cy="171.373" fill="#fd8087" r="7.726"/></g><g><circle cx="298.332" cy="140.384" fill="#fd8087" r="7.726"/></g></g></svg>