<svg viewBox="0 0 512 512" xmlns="http://www.w3.org/2000/svg"><g><path d="M366.452 300.54a152.408 152.408 0 0 1-34.176 3.373c-75.781-1.055-137.826-57.408-148.287-130.123l-.281-41.52C193.482 56.761 258.54-1.07 336.508.015a152.703 152.703 0 0 1 29.944 3.382l-24.491 39.941v219.98z" fill="#ff4fb9"></path><path d="M503.585 239.533a125.627 125.627 0 0 0-67.023 24.908l-13.11 10.662-143.968 119.42a334.93 334.93 0 0 1-44.779 31.328l-38.336 19.236a335.14 335.14 0 0 1-98.649 25.034l-13.05 8.4 1.803 21.892L105.892 512h398.187a7.92 7.92 0 0 0 7.921-7.921V247.447c0-4.569-3.857-8.22-8.415-7.914z" fill="#ffe02f"></path><circle cx="83.281" cy="81.563" fill="#ffb1a0" r="38.22"></circle><path d="m105.983 166.695-43.461-21.892-4.404 3.919c.144 4.191-.91-22.507 4.047 102.059l12.204 17.838h26.785l10.834-15.358.238-70.179z" fill="#00c2fb"></path><path d="M217.936 412.618c-3.457-.118-7.247-.913-10.775-1.937-2.771-.805-4.879-3.06-5.431-5.893l-.522-2.677-9.656-10.641-17.513 1.288-8.728 13.649 3.713 19.056a18.028 18.028 0 0 0 9.432 12.575c1.979 1.021 19.86 9.987 38.247 10.616 9.945.342 18.294-7.445 18.635-17.401.34-9.951-7.451-18.294-17.402-18.635z" fill="#7b6c79"></path><path d="M102.441 286.734 73.94 272.655l-10.352 1.994-4.099 58.257 8.784 15.166 11.333 8.028 16.296-8.028 10.129-48.229z" fill="#2f4dca"></path><path d="m201.209 402.111-19.557-100.38a18.029 18.029 0 0 0-9.584-12.653l-56.027-29.116a7.524 7.524 0 0 1-4.054-6.7c-29.284 4.962-49.823-2.48-49.823-2.48l.801 20.118c.338 6.225 4.035 12.173 9.891 15.125l71.12 29.621a8.04 8.04 0 0 1 4.8 5.884l16.536 84.877c15.058.933 29.565-2.508 35.897-4.296z" fill="#6b7ed9"></path><path d="M366.452 3.397c-69.363 14.891-120.914 77.028-119.889 150.682.999 71.78 51.809 131.832 119.889 146.46l-.002.001c20.906-4.492 40.237-13.292 57.001-25.436l13.11-10.662c30.062-27.319 49.169-66.541 49.779-110.362 1.027-73.654-50.525-135.791-119.888-150.683z" fill="#ff72c7"></path><path d="M335.032 198.572c-9.05 0-16.386-7.336-16.386-16.386v-27.185c0-9.05 7.336-16.386 16.386-16.386 13.102 0 23.762-10.66 23.762-23.762s-10.659-23.762-23.762-23.762c-13.102 0-23.762 10.66-23.762 23.762 0 9.05-7.336 16.386-16.386 16.386s-16.386-7.336-16.386-16.386c0-31.173 25.361-56.534 56.533-56.534s56.533 25.361 56.533 56.534c0 25.476-16.941 47.071-40.147 54.113v13.221c.001 9.048-7.336 16.385-16.385 16.385zM335.032 245.609c-9.05 0-16.386-7.336-16.386-16.386s7.336-16.424 16.386-16.424 16.386 7.298 16.386 16.348v.076c0 9.05-7.337 16.386-16.386 16.386z" fill="#dbedff"></path><path d="m59.489 332.906-1.155 16.422-42.264 51.157v14.307l12.369 11.017 16.496-3.651L89.81 367.84a18.034 18.034 0 0 0 4.086-10.218l2.006-9.55z" fill="#4d66d2"></path><path d="m41.576 426.222 3.358-4.064c-12.123-4.362-23.638-15.895-28.865-21.673L4.13 414.936a18.026 18.026 0 0 0-3.989 13.731c1.376 10.951 9.545 32.018 31.43 41.52a17.943 17.943 0 0 0 10.855 1.115c7.481-1.565 13.817-7.841 14.415-17.02.488-7.484-4.212-14.176-11.061-17.234A15.616 15.616 0 0 1 42.41 435c-2.693-2.145-3.027-6.123-.834-8.778z" fill="#7b6c79"></path><path d="M194.643 151.964 186.659 138h-12.83l-28.205 16.361a8.605 8.605 0 0 1-7.685.475L83.176 131.55c-9.056-3.85-19.502.274-23.507 9.218-4.13 9.225.531 20.194 9.832 24.149l66.589 28.315a18.03 18.03 0 0 0 16.1-.996l39.877-23.131z" fill="#62ddfc"></path><path d="m173.829 138 18.239 31.103 15.736-9.128c8.613-4.996 11.545-16.028 6.549-24.64-4.996-8.614-16.032-11.544-24.641-6.549z" fill="#ffb1a0"></path><path d="M95.902 483.058c0-4.489.643-8.825 1.819-12.936a334.438 334.438 0 0 1-32.116 1.562H7.921A7.92 7.92 0 0 0 0 479.605v24.475A7.921 7.921 0 0 0 7.921 512h97.971c-6.252-7.978-9.99-18.021-9.99-28.942z" fill="#fbc700"></path></g></svg>