<svg viewBox="0 0 497 497" xmlns="http://www.w3.org/2000/svg"><g><path d="M497 265.608c0-70.961-31.942-134.462-82.232-176.909C374.489 54.701 261.33 50.807 261.33 50.807l-82.012.473c-.61.258-1.347.079-1.954.342C96.982 86.504 44.819 169.153 44.819 265.227c0 127.798 95.283 214.76 223.081 214.76 38.422 0 72.357 7.656 104.247-8.915C446.329 432.526 497 354.984 497 265.608z" fill="#94ccd4"></path><path d="M414.77 88.697c-23.53 15.39-48.79 30.66-58.26 32.73-25.99 7.6-59.82-8.5-66.77 29.83-.2 7.4-.85 14.43-1.96 20.99-1.24 7.32-3.96 14.21-7.91 20.33s-14.463 7.906-20.583 12.106c-16.85 11.58-30.541 12.274-48.681 2.824-.46-.24-.93-.49-1.4-.74-30.22-14.81-47.973-48.87-16.643-73.76 20.59-17 17.476-46.987 3.086-65.727l-8.66-10.02c6.723-2.777 3.986-10.878 11.01-13.021 21.385-6.524 44.084-10.032 67.6-10.032 56.841 0 108.891 20.49 149.171 54.49zM445.066 208.328a72.054 72.054 0 0 0-21.444-50.801c-11.605-13.278-15.619-21.189-31.569-6.53-15.118 18.805-.207 42.145-32.34 74.213-5.691 5.793-8.884 13.723-8.563 21.852-.012-.002-.007-1.436-.018-1.438 1.155 20.135 14.908 36.366 34.51 36.366 25.18-.001 59.424-29.559 59.424-73.662z" fill="#b7e546"></path><path d="M372.62 223.717c-5.69 5.8-8.89 13.73-8.57 21.86-.01-.01-.01-.02-.02-.02.96 16.67 15.41 30.7 31.48 35.04-3.37.92-6.69 1.39-9.87 1.39-19.6 0-40.45-16.29-41.61-36.43.01 0 .01.01.02.02-.32-8.13 2.88-16.06 8.57-21.86 32.13-32.06 13.51-57.11 28.63-75.91 9.11-8.38 17.86-8.34 25.84-4.29-1.93 1.07-3.87 2.48-5.84 4.29-15.12 18.8 3.5 43.85-28.63 75.91z" fill="#abd641"></path><path d="M466.803 17.508v115.506l-7.36 6.988c0 9.665-10.988 11.121-20.654 11.121l-52.829-.397c-2.458 0-4.854.776-6.844 2.218l-43.595 30.271c-3.857 2.794-9.256.038-9.256-4.724l4.092-14.559c0-6.444-5.224-11.667-11.667-11.667h-14c-9.665 0-17.501-7.835-17.501-17.501l-2.11-108.356c0-9.665 3.839-19.859 13.504-19.859l4.878-6.541h145.841c9.666-.001 17.501 7.834 17.501 17.5z" fill="#dc4955"></path><path d="M466.803 133.014v5.834c0 9.665-7.835 17.501-17.501 17.501h-62.63c-2.462 0-4.854.782-6.837 2.217l-47.288 34.243c-3.85 2.8-9.252.047-9.252-4.725v-20.068c0-6.444-5.224-11.667-11.667-11.667h-14.001c-9.665 0-17.501-7.835-17.501-17.501V17.508c0-9.665 7.835-17.501 17.501-17.501h5.834v130.674a2.333 2.333 0 0 0 2.333 2.333h5.834c13.429 0 25.112 7.595 30.979 18.725 1 1.897 3.425 2.496 5.162 1.237l18.368-13.312a34.8 34.8 0 0 1 20.534-6.65z" fill="#d82f3c"></path><path d="M320.6 476.787c-130.86 0-236.95-105.78-236.95-236.26 0-77.71 35.628-145.845 93.718-188.905C93.339 86.307 34.2 169.052 34.2 265.607c0 39.347 9.82 76.4 27.144 108.842 0 0 54.989 43.55 82.795 64.014 38.358 28.23 112.89 46.439 112.89 46.439s82.932 2.814 114.732-13.646a238.14 238.14 0 0 1-51.161 5.531z" fill="#6fbbc6"></path><path d="M372.135 471.048c-18.595-25.899-52.793-54.451-51.323-88.84.501-11.724-1.046-23.487-4.906-34.574-.061-.15-.11-.297-.159-.443-1.952-5.491-4.884-10.572-8.535-15.101-10.078-12.52-31.583-45.184-42.098-49.764-20.079-12.419-47.263-3.171-58.005 17.22-9.324 23.587-11.896 55.905-36.253 68.627-14.56 7.896-35.545 6.122-46.621-6.952-19.217-24.96-46.122-.826-62.868 13.218 6.654 12.431 33.803 21.544 42.583 32.57 36.43 45.761 68.853 63.401 122.234 72.98 49.652 9.01 100.602 14.614 145.41-8.666.18-.094.361-.182.541-.275z" fill="#b7e546"></path><path d="M371.67 471.277c-39.78 20.697-85.715 29.138-130.28 24.46v-.01c-75.319-7.365-144.829-54.348-180.02-121.29 13.24-11.11 32.85-28.54 49.98-22.97 39.85 74.57 118.61 125.32 209.25 125.32 17.54 0 34.62-1.9 51.07-5.51z" fill="#abd641"></path><path d="M423.275 270.934V386.44l-7.36 6.988c0 9.665-10.988 11.121-20.654 11.121l-52.829-.397c-2.458 0-4.854.776-6.844 2.218l-43.595 30.271c-3.857 2.794-9.256.038-9.256-4.724l4.092-14.559c0-6.444-5.224-11.667-11.667-11.667h-14.001c-9.665 0-17.501-7.835-17.501-17.501l-2.11-108.356c0-9.665 3.839-19.859 13.504-19.859l4.878-6.541h145.841c9.666-.001 17.502 7.835 17.502 17.5z" fill="#ffbf54"></path><path d="M423.275 386.44v5.834c0 9.666-7.835 17.501-17.501 17.501h-62.63c-2.462 0-4.854.782-6.837 2.217l-47.288 34.243c-3.85 2.8-9.252.047-9.252-4.725v-20.068c0-6.444-5.224-11.667-11.667-11.667h-14.001c-9.665 0-17.501-7.835-17.501-17.501v-121.34c0-9.665 7.835-17.501 17.501-17.501h5.834v130.674a2.333 2.333 0 0 0 2.333 2.333h5.834c13.429 0 25.112 7.595 30.979 18.725 1 1.897 3.425 2.496 5.162 1.237l18.368-13.312a34.8 34.8 0 0 1 20.534-6.65z" fill="#ffa442"></path><path d="M418.808 57.26a7.5 7.5 0 0 0 0-15h-38.825V29.507a7.5 7.5 0 0 0-15 0V42.26h-38.825a7.5 7.5 0 0 0 0 15h15.551a107.155 107.155 0 0 0 20.644 43.123 92.958 92.958 0 0 1-26.375 17.669l-10.333 4.605a7.5 7.5 0 0 0 3.057 14.352c1.02 0 2.057-.209 3.048-.651l10.333-4.605a107.98 107.98 0 0 0 30.4-20.293 107.98 107.98 0 0 0 30.4 20.293l10.333 4.605a7.471 7.471 0 0 0 3.048.651 7.5 7.5 0 0 0 3.057-14.352l-10.333-4.605a92.923 92.923 0 0 1-26.375-17.669 107.153 107.153 0 0 0 20.643-43.123zm-46.325 31.693a92.175 92.175 0 0 1-15.335-31.693h30.669a92.173 92.173 0 0 1-15.334 31.693zM387.386 285.507h-34.891a7.5 7.5 0 0 0 0 15h9.945v23.5h-29.833a26.583 26.583 0 0 0 2.724-11.75c0-14.75-12-26.75-26.75-26.75h-21.656a7.5 7.5 0 0 0 0 15h21.656c6.479 0 11.75 5.271 11.75 11.75s-5.271 11.75-11.75 11.75h-24.063a7.5 7.5 0 0 0 0 15h24.063c6.479 0 11.75 5.271 11.75 11.75 0 6.589-5.161 11.75-11.75 11.75-10.362 0-22.125-1.168-30.791-9.834a7.5 7.5 0 0 0-10.606 0 7.5 7.5 0 0 0 0 10.606c12.611 12.611 28.748 14.228 41.397 14.228 14.75 0 26.75-12 26.75-26.75 0-4.213-.981-8.201-2.724-11.75h29.833v31a7.5 7.5 0 0 0 15 0v-69.5h9.945a7.5 7.5 0 0 0 .001-15z" fill="#faf8f8"></path><path d="m200.16 145.927-.29.24c-3.86 3.07-17.26 15.34-26.76 25.86-3.82-14.43-.5-29.75 14.32-41.52 20.59-17 12.99-50.12-1.4-68.86l-8.666-10.025A226.61 226.61 0 0 1 198 44.237c6.22 9.45 11.75 17.41 11.75 17.41 14.91 27.77 15.58 63.51-9.59 84.28z" fill="#abd641"></path><path d="M280.71 191.217c-.27.46-.55.91-.84 1.36a55.5 55.5 0 0 1-15.23 15.66c-16.85 11.58-38.7 12.88-56.84 3.43-.46-.24-.93-.49-1.4-.74-28.44-13.94-47.89-50.81-23.98-75.85-7.61 22.98 10.36 49.51 34.55 60.85.49.25.98.5 1.46.74 18.96 9.45 41.8 8.15 59.41-3.43.98-.64 1.94-1.31 2.87-2.02z" fill="#abd641"></path><g fill="#94ccd4"><path d="m238.862 495.452.192.022-.192-.022zM167.135 475.042c.227.107.456.211.683.317-.228-.106-.456-.21-.683-.317zM371.76 471.257c-4.13 2.14-8.32 4.15-12.59 6.03 4.2-1.86 8.34-3.85 12.42-5.97.03-.01.05-.03.08-.04s.06-.01.09-.02z" fill="#94ccd4"></path></g><path d="m8.053 137.009 1.468 100.637c0 9.855 8.03 17.844 17.936 17.844l56.305 1.84a12 12 0 0 1 7.014 2.262l38.427 32.486c3.953 2.849 9.486.039 9.486-4.817l2.428-15.705c0-6.57 5.353-11.896 11.957-11.896l18.584-.068c9.906 0 19.66-2.352 19.66-12.207V123.664c0-9.855-8.03-17.844-17.936-17.844H17.936c-9.906 0-9.883 21.334-9.883 31.189z" fill="#faf8f8"></path><path d="m104.402 139.105-.067-.171a9.507 9.507 0 0 0-8.82-5.927h-.01a9.51 9.51 0 0 0-8.904 6.116l-33.487 88.736a7.5 7.5 0 0 0 14.034 5.296l6.509-17.247h43.945l6.577 17.269a7.503 7.503 0 0 0 7.01 4.833 7.5 7.5 0 0 0 7.007-10.171zm-25.085 61.803 16.211-42.957 16.361 42.957z" fill="#aad8de"></path><path d="M191.32 245.227v2.16c0 9.85-8.03 17.84-17.94 17.84h-14.35c-6.6 0-11.95 5.33-11.95 11.9v20.47c0 4.85-5.54 7.66-9.49 4.81l-48.45-34.92c-2.04-1.47-4.5-2.26-7.02-2.26H17.94c-9.91 0-17.94-7.99-17.94-17.84v-123.72c0-9.86 8.03-17.85 17.94-17.85H20v134.41a5 5 0 0 0 5 5h57.12c6.72 0 13.27 2.12 18.71 6.04l22.35 16.11c2.14 1.54 5.12.6 6.08-1.85 4.66-11.87 16.25-20.3 29.77-20.3z" fill="#f0e9e6"></path></g></svg>