<svg viewBox="0 0 512 512" xmlns="http://www.w3.org/2000/svg"><g><path d="M306.184 77.88H70.444V512h377.977V77.88H306.184z" fill="#6edcf9"></path><path d="M301.376 77.88H70.445V512h163.112c-95.705-137.732-61.954-352.603 67.819-434.12z" fill="#55c5d8"></path><path d="M402.853 314.608c-15.007-11.996-27.619-25.354-38.214-39.454h-88.911V77.88h-39.454v197.274h-89.952c-10.591 14.101-23.205 27.458-38.212 39.454h128.164V511.88h39.454V314.608h127.125z" fill="#c16b3d"></path><path d="M236.273 275.153h-89.952a221.035 221.035 0 0 1-16.769 19.787h113.556c6.833 0 12.373-5.539 12.373-12.373V77.88h-19.208v197.273z" fill="#aa5733"></path><path d="M306.184 77.88s-14.795 171.628 113.431 251.523h48.333V77.88H306.184z" fill="#ff8828"></path><path d="M384.582 77.88s-7.624 171.628 58.461 251.523h24.907V77.88h-83.368z" fill="#ffa92c"></path><path d="M355.345 511.879h94.85c9.805 0 17.754-7.948 17.754-17.756V369.351h-33.643c-89.261 45.274-78.961 142.528-78.961 142.528z" fill="#ff8828"></path><path d="M325.924 77.88h-19.74s-14.795 171.628 113.431 251.523h5.898C312.934 249.507 325.924 77.88 325.924 77.88zM438.412 369.351h-4.106c-89.262 45.274-78.961 142.528-78.961 142.528h13.741s-9.043-97.254 69.326-142.528z" fill="#ef701b"></path><path d="M450.384 369.351c-46.599 45.274-41.222 142.528-41.222 142.528h41.033c9.805 0 17.754-7.948 17.754-17.756V369.351h-17.565zM205.809 77.88s14.795 171.628-113.433 251.523H44.044V77.88h161.765z" fill="#ffa92c"></path><path d="M127.412 77.88s7.624 171.628-58.459 251.523H44.044V77.88h83.368z" fill="#ff8828"></path><path d="M156.648 511.879H61.8c-9.807 0-17.756-7.948-17.756-17.756V369.351h33.645c89.259 45.274 78.959 142.528 78.959 142.528z" fill="#ffa92c"></path><path d="M61.609 369.351c46.599 45.274 41.222 142.528 41.222 142.528H61.8c-9.807 0-17.756-7.948-17.756-17.756V369.351h17.565z" fill="#ff8828"></path><path d="M44.049 77.88h22.247V329.4H44.049zM66.292 494.124V374.278a88.939 88.939 0 0 0-4.683-4.928H44.044v124.773c0 9.807 7.948 17.756 17.756 17.756h22.247c-9.807 0-17.755-7.948-17.755-17.755z" fill="#ef701b"></path><path d="M23.099 352.133v-6.005c0-9.807 7.948-17.756 17.754-17.756h59.182c9.805 0 17.756 7.948 17.756 17.756v6.005c0 9.807-7.951 17.754-17.756 17.754H40.852c-9.805-.001-17.753-7.947-17.753-17.754z" fill="#585a60"></path><path d="M100.034 350.16H40.852c-7.373 0-13.694-4.495-16.377-10.894a17.706 17.706 0 0 0-1.376 6.861v6.005c0 9.807 7.948 17.754 17.754 17.754h59.182c9.805 0 17.756-7.946 17.756-17.754v-6.005c0-2.433-.491-4.749-1.376-6.861-2.686 6.399-9.008 10.894-16.381 10.894z" fill="#414356"></path><path d="M493.22 61.157c0 9.805-7.948 17.754-17.756 17.754H36.531c-9.805 0-17.756-7.948-17.756-17.754V57.21c0-9.805 7.951-17.754 17.756-17.754h438.933c9.807 0 17.756 7.948 17.756 17.754v3.947z" fill="#d6a15b"></path><path d="M475.464 59.184H36.531c-6.967 0-12.981-4.023-15.888-9.864-2.138 4.295-1.867 7.408-1.867 11.837 0 9.805 7.951 17.754 17.756 17.754h438.933c9.807 0 17.756-7.948 17.756-17.754 0-4.307.297-7.489-1.867-11.837-2.908 5.841-8.921 9.864-15.89 9.864z" fill="#c18a48"></path><path d="M493.22 21.701c0 9.807-7.948 17.756-17.756 17.756H36.531c-9.805 0-17.756-7.948-17.756-17.756v-3.945C18.775 7.95 26.726 0 36.531 0h438.933c9.807 0 17.756 7.95 17.756 17.756v3.945z" fill="#f9d391"></path><path d="M475.464 19.728H36.531c-6.967 0-12.98-4.023-15.888-9.864-2.129 4.276-1.868 7.362-1.868 11.836 0 9.807 7.951 17.756 17.756 17.756h438.933c9.807 0 17.756-7.948 17.756-17.756v-3.945c0-2.838-.683-5.512-1.867-7.891-2.908 5.842-8.92 9.864-15.889 9.864z" fill="#e8b469"></path><path d="M243.108 314.608h-6.835V511.88h19.208v-184.9c0-6.833-5.539-12.372-12.373-12.372z" fill="#aa5733"></path><path d="M488.896 353.164v-8.067c0-9.807-7.948-17.756-17.756-17.756h-59.181c-9.805 0-17.754 7.948-17.754 17.756v8.067c0 9.807 7.948 17.754 17.754 17.754h59.182c9.807-.001 17.755-7.947 17.755-17.754z" fill="#585a60"></path><path d="M471.141 351.191h-59.182c-7.76 0-14.34-4.986-16.755-11.925a17.702 17.702 0 0 0-.999 5.83v8.067c0 9.807 7.948 17.754 17.754 17.754h59.182c9.807 0 17.756-7.946 17.756-17.754 0-8.689.229-10.367-.999-13.897-2.415 6.939-8.995 11.925-16.757 11.925z" fill="#414356"></path></g></svg>