<svg viewBox="0 0 682.667 682.667" xmlns="http://www.w3.org/2000/svg"><g><defs><clippath clippathunits="userSpaceOnUse" id="a"><path d="M0 512h512V0H0Z" fill="#000000"></path></clippath></defs><g clip-path="url(#a)" transform="matrix(1.33333 0 0 -1.33333 0 682.667)"><path d="M0 0h-110.932c-15.069 0-27.285 12.216-27.285 27.285 0 45.702 37.049 82.751 82.751 82.751 45.702 0 82.751-37.049 82.751-82.751C27.285 12.216 15.069 0 0 0" fill="#fd8087" transform="translate(138.217)"></path><path d="M0 0a82.597 82.597 0 0 1-28.378-4.996c2.626-21.882 21.241-38.847 43.831-38.847 16.881 0 31.544 9.476 38.976 23.396C39.878-7.726 20.847 0 0 0" fill="#fe646f" transform="translate(82.751 110.036)"></path><path d="M0 0c-24.389 0-44.159 19.771-44.159 44.16v53.879c0 14.298 11.59 25.888 25.888 25.888h36.542c14.298 0 25.889-11.59 25.889-25.888V44.16C44.16 19.771 24.389 0 0 0" fill="#ffcebf" transform="translate(82.751 98.558)"></path><path d="M0 0v27.286C-5.577 16.177-13.508 6.739-23.129-.162a72.253 72.253 0 0 0-15.277-8.355 7.723 7.723 0 0 1-4.307-10.041 7.727 7.727 0 0 1 7.176-4.861c.955 0 1.926.179 2.865.555a87.687 87.687 0 0 1 18.55 10.144C-8.987-9.036-4.263-4.762 0 0" fill="#7a6d79" transform="translate(126.911 145.158)"></path><path d="M0 0h-36.543c-14.298 0-25.888-11.59-25.888-25.888v-32.939l37.421 12.329a47.038 47.038 0 0 0 40.98-5.653l9.919-6.676v32.939C25.889-11.59 14.298 0 0 0" fill="#c59191" transform="translate(101.022 222.484)"></path><path d="M0 0h-110.932c-15.069 0-27.285 12.216-27.285 27.284v.001c0 45.702 37.049 82.751 82.751 82.751 45.702 0 82.751-37.049 82.751-82.751v-.001C27.285 12.216 15.069 0 0 0" fill="#fee97d" transform="translate(484.715 289.516)"></path><path d="M0 0a82.505 82.505 0 0 1-29.38-5.388c5.544-18.052 22.346-31.177 42.217-31.177 15.441 0 29.022 7.93 36.916 19.935C35.904-6.193 18.677 0 0 0" fill="#fedf30" transform="translate(429.249 399.552)"></path><path d="M0 0c-24.389 0-44.16 19.771-44.16 44.16v53.879c0 14.297 11.591 25.888 25.889 25.888h36.542c14.298 0 25.888-11.591 25.888-25.888V44.16C44.159 19.771 24.389 0 0 0" fill="#ffcebf" transform="translate(429.249 388.073)"></path><path d="M0 0h-36.543c-14.298 0-25.889-11.591-25.889-25.888v-32.939l37.422 12.328a47.035 47.035 0 0 0 40.98-5.652l9.918-6.676v32.939C25.888-11.591 14.298 0 0 0" fill="#c59191" transform="translate(447.52 512)"></path><path d="M0 0h-278.149c-11.379 0-20.604 9.225-20.604 20.604v60.08a10.3 10.3 0 0 1-5.694 9.213l-15.996 7.999c-3.797 1.898-3.797 7.316 0 9.214l15.996 7.998a10.303 10.303 0 0 1 5.694 9.214v13.722c0 11.38 9.225 20.604 20.604 20.604H0c11.379 0 20.604-9.224 20.604-20.604V20.604C20.604 9.225 11.379 0 0 0" fill="#7acaa6" transform="translate(491.397 63.871)"></path><path d="M0 0h-30.905c11.379 0 20.603-9.225 20.603-20.604v-117.441c0-11.379-9.224-20.603-20.603-20.603H0c11.379 0 20.604 9.224 20.604 20.603v117.441C20.604-9.225 11.379 0 0 0" fill="#57be92" transform="translate(491.397 222.52)"></path><path d="m0 0 9.892 25.971L19.692 0Zm18.609 46.638a9.273 9.273 0 0 1-8.69 5.978h-.011a9.275 9.275 0 0 1-8.605-5.785l-.069-.175-26.186-68.758a7.724 7.724 0 0 1 4.471-9.969c3.981-1.519 8.45.482 9.969 4.47l4.627 12.149h31.409l4.577-12.127a7.728 7.728 0 0 1 7.229-5 7.727 7.727 0 0 1 7.228 10.457z" fill="#ffffff" transform="translate(245.112 133.176)"></path><path d="M0 0h-153.162a7.726 7.726 0 1 1 0-15.453H0a7.726 7.726 0 0 1 7.727 7.726A7.726 7.726 0 0 1 0 0" fill="#ffffff" transform="translate(471.082 150.922)"></path><path d="M0 0h153.162a7.726 7.726 0 0 1 7.727 7.727 7.726 7.726 0 0 1-7.727 7.726H0A7.726 7.726 0 1 1 0 0" fill="#ffffff" transform="translate(317.92 170.339)"></path><path d="M0 0h-122.257a7.726 7.726 0 0 1-7.726-7.727 7.726 7.726 0 0 1 7.726-7.726H0A7.726 7.726 0 1 1 0 0" fill="#ffffff" transform="translate(440.177 116.052)"></path><path d="M0 0h278.149c11.379 0 20.604 9.225 20.604 20.604v60.079c0 3.902 2.204 7.469 5.694 9.214l15.996 7.999c3.797 1.898 3.797 7.316 0 9.213l-15.996 7.999a10.301 10.301 0 0 0-5.694 9.214v13.722c0 11.379-9.225 20.603-20.604 20.603H0c-11.379 0-20.604-9.224-20.604-20.603V20.604C-20.604 9.225-11.379 0 0 0" fill="#7acaa6" transform="translate(20.604 353.353)"></path><path d="m0 0-15.996 7.999a10.3 10.3 0 0 0-5.694 9.214v13.722c0 11.378-9.225 20.603-20.604 20.603H-73.2c11.38 0 20.604-9.225 20.604-20.603V17.213c0-3.902 2.204-7.47 5.695-9.214L-30.905 0c3.797-1.898 3.797-7.315 0-9.214l-15.996-7.998a10.3 10.3 0 0 1-5.695-9.214v-60.08c0-11.379-9.224-20.603-20.604-20.603h30.906c11.379 0 20.604 9.224 20.604 20.603v60.08c0 3.902 2.204 7.469 5.694 9.214L0-9.214C3.797-7.315 3.797-1.898 0 0" fill="#57be92" transform="translate(341.047 460.462)"></path><path d="M0 0h-145.433a7.726 7.726 0 0 1-7.726-7.727 7.725 7.725 0 0 1 7.726-7.726H0a7.725 7.725 0 0 1 7.726 7.726A7.726 7.726 0 0 1 0 0" fill="#ffffff" transform="translate(186.35 440.402)"></path><path d="M0 0h-145.433a7.726 7.726 0 0 1-7.726-7.727 7.724 7.724 0 0 1 7.726-7.725H0a7.724 7.724 0 0 1 7.726 7.725A7.726 7.726 0 0 1 0 0" fill="#ffffff" transform="translate(186.35 475.272)"></path><path d="M0 0h-114.527a7.726 7.726 0 1 1 0-15.453H0a7.725 7.725 0 0 1 7.726 7.726A7.726 7.726 0 0 1 0 0" fill="#ffffff" transform="translate(186.35 405.532)"></path><path d="M0 0c-14.967 0-27.143 12.177-27.143 27.144 0 14.966 12.176 27.144 27.143 27.144S27.145 42.11 27.145 27.144c0-4.534-1.124-8.808-3.098-12.57l-5.754 5.755A7.727 7.727 0 0 1 7.365 9.403l5.918-5.918A26.979 26.979 0 0 0 0 0m40.603-1.981-5.305 5.304a42.366 42.366 0 0 1 7.299 23.821C42.597 50.632 23.488 69.74 0 69.74c-23.486 0-42.596-19.108-42.596-42.596 0-23.488 19.11-42.597 42.596-42.597 9.1 0 17.535 2.878 24.464 7.758l5.211-5.212a7.7 7.7 0 0 1 5.464-2.264 7.7 7.7 0 0 1 5.463 2.263 7.726 7.726 0 0 1 .001 10.927" fill="#ffffff" transform="translate(252.774 405.532)"></path></g></g></svg>