<svg viewBox="0 0 512 512" xmlns="http://www.w3.org/2000/svg"><g><path d="M343.382 226.361h1.349c18.046 0 36.092-1.061 53.999-3.331l.298-.04c16.211-71.311 16.211-142.601 0-213.902-95.345-12.117-190.69-12.117-286.055 0-16.202 71.301-16.202 142.592 0 213.902.099.009.199.02.298.04 17.907 2.271 35.953 3.331 54.008 3.331h1.349" fill="#eaeae4"></path><path d="M152.923 4.756a1142.979 1142.979 0 0 0-39.656 4.331c-16.201 71.301-16.201 142.592 0 213.902.099.01.199.021.298.04 12.945 1.642 25.963 2.641 39.006 3.075-14.387-73.792-14.264-147.566.352-221.348z" fill="#d3d3cf"></path><path d="M458.237 512V302.381H53.763V512" fill="#eaeae4"></path><path d="M151.177 512V302.381H53.763V512" fill="#d3d3cf"></path><path d="M385.141 304.756v148.447c0 9.382-3.803 17.888-9.968 24.043-6.144 6.155-14.639 9.968-24.043 9.968-18.777 0-34.011-15.234-34.011-34.011V302.384H194.877v150.819c0 9.382-3.803 17.888-9.968 24.043-6.144 6.155-14.639 9.968-24.043 9.968-18.777 0-34.011-15.234-34.011-34.011V304.756c0-19.32 5.81-37.282 15.757-52.244h.01c11.274-16.938 27.857-30.041 47.375-36.895a93.848 93.848 0 0 1 24.837-5.089h82.327a94.043 94.043 0 0 1 24.847 5.089c19.519 6.854 36.101 19.957 47.365 36.895 9.968 14.963 15.768 32.924 15.768 52.244z" fill="#f9dca2"></path><path d="M339.105 453.202V306.783c0-12.118-9.824-21.942-21.942-21.942v167.681c0 19.008 15.554 34.99 34.56 34.685a33.96 33.96 0 0 0 10.423-1.815c-13.398-4.565-23.041-17.249-23.041-32.19zM148.84 453.202V304.76c0-19.324 5.8-37.282 15.755-52.253h.009c15.805-23.757 42.061-39.948 72.213-41.982h-21.941c-30.152 2.032-56.408 18.224-72.213 41.982h-.01c-9.955 14.971-15.755 32.929-15.755 52.253v148.441c0 18.78 15.23 34.01 34.009 34.01 3.843 0 7.531-.646 10.973-1.819-13.396-4.565-23.04-17.249-23.04-32.19z" fill="#e5c691"></path><circle cx="216.752" cy="122.921" fill="#d3d3cf" r="96.778"></circle><path d="M322.008 215.617c-17.293 16.144-40.5 26.017-66.006 26.017s-48.713-9.873-66.006-26.017a93.848 93.848 0 0 1 24.837-5.089h82.327a94.082 94.082 0 0 1 24.848 5.089z" fill="#d1b182"></path><circle cx="255.998" cy="122.921" fill="#f9dca2" r="96.778"></circle><path d="M203.18 122.923c0-45.873 31.917-84.289 74.756-94.256a96.954 96.954 0 0 0-21.934-2.518c-53.447 0-96.775 43.327-96.775 96.775s43.327 96.775 96.775 96.775a96.96 96.96 0 0 0 21.934-2.518c-42.838-9.969-74.756-48.385-74.756-94.258z" fill="#e5c691"></path><path d="M343.97 82.539c-68.607-22.371-105.513 11.452-140.245 30.114-14.493 7.795-28.609 12.946-44.491 10.271 0-53.446 43.321-96.778 96.767-96.778 7.481 0 14.754.846 21.744 2.455 29.497 6.773 53.853 27.032 66.225 53.938z" fill="#d67c05"></path><path d="M224.606 162.271c0 17.34 14.057 31.397 31.397 31.397s31.397-14.057 31.397-31.397h-62.794z" fill="#455256"></path><path d="M210.737 37.373c-15.423-15.423-72.076-18.665-84.966 24.375C115.416 96.323 79.169 102.4 79.169 102.4s51.395 14.79 91.481-25.119" fill="#c16a02"></path><path d="M277.933 28.665c-39.591 9.215-69.861 42.735-74.208 83.988-14.493 7.795-28.609 12.946-44.491 10.271 0-53.446 43.321-96.778 96.767-96.778 7.481 0 14.754.846 21.744 2.455a.625.625 0 0 0 .188.064z" fill="#c16a02"></path><path d="M232.027 141.566a7.837 7.837 0 0 1-7.837-7.837v-15.984a7.837 7.837 0 0 1 7.837-7.837 7.837 7.837 0 0 1 7.837 7.837v15.984a7.838 7.838 0 0 1-7.837 7.837zM279.978 141.566a7.837 7.837 0 0 1-7.837-7.837v-15.984a7.837 7.837 0 0 1 7.837-7.837 7.837 7.837 0 0 1 7.837 7.837v15.984a7.838 7.838 0 0 1-7.837 7.837z" fill="#2f3c3f"></path></g></svg>