<svg viewBox="0 0 504.122 504.122" xmlns="http://www.w3.org/2000/svg"><g><path d="M504.121 274.042H.093v42.484-8.046 4.439l.343 8.999c2.052 35.608 26.329 71.007 73.24 98.154 98.135 56.544 258.694 56.544 356.864 0 46.907-27.148 71.121-62.547 73.2-98.154l.382-8.999v-38.877z" fill="#8fc105"></path><path d="M73.675 420.072c98.135 56.544 258.694 56.544 356.864 0 46.907-27.148 71.121-62.547 73.2-98.154l.382-8.999v-38.877H73.675v146.03z" fill="#4da004"></path><path d="M430.539 175.179c-98.174-56.623-258.729-56.623-356.864 0-98.233 56.678-98.233 149.362 0 206.045 98.135 56.615 258.694 56.615 356.864 0 98.111-56.683 98.111-149.367 0-206.045z" fill="#a7dd12"></path><path d="M73.675 381.227c98.135 56.615 258.694 56.615 356.864 0 98.107-56.686 98.107-149.37 0-206.045" fill="#98d80b"></path><path d="M165.331 414.874c55.568 11.642 116.917 11.717 172.556.209V262.695H165.331v152.179z" fill="#66bf17"></path><path d="M331.754 291.678 291.44 315.08l126.247 73.003c4.38-2.198 8.692-4.458 12.855-6.857 9.563-5.522 18.16-11.402 25.86-17.546l-124.648-72.002z" fill="#7b8271"></path><path d="m292.283 315.569 125.405 72.515c4.38-2.198 8.692-4.458 12.855-6.857 8.854-5.116 16.845-10.543 24.099-16.195l-124.085-71.68-38.274 22.217z" fill="#959e8b"></path><path d="M331.112 255.594c-4.171-5.664-10.212-10.961-18.18-15.561-33.512-19.338-88.218-19.338-121.71 0-7.983 4.6-14.037 9.897-18.215 15.561h-6.865v18.255a32.179 32.179 0 0 0 0 2.599v.378h.02c.705 12.178 9.047 24.222 25.06 33.465 33.493 19.326 88.202 19.326 121.71 0 15.99-9.244 24.32-21.287 25.025-33.465h.079v-21.232h-6.924z" fill="#729aa0"></path><path d="M312.932 310.292c15.99-9.244 24.32-21.287 25.025-33.465h.079v-21.232h-6.92c-4.171-5.664-10.212-10.961-18.18-15.561" fill="#60888c"></path><path d="M297.116 299.473c5.616-1.981 10.941-4.376 15.817-7.184 33.449-19.33 33.449-50.948 0-70.27-33.512-19.322-88.218-19.322-121.71 0-33.508 19.322-33.508 50.94 0 70.27 28.616 16.506 72.778 18.924 105.893 7.184" fill="#a3ccd3"></path><path d="M305.623 225.213c-29.483-16.991-77.623-16.991-107.091 0-29.483 17.006-29.483 44.824 0 61.83 25.183 14.525 64.031 16.648 93.176 6.325 4.943-1.745 9.626-3.856 13.915-6.325 29.436-17.01 29.436-44.824 0-61.83z" fill="#729aa0"></path><path d="M291.704 293.368c4.943-1.745 9.626-3.856 13.915-6.325 29.44-17.006 29.44-44.824 0-61.83-29.483-16.991-77.623-16.991-107.091 0" fill="#60888c"></path><path d="M305.623 232.196c-29.483-16.991-77.623-16.991-107.091 0-13.21 7.621-20.484 17.408-21.866 27.424 1.382 10.016 8.657 19.803 21.866 27.423 25.183 14.525 64.031 16.648 93.176 6.325 4.943-1.745 9.626-3.856 13.915-6.325 13.186-7.621 20.441-17.408 21.815-27.423-1.375-10.016-8.633-19.803-21.815-27.424z" fill="#14ceed"></path><path d="M305.623 238.742c-29.483-17.006-77.623-17.006-107.091 0-11.772 6.778-18.81 15.285-21.185 24.147 2.375 8.854 9.413 17.369 21.185 24.155 25.183 14.525 64.031 16.648 93.176 6.325 4.943-1.745 9.626-3.856 13.915-6.325 11.748-6.786 18.779-15.301 21.142-24.155-2.368-8.862-9.394-17.369-21.142-24.147z" fill="#15b8ea"></path><path d="M291.704 293.368c4.943-1.745 9.626-3.856 13.915-6.325 13.186-7.621 20.441-17.408 21.815-27.423-1.375-10.016-8.629-19.803-21.815-27.424-29.483-16.991-77.623-16.991-107.091 0" fill="#15b8ea"></path><path d="M308.636 285.18c.477-.307.953-.622 1.418-.937.28-.197.559-.394.835-.595.406-.28.8-.575 1.186-.859.291-.224.579-.445.863-.673.354-.264.693-.544 1.028-.819.295-.24.583-.484.874-.729.299-.256.599-.528.89-.784.291-.256.575-.528.859-.784l.768-.744.847-.859c.213-.217.406-.437.607-.658.299-.319.595-.642.878-.969.095-.102.177-.221.268-.327a36.734 36.734 0 0 0 3.111-4.222c.043-.071.083-.134.13-.201.28-.445.532-.898.788-1.343a3.18 3.18 0 0 1 .181-.323c.236-.441.457-.89.673-1.327.055-.114.114-.228.169-.347.205-.445.402-.894.587-1.347.043-.102.083-.209.122-.311.189-.465.358-.929.52-1.402.024-.079.055-.146.079-.224.161-.504.315-1 .449-1.501v-.008c-2.367-8.862-9.393-17.369-21.142-24.147-27.699-15.974-71.865-16.939-101.541-2.899l87.627 57.525c4.943-1.745 9.626-3.856 13.915-6.325.78-.453 1.54-.906 2.276-1.382.25-.156.486-.318.735-.479z" fill="#0ea7dd"></path><path d="M298.774 253.881c-.358-6.648-4.884-13.221-13.607-18.263-18.231-10.508-47.982-10.508-66.194 0-8.747 5.037-13.281 11.615-13.635 18.263h-.008v.138c-.016.469-.016.933 0 1.406v8.377c-.024.473-.024.945 0 1.414v.205h.008c.386 6.621 4.923 13.178 13.635 18.196 18.211 10.516 47.963 10.516 66.194 0 8.692-5.018 13.221-11.575 13.6-18.196h.051v-11.544h-.043v.004z" fill="#0f97db"></path><path d="M263.461 200.204H240.67V257.473h.004c.146 1.575 1.249 3.131 3.316 4.324 4.439 2.568 11.709 2.568 16.152 0 2.068-1.193 3.17-2.745 3.312-4.324h.012v-57.269h-.005z" fill="#5c6a6d"></path><path d="M241.729 258.816v.445h.012c.032.295.083.587.173.89.524.591 1.221 1.154 2.072 1.646 4.439 2.568 11.709 2.568 16.152 0 2.068-1.193 3.17-2.745 3.312-4.324h.012v-57.269H241.73l-.001 58.612z" fill="#424b4c"></path><path d="M243.111 260.238v.583h.02c.012.15.032.303.055.457.256.177.524.354.803.516 4.439 2.568 11.709 2.568 16.152 0 2.068-1.193 3.17-2.745 3.312-4.324h.012v-57.265h-20.35v60.034h-.004z" fill="#333c3d"></path><path d="M251.867 262.42V263.125h.028c.012.189.035.378.067.559.028.016.039.032.059.039 2.938.008 5.88-.63 8.121-1.922 2.068-1.193 3.17-2.745 3.312-4.324h.012v-57.273h-11.591v62.216h-.008z" fill="#212828"></path><path d="M260.137 219.703c-4.443 2.56-11.713 2.56-16.152 0-2.064-1.201-3.17-2.749-3.316-4.328h-.004v42.094h.004c.146 1.575 1.249 3.131 3.316 4.324 4.439 2.568 11.709 2.568 16.152 0 2.068-1.193 3.17-2.745 3.312-4.324h.012v-42.09h-.012c-.145 1.575-1.244 3.123-3.312 4.324z" fill="#6e7f82"></path><path d="M260.137 279.942c-4.443 2.568-11.713 2.568-16.152 0-2.064-1.193-3.17-2.745-3.316-4.317h-.004V299.304c7.55.654 15.242.65 22.792-.008v-23.67h-.012c-.141 1.571-1.24 3.123-3.308 4.316z" fill="#0f97db"></path><path d="M260.137 219.703c-4.443 2.56-11.713 2.56-16.152 0a11.117 11.117 0 0 1-.878-.579V260.821h.02c.012.15.032.303.055.457h.008c.118.083.248.169.37.256.008 0 .016 0 .02.012.13.083.276.169.41.244 4.439 2.568 11.709 2.568 16.152 0 2.068-1.193 3.17-2.745 3.312-4.324h.012V215.38h-.012c-.15 1.574-1.249 3.122-3.317 4.323z" fill="#5c6a6d"></path><path d="M251.867 262.42V263.125h.028c.012.189.035.378.067.559.028.016.039.032.059.039 1.099 0 2.202-.083 3.269-.26h.004c.331-.063.662-.13.985-.201.028-.008.043-.008.063-.008.311-.079.599-.158.902-.24.043-.016.083-.024.122-.043.272-.083.54-.173.796-.264.063-.024.126-.039.181-.071.252-.087.492-.193.729-.299.075-.028.138-.055.201-.083.303-.138.591-.288.874-.453 2.068-1.193 3.17-2.745 3.312-4.324h.012v-42.098h-.012c-.142 1.575-1.241 3.127-3.312 4.328" fill="#495456"></path><path d="M258.042 205.367a12.597 12.597 0 0 0 2.095-.961c4.431-2.56 4.431-6.754 0-9.314-4.443-2.564-11.713-2.564-16.152 0-4.435 2.56-4.435 6.754 0 9.314 3.797 2.19 9.658 2.505 14.057.961" fill="#202828"></path><path d="M295.056 196.762c-2.269-3.084-5.557-5.967-9.889-8.464-18.231-10.52-47.982-10.52-66.194 0-4.344 2.501-7.633 5.38-9.909 8.464h-3.734v9.925c-.024.473-.024.945 0 1.418v.201h.008c.386 6.617 4.923 13.17 13.635 18.2 18.211 10.508 47.963 10.508 66.194 0 8.692-5.029 13.221-11.583 13.6-18.2h.051v-11.544h-3.762z" fill="#729aa0"></path><path d="M285.166 226.505c8.692-5.029 13.221-11.583 13.6-18.2h.051v-11.544h-3.761c-2.269-3.084-5.557-5.967-9.889-8.464" fill="#60888c"></path><path d="M276.565 220.621c3.052-1.075 5.947-2.379 8.606-3.907 18.184-10.508 18.184-27.699 0-38.211-18.231-10.512-47.982-10.512-66.194 0-18.223 10.512-18.223 27.703 0 38.211 15.56 8.98 39.569 10.291 57.588 3.907" fill="#a3ccd3"></path><path d="M281.188 180.236c-16.033-9.247-42.212-9.247-58.242 0-16.03 9.248-16.03 24.375 0 33.627 13.702 7.897 34.824 9.051 50.672 3.438 2.686-.949 5.238-2.095 7.57-3.438 16.006-9.252 16.006-24.384 0-33.627z" fill="#729aa0"></path><path d="M273.619 217.301c2.686-.949 5.238-2.095 7.57-3.438 16.006-9.251 16.006-24.379 0-33.627-16.033-9.247-42.212-9.247-58.242 0" fill="#60888c"></path><path d="M281.188 184.036c-16.033-9.248-42.212-9.248-58.242 0-7.18 4.139-11.134 9.464-11.882 14.915.744 5.439 4.699 10.768 11.882 14.911 13.702 7.897 34.824 9.051 50.672 3.438 2.686-.949 5.238-2.095 7.57-3.438 7.172-4.143 11.118-9.472 11.863-14.911-.744-5.45-4.691-10.779-11.863-14.915z" fill="#14ceed"></path><path d="M281.188 187.589c-16.033-9.248-42.212-9.248-58.242 0-6.396 3.694-10.228 8.314-11.516 13.139 1.288 4.809 5.12 9.437 11.516 13.135 13.702 7.897 34.824 9.051 50.672 3.438 2.686-.949 5.238-2.095 7.57-3.438 6.392-3.694 10.212-8.326 11.496-13.135-1.287-4.825-5.103-9.445-11.496-13.139z" fill="#15b8ea"></path><path d="M273.619 217.301c2.686-.949 5.238-2.095 7.57-3.438 7.172-4.143 11.118-9.472 11.863-14.911-.74-5.451-4.687-10.776-11.863-14.915-16.033-9.248-42.212-9.248-58.242 0" fill="#15b8ea"></path><path d="M282.827 212.85c.256-.173.52-.339.776-.508.15-.114.299-.225.453-.331.221-.154.425-.307.638-.465.161-.126.319-.244.473-.366.193-.146.382-.295.555-.445.161-.13.319-.26.473-.394.169-.146.331-.284.488-.429s.311-.284.461-.429c.15-.13.284-.264.417-.41.158-.154.315-.303.457-.457.118-.118.224-.236.339-.362.161-.173.323-.351.477-.528.051-.059.098-.114.142-.177a19.595 19.595 0 0 0 1.694-2.3c.024-.039.051-.071.075-.106a23.362 23.362 0 0 0 .524-.902c.13-.24.244-.484.366-.725a4.07 4.07 0 0 0 .091-.189c.11-.244.221-.488.323-.733.02-.059.043-.11.063-.173.106-.248.201-.508.288-.76l.035-.122c.095-.272.173-.544.244-.815v-.008c-1.284-4.817-5.104-9.437-11.496-13.131-15.065-8.68-39.081-9.208-55.221-1.568l47.651 31.279c2.686-.949 5.238-2.095 7.57-3.438.425-.244.835-.496 1.241-.752.139-.083.269-.173.403-.256z" fill="#0ea7dd"></path><path d="m248.33 196.754 3.726 2.15v8.574l-3.726-2.15z" fill="#1a7ee2"></path><path d="m255.777 196.754-3.721 2.15v8.574l3.721-2.15z" fill="#1c9df4"></path><path d="M248.33 196.754v7.026l3.71 2.146v-7.03z" fill="#0658ba"></path><path d="M252.06 201.696v4.23l3.717-2.154v-7.018l-3.717 2.15z" fill="#43d3ff"></path><path d="M252.04 220.778v-14.072l-3.71-2.146v16.124c1.233.059 2.469.094 3.71.094zM252.06 220.778c1.237 0 2.489-.035 3.718-.098v-16.12l-3.718 2.143v14.075z" fill="#0f97db"></path><path d="M241.079 189.85v-4.222l10.961 6.337" fill="#444738"></path><path d="M241.079 185.628v8.448l10.961 6.352V191.965z" fill="#1a7ee2"></path><path d="M252.04 200.428V191.965l-10.961-6.337" fill="#0b66d3"></path><path d="M252.06 191.965V200.428l10.96-6.352v-8.448z" fill="#31b5ff"></path><path d="M263.02 189.85v-4.222l-10.96 6.337V200.428" fill="#1c9df4"></path><path d="m241.079 185.628 10.961 6.337 4.411-2.541 6.589-3.796-10.98-6.345z" fill="#19b8f7"></path><path d="m246.302 171.914 5.754 3.32v13.225l-5.754-3.32z" fill="#1a7ee2"></path><path d="m257.802 171.914-5.746 3.32v13.225l5.746-3.32z" fill="#1c9df4"></path><path d="M246.302 171.914v10.838l5.734 3.321v-10.847z" fill="#0658ba"></path><path d="M252.06 179.543V186.073l5.742-3.332v-10.827l-5.742 3.32z" fill="#43d3ff"></path><path d="M235.12 161.264v-6.522l16.916 9.779" fill="#444738"></path><path d="M235.12 154.742v13.04l16.916 9.791v-13.052z" fill="#1a7ee2"></path><path d="M252.036 177.573v-13.052l-16.916-9.779" fill="#0b66d3"></path><path d="M252.06 164.521v13.052l16.915-9.791v-13.04z" fill="#31b5ff"></path><path d="M268.975 161.264v-6.522l-16.915 9.779v13.052" fill="#1c9df4"></path><path d="m235.12 154.742 16.916 9.779 6.794-3.918 10.169-5.861-16.939-9.779z" fill="#19b8f7"></path><path d="M228.019 255.051c.957 0 1.926.217 2.658.63.776.453 1.209 1.067 1.209 1.753s-.429 1.315-1.221 1.772a.4.4 0 0 1-.54-.15.387.387 0 0 1 .142-.54c.52-.307.823-.701.823-1.083s-.291-.76-.811-1.063c-1.225-.701-3.304-.701-4.537 0-.532.303-.823.677-.823 1.067-.008.386.284.768.811 1.075a.4.4 0 0 1 .15.54.407.407 0 0 1-.547.15c-.78-.457-1.217-1.083-1.213-1.764 0-.685.441-1.308 1.229-1.76.736-.418 1.705-.627 2.67-.627z" fill="#71f8ff"></path><path d="M226.905 256.634c.067 0 .118.039.15.091a.175.175 0 0 1-.063.24c-.244.138-.366.303-.374.477 0 .177.13.347.366.48.555.315 1.473.315 2.028 0 .236-.134.366-.311.366-.48 0-.173-.126-.343-.362-.477a.187.187 0 0 1-.067-.24.19.19 0 0 1 .244-.071c.354.201.54.477.54.784s-.193.587-.54.792c-.658.378-1.725.378-2.379 0-.354-.205-.547-.484-.547-.792s.201-.583.547-.784a.249.249 0 0 1 .091-.02zM269.015 200.795c.965 0 1.926.213 2.658.63.78.445 1.209 1.067 1.209 1.745 0 .693-.429 1.319-1.221 1.772a.387.387 0 0 1-.54-.15.4.4 0 0 1 .142-.54c.524-.299.823-.693.823-1.083 0-.378-.288-.76-.811-1.063-1.221-.697-3.296-.697-4.533 0-.532.303-.827.685-.827 1.071s.291.768.819 1.071c.189.11.252.354.142.54a.387.387 0 0 1-.54.15c-.784-.449-1.225-1.079-1.221-1.764 0-.685.445-1.308 1.229-1.757.737-.41 1.71-.622 2.671-.622z" fill="#71f8ff"></path><path d="M267.904 202.382a.18.18 0 0 1 .15.083.169.169 0 0 1-.067.244c-.236.13-.366.303-.366.477 0 .173.122.339.358.477.555.319 1.485.319 2.032 0 .236-.13.362-.311.362-.48 0-.173-.122-.343-.358-.473-.087-.047-.11-.158-.071-.244.051-.083.161-.106.248-.067.347.201.532.48.532.78 0 .315-.193.587-.54.792-.658.382-1.721.382-2.379 0-.354-.205-.547-.477-.547-.784 0-.307.201-.587.555-.788a.325.325 0 0 1 .091-.017z" fill="#71f8ff"></path><path d="M202.25 244.854c2.249 0 4.506.488 6.211 1.473 1.824 1.044 2.82 2.501 2.828 4.092 0 1.599-1.008 3.076-2.855 4.135a.922.922 0 0 1-1.26-.339.93.93 0 0 1 .339-1.272c1.221-.697 1.922-1.623 1.922-2.525 0-.902-.677-1.784-1.887-2.485-2.867-1.638-7.723-1.638-10.614 0-1.237.709-1.926 1.595-1.926 2.509-.004.902.673 1.796 1.902 2.501.445.26.599.827.351 1.272a.938.938 0 0 1-1.272.339c-1.839-1.059-2.844-2.521-2.836-4.12.004-1.599 1.028-3.06 2.867-4.108 1.716-.984 3.973-1.472 6.23-1.472z" fill="#0691ce"></path><path d="M199.65 248.548c.142 0 .284.079.362.213a.423.423 0 0 1-.158.567c-.551.315-.855.709-.866 1.115 0 .41.307.803.859 1.122 1.28.74 3.45.74 4.73 0 .547-.319.859-.733.859-1.13 0-.398-.299-.792-.839-1.107a.404.404 0 0 1-.154-.567.416.416 0 0 1 .563-.158c.815.469 1.26 1.115 1.26 1.831 0 .725-.445 1.378-1.272 1.847-1.532.886-4.025.886-5.565 0-.815-.469-1.264-1.122-1.26-1.839 0-.717.457-1.371 1.28-1.839a.477.477 0 0 1 .201-.055zM217.925 236.528c2.249 0 4.506.484 6.211 1.469 1.824 1.04 2.82 2.493 2.828 4.084 0 1.611-1.016 3.076-2.855 4.139a.924.924 0 0 1-1.264-.339.93.93 0 0 1 .343-1.268c1.217-.701 1.922-1.623 1.922-2.525 0-.902-.673-1.784-1.89-2.485-2.863-1.638-7.719-1.638-10.606 0-1.241.709-1.93 1.591-1.93 2.501-.004.914.673 1.8 1.902 2.509a.928.928 0 0 1 .339 1.268.917.917 0 0 1-1.26.339c-1.839-1.063-2.844-2.521-2.836-4.124.004-1.599 1.02-3.056 2.867-4.1 1.719-.983 3.972-1.468 6.229-1.468z" fill="#0691ce"></path><path d="M215.329 240.219c.138 0 .284.079.362.209a.422.422 0 0 1-.158.567c-.559.319-.863.713-.863 1.119s.295.803.851 1.115c1.28.744 3.454.744 4.734 0 .547-.311.859-.717.859-1.122 0-.406-.299-.799-.839-1.111a.407.407 0 0 1-.158-.567.412.412 0 0 1 .567-.154c.815.469 1.256 1.119 1.256 1.831 0 .717-.441 1.375-1.268 1.847-1.536.886-4.029.886-5.565 0-.819-.469-1.264-1.122-1.264-1.839 0-.721.457-1.371 1.284-1.839a.392.392 0 0 1 .202-.056zM222.962 279.839c1.26 0 2.517.272 3.466.819 1.016.583 1.571 1.394 1.571 2.28 0 .898-.563 1.717-1.583 2.308a.52.52 0 0 1-.709-.189.521.521 0 0 1 .193-.709c.677-.394 1.067-.906 1.067-1.406s-.374-.996-1.059-1.386c-1.591-.914-4.301-.914-5.912 0-.697.394-1.071.886-1.071 1.394-.008.508.374 1.008 1.063 1.398a.527.527 0 0 1 .193.709.523.523 0 0 1-.709.189c-1.024-.587-1.587-1.402-1.579-2.3 0-.89.571-1.705 1.595-2.288.965-.547 2.226-.819 3.474-.819z" fill="#0691ce"></path><path d="M221.521 281.903a.24.24 0 0 1 .201.106c.059.114.024.26-.087.319-.311.177-.477.398-.477.622s.165.449.469.618c.717.414 1.922.414 2.643 0 .299-.169.473-.402.473-.622s-.165-.441-.469-.618c-.102-.067-.15-.205-.083-.319a.24.24 0 0 1 .311-.083c.449.26.709.622.709 1.02 0 .402-.256.768-.717 1.036-.859.488-2.245.492-3.1 0-.453-.264-.709-.622-.709-1.028 0-.398.256-.756.717-1.028a.32.32 0 0 1 .119-.023zM251.02 210.794c1.249 0 2.509.276 3.454.823 1.02.575 1.575 1.394 1.575 2.284 0 .89-.559 1.709-1.587 2.3a.506.506 0 0 1-.705-.193.512.512 0 0 1 .193-.701c.673-.402 1.067-.906 1.067-1.406 0-.508-.378-.996-1.052-1.386-1.599-.914-4.309-.914-5.923 0-.685.39-1.067.886-1.067 1.394 0 .5.378 1 1.059 1.398a.51.51 0 0 1 .193.701.509.509 0 0 1-.705.193c-1.028-.587-1.579-1.406-1.579-2.3.008-.89.567-1.709 1.599-2.284.961-.543 2.218-.823 3.478-.823z" fill="#0691ce"></path><path d="M249.567 212.858a.23.23 0 0 1 .201.114c.071.11.024.252-.083.315-.307.177-.48.402-.48.622 0 .232.169.445.48.622.709.414 1.918.414 2.631 0 .303-.177.477-.402.477-.622 0-.232-.165-.445-.465-.622a.235.235 0 0 1-.083-.315.235.235 0 0 1 .315-.083c.453.26.701.622.701 1.016 0 .41-.244.768-.705 1.032-.859.5-2.249.5-3.104 0-.457-.26-.713-.622-.705-1.024 0-.402.244-.76.709-1.024a.213.213 0 0 1 .111-.031zM277.947 270.301c1.26 0 2.521.272 3.47.819 1.02.579 1.571 1.394 1.571 2.28s-.563 1.717-1.587 2.304a.516.516 0 1 1-.512-.898c.673-.394 1.067-.902 1.067-1.402 0-.508-.374-.996-1.056-1.39-1.595-.914-4.305-.914-5.916 0-.693.394-1.067.898-1.067 1.394-.008.508.374 1.004 1.059 1.394a.52.52 0 0 1 .193.709.519.519 0 0 1-.709.189c-1.024-.587-1.583-1.406-1.579-2.3 0-.886.575-1.705 1.603-2.284.962-.544 2.215-.815 3.463-.815z" fill="#0691ce"></path><path d="M276.506 272.356a.23.23 0 0 1 .201.118.235.235 0 0 1-.083.315c-.311.173-.48.398-.48.618 0 .228.169.445.473.63.717.41 1.918.41 2.639 0 .307-.185.48-.41.48-.63 0-.228-.169-.445-.473-.618-.102-.067-.15-.209-.083-.315a.227.227 0 0 1 .315-.083c.449.256.701.618.701 1.012 0 .406-.248.768-.713 1.04-.855.488-2.241.488-3.1 0-.457-.268-.705-.63-.705-1.032 0-.398.248-.76.709-1.02a.22.22 0 0 1 .119-.035zM228.019 190.429c1.26 0 2.513.268 3.466.815 1.012.583 1.568 1.394 1.571 2.284 0 .902-.563 1.713-1.591 2.308a.515.515 0 0 1-.701-.189.51.51 0 0 1 .185-.705c.685-.402 1.075-.91 1.075-1.414 0-.5-.382-.996-1.059-1.386-1.599-.914-4.301-.914-5.912 0-.697.394-1.071.894-1.079 1.398 0 .504.382 1 1.063 1.398a.511.511 0 0 1 .193.705.523.523 0 0 1-.709.189c-1.02-.583-1.579-1.398-1.579-2.3.008-.89.575-1.709 1.599-2.292.965-.544 2.222-.811 3.478-.811z" fill="#0691ce"></path><path d="M226.57 192.484c.083 0 .165.047.209.118a.234.234 0 0 1-.091.315c-.303.177-.473.398-.48.622 0 .232.169.445.477.622.717.414 1.922.414 2.643 0 .299-.177.477-.41.477-.63 0-.228-.169-.445-.473-.618a.232.232 0 0 1-.087-.311c.067-.11.205-.138.319-.083.449.26.701.622.701 1.016 0 .402-.248.768-.709 1.032-.855.492-2.245.492-3.104 0-.449-.26-.705-.622-.705-1.024s.256-.76.717-1.028a.223.223 0 0 1 .106-.031z" fill="#0691ce"></path><path d="M199.966 260.033c2.166 0 4.324.469 5.963 1.406 1.741 1 2.706 2.399 2.71 3.923 0 1.54-.965 2.954-2.729 3.974a.896.896 0 0 1-1.217-.327.892.892 0 0 1 .331-1.217c1.166-.677 1.839-1.564 1.839-2.422 0-.87-.65-1.713-1.816-2.383-2.745-1.575-7.4-1.575-10.173 0-1.189.681-1.847 1.532-1.851 2.399-.008.87.65 1.725 1.827 2.406.425.24.571.788.327 1.217a.894.894 0 0 1-1.213.327c-1.764-1.02-2.725-2.418-2.721-3.958.008-1.54.981-2.93 2.753-3.938 1.645-.934 3.815-1.407 5.97-1.407z" fill="#71f8ff"></path><path d="M197.484 263.582c.134 0 .264.071.339.201a.397.397 0 0 1-.146.544c-.536.303-.827.681-.827 1.067 0 .394.291.768.819 1.075 1.229.713 3.304.713 4.537 0 .528-.299.823-.693.823-1.075 0-.394-.284-.768-.803-1.067a.397.397 0 1 1 .39-.69c.78.445 1.209 1.067 1.209 1.745 0 .693-.433 1.323-1.221 1.776-1.465.847-3.86.847-5.333 0-.78-.453-1.221-1.083-1.213-1.768 0-.681.433-1.308 1.225-1.753.06-.04.13-.055.201-.055zM295.091 242.802c2.158 0 4.32.469 5.955 1.406 1.753 1 2.71 2.391 2.71 3.923 0 1.54-.969 2.95-2.733 3.966-.417.248-.965.095-1.217-.327a.902.902 0 0 1 .331-1.217c1.174-.673 1.839-1.56 1.839-2.418 0-.866-.642-1.709-1.808-2.379-2.749-1.575-7.408-1.575-10.177 0-1.193.673-1.851 1.532-1.851 2.399-.004.87.646 1.725 1.823 2.399a.891.891 0 0 1 .331 1.217.894.894 0 0 1-1.217.327c-1.76-1.012-2.721-2.418-2.714-3.95 0-1.532.981-2.938 2.745-3.938 1.659-.935 3.821-1.408 5.983-1.408z" fill="#71f8ff"></path><path d="M292.598 246.343a.41.41 0 0 1 .351.209.413.413 0 0 1-.15.54c-.536.307-.823.685-.831 1.067 0 .394.288.772.819 1.075 1.225.713 3.308.713 4.537 0 .524-.299.823-.697.823-1.079 0-.39-.288-.764-.807-1.067a.395.395 0 0 1-.146-.54c.106-.201.35-.252.544-.15.772.445 1.213 1.067 1.213 1.753 0 .685-.437 1.312-1.225 1.768-1.469.851-3.868.851-5.333 0-.788-.457-1.217-1.079-1.217-1.764s.437-1.312 1.229-1.757a.337.337 0 0 1 .193-.055zM301.779 264.743c2.162 0 4.32.477 5.963 1.406 1.741 1.008 2.706 2.402 2.706 3.931.008 1.544-.965 2.946-2.725 3.97a.901.901 0 0 1-1.217-.331.878.878 0 0 1 .327-1.209c1.166-.681 1.843-1.56 1.839-2.426 0-.874-.65-1.713-1.816-2.387-2.741-1.568-7.404-1.568-10.173 0-1.193.677-1.851 1.532-1.851 2.402-.008.874.646 1.725 1.823 2.41.433.24.575.784.331 1.209s-.792.571-1.221.331c-1.757-1.016-2.718-2.418-2.714-3.958.008-1.536.981-2.934 2.745-3.942 1.654-.933 3.817-1.406 5.983-1.406z" fill="#71f8ff"></path><path d="M299.286 268.288c.134 0 .272.079.347.201a.405.405 0 0 1-.15.547c-.532.303-.823.681-.827 1.067 0 .398.291.776.815 1.071 1.233.717 3.312.717 4.545 0 .52-.295.823-.693.823-1.071 0-.394-.288-.768-.811-1.067a.407.407 0 0 1-.15-.547.403.403 0 0 1 .547-.146c.78.445 1.209 1.067 1.209 1.753s-.429 1.315-1.221 1.768c-1.469.847-3.86.847-5.337 0-.788-.453-1.217-1.075-1.209-1.764 0-.681.429-1.308 1.221-1.757a.405.405 0 0 1 .198-.055zM236.857 202.898c.949 0 1.894.209 2.615.622.768.437 1.189 1.052 1.189 1.717 0 .685-.417 1.3-1.197 1.745a.39.39 0 1 1-.39-.678c.516-.299.803-.685.803-1.067 0-.378-.284-.74-.792-1.04-1.209-.693-3.249-.693-4.47 0-.524.295-.811.673-.811 1.056 0 .378.284.752.803 1.056a.4.4 0 0 1 .146.536.393.393 0 0 1-.536.142c-.776-.445-1.197-1.063-1.197-1.737.004-.67.433-1.284 1.209-1.725.73-.423 1.679-.627 2.628-.627z" fill="#71f8ff"></path><path d="M235.762 204.449c.063 0 .118.039.158.091a.183.183 0 0 1-.075.24c-.236.134-.354.299-.362.469 0 .177.126.339.358.469.54.315 1.457.315 1.997 0 .232-.13.362-.299.362-.469 0-.169-.126-.339-.354-.469a.184.184 0 0 1-.071-.24.188.188 0 0 1 .244-.071c.339.201.524.473.524.768 0 .307-.185.583-.528.788-.65.366-1.701.366-2.351 0-.343-.205-.528-.48-.528-.78 0-.303.193-.575.54-.776.035-.012.055-.02.086-.02z" fill="#71f8ff"></path><path d="M409.681 184.812v-67.041H398.07v67.336h.051c.114.752.65 1.497 1.658 2.079 2.269 1.315 5.971 1.315 8.224 0 1-.583 1.524-1.327 1.631-2.079h.051v-.295h-.004z" fill="#663109"></path><path d="M400.76 117.772h-2.694v67.336h.051c.114.752.65 1.497 1.658 2.079.299.177.634.331.985.461v-69.876z" fill="#874107"></path><path d="M399.775 120.151c-2.265-1.308-2.28-3.454-.02-4.762 2.261-1.296 5.959-1.296 8.224 0 2.257 1.308 2.265 3.454.02 4.762-2.257 1.311-5.955 1.311-8.224 0z" fill="#d16f26"></path><path d="M403.875 41.641c-31.748 0-57.474 25.722-57.474 57.478 0 31.732 25.726 57.454 57.474 57.454 31.732 0 57.462-25.722 57.462-57.454.001-31.756-25.729-57.478-57.462-57.478z" fill="#0b7753"></path><path d="M398.46 43.079c-4.139 0-8.172.445-12.06 1.28-23.194 7.4-39.999 29.117-39.999 54.76 0 31.732 25.726 57.454 57.474 57.454 4.131 0 8.164-.437 12.06-1.26 23.194-7.404 39.991-29.117 39.991-54.764 0-31.744-25.73-57.47-57.466-57.47z" fill="#11996c"></path><path d="M398.46 43.079c-4.139 0-8.172.445-12.06 1.28a53.203 53.203 0 0 0-3.749 1.355c-.217.083-.425.169-.634.244-.508.213-1.008.429-1.501.65-.264.118-.528.236-.784.354-.488.236-.965.457-1.449.697-.248.126-.5.252-.748.386-.484.252-.965.504-1.453.768-.15.083-.295.177-.445.26a58.582 58.582 0 0 0-2.918 1.757c-.193.134-.394.248-.583.386-.429.28-.847.579-1.268.874-.264.185-.52.358-.78.547-.402.291-.792.595-1.185.898-.264.197-.528.414-.792.618a55.03 55.03 0 0 0-1.142.922c-.248.217-.496.441-.748.654a57.28 57.28 0 0 0-1.926 1.757c-.264.244-.532.496-.8.744-.315.311-.622.642-.929.965-.276.284-.544.567-.811.855-.295.315-.583.63-.874.969-.276.295-.544.614-.807.922-.268.323-.544.646-.811.973-.291.354-.575.729-.851 1.079-.232.291-.465.591-.681.886-.469.614-.918 1.26-1.359 1.91-.201.288-.394.595-.583.89-.268.414-.543.823-.803 1.237-.201.323-.386.646-.575.965-.248.414-.488.835-.725 1.272a22.9 22.9 0 0 0-.524.945c-.256.48-.512.969-.752 1.461-.134.268-.272.536-.402.799-.358.74-.697 1.493-1.024 2.261-.091.228-.185.453-.276.693a45.382 45.382 0 0 0-.673 1.709c-.11.299-.217.599-.327.902-.185.52-.358 1.044-.528 1.568-.106.303-.201.626-.295.933a60.962 60.962 0 0 0-.488 1.725c-.075.26-.146.524-.217.784-.217.843-.41 1.686-.583 2.54-.032.13-.047.284-.083.414a70.783 70.783 0 0 0-.382 2.174c-.051.288-.083.595-.126.89a32.566 32.566 0 0 0-.228 1.788c-.039.303-.075.634-.095.949-.063.618-.11 1.229-.142 1.855-.02.28-.043.563-.059.847a52.137 52.137 0 0 0-.071 2.721l55.887-55.891a59.535 59.535 0 0 0-3.838-.141z" fill="#14af7c"></path><path d="M346.401 99.119c0 31.732 25.726 57.454 57.474 57.454 31.732 0 57.462-25.722 57.462-57.454" fill="#0b7c6e"></path><path d="M407.294 156.479c.902-.067 1.792-.13 2.686-.232.043 0 .083-.008.134-.008a61.956 61.956 0 0 0 5.821-.929c21.933-6.999 38.152-26.813 39.834-50.629l-51.893 51.893c1.02 0 2.036-.016 3.044-.079.13 0 .248-.016.374-.016z" fill="#0c6f7a"></path><path d="M402.194 55.272c-1.91-1.099-1.918-2.914-.016-4.005 1.906-1.095 5.018-1.095 6.916 0 1.898 1.087 1.91 2.903.016 4.005-1.891 1.107-4.998 1.107-6.916 0zM366.803 92.164c-1.906-1.107-1.918-2.911-.016-4.001 1.906-1.099 5.014-1.099 6.92 0 1.898 1.087 1.91 2.891.016 4.001-1.895 1.103-5.006 1.103-6.92 0zM424.273 70.951c-1.898-1.095-1.918-2.891-.008-4.001 1.894-1.099 5.006-1.099 6.908 0 1.902 1.107 1.91 2.903.016 4.001-1.891 1.099-5.002 1.099-6.916 0zM394.624 77.918c-1.918-1.103-1.926-2.899-.028-4.001 1.906-1.107 5.014-1.107 6.92 0 1.898 1.099 1.906 2.895.016 4.001-1.886 1.107-4.998 1.107-6.908 0z" fill="#14af7c"></path><path d="M370.123 121.21c-1.906-1.099-1.914-2.907-.02-4.005 1.91-1.095 5.018-1.095 6.924 0 1.898 1.095 1.906 2.903.016 4.005-1.899 1.103-5.006 1.103-6.92 0zM429.156 109.174c-1.906-1.099-1.918-2.907-.016-4.005 1.894-1.095 5.018-1.095 6.916 0 1.902 1.095 1.918 2.903.02 4.005-1.894 1.095-5.002 1.095-6.92 0zM397.31 129.835c-1.91-1.099-1.918-2.895-.016-3.994 1.902-1.107 5.014-1.107 6.916 0 1.902 1.095 1.918 2.891.016 3.994-1.89 1.115-5.006 1.115-6.916 0z" fill="#0c6f7a"></path><path d="M435.391 89.336c-1.914-1.107-1.914-2.907-.016-4.009 1.902-1.103 5.01-1.103 6.916 0 1.902 1.099 1.902 2.899.024 4.009-1.906 1.103-5.014 1.103-6.924 0z" fill="#14af7c"></path><path d="M123.205 377.312c9.456 5.455 24.923 5.455 34.379 0 9.456-5.463 9.456-14.391 0-19.858-9.456-5.459-24.923-5.459-34.379 0-9.46 5.463-9.46 14.396 0 19.858z" fill="#97a097"></path><circle cx="135.773" cy="350.602" fill="#448406" r="29.802"></circle><path d="M131.669 323.675a29.565 29.565 0 0 0-14.931 4.017c-6.577 5.471-10.764 13.706-10.764 22.926 0 16.463 13.344 29.802 29.802 29.802a29.634 29.634 0 0 0 14.935-4.021c6.577-5.467 10.76-13.702 10.76-22.926 0-16.459-13.343-29.798-29.802-29.798z" fill="#4da004"></path><path d="M131.814 352.929c-.705-.406-1.564-.575-1.914-.374-.343.201-.063.693.634 1.091.697.41 1.56.571 1.91.378.355-.197.071-.689-.63-1.095zM115.596 345.037c-.709-.406-1.564-.575-1.914-.366-.347.193-.067.689.63 1.091.701.402 1.56.571 1.914.374.354-.193.067-.686-.63-1.099zM144.417 347.057c-.705-.41-1.564-.575-1.91-.378s-.067.701.634 1.099c.693.402 1.556.571 1.91.37.351-.189.071-.681-.634-1.091zM153.574 346.522c-.701-.41-1.564-.575-1.906-.378-.351.205-.067.697.63 1.095.693.402 1.56.571 1.91.378.359-.197.071-.69-.634-1.095zM136.411 346.242c-.705-.41-1.56-.575-1.91-.378-.351.197-.063.693.63 1.095.701.402 1.56.567 1.914.37.354-.189.071-.685-.634-1.087zM132.937 367.837c-.709-.41-1.564-.571-1.914-.366-.347.197-.063.689.63 1.087.701.402 1.56.575 1.914.378.358-.194.075-.69-.63-1.099zM154.307 359.148c-.701-.41-1.56-.575-1.91-.378-.347.205-.063.693.634 1.099.693.402 1.56.571 1.906.37.359-.189.075-.681-.63-1.091zM130.389 361.826c-.709-.41-1.564-.575-1.914-.378-.347.201-.063.693.634 1.099.697.402 1.556.563 1.91.37s.075-.685-.63-1.091zM125.737 345.037c-.709-.406-1.564-.575-1.91-.366-.351.193-.063.689.63 1.091.697.402 1.556.571 1.91.374.355-.197.071-.686-.63-1.099zM142.11 354.903c-.705-.41-1.564-.579-1.914-.378-.343.205-.063.693.634 1.095.697.402 1.56.567 1.914.374.354-.197.071-.686-.634-1.091zM146.367 338.578c-.701-.41-1.56-.575-1.91-.374-.347.201-.063.693.634 1.091.697.398 1.56.571 1.914.378.351-.201.071-.694-.638-1.095zM149.175 337.373c-.705-.41-1.564-.575-1.91-.374-.351.205-.063.697.63 1.095.697.402 1.56.571 1.91.378.359-.198.071-.69-.63-1.099zM142.996 364.052c-.709-.41-1.564-.575-1.91-.37-.351.201-.063.693.63 1.091.697.402 1.556.571 1.91.374s.071-.69-.63-1.095zM120.55 337.373c-.701-.41-1.564-.575-1.91-.37-.347.201-.063.693.634 1.091.693.402 1.56.571 1.906.378.359-.198.075-.69-.63-1.099zM134.359 336.557c-.705-.41-1.564-.575-1.914-.378-.343.201-.063.693.634 1.095.697.402 1.56.571 1.914.378.35-.197.071-.685-.634-1.095zM138.652 330.09c-.705-.406-1.564-.575-1.91-.374-.347.205-.067.697.634 1.095.693.406 1.556.575 1.91.378s.071-.693-.634-1.099zM127.159 332.111c-.705-.41-1.564-.575-1.91-.378-.347.197-.067.693.634 1.099.693.402 1.556.567 1.91.37.351-.193.071-.682-.634-1.091zM125.737 351.149c-.709-.402-1.564-.571-1.91-.366-.351.197-.063.689.63 1.087.697.41 1.556.575 1.91.378.359-.189.071-.685-.63-1.099zM119.129 354.619c-.705-.41-1.56-.575-1.91-.378-.351.197-.063.693.63 1.099.701.402 1.56.571 1.914.37.354-.193.075-.681-.634-1.091zM120.55 364.052c-.701-.41-1.564-.575-1.91-.37-.347.201-.063.693.634 1.091.693.402 1.56.571 1.906.374.359-.197.075-.69-.63-1.095z" fill="#69c90d"></path><path d="M178.666 175.71c9.452 5.463 24.923 5.463 34.379 0 9.456-5.455 9.456-14.383 0-19.846-9.456-5.467-24.927-5.467-34.379 0-9.46 5.463-9.46 14.392 0 19.846z" fill="#97a097"></path><circle cx="191.238" cy="149.023" fill="#448406" r="29.802"></circle><path d="M187.134 122.077a29.583 29.583 0 0 0-14.935 4.021c-6.577 5.467-10.764 13.706-10.764 22.926 0 16.463 13.344 29.802 29.802 29.802a29.65 29.65 0 0 0 14.939-4.021c6.569-5.467 10.756-13.706 10.756-22.926 0-16.455-13.343-29.802-29.798-29.802z" fill="#4da004"></path><path d="M187.276 151.335c-.709-.406-1.564-.575-1.914-.37-.347.201-.063.693.638 1.091.693.402 1.556.571 1.906.378.358-.201.075-.693-.63-1.099zM171.053 143.447c-.705-.41-1.564-.575-1.91-.374-.347.201-.067.697.634 1.095.693.402 1.556.575 1.91.382.359-.201.067-.694-.634-1.103zM199.879 145.467c-.709-.41-1.564-.575-1.91-.378-.351.201-.063.693.63 1.099.697.402 1.556.571 1.91.37.358-.197.075-.693-.63-1.091zM209.036 144.927c-.701-.41-1.56-.575-1.91-.374-.347.201-.063.689.634 1.095.693.402 1.56.571 1.914.37.35-.193.071-.689-.638-1.091zM191.876 144.644c-.709-.402-1.564-.575-1.914-.37-.347.201-.063.689.634 1.091.697.402 1.556.571 1.91.378.358-.201.067-.693-.63-1.099zM188.398 166.242c-.705-.402-1.564-.571-1.91-.37-.351.201-.063.693.63 1.091.697.402 1.56.575 1.914.378.355-.193.075-.689-.634-1.099zM209.772 157.558c-.709-.41-1.564-.575-1.914-.378-.347.205-.059.693.63 1.099.701.402 1.56.571 1.914.37.355-.193.071-.689-.63-1.091zM185.85 160.228c-.705-.402-1.56-.575-1.91-.37-.351.201-.063.693.63 1.091.697.41 1.56.571 1.91.378.359-.201.075-.689-.63-1.099zM181.199 143.447c-.705-.41-1.56-.575-1.91-.374-.351.201-.063.697.63 1.095.701.402 1.56.575 1.91.382.358-.201.075-.694-.63-1.103zM197.571 153.309c-.705-.41-1.564-.575-1.91-.374s-.067.693.634 1.091c.693.406 1.556.571 1.906.378.359-.201.075-.694-.63-1.095zM201.832 136.984c-.705-.41-1.564-.575-1.914-.374-.343.197-.063.693.638 1.091.693.402 1.556.571 1.906.378.359-.197.075-.69-.63-1.095zM204.64 135.782c-.709-.41-1.564-.575-1.914-.374-.351.201-.067.697.63 1.095.701.402 1.56.571 1.914.37.355-.193.072-.685-.63-1.091zM198.457 162.458c-.705-.41-1.564-.575-1.91-.37-.351.201-.063.689.63 1.087.701.406 1.56.575 1.91.378.359-.194.071-.686-.63-1.095zM176.012 135.782c-.705-.41-1.56-.575-1.91-.374-.351.201-.063.697.634 1.095.697.398 1.556.571 1.91.378.354-.201.075-.693-.634-1.099zM189.82 134.967c-.705-.41-1.564-.575-1.91-.378-.347.197-.063.693.634 1.099.693.402 1.56.567 1.906.37.359-.197.075-.685-.63-1.091zM194.113 128.496c-.701-.41-1.564-.575-1.906-.374-.351.205-.067.693.63 1.095.693.402 1.56.571 1.91.374.355-.193.075-.689-.634-1.095zM182.621 130.521c-.709-.41-1.564-.575-1.91-.378-.351.201-.063.693.634 1.099.693.402 1.556.567 1.906.37.358-.193.078-.694-.63-1.091zM181.199 149.559c-.705-.41-1.56-.571-1.91-.37-.351.201-.063.693.63 1.091.701.402 1.56.575 1.91.378.358-.193.075-.689-.63-1.099zM174.594 153.025c-.709-.41-1.564-.575-1.914-.378-.347.201-.063.693.634 1.099.697.402 1.556.567 1.91.37.355-.193.071-.689-.63-1.091zM176.012 162.458c-.705-.41-1.56-.575-1.91-.37-.351.201-.063.689.634 1.087.697.406 1.556.575 1.91.378.354-.194.075-.686-.634-1.095z" fill="#69c90d"></path><path d="M176.579 148.87c.815-.76 3.911-.658 4.99-.335 1.071.315 2.832 1.67 2.016 2.438-.815.768-3.911.662-4.99.339-1.075-.323-2.835-1.678-2.016-2.442z" fill="#efaf0f"></path><path d="M179.942 146.267c.985.532 1.887 3.493 1.926 4.616.051 1.122-.67 3.218-1.658 2.694-.989-.524-1.887-3.486-1.926-4.608-.039-1.127.674-3.23 1.658-2.702z" fill="#efaf0f"></path><path d="M180.084 151.962c-.965-.567-1.757-1.942-1.76-3.056-.008-1.122.784-1.583 1.753-1.024.969.559 1.76 1.938 1.76 3.06s-.788 1.583-1.753 1.02z" fill="#f2740c"></path><path d="M180.076 147.881c.969.563 1.76 1.938 1.76 3.06s-.788 1.579-1.753 1.02" fill="#d35e07"></path><path d="M200.178 150.796c.819-.76 3.915-.654 4.99-.339 1.071.323 2.832 1.674 2.016 2.438-.815.768-3.911.67-4.99.339-1.078-.323-2.835-1.678-2.016-2.438z" fill="#efaf0f"></path><path d="M203.546 148.196c.989.524 1.887 3.493 1.93 4.608.043 1.119-.673 3.222-1.662 2.702-.992-.532-1.887-3.493-1.93-4.616-.04-1.126.681-3.225 1.662-2.694z" fill="#efaf0f"></path><path d="M203.687 153.884c-.965-.563-1.76-1.938-1.764-3.06-.004-1.119.784-1.575 1.757-1.02.969.563 1.76 1.938 1.76 3.06s-.788 1.587-1.753 1.02z" fill="#f2740c"></path><path d="M203.68 149.803c.969.563 1.76 1.938 1.76 3.06s-.788 1.583-1.753 1.02" fill="#d35e07"></path><path d="M191.399 139.642c.823-.76 3.915-.658 4.99-.339 1.075.323 2.836 1.678 2.016 2.438-.815.768-3.911.67-4.986.343-1.078-.327-2.835-1.682-2.02-2.442z" fill="#efaf0f"></path><path d="M194.767 137.043c.985.528 1.887 3.493 1.93 4.612.043 1.119-.673 3.218-1.662 2.698-.992-.528-1.89-3.489-1.93-4.612-.04-1.131.677-3.23 1.662-2.698z" fill="#efaf0f"></path><path d="M194.905 142.734c-.969-.563-1.76-1.938-1.764-3.06s.784-1.575 1.753-1.016c.969.559 1.764 1.93 1.764 3.06.003 1.122-.788 1.579-1.753 1.016z" fill="#f2740c"></path><path d="M194.893 138.657c.969.563 1.764 1.93 1.764 3.06 0 1.119-.788 1.575-1.753 1.016" fill="#d35e07"></path><path d="M165.484 150.402c.61-.571 2.914-.492 3.714-.248.799.24 2.107 1.241 1.501 1.816-.607.571-2.911.488-3.714.248-.804-.241-2.107-1.245-1.501-1.816z" fill="#efaf0f"></path><path d="M167.993 148.464c.729.398 1.398 2.599 1.43 3.434.035.831-.496 2.395-1.233 2.009-.74-.394-1.406-2.595-1.438-3.434-.027-.839.505-2.399 1.241-2.009z" fill="#efaf0f"></path><path d="M168.096 152.702c-.721-.421-1.312-1.445-1.312-2.28-.008-.831.583-1.174 1.304-.756.725.421 1.312 1.445 1.312 2.28s-.588 1.177-1.304.756z" fill="#f2740c"></path><path d="M168.088 149.665c.725.421 1.312 1.445 1.312 2.28s-.583 1.178-1.304.756" fill="#d35e07"></path><path d="M169.175 159.811c.39-.362 1.851-.311 2.359-.161.512.154 1.339.792.953 1.154-.39.362-1.851.315-2.359.161s-1.339-.792-.953-1.154z" fill="#efaf0f"></path><path d="M170.766 158.578c.461.248.894 1.65.91 2.182.024.532-.315 1.524-.784 1.272-.469-.244-.894-1.65-.91-2.174-.02-.535.319-1.524.784-1.28z" fill="#efaf0f"></path><path d="M170.833 161.268c-.453-.264-.831-.918-.835-1.441 0-.536.374-.744.831-.484.461.26.835.914.835 1.445s-.374.748-.831.48z" fill="#f2740c"></path><path d="M170.829 159.342c.461.26.835.914.835 1.445 0 .532-.374.744-.831.48" fill="#d35e07"></path><path d="M168.348 139.441c.382-.362 1.847-.311 2.355-.161.508.154 1.343.792.953 1.154-.386.362-1.851.315-2.359.161-.508-.153-1.339-.791-.949-1.154z" fill="#efaf0f"></path><path d="M169.935 138.212c.465.252.89 1.654.906 2.186.028.524-.311 1.524-.784 1.268-.465-.244-.89-1.646-.906-2.182-.02-.527.315-1.524.784-1.272z" fill="#efaf0f"></path><path d="M170.002 140.902c-.453-.268-.831-.914-.831-1.445-.004-.532.37-.744.827-.484.457.268.831.918.831 1.445 0 .532-.374.756-.827.484z" fill="#f2740c"></path><path d="M169.998 138.973c.457.268.831.918.831 1.445 0 .532-.374.752-.827.484" fill="#d35e07"></path><path d="M191.08 171.634c.39-.362 1.851-.311 2.359-.161.508.154 1.339.792.953 1.154-.39.37-1.851.315-2.359.161-.508-.153-1.339-.791-.953-1.154z" fill="#efaf0f"></path><path d="M192.672 170.405c.461.252.89 1.654.91 2.186.02.524-.319 1.52-.784 1.268-.469-.244-.894-1.646-.91-2.178-.016-.531.319-1.524.784-1.276z" fill="#efaf0f"></path><path d="M192.738 173.095c-.457-.268-.831-.914-.835-1.445 0-.532.374-.744.831-.48.457.264.835.914.835 1.441-.003.532-.374.756-.831.484z" fill="#f2740c"></path><path d="M192.735 171.169c.457.264.835.914.835 1.441 0 .532-.374.752-.831.484" fill="#d35e07"></path><path d="M185.48 126.377c.39-.358 1.851-.311 2.359-.158.512.146 1.339.784.953 1.154-.386.358-1.851.311-2.359.158-.508-.157-1.339-.791-.953-1.154z" fill="#efaf0f"></path><path d="M187.071 125.145c.465.248.894 1.65.91 2.182.024.528-.315 1.524-.784 1.268-.469-.244-.894-1.646-.91-2.178-.015-.532.319-1.521.784-1.272z" fill="#efaf0f"></path><path d="M187.138 127.838c-.457-.264-.831-.918-.835-1.449 0-.532.374-.744.831-.48.457.264.835.918.835 1.449 0 .528-.374.744-.831.48z" fill="#f2740c"></path><path d="M187.134 125.909c.457.264.835.918.835 1.449 0 .528-.374.744-.831.48" fill="#d35e07"></path><path d="M211.194 153.99c.386-.362 1.851-.307 2.359-.161.508.154 1.335.796.949 1.154-.386.362-1.847.315-2.359.161-.508-.154-1.339-.796-.949-1.154z" fill="#efaf0f"></path><path d="M212.785 152.757c.465.252.89 1.654.906 2.178.024.536-.315 1.524-.78 1.276-.469-.244-.894-1.646-.91-2.178-.023-.532.316-1.524.784-1.276z" fill="#efaf0f"></path><path d="M212.852 155.447c-.453-.264-.831-.91-.831-1.441-.004-.532.37-.744.823-.484.461.268.835.918.835 1.445 0 .535-.374.744-.827.48z" fill="#f2740c"></path><path d="M212.844 153.517c.461.268.835.918.835 1.445 0 .54-.374.744-.827.48" fill="#d35e07"></path><path d="M202.813 167.664c.61-.567 2.914-.484 3.714-.252.796.24 2.107 1.252 1.501 1.82-.607.571-2.911.488-3.71.248-.8-.24-2.108-1.245-1.505-1.816z" fill="#efaf0f"></path><path d="M205.326 165.726c.733.398 1.398 2.599 1.434 3.438.035.831-.5 2.391-1.237 2.005-.74-.394-1.402-2.595-1.434-3.434-.031-.835.496-2.402 1.237-2.009z" fill="#efaf0f"></path><path d="M205.428 169.964c-.725-.414-1.312-1.445-1.315-2.276-.004-.831.583-1.178 1.308-.76.721.421 1.308 1.445 1.308 2.28s-.584 1.178-1.301.756z" fill="#f2740c"></path><path d="M205.42 166.928c.721.421 1.308 1.445 1.308 2.28s-.583 1.178-1.3.756" fill="#d35e07"></path><path d="M173.712 130.328c.429-.402 2.056-.347 2.623-.185.567.169 1.485.882 1.059 1.284-.429.41-2.052.351-2.619.177-.567-.17-1.489-.879-1.063-1.276z" fill="#efaf0f"></path><path d="M175.484 128.957c.52.276.989 1.835 1.016 2.422.024.583-.354 1.694-.874 1.414-.524-.276-.992-1.835-1.016-2.422-.02-.587.358-1.694.874-1.414z" fill="#efaf0f"></path><path d="M175.559 131.946c-.512-.295-.926-1.02-.926-1.603-.004-.591.41-.831.918-.54.508.291.922 1.016.922 1.607s-.41.832-.914.536z" fill="#f2740c"></path><path d="M175.551 129.804c.508.291.922 1.016.922 1.607s-.41.831-.914.536" fill="#d35e07"></path><path d="M181.187 137.377c.607-.567 2.911-.488 3.71-.248s2.107 1.241 1.501 1.816c-.607.575-2.911.492-3.714.252-.8-.248-2.104-1.252-1.497-1.82z" fill="#efaf0f"></path><path d="M183.696 135.444c.733.394 1.398 2.599 1.43 3.43.035.835-.5 2.399-1.229 2.009-.74-.394-1.406-2.599-1.438-3.43-.035-.84.5-2.407 1.237-2.009z" fill="#efaf0f"></path><path d="M183.794 139.681c-.721-.421-1.308-1.445-1.315-2.284 0-.831.583-1.174 1.308-.752.725.414 1.315 1.438 1.315 2.276 0 .831-.587 1.174-1.308.76z" fill="#f2740c"></path><path d="M183.786 136.641c.725.414 1.315 1.438 1.315 2.276 0 .835-.587 1.178-1.308.76" fill="#d35e07"></path><path d="M189.237 158.421c.607-.571 2.911-.488 3.71-.252.796.24 2.107 1.245 1.501 1.816-.607.575-2.911.496-3.71.252-.8-.241-2.111-1.249-1.501-1.816z" fill="#efaf0f"></path><path d="M191.742 156.479c.736.394 1.402 2.599 1.434 3.434.035.835-.496 2.395-1.233 2.005-.736-.394-1.402-2.595-1.43-3.43-.035-.839.496-2.399 1.229-2.009z" fill="#efaf0f"></path><path d="M191.848 160.721c-.721-.414-1.312-1.441-1.315-2.276s.583-1.178 1.308-.76c.721.414 1.312 1.445 1.312 2.276-.001.835-.588 1.181-1.305.76z" fill="#f2740c"></path><path d="M191.84 157.68c.721.414 1.312 1.445 1.312 2.276 0 .839-.587 1.185-1.304.76" fill="#d35e07"></path><path d="M179.375 167.038c.614-.567 2.914-.488 3.718-.248.8.24 2.103 1.245 1.497 1.816-.607.575-2.911.492-3.71.252-.8-.245-2.111-1.253-1.505-1.82z" fill="#efaf0f"></path><path d="M181.884 165.104c.736.398 1.406 2.599 1.438 3.43.035.835-.5 2.399-1.237 2.009-.736-.394-1.402-2.599-1.434-3.434-.031-.835.501-2.403 1.233-2.005z" fill="#efaf0f"></path><path d="M181.986 169.342c-.717-.421-1.308-1.449-1.312-2.28-.004-.835.583-1.178 1.308-.756.725.414 1.312 1.438 1.312 2.28 0 .831-.583 1.177-1.308.756z" fill="#f2740c"></path><path d="M181.983 166.305c.725.414 1.312 1.438 1.312 2.28 0 .831-.583 1.178-1.308.756" fill="#d35e07"></path><path d="M371.978 219.565c9.456 5.463 24.927 5.463 34.379 0 9.456-5.463 9.456-14.391 0-19.854-9.452-5.459-24.923-5.459-34.379 0-9.46 5.463-9.46 14.392 0 19.854z" fill="#97a097"></path><circle cx="384.549" cy="192.874" fill="#448406" r="29.802"></circle><path d="M380.446 165.931a29.62 29.62 0 0 0-14.935 4.017c-6.577 5.471-10.764 13.702-10.764 22.926 0 16.463 13.344 29.798 29.802 29.798a29.631 29.631 0 0 0 14.935-4.017c6.577-5.471 10.76-13.702 10.76-22.922 0-16.458-13.34-29.802-29.798-29.802z" fill="#4da004"></path><path d="M380.587 195.19c-.705-.406-1.564-.575-1.91-.374-.347.201-.067.697.63 1.095s1.56.571 1.914.37c.355-.193.067-.689-.634-1.091zM364.369 187.297c-.709-.406-1.564-.571-1.914-.37-.347.201-.063.693.63 1.099.701.398 1.56.567 1.914.37.354-.197.067-.693-.63-1.099zM393.19 189.31c-.705-.41-1.564-.571-1.906-.37-.351.201-.071.693.63 1.091.693.402 1.556.571 1.91.374.351-.185.071-.685-.634-1.095zM402.351 188.782c-.705-.41-1.564-.575-1.91-.378-.35.205-.067.693.63 1.099.697.402 1.56.563 1.91.37.359-.193.071-.689-.63-1.091zM385.184 188.495c-.701-.41-1.56-.575-1.91-.378-.35.209-.063.697.634 1.099.697.402 1.56.567 1.91.37.354-.189.07-.682-.634-1.091zM381.71 210.097c-.705-.41-1.564-.571-1.914-.37-.343.197-.063.693.634 1.091.697.398 1.56.571 1.914.378.354-.201.071-.693-.634-1.099zM403.08 201.409c-.701-.41-1.56-.575-1.91-.378-.347.205-.063.697.634 1.095.693.402 1.56.571 1.91.378.354-.201.071-.685-.634-1.095zM379.162 204.079c-.709-.41-1.564-.575-1.914-.374-.347.201-.063.689.634 1.095.697.402 1.556.571 1.91.378.358-.197.075-.689-.63-1.099zM374.51 187.297c-.705-.406-1.564-.571-1.91-.37-.35.201-.063.693.63 1.099.697.398 1.556.567 1.91.37.355-.197.075-.693-.63-1.099zM390.882 197.163c-.705-.41-1.564-.579-1.91-.378-.347.201-.067.689.63 1.095.697.406 1.56.571 1.914.37.359-.193.071-.685-.634-1.087zM395.14 180.834c-.701-.41-1.56-.575-1.906-.374-.351.201-.067.689.63 1.095.697.402 1.56.571 1.914.37.354-.189.071-.685-.638-1.091zM397.948 179.625c-.705-.402-1.564-.571-1.91-.37-.351.201-.063.693.63 1.091.697.41 1.56.575 1.91.378.359-.189.075-.685-.63-1.099zM391.769 206.308c-.709-.41-1.564-.575-1.91-.374-.351.201-.063.697.63 1.095.697.402 1.56.571 1.91.374.358-.197.071-.693-.63-1.095zM369.323 179.625c-.701-.402-1.564-.571-1.906-.366-.351.197-.067.689.63 1.087.693.41 1.56.575 1.91.378.355-.189.071-.685-.634-1.099zM383.135 178.81c-.709-.41-1.568-.571-1.914-.37-.347.201-.067.689.63 1.091.701.402 1.56.571 1.914.378.355-.197.072-.689-.63-1.099zM387.428 172.347c-.709-.406-1.564-.575-1.914-.374-.347.201-.063.697.634 1.095.697.406 1.556.575 1.91.378.355-.197.071-.689-.63-1.099zM375.932 174.364c-.705-.402-1.564-.575-1.906-.37-.35.201-.071.689.63 1.091.693.41 1.556.571 1.91.374.355-.194.071-.686-.634-1.095zM374.51 193.41c-.705-.41-1.564-.575-1.91-.37-.35.197-.063.693.63 1.091.697.402 1.556.571 1.91.378.359-.197.075-.689-.63-1.099zM367.902 196.872c-.705-.402-1.56-.571-1.91-.37-.351.201-.063.689.63 1.091.701.402 1.56.571 1.914.374.354-.197.074-.686-.634-1.095zM369.323 206.308c-.701-.41-1.564-.575-1.906-.374-.351.201-.067.697.63 1.095.693.402 1.56.571 1.91.374.351-.197.071-.693-.634-1.095z" fill="#69c90d"></path><path d="M420.488 296.507c9.456 5.459 24.927 5.459 34.379 0 9.456-5.463 9.456-14.391 0-19.858-9.452-5.455-24.923-5.455-34.379 0-9.464 5.467-9.464 14.395 0 19.858z" fill="#97a097"></path><circle cx="433.071" cy="269.824" fill="#448406" r="29.802"></circle><path d="M428.952 242.873a29.58 29.58 0 0 0-14.935 4.017c-6.577 5.471-10.764 13.702-10.764 22.922 0 16.463 13.344 29.806 29.802 29.806a29.634 29.634 0 0 0 14.935-4.021c6.577-5.467 10.76-13.702 10.76-22.922 0-16.462-13.336-29.802-29.798-29.802z" fill="#4da004"></path><path d="M429.093 272.128c-.705-.402-1.564-.575-1.91-.37-.347.201-.067.693.63 1.091.697.406 1.56.571 1.914.374.355-.197.071-.689-.634-1.095zM412.875 264.239c-.709-.406-1.564-.575-1.914-.37-.347.197-.063.689.63 1.095.701.402 1.56.571 1.914.37.354-.193.071-.689-.63-1.095zM441.697 266.256c-.705-.41-1.564-.575-1.906-.374-.351.201-.071.697.63 1.095.693.402 1.556.571 1.91.374.35-.193.07-.686-.634-1.095zM450.861 265.72c-.705-.41-1.564-.575-1.91-.378-.35.209-.067.697.63 1.099.697.402 1.56.567 1.91.374.359-.197.067-.689-.63-1.095zM433.69 265.437c-.701-.41-1.56-.575-1.91-.378-.35.205-.063.697.634 1.095.697.398 1.56.571 1.91.37.354-.189.074-.682-.634-1.087zM430.216 287.035c-.705-.41-1.564-.571-1.914-.37-.343.201-.063.693.634 1.091s1.56.575 1.914.378c.354-.197.071-.693-.634-1.099zM451.586 278.351c-.701-.41-1.56-.575-1.91-.378-.347.201-.063.693.634 1.095.693.406 1.56.571 1.91.374.351-.197.075-.686-.634-1.091zM427.672 281.025c-.709-.41-1.564-.575-1.914-.378-.347.201-.063.689.634 1.095.697.402 1.556.567 1.91.374.358-.193.075-.689-.63-1.091zM423.016 264.239c-.705-.406-1.564-.575-1.91-.37-.347.197-.063.689.63 1.095.697.402 1.56.571 1.91.37.359-.193.075-.689-.63-1.095zM439.389 274.105c-.705-.41-1.564-.583-1.91-.378-.347.201-.067.689.63 1.091.697.41 1.56.571 1.914.374.354-.197.071-.689-.634-1.087zM443.65 257.772c-.701-.41-1.56-.575-1.906-.37-.351.201-.067.689.63 1.091.697.402 1.56.571 1.914.374.351-.193.067-.685-.638-1.095zM446.454 256.571c-.705-.406-1.564-.575-1.91-.374-.351.201-.063.697.63 1.095.697.406 1.56.575 1.91.378.359-.197.075-.689-.63-1.099zM440.275 283.25c-.709-.41-1.564-.575-1.91-.37-.351.197-.063.693.634 1.091.693.402 1.556.571 1.906.37.358-.193.075-.689-.63-1.091zM417.833 256.571c-.701-.406-1.564-.575-1.906-.366-.351.193-.067.689.63 1.087.693.406 1.56.575 1.91.378s.071-.689-.634-1.099zM431.646 255.756c-.709-.41-1.568-.575-1.914-.374-.347.201-.067.693.63 1.095.701.402 1.56.567 1.914.374.354-.201.067-.69-.63-1.095zM435.938 249.289c-.709-.41-1.564-.575-1.914-.37-.347.197-.063.693.634 1.091s1.556.571 1.91.378c.355-.201.068-.693-.63-1.099zM424.442 251.309c-.705-.406-1.564-.575-1.906-.374-.351.201-.071.693.63 1.099.693.402 1.556.567 1.91.37.355-.201.067-.689-.634-1.095zM423.016 270.352c-.705-.406-1.564-.571-1.91-.37-.347.201-.063.693.63 1.091.697.406 1.56.575 1.91.378.359-.197.075-.694-.63-1.099zM416.408 273.814c-.705-.406-1.56-.575-1.91-.374-.351.201-.063.693.63 1.095.701.402 1.56.571 1.914.374.354-.197.075-.686-.634-1.095zM417.833 283.25c-.701-.41-1.564-.575-1.906-.37-.351.197-.067.693.63 1.091.693.402 1.56.571 1.91.37.355-.193.071-.689-.634-1.091z" fill="#69c90d"></path><path d="M96.931 223.35c-1.343-.776-1.343-2.04 0-2.808l64.319-37.14c1.335-.768 3.529-.768 4.864 0l15.888 9.173c1.343.772 1.343 2.044 0 2.812l-64.315 37.14c-1.339.768-3.533.768-4.868 0l-15.888-9.177z" fill="#252828"></path><path d="M170.234 173.135v20.07l-1.418-.811-1.217-20.776z" fill="#3b4f4d"></path><path d="M170.234 173.135v20.07l1.406-.811 1.225-20.776z" fill="#648280"></path><path d="m172.865 171.618-2.631 1.517v20.07" fill="#4e6866"></path><path d="m167.599 171.618 2.635 1.517 2.631-1.517-2.631-1.524z" fill="#5b2907"></path><path d="M174.818 197.341c.532 0 1.044-.28 1.323-.768a1.525 1.525 0 0 0-.559-2.083l-10.464-6.042a1.536 1.536 0 0 0-2.08.559c-.417.733-.173 1.67.555 2.083l10.464 6.038c.242.146.502.213.761.213z" fill="#648280"></path><path d="m164.185 189.07 10.461 6.042c.733.417.981 1.355.563 2.083-.024.035-.055.071-.075.098a1.23 1.23 0 0 1-.319.047c-.256 0-.52-.071-.76-.217l-10.464-6.038a1.526 1.526 0 0 1-.555-2.083.464.464 0 0 1 .071-.102 1.518 1.518 0 0 1 1.078.17z" fill="#3b4f4d"></path><path d="M106.624 226.087a1.13 1.13 0 0 1-.567-2.103l62.393-36.021a1.134 1.134 0 0 1 1.54.414 1.134 1.134 0 0 1-.41 1.54l-62.393 36.021a1.09 1.09 0 0 1-.563.149z" fill="#648280"></path><path d="M111.059 231.259c.532 0 1.044-.272 1.323-.764a1.518 1.518 0 0 0-.559-2.079l-10.457-6.038a1.523 1.523 0 1 0-1.524 2.638l10.461 6.046c.236.134.5.197.756.197z" fill="#648280"></path><path d="m100.429 222.988 10.461 6.046c.733.414.985 1.347.563 2.076-.024.047-.051.079-.075.11a1.498 1.498 0 0 1-1.075-.166l-10.461-6.046a1.524 1.524 0 0 1-.563-2.083c.024-.032.047-.071.075-.106a1.51 1.51 0 0 1 1.075.169z" fill="#3b4f4d"></path><path d="m168.45 187.967-62.389 36.021a.967.967 0 0 0-.228.181c.213.213.496.323.792.323.189 0 .386-.051.563-.15l62.393-36.021a1 1 0 0 0 .225-.177 1.126 1.126 0 0 0-1.356-.177z" fill="#4e6866"></path><path d="M105.836 207.596v20.075l-1.41-.82-1.225-20.779z" fill="#3b4f4d"></path><path d="M105.836 207.596v20.075l1.41-.82 1.221-20.779z" fill="#648280"></path><path d="m108.467 206.072-2.631 1.524v20.075" fill="#4e6866"></path><path d="m103.201 206.072 2.635 1.524 2.631-1.524-2.631-1.516z" fill="#5b2907"></path><path d="m182.341 170.472-16.223-6.491c-1.335-.776-3.529-.776-4.864 0L97.36 200.865l-.859-1.824c-1.339.768-.91 4.112.429 4.884l15.888 9.173c1.335.772 3.529.772 4.868 0l64.315-37.136c1.348-.767 1.679-4.714.34-5.49z" fill="#3b4f4d"></path><path d="M96.931 200.826c-1.343-.776-1.343-2.04 0-2.816l64.319-37.14c1.335-.764 3.529-.764 4.864 0l15.888 9.177c1.343.776 1.343 2.04 0 2.816l-64.315 37.136c-1.339.768-3.533.768-4.868 0l-15.888-9.173z" fill="#4e6866"></path><path d="M166.118 160.874c-1.335-.764-3.529-.764-4.864 0L97.36 197.766l15.462 8.925c1.335.776 3.529.776 4.868 0l63.89-36.888-15.462-8.929z" fill="#729390"></path><path d="m97.361 197.766 15.462 8.925c1.335.776 3.529.776 4.868 0l63.89-36.888" fill="#648280"></path><path d="M272.24 389.648c1.343-.776 1.343-2.04 0-2.808l-64.319-37.14c-1.335-.768-3.529-.768-4.864 0l-15.888 9.173c-1.343.772-1.343 2.044 0 2.812l64.315 37.14c1.339.768 3.533.768 4.868 0l15.888-9.177z" fill="#252828"></path><path d="M198.942 339.432v20.067l1.413-.812 1.221-20.771z" fill="#3b4f4d"></path><path d="M198.942 339.432v20.067l-1.41-.812-1.221-20.771z" fill="#648280"></path><path d="m196.311 337.916 2.631 1.516v20.067" fill="#4e6866"></path><path d="m201.576 337.916-2.634 1.516-2.631-1.516 2.631-1.524z" fill="#5b2907"></path><path d="M194.357 363.638c-.532 0-1.044-.28-1.323-.768a1.525 1.525 0 0 1 .559-2.083l10.465-6.042a1.53 1.53 0 0 1 2.079.559c.417.733.173 1.67-.555 2.087l-10.464 6.034a1.515 1.515 0 0 1-.761.213z" fill="#648280"></path><path d="m204.987 355.363-10.461 6.042a1.525 1.525 0 0 0-.563 2.083c.024.035.055.071.075.098.102.028.213.047.319.047.256 0 .52-.071.76-.217l10.464-6.034a1.53 1.53 0 0 0 .555-2.087.464.464 0 0 0-.071-.102 1.564 1.564 0 0 0-1.078.17z" fill="#3b4f4d"></path><path d="M262.548 392.385a1.13 1.13 0 0 0 .567-2.103l-62.393-36.017a1.13 1.13 0 0 0-1.54.41 1.134 1.134 0 0 0 .41 1.54l62.393 36.021c.177.106.374.149.563.149z" fill="#648280"></path><path d="M258.113 397.552a1.511 1.511 0 0 1-1.323-.764 1.518 1.518 0 0 1 .559-2.079l10.457-6.038a1.523 1.523 0 1 1 1.524 2.638l-10.461 6.046a1.483 1.483 0 0 1-.756.197z" fill="#648280"></path><path d="m268.743 389.285-10.461 6.046a1.513 1.513 0 0 0-.563 2.076c.024.047.051.079.075.11a1.498 1.498 0 0 0 1.075-.166l10.461-6.046a1.524 1.524 0 0 0 .563-2.083c-.024-.032-.047-.071-.075-.106a1.49 1.49 0 0 0-1.075.169z" fill="#3b4f4d"></path><path d="m200.722 354.265 62.393 36.021a.967.967 0 0 1 .228.181 1.11 1.11 0 0 1-.792.323c-.189 0-.386-.051-.563-.15l-62.393-36.021a.972.972 0 0 1-.224-.177c.35-.351.906-.441 1.351-.177z" fill="#4e6866"></path><path d="M263.335 373.894v20.07l1.414-.819 1.221-20.775z" fill="#3b4f4d"></path><path d="M263.335 373.894v20.07l-1.41-.819-1.221-20.775z" fill="#648280"></path><path d="m260.704 372.37 2.631 1.524v20.07" fill="#4e6866"></path><path d="m265.97 372.37-2.635 1.524-2.631-1.524 2.631-1.517z" fill="#5b2907"></path><path d="m186.831 336.77 16.223-6.491c1.335-.776 3.529-.776 4.864 0l63.894 36.884.859-1.823c1.339.768.91 4.112-.429 4.884l-15.888 9.173c-1.335.772-3.529.772-4.868 0l-64.315-37.136c-1.345-.769-1.675-4.715-.34-5.491z" fill="#3b4f4d"></path><path d="M272.24 367.12c1.343-.772 1.343-2.036 0-2.812l-64.319-37.14c-1.335-.764-3.529-.764-4.864 0l-15.888 9.177c-1.343.776-1.343 2.04 0 2.82l64.315 37.132c1.339.768 3.533.768 4.868 0l15.888-9.177z" fill="#4e6866"></path><path d="M203.057 327.168c1.335-.764 3.529-.764 4.864 0l63.894 36.892-15.462 8.925c-1.335.776-3.529.776-4.868 0l-63.89-36.888 15.462-8.929z" fill="#729390"></path><path d="m271.815 364.063-15.462 8.925c-1.335.776-3.529.776-4.868 0l-63.89-36.888" fill="#648280"></path><path d="M305.997 398.048c9.456 5.455 24.923 5.455 34.379 0 9.456-5.463 9.456-14.391 0-19.854s-24.923-5.463-34.379 0c-9.46 5.463-9.46 14.396 0 19.854z" fill="#97a097"></path><circle cx="318.58" cy="371.358" fill="#448406" r="29.802"></circle><path d="M314.468 344.411a29.65 29.65 0 0 0-14.935 4.017c-6.577 5.471-10.768 13.706-10.768 22.93 0 16.463 13.344 29.798 29.802 29.798a29.646 29.646 0 0 0 14.939-4.017c6.573-5.471 10.756-13.706 10.756-22.922.001-16.459-13.343-29.806-29.794-29.806z" fill="#4da004"></path><path d="M314.606 373.669c-.705-.406-1.564-.575-1.914-.366-.343.197-.063.685.638 1.091.693.402 1.556.571 1.91.37.359-.193.075-.689-.634-1.095zM298.388 365.781c-.709-.41-1.564-.575-1.914-.374-.347.201-.063.697.634 1.095.697.398 1.556.575 1.91.378.354-.197.067-.69-.63-1.099zM327.209 367.797c-.705-.41-1.564-.575-1.91-.378-.347.209-.063.697.634 1.099.693.402 1.556.571 1.91.374.355-.197.071-.689-.634-1.095zM336.37 367.258c-.705-.402-1.564-.571-1.91-.37-.351.201-.067.693.63 1.091.693.402 1.56.571 1.914.378.355-.198.071-.69-.634-1.099zM319.206 366.982c-.709-.41-1.564-.575-1.914-.378-.347.201-.063.693.638 1.095.693.406 1.556.571 1.906.378.359-.201.075-.689-.63-1.095zM315.729 388.58c-.701-.41-1.564-.575-1.91-.378-.35.201-.063.701.634 1.099.693.402 1.56.571 1.91.378.354-.197.075-.689-.634-1.099zM337.103 379.892c-.705-.41-1.564-.575-1.914-.378-.343.205-.059.697.634 1.095.697.402 1.56.571 1.914.37.35-.189.067-.681-.634-1.087zM313.184 382.566c-.705-.41-1.56-.575-1.91-.378-.351.197-.063.701.63 1.099.697.402 1.56.571 1.91.37.359-.197.075-.685-.63-1.091zM308.529 365.781c-.705-.41-1.56-.575-1.91-.374-.35.201-.063.697.63 1.095.701.402 1.56.575 1.91.378.359-.194.079-.69-.63-1.099zM324.901 375.643c-.705-.41-1.564-.575-1.906-.37-.351.197-.071.685.63 1.091.693.402 1.556.571 1.91.37.359-.193.071-.69-.634-1.091zM329.163 359.318c-.705-.41-1.564-.575-1.91-.374-.347.197-.067.689.634 1.087.693.41 1.556.575 1.91.378.354-.189.071-.686-.634-1.091zM331.971 358.112c-.709-.41-1.564-.571-1.914-.37-.35.201-.063.693.63 1.091.701.402 1.56.575 1.914.374.355-.193.075-.689-.63-1.095zM325.788 384.796c-.705-.41-1.564-.579-1.91-.378-.35.201-.063.693.63 1.091.701.406 1.56.575 1.91.378.358-.197.075-.69-.63-1.091zM303.342 358.112c-.701-.41-1.56-.571-1.906-.37-.35.201-.067.693.63 1.091.697.398 1.56.575 1.914.378.351-.197.071-.693-.638-1.099zM317.151 357.297c-.705-.41-1.564-.575-1.906-.378-.35.209-.067.697.63 1.099.693.402 1.56.571 1.91.374.358-.197.07-.689-.634-1.095zM321.447 350.83c-.705-.41-1.564-.575-1.91-.374-.35.201-.067.693.63 1.095.697.402 1.56.567 1.91.374.359-.189.075-.685-.63-1.095zM309.951 352.851c-.705-.41-1.564-.575-1.906-.37-.35.201-.067.689.63 1.091.693.402 1.556.571 1.91.374.355-.197.075-.69-.634-1.095zM308.529 371.897c-.705-.41-1.56-.575-1.91-.378-.35.197-.063.701.63 1.099.701.402 1.56.571 1.91.378.359-.201.079-.693-.63-1.099zM301.924 375.359c-.709-.402-1.564-.575-1.914-.37-.347.201-.063.689.634 1.091s1.556.571 1.91.374c.355-.197.075-.689-.63-1.095zM303.342 384.796c-.701-.41-1.56-.579-1.906-.378-.35.201-.067.693.63 1.091.697.406 1.56.575 1.914.378.351-.197.071-.69-.638-1.091z" fill="#69c90d"></path><path d="M303.909 371.204c.815-.76 3.911-.662 4.99-.339 1.075.319 2.836 1.674 2.016 2.442-.815.768-3.911.658-4.986.335-1.078-.319-2.839-1.678-2.02-2.438z" fill="#efaf0f"></path><path d="M307.281 368.605c.985.532 1.883 3.493 1.926 4.608.047 1.122-.673 3.222-1.662 2.702-.989-.52-1.887-3.493-1.926-4.616-.044-1.119.673-3.226 1.662-2.694z" fill="#efaf0f"></path><path d="M307.415 374.296c-.965-.567-1.757-1.942-1.76-3.06-.008-1.122.784-1.579 1.753-1.02.969.559 1.76 1.942 1.76 3.056-.001 1.126-.788 1.587-1.753 1.024z" fill="#f2740c"></path><path d="M307.407 370.215c.969.563 1.76 1.942 1.76 3.056 0 1.122-.788 1.583-1.753 1.024" fill="#d35e07"></path><path d="M327.509 373.134c.819-.764 3.915-.662 4.994-.347 1.067.323 2.828 1.678 2.013 2.442-.815.768-3.911.666-4.99.343-1.076-.327-2.833-1.678-2.017-2.438z" fill="#efaf0f"></path><path d="M330.876 370.526c.989.532 1.887 3.493 1.93 4.616.043 1.115-.67 3.218-1.658 2.694-.996-.524-1.89-3.493-1.93-4.616-.043-1.122.677-3.221 1.658-2.694z" fill="#efaf0f"></path><path d="M331.018 376.218c-.965-.563-1.76-1.938-1.764-3.06-.004-1.122.784-1.575 1.757-1.02.969.563 1.76 1.938 1.76 3.056-.001 1.134-.788 1.591-1.753 1.024z" fill="#f2740c"></path><path d="M331.01 372.137c.969.563 1.76 1.938 1.76 3.056 0 1.13-.788 1.587-1.753 1.024" fill="#d35e07"></path><path d="M318.734 361.98c.819-.76 3.911-.662 4.986-.343 1.075.319 2.836 1.674 2.02 2.442-.815.768-3.911.666-4.99.339-1.075-.323-2.835-1.674-2.016-2.438z" fill="#efaf0f"></path><path d="M322.097 359.377c.985.528 1.887 3.493 1.93 4.612.043 1.115-.67 3.222-1.662 2.698-.992-.524-1.887-3.489-1.93-4.612-.035-1.131.678-3.226 1.662-2.698z" fill="#efaf0f"></path><path d="M322.239 365.064c-.969-.563-1.76-1.938-1.764-3.06-.004-1.118.784-1.575 1.753-1.016.969.559 1.764 1.938 1.764 3.06s-.788 1.587-1.753 1.016z" fill="#f2740c"></path><path d="M322.227 360.988c.969.563 1.764 1.938 1.764 3.06s-.788 1.583-1.753 1.016" fill="#d35e07"></path><path d="M292.815 372.74c.61-.571 2.914-.488 3.714-.248.799.24 2.107 1.241 1.501 1.816-.607.571-2.91.492-3.71.252-.804-.249-2.112-1.253-1.505-1.82z" fill="#efaf0f"></path><path d="M295.324 370.798c.733.398 1.398 2.603 1.43 3.434.039.831-.496 2.395-1.233 2.009-.74-.394-1.402-2.599-1.434-3.43-.032-.843.5-2.403 1.237-2.013z" fill="#efaf0f"></path><path d="M295.43 375.04c-.725-.417-1.311-1.441-1.315-2.28-.004-.831.583-1.174 1.308-.756.721.417 1.308 1.441 1.308 2.28-.001.831-.588 1.173-1.301.756z" fill="#f2740c"></path><path d="M295.422 371.999c.721.417 1.308 1.441 1.308 2.28 0 .835-.583 1.178-1.3.756" fill="#d35e07"></path><path d="M296.505 382.141c.39-.362 1.855-.307 2.359-.161.512.154 1.339.792.953 1.154-.39.37-1.847.315-2.359.161-.508-.154-1.335-.792-.953-1.154z" fill="#efaf0f"></path><path d="M298.096 380.912c.465.252.894 1.654.91 2.186.024.528-.315 1.52-.784 1.268-.465-.244-.894-1.646-.91-2.178-.015-.531.32-1.524.784-1.276z" fill="#efaf0f"></path><path d="M298.167 383.602c-.457-.268-.835-.918-.839-1.445 0-.532.374-.744.835-.48.457.264.831.914.831 1.449 0 .527-.374.748-.827.476z" fill="#f2740c"></path><path d="M298.163 381.676c.457.264.831.914.831 1.449 0 .528-.374.744-.827.477" fill="#d35e07"></path><path d="M295.678 361.779c.386-.362 1.847-.315 2.355-.169.512.154 1.343.792.953 1.154-.386.37-1.851.315-2.355.169-.508-.161-1.339-.792-.953-1.154z" fill="#efaf0f"></path><path d="M297.269 360.546c.465.248.894 1.65.91 2.182.024.528-.315 1.524-.784 1.272s-.894-1.65-.91-2.182c-.023-.527.315-1.524.784-1.272z" fill="#efaf0f"></path><path d="M297.332 363.24c-.453-.264-.831-.918-.831-1.449-.004-.528.37-.744.827-.48.461.264.835.918.835 1.449s-.374.744-.831.48z" fill="#f2740c"></path><path d="M297.328 361.307c.461.264.835.918.835 1.449s-.374.744-.831.48" fill="#d35e07"></path><path d="M318.411 393.972c.39-.362 1.851-.315 2.359-.161.512.154 1.339.784.953 1.154-.39.362-1.847.311-2.359.161-.508-.153-1.339-.791-.953-1.154z" fill="#efaf0f"></path><path d="M320.002 392.739c.465.248.894 1.65.91 2.182.02.528-.319 1.524-.784 1.272-.469-.244-.894-1.65-.91-2.182-.019-.523.319-1.52.784-1.272z" fill="#efaf0f"></path><path d="M320.069 395.429c-.457-.264-.831-.918-.835-1.449 0-.532.374-.74.835-.477.453.26.831.914.831 1.445 0 .529-.374.749-.831.481z" fill="#f2740c"></path><path d="M320.069 393.503c.453.26.831.914.831 1.445 0 .528-.374.744-.831.48" fill="#d35e07"></path><path d="M312.81 348.711c.39-.362 1.855-.315 2.359-.161.512.15 1.339.792.953 1.154-.386.362-1.847.315-2.359.161-.508-.153-1.339-.791-.953-1.154z" fill="#efaf0f"></path><path d="M314.401 347.483c.469.248.894 1.654.91 2.182.024.528-.315 1.524-.784 1.272-.465-.244-.894-1.65-.91-2.178-.019-.532.32-1.532.784-1.276z" fill="#efaf0f"></path><path d="M314.472 350.173c-.461-.268-.835-.918-.839-1.449 0-.528.374-.74.835-.48.453.264.831.914.831 1.445s-.374.751-.827.484z" fill="#f2740c"></path><path d="M314.468 348.243c.453.264.831.914.831 1.445 0 .532-.374.748-.827.484" fill="#d35e07"></path><path d="M338.529 376.32c.386-.354 1.847-.303 2.355-.154.508.146 1.339.792.953 1.154-.386.362-1.851.311-2.359.154-.512-.146-1.339-.792-.949-1.154z" fill="#efaf0f"></path><path d="M340.116 375.091c.465.248.89 1.65.91 2.182s-.319 1.52-.784 1.276c-.469-.252-.894-1.654-.91-2.186s.315-1.52.784-1.272z" fill="#efaf0f"></path><path d="M340.183 377.781c-.453-.268-.831-.914-.831-1.445-.004-.528.37-.744.823-.48.465.264.835.918.835 1.449s-.371.744-.827.476z" fill="#f2740c"></path><path d="M340.175 375.855c.465.264.835.918.835 1.449s-.37.744-.827.477" fill="#d35e07"></path><path d="M330.143 389.998c.614-.567 2.914-.488 3.718-.248.796.236 2.103 1.245 1.497 1.816-.607.571-2.911.492-3.71.252s-2.107-1.249-1.505-1.82z" fill="#efaf0f"></path><path d="M332.656 388.061c.733.398 1.402 2.603 1.434 3.434.035.839-.5 2.395-1.237 2.009-.736-.394-1.402-2.599-1.434-3.43-.027-.84.501-2.403 1.237-2.013z" fill="#efaf0f"></path><path d="M332.759 392.298c-.725-.417-1.312-1.441-1.315-2.276-.004-.835.583-1.178 1.308-.76s1.311 1.441 1.311 2.28c-.001.835-.584 1.178-1.304.756z" fill="#f2740c"></path><path d="M332.751 389.262c.725.417 1.311 1.441 1.311 2.28 0 .835-.583 1.178-1.304.756" fill="#d35e07"></path><path d="M301.046 352.658c.433-.402 2.056-.347 2.623-.177.567.169 1.489.878 1.059 1.28-.429.402-2.052.35-2.619.181-.567-.17-1.492-.883-1.063-1.284z" fill="#efaf0f"></path><path d="M302.818 351.295c.516.272.989 1.831 1.012 2.418.024.583-.354 1.69-.874 1.414s-.992-1.835-1.016-2.426c-.019-.583.359-1.69.878-1.406z" fill="#efaf0f"></path><path d="M302.889 354.28c-.512-.291-.926-1.016-.926-1.607-.004-.583.41-.831.918-.536.508.295.926 1.016.926 1.607s-.41.836-.918.536z" fill="#f2740c"></path><path d="M302.881 352.138c.512.295.926 1.016.926 1.607s-.41.835-.918.536" fill="#d35e07"></path><path d="M308.517 359.711c.607-.567 2.911-.492 3.71-.252.8.244 2.107 1.245 1.501 1.82-.603.575-2.911.496-3.71.248-.8-.244-2.107-1.244-1.501-1.816z" fill="#efaf0f"></path><path d="M311.026 357.778c.736.394 1.398 2.595 1.43 3.426.035.839-.496 2.402-1.229 2.013-.74-.394-1.402-2.595-1.434-3.434-.039-.836.497-2.403 1.233-2.005z" fill="#efaf0f"></path><path d="M311.125 362.012c-.717-.421-1.304-1.445-1.311-2.28 0-.835.583-1.174 1.304-.752.725.414 1.315 1.441 1.315 2.276-.001.834-.588 1.173-1.308.756z" fill="#f2740c"></path><path d="M311.117 358.975c.725.414 1.315 1.441 1.315 2.276 0 .835-.587 1.178-1.308.756" fill="#d35e07"></path><path d="M316.568 380.759c.61-.571 2.914-.492 3.714-.256.796.24 2.107 1.248 1.497 1.82-.607.571-2.911.492-3.71.244-.8-.241-2.112-1.249-1.501-1.808z" fill="#efaf0f"></path><path d="M319.072 378.821c.736.394 1.406 2.591 1.438 3.43.032.831-.5 2.399-1.237 2.009-.733-.394-1.402-2.599-1.43-3.43-.035-.843.501-2.403 1.229-2.009z" fill="#efaf0f"></path><path d="M319.179 383.055c-.721-.417-1.312-1.441-1.315-2.28-.004-.831.583-1.17 1.308-.752.725.417 1.315 1.441 1.315 2.272-.001.839-.587 1.177-1.308.76z" fill="#f2740c"></path><path d="M319.171 380.018c.725.414 1.315 1.441 1.315 2.272 0 .843-.587 1.182-1.308.76" fill="#d35e07"></path><path d="M306.71 389.372c.61-.567 2.914-.484 3.714-.252.8.24 2.107 1.252 1.501 1.82-.61.575-2.911.496-3.714.252-.8-.241-2.112-1.249-1.501-1.82z" fill="#efaf0f"></path><path d="M309.218 387.434c.733.402 1.402 2.607 1.434 3.438.035.831-.5 2.395-1.233 2.005-.74-.398-1.406-2.595-1.438-3.434-.031-.835.501-2.403 1.237-2.009z" fill="#efaf0f"></path><path d="M309.317 391.672c-.717-.414-1.308-1.445-1.311-2.276-.004-.831.583-1.178 1.308-.756.725.421 1.312 1.441 1.312 2.28-.001.831-.584 1.177-1.309.752z" fill="#f2740c"></path><path d="M309.313 388.639c.725.417 1.312 1.441 1.312 2.28 0 .831-.583 1.178-1.308.752" fill="#d35e07"></path><path d="M72.58 253.42c9.456 5.459 24.923 5.459 34.379 0s9.456-14.387 0-19.854c-9.456-5.463-24.923-5.463-34.379 0-9.464 5.463-9.464 14.396 0 19.854z" fill="#97a097"></path><circle cx="85.148" cy="226.737" fill="#448406" r="29.802"></circle><path d="M81.048 199.782a29.612 29.612 0 0 0-14.935 4.021c-6.577 5.463-10.768 13.702-10.768 22.922 0 16.463 13.344 29.802 29.802 29.802a29.609 29.609 0 0 0 14.939-4.021c6.573-5.467 10.756-13.706 10.756-22.922.004-16.458-13.339-29.802-29.794-29.802z" fill="#4da004"></path><path d="M81.185 229.041c-.705-.41-1.564-.575-1.914-.37-.343.201-.063.689.638 1.091.693.402 1.556.571 1.91.374.355-.193.075-.685-.634-1.095zM64.967 221.149c-.709-.41-1.564-.571-1.914-.37-.347.201-.063.693.634 1.091.697.398 1.556.575 1.91.378.358-.19.071-.686-.63-1.099zM93.789 223.169c-.705-.41-1.564-.575-1.91-.378-.347.205-.063.697.634 1.099.693.406 1.556.567 1.91.374.354-.197.071-.689-.634-1.095zM102.953 222.633c-.705-.41-1.564-.575-1.91-.378-.351.201-.067.693.63 1.095.697.402 1.56.571 1.914.374.355-.193.067-.689-.634-1.091zM85.786 222.35c-.709-.406-1.564-.575-1.914-.374-.347.201-.063.689.634 1.095.697.402 1.556.571 1.91.378.358-.197.075-.69-.63-1.099zM82.308 243.948c-.705-.406-1.564-.575-1.91-.37-.351.201-.063.693.63 1.091.697.402 1.56.575 1.914.378.354-.197.075-.689-.634-1.099zM103.682 235.264c-.705-.41-1.564-.575-1.914-.378-.343.201-.059.693.634 1.095.697.402 1.56.571 1.914.37.351-.189.071-.685-.634-1.087zM79.764 237.934c-.705-.406-1.56-.575-1.91-.37-.351.201-.063.693.63 1.091.697.41 1.56.571 1.91.374.358-.193.079-.685-.63-1.095zM75.108 221.149c-.705-.41-1.56-.571-1.91-.37s-.063.693.63 1.091c.701.402 1.56.575 1.91.378.359-.19.079-.686-.63-1.099zM91.485 231.01c-.705-.41-1.564-.575-1.906-.37-.351.201-.071.689.63 1.091.693.402 1.556.571 1.91.374s.067-.685-.634-1.095zM95.746 214.689c-.705-.41-1.564-.575-1.914-.37-.343.193-.063.689.638 1.087.693.406 1.556.575 1.91.378.355-.197.067-.689-.634-1.095zM98.55 213.484c-.709-.41-1.564-.575-1.914-.374-.351.201-.063.697.63 1.095.701.406 1.56.575 1.914.374.355-.189.071-.681-.63-1.095zM92.367 240.163c-.705-.41-1.564-.575-1.91-.374-.351.201-.063.689.63 1.087.701.41 1.56.575 1.91.378.358-.189.079-.685-.63-1.091zM69.925 213.484c-.701-.41-1.56-.575-1.91-.374-.347.201-.063.697.634 1.095.697.406 1.56.575 1.914.378.351-.193.071-.685-.638-1.099zM83.734 212.669c-.705-.41-1.564-.575-1.906-.378-.351.205-.067.697.63 1.095.693.41 1.56.571 1.91.378.358-.197.067-.685-.634-1.095zM88.031 206.202c-.705-.41-1.568-.575-1.91-.378-.351.205-.067.693.63 1.099.697.402 1.56.571 1.91.37.358-.189.071-.681-.63-1.091zM76.534 208.222c-.705-.41-1.564-.575-1.91-.374-.347.201-.063.693.634 1.095.693.402 1.556.567 1.91.374.355-.197.071-.689-.634-1.095zM75.108 227.265c-.705-.41-1.56-.571-1.91-.37-.351.201-.063.693.63 1.091.701.402 1.56.575 1.91.378.359-.193.079-.689-.63-1.099zM68.508 230.731c-.709-.406-1.564-.575-1.914-.374-.347.201-.063.693.634 1.095.697.402 1.556.567 1.91.374.354-.197.071-.69-.63-1.095zM69.925 240.163c-.701-.41-1.56-.575-1.91-.374-.347.201-.063.689.634 1.087.697.41 1.56.575 1.914.378.351-.189.071-.685-.638-1.091z" fill="#69c90d"></path><path d="M70.489 226.572c.815-.76 3.911-.658 4.99-.335 1.071.319 2.836 1.674 2.016 2.442-.815.768-3.911.658-4.986.335-1.075-.319-2.84-1.678-2.02-2.442z" fill="#efaf0f"></path><path d="M73.86 223.972c.985.532 1.883 3.493 1.922 4.612.051 1.126-.67 3.218-1.658 2.698-.989-.52-1.887-3.489-1.926-4.612-.043-1.118.677-3.229 1.662-2.698z" fill="#efaf0f"></path><path d="M73.994 229.663c-.965-.563-1.757-1.938-1.76-3.056-.008-1.122.784-1.579 1.753-1.02.969.559 1.76 1.938 1.76 3.06s-.788 1.58-1.753 1.016z" fill="#f2740c"></path><path d="M73.986 225.587c.969.563 1.76 1.938 1.76 3.06 0 1.119-.788 1.575-1.753 1.016" fill="#d35e07"></path><path d="M94.092 228.506c.819-.76 3.915-.658 4.994-.343 1.067.319 2.828 1.674 2.013 2.442-.815.768-3.911.666-4.99.339-1.076-.323-2.832-1.678-2.017-2.438z" fill="#efaf0f"></path><path d="M97.455 225.898c.989.528 1.887 3.493 1.93 4.612.043 1.115-.67 3.222-1.658 2.698-.996-.528-1.89-3.493-1.93-4.616-.043-1.118.678-3.218 1.658-2.694z" fill="#efaf0f"></path><path d="M97.597 231.589c-.965-.563-1.76-1.938-1.764-3.06-.004-1.115.784-1.575 1.757-1.016.969.563 1.76 1.938 1.76 3.056.004 1.127-.788 1.588-1.753 1.02z" fill="#f2740c"></path><path d="M97.589 227.513c.969.563 1.76 1.938 1.76 3.056 0 1.126-.788 1.587-1.753 1.02" fill="#d35e07"></path><path d="M85.313 217.352c.819-.76 3.911-.662 4.986-.339 1.075.319 2.836 1.674 2.02 2.438-.819.768-3.911.67-4.99.339-1.079-.323-2.835-1.678-2.016-2.438z" fill="#efaf0f"></path><path d="M88.68 214.749c.985.524 1.887 3.493 1.93 4.608.043 1.119-.673 3.222-1.662 2.702-.992-.532-1.887-3.493-1.93-4.616-.039-1.123.678-3.222 1.662-2.694z" fill="#efaf0f"></path><path d="M88.822 220.44c-.969-.563-1.76-1.938-1.764-3.06-.004-1.119.784-1.575 1.753-1.016.969.559 1.764 1.934 1.764 3.06 0 1.118-.788 1.579-1.753 1.016z" fill="#f2740c"></path><path d="M88.81 216.363c.969.563 1.764 1.934 1.764 3.06 0 1.119-.788 1.579-1.753 1.016" fill="#d35e07"></path><path d="M59.394 228.112c.61-.571 2.914-.492 3.714-.252.8.24 2.107 1.245 1.501 1.816-.607.571-2.911.492-3.71.252-.8-.249-2.108-1.249-1.505-1.816z" fill="#efaf0f"></path><path d="M61.907 226.174c.733.394 1.398 2.599 1.43 3.43.039.831-.496 2.399-1.233 2.009s-1.402-2.595-1.434-3.43c-.035-.839.496-2.403 1.237-2.009z" fill="#efaf0f"></path><path d="M62.005 230.412c-.721-.421-1.308-1.445-1.312-2.284-.004-.831.583-1.17 1.304-.752.725.417 1.312 1.441 1.312 2.276 0 .835-.583 1.173-1.304.76z" fill="#f2740c"></path><path d="M61.997 227.371c.725.417 1.312 1.441 1.312 2.276 0 .839-.583 1.178-1.304.76" fill="#d35e07"></path><path d="M63.088 237.517c.39-.362 1.855-.311 2.359-.161.512.154 1.339.796.953 1.154-.39.366-1.847.315-2.359.161-.508-.154-1.339-.796-.953-1.154z" fill="#efaf0f"></path><path d="M64.679 236.28c.465.252.894 1.654.91 2.186.024.532-.315 1.524-.784 1.268-.469-.244-.894-1.646-.91-2.17-.019-.536.32-1.528.784-1.284z" fill="#efaf0f"></path><path d="M64.746 238.974c-.457-.264-.835-.914-.839-1.441 0-.536.374-.74.835-.48.457.26.831.914.831 1.445s-.37.744-.827.476z" fill="#f2740c"></path><path d="M64.742 237.048c.457.26.831.914.831 1.445 0 .532-.374.744-.827.477" fill="#d35e07"></path><path d="M62.261 217.151c.386-.362 1.847-.315 2.355-.165.512.154 1.343.796.953 1.154-.386.366-1.851.315-2.355.165-.512-.158-1.343-.792-.953-1.154z" fill="#efaf0f"></path><path d="M63.848 215.918c.465.248.894 1.654.91 2.182.024.528-.315 1.524-.784 1.272-.469-.252-.894-1.65-.91-2.186-.019-.519.32-1.52.784-1.268z" fill="#efaf0f"></path><path d="M63.915 218.612c-.453-.268-.831-.918-.831-1.449-.004-.528.37-.74.827-.48.461.264.835.914.835 1.445s-.374.752-.831.484z" fill="#f2740c"></path><path d="M63.911 216.682c.461.264.835.914.835 1.445 0 .532-.374.752-.831.484" fill="#d35e07"></path><path d="M84.99 249.344c.39-.362 1.855-.315 2.359-.161.512.154 1.339.788.953 1.154-.39.366-1.851.315-2.359.161s-1.339-.796-.953-1.154z" fill="#efaf0f"></path><path d="M86.581 248.111c.461.248.894 1.65.91 2.182.02.528-.319 1.52-.784 1.272-.469-.244-.894-1.65-.91-2.182-.019-.523.319-1.516.784-1.272z" fill="#efaf0f"></path><path d="M86.652 250.805c-.461-.268-.835-.918-.839-1.449 0-.528.374-.74.831-.48.457.264.835.914.835 1.445s-.374.748-.827.484z" fill="#f2740c"></path><path d="M86.644 248.871c.457.264.835.914.835 1.445 0 .532-.374.748-.827.484" fill="#d35e07"></path><path d="M79.39 204.079c.39-.358 1.855-.311 2.359-.158.512.15 1.339.788.953 1.154-.386.358-1.847.311-2.359.158-.508-.153-1.335-.791-.953-1.154z" fill="#efaf0f"></path><path d="M80.981 202.85c.469.252.894 1.654.91 2.186.024.524-.315 1.524-.784 1.268-.465-.244-.894-1.646-.91-2.178-.016-.531.319-1.528.784-1.276z" fill="#efaf0f"></path><path d="M81.052 205.54c-.461-.264-.835-.914-.839-1.445 0-.532.374-.744.835-.484.453.268.831.918.831 1.449 0 .528-.375.752-.827.48z" fill="#f2740c"></path><path d="M81.048 203.611c.453.268.831.918.831 1.449 0 .528-.374.748-.827.48" fill="#d35e07"></path><path d="M105.108 231.692c.386-.358 1.847-.303 2.355-.158.508.15 1.339.792.953 1.154-.386.362-1.851.315-2.359.158-.508-.15-1.335-.792-.949-1.154z" fill="#efaf0f"></path><path d="M106.699 230.467c.465.248.89 1.65.906 2.178.028.532-.315 1.524-.776 1.276-.473-.248-.898-1.65-.914-2.178-.02-.54.315-1.532.784-1.276z" fill="#efaf0f"></path><path d="M106.762 233.149c-.453-.264-.831-.91-.831-1.441-.004-.528.37-.74.823-.48.465.264.835.914.835 1.445 0 .535-.366.748-.827.476z" fill="#f2740c"></path><path d="M106.754 231.227c.465.264.835.914.835 1.445 0 .536-.37.744-.827.477" fill="#d35e07"></path><path d="M96.727 245.374c.614-.571 2.914-.488 3.718-.252.796.24 2.103 1.245 1.497 1.816s-2.911.492-3.71.252-2.112-1.249-1.505-1.816z" fill="#efaf0f"></path><path d="M99.235 243.436c.733.394 1.402 2.599 1.434 3.434.035.835-.5 2.395-1.237 2.005-.736-.394-1.402-2.595-1.434-3.43-.027-.843.505-2.403 1.237-2.009z" fill="#efaf0f"></path><path d="M99.342 247.674c-.725-.417-1.312-1.445-1.315-2.276-.004-.839.583-1.178 1.308-.76.725.417 1.312 1.441 1.312 2.276-.002.835-.588 1.174-1.305.76z" fill="#f2740c"></path><path d="M99.334 244.634c.725.417 1.312 1.441 1.312 2.276 0 .839-.583 1.178-1.304.76" fill="#d35e07"></path><path d="M67.625 208.03c.433-.402 2.056-.343 2.623-.181.567.169 1.489.878 1.059 1.284-.429.406-2.052.347-2.619.177-.566-.17-1.492-.879-1.063-1.28z" fill="#efaf0f"></path><path d="M69.398 206.667c.516.276.989 1.831 1.012 2.422.024.583-.354 1.69-.874 1.414s-.993-1.839-1.016-2.422c-.016-.591.358-1.702.878-1.414z" fill="#efaf0f"></path><path d="M69.472 209.648c-.512-.291-.926-1.016-.926-1.599-.004-.591.41-.835.918-.54.512.291.926 1.016.926 1.607s-.409.835-.918.532z" fill="#f2740c"></path><path d="M69.465 207.51c.512.291.926 1.016.926 1.607s-.41.831-.918.532" fill="#d35e07"></path><path d="M75.097 215.079c.607-.563 2.911-.488 3.71-.248.8.244 2.107 1.241 1.501 1.82-.603.571-2.911.492-3.71.248-.8-.244-2.108-1.249-1.501-1.82z" fill="#efaf0f"></path><path d="M77.605 213.15c.736.394 1.398 2.595 1.43 3.43.035.831-.496 2.399-1.229 2.009-.74-.394-1.402-2.599-1.438-3.434-.031-.836.505-2.403 1.237-2.005z" fill="#efaf0f"></path><path d="M77.704 217.387c-.717-.425-1.304-1.449-1.312-2.284 0-.835.583-1.178 1.304-.752.725.414 1.315 1.438 1.315 2.276 0 .831-.586 1.178-1.307.76z" fill="#f2740c"></path><path d="M77.7 214.351c.725.414 1.315 1.438 1.315 2.276 0 .831-.587 1.178-1.308.76" fill="#d35e07"></path><path d="M83.147 236.126c.61-.571 2.911-.492 3.714-.252.796.24 2.103 1.245 1.497 1.816-.607.575-2.911.492-3.71.248-.8-.236-2.112-1.244-1.501-1.812z" fill="#efaf0f"></path><path d="M85.652 234.189c.736.394 1.406 2.599 1.438 3.43.032.835-.5 2.399-1.237 2.009-.733-.394-1.402-2.599-1.43-3.43-.032-.84.5-2.403 1.229-2.009z" fill="#efaf0f"></path><path d="M85.758 238.427c-.721-.421-1.312-1.445-1.315-2.28s.583-1.174 1.308-.756c.725.417 1.315 1.445 1.315 2.276 0 .838-.587 1.181-1.308.76z" fill="#f2740c"></path><path d="M85.75 235.39c.725.414 1.315 1.445 1.315 2.276 0 .839-.587 1.182-1.308.76" fill="#d35e07"></path><path d="M73.289 244.744c.61-.563 2.914-.484 3.714-.248.8.24 2.107 1.249 1.501 1.82-.61.571-2.914.492-3.714.252-.8-.249-2.108-1.257-1.501-1.824z" fill="#efaf0f"></path><path d="M75.798 242.81c.733.394 1.402 2.599 1.434 3.43.035.831-.5 2.399-1.233 2.009-.74-.394-1.406-2.599-1.438-3.438-.028-.831.504-2.399 1.237-2.001z" fill="#efaf0f"></path><path d="M75.896 247.048c-.717-.417-1.308-1.449-1.312-2.28s.583-1.178 1.308-.752c.725.414 1.312 1.438 1.312 2.276.004.827-.583 1.173-1.308.756z" fill="#f2740c"></path><path d="M75.896 244.011c.725.414 1.312 1.438 1.312 2.276 0 .831-.583 1.178-1.308.756" fill="#d35e07"></path><path d="M119.869 385.256v-67.033h-11.615v67.336h.051c.118.752.65 1.501 1.662 2.08 2.265 1.319 5.967 1.319 8.22 0 1-.579 1.524-1.327 1.631-2.08h.055v-.303h-.004z" fill="#663109"></path><path d="M110.948 318.224h-2.698v67.336h.051c.118.752.65 1.501 1.662 2.08.295.181.63.327.985.461v-69.877z" fill="#874107"></path><path d="M109.964 320.603c-2.269-1.315-2.284-3.454-.02-4.769 2.257-1.292 5.955-1.292 8.22 0 2.261 1.315 2.269 3.454.02 4.769-2.253 1.307-5.956 1.307-8.22 0z" fill="#d16f26"></path><path d="M114.064 242.089c-31.752 0-57.474 25.726-57.474 57.482 0 31.728 25.722 57.454 57.474 57.454 31.728 0 57.458-25.726 57.458-57.454 0-31.756-25.73-57.482-57.458-57.482z" fill="#0b7753"></path><path d="M108.644 243.527c-4.139 0-8.168.445-12.056 1.276-23.198 7.4-39.999 29.117-39.999 54.764 0 31.728 25.722 57.454 57.474 57.454 4.128 0 8.16-.441 12.056-1.264 23.194-7.4 39.991-29.117 39.991-54.76.001-31.748-25.726-57.47-57.466-57.47z" fill="#11996c"></path><path d="M108.644 243.527c-4.139 0-8.168.445-12.056 1.276a50.965 50.965 0 0 0-3.753 1.363c-.217.079-.425.161-.634.244-.504.213-1.008.429-1.501.65-.264.118-.524.24-.784.354-.488.236-.965.453-1.449.701-.244.122-.5.248-.748.386-.48.252-.965.5-1.449.768-.15.079-.299.169-.449.256a61.282 61.282 0 0 0-2.918 1.757c-.193.13-.394.252-.583.386-.429.284-.847.579-1.264.87-.268.193-.524.362-.78.555-.402.288-.792.591-1.185.894-.268.197-.528.414-.796.618a37.47 37.47 0 0 0-1.142.926c-.248.213-.496.437-.744.65-.662.575-1.3 1.154-1.926 1.757-.268.244-.536.5-.8.744-.319.315-.626.646-.933.965-.276.28-.544.567-.807.859-.299.311-.583.622-.878.961-.272.299-.544.622-.807.929-.264.319-.544.638-.807.969-.295.354-.575.725-.855 1.083-.232.291-.465.587-.681.878a47.054 47.054 0 0 0-1.359 1.914c-.201.291-.394.599-.583.89-.268.414-.544.823-.799 1.237-.201.323-.386.642-.575.965-.252.414-.492.831-.729 1.268-.181.315-.358.63-.524.953-.256.477-.508.961-.752 1.461-.13.26-.272.532-.402.8a49.403 49.403 0 0 0-1.024 2.257c-.087.228-.185.457-.272.689-.232.571-.461 1.122-.677 1.717-.106.295-.217.591-.323.902-.185.516-.358 1.048-.528 1.568-.11.307-.201.63-.299.933-.169.575-.331 1.15-.484 1.725-.079.256-.15.516-.217.784a47.89 47.89 0 0 0-.583 2.536c-.035.134-.051.28-.083.414a66.756 66.756 0 0 0-.382 2.174c-.051.291-.083.599-.122.894a32.422 32.422 0 0 0-.232 1.784 15.71 15.71 0 0 0-.095.949c-.059.618-.11 1.233-.142 1.851-.02.284-.043.571-.059.851a56.964 56.964 0 0 0-.067 2.721l55.887-55.891a59.887 59.887 0 0 0-3.846-.145z" fill="#14af7c"></path><path d="M56.59 299.567c0 31.728 25.722 57.454 57.474 57.454 31.728 0 57.458-25.726 57.458-57.454" fill="#0b7c6e"></path><path d="M117.478 356.927c.902-.063 1.796-.122 2.686-.224.043 0 .087-.008.134-.008a64.343 64.343 0 0 0 5.821-.937c21.933-6.999 38.156-26.809 39.834-50.625l-51.889 51.889c1.016 0 2.032-.016 3.04-.083.13.004.252-.012.374-.012z" fill="#0c6f7a"></path><path d="M112.378 255.724c-1.91-1.099-1.918-2.911-.016-4.005 1.906-1.099 5.018-1.099 6.92 0 1.894 1.091 1.906 2.903.016 4.005-1.89 1.103-5.002 1.103-6.92 0zM76.991 292.616c-1.91-1.103-1.918-2.911-.016-4.005 1.902-1.099 5.01-1.099 6.916 0 1.898 1.091 1.91 2.899.016 4.005-1.891 1.095-5.002 1.095-6.916 0zM134.457 271.403c-1.898-1.099-1.918-2.895-.008-4.005 1.898-1.095 5.01-1.095 6.908 0 1.902 1.107 1.91 2.903.02 4.005-1.89 1.103-5.002 1.099-6.92 0zM104.808 278.374c-1.918-1.107-1.926-2.907-.028-4.005 1.91-1.103 5.018-1.103 6.924 0 1.894 1.095 1.902 2.895.016 4.005-1.89 1.107-5.001 1.107-6.912 0z" fill="#14af7c"></path><path d="M80.307 321.658c-1.906-1.095-1.914-2.899-.016-4.001 1.91-1.099 5.018-1.099 6.92 0 1.902 1.099 1.906 2.903.016 4.001-1.894 1.099-5.002 1.099-6.92 0zM139.341 309.618c-1.906-1.095-1.918-2.899-.016-4.001 1.898-1.099 5.018-1.099 6.92 0 1.902 1.099 1.914 2.903.02 4.001-1.899 1.103-5.006 1.103-6.924 0zM107.494 330.283c-1.91-1.095-1.918-2.895-.016-3.998 1.906-1.103 5.018-1.103 6.92 0 1.898 1.099 1.914 2.899.016 3.998-1.894 1.119-5.006 1.119-6.92 0z" fill="#0c6f7a"></path><path d="M145.575 289.78c-1.914-1.107-1.914-2.899-.016-4.001 1.902-1.107 5.01-1.107 6.92 0 1.902 1.099 1.902 2.891.02 4.001-1.906 1.107-5.013 1.107-6.924 0z" fill="#14af7c"></path></g></svg>