<svg viewBox="0 0 511.996 511.996" xmlns="http://www.w3.org/2000/svg"><g><path d="M478.289 447.096a1876.796 1876.796 0 0 1-4.713 57.638 3362.427 3362.427 0 0 1-441.723 0 1877.053 1877.053 0 0 1-4.713-57.638c-6.767-101.828-5.196-203.646 4.713-305.474a3362.427 3362.427 0 0 1 441.723 0c9.909 101.828 11.48 203.646 4.713 305.474z" fill="#f6f9f9"></path><path d="M478.289 447.096a1876.796 1876.796 0 0 1-4.713 57.638 3362.427 3362.427 0 0 1-441.723 0 1877.053 1877.053 0 0 1-4.713-57.638z" fill="#bcdf95"></path><path d="m222.66 341.495-66.227-41.261v-16.699c10.023-2.05 18.537-8.105 24.007-17.317 7.171-12.074 7.771-27.278 1.527-38.732a7.727 7.727 0 0 0-13.568 7.395c3.629 6.658 3.128 16.081-1.246 23.446-2.336 3.935-7.84 10.537-18.447 10.537-20.777 0-37.68-16.904-37.68-37.68s16.903-37.68 37.68-37.68 37.679 16.903 37.679 37.68a7.726 7.726 0 1 0 15.452 0c0-29.297-23.835-53.133-53.132-53.133-29.298 0-53.133 23.836-53.133 53.133 0 26.673 19.759 48.811 45.407 52.565v16.764l-56.956 30.696a7.727 7.727 0 0 0 7.332 13.603l49.624-26.744v42.157l-44.49 94.012a7.727 7.727 0 0 0 13.968 6.61l38.249-80.823 38.248 80.823a7.727 7.727 0 1 0 13.968-6.609l-44.489-94.012V318.44l58.056 36.17a7.717 7.717 0 0 0 10.642-2.472 7.726 7.726 0 0 0-2.471-10.643z" fill="#dd636e"></path><path d="m335.024 372.478-46.455-28.943v-8.957a41.306 41.306 0 0 0 1.688-.312c10.527-2.227 19.557-8.421 25.426-17.44 5.647-8.679 6.252-18.997 1.66-28.31-4.787-9.709-14.392-16.49-24.47-17.276-4.268-.323-7.973 2.849-8.304 7.103s2.848 7.972 7.103 8.304c4.605.359 9.462 3.938 11.812 8.703 1.521 3.087 2.626 7.856-.753 13.049-3.618 5.559-9.183 9.377-15.672 10.75-6.49 1.372-13.124.137-18.683-3.48a24.677 24.677 0 0 1-10.751-15.672c-1.373-6.489-.138-13.124 3.48-18.683 3.805-5.847 10.4-10.674 17.643-12.91 4.234-1.308 12.373-2.828 19.293 1.674 3.578 2.328 8.362 1.315 10.69-2.262s1.315-8.363-2.262-10.69c-9.043-5.884-20.507-7.123-32.281-3.486-10.747 3.318-20.236 10.334-26.035 19.247-5.869 9.019-7.874 19.783-5.646 30.31 2.227 10.527 8.421 19.556 17.44 25.425a40.288 40.288 0 0 0 13.169 5.563v6.146l-54.542-.003a7.727 7.727 0 0 0 0 15.453l54.542.003v31.489l-31.69 66.965a7.727 7.727 0 0 0 13.968 6.609l25.449-53.775 25.448 53.775a7.727 7.727 0 0 0 13.968-6.61l-31.689-66.965v-25.529l38.284 23.852a7.717 7.717 0 0 0 10.642-2.472 7.727 7.727 0 0 0-2.472-10.645z" fill="#80b4fb"></path><path d="M403.269 277.111c-27.311 0-49.53-22.219-49.53-49.53s22.219-49.53 49.53-49.53 49.53 22.219 49.53 49.53-22.219 49.53-49.53 49.53zm0-83.608c-18.791 0-34.078 15.287-34.078 34.078s15.287 34.078 34.078 34.078 34.078-15.287 34.078-34.078-15.287-34.078-34.078-34.078zM343.953 193.505a7.703 7.703 0 0 1-2.406-.386l-30.677-10.052a7.726 7.726 0 0 1-4.937-9.748 7.724 7.724 0 0 1 9.748-4.936l30.677 10.052a7.726 7.726 0 0 1-2.405 15.07zM330.939 238.91h-22.635a7.726 7.726 0 1 1 0-15.452h22.635a7.726 7.726 0 1 1 0 15.452zM354.256 327.003a7.727 7.727 0 0 1-7.004-10.981l13.358-28.777a7.727 7.727 0 0 1 14.017 6.506l-13.358 28.777a7.73 7.73 0 0 1-7.013 4.475zM433.503 334.177a7.729 7.729 0 0 1-7.612-6.455l-6.004-35.952a7.725 7.725 0 0 1 6.348-8.893c4.207-.706 8.191 2.139 8.893 6.348l6.004 35.952a7.725 7.725 0 0 1-7.629 9z" fill="#f6e266"></path><path d="M128.516 234.86a7.725 7.725 0 0 1-7.726-7.726v-.473a7.726 7.726 0 1 1 15.452 0v.473a7.725 7.725 0 0 1-7.726 7.726zM148.707 225.952a7.725 7.725 0 0 1-7.726-7.726v-.473a7.726 7.726 0 1 1 15.452 0v.473a7.727 7.727 0 0 1-7.726 7.726zM270.016 304.022a7.726 7.726 0 0 1-6.388-12.062l.266-.392a7.726 7.726 0 1 1 12.79 8.67l-.266.392a7.72 7.72 0 0 1-6.402 3.392zM291.728 307.967a7.726 7.726 0 0 1-6.388-12.062l.266-.392a7.726 7.726 0 1 1 12.79 8.67l-.266.392a7.72 7.72 0 0 1-6.402 3.392z" fill="#407093"></path><g fill="#80bc93"><path d="M51.066 461.429a7.725 7.725 0 0 1-7.726-7.726v-13.208a7.726 7.726 0 1 1 15.452 0v13.208a7.725 7.725 0 0 1-7.726 7.726zM71.479 461.429a7.725 7.725 0 0 1-7.726-7.726v-13.208a7.726 7.726 0 1 1 15.452 0v13.208a7.725 7.725 0 0 1-7.726 7.726zM344.055 461.429a7.725 7.725 0 0 1-7.726-7.726v-13.208a7.726 7.726 0 1 1 15.452 0v13.208a7.726 7.726 0 0 1-7.726 7.726zM364.467 461.429a7.725 7.725 0 0 1-7.726-7.726v-13.208a7.726 7.726 0 1 1 15.452 0v13.208a7.725 7.725 0 0 1-7.726 7.726zM407.095 461.429a7.725 7.725 0 0 1-7.726-7.726v-13.208a7.726 7.726 0 1 1 15.452 0v13.208a7.725 7.725 0 0 1-7.726 7.726zM427.508 461.429a7.725 7.725 0 0 1-7.726-7.726v-13.208a7.726 7.726 0 1 1 15.452 0v13.208a7.726 7.726 0 0 1-7.726 7.726zM451.523 461.429a7.725 7.725 0 0 1-7.726-7.726v-13.208a7.726 7.726 0 1 1 15.452 0v13.208a7.726 7.726 0 0 1-7.726 7.726z" fill="#80bc93"></path></g><path d="M301.645 113.684a7.727 7.727 0 0 1-3.167-14.777l24.255-10.882a7.726 7.726 0 0 1 6.326 14.098l-24.255 10.882a7.715 7.715 0 0 1-3.159.679z" fill="#61a2f9"></path><path d="M330.409 60.1s-21.021 13.371-23.238 43.374c23.884 18.292 47.848 11.48 47.848 11.48l6.774-35.987z" fill="#f6e266"></path><path d="M338.341 77.78s-21.969 11.257-31.174 25.695c2.222-30.004 23.242-43.375 23.242-43.375l31.385 18.866z" fill="#ecbe6b"></path><path d="M330.409 60.1A2241.998 2241.998 0 0 1 464.365 0c11.775 16.682 19.979 34.966 24.61 54.854a2241.36 2241.36 0 0 1-133.956 60.1z" fill="#80b4fb"></path><path d="m338.341 77.78-7.932-17.68A2236.376 2236.376 0 0 1 464.364 0a159.604 159.604 0 0 1 10.264 16.611A6755.526 6755.526 0 0 0 338.341 77.78z" fill="#61a2f9"></path><path d="M242.132 174.362a7.7 7.7 0 0 1-5.463-2.263l-17.843-17.843a7.726 7.726 0 1 1 10.926-10.927l17.843 17.843a7.726 7.726 0 0 1-5.463 13.19z" fill="#da4a54"></path><path d="M189.042 156.059s19.974 14.891 48.803 6.29c8.6-28.829-6.29-48.803-6.29-48.803l-36.043 6.469z" fill="#f6e266"></path><path d="M202.744 142.357s18.335 16.528 35.103 19.995c-28.832 8.596-48.805-6.294-48.805-6.294l6.468-36.043z" fill="#ecbe6b"></path><path d="M189.042 156.059A2241.343 2241.343 0 0 1 85.224 52.241c11.402-16.939 25.573-31.11 42.512-42.512a2240.849 2240.849 0 0 1 103.818 103.818z" fill="#dd636e"></path><path d="m202.744 142.357-13.702 13.702A2236.37 2236.37 0 0 1 85.225 52.242a159.737 159.737 0 0 1 11.873-15.501 6747.978 6747.978 0 0 0 105.646 105.616z" fill="#da4a54"></path></g></svg>