<svg viewBox="0 0 512 512.001" xmlns="http://www.w3.org/2000/svg"><g><path d="M86.54 329.398a7.715 7.715 0 0 1-5.661-2.46l-70.535-75.836A38.507 38.507 0 0 1 0 224.789v-20.555a7.729 7.729 0 0 1 7.727-7.726 7.729 7.729 0 0 1 7.726 7.726v20.555a23.107 23.107 0 0 0 6.207 15.79l70.531 75.831a7.729 7.729 0 0 1-.394 10.922 7.699 7.699 0 0 1-5.258 2.066zM348.207 329.398a7.726 7.726 0 0 1-5.691-12.95l69.64-75.866a23.121 23.121 0 0 0 6.106-15.676v-25.91a7.725 7.725 0 1 1 15.45 0v25.91c-.001 9.703-3.614 18.98-10.173 26.125l-69.64 75.867a7.702 7.702 0 0 1-5.692 2.5zm0 0" fill="#515759"></path><path d="M335.844 318.324c11.379 0 20.601 9.227 20.601 20.606v152.468c0 11.38-9.222 20.602-20.601 20.602H97.87c-11.379 0-20.605-9.223-20.605-20.602V338.93c0-11.38 9.226-20.606 20.605-20.606zm0 0" fill="#ffd47d"></path><path d="M249.309 398.68h-64.903c-8.535 0-15.453-6.918-15.453-15.453v-70.051c0-5.692 4.613-10.305 10.3-10.305h75.204c5.691 0 10.305 4.613 10.305 10.305v70.05c-.004 8.536-6.922 15.454-15.453 15.454zm0 0" fill="#edaf54"></path><path d="M146.805 488.82h-38.118a7.726 7.726 0 1 1 0-15.453h38.118a7.726 7.726 0 1 1 0 15.453zM128.262 457.914h-19.575a7.725 7.725 0 1 1 0-15.45h19.575a7.725 7.725 0 1 1 0 15.45zm0 0" fill="#aa8452"></path><path d="M315.238 481.094h-23.695c-5.688 0-10.3-4.61-10.3-10.301v-10.3c0-5.692 4.612-10.306 10.3-10.306h23.695c5.692 0 10.301 4.614 10.301 10.305v10.301c0 5.687-4.61 10.3-10.3 10.3zm0 0" fill="#fff7e6"></path><path d="M216.86 0v.094c-67.497 33.84-113.837 125.3-113.837 205.941v30.39c-.144-28.296-23.148-46.1-51.507-46.1-28.442 0-51.508 17.917-51.508 46.359v-30.649C.008 92.242 92.25 0 206.043 0zm0 0" fill="#ff6666"></path><path d="M433.71 206.035v30.649c0-28.442-23.062-46.36-51.507-46.36-28.36 0-51.363 17.805-51.508 46.102v-30.39c0-80.641-46.34-172.102-113.836-205.942V0h10.817C341.469 0 433.71 92.242 433.71 206.035zm0 0" fill="#e8e8e8"></path><path d="M216.86.094v236.332c0-31.43-25.489-46.613-56.919-46.613-31.43 0-56.918 15.183-56.918 46.613v-30.39c0-80.641 46.34-172.102 113.836-205.942zm0 0" fill="#e8e8e8"></path><path d="M330.695 206.035v30.39c0-31.429-25.488-46.616-56.918-46.616-15.71 0-29.949 3.8-40.25 11.52-10.3 7.726-16.668 19.374-16.668 35.097V.094c67.5 33.84 113.836 125.3 113.836 205.941zm0 0" fill="#ff6666"></path><path d="M356.445 338.93v152.468c0 11.383-9.218 20.602-20.601 20.602h-30.906c11.382 0 20.601-9.219 20.601-20.602V338.93c0-11.383-9.219-20.606-20.601-20.606h30.902c11.387 0 20.605 9.223 20.605 20.606zm0 0" fill="#e89e46"></path><path d="M264.758 313.176v70.05c0 8.532-6.922 15.454-15.453 15.454h-30.903c8.528 0 15.453-6.922 15.453-15.453v-70.051c0-5.688-4.617-10.305-10.304-10.305h30.906c5.688 0 10.3 4.617 10.3 10.305zm0 0" fill="#db8733"></path><path d="M433.71 206.035v30.649c0-21.262-12.886-36.645-31.272-43.051C396.46 93.003 318.28 11.824 218.98 1.183c-.699-.37-1.41-.73-2.12-1.09V0h10.816C341.469 0 433.71 92.242 433.71 206.035zm0 0" fill="#cccccc"></path></g></svg>