<svg viewBox="0 0 512 512" xmlns="http://www.w3.org/2000/svg"><g><g clip-rule="evenodd" fill-rule="evenodd"><circle cx="256" cy="256" fill="#89c8fd" r="256"></circle><path d="M241.29.415C375.83 8.037 482.58 119.553 482.58 256c0 136.448-106.75 247.963-241.29 255.585 4.868.276 9.773.416 14.71.416 141.384 0 256-114.616 256-256s-114.616-256-256-256a259.84 259.84 0 0 0-14.71.414z" fill="#60b6ff"></path><path d="M244.029 424.361c5.66-45.763 50.669-54.845 54.802-109.297 2.439-32.132-89.832-58.414-100.085-57.599-42.197 3.358-35.849 10.583-59.403-27.185-29.535-47.358 45.563-19.173 51.525-49.708 4.92-25.194 24.337-29.224 37.932-37.716 10.877-6.794 30.714-8.855 45.653-12.876 12.22-3.289 12.037-17.259 13.612-28.268 3.454-24.123-1.75-27.749-22.939-30.767-35.283-5.026-23.454-29.52-70.927-19.526-46.993 9.893-33.602 6.35-80.922-7.977-38.93 26.191-70.272 62.795-90.035 105.821 26.306 78.657 80.338 93.687 89.574 103.21 7.991 8.24 19.382 14.554 19.673 40.578.936 83.629 38.938 25.902 55.987 121.489 16.138 90.47 48.959 63.127 55.553 9.821zm105.4-147.178c-57.197-37.502 6.092-64.804-4.921-88.515-1.731-3.726 11.089-20.932 19.467-18.212 19.217 6.238 68.301 7.052 75.513 5.075 9.02-2.473 23.315-36.822-7.665-38.036-6.619-.259-60.347 7.267-63.439 1.214-3.063-7.674-9.183-36.11 4.608-48.719 15.883-14.521 47.796-19.696 53.583-24.887C479.001 111.98 512 180.136 512 255.998c0 55.164-17.448 106.252-47.126 148.048-18.036 17.217-53.028 15.364-48.15-4.262 8.159-32.832 2.805-41.982 3.237-62.459 1.64-77.776-32.498-46.189-70.532-60.142z" fill="#baeb6c"></path><path d="M405.857 73.255C453.207 119.712 482.58 184.426 482.58 256c0 60.064-20.686 115.296-55.321 158.962 10.781 2.688 27.086-.864 37.615-10.915C494.552 362.251 512 311.163 512 255.999c0-75.862-32.998-144.018-85.425-190.895-2.685 2.409-10.995 4.814-20.718 8.151z" fill="#96d629"></path></g></g></svg>