<svg viewBox="0 0 512 512" xmlns="http://www.w3.org/2000/svg"><g><g clip-rule="evenodd" fill-rule="evenodd"><path d="M107.996 286.772a114.738 114.738 0 0 0 24.219 15.578L94.72 365.824 70.015 351.06z" fill="#a79ba7"></path><path d="M123.187 298.429c1.879 3.012 4.41 5.005 7.524 5.939l-37.069 63.72-8.003-5.121z" fill="#837683"></path><path d="m47.661 447.781-27.882-16.663c-4.897-2.926-6.508-9.326-3.582-14.223l44.781-74.938c2.925-4.897 9.327-6.509 14.223-3.584l27.882 16.663c4.896 2.926 6.509 9.327 3.582 14.223l-44.781 74.937c-2.926 4.898-9.325 6.511-14.223 3.585z" fill="#f1ba84"></path><path d="m104.538 360.24-44.782 74.937c-2.927 4.896-9.326 6.509-14.222 3.583l-27.882-16.662a10.264 10.264 0 0 1-2.643-2.263c-1 4.278.811 8.917 4.771 11.284l27.883 16.661c4.897 2.927 11.295 1.313 14.223-3.583l44.782-74.937c2.311-3.866 1.792-8.669-.938-11.96a10.379 10.379 0 0 1-1.192 2.94z" fill="#e3a76f"></path><circle cx="175.711" cy="209.17" fill="#8ac9fe" r="114.085" transform="rotate(-73.7 175.807 209.192)"></circle><path d="M175.711 95.085c63.007 0 114.085 51.078 114.085 114.085s-51.078 114.085-114.085 114.085c-1.857 0-3.703-.048-5.538-.136C230.608 320.23 278.72 270.32 278.72 209.17c0-61.151-48.112-111.06-108.547-113.949 1.835-.088 3.681-.136 5.538-.136z" fill="#60b7ff"></path><circle cx="175.711" cy="209.17" fill="#eceff1" r="81.92" transform="rotate(-73.7 175.807 209.192)"></circle><path d="M175.711 127.25c1.862 0 3.708.069 5.538.19-42.66 2.849-76.382 38.348-76.382 81.73 0 43.381 33.722 78.881 76.382 81.729-1.831.122-3.677.19-5.538.19-45.243 0-81.92-36.677-81.92-81.92 0-45.242 36.677-81.919 81.92-81.919z" fill="#d1d1d6"></path><path d="M175.71 217.172a8 8 0 0 1 0-16h151.223l69.792-120.884a7.981 7.981 0 0 1 13.812 8l-65.174 112.884h130.369a8 8 0 0 1 0 16H345.347l65.192 112.915a7.966 7.966 0 0 1-13.813 7.937l-69.774-120.852z" fill="#a79ba7"></path><circle cx="331.531" cy="209.172" fill="#8ac9fe" r="21.529" transform="rotate(-45 331.518 209.249)"></circle><path d="M331.531 187.643c11.89 0 21.529 9.639 21.529 21.529s-9.639 21.529-21.529 21.529c-1.289 0-2.551-.114-3.778-.331 10.088-1.786 17.751-10.597 17.751-21.198s-7.663-19.412-17.751-21.198a21.58 21.58 0 0 1 3.778-.331z" fill="#60b7ff"></path><circle cx="367.581" cy="146.73" fill="#8ac9fe" r="21.529" transform="rotate(-45 367.582 146.808)"></circle><path d="M367.582 125.201c11.89 0 21.529 9.639 21.529 21.529s-9.639 21.529-21.529 21.529c-1.289 0-2.551-.114-3.778-.331 10.088-1.786 17.751-10.597 17.751-21.198s-7.663-19.412-17.751-21.198a21.668 21.668 0 0 1 3.778-.331z" fill="#60b7ff"></path><circle cx="403.632" cy="84.288" fill="#8ac9fe" r="21.529" transform="rotate(-45 403.648 84.368)"></circle><path d="M403.633 62.759c11.89 0 21.529 9.639 21.529 21.529s-9.639 21.529-21.529 21.529c-1.289 0-2.551-.114-3.778-.331 10.088-1.786 17.751-10.597 17.751-21.198s-7.663-19.412-17.751-21.198a21.668 21.668 0 0 1 3.778-.331z" fill="#60b7ff"></path><circle cx="403.632" cy="209.172" fill="#8ac9fe" r="21.529" transform="rotate(-45 403.625 209.26)"></circle><path d="M403.633 187.643c11.89 0 21.529 9.639 21.529 21.529s-9.639 21.529-21.529 21.529c-1.289 0-2.551-.114-3.778-.331 10.088-1.786 17.751-10.597 17.751-21.198s-7.663-19.412-17.751-21.198a21.571 21.571 0 0 1 3.778-.331z" fill="#60b7ff"></path><path d="M475.734 230.701c11.858 0 21.529-9.671 21.529-21.529s-9.671-21.529-21.529-21.529-21.529 9.671-21.529 21.529 9.671 21.529 21.529 21.529z" fill="#8ac9fe"></path><path d="M475.734 187.643c11.89 0 21.529 9.639 21.529 21.529s-9.639 21.529-21.529 21.529c-1.289 0-2.551-.114-3.778-.331 10.088-1.786 17.751-10.597 17.751-21.198s-7.663-19.412-17.751-21.198a21.676 21.676 0 0 1 3.778-.331z" fill="#60b7ff"></path><circle cx="367.582" cy="271.613" fill="#8ac9fe" r="21.529"></circle><path d="M367.582 250.084c11.89 0 21.529 9.639 21.529 21.529s-9.639 21.529-21.529 21.529c-1.289 0-2.551-.114-3.778-.331 10.088-1.786 17.751-10.597 17.751-21.198s-7.663-19.412-17.751-21.198a21.676 21.676 0 0 1 3.778-.331z" fill="#60b7ff"></path><path d="M403.633 355.584c11.858 0 21.529-9.671 21.529-21.529s-9.671-21.529-21.529-21.529-21.529 9.671-21.529 21.529 9.671 21.529 21.529 21.529z" fill="#8ac9fe"></path><path d="M403.633 312.527c11.89 0 21.529 9.639 21.529 21.529s-9.639 21.529-21.529 21.529c-1.289 0-2.551-.114-3.778-.331 10.088-1.786 17.751-10.597 17.751-21.198s-7.663-19.412-17.751-21.198a21.58 21.58 0 0 1 3.778-.331z" fill="#60b7ff"></path><path d="M187.789 158.559a51.777 51.777 0 0 1 15.16 6.285l9.852-4.375 11.611 11.611-4.374 9.848a51.743 51.743 0 0 1 6.286 15.165l10.051 3.869v16.42l-10.053 3.87a51.777 51.777 0 0 1-6.285 15.16l4.375 9.852-11.611 11.611-9.848-4.374a51.77 51.77 0 0 1-15.165 6.286l-3.868 10.051H167.5l-3.87-10.053a51.777 51.777 0 0 1-15.16-6.285l-9.852 4.375-11.611-11.611 4.374-9.848a51.77 51.77 0 0 1-6.286-15.165l-10.05-3.868v-16.42l10.052-3.869a51.771 51.771 0 0 1 6.285-15.161l-4.375-9.85 11.611-11.611 9.851 4.375a51.771 51.771 0 0 1 15.161-6.285l3.87-10.053h16.42z" fill="#ffe177"></path><path d="m148.47 253.498-9.852 4.375-1.517-1.517 9.236-4.102c.702.432 1.413.846 2.133 1.244zm39.319-94.939a51.777 51.777 0 0 1 15.16 6.285l-2.8 1.244c-4.688-2.887-11.936-6.254-17.292-7.529l-3.87-10.053h4.932zm15.164 94.94a51.77 51.77 0 0 1-15.165 6.286l-3.868 10.051h-4.932l3.868-10.051c5.358-1.275 12.607-4.642 17.296-7.53zm-65.851-91.513 1.517-1.517 9.851 4.375a51.03 51.03 0 0 0-2.132 1.244zm72.284 0 3.415-1.517 11.611 11.611-4.374 9.848a51.743 51.743 0 0 1 6.286 15.165l10.051 3.869v16.42l-10.053 3.87a51.777 51.777 0 0 1-6.285 15.16l4.375 9.852-11.611 11.611-3.415-1.517 10.094-10.094-4.376-9.852a51.777 51.777 0 0 0 6.285-15.16l10.053-3.87v-16.42l-10.051-3.869a51.781 51.781 0 0 0-6.286-15.165l4.374-9.848z" fill="#ffd064"></path><circle cx="175.71" cy="209.171" fill="#eceff1" r="28.635" transform="rotate(-45 175.685 209.219)"></circle><path d="M175.71 180.536c-15.815 0-28.634 12.819-28.634 28.635 0 15.815 12.819 28.634 28.634 28.634.767 0 1.526-.031 2.278-.09-14.75-1.161-26.357-13.495-26.357-28.544s11.606-27.384 26.357-28.545a29.124 29.124 0 0 0-2.278-.09z" fill="#d1d1d6"></path></g></g></svg>