<svg viewBox="0 0 512 512" xmlns="http://www.w3.org/2000/svg"><g><path d="M272 480h-32C116.288 480 16 379.712 16 256S116.288 32 240 32h32c123.712 0 224 100.288 224 224S395.712 480 272 480z" fill="#463c4b"></path><circle cx="240" cy="256" fill="#555a6e" r="224"></circle><path d="m124.381 377.881 28.59-46.459A24 24 0 0 1 173.411 320h133.178a24 24 0 0 1 20.44 11.422l28.59 46.459C387.88 347.268 408 303.984 408 256c0-92.784-75.216-168-168-168S72 163.216 72 256c0 47.984 20.12 91.268 52.381 121.881z" fill="#d7e6f0"></path><path d="M40 264a8 8 0 0 1-8-8c0-114.691 93.309-208 208-208a8 8 0 0 1 0 16C134.131 64 48 150.131 48 256a8 8 0 0 1-8 8z" fill="#73788c"></path><path d="M112 256c0 8.84-7.16 16-16 16H72.76c-.51-5.27-.76-10.6-.76-16s.25-10.73.76-16H96c8.84 0 16 7.16 16 16zM149.49 142.86c6.25 6.25 6.25 16.38 0 22.63s-16.38 6.25-22.63 0l-16.43-16.431a169.252 169.252 0 0 1 22.63-22.629zM240 88c5.4 0 10.73.25 16 .76V112c0 8.84-7.16 16-16 16s-16-7.16-16-16V88.76c5.27-.51 10.6-.76 16-.76z" fill="#8caac8"></path><path d="m369.57 149.06-16.43 16.431c-6.25 6.25-16.38 6.25-22.63 0s-6.25-16.38 0-22.63l16.43-16.43a169.134 169.134 0 0 1 22.63 22.629zM408 256c0 5.4-.25 10.73-.76 16H384c-8.84 0-16-7.16-16-16s7.16-16 16-16h23.24c.51 5.27.76 10.6.76 16z" fill="#f04b37"></path><path d="M331.313 164.687c-6.248-6.248-16.379-6.248-22.627 0l-47.994 47.994A47.795 47.795 0 0 0 240 208c-26.51 0-48 21.49-48 48s21.49 48 48 48 48-21.49 48-48c0-7.41-1.682-14.427-4.68-20.692l47.994-47.994c6.249-6.249 6.249-16.379-.001-22.627zM240 272c-8.836 0-16-7.163-16-16s7.164-16 16-16 16 7.163 16 16-7.164 16-16 16z" fill="#463c4b"></path><circle cx="240" cy="256" fill="#5f7dbe" r="16"></circle><g fill="#d7e6f0"><path d="M208 356h-8a11.935 11.935 0 0 0-8 3.081 11.935 11.935 0 0 0-8-3.081h-8c-6.617 0-12 5.383-12 12v40a4 4 0 0 0 8 0v-40c0-2.206 1.794-4 4-4h8c2.206 0 4 1.794 4 4v40a4 4 0 0 0 8 0v-40c0-2.206 1.794-4 4-4h8c2.206 0 4 1.794 4 4v40a4 4 0 0 0 8 0v-40c0-6.617-5.383-12-12-12zM256 356h-8c-6.617 0-12 5.383-12 12v40a4 4 0 0 0 8 0v-12h12c6.617 0 12-5.383 12-12v-16c0-6.617-5.383-12-12-12zm4 28c0 2.206-1.794 4-4 4h-12v-20c0-2.206 1.794-4 4-4h8c2.206 0 4 1.794 4 4zM312 356a4 4 0 0 0-4 4v20h-16v-20a4 4 0 0 0-8 0v48a4 4 0 0 0 8 0v-20h16v20a4 4 0 0 0 8 0v-48a4 4 0 0 0-4-4z" fill="#d7e6f0"></path></g></g></svg>