<svg viewBox="0 0 497 497" xmlns="http://www.w3.org/2000/svg"><g><path d="M74.802 38.893h347.396v396.684H74.802z" fill="#0067c5"></path><path d="M382.712 38.893h39.483v396.684h-39.483z" fill="#0055a3"></path><path d="m125.885 441.053 16.92-79.682a29.8 29.8 0 0 1 18.005-21.447l30.059-12.12a29.801 29.801 0 0 1 11.143-2.162h109.034v-13.568c0-7.833-6.077-14.322-13.893-14.836l-105.798-6.95a19.385 19.385 0 0 1-6.177-1.472l-8.22-3.46a19.383 19.383 0 0 1-11.863-17.865v-68.212c0-2.344.698-4.635 2.005-6.581l28.653-42.664a52.84 52.84 0 0 1 13.1-13.5l39.648-28.394V75.99l-55.329 27.62a52.852 52.852 0 0 0-10.788 7.158l-37.012 31.724a11.802 11.802 0 0 1-7.682 2.842c-6.519 0-11.804-5.285-11.804-11.804V54.291l-19.117-9.77-18.364 9.77-13.6 179.864 13.599 203.069z" fill="#5da0e2"></path><g fill="#528fd8"><path d="M111.806 145.333c2.818 0 5.543-1.008 7.682-2.842l6.825-5.85a11.79 11.79 0 0 1-.428-3.112V54.291l-12.728-6.505-13.156 6.505v79.237c0 6.52 5.285 11.805 11.805 11.805zM164.984 327.804l-30.059 12.12a29.798 29.798 0 0 0-18.005 21.447l-16.37 77.094 25.334 2.589 16.92-79.682a29.8 29.8 0 0 1 18.005-21.447l30.059-12.12a29.801 29.801 0 0 1 11.143-2.162h-25.883a29.782 29.782 0 0 0-11.144 2.161zM297.153 297.238l-105.797-6.95a19.359 19.359 0 0 1-6.177-1.472l-8.219-3.46a19.384 19.384 0 0 1-11.864-17.866v-68.212c0-2.344.698-4.635 2.005-6.581l28.653-42.664a52.84 52.84 0 0 1 13.1-13.5l39.648-28.394v-32.15L222.617 88.91v5.278a27.148 27.148 0 0 1-11.343 22.074l-28.305 20.271a52.84 52.84 0 0 0-13.1 13.5l-28.653 42.664a11.803 11.803 0 0 0-2.005 6.581v68.213a19.384 19.384 0 0 0 11.863 17.865l8.22 3.46a19.385 19.385 0 0 0 6.177 1.472l105.798 6.95c7.816.513 13.893 7.003 13.893 14.835v13.568h25.883v-13.568c0-7.832-6.077-14.321-13.892-14.835z" fill="#528fd8"></path></g><path d="M382.71 219.485h63.36v29.34h-63.36z" fill="#91deb6"></path><path d="M273.359 248.825H446.07v-29.34H273.359a7.874 7.874 0 0 1-7.874-7.874V38.893H236.14v172.718a7.874 7.874 0 0 1-7.874 7.874H55.55v29.34h172.716a7.874 7.874 0 0 1 7.874 7.874v159.007a7.456 7.456 0 0 1-7.456 7.456H74.802v35.782h347.396v-35.782H272.941a7.456 7.456 0 0 1-7.456-7.456V256.699a7.873 7.873 0 0 1 7.874-7.874z" fill="#b0e7c9"></path><path d="M382.712 423.162h39.483v35.782h-39.483z" fill="#91deb6"></path><path d="M26.405 54.291.037 358.185a9.837 9.837 0 0 0-.037.859v116.28c0 5.492 4.452 9.944 9.944 9.944H78.46c5.492 0 9.944-4.452 9.944-9.944V54.291L55.55 38.893z" fill="#aca6d6"></path><path d="M44.202 391.029a7.5 7.5 0 0 0 7.5-7.5v-57.255L64.697 54.65a7.5 7.5 0 0 0-7.133-7.85c-4.133-.225-7.652 2.995-7.85 7.133L36.71 325.737a8.552 8.552 0 0 0-.008.358v57.434a7.5 7.5 0 0 0 7.5 7.5z" fill="#978ecb"></path><path d="M62.521 54.291v421.032c0 5.492-4.452 9.944-9.944 9.944H78.46c5.492 0 9.944-4.452 9.944-9.944V54.291l-16.006-7.502z" fill="#978ecb"></path><path d="m470.595 54.291 26.368 303.893c.025.286.037.573.037.86v116.28c0 5.492-4.452 9.944-9.944 9.944H418.54c-5.492 0-9.944-4.452-9.944-9.944V54.291l31.539-15.399z" fill="#aca6d6"></path><path d="M496.963 358.185 470.595 54.291l-15.071-7.619-10.813 7.619 26.368 303.893c.025.286.037.573.037.86v116.28c0 5.492-4.452 9.944-9.944 9.944h25.883c5.492 0 9.944-4.452 9.944-9.944v-116.28a9.46 9.46 0 0 0-.036-.859z" fill="#978ecb"></path><path d="M373.845 140.703c-23.186 8.324-48.729-3.724-57.053-26.91a44.46 44.46 0 0 1-2.577-12.947c-.186-3.946-5.071-5.64-7.786-2.77-8.292 8.765-13.068 20.888-12.06 34.122 1.689 22.173 19.866 39.886 42.072 41.049 19.255 1.009 36.011-10.204 43.223-26.571 1.607-3.648-1.974-7.363-5.723-6.007l-.096.034z" fill="#fef6ad"></path><g fill="#fef056"><path d="M298.603 127.271c11.206 13.454 29.737 19.467 47.257 14.134-13.04-3.95-24.11-13.81-29.07-27.61a44.863 44.863 0 0 1-2.58-12.95c-.18-3.94-5.07-5.64-7.78-2.77-6.08 6.43-10.27 14.66-11.67 23.81a44.12 44.12 0 0 0-.508 6.842c.163-2.175 2.911-3.184 4.351-1.456zM373.94 140.665a.3.3 0 0 1-.1.04c-6.65 2.39-13.49 3.1-20.06 2.34.49 1.07.56 2.35 0 3.63-4.312 9.794-18.064 19.058-29.763 24.092a43.24 43.24 0 0 0 1.893.628c3.37 1.03 6.9 1.66 10.53 1.85 19.26 1.01 36.01-10.2 43.22-26.57 1.61-3.65-1.97-7.36-5.72-6.01z" fill="#fef056"></path></g><path d="m362.382 314.734-56.566-4.542c-4.128-.339-7.746 2.744-8.079 6.873a7.5 7.5 0 0 0 6.873 8.078l27.292 2.182 11.044 22.014a7.5 7.5 0 0 0 6.709 4.139 7.5 7.5 0 0 0 6.697-10.865l-6.962-13.877 11.784.95a7.5 7.5 0 0 0 8.078-6.873 7.496 7.496 0 0 0-6.87-8.079z" fill="#528fd8"></path><path d="M452.798 391.029a7.5 7.5 0 0 1-7.5-7.5v-57.255L432.303 54.65a7.5 7.5 0 0 1 7.133-7.85c4.133-.225 7.652 2.995 7.85 7.133l13.004 271.804c.005.119.008.239.008.358v57.434a7.5 7.5 0 0 1-7.5 7.5z" fill="#978ecb"></path><g fill="#fef6ad"><circle cx="369.676" cy="91.106" fill="#fef6ad" r="8.497"></circle><circle cx="302.735" cy="388.775" fill="#fef6ad" r="8.497"></circle><circle cx="361.176" cy="282.453" fill="#fef6ad" r="8.497"></circle><circle cx="155.28" cy="82.607" fill="#fef6ad" r="8.497"></circle></g><path d="M460.34 11.732H36.66c-5.663 0-10.254 4.591-10.254 10.254v32.305h444.189V21.986c0-5.663-4.591-10.254-10.255-10.254z" fill="#91deb6"></path><path d="M460.34 11.732h-25.883c5.663 0 10.254 4.591 10.254 10.254v32.305h25.883V21.986c.001-5.663-4.59-10.254-10.254-10.254z" fill="#6ed5a1"></path></g></svg>