<svg viewBox="0 0 512 512" xmlns="http://www.w3.org/2000/svg"><g><path d="M24 242.828h128a8 8 0 0 0 0-16H24a8 8 0 0 0 0 16z" fill="#be281e"></path><path d="M24 242.828h24a8 8 0 0 0 0-16H24a8 8 0 0 0 0 16z" fill="#f04b37"></path><path d="M40 242.828h24l24 64H64zM96 242.828h24l24 64h-24z" fill="#463c4b"></path><path d="M64 386.828h64v-96c0-8.837 7.163-16 16-16H80c-8.837 0-16 7.163-16 16z" fill="#555a6e"></path><path d="M464 418.828h-16c-17.673 0-32-14.327-32-32 0-17.673 14.327-32 32-32h16c17.673 0 32 14.327 32 32 0 17.674-14.327 32-32 32z" fill="#463c4b"></path><circle cx="448" cy="386.828" fill="#555a6e" r="32"></circle><path d="M488 386.828h-96a8 8 0 0 0 0 16h96a8 8 0 0 0 0-16z" fill="#d73228"></path><path d="M416 386.828h-24a8 8 0 0 0 0 16h24a8 8 0 0 0 0-16z" fill="#f04b37"></path><path d="M472.616 366.433 264 306.828H128v80h360c0-9.47-6.278-17.793-15.384-20.395z" fill="#ff6955"></path><path d="M400.616 366.433 192 306.828h-64v80h288c0-9.47-6.278-17.793-15.384-20.395z" fill="#d73228"></path><path d="M368 418.828h-16c-17.673 0-32-14.327-32-32 0-17.673 14.327-32 32-32h16c17.673 0 32 14.327 32 32 0 17.674-14.327 32-32 32zM96 418.828H64c-26.51 0-48-21.49-48-48s21.49-48 48-48h32c26.51 0 48 21.49 48 48s-21.49 48-48 48z" fill="#463c4b"></path><circle cx="64" cy="370.828" fill="#555a6e" r="48"></circle><circle cx="64" cy="370.828" fill="#463c4b" r="32"></circle><circle cx="64" cy="370.828" fill="#8caac8" r="16"></circle><circle cx="352" cy="386.828" fill="#555a6e" r="32"></circle><circle cx="352" cy="386.828" fill="#d7e6f0" r="16"></circle><path d="M144 274.828c-8.837 0-16 7.163-16 16v16h32v-16c0-8.836-7.163-16-16-16z" fill="#463c4b"></path><path d="M168 258.828c-17.673 0-32 14.327-32 32 0 8.837 7.163 16 16 16h48v-16c0-17.673-14.327-32-32-32z" fill="#aac3d7"></path><path d="M186.667 292.162a4 4 0 0 1-4-4c0-8.087-6.58-14.667-14.667-14.667a4 4 0 0 1 0-8c12.499 0 22.667 10.168 22.667 22.667a4 4 0 0 1-4 4z" fill="#d7e6f0"></path><path d="M180 274.828h15.708a31.845 31.845 0 0 1 4.292 16v8h-20c-6.627 0-12-5.373-12-12s5.373-12 12-12z" fill="#463c4b"></path><path d="M24 434.828h464a8 8 0 0 0 0-16H24a8 8 0 0 0 0 16z" fill="#d73228"></path><path d="M56 410.828a8 8 0 0 0-8-8c0-8.837-7.163-16-16-16s-16 7.163-16 16 7.163 16 16 16h32z" fill="#aac3d7"></path><path d="M228 198.828a5.657 5.657 0 0 1 0-8l112-112a5.657 5.657 0 0 1 8 0l4 4-116 116a5.655 5.655 0 0 1-8 0z" fill="#555a6e"></path><path d="m361.105 201.724 45.791-45.791a12.875 12.875 0 0 0 0-18.208L352 82.828l-64 64 54.895 54.895a12.875 12.875 0 0 0 18.21.001z" fill="#555a6e"></path><path d="m309.285 125.521 21.337-21.337 21.326 21.327-21.336 21.337zM351.945 168.191l21.337-21.337 21.327 21.327-21.337 21.337zM309.28 168.177l21.326-21.327 21.337 21.337-21.327 21.326zM351.95 125.516l21.327-21.326 21.337 21.336-21.327 21.327z" fill="#d7e6f0"></path><path d="M284 198.828a5.657 5.657 0 0 0 0-8l-112-112a5.657 5.657 0 0 0-8 0l-4 4 116 116a5.655 5.655 0 0 0 8 0z" fill="#555a6e"></path><path d="m150.895 201.724-45.791-45.791a12.875 12.875 0 0 1 0-18.208L160 82.828l64 64-54.895 54.895a12.875 12.875 0 0 1-18.21.001z" fill="#555a6e"></path><path d="m159.97 125.494 21.326-21.326 21.337 21.336-21.327 21.327zM117.3 168.156l21.327-21.327 21.337 21.337-21.327 21.326zM159.965 168.17l21.337-21.337 21.327 21.327-21.337 21.337zM117.305 125.5l21.337-21.337 21.326 21.327-21.336 21.337z" fill="#d7e6f0"></path></g></svg>