<svg id="Layer_1" enable-background="new 0 0 512 512" height="512" viewBox="0 0 512 512" width="512" xmlns="http://www.w3.org/2000/svg"><g><g><path d="m437.02 74.979c-48.352-48.351-112.64-74.979-181.02-74.979s-132.668 26.628-181.02 74.979c-48.351 48.353-74.98 112.64-74.98 181.021s26.629 132.668 74.98 181.021c48.352 48.351 112.64 74.979 181.02 74.979s132.668-26.628 181.02-74.979c48.351-48.353 74.98-112.64 74.98-181.021s-26.629-132.668-74.98-181.021z" fill="#008adf"/><path d="m437.02 74.979c-48.352-48.351-112.64-74.979-181.02-74.979v512c68.38 0 132.668-26.628 181.02-74.979 48.351-48.353 74.98-112.64 74.98-181.021s-26.629-132.668-74.98-181.021z" fill="#0065a3"/><g><path d="m256 208.866c-25.989 0-47.133 21.145-47.133 47.134s21.144 47.134 47.133 47.134 47.134-21.145 47.134-47.134-21.145-47.134-47.134-47.134z" fill="#e7f0ef"/><path d="m384.533 208.866c-25.989 0-47.133 21.145-47.133 47.134s21.144 47.134 47.133 47.134 47.134-21.145 47.134-47.134-21.145-47.134-47.134-47.134z" fill="#c5e1e6"/><path d="m127.467 208.866c-25.989 0-47.133 21.145-47.133 47.134s21.144 47.134 47.133 47.134 47.134-21.145 47.134-47.134-21.145-47.134-47.134-47.134z" fill="#e7f0ef"/></g></g><path d="m256 208.866v94.268c25.989 0 47.134-21.145 47.134-47.134s-21.145-47.134-47.134-47.134z" fill="#c5e1e6"/></g></svg>