<svg viewBox="0 0 512 512" xmlns="http://www.w3.org/2000/svg"><g><path d="m510.881 90.541-8.556-14.801c-5.978-5.978-14.236-9.675-23.357-9.675h-2.004L256 117 35.036 66.064h-2.004c-9.122 0-17.381 3.698-23.359 9.677L13 429l494.424.688A32.885 32.885 0 0 0 512 412.904V99.097c0-2.959-.389-5.827-1.119-8.556z" fill="#ffe8a0"></path><path d="m35.036 66.065 180.085 180.089c22.556 22.536 59.218 22.536 81.758 0L476.964 66.065z" fill="#fff8c3"></path><path d="M510.881 90.541c-1.512-5.695-4.541-10.741-8.558-14.799l-187.93 187.93c-32.25 32.25-84.537 32.25-116.786 0L9.674 75.741C3.669 81.687 0 89.964 0 99.097v313.807c0 18.243 14.789 33.032 33.032 33.032h445.936c8.526 0 16.565-3.438 22.387-8.762 2.475-2.233 4.357-4.583 6.069-7.486L339.581 261.84zM29.448 404.814c-2.898-4.913-4.673-10.569-4.673-16.686v-234.06c0-14.714 17.79-22.083 28.195-11.679l119.45 119.45zm446.097 16.347H57.806c-6.114 0-11.769-1.774-16.681-4.671l142.99-142.992c18.159 17.954 42.05 29.709 67.568 30.785 28.071 1.184 54.658-9.203 74.388-28.934l1.832-1.832z" fill="#ffd78c"></path></g></svg>