<svg viewBox="0 0 64 64" xmlns="http://www.w3.org/2000/svg"><g><path d="M47.924 55.617A1.002 1.002 0 0 0 47 55h-1v-9c0-4.411-3.589-8-8-8s-8 3.589-8 8v2c0 2.206-1.794 4-4 4s-4-1.794-4-4V38c0-4.411-3.589-8-8-8h-2v4h2c2.206 0 4 1.794 4 4v10c0 4.411 3.589 8 8 8s8-3.589 8-8v-2c0-2.206 1.794-4 4-4s4 1.794 4 4v9h-1a1.002 1.002 0 0 0-.707 1.707l3 3a.997.997 0 0 0 1.414 0l3-3a1 1 0 0 0 .217-1.09z" fill="#fab400"></path><path d="M17.869 31H12v3h2c1.012 0 1.937.378 2.643 1h4.773a8.049 8.049 0 0 0-3.547-4z" fill="#dc9600"></path><path d="m47.707 31.293-3-3A.998.998 0 0 0 43 29v1H6v4h37v1a1.002 1.002 0 0 0 1.707.707l3-3a.999.999 0 0 0 0-1.414z" fill="#c80a50"></path><path d="M13.926 30H7v4a8.005 8.005 0 0 0 6.926-4z" fill="#a00028"></path><circle cx="54" cy="32" fill="#fab400" r="6"></circle><path d="M53 35a.997.997 0 0 1-.707-.293l-2-2a.999.999 0 1 1 1.414-1.414L53 32.586l3.293-3.293a.999.999 0 1 1 1.414 1.414l-4 4A.997.997 0 0 1 53 35zM39.707 7.293l-3-3a.999.999 0 0 0-1.414 0l-3 3A1 1 0 0 0 33 9h1v9c0 2.206-1.794 4-4 4s-4-1.794-4-4v-2c0-4.411-3.589-8-8-8s-8 3.589-8 8v10c0 2.206-1.794 4-4 4v4c4.411 0 8-3.589 8-8V16c0-2.206 1.794-4 4-4s4 1.794 4 4v2c0 4.411 3.589 8 8 8s8-3.589 8-8V9h1a1.002 1.002 0 0 0 .707-1.707zM5 34h1v-4H5a1 1 0 0 0-1 1v2a1 1 0 0 0 1 1z" fill="#00a0c8"></path></g></svg>