<svg viewBox="0 0 512 512" xmlns="http://www.w3.org/2000/svg"><g><path d="M429.137 193.696 362.293 77.92l45.167-26.078 66.844 115.775z" fill="#e2a770"></path><path d="m429.136 193.698-19.56-33.877 45.167-26.078 19.56 33.877z" fill="#d5985c"></path><path d="m256.496 121.869 46.875-27.062-32.627-8.742c-14.037-3.761-22.365-18.185-18.604-32.223 1.881-7.019 6.43-12.617 12.259-15.982s12.952-4.507 19.97-2.626l76.674 20.551c18.456 4.945 33.005 17.174 41.385 32.766l.012.021-.014-.017 34.536 59.819c18.371 31.82 7.469 72.508-24.351 90.879L290.59 309.702c-10.595 6.117-24.305 2.909-30.697-7.524a22.376 22.376 0 0 1-2.55-17.563 22.371 22.371 0 0 1 10.466-13.641l58.171-48.167" fill="#e2a770"></path><path d="m433.359 146.075 1.706-.985 1.895 3.283c6.491 11.242 9.327 23.595 8.879 35.669-.818 22.113-12.647 43.326-33.23 55.209L290.587 309.7c-10.591 6.114-24.297 2.909-30.697-7.527a22.337 22.337 0 0 1-3.267-10.334c6.978 4.593 16.321 5.072 24.016.629l122.022-70.449c11.902-6.872 20.872-16.862 26.477-28.336 7.137-14.581 8.836-31.563 4.221-47.608z" fill="#d5985c"></path><path d="M340.038 128.844c-15.276-4.093-25.865-16.929-27.841-31.672l-8.826-2.365-32.627-8.742c-14.037-3.761-22.365-18.185-18.604-32.223 1.881-7.019 6.43-12.617 12.259-15.982s12.952-4.507 19.97-2.626l76.674 20.551c18.456 4.945 33.005 17.174 41.385 32.766l.012.021" fill="#e2a770"></path><path d="m303.371 94.807-32.108-8.603c-14.194-3.803-23.034-18.621-19.014-32.755a25.968 25.968 0 0 1 3.666-7.756c.867 10.781 8.378 20.328 19.414 23.285l32.627 8.742z" fill="#d5985c"></path><path d="m453.891 39.532 54.435 94.285c7.564 13.101 3.075 29.852-10.026 37.416-13.101 7.564-29.852 3.075-37.416-10.026l-54.435-94.285c-7.564-13.101-3.075-29.852 10.026-37.416 13.1-7.563 29.852-3.074 37.416 10.026z" fill="#8993da"></path><path d="m487.861 98.381 20.459 35.436c7.567 13.106 3.079 29.854-10.019 37.416a27.318 27.318 0 0 1-20.788 2.739 27.315 27.315 0 0 1-16.633-12.766l-20.459-35.436c3.783 6.553 9.861 10.945 16.629 12.758a27.311 27.311 0 0 0 20.787-2.739c13.099-7.562 17.586-24.31 10.024-37.408z" fill="#707dd3"></path><path d="M149.554 78.174 82.709 193.948 37.542 167.87l66.845-115.774z" fill="#c18678"></path><path d="m149.553 78.172-19.56 33.878-45.166-26.078 19.559-33.878z" fill="#b46e59"></path><path d="m173.677 263.598-46.874-27.064 8.742 32.627c3.761 14.037-4.567 28.461-18.604 32.223-7.019 1.881-14.141.739-19.97-2.626s-10.379-8.963-12.259-15.982l-20.539-76.677c-4.945-18.456-1.63-37.17 7.684-52.223l.012-.021-.008.021 34.536-59.819c18.371-31.82 59.059-42.722 90.879-24.351l122.021 70.449c10.595 6.117 14.672 19.595 8.833 30.346a22.378 22.378 0 0 1-13.935 10.99 22.374 22.374 0 0 1-17.047-2.243l-32.259 57.154" fill="#c18678"></path><path d="m106.208 98.326-1.706-.985 1.895-3.282c6.491-11.242 15.77-19.874 26.451-25.524 19.559-10.348 43.845-10.71 64.428 1.173l122.022 70.449c10.591 6.114 14.668 19.587 8.83 30.347a22.328 22.328 0 0 1-7.316 7.997c.489-8.34-3.768-16.67-11.463-21.113L187.328 86.94c-11.902-6.872-25.038-9.645-37.778-8.762-16.198 1.11-31.753 8.13-43.342 20.148z" fill="#b46e59"></path><path d="M137.947 187.76c4.093 15.276-1.728 30.864-13.508 39.947l2.365 8.826 8.742 32.627c3.761 14.037-4.567 28.461-18.604 32.223-7.019 1.881-14.141.739-19.97-2.626s-10.379-8.963-12.259-15.982l-20.539-76.677c-4.945-18.456-1.63-37.17 7.684-52.223l.012-.021" fill="#c18678"></path><g fill="#b46e59"><path d="m126.804 236.533 8.603 32.108c3.803 14.194-4.609 29.258-18.86 32.844a26 26 0 0 1-8.55.704c8.903-6.141 13.415-17.42 10.458-28.456l-8.742-32.627zM279.317 176.682a7.687 7.687 0 0 1-3.856-1.037l-44.979-25.968c-3.696-2.134-4.962-6.859-2.828-10.555s6.858-4.962 10.554-2.828l44.979 25.969a7.726 7.726 0 0 1 2.828 10.554 7.722 7.722 0 0 1-6.698 3.865z" fill="#b46e59"></path></g><path d="m3.674 133.817 54.435-94.285c7.564-13.101 24.315-17.589 37.416-10.026 13.101 7.564 17.589 24.315 10.026 37.416l-54.435 94.285C43.552 174.308 26.8 178.796 13.7 171.233.599 163.669-3.889 146.918 3.674 133.817z" fill="#8993da"></path><path d="m37.653 74.974 20.459-35.436c7.567-13.106 24.315-17.594 37.413-10.031 6.553 3.783 10.952 9.865 12.766 16.633s1.045 14.234-2.739 20.787l-20.459 35.436c3.783-6.553 4.548-14.012 2.735-20.78s-6.213-12.85-12.766-16.633c-13.099-7.562-29.846-3.075-37.409 10.024z" fill="#707dd3"></path><path d="M198.198 387.655h133.689v52.156H198.198z" fill="#ffece4"></path><path d="M198.198 387.655h39.119v52.156h-39.119z" fill="#ffddce"></path><path d="m346.716 274.05-.002 54.126 23.885-23.885c10.276-10.276 26.932-10.276 37.208 0 5.138 5.138 7.711 11.877 7.711 18.608s-2.573 13.47-7.711 18.608l-56.134 56.126c-13.511 13.511-31.375 19.997-49.068 19.457h-.025l.022-.003h-69.073c-36.743 0-66.528-29.786-66.528-66.528V209.662c0-12.235 9.634-22.503 21.864-22.822a22.376 22.376 0 0 1 16.485 6.573 22.372 22.372 0 0 1 6.581 15.884l12.628 74.461" fill="#ffece4"></path><path d="M346.716 190.051v113.653H211.931V190.051c0-12.406 10.059-22.465 22.465-22.465s22.465 10.059 22.465 22.465v-10.655c0-12.406 10.053-22.465 22.459-22.465 12.412 0 22.465 10.059 22.465 22.465v10.655a22.372 22.372 0 0 1 6.581-15.884 22.393 22.393 0 0 1 15.884-6.581c12.407 0 22.466 10.059 22.466 22.465z" fill="#ffece4"></path><g fill="#ffddce"><path d="M331.887 168.921a22.368 22.368 0 0 0-8.246 5.248 22.372 22.372 0 0 0-6.581 15.884v76.492c0 8.433-6.836 15.27-15.27 15.27h-.006v-91.762a22.372 22.372 0 0 1 6.581-15.884 22.372 22.372 0 0 1 15.884-6.581c2.686 0 5.254.467 7.638 1.333zM237.322 415.116v1.97h-3.79c-12.982 0-25.097-3.72-35.33-10.145-18.742-11.765-31.198-32.616-31.198-56.382v-140.9c0-12.229 9.629-22.497 21.867-22.821a22.344 22.344 0 0 1 10.583 2.337c-7.467 3.747-12.553 11.599-12.553 20.484v140.899c0 13.743 4.167 26.506 11.301 37.098 9.06 13.471 22.917 23.433 39.12 27.46z" fill="#ffddce"></path><path d="M242.033 168.921c-8.652 3.128-14.827 11.405-14.827 21.132v76.492c0 8.433-6.836 15.27-15.27 15.27h-.006v-91.167c0-12.642 10.347-23.341 22.986-23.054a22.28 22.28 0 0 1 7.117 1.327zM286.957 158.266c-8.646 3.128-14.827 11.405-14.827 21.132v87.147c0 8.433-6.836 15.27-15.27 15.27V179.929c0-12.25 9.583-22.65 21.828-22.987 2.909-.08 5.696.39 8.269 1.324z" fill="#ffddce"></path></g><path d="M298.904 342.912c11.183-11.183 27.593-13.936 41.349-8.275l6.461-6.461 23.885-23.885c10.276-10.276 26.932-10.276 37.208 0 5.138 5.138 7.711 11.877 7.711 18.608s-2.573 13.47-7.711 18.608l-56.134 56.126c-13.511 13.511-31.375 19.997-49.068 19.457h-.025" fill="#ffece4"></path><path d="m346.715 328.176 23.48-23.48c10.102-10.102 26.553-10.782 36.981-1.016a26.076 26.076 0 0 1 5.802 7.955c-9.77-4.64-21.794-2.908-29.872 5.171l-11.375 11.375c-6.909 6.908-18.11 6.906-25.016-.005z" fill="#ffddce"></path><path d="M319.325 486.167H210.454c-15.127 0-27.39-12.263-27.39-27.39s12.263-27.39 27.39-27.39h108.871c15.127 0 27.39 12.263 27.39 27.39s-12.263 27.39-27.39 27.39z" fill="#8993da"></path><path d="M251.375 486.162h-40.918c-15.134 0-27.394-12.26-27.394-27.385 0-7.567 3.067-14.417 8.022-19.372s11.805-8.022 19.372-8.022h40.918c-7.567 0-14.409 3.067-19.364 8.022s-8.022 11.805-8.022 19.372c.001 15.125 12.261 27.385 27.386 27.385z" fill="#707dd3"></path></g></svg>