<svg viewBox="0 0 682.667 682.667" xmlns="http://www.w3.org/2000/svg"><g><defs><clippath clippathunits="userSpaceOnUse" id="a"><path d="M0 512h512V0H0Z" fill="#000000"></path></clippath></defs><g clip-path="url(#a)" transform="matrix(1.33333 0 0 -1.33333 0 682.667)"><path d="M0 0c0 91.341 74.704 165.234 166.347 163.916 88.771-1.278 160.955-74.079 161.516-162.856.314-49.718-21.511-94.34-56.191-124.606-3.659-3.194-3.132-9.023 1.048-11.496l30.89-18.277c4.994-2.954 2.897-10.611-2.905-10.609l-139.877.034C71.725-162.238 0-89.5 0 0" fill="#7acaa6" transform="translate(184.134 163.928)"></path><path d="m0 0-30.89 18.276c-4.18 2.474-4.707 8.303-1.047 11.497 34.679 30.266 56.504 74.888 56.19 124.605-.561 88.778-72.745 161.579-161.516 162.856a165.957 165.957 0 0 1-17.886-.712c82.703-7.799 147.963-77.749 148.497-162.144.314-49.717-21.512-94.339-56.191-124.605-3.659-3.194-3.133-9.023 1.048-11.497L-30.905 0c4.966-2.938 2.916-10.521-2.814-10.602l30.814-.007C2.897-10.611 4.994-2.955 0 0" fill="#57be92" transform="translate(487.744 10.61)"></path><path d="M0 0c-1.282.049-2.568.085-3.857.104-91.644 1.319-166.348-72.574-166.348-163.916 0-2.093.052-4.174.13-6.249C-80.564-160.612-9.447-89.511 0 0" fill="#57be92" transform="translate(354.338 327.74)"></path><path d="M0 0c0 91.341-74.704 165.234-166.347 163.916-88.771-1.278-160.955-74.079-161.516-162.856-.314-49.718 21.511-94.34 56.191-124.606 3.659-3.194 3.132-9.023-1.048-11.496l-30.89-18.277c-4.994-2.954-2.897-10.611 2.905-10.609l139.877.034C-71.725-162.238 0-89.5 0 0" fill="#8795de" transform="translate(327.866 348.067)"></path><path d="M0 0a163.752 163.752 0 0 1-13.02-.712C70.261-8.51 135.442-78.597 135.442-163.916c0-89.5-71.725-162.237-160.829-163.894l-109.062-.026c.032 0 .06-.008.091-.008l139.877.034c89.104 1.657 160.828 74.394 160.828 163.894C166.347-72.574 91.644 1.319 0 0" fill="#6c7fd8" transform="translate(161.519 511.982)"></path><path d="M0 0c0-9.507 7.707-17.214 17.213-17.214 9.508 0 17.214 7.707 17.214 17.214 0 9.507-7.706 17.213-17.214 17.213C7.707 17.213 0 9.507 0 0" fill="#ffffff" transform="translate(146.72 237.044)"></path><path d="M0 0c-8.535 0-15.453 6.918-15.453 15.453v55.029c0 8.535 6.918 15.453 15.453 15.453 10.288 0 19.861 4.116 26.957 11.59 7.09 7.468 10.7 17.263 10.165 27.581-1.004 19.33-16.969 34.777-36.347 35.167-18.868.382-34.994-13.36-37.588-31.961a37.55 37.55 0 0 1-.36-5.204c0-8.534-6.919-15.453-15.453-15.453-8.534 0-15.453 6.919-15.453 15.453 0 3.169.222 6.358.657 9.477 4.693 33.635 33.551 58.602 67.428 58.602.464 0 .926-.005 1.391-.015 35.5-.714 64.749-29.03 66.588-64.463.979-18.867-5.632-36.789-18.616-50.464-9.196-9.685-21.071-16.403-33.916-19.419V15.453C15.453 6.918 8.534 0 0 0" fill="#ffffff" transform="translate(163.933 285.122)"></path><path d="M0 0c0-9.507 7.707-17.214 17.214-17.214 9.507 0 17.214 7.707 17.214 17.214 0 9.507-7.707 17.214-17.214 17.214C7.707 17.214 0 9.507 0 0" fill="#ffffff" transform="translate(330.853 163.93)"></path><path d="M0 0c0-9.507 7.707-17.214 17.214-17.214 9.507 0 17.213 7.707 17.213 17.214 0 9.507-7.706 17.214-17.213 17.214C7.707 17.214 0 9.507 0 0" fill="#ffffff" transform="translate(408.117 163.93)"></path><path d="M0 0c0-9.507 7.707-17.214 17.214-17.214 9.507 0 17.214 7.707 17.214 17.214 0 9.507-7.707 17.214-17.214 17.214C7.707 17.214 0 9.507 0 0" fill="#ffffff" transform="translate(253.59 163.93)"></path></g></g></svg>