<svg id="Layer_3" enable-background="new 0 0 64 64" height="512" viewBox="0 0 64 64" width="512" xmlns="http://www.w3.org/2000/svg"><g><path d="m43 51v-10c0-2.35-1.6-4.4-3.88-4.97l-.92-.23-3.2-.8h-6l-3.2.8-.92.23c-2.28.57-3.88 2.62-3.88 4.97v10" fill="#b5b5b5"/><path d="m43 41c0-2.35-1.6-4.4-3.88-4.97l-.92-.23-3.2-.8h-6l-3.2.8-.92.23c-.192.048-.372.121-.553.189-.208.559-.327 1.157-.327 1.78v7.001c0 1.657 1.343 3 3 3h16z" fill="#c9c9c9"/><path d="m33.899 49.906-.899-9.906h-2l-.902 9.906 1.902 1.094z" fill="#e56a6a"/><path d="m32.55 50.683 1.349-.777-.899-9.906h-.899l-.902 9.906z" fill="#ed8585"/><g fill="#b5b5b5"><path d="m35 39 3.2-3.2-3.2-.8-3 1z"/><path d="m32 36-3-1-3.2.8 3.2 3.2z"/></g><path d="m34.2 38.2-1.2 1.8h-2l-1.2-1.8 2.2-2.2z" fill="#e56a6a"/><g><path d="m24 43h2v7h-2z" fill="#777"/></g><g><path d="m38 43h2v7h-2z" fill="#777"/></g><g><path d="m31 3h2v6h-2z" fill="#f9cb6e"/></g><path d="m51 31c0 10.493-8.507 19-19 19s-19-8.507-19-19h-11v5h4.49c.67 3.46 2.03 6.68 3.93 9.51l-3.17 3.17 7.07 7.07 3.17-3.17c2.83 1.9 6.05 3.26 9.51 3.93v4.49h10v-4.49c3.46-.67 6.68-2.03 9.51-3.93l3.17 3.17 7.07-7.07-3.17-3.17c1.9-2.83 3.26-6.05 3.93-9.51h4.49v-5z" fill="#4084c1"/><g><path d="m45 21h6v2h-6z" fill="#f9cb6e"/></g><g><path d="m13 21h6v2h-6z" fill="#f9cb6e"/></g><g><path d="m18.5 6.964h2v7.071h-2z" fill="#f9cb6e" transform="matrix(.707 -.707 .707 .707 -1.713 16.864)"/></g><g><path d="m40.964 9.5h7.071v2h-7.071z" fill="#f9cb6e" transform="matrix(.707 -.707 .707 .707 5.609 34.542)"/></g><g><path d="m15.964 32.5h7.071v2h-7.071z" fill="#f9cb6e" transform="matrix(.707 -.707 .707 .707 -17.977 23.601)"/></g><g><path d="m43.5 29.964h2v7.071h-2z" fill="#f9cb6e" transform="matrix(.707 -.707 .707 .707 -10.654 41.278)"/></g><path d="m32 50c-10.493 0-19-8.507-19-19h-4c0 12.703 10.297 23 23 23s23-10.297 23-23h-4c0 10.493-8.507 19-19 19z" fill="#59a2d8"/><path d="m24 43v2c0 1.304.837 2.403 2 2.816v-4.816z" fill="#969696"/><path d="m38 43h2v5h-2z" fill="#969696"/><path d="m42 22c0-5.523-4.477-10-10-10s-10 4.477-10 10c0 4.477 2.943 8.266 7 9.541v3.459l3 1 3-1v-3.459c4.057-1.275 7-5.064 7-9.541z" fill="#f9cb6e"/><path d="m40.023 27.969c1.242-1.665 1.977-3.731 1.977-5.969 0-5.523-4.477-10-10-10-2.251 0-4.321.753-5.992 2.008-1.255 1.671-2.008 3.741-2.008 5.992 0 5.523 4.477 10 10 10 2.265 0 4.346-.762 6.023-2.031z" fill="#ffd997"/><path d="m30 24h1v11.667l1 .333 1-.333v-11.667h1v-2h-4z" fill="#fff"/></g></svg>