<svg viewBox="0 0 64 64" xmlns="http://www.w3.org/2000/svg"><g><path d="M38 49v1h-5v-5h1a4.009 4.009 0 0 1 4 4z" fill="#ffc477"></path><path d="M33 45v5h-1.29A4.009 4.009 0 0 1 28 47.51c0-.01-.01-.01-.01-.02L25 40h-.02v10H7a4 4 0 0 1-4-4v-5.4a7.976 7.976 0 0 1 5.27-7.51L14 31a3 3 0 0 0 6 0l6.48 2.88a5.978 5.978 0 0 1 3.31 3.76L32 45z" fill="#3d9ae2"></path><path d="M20 27v4a3 3 0 0 1-6 0v-4z" fill="#ffc477"></path><path d="m61.61 34.33-2.33 14A2.006 2.006 0 0 1 57.31 50H42l3-18h14.64a2 2 0 0 1 1.97 2.33z" fill="#c6c5ca"></path><path d="M3 50h58v4H3z" fill="#a97c50"></path><path d="M61 5v16a2.006 2.006 0 0 1-2 2H48l-3 4-3-4h-7a2.006 2.006 0 0 1-2-2V5a2.006 2.006 0 0 1 2-2h24a2.006 2.006 0 0 1 2 2z" fill="#00ccb3"></path><path d="M6 54h52v7H6z" fill="#a97c50"></path><circle cx="52" cy="41" fill="#e6e7e8" r="2"></circle><path d="m45 32-3 18h-4l.67-4 1.91-11.49A3 3 0 0 1 43.54 32z" fill="#acabb1"></path><path d="M38.67 46 38 50h-8a2.006 2.006 0 0 1-2-2v-2z" fill="#acabb1"></path><path d="M26 8v5.07c-2.64.34-4.03.93-7 .93-3.33 0-2.67-1-6-1v2a2.006 2.006 0 0 1-2 2h-1v-5a4 4 0 0 1 4-4z" fill="#57565c"></path><path d="M6 54h52v2H6z" fill="#8b5e3c"></path><path d="M10 17h-.5a2.5 2.5 0 1 0 0 5H11v-5zM20 27v3.75a8.239 8.239 0 0 1-2 .25 7.851 7.851 0 0 1-4-1.08V27z" fill="#ffb655"></path><path d="M26 13.07V21a8.006 8.006 0 0 1-6 7.75 8.239 8.239 0 0 1-2 .25 7.851 7.851 0 0 1-4-1.08 7.575 7.575 0 0 1-1.66-1.26A8.054 8.054 0 0 1 10.06 22a8.262 8.262 0 0 1-.06-1v-4h1a2.006 2.006 0 0 0 2-2v-2c3.33 0 2.67 1 6 1 2.97 0 4.36-.59 7-.93z" fill="#ffc477"></path><path d="M15 18h2v2h-2zM21 18h2v2h-2z" fill="#ee8700"></path><g fill="#00b39d"><path d="M38 8h18v2H38zM38 12h18v2H38zM38 16h18v2H38z" fill="#00b39d"></path></g><path d="m14.991 41.155 1.972-.328.998 5.997-1.972.328z" fill="#e6e7e8"></path><path d="M7 39h2v6H7z" fill="#1e81ce"></path><path d="M19 49v1h-5v-5h1a3.757 3.757 0 0 1 1.54.32A3.965 3.965 0 0 1 19 49z" fill="#ffc477"></path></g></svg>