<svg viewBox="0 0 472.393 472.393" xmlns="http://www.w3.org/2000/svg"><g><path d="m180.196 120.393-32-32 53.328-60c5.988-6.742 5.686-16.982-.688-23.36l-.056-.056c-6.662-6.647-17.452-6.634-24.098.029-.165.166-.327.335-.486.507l-60.448 65.944c-8.68 9.471-8.363 24.098.72 33.184l41.328 39.752 22.4-24z" fill="#fdc9a6"></path><path d="m296.364 124.561 79.872-87.016c6.298-6.927 17.02-7.437 23.947-1.138.198.18.392.365.581.554 6.401 6.398 6.647 16.695.56 23.392l-79.296 86.208-25.664-22z" fill="#f6bb92"></path><path d="m172.196 112.393-24 24 48 40v96h96v-96l32-32-24-24-32 24h-56l-40-32z" fill="#f9e0a0"></path><path d="M236.196 136.393c-13.255 0-24-10.745-24-24l-1.248-48h48l1.248 48c0 13.254-10.745 24-24 24z" fill="#fdc9a6"></path><path d="m210.948 95.649 16-24 4.24 3.2c16.377 11.938 38.967 10.368 53.536-3.72l7.472-7.48-21.264-16a39.998 39.998 0 0 0-42.88-4.544l-9.104 4.56-.496.328c-13.428 8.952-18.089 26.501-10.872 40.936l3.368 6.72z" fill="#5b3726"></path><path d="m292.196 264.393 5.504 27.536a31.996 31.996 0 0 1-4.24 23.24l-33.264 53.224 40 72v16h-40v-16l-40-72 16-48-48 48 32 72v16h-40v-16l-32-72 48-80v-24h96z" fill="#4799cf"></path><path d="M220.196 472.393h-64v-8c0-13.255 10.745-24 24-24h40v32zM300.196 472.393h-64v-8c0-13.255 10.745-24 24-24h40v32z" fill="#1f6c8c"></path><path d="m65.908 390.105-13.712 34.288-13.712-34.288-34.288-13.712 34.288-13.712 13.712-34.288 13.712 34.288 34.288 13.712-34.288 13.712zM433.908 190.105l-13.712 34.288-13.712-34.288-34.288-13.712 34.288-13.712 13.712-34.288 13.712 34.288 34.288 13.712-34.288 13.712z" fill="#fbb540"></path><path d="M420.196 384.393h16v16h-16v-16zM420.196 432.393h16v16h-16v-16zM444.196 408.393h16v16h-16v-16zM396.196 408.393h16v16h-16v-16zM68.196 168.393h16v16h-16v-16zM68.196 200.393h16v16h-16v-16zM84.196 184.393h16v16h-16v-16zM52.196 184.393h16v16h-16v-16z" fill="#ea9d2d"></path><path d="M332.196 328.393a8 8 0 0 1-5.656-13.656l10.344-10.344-10.344-10.344a8 8 0 0 1 .196-11.312 8 8 0 0 1 11.116 0l16 16a8 8 0 0 1 0 11.312l-16 16a8.003 8.003 0 0 1-5.656 2.344zM372.196 328.393a8 8 0 0 1-5.656-13.656l10.344-10.344-10.344-10.344a8 8 0 0 1 .196-11.312 8 8 0 0 1 11.116 0l16 16a8 8 0 0 1 0 11.312l-16 16a8.003 8.003 0 0 1-5.656 2.344zM76.196 104.393a8 8 0 0 1-5.656-2.344l-16-16a8 8 0 0 1 0-11.312l16-16a8 8 0 0 1 11.312 11.312L71.508 80.393l10.344 10.344a8 8 0 0 1-5.656 13.656zM36.196 104.393a8 8 0 0 1-5.656-2.344l-16-16a8 8 0 0 1 0-11.312l16-16a8 8 0 0 1 11.312 11.312L31.508 80.393l10.344 10.344a8 8 0 0 1-5.656 13.656z" fill="#f9e0a0"></path><path d="M268.196 144.393h-56l-40-32-24 24 48 40v88h51.28c30.792-46.552 40.552-108.944 43.496-137.08l-22.776 17.08z" fill="#f7e4ba"></path><path d="M247.476 264.393h-51.28v24l-17.352 28.92a120.947 120.947 0 0 0 68.632-52.92z" fill="#6cbae5"></path></g></svg>