<svg viewBox="0 0 480 480.401" xmlns="http://www.w3.org/2000/svg"><g><g fill="#577399"><path d="M185.96 288c3.84-4.238 6.24-9.84 6.24-16 0-1.68-.16-3.36-.56-5.121-2-9.36-9.761-16.879-19.199-18.477-15.12-2.64-28.242 8.957-28.242 23.598 0 6.16 2.403 11.762 6.242 16-6.16 0-11.68 2.48-15.761 6.48-4 4.079-6.48 9.602-6.48 15.762V328l80-.96v-16.798A22.193 22.193 0 0 0 185.96 288zM80.2 292.879c4.722-3.2 8.32-8.16 9.76-14.16a20.75 20.75 0 0 0 .642-5.04c.16-9.597-5.68-18.718-14.48-22.398-14.083-6.082-29.52 2.239-32.88 16.48-1.441 6-.402 12 2.399 17.04-6-1.442-11.922-.32-16.801 2.64-4.88 3.118-8.559 7.918-9.918 13.918l-1.84 7.84v.082L94.039 331.2l2.723-11.52c2.797-12-4.563-23.917-16.563-26.8zM321.96 288c3.84-4.238 6.24-9.84 6.24-16 0-14.64-13.118-26.238-28.24-23.598-9.44 1.598-17.198 9.118-19.198 18.477a22.694 22.694 0 0 0-.563 5.121c0 6.16 2.403 11.762 6.242 16a22.196 22.196 0 0 0-22.242 22.242v16.797l80 .961v-17.758c0-6.16-2.48-11.683-6.48-15.762-4.078-4-9.598-6.48-15.758-6.48zM453.48 300.098c-1.359-6-5.039-10.801-9.921-13.922-4.88-2.961-10.797-4.078-16.797-2.64 2.797-5.04 3.84-11.04 2.398-17.04-3.36-14.238-18.8-22.559-32.879-16.48-8.8 3.68-14.64 12.8-14.48 22.402 0 1.758.238 3.437.64 5.039 1.438 6 5.04 10.961 9.758 14.16a22.288 22.288 0 0 0-16.558 26.801l2.718 11.52 77.442-20.243zm0 0" fill="#577399"></path></g><path d="m88.2 327.602-88-24v48l88 24h128v-48zM384.2 327.785l-128-.183v48h128l96-24v-48zm0 0" fill="#a7bccf"></path><path d="M256.2 327.785h128V376h-128zM88.2 327.383h128v48.219h-128zm0 0" fill="#bdd5ea"></path><path d="M185.96 401.68c3.84-4.239 6.24-9.84 6.24-16 0-1.68-.16-3.36-.56-5.121-2-9.36-9.761-16.88-19.199-18.477-15.12-2.64-28.242 8.957-28.242 23.598 0 6.16 2.403 11.761 6.242 16-6.16 0-11.68 2.48-15.761 6.48-4 4.082-6.48 9.602-6.48 15.762V440l80 .719v-16.797a22.193 22.193 0 0 0-22.24-22.242zM80.2 397.281c4.722-3.199 8.32-8.082 9.76-14.082.4-1.68.642-3.36.642-5.117.16-9.602-5.68-18.723-14.48-22.402-14.083-6-29.52 2.242-32.88 16.48-1.441 6-.402 12 2.399 17.04-6-1.438-11.922-.24-16.801 2.722-4.88 3.039-8.559 7.84-9.918 13.84l-2.16 9.199 76.16 25.441 3.84-16.32a22.294 22.294 0 0 0-16.563-26.8zM321.96 401.68c3.84-4.239 6.24-9.84 6.24-16 0-14.64-13.118-26.239-28.24-23.598-9.44 1.598-17.198 9.117-19.198 18.477a22.694 22.694 0 0 0-.563 5.12c0 6.16 2.403 11.762 6.242 16a22.196 22.196 0 0 0-22.242 22.243v16.797l80-.719v-16.078c0-6.16-2.48-11.68-6.48-15.762-4.078-4-9.598-6.48-15.758-6.48zM453.504 405.746c-1.406-6-5.086-10.8-9.91-13.86-4.89-2.956-10.832-4.109-16.824-2.702 2.765-5.008 3.824-11.008 2.406-17-3.352-14.246-18.778-22.536-32.895-16.512-8.824 3.719-14.656 12.816-14.457 22.383.016 1.808.238 3.48.625 5.113 1.406 6 5.031 10.898 9.735 14.144a22.202 22.202 0 0 0-16.559 26.743l3.848 16.355 76.726-23.219zm0 0" fill="#577399"></path><path d="m88.2 432-88-24v48l88 24h128v-48zM384.2 432.184l-128-.184v48h128l96-24v-48zm0 0" fill="#a7bccf"></path><path d="M385.96 63.977c3.84-4.239 6.24-9.84 6.24-16 0-1.68-.16-3.36-.56-5.122-2-9.359-9.761-16.878-19.199-18.48-15.12-2.637-28.242 8.96-28.242 23.602 0 6.16 2.403 11.761 6.242 16-6.16 0-11.68 2.48-15.761 6.48-4 4.078-6.48 9.598-6.48 15.758v33.762h80V86.215a22.192 22.192 0 0 0-22.24-22.238zm0 0" fill="#495867"></path><path d="M352.2 120v80l120-64V56zm0 0" fill="#a7bccf"></path><path d="M129.96 64c3.84-4.238 6.24-9.84 6.24-16 0-1.68-.16-3.36-.56-5.121-2-9.36-9.761-16.879-19.199-18.477C101.321 21.762 88.2 33.36 88.2 48c0 6.16 2.403 11.762 6.242 16-6.16 0-11.68 2.48-15.761 6.48-4 4.079-6.48 9.602-6.48 15.762V120h80V86.242A22.193 22.193 0 0 0 129.96 64zm0 0" fill="#495867"></path><path d="M128.2 120v80l-120-64V56zm0 0" fill="#a7bccf"></path><path d="M128.2 120h224v80h-224zm0 0" fill="#bdd5ea"></path><path d="M184.2 72h112v48h-112zm0 0" fill="#a7bccf"></path><path d="M257.969 40c4.863-5.398 7.422-12.934 5.68-21.129-1.985-9.36-9.801-16.902-19.231-18.512-15.113-2.574-28.219 9-28.219 23.641 0 6.176 2.403 11.746 6.235 16-12.282 0-22.235 9.953-22.235 22.234V72h80v-9.766C280.2 49.954 270.25 40 257.97 40zm0 0" fill="#fe5f55"></path><path d="M256.2 432.184h128v48.218h-128zM88.2 431.785h128V480h-128zm0 0" fill="#bdd5ea"></path></g></svg>