<svg viewBox="0 0 48 48" xmlns="http://www.w3.org/2000/svg"><g><path d="M19 36 8.681 40.299c-.618.258-1.238-.363-.981-.981L12 29l-7.82-4.344a.75.75 0 0 1 0-1.311L12 19 7.701 8.681a.75.75 0 0 1 .98-.98L19 12l4.344-7.82a.75.75 0 0 1 1.311 0L29 12l10.319-4.299c.618-.258 1.238.363.981.981L36 19l7.82 4.344a.75.75 0 0 1 0 1.311L36 29l4.299 10.319c.258.618-.363 1.238-.981.981L29 36l-4.344 7.82a.75.75 0 0 1-1.311 0z" fill="#f99f10"></path><path d="M39.319 7.701 29 12l-4.344-7.82a.75.75 0 0 0-1.311 0L19 12 8.681 7.701a.75.75 0 0 0-.98.98L12 19l-7.82 4.344a.75.75 0 0 0 0 1.311L12 29 7.701 39.319a.74.74 0 0 0 .162.819L40.138 7.863a.738.738 0 0 0-.819-.162z" fill="#f9c900"></path><path d="M14 25 33.561 5.439A1.499 1.499 0 0 1 34.621 5H42a1 1 0 0 1 1 1v7.379c0 .398-.158.779-.439 1.061L23 34z" fill="#9de8fc"></path><path d="M42 5h-7.379c-.398 0-.779.158-1.061.439L14 25l4.5 4.5L42.707 5.293A.997.997 0 0 0 42 5z" fill="#d4f2f9"></path><path d="M21.5 32.5 10.707 43.293a.999.999 0 0 1-1.414 0l-4.586-4.586a.999.999 0 0 1 0-1.414L15.5 26.5z" fill="#5e5e5e"></path><path d="m18.5 29.5-3-3L4.707 37.293a.999.999 0 0 0 0 1.414L7 41z" fill="#919191"></path><path d="M26.293 34.293 13.707 21.707a.999.999 0 0 0-1.414 0l-1.586 1.586a.999.999 0 0 0 0 1.414l12.586 12.586a.999.999 0 0 0 1.414 0l1.586-1.586a1 1 0 0 0 0-1.414z" fill="#bc9c73"></path><path d="m20 28-6.293-6.293a.999.999 0 0 0-1.414 0l-1.586 1.586a.999.999 0 0 0 0 1.414L17 31z" fill="#ccb9ae"></path></g></svg>