<svg viewBox="0 0 512 512" xmlns="http://www.w3.org/2000/svg"><g><path d="M494.635 255.485C494.913 396.536 379.892 511.889 238.84 512c-68.5.054-130.729-26.803-176.703-70.567-2.511-2.391-2.545-6.39-.094-8.841L78.335 416.3a6.175 6.175 0 0 1 8.619-.107c40.359 38.237 95.161 61.379 155.367 60.396 121.267-1.98 218.633-102.518 216.908-223.789-1.712-120.364-99.824-217.417-220.595-217.417-60.66 0-115.596 24.487-155.473 64.104l11.528 11.528c3.376 3.376 1.813 9.141-2.805 10.35l-66.767 17.487c-4.573 1.198-8.743-2.972-7.545-7.545L35.059 64.54c1.209-4.618 6.975-6.18 10.35-2.805L58.144 74.47C104.433 28.451 168.204 0 238.635 0c141.211 0 255.721 114.339 256 255.485z" fill="#62d8f9"></path><path d="M459.359 126.278a223.462 223.462 0 0 1 5.097 47.511c0 19.006-2.387 37.454-6.867 55.065A222.724 222.724 0 0 1 459.253 256c0 121.839-98.778 220.618-220.618 220.618-58.749 0-112.137-22.966-151.669-60.415-2.437-2.308-6.259-2.275-8.633.098l-16.29 16.291c-2.452 2.452-2.418 6.451.094 8.841C108.066 485.154 170.216 512 238.635 512c141.475 0 255.643-113.866 255.999-255.341.12-47.593-12.763-92.161-35.275-130.381z" fill="#00bef7"></path><circle cx="238.635" cy="256" fill="#c56e37" r="166.504"></circle><path d="M325.659 114.029c15.556 25.324 24.533 55.125 24.533 87.024 0 91.958-74.546 166.504-166.504 166.504-31.9 0-61.7-8.977-87.024-24.533 29.288 47.678 81.913 79.48 141.971 79.48 91.958 0 166.504-74.546 166.504-166.504 0-60.058-31.802-112.683-79.48-141.971z" fill="#a95e2c"></path><circle cx="238.635" cy="256" fill="#eff3f5" r="135.285"></circle><g fill="#595959"><path d="M238.635 161.148a7.725 7.725 0 0 0 7.726-7.726v-6.69a7.726 7.726 0 1 0-15.452 0v6.69a7.726 7.726 0 0 0 7.726 7.726zM246.362 246.202v-58.885a7.726 7.726 0 1 0-15.452 0v58.884a12.462 12.462 0 0 0-4.618 8.004l-41.987 24.241a7.726 7.726 0 0 0 7.726 13.382l41.979-24.237c1.432.572 2.99.895 4.626.895 6.897 0 12.488-5.591 12.488-12.488-.001-3.975-1.866-7.509-4.762-9.796zM180.655 171.028a7.723 7.723 0 0 0 10.554 2.828 7.726 7.726 0 0 0 2.828-10.554l-3.345-5.794a7.726 7.726 0 0 0-13.382 7.726zM153.663 198.02l-5.794-3.345a7.724 7.724 0 0 0-10.554 2.828 7.726 7.726 0 0 0 2.828 10.554l5.794 3.345a7.72 7.72 0 0 0 10.554-2.828 7.727 7.727 0 0 0-2.828-10.554zM143.783 256a7.725 7.725 0 0 0-7.726-7.726h-6.69a7.726 7.726 0 1 0 0 15.452h6.69a7.725 7.725 0 0 0 7.726-7.726zM145.936 300.598l-5.794 3.345a7.726 7.726 0 0 0 7.726 13.382l5.794-3.345a7.726 7.726 0 0 0-7.726-13.382zM191.209 338.144a7.724 7.724 0 0 0-10.554 2.828l-3.345 5.794a7.726 7.726 0 0 0 6.684 11.59 7.72 7.72 0 0 0 6.698-3.864l3.345-5.794a7.726 7.726 0 0 0-2.828-10.554zM238.635 350.852a7.725 7.725 0 0 0-7.726 7.726v6.69a7.726 7.726 0 1 0 15.452 0v-6.69a7.725 7.725 0 0 0-7.726-7.726zM296.615 340.972a7.727 7.727 0 0 0-13.382 7.726l3.345 5.794a7.723 7.723 0 0 0 10.554 2.828 7.726 7.726 0 0 0 2.828-10.554zM337.127 303.943l-5.794-3.345a7.724 7.724 0 0 0-10.554 2.828 7.726 7.726 0 0 0 2.828 10.554l5.794 3.345a7.72 7.72 0 0 0 10.554-2.828 7.725 7.725 0 0 0-2.828-10.554zM347.903 248.274h-6.689a7.726 7.726 0 1 0 0 15.452h6.689c4.268 0 7.726-3.459 7.726-7.726s-3.458-7.726-7.726-7.726zM327.478 212.439c1.311 0 2.64-.334 3.856-1.036l5.794-3.345a7.726 7.726 0 0 0-7.726-13.382l-5.794 3.345a7.726 7.726 0 0 0 3.87 14.418zM297.132 154.68a7.723 7.723 0 0 0-10.554 2.828l-3.345 5.794a7.726 7.726 0 0 0 6.684 11.59 7.72 7.72 0 0 0 6.698-3.864l3.345-5.794a7.725 7.725 0 0 0-2.828-10.554z" fill="#595959"></path></g></g></svg>