<svg viewBox="0 0 504.189 504" xmlns="http://www.w3.org/2000/svg"><g><path d="M471.648 469.059a349.536 349.536 0 0 1-59.664 22.976 303.529 303.529 0 0 1-63.043 10.867c-10.93.649-21.882.676-32.816.078a291.249 291.249 0 0 1-32.617-3.636 341.768 341.768 0 0 1-110.09-39.797 498.277 498.277 0 0 1-94.535-69.805 370.578 370.578 0 0 1-39.074-41.719 247.469 247.469 0 0 1-30.352-48.359 99.225 99.225 0 0 1-8.016-59.129 117.405 117.405 0 0 1 23.29-52.293 121.4 121.4 0 0 1 11.347-12.648 114.028 114.028 0 0 1 12.777-10.696 214.252 214.252 0 0 1-20.78-58.707 99.992 99.992 0 0 1 .3-36.316 97.612 97.612 0 0 1 17.39-38.977A101.763 101.763 0 0 1 81.052 2.793 26.111 26.111 0 0 1 87.398.578a22.377 22.377 0 0 1 6.672-.39 34.592 34.592 0 0 1 15.032 4.46 14.251 14.251 0 0 1 6.574 10.38c.64 4.242-.246 8.57-2.504 12.214a21.787 21.787 0 0 1-9.473 8.442 90.622 90.622 0 0 0-14.73 8.632 70.593 70.593 0 0 0-11.996 10.977 46.224 46.224 0 0 0-7.43 18.96 78.837 78.837 0 0 0-.469 20.524c.41 4.407 1.055 8.782 1.934 13.118.867 4.347 1.93 8.664 3.101 12.918.653 2.43 1.344 4.84 2.07 7.246a414.65 414.65 0 0 0 2.27 7.246c.215.52 1.149 3.687 2.137 6.726a18.719 18.719 0 0 0 2.46 5.946 114.856 114.856 0 0 1 32.513-9.516 83.407 83.407 0 0 1 33.613 2.398c1.652.477 3.363.953 5.11 1.465 1.75.508 3.527 1.051 5.304 1.66a58.638 58.638 0 0 1 5 1.766c1.57.629 3.09 1.375 4.547 2.227a238.365 238.365 0 0 1 86.062 92.18 405.445 405.445 0 0 1 45.063 130.32 292.577 292.577 0 0 1 54.66 26.59A103.646 103.646 0 0 1 391.028 434a357.435 357.435 0 0 1 46.179-1.617 105.25 105.25 0 0 1 36.871 7.172c7.375 4.297 12.016 8.808 12.192 13.68.171 4.867-4.122 10.097-14.622 15.824zm0 0" fill="#c03a2b"></path><path d="M159.563 416.137a8.682 8.682 0 0 1-5.036-1.614 526.146 526.146 0 0 1-45.773-36.734c-12.82-11.527-23.16-21.988-30.902-30.324a8.671 8.671 0 0 1 4.37-14.469 8.673 8.673 0 0 1 8.34 2.656c7.473 8.04 17.454 18.137 29.833 29.262a507.094 507.094 0 0 0 44.218 35.48 8.677 8.677 0 0 1-5.05 15.743zM267.996 467.504a8.573 8.573 0 0 1-2.105-.258 292.388 292.388 0 0 1-31.067-9.637 326.064 326.064 0 0 1-30.914-13.359 8.674 8.674 0 0 1-4.914-7.23 8.685 8.685 0 0 1 3.871-7.84 8.683 8.683 0 0 1 8.73-.489 307.71 307.71 0 0 0 29.204 12.621 275.054 275.054 0 0 0 29.285 9.094 8.68 8.68 0 0 1-2.09 17.098zm0 0" fill="#802f34"></path><path d="M504.188 71.61a165.192 165.192 0 0 0-37.747 50.687 151.205 151.205 0 0 0-14.058 60.39c-.39 16.922-.067 34.493-.969 51.915a197.944 197.944 0 0 1-8.316 51.003 93.898 93.898 0 0 1-39.985 49.489 129.729 129.729 0 0 1-61.46 19.937 42.49 42.49 0 0 1-10.407-9.969 43.168 43.168 0 0 1-7.73-12.246l2.515-.175 2.516-.172a57.012 57.012 0 0 0 27.293-19.102 115.66 115.66 0 0 0 17.918-39.734c-8.297 3.129-16.82 6.406-25.504 9.039a117.101 117.101 0 0 1-26.473 5.187 60.642 60.642 0 0 1-5.715.09 53.416 53.416 0 0 1-5.695-.488 2.662 2.662 0 0 1-.434-.086.931.931 0 0 1-.609-.48 3.73 3.73 0 0 1-.156-.336c-.508-1.235-.902-2.504-1.293-3.778-.387-1.273-.766-2.547-1.242-3.789a339.55 339.55 0 0 0-1.672-4.316 517.682 517.682 0 0 0-1.727-4.293 353.097 353.097 0 0 0-3.554-8.395 529.132 529.132 0 0 0-3.727-8.32c-.066-.148-.137-.3-.195-.453a2.22 2.22 0 0 1-.125-.473 5.003 5.003 0 0 1 .937-2.86 28.89 28.89 0 0 1 1.82-2.612 21.785 21.785 0 0 1 2.067-2.38 21.326 21.326 0 0 1 2.394-2.042 22.124 22.124 0 0 1 8.325-3.66 26.532 26.532 0 0 1 9.125-.356c37.574 5.035 62.37.543 77.59-11.148 15.218-11.696 20.859-30.59 20.12-54.371h-.011a125.206 125.206 0 0 1-13.852 12.718 55.415 55.415 0 0 1-16.422 8.977 37.234 37.234 0 0 1-18.453 1.02 127.218 127.218 0 0 1-17.992-5.098c-5.164-1.692-10.351-3.274-15.566-4.676-5.219-1.399-10.469-2.613-15.762-3.566a114.556 114.556 0 0 0-20.578-1.598c-6.867.035-13.746.512-20.645 1.074a101.37 101.37 0 0 1-7.82.219 135.357 135.357 0 0 1-7.887-.305 44.663 44.663 0 0 1-5.53-.781c-1.84-.356-3.669-.77-5.49-1.117-.167-.032-.335-.063-.5-.11a2.384 2.384 0 0 1-.484-.172 4.509 4.509 0 0 1-1.472-1.476c-.438-.621-.836-1.29-1.215-1.766a144.478 144.478 0 0 0-1.691-2.07 182.052 182.052 0 0 0-6.957-7.926 213.682 213.682 0 0 0-5.465-5.668 41.645 41.645 0 0 0-1.684-1.836 140.193 140.193 0 0 0-1.875-1.894 30.378 30.378 0 0 1 7.191-18.094c4.504-6.379 10.47-13.063 15.98-19.918a46.048 46.048 0 0 0-25.495-.605 44.01 44.01 0 0 0-18.86 10.75 9.054 9.054 0 0 1-5.41 2.511 8.752 8.752 0 0 1-5.75-1.484 209.47 209.47 0 0 0-6.984-4.535 223.825 223.825 0 0 0-7.191-4.293 60.128 60.128 0 0 0-4.165-2.203 71.984 71.984 0 0 0-4.203-1.868 8.903 8.903 0 0 1-4.82-4.707 8.775 8.775 0 0 1-.113-6.722 99.242 99.242 0 0 1 71.101-60.086c34.54-8.836 78.793-5.25 129.383 14.406-40.207 27.195-40.234 55.664-24.316 69.344 15.922 13.683 47.785 12.586 71.351-19.36a81.723 81.723 0 0 1 42.059-32.988 232.754 232.754 0 0 1 43.765-5.8zm0 0" fill="#f29c1f"></path><path d="M157.781 225.133a79.801 79.801 0 0 1-45.465-17.79c-9.136-7.519-14.02-14.542-19.984-14.85-13.535 27.292-30.61 54.5-44.215 60.745-13.601 6.25-23.734-8.46-23.387-64.996v-.09a125.127 125.127 0 0 1 11.38-12.601 114.876 114.876 0 0 1 12.745-10.653 214.252 214.252 0 0 1-20.78-58.707 99.992 99.992 0 0 1 .3-36.316 97.612 97.612 0 0 1 17.39-38.977A101.763 101.763 0 0 1 81.052 2.793 26.111 26.111 0 0 1 87.398.578a22.377 22.377 0 0 1 6.672-.39 34.592 34.592 0 0 1 15.032 4.46 14.251 14.251 0 0 1 6.574 10.38c.64 4.242-.246 8.57-2.504 12.214a21.787 21.787 0 0 1-9.473 8.442 90.622 90.622 0 0 0-14.73 8.632 70.593 70.593 0 0 0-11.996 10.977 46.224 46.224 0 0 0-7.43 18.96 78.837 78.837 0 0 0-.469 20.524c.41 4.407 1.055 8.782 1.934 13.118.867 4.347 1.93 8.664 3.101 12.918.653 2.43 1.344 4.84 2.07 7.246a414.65 414.65 0 0 0 2.27 7.246c.215.52 1.149 3.687 2.137 6.726a18.719 18.719 0 0 0 2.46 5.946 114.856 114.856 0 0 1 32.513-9.516 83.407 83.407 0 0 1 33.613 2.398c1.652.477 3.344.953 5.066 1.465a124.39 124.39 0 0 1 5.262 1.66 48.577 48.577 0 0 0-8.406 32.422 74.409 74.409 0 0 0 14.785 35.16c2 2.75 2.137 6.438.348 9.332a8.752 8.752 0 0 1-8.446 4.235zm0 0" fill="#24ae5f"></path><path d="M475.379 440.336a160.33 160.33 0 0 1-61.442 12.746A400.746 400.746 0 0 1 286.895 434c-62.657-18.441-108.106-66.625-139.653-115.957a519.21 519.21 0 0 1-56.21-122.86c.218-.476.433-.933.652-1.378.214-.446.433-.88.648-1.313 5.816.305 10.61 7.008 19.332 14.309a78.166 78.166 0 0 0 42.89 17.886c.52.086 1.04.176 1.571.25s1.074.141 1.64.184a8.692 8.692 0 0 0 8.47-4.2 8.44 8.44 0 0 0-.313-9.335 74.35 74.35 0 0 1-14.828-35.168 48.603 48.603 0 0 1 8.406-32.434h.086a58.638 58.638 0 0 1 5 1.766c1.57.629 3.09 1.375 4.547 2.227a218.926 218.926 0 0 1 69.176 65.386 360.897 360.897 0 0 1 46.066 93.246 430.978 430.978 0 0 1 9.21 31.739 413.436 413.436 0 0 1 6.673 32.129 292.577 292.577 0 0 1 54.66 26.59A103.646 103.646 0 0 1 391.028 434a357.435 357.435 0 0 1 46.179-1.617 105.25 105.25 0 0 1 36.871 7.172l.649.39zm0 0" fill="#e64c3c"></path></g></svg>