<svg viewBox="0 0 512 512" xmlns="http://www.w3.org/2000/svg"><g><path d="M360.082 512H38.585C27.216 512 18 502.784 18 491.415V20.585C18 9.216 27.216 0 38.585 0h321.497c11.369 0 20.585 9.216 20.585 20.585v470.83c0 11.369-9.216 20.585-20.585 20.585z" fill="#f1f1f1"></path><path d="M360.081 0h-30.909c11.369 0 20.586 9.216 20.586 20.584v470.832c0 11.368-9.217 20.584-20.586 20.584h30.909c11.369 0 20.586-9.216 20.586-20.584V20.584C380.667 9.216 371.451 0 360.081 0z" fill="#e2e2e2"></path><g fill="#42a5f5"><path d="M93.281 146.087a7.5 7.5 0 0 0 7.5 7.5h116.085a7.5 7.5 0 0 0 0-15H100.781a7.5 7.5 0 0 0-7.5 7.5zM77.243 188.416h206.769c4.143 0 7.5-3.358 7.5-7.5s-3.357-7.5-7.5-7.5H77.243a7.5 7.5 0 0 0 0 15zM284.012 208.244H77.243a7.5 7.5 0 0 0 0 15h206.769a7.5 7.5 0 0 0 0-15zM77.243 73.432h98.909a7.5 7.5 0 0 0 0-15H77.243a7.5 7.5 0 0 0 0 15zM176.152 434.448H77.243a7.5 7.5 0 0 0 0 15h98.909a7.5 7.5 0 0 0 0-15z" fill="#42a5f5"></path></g><path d="m351.706 359.985 21.852-21.85 36.419 36.418-21.852 21.851z" fill="#d0d0d0"></path><path d="M489.473 475.839c-6.035 6.034-15.819 6.034-21.853 0l-79.412-79.402 21.856-21.853 79.409 79.4c6.036 6.035 6.036 15.82 0 21.855z" fill="#ef483c"></path><ellipse cx="262.171" cy="248.562" fill="#497285" rx="149.394" ry="149.376"></ellipse><path d="M367.809 142.937c-33.107-33.103-77.887-47.412-121.092-42.945 32.931 3.405 64.948 17.714 90.183 42.945 58.342 58.335 58.342 152.915 0 211.25-25.235 25.232-57.252 39.541-90.183 42.945 43.205 4.467 87.985-9.842 121.092-42.945 58.342-58.335 58.342-152.915 0-211.25z" fill="#426778"></path><ellipse cx="262.171" cy="248.562" fill="#b9f5ff" rx="118.485" ry="118.471"></ellipse><path d="M345.953 164.791c-27.03-27.026-63.976-38.232-99.236-33.632 25.004 3.262 49.159 14.467 68.327 33.632 46.197 46.192 46.197 121.351 0 167.543-19.168 19.165-43.323 30.37-68.327 33.632 35.26 4.6 72.206-6.606 99.236-33.632 46.197-46.192 46.197-121.351 0-167.543z" fill="#8aeeff"></path></g></svg>