<svg viewBox="0 0 58 45" xmlns="http://www.w3.org/2000/svg"><g><g fill="none" fill-rule="evenodd"><path d="M45.28 21.32c.323.393.793.635 1.3.67H57a1 1 0 0 1 1 1v6a1 1 0 0 1-1 1h-8.91a2.035 2.035 0 0 0-1.68.91C41.38 38.52 33.5 44.99 23 45c-12.7-.01-23-9.63-23-19.01a9.9 9.9 0 0 1 .22-2.12v-.01z" fill="#95a5a5"></path><path d="M2.23 27.54a21.041 21.041 0 0 0 10.74 8.72l.01.01a26.8 26.8 0 0 0 9.52 1.72c.13 0 .26 0 .39-.01a26.214 26.214 0 0 0 9.94-2.06h.01a21.6 21.6 0 0 0 9.12-7.1 16.174 16.174 0 0 0 2.87-6.65z" fill="#7f8c8d"></path><path d="M42 28c.002.274-.011.548-.04.82a21.6 21.6 0 0 1-9.12 7.1h-.01A8.026 8.026 0 0 1 26 28a6.851 6.851 0 0 1 .04-.79c.01-.16.04-.33.06-.49a8.025 8.025 0 0 1 4.41-5.92 8 8 0 0 1 10.98 4.4c.339.895.512 1.843.51 2.8z" fill="#a65a47"></path><path d="M26.96 31.79a7.954 7.954 0 0 1-4.07 6.19c-.13.01-.26.01-.39.01a26.8 26.8 0 0 1-9.52-1.72l-.01-.01A8 8 0 0 1 11 31a8.019 8.019 0 0 1 6.19-7.8h.01c.59-.133 1.194-.2 1.8-.2a7.964 7.964 0 0 1 6.8 3.8c.09.13.17.268.24.41a7.926 7.926 0 0 0 .92 4.58zM46 18a8.012 8.012 0 0 1-1.17 4.17 8.077 8.077 0 0 1-3.34 3.03 8 8 0 0 0-9.59-4.92c.069-.423.102-.851.1-1.28a7.912 7.912 0 0 0-.88-3.63 4.861 4.861 0 0 0-.4-.7 8.039 8.039 0 0 1 4.93-4.32A7.907 7.907 0 0 1 38 10a8 8 0 0 1 8 8z" fill="#cc6f56"></path><path d="M16 22a8.1 8.1 0 0 1-.17 1.65 8.031 8.031 0 0 0-4.66 5.7 8.031 8.031 0 0 1-8.93-1.79.035.035 0 0 1-.01-.02 8.026 8.026 0 0 1-2.01-3.67v-.01A8 8 0 1 1 16 22z" fill="#a65a47"></path><path d="M16 19a7.9 7.9 0 0 0 1.19 4.2c-.466.11-.921.26-1.36.45A8.1 8.1 0 0 0 16 22a7.992 7.992 0 0 0-8-8 8.091 8.091 0 0 0-2.62.44A7.886 7.886 0 0 1 5 12a8 8 0 0 1 15-3.86c.02 1.216.321 2.41.88 3.49A7.986 7.986 0 0 0 16 19z" fill="#cc6f56"></path><path d="M32 19c.002.429-.031.857-.1 1.28a8.271 8.271 0 0 0-1.39.52 8.025 8.025 0 0 0-4.41 5.92c-.02.16-.05.33-.06.49-.07-.142-.15-.28-.24-.41A7.964 7.964 0 0 0 19 23c-.606 0-1.21.067-1.8.2h-.01a7.9 7.9 0 0 1-1.18-3.79C16 19.28 16 19.14 16 19a7.986 7.986 0 0 1 4.88-7.37.76.76 0 0 1 .11-.04 7.984 7.984 0 0 1 9.73 3.08c.152.222.286.456.4.7A7.912 7.912 0 0 1 32 19z" fill="#804537"></path><path d="M36 8a7.907 7.907 0 0 1-.35 2.35 8.039 8.039 0 0 0-4.93 4.32 7.984 7.984 0 0 0-9.73-3.08.76.76 0 0 0-.11.04A7.875 7.875 0 0 1 20 8.14V8a8 8 0 0 1 16 0z" fill="#a65a47"></path><g fill="#ecf0f1"><path d="M4 23a1 1 0 0 1-1-1 4.987 4.987 0 0 1 5-5 1 1 0 0 1 0 2c-.343.002-.683.06-1.007.172A2.984 2.984 0 0 0 5 22a1 1 0 0 1-1 1zM9.672 10.781a1 1 0 0 1-.83-1.556A5 5 0 0 1 13 7a1 1 0 0 1 0 2 3 3 0 0 0-2.5 1.338 1 1 0 0 1-.828.443zM24.12 8.03a1 1 0 0 1-.971-1.243A4.993 4.993 0 0 1 28 3a1 1 0 0 1 0 2 3 3 0 0 0-2.911 2.272 1 1 0 0 1-.969.758z" fill="#ecf0f1"></path></g></g></g></svg>