<svg viewBox="0 0 512 512" xmlns="http://www.w3.org/2000/svg"><g><g fill="#b1dbfc"><path d="M363.276 166.658a7.569 7.569 0 0 1-4.21-1.277 7.61 7.61 0 0 1-2.119-10.553l82.204-123.515a7.61 7.61 0 0 1 10.554-2.119 7.61 7.61 0 0 1 2.119 10.553L369.62 163.262a7.606 7.606 0 0 1-6.344 3.396zM340.855 172.555a7.573 7.573 0 0 1-3.402-.808l-70.608-35.364a7.61 7.61 0 0 1-3.397-10.214 7.61 7.61 0 0 1 10.215-3.397l70.608 35.364a7.61 7.61 0 0 1 3.397 10.214 7.613 7.613 0 0 1-6.813 4.205zM169.46 216.737a7.611 7.611 0 0 1-5.387-12.989l73.391-73.517a7.61 7.61 0 0 1 10.764-.009 7.611 7.611 0 0 1 .009 10.764l-73.391 73.517a7.584 7.584 0 0 1-5.386 2.234zM76.378 269.728a7.608 7.608 0 0 1-6.778-4.139 7.611 7.611 0 0 1 3.298-10.247l63.302-32.476a7.61 7.61 0 0 1 10.246 3.297 7.611 7.611 0 0 1-3.298 10.247l-63.302 32.476a7.562 7.562 0 0 1-3.468.842z" fill="#b1dbfc"></path></g><circle cx="58.531" cy="270.792" fill="#ff656f" r="23.536"></circle><circle cx="157.265" cy="221.341" fill="#ffa85d" r="23.536"></circle><circle cx="256" cy="122.439" fill="#fee55a" r="23.536"></circle><circle cx="354.735" cy="171.89" fill="#43cb8e" r="23.536"></circle><circle cx="453.469" cy="23.536" fill="#23a8fe" r="23.536"></circle><path d="M60.705 270.792c0-8.254 4.252-15.51 10.681-19.712a23.414 23.414 0 0 0-12.855-3.825c-12.999 0-23.536 10.537-23.536 23.536s10.538 23.536 23.536 23.536c4.745 0 9.159-1.409 12.855-3.825-6.43-4.2-10.681-11.456-10.681-19.71z" fill="#ff4756"></path><path d="M159.439 221.341c0-8.254 4.252-15.51 10.681-19.712a23.414 23.414 0 0 0-12.855-3.825c-12.999 0-23.536 10.537-23.536 23.536s10.537 23.536 23.536 23.536c4.745 0 9.159-1.409 12.855-3.825-6.429-4.2-10.681-11.456-10.681-19.71z" fill="#ff9839"></path><path d="M258.174 122.439c0-8.254 4.252-15.51 10.681-19.712A23.414 23.414 0 0 0 256 98.902c-12.999 0-23.536 10.537-23.536 23.536s10.538 23.536 23.536 23.536c4.745 0 9.159-1.409 12.855-3.825-6.429-4.2-10.681-11.457-10.681-19.71z" fill="#ffd301"></path><path d="M356.909 171.89c0-8.254 4.252-15.51 10.681-19.712a23.414 23.414 0 0 0-12.855-3.825c-12.999 0-23.536 10.537-23.536 23.536s10.538 23.536 23.536 23.536c4.745 0 9.159-1.409 12.855-3.825-6.43-4.2-10.681-11.457-10.681-19.71z" fill="#00ba66"></path><path d="M455.643 23.536c0-8.254 4.252-15.51 10.681-19.712A23.422 23.422 0 0 0 453.469 0c-12.999 0-23.536 10.537-23.536 23.536s10.538 23.536 23.536 23.536c4.745 0 9.159-1.409 12.855-3.825-6.429-4.201-10.681-11.457-10.681-19.711z" fill="#0193fa"></path><path d="M83.986 357.91h-50.91a6.365 6.365 0 0 0-6.365 6.365v140.113h63.641V364.276a6.368 6.368 0 0 0-6.366-6.366z" fill="#ff656f"></path><path d="M182.72 308.459h-50.91a6.365 6.365 0 0 0-6.365 6.365v189.564h63.641V314.825a6.366 6.366 0 0 0-6.366-6.366z" fill="#ffa85d"></path><path d="M281.455 209.126h-50.91a6.365 6.365 0 0 0-6.365 6.365v288.898h63.641V215.491a6.367 6.367 0 0 0-6.366-6.365z" fill="#fee55a"></path><path d="M380.19 259.008h-50.91a6.365 6.365 0 0 0-6.365 6.365v239.015h63.641V265.373a6.367 6.367 0 0 0-6.366-6.365z" fill="#43cb8e"></path><path d="M478.924 109.959h-50.91a6.365 6.365 0 0 0-6.365 6.365v388.064h63.641V116.325a6.366 6.366 0 0 0-6.366-6.366z" fill="#23a8fe"></path><path d="M72.187 357.91H33.076a6.365 6.365 0 0 0-6.365 6.365v140.113h39.112V364.276a6.365 6.365 0 0 1 6.364-6.366z" fill="#ff4756"></path><path d="M170.922 308.459H131.81a6.365 6.365 0 0 0-6.365 6.365v189.564h39.112V314.825a6.365 6.365 0 0 1 6.365-6.366z" fill="#ff9839"></path><path d="M269.657 209.126h-39.112a6.365 6.365 0 0 0-6.365 6.365v288.898h39.112V215.491a6.364 6.364 0 0 1 6.365-6.365z" fill="#ffd301"></path><path d="M368.391 259.008H329.28a6.365 6.365 0 0 0-6.365 6.365v239.015h39.112V265.373a6.364 6.364 0 0 1 6.364-6.365z" fill="#00ba66"></path><path d="M467.126 109.959h-39.112a6.365 6.365 0 0 0-6.365 6.365v388.064h39.112V116.325a6.366 6.366 0 0 1 6.365-6.366z" fill="#0193fa"></path><path d="M502.321 512H9.679c-4.204 0-7.611-3.407-7.611-7.612s3.408-7.611 7.611-7.611h492.642c4.204 0 7.611 3.407 7.611 7.611S506.525 512 502.321 512z" fill="#23a8fe"></path></g></svg>