<svg viewBox="0 0 512 512" xmlns="http://www.w3.org/2000/svg"><g><path d="M375 60C269.398 60 208.5 6.898 195 0c-13.2 6.598-75.3 60-180 60H0v144.7c0 129.902 72 245.8 188.402 304L195 512l6.598-3.3C262.5 478.097 312.3 432.5 345.902 373.397 374.7 322.398 390 263.5 390 204.7V60zm0 0" fill="#c6e2e7"></path><path d="M390 60v144.7c0 58.8-15.3 117.698-44.098 168.698C312.301 432.5 262.5 478.102 201.598 508.7L195 512V0c13.5 6.898 74.398 60 180 60zm0 0" fill="#a8d3d8"></path><path d="m195 68.98-7.559 4.422c-35.683 20.832-74.355 34.88-114.945 41.762L60 117.29v87.473c0 17.433 2.11 34.476 5.195 51.238l64.903 30L195 256l30-91zm0 0" fill="#deecf1"></path><path d="M324.691 256c3.149-16.89 5.309-33.973 5.309-51.238v-87.473l-12.496-2.125c-40.59-6.883-79.262-20.93-114.945-41.762L195 68.98V256l67.5 30zm0 0" fill="#3aaaff"></path><path d="M293.656 342.879c15.278-27.024 25.375-56.512 31.035-86.879H195l-30 98.75 30 91.09 8.176-5.356c37.219-24.343 68.508-58.742 90.48-97.605zm0 0" fill="#c6e2e7"></path><path d="m186.781 440.5 8.203 5.348.016-.008V256H65.195c13.758 74.754 56.735 142.203 121.586 184.5zm0 0" fill="#73bcff"></path></g></svg>