<svg viewBox="0 0 60 60" xmlns="http://www.w3.org/2000/svg"><g><path d="M14 7v12l-1-.52-1.58-1.39a.326.326 0 0 0-.45 0l-2.95 2.6a.348.348 0 0 1-.45 0l-2.95-2.6a.326.326 0 0 0-.45 0l-2.6 2.29a.341.341 0 0 1-.57-.25V7a6 6 0 0 1 6-6h3s4 2 4 6z" fill="#b9c9d6"></path><path d="M19 59h-.18A6.172 6.172 0 0 1 13 52.75V7.25A6.172 6.172 0 0 0 7.18 1H41a6 6 0 0 1 6 6v45l-24 7z" fill="#d5e4ef"></path><path d="M59 49.64V53a6 6 0 0 1-6 6H19a6 6 0 0 0 6-6v-3.35a.342.342 0 0 1 .57-.26l2.6 2.3a.348.348 0 0 0 .45 0l2.95-2.6a.326.326 0 0 1 .45 0l2.95 2.6a.348.348 0 0 0 .45 0l2.95-2.6a.326.326 0 0 1 .45 0l2.94 2.6a.362.362 0 0 0 .46 0l2.94-2.6a.326.326 0 0 1 .45 0L47 50.32l1.56 1.37a.348.348 0 0 0 .45 0l2.95-2.6a.326.326 0 0 1 .45 0l2.96 2.6a.348.348 0 0 0 .45 0l2.61-2.3a.341.341 0 0 1 .57.25z" fill="#b9c9d6"></path><g fill="#333944"><path d="M42 8H18a1 1 0 0 1 0-2h24a1 1 0 0 1 0 2zM42 28H18a1 1 0 0 1 0-2h24a1 1 0 0 1 0 2zM29 37H18a1 1 0 0 1 0-2h11a1 1 0 0 1 0 2zM29 42H18a1 1 0 0 1 0-2h11a1 1 0 0 1 0 2zM42 13H30a1 1 0 0 1 0-2h12a1 1 0 0 1 0 2zM26 13h-1a1 1 0 0 1 0-2h1a1 1 0 0 1 0 2zM26 18h-1a1 1 0 0 1 0-2h1a1 1 0 0 1 0 2zM26 23h-1a1 1 0 0 1 0-2h1a1 1 0 0 1 0 2zM42 18H30a1 1 0 0 1 0-2h12a1 1 0 0 1 0 2zM42 23H30a1 1 0 0 1 0-2h12a1 1 0 0 1 0 2z" fill="#333944"></path></g><path d="M43 40.5c0-2.077-2.056-2.8-4-3.289v-3.1a3.243 3.243 0 0 1 1.73.823 1 1 0 0 0 1.47-1.364 5.348 5.348 0 0 0-3.2-1.5V31a1 1 0 0 0-2 0v1.069c-2.309.316-4 1.709-4 3.431 0 2.077 2.056 2.8 4 3.289v3.1a3.243 3.243 0 0 1-1.73-.823 1 1 0 0 0-1.47 1.364 5.348 5.348 0 0 0 3.2 1.5V45a1 1 0 0 0 2 0v-1.069c2.309-.316 4-1.709 4-3.431zm-8-5c0-.561.812-1.168 2-1.4v2.621c-1.083-.294-2-.659-2-1.221zm4 6.4v-2.622c1.083.3 2 .66 2 1.222s-.812 1.168-2 1.4z" fill="#15b756"></path></g></svg>