<svg viewBox="0 0 512 512" xmlns="http://www.w3.org/2000/svg"><g><path d="M490 267c0 135.31-109.69 245-245 245-9.465 0-18.805-.537-27.99-1.581-3.144-.358-2.775-8.943-5.882-9.419-55.658-8.518-105.149-35.765-141.84-75.106-2.017-2.162-7.491 3.807-9.429 1.573C22.568 384.48 0 328.375 0 267 0 131.69 109.69 22 245 22s245 109.69 245 245z" fill="#ffcebf"></path><circle cx="260.75" cy="251.25" fill="#ffdfcf" r="200"></circle><g fill="#ff5757"><circle cx="225" cy="345" fill="#ff5757" r="15"></circle><circle cx="260" cy="380" fill="#ff5757" r="10"></circle><circle cx="270" cy="480" fill="#ff5757" r="10"></circle><path d="M499.578 174.462c-19.871 40.28-61.495 67.905-109.533 67.535-65.77-.508-119.534-54.271-120.041-120.041-.371-48.105 27.332-89.779 67.704-109.617 1.071-.526 2.228.553 1.764 1.653-6.247 14.802-9.633 31.107-9.465 48.222.643 65.573 54.209 119.139 119.782 119.78 17.047.167 33.291-3.192 48.047-9.392 1.159-.488 2.299.731 1.742 1.86zM225.894 444.894c4.083 20.165.948 43.189-8.885 65.525a243.945 243.945 0 0 1-38.665-7.595c-1.877-.529-2.33-2.977-.763-4.138a160.377 160.377 0 0 0 17.068-14.623c12.142-11.967 21.861-25.219 29.034-38.914.565-1.078 2.011-1.243 2.211-.255zM239.322 208.235c-7.173 13.695-16.892 26.947-29.034 38.914-46.705 46.029-112.755 55.734-147.697 21.701-9.12-8.883-15.301-19.853-18.669-32.055-.25-.907-1.636-.657-2.117.378-18.114 38.981-15.785 80.488 9.779 105.526 34.951 34.233 101.244 24.493 148.017-21.747 34.163-33.773 49.067-77.735 41.932-112.971-.2-.988-1.647-.823-2.211.254zM391.161 285.981c-10.031 4.847-19.631 11.637-28.163 20.308-32.688 33.222-37.383 82.368-10.499 109.898 6.99 7.157 15.417 12.208 24.656 15.215.727.236.587 1.322-.211 1.658-28.488 11.999-59.643 8.612-79.388-11.506-27.034-27.544-22.321-76.871 10.522-110.136 24.022-24.33 56.461-33.78 83.181-26.999.71.179.647 1.202-.098 1.562z" fill="#ff5757"></path></g><path d="M206.56 407.992c10.11 10.11 16.5 22.84 19.349 36.97-7.218 15.609-17.712 30.819-31.305 44.412a162.892 162.892 0 0 1-15.503 13.662 243.133 243.133 0 0 1-26.38-9.009c-2.554-1.039-1.977-10.612-4.486-11.734a245.163 245.163 0 0 1-59.909-38.054c-1.942-1.672-6.966 5.118-8.854 3.387a246.642 246.642 0 0 1-19.612-20.159c47.082-45.137 112.167-54.007 146.7-19.475zM391 0c-19.223 0-37.399 4.483-53.54 12.46C329.483 28.601 325 46.777 325 66c0 66.826 54.174 121 121 121 19.223 0 37.399-4.483 53.54-12.46C507.517 158.399 512 140.223 512 121 512 54.174 457.826 0 391 0z" fill="#ff7a7a"></path><ellipse cx="211.1" cy="96.972" fill="#ff7a7a" rx="28.828" ry="38.758" transform="rotate(-26.75 211.152 96.996)"></ellipse><ellipse cx="289.42" cy="259.42" fill="#ff7a7a" rx="30" ry="28.828" transform="rotate(-45 289.395 259.493)"></ellipse><ellipse cx="482.58" cy="257.994" fill="#ff7a7a" rx="28.828" ry="30" transform="rotate(-45 482.571 258.102)"></ellipse><path d="M72.999 193c-13.593 13.593-24.087 28.803-31.305 44.412 2.849 14.13 9.238 26.859 19.348 36.97 35.147 35.147 101.946 25.333 149.2-21.92 13.593-13.593 24.087-28.803 31.305-44.412-2.849-14.13-9.238-26.859-19.348-36.97-35.147-35.148-101.946-25.334-149.2 21.92zM419.572 300.329c-7.976-7.976-17.77-13.264-28.477-15.952-11.422 4.802-22.417 12.077-32.078 21.738-33.585 33.585-38.334 83.289-10.607 111.016 7.976 7.976 17.77 13.264 28.477 15.952 11.422-4.802 22.417-12.077 32.077-21.738 33.587-33.585 38.335-83.288 10.608-111.016z" fill="#ff7a7a"></path><path d="M94.697 426.237c-6.556 6.556-11.658 13.871-15.226 21.389 21.296 19.526 46.055 35.336 73.25 46.401a81.656 81.656 0 0 0 5.09-4.676c23.431-23.432 28.298-56.555 10.869-73.983-17.429-17.429-50.552-12.563-73.983 10.869z" fill="#ff4343"></path><ellipse cx="208.832" cy="91.025" fill="#ff4343" rx="16.493" ry="22.174" transform="rotate(-26.75 208.882 91.048)"></ellipse><ellipse cx="293.346" cy="256.415" fill="#ff4343" rx="17.164" ry="16.493" transform="rotate(-45 293.323 256.487)"></ellipse><ellipse cx="479.575" cy="254.068" fill="#ff4343" rx="16.493" ry="17.164" transform="rotate(-45 479.567 254.175)"></ellipse><circle cx="420" cy="92" fill="#ff4343" r="60"></circle><ellipse cx="141.893" cy="220.881" fill="#ff4343" rx="60" ry="44.628" transform="rotate(-45 141.863 220.924)"></ellipse><ellipse cx="385.368" cy="358.599" fill="#ff4343" rx="42.645" ry="35.207" transform="rotate(-45 385.331 358.696)"></ellipse></g></svg>