<svg viewBox="0 0 60 60" xmlns="http://www.w3.org/2000/svg"><g><g fill="#f9c82b"><path d="m31.042 1.66 1.584 3.181 3.391.588c.938.163 1.311 1.36.644 2.066l-2.412 2.553.512 3.544c.142.98-.835 1.72-1.686 1.277L30 13.266l-3.075 1.603c-.851.443-1.827-.296-1.686-1.277l.512-3.544-2.412-2.553c-.667-.706-.294-1.903.644-2.066l3.391-.588 1.584-3.181a1.153 1.153 0 0 1 2.084 0zM13.042 9.66l1.584 3.181 3.391.588c.938.163 1.311 1.36.644 2.066l-2.412 2.553.512 3.544c.142.98-.835 1.72-1.686 1.277L12 21.266l-3.075 1.603c-.851.443-1.827-.296-1.686-1.277l.512-3.544-2.412-2.553c-.667-.706-.294-1.903.644-2.066l3.391-.588 1.584-3.181a1.153 1.153 0 0 1 2.084 0zM49.042 9.66l1.584 3.181 3.391.588c.938.163 1.311 1.36.644 2.066l-2.412 2.553.512 3.544c.142.98-.835 1.72-1.686 1.277L48 21.266l-3.075 1.603c-.851.443-1.827-.296-1.686-1.277l.512-3.544-2.412-2.553c-.667-.706-.294-1.903.644-2.066l3.391-.588 1.584-3.181a1.153 1.153 0 0 1 2.084 0z" fill="#f9c82b"></path></g><path d="M19.4 43.4C16.68 46.12 15 49.86 15 54c0 .55-.45 1-1 1H2c-.55 0-1-.45-1-1 0-8 3.25-15.24 8.5-20.5h1L19 42z" fill="#d7342c"></path><path d="m30 25 1 1v12l-1 1c-4.14 0-7.88 1.68-10.6 4.4l-9.9-9.9C14.76 28.25 22 25 30 25z" fill="#e99e32"></path><path d="M50.5 33.5 51 35l-9 9-1.4-.6C37.88 40.68 34.14 39 30 39V25c8 0 15.24 3.25 20.5 8.5z" fill="#f9c82b"></path><path d="M59 54c0 .55-.45 1-1 1H46c-.55 0-1-.45-1-1 0-4.14-1.68-7.88-4.4-10.6l9.9-9.9C55.75 38.76 59 46 59 54z" fill="#2aa869"></path><path d="M33.72 56.46c4.8-2.6 12.35-7.08 18.05-10.49 1.04-.63.31-2.2-.83-1.81-6.29 2.16-14.57 5.05-19.65 7.06z" fill="#0a365e"></path><circle cx="30" cy="55" fill="#06293f" r="4"></circle></g></svg>