<svg id="Capa_1" enable-background="new 0 0 512 512" height="512" viewBox="0 0 512 512" width="512" xmlns="http://www.w3.org/2000/svg"><g><g><path d="m70.56 248.167h255.064c2.811 0 5.511.478 8.031 1.346-5.438-19.558-23.364-33.917-44.656-33.917h-181.814c-21.291 0-39.217 14.359-44.656 33.917 2.52-.868 5.22-1.346 8.031-1.346z" fill="#05e39c"/></g><g><g><path d="m289 215.597h-42.63c20.799 0 38.379 13.705 44.251 32.57h35.003c2.811 0 5.511.478 8.031 1.346-5.438-19.558-23.364-33.916-44.655-33.916z" fill="#0ed290"/></g></g><g><path d="m187.163 248.167h21.858l15.556-23.933c.543-.836.832-1.811.832-2.807v-19.851c-3.827 1.026-7.844 1.581-11.99 1.581h-27.609c-5.262 0-10.317-.894-15.035-2.516v20.786c0 .996.289 1.972.832 2.807z" fill="#ffb09e"/></g><g><g><path d="m213.42 203.157h-10.99v16.832c0 1.935-.561 3.828-1.616 5.45l-14.212 21.865.561.863h21.858l15.557-23.933c.543-.836.832-1.811.832-2.807v-19.85c-3.827 1.025-7.844 1.58-11.99 1.58z" fill="#f89580"/></g></g><g><g><path d="m111.952 118.236c4.076-4.639 10.033-7.586 16.679-7.586h10.821v-6.033c0-11.948 9.686-21.634 21.634-21.634h77.059c11.948 0 21.634 9.686 21.634 21.634v6.033h10.821c6.646 0 12.603 2.947 16.679 7.586v-46.646c0-39.538-32.052-71.59-71.59-71.59h-90.007c-.986 0-1.82.716-1.976 1.69-.626 3.909-1.442 13.97 4.399 23.468.826 1.343-.109 3.07-1.685 3.07h-21.679c-.984 0-1.82.71-1.975 1.682-.737 4.618-1.739 17.862 8.339 28.596.533.568.849 1.307.849 2.086z" fill="#bb5d4c"/></g><path d="m215.688 0h-7.502c21.402 12.377 35.814 35.498 35.814 62v21.805c9.091 2.559 15.778 10.914 15.778 20.812v6.033h10.821c6.646 0 12.603 2.947 16.679 7.586v-46.646c0-39.538-32.052-71.59-71.59-71.59z" fill="#a44f3e"/><g><g><g><path d="m128.631 109.62c-12.843 0-23.254 10.411-23.254 23.254s10.411 23.254 23.254 23.254h10.702v-46.508z" fill="#ffb09e"/></g></g><g><g><path d="m270.6 109.62h-10.702v46.507h10.702c12.843 0 23.254-10.411 23.254-23.254s-10.412-23.253-23.254-23.253z" fill="#f89580"/></g></g></g><g><path d="m138.421 104.617v52.182c0 26.172 21.216 47.388 47.388 47.388h27.61c26.172 0 47.388-21.216 47.388-47.388v-52.182c0-12.517-10.147-22.664-22.664-22.664h-77.059c-12.516 0-22.663 10.147-22.663 22.664z" fill="#ffcebf"/></g><g><path d="m238.144 81.953h-21.496c12.517 0 22.664 10.147 22.664 22.664v52.182c0 26.172-21.217 47.388-47.388 47.388h21.496c26.172 0 47.388-21.217 47.388-47.388v-52.182c0-12.517-10.147-22.664-22.664-22.664z" fill="#ffb09e"/></g><g><g><path d="m199.615 149.747c-10.178 0-18.458-8.28-18.458-18.458s8.28-18.458 18.458-18.458c4.143 0 7.5 3.357 7.5 7.5s-3.357 7.5-7.5 7.5c-1.907 0-3.458 1.551-3.458 3.458s1.551 3.458 3.458 3.458c4.143 0 7.5 3.357 7.5 7.5s-3.357 7.5-7.5 7.5z" fill="#f89580"/></g><g><path d="m199.615 179.386c-9.036 0-17.535-3.522-23.933-9.919-2.929-2.93-2.929-7.678 0-10.607 2.93-2.928 7.678-2.928 10.607 0 3.563 3.563 8.296 5.526 13.325 5.526s9.762-1.962 13.324-5.525c2.93-2.93 7.679-2.929 10.606-.001 2.93 2.929 2.93 7.678.001 10.606-6.395 6.397-14.894 9.92-23.93 9.92z" fill="#f89580"/></g><g><g><path d="m170.028 125.397c-4.143 0-7.5-3.357-7.5-7.5v-5.479c0-4.143 3.357-7.5 7.5-7.5s7.5 3.357 7.5 7.5v5.479c0 4.143-3.357 7.5-7.5 7.5z" fill="#f89580"/></g><g><path d="m229.201 125.397c-4.143 0-7.5-3.357-7.5-7.5v-5.479c0-4.143 3.357-7.5 7.5-7.5s7.5 3.357 7.5 7.5v5.479c0 4.143-3.357 7.5-7.5 7.5z" fill="#f89580"/></g></g></g></g><g><path d="m449.708 113.865c-5.129 0-9.302-4.173-9.302-9.302v-3.061h-34.735v214.47h14.062c9.144 0 16.582 7.438 16.582 16.582v94.026c0 9.144-7.438 16.583-16.582 16.583h-14.062v63.685c0 2.845 2.306 5.151 5.151 5.151h51.222c2.844 0 5.151-2.306 5.151-5.151v-392.983z" fill="#efe2dd"/></g><g><path d="m449.708 114.865c-4.114 0-7.655-2.418-9.306-5.904v397.888c0 2.845-2.306 5.151-5.151 5.151h26.792c2.845 0 5.151-2.306 5.151-5.151v-391.984z" fill="#e1d3ce"/></g><path d="m462.044 28.155h-51.222c-2.845 0-5.151 2.306-5.151 5.151v69.197h33.735l1-.779v-10.553c0-5.129 4.173-9.302 9.302-9.302h16.202l1.284-1v-47.563c.001-2.845-2.306-5.151-5.15-5.151z" fill="#26a6fe"/><g><path d="m440.402 33.306v53.468c1.651-3.487 5.191-5.904 9.306-5.904h17.487v-47.564c0-2.845-2.306-5.151-5.151-5.151h-26.793c2.845 0 5.151 2.306 5.151 5.151z" fill="#0593fc"/></g><g><path d="m350.349 355.841h48.011v47.455h-48.011z" fill="#26a6fe"/></g><g><path d="m377.154 355.841h21.206v47.455h-21.206z" fill="#0593fc"/></g><g><path d="m325.625 512h-255.065c-14.224 0-25.755-11.531-25.755-25.755v-213.354c0-14.224 11.531-25.755 25.755-25.755h255.065c14.224 0 25.755 11.531 25.755 25.755v213.354c-.001 14.224-11.531 25.755-25.755 25.755z" fill="#eaf6ff"/></g><g><path d="m325.625 247.136h-54.172c14.224 0 25.755 11.531 25.755 25.755v213.355c0 14.224-11.531 25.755-25.755 25.755h54.172c14.224 0 25.755-11.531 25.755-25.755v-213.355c0-14.224-11.531-25.755-25.755-25.755z" fill="#d8ecfe"/></g><g><path d="m70.56 481.094v-203.052c0-2.845 2.306-5.151 5.151-5.151h244.763c2.845 0 5.151 2.306 5.151 5.151v203.052c0 2.845-2.306 5.151-5.151 5.151h-244.763c-2.845 0-5.151-2.306-5.151-5.151z" fill="#918291"/></g><g><path d="m320.474 272.891h-23.266v213.354h23.266c2.845 0 5.151-2.306 5.151-5.151v-203.052c-.001-2.845-2.307-5.151-5.151-5.151z" fill="#7a6d79"/></g><g><path d="m320.474 493.745h-244.763c-6.976 0-12.651-5.675-12.651-12.65v-203.053c0-6.976 5.676-12.65 12.651-12.65h244.763c6.976 0 12.65 5.675 12.65 12.65v203.053c0 6.975-5.675 12.65-12.65 12.65zm-242.414-15h240.064v-198.353h-240.064z" fill="#c4e2ff"/></g><g><path d="m419.733 444.194h-17.253c-2.845 0-5.151-2.306-5.151-5.151v-118.949c0-2.845 2.306-5.151 5.151-5.151h17.253c9.727 0 17.613 7.885 17.613 17.613v94.026c0 9.726-7.886 17.612-17.613 17.612z" fill="#e1d3ce"/></g><g><path d="m419.733 314.943h-17.253c-.43 0-.842.068-1.241.168 8.636 1.131 15.309 8.5 15.309 17.445v94.026c0 8.944-6.673 16.314-15.309 17.445.399.099.811.168 1.241.168h17.253c9.727 0 17.613-7.885 17.613-17.613v-94.026c0-9.728-7.886-17.613-17.613-17.613z" fill="#cdbfba"/></g><g><g><path d="m430.135 229.163c-4.143 0-7.5-3.357-7.5-7.5v-2.75c0-4.143 3.357-7.5 7.5-7.5s7.5 3.357 7.5 7.5v2.75c0 4.143-3.358 7.5-7.5 7.5z" fill="#cdbfba"/></g><g><path d="m430.135 251.617c-4.143 0-7.5-3.357-7.5-7.5v-2.749c0-4.143 3.357-7.5 7.5-7.5s7.5 3.357 7.5 7.5v2.749c0 4.143-3.358 7.5-7.5 7.5z" fill="#cdbfba"/></g><g><path d="m430.135 292.86c-4.143 0-7.5-3.357-7.5-7.5v-21.538c0-4.143 3.357-7.5 7.5-7.5s7.5 3.357 7.5 7.5v21.538c0 4.143-3.358 7.5-7.5 7.5z" fill="#cdbfba"/></g></g><g><g><g><path d="m182.75 295.069h30.684v163.538h-30.684z" fill="#fff"/></g><g><path d="m199.119 295.069h14.316v163.538h-14.316z" fill="#f9f3f1"/></g></g><g fill="#cdbfba"><path d="m228.222 431.351c0-4.071-3.244-7.376-7.287-7.489v-12.278c4.043-.114 7.287-3.419 7.287-7.489s-3.244-7.376-7.287-7.489v-12.277c4.043-.114 7.287-3.419 7.287-7.489s-3.244-7.376-7.287-7.489v-12.281c4.043-.114 7.287-3.419 7.287-7.489s-3.244-7.376-7.287-7.489v-12.277c4.043-.114 7.287-3.419 7.287-7.489s-3.244-7.376-7.287-7.489v-12.278c4.043-.114 7.287-3.419 7.287-7.489 0-4.143-3.357-7.5-7.5-7.5h-45.259c-4.143 0-7.5 3.357-7.5 7.5 0 4.071 3.244 7.376 7.287 7.489v12.278c-4.043.114-7.287 3.419-7.287 7.489s3.244 7.376 7.287 7.489v12.277c-4.043.114-7.287 3.419-7.287 7.489s3.244 7.376 7.287 7.489v12.278c-4.043.114-7.287 3.419-7.287 7.489s3.244 7.376 7.287 7.489v12.277c-4.043.114-7.287 3.419-7.287 7.489s3.244 7.376 7.287 7.489v12.278c-4.043.114-7.287 3.419-7.287 7.489 0 4.071 3.244 7.375 7.287 7.489v12.277c-4.043.114-7.287 3.418-7.287 7.489 0 4.143 3.357 7.5 7.5 7.5h45.259c4.143 0 7.5-3.357 7.5-7.5 0-4.071-3.244-7.375-7.287-7.489v-12.274c4.043-.114 7.287-3.419 7.287-7.489zm-22.287-74.27v12.257h-15.685v-12.257zm-15.685-15v-12.256h15.685v12.256zm15.685 42.257v12.256h-15.685v-12.256zm0 27.256v12.257h-15.685v-12.257zm0-109.026v12.257h-15.685v-12.257zm-15.685 148.538v-12.256h15.685v12.256z"/><path d="m293.138 379.898c-4.143 0-7.5 3.357-7.5 7.5v24.633l-44.396-33.346c-3.312-2.487-8.015-1.819-10.501 1.493-2.487 3.312-1.819 8.013 1.493 10.501l49.154 36.92c2.135 1.604 4.662 2.423 7.211 2.423 1.83 0 3.671-.423 5.386-1.279 4.104-2.05 6.652-6.172 6.652-10.759v-30.586c.001-4.142-3.357-7.5-7.499-7.5z"/><path d="m284.837 434.661c-3.897-1.418-8.196.594-9.61 4.487l-4.363 12.007-4.094-10.355c-.648-1.64-1.67-3.144-2.949-4.344l-23.35-21.937c-3.02-2.837-7.767-2.687-10.602.33-2.837 3.02-2.688 7.766.33 10.602l22.865 21.481 6.731 17.029c1.832 4.636 6.207 7.605 11.178 7.605.059 0 .117 0 .176-.001 5.042-.07 9.412-3.179 11.133-7.917l7.042-19.378c1.415-3.891-.594-8.194-4.487-9.609z"/><path d="m275.587 314.825h-36.761c-4.143 0-7.5 3.357-7.5 7.5s3.357 7.5 7.5 7.5h36.761c8.373 0 15.185 6.812 15.185 15.184v15.404l-49.392-17.884c-3.893-1.409-8.195.604-9.605 4.498-1.41 3.896.604 8.195 4.498 9.605l53.379 19.327c1.328.481 2.712.718 4.09.718 2.441 0 4.861-.742 6.91-2.18 3.206-2.249 5.12-5.93 5.12-9.846v-19.644c-.001-16.642-13.542-30.182-30.185-30.182z"/><path d="m114.795 427.601 49.155-36.921c3.312-2.488 3.98-7.189 1.493-10.501-2.488-3.312-7.19-3.98-10.501-1.493l-44.396 33.346v-24.633c0-4.143-3.357-7.5-7.5-7.5s-7.5 3.357-7.5 7.5v30.586c0 4.587 2.549 8.709 6.652 10.759 1.715.856 3.556 1.279 5.386 1.279 2.55-.002 5.077-.82 7.211-2.422z"/><path d="m166.315 414.85c-2.835-3.017-7.58-3.167-10.602-.33l-23.344 21.932c-1.285 1.205-2.307 2.709-2.955 4.349l-4.094 10.355-4.363-12.007c-1.414-3.893-5.713-5.903-9.61-4.487-3.894 1.415-5.902 5.718-4.487 9.61l7.041 19.377c1.722 4.739 6.092 7.848 11.134 7.918.06.001.117.001.176.001 4.971 0 9.346-2.97 11.178-7.605l6.731-17.029 22.865-21.481c3.019-2.838 3.167-7.584.33-10.603z"/><path d="m106.534 375.96 53.378-19.327c3.895-1.41 5.908-5.71 4.498-9.605s-5.713-5.91-9.605-4.498l-49.392 17.884v-15.404c0-8.372 6.812-15.184 15.184-15.184h36.762c4.143 0 7.5-3.357 7.5-7.5s-3.357-7.5-7.5-7.5h-36.762c-16.644 0-30.184 13.54-30.184 30.184v19.644c0 3.916 1.914 7.597 5.12 9.846 2.049 1.438 4.469 2.18 6.91 2.18 1.378-.002 2.762-.239 4.091-.72z"/></g></g><g><path d="m467.195 80.869h-17.487c-5.69 0-10.302 4.612-10.302 10.302v13.392c0 5.69 4.612 10.302 10.302 10.302h17.487z" fill="#cdbfba"/></g><g><g><path d="m427.044 492.2c-4.143 0-7.5-3.357-7.5-7.5v-14.423c0-4.143 3.357-7.5 7.5-7.5s7.5 3.357 7.5 7.5v14.423c0 4.143-3.357 7.5-7.5 7.5z" fill="#cdbfba"/></g><g><path d="m446.617 492.2c-4.143 0-7.5-3.357-7.5-7.5v-14.423c0-4.143 3.357-7.5 7.5-7.5s7.5 3.357 7.5 7.5v14.423c0 4.143-3.357 7.5-7.5 7.5z" fill="#cdbfba"/></g></g></g></svg>