<?xml version="1.0" encoding="iso-8859-1"?>
<!-- Generator: Adobe Illustrator 19.0.0, SVG Export Plug-In . SVG Version: 6.00 Build 0)  -->
<svg version="1.1" id="Capa_1" xmlns="http://www.w3.org/2000/svg" xmlns:xlink="http://www.w3.org/1999/xlink" x="0px" y="0px"
	 viewBox="0 0 512 512" style="enable-background:new 0 0 512 512;" xml:space="preserve">
<polygon style="fill:#EF4644;" points="256,234.483 0,263.523 0,330.914 256,366.65 512,330.914 512,263.523 "/>
<polygon style="opacity:0.1;enable-background:new    ;" points="41.207,330.914 41.207,263.523 276.604,236.82 256,234.483 
	0,263.523 0,330.914 256,366.65 276.604,363.773 "/>
<path style="fill:#794E3F;" d="M294.299,50.021c-6.178-0.38-12.164,1.83-16.881,5.839c-5.372,4.567-12.979,7.417-21.418,7.417
	s-16.046-2.851-21.418-7.417c-4.716-4.008-10.703-6.219-16.881-5.839c-82.539,5.082-144.447,26.251-144.447,51.598v109.648
	c0,12.822,10.393,23.215,23.215,23.215h319.063c12.822,0,23.215-10.394,23.215-23.215V101.619
	C438.746,76.273,376.838,55.103,294.299,50.021z"/>
<g>
	<path style="fill:#5D3A30;" d="M90.942,39.778H67.477c-5.189,0-9.396,4.207-9.396,9.396v193.729h42.258V49.175
		C100.339,43.985,96.131,39.778,90.942,39.778z"/>
	<path style="fill:#5D3A30;" d="M444.523,39.778h-23.465c-5.189,0-9.396,4.207-9.396,9.396v193.729h42.258V49.175
		C453.919,43.985,449.713,39.778,444.523,39.778z"/>
	<rect x="23.952" y="357.593" style="fill:#5D3A30;" width="42.258" height="114.628"/>
	<rect x="445.79" y="357.593" style="fill:#5D3A30;" width="42.258" height="114.628"/>
</g>
<path style="fill:#F2F2F2;" d="M236.526,148.646c-2.597-8.696-9.873-15.16-18.788-16.858c-14.163-2.697-33.522-4.36-54.87-4.36
	s-40.707,1.662-54.869,4.36c-8.915,1.698-16.19,8.162-18.788,16.858c-3.01,10.076-4.976,25.142,0.564,43.226
	c2.659,8.679,9.87,15.207,18.793,16.872c14.11,2.634,33.238,4.253,54.3,4.253c21.063,0,40.19-1.618,54.3-4.253
	c8.922-1.666,16.135-8.193,18.793-16.872C241.503,173.787,239.537,158.722,236.526,148.646z"/>
<path style="opacity:0.1;enable-background:new    ;" d="M139.475,208.744c-8.922-1.666-16.135-8.193-18.794-16.872
	c-5.54-18.084-3.574-33.149-0.564-43.225c2.597-8.695,9.873-15.16,18.788-16.858c10.653-2.029,24.248-3.472,39.417-4.062
	c-4.996-0.195-10.163-0.298-15.453-0.298c-21.347,0-40.707,1.663-54.869,4.36c-8.914,1.698-16.19,8.162-18.788,16.858
	c-3.01,10.076-4.976,25.142,0.564,43.225c2.659,8.679,9.87,15.207,18.794,16.872c14.11,2.634,33.238,4.252,54.301,4.252
	c5.289,0,10.456-0.102,15.453-0.297C163.423,212.119,150.042,210.716,139.475,208.744z"/>
<path style="fill:#F2F2F2;" d="M275.474,148.646c2.597-8.696,9.873-15.16,18.788-16.858c14.163-2.697,33.522-4.36,54.87-4.36
	c21.347,0,40.707,1.662,54.869,4.36c8.915,1.698,16.19,8.162,18.788,16.858c3.01,10.076,4.976,25.142-0.564,43.226
	c-2.659,8.679-9.87,15.207-18.793,16.872c-14.11,2.634-33.238,4.253-54.301,4.253c-21.063,0-40.19-1.618-54.3-4.253
	c-8.922-1.666-16.135-8.193-18.793-16.872C270.497,173.787,272.463,158.722,275.474,148.646z"/>
<path style="opacity:0.1;enable-background:new    ;" d="M325.736,208.744c-8.922-1.666-16.135-8.193-18.794-16.872
	c-5.54-18.084-3.574-33.149-0.564-43.225c2.597-8.696,9.873-15.16,18.788-16.858c10.653-2.029,24.248-3.472,39.417-4.062
	c-4.996-0.195-10.163-0.298-15.453-0.298c-21.347,0-40.707,1.663-54.87,4.36c-8.915,1.698-16.19,8.162-18.788,16.858
	c-3.01,10.076-4.976,25.142,0.564,43.225c2.659,8.679,9.87,15.207,18.794,16.872c14.11,2.634,33.238,4.252,54.3,4.252
	c5.289,0,10.456-0.102,15.453-0.297C349.684,212.119,336.303,210.716,325.736,208.744z"/>
<path style="fill:#D9D9D9;" d="M453.919,205.443H58.081C26.004,205.443,0,231.446,0,263.523h512
	C512,231.446,485.996,205.443,453.919,205.443z"/>
<path style="opacity:0.1;enable-background:new    ;" d="M99.288,205.443H58.081C26.004,205.443,0,231.446,0,263.523h41.207
	C41.207,231.446,67.211,205.443,99.288,205.443z"/>
<rect y="330.912" style="fill:#794E3F;" width="512" height="71.474"/>
<rect y="330.912" style="opacity:0.1;enable-background:new    ;" width="41.207" height="71.474"/>
<g>
</g>
<g>
</g>
<g>
</g>
<g>
</g>
<g>
</g>
<g>
</g>
<g>
</g>
<g>
</g>
<g>
</g>
<g>
</g>
<g>
</g>
<g>
</g>
<g>
</g>
<g>
</g>
<g>
</g>
</svg>
