<svg viewBox="0 0 128 128" xmlns="http://www.w3.org/2000/svg"><g><path d="M92.171 117.149 66.68 66.48 64 61.16l-2.68 5.32-25.491 50.669a3 3 0 0 0 2.681 4.351 3 3 0 0 0 2.681-1.653L64 74.51l22.809 45.337a3 3 0 0 0 2.681 1.653 3 3 0 0 0 2.681-4.351z" fill="#aa7e54"></path><path d="M61 6.5h6V27h-6z" fill="#e2a76f"></path><path d="M11.625 14h104.75v71.5H11.625z" fill="#eaeaf0"></path><path d="M110.375 59.251a1.75 1.75 0 0 1-1.75-1.75V45.083a1.75 1.75 0 0 1 3.5 0V57.5a1.75 1.75 0 0 1-1.75 1.751z" fill="#b4b4b8"></path><path d="M6.5 81h115v9H6.5z" fill="#e2a76f"></path></g></svg>