<svg viewBox="0 0 512 512" xmlns="http://www.w3.org/2000/svg"><g><path d="M452.833 208.253 346.37 186.12l-10.28 27.53 46.957 11.957L368 304h80l25.207-55.033a29.212 29.212 0 0 0-20.374-40.714z" fill="#e162a1"></path><path d="m324.01 181.6 22.36 4.52-10.28 27.53-32.37-8.24-25.03-75.7 25.03-6.67z" fill="#ff9ac0"></path><path d="m317.557 98.15-14.2 8.094c-19.566 11.156-41.722 15.056-63.032 11.086l-9.183 49.356c-6.911 37.142 3.15 75 26.922 101.293l23.136 25.589 30.788-15.557c31.639-15.987 54.642-47.689 61.553-84.831l9.183-49.355c-21.31-3.965-40.582-15.57-54.827-33.016z" fill="#3b69b0"></path><path d="M269.744 253.133c-19.233-21.276-27.378-51.918-21.786-81.968l6.254-33.613a97.638 97.638 0 0 0 53.876-12.883l5.072-2.892 3.694 4.523a97.639 97.639 0 0 0 45.637 31.4l-6.254 33.613c-5.592 30.05-24.212 55.713-49.81 68.647l-20.946 10.584z" fill="#1b53a6"></path><path d="m433.562 207-.4-33.316-13.167 12.344v21.053a6.785 6.785 0 0 0 4.742 6.47 6.785 6.785 0 0 0 8.825-6.551z" fill="#ff9ac0"></path><path d="M419.993 189.786h9.548a8.812 8.812 0 0 1-8.812 8.812h-.735v-8.812h-.001z" fill="#e67199"></path><path d="m440 384 8-80h-80l-34.966 62.94A39.988 39.988 0 0 0 328 386.365V480l-18.5 12.336a2 2 0 0 0 1.11 3.664H368V384l24-40h16l-6.272 37.632a39.994 39.994 0 0 0 1.864 20.246L432 480l-18.5 12.336a2 2 0 0 0 1.11 3.664H472v-3.255a78.551 78.551 0 0 0-4.03-24.836z" fill="#1b53a6"></path><path d="m429.11 265.96 1.34 2.13-11.92 7.53a39.981 39.981 0 0 1-30.97 5.03l-87.65-21.66a6 6 0 0 1-4.29-7.6l5.21-16.78a6 6 0 0 1 7.35-4l7.05 1.98 1.29-4.89a4.976 4.976 0 0 1 4.81-3.7h3.77l1.63 11.81 70.46 19.74 18.86-11.97z" fill="#ff9ac0"></path><path d="M470.51 223.46a14.261 14.261 0 0 1-3.19 21.33l-36.87 23.3-1.34-2.13-13.06-22.38 36.02-22.86a14.245 14.245 0 0 1 18.44 2.74z" fill="#e162a1"></path><path d="m417.284 238.06 32.453-20.6a4.152 4.152 0 0 1 5.59.934 4 4 0 0 1-1.113 5.7l-32.644 20.72a4 4 0 0 1-5.52-1.234 4 4 0 0 1 1.234-5.52zM430.45 268.09a4 4 0 0 1 1.245-5.519l25.19-15.919a4 4 0 0 1 4.273 6.764l-25.189 15.918a4 4 0 0 1-5.519-1.244z" fill="#cf4289"></path><path d="M433.16 162.751h-23.042v23.042a9.876 9.876 0 0 0 9.875 9.876A13.167 13.167 0 0 0 433.16 182.5z" fill="#ff9ac0"></path><path d="M397.242 144v17.594a9.217 9.217 0 0 0 13.13 8.346l13.2-6.189a13.167 13.167 0 0 0 13.167 13.167h3.292V161.88a13.167 13.167 0 0 0-11.165-13.014z" fill="#0e3e86"></path><circle cx="432.436" cy="176.648" fill="#ff9ac0" r="7.6"></circle><path d="m157.103 101.964 23.992-24.821 5.752 5.56-23.992 24.82zM200 188a3.979 3.979 0 0 1-1.7-.383l-30.257-14.259a4 4 0 0 1 3.41-7.236l30.257 14.259A4 4 0 0 1 200 188zM120 244a4 4 0 0 1-4-4v-40a4 4 0 0 1 4-4c2.209 0 4 1.791 1.574 4v40c2.426 2.209.635 4-1.574 4zM100.187 95.612a4 4 0 0 1-3.7-2.488L80.3 53.513a4 4 0 0 1 7.4-3.026L103.889 90.1a4 4 0 0 1-3.7 5.513zM132 92a4 4 0 0 1-3.833-5.15l12-40a4 4 0 0 1 7.662 2.3l-12 40A4 4 0 0 1 132 92zM175.454 140.179a4 4 0 0 1-.951-7.886l24.543-6.028a4 4 0 1 1 1.908 7.769l-24.543 6.029a4.039 4.039 0 0 1-.957.116zM162.486 226.7a4 4 0 0 1-3.517-2.089l-16-29.392a4 4 0 1 1 7.031-3.827l16 29.392a4 4 0 0 1-3.51 5.913zM44 216a4 4 0 0 1-2.5-7.123l36-28.814a4 4 0 0 1 5 6.247l-36 28.813A3.983 3.983 0 0 1 44 216zM64.144 144H28a4 4 0 0 1 0-8h36.144a4 4 0 0 1 0 8zM73.461 116.847a3.988 3.988 0 0 1-2.8-1.142L47.669 93.191a4 4 0 1 1 5.6-5.716l22.991 22.513a4 4 0 0 1-2.8 6.859z" fill="#007259"></path><path d="M120 204a60 60 0 1 1 60-60 60.068 60.068 0 0 1-60 60z" fill="#06b790"></path><circle cx="84" cy="52" fill="#06b790" r="12"></circle><circle cx="144" cy="48" fill="#06b790" r="16"></circle><circle cx="184" cy="80" fill="#06b790" r="8"></circle><circle cx="50.468" cy="90.333" fill="#06b790" r="8"></circle><circle cx="28" cy="140" fill="#06b790" r="12"></circle><circle cx="120" cy="240" fill="#06b790" r="16"></circle><circle cx="44" cy="212" fill="#06b790" r="20"></circle><circle cx="164.908" cy="222.696" fill="#06b790" r="8"></circle><circle cx="200" cy="184" fill="#06b790" r="16"></circle><circle cx="200" cy="130.15" fill="#06b790" r="8"></circle><g fill="#007259"><circle cx="94.481" cy="122.258" fill="#007259" r="6.907"></circle><circle cx="93.789" cy="158.669" fill="#007259" r="12.273"></circle><circle cx="131.126" cy="171.203" fill="#007259" r="7.609"></circle><circle cx="140.039" cy="131.464" fill="#007259" r="13.522"></circle><circle cx="120.046" cy="105.913" fill="#007259" r="6.381"></circle><path d="M93.715 370.858a4 4 0 0 1-1.514-7.7l28.299-11.565a4 4 0 1 1 3.021 7.407l-28.294 11.561a4 4 0 0 1-1.512.297zM119.431 336.572a3.975 3.975 0 0 1-1.152-.17l-28.571-8.571a4 4 0 1 1 2.3-7.662l28.571 8.571a4 4 0 0 1-1.147 7.832zM131.438 316.571a3.992 3.992 0 0 1-2.781-1.125L110.933 298.3a4 4 0 1 1 5.562-5.75l17.725 17.15a4 4 0 0 1-2.782 6.875zM153.838 305.531a4 4 0 0 1-3.882-3.047l-4.306-17.53a4 4 0 0 1 7.77-1.908l4.306 17.53a4 4 0 0 1-2.931 4.839 4.046 4.046 0 0 1-.957.116zM177.813 309.613a4 4 0 0 1-3.657-5.619l15.9-35.945a4 4 0 1 1 7.316 3.236l-15.9 35.945a4 4 0 0 1-3.659 2.383zM194.649 324.5a4 4 0 0 1-1.916-7.514l21-11.428a4 4 0 0 1 3.824 7.025l-20.994 11.429a3.981 3.981 0 0 1-1.914.488zM228 345.143h-28.571a4 4 0 0 1 0-8H228a4 4 0 1 1 0 8zM208 399.429a3.993 3.993 0 0 1-3.126-1.5L184.3 372.213a4 4 0 0 1 6.246-5l20.581 25.715a4 4 0 0 1-3.12 6.5zM156.571 410.857a4 4 0 0 1-4-4V381.04a4 4 0 0 1 8 0v25.817a4 4 0 0 1-4 4zM121.1 394.809a4 4 0 0 1-2.859-6.8l16.081-16.423a4 4 0 1 1 5.717 5.6l-16.081 16.422a3.991 3.991 0 0 1-2.858 1.201z" fill="#007259"></path></g><circle cx="208" cy="395.429" fill="#29bf9d" r="14.286"></circle><path d="M159.429 385.143a44 44 0 1 1 44-44 44.05 44.05 0 0 1-44 44z" fill="#29bf9d"></path><circle cx="93.714" cy="366.857" fill="#29bf9d" r="8.571"></circle><circle cx="90.857" cy="324" fill="#29bf9d" r="11.429"></circle><circle cx="108.714" cy="291.429" fill="#29bf9d" r="9.452"></circle><circle cx="121.095" cy="390.809" fill="#29bf9d" r="8.041"></circle><circle cx="156.571" cy="406.857" fill="#29bf9d" r="8.571"></circle><circle cx="228" cy="341.143" fill="#29bf9d" r="11.429"></circle><circle cx="215.64" cy="309.065" fill="#29bf9d" r="9.065"></circle><circle cx="193.714" cy="269.667" fill="#29bf9d" r="11.429"></circle><circle cx="149.535" cy="284" fill="#29bf9d" r="9.399"></circle><circle cx="156.333" cy="358.072" fill="#007259" r="6.499"></circle><circle cx="177.921" cy="338.401" fill="#007259" r="6.843"></circle><circle cx="149.944" cy="328.627" fill="#007259" r="9.659"></circle></g></svg>