<svg viewBox="0 0 511.747 511.747" xmlns="http://www.w3.org/2000/svg"><g><path d="M51.833 438.453V60c0-33.137 26.863-60 60-60h333.08c8.284 0 15 6.716 15 15v354.657l-204.123 82.09z" fill="#7d5d43"></path><path d="M444.914 0H255.79v451.747l204.123-82.09V15c.001-8.284-6.715-15-14.999-15z" fill="#5b4431"></path><path d="M459.914 369.657v30l-10 41.045 10 41.045v15c0 8.284-6.716 15-15 15H113.028c-33.743 0-61.194-27.451-61.194-61.194v-12.101c0-37.934 30.862-68.796 68.796-68.796h339.284z" fill="#9d7655"></path><path d="M255.79 369.657v142.09h189.123c8.284 0 15-6.716 15-15v-15l-10-41.045 10-41.045v-30z" fill="#7d5d43"></path><path d="M113.028 481.747c-17.201 0-31.194-13.994-31.194-31.194v-12.101c0-21.392 17.404-38.796 38.796-38.796h339.284l-10 41.045 10 41.045H113.028z" fill="#f5ead8"></path><path d="M255.79 399.657h204.123v82.09H255.79zM388.815 142.354 261.748 87.36a14.995 14.995 0 0 0-11.916 0l-127.067 54.993c-7.603 3.29-11.099 12.121-7.808 19.724 2.445 5.649 7.949 9.023 13.735 9.038.01 0 .02.003.031.003h22.067v108.501h-5.928c-8.284 0-15 6.716-15 15s6.716 15 15 15h221.857c8.284 0 15-6.716 15-15s-6.716-15-15-15h-5.928V171.12h21.982c.026 0 .052.004.078.004 5.8 0 11.323-3.384 13.773-9.046 3.29-7.603-.206-16.434-7.809-19.724zM255.79 117.471l54.642 23.648H201.148zm15 53.649v108.501h-30V171.12zm-90 0h30v108.501h-30zm150 108.501h-30V171.12h30z" fill="#ead5b0"></path><path d="M388.815 142.354 261.748 87.36a14.994 14.994 0 0 0-5.958-1.234v31.345l54.642 23.648H255.79v30h15V279.62h-15v30h110.928c8.284 0 15-6.716 15-15s-6.716-15-15-15h-5.928v-108.5h21.982c.026 0 .052.004.078.004 5.8 0 11.323-3.384 13.773-9.046 3.291-7.603-.205-16.434-7.808-19.724zM330.79 279.621h-30V171.12h30z" fill="#af947b"></path></g></svg>