<svg viewBox="0 0 58 58" xmlns="http://www.w3.org/2000/svg"><g><g fill="none" fill-rule="evenodd"><path d="M58 53.44V57a1 1 0 0 1-1 1H1a1 1 0 0 1-1-1v-3.56c.002-.28.117-.547.32-.74l2.87-2.66a3.863 3.863 0 0 1 5.22 0l.58.54a3.849 3.849 0 0 0 5.22 0l.58-.54a3.849 3.849 0 0 1 5.22 0l.58.54a3.849 3.849 0 0 0 5.22 0l.58-.54a3.849 3.849 0 0 1 5.22 0l.58.54a3.849 3.849 0 0 0 5.22 0l.58-.54a3.849 3.849 0 0 1 5.22 0l.58.54a3.849 3.849 0 0 0 5.22 0l.58-.54a3.863 3.863 0 0 1 5.22 0l2.87 2.66c.203.193.318.46.32.74z" fill="#2fa8cc"></path><path d="M44.68 30.63a18.9 18.9 0 0 0-3.3 6.17c-.11.32-.22.65-.33.99-.1.31-.19.63-.28.97-.25.88-.49 1.85-.72 2.9l-5.78-1.3a30.143 30.143 0 0 1 2.04-4.14c.2-.35.41-.68.62-1 .25-.38.49-.74.75-1.08a20.8 20.8 0 0 1 5.69-5.52z" fill="#cb8252"></path><path d="M41.38 36.8c-.11.32-.22.65-.33.99-.1.31-.19.63-.28.97a5.5 5.5 0 0 1-4.46-2.54c.2-.35.41-.68.62-1 .25-.38.49-.74.75-1.08.068.574.312 1.112.7 1.54a4.313 4.313 0 0 0 3 1.12z" fill="#a56a43"></path><path d="m29.89 40.01-7.91.64a56.892 56.892 0 0 0-1.72-8.43c-.09-.33-.19-.66-.29-.97-.11-.34-.22-.67-.33-.98-1.57-4.53-3.35-6.83-4.4-7.86l1.99-1.82a23.487 23.487 0 0 1 6.86 6.6c.25.34.49.7.74 1.07.21.32.42.65.62.99 2 3.35 3.496 6.975 4.44 10.76z" fill="#cb8252"></path><path d="M25.45 29.25a4.9 4.9 0 0 1-1 1.28 6.877 6.877 0 0 1-4.19 1.69c-.09-.33-.19-.66-.29-.97-.11-.34-.22-.67-.33-.98a5.448 5.448 0 0 0 3.45-1.2 3.291 3.291 0 0 0 1-1.88c.25.34.49.7.74 1.07.21.32.42.65.62.99z" fill="#a56a43"></path><circle cx="51" cy="7" fill="#f0c419" r="7"></circle><path d="M51.76 49.05c-.81.09-1.57.438-2.17.99l-.58.54a3.849 3.849 0 0 1-5.22 0l-.58-.54a3.849 3.849 0 0 0-5.22 0l-.58.54a3.849 3.849 0 0 1-5.22 0l-.58-.54a3.849 3.849 0 0 0-5.22 0l-.58.54a3.849 3.849 0 0 1-5.22 0l-.58-.54a3.849 3.849 0 0 0-5.22 0l-.58.54a3.849 3.849 0 0 1-5.22 0l-.58-.54c-.6-.552-1.36-.9-2.17-.99C10.66 43.66 19.2 40 29 40s18.34 3.66 22.76 9.05z" fill="#f0c419"></path><path d="M43.74 29.818v.016a8.171 8.171 0 0 0 .693-1.304.023.023 0 0 1 .011-.012 8.549 8.549 0 0 0-.1-7.267A7.841 7.841 0 0 0 37.291 17l4.608 9.17z" fill="#4c8056"></path><path d="M48.166 29.252h.007L58 27.951a7.839 7.839 0 0 0-7.483-3.438 8.963 8.963 0 0 0-6.771 5.3z" fill="#24ae5f"></path><path d="M43.743 29.834a7.98 7.98 0 0 0-5.681-6.017C33.252 22.611 30 26.388 30 26.388zM54.527 39s1.2-4.831-2.573-8.039a8.019 8.019 0 0 0-8.211-1.125z" fill="#4fba6f"></path><path d="M16.794 21.938c-.117-.252-2.25-5.416-7.974-6.172A9.261 9.261 0 0 0 0 19.777L11.581 21.3h.009z" fill="#4c8056"></path><path d="M18.976 17.7 24.407 7a9.271 9.271 0 0 0-8.313 4.957 9.881 9.881 0 0 0-.119 8.478c.006.004.01.009.013.015.222.52.49 1.018.8 1.49.007.01.013.02.017.031v-.019z" fill="#24ae5f"></path><g fill="#4fba6f"><path d="M16.8 21.973a9.334 9.334 0 0 1 6.7-7.02c5.669-1.407 9.5 3 9.5 3zM4.094 32.665s-1.417-5.637 3.032-9.379 9.674-1.313 9.674-1.313z" fill="#4fba6f"></path></g></g></g></svg>