<svg viewBox="0 0 512 512" xmlns="http://www.w3.org/2000/svg"><g><path d="M64.968 303.211 0 368.179l64.968 17.853z" fill="#7a6d79"></path><path d="M335.695 214.419v60.698l-24.435 59.53-78.532 43.437V214.419z" fill="#554e56"></path><path d="M335.695 275.117V381.38H232.728v-3.296z" fill="#7a6d79"></path><path d="M196.181 214.419v60.698l-24.434 59.53-78.532 43.437V214.419z" fill="#554e56"></path><path d="M196.181 275.117V381.38H93.215v-3.296zM0 170.553l81.754-81.754H512l-37.85 65.116-43.904 16.638-224.864 18.848z" fill="#7a6d79"></path><path d="M463.88 176.603v129.148l-72.169 75.627h-37.402V210.344h75.937z" fill="#554e56"></path><path d="m367.436 382.87 96.444-96.445H512l-81.754 94.372z" fill="#7a6d79"></path><path d="m512 286.425-81.754 81.754-11.363 28.325 11.363 26.697L512 341.447zM512 143.821l-81.754 81.754-18.925-23.375 18.925-31.647L512 88.799z" fill="#685e68"></path><path d="M430.246 225.575v-55.022H0v55.022h48.12v142.604H0v55.022h430.246v-55.022h-48.12V225.575zm-327.104 0h84.47v142.604h-84.47zm223.962 142.604h-84.47V225.575h84.47z" fill="#918291"></path></g></svg>