<svg viewBox="0 0 64 64" xmlns="http://www.w3.org/2000/svg"><g><path d="M28 16h-4v-2.171A3.001 3.001 0 0 0 26 11V6a2 2 0 0 0-2-2h-4a2 2 0 0 0-2 2v5c0 1.306.835 2.417 2 2.829V16h-4a2 2 0 0 0-2 2v18a2 2 0 0 0 2 2v18h12V38a2 2 0 0 0 2-2V18a2 2 0 0 0-2-2zM48 16h-4v-2.171A3.001 3.001 0 0 0 46 11V6a2 2 0 0 0-2-2h-4a2 2 0 0 0-2 2v5c0 1.306.835 2.417 2 2.829V16h-4a2 2 0 0 0-2 2v18a2 2 0 0 0 2 2v18h12V38a2 2 0 0 0 2-2V18a2 2 0 0 0-2-2z" fill="#0082aa"></path><path d="M38 32H26V16h12z" fill="#c80a50"></path><path d="M32 18a2 2 0 0 0 2-2v-3h-4v3a2 2 0 0 0 2 2z" fill="#d2aa82"></path><path d="M31 14h2a3 3 0 0 0 3-3V8a2 2 0 0 0-2-2h-4a2 2 0 0 0-2 2v3a3 3 0 0 0 3 3z" fill="#f0c8a0"></path><path d="M30 6h4a2 2 0 0 1 2 2V6a2 2 0 0 0-2-2h-4a2 2 0 0 0-2 2v2a2 2 0 0 1 2-2z" fill="#0a5078"></path><path d="M38 54H26V32h12z" fill="#fab400"></path><path d="M32 54.5a.5.5 0 0 1-.5-.5V38a.5.5 0 0 1 1 0v16a.5.5 0 0 1-.5.5z" fill="#dc9600"></path><path d="M38 38a2 2 0 0 0 2-2v-2h-2z" fill="#f0c8a0"></path><path d="M40 34h-2V16a2 2 0 0 1 2 2z" fill="#c80a50"></path><path d="M26 38a2 2 0 0 1-2-2v-2h2z" fill="#f0c8a0"></path><path d="M24 34h2V16a2 2 0 0 0-2 2z" fill="#c80a50"></path><path d="M34 52h2a2 2 0 0 1 2 2v2h-6v-2a2 2 0 0 1 2-2zM28 52h2a2 2 0 0 1 2 2v2h-6v-2a2 2 0 0 1 2-2z" fill="#0a5078"></path><path d="M18 16h-4v-2.171A3.001 3.001 0 0 0 16 11V6a2 2 0 0 0-2-2h-4a2 2 0 0 0-2 2v5c0 1.306.835 2.417 2 2.829V16H6a2 2 0 0 0-2 2v18a2 2 0 0 0 2 2v18h12V38a2 2 0 0 0 2-2V18a2 2 0 0 0-2-2zM58 16h-4v-2.171A3.001 3.001 0 0 0 56 11V6a2 2 0 0 0-2-2h-4a2 2 0 0 0-2 2v5c0 1.306.835 2.417 2 2.829V16h-4a2 2 0 0 0-2 2v18a2 2 0 0 0 2 2v18h12V38a2 2 0 0 0 2-2V18a2 2 0 0 0-2-2z" fill="#00a0c8"></path><path d="M59 60H5a1 1 0 0 1-1-1v-2a1 1 0 0 1 1-1h54a1 1 0 0 1 1 1v2a1 1 0 0 1-1 1z" fill="#0a5078"></path></g></svg>