<svg viewBox="0 0 512 512" xmlns="http://www.w3.org/2000/svg"><g><path d="M377.584 242.533 368 241l-65-10-16 60-31-30-31 30-16-60-65 10-9.584 1.533A48 48 0 0 0 94 289.93V448a25 25 0 0 0 25 25 25 25 0 0 0 25-25v54h274V289.93a48 48 0 0 0-40.416-47.397z" fill="#6e83b7"></path><path d="M289 201v19l-33 41-33-41v-19z" fill="#ffd3b3"></path><path d="M223.32 214.39a76.914 76.914 0 0 0 65.36 0v-13.369h-65.36z" fill="#fcb98b"></path><path d="M188 62v80.01a68 68 0 0 0 136 0V62zM334 141h-10v-40h10a10 10 0 0 1 10 10v20a10 10 0 0 1-10 10zM178 141h10v-40h-10a10 10 0 0 0-10 10v20a10 10 0 0 0 10 10z" fill="#ffd3b3"></path><path d="M251 431h10v71h-10zM345 469v10h-60v-10zM227 469v10h-60v-10z" fill="#466089"></path><path d="m287 291-31-30-31 30 31 149z" fill="#d3d3d3"></path><path d="M256 297h7l8.58-20.922L256 261l-15.58 15.078L249 297z" fill="#ffb0aa"></path><path d="m223 220-14 11 16 60 31-30zM289 220l14 11-16 60-31-30z" fill="#edeff1"></path><path d="M271 10h-33a60 60 0 0 0-60 60v31h10v44l14.367-44H246a40 40 0 0 0 40-40V25a15 15 0 0 0-15-15z" fill="#6e83b7"></path><path d="M294 25h-8v36a40 40 0 0 0 22.282 35.863L324 145v-44h10V65a40 40 0 0 0-40-40z" fill="#6e83b7"></path><path d="m263 297 8 71-15 72-15-72 8-71z" fill="#ffb0aa"></path><path d="M263.563 301.999 263 297h-14l-.563 4.999z" fill="#ff7b7b"></path><path d="M358 322h10v180h-10zM119 471a23 23 0 0 1-23-23v-58.536A3.464 3.464 0 0 1 99.464 386h39.072a3.464 3.464 0 0 1 3.464 3.464V448a23 23 0 0 1-23 23zM154 473h-10v-87h10z" fill="#466089"></path><path d="M132 432H97v32h23a18 18 0 0 0 18-18v-8a6 6 0 0 0-6-6zM132 432H97v-32h23a18 18 0 0 1 18 18v8a6 6 0 0 1-6 6z" fill="#fcb98b"></path><rect fill="#ffd3b3" rx="9" transform="rotate(90 130 408)"></rect><path d="M130.168 408.726a11.97 11.97 0 0 0-3.271-18.165A8.995 8.995 0 0 0 121 399v18a8.989 8.989 0 0 0 13.51 7.78 11.963 11.963 0 0 0-4.342-16.054z" fill="#fcb98b"></path><path d="M96 382h24v120H96z" fill="#ff7b7b"></path><g fill="#ffd3b3"><rect fill="#ffd3b3" rx="9"></rect><rect fill="#ffd3b3" rx="9"></rect><rect fill="#ffd3b3" rx="9"></rect><rect fill="#ffd3b3" rx="9"></rect></g><path d="m303 231 32 46-32 66 18 18-65 79 31-149zM209 231l-32 46 32 66-18 18 65 79-31-149z" fill="#466089"></path><path d="M18 252h180v130H18z" fill="#ffb0aa"></path><path d="M188 262v110H28V262z" fill="#edeff1"></path><path d="M158 296v14H58v-14zM178 324v14H38v-14z" fill="#6e83b7"></path></g></svg>