<svg viewBox="0 0 123.099 124" xmlns="http://www.w3.org/2000/svg"><g><g fill="#e7f2f1"><path d="M62.518 72.74c1.4-1.93 3.1-2.93 4.03-3.38-3.7-1.33-6.82-1.55-8.82-1.53-2.96.03-5.14.05-6.86 1.64-2.39 2.19-2.14 5.77-2.07 6.55l-11.43 2.72-11.43 2.73c-.29-.72-1.68-4.03-4.8-4.91-2.25-.63-4.2.33-6.85 1.64-1.8.89-4.49 2.49-7.19 5.35 1.03-.02 3 .1 5.12 1.2 2.96 1.53 4.34 4 4.79 4.91-.41 1.81-2.64 12.37 4.03 22.04 4.56 6.62 11.52 9.1 13.97 9.98 3.02 2.18 7.89 2.96 12.97 1.75s9.08-4.12 10.8-7.42c1.79-1.9 6.89-7.25 7.98-15.22 1.6-11.65-5.13-20.07-6.31-21.5-.009-1.02.111-3.84 2.07-6.55zM96.069 112.85c-.28 1.71-.02 4.28 1.18 4.71 1.4.51 4-1.96 4.7-4.71.68-2.69-.62-5.01-1.09-5.76-.06-.02-.13-.05-.19-.07-.83.45-4.02 2.33-4.6 5.83z" fill="#e7f2f1"></path><path d="M116.959 78.81c1.27-2.71 1.59-6.17.26-7.18-.29-.22-1.44-.92-4.92 1.02-1.07.6-2.41.04-2.76-1.12-.62-2.06-1.64-4.6-2.89-4.61-1.71-.02-3.2 4.68-3.53 8.24l-.03.39c-7.38 1.63-12.89 8.22-12.89 16.1 0 7 4.34 12.97 10.47 15.37.04-.03.07-.04.1-.06.02.04.05.08.09.13 1.8.68 3.75 1.05 5.79 1.05 9.08 0 16.45-7.38 16.45-16.49 0-5.19-2.39-9.82-6.14-12.84zM21.098 66.18c7.93-3.13 11.82-12.11 8.69-20.06-2.49-6.33-8.68-10.07-15.1-9.76-.04-.28-.08-.55-.13-.84a14.6 14.6 0 0 0-1.89-4.8c-.24.56-.48 1.12-.73 1.67-.24.56-.48 1.12-.72 1.67-.4-.53-1.09-1.29-2.14-1.92-.62-.37-1.2-.59-1.67-.73.29 1.63.53 3.39.69 5.27.05.5.07.98.1 1.46-6.85 3.63-10.03 11.93-7.12 19.33 3.13 7.95 12.09 11.85 20.02 8.71zM84.539 56.31c.18-.28.38-.55.6-.81 2.84-3.41 6.67-9.04 8.81-16.85 1.19-4.34 1.58-8.4 1.57-11.94.58 1.15 2.78 5.28 7.63 6.8 3.49 1.1 8.15.77 8.7-.9.63-1.91-4.91-3.12-8.29-9.55-1.87-3.55-1.61-5.89-3.94-7.37-2.08-1.32-4.63-1.06-6.51-.56.77-1.32 2.4-4.54 1.67-8.53-.64-3.54-3.07-6.89-4.27-6.58-.92.23-.49 2.42-1.95 5.53-.98 2.07-2.31 3.47-3.28 4.36a28.162 28.162 0 0 0-10.14-1.88c-.32 0-.64.01-.96.02-3.57.12-6.69.89-9.29 1.91-.96-.89-2.29-2.34-3.27-4.41-1.46-3.11-1.04-5.3-1.95-5.53-1.21-.31-3.63 3.04-4.28 6.58-.73 3.99.96 7.3 1.73 8.62-1.88-.5-4.49-.85-6.57.47-2.33 1.48-2.06 3.82-3.93 7.37-3.39 6.43-8.92 7.64-8.29 9.55.55 1.67 5.21 2 8.7.9 4.85-1.52 7.16-5.73 7.74-6.88-.02 3.22.3 6.87 1.25 10.77.1.41.21.83.32 1.25 2.14 7.81 5.97 13.44 8.81 16.85.22.26.42.53.6.81.67 1.02 1.13 2.18 1.46 3.37.97 3.48 4.17 6.06 7.93 6.06 3.77 0 6.97-2.58 7.93-6.06.34-1.19.8-2.35 1.47-3.37z" fill="#e7f2f1"></path></g><path d="M59.519 110.99c.4 1.67.1 3.39-.74 5.02-1.72 3.3-5.72 6.21-10.8 7.42s-9.95.43-12.97-1.75c-1.49-1.07-2.53-2.47-2.92-4.14-1.2-5.06 3.96-10.63 11.54-12.44 7.57-1.81 14.69.83 15.89 5.89z" fill="#f48ca7"></path><path d="M60.449 79.29c1.18 1.43 7.91 9.85 6.31 21.5-1.09 7.97-6.19 13.32-7.98 15.22.84-1.63 1.14-3.35.74-5.02-1.2-5.06-8.32-7.7-15.89-5.89-7.58 1.81-12.74 7.38-11.54 12.44.39 1.67 1.43 3.07 2.92 4.14-2.45-.88-9.41-3.36-13.97-9.98-6.67-9.67-4.44-20.23-4.03-22.04-.45-.91-1.83-3.38-4.79-4.91-2.12-1.1-4.09-1.22-5.12-1.2 2.7-2.86 5.39-4.46 7.19-5.35 2.65-1.31 4.6-2.27 6.85-1.64 3.12.88 4.51 4.19 4.8 4.91l11.43-2.73 11.43-2.72c-.07-.78-.32-4.36 2.07-6.55 1.72-1.59 3.9-1.61 6.86-1.64 2-.02 5.12.2 8.82 1.53-.93.45-2.63 1.45-4.03 3.38-1.96 2.71-2.08 5.53-2.07 6.55zm-2.5 19.97c1.26-.3 2.04-1.57 1.74-2.84a2.344 2.344 0 0 0-2.83-1.74 2.35 2.35 0 0 0-1.75 2.83 2.36 2.36 0 0 0 2.84 1.75zm-29.73 7.09c1.27-.3 2.05-1.57 1.74-2.83a2.346 2.346 0 0 0-2.83-1.75c-1.26.3-2.04 1.57-1.74 2.84.3 1.26 1.57 2.04 2.83 1.74z" fill="#fec4b9"></path><path d="M100.859 107.09c.47.75 1.77 3.07 1.09 5.76-.7 2.75-3.3 5.22-4.7 4.71-1.2-.43-1.46-3-1.18-4.71.58-3.5 3.77-5.38 4.6-5.83.06.02.13.05.19.07zM117.219 71.63c1.33 1.01 1.01 4.47-.26 7.18-.78 1.68-1.92 3.07-3.26 3.42s-2.1-.55-3.53 0c-2.53.97-2.35 4.62-3.52 4.71-1.46.11-3.98-5.41-3.56-11.39l.03-.39c.33-3.56 1.82-8.26 3.53-8.24 1.25.01 2.27 2.55 2.89 4.61.35 1.16 1.69 1.72 2.76 1.12 3.48-1.94 4.63-1.24 4.92-1.02z" fill="#e15c63"></path><path d="M104.379 97.56c2.59.75 3.57 3.95 2.03 6.16-1.88 2.69-4.32 3.8-5.64 3.24-1.3-.55-2.14-3.05-1.67-6.16.25-1.66 1.48-3.06 3.13-3.35a4.75 4.75 0 0 1 2.07.09c.02.01.05.02.08.02z" fill="#ffc05a"></path><g fill="#543927"><path d="M113.699 92.83c1.3 0 2.35 1.05 2.35 2.36 0 1.3-1.05 2.35-2.35 2.35s-2.35-1.05-2.35-2.35a2.35 2.35 0 0 1 2.35-2.36zM97.249 89.3c1.29 0 2.35 1.05 2.35 2.35s-1.06 2.36-2.35 2.36a2.356 2.356 0 0 1 0-4.71zM59.689 96.42c.3 1.27-.48 2.54-1.74 2.84a2.36 2.36 0 0 1-2.84-1.75 2.35 2.35 0 0 1 1.75-2.83c1.26-.31 2.53.48 2.83 1.74zM29.959 103.52c.31 1.26-.47 2.53-1.74 2.83-1.26.3-2.53-.48-2.83-1.74-.3-1.27.48-2.54 1.74-2.84 1.27-.3 2.53.48 2.83 1.75zM8.998 51.51c.48 1.21-.11 2.58-1.32 3.05-1.21.48-2.57-.11-3.05-1.32a2.37 2.37 0 0 1 1.33-3.06c1.2-.48 2.57.12 3.04 1.33zM24.308 45.46c.48 1.21-.12 2.57-1.32 3.05-1.21.48-2.58-.11-3.05-1.32a2.35 2.35 0 1 1 4.37-1.73z" fill="#543927"></path></g><path d="M26.668 54.65c.61 2.05-3.71 5.27-7.46 6.75-3.74 1.48-9.09 2.08-10.03.17-.26-.51-.46-1.75 1.98-4.58a6.678 6.678 0 0 1 4.17-5.45 6.65 6.65 0 0 1 6.76 1.12c3.72.4 4.41 1.44 4.58 1.99z" fill="#f49c60"></path><path d="M29.788 46.12c3.13 7.95-.76 16.93-8.69 20.06-7.93 3.14-16.89-.76-20.02-8.71-2.91-7.4.27-15.7 7.12-19.33-.03-.48-.05-.96-.1-1.46-.16-1.88-.4-3.64-.69-5.27.47.14 1.05.36 1.67.73 1.05.63 1.74 1.39 2.14 1.92.24-.55.48-1.11.72-1.67.25-.55.49-1.11.73-1.67a14.6 14.6 0 0 1 1.89 4.8c.05.29.09.56.13.84 6.42-.31 12.61 3.43 15.1 9.76zM19.208 61.4c3.75-1.48 8.07-4.7 7.46-6.75-.17-.55-.86-1.59-4.58-1.99a6.65 6.65 0 0 0-6.76-1.12c-2.28.9-3.89 3-4.17 5.45-2.44 2.83-2.24 4.07-1.98 4.58.94 1.91 6.29 1.31 10.03-.17zm3.78-12.89c1.2-.48 1.8-1.84 1.32-3.05a2.35 2.35 0 1 0-4.37 1.73c.47 1.21 1.84 1.8 3.05 1.32zm-15.31 6.05c1.21-.47 1.8-1.84 1.32-3.05a2.339 2.339 0 0 0-3.04-1.33 2.37 2.37 0 0 0-1.33 3.06c.48 1.21 1.84 1.8 3.05 1.32z" fill="#f9b132"></path><path d="M87.679 26.41c1.29 0 2.33 1.04 2.33 2.33a2.326 2.326 0 1 1-4.65 0c0-1.29 1.04-2.33 2.32-2.33zM63.009 26.41c1.28 0 2.32 1.04 2.32 2.33a2.324 2.324 0 1 1-4.65 0c0-1.29 1.04-2.33 2.33-2.33z" fill="#543927"></path><path d="M84.539 56.31c-.67 1.02-1.13 2.18-1.47 3.37-.96 3.48-4.16 6.06-7.93 6.06-3.76 0-6.96-2.58-7.93-6.06-.33-1.19-.79-2.35-1.46-3.37.37-.5 3.67-4.7 9.39-4.7.59 0 5.94.09 9.4 4.7z" fill="#655f68"></path><path d="M94.779 6.6c.73 3.99-.9 7.21-1.67 8.53-.83-1.18-1.91-2.19-3.17-2.95-1.3-.78-2.86-1.58-4.66-2.27.97-.89 2.3-2.29 3.28-4.36 1.46-3.11 1.03-5.3 1.95-5.53 1.2-.31 3.63 3.04 4.27 6.58zM61.619 5.55c.98 2.07 2.31 3.52 3.27 4.41-1.76.67-3.28 1.46-4.54 2.22-1.3.78-2.39 1.82-3.23 3.04-.77-1.32-2.46-4.63-1.73-8.62.65-3.54 3.07-6.89 4.28-6.58.91.23.49 2.42 1.95 5.53z" fill="#b29576"></path><path d="M103.559 23.06c3.38 6.43 8.92 7.64 8.29 9.55-.55 1.67-5.21 2-8.7.9-4.85-1.52-7.05-5.65-7.63-6.8-.01-2.74-.28-5.16-.61-7.2-.27-1.6-.89-3.09-1.8-4.38 1.88-.5 4.43-.76 6.51.56 2.33 1.48 2.07 3.82 3.94 7.37zM85.279 9.91c1.8.69 3.36 1.49 4.66 2.27-1.29 4.15-5.65 6.59-9.83 5.51-4.21-1.09-6.85-5.37-5.93-9.64.32-.01.64-.02.96-.02 3.92 0 7.33.8 10.14 1.88zM60.349 12.18c8.45.42 14.29 7.93 13.31 14.87-1.02 7.18-9.23 12.85-17.64 10.35-.95-3.9-1.27-7.55-1.25-10.77.02-2.7.28-5.1.61-7.12.26-1.56.86-3.02 1.74-4.29.84-1.22 1.93-2.26 3.23-3.04zm4.98 16.56a2.324 2.324 0 1 0-4.65 0 2.326 2.326 0 1 0 4.65 0z" fill="#655f68"></path><path d="M57.119 15.22a10.58 10.58 0 0 0-1.74 4.29c-.33 2.02-.59 4.42-.61 7.12-.58 1.15-2.89 5.36-7.74 6.88-3.49 1.1-8.15.77-8.7-.9-.63-1.91 4.9-3.12 8.29-9.55 1.87-3.55 1.6-5.89 3.93-7.37 2.08-1.32 4.69-.97 6.57-.47z" fill="#d6eae8"></path><path d="M67.209 59.68s10.7 4.26 13.14-6.81c1.44.69 2.94 1.77 4.19 3.44-.67 1.02-1.13 2.18-1.47 3.37-.96 3.48-4.16 6.06-7.93 6.06-3.76 0-6.96-2.58-7.93-6.06z" fill="#5d5560"></path><path d="M95.519 26.71c.01 3.54-.38 7.6-1.57 11.94-2.14 7.81-5.97 13.44-8.81 16.85-.22.26-.42.53-.6.81a11.276 11.276 0 0 0-4.19-3.44s16.74-17.04 9.59-40.69c1.26.76 2.34 1.77 3.17 2.95.91 1.29 1.53 2.78 1.8 4.38.33 2.04.6 4.46.61 7.2zM100.769 106.96c1.32.56 3.76-.55 5.64-3.24 0 0 19.25-2.08 10.55-24.91 3.75 3.02 6.14 7.65 6.14 12.84 0 9.11-7.37 16.49-16.45 16.49-2.04 0-3.99-.37-5.79-1.05a.77.77 0 0 1-.09-.13z" fill="#d6eae8"></path><path d="M50.909 115.43c4.93-3.39 5.92-8.41 5.92-8.41 1.36 1.04 2.32 2.39 2.69 3.97.4 1.67.1 3.39-.74 5.02-1.72 3.3-5.72 6.21-10.8 7.42s-9.95.43-12.97-1.75c-1.49-1.07-2.53-2.47-2.92-4.14 9.28 2.06 15.15.43 18.82-2.11z" fill="#ea728c"></path><path d="M60.459 79.31c1.22 1.48 7.89 9.88 6.3 21.48-1.09 7.97-6.19 13.32-7.98 15.22.84-1.63 1.14-3.35.74-5.02-.37-1.58-1.33-2.93-2.69-3.97 10.46-7.12 3.86-27.01 3.63-27.71z" fill="#f7b6ad"></path><path d="M12.328 66.94c5.57-1.46 8.99-4.38 11.04-7.78 2.13-1.49 3.68-3.23 3.3-4.51-.09-.29-.33-.72-1.09-1.12 1.57-6.88-.3-13.63-.3-13.63l.01-.01a15.35 15.35 0 0 1 4.5 6.23c3.13 7.95-.76 16.93-8.69 20.06-2.9 1.15-5.93 1.35-8.77.77z" fill="#ef9d26"></path><path d="M80.402 56.671a5.044 5.044 0 0 0-2.348.438c-.9.409-1.496.99-1.838 1.405a.999.999 0 1 0 1.543 1.272 3.164 3.164 0 0 1 1.119-.854 3.04 3.04 0 0 1 1.416-.264 1.016 1.016 0 0 0 1.053-.944 1 1 0 0 0-.945-1.053zM72.228 57.108a5.055 5.055 0 0 0-2.344-.437 1 1 0 0 0-.945 1.053c.03.551.514.962 1.053.944a3.02 3.02 0 0 1 1.412.262c.616.279.975.68 1.1.838a.998.998 0 1 0 1.57-1.238 5.005 5.005 0 0 0-1.846-1.422z" fill="#524956"></path><path d="M57.182 71.817c-.842.47-2.39 1.558-3.299 3.56a7.536 7.536 0 0 0-.693 2.95.998.998 0 0 0 .966 1.032l.034.001a1 1 0 0 0 .998-.967 5.564 5.564 0 0 1 .512-2.181c.677-1.49 1.83-2.3 2.457-2.649a1 1 0 1 0-.975-1.746zM21.112 83.199c-1.716-1.369-3.587-1.646-4.549-1.688a1 1 0 1 0-.09 1.998c.72.032 2.118.237 3.389 1.251a5.834 5.834 0 0 1 1.442 1.726 1.002 1.002 0 0 0 1.36.388 1 1 0 0 0 .389-1.359 7.808 7.808 0 0 0-1.941-2.316z" fill="#f7b6ad"></path><path d="M41.392 111.689a1 1 0 1 0-1.945.461l1.359 5.73a1 1 0 1 0 1.945-.46zM50.531 109.51a.998.998 0 0 0-1.203-.742.998.998 0 0 0-.742 1.203l1.35 5.689c.008.035.029.101.041.134a.978.978 0 0 0 .928.653c.114 0 .229-.02.344-.06.49-.175.756-.705.63-1.201z" fill="#ba6a7e"></path><g fill="#e28b50"><path d="M15.507 55.574a1.003 1.003 0 0 0-1.084.909l-.23 2.62a.998.998 0 0 0 .908 1.083c.03.002.06.004.089.004a1 1 0 0 0 .995-.913l.23-2.62a1 1 0 0 0-.908-1.083zM19.368 54.528a1 1 0 1 0-1.34 1.484l1.95 1.76a.996.996 0 0 0 1.412-.072 1 1 0 0 0-.072-1.412z" fill="#e28b50"></path></g></g></svg>