<svg viewBox="0 0 497 497" xmlns="http://www.w3.org/2000/svg"><g><path d="M349.925 1.622H161.333l-51.061 97.586-94.482 47.957v290.301c0 32.88 26.654 59.534 59.534 59.534h274.601c32.88 0 59.534-26.654 59.534-59.534V61.156c-.001-32.88-26.655-59.534-59.534-59.534z" fill="#eaeaea"></path><path d="m161.333 1.622-51.061 97.586-94.482 47.957v30h80.727c52.282 0 94.816-42.534 94.816-94.816V1.622z" fill="#e2e2e2"></path><path d="M15.79 147.165h80.727c35.797 0 64.816-29.019 64.816-64.816V1.622z" fill="#eaeaea"></path><g fill="#ff6f7f"><path d="m110.61 241.645 17.076-17.076a7.5 7.5 0 0 0-10.606-10.607l-17.076 17.076-17.076-17.076a7.5 7.5 0 0 0-10.606 10.607l17.076 17.076-17.076 17.076a7.5 7.5 0 0 0 0 10.606 7.5 7.5 0 0 0 10.606 0l17.076-17.076 17.076 17.076a7.5 7.5 0 0 0 10.606 0 7.5 7.5 0 0 0 0-10.606zM127.686 303.739a7.5 7.5 0 0 0-10.606 0l-17.076 17.076-17.076-17.076a7.5 7.5 0 0 0-10.606 10.607l17.076 17.076-17.076 17.076a7.5 7.5 0 0 0 0 10.606 7.5 7.5 0 0 0 10.606 0l17.076-17.076 17.076 17.076c2.928 2.929 7.677 2.929 10.606 0s2.929-7.678 0-10.606l-17.076-17.076 17.076-17.076a7.5 7.5 0 0 0 0-10.607zM127.686 393.515a7.5 7.5 0 0 0-10.606 0l-17.076 17.076-17.076-17.076a7.5 7.5 0 0 0-10.606 10.607l17.076 17.076-17.076 17.076a7.5 7.5 0 0 0 0 10.606 7.5 7.5 0 0 0 10.606 0l17.076-17.076 17.076 17.076a7.5 7.5 0 0 0 10.606 0 7.5 7.5 0 0 0 0-10.606l-17.076-17.076 17.076-17.076a7.5 7.5 0 0 0 0-10.607z" fill="#ff6f7f"></path></g><path d="M217.006 229.393c-9.613 9.613-9.613 25.198 0 34.811s25.198 9.613 34.811 0l37.5-37.5-34.811-34.811zM469.526 35.297 445.91 11.681c-15.571-15.571-40.822-15.579-56.401 0L270.872 130.318l9.136 70.881 70.881 9.136L469.526 91.699c15.579-15.579 15.579-40.823 0-56.402z" fill="#ff6f7f"></path><path d="M350.89 338.922H180.981a7.5 7.5 0 0 1 0-15H350.89a7.5 7.5 0 0 1 0 15zM350.89 428.698H180.981a7.5 7.5 0 0 1 0-15H350.89a7.5 7.5 0 0 1 0 15z" fill="#6a647f"></path><path d="M465.111 30.882 445.91 11.681c-15.571-15.571-40.822-15.579-56.401 0L270.872 130.318l9.136 70.881 17.718 2.284c17.996-84.829 83.516-152.085 167.385-172.601z" fill="#fc5c70"></path><path d="m270.872 130.318-14.214 14.214a73.73 73.73 0 0 0-21.47 56.508c.718 12.117 5.906 22.991 13.951 31.036 8.038 8.038 18.919 13.233 31.036 13.951a73.735 73.735 0 0 0 56.5-21.477l14.214-14.214z" fill="#827f98"></path><path d="m308.417 167.863-37.545-37.545-14.214 14.214a73.73 73.73 0 0 0-21.47 56.508c.718 12.117 5.906 22.991 13.951 31.036 8.038 8.038 18.919 13.233 31.036 13.951 4.269.251 8.504.113 12.672-.36.595-27.413 6.058-53.626 15.57-77.804z" fill="#77718c"></path></g></svg>