<svg viewBox="0 0 64 64" xmlns="http://www.w3.org/2000/svg"><g><path d="M22 43h20v20H22z" fill="#657380"></path><path d="M16 39h3l-5-7-5 7h3v9h4zM52 39h3l-5-7-5 7h3v9h4z" fill="#d97d77"></path><path d="M33 57h-2v-4.231a1 1 0 0 1 1-1 2.275 2.275 0 0 0 2.022-1.214 2.74 2.74 0 0 0-.334-2.877.416.416 0 0 0-.098-.1 2.686 2.686 0 0 0-2.694-.365 2.394 2.394 0 0 0-1.38 1.9l-1.989-.225a4.405 4.405 0 0 1 2.54-3.494 4.666 4.666 0 0 1 4.658.538 2.391 2.391 0 0 1 .613.615 4.735 4.735 0 0 1 .455 4.938A4.262 4.262 0 0 1 33 53.652zM31 59h2v2h-2z" fill="#f0db78"></path><path d="M37.502 19.167a5.977 5.977 0 0 0 0-2.334L39 15.996a7.927 7.927 0 0 0-2.2-3.698l-.87.485a1.102 1.102 0 0 1-1.144-.027 6.66 6.66 0 0 0-.984-.548 1.033 1.033 0 0 1-.596-.946v-.968a8.367 8.367 0 0 0-4.412.004v.964a1.033 1.033 0 0 1-.596.946 6.656 6.656 0 0 0-.984.548 1.102 1.102 0 0 1-1.145.027l-.864-.482A7.927 7.927 0 0 0 23 15.996l1.498.837a5.978 5.978 0 0 0 0 2.334L23 20.004a7.926 7.926 0 0 0 2.2 3.698l.869-.485a1.103 1.103 0 0 1 1.145.027 6.664 6.664 0 0 0 .984.548 1.033 1.033 0 0 1 .596.946v.968a8.367 8.367 0 0 0 4.412-.004v-.964a1.033 1.033 0 0 1 .596-.946 6.663 6.663 0 0 0 .984-.548 1.103 1.103 0 0 1 1.145-.027l.864.482A7.927 7.927 0 0 0 39 20.004zM31 20.857A2.857 2.857 0 1 1 33.857 18 2.857 2.857 0 0 1 31 20.857z" fill="#587399"></path><path d="M31.917 7.038a11.273 11.273 0 0 0-1.834 0l-.166-1.994a13.149 13.149 0 0 1 2.166 0z" fill="#b8cbe6"></path><path d="M31 31a13.002 13.002 0 0 1-3.249-25.59l.498 1.936a11 11 0 1 0 5.502 0l.498-1.936A13.002 13.002 0 0 1 31 31z" fill="#b8cbe6"></path><g fill="#a1bee6"><path d="m47.974 18.945-1.996-.112a14.71 14.71 0 0 0 0-1.666l1.996-.112Q48 17.524 48 18t-.026.945zM45.792 15.499a15.003 15.003 0 0 0-29.528-.313l-1.965-.372a17.003 17.003 0 0 1 33.466.354zM14.032 19.06a18.1 18.1 0 0 1 0-2.12l1.996.12q-.027.466-.028.94 0 .474.028.94zM31 35a17.004 17.004 0 0 1-16.701-13.814l1.965-.372a15.003 15.003 0 0 0 29.528-.313l1.973.331A16.94 16.94 0 0 1 31 35z" fill="#a1bee6"></path></g></g></svg>