<svg viewBox="0 0 512.001 512.001" xmlns="http://www.w3.org/2000/svg"><g><path d="M282.915 211.33a18.944 18.944 0 0 1-14.941 5.877c-1.943-.123-48.129-3.298-95.369-28.754-44.641-24.056-98.511-72.868-101.639-168.804a18.927 18.927 0 0 1 5.531-14.002C82.141 0 88.765 0 91.594 0h.001c2.001 0 49.045.338 97.518 29.403 25.163 15.089 46.083 35.148 62.181 59.622 19.446 29.566 31.786 65.589 36.678 107.066a18.935 18.935 0 0 1-5.057 15.239z" fill="#6dc82a"></path><path d="M251.887 89.963c-7.938 14.65-14.633 31.15-19.437 49.738-4.32 12.902-10.917 35.57-16.362 66.933 28.719 8.988 50.563 10.49 51.886 10.573a18.936 18.936 0 0 0 19.997-21.114c-4.841-41.045-16.988-76.739-36.084-106.13z" fill="#5eac24"></path><path d="m266.674 178.855-40.788-39.775-10.756-53.598a7.844 7.844 0 0 0-15.38 3.086l6.245 31.116L183.5 97.748l-10.904-54.335a7.843 7.843 0 0 0-15.38 3.086l6.392 31.852-52.492-51.184a7.842 7.842 0 1 0-10.951 11.23l57.719 56.284-40.264-.688c-4.327-.118-7.901 3.377-7.976 7.708a7.844 7.844 0 0 0 7.708 7.976l56.907.973 26.775 26.11-40.88-.697c-4.292-.096-7.901 3.377-7.976 7.708a7.844 7.844 0 0 0 7.708 7.976l57.522.982 38.311 37.358a7.818 7.818 0 0 0 5.474 2.227c2.04 0 4.078-.792 5.617-2.368a7.84 7.84 0 0 0-.136-11.091z" fill="#4e901e"></path><path d="M467.824 5.914A18.944 18.944 0 0 0 452.883.037c-1.943.123-48.129 3.298-95.369 28.754-36.301 19.561-78.701 55.493-94.961 119.819-8.881 26.153-28.446 97.078-23.87 203.868.396 9.239 8.01 16.463 17.17 16.462.248 0 .498-.005.749-.016 9.489-.407 16.852-8.428 16.446-17.919-2.371-55.323 2.184-100.55 8.054-133.923 13.209-.757 52.566-5.045 92.92-29.241 25.163-15.089 46.083-35.148 62.181-59.622 19.446-29.566 31.786-65.589 36.678-107.066a18.935 18.935 0 0 0-5.057-15.239z" fill="#91dc5a"></path><path d="M443.129 27.307a7.844 7.844 0 0 0-11.091-.14L379.55 78.35l6.392-31.851a7.844 7.844 0 0 0-6.147-9.233c-4.242-.848-8.381 1.899-9.233 6.147l-10.905 54.335-22.494 21.936 6.245-31.116a7.843 7.843 0 1 0-15.38-3.086l-10.757 53.599-40.789 39.775a7.842 7.842 0 0 0 5.477 13.457c1.974 0 3.95-.74 5.474-2.227l38.311-37.358 57.524-.982a7.843 7.843 0 0 0-.268-15.684l-40.881.697 26.775-26.11 56.907-.973a7.843 7.843 0 0 0-.268-15.684l-40.264.688 57.719-56.284a7.84 7.84 0 0 0 .141-11.089z" fill="#5eac24"></path><path d="M449.193 410.125a41.072 41.072 0 0 0-21.577 6.087c-9.274-30.342-37.491-52.414-70.869-52.414-3.704 0-7.341.28-10.898.805-15.13-34.614-49.655-58.813-89.846-58.813s-74.716 24.199-89.846 58.813a74.612 74.612 0 0 0-10.898-.805c-33.378 0-61.594 22.072-70.869 52.414a41.07 41.07 0 0 0-21.577-6.087c-22.795 0-41.275 18.48-41.275 41.275s18.48 41.275 41.275 41.275c12.216 0 23.188-5.31 30.744-13.744 13.282 19.931 35.954 33.07 61.701 33.07 20.851 0 39.68-8.625 53.144-22.487 14.097 7.848 30.321 12.334 47.601 12.334 17.279 0 33.504-4.487 47.601-12.334 13.466 13.862 32.293 22.487 53.144 22.487 25.747 0 48.42-13.137 61.701-33.07 7.557 8.434 18.529 13.744 30.744 13.744 22.795 0 41.275-18.48 41.275-41.275 0-22.796-18.48-41.275-41.275-41.275z" fill="#cc7400"></path><path d="M309.888 345.918a98.008 98.008 0 0 1 28.042 4.092c-17.525-26.63-47.666-44.221-81.928-44.221-40.192 0-74.716 24.199-89.846 58.813a74.612 74.612 0 0 0-10.898-.805c-33.378 0-61.594 22.072-70.869 52.414a41.07 41.07 0 0 0-21.577-6.087c-22.795 0-41.275 18.48-41.275 41.275 0 22.795 18.48 41.275 41.275 41.275 12.216 0 23.188-5.31 30.744-13.744C106.838 498.861 129.51 512 155.257 512c20.851 0 39.68-8.625 53.144-22.487a97.682 97.682 0 0 0 19.567 8.255c-10.172-15.451-16.108-33.939-16.108-53.821 0-54.139 43.889-98.029 98.028-98.029z" fill="#aa6100"></path><circle cx="294.986" cy="421.014" fill="#aa6100" r="17.771"></circle><circle cx="366.638" cy="462.863" fill="#aa6100" r="17.771"></circle><circle cx="355.71" cy="402.055" fill="#aa6100" r="6.838"></circle><circle cx="256.002" cy="469.702" fill="#aa6100" r="6.838"></circle><circle cx="277.209" cy="376.498" fill="#aa6100" r="6.838"></circle><circle cx="424.351" cy="438.791" fill="#aa6100" r="6.838"></circle><circle cx="384.415" cy="317.216" fill="#cc7400" r="17.771"></circle><circle cx="424.351" cy="356.953" fill="#cc7400" r="6.838"></circle><circle cx="424.351" cy="324.055" fill="#cc7400" r="6.838"></circle><circle cx="112.53" cy="310.942" fill="#aa6100" r="17.771"></circle><circle cx="83.02" cy="350.115" fill="#aa6100" r="6.838"></circle></g></svg>