<svg viewBox="0 0 64 64" xmlns="http://www.w3.org/2000/svg"><g><path d="M52 30.7v.1H2.3l25-16.8z" fill="#285096"></path><path d="M46.9 31v24H33.7V36.7H20.8V55H7.6V31l19.7-13.2z" fill="#ffc832"></path><path d="m54.5 27.3-2.3 3.5-.2-.1-24.7-16.6V14l-25 16.8L0 27.3l2.3-1.5L27.3 9z" fill="#3c78be"></path><path d="M50.6 24v5.5l-4.9 4-5-4V24z" fill="#ffb487"></path><path d="M53.2 19.6c0 1.7-.6 2.7-1.4 3v.8c0 3.8-4.4 5.5-6.1 5.5s-6.1-1.7-6.1-5.5v-.8c-.8-.3-1.4-1.2-1.4-3 0-1.4.9-1.1 1.4-.8v-3.7l2.2-2.8 3.9-.8 4.4.7 1.7 3v3.7c.6-.4 1.4-.6 1.4.7z" fill="#ffc8af"></path><path d="m47.9 40.8-2.2 6.6V32.6l2.9 3 3-5.2z" fill="#dcdcdc"></path><path d="m51.6 30.4-3 5.2-2.9-3 4.9-3.2z" fill="#ffffff"></path><path d="m43.4 40.8 2.3 6.6V32.6l-3 3-2.9-5.2z" fill="#dcdcdc"></path><path d="m39.8 30.4 2.9 5.2 3-3-5-3.2z" fill="#ffffff"></path><path d="m46.6 35.8.9-1.3-1.8-1.9-1.9 1.9.9 1.3-1.3 5 2.3 6.6 2.2-6.6z" fill="#285096"></path><path d="M51.4 12.4c-.1-.1-.1-.2-.1-.2v-.5c0-.5-.1-1.3-.7-1.9-.9-.9-2.5-.8-3.9-.6-.3 0-.7.1-1.1.1-1.2 0-2.6-.2-2.6-.2.1.3.3.4.6.5-.7-.1-1-.1-1.5-.3 0 .3 0 .4.1.7-.5-.1-.9-.2-1.4-.5-.5.4-.9 1.6-.4 3-.5.5-.9 1.2-.9 2.7V19c0 .2.1.4.1.5.1.1.1.2.2.2h.1c.4 0 .7-1.5.9-2.3.2-.6.4-.9.6-1.5 0-.2.1-.4.1-.6.1-.8 0-1.5-.1-1.8.6.4 1.3.7 2.2.9.6.1 1.2.2 1.8.1 2.2-.1 3.7-1.1 3.7-1.1s-.5.8-.1 1.9c.3 1.1.9 1.3 1.1 2.1s.5 2.3.9 2.3c.1 0 .2 0 .3-.1l.2-.2c.1-.2.2-.5.2-.8V14c.1-.5-.1-1.1-.3-1.6z" fill="#7b481d"></path><path d="M63.6 40.3c0-3.1-1.9-5.8-4.7-6.9l-4-1.7-3.4-1.3-5.9 17-5.9-17-3.4 1.3-4 1.7c-2.8 1.1-4.7 3.8-4.7 6.9L27.3 55H64z" fill="#828282"></path><path d="M36.4 34.3h1.7l-1.2 3.6 8.8 9.5-5.9-17-3.4 1.4zm18.5 0h-1.7l1.2 3.6-8.7 9.5 5.9-17 3.3 1.4z" fill="#969696"></path></g></svg>