<svg viewBox="0 0 468 468" xmlns="http://www.w3.org/2000/svg"><g><path d="M82.651 188.73h303.771v32H82.651z" fill="#a3b5be"></path><path d="M370.391 141.209h32v63.521h-32zM66.683 141.209h32v63.521h-32z" fill="#a3b5be"></path><ellipse cx="385.317" cy="204.73" fill="#e3edf0" rx="32.202" ry="32.117"></ellipse><ellipse cx="82.651" cy="204.73" fill="#e3edf0" rx="32.202" ry="32.117"></ellipse><path d="M289.869 397 237.92 247.439c21.874-1.979 39.015-20.34 39.015-42.709 0-23.69-19.223-42.895-42.936-42.895s-42.936 19.205-42.936 42.895c0 22.369 17.141 40.729 39.015 42.709L178.131 397z" fill="#738394"></path><path d="M82.683 143.744C37.018 143.744 0 115.999 0 71.396V71h165.366v.396c0 44.603-37.019 72.348-82.683 72.348zM385.317 143.744c-45.665 0-82.683-27.745-82.683-72.348V71H468v.396c0 44.603-37.018 72.348-82.683 72.348z" fill="#f6b94c"></path></g></svg>