<svg id="Layer_1" enable-background="new 0 0 256 256" height="512" viewBox="0 0 256 256" width="512" xmlns="http://www.w3.org/2000/svg"><g><g><g><g><circle cx="127.779" cy="144.251" fill="#8c3f0a" r="85.053"/></g><g><g><path d="m62.84 191.29c-.65 0-1.271-.32-1.64-.86-9.471-13.61-14.471-29.58-14.471-46.18 0-9.04 1.48-17.91 4.41-26.39 2.82-8.19 6.94-15.84 12.23-22.76 5.231-6.85 11.481-12.79 18.581-17.67 7.199-4.95 15.08-8.68 23.439-11.09 1.04-.3 2.18.34 2.47 1.37.311 1.06-.3 2.17-1.359 2.48-32.851 9.45-55.78 39.9-55.771 74.06 0 15.78 4.75 30.96 13.75 43.89.63.91.41 2.16-.5 2.79-.33.23-.729.36-1.139.36zm50.889-122.84c-.97 0-1.8-.69-1.97-1.65-.09-.52.021-1.05.32-1.49.31-.44.77-.74 1.29-.83 1.08-.19 2.13.54 2.33 1.61.09.53-.021 1.06-.33 1.5-.301.44-.761.73-1.29.83-.109.02-.229.03-.35.03z" fill="#995222"/></g></g><g><path d="m182.714 79.316c12.55 14.82 20.118 33.994 20.118 54.935 0 46.974-38.08 85.053-85.053 85.053-20.941 0-40.115-7.568-54.935-20.119 15.602 18.423 38.902 30.119 64.935 30.119 46.973 0 85.053-38.08 85.053-85.053 0-26.033-11.695-49.334-30.118-64.935z" fill="#7c3108"/></g><g><path d="m185.369 81.661c13.946 15.149 22.463 35.375 22.463 57.59 0 46.974-38.08 85.053-85.053 85.053-22.215 0-42.44-8.517-57.59-22.463 15.543 16.884 37.831 27.463 62.59 27.463 46.973 0 85.053-38.08 85.053-85.053 0-24.759-10.579-47.047-27.463-62.59z" fill="#6d2e03"/></g><g><path d="m80.757 73.367-13.529-13.529c-1.82-1.82-4.77-1.82-6.589 0l-18.623 18.622c-1.82 1.82-1.82 4.77 0 6.589l13.817 13.817c6.419-10.153 14.929-18.855 24.924-25.499z" fill="#6d2e03"/></g><g><path d="m213.984 78.46-18.622-18.623c-1.82-1.82-4.77-1.82-6.59 0l-13.706 13.706c9.969 6.681 18.448 15.414 24.83 25.594l14.088-14.089c1.82-1.818 1.82-4.768 0-6.588z" fill="#6d2e03"/></g><g><path d="m127.779 59.198c4.443 0 8.807.341 13.066.998v-11.633h-25.691v11.566c4.12-.613 8.335-.931 12.625-.931z" fill="#6d2e03"/></g><g><circle cx="127.779" cy="144.251" fill="#fff" r="63.245"/></g><g><g><path d="m127.777 109.038c-2.409 0-4.361-1.952-4.361-4.361v-13.903c0-2.409 1.952-4.361 4.361-4.361s4.361 1.952 4.361 4.361v13.903c0 2.409-1.952 4.361-4.361 4.361z" fill="#d1d3d4"/></g></g><g><path d="m127.777 203.723c-2.409 0-4.361-1.952-4.361-4.361v-13.903c0-2.409 1.952-4.361 4.361-4.361s4.361 1.952 4.361 4.361v13.903c0 2.41-1.952 4.361-4.361 4.361z" fill="#d1d3d4"/></g><g><g><g><g><path d="m182.074 149.43h-13.905c-2.409 0-4.361-1.952-4.361-4.361s1.952-4.361 4.361-4.361h13.905c2.409 0 4.361 1.952 4.361 4.361 0 2.41-1.952 4.361-4.361 4.361z" fill="#d1d3d4"/></g></g></g><g><g><path d="m87.389 149.43h-13.905c-2.409 0-4.361-1.952-4.361-4.361s1.952-4.361 4.361-4.361h13.905c2.409 0 4.361 1.952 4.361 4.361 0 2.41-1.952 4.361-4.361 4.361z" fill="#d1d3d4"/></g></g></g><g><g><g><path d="m127.781 152.974c-2.231 0-4.466-.852-6.169-2.555-3.406-3.406-3.406-8.931 0-12.338l30.441-30.441c3.406-3.406 8.931-3.406 12.338 0 3.406 3.406 3.406 8.931 0 12.338l-30.441 30.441c-1.704 1.704-3.938 2.555-6.169 2.555z" fill="#8c3f0a"/></g></g></g><g><path d="m164.39 107.641c-.89-.89-1.925-1.547-3.028-1.972 1.202 3.121.545 6.793-1.972 9.309l-30.441 30.441c-1.703 1.703-3.938 2.555-6.169 2.555-1.066 0-2.132-.195-3.141-.583.425 1.104 1.082 2.138 1.972 3.029 1.703 1.703 3.938 2.555 6.169 2.555s4.466-.852 6.169-2.555l30.441-30.441c3.407-3.407 3.407-8.931 0-12.338z" fill="#7c3108"/></g><g><g><circle cx="127.779" cy="144.251" fill="#8c3f0a" r="15.811"/></g></g><g><path d="m136.178 130.852c1.529 2.434 2.413 5.313 2.413 8.398 0 8.732-7.079 15.811-15.811 15.811-3.086 0-5.965-.884-8.398-2.413 2.797 4.453 7.752 7.413 13.398 7.413 8.732 0 15.811-7.079 15.811-15.811-.001-5.646-2.961-10.601-7.413-13.398z" fill="#7c3108"/></g></g><g><path d="m144.492 26.696h-32.984c-2.573 0-4.659 2.086-4.659 4.659v12.547c0 2.573 2.086 4.659 4.659 4.659h32.984c2.573 0 4.659-2.086 4.659-4.659v-12.546c.001-2.574-2.085-4.66-4.659-4.66z" fill="#8c3f0a"/></g><g><path d="m144.492 26.696h-.34v12.207c0 2.573-2.086 4.66-4.66 4.66h-32.644v.34c0 2.573 2.086 4.66 4.659 4.66h32.984c2.573 0 4.66-2.086 4.66-4.66v-12.547c.001-2.574-2.085-4.66-4.659-4.66z" fill="#7c3108"/></g></g><g><g><circle cx="128" cy="207.635" fill="#ffa91a" r="38.035"/></g><g><path d="m152.279 178.356c5.468 6.587 8.756 15.049 8.756 24.279 0 21.006-17.029 38.035-38.035 38.035-9.23 0-17.692-3.288-24.279-8.756 6.977 8.404 17.503 13.756 29.279 13.756 21.006 0 38.035-17.029 38.035-38.035 0-11.776-5.352-22.302-13.756-29.279z" fill="#f79219"/></g></g><g><g><path d="m128 214.805c-3.708 0-6.713-3.006-6.713-6.713v-19.646c0-3.708 3.006-6.713 6.713-6.713 3.708 0 6.713 3.006 6.713 6.713v19.646c0 3.708-3.005 6.713-6.713 6.713z" fill="#fff"/></g><g><path d="m128 233.174c-3.708 0-6.713-3.006-6.713-6.713 0-3.708 3.006-6.713 6.713-6.713 3.708 0 6.713 3.006 6.713 6.713 0 3.708-3.005 6.713-6.713 6.713z" fill="#fff"/></g></g></g></svg>