<svg viewBox="0 0 512 512" xmlns="http://www.w3.org/2000/svg"><g><path d="M156 507V333h200v174l-100-58z" fill="#db3328"></path><path d="m156 381.4 50.6-6.8L256 420l49.4-45.4 50.6 6.8V333H156z" fill="#b5100b"></path><path d="M198 482.6V333h116l.1 149.7L256 449z" fill="#1f3f77"></path><path d="M314 333H198v42.8l8.7-1.2 49.4 45.4 49.3-45.4 8.6 1.1z" fill="#0a2751"></path><path d="m256 5 49.4 45.4 68-9.1 11.9 64.4 60.7 30.6-30.2 58.7 30.2 58.7-60.7 30.6-11.9 64.4-68-9.1L256 385l-49.4-45.4-68 9.1-11.9-64.4L66 253.7 96.2 195 66 136.3l60.7-30.6 11.9-64.4 68 9.1z" fill="#f8d707"></path><path d="m138.6 41.3-11.9 64.4L66 136.3l8.1 15.8c16 8.9 34.3 13.9 53.9 13.9 61.4 0 111.2-49.8 111.2-111.2 0-10.5-1.5-20.8-4.2-30.4l-28.3 26.1zM122 214c-16.4 0-31.4 5.6-43.3 15.1L66 253.7l60.7 30.6 11.9 64.4 13.1-1.8c23.7-11.2 40.1-35.2 40.1-63.2 0-38.5-31.3-69.7-69.8-69.7z" fill="#fffa5a"></path><circle cx="256" cy="195" fill="#f8961e" r="125"></circle><path d="M148 195c0-66.2 51.4-120.3 116.5-124.7-2.8-.2-5.6-.3-8.5-.3-69 0-125 56-125 125s56 125 125 125c2.9 0 5.7-.1 8.5-.3C199.4 315.3 148 261.2 148 195z" fill="#e36414"></path><path d="m256 116.2 22.7 46.1 50.9 7.4-36.8 35.9 8.7 50.6-45.5-23.9-45.5 23.9 8.7-50.6-36.8-35.9 50.9-7.4z" fill="#fffa5a"></path><path d="m256 116.2 22.7 46.1 50.9 7.4-36.8 35.9 8.7 50.6-45.5-23.9-45.5 23.9 45.5-70z" fill="#f8d707"></path></g></svg>