<svg viewBox="0 0 512 512" xmlns="http://www.w3.org/2000/svg"><g><path d="M155.126 425.228a27.276 27.276 0 0 0 2.582 3.136c14.163 7.802 25.604-.483 31.532-4.666l106.179-74.929a120.815 120.815 0 0 0 45.788-63.101l17.492-96.371-6.256-63.662V5.161A5.163 5.163 0 0 0 347.282 0H186.537a5.163 5.163 0 0 0-5.161 5.161V117.44l-57.146 97.105-33.022 23.308a26.94 26.94 0 0 0-10.313 13.21s-1.54 12.012 8.461 20.527c8.881 7.56 24.628 11.651 32.675 10.929l-1.672 1.177-.124.093-5.853 4.129c-4.595 3.24-8 8.002-9.853 12.891 0 0-.941 12.764 9.883 24.64 6.009 6.593 22.943 8.583 31.258 6.815l-7.195 5.079-.465.32a27.042 27.042 0 0 0-9.847 12.892s-.095 10.016 5.254 19.908c7.036 13.014 30.121 15.613 35.881 11.546l-7.649 5.409c-12.242 8.639-15.163 25.568-6.523 37.81z" fill="#edbca4"></path><path d="m304.302 225.976 20.202-10.971a5.161 5.161 0 0 1 6.717 1.612l25.86 37.63 6.07-19.681-8.833-89.806c-11.556-3.594-24.445-2.588-35.702 3.65l-72.977 40.441c-6.582 3.647-9.132 11.969-5.464 18.539 12.692 22.731 41.285 30.99 64.127 18.586z" fill="#eaab92"></path><path d="M329.279 285.669a120.804 120.804 0 0 1-45.788 63.1l-106.179 74.929c-5.929 4.184-12.955 5.649-19.608 4.666 9.131 9.547 24.114 11.236 35.234 3.389l106.179-74.929a120.813 120.813 0 0 0 45.788-63.1l18.247-59.159-4.453-45.271z" fill="#eaab92"></path><g fill="#ffd6bd"><path d="m148.438 96.028 40.127 18.167c10.909 4.939 25.256 1.289 34.517-13.653.999-11.172-5.04-22.249-15.837-27.137l-40.127-18.167c-10.91-4.939-23.362-2.058-31.082 6.263-5.517 13.624 1.606 29.639 12.402 34.527zM405.989 179.671l-29.066-37.758c-13.773-17.892-38.556-23.028-58.306-12.083l-72.977 40.441c-6.582 3.647-9.132 11.969-5.464 18.539 12.692 22.731 41.285 30.99 64.127 18.586l26.027-14.135a5.162 5.162 0 0 1 6.776 1.7l26.047 39.606-18.247 59.159a120.81 120.81 0 0 1-45.788 63.101l-85.968 60.666-.134.164v89.184a5.161 5.161 0 0 0 5.161 5.161h160.737a5.161 5.161 0 0 0 5.161-5.161V372.835l28.887-45.931c28.738-45.695 25.955-104.459-6.973-147.233z" fill="#ffd6bd"></path><path d="m405.989 179.671-29.066-37.758c-13.773-17.892-38.556-23.028-58.306-12.083l-72.977 40.441a13.833 13.833 0 0 0-3.644 2.937l.004.002c7.17 23.356 40.493 36.845 62.302 25.001l26.027-14.135a5.162 5.162 0 0 1 6.776 1.7l15.837 24.082c3.483 3.965 6.943 14.627 10.21 24.708l-20.38 75.042c-7.87 25.516-25.967 44.958-47.784 60.353l-69.119 48.776-12.854 17.429v70.672a5.16 5.16 0 0 0 5.161 5.161h160.737a5.161 5.161 0 0 0 5.161-5.161V372.835l28.888-45.931c28.738-45.695 25.955-104.459-6.973-147.233z" fill="#ffd6bd"></path></g><path d="m304.302 207.395 26.027-14.135a5.162 5.162 0 0 1 6.776 1.7l26.047 39.606a62.063 62.063 0 0 0-10.21-34.105l-15.837-24.082a5.162 5.162 0 0 0-6.776-1.7l-26.027 14.135c-21.81 11.844-48.854 4.84-62.302-15.604-3.775 4.28-4.639 10.642-1.659 15.892 12.772 22.509 41.218 30.644 63.961 18.293zM299.117 375.406a120.815 120.815 0 0 0 45.788-63.101l18.247-77.739-18.247 59.159a120.804 120.804 0 0 1-45.788 63.1l-85.968 60.666-.134.164v18.512zM192 106.804l-40.127-18.167c-10.796-4.888-16.835-15.965-15.837-27.137a27.094 27.094 0 0 0-4.83 7.266c-6.181 13.653-.124 29.731 13.529 35.912l12.969 20.589 27.158-2.422c13.653 6.181 29.731.124 35.912-13.529a27.075 27.075 0 0 0 2.308-8.775c-7.72 8.321-20.173 11.202-31.082 6.263z" fill="#f9c6aa"></path><path d="m126.379 145.404 40.127 18.167c10.909 4.939 27.222 1.294 34.192-13.589.999-11.172-5.04-22.249-15.836-27.137l-40.127-18.167c-10.909-4.939-23.362-2.058-31.082 6.263-5.32 14.327 1.93 29.575 12.726 34.463z" fill="#ffd6bd"></path><path d="m169.617 156.245-40.127-18.167c-10.796-4.888-16.835-15.964-15.837-27.136a27.094 27.094 0 0 0-4.83 7.266c-6.181 13.653-.124 29.731 13.528 35.912l13.33 19.091 26.797-.924c13.653 6.181 29.731.124 35.912-13.529a27.082 27.082 0 0 0 2.308-8.775c-7.719 8.32-20.172 11.201-31.081 6.262z" fill="#f9c6aa"></path><path d="m102.379 194.805 40.127 18.167c10.909 4.939 28.152 1.298 35.809-13.549.999-11.172-5.04-22.249-15.836-27.137l-40.127-18.167c-10.909-4.939-23.362-2.058-31.082 6.263-5.263 14.326.313 29.535 11.109 34.423z" fill="#ffd6bd"></path><path d="m147.233 205.685-40.127-18.167c-10.796-4.888-16.835-15.964-15.837-27.137a27.094 27.094 0 0 0-4.83 7.266c-6.181 13.653-.124 29.731 13.529 35.912l40.127 18.167c13.653 6.181 29.731.124 35.912-13.529a27.082 27.082 0 0 0 2.308-8.775c-7.719 8.321-20.172 11.202-31.082 6.263z" fill="#f9c6aa"></path><g fill="#eaab92"><path d="M169.789 363.085c-12.357 8.72-29.953 5.992-38.508-6.479a27.165 27.165 0 0 1-3.117-6.052c-2.99 8.234-1.96 17.773 3.66 25.396 8.821 11.965 25.832 14.278 37.977 5.707l46.123-32.548c-3.992-7.119-13.267-9.219-19.935-4.513zM145.669 313.682c-12.245 8.641-29.176 5.719-37.817-6.525a27.134 27.134 0 0 1-3.323-6.349c-2.929 8.066-2 17.386 3.323 24.929 8.641 12.245 25.572 15.166 37.817 6.525l43.57-30.747c-3.991-7.119-13.267-9.219-19.935-4.513zM122.035 263.937c-12.245 8.641-29.176 5.719-37.817-6.525a27.134 27.134 0 0 1-3.323-6.349c-2.99 8.234-1.96 17.774 3.66 25.397 8.821 11.965 25.832 14.277 37.977 5.707l40.022-28.243c-4.983-6.745-14.437-8.284-21.302-3.468z" fill="#eaab92"></path></g></g></svg>