<svg viewBox="0 0 64 64" xmlns="http://www.w3.org/2000/svg"><g><g fill="#55c58f"><path d="M29 55h-4a1 1 0 0 1-1-1v-3a1 1 0 0 1 2 0v2h3a1 1 0 0 1 0 2zM44 43a1 1 0 0 1-1-1v-2h-3a1 1 0 0 1 0-2h4a1 1 0 0 1 1 1v3a1 1 0 0 1-1 1z" fill="#55c58f"></path><path d="M25 55a1 1 0 0 1-.62-1.785l19-15a1 1 0 0 1 1.239 1.57l-19 15A1 1 0 0 1 25 55zM25 58c0 3.28-6.04 5-12 5S1 61.28 1 58s6.04-5 12-5 12 1.72 12 5zM63 34.5c0 2.95-5.03 4.5-10 4.5s-10-1.55-10-4.5S48.03 30 53 30s10 1.55 10 4.5z" fill="#55c58f"></path></g><circle cx="13" cy="17" fill="#bcbec0" r="5"></circle><path d="M24 26v10a3.009 3.009 0 0 1-3 3 2.772 2.772 0 0 1-1-.18V55a4 4 0 0 1-7 2.64A4 4 0 0 1 6 55V38.82A2.772 2.772 0 0 1 5 39a3.009 3.009 0 0 1-3-3V26a3.009 3.009 0 0 1 3-3h16a3.009 3.009 0 0 1 3 3z" fill="#bcbec0"></path><path d="M18 17a5 5 0 0 0-5-5v10a5 5 0 0 0 5-5zM21 23h-8v34.64A4 4 0 0 0 20 55V38.82a2.772 2.772 0 0 0 1 .18 3.009 3.009 0 0 0 3-3V26a3.009 3.009 0 0 0-3-3z" fill="#939598"></path><path d="M61 12.4v7.2a2.407 2.407 0 0 1-2.4 2.4h-.2a1.75 1.75 0 0 1-.4-.04v11.02A3.02 3.02 0 0 1 55 36a2.945 2.945 0 0 1-2-.78 2.945 2.945 0 0 1-2 .78 3.02 3.02 0 0 1-3-3.02V21.96a1.75 1.75 0 0 1-.4.04h-.2a2.407 2.407 0 0 1-2.4-2.4v-7.2a2.407 2.407 0 0 1 2.4-2.4h11.2a2.407 2.407 0 0 1 2.4 2.4z" fill="#bcbec0"></path><circle cx="53" cy="5" fill="#bcbec0" r="4"></circle><path d="M58.6 10H53v25.22a2.945 2.945 0 0 0 2 .78 3.02 3.02 0 0 0 3-3.02V21.96a1.75 1.75 0 0 0 .4.04h.2a2.407 2.407 0 0 0 2.4-2.4v-7.2a2.407 2.407 0 0 0-2.4-2.4zM57 5a4 4 0 0 0-4-4v8a4 4 0 0 0 4-4z" fill="#939598"></path></g></svg>