<svg viewBox="0 0 464 464" xmlns="http://www.w3.org/2000/svg"><g><path d="M320 408H64V16c0-8.8 7.2-16 16-16h288c8.8 0 16 7.2 16 16v416c0 17.602-14.398 32-32 32s-32-14.398-32-32zm0 0" fill="#e9e9e9"></path><g fill="#2f5989"><path d="M176 32h96v16h-96zM96 72h32v16H96zM96 104h32v16H96zM96 136h32v16H96zM96 168h32v16H96zM96 200h32v16H96zM152 72h56v16h-56zM152 104h56v16h-56zM152 136h56v16h-56zM152 168h56v16h-56zM152 200h56v16h-56zM232 72h120v16H232zM232 104h120v16H232zM232 136h120v16H232zM232 168h120v16H232zM232 200h120v16H232zM96 232h32v16H96zM96 264h32v16H96zM96 296h32v16H96zM152 232h56v16h-56zM152 264h56v16h-56zM152 296h56v16h-56zM232 232h120v16H232zM232 264h120v16H232zM96 328h32v16H96zM96 360h32v16H96zM152 328h56v16h-56zM152 360h56v16h-56zM232 296h120v16H232zM232 328h120v16H232zM232 360h120v16H232zm0 0" fill="#2f5989"></path></g><path d="M352 464H32c-17.602 0-32-14.398-32-32v-24h320v24c0 17.602 14.398 32 32 32zm0 0" fill="#b4b4b5"></path></g></svg>