<svg viewBox="0 0 512 512" xmlns="http://www.w3.org/2000/svg"><g><path d="M457 422H55c-30.327 0-55-24.673-55-55V95c0-30.327 24.673-55 55-55h141c8.284 0 15 6.716 15 15s-6.716 15-15 15H55c-13.785 0-25 11.215-25 25v272c0 13.785 11.215 25 25 25h402c13.785 0 25-11.215 25-25V95c0-13.785-11.215-25-25-25h-91c-8.284 0-15-6.716-15-15s6.716-15 15-15h91c30.327 0 55 24.673 55 55v272c0 30.327-24.673 55-55 55z" fill="#7a7a93"></path><path d="M457 40h-91c-8.284 0-15 6.716-15 15s6.716 15 15 15h91c13.785 0 25 11.215 25 25v272c0 13.785-11.215 25-25 25H256v30h201c30.327 0 55-24.673 55-55V95c0-30.327-24.673-55-55-55z" fill="#616173"></path><path d="M381 497H131c-11.046 0-20-8.954-20-20V337c0-11.046 8.954-20 20-20h250c11.046 0 20 8.954 20 20v140c0 11.046-8.954 20-20 20z" fill="#ff6378"></path><path d="M381 317H256v180h125c11.046 0 20-8.954 20-20V337c0-11.046-8.954-20-20-20z" fill="#ff1f3d"></path><path d="M381 512H131c-19.299 0-35-15.701-35-35V337c0-19.299 15.701-35 35-35h250c19.299 0 35 15.701 35 35v140c0 19.299-15.701 35-35 35zM131 332c-2.757 0-5 2.243-5 5v140c0 2.757 2.243 5 5 5h250c2.757 0 5-2.243 5-5V337c0-2.757-2.243-5-5-5z" fill="#fff5f5"></path><path d="M381 302H256v30h125c2.757 0 5 2.243 5 5v140c0 2.757-2.243 5-5 5H256v30h125c19.299 0 35-15.701 35-35V337c0-19.299-15.701-35-35-35z" fill="#e2dff4"></path><path d="M286.016 436.933h-.057c-6.165.034-12.771.06-17.958.066V367c0-5.522-4.478-10-10-10s-10 4.478-10 10v79.933a10 10 0 0 0 8.312 9.856c.712.122 1.259.216 10.17.216 4.282 0 10.497-.021 19.588-.072 5.522-.031 9.975-4.533 9.944-10.056-.031-5.504-4.502-9.944-9.999-9.944z" fill="#fff5f5"></path><path d="M348.002 436.933h-.057c-6.165.034-12.771.06-17.958.066V367c0-5.522-4.478-10-10-10s-10 4.478-10 10v79.933a10 10 0 0 0 8.313 9.856c.712.122 1.259.216 10.162.216 4.282 0 10.498-.021 19.594-.072 5.522-.031 9.975-4.533 9.944-10.056-.03-5.504-4.501-9.944-9.998-9.944z" fill="#e2dff4"></path><path d="M200.751 364.592A11.77 11.77 0 0 0 189.72 357h-.014a11.77 11.77 0 0 0-10.922 7.345c-.03.074-.06.148-.088.223l-30.04 78.873c-1.966 5.161.624 10.939 5.785 12.904 5.161 1.966 10.938-.624 12.904-5.785l5.029-13.203h34.461l4.972 13.175a10.003 10.003 0 0 0 9.357 6.472 9.975 9.975 0 0 0 3.529-.647c5.167-1.949 7.774-7.719 5.824-12.887zm-20.759 52.764 9.692-25.447 9.604 25.447z" fill="#fff5f5"></path><path d="M286.016 436.933h-.057c-6.165.034-12.771.06-17.958.066V367c0-5.522-4.478-10-10-10-.686 0-1.354.07-2.001.201v99.52c.105.021.207.05.313.068.712.122 1.259.216 10.17.216 4.282 0 10.497-.021 19.588-.072 5.522-.031 9.975-4.533 9.944-10.056-.031-5.504-4.502-9.944-9.999-9.944z" fill="#e2dff4"></path><path d="m358.558 108.002-70-39.984c-10.077-5.756-10.077-20.281 0-26.037l70-39.984C368.558-3.714 381 3.503 381 15.016v79.968c0 11.513-12.442 18.73-22.442 13.018z" fill="#7a7a93"></path></g></svg>