<svg viewBox="0 0 512 512" xmlns="http://www.w3.org/2000/svg"><g><path d="M211.862 88.276 291.31 0H125.352L204.8 88.276h7.062z" fill="#9e5a23"></path><path d="M208.331 282.483 45.903 120.055 96.22 70.621l162.428 162.428-50.317 49.434z" fill="#844414"></path><path d="M208.331 182.731 370.759 20.303l49.434 50.317-162.427 162.428-49.435-50.317zM208.331 382.234 45.903 219.807 96.22 169.49l162.428 162.428-50.317 50.316z" fill="#9e5a23"></path><path d="m208.331 282.483 162.428-162.428 50.317 50.317L257.766 332.8l-49.435-50.317zM208.331 481.986 45.903 319.559l50.317-50.317 161.545 163.31-49.434 49.434z" fill="#ce8d5b"></path><path d="m208.331 382.234 162.428-162.428 50.317 50.317-163.31 162.428-49.435-50.317z" fill="#9e5a23"></path><path d="M96.221 469.628 53.848 512h83.862l-41.489-42.372z" fill="#ce8d5b"></path><path d="m96.221 369.876-50.317 50.317L137.71 512h99.752L96.221 369.876z" fill="#844414"></path><path d="M278.069 512h99.752l42.372-42.372-49.434-49.435L278.069 512z" fill="#ce8d5b"></path><path d="m462.566 512-42.372-42.372L377.821 512h84.745zM208.331 82.979l50.317 50.317L391.945 0H291.31l-82.979 82.979z" fill="#844414"></path><path d="m45.903 20.303 162.428 162.428 50.317-50.317L126.234 0H66.207L45.903 20.303z" fill="#ce8d5b"></path><path d="M208.331 481.986 237.462 512h41.49l142.124-142.124-50.317-49.435-162.428 161.545zM45.903 20.303 66.207 0H0v66.207l45.903-45.904z" fill="#844414"></path><path d="m0 165.959 96.221-95.338-50.318-50.318L0 66.207v99.752z" fill="#9e5a23"></path><path d="m0 265.71 96.221-96.221-50.317-50.317L0 165.959v99.751z" fill="#ce8d5b"></path><path d="m0 365.462 96.221-96.221-50.317-50.317L0 265.71v99.752z" fill="#844414"></path><path d="m0 466.097 96.221-96.221-50.317-50.317L0 365.462v100.635z" fill="#9e5a23"></path><path d="M45.903 420.193 0 466.097V512h53.848l42.372-42.372-50.317-49.435z" fill="#844414"></path><path d="M512 61.793 450.207 0h-59.145l-20.303 21.186L512 162.428V61.793z" fill="#ce8d5b"></path><path d="m512 162.428-91.807-91.807-49.434 49.434L512 261.297v-98.869z" fill="#844414"></path><path d="m512 261.297-90.924-91.807-50.317 50.317L512 361.048v-99.751z" fill="#9e5a23"></path><path d="m512 361.048-90.924-90.924-50.317 50.317L512 461.683V361.048z" fill="#ce8d5b"></path><path d="m420.193 369.876-49.434 50.317L462.566 512H512v-50.317l-91.807-91.807zM450.207 0 512 61.793V0h-61.793z" fill="#9e5a23"></path></g></svg>