<svg viewBox="0 0 512 512" xmlns="http://www.w3.org/2000/svg"><g><path d="M95.352 358.677c-48.394 0-87.626 39.231-87.626 87.626V512H256l30-90.325-30-62.998z" fill="#ff6c6c"></path><path d="M504.274 446.303c0-48.395-39.231-87.626-87.626-87.626H256V512h248.274z" fill="#c83c50"></path><path d="M118.29 154.527H87.686c-22.758 0-41.207 18.449-41.207 41.207s18.449 41.207 41.207 41.207h30.604z" fill="#f2bb88"></path><path d="M393.572 154.527h30.604c22.758 0 41.207 18.449 41.207 41.207s-18.449 41.207-41.207 41.207h-30.604z" fill="#c48958"></path><path d="M108.29 72.113v160.895c0 81.54 66.101 147.641 147.641 147.641l.069-.001 30-146.538-30-146.537z" fill="#ffe4c2"></path><path d="M256 87.573v293.076c81.508-.037 147.572-66.123 147.572-147.64v-129.99z" fill="#f2bb88"></path><path d="M150.996 0C127.41 0 108.29 19.12 108.29 42.706v29.406c0 17.068 13.837 30.905 30.905 30.905H256l30-51.509L256 0z" fill="#464141"></path><path d="M256 0v103.018h149.204c17.069 0 30.905-13.837 30.905-30.905V0z" fill="#2d2d2d"></path><path d="M256 294.11h-70.702v-30H256l10 15z" fill="#f2bb88"></path><path d="M256 264.11h70.564v30H256z" fill="#c48958"></path><path d="M163.284 160.131h72.068v30h-72.068z" fill="#f2bb88"></path><path d="M276.58 160.131h72.068v30H276.58z" fill="#c48958"></path></g></svg>