<svg viewBox="0 0 72 72" xmlns="http://www.w3.org/2000/svg"><g><path d="M7.566 53.02 5.69 51.127l25.19-24.985 10.761 7.492 14.287-10.86 1.613 2.123L41.71 36.931l-10.53-7.33z" fill="#f26678"></path><path d="M4 60.538h21.333v7.299H4z" fill="#bbccff"></path><path d="M25.333 55.794h21.333v12.042H25.333z" fill="#aabff2"></path><path d="M46.667 50.806H68v17.031H46.667z" fill="#99b1e0"></path><path d="m27.486 20.047.11.032c.974.28 1.994.361 3 .24 0 0 4.27-.044 5.512-.664 1.976-.989 5.342-6.169 5.342-6.169l-2.62-1.882s-2.942 3.473-4.317 3.997c-1.338.51-5.952-.405-5.952-.405z" fill="#fddf8c"></path><path d="M29.165 31.577s.798 8.596-.463 11.365C27.12 46.418 18.11 54.658 18.11 54.658l-3.278-2.37s6.292-9.254 7.226-12.81c.515-1.962 0-8.111 0-8.111" fill="#382f93"></path><path d="M26.866 8.005c0 .193-.016.392-.044.597a5.074 5.074 0 0 1-.757 1.961c-.342.525-.773.934-1.265 1.116-.171.06-.348.094-.53.094-1.464 0-2.707-2.171-2.707-3.768 0-.884.364-1.674.945-2.199l.06-.06c.144-.128.299-.238.47-.32.32-.183.685-.288 1.072-.3.033-.005.071-.005.105-.005 1.464 0 2.651 1.293 2.651 2.884z" fill="#34324c"></path><path d="M27.977 8.58a24.022 24.022 0 0 1-1.912 1.983c-.408.392-.828.762-1.265 1.116-.171.06-.348.094-.53.094-1.464 0-2.707-2.171-2.707-3.768 0-.884.364-1.674.945-2.199-.398.41-.663.956-.663 1.503 0 1.088 1.127 2.646 2.215 2.646.724 0 1.326-.773 1.646-1.613.36.138.735.221 1.116.26.381.044.774.038 1.155-.022z" fill="#000000" opacity=".15"></path><path d="M31.305 18.44v13.136h-9.51V15.968c0-.452.367-.818.818-.818h5.402a3.29 3.29 0 0 1 3.29 3.29z" fill="#fddf8c"></path><path d="M24.27 10.486h3.674v4.663H24.27z" fill="#fdc7b4"></path><path d="M27.944 10.486v3.425s-1.625.84-3.674.525v-3.95z" fill="#efb5a3"></path><path d="M27.486 13.942a3.214 3.214 0 0 1-3.214-3.214v-2.21a3.214 3.214 0 1 1 6.428 0v2.21a3.214 3.214 0 0 1-3.214 3.214z" fill="#fdc7b4"></path><path d="M25.966 7.094c0 .37-.094.817-.26 1.248-.32.84-.922 1.613-1.646 1.613-1.088 0-2.215-1.558-2.215-2.646 0-.547.265-1.094.663-1.503l.06-.06c.138-.133.293-.255.464-.348.293-.172.625-.277.956-.277.039 0 .083 0 .122.006a1.969 1.969 0 0 1 1.856 1.967z" fill="#34324c"></path><path d="M31.942 5.724a1.56 1.56 0 0 1-1.565 1.566h-7.524v-.918a2.21 2.21 0 0 1 2.21-2.209h5.314c.865 0 1.565.7 1.565 1.561z" fill="#34324c"></path><circle cx="27.331" cy="9.484" fill="#313131" r=".3"></circle><circle cx="29.465" cy="9.484" fill="#313131" r=".3"></circle><path d="M27.249 11.394c-.001.018-.006.035-.006.052a1.219 1.219 0 1 0 2.438 0c0-.017-.004-.034-.005-.052z" fill="#ffffff"></path><path d="M25.706 8.342c-.32.84-.922 1.613-1.646 1.613-1.088 0-2.215-1.558-2.215-2.646 0-.547.265-1.094.663-1.503l.06-.06c.138-.133.293-.255.464-.348 0 .01 0 .016.006.027.105.608.436 1.16.834 1.63.265.31.57.585.912.818.287.193.596.353.922.47z" fill="#000000" opacity=".15"></path><path d="M23.26 15.15h-.113a7.583 7.583 0 0 0-2.95.594s-4.095 1.216-5.118 2.154c-1.629 1.493-4.12 7.82-4.12 7.82l3.957 1.024s1.633-4.504 2.81-5.385c.45-.337 1.779-.697 3.228-1.01 2.325-.503 3.485-3.13 2.307-5.197z" fill="#fddf8c"></path><path d="m21.908 20.274-.225-.447c1.403-.705 2.113-2.373 1.652-3.879l.478-.146c.532 1.736-.288 3.659-1.905 4.472z" fill="#f2cf77"></path><path d="m39.55 49.85-4.291.223s-1.122-7.26-2.62-9.095c-.332-.409-2.3-1.138-4.443-1.896a9.832 9.832 0 0 1-6.341-7.233l-.058-.272h9.508s5.917 4.57 7.28 6.82c1.556 2.562.966 11.453.966 11.453z" fill="#4b39a8"></path><path d="M43.476 53.352a4.282 4.282 0 0 0-4.351-3.5l-3.886.129.111 3.371zM19.296 60.006a4.282 4.282 0 0 0-1.297-5.43l-3.15-2.279-1.977 2.733z" fill="#34324c"></path><path d="M31.054 18.079h.5v2.129h-.5z" fill="#f2cf77"></path><path d="m14.916 26.742-.35 2.1a.524.524 0 1 1-1.029-.194l.452-2.135z" fill="#fdc7b4"></path><path d="m10 29.441.206-.83a.435.435 0 0 1 .527-.317l4.668 1.159a.435.435 0 0 1 .317.526l-.207.831.843.21.206-.831a1.304 1.304 0 0 0-.95-1.579l-4.668-1.159a1.304 1.304 0 0 0-1.578.95l-.207.831zM17.765 33.624l-1.542 6.21a.945.945 0 0 1-1.148.692l-9.778-2.428a.947.947 0 0 1-.691-1.148l1.542-6.21c.127-.51.57-.527 1.076-.401l9.778 2.428c.51.127.89.348.763.857z" fill="#894e57"></path><path d="m17.872 33.195-1.09 4.389a1.009 1.009 0 0 1-.724.092l-10.3-2.558a1 1 0 0 1-.593-.42l1.09-4.388a.947.947 0 0 1 1.147-.69l9.779 2.427c.509.127.817.639.69 1.148z" fill="#000000" opacity=".06"></path><path d="m18.441 32.227-1.1 4.43a.996.996 0 0 1-1.209.728L5.83 34.826a.998.998 0 0 1-.728-1.209l1.1-4.43a.998.998 0 0 1 1.21-.727l10.301 2.558a.996.996 0 0 1 .728 1.21z" fill="#a06167"></path><path d="m12.516 35.294-.417 1.68a.216.216 0 0 1-.262.154l-2.093-.52a.213.213 0 0 1-.155-.258l.417-1.679a.216.216 0 0 1 .259-.159l2.093.52a.22.22 0 0 1 .158.262z" fill="#d7e9f9"></path><path d="m11.892 35.519-.24.963a.124.124 0 0 1-.15.088l-1.2-.298a.122.122 0 0 1-.088-.148l.239-.962a.124.124 0 0 1 .148-.092l1.2.298a.126.126 0 0 1 .09.15z" fill="#ffffff"></path><path d="M11.94 28.973a1.7 1.7 0 0 1-1.243-2.056l.282-1.146 3.3.814-.282 1.145a1.7 1.7 0 0 1-2.057 1.243zM43.63 10.861c0 .44-.234.887-.727 1.207l-1.453 1.418-2.62-1.885.033-1.88a.558.558 0 0 1 .56-.586c.287 0 .547.22.56.526l.06 1.067 1.067-.934a1.539 1.539 0 0 1 2.166.154c.227.267.354.587.354.913z" fill="#fdc7b4"></path><path d="m57.26 30.034-2.643-.362.62-4.526-4.526-.62.362-2.643 7.169.983z" fill="#f26678"></path></g></svg>