<svg viewBox="0 0 512 512" xmlns="http://www.w3.org/2000/svg"><g><path d="M495.629 401.148H16.371C7.329 401.148 0 393.818 0 384.777V127.223c0-9.041 7.329-16.371 16.371-16.371h479.258c9.041 0 16.371 7.329 16.371 16.371v257.554c0 9.041-7.329 16.371-16.371 16.371z" fill="#5ea570"></path><path d="M495.629 110.852h-21.657c9.042 0 16.371 7.329 16.371 16.371v257.554c0 9.041-7.329 16.371-16.371 16.371h21.657c9.041 0 16.371-7.33 16.371-16.371V127.223c0-9.041-7.329-16.371-16.371-16.371z" fill="#528e61"></path><path d="M454.915 317.73a2.674 2.674 0 0 0 2.456-2.669V196.939a2.677 2.677 0 0 0-2.456-2.669c-14.416-1.183-25.907-12.69-27.067-27.113a2.615 2.615 0 0 0-2.611-2.406H86.817a2.677 2.677 0 0 0-2.669 2.456c-1.182 14.399-12.664 25.881-27.063 27.063a2.674 2.674 0 0 0-2.456 2.669v118.122a2.677 2.677 0 0 0 2.456 2.669c14.399 1.182 25.881 12.664 27.063 27.063a2.674 2.674 0 0 0 2.669 2.456h338.366a2.677 2.677 0 0 0 2.669-2.456c1.182-14.399 12.664-25.881 27.063-27.063z" fill="#8bc852"></path><path d="M454.915 194.27c-14.416-1.183-25.907-12.69-27.067-27.112a2.615 2.615 0 0 0-2.611-2.406h-26.086a2.615 2.615 0 0 1 2.611 2.406c1.16 14.423 12.651 25.929 27.067 27.112a2.677 2.677 0 0 1 2.456 2.669v118.122a2.674 2.674 0 0 1-2.456 2.669c-14.399 1.182-25.881 12.664-27.063 27.063a2.677 2.677 0 0 1-2.669 2.456h26.086a2.677 2.677 0 0 0 2.669-2.456c1.182-14.399 12.664-25.881 27.063-27.063a2.674 2.674 0 0 0 2.456-2.669V196.939a2.676 2.676 0 0 0-2.456-2.669z" fill="#7dbe3b"></path><circle cx="256" cy="256" fill="#cbe7af" r="115.966"></circle><path d="M256 140.034c-4.27 0-8.483.238-12.633.688 58.102 6.296 103.332 55.502 103.332 115.278s-45.23 108.982-103.332 115.278c4.15.45 8.364.688 12.633.688 64.046 0 115.966-51.92 115.966-115.966S320.046 140.034 256 140.034z" fill="#aad880"></path><path d="M270.876 248.031a354.042 354.042 0 0 1-7.903-2.89v-41.168c6.979 1.448 11.15 5.011 11.49 5.311a7.727 7.727 0 0 0 10.429-11.402c-.478-.44-8.616-7.764-21.92-9.573v-8.738a7.726 7.726 0 1 0-15.452 0v9.332a50.9 50.9 0 0 0-4.308 1.094c-11.797 3.553-20.613 13.656-23.007 26.367-2.18 11.566 1.51 22.708 9.63 29.076 4.447 3.488 10.009 6.682 17.685 10.071V307.2c-7.035-.415-11.665-1.961-19.467-7.066a7.728 7.728 0 0 0-8.461 12.931c10.869 7.11 18.233 9.119 27.928 9.592v9.771a7.726 7.726 0 1 0 15.452 0v-10.36c18.911-3.448 29.954-18.919 32.383-33.367 3.087-18.359-6.521-34.323-24.479-40.67zm-31.504-14.75c-3.563-2.794-5.09-8.18-3.982-14.056 1.029-5.463 4.759-12.085 12.13-14.381v33.542c-3.09-1.619-5.871-3.32-8.148-5.105zm40.744 52.859c-1.377 8.19-7.208 16.912-17.144 20.013v-44.539c.901.326 1.811.653 2.754.986 16.07 5.68 15.077 19.454 14.39 23.54z" fill="#5ea570"></path></g></svg>