<svg viewBox="0 0 511.999 511.999" xmlns="http://www.w3.org/2000/svg"><g><path d="M95.608 151.005c-110.627-60.347-30.618-135.374 0-84.845 30.623-50.529 110.637 24.498 0 84.845z" fill="#ef687e"></path><path d="M362.99 397.427c-70.252-38.323-19.444-85.967 0-53.879 19.447-32.087 70.258 15.557 0 53.879z" fill="#f996b1"></path><path d="M374.599-1.852h40.643v160.058h-40.643z" fill="#4bbaed" transform="rotate(-134.999 394.922 78.178)"></path><path d="M277.123 85.878c-60.803 0-110.094 49.291-110.094 110.094s49.291 110.094 110.094 110.094 110.094-49.291 110.094-110.094-49.29-110.094-110.094-110.094zm0 179.545c-38.357 0-69.451-31.094-69.451-69.451s31.095-69.451 69.451-69.451c38.357 0 69.451 31.094 69.451 69.451s-31.094 69.451-69.451 69.451z" fill="#93d6f4"></path><path d="M249.695 434.86h-26.016a5.566 5.566 0 0 1-5.566-5.566v-64.091H177.47v64.091a5.566 5.566 0 0 1-5.566 5.566h-26.017a5.566 5.566 0 0 0-5.566 5.566v29.51a5.566 5.566 0 0 0 5.566 5.566h26.017a5.566 5.566 0 0 1 5.566 5.566v25.365a5.566 5.566 0 0 0 5.566 5.566h29.51a5.566 5.566 0 0 0 5.566-5.566v-25.365a5.566 5.566 0 0 1 5.566-5.566h26.016a5.566 5.566 0 0 0 5.566-5.566v-29.51a5.565 5.565 0 0 0-5.565-5.566z" fill="#ef687e"></path><path d="M432.452 0h-68.825a5.473 5.473 0 0 0-5.473 5.473V35.17a5.473 5.473 0 0 0 5.473 5.473h63.352a5.473 5.473 0 0 1 5.473 5.473v63.352a5.473 5.473 0 0 0 5.473 5.473h29.697a5.473 5.473 0 0 0 5.473-5.473V5.473A5.473 5.473 0 0 0 467.622 0h-35.17z" fill="#93d6f4"></path><path d="M328.579 275.748c0-10.201-1.176-20.132-3.396-29.667-12.478 11.971-29.404 19.342-48.06 19.342a69.106 69.106 0 0 1-34.718-9.31 48.464 48.464 0 0 1 4.143 19.635 48.437 48.437 0 0 1-6.326 23.973c11.537 4.104 23.956 6.345 36.901 6.345 18.074 0 35.13-4.356 50.177-12.074a131.194 131.194 0 0 0 1.279-18.244z" fill="#82cbf4"></path><path d="M197.791 165.654c-60.803 0-110.094 49.291-110.094 110.094s49.291 110.094 110.094 110.094c60.804 0 110.094-49.291 110.094-110.094s-49.291-110.094-110.094-110.094zm0 179.546c-38.357 0-69.451-31.095-69.451-69.451s31.095-69.451 69.451-69.451c38.357 0 69.451 31.094 69.451 69.451S236.148 345.2 197.791 345.2z" fill="#f996b1"></path><path d="M197.791 165.654c-18.058 0-35.099 4.347-50.137 12.053a131.817 131.817 0 0 0 2.134 47.877c12.472-11.938 29.375-19.287 48.003-19.287a69.109 69.109 0 0 1 34.679 9.287 48.882 48.882 0 0 1-3.826-14.417c-1.099-10.263 1.032-20.374 6.028-29.176-11.531-4.098-23.944-6.337-36.881-6.337z" fill="#f28598"></path><path d="M233.526 250.034c-29.858-24.078-34.543-67.802-10.465-97.66s67.802-34.543 97.66-10.465l25.513-31.637c-47.331-38.169-116.642-30.741-154.81 16.59s-30.741 116.642 16.589 154.81l25.513-31.638z" fill="#93d6f4"></path></g></svg>