<svg viewBox="0 0 32 32" xmlns="http://www.w3.org/2000/svg"><g><path d="m22.94 3.33-6 17A1 1 0 0 1 16 21a1 1 0 0 1-.93-.64l-6-17a1 1 0 0 1 .35-1.14 1.11 1.11 0 0 1 1.19 0L16 6.28l5.4-4.08a1.18 1.18 0 0 1 1.19 0 1 1 0 0 1 .35 1.13z" fill="#48cbff"></path><path d="M15.83 30a2.91 2.91 0 0 1-2.59-1.45 1 1 0 0 1 1.74-1 1.05 1.05 0 0 0 1.2.4 1.15 1.15 0 0 0 1-1c0-.64-1.39-.53-1.39-.53a2.8 2.8 0 0 1-2.94-2.59 2.81 2.81 0 0 1 3-2.59 3.23 3.23 0 0 1 2.25.89 1 1 0 0 1-1.41 1.42 1.22 1.22 0 0 0-.84-.31c-.57 0-1 .31-1 .59 0 .9 1.64.58 1.95.64a2.67 2.67 0 0 1 2.38 2.6A3.2 3.2 0 0 1 15.83 30z" fill="#03182b"></path></g></svg>