<svg viewBox="0 0 497 497" xmlns="http://www.w3.org/2000/svg"><g><path d="M212.903 479.445 56.175 357.094c-7.428-5.798-8.731-16.521-2.911-23.942L309.45 6.544c5.812-7.41 16.53-8.722 23.947-2.932l156.729 122.351c7.428 5.798 8.731 16.521 2.911 23.942L236.851 476.513c-5.813 7.41-16.53 8.722-23.948 2.932z" fill="#57ad7b"></path><path d="M113.949 489.452 3.224 324.459c-5.25-7.823-3.152-18.423 4.684-23.67L353.042 69.72c7.827-5.24 18.417-3.155 23.661 4.659l110.725 164.993c5.25 7.823 3.152 18.423-4.684 23.67L137.61 494.111c-7.827 5.24-18.417 3.155-23.661-4.659z" fill="#81cda1"></path><path d="M487.428 239.372 376.704 74.379c-5.244-7.814-15.834-9.899-23.661-4.659l-13.431 8.992 107.817 160.66c5.25 7.823 3.152 18.423-4.684 23.67L111.041 485.119l2.908 4.333c5.244 7.814 15.834 9.899 23.661 4.659l345.134-231.069c7.837-5.247 9.934-15.847 4.684-23.67z" fill="#60bf88"></path><ellipse cx="245.326" cy="281.915" fill="#29795d" rx="90.929" ry="91.032" transform="rotate(-86.67 245.475 282.012)"></ellipse><g fill="#29795d"><path d="M55.139 269.168c22.741 33.887 13.677 79.77-20.245 102.481L3.21 324.437c-5.243-7.813-3.14-18.4 4.698-23.647zM82.352 442.368c33.994-22.759 79.949-13.797 102.642 20.019l-47.362 31.709c-7.837 5.247-18.441 3.167-23.684-4.645zM435.536 294.695c-22.741-33.887-13.677-79.77 20.245-102.481l31.684 47.212c5.243 7.813 3.14 18.4-4.698 23.647zM408.323 121.495c-33.994 22.76-79.949 13.797-102.642-20.019l47.362-31.709c7.837-5.247 18.441-3.167 23.684 4.645z" fill="#29795d"></path></g><path d="M359.549 212.948a7.5 7.5 0 0 1-4.179-13.734l35.307-23.638a7.5 7.5 0 0 1 8.345 12.465l-35.307 23.638a7.466 7.466 0 0 1-4.166 1.269zM95.812 389.522a7.5 7.5 0 0 1-4.179-13.733l35.306-23.638a7.5 7.5 0 0 1 8.345 12.464l-35.306 23.638a7.468 7.468 0 0 1-4.166 1.269z" fill="#29795d"></path><path d="M280.379 321.779c10.814-11.145 11.166-26.564 6.246-37.47-6.426-14.24-20.589-20.874-36.087-16.898-1.864.478-3.775.954-5.699 1.407l-17.015-25.354c4.274-1.388 7.605-1.026 7.934-.986a7.492 7.492 0 0 0 8.48-6.278 7.5 7.5 0 0 0-6.267-8.558c-.519-.079-9.023-1.287-18.698 3.081l-3.3-4.917a7.5 7.5 0 1 0-12.455 8.359l3.599 5.364a42.792 42.792 0 0 0-1.745 1.977c-6.61 8.029-8.06 19.23-3.781 29.231 3.911 9.145 11.788 15.227 20.558 15.873 4.449.327 9.463.004 15.839-1.08l21.895 32.627c-4.339 2.357-7.83 3.091-14.382 3.17a7.498 7.498 0 0 0-7.408 7.59 7.5 7.5 0 0 0 7.497 7.41h.093c10.22-.124 16.122-1.946 22.583-5.678l3.697 5.509a7.49 7.49 0 0 0 6.234 3.322 7.5 7.5 0 0 0 6.221-11.68zm-57.126-50.127c-3.108-.229-6.197-2.903-7.869-6.813-1.435-3.354-1.935-8.143.496-12.256l12.763 19.018c-1.923.141-3.74.173-5.39.051zm31.012 10.289c12.344-3.164 17.423 5.735 18.688 8.538 2.373 5.258 2.55 12.394-1.319 18.267l-17.898-26.671.529-.134z" fill="#81cda1"></path></g></svg>