<svg viewBox="0 0 72 72" xmlns="http://www.w3.org/2000/svg"><g><path d="m45.846 40.685 18.262 18.262c2.025 2.025 2.237 5.36.263 7.434a5.206 5.206 0 0 1-7.455.094L38.66 48.22c-2.084-2.084-2.208-5.619-.065-7.642a5.185 5.185 0 0 1 3.57-1.419c1.333 0 2.665.511 3.681 1.527z" fill="#4b39a8"></path><circle cx="30.435" cy="32.634" fill="#98a2f5" r="24.179"></circle><path d="M44.116 46.313c-7.526 7.526-19.775 7.591-27.366 0-7.555-7.555-7.555-19.805 0-27.36 7.555-7.56 19.811-7.56 27.366 0 7.561 7.555 7.561 19.805 0 27.36z" fill="#ffffff"></path><path d="M41.72 10.668c.783 2.134-.814 6.853-2.934 7.837-1.625.754-3.639-1.152-4.241-3.546-.605-2.398.317-4.7 2.054-5.137 1.74-.438 4.267-1.476 5.12.846zM28.521 12.828c.603 2.393-.318 4.694-2.059 5.133-1.737.437-3.638-1.153-4.24-3.546-.605-2.399.316-4.7 2.053-5.137 1.74-.439 3.642 1.151 4.246 3.55z" fill="#34324c"></path><path d="M44.16 30.98v15.296l-.037.037a19.13 19.13 0 0 1-4.187 3.173c-.196.12-.39.223-.586.325a19.401 19.401 0 0 1-4.55 1.675c-.279.065-.549.121-.819.167a19.13 19.13 0 0 1-5.303.242 19.23 19.23 0 0 1-6.987-2 6.878 6.878 0 0 1-.577-.307 18.143 18.143 0 0 1-2.186-1.395V30.98a2.496 2.496 0 0 1 2.493-2.503h20.236c.047 0 .084 0 .13.01 1.322.055 2.373 1.163 2.373 2.493z" fill="#ff7581"></path><path d="M34.8 51.486c-.279.065-.549.121-.819.167a19.13 19.13 0 0 1-5.303.242l2.168-21.26.12-1.162h1.601l.121 1.237z" fill="#ffffff"></path><path d="M34.8 51.486c-.279.065-.549.121-.819.167l-2.018-20.217-.196-1.963h.8l.121 1.237z" fill="#e9deff"></path><path d="m34.917 28.483-3.11 3.11-3.112-3.11z" fill="#ffffff"></path><path d="M28.503 28.48h3.307l-3.565 1.974zM35.376 30.454l-3.037-1.681-.529-.293h3.304z" fill="#f26678"></path><path d="M28.527 23.72h6.563v4.762h-6.563z" fill="#fdc7b4"></path><path d="M35.09 23.72v3.412c-2.324.109-4.5-.447-6.563-1.559V23.72z" fill="#efb5a3"></path><ellipse cx="38.211" cy="17.985" fill="#fdc7b4" rx="1.602" ry="1.869"></ellipse><path d="M38.852 18.828a.135.135 0 0 1-.09-.236c.193-.17.299-.386.299-.607a.815.815 0 0 0-.298-.606.135.135 0 0 1 .178-.203c.251.222.39.51.39.81 0 .299-.139.586-.39.808a.136.136 0 0 1-.089.034z" fill="#efb5a3"></path><ellipse cx="25.503" cy="17.985" fill="#fdc7b4" rx="1.602" ry="1.869"></ellipse><path d="M24.862 18.828a.135.135 0 0 0 .09-.236c-.193-.17-.298-.386-.298-.607 0-.221.105-.437.297-.606a.135.135 0 0 0-.178-.203c-.251.222-.389.51-.389.81 0 .299.138.586.389.808a.136.136 0 0 0 .089.034z" fill="#efb5a3"></path><path d="M38.425 15.945v3.45a6.621 6.621 0 0 1-6.614 6.614 6.615 6.615 0 0 1-6.613-6.614v-3.45a6.609 6.609 0 0 1 6.613-6.614c1.824 0 3.48.74 4.673 1.932a6.6 6.6 0 0 1 1.941 4.682z" fill="#fdc7b4"></path><path d="M29.796 17.54c0 .46-.252.83-.566.83s-.571-.37-.571-.83.258-.834.571-.834.566.375.566.834zM34.96 17.54c0 .46-.252.83-.565.83s-.572-.37-.572-.83.258-.834.572-.834.565.375.565.834z" fill="#333333"></path><path d="M29.501 21.111c-.001.034-.01.065-.01.1a2.32 2.32 0 1 0 4.638 0c0-.035-.008-.066-.01-.1z" fill="#ffffff"></path><path d="M22.777 10.687C22.777 6.434 23.922 4 28.934 4s9.076 3.448 9.076 7.701-15.233 3.24-15.233-1.014z" fill="#34324c"></path><path d="M32.162 8.132c2.337-2.337 5.972-2.496 8.114-.354 2.14 2.14 1.978 5.772-.359 8.108s-10.092-5.417-7.755-7.754zM27.997 9.355s-3.389-4.46-4.873-3.742c0 0 .785 1.031.606 1.744 0 0-1.387-1.47-3.14-.228 0 0 1.903 1.696 2.297 3.326z" fill="#34324c"></path><path d="M46.83 33.13v9.787a19.333 19.333 0 0 1-6.894 6.569v-21h2.252a4.65 4.65 0 0 1 4.642 4.643zM21.114 28.487v21.101a18.143 18.143 0 0 1-2.186-1.395 19.724 19.724 0 0 1-2.178-1.88 18.827 18.827 0 0 1-2.54-3.145V33.13c0-2.558 2.085-4.642 4.662-4.642h2.242z" fill="#ff7581"></path><path d="M39.936 37.018v12.468c-.196.12-.39.223-.586.325V37.018c0-.158.13-.288.298-.288a.29.29 0 0 1 .288.288zM21.69 37.018v12.877a6.878 6.878 0 0 1-.576-.307v-12.57c0-.158.13-.288.28-.288.167 0 .297.13.297.288z" fill="#f26678"></path></g></svg>