<svg viewBox="0 0 464 464" xmlns="http://www.w3.org/2000/svg"><g><path d="M232 64h-32l-32-42.664L208 32l22-32 26 32 40-10.664L264 64zm0 0" fill="#f1e630"></path><path d="M232 48c48.602 0 88 39.398 88 88v144H144V136c0-48.602 39.398-88 88-88zm0 0" fill="#de875a"></path><path d="M144 280h176c17.672 0 32 14.328 32 32v152H112V312c0-17.672 14.328-32 32-32zM232 240c-35.348 0-64-28.652-64-64v-32a96.494 96.494 0 0 0 83.785-48.625L256 88l.984 4.922A73.14 73.14 0 0 0 296 144v32c0 35.348-28.652 64-64 64zm0 0" fill="#fbd58a"></path><g fill="#9d4f28"><path d="M208 168a8 8 0 1 1-16 0 8 8 0 0 1 16 0zM272 168a8 8 0 1 1-16 0 8 8 0 0 1 16 0zM232 213.496a29.142 29.142 0 0 1-13.023-3.062l-6.551-3.274 7.148-14.32 6.563 3.281a13.147 13.147 0 0 0 11.726 0l6.563-3.281 7.148 14.32-6.55 3.274A29.142 29.142 0 0 1 232 213.496zm0 0" fill="#9d4f28"></path></g><path d="M272 336c-22.09 0-40 9.91-40 32 0-22.09-17.91-32-40-32s-40 17.91-40 40v88h160v-88c0-22.09-17.91-40-40-40zm0 0" fill="#ef82b3"></path><path d="M40 172v20H20c-11.047 0-20 8.953-20 20s8.953 20 20 20h60v-60c0-11.047-8.953-20-20-20s-20 8.953-20 20zM424 172v20h20c11.047 0 20 8.953 20 20s-8.953 20-20 20h-60v-60c0-11.047 8.953-20 20-20s20 8.953 20 20zm0 0" fill="#df412c"></path><path d="m248 232 8 56h-48l8-56" fill="#fbd58a"></path></g></svg>