<svg viewBox="0 0 512 512" xmlns="http://www.w3.org/2000/svg"><g><path d="M373.618 442.923h133.258c4.086 0 6.523-4.585 4.256-8.008l-22.225-33.569c-6.873-10.381-6.873-23.905 0-34.286l22.225-33.569c2.266-3.423-.171-8.008-4.256-8.008H405.802z" fill="#00a8ff"></path><path d="m391.233 395.382 35.14-69.91 27.937 46.358z" fill="#0094ff"></path><path d="M92.044 442.923H5.124c-4.086 0-6.523-4.585-4.256-8.008l22.225-33.569c6.873-10.381 6.873-23.905 0-34.286L.868 333.49c-2.266-3.423.171-8.008 4.256-8.008h101.5z" fill="#00a8ff"></path><path d="M85.627 325.482 57.69 371.84l58.921 33.022z" fill="#0094ff"></path><path d="M256 458.891c-99.567 0-180.282-80.715-180.282-180.282 0-99.567 80.715-180.282 180.282-180.282 99.567 0 159.678 80.715 159.678 180.282 0 99.567-60.111 180.282-159.678 180.282z" fill="#f5f0f3"></path><path d="M436.282 278.61c0 49.789-20.181 94.849-52.807 127.475-32.616 32.625-77.697 52.807-127.475 52.807-5.202 0-10.364-.216-15.453-.649 43.618-3.709 82.816-22.942 112.022-52.158 32.626-32.626 52.807-77.686 52.807-127.475s-20.181-94.849-52.807-127.475c-29.205-29.216-68.404-48.449-112.022-52.158 5.089-.433 10.25-.649 15.453-.649 49.778 0 94.859 20.181 127.475 52.807 32.625 32.626 52.807 77.686 52.807 127.475z" fill="#e4dfe3"></path><path d="M256 427.985c-82.498 0-149.376-66.878-149.376-149.376S173.502 129.233 256 129.233s149.376 66.878 149.376 149.376S338.498 427.985 256 427.985z" fill="#ffffff"></path><path d="M57.69 478.979V371.84h365.714l19.671 108.188s-22.976 9.253-28.665 9.253H67.992c-5.69 0-10.302-4.612-10.302-10.302z" fill="#64caff"></path><path d="M454.31 371.841V478.98c0 5.687-4.615 10.302-10.302 10.302h-30.905c5.687 0 10.302-4.615 10.302-10.302V371.841z" fill="#00b8ff"></path><g fill="#fff"><path d="M262.037 401.083a8.943 8.943 0 0 0-8.382-5.771h-.008a8.947 8.947 0 0 0-8.298 5.574l-20.738 54.448a7.727 7.727 0 0 0 14.441 5.5l3.252-8.54h22.544l3.215 8.518c1.502 4.033 6.068 5.999 9.957 4.501a7.727 7.727 0 0 0 4.5-9.957zm-13.849 35.758 5.438-14.279 5.389 14.279zM201.776 411.016a7.726 7.726 0 1 0 0-15.452h-22.982a7.725 7.725 0 0 0-7.726 7.726v54.543a7.726 7.726 0 0 0 7.726 7.726h22.982a7.726 7.726 0 1 0 0-15.452H186.52v-11.819h13.561a7.726 7.726 0 1 0 0-15.452H186.52v-11.819h15.256zM152.791 396.702a7.728 7.728 0 0 0-10.69 2.26l-10.974 16.857-11.103-17.005a7.728 7.728 0 0 0-12.939 8.449l16.32 24.995-.063 25.808a7.727 7.727 0 0 0 7.707 7.745h.019a7.726 7.726 0 0 0 7.726-7.708l.063-25.835 16.193-24.875a7.725 7.725 0 0 0-2.259-10.691zM342.855 417.343c0-12.148-10.246-22.032-22.841-22.032h-14.646a7.725 7.725 0 0 0-7.726 7.726v55.046a7.726 7.726 0 1 0 15.452 0v-13.341l16.234 18.446a7.726 7.726 0 0 0 11.599-10.209l-13.133-14.921c8.776-3.077 15.061-11.201 15.061-20.715zm-15.453 0c0 3.566-3.383 6.579-7.388 6.579-1.636 0-4.307.01-6.92.022v-13.181h6.92c4.005.001 7.388 3.014 7.388 6.58zM389.353 423.745c-6.609-2.438-12.773-5.09-14.813-5.981-1.032-.889-1.049-2.064-.955-2.724.116-.808.716-2.788 3.775-3.709 7.278-2.193 14.117 3.159 14.347 3.343a7.727 7.727 0 0 0 9.898-11.866c-.534-.448-13.242-10.929-28.702-6.272-7.911 2.383-13.511 8.632-14.614 16.309-1.037 7.224 2.095 14.174 8.174 18.137.341.222.699.418 1.071.584.319.142 7.917 3.525 16.471 6.68 1.723.636 7.298 2.986 6.664 6.535-.487 2.728-3.898 5.549-8.765 5.549-5.228 0-10.251-2.098-13.436-5.612a7.726 7.726 0 1 0-11.45 10.375c6.155 6.793 15.225 10.69 24.886 10.69 12.001 0 22.086-7.69 23.977-18.285 1.431-8.01-2.161-18.453-16.528-23.753z" fill="#ffffff"></path></g><path d="M220.447 343.253a7.725 7.725 0 0 1-7.726-7.726v-106.11h-16.605a7.726 7.726 0 1 1 0-15.452h24.331a7.725 7.725 0 0 1 7.726 7.726v113.835a7.726 7.726 0 0 1-7.726 7.727zM283.77 344.13c-21.969 0-39.842-17.873-39.842-39.842v-51.36c0-21.969 17.873-39.842 39.842-39.842s39.841 17.873 39.841 39.842v51.36c0 21.97-17.873 39.842-39.841 39.842zm0-115.59c-13.449 0-24.389 10.941-24.389 24.389v51.36c0 13.448 10.941 24.389 24.389 24.389s24.388-10.941 24.388-24.389v-51.36c0-13.448-10.941-24.389-24.388-24.389z" fill="#baafb8"></path><path d="m51.047 67.037-9.693 19.641a4.673 4.673 0 0 1-3.52 2.557l-21.675 3.15c-3.834.557-5.365 5.269-2.591 7.973l15.684 15.288a4.673 4.673 0 0 1 1.344 4.137l-3.703 21.587c-.655 3.819 3.353 6.73 6.782 4.928l18.201-9.569L77.222 89.9l-4.579-.665a4.675 4.675 0 0 1-3.52-2.557L59.43 67.037c-1.714-3.474-6.668-3.474-8.383 0z" fill="#ffc667"></path><path d="M81.23 115.646a4.68 4.68 0 0 0-1.349 4.141l3.698 21.582c.659 3.822-3.348 6.727-6.779 4.924l-19.388-10.189a4.696 4.696 0 0 0-4.347 0l-1.185.628-2.905-16.946a4.679 4.679 0 0 1 1.349-4.141l26.898-25.744 17.101 2.483c3.832.556 5.357 5.264 2.586 7.974z" fill="#fab75f"></path><path d="m460.953 67.037 9.693 19.641a4.673 4.673 0 0 0 3.52 2.557l4.508.655-25.273 46.839-18.202 9.569c-3.429 1.803-7.437-1.109-6.782-4.928l3.703-21.587a4.675 4.675 0 0 0-1.344-4.137l-15.684-15.288c-2.774-2.704-1.243-7.416 2.591-7.973l21.675-3.15a4.675 4.675 0 0 0 3.52-2.557l9.693-19.641c1.713-3.474 6.667-3.474 8.382 0z" fill="#ffc667"></path><path d="M482.743 115.646a4.673 4.673 0 0 0-1.339 4.141l3.698 21.582c.659 3.822-3.348 6.727-6.779 4.924l-19.388-10.189a4.696 4.696 0 0 0-4.347 0l-1.185.628-2.905-16.946a4.672 4.672 0 0 1 1.339-4.141l26.836-25.755 17.163 2.493c3.843.556 5.367 5.264 2.596 7.974z" fill="#fab75f"></path><path d="M283.576 65.294a8.221 8.221 0 0 0 3.076 1.102l10.369 1.507 17.188 6.901-39.409 82.008-14.97-7.87a8.232 8.232 0 0 0-7.662 0l-34.142 17.95c-6.039 3.175-13.098-1.953-11.944-8.678l6.521-38.018a8.232 8.232 0 0 0-2.368-7.287l-27.622-26.925c-4.886-4.763-2.19-13.06 4.562-14.042l38.172-5.547a8.234 8.234 0 0 0 6.198-4.503l10.275-20.819c.001.001 34.928 21.428 41.756 24.221z" fill="#fee45a"></path><path d="M301.761 112.905a8.23 8.23 0 0 0-2.359 7.294l6.521 38.014c1.144 6.727-5.913 11.857-11.95 8.684l-19.172-10.086a8.128 8.128 0 0 0 .216-3.75l-6.521-38.014a8.23 8.23 0 0 1 2.359-7.294l27.63-26.919c4.049-3.946 2.885-10.312-1.463-12.939l27.805 4.049c6.747.979 9.447 9.272 4.564 14.041zM283.578 65.29l-27.836-4.049a8.194 8.194 0 0 1-6.191-4.502l-7.737-15.669 6.799-13.763c3.029-6.119 11.744-6.119 14.773 0l17.07 34.583a8.1 8.1 0 0 0 3.122 3.4z" fill="#fed402"></path></g></svg>