<svg viewBox="0 0 64 64" xmlns="http://www.w3.org/2000/svg"><g><g><path d="M57 18H35l-2 18h26z" fill="#c67a60"></path><path d="M18 1v8l-2.956 19.216A8 8 0 0 1 7.137 35H5L9.834 7.61A8 8 0 0 1 17.712 1z" fill="#b26049"></path><path d="M21 7h-6V4a3 3 0 0 1 3-3 3 3 0 0 1 3 3v3zM35 47.034V63H1V47.034a8 8 0 0 1 5.8-7.692L15 37h6l8.2 2.342a8 8 0 0 1 5.8 7.692z" fill="#fcab68"></path><path d="M9.8 39.342 18 37h-3l-8.2 2.342A8 8 0 0 0 1 47.034V63h3V47.034a8 8 0 0 1 5.8-7.692z" fill="#ea8e49"></path><g fill="#f7d1c6"><path d="M1 53.012h6V63H1zM18 39a3 3 0 0 1-3-3v-4h6v4a3 3 0 0 1-3 3z" fill="#f7d1c6"></path><path d="M18 34a9 9 0 0 1-9-9V14h18v11a9 9 0 0 1-9 9z" fill="#f7d1c6"></path></g><path d="M1 53.012h3V63H1z" fill="#f4b19f"></path><path d="M27 24v-6a3 3 0 0 1 3 3 3 3 0 0 1-3 3z" fill="#f7d1c6"></path><path d="M12 25V14H9v11a8.951 8.951 0 0 0 10.5 8.865A8.995 8.995 0 0 1 12 25z" fill="#f4b19f"></path><path d="M9 18v6a3 3 0 0 1-3-3 3 3 0 0 1 3-3z" fill="#f4b19f"></path><path d="M18 5h.175a10.616 10.616 0 0 1 10.5 8.861c.112.678.194 1.345.248 1.987a2 2 0 0 1-2 2.152h-6.451A7.237 7.237 0 0 1 14 14l-.692 1.383A4.733 4.733 0 0 1 9.075 18a2 2 0 0 1-2-2.17c.049-.572.119-1.162.214-1.763A10.813 10.813 0 0 1 18 5z" fill="#c67a60"></path><path d="M63 49.034V63H29V49.034a8 8 0 0 1 5.8-7.692L43 39h6l8.2 2.342a8 8 0 0 1 5.8 7.692z" fill="#f96464"></path><path d="M37.8 41.342 46 39h-3l-8.2 2.342a8 8 0 0 0-5.8 7.692V63h3V49.034a8 8 0 0 1 5.8-7.692z" fill="#d34444"></path><path d="M57 55.012h6V63h-6zM29 55.012h6V63h-6z" fill="#f7d1c6"></path><path d="M29 55.012h3V63h-3zM57 55.012h3V63h-3z" fill="#f4b19f"></path><path d="M43 34h6v4a3 3 0 0 1-3 3 3 3 0 0 1-3-3v-4z" fill="#f7d1c6"></path><path d="M37 16h18v11a9 9 0 0 1-9 9 9 9 0 0 1-9-9V16z" fill="#f7d1c6"></path><path d="M40 27V16h-3v11a8.951 8.951 0 0 0 10.5 8.865A8.995 8.995 0 0 1 40 27z" fill="#f4b19f"></path><path d="M37 20v6a3 3 0 0 1-3-3 3 3 0 0 1 3-3z" fill="#f4b19f"></path><path d="M55 26v-6a3 3 0 0 1 3 3 3 3 0 0 1-3 3z" fill="#f7d1c6"></path><path d="M47 7h-2a11 11 0 0 0-11 11v2h11.528a4 4 0 0 0 3.578-2.211L50 16l.894 1.789A4 4 0 0 0 54.472 20H58v-2A11 11 0 0 0 47 7z" fill="#c67a60"></path><path d="M47.5 7.025C47.333 7.018 47.169 7 47 7h-2a11 11 0 0 0-11 11v2h3v-2A10.992 10.992 0 0 1 47.5 7.025zM10.077 15.83c.049-.572.119-1.162.214-1.763A10.788 10.788 0 0 1 19.583 5.1a10.726 10.726 0 0 0-1.408-.1H18a10.813 10.813 0 0 0-10.709 9.067c-.1.6-.165 1.191-.214 1.763a2 2 0 0 0 2 2.17 4.725 4.725 0 0 0 1.832-.375 2 2 0 0 1-.832-1.795z" fill="#b26049"></path><path d="m37.569 13.494 1.88-.684a2 2 0 0 1 2.564 1.196 2 2 0 0 1-1.196 2.564l-1.88.684-1.368-3.76z" fill="#f96464"></path><path d="m43.208 11.441 1.88-.684 1.368 3.76-1.88.684a2 2 0 0 1-2.564-1.196 2 2 0 0 1 1.196-2.564z" fill="#f96464"></path><path d="M43 24a1 1 0 0 0-2 0v1a1 1 0 0 0 2 0zM50 26a1 1 0 0 0 1-1v-1a1 1 0 0 0-2 0v1a1 1 0 0 0 1 1z" fill="#c67a60"></path><path d="M48.707 31.707a1 1 0 0 0-1.414-1.414 1.537 1.537 0 0 1-2.586 0 1 1 0 0 0-1.414 1.414 3.485 3.485 0 0 0 5.414 0z" fill="#f96464"></path><path d="M22 24a1 1 0 0 0 1-1v-1a1 1 0 0 0-2 0v1a1 1 0 0 0 1 1zM15 22a1 1 0 0 0-2 0v1a1 1 0 0 0 2 0z" fill="#c67a60"></path><path d="M20.707 29.707a1 1 0 0 0-1.414-1.414 1.537 1.537 0 0 1-2.586 0 1 1 0 0 0-1.414 1.414A3.86 3.86 0 0 0 18 31a3.86 3.86 0 0 0 2.707-1.293z" fill="#f96464"></path></g></g></svg>