<svg viewBox="0 0 512 512.002" xmlns="http://www.w3.org/2000/svg"><g><path d="M215.785 348.965c-103.722 183.527-1.98 3.5-89.37 158.101-3.946 6.985-14.185 6.446-17.384-.91l-25.187-57.93a9.729 9.729 0 0 0-10.196-5.757l-62.62 8.277c-7.958 1.059-13.696-7.437-9.75-14.422 58.011-102.617 28.98-51.258 89.37-158.094l62.57 35.372zM458.879 450.746l-62.621-8.277a9.732 9.732 0 0 0-10.196 5.758l-25.183 57.93c-3.203 7.355-13.442 7.894-17.387.91l-46.148-81.622-13.985-24.75-29.238-51.73 62.566-35.363 62.57-35.372 89.372 158.094c3.945 6.985-1.793 15.48-9.75 14.422zm0 0" fill="#169b62"></path><path d="m153.219 313.602 62.566 35.363c-1.191 2.105 3.75-6.637-43.265 76.555-35.235 1.343-69.977-26.536-67.84-68.27.722-13.582-10.465-25.3-24.578-24.574-6.68.32-13.125-.332-19.196-1.824 40.903-72.356 26.621-47.094 29.742-52.622zM409.012 330.871c-6.114 1.504-12.567 2.145-19.207 1.805-13.75-.727-25.282 10.617-24.575 24.574.891 18.121-5.304 35.094-17.449 47.848-13.336 14.007-31.93 21.156-50.437 20.347l-13.985-24.754-29.238-51.73 62.567-35.36 62.57-35.37c3.113 5.511-11.145-19.715 29.754 52.64zm0 0" fill="#127d4f"></path><path d="M390.863 311.977c-25.879-1.375-47.664 20.035-46.328 46.328 2.047 41.734-49.133 62.496-76.82 31.824-8.766-9.703-20.766-14.563-32.762-14.563-11.992 0-23.996 4.86-32.758 14.563-27.82 30.816-78.941 9.648-76.82-31.824 1.379-25.875-20.031-47.664-46.328-46.328-41.73 2.046-62.496-49.13-31.824-76.82 19.422-17.532 19.41-47.993 0-65.516-30.828-27.84-9.637-78.953 31.824-76.825 25.879 1.375 47.664-20.03 46.328-46.328-2.04-41.625 49.059-62.57 76.82-31.82 17.535 19.418 47.992 19.41 65.52 0 27.84-30.828 78.95-9.64 76.82 31.82-1.375 25.88 20.031 47.664 46.328 46.328 41.73-2.043 62.496 49.133 31.824 76.825-19.421 17.53-19.414 47.992 0 65.515 30.829 27.84 9.637 78.953-31.824 76.82zm0 0" fill="#1ed688"></path><path d="M390.863 311.977c-25.879-1.375-47.664 20.035-46.328 46.328 2.047 41.734-49.133 62.496-76.82 31.824-8.766-9.703-20.766-14.563-32.762-14.563-11.992 0-23.996 4.86-32.758 14.563-4.797 5.316-10.289 9.082-16.078 11.46-16.308-6.464-28.91-22.265-27.836-43.284 1.375-25.875-20.031-47.664-46.328-46.328-41.73 2.046-62.496-49.13-31.824-76.82 9.707-8.762 14.555-20.766 14.555-32.759 0-11.996-4.848-23.996-14.555-32.757-30.828-27.84-9.637-78.954 31.824-76.825 25.879 1.375 47.664-20.03 46.328-46.328-.836-15.156 6.477-33.14 14.184-46.406 10.633.637 21.258 5.2 29.73 14.586 17.535 19.418 47.992 19.41 65.52 0 27.84-30.828 78.95-9.64 76.82 31.82-1.375 25.88 20.031 47.664 46.328 46.328 41.73-2.043 62.496 49.133 31.824 76.825-19.421 17.53-19.414 47.992 0 65.515 30.829 27.84 9.637 78.953-31.824 76.82zm0 0" fill="#35e298"></path><path d="M376.66 202.398c0 70.602-51.64 129.157-119.21 139.926a141.872 141.872 0 0 1-22.497 1.781c-78.254 0-141.707-63.449-141.707-141.707 0-78.257 63.453-141.707 141.707-141.707 7.656 0 15.172.61 22.496 1.782 67.57 10.77 119.211 69.324 119.211 139.925zm0 0" fill="#169b62"></path><path d="M376.66 202.398c0 70.602-51.64 129.157-119.21 139.926-67.575-10.77-119.212-69.32-119.212-139.926 0-70.601 51.637-129.156 119.211-139.925 67.57 10.77 119.211 69.324 119.211 139.925zm0 0" fill="#1ab975"></path><path d="M329.477 202.746v50.934c0 21.902-17.918 39.82-39.82 39.82h-78.473c-10.313 0-18.75-8.438-18.75-18.75v-86.32c0-10.313 8.437-18.75 18.75-18.75h17.09a5.528 5.528 0 0 0 4.269-2.016l40.227-48.555c6.902-8.39 19.175-10.402 28.078-4.18 9.96 6.958 11.722 20.907 4.148 30.11L292.09 160.7c-2.895 3.617-.317 8.98 4.316 8.98 18.266 0 33.07 14.805 33.07 33.067zm0 0" fill="#ffd993"></path><path d="M140.434 277.457v-94.32c0-6.5 5.27-11.766 11.765-11.766h26.313c7.66 0 13.922 6.266 13.922 13.922v90.008c0 7.66-6.266 13.922-13.922 13.922h-26.313c-6.496 0-11.765-5.27-11.765-11.766zm0 0" fill="#ffa90b"></path></g></svg>