<svg viewBox="0 0 512 512" xmlns="http://www.w3.org/2000/svg"><g><path d="M256.52 143.878H152.98c-4.204 0-7.612-3.407-7.612-7.612s3.407-7.612 7.612-7.612h103.54c4.204 0 7.612 3.407 7.612 7.612s-3.408 7.612-7.612 7.612zm-154.259 0H7.612c-4.204 0-7.612-3.407-7.612-7.612s3.407-7.612 7.612-7.612h94.649c4.204 0 7.612 3.407 7.612 7.612s-3.408 7.612-7.612 7.612zM109.597 197.158H38.049a7.611 7.611 0 0 1-7.612-7.612 7.611 7.611 0 0 1 7.612-7.612h71.548a7.612 7.612 0 1 1 0 15.224zM61.15 303.692H7.612c-4.204 0-7.612-3.407-7.612-7.612s3.407-7.612 7.612-7.612H61.15c4.204 0 7.612 3.407 7.612 7.612s-3.408 7.612-7.612 7.612zM119.982 356.973H32.209a7.611 7.611 0 0 1-7.612-7.612 7.611 7.611 0 0 1 7.612-7.612h87.773a7.611 7.611 0 0 1 7.612 7.612 7.611 7.611 0 0 1-7.612 7.612zM91.587 410.254H54.303a7.611 7.611 0 0 1-7.612-7.612 7.611 7.611 0 0 1 7.612-7.612h37.284a7.612 7.612 0 1 1 0 15.224zM211.676 463.535H99.211a7.611 7.611 0 0 1-7.612-7.612 7.611 7.611 0 0 1 7.612-7.612h112.465a7.611 7.611 0 0 1 7.612 7.612 7.611 7.611 0 0 1-7.612 7.612zM129.274 250.439H70.126c-4.204 0-7.612-3.407-7.612-7.612s3.407-7.612 7.612-7.612h59.148c4.204 0 7.612 3.407 7.612 7.612s-3.408 7.612-7.612 7.612z" fill="#d9eeff"></path><path clip-rule="evenodd" d="m359.798 53.122-24.166 68.759c12.486 1.554 25 4.344 37.399 8.429s24.137 9.293 35.098 15.449L432.295 77z" fill="#eff6ff" fill-rule="evenodd"></path><path clip-rule="evenodd" d="m339.545 16.355-8.947 27.158c-1.927 5.869 1.266 12.256 7.135 14.183l17.204 5.639 72.468 23.879 17.175 5.668c5.869 1.928 12.255-1.295 14.183-7.164l8.947-27.158c1.927-5.869-1.295-12.256-7.163-14.183L353.728 9.191c-5.869-1.928-12.256 1.295-14.183 7.164z" fill="#375e7d" fill-rule="evenodd"></path><path clip-rule="evenodd" d="M444.579 92.881c5.869 1.928 12.255-1.295 14.183-7.164l8.947-27.158c1.927-5.869-1.295-12.256-7.163-14.183l-26.467-8.717c5.869 1.928 9.091 8.314 7.163 14.183L432.295 77c-1.927 5.869-8.314 9.091-14.183 7.164h.058l9.235 3.05z" fill="#2b4d66" fill-rule="evenodd"></path><path clip-rule="evenodd" d="M253.44 493.439c103.308 34.006 214.614-22.152 248.619-125.435 29.948-90.883-9.954-187.98-90.334-233.176-10.961-6.157-22.698-11.364-35.098-15.449s-24.914-6.876-37.399-8.429c-43.585-5.437-86.766 4.056-123.303 25.317-40.132 23.361-72.238 60.962-87.888 108.547C94.004 348.095 150.16 459.433 253.44 493.439z" fill="#375e7d" fill-rule="evenodd"></path><path clip-rule="evenodd" d="M363.049 160.662c-80.495-26.525-167.232 17.262-193.757 97.759-26.496 80.497 17.261 167.237 97.756 193.734 80.495 26.525 167.232-17.233 193.757-97.73l.086-.288c26.323-80.411-17.434-167.007-97.842-193.475z" fill="#eff6ff" fill-rule="evenodd"></path><path clip-rule="evenodd" d="M363.049 160.662 323.06 282.069c-4.632 14.04 4.287 27.273 16.139 31.992l121.692 40.076c26.323-80.411-17.434-167.007-97.842-193.475z" fill="#eb5468" fill-rule="evenodd"></path><path clip-rule="evenodd" d="M460.891 354.137c23.073-70.485-7.71-145.717-69.793-181.046 10.903 32.538 16.916 68.327 16.916 105.9 0 19.276-1.582 38.091-4.603 56.216z" fill="#e5384f" fill-rule="evenodd"></path><path clip-rule="evenodd" d="M502.059 368.004c29.948-90.883-9.954-187.98-90.334-233.176-8.055-4.546-16.542-8.545-25.403-11.968a214.487 214.487 0 0 0-9.695-3.481 189.888 189.888 0 0 0-11.594-3.424c10.414 17.492 19.217 36.681 26.064 57.136 62.083 35.329 92.865 110.561 69.793 181.046a3.24 3.24 0 0 0-.086.288c-16.484 50.001-56.185 85.819-103.193 99.427-12.629 18.93-27.244 35.617-43.469 49.512 83.055.403 160.529-52.188 187.917-135.36z" fill="#2b4d66" fill-rule="evenodd"></path><path clip-rule="evenodd" d="M357.611 453.852c47.008-13.608 86.709-49.426 103.193-99.427l.086-.288-57.48-18.93c-5.351 32.193-15.19 62.257-28.654 89.099-5.206 10.357-10.931 20.225-17.145 29.546zM411.725 134.827l15.679-47.613-9.292-3.05-17.175-5.668-14.615 44.363c8.861 3.424 17.348 7.423 25.403 11.968z" fill="#d9eeff" fill-rule="evenodd"></path><path d="M267.221 459.25a7.595 7.595 0 0 1-2.383-.385 7.61 7.61 0 0 1-4.847-9.611l8.199-24.886a7.606 7.606 0 0 1 9.611-4.847 7.61 7.61 0 0 1 4.847 9.611l-8.199 24.886a7.613 7.613 0 0 1-7.228 5.232zM194.523 274.033c-.79 0-1.594-.124-2.386-.386l-24.856-8.2a7.61 7.61 0 0 1-4.843-9.613 7.605 7.605 0 0 1 9.613-4.843l24.856 8.2a7.61 7.61 0 0 1 4.843 9.613 7.615 7.615 0 0 1-7.227 5.229zM257.963 200.382a7.613 7.613 0 0 1-6.799-4.179l-11.825-23.39a7.612 7.612 0 0 1 13.586-6.868l11.825 23.39a7.612 7.612 0 0 1-6.787 11.047zM384.142 450.504a7.61 7.61 0 0 1-6.802-4.186l-11.795-23.39a7.61 7.61 0 0 1 3.369-10.223 7.61 7.61 0 0 1 10.223 3.369l11.795 23.39a7.61 7.61 0 0 1-3.369 10.223 7.583 7.583 0 0 1-3.421.817zM178.388 382.753a7.61 7.61 0 0 1-6.802-4.186 7.61 7.61 0 0 1 3.369-10.223l23.39-11.796a7.607 7.607 0 0 1 10.223 3.369 7.61 7.61 0 0 1-3.369 10.223l-23.39 11.796a7.58 7.58 0 0 1-3.421.817zM294.375 297.363a7.586 7.586 0 0 1-5.126-1.986l-55.265-50.376a7.612 7.612 0 0 1 10.255-11.251l55.265 50.376a7.612 7.612 0 0 1-5.129 13.237zM321.611 367.734a7.612 7.612 0 0 1-7.55-6.729l-3.337-28.568a7.611 7.611 0 0 1 6.677-8.443c4.16-.481 7.955 2.5 8.443 6.677l3.337 28.568a7.611 7.611 0 0 1-7.57 8.495z" fill="#375e7d"></path><path d="M315.23 467.556c-16.958 0-33.99-2.711-50.565-8.172-84.342-27.763-130.371-118.982-102.603-203.341 13.466-40.868 42.034-74.048 80.44-93.429 38.413-19.384 82.07-22.643 122.929-9.179 84.176 27.709 130.242 118.751 102.724 202.98l-.059.199-.061.195c-13.465 40.863-42.033 74.038-80.441 93.412-22.831 11.513-47.517 17.335-72.364 17.335zm-.331-307.062c-22.506 0-44.859 5.274-65.538 15.709-34.778 17.55-60.646 47.595-72.84 84.6-25.143 76.385 16.534 158.982 92.906 184.121 37.001 12.193 76.531 9.246 111.31-8.297 34.748-17.528 60.602-47.53 72.808-84.49l.056-.187.056-.18c24.974-76.292-16.74-158.778-92.988-183.878l-.003-.001c-15-4.943-30.419-7.397-45.767-7.397zm145.906 193.93h.01z" fill="#ffc250"></path><path clip-rule="evenodd" d="M323.06 282.069c-13.291-4.373-27.618 2.848-31.991 16.14-4.373 13.291 2.848 27.619 16.139 31.992s27.618-2.848 31.991-16.14c4.373-13.291-2.848-27.619-16.139-31.992z" fill="#ffe07d" fill-rule="evenodd"></path><path clip-rule="evenodd" d="M339.199 314.061c4.373-13.291-2.848-27.619-16.139-31.992a25.356 25.356 0 0 0-20.109 1.841c12.284 4.948 18.786 18.671 14.586 31.445a25.388 25.388 0 0 1-11.881 14.298c.518.201 1.036.374 1.553.547 13.291 4.374 27.618-2.847 31.99-16.139z" fill="#ffe07d" fill-rule="evenodd"></path></g></svg>