<svg viewBox="0 0 64 64" xmlns="http://www.w3.org/2000/svg"><g><path d="m52 32-1.657 1.657A8 8 0 0 0 48 39.314V60h12V12H44v2.55c0 3.554 1.052 7.028 3.023 9.985z" fill="#fa6450"></path><path d="m52 32-1.657 1.657A8 8 0 0 0 48 39.314V60h4V39.314a8 8 0 0 1 2.343-5.657L56 32l-4.977-7.465A18.002 18.002 0 0 1 48 14.55V12h-4v2.55c0 3.554 1.052 7.028 3.023 9.985z" fill="#dc4632"></path><path d="M16 60V39.314a8 8 0 0 0-2.343-5.657L12 32l4.977-7.465A18.002 18.002 0 0 0 20 14.55V12H4v48z" fill="#fa6450"></path><path d="M4 12h4v48H4z" fill="#dc4632"></path><path d="M4 30h10a2 2 0 1 1 0 4H4z" fill="#fab400"></path><path d="M4 30h4v4H4z" fill="#dc9600"></path><path d="M60 30H50a2 2 0 1 0 0 4h10z" fill="#fab400"></path><path d="M52 32a2 2 0 0 1 2-2h-4a2 2 0 1 0 0 4h4a2 2 0 0 1-2-2z" fill="#dc9600"></path><path d="M4 4h56v8H4z" fill="#f0f0f0"></path><path d="M4 4h4v8H4z" fill="#d2d2d2"></path><path d="M25.5 12h1v4h-1z" fill="#fab400"></path><path d="M28 18h-4v-2a2 2 0 1 1 4 0z" fill="#505050"></path><path d="M24 18h4v2h-4z" fill="#fab400"></path><path d="M27 14.277A1.987 1.987 0 0 0 26 14a2 2 0 0 0-2 2v2h2v-2c0-.738.405-1.376 1-1.723z" fill="#3c3c3c"></path><path d="M24 18h2v2h-2z" fill="#dc9600"></path><path d="M37.5 12h1v4h-1z" fill="#fab400"></path><path d="M40 18h-4v-2a2 2 0 1 1 4 0z" fill="#505050"></path><path d="M39 14.277A1.987 1.987 0 0 0 38 14a2 2 0 0 0-2 2v2h2v-2c0-.738.405-1.376 1-1.723z" fill="#3c3c3c"></path><path d="M36 18h4v2h-4z" fill="#fab400"></path><path d="M36 18h2v2h-2z" fill="#dc9600"></path><path d="M38.934 37.009H30.82a2.713 2.713 0 0 0-2.705 2.705v8.114h6.762v-8.114h2.757c.822 0 1.599-.374 2.112-1.015l3.186-3.983-1.023-.682z" fill="#fa6450"></path><path d="M32.218 37.009a3.381 3.381 0 1 1 0-6.763 3.381 3.381 0 0 1 0 6.763z" fill="#f0c8a0"></path><path d="M28.837 33.628a3.381 3.381 0 0 1 6.762 0z" fill="#fab400"></path><path d="M31.541 33.628a3.38 3.38 0 0 1 2.029-3.096 3.372 3.372 0 0 0-1.352-.285 3.381 3.381 0 0 0 0 6.762c.482 0 .938-.104 1.352-.285a3.38 3.38 0 0 1-2.029-3.096z" fill="#d2aa82"></path><path d="M31.541 33.628a3.38 3.38 0 0 1 2.029-3.096 3.372 3.372 0 0 0-1.352-.285 3.381 3.381 0 0 0-3.381 3.381z" fill="#dc9600"></path><path d="M28.114 39.103v8.726h1.352V37.151a2.09 2.09 0 0 0-1.352 1.952z" fill="#dc4632"></path><path d="m28.114 48.646-2.075 5.41-5.496 3.692a1.23 1.23 0 0 0 1.265 2.105l7.584-4.043a2.704 2.704 0 0 0 1.071-1.126l3.06-6.039h-5.409z" fill="#505050"></path><path d="M21.352 58.768c0-.41.204-.793.544-1.021l5.496-3.692 2.075-5.41h-1.352l-2.075 5.41-5.496 3.692a1.23 1.23 0 0 0 1.264 2.106l.107-.057a1.213 1.213 0 0 1-.563-1.028z" fill="#3c3c3c"></path><path d="M28.114 47.828v.755c0 1.164.745 2.198 1.849 2.566l6.265 2.088-1.984 4.959a1.316 1.316 0 0 0 2.363 1.142l3.489-6.105a2.704 2.704 0 0 0-1.344-3.853l-3.876-1.55h-6.762z" fill="#505050"></path><path d="m35.563 57.667 1.984-4.959-6.265-2.088a2.705 2.705 0 0 1-1.849-2.566v-.225h-1.317v.755c0 1.164.745 2.198 1.849 2.566l6.265 2.088-1.984 4.959A1.314 1.314 0 0 0 35.466 60c.429 0 .82-.216 1.065-.562a1.31 1.31 0 0 1-.968-1.771z" fill="#3c3c3c"></path><path d="m41.909 34.034-.812-.541-3.516 3.516h1.353z" fill="#dc4632"></path><path d="M43.704 32.313a1 1 0 0 0-.736-.291c.25-.003.501.086.698.267-.011.01-.026.014-.037.025l-1.721 1.721 1.023.682.847-1.059a1.01 1.01 0 0 0-.074-1.345z" fill="#f0c8a0"></path><path d="M43.63 32.313c.011-.011.026-.014.037-.025a1.02 1.02 0 0 0-.698-.267c-.021 0-.04.01-.061.012a1.022 1.022 0 0 0-.304.062 1.01 1.01 0 0 0-.327.217l-1.18 1.18.811.541z" fill="#d2aa82"></path><path d="m31.931 44.096-.911-.39-1.06 2.12 1.038.445a1.182 1.182 0 1 0 .933-2.175z" fill="#f0c8a0"></path><path d="m26.808 41.9 4.143-2.841-.131-2.05h-.465c-.577 0-1.138.184-1.602.526l-3.282 2.414a2.373 2.373 0 0 0-.815 2.941c.249.556.73.976 1.29 1.216l4.015 1.721 1.06-2.12z" fill="#fa6450"></path><path d="M27.573 44.105c-.56-.24-1.041-.66-1.29-1.216a2.373 2.373 0 0 1 .815-2.941l3.722-2.939h-.465a2.7 2.7 0 0 0-1.602.526l-3.282 2.414a2.373 2.373 0 0 0-.815 2.941c.249.556.73.976 1.29 1.216l4.015 1.721.287-.575z" fill="#dc4632"></path><path d="m31.115 45.624-.868-.372-.287.574 1.038.445c.152.065.31.096.466.096.275 0 .535-.106.746-.28-.019-.007-.038-.01-.057-.018z" fill="#d2aa82"></path></g></svg>