<svg viewBox="0 0 64 64" xmlns="http://www.w3.org/2000/svg"><g><path d="M6 62a4 4 0 0 0 4-4V2h44v54a6 6 0 0 1-6 6z" fill="#c1c8d1"></path><path d="M10 52.856A22.127 22.127 0 0 0 17 54c14.912 0 27-14.998 27-33.5 0-6.84-1.656-13.198-4.492-18.5H10z" fill="#f3f4f6"></path><path d="M10 8H2v50a4 4 0 0 0 8 0z" fill="#c1c8d1"></path><path d="M14 6h36v16H14z" fill="#96cc7f"></path><path d="M44 45v8a3 3 0 1 1-6 0v-8zM46 31l10-7v28l-10-7z" fill="#ebf7fe"></path><path d="m52 49.2 4 2.8V24l-4 2.8zM46 45h-7a5 5 0 0 1-5-5v-4a5 5 0 0 1 5-5h7z" fill="#e0747c"></path><path d="M14 26h16v18H14z" fill="#c1c8d1"></path><path d="M22 14.513 18.848 9.47A1.001 1.001 0 0 0 17 10v9h2v-5.513l3.152 5.043A1 1 0 0 0 24 18V9h-2zM26 10v8a1 1 0 0 0 1 1h4v-2h-3v-2h3v-2h-3v-2h3V9h-4a1 1 0 0 0-1 1zM37 12.808l-.071-.179a1.002 1.002 0 0 0-1.858-.001l-.071.18V9h-2v9a1 1 0 0 0 1.929.372L36 15.692l1.071 2.679a1.002 1.002 0 0 0 1.118.611A1 1 0 0 0 39 18V9h-2zM44 11h3V9h-3c-1.654 0-3 1.346-3 3s1.346 3 3 3c.551 0 1 .449 1 1s-.449 1-1 1h-3v2h3c1.654 0 3-1.346 3-3s-1.346-3-3-3c-.551 0-1-.449-1-1s.449-1 1-1z" fill="#ffffff"></path><path d="M59 35h4v2h-4zM58.283 31.296l3-3 1.414 1.414-3 3zM58.282 40.71l1.414-1.415 3 3-1.414 1.414zM13 47h22v2H13zM13 51h22v2H13zM13 55h22v2H13z" fill="#606060"></path></g></svg>