<svg viewBox="0 0 512 512" xmlns="http://www.w3.org/2000/svg"><g><path d="M389.295 438.569s-52.364 17.863-133.13 17.863-133.141-17.863-133.141-17.863c34.727-88.822 17.019-216.565 17.019-216.565l116.122-9.127 116.112 9.127s-17.699 127.742 17.018 216.565z" fill="#b16e3d"></path><path d="M345.749 390.439c-5.872 28.248-25.322 75.492-89.749 75.492s-83.877-47.244-89.749-75.492l46.204-13.217a20.778 20.778 0 0 0 10.868-7.448 20.777 20.777 0 0 0 4.213-12.558v-29.278h56.928v29.278c0 4.656 1.545 9.035 4.213 12.558a20.782 20.782 0 0 0 10.868 7.448z" fill="#ffddce"></path><path d="M299.546 377.221a20.778 20.778 0 0 1-10.868-7.448 20.777 20.777 0 0 1-4.213-12.558v-29.278H253.56v29.278c0 4.656 1.545 9.035 4.213 12.558a20.782 20.782 0 0 0 10.868 7.448l46.204 13.217c-5.373 25.849-22.124 67.597-74.297 74.503 4.842.641 9.981.989 15.453.989 64.427 0 83.877-47.244 89.749-75.492z" fill="#ffddce"></path><path d="M407.81 453.29v15.64c0 23.79-19.29 43.07-43.08 43.07H115.58c-6.29 0-11.39-5.1-11.39-11.39v-47.32c0-28.02 18.19-52.79 44.91-61.18l60.87-19.12c2.24-.7 4.64.63 5.17 2.93 2.78 12.04 12.99 36.47 40.86 36.47s38.08-24.43 40.86-36.47c.53-2.3 2.93-3.63 5.17-2.93l60.87 19.12c26.72 8.39 44.91 33.16 44.91 61.18z" fill="#dd4fb1"></path><path d="M262.807 470.855h-13.614c-7.965 0-14.423-6.457-14.423-14.423 0-7.965 6.457-14.423 14.423-14.423h13.614c7.965 0 14.423 6.457 14.423 14.423-.001 7.965-6.458 14.423-14.423 14.423z" fill="#fff3bf"></path><path d="m362.897 392.108-60.862-19.116c-2.246-.705-4.642.631-5.172 2.925a58.893 58.893 0 0 1-2.358 7.68l18.761 8.511c39.987 19.106 63.635 76.819 63.635 76.819 0 23.789-19.284 43.073-43.073 43.073h30.905c23.789 0 43.073-19.284 43.073-43.073v-15.639c.001-28.014-18.183-52.785-44.909-61.18z" fill="#da2ea2"></path><g fill="#ffddce"><path d="M159.973 212.88c0 25.281-15.46 45.775-34.531 45.775s-30.15-23.536-30.15-48.817 11.079-42.733 30.15-42.733 34.531 20.494 34.531 45.775zM352.027 212.88c0 25.281 15.46 45.775 34.531 45.775s30.15-23.536 30.15-48.817-11.079-42.733-30.15-42.733-34.531 20.494-34.531 45.775z" fill="#ffddce"></path></g><path d="M361.45 163.12v75.42c0 60.48-58.17 109.74-108.69 111.6-50.49-1.89-108.21-50.95-108.21-111.18v-75.84c0-60.55 48.29-109.82 108.45-111.41 29.59.78 56.3 13.09 75.81 32.6 20.17 20.17 32.64 48.03 32.64 78.81z" fill="#ffece4"></path><path d="M256 51.672c-5.244 0-10.401.371-15.453 1.071 54.238 7.524 96 54.072 96 110.381v75.419c0 55.55-49.07 101.618-96.218 110.215 5.196.947 10.373 1.447 15.462 1.447 51.185 0 111.662-49.993 111.662-111.662v-75.419c-.001-61.553-49.9-111.452-111.453-111.452z" fill="#ffddce"></path><path d="M173.49 477.81 171.51 512h-15.03l2.03-35.06a7.49 7.49 0 0 1 7.92-7.05c4.14.23 7.29 3.78 7.06 7.92z" fill="#ce2995"></path><path d="M241.811 250.471a7.5 7.5 0 0 0 5.362 9.151c3.341.872 6.084 1.309 8.827 1.309s5.486-.437 8.827-1.309a7.5 7.5 0 0 0-3.789-14.513c-4.191 1.094-5.885 1.094-10.076 0a7.496 7.496 0 0 0-9.151 5.362z" fill="#e7afaf"></path><g fill="#b16e3d"><path d="M220.454 218.941v-6.982c0-4.143-3.357-7.5-7.5-7.5s-7.5 3.357-7.5 7.5v6.982c0 4.143 3.357 7.5 7.5 7.5s7.5-3.357 7.5-7.5zM302.746 218.941v-6.982c0-4.143-3.357-7.5-7.5-7.5s-7.5 3.357-7.5 7.5v6.982c0 4.143 3.357 7.5 7.5 7.5s7.5-3.357 7.5-7.5zM241.812 163.908a7.499 7.499 0 0 0-10.601-.347c-13.375 12.527-29.549 11.025-30.188 10.957-4.112-.464-7.834 2.479-8.308 6.595a7.5 7.5 0 0 0 6.595 8.308c.217.024 1.556.167 3.714.167 7.326 0 24.093-1.641 38.44-15.079a7.497 7.497 0 0 0 .348-10.601zM319.593 181.16c-.446-4.1-4.139-7.063-8.245-6.646-.683.07-16.858 1.571-30.231-10.952-3.024-2.833-7.769-2.676-10.601.347s-2.677 7.77.347 10.601c14.349 13.439 31.115 15.079 38.44 15.079 2.157 0 3.497-.143 3.714-.167 4.097-.472 7.022-4.161 6.576-8.262z" fill="#b16e3d"></path></g><path d="m298.974 282.675-8.125-2.595a15.374 15.374 0 0 0-13.323 1.981l-5.053 3.489a.271.271 0 0 1-.272.021l-9.547-4.621a15.185 15.185 0 0 0-13.307 0l-9.546 4.621a.27.27 0 0 1-.272-.021l-5.054-3.488a15.368 15.368 0 0 0-13.323-1.982l-8.125 2.595a7.5 7.5 0 0 0 4.563 14.289l8.125-2.595a.272.272 0 0 1 .237.036l5.055 3.489a15.299 15.299 0 0 0 15.329 1.18l9.547-4.621a.265.265 0 0 1 .236 0l9.548 4.621a15.24 15.24 0 0 0 6.646 1.521c3.053 0 6.092-.911 8.684-2.7l5.054-3.49a.273.273 0 0 1 .237-.035l8.125 2.595a7.5 7.5 0 1 0 4.561-14.29z" fill="#e7afaf"></path><path d="M335.2 376.289s5.362-32.047-25.732-54.743c-31.093-22.696-54.875 27.408-53.223 38.859s15.019 13.998 21.203 26.83 17.143 18.14 20.213 21.733C316.278 430.753 300.542 512 356.344 512c48.782 0 15.247-63.427-2.412-90.825S335.2 376.289 335.2 376.289z" fill="#ffece4"></path><path d="M353.932 421.175c-17.658-27.398-18.732-44.887-18.732-44.887s2.956-17.739-8.329-36.168c-.679 13.625-8.661 26.771-12.838 32.774a10.748 10.748 0 0 0-1.694 8.426c1.53 7.053 5.854 21.143 17.914 39.855 16.033 24.875 45.148 79.446 13.864 89.285 3.644.996 7.696 1.539 12.226 1.539 48.782.001 15.247-63.426-2.411-90.824z" fill="#ffddce"></path><path d="M373.121 187.163c-1.612 3.473-2.951 9.744-3.922 15.453-.374 2.198-3.512 2.235-3.932.045-5.462-28.429-20.948-95.813-44.19-90.485-29.391 6.737-41.496 11.631-66.055 11.631-24.57 0-36.674-4.893-66.055-11.631-23.821-5.459-38.202 65.362-42.803 92.442-.364 2.141-3.401 2.244-3.913.134-1.503-6.2-3.52-13.668-5.34-17.59C135.279 183.663 74.345 0 256 0s122.437 175.739 117.121 187.163z" fill="#c17d4f"></path><path d="M256 0c-5.297 0-10.379.162-15.271.466 118.688 7.223 120.902 97.548 111.45 150.068-.059.327-.034.657.073.972 6.183 18.213 10.587 38.526 13.014 51.154.421 2.19 3.559 2.155 3.933-.043.971-5.709 2.31-11.98 3.922-15.453C378.437 175.739 437.655 0 256 0zM277.098 122.202s15.744-28.236-3.594-55.756c-17.856-25.411-67.501-31.592-104.859-3.091-26.611 20.302-44.279 55.571-40.449 126.025 1.97 36.251-4.888 80.405-7.502 90.656-2.404 9.427 24.166 1.743 26.249-1.546 12.555-19.836 13.772-60.813 19.079-92.544 7.554-45.168 36.981-53.339 111.076-63.744z" fill="#b16e3d"></path><g fill="#985e33"><path d="M212.272 134.753c-52.045 7.265-83.9 29.8-84.076 54.629 1.97 36.251-4.888 80.405-7.502 90.656-2.404 9.427 24.166 1.743 26.249-1.546 12.555-19.836 13.772-60.813 19.079-92.544 4.772-28.532 18.277-42.3 46.249-51.195zM273.504 66.447c-12.004-17.083-38.377-25.454-65.722-20.46 14.909 2.906 27.519 10.074 34.817 20.46 15.92 22.656 4.362 51.646-.221 61.188 10.304-1.881 21.835-3.623 34.721-5.433-.001 0 15.743-28.236-3.595-55.755z" fill="#985e33"></path></g></g></svg>