<svg viewBox="0 0 64 64" xmlns="http://www.w3.org/2000/svg"><g><path d="M51 9v17.32A47 47 0 0 1 32 30a47 47 0 0 1-19-3.68V3a1 1 0 0 1 1-1h30z" fill="#cce2ff"></path><path d="M44 2v6a1 1 0 0 0 1 1h6z" fill="#b8cbe6"></path><circle cx="32" cy="17" fill="#44a649" r="9"></circle><path d="M51.64 48.2a1 1 0 0 0 1.39.48l6-2.94-7.62-15.42-6 2.94a1 1 0 0 0-.41 1.39l.61 1.25c-1.43.5-4.3.65-9.76-1.56-9.3-3.78-14.23 8-14.23 9.78s5.21 2.23 8.28-3.21l16.85 10.58A10.52 10.52 0 0 1 51.06 47z" fill="#2970cc"></path><path d="m47.17 51.76-17.3-10.85L24 38.69a11.45 11.45 0 0 1-4.42-2.07l.18-.3a1.05 1.05 0 0 0-.38-1.42l-5.78-3.33L5 46.45l5.78 3.33a1 1 0 0 0 1.41-.38l.27-.47L16 51.56l13.62 8.06L33 61.67A2 2 0 0 0 36.12 60a2 2 0 0 0-.94-1.68l1.58.95a2 2 0 0 0 2.6-.35 2 2 0 0 0-.48-3l1.6 1a2 2 0 0 0 2.6-.35 2 2 0 0 0-.47-3l2.46 1.48a2 2 0 0 0 3.07-1.65 2 2 0 0 0-.97-1.64z" fill="#e65c62"></path><path d="m19.57 36.62.01.01v-.01zM47.17 51.76l-17.3-10.85L24 38.69a11.46 11.46 0 0 1-4.42-2.06l-7.12 12.31L16 51.56l13.62 8.06 3.48 2.1a2 2 0 0 0 2.06-3.37l1.67 1a2 2 0 0 0 2-3.37l1.69 1a2 2 0 1 0 2-3.37l2.53 1.52a2 2 0 0 0 2.71-.67 2 2 0 0 0 .29-1 2 2 0 0 0-.88-1.7z" fill="#ffd299"></path><g fill="#e6b373"><path d="M36.34 54.44 40.61 57a1.93 1.93 0 0 0 1.93 0l-5.69-3.4zM39.76 50.76l-.51.85 5.89 3.53a2 2 0 0 0 2 0zM32.61 56.8l4.29 2.58a2 2 0 0 0 1.92 0L33.12 56z" fill="#e6b373"></path></g><rect fill="#ffc680" rx="1.75" transform="rotate(34.51 17.6 52.72)"></rect><rect fill="#ffc680" rx="1.75" transform="rotate(34.51 21.115 54.557)"></rect><rect fill="#ffc680" rx="1.75" transform="rotate(34.51 24.646 56.388)"></rect><path d="m52.671 44.168 1.767-.87.913 1.858-1.767.868z" fill="#1258b3"></path><path d="M45.58 35.9c-1.43.5-4.3.65-9.76-1.56-9.3-3.78-14.23 8-14.23 9.78s5.21 2.23 8.28-3.21l16.88 10.58A10.52 10.52 0 0 1 51.06 47z" fill="#ffc680"></path><path d="m47.36 50.52-.48-.3L40.19 46a9.42 9.42 0 0 0 1.26-1 7.72 7.72 0 0 0 1.2-1.49l-.86-.51a6.69 6.69 0 0 1-1.21 1.44 8.75 8.75 0 0 1-1.31 1L30 39.64c-2.89 5.12-7.66 5.12-8.23 3.54a3.79 3.79 0 0 0-.18.94c0 1.88 5.21 2.23 8.28-3.21l8.24 5.16 1 .63 7.65 4.8c.24-.36.39-.68.6-.98z" fill="#e6a85c"></path><rect fill="#ffc680" rx="1.75" transform="rotate(34.51 27.617 59.029)"></rect><path d="M30.06 21.54A1.49 1.49 0 0 1 29 21.1l-2.48-2.48 2.12-2.12 1.42 1.41 5.3-5.3 2.12 2.12-6.36 6.37a1.53 1.53 0 0 1-1.06.44z" fill="#f2f2f2"></path></g></svg>