<svg enable-background="new 0 0 512 512" height="512" viewBox="0 0 512 512" width="512" xmlns="http://www.w3.org/2000/svg"><g id="_x32_4_Road"><g><ellipse cx="256" cy="256.004" fill="#3eb655" rx="235.277" ry="235.276" transform="matrix(.707 -.707 .707 .707 -106.041 256.001)"/><path d="m427.393 312.613c-7.759 51.11-39.246 90.756-75.639 125.247-19.973 18.872-41.248 35.691-63.424 51.16-10.563 1.501-21.375 2.252-32.338 2.252-31.287 0-61.122-6.107-88.454-17.22-2.903-1.151-5.756-2.403-8.61-3.704-41.349-18.772-76.34-49.158-100.768-86.953 36.243-10.862 71.935-23.878 106.976-39.096 36.718-15.868 87.792-39.381 108.428-61.622 12.715-13.766-31.087-25.13-40.097-29.636-50.76-25.73-82.997-71.884-83.098-130.053-.05-33.188 11.514-63.875 30.136-89.905 23.575-7.959 48.7-12.364 75.488-12.364 25.981 0 50.96 4.205 74.337 11.964-.75.45-1.452.851-2.152 1.201-26.531 15.368-58.719 38.945-62.423 72.135-1.302 11.613 2.603 22.126 14.416 26.231 14.467 4.956 30.586 6.007 45.404 10.362 77.389 22.878 112.831 97.516 101.818 170.001z" fill="#36474f"/><path d="m429.764 97.31c-41.799-38.196-97.514-61.522-158.687-61.522-129.953 0-235.276 105.324-235.276 235.276 0 61.122 23.327 116.837 61.522 158.686-47.055-43.05-76.59-104.973-76.59-173.754 0-129.953 105.324-235.276 235.277-235.276 68.78 0 130.653 29.534 173.754 76.59z" opacity=".1"/><g><g><path d="m182.055 467.395c-4.756 2.353-9.662 4.605-14.517 6.658-2.903-1.151-5.756-2.403-8.61-3.704-.05-2.003 1.101-3.905 3.004-4.756 5.256-2.253 10.562-4.656 15.718-7.209 2.503-1.201 5.507-.15 6.708 2.303 1.201 2.503.2 5.506-2.303 6.708z" fill="#faa629"/></g><g><path d="m206.304 448.57c-1.452-2.351-.728-5.436 1.623-6.89 9.762-6.037 19.349-12.634 28.491-19.61 2.2-1.679 5.343-1.254 7.015.943 1.677 2.197 1.256 5.338-.943 7.015-9.401 7.174-19.256 13.959-29.292 20.168-2.371 1.459-5.447.713-6.894-1.626zm56.287-41.726c-1.882-2.021-1.77-5.189.254-7.074 8.438-7.853 16.553-16.188 24.125-24.775 1.833-2.078 5.006-2.263 7.064-.442 2.073 1.828 2.273 4.991.445 7.066-7.787 8.831-16.137 17.403-24.809 25.479-2.03 1.881-5.191 1.774-7.079-.254zm47.081-51.897c-2.244-1.611-2.762-4.739-1.149-6.986 7.602-10.594 13.429-20.141 17.819-29.187 1.207-2.491 4.199-3.52 6.688-2.32 2.488 1.207 3.525 4.202 2.317 6.69-4.639 9.564-10.75 19.591-18.689 30.654-1.598 2.226-4.716 2.773-6.986 1.149zm31.062-62.327c-2.738-.386-4.644-2.918-4.258-5.656 1.533-10.833 1.065-22.121-2.087-32.599-.802-2.647.699-5.441 3.349-6.238 2.65-.804 5.436.704 6.238 3.349 3.602 11.966 4.134 24.709 2.415 36.887-.394 2.79-2.993 4.646-5.657 4.257zm-23.416-65.436c-8.614-8.196-19.359-14.49-27.752-19.056-2.43-1.32-3.329-4.361-2.009-6.788 1.32-2.43 4.365-3.329 6.79-2.007 8.936 4.859 20.41 11.593 29.874 20.596 2.004 1.907 2.083 5.074.176 7.079-1.899 1.998-5.074 2.085-7.079.176zm-58.878-35.434c-12.881-7.24-21.95-13.835-29.4-21.38-1.946-1.965-1.926-5.135.039-7.079 1.97-1.941 5.138-1.926 7.079.044 6.771 6.851 15.155 12.923 27.19 19.689 2.41 1.354 3.266 4.407 1.911 6.817-1.357 2.412-4.417 3.261-6.819 1.909zm-48.871-52.87c-4.211-12.286-5.4-24.862-3.906-36.835.342-2.742 2.816-4.691 5.588-4.348 2.742.342 4.688 2.843 4.346 5.585-1.333 10.713-.192 21.745 3.446 32.352.895 2.615-.499 5.463-3.114 6.358-2.601.898-5.458-.486-6.36-3.112z" fill="#faa629"/></g><g><path d="m219.904 73.994c-2.322-1.498-2.992-4.598-1.491-6.92 3.402-5.282 7.377-10.132 11.801-14.416 1.975-1.919 5.153-1.88 7.079.112 1.921 1.987 1.872 5.155-.117 7.079-3.877 3.754-7.357 8.012-10.354 12.652-1.472 2.29-4.558 3.01-6.918 1.493z" fill="#faa629"/></g></g></g></g></svg>