<svg viewBox="0 0 512 512" xmlns="http://www.w3.org/2000/svg"><g><path d="M360 75.001v361c0 8.399-6.599 15-15 15H180v-391h165c8.401 0 15 6.599 15 15z" fill="#fea832"></path><path d="M360 256.001v180c0 8.399-6.599 15-15 15H180v-195h180z" fill="#fe9923"></path><path d="M210 15.001v482c0 10.499-10.201 17.399-19.799 14.099l-180-61C4.2 448.3 0 442.6 0 436.001v-361C0 68.4 4.2 62.7 10.201 60.9l180-60C199.501-2.4 210 4.5 210 15.001z" fill="#994c0f"></path><path d="M210 256.001v241c0 10.499-10.201 17.399-19.799 14.099l-180-61C4.2 448.3 0 442.6 0 436.001v-180h210z" fill="#713708"></path><path d="M150 256.001c0 8.399-6.599 15-15 15s-15-6.601-15-15c0-8.401 6.599-15 15-15s15 6.599 15 15z" fill="#fea832"></path><path d="M150 256.001c0 8.399-6.599 15-15 15s-15-6.601-15-15h30z" fill="#fe9923"></path><path d="M512 241.001v30c0 8.399-6.599 15-15 15H375v45c0 12.299-14.399 19.499-24.3 11.7l-87.299-73.2a15.137 15.137 0 0 1-8.401-13.5c0-5.399 2.999-10.8 8.401-13.5l87.299-73.2c9.901-7.8 24.3-.601 24.3 11.7v45h122c8.401 0 15 6.599 15 15z" fill="#fd003a"></path><path d="M512 256.001v15c0 8.399-6.599 15-15 15H375v45c0 12.299-14.399 19.499-24.3 11.7l-87.299-73.2a15.137 15.137 0 0 1-8.401-13.5h257z" fill="#e50027"></path></g></svg>