<svg viewBox="0 0 480 480" xmlns="http://www.w3.org/2000/svg"><g><path d="M440 168H264l-32 48-32-48H24c-13.258 0-24-10.742-24-24V24C0 10.742 10.742 0 24 0h416c13.258 0 24 10.742 24 24v120c0 13.258-10.742 24-24 24zm0 0" fill="#99e1ff"></path><g fill="#26547c"><path d="M408 40h-16c-4.414 0-8 3.586-8 8v16c0 4.414 3.586 8 8 8h8v4.688l-29.656 29.656 11.312 11.312 32-32A7.978 7.978 0 0 0 416 80V48c0-4.414-3.586-8-8-8zM360 40h-16c-4.414 0-8 3.586-8 8v16c0 4.414 3.586 8 8 8h8v4.688l-29.656 29.656 11.312 11.312 32-32A7.978 7.978 0 0 0 368 80V48c0-4.414-3.586-8-8-8zM93.656 53.656 82.344 42.344l-32 32A7.978 7.978 0 0 0 48 80v32c0 4.414 3.586 8 8 8h16c4.414 0 8-3.586 8-8V96c0-4.414-3.586-8-8-8h-8v-4.688zM141.656 53.656l-11.312-11.312-32 32A7.978 7.978 0 0 0 96 80v32c0 4.414 3.586 8 8 8h16c4.414 0 8-3.586 8-8V96c0-4.414-3.586-8-8-8h-8v-4.688zM180 96c-6.617 0-12 5.383-12 12s5.383 12 12 12 12-5.383 12-12-5.383-12-12-12zM228 96c-6.617 0-12 5.383-12 12s5.383 12 12 12 12-5.383 12-12-5.383-12-12-12zM276 96c-6.617 0-12 5.383-12 12s5.383 12 12 12 12-5.383 12-12-5.383-12-12-12zm0 0" fill="#26547c"></path></g><path d="M296 400h-32l-32 32-32-32h-32c-26.512 0-48 21.488-48 48v32h224v-32c0-26.512-21.488-48-48-48zm0 0" fill="#cccccc"></path><path d="M296 312c0-35.344-28.656-64-64-64s-64 28.656-64 64c0 23.672 12.887 44.297 32 55.367V400l32 32 32-32v-32.633c19.113-11.07 32-31.695 32-55.367zm0 0" fill="#f2c38d"></path><path d="M296 312c0 35.348-28.652 64-64 64s-64-28.652-64-64 28.652-64 64-64 64 28.652 64 64zm0 0" fill="#ffcd94"></path><path d="M232 248c-30.96 0-56.785 21.992-62.71 51.2 6.956 3.12 14.632 4.8 22.71 4.8 15.68 0 29.922-6.48 40-16.879C242.078 297.52 256.32 304 272 304c7.375 0 15.473-4.055 22.129-7.137C287.313 268.832 262.12 248 232 248zm0 0" fill="#26547c"></path><path d="M318.176 405.457c-16.008 28.871-40.735 60.137-70.574 74.543H344v-32c0-18.504-10.488-34.535-25.824-42.543zm0 0" fill="#c4c4c4"></path><path d="M367.063 168H440c13.258 0 24-10.742 24-24V47.984c-15.063 51.743-50.426 94.84-96.938 120.016zm0 0" fill="#91d6f2"></path></g></svg>