<svg viewBox="0 0 512 512" xmlns="http://www.w3.org/2000/svg"><g><path d="M408.906 45.536c2.263 6.186 27.401 79.804-24.155 166.617-31.315 52.729-78.861 56.218-83.517 56.434-2.727-3.781-29.57-43.179-7.763-100.497C329.376 73.721 402.655 47.612 408.906 45.536z" fill="#80c56e"></path><path d="M408.906 45.536 301.234 268.587c4.657-.217 52.202-3.705 83.517-56.434 51.557-86.813 26.418-160.431 24.155-166.617z" fill="#66ad66"></path><path d="m297.907 275.479 3.327-6.892-.262-.369c-2.058 4.808-3.065 7.261-3.065 7.261z"></path><path d="M103.094 45.536c-2.263 6.186-27.401 79.804 24.155 166.617 31.315 52.729 78.861 56.218 83.517 56.434 2.727-3.781 29.57-43.179 7.762-100.497C182.624 73.721 109.345 47.612 103.094 45.536z" fill="#80c56e"></path><path d="M218.528 168.09C182.624 73.721 109.345 47.612 103.094 45.536c63.67 121.61 98.013 199.506 107.934 222.682 3.821-5.462 28.746-44.288 7.5-100.128z" fill="#66ad66"></path><path d="M256 0c-7.676 7.449-96.408 97.362-82.296 260.712 8.571 99.218 75.639 137.883 82.296 141.487 6.657-3.604 73.725-42.27 82.296-141.487C352.408 97.362 263.676 7.449 256 0z" fill="#80c56e"></path><path d="M256 0v402.199c6.657-3.604 73.725-42.27 82.296-141.487C352.408 97.362 263.676 7.449 256 0z" fill="#66ad66"></path><path d="M445.966 250.043c16.695-57.379 11.044-110.709 11.044-110.709s-32.151 14.322-112.949 66.535C281.256 246.454 261.824 317.612 256 336.79h73.813c53.655 0 101.163-35.228 116.153-86.747z" fill="#80c56e"></path><path d="M457.011 139.333S373.972 303.376 256 336.79h73.813c53.656 0 101.163-35.228 116.154-86.747 16.694-57.379 11.044-110.71 11.044-110.71z" fill="#66ad66"></path><path d="M66.034 250.043C49.339 192.664 54.99 139.334 54.99 139.334s32.151 14.322 112.949 66.535C230.744 246.454 250.176 317.612 256 336.79h-73.813c-53.655 0-101.163-35.228-116.153-86.747z" fill="#80c56e"></path><path d="M256 336.79c-5.824-19.178-25.256-90.336-88.061-130.922-80.799-52.213-112.95-66.535-112.95-66.535S138.028 303.377 256 336.79z" fill="#66ad66"></path><path d="M309.376 512H202.624c-28.315 0-52.604-20.189-57.781-48.027l-22.887-123.072h268.089l-22.887 123.072C361.98 491.811 337.691 512 309.376 512z" fill="#fec37d"></path><path d="m338.192 340.902-22.887 123.072C310.128 491.811 285.838 512 257.523 512h51.853c28.315 0 52.604-20.189 57.781-48.027l22.887-123.072h-51.852v.001z" fill="#f9ae5d"></path><path d="M394.718 368.559H117.282c-11.242 0-20.356-9.114-20.356-20.356s9.114-20.356 20.356-20.356h277.437c11.242 0 20.356 9.114 20.356 20.356-.001 11.242-9.114 20.356-20.357 20.356z" fill="#f2a559"></path><path d="M394.718 327.846h-32.614v40.712h32.614c11.242 0 20.356-9.114 20.356-20.356.001-11.242-9.113-20.356-20.356-20.356z" fill="#ea8f3d"></path></g></svg>