<svg viewBox="0 0 64 64" xmlns="http://www.w3.org/2000/svg"><g><path d="M32 20C17.178 20 6 24.299 6 30H5a1 1 0 0 0-.707 1.707l2 2a.997.997 0 0 0 1.414 0l2-2A1 1 0 0 0 9 30H8c0-3.784 9.856-8 24-8s24 4.216 24 8h2c0-5.701-11.178-10-26-10z" fill="#c80a50"></path><path d="M32 56c-5.701 0-10-11.178-10-26S26.299 4 32 4a1 1 0 1 1 0 2c-3.784 0-8 9.856-8 24s4.216 24 8 24a1 1 0 1 1 0 2z" fill="#0a5078"></path><path d="M38.91 15a1 1 0 0 1-.958-.714C36.428 9.175 34.147 6 32 6a1 1 0 1 1 0-2c3.206 0 6 3.45 7.869 9.714A1 1 0 0 1 38.91 15z" fill="#0a5078"></path><path d="M41 60.001a3.002 3.002 0 0 1-2.846-2.053l-6-18a3 3 0 0 1 5.692-1.897l6 18A3 3 0 0 1 41 60.001z" fill="#fab400"></path><path d="M39 60h4a1 1 0 0 0 1-1 3 3 0 1 0-6 0 1 1 0 0 0 1 1z" fill="#c80a50"></path><path d="M23 60.001a2.999 2.999 0 0 1-2.846-3.949l6-18a2.995 2.995 0 0 1 3.795-1.897 2.999 2.999 0 0 1 1.897 3.794l-6 18A3.002 3.002 0 0 1 23 60.001z" fill="#fab400"></path><path d="M25 60h-4a1 1 0 0 1-1-1 3 3 0 1 1 6 0 1 1 0 0 1-1 1z" fill="#c80a50"></path><path d="M26 36h12v4H26z" fill="#fab400"></path><path d="M26 22h12v14H26z" fill="#0a5078"></path><path d="M16 14a1.99 1.99 0 0 1-1.414-.586l-2-2a2 2 0 1 1 2.828-2.828l2 2A2 2 0 0 1 16 14z" fill="#f0c8a0"></path><path d="m14.583 13.415 2.828-2.828L29.41 22.586l-2.828 2.828z" fill="#00a0c8"></path><path d="M48 14a2 2 0 0 1-1.414-3.414l2-2a2 2 0 1 1 2.828 2.828l-2 2A1.99 1.99 0 0 1 48 14z" fill="#f0c8a0"></path><path d="M34.581 22.588 46.58 10.589l2.828 2.828-11.999 11.999z" fill="#00a0c8"></path><path d="M35 38h2a1 1 0 0 0 1-1V22h-4v15a1 1 0 0 0 1 1zM27 38h2a1 1 0 0 0 1-1V22h-4v15a1 1 0 0 0 1 1z" fill="#00a0c8"></path><path d="M32 24a2 2 0 0 1-2-2v-3h4v3a2 2 0 0 1-2 2z" fill="#d2aa82"></path><path d="M33 20h-2a3 3 0 0 1-3-3v-3a2 2 0 0 1 2-2h4a2 2 0 0 1 2 2v3a3 3 0 0 1-3 3z" fill="#f0c8a0"></path><path d="M34 12h-4a2 2 0 0 0-2 2v-2a2 2 0 0 1 2-2h4a2 2 0 0 1 2 2v2a2 2 0 0 0-2-2zM32 40a1 1 0 1 1 0-2c14.144 0 24-4.216 24-8a1 1 0 1 1 2 0c0 5.701-11.178 10-26 10z" fill="#c80a50"></path><path d="M32 40c-5.107 0-10.031-.546-14.238-1.579a.999.999 0 0 1-.733-1.209.992.992 0 0 1 1.209-.732C22.292 37.474 27.051 38 32 38a1 1 0 1 1 0 2z" fill="#c80a50"></path><path d="m43.707 28.293-2-2a.999.999 0 0 0-1.414 0l-2 2A1 1 0 0 0 39 30h1c0 14.144-4.216 24-8 24v2c5.701 0 10-11.178 10-26h1a1 1 0 0 0 .707-1.707z" fill="#0a5078"></path></g></svg>