<svg viewBox="0 0 512 512" xmlns="http://www.w3.org/2000/svg"><g><path d="M15.49 136.652h481.02c8.555 0 15.49-5.909 15.49-24.49V15.49C512 6.935 505.065 0 496.51 0H15.49C6.935 0 0 6.935 0 15.49v96.673c0 18.58 6.935 24.489 15.49 24.489z" fill="#f9da86"></path><path d="M496.51 127.652H15.49c-8.555 0-15.49-6.935-15.49-15.49v18.581c0 8.555 6.935 15.49 15.49 15.49h481.02c8.555 0 15.49-6.935 15.49-15.49v-18.581c0 8.555-6.935 15.49-15.49 15.49z" fill="#f1c976"></path><path d="M15.49 319.536h481.02c8.555 0 15.49-5.909 15.49-24.49v-96.673c0-8.555-6.935-15.49-15.49-15.49H15.49c-8.555 0-15.49 6.935-15.49 15.49v96.673c0 18.581 6.935 24.49 15.49 24.49z" fill="#b7e598"></path><path d="M15.49 502.419h481.02c8.555 0 15.49-5.909 15.49-24.49v-96.673c0-8.555-6.935-15.49-15.49-15.49H15.49c-8.555 0-15.49 6.935-15.49 15.49v96.673c0 18.581 6.935 24.49 15.49 24.49z" fill="#b7effe"></path><path d="M145.075 104.064a7.75 7.75 0 0 0 8.041-.549l39.811-28.089 4.516-12.186-44.327-31.276a7.756 7.756 0 0 0-12.229 6.338v49.875c0 7.965 1.615 14.554 4.188 15.887z" fill="#fc686c"></path><path d="M496.51 310.536H15.49c-8.555 0-15.49-6.935-15.49-15.49v18.581c0 8.555 6.935 15.49 15.49 15.49h481.02c8.555 0 15.49-6.935 15.49-15.49v-18.581c0 8.555-6.935 15.49-15.49 15.49z" fill="#9ed4a4"></path><path d="M496.51 493.419H15.49c-8.555 0-15.49-6.935-15.49-15.49v18.581C0 505.065 6.935 512 15.49 512h481.02c8.555 0 15.49-6.935 15.49-15.49v-18.581c0 8.555-6.935 15.49-15.49 15.49z" fill="#a0e9f3"></path><path d="m201.216 65.902-3.773-2.662-44.327 31.276a7.75 7.75 0 0 1-8.041.549 7.756 7.756 0 0 1-4.188-6.887v18a7.756 7.756 0 0 0 12.229 6.338l48.1-33.938a7.756 7.756 0 0 0 0-12.676z" fill="#ec6267"></path><path d="M145.075 287.306a7.75 7.75 0 0 0 8.041-.549l39.811-28.089 4.516-12.186-44.327-31.276a7.756 7.756 0 0 0-12.229 6.338v49.875c0 7.965 1.615 14.554 4.188 15.887z" fill="#fc686c"></path><path d="m201.216 249.144-3.773-2.662-44.327 31.276a7.75 7.75 0 0 1-8.041.549 7.756 7.756 0 0 1-4.188-6.887v18a7.756 7.756 0 0 0 12.229 6.338l48.1-33.938a7.756 7.756 0 0 0 0-12.676z" fill="#ec6267"></path><path d="M145.075 470.42a7.75 7.75 0 0 0 8.041-.549l39.811-28.089 4.516-12.186-44.327-31.276a7.756 7.756 0 0 0-12.229 6.338v49.875c0 7.964 1.615 14.554 4.188 15.887z" fill="#fc686c"></path><path d="m201.216 432.257-3.773-2.662-44.327 31.276a7.75 7.75 0 0 1-8.041.549 7.756 7.756 0 0 1-4.188-6.887v18a7.756 7.756 0 0 0 12.229 6.338l48.1-33.938a7.756 7.756 0 0 0 0-12.676z" fill="#ec6267"></path><g fill="#585e74"><path d="M71.65 111.484a7.757 7.757 0 0 0 7.757-7.757V39.246a7.757 7.757 0 0 0-7.757-7.757H57.879a7.757 7.757 0 0 0 0 15.514h6.014v56.724a7.758 7.758 0 0 0 7.757 7.757zM464.249 50.785a7.757 7.757 0 0 0-7.757-7.757H255.041a7.757 7.757 0 0 0 0 15.514h201.451a7.757 7.757 0 0 0 7.757-7.757zM255.041 85.938a7.757 7.757 0 0 0 0 15.514h111.867a7.757 7.757 0 0 0 0-15.514zM66.206 250.09c-10.2 14.585-16.287 22.561-19.557 26.845-4.007 5.251-6.018 7.886-4.705 12.157.775 2.519 2.681 4.452 5.229 5.302 1.048.35 1.992.666 14.445.666 4.933 0 11.674-.049 20.941-.166 4.284-.054 7.713-3.57 7.659-7.854s-3.59-7.694-7.854-7.659a1876.8 1876.8 0 0 1-18.229.144c3.538-4.748 8.364-11.365 14.784-20.544 4.15-5.935 6.858-11.551 8.05-16.693a7.69 7.69 0 0 0 .138-.769l.318-2.494c.041-.326.062-.653.062-.982 0-13.375-10.876-24.256-24.244-24.256-11.559 0-21.564 8.228-23.789 19.564a7.757 7.757 0 0 0 6.117 9.106 7.756 7.756 0 0 0 9.106-6.117c.801-4.079 4.403-7.038 8.566-7.038 4.674 0 8.503 3.698 8.72 8.326l-.192 1.503c-.793 3.126-2.664 6.812-5.565 10.959zM255.041 241.784h201.451a7.757 7.757 0 0 0 0-15.514H255.041a7.757 7.757 0 0 0 0 15.514zM255.041 284.694h111.867a7.757 7.757 0 0 0 0-15.514H255.041a7.757 7.757 0 0 0 0 15.514zM464.249 417.268a7.757 7.757 0 0 0-7.757-7.757H255.041a7.757 7.757 0 0 0 0 15.514h201.451a7.757 7.757 0 0 0 7.757-7.757zM255.041 452.421a7.757 7.757 0 0 0 0 15.514h111.867a7.757 7.757 0 0 0 0-15.514zM64.765 397.84c-11.559 0-21.564 8.228-23.789 19.564a7.757 7.757 0 1 0 15.223 2.989c.801-4.079 4.403-7.039 8.566-7.039 4.813 0 8.729 3.922 8.729 8.742s-3.916 8.742-8.729 8.742a7.757 7.757 0 0 0 0 15.514c4.813 0 8.729 3.922 8.729 8.742s-3.916 8.742-8.729 8.742c-4.332 0-8.048-3.23-8.646-7.514a8.919 8.919 0 0 1-.084-1.228 7.757 7.757 0 0 0-15.514 0c0 1.129.079 2.264.233 3.372 1.66 11.906 11.982 20.884 24.011 20.884 13.368 0 24.243-10.882 24.243-24.257 0-6.368-2.469-12.167-6.494-16.5 4.026-4.332 6.494-10.132 6.494-16.499 0-13.373-10.875-24.254-24.243-24.254z" fill="#585e74"></path></g></g></svg>