<svg viewBox="0 0 404.495 404" xmlns="http://www.w3.org/2000/svg"><g><g fill="#fbce6b"><path d="m164.488 246.395-14.133 49.464a14.7 14.7 0 1 0 28.27 0zM225.617 58.262l40.512-31.715a14.705 14.705 0 0 0 5.601-10.985 14.697 14.697 0 0 0-19.792-14.398 14.713 14.713 0 0 0-8.704 8.746zM103.363 58.262 85.723 9.934a14.702 14.702 0 0 0-22.46-6.848 14.698 14.698 0 0 0-6.036 12.504 14.72 14.72 0 0 0 5.597 10.984zM65.578 174.531l-51.41 1.848A14.695 14.695 0 0 0 3.16 181.98 14.702 14.702 0 0 0 .72 195.633a14.71 14.71 0 0 0 10.004 9.613 14.73 14.73 0 0 0 12.183-1.96zM396.488 230.395a7.99 7.99 0 0 1-5.351-2.055l-26.153-23.543a216.06 216.06 0 0 0-120.941-54.402h-15.555a8 8 0 0 1 0-16h16c.297 0 .59.02.883.05a231.972 231.972 0 0 1 130.32 58.465l26.16 23.543a7.992 7.992 0 0 1 2.11 8.813 7.994 7.994 0 0 1-7.473 5.129zM396.488 326.395a7.985 7.985 0 0 1-5.656-2.344l-38.687-38.688a366.142 366.142 0 0 0-110.641-76l-24.484-11.765a8.002 8.002 0 0 1-3.446-10.536c1.867-3.867 6.45-5.57 10.387-3.867l24.266 11.672a381.615 381.615 0 0 1 115.199 79.203l38.687 38.688a7.99 7.99 0 0 1 1.723 8.687 7.996 7.996 0 0 1-7.348 4.95zm0 0" fill="#fbce6b"></path></g><path d="M308.488 206.395a7.985 7.985 0 0 1-5.656-2.344l-8-8a8 8 0 0 1 .098-11.215c3.086-3.082 8.078-3.129 11.215-.094l8 8a7.998 7.998 0 0 1-5.656 13.652zM364.488 246.395a7.985 7.985 0 0 1-5.656-2.344l-8-8a8 8 0 0 1 .098-11.215c3.086-3.082 8.078-3.129 11.215-.094l8 8a7.998 7.998 0 0 1-5.656 13.652zM335.793 339.195a7.996 7.996 0 0 1-5.992-2.703l-11.305-12.8a8.005 8.005 0 0 1 .707-11.297c3.313-2.922 8.371-2.61 11.293.707l11.305 12.796a8.004 8.004 0 0 1 1.297 8.586 7.992 7.992 0 0 1-7.29 4.711zM292.488 278.395a7.985 7.985 0 0 1-5.656-2.344l-8-8a8 8 0 0 1 .098-11.215c3.086-3.082 8.078-3.129 11.215-.094l8 8a7.998 7.998 0 0 1-5.656 13.652zm0 0" fill="#fbdf93"></path><path d="M316.488 382.395a7.988 7.988 0 0 1-7.285-4.688l-4.8-10.574a384.27 384.27 0 0 0-81.512-116.215 8.075 8.075 0 0 1-1.512-2.027l-16-30.805a8.003 8.003 0 0 1 3.414-10.793 8.003 8.003 0 0 1 10.793 3.414l15.406 29.672a400.057 400.057 0 0 1 83.969 120.129l4.8 10.578a8.004 8.004 0 0 1 .196 6.125 7.992 7.992 0 0 1-4.195 4.465 7.822 7.822 0 0 1-3.274.719zm0 0" fill="#fbce6b"></path><path d="M225.8 249.387a23.896 23.896 0 0 1-14.109-4.672l-44.218-32.133a5.821 5.821 0 0 0-6.856 0l-44.222 32.133a23.996 23.996 0 0 1-28.211.004 24 24 0 0 1-8.727-26.828l16.89-52a5.813 5.813 0 0 0-2.113-6.52l-44.226-32.125a24.003 24.003 0 0 1-8.703-26.828A23.996 23.996 0 0 1 64.12 83.836h54.656a5.798 5.798 0 0 0 5.543-4l16.899-52a24 24 0 0 1 45.656 0l16.887 52a5.815 5.815 0 0 0 5.55 4h54.657a24.003 24.003 0 0 1 14.121 43.41l-44.215 32.125a5.815 5.815 0 0 0-2.121 6.527l16.887 52a23.624 23.624 0 0 1-8.711 26.825 23.893 23.893 0 0 1-14.13 4.664zm0 0" fill="#fbb540"></path></g></svg>