<svg viewBox="0 0 58 59" xmlns="http://www.w3.org/2000/svg"><g><g fill="none" fill-rule="nonzero"><path d="M51 6a1 1 0 0 1-1-1V3a1 1 0 0 0-1-1h-6a1 1 0 0 0-1 1v2a1 1 0 0 1-2 0V3a3 3 0 0 1 3-3h6a3 3 0 0 1 3 3v2a1 1 0 0 1-1 1z" fill="#3f5c6c"></path><path d="M34 19.25V8a3 3 0 0 1 3-3h18a3 3 0 0 1 3 3v14a3 3 0 0 1-3 3H38.31zM15.74 24.85a1.906 1.906 0 0 1-1.5-.01C6.94 21.62 6 14.111 6 10.062v-5.48a1 1 0 0 1 .95-1.01c4.26-.17 6.46-1.51 7.42-2.34a.972.972 0 0 1 1.26 0c.96.83 3.16 2.17 7.42 2.34a1 1 0 0 1 .95 1.01v5.48c.04 2.66-.443 5.304-1.42 7.779z" fill="#4fba6f"></path><path d="M30.55 40.47a12.056 12.056 0 1 0-3.018.508z" fill="#f0c419"></path><path d="M9 36v21a2 2 0 0 1-2 2H2a2.006 2.006 0 0 1-2-2V36a2.006 2.006 0 0 1 2-2h5a2.006 2.006 0 0 1 2 2z" fill="#3b97d3"></path><path d="M56.68 45.57 37.94 56.98A7 7 0 0 1 34.3 58H8.73A2 2 0 0 0 9 57V36h2.8c2.072.003 4.08.708 5.7 2s3.628 1.997 5.7 2h5.23a4.989 4.989 0 0 1 4.29 2.43c.303.522.459 1.116.45 1.72.001.286-.032.572-.1.85A4.032 4.032 0 0 1 32 47h2.61c.432 0 .861-.07 1.27-.21l18.51-6.17a2.755 2.755 0 0 1 3.06.96v.01a2.73 2.73 0 0 1-.77 3.98z" fill="#fdd7ad"></path><path d="M33.07 45A4.032 4.032 0 0 1 32 47h-6.28a8.01 8.01 0 0 0-4.44 1.34l-.72.49A.969.969 0 0 1 20 49a1 1 0 0 1-.56-1.83l.73-.49A10.023 10.023 0 0 1 25.72 45z" fill="#f9c795"></path><circle cx="46" cy="15" fill="#ecf0f1" r="6"></circle><path d="M48 14h-1v-1a1 1 0 0 0-2 0v1h-1a1 1 0 0 0 0 2h1v1a1 1 0 0 0 2 0v-1h1a1 1 0 0 0 0-2z" fill="#24ae5f"></path><path d="M13 17a1 1 0 0 1-.707-.293l-2-2a1 1 0 0 1 1.414-1.414l1.185 1.185L18.2 7.4a1 1 0 0 1 1.6 1.2l-6 8a1 1 0 0 1-.729.4z" fill="#ecf0f1"></path><path d="M27 28a2 2 0 1 1 2-2 1 1 0 0 0 2 0 4 4 0 0 0-3-3.858V22a1 1 0 0 0-2 0v.142A3.992 3.992 0 0 0 27 30a2 2 0 1 1-2 2 1 1 0 0 0-2 0 4 4 0 0 0 3 3.858V36a1 1 0 0 0 2 0v-.142A3.992 3.992 0 0 0 27 28z" fill="#e57e25"></path></g></g></svg>