<svg viewBox="0 0 64 64" xmlns="http://www.w3.org/2000/svg"><g><path d="m48.822 43.822 12.142 12.142a3.535 3.535 0 0 1 1.036 2.5A3.536 3.536 0 0 1 58.464 62a3.535 3.535 0 0 1-2.5-1.036L44 49" fill="#5a5b5d"></path><path d="m48.822 43.822-2.411 2.59 11.553 11.552a3.494 3.494 0 0 0 4.018.681c0-.061.018-.119.018-.181a3.535 3.535 0 0 0-1.036-2.5z" fill="#77787c"></path><path d="M60.964 55.964 52 47l-5 5 8.964 8.964a3.536 3.536 0 1 0 5-5z" fill="#77787c"></path><path d="M17.6 21.649a3.841 3.841 0 0 0 2.124-2.559L20 18a2 2 0 0 1-2-2V9a7 7 0 0 0-7-7 7 7 0 0 0-7 7v7a2 2 0 0 1-2 2l.272 1.09A3.841 3.841 0 0 0 4.4 21.649z" fill="#936c42"></path><path d="M18 16V9a7 7 0 0 0-5.5-6.835A7 7 0 0 0 7 9v7a2 2 0 0 1-2 2l.272 1.09A3.841 3.841 0 0 0 7.4 21.649h10.2a3.841 3.841 0 0 0 2.124-2.559L20 18a2 2 0 0 1-2-2z" fill="#ceae84"></path><path d="M6 11H5a2 2 0 0 0-2 2 2 2 0 0 0 2 2h1.416M16 11h1a2 2 0 0 1 2 2 2 2 0 0 1-2 2h-1.416" fill="#ecb8ad"></path><path d="M9 17.583V20l-2.054.342A4.723 4.723 0 0 0 3 25v7h16v-7a4.723 4.723 0 0 0-3.946-4.658L13 20v-2.417z" fill="#4f61a6"></path><path d="M15.054 20.342 13 20v-2.417h-2V20l-2.054.342A4.723 4.723 0 0 0 5 25v7h14v-7a4.723 4.723 0 0 0-3.946-4.658z" fill="#7383bc"></path><path d="M16 10v3a5 5 0 0 1-5 5 5 5 0 0 1-5-5v-3h1.838A4.387 4.387 0 0 0 12 7z" fill="#ecb8ad"></path><path d="M13 17.58V20l-2 4-2-4v-2.42z" fill="#ecb8ad"></path><path d="M9 18.584V20l2 4 2-4v-1.416a5.016 5.016 0 0 1-4 0z" fill="#fde1d5"></path><path d="M6.218 20.525 7 25l4-1-2-4zM15.782 20.525 15 25l-4-1 2-4z" fill="#223584"></path><path d="M14 28h2v4h-2zM6 28h2v4H6z" fill="#17256b"></path><path d="M7.838 10H7v3a4.984 4.984 0 0 0 4.5 4.95A4.984 4.984 0 0 0 16 13v-3l-4-3a4.387 4.387 0 0 1-4.162 3z" fill="#fde1d5"></path><path d="M54 17.584V20l3.039.38A5.664 5.664 0 0 1 62 26v6H42v-6a5.664 5.664 0 0 1 4.961-5.62L50 20v-2.416z" fill="#b4b5b9"></path><path d="M57.039 20.38 54 20v-2.416h-2V20l-3.039.38A5.664 5.664 0 0 0 44 26v6h18v-6a5.664 5.664 0 0 0-4.961-5.62z" fill="#dcdddf"></path><path d="M57.291 20.418 56 23v2l-4-1 2-4zM46.709 20.418 48 23v2l4-1-2-4z" fill="#77787c"></path><path d="M45 28h2v4h-2z" fill="#5a5b5d"></path><circle cx="32" cy="33" fill="#9a9b9f" r="20"></circle><path d="M32 13a19.9 19.9 0 0 0-13.094 4.906 19.98 19.98 0 0 0 28.188 28.188A19.98 19.98 0 0 0 32 13z" fill="#b4b5b9"></path><circle cx="32" cy="33" fill="#ffffff" r="16"></circle><path d="M37.039 39.38 34 39v-2.416h-4V39l-3.039.38A5.664 5.664 0 0 0 22 45v.479a15.961 15.961 0 0 0 20 0V45a5.664 5.664 0 0 0-4.961-5.62z" fill="#50bae3"></path><path d="M37.039 39.38 34 39v-2.416h-2V39l-3.039.38A5.664 5.664 0 0 0 24 45v1.842a15.938 15.938 0 0 0 18-1.363V45a5.664 5.664 0 0 0-4.961-5.62z" fill="#b5deeb"></path><path d="M57 28h2v4h-2z" fill="#5a5b5d"></path><path d="M34 36.58V39l-2 4-2-4v-2.42z" fill="#ecb8ad"></path><path d="M30 37.584V39l2 4 2-4v-1.416a5.016 5.016 0 0 1-4 0z" fill="#fde1d5"></path><path d="M25 30.269V26a5 5 0 0 1 5-5h3a3 3 0 0 1 3 3 3 3 0 0 1 3 3v3.27" fill="#5a5b5d"></path><path d="M28 26v4.269h11V27a3 3 0 0 0-3-3 3 3 0 0 0-3-3 5 5 0 0 0-5 5z" fill="#77787c"></path><g fill="#ecb8ad"><path d="M27 30h-1a2 2 0 0 0-2 2 2 2 0 0 0 2 2h1.416M37 30h1a2 2 0 0 1 2 2 2 2 0 0 1-2 2h-1.416" fill="#ecb8ad"></path><path d="M37 29v3a5 5 0 0 1-5 5 5 5 0 0 1-5-5v-3h1.838A4.387 4.387 0 0 0 33 26z" fill="#ecb8ad"></path></g><path d="M28.838 29H28v3a4.984 4.984 0 0 0 4.5 4.95A4.984 4.984 0 0 0 37 32v-3l-4-3a4.387 4.387 0 0 1-4.162 3z" fill="#fde1d5"></path><path d="M37.291 39.418 36 42v2l-4-1 2-4zM26.709 39.418 28 42v2l4-1-2-4z" fill="#4197cd"></path><path d="M45 11.268V9a7 7 0 0 1 7-7 7 7 0 0 1 7 7v2.271z" fill="#5a5b5d"></path><path d="M59 9a7 7 0 0 0-5.5-6.835A7 7 0 0 0 48 9v2.268h11z" fill="#77787c"></path><path d="M54 17.58V20l-2 4-2-4v-2.42z" fill="#ecb8ad"></path><path d="M50 18.584V20l2 4 2-4v-1.416a5.016 5.016 0 0 1-4 0z" fill="#fde1d5"></path><path d="M47 11h-1a2 2 0 0 0-2 2 2 2 0 0 0 2 2h1.416M57 11h1a2 2 0 0 1 2 2 2 2 0 0 1-2 2h-1.416" fill="#ecb8ad"></path><path d="M47 11.236a5.231 5.231 0 0 1 .553-2.342A1.617 1.617 0 0 1 49 8a1.617 1.617 0 0 1 1.447.894l.106.212A1.617 1.617 0 0 0 52 10a1.617 1.617 0 0 0 1.447-.894l.106-.212A1.617 1.617 0 0 1 55 8a1.617 1.617 0 0 1 1.447.894A5.231 5.231 0 0 1 57 11.236V13a5 5 0 0 1-5 5 5 5 0 0 1-5-5z" fill="#ecb8ad"></path><path d="M52.5 17.95A4.984 4.984 0 0 0 57 13v-1.764a5.231 5.231 0 0 0-.553-2.342 1.618 1.618 0 0 0-2.894 0l-.106.212a1.618 1.618 0 0 1-2.894 0l-.106-.212A1.594 1.594 0 0 0 48 8.365V13a4.984 4.984 0 0 0 4.5 4.95z" fill="#fde1d5"></path><path d="M25 47.371a15.836 15.836 0 0 0 2 .821V47h-2zM37 48.192a15.836 15.836 0 0 0 2-.821V47h-2z" fill="#29678c"></path><path d="M57.964 57.964a3.494 3.494 0 0 0 4.018.681c0-.061.018-.119.018-.181a3.535 3.535 0 0 0-1.036-2.5L52 47l-2.5 2.5z" fill="#9a9b9f"></path></g></svg>