<svg viewBox="0 0 512 512" xmlns="http://www.w3.org/2000/svg"><g><path d="M510.876 247.22v51.829c0 5.229-4.874 9.093-9.965 7.899l-147.347-34.549 1.44-38.091 13.719-29.208 133.735 31.489a10.921 10.921 0 0 1 8.418 10.631z" fill="#d77f4a"></path><path d="M510.877 247.223v51.828c0 5.223-4.873 9.086-9.962 7.901l-29.916-7.016c.031-.288.052-.587.052-.886v-51.828c0-5.068-3.482-9.478-8.417-10.631l-97.878-23.045 3.966-8.447 133.738 31.493c4.935 1.153 8.417 5.562 8.417 10.631z" fill="#c86d36"></path><path d="m334.657 356.364-85.013-11.834-83.708-26.156 54.329-241.281 90.018 10.854 78.702 27.136z" fill="#d77f4a"></path><path d="m220.265 77.093-2.209 9.81 114.816 25.853c5.708 1.285 9.294 6.955 8.009 12.663l-49.792 221.135 5.33 4.487 38.238 5.323 54.328-241.281-78.702-27.136z" fill="#c86d36"></path><path d="M421.748 512H77.54c-8.585 0-14.397-8.748-11.069-16.662l12.326-29.317a22.1 22.1 0 0 1 20.374-13.535h300.945a22.1 22.1 0 0 1 20.374 13.535l12.327 29.317c3.327 7.914-2.484 16.662-11.069 16.662z" fill="#7a8c98"></path><path d="m432.817 495.338-12.327-29.317a22.1 22.1 0 0 0-20.374-13.535h-45.777a22.1 22.1 0 0 1 20.374 13.535l12.326 29.317c3.327 7.914-2.484 16.662-11.069 16.662h45.777c8.586 0 14.397-8.748 11.07-16.662z" fill="#6b7e89"></path><path d="M410.572 67.14 221.31 24.524c-6.955-1.566-13.863 2.803-15.429 9.758l-5.645 25.07c-1.566 6.955 2.803 13.863 9.758 15.429l189.262 42.615c6.955 1.566 13.863-2.803 15.429-9.758l5.645-25.07c1.565-6.955-2.803-13.862-9.758-15.428z" fill="#d77f4a"></path><path d="M410.572 67.14 221.31 24.524c-5.997-1.35-11.951 1.718-14.483 7.046l157.968 35.57c6.955 1.566 11.324 8.474 9.758 15.429l-3.812 16.833c-1.068 4.742-4.62 8.276-8.975 9.553l37.491 8.442c6.955 1.566 13.863-2.803 15.429-9.758l5.645-25.07c1.564-6.956-2.804-13.863-9.759-15.429z" fill="#c86d36"></path><path d="M162.35 10.935a40.418 40.418 0 0 0 26.348 10.914c21.303.684 38.413 17.794 39.097 39.097a40.413 40.413 0 0 0 10.914 26.348c14.579 15.547 14.579 39.744 0 55.292a40.418 40.418 0 0 0-10.914 26.348c-.684 21.303-17.794 38.413-39.097 39.097a40.413 40.413 0 0 0-26.348 10.914c-15.547 14.579-39.744 14.579-55.292 0a40.418 40.418 0 0 0-26.348-10.914c-21.303-.684-38.413-17.794-39.097-39.097a40.413 40.413 0 0 0-10.914-26.348c-14.579-15.547-14.579-39.744 0-55.292a40.418 40.418 0 0 0 10.914-26.348c.684-21.303 17.794-38.413 39.097-39.097a40.413 40.413 0 0 0 26.348-10.914c15.547-14.58 39.745-14.58 55.292 0z" fill="#80d261"></path><path d="M238.709 87.294a40.418 40.418 0 0 1-10.914-26.348c-.684-21.303-17.794-38.413-39.097-39.097a40.413 40.413 0 0 1-26.348-10.914C148.311-2.23 127.223-3.504 111.816 7.106a40.624 40.624 0 0 1 4.757 3.829 40.418 40.418 0 0 0 26.348 10.914c21.303.684 38.413 17.794 39.097 39.097a40.413 40.413 0 0 0 10.914 26.348c14.58 15.547 14.58 39.744 0 55.292a40.418 40.418 0 0 0-10.914 26.348c-.684 21.303-17.794 38.413-39.097 39.097a40.413 40.413 0 0 0-26.348 10.914 40.624 40.624 0 0 1-4.757 3.829c15.407 10.609 36.496 9.335 50.534-3.829a40.418 40.418 0 0 1 26.348-10.914c21.303-.684 38.413-17.794 39.097-39.097a40.413 40.413 0 0 1 10.914-26.348c14.579-15.548 14.579-39.745 0-55.292z" fill="#62c13a"></path><path d="m137.692 145.645.599.311 19.458-31.015-7.356-16.8-27.73-7.763-1.765 3.583a6.418 6.418 0 0 1-4.834 3.512l-13.624 1.98c-7.054 1.025-9.871 9.694-4.767 14.67l9.858 9.61a6.422 6.422 0 0 1 1.847 5.683l-2.327 13.569c-1.205 7.026 6.169 12.384 12.479 9.066l12.186-6.406a6.418 6.418 0 0 1 5.976 0z" fill="#fee45a"></path><path d="M161.872 123.735a6.393 6.393 0 0 0-1.844 5.676l2.328 13.578c1.205 7.026-6.171 12.383-12.475 9.066l-11.59-6.099a8.957 8.957 0 0 0-.01-2.967l-2.328-13.578a6.45 6.45 0 0 1 1.844-5.676l9.859-9.612c5.11-4.976 2.287-13.65-4.759-14.67l-13.629-1.978a6.432 6.432 0 0 1-4.832-3.513l-1.772-3.585 4.327-8.767c3.152-6.387 12.269-6.387 15.422 0l6.099 12.352a6.43 6.43 0 0 0 4.832 3.513l13.629 1.978c7.046 1.02 9.869 9.694 4.759 14.67z" fill="#fed402"></path><path d="M23.293 435.217H8.85a7.726 7.726 0 1 1 0-15.452h14.444a7.726 7.726 0 1 1-.001 15.452zM39.749 395.49a7.704 7.704 0 0 1-5.463-2.263l-10.213-10.213A7.727 7.727 0 0 1 35 372.087L45.212 382.3a7.725 7.725 0 0 1-5.463 13.19zM79.475 379.034a7.726 7.726 0 0 1-7.726-7.726v-14.444a7.726 7.726 0 1 1 15.452 0v14.444a7.725 7.725 0 0 1-7.726 7.726z" fill="#d8ecfe"></path><path d="m344.928 358.677-189.262-42.615c-6.955-1.566-13.863 2.803-15.429 9.758l-6.246 27.74c-1.566 6.955 2.803 13.863 9.758 15.429l189.262 42.615c6.955 1.566 13.863-2.803 15.429-9.758l6.246-27.74c1.565-6.956-2.804-13.863-9.758-15.429z" fill="#d77f4a"></path><path d="m344.928 358.677-189.262-42.615c-6.955-1.566-13.863 2.803-15.429 9.757l-.354 1.571c2.875-2.019 6.551-2.877 10.249-2.044l149.018 33.331c6.955 1.566 11.324 8.474 9.758 15.429l-4.676 20.493c-.921 4.091-3.697 7.275-7.237 8.894l36.016 8.11c6.955 1.566 13.863-2.803 15.429-9.757l6.246-27.74c1.565-6.956-2.804-13.863-9.758-15.429z" fill="#c86d36"></path></g></svg>