<svg viewBox="0 0 57 59" xmlns="http://www.w3.org/2000/svg"><g><g fill="none" fill-rule="evenodd" transform="translate(-1 -1)"><path d="M26.81 31.71h-.01L7.43 43.32a.7.7 0 0 1-.58.06l-5.37-1.79a.7.7 0 0 1-.47-.79l.84-4.94a2.02 2.02 0 0 1 .99-1.44c.385-.238.84-.34 1.29-.29l2.25.23a.7.7 0 0 0 .75-.53l.44-1.75a.725.725 0 0 1 .76-.53l2.33.24a.717.717 0 0 0 .77-.54c.18-.75.39-1.69.44-1.79.11-.313.42-.51.75-.48l2.33.24a.688.688 0 0 0 .75-.53l.53-2.05a.7.7 0 0 1 .31-.44l5.16-3.08a13 13 0 0 1 24.69-7.27c.348.746.616 1.527.8 2.33z" fill="#95a5a5"></path><path d="M6.766 40.056a1 1 0 0 1-.515-1.856l15.993-9.585a1 1 0 0 1 1.027 1.716L7.278 39.914a1 1 0 0 1-.512.142z" fill="#7f8c8d"></path><path d="M50.6 35.22a12.967 12.967 0 0 1-14.35 5.97L22.73 59.33a.684.684 0 0 1-.52.28l-5.64.39a.7.7 0 0 1-.74-.55l-1.1-4.89a2.113 2.113 0 0 1 .36-1.71c.27-.367.653-.634 1.09-.76l2.16-.64a.7.7 0 0 0 .5-.79l-.25-1.77a.716.716 0 0 1 .5-.79l2.24-.66a.71.71 0 0 0 .5-.79c-.11-.76-.28-1.7-.26-1.82a.716.716 0 0 1 .5-.73l2.24-.66a.7.7 0 0 0 .5-.79l-.3-2.09a.743.743 0 0 1 .13-.52l3.59-4.81a12.75 12.75 0 0 1-1.42-3.52 12.981 12.981 0 0 1 20.38-13.53 12 12 0 0 1 1.12.93 13.044 13.044 0 0 1 2.29 16.11z" fill="#f0c419"></path><path d="M20.488 56.645a1 1 0 0 1-.8-1.6l12.868-17.254a1 1 0 1 1 1.6 1.2L21.291 56.242a1 1 0 0 1-.803.403z" fill="#b19046"></path><circle cx="42.401" cy="24.586" fill="#95a5a5" r="3"></circle><path d="M58 13.5a12.559 12.559 0 0 1-6.16 10.77c-.048.03-.098.057-.15.08A12.387 12.387 0 0 1 45.5 26h-.13c-.11 0-.21 0-.32-.01a12.24 12.24 0 0 1-5.63-1.58c.018-.475.159-.937.41-1.34.043-.1.1-.195.17-.28.058-.084.125-.16.2-.23.07.04.14.08.22.12A10.431 10.431 0 0 0 45.34 24h.16a10.421 10.421 0 0 0 5.32-1.45.3.3 0 0 0 .07-.05A10.492 10.492 0 1 0 36.36 8.36a13.4 13.4 0 0 0-2.19-.12A12.494 12.494 0 0 1 58 13.5z" fill="#bdc3c7"></path></g></g></svg>