<svg viewBox="0 0 512 512" xmlns="http://www.w3.org/2000/svg"><g><path d="M496 288V67.313a8 8 0 0 0-2.343-5.656l-27.314-27.314A8 8 0 0 0 460.686 32H160c-17.673 0-32 14.327-32 32v96l13.487 20.229a4 4 0 0 1-1.539 5.797L128 192v259.508a16 16 0 0 0 12.119 15.522L192 480h272c17.673 0 32-14.327 32-32V320l-10.343-10.343a8 8 0 0 1 0-11.314z" fill="#b9af9b"></path><path d="M464 256V68.281a8 8 0 0 0-3.562-6.656l-42.422-28.281A8 8 0 0 0 413.578 32H272l-26.843 13.421a7.998 7.998 0 0 1-9.234-1.498L224 32h-64c-17.673 0-32 14.327-32 32v96l13.487 20.229a4 4 0 0 1-1.539 5.797L128 192v259.508a16 16 0 0 0 12.119 15.522L192 480h240c17.673 0 32-14.327 32-32V320l-15.789-7.895c-8.608-4.304-11.496-15.179-6.157-23.186z" fill="#f0e1cd"></path><path d="M317.333 179.644a7.977 7.977 0 0 1-2.666-.459 55.687 55.687 0 0 0-9.324-2.41 8 8 0 1 1 2.649-15.779A71.842 71.842 0 0 1 320 164.1a8 8 0 0 1-2.667 15.544zM240.569 320.001a7.997 7.997 0 0 1-6.932-3.996C227.333 305.106 224 292.656 224 280v-48c0-33.813 23.976-63.436 57.009-70.435 4.324-.919 8.568 1.846 9.484 6.168a8 8 0 0 1-6.168 9.484C258.642 182.66 240 205.699 240 232v48c0 9.847 2.589 19.527 7.487 27.994a8.001 8.001 0 0 1-6.918 12.007zM296 352a8 8 0 0 1 0-16c24.576 0 46.645-16.427 53.667-39.948a7.999 7.999 0 0 1 9.955-5.377 8 8 0 0 1 5.377 9.954c-4.343 14.545-13.434 27.623-25.599 36.825C326.82 346.97 311.813 352 296 352zM360 280a8 8 0 0 1-8-8v-40a55.933 55.933 0 0 0-13.998-37.039 8 8 0 0 1 11.996-10.588A71.924 71.924 0 0 1 368 232v40a8 8 0 0 1-8 8z" fill="#b9af9b"></path><path d="M328 306.667a8 8 0 0 1-8-8V232c0-13.234-10.767-24-24-24-2.037 0-4.058.254-6.006.756a8 8 0 1 1-3.988-15.495A40.141 40.141 0 0 1 296 192c22.056 0 40 17.944 40 40v66.667a8 8 0 0 1-8 8zM264 304a8 8 0 0 1-8-8v-64a39.71 39.71 0 0 1 3.338-16.015 8 8 0 1 1 14.658 6.413A23.819 23.819 0 0 0 272 232v64a8 8 0 0 1-8 8z" fill="#b9af9b"></path><path d="M266.667 341.333a8 8 0 0 1-5.657-13.656l13.702-13.703c8.569-8.568 13.288-19.961 13.288-32.079V240a8 8 0 0 1 16 0v41.895c0 16.392-6.384 31.803-17.975 43.393l-13.701 13.702a7.976 7.976 0 0 1-5.657 2.343z" fill="#b9af9b"></path><path d="M192 184a8 8 0 0 1-8-8v-40a8 8 0 0 1 8-8h40a8 8 0 0 1 0 16h-32v32a8 8 0 0 1-8 8zM232 384h-40a8 8 0 0 1-8-8v-40a8 8 0 0 1 16 0v32h32a8 8 0 0 1 0 16zM400 184a8 8 0 0 1-8-8v-32h-32a8 8 0 0 1 0-16h40a8 8 0 0 1 8 8v40a8 8 0 0 1-8 8zM400 384h-40a8 8 0 0 1 0-16h32v-32a8 8 0 0 1 16 0v40a8 8 0 0 1-8 8z" fill="#9b917d"></path><circle cx="144" cy="400" fill="#f0e1cd" r="16"></circle><path d="M144 384v32c8.837 0 16-7.163 16-16s-7.163-16-16-16z" fill="#b9af9b"></path><path d="M160 288h-32c-61.856 0-112-50.144-112-112S66.144 64 128 64h32c61.856 0 112 50.144 112 112s-50.144 112-112 112z" fill="#463c4b"></path><circle cx="128" cy="176" fill="#555a6e" r="112"></circle><circle cx="128" cy="176" fill="#fabe19" r="77.333"></circle><circle cx="96" cy="144" fill="#ffdc37" r="16"></circle><path d="M128 288h32v16h-32z" fill="#f0e1cd"></path><path d="M128 288v8h8a8 8 0 0 1 8 8h16v-16z" fill="#b9af9b"></path><path d="M160 400h-32a8 8 0 0 1-8-8v-80a8 8 0 0 1 8-8h32a8 8 0 0 1 8 8v80a8 8 0 0 1-8 8z" fill="#555a6e"></path><path d="M160 400h-16v-96h16a8 8 0 0 1 8 8v80a8 8 0 0 1-8 8z" fill="#463c4b"></path></g></svg>