<svg id="icons" height="512" viewBox="0 0 64 64" width="512" xmlns="http://www.w3.org/2000/svg"><path d="m5 48.5h54v8h-54z" fill="#914747"/><rect fill="#636a74" height="4" rx="1" width="21" x="42" y="11.5"/><path d="m58 39.5v3h-11v-3z" fill="#d8e0eb"/><path d="m60.88 15.5c-.07 1.67-.15 3.33-.22 5h-16.48c-.07-1.67-.15-3.33-.22-5z" fill="#e6ecf4"/><path d="m60 35.5c-.06 1.33-.12 2.67-.18 4h-14.81c-.06-1.33-.12-2.67-.17-4z" fill="#e6ecf4"/><path d="m62 42.5a1.00294 1.00294 0 0 1 1 1v4a1.00294 1.00294 0 0 1 -1 1h-60a1.00294 1.00294 0 0 1 -1-1v-4a1.00294 1.00294 0 0 1 1-1z" fill="#a05454"/><path d="m44.18 20.5h16.48l-.66 15h-15.16z" fill="#ffcfa0"/><path d="m61 8.74v2.76h-17v-2.76a1.2753 1.2753 0 0 1 1.31-1.24h14.38a1.2753 1.2753 0 0 1 1.31 1.24z" fill="#4d5662"/><rect fill="#636a74" height="4" rx="1" width="19" x="20" y="16.5"/><path d="m35 39.5v3h-11v-3z" fill="#d8e0eb"/><path d="m36.21 35.51-.21 3.99h-13l-.21-3.99.21-.01h13.07z" fill="#e6ecf4"/><path d="m36.07 35.5h-13.07l-.21.01q-.315-6-.63-12.01h14.68q-.315 6-.63 12.01z" fill="#ffcfa0"/><path d="m37 16.5h-15v-2.07a1.06725 1.06725 0 0 1 1.16-.93h12.68a1.06725 1.06725 0 0 1 1.16.93z" fill="#4d5662"/><path d="m22 20.5h15c-.05 1-.1 2-.16 3h-14.68c-.06-1-.11-2-.16-3z" fill="#e6ecf4"/><path d="m15 24.5q-.495 7.5-1 15h-10q-.495-7.5-1-15z" fill="#e6ecf4"/><path d="m13 39.5v3h-8v-3z" fill="#d8e0eb"/><path d="m4.15 17.5h9.61a.91231.91231 0 0 1 .88.93v2.07h-11.37v-2.07a.91231.91231 0 0 1 .88-.93z" fill="#4d5662"/><g fill="#636a74"><rect height="4" rx="1" width="16" x="1" y="20.5"/><path d="m33 33.5a.99943.99943 0 0 1 -1-1v-4.168l-1.959 1.25879a.99643.99643 0 0 1 -1.082 0l-1.959-1.25879v4.168a1 1 0 0 1 -2 0v-6a.99954.99954 0 0 1 1.541-.84082l2.959 1.90234 2.959-1.90234a.99954.99954 0 0 1 1.541.84082v6a.99943.99943 0 0 1 -1 1z"/><path d="m9 36.5h-2a1 1 0 0 1 0-2h2c.542 0 1-.34375 1-.75s-.458-.75-1-.75a2.76042 2.76042 0 1 1 0-5.5h2a1 1 0 0 1 0 2h-2c-.542 0-1 .34375-1 .75s.458.75 1 .75a2.76042 2.76042 0 1 1 0 5.5z"/><path d="m55 32.49805h-5a.99943.99943 0 0 1 -1-1v-8a1 1 0 0 1 2 0v7h4a1 1 0 0 1 0 2z"/></g></svg>