<svg viewBox="0 0 58 58" xmlns="http://www.w3.org/2000/svg"><g><g fill="none" fill-rule="nonzero"><path d="M8.6 30.33H5.82a1 1 0 0 0-.98.81L.46 53.62A2 2 0 0 0 2.43 56H24c0 1.1 2.24 2 5 2s5-.9 5-2h21.57a2 2 0 0 0 1.97-2.38l-4.38-22.48a1 1 0 0 0-.98-.81z" fill="#e64c3c"></path><path d="M29 33.24V52a23.151 23.151 0 0 0-4.55-1.44 34.21 34.21 0 0 0-17.89.91 1.008 1.008 0 0 1-1.29-1.12L8.6 30.33l.28-1.69c.072-.429.41-.763.84-.83.68-.1 1.38-.2 2.08-.28a7.133 7.133 0 0 0 6.34 3.87c.18 0 .35-.01.52-.02a7.45 7.45 0 0 0 1.95-.42.142.142 0 0 0 .02.06 5.258 5.258 0 0 0 4.96 3.49A5.167 5.167 0 0 0 29 33.24z" fill="#f5efca"></path><path d="M51.44 51.47a34.21 34.21 0 0 0-17.89-.91A23.151 23.151 0 0 0 29 52V33.24c.21-.172.404-.363.58-.57 1 .397 2.065.601 3.14.6h.06c.052.715.324 1.396.78 1.95a7.526 7.526 0 0 0 3.51 1.96 5.47 5.47 0 0 1 2.48 1.64 2.118 2.118 0 0 0 2.45.63 2.088 2.088 0 0 0 1.16-2.55c-.1-.31-.21-.62-.34-.92a7.8 7.8 0 0 0-.98-1.74 7.471 7.471 0 0 0 3.79-5.2c.03-.04.07-.08.1-.12.342-.403.622-.854.83-1.34.58.07 1.15.14 1.72.23.43.067.768.401.84.83l.28 1.69 3.33 20.02a1.008 1.008 0 0 1-1.29 1.12z" fill="#f9eab0"></path><path d="M34 56c0 1.1-2.24 2-5 2s-5-.9-5-2l.45-5.44c1.562.322 3.087.805 4.55 1.44a23.151 23.151 0 0 1 4.55-1.44z" fill="#c03a2b"></path><path d="M47 25.49c0 .72-.15 1.431-.44 2.09a5.274 5.274 0 0 1-.83 1.34c-.03.04-.07.08-.1.12a7.471 7.471 0 0 1-3.79 5.2c.4.536.73 1.12.98 1.74.13.3.24.61.34.92A2.088 2.088 0 0 1 42 39.45a2.118 2.118 0 0 1-2.45-.63 5.47 5.47 0 0 0-2.48-1.64 7.526 7.526 0 0 1-3.51-1.96 3.464 3.464 0 0 1-.78-1.95h-.06a8.474 8.474 0 0 1-3.14-.6c-.176.207-.37.398-.58.57a5.167 5.167 0 0 1-3.41 1.27 5.258 5.258 0 0 1-4.96-3.49.142.142 0 0 1-.02-.06 7.45 7.45 0 0 1-2.47.44 7.145 7.145 0 0 1-5.72-11.42 2.921 2.921 0 0 1-.18-1.02 3.1 3.1 0 0 1 2.48-3.05.035.035 0 0 1 .02-.01 3.937 3.937 0 0 1 .32-1.98 4.029 4.029 0 0 1 3.7-2.43 3.946 3.946 0 0 1 1.75.4A5.906 5.906 0 0 1 25.59 9a5.8 5.8 0 0 1 3.88 1.47 3.1 3.1 0 0 1 5.5.45 7.458 7.458 0 0 1 8.28 6.79h.03a3.1 3.1 0 0 1 3.1 3.11 3.209 3.209 0 0 1-.4 1.54A5.3 5.3 0 0 1 47 25.49z" fill="#fb7b76"></path><path d="M29 3a1 1 0 0 1-1-1V1a1 1 0 0 1 2 0v1a1 1 0 0 1-1 1zM45.117 9.883a1 1 0 0 1-.707-1.707l1-1a1 1 0 1 1 1.414 1.414l-1 1a1 1 0 0 1-.707.293zM12.883 9.883a1 1 0 0 1-.707-.293l-1-1a1 1 0 1 1 1.414-1.414l1 1a1 1 0 0 1-.707 1.707zM20.581 5.675a1 1 0 0 1-.924-.617l-1.148-2.772a1 1 0 1 1 1.847-.766l1.149 2.772a1 1 0 0 1-.924 1.383zM37.419 5.675a1 1 0 0 1-.924-1.383l1.149-2.772a1 1 0 1 1 1.847.766l-1.148 2.772a1 1 0 0 1-.924.617zM49.325 17.582a1 1 0 0 1-.383-1.925l2.772-1.148a1 1 0 1 1 .765 1.848l-2.771 1.148a1 1 0 0 1-.383.077zM8.675 17.582a1 1 0 0 1-.383-.077l-2.771-1.148a1 1 0 0 1 .765-1.848l2.772 1.148a1 1 0 0 1-.383 1.925z" fill="#f0c419"></path><g fill="#ff5364"><path d="M45.73 28.92c-.03.04-.07.08-.1.12a7.335 7.335 0 0 1-1.08 2.7 5.793 5.793 0 0 1-1.61.22 6.305 6.305 0 0 1-2.85-.69 6.551 6.551 0 0 1-1.17-.8 3.466 3.466 0 0 1-4.37-1.68 1.002 1.002 0 0 1 1.79-.9 1.5 1.5 0 0 0 2.17.55c.4-.273.64-.726.64-1.21.001-.232-.05-.46-.15-.67a1 1 0 0 1 1.78-.9c.243.488.37 1.025.37 1.57a3.457 3.457 0 0 1-.63 1.95c.16.11.32.22.48.31.6.309 1.265.47 1.94.47a4.2 4.2 0 0 0 2.79-1.04zM33.5 24.994a5.971 5.971 0 0 0 2.479-3.806 1 1 0 1 0-1.964-.376 3.986 3.986 0 0 1-1.656 2.539 4.082 4.082 0 0 1-5.264-.6 1.001 1.001 0 1 0-1.48 1.349 6.03 6.03 0 0 0 3.205 1.848 2.979 2.979 0 0 1-2.434 1.252 1 1 0 0 0 0 2 4.959 4.959 0 0 0 4.659-3.207 6.025 6.025 0 0 0 2.455-.999zM42.82 35.98a7.827 7.827 0 0 1-2.34.76.86.86 0 0 1-.16.01 1 1 0 0 1-.15-1.99 5.789 5.789 0 0 0 1.67-.52c.4.536.73 1.12.98 1.74zM20.54 29c-.05.28-.077.565-.08.85-.002.375.048.749.15 1.11a7.45 7.45 0 0 1-1.95.42 6.167 6.167 0 0 1-.2-1.5 3.477 3.477 0 0 1-3.1-3.45 1.014 1.014 0 0 1 1-1.02.994.994 0 0 1 1 .99v.03a1.5 1.5 0 0 0 1.43 1.47c.138-.451.33-.884.57-1.29a.986.986 0 0 1 1.37-.34c.47.29.621.904.34 1.38a4.183 4.183 0 0 0-.53 1.35zM35.41 34.85c-.6.192-1.221.316-1.85.37a3.464 3.464 0 0 1-.78-1.95c.097.002.194-.001.29-.01a7.588 7.588 0 0 0 1.75-.32 1 1 0 1 1 .59 1.91zM26.8 17a1 1 0 0 0-1-1 4.605 4.605 0 0 0-4.6 4.6 1 1 0 0 0 2 0 2.6 2.6 0 0 1 2.6-2.6 1 1 0 0 0 1-1zM13.748 22.623a.989.989 0 0 1-.515-.144A4.114 4.114 0 0 1 11.47 20.3a4.112 4.112 0 0 1 3.871-5.459A4.059 4.059 0 0 1 18.63 16.5a1 1 0 1 1-1.606 1.193 2.074 2.074 0 0 0-1.679-.848 2.113 2.113 0 0 0-1.08 3.922 1 1 0 0 1-.517 1.857zM35.207 13.111a1 1 0 0 1-1-1 2.103 2.103 0 1 0-4.207 0 1 1 0 0 1-2 0 4.103 4.103 0 1 1 8.207 0 1 1 0 0 1-1 1zM44.587 24.641a1 1 0 0 1-.426-1.9c.399-.187.73-.493.947-.876a2.1 2.1 0 0 0-3.092-2.727 1 1 0 0 1-1.2-1.6c.7-.53 1.552-.819 2.43-.824a4.111 4.111 0 0 1 1.769 7.835.987.987 0 0 1-.428.092z" fill="#ff5364"></path></g></g></g></svg>