<svg viewBox="0 0 512.002 512" xmlns="http://www.w3.org/2000/svg"><g><path d="M53.164 266.969a31.611 31.611 0 0 1 1.918-2.254l5.387-11.356-6.282-6.347a29.454 29.454 0 0 1-2 8.582c-.035.054-.062.074-.09.086a28.658 28.658 0 0 1-8.449 2.008l8.118 8.207c.425.43.902.77 1.398 1.074zm0 0" fill="#563d28"></path><path d="M52.871 256.344c-.11.105-.234.191-.379.254-11.176 4.539-23.894 1.91-32.406-6.696-8.512-8.601-11.113-21.46-6.625-32.757a1.119 1.119 0 0 1 .629-.637c11.172-4.54 23.894-1.91 32.406 6.691 8.516 8.606 11.113 21.469 6.621 32.762a1.13 1.13 0 0 1-.246.383zm0 0" fill="#009e2f"></path><path d="M32.434 237.488c-6.149-6.215-9.192-14.652-8.727-23.113a29.69 29.69 0 0 0-9.617 2.133 1.119 1.119 0 0 0-.629.637c-4.488 11.296-1.887 24.152 6.625 32.757 8.512 8.606 21.23 11.235 32.406 6.696.145-.063.27-.149.38-.254.105-.11.19-.239.25-.383a30.669 30.669 0 0 0 2.105-9.649 29.772 29.772 0 0 1-22.793-8.824zm0 0" fill="#00752c"></path><path d="M160.422 233.313c.5-.31.976-.672 1.41-1.11l8.117-8.207a28.673 28.673 0 0 1-8.469-2.02l-.074-.074a29.707 29.707 0 0 1-2-8.582l-5.722 5.79zm0 0" fill="#563d28"></path><path d="M160.727 222.652c.109.106.234.196.378.254 11.176 4.54 23.895 1.91 32.407-6.695 8.511-8.606 11.113-21.461 6.625-32.762a1.203 1.203 0 0 0-.25-.383 1.304 1.304 0 0 0-.38-.25c-11.171-4.539-23.894-1.914-32.41 6.692-8.511 8.605-11.109 21.465-6.62 32.762.058.144.144.273.25.382zm0 0" fill="#009e2f"></path><path d="M179.875 202.77a29.792 29.792 0 0 1 22.406-8.844 30.661 30.661 0 0 0-2.144-10.477 1.203 1.203 0 0 0-.25-.383 1.304 1.304 0 0 0-.38-.25c-11.171-4.539-23.894-1.914-32.41 6.692-8.511 8.605-11.109 21.465-6.62 32.762.058.144.144.273.25.382.109.106.234.196.378.254a29.712 29.712 0 0 0 10 2.153c-.23-8.18 2.82-16.274 8.77-22.29zm0 0" fill="#00752c"></path><path d="M172.68 259.125a29.714 29.714 0 0 1 2.418 2.8l-42.075-88.714c-2.972 4.223-7.378 7.348-12.503 8.644l32.585 68.704c7.391.23 14.31 3.246 19.575 8.566zM202.813 320.363l-22.446-47.328a29.574 29.574 0 0 1-1.285 17.781.251.251 0 0 1-.094.086 28.714 28.714 0 0 1-5.945 1.692l16.96 35.758c3.673-3.68 8.048-6.383 12.81-7.989zM97.375 173.21l-69.79 147.153c4.763 1.606 9.138 4.309 12.81 7.992l14.472-30.52a30.25 30.25 0 0 1-4.719-1.437l-.086-.085c-4.44-10.95-1.87-23.418 6.547-31.77a29.576 29.576 0 0 1 18.075-8.484l35.191-74.204c-5.121-1.296-9.523-4.421-12.5-8.644zm0 0" fill="#72563c"></path><path d="M92.773 156.063a23.23 23.23 0 0 0-.425 4.425c0 12.719 10.23 23.032 22.851 23.032 12.617 0 22.848-10.313 22.848-23.032a23.23 23.23 0 0 0-.426-4.425zm0 0" fill="#b57a4e"></path><path d="M108.031 160.488c0-1.515.164-2.992.442-4.425h-15.7a23.23 23.23 0 0 0-.425 4.425c0 12.719 10.23 23.032 22.851 23.032 2.754 0 5.395-.489 7.84-1.391-8.754-3.227-15.008-11.7-15.008-21.64zm0 0" fill="#9b5729"></path><path d="M163.871 151.938c0 2.82-2.305 5.125-5.121 5.125H71.648c-2.816 0-5.12-2.305-5.12-5.125v-12.426c0-2.817 2.304-5.121 5.12-5.121h87.102c2.816 0 5.117 2.304 5.117 5.12v12.427zm0 0" fill="#f8d5ab"></path><path d="M97.793 151.938v-12.426c0-2.817 2.305-5.121 5.117-5.121H71.648c-2.816 0-5.12 2.304-5.12 5.12v12.427c0 2.82 2.304 5.125 5.12 5.125h31.262c-2.812 0-5.117-2.305-5.117-5.125zm0 0" fill="#eac092"></path><path d="M49.39 297.074a1.213 1.213 0 0 1-.253-.383c-4.594-11.328-1.934-24.226 6.77-32.855 8.706-8.633 21.714-11.27 33.144-6.715.148.055.277.145.39.25.106.11.192.238.254.387 4.59 11.328 1.934 24.226-6.77 32.855-8.706 8.633-21.718 11.266-33.148 6.715a1.208 1.208 0 0 1-.386-.254zm0 0" fill="#99ce19"></path><path d="M68.477 275.809c6.28-6.223 14.796-9.313 23.347-8.852a30.278 30.278 0 0 0-2.129-9.2 1.125 1.125 0 0 0-.645-.637c-11.429-4.554-24.437-1.917-33.144 6.716-8.703 8.633-11.363 21.527-6.77 32.855a1.147 1.147 0 0 0 .64.637 30.743 30.743 0 0 0 9.798 2.137 30.22 30.22 0 0 1 8.903-23.656zm0 0" fill="#81aa00"></path><path d="M179.766 291.566a1.371 1.371 0 0 1-.38.254c-11.175 4.54-23.894 1.907-32.41-6.691-8.507-8.61-11.109-21.465-6.62-32.762.054-.148.14-.277.25-.387.109-.101.234-.19.378-.25 11.172-4.539 23.895-1.914 32.407 6.692s11.113 21.469 6.62 32.762c-.058.144-.14.273-.245.382zm0 0" fill="#99ce19"></path><path d="M158.988 272.68c-6.136-6.207-9.18-14.621-8.73-23.067-3.13.207-6.258.89-9.274 2.117-.144.06-.27.149-.382.25a1.11 1.11 0 0 0-.247.387c-4.492 11.297-1.89 24.149 6.622 32.762 8.511 8.601 21.234 11.23 32.41 6.691.14-.062.265-.148.375-.254.105-.109.191-.238.25-.382a30.63 30.63 0 0 0 2.11-9.696 29.801 29.801 0 0 1-23.134-8.808zm0 0" fill="#81aa00"></path><path d="M103.902 349.527a6.471 6.471 0 0 1 2.387-1.515 34.762 34.762 0 0 0 .621-27.153 1.267 1.267 0 0 0-.285-.437 1.399 1.399 0 0 0-.43-.285c-12.699-5.157-27.152-2.168-36.828 7.605-7.965 8.055-11.36 19.383-9.465 30.301h35.493zm0 0" fill="#009e2f"></path><path d="M72.332 358.043a34.455 34.455 0 0 1 9.414-18.168c7.336-7.414 17.418-10.91 27.402-9.93a34.757 34.757 0 0 0-2.238-9.086 1.267 1.267 0 0 0-.285-.437 1.399 1.399 0 0 0-.43-.285c-12.699-5.157-27.152-2.168-36.828 7.605-7.965 8.055-11.36 19.383-9.465 30.301zm0 0" fill="#00752c"></path><path d="M50.672 358.043c1.894-10.914-1.504-22.246-9.473-30.297-9.672-9.781-24.125-12.77-36.82-7.61a1.372 1.372 0 0 0-.434.286 1.39 1.39 0 0 0-.285.437c-5.094 12.82-2.152 27.403 7.485 37.184zm0 0" fill="#99ce19"></path><path d="M50.664 358.043c.129-.742.234-1.488.316-2.234-10.09 1.097-20.316-2.391-27.73-9.887-7.422-7.504-10.871-17.856-9.777-28.067a33.817 33.817 0 0 0-9.094 2.282 1.372 1.372 0 0 0-.434.285 1.39 1.39 0 0 0-.285.437c-5.094 12.82-2.152 27.403 7.485 37.184zm0 0" fill="#81aa00"></path><path d="M219.25 358.043c9.637-9.777 12.578-24.363 7.484-37.184a1.267 1.267 0 0 0-.285-.437 1.399 1.399 0 0 0-.43-.285c-12.695-5.157-27.152-2.168-36.828 7.61-7.964 8.05-11.359 19.378-9.464 30.296zm0 0" fill="#99ce19"></path><path d="M193.613 358.043a34.463 34.463 0 0 1 9.168-16.934c7.07-7.144 16.688-10.64 26.309-10.007a34.816 34.816 0 0 0-2.356-10.243 1.267 1.267 0 0 0-.285-.437 1.399 1.399 0 0 0-.43-.285c-12.695-5.157-27.152-2.168-36.824 7.61-7.968 8.05-11.363 19.378-9.468 30.296zm0 0" fill="#81aa00"></path><path d="M161.027 327.742c-9.675-9.777-24.129-12.765-36.824-7.605a1.372 1.372 0 0 0-.433.285c-.122.125-.215.27-.282.437a34.753 34.753 0 0 0 .715 27.356c.695.316 1.34.758 1.895 1.312l8.511 8.52h35.887c1.895-10.918-1.504-22.25-9.469-30.305zm0 0" fill="#009e2f"></path><path d="m126.098 349.527 8.511 8.516h31.875a33.824 33.824 0 0 1-19.722-9.785c-8.035-8.125-11.418-19.586-9.41-30.594a33.731 33.731 0 0 0-13.149 2.473 1.354 1.354 0 0 0-.43.285c-.12.125-.214.27-.285.433a34.779 34.779 0 0 0 .715 27.36c.695.316 1.34.754 1.895 1.312zm0 0" fill="#00752c"></path><g fill="#72563c"><path d="M410.898 180.23a74.861 74.861 0 0 0-13.175 8.11l3.691 11.777a77.17 77.17 0 0 1 14.273-4.617zM404.078 158.477 367.801 42.78c-3.703 3.407-8.57 5.547-13.918 5.739l35.957 114.683a78.05 78.05 0 0 1 14.238-4.726zM409.953 227.352l4.348 13.855h15.719l-5.63-17.957a72.926 72.926 0 0 0-14.437 4.102zM311.73 145.191l.618.48.617-.48c4.332-3.398 7.957-4.414 10.457-4.601l28.867-92.07c-5.348-.192-10.215-2.333-13.918-5.739l-31.203 99.512c1.406.687 2.934 1.621 4.562 2.898zM304.738 200.176l3.73-11.895a76.367 76.367 0 0 0-7.823-5.254l-.227-.132-.258-.004c-2-.04-3.773-.61-5.21-1.63l-4.473 14.27a76.941 76.941 0 0 1 14.261 4.645zM291.871 241.207l4.328-13.8a73.193 73.193 0 0 0-14.426-4.13l-5.62 17.93zm0 0" fill="#72563c"></path></g><path d="M488.781 216.14c-15.02-15.144-34.992-23.48-56.238-23.48-21.246 0-41.219 8.34-56.238 23.48a84.576 84.576 0 0 0-1.739 1.817c-.277.64-.554 1.281-.816 1.934l-.633 1.574 1.684-.207c.46-.059.886-.086 1.308-.086 2.489 0 6.477.805 11.364 4.633l.617.484.617-.484c4.89-3.828 8.879-4.633 11.363-4.633 3.746 0 6.813 1.875 8.2 5.016.367.828.609 1.71.73 2.632 8.863-3.746 18.465-5.715 28.367-5.715 19.594 0 38.02 7.692 51.875 21.66 7.457 7.516 13.113 16.368 16.809 26.301a3.071 3.071 0 0 0 5.949-1.183c-.73-20.297-8.977-39.387-23.219-53.742zm0 0" fill="#6ee5d9"></path><path d="M471.305 173.332c-14.102-11.477-31.813-17.8-49.871-17.8-1.868 0-3.762.07-5.633.202-27.332 1.926-50.508 17.633-63.301 39.903 7.777 13.308 11.79 29.023 10.64 45.562v.008h6.532c.066-.719.117-1.437.203-2.148-2.82-4.704-3.555-9.282-1.965-12.871 1.152-2.602 3.461-4.317 6.348-4.833 9.949-25.933 34.047-45.156 63.332-47.222a73.57 73.57 0 0 1 5.164-.184 72.369 72.369 0 0 1 25.535 4.645c.352.133.719.195 1.078.195a3.075 3.075 0 0 0 1.938-5.457zM316.73 241.207h20.801a75.014 75.014 0 0 0-5.82-22.992 90.071 90.071 0 0 0-1.98-2.074c-15.024-15.141-34.997-23.48-56.243-23.48-21.246 0-41.215 8.339-56.234 23.48-14.242 14.355-22.488 33.445-23.219 53.742a3.078 3.078 0 0 0 3.074 3.183 3.07 3.07 0 0 0 2.875-2c3.696-9.933 9.348-18.78 16.809-26.3 13.855-13.97 32.281-21.66 51.875-21.66 17.855 0 34.723 6.402 48.062 18.101zm0 0" fill="#00b4ac"></path><path d="M336.527 241.207h27.618c1.906-27.754-10.528-53.227-30.91-69.059.273 2.075.05 4.024-.708 5.739-1.39 3.14-4.457 5.015-8.203 5.02-2.48 0-6.469-.805-11.36-4.637l-.616-.485-.618.485c-4.89 3.832-8.878 4.636-11.363 4.636-.898 0-1.754-.117-2.558-.32 21.492 11.523 36.449 33.441 38.718 58.621zM292.164 177.89c-1.887-4.273-.504-9.94 3.793-15.554l.465-.61-.465-.605c-1.32-1.726-2.363-3.457-3.125-5.148-.82-.086-1.637-.18-2.46-.239a79.917 79.917 0 0 0-5.638-.199c-18.054 0-35.761 6.32-49.867 17.8a3.074 3.074 0 0 0 3.02 5.263 72.353 72.353 0 0 1 25.535-4.645 72.53 72.53 0 0 1 30.98 6.918 8.204 8.204 0 0 1-2.238-2.98zm0 0" fill="#6ee5d9"></path><path d="m277.594 277.598 24.668 106.058c.636 2.746 3.46 4.989 6.277 4.989h89.094c2.816 0 5.64-2.243 6.277-4.989l24.668-106.058zm0 0" fill="#eac092"></path><path d="m333.203 383.656-24.668-106.058h-30.941l24.668 106.058c.636 2.746 3.465 4.989 6.277 4.989h30.945c-2.816 0-5.644-2.243-6.28-4.989zm0 0" fill="#e0aa68"></path><path d="M330.746 21.672a23.252 23.252 0 0 0-.512 4.84c0 12.718 10.23 23.031 22.852 23.031 12.617 0 22.851-10.313 22.851-23.031 0-1.66-.18-3.278-.511-4.84zm0 0" fill="#b57a4e"></path><path d="M345.602 26.512c0-1.664.187-3.278.52-4.84h-15.376a23.252 23.252 0 0 0-.512 4.84c0 12.718 10.23 23.031 22.852 23.031 2.695 0 5.281-.473 7.684-1.34-8.84-3.18-15.168-11.687-15.168-21.691zm0 0" fill="#9b5729"></path><path d="M436.875 240.207H405.57a29.21 29.21 0 0 1-1.093 1.531l-.465.61.465.609c4.3 5.606 5.68 11.273 3.793 15.547-1.391 3.14-4.457 5.016-8.204 5.016-2.484 0-6.468-.805-11.359-4.633l-.617-.485-.617.485c-4.891 3.828-8.88 4.633-11.364 4.633-3.746 0-6.812-1.875-8.203-5.016-1.886-4.274-.508-9.941 3.793-15.547l.465-.61-.465-.609a29.21 29.21 0 0 1-1.094-1.531H269.297c-2.817 0-5.121 2.305-5.121 5.121v28.149c0 2.812 2.304 5.12 5.12 5.12h167.579c2.816 0 5.117-2.308 5.117-5.12v-28.149c.004-2.816-2.3-5.121-5.117-5.121zm0 0" fill="#f8d5ab"></path><path d="M295.781 273.477v-28.149c0-2.816 2.305-5.121 5.121-5.121h-31.605c-2.817 0-5.121 2.305-5.121 5.121v28.149c0 2.812 2.304 5.12 5.12 5.12h31.606c-2.816 0-5.12-2.304-5.12-5.12zm0 0" fill="#eac092"></path><path d="M400.066 264.52c-2.738 0-6.921-.887-11.976-4.848-5.055 3.96-9.242 4.848-11.98 4.848-4.157 0-7.563-2.098-9.118-5.61-2.047-4.637-.582-10.7 3.91-16.562-4.492-5.868-5.957-11.934-3.91-16.563 1.555-3.512 4.961-5.613 9.117-5.613 2.739 0 6.922.887 11.98 4.848 5.052-3.961 9.24-4.848 11.977-4.848 4.157 0 7.563 2.101 9.118 5.613 2.05 4.633.582 10.695-3.914 16.563 4.496 5.863 5.96 11.925 3.914 16.562-1.555 3.512-4.961 5.61-9.118 5.61zm0 0" fill="#e62937"></path><path d="M382.375 258.91c-2.05-4.637-.582-10.7 3.91-16.562-4.492-5.868-5.957-11.934-3.91-16.563a9.114 9.114 0 0 1 2.254-3.101c-3.508-1.993-6.434-2.512-8.52-2.512-4.152 0-7.558 2.101-9.113 5.61-2.05 4.632-.582 10.698 3.91 16.566-4.496 5.863-5.96 11.925-3.914 16.558 1.559 3.516 4.965 5.614 9.117 5.614h.004c2.082 0 5.008-.52 8.512-2.512a9.051 9.051 0 0 1-2.25-3.098zm0 0" fill="#cf043c"></path><path d="M324.324 183.906c-2.738 0-6.926-.89-11.976-4.847-5.055 3.957-9.243 4.847-11.98 4.847-4.153 0-7.56-2.097-9.114-5.613-2.05-4.633-.586-10.695 3.91-16.566-4.492-5.86-5.96-11.926-3.91-16.559 1.555-3.512 4.96-5.613 9.113-5.613 2.738 0 6.926.886 11.98 4.847 5.055-3.96 9.239-4.847 11.977-4.847 4.156 0 7.563 2.101 9.117 5.613 2.047 4.633.582 10.7-3.91 16.559 4.492 5.863 5.957 11.933 3.91 16.566-1.554 3.512-4.96 5.61-9.117 5.613zm0 0" fill="#e62937"></path><path d="M307.598 178.293c-2.051-4.633-.582-10.695 3.91-16.566-4.492-5.86-5.961-11.926-3.91-16.559a9.273 9.273 0 0 1 1.89-2.746c-3.773-2.29-6.918-2.867-9.12-2.867-4.153 0-7.56 2.101-9.114 5.613-2.05 4.633-.582 10.7 3.91 16.559-4.492 5.87-5.96 11.933-3.91 16.566 1.555 3.516 4.96 5.613 9.113 5.613 2.207 0 5.348-.582 9.121-2.863a9.1 9.1 0 0 1-1.89-2.75zm0 0" fill="#cf043c"></path><path d="M401.758 17.55c0 2.817-2.305 5.122-5.121 5.122h-87.102c-2.816 0-5.12-2.305-5.12-5.121V5.12c0-2.816 2.304-5.121 5.12-5.121h87.102c2.816 0 5.12 2.305 5.12 5.121zm0 0" fill="#f8d5ab"></path><path d="M335.36 17.55V5.122c0-2.816 2.304-5.121 5.12-5.121h-30.945c-2.816 0-5.12 2.305-5.12 5.121v12.43c0 2.816 2.304 5.12 5.12 5.12h30.945c-2.816 0-5.12-2.304-5.12-5.12zm0 0" fill="#eac092"></path><path d="M226.855 357.043H133.61l14.395 14.41a34.638 34.638 0 0 0-6.766 1.914l-.191.078-.23.192c-.145.152-.239.289-.297.433a33.466 33.466 0 0 0-1.868 6.414l-21.75-21.77a6.737 6.737 0 0 1-1.035-1.362l-.176-.309h-1.382l-.176.309a6.494 6.494 0 0 1-1.035 1.363l-21.746 21.77a33.105 33.105 0 0 0-1.864-6.395 1.3 1.3 0 0 0-.691-.707 34.7 34.7 0 0 0-6.8-1.93l14.394-14.41H3.547c-1.961 0-3.547 1.602-3.547 3.574 0 64.028 51.68 116.121 115.2 116.121s115.198-52.093 115.198-116.12c0-1.973-1.585-3.575-3.543-3.575zm0 0" fill="#b57a4e"></path><path d="M26 360.617c0-1.972 1.586-3.574 3.547-3.574h-26c-1.961 0-3.547 1.602-3.547 3.574 0 64.028 51.68 116.121 115.2 116.121 4.374 0 8.69-.265 12.94-.75C70.747 469.43 26 420.195 26 360.618zm0 0" fill="#9b5729"></path><path d="M141.441 374.453a.39.39 0 0 1 .082-.11c.008-.003.043-.027.086-.046a33.292 33.292 0 0 1 8.508-2.14l-23.312-23.337a7.5 7.5 0 0 0-10.606-.007A7.66 7.66 0 0 0 115 350.39a7.66 7.66 0 0 0-1.2-1.579 7.5 7.5 0 0 0-10.605.008L79.88 372.156a33.292 33.292 0 0 1 8.523 2.145c.032.015.067.039.094.066.024.024.05.063.067.098a32.553 32.553 0 0 1 2.105 8.117l23.137-23.16c.48-.48.87-1.012 1.195-1.574.32.562.715 1.093 1.191 1.574l23.141 23.164a32.677 32.677 0 0 1 2.11-8.133zm0 0" fill="#563d28"></path><path d="M89.2 373.652c.12.125.218.266.284.426 5.106 12.59 2.149 26.918-7.523 36.512-9.676 9.586-24.129 12.515-36.824 7.46a1.215 1.215 0 0 1-.434-.284 1.404 1.404 0 0 1-.285-.426c-5.102-12.586-2.145-26.918 7.523-36.504 9.676-9.594 24.133-12.52 36.832-7.465.16.067.305.164.426.281zm0 0" fill="#99ce19"></path><path d="M65.79 391.223c6.925-6.871 16.304-10.301 25.733-9.852a33.908 33.908 0 0 0-2.039-7.293c-.066-.16-.164-.3-.285-.426a1.37 1.37 0 0 0-.426-.28c-12.699-5.056-27.156-2.13-36.832 7.464-9.668 9.586-12.62 23.918-7.523 36.504.07.164.168.305.285.426.121.12.266.222.434.285a34.416 34.416 0 0 0 11.09 2.383c-1.7-10.551 1.722-21.442 9.562-29.211zm0 0" fill="#81aa00"></path><path d="M140.8 373.652a1.359 1.359 0 0 0-.284.426c-5.106 12.59-2.149 26.918 7.523 36.512 9.676 9.586 24.125 12.515 36.824 7.46.168-.062.313-.163.434-.284.117-.121.215-.262.285-.426 5.098-12.586 2.148-26.918-7.523-36.504-9.676-9.594-24.13-12.52-36.829-7.465a1.344 1.344 0 0 0-.43.281zm0 0" fill="#99ce19"></path><path d="M161.324 397.7c-7.21-7.15-10.68-16.934-9.87-26.669a34.594 34.594 0 0 0-10.227 2.34 1.37 1.37 0 0 0-.426.281 1.359 1.359 0 0 0-.285.426c-5.106 12.59-2.149 26.918 7.523 36.512 9.676 9.586 24.125 12.515 36.824 7.46a1.25 1.25 0 0 0 .434-.284c.117-.121.215-.262.285-.426a33.63 33.63 0 0 0 2.344-9.84c-9.719.71-19.461-2.727-26.602-9.8zm0 0" fill="#81aa00"></path></g></svg>