<svg viewBox="0 0 512 512" xmlns="http://www.w3.org/2000/svg"><g><g><circle cx="235.264" cy="214.307" fill="#ff8d5c" r="162.944"></circle><path d="M288.004 60.094A163.047 163.047 0 0 1 81.05 267.048 162.968 162.968 0 1 0 288.004 60.094z" fill="#ff774d"></path><path d="M370.217 305.645c21.975-92.177-20.359-140.242-47.686-173.1-10.236-12.307-19.3-23.22-24.591-34.08 30.437 1.537 52.908 12.714 72.352 24.612a163.667 163.667 0 0 0-16.073-20.112c-18.473-8.743-37.858-14.26-60.078-14.81a47.796 47.796 0 0 1 .97-25.412l.012-.031q-4.637-1.833-9.413-3.376a57.094 57.094 0 0 0-1.789 28.914 195.115 195.115 0 0 0-45.415 7.783c-17.777-21.922-34.362-34.96-41.566-40.125q-6.457 1.557-12.706 3.617l3.638 2.288c.22.14 19.103 12.185 40.291 37.407-10.345 3.41-25.68 8.396-48.756 23.54-22.318-20.25-48.417-21.08-63.54-19.32q-5.444 5.86-10.305 12.239l.754-.238c.375-.116 36.002-10.94 64.606 13.183-57.334 41.592-80.963 100.785-89.192 140.354a161.95 161.95 0 0 0 7.317 17.298c1.073-10.279 12.225-95.66 89.1-150.524 13.482 15.98 9.316 32.827 2.686 59.638-9.41 38.06-22.25 90.005 7.295 174.928q5.76 1.738 11.693 3.056c-30.17-84.42-20.05-132.032-9.28-175.584 6.574-26.585 11.851-47.991-4.092-67.665 22.373-14.413 37.893-19.244 48.446-22.524 50.679 66.04 53.615 137.089 52.151 177.79l9.993.36c1.265-35.18.811-110.224-51.846-181.11a182.329 182.329 0 0 1 41.75-6.304c5.445 13.588 15.91 26.188 27.9 40.602 30.832 37.074 69.205 83.213 42.558 176.137z" fill="#414344"></path><path d="M459.447 336.68a177.511 177.511 0 0 0 7.217-27.62 19.92 19.92 0 0 0-8.162-19.703 177.523 177.523 0 0 0-24.64-14.43l5.971 30.876z" fill="#b56959"></path><path d="M219.608 448.882a177.355 177.355 0 0 1-39.557-21.305 19.95 19.95 0 0 1-8.018-19.358 177.341 177.341 0 0 1 12.86-42.93l25.87 41.796z" fill="#a85b4a"></path><path d="M247.283 457.05c29.41 6.101 65.999 5.715 107.46-11.46 48.35-20.026 76.13-51.617 92.078-80.541l-12.959-54.975-28.94-46.263c-31.733-9.186-73.731-11.89-122.1 8.145-41.465 17.176-67.612 42.778-84.094 67.89l17.36 61.38z" fill="#b56959"></path><path d="M360.674 425.956A127.48 127.48 0 0 1 233.23 301.408a172.212 172.212 0 0 0-34.501 38.438l17.359 61.38 31.195 55.824c29.41 6.1 66 5.715 107.461-11.46a197.178 197.178 0 0 0 44.96-25.729 127.372 127.372 0 0 1-39.03 6.095z" fill="#a85b4a"></path><path d="m404.875 263.806 41.936 101.242a183.817 183.817 0 0 0 12.635-28.378l-25.57-61.732a183.822 183.822 0 0 0-29.001-11.132zM385.008 292.287q-16.371 2.687-33.19 7.213l-3.277-7.914c-2.53-6.107-11.772-2.29-9.24 3.826l2.83 6.83q-17.595 5.234-35.452 12.385l-2.729-6.588c-2.532-6.12-11.767-2.278-9.239 3.826l2.729 6.586q-17.642 7.544-33.827 16.309l-2.827-6.825c-2.537-6.125-11.764-2.271-9.239 3.826l3.276 7.906q-10.02 5.777-19.343 11.995c-5.571 3.716.117 11.946 5.548 8.319q8.515-5.68 17.657-10.989l3.759 9.073c2.527 6.105 11.783 2.314 9.238-3.826l-4.221-10.191q16.107-8.777 33.806-16.358l4.34 10.48c2.528 6.104 11.784 2.313 9.24-3.826l-4.34-10.478q17.852-7.152 35.47-12.34l4.22 10.19c2.531 6.11 11.781 2.31 9.24-3.825l-3.759-9.074q15.662-4.143 30.95-6.663c6.524-1.07 4.918-10.936-1.62-9.867z" fill="#f2f2ff"></path><path d="M219.494 448.833a176.416 176.416 0 0 0 27.789 8.207l-48.544-117.194a176.41 176.41 0 0 0-13.846 25.452z" fill="#ccccf0"></path><circle cx="124.193" cy="371.981" fill="#f2f2ff" r="69.82"></circle><path d="M155.633 309.621a98.83 98.83 0 0 1-96.986 86.403 69.822 69.822 0 1 0 96.986-86.403z" fill="#e6e6ff"></path><g fill="#ff596d"><path d="M175.587 324.749a85.98 85.98 0 0 0-9.995 15.106l-5.662-5.625c-4.695-4.667-11.739 2.436-7.048 7.094l8.082 8.029a145.323 145.323 0 0 0-7.324 20.987l-8.607-.991c-6.567-.765-7.721 9.177-1.144 9.933l7.477.862a166.304 166.304 0 0 0-2.924 23.158l-7.762 2.342c-6.357 1.918-3.423 11.482 2.889 9.574l4.591-1.385a212.795 212.795 0 0 0 1.427 23.187 69.877 69.877 0 0 0 9.584-4.611 177.226 177.226 0 0 1-.95-21.612l10.669-3.219c6.345-1.915 3.429-11.484-2.889-9.574l-7.26 2.19a155.544 155.544 0 0 1 2.704-18.89l8.364.963c6.569.76 7.721-9.177 1.145-9.933l-7.134-.822a139.414 139.414 0 0 1 4.902-14.453l3.384 3.362c4.633 4.606 11.796-2.379 7.047-7.094l-6.046-6.006a89.104 89.104 0 0 1 8.852-14.523 70.19 70.19 0 0 0-6.372-8.05zM82.208 336.82l-7.296 4.5c-5.684 3.508-.32 11.944 5.25 8.512l4.112-2.537a138.487 138.487 0 0 1 1.488 15.227l-7.185-.828c-6.567-.753-7.72 9.178-1.145 9.934l8.411.968a155.401 155.401 0 0 1-1.68 19.022l-6.6-3.8c-5.735-3.306-10.717 5.368-4.99 8.666l9.68 5.572a179.5 179.5 0 0 1-5.86 20.818 69.856 69.856 0 0 0 8.285 6.67 213.998 213.998 0 0 0 6.663-22.256l4.154 2.392c5.68 3.273 10.778-5.333 4.99-8.666l-7.023-4.043a166.653 166.653 0 0 0 2.43-23.217l7.46.86c6.569.759 7.721-9.178 1.145-9.934l-8.597-.99a145.39 145.39 0 0 0-2.363-22.108l9.688-5.976c5.627-3.472.386-11.983-5.25-8.512l-6.791 4.19a86.38 86.38 0 0 0-6.301-16.982 70.203 70.203 0 0 0-8.029 6.383 88.335 88.335 0 0 1 5.354 16.135z" fill="#ff596d"></path></g></g></g></svg>