<svg viewBox="0 0 512 512" xmlns="http://www.w3.org/2000/svg"><g><path d="M144 24h128v40H144z" fill="#fec9a3"></path><path d="m24 24 8 184-8 184 8 72 16 24h40L72 376l24-168V24" fill="#fec093"></path><path d="M339.44 328a193.435 193.435 0 0 0-9.75-21.54l-20.71-39.11a127.967 127.967 0 0 1-11.05-90.93l5.14-17.69q2.115-7.3 3.74-14.73H107.46q.6 3.405 1.31 6.78l5.36 25.64a127.967 127.967 0 0 1-11.05 90.93l-20.71 39.11a192.178 192.178 0 0 0-20.83 113.65L70.03 488H184v-80h48v80h110.03l8.49-67.89A192.016 192.016 0 0 0 339.44 328z" fill="#fec9a3"></path><path d="M331.2 96 376 208l72 96h40v-16a76.141 76.141 0 0 0-13.763-43.662L432 184 392 24h-64z" fill="#fec093"></path><path d="m320.459 242.68 15.184-5.057 7.994 24.008-15.184 5.056zM353.437 267.655l16.008-23.998 13.312 8.88-16.008 23.998zM419.672 390.79l8.88-13.311 23.998 16.008-8.88 13.312zM392.368 401.7l15.52-3.888 8.016 31.995-15.52 3.888z" fill="#e0e0de"></path><path d="M329.5 24h-58.684A77.674 77.674 0 0 1 208 56a77.674 77.674 0 0 1-62.816-32H86.5A51.809 51.809 0 0 0 72 60c0 21.644 13.191 44.172 32 52 .177 12.066 1.352 20.12 3.46 32h199.35c2.585-11.8 4.538-19.931 5.19-32 18.963-7.758 32-30.245 32-52a51.809 51.809 0 0 0-14.5-36z" fill="#f59898"></path><path d="M304 120H160v-16h144a8 8 0 0 1 8 8 8 8 0 0 1-8 8zM128 104h16v16h-16z" fill="#eb8484"></path><path d="M400 328h-32l25.367-50.733A24 24 0 0 1 414.833 264H464a24 24 0 0 1 24 24v48a16 16 0 0 1-16 16h-48a16 16 0 0 1-16-16v-24z" fill="#fec9a3"></path><path d="M200 232h16v40h-16zM120.726 299.48l14.304-7.152 23.988 47.978-14.304 7.152zM256.658 340.463l23.988-47.978 14.304 7.152-23.988 47.978z" fill="#feb784"></path><path d="m400 328-8.7 24-5.79 16-43.48 120H232v-80h-48v80H70.03l-8.49-67.89A192.016 192.016 0 0 1 72.62 328z" fill="#34507b"></path><g fill="#2f486e"><path d="m391.3 352-5.79 16H88v-16z" fill="#2f486e"></path><path d="M200 360h16v48h-16zM290.808 449.76l55.98-48.015 10.417 12.145-55.98 48.015zM232 408a8 8 0 0 1 6-9.594l96.205-22.2 3.6 15.59-96.2 22.2A8 8 0 0 1 232 408zM173.8 413.187l-48.308-13.8 4.4-15.385L178.2 397.8a8 8 0 0 1 5.494 9.89 8 8 0 0 1-9.894 5.497z" fill="#2f486e"></path></g></g></svg>