<svg viewBox="0 0 512 512" xmlns="http://www.w3.org/2000/svg"><g><path clip-rule="evenodd" d="m115.697 290.157-40.913-16.369-52.652 16.369c0 69.847 11.389 64.138 11.769 107.916v71.099l31.772 13.049 29.086-13.049v-78.031c0-32.797 20.179-36.875 20.938-100.984z" fill="#ab695d" fill-rule="evenodd"></path><path clip-rule="evenodd" d="M89.444 290.157c-.759 64.109-20.938 68.186-20.938 100.983V483.181l26.253-14.01V391.14c0-32.797 20.179-36.875 20.938-100.983l-26.253-10.486z" fill="#935b50" fill-rule="evenodd"></path><path clip-rule="evenodd" d="M34.865 134.852c-8.323 22.777-12.732 51.846-12.732 88.022v67.283h93.565v-94.342c0-30.234-16.207-44.36-29.816-56.273-16.412-16.37-35.481-12.496-51.017-4.69z" fill="#6fd7a3" fill-rule="evenodd"></path><path clip-rule="evenodd" d="M63.775 143.211c10.308 10.253 25.669 25.399 25.669 52.603v94.342h26.253v-94.342c0-30.234-16.207-44.36-29.816-56.273-16.966-11.417-21.697 3.67-22.106 3.67z" fill="#3ec3a4" fill-rule="evenodd"></path><path clip-rule="evenodd" d="m256.163 276.685-67.504 105.518c-.877 1.371.108 3.171 1.736 3.171h35.824a2.06 2.06 0 0 1 2.046 2.302l-9.43 79.876c-.262 2.219 2.701 3.21 3.826 1.279l67.761-116.243c.801-1.374-.19-3.098-1.78-3.098h-35.963a2.06 2.06 0 0 1-2.042-2.335l9.305-69.083c.293-2.188-2.59-3.245-3.779-1.387z" fill="#ffc344" fill-rule="evenodd"></path><path clip-rule="evenodd" d="M477.224 15.606c-37.467-28.137-89.885-11.68-109.188 9.35-11.185 12.175-6.541 24.962 5.811 25.544 117.686 42.292 51.367 126.47 94.324 206.656 50.491-25.807 49.995-79.342 34.897-128.043-13.958-45.029 14.631-83.069-25.844-113.507z" fill="#ab695d" fill-rule="evenodd"></path><path clip-rule="evenodd" d="M457.6 14.849c40.475 30.409 11.885 68.449 25.844 113.508 12.791 41.273 15.098 86.07-15.273 114.469v14.33c50.491-25.807 49.995-79.342 34.897-128.043-13.959-45.03 14.63-83.07-25.844-113.508C461.017 3.43 442.035-.386 424.134.896c11.623 1.807 23.099 6.176 33.466 13.953z" fill="#935b50" fill-rule="evenodd"></path><path clip-rule="evenodd" d="M373.994 288.759c.788 64.487 21.084 68.623 21.084 101.624v78.526l30.809 13.34 30.429-13.34v-71.536c.35-44.069 11.856-38.331 11.856-108.615l-45.965-15.729z" fill="#554e56" fill-rule="evenodd"></path><path clip-rule="evenodd" d="M441.247 288.759c0 70.284-11.477 64.546-11.856 108.615v83.332l26.925-11.796v-71.536c.35-44.069 11.856-38.331 11.856-108.615l-26.925-9.204z" fill="#433f43" fill-rule="evenodd"></path><path clip-rule="evenodd" d="M355.944 511.348a2.072 2.072 0 0 1-2.064-2.06c-.337-34.968 27.991-40.379 41.198-40.379h61.238v40.378a2.06 2.06 0 0 1-2.06 2.06h-98.312z" fill="#ff646f" fill-rule="evenodd"></path><path clip-rule="evenodd" d="M429.391 480.706v30.642h24.864a2.06 2.06 0 0 0 2.06-2.06V468.91H429.39v11.796zM373.994 193.805v94.954h94.178v-67.721c0-36.409-3.796-56.769-12.207-79.692-21.026-9.525-41.146-8.767-56.682-1.981-13.725 12.002-25.289 24.031-25.289 54.44z" fill="#fb4455" fill-rule="evenodd"></path><path clip-rule="evenodd" d="M441.247 223.777v64.983h26.925V221.039c0-36.409-3.796-56.769-12.207-79.692-15.565-3.262-28.531-4.952-28.648 4.253 5.257 12.291 13.93 71.099 13.93 78.177z" fill="#f7314a" fill-rule="evenodd"></path><path clip-rule="evenodd" d="m115.843 53.413-75.08-10.311c-22.369-3.058-18.631 23.68-32.123 58.4 4.322 14.097 13.813 25.923 26.224 33.35 8.878 5.301 19.274 8.359 30.4 8.359 7.242 0 14.192-1.282 20.617-3.67 22.544-8.359 38.606-30.001 38.606-55.4a58.85 58.85 0 0 0-8.644-30.728zM114.325 205.631 82.523 192l-20.559 12 2.774 29.214 29.495 12.67c6.366 2.738 13.667 4.573 20.821 5.039 3.942.233 7.826.029 11.506-.67l58.025-11.156c10.221-1.981 16.967-11.942 14.981-22.137-1.957-10.194-11.944-16.923-22.165-14.942l-42.84 8.243c-5.607 1.078-7.709.757-12.703-1.398z" fill="#fed2a4" fill-rule="evenodd"></path><path clip-rule="evenodd" d="M114.325 205.631 82.523 192l-20.559 12 12.995 5.563 39.686 17.01c3.884 1.515 6.103 1.631 11.039.699l47.337-9.117c10.221-1.981 15.682 5.621 17.668 15.816.175.874.263 1.748.321 2.592 6.425-4.02 10.075-11.738 8.556-19.603-1.957-10.194-11.944-16.923-22.165-14.942l-42.84 8.243c-5.607 1.078-7.709.757-12.703-1.398z" fill="#ffbd86" fill-rule="evenodd"></path><path clip-rule="evenodd" d="m82.523 191.999-41.497-17.826a22.384 22.384 0 0 0-15.594-.757c-6.045 1.893-11.272 6.291-13.959 12.525-4.731 10.981.088 23.768 10.717 28.981.35.175.701.35 1.051.495l41.497 17.797z" fill="#6fd7a3" fill-rule="evenodd"></path><path clip-rule="evenodd" d="m82.523 191.999-41.497-17.826a22.384 22.384 0 0 0-15.594-.757c-6.045 1.893-11.272 6.291-13.959 12.525a21.568 21.568 0 0 0-1.811 7.981 23.356 23.356 0 0 1 6.892-3.524 22.603 22.603 0 0 1 6.979-1.019c2.891.029 5.811.612 8.615 1.806l41.497 17.826 1.314.553z" fill="#3ec3a4" fill-rule="evenodd"></path><path clip-rule="evenodd" d="M98.234 84.142c0 19.34-9.316 36.496-23.683 47.273-4.526 3.379-9.549 6.146-14.922 8.126a59.655 59.655 0 0 1-7.476 2.214 60.632 60.632 0 0 0 11.623 1.456h1.489c7.242 0 14.192-1.282 20.617-3.67 22.544-8.359 38.606-30.001 38.606-55.4a58.851 58.851 0 0 0-8.644-30.729l-17.522-5.155-8.732 5.155c5.49 8.943 8.644 19.487 8.644 30.73z" fill="#ffbd86" fill-rule="evenodd"></path><path clip-rule="evenodd" d="m375.395 203.679 31.977-13.719 20.705 12.059-2.803 29.418-29.699 12.758c-6.395 2.738-13.725 4.602-20.938 5.068-3.972.233-7.885.058-11.593-.67l-58.376-11.243c-10.279-1.981-17.083-12-15.098-22.253 1.986-10.253 12.031-17.039 22.311-15.059l43.132 8.301c5.636 1.078 7.739.757 12.761-1.398z" fill="#fed2a4" fill-rule="evenodd"></path><path clip-rule="evenodd" d="m407.372 189.96 41.76-17.913a22.473 22.473 0 0 1 15.682-.786c6.103 1.893 11.36 6.321 14.076 12.583 4.76 11.068-.088 23.942-10.805 29.185-.35.175-.701.35-1.051.495l-41.76 17.913z" fill="#ff646f" fill-rule="evenodd"></path><path clip-rule="evenodd" d="m425.39 211.718-37 15.816a64.887 64.887 0 0 1-14.397 4.282 61.402 61.402 0 0 1-6.541.786c-3.972.233-7.885.058-11.593-.67l-58.376-11.243a18.632 18.632 0 0 1-8.177-3.728c-.876 9.583 5.695 18.525 15.361 20.389l58.376 11.243c3.504.67 7.213.874 10.951.699.204-.029.438-.029.642-.029 7.213-.466 14.543-2.33 20.938-5.068l29.699-12.758z" fill="#ffbd86" fill-rule="evenodd"></path><path clip-rule="evenodd" d="m418.089 214.806 7.184 16.632 41.76-17.913c.35-.146.701-.32 1.051-.495 10.688-5.33 15.536-18.175 10.805-29.185a22.498 22.498 0 0 0-5.373-7.573 22.74 22.74 0 0 1-6.425 15.612 22.425 22.425 0 0 1-6.191 4.515c-13.287 6.523-29.027 12.465-42.811 18.407z" fill="#fb4455" fill-rule="evenodd"></path><path clip-rule="evenodd" d="M373.848 50.5c-5.928 9.67-9.345 21.03-9.345 33.205 0 26.943 14.251 46.341 34.78 55.662 16.266 7.398 36.474 8.476 56.682 1.981l.146-52.079c.029-12.029-2.424-35.127-40.65-36.875z" fill="#fed2a4" fill-rule="evenodd"></path><path clip-rule="evenodd" d="M373.848 50.5a63.544 63.544 0 0 0-7.855 19.515l28.618 1.282c34.839 1.602 37.058 22.661 37.029 33.642l-.058 29.651v5.01l-.029 6c5.84-.175 11.798-.961 17.784-2.388a106.538 106.538 0 0 0 6.629-1.864l.146-52.079c.029-12.029-2.424-35.127-40.65-36.875z" fill="#ffbd86" fill-rule="evenodd"></path><path clip-rule="evenodd" d="M133.629 511.348a2.072 2.072 0 0 0 2.064-2.061c.31-34.734-27.815-40.115-40.934-40.115H33.901v40.116a2.06 2.06 0 0 0 2.06 2.06z" fill="#554e56" fill-rule="evenodd"></path><path clip-rule="evenodd" d="M94.759 469.172H68.506c13.375 0 42.344 5.592 40.884 42.176h24.24a2.072 2.072 0 0 0 2.064-2.061c.309-34.734-27.815-40.115-40.935-40.115z" fill="#433f43" fill-rule="evenodd"></path><path clip-rule="evenodd" d="M115.843 53.413c33.408 0 6.863-52.749-51.922-52.749C16 .664-16.298 46.655 8.641 101.502c33.495-12.175 19.858-48.089 42.46-48.089z" fill="#554e56" fill-rule="evenodd"></path><path clip-rule="evenodd" d="M51.686 1.683c48.797 7.398 68.538 51.73 37.905 51.73h26.253c33.408 0 6.863-52.749-51.922-52.749a72.99 72.99 0 0 0-12.236 1.019z" fill="#433f43" fill-rule="evenodd"></path><path d="M313.544 109.781H287a7.726 7.726 0 1 1 0-15.452h26.545a7.726 7.726 0 1 1-.001 15.452zM305.053 159.269a7.727 7.727 0 0 1-4.192-14.222l19.799-12.758a7.727 7.727 0 0 1 8.37 12.99l-19.799 12.758a7.688 7.688 0 0 1-4.178 1.232zM324.839 73.053a7.691 7.691 0 0 1-4.171-1.228l-19.799-12.729a7.725 7.725 0 0 1-2.321-10.677 7.724 7.724 0 0 1 10.677-2.321l19.799 12.729a7.725 7.725 0 0 1-4.185 14.226zM201.67 109.781h-26.574a7.726 7.726 0 1 1 0-15.452h26.574a7.726 7.726 0 1 1 0 15.452zM183.586 159.269a7.688 7.688 0 0 1-4.182-1.235l-19.77-12.758a7.726 7.726 0 0 1 8.378-12.984l19.77 12.758a7.725 7.725 0 0 1-4.196 14.219zM163.83 73.053a7.726 7.726 0 0 1-4.19-14.224L179.41 46.1a7.726 7.726 0 1 1 8.365 12.993l-19.77 12.729a7.686 7.686 0 0 1-4.175 1.231z" fill="#99e6fc"></path></g></svg>