<svg viewBox="0 0 58 53" xmlns="http://www.w3.org/2000/svg"><g><g fill="none" fill-rule="nonzero"><path d="m50.95 23.74-4.11 2.84L42.977 23l-1.827-4.64 4.11-2.85L49.056 19z" fill="#bdc3c7"></path><path d="M38 38v13a2.006 2.006 0 0 1-2 2H2a2.006 2.006 0 0 1-2-2V14h38z" fill="#f5efca"></path><path d="M24 48H6a1 1 0 0 1 0-2h18a1 1 0 0 1 0 2z" fill="#cbb292"></path><path d="m56.71 19.76-5.76 3.98-5.69-8.23 5.76-3.98a3 3 0 0 1 4.17.76l2.28 3.29a3.01 3.01 0 0 1-.76 4.18z" fill="#ff5364"></path><path d="m20.85 41.75-4.76 1.15a1 1 0 0 1-1.06-1.53l2.76-4.05z" fill="#464f5d"></path><path d="M46.84 26.58C25.764 41.158 27.191 40.187 27.09 40.22l-5.67-8.2c.117-.117-1 .668 19.73-13.66z" fill="#3b97d3"></path><path d="M27.09 40.22c-.193.1-.7.189-6.24 1.53l-3.06-4.43c3.712-5.457 3.516-5.186 3.63-5.3z" fill="#fdd7ad"></path><g fill="#cbb292"><path d="M28.85 23H6a1 1 0 0 1 0-2h22.85a1 1 0 0 1 0 2zM21.62 28H6a1 1 0 0 1 0-2h15.62a1 1 0 0 1 0 2zM16.57 33H6a1 1 0 0 1 0-2h10.57a1 1 0 0 1 0 2zM13.16 38H6a1 1 0 0 1 0-2h7.16a1 1 0 0 1 0 2zM10.84 43H6a1 1 0 0 1 0-2h4.84a1 1 0 0 1 0 2z" fill="#cbb292"></path></g><path d="M34 6a4 4 0 0 1 4 4v6H0v-6a4 4 0 0 1 4-4z" fill="#ff5364"></path><path d="M33 49h-3a1 1 0 0 1 0-2h2v-2a1 1 0 0 1 2 0v3a1 1 0 0 1-1 1z" fill="#cbb292"></path><path d="M34 6c0 3.36-1.76 6-4 6a1 1 0 0 1 0-2c.94 0 2-1.71 2-4s-1.06-4-2-4-2 1.71-2 4h-2c0-3.36 1.76-6 4-6s4 2.64 4 6zM23 6c0 3.36-1.76 6-4 6a1 1 0 0 1 0-2c.94 0 2-1.71 2-4s-1.06-4-2-4-2 1.71-2 4h-2c0-3.36 1.76-6 4-6s4 2.64 4 6zM12 6c0 3.36-1.76 6-4 6a1 1 0 0 1 0-2c.94 0 2-1.71 2-4S8.94 2 8 2 6 3.71 6 6H4c0-3.36 1.76-6 4-6s4 2.64 4 6z" fill="#bdc3c7"></path></g></g></svg>