<svg viewBox="0 0 512.001 512" xmlns="http://www.w3.org/2000/svg"><g><path d="M157.422 0C112.188 0 75.52 36.668 75.52 81.902v33.328c5.476-5.074 14.293-7.832 21.894-6.816v-4.082c0-3.242 2.77-5.805 5.98-5.562 31.665 2.273 62.86-7.786 87.227-23.704a5.575 5.575 0 0 1 7.133.868c20.832 22.394 19.676 21.527 19.676 24.449v8.015c8.332-1.25 16.754 1.325 21.886 6.098V81.902C239.32 36.668 202.652 0 157.422 0zm0 0" fill="#576574"></path><path d="M105.414 81.902c0-40.129 28.86-73.488 66.953-80.515A82.28 82.28 0 0 0 157.422 0C112.188 0 75.52 36.668 75.52 81.902v33.328c5.476-5.074 14.293-7.832 21.894-6.816v-4.082c0-3.242 2.77-5.805 5.98-5.562.672.05 1.344.082 2.016.12V81.903zm0 0" fill="#3e4b5a"></path><path d="M218.297 105.172v45.125c0 .488-.027.973-.04 1.46 15.97 2.419 28.477-9.12 28.477-23.292 0-14.2-12.515-25.68-28.437-23.293zM96.941 150.598v-45.735c-14.093-1.879-28.832 8.938-28.832 23.602 0 14.347 12.653 26.066 28.868 23.613-.012-.492-.036-.984-.036-1.48zm0 0" fill="#ffbeab"></path><path d="M239.242 111.277c-5.164-4.78-12.582-7.359-20.945-6.105v45.125c0 .488-.027.973-.04 1.46 8.391 1.27 15.821-1.316 20.985-6.105zM96.941 146.152a23.683 23.683 0 0 1-7.882-17.687c0-6.754 3.129-12.692 7.882-16.95v-6.648c-14.093-1.883-28.832 8.934-28.832 23.598 0 14.347 12.653 26.07 28.868 23.613-.012-.492-.036-.984-.036-1.48zm0 0" fill="#f7af9f"></path><path d="M158.293 208.277c-13.23 0-24.86-3.632-34.367-9.707v31.922l34.219 42.242 34.222-42.242V197.66c-9.695 6.688-21.433 10.617-34.074 10.617zm0 0" fill="#ffbeab"></path><path d="M154.832 208.184c-11.805-.575-22.238-4.075-30.906-9.614v31.922l30.906 38.149zm0 0" fill="#f7af9f"></path><path d="m282.898 263.492-90.53-35.062-34.223 42.242-34.223-42.242-90.438 35.062S0 277.258 0 315.43v149.75c0 6.164 4.996 11.16 11.156 11.16h294.07c6.165 0 11.16-4.996 11.16-11.16V315.43c0-38.172-33.488-51.938-33.488-51.938zm0 0" fill="#e4eaf8"></path><path d="M30.906 465.18V302.035c0-26.058 15.606-40.738 25.508-47.433l-22.93 8.89S0 277.258 0 315.43v149.75c0 6.164 4.996 11.16 11.156 11.16h30.91c-6.164 0-11.16-4.996-11.16-11.16zM199.465 292.379l25.594-51.29-32.692-12.66-34.222 42.243 33.367 23.7c2.699 1.917 6.472.972 7.953-1.993zm0 0" fill="#d8dce5"></path><path d="m116.871 292.379-25.59-51.29 32.688-12.66 34.222 42.243-33.363 23.7c-2.7 1.917-6.476.972-7.957-1.993zm0 0" fill="#d8dce5"></path><path d="M158.188 270.703v-.031l-.02.015-.02-.015v.031l-24.265 17.235 11.469 17.265h25.632l11.473-17.265zm0 0" fill="#ee5253"></path><path d="m161.102 286.898 9.945-7.062-12.856-9.133v-.031l-.023.015-.02-.015v.031l-24.265 17.235 11.469 17.265h25.636l.059-.094-10.414-15.68a1.846 1.846 0 0 1 .469-2.53zm0 0" fill="#d83941"></path><path d="m192.95 434.969-21.966-129.766h-25.632L123.387 434.97c-.23 1.672.261 3.37 1.308 4.523l33.453 36.801v.047l.02-.024.023.024v-.047l33.454-36.8c1.046-1.153 1.535-2.852 1.304-4.524zm0 0" fill="#ff6b6b"></path><path d="M150.45 439.492c-1.048-1.152-1.536-2.851-1.305-4.523l21.902-129.41-.063-.356h-25.632L123.387 434.97c-.23 1.672.258 3.37 1.308 4.523l33.453 36.801v.047l.02-.024.02.024v-.047l12.859-14.145zm0 0" fill="#ee5253"></path><path d="M197.758 72.844a5.586 5.586 0 0 0-7.137-.871c-24.363 15.918-56.59 25.98-88.258 23.707-3.21-.246-5.98 2.316-5.98 5.562v48.93c0 31.445 24.64 60.164 61.91 60.164 33.176 0 60.168-26.988 60.168-60.164V97.293c0-2.922.125-2.059-20.703-24.45zm0 0" fill="#ffcdbf"></path><path d="M126.273 150.172v-55.02c-7.914.887-15.93 1.102-23.91.528-3.21-.246-5.98 2.316-5.98 5.562v48.93c0 31.445 24.64 60.164 61.91 60.164 4.98 0 9.816-.617 14.45-1.762-28.477-6.68-46.47-31.539-46.47-58.402zm0 0" fill="#ffbeab"></path><path d="M267.125 476.34V328.55a7.729 7.729 0 0 0-7.727-7.726 7.724 7.724 0 0 0-7.726 7.727V476.34zM64.719 476.34V328.55a7.73 7.73 0 0 0-15.457 0v147.79zm0 0" fill="#d8dce5"></path><g fill="#e4eaf8"><path d="M498.828 0H290.816c-7.273 0-13.171 5.898-13.171 13.172V27.23c0 7.274 5.898 13.172 13.171 13.172h208.012c7.274 0 13.172-5.898 13.172-13.172V13.172C512 5.898 506.102 0 498.828 0zM498.828 87.281H290.816c-7.273 0-13.171 5.895-13.171 13.172v14.055c0 7.277 5.898 13.172 13.171 13.172h208.012c7.274 0 13.172-5.895 13.172-13.172v-14.055c0-7.277-5.898-13.172-13.172-13.172zM498.828 174.559H290.816c-7.273 0-13.171 5.898-13.171 13.171v14.06c0 7.273 5.898 13.17 13.171 13.17h208.012c7.274 0 13.172-5.898 13.172-13.17v-14.06c0-7.273-5.898-13.171-13.172-13.171zm0 0" fill="#e4eaf8"></path></g><path d="M498.828 14.496H290.816c-5.14 0-9.582-2.953-11.75-7.25a13.09 13.09 0 0 0-1.421 5.926V27.23c0 7.274 5.898 13.172 13.171 13.172h208.012c7.277 0 13.172-5.898 13.172-13.172V13.172c0-2.133-.52-4.14-1.418-5.922-2.172 4.293-6.613 7.246-11.754 7.246zM498.828 101.773H290.816c-5.14 0-9.582-2.953-11.75-7.246a13.062 13.062 0 0 0-1.421 5.922v14.059c0 7.273 5.898 13.172 13.171 13.172h208.012c7.277 0 13.172-5.899 13.172-13.172v-14.059c0-2.133-.52-4.14-1.418-5.922-2.172 4.297-6.613 7.246-11.754 7.246zM498.828 189.055H290.816c-5.14 0-9.582-2.953-11.75-7.25a13.09 13.09 0 0 0-1.421 5.925v14.06c0 7.273 5.898 13.167 13.171 13.167h208.012c7.277 0 13.172-5.894 13.172-13.168V187.73c0-2.132-.52-4.14-1.418-5.925-2.172 4.297-6.613 7.25-11.754 7.25zm0 0" fill="#d8dce5"></path><path d="M394.824 0H290.816c-7.273 0-13.171 5.898-13.171 13.172V27.23c0 7.274 5.898 13.172 13.171 13.172h104.008zm0 0" fill="#ff6b6b"></path><path d="M290.816 14.496c-5.14 0-9.582-2.953-11.75-7.25a13.429 13.429 0 0 0-1.421 5.922V27.23a13.158 13.158 0 0 0 6.894 11.582 13.135 13.135 0 0 0 6.277 1.59h104.008V14.496zm0 0" fill="#ee5253"></path><path d="M450.621 87.281H290.816c-7.273 0-13.171 5.895-13.171 13.172v14.055c0 7.277 5.898 13.172 13.171 13.172h159.805zm0 0" fill="#feca57"></path><path d="M450.621 127.68v-25.907H290.816c-5.14 0-9.582-2.953-11.75-7.246a13.38 13.38 0 0 0-1.421 5.918V114.508c0 2.844.91 5.469 2.44 7.62.407.571.853 1.11 1.34 1.61.028.024.052.055.079.082a13.115 13.115 0 0 0 9.312 3.86zm0 0" fill="#f4b537"></path><path d="M394.824 174.559H290.816c-7.273 0-13.171 5.898-13.171 13.171v14.06c0 7.273 5.898 13.17 13.171 13.17h104.008zm0 0" fill="#54a0ff"></path><path d="M394.824 214.957v-25.906H290.816c-5.14 0-9.582-2.95-11.75-7.246a13.415 13.415 0 0 0-1.421 5.918v14.062c0 2.844.91 5.469 2.44 7.621 2.388 3.356 6.302 5.551 10.731 5.551zm0 0" fill="#338def"></path></g></svg>