<svg viewBox="0 0 340 340" xmlns="http://www.w3.org/2000/svg"><g><path d="M183.161 155.771s-5.958-17.02 3.164-29.73l21.633 4.109s-8.34 16.941 1.564 43.786z" fill="#b6c79e"></path><path d="M205.47 138.863a76.875 76.875 0 0 0-7.943 9.111 1.893 1.893 0 0 1-2.719.391c-2.73-2.166-8.485-6.662-13.239-9.927a41.579 41.579 0 0 0 1.592 17.333l26.361 18.165c-5.679-15.392-5.358-27.519-4.052-35.073z" fill="#818e69"></path><path d="M221.388 151.979s16.455-6.118 17.3-24.05h20.675s.422 17.3-12.025 28.9l21.518 6.239s11.814 12.566 12.236 14.345 2.025 23.086 1.013 25.407-27.384 9.071-30.548 8.86-27.847-15.63-27.847-15.63l-16.243-22.116z" fill="#818e69"></path><path d="M195.386 164.2s7.359-28.572 31.076-29.093l10.426 14.887s-20.851 6.224-17.463 33.59zM227.514 192.209s9.363-7.157 9.311-22.279l18.14 1s5.715 19.243-8.406 35.6z" fill="#b6c79e"></path><path d="M254.186 192.991c-7.145-1.289-14.434-5.268-20.326-9.285a24.684 24.684 0 0 1-6.346 8.5l19.045 14.325a38.606 38.606 0 0 0 7.627-13.54zM200.019 153.152a52.09 52.09 0 0 0-4.633 11.043l24.039 19.384a41.451 41.451 0 0 1 .167-12.2 111.732 111.732 0 0 0-19.573-18.227z" fill="#818e69"></path><path d="M121.923 141.832s.758-.631 2.149-1.577a44.866 44.866 0 0 1 51.026.55c9.314 6.562 25.724 18.881 39.655 33.292 0 0 20.429 21.03 38.736 23.763a15.973 15.973 0 0 0 11.782-2.6c3.36-2.436 6.564-6.876 5.835-14.879a15.811 15.811 0 0 0-1.5-5.357 88.425 88.425 0 0 0-4.262-7.837c-5.381-8.833 4.708-19.014 13.545-13.639 12.348 7.511 24.8 20.87 31.225 44.6 0 0 23.3 79.555-54.493 86.008 0 0-11.831 17.208-35.851 12.189.002.003-73.086-86.397-97.847-154.513z" fill="#ea8a86"></path><g fill="#b6c79e"><path d="M232.889 11.859h21.329s-9.4 15.961 3.041 34.76h-22.945s-10.038-13.125-1.425-34.76zM298.349 99.278 282.1 85.458s17.5-6.067 20.207-28.446l17.476 14.867s-.855 16.501-21.434 27.399zM208.879 68.276 229.4 74.1s-13.4 12.791-6.56 34.27l-22.074-6.261s-6.077-15.369 8.113-33.833z" fill="#b6c79e"></path></g><path d="M313.132 230.331c-15.668 24.917-41.613 21.3-52.25 18.515a5.688 5.688 0 0 0-6.363 2.527c-3.918 6.7-11.19 3.919-11.19 3.919-17.29-4.669-33.807-61.814-33.807-61.814-4.624-16.977-10.188-29.426-15.834-38.564a333.107 333.107 0 0 0-18.59-14.109 44.866 44.866 0 0 0-51.026-.55c-1.391.946-2.149 1.577-2.149 1.577 24.761 68.116 97.849 154.516 97.849 154.516 24.02 5.019 35.851-12.189 35.851-12.189 44.224-3.668 55.777-30.959 57.509-53.828z" fill="#c95758"></path><path d="M76.107 257.8s.165 18.3 1.345 35.551a18.091 18.091 0 0 0 13.723 16.48 27 27 0 0 0 .409.093 18.189 18.189 0 0 0 20.516-10.856c4.655-11.043 11.256-30.91 13.519-58.587l-7.156-10.336z" fill="#4c4759"></path><path d="m108.357 241.11 23.408 64.51s-5.928 15.545 5.579 19.454c0 0 18.482 6.9 53.7 0 24.548-4.81 35.205-15.247 39.409-21.129a9.133 9.133 0 0 0-.056-11.008 7.55 7.55 0 0 0-3.088-2.312s-24.243-80.88-54.175-127.555z" fill="#716784"></path><path d="M76.107 190.532S91.272 176.8 103.7 168.517l14.759 25.983-27.187 19.092z" fill="#ea8f8b"></path><path d="M91.272 150.958s14.7 21.675 14.949 45.094l34.334-34.132s-15.594-15.635-19.972-34.859z" fill="#ffd0b0"></path><path d="M196.577 293.843a86.3 86.3 0 0 1-32.282-2.8 10.076 10.076 0 0 1-6.723-6.38l-13.136-37.826a13.807 13.807 0 0 1 2.017-12.813c16.3-21.756 26.352-48.667 26.352-48.667l-13.619-2.909-4.413 2.746-46.416 55.916 23.408 64.51s-5.928 15.545 5.579 19.454c0 0 12.238 4.568 35.772 2.553a24 24 0 0 1-7.1-15.07 8.941 8.941 0 0 1 7.921-9.872 100.422 100.422 0 0 0 23.364-5.75 1.6 1.6 0 0 0-.724-3.092z" fill="#4c4759"></path><path d="M82.155 185.241c5.536 4.61 15.809 13.24 34.465 7.98l.727-.51-13.715-24.259a209.274 209.274 0 0 0-21.477 16.789z" fill="#ffd0b0"></path><path d="M154.045 304.552a3.994 3.994 0 0 0 .105-2.985L126.221 226a3.985 3.985 0 0 0-3.179-2.577l-4.356 5.248c.006.017.007.035.013.053l27.414 74.149a29.513 29.513 0 0 0 2.323 24.512 103.7 103.7 0 0 0 10.885.741c-10.963-9.983-5.521-23.007-5.276-23.574z" fill="#33303d"></path><path d="M126.123 141.735a62.062 62.062 0 0 1-5.54-14.674l-29.311 23.9s14.7 21.675 14.949 45.094l10.017-9.958a110.26 110.26 0 0 0-5.735-21.541 8.824 8.824 0 0 1 2.059-9.379z" fill="#ea8f8b"></path><path d="M122.189 119.817s-.1-21.084 35.135-19.589c0 0 5.5 31.145-31.973 21.876z" fill="#716784"></path><path d="m32.724 90.359 4.489 32.427-3.581 7.474a13.189 13.189 0 0 0-.532 10.087 97.277 97.277 0 0 0 19.277 32.139 11.953 11.953 0 0 0 15.88 1.452l50.64-39.372a15.234 15.234 0 0 0 6.522-10.135l1.318-7.909c.072-.428.124-.855.159-1.288.3-3.709 1.8-20.835-2.2-36.6z" fill="#ffd0b0"></path><path d="m69.091 99.26 57.856-8.96a85.569 85.569 0 0 0-2.05-11.662L32.921 90.359l4.49 32.427-3.581 7.474a13.189 13.189 0 0 0-.532 10.087 97.259 97.259 0 0 0 19.277 32.139 11.953 11.953 0 0 0 15.88 1.452L84.317 161.6c-11.383-18.284-17.575-44.2-19.9-55.643a5.644 5.644 0 0 1 4.674-6.697z" fill="#ea8f8b"></path><path d="M75.989 84.936a40.127 40.127 0 0 0 14.342 23.183A15.1 15.1 0 0 1 92.3 103.6c4.328-6.722 14.853-5.516 17.182 2.131a8.915 8.915 0 0 1-.517 6.365 9.217 9.217 0 0 1-2.965 3.757l-.086.062a6.588 6.588 0 0 0-1.732 9.1l10.21 14.906 6.431-4.743a15.237 15.237 0 0 0 6.523-10.135l1.318-7.908c.071-.428.124-.855.159-1.288.3-3.709 1.441-21.449-2.556-37.213z" fill="#373d4c"></path><path d="M28.617 97.875C43.507 95 87.7 86.947 127.942 84.323a6.465 6.465 0 0 0 6.049-6.7c-.181-4.208-1.743-9.323-7.742-11.456 0 0-5.882-48.547-51.351-48.057 0 0-15.335 1.481-20.131 3.245-12.184 4.481-33.3 18.206-30.149 59.226a11.344 11.344 0 0 0-4 12.145 6.9 6.9 0 0 0 7.999 5.149zM105.587 126.358a47.289 47.289 0 0 1-38.567 0c-16.7-8.7-29.807-3.572-29.807-3.572l-3.581 7.474a13.189 13.189 0 0 0-.532 10.087 97.277 97.277 0 0 0 19.277 32.139 11.953 11.953 0 0 0 15.88 1.452l52.562-38.759a15.237 15.237 0 0 0 6.523-10.135l1.318-7.908v-.018c-6.826 2.541-14.894 5.696-23.073 9.24z" fill="#716784"></path><path d="M50.855 111.418a3.5 3.5 0 0 1-.508-6.956l3.23-.479A3.5 3.5 0 1 1 54.6 110.9l-3.229.479a3.629 3.629 0 0 1-.516.039z" fill="#373d4c"></path><path d="M67.02 126.358c-16.7-8.7-29.807-3.572-29.807-3.572l-3.581 7.474a13.189 13.189 0 0 0-.532 10.087 97.277 97.277 0 0 0 19.277 32.139 11.953 11.953 0 0 0 15.88 1.452l16.133-11.9c-6.535-10.352-11.377-23.232-14.776-34.565a26.307 26.307 0 0 1-2.594-1.115z" fill="#4c4759"></path><path d="M133.256 155.059c-10.761 9.531-15.251 26.421-41.984 50.915l-15.165-15.442s-24.348 20.228-33.995 50.05a21.338 21.338 0 0 0-.989 5.442c0 .071-.007.142-.011.214a22.47 22.47 0 0 0 26.51 23.067 49.782 49.782 0 0 0 15.327-5.86s73.707-43.244 90.393-79.2a23.969 23.969 0 0 0 2.145-12.729l-.039-.341a25.42 25.42 0 0 0-42.192-16.116z" fill="#716784"></path><path d="m91.272 205.974-15.165-15.442s-24.348 20.228-33.995 50.05a21.338 21.338 0 0 0-.989 5.442c0 .071-.007.142-.011.214a22.477 22.477 0 0 0 23.076 23.43c-13.098-37.847 27.084-63.694 27.084-63.694z" fill="#4c4759"></path><path d="M265.271 195.262s20.139-10.9 13.986-41.484c-.122-.076-.244-.154-.366-.228-8.837-5.375-18.926 4.806-13.545 13.639a88.425 88.425 0 0 1 4.262 7.837 15.811 15.811 0 0 1 1.5 5.357c.727 8.003-2.477 12.443-5.837 14.879z" fill="#c95758"></path><path d="M220.92 95.215c-14.023-1.831-16.634-12.207-16.491-20.13-8.3 15.284-3.664 27.021-3.664 27.021l22.074 6.261a38.86 38.86 0 0 1-1.919-13.152zM239.467 32.692c0-10.2 7.179-13.916 12.566-15.266a25.639 25.639 0 0 1 2.185-5.567h-21.329c-8.613 21.635 1.425 34.76 1.425 34.76h12.95c-4.324-3.249-7.797-7.757-7.797-13.927zM307.716 92.918C297 80.363 305.037 68.875 310.1 63.635l-7.785-6.623c-2.71 22.379-20.215 28.446-20.215 28.446l16.245 13.82a49.464 49.464 0 0 0 9.371-6.36z" fill="#818e69"></path><path d="M105.633 65.727C100.069 34.085 85.019 22.418 74.9 18.118a70.198 70.198 0 0 0-6.62.407v-.012c-.456.049-.924.114-1.386.172-.334.042-.664.077-1 .124-.958.132-1.927.28-2.916.453l-.085.01h-.023c-.2.023-.672.086-1.38.215l-.041.007a41.234 41.234 0 0 0-6.659 1.856l-.023.007c-12.184 4.481-33.3 18.206-30.149 59.226a11.344 11.344 0 0 0-4 12.145 6.9 6.9 0 0 0 8 5.146c3.03-.584 7.285-1.384 12.463-2.309l.2-.035 1.761-.313c.891-.157 1.8-.317 2.741-.48-2.925-8.108 1.7-19.394 1.742-19.482a3.3 3.3 0 0 0 .3-.891l18.666-2.73c-1.241 3.464-3.214 12.214.242 19.683q3.444-.525 7.045-1.049c-4.7-6.743-.318-18.713-.277-18.8a3.3 3.3 0 0 0 .27-.9l6.385-.934a1.535 1.535 0 0 0-.095-3.049 102.995 102.995 0 0 0-7.166-.3c-6.686-23.969-5.524-36.813-4.76-42.985 7.206 1.686 24.108 6.745 30 42.774a3.388 3.388 0 0 0 1.639 2.355c.325.189 8.782 6.643 6.852 17.721q3.4-.353 6.81-.669c1.157-10.164-3.861-16.834-7.803-19.754zM47.605 48.6c2.152-14.185 8.47-20.887 13.107-23.978-.707 7.458-.686 21.341 4.634 41.756-.678.025-1.352.052-2.018.083q-.549.025-1.089.018C53 66.352 46.22 57.736 47.605 48.6z" fill="#4c4759"></path></g></svg>