<svg id="Icons" height="512" viewBox="0 0 60 60" width="512" xmlns="http://www.w3.org/2000/svg"><path d="m26 37h8v22h-8z" fill="#805333"/><path d="m26 5v-2a2.006 2.006 0 0 1 2-2h4a2.006 2.006 0 0 1 2 2v2z" fill="#805333"/><rect fill="#cb8252" height="32" rx="2" width="46" x="7" y="5"/><path d="m36 59c3-5 9-6 9-6a7.943 7.943 0 0 0 -8-1 7.651 7.651 0 0 1 2-5 9.391 9.391 0 0 0 -9 6 9.391 9.391 0 0 0 -9-6 7.651 7.651 0 0 1 2 5 7.943 7.943 0 0 0 -8 1s6 1 9 6z" fill="#4fba6f"/><path d="m43.249 19.438-11.624-9.138a1 1 0 0 0 -1.625.781v4.919a1 1 0 0 1 -1 1h-11a2 2 0 0 0 -2 2v4a2 2 0 0 0 2 2h11a1 1 0 0 1 1 1v4.919a1 1 0 0 0 1.625.781l11.624-9.138a2 2 0 0 0 0-3.124z" fill="#f0c419"/></svg>