<svg viewBox="0 0 512 512" xmlns="http://www.w3.org/2000/svg"><g><path d="M316.5 112.333S326 184.936 272 248h-48c20.952-22.208 29.829-52.347 29.835-82.41 0-15.076-2.25-30.092-5.683-44.759C243.667 101.667 233 79.667 233 79.667l75.333-11.334s7.334 21.334 8.167 44z" fill="#96b268"></path><path d="m288.883 176.231-15.766-2.731c5.112-29.557 1.121-48.092 1.08-48.276l15.6-3.554c.203.868 4.795 21.558-.914 54.561z" fill="#88a35a"></path><path d="m211.618 250.748-15.027-5.5c25.207-68.914 12.089-112.528-3.355-136.98l13.528-8.544c17.36 27.491 32.294 76.003 4.854 151.024zM171.772 59.517a230.038 230.038 0 0 0-13.293-23.644l13.427-8.7a246.176 246.176 0 0 1 14.238 25.309z" fill="#ffb431"></path><path d="M112 248v80H88a24 24 0 0 0-24 24 24 24 0 0 0 24 24h24v32a48 48 0 0 0 48 48h40v32h176v-35.279A189.435 189.435 0 0 1 396 368a189.435 189.435 0 0 0 20-84.721V248z" fill="#fdc8a2"></path><g fill="#fdb683"><path d="M360.223 350.112a228.631 228.631 0 0 0-10.844 25.462l15.072 5.366a212.915 212.915 0 0 1 10.082-23.673 165.605 165.605 0 0 0 15.2-46.807l-15.781-2.638a149.7 149.7 0 0 1-13.729 42.29zM376 280v3.279c0 4-.167 8.063-.5 12.066l15.946 1.31c.365-4.437.55-8.937.55-13.376V280zM147.313 377.373A49.613 49.613 0 0 1 112 392v16a65.511 65.511 0 0 0 46.628-19.314l7.029-7.029-11.314-11.314zM200 456h64v16h-64z" fill="#fdb683"></path></g><path d="m64 56 16-32 16 32 40 8-24 24 8 32-40-16-40 16 8-32-24-24z" fill="#ffb431"></path><path d="M200 248c-24-80-80-128-80-128l-40-16-40 16s104 48 128 128z" fill="#de5540"></path><path d="M232 248c-16-104-96-184-96-184l-24 24 8 32s56 48 80 128z" fill="#d64a34"></path><path d="m438.18 141.2-52.335-36.838 39.269-55.789a57.888 57.888 0 0 1 55.97-23.92 57.888 57.888 0 0 1-3.635 60.759z" fill="#de5540"></path><path d="M462.665 50.816a16.019 16.019 0 0 0-22.293 3.874 16 16 0 1 0 22.294-3.875z" fill="#ffb431"></path><g fill="#348ed8"><path d="m408.869 71.648-35.377-5.335-27.629 39.251 26.898-10.416 13.084 9.21zM461.204 108.487l16.958 31.502-27.629 39.252.73-28.836-13.083-9.209zM413.219 162.759l-39.251-27.629 24.961-21.563 26.167 18.419z" fill="#348ed8"></path></g><path d="M360 152s-40 40-40 96h40c32-24 40-72 40-72z" fill="#ffb431"></path><path d="m344.878 211.959 23.978-39.978 13.712 8.225-23.977 39.977z" fill="#f9a614"></path><circle cx="272" cy="63.995" fill="#348ed8" r="40"></circle><path d="M215.955 98.24a24.017 24.017 0 0 1-23.282-18.381 24.348 24.348 0 0 1-.673-5.634A23.937 23.937 0 0 1 210.382 50.9l108.885-26.232a24.024 24.024 0 0 1 28.951 17.713 24.362 24.362 0 0 1 .672 5.634 23.928 23.928 0 0 1-18.372 23.317l-108.894 26.23a24.15 24.15 0 0 1-5.669.678zm19.288-36.878-21.108 5.09A7.982 7.982 0 0 0 208 74.225a8.252 8.252 0 0 0 .233 1.909 7.993 7.993 0 0 0 9.643 5.874l108.89-26.23a7.972 7.972 0 0 0 6.124-7.763 8.263 8.263 0 0 0-.232-1.908 8 8 0 0 0-9.644-5.884l-87.771 21.14z" fill="#4db6e4"></path><path d="M232.813 72.057a40.009 40.009 0 0 1 77.471-19.688" fill="#348ed8"></path><path d="M272 39.995h16v16h-16z" fill="#2b83cc"></path><path d="M48 240v-32l24 16 24-16v40l24 24H80l-16 32-13-32.333L24 264z" fill="#ffb431"></path><path d="M129.216 252.24a158.257 158.257 0 0 0-17.383-22.84l11.807-10.8a174.211 174.211 0 0 1 19.144 25.159zM68.032 194.77c-24.75-14.137-45.569-18.916-45.777-18.963l3.48-15.617c.937.208 23.251 5.276 50.233 20.686z" fill="#96b268"></path><path d="m379.889 42.772-15.008-5.544C366.3 33.375 368 26.566 368 16h16c0 10.381-1.383 19.389-4.111 26.772z" fill="#de5540"></path><path d="m407.405 252.574-11.48-11.144c.212-.219 21.273-22.14 26.66-43.089l15.5 3.985c-6.459 25.102-29.693 49.233-30.68 50.248z" fill="#96b268"></path><path d="m462.53 224.114-11.06-11.562c.739-.706 18.381-17.274 42.553-14.153l-2.046 15.869c-16.408-2.12-29.321 9.726-29.447 9.846z" fill="#de5540"></path><path d="M496 280h-16v-16h-16v16h-16v16h16v16h16v-16h16zM80 408H64v-16H48v16H32v16h16v16h16v-16h16z" fill="#ffb431"></path><path d="M432 344h16v16h-16z" fill="#de5540"></path><path d="M456 376h16v16h-16z" fill="#96b268"></path><path d="M16 352h16v16H16zM296 272h16v16h-16z" fill="#de5540"></path><path d="M264 320h16v16h-16z" fill="#96b268"></path><path d="M112 16h16v16h-16z" fill="#de5540"></path><path d="M336 128h16v16h-16z" fill="#96b268"></path></g></svg>