<svg id="Capa_1" enable-background="new 0 0 512 512" height="512" viewBox="0 0 512 512" width="512" xmlns="http://www.w3.org/2000/svg"><g><g><path d="m404.062 250.688c0 17.379-25.871 28.695-17.826 42.788-45.173-8.087-97.941-34.543-97.941-82.055 0-14 11.053-40.35 26.828-52.362 12.898-6.397 27.423-9.982 42.793-9.982 20.933 0 40.321 6.665 56.144 17.987-3.599 28.65-9.998 51.204-9.998 83.624z" fill="#5de1c4"/><path d="m378.51 151.291c-7.788 1.679-15.216 4.317-22.18 7.768-31.894 15.772-53.826 48.645-53.826 86.638 0 1.7.041 3.4.134 5.079-8.901-11.002-14.34-24.096-14.34-39.353 0-14 11.054-40.352 26.826-52.364 12.898-6.397 27.423-9.982 42.793-9.982 7.066 0 13.958.762 20.593 2.214z" fill="#0ed2b3"/><path d="m454.526 245.696c0 14-2.977 27.3-8.334 39.311h-.01c-12.908 6.398-27.433 9.993-42.804 9.993-5.851 0-11.579-.515-17.142-1.525-8.046-14.093-12.63-30.4-12.63-47.779 0-32.419 15.968-61.1 40.455-78.633 24.497 17.524 40.465 46.214 40.465 78.633z" fill="#ffe177"/><path d="m414.061 324.329c-15.824 11.322-35.211 17.987-56.144 17.987-53.363 0-96.62-43.257-96.62-96.62 0-37.993 21.932-70.866 53.826-86.638-5.388 12.012-8.355 25.322-8.355 39.322 0 47.511 34.294 87.008 79.467 95.095 6.944 12.188 16.463 22.726 27.826 30.854z" fill="#d9b1ee"/><path d="m378.52 340.101c-6.634 1.452-13.536 2.215-20.603 2.215-53.363 0-96.62-43.257-96.62-96.62 0-37.993 21.932-70.866 53.826-86.638-5.388 12.012-8.355 25.322-8.355 39.322 0 5.182.412 10.271 1.185 15.226-3.523 10.044-5.45 20.84-5.45 32.09.001 46.286 32.554 84.979 76.017 94.405z" fill="#cb97e7"/></g><g><path d="m169.903 455.341h-107.895v40.952c0 8.671 7.029 15.7 15.7 15.7h76.496c8.671 0 15.7-7.029 15.7-15.7v-40.952z" fill="#e49280"/><path d="m457.328 455.341h-107.896v40.952c0 8.671 7.029 15.7 15.7 15.7h76.496c8.671 0 15.7-7.029 15.7-15.7z" fill="#e49280"/><g fill="#dd7f66"><path d="m391.659 480.539c-8.705 0-15.762 7.057-15.762 15.762 0 8.664 7.026 15.7 15.7 15.7h-26.465c-8.674 0-15.7-7.036-15.7-15.7v-40.96h107.89v25.198z"/><path d="m104.235 480.539c-8.705 0-15.762 7.057-15.762 15.762 0 8.664 7.026 15.7 15.7 15.7h-26.465c-8.674 0-15.7-7.036-15.7-15.7v-40.96h107.89v25.198z"/></g></g><g><path d="m198.229 356.43c-9.053 3.2-18.987-1.546-22.186-10.599l-99.187-280.634c-8.985-25.422 4.387-53.414 29.809-62.399s53.414 4.387 62.399 29.809l6.401 18.11c3.2 9.053-1.546 18.987-10.599 22.186s-18.987-1.546-22.186-10.599l-6.401-18.11c-2.596-7.344-10.682-11.207-18.026-8.612s-11.207 10.682-8.611 18.026l99.186 280.633c3.199 9.056-1.546 18.989-10.599 22.189z" fill="#01d0fb"/><path d="m93.457 59.33 99.185 280.631c2.128 6.022 7.236 10.142 13.081 11.272-1.916 2.3-4.468 4.124-7.495 5.194-9.049 3.198-18.984-1.539-22.186-10.599l-99.186-280.631c-8.984-25.42 4.381-53.415 29.811-62.403 2.83-1 5.699-1.719 8.572-2.182-20.091 11.503-29.766 36.129-21.782 58.718z" fill="#01c0fa"/><path d="m28.473 178.148.391.525c-.082-.041-.175-.093-.258-.144z" fill="#ffe177"/><path d="m218.395 111.454c-.031.093-.072.175-.103.268l-.031-.649z" fill="#ffe177"/><path d="m233.188 455.336-101.441-137.353-102.883-139.31c8.035 4.636 17.966 5.862 27.372 2.524 9.519-3.359 16.514-10.673 19.82-19.439 7.046 4.141 15.587 5.656 23.962 3.729 1.226-.268 2.442-.618 3.657-1.051 9.519-3.369 16.524-10.683 19.821-19.439 8.077 4.739 18.11 6.037 27.639 2.668 9.519-3.368 16.503-10.683 19.8-19.439 8.077 4.739 18.121 6.037 27.639 2.668 9.416-3.338 16.359-10.518 19.717-19.172z" fill="#ffe177"/><path d="m28.473 178.148.391.525c-.082-.041-.175-.093-.258-.144z" fill="#fece85"/><path d="m175.252 319.92-43.504-1.937-102.884-139.31c8.035 4.636 17.966 5.862 27.372 2.524 9.519-3.359 16.514-10.673 19.82-19.439 7.046 4.141 15.587 5.656 23.962 3.729z" fill="#fece85"/><g fill="#f3eae6"><path d="m233.19 463.063c-2.403 0-4.73-1.123-6.217-3.137l-204.324-276.663c-2.535-3.433-1.807-8.27 1.625-10.805 3.433-2.534 8.271-1.807 10.805 1.625l189.294 256.312-13.8-318.339c-.185-4.263 3.122-7.869 7.385-8.054 4.258-.174 7.869 3.122 8.054 7.385l14.896 343.614c.147 3.394-1.941 6.487-5.145 7.619-.844.299-1.714.443-2.573.443z"/><path d="m172.466 291.258c-3.183 0-6.163-1.981-7.285-5.153l-48.97-138.533c-1.422-4.023.687-8.438 4.71-9.86 4.022-1.424 8.437.687 9.86 4.71l48.97 138.533c1.422 4.023-.687 8.438-4.71 9.86-.851.3-1.721.443-2.575.443z"/><path d="m201.864 298.534c-3.637 0-6.877-2.579-7.581-6.284l-30.938-162.58c-.798-4.192 1.954-8.236 6.146-9.034 4.193-.799 8.236 1.954 9.034 6.146l30.938 162.581c.798 4.192-1.954 8.236-6.146 9.034-.488.092-.974.137-1.453.137z"/><path d="m138.118 285.418c-2.758 0-5.426-1.48-6.818-4.081l-62.055-115.933c-2.014-3.762-.597-8.445 3.165-10.458 3.761-2.014 8.445-.597 10.458 3.165l62.055 115.933c2.014 3.762.597 8.445-3.165 10.458-1.161.621-2.41.916-3.64.916z"/></g></g><path d="m123.5 331.26h279.877v71.554h-279.877z" fill="#596c76"/><g fill="#dd7f66"><path d="m75.644 331.26h71.007v64.636h-71.007z"/><path d="m372.685 331.26h71.007v64.636h-71.007z"/></g><path d="m473.401 380.126h-427.466c-9.644 0-17.462 7.818-17.462 17.462v50.593c0 9.644 7.818 17.462 17.462 17.462h427.466c9.644 0 17.462-7.818 17.462-17.462v-50.593c0-9.644-7.818-17.462-17.462-17.462z" fill="#e49280"/><path d="m87.049 465.642h-41.114c-9.642 0-17.461-7.819-17.461-17.461v-50.602c0-9.643 7.819-17.461 17.461-17.461h41.114c-9.642 0-17.461 7.819-17.461 17.461v50.602c-.001 9.642 7.818 17.461 17.461 17.461z" fill="#dd7f66"/><path d="m473.401 261.513h-427.466c-9.644 0-17.462 7.818-17.462 17.462v50.593c0 9.644 7.818 17.462 17.462 17.462h427.466c9.644 0 17.462-7.818 17.462-17.462v-50.593c0-9.644-7.818-17.462-17.462-17.462z" fill="#e49280"/><path d="m87.049 347.029h-41.114c-9.642 0-17.461-7.819-17.461-17.461v-50.602c0-9.643 7.819-17.461 17.461-17.461h41.114c-9.642 0-17.461 7.819-17.461 17.461v50.602c-.001 9.642 7.818 17.461 17.461 17.461z" fill="#dd7f66"/></g></svg>