<svg viewBox="0 0 16.933 16.933" xmlns="http://www.w3.org/2000/svg"><g><path d="M5.974 9.035c-.37.099-.29-.13-1.26.465-1.826 1.082-2.331 3.198-2.331 3.198v4.157L5.74 15.61h1.404c0 .733.59 1.323 1.323 1.323h6.656c1.307 0 1.477-1.755 1.11-2.853-.815-2.328-2.58-4.16-4.81-5.044z" fill="#549ad4"></path><path d="M5.974 9.035c-.27.072-.304-.027-.677.143-.001.014-.004.027-.004.042v.833c0 1.236-1.665 2.24-2.91 2.918v3.884l1.11-.412c.429-.563 1.877-2.422 2.33-2.422h.793c.794 0 1.318-1.323 1.323-1.852h1.323a.528.528 0 1 0 0-1.058H6.616v-1.14c0-.426-.119-.733-.284-.936z" fill="#3588cb"></path><path d="M6.734 4.783c1.325-.79 3-.341 3.752 1.006l.659 1.178c.753 1.348.292 3.069-1.034 3.859s-3 .342-3.752-1.006L5.7 8.642a2.875 2.875 0 0 1 1.034-3.859z" fill="#ffd1b5"></path><path d="M11.728 9.165a8.447 8.447 0 0 1 3.088 4.106c.366 1.098.196 2.853-1.11 2.853H7.248c.2.476.67.808 1.22.808h6.655c1.307 0 1.477-1.755 1.11-2.853a8.4 8.4 0 0 0-4.506-4.914z" fill="#3588cb"></path><path d="M.25 16.006a1.848 1.848 0 0 1 .678-2.53c1.058-.612 3.836-1.836 3.836-3.423V9.83c0-.793 1.323-.676 1.323.75v.53h2.646a.528.528 0 1 1 0 1.058H7.41c-.005.53-.53 1.852-1.323 1.852h-.794c-.529 0-2.513 2.663-2.513 2.663a1.848 1.848 0 0 1-2.53-.678z" fill="#ffd1b5"></path><path d="M7.02 11.11a5.947 5.947 0 0 1-1.663 2.911h.73c.794 0 1.318-1.323 1.323-1.852h1.323a.528.528 0 1 0 0-1.058zM4.236 14.898c-1.32.832-2.794 1.202-3.804 1.366a1.846 1.846 0 0 0 2.348.42s.754-1.01 1.456-1.786z" fill="#ffb98d"></path><path d="M10.205 5.383c.488 3.01-1.715 4.611-3.087 5.305.846.628 2.011.72 2.988.137a2.877 2.877 0 0 0 1.034-3.86l-.658-1.178a2.797 2.797 0 0 0-.277-.404z" fill="#ffb98d"></path><path d="m11.643 12.17 1.323 1.851H8.733s-1.588 0-1.588 1.588c0 0-.264-1.323 1.323-1.852.603-.198 2.49-.263 3.604-.263z" fill="#3588cb"></path><path d="M15.603 0c-.203.78-.7 1.387-1.33 1.626.63.238 1.127.845 1.331 1.625.204-.78.7-1.388 1.33-1.627-.63-.237-1.127-.844-1.331-1.624z" fill="#ffca28"></path><path d="M16.165 1.078c-.293.492-.739.848-1.13 1.087.263.293.459.668.57 1.086.203-.78.699-1.388 1.328-1.626a1.96 1.96 0 0 1-.768-.547z" fill="#ecb200"></path><path d="M11.318 1.477c-.18.639-.622 1.136-1.181 1.33.56.196 1.001.692 1.182 1.33.181-.638.622-1.135 1.182-1.33-.56-.195-1.002-.691-1.183-1.33zM13.83 4.432c-.158.568-.544 1.01-1.034 1.183.49.173.877.614 1.035 1.182.158-.568.544-1.01 1.034-1.183-.49-.173-.876-.614-1.035-1.182z" fill="#ffca28"></path><path d="M1.058 2.117c0 1.023 1.185 1.852 2.646 1.852s2.646-.83 2.646-1.852C6.35 1.094 5.165.265 3.704.265s-2.646.829-2.646 1.852z" fill="#e4eff8"></path><path d="M3.704.265c-1.461 0-2.646.829-2.646 1.852 0 .492.282.964.78 1.312a1.408 1.408 0 0 1-.25-.783c0-1.023 1.184-1.852 2.645-1.852.7 0 1.37.194 1.866.54C5.665.682 4.73.265 3.704.264z" fill="#c4dcf0"></path><path d="M5.953 4.895c0 .292.296.529.662.529s.661-.237.661-.53-.296-.528-.661-.528-.662.237-.662.529z" fill="#e4eff8"></path><g fill="#549ad4"><path d="M4.498 2.117a.265.265 0 1 0 .53 0 .265.265 0 0 0-.53 0zM3.44 2.117a.265.265 0 1 0 .529 0 .265.265 0 0 0-.53 0zM2.381 2.117a.265.265 0 1 0 .53 0 .265.265 0 0 0-.53 0z" fill="#549ad4"></path></g><path d="M6.898 4.417v.01c0 .325-.33.59-.737.59a.912.912 0 0 1-.195-.021c.06.248.332.428.649.428.365 0 .661-.237.661-.53 0-.203-.147-.39-.378-.477z" fill="#c4dcf0"></path><path d="M14.228 5.174c-.258.338-.58.596-.88.789.225.22.392.508.483.833.158-.567.544-1.008 1.034-1.182a1.538 1.538 0 0 1-.637-.44zM11.905 2.446c-.27.403-.632.708-.974.935.175.217.308.475.389.756.18-.638.621-1.135 1.181-1.33a1.726 1.726 0 0 1-.596-.361z" fill="#ecb200"></path></g></svg>