<svg viewBox="0 0 511.997 511.997" xmlns="http://www.w3.org/2000/svg"><g><circle cx="255.998" cy="255.998" fill="#313b57" r="255.998"></circle><path d="M497.96 339.83c-34.711 100.215-129.932 172.166-241.955 172.166-41.043 0-79.83-9.655-114.217-26.822A1645.132 1645.132 0 0 1 15.671 167.622 1632.864 1632.864 0 0 1 1.063 111.95c-4.932-20.229 7.784-40.563 28.128-45.024 24.607-5.392 49.204-10.794 73.811-16.196 68.701-15.067 137.393-30.145 206.094-45.212 7.074-1.546 14.137-3.103 21.211-4.65.042-.01.073-.021.115-.021 11.41-2.466 22.737.596 31.18 7.45 6.081 4.911 10.668 11.786 12.706 19.957.063.251.125.512.199.763a1259.391 1259.391 0 0 0 38.765 126.359A1261.363 1261.363 0 0 0 497.96 339.83z" fill="#eaeaea"></path><circle cx="118.104" cy="257.67" fill="#e8aa72" r="12.963"></circle><circle cx="191.947" cy="235.946" fill="#e8aa72" r="12.963"></circle><path d="m233.381 291.273 2.953 10.035c1.844 6.268-.167 13.062-5.185 17.247a130.913 130.913 0 0 1-9.514 7.226c-11.31 7.812-24.035 13.981-37.94 18.071-14.595 4.294-29.344 5.96-43.73 5.275a132.75 132.75 0 0 1-8.103-.637c-6.632-.728-12.192-5.335-14.075-11.735l-3.106-10.558a11.821 11.821 0 0 1 4.098-12.677l28.636-22.186 39.567-11.641 36.088 3.143a11.82 11.82 0 0 1 10.311 8.437z" fill="#f64c4c"></path><path d="M167.844 289.994c-20.448 6.016-41.902-5.683-47.918-26.131l-13.984-47.528 74.049-21.787 13.984 47.528c6.017 20.448-5.682 41.902-26.131 47.918z" fill="#f6ce9f"></path><path d="m116.129 222.068-9.762 9.14 7.722 26.242c6.329-1.862 9.95-8.502 8.087-14.831l-6.047-20.551zM168.595 184.697l11.459-3.372 15.358 52.197c-6.329 1.862-12.969-1.759-14.831-8.087l-11.986-40.738z" fill="#863924"></path><path d="m170.845 212.236-64.479 18.971c-6.024-20.473 5.689-41.951 26.162-47.975l64.479-18.971c6.024 20.472-5.689 41.952-26.162 47.975z" fill="#92482f"></path><circle cx="282.591" cy="200.159" fill="#bf764e" r="12.378"></circle><circle cx="353.1" cy="179.418" fill="#bf764e" r="12.378"></circle><path d="m392.664 232.244 2.819 9.582c1.761 5.985-.159 12.472-4.951 16.467a124.91 124.91 0 0 1-9.084 6.899c-10.799 7.458-22.949 13.348-36.225 17.255-13.936 4.1-28.018 5.691-41.754 5.036a124.961 124.961 0 0 1-7.737-.609c-6.332-.695-11.641-5.094-13.438-11.205l-2.966-10.081a11.286 11.286 0 0 1 3.913-12.104l27.343-21.184 37.779-11.116 34.458 3.001a11.298 11.298 0 0 1 9.843 8.059z" fill="#56a6d6"></path><path d="M330.088 231.023c-19.525 5.745-40.009-5.426-45.754-24.951l-13.352-45.381 70.704-20.803 13.352 45.381c5.745 19.525-5.426 40.01-24.95 45.754z" fill="#d69272"></path><path d="m280.709 166.167-9.321 8.727 7.373 25.057c6.043-1.778 9.5-8.118 7.723-14.161l-5.775-19.623zM330.804 130.484l10.942-3.219 14.664 49.839c-6.043 1.778-12.383-1.679-14.161-7.723l-11.445-38.897z" fill="#424242"></path><path d="m332.954 156.778-61.566 18.114c-5.751-19.548 5.432-40.056 24.98-45.807l61.566-18.114c5.751 19.547-5.433 40.056-24.98 45.807z" fill="#5c5c5c"></path><path d="m433.197 373.277-68.135 30.265c-4.952 2.199-10.748-.031-12.947-4.983l-30.265-68.135c-2.199-4.952.031-10.748 4.983-12.947l68.135-30.265c4.952-2.199 10.748.031 12.947 4.983l30.265 68.135c2.199 4.951-.031 10.747-4.983 12.947zm-67.135 8.352 50.205-22.301-22.301-50.205-50.205 22.301 22.301 50.205z" fill="#313b57"></path><path d="M391.962 372.273a9.771 9.771 0 0 1-7.504.19l-49.2-18.934c-5.057-1.946-7.579-7.622-5.632-12.679 1.943-5.055 7.624-7.579 12.678-5.631l40.045 15.411 28.616-74.356c1.943-5.055 7.624-7.579 12.678-5.631 5.057 1.946 7.579 7.622 5.632 12.679l-32.14 83.511a9.784 9.784 0 0 1-5.173 5.44z" fill="#f64c4c"></path><path d="m276.783 446.047-74.547 30.456c-5.418 2.213-11.602-.385-13.817-5.801l-30.456-74.547c-2.213-5.418.383-11.602 5.801-13.817l74.547-30.456c5.418-2.213 11.602.383 13.817 5.801l30.456 74.547c2.215 5.418-.383 11.603-5.801 13.817zm-72.751 6.831 54.929-22.441-22.441-54.929-54.929 22.441 22.441 54.929zM109.421 111.351a8.885 8.885 0 0 1-8.643-6.872c-1.111-4.777 1.862-9.551 6.639-10.663L287.138 52.02a8.883 8.883 0 0 1 4.024 17.302l-179.721 41.796a8.88 8.88 0 0 1-2.02.233zM146.665 141.972a8.881 8.881 0 0 1-2.264-17.47L276.767 89.54a8.881 8.881 0 1 1 4.537 17.173l-132.365 34.962a8.89 8.89 0 0 1-2.274.297z" fill="#313b57"></path></g></svg>