<svg viewBox="0 0 512 512" xmlns="http://www.w3.org/2000/svg"><g><path d="M130.608 145.92c0 34.321-25.065 24.842-54.526 24.842s-52.163 9.478-52.163-24.842S47.802 58 77.264 58s53.344 53.6 53.344 87.92z" fill="#be652b"></path><path d="M30.905 153.836h92.716v120.972H30.905z" fill="#ffd54f"></path><path d="M92.716 153.836h30.905v120.972H92.716z" fill="#ffc328"></path><path d="M57.81 452.681H34.906a4.001 4.001 0 0 1-4.001-4.001V287.567H61.81V448.68a4 4 0 0 1-4 4.001zM119.621 452.681H96.717a4.001 4.001 0 0 1-4.001-4.001V287.567h30.905V448.68a4 4 0 0 1-4 4.001z" fill="#ebad88"></path><path d="M57.811 452.681H34.905a4 4 0 0 1-4-4v-13.523c0-8.534 6.918-15.453 15.453-15.453 8.534 0 15.453 6.918 15.453 15.453v13.523a4 4 0 0 1-4 4zM119.622 452.681H96.716a4 4 0 0 1-4-4v-13.523c0-8.534 6.918-15.453 15.453-15.453 8.534 0 15.453 6.918 15.453 15.453v13.523a4 4 0 0 1-4 4z" fill="#be652b"></path><path d="M15.453 308.177C6.918 308.177 0 301.258 0 292.724V178.561c0-13.655 11.069-24.724 24.724-24.724h6.181v138.888c0 8.533-6.918 15.452-15.452 15.452zM139.074 308.177c8.534 0 15.453-6.918 15.453-15.453V178.561c0-13.655-11.069-24.724-24.724-24.724h-6.181v138.888c0 8.533 6.918 15.452 15.452 15.452z" fill="#ebad88"></path><path d="M30.905 256.652h92.716v89.733H30.905z" fill="#ff80ab"></path><path d="M92.716 256.652h30.905v89.733H92.716z" fill="#f06a98"></path><path d="M77.264 180.629c-8.534 0-15.453-6.918-15.453-15.453v-42.255h30.905v42.255c0 8.535-6.918 15.453-15.452 15.453z" fill="#e8916f"></path><path d="M77.264 140.44c-17.069 0-30.905-13.837-30.905-30.905V93.027c0-17.069 13.837-30.905 30.905-30.905 17.069 0 30.905 13.837 30.905 30.905v16.507c0 17.069-13.837 30.906-30.905 30.906z" fill="#ebad88"></path><path d="M77.264 58c-17.069 0-30.905 13.841-30.905 30.915v13.45c2.615 5.805 19.045 3.249 36.373-10.597 8.981 8.138 19.97 16.717 25.438 10.597v-13.45C108.169 71.841 94.332 58 77.264 58z" fill="#d67b42"></path><path d="M388.378 153.836h92.716v128.358h-92.716z" fill="#f75632"></path><path d="M450.189 153.836h30.905v128.358h-30.905z" fill="#e33629"></path><path d="M481.095 267.191v181.488a4 4 0 0 1-4 4.001H454.19a4 4 0 0 1-4-4.001V313.563c0-8.537-6.918-15.457-15.453-15.457-8.534 0-15.453 6.921-15.453 15.457v135.116a4 4 0 0 1-4 4.001h-22.905a4 4 0 0 1-4-4.001V267.191z" fill="#4362a0"></path><path d="M450.189 267.191v181.488a4 4 0 0 0 4 4.001h22.905a4 4 0 0 0 4-4.001V267.191z" fill="#3e5a94"></path><path d="M415.284 452.681h-22.905a4 4 0 0 1-4-4v-13.523c0-8.534 6.918-15.453 15.453-15.453 8.534 0 15.453 6.918 15.453 15.453v13.523a4.002 4.002 0 0 1-4.001 4zM477.095 452.681H454.19a4 4 0 0 1-4-4v-13.523c0-8.534 6.918-15.453 15.453-15.453 8.534 0 15.453 6.918 15.453 15.453v13.523a4.002 4.002 0 0 1-4.001 4z" fill="#be652b"></path><path d="M372.926 318.716c-8.534 0-15.453-6.918-15.453-15.453V178.561c0-13.655 11.069-24.724 24.724-24.724h6.181v149.427c0 8.534-6.918 15.452-15.452 15.452zM496.547 318.716c8.534 0 15.453-6.918 15.453-15.453V178.561c0-13.655-11.069-24.724-24.724-24.724h-6.181v149.427c0 8.534 6.918 15.452 15.452 15.452z" fill="#ebad88"></path><path d="M434.736 174.446c-8.534 0-15.453-6.918-15.453-15.453v-36.072h30.905v36.072c.001 8.535-6.917 15.453-15.452 15.453z" fill="#e8916f"></path><path d="M434.736 142.501c-17.069 0-30.905-13.837-30.905-30.905V95.088c0-17.069 13.837-30.905 30.905-30.905 17.069 0 30.905 13.837 30.905 30.905v16.507c.001 17.069-13.836 30.906-30.905 30.906z" fill="#ebad88"></path><path d="M434.736 64.183c-17.069 0-30.905 13.841-30.905 30.915v.99c7.991 4.879 18.887 7.888 30.905 7.888s22.914-3.009 30.905-7.888v-.99c.001-17.074-13.836-30.915-30.905-30.915z" fill="#be652b"></path><path d="M388.378 215.666h-30.905v-37.102c0-13.657 11.071-24.728 24.728-24.728h6.177zM481.095 215.666H512v-37.102c0-13.657-11.071-24.728-24.728-24.728h-6.177z" fill="#4362a0"></path><path d="m317.963 210.361-19.574-19.579a7.497 7.497 0 0 0-10.606 0 7.504 7.504 0 0 0 0 10.61l6.216 6.217h-75.997l6.216-6.217a7.504 7.504 0 0 0 0-10.61 7.497 7.497 0 0 0-10.606 0l-19.574 19.579a7.502 7.502 0 0 0 0 10.61l19.574 19.58c1.464 1.465 3.384 2.197 5.303 2.197s3.839-.733 5.303-2.197a7.504 7.504 0 0 0 0-10.61l-7.325-7.327h78.217l-7.325 7.327a7.504 7.504 0 0 0 5.303 12.807 7.478 7.478 0 0 0 5.303-2.197l19.574-19.58a7.502 7.502 0 0 0-.002-10.61z" fill="#f78e36"></path><g fill="#4362a0"><path d="M173.744 438.995H153.14c-4.142 0-7.5 3.359-7.5 7.502s3.358 7.502 7.5 7.502h20.604c4.142 0 7.5-3.359 7.5-7.502s-3.358-7.502-7.5-7.502zM220.023 438.995h-20.604c-4.142 0-7.5 3.359-7.5 7.502s3.358 7.502 7.5 7.502h20.604c4.142 0 7.5-3.359 7.5-7.502s-3.358-7.502-7.5-7.502zM266.302 438.995h-20.604c-4.142 0-7.5 3.359-7.5 7.502s3.358 7.502 7.5 7.502h20.604c4.142 0 7.5-3.359 7.5-7.502s-3.358-7.502-7.5-7.502zM312.581 438.995h-20.604c-4.142 0-7.5 3.359-7.5 7.502s3.358 7.502 7.5 7.502h20.604c4.142 0 7.5-3.359 7.5-7.502s-3.358-7.502-7.5-7.502zM358.86 438.995h-20.604c-4.142 0-7.5 3.359-7.5 7.502s3.358 7.502 7.5 7.502h20.604c4.142 0 7.5-3.359 7.5-7.502s-3.358-7.502-7.5-7.502z" fill="#4362a0"></path></g></g></svg>