<svg viewBox="0 0 512 512" xmlns="http://www.w3.org/2000/svg"><g><path d="m445.606 424.016-379.21-.002a56.488 56.488 0 0 0-11.653 34.364v36.851c0 9.263 7.509 16.771 16.771 16.771h368.971c9.263 0 16.771-7.509 16.771-16.771v-36.851a56.483 56.483 0 0 0-11.65-34.362z" fill="#e5646e"></path><path d="M432.1 411.372H288.262l-28.452 16.771h-7.621l-28.452-16.771H79.9a56.487 56.487 0 0 0-13.504 12.642l7.275 2.93 159.929 63.97.136.054c8.187 3.25 13.879 10.754 13.879 19.562V512h16.771v-1.47c0-8.808 5.692-16.312 13.879-19.562l.136-.054 159.928-63.971 7.278-2.927a56.508 56.508 0 0 0-13.507-12.644z" fill="#db4655"></path><path d="M356.628 436.529H155.372l33.542-74.196h134.172z" fill="#ffc269"></path><path d="M180.574 360.92c21.03 15.811 47.089 25.294 75.426 25.294s54.395-9.483 75.426-25.294l-8.34-25.02H188.914z" fill="#ffa95f"></path><path d="M373.402 58.491c-13.894 10.768-33.172 17.453-54.51 17.453-26.051 0-49.03-9.963-62.893-25.157-13.863 15.194-36.842 25.157-62.893 25.157-21.345 0-40.627-6.688-54.522-17.462l-8.37 17.465v33.54l8.386 8.386h234.8l8.386-8.386v-33.54z" fill="#fff0a0"></path><path d="M165.667 226.886v33.543c0 60.207 30.127 107.738 90.333 107.738 5.718 0 11.332.836 16.812-.012 52.225-8.084 92.202-53.236 92.202-107.726v-33.543z" fill="#966a5b"></path><path d="M180.529 260.429v-33.543h-33.543v33.543c0 60.207 48.807 109.014 109.014 109.014 5.719 0 11.332-.44 16.812-1.288-52.223-8.086-92.283-53.238-92.283-107.726z" fill="#785353"></path><path d="M398.448 212.145c-1.093-10.912-11.085-18.801-22.051-18.801h-11.383v-58.7H146.986l33.543 117.4h50.317L256 243.658l25.154 8.386h58.703c9.284 0 17.326-5.06 21.665-12.552 1.502-2.593 4.228-4.22 7.225-4.22h8.846c12.292 0 22.112-10.578 20.855-23.127z" fill="#ffe09f"></path><path d="M146.986 134.644v58.7h-11.383c-10.966 0-20.959 7.89-22.051 18.801-1.257 12.549 8.564 23.127 20.856 23.127h8.846c2.997 0 5.724 1.627 7.225 4.22 4.339 7.492 12.38 12.551 21.664 12.551h8.386v-75.471c0-9.263 7.509-16.771 16.771-16.771h158.2v-25.157z" fill="#f6d190"></path><path d="M205.686 218.501a8.384 8.384 0 0 1-8.386-8.386v-8.386c0-4.631 3.751-8.386 8.386-8.386s8.386 3.755 8.386 8.386v8.386a8.384 8.384 0 0 1-8.386 8.386zM306.314 218.501a8.384 8.384 0 0 1-8.386-8.386v-8.386c0-4.631 3.751-8.386 8.386-8.386s8.386 3.755 8.386 8.386v8.386a8.384 8.384 0 0 1-8.386 8.386z" fill="#6e4848"></path><path d="M214.072 184.958H197.3c-4.635 0-8.386-3.755-8.386-8.386s3.751-8.386 8.386-8.386h16.771c4.635 0 8.386 3.755 8.386 8.386s-3.75 8.386-8.385 8.386zM314.7 184.958h-16.771c-4.635 0-8.386-3.755-8.386-8.386s3.751-8.386 8.386-8.386H314.7c4.635 0 8.386 3.755 8.386 8.386s-3.751 8.386-8.386 8.386z" fill="#966a5b"></path><path d="m248.809 4.071-15.378 25.63a8.388 8.388 0 0 0 0 8.629l15.378 25.63c3.257 5.428 11.124 5.428 14.381 0l15.378-25.63a8.388 8.388 0 0 0 0-8.629L263.19 4.071c-3.256-5.428-11.124-5.428-14.381 0z" fill="#ffe07d"></path><g fill="#785353"><path d="M256 243.658h-25.157c-13.894 0-25.157 11.263-25.157 25.157h25.157c13.894 0 25.157-11.263 25.157-25.157z" fill="#785353"></path><path d="M256 243.658h25.157c13.894 0 25.157 11.263 25.157 25.157h-25.157c-13.894 0-25.157-11.263-25.157-25.157zM272.771 293.972h-33.543c-4.635 0-8.386-3.755-8.386-8.386s3.751-8.386 8.386-8.386h33.543c4.635 0 8.386 3.755 8.386 8.386s-3.751 8.386-8.386 8.386z" fill="#785353"></path></g><path d="m247.614 444.914-55.957-90.93c-5.678-9.226-18.482-10.73-26.143-3.069l-35.3 35.3 100.628 58.7h16.772" fill="#ffd064"></path><path d="M146.986 193.344h-11.383l-5.388-50.314 33.543-8.386v41.928c-.001 9.263-7.509 16.772-16.772 16.772z" fill="#785353"></path><path d="M365.014 193.344h11.383l5.388-50.314-33.543-8.386v41.928c.001 9.263 7.509 16.772 16.772 16.772z" fill="#966a5b"></path><path d="m264.386 444.914 55.957-90.93c5.678-9.226 18.482-10.73 26.143-3.069l35.3 35.3-100.628 58.7h-16.772" fill="#ffd064"></path><path d="M404.754 384.027c-8.48-8.48-21.766-9.795-31.743-3.144l-108.626 64.032h-16.771l-108.626-64.032c-9.977-6.652-23.263-5.336-31.743 3.144L79.9 411.372l159.928 63.971a43.549 43.549 0 0 0 32.344 0L432.1 411.372z" fill="#ffe07d"></path><circle cx="256" cy="453.3" fill="#fff5d7" r="25.157"></circle><circle cx="256" cy="453.3" fill="#ffffff" r="8.386"></circle><path d="M180.529 92.715V75.083c-16.279-2.066-30.845-7.996-41.944-16.602l-8.37 17.465v67.082h251.571v-33.543H197.3c-9.262.002-16.771-7.507-16.771-16.77z" fill="#ffe07d"></path><path d="M130.215 11.472v64.472l29.352-36.69a8.386 8.386 0 0 0 0-10.477L142.324 7.224c-4.015-5.019-12.109-2.18-12.109 4.248z" fill="#ffd064"></path><path d="M381.785 75.944V11.472c0-6.428-8.094-9.267-12.11-4.248l-17.242 21.553a8.386 8.386 0 0 0 0 10.477z" fill="#ffe07d"></path></g></svg>