<svg viewBox="0 0 392.8 392.8" xmlns="http://www.w3.org/2000/svg"><g><path d="M196.4 0 292 49.2 388 98l-96 49.2-95.6 49.2-95.6-49.2L4.8 98l96-48.8z" fill="#d9ac80"></path><path d="M316 179.6v-44.4l-48 24.4V204l26.4-32.4z" fill="#d7baa4"></path><path d="M196.4 196.4v196.4l191.6-98V98l-72 37.2-1.6.8v43.2l-20-7.6L268 204v-44.4z" fill="#a67e4f"></path><path d="M196.4 392.8V196.4l-95.6-49.2L4.8 98v196.8z" fill="#926e43"></path><path d="M76.8 61.2 268 159.6l46.4-23.6 1.6-.8-191.2-98.4-24 12.4z" fill="#f2d3ba"></path></g></svg>