<svg viewBox="0 0 64 64" xmlns="http://www.w3.org/2000/svg"><g><g><path d="M53 1v4H1V1z" fill="#a37862"></path><path d="M53 3v2H1V3z" fill="#966857"></path><path d="M27 9v10H17A10 10 0 0 1 27 9z" fill="#ff7d81"></path><path d="m34 26 .07.07A10 10 0 0 1 17 19h10z" fill="#ffac5a"></path><path d="M27 9a10 10 0 0 1 7.07 17.07L34 26l-7-7z" fill="#80dbff"></path><path d="M51 5v18l-.01.06A8.1 8.1 0 0 0 50 23a8 8 0 0 0-8 8v3h-1v2a2.006 2.006 0 0 0 2 2h1v1a5.944 5.944 0 0 0 1.76 4.24 5.752 5.752 0 0 0 1.24.95V47H37l-5-5-5-5-2 2 2 2v2l2 2 2 2H3V5zM37 19a10 10 0 1 0-2.93 7.07A10 10 0 0 0 37 19z" fill="#f0f0f0"></path><path d="m32 42-3 3-2-2v-2l-2-2 2-2z" fill="#ffcdbe"></path><path d="M58 63h-8V50l3-3 10 3v13z" fill="#80dbff"></path><path d="m53 47-3 3v2a7.1 7.1 0 0 1 7.064-1.781L63 52v-2z" fill="#19cffc"></path><path d="M59 34v2a2.006 2.006 0 0 1-2 2h-1v-4z" fill="#e09380"></path><path d="M53 44.19a5.961 5.961 0 0 1-6 0 5.752 5.752 0 0 1-1.24-.95A5.944 5.944 0 0 1 44 39v-5a2.938 2.938 0 0 0 3-3s0 3 9 3v5a5.985 5.985 0 0 1-3 5.19z" fill="#ffcdbe"></path><path d="M47 31a2.938 2.938 0 0 1-3 3v3a2.938 2.938 0 0 0 3-3s0 3 9 3v-3c-9 0-9-3-9-3z" fill="#faa68e"></path><path d="M53 44.19V47l-3 3-3-3v-2.81a5.961 5.961 0 0 0 6 0z" fill="#e09380"></path><path d="M50 50v13h-8V52h-6l-5-5-2-2 3-3 5 5h10z" fill="#b5efff"></path><path d="M47 47H37l-5-5-3 3 1 1a2.828 2.828 0 0 1 4 0l3 3h5.757A10.242 10.242 0 0 1 50 52v-2z" fill="#80dbff"></path><path d="M44 34v4h-1a2.006 2.006 0 0 1-2-2v-2z" fill="#e09380"></path><g fill="#848484"><path d="M26 47h2v9h-2zM7 32h2v2H7zM11 32h28v2H11zM7 36h15v2H7zM31 36h8v2h-8zM7 40h15v2H7zM35 40h6v2h-6z" fill="#848484"></path></g><path d="M3 5h4v42H3zM47 5h4v23h-4z" fill="#d9d9d9"></path><path d="M58 31v3h-2c-9 0-9-3-9-3a2.938 2.938 0 0 1-3 3h-2v-3a8 8 0 0 1 8-8 7.984 7.984 0 0 1 5.66 2.34A8.014 8.014 0 0 1 58 31z" fill="#966857"></path><path d="M47 29a2.938 2.938 0 0 1-3 3h-2v2h2a2.938 2.938 0 0 0 3-3s0 3 9 3h2v-2h-2c-9 0-9-3-9-3z" fill="#8d5c4d"></path><path d="M27 12V9a10 10 0 0 0-10 10h3a7 7 0 0 1 7-7z" fill="#ff636e"></path><path d="M31.95 23.95A7 7 0 0 1 20 19h-3a10 10 0 0 0 17.07 7.07L34 26z" fill="#fc9942"></path><path d="M27 9v3a7 7 0 0 1 4.95 11.95L34 26l.07.07A10 10 0 0 0 27 9z" fill="#19cffc"></path><circle cx="27" cy="57" fill="#f0f0f0" r="2"></circle><path d="M26 57a2 2 0 0 1 1.5-1.929A1.966 1.966 0 0 0 27 55a2 2 0 0 0 0 4 1.966 1.966 0 0 0 .5-.071A2 2 0 0 1 26 57z" fill="#d9d9d9"></path></g></g></svg>