<svg viewBox="0 0 512 512" xmlns="http://www.w3.org/2000/svg"><g><path d="M247.742 462.452h-24.774V280.774L235.667 256l12.075 24.774z" fill="#f6d190"></path><path d="M222.968 256h24.774v24.774h-24.774zM235.355 338.581c-6.841 0-12.387 5.546-12.387 12.387v8.258c0 6.841 5.546 12.387 12.387 12.387s12.387-5.546 12.387-12.387v-8.258c0-6.841-5.546-12.387-12.387-12.387zM222.968 454.194h24.774v16.516a8.258 8.258 0 0 1-8.258 8.258h-33.032v-8.258c0-9.122 7.394-16.516 16.516-16.516z" fill="#ecbd83"></path><path d="M264.258 462.452h24.774V280.774L276.667 256l-12.409 24.774z" fill="#f6d190"></path><path d="M289.032 280.774h-24.774V256h24.774z" fill="#ecbd83"></path><path d="M276.645 338.581c6.841 0 12.387 5.546 12.387 12.387v8.258c0 6.841-5.546 12.387-12.387 12.387s-12.387-5.546-12.387-12.387v-8.258c0-6.841 5.546-12.387 12.387-12.387zM289.032 454.194h-24.774v16.516a8.258 8.258 0 0 0 8.258 8.258h33.032v-8.258c0-9.122-7.394-16.516-16.516-16.516zM355.097 317.935c6.839 0 12.387-5.548 12.387-12.387V198.194c0-1.105-.145-2.194-.435-3.258l-24.774-90.839c-1.798-6.597-8.629-10.508-15.21-8.694-6.605 1.798-10.492 8.613-8.694 15.21l24.339 89.242v105.694c0 6.838 5.548 12.386 12.387 12.386z" fill="#ffe09f"></path><g fill="#f6d190"><circle cx="355.097" cy="198.194" fill="#f6d190" r="16.516"></circle><path d="M355.097 322.065c9.122 0 16.516-7.395 16.516-16.516v-16.516a8.258 8.258 0 0 0-8.258-8.258h-16.516a8.258 8.258 0 0 0-8.258 8.258v16.516c0 9.121 7.394 16.516 16.516 16.516zM156.903 317.935c-6.839 0-12.387-5.548-12.387-12.387V198.194c0-1.105.145-2.194.435-3.258l24.774-90.839c1.798-6.597 8.629-10.508 15.21-8.694 6.605 1.798 10.492 8.613 8.694 15.21l-24.339 89.242v105.694c0 6.838-5.548 12.386-12.387 12.386z" fill="#f6d190"></path></g><path d="M247.742 49.548h16.516v49.548h-16.516z" fill="#ecbd83"></path><path d="M256 74.323a41.45 41.45 0 0 1-8.258-.832v25.606h16.516V73.49a41.45 41.45 0 0 1-8.258.833zM222.968 173.419h66.065v49.548h-66.065z" fill="#f6d190"></path><path d="M256 198.194h33.032V173.42h-66.065v49.548h16.516v-8.258c.001-9.122 7.395-16.516 16.517-16.516z" fill="#ecbd83"></path><path d="M322.065 503.742H206.452a8.258 8.258 0 0 1-8.258-8.258v-8.258a8.258 8.258 0 0 1 8.258-8.258h115.613a8.258 8.258 0 0 1 8.258 8.258v8.258a8.258 8.258 0 0 1-8.258 8.258zM256 55c-13.682 0-20.25-8.285-20.25-21.968v-8.258c0-10.786 2.369-19.963 11.991-23.364A24.737 24.737 0 0 1 256 0c13.682 0 24.774 11.092 24.774 24.774v8.258a24.68 24.68 0 0 1-6.231 16.429C270.005 54.58 263.379 55 256 55z" fill="#ffe09f"></path><path d="M206.452 90.839h-24.774c-9.121 0-16.516 7.394-16.516 16.516 0 9.121 7.395 16.516 16.516 16.516h33.032z" fill="#ecbd83"></path><path d="M305.548 90.839h24.774c9.121 0 16.516 7.394 16.516 16.516 0 9.121-7.395 16.516-16.516 16.516H297.29zM272.516 49.548c-13.682 0-24.774-11.092-24.774-24.774V1.412c-9.6 3.413-16.516 12.591-16.516 23.362v8.258c0 13.682 11.092 24.774 24.774 24.774 7.402 0 14.013-3.189 18.553-8.336-.669.055-1.353.078-2.037.078z" fill="#f6d190"></path><path d="m287.25 175.75-66-3-14-70.5c1.036.676 8.828-11.411 8.828-11.411h87.833c5.152 0 9.047 4.666 8.125 9.735l-11.743 64.587z" fill="#ffe09f"></path><path d="M250.267 165.161c-11.973 0-22.233-8.563-24.375-20.342l-9.814-53.98h-7.989c-5.152 0-9.047 4.666-8.125 9.735l13.513 74.322a8.258 8.258 0 0 0 8.125 6.781h68.796a8.258 8.258 0 0 0 8.125-6.781l1.77-9.735z" fill="#f6d190"></path><path d="M302.795 247.742 230 257.75c-5.103 0-15.589-7.716-14.75-12.75l18.84-30.29h56.205a8.259 8.259 0 0 1 8.146 6.9z" fill="#ffe09f"></path><path d="M248.081 247.742c-10.206 0-17.969-9.164-16.291-19.231l2.3-13.801h-12.385a8.256 8.256 0 0 0-8.145 6.9l-5.505 33.033c-.839 5.034 3.043 9.616 8.146 9.616h79.6c5.103 0 8.985-4.582 8.146-9.616l-1.15-6.9h-54.716z" fill="#f6d190"></path><circle cx="156.903" cy="198.194" fill="#ffe09f" r="16.516"></circle><path d="M156.903 322.065c-9.122 0-16.516-7.395-16.516-16.516v-16.516a8.258 8.258 0 0 1 8.258-8.258h16.516a8.258 8.258 0 0 1 8.258 8.258v16.516c0 9.121-7.394 16.516-16.516 16.516z" fill="#ffe09f"></path><path d="M214.71 495.484a8.258 8.258 0 0 1-8.258-8.258v-8.258h-16.516a8.258 8.258 0 0 0-8.258 8.258v16.516a8.258 8.258 0 0 0 8.258 8.258h132.129a8.258 8.258 0 0 0 8.258-8.258v-8.258z" fill="#f6d190"></path></g></svg>