<svg viewBox="0 0 64 64" xmlns="http://www.w3.org/2000/svg"><g><path d="M44.24 4.12H19.76c-3.59 0-6.5 2.92-6.5 6.5v42.76c0 3.58 2.91 6.5 6.5 6.5h24.48c3.59 0 6.5-2.92 6.5-6.5V10.62c0-3.58-2.91-6.5-6.5-6.5z" fill="#e4e4e4"></path><g fill="#ed1c24"><path d="M45.99 54.54h-4.92c.54-.71 1.05-1.53 1.54-2.45.69-1.29 1.23-2.64 1.59-4.03.37-1.39.57-2.59.58-3.59a.46.46 0 0 0-.14-.35.475.475 0 0 0-.36-.15h-1.53c-.27 0-.48.2-.5.46-.08 1.17-.27 2.26-.56 3.24-.4 1.4-.98 2.79-1.72 4.11-.73 1.33-1.48 2.4-2.23 3.19-.08.1-.13.22-.13.34v1.17c0 .27.22.5.5.5h7.88c.27 0 .5-.23.5-.5v-1.44c0-.28-.23-.5-.5-.5zM24.03 12.22c.73-1.33 1.48-2.4 2.23-3.19.08-.1.13-.22.13-.34V7.52c0-.27-.22-.5-.5-.5h-7.88c-.27 0-.5.23-.5.5v1.44c0 .28.23.5.5.5h4.92c-.54.71-1.05 1.53-1.54 2.45-.69 1.29-1.23 2.64-1.59 4.03-.37 1.39-.57 2.59-.58 3.59-.01.13.05.26.14.35.09.1.22.15.36.15h1.53c.27 0 .48-.2.5-.46.08-1.17.27-2.26.56-3.24.4-1.4.98-2.79 1.72-4.11zM41.99 31.99c0-.43-.23-.82-.59-1.02-3.99-2.3-6.95-5.34-8.32-8.56-.18-.43-.61-.71-1.08-.71s-.9.28-1.08.71c-1.37 3.22-4.32 6.26-8.31 8.56-.37.2-.6.6-.6 1.02 0 .43.23.82.59 1.02 3.99 2.32 6.95 5.37 8.32 8.58.18.43.61.71 1.08.71s.9-.28 1.08-.71c1.37-3.21 4.33-6.26 8.32-8.57.36-.21.59-.6.59-1.03z" fill="#ed1c24"></path></g></g></svg>