<svg viewBox="0 0 58 46" xmlns="http://www.w3.org/2000/svg"><g><g fill="none" fill-rule="evenodd"><path d="M54.088 33.6c-12.18-1.074-19.982 1.672-23.5 3.367a10.294 10.294 0 0 1 2.13-2.721c1.937-1.82 7.688-5.974 19.219-5.252a1.002 1.002 0 1 0 .125-2c-11.874-.741-18.073 3.309-20.713 5.79A12.669 12.669 0 0 0 29 35.73a12.669 12.669 0 0 0-2.349-2.938C24.01 30.311 17.8 26.261 5.937 27a1.002 1.002 0 0 0 .125 2c11.527-.724 17.283 3.433 19.22 5.252.858.78 1.578 1.7 2.13 2.72-3.519-1.694-11.321-4.436-23.5-3.366a1 1 0 0 0 .176 1.994c16.04-1.411 24.257 4.166 24.336 4.222.019.013.041.018.06.029s.034.028.054.039a.925.925 0 0 0 .1.037.856.856 0 0 0 .335.072c.01 0 .021.005.031.005.093-.002.185-.016.274-.042.024-.007.047-.018.071-.027a.934.934 0 0 0 .115-.043c.023-.012.04-.03.062-.044s.036-.014.052-.025c.081-.056 8.3-5.633 24.338-4.223a1 1 0 0 0 .176-1.992z" fill="#cbb292"></path><path d="m21.55 19.27 2.043 5.611a.5.5 0 0 1-.677.627L17.11 22.87A12.018 12.018 0 0 1 .1 13.53a12 12 0 1 1 21.45 5.74zM36.45 19.27l-2.043 5.611a.5.5 0 0 0 .677.627l5.806-2.638a12.018 12.018 0 0 0 17.015-9.34 12 12 0 1 0-21.455 5.74z" fill="#f5efca"></path><path d="m18.9 16.553-6-12a1.042 1.042 0 0 0-1.79 0l-6 12a1 1 0 1 0 1.79.894L8.618 14h6.764l1.723 3.447a1 1 0 1 0 1.79-.894zM9.618 12 12 7.236 14.382 12z" fill="#285680" fill-rule="nonzero"></path><path d="M52 7h-5V5a1 1 0 0 0-2 0v2h-5a1 1 0 0 0 0 2h8.157a19.163 19.163 0 0 1-2.649 3.37 9.592 9.592 0 0 1-.652-.887 1 1 0 0 0-1.713 1.032c.269.426.567.834.892 1.219a19.1 19.1 0 0 1-3.467 2.366A1 1 0 0 0 41 18a.988.988 0 0 0 .43-.1 20.48 20.48 0 0 0 3.99-2.7 14.276 14.276 0 0 0 4.2 2.727 1 1 0 1 0 .77-1.846 12.224 12.224 0 0 1-3.492-2.25A20.788 20.788 0 0 0 50.459 9H52a1 1 0 0 0 0-2z" fill="#cc4b4c"></path><path d="M58 41a2 2 0 0 1-2 2H35.92A8.721 8.721 0 0 1 29 46a8.721 8.721 0 0 1-6.92-3H2a2 2 0 1 1 0-4h54a2 2 0 0 1 2 2z" fill="#c03a2b"></path></g></g></svg>