<svg height="512" viewBox="0 0 51 56" width="512" xmlns="http://www.w3.org/2000/svg"><g id="Page-1" fill="none" fill-rule="evenodd"><g id="011---Approved-Cleaning" fill-rule="nonzero" transform="translate(0 -1)"><path id="Shape" d="m47 42c.0021256.3415766-.0588994.6806042-.18 1-.1420059.4231884-.3818333.8069121-.7 1.12-.5616324.5634227-1.3244649.8800702-2.12.88h-2c1.6568542 0 3 1.3431458 3 3 .0021256.3415766-.0588994.6806042-.18 1-.1420059.4231884-.3818333.8069121-.7 1.12-.5616324.5634227-1.3244649.8800702-2.12.88h-2c1.6568542 0 3 1.3431458 3 3s-1.3431458 3-3 3h-18c-1.5299876.0240078-3.0505061-.2441194-4.48-.79-.98-.39-1.84-1.02-2.79-1.48-1.0086277-.4815311-2.1123234-.7309732-3.23-.73h-2.5l2-20c2.0356596-.002265 4.0278866-.5888266 5.74-1.69 3.61-2.3 9.08-6.48 7.9-11.8-.4-1.79-.55-3.54 1.36-4.51 2.12-1.08 4.15.29 5.14 2.02 3.33 5.83-2.49 14.98-2.49 14.98h14.35c1.6568542 0 3 1.3431458 3 3 .0021256.3415766-.0588994.6806042-.18 1-.1420059.4231884-.3818333.8069121-.7 1.12-.5616324.5634227-1.3244649.8800702-2.12.88h1c1.6568542 0 3 1.3431458 3 3z" fill="#fdd7ad"/><path id="Shape" d="m44.82 49c-.1420059.4231884-.3818333.8069121-.7 1.12-.5616324.5634227-1.3244649.8800702-2.12.88h-5c-.5522847 0-1-.4477153-1-1s.4477153-1 1-1z" fill="#f9c795"/><path id="Shape" d="m46.82 43c-.1420059.4231884-.3818333.8069121-.7 1.12-.5616324.5634227-1.3244649.8800702-2.12.88h-7c-.5522847 0-1-.4477153-1-1s.4477153-1 1-1z" fill="#f9c795"/><path id="Shape" d="m45.82 37c-.1420059.4231884-.3818333.8069121-.7 1.12-.5616324.5634227-1.3244649.8800702-2.12.88h-6c-.5522847 0-1-.4477153-1-1s.4477153-1 1-1z" fill="#f9c795"/><rect id="Rectangle-path" fill="#3b97d3" height="26" rx="3" width="11" y="31"/><g fill="#ff5364"><path id="Shape" d="m46 23c-.5522847 0-1-.4477153-1-1v-2c0-.5522847.4477153-1 1-1s1 .4477153 1 1v2c0 .5522847-.4477153 1-1 1z"/><path id="Shape" d="m46 29c-.5522847 0-1-.4477153-1-1v-2c0-.5522847.4477153-1 1-1s1 .4477153 1 1v2c0 .5522847-.4477153 1-1 1z"/><path id="Shape" d="m50 25h-2c-.5522847 0-1-.4477153-1-1s.4477153-1 1-1h2c.5522847 0 1 .4477153 1 1s-.4477153 1-1 1z"/><path id="Shape" d="m44 25h-2c-.5522847 0-1-.4477153-1-1s.4477153-1 1-1h2c.5522847 0 1 .4477153 1 1s-.4477153 1-1 1z"/></g><path id="Shape" d="m23 9c-.2651948-.00005664-.5195073-.10545063-.707-.293l-1.5-1.5c-.2599566-.25107447-.3642126-.62287789-.2726972-.97250732.0915155-.34962944.3645604-.6226744.7141899-.71418984.3496294-.09151544.7214328.01274058.9725073.27269716l1.5 1.5c.2859079.28599425.3714219.71603662.216678 1.08965456s-.5192821.61725909-.923678.61734544z" fill="#955ba5"/><path id="Shape" d="m18.5 4.5c-.2651948-.00005664-.5195073-.10545063-.707-.293l-1.5-1.5c-.3789722-.39237889-.3735524-1.01608478.0121814-1.40181858.3857338-.38573379 1.0094397-.39115363 1.4018186-.01218142l1.5 1.5c.2859079.28599425.3714219.71603662.216678 1.08965456s-.5192821.61725909-.923678.61734544z" fill="#955ba5"/><path id="Shape" d="m17 9c-.4043959-.00008635-.7689341-.2437275-.923678-.61734544s-.0692299-.80366031.216678-1.08965456l1.5-1.5c.2510745-.25995658.6228779-.3642126.9725073-.27269716.3496295.09151544.6226744.3645604.7141899.71418984.0915154.34962943-.0127406.72143285-.2726972.97250732l-1.5 1.5c-.1874927.18754937-.4418052.29294336-.707.293z" fill="#955ba5"/><path id="Shape" d="m21.5 4.5c-.4043959-.00008635-.7689341-.2437275-.923678-.61734544s-.0692299-.80366031.216678-1.08965456l1.5-1.5c.2510745-.25995658.6228779-.3642126.9725073-.27269716.3496295.09151544.6226744.3645604.7141899.71418984.0915154.34962943-.0127406.72143285-.2726972.97250732l-1.5 1.5c-.1874927.18754937-.4418052.29294336-.707.293z" fill="#955ba5"/><path id="Shape" d="m44.165 9.725c-2.5147452.952074-4.4971608 2.9417779-5.44 5.46-.0758797.1963249-.2665826.3241088-.4770134.3196315-.2104309-.0044772-.395526-.1402568-.4629866-.3396315-.9542801-2.5063339-2.9336661-4.4857199-5.44-5.44-.2049159-.06488657-.3441746-.25505631-.3441746-.47s.1392587-.40511343.3441746-.47c2.5117829-.94584743 4.4941526-2.9282171 5.44-5.44.0648866-.20491589.2550563-.3441746.47-.3441746s.4051134.13925871.47.3441746c.9459827 2.51868332 2.9378622 4.50326655 5.46 5.44.1963249.07587973.3241088.2665826.3196315.47701344-.0044772.21043084-.1402568.39552597-.3396315.46298656z" fill="#f3d55b"/><path id="Shape" d="m14.54 18.53c-1.3795541.6750687-2.4949313 1.7904459-3.17 3.17-.0760488.181264-.2534293.2992038-.45.2992038s-.3739512-.1179398-.45-.2992038c-.67291913-1.3810881-1.7889119-2.4970809-3.17-3.17-.18126397-.0760488-.29920381-.2534293-.29920381-.45s.11793984-.3739512.29920381-.45c1.3810881-.6729191 2.49708087-1.7889119 3.17-3.17.0760488-.181264.2534293-.2992038.45-.2992038s.3739512.1179398.45.2992038c.6750687 1.3795541 1.7904459 2.4949313 3.17 3.17.181264.0760488.2992038.2534293.2992038.45s-.1179398.3739512-.2992038.45z" fill="#f3d55b"/></g></g></svg>