<svg viewBox="0 0 128 128" xmlns="http://www.w3.org/2000/svg"><g><g fill="#45ba8c"><path d="M63.939 10.106A7.346 7.346 0 0 0 59.9 23.592l-2.112 13.472h12.3l-2.113-13.472a7.346 7.346 0 0 0-4.036-13.486M32.531 38.324l8.029 11.022 8.7-8.7-11.022-8.029a7.349 7.349 0 1 0-5.707 5.707zM37.063 70.212v-12.3l-13.471 2.113a7.348 7.348 0 1 0 0 8.071zM40.646 78.74l-8.029 11.022a7.348 7.348 0 1 0 5.707 5.707l11.022-8.029zM68.1 104.407l2.116-13.471h-12.3l2.116 13.471a7.349 7.349 0 1 0 8.071 0zM95.469 89.676 87.44 78.654l-8.7 8.7 11.022 8.029a7.349 7.349 0 1 0 5.707-5.707zM110.545 56.591a7.338 7.338 0 0 0-6.138 3.313l-13.471-2.116v12.3l13.471-2.116a7.348 7.348 0 1 0 6.138-11.384zM87.354 49.26l8.029-11.022a7.349 7.349 0 1 0-5.707-5.707L78.654 40.56z" fill="#45ba8c"></path></g><g fill="#0aa76d"><path d="M52.6 38.222a1.752 1.752 0 0 1-1.619-1.081l-3.452-8.336a1.751 1.751 0 0 1 3.235-1.339l3.454 8.334a1.752 1.752 0 0 1-1.616 2.42zM36.473 54.346a1.737 1.737 0 0 1-.669-.134l-8.336-3.454a1.75 1.75 0 1 1 1.34-3.233l8.336 3.454a1.75 1.75 0 0 1-.671 3.367zM28.136 80.6a1.75 1.75 0 0 1-.671-3.367l8.335-3.45a1.75 1.75 0 1 1 1.34 3.233l-8.337 3.452a1.748 1.748 0 0 1-.667.132zM49.141 101.612a1.75 1.75 0 0 1-1.617-2.42l3.453-8.336a1.751 1.751 0 0 1 3.235 1.34l-3.453 8.336a1.752 1.752 0 0 1-1.618 1.08zM78.852 101.615a1.752 1.752 0 0 1-1.618-1.081L73.782 92.2a1.751 1.751 0 0 1 3.235-1.339l3.452 8.339a1.752 1.752 0 0 1-1.617 2.42zM99.861 80.609a1.744 1.744 0 0 1-.669-.134l-8.336-3.454a1.75 1.75 0 1 1 1.34-3.233l8.336 3.454a1.75 1.75 0 0 1-.671 3.367zM91.529 54.351a1.75 1.75 0 0 1-.671-3.367l8.342-3.452a1.75 1.75 0 1 1 1.34 3.233l-8.34 3.452a1.744 1.744 0 0 1-.671.134zM75.4 38.224a1.751 1.751 0 0 1-1.616-2.42l3.453-8.336a1.751 1.751 0 0 1 3.235 1.34l-3.454 8.336a1.752 1.752 0 0 1-1.618 1.08z" fill="#0aa76d"></path></g><circle cx="64" cy="64" fill="#21b27f" r="29.795"></circle><g fill="#52dea7"><path d="M62.53 50.773a5.818 5.818 0 1 1-5.818-5.819 5.818 5.818 0 0 1 5.818 5.819z" fill="#52dea7"></path><circle cx="75.966" cy="73.768" fill="#52dea7" r="6.084"></circle><path d="M79.263 54.022a3.927 3.927 0 1 1-3.927-3.922 3.927 3.927 0 0 1 3.927 3.922z" fill="#52dea7"></path><circle cx="52.818" cy="72.409" fill="#52dea7" r="8.443"></circle><circle cx="44.375" cy="56.712" fill="#52dea7" r="1.75"></circle><circle cx="69.881" cy="43.204" fill="#52dea7" r="1.75"></circle><circle cx="65.811" cy="62.311" fill="#52dea7" r="1.75"></circle><circle cx="65.811" cy="85.909" fill="#52dea7" r="1.75"></circle><circle cx="85.72" cy="63.136" fill="#52dea7" r="1.75"></circle></g></g></svg>