<svg viewBox="0 0 512 512" xmlns="http://www.w3.org/2000/svg"><g><path d="M404.669 218.677c0-12.798-5.173-24.384-13.54-32.79-4.872-4.896-7.196-11.761-6.764-18.655.047-.758.071-1.522.071-2.291 0-12.73-6.537-23.934-16.438-30.437-6.68-4.388-10.9-11.66-10.9-19.652v-12.48C357.098 46.623 312.505.414 256.757.003 200.571-.41 154.9 45.011 154.9 101.1v13.752c0 7.993-4.22 15.264-10.9 19.652-9.9 6.503-16.438 17.706-16.438 30.437 0 .77.024 1.534.071 2.291.432 6.894-1.892 13.759-6.764 18.655-8.367 8.407-13.54 19.992-13.54 32.79 0 12.878 5.238 24.529 13.697 32.948 4.776 4.753 7.15 11.297 6.64 18.015a37.02 37.02 0 0 0 .104 6.712c1.114 10.495 6.79 19.644 14.927 25.531l5.897 5.698h211.391l9.301-5.689c8.144-5.887 13.825-15.04 14.939-25.541.242-2.281.271-4.524.105-6.712-.51-6.718 1.864-13.262 6.64-18.015 8.462-8.418 13.699-20.069 13.699-32.947z" fill="#9d5e5e"></path><path d="M176.94 276.353a36.931 36.931 0 0 1-.104-6.712c.51-6.718-1.864-13.262-6.64-18.015-8.459-8.42-13.697-20.07-13.697-32.948 0-12.798 5.173-24.384 13.54-32.79 4.873-4.896 7.196-11.761 6.764-18.655a36.253 36.253 0 0 1-.071-2.291c0-12.73 6.537-23.934 16.438-30.437 6.68-4.388 10.9-11.66 10.9-19.652V101.1c0-47.32 32.507-87.046 76.409-98.064A99.704 99.704 0 0 0 256.76.003C200.571-.41 154.9 45.011 154.9 101.1v13.752c0 7.993-4.22 15.264-10.9 19.652-9.9 6.503-16.438 17.706-16.438 30.437 0 .77.024 1.534.071 2.291.432 6.894-1.892 13.759-6.764 18.655-8.367 8.407-13.54 19.992-13.54 32.79 0 12.878 5.238 24.529 13.697 32.948 4.776 4.753 7.15 11.297 6.64 18.015a37.02 37.02 0 0 0 .104 6.712c1.114 10.495 6.79 19.644 14.927 25.531l5.897 5.698h49.168l-5.897-5.698c-8.136-5.886-13.811-15.035-14.925-25.53z" fill="#865151"></path><path d="m326.195 285.205-1.218-.472-8.601 3.791-62.842 52.196-60.609-54.085-6.494-1.706-.705.273-3.051 4.866L222.2 501.257l8.99 10.741h49.544l4.308-4.818 46.101-215.739z" fill="#fff5f5"></path><path d="M249.495 345.291v-8.175l-56.57-50.48-6.494-1.706-.705.273-3.051 4.866L222.2 501.258l8.99 10.741h49.544l3.041-3.4z" fill="#eee1dd"></path><path d="M301.871 275.785a7.436 7.436 0 0 1-4.752-6.916l-.02-24.181-10.77-1.75h-66.394l-5.098 1.9.001 23.986c0 5.691-5.076 7.061-7.24 7.9v-.001l-21.166 8.206 50.556 53.196c9.554 9.554 25.044 9.554 34.598 0l53.392-53.392-23.107-8.948z" fill="#fed1a3"></path><path d="M249.495 344.815V242.938h-29.56l-5.098 1.9.001 23.986c0 5.691-5.076 7.061-7.24 7.9v-.001l-21.166 8.206 50.556 53.196a24.331 24.331 0 0 0 12.507 6.69z" fill="#ffbc85"></path><path d="m185.726 285.204-79.505 30.823c-17.194 7.076-40.217 29.341-40.217 62.38v120.192c0 7.401 6 13.402 13.402 13.402H231.19zM326.195 285.205 280.733 512h151.863c7.402 0 13.402-6 13.402-13.402V378.406c0-28.453-18.217-53.325-40.216-62.38l-79.587-30.821z" fill="#da7e4a"></path><path d="M135.754 512V370.515a7.726 7.726 0 1 0-15.452 0V512zM391.698 512V370.515a7.726 7.726 0 1 0-15.452 0V512z" fill="#cb6c35"></path><path d="M317.319 121.893c-10.494-10.401-25.249-29.108-36.307-53.789-2.807-6.265-9.4-3.751-10.208 1.321-1.273 7.998-7.791 35.021-39.53 61.036v53.289c0 31.335 19.352 58.683 46.687 70.171 29.649-9.192 51.36-37.271 51.36-69.812v-33.112c.001-10.905-4.257-21.426-12.002-29.104z" fill="#ffe5c1"></path><path d="M233.224 184.11v-55.275c-7.888 6.694-17.409 13.349-28.914 19.625-13.316 7.264-21.636 21.192-21.636 36.361 0 37.681 29.456 72.128 74.076 72.278a70.712 70.712 0 0 0 24.523-4.295c-27.941-10.195-48.049-37.377-48.049-68.694z" fill="#fed1a3"></path><path d="M99.693 378.291c0-31.518 15.601-55.895 28.86-70.923l-22.333 8.658c-17.194 7.076-40.217 29.341-40.217 62.38v120.192c0 7.402 6 13.402 13.401 13.402h20.288l.001-133.709z" fill="#cb6c35"></path></g></svg>