<svg viewBox="0 0 497 497" xmlns="http://www.w3.org/2000/svg"><g><path d="M489.5 324.5H467l-30 75 60-30V332a7.5 7.5 0 0 0-7.5-7.5z" fill="#42c967"></path><path d="M0 332v37.5l30 30h437v-75H7.5A7.5 7.5 0 0 0 0 332z" fill="#78d280"></path><path d="M497 369.5h-30l-60 63.75L467 497h22.5a7.5 7.5 0 0 0 7.5-7.5v-41.25l-20-15 20-15z" fill="#32363d"></path><path d="M0 369.5v48.75l20 15-20 15v41.25a7.5 7.5 0 0 0 7.5 7.5H467V369.5z" fill="#41494e"></path><path d="M497 418.25h-30l-30 15 30 15h30z" fill="#e0fbff"></path><g fill="#fff"><path d="M351.333 418.25H467v30H351.333zM0 418.25h145.667v30H0zM175.667 418.25h145.667v30H175.667z" fill="#ffffff"></path></g><path d="M248.5 0v294.5c5.015 0 9.444-2.471 12.168-6.251l79.22-110.134C353.172 159.645 361 136.988 361 112.5 361 50.368 310.632 0 248.5 0z" fill="#ff0f04"></path><path d="m255.801 288.249 47.532-110.134C311.303 159.645 316 136.988 316 112.5 316 50.368 285.779 0 248.5 0 186.368 0 136 50.368 136 112.5c0 24.488 7.828 47.145 21.113 65.615l79.22 110.134c2.723 3.781 7.152 6.251 12.168 6.251 3.008 0 5.666-2.471 7.3-6.251z" fill="#ff362d"></path><path d="M248.5 45v135c37.279 0 67.5-30.221 67.5-67.5S285.779 45 248.5 45z" fill="#baf7ff"></path><path d="M286 112.5c0-37.279-16.789-67.5-37.5-67.5-37.279 0-67.5 30.221-67.5 67.5s30.221 67.5 67.5 67.5c20.711 0 37.5-30.221 37.5-67.5z" fill="#ffffff"></path></g></svg>