<svg viewBox="0 0 511 511.999" xmlns="http://www.w3.org/2000/svg"><g><path d="M427.898 453.715v11.308c0 7.957-6.449 14.407-14.406 14.407H67.641c-7.434 0-13.457-6.028-13.457-13.461V453.71H.5v19.652C.5 494.703 17.797 512 39.133 512h403.816c21.336 0 38.633-17.297 38.633-38.637v-19.652h-53.684zm0 0" fill="#4f7693"></path><path d="M370.883 483.055H112.77c-12.403 0-22.457-10.055-22.457-22.461v-5.02c0-1.027.832-1.86 1.859-1.86h299.312c1.024 0 1.86.833 1.86 1.86v5.02c0 12.406-10.059 22.46-22.461 22.46zm0 0" fill="#ffae85"></path><path d="M391.484 453.715H92.172c-1.027 0-1.86.832-1.86 1.86v5.019c0 1.426.145 2.812.399 4.164h261.824c8.715 0 15.383 8.062 13.399 16.547-.172.73-.38 1.332-.625 1.75h5.574c12.406 0 22.46-10.059 22.46-22.461v-5.024a1.86 1.86 0 0 0-1.859-1.855zm0 0" fill="#ea9e7d"></path><path d="M54.184 366.29H18.75l2.871-21.067 1.805-13.23 27.48 1.683 1.117 11.129zm0 0" fill="#fedfc5"></path><path d="m141.766 426.605-35.965.13-49.004-58.696a34.244 34.244 0 0 0-38.047-1.742l-4.395 2.656a17.529 17.529 0 0 0-8.414 13.707L.5 453.715h53.684v-37.86l36.129 37.95h71.78v-1.668c-.003-12.207-8.433-22.797-20.327-25.532zm0 0" fill="#ff84a7"></path><path d="M52.023 344.805a29.905 29.905 0 0 1-15.554 4.343c-5.41 0-10.473-1.421-14.848-3.925l1.805-13.23 27.48 1.683zm0 0" fill="#fecbaa"></path><path d="M68.938 280.227v28.597c0 16.582-13.438 30.02-30.008 30.02-11.996 0-22.34-7.028-27.145-17.2a29.948 29.948 0 0 1-2.87-12.82v-28.597c0-11.977 9.71-21.676 21.675-21.676h16.683c10.797 0 19.735 7.883 21.383 18.219a21.03 21.03 0 0 1 .281 3.457zm0 0" fill="#fedfc5"></path><path d="m68.656 276.77-31.781 12.582a7.09 7.09 0 0 0-4.48 6.59v7.546c0 2.32-1.13 4.48-3.016 5.805l-17.594 12.352a29.948 29.948 0 0 1-2.87-12.82v-28.598c0-11.977 9.71-21.676 21.675-21.676h16.683c10.797 0 19.735 7.883 21.383 18.219zm0 0" fill="#c97f4c"></path><path d="M463.332 366.29h-35.437l1.66-16.505 1.617-16.11 27.48-1.683 2.102 15.36zm0 0" fill="#fedfc5"></path><path d="m481.582 453.715-5.441-71.055a17.538 17.538 0 0 0-8.414-13.707l-4.395-2.656a34.244 34.244 0 0 0-38.047 1.742l-49.004 58.695-35.965-.129c-11.898 2.735-20.328 13.325-20.328 25.532v1.664h71.782l36.128-37.95v37.86h53.684zm0 0" fill="#83d9ff"></path><path d="M460.754 347.352a29.905 29.905 0 0 1-17.606 5.703c-4.894 0-9.52-1.172-13.593-3.27l1.617-16.11 27.48-1.683zm0 0" fill="#fecbaa"></path><path d="M473.168 280.227v28.597c0 4.582-1.035 8.938-2.871 12.82-4.805 10.172-15.152 17.2-27.149 17.2-16.57 0-30.007-13.442-30.007-30.02v-28.597c0-1.18.097-2.329.285-3.457 1.648-10.336 10.586-18.22 21.383-18.22h16.695c11.96 0 21.664 9.704 21.664 21.677zm0 0" fill="#fedfc5"></path><path d="M473.168 280.227v28.597c0 4.582-1.035 8.938-2.871 12.82l-17.594-12.347a7.091 7.091 0 0 1-3.02-5.809v-7.547a7.087 7.087 0 0 0-4.476-6.59l-31.785-12.578c1.652-10.336 10.59-18.218 21.383-18.218H451.5c11.965-.004 21.668 9.699 21.668 21.672zm0 0" fill="#c97f4c"></path><path d="M209.023 78.5v121.426c0 3.52-1.273 6.734-3.382 9.23a14.255 14.255 0 0 1-10.922 5.074H82.929c-2.495 0-4.761 1.461-5.753 3.739-3.852 8.875-12.696 15.078-22.992 15.078-10.293 0-19.137-6.203-23-15.078-.993-2.278-3.258-3.739-5.743-3.739H23.22c-7.903 0-14.305-6.41-14.305-14.304V78.5c0-7.902 6.402-14.305 14.305-14.305h171.5c7.906 0 14.304 6.403 14.304 14.305zM473.48 78.5v121.426c0 7.894-6.402 14.304-14.304 14.304h-2.223c-2.488 0-4.754 1.461-5.742 3.739-3.863 8.875-12.707 15.078-23.004 15.078-10.281 0-19.125-6.203-22.988-15.078-.992-2.278-3.258-3.739-5.742-3.739H287.676c-5.805 0-10.809-3.464-13.051-8.433a14.28 14.28 0 0 1-1.254-5.871V78.5c0-7.902 6.399-14.305 14.305-14.305h171.5c7.902 0 14.304 6.403 14.304 14.305zm0 0" fill="#a7c7d3"></path><path d="M346.094 0H131.047c-9.91 0-17.942 8.031-17.942 17.941v147.45c0 9.906 8.032 17.941 17.942 17.941h71.484c3.117 0 5.961 1.828 7.207 4.688 4.836 11.125 15.926 18.906 28.836 18.906 12.906 0 23.996-7.778 28.836-18.906 1.242-2.86 4.086-4.688 7.203-4.688h71.48c9.91 0 17.946-8.031 17.946-17.941V17.94C364.04 8.031 356.004 0 346.094 0zm0 0" fill="#e9edf1"></path><path d="M209.023 78.5v121.426c0 3.52-1.273 6.734-3.382 9.23a46.914 46.914 0 0 1-7.883-10.16H131.05c-18.535 0-33.61-15.074-33.61-33.605V64.195h97.278c7.906 0 14.304 6.403 14.304 14.305zM379.7 64.195v101.196c0 18.53-15.079 33.605-33.61 33.605h-66.695a46.727 46.727 0 0 1-4.77 6.8 14.28 14.28 0 0 1-1.254-5.87V78.5c0-7.902 6.399-14.305 14.305-14.305zm0 0" fill="#89b4c9"></path><path d="M346.094 0H131.047c-9.91 0-17.942 8.031-17.942 17.941v147.45c0 9.906 8.032 17.941 17.942 17.941h71.484c3.117 0 5.961 1.828 7.207 4.688 4.836 11.125 15.926 18.906 28.836 18.906 12.906 0 23.996-7.778 28.836-18.906 1.242-2.86 4.086-4.688 7.203-4.688h71.48c9.91 0 17.946-8.031 17.946-17.941V17.94C364.04 8.031 356.004 0 346.094 0zm0 0" fill="#e9edf1"></path><g fill="#a7c7d3"><path d="M319.988 51.875H152.957a7.829 7.829 0 0 1-7.832-7.832 7.828 7.828 0 0 1 7.832-7.828h167.031a7.83 7.83 0 1 1 0 15.66zM319.988 91.574H152.957a7.829 7.829 0 0 1-7.832-7.832 7.828 7.828 0 0 1 7.832-7.828h167.031a7.83 7.83 0 1 1 0 15.66zM243.094 131.273h-90.137a7.828 7.828 0 0 1-7.832-7.828 7.829 7.829 0 0 1 7.832-7.832h90.137a7.829 7.829 0 0 1 7.832 7.832 7.828 7.828 0 0 1-7.832 7.828zm0 0" fill="#a7c7d3"></path></g><path d="M208.652 373.047a21.924 21.924 0 0 0 7.914-4.7 21.992 21.992 0 0 0 6.985-16.066v-20.258h36.55v20.258a21.894 21.894 0 0 0 6.079 15.16 21.6 21.6 0 0 0 8.824 5.606zm0 0" fill="#fedfc5"></path><path d="M260.105 332.023v13.008l-8.32 5.074a19.117 19.117 0 0 1-19.914 0l-8.32-5.074v-13.008zm0 0" fill="#fecbaa"></path><path d="M277.54 267.781v44.364a19.19 19.19 0 0 1-9.188 16.382l-16.57 10.094a19.127 19.127 0 0 1-19.91 0L215.3 328.527a19.173 19.173 0 0 1-9.188-16.382V267.78c0-12.207 9.88-22.094 22.051-22.094h27.313c12.187 0 22.062 9.887 22.062 22.094zm0 0" fill="#fedfc5"></path><path d="M255.477 245.688h-16.711c12.183 0 22.062 9.886 22.062 22.093v44.364a19.194 19.194 0 0 1-9.191 16.382l-16.567 10.094c-.523.32-1.058.598-1.601.863a19.12 19.12 0 0 0 18.312-.863l16.57-10.094a19.2 19.2 0 0 0 9.188-16.382V267.78c0-12.207-9.875-22.094-22.062-22.094zm0 0" fill="#fecbaa"></path><path d="M277.54 267.781v20.61l-47.368-15.254-24.059 12.558v-17.914c0-12.207 9.88-22.094 22.051-22.094h27.313c12.187 0 22.062 9.887 22.062 22.094zm0 0" fill="#618aaa"></path><path d="M255.43 245.688h-16.711c12.183 0 22.058 9.886 22.058 22.093v15.227l16.715 5.383v-20.61c0-12.207-9.879-22.094-22.062-22.094zm0 0" fill="#4f7693"></path><path d="M167.297 453.719v-37.145c0-17.687 11.273-33.398 28.02-39.039l13.335-4.488a21.828 21.828 0 0 0 7.91-4.703 68.957 68.957 0 0 0 25.118 4.144c9.382-.203 17.586-2.261 24.496-5.047a21.732 21.732 0 0 0 8.828 5.606l13.336 4.488c16.734 5.64 28.015 21.352 28.015 39.04v37.144zm0 0" fill="#69d998"></path><path d="m240.96 372.61-15.683 55.437a4.331 4.331 0 0 0 .946 4.074l11.672 13.012a4.336 4.336 0 0 0 6.304.16l12.985-13.098a4.335 4.335 0 0 0 1.062-4.343zm0 0" fill="#3dc5a1"></path></g></svg>