<svg viewBox="0 0 60 60" xmlns="http://www.w3.org/2000/svg"><g><path d="M5 4h50v18H5z" fill="#dae1e8"></path><g fill="#0f3859"><path d="M5 4h7v6H5zM5 16h7v6H5zM18 4h6v6h-6zM18 16h6v6h-6zM30 4h6v6h-6zM30 16h6v6h-6zM42 4h6v6h-6zM42 16h6v6h-6zM48 10h7v6h-7zM12 10h6v6h-6zM24 10h6v6h-6zM36 10h6v6h-6z" fill="#0f3859"></path></g><path d="M54 40s-7.3 2-24 2-24-2-24-2H5v-5h1s7.3 2 24 2 24-2 24-2h1v5z" fill="#e03f4f"></path><path d="M4 1a2 2 0 0 1 2 2v53H2V3a2 2 0 0 1 2-2zM56 1a2 2 0 0 1 2 2v53h-4V3a2 2 0 0 1 2-2z" fill="#b4bfd1"></path><rect fill="#859aaf" rx="1"></rect><rect fill="#859aaf" rx="1"></rect></g></svg>