<svg viewBox="0 0 512 512" xmlns="http://www.w3.org/2000/svg"><g><path d="M112 48v140.686c0 6.248 5.065 11.314 11.314 11.314h32c3.001 0 5.878-1.192 8-3.314L184 176h216c17.673 0 32-14.327 32-32V48c0-17.673-14.327-32-32-32H144c-17.673 0-32 14.327-32 32z" fill="#faa019"></path><path d="M112 48v140.686c0 6.248 5.065 11.314 11.314 11.314 3.001 0 5.878-1.192 8-3.314L152 176h216c17.673 0 32-14.327 32-32V48c0-17.673-14.327-32-32-32H144c-17.673 0-32 14.327-32 32z" fill="#ffd205"></path><path d="M380 72c0-24.262-19.738-44-44-44a43.739 43.739 0 0 0-22.024 5.919A59.648 59.648 0 0 0 288 28a59.642 59.642 0 0 0-32 9.264A59.642 59.642 0 0 0 224 28c-9.3 0-18.112 2.127-25.976 5.919A43.739 43.739 0 0 0 176 28c-24.262 0-44 19.738-44 44 0 9.598 3.09 18.488 8.326 25.728A60.458 60.458 0 0 0 140 104c0 33.084 26.916 60 60 60a59.641 59.641 0 0 0 28-6.943c8.364 4.432 17.894 6.943 28 6.943s19.636-2.512 28-6.943A59.63 59.63 0 0 0 312 164c33.084 0 60-26.916 60-60 0-2.118-.111-4.21-.326-6.272A43.764 43.764 0 0 0 380 72zm-44-36c19.851 0 36 16.149 36 36 0 4.923-.994 9.618-2.791 13.896-5.655-17.83-19.431-32.079-36.965-38.382a60.477 60.477 0 0 0-10.022-8.773A35.814 35.814 0 0 1 336 36zm-48 104c-5.457 0-10.72-.845-15.666-2.411a52.228 52.228 0 0 1-5.418-7.698C277.481 119.07 284 104.282 284 88a59.662 59.662 0 0 0-5.059-24.11A52.186 52.186 0 0 1 284 60.199a52.384 52.384 0 0 1 8.305 6.607A44.322 44.322 0 0 0 292 72c0 13.618 6.219 25.811 15.966 33.888-.468 13.055-5.772 24.899-14.171 33.791A52.319 52.319 0 0 1 288 140zm-64 0c-1.959 0-3.892-.109-5.795-.321-8.398-8.892-13.702-20.736-14.171-33.791C213.781 97.811 220 85.618 220 72c0-1.757-.104-3.49-.305-5.194A52.429 52.429 0 0 1 228 60.199a52.309 52.309 0 0 1 5.059 3.691A59.662 59.662 0 0 0 228 88c0 16.282 6.519 31.07 17.084 41.891a52.356 52.356 0 0 1-5.418 7.698A51.816 51.816 0 0 1 224 140zm-52-52c0-12.793 4.644-24.521 12.334-33.589A51.816 51.816 0 0 1 200 52c2.084 0 4.139.124 6.16.363a35.804 35.804 0 0 1 4.986 11.826c-8.984 10.111-14.609 23.268-15.109 37.706A35.794 35.794 0 0 1 176 108a51.722 51.722 0 0 1-4-20zm-4.96 18.871c-7.238-1.861-13.603-5.922-18.336-11.425 2.334-14.046 10.318-26.207 21.529-34.061A59.628 59.628 0 0 0 164 88c0 6.59 1.068 12.935 3.04 18.871zm31.583-62.855c-.839.019-1.675.055-2.505.108.488-.311.981-.614 1.479-.909.346.261.689.528 1.026.801zm17.816 10.647c1.216.406 2.411.856 3.586 1.348a61.132 61.132 0 0 0-2.352 1.86 43.172 43.172 0 0 0-1.234-3.208zm-4.763 22.169a35.806 35.806 0 0 1-6.528 16.273 51.701 51.701 0 0 1 6.528-16.273zm-15.273 34.145a59.616 59.616 0 0 0 9.295 25.699c-10.628-4.009-19.608-11.404-25.619-20.864a43.682 43.682 0 0 0 16.324-4.835zM256 52c1.959 0 3.892.109 5.795.321a52.342 52.342 0 0 1 7.289 9.788A60.144 60.144 0 0 0 256 82.454a60.169 60.169 0 0 0-13.084-20.345 52.374 52.374 0 0 1 7.289-9.788A52.319 52.319 0 0 1 256 52zm4 52c0-13.026 4.815-24.949 12.758-34.082A51.758 51.758 0 0 1 276 88c0 13.026-4.815 24.949-12.758 34.082A51.758 51.758 0 0 1 260 104zm14.302-48.675a51.46 51.46 0 0 1 1.723.686c-.291.219-.581.441-.868.665-.28-.455-.565-.905-.855-1.351zm-25.544 66.757C240.815 112.949 236 101.026 236 88a51.758 51.758 0 0 1 3.242-18.082C247.185 79.051 252 90.974 252 104a51.758 51.758 0 0 1-3.242 18.082zm-11.915-65.407a62.258 62.258 0 0 0-.868-.665 51.46 51.46 0 0 1 1.723-.686c-.29.447-.575.897-.855 1.351zm18.098 71.435c.372-.844.725-1.699 1.059-2.563.334.864.687 1.719 1.059 2.563-.349.288-.702.572-1.059.851-.357-.279-.71-.563-1.059-.851zm39.386-70.239a59.43 59.43 0 0 0-2.352-1.86 51.364 51.364 0 0 1 3.586-1.348 43.172 43.172 0 0 0-1.234 3.208zm5.997 18.961a51.678 51.678 0 0 1 6.528 16.273 35.79 35.79 0 0 1-6.528-16.273zm15.273 34.145a43.669 43.669 0 0 0 16.324 4.835c-6.011 9.459-14.992 16.854-25.619 20.864a59.634 59.634 0 0 0 9.295-25.699zM336 108a35.794 35.794 0 0 1-20.037-6.105c-.5-14.437-6.126-27.595-15.109-37.706a35.816 35.816 0 0 1 4.986-11.826c2.02-.24 4.076-.363 6.16-.363 5.457 0 10.72.845 15.666 2.411C335.356 63.479 340 75.207 340 88c0 7.083-1.424 13.84-4 20zm-21.597-64.785c.499.295.992.598 1.479.909a61.078 61.078 0 0 0-2.505-.108c.337-.273.68-.54 1.026-.801zm27.365 18.17c11.211 7.854 19.195 20.016 21.529 34.061-4.733 5.503-11.098 9.564-18.336 11.425A59.784 59.784 0 0 0 348 88a59.641 59.641 0 0 0-6.232-26.615zM288 36a51.746 51.746 0 0 1 18.486 3.395 44.286 44.286 0 0 0-5.168 5.558A59.521 59.521 0 0 0 284 50.944a59.551 59.551 0 0 0-18.443-6.183 59.995 59.995 0 0 0-2.575-2.337A51.681 51.681 0 0 1 288 36zm-64 0a51.692 51.692 0 0 1 25.018 6.423 60.6 60.6 0 0 0-2.575 2.337A59.534 59.534 0 0 0 228 50.943a59.55 59.55 0 0 0-17.318-5.991 44.355 44.355 0 0 0-5.168-5.558A51.768 51.768 0 0 1 224 36zm-84 36c0-19.851 16.149-36 36-36 4.878 0 9.532.976 13.778 2.741a60.483 60.483 0 0 0-10.022 8.773c-17.534 6.303-31.31 20.552-36.965 38.382A35.799 35.799 0 0 1 140 72zm60 84c-28.021 0-50.937-22.279-51.964-50.053 6.342 5.233 14.169 8.727 22.745 9.745 8.612 16.484 24.66 28.494 43.662 31.548a60.498 60.498 0 0 0 5.581 4.75A51.705 51.705 0 0 1 200 156zm56 0a51.714 51.714 0 0 1-20.025-4.01 60.433 60.433 0 0 0 8.269-7.504 59.771 59.771 0 0 0 11.755-5.75 59.799 59.799 0 0 0 11.755 5.75 60.55 60.55 0 0 0 8.269 7.504A51.696 51.696 0 0 1 256 156zm56 0a51.714 51.714 0 0 1-20.025-4.01 60.498 60.498 0 0 0 5.581-4.75c19.003-3.054 35.05-15.064 43.662-31.548 8.576-1.018 16.403-4.511 22.745-9.745C362.937 133.721 340.021 156 312 156z" fill="#555a6e"></path><path d="M432 208H128v288h160v-48h96c35.346 0 64-28.654 64-64V224c0-8.836-7.163-16-16-16z" fill="#fab991"></path><path d="M332.77 272.393c-5.43 0-11.242-1.713-17.26-5.188a8 8 0 0 1 8-13.856c4.597 2.654 8.45 3.591 11.455 2.787 3.003-.805 5.872-3.544 8.526-8.141a8 8 0 0 1 13.856 8c-6.257 10.839-14.797 16.398-24.577 16.398zM419.23 272.393c-9.782 0-18.32-5.558-24.578-16.398a8 8 0 0 1 13.856-8c2.654 4.597 5.523 7.336 8.526 8.141 3.005.805 6.858-.133 11.455-2.787a8 8 0 0 1 8 13.856c-6.015 3.474-11.829 5.188-17.259 5.188zM400 400a7.976 7.976 0 0 1-5.657-2.343c-7.54-7.54-13.146-7.54-20.687 0a8 8 0 0 1-11.313 0 7.998 7.998 0 0 1 0-11.313C369.206 379.48 376.493 376 384 376s14.794 3.48 21.657 10.343a7.998 7.998 0 0 1 0 11.313A7.973 7.973 0 0 1 400 400zM112 208c-8.837 0-16 7.164-16 16v160c0 17.673 14.327 32 32 32h80c17.673 0 32-14.327 32-32v-80c26.51 0 48-21.49 48-48v-48z" fill="#463c4b"></path><path d="M240 256c-26.51 0-48 21.49-48 48s21.49 48 48 48zM288 496H128c0-26.51 21.49-48 48-48h112zM400 352c-13.255 0-24-10.745-24-24v-56c26.51 0 48 21.49 48 48v8c0 13.255-10.745 24-24 24z" fill="#f0915a"></path></g></svg>