<svg viewBox="0 0 328.468 328.468" xmlns="http://www.w3.org/2000/svg"><g><path d="M269.466 79.983v7.994a514.701 514.701 0 0 0-14.888 5.498A816.314 816.314 0 0 0 19.922 233.812l-2.538 2.918-.465-.719A159.353 159.353 0 0 1 .001 164.109 161.022 161.022 0 0 1 52.109 45.681c1.396-1.353 2.876-2.622 4.23-3.891 54.984-27.915 114.536-13.027 156.494 5.752h.254a311.779 311.779 0 0 1 35.909 18.991l3.384 2.115.761.465c10.53 6.175 16.325 10.87 16.325 10.87z" fill="#e56353"></path><path d="M273.907 112.254c0 43.818-8.713 160.258-94.531 213.424-1.396 0-2.834.254-4.23.338-3.637.254-7.275.381-10.955.381-61.923.169-118.694-34.452-146.893-89.582l-.381-.804 2.918-2.115c2.834-3.214 84.591-94.869 234.106-141.267a410.888 410.888 0 0 1 15.438-4.568l3.976 7.148s0 2.961.381 8.205c.129 2.411.171 5.414.171 8.84z" fill="#fcd462"></path><path d="M322.885 205.981c-18.155 65.948-75.374 113.673-143.509 119.697-1.396 0-2.834.254-4.23.338 34.555-24.151 90.893-83.195 98.253-214.016 0-2.834.296-5.752.423-8.459v-2.622l13.112-3.172a92.442 92.442 0 0 1 7.613 9.136 146.71 146.71 0 0 1 18.314 32.906 144.598 144.598 0 0 1 10.024 66.192z" fill="#44c4a1"></path><path d="m269.466 66.406-15.903 2.622-.55-.465-3.341-2.157a259.87 259.87 0 0 0-35.951-18.948h-.254c-74.652-31.806-135.6-13.196-161.315-1.776 1.396-1.353 2.876-2.622 4.23-3.891 55.011-46.979 134.131-52.867 195.49-14.55a49.283 49.283 0 0 1 3.13 2.03 66.828 66.828 0 0 1 13.704 31.214c.293 1.791.462 3.6.508 5.414.252.253.252.507.252.507z" fill="#27a2db"></path><path d="M322.885 205.981c.55-12.223 1.142-40.942-9.855-66.15a181.253 181.253 0 0 0-18.525-32.314 269.368 269.368 0 0 0-7.402-9.728l-2.411-15.945 1.353-.381 3.934-.931c3.595-.846 8.459-1.861 13.365-2.538a159.838 159.838 0 0 1 25.124 86.114 244.395 244.395 0 0 1-5.583 41.873z" fill="#e56353"></path><path d="m303.387 77.91-13.365 2.538-4.018.761-10.278 1.946s-2.495-7.529-6.26-17.51l-2.284-6.091a225.523 225.523 0 0 0-15.1-32.568 49.283 49.283 0 0 1 3.13 2.03 163.384 163.384 0 0 1 48.048 48.725z" fill="#fcd462"></path><path d="M255.424 59.554c-9.347 4.23-9.474 19.921-.296 34.852s24.151 23.432 33.498 19.118 9.517-19.964.338-34.852c-9.178-14.888-24.193-23.432-33.54-19.118z" fill="#ebf0f3"></path></g></svg>