<svg viewBox="0 0 38 38" xmlns="http://www.w3.org/2000/svg"><g><path d="M19.634 20.387a.898.898 0 0 1-1.268-1.268.898.898 0 0 1 1.268 1.268z" fill="#ffffff"></path><path d="M27.044 11.007c-7.392-7.406-20.04-4.33-23.25 5.55l-.01.01c-1.58 4.86-.44 10.42 3.42 14.28.33.33.68.65 1.05.95.93.76 1.93 1.38 2.99 1.86 5.21 2.41 11.56 1.43 15.8-2.81 5.73-5.73 5.23-14.61 0-19.84zm-.51 17.49c-.99 1.14-1.95 2.13-3.72 3.08-4.2 2.24-9.4 1.8-13.17-1.17-5.67-4.51-6.09-12.8-1.23-17.85.12-.16.46-.56.88-.97 4.7-4.71 12.36-4.71 17.07 0 4.67 4.67 4.68 12.2.17 16.91z" fill="#f3a250"></path><path d="m19.675 34.714 8.645-8.645 1.275 1.275a13.986 13.986 0 0 1-9.92 7.37zM18.034 32.643l-2.244 2.244c-1.56-.148-3.1-.558-4.549-1.226l3.906-3.905zM12.19 27.856l-3.936 3.937a13.246 13.246 0 0 1-1.055-.95 14.145 14.145 0 0 1-1.705-2.065l3.81-3.81zM8.195 21.034l-4.37 4.369a14.117 14.117 0 0 1-.713-5.06l2.196-2.197zM8.084 12.267l-4.29 4.29a13.984 13.984 0 0 1 3.85-5.97z" fill="#dd8536"></path><path d="M9.25 28.665c-5.036-5.035-5.099-13.26 0-18.357 8.198-8.199 22.152-2.263 22.154 9.195-.11 11.651-14.046 17.27-22.155 9.162z" fill="#ffffff"></path><path d="M28.86 9.096a3.546 3.546 0 0 1 0-5.008 3.546 3.546 0 0 1 5.009 0 3.546 3.546 0 0 1 0 5.008 3.546 3.546 0 0 1-5.01 0zm4.536-4.536a2.877 2.877 0 0 0-4.064 0c-1.12 1.12-1.12 2.943 0 4.064s2.944 1.12 4.064 0a2.877 2.877 0 0 0 0-4.064z" fill="#4c5c75"></path><path d="m28.516 6.368-.659.658a3.51 3.51 0 0 0 3.118 3.08l.674-.673a2.826 2.826 0 0 1-3.133-3.065z" fill="#1d2943"></path><path d="m30.075 10.396-.933.933a24.503 24.503 0 0 0-2.515-2.515l.933-.933c.162-.163 2.678 2.353 2.515 2.515z" fill="#8b95af"></path><path d="m28.939 9.016-1.01 1.01a24.893 24.893 0 0 0-1.302-1.212l.933-.933c.08-.082.75.506 1.379 1.135z" fill="#9ea9c9"></path><path d="m31.593 9.08-1.677 1.678a15.802 15.802 0 0 0-2.718-2.718l1.678-1.677c.29-.29 3.009 2.426 2.717 2.717z" fill="#c9cee2"></path><path d="M30.452 7.503 28.64 9.315a16.083 16.083 0 0 0-1.442-1.275l1.678-1.677c.145-.146.895.46 1.576 1.14z" fill="#e3e7f0"></path><path d="M8.565 29.464c-5.306-5.306-5.306-13.94 0-19.246s13.94-5.306 19.246 0 5.307 13.94 0 19.246-13.94 5.306-19.246 0zm17.906-17.906c-4.567-4.567-11.998-4.567-16.566 0s-4.567 11.999 0 16.566 11.999 4.567 16.566 0 4.567-11.999 0-16.566z" fill="#dd8536" opacity=".8"></path><path d="M8.565 29.464c-5.306-5.306-5.306-13.94 0-19.246s13.94-5.306 19.246 0 5.307 13.94 0 19.246-13.94 5.306-19.246 0zm17.906-17.906c-4.567-4.567-11.998-4.567-16.566 0s-4.567 11.999 0 16.566 11.999 4.567 16.566 0 4.567-11.999 0-16.566z" fill="#dd8536" opacity=".8"></path><path d="M28.365 9.585c-5.47-5.47-14.37-5.47-19.84 0-5.45 5.45-5.486 14.353 0 19.839 5.468 5.467 14.37 5.471 19.84 0 5.455-5.453 5.485-14.354 0-19.84zm-1.382 1.381c4.882 4.883 4.564 12.78-.107 17.183-4.717 4.602-12.297 4.565-16.969-.107-4.396-4.396-4.688-11.367-.87-16.105 4.539-5.63 12.91-6.007 17.946-.97z" fill="#ffb961"></path><path d="m23.957 25.683-3.725-5.01 4.691-.974-4.673-.677.005-.004 3.737-5.027-5.006 3.729-.678-4.675-.981 4.72-5.023-3.735L15.998 19l-4.687.974 4.735.685-3.707 4.985 4.946-3.677.687 4.74.986-4.74 4.999 3.716zm-.357-.357-4.607-3.424-.07-.167-.07-.222c.204-.083.398-.204.568-.366zm-3.437-6.25 4.368.634-4.537.14a1.809 1.809 0 0 0-.094-.606zm3.47-4.727-4.176 4.177a1.818 1.818 0 0 0-.567-.383l.12-.356zm-5.337-.914.635 4.374-.002.006-.132.283a2.032 2.032 0 0 0-.64-.104zm-5.635.952 4.18 4.18c-.152.157-.266.334-.348.524l-.372-.088-.05-.028zm3.43 6.212-4.39-.637 4.64-.142a1.9 1.9 0 0 0 .103.614l-.228.115zm-3.395 4.688 3.41-4.586.164-.1.2-.093c.087.21.233.43.404.6zm4.415-6.524a1.493 1.493 0 1 1 2.11 2.111 1.493 1.493 0 0 1-2.11-2.111zm.874 7.555-.635-4.374.012-.035.004-.002.227-.354c.173.059.354.088.534.093z" fill="#8b95af"></path><path d="m17.884 20.37-.026-.014c-.42-.235-.62-.653-.445-.935l5.33-8.6c-3.842 9.552-3.75 9.35-3.808 9.45-.17.275-.637.319-1.05.099z" fill="#e11226"></path><path d="m17.884 20.37-.026-.014c-.42-.235-.62-.653-.445-.935l5.33-8.6-4.859 9.549z" fill="#f34b58"></path><path d="m18.559 19.21.026.015c.41.251.594.677.408.952l-5.653 8.39c4.203-9.398 4.101-9.197 4.165-9.298.181-.268.65-.294 1.054-.058z" fill="#748bfd"></path><path d="m18.559 19.21.026.015c.41.251.594.677.408.952l-5.653 8.39 5.219-9.356z" fill="#5564d7"></path><path d="M31.55 17.714c.836 4.011-.902 8.86-4.08 11.513 2.891-3.016 4.475-7.415 4.08-11.513zM5.313 21.425c-.835-4.004.896-8.854 4.08-11.513-2.897 3.022-4.475 7.423-4.08 11.513z" fill="#ffffff"></path><path d="M19.384 29.517c-.097-.73 1.024-.885 1.12-.17.05.3-.15.58-.45.63h-.04c-.03.01-.06.01-.08.01-.27 0-.51-.19-.55-.47zm-3.69-.32c.168-.72 1.223-.48 1.08.24-.06.25-.29.43-.54.43a.557.557 0 0 1-.54-.67zm7.48-1.47c.27-.15.6-.06.75.2.16.26.07.6-.19.75a.6.6 0 0 1-.28.08c-.563 0-.762-.751-.28-1.03zm-10.8-.17c.17-.25.51-.32.77-.15.25.17.31.51.15.76-.11.16-.28.24-.46.24-.421 0-.712-.48-.46-.85zm13.46-2.1c.19-.24.54-.28.77-.09.24.19.27.54.09.78s0 0-.01 0c-.1.13-.26.2-.42.2a.547.547 0 0 1-.43-.89zm-16.09.14a.548.548 0 0 1 .13-.77c.25-.17.59-.11.76.14.18.24.12.59-.13.76-.09.07-.21.1-.32.1-.17 0-.34-.08-.44-.23zm17.75-3.22c.09-.29.4-.45.69-.36.29.09.45.4.35.69a.546.546 0 1 1-1.04-.33zm-19.37-.33c-.07-.3.11-.59.4-.67.3-.07.6.11.67.41a.55.55 0 0 1-.4.66c-.05.01-.09.02-.14.02-.24 0-.47-.17-.53-.42zm20.31-3.72c.31-.02.57.21.58.51a.55.55 0 0 1-.51.59h-.03c-.718 0-.735-1.054-.04-1.1zm-20.06.44a.549.549 0 0 1 .13-1.09c.3.04.52.32.48.62-.03.27-.27.48-.55.48-.02 0-.04 0-.06-.01zm18.7-3.25c-.13-.28-.01-.6.27-.73s.6 0 .73.27a.545.545 0 0 1-.5.78c-.21 0-.41-.12-.5-.32zm-17.99-1.07c.14-.27.48-.37.75-.23.26.15.36.48.22.75-.1.18-.29.29-.48.29-.397 0-.69-.438-.49-.81zm15.96-2.56c.21-.22.56-.23.78-.01.22.21.22.56.01.77-.11.12-.25.17-.39.17a.547.547 0 0 1-.4-.93zm-13.51-.48c.23-.2.58-.17.78.06.19.23.17.58-.06.78a.55.55 0 0 1-.36.13.551.551 0 0 1-.36-.97zm10.32-1.4c.12-.28.44-.41.72-.29a.547.547 0 0 1-.21 1.05.543.543 0 0 1-.51-.76zm-6.94-.54c.29-.1.6.05.7.34a.555.555 0 0 1-.52.73c-.611 0-.77-.867-.18-1.07zm3.82.51a.555.555 0 0 1-.53-.57c.023-.708 1.1-.714 1.1.03a.56.56 0 0 1-.55.54h-.02z" fill="#4c5c75"></path></g></svg>