<svg viewBox="0 0 512 512" xmlns="http://www.w3.org/2000/svg"><g><path d="M347.816 27.13c-81.77 0-148.058 44.639-148.058 99.705 0 37.298 30.417 69.807 75.453 86.906v35.448c0 8.704 10.523 13.063 16.678 6.908l30.974-30.974a219.858 219.858 0 0 0 24.953 1.417c81.77 0 148.058-44.639 148.058-99.705 0-55.065-66.288-99.705-148.058-99.705z" fill="#84d267"></path><path d="M495.874 126.84c0 44.064-42.471 81.471-101.349 94.641 48.311-17.672 81.44-53.977 81.44-95.887 0-37.101-25.963-69.812-65.432-89.087 50.415 15.886 85.341 50.363 85.341 90.333z" fill="#6fc14d"></path><path d="M301.684 512H26.336c-6.085 0-10.812-5.288-10.148-11.332l18.928-170.936c2.951-26.718 25.544-46.943 52.425-46.943h152.937c26.881 0 49.475 20.225 52.435 46.943l18.918 170.936c.675 6.044-4.063 11.332-10.147 11.332z" fill="#5592d7"></path><path d="M156.353 406.996h15.314V512h-15.314z" fill="#1475cc"></path><path d="m210.252 308.024-15.57 85.121h-61.343l-15.569-85.121z" fill="#cac1c8"></path><path d="m194.682 393.145 15.569-85.121 31.377 36.167c3.879 4.472 3.155 11.294-1.577 14.851zM133.339 393.145l-15.569-85.121-31.377 36.167c-3.879 4.472-3.155 11.294 1.577 14.851z" fill="#0057a1"></path><path d="M301.687 512h-6.751l-20.174-182.268c-2.961-26.718-25.544-46.943-52.435-46.943h18.152c26.881 0 49.475 20.225 52.435 46.943l18.919 170.936c.67 6.046-4.063 11.332-10.146 11.332z" fill="#1475cc"></path><path d="m194.682 393.145-24.504 18.575a10.211 10.211 0 0 1-12.335 0l-24.504-18.575 18.925-30.672h23.493z" fill="#35bdc7"></path><path d="m175.759 362.474 9.538-25.375-21.286-35.283-21.287 35.283 9.539 25.375z" fill="#79ced5"></path><path d="m191.423 282.786-27.412 19.031-27.412-19.031v-32.943h54.824z" fill="#ffb2a1"></path><circle cx="251.868" cy="143.637" fill="#f69583" r="30.96"></circle><circle cx="76.154" cy="143.637" fill="#f69583" r="30.96"></circle><path d="M164.011 260.433c-47.625 0-86.232-38.607-86.232-86.232V87.969h172.464v86.232c0 47.624-38.608 86.232-86.232 86.232z" fill="#ffcec0"></path><path d="M62.644 72.247v45.138c0 5.839 4.734 10.573 10.573 10.573H99.89c9.697 0 17.557-7.861 17.557-17.557V96.125l8.654 13.38a40.386 40.386 0 0 0 33.911 18.453h94.793c5.839 0 10.573-4.734 10.573-10.573V72.247c0-37.362-30.288-67.65-67.65-67.65h-67.432c-37.364 0-67.652 30.288-67.652 67.65z" fill="#ff9a1b"></path><path d="M265.382 72.248v45.135c0 5.836-4.737 10.573-10.573 10.573h-21.146c5.836 0 10.573-4.737 10.573-10.573V72.248c0-37.364-30.291-67.655-67.655-67.655h21.146c37.365 0 67.655 30.291 67.655 67.655z" fill="#f47e14"></path><path d="M232.998 135.615c-16.37 0-31.45-8.206-40.34-21.951a7.657 7.657 0 0 1 2.271-10.588 7.658 7.658 0 0 1 10.588 2.271c6.056 9.364 16.329 14.954 27.481 14.954a7.657 7.657 0 1 1 0 15.314zM272.985 20.17a7.656 7.656 0 0 0-8.709-6.436 131.401 131.401 0 0 0-11.049 2.163 84.617 84.617 0 0 0 2.187-5.787 7.658 7.658 0 0 0-14.508-4.902c-3.073 9.095-6.146 12.689-6.177 12.725l.108-.117 3.758 3.559a7.651 7.651 0 0 0-1.433 7.614 7.653 7.653 0 0 0 9.79 4.621c.086-.031 8.737-3.101 19.597-4.731a7.656 7.656 0 0 0 6.436-8.709z" fill="#f47e14"></path><path d="M129.297 172.11a7.657 7.657 0 0 1-7.657-7.657v-5.286a7.657 7.657 0 1 1 15.314 0v5.286a7.657 7.657 0 0 1-7.657 7.657zM198.725 172.11a7.657 7.657 0 0 1-7.657-7.657v-5.286a7.657 7.657 0 1 1 15.314 0v5.286a7.657 7.657 0 0 1-7.657 7.657z" fill="#7a7179"></path><g fill="#e6e2e6"><path d="m136.599 282.786-26.388 26.388c-2.313 2.314-1.884 6.176.881 7.924l27.226 17.215a5.105 5.105 0 0 0 7.099-1.678l18.594-30.819zM191.423 282.786l26.388 26.388c2.313 2.314 1.884 6.176-.881 7.924l-27.226 17.215a5.105 5.105 0 0 1-7.099-1.678l-18.594-30.819zM136.277 446.919a7.657 7.657 0 0 1-7.657-7.657v-.122a7.657 7.657 0 1 1 15.314 0v.122a7.657 7.657 0 0 1-7.657 7.657zM136.277 485.672a7.657 7.657 0 0 1-7.657-7.657v-.122a7.657 7.657 0 1 1 15.314 0v.122a7.657 7.657 0 0 1-7.657 7.657z" fill="#e6e2e6"></path></g><path d="M269.34 512h-15.335l-7.085-97.694a7.65 7.65 0 0 1 7.075-8.188c4.227-.306 7.892 2.859 8.198 7.075l7.126 98.255c.011.184.021.368.021.552zM81.11 414.306 74.024 512H58.68c0-.184.01-.368.02-.551l7.126-98.255c.306-4.216 3.992-7.371 8.198-7.075 4.217.306 7.382 3.971 7.086 8.187z" fill="#1475cc"></path><path d="M164.011 227.872c-15.311 0-27.768-12.456-27.768-27.767v-7.249a7.657 7.657 0 1 1 15.314 0v7.249c0 6.867 5.587 12.453 12.454 12.453s12.453-5.586 12.453-12.453v-7.249a7.657 7.657 0 1 1 15.314 0v7.249c0 15.31-12.456 27.767-27.767 27.767z" fill="#f69583"></path><path d="M353.696 164.118c-3.824 0-7.642-1.43-10.591-4.281l-32.111-31.028c-6.053-5.849-6.219-15.498-.37-21.551s15.498-6.219 21.551-.37l21.808 21.073 100.54-91.939c6.211-5.681 15.852-5.25 21.532.962s5.25 15.852-.962 21.532L363.98 160.125a15.202 15.202 0 0 1-10.284 3.993z" fill="#e6e2e6"></path></g></svg>