<svg viewBox="0 0 512 512" xmlns="http://www.w3.org/2000/svg"><g><path d="m92.015 406.254-28.512-2.435 8.556-96.881a26.084 26.084 0 0 1 15.69-21.673l39.079-16.783a118.206 118.206 0 0 1 50.058-9.544l32.212.929v80.648z" fill="#f1b0a2"></path><path d="M167.548 356.757c-.798 0-8.312-2.383-8.312-2.383l-34.802-17.272a7.61 7.61 0 1 1 7.137-13.446l17.749 9.423c6.6 3.504 13.541 6.48 20.633 8.843a7.612 7.612 0 0 1-2.405 14.835z" fill="#eb9c8d"></path><path d="M192.079 455.689a34.045 34.045 0 0 0 13.946 2.966H407.78c18.835 0 34.104-15.237 34.104-34.032V41.644c0-18.796-15.269-34.032-34.104-34.032H206.026c-18.835 0-34.104 15.237-34.104 34.032V364.26z" fill="#f2f0f3"></path><path d="M441.886 41.64v382.98c0 18.795-15.274 34.039-34.11 34.039H381.45c18.836 0 34.11-15.243 34.11-34.039V41.64c0-18.795-15.274-34.028-34.11-34.028h26.326c18.836-.001 34.11 15.233 34.11 34.028z" fill="#e2dee2"></path><path d="M407.78 466.267H206.026a41.499 41.499 0 0 1-17.057-3.63 7.612 7.612 0 0 1 6.22-13.895 26.337 26.337 0 0 0 10.836 2.302H407.78c14.609 0 26.494-11.852 26.494-26.421V41.644c0-14.568-11.885-26.421-26.494-26.421H206.026c-14.609 0-26.493 11.852-26.493 26.421V364.26a7.611 7.611 0 1 1-15.223 0V41.644C164.31 18.681 183.024 0 206.026 0H407.78c23.003 0 41.717 18.681 41.717 41.644v382.979c0 22.963-18.714 41.644-41.717 41.644z" fill="#918191"></path><path d="M312.446 37.025H273.87a7.612 7.612 0 1 0 0 15.222h38.576a7.61 7.61 0 1 0 0-15.222z" fill="#e2dee2"></path><circle cx="339.933" cy="44.638" fill="#e2dee2" r="7.611"></circle><path d="M218.827 389.178v-66.367c0-12.033 9.754-21.787 21.787-21.787h114.03l18.721 2.071c12.033 0 21.787 9.754 21.787 21.787l-.2 62.65c0 12.033-9.754 21.787-21.787 21.787l-17.375 1.646H240.614c-12.032 0-21.787-9.754-21.787-21.787z" fill="#bdc6ed"></path><path d="M397.945 322.809v66.372c0 12.026-9.753 21.779-21.789 21.779h-25.372c12.036 0 21.789-9.753 21.789-21.779v-66.372c0-12.026-9.753-21.789-21.789-21.789h25.372c12.036-.001 21.789 9.762 21.789 21.789z" fill="#a6b2e8"></path><path d="M178.663 511.998a5.051 5.051 0 0 0 4.037-1.991c12.603-16.693 23.78-37.421 29.344-58.236a58.922 58.922 0 0 1 19.042-29.395l28.927-24.08a78.562 78.562 0 0 1 50.262-18.182h27.278a6.547 6.547 0 0 0 6.547-6.547c0-19.887-16.121-36.008-36.008-36.008h-16.999a104.744 104.744 0 0 0-37.378 6.896c-11.617 4.438-26.71 10.205-38.603 14.751-12.623 4.826-26.527 5.127-39.444.821l-8.121-2.707c-7.512-2.504-14.976-5.337-21.97-9.05l-19.797-5.966-62.277 61.514a258.017 258.017 0 0 0 3.24 69.281l.448 2.442A170.946 170.946 0 0 1 70 506.921a5.062 5.062 0 0 0 5.065 5.077z" fill="#f1b0a2"></path><path d="M306.813 225.889c-16.912 0-32.5.678-44.947-8.941-17.443-13.481-28.705-34.59-28.705-58.291 0-40.612 33.04-73.652 73.652-73.652s73.652 33.04 73.652 73.652c0 23.7-11.262 44.809-28.705 58.291-12.447 9.62-28.036 8.941-44.947 8.941z" fill="#f28cc4"></path><path d="M325.896 190.158c-5.538 17.776-35.7 16.18-38.166 0l1.195-.334a5.276 5.276 0 0 0 3.875-5.091v-20.03h28.027v20.03a5.276 5.276 0 0 0 3.875 5.091z" fill="#e2dee2"></path><g fill="#f2f0f3"><path d="M351.76 211.825v5.123c-12.442 9.633-28.038 15.359-44.947 15.359s-32.505-5.726-44.947-15.359v-5.123c0-2.551.506-5.048 1.475-7.351a19.046 19.046 0 0 1 4.187-6.221 19.016 19.016 0 0 1 8.331-4.811l11.872-3.283c8.578 14.423 29.588 14.423 38.166 0l11.872 3.283a19.026 19.026 0 0 1 8.331 4.811 19.072 19.072 0 0 1 5.66 13.572zM295.169 174.115l3.257 1.849a16.988 16.988 0 0 0 16.774 0l3.257-1.849a28.554 28.554 0 0 0 14.457-24.831v-7.253a26.061 26.061 0 0 0-15.375-23.77 26.155 26.155 0 0 0-21.451 0 26.061 26.061 0 0 0-15.375 23.77v7.253a28.55 28.55 0 0 0 14.456 24.831z" fill="#f2f0f3"></path></g><path d="M370.331 270.76h-123.89c-4.204 0-7.612-3.407-7.612-7.612s3.407-7.611 7.612-7.611h123.891a7.611 7.611 0 1 1-.001 15.223z" fill="#e2dee2"></path></g></svg>