<svg viewBox="0 0 512.001 512.001" xmlns="http://www.w3.org/2000/svg"><g><path d="M281.747 73.927h-51.494V8.239A8.24 8.24 0 0 1 238.492 0h35.016a8.24 8.24 0 0 1 8.239 8.239v65.688z" fill="#b4b6bc"></path><path d="M350.005 114.619h-188.01V50.955c0-6.742 5.465-12.207 12.207-12.207h163.595c6.742 0 12.207 5.465 12.207 12.207v63.664h.001z" fill="#e6e5e5"></path><path d="M337.797 38.748h-45.139v75.871h57.346V50.955c.001-6.742-5.465-12.207-12.207-12.207z" fill="#cccbca"></path><path d="M424.691 254.277 407.18 104.145c-1.264-10.838-10.446-19.011-21.357-19.011H126.177c-10.911 0-20.093 8.173-21.357 19.011L87.308 254.277h337.383z" fill="#61aff6"></path><path d="M424.691 254.277 407.18 104.145c-1.264-10.838-10.446-19.011-21.357-19.011h-38.626l19.729 169.143h57.765z" fill="#399aea"></path><path d="M398.702 483.716H113.298a12.863 12.863 0 0 1-11.848-7.857l-81.4-192.712c-2.782-6.586.342-14.177 6.954-16.898L256 172.027l228.995 94.222c6.612 2.721 9.736 10.312 6.954 16.898l-81.4 192.712a12.86 12.86 0 0 1-11.847 7.857z" fill="#acc3d1"></path><path d="m484.995 266.249-40.723-16.756-98.933 234.222h53.362c5.169 0 9.836-3.095 11.848-7.857l81.4-192.712c2.781-6.585-.342-14.176-6.954-16.897z" fill="#8faab5"></path><path d="M189.686 148.534h-49.825a5.12 5.12 0 0 1-5.119-5.119v-23.677a5.12 5.12 0 0 1 5.119-5.119h49.825a5.12 5.12 0 0 1 5.119 5.119v23.677a5.12 5.12 0 0 1-5.119 5.119zM280.911 148.534h-49.825a5.12 5.12 0 0 1-5.119-5.119v-23.677a5.12 5.12 0 0 1 5.119-5.119h49.825a5.12 5.12 0 0 1 5.119 5.119v23.677a5.118 5.118 0 0 1-5.119 5.119zM372.138 148.534h-49.825a5.12 5.12 0 0 1-5.119-5.119v-23.677a5.12 5.12 0 0 1 5.119-5.119h49.825a5.12 5.12 0 0 1 5.119 5.119v23.677a5.12 5.12 0 0 1-5.119 5.119z" fill="#ffffff"></path><path d="M.066 467.874c0-2.095 1.751-3.765 3.845-3.683 28.201 1.107 29.481 14.368 60.136 14.368 31.992 0 31.992-14.441 63.983-14.441s31.991 14.441 63.982 14.441c31.99 0 31.99-14.441 63.98-14.441 31.991 0 31.991 14.441 63.983 14.441s31.992-14.441 63.985-14.441c31.994 0 31.994 14.441 63.988 14.441 30.658 0 31.938-13.261 60.143-14.368 2.093-.082 3.845 1.588 3.845 3.683v26.068c0 1.974-1.559 3.608-3.532 3.679-28.509 1.021-29.685 14.38-60.456 14.38-31.994 0-31.994-14.441-63.988-14.441-31.992 0-31.992 14.441-63.985 14.441-31.991 0-31.991-14.441-63.983-14.441-31.99 0-31.99 14.441-63.98 14.441-31.991 0-31.991-14.441-63.982-14.441C96.038 497.559 96.038 512 64.046 512c-30.767 0-31.943-13.358-60.448-14.38-1.973-.071-3.532-1.705-3.532-3.679v-26.067z" fill="#33d8dd"></path><path d="M484.995 266.249 256 172.027 27.005 266.249c-6.612 2.721-9.736 10.312-6.954 16.898l8.641 20.458L256 214.446l227.308 89.16 8.641-20.458c2.781-6.587-.342-14.178-6.954-16.899z" fill="#e6e5e5"></path><path d="m444.273 249.494-14.06 33.286 53.095 20.826 8.641-20.458c1.043-2.47 1.256-5.081.766-7.524a12.908 12.908 0 0 0-4.384-7.369 12.866 12.866 0 0 0-3.335-2.005l-40.723-16.756z" fill="#cccbca"></path><path d="M508.09 464.191c-26.007 1.021-29.14 12.366-53.501 14.13v33.442c24.458-1.771 27.519-13.2 53.814-14.142 1.973-.071 3.532-1.705 3.532-3.679v-26.068a3.695 3.695 0 0 0-3.845-3.683z" fill="#11b9c1"></path></g></svg>