<svg viewBox="0 0 512 512" xmlns="http://www.w3.org/2000/svg"><g><path d="M271 481c0 16.569-13.431 31-30 31H0V181c0-16.569 14.431-30 31-30h60v60h8.789l30-30h43.418L301 340.741v29.048l30 30V451h-60zM512 331c0 16.569-14.431 30-31 30h-60v-60h-8.789l-30 30h-43.418L211 171.259v-29.048l-30-30V61h60V31c0-16.569 13.431-31 30-31h241z" fill="#c6f243"></path><path d="M421 211h-90v-90h90z" fill="#dee4f0"></path><path d="M472.211 151H279.789L376 54.789z" fill="#443d66"></path><path d="M181 451H91v-90h90z" fill="#edf1f9"></path><path d="M232.211 391H39.789L136 294.789z" fill="#4d4d80"></path><path d="M512 512H241v-91h60v-8.789l-30-30v-30.952L158.793 211h-16.582l-30 30H61v-60H0V0h271v91h-60v8.789l30 30v30.952L353.207 301h16.582l30-30H451v60h61z" fill="#66ccff"></path><path d="M451 331v-60h-51.211l-30 30h-16.582L241 160.741v-30.952l-30-30V91h60V0H0l512 512V331z" fill="#59abff"></path></g></svg>