<svg viewBox="0 0 512 512" xmlns="http://www.w3.org/2000/svg"><g><path d="M459.322 262.21c-20.181-22.298-50.544-19.54-70.7-14.222l1.943 30.655c21.485-7.035 37.999-5.738 46.5 3.653 9.064 10.015 9.729 29.748 1.618 47.986-3.885 8.735-18.7 35.961-53.162 39.437l-7.412 30.323c20.328 0 39.485-6.006 55.403-17.368 14.083-10.053 25.353-23.965 32.588-40.234 13.178-29.627 10.517-61.12-6.778-80.23z" fill="#d77d41"></path><g fill="#dae1ea"><path d="M119.081 29.845a7.5 7.5 0 0 0-3.083 10.149c7.766 14.54 9.391 30.09 4.579 43.799-1.333 3.45-2.865 6.868-4.348 10.176-4.073 9.086-8.284 18.481-9.093 29.789-1.204 15.635 3.991 29.393 8.652 39.632a7.503 7.503 0 0 0 6.831 4.395 7.5 7.5 0 0 0 6.822-10.61c-3.916-8.602-8.29-20.043-7.345-32.305.623-8.704 4.12-16.506 7.822-24.766 1.578-3.52 3.209-7.16 4.696-11.019.025-.065.049-.131.072-.196 6.274-17.752 4.337-37.626-5.456-55.961a7.5 7.5 0 0 0-10.149-3.083zM327.525 32.928a7.5 7.5 0 0 0-13.232 7.066c7.766 14.54 9.391 30.09 4.579 43.799-1.333 3.45-2.865 6.868-4.348 10.176-4.073 9.086-8.284 18.481-9.093 29.789-1.204 15.635 3.991 29.393 8.652 39.632a7.503 7.503 0 0 0 6.831 4.395 7.5 7.5 0 0 0 6.822-10.61c-3.916-8.602-8.29-20.043-7.345-32.305.623-8.704 4.12-16.506 7.822-24.766 1.578-3.52 3.209-7.16 4.696-11.019.025-.065.049-.131.072-.196 6.274-17.753 4.337-37.626-5.456-55.961zM219.019.797a7.499 7.499 0 0 0-3.348 10.064c6.86 13.701 10.051 28.184 9.233 41.901-1.306 10.73-5.793 20.315-10.543 30.458-2.023 4.321-4.114 8.789-5.947 13.362a7.158 7.158 0 0 0-.115.308c-6.754 19.268-4.229 42.301 7.301 66.607a7.501 7.501 0 0 0 6.782 4.288 7.462 7.462 0 0 0 3.209-.726 7.5 7.5 0 0 0 3.562-9.991c-6.817-14.371-13.509-35.574-6.751-55.065 1.658-4.123 3.547-8.156 5.544-12.423 5.074-10.838 10.321-22.045 11.879-35.266.016-.136.028-.272.037-.409 1.028-16.418-2.7-33.625-10.779-49.76-1.854-3.703-6.361-5.206-10.064-3.348z" fill="#dae1ea"></path></g><path d="M360.368 432.55c-14.82 17.54-34.33 26.44-58 26.44l-80.54 10-80.55-10c-23.66 0-43.17-8.9-57.99-26.44-35.67-42.22-35.89-125.719-31.87-177.899 1.96-25.45 4.93-43.46 5.29-45.6a7.266 7.266 0 0 1 7.16-6.05h315.92c3.54 0 6.56 2.56 7.16 6.05.36 2.14 3.33 20.15 5.29 45.6 4.02 52.18 3.8 135.68-31.87 177.899z" fill="#ffe8c8"></path><path d="M392.238 254.651c4.02 52.18 3.8 135.679-31.87 177.899-14.82 17.54-34.33 26.44-58 26.44h-31.99c23.66 0 43.18-8.9 58-26.44 53.06-62.81 27.68-216.969 26.57-223.499a7.266 7.266 0 0 0-7.16-6.05h32c3.54 0 6.56 2.56 7.16 6.05.36 2.141 3.33 20.15 5.29 45.6z" fill="#fdd9b4"></path><path d="M392.238 254.651H51.418c1.96-25.45 4.93-43.46 5.29-45.6a7.266 7.266 0 0 1 7.16-6.05h117.225l7.344-6 7.656 6h183.695c3.54 0 6.56 2.56 7.16 6.05.36 2.141 3.33 20.15 5.29 45.6z" fill="#fdd9b4"></path><path d="M386.948 209.052c.36 2.14 3.33 20.15 5.29 45.6h-31.99c-1.96-25.45-4.94-43.46-5.3-45.6a7.266 7.266 0 0 0-7.16-6.05h32c3.54 0 6.56 2.56 7.16 6.05z" fill="#fab684"></path><path d="M394.668 497.57c-9.22 9.58-22.59 14.43-39.72 14.43H89.808c-17.13 0-30.5-4.85-39.72-14.43-13.03-13.52-12.52-31.39-12.49-32.15.13-3.59 3.09-6.43 6.68-6.43h356.2c3.59 0 6.55 2.84 6.68 6.43.03.76.54 18.63-12.49 32.15z" fill="#d77d41"></path><path d="M394.668 497.57c-9.22 9.58-22.59 14.43-39.72 14.43h-32c17.13 0 30.5-4.85 39.72-14.43 13.03-13.52 12.52-31.39 12.49-32.15-.13-3.59-3.09-6.43-6.68-6.43h32c3.59 0 6.55 2.84 6.68 6.43.03.76.54 18.63-12.49 32.15z" fill="#b5612a"></path><path d="M196.342 328.782 162.417 293.4a7.5 7.5 0 0 0-10.828 0l-33.925 35.382a7.498 7.498 0 0 0-2.086 5.19v65.472a7.5 7.5 0 0 0 7.5 7.5h67.851a7.5 7.5 0 0 0 7.5-7.5v-65.472a7.503 7.503 0 0 0-2.087-5.19z" fill="#ffa402"></path><path d="M172.798 172.453c-12.845 0-23.295 10.44-23.295 23.272v145.794a7.5 7.5 0 0 0 15 0V195.725c0-4.561 3.721-8.272 8.295-8.272s8.295 3.711 8.295 8.272v7.276h15v-7.276c0-12.832-10.45-23.272-23.295-23.272z" fill="#d77d41"></path></g></svg>