<svg viewBox="0 0 66 66" xmlns="http://www.w3.org/2000/svg"><g><path d="m33.1 35.7-7.3-.7-7.3.7s-1.2.5-2.9 1.3v26.3L25.9 65l10.6-1.7V37.2c-2-.9-3.4-1.5-3.4-1.5z" fill="#d4d8db"></path><path d="M20.4 25.8h10.8v12.9H20.4z" fill="#d5b79f"></path><path d="M25.9 25.8h5.4v12.9h-5.4z" fill="#c6a28a"></path><path d="M27.4 37h-1.5v5.4h1.5l1.6-2.7z" fill="#d95239"></path><path d="m24.3 37-1.6 2.7 1.6 2.7h1.6V37z" fill="#e8664a"></path><path d="m25.9 37 5.6 5.1 2-6.4-2.2-2.9z" fill="#e6e6e8"></path><path d="m25.9 37-5.7 5.1-2-6.4 2.2-2.9z" fill="#ffffff"></path><path d="M25.9 65h-3.3l1.7-22.6h1.6z" fill="#d95239"></path><path d="M29.1 65h-3.2V42.4h1.5z" fill="#e8664a"></path><path d="m18.9 35.7 7 29.3H2.6s-.9-16.2 2.6-20.8c2.4-3.1 7.7-5.9 10.8-7.3 1.5-.7 2.5-1.1 2.5-1.1z" fill="#45bbdd"></path><path d="M49.1 65H25.8l7-29.3h.3s1 .4 2.5 1.1c3.1 1.4 8.4 4.2 10.8 7.3C50 48.8 49.1 65 49.1 65z" fill="#15a9cb"></path><path d="M35.6 36.8v6.7l-2.7 2 1.1 3.3L25.8 65l7-29.3.2-.6z" fill="#45bbdd"></path><path d="m17.7 48.8 1.1-3.3-2.7-2v-6.7l2.6-1.7.2.6L25.8 65zM12.2 65l-2-12.2 4 12.2z" fill="#15a9cb"></path><path d="m41.3 65 2-12.2-4 12.2z" fill="#45bbdd"></path><g fill="#d5b79f"><path d="M26.1 7.7c-6 0-10.8 3.6-10.8 10.7s4.8 12.8 10.8 12.8 10.8-5.7 10.8-12.8S32 7.7 26.1 7.7z" fill="#d5b79f"></path><path d="M36.9 18.3c0 7.1-4.8 12.8-10.8 12.8s-10.8-5.7-10.8-12.8S20.1 7.6 26.1 7.6s10.8 3.7 10.8 10.7z" fill="#d5b79f"></path><ellipse cx="36.9" cy="19.8" fill="#d5b79f" rx="2.7" ry="1.3" transform="rotate(-81.08 36.868 19.847)"></ellipse></g><ellipse cx="15.3" cy="19.8" fill="#c6a28a" rx="2.7" ry="1.3" transform="rotate(-98.92 15.293 19.847)"></ellipse><path d="M26.1 7.7v23.4c-6 0-10.8-5.7-10.8-12.8 0-3.4.7-6.4 2.5-8.2 2-1.9 5.2-2.4 8.3-2.4z" fill="#c6a28a"></path><path d="M35 6.1c-3.6-3.2-7.1-8.2-14.4-2.6 0 0-2.8-1.2-4.9 3.3s-.4 10.9-.1 13.2v.4h1.2c.1-1.1.2-2.5.2-3.4.1-1.9-.5-6.7 3.7-8.3 0 0 .1 0 .3-.1.6.7 3.5 3.3 12.6 3.6 1.6 2.4 1.9 5.8 1.9 8.2h1.1c.1-.8.1-1.8.2-3 .5-4.4 1.8-8-1.8-11.3z" fill="#3b4c56"></path><path d="M20.6 3.5s-2.8-1.2-4.9 3.3-.4 10.9-.1 13.2v.4h1.2c.1-1.1.2-2.5.2-3.4.1-1.9-.5-6.7 3.7-8.3 0 0 .1 0 .3-.1.4.5 1.7 1.7 5 2.6L26.2 1c-1.6.2-3.5.9-5.6 2.5z" fill="#465c6a"></path><path d="M62.5 34.6H39.1c-.5 0-.9.4-.9.9V64c0 .5.4.9.9.9h23.4c.5 0 .9-.4.9-.9V35.6c.1-.6-.3-1-.9-1z" fill="#e6e6e8"></path><path d="M50.9 34.6H39.1c-.5 0-.9.4-.9.9V64c0 .5.4.9.9.9h11.7z" fill="#d4d8db"></path><path d="m52.7 48.2-1.9-.2-1.8.2s-.3.1-.7.3v6.7l2.6.4 2.7-.4v-6.6c-.6-.2-.9-.4-.9-.4z" fill="#d4d8db"></path><path d="M49.5 45.7h2.7V49h-2.7z" fill="#d5b79f"></path><path d="M50.8 45.7h1.4V49h-1.4z" fill="#c6a28a"></path><path d="M51.2 48.5h-.4v1.4h.4l.4-.7z" fill="#d95239"></path><path d="m50.4 48.5-.4.7.4.7h.4v-1.4z" fill="#e8664a"></path><path d="m50.8 48.5 1.5 1.3.5-1.6-.6-.7z" fill="#e6e6e8"></path><path d="m50.8 48.5-1.4 1.3-.5-1.6.6-.7z" fill="#ffffff"></path><path d="M50.8 55.6H50l.4-5.7h.4z" fill="#d95239"></path><path d="M51.7 55.6h-.9v-5.7h.4z" fill="#e8664a"></path><path d="m49.1 48.2 1.8 7.4H45s-.2-4.1.7-5.3c.6-.8 1.9-1.5 2.7-1.9.3-.1.6-.2.7-.2z" fill="#465c6a"></path><path d="M56.7 55.6h-5.9l1.8-7.4h.1s.3.1.6.3c.8.4 2.1 1.1 2.7 1.9.9 1.1.7 5.2.7 5.2z" fill="#3b4c56"></path><path d="M53.3 48.5v1.7l-.7.5.3.8-2.1 4.1 1.8-7.4V48z" fill="#465c6a"></path><path d="m48.8 51.5.3-.8-.7-.5v-1.7l.6-.5.1.2 1.7 7.4zM47.4 55.6l-.5-3.1 1 3.1z" fill="#3b4c56"></path><path d="m54.7 55.6.5-3.1-1 3.1z" fill="#465c6a"></path><g fill="#d5b79f"><path d="M50.9 41.1c-1.5 0-2.7.9-2.7 2.7s1.2 3.2 2.7 3.2 2.7-1.4 2.7-3.2-1.2-2.7-2.7-2.7z" fill="#d5b79f"></path><path d="M53.6 43.8c0 1.8-1.2 3.2-2.7 3.2s-2.7-1.4-2.7-3.2 1.2-2.7 2.7-2.7 2.7.9 2.7 2.7z" fill="#d5b79f"></path><ellipse cx="53.6" cy="44.2" fill="#d5b79f" rx=".7" ry=".3" transform="rotate(-81.08 53.625 44.188)"></ellipse></g><ellipse cx="48.2" cy="44.2" fill="#c6a28a" rx=".7" ry=".3" transform="rotate(-98.92 48.167 44.189)"></ellipse><path d="M50.9 41.1V47c-1.5 0-2.7-1.4-2.7-3.2 0-.9.2-1.6.6-2.1.5-.4 1.3-.6 2.1-.6z" fill="#c6a28a"></path><path d="M53.2 40.7c-.9-.8-1.8-2.1-3.7-.7 0 0-.7-.3-1.2.8s-.1 2.7 0 3.3v.1h.3c0-.3 0-.6.1-.9 0-.5-.1-1.7.9-2.1h.1c.2.2.9.8 3.2.9.4.6.5 1.5.5 2.1h.3c0-.2 0-.4.1-.8-.1-.9.3-1.9-.6-2.7z" fill="#3b4c56"></path><path d="M49.5 40.1s-.7-.3-1.2.8-.1 2.7 0 3.3v.1h.3c0-.3 0-.6.1-.9 0-.5-.1-1.7.9-2.1h.1c.1.1.4.4 1.3.7v-2.6c-.5.1-.9.2-1.5.7z" fill="#465c6a"></path><path d="M42.2 57.6h17.9V62H42.2z" fill="#1e87b7"></path><path d="M42.2 57.6H51V62h-8.8z" fill="#1576ac"></path><path d="M53 30.9h-4.4c-.4 0-.7.3-.7.7v5.6c0 .4.3.7.7.7H53c.4 0 .7-.3.7-.7v-5.6c0-.4-.3-.7-.7-.7z" fill="#e8664a"></path><path d="M53 30.9h-2.2v6.9H53c.4 0 .7-.3.7-.7v-5.6c0-.3-.3-.6-.7-.6z" fill="#d95239"></path><circle cx="50.8" cy="33.2" fill="#465c6a" r="1.1"></circle><path d="M50.8 32.1c-.6 0-1.1.5-1.1 1.1s.5 1.1 1.1 1.1z" fill="#3b4c56"></path><path d="M52 33.2c0-.6-.5-1.1-1.1-1.1v2.2c.6 0 1.1-.5 1.1-1.1z" fill="#465c6a"></path></g></svg>