<svg viewBox="0 0 512 512" xmlns="http://www.w3.org/2000/svg"><g><path d="m257.237 83.244 10.381-24.364c7.645-17.938 28.381-26.289 46.327-18.653 17.938 7.645 26.289 28.381 18.653 46.327l-10.381 24.364c-7.645 17.938-28.381 26.289-46.327 18.653-17.947-7.653-26.289-28.389-18.653-46.327zM141.225 476.69l44.932.529 27.189-97.633h-51.641z" fill="#f2bb80"></path><path d="M114.742 500.524c0 6.338 5.138 11.476 11.476 11.476h50.317l9.71-34.781-45.021-.53-21.363 14.212a11.572 11.572 0 0 0-5.119 9.623zM317.776 476.69h-45.109l9.799 35.31h50.317c6.338 0 11.476-5.138 11.476-11.476a11.57 11.57 0 0 0-5.12-9.622l-21.363-14.212z" fill="#de4c3c"></path><path d="M296.237 379.586h-50.582l27.012 97.104h45.109zM178.83 73.799l77.153-42.99L238.769 0l-81.39 44.138a41.833 41.833 0 0 0-20.657 26.483 42.44 42.44 0 0 0 5.297 32.662l21.716 40.96 38.047-28.778-22.952-41.666z" fill="#f2bb80"></path><path d="m282.466 317.793-105.931-8.827-14.83 70.62h51.641l7.327-26.483h17.655l7.327 26.483h50.582z" fill="#666666"></path><path d="m220.673 150.069-18.891-34.428-38.047 28.778 21.628 40.96v61.793l-8.828 61.794 105.931 8.827 26.483-150.069z" fill="#de4c3c"></path><path d="M201.429 310.996a414.632 414.632 0 0 1-33.721 39.018l-6.003 29.572h51.641l7.327-26.483h17.655l7.327 26.483h50.582l-13.771-61.793-81.037-6.797z" fill="#595959"></path><path d="m282.466 317.793 26.483-150.069-24.541-4.943a676.978 676.978 0 0 1-82.979 148.215l81.037 6.797z" fill="#cf4737"></path><path d="m308.949 167.724-7.415 42.019 25.864 18.715 23.482-31.338z" fill="#cf4737"></path><path d="m381.6 218.571-30.72-21.451-23.481 31.338 25.688 18.714-63.117 28.072-7.503 42.549 91.366-35.31c18.838-7.247 28.231-28.398 20.974-47.236a36.59 36.59 0 0 0-13.206-16.852v.176z" fill="#f2bb80"></path></g></svg>