<svg viewBox="0 0 512 512" xmlns="http://www.w3.org/2000/svg"><g><path d="M271.017 322.627a47.028 47.028 0 0 0-6.708 3.972c-12.374 8.782-19.15 22.486-19.62 36.565l29.382-20.853a6.451 6.451 0 0 1 3.755-1.2 6.521 6.521 0 0 1 5.308 2.739 6.455 6.455 0 0 1 1.107 4.85 6.455 6.455 0 0 1-2.646 4.213l-29.382 20.853c13.445 4.203 28.618 2.33 40.992-6.452a47.114 47.114 0 0 0 5.963-5.021c19.475-19.39-3.42-51.651-28.151-39.666z" fill="#97d729"></path><path d="M271.017 322.627a47.028 47.028 0 0 0-6.708 3.972c-12.374 8.782-19.15 22.486-19.62 36.565l26.693-18.944a47.01 47.01 0 0 1 10.636-7.093c8.577-4.157 16.932-2.988 23.376 1.117-4.048-13.223-18.85-23.142-34.377-15.617z" fill="#8bc727"></path><path d="M167.961 352.912a6.455 6.455 0 0 1-2.646-4.213 6.46 6.46 0 0 1 1.107-4.85 6.516 6.516 0 0 1 5.308-2.738c1.351 0 2.649.415 3.755 1.2l29.382 20.853c-.47-14.078-7.246-27.783-19.62-36.565a47.121 47.121 0 0 0-6.708-3.972c-24.731-11.985-47.627 20.276-28.151 39.665a46.974 46.974 0 0 0 5.963 5.021c12.374 8.782 27.547 10.655 40.992 6.452z" fill="#97d729"></path><path d="M167.961 352.912a6.446 6.446 0 0 1-2.23-2.792c-.113-.11-.232-.217-.344-.328-8.769-8.73-8.946-20.067-4.236-28.803-16.072 4.815-25.427 26.705-10.764 41.303a46.974 46.974 0 0 0 5.963 5.021c12.374 8.782 27.547 10.655 40.992 6.452z" fill="#8bc727"></path><path d="M218.277 317.99v-36.06c0-3.584 2.916-6.5 6.5-6.5s6.5 2.916 6.5 6.5v36.06c11.217-8.531 18.463-22.013 18.463-37.193 0-2.647-.22-5.242-.644-7.769-4.54-27.104-44.1-27.104-48.639 0a47.019 47.019 0 0 0-.643 7.769c0 15.18 7.246 28.662 18.463 37.193z" fill="#97d729"></path><path d="M218.277 317.99v-36.06c0-1.657.629-3.167 1.653-4.316.104-1.55.275-3.081.527-4.586 1.566-9.347 7.297-15.468 14.32-18.368-13.341-5.51-31.346.611-34.32 18.368a47.019 47.019 0 0 0-.643 7.769c0 15.18 7.246 28.662 18.463 37.193z" fill="#8bc727"></path><path d="m167.382 353.728 49.896 35.412v89.622h15V389.14l49.896-35.412a7.5 7.5 0 0 0-8.682-12.232l-41.214 29.25V281.93c0-4.142-3.357-7.5-7.5-7.5s-7.5 3.358-7.5 7.5v88.816l-41.214-29.25a7.5 7.5 0 1 0-8.682 12.232z" fill="#c57a44"></path><path d="m255.081 163.434-25-25a7.5 7.5 0 0 0-10.607 0l-25 25a7.5 7.5 0 0 0 10.607 10.606l12.196-12.197v57.893c0 4.142 3.357 7.5 7.5 7.5s7.5-3.358 7.5-7.5v-57.893l12.196 12.197c1.465 1.464 3.385 2.197 5.304 2.197s3.839-.732 5.304-2.197a7.5 7.5 0 0 0 0-10.606z" fill="#718dd9"></path><path d="m370.015 190.555-36.794-36.794a6.508 6.508 0 0 1 0-9.192c1.229-1.228 2.861-1.904 4.598-1.904s3.368.676 4.596 1.904l36.794 36.794c1.439-16.094-3.974-32.684-16.293-45.003-13.87-13.87-33.155-19.012-51.049-15.445a2.942 2.942 0 0 0-2.299 2.299c-3.568 17.893 1.575 37.179 15.445 51.049 12.318 12.318 28.908 17.731 45.002 16.292z" fill="#09a76d"></path><path d="m370.015 190.555-36.794-36.794c-2.284-2.284-2.502-5.857-.668-8.396a56.726 56.726 0 0 1-3.898-25.238 56.933 56.933 0 0 0-16.785.788 2.943 2.943 0 0 0-2.302 2.301c-3.567 17.893 1.576 37.177 15.445 51.046 12.318 12.319 28.908 17.732 45.002 16.293z" fill="#02905d"></path><path d="M447.141 144.568c1.229-1.228 2.86-1.903 4.597-1.903s3.369.676 4.597 1.903a6.508 6.508 0 0 1 0 9.192l-36.794 36.794c16.094 1.439 32.684-3.974 45.003-16.293 13.87-13.87 19.012-33.155 15.445-51.049a2.942 2.942 0 0 0-2.299-2.299c-17.893-3.568-37.179 1.575-51.048 15.445-12.319 12.319-17.732 28.909-16.293 45.003z" fill="#09a76d"></path><path d="M433.706 158.003a56.353 56.353 0 0 1 8.934-11.644c10.597-10.597 24.357-16.083 38.241-16.498a58.448 58.448 0 0 0-.879-6.555c-.231-1.189-1.132-2.156-2.32-2.392-17.891-3.565-37.174 1.578-51.042 15.446-12.319 12.319-17.732 28.909-16.293 45.003z" fill="#02905d"></path><path d="M318.959 256.817c-1.228-1.228-1.903-2.86-1.903-4.596s.676-3.369 1.903-4.596c1.229-1.228 2.86-1.903 4.597-1.903s3.369.676 4.597 1.903l46.957 46.956c2.481-20.772-4.232-42.431-20.172-58.371-17.468-17.467-41.804-23.865-64.313-19.213a2.962 2.962 0 0 0-2.293 2.293c-4.651 22.509 1.746 46.846 19.213 64.313 15.94 15.94 37.6 22.653 58.372 20.172z" fill="#09a76d"></path><path d="M347.959 285.817a70.382 70.382 0 0 1-20.414-14.214c-15.343-15.343-22.137-35.985-20.412-56.034a71.111 71.111 0 0 0-16.506 1.428 2.967 2.967 0 0 0-2.296 2.295c-4.651 22.508 1.747 46.844 19.214 64.311 15.94 15.94 37.6 22.653 58.372 20.172z" fill="#02905d"></path><path d="M501.223 219.29a2.962 2.962 0 0 0-2.293-2.293c-22.509-4.651-46.846 1.746-64.313 19.213-15.94 15.94-22.653 37.6-20.172 58.372l46.957-46.956c1.229-1.228 2.861-1.904 4.598-1.904s3.368.676 4.596 1.904 1.903 2.86 1.903 4.596-.676 3.369-1.903 4.596l-46.958 46.957c20.772 2.481 42.432-4.232 58.372-20.172 17.467-17.468 23.864-41.804 19.213-64.313z" fill="#09a76d"></path><path d="M447.867 249.46c14.99-14.99 35.039-21.82 54.651-20.517a71.045 71.045 0 0 0-1.295-9.653 2.962 2.962 0 0 0-2.292-2.293c-22.509-4.651-46.846 1.746-64.313 19.213-15.94 15.94-22.653 37.6-20.172 58.372l15.849-15.848a70.2 70.2 0 0 1 17.572-29.274z" fill="#02905d"></path><path d="M386.505 325.776v152.986h15.006l.148-151.595 69.644-69.643a7.5 7.5 0 0 0-10.607-10.606l-59.036 59.035V209.85l55.382-55.382a7.5 7.5 0 0 0-10.607-10.606l-51.656 51.657-51.656-51.657a7.5 7.5 0 0 0-10.607 10.606l54.146 54.146v96.104l-57.8-57.799a7.5 7.5 0 0 0-10.607 10.606z" fill="#c57a44"></path><path d="m425.081 46.434-25-25a7.5 7.5 0 0 0-10.607 0l-25 25a7.5 7.5 0 0 0 10.607 10.606l12.196-12.197v57.893c0 4.142 3.357 7.5 7.5 7.5s7.5-3.358 7.5-7.5V44.844l12.196 12.197c1.465 1.464 3.385 2.197 5.304 2.197s3.839-.732 5.304-2.197a7.5 7.5 0 0 0 0-10.607z" fill="#718dd9"></path><path d="M29.208 413.036c-1.228-1.228-1.903-2.86-1.903-4.596s.676-3.369 1.903-4.596 2.86-1.903 4.597-1.903 3.369.676 4.597 1.903l21.676 21.676c1.286-11.805-2.581-24.063-11.631-33.113a40.837 40.837 0 0 0-5.168-4.378C23.835 374.165-.47 398.47 13.393 417.913a40.837 40.837 0 0 0 4.378 5.168c9.051 9.05 21.309 12.917 33.114 11.631z" fill="#a2e62e"></path><path d="M29.208 413.036a6.446 6.446 0 0 1-1.813-3.549c-5.254-9.255-2.448-19.239 3.979-25.521-15.732-.253-29.071 18.392-17.981 33.946a40.837 40.837 0 0 0 4.378 5.168c9.051 9.05 21.309 12.917 33.114 11.631z" fill="#97d729"></path><path d="M104.277 388.028a40.837 40.837 0 0 0-5.168 4.378c-9.05 9.05-12.917 21.309-11.631 33.113l21.676-21.676c1.229-1.228 2.86-1.904 4.597-1.904s3.369.676 4.597 1.904 1.903 2.86 1.903 4.596-.676 3.369-1.903 4.596L96.67 434.712c11.805 1.286 24.063-2.581 33.113-11.631a40.837 40.837 0 0 0 4.378-5.168c13.864-19.443-10.442-43.748-29.884-29.885z" fill="#a2e62e"></path><path d="M104.277 388.028a40.837 40.837 0 0 0-5.168 4.378c-9.05 9.05-12.917 21.309-11.631 33.113l15.877-15.876a40.62 40.62 0 0 1 5.755-7.237 40.837 40.837 0 0 1 5.168-4.378c7.289-5.198 15.261-5.03 21.65-1.766-5.444-10.651-19.498-16.9-31.651-8.234z" fill="#97d729"></path><path d="M66.277 451.518v27.244h15v-27.243l37.776-37.776a7.5 7.5 0 0 0-10.607-10.606l-34.669 34.669-34.669-34.669a7.5 7.5 0 0 0-10.607 10.606z" fill="#c57a44"></path><path d="m104.081 306.434-25-25a7.5 7.5 0 0 0-10.607 0l-25 25a7.5 7.5 0 0 0 10.607 10.606l12.196-12.197v57.893c0 4.142 3.357 7.5 7.5 7.5s7.5-3.358 7.5-7.5v-57.893l12.196 12.197c1.465 1.464 3.385 2.197 5.304 2.197s3.839-.732 5.304-2.197a7.5 7.5 0 0 0 0-10.606z" fill="#89a8ec"></path><path d="M504.5 492.762H7.5c-4.143 0-7.5-3.358-7.5-7.5s3.357-7.5 7.5-7.5h497c4.143 0 7.5 3.358 7.5 7.5s-3.357 7.5-7.5 7.5z" fill="#8bc727"></path></g></svg>