<svg viewBox="0 0 512 512" xmlns="http://www.w3.org/2000/svg"><g><path d="M213.414 104.559 128.1 120.96v112.69l40.32 47.582V337l13.685 20.272L168.42 401v111h83.741l23.063-291.856-23.063-164.316z" fill="#ffccbd"></path><path d="M190.131 90.979c0-17.129-13.886-31.016-31.016-31.016S128.1 73.849 128.1 90.979v29.982c0 17.129 13.886 31.016 31.016 31.016 17.129 0 31.015-13.886 31.015-31.016l10.338-13.44z" fill="#ffddce"></path><path d="M221.146 24.812c-17.129 0-31.015 13.886-31.015 31.016v65.132c0 17.129 13.886 31.016 31.015 31.016s31.015-13.886 31.015-31.016l4.18-35.352-4.18-29.781c0-17.129-13.886-31.015-31.015-31.015z" fill="#ffddce"></path><path d="M345.208 0c-17.129 0-31.015 13.886-31.015 31.015C314.192 13.886 300.306 0 283.177 0s-31.016 13.886-31.016 31.015V512l124.062-383.803V31.015C376.223 13.886 362.337 0 345.208 0z" fill="#ffbda9"></path><path d="M351.691 98.216h-69.069c-17.129 0-31.015 13.886-31.015 31.016 0 17.129 13.886 31.016 31.015 31.016H329.7c-42.823 0-77.537 34.714-77.539 77.536V512h83.742V401l-15.461-22.001L335.903 335v-49.658l60.997-55.828v-86.089c0-24.968-20.241-45.209-45.209-45.209z" fill="#ffa68c"></path><g fill="#ffdd46"><path d="m18.827 341.31 52.063-34.025 16.41 25.11-52.063 34.024zM18.72 48.585l16.41-25.11 52.062 34.024-16.41 25.11zM0 178h59.033v30H0z" fill="#ffdd46"></path></g><path d="m424.858 332.857 16.41-25.11 52.063 34.024-16.41 25.11zM424.653 57.263l52.063-34.024 16.41 25.11-52.063 34.024zM452.967 178H512v30h-59.033z" fill="#fcbe00"></path><path d="M168.42 335v66h83.741l13.301-16.237L252.161 335z" fill="#697c84"></path><path d="M252.161 335h83.742v66h-83.742z" fill="#475a61"></path></g></svg>