<svg viewBox="0 0 512 512" xmlns="http://www.w3.org/2000/svg"><g><path d="M512 512H0L99.664 96.864h312.672z" fill="#e9f2ff"></path><path d="M412.336 96.864h-51.509L460.491 512H512z" fill="#deebff"></path><g fill="#91a8dd"><path d="M339.485 167.911H154.418a7.726 7.726 0 1 0 0 15.452h185.068a7.726 7.726 0 1 0-.001-15.452zM314.976 231.94h-170.86a7.726 7.726 0 1 0 0 15.452h170.86a7.726 7.726 0 1 0 0-15.452zM293.434 295.968h-161.68a7.726 7.726 0 1 0 0 15.452h161.68a7.726 7.726 0 1 0 0-15.452z" fill="#91a8dd"></path></g><path d="M113.901 447.815a1483.97 1483.97 0 0 1 20.747-34.113c5.223-8.339 10.516-16.646 16.115-24.739 1.952-2.821 4.318-6.177 5.758-7.926 1.082-1.316 2.147-2.67 3.579-3.604 1.35-.881 2.057-1.098 2.82-.627-.796-.492.332.932.563 1.542 1.054 2.787.415 6.231.176 9.098-.515 6.182-1.226 12.343-1.795 18.519-.997 10.823-3.853 27.441 8.126 33.272 6.643 3.234 13.624-.378 19.521-3.601 6.078-3.322 11.803-6.624 18.203-9.248 1.775-.728 2.56-.44-.068-1.054-1.117-.261-.218-1.353-.243-.115-.027 1.363 1.661 4.01 2.128 5.517 1.409 4.548 2.61 9.347 5.003 13.507 10.051 17.474 38.393 11.327 53.953 6.208 9.403-3.094 5.376-18.021-4.108-14.901-5.971 1.965-12.281 3.444-18.527 4.118-4.548.491-9.555.861-13.992-.5-3.425-1.051-4.223-2.595-5.442-6.139-2.856-8.302-4.913-21.993-16.132-22.521-6.564-.309-13.488 3.272-19.088 6.351-3.194 1.756-6.287 3.688-9.485 5.435-1.399.765-2.814 1.568-4.286 2.185-3.017 1.265-.548.463-.656.917.416-1.752-.267-4.573-.222-6.479.072-3.042.219-6.081.446-9.115.448-5.989 1.175-11.955 1.73-17.934 1.047-11.279 1.209-26.624-12.506-30.194-10.629-2.766-18.462 5.397-24.188 13.05-5.537 7.4-10.56 15.196-15.536 22.978-8.911 13.935-17.535 28.064-25.934 42.314-5.064 8.586 8.288 16.37 13.34 7.799zM424.344 56.763 471.5 73.415 362.906 380.934l-47.156-16.652z" fill="#f55745"></path><path d="m481.004 50.734-49.861-17.6c-8.109-2.862-17.003 1.391-19.865 9.5-2.862 8.109 1.391 17.003 9.5 19.865l35.178 12.417-42.178 119.489c-2.862 8.109 1.391 17.003 9.5 19.865 8.109 2.862 17.003-1.391 19.865-9.5l47.361-134.171c2.863-8.109-1.391-17.003-9.5-19.865z" fill="#ffba47"></path><path d="M332.881 390.937a7.726 7.726 0 0 0-9.858 4.714l-15.516 43.955a7.726 7.726 0 0 0 7.286 10.301 7.73 7.73 0 0 0 7.286-5.156l15.516-43.955a7.729 7.729 0 0 0-4.714-9.859z" fill="#91a8dd"></path><path d="m335.339 424.149-25.222-8.903 5.679-51.025 47.154 16.645z" fill="#ffba47"></path><path d="M472.158 47.611 439.99 36.256l8.78-24.873C451.905 2.5 461.648-2.159 470.531.977c8.883 3.135 13.542 12.878 10.406 21.761z" fill="#91a8dd"></path></g></svg>