<svg viewBox="0 0 512 512" xmlns="http://www.w3.org/2000/svg"><g><path d="M334.018 454.513h-39.153v-43.362c0-2.418-3.378-4.378-7.545-4.378h-62.64c-4.167 0-7.545 1.961-7.545 4.378v43.362h-31.021c-.109 0-.217.002-.325.007a8.762 8.762 0 0 0-.325-.007h-7.482c-21.355 0-38.729 17.374-38.729 38.729v11.214a7.545 7.545 0 0 0 7.545 7.545h218.404a7.545 7.545 0 0 0 7.545-7.545v-11.214c0-21.356-17.373-38.729-38.729-38.729z" fill="#ffa600"></path><path d="M287.321 406.773h-23.137c4.167 0 7.545 1.961 7.545 4.379v45.918h23.137v-45.918c-.001-2.419-3.379-4.379-7.545-4.379z" fill="#ff902c"></path><path d="M334.018 454.513H186.114c-.109 0-.217.002-.325.007a8.762 8.762 0 0 0-.325-.007h-7.482c-21.355 0-38.729 17.374-38.729 38.729v11.214a7.545 7.545 0 0 0 7.545 7.545h218.404a7.545 7.545 0 0 0 7.545-7.545v-11.214c0-21.356-17.373-38.729-38.729-38.729z" fill="#ffa600"></path><path d="M334.018 454.513h-23.137c21.355 0 38.729 17.374 38.729 38.729v11.214a7.545 7.545 0 0 1-7.545 7.545h23.137a7.545 7.545 0 0 0 7.545-7.545v-11.214c0-21.356-17.373-38.729-38.729-38.729z" fill="#ff902c"></path><path d="M256 0c-25.594 0-52.427 5.382-77.599 15.562-28.242 11.422-52.746 28.028-72.835 49.359-37.373 37.854-56.319 85.571-56.319 141.833 0 19.09 2.612 37.58 7.478 55.141.054.322.122.644.22.964.034.113.09.212.129.323C81.692 349.848 161.551 413.508 256 413.508c114.004 0 206.753-92.749 206.753-206.753S370.004 0 256 0zm175.776 130.389-30.181 14.481C377.46 88.301 321.286 48.549 256 48.549c-19.367 0-37.93 3.505-55.095 9.903l-15.881-29.28c23.109-9.21 47.627-14.083 70.976-14.083 78.555 0 146.211 47.509 175.776 115.3zM306.313 198.96a7.544 7.544 0 0 0 10.065 3.538l76.722-36.815a142.666 142.666 0 0 1 6.016 41.07c0 60.917-38.26 113.056-92.009 133.675l-30.196-82.376a7.544 7.544 0 1 0-14.167 5.193l29.998 81.835A142.843 142.843 0 0 1 256 349.869c-63.323 0-117.164-41.343-135.971-98.45l89.926-27.556a7.545 7.545 0 0 0-4.42-14.428l-89.457 27.413a143.112 143.112 0 0 1-3.194-30.096c0-56.785 33.244-105.95 81.292-129.06l46.232 85.233a7.544 7.544 0 0 0 10.229 3.034 7.545 7.545 0 0 0 3.035-10.229L208.18 71.863c14.961-5.319 31.056-8.227 47.819-8.227 59.303 0 110.294 36.258 131.977 87.768l-78.126 37.489a7.546 7.546 0 0 0-3.537 10.067zM116.364 75.461a5.39 5.39 0 0 0 .128-.133c15.481-16.453 33.838-29.871 54.687-40.031l15.797 29.123c-52.745 25.683-89.181 79.831-89.181 142.334 0 11.858 1.321 23.412 3.806 34.532l-32.073 9.828a191.486 191.486 0 0 1-5.193-44.36c.001-52.181 17.505-96.354 52.029-131.293zm-42.76 190.185 31.996-9.805c20.703 63.277 80.294 109.118 150.4 109.118a157.86 157.86 0 0 0 41.955-5.657l11.549 31.507A191.125 191.125 0 0 1 256 398.418c-85.146 0-157.488-55.814-182.396-132.772zm250.213 120.367-11.516-31.417c59.517-22.741 101.904-80.431 101.904-147.843 0-16.607-2.579-32.622-7.345-47.673l30.415-14.594c6.728 19.532 10.39 40.479 10.39 62.267-.001 81.817-51.538 151.812-123.848 179.26z" fill="#d2d2d2"></path><path d="M454.758 201.638a7.545 7.545 0 0 0-5.545-2.429H256.738a7.547 7.547 0 0 0-7.52 8.151c2.024 25.095 13.752 48.369 33.023 65.536 19.292 17.185 44.412 26.65 70.733 26.65 26.322 0 51.443-9.465 70.735-26.65 19.271-17.166 30.998-40.442 33.023-65.536a7.532 7.532 0 0 0-1.974-5.722z" fill="#b6e4ea"></path><path d="M453.888 200.844c-4.87 18.64-15.246 35.614-30.177 48.915-19.292 17.185-44.412 26.65-70.735 26.65-26.322 0-51.443-9.465-70.733-26.65-14.931-13.301-25.307-30.276-30.178-48.915a7.326 7.326 0 0 0-.87.794 7.543 7.543 0 0 0-1.975 5.722c2.024 25.095 13.752 48.369 33.023 65.536 19.292 17.185 44.412 26.65 70.733 26.65 26.322 0 51.443-9.465 70.735-26.65 19.271-17.166 30.998-40.442 33.023-65.536a7.541 7.541 0 0 0-1.975-5.722 7.502 7.502 0 0 0-.871-.794z" fill="#6fc8f1"></path><path d="M263.704 402.929a7.545 7.545 0 0 0 2.342-5.582l-2.997-192.451a7.549 7.549 0 0 0-8.267-7.393c-25.06 2.414-48.149 14.504-65.014 34.04-16.883 19.556-25.955 44.822-25.546 71.14.409 26.319 10.265 51.29 27.748 70.311 17.465 19.001 40.92 30.365 66.043 31.998a7.536 7.536 0 0 0 5.691-2.063z" fill="#b6e4ea"></path><path d="M212.09 372.995c-17.484-19.022-27.338-43.992-27.748-70.311-.409-26.318 8.662-51.583 25.546-71.14 13.698-15.869 31.503-26.822 51.135-31.67a7.652 7.652 0 0 0-.487-.483 7.544 7.544 0 0 0-5.752-1.886c-25.06 2.414-48.149 14.504-65.014 34.039-16.883 19.556-25.955 44.822-25.546 71.14.409 26.319 10.265 51.29 27.748 70.311 17.465 19.001 40.92 30.365 66.043 31.998a7.537 7.537 0 0 0 5.678-2.054c-19.581-4.301-37.536-14.639-51.603-29.944z" fill="#6fc8f1"></path><path d="M59.462 215.032a7.543 7.543 0 0 0 5.618 2.255l192.382-5.993a7.545 7.545 0 0 0 7.262-8.381c-2.805-25.02-15.252-47.918-35.048-64.477-19.817-16.577-45.22-25.254-71.529-24.434s-51.123 11.061-69.87 28.839C69.549 160.6 58.552 184.228 57.31 209.374a7.545 7.545 0 0 0 2.152 5.658z" fill="#b6e4ea"></path><path d="M59.738 215.285c4.35-18.582 14.164-35.675 28.538-49.306 18.748-17.778 43.561-28.019 69.87-28.839s51.712 7.857 71.529 24.434c15.459 12.93 26.41 29.737 31.814 48.392a7.505 7.505 0 0 0 1.438-1.272 7.545 7.545 0 0 0 1.796-5.781c-2.805-25.02-15.252-47.918-35.048-64.476-19.817-16.577-45.22-25.254-71.529-24.435-26.309.82-51.123 11.062-69.87 28.839-18.728 17.758-29.724 41.387-30.966 66.533a7.538 7.538 0 0 0 2.153 5.657c.086.091.183.169.275.254z" fill="#6fc8f1"></path><path d="M244.156 7.89a7.55 7.55 0 0 0-2.168 5.652l8.988 192.265a7.545 7.545 0 0 0 8.493 7.131c24.973-3.194 47.674-15.995 63.922-36.048 16.266-20.073 24.547-45.608 23.318-71.901-1.229-26.293-11.856-50.945-29.924-69.414-18.048-18.448-41.845-29.077-67.006-29.927a7.554 7.554 0 0 0-5.623 2.242z" fill="#b6e4ea"></path><path d="M346.71 104.99c-1.229-26.293-11.856-50.945-29.924-69.413C298.739 17.129 274.942 6.5 249.78 5.65a7.543 7.543 0 0 0-5.6 2.219c18.541 4.093 35.684 13.615 49.47 27.708 18.068 18.468 28.694 43.12 29.924 69.413 1.229 26.293-7.052 51.829-23.318 71.901-12.735 15.717-29.446 26.953-48.097 32.627a7.537 7.537 0 0 0 7.311 3.421c24.973-3.194 47.674-15.995 63.922-36.048 16.267-20.073 24.548-45.608 23.318-71.901z" fill="#6fc8f1"></path><path d="M259.462 151.785c-31.125 0-56.446 25.321-56.446 56.446s25.321 56.446 56.446 56.446 56.446-25.321 56.446-56.446-25.321-56.446-56.446-56.446z" fill="#f7f5f5"></path><circle cx="259.461" cy="208.229" fill="#6fc8f1" r="40.799"></circle><path d="M262.314 187.31c-13.282-1.327-24.401 9.793-23.073 23.074.983 9.833 8.936 17.785 18.768 18.768 13.282 1.328 24.402-9.793 23.074-23.075-.983-9.834-8.936-17.786-18.769-18.767z" fill="#606673"></path></g></svg>