<svg viewBox="0 0 512 512" xmlns="http://www.w3.org/2000/svg"><g><path d="M61.4 438.622a7.804 7.804 0 0 1-4.688-1.562l-11.698-8.75C22.916 415.32.277 401.881.277 378.643c0-21.596 23.557-40.643 72.017-58.229 33.584-12.188 66.574-18.971 67.963-19.254a7.837 7.837 0 0 1 3.129 15.359c-.329.067-33.383 6.87-65.889 18.682-39.114 14.213-61.546 30.047-61.546 43.443 0 14.401 18.121 25.054 37.306 36.332.25.147.564.35.796.523l12.046 9.01a7.839 7.839 0 0 1-4.699 14.113z" fill="#efefef"></path><path d="M60.237 405.768 34.11 446.264l48.532 1.24z" fill="#4bc999"></path><path d="M82.253 488.084a7.837 7.837 0 0 1-6.967-11.417c5.559-10.834 3.245-17.467 1.022-21.513-1.621-2.949-4.179-5.595-7.397-7.653l-19.086-12.203a7.835 7.835 0 0 1-2.38-10.824 7.835 7.835 0 0 1 10.823-2.381l19.086 12.203c5.422 3.467 9.811 8.07 12.691 13.309 6.099 11.097 5.826 23.283-.812 36.22a7.842 7.842 0 0 1-6.98 4.259z" fill="#4bc999"></path><path d="M348.353 422.815c-2.969 0-5.977-.239-9.025-.719-15.212-2.39-30.622-10.684-45.802-24.653-12.654-11.646-24.447-26.642-34.1-43.369a7.838 7.838 0 0 1 13.575-7.835c23.195 40.192 50.727 57.54 68.759 60.373 12.972 2.038 24.695-1.863 35.818-11.931 14.097-12.761 16.923-30.744 9.441-60.122l-2.693-9.569a7.838 7.838 0 0 1 15.088-4.246l2.719 9.661c.018.062.033.123.05.185 6.076 23.813 9.967 53.938-14.086 75.711-12.131 10.981-25.465 16.513-39.744 16.514zM221.827 39.518h46.076c9.846 0 17.837 7.992 17.837 17.837a17.74 17.74 0 0 1-5.232 12.605 17.74 17.74 0 0 1-12.605 5.232H228.13" fill="#efefef"></path><path d="M228.129 75.193h39.773c9.846 0 17.837 7.992 17.837 17.837a17.74 17.74 0 0 1-5.232 12.605 17.74 17.74 0 0 1-12.605 5.232h-44.998" fill="#efefef"></path><path d="M287.05 204.497h-32.884v18.621c0 3.083-.209 6.102-.617 9.07a65.31 65.31 0 0 1-5.413 18.443c-10.397 22.508-33.166 38.119-59.593 38.119h-2.184c-37.45 0-67.816-30.366-67.816-67.816V68.091c0-37.461 30.366-67.816 67.816-67.816 18.725 0 35.674 7.586 47.952 19.864 12.268 12.268 19.854 29.216 19.854 47.952v34.41l32.885 101.996z" fill="#ffdc8d"></path><path d="M139.95 220.931V68.087c0-33.81 24.745-61.832 57.111-66.965a68.276 68.276 0 0 0-10.702-.848c-37.453 0-67.813 30.361-67.813 67.813v152.845c0 37.453 30.361 67.813 67.813 67.813h2.185a66.13 66.13 0 0 0 9.542-.699c-32.866-4.697-58.136-32.949-58.136-67.115z" fill="#e8c57e"></path><path d="M286.583 388.968c0 14.201-2.947 42.602-8.286 76.959-2.1 16.928-3.386 32.372-4.107 46.071H99.874c-1.233-15.35-2.978-31.379-5.455-46.071-5.34-34.357-8.286-62.759-8.286-76.959 0-32.759 15.716-61.839 40.011-80.126 14.807-11.139 32.8-18.276 52.372-19.791 2.591-.199 5.193-.303 7.837-.303h.01c2.633 0 5.246.104 7.827.303a99.673 99.673 0 0 1 52.383 19.791c24.294 18.287 40.01 47.368 40.01 80.126z" fill="#efefef"></path><path d="M127.013 388.969c0 14.201 1.745 42.602 4.901 76.959 1.473 14.692 2.508 30.721 3.229 46.071H99.876c-1.233-15.35-2.978-31.379-5.455-46.071-5.34-34.357-8.286-62.759-8.286-76.959 0-55.361 44.869-100.22 100.23-100.22-32.78.001-59.352 44.86-59.352 100.22z" fill="#dddddd"></path><path d="M178.516 289.052c2.591-.199 5.193-.303 7.837-.303l-31.139 55.12-29.07-35.026c14.806-11.139 32.8-18.276 52.372-19.791zM246.572 308.843l-29.07 35.026-31.149-55.12h.01c2.633 0 5.246.104 7.827.303a99.661 99.661 0 0 1 52.382 19.791z" fill="#cccccc"></path><circle cx="212.352" cy="153.616" fill="#78caef" r="27.83"></circle><circle cx="302.916" cy="153.616" fill="#78caef" r="27.83"></circle><path d="M300.357 117.951c-16.974 0-31.206 11.922-34.788 27.83h-18.426c-3.582-15.907-17.815-27.83-34.788-27.83s-31.206 11.922-34.788 27.83H110.75a7.837 7.837 0 0 0 0 15.674h66.817c3.582 15.907 17.814 27.83 34.788 27.83s31.206-11.922 34.788-27.83h18.426c3.582 15.907 17.815 27.83 34.788 27.83 19.667 0 35.666-16 35.666-35.667s-15.999-35.667-35.666-35.667zm-88.003 55.659c-11.024 0-19.992-8.969-19.992-19.993s8.969-19.993 19.992-19.993 19.993 8.969 19.993 19.993c-.001 11.024-8.969 19.993-19.993 19.993zm88.003 0c-11.024 0-19.993-8.969-19.993-19.993s8.969-19.993 19.993-19.993 19.992 8.969 19.992 19.993-8.968 19.993-19.992 19.993z" fill="#756e75"></path><path d="M194.19 289.052v222.947h-15.674V289.052a101.853 101.853 0 0 1 15.674 0z" fill="#cccccc"></path><path d="M138.284 39.517H87.15c-9.852 0-17.837 7.986-17.837 17.837 0 9.852 7.986 17.837 17.837 17.837h51.134c9.852 0 17.837-7.986 17.837-17.837.001-9.85-7.986-17.837-17.837-17.837zM138.284 75.192H97.6c-9.852 0-17.837 7.986-17.837 17.837 0 9.852 7.986 17.837 17.837 17.837h40.685c9.852 0 17.837-7.986 17.837-17.837 0-9.85-7.987-17.837-17.838-17.837z" fill="#efefef"></path><path d="M256.464 401.523h-32.106a7.837 7.837 0 0 1 0-15.674h32.106a7.837 7.837 0 0 1 0 15.674z" fill="#cccccc"></path><path d="M133.698 163.139c-9.44-9.44-24.745-9.44-34.184 0-9.439 9.44-9.44 24.745 0 34.184s24.745 9.44 34.184 0" fill="#e8c57e"></path><path d="m366.218 324.79 50.759-10.948-36.031-37.919z" fill="#4bc999"></path><path d="M394.136 301.09c-2.368-9.316-8.769-36.626-7.272-45.602.04-.241.068-.485.086-.73l2.09-29.258a7.835 7.835 0 0 0-7.258-8.375 7.833 7.833 0 0 0-8.375 7.259l-1.699 23.789-9.351 2.671a7.838 7.838 0 0 0-5.384 9.688c.836 2.926 3.233 4.971 6.026 5.523-2.602 1.35-4.343 4.103-4.232 7.228a7.837 7.837 0 0 0 8.107 7.558l6.752-.236c1.767 9.735 4.011 19.194 5.321 24.348a7.838 7.838 0 0 0 9.526 5.665 7.84 7.84 0 0 0 5.663-9.528z" fill="#4bc999"></path><path d="M353.94 21.944v82.831c0 12.119 9.824 21.944 21.944 21.944v40.752l82.55-40.752h31.345c12.119 0 21.944-9.824 21.944-21.944V21.944C511.722 9.824 501.898 0 489.778 0H375.884c-12.119 0-21.944 9.824-21.944 21.944z" fill="#f9c55f"></path><path d="M481.942 55.14h-98.224c-4.329 0-7.837-3.509-7.837-7.837s3.508-7.837 7.837-7.837h98.224c4.329 0 7.837 3.509 7.837 7.837s-3.507 7.837-7.837 7.837zM481.942 88.347h-98.224a7.837 7.837 0 0 1-7.837-7.837 7.837 7.837 0 0 1 7.837-7.837h98.224a7.837 7.837 0 0 1 7.837 7.837 7.836 7.836 0 0 1-7.837 7.837z" fill="#756e75"></path><path d="M228.669 232.258c0 3.427-1.296 6.635-3.574 9.404-4.598 5.622-13.208 9.404-23.072 9.404s-18.474-3.783-23.072-9.404c-2.278-2.769-3.574-5.977-3.574-9.404 0-10.387 11.923-18.809 26.646-18.809 14.713 0 26.646 8.422 26.646 18.809z" fill="#595259"></path><path d="M225.096 241.662c-4.598 5.622-13.208 9.404-23.072 9.404s-18.474-3.783-23.072-9.404c4.598-5.622 13.208-9.404 23.072-9.404s18.474 3.782 23.072 9.404z" fill="#f44a82"></path></g></svg>