<svg viewBox="0 0 512 512" xmlns="http://www.w3.org/2000/svg"><g><path d="M357.519 376.671s-18.515 5.517-24.867-.835 0-22.648 0-22.648l31.455-12.872z" fill="#f1b986"></path><path d="M497.616 375.84c-3.464 3.457-10.532 3.395-16.246 2.614-4.786-.642-8.622-1.786-8.622-1.786l-7.106-29.686-1.013-4.222 32.987 10.431s6.349 16.293 0 22.649z" fill="#f1d0a5"></path><path d="M481.37 378.454c-4.786-.642-8.622-1.786-8.622-1.786l-7.106-29.686 18.079 6.202c0 8.622 1.801 19.811-2.351 25.27z" fill="#f1b986"></path><path d="M470.293 353.185s-35.743 23.436-55.157 4.014c-19.422 19.422-54.814-4.014-54.814-4.014h-27.673c0-57.239 18.877-83.342 28.623-93.008a14.665 14.665 0 0 1 10.334-4.25h87.052c3.872 0 7.585 1.523 10.334 4.25 9.746 9.665 28.623 35.768 28.623 93.008z" fill="#b9e4ef"></path><path d="M483.723 353.185h-11.801c0-4.688.083-8.584-.541-12.867-1.663-11.423-5.224-20.996-5.224-20.996s15.671 5.522 17.566 33.863zM379.59 255.928c-11.645 15.717-32.86 50.81-32.304 97.257h-14.637c0-57.239 18.877-83.342 28.623-93.008a14.665 14.665 0 0 1 10.334-4.25h7.984z" fill="#7ad0df"></path><path d="m463.808 429.76-2.858 6.953-36.205-6.953s9.797-45.406-9.617-64.828c-19.414 19.422-9.617 64.828-9.617 64.828h-39.07c-12.499-32.03-8.176-85.369-7.565-89.442h112.505c.611 4.073 4.926 57.412-7.573 89.442z" fill="#665e66"></path><path d="M358.876 340.318c1.618-15.034 6.075-23.948 6.075-23.948l2.743 36" fill="#7ad0df"></path><path d="m378.008 429.76-9.286 5.581-2.281-5.581c-12.499-32.03-8.176-85.369-7.565-89.442h18.537c-3.932 14.708-8.795 45.242.595 89.442zM434.942 429.76h-10.196s9.797-45.406-9.617-64.828c19.813 0 30.001 34.114 19.813 64.828z" fill="#454045"></path><path d="m431.216 255.928-3.501 23.745h-25.17l-3.5-23.745z" fill="#ce4529"></path><path d="M409.337 300.894h11.599v39.424h-11.599z" fill="#7ad0df"></path><path d="M402.547 279.672h25.171l4.456 30.225-17.042 12.219-17.041-12.219z" fill="#df6b57"></path><path d="M354.731 448.156h50.783v-18.393h-32.39c-10.158 0-18.393 8.235-18.393 18.393z" fill="#aa593d"></path><path d="M384.85 429.76c-10.157 0-18.396 8.239-18.396 18.396h-11.723c0-10.157 8.231-18.396 18.388-18.396z" fill="#934d36"></path><path d="M475.534 448.156h-50.783v-18.393h32.39c10.158 0 18.393 8.235 18.393 18.393z" fill="#aa593d"></path><path d="m502.287 171.36-118.442.507-58.815.247c-4.484-40.937-17.497-94.102 30.314-103.576 11.479-2.277 21.816-3.628 31.107-4.262 62.233-4.224 77.714 23.877 77.714 23.877s11.263-9.893 23.51-8.885c4.427.361 8.987 2.156 13.185 6.355 22.146 22.147 1.427 85.737 1.427 85.737z" fill="#f6e738"></path><path d="M487.675 79.269c-14.548 9.995-24.068 39.903-28.475 56.951-4.313-17.364.958-36.479 4.966-48.066-.001 0 11.263-9.893 23.509-8.885zM377.287 127.747l6.558 44.121-58.815.247c-4.484-40.937-17.497-94.102 30.314-103.576 11.479-2.277 21.816-3.628 31.107-4.262 0 .006-.006.006-.006.006-23.941 14.726-16.546 40.956-9.158 63.464z" fill="#dac82e"></path><path d="M494.45 204.435h.112c9.633 0 17.438-7.812 17.438-17.438 0-9.633-7.805-17.445-17.438-17.445-.125 0-.251 0-.376.007H334.505c-.125-.007-.251-.007-.376-.007-9.633 0-17.438 7.812-17.438 17.445 0 9.626 7.805 17.438 17.438 17.438h.112" fill="#f1b986"></path><path d="M494.619 191.084c0 9.183-.235 18.373-.704 27.556-1.173 22.958-19.546 41.235-42.516 42.32a782.88 782.88 0 0 1-48.18.793h-.006a784.554 784.554 0 0 1-25.926-.793c-22.964-1.085-41.337-19.362-42.516-42.32a539.196 539.196 0 0 1-.273-49.08h.006c8.955-3.317 14.282-13.629 17.447-25.095 3.247-11.764 14.517-18.195 25.336-16.717 4.217.577 8.371 2.359 11.948 5.492 7.185 6.291 16.147 9.437 25.108 9.437s17.929-3.146 25.114-9.437c4.452-3.9 9.786-5.701 15.037-5.701 9.798 0 19.305 6.278 22.247 16.927 3.158 11.466 8.486 21.778 17.447 25.095.292 7.177.431 14.35.431 21.523z" fill="#f1d0a5"></path><path d="M403.213 261.752a784.554 784.554 0 0 1-25.926-.793c-22.964-1.085-41.337-19.362-42.516-42.32a539.196 539.196 0 0 1-.273-49.08h.006c8.955-3.317 14.282-13.629 17.447-25.095 3.247-11.764 14.517-18.195 25.336-16.717-8.212 73.332 0 133.199 25.926 134.005z" fill="#f1b986"></path><path d="M414.346 226.894c-8.719 0-16.769-5.091-20.509-12.969a4.64 4.64 0 0 1 8.384-3.979c2.211 4.659 6.971 7.669 12.125 7.669s9.913-3.01 12.125-7.669a4.64 4.64 0 0 1 8.384 3.979c-3.741 7.878-11.791 12.969-20.509 12.969z" fill="#df6b57"></path><path d="M377.215 170.038c-4.018 0-7.287 4.86-7.287 10.833 0 5.974 3.269 10.834 7.287 10.834 4.017 0 7.286-4.86 7.286-10.834 0-5.973-3.269-10.833-7.286-10.833zM451.476 170.038c-4.017 0-7.286 4.86-7.286 10.833 0 5.974 3.269 10.834 7.286 10.834 4.018 0 7.287-4.86 7.287-10.834.001-5.973-3.268-10.833-7.287-10.833z" fill="#454045"></path><path d="M199.403 376.671s-18.515 5.517-24.867-.835 0-22.648 0-22.648l31.455-12.872z" fill="#f1b986"></path><path d="M339.5 375.84c-3.464 3.457-10.532 3.395-16.246 2.614-4.786-.642-8.622-1.786-8.622-1.786l-7.106-29.686-1.013-4.222 32.987 10.431s6.349 16.293 0 22.649z" fill="#f1d0a5"></path><path d="M323.254 378.454c-4.786-.642-8.622-1.786-8.622-1.786l-7.106-29.686 18.079 6.202c0 8.622 1.802 19.811-2.351 25.27z" fill="#f1b986"></path><path d="M312.177 353.185s-35.743 23.436-55.157 4.014c-19.422 19.422-54.814-4.014-54.814-4.014h-27.673c0-57.239 18.877-83.342 28.623-93.008a14.665 14.665 0 0 1 10.334-4.25h87.052c3.872 0 7.585 1.523 10.334 4.25 9.746 9.665 28.623 35.768 28.623 93.008z" fill="#b9e4ef"></path><path d="M325.607 353.185h-11.801c0-4.688.083-8.584-.541-12.867-1.663-11.423-5.224-20.996-5.224-20.996s15.671 5.522 17.566 33.863zM221.474 255.928c-11.645 15.717-32.86 50.81-32.304 97.257h-14.637c0-57.239 18.877-83.342 28.623-93.008a14.665 14.665 0 0 1 10.334-4.25h7.984z" fill="#7ad0df"></path><path d="m305.692 429.76-2.858 6.953-36.205-6.953s9.797-45.406-9.617-64.828c-19.414 19.422-9.617 64.828-9.617 64.828h-39.07c-12.499-32.03-8.176-85.369-7.565-89.442h112.505c.611 4.073 4.926 57.412-7.573 89.442z" fill="#665e66"></path><path d="M200.76 340.318c1.618-15.034 6.075-23.948 6.075-23.948l2.743 36" fill="#7ad0df"></path><path d="m219.892 429.76-9.286 5.581-2.281-5.581c-12.499-32.03-8.176-85.369-7.565-89.442h18.537c-3.931 14.708-8.795 45.242.595 89.442zM276.826 429.76H266.63s9.797-45.406-9.617-64.828c19.813 0 30.001 34.114 19.813 64.828z" fill="#454045"></path><path d="m273.1 255.928-3.501 23.745h-25.17l-3.5-23.745z" fill="#ce4529"></path><path d="M251.221 300.894h11.599v39.424h-11.599z" fill="#7ad0df"></path><path d="M244.431 279.672h25.171l4.456 30.225-17.041 12.219-17.042-12.219z" fill="#df6b57"></path><path d="M196.615 448.156h50.783v-18.393h-32.39c-10.158 0-18.393 8.235-18.393 18.393z" fill="#aa593d"></path><path d="M226.734 429.76c-10.157 0-18.396 8.239-18.396 18.396h-11.723c0-10.157 8.231-18.396 18.388-18.396z" fill="#934d36"></path><path d="M317.418 448.156h-50.783v-18.393h32.39c10.158 0 18.393 8.235 18.393 18.393zM344.171 171.36l-118.442.507-58.815.247c-4.484-40.937-17.497-94.102 30.314-103.576 11.479-2.277 21.816-3.628 31.107-4.262 62.233-4.224 77.714 23.877 77.714 23.877s11.263-9.893 23.51-8.885c4.427.361 8.987 2.156 13.185 6.355 22.146 22.147 1.427 85.737 1.427 85.737z" fill="#aa593d"></path><path d="M329.559 79.269c-14.548 9.995-24.068 39.903-28.475 56.951-4.313-17.364.958-36.479 4.966-48.066 0 0 11.263-9.893 23.509-8.885zM219.172 127.747l6.558 44.121-58.815.247c-4.484-40.937-17.497-94.102 30.314-103.576 11.479-2.277 21.816-3.628 31.107-4.262 0 .006-.006.006-.006.006-23.941 14.726-16.547 40.956-9.158 63.464z" fill="#934d36"></path><path d="M336.334 204.435h.112c9.633 0 17.438-7.812 17.438-17.438 0-9.633-7.805-17.445-17.438-17.445-.125 0-.251 0-.376.007H176.389c-.125-.007-.251-.007-.376-.007-9.633 0-17.438 7.812-17.438 17.445 0 9.626 7.805 17.438 17.438 17.438h.112" fill="#f1b986"></path><path d="M336.504 191.084c0 9.183-.235 18.373-.704 27.556-1.173 22.958-19.546 41.235-42.516 42.32a782.88 782.88 0 0 1-48.18.793h-.006a784.554 784.554 0 0 1-25.926-.793c-22.964-1.085-41.337-19.362-42.516-42.32a539.196 539.196 0 0 1-.273-49.08h.006c8.955-3.317 14.282-13.629 17.447-25.095 3.247-11.764 14.517-18.195 25.336-16.717 4.217.577 8.371 2.359 11.948 5.492 7.185 6.291 16.147 9.437 25.108 9.437s17.929-3.146 25.114-9.437c4.452-3.9 9.786-5.701 15.037-5.701 9.798 0 19.305 6.278 22.247 16.927 3.158 11.466 8.486 21.778 17.447 25.095.291 7.177.431 14.35.431 21.523z" fill="#f1d0a5"></path><path d="M245.097 261.752a784.554 784.554 0 0 1-25.926-.793c-22.964-1.085-41.337-19.362-42.516-42.32a539.196 539.196 0 0 1-.273-49.08h.006c8.955-3.317 14.282-13.629 17.447-25.095 3.247-11.764 14.517-18.195 25.336-16.717-8.212 73.332.001 133.199 25.926 134.005z" fill="#f1b986"></path><path d="M256.23 226.894c-8.719 0-16.769-5.091-20.509-12.969a4.64 4.64 0 0 1 8.384-3.979c2.211 4.659 6.971 7.669 12.125 7.669 5.155 0 9.913-3.01 12.125-7.669a4.64 4.64 0 0 1 8.384 3.979c-3.741 7.878-11.79 12.969-20.509 12.969z" fill="#df6b57"></path><path d="M219.099 170.038c-4.018 0-7.287 4.86-7.287 10.833 0 5.974 3.269 10.834 7.287 10.834 4.017 0 7.286-4.86 7.286-10.834 0-5.973-3.269-10.833-7.286-10.833zM293.361 170.038c-4.017 0-7.286 4.86-7.286 10.833 0 5.974 3.269 10.834 7.286 10.834 4.018 0 7.287-4.86 7.287-10.834 0-5.973-3.269-10.833-7.287-10.833z" fill="#454045"></path><path d="M40.829 376.671s-18.515 5.517-24.867-.835 0-22.648 0-22.648l31.455-12.872z" fill="#b46e59"></path><path d="M180.926 375.84c-3.464 3.457-10.532 3.395-16.246 2.614-4.786-.642-8.622-1.786-8.622-1.786l-7.106-29.686-1.013-4.222 32.987 10.431s6.348 16.293 0 22.649z" fill="#c18678"></path><path d="M164.679 378.454c-4.786-.642-8.622-1.786-8.622-1.786l-7.106-29.686 18.079 6.202c0 8.622 1.802 19.811-2.351 25.27z" fill="#b46e59"></path><path d="M153.602 353.185s-35.743 23.436-55.157 4.014c-19.422 19.422-54.814-4.014-54.814-4.014H15.958c0-57.239 18.877-83.342 28.623-93.008a14.665 14.665 0 0 1 10.334-4.25h87.052c3.872 0 7.585 1.523 10.334 4.25 9.746 9.665 28.623 35.768 28.623 93.008z" fill="#b9e4ef"></path><path d="M167.032 353.185h-11.801c0-4.688.083-8.584-.541-12.867-1.663-11.423-5.224-20.996-5.224-20.996s15.671 5.522 17.566 33.863zM62.899 255.928c-11.645 15.717-32.86 50.81-32.304 97.257H15.958c0-57.239 18.877-83.342 28.623-93.008a14.665 14.665 0 0 1 10.334-4.25h7.984z" fill="#7ad0df"></path><path d="m147.117 429.76-2.858 6.953-36.205-6.953s9.797-45.406-9.617-64.828c-19.414 19.422-9.617 64.828-9.617 64.828H49.75c-12.499-32.03-8.176-85.369-7.565-89.442H154.69c.611 4.073 4.926 57.412-7.573 89.442z" fill="#665e66"></path><path d="M42.185 340.318c1.618-15.034 6.075-23.948 6.075-23.948l2.743 36" fill="#7ad0df"></path><path d="m61.317 429.76-9.286 5.581-2.281-5.581c-12.499-32.03-8.176-85.369-7.565-89.442h18.537c-3.931 14.708-8.794 45.242.595 89.442zM118.251 429.76h-10.196s9.797-45.406-9.617-64.828c19.813 0 30.002 34.114 19.813 64.828z" fill="#454045"></path><path d="m114.525 255.928-3.501 23.745H85.855l-3.501-23.745z" fill="#ce4529"></path><path d="M92.646 300.894h11.599v39.424H92.646z" fill="#7ad0df"></path><path d="M85.856 279.672h25.172l4.456 30.225-17.042 12.219L81.4 309.897z" fill="#df6b57"></path><path d="M38.04 448.156h50.783v-18.393h-32.39c-10.158 0-18.393 8.235-18.393 18.393z" fill="#aa593d"></path><path d="M68.16 429.76c-10.157 0-18.396 8.239-18.396 18.396H38.04c0-10.157 8.231-18.396 18.388-18.396z" fill="#934d36"></path><path d="M158.843 448.156H108.06v-18.393h32.39c10.159 0 18.393 8.235 18.393 18.393z" fill="#aa593d"></path><path d="m185.596 171.36-118.442.507-58.815.247C3.856 131.178-9.158 78.013 38.654 68.539c11.479-2.277 21.816-3.628 31.107-4.262 62.233-4.224 77.714 23.877 77.714 23.877s11.263-9.893 23.51-8.885c4.427.361 8.986 2.156 13.185 6.355 22.145 22.146 1.426 85.736 1.426 85.736z" fill="#665e66"></path><path d="M170.985 79.269c-14.548 9.995-24.068 39.903-28.475 56.951-4.313-17.364.958-36.479 4.966-48.066-.001 0 11.262-9.893 23.509-8.885zM60.597 127.747l6.558 44.121-58.815.247C3.856 131.178-9.158 78.013 38.654 68.539c11.479-2.277 21.816-3.628 31.107-4.262 0 .006-.006.006-.006.006-23.941 14.726-16.547 40.956-9.158 63.464z" fill="#454045"></path><path d="M177.759 204.435h.112c9.633 0 17.438-7.812 17.438-17.438 0-9.633-7.805-17.445-17.438-17.445-.125 0-.251 0-.376.007H17.814c-.125-.007-.251-.007-.376-.007C7.805 169.552 0 177.364 0 186.997c0 9.626 7.805 17.438 17.438 17.438h.112" fill="#b46e59"></path><path d="M177.929 191.084c0 9.183-.235 18.373-.704 27.556-1.173 22.958-19.546 41.235-42.516 42.32a782.88 782.88 0 0 1-48.18.793h-.006a784.554 784.554 0 0 1-25.926-.793c-22.964-1.085-41.337-19.362-42.516-42.32a539.196 539.196 0 0 1-.273-49.08h.006c8.955-3.317 14.282-13.629 17.447-25.095 3.247-11.764 14.517-18.195 25.336-16.717 4.217.577 8.371 2.359 11.948 5.492 7.185 6.291 16.147 9.437 25.108 9.437s17.929-3.146 25.114-9.437c4.452-3.9 9.786-5.701 15.037-5.701 9.798 0 19.305 6.278 22.247 16.927 3.158 11.466 8.486 21.778 17.447 25.095.291 7.177.431 14.35.431 21.523z" fill="#c18678"></path><path d="M86.523 261.752a784.554 784.554 0 0 1-25.926-.793c-22.964-1.085-41.337-19.362-42.516-42.32a539.196 539.196 0 0 1-.273-49.08h.006c8.955-3.317 14.282-13.629 17.447-25.095 3.247-11.764 14.517-18.195 25.336-16.717-8.213 73.332 0 133.199 25.926 134.005z" fill="#b46e59"></path><path d="M97.655 226.894c-8.719 0-16.769-5.091-20.509-12.969a4.64 4.64 0 0 1 8.384-3.979c2.211 4.659 6.971 7.669 12.125 7.669s9.913-3.01 12.125-7.669a4.64 4.64 0 0 1 8.384 3.979c-3.74 7.878-11.79 12.969-20.509 12.969z" fill="#b46e59"></path><g fill="#454045"><path d="M60.524 170.038c-4.018 0-7.287 4.86-7.287 10.833 0 5.974 3.269 10.834 7.287 10.834 4.017 0 7.286-4.86 7.286-10.834 0-5.973-3.269-10.833-7.286-10.833zM134.786 170.038c-4.017 0-7.286 4.86-7.286 10.833 0 5.974 3.269 10.834 7.286 10.834 4.018 0 7.287-4.86 7.287-10.834 0-5.973-3.269-10.833-7.287-10.833z" fill="#454045"></path></g></g></svg>