<svg viewBox="0 0 497 497" xmlns="http://www.w3.org/2000/svg"><g><path d="M340 472.669v-60a5 5 0 0 0-5-5h-75a5 5 0 0 1-5-5v-75a5 5 0 0 0-5-5h-75a5 5 0 0 1-5-5V304.16l-31.266-9.672-20.901-56.819H90a5 5 0 0 1-5-5v-75a5 5 0 0 0-5-5H21.032c-2.761 0-12.766 2.239-12.766 5 0 0-.208 324.734 2.553 324.734l319.091 2.043c2.761 0 10.09-9.016 10.09-11.777z" fill="#857e87"></path><g fill="#766e7a"><path d="M125.167 280.301c2.878 16.727 18.671 28.03 35.431 25.358L170 304.16v-66.491h-52.167z" fill="#766e7a"></path><path d="M20 469.669v-317H5a5 5 0 0 0-5 5v330a5 5 0 0 0 5 5h330a5 5 0 0 0 5-5v-15H23a3 3 0 0 1-3-3z" fill="#766e7a"></path></g><path d="m235.129 100.135 30.668-9.734c.695-.22 3.264-1.879 3.406-2.594l12.255-64.851c1.875-9.427 9.343-18.046 18.851-16.638.388.058 1.815-1.661 2.193-1.58 9.433 2.018 15.688 11.195 13.951 20.826l-14.502 80.406c-.984 5.766-5.105 13.809-13.261 17.51l-23.687 11.088-19.432-14.779z" fill="#e3a76f"></path><path d="M280.67 85.676a11 11 0 0 0 7.464-8.34l14.368-72.598a18.767 18.767 0 0 0-3.459-.405c-1.526-.024-6.441.09-11.132 3.596-4.895 3.657-6.343 8.613-6.709 10.053l-14.105 70.93c-.134.673-.666 1.243-1.3 1.489zM257.6 121.724c-5.597-9.668-13.569-17.082-22.471-21.589L204.019 110l31.609 38.318 29.375-13.751z" fill="#d6995c"></path><path d="m421.233 177.06-46.901 14.506-25.47-5.844-49.532 17.362-4.356-12.162-.232-7.5 6.797-15.36a25.22 25.22 0 0 1 20.879-14.892l103.679-9.192z" fill="#91dafa"></path><path d="M361.971 184.129a25.22 25.22 0 0 0-22.198-1.874l-34.085 13.344a4 4 0 0 1-4.924-1.727l-6.024-10.45-9.253 20.91 3.799 21.731 46.638-18.383 3.848-5.425 34.558-10.689z" fill="#75cff9"></path><path d="m423.926 172.956 25.021-1.915c1.749-.122 5.045-8.83 4.931-10.45l-3.817-54.581c-.113-1.62-1.623-2.834-3.372-2.711-5.701.399-11.24 1.414-15.935 3.586-8.269 3.825-11.134 18.61-10.403 32.625z" fill="#857e87"></path><path d="m434.991 159.077-4.236-52.192c-8.268 3.825-13.915 11.247-13.184 25.261l3.662 44.914 30.447-2.398c1.749-.122 3.075-1.535 2.962-3.154l-.763-10.917-15.662 1.233a2.998 2.998 0 0 1-3.226-2.747z" fill="#766e7a"></path><path d="M231.209 61.266c-1.16-5.459-3.32-10.416-6.116-14.803l-34.274-12.145-19.659 41.417-6.639 13.987 6.613 12.873c9.045 6.909 20.809 9.971 32.885 7.404 20.578-4.374 29.945-6.903 30.578-22.409.255-6.299-.926-14.743-3.388-26.324z" fill="#e3a76f"></path><path d="m174.479 77.595 7.661-4.439 2.322-6.395c2.838-7.815 9.541-13.629 17.719-15.367l22.912-4.93c-8.83-13.852-24.635-21.615-40.541-18.234a36.06 36.06 0 0 0-6.468 2.03c-17.076 7.169-28.882 39.392-16.626 56.843 6.163 8.776 13.021-9.508 13.021-9.508z" fill="#857e87"></path><path d="M175.366 57.387c-2.038-9.59-.876-19.056 2.718-27.128-17.075 7.169-27.024 26.872-22.718 47.128 2.23 10.491 7.995 19.27 15.769 25.208l.663-1.384 10.342-28.056c-3.182-4.592-5.53-9.913-6.774-15.768z" fill="#766e7a"></path><path d="m237.094 264.511-44.232-95.64c-11.785-20.36.638-44.681.638-44.681l12.766-14.266c13.678-1.517 28.222 5.989 36.34 20.012l52.368 90.829z" fill="#ffe077"></path><path d="M203.345 164.816c-11.785-20.36 6.468-55.704 2.912-55.31L193.5 124.19s-21.94 30.266-10.155 50.626l45.96 97.524 17.883-14.492z" fill="#ffd05b"></path><path d="M248.5 283.48c-7.84-1.809-11.539-2.994-15.95-10.438-3.177-5.362-3.721-17.369-3.721-17.369 2.239-6.968 7.475-12.91 14.822-15.786l96.123-37.632a25.223 25.223 0 0 1 22.198 1.874l71.49 43.014-.462 21.473-87.883-21.957-81.771 35.725a25.114 25.114 0 0 1-14.846 1.096z" fill="#91dafa"></path><path d="m433.461 247.143-6.353 10.957a4 4 0 0 1-4.734 1.785l-73.326-25.534a4.998 4.998 0 0 0-3.417.047l-85.59 32.461a25.107 25.107 0 0 1-14.846 1.097c-6.786-1.566-12.819-5.917-16.365-12.283a25.114 25.114 0 0 0 .531 16.895c3.155 8.058 9.994 13.579 17.834 15.388a25.106 25.106 0 0 0 14.846-1.097l83.886-32.841a1.998 1.998 0 0 1 1.366-.033l85.709 28.8 19.041-24.461z" fill="#75cff9"></path><path d="m437.074 281.084 24.043 14.511c1.518.877 7.517-7.101 8.329-8.507l27.185-47.085c.812-1.406.239-3.257-1.279-4.133-4.996-2.885-10.207-5.157-15.362-5.962-8.944-1.397-20.756 11.512-27.948 23.475z" fill="#857e87"></path><path d="m454.472 275.175 25.518-45.267c-8.943-1.396-17.719 1.632-24.91 13.594L433 282.784l26.583 15.038c1.519.877 3.407.447 4.219-.959l5.644-9.776-13.839-7.829a2.998 2.998 0 0 1-1.135-4.083z" fill="#766e7a"></path><path d="M55.771 127.66a7.502 7.502 0 0 1-6.792-4.31L32.971 89.32a7.501 7.501 0 0 1 9.481-10.193l35.238 13.56 35.729-25.662a7.5 7.5 0 0 1 11.586 8.151l-12.006 42.037a7.5 7.5 0 1 1-14.423-4.119l6.087-21.312-21.513 15.451a7.501 7.501 0 0 1-7.068.908l-21.59-8.307 8.06 17.132a7.5 7.5 0 0 1-6.781 10.694zM337.626 367.35a7.474 7.474 0 0 1-5.085-1.989l-26.554-24.511a7.5 7.5 0 0 1 10.174-11.022l26.554 24.511a7.5 7.5 0 0 1-5.089 13.011zM368.272 314.243c-.152 0-.306-.004-.46-.014l-33.702-2.042a7.5 7.5 0 0 1-7.033-7.939c.25-4.135 3.805-7.301 7.939-7.033l33.702 2.042a7.5 7.5 0 0 1-.446 14.986z" fill="#ffe077"></path><path d="M206.257 109.506c7.653-.712 15.384 1.977 20.864 9.101 11.376 14.789 3.009 30.091-8.001 36.97l-51.431 39.543a2.001 2.001 0 0 0-.758 1.89l10.782 70.022c.226 1.469.258 2.923.133 4.34 0 0-2.686 10.01-16.644 11.883 0 0-12.623-3.285-14.298-13.021l-13.787-76.085c-1.047-5.755 2.954-23.639 9.353-29.906l46.535-46.637c3.326-3.326 7.534-5.769 12.039-7.075z" fill="#e3a76f"></path><path d="m157.804 256.546-15.334-92.305-7.653 7.67c-6.399 6.267-7.52 15.235-6.473 20.99l13.751 79.936c1.675 9.736 10.868 16.315 20.624 14.76 8.336-1.329 14.417-8.175 15.127-16.226-9.532 1.202-18.401-5.287-20.042-14.825z" fill="#d6995c"></path></g></svg>