<svg viewBox="0 0 512 512" xmlns="http://www.w3.org/2000/svg"><g id="Layer_2" data-name="Layer 2"><g id="_03.number_2" data-name="03.number 2"><g id="background"><circle cx="256" cy="256" fill="#f24d6e" r="256"/></g><path d="m171.92 384.53v-59.15q14.88-14.13 29.77-28.83t29.76-28.83q17.1-16.74 26-27t12.55-17.27a29.5 29.5 0 0 0 3.54-13q0-12.28-14.14-17.67t-36.46-3.16q-22.32 2.22-47.62 12.27v-62.14q37.2-12.28 67.52-12.28t52.09 9.86q21.75 9.85 33.48 27.34t11.72 40.55a82.31 82.31 0 0 1 -12.28 43.34q-12.27 20.28-37.57 44.83-8.19 7.82-16.37 16t-16.37 16h80.73v59.15h-166.35z" fill="#fff"/></g></g></svg>