<svg viewBox="0 0 512 512" xmlns="http://www.w3.org/2000/svg"><g><g clip-rule="evenodd" fill-rule="evenodd"><path d="M57.297 46.543h397.406c19.089 0 34.71 15.621 34.71 34.71V477.29c0 19.089-15.621 34.71-34.71 34.71H57.297c-19.089 0-34.71-15.621-34.71-34.71V81.253c0-19.089 15.621-34.71 34.71-34.71z" fill="#97b3c4"></path><path d="M57.297 46.543h397.406c19.089 0 34.71 15.621 34.71 34.71v306.39C447.883 456.568 372.809 504.772 285.464 512H57.297c-19.089 0-34.71-15.621-34.71-34.71V81.253c0-19.089 15.621-34.71 34.71-34.71z" fill="#e1efff"></path><path d="M285.464 512c60.619-25.268 109.26-71.811 135.548-129.749 10.492 8.539 23.723 13.61 38.091 13.61a59.698 59.698 0 0 0 30.31-8.219C447.883 456.568 372.809 504.772 285.464 512zM54.965 493.902V104.335c0-18.798 15.388-34.157 34.157-34.157h390.907c2.71 0 5.333.321 7.869.933-4.372-14.193-17.632-24.568-33.195-24.568H57.297c-19.089 0-34.71 15.621-34.71 34.71V477.29c0 19.089 15.621 34.71 34.71 34.71h2.914a33.723 33.723 0 0 1-5.246-18.098z" fill="#b0ccdd"></path><path d="M57.297 46.543h397.406c19.089 0 34.71 15.621 34.71 34.71v75.25H22.587v-75.25c0-19.089 15.621-34.71 34.71-34.71z" fill="#d10028"></path><path d="M54.965 104.335c0-18.798 15.388-34.157 34.157-34.157H480.028c2.71 0 5.333.321 7.869.933-4.372-14.193-17.632-24.568-33.195-24.568H57.297c-19.089 0-34.71 15.621-34.71 34.71v75.25h32.379v-52.168z" fill="#b8000f"></path><path d="M166.12 0c10.317 0 18.769 8.452 18.769 18.769v55.519c0 10.346-8.452 18.798-18.769 18.798-10.346 0-18.798-8.452-18.798-18.798V18.769C147.322 8.452 155.774 0 166.12 0zM345.909 0c10.317 0 18.769 8.452 18.769 18.769v55.519c0 10.346-8.452 18.798-18.769 18.798-10.346 0-18.798-8.452-18.798-18.798V18.769C327.111 8.452 335.563 0 345.909 0z" fill="#113255"></path><path d="M166.12 0c-10.346 0-18.798 8.452-18.798 18.769v55.519c0 10.346 8.452 18.798 18.798 18.798V46.543zM345.909 0c-10.346 0-18.798 8.452-18.798 18.769v55.519c0 10.346 8.452 18.798 18.798 18.798V46.543z" fill="#00193c"></path></g><path d="M235.074 268.852v30.31h49.02a7.198 7.198 0 0 1 0 14.396h-49.02v41.385h53.159a7.198 7.198 0 0 1 0 14.396h-60.357a7.198 7.198 0 0 1-7.198-7.198V261.654a7.198 7.198 0 0 1 7.198-7.198h60.357a7.198 7.198 0 0 1 0 14.396zm146.419 22.995v1.282c0 20.602-16.773 37.362-37.391 37.362h-22.966v31.651a7.198 7.198 0 0 1-14.396 0V261.654a7.198 7.198 0 0 1 7.198-7.198h30.164c20.618-.001 37.391 16.773 37.391 37.391zm-14.396 0c0-12.679-10.315-22.995-22.994-22.995h-22.966v47.242h22.966c12.679 0 22.994-10.302 22.994-22.965zm-169.006-37.392h-41.267c-14.511 0-26.317 11.805-26.317 26.317v11.978c0 14.527 11.805 26.346 26.317 26.346h22.121c6.588 0 11.949 5.348 11.949 11.92v11.978c0 6.588-5.361 11.949-11.949 11.949h-34.04v-9.414a7.198 7.198 0 0 0-14.396 0v16.612a7.198 7.198 0 0 0 7.198 7.198h41.238c14.527 0 26.346-11.818 26.346-26.346v-11.978c0-14.511-11.818-26.317-26.346-26.317h-22.122c-6.572 0-11.92-5.361-11.92-11.949v-11.978c0-6.572 5.347-11.92 11.92-11.92h34.069v9.385a7.198 7.198 0 0 0 14.396 0v-16.583a7.197 7.197 0 0 0-7.197-7.198z" fill="#113255"></path></g></svg>