<svg viewBox="0 0 512.001 512" xmlns="http://www.w3.org/2000/svg"><g><path d="m448 264.27-8 8.199-8-8.2v-120h16zm0 0" fill="#6f6571"></path><path d="M440 104.27c-13.254 0-24 10.742-24 24h48c0-13.254-10.746-24-24-24zm0 0" fill="#ffe09f"></path><path d="M424 128.27v24a8 8 0 0 0 8 8h16a8 8 0 0 0 8-8v-24zm0 0" fill="#ecbd83"></path><path d="M504 136.27h-88l-5.668-8 5.668-8h88c4.422 0 8 3.582 8 8s-3.578 8-8 8zm0 0" fill="#f6d190"></path><path d="M376 136.27h40v-16h-40a8 8 0 0 0 0 16zm0 0" fill="#ecbd83"></path><path d="m80 160.27-8 12.363-8-12.363v-136h16zm0 0" fill="#6f6571"></path><path d="M81.281 12.238c-12.097-5.414-26.293.004-31.707 12.102l43.813 19.61c5.414-12.098-.008-26.298-12.106-31.712zm0 0" fill="#ffe09f"></path><path d="M133.164 52.988 52.84 17.04l-8.09 4.844 1.555 9.762 80.324 35.945a7.996 7.996 0 0 0 10.57-4.031 7.998 7.998 0 0 0-4.035-10.57zm0 0" fill="#f6d190"></path><path d="m9.793 15.305 36.512 16.34 6.535-14.606L16.328.7c-4.031-1.804-8.762.004-10.57 4.035-1.805 4.032.004 8.766 4.035 10.57zm0 0" fill="#ecbd83"></path><path d="M448 408.27v-144h-16v144h-40v16h96v-16zm0 0" fill="#4b3f4e"></path><path d="M504 440.27a7.974 7.974 0 0 1-5.656-2.344L440 379.582l-58.344 58.344c-3.125 3.125-8.187 3.125-11.312 0s-3.125-8.188 0-11.313l64-64a7.997 7.997 0 0 1 11.312 0l64 64a7.997 7.997 0 0 1 0 11.313A7.974 7.974 0 0 1 504 440.27zM208 176.27h16v48h-16zM280 160.27h16v64h-16zm0 0" fill="#5d5360"></path><path d="M344 160.27h-59.332V131.3L344 136.27zm0 0" fill="#ff8086"></path><path d="M304 136.27h40v-24h-80v48h24v-8c0-8.836 7.164-16 16-16zm0 0" fill="#e5646e"></path><path d="M296 208.27h112v48H296zm0 0" fill="#ff8086"></path><path d="M360 264.27c-4.422 0-8-3.583-8-8v-16c0-4.418 3.578-8 8-8s8 3.582 8 8v16c0 4.417-3.578 8-8 8zm0 0" fill="#6f6571"></path><path d="M360 232.27h48v-24H296v48h56v-16a8 8 0 0 1 8-8zm0 0" fill="#e5646e"></path><path d="M408 216.27H296c-4.422 0-8-3.583-8-8s3.578-8 8-8h112c4.422 0 8 3.582 8 8s-3.578 8-8 8zM408 264.27H296c-4.422 0-8-3.583-8-8s3.578-8 8-8h112c4.422 0 8 3.582 8 8s-3.578 8-8 8zm0 0" fill="#857e87"></path><path d="M296 248.27h56v16h-56a8 8 0 0 1 0-16zm0 0" fill="#6f6571"></path><path d="M168 336.27H88.25V222.133L168 232.27zm0 0" fill="#ff8086"></path><path d="M128 232.27h40v-24H40v128h56v-72c0-17.676 14.328-32 32-32zm0 0" fill="#e5646e"></path><path d="M168 216.27H96l-7-8 7-8h72a8 8 0 0 1 0 16zM168 344.27H96l-6-8 6-8h72a8 8 0 0 1 0 16zm0 0" fill="#857e87"></path><path d="M167.992 440.27a7.964 7.964 0 0 1-4.43-1.344 7.994 7.994 0 0 1-2.218-11.094l19.695-29.539c2.438-3.676 7.399-4.68 11.094-2.219 3.68 2.446 4.672 7.418 2.219 11.094l-19.696 29.539a7.988 7.988 0 0 1-6.664 3.563zM344.227 440.137a7.988 7.988 0 0 1-6.586-3.45l-20.274-29.308a7.996 7.996 0 0 1 2.024-11.129 7.995 7.995 0 0 1 11.132 2.027l20.274 29.309a7.996 7.996 0 0 1-6.57 12.55zm0 0" fill="#5d5360"></path><path d="M232 176.27h-65.5v-29.137l65.5 5.137zm0 0" fill="#ff8086"></path><path d="M192 136.27h40v-24h-96v24l6.832 8.03-6.832 7.97v24h40v-24c0-8.836 7.164-16 16-16zm0 0" fill="#e5646e"></path><path d="M104 312.27c-4.422 0-8-3.583-8-8v-32c0-4.418 3.578-8 8-8s8 3.582 8 8v32c0 4.417-3.578 8-8 8zm0 0" fill="#6f6571"></path><path d="M232 152.27h-56l-5.125-12.887s5.125-3.113 20.25-3.113H232zm0 0" fill="#857e87"></path><g fill="#6f6571"><path d="M40 200.27h56v16H40a8 8 0 0 1 0-16zM296 200.27h56v16h-56a8 8 0 0 1 0-16zM40 328.27h56v16H40a8 8 0 0 1 0-16zm0 0" fill="#6f6571"></path></g><path d="M80 408.27v-248H64v248H24v16h96v-16zm0 0" fill="#4b3f4e"></path><path d="M136 440.27a7.974 7.974 0 0 1-5.656-2.344L72 379.582l-58.344 58.344c-3.125 3.125-8.187 3.125-11.312 0s-3.125-8.188 0-11.313l64-64a7.997 7.997 0 0 1 11.312 0l64 64a7.997 7.997 0 0 1 0 11.313A7.974 7.974 0 0 1 136 440.27zm0 0" fill="#5d5360"></path><path d="M232 120.27h-56l-7.832-8 7.832-8h56a8 8 0 0 1 0 16zM232 184.27h-56l-8-8 8-8h56a8 8 0 0 1 0 16zm0 0" fill="#857e87"></path><path d="M136 104.27h40v16h-40a8 8 0 0 1 0-16zm0 0" fill="#6f6571"></path><path d="M344 120.27h-40l-5.668-8 5.668-8h40a8 8 0 0 1 0 16zm0 0" fill="#857e87"></path><path d="M264 104.27h40v16h-40a8 8 0 0 1 0-16zm0 0" fill="#6f6571"></path><path d="M344 168.27h-40l-6.832-8 6.832-8h40a8 8 0 0 1 0 16zm0 0" fill="#857e87"></path><path d="M264 152.27h40v16h-40a8 8 0 0 1 0-16zM136 168.27h40v16h-40a8 8 0 0 1 0-16zM192 136.27h-56v16h40c0-8.836 7.164-16 16-16zm0 0" fill="#6f6571"></path><path d="M368 320.27c0 61.855-50.145 112-112 112s-112-50.145-112-112 50.145-112 112-112 112 50.144 112 112zm0 0" fill="#857e87"></path><path d="M349 320.27c0 29.562-10.363 56.007-31.383 73.617-16.672 13.968-38.164 22.383-61.617 22.383-53.02 0-96-42.98-96-96 0-23.458 8.41-44.946 22.383-61.622 17.61-21.015 44.054-30.515 73.617-30.515 53.02 0 93 39.117 93 92.137zm0 0" fill="#6f6571"></path><path d="M256 224.27c-29.563 0-56.008 13.363-73.617 34.378C199.055 244.68 220.547 236.27 244 236.27c53.02 0 96 42.98 96 96 0 23.453-8.414 44.945-22.383 61.617C338.637 376.277 352 349.836 352 320.27c0-53.02-42.98-96-96-96zm0 0" fill="#5d5360"></path></g></svg>