<svg viewBox="0 0 512 512" xmlns="http://www.w3.org/2000/svg"><g><path clip-rule="evenodd" d="M227.568 297.103c67.466 0 122.515-55.163 122.515-122.825 0-67.663-55.049-122.854-122.515-122.854-67.493 0-122.515 55.191-122.515 122.854 0 67.662 55.022 122.825 122.515 122.825z" fill="#78c2a4" fill-rule="evenodd"></path><path clip-rule="evenodd" d="M227.568 297.103c67.664 0 122.515-54.992 122.515-122.825 0-40.366-19.418-76.195-49.409-98.589 15.336 20.523 24.407 45.978 24.407 73.587 0 67.833-54.851 122.825-122.515 122.825-27.412 0-52.725-9.014-73.135-24.264 22.366 29.905 57.998 49.266 98.137 49.266z" fill="#66b394" fill-rule="evenodd"></path><path d="M274 252.74c0-4.139 3.345-7.512 7.484-7.512s7.512 3.373 7.512 7.512v73.616c0 4.139-3.373 7.512-7.512 7.512S274 330.495 274 326.356zm0 100.687c0-4.167 3.345-7.512 7.484-7.512s7.512 3.345 7.512 7.512v36.17c0 4.139-3.373 7.512-7.512 7.512S274 393.736 274 389.597zM470.869 252.74a7.507 7.507 0 0 1 7.512-7.512c4.139 0 7.483 3.373 7.483 7.512v73.616c0 4.139-3.345 7.512-7.483 7.512a7.507 7.507 0 0 1-7.512-7.512zm0 100.687a7.489 7.489 0 0 1 7.512-7.512c4.139 0 7.483 3.345 7.483 7.512v36.17c0 4.139-3.345 7.512-7.483 7.512a7.507 7.507 0 0 1-7.512-7.512z" fill="#917d52"></path><g clip-rule="evenodd" fill-rule="evenodd"><path d="M274 262.576h211.864v36.737H274z" fill="#b2a17d"></path><path d="M260.337 353.427h239.162c2.749 0 5.017-2.268 5.017-5.017v-17.037c0-2.749-2.268-5.017-5.017-5.017H260.337c-2.749 0-4.989 2.268-4.989 5.017v17.037c0 2.749 2.239 5.017 4.989 5.017zM274 280.747h211.637v18.396H274z" fill="#a39474"></path></g><path d="M220.056 174.277c0-4.139 3.373-7.512 7.512-7.512s7.484 3.374 7.484 7.512v42.661l27.354-21.657c3.26-2.551 7.937-2.012 10.488 1.219a7.445 7.445 0 0 1-1.219 10.488l-36.624 28.999v148.875c0 4.139-3.345 7.484-7.484 7.484s-7.512-3.345-7.512-7.484V174.277z" fill="#917d52"></path><path clip-rule="evenodd" d="M99.242 319.326c50.514 0 91.73-41.188 91.73-91.73 0-50.513-41.216-91.729-91.73-91.729-50.543 0-91.73 41.216-91.73 91.729 0 50.543 41.188 91.73 91.73 91.73z" fill="#b3e59f" fill-rule="evenodd"></path><path clip-rule="evenodd" d="M99.242 319.326c50.656 0 91.73-41.046 91.73-91.73 0-31.72-16.101-59.669-40.593-76.138 9.836 14.598 15.591 32.201 15.591 51.137 0 50.684-41.075 91.729-91.73 91.729-18.936 0-36.539-5.726-51.166-15.562 16.47 24.463 44.448 40.564 76.168 40.564z" fill="#95d6a4" fill-rule="evenodd"></path><path d="m106.726 255.546 17.348-13.72a7.445 7.445 0 0 1 10.488 1.219c2.58 3.231 2.012 7.937-1.219 10.488l-26.617 21.062v110.268c0 4.139-3.345 7.484-7.484 7.484s-7.512-3.345-7.512-7.484V227.597c0-4.138 3.373-7.483 7.512-7.483s7.484 3.345 7.484 7.483z" fill="#917d52"></path><path clip-rule="evenodd" d="M37.843 460.576h436.313c20.807 0 37.843-17.036 37.843-37.871 0-20.806-17.037-37.843-37.843-37.843H37.843C17.037 384.863 0 401.899 0 422.706c0 20.834 17.037 37.87 37.843 37.87z" fill="#95d6a4" fill-rule="evenodd"></path><path clip-rule="evenodd" d="M0 422.706c0 20.834 17.037 37.871 37.843 37.871h436.313c20.807 0 37.843-17.036 37.843-37.871 0-4.365-.737-8.589-2.126-12.501-5.188 14.74-19.276 25.37-35.717 25.37H37.843c-16.441 0-30.501-10.63-35.717-25.37A38.088 38.088 0 0 0 0 422.706z" fill="#78c2a4" fill-rule="evenodd"></path></g></svg>