<svg viewBox="0 0 50 50" xmlns="http://www.w3.org/2000/svg"><g><path d="m48.515 36.87-.01 3.629c0 .09-.02.18-.05.24-.03.07-.07.12-.13.15l-2.09 1.22c0-.01.01-.02.01-.02-.11.08-.27.07-.44-.03l-7.75-4.47-.01.8c0 .19-.13.39-.39.55l-3.21 1.86c-.53.3-1.38.3-1.9 0l-3.47-2-6.52 3.79-3.48 4.99-3.62-.86-1.87 1.09-4.5-2.6-5.84-1.38.99-1.42-2.76-1.59 6.54-3.81 3.5-4.99 3.62.85 1.87-1.08 4.47 2.58 1.97.47v-.5c0-.2.13-.4.39-.55l2.71-1.57v-1.28l-2.87-1.65c-.35.77-.86 1.36-1.5 1.73l-1.04.6.16-.13c-1.29.98-3.2.97-5.33-.26-1.84-1.06-3.5-2.84-4.75-4.89l-4.99 2.88-.9 1.88-3.56 2.06 1.14-2.39-1.15-1.05 3.56-2.06.91.82 4.67-2.69c-1.2-2.14-1.94-4.53-1.93-6.69.01-2.24.81-3.81 2.1-4.53l1.16-.68c1.27-.74 3.04-.64 5 .49.12.07.24.16.37.23l.03-11.47c0-.37.12-.63.32-.78l.02-.02c.03-.02.06-.03.09-.05l2.02-1.2c.23-.14.56-.12.92.09l26.25 15.16c.71.41 1.28 1.41 1.28 2.24l-.04 18.29h.03z" fill="#e4e8f4"></path><path d="m37.166 49 6.1-3.544V43.63l-6.14-3.545-6.1 3.545v1.826z" fill="#e4e8f4"></path><path d="m38.052 37.505-.005.88c0 .195-.13.395-.395.552L34.448 40.8c-.53.303-1.383.303-1.908 0l-8.7-5.02c-.264-.156-.4-.356-.4-.562l.006-.88c0 .205.13.405.395.561l8.7 5.02c.529.303 1.383.303 1.907 0l3.21-1.864c.264-.157.394-.357.394-.551z" fill="#474b59"></path><path d="M37.655 36.948c.527.305.53.799.002 1.105l-3.208 1.865c-.528.307-1.38.307-1.908.002l-8.698-5.022c-.528-.304-.534-.8-.006-1.107l3.208-1.865c.528-.306 1.384-.304 1.912 0z" fill="#5b5e71"></path><path d="m35.152 32.142-.002 5.521-1.195.695.002-5.521z" fill="#bac1ce"></path><path d="m33.957 32.837-.002 5.52-7.41-4.278.001-5.521z" fill="#d4dae8"></path><path d="m35.152 32.142-1.195.695-7.411-4.28 1.194-.693z" fill="#e4e8f4"></path><path d="m46.414 38.088-.01 3.629a.554.554 0 0 1-.046.243c-.089.197-.305.247-.558.1L18.163 26.105c-.247-.142-.462-.441-.55-.74a.998.998 0 0 1-.05-.298l.01-3.628z" fill="#e4e8f4"></path><path d="m48.512 36.872-.01 3.629c0 .089-.02.178-.05.238a.276.276 0 0 1-.129.148l-2.091 1.22c.05-.03.099-.08.129-.15a.57.57 0 0 0 .04-.237l.01-3.628z" fill="#bac1ce"></path><path d="m45.416 18.909-.05 17.358-26.732-15.434.05-17.358z" fill="#e4e8f4"></path><path d="m48.53 18.574-.05 18.298-2.101 1.22.06-18.299c0-.822-.576-1.823-1.29-2.24L18.893 2.398a.982.982 0 0 0-.977-.024l2.156-1.284c.238-.139.565-.119.922.09l26.248 15.155c.714.417 1.289 1.417 1.289 2.24z" fill="#3f434f"></path><path d="M45.179 17.555c.715.413 1.289 1.415 1.287 2.236l-.052 18.297-28.84-16.65.052-18.297c.002-.822.586-1.155 1.301-.742zm.188 18.712.049-17.358L18.683 3.475l-.049 17.358z" fill="#525566"></path><path d="M30.254 29.762c.557.322.996 1.092.994 1.722-.002.64-.444.892-1 .57-.55-.316-.997-1.081-.995-1.722.002-.63.452-.887 1-.57z" fill="#bac1ce"></path><path d="m27.34 35.76-8.27 11.814-15.827-3.743 8.27-11.814z" fill="#cad0dd"></path><path d="m29.113 38.783-15.53 9.025L1.47 40.815 17 31.79z" fill="#e4e8f4"></path><path d="M8.522 41.202v.326h-.094l-.002-.195v-.075l-.036.001-.868.02-.15.003-.001-.015-.003-.078-.02-.433-.003-.074-.001-.027-.004-.082-.018-.407-.003-.073H5.312v-.09l-.003-.475V39.5l.087.003v.027l.007.472v.037h2.008l.003.073.023.516.003.082.023.502v.016l.106-.003.732-.018.132-.003z" fill="#ed435c"></path><path d="M7.038 41.535h-.084v-.026l.417-.242v.015l.151-.003.436.251.45-.261-.018-.01h.036v.074l-.339.197-.257.001-.394-.227zM12.4 41.485l-.17.098-5.302-3.06.17-.099z" fill="#cad0dd"></path><path d="m10.532 41.913-.166.022-.333.195-.188-.109-.108.015.231.137-.188.109.152-.015.101-.058.072.044.116-.015-.123-.072zm0 0-.166.022-.333.195-.188-.109-.108.015.231.137-.188.109.152-.015.101-.058.072.044.116-.015-.123-.072zm0 0-.166.022-.333.195-.188-.109-.108.015.231.137-.188.109.152-.015.101-.058.072.044.116-.015-.123-.072zm0 0-.166.022-.333.195-.188-.109-.108.015.231.137-.188.109.152-.015.101-.058.072.044.116-.015-.123-.072zm0 0-.166.022-.333.195-.188-.109-.108.015.231.137-.188.109.152-.015.101-.058.072.044.116-.015-.123-.072zm1.121-.043-.065-.044-.455-.26-.066-.037-.455-.26-.065-.043-.456-.26-.065-.037-.456-.26-.065-.044-.456-.26-.065-.036-.448-.26-.065-.037-.456-.267-.065-.036-.463-.268-.065-.036-.448-.26-.065-.037-.521-.303-.521.303-.065.036-.449.26-.065.044-.455.26-.058.037-.456.267-.065.036-.463.268h.13l.398-.232.405.232h.16l-.008.094.42.239-.42.246-.014.007h.115l.376-.217.391.224h.13l-.455-.26.455-.268.456.268-.449.26h.123l.391-.224.405.231h.16v.094l.411.24-.007-.08-.383-.225.369-.21-.007-.072-.427.246-.456-.26.449-.26.434.245v-.08l-.362-.209.34-.195v-.08l-.405.239-.405-.239h-.232l-.405.239-.405-.239H5.31v-.087l-.412-.238.412-.24v-.02h.087v.028l.412.232-.405.238v.036h.065l.405-.23.405.23h.217l.413-.238.412.238h.087l.007.073.014-.008.456.261-.448.26.007.087.441.253-.42.246v.015h.102L7.95 41l.354.21.13-.007-.419-.239.456-.26.456.26-.406.24v.13l.333.194.138-.007-.449-.253.449-.268.448.268-.441.253h.08v.029l.426-.246.463.26-.456.261-.434-.253-.007.08.376.217-.39.223.18-.028.275-.16.152.095.109-.022-.196-.108.449-.268.456.26h.029l.021.05.022-.006.448.26.03-.007.014.05.021-.007.456.268-.448.26-.456-.267.427-.254-.145.015-.347.202-.253-.144-.116.014.304.174-.456.26-.448-.26.238-.138-.152.015-.151.087-.109-.065-.116.007.16.094-.456.26-.456-.26.036-.022-.144.015v-.058l-.413-.24.413-.238-.008-.123-.376-.217h-.188l-.426.246-.42-.246h-.152V41.5l-.398-.23.398-.233v-.043h-.05l-.413.239-.426-.246-.189-.007-.426.246-.434-.246-.167-.007-.434.253-.455-.26.455-.261.434.253.008-.072-.376-.217.397-.232v-.043h-.058l-.405.239-.42-.246h-.115v-.05l-.05.028-.521.304.52.296.066.036.455.268.065.036.456.26.065.037.456.268.065.036.456.26.065.036.455.268.065.036.449.26.065.037.456.267.065.036.463.26.058.044.455.26.065.037.521.303.52-.303.066-.037.448-.26.065-.043.456-.26.058-.037.456-.26.065-.044.448-.26.065-.036.521-.304zm-5.265-1.766.455.261-.448.26-.456-.26zm-1.027 0 .448.261-.456.268-.448-.268zm-.065-.036-.456.26-.456-.26.449-.267zm-1.946.6.456-.267.455.268-.455.26zm6.17 1.838.448.26-.448.268-.456-.26zm-.065.564-.449.26-.456-.26.449-.26zm-.977-.564.456.268-.449.26-.455-.268zm-.065-.036-.448.26-.456-.267.448-.26zm-.456-.868.456.268-.456.26-.455-.26zm-.065.564-.448.26-.456-.26.449-.26zm-.976-.564.455.268-.448.26-.456-.26zm-.065-.036-.449.26-.448-.26.448-.26zM5.88 41l.456.268-.448.26-.463-.26zm-1.49.268.449-.268.463.268-.456.26zm.521.297.456-.26.456.26-.456.267zm.97.564-.449-.26.456-.268.448.268zm.065.036.455-.26.456.26-.449.268zm.528.304.448-.268.456.26-.456.268zm.513.296.456-.26.455.26-.455.268zm.52.304.457-.267.455.267-.455.26zm.522.297.455-.26.456.26-.456.267zm.976.564-.456-.26.456-.268.456.267zm.52-.297-.455-.267.449-.26.455.26zm.514-.304-.455-.26.448-.267.463.267zm.514-.296-.456-.268.449-.26.463.268zm-4.166-4.13.455.26-.455.268-.456-.268zm-.97.557.449-.26.456.267-.449.26zm.977.564-.456-.26.449-.26.455.26zm.058-.557.456-.268.455.261-.455.268zm.52.297.456-.26.456.26-.456.267zm.521.303.456-.267.456.267-.456.26zm.463.861-.455-.26.448-.26.456.26zm.058-.564.456-.26.448.26-.448.268zm.52.304.45-.268.462.268-.455.26zm.522.296.448-.26.456.26-.456.26zm.513.304.456-.268.456.268-.456.26zm.521.297.456-.26.455.26-.448.267zm.52.304.456-.268.456.268-.456.26zm.977.564-.455-.268.455-.26.456.26zm-1.555-.304-.188-.109-.108.015.231.137-.188.109.152-.015.101-.058.072.044.116-.015-.123-.072.434-.253-.166.022zm.5-.217-.167.022-.333.195-.188-.109-.108.015.231.137-.188.109.152-.015.101-.058.072.044.116-.015-.123-.072zm0 0-.167.022-.333.195-.188-.109-.108.015.231.137-.188.109.152-.015.101-.058.072.044.116-.015-.123-.072zm0 0-.167.022-.333.195-.188-.109-.108.015.231.137-.188.109.152-.015.101-.058.072.044.116-.015-.123-.072zm0 0-.167.022-.333.195-.188-.109-.108.015.231.137-.188.109.152-.015.101-.058.072.044.116-.015-.123-.072z" fill="#cad0dd"></path><path d="m10.51 41.86.023.052-.165.026-.52.083-.109.017-.628.1-.165.027.004-.062.033-.494.001-.028h-.083l-.379.002H8.43l-.378.001-.188.001-.845.003h-.156l.001-.089.005-.464v-.043h-.054l-.841-.007-.186-.002-.86-.006-.167-.001v-.021l.004-.072.023-.447.002-.044h-.055l-.828-.005h-.111l-.005-.051h.128l.806.002h.157l-.003.089-.017.49.118.006.768.006.13.001.129.001.795.006.159.001v.09l-.006.48v.028h.084l.792-.005.257-.001.341-.002h.094l.33-.002h.137l.092-.001-.002.028-.002.023-.004.077-.026.442.19-.03.43-.069.107-.017.707-.114z" fill="#6eba6e"></path><path d="m8.932 42.167-.409-.236v-.13l.378-.22h.083l-.001.028-.444.257.411.237-.004.062.165-.027-.05.03.27.155-.11.01-.224-.128-.308.179-.154.014z" fill="#cad0dd"></path><path d="m11.031 42.162.014.05-.143.014-.6.057-.118.012-.36.034-.154.014-.26.025-.111.01-.72.07-.142.013v-.054l-.005-.478-.001-.126-.002-.22h.093v.218l.001.13v.468h.012l.154-.015.531-.05.11-.011.448-.042.154-.015.174-.016.118-.012.776-.073z" fill="#ed435c"></path><path d="m18.622 43.951-.17.099L7.9 37.958l.17-.1zM18.136 44.234l-.17.098L7.414 38.24l.17-.098z" fill="#cad0dd"></path><path d="m11.023 44.076-.688.4-.083-.048.688-.4zM11.97 43.842l-1.362.792-.083-.048 1.362-.792zM13.81 43.41l-2.653 1.54-.087-.05 2.651-1.54z" fill="#f9bb4a"></path><path d="m12.958 45.194-.688.4-.087-.051.688-.4zM13.905 44.959l-1.362.792-.088-.051 1.363-.792z" fill="#8facfc"></path><path d="m12.731 42.47-3.204 1.859 4.282 2.473 3.204-1.858zm1.07 4.18-4.007-2.314 2.944-1.714 4.014 2.314z" fill="#cad0dd"></path><path d="m13.156 43.474-2.271 1.32-.088-.051 2.271-1.32zM13.325 44.007l-1.895 1.101-.083-.048 1.894-1.1zM12.987 44.519l-1.285.746-.083-.048 1.285-.746z" fill="#f9bb4a"></path><path d="m15.086 44.588-2.27 1.32-.084-.048 2.271-1.32zM15.74 44.524l-2.652 1.541-.083-.048 2.651-1.54zM15.26 45.124l-1.895 1.101-.088-.05 1.895-1.101zM14.922 45.636l-1.285.747-.087-.051 1.284-.747z" fill="#8facfc"></path><path d="M20.354 40.297c-.668.316-1.489.509-2.347.554L18 39.628a3.41 3.41 0 0 0 .857-.196z" fill="#ddaf9b"></path><path d="M21.977 38.514c-.075.557-.462 1.084-1.104 1.5l-1.487-.859c.254-.184.424-.403.485-.638z" fill="#ed435c"></path><path d="m17.303 35.76.007 1.218c-1.165.072-2.056.638-2.052 1.33.007.36.248.697.686.95.376.216.86.352 1.38.382l.007 1.217c-1.081-.036-2.087-.298-2.859-.744-.834-.482-1.3-1.123-1.304-1.804-.008-1.35 1.826-2.47 4.135-2.548z" fill="#576cfb"></path><path d="M21.204 36.86c.444.37.706.792.77 1.244h-2.1c-.037-.13-.1-.25-.19-.361z" fill="#75ca75"></path><path d="m20.75 36.538-1.478.858-.052-.036a3.105 3.105 0 0 0-1.234-.37l-.007-1.223c1.024.057 1.983.316 2.713.738z" fill="#f9bb4a"></path><path d="M16.005 17.874c2.535 1.463 4.594 5.022 4.585 7.942-.008 2.913-2.08 4.094-4.615 2.63s-4.594-5.03-4.585-7.942c.008-2.92 2.08-4.094 4.615-2.63zm-.026 9.172c1.863 1.076 3.387.207 3.393-1.934.006-2.147-1.508-4.769-3.371-5.845-1.869-1.078-3.392-.21-3.398 1.937-.007 2.14 1.507 4.763 3.376 5.842" fill="#ed435c"></path><path d="M16.009 16.48c3.207 1.852 5.805 6.351 5.794 10.036-.01 3.679-2.625 5.175-5.832 3.324-3.207-1.852-5.805-6.358-5.794-10.036.01-3.685 2.625-5.175 5.832-3.324zm-.034 11.966c2.535 1.464 4.607.283 4.615-2.63.009-2.92-2.05-6.479-4.585-7.942-2.535-1.464-4.607-.29-4.615 2.63-.009 2.913 2.05 6.478 4.585 7.942" fill="#e8f1fa"></path><path d="M24.221 26.52c-.009 2.207-.787 3.765-2.045 4.5l-1.207.702c1.258-.735 2.037-2.293 2.045-4.51.018-4.458-3.123-9.892-7-12.134-1.95-1.13-3.722-1.232-4.997-.487l1.207-.702c1.275-.744 3.038-.642 4.997.488 3.877 2.242 7.017 7.675 7 12.142z" fill="#f76d8e"></path><path d="M16.013 15.08c3.879 2.24 7.016 7.673 7.003 12.136-.013 4.458-3.17 6.257-7.049 4.017-3.885-2.242-7.016-7.672-7.003-12.13.012-4.463 3.164-6.266 7.049-4.023zm-.042 14.76c3.207 1.851 5.822.355 5.832-3.324.01-3.685-2.587-8.184-5.794-10.036-3.207-1.851-5.822-.361-5.832 3.324-.01 3.678 2.587 8.184 5.794 10.036" fill="#ed435c"></path><path d="M15.997 20.661c-1.197-.69-2.178-.131-2.182 1.243-.003 1.375.971 3.057 2.168 3.748 1.196.691 2.172.135 2.176-1.24.004-1.375-.965-3.06-2.162-3.75z" fill="#ed435c"></path><path d="M16.001 19.267c1.863 1.076 3.377 3.698 3.37 5.845-.005 2.141-1.529 3.01-3.392 1.934-1.869-1.079-3.383-3.701-3.376-5.842.006-2.147 1.53-3.015 3.398-1.937zm-.018 6.385c1.196.691 2.172.135 2.176-1.24.004-1.375-.965-3.06-2.162-3.75-1.196-.692-2.178-.132-2.182 1.242-.003 1.375.971 3.057 2.168 3.748" fill="#e8f1fa"></path><path d="m5.315 27.658.912.824 9.437-5.45c.178-.102.323-.013.323.185a.694.694 0 0 1-.32.549l-9.438 5.448-.904 1.885-3.562 2.056 1.144-2.386-1.154-1.054z" fill="#363a44"></path><path d="m27.376 14.248-.03 10.454-1.755-1.014.03-10.454z" fill="#37617b"></path><path d="m30.838 18.51-.023 8.196-1.76-1.017.023-8.196z" fill="#5b5e71"></path><path d="m34.294 23.48-.015 5.227-1.756-1.015.014-5.227z" fill="#6eba6e"></path><path d="m37.767 22.273-.024 8.435-1.756-1.014.024-8.435z" fill="#4562ef"></path><path d="m41.24 21.029-.033 11.68-1.756-1.014.033-11.68z" fill="#efac41"></path><path d="m44.712 20.176-.04 14.535-1.757-1.015.041-14.535z" fill="#ed435c"></path><path d="m43.267 44.997-.001.458-6.1 3.545v-.459z" fill="#e5a03c"></path><path d="m37.167 48.541-.001.46-6.14-3.545.001-.46z" fill="#efac41"></path><path d="m43.267 44.997-6.1 3.544-6.14-3.544 6.1-3.545z" fill="#f9bb4a"></path><path d="m43.267 44.541-.001.459-6.1 3.545v-.46z" fill="#e63044"></path><path d="m37.167 48.086-.001.459L31.026 45l.001-.459z" fill="#ed435c"></path><path d="m43.267 44.541-6.1 3.545-6.14-3.545 6.1-3.545z" fill="#f25574"></path><path d="m43.267 44.085-.001.46-6.1 3.544v-.459z" fill="#65aa65"></path><path d="m37.167 47.63-.001.46-6.14-3.546.001-.458z" fill="#6eba6e"></path><path d="m43.267 44.085-6.1 3.545-6.14-3.544 6.1-3.545z" fill="#75ca75"></path><path d="m43.267 43.63-.001.459-6.1 3.545v-.46z" fill="#3c5dd6"></path><path d="m37.167 47.175-.001.459-6.14-3.545.001-.459z" fill="#4562ef"></path><path d="m43.267 43.63-6.1 3.545-6.14-3.545 6.1-3.545z" fill="#576cfb"></path><path d="m38.465 41.674-.371.215-1.421-.82.37-.216zM41.1 44.276l-.375.218-1.426-.823.375-.218zM37.532 42.216l-.375.218-1.422-.821.375-.218zM36.594 42.76l-.37.216-1.422-.82.371-.216zM39.318 43.247l-.375.218-1.426-.823.375-.218zM35.661 43.303l-.375.218-1.421-.821.375-.218zM38.38 43.792l-.37.215-1.426-.823.371-.215zM37.447 44.334l-.375.218-1.425-.823.375-.218zM39.827 42.46l-.37.216-1.002-.579.37-.215zM41.56 43.46l-.372.216-.952-.55.371-.216zM39.23 45.363l-.376.218-1.425-.823.375-.218zM40.163 44.82l-.371.216-1.426-.823.371-.216z" fill="#3c5dd6"></path></g></svg>