<svg viewBox="0 0 512 512" xmlns="http://www.w3.org/2000/svg"><g><path d="M19.476 354.768c-5.373 0-9.725-4.355-9.736-9.725l-.283-176.154c-.02-16.527 3.443-32.527 10.307-47.567 6.868-15.03 16.694-28.129 29.189-38.935l31.424-27.149c4.063-3.515 10.212-3.075 13.734.998 3.515 4.068 3.064 10.222-.998 13.734L61.686 97.122c-10.371 8.963-18.514 19.822-24.205 32.292-5.688 12.465-8.561 25.736-8.543 39.444l.279 176.154c.015 5.373-4.344 9.741-9.72 9.756h-.021zM492.523 354.768c5.373 0 9.736-4.355 9.741-9.725l.279-176.154c.031-16.53-3.438-32.527-10.307-47.567-6.858-15.03-16.678-28.129-29.179-38.935l-31.424-27.149c-4.068-3.515-10.222-3.075-13.734.998-3.523 4.068-3.069 10.222.998 13.734l31.414 27.149c10.371 8.963 18.514 19.822 24.205 32.292 5.699 12.465 8.566 25.736 8.548 39.444l-.279 176.154c-.01 5.373 4.339 9.741 9.715 9.756l.023.003zM211.804 354.783c7.148-17.393 24.261-29.678 44.198-29.678 19.942 0 37.056 12.285 44.203 29.678h20.552c-7.923-28.324-33.943-49.157-64.755-49.157-30.807 0-56.829 20.833-64.745 49.157h20.547z" fill="#283a4d"></path><path d="M9.741 345.037a9.693 9.693 0 0 0-6.881 2.86A9.657 9.657 0 0 0 0 354.778c0 2.488.95 4.987 2.86 6.886a9.702 9.702 0 0 0 6.881 2.839h9.736v-19.471H9.741v.005zM502.264 345.037c2.493 0 4.992.955 6.886 2.86a9.645 9.645 0 0 1 2.849 6.881c0 2.488-.94 4.987-2.849 6.886-1.894 1.9-4.393 2.839-6.886 2.839h-9.741v-19.471h9.741v.005z" fill="#283a4d"></path><circle cx="388.634" cy="354.788" fill="#34495e" r="104.34"></circle><circle cx="388.634" cy="354.788" fill="#cdd3da" r="84.864"></circle><circle cx="388.634" cy="354.788" fill="#e6eaee" r="77.21"></circle><circle cx="123.366" cy="354.788" fill="#34495e" r="104.346"></circle><path d="M208.236 354.783c0 46.871-37.98 84.861-84.861 84.861-46.871 0-84.861-37.99-84.861-84.861s37.99-84.861 84.861-84.861c46.885-.005 84.861 37.99 84.861 84.861z" fill="#cdd3da"></path><circle cx="123.366" cy="354.788" fill="#e6eaee" r="77.21"></circle><ellipse cx="95.144" cy="326.591" fill="#ffffff" rx="25.175" ry="30.249" transform="rotate(-134.991 95.144 326.593)"></ellipse><ellipse cx="360.424" cy="326.593" fill="#ffffff" rx="25.175" ry="30.249" transform="rotate(-134.991 360.425 326.595)"></ellipse></g></svg>