<svg viewBox="0 0 512.001 512.001" xmlns="http://www.w3.org/2000/svg"><g><path d="m167.958 156.312-52.067.073-.143-87.741a4.445 4.445 0 0 1 4.438-4.451l43.178-.06a4.445 4.445 0 0 1 4.451 4.438l.143 87.741z" fill="#ffb125"></path><path d="M167.816 68.571a4.443 4.443 0 0 0-4.451-4.438l-25.743.036c2.283.184 4.086 2.072 4.089 4.402l.143 87.74-25.962.036v.036l52.067-.073-.143-87.739z" fill="#ff901d"></path><path d="M254.058 62.542 114.586 193.929l.279 199.739c.007 5.269 4.285 9.534 9.554 9.527l260.228-.363c5.269-.007 9.534-4.285 9.527-9.554l-.279-199.739L254.058 62.542z" fill="#e1effb"></path><path d="M393.895 193.539 254.058 62.542 231.06 84.207l116.71 109.331.279 199.739a9.541 9.541 0 0 1-9.527 9.554h46.125c5.269-.008 9.535-4.285 9.527-9.554l-.279-199.738z" fill="#ccdfed"></path><path d="M443.094 237.552a19.11 19.11 0 0 1-13.135-5.183L254.06 67.592 78.623 232.86c-7.71 7.264-19.85 6.901-27.111-.809-7.264-7.71-6.902-19.848.809-27.111L240.872 27.317c7.371-6.945 18.873-6.961 26.264-.037l189.047 177.095c7.731 7.241 8.127 19.379.884 27.109a19.13 19.13 0 0 1-13.973 6.068z" fill="#ff4c4c"></path><path d="M457.067 208.416a19.13 19.13 0 0 1-13.974 6.067 19.114 19.114 0 0 1-13.135-5.183L254.06 44.523 78.623 209.79c-7.71 7.264-19.85 6.901-27.111-.809a19.329 19.329 0 0 1-1.349-1.605c-5.526 7.325-5.156 17.771 1.349 24.674 7.261 7.71 19.401 8.073 27.111.809L254.06 67.592l175.898 164.777a19.115 19.115 0 0 0 13.135 5.183 19.13 19.13 0 0 0 13.974-6.067c6.472-6.908 6.826-17.327 1.314-24.635a19.25 19.25 0 0 1-1.314 1.566z" fill="#f33939"></path><path d="m290.137 227.206-71.698.1a6.092 6.092 0 0 0-6.083 6.1l.237 169.666 83.881-.117-.237-169.666a6.091 6.091 0 0 0-6.1-6.083z" fill="#2d5871"></path><path d="M296.236 233.288a6.092 6.092 0 0 0-6.1-6.083l-40.508.057a6.094 6.094 0 0 1 4.271 5.805l.237 169.946 42.337-.059-.237-169.666z" fill="#1d4859"></path><path d="m473.085 317.313-105.678 70.725-31.495-1.767-1.233-12.397c-1.835-18.453-16.043-33.263-34.404-35.861l-84.384-9.716a151.225 151.225 0 0 1-55.177-19.204 151.238 151.238 0 0 0-76.366-20.696h-60.84v138.874l160.796 60.891c6.077 1.716 12.459 2.229 18.696 1.244l.112-.018 161.884-23.335a71.638 71.638 0 0 0 33.982-15.226l104.628-94.101c9.39-8.338 11.131-22.351 4.066-32.733-7.73-11.358-23.183-14.343-34.587-6.68z" fill="#fed9a8"></path><path d="m509.051 326.301-103.416 87.052c-9.787 7.982-26.057 13.235-38.528 15.226l-163.995 11.723-.112.018c-6.237.986-12.62.472-18.696-1.244L23.507 378.185v49.087l160.796 60.891a46.074 46.074 0 0 0 9.288 1.635 43.04 43.04 0 0 0 2.354.101 41.108 41.108 0 0 0 7.054-.492l.112-.018 161.884-23.335a71.587 71.587 0 0 0 26.297-9.76 71.613 71.613 0 0 0 7.685-5.467l104.628-94.101c8.712-7.735 10.826-20.351 5.446-30.425z" fill="#f4c892"></path><path d="m348.175 386.981-178.133-7.128a5 5 0 0 1-2.404-.727l-9.462-5.764c-4.602-2.803-2.135-9.9 3.213-9.245l186.786 22.864z" fill="#f4c892"></path><path d="M44.012 474.443H19.94c-11.013 0-19.94-8.928-19.94-19.94V276.364c0-11.013 8.928-19.94 19.94-19.94h24.072c11.013 0 19.94 8.928 19.94 19.94v178.139c0 11.013-8.927 19.94-19.94 19.94z" fill="#2d5871"></path><path d="M44.012 256.424H19.94c-1.354 0-2.674.138-3.952.395 9.119 1.834 15.988 9.886 15.988 19.545v178.139c0 9.659-6.869 17.711-15.988 19.545 1.278.257 2.599.395 3.952.395h24.072c11.013 0 19.94-8.928 19.94-19.94V276.364c0-11.012-8.927-19.94-19.94-19.94z" fill="#1d4859"></path></g></svg>