<svg viewBox="0 0 512.134 512.134" xmlns="http://www.w3.org/2000/svg"><g><path d="m304.988 218.489-16.015 47.792 39.136 23.365c4.568-1.17 9.003-2.067 13.752-3.61 43.916-14.269 78.86-41.016 81.613-42.675l-23.564-72.524-52.915-6.621z" fill="#384949"></path><path d="m212.79 225.98-15.014 50.875 38.61 21.747c3.678-.08 7.349-.17 11.046-.228 25.351-.388 51.372-1.22 80.675-8.728l-23.12-71.157-55.369-24.786z" fill="#b6c4cf"></path><path d="m123.886 243.607-16.533 46.198 39.737 25.217c33.28-13.53 61.28-15.81 89.296-16.421L212.79 225.98l-56.654-19.137z" fill="#4a696f"></path><path d="m44.211 289.638 17.297 53.236c3.13 9.734 14.796 13.439 22.858 7.729l6.669-4.647c20.685-14.393 39.002-24.001 56.056-30.934l-23.204-71.415-49.312-5.399z" fill="#deecf1"></path><path d="m282.274 148.583-15.897 48.157 38.611 21.75c24.786-6.097 52.023-17.76 84.786-40.589l10.135-7.063-22.682-69.809-52.337-6.964z" fill="#b6c4cf"></path><path d="m190.054 156.004-16.419 46.549 39.156 23.427c6.92-.24 13.775-.386 20.571-.492 23.441-.354 46.248-.757 71.626-6.998l-22.714-69.906-55.381-24.821z" fill="#384949"></path><path d="m101.185 173.739-15.614 49.027 38.315 20.841c33.3-13.29 61.883-16.684 88.904-17.628l-22.737-69.976-53.705-19.664z" fill="#deecf1"></path><path d="m21.53 219.832 22.681 69.805 16.063-11.191c23.383-16.298 44.229-27.105 63.612-34.839l-22.702-69.868-53.172-3.127z" fill="#4a696f"></path><path d="m367.342 107.916 9.884-6.887-23.789-73.215c-8.673 3.883-33.462 33.144-94.853 47.86l-19.105 38.284 42.794 34.624c24.852-6.074 52.173-17.75 85.069-40.666z" fill="#384949"></path><path d="m167.146 85.5-17.426 43.45 40.334 27.054c7.027-.248 13.991-.403 20.891-.506 23.355-.359 46.066-.742 71.33-6.915l-23.689-72.909c-19.596 4.698-42.753 7.987-70.524 8.4-7.507.116-13.943.945-20.916 1.426z" fill="#b6c4cf"></path><path d="M190.054 156.004 167.146 85.5c-36.213 2.494-65.978 9.089-88.958 17.46l-15.419 49.63 38.416 21.149c33.286-13.333 61.856-16.777 88.869-17.735z" fill="#4a696f"></path><path d="M101.185 173.739 78.187 102.96c-44.028 16.038-66.612 36.773-71.761 39.004a15.001 15.001 0 0 0-5.71 16.888l20.814 60.98 16.327-11.375c23.267-16.21 44.021-26.984 63.328-34.718z" fill="#deecf1"></path><path d="M353.437 27.814c-7.878 2.56-12.191 11.021-9.631 18.901L482.864 474.69c2.56 7.878 11.023 12.19 18.901 9.631 7.878-2.56 12.19-11.023 9.631-18.901L372.338 37.444c-2.56-7.88-11.022-12.19-18.901-9.63z" fill="#4a696f"></path></g></svg>