<svg viewBox="0 0 512 512" xmlns="http://www.w3.org/2000/svg"><g><path d="M299.15 38.262H256V7.5h43.15a8.121 8.121 0 0 1 8.121 8.121v14.521a8.122 8.122 0 0 1-8.121 8.12z" fill="#fd8087"></path><path d="M256 86.676a7.5 7.5 0 0 1-7.5-7.5V7.5A7.5 7.5 0 0 1 256 0c4.143 0 7.5 3.357 7.5 7.5v71.676a7.5 7.5 0 0 1-7.5 7.5z" fill="#8d9ca8"></path><path d="M40.665 218.042h430.671v247.481H40.665z" fill="#c5d3dd"></path><path d="M286.762 468.679H256V386.9h20.762c5.523 0 10 4.477 10 10z" fill="#c86d36"></path><path d="M225.238 468.679H256V386.9h-20.762c-5.523 0-10 4.477-10 10z" fill="#d77f4a"></path><path d="M440.573 218.042h30.762v247.481h-30.762z" fill="#b6c4cf"></path><path d="M483.844 224.886H28.157a8 8 0 0 1-8-8v-24.122h471.687v24.122a8 8 0 0 1-8 8z" fill="#8d9ca8"></path><path d="M483.844 224.886h-22.762v-32.122h30.762v24.122a8 8 0 0 1-8 8z" fill="#7a8c98"></path><path d="M483.844 458.679H28.157a8 8 0 0 0-8 8v26.898h471.687v-26.898a8 8 0 0 0-8-8z" fill="#8d9ca8"></path><path d="M483.844 458.679h-22.762v34.898h30.762v-26.898a8 8 0 0 0-8-8z" fill="#7a8c98"></path><path d="M358.541 140.803H153.459v-10.254c0-33.979 27.545-61.524 61.524-61.524h82.033c33.979 0 61.524 27.545 61.524 61.524v10.254z" fill="#c5d3dd"></path><path d="M358.541 140.803H153.459v-10.254c0-33.979 27.545-61.524 61.524-61.524h82.033c33.979 0 61.524 27.545 61.524 61.524v10.254z" fill="#c5d3dd"></path><path d="M156.974 110.041a61.409 61.409 0 0 0-3.515 20.508v20.254H358.54v-20.254a61.384 61.384 0 0 0-3.515-20.508zM504 485.339H8a8 8 0 0 0-8 8V504a8 8 0 0 0 8 8h496a8 8 0 0 0 8-8v-10.661a8 8 0 0 0-8-8z" fill="#b6c4cf"></path><path d="M504 485.339h-26.512V512H504a8 8 0 0 0 8-8v-10.661a8 8 0 0 0-8-8z" fill="#9facba"></path><path d="M109.57 294.614H94.808a8 8 0 0 1-8-8v-14.762a8 8 0 0 1 8-8h14.762a8 8 0 0 1 8 8v14.762a8 8 0 0 1-8 8zM171.095 294.614h-14.762a8 8 0 0 1-8-8v-14.762a8 8 0 0 1 8-8h14.762a8 8 0 0 1 8 8v14.762a8 8 0 0 1-8 8zM232.619 294.614h-14.762a8 8 0 0 1-8-8v-14.762a8 8 0 0 1 8-8h14.762a8 8 0 0 1 8 8v14.762a8 8 0 0 1-8 8zM294.143 294.614h-14.762a8 8 0 0 1-8-8v-14.762a8 8 0 0 1 8-8h14.762a8 8 0 0 1 8 8v14.762a8 8 0 0 1-8 8zM355.668 294.614h-14.762a8 8 0 0 1-8-8v-14.762a8 8 0 0 1 8-8h14.762a8 8 0 0 1 8 8v14.762a8 8 0 0 1-8 8zM417.192 294.614H402.43a8 8 0 0 1-8-8v-14.762a8 8 0 0 1 8-8h14.762a8 8 0 0 1 8 8v14.762a8 8 0 0 1-8 8zM109.57 356.138H94.808a8 8 0 0 1-8-8v-14.762a8 8 0 0 1 8-8h14.762a8 8 0 0 1 8 8v14.762a8 8 0 0 1-8 8zM171.095 356.138h-14.762a8 8 0 0 1-8-8v-14.762a8 8 0 0 1 8-8h14.762a8 8 0 0 1 8 8v14.762a8 8 0 0 1-8 8zM232.619 356.138h-14.762a8 8 0 0 1-8-8v-14.762a8 8 0 0 1 8-8h14.762a8 8 0 0 1 8 8v14.762a8 8 0 0 1-8 8zM294.143 356.138h-14.762a8 8 0 0 1-8-8v-14.762a8 8 0 0 1 8-8h14.762a8 8 0 0 1 8 8v14.762a8 8 0 0 1-8 8zM355.668 356.138h-14.762a8 8 0 0 1-8-8v-14.762a8 8 0 0 1 8-8h14.762a8 8 0 0 1 8 8v14.762a8 8 0 0 1-8 8zM355.668 417.663h-14.762a8 8 0 0 1-8-8V394.9a8 8 0 0 1 8-8h14.762a8 8 0 0 1 8 8v14.762a8 8 0 0 1-8 8.001zM417.192 356.138H402.43a8 8 0 0 1-8-8v-14.762a8 8 0 0 1 8-8h14.762a8 8 0 0 1 8 8v14.762a8 8 0 0 1-8 8zM417.192 417.663H402.43a8 8 0 0 1-8-8V394.9a8 8 0 0 1 8-8h14.762a8 8 0 0 1 8 8v14.762a8 8 0 0 1-8 8.001zM156.332 417.663h14.762a8 8 0 0 0 8-8V394.9a8 8 0 0 0-8-8h-14.762a8 8 0 0 0-8 8v14.762a8 8 0 0 0 8 8.001zM94.808 417.663h14.762a8 8 0 0 0 8-8V394.9a8 8 0 0 0-8-8H94.808a8 8 0 0 0-8 8v14.762a8 8 0 0 0 8 8.001z" fill="#8ac9fe"></path><g fill="#9facba"><path d="M249.866 69.024h-28.11c-6.964 7.987-11.197 18.415-11.197 29.819v41.959h15V98.844c.001-14.685 10.453-26.974 24.307-29.82zM301.44 140.803V98.844c0-11.404-4.233-21.832-11.197-29.819h-28.11c13.855 2.846 24.307 15.135 24.307 29.819v41.959z" fill="#9facba"></path></g><path d="M122.697 140.803h266.606v40.762H122.697z" fill="#c5d3dd"></path><path d="M358.541 140.803h30.762v40.762h-30.762z" fill="#b6c4cf"></path><path d="M504 198.226H8a8 8 0 0 1-8-8v-10.661a8 8 0 0 1 8-8h496a8 8 0 0 1 8 8v10.661a8 8 0 0 1-8 8z" fill="#b6c4cf"></path><path d="M504 198.226h-26.512v-26.661H504a8 8 0 0 1 8 8v10.661a8 8 0 0 1-8 8z" fill="#9facba"></path></g></svg>