<svg viewBox="0 0 510.21 510.21" xmlns="http://www.w3.org/2000/svg"><g><path d="M232.85 18.771C203.007.811 170.516-3.465 140.592 2.801L41.994 184.996c16.332 44.634 38.339 45.549 53.617 89.959 16.417 47.716-3.11 67.325 16.665 141.797 14.456 54.439 40.037 87.225 43.502 93.459h78.817V350.836c0-17.614 13.86-31.875 30.938-31.875l18.573-145.751-18.574-145.306c-11.469 0-22.725-3.141-32.682-9.133z" fill="#fff5f5"></path><path d="M497.523 133.378C495.089 31.315 386.11-34.125 298.215 18.771c-9.945 5.984-21.199 9.133-32.682 9.133V318.96c17.061 0 30.938 14.245 30.938 31.875V510.21h78.817c3.492-6.283 29.027-38.952 43.501-93.459 19.284-72.622.634-95.199 16.665-141.797 5.683-16.518 14.567-31.836 26.415-44.896 23.011-25.369 36.539-59.524 35.654-96.68z" fill="#ece6f2"></path><path d="M12.647 110.543c0 60.285 49.045 109.333 109.333 109.333l10.626-109.333L121.98 1.21c-60.285 0-109.333 49.045-109.333 109.333z" fill="#b9dd39"></path><path d="M121.98 1.21v218.666c60.285 0 109.334-49.045 109.334-109.333C231.313 50.258 182.268 1.21 121.98 1.21z" fill="#90cc1c"></path><path d="M42.647 110.543c0 43.743 35.587 79.333 79.333 79.333l10.626-79.333L121.98 31.21c-43.743 0-79.333 35.587-79.333 79.333z" fill="#fff5f5"></path><path d="M121.98 31.21v158.666c43.744 0 79.334-35.587 79.334-79.333-.001-43.743-35.588-79.333-79.334-79.333z" fill="#ece6f2"></path><path d="M114.614 116.697 93.401 95.484l-21.213 21.213 42.426 42.426 7.366-7.365 9.126-28.047-9.126-14.381-7.366 7.367z" fill="#b9dd39"></path><path d="M149.416 81.895 121.98 109.33v42.428l48.649-48.649-21.213-21.214z" fill="#90cc1c"></path></g></svg>