<svg viewBox="0 0 512 512" xmlns="http://www.w3.org/2000/svg"><g><path d="m512 449.851-43.411 61.81H240.55v-123.62h228.039z" fill="#9dc6fb"></path><path d="M139.753 287.239c0 55.578 45.214 100.802 100.792 100.802l-123.621 34.614-77.005-34.614c-15.556-30.895-23.787-65.21-23.787-100.802 0-59.946 23.344-116.296 65.725-158.687 42.392-42.391 98.752-65.735 158.687-65.735v123.62c-55.577 0-100.791 45.224-100.791 100.802z" fill="#ffe07d"></path><path d="M464.967 287.239c0 59.946-23.344 116.296-65.735 158.687-42.381 42.392-98.742 65.735-158.687 65.735h-94.837V388.04h94.837c55.588 0 100.802-45.224 100.802-100.802s-45.214-100.802-100.802-100.802l-43.401-61.81 43.401-61.81c59.946 0 116.306 23.344 158.687 65.735 42.392 42.392 65.735 98.742 65.735 158.688z" fill="#a2e19f"></path><path d="M82.891 388.041c-15.556-30.895-23.787-65.21-23.787-100.802 0-59.946 23.344-116.296 65.725-158.687 32.075-32.075 72.149-53.234 115.716-61.638v-4.097c-59.935 0-116.296 23.344-158.687 65.735-42.381 42.392-65.725 98.742-65.725 158.687 0 35.592 8.231 69.907 23.787 100.802l77.005 34.614 26.478-7.414z" fill="#f1cb86"></path><path d="M240.545 186.437c55.588 0 100.802 45.225 100.802 100.802s-45.214 100.802-100.802 100.802h42.972c55.588 0 100.802-45.224 100.802-100.802s-45.214-100.802-100.802-100.802z" fill="#97cf92"></path><path d="m189.119 449.851-43.411 61.81H19.565C8.76 511.661 0 502.902 0 492.096v-84.49c0-10.805 8.76-19.565 19.565-19.565h126.142z" fill="#e28086"></path><path d="M45.06 511.664H19.573C8.767 511.664 0 502.907 0 492.101v-84.495c0-10.796 8.767-19.563 19.573-19.563H45.06c-10.806 0-19.573 8.767-19.573 19.563v84.495c-.001 10.806 8.766 19.563 19.573 19.563z" fill="#dd636e"></path><path d="m497.078 128.801-12.079-5.006c.732-6.424.75-12.967.009-19.524l12.07-4.996c12.327-5.106 18.183-19.24 13.077-31.571-3.853-9.302-12.848-14.916-22.333-14.916-3.079 0-6.214.59-9.238 1.844l-12.066 4.996a86.596 86.596 0 0 0-13.814-13.8l5.001-12.075c5.106-12.331-.746-26.465-13.072-31.571a24.054 24.054 0 0 0-9.238-1.844c-9.481 0-18.481 5.619-22.333 14.921l-5.001 12.079a86.532 86.532 0 0 0-19.524-.009l-5.001-12.07c-5.106-12.327-19.24-18.183-31.567-13.077-9.302 3.853-14.921 12.853-14.921 22.333 0 3.084.59 6.214 1.844 9.238l5.001 12.066a86.596 86.596 0 0 0-13.8 13.814l-12.079-5.001c-12.327-5.106-26.461.746-31.567 13.073a24.073 24.073 0 0 0-1.844 9.238c0 9.485 5.614 18.481 14.921 22.333l12.075 5.001a86.766 86.766 0 0 0-.009 19.524l-12.066 5.001c-12.331 5.106-18.183 19.24-13.077 31.567 3.853 9.302 12.853 14.921 22.333 14.921 3.079 0 6.209-.59 9.234-1.844l12.07-5.001c.055.069.114.142.174.21a.16.16 0 0 1 .023.032 86.074 86.074 0 0 0 13.617 13.557l-5.006 12.079c-5.106 12.327.75 26.461 13.077 31.567a24.054 24.054 0 0 0 9.238 1.844c3.482 0 6.9-.76 10.021-2.183h.005a24.04 24.04 0 0 0 12.304-12.738l5.006-12.075c6.424.727 12.972.75 19.524.009l4.996 12.066c5.106 12.331 19.24 18.183 31.571 13.077 9.302-3.853 14.916-12.848 14.916-22.329 0-3.084-.59-6.214-1.844-9.238l-4.997-12.07a86.773 86.773 0 0 0 13.8-13.809l12.075 5.001c12.331 5.106 26.465-.75 31.571-13.077s-.75-26.46-13.077-31.567zm-98.777 25.816c-22.411 0-40.581-18.17-40.581-40.581s18.17-40.581 40.581-40.581 40.581 18.17 40.581 40.581-18.17 40.581-40.581 40.581z" fill="#4a80aa"></path><g fill="#407093"><path d="M408.565 27.328a86.532 86.532 0 0 1 19.524.009l5.001-12.08a24.078 24.078 0 0 1 12.308-12.738c-.253-.115-.505-.232-.764-.339a24.054 24.054 0 0 0-9.238-1.844c-9.481 0-18.481 5.619-22.333 14.921l-4.747 11.467zM306.475 160.367c-5.106-12.327.746-26.461 13.077-31.567l12.066-5.001a86.824 86.824 0 0 1 .009-19.524l-12.075-5.001c-9.307-3.853-14.921-12.848-14.921-22.333 0-3.079.59-6.214 1.844-9.238a24.062 24.062 0 0 1 12.332-12.744l-.792-.328c-12.327-5.106-26.46.746-31.567 13.072a24.073 24.073 0 0 0-1.844 9.238c0 9.485 5.614 18.481 14.921 22.333l12.075 5.001a86.824 86.824 0 0 0-.009 19.524l-12.066 5.001c-12.331 5.106-18.183 19.24-13.077 31.567 3.853 9.302 12.853 14.921 22.333 14.921 3.079 0 6.209-.59 9.233-1.844l.793-.329a24.066 24.066 0 0 1-12.332-12.748zM433.09 212.813l-4.996-12.066c-6.552.741-13.1.718-19.524-.009l-.254.613 4.747 11.462c5.106 12.331 19.24 18.183 31.571 13.077.26-.108.516-.221.771-.337a24.063 24.063 0 0 1-12.315-12.74zM371.228 225.551a24.17 24.17 0 0 1-10.02 2.183c-3.084 0-6.214-.59-9.238-1.844-12.327-5.106-18.183-19.24-13.077-31.567l5.006-12.079a86.158 86.158 0 0 1-13.617-13.557 2.057 2.057 0 0 0-.197-.243h20.027a86.431 86.431 0 0 0 13.814 13.8l-5.006 12.079c-4.997 12.065.512 25.856 12.308 31.228zM371.228 2.524a24.17 24.17 0 0 0-10.02-2.183c-3.084 0-6.214.59-9.238 1.844-12.327 5.106-18.183 19.24-13.077 31.567l5.006 12.079a86.158 86.158 0 0 0-13.617 13.557 2.057 2.057 0 0 1-.197.243h20.027a86.431 86.431 0 0 1 13.814-13.8l-5.006-12.079c-4.997-12.066.512-25.856 12.308-31.228z" fill="#407093"></path></g></g></svg>