<svg viewBox="0 0 512 512" xmlns="http://www.w3.org/2000/svg"><g><path d="m447.226 312.999-.871-59.358-22.252-16.584-1.642-32.657 14.64-38.577-22.239-38.512-30.429-.484-50.062-20.518 6.425-51.711-54.166-16.414L256 56.609l-51.128 209.476L256 512h20.517l31.117-25.27 36.956 5.687 37.726-19.042 1.931-33.505 22.569-22.57 39.585 30.8h45.959v-83.711z" fill="#9bb324"></path><path d="m243.69 64.014-22.453-21.338V0h-61.258L74.764 64.932 19.64 68.118v69.759l38.572 43.794-31.186 58.322-1.08 22.196L76.933 317.7l6.509 85.16 68.484 53.7v33.691L205.938 512H256V56.609z" fill="#b1cc29"></path><path d="M271 146.085h-15L248.5 262l7.5 115.915h15z" fill="#4d0f0f"></path><path d="M241 146.085h15v231.83h-15z" fill="#661414"></path><path d="M301.574 385.383h30v30h-30z" fill="#b1cc29"></path><path d="M145.447 106.063h30v30h-30zM137.574 341h30v30h-30z" fill="#c7e62e"></path><path d="m241 189.753 15 103.504 68.362 26.445V189.753z" fill="#cc2929"></path><path d="M187.638 189.753v129.949L256 293.257V189.753z" fill="#ff4d4d"></path><path d="M342.234 176.532H256l-8.915 13.221L256 206.532h86.234z" fill="#e5e5e5"></path><path d="M169.766 176.532H256v30h-86.234z" fill="#eeeeee"></path></g></svg>