<svg viewBox="0 0 512 512" xmlns="http://www.w3.org/2000/svg"><g><g clip-rule="evenodd" fill-rule="evenodd"><path d="m334.625 382.52-162.852 9.611-39.691 68.113c-2.111 3.623.743 7.594 4.364 7.594h239.108c3.62 0 6.476-3.971 4.364-7.594z" fill="#292e33"></path><path d="M477.658 44.162c14.213 0 25.842 11.627 25.842 25.842v311.078c0 14.215-11.629 25.842-25.842 25.842H34.342c-14.213 0-25.842-11.627-25.842-25.842V70.004c0-14.215 11.629-25.842 25.842-25.842z" fill="#62a4fb"></path><path d="M477.658 44.162c14.213 0 25.842 11.627 25.842 25.842v294.381H8.5V70.004c0-14.215 11.629-25.842 25.842-25.842z" fill="#e6f8ff"></path><path d="M256 161.133c71.003 0 128.563 57.561 128.563 128.563h63.945c0-106.32-86.188-192.508-192.509-192.508-106.319 0-192.508 86.188-192.508 192.508h63.946c.001-71.003 57.561-128.563 128.563-128.563z" fill="#62a4fb"></path><path d="M159.73 122.949a193.452 193.452 0 0 0-70.474 70.475l55.387 31.979a129.195 129.195 0 0 1 47.065-47.064c18.912-10.941 40.87-17.205 64.291-17.205V97.188c-35.069 0-67.949 9.376-96.269 25.761z" fill="#1980f2"></path><path d="m320.291 178.338 31.979-55.389c-28.32-16.385-61.2-25.761-96.27-25.761s-67.95 9.377-96.27 25.762l31.979 55.389c18.912-10.941 40.87-17.205 64.291-17.205s45.38 6.262 64.291 17.204z" fill="#fad808"></path><path d="m367.357 225.402 55.388-31.979C388.252 133.811 324.883 97.188 256 97.188v63.945c46.002 0 88.321 24.459 111.357 64.269z" fill="#fcbc04"></path><path d="M422.745 193.424a193.48 193.48 0 0 0-70.476-70.475l-31.979 55.389a129.22 129.22 0 0 1 47.066 47.064c10.942 18.912 17.206 40.871 17.206 64.293h63.945c.002-35.07-9.376-67.951-25.762-96.271z" fill="#eb3b48"></path><path d="M448.509 289.695c0-35.07-9.378-67.951-25.764-96.271l-55.388 31.979c10.942 18.912 17.206 40.871 17.206 64.293h63.946z" fill="#ee0033"></path><path d="M299.326 231.945c3.982-3.984 10.441-3.984 14.425 0 3.982 3.982 3.982 10.441 0 14.424-16.725 16.725-33.447 33.449-50.172 50.172-3.982 3.982-10.441 3.982-14.425 0-3.982-3.982-3.982-10.441 0-14.424l50.172-50.172z" fill="#4d5c7d"></path><path d="M256 313.563c13.146 0 23.867-10.721 23.867-23.867 0-13.145-10.722-23.867-23.867-23.867s-23.866 10.723-23.866 23.867c0 13.146 10.721 23.867 23.866 23.867z" fill="#62a4fb"></path><path d="M256 297.563c4.334 0 7.867-3.533 7.867-7.867 0-4.332-3.533-7.867-7.867-7.867-4.333 0-7.866 3.535-7.866 7.867 0 4.333 3.533 7.867 7.866 7.867z" fill="#eff4f7"></path></g></g></svg>