<svg viewBox="0 0 512 512" xmlns="http://www.w3.org/2000/svg"><g><path d="M67.394 477.788c11.785 0 21.339-9.553 21.339-21.339L99.27 285.883c0-11.785-9.554-21.339-21.339-21.339s-21.339 9.553-21.339 21.339L46.055 456.449c0 11.785 9.554 21.339 21.339 21.339z" fill="#414b82"></path><path d="M139.104 477.788c11.785 0 21.339-9.553 21.339-21.339l-9.66-170.566c0-11.785-9.554-21.339-21.339-21.339s-21.339 9.553-21.339 21.339l9.66 170.566c.001 11.785 9.554 21.339 21.339 21.339z" fill="#1e2d64"></path><path d="M206.192 206.722c-.378-1.674-9.318-41.165-13.596-54.832-7.521-24.029-16.036-36.787-41.427-36.787H55.463c-25.374 0-33.899 12.734-41.427 36.787C9.758 165.556.818 205.047.44 206.722a17.853 17.853 0 0 0 3.643 15.297c46.145 55.808 50.764 61.48 52.51 63.234v.63h94.192v-1.242c2.304-2.589 9.83-11.904 51.764-62.622a17.847 17.847 0 0 0 3.643-15.297zM56.593 229.56l-19.38-23.484 14.857-53.534a2.303 2.303 0 0 1 4.524.617v76.401zm94.191-.904v-75.922a1.881 1.881 0 0 1 3.692-.502l14.943 53.844-18.635 22.58z" fill="#96a5d7"></path><path d="M206.192 206.722c-.378-1.674-9.318-41.165-13.596-54.832-7.521-24.029-16.036-36.787-41.427-36.787h-47.478v170.78h47.094v-1.242c2.304-2.589 9.83-11.904 51.764-62.622a17.847 17.847 0 0 0 3.643-15.297zm-55.408 21.934v-75.922a1.881 1.881 0 0 1 3.692-.502l14.943 53.844-18.635 22.58z" fill="#8093cf"></path><circle cx="103.695" cy="66.903" fill="#ffb69e" r="36.854"></circle><path d="m130.827 115.103-27.136 71.206-27.137-71.206z" fill="#ffffff"></path><path d="m115.467 139.451-6.04-10.986 5.242-9.533a2.582 2.582 0 0 0-2.264-3.828H94.989a2.583 2.583 0 0 0-2.264 3.828l5.224 9.502-6.057 11.016a7.327 7.327 0 0 0-.764 4.969l3.765 18.805 8.798 23.085 8.767-23.003 3.774-18.889a7.338 7.338 0 0 0-.765-4.966z" fill="#838387"></path><path d="m103.691 186.308 8.767-23.003 3.774-18.889a7.329 7.329 0 0 0-.765-4.967l-6.04-10.986 5.242-9.533a2.582 2.582 0 0 0-2.263-3.828h-8.714l-.001 71.206z" fill="#68686b"></path><path d="M372.762 477.788c11.785 0 21.339-9.553 21.339-21.339l10.538-170.566c0-11.785-9.553-21.339-21.339-21.339-11.785 0-21.339 9.553-21.339 21.339l-10.538 170.566c0 11.785 9.554 21.339 21.339 21.339z" fill="#93cbff"></path><path d="M444.472 477.788c11.785 0 21.339-9.553 21.339-21.339l-9.66-170.566c0-11.785-9.553-21.339-21.339-21.339-11.785 0-21.339 9.553-21.339 21.339l9.66 170.566c.001 11.785 9.554 21.339 21.339 21.339z" fill="#78beff"></path><path d="M511.56 206.722c-.378-1.674-9.318-41.165-13.596-54.832-7.521-24.029-16.036-36.787-41.427-36.787H360.832c-25.374 0-33.899 12.734-41.427 36.787-4.278 13.666-13.218 53.157-13.596 54.832a17.853 17.853 0 0 0 3.643 15.297c46.145 55.808 50.764 61.48 52.51 63.234v.63h94.192v-1.242c2.304-2.589 9.83-11.904 51.764-62.622a17.85 17.85 0 0 0 3.642-15.297zM361.961 229.56l-19.38-23.484 14.857-53.534a2.303 2.303 0 0 1 4.524.617v76.401zm94.191-.904v-75.922a1.881 1.881 0 0 1 3.692-.502l14.943 53.844-18.635 22.58z" fill="#919196"></path><path d="M511.56 206.722c-.378-1.674-9.318-41.165-13.596-54.832-7.521-24.029-16.036-36.787-41.427-36.787h-47.478v170.78h47.094v-1.242c2.304-2.589 9.83-11.904 51.764-62.622a17.847 17.847 0 0 0 3.643-15.297zm-55.408 21.934v-75.922a1.881 1.881 0 0 1 3.692-.502l14.943 53.844-18.635 22.58z" fill="#838387"></path><circle cx="409.063" cy="66.903" fill="#ffb69e" r="36.854"></circle><path d="m436.195 115.103-27.136 71.206-27.137-71.206z" fill="#ffffff"></path><path d="m420.835 139.451-6.04-10.986 5.242-9.533a2.582 2.582 0 0 0-2.264-3.828h-17.415a2.583 2.583 0 0 0-2.264 3.828l5.224 9.502-6.057 11.016a7.327 7.327 0 0 0-.764 4.969l3.765 18.805 8.798 23.085 8.767-23.003 3.774-18.889a7.344 7.344 0 0 0-.766-4.966z" fill="#414b82"></path><path d="m409.059 186.308 8.767-23.003 3.774-18.889a7.329 7.329 0 0 0-.765-4.967l-6.04-10.986 5.242-9.533a2.582 2.582 0 0 0-2.263-3.828h-8.714v71.206h-.001z" fill="#1e2d64"></path><path d="M183.873 329.677h-4.409v-45.232h-23.619v45.232h-4.302a7.48 7.48 0 0 0-7.481 7.481v82.425a7.481 7.481 0 0 0 7.481 7.481h32.331a7.48 7.48 0 0 0 7.481-7.481v-82.425a7.483 7.483 0 0 0-7.482-7.481z" fill="#823214"></path><path d="M183.873 329.677h-4.409v-45.232h-11.81v142.619h16.22a7.48 7.48 0 0 0 7.481-7.481v-82.425a7.483 7.483 0 0 0-7.482-7.481z" fill="#692810"></path><path d="M155.848 284.443h23.619v45.235h-23.619z" fill="#373c41"></path><path d="M209.192 511.238c13.436 0 24.329-10.892 24.329-24.329l12.014-194.464c0-13.436-10.892-24.329-24.329-24.329s-24.329 10.892-24.329 24.329l-12.014 194.464c.001 13.436 10.893 24.329 24.329 24.329z" fill="#5f6e9b"></path><path d="M290.95 511.238c13.436 0 24.329-10.892 24.329-24.329l-11.013-194.464c0-13.436-10.892-24.329-24.329-24.329-13.436 0-24.329 10.892-24.329 24.329l11.013 194.464c0 13.436 10.893 24.329 24.329 24.329z" fill="#414b82"></path><path d="M363.285 219.632a20.35 20.35 0 0 0 4.154-17.44c-.432-1.909-10.624-46.933-15.502-62.514-4.411-14.093-8.699-24.301-16.437-31.641-9.57-9.077-20.937-10.301-30.795-10.301H196.153c-26.735 0-48.594 21.415-48.726 47.738v149.048c0 11.197 9.077 20.274 20.274 20.274 11.197 0 20.274-9.077 20.274-20.274V145.641c.043-3.856 3.93-7.358 8.178-7.358h.725v154.161h107.387v-11.368l59.02-61.444zm-59.019 3.509v-84.703l.038.001a5.099 5.099 0 0 1 4.787 3.684c3.328 11.506 13.668 47.448 16.422 59.333l-21.247 21.685z" fill="#414b82"></path><circle cx="250.582" cy="42.781" fill="#ffb69e" r="42.019"></circle><path d="M187.981 284.522v10.458c0 11.198-9.077 20.274-20.274 20.274s-20.274-9.077-20.274-20.274v-10.458h40.548z" fill="#ffffff"></path><path d="M187.981 294.458v.522c0 11.198-9.077 20.274-20.274 20.274s-20.274-9.077-20.274-20.274v-.522h40.548z" fill="#ffb69e"></path><path d="M367.438 202.192c-.432-1.909-10.624-46.933-15.502-62.514-4.411-14.093-8.699-24.301-16.437-31.641-9.57-9.077-20.937-10.301-30.795-10.301h-54.142v194.709h53.705v-11.368l59.018-61.444a20.361 20.361 0 0 0 4.153-17.441zm-63.172 20.949v-84.703l.038.001a5.099 5.099 0 0 1 4.787 3.684c3.328 11.506 13.668 47.448 16.422 59.331l-21.247 21.687z" fill="#1e2d64"></path><path d="m281.513 97.736-30.938 81.183-30.94-81.183z" fill="#ffffff"></path><path d="M264.872 131.157a8.361 8.361 0 0 0-.872-5.663l-6.887-12.525 5.976-10.869c1.077-1.959-.342-4.364-2.581-4.364h-19.856c-2.236 0-3.659 2.403-2.581 4.364l5.956 10.833-6.906 12.56a8.357 8.357 0 0 0-.871 5.666l4.292 21.44 10.03 26.32 9.995-26.226 4.305-21.536z" fill="#ff3c3c"></path><path d="m250.575 178.919 9.995-26.226 4.303-21.535a8.361 8.361 0 0 0-.872-5.663l-6.887-12.525 5.976-10.869c1.077-1.959-.342-4.364-2.581-4.364h-9.947v81.149l.013.033z" fill="#dc1428"></path><path d="M265.49 161.595h24.029v7.008H265.49z" fill="#414b82"></path></g></svg>