<?xml version="1.0" encoding="UTF-8" standalone="no"?>
<!-- Created with Inkscape (http://www.inkscape.org/) -->

<svg
   version="1.1"
   id="svg717"
   width="682.66669"
   height="682.66669"
   viewBox="0 0 682.66669 682.66669"
   xmlns="http://www.w3.org/2000/svg"
   xmlns:svg="http://www.w3.org/2000/svg">
  <defs
     id="defs721">
    <clipPath
       clipPathUnits="userSpaceOnUse"
       id="clipPath733">
      <path
         d="M 0,512 H 512 V 0 H 0 Z"
         id="path731" />
    </clipPath>
    <clipPath
       clipPathUnits="userSpaceOnUse"
       id="clipPath743">
      <path
         d="M 0,512 H 512 V 0 H 0 Z"
         id="path741" />
    </clipPath>
  </defs>
  <g
     id="g723"
     transform="matrix(1.3333333,0,0,-1.3333333,0,682.66667)">
    <path
       d="M 0,0 H 512.001 V 512.001 H 0 Z"
       style="fill:#ffffff;fill-opacity:1;fill-rule:nonzero;stroke:none"
       id="path725" />
    <g
       id="g727">
      <g
         id="g729"
         clip-path="url(#clipPath733)">
        <path
           d="M 6315,-7615 H -3612 V 1589 H 6315 Z"
           style="fill:none;stroke:#000000;stroke-width:1;stroke-linecap:butt;stroke-linejoin:miter;stroke-miterlimit:10;stroke-dasharray:none;stroke-opacity:1"
           id="path735" />
      </g>
    </g>
    <g
       id="g737">
      <g
         id="g739"
         clip-path="url(#clipPath743)">
        <g
           id="g745"
           transform="translate(512,255)">
          <path
             d="m 0,0 c 0,-140.7 -115.3,-255 -256,-255 -140.7,0 -256,114.3 -256,255 0,140.7 115.3,257 256,257 C -115.3,257 0,140.7 0,0"
             style="fill:#ffda2d;fill-opacity:1;fill-rule:nonzero;stroke:none"
             id="path747" />
        </g>
        <g
           id="g749"
           transform="translate(512,255)">
          <path
             d="M 0,0 C 0,-140.7 -115.3,-255 -256,-255 V 257 C -115.3,257 0,140.7 0,0"
             style="fill:#fdbf00;fill-opacity:1;fill-rule:nonzero;stroke:none"
             id="path751" />
        </g>
        <g
           id="g753"
           transform="translate(296.499,244.5007)">
          <path
             d="M 0,0 C -5.7,-6 -15.298,-6 -20.998,0 L -33.6,12.599 c -2.1,2.101 -4.499,4.201 -6.899,6.001 -23.699,18.6 -56.1,22.2 -83.401,8.399 -7.2,-3.6 -16.199,-0.599 -20.1,6.901 -3.599,7.2 -0.598,16.199 6.902,20.1 31.199,15.3 66.899,15 96.599,-0.301 C -30.298,48.6 -20.998,41.999 -12.6,33.6 L 0,20.999 C 6.001,15.298 6.001,5.7 0,0"
             style="fill:#725d57;fill-opacity:1;fill-rule:nonzero;stroke:none"
             id="path755" />
        </g>
        <g
           id="g757"
           transform="translate(196,360)">
          <path
             d="M 0,0 C -24.814,0 -45,20.186 -45,45 -45,69.814 -24.814,90 0,90 24.814,90 45,69.814 45,45 45,20.186 24.814,0 0,0"
             style="fill:#725d57;fill-opacity:1;fill-rule:nonzero;stroke:none"
             id="path759" />
        </g>
        <g
           id="g761"
           transform="translate(346,315)">
          <path
             d="M 0,0 C -24.814,0 -45,20.186 -45,45 -45,69.814 -24.814,90 0,90 24.814,90 45,69.814 45,45 45,20.186 24.814,0 0,0"
             style="fill:#53433f;fill-opacity:1;fill-rule:nonzero;stroke:none"
             id="path763" />
        </g>
        <g
           id="g765"
           transform="translate(264.4009,122.4004)">
          <path
             d="m 0,0 c -2.4,-2.4 -5.401,-4.2 -8.401,-5.4 -7.8,-3.001 -16.8,-1.201 -23.401,5.4 l -27.599,27.6 h -69 c -8.401,0 -15,-6.6 -15,-15 0,-8.401 6.599,-15 15,-15 h 52.5 c 12.299,0 22.5,-10.201 22.5,-22.5 0,-12.3 -10.201,-22.5 -22.5,-22.5 h -52.5 c -8.401,0 -15,-6.6 -15,-15 0,-8.401 6.599,-15 15,-15 h 22.5 c 12.299,0 22.5,-10.201 22.5,-22.5 0,-12.3 -10.201,-22.5 -22.5,-22.5 H -163.2 c -55.201,0 -101.201,45 -101.201,100.2 0,38.399 23.2,73.2 59.2,91.2 20.701,10.199 31.8,27 31.8,48.6 v 15 c 0,8.4 6.599,15 15,15 24.901,0 45,-20.1 45,-45 v -30 h 60 c 7.8,0 15.601,-3.3 21.301,-8.7 C -20.401,52.2 -13.2,44.7 -8.401,40.199 1.199,30.599 0.298,31.8 1.8,29.399 9,20.4 7.798,7.8 0,0"
             style="fill:#fff7cc;fill-opacity:1;fill-rule:nonzero;stroke:none"
             id="path767" />
        </g>
        <g
           id="g769"
           transform="translate(296.499,244.5007)">
          <path
             d="M 0,0 C -5.7,-6 -15.298,-6 -20.998,0 L -33.6,12.599 C -35.7,14.7 -38.099,16.8 -40.499,18.6 V 53.699 C -30.298,48.6 -20.998,41.999 -12.6,33.6 L 0,20.999 C 6.001,15.298 6.001,5.7 0,0"
             style="fill:#53433f;fill-opacity:1;fill-rule:nonzero;stroke:none"
             id="path771" />
        </g>
      </g>
    </g>
  </g>
</svg>
