<svg viewBox="0 0 512 512" xmlns="http://www.w3.org/2000/svg"><g><g fill="#8479c2"><path d="M460.158 175.182c11.595-11.137 18.815-26.791 18.815-44.139 0-36.965-32.067-64.255-66.788-61.009-6.981.653-13.185-4.518-13.484-11.523C397.336 26.577 370.958 0 337.512 0c-17.81 0-33.839 7.608-45.025 19.748a12.26 12.26 0 0 1-18.086 0C263.215 7.608 247.186 0 229.376 0c-33.567 0-59.95 26.747-61.198 58.729-.28 7.171-6.667 12.4-13.787 11.504-35.276-4.44-68.711 23.014-68.711 60.81 0 17.347 7.22 33.002 18.815 44.139 5.008 4.81 5.008 12.802 0 17.612C92.9 203.931 85.68 219.585 85.68 236.932c0 37.852 33.471 65.249 68.725 60.807 7.112-.896 13.495 4.327 13.772 11.49 1.239 32.002 27.647 58.746 61.2 58.746 17.81 0 33.839-7.608 45.025-19.748a12.261 12.261 0 0 1 18.086 0c11.185 12.141 27.215 19.748 45.025 19.748 33.436 0 59.825-26.567 61.189-58.511.3-7.005 6.503-12.176 13.484-11.523 34.734 3.25 66.788-24.062 66.788-61.01 0-17.347-7.22-33.001-18.815-44.138-5.009-4.809-5.009-12.801-.001-17.611zM183.572 408.081c-5.924-23.236-29.563-37.27-52.8-31.346-23.236 5.924-37.27 29.564-31.346 52.8s29.563 37.27 52.8 31.346c23.236-5.925 37.27-29.564 31.346-52.8zM53.977 457.225c-14.886 3.795-23.876 18.939-20.081 33.825s18.939 23.876 33.825 20.081 23.877-18.939 20.081-33.825-18.94-23.876-33.825-20.081z" fill="#8479c2"></path></g><path d="M373.459 81.194c2.36-2.3 1.058-6.308-2.203-6.782l-16.528-2.401a3.975 3.975 0 0 1-2.993-2.175l-7.392-14.977c-1.459-2.955-5.672-2.955-7.131 0l-7.391 14.977a3.977 3.977 0 0 1-2.994 2.175L310.3 74.412c-3.261.474-4.564 4.482-2.204 6.782l11.96 11.658a3.973 3.973 0 0 1 1.143 3.519l-2.823 16.461c-.557 3.248 2.852 5.725 5.769 4.192l14.782-7.772a3.977 3.977 0 0 1 3.701 0l14.783 7.771c2.917 1.533 6.326-.943 5.769-4.191l-2.822-16.461a3.975 3.975 0 0 1 1.144-3.52z" fill="#ffe181"></path><path d="m412.196 138.29-5.91-.859a4.917 4.917 0 0 1-3.7-2.688l-2.643-5.355c-1.802-3.652-7.01-3.652-8.813 0l-2.643 5.355a4.913 4.913 0 0 1-3.7 2.688l-5.91.859c-4.031.586-5.64 5.539-2.724 8.382l4.276 4.169a4.913 4.913 0 0 1 1.413 4.349l-1.01 5.886c-.689 4.014 3.525 7.075 7.13 5.18l5.286-2.779a4.913 4.913 0 0 1 4.574 0l5.286 2.779c3.605 1.895 7.818-1.166 7.13-5.18l-1.009-5.886a4.914 4.914 0 0 1 1.413-4.349l4.276-4.169c2.918-2.843 1.308-7.796-2.722-8.382zM340.017 96.371a3.975 3.975 0 0 0-1.143-3.519l-11.96-11.658c-2.36-2.301-1.057-6.308 2.204-6.782l16.527-2.401a3.977 3.977 0 0 0 2.994-2.175l1.548-3.137-5.844-11.84c-1.458-2.955-5.672-2.955-7.131 0l-7.392 14.977a3.977 3.977 0 0 1-2.994 2.175L310.3 74.412c-3.261.474-4.564 4.482-2.204 6.782l11.96 11.658a3.973 3.973 0 0 1 1.143 3.519l-2.823 16.461c-.557 3.248 2.852 5.725 5.769 4.192l13.552-7.125z" fill="#fec458"></path><path d="m392.681 161.076 1.01-5.886a4.916 4.916 0 0 0-1.413-4.35l-4.276-4.168c-2.916-2.843-1.307-7.796 2.724-8.382l5.91-.859a4.917 4.917 0 0 0 3.7-2.688l1.126-2.281-1.517-3.074c-1.802-3.652-7.01-3.652-8.813 0l-2.643 5.355a4.915 4.915 0 0 1-3.7 2.688l-5.91.859c-4.031.586-5.64 5.539-2.724 8.382l4.276 4.168a4.914 4.914 0 0 1 1.413 4.35l-1.01 5.886c-.689 4.014 3.525 7.075 7.13 5.18l4.964-2.61a4.849 4.849 0 0 1-.247-2.57z" fill="#ffb640"></path><path d="M352.676 181.295c-22.08 4.353-45.855-2.024-62.964-19.133s-23.486-40.885-19.133-62.966c.998-5.062-4.574-8.787-8.864-5.92a70.095 70.095 0 0 0-10.796 8.896c-22.438 22.579-26.209 57.074-11.212 83.653l2.544 3.238 75.546 30.047 4.797-1.45a69.535 69.535 0 0 0 27.267-16.863 70.166 70.166 0 0 0 8.737-10.637c2.866-4.291-.86-9.863-5.922-8.865z" fill="#fec458"></path><g fill="#ffb640"><path d="M357.108 182.22c-1.198-.846-2.736-1.259-4.432-.925-.278.055-.557.1-.836.152 1.748.322 3.505.584 5.268.773zM241.636 188.28h25.477l-1.929-2.455c-13.242-23.469-11.84-53.105 4.113-75.265.12-3.81.542-7.612 1.282-11.364.998-5.062-4.574-8.787-8.864-5.92a70.095 70.095 0 0 0-10.796 8.896c-22.438 22.579-26.209 57.074-11.212 83.653z" fill="#ffb640"></path></g><path d="M221.846 309.23c-.277-7.163-6.66-12.387-13.772-11.49-35.253 4.442-68.725-22.955-68.725-60.807 0-17.348 7.22-33.001 18.815-44.138 5.008-4.81 5.008-12.802 0-17.612-11.595-11.137-18.815-26.791-18.815-44.139 0-37.796 33.435-65.25 68.711-60.81 7.12.896 13.507-4.334 13.787-11.504.888-22.741 14.49-42.824 34.34-52.538A60.904 60.904 0 0 0 229.376 0c-33.567 0-59.95 26.747-61.198 58.729-.28 7.17-6.667 12.4-13.787 11.504-35.276-4.44-68.711 23.014-68.711 60.81 0 17.348 7.22 33.002 18.815 44.139 5.008 4.81 5.008 12.802 0 17.612C92.9 203.931 85.68 219.585 85.68 236.932c0 37.852 33.471 65.249 68.725 60.807 7.112-.896 13.495 4.327 13.772 11.49 1.239 32.002 27.647 58.746 61.2 58.746a60.917 60.917 0 0 0 26.814-6.192c-19.852-9.714-33.464-29.798-34.345-52.553zM142.794 429.534c-4.919-19.296 3.933-38.861 20.381-48.336-9.465-5.456-20.981-7.376-32.403-4.464-23.236 5.924-37.27 29.564-31.346 52.8s29.563 37.271 52.8 31.346a43.421 43.421 0 0 0 10.965-4.463c-9.789-5.642-17.385-15.069-20.397-26.883zM61.812 491.05c-3.145-12.336 2.496-24.843 12.991-30.927-6.076-3.525-13.481-4.77-20.826-2.898-14.886 3.796-23.876 18.939-20.081 33.825s18.939 23.876 33.825 20.081c2.55-.65 4.921-1.64 7.09-2.897-6.239-3.62-11.077-9.643-12.999-17.184z" fill="#6e60b8"></path><path d="M351.657 247.474c-1.803-11.086-10.166-19.405-20.388-21.542-2.585-.54-4.793-2.213-6.087-4.55-3.892-7.03-11.316-11.501-19.384-11.448-3.519.023-6.719-1.945-8.331-5.123-7.149-14.092-21.604-23.732-38.285-23.732s-31.136 9.64-38.285 23.732c-1.612 3.178-4.812 5.146-8.331 5.123-8.067-.053-15.491 4.417-19.384 11.448-1.294 2.337-3.502 4.009-6.086 4.55-10.222 2.137-18.584 10.457-20.388 21.542-2.338 14.375 7.236 27.953 21.385 30.329h142.176c14.152-2.376 23.727-15.955 21.388-30.329z" fill="#efecef"></path><path d="M214.418 248.504c1.804-11.086 10.166-19.405 20.388-21.542 2.585-.54 4.793-2.213 6.086-4.55 3.893-7.031 11.317-11.501 19.383-11.449 3.519.023 6.719-1.945 8.331-5.123a43.702 43.702 0 0 1 15.187-16.891c-6.976-4.952-15.452-7.871-24.61-7.871-16.68 0-31.136 9.64-38.285 23.732-1.612 3.178-4.812 5.146-8.331 5.123-8.067-.053-15.491 4.417-19.383 11.449-1.294 2.337-3.502 4.009-6.087 4.55-10.222 2.138-18.584 10.456-20.388 21.542-2.339 14.374 7.236 27.953 21.385 30.329h43.645c-11.863-4.049-19.428-16.349-17.321-29.299z" fill="#e2dfe2"></path></g></svg>