<svg viewBox="0 0 497 497" xmlns="http://www.w3.org/2000/svg"><g><path d="M349.921 229.563a114.33 114.33 0 0 0 2.249-22.625c0-62.82-46.669-113.745-116.741-113.745 25.956 0 26.346 40.44 0 40.44h-17.064c-40.611 0-73.533 32.947-73.533 73.589a73.597 73.597 0 0 0 3.45 22.342L248.9 270.519z" fill="#b55c22"></path><path d="M235.428 93.192c10.307 0 16.578 6.378 18.749 14.067 36.182 19.359 57.992 56.737 57.992 99.678 0 7.747-.774 15.313-2.249 22.625l-80.982 32.83 19.96 8.124 101.022-40.955a114.33 114.33 0 0 0 2.249-22.625c0-62.818-46.669-113.744-116.741-113.744z" fill="#a84c0f"></path><path d="M83.013 349.823c-10.422-12.7-16.678-28.955-16.678-46.672 0-40.642 32.922-73.589 73.533-73.589h217.265c40.611 0 73.533 32.947 73.533 73.589 0 17.717-6.256 33.971-16.678 46.672L248.899 381.5z" fill="#a84c0f"></path><path d="M357.133 229.563h-40c40.611 0 73.533 32.947 73.533 73.589 0 17.717-6.256 33.971-16.678 46.672L228.85 377.672l20.048 3.828 165.089-31.677c10.422-12.7 16.678-28.955 16.678-46.672 0-40.641-32.921-73.588-73.532-73.588z" fill="#8f3c04"></path><path d="M423.439 497H73.561C32.934 497 0 464.066 0 423.439v-.056c0-40.626 32.934-73.561 73.561-73.561H423.44c40.626 0 73.561 32.934 73.561 73.561v.056C497 464.066 464.066 497 423.439 497z" fill="#b55c22"></path><path d="M423.439 349.822h-40c40.626 0 73.561 32.934 73.561 73.561v.056C457 464.066 424.066 497 383.439 497h40C464.066 497 497 464.066 497 423.439v-.056c0-40.627-32.934-73.561-73.561-73.561z" fill="#a84c0f"></path><g fill="#bac3cc"><path d="M67.607 99.178c8.674 2.67 24.893 24.857 24.893 24.857s-25.888 9.225-34.562 6.555-13.541-11.866-10.871-20.54 11.866-13.542 20.54-10.872zM117.357 99.141c-2.67 8.674-24.857 24.893-24.857 24.893s-9.225-25.888-6.555-34.562 11.866-13.541 20.54-10.871 13.542 11.866 10.872 20.54z" fill="#bac3cc"></path></g><g fill="#bac3cc"><path d="M162.026 8.749c4.246 8.022.026 35.178.026 35.178s-24.829-11.783-29.074-19.804c-4.246-8.022-1.184-17.966 6.837-22.211S157.78.728 162.026 8.749zM197.23 43.902c-8.022 4.246-35.178.026-35.178.026s11.783-24.829 19.804-29.074 17.966-1.184 22.211 6.837 1.185 17.965-6.837 22.211z" fill="#bac3cc"></path></g><path d="M388.5 188.658a7.499 7.499 0 0 1-7.5-7.5c0-8.111 4.328-12.447 7.192-15.316 2.348-2.352 2.808-2.966 2.808-4.719 0-1.754-.46-2.368-2.809-4.72-2.863-2.869-7.191-7.205-7.191-15.316 0-8.11 4.328-12.446 7.192-15.314 2.348-2.352 2.808-2.965 2.808-4.718 0-1.752-.46-2.365-2.808-4.717-2.864-2.868-7.192-7.203-7.192-15.314s4.328-12.447 7.192-15.315c2.348-2.352 2.808-2.965 2.808-4.717 0-4.143 3.357-7.5 7.5-7.5s7.5 3.357 7.5 7.5c0 8.11-4.328 12.446-7.192 15.314-2.348 2.352-2.808 2.965-2.808 4.718 0 1.752.46 2.365 2.808 4.717 2.864 2.868 7.192 7.203 7.192 15.314s-4.328 12.447-7.192 15.315c-2.348 2.352-2.808 2.965-2.808 4.717 0 1.753.46 2.367 2.808 4.719 2.864 2.869 7.192 7.205 7.192 15.317 0 8.111-4.328 12.447-7.192 15.316-2.348 2.352-2.808 2.966-2.808 4.719 0 4.143-3.357 7.5-7.5 7.5zM472.512 310.159a7.499 7.499 0 0 1-7.5-7.5c0-8.112 4.328-12.448 7.192-15.317 2.348-2.352 2.808-2.966 2.808-4.719s-.46-2.367-2.808-4.719c-2.864-2.869-7.192-7.205-7.192-15.316 0-8.11 4.328-12.446 7.192-15.314 2.348-2.352 2.808-2.965 2.808-4.718 0-1.752-.46-2.365-2.808-4.717-2.864-2.868-7.192-7.204-7.192-15.315s4.328-12.446 7.192-15.314c2.348-2.352 2.808-2.965 2.808-4.717 0-4.143 3.357-7.5 7.5-7.5s7.5 3.357 7.5 7.5c0 8.111-4.328 12.446-7.192 15.314-2.348 2.352-2.808 2.965-2.808 4.717 0 1.753.46 2.366 2.808 4.718 2.864 2.868 7.192 7.204 7.192 15.314 0 8.111-4.328 12.447-7.192 15.315-2.348 2.352-2.808 2.965-2.808 4.717 0 1.753.46 2.367 2.808 4.719 2.864 2.869 7.192 7.205 7.192 15.316s-4.328 12.447-7.191 15.316c-2.349 2.352-2.809 2.966-2.809 4.72a7.5 7.5 0 0 1-7.5 7.5zM14.488 310.159a7.499 7.499 0 0 1-7.5-7.5c0-8.112 4.328-12.448 7.192-15.317 2.348-2.352 2.808-2.966 2.808-4.719s-.46-2.367-2.808-4.719c-2.864-2.869-7.192-7.205-7.192-15.316 0-8.11 4.328-12.446 7.192-15.314 2.348-2.352 2.808-2.965 2.808-4.718 0-1.752-.46-2.365-2.808-4.717-2.864-2.868-7.192-7.204-7.192-15.315s4.328-12.446 7.192-15.314c2.348-2.352 2.808-2.965 2.808-4.717 0-4.143 3.357-7.5 7.5-7.5s7.5 3.357 7.5 7.5c0 8.111-4.328 12.446-7.192 15.314-2.348 2.352-2.808 2.965-2.808 4.717 0 1.753.46 2.366 2.808 4.718 2.864 2.868 7.192 7.204 7.192 15.314 0 8.111-4.328 12.447-7.192 15.315-2.348 2.352-2.808 2.965-2.808 4.717 0 1.753.46 2.367 2.808 4.719 2.864 2.869 7.192 7.205 7.192 15.316s-4.328 12.447-7.191 15.316c-2.349 2.352-2.809 2.966-2.809 4.72 0 4.143-3.357 7.5-7.5 7.5z" fill="#fcd1b3"></path></g></svg>