<svg viewBox="0 0 64 64" xmlns="http://www.w3.org/2000/svg"><g><path d="M33 18v-8h-2v8h-3l4 4 4-4zM31 46v8h2v-8h3l-4-4-4 4zM46 33h8v-2h-8v-3l-4 4 4 4zM18 31h-8v2h8v3l4-4-4-4zM42.607 22.808l5.656-5.657-1.414-1.414-5.657 5.656-2.121-2.121v5.657h5.657zM21.393 41.192l-5.656 5.657 1.414 1.414 5.657-5.656 2.121 2.121v-5.657h-5.657zM22.808 21.393l-5.657-5.656-1.414 1.414 5.656 5.657-2.121 2.121h5.657v-5.657zM41.192 42.607l5.657 5.656 1.414-1.414-5.656-5.657 2.121-2.121h-5.657v5.657z" fill="#505050"></path><path d="M32 40a8 8 0 1 1 0-16 8 8 0 0 1 0 16z" fill="#fa6450"></path><path d="M26 32c0-4.079 3.055-7.438 7-7.931A8.047 8.047 0 0 0 32 24a8 8 0 0 0 0 16c.339 0 .672-.028 1-.069-3.945-.493-7-3.852-7-7.931z" fill="#dc4632"></path><path d="M32 12a4 4 0 1 1 0-8 4 4 0 0 1 0 8zM32 52a4 4 0 1 1 0 8 4 4 0 0 1 0-8zM52 32a4 4 0 1 1 8 0 4 4 0 0 1-8 0zM12 32a4 4 0 1 1-8 0 4 4 0 0 1 8 0z" fill="#64c8f0"></path><path d="M6 32a3.991 3.991 0 0 1 3-3.859A3.977 3.977 0 0 0 8 28a4 4 0 0 0 0 8c.347 0 .679-.058 1-.141-1.722-.447-3-1.997-3-3.859z" fill="#46aad2"></path><path d="M46.142 17.858a4 4 0 1 1 5.658-5.657 4 4 0 0 1-5.658 5.657zM17.858 46.142a4 4 0 1 1-5.658 5.657 4 4 0 0 1 5.658-5.657zM17.858 17.858a4 4 0 1 1-5.657-5.658 4 4 0 0 1 5.657 5.658zM46.142 46.142a4 4 0 1 1 5.657 5.658 4 4 0 0 1-5.657-5.658z" fill="#64c8f0"></path><path d="M13.029 48.971a3.991 3.991 0 0 1 3-3.859 3.977 3.977 0 0 0-1-.141 4 4 0 0 0 0 8c.347 0 .679-.058 1-.141-1.722-.447-3-1.998-3-3.859zM30 56a3.991 3.991 0 0 1 3-3.859A3.977 3.977 0 0 0 32 52a4 4 0 0 0 0 8c.347 0 .679-.058 1-.141-1.722-.447-3-1.997-3-3.859zM46.971 48.971a3.991 3.991 0 0 1 3-3.859 3.977 3.977 0 0 0-1-.141 4 4 0 0 0 0 8c.347 0 .679-.058 1-.141a3.992 3.992 0 0 1-3-3.859zM54 32a3.991 3.991 0 0 1 3-3.859A3.977 3.977 0 0 0 56 28a4 4 0 0 0 0 8c.347 0 .679-.058 1-.141-1.722-.447-3-1.997-3-3.859zM46.971 15.029a3.991 3.991 0 0 1 3-3.859 3.977 3.977 0 0 0-1-.141 4 4 0 0 0 0 8c.347 0 .679-.058 1-.141a3.99 3.99 0 0 1-3-3.859zM30 8a3.991 3.991 0 0 1 3-3.859A3.977 3.977 0 0 0 32 4a4 4 0 0 0 0 8c.347 0 .679-.058 1-.141-1.722-.447-3-1.997-3-3.859zM13.029 15.029a3.991 3.991 0 0 1 3-3.859 3.977 3.977 0 0 0-1-.141 4 4 0 0 0 0 8c.347 0 .679-.058 1-.141a3.991 3.991 0 0 1-3-3.859z" fill="#46aad2"></path><path d="M32 36a4 4 0 1 1 0-8 4 4 0 0 1 0 8z" fill="#f0f0f0"></path></g></svg>