<svg viewBox="0 0 511.999 511.999" xmlns="http://www.w3.org/2000/svg"><g><circle cx="255.999" cy="255.999" fill="#455256" r="255.999"></circle><path d="M180.657 437.02c-99.974-99.974-99.974-262.064 0-362.038 36.471-36.471 81.21-59.62 128.181-69.482-81.789-17.171-170.354 5.978-233.857 69.482-99.974 99.974-99.974 262.064 0 362.038 63.503 63.504 152.068 86.653 233.857 69.482-46.972-9.863-91.711-33.013-128.181-69.482z" fill="#333f42"></path><ellipse cx="318.212" cy="193.796" fill="#eaeae4" rx="131.107" ry="120.86" transform="rotate(-134.999 318.213 193.798)"></ellipse><path d="M324.976 130.907c12.967 12.967 14.951 25.934 10.069 37.528 14.035-6.103 29.749-4.119 45.462 11.593l1.831 1.831c22.731 22.731 17.086 45.767-1.373 64.226-18.612 18.612-41.648 24.257-64.378 1.526l-1.831-1.831c-15.713-15.713-17.696-31.426-11.442-45.615-11.747 5.035-24.713 3.051-37.681-9.916-19.985-19.985-14.188-39.512 2.899-56.598 16.932-16.931 36.459-22.729 56.444-2.744zm40.885 60.107c-14.493-14.493-28.68-13.425-41.037-1.068-12.51 12.51-13.578 26.697.915 41.19l2.441 2.441c14.951 14.951 29.291 14.034 41.8 1.526 12.51-12.509 12.968-27.002-1.678-41.647l-2.441-2.442zm-86.499-12.052c12.205 12.205 23.646 10.831 34.478 0 10.679-10.679 12.205-22.273 0-34.478-12.205-12.205-23.646-10.526-34.325.153-10.831 10.831-12.357 22.12-.153 34.325z" fill="#4d4d4d"></path></g></svg>