<svg viewBox="0 0 512 512" xmlns="http://www.w3.org/2000/svg"><g><path d="M406 60H136c-8.291 0-15-6.709-15-15s6.709-15 15-15h270c8.291 0 15 6.709 15 15s-6.709 15-15 15zM52.295 301.894c-1.04 0-2.095-.103-3.164-.337-8.101-1.729-13.257-9.712-11.514-17.813l46.44-212.787c1.743-8.086 9.595-13.315 17.813-11.514 8.101 1.729 13.257 9.712 11.514 17.813L66.943 290.043c-1.508 7.031-7.734 11.851-14.648 11.851zM274.9 456.799c-2.701 4.501-7.8 7.2-12.9 7.2-2.701 0-5.4-.599-7.8-2.1l-28.2-16.8-164.801-98.2c-7.2-4.199-9.3-13.5-5.099-20.7 4.2-6.899 13.2-9.3 20.4-5.099L226 410l43.801 26.1c6.899 4.2 9.3 13.499 5.099 20.699z" fill="#6f7d96"></path><path d="M307.211 460.789a14.948 14.948 0 0 1-10.605-4.395c-5.859-5.859-5.859-15.352 0-21.211l138.578-138.578c5.859-5.859 15.352-5.859 21.211 0s5.859 15.352 0 21.211L317.816 456.395a14.951 14.951 0 0 1-10.605 4.394zM463.265 271.234c-7.456 0-13.916-5.552-14.868-13.14L424.838 76.626c-1.025-8.218 4.805-15.718 13.022-16.743 8.32-1.04 15.703 4.805 16.743 13.022l23.559 181.469c1.025 8.218-4.805 15.718-13.022 16.743-.63.073-1.26.117-1.875.117zM275.204 453.963c-6.606 0-12.656-4.395-14.458-11.089l-33.545-125.028c-2.168-7.998 2.563-16.23 10.562-18.384 7.91-2.183 16.23 2.534 18.384 10.562l33.545 125.028c2.168 7.998-2.563 16.23-10.562 18.384a14.486 14.486 0 0 1-3.926.527z" fill="#66728b"></path><path d="M268.422 228.578a14.948 14.948 0 0 1-10.605-4.395c-5.859-5.859-5.859-15.352 0-21.211L404.184 55.605c5.859-5.859 15.352-5.859 21.211 0s5.859 15.352 0 21.211L279.027 224.184a14.951 14.951 0 0 1-10.605 4.394z" fill="#66728b"></path><path d="M195.619 219.262a15.018 15.018 0 0 1-12.949-7.397L105.707 79.819c-4.189-7.148-1.802-16.348 5.332-20.537 7.163-4.219 16.333-1.787 20.537 5.332l76.963 132.045c4.189 7.148 1.802 16.348-5.332 20.537a14.906 14.906 0 0 1-7.588 2.066z" fill="#6f7d96"></path><path d="M437.015 301c-.688 0-1.406-.044-2.109-.146l-151.63-21.255c-8.203-1.157-13.916-8.745-12.759-16.948 1.143-8.203 8.774-13.887 16.948-12.759l151.63 21.255c8.203 1.157 13.916 8.745 12.759 16.948-1.055 7.5-7.486 12.905-14.839 12.905z" fill="#66728b"></path><path d="M75 331c-5.977 0-11.646-3.604-13.96-9.521-3.032-7.705.762-16.406 8.481-19.438l95.512-37.134c7.646-2.988 16.406.762 19.438 8.481 3.032 7.705-.762 16.406-8.481 19.438L80.479 329.96A14.967 14.967 0 0 1 75 331z" fill="#6f7d96"></path><path d="M274.9 456.799c-2.701 4.501-7.8 7.2-12.9 7.2-2.701 0-5.4-.599-7.8-2.1l-28.2-16.8V410l43.801 26.1c6.899 4.2 9.3 13.499 5.099 20.699zM406 30H226v30h180c8.291 0 15-6.709 15-15s-6.709-15-15-15z" fill="#66728b"></path><path d="M436 90c-24.814 0-45-20.186-45-45s20.186-45 45-45 45 20.186 45 45-20.186 45-45 45zM467 331c-24.814 0-45-20.186-45-45s20.186-45 45-45 45 20.186 45 45-20.186 45-45 45zM286 512c-24.814 0-45-20.186-45-45s20.186-45 45-45 45 20.186 45 45-20.186 45-45 45z" fill="#6b77e8"></path><path d="M45 361c-24.814 0-45-20.186-45-45s20.186-45 45-45 45 20.186 45 45-20.186 45-45 45zM106 90c-24.814 0-45-20.186-45-45S81.186 0 106 0s45 20.186 45 45-20.186 45-45 45z" fill="#7984eb"></path><path d="M226 331c-41.353 0-75-33.647-75-75s33.647-75 75-75 75 33.647 75 75-33.647 75-75 75z" fill="#ca80dc"></path><path d="M301 256c0-41.353-33.647-75-75-75v150c41.353 0 75-33.647 75-75z" fill="#b757d1"></path></g></svg>