<svg viewBox="0 0 68 68" xmlns="http://www.w3.org/2000/svg"><g><path d="M52.234 62.18a2.56 2.56 0 0 0 2.56-2.56v-4.414a13.736 13.736 0 0 0-8.043-12.504l-5.737-2.61a29.963 29.963 0 0 0-6.13-2.03 30.157 30.157 0 0 0-12.975 0 30.156 30.156 0 0 0-6.13 2.03l-5.737 2.61A13.752 13.752 0 0 0 2 55.206v4.413a2.56 2.56 0 0 0 2.56 2.56z" fill="#4f5d99"></path><path d="m33.557 62.18 1.367-24.097-.04-.02a30.157 30.157 0 0 0-12.975 0l-.039.02 1.376 24.096z" fill="#e9e9ff"></path><path d="m34.924 38.071-6.527 3.82 2.353 3.482 3.877-2.069z" fill="#cfcfff"></path><path d="m21.87 38.071 6.527 3.82-2.354 3.482-3.877-2.069z" fill="#cfcfff"></path><path d="M26.483 62.18h3.828l-1.04-14.648a3.236 3.236 0 0 1 1.122-2.688l-1.996-2.954-1.997 2.954a3.236 3.236 0 0 1 1.124 2.688z" fill="#ed524e"></path><path d="m35.905 32.924-.765 3.992-.216 1.157-6.522 3.815-6.532-3.815-.255-1.354-.726-3.795z" fill="#ffcbba"></path><path d="m35.905 32.924-.765 3.992a10.726 10.726 0 0 1-6.63 2.284h-.02c-2.609 0-5.002-.931-6.875-2.48l-.726-3.796z" fill="#efb7a8"></path><path d="M40.178 15.958v5.41l-1.484 3.021-2.134 1.187-3.584.324-5.36-1.45-5.247.528-4.497-.742-1.05-2.868s-.282-2.048-.905-6.101a4.707 4.707 0 0 1-.05-.691c0-3.78 4.548-7.015 4.548-7.015a10.287 10.287 0 0 0 5.222 1.144l6.597-.316c4.326-.214 7.944 3.243 7.944 7.57z" fill="#7f6218"></path><path d="M38.333 27.984v.408c0 5.431-4.398 9.83-9.82 9.83h-.02c-5.421 0-9.82-4.399-9.82-9.83v-.408s-2.056-2.825-1.848-6.616l2.105 2.066.094-.417a2.68 2.68 0 0 1 1.498-1.791v-1.697c0-.521.218-.995.56-1.337.34-.35.815-.559 1.336-.559.844 0 1.668.2 2.427.578.91.465 2.312 1.034 3.658.958 1.346.076 2.75-.493 3.66-.958a5.413 5.413 0 0 1 2.426-.578c.521 0 .995.209 1.336.56.342.34.56.815.56 1.336v1.697a2.68 2.68 0 0 1 1.497 1.791l.095.417 2.104-2.066c.209 3.791-1.848 6.616-1.848 6.616z" fill="#ffcbba"></path><circle cx="23.959" cy="25.798" fill="#3d4a75" r=".902"></circle><circle cx="32.611" cy="25.798" fill="#3d4a75" r=".902"></circle><path d="M31.058 32.021a2.75 2.75 0 0 1-.805 1.952 2.772 2.772 0 0 1-1.951.804h-.597a2.753 2.753 0 0 1-2.756-2.756zM28.487 27.907v1.998c0 .211-.17.389-.39.389a.387.387 0 0 1-.38-.39v-1.997c0-.212.17-.39.38-.39.22 0 .39.178.39.39z" fill="#efb7a8"></path><path d="M34.504 23.81h-3.338a.389.389 0 0 1-.39-.39c0-.21.178-.38.39-.38h3.338c.211 0 .39.17.39.381 0 .22-.178.39-.39.39zM25.628 23.81H22.29a.389.389 0 0 1-.39-.39c0-.21.178-.38.39-.38h3.338c.212 0 .39.17.39.381 0 .22-.178.39-.39.39z" fill="#3d4a75"></path><path d="M66 7.442V20.1c0 .895-.726 1.621-1.621 1.621H50.177l-2.574 2.574a.54.54 0 0 1-.923-.382V21.72h-1.15a1.621 1.621 0 0 1-1.622-1.621V7.442c0-.895.726-1.62 1.621-1.62h18.85c.895 0 1.621.725 1.621 1.62z" fill="#ed524e"></path><path d="M63.106 14.343a.364.364 0 0 0-.105.323l.195 1.141a.365.365 0 0 1-.53.385l-1.024-.538a.361.361 0 0 0-.34 0l-1.022.538a.366.366 0 0 1-.531-.385l.196-1.14a.364.364 0 0 0-.105-.324l-.828-.807a.364.364 0 0 1 .202-.622l1.145-.167a.368.368 0 0 0 .275-.2l.512-1.037a.365.365 0 0 1 .654 0l.512 1.038a.368.368 0 0 0 .275.2l1.145.166c.299.043.419.41.202.622zM56.587 14.343a.364.364 0 0 0-.104.323l.194 1.141a.365.365 0 0 1-.53.385l-1.023-.538a.361.361 0 0 0-.34 0l-1.023.538a.366.366 0 0 1-.531-.385l.196-1.14a.364.364 0 0 0-.105-.324l-.828-.807a.364.364 0 0 1 .203-.622l1.144-.167a.368.368 0 0 0 .275-.2l.512-1.037a.365.365 0 0 1 .655 0l.512 1.038a.368.368 0 0 0 .275.2l1.144.166c.299.043.42.41.203.622zM50.069 14.343a.364.364 0 0 0-.105.323l.194 1.141a.365.365 0 0 1-.53.385l-1.023-.538a.361.361 0 0 0-.34 0l-1.023.538a.366.366 0 0 1-.53-.385l.195-1.14a.364.364 0 0 0-.105-.324l-.828-.807a.364.364 0 0 1 .203-.622l1.144-.167a.368.368 0 0 0 .275-.2l.512-1.037a.365.365 0 0 1 .655 0l.512 1.038a.368.368 0 0 0 .275.2l1.144.166c.299.043.42.41.203.622z" fill="#fdc72e"></path><g opacity=".2"><path d="M60.179 21.721h-10l-2.33 2.32-3.94-11.71V7.44c0-.89.73-1.62 1.62-1.62h9.3zM65.998 17.931v2.17c0 .89-.72 1.62-1.62 1.62h-.83l-5.35-15.9h3.73z" fill="#ffffff"></path></g><path d="m34.924 38.073 6.277 4.84-3.378 6.855 2.899 2.267-7.165 10.144zM21.867 38.073l-6.277 4.84 3.378 6.855-2.899 2.267 7.166 10.144z" fill="#3d4a75"></path></g></svg>