<svg viewBox="0 0 256 256" xmlns="http://www.w3.org/2000/svg"><g><path d="M134.363 78.416h-12.726l-3.624-13.01c-.845-3.034 1.436-6.038 4.586-6.038h10.802c3.15 0 5.431 3.004 4.586 6.038z" fill="#f79219"></path><path d="M133.401 59.368h-.248c-.018.343-.069.69-.166 1.038l-3.624 13.01h-9.119l1.393 5h12.726l3.624-13.01c.845-3.034-1.436-6.038-4.586-6.038z" fill="#ef7816"></path><path d="M43.204 160.947c0-46.831 37.964-84.796 84.796-84.796s84.796 37.964 84.796 84.796z" fill="#ffa91a"></path><path d="M50.729 147.5a2.003 2.003 0 0 1-1.969-2.39c0-.01 0-.01.01-.01.21-1.06 1.28-1.77 2.34-1.56 1.08.22 1.79 1.27 1.58 2.35a2.01 2.01 0 0 1-1.961 1.61zm1.96-7.75a2.014 2.014 0 0 1-1.77-1.07c-.25-.47-.3-1.01-.14-1.52a80.314 80.314 0 0 1 10.42-21.62 81.332 81.332 0 0 1 16.09-17.46c12.779-10.32 28.16-16.44 44.479-17.69 1.08-.08 2.07.75 2.15 1.84a2.006 2.006 0 0 1-1.839 2.15c-31.141 2.38-58.261 24.06-67.48 53.96a1.994 1.994 0 0 1-1.91 1.41z" fill="#ffc91d"></path><path d="M182.739 96.208c12.504 14.773 20.057 33.869 20.057 54.739H43.811a85.507 85.507 0 0 0-.607 10h169.591c.001-25.962-11.679-49.185-30.056-64.739z" fill="#f79219"></path><path d="M185.4 98.547c13.9 15.103 22.396 35.256 22.396 57.4H43.363a86.269 86.269 0 0 0-.159 5h169.591c.001-24.688-10.557-46.904-27.395-62.4z" fill="#ef7816"></path><path d="M220.385 177.072H35.615a8.063 8.063 0 0 1 0-16.126h184.77a8.063 8.063 0 0 1 0 16.126z" fill="#f79219"></path><path d="M223.004 161.39c.283.822.443 1.701.443 2.619a8.063 8.063 0 0 1-8.063 8.063H30.615a8.025 8.025 0 0 1-2.619-.444c1.088 3.165 4.084 5.444 7.619 5.444h184.77a8.063 8.063 0 0 0 8.063-8.063c0-3.535-2.278-6.531-5.444-7.619z" fill="#ef7816"></path><path d="M237.507 196.632H18.493a4 4 0 0 1-4-4v-11.56a4 4 0 0 1 4-4h219.014a4 4 0 0 1 4 4v11.56a4 4 0 0 1-4 4z" fill="#8c3f0a"></path><path d="M237.507 177.072h-1v10.56a4 4 0 0 1-4 4H14.493v1a4 4 0 0 0 4 4h219.014a4 4 0 0 0 4-4v-11.56a4 4 0 0 0-4-4z" fill="#7c3108"></path><path d="m130.549 91.496 4.127 12.7a2.68 2.68 0 0 0 2.549 1.852h13.354c2.596 0 3.675 3.322 1.575 4.848l-10.804 7.849a2.681 2.681 0 0 0-.974 2.996l4.127 12.7c.802 2.469-2.024 4.522-4.124 2.996l-10.804-7.849a2.68 2.68 0 0 0-3.15 0l-10.804 7.849c-2.1 1.526-4.926-.527-4.124-2.996l4.127-12.7a2.678 2.678 0 0 0-.974-2.996l-10.804-7.849c-2.1-1.526-1.021-4.848 1.575-4.848h13.354a2.68 2.68 0 0 0 2.549-1.852l4.127-12.7c.802-2.469 4.296-2.469 5.098 0z" fill="#ef7816"></path></g></svg>