<svg viewBox="0 0 497 497" xmlns="http://www.w3.org/2000/svg"><g><path d="m346.999 48.485-69.006 50.004 69.006 50.005c27.571 0 50 22.431 50 50.004v100.006c0 27.573-22.429 50.004-50 50.004l-69.006 50.004 69.006 50.004C429.71 448.516 497 381.22 497 298.503V198.497c0-82.717-67.29-150.012-150.001-150.012z" fill="#b28ae4"></path><path d="M346.999 348.507c-27.571 0-50-22.431-50-50.004V198.497c0-27.573 22.429-50.004 50-50.004-27.617-27.617-27.617-72.392 0-100.009-82.71 0-150.001 67.296-150.001 150.012v100.006c0 82.717 67.291 150.012 150.001 150.012-27.617-27.615-27.617-72.39 0-100.007z" fill="#976bcf"></path><path d="M148.273 61.201H87.999V394.9l48.683 48.683c16.755-8.076 28.317-25.221 28.317-45.066V98.518a49.99 49.99 0 0 0-16.726-37.317z" fill="#b28ae4"></path><path d="M114.999 132.278c0-28.564 12.944-54.093 33.274-71.077a49.921 49.921 0 0 0-14.431-8.996c-18.845-7.668-40.447-3.154-54.641 11.409l-65 66.665c-19.28 19.771-18.879 51.425.894 70.705C28.73 214.282 48.022 218.217 65 212.89v185.626c0 27.614 22.385 50 50 50a49.809 49.809 0 0 0 21.683-4.933C123.158 427.487 115 406.73 115 384.061V132.278z" fill="#976bcf"></path><g fill="#ff8e9e"><path d="M266.693 112.879c-16.212 0-29.355 10.466-29.355 23.376s13.143 23.376 29.355 23.376 29.354-10.466 29.354-23.376-13.142-23.376-29.354-23.376zM425.806 112.879c-16.212 0-29.355 10.466-29.355 23.376s13.143 23.376 29.355 23.376 29.354-10.466 29.354-23.376-13.142-23.376-29.354-23.376z" fill="#ff8e9e"></path></g><g fill="#313d40"><path d="M283.801 94.252a7.499 7.499 0 0 0-7.5 7.5v12c0 4.143 3.357 7.5 7.5 7.5s7.5-3.357 7.5-7.5v-12a7.5 7.5 0 0 0-7.5-7.5zM408.698 94.252a7.499 7.499 0 0 0-7.5 7.5v12c0 4.143 3.357 7.5 7.5 7.5s7.5-3.357 7.5-7.5v-12c0-4.143-3.357-7.5-7.5-7.5zM367.642 107.74a7.5 7.5 0 0 0-10.582.727c-2.729 3.132-6.67 4.929-10.811 4.929s-8.08-1.796-10.81-4.928a7.5 7.5 0 1 0-11.309 9.853c5.578 6.402 13.641 10.074 22.118 10.074s16.539-3.672 22.119-10.073a7.5 7.5 0 0 0-.725-10.582z" fill="#313d40"></path></g></g></svg>