<svg id="Layer_1" enable-background="new 0 0 468 468" viewBox="0 0 468 468" xmlns="http://www.w3.org/2000/svg"><g><g><g><circle cx="372.705" cy="111.988" fill="#ffd71a" r="95.295"/></g><g><g><path d="m291.41 111.988c0-50.276 38.934-91.454 88.295-95.039-2.312-.168-4.645-.257-7-.257-52.63 0-95.295 42.665-95.295 95.295s42.665 95.295 95.295 95.295c2.355 0 4.688-.089 7-.257-49.361-3.583-88.295-44.762-88.295-95.037z" fill="#ffb31a"/></g></g><path d="m426.983 130.274c-2.551-1.059-5.476.155-6.533 2.705-7.074 17.074-26.262 28.546-47.746 28.546-21.482 0-40.67-11.471-47.745-28.544-1.057-2.55-3.982-3.763-6.533-2.705s-3.762 3.982-2.705 6.533c8.605 20.765 31.505 34.716 56.983 34.716 25.48 0 48.381-13.952 56.984-34.718 1.057-2.551-.154-5.476-2.705-6.533z" fill="#2a2c41"/><g><g><g><path d="m428.47 96.574c-2.379 0-4.488-1.705-4.918-4.129-1.175-6.637-6.507-11.453-12.677-11.453-6.171 0-11.503 4.816-12.678 11.453-.481 2.72-3.085 4.524-5.796 4.052-2.719-.482-4.533-3.077-4.052-5.796 2.023-11.42 11.496-19.709 22.525-19.709 11.028 0 20.501 8.289 22.524 19.709.57 3.025-1.857 5.903-4.928 5.873z" fill="#2a2c41"/></g></g><g><g><path d="m317.096 96.574c-3.072.028-5.498-2.847-4.929-5.874 2.023-11.42 11.497-19.708 22.524-19.708 11.028 0 20.501 8.289 22.524 19.709.481 2.719-1.333 5.313-4.052 5.796-2.721.476-5.314-1.334-5.796-4.052-1.175-6.637-6.507-11.453-12.677-11.453s-11.502 4.817-12.679 11.454c-.428 2.424-2.536 4.128-4.915 4.128z" fill="#2a2c41"/></g></g></g></g><g><g><g><path d="m326.47 279.457c0-13.559-10.991-24.55-24.55-24.55l-116.932.132-.514.08 2.734-4.882c6.239-7.946 25.937-26.029 31.441-41.271 10.544-29.489 7.31-56.286 4.436-70.221-3.818-23.644-27.621-41.359-42.547-17.756-8.647 16.643-20.15 53.073-27.724 69.65-36.35 3.761-57.755 42.061-57.755 42.061v208.68c16.816 6.529 34.826 9.93 53.113 9.93h153.748c13.559 0 24.55-10.991 24.55-24.55 0-13.558-10.991-24.55-24.55-24.55h-27.52 27.52c13.559 0 24.55-10.991 24.55-24.55 0-13.558-10.991-24.55-24.55-24.55h-27.52 27.52c13.559 0 24.55-10.991 24.55-24.55 0-13.558-10.991-24.55-24.55-24.55h-27.52 27.52c13.559-.003 24.55-10.994 24.55-24.553z" fill="#fdc"/></g></g><g><path d="m316.92 437.308h-153.748c-18.287 0-36.297-3.401-53.113-9.93v-214.044c-9.735 9.951-15 19.364-15 19.364v208.68c16.816 6.529 34.826 9.93 53.113 9.93h153.748c10.265 0 19.053-6.302 22.72-15.246-2.428.804-5.022 1.246-7.72 1.246z" fill="#ffc8c0"/></g><g><g><path d="m39.436 225.306c-2.086 0-8.649 0-10.055 0-16.227 0-29.381 49.635-29.381 110.863s13.154 110.864 29.381 110.864h54.295c6.286 0 11.382-5.096 11.382-11.382v-198.963c0-6.286-5.096-11.382-11.382-11.382z" fill="#ff8353"/></g></g><g><g><path d="m14 336.169c0-61.228 13.154-110.863 29.381-110.863h-3.945c-2.086 0-8.649 0-10.055 0-16.227 0-29.381 49.635-29.381 110.863 0 61.229 13.154 110.864 29.381 110.864h14c-16.227 0-29.381-49.636-29.381-110.864z" fill="#ff5a52"/></g></g></g></g><g/><g/><g/><g/><g/><g/><g/><g/><g/><g/><g/><g/><g/><g/><g/></svg>