<svg viewBox="0 0 512 512" xmlns="http://www.w3.org/2000/svg"><g><path clip-rule="evenodd" d="m406.853 71.632 7.802 6.465c.893.74 1.269 1.845 1.012 2.976s-1.072 1.966-2.198 2.248l-40.193 10.084c-1.233.309-2.424.059-3.428-.72-1.004-.78-1.542-1.871-1.548-3.143l-.212-43.634a2.943 2.943 0 0 1 1.719-2.729 2.943 2.943 0 0 1 3.2.403l6.937 5.749C415.488 6.44 470.567 8.013 492.816 36.622c.548.704.571 1.643.061 2.375a1.976 1.976 0 0 1-2.256.761c-33.25-10.686-71.245 16.763-83.768 31.874z" fill="#fe646f" fill-rule="evenodd"></path><path clip-rule="evenodd" d="M286.233 268.216c3.851 3.851 10.268 3.734 14.261-.259l94.318-94.318c3.993-3.993 4.109-10.41.259-14.261l-53.415-53.415c-3.851-3.851-10.268-3.734-14.261.259l-94.318 94.318c-3.993 3.993-4.109 10.41-.259 14.261z" fill="#ffd064" fill-rule="evenodd"></path><path clip-rule="evenodd" d="M288.629 269.961c3.769 1.927 8.618 1.243 11.864-2.003l94.318-94.318c3.993-3.993 4.109-10.41.259-14.261l-53.415-53.415c-3.041-3.041-7.682-3.607-11.466-1.744a9.491 9.491 0 0 1 2.397 1.744L386 159.379c3.851 3.851 3.734 10.268-.259 14.261l-94.318 94.318a10.512 10.512 0 0 1-2.794 2.003z" fill="#ffc338" fill-rule="evenodd"></path><path clip-rule="evenodd" d="m230.035 207.106 89.238-14.686 14.687-89.238a10.44 10.44 0 0 0-6.565 3.041l-94.318 94.318a10.438 10.438 0 0 0-3.042 6.565z" fill="#ffe177" fill-rule="evenodd"></path><path clip-rule="evenodd" d="M288.629 269.961c3.769 1.927 8.618 1.243 11.864-2.003l94.318-94.318c3.993-3.993 4.109-10.41.259-14.261l-53.415-53.415c-3.041-3.041-7.682-3.607-11.466-1.744a9.491 9.491 0 0 1 2.397 1.744L386 159.379c3.851 3.851 3.734 10.268-.259 14.261l-94.318 94.318a10.512 10.512 0 0 1-2.794 2.003z" fill="#ffc338" fill-rule="evenodd"></path><path clip-rule="evenodd" d="m322.217 174.529-20.835 20.835-7.771 75.655a10.428 10.428 0 0 0 6.882-3.061l94.318-94.318a10.437 10.437 0 0 0 3.061-6.882z" fill="#ffc338" fill-rule="evenodd"></path><path clip-rule="evenodd" d="m294.212 265.169-.601 5.849a10.428 10.428 0 0 0 6.882-3.061l94.318-94.318a10.437 10.437 0 0 0 3.061-6.882l-9.158.941a10.444 10.444 0 0 1-2.972 5.941z" fill="#f5b829" fill-rule="evenodd"></path><path clip-rule="evenodd" d="m230.035 207.106 89.238-14.686 14.687-89.238a10.44 10.44 0 0 0-6.565 3.041l-94.318 94.318a10.438 10.438 0 0 0-3.042 6.565z" fill="#ffe177" fill-rule="evenodd"></path><path clip-rule="evenodd" d="m333.372 106.751.587-3.568a10.363 10.363 0 0 0-3.771 1.037 9.491 9.491 0 0 1 2.397 1.744z" fill="#ffd064" fill-rule="evenodd"></path><path clip-rule="evenodd" d="m395.139 260.394-36.467 192.104c-.649 3.421-3.979 5.689-7.4 5.039l-12.173-2.31c-3.421-.65-5.689-3.98-5.039-7.401l36.467-192.104c.649-3.421 3.98-5.689 7.4-5.039l12.172 2.311c3.422.649 5.689 3.979 5.04 7.4z" fill="#8d9ca8" fill-rule="evenodd"></path><path clip-rule="evenodd" d="m445.641 203.851-53.611 273.76C389.917 488.4 380.684 496 369.69 496H218.243c-10.994 0-20.227-7.599-22.34-18.389l-53.612-273.76c-.297-1.518.064-2.946 1.047-4.141s2.315-1.823 3.863-1.823h293.53c1.547 0 2.879.629 3.862 1.823.984 1.195 1.345 2.622 1.048 4.141z" fill="#8192a5" fill-rule="evenodd"></path><path clip-rule="evenodd" d="m445.641 203.851-53.611 273.76C389.917 488.4 380.684 496 369.69 496h-10c10.994 0 20.226-7.599 22.339-18.389l53.611-273.76c.297-1.518-.064-2.946-1.047-4.141s-2.315-1.823-3.862-1.823h10c1.547 0 2.879.629 3.862 1.823.984 1.195 1.345 2.622 1.048 4.141z" fill="#65788e" fill-rule="evenodd"></path><path clip-rule="evenodd" d="m395.139 260.394-36.467 192.104c-.649 3.421-3.979 5.689-7.4 5.039l-12.173-2.31c-3.421-.65-5.689-3.98-5.039-7.401l36.467-192.104c.649-3.421 3.98-5.689 7.4-5.039l12.172 2.311c3.422.649 5.689 3.979 5.04 7.4z" fill="#9facba" fill-rule="evenodd"></path><path clip-rule="evenodd" d="M356.017 456.54a6.308 6.308 0 0 1-4.745.997l-12.173-2.31c-3.421-.65-5.689-3.98-5.039-7.401l36.467-192.104c.649-3.421 3.98-5.689 7.4-5.039l5.255.997a6.31 6.31 0 0 0-2.655 4.042L344.06 447.826c-.649 3.421 1.618 6.751 5.039 7.401z" fill="#8d9ca8" fill-rule="evenodd"></path><path clip-rule="evenodd" d="M306.497 249.327v195.534c0 3.482-2.849 6.331-6.331 6.331h-12.39c-3.482 0-6.331-2.849-6.331-6.331V249.327c0-3.482 2.849-6.331 6.331-6.331h12.39c3.482 0 6.331 2.849 6.331 6.331z" fill="#9facba" fill-rule="evenodd"></path><path clip-rule="evenodd" d="M297.776 451.192h-10c-3.482 0-6.331-2.849-6.331-6.331V249.327c0-3.482 2.849-6.331 6.331-6.331h10c-3.482 0-6.331 2.849-6.331 6.331v195.534c0 3.482 2.849 6.331 6.331 6.331z" fill="#8d9ca8" fill-rule="evenodd"></path><path clip-rule="evenodd" d="m193.01 260.394 36.467 192.104c.649 3.421 3.98 5.689 7.401 5.039l12.173-2.31c3.421-.65 5.689-3.98 5.039-7.401l-36.467-192.104c-.649-3.421-3.98-5.689-7.401-5.039l-12.173 2.311c-3.421.649-5.688 3.979-5.039 7.4z" fill="#9facba" fill-rule="evenodd"></path><path clip-rule="evenodd" d="m193.01 260.394 36.467 192.104c.649 3.421 3.98 5.689 7.401 5.039l5.255-.997a6.31 6.31 0 0 1-2.655-4.042L203.01 260.394c-.649-3.421 1.618-6.751 5.039-7.4l6.918-1.313a6.31 6.31 0 0 0-4.746-.997l-12.173 2.311c-3.42.648-5.687 3.978-5.038 7.399z" fill="#8d9ca8" fill-rule="evenodd"></path><path clip-rule="evenodd" d="m100.314 238.315-18.483 18.483-29.114-29.114c-5.433-5.434-5.433-14.297 0-19.731l95.347-95.347c5.433-5.434 14.297-5.434 19.731 0l29.114 29.114-18.483 18.484-21.521-21.521-78.111 78.111z" fill="#8192a5" fill-rule="evenodd"></path><path clip-rule="evenodd" d="M21.242 317.388 257.498 81.132c3.314-3.313 8.735-3.313 12.049 0l11.789 11.789c3.313 3.313 3.313 8.735 0 12.049L45.08 341.226c-3.314 3.313-8.736 3.313-12.049 0l-11.789-11.789c-3.314-3.314-3.314-8.736 0-12.049z" fill="#8192a5" fill-rule="evenodd"></path><path clip-rule="evenodd" d="M258.522 80.258c3.325-2.408 8.034-2.118 11.025.873l11.789 11.789c3.313 3.313 3.313 8.735 0 12.049L45.08 341.226c-2.991 2.991-7.699 3.281-11.025.873.359-.26.702-.551 1.024-.873L271.336 104.97c3.314-3.313 3.314-8.735 0-12.049l-11.789-11.789a8.496 8.496 0 0 0-1.025-.874z" fill="#65788e" fill-rule="evenodd"></path></g></svg>