<svg viewBox="0 0 490 490" xmlns="http://www.w3.org/2000/svg"><g><path d="M478.975 162.364s24.807 154.678 0 218.883-140.086 106.524-140.086 106.524-115.279-42.317-140.085-106.523 0-218.883 0-218.883h280.171z" fill="#69d8e4"></path><path d="M338.874 487.764c-1.78-.65-115.45-42.81-140.07-106.52-24.8-64.2 0-218.88 0-218.88h65.36s-13.23 154.68 0 218.88c13.1 63.54 73.45 105.65 74.71 106.52z" fill="#02b0cc"></path><path d="M291.196 2.229s24.807 154.678 0 218.883-140.085 106.524-140.085 106.524S35.832 285.318 11.025 221.113s0-218.883 0-218.883h280.171z" fill="#fba615"></path><path d="M151.095 327.633c-1.78-.65-115.45-42.81-140.07-106.52-24.8-64.2 0-218.88 0-218.88h65.36s-13.23 154.68 0 218.88c13.1 63.54 73.45 105.65 74.71 106.52z" fill="#fc840d"></path><g fill="#544f57"><path d="M172.154 151.622c0-25.69 20.83-46.52 46.52-46.52 25.7 0 46.52 20.83 46.52 46.52 0 1.45-.07 2.89-.2 4.31-13.55-8.08-29.39-12.72-46.32-12.72-16.92 0-32.77 4.64-46.32 12.72-.13-1.42-.2-2.86-.2-4.31zM37.027 151.622c0-25.69 20.83-46.52 46.52-46.52 25.7 0 46.52 20.83 46.52 46.52 0 1.45-.07 2.89-.2 4.31-13.55-8.08-29.39-12.72-46.32-12.72-16.92 0-32.77 4.64-46.32 12.72-.13-1.42-.2-2.86-.2-4.31zM203.743 195.385c0 32.413-26.281 58.694-58.694 58.694-32.425 0-58.694-26.281-58.694-58.694 0-1.83.088-3.646.252-5.438 17.096 10.195 37.081 16.049 58.441 16.049 21.348 0 41.346-5.854 58.441-16.049.165 1.792.254 3.609.254 5.438zM307.822 273.552c8.786 24.141-3.663 50.839-27.804 59.625-24.15 8.79-50.839-3.663-59.625-27.804a47.142 47.142 0 0 1-1.286-4.119c15.496 2.958 31.968 1.901 47.877-3.89 15.9-5.787 29.207-15.568 39.176-27.795a47.387 47.387 0 0 1 1.662 3.983zM457.386 305.373c-8.786 24.141-35.485 36.59-59.625 27.804-24.15-8.79-36.59-35.485-27.804-59.625a47.228 47.228 0 0 1 1.662-3.982c9.969 12.227 23.267 22.005 39.176 27.795 15.9 5.787 32.381 6.848 47.877 3.89a47.705 47.705 0 0 1-1.286 4.118zM280.196 417.419c0-32.413 26.281-58.694 58.694-58.694 32.425 0 58.694 26.281 58.694 58.694 0 1.83-.088 3.646-.252 5.438-17.096-10.195-37.081-16.049-58.441-16.049-21.348 0-41.346 5.854-58.441 16.049a58.96 58.96 0 0 1-.254-5.438z" fill="#544f57"></path></g><path d="M401.577 57.84a7.5 7.5 0 0 1-7.5-7.5V27.395c0-4.142 3.357-7.5 7.5-7.5s7.5 3.358 7.5 7.5V50.34a7.5 7.5 0 0 1-7.5 7.5zM401.577 119.693a7.5 7.5 0 0 1-7.5-7.5V89.247c0-4.142 3.357-7.5 7.5-7.5s7.5 3.358 7.5 7.5v22.945a7.5 7.5 0 0 1-7.5 7.501zM443.976 77.294h-22.945c-4.143 0-7.5-3.358-7.5-7.5s3.357-7.5 7.5-7.5h22.945a7.5 7.5 0 0 1 0 15zM382.123 77.294h-22.945c-4.143 0-7.5-3.358-7.5-7.5s3.357-7.5 7.5-7.5h22.945c4.143 0 7.5 3.358 7.5 7.5s-3.357 7.5-7.5 7.5z" fill="#1dd08d"></path><path d="M75.341 380.601a7.5 7.5 0 0 1-7.5-7.5v-19.983c0-4.142 3.357-7.5 7.5-7.5s7.5 3.358 7.5 7.5v19.983c0 4.143-3.357 7.5-7.5 7.5zM75.341 434.469a7.5 7.5 0 0 1-7.5-7.5v-19.983c0-4.142 3.357-7.5 7.5-7.5s7.5 3.358 7.5 7.5v19.983a7.5 7.5 0 0 1-7.5 7.5zM112.267 397.544H92.283c-4.143 0-7.5-3.358-7.5-7.5s3.357-7.5 7.5-7.5h19.983c4.143 0 7.5 3.358 7.5 7.5s-3.357 7.5-7.499 7.5zM58.399 397.544H38.416c-4.143 0-7.5-3.358-7.5-7.5s3.357-7.5 7.5-7.5h19.982c4.143 0 7.5 3.358 7.5 7.5s-3.357 7.5-7.499 7.5z" fill="#fa6931"></path></g></svg>