<svg viewBox="0 0 512 512" xmlns="http://www.w3.org/2000/svg"><g><path d="M98.25 39.554h366V279.32h-366z" fill="#0052b4"></path><g fill-rule="evenodd"><path d="m281.727 75.8 4.294 13.3a.5.5 0 0 0 .478.348l13.978-.027a.5.5 0 0 1 .3.908l-11.324 8.194a.5.5 0 0 0-.183.562l4.345 13.285a.5.5 0 0 1-.772.562l-11.298-8.232a.5.5 0 0 0-.591 0l-11.292 8.238a.5.5 0 0 1-.773-.562l4.345-13.285a.494.494 0 0 0-.183-.562l-11.323-8.194a.5.5 0 0 1 .3-.908l13.972.025a.5.5 0 0 0 .479-.348l4.293-13.3a.5.5 0 0 1 .955 0zM340.726 100.636l-6.37 12.442a.5.5 0 0 0 .093.584l9.9 9.864a.5.5 0 0 1-.434.851l-13.8-2.213a.5.5 0 0 0-.527.268l-6.32 12.468a.5.5 0 0 1-.943-.15l-2.16-13.809a.5.5 0 0 0-.418-.418l-13.81-2.16a.5.5 0 0 1-.149-.944l12.466-6.321a.493.493 0 0 0 .268-.527l-2.213-13.8a.5.5 0 0 1 .851-.434l9.865 9.9a.5.5 0 0 0 .584.092l12.442-6.369a.5.5 0 0 1 .675.675zM364.884 159.914l-13.3 4.294a.494.494 0 0 0-.347.478l.027 13.978a.5.5 0 0 1-.908.3l-8.194-11.324a.5.5 0 0 0-.563-.183l-13.287 4.343a.5.5 0 0 1-.561-.772l8.237-11.293a.494.494 0 0 0 0-.591l-8.237-11.292a.5.5 0 0 1 .561-.773l13.285 4.345a.5.5 0 0 0 .563-.183l8.194-11.324a.5.5 0 0 1 .908.3l-.027 13.977a.5.5 0 0 0 .347.479l13.3 4.293a.5.5 0 0 1 0 .955zM340.051 218.913l-12.442-6.37a.5.5 0 0 0-.584.093l-9.865 9.9a.5.5 0 0 1-.851-.433l2.213-13.8a.492.492 0 0 0-.268-.526l-12.466-6.322a.5.5 0 0 1 .149-.943l13.81-2.16a.5.5 0 0 0 .418-.419l2.16-13.809a.5.5 0 0 1 .943-.15l6.322 12.467a.493.493 0 0 0 .527.268l13.8-2.213a.5.5 0 0 1 .434.851l-9.9 9.864a.5.5 0 0 0-.093.585l6.37 12.441a.5.5 0 0 1-.675.676zM280.772 243.071l-4.293-13.3a.5.5 0 0 0-.479-.347l-13.977.026a.5.5 0 0 1-.3-.907l11.323-8.195a.494.494 0 0 0 .183-.562l-4.34-13.286a.5.5 0 0 1 .773-.561l11.292 8.237a.494.494 0 0 0 .591 0l11.293-8.237a.5.5 0 0 1 .772.561l-4.345 13.285a.5.5 0 0 0 .183.562l11.324 8.195a.5.5 0 0 1-.3.907l-13.978-.026a.494.494 0 0 0-.478.347l-4.294 13.3a.5.5 0 0 1-.955 0zM221.774 218.237l6.369-12.441a.5.5 0 0 0-.092-.585l-9.9-9.864a.5.5 0 0 1 .433-.851l13.8 2.213a.493.493 0 0 0 .527-.268l6.322-12.467a.5.5 0 0 1 .943.15l2.16 13.809a.5.5 0 0 0 .418.419l13.81 2.16a.5.5 0 0 1 .149.943l-12.467 6.322a.5.5 0 0 0-.268.526l2.213 13.8a.5.5 0 0 1-.851.433l-9.864-9.9a.5.5 0 0 0-.584-.093l-12.442 6.37a.5.5 0 0 1-.675-.676zM197.616 158.959l13.3-4.293a.5.5 0 0 0 .348-.479l-.027-13.977a.5.5 0 0 1 .908-.3l8.194 11.324a.494.494 0 0 0 .562.183l13.286-4.345a.5.5 0 0 1 .561.773l-8.238 11.292a.5.5 0 0 0 0 .591l8.238 11.293a.5.5 0 0 1-.561.772l-13.287-4.341a.5.5 0 0 0-.562.183l-8.194 11.324a.5.5 0 0 1-.908-.3l.027-13.978a.5.5 0 0 0-.348-.478l-13.3-4.294a.5.5 0 0 1 0-.955zM222.449 99.961l12.442 6.369a.5.5 0 0 0 .584-.092l9.864-9.9a.5.5 0 0 1 .851.434l-2.213 13.8a.5.5 0 0 0 .268.527l12.467 6.321a.5.5 0 0 1-.149.944l-13.81 2.16a.494.494 0 0 0-.418.418l-2.16 13.809a.5.5 0 0 1-.943.15l-6.322-12.467a.5.5 0 0 0-.527-.268l-13.8 2.213a.5.5 0 0 1-.433-.851l9.9-9.864a.5.5 0 0 0 .092-.584l-6.369-12.442a.5.5 0 0 1 .675-.675z" fill="#ffda44"></path><path d="M98.25 26.978h8.865V13.489A13.529 13.529 0 0 0 93.625 0H84.37a13.529 13.529 0 0 0-13.489 13.489v13.489z" fill="#cdd3da"></path></g><path d="M79.746 26.978H98.25v449.366H79.746z" fill="#e6eaee"></path><path d="M47.75 512h82.5v-12.721a12.756 12.756 0 0 0-12.72-12.719H60.47a12.757 12.757 0 0 0-12.72 12.719z" fill="#aab5bd" fill-rule="evenodd"></path><path d="M67.507 486.56h42.982v-5.108a5.122 5.122 0 0 0-5.107-5.108H72.614a5.122 5.122 0 0 0-5.107 5.108z" fill="#cdd3da" fill-rule="evenodd"></path></g></svg>