<svg viewBox="0 0 512 512" xmlns="http://www.w3.org/2000/svg"><g><path d="M0 108.99h512v342.131H0z" fill="#90bc42"></path><path d="M35.369 143.681h441.265v265.57H35.369z" fill="#666666"></path><path d="M436.167 132.94c8.991-5.78 14.953-15.866 14.953-27.35 0-17.95-14.551-32.5-32.5-32.5-.233 0-.464.013-.697.018-1.69-16.361-15.517-29.122-32.325-29.122-17.95 0-32.5 14.551-32.5 32.5s9.374 68.266 9.374 79.75c0 17.95 33.095 32.5 51.043 32.5 17.95 0 32.5-14.551 32.5-32.5-.001-9.138-3.777-17.391-9.848-23.296z" fill="#e6e6e6"></path><path d="M75.276 132.94c-8.991-5.78-14.953-15.866-14.953-27.35 0-17.95 14.551-32.5 32.5-32.5.233 0 .464.013.697.018 1.69-16.361 15.517-29.122 32.325-29.122 17.95 0 32.5 14.551 32.5 32.5s-9.374 68.266-9.374 79.75c0 17.95-33.095 32.5-51.043 32.5-17.95 0-32.5-14.551-32.5-32.5-.001-9.138 3.777-17.391 9.848-23.296z" fill="#cccccc"></path><path d="M312.413 311.35H199.595c-40.86 0-73.984 33.123-73.984 73.984v108.598h260.785V385.334c0-40.86-33.123-73.984-73.983-73.984z" fill="#999999"></path><path d="M245.18 311.35h-45.585c-40.86 0-73.984 33.123-73.984 73.984v108.598h45.585V385.334c0-40.86 33.123-73.984 73.984-73.984z" fill="#808080"></path><path d="M131.682 210.239c-14.834-.658-26.641-12.896-26.641-27.885 0-15.408 12.489-27.909 27.909-27.909 1.388 0 2.751.096 4.091.299M380.289 210.239c14.834-.658 26.653-12.896 26.653-27.885 0-15.408-12.501-27.909-27.921-27.909-1.388 0-2.763.108-4.091.299" fill="#e0b394"></path><path d="M330.168 283.438v80.352l-32.299 3.589 9.57 32.299-51.435 63.401-51.436-63.401 9.57-32.299-32.299-3.589v-80.352z" fill="#666666"></path><path d="M293.081 314.939 256 421.406l-37.081-106.467z" fill="#cccccc"></path><path d="m215.623 330.863-49.105-35.677a90.542 90.542 0 0 1-36.902-81.957l8.517-88.138c5.866-60.704 56.879-107.025 117.865-107.025 60.987 0 111.999 46.32 117.865 107.025l8.517 88.138a90.54 90.54 0 0 1-36.902 81.957l-49.105 35.677c-24.075 17.49-56.676 17.49-80.75 0z" fill="#f7cba4"></path><path d="M160.173 230.598a54.66 54.66 0 0 0 12.716 38.4l51.323 63.067c2.68 3.194 5.718 5.874 9.008 8.015a68.267 68.267 0 0 1-17.597-9.223l-49.107-35.673a90.534 90.534 0 0 1-36.893-81.956l8.505-88.141c5.814-60.112 55.889-106.12 116.097-106.994-37.084.897-79.076 35.852-81.266 73.08l-12.786 139.425z" fill="#e8ba97"></path><path d="M303.264 443.943h56.224v23.925h-56.224z" fill="#666666"></path><path d="M312.498 86.599a4.77 4.77 0 0 1-2.408-.653c-29.829-17.414-78.356-17.414-108.18 0a4.785 4.785 0 1 1-4.825-8.265c32.483-18.967 85.344-18.968 117.829 0a4.785 4.785 0 0 1-2.416 8.918zM218.91 109.203a4.785 4.785 0 0 1-1.401-9.362c24.09-7.38 52.863-7.383 76.97-.012a4.785 4.785 0 0 1-2.799 9.152c-22.35-6.834-49.029-6.831-71.367.012-.468.141-.939.21-1.403.21z" fill="#e0b394"></path><path d="M268.561 327.304 256 372.958l-12.561-45.654c-1.908-6.937 2.168-14.108 9.105-16.017 6.937-1.908 14.108 2.168 16.017 9.105.641 2.33.591 4.738 0 6.912z" fill="#ffffff"></path><path d="M105.278 236.388H68.194c-4.956 0-8.972-4.017-8.972-8.972s4.016-8.972 8.972-8.972h37.084c4.956 0 8.972 4.017 8.972 8.972s-4.016 8.972-8.972 8.972zM105.278 274.668H68.194a8.971 8.971 0 0 1-8.972-8.972 8.971 8.971 0 0 1 8.972-8.972h37.084a8.971 8.971 0 0 1 8.972 8.972 8.971 8.971 0 0 1-8.972 8.972zM122.026 312.949H68.194a8.971 8.971 0 0 1-8.972-8.972 8.971 8.971 0 0 1 8.972-8.972h53.832a8.971 8.971 0 0 1 8.972 8.972 8.971 8.971 0 0 1-8.972 8.972zM437.839 312.949h-46.654a8.971 8.971 0 0 1-8.972-8.972 8.971 8.971 0 0 1 8.972-8.972h46.654a8.971 8.971 0 0 1 8.972 8.972 8.971 8.971 0 0 1-8.972 8.972z" fill="#cccccc"></path><path d="M248.822 421.405h14.355v72.529h-14.355z" fill="#666666"></path><path d="M302.83 253.727s-.682 1.675-2.117 4.319c-.347.682-.754 1.4-1.208 2.177-.538.766-1.16 1.543-1.83 2.416-.67.873-1.436 1.759-2.249 2.739a9.253 9.253 0 0 1-.933 1.005c-.12.12-.251.239-.383.359-.467.431-.945.885-1.435 1.34-.981.921-2.046 1.83-3.158 2.787-1.172.861-2.428 1.675-3.72 2.56-.646.443-1.316.873-1.998 1.304-.682.407-1.412.742-2.153 1.113a123.995 123.995 0 0 1-4.546 2.177c-3.23 1.101-6.591 2.393-10.18 2.931-3.541.825-7.237.957-10.922 1.136-3.684-.179-7.381-.299-10.922-1.124-3.589-.538-6.95-1.83-10.18-2.931a117.273 117.273 0 0 1-4.558-2.165c-.73-.371-1.459-.706-2.153-1.113-.67-.443-1.34-.861-1.986-1.304-1.292-.885-2.56-1.711-3.732-2.56a136.155 136.155 0 0 1-3.158-2.787c-.49-.467-.957-.909-1.424-1.352l-.502-.467c-.287-.287-.562-.562-.801-.885-.778-.945-1.531-1.818-2.189-2.68-.646-.873-1.28-1.639-1.806-2.404-.479-.813-.921-1.555-1.292-2.237-1.495-2.727-2.117-4.354-2.117-4.354s1.77.538 4.498 1.639c.694.263 1.412.586 2.213.909.849.251 1.723.574 2.656.885.945.311 1.89.694 2.895 1.053.993.383 2.117.634 3.23.969 1.113.323 2.225.718 3.385 1.065 1.208.263 2.416.574 3.661.873.622.144 1.232.323 1.854.49.634.144 1.292.227 1.938.359a74.21 74.21 0 0 1 3.912.79c2.716.251 5.395.849 8.194.957 2.763.359 5.587.263 8.386.431 2.811-.167 5.634-.06 8.398-.419 2.799-.096 5.479-.706 8.194-.957a91.652 91.652 0 0 1 3.912-.778c.646-.132 1.304-.215 1.938-.359a38.625 38.625 0 0 1 1.854-.49c1.244-.299 2.452-.622 3.661-.873 1.172-.347 2.285-.742 3.397-1.065 1.101-.335 2.249-.598 3.206-.969.981-.335 1.902-.706 2.835-.993.921-.311 1.782-.622 2.632-.873.837-.359 1.579-.706 2.285-.981 2.783-1.161 4.518-1.663 4.518-1.663z" fill="#f2f2f2"></path><path d="M294.492 266.383c-.12.12-.251.239-.383.359-.467.431-.945.885-1.435 1.34-.981.921-2.046 1.83-3.158 2.787-1.172.861-2.428 1.675-3.72 2.56-.646.443-1.316.873-1.998 1.304-.682.407-1.412.742-2.153 1.113a123.995 123.995 0 0 1-4.546 2.177c-3.23 1.101-6.591 2.393-10.18 2.931-3.541.825-7.237.957-10.922 1.136-3.684-.179-7.381-.299-10.922-1.124-3.589-.538-6.95-1.83-10.18-2.931a117.273 117.273 0 0 1-4.558-2.165c-.73-.371-1.459-.706-2.153-1.113-.67-.443-1.34-.861-1.986-1.304-1.292-.885-2.56-1.711-3.732-2.56a136.155 136.155 0 0 1-3.158-2.787c-.49-.467-.957-.909-1.424-1.352l-.502-.467c.383.132.766.263 1.16.395.945.311 1.89.682 2.895 1.041.993.395 2.117.646 3.23.981 1.113.323 2.225.706 3.385 1.065 1.208.251 2.416.574 3.661.873.622.144 1.232.311 1.854.479.634.144 1.292.227 1.938.359 1.304.227 2.608.502 3.912.79 2.716.263 5.395.861 8.194.957 2.763.371 5.587.263 8.386.443 2.811-.167 5.634-.06 8.398-.431 2.799-.096 5.479-.694 8.194-.945a91.815 91.815 0 0 1 3.912-.79c.646-.132 1.304-.215 1.938-.359.622-.167 1.244-.335 1.854-.478 1.244-.299 2.452-.622 3.661-.873 1.172-.359 2.285-.754 3.397-1.065 1.101-.335 2.249-.61 3.206-.969.981-.347 1.902-.706 2.835-1.005.37-.121.741-.252 1.1-.372zM202.746 213.654a8.972 8.972 0 0 1-8.972-8.972v-14.35a8.972 8.972 0 0 1 17.944 0v14.35a8.972 8.972 0 0 1-8.972 8.972z" fill="#4d4d4d"></path><path d="M288.742 155.64s.024-.238.104-.647c.092-.396.185-1.022.386-1.73.09-.366.206-.748.339-1.168.173-.426.407-.854.654-1.34.245-.488.555-.97.88-1.512.328-.55.719-.968 1.12-1.499.407-.511.865-1.005 1.343-1.536.506-.48 1.055-.952 1.639-1.427 1.142-1.006 2.538-1.733 3.993-2.542 1.505-.636 3.102-1.327 4.813-1.646 1.694-.44 3.47-.544 5.242-.627 1.772.081 3.549.176 5.244.614 1.712.316 3.31 1.01 4.816 1.641 1.456.807 2.853 1.534 3.997 2.541.583.476 1.133.95 1.64 1.427.479.532.934 1.031 1.343 1.538.395.529.805.963 1.105 1.492.301.526.593.998.83 1.475.236.479.464.9.636 1.324.157.443.296.843.398 1.223.227.733.322 1.364.409 1.759.077.408.093.64.093.64s-.248-.006-.666-.047c-.407-.053-1.038-.079-1.736-.181-.361-.037-.73-.104-1.135-.158-.432-.02-.858-.08-1.321-.116-.908-.096-1.855-.238-2.897-.279-.512-.034-1.008-.108-1.528-.151a26.108 26.108 0 0 1-1.593-.074c-1.031-.134-2.152-.055-3.193-.185-1.095.039-2.142-.094-3.228-.061-1.067-.08-2.146.005-3.217-.071-1.071.073-2.15-.02-3.219.057-1.086-.038-2.134.1-3.231.056-1.042.129-2.165.049-3.196.184-.526.039-1.056.068-1.595.074-.519.043-1.013.122-1.528.153-1.062.057-1.945.158-2.832.234l-1.304.099c-.429.078-.822.164-1.195.213-.724.128-1.357.158-1.759.209-.412.044-.651.044-.651.044zM182.234 155.64s.024-.238.104-.647c.092-.396.185-1.022.386-1.73.09-.366.206-.748.339-1.168.173-.426.407-.854.654-1.34.245-.488.555-.97.88-1.512.328-.55.719-.968 1.12-1.499.407-.511.865-1.005 1.343-1.536.506-.48 1.055-.952 1.639-1.427 1.142-1.006 2.538-1.733 3.993-2.542 1.505-.636 3.102-1.327 4.813-1.646 1.694-.44 3.47-.544 5.242-.627 1.772.081 3.549.176 5.244.614 1.712.316 3.31 1.01 4.816 1.641 1.456.807 2.853 1.534 3.997 2.541.583.476 1.133.95 1.64 1.427.479.532.934 1.031 1.343 1.538.395.529.805.963 1.105 1.492.301.526.593.998.83 1.475.236.479.464.9.636 1.324.157.443.295.843.398 1.223.227.733.322 1.364.409 1.759.077.408.093.64.093.64s-.248-.006-.666-.047c-.407-.053-1.038-.079-1.736-.181-.361-.037-.73-.104-1.135-.158-.432-.02-.858-.08-1.321-.116-.908-.096-1.855-.238-2.897-.279-.512-.034-1.008-.108-1.528-.151a26.108 26.108 0 0 1-1.593-.074c-1.031-.134-2.152-.055-3.193-.185-1.095.039-2.143-.094-3.228-.061-1.067-.08-2.146.005-3.217-.071-1.071.073-2.15-.02-3.219.057-1.086-.038-2.134.1-3.231.056-1.042.129-2.165.049-3.196.184-.526.039-1.056.068-1.595.074-.519.043-1.013.122-1.528.153-1.062.057-1.945.158-2.832.234l-1.304.099c-.429.078-.822.164-1.195.213-.724.128-1.357.158-1.759.209-.412.044-.651.044-.651.044z" fill="#666666"></path><path d="M309.254 213.654a8.972 8.972 0 0 1-8.972-8.972v-14.35a8.972 8.972 0 0 1 17.944 0v14.35a8.972 8.972 0 0 1-8.972 8.972z" fill="#4d4d4d"></path><path d="M269.757 177.173v42.467c0 7.597-6.16 13.757-13.757 13.757-7.597 0-13.757-6.16-13.757-13.757v-42.467" fill="#e8ba97"></path></g></svg>