<svg viewBox="0 0 58 58" xmlns="http://www.w3.org/2000/svg"><g><g fill="none" fill-rule="nonzero"><circle cx="29" cy="29" fill="#3f5c6c" r="29"></circle><path d="m45.69 45.69.27.26a23.937 23.937 0 0 1-33.92.01l.31-.31 3.93-3.93a18 18 0 1 1 25.44 0z" fill="#ecf0f1"></path><path d="M50.04 17.46a23.995 23.995 0 0 0-32.58 32.58 24 24 0 1 1 32.58-32.58z" fill="#ffffff"></path><path d="M53 29a23.865 23.865 0 0 1-7.04 16.95l-.27-.26-3.97-3.97A17.944 17.944 0 0 0 47 29z" fill="#4fba6f"></path><path d="M53 29h-6a17.944 17.944 0 0 0-5.28-12.72l3.73-3.73.51-.51A23.888 23.888 0 0 1 53 29z" fill="#24ae5f"></path><path d="m45.96 12.04-.51.51-3.73 3.73A17.944 17.944 0 0 0 29 11V5a23.888 23.888 0 0 1 16.96 7.04zM29 5v6a17.944 17.944 0 0 0-12.72 5.28l-4.24-4.24A23.888 23.888 0 0 1 29 5z" fill="#f0c419"></path><path d="M16.28 16.28A17.944 17.944 0 0 0 11 29H5a23.888 23.888 0 0 1 7.04-16.96z" fill="#e57e25"></path><path d="m16.28 41.72-3.93 3.93-.31.31A23.888 23.888 0 0 1 5 29h6a17.944 17.944 0 0 0 5.28 12.72zM27.425 25.32l5.783-8.936a.9.9 0 0 1 1.629.666L32.7 27.478z" fill="#e64c3c"></path><circle cx="29" cy="29" fill="#3f5c6c" r="4"></circle><circle cx="29" cy="29" fill="#ecf0f1" r="1"></circle><path d="M53 29h-6a17.944 17.944 0 0 0-5.28-12.72l1.34-1.34a23.4 23.4 0 0 1 6.98 2.52A23.8 23.8 0 0 1 53 29z" fill="#4fba6f"></path><path d="m43.06 14.94-1.34 1.34a17.827 17.827 0 0 0-2.03-1.75 23.5 23.5 0 0 1 3.37.41z" fill="#f3d55b"></path><path d="m16.28 41.72-1.34 1.34a23.5 23.5 0 0 1-.41-3.37c.532.72 1.117 1.398 1.75 2.03z" fill="#c03a2b"></path><g fill="#95a5a5"><path d="M15.167 30h-10a1 1 0 0 1 0-2h10a1 1 0 0 1 0 2zM12.512 46.654a1 1 0 0 1-.707-1.707l6.755-6.755a1 1 0 0 1 1.414 1.414l-6.755 6.755a.993.993 0 0 1-.707.293zM45.854 46.687a1 1 0 0 1-.707-.293l-6.788-6.788a1 1 0 0 1 1.414-1.414l6.788 6.788a1 1 0 0 1-.707 1.707zM53.167 30h-10a1 1 0 0 1 0-2h10a1 1 0 0 1 0 2zM39.066 20.1a1 1 0 0 1-.707-1.707l6.548-6.549a1 1 0 1 1 1.414 1.414l-6.548 6.549a1 1 0 0 1-.707.293zM29 16a1 1 0 0 1-1-1V5a1 1 0 0 1 2 0v10a1 1 0 0 1-1 1zM19.267 20.1a1 1 0 0 1-.707-.293l-7.06-7.06a1 1 0 0 1 1.414-1.414l7.06 7.06a1 1 0 0 1-.707 1.707z" fill="#95a5a5"></path></g><path d="M29.167 54c-13.807 0-25-11.193-25-25s11.193-25 25-25 25 11.193 25 25c-.015 13.8-11.2 24.985-25 25zm0-48c-12.703 0-23 10.297-23 23s10.297 23 23 23 23-10.297 23-23c-.014-12.697-10.303-22.986-23-23z" fill="#d1d4d1"></path></g></g></svg>