<svg viewBox="0 0 512 512" xmlns="http://www.w3.org/2000/svg"><g><path d="M213.712 135.5h-30V90.25l30-75.25z" fill="#384949"></path><path d="M198.712 135.5h15V15l-15 37.625z" fill="#151f1f"></path><path d="m316.535 339.726-52.77-106.61c-3.646-7.366-12.542-10.426-19.949-6.862l-44.979 21.648-45.058-22.529c-7.409-3.705-16.419-.701-20.125 6.708L4.546 490.292A15 15 0 0 0 17.962 512h210.88a15 15 0 0 0 13.454-8.368l74.25-150.62a14.998 14.998 0 0 0-.011-13.286z" fill="#a44e3f"></path><path d="M289.087 90.25H183.712V15c0-8.284 6.716-15 15-15h90.016c5.139 0 10.073 2.437 12.885 6.739a15.009 15.009 0 0 1-1.919 18.868l-19.518 19.519L299.44 64.39c3.634 3.634 5.399 8.846 4.346 13.876a15.011 15.011 0 0 1-14.699 11.984z" fill="#ff4c5b"></path><path d="M289.087 90.25a15.01 15.01 0 0 0 14.698-11.985c1.053-5.03-.713-10.242-4.346-13.876l-19.264-19.264 19.518-19.519a15.01 15.01 0 0 0 1.919-18.868C298.8 2.437 293.867 0 288.728 0h-90.016v90.25z" fill="#d90048"></path><path d="M263.765 233.116c-3.646-7.366-12.542-10.426-19.949-6.862l-44.979 21.648-.126-.063V512h5.922l111.912-158.988a15 15 0 0 0-.011-13.287z" fill="#87363e"></path><path d="m507.454 490.292-91.86-183.72c-3.666-7.332-12.539-10.364-19.924-6.807l-37.226 17.925-36.696-18.356a14.995 14.995 0 0 0-11.453-.815c-3.775 1.258-7.779 5.732-9.558 9.291L198.71 512h295.328a15 15 0 0 0 13.416-21.708z" fill="#ca5742"></path><path d="M416.214 307.81c-3.666-7.332-13.158-11.602-20.543-8.045l-37.192 17.909V512h135.56a15 15 0 0 0 13.417-21.708z" fill="#a44e3f"></path><path d="m415.595 306.573-43.7-87.41a14.999 14.999 0 0 0-26.833 0l-44.324 88.648 48.844 38.312c2.192 1.832 4.877 3.052 7.728 3.244.336.023.672.034 1.009.034h.067c3.12-.014 6.118-1.222 8.537-3.192z" fill="#eef8ff"></path><path d="m366.922 346.208 49.292-38.397-44.319-88.648a14.999 14.999 0 0 0-13.416-8.292v138.525c3.085-.039 6.048-1.238 8.443-3.188z" fill="#d9e9fa"></path><path d="m263.765 233.116-51.623-104.297a14.952 14.952 0 0 0-13.4-8.319h-.03a14.998 14.998 0 0 0-13.416 8.292l-51.64 103.29 56.427 44.431c2.189 1.724 4.819 2.87 7.599 3.061.343.024.687.035 1.031.035h.067c3.061-.014 6.011-1.155 8.438-3.021z" fill="#eef8ff"></path><path d="M198.779 279.61c3.061-.014 6.011-1.155 8.438-3.021l56.548-43.473-51.623-104.297a14.952 14.952 0 0 0-13.4-8.319h-.03v159.11z" fill="#d9e9fa"></path></g></svg>