<svg viewBox="0 0 496 496" xmlns="http://www.w3.org/2000/svg"><g><path d="M464.99 0h-34.22c-13.563 8.376-26.337 8.825-38.19 0h-34.29c-11.535 13.169-21.755 14.525-30.21 0h-36.2c-9.591 13.255-24.964 11.291-43.88 0h-43.88c-5.874 12.922-18.563 11.624-36.2 0h-30.21c-12.195 9.435-23.745 10.914-34.29 0H65.23C51.979 15.489 40.464 16.4 31.01 0H0v107.05c9.542 6.669 6.677 14.514 0 22.72v160.61c7.603 7.993 7.603 15.987 0 23.98v110.02c10.584 9.975 12.161 19.438 0 28.12 10.635 7.25 10.635 14.5 0 21.75 9.162 7.25 9.162 14.5 0 21.75 191.4-6.94 371.386-10.841 496 0-13.357-7.25-13.357-14.5 0-21.75-7.103-6.053-8.522-13.064 0-21.75-11.207-10.462-14.776-20.183 0-28.12V314.36c-9.747-7.993-9.747-15.987 0-23.98V129.77c-4.156-7.836-4.468-15.429 0-22.72l-9.922-95.091z" fill="#e15c63"></path><path d="m460.58 314.36-26.82 53.71H62.24l-26.82-53.71c6.62 0 11.99-5.37 11.99-11.99 0-3.31-1.34-6.31-3.51-8.48s-5.17-3.51-8.48-3.51c42.01-60.41 64.27-129.69 64.27-208.53 37.42 26.86 105.94 47.4 148.31 47.4s110.89-20.54 148.31-47.4c0 78.84 22.26 148.12 64.27 208.53-3.31 0-6.31 1.34-8.48 3.51s-3.51 5.17-3.51 8.48c0 6.62 5.37 11.99 11.99 11.99z" fill="#524956"></path><path d="M0 474.25h496V496H0z" fill="#5d5560"></path><path d="M0 452.5h496v21.75H0z" fill="#655f68"></path><path d="M496 424.38v28.12H0v-28.12s17.49 0 27.07-9.08c9.58-9.07 1.47-23.4 6.16-32.85.87-1.74 1.97-3.33 3.28-4.76 5.8-6.34 15.58-9.62 25.73-9.62h371.52c10.15 0 19.93 3.28 25.73 9.62 1.31 1.43 2.41 3.02 3.28 4.76 4.69 9.45-3.42 23.78 6.16 32.85 9.58 9.08 27.07 9.08 27.07 9.08z" fill="#e0ac69"></path><path d="m477.87 314.36-18.38 63.33c-5.8-6.34-15.58-9.62-25.73-9.62l26.82-53.71zM35.42 314.36l26.82 53.71c-10.15 0-19.93 3.28-25.73 9.62l-18.38-63.33z" fill="#c43b58"></path><path d="M496 314.36 468.93 415.3c-9.58-9.07-1.47-23.4-6.16-32.85-.87-1.74-1.97-3.33-3.28-4.76l18.38-63.33zM18.13 314.36l18.38 63.33a20.797 20.797 0 0 0-3.28 4.76c-4.69 9.45 3.42 23.78-6.16 32.85L0 314.36z" fill="#d14b62"></path><path d="M496 314.36v110.02s-17.49 0-27.07-9.08z" fill="#e15c63"></path><path d="M496 290.38v23.98h-35.42c-6.62 0-11.99-5.37-11.99-11.99 0-3.31 1.34-6.31 3.51-8.48s5.17-3.51 8.48-3.51z" fill="#ffc05a"></path><path d="M496 290.38h-35.42c-42.01-60.41-64.27-129.69-64.27-208.53 23.35 23.2 57.74 38.33 99.69 47.92z" fill="#e15c63"></path><path d="M297.13 101.73c12.2-2.98 24.76-6.82 37-11.31 10.37-3.79 20.5-8.04 30-12.62 12.03-5.79 23.03-12.11 32.18-18.68 10.71 10.65 23.76 19.59 38.79 27.08 11.32 5.65 23.76 10.47 37.19 14.56 7.59 2.33 15.51 4.41 23.71 6.29v22.72c-41.95-9.59-76.34-24.72-99.69-47.92-37.42 26.86-105.94 47.4-148.31 47.4s-110.89-20.54-148.31-47.4C76.34 105.05 41.95 120.18 0 129.77v-22.72c8.2-1.88 16.12-3.96 23.71-6.29 13.43-4.09 25.87-8.91 37.19-14.56 15.03-7.49 28.08-16.43 38.79-27.08 9.15 6.57 20.15 12.89 32.18 18.68 9.5 4.58 19.63 8.83 30 12.62 12.24 4.49 24.8 8.33 37 11.31 17.87 4.38 34.97 6.92 49.13 6.92s31.26-2.54 49.13-6.92z" fill="#ffc05a"></path><path d="M496 0v107.05c-8.2-1.88-16.12-3.96-23.71-6.29L464.99 0z" fill="#d14b62"></path><path d="m464.99 0 7.3 100.76c-13.43-4.09-25.87-8.91-37.19-14.56L430.77 0z" fill="#e15c63"></path><path d="m430.77 0 4.33 86.2c-15.03-7.49-28.08-16.43-38.79-27.08L392.58 0z" fill="#d14b62"></path><path d="m392.58 0 3.73 59.12c-9.15 6.57-20.15 12.89-32.18 18.68L358.29 0z" fill="#e15c63"></path><path d="m358.29 0 5.84 77.8c-9.5 4.58-19.63 8.83-30 12.62L328.08 0z" fill="#d14b62"></path><path d="m328.08 0 6.05 90.42c-12.24 4.49-24.8 8.33-37 11.31L291.88 0z" fill="#e15c63"></path><path d="m291.88 0 5.25 101.73c-17.87 4.38-34.97 6.92-49.13 6.92V0z" fill="#d14b62"></path><path d="M248 0v108.65c-14.16 0-31.26-2.54-49.13-6.92L204.12 0z" fill="#e15c63"></path><path d="m204.12 0-5.25 101.73c-12.2-2.98-24.76-6.82-37-11.31L167.92 0z" fill="#d14b62"></path><path d="m167.92 0-6.05 90.42c-10.37-3.79-20.5-8.04-30-12.62L137.71 0z" fill="#e15c63"></path><path d="m137.71 0-5.84 77.8c-12.03-5.79-23.03-12.11-32.18-18.68L103.42 0z" fill="#d14b62"></path><path d="m103.42 0-3.73 59.12C88.98 69.77 75.93 78.71 60.9 86.2L65.23 0zM0 290.38V129.77c41.95-9.59 76.34-24.72 99.69-47.92 0 78.84-22.26 148.12-64.27 208.53z" fill="#e15c63"></path><path d="M65.23 0 60.9 86.2c-11.32 5.65-23.76 10.47-37.19 14.56L31.01 0z" fill="#d14b62"></path><path d="M43.9 293.89c2.17 2.17 3.51 5.17 3.51 8.48 0 6.62-5.37 11.99-11.99 11.99H0v-23.98h35.42c3.31 0 6.31 1.34 8.48 3.51z" fill="#ffc05a"></path><path d="m31.01 0-7.3 100.76c-7.59 2.33-15.51 4.41-23.71 6.29V0zM0 314.36 27.07 415.3C17.49 424.38 0 424.38 0 424.38z" fill="#e15c63"></path><path d="M496 424.38v28.12c-40.29-1.26-57.94-28.21-56.96-52.77s-34.38-30.36-34.38-30.36v-1.3h29.1c10.15 0 19.93 3.28 25.73 9.62 1.31 1.43 2.41 3.02 3.28 4.76 4.69 9.45-3.42 23.78 6.16 32.85 9.58 9.08 27.07 9.08 27.07 9.08zM88.36 368.07v1.3c-30.45 1.3-26.52 3.84-32.42 38.12C50.05 441.77 0 452.5 0 452.5v-28.12s17.49 0 27.07-9.08c9.58-9.07 1.47-23.4 6.16-32.85.87-1.74 1.97-3.33 3.28-4.76 5.8-6.34 15.58-9.62 25.73-9.62z" fill="#d19d65"></path><path d="M432.27 137.37c-21.09-11.37-34.63-22.66-34.63-22.66h-.01c-.87-10.77-1.32-21.72-1.32-32.86 23.35 23.2 57.74 38.33 99.69 47.92v29.58c-24.11-3.27-46.45-12.65-63.73-21.98zM99.69 81.85c0 9.06-.29 17.99-.88 26.8h-.01c-10.82 10.37-23 18.41-35.01 24.64C31.29 150.14 0 153.66 0 153.66v-23.89c41.95-9.59 76.34-24.72 99.69-47.92z" fill="#d14b62"></path><g fill="#c43b58"><path d="M64.764 130.138c-2.184-.29-4.209 1.221-4.515 3.408-6.444 46.108-19.324 92.069-38.282 136.606a4 4 0 0 0 7.361 3.132C48.561 228.1 61.63 181.458 68.172 134.652a4 4 0 0 0-3.408-4.514zM22.1 155.35a4 4 0 0 0-4 4c0 35.83-4.686 70.954-13.928 104.397a4.001 4.001 0 0 0 7.711 2.131C21.317 231.741 26.1 195.899 26.1 159.35a4 4 0 0 0-4-4zM438.813 152.761a521.93 521.93 0 0 1-2.591-16.007 174.81 174.81 0 0 1-.469-3.199 4 4 0 0 0-7.925 1.09c.153 1.114.317 2.229.485 3.303a527.321 527.321 0 0 0 2.625 16.216c7.412 41.648 20.091 83.249 37.684 123.647a4 4 0 1 0 7.334-3.194c-17.343-39.825-29.84-80.823-37.143-121.856zM495.185 275.195c-11.47-36.972-17.285-75.948-17.285-115.846a4 4 0 0 0-8 0c0 40.702 5.937 80.476 17.645 118.217a4.001 4.001 0 0 0 5.006 2.634 3.998 3.998 0 0 0 2.634-5.005z" fill="#c43b58"></path></g></g></svg>