<svg viewBox="0 0 512 512" xmlns="http://www.w3.org/2000/svg"><g><path d="M463.044 367.827C480.273 334.301 490 296.287 490 256c0-135.31-109.69-245-245-245-93.768 0-175.22 52.686-216.403 130.062z" fill="#009cf2"></path><path d="M341.065 178.611c-2.903-.492-5.288-2.493-6.419-5.212-10.133-24.362-34.149-41.497-62.179-41.497a67.7 67.7 0 0 0-9.602.683c-3.907.561-7.747-1.548-9.102-5.256-14.517-39.718-52.616-68.08-97.361-68.08-44.698 0-82.788 28.29-97.343 67.942-1.087 2.962-3.716 5.031-6.836 5.508a66.883 66.883 0 0 0-23.624 8.361 243.571 243.571 0 0 0-15.5 35.721c16.974 9.958 30.502 25.603 37.533 44.84 1.442 3.944 5.59 6.357 9.876 5.745a56.008 56.008 0 0 1 7.908-.563c22.469 0 42.567 13.413 51.201 34.172.146.349.311.684.493 1.009l1.468 2.62 1.804-2.4c28.264-37.602 71.379-59.167 118.292-59.167 34.488 0 67.028 12.075 92.783 32.791a38.874 38.874 0 0 1 10.381-1.428c1.847 0 3.709.133 5.531.394 3.228.462 6.356-1.362 7.443-4.338 3.547-9.704 9.446-18.111 16.907-24.669-5.65-14.069-18.304-24.571-33.654-27.176z" fill="#2ebcf6"></path><path d="M60.506 227.369a56.008 56.008 0 0 1 7.908-.563c3.084 0 6.12.261 9.091.751 5.846-18.769 19.809-34.825 39.514-42.618a67.631 67.631 0 0 1 9.18-2.896c3.839-.915 6.635-4.289 6.532-8.235-1.107-42.274 23.892-82.659 65.502-99.114a105.162 105.162 0 0 1 7.867-2.756c-14.755-8.084-31.688-12.688-49.702-12.688-44.698 0-82.788 28.29-97.342 67.942-1.087 2.962-3.716 5.031-6.836 5.508a66.89 66.89 0 0 0-23.624 8.361 243.571 243.571 0 0 0-15.5 35.721c16.974 9.958 30.502 25.603 37.533 44.84 1.444 3.945 5.592 6.359 9.877 5.747z" fill="#00adf4"></path><path d="M410.507 311.961H308.553c-13.979 0-25.401-11.117-25.46-24.782-.054-12.237 8.65-22.603 20.696-24.647 2.343-.398 4.301-1.98 5.237-4.23a38.66 38.66 0 0 1 27.892-23.07c-25.902-21.328-59.072-34.15-95.245-34.15-49.776 0-93.846 24.277-121.11 61.615 1.403 2.06 3.537 3.482 6.005 3.901 17.328 2.94 29.849 17.851 29.772 35.455-.086 19.656-16.509 35.648-36.611 35.648H13.972C47.617 432.836 138.341 501 245 501h131.349c53.664 0 98.135-42.905 98.59-96.567.36-42.581-26.621-78.871-64.432-92.472z" fill="#8adaf9"></path><path d="M477.597 233.074c-1.881-.288-3.465-1.535-4.12-3.321-8.773-23.902-31.733-40.955-58.677-40.955-26.972 0-49.938 17.096-58.689 41.038-.817 2.235-3.131 3.506-5.487 3.168a40.768 40.768 0 0 0-5.788-.412c-16.897 0-31.373 10.329-37.481 25.014-.682 1.639-2.119 2.844-3.87 3.141-12.643 2.145-22.261 13.172-22.203 26.44.065 14.794 12.475 26.584 27.27 26.584h162.115c22.396 0 41.132-17.825 41.331-40.22.182-20.478-14.804-37.48-34.401-40.477z" fill="#e6f8fc"></path><path d="M124.959 405.188c3.066-1.271 5.183-4.066 5.742-7.337 5.009-29.306 27.083-54.163 57.873-61.207a76.252 76.252 0 0 1 10.719-1.662c4.433-.366 8.121-3.647 8.678-8.06 5.966-47.278 40.689-88.004 89.839-99.248a117.275 117.275 0 0 1 24.694-2.937c-23.325-14.964-51.058-23.655-80.829-23.655-49.776 0-93.846 24.277-121.11 61.615 1.403 2.061 3.537 3.483 6.005 3.901 17.328 2.941 29.849 17.851 29.772 35.455-.086 19.656-16.509 35.647-36.611 35.647H13.972c15.71 44.421 43.866 82.958 80.275 111.426.817-19.178 12.725-36.481 30.712-43.938z" fill="#5ccbf7"></path><path d="M357.367 290.639c1.598-.774 2.642-2.332 2.839-4.097 1.766-15.806 12.783-29.766 29.008-34.483a40.637 40.637 0 0 1 5.673-1.22c2.356-.333 4.224-2.2 4.384-4.574 1.56-23.081 15.937-44.014 37.939-53.316a62.308 62.308 0 0 0-22.409-4.15c-26.972 0-49.938 17.096-58.688 41.038-.817 2.235-3.131 3.506-5.487 3.168a40.768 40.768 0 0 0-5.788-.412c-16.897 0-31.373 10.329-37.481 25.014-.682 1.639-2.119 2.844-3.869 3.141-12.643 2.145-22.261 13.172-22.203 26.44.065 14.794 12.475 26.584 27.27 26.584h33.789c.321-9.778 6.04-18.783 15.023-23.133z" fill="#b8e9fa"></path><path d="M126.895 264.668c-2.475-.42-4.508-2.124-5.473-4.443-8.639-20.769-29.112-35.377-53.008-35.377-2.78 0-5.512.199-8.186.583-3.331.478-6.604-1.32-7.76-4.48-7.134-19.519-20.957-35.807-38.686-46.115C4.866 200.24 0 227.55 0 256c0 29.382 5.178 57.552 14.661 83.657h105.068c20.924 0 38.475-16.673 38.567-37.596.083-18.764-13.521-34.359-31.401-37.393z" fill="#e6f8fc"></path><path d="M8.774 296.081c2.372-.823 4.095-2.84 4.664-5.286 5.089-21.91 22.868-39.7 46.436-43.647a57.573 57.573 0 0 1 8.169-.777c3.364-.079 6.296-2.392 6.913-5.7a87.888 87.888 0 0 1 4.14-14.825 57.653 57.653 0 0 0-18.867-.414c-3.331.478-6.604-1.319-7.76-4.48-7.134-19.519-20.957-35.807-38.686-46.115C4.866 200.24 0 227.55 0 256c0 14.429 1.256 28.564 3.65 42.308a37.545 37.545 0 0 1 5.124-2.227z" fill="#b8e9fa"></path></g></svg>