<svg viewBox="0 0 512 512" xmlns="http://www.w3.org/2000/svg"><g><path d="m424.32 423.956-30.973-219.457H106.29L75.318 423.956c-4.53 32.097 20.387 60.778 52.802 60.778h243.405c32.411-.004 57.325-28.684 52.795-60.778z" fill="#aa6a51"></path><path d="m436.682 423.956-30.973-219.457h-22.664l30.973 219.457c4.53 32.097-20.387 60.778-52.802 60.778h22.664c32.415 0 57.332-28.681 52.802-60.778z" fill="#935b44"></path><path d="M319.708 236.858h57.595c22.506 0 40.75-18.245 40.75-40.751v-.25c0-22.506-18.244-40.75-40.75-40.75h-57.595z" fill="#f89580"></path><path d="M395.395 506.678v-89.344c0-34.249-27.762-62.014-62.01-62.018H168.32c-34.251 0-62.017 27.766-62.017 62.018V512h276.73z" fill="#f58a97"></path><path d="M343.68 355.316h-22.664c34.251 0 62.017 27.766 62.017 62.018V512h22.664v-94.666c0-34.252-27.766-62.018-62.017-62.018z" fill="#f07281"></path><path d="M299.525 340.732V243.44h-87.05v97.808l-6.696 6.582v16.469c0 27.737 22.485 50.221 50.221 50.221 27.736 0 50.221-22.484 50.221-50.221v-16.87z" fill="#ffa78f"></path><path d="M205.779 347.83c15.194 6.822 32.217 10.661 50.463 10.661 17.826 0 34.748-3.865 49.979-10.797V243.44H205.779z" fill="#f89580"></path><path d="M192.607 155.107h-57.595c-22.506 0-40.75 18.245-40.75 40.751v.25c0 22.506 18.244 40.75 40.75 40.75h57.595z" fill="#ffa78f"></path><path d="M250.958 337.366c61.454-5.651 109.582-57.331 109.582-120.26v-42.813c0-61.229-46.282-114.517-110.139-120.26h-6.181c-60.671 5.442-109.582 56.711-109.582 120.26v42.813c0 60.564 45.37 114.181 110.139 120.26z" fill="#ffcebf"></path><path d="M255.42 53.511c-3.777 0-7.511.183-11.199.522 63.856 5.743 110.139 59.031 110.139 120.26v42.813c0 62.929-48.128 114.609-109.582 120.26 3.764.339 7.585.522 11.465.522 66.706 0 120.782-54.076 120.782-120.782v-42.813c-.001-64.838-51.896-120.782-121.605-120.782z" fill="#ffb09e"></path><path d="M256 286.783c-31.981 0-42.907-41.781-25.742-41.781a8.019 8.019 0 0 1 8.019 8.019c0 9.772 7.95 17.722 17.722 17.722s17.722-7.95 17.722-17.722c0-4.429 3.591-8.019 8.02-8.019s8.02 3.59 8.02 8.019c0 18.617-15.145 33.762-33.761 33.762z" fill="#ffa799"></path><path d="M315.116 225.292a8.02 8.02 0 0 1-8.02-8.019v-22.321a8.019 8.019 0 0 1 8.02-8.019h6.381a8.019 8.019 0 0 1 8.019 8.019 8.024 8.024 0 0 1-6.381 7.852v14.469a8.02 8.02 0 0 1-8.019 8.019zM196.884 225.292a8.02 8.02 0 0 1-8.02-8.019v-14.469a8.019 8.019 0 0 1 1.64-15.871h6.38a8.019 8.019 0 0 1 8.019 8.019v22.321a8.02 8.02 0 0 1-8.019 8.019z" fill="#5a5a5a"></path><g fill="#fe8f83"><path d="M339.317 252.895h-19.924a8.02 8.02 0 1 1 0-16.039h19.924a8.02 8.02 0 1 1 0 16.039zM192.607 252.895h-19.924a8.019 8.019 0 0 1-8.019-8.02 8.019 8.019 0 0 1 8.019-8.019h19.924a8.019 8.019 0 0 1 8.019 8.019 8.019 8.019 0 0 1-8.019 8.02z" fill="#fe8f83"></path></g><path d="M366.661 71.038a139.36 139.36 0 0 0-6.414-9.238h.005C314.168-1.826 244.669.517 244.669.517c-77.398 6.256-138.264 71.031-138.264 150.04v16.245h68.142c41.226 0 75.38-30.27 81.453-69.796 6.073 39.526 40.227 69.796 81.453 69.796h51.028v-20.653c0-26.601-7.568-52.652-21.82-75.111z" fill="#aa6a51"></path><path d="M256.962.024V0h-1.924v.024a153.13 153.13 0 0 0-10.37.492c77.398 6.257 138.263 71.031 138.263 150.04v16.245h22.664v-16.245c0-82.523-66.387-149.501-148.633-150.532z" fill="#935b44"></path></g></svg>