<svg viewBox="0 0 64 64" xmlns="http://www.w3.org/2000/svg"><g><path d="m41 57 .154.051A4.162 4.162 0 0 1 44 61h-9v-1.586c0-.906.36-1.774 1-2.414" fill="#5a361f"></path><path d="M40.167 24.667 38 28l1.789 7.684L33.83 27l3.295-5" fill="#f6bb95"></path><path d="m34 27 2.4-3.84 3.767 1.507.952-1.903a8.353 8.353 0 0 0 .633-5.761l-.502-2.006L39 11h-1L24.556 6.199A3.409 3.409 0 0 0 20 9.409c0 .393.03.786.09 1.174l1.629 10.591a2.15 2.15 0 0 0 1.322 1.665l-.002.003a7.177 7.177 0 0 0 .448 8.091l7.293 9.481A5.883 5.883 0 0 1 32 44v15h5l.125-2H41l.98-14.703a8.935 8.935 0 0 0-1.479-5.546zm-8-7.823V12l4.308 1.846L26 19.177z" fill="#f6bb95"></path><path d="M42 19.03c0 1.29-.3 2.57-.88 3.73l-.95 1.91-3.77-1.51L34 27h-2.17c-3.34 0-6.62-.79-9.58-2.31.17-.65.44-1.27.79-1.85L26 19.18l4.31-5.33-1.9-.82 2.03-4.73L38 11h1l2.25 4 .5 2c.17.66.25 1.35.25 2.03z" fill="#52a04f"></path><path d="M31.83 27H34l2.4-3.84 3.77 1.51.95-1.91a8.349 8.349 0 0 0 .63-5.76l-.5-2L39 11h-1l-5.826-2.081-1.764 4.111 1.9.82L28 19.18l-2.96 3.66a7.024 7.024 0 0 0-.958 2.672A20.98 20.98 0 0 0 31.83 27z" fill="#5bb162"></path><path d="M42 41.7c0 .2-.01.4-.02.6L41 57h-3.87L37 59h-5V44c0-1.3-.43-2.56-1.22-3.59l-7.29-9.48A7.127 7.127 0 0 1 22 26.56c0-.64.08-1.26.25-1.87 2.96 1.52 6.24 2.31 9.58 2.31H34l6.5 9.75c.98 1.47 1.5 3.19 1.5 4.95z" fill="#29678c"></path><path d="m41 57 .98-14.7c.01-.2.02-.4.02-.6 0-1.76-.52-3.48-1.5-4.95L34 27h-2.17a20.98 20.98 0 0 1-7.748-1.488A7.145 7.145 0 0 0 24 26.56c0 1.58.52 3.12 1.49 4.37l7.29 9.48A5.897 5.897 0 0 1 34 44v15h3l.13-2z" fill="#3177a6"></path><path d="M41.008 10.331 39 11v1.879a2.122 2.122 0 0 0 3.621 1.5l.364-.364" fill="#d69578"></path><path d="M39.599 11.669v1.879c0 .384.11.739.289 1.05a2.1 2.1 0 0 0 1.233.402c.563 0 1.102-.224 1.5-.621l.364-.364-1.582-2.947z" fill="#e8a989"></path><path d="M53 7.95a4.946 4.946 0 0 1-1.45 3.5l-2.1 2.1a4.95 4.95 0 1 1-7-7l2.1-2.1A4.95 4.95 0 0 1 53 7.95z" fill="#f6bb95"></path><path d="m37 59 .154.051A4.162 4.162 0 0 1 40 63h-9v-1.586c0-.906.36-1.774 1-2.414" fill="#8e5436"></path><path d="m18.071 22.372-1.542-3.856-1.975 1.316a.998.998 0 0 1-1.483-.46l-2-5 1.857-.743 1.542 3.856 1.975-1.316a1 1 0 0 1 1.483.46l2 5zM15 28a1.003 1.003 0 0 1-1-1v-1.382l-4.553 2.276-.895-1.789 6-3A1.003 1.003 0 0 1 16 24v1.382l2.553-1.276.895 1.789-4 2c-.142.07-.295.105-.448.105zM45.707 38.707l-1.414-1.414 3-3a.999.999 0 0 1 1.414 0l1.448 1.448 4.331-2.598 1.029 1.715-5 3a1 1 0 0 1-1.222-.15L48 36.414zM53.835 45.986l-6-1a1.002 1.002 0 0 1-.543-1.693l.679-.679-3.168-.634.393-1.961 5 1a1 1 0 0 1 .511 1.688l-.626.626 4.083.681z" fill="#db4254"></path><path d="M48.05 3a4.946 4.946 0 0 0-3.5 1.45l-2.1 2.101a4.95 4.95 0 0 0-1.445 3.45H45l3-3 3.956 3.956A4.94 4.94 0 0 0 53 7.95 4.95 4.95 0 0 0 48.05 3z" fill="#333e44"></path><path d="M28.409 13.032 26 12v8.847a2.153 2.153 0 0 1-4.281.327l-1.629-10.59A7.7 7.7 0 0 1 20 9.409a3.409 3.409 0 0 1 4.556-3.21L30.44 8.3" fill="#f6bb95"></path><path d="m38.127 57 .85-13.596a12.038 12.038 0 0 0-2.372-7.93L32.8 30.4l-1.6 1.2 3.806 5.074a10.036 10.036 0 0 1 1.974 6.605l-.979 15.658L37 59l.13-2z" fill="#29678c"></path></g></svg>