<svg viewBox="0 0 512 512" xmlns="http://www.w3.org/2000/svg"><g><path d="M326.668 185.379s-8.828 46.434 8.824 83.578c15.715 33.059 10.418 73.547-15.887 95.094H33.59C7.285 342.504 1.988 302.016 17.7 268.957c17.655-37.144 8.827-83.578 8.827-83.578zm0 0" fill="#7f5b53"></path><path d="M353.148 450.207v17.656L334.965 512H17.699C7.184 511.098-.67 501.934.047 491.402v-41.195zm0 0" fill="#fdd7ad"></path><path d="M353.148 441.379v17.656H.047V441.38C.03 393.07 32.715 350.87 79.492 338.805v84.918h35.313v-88.274H238.39v88.274h35.308v-84.918a107.698 107.698 0 0 1 66.914 52.433c1.676 3.18 3.18 6.446 4.59 9.801a106.344 106.344 0 0 1 5.473 17.3 110.064 110.064 0 0 1 2.472 23.04zm0 0" fill="#e64c3c"></path><path d="M114.805 335.45v17.652c0 19.503 15.808 35.312 35.308 35.312h52.965c19.504 0 35.313-15.809 35.313-35.312v-17.653zm0 0" fill="#fdd7ad"></path><path d="M150.113 288.926h52.965v73.004h-52.965zm0 0" fill="#fdd7ad"></path><path d="M203.078 288.926v17.656a144.709 144.709 0 0 1-26.48 2.383 137.259 137.259 0 0 1-26.485-2.473v-17.566zm0 0" fill="#f09372"></path><path d="M326.578 167.723c.09-1.582.09-12.485.09-13.977C327.664 69.86 260.484 1.031 176.598 0 92.707 1.031 25.53 69.86 26.528 153.746c0 1.492 0 12.395.09 13.977zm0 0" fill="#af8066"></path><path d="M308.395 158.898h18.273c9.719.067 17.582 7.934 17.652 17.653-.027 9.738-7.914 17.629-17.652 17.656H26.528c-9.739-.027-17.626-7.918-17.657-17.656.07-9.719 7.938-17.586 17.656-17.653zm0 0" fill="#f09372"></path><path d="M48.332 140.184v.086c-.793 3.003-1.59 6.003-2.207 9.093-.527 3.176-1.059 6.356-1.324 9.535a96.4 96.4 0 0 0-.617 11.387c.011 4.188.25 8.371.707 12.535a113.86 113.86 0 0 0 1.851 10.946c12.196 49.617 52.918 87.105 103.371 95.16a148.234 148.234 0 0 0 52.965 0c50.305-8.11 90.953-45.39 103.371-94.809a119.86 119.86 0 0 0 1.856-11.297c.457-4.164.695-8.347.707-12.535a96.4 96.4 0 0 0-.617-11.387c-.266-3.18-.797-6.359-1.325-9.535a121.804 121.804 0 0 0-1.855-7.68 149.975 149.975 0 0 0-22.688-35.753c-105.93 8.828-141.242-52.965-141.242-52.965s-12.355 43.078-88.273 61.793l-4.68 25.512" fill="#fdd7ad"></path><path d="M70.668 423.723h211.86a8.829 8.829 0 0 1 8.827 8.828V512H61.84v-79.45a8.826 8.826 0 0 1 8.828-8.827zm0 0" fill="#2c3e50"></path><path d="M114.805 335.45v88.273H79.492v-84.918a104.638 104.638 0 0 1 26.485-3.356zM273.7 338.805v84.918h-35.31v-88.274h8.829a104.608 104.608 0 0 1 26.48 3.356zm0 0" fill="#35495e"></path><path d="M105.977 459.035a8.829 8.829 0 1 1-17.658-.001 8.829 8.829 0 0 1 17.658.001zM264.871 459.035c0 4.875-3.95 8.828-8.824 8.828s-8.828-3.953-8.828-8.828 3.953-8.828 8.828-8.828 8.824 3.953 8.824 8.828zm0 0" fill="#3f5c6c"></path><path d="M141.285 512s-26.48-17.656-8.824-35.309c17.652-17.656 23.36 13.848 44.137 0 26.48-17.656 44.136-8.828 44.136 35.309zm0 0" fill="#955ba5"></path><path d="m350.676 418.34-19.067 12.71a8.717 8.717 0 0 1-4.941 1.5 8.826 8.826 0 0 1-4.945-16.152l21.539-14.39a7.917 7.917 0 0 1 1.941-.969 106.344 106.344 0 0 1 5.473 17.3zM340.613 391.238l-17.476 13.067a8.515 8.515 0 0 1-5.297 1.765 8.95 8.95 0 0 1-7.063-3.53 8.855 8.855 0 0 1 1.766-12.36l18.184-13.594c.09 0 .09-.09.175-.09 3.641 4.637 6.891 9.566 9.711 14.742zm0 0" fill="#ecf0f1"></path><path d="M509.043 341.45a62.32 62.32 0 0 1-11.828 20.921 31.403 31.403 0 1 1-48.285-40.164 32.381 32.381 0 0 1 21.449-9.355c.266 0 .441-.09.707-.09a32.39 32.39 0 0 0 24.566-21.266 4.424 4.424 0 0 1 3.895-2.773 4.417 4.417 0 0 1 4.14 2.394 64.76 64.76 0 0 1 5.356 50.332zm0 0" fill="#f9eab0"></path><path d="M428.996 428.082c-33.234 40-87.437 90.578-96.328 83.191-8.887-7.382 30.906-69.937 64.14-109.937 33.231-39.996 47.32-42.293 56.212-34.91 8.886 7.386 9.21 21.656-24.024 61.656zm0 0" fill="#af8066"></path><path d="M238.39 229.516a8.817 8.817 0 0 1-8.152-5.45 8.822 8.822 0 0 1 1.91-9.617l8.829-8.828a8.832 8.832 0 0 1 12.375.106 8.825 8.825 0 0 1 .105 12.375l-8.824 8.828a8.796 8.796 0 0 1-6.242 2.586zM211.906 211.863a8.833 8.833 0 0 1-8.152-5.449 8.822 8.822 0 0 1 1.914-9.621l8.824-8.828c3.465-3.344 8.973-3.297 12.375.11 3.406 3.402 3.453 8.91.11 12.374l-8.829 8.828a8.815 8.815 0 0 1-6.242 2.586zm0 0" fill="#2fa8cc"></path><g fill="#955ba5"><path d="M125.926 282.129a127.704 127.704 0 0 1-70.356-62.676c3.442-15.187 17.188-25.785 32.75-25.246 44.14 0 17.657 35.309 44.14 44.137 20.657 6.886 19.86 29.84-6.534 43.785zM509.043 341.45a37.73 37.73 0 0 1-23.48-6 29.267 29.267 0 0 1-14.477-22.688 32.39 32.39 0 0 0 24.566-21.266 4.424 4.424 0 0 1 3.895-2.773 4.417 4.417 0 0 1 4.14 2.394 64.76 64.76 0 0 1 5.356 50.332zm0 0" fill="#955ba5"></path></g></g></svg>