<svg viewBox="0 0 64 64" xmlns="http://www.w3.org/2000/svg"><g><g><path d="M52 42.25V61H12V42.25a6 6 0 0 1 5.21-5.94l.79-.11 6.26-.84h.04L27 35h10l2.7.36.06.01 7.03.94A6 6 0 0 1 52 42.25z" fill="#e6e7e8"></path><path d="M39.76 35.37 39 42l-3.5-3-3.08-2.64h-.84L25 42l-.74-6.64h.04L27 35h10l2.7.36z" fill="#c6c5ca"></path><path d="M39.7 35.36 39 41l-3.5-3-3.5-3h5zM32 35l-3.5 3-3.5 3-.7-5.64L27 35z" fill="#d1d3d4"></path><path d="m34 41 2 16-4 4-4-4 2-16zM35.5 38l-.35.7L34 41h-4l-1.15-2.3-.35-.7 3.5-3z" fill="#898890"></path><path d="M37 29.66V35H27v-5.34a10 10 0 0 0 10 0z" fill="#f9d798"></path><path d="M37 28.66v3a10 10 0 0 1-10 0v-3a10 10 0 0 0 10 0z" fill="#f7c67f"></path><path d="m35.5 38-.35.7-2.73-2.34h-.84l-2.73 2.34-.35-.7 3.5-3z" fill="#787680"></path><path d="M23 15v6h-2a3 3 0 0 1-1-5.82 2.772 2.772 0 0 1 1-.18zM44 15.18A3 3 0 0 1 43 21h-2v-6h2a2.772 2.772 0 0 1 1 .18z" fill="#f9cc85"></path><path d="M42 9v12a10 10 0 0 1-20 0V9z" fill="#f9d798"></path><path d="M26 11a4 4 0 0 1-4 4h-1a2.653 2.653 0 0 0-.94.16L20 15v-4a8 8 0 0 1 8-8h16a5.944 5.944 0 0 1-1.76 4.24 5.008 5.008 0 0 1-.75.63A3.984 3.984 0 0 1 43 11v4h-1a4 4 0 0 1-4-4v-.76a.993.993 0 0 0-1.31-.94A15.436 15.436 0 0 1 32 10a15.436 15.436 0 0 1-4.69-.7.993.993 0 0 0-1.31.94z" fill="#57565c"></path><g fill="#ee8700"><path d="M31 19h-2a1 1 0 0 0-2 0h-2a3 3 0 0 1 6 0zM39 19h-2a1 1 0 0 0-2 0h-2a3 3 0 0 1 6 0zM32 27a5.018 5.018 0 0 1-4.331-2.5l1.732-1a3 3 0 0 0 5.2 0l1.732 1A5.018 5.018 0 0 1 32 27z" fill="#ee8700"></path></g><path d="M19 45h2v16h-2zM43 45h2v16h-2z" fill="#c6c5ca"></path></g></g></svg>