<svg viewBox="0 0 512 512" xmlns="http://www.w3.org/2000/svg"><g><path clip-rule="evenodd" d="m276.35 233.15 84.56 146.44c4.31 7.46 4.31 16.02 0 23.47-4.34 7.48-11.74 11.76-20.35 11.76h-169.1c-8.62 0-16.02-4.28-20.35-11.76-4.31-7.46-4.31-16.02 0-23.47l84.56-146.44c4.31-7.48 11.71-11.74 20.32-11.74 8.65.01 16.05 4.26 20.36 11.74z" fill="#ffd23b" fill-rule="evenodd"></path><path d="M248 267.42c0-4.42 3.6-7.99 7.99-7.99 4.42 0 8.02 3.57 8.02 7.99v71.6c0 4.42-3.6 7.99-8.02 7.99-4.39 0-7.99-3.57-7.99-7.99zM248 364.2c0-4.39 3.6-7.99 7.99-7.99 4.42 0 8.02 3.6 8.02 7.99v4.59c0 4.42-3.6 7.99-8.02 7.99-4.39 0-7.99-3.57-7.99-7.99z" fill="#ff4155"></path><path d="M387.21 326.1a8 8 0 0 1-7.2-4.51l-64.2-111.2v-.03c-6.15-10.63-14.74-19.19-24.83-25.11-.14-.06-.28-.14-.43-.23-10.23-5.9-22.08-9.13-34.55-9.13-12.44 0-24.29 3.23-34.53 9.13-10.29 5.95-19.02 14.57-25.26 25.37l-64.12 111.03c-1.28 2.78-4.05 4.68-7.29 4.68H8.02c-4.42 0-8.02-3.57-8.02-7.99s3.6-7.99 8.02-7.99h112.22l62.16-107.69.03-.03h-.03c7.65-13.24 18.4-23.87 31.04-31.18 12.7-7.31 27.3-11.34 42.55-11.34 15.28 0 29.88 4.02 42.55 11.34.17.08.31.17.45.28 12.47 7.28 23.05 17.83 30.59 30.9h.03l62.19 107.72h92.89l-14.8-14.8c-3.12-3.12-3.12-8.19 0-11.31a7.95 7.95 0 0 1 11.31 0l28.46 28.46c3.12 3.12 3.12 8.16 0 11.31l-28.46 28.46c-3.12 3.12-8.19 3.12-11.31 0a8.04 8.04 0 0 1 0-11.34l14.8-14.8z" fill="#33cc33"></path><g clip-rule="evenodd" fill-rule="evenodd"><path d="M99.95 111.94c7.17 1.62 13.86 4.45 19.9 8.25l5.33-2.72 8.5-4.34 6.77 6.77 6.75 6.75-4.34 8.53-2.69 5.3c3.8 6.04 6.6 12.76 8.25 19.93l5.67 1.84 9.07 2.95v19.1l-9.07 2.98-5.67 1.84c-1.64 7.14-4.48 13.86-8.25 19.9l2.69 5.33 4.34 8.5-6.75 6.75-6.77 6.77-8.5-4.34-5.33-2.72c-6.04 3.8-12.73 6.63-19.9 8.25l-1.84 5.67-2.95 9.1H76.02l-2.95-9.1-1.84-5.67c-7.17-1.62-13.86-4.45-19.9-8.25L46 232.05l-8.5 4.34-6.77-6.77-6.75-6.75 4.34-8.5 2.72-5.33a64.768 64.768 0 0 1-8.28-19.9l-5.67-1.84-9.07-2.98v-19.1l9.07-2.95 5.67-1.84a64.389 64.389 0 0 1 8.28-19.93l-2.72-5.3-4.34-8.53 6.75-6.75 6.77-6.77 8.5 4.34 5.33 2.72c6.04-3.8 12.73-6.63 19.9-8.25l1.84-5.67 2.95-9.1H95.15l2.95 9.1z" fill="#bec7cf"></path><path d="M85.6 140.63c18.82 0 34.13 15.28 34.13 34.13s-15.31 34.13-34.13 34.13c-18.85 0-34.16-15.28-34.16-34.13s15.31-34.13 34.16-34.13z" fill="#eaf6ff"></path><path d="M186.46 414.83h-15c-8.62 0-16.02-4.28-20.35-11.76-4.31-7.46-4.31-16.02 0-23.47l84.56-146.44c4.31-7.48 11.71-11.74 20.32-11.74 2.64 0 5.16.4 7.51 1.16-5.36 1.73-9.84 5.39-12.84 10.57l-84.53 146.44c-4.34 7.46-4.34 16.02 0 23.47 4.31 7.48 11.71 11.77 20.33 11.77z" fill="#e6bd35"></path><path d="M54.68 118.24a63.198 63.198 0 0 1 16.55-6.29l1.84-5.67 2.95-9.1h7.2l-2.95 9.1-1.84 5.67c-7.17 1.62-13.86 4.45-19.9 8.25zM42.26 233.95l-4.76 2.44-6.77-6.77-6.75-6.75 4.34-8.5 2.72-5.33a64.768 64.768 0 0 1-8.28-19.9l-5.67-1.84-9.07-2.98v-19.1l9.07-2.95 5.67-1.84a64.389 64.389 0 0 1 8.28-19.93l-2.72-5.3-4.34-8.53 6.75-6.75 6.77-6.77 4.76 2.44-4.34 4.34-6.75 6.75 4.34 8.53 2.72 5.3a64.631 64.631 0 0 0-8.28 19.93l-5.67 1.84-9.07 2.95v19.1l9.07 2.98 5.67 1.84a64.525 64.525 0 0 0 8.28 19.9l-2.72 5.33-4.34 8.5 6.75 6.75zM83.22 252.34h-7.2l-2.95-9.1-1.84-5.67a63.064 63.064 0 0 1-16.55-6.29l3.86-1.96c6.04 3.8 12.73 6.63 19.9 8.25l1.84 5.67z" fill="#abb3ba"></path><path d="M85.6 140.63c1.11 0 2.21.06 3.29.17-17.29 1.64-30.84 16.21-30.84 33.96 0 17.74 13.55 32.31 30.84 33.99-1.08.08-2.18.14-3.29.14-18.85 0-34.16-15.28-34.16-34.13s15.31-34.13 34.16-34.13z" fill="#d3dde6"></path></g></g></svg>