<svg viewBox="0 0 64 64" xmlns="http://www.w3.org/2000/svg"><g><path d="M46.001 0h-24c-1.654 0-3 1.346-3 3v24c0 1.654 1.346 3 3 3h20.08a1 1 0 0 0 .989-1.142 6.05 6.05 0 0 1-.069-.858c0-2.961 2.21-5.511 5.142-5.931.492-.071.858-.493.858-.99V3c0-1.654-1.346-3-3-3z" fill="#00a4ff"></path><path d="M62.83 35.293c-1.511-1.512-4.121-1.537-5.681.025L47.203 46H29.001a1.97 1.97 0 0 1-1.67-.899 1.97 1.97 0 0 1-.168-1.889A1.997 1.997 0 0 1 29.001 42h10c2.206 0 4-1.794 4-4s-1.794-4-4-4H19.595a10.989 10.989 0 0 0-10.111 6.667L.082 62.606A.998.998 0 0 0 1.001 64h16c.4 0 .762-.238.919-.606L21.946 54h27.312c.825 0 1.622-.345 2.186-.944L62.83 40.949a4.005 4.005 0 0 0 0-5.656z" fill="#ff738d"></path><path d="M42.001 11h-4V7a1 1 0 0 0-1-1h-6a1 1 0 0 0-1 1v4h-4a1 1 0 0 0-1 1v6a1 1 0 0 0 1 1h4v4a1 1 0 0 0 1 1h6a1 1 0 0 0 1-1v-4h4a1 1 0 0 0 1-1v-6a1 1 0 0 0-1-1z" fill="#dddddf"></path><circle cx="49.001" cy="28" fill="#6dd6a6" r="8"></circle><path d="M48.001 31a.997.997 0 0 1-.707-.293l-2-2a.999.999 0 1 1 1.414-1.414l1.293 1.293 3.293-3.293a.999.999 0 1 1 1.414 1.414l-4 4a.997.997 0 0 1-.707.293z" fill="#dddddf"></path></g></svg>