<svg viewBox="0 0 512 512" xmlns="http://www.w3.org/2000/svg"><g><path d="M355.76 295.539c-21.847 55.121-84.155 82.122-139.276 60.275s-82.091-84.232-60.244-139.354 84.232-82.091 139.354-60.244 82.013 84.202 60.166 139.323z" fill="#cfa773"></path><path d="M296.18 271.925c-8.799 22.201-33.894 33.076-56.095 24.276-22.201-8.799-33.063-33.926-24.264-56.126 8.799-22.201 33.926-33.063 56.126-24.264 22.201 8.799 33.032 33.913 24.233 56.114z" fill="#fae5ca"></path><path d="M355.747 295.523c-21.835 55.144-84.15 82.131-139.241 60.297-19.656-7.809-35.753-20.719-47.281-36.71 15.194 8.607 32.778 13.547 51.531 13.547 57.747 0 104.55-46.803 104.55-104.55 0-27.519-10.572-52.488-27.891-71.135 53.87 22.473 79.901 84.098 58.332 138.551z" fill="#000000" opacity=".1"></path><g fill="#d81a60"><path d="m349.538 107.705-39.34 23.242a5.493 5.493 0 0 1-8.038-3.186L289.425 83.88c-1.244-4.351 3.065-8.234 7.256-6.573l5.942 2.355a5.457 5.457 0 0 0 7.104-3.071l21.235-53.577a5.457 5.457 0 0 1 7.105-3.071l19.881 7.88a5.456 5.456 0 0 1 3.071 7.104l-21.235 53.577a5.457 5.457 0 0 0 3.072 7.104l5.943 2.355c4.19 1.661 4.669 7.442.739 9.742zM162.462 404.295l39.34-23.242a5.493 5.493 0 0 1 8.038 3.186l12.735 43.882c1.244 4.351-3.065 8.234-7.256 6.573l-5.942-2.355a5.457 5.457 0 0 0-7.104 3.071l-21.235 53.577a5.457 5.457 0 0 1-7.105 3.071l-19.881-7.88a5.456 5.456 0 0 1-3.071-7.104l21.235-53.577a5.457 5.457 0 0 0-3.072-7.104l-5.943-2.355c-4.19-1.662-4.669-7.443-.739-9.743z" fill="#d81a60"></path></g><g fill="#faa629"><path d="m427.001 217.281-44.252-11.382c-3.451-.913-5.131-4.797-3.431-7.936l22.024-40.034c2.197-3.956 7.99-3.655 9.779.483l2.537 5.867a5.457 5.457 0 0 0 7.195 2.852l52.9-22.869a5.457 5.457 0 0 1 7.196 2.852l8.486 19.63a5.456 5.456 0 0 1-2.852 7.195l-52.9 22.869a5.456 5.456 0 0 0-2.851 7.195l2.537 5.868c1.787 4.136-1.962 8.562-6.368 7.41zM84.999 294.719l44.252 11.382c3.451.913 5.131 4.797 3.431 7.936l-22.024 40.034c-2.197 3.956-7.99 3.655-9.779-.483l-2.537-5.867a5.457 5.457 0 0 0-7.195-2.852l-52.9 22.869a5.457 5.457 0 0 1-7.196-2.852l-8.486-19.63a5.456 5.456 0 0 1 2.852-7.195l52.9-22.869a5.456 5.456 0 0 0 2.851-7.195l-2.537-5.868c-1.787-4.136 1.962-8.562 6.368-7.41z" fill="#faa629"></path></g><g fill="#246abf"><path d="m404.295 349.538-23.242-39.34a5.493 5.493 0 0 1 3.186-8.038l43.882-12.735c4.351-1.244 8.234 3.065 6.573 7.256l-2.355 5.942a5.457 5.457 0 0 0 3.071 7.104l53.577 21.235a5.457 5.457 0 0 1 3.071 7.105l-7.88 19.881a5.456 5.456 0 0 1-7.104 3.071l-53.577-21.235a5.457 5.457 0 0 0-7.104 3.072l-2.355 5.943c-1.662 4.19-7.443 4.669-9.743.739zM107.705 162.462l23.242 39.34a5.493 5.493 0 0 1-3.186 8.038L83.88 222.575c-4.351 1.244-8.234-3.065-6.573-7.256l2.355-5.942a5.457 5.457 0 0 0-3.071-7.104l-53.577-21.235a5.457 5.457 0 0 1-3.071-7.105l7.88-19.881a5.456 5.456 0 0 1 7.104-3.071l53.577 21.235a5.457 5.457 0 0 0 7.104-3.072l2.355-5.943c1.661-4.19 7.442-4.669 9.742-.739z" fill="#246abf"></path></g><g fill="#3eb655"><path d="m294.719 427.001 11.382-44.252c.913-3.451 4.797-5.131 7.936-3.431l40.034 22.024c3.956 2.197 3.655 7.99-.483 9.779l-5.867 2.537a5.457 5.457 0 0 0-2.852 7.195l22.869 52.9a5.457 5.457 0 0 1-2.852 7.196l-19.63 8.486a5.456 5.456 0 0 1-7.195-2.852l-22.869-52.9a5.456 5.456 0 0 0-7.195-2.851l-5.868 2.537c-4.136 1.787-8.562-1.962-7.41-6.368zM217.281 84.999l-11.382 44.252c-.913 3.451-4.797 5.131-7.936 3.431l-40.034-22.024c-3.956-2.197-3.655-7.99.483-9.779l5.867-2.537a5.457 5.457 0 0 0 2.852-7.195l-22.869-52.9a5.457 5.457 0 0 1 2.852-7.196l19.63-8.486a5.456 5.456 0 0 1 7.195 2.852l22.869 52.9a5.456 5.456 0 0 0 7.195 2.851l5.868-2.537c4.136-1.787 8.562 1.962 7.41 6.368z" fill="#3eb655"></path></g></g></svg>