<svg viewBox="0 0 512 512" xmlns="http://www.w3.org/2000/svg"><g><path d="M226.428 328.782c-8.534 0-15.453-6.918-15.453-15.453V66.286l10.302-47.534c0-8.534 6.918-15.453 15.453-15.453L447.663 6.48c8.534 0 22.609 6.918 22.609 11.374v274.027c0 12.613-15.297 33.853-23.831 33.853l-9.347 3.047H226.428z" fill="#f9f7f8"></path><path d="M476.514 19.181v43.718l-27.437 3.285-238.102.102V15.453c0-8.54 6.923-15.453 15.453-15.453h207.913l24.062 1.07c8.529 0 18.111 9.571 18.111 18.111z" fill="#8abbd5"></path><path d="m467.959 57.263 12.615 8.922V313.33c0 8.534-6.918 15.453-15.453 15.453h-28.028l3.258-1.929a17.789 17.789 0 0 0 8.726-15.307l-.145-13.356-3.256-35.365 3.256-31.357.145-165.283z" fill="#efedef"></path><path d="M480.574 15.453v50.731h-31.496V20.029a20.237 20.237 0 0 0-10.622-17.807L434.341 0h30.78c8.53 0 15.453 6.912 15.453 15.453z" fill="#6cabca"></path><circle cx="246.589" cy="32.782" fill="#fea3ce" r="7.726"></circle><circle cx="281.739" cy="32.782" fill="#fce459" r="7.726"></circle><circle cx="316.889" cy="32.782" fill="#bbec6c" r="7.726"></circle><path d="M136.654 420.419c-8.534 0-15.453-6.918-15.453-15.453V157.924l10.302-47.534c0-8.534 6.918-15.453 15.453-15.453l210.933 3.181c8.534 0 22.609 6.918 22.609 11.374V383.52c0 12.613-9.221 34.795-17.755 34.795l-8.127 2.104z" fill="#f9f7f8"></path><path d="M386.74 110.819v43.718l-20.141 3.285-245.397.102v-50.833c0-8.54 6.923-15.453 15.453-15.453H353.47l15.158 1.07c8.53 0 18.112 9.571 18.112 18.111z" fill="#8abbd5"></path><path d="m378.184 148.9 12.615 8.922v247.145c0 8.534-6.918 15.453-15.453 15.453h-20.732l3.258-1.929a17.789 17.789 0 0 0 8.726-15.307V157.822z" fill="#efedef"></path><path d="M390.799 107.091v50.731h-24.201v-46.156a20.237 20.237 0 0 0-10.622-17.807l-4.115-2.222h23.484c8.531.001 15.454 6.913 15.454 15.454z" fill="#6cabca"></path><circle cx="156.814" cy="124.42" fill="#fea3ce" r="7.726"></circle><circle cx="191.964" cy="124.42" fill="#fce459" r="7.726"></circle><circle cx="227.114" cy="124.42" fill="#bbec6c" r="7.726"></circle><path d="M46.879 512c-8.534 0-15.453-6.918-15.453-15.453V249.505l10.302-47.534c0-8.534 6.918-15.453 15.453-15.453l210.933 3.181c8.534 0 22.609 6.918 22.609 11.374V475.1c0 12.613-15.297 33.853-23.831 33.853L257.544 512z" fill="#f9f7f8"></path><path d="M296.965 202.4v43.718l-27.437 3.285-238.102.102v-50.834c0-8.54 6.923-15.453 15.453-15.453h207.913l24.062 1.07c8.529 0 18.111 9.571 18.111 18.112z" fill="#8abbd5"></path><path d="m288.41 240.481 12.615 8.922v247.145c0 8.534-6.918 15.453-15.453 15.453h-28.028l3.258-1.929a17.789 17.789 0 0 0 8.726-15.307v-30.23L256 447.854l13.528-16.68V249.403z" fill="#efedef"></path><path d="M301.025 198.671v50.731h-31.496v-46.156a20.237 20.237 0 0 0-10.622-17.807l-4.115-2.222h30.78c8.53.001 15.453 6.914 15.453 15.454z" fill="#6cabca"></path><circle cx="67.04" cy="216.001" fill="#fea3ce" r="7.726"></circle><circle cx="102.19" cy="216.001" fill="#fce459" r="7.726"></circle><circle cx="137.34" cy="216.001" fill="#bbec6c" r="7.726"></circle><path d="m168.721 444.624-19.575 2.061h-79.92a5.383 5.383 0 0 1-5.382-5.382v-86.682a5.383 5.383 0 0 1 5.382-5.382h79.919l19.575 2.061a5.383 5.383 0 0 1 5.382 5.382v82.561a5.38 5.38 0 0 1-5.381 5.381z" fill="#fce459"></path><path d="M170.781 349.239h-23.697a5.382 5.382 0 0 1 5.382 5.382v86.682a5.383 5.383 0 0 1-5.382 5.382h23.697a5.383 5.383 0 0 0 5.382-5.382V354.62a5.381 5.381 0 0 0-5.382-5.381z" fill="#f9d608"></path><path d="M249.827 316.885H83.545c-10.881 0-19.701-8.821-19.701-19.701 0-10.881 8.821-19.701 19.701-19.701h166.281c10.881 0 19.701 8.821 19.701 19.701.001 10.881-8.819 19.701-19.7 19.701z" fill="#bbec6c"></path><path d="M441.206 305.915a7.725 7.725 0 0 1-7.726-7.726v-58.996h-6.534a7.725 7.725 0 0 1-7.726-7.726 7.725 7.725 0 0 1 7.726-7.726h14.261a7.725 7.725 0 0 1 7.726 7.726v66.722a7.727 7.727 0 0 1-7.727 7.726z" fill="#8abbd5"></path><path d="M358.872 397.361h-30.578a7.726 7.726 0 0 1-6.315-12.179l23.301-33.046c4.716-7.113 6.296-10.368 5.759-14.388-.551-4.119-4.283-7.109-8.873-7.109-4.326 0-8.068 3.071-8.899 7.303-.822 4.187-4.882 6.918-9.069 6.094a7.727 7.727 0 0 1-6.094-9.069c2.249-11.461 12.369-19.78 24.062-19.78 12.227 0 22.627 8.819 24.189 20.515 1.302 9.736-2.784 16.82-8.259 25.069-.04.06-.081.121-.123.18l-14.778 20.958h15.676a7.725 7.725 0 0 1 7.726 7.726 7.724 7.724 0 0 1-7.725 7.726z" fill="#bbec6c"></path><g fill="#efedef"><path d="M210.052 356.965h29.278a7.726 7.726 0 1 0 0-15.452h-29.278a7.726 7.726 0 1 0 0 15.452zM269.526 381.103c-.101-4.249-3.561-7.524-7.511-7.524h-52.177c-3.95 0-7.41 3.275-7.511 7.524-.104 4.36 3.15 7.929 7.178 7.929h52.842c4.029 0 7.282-3.569 7.179-7.929zM176.064 474.109c-.033 0 .034-.001 0 0l-112.319-.619a7.727 7.727 0 0 0 .097 15.452l.101-.001 112.22.001c4.267-.054 7.781-2.939 7.726-7.207-.054-4.233-3.603-7.626-7.825-7.626z" fill="#efedef"></path></g><path d="M269.528 431.174c0-13.459-10.949-24.407-24.406-24.407-11.877 0-21.262 7.65-23.908 19.488a7.725 7.725 0 0 0 5.855 9.226 7.725 7.725 0 0 0 9.226-5.854c1.052-4.707 4.27-7.407 8.827-7.407 4.937 0 8.954 4.017 8.954 8.955 0 4.937-4.017 8.954-8.954 8.954a7.726 7.726 0 1 0 0 15.452c4.937 0 8.954 4.017 8.954 8.954 0 4.938-4.017 8.955-8.993 8.955a8.826 8.826 0 0 1-6.282-2.628c-1.713-1.716-2.648-3.945-2.632-6.276a7.728 7.728 0 0 0-7.675-7.778h-.053a7.727 7.727 0 0 0-7.725 7.675c-.043 6.398 2.563 12.703 7.15 17.297 4.615 4.622 10.708 7.162 17.132 7.162h.125c13.458 0 24.406-10.949 24.406-24.407 0-6.446-2.517-12.313-6.613-16.68 4.096-4.368 6.612-10.235 6.612-16.681z" fill="#fea3ce"></path></g></svg>