<svg viewBox="0 0 58 58" xmlns="http://www.w3.org/2000/svg"><g><g fill="none" fill-rule="nonzero"><path d="M56.869 4.709c1.082 2.465 2.188 7.442-.783 15.264a1 1 0 0 1-1.827.084l-.254-.506-2.234 8.949-.007.007-1.454 5.821a1 1 0 0 1-1.8.312l-1.574-2.361-7.808 19.515a1 1 0 0 1-1.742.21l-2.473-3.461-12.534 8.52a1 1 0 0 1-1.556-.721l-.759-7.092-17.73 7.732a1 1 0 0 1-1.316-1.316l7.732-17.73-7.092-.759a1 1 0 0 1-.721-1.556l8.52-12.534L6 20.614a1 1 0 0 1 .21-1.742l19.515-7.806-2.365-1.574a1 1 0 0 1 .312-1.8l5.818-1.456.007-.007L38.449 4l-.506-.254a1 1 0 0 1 .084-1.827c7.822-2.971 12.8-1.865 15.264-.783a6.908 6.908 0 0 1 3.578 3.573z" fill="#f29c1f"></path><path d="M32.79 42.18 15.82 25.21C38.25 2.78 48.93 5.77 50.88 6.62a.941.941 0 0 1 .5.5c.85 1.95 3.84 12.63-18.59 35.06z" fill="#f3d55b"></path><path d="M30 19a1 1 0 0 1-.6-1.8c7.943-6 13.356-7.709 16.5-8.082a1 1 0 1 1 .235 1.986c-2.9.344-7.943 1.957-15.528 7.691A.993.993 0 0 1 30 19z" fill="#ffffff"></path><path d="M32.79 45.01a1.992 1.992 0 0 1-2.83 0L12.99 28.04a2.001 2.001 0 0 1 2.83-2.83l16.97 16.97a2 2 0 0 1 0 2.83z" fill="#f0c419"></path></g></g></svg>