<svg viewBox="0 0 512 512" xmlns="http://www.w3.org/2000/svg"><g><path d="M379.803 512H132.197c-42.025 0-76.41-34.384-76.41-76.41V76.41C55.787 34.384 90.172 0 132.197 0h247.606c42.025 0 76.41 34.384 76.41 76.41v359.18c0 42.026-34.385 76.41-76.41 76.41z" fill="#47477f"></path><path d="M212.217 463.671v-21.806c0-21.022 12.914-39.173 31.2-46.915V54.45c-14.232-1.407-25.349-13.411-25.349-28.013 0-12.141 7.686-22.487 18.457-26.438H132.197c-42.025 0-76.41 34.384-76.41 76.41V435.59c0 42.025 34.384 76.41 76.41 76.41h115.007c-20.262-6.725-34.987-25.885-34.987-48.329z" fill="#3b3868"></path><path d="M296.091 476.633h-80.183c-12.796 0-23.265-10.469-23.265-23.265 0-12.796 10.469-23.265 23.265-23.265h80.183c12.796 0 23.265 10.469 23.265 23.265 0 12.796-10.469 23.265-23.265 23.265z" fill="#3b3868"></path><path d="M240.033 453.368c0-12.796 10.469-23.265 23.265-23.265h-47.389c-12.796 0-23.265 10.469-23.265 23.265s10.469 23.265 23.265 23.265h47.389c-12.796 0-23.265-10.469-23.265-23.265z" fill="#2d2d59"></path><path d="M371.992 51.503h-52.635L256 71.634l-63.357-20.132h-52.635c-18.067 0-32.713 14.646-32.713 32.713v276.367c0 18.067 14.646 32.713 32.713 32.713h231.985c18.067 0 32.713-14.646 32.713-32.713V84.215c-.001-18.067-14.647-32.712-32.714-32.712z" fill="#91d4f2"></path><path d="M210.704 360.582V84.215c0-9.345 3.925-17.768 10.209-23.73l-28.27-8.983h-52.635c-18.067 0-32.713 14.646-32.713 32.713v276.367c0 18.067 14.646 32.712 32.713 32.712h103.409c-18.067 0-32.713-14.645-32.713-32.712z" fill="#59c2e8"></path><path d="M192.644 51.51v9.657c0 16.833 13.773 30.606 30.606 30.606h65.501c16.833 0 30.606-13.773 30.606-30.606V51.51z" fill="#3b3868"></path><path d="M233.933 61.167V51.51h-41.289v9.657c0 16.833 13.773 30.606 30.606 30.606h41.289c-16.833 0-30.606-13.773-30.606-30.606z" fill="#2d2d59"></path><path d="M220.032 157.647c.422-.22.846-.437 1.271-.649 11.593-5.782 20.546-15.759 24.448-28.113l.136-.43a10.605 10.605 0 0 1 20.226 0l.136.43c3.902 12.354 12.854 22.331 24.448 28.113.425.212.848.428 1.27.648a34.962 34.962 0 0 1 18.79 30.988c0 19.289-15.637 34.926-34.926 34.926h-39.664c-19.289 0-34.926-15.637-34.926-34.926a34.967 34.967 0 0 1 18.791-30.987z" fill="#cb5935"></path><path d="M310.118 290.35H201.882c-21.136 0-38.43-17.293-38.43-38.43 0-21.136 17.293-38.43 38.43-38.43h108.236c21.136 0 38.43 17.293 38.43 38.43 0 21.136-17.294 38.43-38.43 38.43z" fill="#e7896e"></path><path d="M227.597 251.92c0-21.136 17.293-38.43 38.43-38.43h-64.144c-21.136 0-38.43 17.293-38.43 38.43 0 21.136 17.293 38.43 38.43 38.43h64.144c-21.137 0-38.43-17.294-38.43-38.43z" fill="#dd6642"></path><path d="M330.892 357.459H181.108c-21.136 0-38.43-17.293-38.43-38.43 0-21.136 17.293-38.43 38.43-38.43h149.784c21.136 0 38.43 17.293 38.43 38.43s-17.294 38.43-38.43 38.43z" fill="#dd6642"></path><path d="M215.689 319.03c0-21.136 17.293-38.43 38.43-38.43h-73.011c-21.136 0-38.43 17.293-38.43 38.43 0 21.136 17.293 38.43 38.43 38.43h73.011c-21.137-.001-38.43-17.294-38.43-38.43z" fill="#cb5935"></path></g></svg>