<svg viewBox="0 0 512 512" xmlns="http://www.w3.org/2000/svg"><g><path d="M13.228 174.312C46.856 73.836 140.928 1.354 252.875.019 395.692-1.685 512 113.575 512 256c0 21.417-2.63 42.219-7.585 62.103C487.846 384.597 427.716 431 359.188 431H174.937C79.785 431 4.645 199.957 13.228 174.312z" fill="#40c1fa"></path><path d="M467.462 256c0 116.787-94.675 211.462-211.462 211.462S44.538 372.787 44.538 256 139.213 44.538 256 44.538 467.462 139.213 467.462 256z" fill="#72d1fb"></path><path d="M62.543 423.667C23.58 378.75 0 320.129 0 256c0-28.554 4.675-56.017 13.302-81.663A34.94 34.94 0 0 1 25 172.334c16.268 0 29.944 11.099 33.868 26.138C72.732 186.938 90.556 180 110 180c44.183 0 80 35.817 80 80 0 16.703-5.119 32.21-13.874 45.039C201.845 315.392 220 340.576 220 370c0 21.55-9.738 40.826-25.054 53.667z" fill="#3d7a51"></path><path d="M262.978 402.111c0-16.254 5.225-31.287 14.086-43.513a41.439 41.439 0 0 1-1.362-10.563c0-22.563 18.071-40.905 40.529-41.344 2.674-29.728 27.656-53.025 58.08-53.025 14.714 0 28.155 5.449 38.415 14.44 7.226-7.328 17.168-11.973 28.193-12.301 22.463-.668 41.642 17.145 42.568 39.599a41.796 41.796 0 0 1-.263 6.721 74.327 74.327 0 0 1 21.613 14.254c-9.409 38.913-27.708 74.355-52.626 104.057-1.731 2.064-4.307 3.23-7 3.23H266.156a74.213 74.213 0 0 1-3.178-21.555z" fill="#5db33a"></path><path d="M177.792 39.515c-1.8 11.19 5.628 21.782 16.761 23.903 4.914.936 6.771 6.994 3.225 10.523-8.033 7.995-8.25 20.93-.49 29.19 3.425 3.646 1.367 9.638-3.576 10.409-11.198 1.746-18.977 12.083-17.553 23.327.628 4.963-4.56 8.601-9.012 6.319-10.086-5.169-22.455-1.379-27.913 8.554-2.409 4.384-8.744 4.278-11.005-.185-5.121-10.111-17.356-14.314-27.61-9.486-4.526 2.131-9.589-1.679-8.795-6.618 1.8-11.19-5.628-21.782-16.761-23.903-4.914-.936-6.771-6.994-3.225-10.523 8.033-7.995 8.25-20.93.49-29.19-3.425-3.646-1.367-9.638 3.576-10.409C87.103 59.681 94.881 49.344 93.458 38.1c-.628-4.963 4.56-8.601 9.012-6.319 10.086 5.169 22.455 1.379 27.912-8.554 2.409-4.384 8.744-4.278 11.005.185 5.121 10.111 17.356 14.314 27.61 9.486 4.526-2.132 9.589 1.678 8.795 6.617z" fill="#ffde91"></path><path d="M171.76 87.484c0 20.408-16.544 36.952-36.952 36.952s-36.952-16.544-36.952-36.952 16.544-36.952 36.952-36.952 36.952 16.544 36.952 36.952z" fill="#ffc14f"></path><path d="M156.98 87.484c0 12.245-9.926 22.171-22.171 22.171s-22.171-9.926-22.171-22.171 9.926-22.171 22.171-22.171 22.171 9.926 22.171 22.171z" fill="#ffa90b"></path><path d="m424.55 213.557-72.05 72.049V442.5a7.5 7.5 0 0 1-15 0V285.606l-72.05-72.049a7.5 7.5 0 0 1 10.607-10.606l61.443 61.443V157.5a7.5 7.5 0 0 1 15 0v106.894l61.443-61.443a7.5 7.5 0 0 1 10.607 10.606z" fill="#865b47"></path><path d="M319.485 136.061C326.118 145.713 330 157.403 330 170c0 33.137-26.863 60-60 60s-60-26.863-60-60c0-27.969 19.137-51.468 45.031-58.118A49.797 49.797 0 0 1 250 90c0-21.626 13.73-40.044 32.948-47.016A29.885 29.885 0 0 1 280 30c0-16.568 13.431-30 30-30s30 13.432 30 30c0 8.207-3.295 15.643-8.635 21.06C342.73 60.225 350 74.263 350 90c0 20.702-12.581 38.465-30.515 46.061z" fill="#489160"></path><path d="M470 180c0 27.614-22.386 50-50 50-19.521 0-36.428-11.187-44.662-27.5-9.056 4.788-19.38 7.5-30.338 7.5-35.898 0-65-29.102-65-65 0-25.52 14.707-47.604 36.107-58.241C306.204 77.623 300 64.536 300 50c0-27.614 22.386-50 50-50 16.967 0 31.959 8.452 40.999 21.374A29.971 29.971 0 0 1 400 20c15.893 0 28.898 12.358 29.933 27.989C447.904 58.354 460 77.764 460 100a59.75 59.75 0 0 1-13.324 37.704C460.692 146.562 470 162.194 470 180z" fill="#5db33a"></path><path d="M452.579 420c-46.96 56.228-117.592 92-196.579 92-58.715 0-112.812-19.766-156.002-53.008-.68-.523-2.448-5.337-3.123-5.867-3.631-2.853-5.406-4.084-8.875-7.125-.775-.68-2.233 1.205-2.999.516A257.591 257.591 0 0 1 59.422 420z" fill="#82cd64"></path><path d="M270 367.5v95a7.5 7.5 0 0 1-15 0v-95a7.5 7.5 0 0 1 15 0zM92.5 360a7.5 7.5 0 0 0-7.5 7.5v79.016a257.664 257.664 0 0 0 15 12.478V367.5a7.5 7.5 0 0 0-7.5-7.5z" fill="#93dcfc"></path><path d="M270 277.5v95a7.5 7.5 0 0 1-15 0v-95a7.5 7.5 0 0 1 15 0zM92.5 270a7.5 7.5 0 0 0-7.5 7.5v95a7.5 7.5 0 0 0 15 0v-95a7.5 7.5 0 0 0-7.5-7.5z" fill="#c88a1d"></path><path d="M307.5 360v20c0 5.523-4.477 10-10 10h-240c-5.523 0-10-4.477-10-10v-20c0-5.523 4.477-10 10-10h240c5.523 0 10 4.477 10 10z" fill="#b4e7fd"></path><path d="M320 350v10c0 5.523-4.477 10-10 10H45c-5.523 0-10-4.477-10-10v-10c0-5.523 4.477-10 10-10h265c5.523 0 10 4.477 10 10zm-10-60H45c-5.523 0-10 4.477-10 10v10c0 5.523 4.477 10 10 10h265c5.523 0 10-4.477 10-10v-10c0-5.523-4.477-10-10-10zm0-40H45c-5.523 0-10 4.477-10 10v10c0 5.523 4.477 10 10 10h265c5.523 0 10-4.477 10-10v-10c0-5.523-4.477-10-10-10z" fill="#ffc14f"></path><path d="M87.5 280H45c-5.523 0-10-4.477-10-10v-10c0-5.523 4.477-10 10-10h42.5c-5.523 0-10 4.477-10 10v10c0 5.523 4.477 10 10 10zm0 10H45c-5.523 0-10 4.477-10 10v10c0 5.523 4.477 10 10 10h42.5c-5.523 0-10-4.477-10-10v-10c0-5.523 4.477-10 10-10zm0 50H45c-5.523 0-10 4.477-10 10v10c0 5.523 4.477 10 10 10h42.5c-5.523 0-10-4.477-10-10v-10c0-5.523 4.477-10 10-10z" fill="#ffb52d"></path><path d="M100 265a7.5 7.5 0 1 1-15 0 7.5 7.5 0 0 1 15 0zm163.254-7.5a7.5 7.5 0 1 0 0 15 7.5 7.5 0 0 0 0-15zM100 305a7.5 7.5 0 1 1-15 0 7.5 7.5 0 0 1 15 0zm163.254-7.5a7.5 7.5 0 1 0 0 15 7.5 7.5 0 0 0 0-15z" fill="#c88a1d"></path><path d="M300 470a7.5 7.5 0 0 1-7.5 7.5h-45a7.5 7.5 0 0 1 0-15h45a7.5 7.5 0 0 1 7.5 7.5zm85.632-87.99a7.5 7.5 0 0 0-9.948 3.68l-11.237 24.433-9.331-25.223a7.5 7.5 0 1 0-14.068 5.204l15.613 42.205a7.5 7.5 0 0 0 13.848.531l18.803-40.883a7.499 7.499 0 0 0-3.68-9.947zm-230 62.791a7.501 7.501 0 0 0-9.948 3.68l-11.237 24.433-9.331-25.223a7.5 7.5 0 1 0-14.068 5.204l6.937 18.752a255.444 255.444 0 0 0 26.683 14.94l14.644-31.84a7.498 7.498 0 0 0-3.68-9.946zm210 20a7.501 7.501 0 0 0-9.948 3.68l-11.237 24.433-9.331-25.223a7.5 7.5 0 1 0-14.068 5.204l10.298 27.837a254.218 254.218 0 0 0 31.56-12.055l6.406-13.929a7.5 7.5 0 0 0-3.68-9.947z" fill="#489160"></path></g></svg>