<svg viewBox="0 0 512 512" xmlns="http://www.w3.org/2000/svg"><g><path d="M433 301H79c-8.284 0-15-6.716-15-15v-91h384v91c0 8.284-6.716 15-15 15z" fill="#ffe664"></path><path d="M256 131c35.346 0 64 28.654 64 64v106H192V195c0-35.346 28.654-64 64-64z" fill="#b4dc23"></path><path d="M320 195c0-35.346-28.654-64-64-64v170h64z" fill="#96c814"></path><path d="M128 131c35.346 0 64 28.654 64 64v106H79c-8.284 0-15-6.716-15-15v-91c0-35.346 28.654-64 64-64z" fill="#ffe664"></path><path d="M70.5 88.5C70.5 56.794 96.295 31 128 31s57.5 25.794 57.5 57.5S159.705 146 128 146s-57.5-25.794-57.5-57.5zM198.5 88.5c0-31.706 25.795-57.5 57.5-57.5s57.5 25.794 57.5 57.5S287.705 146 256 146s-57.5-25.794-57.5-57.5z" fill="#ffd2aa"></path><path d="M384 131c35.346 0 64 28.654 64 64v106H320V195c0-35.346 28.654-64 64-64z" fill="#f04614"></path><path d="M326.5 88.5c0-31.706 25.795-57.5 57.5-57.5s57.5 25.794 57.5 57.5S415.705 146 384 146s-57.5-25.794-57.5-57.5zM256 31c31.705 0 57.5 25.794 57.5 57.5S287.705 146 256 146z" fill="#fabe8f"></path><path d="M448 311c-35.346 0-64 28.654-64 64v106h113c8.284 0 15-6.716 15-15v-91c0-35.346-28.654-64-64-64z" fill="#96c814"></path><path d="M448 326c-31.705 0-57.5-25.794-57.5-57.5S416.295 211 448 211s57.5 25.794 57.5 57.5S479.705 326 448 326z" fill="#fabe8f"></path><path d="M64 311c35.346 0 64 28.654 64 64v106H15c-8.284 0-15-6.716-15-15v-91c0-35.346 28.654-64 64-64z" fill="#ff6e3c"></path><path d="M6.5 268.5C6.5 236.794 32.295 211 64 211s57.5 25.794 57.5 57.5S95.705 326 64 326 6.5 300.206 6.5 268.5z" fill="#ffd2aa"></path><path d="M192 311c35.346 0 64 28.654 64 64v106H128V375c0-35.346 28.654-64 64-64z" fill="#41a0ff"></path><path d="M134.5 268.5c0-31.706 25.795-57.5 57.5-57.5s57.5 25.794 57.5 57.5S223.705 326 192 326s-57.5-25.794-57.5-57.5z" fill="#ffd2aa"></path><path d="M320 311c35.346 0 64 28.654 64 64v106H256V375c0-35.346 28.654-64 64-64z" fill="#facd28"></path><path d="M262.5 268.5c0-31.706 25.795-57.5 57.5-57.5s57.5 25.794 57.5 57.5S351.705 326 320 326s-57.5-25.794-57.5-57.5z" fill="#fabe8f"></path></g></svg>