<svg viewBox="0 0 512 512" xmlns="http://www.w3.org/2000/svg"><g><path d="m205.666 298.038-25.222-25.222-171.698 158.5C-2.6 441.79-2.956 459.599 7.963 470.518c10.919 10.919 28.728 10.563 39.202-.783z" fill="#873f30"></path><path d="M46.407 470.528c-10.557 10.557-27.786 10.647-38.441-.008a26.923 26.923 0 0 1-6.631-10.834c9.417 3.063 20.161.823 27.59-6.606.261-.261.521-.538.774-.806l158.504-171.701 17.465 17.465-158.503 171.7c-.253.268-.505.537-.758.79z" fill="#6c3328"></path><path d="m230.504 213.053-58.08 69.28 23.726 23.725 69.28-58.079z" fill="#873f30"></path><path d="m230.504 213.053-18.767 22.387 5.631 5.631c4.145 4.145 4.145 10.865 0 15.009l-35.598 35.598 14.38 14.38 69.28-58.079z" fill="#6c3328"></path><path d="m182.043 319.471-23.031-23.031c-6.658-6.658-6.658-17.454 0-24.112 6.658-6.658 17.454-6.658 24.112 0l23.031 23.031c6.658 6.658 6.658 17.453 0 24.112-6.658 6.658-17.454 6.658-24.112 0z" fill="#ba5d4f"></path><path d="M206.148 319.47a16.998 16.998 0 0 1-12.048 4.994 17.003 17.003 0 0 1-12.064-4.994l-17.457-17.457a16.952 16.952 0 0 0 12.056 4.985 16.96 16.96 0 0 0 12.056-4.985c6.663-6.663 6.655-17.457 0-24.112l17.457 17.457c6.663 6.664 6.664 17.449 0 24.112z" fill="#a34f41"></path><path d="m260.598 54.709 51.138 51.138-80.285 80.285-51.138-51.138z" fill="#ba5d4f"></path><path d="m343.463 298.22-51.138-51.138 80.285-80.285 51.138 51.138z" fill="#a34f41"></path><path d="m165.925 152.617-1.776-1.776c-6.736-6.736-6.736-17.657 0-24.394l87.877-87.877c6.736-6.736 17.657-6.736 24.394 0l1.776 1.776c6.736 6.736 6.736 17.657 0 24.394l-87.877 87.877c-6.736 6.736-17.657 6.736-24.394 0z" fill="#873f30"></path><path d="m325.866 312.557 1.776 1.776c6.736 6.736 17.657 6.736 24.394 0l87.877-87.877c6.736-6.736 6.736-17.657 0-24.394l-1.776-1.776c-6.736-6.736-17.657-6.736-24.394 0l-87.877 87.877c-6.737 6.737-6.737 17.658 0 24.394z" fill="#6c3328"></path><path d="m333.93 87.06 57.427 57.428-121.254 121.254-57.427-57.427z" fill="#fcc16d"></path><path d="m240.999 236.743 121.254-121.254 29.066 29.066L270.065 265.81z" fill="#fca62f"></path><path d="m334.208 84.646-14.07-5.752a12.935 12.935 0 0 0-14.043 2.827l-98.796 98.796a12.936 12.936 0 0 0-2.827 14.043l5.752 14.07c2.332 5.705 9.723 7.193 14.081 2.835L337.042 98.727c4.359-4.358 2.871-11.749-2.834-14.081z" fill="#873f30"></path><path d="m393.837 144.275 5.752 14.07a12.935 12.935 0 0 1-2.827 14.043l-98.796 98.796a12.936 12.936 0 0 1-14.043 2.827l-14.07-5.752c-5.705-2.332-7.193-9.723-2.835-14.081L379.756 141.44c4.358-4.358 11.749-2.87 14.081 2.835z" fill="#6c3328"></path><path d="M445.921 420.777H236.44V391.38c0-6.069 4.92-10.989 10.989-10.989h187.503c6.069 0 10.989 4.92 10.989 10.989z" fill="#ba5d4f"></path><path d="M445.918 391.382v29.395H422.93v-29.395c0-6.066-4.923-10.989-10.989-10.989h22.989c6.065 0 10.988 4.923 10.988 10.989z" fill="#a34f41"></path><path d="M492.089 478.478H190.272c-8.006 0-13.324-8.286-9.991-15.564l10.67-23.297a56.75 56.75 0 0 1 51.597-33.12h197.265a56.75 56.75 0 0 1 51.597 33.12l10.67 23.297c3.333 7.278-1.986 15.564-9.991 15.564z" fill="#873f30"></path><path d="M492.093 478.479h-29.384c8 0 13.318-8.286 9.989-15.56l-10.67-23.307c-9.242-20.176-29.406-33.12-51.593-33.12h29.373c22.197 0 42.362 12.945 51.604 33.12l10.67 23.307c3.33 7.275-1.989 15.56-9.989 15.56z" fill="#6c3328"></path><path d="M476.084 362.195a7.613 7.613 0 0 1-5.366-13.01l8.237-8.188a7.613 7.613 0 0 1 10.733 10.797l-8.237 8.188a7.59 7.59 0 0 1-5.367 2.213zM452.063 345.171a7.612 7.612 0 0 1-7.389-9.465l2.857-11.39a7.612 7.612 0 0 1 14.765 3.703l-2.857 11.39a7.613 7.613 0 0 1-7.376 5.762zM492.971 386.315a7.614 7.614 0 0 1-1.802-15.007l11.41-2.791c4.086-1 8.203 1.501 9.202 5.585s-1.501 8.204-5.585 9.202l-11.41 2.791a7.666 7.666 0 0 1-1.815.22z" fill="#fcc16d"></path></g></svg>