<svg viewBox="0 0 64 64" xmlns="http://www.w3.org/2000/svg"><g><path d="M54.016 64H17.91c-1.37 0-1.995-1.728-.932-2.591 1.485-1.206 2.89-2.25 4.153-3.176 4.398-3.216 6.318-4.633 6.624-8.197.292-3.227-1.165-4.318-4.172-6.596-3.611-2.751-8.064-6.152-6.34-11.533.442-1.396 1.686-2.75 3.158-3.98 3.859-3.175 9.888-4.707 18.616-4.707h8.15c-.548 2.225-3.338 3.271-5.59 4.516-2.304 1.284-6.574 4.003 1.429 8.534 4.252 2.398 10.763 5.924 13.315 13.766 1.602 5.008 1 9.2-.6 12.87A1.846 1.846 0 0 1 54.015 64z" fill="#8cd9f4"></path><g fill="#59b7ea"><path d="M28.944 57.911a1.278 1.278 0 0 1-.947-2.14c1.706-1.877 2.567-3.89 2.793-6.525a1.279 1.279 0 1 1 2.55.22c-.272 3.188-1.368 5.738-3.448 8.025-.253.28-.6.42-.948.42zM50.643 51.786c-.54 0-1.04-.342-1.218-.882-1.725-5.298-6.167-7.8-10.087-10.008l-.288-.16c-.885-.502-2.706-1.535-4.356-3.092a1.278 1.278 0 0 1-.052-1.808 1.278 1.278 0 0 1 1.81-.052c1.423 1.342 3.003 2.237 3.85 2.72l.288.16c4.115 2.317 9.235 5.2 11.27 11.445a1.285 1.285 0 0 1-1.217 1.677z" fill="#59b7ea"></path></g><path d="M35.484 16.056c0 5.577 4.52 10.098 10.097 10.098s10.097-4.521 10.097-10.098S51.158 0 45.581 0 35.484 10.48 35.484 16.056z" fill="#80d34a"></path><path d="M51.288 15.536a1.28 1.28 0 0 0-1.81.018L46.86 18.22v-5.145a1.28 1.28 0 1 0-2.56 0V32.8a1.28 1.28 0 1 0 2.56 0V21.873l4.443-4.527a1.282 1.282 0 0 0-.015-1.81z" fill="#66a53d"></path><path d="M26.93 35.04c0 5.577-4.52 10.098-10.097 10.098S6.736 40.618 6.736 35.04s4.52-16.057 10.097-16.057S26.93 29.464 26.93 35.04z" fill="#80d34a"></path><path d="M16.833 30.781a1.28 1.28 0 0 0-1.28 1.28v5.14l-2.615-2.665a1.277 1.277 0 0 0-1.81-.015 1.28 1.28 0 0 0-.018 1.81l4.443 4.527v10.923a1.28 1.28 0 1 0 2.56 0v-19.72a1.28 1.28 0 0 0-1.28-1.28z" fill="#66a53d"></path></g></svg>