<svg viewBox="0 0 512 512" xmlns="http://www.w3.org/2000/svg"><g id="Layer_2" data-name="Layer 2"><g id="calendar_copy" data-name="calendar copy"><g id="_28" data-name="28"><rect fill="#c9c9c9" height="488.94" rx="80.82" width="512" y="23.06"/><rect fill="#e6e6e6" height="457.94" rx="80.82" width="512" y="23.06"/><path d="m512 103.88v44h-512v-44a80.82 80.82 0 0 1 80.82-80.82h350.36a80.82 80.82 0 0 1 80.82 80.82z" fill="#f00"/><circle cx="118.28" cy="81.17" fill="#d6d6d6" r="37.51"/><rect fill="#565656" height="101.53" rx="22.47" width="44.94" x="95.81"/><circle cx="256" cy="81.17" fill="#d6d6d6" r="37.51"/><rect fill="#565656" height="101.53" rx="22.47" width="44.94" x="233.53"/><circle cx="393.72" cy="81.17" fill="#d6d6d6" r="37.51"/><rect fill="#565656" height="101.53" rx="22.47" width="44.94" x="371.26"/><path d="m237.55 287.53a58.8 58.8 0 0 1 12.24-2.94 90.33 90.33 0 0 1 11.82-.89 61.62 61.62 0 0 1 10.94 1.1 55.53 55.53 0 0 1 12.17 3.76 59.94 59.94 0 0 1 12 7 46.47 46.47 0 0 1 10.39 10.87 55 55 0 0 1 7.24 15.38 69 69 0 0 1 2.74 20.37 88.44 88.44 0 0 1 -2.8 23.31 66.54 66.54 0 0 1 -7.52 17.71 50.75 50.75 0 0 1 -11.08 12.64 59.43 59.43 0 0 1 -13.53 8.27 65.87 65.87 0 0 1 -14.84 4.52 85.47 85.47 0 0 1 -15 1.36 73.62 73.62 0 0 1 -17-2.12 69.08 69.08 0 0 1 -16.95-6.42 54.54 54.54 0 0 1 -14.08-10.8 33.88 33.88 0 0 1 -8.29-15.34 26.87 26.87 0 0 1 -.82-6.57 21.68 21.68 0 0 1 1-6.49 16 16 0 0 1 2.94-5.47 14.6 14.6 0 0 1 5-3.83 16.83 16.83 0 0 1 7.25-1.43 18.93 18.93 0 0 1 10.46 3.14 24 24 0 0 1 8.13 9.71 19.46 19.46 0 0 0 2.53 3.42 18.56 18.56 0 0 0 4.51 3.55 30.33 30.33 0 0 0 6.77 2.8 32.45 32.45 0 0 0 9.16 1.17q7.93 0 13.06-2.53a21.83 21.83 0 0 0 8.13-6.63 24.55 24.55 0 0 0 4.17-9.3 47.73 47.73 0 0 0 1.16-10.53 26.5 26.5 0 0 0 -2.32-11.55 23.3 23.3 0 0 0 -6.22-8.07 26.4 26.4 0 0 0 -8.82-4.78 32.57 32.57 0 0 0 -10-1.58 32.94 32.94 0 0 0 -8.68 1.17c-2.87.77-5.74 1.62-8.61 2.53s-5.77 1.75-8.69 2.53a35.13 35.13 0 0 1 -9 1.16 29.27 29.27 0 0 1 -6.29-.69 13.9 13.9 0 0 1 -9.64-7.38 16.75 16.75 0 0 1 -1.57-7.79l7.93-75.2a38.39 38.39 0 0 1 1.16-6.35 21.74 21.74 0 0 1 2.74-6.23 14.81 14.81 0 0 1 4.92-4.71 15.09 15.09 0 0 1 7.86-1.85h54.69a101.18 101.18 0 0 1 10.32.55 29.63 29.63 0 0 1 9.43 2.46 17 17 0 0 1 6.84 5.67q2.67 3.76 2.67 10.19t-2.67 10.39a16.68 16.68 0 0 1 -6.84 5.74 29.63 29.63 0 0 1 -9.43 2.46 98.39 98.39 0 0 1 -10.32.55h-32.91c-.74 0-1.44 0-2.12.07a3.39 3.39 0 0 0 -1.78.61 3.94 3.94 0 0 0 -1.23 1.71 11 11 0 0 0 -.62 3.35z" fill="#3d3d3d"/></g></g></g></svg>