<svg viewBox="0 0 497 497" xmlns="http://www.w3.org/2000/svg"><g><path d="M413.5 0h-30v497h30c16.57 0 30-13.43 30-30V30c0-16.57-13.43-30-30-30z" fill="#496585"></path><path d="M413.5 30c0-16.57-13.43-30-30-30h-240c-16.569 0-30 13.431-30 30v150l-51.213 51.213a30 30 0 0 0-8.787 21.213V277.5A7.5 7.5 0 0 0 61 285h22.5v60l-21.213 21.213a30 30 0 0 0-8.787 21.213V467c0 16.569 13.431 30 30 30h300c16.569 0 30-13.431 30-30l-60-128.5 60-128.5v-30l-30-75z" fill="#5a7ba0"></path><g fill="#ffe17c"><path d="M293.5 30h45v150h-45zM368.5 30h45v150h-45zM143.5 30h45v150h-45zM218.5 30h45v150h-45z" fill="#ffe17c"></path></g><path d="M413.5 467h-30l-90-128.377L383.5 210h30z" fill="#3a4e66"></path><path d="M143.5 210h240v257h-240z" fill="#496585"></path></g></svg>