<svg viewBox="0 0 512 512" xmlns="http://www.w3.org/2000/svg"><g><circle cx="256" cy="256" fill="#0055a3" r="208"></circle><path d="M25.755 0h156.491C196.469 0 208 11.531 208 25.755v156.491C208 196.469 196.469 208 182.245 208H25.755C11.531 208 0 196.469 0 182.245V25.755C0 11.531 11.531 0 25.755 0z" fill="#01c0fa"></path><path d="M182.245 0h-15.968a25.86 25.86 0 0 1 .515 5.151v130.313c0 28.682-23.251 51.933-51.932 51.933H.515C2.902 199.152 13.295 208 25.755 208h156.491C196.469 208 208 196.469 208 182.245V25.755C208 11.531 196.469 0 182.245 0z" fill="#08a9f1"></path><path d="M428.575 22.466 508.8 161.851c9.109 15.826-2.314 35.581-20.574 35.581H327.774c-18.26 0-29.683-19.755-20.574-35.581l80.227-139.385c9.13-15.863 32.018-15.863 41.148 0z" fill="#e53950"></path><path d="m111.167 313.047 26.496 51.025a8.08 8.08 0 0 0 5.766 4.232l57.888 10.201c6.486 1.143 8.95 9.151 4.229 13.743l-41.111 39.981a8.078 8.078 0 0 0-2.349 7.036l9.172 58.703c1.027 6.574-5.891 11.5-11.767 8.379l-51.704-27.461a8.076 8.076 0 0 0-7.576 0l-51.704 27.461c-5.877 3.121-12.794-1.805-11.767-8.379l9.172-58.703a8.075 8.075 0 0 0-2.349-7.036l-41.11-39.982c-4.721-4.592-2.257-12.6 4.229-13.743l57.888-10.201a8.077 8.077 0 0 0 5.766-4.232l26.496-51.025c3.015-5.805 11.321-5.805 14.335.001z" fill="#ffc344"></path><path d="m201.318 378.504-44.259-7.799c.255 4.574-1.326 9.308-5.114 12.992l-25.438 24.739a16.92 16.92 0 0 0-4.921 14.744l5.736 36.709c1.809 11.578-8.142 20.715-18.673 19.454l50.843 27.003c5.877 3.121 12.794-1.805 11.767-8.379l-9.172-58.703a8.075 8.075 0 0 1 2.349-7.036l41.111-39.981c4.721-4.592 2.257-12.6-4.229-13.743z" fill="#feb237"></path><circle cx="408" cy="408" fill="#80d261" r="104"></circle><path d="M508.8 161.851 428.575 22.466c-7.222-12.548-23.055-15.17-33.875-7.865l57.349 99.639c16.023 27.838-4.071 62.588-36.191 62.588H304.217c1.519 11.103 10.894 20.604 23.557 20.604h160.452c18.26-.001 29.683-19.756 20.574-35.581z" fill="#ca2e43"></path><path d="M432.714 306.954c23.247 19.073 38.079 48.025 38.079 80.442 0 57.438-46.562 104-104 104-8.516 0-16.793-1.024-24.714-2.954C360.022 503.164 382.979 512 408 512c57.438 0 104-46.562 104-104 0-48.922-33.779-89.954-79.286-101.046z" fill="#68ca44"></path></g></svg>