<svg viewBox="0 0 512 512" xmlns="http://www.w3.org/2000/svg"><g><path d="M366.117 273.36h27.017v15.674h-27.017z" fill="#2f2f37" transform="scale(-1) rotate(88.78 287.244 -387.788)"></path><path d="M194.476 262.778h15.673v27.669h-15.673z" fill="#2f2f37"></path><path d="M0 399.785h512v111.919H0z" fill="#7eb129"></path><path d="m174.696 105.3-11.717-45.792 51.399 15.587 43.262 48.76-26.431 20.872z" fill="#008ac1"></path><path d="M501.585 267.8c-3.772 12.445-15.444 21.995-29.957 21.546-39.717-1.275-79.172-6.98-117.561-17.283-18.808-5.047-40.563-11.766-66.111-21.264l-111.543-49.204c-27.22-13.605-57.187-29.623-90.29-48.525l-38.149-24.377a37.47 37.47 0 0 1-12.163-31.64L45.717.295l21.391 6.487a26.144 26.144 0 0 1 18.143 20.382l4.227 23.454c4.044 22.486 21.18 40.364 43.489 45.349l304.327 68.065c21.232 4.733 38.693 19.79 46.519 40.082l4.66 12.11 7.147 18.536 5.193 13.469c2.57 6.656 2.622 13.459.772 19.571z" fill="#e3e8ec"></path><path d="M501.585 267.797c-3.773 12.444-15.448 21.999-29.956 21.545-39.716-1.267-79.174-6.979-117.56-17.283-18.814-5.043-40.565-11.756-66.111-21.255l-111.546-49.208c-27.217-13.61-57.19-29.626-90.286-48.524l-38.149-24.375a37.483 37.483 0 0 1-12.17-31.646c128.54 100.266 458.196 196.318 465.011 151.175 2.567 6.657 2.62 13.461.767 19.571z" fill="#d5d8db"></path><path d="m495.619 234.761-39.539-11.985c-4.138-1.254-6.478-5.632-5.224-9.77 1.254-4.148 5.632-6.489 9.77-5.235l27.847 8.453 7.146 18.537zM186.884 192.196l139.191 48.623-175.922 46.069-51.396-15.584zM56.812 122.312l59.316 21.193-79.885 25.484-30.992-9.399zM148.034 146.581c-7.038 0-10.484-9.024-5.199-13.691 5.315-4.695 13.806-.2 12.976 6.815-.462 3.883-3.877 6.876-7.777 6.876zM373.084 215.179c-6.428-1.944-7.474-10.906-1.666-14.28 5.79-3.364 13.043 1.958 11.584 8.489-.791 3.541-4.024 6.125-7.652 6.125a7.57 7.57 0 0 1-2.266-.334zm-25.266-7.659c-6.42-1.946-7.462-10.911-1.658-14.28 5.791-3.361 13.049 1.954 11.588 8.489-.791 3.541-4.024 6.125-7.652 6.125a7.713 7.713 0 0 1-2.278-.334zm-25.255-7.659c-6.419-1.945-7.463-10.914-1.659-14.282 5.786-3.356 13.055 1.957 11.58 8.49-.798 3.537-4.01 6.126-7.642 6.126a7.748 7.748 0 0 1-2.279-.334zm-25.255-7.659c-6.423-1.941-7.464-10.914-1.659-14.282 5.79-3.358 13.037 1.961 11.578 8.49-.791 3.538-4.013 6.126-7.64 6.126a7.64 7.64 0 0 1-2.279-.334zm-25.255-7.659c-6.428-1.942-7.465-10.908-1.659-14.28 5.789-3.362 13.037 1.96 11.578 8.489-.79 3.535-4.017 6.126-7.64 6.126a7.678 7.678 0 0 1-2.279-.335zm-25.255-7.66c-6.428-1.944-7.474-10.906-1.666-14.28 5.79-3.364 13.043 1.958 11.584 8.489-.791 3.54-4.024 6.125-7.652 6.125a7.534 7.534 0 0 1-2.266-.334zm-25.266-7.659c-6.417-1.945-7.464-10.913-1.658-14.279 5.788-3.356 13.048 1.958 11.588 8.488-.791 3.537-4.028 6.125-7.651 6.125a7.677 7.677 0 0 1-2.279-.334zm-25.255-7.659c-6.418-1.945-7.464-10.911-1.659-14.279 5.781-3.355 13.054 1.959 11.58 8.488-.798 3.537-4.01 6.125-7.642 6.125a7.577 7.577 0 0 1-2.279-.334zm-25.255-7.659c-6.422-1.94-7.464-10.911-1.66-14.279 5.786-3.357 13.041 1.963 11.579 8.489-.792 3.533-4.014 6.135-7.641 6.135a7.608 7.608 0 0 1-2.278-.345zM400.607 223.172c-7.115 0-10.507-9.183-5.083-13.794 5.447-4.63 14.076.21 12.808 7.301-.663 3.709-3.946 6.493-7.725 6.493z" fill="#008ac1"></path><path d="M0 426.159h512v59.152H0z" fill="#c3c3cd"></path><circle cx="379.935" cy="310.143" fill="#515b65" r="20.672"></circle><circle cx="202.313" cy="305.891" fill="#515b65" r="20.672"></circle></g></svg>