<svg viewBox="0 0 512 512" xmlns="http://www.w3.org/2000/svg"><g><path d="M471.441 74.627v272.805c0 40.365-32.054 73.259-72.098 74.596L310.062 309.42l-39.019-193.578C214.088 104.592 220.267 15.105 272.775 0h124.029c41.215 0 74.637 33.412 74.637 74.627z" fill="#f3f5fc"></path><g fill="#6b7d8e"><path d="M417.214 191.69h-77.319c-4.143 0-7.5-3.357-7.5-7.5s3.357-7.5 7.5-7.5h77.319c4.143 0 7.5 3.357 7.5 7.5s-3.357 7.5-7.5 7.5zM417.214 241.127h-77.318c-4.143 0-7.5-3.357-7.5-7.5s3.357-7.5 7.5-7.5h77.318c4.143 0 7.5 3.357 7.5 7.5s-3.357 7.5-7.5 7.5zM417.214 91.181H280.673c-4.143 0-7.5-3.357-7.5-7.5s3.357-7.5 7.5-7.5h136.541c4.143 0 7.5 3.357 7.5 7.5s-3.357 7.5-7.5 7.5zM417.214 140.619h-94.623c-4.143 0-7.5-3.357-7.5-7.5s3.357-7.5 7.5-7.5h94.623c4.143 0 7.5 3.357 7.5 7.5s-3.357 7.5-7.5 7.5z" fill="#6b7d8e"></path></g><path d="M399.343 422.028c-.84.031-1.689.042-2.539.042H76.783c-41.215 0-74.637-33.422-74.637-74.637V74.627C2.146 33.412 35.568 0 76.783 0h195.992c-23.618 25.307-21.1 79.062 9.576 111.758 34.334 36.604 27.712 197.661 27.712 197.661z" fill="#d7ddf5"></path><path d="M125.5 91.181H56.37c-4.143 0-7.5-3.357-7.5-7.5s3.357-7.5 7.5-7.5h69.13c4.143 0 7.5 3.357 7.5 7.5s-3.357 7.5-7.5 7.5z" fill="#5f7080"></path><path d="m272.8 323.005 47.982-47.984 88.1 88.1-47.984 47.983z" fill="#6b7d8e"></path><path d="M509.649 460.115c-41.997 54.947-167.224-47.108-138.632-108.484l13.4-13.41c8.809-8.798 23.079-8.798 31.888 0l76.928 76.938c12.312 12.312 17.784 28.872 16.416 44.956z" fill="#ff6e80"></path><path d="M509.649 460.115a56.525 56.525 0 0 1-16.416 35.267c-22.157 22.157-58.077 22.157-80.234 0l-76.928-76.928c-8.809-8.809-8.809-23.079 0-31.878l34.945-34.945c-5.284 52.418 82.702 134.652 138.633 108.484z" fill="#fd5c6f"></path><path d="M365.556 208.906c0 56.18-29.173 105.551-73.197 133.781-186.117 5.502-196.398-259.003-71.29-291.937 81.001 7.233 144.487 75.279 144.487 158.156z" fill="#77899b"></path><path d="M292.359 342.687c-24.706 15.846-54.087 25.028-85.602 25.028h-.083c-87.664-.041-158.726-71.135-158.726-158.809 0-87.685 71.072-158.768 158.747-158.799h.062c4.819 0 9.597.218 14.312.642-90.721 67.798-83.529 262.859 71.29 291.938z" fill="#6b7d8e"></path><path d="M307.262 208.906c0 51.672-38.987 94.245-89.157 99.872-79.089-35.369-91.326-140.06-43.267-195.195a100.096 100.096 0 0 1 31.878-5.182c55.548.001 100.546 44.998 100.546 100.505z" fill="#83deff"></path><path d="M218.105 308.778c-3.72.425-7.513.643-11.348.643h-.052c-55.486-.031-100.463-45.019-100.463-100.515 0-44.345 28.727-81.985 68.595-95.323-25.027 63.735-13.772 147.503 43.268 195.195z" fill="#5ad6ff"></path><path d="M250.874 191.69h-88.231c-4.143 0-7.5-3.357-7.5-7.5s3.357-7.5 7.5-7.5h88.231c4.143 0 7.5 3.357 7.5 7.5s-3.357 7.5-7.5 7.5zM250.874 241.127h-88.231c-4.143 0-7.5-3.357-7.5-7.5s3.357-7.5 7.5-7.5h88.231c4.143 0 7.5 3.357 7.5 7.5s-3.357 7.5-7.5 7.5z" fill="#6b7d8e"></path></g></svg>