<svg viewBox="0 0 512 512" xmlns="http://www.w3.org/2000/svg"><g><path d="M181 309.272v-62.007c-37.207-24.932-60-67.163-60-112.266C121 60.557 181.557 0 256 0s135 60.557 135 135c0 73.228-58.594 133.022-131.367 134.956z" fill="#ff5959"></path><path d="M259.633 269.956C332.406 268.022 391 208.228 391 135 391 60.557 330.443 0 256 0v271.772z" fill="#e63a57"></path><path d="m202.646 461.492-88.652-66.504 17.988-23.994 55.372 41.514 23.408-70.254 28.476 9.492z" fill="#3d9ccc"></path><path d="M241 60h30v90h-30z" fill="#f3f5f9"></path><path d="M271 300h60v30h-60zM285.625 384.45l51.946-29.991 15.002 25.984-51.946 29.992z" fill="#ffbe40"></path><path d="M241 180h30v30h-30z" fill="#f3f5f9"></path><path d="M75 362c-33.076 0-60-26.909-60-60s26.924-60 60-60 60 26.909 60 60-26.924 60-60 60z" fill="#5ccfe6"></path><path d="M256 60h15v90h-15zM256 180h15v30h-15z" fill="#e1e6f0"></path><path d="M135 302c0-33.091-26.924-60-60-60v120c33.076 0 60-26.909 60-60z" fill="#3d9ccc"></path><path d="M150 512H0V407c0-24.814 20.186-45 45-45h60c24.814 0 45 20.186 45 45z" fill="#5ccfe6"></path><path d="M105 362H75v150h75V407c0-24.814-20.186-45-45-45z" fill="#3d9ccc"></path><path d="M437 362c-33.076 0-60-26.909-60-60s26.924-60 60-60 60 26.909 60 60-26.924 60-60 60z" fill="#5ccfe6"></path><path d="M497 302c0-33.091-26.924-60-60-60v120c33.076 0 60-26.909 60-60z" fill="#3d9ccc"></path><path d="M512 512H362V407c0-24.814 20.186-45 45-45h60c24.814 0 45 20.186 45 45z" fill="#5ccfe6"></path><path d="M467 362h-30v150h75V407c0-24.814-20.186-45-45-45z" fill="#3d9ccc"></path></g></svg>