<svg viewBox="0 0 455.111 455.111" xmlns="http://www.w3.org/2000/svg"><g><path d="M455.111 227.556C455.111 102.4 352.711 0 227.556 0S0 102.4 0 227.556s102.4 227.556 227.556 227.556 227.555-102.401 227.555-227.556z" fill="#e24c4b"></path><path d="M227.556 412.444c102.4 0 184.889-82.489 184.889-184.889S329.956 42.667 227.556 42.667 42.667 125.156 42.667 227.556s82.489 184.888 184.889 184.888z" fill="#ffffff"></path><path d="M334.222 256c-32.711 38.4-46.933 52.622-68.267 69.689v38.4H157.867V332.8c-9.956-12.8-17.067-28.444-17.067-44.089V152.178c0-4.267 1.422-7.111 4.267-9.956 2.844-2.844 5.689-4.267 9.956-4.267 8.533 0 14.222 7.111 14.222 14.222v56.889c0 2.844 1.422 4.267 4.267 4.267 1.422 0 4.267-1.422 4.267-4.267V128c0-4.267 1.422-7.111 4.267-9.956s5.689-4.267 9.956-4.267c8.533 0 14.222 7.111 14.222 14.222v81.067c0 2.844 1.422 4.267 4.267 4.267 1.422 0 4.267-1.422 4.267-4.267v-102.4c0-4.267 1.422-7.111 4.267-9.956 2.844-2.844 7.111-4.267 9.956-4.267 8.533 0 14.222 7.111 14.222 14.222v100.978c0 2.844 1.422 4.267 4.267 4.267 1.422 0 4.267-1.422 4.267-4.267v-81.067c0-4.267 1.422-7.111 4.267-9.956 2.844-2.844 7.111-4.267 9.956-4.267 8.533 0 15.644 7.111 15.644 14.222v125.156l21.333-22.756c2.844-4.267 8.533-5.689 14.222-5.689 4.267 0 9.956 1.422 12.8 5.689 9.952 7.114 11.374 18.492 4.263 27.025z" fill="#3f4448"></path><path d="m92.444 392.533-29.866-29.866L362.667 62.578l29.866 29.866z" fill="#e24c4b"></path></g></svg>