<svg viewBox="0 0 512 512" xmlns="http://www.w3.org/2000/svg"><g><path d="m208.128 177.778 300.515 300.516-26.989 26.989-300.516-300.516" fill="#9d6b6b"></path><path d="m205.229 203.764 288.972 288.972-12.547 12.547-288.972-288.972" fill="#8b5e5e"></path><path d="m218.017 165.481-22.26-22.26-.006.001-29.734-67.264L3.357 0l75.959 162.66 67.265 29.735.001-.001-.001.003 22.26 22.26c7.038 7.038 18.448 7.038 25.486 0l23.69-23.69c7.038-7.038 7.038-18.448 0-25.486z" fill="#ffc250"></path><path d="m3.357 0 75.959 162.66 67.265 29.735.002-.002-.002.004 22.26 22.26c7.038 7.038 18.448 7.038 25.486 0l11.912-11.912z" fill="#e7a52e"></path><path d="M505.845 83.578 196.553 392.87l-74.069-74.069L431.776 9.509l66.909 7.169z" fill="#ede6e3"></path><path d="M498.685 16.678 167.408 347.954l-37.038-37.038L431.776 9.509z" fill="#d8cec9"></path><path d="m129.96 337.157 48.22 48.219-86.37 86.37-48.219-48.22z" fill="#365e7d"></path><path d="m129.959 337.159 17.534 17.534-86.37 86.37-17.534-17.535z" fill="#2b4d66"></path><circle cx="37.461" cy="477.899" fill="#e04b66" r="34.101"></circle><path d="M25.312 509.768a33.84 33.84 0 0 1-11.973-7.754c-13.316-13.316-13.307-34.913.008-48.229 13.316-13.316 34.905-13.316 48.22 0a33.85 33.85 0 0 1 7.754 11.973c-12.162-4.631-26.45-2.043-36.248 7.754s-12.384 24.086-7.761 36.256z" fill="#de1d49"></path><path d="m102.188 461.398-48.226-48.226c-8.777-8.777-23.008-8.777-31.785 0-8.777 8.777-8.777 23.008 0 31.785l48.226 48.226c8.777 8.777 23.008 8.777 31.785 0 8.777-8.777 8.777-23.008 0-31.785z" fill="#ffc250"></path><path d="M39.991 453.465a22.403 22.403 0 0 0 6.584 15.895l-24.399-24.399a22.403 22.403 0 0 1-6.584-15.895 22.405 22.405 0 0 1 6.584-15.895c8.775-8.775 23.006-8.784 31.79 0l24.399 24.399c-8.776-8.776-23.014-8.775-31.79 0a22.405 22.405 0 0 0-6.584 15.895z" fill="#e7a52e"></path><path d="M228.241 392.764 122.596 287.119c-8.777-8.777-23.008-8.777-31.785 0-8.777 8.777-8.777 23.008 0 31.785L196.455 424.55c8.777 8.777 23.008 8.777 31.785 0 8.778-8.778 8.778-23.009.001-31.786z" fill="#ffc250"></path><path d="M117.631 336.402c0 5.751 2.2 11.511 6.584 15.895L90.81 318.893c-4.384-4.384-6.575-10.135-6.575-15.887a22.397 22.397 0 0 1 6.575-15.886c8.784-8.784 23.006-8.784 31.782-.008l33.405 33.405c-8.776-8.776-23.006-8.784-31.79 0a22.39 22.39 0 0 0-6.576 15.885z" fill="#e7a52e"></path></g></svg>