<svg viewBox="0 0 64 64" xmlns="http://www.w3.org/2000/svg"><g><path d="M3 21h58v25H3z" fill="#889aa5"></path><path d="M6 21h55v25H6z" fill="#748691"></path><path d="M1 17h62v4H1z" fill="#f07098"></path><path d="M4 19h59v2H4z" fill="#e04b7b"></path><path d="M53 25h4v4h-4zM49 25h4v4h-4zM11 29H7v-4h4zM15 29h-4v-4h4z" fill="#efffff"></path><path d="M45 33V5H19v28H3v13h58V33z" fill="#b27b5c"></path><path d="M45 33V5H22v28H6v13h55V33z" fill="#98694b"></path><circle cx="32" cy="16" fill="#efffff" r="6"></circle><path d="M28 27h4v4h-4zM32 27h4v4h-4zM36 27h4v4h-4zM24 27h4v4h-4z" fill="#efffff"></path><path d="M48 25v4a1 1 0 0 0 1 1h8a1 1 0 0 0 1-1v-4a1 1 0 0 0-1-1h-8a1 1 0 0 0-1 1zm4 3h-2v-2h2zm4 0h-2v-2h2zM6 25v4a1 1 0 0 0 1 1h8a1 1 0 0 0 1-1v-4a1 1 0 0 0-1-1H7a1 1 0 0 0-1 1zm4 3H8v-2h2zm4-2v2h-2v-2zM23 27v4a1 1 0 0 0 1 1h16a1 1 0 0 0 1-1v-4a1 1 0 0 0-1-1H24a1 1 0 0 0-1 1zm4 3h-2v-2h2zm4 0h-2v-2h2zm4 0h-2v-2h2zm4-2v2h-2v-2zM34 15h-1v-1a1 1 0 0 0-2 0v2a1 1 0 0 0 1 1h2a1 1 0 0 0 0-2z" fill="#60727d"></path><path d="M17 1h30v4H17z" fill="#f07098"></path><path d="M20 3h27v2H20z" fill="#e04b7b"></path><path d="M26 36h12v10H26z" fill="#efffff"></path><path d="M26 36v10h3v-7h9v-3z" fill="#d9faff"></path><path d="M46 39h8v7h-8z" fill="#efffff"></path><path d="M46 39v7h3v-4h5v-3z" fill="#d9faff"></path><path d="M18 46h-8v-7h8z" fill="#efffff"></path><path d="M10 39v7h3v-4h5v-3z" fill="#d9faff"></path><path d="M38 35H26a1 1 0 0 0-1 1v12a1 1 0 0 0 1 1h12a1 1 0 0 0 1-1V36a1 1 0 0 0-1-1zm-1 12H27V37h10zM54 38h-8a1 1 0 0 0-1 1v9a1 1 0 0 0 1 1h8a1 1 0 0 0 1-1v-9a1 1 0 0 0-1-1zm-1 9h-6v-7h6zM18 38h-8a1 1 0 0 0-1 1v9a1 1 0 0 0 1 1h8a1 1 0 0 0 1-1v-9a1 1 0 0 0-1-1zm-1 9h-6v-7h6z" fill="#748691"></path><path d="M1 46h62v4H1z" fill="#60727d"></path><path d="M4 48h59v2H4z" fill="#4b5f69"></path><path d="M32 9a7 7 0 1 0 7 7 7.008 7.008 0 0 0-7-7zm0 12a5 5 0 1 1 5-5 5.006 5.006 0 0 1-5 5z" fill="#e04b7b"></path><g fill="#98694b"><path d="M61 53a1 1 0 0 0-1 1v9a1 1 0 0 0 2 0v-9a1 1 0 0 0-1-1zM55.2 53a1 1 0 0 0-1 1v9a1 1 0 0 0 2 0v-9a1 1 0 0 0-1-1zM49.4 53a1 1 0 0 0-1 1v9a1 1 0 0 0 2 0v-9a1 1 0 0 0-1-1zM43.6 53a1 1 0 0 0-1 1v9a1 1 0 0 0 2 0v-9a1 1 0 0 0-1-1zM37.8 53a1 1 0 0 0-1 1v9a1 1 0 0 0 2 0v-9a1 1 0 0 0-1-1zM32 53a1 1 0 0 0-1 1v9a1 1 0 0 0 2 0v-9a1 1 0 0 0-1-1zM26.2 53a1 1 0 0 0-1 1v9a1 1 0 0 0 2 0v-9a1 1 0 0 0-1-1zM20.4 53a1 1 0 0 0-1 1v9a1 1 0 0 0 2 0v-9a1 1 0 0 0-1-1zM14.6 53a1 1 0 0 0-1 1v9a1 1 0 0 0 2 0v-9a1 1 0 0 0-1-1zM8.8 53a1 1 0 0 0-1 1v9a1 1 0 1 0 2 0v-9a1 1 0 0 0-1-1zM3 53a1 1 0 0 0-1 1v9a1 1 0 0 0 2 0v-9a1 1 0 0 0-1-1z" fill="#98694b"></path></g><path d="M1 56.5h62a1 1 0 0 0 0-2H1a1 1 0 0 0 0 2zM63 60.5H1a1 1 0 0 0 0 2h62a1 1 0 0 0 0-2z" fill="#4b5f69"></path></g></svg>