<svg viewBox="0 0 512 512" xmlns="http://www.w3.org/2000/svg"><g><path d="M286.738 479.474v12.793c0 10.898 8.835 19.733 19.733 19.733s19.733-8.835 19.733-19.733v-12.793zM306.471 265.982c-6.704 0-14.322-.497-20.763-1.444v78.058c-.036 1.625 1.248 3.147 3.076 3.147h37.42v-81.205a135.715 135.715 0 0 1-19.733 1.444z" fill="#bc7c63"></path><path d="M307.837 492.267v-12.793h-21.098v12.793c0 10.898 8.835 19.733 19.733 19.733 3.884 0 7.496-1.138 10.549-3.076-5.514-3.5-9.184-9.643-9.184-16.657zM306.471 265.982c-6.704 0-14.322-.497-20.763-1.444v78.057c-.036 1.626 1.247 3.147 3.076 3.147h19.052v-79.786c-.455.005-.907.026-1.365.026z" fill="#ab6b51"></path><path d="M358.991 342.652h-69.177c-1.829 0-3.112-1.522-3.076-3.147v-56.144c0-6.776-5.477-12.296-12.254-12.319h-.065a17.525 17.525 0 0 0-15.886 10.113c-6.513 13.947-4.54 29.318-24.97 49.65-10.077 10.029-23.81 15.519-38.027 15.519h-18.581v120.687h11.786a60.975 60.975 0 0 1 28.857 7.261 60.967 60.967 0 0 0 28.857 7.261h88.819c9.588 0 17.36-7.772 17.36-17.36s-7.772-17.36-17.36-17.36h7.905c9.588 0 17.36-7.772 17.36-17.36s-7.772-17.36-17.36-17.36h7.905c9.588 0 17.36-7.772 17.36-17.36s-7.772-17.36-17.36-17.36h7.905c9.588 0 17.36-7.772 17.36-17.36.002-9.589-7.77-17.361-17.358-17.361z" fill="#fed2a4"></path><path d="M206.833 361.539c0-8.046 3.951-15.165 10.014-19.537a54.65 54.65 0 0 1-21.31 4.322h-18.581v120.687h11.786c6.157 0 12.254.943 18.091 2.758z" fill="#ffbd86"></path><circle cx="306.471" cy="134.536" fill="#43cb8e" r="134.536"></circle><path d="M201.124 134.536c0-69.37 52.505-126.47 119.942-133.746-4.795-.517-9.663-.79-14.595-.79-74.302 0-134.536 60.234-134.536 134.536s60.234 134.536 134.536 134.536c4.932 0 9.8-.273 14.594-.79-67.436-7.276-119.941-64.376-119.941-133.746z" fill="#00ba66"></path><circle cx="306.471" cy="134.536" fill="#00ba66" r="107.879"></circle><path d="M227.781 134.536c0-54.63 40.608-99.768 93.285-106.893a108.77 108.77 0 0 0-14.594-.986c-59.58 0-107.879 48.299-107.879 107.879s48.299 107.879 107.879 107.879c4.95 0 9.821-.341 14.594-.986-52.677-7.125-93.285-52.264-93.285-106.893z" fill="#00a855"></path><g fill="#ffbd86"><path d="M335.276 446.813h7.91-47.626a7.726 7.726 0 1 0 0 15.452h56.966c-.951-8.688-8.308-15.452-17.25-15.452zM351.089 412.093H295.56a7.726 7.726 0 1 0 0 15.452h64.871c-.951-8.689-8.308-15.452-17.25-15.452h7.905zM295.56 392.825h72.777c-.95-8.689-8.308-15.453-17.25-15.453H295.56a7.726 7.726 0 0 0-7.726 7.726 7.726 7.726 0 0 0 7.726 7.727zM358.991 342.652h-66.866c-2.541 1.565-4.292 4.696-4.292 7.727a7.726 7.726 0 0 0 7.726 7.726h80.682c-.95-8.69-8.307-15.453-17.25-15.453z" fill="#ffbd86"></path></g><path d="M173.162 333.304h-31.927v143.222h31.927a6.886 6.886 0 0 0 6.886-6.886V340.19a6.887 6.887 0 0 0-6.886-6.886z" fill="#dfebfa"></path><path d="M141.235 333.304h22.64v143.222h-22.64z" fill="#b1dbfc"></path><path d="M134.482 320.128H80.836c-5.436 0-9.843 4.407-9.843 9.843v149.888c0 5.436 4.407 9.843 9.843 9.843h53.646c5.436 0 9.843-4.407 9.843-9.843V329.971c.001-5.436-4.407-9.843-9.843-9.843z" fill="#60b8fe"></path><path d="M107.659 479.859V329.971c0-5.436 4.407-9.843 9.844-9.843H80.836c-5.436 0-9.843 4.407-9.843 9.843v149.888c0 5.436 4.407 9.843 9.843 9.843h36.667c-5.437.001-9.844-4.406-9.844-9.843z" fill="#23a8fe"></path><path d="M367.153 98.617c-6.207-6.821-16.776-7.008-23.222-.561l-46.821 46.821a3.227 3.227 0 0 1-4.565 0l-20.92-20.92c-6.446-6.447-17.015-6.26-23.221.561-5.813 6.389-5.251 16.338.857 22.446l34.224 34.224c6.264 6.265 16.423 6.265 22.686 0l60.125-60.125c6.108-6.108 6.67-16.057.857-22.446z" fill="#dfebfa"></path><path d="m298.968 171.745-34.224-34.224c-4.882-4.882-6.209-12.215-3.581-18.226-4.632-.253-9.352 1.479-12.759 5.223-5.813 6.389-5.251 16.338.857 22.447l34.224 34.224c6.264 6.265 16.423 6.265 22.686 0l4.775-4.775c-4.315.17-8.685-1.375-11.978-4.669z" fill="#b1dbfc"></path></g></svg>