<svg viewBox="0 0 512 512" xmlns="http://www.w3.org/2000/svg"><g><path d="M316.641 7.874c-19.65-5.12-39.35-7.666-58.75-7.862l-48.209 8.931-67.796 42.925-74.778 112.11.132 109.221 78.298 156.518 54.529 21.88-2.747 14.926 1.913 12.212a19.094 19.094 0 0 1 12.283-1.765c123.209 23.316 245.129-52.569 277.217-175.721C522.225 172.714 445.176 41.366 316.641 7.874z" fill="#ff636e"></path><path d="M201.353 477.804c5.418-5.366 10.671-11.407 15.463-18.244 3.309-4.721 1.611-11.28-3.518-13.914-87.043-44.709-141.53-140.304-128.824-243.46C96.706 102.877 167.316 25.406 257.892.013 151.044-1.068 53.363 69.425 23.967 177.335c-27.318 100.281 12.947 202.683 92.707 259.372 4.699 3.34 5.442 10.074 1.493 14.274-20.485 21.781-45.342 32.971-62.054 38.447-4.843 1.587-4.631 8.498.3 9.782l35.406 9.225c38.024 9.908 76.586-1.439 103.113-26.656a18.647 18.647 0 0 1 6.421-3.975z" fill="#ff4654"></path><path d="M164.276 367.109c-10.387 0-18.737-8.483-18.737-18.737 0-11.055 9.642-19.789 20.578-18.641 9.034.797 16.896 8.636 16.896 18.641-.001 10.276-8.346 18.737-18.737 18.737zM347.723 367.109c-10.387 0-18.737-8.483-18.737-18.737 0-11.055 9.642-19.789 20.578-18.641 9.034.797 16.896 8.636 16.896 18.641-.001 10.276-8.346 18.737-18.737 18.737zM239.134 184.894c-1.983-31.943-24.003-58.478-53.63-67.202h-13.939l-26.027 17.965-14.151 22.664 4.004 7.367a38.367 38.367 0 0 1 3.191-3.4c7.624-7.165 17.612-10.744 28.125-10.1 18.492 1.148 33.877 16.533 35.025 35.026.991 15.964-8.21 30.847-22.895 37.037-20.227 8.524-33.297 28.613-33.297 51.179v5.059c0 10.348 8.389 18.737 18.737 18.737s18.737-8.388 18.737-18.737v-5.059c0-7.341 4.17-14.031 10.376-16.647 29.338-12.363 47.721-42.058 45.744-73.889z" fill="#dbedff"></path><path d="M155.475 134.982c8.707-8.183 18.947-14.022 30.029-17.29a74.66 74.66 0 0 0-16.476-2.904c-20.95-1.301-40.871 5.872-56.11 20.195-15.027 14.123-23.645 34.047-23.645 54.662 0 10.348 8.389 18.737 18.737 18.737s18.737-8.389 18.737-18.737c0-9.263 3.297-17.933 9.343-24.777 3.957-11.272 10.553-21.585 19.385-29.886z" fill="#b5dcff"></path><path d="M422.58 184.894c-1.983-31.943-24.003-58.478-53.63-67.202h-13.939l-26.027 17.965-14.151 22.664 4.004 7.367a38.367 38.367 0 0 1 3.191-3.4c7.624-7.165 17.612-10.744 28.125-10.1 18.492 1.148 33.877 16.533 35.025 35.026.991 15.964-8.21 30.847-22.895 37.037-20.227 8.524-33.297 28.613-33.297 51.179v5.059c0 10.348 8.389 18.737 18.737 18.737s18.737-8.388 18.737-18.737v-5.059c0-7.341 4.17-14.031 10.376-16.647 29.338-12.363 47.721-42.058 45.744-73.889z" fill="#dbedff"></path><path d="M338.922 134.982c8.707-8.183 18.947-14.022 30.029-17.29a74.66 74.66 0 0 0-16.476-2.904c-20.95-1.301-40.871 5.872-56.11 20.195-15.027 14.123-23.645 34.047-23.645 54.662 0 10.348 8.389 18.737 18.737 18.737s18.737-8.389 18.737-18.737c0-9.263 3.297-17.933 9.343-24.777 3.956-11.272 10.552-21.585 19.385-29.886z" fill="#b5dcff"></path></g></svg>