<svg viewBox="0 0 512.011 512.011" xmlns="http://www.w3.org/2000/svg"><g><path d="M226.005 0h-120c-57.9 0-106 48.1-106 106s48.1 105 106 105h120c6.899 0 13.801-.901 21.301-2.401l28.2 27.9c4.199 4.501 10.8 5.7 16.199 3.3 5.7-2.399 9.3-7.798 9.3-13.799v-47.1c19.2-19.801 30-45.901 30-72.9 0-57.9-47.1-106-105-106z" fill="#ffde46"></path><path d="M331.005 106c0 26.999-10.8 53.099-30 72.9V226c0 6-3.6 11.4-9.3 13.799-5.4 2.401-12.001 1.201-16.199-3.3l-28.2-27.9c-7.5 1.5-14.401 2.401-21.301 2.401h-60V0h60c57.9 0 105 48.1 105 106z" fill="#fabe2c"></path><circle cx="106.005" cy="106" fill="#47568c" r="15"></circle><circle cx="166.005" cy="106" fill="#47568c" r="15"></circle><circle cx="226.005" cy="106" fill="#29376d" r="15"></circle><path d="M406.005 271h-120c-57.9 0-105 47.1-105 105 0 26.999 10.8 54.099 30 73.9V497c0 6 3.6 11.4 9.3 13.799 5.4 2.401 12.001 1.201 16.199-3.3l28.2-27.9c7.5 1.5 14.401 2.401 21.301 2.401h120c57.9 0 106-48.1 106-106s-48.1-105-106-105z" fill="#ff7b4a"></path><path d="M512.005 376c0 57.9-48.1 106-106 106h-60V271h60c57.9 0 106 47.1 106 105z" fill="#ff435b"></path><circle cx="286.005" cy="376" fill="#47568c" r="15"></circle><circle cx="346.005" cy="376" fill="#47568c" r="15"></circle><g fill="#29376d"><circle cx="406.005" cy="376" fill="#29376d" r="15"></circle><path d="M361.005 376c0 8.399-6.599 15-15 15v-30c8.401 0 15 6.599 15 15zM181.005 106c0 8.399-6.599 15-15 15V91c8.401 0 15 6.599 15 15z" fill="#29376d"></path></g></g></svg>