<svg viewBox="0 0 512 512" xmlns="http://www.w3.org/2000/svg"><g id="Layer_2" data-name="Layer 2"><g id="calendar"><g id="_27" data-name="27"><rect fill="#e6e6e6" height="512" rx="80.82" width="512"/><path d="m512 80.83v101h-512v-101a80.82 80.82 0 0 1 80.82-80.83h350.36a80.82 80.82 0 0 1 80.82 80.83z" fill="#f00"/><path d="m183.28 245.46q16.08 0 28.25 4.34a56.17 56.17 0 0 1 20.28 12.09 50.41 50.41 0 0 1 12.24 18.5 65.67 65.67 0 0 1 4.12 23.7 50.85 50.85 0 0 1 -2.35 15.79 58.36 58.36 0 0 1 -6.11 13.24 62.54 62.54 0 0 1 -8.61 10.81 88.26 88.26 0 0 1 -9.82 8.54 105 105 0 0 1 -26.9 14.23 82.08 82.08 0 0 0 -9.89 4.77 45.12 45.12 0 0 0 -8.75 6.4 30.32 30.32 0 0 0 -6.26 8.4 23.65 23.65 0 0 0 -2.42 10.89v8.84h49.52q6 0 11.95.57a37.64 37.64 0 0 1 10.82 2.56 18.59 18.59 0 0 1 7.83 5.91q3 3.92 3 10.6t-3 10.81a19.37 19.37 0 0 1 -7.83 6.12 34.66 34.66 0 0 1 -10.82 2.71q-6 .57-11.95.57h-70.87a25.93 25.93 0 0 1 -11.71-2.37 20.57 20.57 0 0 1 -7.33-6 21.93 21.93 0 0 1 -3.77-8.11 38.36 38.36 0 0 1 -1.07-8.89v-22.75a57.73 57.73 0 0 1 3.63-20.57 60.21 60.21 0 0 1 10.25-17.5 77.37 77.37 0 0 1 15.79-14.16 102.69 102.69 0 0 1 20.43-10.67 120.48 120.48 0 0 0 17.93-8.47 48.15 48.15 0 0 0 10.31-8 19.81 19.81 0 0 0 4.77-7.9 29.31 29.31 0 0 0 1.14-8.11q0-7.39-2.49-11.67a16.74 16.74 0 0 0 -6.12-6.33 20.22 20.22 0 0 0 -7.54-2.56 54.37 54.37 0 0 0 -6.62-.5q-7.11 0-11.38 2.06a16.45 16.45 0 0 0 -6.48 5.2 16.72 16.72 0 0 0 -2.85 6.9 43.69 43.69 0 0 0 -.64 7.19 19.56 19.56 0 0 1 -2.13 9.46 19.34 19.34 0 0 1 -5.34 6.33 21.93 21.93 0 0 1 -7 3.56 24 24 0 0 1 -6.9 1.14q-9.68 0-15.66-5.34a17.57 17.57 0 0 1 -6-13.73 68.4 68.4 0 0 1 .85-9.54 61.88 61.88 0 0 1 10.11-25.47 48.34 48.34 0 0 1 11.52-11.81 59.22 59.22 0 0 1 17.36-8.54q10.23-3.24 24.51-3.24z" fill="#3d3d3d"/><path d="m337.54 287.86v-1.7h-44.68a97.28 97.28 0 0 1 -10.32-.57 32.47 32.47 0 0 1 -9.82-2.56 18.13 18.13 0 0 1 -7.4-6q-2.91-4-2.92-10.82 0-6.68 2.92-10.6a18.35 18.35 0 0 1 7.4-5.9 32.78 32.78 0 0 1 9.82-2.57 99.92 99.92 0 0 1 10.32-.56h76.27a26.36 26.36 0 0 1 10.18 1.85 22.75 22.75 0 0 1 7.54 4.91 20.48 20.48 0 0 1 4.63 7 22.09 22.09 0 0 1 1.56 8.11 25 25 0 0 1 -.43 4.7 15.1 15.1 0 0 1 -1.56 4.41l-41 74.85q-3.56 6.4-5.62 11a56.77 56.77 0 0 0 -3.13 8.75 50.75 50.75 0 0 0 -1.42 8.54c-.24 2.94-.36 6.41-.36 10.39v21.35q0 6.25-.35 12.23a30 30 0 0 1 -2.49 10.68 17 17 0 0 1 -6.76 7.54q-4.64 2.85-13.16 2.85t-12.87-2.74a16.76 16.76 0 0 1 -6.55-7.54 30.9 30.9 0 0 1 -2.42-10.68q-.36-6-.36-12.23v-21.37q0-10.1.5-16.51a56.3 56.3 0 0 1 1.94-11.31 53.13 53.13 0 0 1 3.85-9.61q2.42-4.69 6.26-11.52z" fill="#3d3d3d"/><g fill="#fff"><path d="m198.33 106.76c.11 3.7.24 7.48.41 11.34s.24 7.58.24 11.17v2.45q0 3.1-.2 6a15.05 15.05 0 0 1 -1.27 5.22 8.3 8.3 0 0 1 -3.34 3.71 12.49 12.49 0 0 1 -6.44 1.39 12.71 12.71 0 0 1 -6.53-1.39 8.73 8.73 0 0 1 -3.39-3.67 14.12 14.12 0 0 1 -1.3-5.22c-.14-2-.2-4-.2-6v-11.46h-32.63v11.42q0 3.1-.21 6a14.12 14.12 0 0 1 -1.3 5.22 8.73 8.73 0 0 1 -3.39 3.67 12.69 12.69 0 0 1 -6.52 1.39 12.71 12.71 0 0 1 -6.53-1.39 8.3 8.3 0 0 1 -3.34-3.71 14.4 14.4 0 0 1 -1.23-5.22q-.16-2.9-.16-6v-2.45c0-1.68 0-3.48 0-5.38s.07-3.83.12-5.79.11-3.9.17-5.83.1-3.77.16-5.51q4.08-14.19 8.56-28.75t8.57-28.84a50.49 50.49 0 0 1 2-5.83 16.3 16.3 0 0 1 3-4.9 13.61 13.61 0 0 1 4.81-3.34 19.17 19.17 0 0 1 7.5-1.26h8.16a19.2 19.2 0 0 1 7.46 1.26 13.56 13.56 0 0 1 4.86 3.34 15.79 15.79 0 0 1 3 4.9c.74 1.88 1.4 3.82 2 5.83zm-51.23-8h25.9l-12-43.76h-1.79z"/><path d="m216.6 52.43a61.55 61.55 0 0 1 .37-6.85 16.72 16.72 0 0 1 1.71-5.95 10.31 10.31 0 0 1 4-4.2 14.61 14.61 0 0 1 7.42-1.59 14.89 14.89 0 0 1 7.47 1.59 10.2 10.2 0 0 1 4.07 4.2 16.31 16.31 0 0 1 1.68 5.95c.21 2.23.32 4.52.32 6.85v64.28a19 19 0 0 0 1.47 6.36 11.07 11.07 0 0 0 1.31 2.37 10.54 10.54 0 0 0 1.91 2 8.86 8.86 0 0 0 2.61 1.43 10.58 10.58 0 0 0 3.47.53 10.92 10.92 0 0 0 3.51-.53 8.72 8.72 0 0 0 2.65-1.43 10.91 10.91 0 0 0 1.92-2 11.47 11.47 0 0 0 1.3-2.37 17.49 17.49 0 0 0 1.39-6.36v-64.28c0-2.33.11-4.62.32-6.85a16.31 16.31 0 0 1 1.68-5.95 10.29 10.29 0 0 1 4-4.2 14.85 14.85 0 0 1 7.51-1.59 14.61 14.61 0 0 1 7.42 1.59 10.31 10.31 0 0 1 4 4.2 16.72 16.72 0 0 1 1.71 5.95 61.55 61.55 0 0 1 .37 6.85v62.16a37.41 37.41 0 0 1 -2.73 14.85 28.7 28.7 0 0 1 -7.75 10.64 33.43 33.43 0 0 1 -12 6.45 51.83 51.83 0 0 1 -15.38 2.16 49.76 49.76 0 0 1 -15.33-2.25 34.18 34.18 0 0 1 -11.95-6.56 29.13 29.13 0 0 1 -7.75-10.69 36.73 36.73 0 0 1 -2.73-14.6z"/><path d="m391 140.53a18 18 0 0 1 -.2 2.45 6.41 6.41 0 0 1 -1.06 2.65 7.19 7.19 0 0 1 -2.49 2.16 9.17 9.17 0 0 1 -4.41.9 11.53 11.53 0 0 1 -4.89-.86 7.08 7.08 0 0 1 -2.73-2.12 6.65 6.65 0 0 1 -1.23-2.65 12.61 12.61 0 0 1 -.28-2.53v-4.89a31.19 31.19 0 0 1 -10 9.42q-6.07 3.63-15 3.63c-1 0-2.64-.08-4.82-.25a41.47 41.47 0 0 1 -7.34-1.3 45 45 0 0 1 -8.4-3.18 27.16 27.16 0 0 1 -7.87-5.92 30 30 0 0 1 -5.83-9.46 36.92 36.92 0 0 1 -2.29-13.83v-45.68a39.31 39.31 0 0 1 1.63-11.82 32.83 32.83 0 0 1 4.29-8.94 27.91 27.91 0 0 1 6.11-6.31 41.91 41.91 0 0 1 7-4.28 50.59 50.59 0 0 1 19-4.49 51.68 51.68 0 0 1 15.5 2 38 38 0 0 1 10.93 5.3 28.34 28.34 0 0 1 7.18 7.39 37.67 37.67 0 0 1 4.2 8.35 38.24 38.24 0 0 1 1.92 8.16 60.34 60.34 0 0 1 .45 6.77 25.66 25.66 0 0 1 -.21 3 6.71 6.71 0 0 1 -1.42 3.35 9.31 9.31 0 0 1 -3.88 2.69 20.45 20.45 0 0 1 -7.54 1.1c-1.15 0-2.55-.07-4.2-.2a19.11 19.11 0 0 1 -4.78-1 10.7 10.7 0 0 1 -3.91-2.41 5.79 5.79 0 0 1 -1.63-4.36 53.1 53.1 0 0 0 -.53-7.88 17.41 17.41 0 0 0 -1.92-5.91 9.19 9.19 0 0 0 -3.83-3.71 13.74 13.74 0 0 0 -6.29-1.27 10 10 0 0 0 -6.15 1.64 10.17 10.17 0 0 0 -3.14 3.59 13 13 0 0 0 -1.33 5.17v52.2a12.73 12.73 0 0 0 .94 4.9 12 12 0 0 0 2.65 4 12.48 12.48 0 0 0 4 2.69 12.88 12.88 0 0 0 5.1 1 12.29 12.29 0 0 0 5.91-1.42 17.21 17.21 0 0 0 4.79-3.87 29.69 29.69 0 0 0 3.79-5.46 54.35 54.35 0 0 0 3-6.41h-7.79a11 11 0 0 1 -4.16-1.22 8.45 8.45 0 0 1 -2.9-2.45 7.14 7.14 0 0 1 -1.26-4.48 7.84 7.84 0 0 1 1.26-4.78 8.34 8.34 0 0 1 2.9-2.48 10.89 10.89 0 0 1 4.16-1.06h21.21a12.21 12.21 0 0 1 1.83.2 6.16 6.16 0 0 1 2.61 1.18 8.38 8.38 0 0 1 2.37 2.9 11.52 11.52 0 0 1 1 5.34z"/></g></g></g></g></svg>