<svg viewBox="0 0 512 512" xmlns="http://www.w3.org/2000/svg"><g><path d="M85.574 487.999V303.04c0-29.904 24.242-54.146 54.146-54.146h62.195c29.904 0 54.146 24.242 54.146 54.146l20 109.112-20 75.847z" fill="#e06a50"></path><path d="M220.858 201.639c0 27.636-22.404 50.04-50.04 50.04s-50.04-22.404-50.04-50.04v-28.355c0-27.636 22.404-50.04 50.04-50.04s50.04 22.404 50.04 50.04z" fill="#e3a76f"></path><path d="M256 474V303.04c0-29.904 24.242-54.146 54.146-54.146h62.195c29.904 0 54.146 24.242 54.146 54.146V474z" fill="#9cd2fc"></path><path d="M391.284 201.639c0 27.636-22.404 50.04-50.04 50.04s-50.04-22.404-50.04-50.04v-28.355c0-27.636 22.404-50.04 50.04-50.04s50.04 22.404 50.04 50.04z" fill="#864927"></path><path d="M170.756 512H.268v-59.848c0-27.614 22.386-50 50-50h70.488c27.614 0 50 22.386 50 50l10 28.598z" fill="#a0be28"></path><path d="M511.732 512H341.244l-10-37.75 10-22.098c0-27.614 22.386-50 50-50h70.488c27.614 0 50 22.386 50 50z" fill="#738c28"></path><path d="m123.249 37.564 20.61-21.81L199.5 68.335l-20.61 21.81z" fill="#ffe477"></path><path d="m312.654 68.474 55.642-52.58 20.61 21.81-55.642 52.58z" fill="#ffb655"></path><path d="M241 0h15v66.278h-15z" fill="#ffe477"></path><g fill="#ffb655"><path d="M271 0h-15l10 33.139-10 33.139h15z" fill="#ffb655"></path><path d="M256 0v66.278l10-33.139zM220.756 402.152c-27.614 0-50 22.386-50 50V512H256l10-60.716-10-49.132z" fill="#ffb655"></path></g><path d="M341.244 452.152c0-27.614-22.386-50-50-50H256V512h85.244z" fill="#e06a50"></path><path d="M241 0h15v66.278h-15z" fill="#ffe477"></path><path d="M271 0h-15l10 33.139-10 33.139h15z" fill="#ffb655"></path><path d="M256 0v66.278l10-33.139z" fill="#ffb655"></path><path d="M135.552 354.897c0 27.636-22.404 50.04-50.04 50.04s-50.04-22.404-50.04-50.04v-28.355c0-27.636 22.404-50.04 50.04-50.04s50.04 22.404 50.04 50.04z" fill="#b35f30"></path><path d="M476.528 354.897c0 27.636-22.404 50.04-50.04 50.04s-50.04-22.404-50.04-50.04v-28.355c0-27.636 22.404-50.04 50.04-50.04s50.04 22.404 50.04 50.04z" fill="#e3a76f"></path><path d="M205.96 326.542v28.355c0 27.636 22.404 50.04 50.04 50.04l20-64.217-20-64.217c-27.636-.001-50.04 22.403-50.04 50.039z" fill="#b35f30"></path><path d="M256 276.502v128.435c27.636 0 50.04-22.404 50.04-50.04v-28.355c0-27.636-22.404-50.04-50.04-50.04z" fill="#864927"></path></g></svg>