<svg viewBox="0 0 301.245 284.859" xmlns="http://www.w3.org/2000/svg"><g><path d="M109.821 150.446h81.546v85.575h-81.546z" fill="#966650"></path><path d="M109.821 150.446v13.799s15.975 36.47 48.199 36.47c15.466 0 26.275-6.074 33.346-12.392v-37.878h-81.545z" fill="#6b493b"></path><g fill="#966650"><path d="M209.672 110.171c.021-.628.032-1.256.032-1.884 0-39.038 11.392-83.083-57.908-83.73-.319-.006-1.548-.015-1.551-.015 0 0-1.233.009-1.552.015-69.299.647-57.908 44.692-57.908 83.73 0 .628.011 1.256.031 1.884s-.07 29.052 4.222 36.315 29.712 40.456 53.813 40.456c.022-.022 2.806-.023 2.83 0 24.1 0 49.521-33.193 53.813-40.456s4.222-36.315 4.222-36.315z" fill="#966650"></path><path d="m205.302 110.13 4.699-15.032s8.268-2.295 12.628 6.598-7.952 27.166-17.795 28.702c-2.729-6.957.468-20.268.468-20.268zM95.346 110.13l-4.699-15.032s-8.268-2.295-12.628 6.598 7.81 28.702 17.997 28.702c2.729-6.957-.67-20.268-.67-20.268z" fill="#966650"></path></g><path d="M90.629 95.068c2.364 1.063 5.636 6.523 5.447 10.911.333 1.653 3.667 2.847 4 .167 0-2.681-4.083-18.764 4.167-23.764 2.25-1.25 2.37-24.716.62-31.966-1.75-1.25-8.598-2.034-14.234 4.466-3.886 4-6.477 18.623-3.432 40.187l3.432-.001zM210.604 95.068c-2.364 1.063-5.636 6.523-5.447 10.911-.333 1.653-3.667 2.847-4 .167 0-2.681 4.083-18.764-4.167-23.764-2.25-1.25-2.37-24.716-.62-31.966 1.75-1.25 8.598-2.034 14.234 4.466 3.886 4 6.477 18.623 3.432 40.187l-3.432-.001z" fill="#3a2a1f"></path><path d="M301.245 253.526c0-29.333-27.333-40-40.333-42.667s-51-12.667-69.5-16.333c-10.767 17.591-31.303 22.094-40.789 22.094-8.18 0-30.022-4.503-40.789-22.094-18.5 3.667-56.5 13.667-69.5 16.333C27.333 213.526 0 224.193 0 253.526c20.667 9.333 70.212 31.333 150.606 31.333l.016-.017.016.017c80.394 0 129.94-22 150.607-31.333z" fill="#4b5b3f"></path><path d="M191.434 194.415c-10.78 17.613-36.321 16.05-40.839 17.189-4.518-1.139-30.059.424-40.839-17.189-5.094 1.01-8.404 2.5-15.524 4.184 6.912 17.684 48.32 86.261 56.347 86.261l.016-.016.016.016c7.122 0 50.617-69.505 57.367-86.788-6.251-1.466-11.989-2.754-16.544-3.657z" fill="#dedede"></path><path d="m161.794 284.595 2.756-9.527-8.764-44.683-5.583-2.714-5.417 2.714-8.369 44.583 2.996 9.764c4.815.077 15.417.094 22.381-.137z" fill="#150c05"></path><path d="M150.48 212.134h-.534c-3.563 0-13.541 2.263-12.828 12.36.713 2.089 5.879 9.052 12.828 11.141h.534c6.948-2.089 12.115-9.052 12.828-11.141.713-10.096-9.264-12.36-12.828-12.36z" fill="#150c05"></path><path d="M109.934 188.942s15.761 14.405 40.644 22.573c-3.045 6.12-7.117 14.83-8.579 16.828s-4.001 6.025-8.234 3.345-25.314-18.99-31.07-30.355c2.37-3.197 3.761-6.099 7.239-12.391z" fill="#fefefe"></path><path d="M198.46 201.334c-5.755 11.365-26.837 27.675-31.07 30.355s-6.772-1.347-8.234-3.345-5.533-10.708-8.579-16.828c24.883-8.168 40.789-22.573 40.789-22.573 3.479 6.291 4.724 9.193 7.094 12.391z" fill="#fefefe"></path><g fill="#3f4c34"><path d="m92.782 198.19-5.689 27.254 16.741 3-8.75 16.25 42.348 39.844c4.043.124 8.164.196 12.377.203l-43.08-90.053c-4.728 1.106-7.497 1.987-13.947 3.502zM197.414 228.444l16.741-3-5.689-27.253c-6.45-1.516-9.605-3.101-14.282-4.028l-42.744 90.579a433.67 433.67 0 0 0 12.377-.203l42.348-39.844z" fill="#3f4c34"></path></g><path d="M208.685 59.003H91.713l-3.702 8.417c3.539 4.356 22.279 16.887 59.728 16.887 2.093.032 2.898 0 4.918 0 37.45 0 55.732-12.552 59.271-16.908z" fill="#150c05"></path><path d="M221.272 23.205C199.267 4.866 171.086 0 150.914 0h-1.43c-20.172 0-48.109 4.866-70.115 23.205-14.671 11.614-8.739 26.285 4.098 37.899h133.464c12.837-11.615 19.012-26.285 4.341-37.899z" fill="#3f4c34"></path><path d="M216.931 61.176c-21.089-5.543-48.902-4.958-65.101-4.958h-3.263c-16.199 0-44.012-.585-65.101 4.958-1.25.725 1.222 6.374 2.751 6.374 1.528 0 39.122-3.751 62.35-3.474 1.287.017 2.115-.077 3.263 0 23.228-.277 60.822 3.474 62.35 3.474 1.529 0 4.001-5.649 2.751-6.374z" fill="#dbcf87"></path><circle cx="150.199" cy="30.552" fill="#dbcf87" r="8.584"></circle><path d="M216.522 210.883c2.375 1.971 6.75 3.208 13.75 4.958s25.25 6 29.25 7c3.702.926 12.676 3.409 15.713-7.061-5.312-2.494-10.454-4.005-14.324-4.799-8.279-1.698-29.15-7.082-46.214-11.199-.853 2.53-1.175 8.187 1.825 11.101z" fill="#3f4c34"></path><circle cx="226.734" cy="208.275" fill="#dbcf87" r="2.375"></circle><circle cx="242.57" cy="212.043" fill="#dbcf87" r="2.375"></circle><circle cx="258.331" cy="216.173" fill="#dbcf87" r="2.375"></circle><path d="M84.677 210.883c-2.375 1.971-6.75 3.208-13.75 4.958s-25.25 6-29.25 7c-3.702.926-12.676 3.409-15.713-7.061 5.312-2.494 10.454-4.005 14.324-4.799 8.279-1.698 29.15-7.082 46.214-11.199.854 2.53 1.175 8.187-1.825 11.101z" fill="#3f4c34"></path><circle cx="74.465" cy="208.275" fill="#dbcf87" r="2.375"></circle><circle cx="58.63" cy="212.043" fill="#dbcf87" r="2.375"></circle><circle cx="42.868" cy="216.173" fill="#dbcf87" r="2.375"></circle><path d="M66.252 235.635h21.176v14.79l-10.588 7.806-10.588-7.806z" fill="#98938a"></path><circle cx="76.84" cy="264.337" fill="#dbcf87" r="8.048"></circle><path d="M209.349 254.231h34.77v8h-34.77z" fill="#3f4c34"></path></g></svg>