<svg id="Layer_1" enable-background="new 0 0 256 256" height="512" viewBox="0 0 256 256" width="512" xmlns="http://www.w3.org/2000/svg"><g><g><g><g><g><g><path d="m44.639 134.835-2.172-1.395c-.058.209-.113.417-.19.625l-.33.897c-.603 1.636-1.7 2.942-3.056 3.828l3.474 2.231z" fill="#2266d3"/><g><path d="m31.926 139.59-7.71-2.839c-3.361-1.237-5.449-4.604-5.063-8.165l.224-2.072c.279-2.576 2.596-4.436 5.171-4.151l11.263 1.246c5.039.558 8.218 5.697 6.466 10.455l-.33.897c-1.488 4.047-5.975 6.119-10.021 4.629z" fill="#377de2"/></g></g><g><path d="m213.634 141.021 3.474-2.231c-1.356-.885-2.453-2.191-3.056-3.828l-.33-.897c-.076-.208-.132-.417-.19-.625l-2.172 1.395z" fill="#2266d3"/><g><path d="m224.074 139.59 7.71-2.839c3.361-1.237 5.449-4.604 5.063-8.165l-.224-2.072c-.279-2.576-2.596-4.436-5.171-4.151l-11.263 1.246c-5.039.558-8.218 5.697-6.466 10.455l.33.897c1.488 4.047 5.975 6.119 10.021 4.629z" fill="#377de2"/></g></g></g><g fill="#414042"><path d="m46.261 227.01c-5.555 0-10.542-2.378-14.041-6.155v16.804c0 3.891 3.154 7.045 7.045 7.045h21.135c3.891 0 7.045-3.154 7.045-7.045v-10.649z"/><path d="m209.74 227.008h-21.185v10.651c0 3.891 3.154 7.045 7.045 7.045h21.135c3.891 0 7.045-3.154 7.045-7.045v-16.806c-3.499 3.776-8.486 6.155-14.04 6.155z"/></g><g><path d="m46.261 227.01 163.478-.002c10.58 0 19.157-8.577 19.157-19.158v-34.805c0-4.985-1.459-9.861-4.197-14.028l-10.104-15.376h-173.191l-10.104 15.376c-2.738 4.166-4.196 9.042-4.197 14.028v34.807c0 10.58 8.577 19.158 19.158 19.158z" fill="#377de2"/></g><g><path d="m228.897 173.045c0-4.985-1.459-9.861-4.196-14.028l-10.104-15.376h-2.19l5.908 8.99c2.738 4.166 4.197 9.042 4.197 14.028v34.805c0 10.58-8.577 19.158-19.157 19.158l-163.479.002c-3.652 0-7.053-1.04-9.958-2.814 3.365 5.51 9.416 9.2 16.344 9.2l163.479-.002c10.58 0 19.157-8.577 19.157-19.158z" fill="#2266d3"/></g><g><path d="m156.073 199.009h-56.146c-2.9 0-5.435-1.954-6.175-4.758l-3.018-11.446c-1.068-4.05 1.986-8.014 6.175-8.014h62.183c4.188 0 7.243 3.964 6.175 8.014l-3.018 11.446c-.74 2.804-3.276 4.758-6.176 4.758z" fill="#414042"/></g><g><path d="m212.422 151.144-3.48-6.2c-.452-.805-1.304-1.304-2.227-1.304h-157.43c-.924 0-1.775.499-2.227 1.304l-3.48 6.2c-1.936 3.449-.304 7.81 3.421 9.14l26.554 9.484c1.379.492 2.832.744 4.296.744h100.304c1.464 0 2.917-.252 4.296-.744l26.554-9.484c3.723-1.33 5.355-5.691 3.419-9.14z" fill="#2266d3"/></g><g><g><path d="m179.962 180.131c5.034-4.97 16.525-12.909 38.791-13.3 1.076-.019 2.054.657 2.432 1.665 1.396 3.729 3.657 12.557-5.026 14.969-8.23 2.286-25.954 1.521-34.567.973-2.174-.139-3.18-2.776-1.63-4.307z" fill="#fff"/></g><g><path d="m221.185 168.496c-.378-1.008-1.355-1.684-2.432-1.665-.739.013-1.434.055-2.149.085.679 4.085.096 9.122-6.141 10.854-6.796 1.888-20.055 1.694-29.322 1.261-.423.378-.822.748-1.178 1.1-1.55 1.53-.545 4.168 1.629 4.307 8.613.548 26.337 1.314 34.567-.973 8.683-2.412 6.422-11.24 5.026-14.969z" fill="#f1f2f2"/></g><g><path d="m76.038 180.131c-5.034-4.97-16.524-12.909-38.791-13.3-1.076-.019-2.054.657-2.432 1.665-1.396 3.729-3.657 12.557 5.026 14.969 8.23 2.286 25.954 1.521 34.567.973 2.174-.139 3.18-2.776 1.63-4.307z" fill="#fff"/></g><g><path d="m76.038 180.131c-1.242-1.226-2.881-2.634-4.974-4.063.07 1.291-.849 2.579-2.35 2.674-8.613.548-26.337 1.314-34.567-.973-.141-.039-.254-.093-.389-.136.61 2.525 2.313 4.784 6.085 5.831 8.23 2.286 25.954 1.521 34.567.973 2.172-.138 3.178-2.775 1.628-4.306z" fill="#f1f2f2"/></g></g><g><path d="m175.711 85.296h-95.422c-10.482 0-19.851 6.539-23.466 16.378l-15.419 41.967h173.192l-15.419-41.967c-3.615-9.839-12.984-16.378-23.466-16.378z" fill="#377de2"/></g><g><path d="m50.94 133.388 11.768-31.486c1.461-3.908 5.195-6.499 9.367-6.499h111.851c4.172 0 7.906 2.591 9.367 6.499l11.768 31.485c.489 1.307-.478 2.7-1.873 2.7h-150.375c-1.395.001-2.362-1.392-1.873-2.699z" fill="#f1f2f2"/></g><g><path d="m108.75 103.403h-1c-1.104 0-2-.896-2-2s.896-2 2-2h1c1.104 0 2 .896 2 2s-.896 2-2 2zm-9 0h-29c-1.104 0-2-.896-2-2s.896-2 2-2h29c1.104 0 2 .896 2 2s-.896 2-2 2z" fill="#fff"/></g><g><path d="m205.06 133.388-11.768-31.485c-1.38-3.693-4.79-6.206-8.682-6.473l10.449 27.958c.489 1.307-.478 2.7-1.873 2.7h-139.518l-2.728 7.3c-.489 1.307.478 2.7 1.873 2.7h150.374c1.395 0 2.362-1.393 1.873-2.7z" fill="#e6e7e8"/></g><g><path d="m205.06 133.388-11.768-31.485c-.953-2.549-2.876-4.532-5.254-5.607.09.199.177.4.254.607l11.768 31.485c.489 1.307-.478 2.7-1.873 2.7h-146.388l-.86 2.3c-.489 1.307.478 2.7 1.873 2.7h150.374c1.396 0 2.363-1.393 1.874-2.7z" fill="#d1d3d4"/></g></g><g><path d="m190.136 216.784h-124.272c-2.161 0-3.345-2.516-1.969-4.181l3.57-4.322c1.213-1.468 3.018-2.319 4.923-2.319h111.224c1.905 0 3.71.85 4.923 2.319l3.57 4.322c1.376 1.665.192 4.181-1.969 4.181z" fill="#414042"/></g><g><g><g><circle cx="206.426" cy="211.373" fill="#d1d3d4" r="7.404"/></g><g><circle cx="206.426" cy="211.373" fill="#fff" r="4.507"/></g></g><g><g><circle cx="49.574" cy="211.373" fill="#d1d3d4" r="7.404"/></g><g><circle cx="49.574" cy="211.373" fill="#fff" r="4.507"/></g></g></g></g><g><path d="m115 85.296h26v141.711h-26z" fill="#ffc91d"/></g><g><path d="m136 85.296v131.711c0 2.761-2.239 5-5 5h-16v5h26v-141.711z" fill="#ffa91a"/></g><g><path d="m111.609 66.706-22.883-12.044c-5.327-2.803-11.726 1.06-11.726 7.08v30.303c0 6.02 6.399 9.883 11.726 7.079l26.274-13.828-3.597-15.688c-.233-1.015-.136-2.014.206-2.902z" fill="#ffc91d"/><path d="m80.275 87.887c-1.897.35-3.275 2.005-3.275 3.934v.524c0 5.884 6.254 9.659 11.46 6.919l26.54-13.968-.837-3.651z" fill="#ef7816"/></g><g><path d="m167.274 54.662-22.883 12.043c.342.888.439 1.887.206 2.902l-3.597 15.689 26.274 13.828c5.327 2.804 11.726-1.059 11.726-7.079v-30.303c0-6.02-6.399-9.883-11.726-7.08z" fill="#ffc91d"/><path d="m175.725 87.887-33.887-6.242-.838 3.651 26.54 13.968c5.207 2.74 11.46-1.035 11.46-6.919v-.524c0-1.929-1.378-3.584-3.275-3.934z" fill="#ef7816"/></g><g><path d="m139.724 63.491h-23.447c-3.213 0-5.592 2.986-4.874 6.118l3.597 15.687h26l3.597-15.688c.718-3.131-1.661-6.117-4.873-6.117z" fill="#f79219"/></g></g><g><path d="m49.445 44.781 1.087 5.062c1.142 5.319 5.297 9.473 10.615 10.615l5.062 1.087c1.22.262 1.22 2.004 0 2.266l-5.062 1.087c-5.319 1.142-9.473 5.297-10.615 10.615l-1.087 5.062c-.262 1.22-2.004 1.22-2.266 0l-1.087-5.062c-1.142-5.319-5.297-9.473-10.615-10.615l-5.062-1.087c-1.22-.262-1.22-2.004 0-2.266l5.062-1.087c5.319-1.142 9.473-5.297 10.615-10.615l1.087-5.062c.262-1.22 2.004-1.22 2.266 0z" fill="#ffc91d"/></g><g><path d="m71.263 11.979.811 3.778c.852 3.969 3.953 7.069 7.922 7.922l3.778.811c.911.196.911 1.495 0 1.691l-3.778.811c-3.969.852-7.069 3.953-7.922 7.922l-.811 3.778c-.196.911-1.495.911-1.691 0l-.811-3.778c-.852-3.969-3.953-7.069-7.922-7.922l-3.778-.811c-.911-.196-.911-1.495 0-1.691l3.778-.811c3.969-.852 7.069-3.953 7.922-7.922l.811-3.778c.196-.911 1.496-.911 1.691 0z" fill="#ffc91d"/></g><g><path d="m192.597 27.51.811 3.778c.852 3.969 3.953 7.069 7.922 7.922l3.778.811c.911.196.911 1.495 0 1.691l-3.778.811c-3.969.852-7.069 3.953-7.922 7.922l-.811 3.778c-.196.911-1.495.911-1.691 0l-.811-3.778c-.852-3.969-3.953-7.069-7.922-7.922l-3.778-.811c-.911-.196-.911-1.495 0-1.691l3.778-.811c3.969-.852 7.069-3.953 7.922-7.922l.811-3.778c.196-.911 1.495-.911 1.691 0z" fill="#ffc91d"/></g><g><path d="m205.63 67.417.424 1.973c.445 2.073 2.065 3.693 4.138 4.138l1.973.424c.476.102.476.781 0 .883l-1.973.424c-2.073.445-3.693 2.065-4.138 4.138l-.424 1.973c-.102.476-.781.476-.883 0l-.424-1.973c-.445-2.073-2.065-3.693-4.138-4.138l-1.973-.424c-.476-.102-.476-.781 0-.883l1.973-.424c2.073-.445 3.693-2.065 4.138-4.138l.424-1.973c.102-.476.781-.476.883 0z" fill="#ffc91d"/></g><g><path d="m130.189 29.824.58 2.701c.609 2.838 2.827 5.055 5.665 5.665l2.701.58c.651.14.651 1.069 0 1.209l-2.701.58c-2.838.609-5.055 2.827-5.665 5.665l-.58 2.701c-.14.651-1.069.651-1.209 0l-.58-2.701c-.609-2.838-2.827-5.055-5.665-5.665l-2.701-.58c-.651-.14-.651-1.069 0-1.209l2.701-.58c2.838-.609 5.055-2.827 5.665-5.665l.58-2.701c.14-.652 1.069-.652 1.209 0z" fill="#ffc91d"/></g></g></svg>