<svg viewBox="0 0 512 512" xmlns="http://www.w3.org/2000/svg"><g><g fill="#1e4751"><path d="M60.797 362.074h51.664V512H60.797zm0 0" fill="#1e4751"></path><path d="M117.223 511.793H56.03c-6.129 0-11.097-4.969-11.097-11.098v-8.515c0-6.13 4.968-11.098 11.097-11.098h61.192c6.129 0 11.097 4.969 11.097 11.098v8.515c0 6.13-4.968 11.098-11.097 11.098zM314.32 362.074h51.668V512H314.32zm0 0" fill="#1e4751"></path></g><path d="M361.656 328.094H65.125V65.137C65.125 29.164 94.289 0 130.262 0H296.52c35.972 0 65.136 29.164 65.136 65.137zm0 0" fill="#f43b45"></path><path d="M296.52 0h-52.747c35.973 0 65.137 29.164 65.137 65.137v262.957h52.746V65.137C361.656 29.164 332.492 0 296.52 0zM65.125 367.5V219.512c0-9.953-8.07-18.024-18.023-18.024H18.023C8.07 201.488 0 209.558 0 219.512v82.863C0 338.344 29.156 367.5 65.125 367.5zm0 0" fill="#d82b2b"></path><path d="M361.656 367.5V219.512c0-9.953 8.07-18.024 18.028-18.024h29.074c9.953 0 18.023 8.07 18.023 18.024v82.863c0 35.969-29.156 65.125-65.125 65.125zm0 0" fill="#f43b45"></path><path d="M364.574 407.2H62.211c-9.543 0-17.277-7.735-17.277-17.278v-41.863h336.914v41.863c0 9.543-7.735 17.277-17.274 17.277zm0 0" fill="#345863"></path><path d="M382.574 377.629H44.207c-16.867 0-30.539-13.672-30.539-30.54 0-26.71 21.656-48.366 48.367-48.366h302.711c26.715 0 48.367 21.656 48.367 48.367 0 16.867-13.672 30.539-30.539 30.539zm0 0" fill="#ff4a5c"></path><path d="M370.75 511.793h-61.191c-6.13 0-11.098-4.969-11.098-11.098v-8.515c0-6.13 4.969-11.098 11.098-11.098h61.191c6.129 0 11.098 4.969 11.098 11.098v8.515c0 6.13-4.97 11.098-11.098 11.098zm0 0" fill="#1e4751"></path></g></svg>