<svg viewBox="0 0 512 512" xmlns="http://www.w3.org/2000/svg"><g><path d="M240.051 384.376a7.501 7.501 0 0 1-6.855-4.449l-30.498-68.435a24.143 24.143 0 0 1-.086-19.414 24.144 24.144 0 0 1 14.261-13.171l6.744-2.318c4.481-1.54 5.667-5.309 5.968-6.858.302-1.549.617-5.487-2.959-8.595l-13.893-12.074c-7.662-6.659-10.316-17.105-6.762-26.615 3.555-9.509 12.411-15.653 22.563-15.653h107.665c4.142 0 7.5 3.357 7.5 7.5s-3.358 7.5-7.5 7.5H228.533c-5.85 0-7.995 4.521-8.513 5.906s-1.864 6.203 2.551 10.04l13.893 12.074c6.576 5.715 9.507 14.232 7.843 22.783-1.665 8.552-7.577 15.347-15.816 18.178l-6.744 2.318c-2.441.839-4.352 2.604-5.381 4.97s-1.018 4.967.033 7.324l30.498 68.435a7.5 7.5 0 0 1-6.846 10.554z" fill="#b3e59f"></path><path d="m343.834 206.344-45.212 34.799c-4.183 3.219-3.167 9.787 1.793 11.593l46.859 17.055c4.96 1.805 9.96-2.573 8.825-7.728z" fill="#ffe07d"></path><path d="M416.921 5.541c-47.468-17.277-99.954 7.198-117.231 54.666-20.877 57.36 16.413 128.784 31.638 154.296a14.18 14.18 0 0 0 16.842 6.13c28.062-9.757 102.539-40.501 123.416-97.861 17.278-47.468-7.197-99.954-54.665-117.231z" fill="#ffe07d"></path><path d="M416.921 5.541a92.646 92.646 0 0 0-8.848-2.727c33.849 17.245 48.183 63.938 31.972 108.479-20.795 57.135-84.591 91.563-108.9 102.903l.183.309a14.18 14.18 0 0 0 16.842 6.13c28.062-9.757 102.539-40.501 123.416-97.861 17.278-47.47-7.197-99.956-54.665-117.233z" fill="#ffd064"></path><path d="m436.472 76.282-18.773-11.205c-3.558-2.124-8.161-.96-10.284 2.597s-.961 8.161 2.596 10.284l6.616 3.949-20.238 9.435a28.948 28.948 0 0 0-12.366-8.687c-15.096-5.496-31.847 2.317-37.342 17.412-2.662 7.313-2.316 15.225.973 22.277a28.945 28.945 0 0 0 9.726 11.582l-4.203 11.547-5.547-2.019a7.5 7.5 0 1 0-5.13 14.095l5.547 2.019-2.1 5.768a7.5 7.5 0 1 0 14.095 5.13l2.1-5.769 5.548 2.019a7.49 7.49 0 0 0 9.612-4.483 7.5 7.5 0 0 0-4.483-9.613l-5.547-2.019 4.201-11.543a28.64 28.64 0 0 0 2.602.121c4.196 0 8.378-.919 12.294-2.745 7.053-3.289 12.403-9.127 15.064-16.439a28.953 28.953 0 0 0 1.294-15.06l20.237-9.435-1.228 7.604a7.501 7.501 0 0 0 14.808 2.393l3.486-21.579a7.497 7.497 0 0 0-3.558-7.636zm-49.132 38.583a14.04 14.04 0 0 1-7.308 7.976 14.04 14.04 0 0 1-10.807.472 14.046 14.046 0 0 1-7.976-7.308 14.047 14.047 0 0 1-.472-10.808c2.086-5.733 7.52-9.301 13.295-9.301 9.778 0 16.615 9.775 13.268 18.969z" fill="#ffc250"></path><path d="M145.42 311v189.74c0 6.218 5.041 11.259 11.259 11.259h225.588c6.218 0 11.259-5.041 11.259-11.259V311c0-6.218-5.041-11.259-11.259-11.259H156.68c-6.219 0-11.26 5.041-11.26 11.259z" fill="#9ec8fc"></path><path d="M382.267 299.741h-12.632V481.4c0 6.218-5.041 11.259-11.259 11.259H145.42v8.081c0 6.219 5.041 11.259 11.259 11.259h225.588c6.218 0 11.259-5.041 11.259-11.259V311c.001-6.218-5.04-11.259-11.259-11.259z" fill="#80b6fc"></path><path d="M342.617 365.279v81.184a5.63 5.63 0 0 1-1.648 3.98l-26.918 26.927a5.63 5.63 0 0 1-3.981 1.65h-81.182a5.63 5.63 0 0 1-3.981-1.649l-26.927-26.927a5.63 5.63 0 0 1-1.649-3.981V365.28a5.63 5.63 0 0 1 1.649-3.981l26.927-26.927a5.63 5.63 0 0 1 3.981-1.649h81.182c1.493 0 2.926.593 3.981 1.65l26.918 26.927a5.625 5.625 0 0 1 1.648 3.979z" fill="#ddebfd"></path><path d="M269.473 423.521a7.5 7.5 0 0 1-7.5-7.5v-8.464a13.52 13.52 0 0 1 5.935-11.2l11.553-7.843v-16.535c0-.123-.1-.223-.223-.223h-19.529c-.123 0-.223.1-.223.223v12.087c0 4.143-3.358 7.5-7.5 7.5s-7.5-3.357-7.5-7.5v-12.087c0-8.394 6.829-15.223 15.223-15.223h19.529c8.394 0 15.223 6.829 15.223 15.223v17.311c0 4.49-2.218 8.676-5.933 11.199l-11.555 7.844v7.688a7.5 7.5 0 0 1-7.5 7.5zM269.473 454.984a7.5 7.5 0 0 1-7.5-7.5v-2.288c0-4.143 3.358-7.5 7.5-7.5s7.5 3.357 7.5 7.5v2.288a7.5 7.5 0 0 1-7.5 7.5z" fill="#4981f8"></path><path d="m62.159 508.149-19.875-7.234c-5.843-2.127-8.856-8.588-6.729-14.431l93.771-257.634c2.127-5.843 8.588-8.856 14.431-6.729l19.875 7.234c5.843 2.127 8.856 8.588 6.729 14.431L76.591 501.42c-2.127 5.843-8.588 8.856-14.432 6.729z" fill="#62a4fb"></path></g></svg>