<svg viewBox="0 0 512.001 512.001" xmlns="http://www.w3.org/2000/svg"><g><path d="M406.532 177.485H105.468c-9.233 0-16.726 7.493-16.726 16.726v173.145l33.463 18.231 125.778 68.609a16.708 16.708 0 0 0 16.034 0l125.789-68.609 33.452-18.142V194.211c0-9.233-7.492-16.726-16.726-16.726z" fill="#ffdfb3"></path><path d="m389.807 385.587 33.452-18.142V194.211c0-9.233-7.493-16.726-16.726-16.726H256v278.76c2.756 0 5.514-.684 8.017-2.048l125.79-68.61z" fill="#ffcc99"></path><path d="M406.532 210.936H105.468a16.71 16.71 0 0 1-13.351-6.654 16.749 16.749 0 0 1-2.733-14.667L131.526 41.99c7.241-21.757 24.458-36.795 46.279-40.9 21.855-4.116 43.328 3.615 57.539 20.668 10.236 12.283 31.078 12.283 41.314 0 14.21-17.051 35.673-24.794 57.538-20.666 21.822 4.106 39.038 19.143 46.062 40.203l42.359 148.322c1.437 5.052.425 10.476-2.733 14.667s-8.102 6.652-13.352 6.652z" fill="#486475"></path><path d="M406.532 210.936c5.249 0 10.193-2.461 13.351-6.654s4.17-9.615 2.733-14.667L380.257 41.293c-7.024-21.06-24.239-36.098-46.062-40.203-21.865-4.127-43.328 3.615-57.539 20.668-5.118 6.142-12.888 9.213-20.656 9.213v179.965h150.532z" fill="#3c4d5c"></path><path d="M473.436 210.936H38.565c-9.234 0-16.726-7.492-16.726-16.726 0-9.234 7.492-16.726 16.726-16.726h434.871c9.234 0 16.726 7.492 16.726 16.726-.001 9.234-7.491 16.726-16.726 16.726z" fill="#347f94"></path><path d="M473.436 177.485H256v33.452h217.435c9.234 0 16.726-7.492 16.726-16.726 0-9.234-7.49-16.726-16.725-16.726z" fill="#3e6880"></path><path d="M423.258 244.388v33.452h-50.177c-9.233 0-16.726-7.493-16.726-16.726s7.493-16.726 16.726-16.726h50.177z" fill="#3c4d5c"></path><path d="M138.92 244.388H88.742v33.452h50.177c9.234 0 16.726-7.492 16.726-16.726.001-9.234-7.49-16.726-16.725-16.726z" fill="#486475"></path><path d="M145.206 330.391c-14.457-9.778-23.012-26.275-23.012-43.728v-42.275H256v33.452c0 50.95-57.238 88.774-110.794 52.551zM80.034 324.493a16.694 16.694 0 0 0-18.019 1.271 16.715 16.715 0 0 0-6.356 16.904L89.11 498.776C90.771 506.492 97.584 512 105.468 512h133.806V411.345l-159.24-86.852z" fill="#486475"></path><path d="M449.986 325.764a16.692 16.692 0 0 0-18.019-1.271l-159.241 86.852v100.656h133.806c7.883 0 14.696-5.508 16.358-13.224l33.452-156.107a16.716 16.716 0 0 0-6.356-16.906z" fill="#3c4d5c"></path><path d="M272.726 411.345v100.656h-33.451V411.345L256 420.466z" fill="#d7ebff"></path><path d="M272.726 512.001V411.345L256 420.466v91.535z" fill="#bddeff"></path><path d="M256 277.84v-33.452h133.806v42.275c0 17.453-8.556 33.95-23.012 43.728C313.239 366.614 256 328.79 256 277.84z" fill="#3c4d5c"></path></g></svg>