<svg viewBox="0 0 60 60" xmlns="http://www.w3.org/2000/svg"><g><path d="M45 1a14 14 0 0 0-12.13 20.99L2.06 52.81A3.62 3.62 0 0 0 1 55.37a3.625 3.625 0 0 0 6.19 2.57l3.43-3.43 3.43 3.44a2.438 2.438 0 0 0 3.43 0l1.01-1.02a2.438 2.438 0 0 0 0-3.43l-3.42-3.43 3.55-3.55 2.56 2.57a2.438 2.438 0 0 0 3.43 0l1.02-1.03a2.426 2.426 0 0 0 0-3.42l-2.56-2.57L38 27.12A13.854 13.854 0 0 0 45 29a14 14 0 0 0 0-28zm2.5 16a4.5 4.5 0 1 1 4.5-4.5 4.494 4.494 0 0 1-4.5 4.5z" fill="#f5ac37"></path><path d="M47.5 18a5.5 5.5 0 1 1 5.5-5.5 5.507 5.507 0 0 1-5.5 5.5zm0-9a3.5 3.5 0 1 0 3.5 3.5A3.5 3.5 0 0 0 47.5 9z" fill="#ea9e2f"></path></g></svg>