<svg viewBox="0 0 256 256" xmlns="http://www.w3.org/2000/svg"><g><path d="M31.075 237.075V133.276h194.904v103.799" fill="#9eadb2"></path><path d="M236.327 137.4h-215.6a13.75 13.75 0 0 1 13.75-13.75h188.1a13.75 13.75 0 0 1 13.75 13.75zM73.422 223.325v-59.133h-11v59.133h-.1a13.75 13.75 0 0 0-13.75 13.75h38.7a13.75 13.75 0 0 0-13.75-13.75z" fill="#744c41"></path><path d="M91.349 174.526H44.5v-7.15a11 11 0 0 1 11-11h24.849a11 11 0 0 1 11 11z" fill="#ff9500"></path><path d="M133.922 223.325v-59.133h-11v59.133h-.1a13.75 13.75 0 0 0-13.75 13.75h38.7a13.75 13.75 0 0 0-13.75-13.75z" fill="#744c41"></path><path d="M151.849 174.526H105v-7.15a11 11 0 0 1 11-11h24.852a11 11 0 0 1 11 11z" fill="#ff9500"></path><path d="M194.422 223.325v-59.133h-11v59.133h-.1a13.75 13.75 0 0 0-13.75 13.75h38.7a13.75 13.75 0 0 0-13.75-13.75z" fill="#744c41"></path><path d="M212.349 174.526H165.5v-7.15a11 11 0 0 1 11-11h24.852a11 11 0 0 1 11 11z" fill="#ff9500"></path><path d="M208.657 80.149v-18.38h-11v18.38a12.445 12.445 0 0 0-6.947 11.166v32.1h24.89v-32.1a12.445 12.445 0 0 0-6.943-11.166z" fill="#8ea91c"></path><path d="M195.571 58.77h15.172v6h-15.172zM166.88 97.801h6v25.575h-6z" fill="#6e860a"></path><path d="M169.879 107.426A11.275 11.275 0 0 1 158.6 96.151v-7.975h22.55v7.975a11.275 11.275 0 0 1-11.271 11.275z" fill="#9eadb2"></path><path d="M135.529 97.801h6v25.575h-6z" fill="#6e860a"></path><path d="M138.529 107.426a11.275 11.275 0 0 1-11.275-11.275v-7.975H149.8v7.975a11.275 11.275 0 0 1-11.271 11.275z" fill="#9eadb2"></path><circle cx="38.876" cy="53.295" fill="#ff9500" r="9.075"></circle><path d="M35.877 21.475h6v18.62h-6z" fill="#6e860a"></path><path d="M57.025 52.469H20.727l8.25-16.499h19.798z" fill="#8ea91c"></path><circle cx="94.148" cy="53.295" fill="#ff9500" r="9.075"></circle><path d="M91.148 21.475h6v18.62h-6z" fill="#6e860a"></path><path d="M112.297 52.469H75.999l8.25-16.499h19.798z" fill="#8ea91c"></path><circle cx="149.42" cy="53.295" fill="#ff9500" r="9.075"></circle><path d="M146.421 21.475h6v18.62h-6z" fill="#6e860a"></path><path d="M167.57 52.469h-36.299l8.25-16.499h19.799z" fill="#8ea91c"></path></g></svg>