<svg viewBox="0 0 512 512" xmlns="http://www.w3.org/2000/svg"><g><path d="m490.64 82.324 4.877 4.606v41.315h-41.011V82.324z" fill="#b98080"></path><path d="m24.154 376.004-4.207 10.709a92.724 92.724 0 0 0-6.346 37.611l2.312 57.798 18.541-.001v4.373l10.303-4.372 19.531-95.808c.7-3.434 1.302-6.886 1.807-10.353-15.314-13.028-27.984-14.286-41.941.043z" fill="#ffdfd4"></path><path d="M38.492 385.304a99.51 99.51 0 0 0-6.346 39.038l2.308 62.152-20.603-4.373-2.308-57.8a92.709 92.709 0 0 1 6.346-37.606L22.092 376c7.891-8.098 16.029-11.22 24.384-10.045z" fill="#feccbc"></path><path d="M70.216 250.304c9.2 39.506 14.829 80.709 7.142 123.128a3.094 3.094 0 0 1-3.044 2.53l-53.694.028-17.523-3.08c0-15.129-.48-26.171.829-39.075 1.642-16.189.865-32.47-1.54-48.563a27.65 27.65 0 0 1-.319-4.058c-.199-11.546 5.049-22.631 13.176-30.748 1.335-1.333 5.158-5.519 5.158-5.519l48.242-1.188z" fill="#c1e9af"></path><path d="M35.155 247.553c-8.128 8.51-14.742 20.142-14.546 32.259 0 1.339.103 2.71.299 4.09 2.328 16.928 3.749 34.041 2.101 51.061-1.226 12.621-.844 26.355-.916 41.027l-18.983.009a3.099 3.099 0 0 1-3.096-3.109c.071-13.975.629-27.069 1.857-39.101 1.648-16.227.762-32.537-1.566-48.671a26.621 26.621 0 0 1-.299-3.905c-.196-11.55 5.048-22.636 13.176-30.744 1.339-1.339 5.161-5.522 5.161-5.522l19.553-.433c-1.031 1.164-2.133 2.411-2.741 3.039z" fill="#ade194"></path><path d="M58.534 125.339V84.358H21.036v34.193z" fill="#feccbc"></path><path d="M23.635 88.665h33.498c14.083-.168 25.351-11.743 25.129-25.827-.132-8.406-.235-20.475-.235-31.349L23.542 21.187z" fill="#ffdfd4"></path><path d="M30.116 110.164c7.57 7.094 15.216 8.387 28.418 8.387 0 0 23.495 17.257 23.495 36.372s-7.397 24.86-7.397 45.272c0 0 4.68 23.265 5.118 44.883a3.099 3.099 0 0 1-3.092 3.172H23.545l-18.389-2.06c0-39.79 4.943-36.061 4.943-67.209l-1.861-55.797z" fill="#a2aee6"></path><path d="M134.566 190.351c-.731 8.026-7.469 14.063-15.38 14.063-.464 0-.927-.021-1.401-.072l-19.748-1.783-6.721-15.374 9.503-15.4 19.748 1.782c8.498.763 14.761 8.284 13.999 16.784z" fill="#ffdfd4"></path><path d="m56.135 165.687-26.019-55.522c-15.072-4.5-21.522 4.687-24.362 19.605l2.287 49.207c0 30.318-4.682 29.553-4.934 66.156a3.1 3.1 0 0 0 3.092 3.121h17.347c0-37.474 4.385-38.18 4.896-64.161.022-1.097 1.51-1.41 1.967-.412l2.358 5.155a15.439 15.439 0 0 0 12.661 8.964l52.611 4.76 2.781-30.775-41.323-3.743a4.12 4.12 0 0 1-3.362-2.355z" fill="#8795de"></path><path d="m15.913 483.152 18.541-1.03h24.725c11.379 0 20.603 9.225 20.603 20.605v4.121a5.15 5.15 0 0 1-5.151 5.151H34.292l-8.077-1.03c-5.689 0-10.301-4.613-10.301-10.303v-17.514z" fill="#7e8b96"></path><path d="M34.292 482.121V512h-10.14c-5.687 0-10.302-4.616-10.302-10.303v-19.576z" fill="#6a7682"></path><path d="M82.027 16.952V31.49H42.662c-5.688 0-10.3 4.611-10.302 10.3l-.018 57.04c0 9.663-4.632 18.309-11.732 24.079-5.664 4.603-10.837 5.315-18.544 5.315l-1.03-89.131c0-21.75 16.689-38.234 38.436-38.059L54.104.101l4.487-.098h2.185c8.722-.163 21.473 5.082 21.251 16.949z" fill="#ae6c6c"></path><path d="M59.755.004c-21.603 0-39.146 17.443-39.146 39.089v83.815c-4.815 3.914-10.761 6.503-17.167 7.193a3.102 3.102 0 0 1-3.436-3.079V39.093C.006 17.343 17.725-.172 39.472.004h20.283z" fill="#9b5e5e"></path><path d="M501.698 287.91c0 13.307-8.687 24.161-11.258 27.082a3.067 3.067 0 0 0-.759 1.892l-2.539 56.061c-.016.346.029.698.13 1.03 13.78 45.68 6.62 60.926 6.62 107.873l-20.039 1.03-18.54-2.061c0-19.16-2.798-38.715-5.801-55.294a452.146 452.146 0 0 1-7.235-80.607v-68.179l59.421.871z" fill="#7e8b96"></path><path d="m473.853 482.873-20.603 1.105c0-19.153-2.792-41.874-5.8-58.451a452.002 452.002 0 0 1-7.232-80.611v-68.185l20.603.288v67.897c0 27.035 2.41 54.008 7.232 80.611 3.008 16.577 5.8 38.193 5.8 57.346z" fill="#6a7682"></path><path d="M495.517 27.368V86.93h-41.011c-14.082-.165-24.982-12.065-24.765-26.149.118-7.378.211-19.169.232-29.291 0 0 2.065-2.791 2.065-4.121h63.479z" fill="#c59191"></path><path d="M512 144.719v138.039a5.15 5.15 0 0 1-5.151 5.151h-51.807l-18.543-2.061a5.15 5.15 0 0 1-5.151-5.151V170.753a58.98 58.98 0 0 1 12.932-36.854l14.752-10.987c16.272-3.23 25.802-12.584 36.211-22.689 4.67 7.378 8.333 14.446 13.172 21.775A73.794 73.794 0 0 1 512 144.719z" fill="#909ba6"></path><path d="m484.474 108.07-5.996 36.835c-8.375 10.458-17.672 41.511-17.672 41.511V287.91H434.69c-3.095 0-5.402-2.308-5.402-5.151V170.755a58.995 58.995 0 0 1 12.929-36.854l12.29-15.984c10.037-1.985 19.606-5.227 27.608-9.723 0 .001 1.589.352 2.359-.124z" fill="#7e8b96"></path><path d="M512 39.093v7.826c0 12.179-9.872 22.052-22.049 22.052-5.688 0-10.3-4.61-10.302-10.299l-.006-16.88c0-5.687-4.615-10.303-10.302-10.303h-14.639l-23.694-1.03V16.952C430.792 5.083 443.535.869 452.26 1.034l20.224-.936c.618-.005 1.282-.09 1.893-.066C495.274.828 512 17.962 512 39.093z" fill="#ae6c6c"></path><path d="M474.378.035c-8.602.443-19.882 5.749-19.676 16.917V31.49h-24.724V16.952C429.761 5.083 442.505-.161 451.23.004h21.304c.618 0 1.236 0 1.844.031z" fill="#9b5e5e"></path><path d="m413.969 202.56-19.749 1.783a13.02 13.02 0 0 1-1.401.072c-7.912 0-14.649-6.038-15.38-14.063-.762-8.5 5.501-16.021 14-16.784l19.748-1.782 5.341 13.658z" fill="#ffdfd4"></path><path d="m501.049 155.383-21.809 33.454a15.439 15.439 0 0 1-12.661 8.964l-37.292 3.369-15.318 1.391-2.782-30.775 18.1-1.638 23.197-2.102a4.12 4.12 0 0 0 3.376-2.391l26.254-57.458c4.935-2.782 9.405-6.089 13.403-9.963a73.566 73.566 0 0 1 11.466 19.73c.34 1.247.711 2.359 1.113 3.307.494 1.144.814 2.359 1.061 3.575 2.482 12.156-1.288 20.09-8.108 30.537z" fill="#6a7682"></path><path d="M191.617 177.148a7.727 7.727 0 0 1-7.726-7.727V143.95c0-.917-.493-1.772-1.287-2.23l-1.423-.822-23.669-15.629c-3.204-1.597-4.302-5.134-2.452-7.9 1.849-2.766 5.947-3.715 9.151-2.117l24.696 12.262 1.422.821a18.08 18.08 0 0 1 9.014 15.614v25.471a7.727 7.727 0 0 1-7.726 7.728z" fill="#909ba6"></path><path d="M188.908 127.513a30.602 30.602 0 0 1-1.195 2.298l-5.151 8.922a27.86 27.86 0 0 1-1.38 2.164l-23.931-13.816c-3.688-2.133-4.955-6.862-2.823-10.55 2.132-3.699 6.861-4.966 10.549-2.833z" fill="#7e8b96"></path><path d="m150.641 132.202-25.872-14.939c-4.927-2.845-6.615-9.145-3.771-14.073l5.151-8.923c2.845-4.928 9.146-6.617 14.074-3.771l25.872 14.939c4.927 2.845 6.615 9.145 3.771 14.073l-5.151 8.923c-2.845 4.928-9.147 6.617-14.074 3.771z" fill="#6a7682"></path><path d="M212.22 169.02v30.799h-39.146V176.27a7.212 7.212 0 0 1 5.84-7.08l12.704-4.922 12.02-2.329c4.45-.861 8.582 2.548 8.582 7.081z" fill="#7e8b96"></path><path d="M191.617 164.264v35.556h-20.603v-25.613a7.216 7.216 0 0 1 5.841-7.078z" fill="#6a7682"></path><path d="M226.128 186.416v54.1l-2.552 1.761.458 48.058 2.094 1.696v199.363h-98.897V204.639z" fill="#c59191"></path><path d="M226.128 266.274v25.757h-71.082a4.12 4.12 0 0 0-4.121 4.121v195.241h-25.754V204.641l25.754-4.647v66.279h75.203z" fill="#b98080"></path><g fill="#ae6c6c"><path d="M116.923 220.482a7.728 7.728 0 0 1-1.461-15.315l122.035-23.498a7.727 7.727 0 0 1 2.939 15.172L118.401 220.34a7.777 7.777 0 0 1-1.478.142zM237.975 271.425h-87.049l-5.666-2.061-30.905 1.03a4.121 4.121 0 0 1-4.121-4.121v-20.606a4.121 4.121 0 0 1 4.121-4.121l30.905 1.03 5.666-2.061h87.049a4.121 4.121 0 0 1 4.121 4.121v22.667a4.122 4.122 0 0 1-4.121 4.122zM236.944 512H134.958l-19.573-1.03a5.15 5.15 0 0 1-5.151-5.151v-18.545a5.15 5.15 0 0 1 5.151-5.151l19.573-1.03h101.987a5.15 5.15 0 0 1 5.151 5.151v20.606a5.152 5.152 0 0 1-5.152 5.15z" fill="#ae6c6c"></path></g><path d="M150.925 240.516v30.909h-37.601a4.12 4.12 0 0 1-4.121-4.121v-22.667a4.12 4.12 0 0 1 4.121-4.121zM150.925 481.091V512h-36.571a5.153 5.153 0 0 1-5.151-5.151v-20.606a5.153 5.153 0 0 1 5.151-5.151h36.571z" fill="#9b5e5e"></path><path d="M320.388 177.148a7.727 7.727 0 0 0 7.726-7.727V143.95c0-.917.493-1.772 1.287-2.23l1.423-.822 23.456-16.046c2.798-1.474 3.756-4.738 2.141-7.29s-5.192-3.428-7.99-1.953l-25.333 11.906-1.422.821a18.08 18.08 0 0 0-9.014 15.614v25.471a7.727 7.727 0 0 0 7.726 7.727z" fill="#909ba6"></path><path d="M323.098 127.513c.361.773.762 1.545 1.195 2.298l5.151 8.922a27.86 27.86 0 0 0 1.38 2.164l23.931-13.816c3.688-2.133 4.955-6.862 2.823-10.55-2.132-3.699-6.861-4.966-10.549-2.833z" fill="#7e8b96"></path><path d="m361.365 132.202 25.872-14.939c4.927-2.845 6.615-9.145 3.771-14.073l-5.151-8.923c-2.845-4.928-9.146-6.617-14.074-3.771l-25.872 14.939c-4.927 2.845-6.615 9.145-3.771 14.073l5.151 8.923c2.845 4.928 9.146 6.617 14.074 3.771z" fill="#6a7682"></path><path d="M300.815 170.051v29.769h40.177v-25.609a7.212 7.212 0 0 0-5.84-7.08l-14.765-2.861-10.989-1.299c-4.45-.863-8.583 2.546-8.583 7.08z" fill="#7e8b96"></path><path d="M320.388 164.264v35.556h-20.603v-30.796c0-4.533 4.131-7.944 8.581-7.088z" fill="#6a7682"></path><path d="M287.938 186.416v304.978h98.896V292.031l-1.307-2.896.277-46.716 1.03-1.903v-35.877z" fill="#c59191"></path><path d="M386.834 268.015v24.016h-71.082a4.12 4.12 0 0 0-4.121 4.121v195.241h-25.754V186.416l25.754 4.647v76.953h75.203z" fill="#b98080"></path><g fill="#ae6c6c"><path d="M395.083 220.482a7.728 7.728 0 0 0 1.461-15.315l-122.035-23.498a7.727 7.727 0 0 0-2.939 15.172l122.035 23.498c.496.097.99.143 1.478.143zM275.061 270.395l27.174-.265 9.397 1.295h87.049a4.121 4.121 0 0 0 4.121-4.121v-22.667a4.121 4.121 0 0 0-4.121-4.121h-87.049l-8.885 1.281-27.687-.25a4.121 4.121 0 0 0-4.121 4.121v20.606a4.122 4.122 0 0 0 4.122 4.121zM276.091 510.97l19.573 1.03h101.987a5.15 5.15 0 0 0 5.151-5.151v-20.606a5.15 5.15 0 0 0-5.151-5.151H295.664l-19.573 1.03a5.15 5.15 0 0 0-5.151 5.151v18.545a5.152 5.152 0 0 0 5.151 5.152z" fill="#ae6c6c"></path></g><path d="M311.632 240.516v30.909h-37.601a4.12 4.12 0 0 1-4.121-4.121v-22.667a4.12 4.12 0 0 1 4.121-4.121zM311.632 481.091V512h-36.571a5.153 5.153 0 0 1-5.151-5.151v-20.606a5.153 5.153 0 0 1 5.151-5.151h36.571z" fill="#9b5e5e"></path><path d="M493.892 481.848h-38.579c-11.483 0-20.792 9.31-20.792 20.795v4.206a3.091 3.091 0 0 0 3.091 3.091l15.452 2.06h30.432c5.742 0 10.396-4.655 10.396-10.397z" fill="#6a7682"></path><path d="M473.853 481.843c-11.476 0-20.789 9.314-20.789 20.802V512h-15.453a5.15 5.15 0 0 1-5.151-5.151v-4.204c0-11.488 9.313-20.802 20.789-20.802z" fill="#5d6875"></path></g></svg>