<svg viewBox="0 0 64 64" xmlns="http://www.w3.org/2000/svg"><g><path d="M57.028 5v14.64h-4.9c-1.45 2.371-4.8 4.031-8.7 4.032s-7.241-1.659-8.691-4.019l-.01-.01s-.01 2.16.041 3.66a9.275 9.275 0 0 1-1.29 5.71c-2.3 3.331-2.848 7.511-2.7 11.5a34.878 34.878 0 0 0 3.032 13.119 3.272 3.272 0 0 1 .25 1.4 3.727 3.727 0 0 1-3.629 3.651c-4.79.09-13.19.242-18.13.322-7.19.112-5.731-8.389-3.551-7.809 5.22 1.449 12.61-1.4 12.359-7.842v-30.18A8.173 8.173 0 0 1 29.278 5z" fill="#fecc81"></path><g fill="#fcb64d"><path d="M33.815 53.629a3.272 3.272 0 0 1 .25 1.4 9.521 9.521 0 0 1-3.24-3.479c-5.341-8.73-1.363-21.5 1.176-23.7s2.729-8.21 2.729-8.21-.01 2.16.041 3.66a9.275 9.275 0 0 1-1.29 5.71c-2.3 3.331-2.848 7.511-2.7 11.5a34.878 34.878 0 0 0 3.034 13.119zM52.13 19.636c-1.45 2.371-4.8 4.031-8.7 4.032s-7.241-1.659-8.691-4.019c.351.2 8.822 4.929 17.391-.013z" fill="#fcb64d"></path></g></g></svg>