<svg viewBox="0 0 512 512" xmlns="http://www.w3.org/2000/svg"><g><path d="M437 241H76c-8.291 0-15 6.709-15 15v181c0 6.46 4.131 12.188 10.254 14.224l180 60c1.538.513 3.149.776 4.746.776s3.208-.264 4.746-.776l181-60A14.984 14.984 0 0 0 452 437V256c0-8.291-6.709-15-15-15z" fill="#fed843"></path><path d="M441.746 451.224A14.984 14.984 0 0 0 452 437V256c0-8.291-6.709-15-15-15H256v271a15.07 15.07 0 0 0 4.746-.776zM67.021 191.486 2.52 262.68c-5.469 8.218-1.639 19.449 7.734 22.544l181 75c6.387 2.148 13.467-.264 17.227-5.903l47.518-86.283-47.142-34.096-114.564-46.408z" fill="#fabe2c"></path><path d="m509.481 262.68-63.783-71.201-39.125.873-128.606 51.772-21.969 23.913 47.521 86.283c3.779 5.667 10.873 8.04 17.227 5.903l181-75c9.375-3.094 13.202-14.326 7.735-22.543z" fill="#ff9100"></path><path d="M260.746 136.776c-1.538-.513-3.142-.769-4.746-.769s-3.208.256-4.746.769l-184.233 54.71 188.978 76.551H256l189.698-76.558z" fill="#fed843"></path><path d="M260.746 136.776a15.002 15.002 0 0 0-4.746-.769v132.03l189.698-76.558z" fill="#fabe2c"></path><path d="M338.647 100.258A14.984 14.984 0 0 0 324.79 91H286V15c0-8.291-6.709-15-15-15h-30c-8.291 0-15 6.709-15 15v76h-38.789a14.983 14.983 0 0 0-13.857 9.258 14.984 14.984 0 0 0 3.252 16.348l68.789 68.789c2.93 2.93 6.768 4.395 10.605 4.395s7.676-1.465 10.605-4.395l68.789-68.789a14.983 14.983 0 0 0 3.253-16.348z" fill="#ff641a"></path><path d="M335.395 116.605a14.984 14.984 0 0 0 3.252-16.348 14.984 14.984 0 0 0-13.857-9.258H286V15c0-8.291-6.709-15-15-15h-15v189.789c3.838 0 7.676-1.465 10.605-4.395z" fill="#f03800"></path></g></svg>