<svg id="Capa_1" enable-background="new 0 0 512.06 512.06" height="512" viewBox="0 0 512.06 512.06" width="512" xmlns="http://www.w3.org/2000/svg"><g><path d="m256.703 224.026v192.023l96.011 16.825 16.002-112.844-16.002-127.23z" fill="#ffdf4f"/><path d="m352.714 192.8v240.074l96.011-16.825v-192.023z" fill="#ffc219"/><path d="m256.703 416.049v96.011h96.011l16.268-48.006-16.268-48.005z" fill="#fff5f5"/><path d="m352.714 416.049h96.011v96.011h-96.011z" fill="#e6ecf2"/><path d="m320.71 0v64.008l32.004 22.912 11.549-49.248-11.549-37.672z" fill="#ff5145"/><path d="m352.714 0v86.92l32.004-22.912v-64.008z" fill="#d8007e"/><path d="m320.71 64.008c0 19.614-11.082 37.545-28.625 46.316-21.685 10.842-35.382 33.006-35.382 57.25v56.453h96.011l16.002-71.024-16.002-88.994h-32.004z" fill="#fff5f5"/><path d="m448.725 167.574c0-24.244-13.698-46.408-35.382-57.25-17.543-8.772-28.625-26.702-28.625-46.316h-32.004v160.019h96.011z" fill="#e6ecf2"/><path d="m304.774 367.042h47.94l16.002-15-16.002-15h-47.94z" fill="#354682"/><path d="m304.774 273.034v30h47.94l16.002-15-16.002-15z" fill="#354682"/><path d="m146.774 482.03v-84.796h-30v84.796h-32.487v30h94.974v-30z" fill="#fff5f5"/><path d="m352.714 337.042h47.939v30h-47.939z" fill="#273566"/><path d="m67.033 320.03c-15.085 44.32 17.857 90.409 64.741 90.409 46.884 0 79.826-46.089 64.741-90.409l-64.741-15z" fill="#e6ecf2"/><path d="m352.714 273.034h47.939v30h-47.939z" fill="#273566"/><path d="m196.409 319.707-22.013-63.677h-85.244l-22.013 63.677c-.037.107-.069.215-.106.323h129.482c-.037-.108-.069-.215-.106-.323z" fill="#fff5f5"/></g></svg>