<svg viewBox="0 0 64 64" xmlns="http://www.w3.org/2000/svg"><g><circle cx="32" cy="32" fill="#ffcd00" r="32"></circle><g fill-rule="evenodd"><path d="M32 64a16 16 0 0 1-16-16 16 16 0 0 1 16-16h32a32 32 0 0 1-32 32z" fill="#ffb400"></path><path d="M32 0a16 16 0 0 1 16 16 16 16 0 0 1-16 16H0A32 32 0 0 1 32 0z" fill="#ffeb00"></path><path d="M64 20v4.002A15.999 15.999 0 0 1 48.002 40h-.004A15.999 15.999 0 0 1 32 24.002V24a16 16 0 0 1-16 16h-.002A15.999 15.999 0 0 1 0 24.002V20zM17.861 44a19.985 19.985 0 0 0 28.276.002l2.832 2.831A23.927 23.927 0 0 1 32 53.861h-.002a23.922 23.922 0 0 1-16.969-7.029z" fill="#46321e"></path><path d="M27.156 35.469 11.686 20h22.628l19.071 19.072a15.966 15.966 0 0 1-5.383.928h-.004A15.999 15.999 0 0 1 32 24.002V24a15.95 15.95 0 0 1-4.844 11.469z" fill="#2c54a8"></path></g></g></svg>