<svg viewBox="0 0 256 256" xmlns="http://www.w3.org/2000/svg"><g><path d="M221.86 213.182h-33.858v-35.806h33.858z" fill="#fcc4ae"></path><path d="M196.179 185.79h17.504c7.474 0 13.534-6.945 13.534-15.513v-26.72h-44.571v26.72c-.001 8.567 6.059 15.513 13.533 15.513z" fill="#fcc4ae"></path><path d="M221.278 108.024a5.938 5.938 0 0 1 5.938 5.938v29.595H215.34v-29.595a5.938 5.938 0 0 1 5.938-5.938z" fill="#fcc4ae"></path><path d="M223.528 108.466a5.93 5.93 0 0 1 .442 2.251v29.594h-8.631v3.246h11.877v-29.594a5.94 5.94 0 0 0-3.688-5.497z" fill="#f2ad97"></path><path d="M209.401 104.209a5.938 5.938 0 0 1 5.938 5.938v33.41h-11.877v-33.41a5.939 5.939 0 0 1 5.939-5.938z" fill="#fcc4ae"></path><path d="M211.652 104.65a5.93 5.93 0 0 1 .442 2.251v33.41h-8.631v3.246h11.877v-33.41a5.942 5.942 0 0 0-3.688-5.497z" fill="#f2ad97"></path><path d="M198.028 112.067a5.434 5.434 0 0 1 5.434 5.434v26.056h-10.869v-26.056a5.436 5.436 0 0 1 5.435-5.434z" fill="#fcc4ae"></path><path d="M199.889 112.394a5.41 5.41 0 0 1 .327 1.861v26.056h-7.623v3.246h10.869v-26.056a5.435 5.435 0 0 0-3.573-5.107z" fill="#f2ad97"></path><path d="M187.62 119.02a4.974 4.974 0 0 1 4.974 4.974v19.563h-9.949v-19.563a4.974 4.974 0 0 1 4.975-4.974z" fill="#fcc4ae"></path><path d="M189.118 119.25c.149.473.23.976.23 1.498v19.563h-6.702v3.246h9.949v-19.563a4.978 4.978 0 0 0-3.477-4.744z" fill="#f2ad97"></path><path d="M245.553 139.249c2.995 2.053 1.393 6.274-.172 8.962-4.855 9.123-10.121 18.02-15.527 26.829-1.341 2.077-6.097 10.75-14.908 10.75-10.014 0-8.831-24.855 1.287-30.332 1.219-.638 9.095-3.073 10.231-3.849 4.605-3.143 5.489-4.81 8.787-9.208 1.725-2.3 3.799-4.037 6.835-4.066 1.354-.013 2.562.291 3.467.914z" fill="#fcc4ae"></path><path d="M245.553 139.249c-.906-.623-2.113-.927-3.467-.914-3.036.029-5.11 1.766-6.835 4.066-3.11 4.147-4.073 5.866-8.035 8.684v-7.529h-44.571v26.72c0 8.568 6.059 15.513 13.534 15.513h18.767c8.811 0 13.567-8.673 14.908-10.75 5.406-8.808 10.671-17.706 15.527-26.829 1.566-2.687 3.167-6.908.172-8.961z" fill="#fcc4ae"></path><path d="M245.553 139.249c-.882-.606-2.052-.905-3.362-.908-.192 1.693-1.003 3.485-1.81 4.871-4.855 9.123-10.121 18.02-15.527 26.829-1.341 2.077-6.097 10.75-14.908 10.75h-18.767c-2.208 0-4.286-.619-6.127-1.693 2.443 4.042 6.513 6.693 11.127 6.693h18.767c8.811 0 13.567-8.673 14.908-10.75 5.406-8.808 10.671-17.706 15.527-26.829 1.566-2.689 3.167-6.91.172-8.963z" fill="#f2ad97"></path><path d="M184.106 213.182h41.65v-19.616a2.597 2.597 0 0 0-2.597-2.597h-36.456a2.597 2.597 0 0 0-2.597 2.597z" fill="#e6e7e8"></path><path d="M184.087 219.107h41.69a2.597 2.597 0 0 0 2.597-2.597v-15.236a2.597 2.597 0 0 0-2.597-2.597h-41.69a2.597 2.597 0 0 0-2.597 2.597v15.236a2.597 2.597 0 0 0 2.597 2.597z" fill="#58595b"></path><path d="M225.776 198.676h-2.403v12.833a2.597 2.597 0 0 1-2.597 2.597H181.49v2.403a2.597 2.597 0 0 0 2.597 2.597h41.69a2.597 2.597 0 0 0 2.597-2.597v-15.236a2.598 2.598 0 0 0-2.598-2.597z" fill="#414042"></path><path d="M227.216 151.086h-.649a2.597 2.597 0 0 1-2.597-2.597v-11.517h3.246z" fill="#f2ad97"></path><path d="M34.14 177.376h33.858v35.806H34.14z" fill="#fcc4ae"></path><path d="M59.821 185.79H42.317c-7.474 0-13.534-6.945-13.534-15.513v-26.72h44.571v26.72c.001 8.567-6.059 15.513-13.533 15.513z" fill="#fcc4ae"></path><path d="M34.722 108.024a5.938 5.938 0 0 0-5.938 5.938v29.595H40.66v-29.595a5.938 5.938 0 0 0-5.938-5.938z" fill="#fcc4ae"></path><path d="M32.472 108.466a5.93 5.93 0 0 0-.442 2.251v29.594h8.631v3.246H28.784v-29.594a5.94 5.94 0 0 1 3.688-5.497z" fill="#f2ad97"></path><path d="M46.599 104.209a5.938 5.938 0 0 0-5.938 5.938v33.41h11.877v-33.41a5.939 5.939 0 0 0-5.939-5.938z" fill="#fcc4ae"></path><path d="M44.348 104.65a5.93 5.93 0 0 0-.442 2.251v33.41h8.631v3.246H40.66v-33.41a5.942 5.942 0 0 1 3.688-5.497z" fill="#f2ad97"></path><path d="M57.972 112.067a5.434 5.434 0 0 0-5.434 5.434v26.056h10.869v-26.056a5.436 5.436 0 0 0-5.435-5.434z" fill="#fcc4ae"></path><path d="M56.111 112.394a5.41 5.41 0 0 0-.327 1.861v26.056h7.623v3.246h-10.87v-26.056a5.437 5.437 0 0 1 3.574-5.107z" fill="#f2ad97"></path><path d="M68.38 119.02a4.974 4.974 0 0 0-4.974 4.974v19.563h9.949v-19.563a4.974 4.974 0 0 0-4.975-4.974z" fill="#fcc4ae"></path><path d="M66.882 119.25c-.149.473-.23.976-.23 1.498v19.563h6.702v3.246h-9.949v-19.563a4.978 4.978 0 0 1 3.477-4.744z" fill="#f2ad97"></path><path d="M10.447 139.249c-2.995 2.053-1.393 6.274.172 8.962 4.855 9.123 10.121 18.02 15.527 26.829 1.341 2.077 6.097 10.75 14.908 10.75 10.014 0 8.831-24.855-1.287-30.332-1.219-.638-9.095-3.073-10.231-3.849-4.605-3.143-5.489-4.81-8.787-9.208-1.725-2.3-3.799-4.037-6.835-4.066-1.354-.013-2.562.291-3.467.914z" fill="#fcc4ae"></path><path d="M10.447 139.249c.906-.623 2.113-.927 3.467-.914 3.036.029 5.11 1.766 6.835 4.066 3.11 4.147 4.073 5.866 8.035 8.684v-7.529h44.571v26.72c0 8.568-6.059 15.513-13.534 15.513H41.054c-8.811 0-13.567-8.673-14.908-10.75-5.406-8.808-10.671-17.706-15.527-26.829-1.566-2.687-3.167-6.908-.172-8.961z" fill="#fcc4ae"></path><path d="M64.821 180.79H46.054c-8.811 0-13.567-8.673-14.908-10.75-5.406-8.808-10.671-17.706-15.527-26.829-.807-1.386-1.618-3.177-1.81-4.871-1.31.004-2.48.302-3.362.908-2.995 2.053-1.393 6.274.172 8.962 4.855 9.123 10.121 18.02 15.527 26.829 1.341 2.077 6.097 10.75 14.908 10.75h18.767c4.614 0 8.684-2.652 11.127-6.693-1.841 1.075-3.919 1.694-6.127 1.694z" fill="#f2ad97"></path><path d="M71.894 213.182h-41.65v-19.616a2.597 2.597 0 0 1 2.597-2.597h36.456a2.597 2.597 0 0 1 2.597 2.597z" fill="#e6e7e8"></path><path d="M71.913 219.107h-41.69a2.597 2.597 0 0 1-2.597-2.597v-15.236a2.597 2.597 0 0 1 2.597-2.597h41.69a2.597 2.597 0 0 1 2.597 2.597v15.236a2.597 2.597 0 0 1-2.597 2.597z" fill="#58595b"></path><path d="M35.224 214.107a2.597 2.597 0 0 1-2.597-2.597v-12.833h-2.403a2.597 2.597 0 0 0-2.597 2.597v15.236a2.597 2.597 0 0 0 2.597 2.597h41.69a2.597 2.597 0 0 0 2.597-2.597v-2.403z" fill="#414042"></path><path d="M28.784 151.086h.649a2.597 2.597 0 0 0 2.597-2.597v-11.517h-3.246z" fill="#f2ad97"></path><path d="M145.23 210.768H97.575v-50.397h47.655z" fill="#fcc4ae"></path><path d="M109.083 172.213h24.637c10.52 0 19.049-9.776 19.049-21.835V112.77H90.034v37.608c0 12.059 8.529 21.835 19.049 21.835zM144.41 62.757a8.358 8.358 0 0 1 8.358 8.358v41.655h-16.717V71.115a8.36 8.36 0 0 1 8.359-8.358z" fill="#fcc4ae"></path><path d="M147.578 63.378c.4.977.622 2.046.622 3.168V108.2h-12.148v4.569h16.717V71.115a8.362 8.362 0 0 0-5.191-7.737z" fill="#f2ad97"></path><path d="M127.694 57.386a8.358 8.358 0 0 1 8.358 8.358v47.025h-16.717V65.745a8.36 8.36 0 0 1 8.359-8.359z" fill="#fcc4ae"></path><path d="M130.861 58.008c.4.977.622 2.046.622 3.168V108.2h-12.148v4.569h16.717V65.745a8.36 8.36 0 0 0-5.191-7.737z" fill="#f2ad97"></path><path d="M111.686 68.447a7.65 7.65 0 0 1 7.649 7.649v36.674h-15.298V76.096a7.649 7.649 0 0 1 7.649-7.649z" fill="#fcc4ae"></path><path d="M114.306 68.907c.298.817.46 1.699.46 2.619V108.2h-10.729v4.569h15.298V76.096a7.653 7.653 0 0 0-5.029-7.189z" fill="#f2ad97"></path><path d="M97.036 78.234a7.001 7.001 0 0 1 7.001 7.001v27.535H90.034V85.235a7.001 7.001 0 0 1 7.002-7.001z" fill="#fcc4ae"></path><path d="M99.144 78.557a7 7 0 0 1 .323 2.109V108.2h-9.433v4.569h14.003V85.235a7.004 7.004 0 0 0-4.893-6.678z" fill="#f2ad97"></path><path d="M178.578 106.706c4.215 2.889 1.961 8.831-.242 12.614-6.834 12.841-14.245 25.364-21.854 37.762-1.888 2.923-8.582 15.131-20.983 15.131-14.095 0-12.43-34.984 1.811-42.692 1.716-.898 12.801-4.325 14.401-5.417 6.482-4.424 7.726-6.771 12.368-12.96 2.427-3.237 5.347-5.683 9.62-5.723 1.905-.019 3.604.409 4.879 1.285z" fill="#fcc4ae"></path><path d="M178.578 106.706c-1.275-.876-2.975-1.304-4.88-1.286-4.274.041-7.193 2.486-9.62 5.723-4.377 5.837-5.733 8.256-11.309 12.223V112.77H90.034v37.608c0 12.059 8.528 21.835 19.049 21.835h26.415c12.401 0 19.096-12.208 20.983-15.131 7.609-12.398 15.02-24.921 21.854-37.762 2.205-3.783 4.459-9.725.243-12.614z" fill="#fcc4ae"></path><path d="M97.06 158.54c-.85 0-1.609-.54-1.89-1.35-.75-2.15-1.14-4.45-1.14-6.81v-23.73a2 2 0 0 1 4 0v23.73c0 1.9.31 3.75.92 5.49v.01c.18.51.14 1.05-.091 1.53a1.975 1.975 0 0 1-1.799 1.13zm-1.03-37.89c-1.101 0-2-.9-2-2s.899-2 2-2a2 2 0 0 1 0 4z" fill="#ffd2c0"></path><path d="M178.578 106.706c-1.275-.876-2.975-1.304-4.88-1.286a9.984 9.984 0 0 0-3.826.795 24.666 24.666 0 0 1-1.536 3.105c-6.834 12.841-14.245 25.364-21.854 37.762-1.888 2.923-8.582 15.131-20.983 15.131H99.084c-2.375 0-4.646-.502-6.742-1.412 3.228 6.798 9.515 11.412 16.742 11.412h26.415c12.401 0 19.096-12.208 20.983-15.131 7.609-12.398 15.02-24.921 21.854-37.762 2.204-3.783 4.458-9.725.242-12.614z" fill="#f2ad97"></path><path d="M178.578 106.706c-.756-.52-1.675-.862-2.684-1.067.317 2.852-1.125 6.221-2.558 8.682-6.834 12.841-14.245 25.364-21.854 37.762-1.888 2.923-8.582 15.131-20.983 15.131h-26.415c-3.593 0-6.953-1.142-9.821-3.124 3.492 4.953 8.832 8.124 14.821 8.124h26.415c12.401 0 19.096-12.208 20.983-15.131 7.609-12.398 15.02-24.921 21.854-37.762 2.204-3.784 4.458-9.726.242-12.615z" fill="#e59076"></path><path d="M92.091 210.767h58.624v-27.61a3.655 3.655 0 0 0-3.655-3.655H95.746a3.655 3.655 0 0 0-3.655 3.655z" fill="#e6e7e8"></path><path d="M92.063 219.107h58.679a3.655 3.655 0 0 0 3.655-3.655v-21.445a3.655 3.655 0 0 0-3.655-3.655H92.063a3.655 3.655 0 0 0-3.655 3.655v21.445a3.655 3.655 0 0 0 3.655 3.655z" fill="#58595b"></path><path d="M150.742 190.35h-1.345v20.101a3.655 3.655 0 0 1-3.655 3.655H88.408v1.345a3.655 3.655 0 0 0 3.655 3.655h58.679a3.655 3.655 0 0 0 3.655-3.655v-21.446a3.655 3.655 0 0 0-3.655-3.655z" fill="#414042"></path><path d="M152.769 123.366h-.914a3.655 3.655 0 0 1-3.655-3.655V103.5h4.569z" fill="#f2ad97"></path><path d="M230.612 36.893h-49.594a7.762 7.762 0 0 0-7.762 7.762V98.93c0 .917 1.079 1.408 1.771.805l10.139-8.841c.195-.17.444-.263.702-.263h44.744a7.762 7.762 0 0 0 7.762-7.762V44.655a7.762 7.762 0 0 0-7.762-7.762z" fill="#e63950"></path><path d="M232.999 37.268a7.75 7.75 0 0 1 .375 2.387v38.214a7.762 7.762 0 0 1-7.762 7.762h-44.744a1.07 1.07 0 0 0-.702.263l-6.91 6.026v7.011c0 .917 1.079 1.408 1.771.805l10.139-8.841c.195-.17.444-.263.702-.263h44.744a7.762 7.762 0 0 0 7.762-7.762V44.655a7.764 7.764 0 0 0-5.375-7.387z" fill="#d10028"></path><path d="M25.388 36.893h49.594a7.762 7.762 0 0 1 7.762 7.762V98.93c0 .917-1.079 1.408-1.771.805l-10.139-8.841a1.067 1.067 0 0 0-.702-.263H25.388a7.762 7.762 0 0 1-7.762-7.762V44.655a7.762 7.762 0 0 1 7.762-7.762z" fill="#76a34f"></path><path d="M77.37 37.268a7.75 7.75 0 0 1 .375 2.387V93.93c0 .917-1.079 1.408-1.771.805l-10.139-8.841a1.067 1.067 0 0 0-.702-.263H20.388a7.75 7.75 0 0 1-2.387-.375 7.765 7.765 0 0 0 7.387 5.375h44.744c.258 0 .508.094.702.263l10.139 8.841c.691.603 1.771.112 1.771-.805V44.655a7.764 7.764 0 0 0-5.374-7.387z" fill="#648940"></path><path d="M205.815 70.267a4.698 4.698 0 0 1-4.698-4.698V48.058a4.698 4.698 0 1 1 9.396 0V65.57a4.698 4.698 0 0 1-4.698 4.697zM205.815 83.397a4.698 4.698 0 1 1 0-9.395 4.698 4.698 0 0 1 0 9.395zM50.185 70.267a4.698 4.698 0 0 1-4.698-4.698V48.058a4.698 4.698 0 1 1 9.396 0V65.57a4.697 4.697 0 0 1-4.698 4.697zM50.185 83.397a4.698 4.698 0 1 1 0-9.395 4.698 4.698 0 0 1 0 9.395z" fill="#ffffff"></path></g></svg>