<svg viewBox="0 0 16.933 16.933" xmlns="http://www.w3.org/2000/svg"><g><path d="M5.82 1.059c-.874 0-1.587.71-1.587 1.586v7.937c-.8.537-1.321 1.409-1.323 2.381a.265.265 0 0 0 0 .002 2.914 2.914 0 0 0 2.91 2.91 2.914 2.914 0 0 0 2.91-2.91c0-.974-.52-1.848-1.322-2.385V2.645c0-.875-.713-1.586-1.588-1.586z" fill="#e9e9ff"></path><g fill="#3abeff"><path d="M5.817 7.934a.265.265 0 0 0-.26.267v3.705a.265.265 0 1 0 .527 0V8.201a.265.265 0 0 0-.267-.267z" fill="#3abeff"></path><path d="M5.82 11.64c-.727 0-1.322.597-1.322 1.325s.595 1.322 1.322 1.322c.728 0 1.323-.595 1.323-1.322S6.548 11.64 5.82 11.64zM1.297 8.996a.265.265 0 0 0 .025.53H2.91a.265.265 0 1 0 0-.53H1.322a.265.265 0 0 0-.025 0zM1.826 7.408a.265.265 0 0 0 .026.53H2.91a.265.265 0 1 0 0-.53H1.852a.265.265 0 0 0-.026 0zM1.322 5.82a.265.265 0 1 0 0 .53H2.91a.265.265 0 1 0 0-.53zM1.852 4.232a.265.265 0 1 0 0 .53H2.91a.265.265 0 1 0 0-.53zM1.322 2.645a.265.265 0 1 0 0 .529H2.91a.265.265 0 1 0 0-.53zM12.166 1.055a.265.265 0 0 0-.26.267v.95l-.607-.608a.265.265 0 0 0-.19-.08.265.265 0 0 0-.183.455l.98.982v1.547l-1.341-.774-.36-1.339a.265.265 0 0 0-.25-.2.265.265 0 0 0-.26.337l.222.827-.82-.473a.265.265 0 0 0-.153-.038.265.265 0 0 0-.114.497l.821.473-.827.222a.265.265 0 0 0 .137.511l1.34-.358 1.34.774-1.34.774-1.34-.36a.265.265 0 0 0-.078-.01.265.265 0 0 0-.059.522l.83.222-.824.475a.265.265 0 1 0 .266.458l.821-.474-.221.83a.265.265 0 1 0 .51.136l.36-1.34 1.34-.774v1.547l-.98.98a.265.265 0 1 0 .373.376l.607-.608v.95a.265.265 0 1 0 .53 0v-.947l.605.605a.265.265 0 1 0 .375-.375l-.98-.979v-1.55l1.34.774.36 1.341a.265.265 0 1 0 .51-.137l-.221-.83.821.475a.265.265 0 1 0 .266-.458l-.823-.475.829-.222a.265.265 0 0 0-.067-.521.265.265 0 0 0-.07.01l-1.339.36-1.341-.775 1.34-.774 1.34.358a.265.265 0 1 0 .137-.511l-.827-.221.82-.474a.265.265 0 0 0-.148-.496.265.265 0 0 0-.117.037l-.821.474.222-.828a.265.265 0 0 0-.268-.338.265.265 0 0 0-.244.201l-.358 1.34-1.341.773V3.02l.98-.98a.265.265 0 0 0-.375-.375l-.605.605v-.947a.265.265 0 0 0-.27-.267z" fill="#3abeff"></path></g><path d="M5.82 1.059c-.185 0-.363.034-.529.092A1.588 1.588 0 0 1 6.35 2.645v8.464c.802.537 1.321 1.412 1.322 2.385 0 .924-.434 1.748-1.109 2.281a2.913 2.913 0 0 0 2.168-2.81c-.001-.973-.52-1.848-1.323-2.385V2.645c0-.875-.713-1.586-1.588-1.586z" fill="#d4d4e8"></path><path d="M5.82 11.64c-.188 0-.366.042-.529.114.466.206.793.672.793 1.211 0 .54-.327 1.004-.793 1.209.163.072.341.113.53.113.727 0 1.322-.594 1.322-1.322 0-.727-.595-1.324-1.323-1.324z" fill="#35ade8"></path></g></svg>