<svg viewBox="0 0 512.001 512.001" xmlns="http://www.w3.org/2000/svg"><g><path d="M104.201 329.599c-9.3.901-18.6 1.8-28.2 2.401-9.901.599-19.799.899-30 .899-8.401 0-15 6.601-15 15V493.4h90V344.599c0-9.299-8.401-16.199-16.8-15z" fill="#ff641a"></path><path d="M454.601 136.099c-6.599 7.5-12.599 14.7-18.6 21.301-11.4 13.2-23.401 25.499-39.901 40.8-3.3 2.701-5.099 6.899-5.099 11.1v284.1h90V145.699c0-13.8-17.401-20.099-26.4-9.6z" fill="#ffd400"></path><path d="M337.6 243.5a261.804 261.804 0 0 1-21.599 13.5c-12.001 7.5-24 14.399-36.599 20.7-5.101 2.399-8.401 7.5-8.401 13.2v202.5h90V256.099c0-12.299-13.5-19.2-23.401-12.599z" fill="#fdbf00"></path><path d="M512.001 15v60c0 8.399-6.599 15-15 15s-15-6.601-15-15V64.2l-59.2 66.4c-46.8 52.799-103.5 94.499-166.8 122.699a493.302 493.302 0 0 1-202.5 43.5c-13.801 0-25.815-.601-39.916-1.8-8.099-.601-14.399-7.8-13.499-16.199.599-8.101 7.798-14.702 16.199-13.5 84 7.2 165.616-9 239.715-45 54.3-26.4 103.5-63.3 144.3-109.501L472.1 30h-35.099c-8.401 0-15-6.601-15-15 0-8.401 6.599-15 15-15h60c8.401 0 15 6.599 15 15z" fill="#54e360"></path><path d="M220.902 302.3c-8.101 2.999-16.5 5.7-24.901 8.099-11.1 3.6-22.2 6.301-33.3 9-6.901 1.802-11.7 7.8-11.7 14.702v159.3h90V316.399c0-10.199-10.201-17.4-20.099-14.099z" fill="#ff9f00"></path><path d="M121.001 344.599V493.4h-45V332c9.6-.601 18.9-1.5 28.2-2.401 8.399-1.199 16.8 5.701 16.8 15z" fill="#ff4b00"></path><path d="M241.001 316.399V493.4h-45V310.399c8.401-2.399 16.8-5.099 24.901-8.099 9.898-3.301 20.099 3.9 20.099 14.099z" fill="#f77e00"></path><path d="M361.001 256.099V493.4h-45V257c7.5-4.2 14.7-8.701 21.599-13.5 9.901-6.601 23.401.3 23.401 12.599z" fill="#ff9f00"></path><path d="M481.001 145.699V493.4h-45v-336c6-6.601 12.001-13.801 18.6-21.301 8.999-10.499 26.4-4.2 26.4 9.6z" fill="#fdbf00"></path><path d="M512.001 15v60c0 8.399-6.599 15-15 15s-15-6.601-15-15V64.2l-59.2 66.4c-46.8 52.799-103.5 94.499-166.8 122.699V220.3c54.3-26.4 103.5-63.3 144.3-109.501L472.1 30h-35.099c-8.401 0-15-6.601-15-15 0-8.401 6.599-15 15-15h60c8.401 0 15 6.599 15 15z" fill="#00cc71"></path><path d="M512.001 497c0 8.399-6.599 15-15 15h-482c-8.401 0-15-6.601-15-15 0-8.401 6.599-15 15-15h482c8.401 0 15 6.599 15 15z" fill="#53433f"></path><path d="M512.001 497c0 8.399-6.599 15-15 15h-241v-30h241c8.401 0 15 6.599 15 15z" fill="#3e322e"></path></g></svg>