<svg viewBox="0 0 512 512" xmlns="http://www.w3.org/2000/svg"><g><path d="M431.667 354.645c-35.651 67.14-106.486 112.864-187.763 112.393-115.402-.669-209.417-94.931-209.795-210.334-.383-116.69 94.437-211.744 211.04-211.744 80.741 0 151.024 45.583 186.499 112.36 2.98 5.61 8.779 9.148 15.131 9.148 12.848 0 21.167-13.673 15.155-25.028-41.152-77.711-122.86-130.642-216.929-130.588C110.001 10.929 0 120.997 0 256.001c0 135.391 109.757 245.147 245.148 245.147 94.008 0 175.653-52.916 216.783-130.585 6.014-11.356-2.303-25.031-15.153-25.031h-.003c-6.337 0-12.136 3.515-15.108 9.113z" fill="#fd8087"></path><path d="M431.667 354.645c-35.651 67.14-106.486 112.864-187.763 112.393-115.402-.669-209.417-94.931-209.795-210.334-.383-116.69 94.437-211.744 211.04-211.744 80.741 0 151.024 45.583 186.499 112.36 2.98 5.61 8.779 9.148 15.131 9.148 12.848 0 21.167-13.673 15.155-25.028-41.152-77.711-122.86-130.642-216.929-130.588C110.001 10.929 0 120.997 0 256.001c0 135.391 109.757 245.147 245.148 245.147 94.008 0 175.653-52.916 216.783-130.585 6.014-11.356-2.303-25.031-15.153-25.031h-.003c-6.337 0-12.136 3.515-15.108 9.113z" fill="#fd8087"></path><g fill="#fe646f"><path d="M446.778 345.533h-.003c-6.337 0-12.137 3.515-15.109 9.112l-.11.203c-28.559 68.163-85.76 121.337-156.552 144.497 81.237-9.865 150.218-59.462 186.927-128.781 6.014-11.357-2.303-25.031-15.153-25.031zM431.556 157.15l.092.169c2.98 5.61 8.779 9.148 15.131 9.148 12.848 0 21.167-13.673 15.155-25.028C425.225 72.118 356.241 22.518 275.001 12.654c70.793 23.158 127.995 76.333 156.555 144.496z" fill="#fe646f"></path></g><path d="M494.946 238.946h-23.449v-23.449c0-9.419-7.635-17.054-17.054-17.054-9.419 0-17.054 7.635-17.054 17.054v23.449H413.94c-9.419 0-17.054 7.635-17.054 17.054 0 9.419 7.635 17.054 17.054 17.054h23.449v23.449c0 9.419 7.635 17.054 17.054 17.054 9.419 0 17.054-7.635 17.054-17.054v-23.449h23.449c9.419 0 17.054-7.635 17.054-17.054 0-9.419-7.635-17.054-17.054-17.054z" fill="#685e68"></path><g fill="#7a6d79"><path d="M160.351 145.691h-40.037c-9.196 0-16.65 7.455-16.65 16.65s7.455 16.65 16.65 16.65h23.387v170.667c0 9.196 7.455 16.65 16.65 16.65 9.196 0 16.65-7.455 16.65-16.65V162.341c.001-9.195-7.454-16.65-16.65-16.65zM331.726 238.723c8.625-9.873 13.861-22.781 13.861-36.89 0-30.956-25.185-56.141-56.142-56.141-30.956 0-56.141 25.185-56.141 56.141 0 14.107 5.236 27.009 13.859 36.882-17.309 12.923-28.535 33.564-28.535 56.777 0 39.049 31.769 70.818 70.818 70.818s70.818-31.769 70.818-70.818c-.001-23.213-11.231-43.846-28.538-56.769zm-42.281-59.731c12.595 0 22.841 10.246 22.841 22.84s-10.246 22.841-22.841 22.841-22.84-10.246-22.84-22.841 10.246-22.84 22.84-22.84zm0 154.016c-20.687 0-37.517-16.83-37.517-37.517s16.83-37.517 37.517-37.517 37.517 16.83 37.517 37.517-16.83 37.517-37.517 37.517z" fill="#7a6d79"></path></g></g></svg>