<svg viewBox="0 0 64 64" xmlns="http://www.w3.org/2000/svg"><g><path d="M40 33h-2a5.006 5.006 0 0 0-5-5v-2a7.008 7.008 0 0 1 7 7z" fill="#2d3142"></path><path d="M39 33v-2a4 4 0 0 1 4-4v2a4 4 0 0 1-4 4z" fill="#e9ff70"></path><path d="M45.49 45.02a6.246 6.246 0 0 0 .51-1.51l.88-4.48c.72-3.64-1.87-6.87-5.06-6.87a4.726 4.726 0 0 0-1.27.17 4.652 4.652 0 0 1-2.51 0l-.59-.16c-3.58-.97-6.92 2.32-6.4 6.31l.61 4.65A5.358 5.358 0 0 0 36.79 48h4.14a4.847 4.847 0 0 0 1.38-.2z" fill="#ff6b6b"></path><path d="M36 40h-2a5.006 5.006 0 0 1 5-5v2a3 3 0 0 0-3 3z" fill="#b7b7a4"></path><path d="M31.01 17.71A9 9 0 1 0 28 11a9.078 9.078 0 0 0 .22 1.97z" fill="#f9c74f"></path><path d="M37 10a1 1 0 1 1 1-1h2a3 3 0 0 0-2-2.816V5h-2v1.184A2.993 2.993 0 0 0 37 12a1 1 0 1 1-1 1h-2a3 3 0 0 0 2 2.816V17h2v-1.184A2.993 2.993 0 0 0 37 10z" fill="#2d3142"></path><path d="m56.427 48.821-8.799 8.069L53.201 62 62 53.931z" fill="#5c677d"></path><path d="M53.6 47.577a10.382 10.382 0 0 0-8.391-2.526l-3.249-.978a1.736 1.736 0 0 0-1.657.367 1.407 1.407 0 0 0 .232 2.282l2.552 1.553 4.2 1.263A17.99 17.99 0 0 1 33.1 47.282l-1.921-1.253a2.143 2.143 0 0 0-2.58.209 1.736 1.736 0 0 0 .17 2.746l3.594 2.556a24.928 24.928 0 0 0 16.29 4.415l7.046-6.461z" fill="#fec3a6"></path><path d="M12 23H2V9h10z" fill="#5c677d"></path><path d="M32 15.56a2.835 2.835 0 0 1-1.186 2.31c-.01.01-.03.02-.039.03l-6.03 4.1H12V10h2.941l3.922-4h10.313a9.069 9.069 0 0 0-1.49 5 9.626 9.626 0 0 0 .108 1.42L21.8 17l5.99-3.82a.445.445 0 0 1 .137-.07 2.683 2.683 0 0 1 3.265.47A2.824 2.824 0 0 1 32 15.56z" fill="#fec3a6"></path></g></svg>