<svg id="Layer_1" height="512" viewBox="0 0 256 256" width="512" xmlns="http://www.w3.org/2000/svg"><g><g><g><g><path d="m57.255 70.814h-12.92c-11.972 0-21.677 9.705-21.677 21.677v13.638c0 1.269 1.028 2.297 2.297 2.297h51.68c1.269 0 2.297-1.028 2.297-2.297v-13.638c.001-11.972-9.705-21.677-21.677-21.677z" fill="#478cf7"/></g><g><path d="m66.842 73.044c1.428 2.89 2.23 6.145 2.23 9.586v13.638c0 1.269-1.028 2.297-2.297 2.297h-44.117v7.564c0 1.269 1.028 2.297 2.297 2.297h51.68c1.269 0 2.297-1.028 2.297-2.297v-13.638c0-8.53-4.927-15.909-12.09-19.447z" fill="#377de2"/></g><g><ellipse cx="50.795" cy="61.052" fill="#fcc4ae" rx="18.088" ry="18.088" transform="matrix(.23 -.973 .973 .23 -20.294 96.462)"/></g><g><path d="m28.66 105.7c-1.11 0-2-.89-2-2v-11.21c0-3.33.93-6.58 2.71-9.4 1.459-2.152 4.742-.119 3.38 2.14-1.37 2.17-2.09 4.69-2.09 7.26v11.21c0 1.11-.9 2-2 2zm8.16-24.96c-2.028.034-2.757-2.821-.96-3.76 3.05-1.339 4.282 3.501.96 3.76z" fill="#5e9cf7"/></g><g><path d="m57.67 44.316c.872 2.12 1.352 4.441 1.352 6.875 0 9.99-8.098 18.088-18.088 18.088-2.434 0-4.755-.481-6.875-1.352 2.706 6.58 9.18 11.213 16.736 11.213 9.99 0 18.088-8.098 18.088-18.088.001-7.556-4.632-14.03-11.213-16.736z" fill="#f2ad97"/></g></g><g><g><path d="m134.46 70.814h-12.92c-11.972 0-21.677 9.705-21.677 21.677v13.638c0 1.269 1.028 2.297 2.297 2.297h51.68c1.269 0 2.297-1.028 2.297-2.297v-13.638c0-11.972-9.705-21.677-21.677-21.677z" fill="#f79219"/></g><g><path d="m144.046 73.044c1.428 2.89 2.23 6.145 2.23 9.586v13.638c0 1.269-1.028 2.297-2.297 2.297h-44.116v7.564c0 1.269 1.028 2.297 2.297 2.297h51.68c1.269 0 2.297-1.028 2.297-2.297v-13.638c0-8.53-4.927-15.909-12.091-19.447z" fill="#ef7816"/></g><g><ellipse cx="128" cy="61.052" fill="#fcc4ae" rx="18.088" ry="18.088" transform="matrix(.23 -.973 .973 .23 39.173 171.601)"/></g><g><path d="m134.875 44.316c.872 2.12 1.352 4.441 1.352 6.875 0 9.99-8.098 18.088-18.088 18.088-2.434 0-4.755-.481-6.875-1.352 2.706 6.58 9.18 11.213 16.736 11.213 9.99 0 18.088-8.098 18.088-18.088 0-7.556-4.633-14.03-11.213-16.736z" fill="#f2ad97"/></g></g><g><g><path d="m211.665 70.814h-12.92c-11.972 0-21.677 9.705-21.677 21.677v13.638c0 1.269 1.028 2.297 2.297 2.297h51.68c1.269 0 2.297-1.028 2.297-2.297v-13.638c0-11.972-9.705-21.677-21.677-21.677z" fill="#8c3f0a"/></g><g><path d="m221.251 73.044c1.428 2.89 2.23 6.145 2.23 9.586v13.638c0 1.269-1.028 2.297-2.297 2.297h-44.117v7.564c0 1.269 1.028 2.297 2.297 2.297h51.68c1.269 0 2.297-1.028 2.297-2.297v-13.638c.001-8.53-4.927-15.909-12.09-19.447z" fill="#7c3108"/></g><g><ellipse cx="205.205" cy="61.052" fill="#fcc4ae" rx="18.088" ry="18.088" transform="matrix(.23 -.973 .973 .23 98.64 246.74)"/></g><g><path d="m212.08 44.316c.872 2.12 1.352 4.441 1.352 6.875 0 9.99-8.098 18.088-18.088 18.088-2.434 0-4.755-.481-6.875-1.352 2.706 6.58 9.18 11.213 16.736 11.213 9.99 0 18.088-8.098 18.088-18.088 0-7.556-4.633-14.03-11.213-16.736z" fill="#f2ad97"/></g></g><g><g><g><path d="m95.858 98.664h-12.92c-11.972 0-21.677 9.705-21.677 21.677v13.638c0 1.269 1.028 2.297 2.297 2.297h51.68c1.269 0 2.297-1.028 2.297-2.297v-13.638c0-11.972-9.706-21.677-21.677-21.677z" fill="#e63950"/></g><g><path d="m105.444 100.894c1.428 2.89 2.23 6.145 2.23 9.586v13.638c0 1.269-1.028 2.297-2.297 2.297h-44.117v7.564c0 1.269 1.028 2.297 2.297 2.297h51.68c1.269 0 2.297-1.028 2.297-2.297v-13.638c.001-8.53-4.927-15.909-12.09-19.447z" fill="#d10028"/></g><g><ellipse cx="89.397" cy="88.902" fill="#fcc4ae" rx="18.088" ry="18.088" transform="matrix(.23 -.973 .973 .23 -17.666 155.483)"/></g><g><path d="m96.273 72.166c.872 2.12 1.352 4.441 1.352 6.875 0 9.99-8.098 18.088-18.088 18.088-2.434 0-4.755-.481-6.875-1.352 2.706 6.58 9.18 11.213 16.736 11.213 9.99 0 18.088-8.098 18.088-18.088 0-7.556-4.633-14.029-11.213-16.736z" fill="#f2ad97"/></g></g><g><g><path d="m173.062 98.664h-12.92c-11.972 0-21.677 9.705-21.677 21.677v13.638c0 1.269 1.028 2.297 2.297 2.297h51.68c1.269 0 2.297-1.028 2.297-2.297v-13.638c0-11.972-9.705-21.677-21.677-21.677z" fill="#58595b"/></g><g><path d="m182.554 100.85c1.399 2.867 2.186 6.087 2.186 9.491v13.638c0 1.269-1.028 2.296-2.297 2.296h-43.977v7.704c0 1.269 1.028 2.296 2.297 2.296h51.68c1.269 0 2.297-1.028 2.297-2.296v-13.638c-.001-8.567-4.972-15.972-12.186-19.491z" fill="#414042"/></g><g><ellipse cx="166.602" cy="88.902" fill="#fcc4ae" rx="18.088" ry="18.088" transform="matrix(.23 -.973 .973 .23 41.801 230.622)"/></g><g><path d="m173.477 72.166c.872 2.12 1.352 4.441 1.352 6.875 0 9.99-8.098 18.088-18.088 18.088-2.434 0-4.755-.481-6.875-1.352 2.706 6.58 9.18 11.213 16.736 11.213 9.99 0 18.088-8.098 18.088-18.088 0-7.556-4.633-14.029-11.213-16.736z" fill="#f2ad97"/></g></g></g></g><g><g><g><path d="m57.255 147.574h-12.92c-11.972 0-21.677 9.705-21.677 21.677v13.638c0 1.269 1.028 2.297 2.297 2.297h51.68c1.269 0 2.297-1.028 2.297-2.297v-13.638c.001-11.972-9.705-21.677-21.677-21.677z" fill="#8c3f0a"/></g><g><path d="m66.842 149.804c1.428 2.89 2.23 6.145 2.23 9.586v13.638c0 1.269-1.028 2.297-2.297 2.297h-44.117v7.564c0 1.269 1.028 2.297 2.297 2.297h51.68c1.269 0 2.297-1.028 2.297-2.297v-13.638c0-8.53-4.927-15.909-12.09-19.447z" fill="#7c3108"/></g><g><ellipse cx="50.795" cy="137.812" fill="#fcc4ae" rx="18.088" ry="18.088" transform="matrix(.23 -.973 .973 .23 -95.001 155.586)"/></g><g><path d="m57.67 121.077c.872 2.12 1.352 4.441 1.352 6.875 0 9.99-8.098 18.088-18.088 18.088-2.434 0-4.755-.481-6.875-1.352 2.706 6.58 9.18 11.213 16.736 11.213 9.99 0 18.088-8.098 18.088-18.088.001-7.557-4.632-14.03-11.213-16.736z" fill="#f2ad97"/></g></g><g><g><path d="m134.46 147.574h-12.92c-11.972 0-21.677 9.705-21.677 21.677v13.638c0 1.269 1.028 2.297 2.297 2.297h51.68c1.269 0 2.297-1.028 2.297-2.297v-13.638c0-11.972-9.705-21.677-21.677-21.677z" fill="#76a34f"/></g><g><path d="m144.046 149.804c1.428 2.89 2.23 6.145 2.23 9.586v13.638c0 1.269-1.028 2.297-2.297 2.297h-44.116v7.564c0 1.269 1.028 2.297 2.297 2.297h51.68c1.269 0 2.297-1.028 2.297-2.297v-13.638c0-8.53-4.927-15.909-12.091-19.447z" fill="#648940"/></g><g><ellipse cx="128" cy="137.812" fill="#fcc4ae" rx="18.088" ry="18.088" transform="matrix(.23 -.973 .973 .23 -35.534 230.726)"/></g><g><path d="m134.875 121.077c.872 2.12 1.352 4.441 1.352 6.875 0 9.99-8.098 18.088-18.088 18.088-2.434 0-4.755-.481-6.875-1.352 2.706 6.58 9.18 11.213 16.736 11.213 9.99 0 18.088-8.098 18.088-18.088 0-7.557-4.633-14.03-11.213-16.736z" fill="#f2ad97"/></g></g><g><g><path d="m211.665 147.574h-12.92c-11.972 0-21.677 9.705-21.677 21.677v13.638c0 1.269 1.028 2.297 2.297 2.297h51.68c1.269 0 2.297-1.028 2.297-2.297v-13.638c0-11.972-9.705-21.677-21.677-21.677z" fill="#478cf7"/></g><g><path d="m221.251 149.804c1.428 2.89 2.23 6.145 2.23 9.586v13.638c0 1.269-1.028 2.297-2.297 2.297h-44.117v7.564c0 1.269 1.028 2.297 2.297 2.297h51.68c1.269 0 2.297-1.028 2.297-2.297v-13.638c.001-8.53-4.927-15.909-12.09-19.447z" fill="#377de2"/></g><g><ellipse cx="205.205" cy="137.812" fill="#fcc4ae" rx="18.088" ry="18.088" transform="matrix(.23 -.973 .973 .23 23.933 305.865)"/></g><g><path d="m212.08 121.077c.872 2.12 1.352 4.441 1.352 6.875 0 9.99-8.098 18.088-18.088 18.088-2.434 0-4.755-.481-6.875-1.352 2.706 6.58 9.18 11.213 16.736 11.213 9.99 0 18.088-8.098 18.088-18.088 0-7.557-4.633-14.03-11.213-16.736z" fill="#f2ad97"/></g></g><g><g><g><path d="m95.858 175.424h-12.92c-11.972 0-21.677 9.705-21.677 21.677v13.638c0 1.269 1.028 2.297 2.297 2.297h51.68c1.269 0 2.297-1.028 2.297-2.297v-13.638c0-11.971-9.706-21.677-21.677-21.677z" fill="#58595b"/></g><g><path d="m105.444 177.654c1.428 2.89 2.23 6.145 2.23 9.586v13.638c0 1.269-1.028 2.297-2.297 2.297h-44.117v7.564c0 1.269 1.028 2.297 2.297 2.297h51.68c1.269 0 2.297-1.028 2.297-2.297v-13.638c.001-8.53-4.927-15.909-12.09-19.447z" fill="#414042"/></g><g><ellipse cx="89.397" cy="165.662" fill="#fcc4ae" rx="18.088" ry="18.088" transform="matrix(.23 -.973 .973 .23 -92.373 214.607)"/></g><g><path d="m96.273 148.927c.872 2.12 1.352 4.441 1.352 6.875 0 9.99-8.098 18.088-18.088 18.088-2.434 0-4.755-.481-6.875-1.352 2.706 6.58 9.18 11.213 16.736 11.213 9.99 0 18.088-8.098 18.088-18.088 0-7.557-4.633-14.03-11.213-16.736z" fill="#f2ad97"/></g></g><g><g><path d="m173.062 175.424h-12.92c-11.972 0-21.677 9.705-21.677 21.677v13.638c0 1.269 1.028 2.297 2.297 2.297h51.68c1.269 0 2.297-1.028 2.297-2.297v-13.638c0-11.971-9.705-21.677-21.677-21.677z" fill="#e63950"/></g><g><path d="m182.554 177.61c1.399 2.867 2.186 6.087 2.186 9.491v13.638c0 1.269-1.028 2.296-2.297 2.296h-43.977v7.704c0 1.269 1.028 2.296 2.297 2.296h51.68c1.269 0 2.297-1.028 2.297-2.296v-13.638c-.001-8.567-4.972-15.971-12.186-19.491z" fill="#d10028"/></g><g><path d="m185.682 179.482c2.551 3.555 4.057 7.91 4.057 12.62v13.638c0 1.269-1.028 2.296-2.297 2.296h-48.977v2.704c0 1.269 1.028 2.296 2.297 2.296h51.68c1.269 0 2.297-1.028 2.297-2.296v-13.638c0-7.263-3.575-13.687-9.057-17.62z" fill="#b7022d"/></g><g><ellipse cx="166.602" cy="165.662" fill="#fcc4ae" rx="18.088" ry="18.088" transform="matrix(.23 -.973 .973 .23 -32.906 289.747)"/></g><g><path d="m173.477 148.927c.872 2.12 1.352 4.441 1.352 6.875 0 9.99-8.098 18.088-18.088 18.088-2.434 0-4.755-.481-6.875-1.352 2.706 6.58 9.18 11.213 16.736 11.213 9.99 0 18.088-8.098 18.088-18.088 0-7.557-4.633-14.03-11.213-16.736z" fill="#f2ad97"/></g></g></g></g></g></svg>