<svg class="" viewBox="0 0 510 510" xmlns="http://www.w3.org/2000/svg"><g><path d="M227.215 80.358C199.58 91.424 180 118.46 180 150l-7.5 8.667L180 165l33.667 15L255 165l10.333-34.821L255 90z" fill="#ecbd2c"></path><path d="M330 150c0-31.54-19.58-58.576-47.215-69.642L255 90v75l36 12 39-12 7.667-7.333z" fill="#e58f22"></path><path d="M377.215 80.358C349.58 91.424 330 118.46 330 150v15l33.667 15L405 165l10.333-34.821L405 90z" fill="#a1e2f8"></path><path d="M480 150c0-31.54-19.58-58.576-47.215-69.642L405 90v75l36 12 39-12z" fill="#7ebee3"></path><path class="" d="M77.215 80.358C49.58 91.424 30 118.46 30 150v15l33.667 15L105 165l10.333-34.821L105 90z" fill="#fc6565"></path><path d="M180 150c0-31.54-19.58-58.576-47.215-69.642L105 90v75l36 12 39-12z" fill="#ff405c"></path><path class="" d="M210 45c0 24.812 20.186 45 45 45l12.857-45L255 0c-24.812 0-45 20.186-45 45z" fill="#c05c4b"></path><path class="" d="M300 45c0-24.812-20.186-45-45-45v90c24.812 0 45-20.186 45-45z" fill="#8b3e2a"></path><path d="M60 45c0 24.812 20.186 45 45 45l12.857-45L105 0C80.188 0 60 20.186 60 45z" fill="#ffddce"></path><path d="M150 45c0-24.812-20.186-45-45-45v90c24.812 0 45-20.186 45-45zM360 45c0 24.812 20.185 45 45 45l12.857-45L405 0c-24.812 0-45 20.186-45 45z" fill="#ffcbbc"></path><path d="M450 45c0-24.812-20.186-45-45-45v90c24.812 0 45-20.186 45-45z" fill="#ffbca7"></path><path class="" d="M30 165 0 188.787V210l127.5 15L255 210l15-22.5-15-22.5H30z" fill="#c05c4b"></path><path class="" d="M510 188.787 480 165H255v45l127.5 15L510 210v-21.213zM0 210v30h255l15-15-15-15H0z" fill="#8b3e2a"></path><path d="M510 210H255v30h255v-30z" fill="#551f09"></path><path class="" d="M227.215 350.358C199.58 361.424 180 388.46 180 420l-7.5 8.667L180 435l33.667 15L255 435l10.333-34.821L255 360z" fill="#fc6565"></path><path d="M330 420c0-31.54-19.58-58.576-47.215-69.642L255 360v75l36 12 39-12 7.667-7.333z" fill="#ff405c"></path><path d="M377.215 350.358C349.58 361.424 330 388.46 330 420v15l33.667 15L405 435l10.333-34.821L405 360z" fill="#d0e36d"></path><path d="M480 420c0-31.54-19.58-58.576-47.215-69.642L405 360v75l36 12 39-12z" fill="#80d385"></path><path d="M77.215 350.358C49.58 361.424 30 388.46 30 420v15l33.667 15L105 435l10.333-34.821L105 360z" fill="#a1e2f8"></path><path d="M180 420c0-31.54-19.58-58.576-47.215-69.642L105 360v75l36 12 39-12z" fill="#7ebee3"></path><path d="M210 315c0 24.812 20.186 45 45 45l12.857-45L255 270c-24.812 0-45 20.186-45 45z" fill="#ffcbbc"></path><path d="M300 315c0-24.812-20.186-45-45-45v90c24.812 0 45-20.186 45-45z" fill="#ffbca7"></path><path class="" d="M60 315c0 24.812 20.186 45 45 45l12.857-45L105 270c-24.812 0-45 20.186-45 45z" fill="#c05c4b"></path><path class="" d="M150 315c0-24.812-20.186-45-45-45v90c24.812 0 45-20.186 45-45z" fill="#8b3e2a"></path><path d="M360 315c0 24.812 20.185 45 45 45l12.857-45L405 270c-24.812 0-45 20.186-45 45z" fill="#ffddce"></path><path d="M450 315c0-24.812-20.186-45-45-45v90c24.812 0 45-20.186 45-45z" fill="#ffcbbc"></path><path class="" d="M30 435 0 458.787V480l127.5 15L255 480l15-22.5-15-22.5H30z" fill="#c05c4b"></path><path class="" d="M510 458.787 480 435H255v45l127.5 15L510 480v-21.213zM0 480v30h255l15-15-15-15H0z" fill="#8b3e2a"></path><path d="M510 480H255v30h255v-30z" fill="#551f09"></path></g></svg>