<svg viewBox="0 0 512 512" xmlns="http://www.w3.org/2000/svg"><g><path d="M469.496 321.04a16.05 16.05 0 0 1 9.042 2.778l.385-1.07L250.658 190.96H64.5c-7.97 0-14.453-6.483-14.453-14.453h-.998c.016 5.324 2.771 10.496 7.714 13.349L283.979 321.04z" fill="#e8b800"></path><path d="M337.51 321.04 112.204 190.96H64.5c-7.97 0-14.453-6.483-14.453-14.453h-.998c.016 5.324 2.771 10.496 7.714 13.349L283.979 321.04z" fill="#d7aa02"></path><path d="m130.636 190.96-17.99 31.16 12.99 7.5 22.32-38.66zM180.091 191.96a7.473 7.473 0 0 0 3.497 4.567 7.495 7.495 0 0 0 10.245-2.746l1.052-1.822h-14.794zM225.071 191.96l-8.599 14.893a7.5 7.5 0 0 0 12.99 7.5l12.929-22.393zM267.531 200.702l-47.996 83.131 12.99 7.5 47.997-83.131v-.001zM303.161 221.273l-15.429 26.722a7.5 7.5 0 0 0 12.99 7.5l15.429-26.722zM338.79 241.843l-15.428 26.722a7.5 7.5 0 0 0 12.99 7.5l15.428-26.722zM357.892 321.04l29.517-51.126.001-.001-12.99-7.499h-.001l-33.848 58.626z" fill="#9e5528"></path><path d="M501.698 191.96H64.5c-8.535 0-15.453-6.919-15.453-15.453V106.27c0-5.689 4.612-10.302 10.303-10.302h442.349c5.689 0 10.302 4.613 10.302 10.302v75.389c-.001 5.689-4.613 10.301-10.303 10.301z" fill="#fed402"></path><path d="M90.77 165.69c-8.535 0-15.453-6.918-15.453-15.453v-54.27H59.35c-5.69 0-10.303 4.613-10.303 10.302v70.237c0 8.534 6.918 15.453 15.453 15.453h437.198c5.689 0 10.302-4.612 10.302-10.302V165.69z" fill="#fac600"></path><g fill="#d77f4a"><path d="M95.387 134.324a7.5 7.5 0 0 0 7.5-7.5V95.968h-15v30.856a7.5 7.5 0 0 0 7.5 7.5zM136.528 158.385a7.5 7.5 0 0 0 7.5-7.5V95.968h-15v54.917a7.5 7.5 0 0 0 7.5 7.5zM177.67 134.324a7.5 7.5 0 0 0 7.5-7.5V95.968h-15v30.856a7.5 7.5 0 0 0 7.5 7.5zM218.811 134.324a7.5 7.5 0 0 0 7.5-7.5V95.968h-15v30.856a7.5 7.5 0 0 0 7.5 7.5zM259.953 158.385a7.5 7.5 0 0 0 7.5-7.5V95.968h-15v54.917a7.5 7.5 0 0 0 7.5 7.5zM301.095 134.324a7.5 7.5 0 0 0 7.5-7.5V95.968h-15v30.856a7.5 7.5 0 0 0 7.5 7.5zM342.235 134.324a7.5 7.5 0 0 0 7.5-7.5V95.968h-15v30.856a7.5 7.5 0 0 0 7.5 7.5zM383.377 158.385a7.5 7.5 0 0 0 7.5-7.5V95.968h-15v54.917a7.5 7.5 0 0 0 7.5 7.5zM424.52 134.324a7.5 7.5 0 0 0 7.5-7.5V95.968h-15v30.856a7.5 7.5 0 0 0 7.5 7.5zM465.66 158.385a7.5 7.5 0 0 0 7.5-7.5V95.968h-15v54.917a7.5 7.5 0 0 0 7.5 7.5z" fill="#d77f4a"></path></g><path d="M68.427 320.04H11.43C5.117 320.04 0 325.157 0 331.47v73.132c0 6.313 5.117 11.43 11.43 11.43h56.997z" fill="#766e6e"></path><path d="M39.508 389.763c-.54 3.762-3.863 6.625-7.821 6.415-3.858-.204-7.015-3.476-7.092-7.339a7.452 7.452 0 0 1 1.456-4.579 11.349 11.349 0 0 1-1.67-5.925V320.04H11.43C5.117 320.04 0 325.157 0 331.47v73.134c0 6.311 5.116 11.428 11.428 11.428h56.999v-26.27H39.508z" fill="#5b5555"></path><path d="M475.21 416.032H67.427V320.04h402.069c9.468 0 17.142 7.675 17.142 17.143v67.421c0 6.313-5.116 11.428-11.428 11.428z" fill="#fed402"></path><path d="M93.696 389.763V320.04H67.427v95.992H475.21c6.313 0 11.428-5.116 11.428-11.428v-14.842H93.696z" fill="#fac600"></path><path d="M111.166 382.459a7.5 7.5 0 0 0 7.5-7.5V320.04h-15v54.919a7.5 7.5 0 0 0 7.5 7.5zM152.308 358.396a7.5 7.5 0 0 0 7.5-7.5V320.04h-15v30.856c0 4.143 3.357 7.5 7.5 7.5zM193.449 358.396a7.5 7.5 0 0 0 7.5-7.5V320.04h-15v30.856a7.5 7.5 0 0 0 7.5 7.5zM234.591 382.459a7.5 7.5 0 0 0 7.5-7.5V320.04h-15v54.919a7.5 7.5 0 0 0 7.5 7.5zM275.732 358.396a7.5 7.5 0 0 0 7.5-7.5V320.04h-15v30.856a7.5 7.5 0 0 0 7.5 7.5zM316.874 358.396a7.5 7.5 0 0 0 7.5-7.5V320.04h-15v30.856c0 4.143 3.357 7.5 7.5 7.5zM358.016 382.459a7.5 7.5 0 0 0 7.5-7.5V320.04h-15v54.919a7.5 7.5 0 0 0 7.5 7.5zM399.157 358.396a7.5 7.5 0 0 0 7.5-7.5V320.04h-15v30.856a7.5 7.5 0 0 0 7.5 7.5zM440.299 382.459a7.5 7.5 0 0 0 7.5-7.5V320.04h-15v54.919a7.5 7.5 0 0 0 7.5 7.5z" fill="#d77f4a"></path><path d="M39.594 347.384c0 4.143-3.356 7.5-7.499 7.5a7.5 7.5 0 1 1 0-15 7.5 7.5 0 0 1 7.499 7.5zM39.594 388.689a7.5 7.5 0 1 1-15 0 7.5 7.5 0 0 1 15 0z" fill="#b9acac"></path></g></svg>