<svg viewBox="0 0 512 512" xmlns="http://www.w3.org/2000/svg"><g><path d="m283.46 456.988 50.18-19.453a2684.007 2684.007 0 0 0 15.243 16.692c12.816 13.941 34.808 13.937 47.629 0a2865.763 2865.763 0 0 0 15.515-16.997l51.012 19.758s6.164 2.543 12.262 8.602C498.078 440.87 512 407.86 512 371.594c0-76.633-62.121-138.75-138.75-138.75s-138.75 62.12-138.75 138.75c0 36.265 13.918 69.277 36.7 93.996 6.097-6.059 12.26-8.602 12.26-8.602zm0 0" fill="#00aaf0"></path><path d="m283.46 456.988 12.786-4.957c-16.172-22.691-25.687-50.453-25.687-80.437 0-70.52 52.609-128.75 120.718-137.586a139.328 139.328 0 0 0-18.027-1.168c-76.629 0-138.75 62.12-138.75 138.75 0 36.27 13.918 69.281 36.7 94 6.097-6.059 12.26-8.602 12.26-8.602zm0 0" fill="#059adb"></path><g fill="#ffc850"><path d="M417.629 177.168a7.716 7.716 0 0 1-6.59-3.684l-3.418-5.558c-24.738-41.403-65.586-71.653-112.121-83.074a7.722 7.722 0 0 1-5.66-9.344 7.725 7.725 0 0 1 9.344-5.664c50.52 12.402 94.859 45.23 121.656 90.074l3.363 5.477a7.726 7.726 0 0 1-2.539 10.628 7.7 7.7 0 0 1-4.035 1.145zM220.508 454.031c-.43 0-.863-.035-1.301-.11-61.363-10.405-114.656-49.956-142.59-105.808l-3.137-5.586a7.726 7.726 0 0 1 2.95-10.52 7.726 7.726 0 0 1 10.523 2.95l3.23 5.75c.063.11.122.223.18.336 25.715 51.543 74.848 88.047 131.43 97.64a7.726 7.726 0 0 1 6.324 8.91 7.733 7.733 0 0 1-7.61 6.438zm0 0" fill="#ffc850"></path><path d="m446.766 158.938-8.84 50.89c-.668 3.832-5.051 5.719-8.293 3.57l-43.055-28.53c-3.57-2.364-3.09-7.75.844-9.446l51.894-22.36c3.938-1.695 8.18 1.657 7.45 5.875zm0 0" fill="#ffc850"></path></g><path d="M420.918 184.867c-3.57-2.363-3.09-7.75.848-9.445l23.925-10.309 1.075-6.175c.73-4.22-3.512-7.57-7.446-5.875l-51.898 22.359c-3.934 1.695-4.414 7.082-.844 9.445l43.055 28.531c3.246 2.149 7.625.262 8.293-3.574l2.133-12.273zm0 0" fill="#feb644"></path><path d="m53.145 348.398 8.84-50.886c.667-3.836 5.046-5.723 8.292-3.575l43.055 28.532c3.57 2.367 3.09 7.75-.844 9.445l-51.894 22.36c-3.938 1.695-8.184-1.653-7.45-5.876zm0 0" fill="#ffc850"></path><path d="m94.195 309.79-23.918-15.853c-3.246-2.148-7.625-.257-8.293 3.575l-8.84 50.886c-.734 4.223 3.512 7.57 7.446 5.875l27.969-12.05zm0 0" fill="#feb644"></path><path d="m463.04 454.926-51.017-19.754a2737.852 2737.852 0 0 1-15.515 16.992c-12.817 13.941-34.809 13.941-47.63 0a2810.124 2810.124 0 0 1-15.237-16.691l-50.18 19.453s-6.844 2.816-13.238 9.597c25.394 28.133 62.144 45.817 103.027 45.817s77.629-17.684 103.023-45.817c-6.394-6.78-13.234-9.597-13.234-9.597zm0 0" fill="#e4eaf8"></path><path d="M391.262 509.176c-39.828-5.172-74.344-27.239-96.149-58.766l-11.652 4.516s-6.844 2.816-13.234 9.597c26.086 28.903 63.207 45.82 103.023 45.82 5.93 0 12.23-.417 18.012-1.167zm0 0" fill="#d8dce5"></path><path d="M401.117 430.945a5.106 5.106 0 0 1-3.262-4.757V406.39a43.082 43.082 0 0 1-24.535 7.64c-9.523 0-17.894-2.617-24.746-6.992v19.149a5.102 5.102 0 0 1-3.258 4.757l-12.847 4.98a2764.173 2764.173 0 0 0 16.41 17.99c12.816 13.937 34.816 13.937 47.633-.005a2609.263 2609.263 0 0 0 16.683-18.289zm0 0" fill="#f0a479"></path><path d="M378.34 413.742c-1.645.192-3.32.29-5.02.29-9.523 0-17.894-2.618-24.746-6.993v19.149a5.102 5.102 0 0 1-3.258 4.757l-12.847 4.98a2764.173 2764.173 0 0 0 16.41 17.99c7.8 8.48 19 11.792 29.46 9.948zm0 0" fill="#e5966e"></path><path d="M329.762 343.957v-2.8c0-2.337 1.996-4.184 4.304-4.009 22.801 1.637 44.989-4.59 62.532-16.05a4.016 4.016 0 0 1 5.136.625c14.996 16.12 13.891 14.484 13.891 16.59v5.589c5.766-.37 12.227 1.73 16.031 5.258v-24.98c0-32.567-26.398-58.965-58.965-58.965s-58.968 26.398-58.968 58.965v25.453c4.011-3.66 10.715-5.852 16.039-5.676zm0 0" fill="#5e6377"></path><path d="M341.91 324.18c0-27.707 19.117-50.938 44.875-57.258a59.002 59.002 0 0 0-14.094-1.707c-32.566 0-58.964 26.398-58.964 58.965v25.453c4.007-3.66 10.71-5.852 16.035-5.676v-2.8c0-2.337 1.996-4.184 4.304-4.009 2.625.192 5.243.262 7.844.247zm0 0" fill="#52586d"></path><path d="M416.344 340.855v32.48c0 .411-.02.817-.031 1.224 10.921.718 20.683-7.211 20.683-16.848 0-9.656-9.766-17.55-20.652-16.856zM329.29 373.336V340.91c-9.833-.316-20.903 7.031-20.903 16.797 0 9.625 9.867 17.57 20.933 16.852-.011-.407-.03-.817-.03-1.223zm0 0" fill="#f0a479"></path><path d="M431.664 346.219c-3.863-3.582-9.418-5.739-15.32-5.364v32.48c0 .411-.02.817-.031 1.224 5.921.39 11.484-1.778 15.351-5.364zM329.29 369.387c-3.427-3.051-5.58-7.18-5.58-11.68 0-4.383 2.231-8.273 5.58-11.21v-5.587c-9.833-.316-20.903 7.031-20.903 16.797 0 9.625 9.867 17.57 20.933 16.852-.011-.407-.03-.817-.03-1.223zm0 0" fill="#e5966e"></path><path d="M401.734 317.66a4.016 4.016 0 0 0-5.136-.625c-17.543 11.461-40.746 18.703-63.543 17.067-2.313-.176-4.309 1.671-4.309 4.007v35.227c0 22.64 17.738 43.32 44.574 43.32 23.887 0 43.32-19.433 43.32-43.32v-38.07c0-2.106.09-1.485-14.906-17.606zm0 0" fill="#f7b594"></path><path d="M357.121 373.336V332.69c-7.894 1.438-16.004 1.989-24.066 1.41-2.313-.175-4.309 1.669-4.309 4.004v35.23c0 22.642 17.738 43.321 44.574 43.321 4.801 0 9.418-.797 13.739-2.246-18.454-5.933-29.938-22.863-29.938-41.074zm0 0" fill="#f0a479"></path><path d="m48.96 224.145 50.18-19.454a2800.01 2800.01 0 0 0 15.243 16.696c12.816 13.937 34.808 13.937 47.629 0 5.152-5.606 10.543-11.5 15.515-16.996l51.012 19.754s6.164 2.542 12.262 8.605c22.781-24.723 36.703-57.734 36.703-94C277.504 62.121 215.383 0 138.754 0 62.12 0 0 62.121 0 138.75c0 36.266 13.922 69.277 36.703 94 6.094-6.063 12.258-8.605 12.258-8.605zm0 0" fill="#f25c5c"></path><path d="m48.96 224.145 12.79-4.958C45.574 196.5 36.059 168.738 36.059 138.75c0-70.52 52.609-128.746 120.722-137.586A140.133 140.133 0 0 0 138.75 0C62.121 0 0 62.121 0 138.75c0 36.266 13.922 69.277 36.703 94 6.094-6.063 12.258-8.605 12.258-8.605zm0 0" fill="#e54a4a"></path><path d="m228.54 222.086-51.013-19.758c-4.972 5.5-10.363 11.39-15.515 16.996-12.82 13.942-34.813 13.942-47.63 0a2684.035 2684.035 0 0 1-15.241-16.691l-50.18 19.453s-6.844 2.812-13.234 9.598c25.39 28.132 62.14 45.816 103.023 45.816s77.633-17.684 103.023-45.816c-6.39-6.786-13.234-9.598-13.234-9.598zm0 0" fill="#e4eaf8"></path><path d="M156.762 276.332c-39.825-5.172-74.344-27.238-96.149-58.766l-11.652 4.52s-6.84 2.812-13.234 9.598C61.813 260.586 98.937 277.5 138.75 277.5c5.93 0 12.23-.414 18.012-1.168zm0 0" fill="#d8dce5"></path><path d="M166.617 198.105a5.107 5.107 0 0 1-3.262-4.761v-19.797a43.043 43.043 0 0 1-24.53 7.644c-9.528 0-17.9-2.617-24.747-6.992v19.145c0 2.11-1.297 4-3.262 4.761l-12.847 4.98a2766.736 2766.736 0 0 0 16.414 17.985c12.816 13.942 34.812 13.938 47.629 0a2799.438 2799.438 0 0 0 16.687-18.289zm0 0" fill="#f0a479"></path><path d="M143.844 180.898a43.516 43.516 0 0 1-5.02.293c-9.527 0-17.898-2.617-24.746-6.992v19.145c0 2.11-1.297 4-3.262 4.761l-12.847 4.98a2666.526 2666.526 0 0 0 16.41 17.985c7.8 8.485 19 11.793 29.465 9.953zm0 0" fill="#e5966e"></path><path d="M95.262 111.113v-2.8c0-2.336 1.996-4.18 4.308-4.004 22.797 1.636 44.985-4.59 62.528-16.051a4.016 4.016 0 0 1 5.136.625c14.996 16.12 13.891 14.48 13.891 16.586v5.593c5.766-.37 12.23 1.731 16.035 5.258V91.34c0-32.567-26.398-58.969-58.969-58.969-32.566 0-58.964 26.402-58.964 58.969v25.453c4.007-3.66 10.714-5.852 16.035-5.68zm0 0" fill="#5e6377"></path><path d="M107.414 91.34c0-27.707 19.113-50.942 44.871-57.258a59.003 59.003 0 0 0-14.094-1.71c-32.566 0-58.964 26.401-58.964 58.968v25.453c4.007-3.66 10.714-5.852 16.035-5.68v-2.8c0-2.336 1.996-4.18 4.308-4.004 2.625.187 5.239.261 7.84.246V91.34zm0 0" fill="#52586d"></path><path d="M181.848 108.016v32.476c0 .41-.024.817-.032 1.227 10.918.715 20.684-7.215 20.684-16.852 0-9.652-9.766-17.547-20.652-16.851zM94.79 140.492v-32.426c-9.833-.312-20.9 7.036-20.9 16.801 0 9.625 9.864 17.567 20.93 16.852-.011-.41-.03-.817-.03-1.227zm0 0" fill="#f0a479"></path><path d="M197.168 113.379c-3.867-3.582-9.422-5.738-15.32-5.363v32.48c0 .41-.024.816-.032 1.223 5.918.386 11.48-1.778 15.352-5.364zM94.79 136.547c-3.427-3.05-5.58-7.184-5.58-11.68 0-4.383 2.231-8.277 5.58-11.21v-5.59c-9.833-.313-20.9 7.035-20.9 16.8 0 9.625 9.864 17.567 20.93 16.852-.011-.41-.03-.817-.03-1.227zm0 0" fill="#e5966e"></path><path d="M167.234 84.82a4.011 4.011 0 0 0-5.136-.625c-17.543 11.457-40.746 18.703-63.543 17.067-2.313-.176-4.309 1.668-4.309 4.004v35.23c0 22.64 17.742 43.32 44.574 43.32 23.89 0 43.325-19.433 43.325-43.32v-38.074c-.004-2.106.085-1.48-14.91-17.602zm0 0" fill="#f7b594"></path><path d="M122.625 140.492v-40.64c-7.898 1.437-16.008 1.988-24.07 1.41-2.313-.176-4.309 1.668-4.309 4.004v35.226c0 22.645 17.742 43.32 44.574 43.32 4.801 0 9.418-.796 13.739-2.246-18.454-5.93-29.934-22.863-29.934-41.074zm0 0" fill="#f0a479"></path></g></svg>