<svg viewBox="0 0 24 24" xmlns="http://www.w3.org/2000/svg"><g><g fill="#3b82f6"><path d="M2.25 12a.75.75 0 0 1 .75-.75h18a.75.75 0 0 1 0 1.5H3a.75.75 0 0 1-.75-.75z" fill="#3b82f6" opacity=".3"></path><path d="m8.53 4.47 2.72 2.72V2a.75.75 0 0 1 1.5 0v5.19l2.72-2.72a.75.75 0 1 1 1.06 1.06l-4 4a.748.748 0 0 1-1.06 0l-4-4a.75.75 0 1 1 1.06-1.06zM12 22.75a.75.75 0 0 0 .75-.75v-5.19l2.72 2.72a.747.747 0 0 0 1.06 0 .75.75 0 0 0 0-1.06l-4-4a.75.75 0 0 0-1.06 0l-4 4a.75.75 0 1 0 1.06 1.06l2.72-2.72V22c0 .414.336.75.75.75z" fill="#3b82f6"></path></g></g></svg>