<svg viewBox="0 0 512 512" xmlns="http://www.w3.org/2000/svg"><g><path d="M0 256C0 142.935 73.298 46.99 174.968 13.09 200.434 21.581 227.68 26.18 256 26.18s55.566-4.599 81.032-13.09C438.702 46.99 512 142.935 512 256c0 80.844-37.474 152.936-96 199.852-1.753 1.405-318.247 1.405-320 0C37.475 408.936 0 336.844 0 256z" fill="#6f3f8b"></path><path d="M467 256c0 116.532-94.468 211-211 211S45 372.532 45 256 139.468 45 256 45s211 94.468 211 211z" fill="#814ba3"></path><path d="M318.819 98.048v67.394C318.819 228.71 267.53 280 204.261 280H124.82V95.952C124.819 42.959 167.778 0 220.771 0c54.151 0 98.048 43.898 98.048 98.048z" fill="#ffb509"></path><path d="M400 280H193.181V98.048c0-5.651.478-11.19 1.396-16.58h191.517a96.743 96.743 0 0 1 1.086 14.484V180z" fill="#ffc143"></path><path d="M171 171.404v10c0 13.807-11.193 25-25 25s-25-11.193-25-25v-10c0-13.807 11.193-25 25-25s25 11.193 25 25z" fill="#ffcebf"></path><path d="M210 296.404c-38.66 0-70 31.34-70 70v117.867a256.3 256.3 0 0 1-44-28.42v-89.447c0-38.66 31.34-70 70-70z" fill="#ff3980"></path><path d="M416 366.404v89.447C372.173 490.985 316.541 512 256 512c-47.457 0-91.897-12.913-130-35.417V366.404c0-38.66 31.34-70 70-70h150c38.66 0 70 31.34 70 70z" fill="#ff5e95"></path><path d="M356.159 369.404v105.231a254.462 254.462 0 0 1-15 5.83V369.404a7.5 7.5 0 0 1 15 0zm-192.818-7.5a7.5 7.5 0 0 0-7.5 7.5v105.231a254.462 254.462 0 0 0 15 5.83V369.404a7.5 7.5 0 0 0-7.5-7.5z" fill="#ff3980"></path><path d="M136 166.404v20c0 8.178 3.927 15.439 9.998 20-13.806-.001-24.998-11.194-24.998-25v-10c0-13.806 11.192-24.999 24.998-25-6.071 4.561-9.998 11.822-9.998 20zm230-20v-20c0-60.751-49.249-110-110-110s-110 49.249-110 110v40c0 50.351 33.83 92.801 80 105.859v34.141c0 16.568 13.431 30 30 30s30-13.432 30-30v-34.141c33.586-9.499 60.641-34.551 72.895-66.883a24.984 24.984 0 0 0 7.105 1.024c13.807 0 25-11.193 25-25v-10c0-13.807-11.193-25-25-25z" fill="#ffbfab"></path><path d="M366 126.404v40c0 50.792-34.425 93.543-81.216 106.195a52.827 52.827 0 0 1-27.568 0C210.425 259.948 176 217.196 176 166.404v-40c0-55.663 41.345-101.669 95-108.985 53.655 7.316 95 53.322 95 108.985z" fill="#ffcebf"></path><path d="M241.5 173.136a7.5 7.5 0 0 1 10.606-10.607c1.042 1.042 2.424 1.616 3.893 1.616s2.851-.574 3.893-1.616a7.501 7.501 0 0 1 10.606 10.607c-3.875 3.875-9.024 6.009-14.5 6.009s-10.623-2.134-14.498-6.009zm44.803 37.936c-8.354-8.354-19.329-12.531-30.303-12.531s-21.949 4.177-30.303 12.531a7.5 7.5 0 0 0 10.606 10.607c10.861-10.861 28.532-10.861 39.394 0a7.501 7.501 0 0 0 10.606-10.607z" fill="#ffa78f"></path><path d="M234.446 118.102a7.5 7.5 0 0 1 0 10.606c-5.361 5.36-12.403 8.041-19.445 8.041s-14.084-2.681-19.445-8.041a7.5 7.5 0 0 1 10.607-10.607c4.874 4.873 12.804 4.873 17.678 0a7.498 7.498 0 0 1 10.605.001zm82 0a7.5 7.5 0 0 0-10.607-.001c-4.874 4.873-12.804 4.873-17.678 0a7.5 7.5 0 0 0-10.607 10.607c5.361 5.36 12.403 8.041 19.445 8.041s14.084-2.681 19.445-8.041a7.498 7.498 0 0 0 .002-10.606z" fill="#ec806b"></path><path d="M197.079 186.132c-5.966 5.966-15.638 5.966-21.604 0a15.276 15.276 0 0 1-1.671-19.622l12.473-17.64 12.473 17.64a15.276 15.276 0 0 1-1.671 19.622z" fill="#fff5f5"></path><path d="M206.872 10.374v49.438c0 5.804-5.308 10.23-10.994 9.063-20.962-4.305-37.574-20.536-42.432-41.29 11.984-11.802 27.055-20.477 43.893-24.703 4.845-1.216 9.533 2.498 9.533 7.492z" fill="#ffb509"></path><path d="M315 90c-11.02 0-21.283-3.241-29.888-8.823-.109-.164-6.519-5.076-10.554-9.05A7.342 7.342 0 0 0 269.41 70H207c-4.244 0-8.375-.481-12.343-1.391-13.672-17.447-13.582-49.535 2.46-65.671A96.153 96.153 0 0 1 220.771 0C233.188 0 245.067 2.309 256 6.52 266.933 2.309 278.812 0 291.229 0c50.994 0 92.696 39.779 95.77 90z" fill="#ffc143"></path><path d="m134.399 409.163-9.972 19.736c-2.491 4.929-8.506 6.906-13.435 4.416-4.929-2.491-6.906-8.506-4.416-13.435l9.972-19.736c2.491-4.929 8.506-6.906 13.435-4.416 4.93 2.49 6.907 8.505 4.416 13.435zm243.202 0 9.972 19.736c2.491 4.929 8.506 6.906 13.435 4.416s6.906-8.506 4.416-13.435l-9.972-19.736c-2.491-4.929-8.506-6.906-13.435-4.416s-6.907 8.505-4.416 13.435z" fill="#ffbfab"></path><path d="M382 390v112c0 5.523-4.477 10-10 10H140c-5.523 0-10-4.477-10-10V390c0-5.523 4.477-10 10-10h232c5.523 0 10 4.477 10 10z" fill="#87e0ec"></path><path d="M163 512h-23c-5.523 0-10-4.477-10-10V390c0-5.523 4.477-10 10-10h23c-5.523 0-10 4.477-10 10v112c0 5.523 4.477 10 10 10z" fill="#2dd2e3"></path><path d="M296.708 475.391a5.001 5.001 0 0 1-4.972 5.028c-5.944.033-9.983.046-12.744.046-5.624 0-5.952-.056-6.314-.118a5 5 0 0 1-4.157-4.928v-51.896a5 5 0 0 1 10 0v46.94c3.531 0 8.526-.018 13.16-.044 2.781-.048 5.011 2.211 5.027 4.972zm-89.58-56.869a5 5 0 0 0-5 5v20.079h-25.943v-20.079a5 5 0 0 0-10 0v51.94a5 5 0 0 0 10 0v-21.861h25.943v21.861a5 5 0 0 0 10 0v-51.94a5 5 0 0 0-5-5zm44.595 10.475a5 5 0 0 0 0-10h-21.686a5 5 0 0 0-5 5v51.466a5 5 0 0 0 5 5h21.686a5 5 0 0 0 0-10h-16.686V454.73h15.086a5 5 0 0 0 0-10h-15.086v-15.733zm94.092 9.183c0 10.839-8.947 19.657-19.945 19.657-2.178 0-6.224.019-9.462.037v17.588a5 5 0 0 1-10 0v-51.94l.001-.043.001-.075.002-.062.002-.062.005-.082.003-.039.009-.11.001-.008a4.961 4.961 0 0 1 .88-2.385l.001-.002.065-.09.009-.012.063-.083a.143.143 0 0 0 .011-.015l.055-.07.025-.031.055-.065.022-.026.064-.072.017-.019.062-.067.023-.025.08-.083.003-.003a4.982 4.982 0 0 1 3.291-1.464l.044-.002.078-.003.127-.002h14.462c10.999 0 19.946 8.819 19.946 19.658zm-10 0c0-5.235-4.554-9.658-9.945-9.658h-9.447c.01 3.473.021 7.794.021 9.658 0 2.215.019 6.367.037 9.693 3.233-.018 7.228-.036 9.39-.036 5.39 0 9.944-4.422 9.944-9.657z" fill="#009ab2"></path><path d="M145.5 435c5.523 0 10 4.477 10 10s-4.477 10-10 10c5.523 0 10 4.477 10 10s-4.477 10-10 10c5.523 0 10 4.477 10 10s-4.477 10-10 10h-30c-5.523 0-10-4.477-10-10s4.477-10 10-10c-5.523 0-10-4.477-10-10s4.477-10 10-10c-5.523 0-10-4.477-10-10s4.477-10 10-10c-5.523 0-10-4.477-10-10s4.477-10 10-10h30c5.523 0 10 4.477 10 10s-4.477 10-10 10zm261 10c0-5.523-4.477-10-10-10 5.523 0 10-4.477 10-10s-4.477-10-10-10h-30c-5.523 0-10 4.477-10 10s4.477 10 10 10c-5.523 0-10 4.477-10 10s4.477 10 10 10c-5.523 0-10 4.477-10 10s4.477 10 10 10c-5.523 0-10 4.477-10 10s4.477 10 10 10h30c5.523 0 10-4.477 10-10s-4.477-10-10-10c5.523 0 10-4.477 10-10s-4.477-10-10-10c5.523 0 10-4.477 10-10z" fill="#ffcebf"></path><path d="M154.162 420a9.97 9.97 0 0 1 1.32 5.615c-.319 5.332-4.552 9.385-9.893 9.385H130.5a5 5 0 0 1 0-10h15a9.996 9.996 0 0 0 8.662-5zm-8.662 25h-15a5 5 0 0 0 0 10h15.032c5.342 0 9.63-4.053 9.949-9.385a9.973 9.973 0 0 0-1.32-5.615 9.993 9.993 0 0 1-8.661 5zm0 20h-15a5 5 0 0 0 0 10h15.109c5.342 0 9.553-4.053 9.872-9.385a9.973 9.973 0 0 0-1.32-5.615 9.993 9.993 0 0 1-8.661 5zm0 20h-15a5 5 0 0 0 0 10h15.082c5.342 0 9.58-4.053 9.899-9.385a9.973 9.973 0 0 0-1.32-5.615 9.993 9.993 0 0 1-8.661 5zm220.912-50H381.5a5 5 0 0 0 0-10h-15a9.996 9.996 0 0 1-8.662-5 9.97 9.97 0 0 0-1.32 5.615c.32 5.332 4.552 9.385 9.894 9.385zm15.088 10h-15a9.996 9.996 0 0 1-8.662-5 9.97 9.97 0 0 0-1.32 5.615c.319 5.332 4.608 9.385 9.949 9.385H381.5a5 5 0 0 0 0-10zm0 20h-15a9.996 9.996 0 0 1-8.662-5 9.97 9.97 0 0 0-1.32 5.615c.319 5.332 4.531 9.385 9.872 9.385h15.11a5 5 0 0 0 0-10zm0 20h-15a9.996 9.996 0 0 1-8.662-5 9.97 9.97 0 0 0-1.32 5.615c.319 5.332 4.558 9.385 9.899 9.385H381.5a5 5 0 0 0 0-10z" fill="#ffbfab"></path><path d="M424.465 264.367c-.805 2.817 1.31 5.621 4.24 5.621h14.651c3.489 0 5.596 3.86 3.709 6.794l-58.623 91.191a4.41 4.41 0 0 1-8.108-2.699l6.469-90.563a4.41 4.41 0 0 0-4.399-4.724h-17.992c-2.93 0-5.045-2.804-4.24-5.621l26.055-91.191a4.41 4.41 0 0 1 4.24-3.198h55.12c2.93 0 5.045 2.804 4.24 5.621z" fill="#ffe7bf"></path><path d="M424.465 264.367c-.805 2.817 1.31 5.621 4.24 5.621h14.651c3.489 0 5.596 3.86 3.709 6.794l-39.61 61.616 5.596-78.345a4.41 4.41 0 0 0-4.399-4.724H390.66c-2.93 0-5.045-2.804-4.24-5.621l22.781-79.732h36.386c2.93 0 5.045 2.804 4.24 5.621z" fill="#ffffff"></path></g></svg>