<svg viewBox="0 0 512 512" xmlns="http://www.w3.org/2000/svg"><g><g><path d="M512.17 296.38a99.77 99.77 0 0 0-36.32-77.1 221.4 221.4 0 0 0-16.74-54.43 52.36 52.36 0 0 0-64.58-82.43 223 223 0 0 0-51.34-30.51A100 100 0 0 0 179.53 37 52.36 52.36 0 0 0 99 99.19a223.64 223.64 0 0 0-31.09 38.7c-1.45-.1-2.9-.17-4.37-.17A63.46 63.46 0 0 0 33.27 257v.22a222 222 0 0 0 51 141.86 101.73 101.73 0 0 0-1 14.16 100 100 0 0 0 174.31 66.88A221.84 221.84 0 0 0 373.11 447a52.36 52.36 0 0 0 84.23-61.38 100 100 0 0 0 54.83-89.24z" fill="#c13333"></path><circle cx="256" cy="257.19" fill="#dd4247" r="222.86"></circle><path d="M33.14 257.19a221.91 221.91 0 0 0 51.54 142.53 279.51 279.51 0 0 0 35.88 2.3c153.63 0 278.17-124.54 278.17-278.17a280 280 0 0 0-2.89-40.17A221.9 221.9 0 0 0 256 34.33c-123.08 0-222.86 99.78-222.86 222.86z" fill="#e55353"></path><g fill="#c13333"><path d="M170.44 368.75a84.69 84.69 0 1 1 84.69-84.69 84.78 84.78 0 0 1-84.69 84.69zm172.68 15.89A48.89 48.89 0 1 1 392 335.75a48.94 48.94 0 0 1-48.88 48.89zm-10.66-160.93a61.62 61.62 0 1 1 61.62-61.61 61.68 61.68 0 0 1-61.62 61.61zM186.12 45.51a31.38 31.38 0 0 0-6.57-8.51A52.36 52.36 0 0 0 99 99.19l1.7-.33a141.26 141.26 0 0 0 85.42-53.35z" fill="#c13333"></path></g></g></g></svg>