<svg id="Layer_1" enable-background="new 0 0 512 512" viewBox="0 0 512 512" xmlns="http://www.w3.org/2000/svg" xmlns:xlink="http://www.w3.org/1999/xlink"><linearGradient id="lg1"><stop offset="0" stop-color="#fb2b3a"/><stop offset="1" stop-color="#c41926"/></linearGradient><linearGradient id="SVGID_1_" gradientUnits="userSpaceOnUse" x1="413.513" x2="479.811" xlink:href="#lg1" y1="69.818" y2="106.887"/><linearGradient id="lg2"><stop offset="0" stop-color="#a72b2b" stop-opacity="0"/><stop offset=".2576" stop-color="#a32c2b" stop-opacity=".258"/><stop offset=".5245" stop-color="#972d2a" stop-opacity=".525"/><stop offset=".7947" stop-color="#823028" stop-opacity=".795"/><stop offset="1" stop-color="#6d3326"/></linearGradient><linearGradient id="SVGID_00000029023006854279969100000009087690459647429524_" gradientUnits="userSpaceOnUse" x1="480.481" x2="480.481" xlink:href="#lg2" y1="127.069" y2="97.129"/><linearGradient id="SVGID_00000018229695741581089700000015987378534211787171_" gradientUnits="userSpaceOnUse" x1="413.491" x2="413.491" xlink:href="#lg2" y1="127.069" y2="97.129"/><linearGradient id="SVGID_00000129195287196263903550000012824764420427022725_" gradientUnits="userSpaceOnUse" x1="31.074" x2="97.371" xlink:href="#lg1" y1="69.818" y2="106.887"/><linearGradient id="SVGID_00000114060643695709804100000001492244912931152060_" gradientUnits="userSpaceOnUse" x1="98.041" x2="98.041" xlink:href="#lg2" y1="127.069" y2="97.129"/><linearGradient id="SVGID_00000026123338832413045550000001151835837634929838_" gradientUnits="userSpaceOnUse" x1="31.051" x2="31.051" xlink:href="#lg2" y1="127.069" y2="97.129"/><linearGradient id="lg3"><stop offset="0" stop-color="#5a5a5a"/><stop offset="1" stop-color="#444"/></linearGradient><linearGradient id="SVGID_00000088101784261604019100000003002971808525341609_" gradientUnits="userSpaceOnUse" x1="209.466" x2="302.789" xlink:href="#lg3" y1="32.395" y2="125.718"/><linearGradient id="SVGID_00000145044438387956963870000002014164939165604992_" gradientUnits="userSpaceOnUse" x1="292.872" x2="211.367" xlink:href="#lg3" y1="115.801" y2="34.296"/><linearGradient id="lg4"><stop offset="0" stop-color="#433f43" stop-opacity="0"/><stop offset=".3444" stop-color="#403c40" stop-opacity=".344"/><stop offset=".6223" stop-color="#363336" stop-opacity=".622"/><stop offset=".8763" stop-color="#252425" stop-opacity=".876"/><stop offset="1" stop-color="#1a1a1a"/></linearGradient><linearGradient id="SVGID_00000160890776672868409540000017387315538833461392_" gradientUnits="userSpaceOnUse" x1="277.277" x2="334.667" xlink:href="#lg4" y1="78.93" y2="78.93"/><linearGradient id="SVGID_00000015313514488724967650000009392500262138433440_" gradientUnits="userSpaceOnUse" x1="256" x2="256" xlink:href="#lg4" y1="91.238" y2="139.085"/><linearGradient id="SVGID_00000065796658524633157360000011688954180028527756_" gradientUnits="userSpaceOnUse" x1="239.062" x2="259.973" xlink:href="#lg3" y1="116.615" y2="153.685"/><linearGradient id="SVGID_00000098188190612701580440000011274952753601742977_" gradientUnits="userSpaceOnUse" x1="256" x2="256" xlink:href="#lg4" y1="123.317" y2="142.611"/><linearGradient id="SVGID_00000021826541819990183900000006301826962097767336_" gradientUnits="userSpaceOnUse" x1="268.366" x2="299.613" xlink:href="#lg4" y1="140.213" y2="140.213"/><linearGradient id="SVGID_00000047030929701604256130000008823805521770797231_" gradientUnits="userSpaceOnUse" x1="156.979" x2="382.803" xlink:href="#lg3" y1="206.913" y2="432.737"/><linearGradient id="SVGID_00000148646999376372766850000001391071279031299485_" gradientUnits="userSpaceOnUse" x1="368.504" x2="422.682" xlink:href="#lg4" y1="270.419" y2="252.597"/><linearGradient id="SVGID_00000105386291614210128140000006503175738240293055_" gradientUnits="userSpaceOnUse" x1="256" x2="256" xlink:href="#lg4" y1="356.426" y2="403.911"/><linearGradient id="lg5"><stop offset="0" stop-color="#f5fbff"/><stop offset="1" stop-color="#dbd5ef"/></linearGradient><linearGradient id="SVGID_00000116949031965634698490000010406708519799564724_" gradientUnits="userSpaceOnUse" x1="182.16" x2="273.407" xlink:href="#lg5" y1="246.656" y2="409.903"/><linearGradient id="SVGID_00000058579632525264131280000011194130107162827966_" gradientUnits="userSpaceOnUse" x1="261.422" x2="352.669" xlink:href="#lg5" y1="202.352" y2="365.6"/><linearGradient id="lg6"><stop offset="0" stop-color="#c4573a"/><stop offset="1" stop-color="#883f2e"/></linearGradient><linearGradient id="SVGID_00000159460176661214815320000015519534171818956458_" gradientUnits="userSpaceOnUse" x1="28.075" x2="75.445" xlink:href="#lg6" y1="465.099" y2="473.278"/><linearGradient id="lg7"><stop offset="0" stop-color="#6d3326" stop-opacity="0"/><stop offset=".2863" stop-color="#683023" stop-opacity=".286"/><stop offset=".6557" stop-color="#572a18" stop-opacity=".656"/><stop offset="1" stop-color="#42210b"/></linearGradient><linearGradient id="SVGID_00000064329131597466074040000016036361658033884845_" gradientUnits="userSpaceOnUse" x1="57.994" x2="77.028" xlink:href="#lg7" y1="468.691" y2="468.691"/><linearGradient id="SVGID_00000124126106999874152450000015669335465029519264_" gradientUnits="userSpaceOnUse" x1="47.235" x2="47.235" xlink:href="#lg7" y1="482.315" y2="453.079"/><linearGradient id="SVGID_00000152224009281729193860000016299016510104941213_" gradientUnits="userSpaceOnUse" x1="445.605" x2="492.975" xlink:href="#lg6" y1="465.099" y2="473.278"/><linearGradient id="SVGID_00000147190081393871716920000013102366218881836436_" gradientUnits="userSpaceOnUse" x1="475.524" x2="494.558" xlink:href="#lg7" y1="468.691" y2="468.691"/><linearGradient id="SVGID_00000153677836855623587410000009540474789129559482_" gradientUnits="userSpaceOnUse" x1="464.765" x2="464.765" xlink:href="#lg7" y1="482.315" y2="453.079"/><linearGradient id="SVGID_00000093140640795761841990000011380568222515426215_" gradientUnits="userSpaceOnUse" x1="236.84" x2="284.21" xlink:href="#lg6" y1="465.099" y2="473.278"/><linearGradient id="SVGID_00000146488994784475220610000009228458667422361519_" gradientUnits="userSpaceOnUse" x1="266.759" x2="285.793" xlink:href="#lg7" y1="468.691" y2="468.691"/><linearGradient id="SVGID_00000134213698395837534640000010197645899264458402_" gradientUnits="userSpaceOnUse" x1="256" x2="256" xlink:href="#lg7" y1="482.315" y2="453.079"/><linearGradient id="SVGID_00000063592776285925844170000013954235771359481230_" gradientUnits="userSpaceOnUse" x1="256" x2="256" xlink:href="#lg6" y1="416.086" y2="450.334"/><linearGradient id="lg8"><stop offset="0" stop-color="#6d3326" stop-opacity="0"/><stop offset="1" stop-color="#6d3326"/></linearGradient><linearGradient id="SVGID_00000001654766159312914890000013402496756008272558_" gradientUnits="userSpaceOnUse" x1="256.103" x2="255.152" xlink:href="#lg8" y1="444.138" y2="387.108"/><linearGradient id="SVGID_00000098217506655718402640000008490883676960848005_" gradientUnits="userSpaceOnUse" x1="256" x2="256" xlink:href="#lg8" y1="463.136" y2="431.64"/><linearGradient id="SVGID_00000067932866728435857300000014180387843855446190_" gradientUnits="userSpaceOnUse" x1="256" x2="256" xlink:href="#lg8" y1="440.561" y2="453.533"/><linearGradient id="SVGID_00000100350293792307268700000004256130812413880744_" gradientUnits="userSpaceOnUse" x1="482.584" x2="511.609" xlink:href="#lg8" y1="433.156" y2="433.156"/><linearGradient id="SVGID_00000010284624770089099940000006489000643466495642_" gradientUnits="userSpaceOnUse" x1="56.674" x2="27.871" xlink:href="#lg6" y1="442.595" y2="413.792"/><linearGradient id="SVGID_00000173146846362556921480000013206151321046638523_" gradientUnits="userSpaceOnUse" x1="41.266" x2="51.453" xlink:href="#lg3" y1="427.187" y2="437.374"/><linearGradient id="lg9"><stop offset="0" stop-color="#433f43" stop-opacity="0"/><stop offset="1" stop-color="#1a1a1a"/></linearGradient><linearGradient id="SVGID_00000016066833765291158310000016730889546848057514_" gradientUnits="userSpaceOnUse" x1="47.235" x2="47.235" xlink:href="#lg9" y1="432.564" y2="445.074"/><linearGradient id="SVGID_00000145764187207387815060000006895746449973378221_" gradientUnits="userSpaceOnUse" x1="46.49" x2="56.484" xlink:href="#lg9" y1="432.514" y2="441.134"/><linearGradient id="SVGID_00000054969221484055766500000013140680755121362357_" gradientUnits="userSpaceOnUse" x1="474.204" x2="445.401" xlink:href="#lg6" y1="442.595" y2="413.792"/><linearGradient id="SVGID_00000022549155998485833630000004809157145636770456_" gradientUnits="userSpaceOnUse" x1="458.796" x2="468.983" xlink:href="#lg3" y1="427.187" y2="437.374"/><linearGradient id="SVGID_00000123409001916725531240000016252919532477914805_" gradientUnits="userSpaceOnUse" x1="464.765" x2="464.765" xlink:href="#lg9" y1="432.564" y2="445.074"/><linearGradient id="SVGID_00000098213396915627513840000002713198854879433091_" gradientUnits="userSpaceOnUse" x1="464.02" x2="474.014" xlink:href="#lg9" y1="432.514" y2="441.134"/><linearGradient id="SVGID_00000103223835087374581550000014500756025768667279_" gradientUnits="userSpaceOnUse" x1="265.439" x2="236.636" xlink:href="#lg6" y1="442.595" y2="413.792"/><linearGradient id="SVGID_00000099624155590425800280000014018194593427570561_" gradientUnits="userSpaceOnUse" x1="250.031" x2="260.218" xlink:href="#lg3" y1="427.187" y2="437.374"/><linearGradient id="SVGID_00000088095411863892989860000016570816964900965034_" gradientUnits="userSpaceOnUse" x1="256" x2="256" xlink:href="#lg9" y1="432.564" y2="445.074"/><linearGradient id="SVGID_00000134969197329169653320000017105730961749080227_" gradientUnits="userSpaceOnUse" x1="255.255" x2="265.249" xlink:href="#lg9" y1="432.514" y2="441.134"/><g><g><g><path d="m453.56 177.32 44.38-67.24c3.33-5.05-.29-11.78-6.34-11.78h-29.85v-89.575c0-4.819-3.906-8.725-8.725-8.725h-12.551c-4.819 0-8.725 3.906-8.725 8.725v89.575h-28.91c-6.05 0-9.67 6.73-6.34 11.78l44.38 67.24c3.001 4.55 9.681 4.55 12.681 0z" fill="url(#SVGID_1_)"/><g><path d="m461.752 98.297h29.846c6.053 0 9.676 6.732 6.342 11.784l-36.188 54.83z" fill="url(#SVGID_00000029023006854279969100000009087690459647429524_)"/><path d="m396.499 110.081c-3.334-5.052.289-11.784 6.342-11.784h28.91v65.196z" fill="url(#SVGID_00000018229695741581089700000015987378534211787171_)"/></g></g><g><path d="m71.12 177.32 44.38-67.24c3.33-5.05-.29-11.78-6.34-11.78h-29.85v-89.575c0-4.819-3.906-8.725-8.724-8.725h-12.551c-4.819 0-8.725 3.906-8.725 8.725v89.575h-28.91c-6.05 0-9.67 6.73-6.34 11.78l44.38 67.24c3 4.55 9.68 4.55 12.68 0z" fill="url(#SVGID_00000129195287196263903550000012824764420427022725_)"/><g><path d="m79.313 98.297h29.846c6.053 0 9.676 6.732 6.342 11.784l-36.188 54.83z" fill="url(#SVGID_00000114060643695709804100000001492244912931152060_)"/><path d="m14.059 110.081c-3.334-5.052.289-11.784 6.342-11.784h28.91v65.196z" fill="url(#SVGID_00000026123338832413045550000001151835837634929838_)"/></g></g></g><g><g><g><path d="m256 157.859c-43.522 0-78.93-35.408-78.93-78.93s35.408-78.929 78.93-78.929 78.929 35.407 78.929 78.929-35.407 78.93-78.929 78.93zm0-133.809c-30.261 0-54.88 24.619-54.88 54.88s24.619 54.88 54.88 54.88 54.88-24.62 54.88-54.88-24.619-54.88-54.88-54.88z" fill="url(#SVGID_00000088101784261604019100000003002971808525341609_)"/></g><g><path d="m256 146.781c-37.414 0-67.852-30.439-67.852-67.852s30.438-67.851 67.852-67.851 67.852 30.438 67.852 67.852-30.438 67.851-67.852 67.851zm0-115.029c-26.014 0-47.178 21.164-47.178 47.177s21.164 47.178 47.178 47.178 47.177-21.164 47.177-47.178-21.163-47.177-47.177-47.177z" fill="url(#SVGID_00000145044438387956963870000002014164939165604992_)"/></g><path d="m256 0c-.062 0-.124.005-.186.005v31.752c.062 0 .124-.005.186-.005 26.014 0 47.177 21.164 47.177 47.177s-21.163 47.178-47.177 47.178c-.062 0-.124-.004-.186-.005v31.752c.062 0 .124.005.186.005 43.522 0 78.929-35.408 78.929-78.93s-35.407-78.929-78.929-78.929z" fill="url(#SVGID_00000160890776672868409540000017387315538833461392_)"/><path d="m303.177 78.929c0 26.014-21.164 47.178-47.177 47.178-26.014 0-47.178-21.164-47.178-47.178 0-7.621 1.827-14.818 5.05-21.197h-33.887c-1.885 6.75-2.914 13.853-2.914 21.197 0 43.522 35.408 78.93 78.93 78.93s78.929-35.408 78.929-78.93c0-7.343-1.03-14.446-2.914-21.197h-33.887c3.221 6.379 5.048 13.577 5.048 21.197z" fill="url(#SVGID_00000015313514488724967650000009392500262138433440_)"/><g><path d="m299.393 171.027c-28.929 0-57.857 0-86.786 0v-44.182c0-10.216 8.73-18.184 18.915-17.391 16.383 1.275 32.573 1.275 48.957 0 10.185-.792 18.914 7.17 18.914 17.385z" fill="url(#SVGID_00000065796658524633157360000011688954180028527756_)"/></g><g><path d="m299.393 171.027c-28.929 0-57.857 0-86.786 0v-44.182c0-10.216 8.73-18.184 18.915-17.391 16.383 1.275 32.573 1.275 48.957 0 10.185-.792 18.914 7.17 18.914 17.385z" fill="url(#SVGID_00000098188190612701580440000011274952753601742977_)"/></g><path d="m280.478 109.454c-10.498.817-20.918 1.104-31.36.874v60.699h50.274c0-12.291 0-29.058 0-44.188.001-10.216-8.729-18.178-18.914-17.385z" fill="url(#SVGID_00000021826541819990183900000006301826962097767336_)"/><path d="m388.915 422.471h-265.83c-43.975 0-75.482-42.438-62.759-84.532l44.169-146.128c8.363-27.667 33.856-46.593 62.759-46.593h177.492c28.903 0 54.396 18.927 62.759 46.593l44.169 146.128c12.723 42.094-18.784 84.532-62.759 84.532z" fill="url(#SVGID_00000047030929701604256130000008823805521770797231_)"/><path d="m407.505 191.811c-8.363-27.667-33.856-46.593-62.759-46.593h-88.932v277.254h133.101c43.975 0 75.482-42.438 62.759-84.532z" fill="url(#SVGID_00000148646999376372766850000001391071279031299485_)"/><path d="m60.326 337.939c-12.723 42.094 18.784 84.532 62.759 84.532h265.83c43.975 0 75.482-42.438 62.759-84.532l-17.468-57.791h-356.412z" fill="url(#SVGID_00000105386291614210128140000006503175738240293055_)"/><g><path d="m215.957 274.112 30.403-38.188c1.483-2.04 1.854-4.078 1.854-5.562 0-7.23-9.64-14.831-17.055-14.831-2.966 0-5.561 1.112-7.6 4.079l-34.666 49.125v-44.491c0-6.117-7.23-8.713-14.46-8.713s-14.459 2.596-14.459 8.713v117.902c0 5.932 7.23 8.898 14.459 8.898 7.23 0 14.46-2.966 14.46-8.898v-33.553l7.786-10.011 31.7 48.199c2.41 3.892 6.118 5.376 10.01 5.376 8.342 0 17.426-7.23 17.426-14.459 0-1.669-.556-3.337-1.483-4.82z" fill="url(#SVGID_00000116949031965634698490000010406708519799564724_)"/><path d="m343.315 279.859h-31.144c-5.561 0-8.713 5.747-8.713 11.123 0 5.747 3.151 11.123 8.713 11.123h10.937v6.303c0 12.605-6.303 18.537-16.684 18.537s-16.499-5.932-16.499-18.537v-49.126c0-12.606 6.118-18.538 16.684-18.538 15.757 0 16.314 10.01 16.499 16.684.186 6.673 6.674 8.712 14.46 8.712 9.825 0 14.459-2.595 14.459-13.718 0-23.543-20.021-36.891-46.53-36.891-24.285 0-44.491 11.864-44.491 43.75v49.126c0 31.885 19.836 43.75 45.418 43.75s45.603-11.864 45.603-43.75v-19.465c.001-4.82-3.151-9.083-8.712-9.083z" fill="url(#SVGID_00000058579632525264131280000011194130107162827966_)"/></g></g><g><g><g><g><g><path d="m74.356 512h-54.242c-1.987 0-3.599-1.611-3.599-3.599v-83.02h61.439v83.02c.001 1.988-1.611 3.599-3.598 3.599z" fill="url(#SVGID_00000159460176661214815320000015519534171818956458_)"/></g></g><g><g><path d="m74.356 512h-54.242c-1.987 0-3.599-1.611-3.599-3.599v-83.02h61.439v83.02c.001 1.988-1.611 3.599-3.598 3.599z" fill="url(#SVGID_00000064329131597466074040000016036361658033884845_)"/></g></g><g><g><path d="m74.356 512h-54.242c-1.987 0-3.599-1.611-3.599-3.599v-83.02h61.439v83.02c.001 1.988-1.611 3.599-3.598 3.599z" fill="url(#SVGID_00000124126106999874152450000015669335465029519264_)"/></g></g></g><g><g><g><path d="m491.886 512h-54.242c-1.987 0-3.599-1.611-3.599-3.599v-83.02h61.439v83.02c0 1.988-1.611 3.599-3.598 3.599z" fill="url(#SVGID_00000152224009281729193860000016299016510104941213_)"/></g></g><g><g><path d="m491.886 512h-54.242c-1.987 0-3.599-1.611-3.599-3.599v-83.02h61.439v83.02c0 1.988-1.611 3.599-3.598 3.599z" fill="url(#SVGID_00000147190081393871716920000013102366218881836436_)"/></g></g><g><g><path d="m491.886 512h-54.242c-1.987 0-3.599-1.611-3.599-3.599v-83.02h61.439v83.02c0 1.988-1.611 3.599-3.598 3.599z" fill="url(#SVGID_00000153677836855623587410000009540474789129559482_)"/></g></g></g><g><g><g><path d="m283.121 512h-54.242c-1.987 0-3.599-1.611-3.599-3.599v-83.02h61.439v83.02c0 1.988-1.611 3.599-3.598 3.599z" fill="url(#SVGID_00000093140640795761841990000011380568222515426215_)"/></g></g><g><g><path d="m283.121 512h-54.242c-1.987 0-3.599-1.611-3.599-3.599v-83.02h61.439v83.02c0 1.988-1.611 3.599-3.598 3.599z" fill="url(#SVGID_00000146488994784475220610000009228458667422361519_)"/></g></g><g><g><path d="m283.121 512h-54.242c-1.987 0-3.599-1.611-3.599-3.599v-83.02h61.439v83.02c0 1.988-1.611 3.599-3.598 3.599z" fill="url(#SVGID_00000134213698395837534640000010197645899264458402_)"/></g></g></g></g><g><g><g><path d="m501.683 457.894h-491.366c-5.698 0-10.317-4.619-10.317-10.317v-28.841c0-5.698 4.619-10.317 10.317-10.317h491.365c5.698 0 10.317 4.619 10.317 10.317v28.841c.001 5.698-4.618 10.317-10.316 10.317z" fill="url(#SVGID_00000063592776285925844170000013954235771359481230_)"/><path d="m512 428.284v19.29c0 1.25-.22 2.46-.64 3.57-1.45 3.94-5.23 6.75-9.68 6.75h-491.36c-4.45 0-8.23-2.81-9.68-6.75-.42-1.11-.64-2.32-.64-3.57v-18.93c5.32-.99 10.62-2.14 15.88-3.44 22.78-5.61 46.16-8.43 69.56-8.43 18 0 36.02 1.67 53.78 5.01l43.73 8.22c33.08 6.21 67.21 5.37 99.89-2.49l18.73-4.5c53.62-12.88 109.81-12.88 163.44-.01 7.3 1.76 14.71 3.08 22.17 3.96s14.99 1.32 22.53 1.32z" fill="url(#SVGID_00000001654766159312914890000013402496756008272558_)"/><path d="m512 447.577v-2.956h-34.815c-16.767 0-33.465-2.149-49.685-6.393-28.789-7.533-58.913-8.422-88.096-2.598l-31.23 6.232c-23.624 4.714-48.004 4.071-71.346-1.882l-13.376-3.412c-38.295-9.767-78.429-9.771-116.725-.011-10.434 2.659-21.159 4.004-31.926 4.004h-74.801v7.015c0 5.698 4.619 10.318 10.318 10.318h491.365c5.698 0 10.317-4.619 10.317-10.317z" fill="url(#SVGID_00000098217506655718402640000008490883676960848005_)"/><path d="m512 447.577v-2.956h-34.815c-16.767 0-33.465-2.149-49.685-6.393-28.789-7.533-58.913-8.422-88.096-2.598l-31.23 6.232c-23.624 4.714-48.004 4.071-71.346-1.882l-13.376-3.412c-38.295-9.767-78.429-9.771-116.725-.011-10.434 2.659-21.159 4.004-31.926 4.004h-74.801v7.015c0 5.698 4.619 10.318 10.318 10.318h491.365c5.698 0 10.317-4.619 10.317-10.317z" fill="url(#SVGID_00000067932866728435857300000014180387843855446190_)"/><path d="m501.683 408.418h-79.93v49.476h79.93c5.698 0 10.317-4.619 10.317-10.318v-28.841c0-5.698-4.619-10.317-10.317-10.317z" fill="url(#SVGID_00000100350293792307268700000004256130812413880744_)"/></g><g><g><circle cx="47.235" cy="433.156" fill="url(#SVGID_00000010284624770089099940000006489000643466495642_)" r="17.545"/><g><g><circle cx="47.235" cy="433.156" fill="url(#SVGID_00000173146846362556921480000013206151321046638523_)" r="11.473"/><path d="m35.762 433.156c0 6.336 5.137 11.473 11.473 11.473s11.473-5.137 11.473-11.473c0-1.372-.242-2.688-.684-3.908h-21.579c-.441 1.22-.683 2.536-.683 3.908z" fill="url(#SVGID_00000016066833765291158310000016730889546848057514_)"/><path d="m39.122 441.269c4.481 4.481 11.745 4.481 16.226 0s4.481-11.745 0-16.226c-.97-.97-2.072-1.73-3.247-2.28l-15.259 15.259c.551 1.175 1.31 2.276 2.28 3.247z" fill="url(#SVGID_00000145764187207387815060000006895746449973378221_)"/></g></g></g><g><circle cx="464.765" cy="433.156" fill="url(#SVGID_00000054969221484055766500000013140680755121362357_)" r="17.545"/><g><g><circle cx="464.765" cy="433.156" fill="url(#SVGID_00000022549155998485833630000004809157145636770456_)" r="11.473"/><path d="m453.292 433.156c0 6.336 5.137 11.473 11.473 11.473s11.473-5.137 11.473-11.473c0-1.372-.242-2.688-.684-3.908h-21.579c-.442 1.22-.683 2.536-.683 3.908z" fill="url(#SVGID_00000123409001916725531240000016252919532477914805_)"/><path d="m456.652 441.269c4.481 4.481 11.745 4.481 16.226 0s4.481-11.745 0-16.226c-.97-.97-2.072-1.73-3.247-2.28l-15.259 15.259c.55 1.175 1.31 2.276 2.28 3.247z" fill="url(#SVGID_00000098213396915627513840000002713198854879433091_)"/></g></g></g><g><circle cx="256" cy="433.156" fill="url(#SVGID_00000103223835087374581550000014500756025768667279_)" r="17.545"/><g><g><circle cx="256" cy="433.156" fill="url(#SVGID_00000099624155590425800280000014018194593427570561_)" r="11.473"/><path d="m244.527 433.156c0 6.336 5.137 11.473 11.473 11.473s11.473-5.137 11.473-11.473c0-1.372-.242-2.688-.684-3.908h-21.579c-.442 1.22-.683 2.536-.683 3.908z" fill="url(#SVGID_00000088095411863892989860000016570816964900965034_)"/><path d="m247.887 441.269c4.481 4.481 11.745 4.481 16.226 0s4.481-11.745 0-16.226c-.97-.97-2.072-1.73-3.247-2.28l-15.259 15.259c.55 1.175 1.31 2.276 2.28 3.247z" fill="url(#SVGID_00000134969197329169653320000017105730961749080227_)"/></g></g></g></g></g></g></g></g></g><g/><g/><g/><g/><g/><g/><g/><g/><g/><g/><g/><g/><g/><g/><g/></svg>