<svg viewBox="0 0 512 512" xmlns="http://www.w3.org/2000/svg"><g><circle cx="256" cy="256" fill="#a3d4ff" r="256"></circle><path d="M512 256c0-18.597-1.983-36.73-5.749-54.201l-96.803-96.803-4.998 7.02-28.884-28.884-69.562 140.247L165.756 83.132l-63.203 323.872 99.246 99.247C219.27 510.017 237.403 512 256 512c141.385 0 256-114.615 256-256z" fill="#65b1fc"></path><path d="M102.552 104.996h155.085v72.941H102.552z" fill="#fe8205"></path><path d="M102.552 177.937h155.085v229.067H102.552z" fill="#ffffff"></path><path d="M255.644 104.996h153.803v72.941H255.644z" fill="#fa5d0f"></path><path d="M255.644 177.937h153.803v229.067H255.644z" fill="#e9edf5"></path><path d="M136.435 83.132h29.321v51.801h-29.321z" fill="#636978"></path><path d="M346.244 83.132h29.321v51.801h-29.321z" fill="#414952"></path><path d="M212.653 309.811v42.752h-25.695v-42.752h-37.214v-23.259h37.214v-40.98h25.695v40.98h37.214v23.259z" fill="#636978"></path><path d="M309.558 351.942v-99.016l-24.809 25.031-21.708-22.816 51.612-50.947h33.005v147.748z" fill="#414952"></path></g></svg>