<svg viewBox="0 0 512 512" xmlns="http://www.w3.org/2000/svg"><g><lineargradient gradienttransform="matrix(1.0039 0 0 -1.0039 .192 516.56)" gradientunits="userSpaceOnUse" id="a" x1="366.864" x2="274.174" y1="224.01" y2="21.311"><stop offset="0" stop-color="#ffcf42"></stop><stop offset="1" stop-color="#ffb500"></stop></lineargradient><path d="m211.272 391.562 32.527 85.092c1.986 5.195 7.146 8.562 12.697 8.199 143.55-9.399 180.272-74.29 189.033-115.136 4.423-20.622-5.055-42.197-23.267-52.833-84.876-49.575-183.151 36.922-208 61.005-3.654 3.542-4.807 8.919-2.99 13.673z" fill=""></path><lineargradient gradienttransform="matrix(1.0039 0 0 -1.0039 .192 516.56)" gradientunits="userSpaceOnUse" id="b" x1="305.184" x2="389.744" y1="89.17" y2="274.09"><stop offset="0" stop-color=""></stop><stop offset="1" stop-color="#ff7000"></stop></lineargradient><path d="M220.751 387.913c-.36-.968-.134-2.039.579-2.73 11.288-10.94 41.56-38.32 78.829-56.268 44.574-21.468 83.932-22.564 116.981-3.263 7.68 4.487 13.652 11.64 16.819 20.144 2.62 7.036 3.187 14.571 1.638 21.789-3.7 17.255-13.71 42.289-40.373 63.55-31.234 24.908-78.132 39.571-139.394 43.582-1.073.07-2.144-.643-2.546-1.692l-32.533-85.112z" fill=""></path><lineargradient gradienttransform="matrix(1.0039 0 0 -1.0039 .192 516.56)" gradientunits="userSpaceOnUse" id="c" x1="165.541" x2="112.257" y1="116.911" y2=".402"><stop offset="0" stop-color="#ffcf42"></stop><stop offset="1" stop-color="#ffb500"></stop></lineargradient><path d="M172.501 404.685c-1.299-3.49-4.809-5.745-8.518-5.415-73.177 6.531-110.103 41.5-95.405 80.971 15.115 40.593 62.346 36.211 105.258 20.232a264.529 264.529 0 0 1 22.146-7.164c4.673-1.286 7.168-6.317 5.477-10.858l-28.958-77.766z" fill=""></path><lineargradient gradienttransform="matrix(1.0039 0 0 -1.0039 .192 516.56)" gradientunits="userSpaceOnUse" id="d" x1="112.127" x2="187.817" y1="1.204" y2="166.733"><stop offset="0" stop-color=""></stop><stop offset="1" stop-color="#ff7000"></stop></lineargradient><path d="M78.097 476.697c-4.156-11.163-3.218-21.653 2.789-31.178 5.707-9.049 25.141-30.553 82.577-36.003l27.768 74.573c-7 1.988-14.034 4.293-20.939 6.864-22.787 8.485-43.002 12.121-58.458 10.514-17.159-1.782-28.195-9.886-33.737-24.77z" fill=""></path><lineargradient gradienttransform="matrix(1.0039 0 0 -1.0039 .192 516.56)" gradientunits="userSpaceOnUse" id="e" x1="412.334" x2="447.284" y1="161.288" y2="174.308"><stop offset="0" stop-color=""></stop><stop offset="1" stop-color="#ff7000"></stop></lineargradient><path d="m424.568 396.881-30.166-81.011c7.876 2.27 15.457 5.53 22.732 9.784 7.684 4.482 13.657 11.646 16.821 20.141 2.622 7.044 3.193 14.58 1.64 21.796a106.21 106.21 0 0 1-11.027 29.29z" fill=""></path><lineargradient gradienttransform="matrix(1.0039 0 0 -1.0039 .192 516.56)" gradientunits="userSpaceOnUse" id="f" x1="387.806" x2="423.036" y1="150.662" y2="163.782"><stop offset="0" stop-color=""></stop><stop offset="1" stop-color="#ff7000"></stop></lineargradient><path d="m405.335 422.143-41.024-110.172c10.463-.171 20.499 1.132 30.092 3.9l30.166 81.011c-4.613 8.315-10.841 16.948-19.234 25.261z" fill=""></path><lineargradient gradienttransform="matrix(1.0039 0 0 -1.0039 .192 516.56)" gradientunits="userSpaceOnUse" id="g" x1="363.195" x2="398.425" y1="140.143" y2="153.263"><stop offset="0" stop-color=""></stop><stop offset="1" stop-color="#ff7000"></stop></lineargradient><path d="M383.231 439.694 337 315.541c9.391-2.251 18.5-3.434 27.31-3.571l41.024 110.172a125.713 125.713 0 0 1-10.117 8.996 140.886 140.886 0 0 1-11.986 8.556z" fill=""></path><lineargradient gradienttransform="matrix(1.0039 0 0 -1.0039 .192 516.56)" gradientunits="userSpaceOnUse" id="h" x1="338.554" x2="373.784" y1="129.726" y2="142.846"><stop offset="0" stop-color=""></stop><stop offset="1" stop-color="#ff7000"></stop></lineargradient><path d="m359.32 452.391-47.856-128.519c8.725-3.601 17.241-6.379 25.538-8.331l46.231 124.153c-7.295 4.68-15.271 8.909-23.913 12.697z" fill=""></path><lineargradient gradienttransform="matrix(1.0039 0 0 -1.0039 .192 516.56)" gradientunits="userSpaceOnUse" id="i" x1="313.572" x2="348.802" y1="120.191" y2="133.311"><stop offset="0" stop-color=""></stop><stop offset="1" stop-color="#ff7000"></stop></lineargradient><path d="m334.102 461.578-46.886-125.914a242.354 242.354 0 0 1 12.947-6.744 200.542 200.542 0 0 1 11.302-5.048l47.856 128.519c-7.852 3.438-16.261 6.502-25.219 9.187z" fill=""></path><lineargradient gradienttransform="matrix(1.0039 0 0 -1.0039 .192 516.56)" gradientunits="userSpaceOnUse" id="j" x1="288.882" x2="324.112" y1="109.892" y2="123.012"><stop offset="0" stop-color=""></stop><stop offset="1" stop-color="#ff7000"></stop></lineargradient><path d="M334.102 461.578c-8.273 2.485-17.015 4.656-26.219 6.498l-43.891-117.87c7.183-4.977 14.968-9.936 23.225-14.542l46.885 125.914z" fill=""></path><lineargradient gradienttransform="matrix(1.0039 0 0 -1.0039 .192 516.56)" gradientunits="userSpaceOnUse" id="k" x1="264.261" x2="299.491" y1="99.415" y2="112.535"><stop offset="0" stop-color=""></stop><stop offset="1" stop-color="#ff7000"></stop></lineargradient><path d="M307.882 468.076c-8.609 1.729-17.626 3.163-27.035 4.309l-39.204-105.283c6.476-5.311 14-11.119 22.347-16.897l43.892 117.871z" fill=""></path><lineargradient gradienttransform="matrix(1.0039 0 0 -1.0039 .192 516.56)" gradientunits="userSpaceOnUse" id="l" x1="239.662" x2="274.892" y1="88.852" y2="101.972"><stop offset="0" stop-color=""></stop><stop offset="1" stop-color="#ff7000"></stop></lineargradient><path d="M280.848 472.385c-8.056.995-16.397 1.771-25.019 2.339-1.074.061-2.139-.653-2.541-1.696l-32.534-85.115c-.358-.964-.135-2.036.58-2.736 4.271-4.137 11.257-10.626 20.31-18.076l39.204 105.284z" fill=""></path><lineargradient gradienttransform="matrix(1.0039 0 0 -1.0039 .192 516.56)" gradientunits="userSpaceOnUse" id="m" x1="258.961" x2="36.071" y1="381.406" y2="178.706"><stop offset="0" stop-color="#ffcf42"></stop><stop offset="1" stop-color="#ffb500"></stop></lineargradient><path d="m247.633 206.71-63.855-64.971c-3.898-3.967-4.815-10.06-2.176-14.956C249.851.147 324.137-6.26 364.926 2.761c20.592 4.555 36.272 22.147 38.37 43.132 9.783 97.805-109.752 151.203-141.987 163.784-4.74 1.85-10.109.663-13.676-2.967z" fill=""></path><lineargradient gradienttransform="matrix(1.0039 0 0 -1.0039 .192 516.56)" gradientunits="userSpaceOnUse" id="n" x1="342.428" x2="37.057" y1="381.322" y2="648.471"><stop offset="0" stop-color=""></stop><stop offset="1" stop-color="#ff7000"></stop></lineargradient><path d="M254.892 199.607c.73.73 1.799.97 2.723.608 14.643-5.715 52.133-21.857 83.956-48.286 38.062-31.607 55.428-66.943 51.621-105.026-.886-8.851-4.908-17.256-11.324-23.673-5.309-5.309-11.926-8.959-19.134-10.552-17.231-3.811-44.16-5.121-74.584 10.284-35.642 18.044-68.482 54.596-97.608 108.639-.51.947-.308 2.217.48 3.019l63.87 64.987z" fill=""></path><lineargradient gradienttransform="matrix(1.0039 0 0 -1.0039 .192 516.56)" gradientunits="userSpaceOnUse" id="o" x1="155.096" x2="26.986" y1="265.649" y2="62.949"><stop offset="0" stop-color="#ffcf42"></stop><stop offset="1" stop-color="#ffb500"></stop></lineargradient><path d="M219.573 236.51c2.633 2.633 3.226 6.763 1.381 9.999-36.374 63.831-83.533 82.868-113.316 53.085-30.629-30.629-7-71.758 25.378-104.137a264.782 264.782 0 0 0 15.725-17.16c3.113-3.715 8.726-3.892 12.153-.465l58.679 58.678z" fill=""></path><lineargradient gradienttransform="matrix(1.0039 0 0 -1.0039 .192 516.56)" gradientunits="userSpaceOnUse" id="p" x1="293.451" x2="-11.918" y1="182.522" y2="360.402"><stop offset="0" stop-color=""></stop><stop offset="1" stop-color="#ff7000"></stop></lineargradient><path d="M114.821 292.412c8.422 8.422 18.353 11.932 29.513 10.431 10.603-1.427 38.242-10.157 67.085-60.122l-56.269-56.269a276.967 276.967 0 0 1-14.951 16.187c-17.193 17.193-28.908 34.065-33.875 48.79-5.514 16.346-2.734 29.752 8.497 40.983z" fill=""></path><lineargradient gradienttransform="matrix(1.0039 0 0 -1.0039 .192 516.56)" gradientunits="userSpaceOnUse" id="q" x1="363.965" x2="390.335" y1="477.117" y2="503.486"><stop offset="0" stop-color=""></stop><stop offset="1" stop-color="#ff7000"></stop></lineargradient><path d="m331.505 10.524 61.127 61.127c1.212-8.107 1.4-16.357.556-24.742-.879-8.852-4.91-17.263-11.32-23.673-5.315-5.315-11.931-8.968-19.14-10.557a106.14 106.14 0 0 0-31.223-2.155z" fill=""></path><lineargradient gradienttransform="matrix(1.0039 0 0 -1.0039 .192 516.56)" gradientunits="userSpaceOnUse" id="r" x1="344.1" x2="370.68" y1="459.231" y2="485.817"><stop offset="0" stop-color=""></stop><stop offset="1" stop-color="#ff7000"></stop></lineargradient><path d="m300.533 17.508 83.13 83.13c4.507-9.444 7.496-19.113 8.968-28.987l-61.127-61.127c-9.479.736-19.919 2.81-30.971 6.984z" fill=""></path><lineargradient gradienttransform="matrix(1.0039 0 0 -1.0039 .192 516.56)" gradientunits="userSpaceOnUse" id="s" x1="324.302" x2="350.882" y1="441.229" y2="467.81"><stop offset="0" stop-color=""></stop><stop offset="1" stop-color="#ff7000"></stop></lineargradient><path d="m275.379 30.31 93.678 93.678c5.952-7.604 10.817-15.396 14.606-23.35l-83.13-83.13a125.983 125.983 0 0 0-12.388 5.458 141.513 141.513 0 0 0-12.766 7.344z" fill=""></path><lineargradient gradienttransform="matrix(1.0039 0 0 -1.0039 .192 516.56)" gradientunits="userSpaceOnUse" id="t" x1="304.575" x2="331.155" y1="423.146" y2="449.726"><stop offset="0" stop-color=""></stop><stop offset="1" stop-color="#ff7000"></stop></lineargradient><path d="m253.887 46.775 96.973 96.973c6.903-6.436 12.972-13.026 18.197-19.759L275.379 30.31c-7.289 4.687-14.453 10.18-21.492 16.465z" fill=""></path><lineargradient gradienttransform="matrix(1.0039 0 0 -1.0039 .192 516.56)" gradientunits="userSpaceOnUse" id="u" x1="285.515" x2="312.105" y1="404.396" y2="430.976"><stop offset="0" stop-color=""></stop><stop offset="1" stop-color="#ff7000"></stop></lineargradient><path d="m235.045 65.887 95.007 95.007a243.803 243.803 0 0 0 11.518-8.968 200.548 200.548 0 0 0 9.291-8.178l-96.973-96.973c-6.393 5.709-12.676 12.083-18.843 19.112z" fill=""></path><lineargradient gradienttransform="matrix(1.0039 0 0 -1.0039 .192 516.56)" gradientunits="userSpaceOnUse" id="v" x1="265.885" x2="292.464" y1="386.226" y2="412.807"><stop offset="0" stop-color=""></stop><stop offset="1" stop-color="#ff7000"></stop></lineargradient><path d="M235.045 65.887c-5.7 6.49-11.311 13.538-16.815 21.142l88.938 88.938c7.514-4.461 15.262-9.48 22.883-15.073l-95.006-95.007z" fill=""></path><lineargradient gradienttransform="matrix(1.0039 0 0 -1.0039 .192 516.56)" gradientunits="userSpaceOnUse" id="w" x1="246.112" x2="272.692" y1="368.189" y2="394.769"><stop offset="0" stop-color=""></stop><stop offset="1" stop-color="#ff7000"></stop></lineargradient><path d="M218.23 87.029c-5.153 7.11-10.207 14.713-15.162 22.793l79.44 79.44c7.523-3.68 15.934-8.107 24.66-13.295L218.23 87.029z" fill=""></path><lineargradient gradienttransform="matrix(1.0039 0 0 -1.0039 .192 516.56)" gradientunits="userSpaceOnUse" id="x" x1="226.277" x2="252.857" y1="350.214" y2="376.794"><stop offset="0" stop-color=""></stop><stop offset="1" stop-color="#ff7000"></stop></lineargradient><path d="M203.067 109.822c-4.256 6.912-8.43 14.175-12.532 21.779-.503.952-.296 2.217.485 3.016l63.874 64.987c.727.727 1.795.97 2.729.61 5.539-2.163 14.346-5.818 24.885-10.952l-79.441-79.44z" fill=""></path></g></svg>