<svg viewBox="0 0 512 512" xmlns="http://www.w3.org/2000/svg"><g><path d="M468.077 256H256l-10 94.571 10 117.507c58.564 58.563 153.514 58.563 212.077 0 58.564-58.564 58.564-153.515 0-212.078z" fill="#ffdd33"></path><path d="M256 256c58.563 58.563 153.514 58.563 212.077 0s58.563-153.514 0-212.077C409.513-14.64 314.563-14.64 256 43.923z" fill="#29cccc"></path><path d="m256 43.923-10 106.039L256 256c58.563-58.564 58.563-153.513 0-212.077z" fill="#282866"></path><path d="M256 43.923c-58.563-58.563-153.514-58.563-212.077 0-58.563 58.564-58.563 153.514 0 212.077H256z" fill="#4a4080"></path><path d="M256 256c-58.563-58.563-153.514-58.563-212.077 0-58.563 58.563-58.563 153.514 0 212.077 58.564 58.563 153.514 58.563 212.077 0l-10-106.039z" fill="#ff8080"></path><path d="M256 256c-58.563 58.563-58.563 153.514 0 212.077z" fill="#ffee99"></path></g></svg>