<svg class="" viewBox="0 0 512 512" xmlns="http://www.w3.org/2000/svg"><g><path d="M400 88h32v416h-32z" fill="#1395bf"></path><path d="M352 88h48v416h-48z" fill="#49b2d6"></path><path d="M352 104h16v16h-16zM352 136h16v16h-16zM352 168h16v16h-16zM352 200h16v16h-16zM352 232h16v16h-16zM352 264h16v16h-16zM352 296h16v16h-16zM352 328h16v16h-16zM352 360h16v16h-16zM352 392h16v16h-16zM352 424h16v16h-16zM352 456h16v16h-16z" fill="#474545"></path><path d="m272 88 16-80-40 80z" fill="#eff4f7"></path><path d="m288 8 16 80h24z" fill="#cfd3d6"></path><path d="m288 8-16 80h32z" fill="#dfe3e6"></path><path d="M272 88h32v336h-32z" fill="#ffdc73"></path><path d="M248 88h24v336h-24z" fill="#ffeca6"></path><path d="M304 88h24v336h-24z" fill="#ffcb59"></path><path d="M304 40 288 8l-16 32z" fill="#474545"></path><path d="M248 424h24v24h-24z" fill="#eff4f7"></path><path d="M272 424h32v24h-32z" fill="#dfe3e6"></path><path d="M304 424h24v24h-24z" fill="#cfd3d6"></path><path d="M328 480c0 6.144-2.344 12.28-7.032 16.968S310.144 504 304 504h-32c-6.144 0-12.28-2.344-16.968-7.032S248 486.144 248 480v-32h80v32z" fill="#5e5c5c"></path><path d="M328 480c0 6.144-2.344 12.28-7.032 16.968S310.144 504 304 504h-24c6.144 0 12.28-2.344 16.968-7.032S304 486.144 304 480v-32h24v32z" fill="#474545"></path><path d="M488 464c0-13.256 10.744-24 24-24v-8H296v64h216v-8c-13.256 0-24-10.744-24-24z" fill="#dfe3e6"></path><path d="M328 432v-8H224v80h104v-8a31.906 31.906 0 0 1-22.624-9.376C299.128 480.384 296 472.184 296 464s3.128-16.376 9.376-22.624S319.816 432 328 432z" fill="#f4608a"></path><path d="M224 488h104v16H224z" fill="#d9416b"></path><path d="M512 504H328c-10.68 0-20.728-4.168-28.28-11.72C292.168 484.736 288 474.688 288 464c0-10.68 4.168-20.728 11.72-28.28S317.32 424 328 424h184v16H328c-6.408 0-12.44 2.504-16.968 7.032S304 457.592 304 464c0 6.416 2.496 12.44 7.032 16.96 4.528 4.544 10.56 7.04 16.968 7.04h184v16z" fill="#5e5c5c"></path><path d="M224 376h240v48H224z" fill="#eff4f7"></path><path d="M224 376h168v48H224z" fill="#49b2d6"></path><path d="M240 392h136v16H240z" fill="#ffffff"></path><path d="M489.936 286.064C480.568 276.688 468.28 272 456 272H224v96h232c12.28 0 24.568-4.688 33.936-14.064C499.312 344.568 504 332.28 504 320s-4.688-24.568-14.064-33.936z" fill="#eff4f7"></path><path d="M224 328h232v16H224zM224 296h232v16H224z" fill="#cfd3d6"></path><path d="M456 376H224v-16h232c10.688 0 20.728-4.168 28.28-11.72S496 330.688 496 320s-4.168-20.728-11.72-28.28S466.688 280 456 280H224v-16h232c14.96 0 29.024 5.832 39.592 16.408C506.168 290.976 512 305.04 512 320s-5.832 29.024-16.408 39.592C485.024 370.168 470.96 376 456 376z" fill="#5e5c5c"></path><path d="M432 296h32v96h-32z" fill="#f4608a"></path><path d="M0 152h224v336H0z" fill="#5e5c5c"></path><path d="M0 488h224v16H0z" fill="#474545"></path><path d="M24 296h32v32H24z" fill="#ffffff"></path><path d="M72 296h32v32H72z" fill="#cfd3d6"></path><path d="M24 344h32v32H24zM72 344h32v32H72zM120 344h32v32h-32zM24 392h32v32H24zM72 392h32v32H72zM24 440h32v32H24zM72 440h32v32H72zM120 392h32v32h-32zM120 440h32v32h-32zM168 344h32v32h-32z" fill="#ffffff"></path><path d="M168 392h32v80h-32z" fill="#cfd3d6"></path><path d="M24 176h176v64H24z" fill="#474545"></path><path d="M128 200h16v16h-16zM160 200h16v16h-16zM96 200h16v16H96z" fill="#ffffff"></path><path d="M0 264h224v16H0zM168 296h32v16h-32z" fill="#474545"></path></g></svg>