<svg viewBox="0 0 512 512" xmlns="http://www.w3.org/2000/svg"><g><path d="M329.5 96.599C326.8 101.7 321.7 105 316 105h-30v196h-60V105h-30c-5.7 0-10.8-3.3-13.5-8.401A15.355 15.355 0 0 1 184 81l60-75c3-4.2 7.499-6 12-6s9 1.8 12.001 6l60 75a15.357 15.357 0 0 1 1.499 15.599z" fill="#19dec1"></path><path d="M329.5 96.599C326.8 101.7 321.7 105 316 105h-30v196h-30V0c4.501 0 9 1.8 12.001 6l60 75a15.357 15.357 0 0 1 1.499 15.599z" fill="#17ceb4"></path><path d="M481 391h-60v-75c0-8.401-6.599-15-15-15h-60v-75c0-8.401-6.599-15-15-15H181c-8.401 0-15 6.599-15 15v75h-60c-8.401 0-15 6.599-15 15v75H31c-8.401 0-15 6.599-15 15v91c0 8.399 6.599 15 15 15h450c8.401 0 15-6.601 15-15v-91c0-8.401-6.599-15-15-15z" fill="#fedb41"></path><path d="M346 421v61h120v-61H346zm-150 0v61h120v-61H196zm-150 0v61h120v-61H46zm75-90v60h120v-60H121zm75-90v60h120v-60H196zm75 90v60h120v-60H271z" fill="#fea832"></path><path d="M496 406v91c0 8.399-6.599 15-15 15H256V211h75c8.401 0 15 6.599 15 15v75h60c8.401 0 15 6.599 15 15v75h60c8.401 0 15 6.599 15 15z" fill="#fcbf29"></path><path d="M256 241h60v60h-60zM256 421h60v61h-60zM271 331h120v60H271zM346 421h120v61H346z" fill="#fe9923"></path></g></svg>